# FamiTracker text export 0.4.2

# Song information
TITLE           "Shovel Knight OST"
AUTHOR          "Jake Kaufman"
COPYRIGHT       ""

# Song comment
COMMENT ""

# Global settings
MACHINE         0
FRAMERATE       0
EXPANSION       1
VIBRATO         1
SPLIT           21

# Macros

# DPCM samples

# Instruments
INST2A03   0    -1  -1  -1  -1  -1 "blank"
INSTVRC6   1    -1  -1  -1  -1  -1 "blank"

# Tracks

TRACK 256   1 150 "New song"
COLUMNS : 3 3 1 1 2 2 2 2

ORDER 00 : 00 00 00 00 00 00 00 00
ORDER 01 : 01 01 01 01 01 01 01 01
ORDER 02 : 02 02 02 02 02 02 02 02
ORDER 03 : 03 03 03 03 03 03 03 03
ORDER 04 : 04 04 04 04 04 04 04 04
ORDER 05 : 05 05 05 05 05 05 05 05
ORDER 06 : 06 06 06 06 06 06 06 06
ORDER 07 : 07 07 07 07 07 07 07 07
ORDER 08 : 08 08 08 08 08 08 08 08
ORDER 09 : 09 09 09 09 09 09 09 09
ORDER 0A : 0A 0A 0A 0A 0A 0A 0A 0A
ORDER 0B : 0B 0B 0B 0B 0B 0B 0B 0B
ORDER 0C : 0C 0C 0C 0C 0C 0C 0C 0C
ORDER 0D : 0D 0D 0D 0D 0D 0D 0D 0D
ORDER 0E : 0E 0E 0E 0E 0E 0E 0E 0E
ORDER 0F : 0F 0F 0F 0F 0F 0F 0F 0F
ORDER 10 : 10 10 10 10 10 10 10 10
ORDER 11 : 11 11 11 11 11 11 11 11
ORDER 12 : 12 12 12 12 12 12 12 12
ORDER 13 : 13 13 13 13 13 13 13 13
ORDER 14 : 14 14 14 14 14 14 14 14
ORDER 15 : 15 15 15 15 15 15 15 15
ORDER 16 : 16 16 16 16 16 16 16 16
ORDER 17 : 17 17 17 17 17 17 17 17
ORDER 18 : 18 18 18 18 18 18 18 18
ORDER 19 : 19 19 19 19 19 19 19 19
ORDER 1A : 1A 1A 1A 1A 1A 1A 1A 1A
ORDER 1B : 1B 1B 1B 1B 1B 1B 1B 1B
ORDER 1C : 1C 1C 1C 1C 1C 1C 1C 1C

PATTERN 00
ROW 00 : G-1 00 4 P80 V00 ... : --- .. 0 P80 V00 ... : G-3 00 . P80 : F-# 00 0 V00 : === 00 . Z00 ... : --- .. 0 P80 V00 : --- .. 0 P80 V00 : --- .. 0 P80 V00
ROW 01 : ... .. 3 ... ... ... : ... .. . ... ... ... : ... .. . ... : ... .. . ... : ... .. . ... ... : ... .. . ... ... : ... .. . ... ... : ... .. . ... ...
ROW 02 : ... .. . ... ... ... : ... .. . ... ... ... : ... .. . ... : ... .. . ... : ... .. . ... ... : ... .. . ... ... : ... .. . ... ... : ... .. . ... ...
ROW 03 : ... .. 2 ... ... ... : ... .. . ... ... ... : ... .. . ... : ... .. . ... : ... .. . ... ... : ... .. . ... ... : ... .. . ... ... : ... .. . ... ...
ROW 04 : ... .. . ... ... ... : ... .. . ... ... ... : ... .. . ... : ... .. . ... : ... .. . ... ... : ... .. . ... ... : ... .. . ... ... : ... .. . ... ...
ROW 05 : ... .. 4 ... ... ... : ... .. . ... ... ... : F-3 00 . ... : ... .. . ... : ... .. . ... ... : ... .. . ... ... : ... .. . ... ... : ... .. . ... ...
ROW 06 : ... .. . ... ... ... : ... .. . ... ... ... : ... .. . ... : ... .. . ... : ... .. . ... ... : ... .. . ... ... : ... .. . ... ... : ... .. . ... ...
ROW 07 : ... .. . ... ... ... : ... .. . ... ... ... : ... .. . ... : ... .. . ... : ... .. . ... ... : ... .. . ... ... : ... .. . ... ... : ... .. . ... ...
ROW 08 : ... .. . ... ... ... : ... .. . ... ... ... : ... .. . ... : ... .. . ... : ... .. . ... ... : ... .. . ... ... : ... .. . ... ... : ... .. . ... ...
ROW 09 : ... .. . ... ... ... : ... .. . ... ... ... : ... .. . ... : ... .. . ... : ... .. . ... ... : ... .. . ... ... : ... .. . ... ... : ... .. . ... ...
ROW 0A : A-1 00 B ... ... ... : ... .. . ... ... ... : D#3 00 . ... : ... .. . ... : ... .. . ... ... : ... .. . ... ... : ... .. . ... ... : ... .. . ... ...
ROW 0B : ... .. A ... ... ... : ... .. . ... ... ... : ... .. . ... : ... .. . ... : ... .. . ... ... : ... .. . ... ... : ... .. . ... ... : ... .. . ... ...
ROW 0C : ... .. 9 ... ... ... : ... .. . ... ... ... : ... .. . ... : ... .. . ... : ... .. . ... ... : ... .. . ... ... : ... .. . ... ... : ... .. . ... ...
ROW 0D : ... .. 7 ... ... ... : ... .. . ... ... ... : ... .. . ... : ... .. . ... : ... .. . ... ... : ... .. . ... ... : ... .. . ... ... : ... .. . ... ...
ROW 0E : ... .. . ... ... ... : ... .. . ... ... ... : ... .. . ... : D-# 00 5 V01 : ... .. . ... ... : ... .. . ... ... : ... .. . ... ... : ... .. . ... ...
ROW 0F : B-1 00 F ... ... ... : ... .. . ... ... ... : D-3 00 . ... : ... .. 4 ... : ... .. . ... ... : ... .. . ... ... : ... .. . ... ... : ... .. . ... ...
ROW 10 : ... .. E ... ... ... : ... .. . ... ... ... : ... .. . ... : ... .. . ... : ... .. . ... ... : ... .. . ... ... : ... .. . ... ... : ... .. . ... ...
ROW 11 : ... .. D ... ... ... : ... .. . ... ... ... : ... .. . ... : ... .. 6 ... : ... .. . ... ... : ... .. . ... ... : ... .. . ... ... : ... .. . ... ...
ROW 12 : ... .. A ... ... ... : ... .. . ... ... ... : ... .. . ... : ... .. 5 ... : ... .. . ... ... : ... .. . ... ... : ... .. . ... ... : ... .. . ... ...
ROW 13 : ... .. . ... ... ... : ... .. . ... ... ... : ... .. . ... : ... .. . ... : ... .. . ... ... : ... .. . ... ... : ... .. . ... ... : ... .. . ... ...
ROW 14 : C-2 00 F ... ... ... : D#4 00 6 P80 ... ... : C-3 00 . ... : ... .. D ... : ... .. . ... ... : D#3 01 6 ... V05 : G-3 01 6 ... V05 : C-3 01 5 P7F ...
ROW 15 : ... .. E ... ... ... : ... .. 5 ... ... ... : ... .. . ... : ... .. B ... : ... .. . ... ... : ... .. 5 ... ... : ... .. 5 ... ... : ... .. 4 ... ...
ROW 16 : ... .. D ... ... ... : ... .. . ... ... ... : ... .. . ... : ... .. . ... : ... .. . ... ... : ... .. . ... ... : ... .. . ... ... : ... .. 2 ... ...
ROW 17 : ... .. A ... ... ... : ... .. . ... ... ... : ... .. . ... : ... .. A ... : ... .. . ... ... : ... .. 4 ... ... : ... .. 4 ... ... : ... .. . ... ...
ROW 18 : ... .. . ... ... ... : ... .. 4 ... ... ... : ... .. . ... : ... .. 8 ... : ... .. . ... ... : ... .. . ... ... : ... .. . ... ... : ... .. . ... ...
ROW 19 : ... .. . ... ... ... : ... .. 3 ... ... ... : ... .. . ... : ... .. 7 ... : ... .. . ... ... : ... .. . ... ... : ... .. . ... ... : ... .. . ... ...
ROW 1A : ... .. . ... ... ... : ... .. . ... ... ... : ... .. . ... : ... .. 6 ... : ... .. . ... ... : ... .. . ... ... : ... .. . ... ... : ... .. . ... ...
ROW 1B : ... .. . ... ... ... : ... .. . ... ... ... : ... .. . ... : ... .. . ... : ... .. . ... ... : ... .. 3 ... ... : ... .. 3 ... ... : ... .. . ... ...
ROW 1C : ... .. . ... ... ... : ... .. 2 ... ... ... : ... .. . ... : ... .. 5 ... : ... .. . ... ... : ... .. 2 ... ... : ... .. 2 ... ... : ... .. . ... ...
ROW 1D : ... .. . ... ... ... : ... .. . ... ... ... : ... .. . ... : ... .. . ... : ... .. . ... ... : ... .. . ... ... : ... .. . ... ... : ... .. . ... ...
ROW 1E : ... .. . ... ... ... : G-3 00 6 ... ... ... : ... .. . ... : ... .. 4 ... : ... .. . ... ... : ... .. 1 ... ... : ... .. 1 ... ... : ... .. . ... ...
ROW 1F : ... .. . ... ... ... : ... .. 5 ... ... ... : ... .. . ... : ... .. . ... : ... .. . ... ... : ... .. . ... ... : ... .. . ... ... : ... .. . ... ...
ROW 20 : ... .. . ... ... ... : ... .. . ... ... ... : ... .. . ... : ... .. 3 ... : ... .. . ... ... : ... .. . ... ... : ... .. . ... ... : ... .. . ... ...
ROW 21 : ... .. . ... ... ... : ... .. . ... ... ... : ... .. . ... : ... .. 2 ... : ... .. . ... ... : ... .. . ... ... : ... .. . ... ... : ... .. . ... ...
ROW 22 : ... .. . ... ... ... : ... .. 4 ... ... ... : ... .. . ... : ... .. . ... : ... .. . ... ... : ... .. . ... ... : ... .. . ... ... : ... .. . ... ...
ROW 23 : ... .. . ... ... ... : ... .. 3 ... ... ... : --- .. . ... : ... .. 1 ... : ... .. . ... ... : ... .. . ... ... : ... .. . ... ... : ... .. . ... ...
ROW 24 : ... .. 2 ... ... ... : ... .. . ... ... ... : ... .. . ... : ... .. 0 ... : ... .. . ... ... : ... .. . ... ... : ... .. . ... ... : ... .. . ... ...
ROW 25 : ... .. . ... ... ... : ... .. . ... ... ... : ... .. . ... : ... .. . ... : ... .. . ... ... : ... .. . ... ... : ... .. . ... ... : ... .. . ... ...
ROW 26 : ... .. . ... ... ... : ... .. 2 ... ... ... : ... .. . ... : ... .. . ... : ... .. . ... ... : ... .. . ... ... : ... .. . ... ... : ... .. . ... ...
ROW 27 : ... .. 1 ... ... ... : ... .. . ... ... ... : ... .. . ... : ... .. . ... : ... .. . ... ... : ... .. . ... ... : ... .. . ... ... : ... .. . ... ...
ROW 28 : G-3 00 F ... V02 ... : C-4 00 6 ... ... ... : D#4 00 . ... : 9-# 00 A V00 : ... .. . ... ... : ... .. 6 ... ... : ... .. 6 ... ... : ... .. . ... ...
ROW 29 : ... .. E ... ... ... : ... .. 5 ... ... ... : ... .. . ... : ... .. 8 ... : ... .. . ... ... : ... .. 5 ... ... : ... .. 5 ... ... : ... .. . ... ...
ROW 2A : ... .. D ... ... ... : ... .. . ... ... ... : ... .. . ... : ... .. 4 ... : ... .. . ... ... : ... .. . ... ... : ... .. . ... ... : ... .. . ... ...
ROW 2B : ... .. A ... ... ... : ... .. . ... ... ... : ... .. . ... : ... .. 2 ... : ... .. . ... ... : ... .. 4 ... ... : ... .. 4 ... ... : ... .. . ... ...
ROW 2C : ... .. . ... ... ... : ... .. 4 ... ... ... : ... .. . ... : ... .. 1 ... : ... .. . ... ... : ... .. . ... ... : ... .. . ... ... : ... .. . ... ...
ROW 2D : ... .. . ... ... ... : ... .. 3 ... ... ... : ... .. . ... : ... .. 0 ... : ... .. . ... ... : ... .. . ... ... : ... .. . ... ... : ... .. . ... ...
ROW 2E : ... .. 2 ... ... ... : ... .. . ... ... ... : ... .. . ... : ... .. . ... : ... .. . ... ... : ... .. . ... ... : ... .. . ... ... : ... .. . ... ...
ROW 2F : ... .. . ... ... ... : ... .. . ... ... ... : ... .. . ... : ... .. . ... : ... .. . ... ... : ... .. 3 ... ... : ... .. 3 ... ... : ... .. . ... ...
ROW 30 : ... .. . ... ... ... : ... .. 2 ... ... ... : ... .. . ... : ... .. . ... : ... .. . ... ... : ... .. 2 ... ... : ... .. 2 ... ... : ... .. . ... ...
ROW 31 : ... .. 1 ... ... ... : ... .. . ... ... ... : ... .. . ... : ... .. . ... : ... .. . ... ... : ... .. . ... ... : ... .. . ... ... : ... .. . ... ...
ROW 32 : ... .. . ... ... ... : G-3 00 6 ... ... ... : ... .. . ... : ... .. 8 ... : ... .. . ... ... : ... .. 1 ... ... : ... .. 1 ... ... : ... .. . ... ...
ROW 33 : ... .. . ... ... ... : ... .. 5 ... ... ... : ... .. . ... : ... .. 6 ... : ... .. . ... ... : ... .. . ... ... : ... .. . ... ... : ... .. . ... ...
ROW 34 : ... .. 0 ... V00 ... : ... .. . ... ... ... : ... .. . ... : ... .. 3 ... : ... .. . ... ... : ... .. . ... ... : ... .. . ... ... : ... .. . ... ...
ROW 35 : ... .. . ... ... ... : ... .. . ... ... ... : ... .. . ... : ... .. 1 ... : ... .. . ... ... : ... .. . ... ... : ... .. . ... ... : ... .. . ... ...
ROW 36 : ... .. . ... ... ... : ... .. 4 ... ... ... : ... .. . ... : ... .. . ... : ... .. . ... ... : ... .. . ... ... : ... .. . ... ... : ... .. . ... ...
ROW 37 : ... .. . ... ... ... : ... .. 3 ... ... ... : --- .. . ... : ... .. 0 ... : ... .. . ... ... : ... .. . ... ... : ... .. . ... ... : ... .. . ... ...
ROW 38 : ... .. . ... ... ... : ... .. . ... ... ... : ... .. . ... : ... .. . ... : ... .. . ... ... : ... .. . ... ... : ... .. . ... ... : ... .. . ... ...
ROW 39 : ... .. . ... ... ... : ... .. . ... ... ... : ... .. . ... : ... .. . ... : ... .. . ... ... : ... .. . ... ... : ... .. . ... ... : ... .. . ... ...
ROW 3A : ... .. . ... ... ... : ... .. 2 ... ... ... : ... .. . ... : ... .. . ... : ... .. . ... ... : ... .. . ... ... : ... .. . ... ... : ... .. . ... ...
ROW 3B : ... .. . ... ... ... : ... .. . ... ... ... : ... .. . ... : ... .. . ... : ... .. . ... ... : ... .. . ... ... : ... .. . ... ... : ... .. . ... ...
ROW 3C : G-3 00 F P80 V02 ... : D#4 00 6 ... ... ... : D#4 00 . ... : ... .. F ... : ... .. . ... ... : D-3 01 6 ... ... : ... .. 6 ... ... : D-3 01 5 ... ...
ROW 3D : ... .. E ... ... ... : ... .. 5 ... ... ... : ... .. . ... : ... .. C ... : ... .. . ... ... : ... .. 5 ... ... : ... .. 5 ... ... : ... .. 4 ... ...
ROW 3E : ... .. D ... ... ... : ... .. . ... ... ... : ... .. . ... : ... .. 6 ... : ... .. . ... ... : ... .. . ... ... : ... .. . ... ... : ... .. 2 ... ...
ROW 3F : ... .. A ... ... ... : ... .. . ... ... ... : ... .. . ... : ... .. 3 ... : ... .. . ... ... : ... .. 4 ... ... : ... .. 4 ... ... : ... .. . ... ...
ROW 40 : ... .. . ... ... ... : ... .. 4 ... ... ... : ... .. . ... : ... .. 2 ... : ... .. . ... ... : ... .. . ... ... : ... .. . ... ... : ... .. . ... ...
ROW 41 : ... .. . ... ... ... : ... .. 3 ... ... ... : ... .. . ... : ... .. 0 ... : ... .. . ... ... : ... .. . ... ... : ... .. . ... ... : ... .. . ... ...
ROW 42 : ... .. . ... ... ... : ... .. . ... ... ... : ... .. . ... : ... .. . ... : ... .. . ... ... : ... .. . ... ... : ... .. . ... ... : ... .. . ... ...
ROW 43 : ... .. . ... ... ... : ... .. . ... ... ... : ... .. . ... : ... .. . ... : ... .. . ... ... : ... .. 3 ... ... : ... .. 3 ... ... : ... .. . ... ...
ROW 44 : ... .. . ... ... ... : ... .. 2 ... ... ... : ... .. . ... : ... .. . ... : ... .. . ... ... : ... .. 2 ... ... : ... .. 2 ... ... : ... .. . ... ...
ROW 45 : ... .. . ... ... ... : ... .. . ... ... ... : ... .. . ... : ... .. . ... : ... .. . ... ... : ... .. . ... ... : ... .. . ... ... : ... .. . ... ...
ROW 46 : ... .. . ... ... ... : G-3 00 6 ... ... ... : ... .. . ... : ... .. . ... : ... .. . ... ... : ... .. 1 ... ... : ... .. 1 ... ... : ... .. 3 ... ...
ROW 47 : ... .. . ... ... ... : ... .. 5 ... ... ... : ... .. . ... : ... .. . ... : ... .. . ... ... : ... .. . ... ... : ... .. . ... ... : ... .. . ... ...
ROW 48 : ... .. . ... ... ... : ... .. . ... ... ... : ... .. . ... : ... .. . ... : ... .. . ... ... : ... .. . ... ... : ... .. . ... ... : ... .. . ... ...
ROW 49 : ... .. . ... ... ... : ... .. . ... ... ... : ... .. . ... : ... .. . ... : ... .. . ... ... : ... .. . ... ... : ... .. . ... ... : ... .. . ... ...
ROW 4A : ... .. . ... ... ... : ... .. 4 ... ... ... : ... .. . ... : ... .. . ... : ... .. . ... ... : ... .. . ... ... : ... .. . ... ... : ... .. . ... ...
ROW 4B : ... .. . ... ... ... : ... .. 3 ... ... ... : --- .. . ... : ... .. . ... : ... .. . ... ... : ... .. . ... ... : ... .. . ... ... : ... .. . ... ...
ROW 4C : ... .. . ... ... ... : ... .. . ... ... ... : ... .. . ... : ... .. . ... : ... .. . ... ... : ... .. . ... ... : ... .. . ... ... : ... .. . ... ...
ROW 4D : ... .. . ... ... ... : ... .. . ... ... ... : ... .. . ... : ... .. . ... : ... .. . ... ... : ... .. . ... ... : ... .. . ... ... : ... .. . ... ...
ROW 4E : ... .. . ... ... ... : ... .. 2 ... ... ... : ... .. . ... : ... .. . ... : ... .. . ... ... : ... .. . ... ... : ... .. . ... ... : ... .. . ... ...
ROW 4F : ... .. . ... ... ... : ... .. . ... ... ... : ... .. . ... : ... .. . ... : ... .. . ... ... : ... .. . ... ... : ... .. . ... ... : ... .. . ... ...
ROW 50 : F-4 00 F ... ... ... : C-4 00 6 ... ... ... : G-3 00 . ... : D-# 00 8 ... : ... .. . ... ... : ... .. 6 ... ... : ... .. 6 ... ... : ... .. . ... ...
ROW 51 : ... .. E ... ... ... : ... .. 5 ... ... ... : ... .. . ... : ... .. 7 ... : ... .. . ... ... : ... .. 5 ... ... : ... .. 5 ... ... : ... .. . ... ...
ROW 52 : ... .. D ... ... ... : ... .. . ... ... ... : ... .. . ... : ... .. . ... : ... .. . ... ... : ... .. . ... ... : ... .. . ... ... : ... .. . ... ...
ROW 53 : ... .. A ... ... ... : ... .. . ... ... ... : ... .. . ... : ... .. 6 ... : ... .. . ... ... : ... .. 4 ... ... : ... .. 4 ... ... : ... .. . ... ...
ROW 54 : ... .. . ... ... ... : ... .. 4 ... ... ... : ... .. . ... : ... .. 5 ... : ... .. . ... ... : ... .. . ... ... : ... .. . ... ... : ... .. . ... ...
ROW 55 : ... .. . ... ... ... : ... .. 3 ... ... ... : ... .. . ... : ... .. 4 ... : ... .. . ... ... : ... .. . ... ... : ... .. . ... ... : ... .. . ... ...
ROW 56 : ... .. 2 ... ... ... : ... .. . ... ... ... : ... .. . ... : ... .. . ... : ... .. . ... ... : ... .. . ... ... : ... .. . ... ... : ... .. . ... ...
ROW 57 : ... .. . ... ... ... : ... .. . ... ... ... : ... .. . ... : ... .. . ... : ... .. . ... ... : ... .. 3 ... ... : ... .. 3 ... ... : ... .. . ... ...
ROW 58 : ... .. . ... ... ... : ... .. 2 ... ... ... : ... .. . ... : ... .. 3 ... : ... .. . ... ... : ... .. 2 ... ... : ... .. 2 ... ... : ... .. . ... ...
ROW 59 : ... .. 1 ... ... ... : ... .. . ... ... ... : ... .. . ... : ... .. . ... : ... .. . ... ... : ... .. . ... ... : ... .. . ... ... : ... .. . ... ...
ROW 5A : ... .. . ... ... ... : G-3 00 6 ... ... ... : ... .. . ... : ... .. 2 ... : ... .. . ... ... : ... .. 1 ... ... : ... .. 1 ... ... : ... .. . ... ...
ROW 5B : ... .. . ... ... ... : ... .. 5 ... ... ... : ... .. . ... : ... .. . ... : ... .. . ... ... : ... .. . ... ... : ... .. . ... ... : ... .. . ... ...
ROW 5C : ... .. 0 ... V00 ... : ... .. . ... ... ... : ... .. . ... : ... .. . ... : ... .. . ... ... : ... .. . ... ... : ... .. . ... ... : ... .. . ... ...
ROW 5D : ... .. . ... ... ... : ... .. . ... ... ... : ... .. . ... : ... .. 1 ... : ... .. . ... ... : ... .. . ... ... : ... .. . ... ... : ... .. . ... ...
ROW 5E : ... .. . ... ... ... : ... .. 4 ... ... ... : ... .. . ... : ... .. . ... : ... .. . ... ... : ... .. . ... ... : ... .. . ... ... : ... .. . ... ...
ROW 5F : ... .. . ... ... ... : ... .. 3 ... ... ... : --- .. . ... : ... .. . ... : ... .. . ... ... : ... .. . ... ... : ... .. . ... ... : ... .. . ... ...
ROW 60 : ... .. . ... ... ... : ... .. . ... ... ... : ... .. . ... : ... .. 0 ... : ... .. . ... ... : ... .. . ... ... : ... .. . ... ... : ... .. . ... ...
ROW 61 : ... .. . ... ... ... : ... .. . ... ... ... : ... .. . ... : ... .. . ... : ... .. . ... ... : ... .. . ... ... : ... .. . ... ... : ... .. . ... ...
ROW 62 : ... .. . ... ... ... : ... .. 2 ... ... ... : ... .. . ... : ... .. . ... : ... .. . ... ... : ... .. . ... ... : ... .. . ... ... : ... .. . ... ...
ROW 63 : ... .. . ... ... ... : ... .. . ... ... ... : ... .. . ... : ... .. . ... : ... .. . ... ... : ... .. . ... ... : ... .. . ... ... : ... .. . ... ...
ROW 64 : F-4 00 F P80 V02 ... : D#4 00 6 ... ... ... : C-3 00 . ... : ... .. D ... : ... .. . ... ... : D#3 01 6 ... ... : ... .. 6 ... ... : F-3 01 6 ... ...
ROW 65 : ... .. E ... ... ... : ... .. 5 ... ... ... : ... .. . ... : ... .. B ... : ... .. . ... ... : ... .. 5 ... ... : ... .. 5 ... ... : ... .. 5 ... ...
ROW 66 : ... .. D ... ... ... : ... .. . ... ... ... : ... .. . ... : ... .. . ... : ... .. . ... ... : ... .. . ... ... : ... .. . ... ... : ... .. 3 ... ...
ROW 67 : ... .. A ... ... ... : ... .. . ... ... ... : ... .. . ... : ... .. A ... : ... .. . ... ... : ... .. 4 ... ... : ... .. 4 ... ... : ... .. . ... ...
ROW 68 : ... .. . ... ... ... : ... .. 4 ... ... ... : ... .. . ... : ... .. 8 ... : ... .. . ... ... : ... .. . ... ... : ... .. . ... ... : ... .. . ... ...
ROW 69 : ... .. . ... ... ... : ... .. 3 ... ... ... : ... .. . ... : ... .. 7 ... : ... .. . ... ... : ... .. . ... ... : ... .. . ... ... : ... .. . ... ...
ROW 6A : ... .. . ... ... ... : ... .. . ... ... ... : ... .. . ... : ... .. 6 ... : ... .. . ... ... : ... .. . ... ... : ... .. . ... ... : ... .. . ... ...
ROW 6B : ... .. . ... ... ... : ... .. . ... ... ... : ... .. . ... : ... .. . ... : ... .. . ... ... : ... .. 3 ... ... : ... .. 3 ... ... : ... .. . ... ...
ROW 6C : ... .. . ... ... ... : ... .. 2 ... ... ... : ... .. . ... : ... .. 5 ... : ... .. . ... ... : ... .. 2 ... ... : ... .. 2 ... ... : ... .. . ... ...
ROW 6D : ... .. . ... ... ... : ... .. . ... ... ... : ... .. . ... : ... .. . ... : ... .. . ... ... : ... .. . ... ... : ... .. . ... ... : ... .. . ... ...
ROW 6E : ... .. . P84 ... ... : G-3 00 6 ... ... ... : ... .. . ... : ... .. 4 ... : ... .. . ... ... : ... .. 1 ... ... : ... .. 1 ... ... : ... .. . ... ...
ROW 6F : F#4 00 A P7D ... ... : ... .. 5 ... ... ... : ... .. . ... : ... .. . ... : ... .. . ... ... : ... .. . ... ... : ... .. . ... ... : ... .. . ... ...
ROW 70 : ... .. . P7C ... ... : ... .. . ... ... ... : ... .. . ... : ... .. 3 ... : ... .. . ... ... : ... .. . ... ... : ... .. . ... ... : ... .. . ... ...
ROW 71 : F-4 00 A P82 ... ... : ... .. . ... ... ... : ... .. . ... : ... .. 2 ... : ... .. . ... ... : ... .. . ... ... : ... .. . ... ... : ... .. . ... ...
ROW 72 : ... .. . P7E ... ... : ... .. 4 ... ... ... : ... .. . ... : ... .. . ... : ... .. . ... ... : ... .. . ... ... : ... .. . ... ... : ... .. . ... ...
ROW 73 : E-4 00 A P85 ... ... : ... .. 3 ... ... ... : --- .. . ... : ... .. 1 ... : ... .. . ... ... : ... .. . ... ... : ... .. . ... ... : ... .. . ... ...
ROW 74 : ... .. . P84 ... ... : ... .. . ... ... ... : ... .. . ... : ... .. 0 ... : ... .. . ... ... : ... .. . ... ... : ... .. . ... ... : ... .. . ... ...
ROW 75 : F-4 00 A P7C ... ... : ... .. . ... ... ... : ... .. . ... : ... .. . ... : ... .. . ... ... : ... .. . ... ... : ... .. . ... ... : ... .. . ... ...
ROW 76 : ... .. . P80 ... ... : ... .. 2 ... ... ... : ... .. . ... : ... .. . ... : ... .. . ... ... : ... .. . ... ... : ... .. . ... ... : ... .. . ... ...
ROW 77 : ... .. . P83 ... ... : ... .. . ... ... ... : ... .. . ... : ... .. . ... : ... .. . ... ... : ... .. . ... ... : ... .. . ... ... : ... .. . ... ...
ROW 78 : D#4 00 F P80 ... ... : C-4 00 6 ... ... ... : D#4 00 . ... : 9-# 00 A ... : ... .. . ... ... : ... .. 6 ... ... : ... .. 6 ... ... : ... .. . ... ...
ROW 79 : ... .. E ... ... ... : ... .. 5 ... ... ... : ... .. . ... : ... .. 8 ... : ... .. . ... ... : ... .. 5 ... ... : ... .. 5 ... ... : ... .. . ... ...
ROW 7A : ... .. D ... ... ... : ... .. . ... ... ... : ... .. . ... : ... .. 4 ... : ... .. . ... ... : ... .. . ... ... : ... .. . ... ... : ... .. . ... ...
ROW 7B : ... .. A ... ... ... : ... .. . ... ... ... : ... .. . ... : ... .. 2 ... : ... .. . ... ... : ... .. 4 ... ... : ... .. 4 ... ... : ... .. . ... ...
ROW 7C : ... .. . ... ... ... : ... .. 4 ... ... ... : ... .. . ... : ... .. 1 ... : ... .. . ... ... : ... .. . ... ... : ... .. . ... ... : ... .. . ... ...
ROW 7D : ... .. . ... ... ... : ... .. 3 ... ... ... : ... .. . ... : ... .. 0 ... : ... .. . ... ... : ... .. . ... ... : ... .. . ... ... : ... .. . ... ...
ROW 7E : ... .. 2 ... ... ... : ... .. . ... ... ... : ... .. . ... : ... .. . ... : ... .. . ... ... : ... .. . ... ... : ... .. . ... ... : ... .. . ... ...
ROW 7F : ... .. . ... ... ... : ... .. . ... ... ... : ... .. . ... : ... .. 8 ... : ... .. . ... ... : ... .. 3 ... ... : ... .. 3 ... ... : ... .. . ... ...
ROW 80 : ... .. . ... ... ... : ... .. 2 ... ... ... : ... .. . ... : ... .. 6 ... : ... .. . ... ... : ... .. 2 ... ... : ... .. 2 ... ... : ... .. . ... ...
ROW 81 : ... .. 1 ... ... ... : ... .. . ... ... ... : ... .. . ... : ... .. 3 ... : ... .. . ... ... : ... .. . ... ... : ... .. . ... ... : ... .. . ... ...
ROW 82 : D-4 00 F ... ... ... : G-3 00 6 ... ... ... : ... .. . ... : ... .. 1 ... : ... .. . ... ... : ... .. 1 ... ... : ... .. 1 ... ... : ... .. . ... ...
ROW 83 : ... .. E ... ... ... : ... .. 5 ... ... ... : ... .. . ... : ... .. . ... : ... .. . ... ... : ... .. . ... ... : ... .. . ... ... : ... .. . ... ...
ROW 84 : ... .. D ... ... ... : ... .. . ... ... ... : ... .. . ... : ... .. 0 ... : ... .. . ... ... : ... .. . ... ... : ... .. . ... ... : ... .. . ... ...
ROW 85 : ... .. A ... ... ... : ... .. . ... ... ... : ... .. . ... : ... .. C ... : ... .. . ... ... : ... .. . ... ... : ... .. . ... ... : ... .. . ... ...
ROW 86 : ... .. . ... ... ... : ... .. 4 ... ... ... : ... .. . ... : ... .. 9 ... : ... .. . ... ... : ... .. . ... ... : ... .. . ... ... : ... .. . ... ...
ROW 87 : ... .. . ... ... ... : ... .. 3 ... ... ... : --- .. . ... : ... .. 4 ... : ... .. . ... ... : ... .. . ... ... : ... .. . ... ... : ... .. . ... ...
ROW 88 : ... .. 2 ... ... ... : ... .. . ... ... ... : ... .. . ... : ... .. 2 ... : ... .. . ... ... : ... .. . ... ... : ... .. . ... ... : ... .. . ... ...
ROW 89 : ... .. . ... ... ... : ... .. . ... ... ... : ... .. . ... : ... .. 1 ... : ... .. . ... ... : ... .. . ... ... : ... .. . ... ... : ... .. . ... ...
ROW 8A : ... .. . ... ... ... : ... .. 2 ... ... ... : ... .. . ... : ... .. 0 ... : ... .. . ... ... : ... .. . ... ... : ... .. . ... ... : ... .. . ... ...
ROW 8B : ... .. 1 ... ... ... : ... .. . ... ... ... : ... .. . ... : ... .. . ... : ... .. . ... ... : ... .. . ... ... : ... .. . ... ... : ... .. . ... ...
ROW 8C : D#4 00 F ... ... ... : D-4 00 6 ... ... ... : D#4 00 . ... : ... .. F ... : ... .. . ... ... : C-3 01 6 ... ... : ... .. 6 ... ... : D#3 01 7 ... ...
ROW 8D : ... .. E ... ... ... : ... .. 5 ... ... ... : ... .. . ... : ... .. C ... : ... .. . ... ... : ... .. 5 ... ... : ... .. 5 ... ... : ... .. 6 ... ...
ROW 8E : ... .. D ... ... ... : ... .. . ... ... ... : ... .. . ... : ... .. 6 ... : ... .. . ... ... : ... .. . ... ... : ... .. . ... ... : ... .. 3 ... ...
ROW 8F : ... .. A ... ... ... : ... .. . ... ... ... : ... .. . ... : ... .. 3 ... : ... .. . ... ... : ... .. 4 ... ... : ... .. 4 ... ... : ... .. . ... ...
ROW 90 : ... .. . ... ... ... : ... .. 4 ... ... ... : ... .. . ... : ... .. 2 ... : ... .. . ... ... : ... .. . ... ... : ... .. . ... ... : ... .. . ... ...
ROW 91 : ... .. . ... ... ... : ... .. 3 ... ... ... : ... .. . ... : ... .. 0 ... : ... .. . ... ... : ... .. . ... ... : ... .. . ... ... : ... .. . ... ...
ROW 92 : ... .. . ... ... ... : ... .. . ... ... ... : ... .. . ... : ... .. . ... : ... .. . ... ... : ... .. . ... ... : ... .. . ... ... : ... .. . ... ...
ROW 93 : ... .. . ... ... ... : ... .. . ... ... ... : ... .. . ... : ... .. . ... : ... .. . ... ... : ... .. 3 ... ... : ... .. 3 ... ... : ... .. . ... ...
ROW 94 : ... .. . ... ... ... : ... .. 2 ... ... ... : ... .. . ... : ... .. . ... : ... .. . ... ... : ... .. 2 ... ... : ... .. 2 ... ... : ... .. . ... ...
ROW 95 : ... .. . ... ... ... : ... .. . ... ... ... : ... .. . ... : ... .. . ... : ... .. . ... ... : ... .. . ... ... : ... .. . ... ... : ... .. . ... ...
ROW 96 : ... .. . ... ... ... : G-3 00 6 ... ... ... : ... .. . ... : ... .. . ... : ... .. . ... ... : ... .. 1 ... ... : ... .. 1 ... ... : ... .. . ... ...
ROW 97 : ... .. . ... ... ... : ... .. 5 ... ... ... : ... .. . ... : ... .. . ... : ... .. . ... ... : ... .. . ... ... : ... .. . ... ... : ... .. . ... ...
ROW 98 : ... .. . ... ... ... : ... .. . ... ... ... : ... .. . ... : ... .. . ... : ... .. . ... ... : ... .. . ... ... : ... .. . ... ... : ... .. . ... ...
ROW 99 : ... .. . ... ... ... : ... .. . ... ... ... : ... .. . ... : ... .. . ... : ... .. . ... ... : ... .. . ... ... : ... .. . ... ... : ... .. . ... ...
ROW 9A : ... .. . ... ... ... : ... .. 4 ... ... ... : ... .. . ... : ... .. . ... : ... .. . ... ... : ... .. . ... ... : ... .. . ... ... : ... .. . ... ...
ROW 9B : ... .. . ... ... ... : ... .. 3 ... ... ... : --- .. . ... : ... .. . ... : ... .. . ... ... : ... .. . ... ... : ... .. . ... ... : ... .. . ... ...
ROW 9C : ... .. . ... ... ... : ... .. . ... ... ... : ... .. . ... : ... .. . ... : ... .. . ... ... : ... .. . ... ... : ... .. . ... ... : ... .. . ... ...
ROW 9D : ... .. . ... ... ... : ... .. . ... ... ... : ... .. . ... : ... .. . ... : ... .. . ... ... : ... .. . ... ... : ... .. . ... ... : ... .. . ... ...
ROW 9E : ... .. . ... ... ... : ... .. 2 ... ... ... : ... .. . ... : ... .. . ... : ... .. . ... ... : ... .. . ... ... : ... .. . ... ... : ... .. . ... ...
ROW 9F : ... .. . ... ... ... : ... .. . ... ... ... : ... .. . ... : ... .. . ... : ... .. . ... ... : ... .. . ... ... : ... .. . ... ... : ... .. . ... ...
ROW A0 : C-4 00 F ... ... ... : C-4 00 6 ... ... ... : G-3 00 . ... : ... .. . ... : ... .. . ... ... : ... .. 6 ... ... : ... .. 6 ... ... : ... .. 4 ... ...
ROW A1 : ... .. E ... ... ... : ... .. 5 ... ... ... : ... .. . ... : ... .. . ... : ... .. . ... ... : ... .. 5 ... ... : ... .. 5 ... ... : ... .. . ... ...
ROW A2 : ... .. D ... ... ... : ... .. . ... ... ... : ... .. . ... : ... .. . ... : ... .. . ... ... : ... .. . ... ... : ... .. . ... ... : ... .. . ... ...
ROW A3 : ... .. A ... ... ... : ... .. . ... ... ... : ... .. . ... : ... .. . ... : ... .. . ... ... : ... .. 4 ... ... : ... .. 4 ... ... : ... .. . ... ...
ROW A4 : ... .. . ... ... ... : ... .. 4 ... ... ... : ... .. . ... : ... .. . ... : ... .. . ... ... : ... .. . ... ... : ... .. . ... ... : ... .. . ... ...
ROW A5 : ... .. . ... ... ... : ... .. 3 ... ... ... : ... .. . ... : ... .. . ... : ... .. . ... ... : ... .. . ... ... : ... .. . ... ... : ... .. . ... ...
ROW A6 : ... .. . ... ... ... : ... .. . ... ... ... : ... .. . ... : ... .. . ... : ... .. . ... ... : ... .. . ... ... : ... .. . ... ... : ... .. . ... ...
ROW A7 : ... .. . ... ... ... : ... .. . ... ... ... : ... .. . ... : ... .. . ... : ... .. . ... ... : ... .. 3 ... ... : ... .. 3 ... ... : ... .. . ... ...
ROW A8 : ... .. . ... ... ... : ... .. 2 ... ... ... : ... .. . ... : ... .. . ... : ... .. . ... ... : ... .. 2 ... ... : ... .. 2 ... ... : ... .. . ... ...
ROW A9 : ... .. . ... ... ... : ... .. . ... ... ... : ... .. . ... : ... .. . ... : ... .. . ... ... : ... .. . ... ... : ... .. . ... ... : ... .. . ... ...
ROW AA : ... .. . ... ... ... : G-3 00 6 ... ... ... : ... .. . ... : ... .. . ... : ... .. . ... ... : ... .. 1 ... ... : ... .. 1 ... ... : ... .. . ... ...
ROW AB : ... .. 2 ... ... ... : ... .. 5 ... ... ... : ... .. . ... : ... .. . ... : ... .. . ... ... : ... .. . ... ... : ... .. . ... ... : ... .. . ... ...
ROW AC : ... .. . ... ... ... : ... .. . ... ... ... : ... .. . ... : ... .. . ... : ... .. . ... ... : ... .. . ... ... : ... .. . ... ... : ... .. . ... ...
ROW AD : ... .. . ... ... ... : ... .. . ... ... ... : ... .. . ... : ... .. . ... : ... .. . ... ... : ... .. . ... ... : ... .. . ... ... : ... .. . ... ...
ROW AE : ... .. 1 ... ... ... : ... .. 4 ... ... ... : ... .. . ... : ... .. . ... : ... .. . ... ... : ... .. . ... ... : ... .. . ... ... : ... .. . ... ...
ROW AF : ... .. . ... ... ... : ... .. 3 ... ... ... : --- .. . ... : ... .. . ... : ... .. . ... ... : ... .. . ... ... : ... .. . ... ... : ... .. . ... ...
ROW B0 : ... .. . ... ... ... : ... .. . ... ... ... : ... .. . ... : ... .. . ... : ... .. . ... ... : ... .. . ... ... : ... .. . ... ... : ... .. . ... ...
ROW B1 : ... .. 0 ... V00 ... : ... .. . ... ... ... : ... .. . ... : ... .. . ... : ... .. . ... ... : ... .. . ... ... : ... .. . ... ... : ... .. . ... ...
ROW B2 : ... .. . ... ... ... : ... .. 2 ... ... ... : ... .. . ... : ... .. . ... : ... .. . ... ... : ... .. . ... ... : ... .. . ... ... : ... .. . ... ...
ROW B3 : ... .. . ... ... ... : ... .. . ... ... ... : ... .. . ... : ... .. . ... : ... .. . ... ... : ... .. . ... ... : ... .. . ... ... : ... .. . ... ...
ROW B4 : ... .. . ... ... ... : D-4 00 6 ... ... ... : C-3 00 . ... : D-# 00 D V01 : ... .. . ... ... : D-3 01 6 ... ... : ... .. 6 ... ... : D-3 01 8 ... ...
ROW B5 : ... .. . ... ... ... : ... .. 5 ... ... ... : ... .. . ... : ... .. B ... : ... .. . ... ... : ... .. 5 ... ... : ... .. 5 ... ... : ... .. 6 ... ...
ROW B6 : ... .. . ... ... ... : ... .. . ... ... ... : ... .. . ... : ... .. . ... : ... .. . ... ... : ... .. . ... ... : ... .. . ... ... : ... .. 4 ... ...
ROW B7 : ... .. . ... ... ... : ... .. . ... ... ... : ... .. . ... : ... .. A ... : ... .. . ... ... : ... .. 4 ... ... : ... .. 4 ... ... : ... .. . ... ...
ROW B8 : ... .. . ... ... ... : ... .. 4 ... ... ... : ... .. . ... : ... .. 8 ... : ... .. . ... ... : ... .. . ... ... : ... .. . ... ... : ... .. . ... ...
ROW B9 : ... .. . ... ... ... : ... .. 3 ... ... ... : ... .. . ... : ... .. 7 ... : ... .. . ... ... : ... .. . ... ... : ... .. . ... ... : ... .. . ... ...
ROW BA : ... .. . ... ... ... : ... .. . ... ... ... : ... .. . ... : ... .. 6 ... : ... .. . ... ... : ... .. . ... ... : ... .. . ... ... : ... .. . ... ...
ROW BB : ... .. . ... ... ... : ... .. . ... ... ... : ... .. . ... : ... .. . ... : ... .. . ... ... : ... .. 3 ... ... : ... .. 3 ... ... : ... .. . ... ...
ROW BC : ... .. . ... ... ... : ... .. 2 ... ... ... : ... .. . ... : ... .. 5 ... : ... .. . ... ... : ... .. 2 ... ... : ... .. 2 ... ... : ... .. . ... ...
ROW BD : ... .. . ... ... ... : ... .. . ... ... ... : ... .. . ... : ... .. . ... : ... .. . ... ... : ... .. . ... ... : ... .. . ... ... : ... .. . ... ...
ROW BE : ... .. . ... ... ... : G-3 00 6 ... ... ... : ... .. . ... : ... .. 4 ... : ... .. . ... ... : ... .. 1 ... ... : ... .. 1 ... ... : ... .. . ... ...
ROW BF : ... .. . ... ... ... : ... .. 5 ... ... ... : ... .. . ... : ... .. . ... : ... .. . ... ... : ... .. . ... ... : ... .. . ... ... : ... .. . ... ...
ROW C0 : ... .. . ... ... ... : ... .. . ... ... ... : ... .. . ... : ... .. 3 ... : ... .. . ... ... : ... .. . ... ... : ... .. . ... ... : ... .. . ... ...
ROW C1 : ... .. . ... ... ... : ... .. . ... ... ... : ... .. . ... : ... .. 2 ... : ... .. . ... ... : ... .. . ... ... : ... .. . ... ... : ... .. . ... ...
ROW C2 : ... .. . ... ... ... : ... .. 4 ... ... ... : ... .. . ... : ... .. . ... : ... .. . ... ... : ... .. . ... ... : ... .. . ... ... : ... .. . ... ...
ROW C3 : ... .. . ... ... ... : ... .. 3 ... ... ... : --- .. . ... : ... .. 1 ... : ... .. . ... ... : ... .. . ... ... : ... .. . ... ... : ... .. . ... ...
ROW C4 : ... .. . ... ... ... : ... .. . ... ... ... : ... .. . ... : ... .. 0 ... : ... .. . ... ... : ... .. . ... ... : ... .. . ... ... : ... .. . ... ...
ROW C5 : ... .. . ... ... ... : ... .. . ... ... ... : ... .. . ... : ... .. . ... : ... .. . ... ... : ... .. . ... ... : ... .. . ... ... : ... .. . ... ...
ROW C6 : ... .. . ... ... ... : ... .. 2 ... ... ... : ... .. . ... : ... .. . ... : ... .. . ... ... : ... .. . ... ... : ... .. . ... ... : ... .. . ... ...
ROW C7 : ... .. . ... ... ... : ... .. . ... ... ... : ... .. . ... : ... .. . ... : ... .. . ... ... : ... .. . ... ... : ... .. . ... ... : ... .. . ... ...
ROW C8 : F-3 00 F P80 V02 ... : C-4 00 6 ... ... ... : D-4 00 . ... : 9-# 00 A V00 : ... .. . ... ... : ... .. 6 ... ... : ... .. 6 ... ... : ... .. . ... ...
ROW C9 : ... .. E ... ... ... : ... .. 5 ... ... ... : ... .. . ... : ... .. 8 ... : ... .. . ... ... : ... .. 5 ... ... : ... .. 5 ... ... : ... .. . ... ...
ROW CA : ... .. D ... ... ... : ... .. . ... ... ... : ... .. . ... : ... .. 4 ... : ... .. . ... ... : ... .. . ... ... : ... .. . ... ... : ... .. . ... ...
ROW CB : ... .. A ... ... ... : ... .. . ... ... ... : ... .. . ... : ... .. 2 ... : ... .. . ... ... : ... .. 4 ... ... : ... .. 4 ... ... : ... .. . ... ...
ROW CC : ... .. . ... ... ... : ... .. 4 ... ... ... : ... .. . ... : ... .. 1 ... : ... .. . ... ... : ... .. . ... ... : ... .. . ... ... : ... .. . ... ...
ROW CD : ... .. . ... ... ... : ... .. 3 ... ... ... : ... .. . ... : ... .. 0 ... : ... .. . ... ... : ... .. . ... ... : ... .. . ... ... : ... .. . ... ...
ROW CE : ... .. 2 ... ... ... : ... .. . ... ... ... : ... .. . ... : ... .. . ... : ... .. . ... ... : ... .. . ... ... : ... .. . ... ... : ... .. . ... ...
ROW CF : ... .. . ... ... ... : ... .. . ... ... ... : ... .. . ... : ... .. . ... : ... .. . ... ... : ... .. 3 ... ... : ... .. 3 ... ... : ... .. . ... ...
ROW D0 : ... .. . ... ... ... : ... .. 2 ... ... ... : ... .. . ... : ... .. . ... : ... .. . ... ... : ... .. 2 ... ... : ... .. 2 ... ... : ... .. . ... ...
ROW D1 : ... .. 1 ... ... ... : ... .. . ... ... ... : ... .. . ... : ... .. . ... : ... .. . ... ... : ... .. . ... ... : ... .. . ... ... : ... .. . ... ...
ROW D2 : ... .. . ... ... ... : G-3 00 6 ... ... ... : ... .. . ... : ... .. 8 ... : ... .. . ... ... : ... .. 1 ... ... : ... .. 1 ... ... : ... .. . ... ...
ROW D3 : ... .. . ... ... ... : ... .. 5 ... ... ... : ... .. . ... : ... .. 6 ... : ... .. . ... ... : ... .. . ... ... : ... .. . ... ... : ... .. . ... ...
ROW D4 : ... .. 0 ... V00 ... : ... .. . ... ... ... : ... .. . ... : ... .. 3 ... : ... .. . ... ... : ... .. . ... ... : ... .. . ... ... : ... .. . ... ...
ROW D5 : ... .. . ... ... ... : ... .. . ... ... ... : ... .. . ... : ... .. 1 ... : ... .. . ... ... : ... .. . ... ... : ... .. . ... ... : ... .. . ... ...
ROW D6 : ... .. . ... ... ... : ... .. 4 ... ... ... : ... .. . ... : ... .. . ... : ... .. . ... ... : ... .. . ... ... : ... .. . ... ... : ... .. . ... ...
ROW D7 : ... .. . ... ... ... : ... .. 3 ... ... ... : --- .. . ... : ... .. 0 ... : ... .. . ... ... : ... .. . ... ... : ... .. . ... ... : ... .. . ... ...
ROW D8 : ... .. . ... ... ... : ... .. . ... ... ... : ... .. . ... : ... .. . ... : ... .. . ... ... : ... .. . ... ... : ... .. . ... ... : ... .. . ... ...
ROW D9 : ... .. . ... ... ... : ... .. . ... ... ... : ... .. . ... : ... .. . ... : ... .. . ... ... : ... .. . ... ... : ... .. . ... ... : ... .. . ... ...
ROW DA : ... .. . ... ... ... : ... .. 2 ... ... ... : ... .. . ... : ... .. . ... : ... .. . ... ... : ... .. . ... ... : ... .. . ... ... : ... .. . ... ...
ROW DB : ... .. . ... ... ... : ... .. . ... ... ... : ... .. . ... : ... .. . ... : ... .. . ... ... : ... .. . ... ... : ... .. . ... ... : ... .. . ... ...
ROW DC : F-3 00 F P80 V02 ... : D-4 00 6 ... ... ... : D-4 00 . ... : ... .. F ... : ... .. . ... ... : C-3 01 6 ... ... : ... .. 6 ... ... : C-3 01 9 ... ...
ROW DD : ... .. E ... ... ... : ... .. 5 ... ... ... : ... .. . ... : ... .. C ... : ... .. . ... ... : ... .. 5 ... ... : ... .. 5 ... ... : ... .. 7 ... ...
ROW DE : ... .. D ... ... ... : ... .. . ... ... ... : ... .. . ... : ... .. 6 ... : ... .. . ... ... : ... .. . ... ... : ... .. . ... ... : ... .. 4 ... ...
ROW DF : ... .. A ... ... ... : ... .. . ... ... ... : ... .. . ... : ... .. 3 ... : ... .. . ... ... : ... .. 4 ... ... : ... .. 4 ... ... : ... .. . ... ...
ROW E0 : ... .. . ... ... ... : ... .. 4 ... ... ... : ... .. . ... : ... .. 2 ... : ... .. . ... ... : ... .. . ... ... : ... .. . ... ... : ... .. . ... ...
ROW E1 : ... .. . ... ... ... : ... .. 3 ... ... ... : ... .. . ... : ... .. 0 ... : ... .. . ... ... : ... .. . ... ... : ... .. . ... ... : ... .. . ... ...
ROW E2 : ... .. . ... ... ... : ... .. . ... ... ... : ... .. . ... : ... .. . ... : ... .. . ... ... : ... .. . ... ... : ... .. . ... ... : ... .. . ... ...
ROW E3 : ... .. . ... ... ... : ... .. . ... ... ... : ... .. . ... : ... .. . ... : ... .. . ... ... : ... .. 3 ... ... : ... .. 3 ... ... : ... .. . ... ...
ROW E4 : ... .. . ... ... ... : ... .. 2 ... ... ... : ... .. . ... : ... .. . ... : ... .. . ... ... : ... .. 2 ... ... : ... .. 2 ... ... : ... .. . ... ...
ROW E5 : ... .. . ... ... ... : ... .. . ... ... ... : ... .. . ... : ... .. . ... : ... .. . ... ... : ... .. . ... ... : ... .. . ... ... : ... .. . ... ...
ROW E6 : ... .. . ... ... ... : G-3 00 6 ... ... ... : ... .. . ... : ... .. . ... : ... .. . ... ... : ... .. 1 ... ... : ... .. 1 ... ... : ... .. . ... ...
ROW E7 : ... .. . ... ... ... : ... .. 5 ... ... ... : ... .. . ... : ... .. . ... : ... .. . ... ... : ... .. . ... ... : ... .. . ... ... : ... .. . ... ...
ROW E8 : ... .. . ... ... ... : ... .. . ... ... ... : ... .. . ... : ... .. . ... : ... .. . ... ... : ... .. . ... ... : ... .. . ... ... : ... .. . ... ...
ROW E9 : ... .. . ... ... ... : ... .. . ... ... ... : ... .. . ... : ... .. . ... : ... .. . ... ... : ... .. . ... ... : ... .. . ... ... : ... .. . ... ...
ROW EA : ... .. . ... ... ... : ... .. 4 ... ... ... : ... .. . ... : ... .. . ... : ... .. . ... ... : ... .. . ... ... : ... .. . ... ... : ... .. . ... ...
ROW EB : ... .. . ... ... ... : ... .. 3 ... ... ... : --- .. . ... : ... .. . ... : ... .. . ... ... : ... .. . ... ... : ... .. . ... ... : ... .. . ... ...
ROW EC : ... .. . ... ... ... : ... .. . ... ... ... : ... .. . ... : ... .. . ... : ... .. . ... ... : ... .. . ... ... : ... .. . ... ... : ... .. . ... ...
ROW ED : ... .. . ... ... ... : ... .. . ... ... ... : ... .. . ... : ... .. . ... : ... .. . ... ... : ... .. . ... ... : ... .. . ... ... : ... .. . ... ...
ROW EE : ... .. . ... ... ... : ... .. 2 ... ... ... : ... .. . ... : ... .. . ... : ... .. . ... ... : ... .. . ... ... : ... .. . ... ... : ... .. . ... ...
ROW EF : ... .. . ... ... ... : ... .. . ... ... ... : ... .. . ... : ... .. . ... : ... .. . ... ... : ... .. . ... ... : ... .. . ... ... : ... .. . ... ...
ROW F0 : C-4 00 F ... ... ... : C-4 00 6 ... ... ... : G-3 00 . ... : D-# 00 F ... : ... .. . ... ... : ... .. 6 ... ... : ... .. 6 ... ... : ... .. . ... ...
ROW F1 : ... .. E ... ... ... : ... .. 5 ... ... ... : ... .. . ... : ... .. C ... : ... .. . ... ... : ... .. 5 ... ... : ... .. 5 ... ... : ... .. . ... ...
ROW F2 : ... .. D ... ... ... : ... .. . ... ... ... : ... .. . ... : ... .. 6 ... : ... .. . ... ... : ... .. . ... ... : ... .. . ... ... : ... .. . ... ...
ROW F3 : ... .. A ... ... ... : ... .. . ... ... ... : ... .. . ... : ... .. 3 ... : ... .. . ... ... : ... .. 4 ... ... : ... .. 4 ... ... : ... .. . ... ...
ROW F4 : ... .. . ... ... ... : ... .. 4 ... ... ... : ... .. . ... : ... .. 2 ... : ... .. . ... ... : ... .. . ... ... : ... .. . ... ... : ... .. . ... ...
ROW F5 : ... .. . ... ... ... : ... .. 3 ... ... ... : ... .. . ... : ... .. 0 ... : ... .. . ... ... : ... .. . ... ... : ... .. . ... ... : ... .. . ... ...
ROW F6 : ... .. 2 ... ... ... : ... .. . ... ... ... : ... .. . ... : ... .. . ... : ... .. . ... ... : ... .. . ... ... : ... .. . ... ... : ... .. . ... ...
ROW F7 : ... .. . ... ... ... : ... .. . ... ... ... : ... .. . ... : ... .. . ... : ... .. . ... ... : ... .. 3 ... ... : ... .. 3 ... ... : ... .. . ... ...
ROW F8 : ... .. . ... ... ... : ... .. 2 ... ... ... : ... .. . ... : ... .. . ... : ... .. . ... ... : ... .. 2 ... ... : ... .. 2 ... ... : ... .. . ... ...
ROW F9 : ... .. 1 ... ... ... : ... .. . ... ... ... : ... .. . ... : ... .. . ... : ... .. . ... ... : ... .. . ... ... : ... .. . ... ... : ... .. . ... ...
ROW FA : ... .. . ... ... ... : G-3 00 6 ... ... ... : ... .. . ... : ... .. . ... : ... .. . ... ... : ... .. 1 ... ... : ... .. 1 ... ... : ... .. 5 ... ...
ROW FB : ... .. . ... ... ... : ... .. 5 ... ... ... : ... .. . ... : ... .. . ... : ... .. . ... ... : ... .. . ... ... : ... .. . ... ... : ... .. . ... ...
ROW FC : ... .. 0 ... V00 ... : ... .. . ... ... ... : ... .. . ... : ... .. . ... : ... .. . ... ... : ... .. . ... ... : ... .. . ... ... : ... .. . ... ...
ROW FD : ... .. . ... ... ... : ... .. . ... ... ... : ... .. . ... : ... .. . ... : ... .. . ... ... : ... .. . ... ... : ... .. . ... ... : ... .. . ... ...
ROW FE : ... .. . ... ... ... : ... .. 4 ... ... ... : ... .. . ... : ... .. . ... : ... .. . ... ... : ... .. . ... ... : ... .. . ... ... : ... .. . ... ...
ROW FF : ... .. . ... ... ... : ... .. 3 ... ... ... : --- .. . ... : ... .. . ... : ... .. . ... ... : ... .. . ... ... : ... .. . ... ... : ... .. . ... ...

PATTERN 01
ROW 00 : ... .. . ... ... ... : ... .. . ... ... ... : ... .. . ... : ... .. . ... : ... .. . ... ... : ... .. . ... ... : ... .. . ... ... : ... .. . ... ...
ROW 01 : ... .. . ... ... ... : ... .. . ... ... ... : ... .. . ... : ... .. . ... : ... .. . ... ... : ... .. . ... ... : ... .. . ... ... : ... .. . ... ...
ROW 02 : ... .. . ... ... ... : ... .. 2 ... ... ... : ... .. . ... : ... .. . ... : ... .. . ... ... : ... .. . ... ... : ... .. . ... ... : ... .. . ... ...
ROW 03 : ... .. . ... ... ... : ... .. . ... ... ... : ... .. . ... : ... .. . ... : ... .. . ... ... : ... .. . ... ... : ... .. . ... ... : ... .. . ... ...
ROW 04 : C-4 00 F P80 V02 ... : D-4 00 6 ... ... ... : C-3 00 . ... : ... .. D ... : ... .. . ... ... : D-3 01 6 ... ... : ... .. 6 ... ... : ... .. A ... ...
ROW 05 : ... .. E ... ... ... : ... .. 5 ... ... ... : ... .. . ... : ... .. B ... : ... .. . ... ... : ... .. 5 ... ... : ... .. 5 ... ... : ... .. 8 ... ...
ROW 06 : ... .. D ... ... ... : ... .. . ... ... ... : ... .. . ... : ... .. . ... : ... .. . ... ... : ... .. . ... ... : ... .. . ... ... : ... .. 5 ... ...
ROW 07 : ... .. A ... ... ... : ... .. . ... ... ... : ... .. . ... : ... .. A ... : ... .. . ... ... : ... .. 4 ... ... : ... .. 4 ... ... : ... .. . ... ...
ROW 08 : ... .. . ... ... ... : ... .. 4 ... ... ... : ... .. . ... : ... .. 8 ... : ... .. . ... ... : ... .. . ... ... : ... .. . ... ... : ... .. . ... ...
ROW 09 : ... .. . ... ... ... : ... .. 3 ... ... ... : ... .. . ... : ... .. 7 ... : ... .. . ... ... : ... .. . ... ... : ... .. . ... ... : ... .. . ... ...
ROW 0A : ... .. . ... ... ... : ... .. . ... ... ... : ... .. . ... : ... .. 6 ... : ... .. . ... ... : ... .. . ... ... : ... .. . ... ... : ... .. . ... ...
ROW 0B : ... .. . ... ... ... : ... .. . ... ... ... : ... .. . ... : ... .. . ... : ... .. . ... ... : ... .. 3 ... ... : ... .. 3 ... ... : ... .. . ... ...
ROW 0C : ... .. . ... ... ... : ... .. 2 ... ... ... : ... .. . ... : ... .. 5 ... : ... .. . ... ... : ... .. 2 ... ... : ... .. 2 ... ... : ... .. . ... ...
ROW 0D : ... .. . ... ... ... : ... .. . ... ... ... : ... .. . ... : ... .. . ... : ... .. . ... ... : ... .. . ... ... : ... .. . ... ... : ... .. . ... ...
ROW 0E : ... .. . P84 ... ... : F-3 00 6 ... ... ... : ... .. . ... : ... .. 4 ... : ... .. . ... ... : ... .. 1 ... ... : ... .. 1 ... ... : ... .. . ... ...
ROW 0F : ... .. . P86 ... ... : ... .. 5 ... ... ... : ... .. . ... : ... .. . ... : ... .. . ... ... : ... .. . ... ... : ... .. . ... ... : ... .. . ... ...
ROW 10 : ... .. . P85 ... ... : ... .. . ... ... ... : ... .. . ... : ... .. 3 ... : ... .. . ... ... : ... .. . ... ... : ... .. . ... ... : ... .. . ... ...
ROW 11 : ... .. . P82 ... ... : ... .. . ... ... ... : ... .. . ... : ... .. 2 ... : ... .. . ... ... : ... .. . ... ... : ... .. . ... ... : ... .. . ... ...
ROW 12 : ... .. . P7E ... ... : ... .. 4 ... ... ... : ... .. . ... : ... .. . ... : ... .. . ... ... : ... .. . ... ... : ... .. . ... ... : ... .. . ... ...
ROW 13 : ... .. . P7B ... ... : ... .. 3 ... ... ... : --- .. . ... : ... .. 1 ... : ... .. . ... ... : ... .. . ... ... : ... .. . ... ... : ... .. . ... ...
ROW 14 : B-3 00 A P86 ... ... : ... .. . ... ... ... : ... .. . ... : ... .. 0 ... : ... .. . ... ... : ... .. . ... ... : ... .. . ... ... : ... .. . ... ...
ROW 15 : C-4 00 A P7C ... ... : ... .. . ... ... ... : ... .. . ... : ... .. . ... : ... .. . ... ... : ... .. . ... ... : ... .. . ... ... : ... .. . ... ...
ROW 16 : ... .. . P80 ... ... : ... .. 2 ... ... ... : ... .. . ... : ... .. . ... : ... .. . ... ... : ... .. . ... ... : ... .. . ... ... : ... .. . ... ...
ROW 17 : ... .. . P83 ... ... : ... .. . ... ... ... : ... .. . ... : ... .. . ... : ... .. . ... ... : ... .. . ... ... : ... .. . ... ... : ... .. . ... ...
ROW 18 : B-3 00 F P80 ... ... : B-3 00 6 ... ... ... : D-4 00 . ... : 9-# 00 A ... : ... .. . ... ... : ... .. 6 ... ... : ... .. 6 ... ... : ... .. . ... ...
ROW 19 : ... .. E ... ... ... : ... .. 5 ... ... ... : ... .. . ... : ... .. 8 ... : ... .. . ... ... : ... .. 5 ... ... : ... .. 5 ... ... : ... .. . ... ...
ROW 1A : ... .. D ... ... ... : ... .. . ... ... ... : ... .. . ... : ... .. 4 ... : ... .. . ... ... : ... .. . ... ... : ... .. . ... ... : ... .. . ... ...
ROW 1B : ... .. A ... ... ... : ... .. . ... ... ... : ... .. . ... : ... .. 2 ... : ... .. . ... ... : ... .. 4 ... ... : ... .. 4 ... ... : ... .. . ... ...
ROW 1C : ... .. . ... ... ... : ... .. 4 ... ... ... : ... .. . ... : ... .. 1 ... : ... .. . ... ... : ... .. . ... ... : ... .. . ... ... : ... .. . ... ...
ROW 1D : ... .. . ... ... ... : ... .. 3 ... ... ... : ... .. . ... : ... .. 0 ... : ... .. . ... ... : ... .. . ... ... : ... .. . ... ... : ... .. . ... ...
ROW 1E : ... .. 2 ... ... ... : ... .. . ... ... ... : ... .. . ... : ... .. . ... : ... .. . ... ... : ... .. . ... ... : ... .. . ... ... : ... .. . ... ...
ROW 1F : ... .. . ... ... ... : ... .. . ... ... ... : ... .. . ... : ... .. . ... : ... .. . ... ... : ... .. 3 ... ... : ... .. 3 ... ... : ... .. . ... ...
ROW 20 : ... .. . ... ... ... : ... .. 2 ... ... ... : ... .. . ... : ... .. . ... : ... .. . ... ... : ... .. 2 ... ... : ... .. 2 ... ... : ... .. . ... ...
ROW 21 : ... .. 1 ... ... ... : ... .. . ... ... ... : ... .. . ... : ... .. . ... : ... .. . ... ... : ... .. . ... ... : ... .. . ... ... : ... .. . ... ...
ROW 22 : A-3 00 F ... ... ... : F-3 00 6 ... ... ... : ... .. . ... : ... .. 8 ... : ... .. . ... ... : ... .. 1 ... ... : ... .. 1 ... ... : ... .. . ... ...
ROW 23 : ... .. E ... ... ... : ... .. 5 ... ... ... : ... .. . ... : ... .. 6 ... : ... .. . ... ... : ... .. . ... ... : ... .. . ... ... : ... .. . ... ...
ROW 24 : ... .. D ... ... ... : ... .. . ... ... ... : ... .. . ... : ... .. 3 ... : ... .. . ... ... : ... .. . ... ... : ... .. . ... ... : ... .. . ... ...
ROW 25 : ... .. A ... ... ... : ... .. . ... ... ... : ... .. . ... : ... .. 1 ... : ... .. . ... ... : ... .. . ... ... : ... .. . ... ... : ... .. . ... ...
ROW 26 : ... .. . ... ... ... : ... .. 4 ... ... ... : ... .. . ... : ... .. . ... : ... .. . ... ... : ... .. . ... ... : ... .. . ... ... : ... .. . ... ...
ROW 27 : ... .. . ... ... ... : ... .. 3 ... ... ... : --- .. . ... : ... .. 0 ... : ... .. . ... ... : ... .. . ... ... : ... .. . ... ... : ... .. . ... ...
ROW 28 : ... .. 2 ... ... ... : ... .. . ... ... ... : ... .. . ... : ... .. . ... : ... .. . ... ... : ... .. . ... ... : ... .. . ... ... : ... .. . ... ...
ROW 29 : ... .. . ... ... ... : ... .. . ... ... ... : ... .. . ... : ... .. . ... : ... .. . ... ... : ... .. . ... ... : ... .. . ... ... : ... .. . ... ...
ROW 2A : ... .. . ... ... ... : ... .. 2 ... ... ... : ... .. . ... : ... .. . ... : ... .. . ... ... : ... .. . ... ... : ... .. . ... ... : ... .. . ... ...
ROW 2B : ... .. 1 ... ... ... : ... .. . ... ... ... : ... .. . ... : ... .. . ... : ... .. . ... ... : ... .. . ... ... : ... .. . ... ... : ... .. . ... ...
ROW 2C : B-3 00 F ... ... ... : D-4 00 6 ... ... ... : D-4 00 . ... : ... .. F ... : ... .. . ... ... : B-2 01 6 ... ... : ... .. 6 ... ... : B-2 01 B ... ...
ROW 2D : ... .. E ... ... ... : ... .. 5 ... ... ... : ... .. . ... : ... .. C ... : ... .. . ... ... : ... .. 5 ... ... : ... .. 5 ... ... : ... .. 9 ... ...
ROW 2E : ... .. D ... ... ... : ... .. . ... ... ... : ... .. . ... : ... .. 6 ... : ... .. . ... ... : ... .. . ... ... : ... .. . ... ... : ... .. 5 ... ...
ROW 2F : ... .. A ... ... ... : ... .. . ... ... ... : ... .. . ... : ... .. 3 ... : ... .. . ... ... : ... .. 4 ... ... : ... .. 4 ... ... : ... .. . ... ...
ROW 30 : ... .. . ... ... ... : ... .. 4 ... ... ... : ... .. . ... : ... .. 2 ... : ... .. . ... ... : ... .. . ... ... : ... .. . ... ... : ... .. . ... ...
ROW 31 : ... .. . ... ... ... : ... .. 3 ... ... ... : ... .. . ... : ... .. 0 ... : ... .. . ... ... : ... .. . ... ... : ... .. . ... ... : ... .. . ... ...
ROW 32 : ... .. . ... ... ... : ... .. . ... ... ... : ... .. . ... : ... .. . ... : ... .. . ... ... : ... .. . ... ... : ... .. . ... ... : ... .. . ... ...
ROW 33 : ... .. . ... ... ... : ... .. . ... ... ... : ... .. . ... : ... .. . ... : ... .. . ... ... : ... .. 3 ... ... : ... .. 3 ... ... : ... .. . ... ...
ROW 34 : ... .. . ... ... ... : ... .. 2 ... ... ... : ... .. . ... : ... .. . ... : ... .. . ... ... : ... .. 2 ... ... : ... .. 2 ... ... : ... .. . ... ...
ROW 35 : ... .. . ... ... ... : ... .. . ... ... ... : ... .. . ... : ... .. . ... : ... .. . ... ... : ... .. . ... ... : ... .. . ... ... : ... .. . ... ...
ROW 36 : ... .. . ... ... ... : G-3 00 6 ... ... ... : ... .. . ... : ... .. . ... : ... .. . ... ... : ... .. 1 ... ... : ... .. 1 ... ... : ... .. . ... ...
ROW 37 : ... .. . ... ... ... : ... .. 5 ... ... ... : ... .. . ... : ... .. . ... : ... .. . ... ... : ... .. . ... ... : ... .. . ... ... : ... .. . ... ...
ROW 38 : ... .. . ... ... ... : ... .. . ... ... ... : ... .. . ... : ... .. . ... : ... .. . ... ... : ... .. . ... ... : ... .. . ... ... : ... .. . ... ...
ROW 39 : ... .. . ... ... ... : ... .. . ... ... ... : ... .. . ... : ... .. . ... : ... .. . ... ... : ... .. . ... ... : ... .. . ... ... : ... .. . ... ...
ROW 3A : ... .. . ... ... ... : ... .. 4 ... ... ... : ... .. . ... : ... .. . ... : ... .. . ... ... : ... .. . ... ... : ... .. . ... ... : ... .. . ... ...
ROW 3B : ... .. . ... ... ... : ... .. 3 ... ... ... : --- .. . ... : ... .. . ... : ... .. . ... ... : ... .. . ... ... : ... .. . ... ... : ... .. . ... ...
ROW 3C : ... .. . ... ... ... : ... .. . ... ... ... : ... .. . ... : ... .. . ... : ... .. . ... ... : ... .. . ... ... : ... .. . ... ... : ... .. . ... ...
ROW 3D : ... .. . ... ... ... : ... .. . ... ... ... : ... .. . ... : ... .. . ... : ... .. . ... ... : ... .. . ... ... : ... .. . ... ... : ... .. . ... ...
ROW 3E : ... .. . ... ... ... : ... .. 2 ... ... ... : ... .. . ... : ... .. . ... : ... .. . ... ... : ... .. . ... ... : ... .. . ... ... : ... .. . ... ...
ROW 3F : ... .. . ... ... ... : ... .. . ... ... ... : ... .. . ... : ... .. . ... : ... .. . ... ... : ... .. . ... ... : ... .. . ... ... : ... .. . ... ...
ROW 40 : ... .. . P85 ... ... : B-3 00 6 ... ... ... : G-3 00 . ... : ... .. . ... : ... .. . ... ... : ... .. 6 ... ... : ... .. 6 ... ... : ... .. . ... ...
ROW 41 : ... .. . P86 ... ... : ... .. 5 ... ... ... : ... .. . ... : ... .. . ... : ... .. . ... ... : ... .. 5 ... ... : ... .. 5 ... ... : ... .. . ... ...
ROW 42 : ... .. . P82 ... ... : ... .. . ... ... ... : ... .. . ... : ... .. . ... : ... .. . ... ... : ... .. . ... ... : ... .. . ... ... : ... .. . ... ...
ROW 43 : ... .. . P7E ... ... : ... .. . ... ... ... : ... .. . ... : ... .. . ... : ... .. . ... ... : ... .. 4 ... ... : ... .. 4 ... ... : ... .. . ... ...
ROW 44 : ... .. . P7A ... ... : ... .. 4 ... ... ... : ... .. . ... : ... .. . ... : ... .. . ... ... : ... .. . ... ... : ... .. . ... ... : ... .. . ... ...
ROW 45 : ... .. . P7B ... ... : ... .. 3 ... ... ... : ... .. . ... : ... .. . ... : ... .. . ... ... : ... .. . ... ... : ... .. . ... ... : ... .. . ... ...
ROW 46 : ... .. . P80 ... ... : ... .. . ... ... ... : ... .. . ... : ... .. . ... : ... .. . ... ... : ... .. . ... ... : ... .. . ... ... : ... .. . ... ...
ROW 47 : ... .. . P84 ... ... : ... .. . ... ... ... : ... .. . ... : ... .. . ... : ... .. . ... ... : ... .. 3 ... ... : ... .. 3 ... ... : ... .. . ... ...
ROW 48 : ... .. . P86 ... ... : ... .. 2 ... ... ... : ... .. . ... : ... .. . ... : ... .. . ... ... : ... .. 2 ... ... : ... .. 2 ... ... : ... .. . ... ...
ROW 49 : ... .. . P83 ... ... : ... .. . ... ... ... : ... .. . ... : ... .. . ... : ... .. . ... ... : ... .. . ... ... : ... .. . ... ... : ... .. . ... ...
ROW 4A : ... .. . P7E ... ... : D-4 00 6 ... ... ... : ... .. . ... : ... .. . ... : ... .. . ... ... : ... .. 1 ... ... : ... .. 1 ... ... : ... .. . ... ...
ROW 4B : ... .. 2 P7A ... ... : ... .. 5 ... ... ... : ... .. . ... : ... .. . ... : ... .. . ... ... : ... .. . ... ... : ... .. . ... ... : ... .. . ... ...
ROW 4C : ... .. . P7B ... ... : ... .. . ... ... ... : ... .. . ... : ... .. . ... : ... .. . ... ... : ... .. . ... ... : ... .. . ... ... : ... .. . ... ...
ROW 4D : ... .. . P80 ... ... : ... .. . ... ... ... : ... .. . ... : ... .. . ... : ... .. . ... ... : ... .. . ... ... : ... .. . ... ... : ... .. . ... ...
ROW 4E : ... .. 1 P84 ... ... : ... .. 4 ... ... ... : ... .. . ... : ... .. . ... : ... .. . ... ... : ... .. . ... ... : ... .. . ... ... : ... .. . ... ...
ROW 4F : ... .. . P86 ... ... : ... .. 3 ... ... ... : --- .. . ... : ... .. . ... : ... .. . ... ... : ... .. . ... ... : ... .. . ... ... : ... .. . ... ...
ROW 50 : ... .. . P83 ... ... : ... .. . ... ... ... : ... .. . ... : ... .. . ... : ... .. . ... ... : ... .. . ... ... : ... .. . ... ... : ... .. . ... ...
ROW 51 : ... .. 0 ... V00 ... : ... .. . ... ... ... : ... .. . ... : ... .. . ... : ... .. . ... ... : ... .. . ... ... : ... .. . ... ... : ... .. . ... ...
ROW 52 : ... .. . ... ... ... : ... .. 2 ... ... ... : ... .. . ... : ... .. . ... : ... .. . ... ... : ... .. . ... ... : ... .. . ... ... : ... .. . ... ...
ROW 53 : ... .. . ... ... ... : ... .. . ... ... ... : ... .. . ... : ... .. . ... : ... .. . ... ... : ... .. . ... ... : ... .. . ... ... : ... .. . ... ...
ROW 54 : ... .. . ... ... ... : D#4 00 6 ... ... ... : C-3 00 . ... : D-# 00 D V01 : ... .. . ... ... : D#3 01 6 ... ... : ... .. 6 ... ... : C-3 01 C ... ...
ROW 55 : ... .. . ... ... ... : ... .. 5 ... ... ... : ... .. . ... : ... .. B ... : ... .. . ... ... : ... .. 5 ... ... : ... .. 5 ... ... : ... .. A ... ...
ROW 56 : ... .. . ... ... ... : ... .. . ... ... ... : ... .. . ... : ... .. . ... : ... .. . ... ... : ... .. . ... ... : ... .. . ... ... : ... .. 6 ... ...
ROW 57 : ... .. . ... ... ... : ... .. . ... ... ... : ... .. . ... : ... .. A ... : ... .. . ... ... : ... .. 4 ... ... : ... .. 4 ... ... : ... .. . ... ...
ROW 58 : ... .. . ... ... ... : ... .. 4 ... ... ... : ... .. . ... : ... .. 8 ... : ... .. . ... ... : ... .. . ... ... : ... .. . ... ... : ... .. . ... ...
ROW 59 : ... .. . ... ... ... : ... .. 3 ... ... ... : ... .. . ... : ... .. 7 ... : ... .. . ... ... : ... .. . ... ... : ... .. . ... ... : ... .. 5 ... ...
ROW 5A : ... .. . ... ... ... : ... .. . ... ... ... : ... .. . ... : ... .. 6 ... : ... .. . ... ... : ... .. . ... ... : ... .. . ... ... : ... .. . ... ...
ROW 5B : ... .. . ... ... ... : ... .. . ... ... ... : ... .. . ... : ... .. . ... : ... .. . ... ... : ... .. 3 ... ... : ... .. 3 ... ... : ... .. . ... ...
ROW 5C : ... .. . ... ... ... : ... .. 2 ... ... ... : ... .. . ... : ... .. 5 ... : ... .. . ... ... : ... .. 2 ... ... : ... .. 2 ... ... : ... .. . ... ...
ROW 5D : ... .. . ... ... ... : ... .. . ... ... ... : ... .. . ... : ... .. . ... : ... .. . ... ... : ... .. . ... ... : ... .. . ... ... : ... .. . ... ...
ROW 5E : ... .. . ... ... ... : G-3 00 6 ... ... ... : ... .. . ... : ... .. 4 ... : ... .. . ... ... : ... .. 1 ... ... : ... .. 1 ... ... : ... .. . ... ...
ROW 5F : ... .. . ... ... ... : ... .. 5 ... ... ... : ... .. . ... : ... .. . ... : ... .. . ... ... : ... .. . ... ... : ... .. . ... ... : ... .. . ... ...
ROW 60 : ... .. . ... ... ... : ... .. . ... ... ... : ... .. . ... : ... .. 3 ... : ... .. . ... ... : ... .. . ... ... : ... .. . ... ... : ... .. . ... ...
ROW 61 : ... .. . ... ... ... : ... .. . ... ... ... : ... .. . ... : ... .. 2 ... : ... .. . ... ... : ... .. . ... ... : ... .. . ... ... : ... .. . ... ...
ROW 62 : ... .. . ... ... ... : ... .. 4 ... ... ... : ... .. . ... : ... .. . ... : ... .. . ... ... : ... .. . ... ... : ... .. . ... ... : ... .. . ... ...
ROW 63 : ... .. . ... ... ... : ... .. 3 ... ... ... : --- .. . ... : ... .. 1 ... : ... .. . ... ... : ... .. . ... ... : ... .. . ... ... : ... .. . ... ...
ROW 64 : ... .. . ... ... ... : ... .. . ... ... ... : ... .. . ... : ... .. 0 ... : ... .. . ... ... : ... .. . ... ... : ... .. . ... ... : ... .. . ... ...
ROW 65 : ... .. . ... ... ... : ... .. . ... ... ... : ... .. . ... : ... .. . ... : ... .. . ... ... : ... .. . ... ... : ... .. . ... ... : ... .. . ... ...
ROW 66 : ... .. . ... ... ... : ... .. 2 ... ... ... : ... .. . ... : ... .. . ... : ... .. . ... ... : ... .. . ... ... : ... .. . ... ... : ... .. . ... ...
ROW 67 : ... .. . ... ... ... : ... .. . ... ... ... : ... .. . ... : ... .. . ... : ... .. . ... ... : ... .. . ... ... : ... .. . ... ... : ... .. . ... ...
ROW 68 : G-3 00 F P80 V02 ... : C-4 00 6 ... ... ... : D#4 00 . ... : 9-# 00 A V00 : ... .. . ... ... : ... .. 6 ... ... : ... .. 6 ... ... : ... .. . ... ...
ROW 69 : ... .. E ... ... ... : ... .. 5 ... ... ... : ... .. . ... : ... .. 8 ... : ... .. . ... ... : ... .. 5 ... ... : ... .. 5 ... ... : ... .. . ... ...
ROW 6A : ... .. D ... ... ... : ... .. . ... ... ... : ... .. . ... : ... .. 4 ... : ... .. . ... ... : ... .. . ... ... : ... .. . ... ... : ... .. . ... ...
ROW 6B : ... .. A ... ... ... : ... .. . ... ... ... : ... .. . ... : ... .. 2 ... : ... .. . ... ... : ... .. 4 ... ... : ... .. 4 ... ... : ... .. . ... ...
ROW 6C : ... .. . ... ... ... : ... .. 4 ... ... ... : ... .. . ... : ... .. 1 ... : ... .. . ... ... : ... .. . ... ... : ... .. . ... ... : ... .. . ... ...
ROW 6D : ... .. . ... ... ... : ... .. 3 ... ... ... : ... .. . ... : ... .. 0 ... : ... .. . ... ... : ... .. . ... ... : ... .. . ... ... : ... .. . ... ...
ROW 6E : ... .. 2 ... ... ... : ... .. . ... ... ... : ... .. . ... : ... .. . ... : ... .. . ... ... : ... .. . ... ... : ... .. . ... ... : ... .. . ... ...
ROW 6F : ... .. . ... ... ... : ... .. . ... ... ... : ... .. . ... : ... .. . ... : ... .. . ... ... : ... .. 3 ... ... : ... .. 3 ... ... : ... .. . ... ...
ROW 70 : ... .. . ... ... ... : ... .. 2 ... ... ... : ... .. . ... : ... .. . ... : ... .. . ... ... : ... .. 2 ... ... : ... .. 2 ... ... : ... .. . ... ...
ROW 71 : ... .. 1 ... ... ... : ... .. . ... ... ... : ... .. . ... : ... .. . ... : ... .. . ... ... : ... .. . ... ... : ... .. . ... ... : ... .. . ... ...
ROW 72 : ... .. . ... ... ... : G-3 00 6 ... ... ... : ... .. . ... : ... .. 8 ... : ... .. . ... ... : ... .. 1 ... ... : ... .. 1 ... ... : ... .. . ... ...
ROW 73 : ... .. . ... ... ... : ... .. 5 ... ... ... : ... .. . ... : ... .. 6 ... : ... .. . ... ... : ... .. . ... ... : ... .. . ... ... : ... .. . ... ...
ROW 74 : ... .. 0 ... V00 ... : ... .. . ... ... ... : ... .. . ... : ... .. 3 ... : ... .. . ... ... : ... .. . ... ... : ... .. . ... ... : ... .. . ... ...
ROW 75 : ... .. . ... ... ... : ... .. . ... ... ... : ... .. . ... : ... .. 1 ... : ... .. . ... ... : ... .. . ... ... : ... .. . ... ... : ... .. . ... ...
ROW 76 : ... .. . ... ... ... : ... .. 4 ... ... ... : ... .. . ... : ... .. . ... : ... .. . ... ... : ... .. . ... ... : ... .. . ... ... : ... .. . ... ...
ROW 77 : ... .. . ... ... ... : ... .. 3 ... ... ... : --- .. . ... : ... .. 0 ... : ... .. . ... ... : ... .. . ... ... : ... .. . ... ... : ... .. . ... ...
ROW 78 : ... .. . ... ... ... : ... .. . ... ... ... : ... .. . ... : ... .. . ... : ... .. . ... ... : ... .. . ... ... : ... .. . ... ... : ... .. . ... ...
ROW 79 : ... .. . ... ... ... : ... .. . ... ... ... : ... .. . ... : ... .. . ... : ... .. . ... ... : ... .. . ... ... : ... .. . ... ... : ... .. . ... ...
ROW 7A : ... .. . ... ... ... : ... .. 2 ... ... ... : ... .. . ... : ... .. . ... : ... .. . ... ... : ... .. . ... ... : ... .. . ... ... : ... .. . ... ...
ROW 7B : ... .. . ... ... ... : ... .. . ... ... ... : ... .. . ... : ... .. . ... : ... .. . ... ... : ... .. . ... ... : ... .. . ... ... : ... .. . ... ...
ROW 7C : G-3 00 F P80 V02 ... : D#4 00 6 ... ... ... : D#4 00 . ... : ... .. F ... : ... .. . ... ... : D-3 01 6 ... ... : ... .. 6 ... ... : D-3 01 B ... ...
ROW 7D : ... .. E ... ... ... : ... .. 5 ... ... ... : ... .. . ... : ... .. C ... : ... .. . ... ... : ... .. 5 ... ... : ... .. 5 ... ... : ... .. 9 ... ...
ROW 7E : ... .. D ... ... ... : ... .. . ... ... ... : ... .. . ... : ... .. 6 ... : ... .. . ... ... : ... .. . ... ... : ... .. . ... ... : ... .. 5 ... ...
ROW 7F : ... .. A ... ... ... : ... .. . ... ... ... : ... .. . ... : ... .. 3 ... : ... .. . ... ... : ... .. 4 ... ... : ... .. 4 ... ... : ... .. . ... ...
ROW 80 : ... .. . ... ... ... : ... .. 4 ... ... ... : ... .. . ... : ... .. 2 ... : ... .. . ... ... : ... .. . ... ... : ... .. . ... ... : ... .. . ... ...
ROW 81 : ... .. . ... ... ... : ... .. 3 ... ... ... : ... .. . ... : ... .. 0 ... : ... .. . ... ... : ... .. . ... ... : ... .. . ... ... : ... .. . ... ...
ROW 82 : ... .. . ... ... ... : ... .. . ... ... ... : ... .. . ... : ... .. . ... : ... .. . ... ... : ... .. . ... ... : ... .. . ... ... : ... .. . ... ...
ROW 83 : ... .. . ... ... ... : ... .. . ... ... ... : ... .. . ... : ... .. . ... : ... .. . ... ... : ... .. 3 ... ... : ... .. 3 ... ... : ... .. . ... ...
ROW 84 : ... .. . ... ... ... : ... .. 2 ... ... ... : ... .. . ... : ... .. . ... : ... .. . ... ... : ... .. 2 ... ... : ... .. 2 ... ... : ... .. . ... ...
ROW 85 : ... .. . ... ... ... : ... .. . ... ... ... : ... .. . ... : ... .. . ... : ... .. . ... ... : ... .. . ... ... : ... .. . ... ... : ... .. . ... ...
ROW 86 : ... .. . ... ... ... : G-3 00 6 ... ... ... : ... .. . ... : ... .. . ... : ... .. . ... ... : ... .. 1 ... ... : ... .. 1 ... ... : ... .. . ... ...
ROW 87 : ... .. . ... ... ... : ... .. 5 ... ... ... : ... .. . ... : ... .. . ... : ... .. . ... ... : ... .. . ... ... : ... .. . ... ... : ... .. . ... ...
ROW 88 : ... .. . ... ... ... : ... .. . ... ... ... : ... .. . ... : ... .. . ... : ... .. . ... ... : ... .. . ... ... : ... .. . ... ... : ... .. . ... ...
ROW 89 : ... .. . ... ... ... : ... .. . ... ... ... : ... .. . ... : ... .. . ... : ... .. . ... ... : ... .. . ... ... : ... .. . ... ... : ... .. . ... ...
ROW 8A : ... .. . ... ... ... : ... .. 4 ... ... ... : ... .. . ... : ... .. . ... : ... .. . ... ... : ... .. . ... ... : ... .. . ... ... : ... .. . ... ...
ROW 8B : ... .. . ... ... ... : ... .. 3 ... ... ... : --- .. . ... : ... .. . ... : ... .. . ... ... : ... .. . ... ... : ... .. . ... ... : ... .. . ... ...
ROW 8C : ... .. . ... ... ... : ... .. . ... ... ... : ... .. . ... : ... .. . ... : ... .. . ... ... : ... .. . ... ... : ... .. . ... ... : ... .. . ... ...
ROW 8D : ... .. . ... ... ... : ... .. . ... ... ... : ... .. . ... : ... .. . ... : ... .. . ... ... : ... .. . ... ... : ... .. . ... ... : ... .. . ... ...
ROW 8E : ... .. . ... ... ... : ... .. 2 ... ... ... : ... .. . ... : ... .. . ... : ... .. . ... ... : ... .. . ... ... : ... .. . ... ... : ... .. . ... ...
ROW 8F : ... .. . ... ... ... : ... .. . ... ... ... : ... .. . ... : ... .. . ... : ... .. . ... ... : ... .. . ... ... : ... .. . ... ... : ... .. . ... ...
ROW 90 : ... .. . ... ... ... : C-4 00 6 ... ... ... : G-3 00 . ... : D-# 00 8 ... : ... .. . ... ... : ... .. 6 ... ... : ... .. 6 ... ... : ... .. . ... ...
ROW 91 : A-3 00 A ... ... ... : ... .. 5 ... ... ... : ... .. . ... : ... .. 7 ... : ... .. . ... ... : ... .. 5 ... ... : ... .. 5 ... ... : ... .. . ... ...
ROW 92 : B-3 00 A P83 ... ... : ... .. . ... ... ... : ... .. . ... : ... .. . ... : ... .. . ... ... : ... .. . ... ... : ... .. . ... ... : ... .. . ... ...
ROW 93 : D-4 00 A P7E ... ... : ... .. . ... ... ... : ... .. . ... : ... .. 6 ... : ... .. . ... ... : ... .. 4 ... ... : ... .. 4 ... ... : ... .. . ... ...
ROW 94 : F-4 00 A P7F ... ... : ... .. 4 ... ... ... : ... .. . ... : ... .. 5 ... : ... .. . ... ... : ... .. . ... ... : ... .. . ... ... : ... .. . ... ...
ROW 95 : ... .. . P80 ... ... : ... .. 3 ... ... ... : ... .. . ... : ... .. 4 ... : ... .. . ... ... : ... .. . ... ... : ... .. . ... ... : ... .. . ... ...
ROW 96 : ... .. . ... ... ... : ... .. . ... ... ... : ... .. . ... : ... .. . ... : ... .. . ... ... : ... .. . ... ... : ... .. . ... ... : ... .. . ... ...
ROW 97 : ... .. . ... ... ... : ... .. . ... ... ... : ... .. . ... : ... .. . ... : ... .. . ... ... : ... .. 3 ... ... : ... .. 3 ... ... : ... .. . ... ...
ROW 98 : ... .. . ... ... ... : ... .. 2 ... ... ... : ... .. . ... : ... .. 3 ... : ... .. . ... ... : ... .. 2 ... ... : ... .. 2 ... ... : ... .. . ... ...
ROW 99 : ... .. . ... ... ... : ... .. . ... ... ... : ... .. . ... : ... .. . ... : ... .. . ... ... : ... .. . ... ... : ... .. . ... ... : ... .. . ... ...
ROW 9A : ... .. . ... ... ... : G-3 00 6 ... ... ... : ... .. . ... : ... .. 2 ... : ... .. . ... ... : ... .. 1 ... ... : ... .. 1 ... ... : ... .. . ... ...
ROW 9B : ... .. 2 ... ... ... : ... .. 5 ... ... ... : ... .. . ... : ... .. . ... : ... .. . ... ... : ... .. . ... ... : ... .. . ... ... : ... .. . ... ...
ROW 9C : ... .. . ... ... ... : ... .. . ... ... ... : ... .. . ... : ... .. . ... : ... .. . ... ... : ... .. . ... ... : ... .. . ... ... : ... .. . ... ...
ROW 9D : ... .. . ... ... ... : ... .. . ... ... ... : ... .. . ... : ... .. 1 ... : ... .. . ... ... : ... .. . ... ... : ... .. . ... ... : ... .. . ... ...
ROW 9E : ... .. 1 ... ... ... : ... .. 4 ... ... ... : ... .. . ... : ... .. . ... : ... .. . ... ... : ... .. . ... ... : ... .. . ... ... : ... .. . ... ...
ROW 9F : ... .. . ... ... ... : ... .. 3 ... ... ... : --- .. . ... : ... .. . ... : ... .. . ... ... : ... .. . ... ... : ... .. . ... ... : ... .. . ... ...
ROW A0 : ... .. . ... ... ... : ... .. . ... ... ... : ... .. . ... : ... .. 0 ... : ... .. . ... ... : ... .. . ... ... : ... .. . ... ... : ... .. . ... ...
ROW A1 : ... .. 0 ... V00 ... : ... .. . ... ... ... : ... .. . ... : ... .. . ... : ... .. . ... ... : ... .. . ... ... : ... .. . ... ... : ... .. . ... ...
ROW A2 : ... .. . ... ... ... : ... .. 2 ... ... ... : ... .. . ... : ... .. . ... : ... .. . ... ... : ... .. . ... ... : ... .. . ... ... : ... .. . ... ...
ROW A3 : ... .. . ... ... ... : ... .. . ... ... ... : ... .. . ... : ... .. . ... : ... .. . ... ... : ... .. . ... ... : ... .. . ... ... : ... .. . ... ...
ROW A4 : ... .. . ... ... ... : D#4 00 6 ... ... ... : C-3 00 . ... : ... .. D ... : ... .. . ... ... : D#3 01 6 ... ... : ... .. 6 ... ... : F-3 01 A ... ...
ROW A5 : ... .. . ... ... ... : ... .. 5 ... ... ... : ... .. . ... : ... .. B ... : ... .. . ... ... : ... .. 5 ... ... : ... .. 5 ... ... : ... .. 8 ... ...
ROW A6 : G-4 00 F P80 V02 ... : ... .. . ... ... ... : ... .. . ... : ... .. . ... : ... .. . ... ... : ... .. . ... ... : ... .. . ... ... : ... .. 5 ... ...
ROW A7 : ... .. E ... ... ... : ... .. . ... ... ... : ... .. . ... : ... .. A ... : ... .. . ... ... : ... .. 4 ... ... : ... .. 4 ... ... : ... .. . ... ...
ROW A8 : ... .. D ... ... ... : ... .. 4 ... ... ... : ... .. . ... : ... .. 8 ... : ... .. . ... ... : ... .. . ... ... : ... .. . ... ... : ... .. . ... ...
ROW A9 : F-4 00 F ... ... ... : ... .. 3 ... ... ... : ... .. . ... : ... .. 7 ... : ... .. . ... ... : ... .. . ... ... : ... .. . ... ... : ... .. . ... ...
ROW AA : ... .. E ... ... ... : ... .. . ... ... ... : ... .. . ... : ... .. 6 ... : ... .. . ... ... : ... .. . ... ... : ... .. . ... ... : ... .. . ... ...
ROW AB : ... .. D ... ... ... : ... .. . ... ... ... : ... .. . ... : ... .. . ... : ... .. . ... ... : ... .. 3 ... ... : ... .. 3 ... ... : ... .. . ... ...
ROW AC : ... .. A ... ... ... : ... .. 2 ... ... ... : ... .. . ... : ... .. 5 ... : ... .. . ... ... : ... .. 2 ... ... : ... .. 2 ... ... : ... .. . ... ...
ROW AD : ... .. . ... ... ... : ... .. . ... ... ... : ... .. . ... : ... .. . ... : ... .. . ... ... : ... .. . ... ... : ... .. . ... ... : ... .. . ... ...
ROW AE : ... .. . ... ... ... : G-3 00 6 ... ... ... : ... .. . ... : ... .. 4 ... : ... .. . ... ... : ... .. 1 ... ... : ... .. 1 ... ... : ... .. . ... ...
ROW AF : ... .. . ... ... ... : ... .. 5 ... ... ... : ... .. . ... : ... .. . ... : ... .. . ... ... : ... .. . ... ... : ... .. . ... ... : ... .. . ... ...
ROW B0 : ... .. . ... ... ... : ... .. . ... ... ... : ... .. . ... : ... .. 3 ... : ... .. . ... ... : ... .. . ... ... : ... .. . ... ... : ... .. . ... ...
ROW B1 : ... .. . ... ... ... : ... .. . ... ... ... : ... .. . ... : ... .. 2 ... : ... .. . ... ... : ... .. . ... ... : ... .. . ... ... : ... .. . ... ...
ROW B2 : ... .. . ... ... ... : ... .. 4 ... ... ... : ... .. . ... : ... .. . ... : ... .. . ... ... : ... .. . ... ... : ... .. . ... ... : ... .. . ... ...
ROW B3 : ... .. . ... ... ... : ... .. 3 ... ... ... : --- .. . ... : ... .. 1 ... : ... .. . ... ... : ... .. . ... ... : ... .. . ... ... : ... .. 4 ... ...
ROW B4 : ... .. . ... ... ... : ... .. . ... ... ... : ... .. . ... : ... .. 0 ... : ... .. . ... ... : ... .. . ... ... : ... .. . ... ... : ... .. . ... ...
ROW B5 : ... .. . ... ... ... : ... .. . ... ... ... : ... .. . ... : ... .. . ... : ... .. . ... ... : ... .. . ... ... : ... .. . ... ... : ... .. . ... ...
ROW B6 : ... .. . ... ... ... : ... .. 2 ... ... ... : ... .. . ... : ... .. . ... : ... .. . ... ... : ... .. . ... ... : ... .. . ... ... : ... .. . ... ...
ROW B7 : ... .. . ... ... ... : ... .. . ... ... ... : ... .. . ... : ... .. . ... : ... .. . ... ... : ... .. . ... ... : ... .. . ... ... : ... .. . ... ...
ROW B8 : D#4 00 F ... ... ... : D-4 00 6 ... ... ... : D#4 00 . ... : 9-# 00 A ... : ... .. . ... ... : ... .. 6 ... ... : ... .. 6 ... ... : D#3 01 9 ... ...
ROW B9 : ... .. E ... ... ... : ... .. 5 ... ... ... : ... .. . ... : ... .. 8 ... : ... .. . ... ... : ... .. 5 ... ... : ... .. 5 ... ... : ... .. 7 ... ...
ROW BA : ... .. D ... ... ... : ... .. . ... ... ... : ... .. . ... : ... .. 4 ... : ... .. . ... ... : ... .. . ... ... : ... .. . ... ... : ... .. 4 ... ...
ROW BB : ... .. A ... ... ... : ... .. . ... ... ... : ... .. . ... : ... .. 2 ... : ... .. . ... ... : ... .. 4 ... ... : ... .. 4 ... ... : ... .. . ... ...
ROW BC : ... .. . ... ... ... : ... .. 4 ... ... ... : ... .. . ... : ... .. 1 ... : ... .. . ... ... : ... .. . ... ... : ... .. . ... ... : ... .. . ... ...
ROW BD : ... .. . ... ... ... : ... .. 3 ... ... ... : ... .. . ... : ... .. 0 ... : ... .. . ... ... : ... .. . ... ... : ... .. . ... ... : ... .. . ... ...
ROW BE : ... .. 2 ... ... ... : ... .. . ... ... ... : ... .. . ... : ... .. . ... : ... .. . ... ... : ... .. . ... ... : ... .. . ... ... : ... .. . ... ...
ROW BF : ... .. . ... ... ... : ... .. . ... ... ... : ... .. . ... : ... .. 8 ... : ... .. . ... ... : ... .. 3 ... ... : ... .. 3 ... ... : ... .. . ... ...
ROW C0 : ... .. . ... ... ... : ... .. 2 ... ... ... : ... .. . ... : ... .. 6 ... : ... .. . ... ... : ... .. 2 ... ... : ... .. 2 ... ... : ... .. . ... ...
ROW C1 : ... .. 1 ... ... ... : ... .. . ... ... ... : ... .. . ... : ... .. 3 ... : ... .. . ... ... : ... .. . ... ... : ... .. . ... ... : ... .. . ... ...
ROW C2 : D-4 00 F ... ... ... : G-3 00 6 ... ... ... : ... .. . ... : ... .. 1 ... : ... .. . ... ... : ... .. 1 ... ... : ... .. 1 ... ... : ... .. . ... ...
ROW C3 : ... .. E ... ... ... : ... .. 5 ... ... ... : ... .. . ... : ... .. . ... : ... .. . ... ... : ... .. . ... ... : ... .. . ... ... : ... .. . ... ...
ROW C4 : ... .. D ... ... ... : ... .. . ... ... ... : ... .. . ... : ... .. 0 ... : ... .. . ... ... : ... .. . ... ... : ... .. . ... ... : ... .. . ... ...
ROW C5 : ... .. A ... ... ... : ... .. . ... ... ... : ... .. . ... : ... .. C ... : ... .. . ... ... : ... .. . ... ... : ... .. . ... ... : ... .. . ... ...
ROW C6 : ... .. . ... ... ... : ... .. 4 ... ... ... : ... .. . ... : ... .. 9 ... : ... .. . ... ... : ... .. . ... ... : ... .. . ... ... : ... .. . ... ...
ROW C7 : ... .. . ... ... ... : ... .. 3 ... ... ... : --- .. . ... : ... .. 4 ... : ... .. . ... ... : ... .. . ... ... : ... .. . ... ... : ... .. . ... ...
ROW C8 : ... .. 2 ... ... ... : ... .. . ... ... ... : ... .. . ... : ... .. 2 ... : ... .. . ... ... : ... .. . ... ... : ... .. . ... ... : ... .. . ... ...
ROW C9 : ... .. . ... ... ... : ... .. . ... ... ... : ... .. . ... : ... .. 1 ... : ... .. . ... ... : ... .. . ... ... : ... .. . ... ... : ... .. . ... ...
ROW CA : ... .. . ... ... ... : ... .. 2 ... ... ... : ... .. . ... : ... .. 0 ... : ... .. . ... ... : ... .. . ... ... : ... .. . ... ... : ... .. . ... ...
ROW CB : ... .. 1 ... ... ... : ... .. . ... ... ... : ... .. . ... : ... .. . ... : ... .. . ... ... : ... .. . ... ... : ... .. . ... ... : ... .. . ... ...
ROW CC : D#4 00 F ... ... ... : F-4 00 6 ... ... ... : D#4 00 . ... : ... .. F ... : ... .. . ... ... : C-3 01 6 ... ... : ... .. 6 ... ... : D-3 01 9 ... ...
ROW CD : ... .. E ... ... ... : ... .. 5 ... ... ... : ... .. . ... : ... .. C ... : ... .. . ... ... : ... .. 5 ... ... : ... .. 5 ... ... : ... .. 7 ... ...
ROW CE : ... .. D ... ... ... : ... .. . ... ... ... : ... .. . ... : ... .. 6 ... : ... .. . ... ... : ... .. . ... ... : ... .. . ... ... : ... .. 4 ... ...
ROW CF : ... .. A ... ... ... : ... .. . ... ... ... : ... .. . ... : ... .. 3 ... : ... .. . ... ... : ... .. 4 ... ... : ... .. 4 ... ... : ... .. . ... ...
ROW D0 : ... .. . ... ... ... : ... .. 4 ... ... ... : ... .. . ... : ... .. 2 ... : ... .. . ... ... : ... .. . ... ... : ... .. . ... ... : ... .. . ... ...
ROW D1 : ... .. . ... ... ... : ... .. 3 ... ... ... : ... .. . ... : ... .. 0 ... : ... .. . ... ... : ... .. . ... ... : ... .. . ... ... : ... .. . ... ...
ROW D2 : ... .. . ... ... ... : ... .. . ... ... ... : ... .. . ... : ... .. . ... : ... .. . ... ... : ... .. . ... ... : ... .. . ... ... : ... .. . ... ...
ROW D3 : ... .. . ... ... ... : ... .. . ... ... ... : ... .. . ... : ... .. . ... : ... .. . ... ... : ... .. 3 ... ... : ... .. 3 ... ... : ... .. . ... ...
ROW D4 : ... .. . ... ... ... : ... .. 2 ... ... ... : ... .. . ... : ... .. . ... : ... .. . ... ... : ... .. 2 ... ... : ... .. 2 ... ... : ... .. . ... ...
ROW D5 : ... .. . ... ... ... : ... .. . ... ... ... : ... .. . ... : ... .. . ... : ... .. . ... ... : ... .. . ... ... : ... .. . ... ... : ... .. . ... ...
ROW D6 : ... .. . ... ... ... : G-3 00 6 ... ... ... : ... .. . ... : ... .. . ... : ... .. . ... ... : ... .. 1 ... ... : ... .. 1 ... ... : ... .. . ... ...
ROW D7 : ... .. . ... ... ... : ... .. 5 ... ... ... : ... .. . ... : ... .. . ... : ... .. . ... ... : ... .. . ... ... : ... .. . ... ... : ... .. . ... ...
ROW D8 : ... .. . ... ... ... : ... .. . ... ... ... : ... .. . ... : ... .. . ... : ... .. . ... ... : ... .. . ... ... : ... .. . ... ... : ... .. . ... ...
ROW D9 : ... .. . ... ... ... : ... .. . ... ... ... : ... .. . ... : ... .. . ... : ... .. . ... ... : ... .. . ... ... : ... .. . ... ... : ... .. . ... ...
ROW DA : ... .. . ... ... ... : ... .. 4 ... ... ... : ... .. . ... : ... .. . ... : ... .. . ... ... : ... .. . ... ... : ... .. . ... ... : ... .. . ... ...
ROW DB : ... .. . ... ... ... : ... .. 3 ... ... ... : --- .. . ... : ... .. . ... : ... .. . ... ... : ... .. . ... ... : ... .. . ... ... : ... .. . ... ...
ROW DC : ... .. . ... ... ... : ... .. . ... ... ... : ... .. . ... : ... .. . ... : ... .. . ... ... : ... .. . ... ... : ... .. . ... ... : ... .. . ... ...
ROW DD : ... .. . ... ... ... : ... .. . ... ... ... : ... .. . ... : ... .. . ... : ... .. . ... ... : ... .. . ... ... : ... .. . ... ... : ... .. . ... ...
ROW DE : ... .. . ... ... ... : ... .. 2 ... ... ... : ... .. . ... : ... .. . ... : ... .. . ... ... : ... .. . ... ... : ... .. . ... ... : ... .. . ... ...
ROW DF : ... .. . ... ... ... : ... .. . ... ... ... : ... .. . ... : ... .. . ... : ... .. . ... ... : ... .. . ... ... : ... .. . ... ... : ... .. . ... ...
ROW E0 : C-4 00 F ... ... ... : D#4 00 6 ... ... ... : G-3 00 . ... : ... .. . ... : ... .. . ... ... : ... .. 6 ... ... : ... .. 6 ... ... : C-3 01 8 ... ...
ROW E1 : ... .. E ... ... ... : ... .. 5 ... ... ... : ... .. . ... : ... .. . ... : ... .. . ... ... : ... .. 5 ... ... : ... .. 5 ... ... : ... .. 6 ... ...
ROW E2 : ... .. D ... ... ... : ... .. . ... ... ... : ... .. . ... : ... .. . ... : ... .. . ... ... : ... .. . ... ... : ... .. . ... ... : ... .. 4 ... ...
ROW E3 : ... .. A ... ... ... : ... .. . ... ... ... : ... .. . ... : ... .. . ... : ... .. . ... ... : ... .. 4 ... ... : ... .. 4 ... ... : ... .. . ... ...
ROW E4 : ... .. . ... ... ... : ... .. 4 ... ... ... : ... .. . ... : ... .. . ... : ... .. . ... ... : ... .. . ... ... : ... .. . ... ... : ... .. . ... ...
ROW E5 : ... .. . ... ... ... : ... .. 3 ... ... ... : ... .. . ... : ... .. . ... : ... .. . ... ... : ... .. . ... ... : ... .. . ... ... : ... .. . ... ...
ROW E6 : ... .. . ... ... ... : ... .. . ... ... ... : ... .. . ... : ... .. . ... : ... .. . ... ... : ... .. . ... ... : ... .. . ... ... : ... .. . ... ...
ROW E7 : ... .. . ... ... ... : ... .. . ... ... ... : ... .. . ... : ... .. . ... : ... .. . ... ... : ... .. 3 ... ... : ... .. 3 ... ... : ... .. . ... ...
ROW E8 : ... .. . ... ... ... : ... .. 2 ... ... ... : ... .. . ... : ... .. . ... : ... .. . ... ... : ... .. 2 ... ... : ... .. 2 ... ... : ... .. . ... ...
ROW E9 : ... .. . ... ... ... : ... .. . ... ... ... : ... .. . ... : ... .. . ... : ... .. . ... ... : ... .. . ... ... : ... .. . ... ... : ... .. . ... ...
ROW EA : ... .. . ... ... ... : G-3 00 6 ... ... ... : ... .. . ... : ... .. . ... : ... .. . ... ... : ... .. 1 ... ... : ... .. 1 ... ... : ... .. . ... ...
ROW EB : ... .. 2 ... ... ... : ... .. 5 ... ... ... : ... .. . ... : ... .. . ... : ... .. . ... ... : ... .. . ... ... : ... .. . ... ... : ... .. . ... ...
ROW EC : ... .. . ... ... ... : ... .. . ... ... ... : ... .. . ... : ... .. . ... : ... .. . ... ... : ... .. . ... ... : ... .. . ... ... : ... .. . ... ...
ROW ED : ... .. . ... ... ... : ... .. . ... ... ... : ... .. . ... : ... .. . ... : ... .. . ... ... : ... .. . ... ... : ... .. . ... ... : ... .. . ... ...
ROW EE : ... .. 1 ... ... ... : ... .. 4 ... ... ... : ... .. . ... : ... .. . ... : ... .. . ... ... : ... .. . ... ... : ... .. . ... ... : ... .. . ... ...
ROW EF : ... .. . ... ... ... : ... .. 3 ... ... ... : --- .. . ... : ... .. . ... : ... .. . ... ... : ... .. . ... ... : ... .. . ... ... : ... .. . ... ...
ROW F0 : ... .. . ... ... ... : ... .. . ... ... ... : ... .. . ... : ... .. . ... : ... .. . ... ... : ... .. . ... ... : ... .. . ... ... : ... .. . ... ...
ROW F1 : ... .. 0 ... V00 ... : ... .. . ... ... ... : ... .. . ... : ... .. . ... : ... .. . ... ... : ... .. . ... ... : ... .. . ... ... : ... .. . ... ...
ROW F2 : ... .. . ... ... ... : ... .. 2 ... ... ... : ... .. . ... : ... .. . ... : ... .. . ... ... : ... .. . ... ... : ... .. . ... ... : ... .. . ... ...
ROW F3 : ... .. . ... ... ... : ... .. . ... ... ... : ... .. . ... : ... .. . ... : ... .. . ... ... : ... .. . ... ... : ... .. . ... ... : ... .. . ... ...
ROW F4 : ... .. . ... ... ... : D-4 00 6 ... ... ... : C-3 00 . ... : D-# 00 D V01 : ... .. . ... ... : D-3 01 6 ... ... : ... .. 6 ... ... : ... .. 8 ... ...
ROW F5 : ... .. . ... ... ... : ... .. 5 ... ... ... : ... .. . ... : ... .. B ... : ... .. . ... ... : ... .. 5 ... ... : ... .. 5 ... ... : ... .. 6 ... ...
ROW F6 : ... .. . ... ... ... : ... .. . ... ... ... : ... .. . ... : ... .. . ... : ... .. . ... ... : ... .. . ... ... : ... .. . ... ... : ... .. 4 ... ...
ROW F7 : ... .. . ... ... ... : ... .. . ... ... ... : ... .. . ... : ... .. A ... : ... .. . ... ... : ... .. 4 ... ... : ... .. 4 ... ... : ... .. . ... ...
ROW F8 : ... .. . ... ... ... : ... .. 4 ... ... ... : ... .. . ... : ... .. 8 ... : ... .. . ... ... : ... .. . ... ... : ... .. . ... ... : ... .. . ... ...
ROW F9 : ... .. . ... ... ... : ... .. 3 ... ... ... : ... .. . ... : ... .. 7 ... : ... .. . ... ... : ... .. . ... ... : ... .. . ... ... : ... .. . ... ...
ROW FA : ... .. . ... ... ... : ... .. . ... ... ... : ... .. . ... : ... .. 6 ... : ... .. . ... ... : ... .. . ... ... : ... .. . ... ... : ... .. . ... ...
ROW FB : ... .. . ... ... ... : ... .. . ... ... ... : ... .. . ... : ... .. . ... : ... .. . ... ... : ... .. 3 ... ... : ... .. 3 ... ... : ... .. . ... ...
ROW FC : ... .. . ... ... ... : ... .. 2 ... ... ... : ... .. . ... : ... .. 5 ... : ... .. . ... ... : ... .. 2 ... ... : ... .. 2 ... ... : ... .. . ... ...
ROW FD : ... .. . ... ... ... : ... .. . ... ... ... : ... .. . ... : ... .. . ... : ... .. . ... ... : ... .. . ... ... : ... .. . ... ... : ... .. . ... ...
ROW FE : ... .. . ... ... ... : F-3 00 6 ... ... ... : ... .. . ... : ... .. 4 ... : ... .. . ... ... : ... .. 1 ... ... : ... .. 1 ... ... : ... .. . ... ...
ROW FF : ... .. . ... ... ... : ... .. 5 ... ... ... : ... .. . ... : ... .. . ... : ... .. . ... ... : ... .. . ... ... : ... .. . ... ... : ... .. . ... ...

PATTERN 02
ROW 00 : ... .. . ... ... ... : ... .. . ... ... ... : ... .. . ... : ... .. 3 ... : ... .. . ... ... : ... .. . ... ... : ... .. . ... ... : ... .. . ... ...
ROW 01 : ... .. . ... ... ... : ... .. . ... ... ... : ... .. . ... : ... .. 2 ... : ... .. . ... ... : ... .. . ... ... : ... .. . ... ... : ... .. . ... ...
ROW 02 : ... .. . ... ... ... : ... .. 4 ... ... ... : ... .. . ... : ... .. . ... : ... .. . ... ... : ... .. . ... ... : ... .. . ... ... : ... .. . ... ...
ROW 03 : ... .. . ... ... ... : ... .. 3 ... ... ... : --- .. . ... : ... .. 1 ... : ... .. . ... ... : ... .. . ... ... : ... .. . ... ... : ... .. . ... ...
ROW 04 : ... .. . ... ... ... : ... .. . ... ... ... : ... .. . ... : ... .. 0 ... : ... .. . ... ... : ... .. . ... ... : ... .. . ... ... : ... .. . ... ...
ROW 05 : ... .. . ... ... ... : ... .. . ... ... ... : ... .. . ... : ... .. . ... : ... .. . ... ... : ... .. . ... ... : ... .. . ... ... : ... .. . ... ...
ROW 06 : ... .. . ... ... ... : ... .. 2 ... ... ... : ... .. . ... : ... .. . ... : ... .. . ... ... : ... .. . ... ... : ... .. . ... ... : ... .. . ... ...
ROW 07 : ... .. . ... ... ... : ... .. . ... ... ... : ... .. . ... : ... .. . ... : ... .. . ... ... : ... .. . ... ... : ... .. . ... ... : ... .. . ... ...
ROW 08 : F-3 00 F P80 V02 ... : C-4 00 6 ... ... ... : D-4 00 . ... : 9-# 00 A V00 : ... .. . ... ... : ... .. 6 ... ... : ... .. 6 ... ... : ... .. . ... ...
ROW 09 : ... .. E ... ... ... : ... .. 5 ... ... ... : ... .. . ... : ... .. 8 ... : ... .. . ... ... : ... .. 5 ... ... : ... .. 5 ... ... : ... .. . ... ...
ROW 0A : ... .. D ... ... ... : ... .. . ... ... ... : ... .. . ... : ... .. 4 ... : ... .. . ... ... : ... .. . ... ... : ... .. . ... ... : ... .. . ... ...
ROW 0B : ... .. A ... ... ... : ... .. . ... ... ... : ... .. . ... : ... .. 2 ... : ... .. . ... ... : ... .. 4 ... ... : ... .. 4 ... ... : ... .. . ... ...
ROW 0C : ... .. . ... ... ... : ... .. 4 ... ... ... : ... .. . ... : ... .. 1 ... : ... .. . ... ... : ... .. . ... ... : ... .. . ... ... : ... .. . ... ...
ROW 0D : ... .. . ... ... ... : ... .. 3 ... ... ... : ... .. . ... : ... .. 0 ... : ... .. . ... ... : ... .. . ... ... : ... .. . ... ... : ... .. 3 ... ...
ROW 0E : ... .. 2 ... ... ... : ... .. . ... ... ... : ... .. . ... : ... .. . ... : ... .. . ... ... : ... .. . ... ... : ... .. . ... ... : ... .. . ... ...
ROW 0F : ... .. . ... ... ... : ... .. . ... ... ... : ... .. . ... : ... .. . ... : ... .. . ... ... : ... .. 3 ... ... : ... .. 3 ... ... : ... .. . ... ...
ROW 10 : ... .. . ... ... ... : ... .. 2 ... ... ... : ... .. . ... : ... .. . ... : ... .. . ... ... : ... .. 2 ... ... : ... .. 2 ... ... : ... .. . ... ...
ROW 11 : ... .. 1 ... ... ... : ... .. . ... ... ... : ... .. . ... : ... .. . ... : ... .. . ... ... : ... .. . ... ... : ... .. . ... ... : ... .. . ... ...
ROW 12 : ... .. . ... ... ... : F-3 00 6 ... ... ... : ... .. . ... : ... .. 8 ... : ... .. . ... ... : ... .. 1 ... ... : ... .. 1 ... ... : ... .. . ... ...
ROW 13 : ... .. . ... ... ... : ... .. 5 ... ... ... : ... .. . ... : ... .. 6 ... : ... .. . ... ... : ... .. . ... ... : ... .. . ... ... : ... .. . ... ...
ROW 14 : ... .. 0 ... V00 ... : ... .. . ... ... ... : ... .. . ... : ... .. 3 ... : ... .. . ... ... : ... .. . ... ... : ... .. . ... ... : ... .. . ... ...
ROW 15 : ... .. . ... ... ... : ... .. . ... ... ... : ... .. . ... : ... .. 1 ... : ... .. . ... ... : ... .. . ... ... : ... .. . ... ... : ... .. . ... ...
ROW 16 : ... .. . ... ... ... : ... .. 4 ... ... ... : ... .. . ... : ... .. . ... : ... .. . ... ... : ... .. . ... ... : ... .. . ... ... : ... .. . ... ...
ROW 17 : ... .. . ... ... ... : ... .. 3 ... ... ... : --- .. . ... : ... .. 0 ... : ... .. . ... ... : ... .. . ... ... : ... .. . ... ... : ... .. . ... ...
ROW 18 : ... .. . ... ... ... : ... .. . ... ... ... : ... .. . ... : ... .. . ... : ... .. . ... ... : ... .. . ... ... : ... .. . ... ... : ... .. . ... ...
ROW 19 : ... .. . ... ... ... : ... .. . ... ... ... : ... .. . ... : ... .. . ... : ... .. . ... ... : ... .. . ... ... : ... .. . ... ... : ... .. . ... ...
ROW 1A : ... .. . ... ... ... : ... .. 2 ... ... ... : ... .. . ... : ... .. . ... : ... .. . ... ... : ... .. . ... ... : ... .. . ... ... : ... .. . ... ...
ROW 1B : ... .. . ... ... ... : ... .. . ... ... ... : ... .. . ... : ... .. . ... : ... .. . ... ... : ... .. . ... ... : ... .. . ... ... : ... .. . ... ...
ROW 1C : F-3 00 F P80 V02 ... : D-4 00 6 ... ... ... : D-4 00 . ... : ... .. F ... : ... .. . ... ... : C-3 01 6 ... ... : ... .. 6 ... ... : D-3 01 7 ... ...
ROW 1D : ... .. E ... ... ... : ... .. 5 ... ... ... : ... .. . ... : ... .. C ... : ... .. . ... ... : ... .. 5 ... ... : ... .. 5 ... ... : ... .. 6 ... ...
ROW 1E : ... .. D ... ... ... : ... .. . ... ... ... : ... .. . ... : ... .. 6 ... : ... .. . ... ... : ... .. . ... ... : ... .. . ... ... : ... .. 3 ... ...
ROW 1F : ... .. A ... ... ... : ... .. . ... ... ... : ... .. . ... : ... .. 3 ... : ... .. . ... ... : ... .. 4 ... ... : ... .. 4 ... ... : ... .. . ... ...
ROW 20 : ... .. . ... ... ... : ... .. 4 ... ... ... : ... .. . ... : ... .. 2 ... : ... .. . ... ... : ... .. . ... ... : ... .. . ... ... : ... .. . ... ...
ROW 21 : ... .. . ... ... ... : ... .. 3 ... ... ... : ... .. . ... : ... .. 0 ... : ... .. . ... ... : ... .. . ... ... : ... .. . ... ... : ... .. . ... ...
ROW 22 : ... .. . ... ... ... : ... .. . ... ... ... : ... .. . ... : ... .. . ... : ... .. . ... ... : ... .. . ... ... : ... .. . ... ... : ... .. . ... ...
ROW 23 : ... .. . ... ... ... : ... .. . ... ... ... : ... .. . ... : ... .. . ... : ... .. . ... ... : ... .. 3 ... ... : ... .. 3 ... ... : ... .. . ... ...
ROW 24 : ... .. . ... ... ... : ... .. 2 ... ... ... : ... .. . ... : ... .. . ... : ... .. . ... ... : ... .. 2 ... ... : ... .. 2 ... ... : ... .. . ... ...
ROW 25 : ... .. . ... ... ... : ... .. . ... ... ... : ... .. . ... : ... .. . ... : ... .. . ... ... : ... .. . ... ... : ... .. . ... ... : ... .. . ... ...
ROW 26 : ... .. . ... ... ... : F-3 00 6 ... ... ... : ... .. . ... : ... .. . ... : ... .. . ... ... : ... .. 1 ... ... : ... .. 1 ... ... : ... .. . ... ...
ROW 27 : ... .. . ... ... ... : ... .. 5 ... ... ... : ... .. . ... : ... .. . ... : ... .. . ... ... : ... .. . ... ... : ... .. . ... ... : ... .. . ... ...
ROW 28 : ... .. . ... ... ... : ... .. . ... ... ... : ... .. . ... : ... .. . ... : ... .. . ... ... : ... .. . ... ... : ... .. . ... ... : ... .. . ... ...
ROW 29 : ... .. . ... ... ... : ... .. . ... ... ... : ... .. . ... : ... .. . ... : ... .. . ... ... : ... .. . ... ... : ... .. . ... ... : ... .. . ... ...
ROW 2A : ... .. . ... ... ... : ... .. 4 ... ... ... : ... .. . ... : ... .. . ... : ... .. . ... ... : ... .. . ... ... : ... .. . ... ... : ... .. . ... ...
ROW 2B : ... .. . ... ... ... : ... .. 3 ... ... ... : --- .. . ... : ... .. . ... : ... .. . ... ... : ... .. . ... ... : ... .. . ... ... : ... .. . ... ...
ROW 2C : ... .. . ... ... ... : ... .. . ... ... ... : ... .. . ... : ... .. . ... : ... .. . ... ... : ... .. . ... ... : ... .. . ... ... : ... .. . ... ...
ROW 2D : ... .. . ... ... ... : ... .. . ... ... ... : ... .. . ... : ... .. . ... : ... .. . ... ... : ... .. . ... ... : ... .. . ... ... : ... .. . ... ...
ROW 2E : ... .. . ... ... ... : ... .. 2 ... ... ... : ... .. . ... : ... .. . ... : ... .. . ... ... : ... .. . ... ... : ... .. . ... ... : ... .. . ... ...
ROW 2F : ... .. . ... ... ... : ... .. . ... ... ... : ... .. . ... : ... .. . ... : ... .. . ... ... : ... .. . ... ... : ... .. . ... ... : ... .. . ... ...
ROW 30 : C-4 00 F ... ... ... : C-4 00 6 ... ... ... : G-3 00 . ... : D-# 00 F ... : ... .. . ... ... : ... .. 6 ... ... : ... .. 6 ... ... : C-3 01 7 ... ...
ROW 31 : ... .. E ... ... ... : ... .. 5 ... ... ... : ... .. . ... : ... .. C ... : ... .. . ... ... : ... .. 5 ... ... : ... .. 5 ... ... : ... .. 6 ... ...
ROW 32 : ... .. D ... ... ... : ... .. . ... ... ... : ... .. . ... : ... .. 6 ... : ... .. . ... ... : ... .. . ... ... : ... .. . ... ... : ... .. 3 ... ...
ROW 33 : ... .. A ... ... ... : ... .. . ... ... ... : ... .. . ... : ... .. 3 ... : ... .. . ... ... : ... .. 4 ... ... : ... .. 4 ... ... : ... .. . ... ...
ROW 34 : ... .. . ... ... ... : ... .. 4 ... ... ... : ... .. . ... : ... .. 2 ... : ... .. . ... ... : ... .. . ... ... : ... .. . ... ... : ... .. . ... ...
ROW 35 : ... .. . ... ... ... : ... .. 3 ... ... ... : ... .. . ... : ... .. 0 ... : ... .. . ... ... : ... .. . ... ... : ... .. . ... ... : ... .. . ... ...
ROW 36 : ... .. . ... ... ... : ... .. . ... ... ... : ... .. . ... : ... .. . ... : ... .. . ... ... : ... .. . ... ... : ... .. . ... ... : ... .. . ... ...
ROW 37 : ... .. . ... ... ... : ... .. . ... ... ... : ... .. . ... : ... .. . ... : ... .. . ... ... : ... .. 3 ... ... : ... .. 3 ... ... : ... .. . ... ...
ROW 38 : ... .. . ... ... ... : ... .. 2 ... ... ... : ... .. . ... : ... .. . ... : ... .. . ... ... : ... .. 2 ... ... : ... .. 2 ... ... : ... .. . ... ...
ROW 39 : ... .. . ... ... ... : ... .. . ... ... ... : ... .. . ... : ... .. . ... : ... .. . ... ... : ... .. . ... ... : ... .. . ... ... : ... .. . ... ...
ROW 3A : ... .. . ... ... ... : F-3 00 6 ... ... ... : ... .. . ... : ... .. . ... : ... .. . ... ... : ... .. 1 ... ... : ... .. 1 ... ... : ... .. . ... ...
ROW 3B : ... .. 2 ... ... ... : ... .. 5 ... ... ... : ... .. . ... : ... .. . ... : ... .. . ... ... : ... .. . ... ... : ... .. . ... ... : ... .. . ... ...
ROW 3C : ... .. . ... ... ... : ... .. . ... ... ... : ... .. . ... : ... .. . ... : ... .. . ... ... : ... .. . ... ... : ... .. . ... ... : ... .. . ... ...
ROW 3D : ... .. . ... ... ... : ... .. . ... ... ... : ... .. . ... : ... .. . ... : ... .. . ... ... : ... .. . ... ... : ... .. . ... ... : ... .. . ... ...
ROW 3E : ... .. 1 ... ... ... : ... .. 4 ... ... ... : ... .. . ... : ... .. . ... : ... .. . ... ... : ... .. . ... ... : ... .. . ... ... : ... .. . ... ...
ROW 3F : ... .. . ... ... ... : ... .. 3 ... ... ... : --- .. . ... : ... .. . ... : ... .. . ... ... : ... .. . ... ... : ... .. . ... ... : ... .. . ... ...
ROW 40 : ... .. . ... ... ... : ... .. . ... ... ... : ... .. . ... : ... .. . ... : ... .. . ... ... : ... .. . ... ... : ... .. . ... ... : ... .. . ... ...
ROW 41 : ... .. 0 ... V00 ... : ... .. . ... ... ... : ... .. . ... : ... .. . ... : ... .. . ... ... : ... .. . ... ... : ... .. . ... ... : ... .. . ... ...
ROW 42 : ... .. . ... ... ... : ... .. 2 ... ... ... : ... .. . ... : ... .. . ... : ... .. . ... ... : ... .. . ... ... : ... .. . ... ... : ... .. . ... ...
ROW 43 : ... .. . ... ... ... : ... .. . ... ... ... : ... .. . ... : ... .. . ... : ... .. . ... ... : ... .. . ... ... : ... .. . ... ... : ... .. . ... ...
ROW 44 : C-4 00 F P80 V02 ... : D-4 00 6 ... ... ... : C-3 00 . ... : ... .. D ... : ... .. . ... ... : D-3 01 6 ... ... : ... .. 6 ... ... : B-2 01 6 ... ...
ROW 45 : ... .. E ... ... ... : ... .. 5 ... ... ... : ... .. . ... : ... .. B ... : ... .. . ... ... : ... .. 5 ... ... : ... .. 5 ... ... : ... .. 5 ... ...
ROW 46 : ... .. D ... ... ... : ... .. . ... ... ... : ... .. . ... : ... .. . ... : ... .. . ... ... : ... .. . ... ... : ... .. . ... ... : ... .. 3 ... ...
ROW 47 : ... .. A ... ... ... : ... .. . ... ... ... : ... .. . ... : ... .. A ... : ... .. . ... ... : ... .. 4 ... ... : ... .. 4 ... ... : ... .. . ... ...
ROW 48 : ... .. . ... ... ... : ... .. 4 ... ... ... : ... .. . ... : ... .. 8 ... : ... .. . ... ... : ... .. . ... ... : ... .. . ... ... : ... .. . ... ...
ROW 49 : ... .. . ... ... ... : ... .. 3 ... ... ... : ... .. . ... : ... .. 7 ... : ... .. . ... ... : ... .. . ... ... : ... .. . ... ... : ... .. . ... ...
ROW 4A : ... .. . ... ... ... : ... .. . ... ... ... : ... .. . ... : ... .. 6 ... : ... .. . ... ... : ... .. . ... ... : ... .. . ... ... : ... .. . ... ...
ROW 4B : ... .. . ... ... ... : ... .. . ... ... ... : ... .. . ... : ... .. . ... : ... .. . ... ... : ... .. 3 ... ... : ... .. 3 ... ... : ... .. . ... ...
ROW 4C : ... .. . ... ... ... : ... .. 2 ... ... ... : ... .. . ... : ... .. 5 ... : ... .. . ... ... : ... .. 2 ... ... : ... .. 2 ... ... : ... .. . ... ...
ROW 4D : ... .. . ... ... ... : ... .. . ... ... ... : ... .. . ... : ... .. . ... : ... .. . ... ... : ... .. . ... ... : ... .. . ... ... : ... .. . ... ...
ROW 4E : D-4 00 F ... ... ... : F-3 00 6 ... ... ... : ... .. . ... : ... .. 4 ... : ... .. . ... ... : ... .. 1 ... ... : ... .. 1 ... ... : ... .. . ... ...
ROW 4F : ... .. E ... ... ... : ... .. 5 ... ... ... : ... .. . ... : ... .. . ... : ... .. . ... ... : ... .. . ... ... : ... .. . ... ... : ... .. . ... ...
ROW 50 : ... .. D ... ... ... : ... .. . ... ... ... : ... .. . ... : ... .. 3 ... : ... .. . ... ... : ... .. . ... ... : ... .. . ... ... : ... .. . ... ...
ROW 51 : ... .. A ... ... ... : ... .. . ... ... ... : ... .. . ... : ... .. 2 ... : ... .. . ... ... : ... .. . ... ... : ... .. . ... ... : ... .. . ... ...
ROW 52 : ... .. . ... ... ... : ... .. 4 ... ... ... : ... .. . ... : ... .. . ... : ... .. . ... ... : ... .. . ... ... : ... .. . ... ... : ... .. . ... ...
ROW 53 : C-4 00 F ... ... ... : ... .. 3 ... ... ... : --- .. . ... : ... .. 1 ... : ... .. . ... ... : ... .. . ... ... : ... .. . ... ... : ... .. . ... ...
ROW 54 : ... .. E ... ... ... : ... .. . ... ... ... : ... .. . ... : ... .. 0 ... : ... .. . ... ... : ... .. . ... ... : ... .. . ... ... : ... .. . ... ...
ROW 55 : ... .. D ... ... ... : ... .. . ... ... ... : ... .. . ... : ... .. . ... : ... .. . ... ... : ... .. . ... ... : ... .. . ... ... : ... .. . ... ...
ROW 56 : ... .. A ... ... ... : ... .. 2 ... ... ... : ... .. . ... : ... .. . ... : ... .. . ... ... : ... .. . ... ... : ... .. . ... ... : ... .. . ... ...
ROW 57 : ... .. . ... ... ... : ... .. . ... ... ... : ... .. . ... : ... .. . ... : ... .. . ... ... : ... .. . ... ... : ... .. . ... ... : ... .. . ... ...
ROW 58 : B-3 00 F ... ... ... : B-3 00 6 ... ... ... : D-4 00 . ... : 9-# 00 A ... : ... .. . ... ... : ... .. 6 ... ... : ... .. 6 ... ... : G-2 01 6 ... ...
ROW 59 : ... .. E ... ... ... : ... .. 5 ... ... ... : ... .. . ... : ... .. 8 ... : ... .. . ... ... : ... .. 5 ... ... : ... .. 5 ... ... : ... .. 5 ... ...
ROW 5A : ... .. D ... ... ... : ... .. . ... ... ... : ... .. . ... : ... .. 4 ... : ... .. . ... ... : ... .. . ... ... : ... .. . ... ... : ... .. 3 ... ...
ROW 5B : ... .. A ... ... ... : ... .. . ... ... ... : ... .. . ... : ... .. 2 ... : ... .. . ... ... : ... .. 4 ... ... : ... .. 4 ... ... : ... .. . ... ...
ROW 5C : ... .. . ... ... ... : ... .. 4 ... ... ... : ... .. . ... : ... .. 1 ... : ... .. . ... ... : ... .. . ... ... : ... .. . ... ... : ... .. . ... ...
ROW 5D : ... .. . ... ... ... : ... .. 3 ... ... ... : ... .. . ... : ... .. 0 ... : ... .. . ... ... : ... .. . ... ... : ... .. . ... ... : ... .. . ... ...
ROW 5E : ... .. 2 ... ... ... : ... .. . ... ... ... : ... .. . ... : ... .. . ... : ... .. . ... ... : ... .. . ... ... : ... .. . ... ... : ... .. . ... ...
ROW 5F : ... .. . ... ... ... : ... .. . ... ... ... : ... .. . ... : ... .. . ... : ... .. . ... ... : ... .. 3 ... ... : ... .. 3 ... ... : ... .. . ... ...
ROW 60 : ... .. . ... ... ... : ... .. 2 ... ... ... : ... .. . ... : ... .. . ... : ... .. . ... ... : ... .. 2 ... ... : ... .. 2 ... ... : ... .. . ... ...
ROW 61 : ... .. 1 ... ... ... : ... .. . ... ... ... : ... .. . ... : ... .. . ... : ... .. . ... ... : ... .. . ... ... : ... .. . ... ... : ... .. . ... ...
ROW 62 : A-3 00 F ... ... ... : F-3 00 6 ... ... ... : C-4 00 . ... : ... .. 8 ... : ... .. . ... ... : ... .. 1 ... ... : ... .. 1 ... ... : ... .. . ... ...
ROW 63 : ... .. E ... ... ... : ... .. 5 ... ... ... : ... .. . ... : ... .. 6 ... : ... .. . ... ... : ... .. . ... ... : ... .. . ... ... : ... .. . ... ...
ROW 64 : ... .. D ... ... ... : ... .. . ... ... ... : ... .. . ... : ... .. 3 ... : ... .. . ... ... : ... .. . ... ... : ... .. . ... ... : ... .. . ... ...
ROW 65 : ... .. A ... ... ... : ... .. . ... ... ... : ... .. . ... : ... .. 1 ... : ... .. . ... ... : ... .. . ... ... : ... .. . ... ... : ... .. . ... ...
ROW 66 : ... .. . ... ... ... : ... .. 4 ... ... ... : ... .. . ... : ... .. . ... : ... .. . ... ... : ... .. . ... ... : ... .. . ... ... : ... .. . ... ...
ROW 67 : ... .. . ... ... ... : ... .. 3 ... ... ... : --- .. . ... : ... .. 0 ... : ... .. . ... ... : ... .. . ... ... : ... .. . ... ... : ... .. 2 ... ...
ROW 68 : ... .. 2 ... ... ... : ... .. . ... ... ... : ... .. . ... : ... .. . ... : ... .. . ... ... : ... .. . ... ... : ... .. . ... ... : ... .. . ... ...
ROW 69 : ... .. . ... ... ... : ... .. . ... ... ... : ... .. . ... : ... .. . ... : ... .. . ... ... : ... .. . ... ... : ... .. . ... ... : ... .. . ... ...
ROW 6A : ... .. . ... ... ... : ... .. 2 ... ... ... : ... .. . ... : ... .. . ... : ... .. . ... ... : ... .. . ... ... : ... .. . ... ... : ... .. . ... ...
ROW 6B : ... .. 1 ... ... ... : ... .. . ... ... ... : ... .. . ... : ... .. . ... : ... .. . ... ... : ... .. . ... ... : ... .. . ... ... : ... .. . ... ...
ROW 6C : B-3 00 F ... ... ... : D-4 00 6 ... ... ... : B-3 00 . ... : ... .. F ... : ... .. . ... ... : B-2 01 6 ... ... : ... .. 6 ... ... : B-2 01 5 ... ...
ROW 6D : ... .. E ... ... ... : ... .. 5 ... ... ... : ... .. . ... : ... .. C ... : ... .. . ... ... : ... .. 5 ... ... : ... .. 5 ... ... : ... .. 4 ... ...
ROW 6E : ... .. D ... ... ... : ... .. . ... ... ... : ... .. . ... : ... .. 6 ... : ... .. . ... ... : ... .. . ... ... : ... .. . ... ... : ... .. 2 ... ...
ROW 6F : ... .. A ... ... ... : ... .. . ... ... ... : ... .. . ... : ... .. 3 ... : ... .. . ... ... : ... .. 4 ... ... : ... .. 4 ... ... : ... .. . ... ...
ROW 70 : ... .. . ... ... ... : ... .. 4 ... ... ... : ... .. . ... : ... .. 2 ... : ... .. . ... ... : ... .. . ... ... : ... .. . ... ... : ... .. . ... ...
ROW 71 : ... .. . ... ... ... : ... .. 3 ... ... ... : ... .. . ... : ... .. 0 ... : ... .. . ... ... : ... .. . ... ... : ... .. . ... ... : ... .. . ... ...
ROW 72 : ... .. . ... ... ... : ... .. . ... ... ... : ... .. . ... : ... .. . ... : ... .. . ... ... : ... .. . ... ... : ... .. . ... ... : ... .. . ... ...
ROW 73 : ... .. . ... ... ... : ... .. . ... ... ... : ... .. . ... : ... .. . ... : ... .. . ... ... : ... .. 3 ... ... : ... .. 3 ... ... : ... .. . ... ...
ROW 74 : ... .. . ... ... ... : ... .. 2 ... ... ... : ... .. . ... : ... .. . ... : ... .. . ... ... : ... .. 2 ... ... : ... .. 2 ... ... : ... .. . ... ...
ROW 75 : ... .. . ... ... ... : ... .. . ... ... ... : ... .. . ... : ... .. . ... : ... .. . ... ... : ... .. . ... ... : ... .. . ... ... : ... .. . ... ...
ROW 76 : ... .. . ... ... ... : B-3 00 6 ... ... ... : A-3 00 . ... : ... .. . ... : ... .. . ... ... : ... .. 1 ... ... : ... .. 1 ... ... : ... .. . ... ...
ROW 77 : ... .. . ... ... ... : ... .. 5 ... ... ... : ... .. . ... : ... .. . ... : ... .. . ... ... : ... .. . ... ... : ... .. . ... ... : ... .. . ... ...
ROW 78 : ... .. . ... ... ... : ... .. . ... ... ... : ... .. . ... : ... .. . ... : ... .. . ... ... : ... .. . ... ... : ... .. . ... ... : ... .. . ... ...
ROW 79 : ... .. . ... ... ... : ... .. . ... ... ... : ... .. . ... : ... .. . ... : ... .. . ... ... : ... .. . ... ... : ... .. . ... ... : ... .. . ... ...
ROW 7A : ... .. . ... ... ... : ... .. 4 ... ... ... : ... .. . ... : ... .. . ... : ... .. . ... ... : ... .. . ... ... : ... .. . ... ... : ... .. . ... ...
ROW 7B : ... .. . ... ... ... : ... .. 3 ... ... ... : --- .. . ... : ... .. . ... : ... .. . ... ... : ... .. . ... ... : ... .. . ... ... : ... .. . ... ...
ROW 7C : ... .. . ... ... ... : ... .. . ... ... ... : ... .. . ... : ... .. . ... : ... .. . ... ... : ... .. . ... ... : ... .. . ... ... : ... .. . ... ...
ROW 7D : ... .. . ... ... ... : ... .. . ... ... ... : ... .. . ... : ... .. . ... : ... .. . ... ... : ... .. . ... ... : ... .. . ... ... : ... .. . ... ...
ROW 7E : ... .. . ... ... ... : ... .. 2 ... ... ... : ... .. . ... : ... .. . ... : ... .. . ... ... : ... .. . ... ... : ... .. . ... ... : ... .. . ... ...
ROW 7F : ... .. . ... ... ... : ... .. . ... ... ... : ... .. . ... : ... .. . ... : ... .. . ... ... : ... .. . ... ... : ... .. . ... ... : ... .. . ... ...
ROW 80 : ... .. . P84 ... ... : D-4 00 6 ... ... ... : G-3 00 . ... : D-# 00 D ... : ... .. . ... ... : ... .. 6 ... ... : ... .. 6 ... ... : D-3 01 5 ... ...
ROW 81 : ... .. . P86 ... ... : ... .. 5 ... ... ... : ... .. . ... : ... .. B ... : ... .. . ... ... : ... .. 5 ... ... : ... .. 5 ... ... : ... .. 4 ... ...
ROW 82 : ... .. . P85 ... ... : ... .. . ... ... ... : ... .. . ... : ... .. . ... : ... .. . ... ... : ... .. . ... ... : ... .. . ... ... : ... .. 2 ... ...
ROW 83 : ... .. . P82 ... ... : ... .. . ... ... ... : ... .. . ... : ... .. A ... : ... .. . ... ... : ... .. 4 ... ... : ... .. 4 ... ... : ... .. . ... ...
ROW 84 : ... .. . P7E ... ... : ... .. 4 ... ... ... : ... .. . ... : ... .. 8 ... : ... .. . ... ... : ... .. . ... ... : ... .. . ... ... : ... .. . ... ...
ROW 85 : ... .. . P7B ... ... : ... .. 3 ... ... ... : ... .. . ... : ... .. 7 ... : ... .. . ... ... : ... .. . ... ... : ... .. . ... ... : ... .. . ... ...
ROW 86 : ... .. . P7A ... ... : ... .. . ... ... ... : ... .. . ... : ... .. 6 ... : ... .. . ... ... : ... .. . ... ... : ... .. . ... ... : ... .. . ... ...
ROW 87 : ... .. . P7C ... ... : ... .. . ... ... ... : ... .. . ... : ... .. . ... : ... .. . ... ... : ... .. 3 ... ... : ... .. 3 ... ... : ... .. . ... ...
ROW 88 : ... .. . P80 ... ... : ... .. 2 ... ... ... : ... .. . ... : ... .. 5 ... : ... .. . ... ... : ... .. 2 ... ... : ... .. 2 ... ... : ... .. . ... ...
ROW 89 : ... .. . P83 ... ... : ... .. . ... ... ... : ... .. . ... : ... .. . ... : ... .. . ... ... : ... .. . ... ... : ... .. . ... ... : ... .. . ... ...
ROW 8A : ... .. . P86 ... ... : F-4 00 6 ... ... ... : F-3 00 . ... : ... .. 4 ... : ... .. . ... ... : ... .. 1 ... ... : ... .. 1 ... ... : ... .. . ... ...
ROW 8B : ... .. . ... ... ... : ... .. 5 ... ... ... : ... .. . ... : ... .. . ... : ... .. . ... ... : ... .. . ... ... : ... .. . ... ... : ... .. . ... ...
ROW 8C : ... .. . P82 ... ... : ... .. . ... ... ... : ... .. . ... : ... .. 3 ... : ... .. . ... ... : ... .. . ... ... : ... .. . ... ... : ... .. . ... ...
ROW 8D : ... .. . P7F ... ... : ... .. . ... ... ... : ... .. . ... : ... .. 2 ... : ... .. . ... ... : ... .. . ... ... : ... .. . ... ... : ... .. . ... ...
ROW 8E : ... .. . P7B ... ... : ... .. 4 ... ... ... : ... .. . ... : ... .. . ... : ... .. . ... ... : ... .. . ... ... : ... .. . ... ... : ... .. . ... ...
ROW 8F : ... .. . P7A ... ... : ... .. 3 ... ... ... : --- .. . ... : ... .. 1 ... : ... .. . ... ... : ... .. . ... ... : ... .. . ... ... : ... .. . ... ...
ROW 90 : ... .. . P7C ... ... : ... .. . ... ... ... : ... .. . ... : ... .. 0 ... : ... .. . ... ... : ... .. . ... ... : ... .. . ... ... : ... .. . ... ...
ROW 91 : ... .. . P80 ... ... : ... .. . ... ... ... : ... .. . ... : ... .. . ... : ... .. . ... ... : ... .. . ... ... : ... .. . ... ... : ... .. . ... ...
ROW 92 : ... .. . P83 ... ... : ... .. 2 ... ... ... : ... .. . ... : ... .. . ... : ... .. . ... ... : ... .. . ... ... : ... .. . ... ... : ... .. . ... ...
ROW 93 : ... .. . P86 ... ... : ... .. . ... ... ... : ... .. . ... : ... .. . ... : ... .. . ... ... : ... .. . ... ... : ... .. . ... ... : ... .. . ... ...
ROW 94 : ... .. . ... ... ... : G-4 00 6 ... ... ... : E-3 00 . ... : ... .. D V01 : ... .. . ... ... : C-3 01 6 ... ... : A#3 01 6 ... ... : C#3 01 5 ... ...
ROW 95 : ... .. 2 P83 ... ... : ... .. 5 ... ... ... : ... .. . ... : ... .. B ... : ... .. . ... ... : ... .. 5 ... ... : ... .. 5 ... ... : ... .. 4 ... ...
ROW 96 : ... .. . P80 ... ... : ... .. . ... ... ... : ... .. . ... : ... .. . ... : ... .. . ... ... : ... .. . ... ... : ... .. . ... ... : ... .. 2 ... ...
ROW 97 : ... .. . P7C ... ... : ... .. . ... ... ... : ... .. . ... : ... .. A ... : ... .. . ... ... : ... .. 4 ... ... : ... .. 4 ... ... : ... .. . ... ...
ROW 98 : ... .. 1 P7A ... ... : ... .. 4 ... ... ... : ... .. . ... : ... .. 8 ... : ... .. . ... ... : ... .. . ... ... : ... .. . ... ... : ... .. . ... ...
ROW 99 : ... .. . P7B ... ... : ... .. 3 ... ... ... : ... .. . ... : ... .. 7 ... : ... .. . ... ... : ... .. . ... ... : ... .. . ... ... : ... .. . ... ...
ROW 9A : ... .. . P7F ... ... : ... .. . ... ... ... : ... .. . ... : ... .. 6 ... : ... .. . ... ... : ... .. . ... ... : ... .. . ... ... : ... .. . ... ...
ROW 9B : ... .. 0 ... V00 ... : ... .. . ... ... ... : ... .. . ... : ... .. . ... : ... .. . ... ... : ... .. 3 ... ... : ... .. 3 ... ... : ... .. . ... ...
ROW 9C : ... .. . ... ... ... : ... .. 2 ... ... ... : ... .. . ... : ... .. 5 ... : ... .. . ... ... : ... .. 2 ... ... : ... .. 2 ... ... : ... .. . ... ...
ROW 9D : ... .. . ... ... ... : ... .. . ... ... ... : ... .. . ... : ... .. . ... : ... .. . ... ... : ... .. . ... ... : ... .. . ... ... : ... .. . ... ...
ROW 9E : ... .. . ... ... ... : C-4 00 6 ... ... ... : ... .. . ... : ... .. 4 ... : ... .. . ... ... : ... .. 1 ... ... : ... .. 1 ... ... : ... .. . ... ...
ROW 9F : ... .. . ... ... ... : ... .. 5 ... ... ... : ... .. . ... : ... .. . ... : ... .. . ... ... : ... .. . ... ... : ... .. . ... ... : ... .. . ... ...
ROW A0 : ... .. . ... ... ... : ... .. . ... ... ... : ... .. . ... : ... .. 3 ... : ... .. . ... ... : ... .. . ... ... : ... .. . ... ... : ... .. . ... ...
ROW A1 : ... .. . ... ... ... : ... .. . ... ... ... : ... .. . ... : ... .. 2 ... : ... .. . ... ... : ... .. . ... ... : ... .. . ... ... : ... .. . ... ...
ROW A2 : ... .. . ... ... ... : ... .. 4 ... ... ... : ... .. . ... : ... .. . ... : ... .. . ... ... : ... .. . ... ... : ... .. . ... ... : ... .. . ... ...
ROW A3 : ... .. . ... ... ... : ... .. 3 ... ... ... : --- .. . ... : ... .. 1 ... : ... .. . ... ... : ... .. . ... ... : ... .. . ... ... : ... .. . ... ...
ROW A4 : ... .. . ... ... ... : ... .. . ... ... ... : ... .. . ... : ... .. 0 ... : ... .. . ... ... : ... .. . ... ... : ... .. . ... ... : ... .. . ... ...
ROW A5 : ... .. . ... ... ... : ... .. . ... ... ... : ... .. . ... : ... .. . ... : ... .. . ... ... : ... .. . ... ... : ... .. . ... ... : ... .. . ... ...
ROW A6 : ... .. . ... ... ... : ... .. 2 ... ... ... : ... .. . ... : ... .. . ... : ... .. . ... ... : ... .. . ... ... : ... .. . ... ... : ... .. . ... ...
ROW A7 : ... .. . ... ... ... : ... .. . ... ... ... : ... .. . ... : ... .. . ... : ... .. . ... ... : ... .. . ... ... : ... .. . ... ... : ... .. . ... ...
ROW A8 : C-4 00 F P80 V02 ... : E-4 00 6 ... ... ... : G-4 00 . ... : 9-# 00 A V00 : ... .. . ... ... : ... .. 6 ... ... : ... .. 6 ... ... : ... .. . ... ...
ROW A9 : ... .. E ... ... ... : ... .. 5 ... ... ... : ... .. . ... : ... .. 8 ... : ... .. . ... ... : ... .. 5 ... ... : ... .. 5 ... ... : ... .. . ... ...
ROW AA : ... .. D ... ... ... : ... .. . ... ... ... : ... .. . ... : ... .. 4 ... : ... .. . ... ... : ... .. . ... ... : ... .. . ... ... : ... .. . ... ...
ROW AB : ... .. A ... ... ... : ... .. . ... ... ... : ... .. . ... : ... .. 2 ... : ... .. . ... ... : ... .. 4 ... ... : ... .. 4 ... ... : ... .. . ... ...
ROW AC : ... .. . ... ... ... : ... .. 4 ... ... ... : ... .. . ... : ... .. 1 ... : ... .. . ... ... : ... .. . ... ... : ... .. . ... ... : ... .. . ... ...
ROW AD : ... .. . ... ... ... : ... .. 3 ... ... ... : ... .. . ... : ... .. 0 ... : ... .. . ... ... : ... .. . ... ... : ... .. . ... ... : ... .. . ... ...
ROW AE : ... .. 2 ... ... ... : ... .. . ... ... ... : ... .. . ... : ... .. . ... : ... .. . ... ... : ... .. . ... ... : ... .. . ... ... : ... .. . ... ...
ROW AF : ... .. . ... ... ... : ... .. . ... ... ... : ... .. . ... : ... .. . ... : ... .. . ... ... : ... .. 3 ... ... : ... .. 3 ... ... : ... .. . ... ...
ROW B0 : ... .. . ... ... ... : ... .. 2 ... ... ... : ... .. . ... : ... .. . ... : ... .. . ... ... : ... .. 2 ... ... : ... .. 2 ... ... : ... .. . ... ...
ROW B1 : ... .. 1 ... ... ... : ... .. . ... ... ... : ... .. . ... : ... .. . ... : ... .. . ... ... : ... .. . ... ... : ... .. . ... ... : ... .. . ... ...
ROW B2 : ... .. . ... ... ... : C-4 00 6 ... ... ... : ... .. . ... : ... .. 8 ... : ... .. . ... ... : ... .. 1 ... ... : ... .. 1 ... ... : ... .. . ... ...
ROW B3 : ... .. . ... ... ... : ... .. 5 ... ... ... : ... .. . ... : ... .. 6 ... : ... .. . ... ... : ... .. . ... ... : ... .. . ... ... : ... .. . ... ...
ROW B4 : ... .. 0 ... V00 ... : ... .. . ... ... ... : ... .. . ... : ... .. 3 ... : ... .. . ... ... : ... .. . ... ... : ... .. . ... ... : ... .. . ... ...
ROW B5 : ... .. . ... ... ... : ... .. . ... ... ... : ... .. . ... : ... .. 1 ... : ... .. . ... ... : ... .. . ... ... : ... .. . ... ... : ... .. . ... ...
ROW B6 : ... .. . ... ... ... : ... .. 4 ... ... ... : ... .. . ... : ... .. . ... : ... .. . ... ... : ... .. . ... ... : ... .. . ... ... : ... .. . ... ...
ROW B7 : ... .. . ... ... ... : ... .. 3 ... ... ... : --- .. . ... : ... .. 0 ... : ... .. . ... ... : ... .. . ... ... : ... .. . ... ... : ... .. . ... ...
ROW B8 : ... .. . ... ... ... : ... .. . ... ... ... : ... .. . ... : ... .. . ... : ... .. . ... ... : ... .. . ... ... : ... .. . ... ... : ... .. . ... ...
ROW B9 : ... .. . ... ... ... : ... .. . ... ... ... : ... .. . ... : ... .. . ... : ... .. . ... ... : ... .. . ... ... : ... .. . ... ... : ... .. . ... ...
ROW BA : ... .. . ... ... ... : ... .. 2 ... ... ... : ... .. . ... : ... .. . ... : ... .. . ... ... : ... .. . ... ... : ... .. . ... ... : ... .. . ... ...
ROW BB : ... .. . ... ... ... : ... .. . ... ... ... : ... .. . ... : ... .. . ... : ... .. . ... ... : ... .. . ... ... : ... .. . ... ... : ... .. . ... ...
ROW BC : C-4 00 F P80 V02 ... : G-4 00 6 ... ... ... : G-4 00 . ... : ... .. F ... : ... .. . ... ... : ... .. 6 ... ... : ... .. 6 ... ... : C-3 01 5 ... ...
ROW BD : ... .. E ... ... ... : ... .. 5 ... ... ... : ... .. . ... : ... .. C ... : ... .. . ... ... : ... .. 5 ... ... : ... .. 5 ... ... : ... .. 4 ... ...
ROW BE : ... .. D ... ... ... : ... .. . ... ... ... : ... .. . ... : ... .. 6 ... : ... .. . ... ... : ... .. . ... ... : ... .. . ... ... : ... .. 2 ... ...
ROW BF : ... .. A ... ... ... : ... .. . ... ... ... : ... .. . ... : ... .. 3 ... : ... .. . ... ... : ... .. 4 ... ... : ... .. 4 ... ... : ... .. . ... ...
ROW C0 : ... .. . ... ... ... : ... .. 4 ... ... ... : ... .. . ... : ... .. 2 ... : ... .. . ... ... : ... .. . ... ... : ... .. . ... ... : ... .. . ... ...
ROW C1 : ... .. . ... ... ... : ... .. 3 ... ... ... : ... .. . ... : ... .. 0 ... : ... .. . ... ... : ... .. . ... ... : ... .. . ... ... : ... .. . ... ...
ROW C2 : ... .. . ... ... ... : ... .. . ... ... ... : ... .. . ... : ... .. . ... : ... .. . ... ... : ... .. . ... ... : ... .. . ... ... : ... .. . ... ...
ROW C3 : ... .. . ... ... ... : ... .. . ... ... ... : ... .. . ... : ... .. . ... : ... .. . ... ... : ... .. 3 ... ... : ... .. 3 ... ... : ... .. . ... ...
ROW C4 : ... .. . ... ... ... : ... .. 2 ... ... ... : ... .. . ... : ... .. . ... : ... .. . ... ... : ... .. 2 ... ... : ... .. 2 ... ... : ... .. . ... ...
ROW C5 : ... .. . ... ... ... : ... .. . ... ... ... : ... .. . ... : ... .. . ... : ... .. . ... ... : ... .. . ... ... : ... .. . ... ... : ... .. . ... ...
ROW C6 : ... .. . ... ... ... : C-4 00 6 ... ... ... : ... .. . ... : ... .. . ... : ... .. . ... ... : ... .. 1 ... ... : ... .. 1 ... ... : ... .. 3 ... ...
ROW C7 : ... .. . ... ... ... : ... .. 5 ... ... ... : ... .. . ... : ... .. . ... : ... .. . ... ... : ... .. . ... ... : ... .. . ... ... : ... .. . ... ...
ROW C8 : ... .. . ... ... ... : ... .. . ... ... ... : ... .. . ... : ... .. . ... : ... .. . ... ... : ... .. . ... ... : ... .. . ... ... : ... .. . ... ...
ROW C9 : ... .. . ... ... ... : ... .. . ... ... ... : ... .. . ... : ... .. . ... : ... .. . ... ... : ... .. . ... ... : ... .. . ... ... : ... .. . ... ...
ROW CA : ... .. . ... ... ... : ... .. 4 ... ... ... : ... .. . ... : ... .. . ... : ... .. . ... ... : ... .. . ... ... : ... .. . ... ... : ... .. . ... ...
ROW CB : ... .. . ... ... ... : ... .. 3 ... ... ... : --- .. . ... : ... .. . ... : ... .. . ... ... : ... .. . ... ... : ... .. . ... ... : ... .. . ... ...
ROW CC : ... .. . ... ... ... : ... .. . ... ... ... : ... .. . ... : ... .. . ... : ... .. . ... ... : ... .. . ... ... : ... .. . ... ... : ... .. . ... ...
ROW CD : ... .. . ... ... ... : ... .. . ... ... ... : ... .. . ... : ... .. . ... : ... .. . ... ... : ... .. . ... ... : ... .. . ... ... : ... .. . ... ...
ROW CE : ... .. . ... ... ... : ... .. 2 ... ... ... : ... .. . ... : ... .. . ... : ... .. . ... ... : ... .. . ... ... : ... .. . ... ... : ... .. . ... ...
ROW CF : ... .. . ... ... ... : ... .. . ... ... ... : ... .. . ... : ... .. . ... : ... .. . ... ... : ... .. . ... ... : ... .. . ... ... : ... .. . ... ...
ROW D0 : A#4 00 F ... ... ... : E-4 00 6 ... ... ... : C-4 00 . ... : D-# 00 8 ... : ... .. . ... ... : ... .. 6 ... ... : ... .. 6 ... ... : ... .. . ... ...
ROW D1 : ... .. E ... ... ... : ... .. 5 ... ... ... : ... .. . ... : ... .. 7 ... : ... .. . ... ... : ... .. 5 ... ... : ... .. 5 ... ... : ... .. . ... ...
ROW D2 : ... .. D ... ... ... : ... .. . ... ... ... : ... .. . ... : ... .. . ... : ... .. . ... ... : ... .. . ... ... : ... .. . ... ... : ... .. . ... ...
ROW D3 : ... .. A ... ... ... : ... .. . ... ... ... : ... .. . ... : ... .. 6 ... : ... .. . ... ... : ... .. 4 ... ... : ... .. 4 ... ... : ... .. . ... ...
ROW D4 : ... .. . ... ... ... : ... .. 4 ... ... ... : ... .. . ... : ... .. 5 ... : ... .. . ... ... : ... .. . ... ... : ... .. . ... ... : ... .. . ... ...
ROW D5 : ... .. . ... ... ... : ... .. 3 ... ... ... : ... .. . ... : ... .. 4 ... : ... .. . ... ... : ... .. . ... ... : ... .. . ... ... : ... .. . ... ...
ROW D6 : ... .. 2 ... ... ... : ... .. . ... ... ... : ... .. . ... : ... .. . ... : ... .. . ... ... : ... .. . ... ... : ... .. . ... ... : ... .. . ... ...
ROW D7 : ... .. . ... ... ... : ... .. . ... ... ... : ... .. . ... : ... .. . ... : ... .. . ... ... : ... .. 3 ... ... : ... .. 3 ... ... : ... .. . ... ...
ROW D8 : ... .. . ... ... ... : ... .. 2 ... ... ... : ... .. . ... : ... .. 3 ... : ... .. . ... ... : ... .. 2 ... ... : ... .. 2 ... ... : ... .. . ... ...
ROW D9 : ... .. 1 ... ... ... : ... .. . ... ... ... : ... .. . ... : ... .. . ... : ... .. . ... ... : ... .. . ... ... : ... .. . ... ... : ... .. . ... ...
ROW DA : ... .. . ... ... ... : C-4 00 6 ... ... ... : ... .. . ... : ... .. 2 ... : ... .. . ... ... : ... .. 1 ... ... : ... .. 1 ... ... : ... .. . ... ...
ROW DB : ... .. . ... ... ... : ... .. 5 ... ... ... : ... .. . ... : ... .. . ... : ... .. . ... ... : ... .. . ... ... : ... .. . ... ... : ... .. . ... ...
ROW DC : ... .. 0 ... V00 ... : ... .. . ... ... ... : ... .. . ... : ... .. . ... : ... .. . ... ... : ... .. . ... ... : ... .. . ... ... : ... .. . ... ...
ROW DD : ... .. . ... ... ... : ... .. . ... ... ... : ... .. . ... : ... .. 1 ... : ... .. . ... ... : ... .. . ... ... : ... .. . ... ... : ... .. . ... ...
ROW DE : ... .. . ... ... ... : ... .. 4 ... ... ... : ... .. . ... : ... .. . ... : ... .. . ... ... : ... .. . ... ... : ... .. . ... ... : ... .. . ... ...
ROW DF : ... .. . ... ... ... : ... .. 3 ... ... ... : --- .. . ... : ... .. . ... : ... .. . ... ... : ... .. . ... ... : ... .. . ... ... : ... .. . ... ...
ROW E0 : ... .. . ... ... ... : ... .. . ... ... ... : ... .. . ... : ... .. 0 ... : ... .. . ... ... : ... .. . ... ... : ... .. . ... ... : ... .. . ... ...
ROW E1 : ... .. . ... ... ... : ... .. . ... ... ... : ... .. . ... : ... .. . ... : ... .. . ... ... : ... .. . ... ... : ... .. . ... ... : ... .. . ... ...
ROW E2 : ... .. . ... ... ... : ... .. 2 ... ... ... : ... .. . ... : ... .. . ... : ... .. . ... ... : ... .. . ... ... : ... .. . ... ... : ... .. . ... ...
ROW E3 : ... .. . ... ... ... : ... .. . ... ... ... : ... .. . ... : ... .. . ... : ... .. . ... ... : ... .. . ... ... : ... .. . ... ... : ... .. . ... ...
ROW E4 : G#4 00 F P80 V02 ... : A#4 00 6 ... ... ... : C-3 00 . ... : ... .. D ... : ... .. . ... ... : ... .. 6 ... ... : ... .. 6 ... ... : G-3 01 6 ... ...
ROW E5 : A-4 00 E P81 ... ... : ... .. 5 ... ... ... : ... .. . ... : ... .. B ... : ... .. . ... ... : ... .. 5 ... ... : ... .. 5 ... ... : ... .. 5 ... ...
ROW E6 : A#4 00 D P80 ... ... : ... .. . ... ... ... : ... .. . ... : ... .. . ... : ... .. . ... ... : ... .. . ... ... : ... .. . ... ... : ... .. 3 ... ...
ROW E7 : ... .. A ... ... ... : ... .. . ... ... ... : ... .. . ... : ... .. A ... : ... .. . ... ... : ... .. 4 ... ... : ... .. 4 ... ... : ... .. . ... ...
ROW E8 : ... .. . ... ... ... : ... .. 4 ... ... ... : ... .. . ... : ... .. 8 ... : ... .. . ... ... : ... .. . ... ... : ... .. . ... ... : ... .. . ... ...
ROW E9 : ... .. . ... ... ... : ... .. 3 ... ... ... : ... .. . ... : ... .. 7 ... : ... .. . ... ... : ... .. . ... ... : ... .. . ... ... : ... .. . ... ...
ROW EA : ... .. . ... ... ... : ... .. . ... ... ... : ... .. . ... : ... .. 6 ... : ... .. . ... ... : ... .. . ... ... : ... .. . ... ... : ... .. . ... ...
ROW EB : ... .. . ... ... ... : ... .. . ... ... ... : ... .. . ... : ... .. . ... : ... .. . ... ... : ... .. 3 ... ... : ... .. 3 ... ... : ... .. . ... ...
ROW EC : ... .. . ... ... ... : ... .. 2 ... ... ... : ... .. . ... : ... .. 5 ... : ... .. . ... ... : ... .. 2 ... ... : ... .. 2 ... ... : ... .. . ... ...
ROW ED : ... .. . ... ... ... : ... .. . ... ... ... : ... .. . ... : ... .. . ... : ... .. . ... ... : ... .. . ... ... : ... .. . ... ... : ... .. . ... ...
ROW EE : ... .. . ... ... ... : C-4 00 6 ... ... ... : ... .. . ... : ... .. 4 ... : ... .. . ... ... : ... .. 1 ... ... : ... .. 1 ... ... : ... .. . ... ...
ROW EF : ... .. . ... ... ... : ... .. 5 ... ... ... : ... .. . ... : ... .. . ... : ... .. . ... ... : ... .. . ... ... : ... .. . ... ... : ... .. . ... ...
ROW F0 : ... .. . ... ... ... : ... .. . ... ... ... : ... .. . ... : ... .. 3 ... : ... .. . ... ... : ... .. . ... ... : ... .. . ... ... : ... .. . ... ...
ROW F1 : ... .. . ... ... ... : ... .. . ... ... ... : ... .. . ... : ... .. 2 ... : ... .. . ... ... : ... .. . ... ... : ... .. . ... ... : ... .. . ... ...
ROW F2 : ... .. . ... ... ... : ... .. 4 ... ... ... : ... .. . ... : ... .. . ... : ... .. . ... ... : ... .. . ... ... : ... .. . ... ... : ... .. . ... ...
ROW F3 : ... .. . ... ... ... : ... .. 3 ... ... ... : --- .. . ... : ... .. 1 ... : ... .. . ... ... : ... .. . ... ... : ... .. . ... ... : ... .. . ... ...
ROW F4 : ... .. . ... ... ... : ... .. . ... ... ... : ... .. . ... : ... .. 0 ... : ... .. . ... ... : ... .. . ... ... : ... .. . ... ... : ... .. . ... ...
ROW F5 : ... .. . ... ... ... : ... .. . ... ... ... : ... .. . ... : ... .. . ... : ... .. . ... ... : ... .. . ... ... : ... .. . ... ... : ... .. . ... ...
ROW F6 : ... .. . ... ... ... : ... .. 2 ... ... ... : ... .. . ... : ... .. . ... : ... .. . ... ... : ... .. . ... ... : ... .. . ... ... : ... .. . ... ...
ROW F7 : ... .. . ... ... ... : ... .. . ... ... ... : ... .. . ... : ... .. . ... : ... .. . ... ... : ... .. . ... ... : ... .. . ... ... : ... .. . ... ...
ROW F8 : G#4 00 F ... ... ... : E-4 00 6 ... ... ... : E-4 00 . ... : 9-# 00 A ... : ... .. . ... ... : ... .. 6 ... ... : ... .. 6 ... ... : E-3 01 7 ... ...
ROW F9 : ... .. E ... ... ... : ... .. 5 ... ... ... : ... .. . ... : ... .. 8 ... : ... .. . ... ... : ... .. 5 ... ... : ... .. 5 ... ... : ... .. 6 ... ...
ROW FA : ... .. D ... ... ... : ... .. . ... ... ... : ... .. . ... : ... .. 4 ... : ... .. . ... ... : ... .. . ... ... : ... .. . ... ... : ... .. 3 ... ...
ROW FB : ... .. A ... ... ... : ... .. . ... ... ... : ... .. . ... : ... .. 2 ... : ... .. . ... ... : ... .. 4 ... ... : ... .. 4 ... ... : ... .. . ... ...
ROW FC : ... .. . ... ... ... : ... .. 4 ... ... ... : ... .. . ... : ... .. 1 ... : ... .. . ... ... : ... .. . ... ... : ... .. . ... ... : ... .. . ... ...
ROW FD : ... .. . ... ... ... : ... .. 3 ... ... ... : ... .. . ... : ... .. 0 ... : ... .. . ... ... : ... .. . ... ... : ... .. . ... ... : ... .. . ... ...
ROW FE : ... .. . ... ... ... : ... .. . ... ... ... : ... .. . ... : ... .. . ... : ... .. . ... ... : ... .. . ... ... : ... .. . ... ... : ... .. . ... ...
ROW FF : ... .. . ... ... ... : ... .. . ... ... ... : ... .. . ... : ... .. 8 ... : ... .. . ... ... : ... .. 3 ... ... : ... .. 3 ... ... : ... .. . ... ...

PATTERN 03
ROW 00 : ... .. . ... ... ... : ... .. 2 ... ... ... : ... .. . ... : ... .. 6 ... : ... .. . ... ... : ... .. 2 ... ... : ... .. 2 ... ... : ... .. . ... ...
ROW 01 : ... .. . ... ... ... : ... .. . ... ... ... : ... .. . ... : ... .. 3 ... : ... .. . ... ... : ... .. . ... ... : ... .. . ... ... : ... .. . ... ...
ROW 02 : G-4 00 F ... ... ... : A#4 00 6 ... ... ... : ... .. . ... : ... .. 1 ... : ... .. . ... ... : ... .. 1 ... ... : ... .. 1 ... ... : ... .. . ... ...
ROW 03 : ... .. E ... ... ... : ... .. 5 ... ... ... : ... .. . ... : ... .. . ... : ... .. . ... ... : ... .. . ... ... : ... .. . ... ... : ... .. . ... ...
ROW 04 : ... .. D ... ... ... : ... .. . ... ... ... : ... .. . ... : ... .. 0 ... : ... .. . ... ... : ... .. . ... ... : ... .. . ... ... : ... .. . ... ...
ROW 05 : ... .. A ... ... ... : ... .. . ... ... ... : ... .. . ... : ... .. C ... : ... .. . ... ... : ... .. . ... ... : ... .. . ... ... : ... .. . ... ...
ROW 06 : ... .. . ... ... ... : ... .. 4 ... ... ... : ... .. . ... : ... .. 9 ... : ... .. . ... ... : ... .. . ... ... : ... .. . ... ... : ... .. . ... ...
ROW 07 : ... .. . ... ... ... : ... .. 3 ... ... ... : --- .. . ... : ... .. 4 ... : ... .. . ... ... : ... .. . ... ... : ... .. . ... ... : ... .. . ... ...
ROW 08 : ... .. 2 ... ... ... : ... .. . ... ... ... : ... .. . ... : ... .. 2 ... : ... .. . ... ... : ... .. . ... ... : ... .. . ... ... : ... .. . ... ...
ROW 09 : ... .. . ... ... ... : ... .. . ... ... ... : ... .. . ... : ... .. 1 ... : ... .. . ... ... : ... .. . ... ... : ... .. . ... ... : ... .. . ... ...
ROW 0A : ... .. . ... ... ... : ... .. 2 ... ... ... : ... .. . ... : ... .. 0 ... : ... .. . ... ... : ... .. . ... ... : ... .. . ... ... : ... .. . ... ...
ROW 0B : ... .. 1 ... ... ... : ... .. . ... ... ... : ... .. . ... : ... .. . ... : ... .. . ... ... : ... .. . ... ... : ... .. . ... ... : ... .. . ... ...
ROW 0C : G#4 00 F ... ... ... : E-4 00 6 ... ... ... : C-3 00 . ... : ... .. F ... : ... .. . ... ... : ... .. 6 ... ... : G#3 01 6 ... ... : G-3 01 7 ... ...
ROW 0D : ... .. E ... ... ... : ... .. 5 ... ... ... : ... .. . ... : ... .. C ... : ... .. . ... ... : ... .. 5 ... ... : ... .. 5 ... ... : ... .. 6 ... ...
ROW 0E : ... .. D ... ... ... : ... .. . ... ... ... : ... .. . ... : ... .. 6 ... : ... .. . ... ... : ... .. . ... ... : ... .. . ... ... : ... .. 3 ... ...
ROW 0F : ... .. A ... ... ... : ... .. . ... ... ... : ... .. . ... : ... .. 3 ... : ... .. . ... ... : ... .. 4 ... ... : ... .. 4 ... ... : ... .. . ... ...
ROW 10 : ... .. . ... ... ... : ... .. 4 ... ... ... : ... .. . ... : ... .. 2 ... : ... .. . ... ... : ... .. . ... ... : ... .. . ... ... : ... .. . ... ...
ROW 11 : ... .. . ... ... ... : ... .. 3 ... ... ... : ... .. . ... : ... .. 0 ... : ... .. . ... ... : ... .. . ... ... : ... .. . ... ... : ... .. . ... ...
ROW 12 : ... .. 2 ... ... ... : ... .. . ... ... ... : ... .. . ... : ... .. . ... : ... .. . ... ... : ... .. . ... ... : ... .. . ... ... : ... .. . ... ...
ROW 13 : ... .. . ... ... ... : ... .. . ... ... ... : ... .. . ... : ... .. . ... : ... .. . ... ... : ... .. 3 ... ... : ... .. 3 ... ... : ... .. . ... ...
ROW 14 : ... .. . ... ... ... : ... .. 2 ... ... ... : ... .. . ... : ... .. . ... : ... .. . ... ... : ... .. 2 ... ... : ... .. 2 ... ... : ... .. . ... ...
ROW 15 : ... .. 1 ... ... ... : ... .. . ... ... ... : ... .. . ... : ... .. . ... : ... .. . ... ... : ... .. . ... ... : ... .. . ... ... : ... .. . ... ...
ROW 16 : ... .. . ... ... ... : G#3 00 6 ... ... ... : ... .. . ... : ... .. . ... : ... .. . ... ... : ... .. 1 ... ... : ... .. 1 ... ... : ... .. . ... ...
ROW 17 : ... .. . ... ... ... : ... .. 5 ... ... ... : ... .. . ... : ... .. . ... : ... .. . ... ... : ... .. . ... ... : ... .. . ... ... : ... .. . ... ...
ROW 18 : ... .. 0 ... V00 ... : ... .. . ... ... ... : ... .. . ... : ... .. . ... : ... .. . ... ... : ... .. . ... ... : ... .. . ... ... : ... .. . ... ...
ROW 19 : ... .. . ... ... ... : ... .. . ... ... ... : ... .. . ... : ... .. . ... : ... .. . ... ... : ... .. . ... ... : ... .. . ... ... : ... .. . ... ...
ROW 1A : ... .. . ... ... ... : ... .. 4 ... ... ... : ... .. . ... : ... .. . ... : ... .. . ... ... : ... .. . ... ... : ... .. . ... ... : ... .. . ... ...
ROW 1B : ... .. . ... ... ... : ... .. 3 ... ... ... : --- .. . ... : ... .. . ... : ... .. . ... ... : ... .. . ... ... : ... .. . ... ... : ... .. . ... ...
ROW 1C : ... .. . ... ... ... : ... .. . ... ... ... : ... .. . ... : ... .. . ... : ... .. . ... ... : ... .. . ... ... : ... .. . ... ... : ... .. . ... ...
ROW 1D : ... .. . ... ... ... : ... .. . ... ... ... : ... .. . ... : ... .. . ... : ... .. . ... ... : ... .. . ... ... : ... .. . ... ... : ... .. . ... ...
ROW 1E : ... .. . ... ... ... : ... .. 2 ... ... ... : ... .. . ... : ... .. . ... : ... .. . ... ... : ... .. . ... ... : ... .. . ... ... : ... .. . ... ...
ROW 1F : ... .. . ... ... ... : ... .. . ... ... ... : ... .. . ... : ... .. . ... : ... .. . ... ... : ... .. . ... ... : ... .. . ... ... : ... .. . ... ...
ROW 20 : F-4 00 F P80 V02 ... : F-4 00 6 ... ... ... : F-4 00 . ... : ... .. . ... : ... .. . ... ... : ... .. 6 ... ... : ... .. 6 ... ... : F-3 01 8 ... ...
ROW 21 : ... .. E ... ... ... : ... .. 5 ... ... ... : ... .. . ... : ... .. . ... : ... .. . ... ... : ... .. 5 ... ... : ... .. 5 ... ... : ... .. 6 ... ...
ROW 22 : ... .. D ... ... ... : ... .. . ... ... ... : ... .. . ... : ... .. . ... : ... .. . ... ... : ... .. . ... ... : ... .. . ... ... : ... .. 4 ... ...
ROW 23 : ... .. A ... ... ... : ... .. . ... ... ... : ... .. . ... : ... .. . ... : ... .. . ... ... : ... .. 4 ... ... : ... .. 4 ... ... : ... .. . ... ...
ROW 24 : ... .. . ... ... ... : ... .. 4 ... ... ... : ... .. . ... : ... .. . ... : ... .. . ... ... : ... .. . ... ... : ... .. . ... ... : ... .. . ... ...
ROW 25 : ... .. . ... ... ... : ... .. 3 ... ... ... : ... .. . ... : ... .. . ... : ... .. . ... ... : ... .. . ... ... : ... .. . ... ... : ... .. . ... ...
ROW 26 : ... .. . ... ... ... : ... .. . ... ... ... : ... .. . ... : ... .. . ... : ... .. . ... ... : ... .. . ... ... : ... .. . ... ... : ... .. . ... ...
ROW 27 : ... .. . ... ... ... : ... .. . ... ... ... : ... .. . ... : ... .. . ... : ... .. . ... ... : ... .. 3 ... ... : ... .. 3 ... ... : ... .. . ... ...
ROW 28 : ... .. . ... ... ... : ... .. 2 ... ... ... : ... .. . ... : ... .. . ... : ... .. . ... ... : ... .. 2 ... ... : ... .. 2 ... ... : ... .. . ... ...
ROW 29 : ... .. . ... ... ... : ... .. . ... ... ... : ... .. . ... : ... .. . ... : ... .. . ... ... : ... .. . ... ... : ... .. . ... ... : ... .. . ... ...
ROW 2A : ... .. . ... ... ... : G#3 00 6 ... ... ... : ... .. . ... : ... .. . ... : ... .. . ... ... : ... .. 1 ... ... : ... .. 1 ... ... : ... .. . ... ...
ROW 2B : ... .. 2 ... ... ... : ... .. 5 ... ... ... : ... .. . ... : ... .. . ... : ... .. . ... ... : ... .. . ... ... : ... .. . ... ... : ... .. . ... ...
ROW 2C : ... .. . ... ... ... : ... .. . ... ... ... : ... .. . ... : ... .. . ... : ... .. . ... ... : ... .. . ... ... : ... .. . ... ... : ... .. . ... ...
ROW 2D : ... .. . ... ... ... : ... .. . ... ... ... : ... .. . ... : ... .. . ... : ... .. . ... ... : ... .. . ... ... : ... .. . ... ... : ... .. . ... ...
ROW 2E : ... .. 1 ... ... ... : ... .. 4 ... ... ... : ... .. . ... : ... .. . ... : ... .. . ... ... : ... .. . ... ... : ... .. . ... ... : ... .. . ... ...
ROW 2F : ... .. . ... ... ... : ... .. 3 ... ... ... : --- .. . ... : ... .. . ... : ... .. . ... ... : ... .. . ... ... : ... .. . ... ... : ... .. . ... ...
ROW 30 : ... .. . ... ... ... : ... .. . ... ... ... : ... .. . ... : ... .. . ... : ... .. . ... ... : ... .. . ... ... : ... .. . ... ... : ... .. . ... ...
ROW 31 : ... .. 0 ... V00 ... : ... .. . ... ... ... : ... .. . ... : ... .. . ... : ... .. . ... ... : ... .. . ... ... : ... .. . ... ... : ... .. . ... ...
ROW 32 : ... .. . ... ... ... : ... .. 2 ... ... ... : ... .. . ... : ... .. . ... : ... .. . ... ... : ... .. . ... ... : ... .. . ... ... : ... .. . ... ...
ROW 33 : ... .. . ... ... ... : ... .. . ... ... ... : ... .. . ... : ... .. . ... : ... .. . ... ... : ... .. . ... ... : ... .. . ... ... : ... .. . ... ...
ROW 34 : ... .. . ... ... ... : F-4 00 6 ... ... ... : D-3 00 . ... : D-# 00 D V01 : ... .. . ... ... : A#2 01 6 ... ... : ... .. 6 ... ... : A#2 01 8 ... ...
ROW 35 : ... .. . ... ... ... : ... .. 5 ... ... ... : ... .. . ... : ... .. B ... : ... .. . ... ... : ... .. 5 ... ... : ... .. 5 ... ... : ... .. 6 ... ...
ROW 36 : ... .. . ... ... ... : ... .. . ... ... ... : ... .. . ... : ... .. . ... : ... .. . ... ... : ... .. . ... ... : ... .. . ... ... : ... .. 4 ... ...
ROW 37 : ... .. . ... ... ... : ... .. . ... ... ... : ... .. . ... : ... .. A ... : ... .. . ... ... : ... .. 4 ... ... : ... .. 4 ... ... : ... .. . ... ...
ROW 38 : ... .. . ... ... ... : ... .. 4 ... ... ... : ... .. . ... : ... .. 8 ... : ... .. . ... ... : ... .. . ... ... : ... .. . ... ... : ... .. . ... ...
ROW 39 : ... .. . ... ... ... : ... .. 3 ... ... ... : ... .. . ... : ... .. 7 ... : ... .. . ... ... : ... .. . ... ... : ... .. . ... ... : ... .. . ... ...
ROW 3A : ... .. . ... ... ... : ... .. . ... ... ... : ... .. . ... : ... .. 6 ... : ... .. . ... ... : ... .. . ... ... : ... .. . ... ... : ... .. . ... ...
ROW 3B : ... .. . ... ... ... : ... .. . ... ... ... : ... .. . ... : ... .. . ... : ... .. . ... ... : ... .. 3 ... ... : ... .. 3 ... ... : ... .. . ... ...
ROW 3C : ... .. . ... ... ... : ... .. 2 ... ... ... : ... .. . ... : ... .. 5 ... : ... .. . ... ... : ... .. 2 ... ... : ... .. 2 ... ... : ... .. . ... ...
ROW 3D : ... .. . ... ... ... : ... .. . ... ... ... : ... .. . ... : ... .. . ... : ... .. . ... ... : ... .. . ... ... : ... .. . ... ... : ... .. . ... ...
ROW 3E : ... .. . ... ... ... : A#3 00 6 ... ... ... : ... .. . ... : ... .. 4 ... : ... .. . ... ... : ... .. 1 ... ... : ... .. 1 ... ... : ... .. . ... ...
ROW 3F : ... .. . ... ... ... : ... .. 5 ... ... ... : ... .. . ... : ... .. . ... : ... .. . ... ... : ... .. . ... ... : ... .. . ... ... : ... .. . ... ...
ROW 40 : ... .. . ... ... ... : ... .. . ... ... ... : ... .. . ... : ... .. 3 ... : ... .. . ... ... : ... .. . ... ... : ... .. . ... ... : ... .. . ... ...
ROW 41 : ... .. . ... ... ... : ... .. . ... ... ... : ... .. . ... : ... .. 2 ... : ... .. . ... ... : ... .. . ... ... : ... .. . ... ... : ... .. . ... ...
ROW 42 : ... .. . ... ... ... : ... .. 4 ... ... ... : ... .. . ... : ... .. . ... : ... .. . ... ... : ... .. . ... ... : ... .. . ... ... : ... .. . ... ...
ROW 43 : ... .. . ... ... ... : ... .. 3 ... ... ... : --- .. . ... : ... .. 1 ... : ... .. . ... ... : ... .. . ... ... : ... .. . ... ... : ... .. . ... ...
ROW 44 : ... .. . ... ... ... : ... .. . ... ... ... : ... .. . ... : ... .. 0 ... : ... .. . ... ... : ... .. . ... ... : ... .. . ... ... : ... .. . ... ...
ROW 45 : ... .. . ... ... ... : ... .. . ... ... ... : ... .. . ... : ... .. . ... : ... .. . ... ... : ... .. . ... ... : ... .. . ... ... : ... .. . ... ...
ROW 46 : ... .. . ... ... ... : ... .. 2 ... ... ... : ... .. . ... : ... .. . ... : ... .. . ... ... : ... .. . ... ... : ... .. . ... ... : ... .. . ... ...
ROW 47 : ... .. . ... ... ... : ... .. . ... ... ... : ... .. . ... : ... .. . ... : ... .. . ... ... : ... .. . ... ... : ... .. . ... ... : ... .. . ... ...
ROW 48 : A#3 00 F P80 V02 ... : D-4 00 6 ... ... ... : A#3 00 . ... : 9-# 00 A V00 : ... .. . ... ... : ... .. 6 ... ... : ... .. 6 ... ... : ... .. . ... ...
ROW 49 : ... .. E ... ... ... : ... .. 5 ... ... ... : ... .. . ... : ... .. 8 ... : ... .. . ... ... : ... .. 5 ... ... : ... .. 5 ... ... : ... .. . ... ...
ROW 4A : ... .. D ... ... ... : ... .. . ... ... ... : ... .. . ... : ... .. 4 ... : ... .. . ... ... : ... .. . ... ... : ... .. . ... ... : ... .. . ... ...
ROW 4B : ... .. A ... ... ... : ... .. . ... ... ... : ... .. . ... : ... .. 2 ... : ... .. . ... ... : ... .. 4 ... ... : ... .. 4 ... ... : ... .. . ... ...
ROW 4C : ... .. . ... ... ... : ... .. 4 ... ... ... : ... .. . ... : ... .. 1 ... : ... .. . ... ... : ... .. . ... ... : ... .. . ... ... : ... .. . ... ...
ROW 4D : ... .. . ... ... ... : ... .. 3 ... ... ... : ... .. . ... : ... .. 0 ... : ... .. . ... ... : ... .. . ... ... : ... .. . ... ... : ... .. . ... ...
ROW 4E : ... .. 2 ... ... ... : ... .. . ... ... ... : ... .. . ... : ... .. . ... : ... .. . ... ... : ... .. . ... ... : ... .. . ... ... : ... .. . ... ...
ROW 4F : ... .. . ... ... ... : ... .. . ... ... ... : ... .. . ... : ... .. . ... : ... .. . ... ... : ... .. 3 ... ... : ... .. 3 ... ... : ... .. . ... ...
ROW 50 : ... .. . ... ... ... : ... .. 2 ... ... ... : ... .. . ... : ... .. . ... : ... .. . ... ... : ... .. 2 ... ... : ... .. 2 ... ... : ... .. . ... ...
ROW 51 : ... .. 1 ... ... ... : ... .. . ... ... ... : ... .. . ... : ... .. . ... : ... .. . ... ... : ... .. . ... ... : ... .. . ... ... : ... .. . ... ...
ROW 52 : ... .. . ... ... ... : A#3 00 6 ... ... ... : ... .. . ... : ... .. 8 ... : ... .. . ... ... : ... .. 1 ... ... : ... .. 1 ... ... : ... .. . ... ...
ROW 53 : ... .. . ... ... ... : ... .. 5 ... ... ... : ... .. . ... : ... .. 6 ... : ... .. . ... ... : ... .. . ... ... : ... .. . ... ... : ... .. . ... ...
ROW 54 : ... .. 0 ... V00 ... : ... .. . ... ... ... : ... .. . ... : ... .. 3 ... : ... .. . ... ... : ... .. . ... ... : ... .. . ... ... : ... .. . ... ...
ROW 55 : ... .. . ... ... ... : ... .. . ... ... ... : ... .. . ... : ... .. 1 ... : ... .. . ... ... : ... .. . ... ... : ... .. . ... ... : ... .. . ... ...
ROW 56 : ... .. . ... ... ... : ... .. 4 ... ... ... : ... .. . ... : ... .. . ... : ... .. . ... ... : ... .. . ... ... : ... .. . ... ... : ... .. . ... ...
ROW 57 : ... .. . ... ... ... : ... .. 3 ... ... ... : --- .. . ... : ... .. 0 ... : ... .. . ... ... : ... .. . ... ... : ... .. . ... ... : ... .. . ... ...
ROW 58 : ... .. . ... ... ... : ... .. . ... ... ... : ... .. . ... : ... .. . ... : ... .. . ... ... : ... .. . ... ... : ... .. . ... ... : ... .. . ... ...
ROW 59 : ... .. . ... ... ... : ... .. . ... ... ... : ... .. . ... : ... .. . ... : ... .. . ... ... : ... .. . ... ... : ... .. . ... ... : ... .. . ... ...
ROW 5A : ... .. . ... ... ... : ... .. 2 ... ... ... : ... .. . ... : ... .. . ... : ... .. . ... ... : ... .. . ... ... : ... .. . ... ... : ... .. . ... ...
ROW 5B : ... .. . ... ... ... : ... .. . ... ... ... : ... .. . ... : ... .. . ... : ... .. . ... ... : ... .. . ... ... : ... .. . ... ... : ... .. . ... ...
ROW 5C : A#3 00 F P80 V02 ... : F-4 00 6 ... ... ... : A#3 00 . ... : ... .. F ... : ... .. . ... ... : ... .. 6 ... ... : ... .. 6 ... ... : F-2 01 9 ... ...
ROW 5D : ... .. E ... ... ... : ... .. 5 ... ... ... : ... .. . ... : ... .. C ... : ... .. . ... ... : ... .. 5 ... ... : ... .. 5 ... ... : ... .. 7 ... ...
ROW 5E : ... .. D ... ... ... : ... .. . ... ... ... : ... .. . ... : ... .. 6 ... : ... .. . ... ... : ... .. . ... ... : ... .. . ... ... : ... .. 4 ... ...
ROW 5F : ... .. A ... ... ... : ... .. . ... ... ... : ... .. . ... : ... .. 3 ... : ... .. . ... ... : ... .. 4 ... ... : ... .. 4 ... ... : ... .. . ... ...
ROW 60 : ... .. . ... ... ... : ... .. 4 ... ... ... : ... .. . ... : ... .. 2 ... : ... .. . ... ... : ... .. . ... ... : ... .. . ... ... : ... .. . ... ...
ROW 61 : ... .. . ... ... ... : ... .. 3 ... ... ... : ... .. . ... : ... .. 0 ... : ... .. . ... ... : ... .. . ... ... : ... .. . ... ... : ... .. . ... ...
ROW 62 : ... .. . ... ... ... : ... .. . ... ... ... : ... .. . ... : ... .. . ... : ... .. . ... ... : ... .. . ... ... : ... .. . ... ... : ... .. . ... ...
ROW 63 : ... .. . ... ... ... : ... .. . ... ... ... : ... .. . ... : ... .. . ... : ... .. . ... ... : ... .. 3 ... ... : ... .. 3 ... ... : ... .. . ... ...
ROW 64 : ... .. . ... ... ... : ... .. 2 ... ... ... : ... .. . ... : ... .. . ... : ... .. . ... ... : ... .. 2 ... ... : ... .. 2 ... ... : ... .. . ... ...
ROW 65 : ... .. . ... ... ... : ... .. . ... ... ... : ... .. . ... : ... .. . ... : ... .. . ... ... : ... .. . ... ... : ... .. . ... ... : ... .. . ... ...
ROW 66 : ... .. . ... ... ... : A#3 00 6 ... ... ... : ... .. . ... : ... .. . ... : ... .. . ... ... : ... .. 1 ... ... : ... .. 1 ... ... : ... .. . ... ...
ROW 67 : ... .. . ... ... ... : ... .. 5 ... ... ... : ... .. . ... : ... .. . ... : ... .. . ... ... : ... .. . ... ... : ... .. . ... ... : ... .. . ... ...
ROW 68 : ... .. . ... ... ... : ... .. . ... ... ... : ... .. . ... : ... .. . ... : ... .. . ... ... : ... .. . ... ... : ... .. . ... ... : ... .. . ... ...
ROW 69 : ... .. . ... ... ... : ... .. . ... ... ... : ... .. . ... : ... .. . ... : ... .. . ... ... : ... .. . ... ... : ... .. . ... ... : ... .. . ... ...
ROW 6A : ... .. . ... ... ... : ... .. 4 ... ... ... : ... .. . ... : ... .. . ... : ... .. . ... ... : ... .. . ... ... : ... .. . ... ... : ... .. . ... ...
ROW 6B : ... .. . ... ... ... : ... .. 3 ... ... ... : --- .. . ... : ... .. . ... : ... .. . ... ... : ... .. . ... ... : ... .. . ... ... : ... .. . ... ...
ROW 6C : ... .. . ... ... ... : ... .. . ... ... ... : ... .. . ... : ... .. . ... : ... .. . ... ... : ... .. . ... ... : ... .. . ... ... : ... .. . ... ...
ROW 6D : ... .. . ... ... ... : ... .. . ... ... ... : ... .. . ... : ... .. . ... : ... .. . ... ... : ... .. . ... ... : ... .. . ... ... : ... .. . ... ...
ROW 6E : ... .. . ... ... ... : ... .. 2 ... ... ... : ... .. . ... : ... .. . ... : ... .. . ... ... : ... .. . ... ... : ... .. . ... ... : ... .. . ... ...
ROW 6F : ... .. . ... ... ... : ... .. . ... ... ... : ... .. . ... : ... .. . ... : ... .. . ... ... : ... .. . ... ... : ... .. . ... ... : ... .. . ... ...
ROW 70 : G#4 00 F ... ... ... : D-4 00 6 ... ... ... : F-3 00 . ... : D-# 00 F ... : ... .. . ... ... : ... .. 6 ... ... : ... .. 6 ... ... : ... .. . ... ...
ROW 71 : ... .. E ... ... ... : ... .. 5 ... ... ... : ... .. . ... : ... .. C ... : ... .. . ... ... : ... .. 5 ... ... : ... .. 5 ... ... : ... .. . ... ...
ROW 72 : ... .. D ... ... ... : ... .. . ... ... ... : ... .. . ... : ... .. 6 ... : ... .. . ... ... : ... .. . ... ... : ... .. . ... ... : ... .. . ... ...
ROW 73 : ... .. A ... ... ... : ... .. . ... ... ... : ... .. . ... : ... .. 3 ... : ... .. . ... ... : ... .. 4 ... ... : ... .. 4 ... ... : ... .. . ... ...
ROW 74 : ... .. . ... ... ... : ... .. 4 ... ... ... : ... .. . ... : ... .. 2 ... : ... .. . ... ... : ... .. . ... ... : ... .. . ... ... : ... .. . ... ...
ROW 75 : ... .. . ... ... ... : ... .. 3 ... ... ... : ... .. . ... : ... .. 0 ... : ... .. . ... ... : ... .. . ... ... : ... .. . ... ... : ... .. . ... ...
ROW 76 : ... .. 2 ... ... ... : ... .. . ... ... ... : ... .. . ... : ... .. . ... : ... .. . ... ... : ... .. . ... ... : ... .. . ... ... : ... .. . ... ...
ROW 77 : ... .. . ... ... ... : ... .. . ... ... ... : ... .. . ... : ... .. . ... : ... .. . ... ... : ... .. 3 ... ... : ... .. 3 ... ... : ... .. . ... ...
ROW 78 : ... .. . ... ... ... : ... .. 2 ... ... ... : ... .. . ... : ... .. . ... : ... .. . ... ... : ... .. 2 ... ... : ... .. 2 ... ... : ... .. . ... ...
ROW 79 : ... .. 1 ... ... ... : ... .. . ... ... ... : ... .. . ... : ... .. . ... : ... .. . ... ... : ... .. . ... ... : ... .. . ... ... : ... .. . ... ...
ROW 7A : ... .. . ... ... ... : A#3 00 6 ... ... ... : ... .. . ... : ... .. . ... : ... .. . ... ... : ... .. 1 ... ... : ... .. 1 ... ... : ... .. 5 ... ...
ROW 7B : ... .. . ... ... ... : ... .. 5 ... ... ... : ... .. . ... : ... .. . ... : ... .. . ... ... : ... .. . ... ... : ... .. . ... ... : ... .. . ... ...
ROW 7C : ... .. 0 ... V00 ... : ... .. . ... ... ... : ... .. . ... : ... .. . ... : ... .. . ... ... : ... .. . ... ... : ... .. . ... ... : ... .. . ... ...
ROW 7D : ... .. . ... ... ... : ... .. . ... ... ... : ... .. . ... : ... .. . ... : ... .. . ... ... : ... .. . ... ... : ... .. . ... ... : ... .. . ... ...
ROW 7E : ... .. . ... ... ... : ... .. 4 ... ... ... : ... .. . ... : ... .. . ... : ... .. . ... ... : ... .. . ... ... : ... .. . ... ... : ... .. . ... ...
ROW 7F : ... .. . ... ... ... : ... .. 3 ... ... ... : --- .. . ... : ... .. . ... : ... .. . ... ... : ... .. . ... ... : ... .. . ... ... : ... .. . ... ...
ROW 80 : ... .. . ... ... ... : ... .. . ... ... ... : ... .. . ... : ... .. . ... : ... .. . ... ... : ... .. . ... ... : ... .. . ... ... : ... .. . ... ...
ROW 81 : ... .. . ... ... ... : ... .. . ... ... ... : ... .. . ... : ... .. . ... : ... .. . ... ... : ... .. . ... ... : ... .. . ... ... : ... .. . ... ...
ROW 82 : ... .. . ... ... ... : ... .. 2 ... ... ... : ... .. . ... : ... .. . ... : ... .. . ... ... : ... .. . ... ... : ... .. . ... ... : ... .. . ... ...
ROW 83 : ... .. . ... ... ... : ... .. . ... ... ... : ... .. . ... : ... .. . ... : ... .. . ... ... : ... .. . ... ... : ... .. . ... ... : ... .. . ... ...
ROW 84 : G#4 00 F P80 V02 ... : G#4 00 6 ... ... ... : D-3 00 . ... : ... .. D ... : ... .. . ... ... : ... .. 6 ... ... : ... .. 6 ... ... : D-3 01 A ... ...
ROW 85 : ... .. E ... ... ... : ... .. 5 ... ... ... : ... .. . ... : ... .. B ... : ... .. . ... ... : ... .. 5 ... ... : ... .. 5 ... ... : ... .. 8 ... ...
ROW 86 : ... .. D ... ... ... : ... .. . ... ... ... : ... .. . ... : ... .. . ... : ... .. . ... ... : ... .. . ... ... : ... .. . ... ... : ... .. 5 ... ...
ROW 87 : ... .. A ... ... ... : ... .. . ... ... ... : ... .. . ... : ... .. A ... : ... .. . ... ... : ... .. 4 ... ... : ... .. 4 ... ... : ... .. . ... ...
ROW 88 : ... .. . ... ... ... : ... .. 4 ... ... ... : ... .. . ... : ... .. 8 ... : ... .. . ... ... : ... .. . ... ... : ... .. . ... ... : ... .. . ... ...
ROW 89 : ... .. . ... ... ... : ... .. 3 ... ... ... : ... .. . ... : ... .. 7 ... : ... .. . ... ... : ... .. . ... ... : ... .. . ... ... : ... .. . ... ...
ROW 8A : ... .. . ... ... ... : ... .. . ... ... ... : ... .. . ... : ... .. 6 ... : ... .. . ... ... : ... .. . ... ... : ... .. . ... ... : ... .. . ... ...
ROW 8B : ... .. . ... ... ... : ... .. . ... ... ... : ... .. . ... : ... .. . ... : ... .. . ... ... : ... .. 3 ... ... : ... .. 3 ... ... : ... .. . ... ...
ROW 8C : ... .. . ... ... ... : ... .. 2 ... ... ... : ... .. . ... : ... .. 5 ... : ... .. . ... ... : ... .. 2 ... ... : ... .. 2 ... ... : ... .. . ... ...
ROW 8D : ... .. . ... ... ... : ... .. . ... ... ... : ... .. . ... : ... .. . ... : ... .. . ... ... : ... .. . ... ... : ... .. . ... ... : ... .. . ... ...
ROW 8E : ... .. . P81 ... ... : A#3 00 6 ... ... ... : ... .. . ... : ... .. 4 ... : ... .. . ... ... : ... .. 1 ... ... : ... .. 1 ... ... : ... .. . ... ...
ROW 8F : ... .. . P82 ... ... : ... .. 5 ... ... ... : ... .. . ... : ... .. . ... : ... .. . ... ... : ... .. . ... ... : ... .. . ... ... : ... .. . ... ...
ROW 90 : ... .. . ... ... ... : ... .. . ... ... ... : ... .. . ... : ... .. 3 ... : ... .. . ... ... : ... .. . ... ... : ... .. . ... ... : ... .. . ... ...
ROW 91 : ... .. . P80 ... ... : ... .. . ... ... ... : ... .. . ... : ... .. 2 ... : ... .. . ... ... : ... .. . ... ... : ... .. . ... ... : ... .. . ... ...
ROW 92 : ... .. . ... ... ... : ... .. 4 ... ... ... : ... .. . ... : ... .. . ... : ... .. . ... ... : ... .. . ... ... : ... .. . ... ... : ... .. . ... ...
ROW 93 : ... .. . P7E ... ... : ... .. 3 ... ... ... : --- .. . ... : ... .. 1 ... : ... .. . ... ... : ... .. . ... ... : ... .. . ... ... : ... .. . ... ...
ROW 94 : ... .. . ... ... ... : ... .. . ... ... ... : ... .. . ... : ... .. 0 ... : ... .. . ... ... : ... .. . ... ... : ... .. . ... ... : ... .. . ... ...
ROW 95 : ... .. . P7F ... ... : ... .. . ... ... ... : ... .. . ... : ... .. . ... : ... .. . ... ... : ... .. . ... ... : ... .. . ... ... : ... .. . ... ...
ROW 96 : ... .. . P80 ... ... : ... .. 2 ... ... ... : ... .. . ... : ... .. . ... : ... .. . ... ... : ... .. . ... ... : ... .. . ... ... : ... .. . ... ...
ROW 97 : ... .. . P81 ... ... : ... .. . ... ... ... : ... .. . ... : ... .. . ... : ... .. . ... ... : ... .. . ... ... : ... .. . ... ... : ... .. . ... ...
ROW 98 : G-4 00 F P80 ... ... : D-4 00 6 ... ... ... : D-4 00 . ... : 9-# 00 A ... : ... .. . ... ... : ... .. 6 ... ... : ... .. 6 ... ... : A#2 01 A ... ...
ROW 99 : ... .. E ... ... ... : ... .. 5 ... ... ... : ... .. . ... : ... .. 8 ... : ... .. . ... ... : ... .. 5 ... ... : ... .. 5 ... ... : ... .. 8 ... ...
ROW 9A : ... .. D ... ... ... : ... .. . ... ... ... : ... .. . ... : ... .. 4 ... : ... .. . ... ... : ... .. . ... ... : ... .. . ... ... : ... .. 5 ... ...
ROW 9B : ... .. A ... ... ... : ... .. . ... ... ... : ... .. . ... : ... .. 2 ... : ... .. . ... ... : ... .. 4 ... ... : ... .. 4 ... ... : ... .. . ... ...
ROW 9C : ... .. . ... ... ... : ... .. 4 ... ... ... : ... .. . ... : ... .. 1 ... : ... .. . ... ... : ... .. . ... ... : ... .. . ... ... : ... .. . ... ...
ROW 9D : ... .. . ... ... ... : ... .. 3 ... ... ... : ... .. . ... : ... .. 0 ... : ... .. . ... ... : ... .. . ... ... : ... .. . ... ... : ... .. . ... ...
ROW 9E : ... .. . ... ... ... : ... .. . ... ... ... : ... .. . ... : ... .. . ... : ... .. . ... ... : ... .. . ... ... : ... .. . ... ... : ... .. . ... ...
ROW 9F : ... .. . ... ... ... : ... .. . ... ... ... : ... .. . ... : ... .. . ... : ... .. . ... ... : ... .. 3 ... ... : ... .. 3 ... ... : ... .. . ... ...
ROW A0 : ... .. . ... ... ... : ... .. 2 ... ... ... : ... .. . ... : ... .. . ... : ... .. . ... ... : ... .. 2 ... ... : ... .. 2 ... ... : ... .. . ... ...
ROW A1 : ... .. . ... ... ... : ... .. . ... ... ... : ... .. . ... : ... .. . ... : ... .. . ... ... : ... .. . ... ... : ... .. . ... ... : ... .. . ... ...
ROW A2 : F-4 00 F ... ... ... : G#4 00 6 ... ... ... : ... .. . ... : ... .. 8 ... : ... .. . ... ... : ... .. 1 ... ... : ... .. 1 ... ... : ... .. . ... ...
ROW A3 : ... .. E ... ... ... : ... .. 5 ... ... ... : ... .. . ... : ... .. 6 ... : ... .. . ... ... : ... .. . ... ... : ... .. . ... ... : ... .. . ... ...
ROW A4 : ... .. D ... ... ... : ... .. . ... ... ... : ... .. . ... : ... .. 3 ... : ... .. . ... ... : ... .. . ... ... : ... .. . ... ... : ... .. . ... ...
ROW A5 : ... .. A ... ... ... : ... .. . ... ... ... : ... .. . ... : ... .. 1 ... : ... .. . ... ... : ... .. . ... ... : ... .. . ... ... : ... .. . ... ...
ROW A6 : ... .. . ... ... ... : ... .. 4 ... ... ... : ... .. . ... : ... .. . ... : ... .. . ... ... : ... .. . ... ... : ... .. . ... ... : ... .. . ... ...
ROW A7 : ... .. . ... ... ... : ... .. 3 ... ... ... : --- .. . ... : ... .. 0 ... : ... .. . ... ... : ... .. . ... ... : ... .. . ... ... : ... .. . ... ...
ROW A8 : ... .. 2 ... ... ... : ... .. . ... ... ... : ... .. . ... : ... .. . ... : ... .. . ... ... : ... .. . ... ... : ... .. . ... ... : ... .. . ... ...
ROW A9 : ... .. . ... ... ... : ... .. . ... ... ... : ... .. . ... : ... .. . ... : ... .. . ... ... : ... .. . ... ... : ... .. . ... ... : ... .. . ... ...
ROW AA : ... .. . ... ... ... : ... .. 2 ... ... ... : ... .. . ... : ... .. . ... : ... .. . ... ... : ... .. . ... ... : ... .. . ... ... : ... .. . ... ...
ROW AB : ... .. 1 ... ... ... : ... .. . ... ... ... : ... .. . ... : ... .. . ... : ... .. . ... ... : ... .. . ... ... : ... .. . ... ... : ... .. . ... ...
ROW AC : G-4 00 F ... ... ... : D-4 00 6 ... ... ... : D#3 00 . ... : ... .. F ... : ... .. . ... ... : ... .. 6 ... ... : G-3 01 6 ... ... : F-3 01 B ... ...
ROW AD : ... .. E ... ... ... : ... .. 5 ... ... ... : ... .. . ... : ... .. C ... : ... .. . ... ... : ... .. 5 ... ... : ... .. 5 ... ... : ... .. 9 ... ...
ROW AE : ... .. D ... ... ... : ... .. . ... ... ... : ... .. . ... : ... .. 6 ... : ... .. . ... ... : ... .. . ... ... : ... .. . ... ... : ... .. 5 ... ...
ROW AF : ... .. A ... ... ... : ... .. . ... ... ... : ... .. . ... : ... .. 3 ... : ... .. . ... ... : ... .. 4 ... ... : ... .. 4 ... ... : ... .. . ... ...
ROW B0 : ... .. . ... ... ... : ... .. 4 ... ... ... : ... .. . ... : ... .. 2 ... : ... .. . ... ... : ... .. . ... ... : ... .. . ... ... : ... .. . ... ...
ROW B1 : ... .. . ... ... ... : ... .. 3 ... ... ... : ... .. . ... : ... .. 0 ... : ... .. . ... ... : ... .. . ... ... : ... .. . ... ... : ... .. . ... ...
ROW B2 : ... .. . ... ... ... : ... .. . ... ... ... : ... .. . ... : ... .. . ... : ... .. . ... ... : ... .. . ... ... : ... .. . ... ... : ... .. . ... ...
ROW B3 : ... .. . ... ... ... : ... .. . ... ... ... : ... .. . ... : ... .. . ... : ... .. . ... ... : ... .. 3 ... ... : ... .. 3 ... ... : ... .. . ... ...
ROW B4 : ... .. . ... ... ... : ... .. 2 ... ... ... : ... .. . ... : ... .. . ... : ... .. . ... ... : ... .. 2 ... ... : ... .. 2 ... ... : ... .. . ... ...
ROW B5 : ... .. . ... ... ... : ... .. . ... ... ... : ... .. . ... : ... .. . ... : ... .. . ... ... : ... .. . ... ... : ... .. . ... ... : ... .. . ... ...
ROW B6 : ... .. . ... ... ... : G-3 00 6 ... ... ... : ... .. . ... : ... .. . ... : ... .. . ... ... : ... .. 1 ... ... : ... .. 1 ... ... : ... .. . ... ...
ROW B7 : ... .. . ... ... ... : ... .. 5 ... ... ... : ... .. . ... : ... .. . ... : ... .. . ... ... : ... .. . ... ... : ... .. . ... ... : ... .. . ... ...
ROW B8 : ... .. . ... ... ... : ... .. . ... ... ... : ... .. . ... : ... .. . ... : ... .. . ... ... : ... .. . ... ... : ... .. . ... ... : ... .. . ... ...
ROW B9 : ... .. . ... ... ... : ... .. . ... ... ... : ... .. . ... : ... .. . ... : ... .. . ... ... : ... .. . ... ... : ... .. . ... ... : ... .. . ... ...
ROW BA : ... .. . ... ... ... : ... .. 4 ... ... ... : ... .. . ... : ... .. . ... : ... .. . ... ... : ... .. . ... ... : ... .. . ... ... : ... .. . ... ...
ROW BB : ... .. . ... ... ... : ... .. 3 ... ... ... : --- .. . ... : ... .. . ... : ... .. . ... ... : ... .. . ... ... : ... .. . ... ... : ... .. . ... ...
ROW BC : ... .. . ... ... ... : ... .. . ... ... ... : ... .. . ... : ... .. . ... : ... .. . ... ... : ... .. . ... ... : ... .. . ... ... : ... .. . ... ...
ROW BD : ... .. . ... ... ... : ... .. . ... ... ... : ... .. . ... : ... .. . ... : ... .. . ... ... : ... .. . ... ... : ... .. . ... ... : ... .. . ... ...
ROW BE : ... .. . ... ... ... : ... .. 2 ... ... ... : ... .. . ... : ... .. . ... : ... .. . ... ... : ... .. . ... ... : ... .. . ... ... : ... .. . ... ...
ROW BF : ... .. . ... ... ... : ... .. . ... ... ... : ... .. . ... : ... .. . ... : ... .. . ... ... : ... .. . ... ... : ... .. . ... ... : ... .. . ... ...
ROW C0 : ... .. . P81 ... ... : D#4 00 6 ... ... ... : D#4 00 . ... : ... .. . ... : ... .. . ... ... : ... .. 6 ... ... : ... .. 6 ... ... : D#3 01 B ... ...
ROW C1 : ... .. . P82 ... ... : ... .. 5 ... ... ... : ... .. . ... : ... .. . ... : ... .. . ... ... : ... .. 5 ... ... : ... .. 5 ... ... : ... .. 9 ... ...
ROW C2 : ... .. . ... ... ... : ... .. . ... ... ... : ... .. . ... : ... .. . ... : ... .. . ... ... : ... .. . ... ... : ... .. . ... ... : ... .. 5 ... ...
ROW C3 : ... .. . P80 ... ... : ... .. . ... ... ... : ... .. . ... : ... .. . ... : ... .. . ... ... : ... .. 4 ... ... : ... .. 4 ... ... : ... .. . ... ...
ROW C4 : ... .. . ... ... ... : ... .. 4 ... ... ... : ... .. . ... : ... .. . ... : ... .. . ... ... : ... .. . ... ... : ... .. . ... ... : ... .. . ... ...
ROW C5 : ... .. . P7E ... ... : ... .. 3 ... ... ... : ... .. . ... : ... .. . ... : ... .. . ... ... : ... .. . ... ... : ... .. . ... ... : ... .. . ... ...
ROW C6 : ... .. . ... ... ... : ... .. . ... ... ... : ... .. . ... : ... .. . ... : ... .. . ... ... : ... .. . ... ... : ... .. . ... ... : ... .. . ... ...
ROW C7 : ... .. . P7F ... ... : ... .. . ... ... ... : ... .. . ... : ... .. . ... : ... .. . ... ... : ... .. 3 ... ... : ... .. 3 ... ... : ... .. . ... ...
ROW C8 : ... .. . P80 ... ... : ... .. 2 ... ... ... : ... .. . ... : ... .. . ... : ... .. . ... ... : ... .. 2 ... ... : ... .. 2 ... ... : ... .. . ... ...
ROW C9 : ... .. . P81 ... ... : ... .. . ... ... ... : ... .. . ... : ... .. . ... : ... .. . ... ... : ... .. . ... ... : ... .. . ... ... : ... .. . ... ...
ROW CA : ... .. . P82 ... ... : D-4 00 6 ... ... ... : ... .. . ... : ... .. . ... : ... .. . ... ... : ... .. 1 ... ... : ... .. 1 ... ... : ... .. . ... ...
ROW CB : ... .. . ... ... ... : ... .. 5 ... ... ... : ... .. . ... : ... .. . ... : ... .. . ... ... : ... .. . ... ... : ... .. . ... ... : ... .. . ... ...
ROW CC : ... .. . P80 ... ... : ... .. . ... ... ... : ... .. . ... : ... .. . ... : ... .. . ... ... : ... .. . ... ... : ... .. . ... ... : ... .. . ... ...
ROW CD : ... .. . ... ... ... : ... .. . ... ... ... : ... .. . ... : ... .. . ... : ... .. . ... ... : ... .. . ... ... : ... .. . ... ... : ... .. . ... ...
ROW CE : ... .. . P7F ... ... : ... .. 4 ... ... ... : ... .. . ... : ... .. . ... : ... .. . ... ... : ... .. . ... ... : ... .. . ... ... : ... .. . ... ...
ROW CF : ... .. . P7E ... ... : ... .. 3 ... ... ... : --- .. . ... : ... .. . ... : ... .. . ... ... : ... .. . ... ... : ... .. . ... ... : ... .. . ... ...
ROW D0 : ... .. . P7F ... ... : ... .. . ... ... ... : ... .. . ... : ... .. . ... : ... .. . ... ... : ... .. . ... ... : ... .. . ... ... : ... .. . ... ...
ROW D1 : ... .. . P80 ... ... : ... .. . ... ... ... : ... .. . ... : ... .. . ... : ... .. . ... ... : ... .. . ... ... : ... .. . ... ... : ... .. . ... ...
ROW D2 : ... .. . P81 ... ... : ... .. 2 ... ... ... : ... .. . ... : ... .. . ... : ... .. . ... ... : ... .. . ... ... : ... .. . ... ... : ... .. . ... ...
ROW D3 : ... .. . P82 ... ... : ... .. . ... ... ... : ... .. . ... : ... .. . ... : ... .. . ... ... : ... .. . ... ... : ... .. . ... ... : ... .. . ... ...
ROW D4 : ... .. . ... ... ... : C-4 00 6 ... ... ... : C-3 00 . ... : D-# 00 D V01 : ... .. . ... ... : C-3 01 6 ... ... : ... .. 6 ... ... : G#2 01 C ... ...
ROW D5 : ... .. 2 P81 ... ... : ... .. 5 ... ... ... : ... .. . ... : ... .. B ... : ... .. . ... ... : ... .. 5 ... ... : ... .. 5 ... ... : ... .. A ... ...
ROW D6 : ... .. . P80 ... ... : ... .. . ... ... ... : ... .. . ... : ... .. . ... : ... .. . ... ... : ... .. . ... ... : ... .. . ... ... : ... .. 6 ... ...
ROW D7 : ... .. . P7F ... ... : ... .. . ... ... ... : ... .. . ... : ... .. A ... : ... .. . ... ... : ... .. 4 ... ... : ... .. 4 ... ... : ... .. . ... ...
ROW D8 : ... .. 1 P7E ... ... : ... .. 4 ... ... ... : ... .. . ... : ... .. 8 ... : ... .. . ... ... : ... .. . ... ... : ... .. . ... ... : ... .. . ... ...
ROW D9 : ... .. . P7F ... ... : ... .. 3 ... ... ... : ... .. . ... : ... .. 7 ... : ... .. . ... ... : ... .. . ... ... : ... .. . ... ... : ... .. 5 ... ...
ROW DA : ... .. . P80 ... ... : ... .. . ... ... ... : ... .. . ... : ... .. 6 ... : ... .. . ... ... : ... .. . ... ... : ... .. . ... ... : ... .. . ... ...
ROW DB : ... .. 0 ... V00 ... : ... .. . ... ... ... : ... .. . ... : ... .. . ... : ... .. . ... ... : ... .. 3 ... ... : ... .. 3 ... ... : ... .. . ... ...
ROW DC : ... .. . ... ... ... : ... .. 2 ... ... ... : ... .. . ... : ... .. 5 ... : ... .. . ... ... : ... .. 2 ... ... : ... .. 2 ... ... : ... .. . ... ...
ROW DD : ... .. . ... ... ... : ... .. . ... ... ... : ... .. . ... : ... .. . ... : ... .. . ... ... : ... .. . ... ... : ... .. . ... ... : ... .. . ... ...
ROW DE : ... .. . ... ... ... : D#3 00 6 ... ... ... : ... .. . ... : ... .. 4 ... : ... .. . ... ... : ... .. 1 ... ... : ... .. 1 ... ... : ... .. . ... ...
ROW DF : ... .. . ... ... ... : ... .. 5 ... ... ... : ... .. . ... : ... .. . ... : ... .. . ... ... : ... .. . ... ... : ... .. . ... ... : ... .. . ... ...
ROW E0 : ... .. . ... ... ... : ... .. . ... ... ... : ... .. . ... : ... .. 3 ... : ... .. . ... ... : ... .. . ... ... : ... .. . ... ... : ... .. . ... ...
ROW E1 : ... .. . ... ... ... : ... .. . ... ... ... : ... .. . ... : ... .. 2 ... : ... .. . ... ... : ... .. . ... ... : ... .. . ... ... : ... .. . ... ...
ROW E2 : ... .. . ... ... ... : ... .. 4 ... ... ... : ... .. . ... : ... .. . ... : ... .. . ... ... : ... .. . ... ... : ... .. . ... ... : ... .. . ... ...
ROW E3 : ... .. . ... ... ... : ... .. 3 ... ... ... : --- .. . ... : ... .. 1 ... : ... .. . ... ... : ... .. . ... ... : ... .. . ... ... : ... .. . ... ...
ROW E4 : ... .. . ... ... ... : ... .. . ... ... ... : ... .. . ... : ... .. 0 ... : ... .. . ... ... : ... .. . ... ... : ... .. . ... ... : ... .. . ... ...
ROW E5 : ... .. . ... ... ... : ... .. . ... ... ... : ... .. . ... : ... .. . ... : ... .. . ... ... : ... .. . ... ... : ... .. . ... ... : ... .. . ... ...
ROW E6 : ... .. . ... ... ... : ... .. 2 ... ... ... : ... .. . ... : ... .. . ... : ... .. . ... ... : ... .. . ... ... : ... .. . ... ... : ... .. . ... ...
ROW E7 : ... .. . ... ... ... : ... .. . ... ... ... : ... .. . ... : ... .. . ... : ... .. . ... ... : ... .. . ... ... : ... .. . ... ... : ... .. . ... ...
ROW E8 : G#3 00 F P80 V02 ... : G#3 00 6 ... ... ... : C-4 00 . ... : 9-# 00 A V00 : ... .. . ... ... : ... .. 6 ... ... : ... .. 6 ... ... : ... .. . ... ...
ROW E9 : ... .. E ... ... ... : ... .. 5 ... ... ... : ... .. . ... : ... .. 8 ... : ... .. . ... ... : ... .. 5 ... ... : ... .. 5 ... ... : ... .. . ... ...
ROW EA : ... .. D ... ... ... : ... .. . ... ... ... : ... .. . ... : ... .. 4 ... : ... .. . ... ... : ... .. . ... ... : ... .. . ... ... : ... .. . ... ...
ROW EB : ... .. A ... ... ... : ... .. . ... ... ... : ... .. . ... : ... .. 2 ... : ... .. . ... ... : ... .. 4 ... ... : ... .. 4 ... ... : ... .. . ... ...
ROW EC : ... .. . ... ... ... : ... .. 4 ... ... ... : ... .. . ... : ... .. 1 ... : ... .. . ... ... : ... .. . ... ... : ... .. . ... ... : ... .. . ... ...
ROW ED : ... .. . ... ... ... : ... .. 3 ... ... ... : ... .. . ... : ... .. 0 ... : ... .. . ... ... : ... .. . ... ... : ... .. . ... ... : ... .. . ... ...
ROW EE : ... .. 2 ... ... ... : ... .. . ... ... ... : ... .. . ... : ... .. . ... : ... .. . ... ... : ... .. . ... ... : ... .. . ... ... : ... .. . ... ...
ROW EF : ... .. . ... ... ... : ... .. . ... ... ... : ... .. . ... : ... .. . ... : ... .. . ... ... : ... .. 3 ... ... : ... .. 3 ... ... : ... .. . ... ...
ROW F0 : ... .. . ... ... ... : ... .. 2 ... ... ... : ... .. . ... : ... .. . ... : ... .. . ... ... : ... .. 2 ... ... : ... .. 2 ... ... : ... .. . ... ...
ROW F1 : ... .. 1 ... ... ... : ... .. . ... ... ... : ... .. . ... : ... .. . ... : ... .. . ... ... : ... .. . ... ... : ... .. . ... ... : ... .. . ... ...
ROW F2 : ... .. . ... ... ... : D#3 00 6 ... ... ... : ... .. . ... : ... .. 8 ... : ... .. . ... ... : ... .. 1 ... ... : ... .. 1 ... ... : ... .. . ... ...
ROW F3 : ... .. . ... ... ... : ... .. 5 ... ... ... : ... .. . ... : ... .. 6 ... : ... .. . ... ... : ... .. . ... ... : ... .. . ... ... : ... .. . ... ...
ROW F4 : ... .. 0 ... V00 ... : ... .. . ... ... ... : ... .. . ... : ... .. 3 ... : ... .. . ... ... : ... .. . ... ... : ... .. . ... ... : ... .. . ... ...
ROW F5 : ... .. . ... ... ... : ... .. . ... ... ... : ... .. . ... : ... .. 1 ... : ... .. . ... ... : ... .. . ... ... : ... .. . ... ... : ... .. . ... ...
ROW F6 : ... .. . ... ... ... : ... .. 4 ... ... ... : ... .. . ... : ... .. . ... : ... .. . ... ... : ... .. . ... ... : ... .. . ... ... : ... .. . ... ...
ROW F7 : ... .. . ... ... ... : ... .. 3 ... ... ... : --- .. . ... : ... .. 0 ... : ... .. . ... ... : ... .. . ... ... : ... .. . ... ... : ... .. . ... ...
ROW F8 : ... .. . ... ... ... : ... .. . ... ... ... : ... .. . ... : ... .. . ... : ... .. . ... ... : ... .. . ... ... : ... .. . ... ... : ... .. . ... ...
ROW F9 : ... .. . ... ... ... : ... .. . ... ... ... : ... .. . ... : ... .. . ... : ... .. . ... ... : ... .. . ... ... : ... .. . ... ... : ... .. . ... ...
ROW FA : ... .. . ... ... ... : ... .. 2 ... ... ... : ... .. . ... : ... .. . ... : ... .. . ... ... : ... .. . ... ... : ... .. . ... ... : ... .. . ... ...
ROW FB : ... .. . ... ... ... : ... .. . ... ... ... : ... .. . ... : ... .. . ... : ... .. . ... ... : ... .. . ... ... : ... .. . ... ... : ... .. . ... ...
ROW FC : G#3 00 F P80 V02 ... : C-4 00 6 ... ... ... : C-4 00 . ... : ... .. F ... : ... .. . ... ... : ... .. 6 ... ... : ... .. 6 ... ... : D#2 01 B ... ...
ROW FD : ... .. E ... ... ... : ... .. 5 ... ... ... : ... .. . ... : ... .. C ... : ... .. . ... ... : ... .. 5 ... ... : ... .. 5 ... ... : ... .. 9 ... ...
ROW FE : ... .. D ... ... ... : ... .. . ... ... ... : ... .. . ... : ... .. 6 ... : ... .. . ... ... : ... .. . ... ... : ... .. . ... ... : ... .. 5 ... ...
ROW FF : ... .. A ... ... ... : ... .. . ... ... ... : ... .. . ... : ... .. 3 ... : ... .. . ... ... : ... .. 4 ... ... : ... .. 4 ... ... : ... .. . ... ...

PATTERN 04
ROW 00 : ... .. . ... ... ... : ... .. 4 ... ... ... : ... .. . ... : ... .. 2 ... : ... .. . ... ... : ... .. . ... ... : ... .. . ... ... : ... .. . ... ...
ROW 01 : ... .. . ... ... ... : ... .. 3 ... ... ... : ... .. . ... : ... .. 0 ... : ... .. . ... ... : ... .. . ... ... : ... .. . ... ... : ... .. . ... ...
ROW 02 : ... .. . ... ... ... : ... .. . ... ... ... : ... .. . ... : ... .. . ... : ... .. . ... ... : ... .. . ... ... : ... .. . ... ... : ... .. . ... ...
ROW 03 : ... .. . ... ... ... : ... .. . ... ... ... : ... .. . ... : ... .. . ... : ... .. . ... ... : ... .. 3 ... ... : ... .. 3 ... ... : ... .. . ... ...
ROW 04 : ... .. . ... ... ... : ... .. 2 ... ... ... : ... .. . ... : ... .. . ... : ... .. . ... ... : ... .. 2 ... ... : ... .. 2 ... ... : ... .. . ... ...
ROW 05 : ... .. . ... ... ... : ... .. . ... ... ... : ... .. . ... : ... .. . ... : ... .. . ... ... : ... .. . ... ... : ... .. . ... ... : ... .. . ... ...
ROW 06 : ... .. . ... ... ... : D#3 00 6 ... ... ... : ... .. . ... : ... .. . ... : ... .. . ... ... : ... .. 1 ... ... : ... .. 1 ... ... : ... .. . ... ...
ROW 07 : ... .. . ... ... ... : ... .. 5 ... ... ... : ... .. . ... : ... .. . ... : ... .. . ... ... : ... .. . ... ... : ... .. . ... ... : ... .. . ... ...
ROW 08 : ... .. . ... ... ... : ... .. . ... ... ... : ... .. . ... : ... .. . ... : ... .. . ... ... : ... .. . ... ... : ... .. . ... ... : ... .. . ... ...
ROW 09 : ... .. . ... ... ... : ... .. . ... ... ... : ... .. . ... : ... .. . ... : ... .. . ... ... : ... .. . ... ... : ... .. . ... ... : ... .. . ... ...
ROW 0A : ... .. . ... ... ... : ... .. 4 ... ... ... : ... .. . ... : ... .. . ... : ... .. . ... ... : ... .. . ... ... : ... .. . ... ... : ... .. . ... ...
ROW 0B : ... .. . ... ... ... : ... .. 3 ... ... ... : --- .. . ... : ... .. . ... : ... .. . ... ... : ... .. . ... ... : ... .. . ... ... : ... .. . ... ...
ROW 0C : ... .. . ... ... ... : ... .. . ... ... ... : ... .. . ... : ... .. . ... : ... .. . ... ... : ... .. . ... ... : ... .. . ... ... : ... .. . ... ...
ROW 0D : ... .. . ... ... ... : ... .. . ... ... ... : ... .. . ... : ... .. . ... : ... .. . ... ... : ... .. . ... ... : ... .. . ... ... : ... .. . ... ...
ROW 0E : ... .. . ... ... ... : ... .. 2 ... ... ... : ... .. . ... : ... .. . ... : ... .. . ... ... : ... .. . ... ... : ... .. . ... ... : ... .. . ... ...
ROW 0F : ... .. . ... ... ... : ... .. . ... ... ... : ... .. . ... : ... .. . ... : ... .. . ... ... : ... .. . ... ... : ... .. . ... ... : ... .. . ... ...
ROW 10 : G-4 00 F ... ... ... : G#3 00 6 ... ... ... : G#3 00 . ... : D-# 00 8 ... : ... .. . ... ... : ... .. 6 ... ... : ... .. 6 ... ... : ... .. . ... ...
ROW 11 : ... .. E ... ... ... : ... .. 5 ... ... ... : ... .. . ... : ... .. 7 ... : ... .. . ... ... : ... .. 5 ... ... : ... .. 5 ... ... : ... .. . ... ...
ROW 12 : ... .. D ... ... ... : ... .. . ... ... ... : ... .. . ... : ... .. . ... : ... .. . ... ... : ... .. . ... ... : ... .. . ... ... : ... .. . ... ...
ROW 13 : ... .. A ... ... ... : ... .. . ... ... ... : ... .. . ... : ... .. 6 ... : ... .. . ... ... : ... .. 4 ... ... : ... .. 4 ... ... : ... .. . ... ...
ROW 14 : ... .. . ... ... ... : ... .. 4 ... ... ... : ... .. . ... : ... .. 5 ... : ... .. . ... ... : ... .. . ... ... : ... .. . ... ... : ... .. . ... ...
ROW 15 : ... .. . ... ... ... : ... .. 3 ... ... ... : ... .. . ... : ... .. 4 ... : ... .. . ... ... : ... .. . ... ... : ... .. . ... ... : ... .. . ... ...
ROW 16 : ... .. 2 ... ... ... : ... .. . ... ... ... : ... .. . ... : ... .. . ... : ... .. . ... ... : ... .. . ... ... : ... .. . ... ... : ... .. . ... ...
ROW 17 : ... .. . ... ... ... : ... .. . ... ... ... : ... .. . ... : ... .. . ... : ... .. . ... ... : ... .. 3 ... ... : ... .. 3 ... ... : ... .. . ... ...
ROW 18 : ... .. . ... ... ... : ... .. 2 ... ... ... : ... .. . ... : ... .. 3 ... : ... .. . ... ... : ... .. 2 ... ... : ... .. 2 ... ... : ... .. . ... ...
ROW 19 : ... .. 1 ... ... ... : ... .. . ... ... ... : ... .. . ... : ... .. . ... : ... .. . ... ... : ... .. . ... ... : ... .. . ... ... : ... .. . ... ...
ROW 1A : ... .. . ... ... ... : D#3 00 6 ... ... ... : ... .. . ... : ... .. 2 ... : ... .. . ... ... : ... .. 1 ... ... : ... .. 1 ... ... : ... .. . ... ...
ROW 1B : ... .. . ... ... ... : ... .. 5 ... ... ... : ... .. . ... : ... .. . ... : ... .. . ... ... : ... .. . ... ... : ... .. . ... ... : ... .. . ... ...
ROW 1C : ... .. 0 ... V00 ... : ... .. . ... ... ... : ... .. . ... : ... .. . ... : ... .. . ... ... : ... .. . ... ... : ... .. . ... ... : ... .. . ... ...
ROW 1D : ... .. . ... ... ... : ... .. . ... ... ... : ... .. . ... : ... .. 1 ... : ... .. . ... ... : ... .. . ... ... : ... .. . ... ... : ... .. . ... ...
ROW 1E : ... .. . ... ... ... : ... .. 4 ... ... ... : ... .. . ... : ... .. . ... : ... .. . ... ... : ... .. . ... ... : ... .. . ... ... : ... .. . ... ...
ROW 1F : ... .. . ... ... ... : ... .. 3 ... ... ... : --- .. . ... : ... .. . ... : ... .. . ... ... : ... .. . ... ... : ... .. . ... ... : ... .. . ... ...
ROW 20 : ... .. . ... ... ... : ... .. . ... ... ... : ... .. . ... : ... .. 0 ... : ... .. . ... ... : ... .. . ... ... : ... .. . ... ... : ... .. . ... ...
ROW 21 : ... .. . ... ... ... : ... .. . ... ... ... : ... .. . ... : ... .. . ... : ... .. . ... ... : ... .. . ... ... : ... .. . ... ... : ... .. . ... ...
ROW 22 : ... .. . ... ... ... : ... .. 2 ... ... ... : ... .. . ... : ... .. . ... : ... .. . ... ... : ... .. . ... ... : ... .. . ... ... : ... .. . ... ...
ROW 23 : ... .. . ... ... ... : ... .. . ... ... ... : ... .. . ... : ... .. . ... : ... .. . ... ... : ... .. . ... ... : ... .. . ... ... : ... .. . ... ...
ROW 24 : G-4 00 F P80 V02 ... : C-4 00 6 ... ... ... : C-3 00 . ... : ... .. D ... : ... .. . ... ... : ... .. 6 ... ... : ... .. 6 ... ... : C-3 01 A ... ...
ROW 25 : ... .. E ... ... ... : ... .. 5 ... ... ... : ... .. . ... : ... .. B ... : ... .. . ... ... : ... .. 5 ... ... : ... .. 5 ... ... : ... .. 8 ... ...
ROW 26 : ... .. D ... ... ... : ... .. . ... ... ... : ... .. . ... : ... .. . ... : ... .. . ... ... : ... .. . ... ... : ... .. . ... ... : ... .. 5 ... ...
ROW 27 : ... .. A ... ... ... : ... .. . ... ... ... : ... .. . ... : ... .. A ... : ... .. . ... ... : ... .. 4 ... ... : ... .. 4 ... ... : ... .. . ... ...
ROW 28 : ... .. . ... ... ... : ... .. 4 ... ... ... : ... .. . ... : ... .. 8 ... : ... .. . ... ... : ... .. . ... ... : ... .. . ... ... : ... .. . ... ...
ROW 29 : ... .. . ... ... ... : ... .. 3 ... ... ... : ... .. . ... : ... .. 7 ... : ... .. . ... ... : ... .. . ... ... : ... .. . ... ... : ... .. . ... ...
ROW 2A : ... .. . ... ... ... : ... .. . ... ... ... : ... .. . ... : ... .. 6 ... : ... .. . ... ... : ... .. . ... ... : ... .. . ... ... : ... .. . ... ...
ROW 2B : ... .. . ... ... ... : ... .. . ... ... ... : ... .. . ... : ... .. . ... : ... .. . ... ... : ... .. 3 ... ... : ... .. 3 ... ... : ... .. . ... ...
ROW 2C : ... .. . ... ... ... : ... .. 2 ... ... ... : ... .. . ... : ... .. 5 ... : ... .. . ... ... : ... .. 2 ... ... : ... .. 2 ... ... : ... .. . ... ...
ROW 2D : ... .. . ... ... ... : ... .. . ... ... ... : ... .. . ... : ... .. . ... : ... .. . ... ... : ... .. . ... ... : ... .. . ... ... : ... .. . ... ...
ROW 2E : ... .. . ... ... ... : D-3 00 6 ... ... ... : ... .. . ... : ... .. 4 ... : ... .. . ... ... : ... .. 1 ... ... : ... .. 1 ... ... : ... .. . ... ...
ROW 2F : ... .. . ... ... ... : ... .. 5 ... ... ... : ... .. . ... : ... .. . ... : ... .. . ... ... : ... .. . ... ... : ... .. . ... ... : ... .. . ... ...
ROW 30 : ... .. . ... ... ... : ... .. . ... ... ... : ... .. . ... : ... .. 3 ... : ... .. . ... ... : ... .. . ... ... : ... .. . ... ... : ... .. . ... ...
ROW 31 : ... .. . ... ... ... : ... .. . ... ... ... : ... .. . ... : ... .. 2 ... : ... .. . ... ... : ... .. . ... ... : ... .. . ... ... : ... .. . ... ...
ROW 32 : ... .. . ... ... ... : ... .. 4 ... ... ... : ... .. . ... : ... .. . ... : ... .. . ... ... : ... .. . ... ... : ... .. . ... ... : ... .. . ... ...
ROW 33 : ... .. . ... ... ... : ... .. 3 ... ... ... : --- .. . ... : ... .. 1 ... : ... .. . ... ... : ... .. . ... ... : ... .. . ... ... : ... .. 4 ... ...
ROW 34 : ... .. . ... ... ... : ... .. . ... ... ... : ... .. . ... : ... .. 0 ... : ... .. . ... ... : ... .. . ... ... : ... .. . ... ... : ... .. . ... ...
ROW 35 : ... .. . ... ... ... : ... .. . ... ... ... : ... .. . ... : ... .. . ... : ... .. . ... ... : ... .. . ... ... : ... .. . ... ... : ... .. . ... ...
ROW 36 : ... .. . ... ... ... : ... .. 2 ... ... ... : ... .. . ... : ... .. . ... : ... .. . ... ... : ... .. . ... ... : ... .. . ... ... : ... .. . ... ...
ROW 37 : ... .. . ... ... ... : ... .. . ... ... ... : ... .. . ... : ... .. . ... : ... .. . ... ... : ... .. . ... ... : ... .. . ... ... : ... .. . ... ...
ROW 38 : F-4 00 F ... ... ... : G#3 00 6 ... ... ... : C-4 00 . ... : 9-# 00 A ... : ... .. . ... ... : ... .. 6 ... ... : ... .. 6 ... ... : F-2 01 9 ... ...
ROW 39 : ... .. E ... ... ... : ... .. 5 ... ... ... : ... .. . ... : ... .. 8 ... : ... .. . ... ... : ... .. 5 ... ... : ... .. 5 ... ... : ... .. 7 ... ...
ROW 3A : ... .. D ... ... ... : ... .. . ... ... ... : ... .. . ... : ... .. 4 ... : ... .. . ... ... : ... .. . ... ... : ... .. . ... ... : ... .. 4 ... ...
ROW 3B : ... .. A ... ... ... : ... .. . ... ... ... : ... .. . ... : ... .. 2 ... : ... .. . ... ... : ... .. 4 ... ... : ... .. 4 ... ... : ... .. . ... ...
ROW 3C : ... .. . ... ... ... : ... .. 4 ... ... ... : ... .. . ... : ... .. 1 ... : ... .. . ... ... : ... .. . ... ... : ... .. . ... ... : ... .. . ... ...
ROW 3D : ... .. . ... ... ... : ... .. 3 ... ... ... : ... .. . ... : ... .. 0 ... : ... .. . ... ... : ... .. . ... ... : ... .. . ... ... : ... .. . ... ...
ROW 3E : ... .. . ... ... ... : ... .. . ... ... ... : ... .. . ... : ... .. . ... : ... .. . ... ... : ... .. . ... ... : ... .. . ... ... : ... .. . ... ...
ROW 3F : ... .. . ... ... ... : ... .. . ... ... ... : ... .. . ... : ... .. 8 ... : ... .. . ... ... : ... .. 3 ... ... : ... .. 3 ... ... : ... .. . ... ...
ROW 40 : ... .. . ... ... ... : ... .. 2 ... ... ... : ... .. . ... : ... .. 6 ... : ... .. . ... ... : ... .. 2 ... ... : ... .. 2 ... ... : ... .. . ... ...
ROW 41 : ... .. . ... ... ... : ... .. . ... ... ... : ... .. . ... : ... .. 3 ... : ... .. . ... ... : ... .. . ... ... : ... .. . ... ... : ... .. . ... ...
ROW 42 : D#4 00 F ... ... ... : D-3 00 6 ... ... ... : ... .. . ... : ... .. 1 ... : ... .. . ... ... : ... .. 1 ... ... : ... .. 1 ... ... : ... .. . ... ...
ROW 43 : ... .. E ... ... ... : ... .. 5 ... ... ... : ... .. . ... : ... .. . ... : ... .. . ... ... : ... .. . ... ... : ... .. . ... ... : ... .. . ... ...
ROW 44 : ... .. D ... ... ... : ... .. . ... ... ... : ... .. . ... : ... .. 0 ... : ... .. . ... ... : ... .. . ... ... : ... .. . ... ... : ... .. . ... ...
ROW 45 : ... .. A ... ... ... : ... .. . ... ... ... : ... .. . ... : ... .. C ... : ... .. . ... ... : ... .. . ... ... : ... .. . ... ... : ... .. . ... ...
ROW 46 : ... .. . ... ... ... : ... .. 4 ... ... ... : ... .. . ... : ... .. 9 ... : ... .. . ... ... : ... .. . ... ... : ... .. . ... ... : ... .. . ... ...
ROW 47 : ... .. . ... ... ... : ... .. 3 ... ... ... : --- .. . ... : ... .. 4 ... : ... .. . ... ... : ... .. . ... ... : ... .. . ... ... : ... .. . ... ...
ROW 48 : ... .. 2 ... ... ... : ... .. . ... ... ... : ... .. . ... : ... .. 2 ... : ... .. . ... ... : ... .. . ... ... : ... .. . ... ... : ... .. . ... ...
ROW 49 : ... .. . ... ... ... : ... .. . ... ... ... : ... .. . ... : ... .. 1 ... : ... .. . ... ... : ... .. . ... ... : ... .. . ... ... : ... .. . ... ...
ROW 4A : ... .. . ... ... ... : ... .. 2 ... ... ... : ... .. . ... : ... .. 0 ... : ... .. . ... ... : ... .. . ... ... : ... .. . ... ... : ... .. . ... ...
ROW 4B : ... .. 1 ... ... ... : ... .. . ... ... ... : ... .. . ... : ... .. . ... : ... .. . ... ... : ... .. . ... ... : ... .. . ... ... : ... .. . ... ...
ROW 4C : ... .. . ... ... ... : C-4 00 6 ... ... ... : C-3 00 . ... : ... .. F ... : ... .. . ... ... : D-3 01 6 ... ... : G#3 01 6 ... ... : D#3 01 9 ... ...
ROW 4D : ... .. . ... ... ... : ... .. 5 ... ... ... : ... .. . ... : ... .. C ... : ... .. . ... ... : ... .. 5 ... ... : ... .. 5 ... ... : ... .. 7 ... ...
ROW 4E : G-4 00 F ... ... ... : ... .. . ... ... ... : ... .. . ... : ... .. 6 ... : ... .. . ... ... : ... .. . ... ... : ... .. . ... ... : ... .. 4 ... ...
ROW 4F : ... .. E ... ... ... : ... .. . ... ... ... : ... .. . ... : ... .. 3 ... : ... .. . ... ... : ... .. 4 ... ... : ... .. 4 ... ... : ... .. . ... ...
ROW 50 : ... .. D ... ... ... : ... .. 4 ... ... ... : ... .. . ... : ... .. 2 ... : ... .. . ... ... : ... .. . ... ... : ... .. . ... ... : ... .. . ... ...
ROW 51 : F-4 00 F ... ... ... : ... .. 3 ... ... ... : ... .. . ... : ... .. 0 ... : ... .. . ... ... : ... .. . ... ... : ... .. . ... ... : ... .. . ... ...
ROW 52 : ... .. E ... ... ... : ... .. . ... ... ... : ... .. . ... : ... .. . ... : ... .. . ... ... : ... .. . ... ... : ... .. . ... ... : ... .. . ... ...
ROW 53 : ... .. D ... ... ... : ... .. . ... ... ... : ... .. . ... : ... .. . ... : ... .. . ... ... : ... .. 3 ... ... : ... .. 3 ... ... : ... .. . ... ...
ROW 54 : ... .. A ... ... ... : ... .. 2 ... ... ... : ... .. . ... : ... .. . ... : ... .. . ... ... : ... .. 2 ... ... : ... .. 2 ... ... : ... .. . ... ...
ROW 55 : ... .. . ... ... ... : ... .. . ... ... ... : ... .. . ... : ... .. . ... : ... .. . ... ... : ... .. . ... ... : ... .. . ... ... : ... .. . ... ...
ROW 56 : ... .. . ... ... ... : D-3 00 6 ... ... ... : ... .. . ... : ... .. . ... : ... .. . ... ... : ... .. 1 ... ... : ... .. 1 ... ... : ... .. . ... ...
ROW 57 : ... .. . ... ... ... : ... .. 5 ... ... ... : ... .. . ... : ... .. . ... : ... .. . ... ... : ... .. . ... ... : ... .. . ... ... : ... .. . ... ...
ROW 58 : ... .. . ... ... ... : ... .. . ... ... ... : ... .. . ... : ... .. . ... : ... .. . ... ... : ... .. . ... ... : ... .. . ... ... : ... .. . ... ...
ROW 59 : ... .. . ... ... ... : ... .. . ... ... ... : ... .. . ... : ... .. . ... : ... .. . ... ... : ... .. . ... ... : ... .. . ... ... : ... .. . ... ...
ROW 5A : ... .. . ... ... ... : ... .. 4 ... ... ... : ... .. . ... : ... .. . ... : ... .. . ... ... : ... .. . ... ... : ... .. . ... ... : ... .. . ... ...
ROW 5B : ... .. . ... ... ... : ... .. 3 ... ... ... : --- .. . ... : ... .. . ... : ... .. . ... ... : ... .. . ... ... : ... .. . ... ... : ... .. . ... ...
ROW 5C : ... .. . ... ... ... : ... .. . ... ... ... : ... .. . ... : ... .. . ... : ... .. . ... ... : ... .. . ... ... : ... .. . ... ... : ... .. . ... ...
ROW 5D : ... .. . ... ... ... : ... .. . ... ... ... : ... .. . ... : ... .. . ... : ... .. . ... ... : ... .. . ... ... : ... .. . ... ... : ... .. . ... ...
ROW 5E : ... .. . ... ... ... : ... .. 2 ... ... ... : ... .. . ... : ... .. . ... : ... .. . ... ... : ... .. . ... ... : ... .. . ... ... : ... .. . ... ...
ROW 5F : ... .. . ... ... ... : ... .. . ... ... ... : ... .. . ... : ... .. . ... : ... .. . ... ... : ... .. . ... ... : ... .. . ... ... : ... .. . ... ...
ROW 60 : D-4 00 F ... ... ... : G#3 00 6 ... ... ... : D-4 00 . ... : ... .. . ... : ... .. . ... ... : C-3 01 6 ... ... : ... .. 6 ... ... : C-3 01 8 ... ...
ROW 61 : ... .. E ... ... ... : ... .. 5 ... ... ... : ... .. . ... : ... .. . ... : ... .. . ... ... : ... .. 5 ... ... : ... .. 5 ... ... : ... .. 6 ... ...
ROW 62 : ... .. D ... ... ... : ... .. . ... ... ... : ... .. . ... : ... .. . ... : ... .. . ... ... : ... .. . ... ... : ... .. . ... ... : ... .. 4 ... ...
ROW 63 : ... .. A ... ... ... : ... .. . ... ... ... : ... .. . ... : ... .. . ... : ... .. . ... ... : ... .. 4 ... ... : ... .. 4 ... ... : ... .. . ... ...
ROW 64 : ... .. . ... ... ... : ... .. 4 ... ... ... : ... .. . ... : ... .. . ... : ... .. . ... ... : ... .. . ... ... : ... .. . ... ... : ... .. . ... ...
ROW 65 : ... .. . ... ... ... : ... .. 3 ... ... ... : ... .. . ... : ... .. . ... : ... .. . ... ... : ... .. . ... ... : ... .. . ... ... : ... .. . ... ...
ROW 66 : ... .. . ... ... ... : ... .. . ... ... ... : ... .. . ... : ... .. . ... : ... .. . ... ... : ... .. . ... ... : ... .. . ... ... : ... .. . ... ...
ROW 67 : ... .. . ... ... ... : ... .. . ... ... ... : ... .. . ... : ... .. . ... : ... .. . ... ... : ... .. 3 ... ... : ... .. 3 ... ... : ... .. . ... ...
ROW 68 : ... .. . ... ... ... : ... .. 2 ... ... ... : ... .. . ... : ... .. . ... : ... .. . ... ... : ... .. 2 ... ... : ... .. 2 ... ... : ... .. . ... ...
ROW 69 : ... .. . ... ... ... : ... .. . ... ... ... : ... .. . ... : ... .. . ... : ... .. . ... ... : ... .. . ... ... : ... .. . ... ... : ... .. . ... ...
ROW 6A : ... .. . ... ... ... : C-4 00 6 ... ... ... : ... .. . ... : ... .. . ... : ... .. . ... ... : ... .. 1 ... ... : ... .. 1 ... ... : ... .. . ... ...
ROW 6B : ... .. 2 ... ... ... : ... .. 5 ... ... ... : ... .. . ... : ... .. . ... : ... .. . ... ... : ... .. . ... ... : ... .. . ... ... : ... .. . ... ...
ROW 6C : ... .. . ... ... ... : ... .. . ... ... ... : ... .. . ... : ... .. . ... : ... .. . ... ... : ... .. . ... ... : ... .. . ... ... : ... .. . ... ...
ROW 6D : ... .. . ... ... ... : ... .. . ... ... ... : ... .. . ... : ... .. . ... : ... .. . ... ... : ... .. . ... ... : ... .. . ... ... : ... .. . ... ...
ROW 6E : ... .. 1 ... ... ... : ... .. 4 ... ... ... : ... .. . ... : ... .. . ... : ... .. . ... ... : ... .. . ... ... : ... .. . ... ... : ... .. . ... ...
ROW 6F : ... .. . ... ... ... : ... .. 3 ... ... ... : --- .. . ... : ... .. . ... : ... .. . ... ... : ... .. . ... ... : ... .. . ... ... : ... .. . ... ...
ROW 70 : ... .. . ... ... ... : ... .. . ... ... ... : ... .. . ... : ... .. . ... : ... .. . ... ... : ... .. . ... ... : ... .. . ... ... : ... .. . ... ...
ROW 71 : ... .. 0 ... V00 ... : ... .. . ... ... ... : ... .. . ... : ... .. . ... : ... .. . ... ... : ... .. . ... ... : ... .. . ... ... : ... .. . ... ...
ROW 72 : ... .. . ... ... ... : ... .. 2 ... ... ... : ... .. . ... : ... .. . ... : ... .. . ... ... : ... .. . ... ... : ... .. . ... ... : ... .. . ... ...
ROW 73 : ... .. . ... ... ... : ... .. . ... ... ... : ... .. . ... : ... .. . ... : ... .. . ... ... : ... .. . ... ... : ... .. . ... ... : ... .. . ... ...
ROW 74 : ... .. . ... ... ... : D#4 00 6 ... ... ... : C-3 00 . ... : D-# 00 D V01 : ... .. . ... ... : D#3 01 6 ... ... : F-3 01 6 ... ... : G#2 01 8 ... ...
ROW 75 : ... .. . ... ... ... : ... .. 5 ... ... ... : ... .. . ... : ... .. B ... : ... .. . ... ... : ... .. 5 ... ... : ... .. 5 ... ... : ... .. 6 ... ...
ROW 76 : ... .. . ... ... ... : ... .. . ... ... ... : ... .. . ... : ... .. . ... : ... .. . ... ... : ... .. . ... ... : ... .. . ... ... : ... .. 4 ... ...
ROW 77 : ... .. . ... ... ... : ... .. . ... ... ... : ... .. . ... : ... .. A ... : ... .. . ... ... : ... .. 4 ... ... : ... .. 4 ... ... : ... .. . ... ...
ROW 78 : ... .. . ... ... ... : ... .. 4 ... ... ... : ... .. . ... : ... .. 8 ... : ... .. . ... ... : ... .. . ... ... : ... .. . ... ... : ... .. . ... ...
ROW 79 : ... .. . ... ... ... : ... .. 3 ... ... ... : ... .. . ... : ... .. 7 ... : ... .. . ... ... : ... .. . ... ... : ... .. . ... ... : ... .. . ... ...
ROW 7A : ... .. . ... ... ... : ... .. . ... ... ... : ... .. . ... : ... .. 6 ... : ... .. . ... ... : ... .. . ... ... : ... .. . ... ... : ... .. . ... ...
ROW 7B : ... .. . ... ... ... : ... .. . ... ... ... : ... .. . ... : ... .. . ... : ... .. . ... ... : ... .. 3 ... ... : ... .. 3 ... ... : ... .. . ... ...
ROW 7C : ... .. . ... ... ... : ... .. 2 ... ... ... : ... .. . ... : ... .. 5 ... : ... .. . ... ... : ... .. 2 ... ... : ... .. 2 ... ... : ... .. . ... ...
ROW 7D : ... .. . ... ... ... : ... .. . ... ... ... : ... .. . ... : ... .. . ... : ... .. . ... ... : ... .. . ... ... : ... .. . ... ... : ... .. . ... ...
ROW 7E : ... .. . ... ... ... : G-3 00 6 ... ... ... : ... .. . ... : ... .. 4 ... : ... .. . ... ... : ... .. 1 ... ... : ... .. 1 ... ... : ... .. . ... ...
ROW 7F : ... .. . ... ... ... : ... .. 5 ... ... ... : ... .. . ... : ... .. . ... : ... .. . ... ... : ... .. . ... ... : ... .. . ... ... : ... .. . ... ...
ROW 80 : ... .. . ... ... ... : ... .. . ... ... ... : ... .. . ... : ... .. 3 ... : ... .. . ... ... : ... .. . ... ... : ... .. . ... ... : ... .. . ... ...
ROW 81 : ... .. . ... ... ... : ... .. . ... ... ... : ... .. . ... : ... .. 2 ... : ... .. . ... ... : ... .. . ... ... : ... .. . ... ... : ... .. . ... ...
ROW 82 : ... .. . ... ... ... : ... .. 4 ... ... ... : ... .. . ... : ... .. . ... : ... .. . ... ... : ... .. . ... ... : ... .. . ... ... : ... .. . ... ...
ROW 83 : ... .. . ... ... ... : ... .. 3 ... ... ... : --- .. . ... : ... .. 1 ... : ... .. . ... ... : ... .. . ... ... : ... .. . ... ... : ... .. . ... ...
ROW 84 : ... .. . ... ... ... : ... .. . ... ... ... : ... .. . ... : ... .. 0 ... : ... .. . ... ... : ... .. . ... ... : ... .. . ... ... : ... .. . ... ...
ROW 85 : ... .. . ... ... ... : ... .. . ... ... ... : ... .. . ... : ... .. . ... : ... .. . ... ... : ... .. . ... ... : ... .. . ... ... : ... .. . ... ...
ROW 86 : ... .. . ... ... ... : ... .. 2 ... ... ... : ... .. . ... : ... .. . ... : ... .. . ... ... : ... .. . ... ... : ... .. . ... ... : ... .. . ... ...
ROW 87 : ... .. . ... ... ... : ... .. . ... ... ... : ... .. . ... : ... .. . ... : ... .. . ... ... : ... .. . ... ... : ... .. . ... ... : ... .. . ... ...
ROW 88 : C-4 00 F P80 V02 ... : C-4 00 6 ... ... ... : D#4 00 . ... : 9-# 00 A V00 : ... .. . ... ... : ... .. 6 ... ... : ... .. 6 ... ... : D#2 01 8 ... ...
ROW 89 : ... .. E ... ... ... : ... .. 5 ... ... ... : ... .. . ... : ... .. 8 ... : ... .. . ... ... : ... .. 5 ... ... : ... .. 5 ... ... : ... .. 6 ... ...
ROW 8A : ... .. D ... ... ... : ... .. . ... ... ... : ... .. . ... : ... .. 4 ... : ... .. . ... ... : ... .. . ... ... : ... .. . ... ... : ... .. 4 ... ...
ROW 8B : ... .. A ... ... ... : ... .. . ... ... ... : ... .. . ... : ... .. 2 ... : ... .. . ... ... : ... .. 4 ... ... : ... .. 4 ... ... : ... .. . ... ...
ROW 8C : ... .. . ... ... ... : ... .. 4 ... ... ... : ... .. . ... : ... .. 1 ... : ... .. . ... ... : ... .. . ... ... : ... .. . ... ... : ... .. . ... ...
ROW 8D : ... .. . ... ... ... : ... .. 3 ... ... ... : ... .. . ... : ... .. 0 ... : ... .. . ... ... : ... .. . ... ... : ... .. . ... ... : ... .. 3 ... ...
ROW 8E : ... .. 2 ... ... ... : ... .. . ... ... ... : ... .. . ... : ... .. . ... : ... .. . ... ... : ... .. . ... ... : ... .. . ... ... : ... .. . ... ...
ROW 8F : ... .. . ... ... ... : ... .. . ... ... ... : ... .. . ... : ... .. . ... : ... .. . ... ... : ... .. 3 ... ... : ... .. 3 ... ... : ... .. . ... ...
ROW 90 : ... .. . ... ... ... : ... .. 2 ... ... ... : ... .. . ... : ... .. . ... : ... .. . ... ... : ... .. 2 ... ... : ... .. 2 ... ... : ... .. . ... ...
ROW 91 : ... .. 1 ... ... ... : ... .. . ... ... ... : ... .. . ... : ... .. . ... : ... .. . ... ... : ... .. . ... ... : ... .. . ... ... : ... .. . ... ...
ROW 92 : ... .. . ... ... ... : G-3 00 6 ... ... ... : ... .. . ... : ... .. 8 ... : ... .. . ... ... : ... .. 1 ... ... : ... .. 1 ... ... : ... .. . ... ...
ROW 93 : ... .. . ... ... ... : ... .. 5 ... ... ... : ... .. . ... : ... .. 6 ... : ... .. . ... ... : ... .. . ... ... : ... .. . ... ... : ... .. . ... ...
ROW 94 : ... .. 0 ... V00 ... : ... .. . ... ... ... : ... .. . ... : ... .. 3 ... : ... .. . ... ... : ... .. . ... ... : ... .. . ... ... : ... .. . ... ...
ROW 95 : ... .. . ... ... ... : ... .. . ... ... ... : ... .. . ... : ... .. 1 ... : ... .. . ... ... : ... .. . ... ... : ... .. . ... ... : ... .. . ... ...
ROW 96 : ... .. . ... ... ... : ... .. 4 ... ... ... : ... .. . ... : ... .. . ... : ... .. . ... ... : ... .. . ... ... : ... .. . ... ... : ... .. . ... ...
ROW 97 : ... .. . ... ... ... : ... .. 3 ... ... ... : --- .. . ... : ... .. 0 ... : ... .. . ... ... : ... .. . ... ... : ... .. . ... ... : ... .. . ... ...
ROW 98 : ... .. . ... ... ... : ... .. . ... ... ... : ... .. . ... : ... .. . ... : ... .. . ... ... : ... .. . ... ... : ... .. . ... ... : ... .. . ... ...
ROW 99 : ... .. . ... ... ... : ... .. . ... ... ... : ... .. . ... : ... .. . ... : ... .. . ... ... : ... .. . ... ... : ... .. . ... ... : ... .. . ... ...
ROW 9A : ... .. . ... ... ... : ... .. 2 ... ... ... : ... .. . ... : ... .. . ... : ... .. . ... ... : ... .. . ... ... : ... .. . ... ... : ... .. . ... ...
ROW 9B : ... .. . ... ... ... : ... .. . ... ... ... : ... .. . ... : ... .. . ... : ... .. . ... ... : ... .. . ... ... : ... .. . ... ... : ... .. . ... ...
ROW 9C : C-4 00 F P80 V02 ... : D#4 00 6 ... ... ... : D#4 00 . ... : ... .. F ... : ... .. . ... ... : ... .. 6 ... ... : ... .. 6 ... ... : G#2 01 7 ... ...
ROW 9D : ... .. E ... ... ... : ... .. 5 ... ... ... : ... .. . ... : ... .. C ... : ... .. . ... ... : ... .. 5 ... ... : ... .. 5 ... ... : ... .. 6 ... ...
ROW 9E : ... .. D ... ... ... : ... .. . ... ... ... : ... .. . ... : ... .. 6 ... : ... .. . ... ... : ... .. . ... ... : ... .. . ... ... : ... .. 3 ... ...
ROW 9F : ... .. A ... ... ... : ... .. . ... ... ... : ... .. . ... : ... .. 3 ... : ... .. . ... ... : ... .. 4 ... ... : ... .. 4 ... ... : ... .. . ... ...
ROW A0 : ... .. . ... ... ... : ... .. 4 ... ... ... : ... .. . ... : ... .. 2 ... : ... .. . ... ... : ... .. . ... ... : ... .. . ... ... : ... .. . ... ...
ROW A1 : ... .. . ... ... ... : ... .. 3 ... ... ... : ... .. . ... : ... .. 0 ... : ... .. . ... ... : ... .. . ... ... : ... .. . ... ... : ... .. . ... ...
ROW A2 : ... .. . ... ... ... : ... .. . ... ... ... : ... .. . ... : ... .. . ... : ... .. . ... ... : ... .. . ... ... : ... .. . ... ... : ... .. . ... ...
ROW A3 : ... .. . ... ... ... : ... .. . ... ... ... : ... .. . ... : ... .. . ... : ... .. . ... ... : ... .. 3 ... ... : ... .. 3 ... ... : ... .. . ... ...
ROW A4 : ... .. . ... ... ... : ... .. 2 ... ... ... : ... .. . ... : ... .. . ... : ... .. . ... ... : ... .. 2 ... ... : ... .. 2 ... ... : ... .. . ... ...
ROW A5 : ... .. . ... ... ... : ... .. . ... ... ... : ... .. . ... : ... .. . ... : ... .. . ... ... : ... .. . ... ... : ... .. . ... ... : ... .. . ... ...
ROW A6 : ... .. . P84 ... ... : G-3 00 6 ... ... ... : ... .. . ... : ... .. . ... : ... .. . ... ... : ... .. 1 ... ... : ... .. 1 ... ... : ... .. . ... ...
ROW A7 : ... .. . P86 ... ... : ... .. 5 ... ... ... : ... .. . ... : ... .. . ... : ... .. . ... ... : ... .. . ... ... : ... .. . ... ... : ... .. . ... ...
ROW A8 : ... .. . P85 ... ... : ... .. . ... ... ... : ... .. . ... : ... .. . ... : ... .. . ... ... : ... .. . ... ... : ... .. . ... ... : ... .. . ... ...
ROW A9 : ... .. . P82 ... ... : ... .. . ... ... ... : ... .. . ... : ... .. . ... : ... .. . ... ... : ... .. . ... ... : ... .. . ... ... : ... .. . ... ...
ROW AA : ... .. . P7E ... ... : ... .. 4 ... ... ... : ... .. . ... : ... .. . ... : ... .. . ... ... : ... .. . ... ... : ... .. . ... ... : ... .. . ... ...
ROW AB : ... .. . P7B ... ... : ... .. 3 ... ... ... : --- .. . ... : ... .. . ... : ... .. . ... ... : ... .. . ... ... : ... .. . ... ... : ... .. . ... ...
ROW AC : B-3 00 A P86 ... ... : ... .. . ... ... ... : ... .. . ... : ... .. . ... : ... .. . ... ... : ... .. . ... ... : ... .. . ... ... : ... .. . ... ...
ROW AD : C-4 00 A P7C ... ... : ... .. . ... ... ... : ... .. . ... : ... .. . ... : ... .. . ... ... : ... .. . ... ... : ... .. . ... ... : ... .. . ... ...
ROW AE : ... .. . P80 ... ... : ... .. 2 ... ... ... : ... .. . ... : ... .. . ... : ... .. . ... ... : ... .. . ... ... : ... .. . ... ... : ... .. . ... ...
ROW AF : ... .. . P83 ... ... : ... .. . ... ... ... : ... .. . ... : ... .. . ... : ... .. . ... ... : ... .. . ... ... : ... .. . ... ... : ... .. . ... ...
ROW B0 : D-4 00 F P80 ... ... : C-4 00 6 ... ... ... : G#3 00 . ... : D-# 00 F ... : ... .. . ... ... : ... .. 6 ... ... : ... .. 6 ... ... : C-3 01 7 ... ...
ROW B1 : ... .. E ... ... ... : ... .. 5 ... ... ... : ... .. . ... : ... .. C ... : ... .. . ... ... : ... .. 5 ... ... : ... .. 5 ... ... : ... .. 6 ... ...
ROW B2 : ... .. D ... ... ... : ... .. . ... ... ... : ... .. . ... : ... .. 6 ... : ... .. . ... ... : ... .. . ... ... : ... .. . ... ... : ... .. 3 ... ...
ROW B3 : ... .. A ... ... ... : ... .. . ... ... ... : ... .. . ... : ... .. 3 ... : ... .. . ... ... : ... .. 4 ... ... : ... .. 4 ... ... : ... .. . ... ...
ROW B4 : ... .. . ... ... ... : ... .. 4 ... ... ... : ... .. . ... : ... .. 2 ... : ... .. . ... ... : ... .. . ... ... : ... .. . ... ... : ... .. . ... ...
ROW B5 : ... .. . ... ... ... : ... .. 3 ... ... ... : ... .. . ... : ... .. 0 ... : ... .. . ... ... : ... .. . ... ... : ... .. . ... ... : ... .. . ... ...
ROW B6 : ... .. 2 ... ... ... : ... .. . ... ... ... : ... .. . ... : ... .. . ... : ... .. . ... ... : ... .. . ... ... : ... .. . ... ... : ... .. . ... ...
ROW B7 : ... .. . ... ... ... : ... .. . ... ... ... : ... .. . ... : ... .. . ... : ... .. . ... ... : ... .. 3 ... ... : ... .. 3 ... ... : ... .. . ... ...
ROW B8 : ... .. . ... ... ... : ... .. 2 ... ... ... : ... .. . ... : ... .. . ... : ... .. . ... ... : ... .. 2 ... ... : ... .. 2 ... ... : ... .. . ... ...
ROW B9 : ... .. 1 ... ... ... : ... .. . ... ... ... : ... .. . ... : ... .. . ... : ... .. . ... ... : ... .. . ... ... : ... .. . ... ... : ... .. . ... ...
ROW BA : ... .. . ... ... ... : G-3 00 6 ... ... ... : ... .. . ... : ... .. . ... : ... .. . ... ... : ... .. 1 ... ... : ... .. 1 ... ... : ... .. . ... ...
ROW BB : ... .. . ... ... ... : ... .. 5 ... ... ... : ... .. . ... : ... .. . ... : ... .. . ... ... : ... .. . ... ... : ... .. . ... ... : ... .. . ... ...
ROW BC : ... .. 0 ... V00 ... : ... .. . ... ... ... : ... .. . ... : ... .. . ... : ... .. . ... ... : ... .. . ... ... : ... .. . ... ... : ... .. . ... ...
ROW BD : ... .. . ... ... ... : ... .. . ... ... ... : ... .. . ... : ... .. . ... : ... .. . ... ... : ... .. . ... ... : ... .. . ... ... : ... .. . ... ...
ROW BE : ... .. . ... ... ... : ... .. 4 ... ... ... : ... .. . ... : ... .. . ... : ... .. . ... ... : ... .. . ... ... : ... .. . ... ... : ... .. . ... ...
ROW BF : ... .. . ... ... ... : ... .. 3 ... ... ... : --- .. . ... : ... .. . ... : ... .. . ... ... : ... .. . ... ... : ... .. . ... ... : ... .. . ... ...
ROW C0 : ... .. . ... ... ... : ... .. . ... ... ... : ... .. . ... : ... .. . ... : ... .. . ... ... : ... .. . ... ... : ... .. . ... ... : ... .. . ... ...
ROW C1 : ... .. . ... ... ... : ... .. . ... ... ... : ... .. . ... : ... .. . ... : ... .. . ... ... : ... .. . ... ... : ... .. . ... ... : ... .. . ... ...
ROW C2 : ... .. . ... ... ... : ... .. 2 ... ... ... : ... .. . ... : ... .. . ... : ... .. . ... ... : ... .. . ... ... : ... .. . ... ... : ... .. . ... ...
ROW C3 : ... .. . ... ... ... : ... .. . ... ... ... : ... .. . ... : ... .. . ... : ... .. . ... ... : ... .. . ... ... : ... .. . ... ... : ... .. . ... ...
ROW C4 : D-4 00 F P80 V02 ... : D#4 00 6 ... ... ... : C-3 00 . ... : ... .. D ... : ... .. . ... ... : A-2 01 6 ... ... : F#3 01 6 ... ... : D#3 01 6 ... ...
ROW C5 : ... .. E ... ... ... : ... .. 5 ... ... ... : ... .. . ... : ... .. B ... : ... .. . ... ... : ... .. 5 ... ... : ... .. 5 ... ... : ... .. 5 ... ...
ROW C6 : ... .. D ... ... ... : ... .. . ... ... ... : ... .. . ... : ... .. . ... : ... .. . ... ... : ... .. . ... ... : ... .. . ... ... : ... .. 3 ... ...
ROW C7 : ... .. A ... ... ... : ... .. . ... ... ... : ... .. . ... : ... .. A ... : ... .. . ... ... : ... .. 4 ... ... : ... .. 4 ... ... : ... .. . ... ...
ROW C8 : ... .. . ... ... ... : ... .. 4 ... ... ... : ... .. . ... : ... .. 8 ... : ... .. . ... ... : ... .. . ... ... : ... .. . ... ... : ... .. . ... ...
ROW C9 : ... .. . ... ... ... : ... .. 3 ... ... ... : ... .. . ... : ... .. 7 ... : ... .. . ... ... : ... .. . ... ... : ... .. . ... ... : ... .. . ... ...
ROW CA : D#4 00 A P7F ... ... : ... .. . ... ... ... : ... .. . ... : ... .. 6 ... : ... .. . ... ... : ... .. . ... ... : ... .. . ... ... : ... .. . ... ...
ROW CB : ... .. . P80 ... ... : ... .. . ... ... ... : ... .. . ... : ... .. . ... : ... .. . ... ... : ... .. 3 ... ... : ... .. 3 ... ... : ... .. . ... ...
ROW CC : ... .. . ... ... ... : ... .. 2 ... ... ... : ... .. . ... : ... .. 5 ... : ... .. . ... ... : ... .. 2 ... ... : ... .. 2 ... ... : ... .. . ... ...
ROW CD : ... .. . ... ... ... : ... .. . ... ... ... : ... .. . ... : ... .. . ... : ... .. . ... ... : ... .. . ... ... : ... .. . ... ... : ... .. . ... ...
ROW CE : ... .. . ... ... ... : F#3 00 6 ... ... ... : ... .. . ... : ... .. 4 ... : ... .. . ... ... : ... .. 1 ... ... : ... .. 1 ... ... : ... .. . ... ...
ROW CF : ... .. . ... ... ... : ... .. 5 ... ... ... : ... .. . ... : ... .. . ... : ... .. . ... ... : ... .. . ... ... : ... .. . ... ... : ... .. . ... ...
ROW D0 : ... .. . ... ... ... : ... .. . ... ... ... : ... .. . ... : ... .. 3 ... : ... .. . ... ... : ... .. . ... ... : ... .. . ... ... : ... .. . ... ...
ROW D1 : ... .. . ... ... ... : ... .. . ... ... ... : ... .. . ... : ... .. 2 ... : ... .. . ... ... : ... .. . ... ... : ... .. . ... ... : ... .. . ... ...
ROW D2 : ... .. . ... ... ... : ... .. 4 ... ... ... : ... .. . ... : ... .. . ... : ... .. . ... ... : ... .. . ... ... : ... .. . ... ... : ... .. . ... ...
ROW D3 : ... .. . ... ... ... : ... .. 3 ... ... ... : --- .. . ... : ... .. 1 ... : ... .. . ... ... : ... .. . ... ... : ... .. . ... ... : ... .. . ... ...
ROW D4 : ... .. . ... ... ... : ... .. . ... ... ... : ... .. . ... : ... .. 0 ... : ... .. . ... ... : ... .. . ... ... : ... .. . ... ... : ... .. . ... ...
ROW D5 : ... .. . ... ... ... : ... .. . ... ... ... : ... .. . ... : ... .. . ... : ... .. . ... ... : ... .. . ... ... : ... .. . ... ... : ... .. . ... ...
ROW D6 : ... .. . ... ... ... : ... .. 2 ... ... ... : ... .. . ... : ... .. . ... : ... .. . ... ... : ... .. . ... ... : ... .. . ... ... : ... .. . ... ...
ROW D7 : ... .. . ... ... ... : ... .. . ... ... ... : ... .. . ... : ... .. . ... : ... .. . ... ... : ... .. . ... ... : ... .. . ... ... : ... .. . ... ...
ROW D8 : ... .. . ... ... ... : C-4 00 6 ... ... ... : A-3 00 . ... : 9-# 00 A ... : ... .. . ... ... : ... .. 6 ... ... : ... .. 6 ... ... : C-3 01 6 ... ...
ROW D9 : ... .. . ... ... ... : ... .. 5 ... ... ... : ... .. . ... : ... .. 8 ... : ... .. . ... ... : ... .. 5 ... ... : ... .. 5 ... ... : ... .. 5 ... ...
ROW DA : ... .. . ... ... ... : ... .. . ... ... ... : ... .. . ... : ... .. 4 ... : ... .. . ... ... : ... .. . ... ... : ... .. . ... ... : ... .. 3 ... ...
ROW DB : ... .. . ... ... ... : ... .. . ... ... ... : ... .. . ... : ... .. 2 ... : ... .. . ... ... : ... .. 4 ... ... : ... .. 4 ... ... : ... .. . ... ...
ROW DC : ... .. . ... ... ... : ... .. 4 ... ... ... : ... .. . ... : ... .. 1 ... : ... .. . ... ... : ... .. . ... ... : ... .. . ... ... : ... .. . ... ...
ROW DD : ... .. . ... ... ... : ... .. 3 ... ... ... : ... .. . ... : ... .. 0 ... : ... .. . ... ... : ... .. . ... ... : ... .. . ... ... : ... .. . ... ...
ROW DE : ... .. . ... ... ... : ... .. . ... ... ... : ... .. . ... : ... .. . ... : ... .. . ... ... : ... .. . ... ... : ... .. . ... ... : ... .. . ... ...
ROW DF : ... .. . ... ... ... : ... .. . ... ... ... : ... .. . ... : ... .. . ... : ... .. . ... ... : ... .. 3 ... ... : ... .. 3 ... ... : ... .. . ... ...
ROW E0 : ... .. . ... ... ... : ... .. 2 ... ... ... : ... .. . ... : ... .. . ... : ... .. . ... ... : ... .. 2 ... ... : ... .. 2 ... ... : ... .. . ... ...
ROW E1 : ... .. . ... ... ... : ... .. . ... ... ... : ... .. . ... : ... .. . ... : ... .. . ... ... : ... .. . ... ... : ... .. . ... ... : ... .. . ... ...
ROW E2 : ... .. . ... ... ... : F#3 00 6 ... ... ... : ... .. . ... : ... .. 8 ... : ... .. . ... ... : ... .. 1 ... ... : ... .. 1 ... ... : ... .. . ... ...
ROW E3 : ... .. . ... ... ... : ... .. 5 ... ... ... : ... .. . ... : ... .. 6 ... : ... .. . ... ... : ... .. . ... ... : ... .. . ... ... : ... .. . ... ...
ROW E4 : ... .. . ... ... ... : ... .. . ... ... ... : ... .. . ... : ... .. 3 ... : ... .. . ... ... : ... .. . ... ... : ... .. . ... ... : ... .. . ... ...
ROW E5 : ... .. . ... ... ... : ... .. . ... ... ... : ... .. . ... : ... .. 1 ... : ... .. . ... ... : ... .. . ... ... : ... .. . ... ... : ... .. . ... ...
ROW E6 : ... .. . ... ... ... : ... .. 4 ... ... ... : ... .. . ... : ... .. . ... : ... .. . ... ... : ... .. . ... ... : ... .. . ... ... : ... .. . ... ...
ROW E7 : ... .. . P82 ... ... : ... .. 3 ... ... ... : --- .. . ... : ... .. 0 ... : ... .. . ... ... : ... .. . ... ... : ... .. . ... ... : ... .. 2 ... ...
ROW E8 : ... .. . P83 ... ... : ... .. . ... ... ... : ... .. . ... : ... .. . ... : ... .. . ... ... : ... .. . ... ... : ... .. . ... ... : ... .. . ... ...
ROW E9 : ... .. . ... ... ... : ... .. . ... ... ... : ... .. . ... : ... .. . ... : ... .. . ... ... : ... .. . ... ... : ... .. . ... ... : ... .. . ... ...
ROW EA : ... .. . P81 ... ... : ... .. 2 ... ... ... : ... .. . ... : ... .. . ... : ... .. . ... ... : ... .. . ... ... : ... .. . ... ... : ... .. . ... ...
ROW EB : ... .. . P7F ... ... : ... .. . ... ... ... : ... .. . ... : ... .. . ... : ... .. . ... ... : ... .. . ... ... : ... .. . ... ... : ... .. . ... ...
ROW EC : ... .. . P7D ... ... : D-4 00 6 ... ... ... : A-3 00 . ... : ... .. F ... : ... .. . ... ... : C-3 01 6 ... ... : ... .. 6 ... ... : A-2 01 5 ... ...
ROW ED : ... .. . ... ... ... : ... .. 5 ... ... ... : ... .. . ... : ... .. C ... : ... .. . ... ... : ... .. 5 ... ... : ... .. 5 ... ... : ... .. 4 ... ...
ROW EE : ... .. . P7E ... ... : ... .. . ... ... ... : ... .. . ... : ... .. 6 ... : ... .. . ... ... : ... .. . ... ... : ... .. . ... ... : ... .. 2 ... ...
ROW EF : ... .. . P80 ... ... : ... .. . ... ... ... : ... .. . ... : ... .. 3 ... : ... .. . ... ... : ... .. 4 ... ... : ... .. 4 ... ... : ... .. . ... ...
ROW F0 : ... .. . P82 ... ... : ... .. 4 ... ... ... : ... .. . ... : ... .. 2 ... : ... .. . ... ... : ... .. . ... ... : ... .. . ... ... : ... .. . ... ...
ROW F1 : ... .. . P83 ... ... : ... .. 3 ... ... ... : ... .. . ... : ... .. 0 ... : ... .. . ... ... : ... .. . ... ... : ... .. . ... ... : ... .. . ... ...
ROW F2 : ... .. . ... ... ... : ... .. . ... ... ... : ... .. . ... : ... .. . ... : ... .. . ... ... : ... .. . ... ... : ... .. . ... ... : ... .. . ... ...
ROW F3 : ... .. . P81 ... ... : ... .. . ... ... ... : ... .. . ... : ... .. . ... : ... .. . ... ... : ... .. 3 ... ... : ... .. 3 ... ... : ... .. . ... ...
ROW F4 : ... .. . P80 ... ... : ... .. 2 ... ... ... : ... .. . ... : ... .. . ... : ... .. . ... ... : ... .. 2 ... ... : ... .. 2 ... ... : ... .. . ... ...
ROW F5 : ... .. . P7D ... ... : ... .. . ... ... ... : ... .. . ... : ... .. . ... : ... .. . ... ... : ... .. . ... ... : ... .. . ... ... : ... .. . ... ...
ROW F6 : ... .. . ... ... ... : F#3 00 6 ... ... ... : ... .. . ... : ... .. . ... : ... .. . ... ... : ... .. 1 ... ... : ... .. 1 ... ... : ... .. . ... ...
ROW F7 : ... .. . P7E ... ... : ... .. 5 ... ... ... : ... .. . ... : ... .. . ... : ... .. . ... ... : ... .. . ... ... : ... .. . ... ... : ... .. . ... ...
ROW F8 : ... .. . P80 ... ... : ... .. . ... ... ... : ... .. . ... : ... .. . ... : ... .. . ... ... : ... .. . ... ... : ... .. . ... ... : ... .. . ... ...
ROW F9 : ... .. . P81 ... ... : ... .. . ... ... ... : ... .. . ... : ... .. . ... : ... .. . ... ... : ... .. . ... ... : ... .. . ... ... : ... .. . ... ...
ROW FA : ... .. . P83 ... ... : ... .. 4 ... ... ... : ... .. . ... : ... .. . ... : ... .. . ... ... : ... .. . ... ... : ... .. . ... ... : ... .. . ... ...
ROW FB : ... .. . ... ... ... : ... .. 3 ... ... ... : --- .. . ... : ... .. . ... : ... .. . ... ... : ... .. . ... ... : ... .. . ... ... : ... .. . ... ...
ROW FC : ... .. 2 P81 ... ... : ... .. . ... ... ... : ... .. . ... : ... .. . ... : ... .. . ... ... : ... .. . ... ... : ... .. . ... ... : ... .. . ... ...
ROW FD : ... .. . P80 ... ... : ... .. . ... ... ... : ... .. . ... : ... .. . ... : ... .. . ... ... : ... .. . ... ... : ... .. . ... ... : ... .. . ... ...
ROW FE : ... .. . P7E ... ... : ... .. 2 ... ... ... : ... .. . ... : ... .. . ... : ... .. . ... ... : ... .. . ... ... : ... .. . ... ... : ... .. . ... ...
ROW FF : ... .. 1 P7D ... ... : ... .. . ... ... ... : ... .. . ... : ... .. . ... : ... .. . ... ... : ... .. . ... ... : ... .. . ... ... : ... .. . ... ...

PATTERN 05
ROW 00 : D-4 00 F P80 ... ... : C-4 00 6 ... ... ... : C-3 00 . ... : D-# 00 D ... : ... .. . ... ... : ... .. 6 ... ... : ... .. 6 ... ... : C-3 01 5 ... ...
ROW 01 : ... .. E ... ... ... : ... .. 5 ... ... ... : ... .. . ... : ... .. B ... : ... .. . ... ... : ... .. 5 ... ... : ... .. 5 ... ... : ... .. 4 ... ...
ROW 02 : ... .. D ... ... ... : ... .. . ... ... ... : ... .. . ... : ... .. . ... : ... .. . ... ... : ... .. . ... ... : ... .. . ... ... : ... .. 2 ... ...
ROW 03 : ... .. A ... ... ... : ... .. . ... ... ... : ... .. . ... : ... .. A ... : ... .. . ... ... : ... .. 4 ... ... : ... .. 4 ... ... : ... .. . ... ...
ROW 04 : ... .. . ... ... ... : ... .. 4 ... ... ... : ... .. . ... : ... .. 8 ... : ... .. . ... ... : ... .. . ... ... : ... .. . ... ... : ... .. . ... ...
ROW 05 : ... .. . ... ... ... : ... .. 3 ... ... ... : ... .. . ... : ... .. 7 ... : ... .. . ... ... : ... .. . ... ... : ... .. . ... ... : ... .. . ... ...
ROW 06 : ... .. . ... ... ... : ... .. . ... ... ... : ... .. . ... : ... .. 6 ... : ... .. . ... ... : ... .. . ... ... : ... .. . ... ... : ... .. . ... ...
ROW 07 : ... .. . ... ... ... : ... .. . ... ... ... : ... .. . ... : ... .. . ... : ... .. . ... ... : ... .. 3 ... ... : ... .. 3 ... ... : ... .. . ... ...
ROW 08 : ... .. . ... ... ... : ... .. 2 ... ... ... : ... .. . ... : ... .. 5 ... : ... .. . ... ... : ... .. 2 ... ... : ... .. 2 ... ... : ... .. . ... ...
ROW 09 : ... .. . ... ... ... : ... .. . ... ... ... : ... .. . ... : ... .. . ... : ... .. . ... ... : ... .. . ... ... : ... .. . ... ... : ... .. . ... ...
ROW 0A : C-4 00 F ... ... ... : F#3 00 6 ... ... ... : ... .. . ... : ... .. 4 ... : ... .. . ... ... : ... .. 1 ... ... : ... .. 1 ... ... : ... .. . ... ...
ROW 0B : ... .. E ... ... ... : ... .. 5 ... ... ... : ... .. . ... : ... .. . ... : ... .. . ... ... : ... .. . ... ... : ... .. . ... ... : ... .. . ... ...
ROW 0C : ... .. D ... ... ... : ... .. . ... ... ... : ... .. . ... : ... .. 3 ... : ... .. . ... ... : ... .. . ... ... : ... .. . ... ... : ... .. . ... ...
ROW 0D : ... .. A ... ... ... : ... .. . ... ... ... : ... .. . ... : ... .. 2 ... : ... .. . ... ... : ... .. . ... ... : ... .. . ... ... : ... .. . ... ...
ROW 0E : ... .. . ... ... ... : ... .. 4 ... ... ... : ... .. . ... : ... .. . ... : ... .. . ... ... : ... .. . ... ... : ... .. . ... ... : ... .. . ... ...
ROW 0F : ... .. . ... ... ... : ... .. 3 ... ... ... : --- .. . ... : ... .. 1 ... : ... .. . ... ... : ... .. . ... ... : ... .. . ... ... : ... .. . ... ...
ROW 10 : ... .. 2 ... ... ... : ... .. . ... ... ... : ... .. . ... : ... .. 0 ... : ... .. . ... ... : ... .. . ... ... : ... .. . ... ... : ... .. . ... ...
ROW 11 : ... .. . ... ... ... : ... .. . ... ... ... : ... .. . ... : ... .. . ... : ... .. . ... ... : ... .. . ... ... : ... .. . ... ... : ... .. . ... ...
ROW 12 : ... .. . ... ... ... : ... .. 2 ... ... ... : ... .. . ... : ... .. . ... : ... .. . ... ... : ... .. . ... ... : ... .. . ... ... : ... .. . ... ...
ROW 13 : ... .. 1 ... ... ... : ... .. . ... ... ... : ... .. . ... : ... .. . ... : ... .. . ... ... : ... .. . ... ... : ... .. . ... ... : ... .. . ... ...
ROW 14 : D-4 00 F ... ... ... : D-4 00 6 ... ... ... : B-2 00 . ... : ... .. D V01 : ... .. . ... ... : D-3 01 2 ... ... : G-3 01 2 ... ... : G-2 01 A ... ...
ROW 15 : ... .. E ... ... ... : ... .. 5 ... ... ... : ... .. . ... : ... .. B ... : ... .. . ... ... : ... .. . ... ... : ... .. . ... ... : ... .. 8 ... ...
ROW 16 : ... .. D ... ... ... : ... .. . ... ... ... : ... .. . ... : ... .. . ... : ... .. . ... ... : ... .. . ... ... : ... .. . ... ... : ... .. 5 ... ...
ROW 17 : ... .. A ... ... ... : ... .. . ... ... ... : ... .. . ... : ... .. A ... : ... .. . ... ... : ... .. 1 ... ... : ... .. 1 ... ... : ... .. . ... ...
ROW 18 : ... .. . ... ... ... : ... .. 4 ... ... ... : ... .. . ... : ... .. 8 ... : ... .. . ... ... : ... .. . ... ... : ... .. . ... ... : ... .. . ... ...
ROW 19 : ... .. . ... ... ... : ... .. 3 ... ... ... : ... .. . ... : ... .. 7 ... : ... .. . ... ... : ... .. . ... ... : ... .. . ... ... : ... .. . ... ...
ROW 1A : ... .. . ... ... ... : ... .. . ... ... ... : ... .. . ... : ... .. 6 ... : ... .. . ... ... : ... .. . ... ... : ... .. . ... ... : ... .. . ... ...
ROW 1B : ... .. . ... ... ... : ... .. . ... ... ... : ... .. . ... : ... .. . ... : ... .. . ... ... : ... .. . ... ... : ... .. . ... ... : ... .. . ... ...
ROW 1C : ... .. . ... ... ... : ... .. 2 ... ... ... : ... .. . ... : ... .. 5 ... : ... .. . ... ... : ... .. . ... ... : ... .. . ... ... : ... .. . ... ...
ROW 1D : ... .. . ... ... ... : ... .. . ... ... ... : ... .. . ... : ... .. . ... : ... .. . ... ... : ... .. . ... ... : ... .. . ... ... : ... .. . ... ...
ROW 1E : ... .. . ... ... ... : F-3 00 6 ... ... ... : ... .. . ... : ... .. 4 ... : ... .. . ... ... : ... .. . ... ... : ... .. . ... ... : ... .. . ... ...
ROW 1F : ... .. . ... ... ... : ... .. 5 ... ... ... : ... .. . ... : ... .. . ... : ... .. . ... ... : ... .. . ... ... : ... .. . ... ... : ... .. . ... ...
ROW 20 : ... .. . ... ... ... : ... .. . ... ... ... : ... .. . ... : ... .. 3 ... : ... .. . ... ... : ... .. . ... ... : ... .. . ... ... : ... .. . ... ...
ROW 21 : ... .. . ... ... ... : ... .. . ... ... ... : ... .. . ... : ... .. 2 ... : ... .. . ... ... : ... .. . ... ... : ... .. . ... ... : ... .. . ... ...
ROW 22 : ... .. . ... ... ... : ... .. 4 ... ... ... : ... .. . ... : ... .. . ... : ... .. . ... ... : ... .. . ... ... : ... .. . ... ... : ... .. . ... ...
ROW 23 : ... .. . ... ... ... : ... .. 3 ... ... ... : --- .. . ... : ... .. 1 ... : ... .. . ... ... : ... .. . ... ... : ... .. . ... ... : ... .. . ... ...
ROW 24 : ... .. . ... ... ... : ... .. . ... ... ... : ... .. . ... : ... .. 0 ... : ... .. . ... ... : ... .. . ... ... : ... .. . ... ... : ... .. . ... ...
ROW 25 : ... .. . ... ... ... : ... .. . ... ... ... : ... .. . ... : ... .. . ... : ... .. . ... ... : ... .. . ... ... : ... .. . ... ... : ... .. . ... ...
ROW 26 : ... .. . ... ... ... : ... .. 2 ... ... ... : ... .. . ... : ... .. . ... : ... .. . ... ... : ... .. . ... ... : ... .. . ... ... : ... .. . ... ...
ROW 27 : ... .. . ... ... ... : ... .. . ... ... ... : ... .. . ... : ... .. . ... : ... .. . ... ... : ... .. . ... ... : ... .. . ... ... : ... .. . ... ...
ROW 28 : ... .. . ... ... ... : B-3 00 6 ... ... ... : D-4 00 . ... : 9-# 00 A V00 : ... .. . ... ... : ... .. 2 ... ... : G#3 01 2 ... ... : ... .. . ... ...
ROW 29 : ... .. . ... ... ... : ... .. 5 ... ... ... : ... .. . ... : ... .. 8 ... : ... .. . ... ... : ... .. . ... ... : ... .. . ... ... : ... .. . ... ...
ROW 2A : ... .. . ... ... ... : ... .. . ... ... ... : ... .. . ... : ... .. 4 ... : ... .. . ... ... : ... .. . ... ... : ... .. . ... ... : ... .. . ... ...
ROW 2B : ... .. . ... ... ... : ... .. . ... ... ... : ... .. . ... : ... .. 2 ... : ... .. . ... ... : ... .. 1 ... ... : ... .. 1 ... ... : ... .. . ... ...
ROW 2C : ... .. . ... ... ... : ... .. 4 ... ... ... : ... .. . ... : ... .. 1 ... : ... .. . ... ... : ... .. . ... ... : ... .. . ... ... : ... .. . ... ...
ROW 2D : ... .. . ... ... ... : ... .. 3 ... ... ... : ... .. . ... : ... .. 0 ... : ... .. . ... ... : ... .. . ... ... : ... .. . ... ... : ... .. . ... ...
ROW 2E : ... .. . ... ... ... : ... .. . ... ... ... : ... .. . ... : ... .. . ... : ... .. . ... ... : ... .. . ... ... : ... .. . ... ... : ... .. . ... ...
ROW 2F : ... .. . ... ... ... : ... .. . ... ... ... : ... .. . ... : ... .. . ... : ... .. . ... ... : ... .. . ... ... : ... .. . ... ... : ... .. . ... ...
ROW 30 : ... .. . ... ... ... : ... .. 2 ... ... ... : ... .. . ... : ... .. . ... : ... .. . ... ... : ... .. . ... ... : ... .. . ... ... : ... .. . ... ...
ROW 31 : ... .. . ... ... ... : ... .. . ... ... ... : ... .. . ... : ... .. . ... : ... .. . ... ... : ... .. . ... ... : ... .. . ... ... : ... .. . ... ...
ROW 32 : ... .. . ... ... ... : F-3 00 6 ... ... ... : ... .. . ... : ... .. 8 ... : ... .. . ... ... : ... .. . ... ... : ... .. . ... ... : ... .. . ... ...
ROW 33 : ... .. . ... ... ... : ... .. 5 ... ... ... : ... .. . ... : ... .. 6 ... : ... .. . ... ... : ... .. . ... ... : ... .. . ... ... : ... .. . ... ...
ROW 34 : ... .. . ... ... ... : ... .. . ... ... ... : ... .. . ... : ... .. 3 ... : ... .. . ... ... : ... .. . ... ... : ... .. . ... ... : ... .. . ... ...
ROW 35 : ... .. . ... ... ... : ... .. . ... ... ... : ... .. . ... : ... .. 1 ... : ... .. . ... ... : ... .. . ... ... : ... .. . ... ... : ... .. . ... ...
ROW 36 : ... .. . ... ... ... : ... .. 4 ... ... ... : ... .. . ... : ... .. . ... : ... .. . ... ... : ... .. . ... ... : ... .. . ... ... : ... .. . ... ...
ROW 37 : ... .. . ... ... ... : ... .. 3 ... ... ... : --- .. . ... : ... .. 0 ... : ... .. . ... ... : ... .. . ... ... : ... .. . ... ... : ... .. . ... ...
ROW 38 : ... .. . ... ... ... : ... .. . ... ... ... : ... .. . ... : ... .. . ... : ... .. . ... ... : ... .. . ... ... : ... .. . ... ... : ... .. . ... ...
ROW 39 : ... .. . ... ... ... : ... .. . ... ... ... : ... .. . ... : ... .. . ... : ... .. . ... ... : ... .. . ... ... : ... .. . ... ... : ... .. . ... ...
ROW 3A : ... .. . ... ... ... : ... .. 2 ... ... ... : ... .. . ... : ... .. . ... : ... .. . ... ... : ... .. . ... ... : ... .. . ... ... : ... .. . ... ...
ROW 3B : ... .. . ... ... ... : ... .. . ... ... ... : ... .. . ... : ... .. . ... : ... .. . ... ... : ... .. . ... ... : ... .. . ... ... : ... .. . ... ...
ROW 3C : ... .. . ... ... ... : D-4 00 6 ... ... ... : D-4 00 . ... : ... .. F ... : ... .. . ... ... : B-2 01 2 ... ... : F-3 01 2 ... ... : D-3 01 A ... ...
ROW 3D : ... .. . ... ... ... : ... .. 5 ... ... ... : ... .. . ... : ... .. C ... : ... .. . ... ... : ... .. . ... ... : ... .. . ... ... : ... .. 8 ... ...
ROW 3E : ... .. . ... ... ... : ... .. . ... ... ... : ... .. . ... : ... .. 6 ... : ... .. . ... ... : ... .. . ... ... : ... .. . ... ... : ... .. 5 ... ...
ROW 3F : ... .. . ... ... ... : ... .. . ... ... ... : ... .. . ... : ... .. 3 ... : ... .. . ... ... : ... .. 1 ... ... : ... .. 1 ... ... : ... .. . ... ...
ROW 40 : ... .. . ... ... ... : ... .. 4 ... ... ... : ... .. . ... : ... .. 2 ... : ... .. . ... ... : ... .. . ... ... : ... .. . ... ... : ... .. . ... ...
ROW 41 : ... .. . ... ... ... : ... .. 3 ... ... ... : ... .. . ... : ... .. 0 ... : ... .. . ... ... : ... .. . ... ... : ... .. . ... ... : ... .. . ... ...
ROW 42 : ... .. . ... ... ... : ... .. . ... ... ... : ... .. . ... : ... .. . ... : ... .. . ... ... : ... .. . ... ... : ... .. . ... ... : ... .. . ... ...
ROW 43 : ... .. . ... ... ... : ... .. . ... ... ... : ... .. . ... : ... .. . ... : ... .. . ... ... : ... .. . ... ... : ... .. . ... ... : ... .. . ... ...
ROW 44 : ... .. . ... ... ... : ... .. 2 ... ... ... : ... .. . ... : ... .. . ... : ... .. . ... ... : ... .. . ... ... : ... .. . ... ... : ... .. . ... ...
ROW 45 : ... .. . ... ... ... : ... .. . ... ... ... : ... .. . ... : ... .. . ... : ... .. . ... ... : ... .. . ... ... : ... .. . ... ... : ... .. . ... ...
ROW 46 : ... .. . ... ... ... : F-3 00 6 ... ... ... : ... .. . ... : ... .. . ... : ... .. . ... ... : ... .. . ... ... : ... .. . ... ... : ... .. . ... ...
ROW 47 : ... .. . ... ... ... : ... .. 5 ... ... ... : ... .. . ... : ... .. . ... : ... .. . ... ... : ... .. . ... ... : ... .. . ... ... : ... .. . ... ...
ROW 48 : ... .. . ... ... ... : ... .. . ... ... ... : ... .. . ... : ... .. . ... : ... .. . ... ... : ... .. . ... ... : ... .. . ... ... : ... .. . ... ...
ROW 49 : ... .. . ... ... ... : ... .. . ... ... ... : ... .. . ... : ... .. . ... : ... .. . ... ... : ... .. . ... ... : ... .. . ... ... : ... .. . ... ...
ROW 4A : ... .. . ... ... ... : ... .. 4 ... ... ... : ... .. . ... : ... .. . ... : ... .. . ... ... : ... .. . ... ... : ... .. . ... ... : ... .. . ... ...
ROW 4B : ... .. . ... ... ... : ... .. 3 ... ... ... : --- .. . ... : ... .. . ... : ... .. . ... ... : ... .. . ... ... : ... .. . ... ... : ... .. . ... ...
ROW 4C : ... .. . ... ... ... : ... .. . ... ... ... : ... .. . ... : ... .. . ... : ... .. . ... ... : ... .. . ... ... : ... .. . ... ... : ... .. . ... ...
ROW 4D : ... .. . ... ... ... : ... .. . ... ... ... : ... .. . ... : ... .. . ... : ... .. . ... ... : ... .. . ... ... : ... .. . ... ... : ... .. . ... ...
ROW 4E : ... .. . ... ... ... : ... .. 2 ... ... ... : ... .. . ... : ... .. . ... : ... .. . ... ... : ... .. . ... ... : ... .. . ... ... : ... .. . ... ...
ROW 4F : ... .. . ... ... ... : ... .. . ... ... ... : ... .. . ... : ... .. . ... : ... .. . ... ... : ... .. . ... ... : ... .. . ... ... : ... .. . ... ...
ROW 50 : ... .. . ... ... ... : B-3 00 6 ... ... ... : G#2 00 . ... : D-# 00 8 ... : ... .. . ... ... : D-3 01 2 ... ... : ... .. 2 ... ... : D#3 01 A ... ...
ROW 51 : ... .. . ... ... ... : ... .. 5 ... ... ... : ... .. . ... : ... .. 7 ... : ... .. . ... ... : ... .. . ... ... : ... .. . ... ... : ... .. 8 ... ...
ROW 52 : ... .. . ... ... ... : ... .. . ... ... ... : ... .. . ... : ... .. . ... : ... .. . ... ... : ... .. . ... ... : ... .. . ... ... : ... .. 5 ... ...
ROW 53 : ... .. . ... ... ... : ... .. . ... ... ... : ... .. . ... : ... .. 6 ... : ... .. . ... ... : ... .. 1 ... ... : ... .. 1 ... ... : ... .. . ... ...
ROW 54 : D#4 00 F ... ... ... : ... .. 4 ... ... ... : ... .. . ... : ... .. 5 ... : ... .. . ... ... : ... .. . ... ... : ... .. . ... ... : ... .. . ... ...
ROW 55 : ... .. E ... ... ... : ... .. 3 ... ... ... : ... .. . ... : ... .. 4 ... : ... .. . ... ... : ... .. . ... ... : ... .. . ... ... : ... .. . ... ...
ROW 56 : ... .. D ... ... ... : ... .. . ... ... ... : ... .. . ... : ... .. . ... : ... .. . ... ... : ... .. . ... ... : ... .. . ... ... : ... .. . ... ...
ROW 57 : ... .. A ... ... ... : ... .. . ... ... ... : ... .. . ... : ... .. . ... : ... .. . ... ... : ... .. . ... ... : ... .. . ... ... : ... .. . ... ...
ROW 58 : E-4 00 F ... ... ... : ... .. 2 ... ... ... : ... .. . ... : ... .. 3 ... : ... .. . ... ... : ... .. . ... ... : ... .. . ... ... : ... .. . ... ...
ROW 59 : ... .. E ... ... ... : ... .. . ... ... ... : ... .. . ... : ... .. . ... : ... .. . ... ... : ... .. . ... ... : ... .. . ... ... : ... .. . ... ...
ROW 5A : ... .. D ... ... ... : F-3 00 6 ... ... ... : ... .. . ... : ... .. 2 ... : ... .. . ... ... : ... .. . ... ... : ... .. . ... ... : ... .. . ... ...
ROW 5B : ... .. A ... ... ... : ... .. 5 ... ... ... : ... .. . ... : ... .. . ... : ... .. . ... ... : ... .. . ... ... : ... .. . ... ... : ... .. . ... ...
ROW 5C : F-4 00 F ... ... ... : ... .. . ... ... ... : ... .. . ... : ... .. . ... : ... .. . ... ... : ... .. . ... ... : ... .. . ... ... : ... .. . ... ...
ROW 5D : ... .. E ... ... ... : ... .. . ... ... ... : ... .. . ... : ... .. 1 ... : ... .. . ... ... : ... .. . ... ... : ... .. . ... ... : ... .. . ... ...
ROW 5E : ... .. D ... ... ... : ... .. 4 ... ... ... : ... .. . ... : ... .. . ... : ... .. . ... ... : ... .. . ... ... : ... .. . ... ... : ... .. . ... ...
ROW 5F : ... .. A ... ... ... : ... .. 3 ... ... ... : --- .. . ... : ... .. . ... : ... .. . ... ... : ... .. . ... ... : ... .. . ... ... : ... .. . ... ...
ROW 60 : F#4 00 F ... ... ... : ... .. . ... ... ... : ... .. . ... : ... .. 0 ... : ... .. . ... ... : ... .. . ... ... : ... .. . ... ... : ... .. . ... ...
ROW 61 : ... .. E ... ... ... : ... .. . ... ... ... : ... .. . ... : ... .. . ... : ... .. . ... ... : ... .. . ... ... : ... .. . ... ... : ... .. . ... ...
ROW 62 : ... .. D ... ... ... : ... .. 2 ... ... ... : ... .. . ... : ... .. . ... : ... .. . ... ... : ... .. . ... ... : ... .. . ... ... : ... .. . ... ...
ROW 63 : ... .. A ... ... ... : ... .. . ... ... ... : ... .. . ... : ... .. . ... : ... .. . ... ... : ... .. . ... ... : ... .. . ... ... : ... .. . ... ...
ROW 64 : G-4 00 F ... ... ... : D-4 00 6 ... ... ... : G-2 00 . ... : ... .. D ... : ... .. . ... ... : G-2 01 2 ... ... : D-3 01 2 ... ... : F-3 01 A ... ...
ROW 65 : ... .. E ... ... ... : ... .. 5 ... ... ... : ... .. . ... : ... .. B ... : ... .. . ... ... : ... .. . ... ... : ... .. . ... ... : ... .. 8 ... ...
ROW 66 : ... .. D ... ... ... : ... .. . ... ... ... : ... .. . ... : ... .. . ... : ... .. . ... ... : ... .. . ... ... : ... .. . ... ... : ... .. 5 ... ...
ROW 67 : ... .. A ... ... ... : ... .. . ... ... ... : ... .. . ... : ... .. A ... : ... .. . ... ... : ... .. 1 ... ... : ... .. 1 ... ... : ... .. . ... ...
ROW 68 : ... .. . ... ... ... : ... .. 4 ... ... ... : ... .. . ... : ... .. 8 ... : ... .. . ... ... : ... .. . ... ... : ... .. . ... ... : ... .. . ... ...
ROW 69 : ... .. . ... ... ... : ... .. 3 ... ... ... : ... .. . ... : ... .. 7 ... : ... .. . ... ... : ... .. . ... ... : ... .. . ... ... : ... .. . ... ...
ROW 6A : ... .. . ... ... ... : ... .. . ... ... ... : ... .. . ... : ... .. 6 ... : ... .. . ... ... : ... .. . ... ... : ... .. . ... ... : ... .. . ... ...
ROW 6B : ... .. . ... ... ... : ... .. . ... ... ... : ... .. . ... : ... .. . ... : ... .. . ... ... : ... .. . ... ... : ... .. . ... ... : ... .. . ... ...
ROW 6C : ... .. . ... ... ... : ... .. 2 ... ... ... : ... .. . ... : ... .. 5 ... : ... .. . ... ... : ... .. . ... ... : ... .. . ... ... : ... .. . ... ...
ROW 6D : ... .. . ... ... ... : ... .. . ... ... ... : ... .. . ... : ... .. . ... : ... .. . ... ... : ... .. . ... ... : ... .. . ... ... : ... .. . ... ...
ROW 6E : ... .. . ... ... ... : G-3 00 6 ... ... ... : ... .. . ... : ... .. 4 ... : ... .. . ... ... : ... .. . ... ... : ... .. . ... ... : ... .. . ... ...
ROW 6F : ... .. . ... ... ... : ... .. 5 ... ... ... : ... .. . ... : ... .. . ... : ... .. . ... ... : ... .. . ... ... : ... .. . ... ... : ... .. . ... ...
ROW 70 : ... .. . ... ... ... : ... .. . ... ... ... : ... .. . ... : ... .. 3 ... : ... .. . ... ... : ... .. . ... ... : ... .. . ... ... : ... .. . ... ...
ROW 71 : ... .. . ... ... ... : ... .. . ... ... ... : ... .. . ... : ... .. 2 ... : ... .. . ... ... : ... .. . ... ... : ... .. . ... ... : ... .. . ... ...
ROW 72 : ... .. . ... ... ... : ... .. 4 ... ... ... : ... .. . ... : ... .. . ... : ... .. . ... ... : ... .. . ... ... : ... .. . ... ... : ... .. . ... ...
ROW 73 : ... .. . ... ... ... : ... .. 3 ... ... ... : --- .. . ... : ... .. 1 ... : ... .. . ... ... : ... .. . ... ... : ... .. . ... ... : ... .. . ... ...
ROW 74 : ... .. . ... ... ... : ... .. . ... ... ... : ... .. . ... : ... .. 0 ... : ... .. . ... ... : ... .. . ... ... : ... .. . ... ... : ... .. . ... ...
ROW 75 : ... .. . ... ... ... : ... .. . ... ... ... : ... .. . ... : ... .. . ... : ... .. . ... ... : ... .. . ... ... : ... .. . ... ... : ... .. . ... ...
ROW 76 : ... .. . ... ... ... : ... .. 2 ... ... ... : ... .. . ... : ... .. . ... : ... .. . ... ... : ... .. . ... ... : ... .. . ... ... : ... .. . ... ...
ROW 77 : ... .. . ... ... ... : ... .. . ... ... ... : ... .. . ... : ... .. . ... : ... .. . ... ... : ... .. . ... ... : ... .. . ... ... : ... .. . ... ...
ROW 78 : ... .. . ... ... ... : B-3 00 6 ... ... ... : G-2 00 . ... : 9-# 00 A ... : ... .. . ... ... : D-3 01 2 ... ... : ... .. 2 ... ... : G-3 01 A ... ...
ROW 79 : ... .. . ... ... ... : ... .. 5 ... ... ... : ... .. . ... : ... .. 8 ... : ... .. . ... ... : ... .. . ... ... : ... .. . ... ... : ... .. 8 ... ...
ROW 7A : ... .. . ... ... ... : ... .. . ... ... ... : ... .. . ... : ... .. 4 ... : ... .. . ... ... : ... .. . ... ... : ... .. . ... ... : ... .. 5 ... ...
ROW 7B : ... .. . ... ... ... : ... .. . ... ... ... : ... .. . ... : ... .. 2 ... : ... .. . ... ... : ... .. 1 ... ... : ... .. 1 ... ... : ... .. . ... ...
ROW 7C : ... .. . ... ... ... : ... .. 4 ... ... ... : ... .. . ... : ... .. 1 ... : ... .. . ... ... : ... .. . ... ... : ... .. . ... ... : ... .. . ... ...
ROW 7D : ... .. . P84 ... ... : ... .. 3 ... ... ... : ... .. . ... : ... .. 0 ... : ... .. . ... ... : ... .. . ... ... : ... .. . ... ... : ... .. . ... ...
ROW 7E : G#4 00 A P7E ... ... : ... .. . ... ... ... : ... .. . ... : ... .. . ... : ... .. . ... ... : ... .. . ... ... : ... .. . ... ... : ... .. . ... ...
ROW 7F : ... .. . P7D ... ... : ... .. . ... ... ... : ... .. . ... : ... .. 8 ... : ... .. . ... ... : ... .. . ... ... : ... .. . ... ... : ... .. . ... ...
ROW 80 : G-4 00 A P82 ... ... : ... .. 2 ... ... ... : ... .. . ... : ... .. 6 ... : ... .. . ... ... : ... .. . ... ... : ... .. . ... ... : ... .. . ... ...
ROW 81 : ... .. . P7E ... ... : ... .. . ... ... ... : ... .. . ... : ... .. 3 ... : ... .. . ... ... : ... .. . ... ... : ... .. . ... ... : ... .. . ... ...
ROW 82 : F#4 00 A P83 ... ... : D-4 00 6 ... ... ... : ... .. . ... : ... .. 1 ... : ... .. . ... ... : ... .. . ... ... : ... .. . ... ... : ... .. . ... ...
ROW 83 : ... .. . P82 ... ... : ... .. 5 ... ... ... : ... .. . ... : ... .. . ... : ... .. . ... ... : ... .. . ... ... : ... .. . ... ... : ... .. . ... ...
ROW 84 : ... .. . P84 ... ... : ... .. . ... ... ... : ... .. . ... : ... .. 0 ... : ... .. . ... ... : ... .. . ... ... : ... .. . ... ... : ... .. . ... ...
ROW 85 : G-4 00 A P80 ... ... : ... .. . ... ... ... : ... .. . ... : ... .. C ... : ... .. . ... ... : ... .. . ... ... : ... .. . ... ... : ... .. . ... ...
ROW 86 : ... .. . P83 ... ... : ... .. 4 ... ... ... : ... .. . ... : ... .. 9 ... : ... .. . ... ... : ... .. . ... ... : ... .. . ... ... : ... .. . ... ...
ROW 87 : G#4 00 A P7E ... ... : ... .. 3 ... ... ... : --- .. . ... : ... .. 4 ... : ... .. . ... ... : ... .. . ... ... : ... .. . ... ... : ... .. . ... ...
ROW 88 : ... .. . ... ... ... : ... .. . ... ... ... : ... .. . ... : ... .. 2 ... : ... .. . ... ... : ... .. . ... ... : ... .. . ... ... : ... .. . ... ...
ROW 89 : G-4 00 A P82 ... ... : ... .. . ... ... ... : ... .. . ... : ... .. 1 ... : ... .. . ... ... : ... .. . ... ... : ... .. . ... ... : ... .. . ... ...
ROW 8A : ... .. . P7F ... ... : ... .. 2 ... ... ... : ... .. . ... : ... .. 0 ... : ... .. . ... ... : ... .. . ... ... : ... .. . ... ... : ... .. . ... ...
ROW 8B : F#4 00 A P83 ... ... : ... .. . ... ... ... : ... .. . ... : ... .. . ... : ... .. . ... ... : ... .. . ... ... : ... .. . ... ... : ... .. . ... ...
ROW 8C : ... .. . P82 ... ... : G-4 00 6 ... ... ... : G-3 00 . ... : B-# 00 F ... : ... .. . ... ... : G-3 01 2 ... ... : B-2 01 2 ... ... : G-2 01 A ... ...
ROW 8D : ... .. . P84 ... ... : ... .. 5 ... ... ... : ... .. . ... : ... .. C ... : ... .. . ... ... : ... .. . ... ... : ... .. . ... ... : ... .. 8 ... ...
ROW 8E : G-4 00 A P80 ... ... : ... .. . ... ... ... : ... .. . ... : ... .. 6 ... : ... .. . ... ... : ... .. . ... ... : ... .. . ... ... : ... .. 5 ... ...
ROW 8F : ... .. . P83 ... ... : ... .. . ... ... ... : ... .. . ... : ... .. 3 ... : ... .. . ... ... : ... .. 1 ... ... : ... .. 1 ... ... : ... .. . ... ...
ROW 90 : G#4 00 A P7E ... ... : ... .. 4 ... ... ... : ... .. . ... : ... .. 2 ... : ... .. . ... ... : ... .. . ... ... : ... .. . ... ... : ... .. . ... ...
ROW 91 : ... .. . ... ... ... : ... .. 3 ... ... ... : ... .. . ... : ... .. 0 ... : ... .. . ... ... : ... .. . ... ... : ... .. . ... ... : ... .. . ... ...
ROW 92 : G-4 00 A P83 ... ... : ... .. . ... ... ... : ... .. . ... : ... .. . ... : ... .. . ... ... : ... .. . ... ... : ... .. . ... ... : ... .. . ... ...
ROW 93 : ... .. . P80 ... ... : ... .. . ... ... ... : ... .. . ... : ... .. . ... : ... .. . ... ... : ... .. . ... ... : ... .. . ... ... : ... .. . ... ...
ROW 94 : F#4 00 A P84 ... ... : ... .. 2 ... ... ... : ... .. . ... : ... .. . ... : ... .. . ... ... : ... .. . ... ... : ... .. . ... ... : ... .. . ... ...
ROW 95 : ... .. . P82 ... ... : ... .. . ... ... ... : ... .. . ... : ... .. . ... : ... .. . ... ... : ... .. . ... ... : ... .. . ... ... : ... .. . ... ...
ROW 96 : ... .. . P83 ... ... : F-4 00 6 ... ... ... : F-3 00 . ... : 9-# 00 F ... : ... .. . ... ... : ... .. . ... ... : ... .. . ... ... : F-2 01 A ... ...
ROW 97 : G-4 00 A P7F ... ... : ... .. 5 ... ... ... : ... .. . ... : ... .. C ... : ... .. . ... ... : ... .. . ... ... : ... .. . ... ... : ... .. 8 ... ...
ROW 98 : ... .. . P82 ... ... : ... .. . ... ... ... : ... .. . ... : ... .. 6 ... : ... .. . ... ... : ... .. . ... ... : ... .. . ... ... : ... .. 5 ... ...
ROW 99 : G#4 00 A P7E ... ... : ... .. . ... ... ... : ... .. . ... : ... .. 3 ... : ... .. . ... ... : ... .. . ... ... : ... .. . ... ... : ... .. . ... ...
ROW 9A : ... .. . ... ... ... : ... .. 4 ... ... ... : ... .. . ... : ... .. 2 ... : ... .. . ... ... : ... .. . ... ... : ... .. . ... ... : ... .. . ... ...
ROW 9B : G-4 00 A P83 ... ... : ... .. 3 ... ... ... : --- .. . ... : ... .. 0 ... : ... .. . ... ... : ... .. . ... ... : ... .. . ... ... : ... .. . ... ...
ROW 9C : ... .. 2 P80 ... ... : ... .. . ... ... ... : ... .. . ... : ... .. . ... : ... .. . ... ... : ... .. . ... ... : ... .. . ... ... : ... .. . ... ...
ROW 9D : F#4 00 2 P84 ... ... : ... .. . ... ... ... : ... .. . ... : ... .. . ... : ... .. . ... ... : ... .. . ... ... : ... .. . ... ... : ... .. . ... ...
ROW 9E : ... .. . P82 ... ... : ... .. 2 ... ... ... : ... .. . ... : ... .. . ... : ... .. . ... ... : ... .. . ... ... : ... .. . ... ... : ... .. . ... ...
ROW 9F : ... .. 1 P83 ... ... : ... .. . ... ... ... : ... .. . ... : ... .. . ... : ... .. . ... ... : ... .. . ... ... : ... .. . ... ... : ... .. . ... ...
ROW A0 : G-4 00 1 P7E ... ... : D#4 00 6 ... ... ... : D#3 00 . ... : 7-# 00 F ... : ... .. . ... ... : F-3 01 2 ... ... : ... .. 2 ... ... : D#2 01 A ... ...
ROW A1 : ... .. . P82 ... ... : ... .. 5 ... ... ... : ... .. . ... : ... .. C ... : ... .. . ... ... : ... .. . ... ... : ... .. . ... ... : ... .. 8 ... ...
ROW A2 : ... .. 0 ... V00 ... : ... .. . ... ... ... : ... .. . ... : ... .. 6 ... : ... .. . ... ... : ... .. . ... ... : ... .. . ... ... : ... .. 5 ... ...
ROW A3 : ... .. . ... ... ... : ... .. . ... ... ... : ... .. . ... : ... .. 3 ... : ... .. . ... ... : ... .. 1 ... ... : ... .. 1 ... ... : ... .. . ... ...
ROW A4 : ... .. . ... ... ... : ... .. 4 ... ... ... : ... .. . ... : ... .. 2 ... : ... .. . ... ... : ... .. . ... ... : ... .. . ... ... : ... .. . ... ...
ROW A5 : ... .. . ... ... ... : ... .. 3 ... ... ... : --- .. . ... : ... .. 0 ... : ... .. . ... ... : ... .. . ... ... : ... .. . ... ... : ... .. . ... ...
ROW A6 : ... .. . ... ... ... : ... .. . ... ... ... : ... .. . ... : ... .. . ... : ... .. . ... ... : ... .. . ... ... : ... .. . ... ... : ... .. . ... ...
ROW A7 : ... .. . ... ... ... : ... .. . ... ... ... : ... .. . ... : ... .. . ... : ... .. . ... ... : ... .. . ... ... : ... .. . ... ... : ... .. . ... ...
ROW A8 : ... .. . ... ... ... : ... .. 2 ... ... ... : ... .. . ... : ... .. . ... : ... .. . ... ... : ... .. . ... ... : ... .. . ... ... : ... .. . ... ...
ROW A9 : ... .. . ... ... ... : ... .. . ... ... ... : ... .. . ... : ... .. . ... : ... .. . ... ... : ... .. . ... ... : ... .. . ... ... : ... .. . ... ...
ROW AA : G-4 00 A P81 V02 ... : D-4 00 6 ... ... ... : D-3 00 . ... : 5-# 00 F ... : ... .. . ... ... : ... .. . ... ... : ... .. . ... ... : D-2 01 A ... ...
ROW AB : G#4 00 2 P7D ... ... : ... .. 5 ... ... ... : ... .. . ... : ... .. C ... : ... .. . ... ... : ... .. . ... ... : ... .. . ... ... : ... .. 8 ... ...
ROW AC : ... .. . P7E ... ... : ... .. . ... ... ... : ... .. . ... : ... .. 6 ... : ... .. . ... ... : ... .. . ... ... : ... .. . ... ... : ... .. 5 ... ...
ROW AD : G-4 00 2 P84 ... ... : ... .. . ... ... ... : ... .. . ... : ... .. 3 ... : ... .. . ... ... : ... .. . ... ... : ... .. . ... ... : ... .. . ... ...
ROW AE : ... .. 1 P80 ... ... : ... .. 4 ... ... ... : ... .. . ... : ... .. 2 ... : ... .. . ... ... : ... .. . ... ... : ... .. . ... ... : ... .. . ... ...
ROW AF : ... .. . P7D ... ... : ... .. 3 ... ... ... : --- .. . ... : ... .. 0 ... : ... .. . ... ... : ... .. . ... ... : ... .. . ... ... : ... .. . ... ...
ROW B0 : F#4 00 1 P82 ... ... : ... .. . ... ... ... : ... .. . ... : ... .. . ... : ... .. . ... ... : ... .. . ... ... : ... .. . ... ... : ... .. . ... ...
ROW B1 : ... .. 0 ... V00 ... : ... .. . ... ... ... : ... .. . ... : ... .. . ... : ... .. . ... ... : ... .. . ... ... : ... .. . ... ... : ... .. . ... ...
ROW B2 : ... .. . ... ... ... : ... .. 2 ... ... ... : ... .. . ... : ... .. . ... : ... .. . ... ... : ... .. . ... ... : ... .. . ... ... : ... .. . ... ...
ROW B3 : ... .. . ... ... ... : ... .. . ... ... ... : ... .. . ... : ... .. . ... : ... .. . ... ... : ... .. . ... ... : ... .. . ... ... : ... .. . ... ...
ROW B4 : ... .. . ... ... ... : D#3 00 6 ... ... ... : C-2 00 . ... : D-# 00 D V01 : ... .. . ... ... : D#4 01 6 ... ... : G-4 01 6 ... ... : D#4 01 A P80 ...
ROW B5 : ... .. . ... ... ... : ... .. 5 ... ... ... : ... .. . ... : ... .. B ... : ... .. . ... ... : ... .. 5 ... ... : ... .. 5 ... ... : ... .. 8 ... ...
ROW B6 : ... .. . ... ... ... : ... .. . ... ... ... : ... .. . ... : ... .. . ... : ... .. . ... ... : ... .. . ... ... : ... .. . ... ... : ... .. 5 ... ...
ROW B7 : ... .. . ... ... ... : ... .. . ... ... ... : ... .. . ... : ... .. A ... : ... .. . ... ... : ... .. 4 ... ... : ... .. 4 ... ... : ... .. . ... ...
ROW B8 : ... .. . ... ... ... : ... .. 4 ... ... ... : ... .. . ... : ... .. 8 ... : ... .. . ... ... : ... .. . ... ... : ... .. . ... ... : ... .. . ... ...
ROW B9 : ... .. . ... ... ... : ... .. 3 ... ... ... : ... .. . ... : ... .. 7 ... : ... .. . ... ... : ... .. . ... ... : ... .. . ... ... : ... .. . ... ...
ROW BA : ... .. . ... ... ... : ... .. . ... ... ... : ... .. . ... : ... .. 6 ... : ... .. . ... ... : ... .. . ... ... : ... .. . ... ... : ... .. 2 ... ...
ROW BB : ... .. . ... ... ... : ... .. . ... ... ... : ... .. . ... : ... .. . ... : ... .. . ... ... : ... .. 3 ... ... : ... .. 3 ... ... : ... .. . ... ...
ROW BC : ... .. . ... ... ... : ... .. 2 ... ... ... : ... .. . ... : ... .. 5 ... : ... .. . ... ... : ... .. 2 ... ... : ... .. 2 ... ... : ... .. 1 ... ...
ROW BD : ... .. . ... ... ... : ... .. . ... ... ... : ... .. . ... : ... .. . ... : ... .. . ... ... : ... .. . ... ... : ... .. . ... ... : ... .. . ... ...
ROW BE : ... .. . ... ... ... : G-2 00 6 ... ... ... : ... .. . ... : ... .. 4 ... : ... .. . ... ... : ... .. 1 ... ... : ... .. 1 ... ... : D-4 01 A ... ...
ROW BF : ... .. . ... ... ... : ... .. 5 ... ... ... : ... .. . ... : ... .. . ... : ... .. . ... ... : ... .. . ... ... : ... .. . ... ... : ... .. 8 ... ...
ROW C0 : ... .. . ... ... ... : ... .. . ... ... ... : ... .. . ... : ... .. 3 ... : ... .. . ... ... : ... .. . ... ... : ... .. . ... ... : ... .. 5 ... ...
ROW C1 : ... .. . ... ... ... : ... .. . ... ... ... : ... .. . ... : ... .. 2 ... : ... .. . ... ... : ... .. . ... ... : ... .. . ... ... : ... .. . ... ...
ROW C2 : ... .. . ... ... ... : ... .. 4 ... ... ... : ... .. . ... : ... .. . ... : ... .. . ... ... : ... .. . ... ... : ... .. . ... ... : ... .. . ... ...
ROW C3 : ... .. . ... ... ... : ... .. 3 ... ... ... : --- .. . ... : ... .. 1 ... : ... .. . ... ... : ... .. . ... ... : ... .. . ... ... : ... .. . ... ...
ROW C4 : ... .. . ... ... ... : ... .. . ... ... ... : ... .. . ... : ... .. 0 ... : ... .. . ... ... : ... .. . ... ... : ... .. . ... ... : ... .. 2 ... ...
ROW C5 : ... .. . ... ... ... : ... .. . ... ... ... : ... .. . ... : ... .. . ... : ... .. . ... ... : ... .. . ... ... : ... .. . ... ... : ... .. . ... ...
ROW C6 : ... .. . ... ... ... : ... .. 2 ... ... ... : ... .. . ... : ... .. . ... : ... .. . ... ... : ... .. . ... ... : ... .. . ... ... : ... .. 1 ... ...
ROW C7 : ... .. . ... ... ... : ... .. . ... ... ... : ... .. . ... : ... .. . ... : ... .. . ... ... : ... .. . ... ... : ... .. . ... ... : ... .. . ... ...
ROW C8 : G-3 00 F P80 V01 ... : C-3 00 6 ... ... ... : F-4 00 . ... : 9-# 00 A V00 : ... .. . ... ... : ... .. 6 ... ... : ... .. 6 ... ... : D#4 01 A ... ...
ROW C9 : ... .. E ... ... ... : ... .. 5 ... ... ... : ... .. . ... : ... .. 8 ... : ... .. . ... ... : ... .. 5 ... ... : ... .. 5 ... ... : ... .. 8 ... ...
ROW CA : ... .. D ... ... ... : ... .. . ... ... ... : ... .. . ... : ... .. 4 ... : ... .. . ... ... : ... .. . ... ... : ... .. . ... ... : ... .. 5 ... ...
ROW CB : ... .. A ... ... ... : ... .. . ... ... ... : ... .. . ... : ... .. 2 ... : ... .. . ... ... : ... .. 4 ... ... : ... .. 4 ... ... : ... .. . ... ...
ROW CC : ... .. . ... ... ... : ... .. 4 ... ... ... : ... .. . ... : ... .. 1 ... : ... .. . ... ... : ... .. . ... ... : ... .. . ... ... : ... .. . ... ...
ROW CD : ... .. . ... ... ... : ... .. 3 ... ... ... : ... .. . ... : ... .. 0 ... : ... .. . ... ... : ... .. . ... ... : ... .. . ... ... : ... .. . ... ...
ROW CE : ... .. 2 ... ... ... : ... .. . ... ... ... : ... .. . ... : ... .. . ... : ... .. . ... ... : ... .. . ... ... : ... .. . ... ... : ... .. . ... ...
ROW CF : ... .. . ... ... ... : ... .. . ... ... ... : ... .. . ... : ... .. . ... : ... .. . ... ... : ... .. 3 ... ... : ... .. 3 ... ... : ... .. . ... ...
ROW D0 : ... .. . ... ... ... : ... .. 2 ... ... ... : ... .. . ... : ... .. . ... : ... .. . ... ... : ... .. 2 ... ... : ... .. 2 ... ... : ... .. . ... ...
ROW D1 : ... .. 1 ... ... ... : ... .. . ... ... ... : ... .. . ... : ... .. . ... : ... .. . ... ... : ... .. . ... ... : ... .. . ... ... : ... .. . ... ...
ROW D2 : ... .. . ... ... ... : G-2 00 6 ... ... ... : ... .. . ... : ... .. 8 ... : ... .. . ... ... : ... .. 1 ... ... : ... .. 1 ... ... : ... .. . ... ...
ROW D3 : ... .. . ... ... ... : ... .. 5 ... ... ... : ... .. . ... : ... .. 6 ... : ... .. . ... ... : ... .. . ... ... : ... .. . ... ... : ... .. . ... ...
ROW D4 : ... .. 0 ... V00 ... : ... .. . ... ... ... : ... .. . ... : ... .. 3 ... : ... .. . ... ... : ... .. . ... ... : ... .. . ... ... : ... .. . ... ...
ROW D5 : ... .. . ... ... ... : ... .. . ... ... ... : ... .. . ... : ... .. 1 ... : ... .. . ... ... : ... .. . ... ... : ... .. . ... ... : ... .. . ... ...
ROW D6 : ... .. . ... ... ... : ... .. 4 ... ... ... : ... .. . ... : ... .. . ... : ... .. . ... ... : ... .. . ... ... : ... .. . ... ... : ... .. . ... ...
ROW D7 : ... .. . ... ... ... : ... .. 3 ... ... ... : --- .. . ... : ... .. 0 ... : ... .. . ... ... : ... .. . ... ... : ... .. . ... ... : ... .. . ... ...
ROW D8 : ... .. . ... ... ... : ... .. . ... ... ... : ... .. . ... : ... .. . ... : ... .. . ... ... : ... .. . ... ... : ... .. . ... ... : ... .. 2 ... ...
ROW D9 : ... .. . ... ... ... : ... .. . ... ... ... : ... .. . ... : ... .. . ... : ... .. . ... ... : ... .. . ... ... : ... .. . ... ... : ... .. . ... ...
ROW DA : ... .. . ... ... ... : ... .. 2 ... ... ... : ... .. . ... : ... .. . ... : ... .. . ... ... : ... .. . ... ... : ... .. . ... ... : ... .. 1 ... ...
ROW DB : ... .. . ... ... ... : ... .. . ... ... ... : ... .. . ... : ... .. . ... : ... .. . ... ... : ... .. . ... ... : ... .. . ... ... : ... .. . ... ...
ROW DC : G-3 00 F P80 V01 ... : D#3 00 6 ... ... ... : D#4 00 . ... : ... .. F ... : ... .. . ... ... : D-4 01 6 ... ... : ... .. 6 ... ... : C-4 01 A ... ...
ROW DD : ... .. E ... ... ... : ... .. 5 ... ... ... : ... .. . ... : ... .. C ... : ... .. . ... ... : ... .. 5 ... ... : ... .. 5 ... ... : ... .. 8 ... ...
ROW DE : ... .. D ... ... ... : ... .. . ... ... ... : ... .. . ... : ... .. 6 ... : ... .. . ... ... : ... .. . ... ... : ... .. . ... ... : ... .. 5 ... ...
ROW DF : ... .. A ... ... ... : ... .. . ... ... ... : ... .. . ... : ... .. 3 ... : ... .. . ... ... : ... .. 4 ... ... : ... .. 4 ... ... : ... .. . ... ...
ROW E0 : ... .. . ... ... ... : ... .. 4 ... ... ... : ... .. . ... : ... .. 2 ... : ... .. . ... ... : ... .. . ... ... : ... .. . ... ... : ... .. . ... ...
ROW E1 : ... .. . ... ... ... : ... .. 3 ... ... ... : ... .. . ... : ... .. 0 ... : ... .. . ... ... : ... .. . ... ... : ... .. . ... ... : ... .. . ... ...
ROW E2 : ... .. . ... ... ... : ... .. . ... ... ... : ... .. . ... : ... .. . ... : ... .. . ... ... : ... .. . ... ... : ... .. . ... ... : ... .. 2 ... ...
ROW E3 : ... .. . ... ... ... : ... .. . ... ... ... : ... .. . ... : ... .. . ... : ... .. . ... ... : ... .. 3 ... ... : ... .. 3 ... ... : ... .. . ... ...
ROW E4 : ... .. . ... ... ... : ... .. 2 ... ... ... : ... .. . ... : ... .. . ... : ... .. . ... ... : ... .. 2 ... ... : ... .. 2 ... ... : ... .. 1 ... ...
ROW E5 : ... .. . ... ... ... : ... .. . ... ... ... : ... .. . ... : ... .. . ... : ... .. . ... ... : ... .. . ... ... : ... .. . ... ... : ... .. . ... ...
ROW E6 : ... .. . ... ... ... : G-2 00 6 ... ... ... : D-4 00 . ... : ... .. . ... : ... .. . ... ... : ... .. 1 ... ... : ... .. 1 ... ... : B-3 01 A ... ...
ROW E7 : ... .. . ... ... ... : ... .. 5 ... ... ... : ... .. . ... : ... .. . ... : ... .. . ... ... : ... .. . ... ... : ... .. . ... ... : ... .. 8 ... ...
ROW E8 : ... .. . ... ... ... : ... .. . ... ... ... : ... .. . ... : ... .. . ... : ... .. . ... ... : ... .. . ... ... : ... .. . ... ... : ... .. 5 ... ...
ROW E9 : ... .. . ... ... ... : ... .. . ... ... ... : ... .. . ... : ... .. . ... : ... .. . ... ... : ... .. . ... ... : ... .. . ... ... : ... .. . ... ...
ROW EA : ... .. . ... ... ... : ... .. 4 ... ... ... : ... .. . ... : ... .. . ... : ... .. . ... ... : ... .. . ... ... : ... .. . ... ... : ... .. . ... ...
ROW EB : ... .. . ... ... ... : ... .. 3 ... ... ... : --- .. . ... : ... .. . ... : ... .. . ... ... : ... .. . ... ... : ... .. . ... ... : ... .. . ... ...
ROW EC : ... .. . ... ... ... : ... .. . ... ... ... : ... .. . ... : ... .. . ... : ... .. . ... ... : ... .. . ... ... : ... .. . ... ... : ... .. 2 ... ...
ROW ED : ... .. . ... ... ... : ... .. . ... ... ... : ... .. . ... : ... .. . ... : ... .. . ... ... : ... .. . ... ... : ... .. . ... ... : ... .. . ... ...
ROW EE : ... .. . ... ... ... : ... .. 2 ... ... ... : ... .. . ... : ... .. . ... : ... .. . ... ... : ... .. . ... ... : ... .. . ... ... : ... .. 1 ... ...
ROW EF : ... .. . ... ... ... : ... .. . ... ... ... : ... .. . ... : ... .. . ... : ... .. . ... ... : ... .. . ... ... : ... .. . ... ... : ... .. . ... ...
ROW F0 : F-4 00 F ... ... ... : C-3 00 6 ... ... ... : D#4 00 . ... : D-# 00 8 ... : ... .. . ... ... : ... .. 6 ... ... : ... .. 6 ... ... : C-4 01 A ... ...
ROW F1 : ... .. E ... ... ... : ... .. 5 ... ... ... : ... .. . ... : ... .. 7 ... : ... .. . ... ... : ... .. 5 ... ... : ... .. 5 ... ... : ... .. 8 ... ...
ROW F2 : ... .. D ... ... ... : ... .. . ... ... ... : ... .. . ... : ... .. . ... : ... .. . ... ... : ... .. . ... ... : ... .. . ... ... : ... .. 5 ... ...
ROW F3 : ... .. A ... ... ... : ... .. . ... ... ... : ... .. . ... : ... .. 6 ... : ... .. . ... ... : ... .. 4 ... ... : ... .. 4 ... ... : ... .. . ... ...
ROW F4 : ... .. . ... ... ... : ... .. 4 ... ... ... : ... .. . ... : ... .. 5 ... : ... .. . ... ... : ... .. . ... ... : ... .. . ... ... : ... .. . ... ...
ROW F5 : ... .. . ... ... ... : ... .. 3 ... ... ... : ... .. . ... : ... .. 4 ... : ... .. . ... ... : ... .. . ... ... : ... .. . ... ... : ... .. . ... ...
ROW F6 : ... .. 2 ... ... ... : ... .. . ... ... ... : ... .. . ... : ... .. . ... : ... .. . ... ... : ... .. . ... ... : ... .. . ... ... : ... .. . ... ...
ROW F7 : ... .. . ... ... ... : ... .. . ... ... ... : ... .. . ... : ... .. . ... : ... .. . ... ... : ... .. 3 ... ... : ... .. 3 ... ... : ... .. . ... ...
ROW F8 : ... .. . ... ... ... : ... .. 2 ... ... ... : ... .. . ... : ... .. 3 ... : ... .. . ... ... : ... .. 2 ... ... : ... .. 2 ... ... : ... .. . ... ...
ROW F9 : ... .. 1 ... ... ... : ... .. . ... ... ... : ... .. . ... : ... .. . ... : ... .. . ... ... : ... .. . ... ... : ... .. . ... ... : ... .. . ... ...
ROW FA : ... .. . ... ... ... : G-2 00 6 ... ... ... : ... .. . ... : ... .. 2 ... : ... .. . ... ... : ... .. 1 ... ... : ... .. 1 ... ... : ... .. . ... ...
ROW FB : ... .. . ... ... ... : ... .. 5 ... ... ... : ... .. . ... : ... .. . ... : ... .. . ... ... : ... .. . ... ... : ... .. . ... ... : ... .. . ... ...
ROW FC : ... .. 0 ... V00 ... : ... .. . ... ... ... : ... .. . ... : ... .. . ... : ... .. . ... ... : ... .. . ... ... : ... .. . ... ... : ... .. . ... ...
ROW FD : ... .. . ... ... ... : ... .. . ... ... ... : ... .. . ... : ... .. 1 ... : ... .. . ... ... : ... .. . ... ... : ... .. . ... ... : ... .. . ... ...
ROW FE : ... .. . ... ... ... : ... .. 4 ... ... ... : ... .. . ... : ... .. . ... : ... .. . ... ... : ... .. . ... ... : ... .. . ... ... : ... .. . ... ...
ROW FF : ... .. . ... ... ... : ... .. 3 ... ... ... : --- .. . ... : ... .. . ... : ... .. . ... ... : ... .. . ... ... : ... .. . ... ... : ... .. . ... ...

PATTERN 06
ROW 00 : ... .. . ... ... ... : ... .. . ... ... ... : ... .. . ... : ... .. 0 ... : ... .. . ... ... : ... .. . ... ... : ... .. . ... ... : ... .. 2 ... ...
ROW 01 : ... .. . ... ... ... : ... .. . ... ... ... : ... .. . ... : ... .. . ... : ... .. . ... ... : ... .. . ... ... : ... .. . ... ... : ... .. . ... ...
ROW 02 : ... .. . ... ... ... : ... .. 2 ... ... ... : ... .. . ... : ... .. . ... : ... .. . ... ... : ... .. . ... ... : ... .. . ... ... : ... .. 1 ... ...
ROW 03 : ... .. . ... ... ... : ... .. . ... ... ... : ... .. . ... : ... .. . ... : ... .. . ... ... : ... .. . ... ... : ... .. . ... ... : ... .. . ... ...
ROW 04 : F-4 00 F P80 V01 ... : D#3 00 6 ... ... ... : C-2 00 . ... : ... .. D ... : ... .. . ... ... : D#4 01 6 ... ... : ... .. 6 ... ... : G-3 01 A ... ...
ROW 05 : ... .. E ... ... ... : ... .. 5 ... ... ... : ... .. . ... : ... .. B ... : ... .. . ... ... : ... .. 5 ... ... : ... .. 5 ... ... : ... .. 8 ... ...
ROW 06 : ... .. D ... ... ... : ... .. . ... ... ... : ... .. . ... : ... .. . ... : ... .. . ... ... : ... .. . ... ... : ... .. . ... ... : ... .. 5 ... ...
ROW 07 : ... .. A ... ... ... : ... .. . ... ... ... : ... .. . ... : ... .. A ... : ... .. . ... ... : ... .. 4 ... ... : ... .. 4 ... ... : ... .. . ... ...
ROW 08 : ... .. . ... ... ... : ... .. 4 ... ... ... : ... .. . ... : ... .. 8 ... : ... .. . ... ... : ... .. . ... ... : ... .. . ... ... : ... .. . ... ...
ROW 09 : ... .. . ... ... ... : ... .. 3 ... ... ... : ... .. . ... : ... .. 7 ... : ... .. . ... ... : ... .. . ... ... : ... .. . ... ... : ... .. . ... ...
ROW 0A : ... .. . ... ... ... : ... .. . ... ... ... : ... .. . ... : ... .. 6 ... : ... .. . ... ... : ... .. . ... ... : ... .. . ... ... : ... .. 2 ... ...
ROW 0B : ... .. . ... ... ... : ... .. . ... ... ... : ... .. . ... : ... .. . ... : ... .. . ... ... : ... .. 3 ... ... : ... .. 3 ... ... : ... .. . ... ...
ROW 0C : ... .. . ... ... ... : ... .. 2 ... ... ... : ... .. . ... : ... .. 5 ... : ... .. . ... ... : ... .. 2 ... ... : ... .. 2 ... ... : ... .. 1 ... ...
ROW 0D : ... .. . ... ... ... : ... .. . ... ... ... : ... .. . ... : ... .. . ... : ... .. . ... ... : ... .. . ... ... : ... .. . ... ... : ... .. . ... ...
ROW 0E : ... .. . P81 ... ... : G-2 00 6 ... ... ... : ... .. . ... : ... .. 4 ... : ... .. . ... ... : ... .. 1 ... ... : ... .. 1 ... ... : F-3 01 A ... ...
ROW 0F : ... .. . P82 ... ... : ... .. 5 ... ... ... : ... .. . ... : ... .. . ... : ... .. . ... ... : ... .. . ... ... : ... .. . ... ... : ... .. 8 ... ...
ROW 10 : ... .. . P80 ... ... : ... .. . ... ... ... : ... .. . ... : ... .. 3 ... : ... .. . ... ... : ... .. . ... ... : ... .. . ... ... : ... .. 5 ... ...
ROW 11 : ... .. . ... ... ... : ... .. . ... ... ... : ... .. . ... : ... .. 2 ... : ... .. . ... ... : ... .. . ... ... : ... .. . ... ... : ... .. . ... ...
ROW 12 : ... .. . P7E ... ... : ... .. 4 ... ... ... : ... .. . ... : ... .. . ... : ... .. . ... ... : ... .. . ... ... : ... .. . ... ... : ... .. . ... ...
ROW 13 : ... .. . P7F ... ... : ... .. 3 ... ... ... : --- .. . ... : ... .. 1 ... : ... .. . ... ... : ... .. . ... ... : ... .. . ... ... : ... .. . ... ...
ROW 14 : ... .. . P80 ... ... : ... .. . ... ... ... : ... .. . ... : ... .. 0 ... : ... .. . ... ... : ... .. . ... ... : ... .. . ... ... : ... .. 2 ... ...
ROW 15 : ... .. . P81 ... ... : ... .. . ... ... ... : ... .. . ... : ... .. . ... : ... .. . ... ... : ... .. . ... ... : ... .. . ... ... : ... .. . ... ...
ROW 16 : ... .. . P82 ... ... : ... .. 2 ... ... ... : ... .. . ... : ... .. . ... : ... .. . ... ... : ... .. . ... ... : ... .. . ... ... : ... .. 1 ... ...
ROW 17 : ... .. . P81 ... ... : ... .. . ... ... ... : ... .. . ... : ... .. . ... : ... .. . ... ... : ... .. . ... ... : ... .. . ... ... : ... .. . ... ...
ROW 18 : D#4 00 F P80 ... ... : C-3 00 6 ... ... ... : F-4 00 . ... : 9-# 00 A ... : ... .. . ... ... : ... .. 6 ... ... : ... .. 6 ... ... : G-3 01 A ... ...
ROW 19 : ... .. E ... ... ... : ... .. 5 ... ... ... : ... .. . ... : ... .. 8 ... : ... .. . ... ... : ... .. 5 ... ... : ... .. 5 ... ... : ... .. 8 ... ...
ROW 1A : ... .. D ... ... ... : ... .. . ... ... ... : ... .. . ... : ... .. 4 ... : ... .. . ... ... : ... .. . ... ... : ... .. . ... ... : ... .. 5 ... ...
ROW 1B : ... .. A ... ... ... : ... .. . ... ... ... : ... .. . ... : ... .. 2 ... : ... .. . ... ... : ... .. 4 ... ... : ... .. 4 ... ... : ... .. . ... ...
ROW 1C : ... .. . ... ... ... : ... .. 4 ... ... ... : ... .. . ... : ... .. 1 ... : ... .. . ... ... : ... .. . ... ... : ... .. . ... ... : ... .. . ... ...
ROW 1D : ... .. . ... ... ... : ... .. 3 ... ... ... : ... .. . ... : ... .. 0 ... : ... .. . ... ... : ... .. . ... ... : ... .. . ... ... : ... .. . ... ...
ROW 1E : ... .. 2 ... ... ... : ... .. . ... ... ... : ... .. . ... : ... .. . ... : ... .. . ... ... : ... .. . ... ... : ... .. . ... ... : ... .. . ... ...
ROW 1F : ... .. . ... ... ... : ... .. . ... ... ... : ... .. . ... : ... .. 8 ... : ... .. . ... ... : ... .. 3 ... ... : ... .. 3 ... ... : ... .. . ... ...
ROW 20 : ... .. . ... ... ... : ... .. 2 ... ... ... : ... .. . ... : ... .. 6 ... : ... .. . ... ... : ... .. 2 ... ... : ... .. 2 ... ... : ... .. . ... ...
ROW 21 : ... .. 1 ... ... ... : ... .. . ... ... ... : ... .. . ... : ... .. 3 ... : ... .. . ... ... : ... .. . ... ... : ... .. . ... ... : ... .. . ... ...
ROW 22 : D-4 00 F ... ... ... : G-2 00 6 ... ... ... : ... .. . ... : ... .. 1 ... : ... .. . ... ... : ... .. 1 ... ... : ... .. 1 ... ... : ... .. . ... ...
ROW 23 : ... .. E ... ... ... : ... .. 5 ... ... ... : ... .. . ... : ... .. . ... : ... .. . ... ... : ... .. . ... ... : ... .. . ... ... : ... .. . ... ...
ROW 24 : ... .. D ... ... ... : ... .. . ... ... ... : ... .. . ... : ... .. 0 ... : ... .. . ... ... : ... .. . ... ... : ... .. . ... ... : ... .. . ... ...
ROW 25 : ... .. A ... ... ... : ... .. . ... ... ... : ... .. . ... : ... .. C ... : ... .. . ... ... : ... .. . ... ... : ... .. . ... ... : ... .. . ... ...
ROW 26 : ... .. . ... ... ... : ... .. 4 ... ... ... : ... .. . ... : ... .. 9 ... : ... .. . ... ... : ... .. . ... ... : ... .. . ... ... : ... .. . ... ...
ROW 27 : ... .. . ... ... ... : ... .. 3 ... ... ... : --- .. . ... : ... .. 4 ... : ... .. . ... ... : ... .. . ... ... : ... .. . ... ... : ... .. . ... ...
ROW 28 : ... .. 2 ... ... ... : ... .. . ... ... ... : ... .. . ... : ... .. 2 ... : ... .. . ... ... : ... .. . ... ... : ... .. . ... ... : ... .. 2 ... ...
ROW 29 : ... .. . ... ... ... : ... .. . ... ... ... : ... .. . ... : ... .. 1 ... : ... .. . ... ... : ... .. . ... ... : ... .. . ... ... : ... .. . ... ...
ROW 2A : ... .. . ... ... ... : ... .. 2 ... ... ... : ... .. . ... : ... .. 0 ... : ... .. . ... ... : ... .. . ... ... : ... .. . ... ... : ... .. 1 ... ...
ROW 2B : ... .. 1 ... ... ... : ... .. . ... ... ... : ... .. . ... : ... .. . ... : ... .. . ... ... : ... .. . ... ... : ... .. . ... ... : ... .. . ... ...
ROW 2C : D#4 00 F ... ... ... : D-3 00 6 ... ... ... : D#4 00 . ... : ... .. F ... : ... .. . ... ... : C-4 01 6 ... ... : ... .. 6 ... ... : D#3 01 A ... ...
ROW 2D : ... .. E ... ... ... : ... .. 5 ... ... ... : ... .. . ... : ... .. C ... : ... .. . ... ... : ... .. 5 ... ... : ... .. 5 ... ... : ... .. 8 ... ...
ROW 2E : ... .. D ... ... ... : ... .. . ... ... ... : ... .. . ... : ... .. 6 ... : ... .. . ... ... : ... .. . ... ... : ... .. . ... ... : ... .. 5 ... ...
ROW 2F : ... .. A ... ... ... : ... .. . ... ... ... : ... .. . ... : ... .. 3 ... : ... .. . ... ... : ... .. 4 ... ... : ... .. 4 ... ... : ... .. . ... ...
ROW 30 : ... .. . ... ... ... : ... .. 4 ... ... ... : ... .. . ... : ... .. 2 ... : ... .. . ... ... : ... .. . ... ... : ... .. . ... ... : ... .. . ... ...
ROW 31 : ... .. . ... ... ... : ... .. 3 ... ... ... : ... .. . ... : ... .. 0 ... : ... .. . ... ... : ... .. . ... ... : ... .. . ... ... : ... .. . ... ...
ROW 32 : ... .. . ... ... ... : ... .. . ... ... ... : ... .. . ... : ... .. . ... : ... .. . ... ... : ... .. . ... ... : ... .. . ... ... : ... .. 2 ... ...
ROW 33 : ... .. . ... ... ... : ... .. . ... ... ... : ... .. . ... : ... .. . ... : ... .. . ... ... : ... .. 3 ... ... : ... .. 3 ... ... : ... .. . ... ...
ROW 34 : ... .. . ... ... ... : ... .. 2 ... ... ... : ... .. . ... : ... .. . ... : ... .. . ... ... : ... .. 2 ... ... : ... .. 2 ... ... : ... .. 1 ... ...
ROW 35 : ... .. . ... ... ... : ... .. . ... ... ... : ... .. . ... : ... .. . ... : ... .. . ... ... : ... .. . ... ... : ... .. . ... ... : ... .. . ... ...
ROW 36 : ... .. . ... ... ... : G-2 00 6 ... ... ... : D-4 00 . ... : ... .. . ... : ... .. . ... ... : ... .. 1 ... ... : ... .. 1 ... ... : D-3 01 A ... ...
ROW 37 : ... .. . ... ... ... : ... .. 5 ... ... ... : ... .. . ... : ... .. . ... : ... .. . ... ... : ... .. . ... ... : ... .. . ... ... : ... .. 8 ... ...
ROW 38 : ... .. . ... ... ... : ... .. . ... ... ... : ... .. . ... : ... .. . ... : ... .. . ... ... : ... .. . ... ... : ... .. . ... ... : ... .. 5 ... ...
ROW 39 : ... .. . ... ... ... : ... .. . ... ... ... : ... .. . ... : ... .. . ... : ... .. . ... ... : ... .. . ... ... : ... .. . ... ... : ... .. . ... ...
ROW 3A : ... .. . ... ... ... : ... .. 4 ... ... ... : ... .. . ... : ... .. . ... : ... .. . ... ... : ... .. . ... ... : ... .. . ... ... : ... .. . ... ...
ROW 3B : ... .. . ... ... ... : ... .. 3 ... ... ... : --- .. . ... : ... .. . ... : ... .. . ... ... : ... .. . ... ... : ... .. . ... ... : ... .. . ... ...
ROW 3C : ... .. . ... ... ... : ... .. . ... ... ... : ... .. . ... : ... .. . ... : ... .. . ... ... : ... .. . ... ... : ... .. . ... ... : ... .. 2 ... ...
ROW 3D : ... .. . ... ... ... : ... .. . ... ... ... : ... .. . ... : ... .. . ... : ... .. . ... ... : ... .. . ... ... : ... .. . ... ... : ... .. . ... ...
ROW 3E : ... .. . ... ... ... : ... .. 2 ... ... ... : ... .. . ... : ... .. . ... : ... .. . ... ... : ... .. . ... ... : ... .. . ... ... : ... .. 1 ... ...
ROW 3F : ... .. . ... ... ... : ... .. . ... ... ... : ... .. . ... : ... .. . ... : ... .. . ... ... : ... .. . ... ... : ... .. . ... ... : ... .. . ... ...
ROW 40 : C-4 00 F ... ... ... : C-3 00 6 ... ... ... : C-4 00 . ... : ... .. . ... : ... .. . ... ... : ... .. 6 ... ... : ... .. 6 ... ... : D#3 01 A ... ...
ROW 41 : ... .. E ... ... ... : ... .. 5 ... ... ... : ... .. . ... : ... .. . ... : ... .. . ... ... : ... .. 5 ... ... : ... .. 5 ... ... : ... .. 8 ... ...
ROW 42 : ... .. D ... ... ... : ... .. . ... ... ... : ... .. . ... : ... .. . ... : ... .. . ... ... : ... .. . ... ... : ... .. . ... ... : ... .. 5 ... ...
ROW 43 : ... .. A ... ... ... : ... .. . ... ... ... : ... .. . ... : ... .. . ... : ... .. . ... ... : ... .. 4 ... ... : ... .. 4 ... ... : ... .. . ... ...
ROW 44 : ... .. . ... ... ... : ... .. 4 ... ... ... : ... .. . ... : ... .. . ... : ... .. . ... ... : ... .. . ... ... : ... .. . ... ... : ... .. . ... ...
ROW 45 : ... .. . ... ... ... : ... .. 3 ... ... ... : ... .. . ... : ... .. . ... : ... .. . ... ... : ... .. . ... ... : ... .. . ... ... : ... .. . ... ...
ROW 46 : ... .. . ... ... ... : ... .. . ... ... ... : ... .. . ... : ... .. . ... : ... .. . ... ... : ... .. . ... ... : ... .. . ... ... : ... .. . ... ...
ROW 47 : ... .. . ... ... ... : ... .. . ... ... ... : ... .. . ... : ... .. . ... : ... .. . ... ... : ... .. 3 ... ... : ... .. 3 ... ... : ... .. . ... ...
ROW 48 : ... .. . ... ... ... : ... .. 2 ... ... ... : ... .. . ... : ... .. . ... : ... .. . ... ... : ... .. 2 ... ... : ... .. 2 ... ... : ... .. . ... ...
ROW 49 : ... .. . ... ... ... : ... .. . ... ... ... : ... .. . ... : ... .. . ... : ... .. . ... ... : ... .. . ... ... : ... .. . ... ... : ... .. . ... ...
ROW 4A : ... .. . ... ... ... : G-2 00 6 ... ... ... : ... .. . ... : ... .. . ... : ... .. . ... ... : ... .. 1 ... ... : ... .. 1 ... ... : ... .. . ... ...
ROW 4B : ... .. 2 ... ... ... : ... .. 5 ... ... ... : ... .. . ... : ... .. . ... : ... .. . ... ... : ... .. . ... ... : ... .. . ... ... : ... .. . ... ...
ROW 4C : ... .. . ... ... ... : ... .. . ... ... ... : ... .. . ... : ... .. . ... : ... .. . ... ... : ... .. . ... ... : ... .. . ... ... : ... .. . ... ...
ROW 4D : ... .. . ... ... ... : ... .. . ... ... ... : ... .. . ... : ... .. . ... : ... .. . ... ... : ... .. . ... ... : ... .. . ... ... : ... .. . ... ...
ROW 4E : ... .. 1 ... ... ... : ... .. 4 ... ... ... : ... .. . ... : ... .. . ... : ... .. . ... ... : ... .. . ... ... : ... .. . ... ... : ... .. . ... ...
ROW 4F : ... .. . ... ... ... : ... .. 3 ... ... ... : --- .. . ... : ... .. . ... : ... .. . ... ... : ... .. . ... ... : ... .. . ... ... : ... .. . ... ...
ROW 50 : ... .. . ... ... ... : ... .. . ... ... ... : ... .. . ... : ... .. . ... : ... .. . ... ... : ... .. . ... ... : ... .. . ... ... : ... .. 2 ... ...
ROW 51 : ... .. 0 ... V00 ... : ... .. . ... ... ... : ... .. . ... : ... .. . ... : ... .. . ... ... : ... .. . ... ... : ... .. . ... ... : ... .. . ... ...
ROW 52 : ... .. . ... ... ... : ... .. 2 ... ... ... : ... .. . ... : ... .. . ... : ... .. . ... ... : ... .. . ... ... : ... .. . ... ... : ... .. 1 ... ...
ROW 53 : ... .. . ... ... ... : ... .. . ... ... ... : ... .. . ... : ... .. . ... : ... .. . ... ... : ... .. . ... ... : ... .. . ... ... : ... .. . ... ...
ROW 54 : ... .. . ... ... ... : D-3 00 6 ... ... ... : C-3 00 . ... : D-# 00 D V01 : ... .. . ... ... : D-4 01 6 ... ... : ... .. 6 ... ... : D-4 01 A ... ...
ROW 55 : ... .. . ... ... ... : ... .. 5 ... ... ... : ... .. . ... : ... .. B ... : ... .. . ... ... : ... .. 5 ... ... : ... .. 5 ... ... : ... .. 8 ... ...
ROW 56 : ... .. . ... ... ... : ... .. . ... ... ... : ... .. . ... : ... .. . ... : ... .. . ... ... : ... .. . ... ... : ... .. . ... ... : ... .. 5 ... ...
ROW 57 : ... .. . ... ... ... : ... .. . ... ... ... : ... .. . ... : ... .. A ... : ... .. . ... ... : ... .. 4 ... ... : ... .. 4 ... ... : ... .. . ... ...
ROW 58 : ... .. . ... ... ... : ... .. 4 ... ... ... : ... .. . ... : ... .. 8 ... : ... .. . ... ... : ... .. . ... ... : ... .. . ... ... : ... .. . ... ...
ROW 59 : ... .. . ... ... ... : ... .. 3 ... ... ... : ... .. . ... : ... .. 7 ... : ... .. . ... ... : ... .. . ... ... : ... .. . ... ... : ... .. . ... ...
ROW 5A : ... .. . ... ... ... : ... .. . ... ... ... : ... .. . ... : ... .. 6 ... : ... .. . ... ... : ... .. . ... ... : ... .. . ... ... : ... .. 2 ... ...
ROW 5B : ... .. . ... ... ... : ... .. . ... ... ... : ... .. . ... : ... .. . ... : ... .. . ... ... : ... .. 3 ... ... : ... .. 3 ... ... : ... .. . ... ...
ROW 5C : ... .. . ... ... ... : ... .. 2 ... ... ... : ... .. . ... : ... .. 5 ... : ... .. . ... ... : ... .. 2 ... ... : ... .. 2 ... ... : ... .. 1 ... ...
ROW 5D : ... .. . ... ... ... : ... .. . ... ... ... : ... .. . ... : ... .. . ... : ... .. . ... ... : ... .. . ... ... : ... .. . ... ... : ... .. . ... ...
ROW 5E : ... .. . ... ... ... : G-2 00 6 ... ... ... : ... .. . ... : ... .. 4 ... : ... .. . ... ... : ... .. 1 ... ... : ... .. 1 ... ... : C-4 01 A ... ...
ROW 5F : ... .. . ... ... ... : ... .. 5 ... ... ... : ... .. . ... : ... .. . ... : ... .. . ... ... : ... .. . ... ... : ... .. . ... ... : ... .. 8 ... ...
ROW 60 : ... .. . ... ... ... : ... .. . ... ... ... : ... .. . ... : ... .. 3 ... : ... .. . ... ... : ... .. . ... ... : ... .. . ... ... : ... .. 5 ... ...
ROW 61 : ... .. . ... ... ... : ... .. . ... ... ... : ... .. . ... : ... .. 2 ... : ... .. . ... ... : ... .. . ... ... : ... .. . ... ... : ... .. . ... ...
ROW 62 : ... .. . ... ... ... : ... .. 4 ... ... ... : ... .. . ... : ... .. . ... : ... .. . ... ... : ... .. . ... ... : ... .. . ... ... : ... .. . ... ...
ROW 63 : ... .. . ... ... ... : ... .. 3 ... ... ... : --- .. . ... : ... .. 1 ... : ... .. . ... ... : ... .. . ... ... : ... .. . ... ... : ... .. . ... ...
ROW 64 : ... .. . ... ... ... : ... .. . ... ... ... : ... .. . ... : ... .. 0 ... : ... .. . ... ... : ... .. . ... ... : ... .. . ... ... : ... .. 2 ... ...
ROW 65 : ... .. . ... ... ... : ... .. . ... ... ... : ... .. . ... : ... .. . ... : ... .. . ... ... : ... .. . ... ... : ... .. . ... ... : ... .. . ... ...
ROW 66 : ... .. . ... ... ... : ... .. 2 ... ... ... : ... .. . ... : ... .. . ... : ... .. . ... ... : ... .. . ... ... : ... .. . ... ... : ... .. 1 ... ...
ROW 67 : ... .. . ... ... ... : ... .. . ... ... ... : ... .. . ... : ... .. . ... : ... .. . ... ... : ... .. . ... ... : ... .. . ... ... : ... .. . ... ...
ROW 68 : F-3 00 F P80 V01 ... : C-3 00 6 ... ... ... : D-4 00 . ... : 9-# 00 A V00 : ... .. . ... ... : ... .. 6 ... ... : ... .. 6 ... ... : D-4 01 A ... ...
ROW 69 : ... .. E ... ... ... : ... .. 5 ... ... ... : ... .. . ... : ... .. 8 ... : ... .. . ... ... : ... .. 5 ... ... : ... .. 5 ... ... : ... .. 8 ... ...
ROW 6A : ... .. D ... ... ... : ... .. . ... ... ... : ... .. . ... : ... .. 4 ... : ... .. . ... ... : ... .. . ... ... : ... .. . ... ... : ... .. 5 ... ...
ROW 6B : ... .. A ... ... ... : ... .. . ... ... ... : ... .. . ... : ... .. 2 ... : ... .. . ... ... : ... .. 4 ... ... : ... .. 4 ... ... : ... .. . ... ...
ROW 6C : ... .. . ... ... ... : ... .. 4 ... ... ... : ... .. . ... : ... .. 1 ... : ... .. . ... ... : ... .. . ... ... : ... .. . ... ... : ... .. . ... ...
ROW 6D : ... .. . ... ... ... : ... .. 3 ... ... ... : ... .. . ... : ... .. 0 ... : ... .. . ... ... : ... .. . ... ... : ... .. . ... ... : ... .. . ... ...
ROW 6E : ... .. 2 ... ... ... : ... .. . ... ... ... : ... .. . ... : ... .. . ... : ... .. . ... ... : ... .. . ... ... : ... .. . ... ... : ... .. . ... ...
ROW 6F : ... .. . ... ... ... : ... .. . ... ... ... : ... .. . ... : ... .. . ... : ... .. . ... ... : ... .. 3 ... ... : ... .. 3 ... ... : ... .. . ... ...
ROW 70 : ... .. . ... ... ... : ... .. 2 ... ... ... : ... .. . ... : ... .. . ... : ... .. . ... ... : ... .. 2 ... ... : ... .. 2 ... ... : ... .. . ... ...
ROW 71 : ... .. 1 ... ... ... : ... .. . ... ... ... : ... .. . ... : ... .. . ... : ... .. . ... ... : ... .. . ... ... : ... .. . ... ... : ... .. . ... ...
ROW 72 : ... .. . ... ... ... : G-2 00 6 ... ... ... : ... .. . ... : ... .. 8 ... : ... .. . ... ... : ... .. 1 ... ... : ... .. 1 ... ... : ... .. . ... ...
ROW 73 : ... .. . ... ... ... : ... .. 5 ... ... ... : ... .. . ... : ... .. 6 ... : ... .. . ... ... : ... .. . ... ... : ... .. . ... ... : ... .. . ... ...
ROW 74 : ... .. 0 ... V00 ... : ... .. . ... ... ... : ... .. . ... : ... .. 3 ... : ... .. . ... ... : ... .. . ... ... : ... .. . ... ... : ... .. . ... ...
ROW 75 : ... .. . ... ... ... : ... .. . ... ... ... : ... .. . ... : ... .. 1 ... : ... .. . ... ... : ... .. . ... ... : ... .. . ... ... : ... .. . ... ...
ROW 76 : ... .. . ... ... ... : ... .. 4 ... ... ... : ... .. . ... : ... .. . ... : ... .. . ... ... : ... .. . ... ... : ... .. . ... ... : ... .. . ... ...
ROW 77 : ... .. . ... ... ... : ... .. 3 ... ... ... : --- .. . ... : ... .. 0 ... : ... .. . ... ... : ... .. . ... ... : ... .. . ... ... : ... .. . ... ...
ROW 78 : ... .. . ... ... ... : ... .. . ... ... ... : ... .. . ... : ... .. . ... : ... .. . ... ... : ... .. . ... ... : ... .. . ... ... : ... .. 2 ... ...
ROW 79 : ... .. . ... ... ... : ... .. . ... ... ... : ... .. . ... : ... .. . ... : ... .. . ... ... : ... .. . ... ... : ... .. . ... ... : ... .. . ... ...
ROW 7A : ... .. . ... ... ... : ... .. 2 ... ... ... : ... .. . ... : ... .. . ... : ... .. . ... ... : ... .. . ... ... : ... .. . ... ... : ... .. 1 ... ...
ROW 7B : ... .. . ... ... ... : ... .. . ... ... ... : ... .. . ... : ... .. . ... : ... .. . ... ... : ... .. . ... ... : ... .. . ... ... : ... .. . ... ...
ROW 7C : F-3 00 F P80 V01 ... : D-3 00 6 ... ... ... : D-4 00 . ... : ... .. F ... : ... .. . ... ... : C-4 01 6 ... ... : ... .. 6 ... ... : B-3 01 A ... ...
ROW 7D : ... .. E ... ... ... : ... .. 5 ... ... ... : ... .. . ... : ... .. C ... : ... .. . ... ... : ... .. 5 ... ... : ... .. 5 ... ... : ... .. 8 ... ...
ROW 7E : ... .. D ... ... ... : ... .. . ... ... ... : ... .. . ... : ... .. 6 ... : ... .. . ... ... : ... .. . ... ... : ... .. . ... ... : ... .. 5 ... ...
ROW 7F : ... .. A ... ... ... : ... .. . ... ... ... : ... .. . ... : ... .. 3 ... : ... .. . ... ... : ... .. 4 ... ... : ... .. 4 ... ... : ... .. . ... ...
ROW 80 : ... .. . ... ... ... : ... .. 4 ... ... ... : ... .. . ... : ... .. 2 ... : ... .. . ... ... : ... .. . ... ... : ... .. . ... ... : ... .. . ... ...
ROW 81 : ... .. . ... ... ... : ... .. 3 ... ... ... : ... .. . ... : ... .. 0 ... : ... .. . ... ... : ... .. . ... ... : ... .. . ... ... : ... .. . ... ...
ROW 82 : ... .. . ... ... ... : ... .. . ... ... ... : ... .. . ... : ... .. . ... : ... .. . ... ... : ... .. . ... ... : ... .. . ... ... : ... .. 2 ... ...
ROW 83 : ... .. . ... ... ... : ... .. . ... ... ... : ... .. . ... : ... .. . ... : ... .. . ... ... : ... .. 3 ... ... : ... .. 3 ... ... : ... .. . ... ...
ROW 84 : ... .. . ... ... ... : ... .. 2 ... ... ... : ... .. . ... : ... .. . ... : ... .. . ... ... : ... .. 2 ... ... : ... .. 2 ... ... : ... .. 1 ... ...
ROW 85 : ... .. . ... ... ... : ... .. . ... ... ... : ... .. . ... : ... .. . ... : ... .. . ... ... : ... .. . ... ... : ... .. . ... ... : ... .. . ... ...
ROW 86 : ... .. . ... ... ... : G-2 00 6 ... ... ... : ... .. . ... : ... .. . ... : ... .. . ... ... : ... .. 1 ... ... : ... .. 1 ... ... : C-4 01 A ... ...
ROW 87 : ... .. . ... ... ... : ... .. 5 ... ... ... : ... .. . ... : ... .. . ... : ... .. . ... ... : ... .. . ... ... : ... .. . ... ... : ... .. 8 ... ...
ROW 88 : ... .. . ... ... ... : ... .. . ... ... ... : ... .. . ... : ... .. . ... : ... .. . ... ... : ... .. . ... ... : ... .. . ... ... : ... .. 5 ... ...
ROW 89 : ... .. . ... ... ... : ... .. . ... ... ... : ... .. . ... : ... .. . ... : ... .. . ... ... : ... .. . ... ... : ... .. . ... ... : ... .. . ... ...
ROW 8A : ... .. . ... ... ... : ... .. 4 ... ... ... : ... .. . ... : ... .. . ... : ... .. . ... ... : ... .. . ... ... : ... .. . ... ... : ... .. . ... ...
ROW 8B : ... .. . ... ... ... : ... .. 3 ... ... ... : --- .. . ... : ... .. . ... : ... .. . ... ... : ... .. . ... ... : ... .. . ... ... : ... .. . ... ...
ROW 8C : ... .. . ... ... ... : ... .. . ... ... ... : ... .. . ... : ... .. . ... : ... .. . ... ... : ... .. . ... ... : ... .. . ... ... : ... .. 2 ... ...
ROW 8D : ... .. . ... ... ... : ... .. . ... ... ... : ... .. . ... : ... .. . ... : ... .. . ... ... : ... .. . ... ... : ... .. . ... ... : ... .. . ... ...
ROW 8E : ... .. . ... ... ... : ... .. 2 ... ... ... : ... .. . ... : ... .. . ... : ... .. . ... ... : ... .. . ... ... : ... .. . ... ... : ... .. 1 ... ...
ROW 8F : ... .. . ... ... ... : ... .. . ... ... ... : ... .. . ... : ... .. . ... : ... .. . ... ... : ... .. . ... ... : ... .. . ... ... : ... .. . ... ...
ROW 90 : C-4 00 F ... ... ... : C-3 00 6 ... ... ... : G-3 00 . ... : D-# 00 F ... : ... .. . ... ... : ... .. 6 ... ... : ... .. 6 ... ... : D-4 01 A ... ...
ROW 91 : ... .. E ... ... ... : ... .. 5 ... ... ... : ... .. . ... : ... .. C ... : ... .. . ... ... : ... .. 5 ... ... : ... .. 5 ... ... : ... .. 8 ... ...
ROW 92 : ... .. D ... ... ... : ... .. . ... ... ... : ... .. . ... : ... .. 6 ... : ... .. . ... ... : ... .. . ... ... : ... .. . ... ... : ... .. 5 ... ...
ROW 93 : ... .. A ... ... ... : ... .. . ... ... ... : ... .. . ... : ... .. 3 ... : ... .. . ... ... : ... .. 4 ... ... : ... .. 4 ... ... : ... .. . ... ...
ROW 94 : ... .. . ... ... ... : ... .. 4 ... ... ... : ... .. . ... : ... .. 2 ... : ... .. . ... ... : ... .. . ... ... : ... .. . ... ... : ... .. . ... ...
ROW 95 : ... .. . ... ... ... : ... .. 3 ... ... ... : ... .. . ... : ... .. 0 ... : ... .. . ... ... : ... .. . ... ... : ... .. . ... ... : ... .. . ... ...
ROW 96 : ... .. 2 ... ... ... : ... .. . ... ... ... : ... .. . ... : ... .. . ... : ... .. . ... ... : ... .. . ... ... : ... .. . ... ... : ... .. . ... ...
ROW 97 : ... .. . ... ... ... : ... .. . ... ... ... : ... .. . ... : ... .. . ... : ... .. . ... ... : ... .. 3 ... ... : ... .. 3 ... ... : ... .. . ... ...
ROW 98 : ... .. . ... ... ... : ... .. 2 ... ... ... : ... .. . ... : ... .. . ... : ... .. . ... ... : ... .. 2 ... ... : ... .. 2 ... ... : ... .. . ... ...
ROW 99 : ... .. 1 ... ... ... : ... .. . ... ... ... : ... .. . ... : ... .. . ... : ... .. . ... ... : ... .. . ... ... : ... .. . ... ... : ... .. . ... ...
ROW 9A : ... .. . ... ... ... : G-2 00 6 ... ... ... : ... .. . ... : ... .. . ... : ... .. . ... ... : ... .. 1 ... ... : ... .. 1 ... ... : ... .. . ... ...
ROW 9B : ... .. . ... ... ... : ... .. 5 ... ... ... : ... .. . ... : ... .. . ... : ... .. . ... ... : ... .. . ... ... : ... .. . ... ... : ... .. . ... ...
ROW 9C : ... .. 0 ... V00 ... : ... .. . ... ... ... : ... .. . ... : ... .. . ... : ... .. . ... ... : ... .. . ... ... : ... .. . ... ... : ... .. . ... ...
ROW 9D : ... .. . ... ... ... : ... .. . ... ... ... : ... .. . ... : ... .. . ... : ... .. . ... ... : ... .. . ... ... : ... .. . ... ... : ... .. . ... ...
ROW 9E : ... .. . ... ... ... : ... .. 4 ... ... ... : ... .. . ... : ... .. . ... : ... .. . ... ... : ... .. . ... ... : ... .. . ... ... : ... .. . ... ...
ROW 9F : ... .. . ... ... ... : ... .. 3 ... ... ... : --- .. . ... : ... .. . ... : ... .. . ... ... : ... .. . ... ... : ... .. . ... ... : ... .. . ... ...
ROW A0 : ... .. . ... ... ... : ... .. . ... ... ... : ... .. . ... : ... .. . ... : ... .. . ... ... : ... .. . ... ... : ... .. . ... ... : ... .. 2 ... ...
ROW A1 : ... .. . ... ... ... : ... .. . ... ... ... : ... .. . ... : ... .. . ... : ... .. . ... ... : ... .. . ... ... : ... .. . ... ... : ... .. . ... ...
ROW A2 : ... .. . ... ... ... : ... .. 2 ... ... ... : ... .. . ... : ... .. . ... : ... .. . ... ... : ... .. . ... ... : ... .. . ... ... : ... .. 1 ... ...
ROW A3 : ... .. . ... ... ... : ... .. . ... ... ... : ... .. . ... : ... .. . ... : ... .. . ... ... : ... .. . ... ... : ... .. . ... ... : ... .. . ... ...
ROW A4 : C-4 00 F P80 V01 ... : D-3 00 6 ... ... ... : C-3 00 . ... : ... .. D ... : ... .. . ... ... : D-4 01 6 ... ... : ... .. 6 ... ... : G-3 01 A ... ...
ROW A5 : ... .. E ... ... ... : ... .. 5 ... ... ... : ... .. . ... : ... .. B ... : ... .. . ... ... : ... .. 5 ... ... : ... .. 5 ... ... : ... .. 8 ... ...
ROW A6 : ... .. D ... ... ... : ... .. . ... ... ... : ... .. . ... : ... .. . ... : ... .. . ... ... : ... .. . ... ... : ... .. . ... ... : ... .. 5 ... ...
ROW A7 : ... .. A ... ... ... : ... .. . ... ... ... : ... .. . ... : ... .. A ... : ... .. . ... ... : ... .. 4 ... ... : ... .. 4 ... ... : ... .. . ... ...
ROW A8 : ... .. . ... ... ... : ... .. 4 ... ... ... : ... .. . ... : ... .. 8 ... : ... .. . ... ... : ... .. . ... ... : ... .. . ... ... : ... .. . ... ...
ROW A9 : ... .. . ... ... ... : ... .. 3 ... ... ... : ... .. . ... : ... .. 7 ... : ... .. . ... ... : ... .. . ... ... : ... .. . ... ... : ... .. . ... ...
ROW AA : ... .. . ... ... ... : ... .. . ... ... ... : ... .. . ... : ... .. 6 ... : ... .. . ... ... : ... .. . ... ... : ... .. . ... ... : ... .. 2 ... ...
ROW AB : ... .. . ... ... ... : ... .. . ... ... ... : ... .. . ... : ... .. . ... : ... .. . ... ... : ... .. 3 ... ... : ... .. 3 ... ... : ... .. . ... ...
ROW AC : ... .. . ... ... ... : ... .. 2 ... ... ... : ... .. . ... : ... .. 5 ... : ... .. . ... ... : ... .. 2 ... ... : ... .. 2 ... ... : ... .. 1 ... ...
ROW AD : ... .. . ... ... ... : ... .. . ... ... ... : ... .. . ... : ... .. . ... : ... .. . ... ... : ... .. . ... ... : ... .. . ... ... : ... .. . ... ...
ROW AE : ... .. . P84 ... ... : F-2 00 6 ... ... ... : ... .. . ... : ... .. 4 ... : ... .. . ... ... : ... .. 1 ... ... : ... .. 1 ... ... : F-3 01 A ... ...
ROW AF : ... .. . P86 ... ... : ... .. 5 ... ... ... : ... .. . ... : ... .. . ... : ... .. . ... ... : ... .. . ... ... : ... .. . ... ... : ... .. 8 ... ...
ROW B0 : ... .. . P85 ... ... : ... .. . ... ... ... : ... .. . ... : ... .. 3 ... : ... .. . ... ... : ... .. . ... ... : ... .. . ... ... : ... .. 5 ... ...
ROW B1 : ... .. . P82 ... ... : ... .. . ... ... ... : ... .. . ... : ... .. 2 ... : ... .. . ... ... : ... .. . ... ... : ... .. . ... ... : ... .. . ... ...
ROW B2 : ... .. . P7E ... ... : ... .. 4 ... ... ... : ... .. . ... : ... .. . ... : ... .. . ... ... : ... .. . ... ... : ... .. . ... ... : ... .. . ... ...
ROW B3 : ... .. . P7B ... ... : ... .. 3 ... ... ... : --- .. . ... : ... .. 1 ... : ... .. . ... ... : ... .. . ... ... : ... .. . ... ... : ... .. . ... ...
ROW B4 : B-3 00 A P86 ... ... : ... .. . ... ... ... : ... .. . ... : ... .. 0 ... : ... .. . ... ... : ... .. . ... ... : ... .. . ... ... : ... .. 2 ... ...
ROW B5 : C-4 00 A P7C ... ... : ... .. . ... ... ... : ... .. . ... : ... .. . ... : ... .. . ... ... : ... .. . ... ... : ... .. . ... ... : ... .. . ... ...
ROW B6 : ... .. . P80 ... ... : ... .. 2 ... ... ... : ... .. . ... : ... .. . ... : ... .. . ... ... : ... .. . ... ... : ... .. . ... ... : ... .. 1 ... ...
ROW B7 : ... .. . P83 ... ... : ... .. . ... ... ... : ... .. . ... : ... .. . ... : ... .. . ... ... : ... .. . ... ... : ... .. . ... ... : ... .. . ... ...
ROW B8 : B-3 00 F P80 ... ... : B-2 00 6 ... ... ... : D-4 00 . ... : 9-# 00 A ... : ... .. . ... ... : ... .. 6 ... ... : ... .. 6 ... ... : G-3 01 A ... ...
ROW B9 : ... .. E ... ... ... : ... .. 5 ... ... ... : ... .. . ... : ... .. 8 ... : ... .. . ... ... : ... .. 5 ... ... : ... .. 5 ... ... : ... .. 8 ... ...
ROW BA : ... .. D ... ... ... : ... .. . ... ... ... : ... .. . ... : ... .. 4 ... : ... .. . ... ... : ... .. . ... ... : ... .. . ... ... : ... .. 5 ... ...
ROW BB : ... .. A ... ... ... : ... .. . ... ... ... : ... .. . ... : ... .. 2 ... : ... .. . ... ... : ... .. 4 ... ... : ... .. 4 ... ... : ... .. . ... ...
ROW BC : ... .. . ... ... ... : ... .. 4 ... ... ... : ... .. . ... : ... .. 1 ... : ... .. . ... ... : ... .. . ... ... : ... .. . ... ... : ... .. . ... ...
ROW BD : ... .. . ... ... ... : ... .. 3 ... ... ... : ... .. . ... : ... .. 0 ... : ... .. . ... ... : ... .. . ... ... : ... .. . ... ... : ... .. . ... ...
ROW BE : ... .. 2 ... ... ... : ... .. . ... ... ... : ... .. . ... : ... .. . ... : ... .. . ... ... : ... .. . ... ... : ... .. . ... ... : ... .. . ... ...
ROW BF : ... .. . ... ... ... : ... .. . ... ... ... : ... .. . ... : ... .. . ... : ... .. . ... ... : ... .. 3 ... ... : ... .. 3 ... ... : ... .. . ... ...
ROW C0 : ... .. . ... ... ... : ... .. 2 ... ... ... : ... .. . ... : ... .. . ... : ... .. . ... ... : ... .. 2 ... ... : ... .. 2 ... ... : ... .. . ... ...
ROW C1 : ... .. 1 ... ... ... : ... .. . ... ... ... : ... .. . ... : ... .. . ... : ... .. . ... ... : ... .. . ... ... : ... .. . ... ... : ... .. . ... ...
ROW C2 : A-3 00 F ... ... ... : F-2 00 6 ... ... ... : C-4 00 . ... : ... .. 8 ... : ... .. . ... ... : ... .. 1 ... ... : ... .. 1 ... ... : ... .. . ... ...
ROW C3 : ... .. E ... ... ... : ... .. 5 ... ... ... : ... .. . ... : ... .. 6 ... : ... .. . ... ... : ... .. . ... ... : ... .. . ... ... : ... .. . ... ...
ROW C4 : ... .. D ... ... ... : ... .. . ... ... ... : ... .. . ... : ... .. 3 ... : ... .. . ... ... : ... .. . ... ... : ... .. . ... ... : ... .. . ... ...
ROW C5 : ... .. A ... ... ... : ... .. . ... ... ... : ... .. . ... : ... .. 1 ... : ... .. . ... ... : ... .. . ... ... : ... .. . ... ... : ... .. . ... ...
ROW C6 : ... .. . ... ... ... : ... .. 4 ... ... ... : ... .. . ... : ... .. . ... : ... .. . ... ... : ... .. . ... ... : ... .. . ... ... : ... .. . ... ...
ROW C7 : ... .. . ... ... ... : ... .. 3 ... ... ... : --- .. . ... : ... .. 0 ... : ... .. . ... ... : ... .. . ... ... : ... .. . ... ... : ... .. . ... ...
ROW C8 : ... .. 2 ... ... ... : ... .. . ... ... ... : ... .. . ... : ... .. . ... : ... .. . ... ... : ... .. . ... ... : ... .. . ... ... : ... .. 2 ... ...
ROW C9 : ... .. . ... ... ... : ... .. . ... ... ... : ... .. . ... : ... .. . ... : ... .. . ... ... : ... .. . ... ... : ... .. . ... ... : ... .. . ... ...
ROW CA : ... .. . ... ... ... : ... .. 2 ... ... ... : ... .. . ... : ... .. . ... : ... .. . ... ... : ... .. . ... ... : ... .. . ... ... : ... .. 1 ... ...
ROW CB : ... .. 1 ... ... ... : ... .. . ... ... ... : ... .. . ... : ... .. . ... : ... .. . ... ... : ... .. . ... ... : ... .. . ... ... : ... .. . ... ...
ROW CC : B-3 00 F ... ... ... : D-3 00 6 ... ... ... : B-3 00 . ... : ... .. F ... : ... .. . ... ... : B-3 01 6 ... ... : ... .. 6 ... ... : D-3 01 A ... ...
ROW CD : ... .. E ... ... ... : ... .. 5 ... ... ... : ... .. . ... : ... .. C ... : ... .. . ... ... : ... .. 5 ... ... : ... .. 5 ... ... : ... .. 8 ... ...
ROW CE : ... .. D ... ... ... : ... .. . ... ... ... : ... .. . ... : ... .. 6 ... : ... .. . ... ... : ... .. . ... ... : ... .. . ... ... : ... .. 5 ... ...
ROW CF : ... .. A ... ... ... : ... .. . ... ... ... : ... .. . ... : ... .. 3 ... : ... .. . ... ... : ... .. 4 ... ... : ... .. 4 ... ... : ... .. . ... ...
ROW D0 : ... .. . ... ... ... : ... .. 4 ... ... ... : ... .. . ... : ... .. 2 ... : ... .. . ... ... : ... .. . ... ... : ... .. . ... ... : ... .. . ... ...
ROW D1 : ... .. . ... ... ... : ... .. 3 ... ... ... : ... .. . ... : ... .. 0 ... : ... .. . ... ... : ... .. . ... ... : ... .. . ... ... : ... .. . ... ...
ROW D2 : ... .. . ... ... ... : ... .. . ... ... ... : ... .. . ... : ... .. . ... : ... .. . ... ... : ... .. . ... ... : ... .. . ... ... : ... .. 2 ... ...
ROW D3 : ... .. . ... ... ... : ... .. . ... ... ... : ... .. . ... : ... .. . ... : ... .. . ... ... : ... .. 3 ... ... : ... .. 3 ... ... : ... .. . ... ...
ROW D4 : ... .. . ... ... ... : ... .. 2 ... ... ... : ... .. . ... : ... .. . ... : ... .. . ... ... : ... .. 2 ... ... : ... .. 2 ... ... : ... .. 1 ... ...
ROW D5 : ... .. . ... ... ... : ... .. . ... ... ... : ... .. . ... : ... .. . ... : ... .. . ... ... : ... .. . ... ... : ... .. . ... ... : ... .. . ... ...
ROW D6 : ... .. . ... ... ... : G-2 00 6 ... ... ... : A-3 00 . ... : ... .. . ... : ... .. . ... ... : ... .. 1 ... ... : ... .. 1 ... ... : D#3 01 A ... ...
ROW D7 : ... .. . ... ... ... : ... .. 5 ... ... ... : ... .. . ... : ... .. . ... : ... .. . ... ... : ... .. . ... ... : ... .. . ... ... : ... .. 8 ... ...
ROW D8 : ... .. . ... ... ... : ... .. . ... ... ... : ... .. . ... : ... .. . ... : ... .. . ... ... : ... .. . ... ... : ... .. . ... ... : ... .. 5 ... ...
ROW D9 : ... .. . ... ... ... : ... .. . ... ... ... : ... .. . ... : ... .. . ... : ... .. . ... ... : ... .. . ... ... : ... .. . ... ... : ... .. . ... ...
ROW DA : ... .. . ... ... ... : ... .. 4 ... ... ... : ... .. . ... : ... .. . ... : ... .. . ... ... : ... .. . ... ... : ... .. . ... ... : ... .. . ... ...
ROW DB : ... .. . ... ... ... : ... .. 3 ... ... ... : --- .. . ... : ... .. . ... : ... .. . ... ... : ... .. . ... ... : ... .. . ... ... : ... .. . ... ...
ROW DC : ... .. . ... ... ... : ... .. . ... ... ... : ... .. . ... : ... .. . ... : ... .. . ... ... : ... .. . ... ... : ... .. . ... ... : ... .. 2 ... ...
ROW DD : ... .. . ... ... ... : ... .. . ... ... ... : ... .. . ... : ... .. . ... : ... .. . ... ... : ... .. . ... ... : ... .. . ... ... : ... .. . ... ...
ROW DE : ... .. . ... ... ... : ... .. 2 ... ... ... : ... .. . ... : ... .. . ... : ... .. . ... ... : ... .. . ... ... : ... .. . ... ... : ... .. 1 ... ...
ROW DF : ... .. . ... ... ... : ... .. . ... ... ... : ... .. . ... : ... .. . ... : ... .. . ... ... : ... .. . ... ... : ... .. . ... ... : ... .. . ... ...
ROW E0 : ... .. . P85 ... ... : B-2 00 6 ... ... ... : B-3 00 . ... : ... .. . ... : ... .. . ... ... : ... .. 6 ... ... : ... .. 6 ... ... : F-3 01 A ... ...
ROW E1 : ... .. . P86 ... ... : ... .. 5 ... ... ... : ... .. . ... : ... .. . ... : ... .. . ... ... : ... .. 5 ... ... : ... .. 5 ... ... : ... .. 8 ... ...
ROW E2 : ... .. . P82 ... ... : ... .. . ... ... ... : ... .. . ... : ... .. . ... : ... .. . ... ... : ... .. . ... ... : ... .. . ... ... : ... .. 5 ... ...
ROW E3 : ... .. . P7E ... ... : ... .. . ... ... ... : ... .. . ... : ... .. . ... : ... .. . ... ... : ... .. 4 ... ... : ... .. 4 ... ... : ... .. . ... ...
ROW E4 : ... .. . P7A ... ... : ... .. 4 ... ... ... : ... .. . ... : ... .. . ... : ... .. . ... ... : ... .. . ... ... : ... .. . ... ... : ... .. . ... ...
ROW E5 : ... .. . P7B ... ... : ... .. 3 ... ... ... : ... .. . ... : ... .. . ... : ... .. . ... ... : ... .. . ... ... : ... .. . ... ... : ... .. . ... ...
ROW E6 : ... .. . P80 ... ... : ... .. . ... ... ... : ... .. . ... : ... .. . ... : ... .. . ... ... : ... .. . ... ... : ... .. . ... ... : ... .. . ... ...
ROW E7 : ... .. . P84 ... ... : ... .. . ... ... ... : ... .. . ... : ... .. . ... : ... .. . ... ... : ... .. 3 ... ... : ... .. 3 ... ... : ... .. . ... ...
ROW E8 : ... .. . P86 ... ... : ... .. 2 ... ... ... : ... .. . ... : ... .. . ... : ... .. . ... ... : ... .. 2 ... ... : ... .. 2 ... ... : ... .. . ... ...
ROW E9 : ... .. . P83 ... ... : ... .. . ... ... ... : ... .. . ... : ... .. . ... : ... .. . ... ... : ... .. . ... ... : ... .. . ... ... : ... .. . ... ...
ROW EA : ... .. . P7E ... ... : D-3 00 6 ... ... ... : D-4 00 . ... : ... .. . ... : ... .. . ... ... : ... .. 1 ... ... : ... .. 1 ... ... : D-3 01 A ... ...
ROW EB : ... .. 2 P7A ... ... : ... .. 5 ... ... ... : ... .. . ... : ... .. . ... : ... .. . ... ... : ... .. . ... ... : ... .. . ... ... : ... .. 8 ... ...
ROW EC : ... .. . P7B ... ... : ... .. . ... ... ... : ... .. . ... : ... .. . ... : ... .. . ... ... : ... .. . ... ... : ... .. . ... ... : ... .. 5 ... ...
ROW ED : ... .. . P80 ... ... : ... .. . ... ... ... : ... .. . ... : ... .. . ... : ... .. . ... ... : ... .. . ... ... : ... .. . ... ... : ... .. . ... ...
ROW EE : ... .. 1 P84 ... ... : ... .. 4 ... ... ... : ... .. . ... : ... .. . ... : ... .. . ... ... : ... .. . ... ... : ... .. . ... ... : ... .. . ... ...
ROW EF : ... .. . P86 ... ... : ... .. 3 ... ... ... : --- .. . ... : ... .. . ... : ... .. . ... ... : ... .. . ... ... : ... .. . ... ... : ... .. . ... ...
ROW F0 : ... .. . P83 ... ... : ... .. . ... ... ... : ... .. . ... : ... .. . ... : ... .. . ... ... : ... .. . ... ... : ... .. . ... ... : ... .. 2 ... ...
ROW F1 : ... .. 0 ... V00 ... : ... .. . ... ... ... : ... .. . ... : ... .. . ... : ... .. . ... ... : ... .. . ... ... : ... .. . ... ... : ... .. . ... ...
ROW F2 : ... .. . ... ... ... : ... .. 2 ... ... ... : ... .. . ... : ... .. . ... : ... .. . ... ... : ... .. . ... ... : ... .. . ... ... : ... .. 1 ... ...
ROW F3 : ... .. . ... ... ... : ... .. . ... ... ... : ... .. . ... : ... .. . ... : ... .. . ... ... : ... .. . ... ... : ... .. . ... ... : ... .. . ... ...
ROW F4 : ... .. . ... ... ... : D#3 00 6 ... ... ... : C-3 00 . ... : D-# 00 D V01 : ... .. . ... ... : D#4 01 6 ... ... : ... .. 6 ... ... : D#3 01 A ... ...
ROW F5 : ... .. . ... ... ... : ... .. 5 ... ... ... : ... .. . ... : ... .. B ... : ... .. . ... ... : ... .. 5 ... ... : ... .. 5 ... ... : ... .. 8 ... ...
ROW F6 : ... .. . ... ... ... : ... .. . ... ... ... : ... .. . ... : ... .. . ... : ... .. . ... ... : ... .. . ... ... : ... .. . ... ... : ... .. 5 ... ...
ROW F7 : ... .. . ... ... ... : ... .. . ... ... ... : ... .. . ... : ... .. A ... : ... .. . ... ... : ... .. 4 ... ... : ... .. 4 ... ... : ... .. . ... ...
ROW F8 : ... .. . ... ... ... : ... .. 4 ... ... ... : ... .. . ... : ... .. 8 ... : ... .. . ... ... : ... .. . ... ... : ... .. . ... ... : ... .. . ... ...
ROW F9 : ... .. . ... ... ... : ... .. 3 ... ... ... : ... .. . ... : ... .. 7 ... : ... .. . ... ... : ... .. . ... ... : ... .. . ... ... : ... .. . ... ...
ROW FA : ... .. . ... ... ... : ... .. . ... ... ... : ... .. . ... : ... .. 6 ... : ... .. . ... ... : ... .. . ... ... : ... .. . ... ... : ... .. 2 ... ...
ROW FB : ... .. . ... ... ... : ... .. . ... ... ... : ... .. . ... : ... .. . ... : ... .. . ... ... : ... .. 3 ... ... : ... .. 3 ... ... : ... .. . ... ...
ROW FC : ... .. . ... ... ... : ... .. 2 ... ... ... : ... .. . ... : ... .. 5 ... : ... .. . ... ... : ... .. 2 ... ... : ... .. 2 ... ... : ... .. 1 ... ...
ROW FD : ... .. . ... ... ... : ... .. . ... ... ... : ... .. . ... : ... .. . ... : ... .. . ... ... : ... .. . ... ... : ... .. . ... ... : ... .. . ... ...
ROW FE : ... .. . ... ... ... : G-2 00 6 ... ... ... : ... .. . ... : ... .. 4 ... : ... .. . ... ... : ... .. 1 ... ... : ... .. 1 ... ... : D-3 01 A ... ...
ROW FF : ... .. . ... ... ... : ... .. 5 ... ... ... : ... .. . ... : ... .. . ... : ... .. . ... ... : ... .. . ... ... : ... .. . ... ... : ... .. 8 ... ...

PATTERN 07
ROW 00 : ... .. . ... ... ... : ... .. . ... ... ... : ... .. . ... : ... .. 3 ... : ... .. . ... ... : ... .. . ... ... : ... .. . ... ... : ... .. 5 ... ...
ROW 01 : ... .. . ... ... ... : ... .. . ... ... ... : ... .. . ... : ... .. 2 ... : ... .. . ... ... : ... .. . ... ... : ... .. . ... ... : ... .. . ... ...
ROW 02 : ... .. . ... ... ... : ... .. 4 ... ... ... : ... .. . ... : ... .. . ... : ... .. . ... ... : ... .. . ... ... : ... .. . ... ... : ... .. . ... ...
ROW 03 : ... .. . ... ... ... : ... .. 3 ... ... ... : --- .. . ... : ... .. 1 ... : ... .. . ... ... : ... .. . ... ... : ... .. . ... ... : ... .. . ... ...
ROW 04 : ... .. . ... ... ... : ... .. . ... ... ... : ... .. . ... : ... .. 0 ... : ... .. . ... ... : ... .. . ... ... : ... .. . ... ... : ... .. 2 ... ...
ROW 05 : ... .. . ... ... ... : ... .. . ... ... ... : ... .. . ... : ... .. . ... : ... .. . ... ... : ... .. . ... ... : ... .. . ... ... : ... .. . ... ...
ROW 06 : ... .. . ... ... ... : ... .. 2 ... ... ... : ... .. . ... : ... .. . ... : ... .. . ... ... : ... .. . ... ... : ... .. . ... ... : ... .. 1 ... ...
ROW 07 : ... .. . ... ... ... : ... .. . ... ... ... : ... .. . ... : ... .. . ... : ... .. . ... ... : ... .. . ... ... : ... .. . ... ... : ... .. . ... ...
ROW 08 : G-3 00 F P80 V01 ... : C-3 00 6 ... ... ... : F-4 00 . ... : 9-# 00 A V00 : ... .. . ... ... : ... .. 6 ... ... : ... .. 6 ... ... : D#3 01 A ... ...
ROW 09 : ... .. E ... ... ... : ... .. 5 ... ... ... : ... .. . ... : ... .. 8 ... : ... .. . ... ... : ... .. 5 ... ... : ... .. 5 ... ... : ... .. 8 ... ...
ROW 0A : ... .. D ... ... ... : ... .. . ... ... ... : ... .. . ... : ... .. 4 ... : ... .. . ... ... : ... .. . ... ... : ... .. . ... ... : ... .. 5 ... ...
ROW 0B : ... .. A ... ... ... : ... .. . ... ... ... : ... .. . ... : ... .. 2 ... : ... .. . ... ... : ... .. 4 ... ... : ... .. 4 ... ... : ... .. . ... ...
ROW 0C : ... .. . ... ... ... : ... .. 4 ... ... ... : ... .. . ... : ... .. 1 ... : ... .. . ... ... : ... .. . ... ... : ... .. . ... ... : ... .. . ... ...
ROW 0D : ... .. . ... ... ... : ... .. 3 ... ... ... : ... .. . ... : ... .. 0 ... : ... .. . ... ... : ... .. . ... ... : ... .. . ... ... : ... .. . ... ...
ROW 0E : ... .. 2 ... ... ... : ... .. . ... ... ... : ... .. . ... : ... .. . ... : ... .. . ... ... : ... .. . ... ... : ... .. . ... ... : ... .. . ... ...
ROW 0F : ... .. . ... ... ... : ... .. . ... ... ... : ... .. . ... : ... .. . ... : ... .. . ... ... : ... .. 3 ... ... : ... .. 3 ... ... : ... .. . ... ...
ROW 10 : ... .. . ... ... ... : ... .. 2 ... ... ... : ... .. . ... : ... .. . ... : ... .. . ... ... : ... .. 2 ... ... : ... .. 2 ... ... : ... .. . ... ...
ROW 11 : ... .. 1 ... ... ... : ... .. . ... ... ... : ... .. . ... : ... .. . ... : ... .. . ... ... : ... .. . ... ... : ... .. . ... ... : ... .. . ... ...
ROW 12 : ... .. . ... ... ... : G-2 00 6 ... ... ... : ... .. . ... : ... .. 8 ... : ... .. . ... ... : ... .. 1 ... ... : ... .. 1 ... ... : ... .. . ... ...
ROW 13 : ... .. . ... ... ... : ... .. 5 ... ... ... : ... .. . ... : ... .. 6 ... : ... .. . ... ... : ... .. . ... ... : ... .. . ... ... : ... .. . ... ...
ROW 14 : ... .. 0 ... V00 ... : ... .. . ... ... ... : ... .. . ... : ... .. 3 ... : ... .. . ... ... : ... .. . ... ... : ... .. . ... ... : ... .. . ... ...
ROW 15 : ... .. . ... ... ... : ... .. . ... ... ... : ... .. . ... : ... .. 1 ... : ... .. . ... ... : ... .. . ... ... : ... .. . ... ... : ... .. . ... ...
ROW 16 : ... .. . ... ... ... : ... .. 4 ... ... ... : ... .. . ... : ... .. . ... : ... .. . ... ... : ... .. . ... ... : ... .. . ... ... : ... .. . ... ...
ROW 17 : ... .. . ... ... ... : ... .. 3 ... ... ... : --- .. . ... : ... .. 0 ... : ... .. . ... ... : ... .. . ... ... : ... .. . ... ... : ... .. . ... ...
ROW 18 : ... .. . ... ... ... : ... .. . ... ... ... : ... .. . ... : ... .. . ... : ... .. . ... ... : ... .. . ... ... : ... .. . ... ... : ... .. 2 ... ...
ROW 19 : ... .. . ... ... ... : ... .. . ... ... ... : ... .. . ... : ... .. . ... : ... .. . ... ... : ... .. . ... ... : ... .. . ... ... : ... .. . ... ...
ROW 1A : ... .. . ... ... ... : ... .. 2 ... ... ... : ... .. . ... : ... .. . ... : ... .. . ... ... : ... .. . ... ... : ... .. . ... ... : ... .. 1 ... ...
ROW 1B : ... .. . ... ... ... : ... .. . ... ... ... : ... .. . ... : ... .. . ... : ... .. . ... ... : ... .. . ... ... : ... .. . ... ... : ... .. . ... ...
ROW 1C : G-3 00 F P80 V01 ... : D#3 00 6 ... ... ... : D#4 00 . ... : ... .. F ... : ... .. . ... ... : D-4 01 6 ... ... : ... .. 6 ... ... : C-3 01 A ... ...
ROW 1D : ... .. E ... ... ... : ... .. 5 ... ... ... : ... .. . ... : ... .. C ... : ... .. . ... ... : ... .. 5 ... ... : ... .. 5 ... ... : ... .. 8 ... ...
ROW 1E : ... .. D ... ... ... : ... .. . ... ... ... : ... .. . ... : ... .. 6 ... : ... .. . ... ... : ... .. . ... ... : ... .. . ... ... : ... .. 5 ... ...
ROW 1F : ... .. A ... ... ... : ... .. . ... ... ... : ... .. . ... : ... .. 3 ... : ... .. . ... ... : ... .. 4 ... ... : ... .. 4 ... ... : ... .. . ... ...
ROW 20 : ... .. . ... ... ... : ... .. 4 ... ... ... : ... .. . ... : ... .. 2 ... : ... .. . ... ... : ... .. . ... ... : ... .. . ... ... : ... .. . ... ...
ROW 21 : ... .. . ... ... ... : ... .. 3 ... ... ... : ... .. . ... : ... .. 0 ... : ... .. . ... ... : ... .. . ... ... : ... .. . ... ... : ... .. . ... ...
ROW 22 : ... .. . ... ... ... : ... .. . ... ... ... : ... .. . ... : ... .. . ... : ... .. . ... ... : ... .. . ... ... : ... .. . ... ... : ... .. 2 ... ...
ROW 23 : ... .. . ... ... ... : ... .. . ... ... ... : ... .. . ... : ... .. . ... : ... .. . ... ... : ... .. 3 ... ... : ... .. 3 ... ... : ... .. . ... ...
ROW 24 : ... .. . ... ... ... : ... .. 2 ... ... ... : ... .. . ... : ... .. . ... : ... .. . ... ... : ... .. 2 ... ... : ... .. 2 ... ... : ... .. 1 ... ...
ROW 25 : ... .. . ... ... ... : ... .. . ... ... ... : ... .. . ... : ... .. . ... : ... .. . ... ... : ... .. . ... ... : ... .. . ... ... : ... .. . ... ...
ROW 26 : ... .. . ... ... ... : G-2 00 6 ... ... ... : D-4 00 . ... : ... .. . ... : ... .. . ... ... : ... .. 1 ... ... : ... .. 1 ... ... : B-2 01 A ... ...
ROW 27 : ... .. . ... ... ... : ... .. 5 ... ... ... : ... .. . ... : ... .. . ... : ... .. . ... ... : ... .. . ... ... : ... .. . ... ... : ... .. 8 ... ...
ROW 28 : ... .. . ... ... ... : ... .. . ... ... ... : ... .. . ... : ... .. . ... : ... .. . ... ... : ... .. . ... ... : ... .. . ... ... : ... .. 5 ... ...
ROW 29 : ... .. . ... ... ... : ... .. . ... ... ... : ... .. . ... : ... .. . ... : ... .. . ... ... : ... .. . ... ... : ... .. . ... ... : ... .. . ... ...
ROW 2A : ... .. . ... ... ... : ... .. 4 ... ... ... : ... .. . ... : ... .. . ... : ... .. . ... ... : ... .. . ... ... : ... .. . ... ... : ... .. . ... ...
ROW 2B : ... .. . ... ... ... : ... .. 3 ... ... ... : --- .. . ... : ... .. . ... : ... .. . ... ... : ... .. . ... ... : ... .. . ... ... : ... .. . ... ...
ROW 2C : ... .. . ... ... ... : ... .. . ... ... ... : ... .. . ... : ... .. . ... : ... .. . ... ... : ... .. . ... ... : ... .. . ... ... : ... .. 2 ... ...
ROW 2D : ... .. . ... ... ... : ... .. . ... ... ... : ... .. . ... : ... .. . ... : ... .. . ... ... : ... .. . ... ... : ... .. . ... ... : ... .. . ... ...
ROW 2E : ... .. . ... ... ... : ... .. 2 ... ... ... : ... .. . ... : ... .. . ... : ... .. . ... ... : ... .. . ... ... : ... .. . ... ... : ... .. 1 ... ...
ROW 2F : ... .. . ... ... ... : ... .. . ... ... ... : ... .. . ... : ... .. . ... : ... .. . ... ... : ... .. . ... ... : ... .. . ... ... : ... .. . ... ...
ROW 30 : ... .. . ... ... ... : C-3 00 6 ... ... ... : D#4 00 . ... : D-# 00 8 ... : ... .. . ... ... : ... .. 6 ... ... : ... .. 6 ... ... : C-3 01 A ... ...
ROW 31 : A-3 00 A ... ... ... : ... .. 5 ... ... ... : ... .. . ... : ... .. 7 ... : ... .. . ... ... : ... .. 5 ... ... : ... .. 5 ... ... : ... .. 8 ... ...
ROW 32 : B-3 00 A P83 ... ... : ... .. . ... ... ... : ... .. . ... : ... .. . ... : ... .. . ... ... : ... .. . ... ... : ... .. . ... ... : ... .. 5 ... ...
ROW 33 : D-4 00 A P7E ... ... : ... .. . ... ... ... : ... .. . ... : ... .. 6 ... : ... .. . ... ... : ... .. 4 ... ... : ... .. 4 ... ... : ... .. . ... ...
ROW 34 : F-4 00 A P7F ... ... : ... .. 4 ... ... ... : ... .. . ... : ... .. 5 ... : ... .. . ... ... : ... .. . ... ... : ... .. . ... ... : ... .. . ... ...
ROW 35 : ... .. . P80 ... ... : ... .. 3 ... ... ... : ... .. . ... : ... .. 4 ... : ... .. . ... ... : ... .. . ... ... : ... .. . ... ... : ... .. . ... ...
ROW 36 : ... .. . ... ... ... : ... .. . ... ... ... : ... .. . ... : ... .. . ... : ... .. . ... ... : ... .. . ... ... : ... .. . ... ... : ... .. . ... ...
ROW 37 : ... .. . ... ... ... : ... .. . ... ... ... : ... .. . ... : ... .. . ... : ... .. . ... ... : ... .. 3 ... ... : ... .. 3 ... ... : ... .. . ... ...
ROW 38 : ... .. . ... ... ... : ... .. 2 ... ... ... : ... .. . ... : ... .. 3 ... : ... .. . ... ... : ... .. 2 ... ... : ... .. 2 ... ... : ... .. . ... ...
ROW 39 : ... .. . ... ... ... : ... .. . ... ... ... : ... .. . ... : ... .. . ... : ... .. . ... ... : ... .. . ... ... : ... .. . ... ... : ... .. . ... ...
ROW 3A : ... .. . ... ... ... : G-2 00 6 ... ... ... : ... .. . ... : ... .. 2 ... : ... .. . ... ... : ... .. 1 ... ... : ... .. 1 ... ... : ... .. . ... ...
ROW 3B : ... .. 2 ... ... ... : ... .. 5 ... ... ... : ... .. . ... : ... .. . ... : ... .. . ... ... : ... .. . ... ... : ... .. . ... ... : ... .. . ... ...
ROW 3C : ... .. . ... ... ... : ... .. . ... ... ... : ... .. . ... : ... .. . ... : ... .. . ... ... : ... .. . ... ... : ... .. . ... ... : ... .. . ... ...
ROW 3D : ... .. . ... ... ... : ... .. . ... ... ... : ... .. . ... : ... .. 1 ... : ... .. . ... ... : ... .. . ... ... : ... .. . ... ... : ... .. . ... ...
ROW 3E : ... .. 1 ... ... ... : ... .. 4 ... ... ... : ... .. . ... : ... .. . ... : ... .. . ... ... : ... .. . ... ... : ... .. . ... ... : ... .. . ... ...
ROW 3F : ... .. . ... ... ... : ... .. 3 ... ... ... : --- .. . ... : ... .. . ... : ... .. . ... ... : ... .. . ... ... : ... .. . ... ... : ... .. . ... ...
ROW 40 : ... .. . ... ... ... : ... .. . ... ... ... : ... .. . ... : ... .. 0 ... : ... .. . ... ... : ... .. . ... ... : ... .. . ... ... : ... .. 2 ... ...
ROW 41 : ... .. 0 ... V00 ... : ... .. . ... ... ... : ... .. . ... : ... .. . ... : ... .. . ... ... : ... .. . ... ... : ... .. . ... ... : ... .. . ... ...
ROW 42 : ... .. . ... ... ... : ... .. 2 ... ... ... : ... .. . ... : ... .. . ... : ... .. . ... ... : ... .. . ... ... : ... .. . ... ... : ... .. 1 ... ...
ROW 43 : ... .. . ... ... ... : ... .. . ... ... ... : ... .. . ... : ... .. . ... : ... .. . ... ... : ... .. . ... ... : ... .. . ... ... : ... .. . ... ...
ROW 44 : ... .. . ... ... ... : D#3 00 6 ... ... ... : C-3 00 . ... : ... .. D ... : ... .. . ... ... : D#4 01 6 ... ... : ... .. 6 ... ... : G-3 01 A ... ...
ROW 45 : ... .. . ... ... ... : ... .. 5 ... ... ... : ... .. . ... : ... .. B ... : ... .. . ... ... : ... .. 5 ... ... : ... .. 5 ... ... : ... .. 8 ... ...
ROW 46 : G-4 00 F P80 V01 ... : ... .. . ... ... ... : ... .. . ... : ... .. . ... : ... .. . ... ... : ... .. . ... ... : ... .. . ... ... : ... .. 5 ... ...
ROW 47 : ... .. E ... ... ... : ... .. . ... ... ... : ... .. . ... : ... .. A ... : ... .. . ... ... : ... .. 4 ... ... : ... .. 4 ... ... : ... .. . ... ...
ROW 48 : ... .. D ... ... ... : ... .. 4 ... ... ... : ... .. . ... : ... .. 8 ... : ... .. . ... ... : ... .. . ... ... : ... .. . ... ... : ... .. . ... ...
ROW 49 : F-4 00 F ... ... ... : ... .. 3 ... ... ... : ... .. . ... : ... .. 7 ... : ... .. . ... ... : ... .. . ... ... : ... .. . ... ... : ... .. . ... ...
ROW 4A : ... .. E ... ... ... : ... .. . ... ... ... : ... .. . ... : ... .. 6 ... : ... .. . ... ... : ... .. . ... ... : ... .. . ... ... : ... .. 2 ... ...
ROW 4B : ... .. D ... ... ... : ... .. . ... ... ... : ... .. . ... : ... .. . ... : ... .. . ... ... : ... .. 3 ... ... : ... .. 3 ... ... : ... .. . ... ...
ROW 4C : ... .. A ... ... ... : ... .. 2 ... ... ... : ... .. . ... : ... .. 5 ... : ... .. . ... ... : ... .. 2 ... ... : ... .. 2 ... ... : ... .. 1 ... ...
ROW 4D : ... .. . ... ... ... : ... .. . ... ... ... : ... .. . ... : ... .. . ... : ... .. . ... ... : ... .. . ... ... : ... .. . ... ... : ... .. . ... ...
ROW 4E : ... .. . ... ... ... : G-2 00 6 ... ... ... : ... .. . ... : ... .. 4 ... : ... .. . ... ... : ... .. 1 ... ... : ... .. 1 ... ... : F#3 01 A ... ...
ROW 4F : ... .. . ... ... ... : ... .. 5 ... ... ... : ... .. . ... : ... .. . ... : ... .. . ... ... : ... .. . ... ... : ... .. . ... ... : ... .. 8 ... ...
ROW 50 : ... .. . ... ... ... : ... .. . ... ... ... : ... .. . ... : ... .. 3 ... : ... .. . ... ... : ... .. . ... ... : ... .. . ... ... : ... .. 5 ... ...
ROW 51 : ... .. . ... ... ... : ... .. . ... ... ... : ... .. . ... : ... .. 2 ... : ... .. . ... ... : ... .. . ... ... : ... .. . ... ... : ... .. . ... ...
ROW 52 : ... .. . ... ... ... : ... .. 4 ... ... ... : ... .. . ... : ... .. . ... : ... .. . ... ... : ... .. . ... ... : ... .. . ... ... : ... .. . ... ...
ROW 53 : ... .. . ... ... ... : ... .. 3 ... ... ... : --- .. . ... : ... .. 1 ... : ... .. . ... ... : ... .. . ... ... : ... .. . ... ... : ... .. . ... ...
ROW 54 : ... .. . ... ... ... : ... .. . ... ... ... : ... .. . ... : ... .. 0 ... : ... .. . ... ... : ... .. . ... ... : ... .. . ... ... : ... .. 2 ... ...
ROW 55 : ... .. . ... ... ... : ... .. . ... ... ... : ... .. . ... : ... .. . ... : ... .. . ... ... : ... .. . ... ... : ... .. . ... ... : ... .. . ... ...
ROW 56 : ... .. . ... ... ... : ... .. 2 ... ... ... : ... .. . ... : ... .. . ... : ... .. . ... ... : ... .. . ... ... : ... .. . ... ... : ... .. 1 ... ...
ROW 57 : ... .. . ... ... ... : ... .. . ... ... ... : ... .. . ... : ... .. . ... : ... .. . ... ... : ... .. . ... ... : ... .. . ... ... : ... .. . ... ...
ROW 58 : D#4 00 F ... ... ... : D-3 00 6 ... ... ... : G-4 00 . ... : 9-# 00 A ... : ... .. . ... ... : ... .. 6 ... ... : ... .. 6 ... ... : G-3 01 A ... ...
ROW 59 : ... .. E ... ... ... : ... .. 5 ... ... ... : ... .. . ... : ... .. 8 ... : ... .. . ... ... : ... .. 5 ... ... : ... .. 5 ... ... : ... .. 8 ... ...
ROW 5A : ... .. D ... ... ... : ... .. . ... ... ... : ... .. . ... : ... .. 4 ... : ... .. . ... ... : ... .. . ... ... : ... .. . ... ... : ... .. 5 ... ...
ROW 5B : ... .. A ... ... ... : ... .. . ... ... ... : ... .. . ... : ... .. 2 ... : ... .. . ... ... : ... .. 4 ... ... : ... .. 4 ... ... : ... .. . ... ...
ROW 5C : ... .. . ... ... ... : ... .. 4 ... ... ... : ... .. . ... : ... .. 1 ... : ... .. . ... ... : ... .. . ... ... : ... .. . ... ... : ... .. . ... ...
ROW 5D : ... .. . ... ... ... : ... .. 3 ... ... ... : ... .. . ... : ... .. 0 ... : ... .. . ... ... : ... .. . ... ... : ... .. . ... ... : ... .. . ... ...
ROW 5E : ... .. 2 ... ... ... : ... .. . ... ... ... : ... .. . ... : ... .. . ... : ... .. . ... ... : ... .. . ... ... : ... .. . ... ... : ... .. . ... ...
ROW 5F : ... .. . ... ... ... : ... .. . ... ... ... : ... .. . ... : ... .. 8 ... : ... .. . ... ... : ... .. 3 ... ... : ... .. 3 ... ... : ... .. . ... ...
ROW 60 : ... .. . ... ... ... : ... .. 2 ... ... ... : ... .. . ... : ... .. 6 ... : ... .. . ... ... : ... .. 2 ... ... : ... .. 2 ... ... : ... .. . ... ...
ROW 61 : ... .. 1 ... ... ... : ... .. . ... ... ... : ... .. . ... : ... .. 3 ... : ... .. . ... ... : ... .. . ... ... : ... .. . ... ... : ... .. . ... ...
ROW 62 : D-4 00 F ... ... ... : G-2 00 6 ... ... ... : F-4 00 . ... : ... .. 1 ... : ... .. . ... ... : ... .. 1 ... ... : ... .. 1 ... ... : ... .. . ... ...
ROW 63 : ... .. E ... ... ... : ... .. 5 ... ... ... : ... .. . ... : ... .. . ... : ... .. . ... ... : ... .. . ... ... : ... .. . ... ... : ... .. . ... ...
ROW 64 : ... .. D ... ... ... : ... .. . ... ... ... : ... .. . ... : ... .. 0 ... : ... .. . ... ... : ... .. . ... ... : ... .. . ... ... : ... .. . ... ...
ROW 65 : ... .. A ... ... ... : ... .. . ... ... ... : ... .. . ... : ... .. C ... : ... .. . ... ... : ... .. . ... ... : ... .. . ... ... : ... .. . ... ...
ROW 66 : ... .. . ... ... ... : ... .. 4 ... ... ... : ... .. . ... : ... .. 9 ... : ... .. . ... ... : ... .. . ... ... : ... .. . ... ... : ... .. . ... ...
ROW 67 : ... .. . ... ... ... : ... .. 3 ... ... ... : --- .. . ... : ... .. 4 ... : ... .. . ... ... : ... .. . ... ... : ... .. . ... ... : ... .. . ... ...
ROW 68 : ... .. 2 ... ... ... : ... .. . ... ... ... : ... .. . ... : ... .. 2 ... : ... .. . ... ... : ... .. . ... ... : ... .. . ... ... : ... .. 2 ... ...
ROW 69 : ... .. . ... ... ... : ... .. . ... ... ... : ... .. . ... : ... .. 1 ... : ... .. . ... ... : ... .. . ... ... : ... .. . ... ... : ... .. . ... ...
ROW 6A : ... .. . ... ... ... : ... .. 2 ... ... ... : ... .. . ... : ... .. 0 ... : ... .. . ... ... : ... .. . ... ... : ... .. . ... ... : ... .. 1 ... ...
ROW 6B : ... .. 1 ... ... ... : ... .. . ... ... ... : ... .. . ... : ... .. . ... : ... .. . ... ... : ... .. . ... ... : ... .. . ... ... : ... .. . ... ...
ROW 6C : D#4 00 F ... ... ... : F-3 00 6 ... ... ... : D#4 00 . ... : ... .. F ... : ... .. . ... ... : C-4 01 6 ... ... : ... .. 6 ... ... : C-4 01 A ... ...
ROW 6D : ... .. E ... ... ... : ... .. 5 ... ... ... : ... .. . ... : ... .. C ... : ... .. . ... ... : ... .. 5 ... ... : ... .. 5 ... ... : ... .. 8 ... ...
ROW 6E : ... .. D ... ... ... : ... .. . ... ... ... : ... .. . ... : ... .. 6 ... : ... .. . ... ... : ... .. . ... ... : ... .. . ... ... : ... .. 5 ... ...
ROW 6F : ... .. A ... ... ... : ... .. . ... ... ... : ... .. . ... : ... .. 3 ... : ... .. . ... ... : ... .. 4 ... ... : ... .. 4 ... ... : ... .. . ... ...
ROW 70 : ... .. . ... ... ... : ... .. 4 ... ... ... : ... .. . ... : ... .. 2 ... : ... .. . ... ... : ... .. . ... ... : ... .. . ... ... : ... .. . ... ...
ROW 71 : ... .. . ... ... ... : ... .. 3 ... ... ... : ... .. . ... : ... .. 0 ... : ... .. . ... ... : ... .. . ... ... : ... .. . ... ... : ... .. . ... ...
ROW 72 : ... .. . ... ... ... : ... .. . ... ... ... : ... .. . ... : ... .. . ... : ... .. . ... ... : ... .. . ... ... : ... .. . ... ... : ... .. 2 ... ...
ROW 73 : ... .. . ... ... ... : ... .. . ... ... ... : ... .. . ... : ... .. . ... : ... .. . ... ... : ... .. 3 ... ... : ... .. 3 ... ... : ... .. . ... ...
ROW 74 : ... .. . ... ... ... : ... .. 2 ... ... ... : ... .. . ... : ... .. . ... : ... .. . ... ... : ... .. 2 ... ... : ... .. 2 ... ... : ... .. 1 ... ...
ROW 75 : ... .. . ... ... ... : ... .. . ... ... ... : ... .. . ... : ... .. . ... : ... .. . ... ... : ... .. . ... ... : ... .. . ... ... : ... .. . ... ...
ROW 76 : ... .. . ... ... ... : G-2 00 6 ... ... ... : D-4 00 . ... : ... .. . ... : ... .. . ... ... : ... .. 1 ... ... : ... .. 1 ... ... : B-3 01 A ... ...
ROW 77 : ... .. . ... ... ... : ... .. 5 ... ... ... : ... .. . ... : ... .. . ... : ... .. . ... ... : ... .. . ... ... : ... .. . ... ... : ... .. 8 ... ...
ROW 78 : ... .. . ... ... ... : ... .. . ... ... ... : ... .. . ... : ... .. . ... : ... .. . ... ... : ... .. . ... ... : ... .. . ... ... : ... .. 5 ... ...
ROW 79 : ... .. . ... ... ... : ... .. . ... ... ... : ... .. . ... : ... .. . ... : ... .. . ... ... : ... .. . ... ... : ... .. . ... ... : ... .. . ... ...
ROW 7A : ... .. . ... ... ... : ... .. 4 ... ... ... : ... .. . ... : ... .. . ... : ... .. . ... ... : ... .. . ... ... : ... .. . ... ... : ... .. . ... ...
ROW 7B : ... .. . ... ... ... : ... .. 3 ... ... ... : --- .. . ... : ... .. . ... : ... .. . ... ... : ... .. . ... ... : ... .. . ... ... : ... .. . ... ...
ROW 7C : ... .. . ... ... ... : ... .. . ... ... ... : ... .. . ... : ... .. . ... : ... .. . ... ... : ... .. . ... ... : ... .. . ... ... : ... .. 2 ... ...
ROW 7D : ... .. . ... ... ... : ... .. . ... ... ... : ... .. . ... : ... .. . ... : ... .. . ... ... : ... .. . ... ... : ... .. . ... ... : ... .. . ... ...
ROW 7E : ... .. . ... ... ... : ... .. 2 ... ... ... : ... .. . ... : ... .. . ... : ... .. . ... ... : ... .. . ... ... : ... .. . ... ... : ... .. 1 ... ...
ROW 7F : ... .. . ... ... ... : ... .. . ... ... ... : ... .. . ... : ... .. . ... : ... .. . ... ... : ... .. . ... ... : ... .. . ... ... : ... .. . ... ...
ROW 80 : C-4 00 F ... ... ... : D#3 00 6 ... ... ... : D#4 00 . ... : ... .. . ... : ... .. . ... ... : ... .. 6 ... ... : ... .. 6 ... ... : C-4 01 A ... ...
ROW 81 : ... .. E ... ... ... : ... .. 5 ... ... ... : ... .. . ... : ... .. . ... : ... .. . ... ... : ... .. 5 ... ... : ... .. 5 ... ... : ... .. 8 ... ...
ROW 82 : ... .. D ... ... ... : ... .. . ... ... ... : ... .. . ... : ... .. . ... : ... .. . ... ... : ... .. . ... ... : ... .. . ... ... : ... .. 5 ... ...
ROW 83 : ... .. A ... ... ... : ... .. . ... ... ... : ... .. . ... : ... .. . ... : ... .. . ... ... : ... .. 4 ... ... : ... .. 4 ... ... : ... .. . ... ...
ROW 84 : ... .. . ... ... ... : ... .. 4 ... ... ... : ... .. . ... : ... .. . ... : ... .. . ... ... : ... .. . ... ... : ... .. . ... ... : ... .. . ... ...
ROW 85 : ... .. . ... ... ... : ... .. 3 ... ... ... : ... .. . ... : ... .. . ... : ... .. . ... ... : ... .. . ... ... : ... .. . ... ... : ... .. . ... ...
ROW 86 : ... .. . ... ... ... : ... .. . ... ... ... : ... .. . ... : ... .. . ... : ... .. . ... ... : ... .. . ... ... : ... .. . ... ... : ... .. . ... ...
ROW 87 : ... .. . ... ... ... : ... .. . ... ... ... : ... .. . ... : ... .. . ... : ... .. . ... ... : ... .. 3 ... ... : ... .. 3 ... ... : ... .. . ... ...
ROW 88 : ... .. . ... ... ... : ... .. 2 ... ... ... : ... .. . ... : ... .. . ... : ... .. . ... ... : ... .. 2 ... ... : ... .. 2 ... ... : ... .. . ... ...
ROW 89 : ... .. . ... ... ... : ... .. . ... ... ... : ... .. . ... : ... .. . ... : ... .. . ... ... : ... .. . ... ... : ... .. . ... ... : ... .. . ... ...
ROW 8A : ... .. . ... ... ... : G-2 00 6 ... ... ... : ... .. . ... : ... .. . ... : ... .. . ... ... : ... .. 1 ... ... : ... .. 1 ... ... : D#4 01 A ... ...
ROW 8B : ... .. 2 ... ... ... : ... .. 5 ... ... ... : ... .. . ... : ... .. . ... : ... .. . ... ... : ... .. . ... ... : ... .. . ... ... : ... .. 8 ... ...
ROW 8C : ... .. . ... ... ... : ... .. . ... ... ... : ... .. . ... : ... .. . ... : ... .. . ... ... : ... .. . ... ... : ... .. . ... ... : ... .. 5 ... ...
ROW 8D : ... .. . ... ... ... : ... .. . ... ... ... : ... .. . ... : ... .. . ... : ... .. . ... ... : ... .. . ... ... : ... .. . ... ... : ... .. . ... ...
ROW 8E : ... .. 1 ... ... ... : ... .. 4 ... ... ... : ... .. . ... : ... .. . ... : ... .. . ... ... : ... .. . ... ... : ... .. . ... ... : ... .. . ... ...
ROW 8F : ... .. . ... ... ... : ... .. 3 ... ... ... : --- .. . ... : ... .. . ... : ... .. . ... ... : ... .. . ... ... : ... .. . ... ... : ... .. . ... ...
ROW 90 : ... .. . ... ... ... : ... .. . ... ... ... : ... .. . ... : ... .. . ... : ... .. . ... ... : ... .. . ... ... : ... .. . ... ... : ... .. . ... ...
ROW 91 : ... .. 0 ... V00 ... : ... .. . ... ... ... : ... .. . ... : ... .. . ... : ... .. . ... ... : ... .. . ... ... : ... .. . ... ... : ... .. . ... ...
ROW 92 : ... .. . ... ... ... : ... .. 2 ... ... ... : ... .. . ... : ... .. . ... : ... .. . ... ... : ... .. . ... ... : ... .. . ... ... : ... .. . ... ...
ROW 93 : ... .. . ... ... ... : ... .. . ... ... ... : ... .. . ... : ... .. . ... : ... .. . ... ... : ... .. . ... ... : ... .. . ... ... : ... .. . ... ...
ROW 94 : ... .. . ... ... ... : D-3 00 6 ... ... ... : C-3 00 . ... : D-# 00 D V01 : ... .. . ... ... : D-4 01 6 ... ... : ... .. 6 ... ... : F-4 01 A ... ...
ROW 95 : ... .. . ... ... ... : ... .. 5 ... ... ... : ... .. . ... : ... .. B ... : ... .. . ... ... : ... .. 5 ... ... : ... .. 5 ... ... : ... .. 8 ... ...
ROW 96 : ... .. . ... ... ... : ... .. . ... ... ... : ... .. . ... : ... .. . ... : ... .. . ... ... : ... .. . ... ... : ... .. . ... ... : ... .. 5 ... ...
ROW 97 : ... .. . ... ... ... : ... .. . ... ... ... : ... .. . ... : ... .. A ... : ... .. . ... ... : ... .. 4 ... ... : ... .. 4 ... ... : ... .. . ... ...
ROW 98 : ... .. . ... ... ... : ... .. 4 ... ... ... : ... .. . ... : ... .. 8 ... : ... .. . ... ... : ... .. . ... ... : ... .. . ... ... : ... .. . ... ...
ROW 99 : ... .. . ... ... ... : ... .. 3 ... ... ... : ... .. . ... : ... .. 7 ... : ... .. . ... ... : ... .. . ... ... : ... .. . ... ... : ... .. . ... ...
ROW 9A : ... .. . ... ... ... : ... .. . ... ... ... : ... .. . ... : ... .. 6 ... : ... .. . ... ... : ... .. . ... ... : ... .. . ... ... : ... .. . ... ...
ROW 9B : ... .. . ... ... ... : ... .. . ... ... ... : ... .. . ... : ... .. . ... : ... .. . ... ... : ... .. 3 ... ... : ... .. 3 ... ... : ... .. . ... ...
ROW 9C : ... .. . ... ... ... : ... .. 2 ... ... ... : ... .. . ... : ... .. 5 ... : ... .. . ... ... : ... .. 2 ... ... : ... .. 2 ... ... : ... .. . ... ...
ROW 9D : ... .. . ... ... ... : ... .. . ... ... ... : ... .. . ... : ... .. . ... : ... .. . ... ... : ... .. . ... ... : ... .. . ... ... : ... .. . ... ...
ROW 9E : ... .. . ... ... ... : F-2 00 6 ... ... ... : ... .. . ... : ... .. 4 ... : ... .. . ... ... : ... .. 1 ... ... : ... .. 1 ... ... : ... .. . ... ...
ROW 9F : ... .. . ... ... ... : ... .. 5 ... ... ... : ... .. . ... : ... .. . ... : ... .. . ... ... : ... .. . ... ... : ... .. . ... ... : ... .. 2 ... ...
ROW A0 : ... .. . ... ... ... : ... .. . ... ... ... : ... .. . ... : ... .. 3 ... : ... .. . ... ... : ... .. . ... ... : ... .. . ... ... : ... .. . ... ...
ROW A1 : ... .. . ... ... ... : ... .. . ... ... ... : ... .. . ... : ... .. 2 ... : ... .. . ... ... : ... .. . ... ... : ... .. . ... ... : ... .. 1 ... ...
ROW A2 : ... .. . ... ... ... : ... .. 4 ... ... ... : ... .. . ... : ... .. . ... : ... .. . ... ... : ... .. . ... ... : ... .. . ... ... : ... .. . ... ...
ROW A3 : ... .. . ... ... ... : ... .. 3 ... ... ... : --- .. . ... : ... .. 1 ... : ... .. . ... ... : ... .. . ... ... : ... .. . ... ... : ... .. . ... ...
ROW A4 : ... .. . ... ... ... : ... .. . ... ... ... : ... .. . ... : ... .. 0 ... : ... .. . ... ... : ... .. . ... ... : ... .. . ... ... : ... .. . ... ...
ROW A5 : ... .. . ... ... ... : ... .. . ... ... ... : ... .. . ... : ... .. . ... : ... .. . ... ... : ... .. . ... ... : ... .. . ... ... : ... .. . ... ...
ROW A6 : ... .. . ... ... ... : ... .. 2 ... ... ... : ... .. . ... : ... .. . ... : ... .. . ... ... : ... .. . ... ... : ... .. . ... ... : ... .. . ... ...
ROW A7 : ... .. . ... ... ... : ... .. . ... ... ... : ... .. . ... : ... .. . ... : ... .. . ... ... : ... .. . ... ... : ... .. . ... ... : ... .. . ... ...
ROW A8 : F-3 00 F P80 V01 ... : C-3 00 6 ... ... ... : F-4 00 . ... : 9-# 00 A V00 : ... .. . ... ... : ... .. 6 ... ... : ... .. 6 ... ... : G-3 01 A ... ...
ROW A9 : ... .. E ... ... ... : ... .. 5 ... ... ... : ... .. . ... : ... .. 8 ... : ... .. . ... ... : ... .. 5 ... ... : ... .. 5 ... ... : ... .. 8 ... ...
ROW AA : ... .. D ... ... ... : ... .. . ... ... ... : ... .. . ... : ... .. 4 ... : ... .. . ... ... : ... .. . ... ... : ... .. . ... ... : ... .. 5 ... ...
ROW AB : ... .. A ... ... ... : ... .. . ... ... ... : ... .. . ... : ... .. 2 ... : ... .. . ... ... : ... .. 4 ... ... : ... .. 4 ... ... : ... .. . ... ...
ROW AC : ... .. . ... ... ... : ... .. 4 ... ... ... : ... .. . ... : ... .. 1 ... : ... .. . ... ... : ... .. . ... ... : ... .. . ... ... : ... .. . ... ...
ROW AD : ... .. . ... ... ... : ... .. 3 ... ... ... : ... .. . ... : ... .. 0 ... : ... .. . ... ... : ... .. . ... ... : ... .. . ... ... : ... .. . ... ...
ROW AE : ... .. 2 ... ... ... : ... .. . ... ... ... : ... .. . ... : ... .. . ... : ... .. . ... ... : ... .. . ... ... : ... .. . ... ... : ... .. . ... ...
ROW AF : ... .. . ... ... ... : ... .. . ... ... ... : ... .. . ... : ... .. . ... : ... .. . ... ... : ... .. 3 ... ... : ... .. 3 ... ... : ... .. . ... ...
ROW B0 : ... .. . ... ... ... : ... .. 2 ... ... ... : ... .. . ... : ... .. . ... : ... .. . ... ... : ... .. 2 ... ... : ... .. 2 ... ... : ... .. . ... ...
ROW B1 : ... .. 1 ... ... ... : ... .. . ... ... ... : ... .. . ... : ... .. . ... : ... .. . ... ... : ... .. . ... ... : ... .. . ... ... : ... .. . ... ...
ROW B2 : ... .. . ... ... ... : F-2 00 6 ... ... ... : D#4 00 . ... : ... .. 8 ... : ... .. . ... ... : ... .. 1 ... ... : ... .. 1 ... ... : ... .. . ... ...
ROW B3 : ... .. . ... ... ... : ... .. 5 ... ... ... : ... .. . ... : ... .. 6 ... : ... .. . ... ... : ... .. . ... ... : ... .. . ... ... : ... .. 2 ... ...
ROW B4 : ... .. 0 ... V00 ... : ... .. . ... ... ... : ... .. . ... : ... .. 3 ... : ... .. . ... ... : ... .. . ... ... : ... .. . ... ... : ... .. . ... ...
ROW B5 : ... .. . ... ... ... : ... .. . ... ... ... : ... .. . ... : ... .. 1 ... : ... .. . ... ... : ... .. . ... ... : ... .. . ... ... : ... .. 1 ... ...
ROW B6 : ... .. . ... ... ... : ... .. 4 ... ... ... : ... .. . ... : ... .. . ... : ... .. . ... ... : ... .. . ... ... : ... .. . ... ... : ... .. . ... ...
ROW B7 : ... .. . ... ... ... : ... .. 3 ... ... ... : --- .. . ... : ... .. 0 ... : ... .. . ... ... : ... .. . ... ... : ... .. . ... ... : ... .. . ... ...
ROW B8 : ... .. . ... ... ... : ... .. . ... ... ... : ... .. . ... : ... .. . ... : ... .. . ... ... : ... .. . ... ... : ... .. . ... ... : ... .. . ... ...
ROW B9 : ... .. . ... ... ... : ... .. . ... ... ... : ... .. . ... : ... .. . ... : ... .. . ... ... : ... .. . ... ... : ... .. . ... ... : ... .. . ... ...
ROW BA : ... .. . ... ... ... : ... .. 2 ... ... ... : ... .. . ... : ... .. . ... : ... .. . ... ... : ... .. . ... ... : ... .. . ... ... : ... .. . ... ...
ROW BB : ... .. . ... ... ... : ... .. . ... ... ... : ... .. . ... : ... .. . ... : ... .. . ... ... : ... .. . ... ... : ... .. . ... ... : ... .. . ... ...
ROW BC : F-3 00 F P80 V01 ... : D-3 00 6 ... ... ... : D-4 00 . ... : ... .. F ... : ... .. . ... ... : C-4 01 6 ... ... : ... .. 6 ... ... : F-4 01 A ... ...
ROW BD : ... .. E ... ... ... : ... .. 5 ... ... ... : ... .. . ... : ... .. C ... : ... .. . ... ... : ... .. 5 ... ... : ... .. 5 ... ... : ... .. 8 ... ...
ROW BE : ... .. D ... ... ... : ... .. . ... ... ... : ... .. . ... : ... .. 6 ... : ... .. . ... ... : ... .. . ... ... : ... .. . ... ... : ... .. 5 ... ...
ROW BF : ... .. A ... ... ... : ... .. . ... ... ... : ... .. . ... : ... .. 3 ... : ... .. . ... ... : ... .. 4 ... ... : ... .. 4 ... ... : ... .. . ... ...
ROW C0 : ... .. . ... ... ... : ... .. 4 ... ... ... : ... .. . ... : ... .. 2 ... : ... .. . ... ... : ... .. . ... ... : ... .. . ... ... : ... .. . ... ...
ROW C1 : ... .. . ... ... ... : ... .. 3 ... ... ... : ... .. . ... : ... .. 0 ... : ... .. . ... ... : ... .. . ... ... : ... .. . ... ... : ... .. . ... ...
ROW C2 : ... .. . ... ... ... : ... .. . ... ... ... : ... .. . ... : ... .. . ... : ... .. . ... ... : ... .. . ... ... : ... .. . ... ... : ... .. . ... ...
ROW C3 : ... .. . ... ... ... : ... .. . ... ... ... : ... .. . ... : ... .. . ... : ... .. . ... ... : ... .. 3 ... ... : ... .. 3 ... ... : ... .. . ... ...
ROW C4 : ... .. . ... ... ... : ... .. 2 ... ... ... : ... .. . ... : ... .. . ... : ... .. . ... ... : ... .. 2 ... ... : ... .. 2 ... ... : ... .. . ... ...
ROW C5 : ... .. . ... ... ... : ... .. . ... ... ... : ... .. . ... : ... .. . ... : ... .. . ... ... : ... .. . ... ... : ... .. . ... ... : ... .. . ... ...
ROW C6 : ... .. . ... ... ... : F-2 00 6 ... ... ... : C-4 00 . ... : ... .. . ... : ... .. . ... ... : ... .. 1 ... ... : ... .. 1 ... ... : ... .. . ... ...
ROW C7 : ... .. . ... ... ... : ... .. 5 ... ... ... : ... .. . ... : ... .. . ... : ... .. . ... ... : ... .. . ... ... : ... .. . ... ... : ... .. 2 ... ...
ROW C8 : ... .. . ... ... ... : ... .. . ... ... ... : ... .. . ... : ... .. . ... : ... .. . ... ... : ... .. . ... ... : ... .. . ... ... : ... .. . ... ...
ROW C9 : ... .. . ... ... ... : ... .. . ... ... ... : ... .. . ... : ... .. . ... : ... .. . ... ... : ... .. . ... ... : ... .. . ... ... : ... .. 1 ... ...
ROW CA : ... .. . ... ... ... : ... .. 4 ... ... ... : ... .. . ... : ... .. . ... : ... .. . ... ... : ... .. . ... ... : ... .. . ... ... : ... .. . ... ...
ROW CB : ... .. . ... ... ... : ... .. 3 ... ... ... : --- .. . ... : ... .. . ... : ... .. . ... ... : ... .. . ... ... : ... .. . ... ... : ... .. . ... ...
ROW CC : ... .. . ... ... ... : ... .. . ... ... ... : ... .. . ... : ... .. . ... : ... .. . ... ... : ... .. . ... ... : ... .. . ... ... : ... .. . ... ...
ROW CD : ... .. . ... ... ... : ... .. . ... ... ... : ... .. . ... : ... .. . ... : ... .. . ... ... : ... .. . ... ... : ... .. . ... ... : ... .. . ... ...
ROW CE : ... .. . ... ... ... : ... .. 2 ... ... ... : ... .. . ... : ... .. . ... : ... .. . ... ... : ... .. . ... ... : ... .. . ... ... : ... .. . ... ...
ROW CF : ... .. . ... ... ... : ... .. . ... ... ... : ... .. . ... : ... .. . ... : ... .. . ... ... : ... .. . ... ... : ... .. . ... ... : ... .. . ... ...
ROW D0 : C-4 00 F ... ... ... : C-3 00 6 ... ... ... : D-4 00 . ... : D-# 00 F ... : ... .. . ... ... : ... .. 6 ... ... : ... .. 6 ... ... : G#4 01 A ... ...
ROW D1 : ... .. E ... ... ... : ... .. 5 ... ... ... : ... .. . ... : ... .. C ... : ... .. . ... ... : ... .. 5 ... ... : ... .. 5 ... ... : ... .. 8 ... ...
ROW D2 : ... .. D ... ... ... : ... .. . ... ... ... : ... .. . ... : ... .. 6 ... : ... .. . ... ... : ... .. . ... ... : ... .. . ... ... : ... .. 5 ... ...
ROW D3 : ... .. A ... ... ... : ... .. . ... ... ... : ... .. . ... : ... .. 3 ... : ... .. . ... ... : ... .. 4 ... ... : ... .. 4 ... ... : ... .. . ... ...
ROW D4 : ... .. . ... ... ... : ... .. 4 ... ... ... : ... .. . ... : ... .. 2 ... : ... .. . ... ... : ... .. . ... ... : ... .. . ... ... : ... .. . ... ...
ROW D5 : ... .. . ... ... ... : ... .. 3 ... ... ... : ... .. . ... : ... .. 0 ... : ... .. . ... ... : ... .. . ... ... : ... .. . ... ... : ... .. . ... ...
ROW D6 : ... .. . ... ... ... : ... .. . ... ... ... : ... .. . ... : ... .. . ... : ... .. . ... ... : ... .. . ... ... : ... .. . ... ... : ... .. . ... ...
ROW D7 : ... .. . ... ... ... : ... .. . ... ... ... : ... .. . ... : ... .. . ... : ... .. . ... ... : ... .. 3 ... ... : ... .. 3 ... ... : ... .. . ... ...
ROW D8 : ... .. . ... ... ... : ... .. 2 ... ... ... : ... .. . ... : ... .. . ... : ... .. . ... ... : ... .. 2 ... ... : ... .. 2 ... ... : ... .. . ... ...
ROW D9 : ... .. . ... ... ... : ... .. . ... ... ... : ... .. . ... : ... .. . ... : ... .. . ... ... : ... .. . ... ... : ... .. . ... ... : ... .. . ... ...
ROW DA : ... .. . ... ... ... : F-2 00 6 ... ... ... : ... .. . ... : ... .. . ... : ... .. . ... ... : ... .. 1 ... ... : ... .. 1 ... ... : G-4 01 A ... ...
ROW DB : ... .. 2 ... ... ... : ... .. 5 ... ... ... : ... .. . ... : ... .. . ... : ... .. . ... ... : ... .. . ... ... : ... .. . ... ... : ... .. 8 ... ...
ROW DC : ... .. . ... ... ... : ... .. . ... ... ... : ... .. . ... : ... .. . ... : ... .. . ... ... : ... .. . ... ... : ... .. . ... ... : ... .. 5 ... ...
ROW DD : ... .. . ... ... ... : ... .. . ... ... ... : ... .. . ... : ... .. . ... : ... .. . ... ... : ... .. . ... ... : ... .. . ... ... : ... .. . ... ...
ROW DE : ... .. 1 ... ... ... : ... .. 4 ... ... ... : ... .. . ... : ... .. . ... : ... .. . ... ... : ... .. . ... ... : ... .. . ... ... : ... .. . ... ...
ROW DF : ... .. . ... ... ... : ... .. 3 ... ... ... : --- .. . ... : ... .. . ... : ... .. . ... ... : ... .. . ... ... : ... .. . ... ... : ... .. . ... ...
ROW E0 : ... .. . ... ... ... : ... .. . ... ... ... : ... .. . ... : ... .. . ... : ... .. . ... ... : ... .. . ... ... : ... .. . ... ... : ... .. 2 ... ...
ROW E1 : ... .. 0 ... V00 ... : ... .. . ... ... ... : ... .. . ... : ... .. . ... : ... .. . ... ... : ... .. . ... ... : ... .. . ... ... : ... .. . ... ...
ROW E2 : ... .. . ... ... ... : ... .. 2 ... ... ... : ... .. . ... : ... .. . ... : ... .. . ... ... : ... .. . ... ... : ... .. . ... ... : ... .. 1 ... ...
ROW E3 : ... .. . ... ... ... : ... .. . ... ... ... : ... .. . ... : ... .. . ... : ... .. . ... ... : ... .. . ... ... : ... .. . ... ... : ... .. . ... ...
ROW E4 : C-4 00 F P80 V01 ... : D-3 00 6 ... ... ... : C-3 00 . ... : ... .. D ... : ... .. . ... ... : D-4 01 6 ... ... : ... .. 6 ... ... : F-4 01 A ... ...
ROW E5 : ... .. E ... ... ... : ... .. 5 ... ... ... : ... .. . ... : ... .. B ... : ... .. . ... ... : ... .. 5 ... ... : ... .. 5 ... ... : ... .. 8 ... ...
ROW E6 : ... .. D ... ... ... : ... .. . ... ... ... : ... .. . ... : ... .. . ... : ... .. . ... ... : ... .. . ... ... : ... .. . ... ... : ... .. 5 ... ...
ROW E7 : ... .. A ... ... ... : ... .. . ... ... ... : ... .. . ... : ... .. A ... : ... .. . ... ... : ... .. 4 ... ... : ... .. 4 ... ... : ... .. . ... ...
ROW E8 : ... .. . ... ... ... : ... .. 4 ... ... ... : ... .. . ... : ... .. 8 ... : ... .. . ... ... : ... .. . ... ... : ... .. . ... ... : ... .. . ... ...
ROW E9 : ... .. . ... ... ... : ... .. 3 ... ... ... : ... .. . ... : ... .. 7 ... : ... .. . ... ... : ... .. . ... ... : ... .. . ... ... : ... .. . ... ...
ROW EA : ... .. . ... ... ... : ... .. . ... ... ... : ... .. . ... : ... .. 6 ... : ... .. . ... ... : ... .. . ... ... : ... .. . ... ... : ... .. . ... ...
ROW EB : ... .. . ... ... ... : ... .. . ... ... ... : ... .. . ... : ... .. . ... : ... .. . ... ... : ... .. 3 ... ... : ... .. 3 ... ... : ... .. . ... ...
ROW EC : ... .. . ... ... ... : ... .. 2 ... ... ... : ... .. . ... : ... .. 5 ... : ... .. . ... ... : ... .. 2 ... ... : ... .. 2 ... ... : ... .. . ... ...
ROW ED : ... .. . ... ... ... : ... .. . ... ... ... : ... .. . ... : ... .. . ... : ... .. . ... ... : ... .. . ... ... : ... .. . ... ... : ... .. . ... ...
ROW EE : D-4 00 F ... ... ... : F-2 00 6 ... ... ... : ... .. . ... : ... .. 4 ... : ... .. . ... ... : ... .. 1 ... ... : ... .. 1 ... ... : D#4 01 A ... ...
ROW EF : ... .. E ... ... ... : ... .. 5 ... ... ... : ... .. . ... : ... .. . ... : ... .. . ... ... : ... .. . ... ... : ... .. . ... ... : ... .. 8 ... ...
ROW F0 : ... .. D ... ... ... : ... .. . ... ... ... : ... .. . ... : ... .. 3 ... : ... .. . ... ... : ... .. . ... ... : ... .. . ... ... : ... .. 5 ... ...
ROW F1 : ... .. A ... ... ... : ... .. . ... ... ... : ... .. . ... : ... .. 2 ... : ... .. . ... ... : ... .. . ... ... : ... .. . ... ... : ... .. . ... ...
ROW F2 : ... .. . ... ... ... : ... .. 4 ... ... ... : ... .. . ... : ... .. . ... : ... .. . ... ... : ... .. . ... ... : ... .. . ... ... : ... .. . ... ...
ROW F3 : C-4 00 F ... ... ... : ... .. 3 ... ... ... : --- .. . ... : ... .. 1 ... : ... .. . ... ... : ... .. . ... ... : ... .. . ... ... : ... .. . ... ...
ROW F4 : ... .. E ... ... ... : ... .. . ... ... ... : ... .. . ... : ... .. 0 ... : ... .. . ... ... : ... .. . ... ... : ... .. . ... ... : ... .. 2 ... ...
ROW F5 : ... .. D ... ... ... : ... .. . ... ... ... : ... .. . ... : ... .. . ... : ... .. . ... ... : ... .. . ... ... : ... .. . ... ... : ... .. . ... ...
ROW F6 : ... .. A ... ... ... : ... .. 2 ... ... ... : ... .. . ... : ... .. . ... : ... .. . ... ... : ... .. . ... ... : ... .. . ... ... : ... .. 1 ... ...
ROW F7 : ... .. . ... ... ... : ... .. . ... ... ... : ... .. . ... : ... .. . ... : ... .. . ... ... : ... .. . ... ... : ... .. . ... ... : ... .. . ... ...
ROW F8 : B-3 00 F ... ... ... : B-2 00 6 ... ... ... : D-4 00 . ... : 9-# 00 A ... : ... .. . ... ... : ... .. 6 ... ... : ... .. 6 ... ... : D-4 01 A ... ...
ROW F9 : ... .. E ... ... ... : ... .. 5 ... ... ... : ... .. . ... : ... .. 8 ... : ... .. . ... ... : ... .. 5 ... ... : ... .. 5 ... ... : ... .. 8 ... ...
ROW FA : ... .. D ... ... ... : ... .. . ... ... ... : ... .. . ... : ... .. 4 ... : ... .. . ... ... : ... .. . ... ... : ... .. . ... ... : ... .. 5 ... ...
ROW FB : ... .. A ... ... ... : ... .. . ... ... ... : ... .. . ... : ... .. 2 ... : ... .. . ... ... : ... .. 4 ... ... : ... .. 4 ... ... : ... .. . ... ...
ROW FC : ... .. . ... ... ... : ... .. 4 ... ... ... : ... .. . ... : ... .. 1 ... : ... .. . ... ... : ... .. . ... ... : ... .. . ... ... : ... .. . ... ...
ROW FD : ... .. . ... ... ... : ... .. 3 ... ... ... : ... .. . ... : ... .. 0 ... : ... .. . ... ... : ... .. . ... ... : ... .. . ... ... : ... .. . ... ...
ROW FE : ... .. 2 ... ... ... : ... .. . ... ... ... : ... .. . ... : ... .. . ... : ... .. . ... ... : ... .. . ... ... : ... .. . ... ... : ... .. 2 ... ...
ROW FF : ... .. . ... ... ... : ... .. . ... ... ... : ... .. . ... : ... .. . ... : ... .. . ... ... : ... .. 3 ... ... : ... .. 3 ... ... : ... .. . ... ...

PATTERN 08
ROW 00 : ... .. . ... ... ... : ... .. 2 ... ... ... : ... .. . ... : ... .. . ... : ... .. . ... ... : ... .. 2 ... ... : ... .. 2 ... ... : ... .. 1 ... ...
ROW 01 : ... .. 1 ... ... ... : ... .. . ... ... ... : ... .. . ... : ... .. . ... : ... .. . ... ... : ... .. . ... ... : ... .. . ... ... : ... .. . ... ...
ROW 02 : A-3 00 F ... ... ... : F-2 00 6 ... ... ... : C-4 00 . ... : ... .. 8 ... : ... .. . ... ... : ... .. 1 ... ... : ... .. 1 ... ... : C-4 01 A ... ...
ROW 03 : ... .. E ... ... ... : ... .. 5 ... ... ... : ... .. . ... : ... .. 6 ... : ... .. . ... ... : ... .. . ... ... : ... .. . ... ... : ... .. 8 ... ...
ROW 04 : ... .. D ... ... ... : ... .. . ... ... ... : ... .. . ... : ... .. 3 ... : ... .. . ... ... : ... .. . ... ... : ... .. . ... ... : ... .. 5 ... ...
ROW 05 : ... .. A ... ... ... : ... .. . ... ... ... : ... .. . ... : ... .. 1 ... : ... .. . ... ... : ... .. . ... ... : ... .. . ... ... : ... .. . ... ...
ROW 06 : ... .. . ... ... ... : ... .. 4 ... ... ... : ... .. . ... : ... .. . ... : ... .. . ... ... : ... .. . ... ... : ... .. . ... ... : ... .. . ... ...
ROW 07 : ... .. . ... ... ... : ... .. 3 ... ... ... : --- .. . ... : ... .. 0 ... : ... .. . ... ... : ... .. . ... ... : ... .. . ... ... : ... .. . ... ...
ROW 08 : ... .. 2 ... ... ... : ... .. . ... ... ... : ... .. . ... : ... .. . ... : ... .. . ... ... : ... .. . ... ... : ... .. . ... ... : ... .. 2 ... ...
ROW 09 : ... .. . ... ... ... : ... .. . ... ... ... : ... .. . ... : ... .. . ... : ... .. . ... ... : ... .. . ... ... : ... .. . ... ... : ... .. . ... ...
ROW 0A : ... .. . ... ... ... : ... .. 2 ... ... ... : ... .. . ... : ... .. . ... : ... .. . ... ... : ... .. . ... ... : ... .. . ... ... : ... .. 1 ... ...
ROW 0B : ... .. 1 ... ... ... : ... .. . ... ... ... : ... .. . ... : ... .. . ... : ... .. . ... ... : ... .. . ... ... : ... .. . ... ... : ... .. . ... ...
ROW 0C : B-3 00 F ... ... ... : D-3 00 6 ... ... ... : B-3 00 . ... : ... .. F ... : ... .. . ... ... : B-3 01 6 ... ... : ... .. 6 ... ... : B-3 01 A ... ...
ROW 0D : ... .. E ... ... ... : ... .. 5 ... ... ... : ... .. . ... : ... .. C ... : ... .. . ... ... : ... .. 5 ... ... : ... .. 5 ... ... : ... .. 8 ... ...
ROW 0E : ... .. D ... ... ... : ... .. . ... ... ... : ... .. . ... : ... .. 6 ... : ... .. . ... ... : ... .. . ... ... : ... .. . ... ... : ... .. 5 ... ...
ROW 0F : ... .. A ... ... ... : ... .. . ... ... ... : ... .. . ... : ... .. 3 ... : ... .. . ... ... : ... .. 4 ... ... : ... .. 4 ... ... : ... .. . ... ...
ROW 10 : ... .. . ... ... ... : ... .. 4 ... ... ... : ... .. . ... : ... .. 2 ... : ... .. . ... ... : ... .. . ... ... : ... .. . ... ... : ... .. . ... ...
ROW 11 : ... .. . ... ... ... : ... .. 3 ... ... ... : ... .. . ... : ... .. 0 ... : ... .. . ... ... : ... .. . ... ... : ... .. . ... ... : ... .. . ... ...
ROW 12 : ... .. . ... ... ... : ... .. . ... ... ... : ... .. . ... : ... .. . ... : ... .. . ... ... : ... .. . ... ... : ... .. . ... ... : ... .. . ... ...
ROW 13 : ... .. . ... ... ... : ... .. . ... ... ... : ... .. . ... : ... .. . ... : ... .. . ... ... : ... .. 3 ... ... : ... .. 3 ... ... : ... .. . ... ...
ROW 14 : ... .. . ... ... ... : ... .. 2 ... ... ... : ... .. . ... : ... .. . ... : ... .. . ... ... : ... .. 2 ... ... : ... .. 2 ... ... : ... .. . ... ...
ROW 15 : ... .. . ... ... ... : ... .. . ... ... ... : ... .. . ... : ... .. . ... : ... .. . ... ... : ... .. . ... ... : ... .. . ... ... : ... .. . ... ...
ROW 16 : ... .. . ... ... ... : B-2 00 6 ... ... ... : ... .. . ... : ... .. . ... : ... .. . ... ... : ... .. 1 ... ... : ... .. 1 ... ... : G#3 01 A ... ...
ROW 17 : ... .. . ... ... ... : ... .. 5 ... ... ... : ... .. . ... : ... .. . ... : ... .. . ... ... : ... .. . ... ... : ... .. . ... ... : ... .. 8 ... ...
ROW 18 : ... .. . ... ... ... : ... .. . ... ... ... : ... .. . ... : ... .. . ... : ... .. . ... ... : ... .. . ... ... : ... .. . ... ... : ... .. 5 ... ...
ROW 19 : ... .. . ... ... ... : ... .. . ... ... ... : ... .. . ... : ... .. . ... : ... .. . ... ... : ... .. . ... ... : ... .. . ... ... : ... .. . ... ...
ROW 1A : ... .. . ... ... ... : ... .. 4 ... ... ... : ... .. . ... : ... .. . ... : ... .. . ... ... : ... .. . ... ... : ... .. . ... ... : ... .. . ... ...
ROW 1B : ... .. . ... ... ... : ... .. 3 ... ... ... : ... .. . ... : ... .. . ... : ... .. . ... ... : ... .. . ... ... : ... .. . ... ... : ... .. . ... ...
ROW 1C : ... .. . ... ... ... : ... .. . ... ... ... : ... .. . ... : ... .. . ... : ... .. . ... ... : ... .. . ... ... : ... .. . ... ... : ... .. 2 ... ...
ROW 1D : ... .. . ... ... ... : ... .. . ... ... ... : ... .. . ... : ... .. . ... : ... .. . ... ... : ... .. . ... ... : ... .. . ... ... : ... .. . ... ...
ROW 1E : ... .. . ... ... ... : ... .. 2 ... ... ... : ... .. . ... : ... .. . ... : ... .. . ... ... : ... .. . ... ... : ... .. . ... ... : ... .. 1 ... ...
ROW 1F : ... .. . ... ... ... : ... .. . ... ... ... : ... .. . ... : ... .. . ... : ... .. . ... ... : ... .. . ... ... : ... .. . ... ... : ... .. . ... ...
ROW 20 : ... .. . P84 ... ... : D-3 00 6 ... ... ... : F-2 00 . ... : D-# 00 D ... : ... .. . ... ... : ... .. 6 ... ... : ... .. 6 ... ... : G-3 01 A ... ...
ROW 21 : ... .. . P86 ... ... : ... .. 5 ... ... ... : ... .. . ... : ... .. B ... : ... .. . ... ... : ... .. 5 ... ... : ... .. 5 ... ... : ... .. 8 ... ...
ROW 22 : ... .. . P85 ... ... : ... .. . ... ... ... : ... .. . ... : ... .. . ... : ... .. . ... ... : ... .. . ... ... : ... .. . ... ... : ... .. 5 ... ...
ROW 23 : ... .. . P82 ... ... : ... .. . ... ... ... : ... .. . ... : ... .. A ... : ... .. . ... ... : ... .. 4 ... ... : ... .. 4 ... ... : ... .. . ... ...
ROW 24 : ... .. . P7E ... ... : ... .. 4 ... ... ... : ... .. . ... : ... .. 8 ... : ... .. . ... ... : ... .. . ... ... : ... .. . ... ... : ... .. . ... ...
ROW 25 : ... .. . P7B ... ... : ... .. 3 ... ... ... : ... .. . ... : ... .. 7 ... : ... .. . ... ... : ... .. . ... ... : ... .. . ... ... : ... .. . ... ...
ROW 26 : ... .. . P7A ... ... : ... .. . ... ... ... : ... .. . ... : ... .. 6 ... : ... .. . ... ... : ... .. . ... ... : ... .. . ... ... : ... .. . ... ...
ROW 27 : ... .. . P7C ... ... : ... .. . ... ... ... : ... .. . ... : ... .. . ... : ... .. . ... ... : ... .. 3 ... ... : ... .. 3 ... ... : ... .. . ... ...
ROW 28 : ... .. . P80 ... ... : ... .. 2 ... ... ... : ... .. . ... : ... .. 5 ... : ... .. . ... ... : ... .. 2 ... ... : ... .. 2 ... ... : ... .. . ... ...
ROW 29 : ... .. . P83 ... ... : ... .. . ... ... ... : ... .. . ... : ... .. . ... : ... .. . ... ... : ... .. . ... ... : ... .. . ... ... : ... .. . ... ...
ROW 2A : ... .. . P86 ... ... : F-3 00 6 ... ... ... : ... .. . ... : ... .. 4 ... : ... .. . ... ... : ... .. 1 ... ... : ... .. 1 ... ... : F-3 01 A ... ...
ROW 2B : ... .. . ... ... ... : ... .. 5 ... ... ... : ... .. . ... : ... .. . ... : ... .. . ... ... : ... .. . ... ... : ... .. . ... ... : ... .. 8 ... ...
ROW 2C : ... .. . P82 ... ... : ... .. . ... ... ... : ... .. . ... : ... .. 3 ... : ... .. . ... ... : ... .. . ... ... : ... .. . ... ... : ... .. 5 ... ...
ROW 2D : ... .. . P7F ... ... : ... .. . ... ... ... : ... .. . ... : ... .. 2 ... : ... .. . ... ... : ... .. . ... ... : ... .. . ... ... : ... .. . ... ...
ROW 2E : ... .. . P7B ... ... : ... .. 4 ... ... ... : ... .. . ... : ... .. . ... : ... .. . ... ... : ... .. . ... ... : ... .. . ... ... : ... .. . ... ...
ROW 2F : ... .. . P7A ... ... : ... .. 3 ... ... ... : ... .. . ... : ... .. 1 ... : ... .. . ... ... : ... .. . ... ... : ... .. . ... ... : ... .. . ... ...
ROW 30 : ... .. . P7C ... ... : ... .. . ... ... ... : ... .. . ... : ... .. 0 ... : ... .. . ... ... : ... .. . ... ... : ... .. . ... ... : ... .. . ... ...
ROW 31 : ... .. . P80 ... ... : ... .. . ... ... ... : ... .. . ... : ... .. . ... : ... .. . ... ... : ... .. . ... ... : ... .. . ... ... : ... .. . ... ...
ROW 32 : ... .. . P83 ... ... : ... .. 2 ... ... ... : ... .. . ... : ... .. . ... : ... .. . ... ... : ... .. . ... ... : ... .. . ... ... : ... .. . ... ...
ROW 33 : ... .. . P86 ... ... : ... .. . ... ... ... : ... .. . ... : ... .. . ... : ... .. . ... ... : ... .. . ... ... : ... .. . ... ... : ... .. . ... ...
ROW 34 : ... .. . ... ... ... : G-4 00 8 ... ... ... : E-2 00 . ... : ... .. D V01 : ... .. . ... ... : C-3 01 6 ... ... : A#3 01 6 ... ... : C#3 01 5 ... ...
ROW 35 : ... .. 2 P83 ... ... : ... .. 7 ... ... ... : ... .. . ... : ... .. B ... : ... .. . ... ... : ... .. 5 ... ... : ... .. 5 ... ... : ... .. 4 ... ...
ROW 36 : ... .. . P80 ... ... : ... .. . ... ... ... : ... .. . ... : ... .. . ... : ... .. . ... ... : ... .. . ... ... : ... .. . ... ... : ... .. 2 ... ...
ROW 37 : ... .. . P7C ... ... : ... .. 6 ... ... ... : ... .. . ... : ... .. A ... : ... .. . ... ... : ... .. 4 ... ... : ... .. 4 ... ... : ... .. . ... ...
ROW 38 : ... .. 1 P7A ... ... : ... .. 5 ... ... ... : ... .. . ... : ... .. 8 ... : ... .. . ... ... : ... .. . ... ... : ... .. . ... ... : ... .. . ... ...
ROW 39 : ... .. . P7B ... ... : ... .. 4 ... ... ... : ... .. . ... : ... .. 7 ... : ... .. . ... ... : ... .. . ... ... : ... .. . ... ... : ... .. . ... ...
ROW 3A : ... .. . P7F ... ... : ... .. . ... ... ... : ... .. . ... : ... .. 6 ... : ... .. . ... ... : ... .. . ... ... : ... .. . ... ... : ... .. . ... ...
ROW 3B : ... .. 0 ... V00 ... : ... .. . ... ... ... : ... .. . ... : ... .. . ... : ... .. . ... ... : ... .. 3 ... ... : ... .. 3 ... ... : ... .. . ... ...
ROW 3C : ... .. . ... ... ... : ... .. 3 ... ... ... : ... .. . ... : ... .. 5 ... : ... .. . ... ... : ... .. 2 ... ... : ... .. 2 ... ... : ... .. . ... ...
ROW 3D : ... .. . ... ... ... : ... .. . ... ... ... : ... .. . ... : ... .. . ... : ... .. . ... ... : ... .. . ... ... : ... .. . ... ... : ... .. . ... ...
ROW 3E : ... .. . ... ... ... : C-4 00 8 ... ... ... : ... .. . ... : ... .. 4 ... : ... .. . ... ... : ... .. 1 ... ... : ... .. 1 ... ... : ... .. . ... ...
ROW 3F : ... .. . ... ... ... : ... .. 7 ... ... ... : ... .. . ... : ... .. . ... : ... .. . ... ... : ... .. . ... ... : ... .. . ... ... : ... .. . ... ...
ROW 40 : ... .. . ... ... ... : ... .. . ... ... ... : ... .. . ... : ... .. 3 ... : ... .. . ... ... : ... .. . ... ... : ... .. . ... ... : ... .. . ... ...
ROW 41 : ... .. . ... ... ... : ... .. 6 ... ... ... : ... .. . ... : ... .. 2 ... : ... .. . ... ... : ... .. . ... ... : ... .. . ... ... : ... .. . ... ...
ROW 42 : ... .. . ... ... ... : ... .. 5 ... ... ... : ... .. . ... : ... .. . ... : ... .. . ... ... : ... .. . ... ... : ... .. . ... ... : ... .. . ... ...
ROW 43 : ... .. . ... ... ... : ... .. 4 ... ... ... : ... .. . ... : ... .. 1 ... : ... .. . ... ... : ... .. . ... ... : ... .. . ... ... : ... .. . ... ...
ROW 44 : ... .. . ... ... ... : ... .. . ... ... ... : ... .. . ... : ... .. 0 ... : ... .. . ... ... : ... .. . ... ... : ... .. . ... ... : ... .. . ... ...
ROW 45 : ... .. . ... ... ... : ... .. . ... ... ... : ... .. . ... : ... .. . ... : ... .. . ... ... : ... .. . ... ... : ... .. . ... ... : ... .. . ... ...
ROW 46 : ... .. . ... ... ... : ... .. 3 ... ... ... : ... .. . ... : ... .. . ... : ... .. . ... ... : ... .. . ... ... : ... .. . ... ... : ... .. . ... ...
ROW 47 : ... .. . ... ... ... : ... .. . ... ... ... : ... .. . ... : ... .. . ... : ... .. . ... ... : ... .. . ... ... : ... .. . ... ... : ... .. . ... ...
ROW 48 : C-4 00 F P80 V01 ... : E-4 00 8 ... ... ... : ... .. . ... : 9-# 00 A V00 : ... .. . ... ... : ... .. 6 ... ... : ... .. 6 ... ... : ... .. . ... ...
ROW 49 : ... .. E ... ... ... : ... .. 7 ... ... ... : ... .. . ... : ... .. 8 ... : ... .. . ... ... : ... .. 5 ... ... : ... .. 5 ... ... : ... .. . ... ...
ROW 4A : ... .. D ... ... ... : ... .. . ... ... ... : ... .. . ... : ... .. 4 ... : ... .. . ... ... : ... .. . ... ... : ... .. . ... ... : ... .. . ... ...
ROW 4B : ... .. A ... ... ... : ... .. 6 ... ... ... : ... .. . ... : ... .. 2 ... : ... .. . ... ... : ... .. 4 ... ... : ... .. 4 ... ... : ... .. . ... ...
ROW 4C : ... .. . ... ... ... : ... .. 5 ... ... ... : ... .. . ... : ... .. 1 ... : ... .. . ... ... : ... .. . ... ... : ... .. . ... ... : ... .. . ... ...
ROW 4D : ... .. . ... ... ... : ... .. 4 ... ... ... : ... .. . ... : ... .. 0 ... : ... .. . ... ... : ... .. . ... ... : ... .. . ... ... : ... .. . ... ...
ROW 4E : ... .. 2 ... ... ... : ... .. . ... ... ... : ... .. . ... : ... .. . ... : ... .. . ... ... : ... .. . ... ... : ... .. . ... ... : ... .. . ... ...
ROW 4F : ... .. . ... ... ... : ... .. . ... ... ... : ... .. . ... : ... .. . ... : ... .. . ... ... : ... .. 3 ... ... : ... .. 3 ... ... : ... .. . ... ...
ROW 50 : ... .. . ... ... ... : ... .. 3 ... ... ... : ... .. . ... : ... .. . ... : ... .. . ... ... : ... .. 2 ... ... : ... .. 2 ... ... : ... .. . ... ...
ROW 51 : ... .. 1 ... ... ... : ... .. . ... ... ... : ... .. . ... : ... .. . ... : ... .. . ... ... : ... .. . ... ... : ... .. . ... ... : ... .. . ... ...
ROW 52 : ... .. . ... ... ... : C-4 00 8 ... ... ... : ... .. . ... : ... .. 8 ... : ... .. . ... ... : ... .. 1 ... ... : ... .. 1 ... ... : ... .. . ... ...
ROW 53 : ... .. . ... ... ... : ... .. 7 ... ... ... : ... .. . ... : ... .. 6 ... : ... .. . ... ... : ... .. . ... ... : ... .. . ... ... : ... .. . ... ...
ROW 54 : ... .. 0 ... V00 ... : ... .. . ... ... ... : ... .. . ... : ... .. 3 ... : ... .. . ... ... : ... .. . ... ... : ... .. . ... ... : ... .. . ... ...
ROW 55 : ... .. . ... ... ... : ... .. 6 ... ... ... : ... .. . ... : ... .. 1 ... : ... .. . ... ... : ... .. . ... ... : ... .. . ... ... : ... .. . ... ...
ROW 56 : ... .. . ... ... ... : ... .. 5 ... ... ... : ... .. . ... : ... .. . ... : ... .. . ... ... : ... .. . ... ... : ... .. . ... ... : ... .. . ... ...
ROW 57 : ... .. . ... ... ... : ... .. 4 ... ... ... : ... .. . ... : ... .. 0 ... : ... .. . ... ... : ... .. . ... ... : ... .. . ... ... : ... .. . ... ...
ROW 58 : ... .. . ... ... ... : ... .. . ... ... ... : ... .. . ... : ... .. . ... : ... .. . ... ... : ... .. . ... ... : ... .. . ... ... : ... .. . ... ...
ROW 59 : ... .. . ... ... ... : ... .. . ... ... ... : ... .. . ... : ... .. . ... : ... .. . ... ... : ... .. . ... ... : ... .. . ... ... : ... .. . ... ...
ROW 5A : ... .. . ... ... ... : ... .. 3 ... ... ... : ... .. . ... : ... .. . ... : ... .. . ... ... : ... .. . ... ... : ... .. . ... ... : ... .. . ... ...
ROW 5B : ... .. . ... ... ... : ... .. . ... ... ... : ... .. . ... : ... .. . ... : ... .. . ... ... : ... .. . ... ... : ... .. . ... ... : ... .. . ... ...
ROW 5C : C-4 00 F P80 V01 ... : G-4 00 8 ... ... ... : G-3 00 . ... : ... .. F ... : ... .. . ... ... : ... .. 6 ... ... : ... .. 6 ... ... : C-3 01 5 ... ...
ROW 5D : ... .. E ... ... ... : ... .. 7 ... ... ... : ... .. . ... : ... .. C ... : ... .. . ... ... : ... .. 5 ... ... : ... .. 5 ... ... : ... .. 4 ... ...
ROW 5E : ... .. D ... ... ... : ... .. . ... ... ... : ... .. . ... : ... .. 6 ... : ... .. . ... ... : ... .. . ... ... : ... .. . ... ... : ... .. 2 ... ...
ROW 5F : ... .. A ... ... ... : ... .. 6 ... ... ... : ... .. . ... : ... .. 3 ... : ... .. . ... ... : ... .. 4 ... ... : ... .. 4 ... ... : ... .. . ... ...
ROW 60 : ... .. . ... ... ... : ... .. 5 ... ... ... : ... .. . ... : ... .. 2 ... : ... .. . ... ... : ... .. . ... ... : ... .. . ... ... : ... .. . ... ...
ROW 61 : ... .. . ... ... ... : ... .. 4 ... ... ... : ... .. . ... : ... .. 0 ... : ... .. . ... ... : ... .. . ... ... : ... .. . ... ... : ... .. . ... ...
ROW 62 : ... .. . ... ... ... : ... .. . ... ... ... : ... .. . ... : ... .. . ... : ... .. . ... ... : ... .. . ... ... : ... .. . ... ... : ... .. . ... ...
ROW 63 : ... .. . ... ... ... : ... .. . ... ... ... : ... .. . ... : ... .. . ... : ... .. . ... ... : ... .. 3 ... ... : ... .. 3 ... ... : ... .. . ... ...
ROW 64 : ... .. . ... ... ... : ... .. 3 ... ... ... : ... .. . ... : ... .. . ... : ... .. . ... ... : ... .. 2 ... ... : ... .. 2 ... ... : ... .. . ... ...
ROW 65 : ... .. . ... ... ... : ... .. . ... ... ... : ... .. . ... : ... .. . ... : ... .. . ... ... : ... .. . ... ... : ... .. . ... ... : ... .. . ... ...
ROW 66 : ... .. . ... ... ... : C-4 00 8 ... ... ... : ... .. . ... : ... .. . ... : ... .. . ... ... : ... .. 1 ... ... : ... .. 1 ... ... : ... .. 3 ... ...
ROW 67 : ... .. . ... ... ... : ... .. 7 ... ... ... : ... .. . ... : ... .. . ... : ... .. . ... ... : ... .. . ... ... : ... .. . ... ... : ... .. . ... ...
ROW 68 : ... .. . ... ... ... : ... .. . ... ... ... : ... .. . ... : ... .. . ... : ... .. . ... ... : ... .. . ... ... : ... .. . ... ... : ... .. . ... ...
ROW 69 : ... .. . ... ... ... : ... .. 6 ... ... ... : ... .. . ... : ... .. . ... : ... .. . ... ... : ... .. . ... ... : ... .. . ... ... : ... .. . ... ...
ROW 6A : ... .. . ... ... ... : ... .. 5 ... ... ... : ... .. . ... : ... .. . ... : ... .. . ... ... : ... .. . ... ... : ... .. . ... ... : ... .. . ... ...
ROW 6B : ... .. . ... ... ... : ... .. 4 ... ... ... : ... .. . ... : ... .. . ... : ... .. . ... ... : ... .. . ... ... : ... .. . ... ... : ... .. . ... ...
ROW 6C : ... .. . ... ... ... : ... .. . ... ... ... : ... .. . ... : ... .. . ... : ... .. . ... ... : ... .. . ... ... : ... .. . ... ... : ... .. . ... ...
ROW 6D : ... .. . ... ... ... : ... .. . ... ... ... : ... .. . ... : ... .. . ... : ... .. . ... ... : ... .. . ... ... : ... .. . ... ... : ... .. . ... ...
ROW 6E : ... .. . ... ... ... : ... .. 3 ... ... ... : ... .. . ... : ... .. . ... : ... .. . ... ... : ... .. . ... ... : ... .. . ... ... : ... .. . ... ...
ROW 6F : ... .. . ... ... ... : ... .. . ... ... ... : ... .. . ... : ... .. . ... : ... .. . ... ... : ... .. . ... ... : ... .. . ... ... : ... .. . ... ...
ROW 70 : A#4 00 F ... ... ... : E-4 00 8 ... ... ... : G-4 00 . ... : D-# 00 8 ... : ... .. . ... ... : ... .. 6 ... ... : ... .. 6 ... ... : ... .. . ... ...
ROW 71 : ... .. E ... ... ... : ... .. 7 ... ... ... : ... .. . ... : ... .. 7 ... : ... .. . ... ... : ... .. 5 ... ... : ... .. 5 ... ... : ... .. . ... ...
ROW 72 : ... .. D ... ... ... : ... .. . ... ... ... : ... .. . ... : ... .. . ... : ... .. . ... ... : ... .. . ... ... : ... .. . ... ... : ... .. . ... ...
ROW 73 : ... .. A ... ... ... : ... .. 6 ... ... ... : ... .. . ... : ... .. 6 ... : ... .. . ... ... : ... .. 4 ... ... : ... .. 4 ... ... : ... .. . ... ...
ROW 74 : ... .. . ... ... ... : ... .. 5 ... ... ... : ... .. . ... : ... .. 5 ... : ... .. . ... ... : ... .. . ... ... : ... .. . ... ... : ... .. . ... ...
ROW 75 : ... .. . ... ... ... : ... .. 4 ... ... ... : ... .. . ... : ... .. 4 ... : ... .. . ... ... : ... .. . ... ... : ... .. . ... ... : ... .. . ... ...
ROW 76 : ... .. 2 ... ... ... : ... .. . ... ... ... : ... .. . ... : ... .. . ... : ... .. . ... ... : ... .. . ... ... : ... .. . ... ... : ... .. . ... ...
ROW 77 : ... .. . ... ... ... : ... .. . ... ... ... : ... .. . ... : ... .. . ... : ... .. . ... ... : ... .. 3 ... ... : ... .. 3 ... ... : ... .. . ... ...
ROW 78 : ... .. . ... ... ... : ... .. 3 ... ... ... : ... .. . ... : ... .. 3 ... : ... .. . ... ... : ... .. 2 ... ... : ... .. 2 ... ... : ... .. . ... ...
ROW 79 : ... .. 1 ... ... ... : ... .. . ... ... ... : ... .. . ... : ... .. . ... : ... .. . ... ... : ... .. . ... ... : ... .. . ... ... : ... .. . ... ...
ROW 7A : ... .. . ... ... ... : C-4 00 8 ... ... ... : ... .. . ... : ... .. 2 ... : ... .. . ... ... : ... .. 1 ... ... : ... .. 1 ... ... : ... .. . ... ...
ROW 7B : ... .. . ... ... ... : ... .. 7 ... ... ... : ... .. . ... : ... .. . ... : ... .. . ... ... : ... .. . ... ... : ... .. . ... ... : ... .. . ... ...
ROW 7C : ... .. 0 ... V00 ... : ... .. . ... ... ... : ... .. . ... : ... .. . ... : ... .. . ... ... : ... .. . ... ... : ... .. . ... ... : ... .. . ... ...
ROW 7D : ... .. . ... ... ... : ... .. 6 ... ... ... : ... .. . ... : ... .. 1 ... : ... .. . ... ... : ... .. . ... ... : ... .. . ... ... : ... .. . ... ...
ROW 7E : ... .. . ... ... ... : ... .. 5 ... ... ... : ... .. . ... : ... .. . ... : ... .. . ... ... : ... .. . ... ... : ... .. . ... ... : ... .. . ... ...
ROW 7F : ... .. . ... ... ... : ... .. 4 ... ... ... : ... .. . ... : ... .. . ... : ... .. . ... ... : ... .. . ... ... : ... .. . ... ... : ... .. . ... ...
ROW 80 : ... .. . ... ... ... : ... .. . ... ... ... : ... .. . ... : ... .. 0 ... : ... .. . ... ... : ... .. . ... ... : ... .. . ... ... : ... .. . ... ...
ROW 81 : ... .. . ... ... ... : ... .. . ... ... ... : ... .. . ... : ... .. . ... : ... .. . ... ... : ... .. . ... ... : ... .. . ... ... : ... .. . ... ...
ROW 82 : ... .. . ... ... ... : ... .. 3 ... ... ... : ... .. . ... : ... .. . ... : ... .. . ... ... : ... .. . ... ... : ... .. . ... ... : ... .. . ... ...
ROW 83 : ... .. . ... ... ... : ... .. . ... ... ... : ... .. . ... : ... .. . ... : ... .. . ... ... : ... .. . ... ... : ... .. . ... ... : ... .. . ... ...
ROW 84 : G#4 00 F P80 V01 ... : A#4 00 8 ... ... ... : A#4 00 . ... : ... .. D ... : ... .. . ... ... : ... .. 6 ... ... : ... .. 6 ... ... : G-3 01 6 ... ...
ROW 85 : A-4 00 E P81 ... ... : ... .. 7 ... ... ... : ... .. . ... : ... .. B ... : ... .. . ... ... : ... .. 5 ... ... : ... .. 5 ... ... : ... .. 5 ... ...
ROW 86 : A#4 00 D P80 ... ... : ... .. . ... ... ... : ... .. . ... : ... .. . ... : ... .. . ... ... : ... .. . ... ... : ... .. . ... ... : ... .. 3 ... ...
ROW 87 : ... .. A ... ... ... : ... .. 6 ... ... ... : ... .. . ... : ... .. A ... : ... .. . ... ... : ... .. 4 ... ... : ... .. 4 ... ... : ... .. . ... ...
ROW 88 : ... .. . ... ... ... : ... .. 5 ... ... ... : ... .. . ... : ... .. 8 ... : ... .. . ... ... : ... .. . ... ... : ... .. . ... ... : ... .. . ... ...
ROW 89 : ... .. . ... ... ... : ... .. 4 ... ... ... : ... .. . ... : ... .. 7 ... : ... .. . ... ... : ... .. . ... ... : ... .. . ... ... : ... .. . ... ...
ROW 8A : ... .. . ... ... ... : ... .. . ... ... ... : ... .. . ... : ... .. 6 ... : ... .. . ... ... : ... .. . ... ... : ... .. . ... ... : ... .. . ... ...
ROW 8B : ... .. . ... ... ... : ... .. . ... ... ... : ... .. . ... : ... .. . ... : ... .. . ... ... : ... .. 3 ... ... : ... .. 3 ... ... : ... .. . ... ...
ROW 8C : ... .. . ... ... ... : ... .. 3 ... ... ... : ... .. . ... : ... .. 5 ... : ... .. . ... ... : ... .. 2 ... ... : ... .. 2 ... ... : ... .. . ... ...
ROW 8D : ... .. . ... ... ... : ... .. . ... ... ... : ... .. . ... : ... .. . ... : ... .. . ... ... : ... .. . ... ... : ... .. . ... ... : ... .. . ... ...
ROW 8E : ... .. . ... ... ... : C-4 00 8 ... ... ... : ... .. . ... : ... .. 4 ... : ... .. . ... ... : ... .. 1 ... ... : ... .. 1 ... ... : ... .. . ... ...
ROW 8F : ... .. . ... ... ... : ... .. 7 ... ... ... : ... .. . ... : ... .. . ... : ... .. . ... ... : ... .. . ... ... : ... .. . ... ... : ... .. . ... ...
ROW 90 : ... .. . ... ... ... : ... .. . ... ... ... : ... .. . ... : ... .. 3 ... : ... .. . ... ... : ... .. . ... ... : ... .. . ... ... : ... .. . ... ...
ROW 91 : ... .. . ... ... ... : ... .. 6 ... ... ... : ... .. . ... : ... .. 2 ... : ... .. . ... ... : ... .. . ... ... : ... .. . ... ... : ... .. . ... ...
ROW 92 : ... .. . ... ... ... : ... .. 5 ... ... ... : ... .. . ... : ... .. . ... : ... .. . ... ... : ... .. . ... ... : ... .. . ... ... : ... .. . ... ...
ROW 93 : ... .. . ... ... ... : ... .. 4 ... ... ... : --- .. . ... : ... .. 1 ... : ... .. . ... ... : ... .. . ... ... : ... .. . ... ... : ... .. . ... ...
ROW 94 : ... .. . ... ... ... : ... .. . ... ... ... : ... .. . ... : ... .. 0 ... : ... .. . ... ... : ... .. . ... ... : ... .. . ... ... : ... .. . ... ...
ROW 95 : ... .. . ... ... ... : ... .. . ... ... ... : ... .. . ... : ... .. . ... : ... .. . ... ... : ... .. . ... ... : ... .. . ... ... : ... .. . ... ...
ROW 96 : ... .. . ... ... ... : ... .. 3 ... ... ... : ... .. . ... : ... .. . ... : ... .. . ... ... : ... .. . ... ... : ... .. . ... ... : ... .. . ... ...
ROW 97 : ... .. . ... ... ... : ... .. . ... ... ... : ... .. . ... : ... .. . ... : ... .. . ... ... : ... .. . ... ... : ... .. . ... ... : ... .. . ... ...
ROW 98 : G#4 00 F ... ... ... : E-4 00 8 ... ... ... : E-4 00 . ... : 9-# 00 A ... : ... .. . ... ... : ... .. 6 ... ... : ... .. 6 ... ... : E-3 01 7 ... ...
ROW 99 : ... .. E ... ... ... : ... .. 7 ... ... ... : ... .. . ... : ... .. 8 ... : ... .. . ... ... : ... .. 5 ... ... : ... .. 5 ... ... : ... .. 6 ... ...
ROW 9A : ... .. D ... ... ... : ... .. . ... ... ... : ... .. . ... : ... .. 4 ... : ... .. . ... ... : ... .. . ... ... : ... .. . ... ... : ... .. 3 ... ...
ROW 9B : ... .. A ... ... ... : ... .. 6 ... ... ... : ... .. . ... : ... .. 2 ... : ... .. . ... ... : ... .. 4 ... ... : ... .. 4 ... ... : ... .. . ... ...
ROW 9C : ... .. . ... ... ... : ... .. 5 ... ... ... : ... .. . ... : ... .. 1 ... : ... .. . ... ... : ... .. . ... ... : ... .. . ... ... : ... .. . ... ...
ROW 9D : ... .. . ... ... ... : ... .. 4 ... ... ... : ... .. . ... : ... .. 0 ... : ... .. . ... ... : ... .. . ... ... : ... .. . ... ... : ... .. . ... ...
ROW 9E : ... .. . ... ... ... : ... .. . ... ... ... : ... .. . ... : ... .. . ... : ... .. . ... ... : ... .. . ... ... : ... .. . ... ... : ... .. . ... ...
ROW 9F : ... .. . ... ... ... : ... .. . ... ... ... : ... .. . ... : ... .. 8 ... : ... .. . ... ... : ... .. 3 ... ... : ... .. 3 ... ... : ... .. . ... ...
ROW A0 : ... .. . ... ... ... : ... .. 3 ... ... ... : ... .. . ... : ... .. 6 ... : ... .. . ... ... : ... .. 2 ... ... : ... .. 2 ... ... : ... .. . ... ...
ROW A1 : ... .. . ... ... ... : ... .. . ... ... ... : ... .. . ... : ... .. 3 ... : ... .. . ... ... : ... .. . ... ... : ... .. . ... ... : ... .. . ... ...
ROW A2 : G-4 00 F ... ... ... : A#4 00 8 ... ... ... : ... .. . ... : ... .. 1 ... : ... .. . ... ... : ... .. 1 ... ... : ... .. 1 ... ... : ... .. . ... ...
ROW A3 : ... .. E ... ... ... : ... .. 7 ... ... ... : ... .. . ... : ... .. . ... : ... .. . ... ... : ... .. . ... ... : ... .. . ... ... : ... .. . ... ...
ROW A4 : ... .. D ... ... ... : ... .. . ... ... ... : ... .. . ... : ... .. 0 ... : ... .. . ... ... : ... .. . ... ... : ... .. . ... ... : ... .. . ... ...
ROW A5 : ... .. A ... ... ... : ... .. 6 ... ... ... : ... .. . ... : ... .. C ... : ... .. . ... ... : ... .. . ... ... : ... .. . ... ... : ... .. . ... ...
ROW A6 : ... .. . ... ... ... : ... .. 5 ... ... ... : ... .. . ... : ... .. 9 ... : ... .. . ... ... : ... .. . ... ... : ... .. . ... ... : ... .. . ... ...
ROW A7 : ... .. . ... ... ... : ... .. 4 ... ... ... : --- .. . ... : ... .. 4 ... : ... .. . ... ... : ... .. . ... ... : ... .. . ... ... : ... .. . ... ...
ROW A8 : ... .. 2 ... ... ... : ... .. . ... ... ... : ... .. . ... : ... .. 2 ... : ... .. . ... ... : ... .. . ... ... : ... .. . ... ... : ... .. . ... ...
ROW A9 : ... .. . ... ... ... : ... .. . ... ... ... : ... .. . ... : ... .. 1 ... : ... .. . ... ... : ... .. . ... ... : ... .. . ... ... : ... .. . ... ...
ROW AA : ... .. . ... ... ... : ... .. 3 ... ... ... : ... .. . ... : ... .. 0 ... : ... .. . ... ... : ... .. . ... ... : ... .. . ... ... : ... .. . ... ...
ROW AB : ... .. 1 ... ... ... : ... .. . ... ... ... : ... .. . ... : ... .. . ... : ... .. . ... ... : ... .. . ... ... : ... .. . ... ... : ... .. . ... ...
ROW AC : G#4 00 F ... ... ... : E-4 00 8 ... ... ... : G-4 00 . ... : ... .. F ... : ... .. . ... ... : ... .. 6 ... ... : G#3 01 6 ... ... : G-3 01 7 ... ...
ROW AD : ... .. E ... ... ... : ... .. 7 ... ... ... : ... .. . ... : ... .. C ... : ... .. . ... ... : ... .. 5 ... ... : ... .. 5 ... ... : ... .. 6 ... ...
ROW AE : ... .. D ... ... ... : ... .. . ... ... ... : ... .. . ... : ... .. 6 ... : ... .. . ... ... : ... .. . ... ... : ... .. . ... ... : ... .. 3 ... ...
ROW AF : ... .. A ... ... ... : ... .. 6 ... ... ... : ... .. . ... : ... .. 3 ... : ... .. . ... ... : ... .. 4 ... ... : ... .. 4 ... ... : ... .. . ... ...
ROW B0 : ... .. . ... ... ... : ... .. 5 ... ... ... : ... .. . ... : ... .. 2 ... : ... .. . ... ... : ... .. . ... ... : ... .. . ... ... : ... .. . ... ...
ROW B1 : ... .. . ... ... ... : ... .. 4 ... ... ... : ... .. . ... : ... .. 0 ... : ... .. . ... ... : ... .. . ... ... : ... .. . ... ... : ... .. . ... ...
ROW B2 : ... .. 2 ... ... ... : ... .. . ... ... ... : ... .. . ... : ... .. . ... : ... .. . ... ... : ... .. . ... ... : ... .. . ... ... : ... .. . ... ...
ROW B3 : ... .. . ... ... ... : ... .. . ... ... ... : ... .. . ... : ... .. . ... : ... .. . ... ... : ... .. 3 ... ... : ... .. 3 ... ... : ... .. . ... ...
ROW B4 : ... .. . ... ... ... : ... .. 3 ... ... ... : ... .. . ... : ... .. . ... : ... .. . ... ... : ... .. 2 ... ... : ... .. 2 ... ... : ... .. . ... ...
ROW B5 : ... .. 1 ... ... ... : ... .. . ... ... ... : ... .. . ... : ... .. . ... : ... .. . ... ... : ... .. . ... ... : ... .. . ... ... : ... .. . ... ...
ROW B6 : ... .. . ... ... ... : G#3 00 8 ... ... ... : ... .. . ... : ... .. . ... : ... .. . ... ... : ... .. 1 ... ... : ... .. 1 ... ... : ... .. . ... ...
ROW B7 : ... .. . ... ... ... : ... .. 7 ... ... ... : ... .. . ... : ... .. . ... : ... .. . ... ... : ... .. . ... ... : ... .. . ... ... : ... .. . ... ...
ROW B8 : ... .. 0 ... V00 ... : ... .. . ... ... ... : ... .. . ... : ... .. . ... : ... .. . ... ... : ... .. . ... ... : ... .. . ... ... : ... .. . ... ...
ROW B9 : ... .. . ... ... ... : ... .. 6 ... ... ... : ... .. . ... : ... .. . ... : ... .. . ... ... : ... .. . ... ... : ... .. . ... ... : ... .. . ... ...
ROW BA : ... .. . ... ... ... : ... .. 5 ... ... ... : ... .. . ... : ... .. . ... : ... .. . ... ... : ... .. . ... ... : ... .. . ... ... : ... .. . ... ...
ROW BB : ... .. . ... ... ... : ... .. 4 ... ... ... : --- .. . ... : ... .. . ... : ... .. . ... ... : ... .. . ... ... : ... .. . ... ... : ... .. . ... ...
ROW BC : ... .. . ... ... ... : ... .. . ... ... ... : ... .. . ... : ... .. . ... : ... .. . ... ... : ... .. . ... ... : ... .. . ... ... : ... .. . ... ...
ROW BD : ... .. . ... ... ... : ... .. . ... ... ... : ... .. . ... : ... .. . ... : ... .. . ... ... : ... .. . ... ... : ... .. . ... ... : ... .. . ... ...
ROW BE : ... .. . ... ... ... : ... .. 3 ... ... ... : ... .. . ... : ... .. . ... : ... .. . ... ... : ... .. . ... ... : ... .. . ... ... : ... .. . ... ...
ROW BF : ... .. . ... ... ... : ... .. . ... ... ... : ... .. . ... : ... .. . ... : ... .. . ... ... : ... .. . ... ... : ... .. . ... ... : ... .. . ... ...
ROW C0 : F-4 00 F P80 V01 ... : F-4 00 8 ... ... ... : F-4 00 . ... : ... .. . ... : ... .. . ... ... : ... .. 6 ... ... : ... .. 6 ... ... : F-3 01 8 ... ...
ROW C1 : ... .. E ... ... ... : ... .. 7 ... ... ... : ... .. . ... : ... .. . ... : ... .. . ... ... : ... .. 5 ... ... : ... .. 5 ... ... : ... .. 6 ... ...
ROW C2 : ... .. D ... ... ... : ... .. . ... ... ... : ... .. . ... : ... .. . ... : ... .. . ... ... : ... .. . ... ... : ... .. . ... ... : ... .. 4 ... ...
ROW C3 : ... .. A ... ... ... : ... .. 6 ... ... ... : ... .. . ... : ... .. . ... : ... .. . ... ... : ... .. 4 ... ... : ... .. 4 ... ... : ... .. . ... ...
ROW C4 : ... .. . ... ... ... : ... .. 5 ... ... ... : ... .. . ... : ... .. . ... : ... .. . ... ... : ... .. . ... ... : ... .. . ... ... : ... .. . ... ...
ROW C5 : ... .. . ... ... ... : ... .. 4 ... ... ... : ... .. . ... : ... .. . ... : ... .. . ... ... : ... .. . ... ... : ... .. . ... ... : ... .. . ... ...
ROW C6 : ... .. . ... ... ... : ... .. . ... ... ... : ... .. . ... : ... .. . ... : ... .. . ... ... : ... .. . ... ... : ... .. . ... ... : ... .. . ... ...
ROW C7 : ... .. . ... ... ... : ... .. . ... ... ... : ... .. . ... : ... .. . ... : ... .. . ... ... : ... .. 3 ... ... : ... .. 3 ... ... : ... .. . ... ...
ROW C8 : ... .. . ... ... ... : ... .. 3 ... ... ... : ... .. . ... : ... .. . ... : ... .. . ... ... : ... .. 2 ... ... : ... .. 2 ... ... : ... .. . ... ...
ROW C9 : ... .. . ... ... ... : ... .. . ... ... ... : ... .. . ... : ... .. . ... : ... .. . ... ... : ... .. . ... ... : ... .. . ... ... : ... .. . ... ...
ROW CA : ... .. . ... ... ... : G#3 00 8 ... ... ... : ... .. . ... : ... .. . ... : ... .. . ... ... : ... .. 1 ... ... : ... .. 1 ... ... : ... .. . ... ...
ROW CB : ... .. 2 ... ... ... : ... .. 7 ... ... ... : ... .. . ... : ... .. . ... : ... .. . ... ... : ... .. . ... ... : ... .. . ... ... : ... .. . ... ...
ROW CC : ... .. . ... ... ... : ... .. . ... ... ... : ... .. . ... : ... .. . ... : ... .. . ... ... : ... .. . ... ... : ... .. . ... ... : ... .. . ... ...
ROW CD : ... .. . ... ... ... : ... .. 6 ... ... ... : ... .. . ... : ... .. . ... : ... .. . ... ... : ... .. . ... ... : ... .. . ... ... : ... .. . ... ...
ROW CE : ... .. 1 ... ... ... : ... .. 5 ... ... ... : ... .. . ... : ... .. . ... : ... .. . ... ... : ... .. . ... ... : ... .. . ... ... : ... .. . ... ...
ROW CF : ... .. . ... ... ... : ... .. 4 ... ... ... : --- .. . ... : ... .. . ... : ... .. . ... ... : ... .. . ... ... : ... .. . ... ... : ... .. . ... ...
ROW D0 : ... .. . ... ... ... : ... .. . ... ... ... : ... .. . ... : ... .. . ... : ... .. . ... ... : ... .. . ... ... : ... .. . ... ... : ... .. . ... ...
ROW D1 : ... .. 0 ... V00 ... : ... .. . ... ... ... : ... .. . ... : ... .. . ... : ... .. . ... ... : ... .. . ... ... : ... .. . ... ... : ... .. . ... ...
ROW D2 : ... .. . ... ... ... : ... .. 3 ... ... ... : ... .. . ... : ... .. . ... : ... .. . ... ... : ... .. . ... ... : ... .. . ... ... : ... .. . ... ...
ROW D3 : ... .. . ... ... ... : ... .. . ... ... ... : ... .. . ... : ... .. . ... : ... .. . ... ... : ... .. . ... ... : ... .. . ... ... : ... .. . ... ...
ROW D4 : ... .. . ... ... ... : F-4 00 8 ... ... ... : D-2 00 . ... : D-# 00 D V01 : ... .. . ... ... : A#2 01 6 ... ... : ... .. 6 ... ... : A#2 01 8 ... ...
ROW D5 : ... .. . ... ... ... : ... .. 7 ... ... ... : ... .. . ... : ... .. B ... : ... .. . ... ... : ... .. 5 ... ... : ... .. 5 ... ... : ... .. 6 ... ...
ROW D6 : ... .. . ... ... ... : ... .. . ... ... ... : ... .. . ... : ... .. . ... : ... .. . ... ... : ... .. . ... ... : ... .. . ... ... : ... .. 4 ... ...
ROW D7 : ... .. . ... ... ... : ... .. 6 ... ... ... : ... .. . ... : ... .. A ... : ... .. . ... ... : ... .. 4 ... ... : ... .. 4 ... ... : ... .. . ... ...
ROW D8 : ... .. . ... ... ... : ... .. 5 ... ... ... : ... .. . ... : ... .. 8 ... : ... .. . ... ... : ... .. . ... ... : ... .. . ... ... : ... .. . ... ...
ROW D9 : ... .. . ... ... ... : ... .. 4 ... ... ... : ... .. . ... : ... .. 7 ... : ... .. . ... ... : ... .. . ... ... : ... .. . ... ... : ... .. . ... ...
ROW DA : ... .. . ... ... ... : ... .. . ... ... ... : ... .. . ... : ... .. 6 ... : ... .. . ... ... : ... .. . ... ... : ... .. . ... ... : ... .. . ... ...
ROW DB : ... .. . ... ... ... : ... .. . ... ... ... : ... .. . ... : ... .. . ... : ... .. . ... ... : ... .. 3 ... ... : ... .. 3 ... ... : ... .. . ... ...
ROW DC : ... .. . ... ... ... : ... .. 3 ... ... ... : ... .. . ... : ... .. 5 ... : ... .. . ... ... : ... .. 2 ... ... : ... .. 2 ... ... : ... .. . ... ...
ROW DD : ... .. . ... ... ... : ... .. . ... ... ... : ... .. . ... : ... .. . ... : ... .. . ... ... : ... .. . ... ... : ... .. . ... ... : ... .. . ... ...
ROW DE : ... .. . ... ... ... : A#3 00 8 ... ... ... : ... .. . ... : ... .. 4 ... : ... .. . ... ... : ... .. 1 ... ... : ... .. 1 ... ... : ... .. . ... ...
ROW DF : ... .. . ... ... ... : ... .. 7 ... ... ... : ... .. . ... : ... .. . ... : ... .. . ... ... : ... .. . ... ... : ... .. . ... ... : ... .. . ... ...
ROW E0 : ... .. . ... ... ... : ... .. . ... ... ... : ... .. . ... : ... .. 3 ... : ... .. . ... ... : ... .. . ... ... : ... .. . ... ... : ... .. . ... ...
ROW E1 : ... .. . ... ... ... : ... .. 6 ... ... ... : ... .. . ... : ... .. 2 ... : ... .. . ... ... : ... .. . ... ... : ... .. . ... ... : ... .. . ... ...
ROW E2 : ... .. . ... ... ... : ... .. 5 ... ... ... : ... .. . ... : ... .. . ... : ... .. . ... ... : ... .. . ... ... : ... .. . ... ... : ... .. . ... ...
ROW E3 : ... .. . ... ... ... : ... .. 4 ... ... ... : ... .. . ... : ... .. 1 ... : ... .. . ... ... : ... .. . ... ... : ... .. . ... ... : ... .. . ... ...
ROW E4 : ... .. . ... ... ... : ... .. . ... ... ... : ... .. . ... : ... .. 0 ... : ... .. . ... ... : ... .. . ... ... : ... .. . ... ... : ... .. . ... ...
ROW E5 : ... .. . ... ... ... : ... .. . ... ... ... : ... .. . ... : ... .. . ... : ... .. . ... ... : ... .. . ... ... : ... .. . ... ... : ... .. . ... ...
ROW E6 : ... .. . ... ... ... : ... .. 3 ... ... ... : ... .. . ... : ... .. . ... : ... .. . ... ... : ... .. . ... ... : ... .. . ... ... : ... .. . ... ...
ROW E7 : ... .. . ... ... ... : ... .. . ... ... ... : ... .. . ... : ... .. . ... : ... .. . ... ... : ... .. . ... ... : ... .. . ... ... : ... .. . ... ...
ROW E8 : A#3 00 F P80 V01 ... : D-4 00 8 ... ... ... : ... .. . ... : 9-# 00 A V00 : ... .. . ... ... : ... .. 6 ... ... : ... .. 6 ... ... : ... .. . ... ...
ROW E9 : ... .. E ... ... ... : ... .. 7 ... ... ... : ... .. . ... : ... .. 8 ... : ... .. . ... ... : ... .. 5 ... ... : ... .. 5 ... ... : ... .. . ... ...
ROW EA : ... .. D ... ... ... : ... .. . ... ... ... : ... .. . ... : ... .. 4 ... : ... .. . ... ... : ... .. . ... ... : ... .. . ... ... : ... .. . ... ...
ROW EB : ... .. A ... ... ... : ... .. 6 ... ... ... : ... .. . ... : ... .. 2 ... : ... .. . ... ... : ... .. 4 ... ... : ... .. 4 ... ... : ... .. . ... ...
ROW EC : ... .. . ... ... ... : ... .. 5 ... ... ... : ... .. . ... : ... .. 1 ... : ... .. . ... ... : ... .. . ... ... : ... .. . ... ... : ... .. . ... ...
ROW ED : ... .. . ... ... ... : ... .. 4 ... ... ... : ... .. . ... : ... .. 0 ... : ... .. . ... ... : ... .. . ... ... : ... .. . ... ... : ... .. . ... ...
ROW EE : ... .. 2 ... ... ... : ... .. . ... ... ... : ... .. . ... : ... .. . ... : ... .. . ... ... : ... .. . ... ... : ... .. . ... ... : ... .. . ... ...
ROW EF : ... .. . ... ... ... : ... .. . ... ... ... : ... .. . ... : ... .. . ... : ... .. . ... ... : ... .. 3 ... ... : ... .. 3 ... ... : ... .. . ... ...
ROW F0 : ... .. . ... ... ... : ... .. 3 ... ... ... : ... .. . ... : ... .. . ... : ... .. . ... ... : ... .. 2 ... ... : ... .. 2 ... ... : ... .. . ... ...
ROW F1 : ... .. 1 ... ... ... : ... .. . ... ... ... : ... .. . ... : ... .. . ... : ... .. . ... ... : ... .. . ... ... : ... .. . ... ... : ... .. . ... ...
ROW F2 : ... .. . ... ... ... : A#3 00 8 ... ... ... : ... .. . ... : ... .. 8 ... : ... .. . ... ... : ... .. 1 ... ... : ... .. 1 ... ... : ... .. . ... ...
ROW F3 : ... .. . ... ... ... : ... .. 7 ... ... ... : ... .. . ... : ... .. 6 ... : ... .. . ... ... : ... .. . ... ... : ... .. . ... ... : ... .. . ... ...
ROW F4 : ... .. 0 ... V00 ... : ... .. . ... ... ... : ... .. . ... : ... .. 3 ... : ... .. . ... ... : ... .. . ... ... : ... .. . ... ... : ... .. . ... ...
ROW F5 : ... .. . ... ... ... : ... .. 6 ... ... ... : ... .. . ... : ... .. 1 ... : ... .. . ... ... : ... .. . ... ... : ... .. . ... ... : ... .. . ... ...
ROW F6 : ... .. . ... ... ... : ... .. 5 ... ... ... : ... .. . ... : ... .. . ... : ... .. . ... ... : ... .. . ... ... : ... .. . ... ... : ... .. . ... ...
ROW F7 : ... .. . ... ... ... : ... .. 4 ... ... ... : ... .. . ... : ... .. 0 ... : ... .. . ... ... : ... .. . ... ... : ... .. . ... ... : ... .. . ... ...
ROW F8 : ... .. . ... ... ... : ... .. . ... ... ... : ... .. . ... : ... .. . ... : ... .. . ... ... : ... .. . ... ... : ... .. . ... ... : ... .. . ... ...
ROW F9 : ... .. . ... ... ... : ... .. . ... ... ... : ... .. . ... : ... .. . ... : ... .. . ... ... : ... .. . ... ... : ... .. . ... ... : ... .. . ... ...
ROW FA : ... .. . ... ... ... : ... .. 3 ... ... ... : ... .. . ... : ... .. . ... : ... .. . ... ... : ... .. . ... ... : ... .. . ... ... : ... .. . ... ...
ROW FB : ... .. . ... ... ... : ... .. . ... ... ... : ... .. . ... : ... .. . ... : ... .. . ... ... : ... .. . ... ... : ... .. . ... ... : ... .. . ... ...
ROW FC : A#3 00 F P80 V01 ... : F-4 00 8 ... ... ... : F-3 00 . ... : ... .. F ... : ... .. . ... ... : ... .. 6 ... ... : ... .. 6 ... ... : F-2 01 9 ... ...
ROW FD : ... .. E ... ... ... : ... .. 7 ... ... ... : ... .. . ... : ... .. C ... : ... .. . ... ... : ... .. 5 ... ... : ... .. 5 ... ... : ... .. 7 ... ...
ROW FE : ... .. D ... ... ... : ... .. . ... ... ... : ... .. . ... : ... .. 6 ... : ... .. . ... ... : ... .. . ... ... : ... .. . ... ... : ... .. 4 ... ...
ROW FF : ... .. A ... ... ... : ... .. 6 ... ... ... : ... .. . ... : ... .. 3 ... : ... .. . ... ... : ... .. 4 ... ... : ... .. 4 ... ... : ... .. . ... ...

PATTERN 09
ROW 00 : ... .. . ... ... ... : ... .. 5 ... ... ... : ... .. . ... : ... .. 2 ... : ... .. . ... ... : ... .. . ... ... : ... .. . ... ... : ... .. . ... ...
ROW 01 : ... .. . ... ... ... : ... .. 4 ... ... ... : ... .. . ... : ... .. 0 ... : ... .. . ... ... : ... .. . ... ... : ... .. . ... ... : ... .. . ... ...
ROW 02 : ... .. . ... ... ... : ... .. . ... ... ... : ... .. . ... : ... .. . ... : ... .. . ... ... : ... .. . ... ... : ... .. . ... ... : ... .. . ... ...
ROW 03 : ... .. . ... ... ... : ... .. . ... ... ... : ... .. . ... : ... .. . ... : ... .. . ... ... : ... .. 3 ... ... : ... .. 3 ... ... : ... .. . ... ...
ROW 04 : ... .. . ... ... ... : ... .. 3 ... ... ... : ... .. . ... : ... .. . ... : ... .. . ... ... : ... .. 2 ... ... : ... .. 2 ... ... : ... .. . ... ...
ROW 05 : ... .. . ... ... ... : ... .. . ... ... ... : ... .. . ... : ... .. . ... : ... .. . ... ... : ... .. . ... ... : ... .. . ... ... : ... .. . ... ...
ROW 06 : ... .. . ... ... ... : A#3 00 8 ... ... ... : ... .. . ... : ... .. . ... : ... .. . ... ... : ... .. 1 ... ... : ... .. 1 ... ... : ... .. . ... ...
ROW 07 : ... .. . ... ... ... : ... .. 7 ... ... ... : ... .. . ... : ... .. . ... : ... .. . ... ... : ... .. . ... ... : ... .. . ... ... : ... .. . ... ...
ROW 08 : ... .. . ... ... ... : ... .. . ... ... ... : ... .. . ... : ... .. . ... : ... .. . ... ... : ... .. . ... ... : ... .. . ... ... : ... .. . ... ...
ROW 09 : ... .. . ... ... ... : ... .. 6 ... ... ... : ... .. . ... : ... .. . ... : ... .. . ... ... : ... .. . ... ... : ... .. . ... ... : ... .. . ... ...
ROW 0A : ... .. . ... ... ... : ... .. 5 ... ... ... : ... .. . ... : ... .. . ... : ... .. . ... ... : ... .. . ... ... : ... .. . ... ... : ... .. . ... ...
ROW 0B : ... .. . ... ... ... : ... .. 4 ... ... ... : ... .. . ... : ... .. . ... : ... .. . ... ... : ... .. . ... ... : ... .. . ... ... : ... .. . ... ...
ROW 0C : ... .. . ... ... ... : ... .. . ... ... ... : ... .. . ... : ... .. . ... : ... .. . ... ... : ... .. . ... ... : ... .. . ... ... : ... .. . ... ...
ROW 0D : ... .. . ... ... ... : ... .. . ... ... ... : ... .. . ... : ... .. . ... : ... .. . ... ... : ... .. . ... ... : ... .. . ... ... : ... .. . ... ...
ROW 0E : ... .. . ... ... ... : ... .. 3 ... ... ... : ... .. . ... : ... .. . ... : ... .. . ... ... : ... .. . ... ... : ... .. . ... ... : ... .. . ... ...
ROW 0F : ... .. . ... ... ... : ... .. . ... ... ... : ... .. . ... : ... .. . ... : ... .. . ... ... : ... .. . ... ... : ... .. . ... ... : ... .. . ... ...
ROW 10 : G#4 00 F ... ... ... : D-4 00 8 ... ... ... : ... .. . ... : D-# 00 F ... : ... .. . ... ... : ... .. 6 ... ... : ... .. 6 ... ... : ... .. . ... ...
ROW 11 : ... .. E ... ... ... : ... .. 7 ... ... ... : ... .. . ... : ... .. C ... : ... .. . ... ... : ... .. 5 ... ... : ... .. 5 ... ... : ... .. . ... ...
ROW 12 : ... .. D ... ... ... : ... .. . ... ... ... : ... .. . ... : ... .. 6 ... : ... .. . ... ... : ... .. . ... ... : ... .. . ... ... : ... .. . ... ...
ROW 13 : ... .. A ... ... ... : ... .. 6 ... ... ... : ... .. . ... : ... .. 3 ... : ... .. . ... ... : ... .. 4 ... ... : ... .. 4 ... ... : ... .. . ... ...
ROW 14 : ... .. . ... ... ... : ... .. 5 ... ... ... : ... .. . ... : ... .. 2 ... : ... .. . ... ... : ... .. . ... ... : ... .. . ... ... : ... .. . ... ...
ROW 15 : ... .. . ... ... ... : ... .. 4 ... ... ... : ... .. . ... : ... .. 0 ... : ... .. . ... ... : ... .. . ... ... : ... .. . ... ... : ... .. . ... ...
ROW 16 : ... .. 2 ... ... ... : ... .. . ... ... ... : ... .. . ... : ... .. . ... : ... .. . ... ... : ... .. . ... ... : ... .. . ... ... : ... .. . ... ...
ROW 17 : ... .. . ... ... ... : ... .. . ... ... ... : ... .. . ... : ... .. . ... : ... .. . ... ... : ... .. 3 ... ... : ... .. 3 ... ... : ... .. . ... ...
ROW 18 : ... .. . ... ... ... : ... .. 3 ... ... ... : ... .. . ... : ... .. . ... : ... .. . ... ... : ... .. 2 ... ... : ... .. 2 ... ... : ... .. . ... ...
ROW 19 : ... .. 1 ... ... ... : ... .. . ... ... ... : ... .. . ... : ... .. . ... : ... .. . ... ... : ... .. . ... ... : ... .. . ... ... : ... .. . ... ...
ROW 1A : ... .. . ... ... ... : A#3 00 8 ... ... ... : ... .. . ... : ... .. . ... : ... .. . ... ... : ... .. 1 ... ... : ... .. 1 ... ... : ... .. 5 ... ...
ROW 1B : ... .. . ... ... ... : ... .. 7 ... ... ... : ... .. . ... : ... .. . ... : ... .. . ... ... : ... .. . ... ... : ... .. . ... ... : ... .. . ... ...
ROW 1C : ... .. 0 ... V00 ... : ... .. . ... ... ... : ... .. . ... : ... .. . ... : ... .. . ... ... : ... .. . ... ... : ... .. . ... ... : ... .. . ... ...
ROW 1D : ... .. . ... ... ... : ... .. 6 ... ... ... : ... .. . ... : ... .. . ... : ... .. . ... ... : ... .. . ... ... : ... .. . ... ... : ... .. . ... ...
ROW 1E : ... .. . ... ... ... : ... .. 5 ... ... ... : ... .. . ... : ... .. . ... : ... .. . ... ... : ... .. . ... ... : ... .. . ... ... : ... .. . ... ...
ROW 1F : ... .. . ... ... ... : ... .. 4 ... ... ... : --- .. . ... : ... .. . ... : ... .. . ... ... : ... .. . ... ... : ... .. . ... ... : ... .. . ... ...
ROW 20 : ... .. . ... ... ... : ... .. . ... ... ... : ... .. . ... : ... .. . ... : ... .. . ... ... : ... .. . ... ... : ... .. . ... ... : ... .. . ... ...
ROW 21 : ... .. . ... ... ... : ... .. . ... ... ... : ... .. . ... : ... .. . ... : ... .. . ... ... : ... .. . ... ... : ... .. . ... ... : ... .. . ... ...
ROW 22 : ... .. . ... ... ... : ... .. 3 ... ... ... : ... .. . ... : ... .. . ... : ... .. . ... ... : ... .. . ... ... : ... .. . ... ... : ... .. . ... ...
ROW 23 : ... .. . ... ... ... : ... .. . ... ... ... : ... .. . ... : ... .. . ... : ... .. . ... ... : ... .. . ... ... : ... .. . ... ... : ... .. . ... ...
ROW 24 : G#4 00 F P80 V01 ... : G#4 00 8 ... ... ... : D-4 00 . ... : ... .. D ... : ... .. . ... ... : ... .. 6 ... ... : ... .. 6 ... ... : D-3 01 A ... ...
ROW 25 : ... .. E ... ... ... : ... .. 7 ... ... ... : ... .. . ... : ... .. B ... : ... .. . ... ... : ... .. 5 ... ... : ... .. 5 ... ... : ... .. 8 ... ...
ROW 26 : ... .. D ... ... ... : ... .. . ... ... ... : ... .. . ... : ... .. . ... : ... .. . ... ... : ... .. . ... ... : ... .. . ... ... : ... .. 5 ... ...
ROW 27 : ... .. A ... ... ... : ... .. 6 ... ... ... : ... .. . ... : ... .. A ... : ... .. . ... ... : ... .. 4 ... ... : ... .. 4 ... ... : ... .. . ... ...
ROW 28 : ... .. . ... ... ... : ... .. 5 ... ... ... : ... .. . ... : ... .. 8 ... : ... .. . ... ... : ... .. . ... ... : ... .. . ... ... : ... .. . ... ...
ROW 29 : ... .. . ... ... ... : ... .. 4 ... ... ... : ... .. . ... : ... .. 7 ... : ... .. . ... ... : ... .. . ... ... : ... .. . ... ... : ... .. . ... ...
ROW 2A : ... .. . ... ... ... : ... .. . ... ... ... : ... .. . ... : ... .. 6 ... : ... .. . ... ... : ... .. . ... ... : ... .. . ... ... : ... .. . ... ...
ROW 2B : ... .. . ... ... ... : ... .. . ... ... ... : ... .. . ... : ... .. . ... : ... .. . ... ... : ... .. 3 ... ... : ... .. 3 ... ... : ... .. . ... ...
ROW 2C : ... .. . ... ... ... : ... .. 3 ... ... ... : ... .. . ... : ... .. 5 ... : ... .. . ... ... : ... .. 2 ... ... : ... .. 2 ... ... : ... .. . ... ...
ROW 2D : ... .. . ... ... ... : ... .. . ... ... ... : ... .. . ... : ... .. . ... : ... .. . ... ... : ... .. . ... ... : ... .. . ... ... : ... .. . ... ...
ROW 2E : ... .. . P81 ... ... : A#3 00 8 ... ... ... : D#4 00 . ... : ... .. 4 ... : ... .. . ... ... : ... .. 1 ... ... : ... .. 1 ... ... : ... .. . ... ...
ROW 2F : ... .. . P82 ... ... : ... .. 7 ... ... ... : ... .. . ... : ... .. . ... : ... .. . ... ... : ... .. . ... ... : ... .. . ... ... : ... .. . ... ...
ROW 30 : ... .. . ... ... ... : ... .. . ... ... ... : ... .. . ... : ... .. 3 ... : ... .. . ... ... : ... .. . ... ... : ... .. . ... ... : ... .. . ... ...
ROW 31 : ... .. . P80 ... ... : ... .. 6 ... ... ... : ... .. . ... : ... .. 2 ... : ... .. . ... ... : ... .. . ... ... : ... .. . ... ... : ... .. . ... ...
ROW 32 : ... .. . ... ... ... : ... .. 5 ... ... ... : ... .. . ... : ... .. . ... : ... .. . ... ... : ... .. . ... ... : ... .. . ... ... : ... .. . ... ...
ROW 33 : ... .. . P7E ... ... : ... .. 4 ... ... ... : --- .. . ... : ... .. 1 ... : ... .. . ... ... : ... .. . ... ... : ... .. . ... ... : ... .. . ... ...
ROW 34 : ... .. . ... ... ... : ... .. . ... ... ... : ... .. . ... : ... .. 0 ... : ... .. . ... ... : ... .. . ... ... : ... .. . ... ... : ... .. . ... ...
ROW 35 : ... .. . P7F ... ... : ... .. . ... ... ... : ... .. . ... : ... .. . ... : ... .. . ... ... : ... .. . ... ... : ... .. . ... ... : ... .. . ... ...
ROW 36 : ... .. . P80 ... ... : ... .. 3 ... ... ... : ... .. . ... : ... .. . ... : ... .. . ... ... : ... .. . ... ... : ... .. . ... ... : ... .. . ... ...
ROW 37 : ... .. . P81 ... ... : ... .. . ... ... ... : ... .. . ... : ... .. . ... : ... .. . ... ... : ... .. . ... ... : ... .. . ... ... : ... .. . ... ...
ROW 38 : G-4 00 F P80 ... ... : D-4 00 8 ... ... ... : F-4 00 . ... : 9-# 00 A ... : ... .. . ... ... : ... .. 6 ... ... : ... .. 6 ... ... : A#2 01 A ... ...
ROW 39 : ... .. E ... ... ... : ... .. 7 ... ... ... : ... .. . ... : ... .. 8 ... : ... .. . ... ... : ... .. 5 ... ... : ... .. 5 ... ... : ... .. 8 ... ...
ROW 3A : ... .. D ... ... ... : ... .. . ... ... ... : ... .. . ... : ... .. 4 ... : ... .. . ... ... : ... .. . ... ... : ... .. . ... ... : ... .. 5 ... ...
ROW 3B : ... .. A ... ... ... : ... .. 6 ... ... ... : ... .. . ... : ... .. 2 ... : ... .. . ... ... : ... .. 4 ... ... : ... .. 4 ... ... : ... .. . ... ...
ROW 3C : ... .. . ... ... ... : ... .. 5 ... ... ... : ... .. . ... : ... .. 1 ... : ... .. . ... ... : ... .. . ... ... : ... .. . ... ... : ... .. . ... ...
ROW 3D : ... .. . ... ... ... : ... .. 4 ... ... ... : ... .. . ... : ... .. 0 ... : ... .. . ... ... : ... .. . ... ... : ... .. . ... ... : ... .. . ... ...
ROW 3E : ... .. . ... ... ... : ... .. . ... ... ... : ... .. . ... : ... .. . ... : ... .. . ... ... : ... .. . ... ... : ... .. . ... ... : ... .. . ... ...
ROW 3F : ... .. . ... ... ... : ... .. . ... ... ... : ... .. . ... : ... .. . ... : ... .. . ... ... : ... .. 3 ... ... : ... .. 3 ... ... : ... .. . ... ...
ROW 40 : ... .. . ... ... ... : ... .. 3 ... ... ... : ... .. . ... : ... .. . ... : ... .. . ... ... : ... .. 2 ... ... : ... .. 2 ... ... : ... .. . ... ...
ROW 41 : ... .. . ... ... ... : ... .. . ... ... ... : ... .. . ... : ... .. . ... : ... .. . ... ... : ... .. . ... ... : ... .. . ... ... : ... .. . ... ...
ROW 42 : F-4 00 F ... ... ... : G#4 00 8 ... ... ... : D-4 00 . ... : ... .. 8 ... : ... .. . ... ... : ... .. 1 ... ... : ... .. 1 ... ... : ... .. . ... ...
ROW 43 : ... .. E ... ... ... : ... .. 7 ... ... ... : ... .. . ... : ... .. 6 ... : ... .. . ... ... : ... .. . ... ... : ... .. . ... ... : ... .. . ... ...
ROW 44 : ... .. D ... ... ... : ... .. . ... ... ... : ... .. . ... : ... .. 3 ... : ... .. . ... ... : ... .. . ... ... : ... .. . ... ... : ... .. . ... ...
ROW 45 : ... .. A ... ... ... : ... .. 6 ... ... ... : ... .. . ... : ... .. 1 ... : ... .. . ... ... : ... .. . ... ... : ... .. . ... ... : ... .. . ... ...
ROW 46 : ... .. . ... ... ... : ... .. 5 ... ... ... : ... .. . ... : ... .. . ... : ... .. . ... ... : ... .. . ... ... : ... .. . ... ... : ... .. . ... ...
ROW 47 : ... .. . ... ... ... : ... .. 4 ... ... ... : --- .. . ... : ... .. 0 ... : ... .. . ... ... : ... .. . ... ... : ... .. . ... ... : ... .. . ... ...
ROW 48 : ... .. 2 ... ... ... : ... .. . ... ... ... : ... .. . ... : ... .. . ... : ... .. . ... ... : ... .. . ... ... : ... .. . ... ... : ... .. . ... ...
ROW 49 : ... .. . ... ... ... : ... .. . ... ... ... : ... .. . ... : ... .. . ... : ... .. . ... ... : ... .. . ... ... : ... .. . ... ... : ... .. . ... ...
ROW 4A : ... .. . ... ... ... : ... .. 3 ... ... ... : ... .. . ... : ... .. . ... : ... .. . ... ... : ... .. . ... ... : ... .. . ... ... : ... .. . ... ...
ROW 4B : ... .. 1 ... ... ... : ... .. . ... ... ... : ... .. . ... : ... .. . ... : ... .. . ... ... : ... .. . ... ... : ... .. . ... ... : ... .. . ... ...
ROW 4C : G-4 00 F ... ... ... : D-4 00 8 ... ... ... : D#4 00 . ... : ... .. F ... : ... .. . ... ... : ... .. 6 ... ... : G-3 01 6 ... ... : F-3 01 B ... ...
ROW 4D : ... .. E ... ... ... : ... .. 7 ... ... ... : ... .. . ... : ... .. C ... : ... .. . ... ... : ... .. 5 ... ... : ... .. 5 ... ... : ... .. 9 ... ...
ROW 4E : ... .. D ... ... ... : ... .. . ... ... ... : ... .. . ... : ... .. 6 ... : ... .. . ... ... : ... .. . ... ... : ... .. . ... ... : ... .. 5 ... ...
ROW 4F : ... .. A ... ... ... : ... .. 6 ... ... ... : ... .. . ... : ... .. 3 ... : ... .. . ... ... : ... .. 4 ... ... : ... .. 4 ... ... : ... .. . ... ...
ROW 50 : ... .. . ... ... ... : ... .. 5 ... ... ... : ... .. . ... : ... .. 2 ... : ... .. . ... ... : ... .. . ... ... : ... .. . ... ... : ... .. . ... ...
ROW 51 : ... .. . ... ... ... : ... .. 4 ... ... ... : ... .. . ... : ... .. 0 ... : ... .. . ... ... : ... .. . ... ... : ... .. . ... ... : ... .. . ... ...
ROW 52 : ... .. . ... ... ... : ... .. . ... ... ... : ... .. . ... : ... .. . ... : ... .. . ... ... : ... .. . ... ... : ... .. . ... ... : ... .. . ... ...
ROW 53 : ... .. . ... ... ... : ... .. . ... ... ... : ... .. . ... : ... .. . ... : ... .. . ... ... : ... .. 3 ... ... : ... .. 3 ... ... : ... .. . ... ...
ROW 54 : ... .. . ... ... ... : ... .. 3 ... ... ... : ... .. . ... : ... .. . ... : ... .. . ... ... : ... .. 2 ... ... : ... .. 2 ... ... : ... .. . ... ...
ROW 55 : ... .. . ... ... ... : ... .. . ... ... ... : ... .. . ... : ... .. . ... : ... .. . ... ... : ... .. . ... ... : ... .. . ... ... : ... .. . ... ...
ROW 56 : ... .. . ... ... ... : G-3 00 8 ... ... ... : ... .. . ... : ... .. . ... : ... .. . ... ... : ... .. 1 ... ... : ... .. 1 ... ... : ... .. . ... ...
ROW 57 : ... .. . ... ... ... : ... .. 7 ... ... ... : ... .. . ... : ... .. . ... : ... .. . ... ... : ... .. . ... ... : ... .. . ... ... : ... .. . ... ...
ROW 58 : ... .. . ... ... ... : ... .. . ... ... ... : ... .. . ... : ... .. . ... : ... .. . ... ... : ... .. . ... ... : ... .. . ... ... : ... .. . ... ...
ROW 59 : ... .. . ... ... ... : ... .. 6 ... ... ... : ... .. . ... : ... .. . ... : ... .. . ... ... : ... .. . ... ... : ... .. . ... ... : ... .. . ... ...
ROW 5A : ... .. . ... ... ... : ... .. 5 ... ... ... : ... .. . ... : ... .. . ... : ... .. . ... ... : ... .. . ... ... : ... .. . ... ... : ... .. . ... ...
ROW 5B : ... .. . ... ... ... : ... .. 4 ... ... ... : --- .. . ... : ... .. . ... : ... .. . ... ... : ... .. . ... ... : ... .. . ... ... : ... .. . ... ...
ROW 5C : ... .. . ... ... ... : ... .. . ... ... ... : ... .. . ... : ... .. . ... : ... .. . ... ... : ... .. . ... ... : ... .. . ... ... : ... .. . ... ...
ROW 5D : ... .. . ... ... ... : ... .. . ... ... ... : ... .. . ... : ... .. . ... : ... .. . ... ... : ... .. . ... ... : ... .. . ... ... : ... .. . ... ...
ROW 5E : ... .. . ... ... ... : ... .. 3 ... ... ... : ... .. . ... : ... .. . ... : ... .. . ... ... : ... .. . ... ... : ... .. . ... ... : ... .. . ... ...
ROW 5F : ... .. . ... ... ... : ... .. . ... ... ... : ... .. . ... : ... .. . ... : ... .. . ... ... : ... .. . ... ... : ... .. . ... ... : ... .. . ... ...
ROW 60 : ... .. . P81 ... ... : D#4 00 8 ... ... ... : D#3 00 . ... : ... .. . ... : ... .. . ... ... : ... .. 6 ... ... : ... .. 6 ... ... : D#3 01 B ... ...
ROW 61 : ... .. . P82 ... ... : ... .. 7 ... ... ... : ... .. . ... : ... .. . ... : ... .. . ... ... : ... .. 5 ... ... : ... .. 5 ... ... : ... .. 9 ... ...
ROW 62 : ... .. . ... ... ... : ... .. . ... ... ... : ... .. . ... : ... .. . ... : ... .. . ... ... : ... .. . ... ... : ... .. . ... ... : ... .. 5 ... ...
ROW 63 : ... .. . P80 ... ... : ... .. 6 ... ... ... : ... .. . ... : ... .. . ... : ... .. . ... ... : ... .. 4 ... ... : ... .. 4 ... ... : ... .. . ... ...
ROW 64 : ... .. . ... ... ... : ... .. 5 ... ... ... : ... .. . ... : ... .. . ... : ... .. . ... ... : ... .. . ... ... : ... .. . ... ... : ... .. . ... ...
ROW 65 : ... .. . P7E ... ... : ... .. 4 ... ... ... : ... .. . ... : ... .. . ... : ... .. . ... ... : ... .. . ... ... : ... .. . ... ... : ... .. . ... ...
ROW 66 : ... .. . ... ... ... : ... .. . ... ... ... : ... .. . ... : ... .. . ... : ... .. . ... ... : ... .. . ... ... : ... .. . ... ... : ... .. . ... ...
ROW 67 : ... .. . P7F ... ... : ... .. . ... ... ... : ... .. . ... : ... .. . ... : ... .. . ... ... : ... .. 3 ... ... : ... .. 3 ... ... : ... .. . ... ...
ROW 68 : ... .. . P80 ... ... : ... .. 3 ... ... ... : ... .. . ... : ... .. . ... : ... .. . ... ... : ... .. 2 ... ... : ... .. 2 ... ... : ... .. . ... ...
ROW 69 : ... .. . P81 ... ... : ... .. . ... ... ... : ... .. . ... : ... .. . ... : ... .. . ... ... : ... .. . ... ... : ... .. . ... ... : ... .. . ... ...
ROW 6A : ... .. . P82 ... ... : D-4 00 8 ... ... ... : D-3 00 . ... : ... .. . ... : ... .. . ... ... : ... .. 1 ... ... : ... .. 1 ... ... : ... .. . ... ...
ROW 6B : ... .. . ... ... ... : ... .. 7 ... ... ... : ... .. . ... : ... .. . ... : ... .. . ... ... : ... .. . ... ... : ... .. . ... ... : ... .. . ... ...
ROW 6C : ... .. . P80 ... ... : ... .. . ... ... ... : ... .. . ... : ... .. . ... : ... .. . ... ... : ... .. . ... ... : ... .. . ... ... : ... .. . ... ...
ROW 6D : ... .. . ... ... ... : ... .. 6 ... ... ... : ... .. . ... : ... .. . ... : ... .. . ... ... : ... .. . ... ... : ... .. . ... ... : ... .. . ... ...
ROW 6E : ... .. . P7F ... ... : ... .. 5 ... ... ... : ... .. . ... : ... .. . ... : ... .. . ... ... : ... .. . ... ... : ... .. . ... ... : ... .. . ... ...
ROW 6F : ... .. . P7E ... ... : ... .. 4 ... ... ... : --- .. . ... : ... .. . ... : ... .. . ... ... : ... .. . ... ... : ... .. . ... ... : ... .. . ... ...
ROW 70 : ... .. . P7F ... ... : ... .. . ... ... ... : ... .. . ... : ... .. . ... : ... .. . ... ... : ... .. . ... ... : ... .. . ... ... : ... .. . ... ...
ROW 71 : ... .. . P80 ... ... : ... .. . ... ... ... : ... .. . ... : ... .. . ... : ... .. . ... ... : ... .. . ... ... : ... .. . ... ... : ... .. . ... ...
ROW 72 : ... .. . P81 ... ... : ... .. 3 ... ... ... : ... .. . ... : ... .. . ... : ... .. . ... ... : ... .. . ... ... : ... .. . ... ... : ... .. . ... ...
ROW 73 : ... .. . P82 ... ... : ... .. . ... ... ... : ... .. . ... : ... .. . ... : ... .. . ... ... : ... .. . ... ... : ... .. . ... ... : ... .. . ... ...
ROW 74 : ... .. . ... ... ... : C-4 00 8 ... ... ... : C-3 00 . ... : D-# 00 D V01 : ... .. . ... ... : C-3 01 6 ... ... : ... .. 6 ... ... : G#2 01 C ... ...
ROW 75 : ... .. 2 P81 ... ... : ... .. 7 ... ... ... : ... .. . ... : ... .. B ... : ... .. . ... ... : ... .. 5 ... ... : ... .. 5 ... ... : ... .. A ... ...
ROW 76 : ... .. . P80 ... ... : ... .. . ... ... ... : ... .. . ... : ... .. . ... : ... .. . ... ... : ... .. . ... ... : ... .. . ... ... : ... .. 6 ... ...
ROW 77 : ... .. . P7F ... ... : ... .. 6 ... ... ... : ... .. . ... : ... .. A ... : ... .. . ... ... : ... .. 4 ... ... : ... .. 4 ... ... : ... .. . ... ...
ROW 78 : ... .. 1 P7E ... ... : ... .. 5 ... ... ... : ... .. . ... : ... .. 8 ... : ... .. . ... ... : ... .. . ... ... : ... .. . ... ... : ... .. . ... ...
ROW 79 : ... .. . P7F ... ... : ... .. 4 ... ... ... : ... .. . ... : ... .. 7 ... : ... .. . ... ... : ... .. . ... ... : ... .. . ... ... : ... .. 5 ... ...
ROW 7A : ... .. . P80 ... ... : ... .. . ... ... ... : ... .. . ... : ... .. 6 ... : ... .. . ... ... : ... .. . ... ... : ... .. . ... ... : ... .. . ... ...
ROW 7B : ... .. 0 ... V00 ... : ... .. . ... ... ... : ... .. . ... : ... .. . ... : ... .. . ... ... : ... .. 3 ... ... : ... .. 3 ... ... : ... .. . ... ...
ROW 7C : ... .. . ... ... ... : ... .. 3 ... ... ... : ... .. . ... : ... .. 5 ... : ... .. . ... ... : ... .. 2 ... ... : ... .. 2 ... ... : ... .. . ... ...
ROW 7D : ... .. . ... ... ... : ... .. . ... ... ... : ... .. . ... : ... .. . ... : ... .. . ... ... : ... .. . ... ... : ... .. . ... ... : ... .. . ... ...
ROW 7E : ... .. . ... ... ... : D#3 00 8 ... ... ... : ... .. . ... : ... .. 4 ... : ... .. . ... ... : ... .. 1 ... ... : ... .. 1 ... ... : ... .. . ... ...
ROW 7F : ... .. . ... ... ... : ... .. 7 ... ... ... : ... .. . ... : ... .. . ... : ... .. . ... ... : ... .. . ... ... : ... .. . ... ... : ... .. . ... ...
ROW 80 : ... .. . ... ... ... : ... .. . ... ... ... : ... .. . ... : ... .. 3 ... : ... .. . ... ... : ... .. . ... ... : ... .. . ... ... : ... .. . ... ...
ROW 81 : ... .. . ... ... ... : ... .. 6 ... ... ... : ... .. . ... : ... .. 2 ... : ... .. . ... ... : ... .. . ... ... : ... .. . ... ... : ... .. . ... ...
ROW 82 : ... .. . ... ... ... : ... .. 5 ... ... ... : ... .. . ... : ... .. . ... : ... .. . ... ... : ... .. . ... ... : ... .. . ... ... : ... .. . ... ...
ROW 83 : ... .. . ... ... ... : ... .. 4 ... ... ... : ... .. . ... : ... .. 1 ... : ... .. . ... ... : ... .. . ... ... : ... .. . ... ... : ... .. . ... ...
ROW 84 : ... .. . ... ... ... : ... .. . ... ... ... : ... .. . ... : ... .. 0 ... : ... .. . ... ... : ... .. . ... ... : ... .. . ... ... : ... .. . ... ...
ROW 85 : ... .. . ... ... ... : ... .. . ... ... ... : ... .. . ... : ... .. . ... : ... .. . ... ... : ... .. . ... ... : ... .. . ... ... : ... .. . ... ...
ROW 86 : ... .. . ... ... ... : ... .. 3 ... ... ... : ... .. . ... : ... .. . ... : ... .. . ... ... : ... .. . ... ... : ... .. . ... ... : ... .. . ... ...
ROW 87 : ... .. . ... ... ... : ... .. . ... ... ... : ... .. . ... : ... .. . ... : ... .. . ... ... : ... .. . ... ... : ... .. . ... ... : ... .. . ... ...
ROW 88 : G#3 00 F P80 V01 ... : G#3 00 8 ... ... ... : ... .. . ... : 9-# 00 A V00 : ... .. . ... ... : ... .. 6 ... ... : ... .. 6 ... ... : ... .. . ... ...
ROW 89 : ... .. E ... ... ... : ... .. 7 ... ... ... : ... .. . ... : ... .. 8 ... : ... .. . ... ... : ... .. 5 ... ... : ... .. 5 ... ... : ... .. . ... ...
ROW 8A : ... .. D ... ... ... : ... .. . ... ... ... : ... .. . ... : ... .. 4 ... : ... .. . ... ... : ... .. . ... ... : ... .. . ... ... : ... .. . ... ...
ROW 8B : ... .. A ... ... ... : ... .. 6 ... ... ... : ... .. . ... : ... .. 2 ... : ... .. . ... ... : ... .. 4 ... ... : ... .. 4 ... ... : ... .. . ... ...
ROW 8C : ... .. . ... ... ... : ... .. 5 ... ... ... : ... .. . ... : ... .. 1 ... : ... .. . ... ... : ... .. . ... ... : ... .. . ... ... : ... .. . ... ...
ROW 8D : ... .. . ... ... ... : ... .. 4 ... ... ... : ... .. . ... : ... .. 0 ... : ... .. . ... ... : ... .. . ... ... : ... .. . ... ... : ... .. . ... ...
ROW 8E : ... .. 2 ... ... ... : ... .. . ... ... ... : ... .. . ... : ... .. . ... : ... .. . ... ... : ... .. . ... ... : ... .. . ... ... : ... .. . ... ...
ROW 8F : ... .. . ... ... ... : ... .. . ... ... ... : ... .. . ... : ... .. . ... : ... .. . ... ... : ... .. 3 ... ... : ... .. 3 ... ... : ... .. . ... ...
ROW 90 : ... .. . ... ... ... : ... .. 3 ... ... ... : ... .. . ... : ... .. . ... : ... .. . ... ... : ... .. 2 ... ... : ... .. 2 ... ... : ... .. . ... ...
ROW 91 : ... .. 1 ... ... ... : ... .. . ... ... ... : ... .. . ... : ... .. . ... : ... .. . ... ... : ... .. . ... ... : ... .. . ... ... : ... .. . ... ...
ROW 92 : ... .. . ... ... ... : D#3 00 8 ... ... ... : ... .. . ... : ... .. 8 ... : ... .. . ... ... : ... .. 1 ... ... : ... .. 1 ... ... : ... .. . ... ...
ROW 93 : ... .. . ... ... ... : ... .. 7 ... ... ... : ... .. . ... : ... .. 6 ... : ... .. . ... ... : ... .. . ... ... : ... .. . ... ... : ... .. . ... ...
ROW 94 : ... .. 0 ... V00 ... : ... .. . ... ... ... : ... .. . ... : ... .. 3 ... : ... .. . ... ... : ... .. . ... ... : ... .. . ... ... : ... .. . ... ...
ROW 95 : ... .. . ... ... ... : ... .. 6 ... ... ... : ... .. . ... : ... .. 1 ... : ... .. . ... ... : ... .. . ... ... : ... .. . ... ... : ... .. . ... ...
ROW 96 : ... .. . ... ... ... : ... .. 5 ... ... ... : ... .. . ... : ... .. . ... : ... .. . ... ... : ... .. . ... ... : ... .. . ... ... : ... .. . ... ...
ROW 97 : ... .. . ... ... ... : ... .. 4 ... ... ... : ... .. . ... : ... .. 0 ... : ... .. . ... ... : ... .. . ... ... : ... .. . ... ... : ... .. . ... ...
ROW 98 : ... .. . ... ... ... : ... .. . ... ... ... : ... .. . ... : ... .. . ... : ... .. . ... ... : ... .. . ... ... : ... .. . ... ... : ... .. . ... ...
ROW 99 : ... .. . ... ... ... : ... .. . ... ... ... : ... .. . ... : ... .. . ... : ... .. . ... ... : ... .. . ... ... : ... .. . ... ... : ... .. . ... ...
ROW 9A : ... .. . ... ... ... : ... .. 3 ... ... ... : ... .. . ... : ... .. . ... : ... .. . ... ... : ... .. . ... ... : ... .. . ... ... : ... .. . ... ...
ROW 9B : ... .. . ... ... ... : ... .. . ... ... ... : ... .. . ... : ... .. . ... : ... .. . ... ... : ... .. . ... ... : ... .. . ... ... : ... .. . ... ...
ROW 9C : G#3 00 F P80 V01 ... : C-4 00 8 ... ... ... : C-4 00 . ... : ... .. F ... : ... .. . ... ... : ... .. 6 ... ... : ... .. 6 ... ... : D#2 01 B ... ...
ROW 9D : ... .. E ... ... ... : ... .. 7 ... ... ... : ... .. . ... : ... .. C ... : ... .. . ... ... : ... .. 5 ... ... : ... .. 5 ... ... : ... .. 9 ... ...
ROW 9E : ... .. D ... ... ... : ... .. . ... ... ... : ... .. . ... : ... .. 6 ... : ... .. . ... ... : ... .. . ... ... : ... .. . ... ... : ... .. 5 ... ...
ROW 9F : ... .. A ... ... ... : ... .. 6 ... ... ... : ... .. . ... : ... .. 3 ... : ... .. . ... ... : ... .. 4 ... ... : ... .. 4 ... ... : ... .. . ... ...
ROW A0 : ... .. . ... ... ... : ... .. 5 ... ... ... : ... .. . ... : ... .. 2 ... : ... .. . ... ... : ... .. . ... ... : ... .. . ... ... : ... .. . ... ...
ROW A1 : ... .. . ... ... ... : ... .. 4 ... ... ... : ... .. . ... : ... .. 0 ... : ... .. . ... ... : ... .. . ... ... : ... .. . ... ... : ... .. . ... ...
ROW A2 : ... .. . ... ... ... : ... .. . ... ... ... : ... .. . ... : ... .. . ... : ... .. . ... ... : ... .. . ... ... : ... .. . ... ... : ... .. . ... ...
ROW A3 : ... .. . ... ... ... : ... .. . ... ... ... : ... .. . ... : ... .. . ... : ... .. . ... ... : ... .. 3 ... ... : ... .. 3 ... ... : ... .. . ... ...
ROW A4 : ... .. . ... ... ... : ... .. 3 ... ... ... : ... .. . ... : ... .. . ... : ... .. . ... ... : ... .. 2 ... ... : ... .. 2 ... ... : ... .. . ... ...
ROW A5 : ... .. . ... ... ... : ... .. . ... ... ... : ... .. . ... : ... .. . ... : ... .. . ... ... : ... .. . ... ... : ... .. . ... ... : ... .. . ... ...
ROW A6 : ... .. . ... ... ... : D#3 00 8 ... ... ... : ... .. . ... : ... .. . ... : ... .. . ... ... : ... .. 1 ... ... : ... .. 1 ... ... : ... .. . ... ...
ROW A7 : ... .. . ... ... ... : ... .. 7 ... ... ... : ... .. . ... : ... .. . ... : ... .. . ... ... : ... .. . ... ... : ... .. . ... ... : ... .. . ... ...
ROW A8 : ... .. . ... ... ... : ... .. . ... ... ... : ... .. . ... : ... .. . ... : ... .. . ... ... : ... .. . ... ... : ... .. . ... ... : ... .. . ... ...
ROW A9 : ... .. . ... ... ... : ... .. 6 ... ... ... : ... .. . ... : ... .. . ... : ... .. . ... ... : ... .. . ... ... : ... .. . ... ... : ... .. . ... ...
ROW AA : ... .. . ... ... ... : ... .. 5 ... ... ... : ... .. . ... : ... .. . ... : ... .. . ... ... : ... .. . ... ... : ... .. . ... ... : ... .. . ... ...
ROW AB : ... .. . ... ... ... : ... .. 4 ... ... ... : ... .. . ... : ... .. . ... : ... .. . ... ... : ... .. . ... ... : ... .. . ... ... : ... .. . ... ...
ROW AC : ... .. . ... ... ... : ... .. . ... ... ... : ... .. . ... : ... .. . ... : ... .. . ... ... : ... .. . ... ... : ... .. . ... ... : ... .. . ... ...
ROW AD : ... .. . ... ... ... : ... .. . ... ... ... : ... .. . ... : ... .. . ... : ... .. . ... ... : ... .. . ... ... : ... .. . ... ... : ... .. . ... ...
ROW AE : ... .. . ... ... ... : ... .. 3 ... ... ... : ... .. . ... : ... .. . ... : ... .. . ... ... : ... .. . ... ... : ... .. . ... ... : ... .. . ... ...
ROW AF : ... .. . ... ... ... : ... .. . ... ... ... : ... .. . ... : ... .. . ... : ... .. . ... ... : ... .. . ... ... : ... .. . ... ... : ... .. . ... ...
ROW B0 : G-4 00 F ... ... ... : G#3 00 8 ... ... ... : ... .. . ... : D-# 00 8 ... : ... .. . ... ... : ... .. 6 ... ... : ... .. 6 ... ... : ... .. . ... ...
ROW B1 : ... .. E ... ... ... : ... .. 7 ... ... ... : ... .. . ... : ... .. 7 ... : ... .. . ... ... : ... .. 5 ... ... : ... .. 5 ... ... : ... .. . ... ...
ROW B2 : ... .. D ... ... ... : ... .. . ... ... ... : ... .. . ... : ... .. . ... : ... .. . ... ... : ... .. . ... ... : ... .. . ... ... : ... .. . ... ...
ROW B3 : ... .. A ... ... ... : ... .. 6 ... ... ... : ... .. . ... : ... .. 6 ... : ... .. . ... ... : ... .. 4 ... ... : ... .. 4 ... ... : ... .. . ... ...
ROW B4 : ... .. . ... ... ... : ... .. 5 ... ... ... : ... .. . ... : ... .. 5 ... : ... .. . ... ... : ... .. . ... ... : ... .. . ... ... : ... .. . ... ...
ROW B5 : ... .. . ... ... ... : ... .. 4 ... ... ... : ... .. . ... : ... .. 4 ... : ... .. . ... ... : ... .. . ... ... : ... .. . ... ... : ... .. . ... ...
ROW B6 : ... .. 2 ... ... ... : ... .. . ... ... ... : ... .. . ... : ... .. . ... : ... .. . ... ... : ... .. . ... ... : ... .. . ... ... : ... .. . ... ...
ROW B7 : ... .. . ... ... ... : ... .. . ... ... ... : ... .. . ... : ... .. . ... : ... .. . ... ... : ... .. 3 ... ... : ... .. 3 ... ... : ... .. . ... ...
ROW B8 : ... .. . ... ... ... : ... .. 3 ... ... ... : ... .. . ... : ... .. 3 ... : ... .. . ... ... : ... .. 2 ... ... : ... .. 2 ... ... : ... .. . ... ...
ROW B9 : ... .. 1 ... ... ... : ... .. . ... ... ... : ... .. . ... : ... .. . ... : ... .. . ... ... : ... .. . ... ... : ... .. . ... ... : ... .. . ... ...
ROW BA : ... .. . ... ... ... : D#3 00 8 ... ... ... : ... .. . ... : ... .. 2 ... : ... .. . ... ... : ... .. 1 ... ... : ... .. 1 ... ... : ... .. . ... ...
ROW BB : ... .. . ... ... ... : ... .. 7 ... ... ... : ... .. . ... : ... .. . ... : ... .. . ... ... : ... .. . ... ... : ... .. . ... ... : ... .. . ... ...
ROW BC : ... .. 0 ... V00 ... : ... .. . ... ... ... : ... .. . ... : ... .. . ... : ... .. . ... ... : ... .. . ... ... : ... .. . ... ... : ... .. . ... ...
ROW BD : ... .. . ... ... ... : ... .. 6 ... ... ... : ... .. . ... : ... .. 1 ... : ... .. . ... ... : ... .. . ... ... : ... .. . ... ... : ... .. . ... ...
ROW BE : ... .. . ... ... ... : ... .. 5 ... ... ... : ... .. . ... : ... .. . ... : ... .. . ... ... : ... .. . ... ... : ... .. . ... ... : ... .. . ... ...
ROW BF : ... .. . ... ... ... : ... .. 4 ... ... ... : --- .. . ... : ... .. . ... : ... .. . ... ... : ... .. . ... ... : ... .. . ... ... : ... .. . ... ...
ROW C0 : ... .. . ... ... ... : ... .. . ... ... ... : ... .. . ... : ... .. 0 ... : ... .. . ... ... : ... .. . ... ... : ... .. . ... ... : ... .. . ... ...
ROW C1 : ... .. . ... ... ... : ... .. . ... ... ... : ... .. . ... : ... .. . ... : ... .. . ... ... : ... .. . ... ... : ... .. . ... ... : ... .. . ... ...
ROW C2 : ... .. . ... ... ... : ... .. 3 ... ... ... : ... .. . ... : ... .. . ... : ... .. . ... ... : ... .. . ... ... : ... .. . ... ... : ... .. . ... ...
ROW C3 : ... .. . ... ... ... : ... .. . ... ... ... : ... .. . ... : ... .. . ... : ... .. . ... ... : ... .. . ... ... : ... .. . ... ... : ... .. . ... ...
ROW C4 : G-4 00 F P80 V01 ... : C-4 00 8 ... ... ... : F-4 00 . ... : ... .. D ... : ... .. . ... ... : ... .. 6 ... ... : ... .. 6 ... ... : C-3 01 A ... ...
ROW C5 : ... .. E ... ... ... : ... .. 7 ... ... ... : ... .. . ... : ... .. B ... : ... .. . ... ... : ... .. 5 ... ... : ... .. 5 ... ... : ... .. 8 ... ...
ROW C6 : ... .. D ... ... ... : ... .. . ... ... ... : ... .. . ... : ... .. . ... : ... .. . ... ... : ... .. . ... ... : ... .. . ... ... : ... .. 5 ... ...
ROW C7 : ... .. A ... ... ... : ... .. 6 ... ... ... : ... .. . ... : ... .. A ... : ... .. . ... ... : ... .. 4 ... ... : ... .. 4 ... ... : ... .. . ... ...
ROW C8 : ... .. . ... ... ... : ... .. 5 ... ... ... : ... .. . ... : ... .. 8 ... : ... .. . ... ... : ... .. . ... ... : ... .. . ... ... : ... .. . ... ...
ROW C9 : ... .. . ... ... ... : ... .. 4 ... ... ... : ... .. . ... : ... .. 7 ... : ... .. . ... ... : ... .. . ... ... : ... .. . ... ... : ... .. . ... ...
ROW CA : ... .. . ... ... ... : ... .. . ... ... ... : ... .. . ... : ... .. 6 ... : ... .. . ... ... : ... .. . ... ... : ... .. . ... ... : ... .. . ... ...
ROW CB : ... .. . ... ... ... : ... .. . ... ... ... : ... .. . ... : ... .. . ... : ... .. . ... ... : ... .. 3 ... ... : ... .. 3 ... ... : ... .. . ... ...
ROW CC : ... .. . ... ... ... : ... .. 3 ... ... ... : ... .. . ... : ... .. 5 ... : ... .. . ... ... : ... .. 2 ... ... : ... .. 2 ... ... : ... .. . ... ...
ROW CD : ... .. . ... ... ... : ... .. . ... ... ... : ... .. . ... : ... .. . ... : ... .. . ... ... : ... .. . ... ... : ... .. . ... ... : ... .. . ... ...
ROW CE : ... .. . ... ... ... : D-3 00 8 ... ... ... : E-4 00 . ... : ... .. 4 ... : ... .. . ... ... : ... .. 1 ... ... : ... .. 1 ... ... : ... .. . ... ...
ROW CF : ... .. . ... ... ... : ... .. 7 ... ... ... : ... .. . ... : ... .. . ... : ... .. . ... ... : ... .. . ... ... : ... .. . ... ... : ... .. . ... ...
ROW D0 : ... .. . ... ... ... : ... .. . ... ... ... : ... .. . ... : ... .. 3 ... : ... .. . ... ... : ... .. . ... ... : ... .. . ... ... : ... .. . ... ...
ROW D1 : ... .. . ... ... ... : ... .. 6 ... ... ... : ... .. . ... : ... .. 2 ... : ... .. . ... ... : ... .. . ... ... : ... .. . ... ... : ... .. . ... ...
ROW D2 : ... .. . ... ... ... : ... .. 5 ... ... ... : ... .. . ... : ... .. . ... : ... .. . ... ... : ... .. . ... ... : ... .. . ... ... : ... .. . ... ...
ROW D3 : ... .. . ... ... ... : ... .. 4 ... ... ... : --- .. . ... : ... .. 1 ... : ... .. . ... ... : ... .. . ... ... : ... .. . ... ... : ... .. 4 ... ...
ROW D4 : ... .. . ... ... ... : ... .. . ... ... ... : ... .. . ... : ... .. 0 ... : ... .. . ... ... : ... .. . ... ... : ... .. . ... ... : ... .. . ... ...
ROW D5 : ... .. . ... ... ... : ... .. . ... ... ... : ... .. . ... : ... .. . ... : ... .. . ... ... : ... .. . ... ... : ... .. . ... ... : ... .. . ... ...
ROW D6 : ... .. . ... ... ... : ... .. 3 ... ... ... : ... .. . ... : ... .. . ... : ... .. . ... ... : ... .. . ... ... : ... .. . ... ... : ... .. . ... ...
ROW D7 : ... .. . ... ... ... : ... .. . ... ... ... : ... .. . ... : ... .. . ... : ... .. . ... ... : ... .. . ... ... : ... .. . ... ... : ... .. . ... ...
ROW D8 : F-4 00 F ... ... ... : G#3 00 8 ... ... ... : F-4 00 . ... : 9-# 00 A ... : ... .. . ... ... : ... .. 6 ... ... : ... .. 6 ... ... : F-2 01 9 ... ...
ROW D9 : ... .. E ... ... ... : ... .. 7 ... ... ... : ... .. . ... : ... .. 8 ... : ... .. . ... ... : ... .. 5 ... ... : ... .. 5 ... ... : ... .. 7 ... ...
ROW DA : ... .. D ... ... ... : ... .. . ... ... ... : ... .. . ... : ... .. 4 ... : ... .. . ... ... : ... .. . ... ... : ... .. . ... ... : ... .. 4 ... ...
ROW DB : ... .. A ... ... ... : ... .. 6 ... ... ... : ... .. . ... : ... .. 2 ... : ... .. . ... ... : ... .. 4 ... ... : ... .. 4 ... ... : ... .. . ... ...
ROW DC : ... .. . ... ... ... : ... .. 5 ... ... ... : ... .. . ... : ... .. 1 ... : ... .. . ... ... : ... .. . ... ... : ... .. . ... ... : ... .. . ... ...
ROW DD : ... .. . ... ... ... : ... .. 4 ... ... ... : ... .. . ... : ... .. 0 ... : ... .. . ... ... : ... .. . ... ... : ... .. . ... ... : ... .. . ... ...
ROW DE : ... .. . ... ... ... : ... .. . ... ... ... : ... .. . ... : ... .. . ... : ... .. . ... ... : ... .. . ... ... : ... .. . ... ... : ... .. . ... ...
ROW DF : ... .. . ... ... ... : ... .. . ... ... ... : ... .. . ... : ... .. 8 ... : ... .. . ... ... : ... .. 3 ... ... : ... .. 3 ... ... : ... .. . ... ...
ROW E0 : ... .. . ... ... ... : ... .. 3 ... ... ... : ... .. . ... : ... .. 6 ... : ... .. . ... ... : ... .. 2 ... ... : ... .. 2 ... ... : ... .. . ... ...
ROW E1 : ... .. . ... ... ... : ... .. . ... ... ... : ... .. . ... : ... .. 3 ... : ... .. . ... ... : ... .. . ... ... : ... .. . ... ... : ... .. . ... ...
ROW E2 : D#4 00 F ... ... ... : D-3 00 8 ... ... ... : G-4 00 . ... : ... .. 1 ... : ... .. . ... ... : ... .. 1 ... ... : ... .. 1 ... ... : ... .. . ... ...
ROW E3 : ... .. E ... ... ... : ... .. 7 ... ... ... : ... .. . ... : ... .. . ... : ... .. . ... ... : ... .. . ... ... : ... .. . ... ... : ... .. . ... ...
ROW E4 : ... .. D ... ... ... : ... .. . ... ... ... : ... .. . ... : ... .. 0 ... : ... .. . ... ... : ... .. . ... ... : ... .. . ... ... : ... .. . ... ...
ROW E5 : ... .. A ... ... ... : ... .. 6 ... ... ... : ... .. . ... : ... .. C ... : ... .. . ... ... : ... .. . ... ... : ... .. . ... ... : ... .. . ... ...
ROW E6 : ... .. . ... ... ... : ... .. 5 ... ... ... : ... .. . ... : ... .. 9 ... : ... .. . ... ... : ... .. . ... ... : ... .. . ... ... : ... .. . ... ...
ROW E7 : ... .. . ... ... ... : ... .. 4 ... ... ... : --- .. . ... : ... .. 4 ... : ... .. . ... ... : ... .. . ... ... : ... .. . ... ... : ... .. . ... ...
ROW E8 : ... .. 2 ... ... ... : ... .. . ... ... ... : ... .. . ... : ... .. 2 ... : ... .. . ... ... : ... .. . ... ... : ... .. . ... ... : ... .. . ... ...
ROW E9 : ... .. . ... ... ... : ... .. . ... ... ... : ... .. . ... : ... .. 1 ... : ... .. . ... ... : ... .. . ... ... : ... .. . ... ... : ... .. . ... ...
ROW EA : ... .. . ... ... ... : ... .. 3 ... ... ... : ... .. . ... : ... .. 0 ... : ... .. . ... ... : ... .. . ... ... : ... .. . ... ... : ... .. . ... ...
ROW EB : ... .. 1 ... ... ... : ... .. . ... ... ... : ... .. . ... : ... .. . ... : ... .. . ... ... : ... .. . ... ... : ... .. . ... ... : ... .. . ... ...
ROW EC : ... .. . ... ... ... : C-4 00 8 ... ... ... : G#4 00 . ... : ... .. F ... : ... .. . ... ... : D-3 01 6 ... ... : G#3 01 6 ... ... : D#3 01 9 ... ...
ROW ED : ... .. . ... ... ... : ... .. 7 ... ... ... : ... .. . ... : ... .. C ... : ... .. . ... ... : ... .. 5 ... ... : ... .. 5 ... ... : ... .. 7 ... ...
ROW EE : G-4 00 F ... ... ... : ... .. . ... ... ... : ... .. . ... : ... .. 6 ... : ... .. . ... ... : ... .. . ... ... : ... .. . ... ... : ... .. 4 ... ...
ROW EF : ... .. E ... ... ... : ... .. 6 ... ... ... : ... .. . ... : ... .. 3 ... : ... .. . ... ... : ... .. 4 ... ... : ... .. 4 ... ... : ... .. . ... ...
ROW F0 : ... .. D ... ... ... : ... .. 5 ... ... ... : ... .. . ... : ... .. 2 ... : ... .. . ... ... : ... .. . ... ... : ... .. . ... ... : ... .. . ... ...
ROW F1 : F-4 00 F ... ... ... : ... .. 4 ... ... ... : ... .. . ... : ... .. 0 ... : ... .. . ... ... : ... .. . ... ... : ... .. . ... ... : ... .. . ... ...
ROW F2 : ... .. E ... ... ... : ... .. . ... ... ... : ... .. . ... : ... .. . ... : ... .. . ... ... : ... .. . ... ... : ... .. . ... ... : ... .. . ... ...
ROW F3 : ... .. D ... ... ... : ... .. . ... ... ... : ... .. . ... : ... .. . ... : ... .. . ... ... : ... .. 3 ... ... : ... .. 3 ... ... : ... .. . ... ...
ROW F4 : ... .. A ... ... ... : ... .. 3 ... ... ... : ... .. . ... : ... .. . ... : ... .. . ... ... : ... .. 2 ... ... : ... .. 2 ... ... : ... .. . ... ...
ROW F5 : ... .. . ... ... ... : ... .. . ... ... ... : ... .. . ... : ... .. . ... : ... .. . ... ... : ... .. . ... ... : ... .. . ... ... : ... .. . ... ...
ROW F6 : ... .. . ... ... ... : D-3 00 8 ... ... ... : ... .. . ... : ... .. . ... : ... .. . ... ... : ... .. 1 ... ... : ... .. 1 ... ... : ... .. . ... ...
ROW F7 : ... .. . ... ... ... : ... .. 7 ... ... ... : ... .. . ... : ... .. . ... : ... .. . ... ... : ... .. . ... ... : ... .. . ... ... : ... .. . ... ...
ROW F8 : ... .. . ... ... ... : ... .. . ... ... ... : ... .. . ... : ... .. . ... : ... .. . ... ... : ... .. . ... ... : ... .. . ... ... : ... .. . ... ...
ROW F9 : ... .. . ... ... ... : ... .. 6 ... ... ... : ... .. . ... : ... .. . ... : ... .. . ... ... : ... .. . ... ... : ... .. . ... ... : ... .. . ... ...
ROW FA : ... .. . ... ... ... : ... .. 5 ... ... ... : ... .. . ... : ... .. . ... : ... .. . ... ... : ... .. . ... ... : ... .. . ... ... : ... .. . ... ...
ROW FB : ... .. . ... ... ... : ... .. 4 ... ... ... : --- .. . ... : ... .. . ... : ... .. . ... ... : ... .. . ... ... : ... .. . ... ... : ... .. . ... ...
ROW FC : ... .. . ... ... ... : ... .. . ... ... ... : ... .. . ... : ... .. . ... : ... .. . ... ... : ... .. . ... ... : ... .. . ... ... : ... .. . ... ...
ROW FD : ... .. . ... ... ... : ... .. . ... ... ... : ... .. . ... : ... .. . ... : ... .. . ... ... : ... .. . ... ... : ... .. . ... ... : ... .. . ... ...
ROW FE : ... .. . ... ... ... : ... .. 3 ... ... ... : ... .. . ... : ... .. . ... : ... .. . ... ... : ... .. . ... ... : ... .. . ... ... : ... .. . ... ...
ROW FF : ... .. . ... ... ... : ... .. . ... ... ... : ... .. . ... : ... .. . ... : ... .. . ... ... : ... .. . ... ... : ... .. . ... ... : ... .. . ... ...

PATTERN 0A
ROW 00 : D-4 00 F ... ... ... : G#3 00 8 ... ... ... : G#2 00 . ... : ... .. . ... : ... .. . ... ... : C-3 01 6 ... ... : ... .. 6 ... ... : C-3 01 8 ... ...
ROW 01 : ... .. E ... ... ... : ... .. 7 ... ... ... : ... .. . ... : ... .. . ... : ... .. . ... ... : ... .. 5 ... ... : ... .. 5 ... ... : ... .. 6 ... ...
ROW 02 : ... .. D ... ... ... : ... .. . ... ... ... : ... .. . ... : ... .. . ... : ... .. . ... ... : ... .. . ... ... : ... .. . ... ... : ... .. 4 ... ...
ROW 03 : ... .. A ... ... ... : ... .. 6 ... ... ... : ... .. . ... : ... .. . ... : ... .. . ... ... : ... .. 4 ... ... : ... .. 4 ... ... : ... .. . ... ...
ROW 04 : ... .. . ... ... ... : ... .. 5 ... ... ... : ... .. . ... : ... .. . ... : ... .. . ... ... : ... .. . ... ... : ... .. . ... ... : ... .. . ... ...
ROW 05 : ... .. . ... ... ... : ... .. 4 ... ... ... : ... .. . ... : ... .. . ... : ... .. . ... ... : ... .. . ... ... : ... .. . ... ... : ... .. . ... ...
ROW 06 : ... .. . ... ... ... : ... .. . ... ... ... : ... .. . ... : ... .. . ... : ... .. . ... ... : ... .. . ... ... : ... .. . ... ... : ... .. . ... ...
ROW 07 : ... .. . ... ... ... : ... .. . ... ... ... : ... .. . ... : ... .. . ... : ... .. . ... ... : ... .. 3 ... ... : ... .. 3 ... ... : ... .. . ... ...
ROW 08 : ... .. . ... ... ... : ... .. 3 ... ... ... : ... .. . ... : ... .. . ... : ... .. . ... ... : ... .. 2 ... ... : ... .. 2 ... ... : ... .. . ... ...
ROW 09 : ... .. . ... ... ... : ... .. . ... ... ... : ... .. . ... : ... .. . ... : ... .. . ... ... : ... .. . ... ... : ... .. . ... ... : ... .. . ... ...
ROW 0A : ... .. . ... ... ... : C-4 00 8 ... ... ... : ... .. . ... : ... .. . ... : ... .. . ... ... : ... .. 1 ... ... : ... .. 1 ... ... : ... .. . ... ...
ROW 0B : ... .. 2 ... ... ... : ... .. 7 ... ... ... : ... .. . ... : ... .. . ... : ... .. . ... ... : ... .. . ... ... : ... .. . ... ... : ... .. . ... ...
ROW 0C : ... .. . ... ... ... : ... .. . ... ... ... : ... .. . ... : ... .. . ... : ... .. . ... ... : ... .. . ... ... : ... .. . ... ... : ... .. . ... ...
ROW 0D : ... .. . ... ... ... : ... .. 6 ... ... ... : ... .. . ... : ... .. . ... : ... .. . ... ... : ... .. . ... ... : ... .. . ... ... : ... .. . ... ...
ROW 0E : ... .. 1 ... ... ... : ... .. 5 ... ... ... : ... .. . ... : ... .. . ... : ... .. . ... ... : ... .. . ... ... : ... .. . ... ... : ... .. . ... ...
ROW 0F : ... .. . ... ... ... : ... .. 4 ... ... ... : --- .. . ... : ... .. . ... : ... .. . ... ... : ... .. . ... ... : ... .. . ... ... : ... .. . ... ...
ROW 10 : ... .. . ... ... ... : ... .. . ... ... ... : ... .. . ... : ... .. . ... : ... .. . ... ... : ... .. . ... ... : ... .. . ... ... : ... .. . ... ...
ROW 11 : ... .. 0 ... V00 ... : ... .. . ... ... ... : ... .. . ... : ... .. . ... : ... .. . ... ... : ... .. . ... ... : ... .. . ... ... : ... .. . ... ...
ROW 12 : ... .. . ... ... ... : ... .. 3 ... ... ... : ... .. . ... : ... .. . ... : ... .. . ... ... : ... .. . ... ... : ... .. . ... ... : ... .. . ... ...
ROW 13 : ... .. . ... ... ... : ... .. . ... ... ... : ... .. . ... : ... .. . ... : ... .. . ... ... : ... .. . ... ... : ... .. . ... ... : ... .. . ... ...
ROW 14 : ... .. . ... ... ... : D#4 00 8 ... ... ... : G-2 00 . ... : D-# 00 D V01 : ... .. . ... ... : D#3 01 6 ... ... : F-3 01 6 ... ... : G#2 01 8 ... ...
ROW 15 : ... .. . ... ... ... : ... .. 7 ... ... ... : ... .. . ... : ... .. B ... : ... .. . ... ... : ... .. 5 ... ... : ... .. 5 ... ... : ... .. 6 ... ...
ROW 16 : ... .. . ... ... ... : ... .. . ... ... ... : ... .. . ... : ... .. . ... : ... .. . ... ... : ... .. . ... ... : ... .. . ... ... : ... .. 4 ... ...
ROW 17 : ... .. . ... ... ... : ... .. 6 ... ... ... : ... .. . ... : ... .. A ... : ... .. . ... ... : ... .. 4 ... ... : ... .. 4 ... ... : ... .. . ... ...
ROW 18 : ... .. . ... ... ... : ... .. 5 ... ... ... : ... .. . ... : ... .. 8 ... : ... .. . ... ... : ... .. . ... ... : ... .. . ... ... : ... .. . ... ...
ROW 19 : ... .. . ... ... ... : ... .. 4 ... ... ... : ... .. . ... : ... .. 7 ... : ... .. . ... ... : ... .. . ... ... : ... .. . ... ... : ... .. . ... ...
ROW 1A : ... .. . ... ... ... : ... .. . ... ... ... : ... .. . ... : ... .. 6 ... : ... .. . ... ... : ... .. . ... ... : ... .. . ... ... : ... .. . ... ...
ROW 1B : ... .. . ... ... ... : ... .. . ... ... ... : ... .. . ... : ... .. . ... : ... .. . ... ... : ... .. 3 ... ... : ... .. 3 ... ... : ... .. . ... ...
ROW 1C : ... .. . ... ... ... : ... .. 3 ... ... ... : ... .. . ... : ... .. 5 ... : ... .. . ... ... : ... .. 2 ... ... : ... .. 2 ... ... : ... .. . ... ...
ROW 1D : ... .. . ... ... ... : ... .. . ... ... ... : ... .. . ... : ... .. . ... : ... .. . ... ... : ... .. . ... ... : ... .. . ... ... : ... .. . ... ...
ROW 1E : ... .. . ... ... ... : G-3 00 8 ... ... ... : ... .. . ... : ... .. 4 ... : ... .. . ... ... : ... .. 1 ... ... : ... .. 1 ... ... : ... .. . ... ...
ROW 1F : ... .. . ... ... ... : ... .. 7 ... ... ... : ... .. . ... : ... .. . ... : ... .. . ... ... : ... .. . ... ... : ... .. . ... ... : ... .. . ... ...
ROW 20 : ... .. . ... ... ... : ... .. . ... ... ... : ... .. . ... : ... .. 3 ... : ... .. . ... ... : ... .. . ... ... : ... .. . ... ... : ... .. . ... ...
ROW 21 : ... .. . ... ... ... : ... .. 6 ... ... ... : ... .. . ... : ... .. 2 ... : ... .. . ... ... : ... .. . ... ... : ... .. . ... ... : ... .. . ... ...
ROW 22 : ... .. . ... ... ... : ... .. 5 ... ... ... : ... .. . ... : ... .. . ... : ... .. . ... ... : ... .. . ... ... : ... .. . ... ... : ... .. . ... ...
ROW 23 : ... .. . ... ... ... : ... .. 4 ... ... ... : ... .. . ... : ... .. 1 ... : ... .. . ... ... : ... .. . ... ... : ... .. . ... ... : ... .. . ... ...
ROW 24 : ... .. . ... ... ... : ... .. . ... ... ... : ... .. . ... : ... .. 0 ... : ... .. . ... ... : ... .. . ... ... : ... .. . ... ... : ... .. . ... ...
ROW 25 : ... .. . ... ... ... : ... .. . ... ... ... : ... .. . ... : ... .. . ... : ... .. . ... ... : ... .. . ... ... : ... .. . ... ... : ... .. . ... ...
ROW 26 : ... .. . ... ... ... : ... .. 3 ... ... ... : ... .. . ... : ... .. . ... : ... .. . ... ... : ... .. . ... ... : ... .. . ... ... : ... .. . ... ...
ROW 27 : ... .. . ... ... ... : ... .. . ... ... ... : ... .. . ... : ... .. . ... : ... .. . ... ... : ... .. . ... ... : ... .. . ... ... : ... .. . ... ...
ROW 28 : C-4 00 F P80 V01 ... : C-4 00 8 ... ... ... : ... .. . ... : 9-# 00 A V00 : ... .. . ... ... : ... .. 6 ... ... : ... .. 6 ... ... : D#2 01 8 ... ...
ROW 29 : ... .. E ... ... ... : ... .. 7 ... ... ... : ... .. . ... : ... .. 8 ... : ... .. . ... ... : ... .. 5 ... ... : ... .. 5 ... ... : ... .. 6 ... ...
ROW 2A : ... .. D ... ... ... : ... .. . ... ... ... : ... .. . ... : ... .. 4 ... : ... .. . ... ... : ... .. . ... ... : ... .. . ... ... : ... .. 4 ... ...
ROW 2B : ... .. A ... ... ... : ... .. 6 ... ... ... : ... .. . ... : ... .. 2 ... : ... .. . ... ... : ... .. 4 ... ... : ... .. 4 ... ... : ... .. . ... ...
ROW 2C : ... .. . ... ... ... : ... .. 5 ... ... ... : ... .. . ... : ... .. 1 ... : ... .. . ... ... : ... .. . ... ... : ... .. . ... ... : ... .. . ... ...
ROW 2D : ... .. . ... ... ... : ... .. 4 ... ... ... : ... .. . ... : ... .. 0 ... : ... .. . ... ... : ... .. . ... ... : ... .. . ... ... : ... .. 3 ... ...
ROW 2E : ... .. 2 ... ... ... : ... .. . ... ... ... : ... .. . ... : ... .. . ... : ... .. . ... ... : ... .. . ... ... : ... .. . ... ... : ... .. . ... ...
ROW 2F : ... .. . ... ... ... : ... .. . ... ... ... : ... .. . ... : ... .. . ... : ... .. . ... ... : ... .. 3 ... ... : ... .. 3 ... ... : ... .. . ... ...
ROW 30 : ... .. . ... ... ... : ... .. 3 ... ... ... : ... .. . ... : ... .. . ... : ... .. . ... ... : ... .. 2 ... ... : ... .. 2 ... ... : ... .. . ... ...
ROW 31 : ... .. 1 ... ... ... : ... .. . ... ... ... : ... .. . ... : ... .. . ... : ... .. . ... ... : ... .. . ... ... : ... .. . ... ... : ... .. . ... ...
ROW 32 : ... .. . ... ... ... : G-3 00 8 ... ... ... : ... .. . ... : ... .. 8 ... : ... .. . ... ... : ... .. 1 ... ... : ... .. 1 ... ... : ... .. . ... ...
ROW 33 : ... .. . ... ... ... : ... .. 7 ... ... ... : ... .. . ... : ... .. 6 ... : ... .. . ... ... : ... .. . ... ... : ... .. . ... ... : ... .. . ... ...
ROW 34 : ... .. 0 ... V00 ... : ... .. . ... ... ... : ... .. . ... : ... .. 3 ... : ... .. . ... ... : ... .. . ... ... : ... .. . ... ... : ... .. . ... ...
ROW 35 : ... .. . ... ... ... : ... .. 6 ... ... ... : ... .. . ... : ... .. 1 ... : ... .. . ... ... : ... .. . ... ... : ... .. . ... ... : ... .. . ... ...
ROW 36 : ... .. . ... ... ... : ... .. 5 ... ... ... : ... .. . ... : ... .. . ... : ... .. . ... ... : ... .. . ... ... : ... .. . ... ... : ... .. . ... ...
ROW 37 : ... .. . ... ... ... : ... .. 4 ... ... ... : ... .. . ... : ... .. 0 ... : ... .. . ... ... : ... .. . ... ... : ... .. . ... ... : ... .. . ... ...
ROW 38 : ... .. . ... ... ... : ... .. . ... ... ... : ... .. . ... : ... .. . ... : ... .. . ... ... : ... .. . ... ... : ... .. . ... ... : ... .. . ... ...
ROW 39 : ... .. . ... ... ... : ... .. . ... ... ... : ... .. . ... : ... .. . ... : ... .. . ... ... : ... .. . ... ... : ... .. . ... ... : ... .. . ... ...
ROW 3A : ... .. . ... ... ... : ... .. 3 ... ... ... : ... .. . ... : ... .. . ... : ... .. . ... ... : ... .. . ... ... : ... .. . ... ... : ... .. . ... ...
ROW 3B : ... .. . ... ... ... : ... .. . ... ... ... : ... .. . ... : ... .. . ... : ... .. . ... ... : ... .. . ... ... : ... .. . ... ... : ... .. . ... ...
ROW 3C : C-4 00 F P80 V01 ... : D#4 00 8 ... ... ... : G-3 00 . ... : ... .. F ... : ... .. . ... ... : ... .. 6 ... ... : ... .. 6 ... ... : G#2 01 7 ... ...
ROW 3D : ... .. E ... ... ... : ... .. 7 ... ... ... : ... .. . ... : ... .. C ... : ... .. . ... ... : ... .. 5 ... ... : ... .. 5 ... ... : ... .. 6 ... ...
ROW 3E : ... .. D ... ... ... : ... .. . ... ... ... : ... .. . ... : ... .. 6 ... : ... .. . ... ... : ... .. . ... ... : ... .. . ... ... : ... .. 3 ... ...
ROW 3F : ... .. A ... ... ... : ... .. 6 ... ... ... : ... .. . ... : ... .. 3 ... : ... .. . ... ... : ... .. 4 ... ... : ... .. 4 ... ... : ... .. . ... ...
ROW 40 : ... .. . ... ... ... : ... .. 5 ... ... ... : ... .. . ... : ... .. 2 ... : ... .. . ... ... : ... .. . ... ... : ... .. . ... ... : ... .. . ... ...
ROW 41 : ... .. . ... ... ... : ... .. 4 ... ... ... : ... .. . ... : ... .. 0 ... : ... .. . ... ... : ... .. . ... ... : ... .. . ... ... : ... .. . ... ...
ROW 42 : ... .. . ... ... ... : ... .. . ... ... ... : ... .. . ... : ... .. . ... : ... .. . ... ... : ... .. . ... ... : ... .. . ... ... : ... .. . ... ...
ROW 43 : ... .. . ... ... ... : ... .. . ... ... ... : ... .. . ... : ... .. . ... : ... .. . ... ... : ... .. 3 ... ... : ... .. 3 ... ... : ... .. . ... ...
ROW 44 : ... .. . ... ... ... : ... .. 3 ... ... ... : ... .. . ... : ... .. . ... : ... .. . ... ... : ... .. 2 ... ... : ... .. 2 ... ... : ... .. . ... ...
ROW 45 : ... .. . ... ... ... : ... .. . ... ... ... : ... .. . ... : ... .. . ... : ... .. . ... ... : ... .. . ... ... : ... .. . ... ... : ... .. . ... ...
ROW 46 : ... .. . P84 ... ... : G-3 00 8 ... ... ... : ... .. . ... : ... .. . ... : ... .. . ... ... : ... .. 1 ... ... : ... .. 1 ... ... : ... .. . ... ...
ROW 47 : ... .. . P86 ... ... : ... .. 7 ... ... ... : ... .. . ... : ... .. . ... : ... .. . ... ... : ... .. . ... ... : ... .. . ... ... : ... .. . ... ...
ROW 48 : ... .. . P85 ... ... : ... .. . ... ... ... : ... .. . ... : ... .. . ... : ... .. . ... ... : ... .. . ... ... : ... .. . ... ... : ... .. . ... ...
ROW 49 : ... .. . P82 ... ... : ... .. 6 ... ... ... : ... .. . ... : ... .. . ... : ... .. . ... ... : ... .. . ... ... : ... .. . ... ... : ... .. . ... ...
ROW 4A : ... .. . P7E ... ... : ... .. 5 ... ... ... : ... .. . ... : ... .. . ... : ... .. . ... ... : ... .. . ... ... : ... .. . ... ... : ... .. . ... ...
ROW 4B : ... .. . P7B ... ... : ... .. 4 ... ... ... : ... .. . ... : ... .. . ... : ... .. . ... ... : ... .. . ... ... : ... .. . ... ... : ... .. . ... ...
ROW 4C : B-3 00 A P86 ... ... : ... .. . ... ... ... : ... .. . ... : ... .. . ... : ... .. . ... ... : ... .. . ... ... : ... .. . ... ... : ... .. . ... ...
ROW 4D : C-4 00 A P7C ... ... : ... .. . ... ... ... : ... .. . ... : ... .. . ... : ... .. . ... ... : ... .. . ... ... : ... .. . ... ... : ... .. . ... ...
ROW 4E : ... .. . P80 ... ... : ... .. 3 ... ... ... : ... .. . ... : ... .. . ... : ... .. . ... ... : ... .. . ... ... : ... .. . ... ... : ... .. . ... ...
ROW 4F : ... .. . P83 ... ... : ... .. . ... ... ... : ... .. . ... : ... .. . ... : ... .. . ... ... : ... .. . ... ... : ... .. . ... ... : ... .. . ... ...
ROW 50 : D-4 00 F P80 ... ... : C-4 00 8 ... ... ... : ... .. . ... : D-# 00 F ... : ... .. . ... ... : ... .. 6 ... ... : ... .. 6 ... ... : C-3 01 7 ... ...
ROW 51 : ... .. E ... ... ... : ... .. 7 ... ... ... : ... .. . ... : ... .. C ... : ... .. . ... ... : ... .. 5 ... ... : ... .. 5 ... ... : ... .. 6 ... ...
ROW 52 : ... .. D ... ... ... : ... .. . ... ... ... : ... .. . ... : ... .. 6 ... : ... .. . ... ... : ... .. . ... ... : ... .. . ... ... : ... .. 3 ... ...
ROW 53 : ... .. A ... ... ... : ... .. 6 ... ... ... : ... .. . ... : ... .. 3 ... : ... .. . ... ... : ... .. 4 ... ... : ... .. 4 ... ... : ... .. . ... ...
ROW 54 : ... .. . ... ... ... : ... .. 5 ... ... ... : ... .. . ... : ... .. 2 ... : ... .. . ... ... : ... .. . ... ... : ... .. . ... ... : ... .. . ... ...
ROW 55 : ... .. . ... ... ... : ... .. 4 ... ... ... : ... .. . ... : ... .. 0 ... : ... .. . ... ... : ... .. . ... ... : ... .. . ... ... : ... .. . ... ...
ROW 56 : ... .. 2 ... ... ... : ... .. . ... ... ... : ... .. . ... : ... .. . ... : ... .. . ... ... : ... .. . ... ... : ... .. . ... ... : ... .. . ... ...
ROW 57 : ... .. . ... ... ... : ... .. . ... ... ... : ... .. . ... : ... .. . ... : ... .. . ... ... : ... .. 3 ... ... : ... .. 3 ... ... : ... .. . ... ...
ROW 58 : ... .. . ... ... ... : ... .. 3 ... ... ... : ... .. . ... : ... .. . ... : ... .. . ... ... : ... .. 2 ... ... : ... .. 2 ... ... : ... .. . ... ...
ROW 59 : ... .. 1 ... ... ... : ... .. . ... ... ... : ... .. . ... : ... .. . ... : ... .. . ... ... : ... .. . ... ... : ... .. . ... ... : ... .. . ... ...
ROW 5A : ... .. . ... ... ... : G-3 00 8 ... ... ... : ... .. . ... : ... .. . ... : ... .. . ... ... : ... .. 1 ... ... : ... .. 1 ... ... : ... .. . ... ...
ROW 5B : ... .. . ... ... ... : ... .. 7 ... ... ... : ... .. . ... : ... .. . ... : ... .. . ... ... : ... .. . ... ... : ... .. . ... ... : ... .. . ... ...
ROW 5C : ... .. 0 ... V00 ... : ... .. . ... ... ... : ... .. . ... : ... .. . ... : ... .. . ... ... : ... .. . ... ... : ... .. . ... ... : ... .. . ... ...
ROW 5D : ... .. . ... ... ... : ... .. 6 ... ... ... : ... .. . ... : ... .. . ... : ... .. . ... ... : ... .. . ... ... : ... .. . ... ... : ... .. . ... ...
ROW 5E : ... .. . ... ... ... : ... .. 5 ... ... ... : ... .. . ... : ... .. . ... : ... .. . ... ... : ... .. . ... ... : ... .. . ... ... : ... .. . ... ...
ROW 5F : ... .. . ... ... ... : ... .. 4 ... ... ... : ... .. . ... : ... .. . ... : ... .. . ... ... : ... .. . ... ... : ... .. . ... ... : ... .. . ... ...
ROW 60 : ... .. . ... ... ... : ... .. . ... ... ... : ... .. . ... : ... .. . ... : ... .. . ... ... : ... .. . ... ... : ... .. . ... ... : ... .. . ... ...
ROW 61 : ... .. . ... ... ... : ... .. . ... ... ... : ... .. . ... : ... .. . ... : ... .. . ... ... : ... .. . ... ... : ... .. . ... ... : ... .. . ... ...
ROW 62 : ... .. . ... ... ... : ... .. 3 ... ... ... : ... .. . ... : ... .. . ... : ... .. . ... ... : ... .. . ... ... : ... .. . ... ... : ... .. . ... ...
ROW 63 : ... .. . ... ... ... : ... .. . ... ... ... : ... .. . ... : ... .. . ... : ... .. . ... ... : ... .. . ... ... : ... .. . ... ... : ... .. . ... ...
ROW 64 : D-4 00 F P80 V01 ... : D#4 00 8 ... ... ... : G-2 00 . ... : ... .. D ... : ... .. . ... ... : A-2 01 6 ... ... : F#3 01 6 ... ... : D#3 01 6 ... ...
ROW 65 : ... .. E ... ... ... : ... .. 7 ... ... ... : ... .. . ... : ... .. B ... : ... .. . ... ... : ... .. 5 ... ... : ... .. 5 ... ... : ... .. 5 ... ...
ROW 66 : ... .. D ... ... ... : ... .. . ... ... ... : ... .. . ... : ... .. . ... : ... .. . ... ... : ... .. . ... ... : ... .. . ... ... : ... .. 3 ... ...
ROW 67 : ... .. A ... ... ... : ... .. 6 ... ... ... : ... .. . ... : ... .. A ... : ... .. . ... ... : ... .. 4 ... ... : ... .. 4 ... ... : ... .. . ... ...
ROW 68 : ... .. . ... ... ... : ... .. 5 ... ... ... : ... .. . ... : ... .. 8 ... : ... .. . ... ... : ... .. . ... ... : ... .. . ... ... : ... .. . ... ...
ROW 69 : ... .. . ... ... ... : ... .. 4 ... ... ... : ... .. . ... : ... .. 7 ... : ... .. . ... ... : ... .. . ... ... : ... .. . ... ... : ... .. . ... ...
ROW 6A : D#4 00 A P7F ... ... : ... .. . ... ... ... : ... .. . ... : ... .. 6 ... : ... .. . ... ... : ... .. . ... ... : ... .. . ... ... : ... .. . ... ...
ROW 6B : ... .. . P80 ... ... : ... .. . ... ... ... : ... .. . ... : ... .. . ... : ... .. . ... ... : ... .. 3 ... ... : ... .. 3 ... ... : ... .. . ... ...
ROW 6C : ... .. . ... ... ... : ... .. 3 ... ... ... : ... .. . ... : ... .. 5 ... : ... .. . ... ... : ... .. 2 ... ... : ... .. 2 ... ... : ... .. . ... ...
ROW 6D : ... .. . ... ... ... : ... .. . ... ... ... : ... .. . ... : ... .. . ... : ... .. . ... ... : ... .. . ... ... : ... .. . ... ... : ... .. . ... ...
ROW 6E : ... .. . ... ... ... : F#3 00 8 ... ... ... : ... .. . ... : ... .. 4 ... : ... .. . ... ... : ... .. 1 ... ... : ... .. 1 ... ... : ... .. . ... ...
ROW 6F : ... .. . ... ... ... : ... .. 7 ... ... ... : ... .. . ... : ... .. . ... : ... .. . ... ... : ... .. . ... ... : ... .. . ... ... : ... .. . ... ...
ROW 70 : ... .. . ... ... ... : ... .. . ... ... ... : ... .. . ... : ... .. 3 ... : ... .. . ... ... : ... .. . ... ... : ... .. . ... ... : ... .. . ... ...
ROW 71 : ... .. . ... ... ... : ... .. 6 ... ... ... : ... .. . ... : ... .. 2 ... : ... .. . ... ... : ... .. . ... ... : ... .. . ... ... : ... .. . ... ...
ROW 72 : ... .. . ... ... ... : ... .. 5 ... ... ... : ... .. . ... : ... .. . ... : ... .. . ... ... : ... .. . ... ... : ... .. . ... ... : ... .. . ... ...
ROW 73 : ... .. . ... ... ... : ... .. 4 ... ... ... : ... .. . ... : ... .. 1 ... : ... .. . ... ... : ... .. . ... ... : ... .. . ... ... : ... .. . ... ...
ROW 74 : ... .. . ... ... ... : ... .. . ... ... ... : ... .. . ... : ... .. 0 ... : ... .. . ... ... : ... .. . ... ... : ... .. . ... ... : ... .. . ... ...
ROW 75 : ... .. . ... ... ... : ... .. . ... ... ... : ... .. . ... : ... .. . ... : ... .. . ... ... : ... .. . ... ... : ... .. . ... ... : ... .. . ... ...
ROW 76 : ... .. . ... ... ... : ... .. 3 ... ... ... : ... .. . ... : ... .. . ... : ... .. . ... ... : ... .. . ... ... : ... .. . ... ... : ... .. . ... ...
ROW 77 : ... .. . ... ... ... : ... .. . ... ... ... : ... .. . ... : ... .. . ... : ... .. . ... ... : ... .. . ... ... : ... .. . ... ... : ... .. . ... ...
ROW 78 : ... .. . ... ... ... : C-4 00 8 ... ... ... : ... .. . ... : 9-# 00 A ... : ... .. . ... ... : ... .. 6 ... ... : ... .. 6 ... ... : C-3 01 6 ... ...
ROW 79 : ... .. . ... ... ... : ... .. 7 ... ... ... : ... .. . ... : ... .. 8 ... : ... .. . ... ... : ... .. 5 ... ... : ... .. 5 ... ... : ... .. 5 ... ...
ROW 7A : ... .. . ... ... ... : ... .. . ... ... ... : ... .. . ... : ... .. 4 ... : ... .. . ... ... : ... .. . ... ... : ... .. . ... ... : ... .. 3 ... ...
ROW 7B : ... .. . ... ... ... : ... .. 6 ... ... ... : ... .. . ... : ... .. 2 ... : ... .. . ... ... : ... .. 4 ... ... : ... .. 4 ... ... : ... .. . ... ...
ROW 7C : ... .. . ... ... ... : ... .. 5 ... ... ... : ... .. . ... : ... .. 1 ... : ... .. . ... ... : ... .. . ... ... : ... .. . ... ... : ... .. . ... ...
ROW 7D : ... .. . ... ... ... : ... .. 4 ... ... ... : ... .. . ... : ... .. 0 ... : ... .. . ... ... : ... .. . ... ... : ... .. . ... ... : ... .. . ... ...
ROW 7E : ... .. . ... ... ... : ... .. . ... ... ... : ... .. . ... : ... .. . ... : ... .. . ... ... : ... .. . ... ... : ... .. . ... ... : ... .. . ... ...
ROW 7F : ... .. . ... ... ... : ... .. . ... ... ... : ... .. . ... : ... .. . ... : ... .. . ... ... : ... .. 3 ... ... : ... .. 3 ... ... : ... .. . ... ...
ROW 80 : ... .. . ... ... ... : ... .. 3 ... ... ... : ... .. . ... : ... .. . ... : ... .. . ... ... : ... .. 2 ... ... : ... .. 2 ... ... : ... .. . ... ...
ROW 81 : ... .. . ... ... ... : ... .. . ... ... ... : ... .. . ... : ... .. . ... : ... .. . ... ... : ... .. . ... ... : ... .. . ... ... : ... .. . ... ...
ROW 82 : ... .. . ... ... ... : F#3 00 8 ... ... ... : ... .. . ... : ... .. 8 ... : ... .. . ... ... : ... .. 1 ... ... : ... .. 1 ... ... : ... .. . ... ...
ROW 83 : ... .. . ... ... ... : ... .. 7 ... ... ... : ... .. . ... : ... .. 6 ... : ... .. . ... ... : ... .. . ... ... : ... .. . ... ... : ... .. . ... ...
ROW 84 : ... .. . ... ... ... : ... .. . ... ... ... : ... .. . ... : ... .. 3 ... : ... .. . ... ... : ... .. . ... ... : ... .. . ... ... : ... .. . ... ...
ROW 85 : ... .. . ... ... ... : ... .. 6 ... ... ... : ... .. . ... : ... .. 1 ... : ... .. . ... ... : ... .. . ... ... : ... .. . ... ... : ... .. . ... ...
ROW 86 : ... .. . ... ... ... : ... .. 5 ... ... ... : ... .. . ... : ... .. . ... : ... .. . ... ... : ... .. . ... ... : ... .. . ... ... : ... .. . ... ...
ROW 87 : ... .. . P82 ... ... : ... .. 4 ... ... ... : ... .. . ... : ... .. 0 ... : ... .. . ... ... : ... .. . ... ... : ... .. . ... ... : ... .. 2 ... ...
ROW 88 : ... .. . P83 ... ... : ... .. . ... ... ... : ... .. . ... : ... .. . ... : ... .. . ... ... : ... .. . ... ... : ... .. . ... ... : ... .. . ... ...
ROW 89 : ... .. . ... ... ... : ... .. . ... ... ... : ... .. . ... : ... .. . ... : ... .. . ... ... : ... .. . ... ... : ... .. . ... ... : ... .. . ... ...
ROW 8A : ... .. . P81 ... ... : ... .. 3 ... ... ... : ... .. . ... : ... .. . ... : ... .. . ... ... : ... .. . ... ... : ... .. . ... ... : ... .. . ... ...
ROW 8B : ... .. . P7F ... ... : ... .. . ... ... ... : ... .. . ... : ... .. . ... : ... .. . ... ... : ... .. . ... ... : ... .. . ... ... : ... .. . ... ...
ROW 8C : ... .. . P7D ... ... : D-4 00 8 ... ... ... : G-3 00 . ... : ... .. F ... : ... .. . ... ... : C-3 01 6 ... ... : ... .. 6 ... ... : A-2 01 5 ... ...
ROW 8D : ... .. . ... ... ... : ... .. 7 ... ... ... : ... .. . ... : ... .. C ... : ... .. . ... ... : ... .. 5 ... ... : ... .. 5 ... ... : ... .. 4 ... ...
ROW 8E : ... .. . P7E ... ... : ... .. . ... ... ... : ... .. . ... : ... .. 6 ... : ... .. . ... ... : ... .. . ... ... : ... .. . ... ... : ... .. 2 ... ...
ROW 8F : ... .. . P80 ... ... : ... .. 6 ... ... ... : ... .. . ... : ... .. 3 ... : ... .. . ... ... : ... .. 4 ... ... : ... .. 4 ... ... : ... .. . ... ...
ROW 90 : ... .. . P82 ... ... : ... .. 5 ... ... ... : ... .. . ... : ... .. 2 ... : ... .. . ... ... : ... .. . ... ... : ... .. . ... ... : ... .. . ... ...
ROW 91 : ... .. . P83 ... ... : ... .. 4 ... ... ... : ... .. . ... : ... .. 0 ... : ... .. . ... ... : ... .. . ... ... : ... .. . ... ... : ... .. . ... ...
ROW 92 : ... .. . ... ... ... : ... .. . ... ... ... : ... .. . ... : ... .. . ... : ... .. . ... ... : ... .. . ... ... : ... .. . ... ... : ... .. . ... ...
ROW 93 : ... .. . P81 ... ... : ... .. . ... ... ... : ... .. . ... : ... .. . ... : ... .. . ... ... : ... .. 3 ... ... : ... .. 3 ... ... : ... .. . ... ...
ROW 94 : ... .. . P80 ... ... : ... .. 3 ... ... ... : ... .. . ... : ... .. . ... : ... .. . ... ... : ... .. 2 ... ... : ... .. 2 ... ... : ... .. . ... ...
ROW 95 : ... .. . P7D ... ... : ... .. . ... ... ... : ... .. . ... : ... .. . ... : ... .. . ... ... : ... .. . ... ... : ... .. . ... ... : ... .. . ... ...
ROW 96 : ... .. . ... ... ... : F#3 00 8 ... ... ... : ... .. . ... : ... .. . ... : ... .. . ... ... : ... .. 1 ... ... : ... .. 1 ... ... : ... .. . ... ...
ROW 97 : ... .. . P7E ... ... : ... .. 7 ... ... ... : ... .. . ... : ... .. . ... : ... .. . ... ... : ... .. . ... ... : ... .. . ... ... : ... .. . ... ...
ROW 98 : ... .. . P80 ... ... : ... .. . ... ... ... : ... .. . ... : ... .. . ... : ... .. . ... ... : ... .. . ... ... : ... .. . ... ... : ... .. . ... ...
ROW 99 : ... .. . P81 ... ... : ... .. 6 ... ... ... : ... .. . ... : ... .. . ... : ... .. . ... ... : ... .. . ... ... : ... .. . ... ... : ... .. . ... ...
ROW 9A : ... .. . P83 ... ... : ... .. 5 ... ... ... : ... .. . ... : ... .. . ... : ... .. . ... ... : ... .. . ... ... : ... .. . ... ... : ... .. . ... ...
ROW 9B : ... .. . ... ... ... : ... .. 4 ... ... ... : ... .. . ... : ... .. . ... : ... .. . ... ... : ... .. . ... ... : ... .. . ... ... : ... .. . ... ...
ROW 9C : ... .. 2 P81 ... ... : ... .. . ... ... ... : ... .. . ... : ... .. . ... : ... .. . ... ... : ... .. . ... ... : ... .. . ... ... : ... .. . ... ...
ROW 9D : ... .. . P80 ... ... : ... .. . ... ... ... : ... .. . ... : ... .. . ... : ... .. . ... ... : ... .. . ... ... : ... .. . ... ... : ... .. . ... ...
ROW 9E : ... .. . P7E ... ... : ... .. 3 ... ... ... : ... .. . ... : ... .. . ... : ... .. . ... ... : ... .. . ... ... : ... .. . ... ... : ... .. . ... ...
ROW 9F : ... .. 1 P7D ... ... : ... .. . ... ... ... : --- .. . ... : ... .. . ... : ... .. . ... ... : ... .. . ... ... : ... .. . ... ... : ... .. . ... ...
ROW A0 : D-4 00 F P80 ... ... : C-4 00 8 ... ... ... : G-3 00 . ... : D-# 00 D ... : ... .. . ... ... : ... .. 6 ... ... : ... .. 6 ... ... : C-3 01 5 ... ...
ROW A1 : ... .. E ... ... ... : ... .. 7 ... ... ... : ... .. . ... : ... .. B ... : ... .. . ... ... : ... .. 5 ... ... : ... .. 5 ... ... : ... .. 4 ... ...
ROW A2 : ... .. D ... ... ... : ... .. . ... ... ... : ... .. . ... : ... .. . ... : ... .. . ... ... : ... .. . ... ... : ... .. . ... ... : ... .. 2 ... ...
ROW A3 : ... .. A ... ... ... : ... .. 6 ... ... ... : ... .. . ... : ... .. A ... : ... .. . ... ... : ... .. 4 ... ... : ... .. 4 ... ... : ... .. . ... ...
ROW A4 : ... .. . ... ... ... : ... .. 5 ... ... ... : ... .. . ... : ... .. 8 ... : ... .. . ... ... : ... .. . ... ... : ... .. . ... ... : ... .. . ... ...
ROW A5 : ... .. . ... ... ... : ... .. 4 ... ... ... : ... .. . ... : ... .. 7 ... : ... .. . ... ... : ... .. . ... ... : ... .. . ... ... : ... .. . ... ...
ROW A6 : ... .. . ... ... ... : ... .. . ... ... ... : ... .. . ... : ... .. 6 ... : ... .. . ... ... : ... .. . ... ... : ... .. . ... ... : ... .. . ... ...
ROW A7 : ... .. . ... ... ... : ... .. . ... ... ... : ... .. . ... : ... .. . ... : ... .. . ... ... : ... .. 3 ... ... : ... .. 3 ... ... : ... .. . ... ...
ROW A8 : ... .. . ... ... ... : ... .. 3 ... ... ... : ... .. . ... : ... .. 5 ... : ... .. . ... ... : ... .. 2 ... ... : ... .. 2 ... ... : ... .. . ... ...
ROW A9 : ... .. . ... ... ... : ... .. . ... ... ... : --- .. . ... : ... .. . ... : ... .. . ... ... : ... .. . ... ... : ... .. . ... ... : ... .. . ... ...
ROW AA : C-4 00 F ... ... ... : F#3 00 8 ... ... ... : G#3 00 . ... : ... .. 4 ... : ... .. . ... ... : ... .. 1 ... ... : ... .. 1 ... ... : ... .. . ... ...
ROW AB : ... .. E ... ... ... : ... .. 7 ... ... ... : ... .. . ... : ... .. . ... : ... .. . ... ... : ... .. . ... ... : ... .. . ... ... : ... .. . ... ...
ROW AC : ... .. D ... ... ... : ... .. . ... ... ... : ... .. . ... : ... .. 3 ... : ... .. . ... ... : ... .. . ... ... : ... .. . ... ... : ... .. . ... ...
ROW AD : ... .. A ... ... ... : ... .. 6 ... ... ... : ... .. . ... : ... .. 2 ... : ... .. . ... ... : ... .. . ... ... : ... .. . ... ... : ... .. . ... ...
ROW AE : ... .. . ... ... ... : ... .. 5 ... ... ... : ... .. . ... : ... .. . ... : ... .. . ... ... : ... .. . ... ... : ... .. . ... ... : ... .. . ... ...
ROW AF : ... .. . ... ... ... : ... .. 4 ... ... ... : ... .. . ... : ... .. 1 ... : ... .. . ... ... : ... .. . ... ... : ... .. . ... ... : ... .. . ... ...
ROW B0 : ... .. 2 ... ... ... : ... .. . ... ... ... : ... .. . ... : ... .. 0 ... : ... .. . ... ... : ... .. . ... ... : ... .. . ... ... : ... .. . ... ...
ROW B1 : ... .. . ... ... ... : ... .. . ... ... ... : ... .. . ... : ... .. . ... : ... .. . ... ... : ... .. . ... ... : ... .. . ... ... : ... .. . ... ...
ROW B2 : ... .. . ... ... ... : ... .. 3 ... ... ... : ... .. . ... : ... .. . ... : ... .. . ... ... : ... .. . ... ... : ... .. . ... ... : ... .. . ... ...
ROW B3 : ... .. 1 ... ... ... : ... .. . ... ... ... : --- .. . ... : ... .. . ... : ... .. . ... ... : ... .. . ... ... : ... .. . ... ... : ... .. . ... ...
ROW B4 : D-4 00 F ... ... ... : B-2 00 A ... ... ... : G-3 00 . ... : ... .. D V01 : ... .. . ... ... : ... .. . ... ... : ... .. . ... ... : D-3 01 A ... ...
ROW B5 : ... .. E ... ... ... : ... .. 8 ... ... ... : ... .. . ... : ... .. B ... : ... .. . ... ... : ... .. . ... ... : ... .. . ... ... : ... .. 8 ... ...
ROW B6 : ... .. D ... ... ... : ... .. . ... ... ... : ... .. . ... : ... .. . ... : ... .. . ... ... : ... .. . ... ... : ... .. . ... ... : ... .. 5 ... ...
ROW B7 : ... .. A ... ... ... : ... .. . ... ... ... : ... .. . ... : ... .. A ... : ... .. . ... ... : ... .. . ... ... : ... .. . ... ... : ... .. . ... ...
ROW B8 : ... .. . ... ... ... : ... .. 6 ... ... ... : ... .. . ... : ... .. 8 ... : ... .. . ... ... : ... .. . ... ... : ... .. . ... ... : ... .. . ... ...
ROW B9 : ... .. . ... ... ... : ... .. 5 ... ... ... : ... .. . ... : ... .. 7 ... : ... .. . ... ... : ... .. . ... ... : ... .. . ... ... : ... .. . ... ...
ROW BA : ... .. . ... ... ... : ... .. 4 ... ... ... : ... .. . ... : ... .. 6 ... : ... .. . ... ... : ... .. . ... ... : ... .. . ... ... : ... .. . ... ...
ROW BB : ... .. . ... ... ... : ... .. . ... ... ... : ... .. . ... : ... .. . ... : ... .. . ... ... : ... .. . ... ... : ... .. . ... ... : ... .. . ... ...
ROW BC : ... .. . ... ... ... : ... .. . ... ... ... : ... .. . ... : ... .. 5 ... : ... .. . ... ... : ... .. . ... ... : ... .. . ... ... : ... .. . ... ...
ROW BD : ... .. . ... ... ... : ... .. . ... ... ... : ... .. . ... : ... .. . ... : ... .. . ... ... : ... .. . ... ... : ... .. . ... ... : ... .. . ... ...
ROW BE : ... .. . ... ... ... : D-3 00 A ... ... ... : ... .. . ... : ... .. 4 ... : ... .. . ... ... : ... .. . ... ... : ... .. . ... ... : ... .. . ... ...
ROW BF : ... .. . ... ... ... : ... .. 8 ... ... ... : ... .. . ... : ... .. . ... : ... .. . ... ... : ... .. . ... ... : ... .. . ... ... : ... .. . ... ...
ROW C0 : ... .. . ... ... ... : ... .. . ... ... ... : ... .. . ... : ... .. 3 ... : ... .. . ... ... : ... .. . ... ... : ... .. . ... ... : ... .. . ... ...
ROW C1 : ... .. . ... ... ... : ... .. . ... ... ... : ... .. . ... : ... .. 2 ... : ... .. . ... ... : ... .. . ... ... : ... .. . ... ... : ... .. . ... ...
ROW C2 : ... .. . ... ... ... : ... .. 6 ... ... ... : ... .. . ... : ... .. . ... : ... .. . ... ... : ... .. . ... ... : ... .. . ... ... : ... .. . ... ...
ROW C3 : ... .. . ... ... ... : ... .. 5 ... ... ... : ... .. . ... : ... .. 1 ... : ... .. . ... ... : ... .. . ... ... : ... .. . ... ... : ... .. . ... ...
ROW C4 : ... .. . ... ... ... : ... .. 4 ... ... ... : ... .. . ... : ... .. 0 ... : ... .. . ... ... : ... .. . ... ... : ... .. . ... ... : ... .. . ... ...
ROW C5 : ... .. . ... ... ... : ... .. . ... ... ... : ... .. . ... : ... .. . ... : ... .. . ... ... : ... .. . ... ... : ... .. . ... ... : ... .. . ... ...
ROW C6 : ... .. . ... ... ... : ... .. . ... ... ... : --- .. . ... : ... .. . ... : ... .. . ... ... : ... .. . ... ... : ... .. . ... ... : ... .. . ... ...
ROW C7 : ... .. . ... ... ... : ... .. . ... ... ... : ... .. . ... : ... .. . ... : ... .. . ... ... : ... .. . ... ... : ... .. . ... ... : ... .. . ... ...
ROW C8 : ... .. . ... ... ... : C-3 00 A ... ... ... : G-3 00 . ... : 9-# 00 A V00 : ... .. . ... ... : ... .. . ... ... : ... .. . ... ... : ... .. . ... ...
ROW C9 : ... .. . ... ... ... : ... .. 8 ... ... ... : ... .. . ... : ... .. 8 ... : ... .. . ... ... : ... .. . ... ... : ... .. . ... ... : ... .. . ... ...
ROW CA : ... .. . ... ... ... : ... .. . ... ... ... : ... .. . ... : ... .. 4 ... : ... .. . ... ... : ... .. . ... ... : ... .. . ... ... : ... .. . ... ...
ROW CB : ... .. . ... ... ... : ... .. . ... ... ... : ... .. . ... : ... .. 2 ... : ... .. . ... ... : ... .. . ... ... : ... .. . ... ... : ... .. . ... ...
ROW CC : ... .. . ... ... ... : ... .. 6 ... ... ... : ... .. . ... : ... .. 1 ... : ... .. . ... ... : ... .. . ... ... : ... .. . ... ... : ... .. . ... ...
ROW CD : ... .. . ... ... ... : ... .. 5 ... ... ... : ... .. . ... : ... .. 0 ... : ... .. . ... ... : ... .. . ... ... : ... .. . ... ... : ... .. . ... ...
ROW CE : ... .. . ... ... ... : ... .. 4 ... ... ... : ... .. . ... : ... .. . ... : ... .. . ... ... : ... .. . ... ... : ... .. . ... ... : ... .. . ... ...
ROW CF : ... .. . ... ... ... : ... .. . ... ... ... : ... .. . ... : ... .. . ... : ... .. . ... ... : ... .. . ... ... : ... .. . ... ... : ... .. . ... ...
ROW D0 : ... .. . ... ... ... : ... .. . ... ... ... : ... .. . ... : ... .. . ... : ... .. . ... ... : ... .. . ... ... : ... .. . ... ... : ... .. . ... ...
ROW D1 : ... .. . ... ... ... : ... .. . ... ... ... : ... .. . ... : ... .. . ... : ... .. . ... ... : ... .. . ... ... : ... .. . ... ... : ... .. . ... ...
ROW D2 : ... .. 8 ... ... ... : D-3 00 A ... ... ... : ... .. . ... : ... .. 8 ... : ... .. . ... ... : ... .. . ... ... : ... .. . ... ... : ... .. . ... ...
ROW D3 : ... .. . ... ... ... : ... .. 8 ... ... ... : ... .. . ... : ... .. 6 ... : ... .. . ... ... : ... .. . ... ... : ... .. . ... ... : ... .. 2 ... ...
ROW D4 : ... .. . ... ... ... : ... .. . ... ... ... : ... .. . ... : ... .. 3 ... : ... .. . ... ... : ... .. . ... ... : ... .. . ... ... : ... .. . ... ...
ROW D5 : ... .. . ... ... ... : ... .. . ... ... ... : ... .. . ... : ... .. 1 ... : ... .. . ... ... : ... .. . ... ... : ... .. . ... ... : ... .. 1 ... ...
ROW D6 : ... .. . ... ... ... : ... .. 6 ... ... ... : ... .. . ... : ... .. . ... : ... .. . ... ... : ... .. . ... ... : ... .. . ... ... : ... .. . ... ...
ROW D7 : ... .. 7 ... ... ... : ... .. 5 ... ... ... : ... .. . ... : ... .. 0 ... : ... .. . ... ... : ... .. . ... ... : ... .. . ... ... : ... .. . ... ...
ROW D8 : ... .. . ... ... ... : ... .. 4 ... ... ... : ... .. . ... : ... .. . ... : ... .. . ... ... : ... .. . ... ... : ... .. . ... ... : ... .. . ... ...
ROW D9 : ... .. . ... ... ... : ... .. . ... ... ... : ... .. . ... : ... .. . ... : ... .. . ... ... : ... .. . ... ... : ... .. . ... ... : ... .. . ... ...
ROW DA : ... .. . ... ... ... : ... .. . ... ... ... : --- .. . ... : ... .. . ... : ... .. . ... ... : ... .. . ... ... : ... .. . ... ... : ... .. . ... ...
ROW DB : ... .. . ... ... ... : ... .. . ... ... ... : ... .. . ... : ... .. . ... : ... .. . ... ... : ... .. . ... ... : ... .. . ... ... : ... .. . ... ...
ROW DC : ... .. 6 ... ... ... : B-2 00 A ... ... ... : G-3 00 . ... : ... .. F ... : ... .. . ... ... : D-3 01 9 ... ... : G-2 01 9 ... ... : B-3 01 F ... ...
ROW DD : ... .. . ... ... ... : ... .. 8 ... ... ... : ... .. . ... : ... .. C ... : ... .. . ... ... : ... .. 8 ... ... : ... .. 8 ... ... : ... .. D ... ...
ROW DE : ... .. . ... ... ... : ... .. . ... ... ... : ... .. . ... : ... .. 6 ... : ... .. . ... ... : ... .. . ... ... : ... .. . ... ... : ... .. 8 ... ...
ROW DF : ... .. . ... ... ... : ... .. . ... ... ... : ... .. . ... : ... .. 3 ... : ... .. . ... ... : ... .. . ... ... : ... .. . ... ... : ... .. . ... ...
ROW E0 : ... .. . ... ... ... : ... .. 6 ... ... ... : ... .. . ... : ... .. 2 ... : ... .. . ... ... : ... .. 7 ... ... : ... .. 7 ... ... : ... .. . ... ...
ROW E1 : ... .. 5 P83 ... ... : ... .. 5 ... ... ... : ... .. . ... : ... .. 0 ... : ... .. . ... ... : ... .. . ... ... : ... .. . ... ... : ... .. . ... ...
ROW E2 : D#4 00 5 P7C ... ... : ... .. 4 ... ... ... : ... .. . ... : ... .. . ... : ... .. . ... ... : ... .. . ... ... : ... .. . ... ... : ... .. . ... ...
ROW E3 : ... .. . ... ... ... : ... .. . ... ... ... : ... .. . ... : ... .. . ... : ... .. . ... ... : ... .. 6 ... ... : ... .. 6 ... ... : ... .. . ... ...
ROW E4 : D-4 00 5 P84 ... ... : ... .. . ... ... ... : ... .. . ... : ... .. . ... : ... .. . ... ... : ... .. . ... ... : ... .. . ... ... : ... .. . ... ...
ROW E5 : ... .. . P80 ... ... : ... .. . ... ... ... : ... .. . ... : ... .. . ... : ... .. . ... ... : ... .. . ... ... : ... .. . ... ... : ... .. . ... ...
ROW E6 : ... .. 6 P7E ... ... : D-3 00 A ... ... ... : ... .. . ... : ... .. . ... : ... .. . ... ... : ... .. . ... ... : ... .. . ... ... : ... .. . ... ...
ROW E7 : ... .. . P7B ... ... : ... .. 8 ... ... ... : ... .. . ... : ... .. . ... : ... .. . ... ... : ... .. 5 ... ... : ... .. 5 ... ... : ... .. 4 ... ...
ROW E8 : C#4 00 6 P86 ... ... : ... .. . ... ... ... : ... .. . ... : ... .. . ... : ... .. . ... ... : ... .. . ... ... : ... .. . ... ... : ... .. . ... ...
ROW E9 : D-4 00 6 P7B ... ... : ... .. . ... ... ... : ... .. . ... : ... .. . ... : ... .. . ... ... : ... .. 4 ... ... : ... .. 4 ... ... : ... .. 1 ... ...
ROW EA : ... .. . P7E ... ... : ... .. 6 ... ... ... : ... .. . ... : ... .. . ... : ... .. . ... ... : ... .. 3 ... ... : ... .. 3 ... ... : ... .. . ... ...
ROW EB : ... .. . P81 ... ... : ... .. 5 ... ... ... : ... .. . ... : ... .. . ... : ... .. . ... ... : ... .. . ... ... : ... .. . ... ... : ... .. . ... ...
ROW EC : ... .. . P84 ... ... : ... .. 4 ... ... ... : ... .. . ... : ... .. . ... : ... .. . ... ... : ... .. . ... ... : ... .. . ... ... : ... .. . ... ...
ROW ED : D#4 00 6 P7C ... ... : ... .. . ... ... ... : ... .. . ... : ... .. . ... : ... .. . ... ... : ... .. . ... ... : ... .. . ... ... : ... .. . ... ...
ROW EE : ... .. . ... ... ... : ... .. . ... ... ... : --- .. . ... : ... .. . ... : ... .. . ... ... : ... .. . ... ... : ... .. . ... ... : ... .. . ... ...
ROW EF : D-4 00 6 P83 ... ... : ... .. . ... ... ... : ... .. . ... : ... .. . ... : ... .. . ... ... : ... .. . ... ... : ... .. . ... ... : ... .. . ... ...
ROW F0 : ... .. . P80 ... ... : C-3 00 A ... ... ... : G-3 00 . ... : D-# 00 8 ... : ... .. . ... ... : C-3 01 9 ... ... : F-2 01 9 ... ... : G#3 01 F ... ...
ROW F1 : ... .. . P7D ... ... : ... .. 8 ... ... ... : ... .. . ... : ... .. 7 ... : ... .. . ... ... : ... .. 8 ... ... : ... .. 8 ... ... : ... .. D ... ...
ROW F2 : C#4 00 6 P86 ... ... : ... .. . ... ... ... : ... .. . ... : ... .. . ... : ... .. . ... ... : ... .. . ... ... : ... .. . ... ... : ... .. 8 ... ...
ROW F3 : ... .. . ... ... ... : ... .. . ... ... ... : ... .. . ... : ... .. 6 ... : ... .. . ... ... : ... .. . ... ... : ... .. . ... ... : ... .. . ... ...
ROW F4 : D-4 00 6 P7C ... ... : ... .. 6 ... ... ... : ... .. . ... : ... .. 5 ... : ... .. . ... ... : ... .. 7 ... ... : ... .. 7 ... ... : ... .. . ... ...
ROW F5 : ... .. 7 P80 ... ... : ... .. 5 ... ... ... : ... .. . ... : ... .. 4 ... : ... .. . ... ... : ... .. . ... ... : ... .. . ... ... : ... .. . ... ...
ROW F6 : ... .. . P82 ... ... : ... .. 4 ... ... ... : ... .. . ... : ... .. . ... : ... .. . ... ... : ... .. . ... ... : ... .. . ... ... : ... .. . ... ...
ROW F7 : ... .. . P85 ... ... : ... .. . ... ... ... : ... .. . ... : ... .. . ... : ... .. . ... ... : ... .. 6 ... ... : ... .. 6 ... ... : ... .. . ... ...
ROW F8 : D#4 00 7 P7C ... ... : ... .. . ... ... ... : ... .. . ... : ... .. 3 ... : ... .. . ... ... : ... .. . ... ... : ... .. . ... ... : ... .. . ... ...
ROW F9 : D-4 00 7 P85 ... ... : ... .. . ... ... ... : ... .. . ... : ... .. . ... : ... .. . ... ... : ... .. . ... ... : ... .. . ... ... : ... .. . ... ...
ROW FA : ... .. . P82 ... ... : D-3 00 A ... ... ... : ... .. . ... : ... .. 2 ... : ... .. . ... ... : ... .. . ... ... : ... .. . ... ... : ... .. . ... ...
ROW FB : ... .. . P7F ... ... : ... .. 8 ... ... ... : ... .. . ... : ... .. . ... : ... .. . ... ... : ... .. 5 ... ... : ... .. 5 ... ... : ... .. 4 ... ...
ROW FC : ... .. . P7C ... ... : ... .. . ... ... ... : ... .. . ... : ... .. . ... : ... .. . ... ... : ... .. . ... ... : ... .. . ... ... : ... .. . ... ...
ROW FD : C#4 00 7 P86 ... ... : ... .. . ... ... ... : ... .. . ... : ... .. 1 ... : ... .. . ... ... : ... .. 4 ... ... : ... .. 4 ... ... : ... .. 1 ... ...
ROW FE : ... .. . ... ... ... : ... .. 6 ... ... ... : ... .. . ... : ... .. . ... : ... .. . ... ... : ... .. 3 ... ... : ... .. 3 ... ... : ... .. . ... ...
ROW FF : D-4 00 7 P7D ... ... : ... .. 5 ... ... ... : ... .. . ... : ... .. . ... : ... .. . ... ... : ... .. . ... ... : ... .. . ... ... : ... .. . ... ...

PATTERN 0B
ROW 00 : ... .. . P80 ... ... : ... .. 4 ... ... ... : ... .. . ... : ... .. 0 ... : ... .. . ... ... : ... .. . ... ... : ... .. . ... ... : ... .. . ... ...
ROW 01 : ... .. . P83 ... ... : ... .. . ... ... ... : ... .. . ... : ... .. . ... : ... .. . ... ... : ... .. . ... ... : ... .. . ... ... : ... .. . ... ...
ROW 02 : D#4 00 7 P7C ... ... : ... .. . ... ... ... : --- .. . ... : ... .. . ... : ... .. . ... ... : ... .. . ... ... : ... .. . ... ... : ... .. . ... ...
ROW 03 : ... .. . ... ... ... : ... .. . ... ... ... : ... .. . ... : ... .. . ... : ... .. . ... ... : ... .. . ... ... : ... .. . ... ... : ... .. . ... ...
ROW 04 : D-4 00 8 P84 ... ... : B-2 00 A ... ... ... : G-3 00 . ... : ... .. D ... : ... .. . ... ... : D#3 01 9 ... ... : G#2 01 9 ... ... : C-4 01 F ... ...
ROW 05 : ... .. . P80 ... ... : ... .. 8 ... ... ... : ... .. . ... : ... .. B ... : ... .. . ... ... : ... .. 8 ... ... : ... .. 8 ... ... : ... .. D ... ...
ROW 06 : ... .. . P7E ... ... : ... .. . ... ... ... : ... .. . ... : ... .. . ... : ... .. . ... ... : ... .. . ... ... : ... .. . ... ... : ... .. 8 ... ...
ROW 07 : ... .. . P7B ... ... : ... .. . ... ... ... : ... .. . ... : ... .. A ... : ... .. . ... ... : ... .. . ... ... : ... .. . ... ... : ... .. . ... ...
ROW 08 : C#4 00 8 P86 ... ... : ... .. 6 ... ... ... : ... .. . ... : ... .. 8 ... : ... .. . ... ... : ... .. 7 ... ... : ... .. 7 ... ... : ... .. . ... ...
ROW 09 : D-4 00 8 P7B ... ... : ... .. 5 ... ... ... : ... .. . ... : ... .. 7 ... : ... .. . ... ... : ... .. . ... ... : ... .. . ... ... : ... .. . ... ...
ROW 0A : ... .. . P7E ... ... : ... .. 4 ... ... ... : ... .. . ... : ... .. 6 ... : ... .. . ... ... : ... .. . ... ... : ... .. . ... ... : ... .. . ... ...
ROW 0B : ... .. . P81 ... ... : ... .. . ... ... ... : ... .. . ... : ... .. . ... : ... .. . ... ... : ... .. 6 ... ... : ... .. 6 ... ... : ... .. . ... ...
ROW 0C : ... .. . P84 ... ... : ... .. . ... ... ... : ... .. . ... : ... .. 5 ... : ... .. . ... ... : ... .. . ... ... : ... .. . ... ... : ... .. . ... ...
ROW 0D : D#4 00 8 P7C ... ... : ... .. . ... ... ... : ... .. . ... : ... .. . ... : ... .. . ... ... : ... .. . ... ... : ... .. . ... ... : ... .. . ... ...
ROW 0E : ... .. . ... ... ... : D-3 00 A ... ... ... : ... .. . ... : ... .. 4 ... : ... .. . ... ... : ... .. . ... ... : ... .. . ... ... : ... .. . ... ...
ROW 0F : D-4 00 8 P83 ... ... : ... .. 8 ... ... ... : ... .. . ... : ... .. . ... : ... .. . ... ... : ... .. 5 ... ... : ... .. 5 ... ... : ... .. 4 ... ...
ROW 10 : ... .. . P80 ... ... : ... .. . ... ... ... : ... .. . ... : ... .. 3 ... : ... .. . ... ... : ... .. . ... ... : ... .. . ... ... : ... .. . ... ...
ROW 11 : ... .. . P7D ... ... : ... .. . ... ... ... : ... .. . ... : ... .. 2 ... : ... .. . ... ... : ... .. 4 ... ... : ... .. 4 ... ... : ... .. 1 ... ...
ROW 12 : C#4 00 8 P86 ... ... : ... .. 6 ... ... ... : ... .. . ... : ... .. . ... : ... .. . ... ... : ... .. 3 ... ... : ... .. 3 ... ... : ... .. . ... ...
ROW 13 : ... .. . ... ... ... : ... .. 5 ... ... ... : ... .. . ... : ... .. 1 ... : ... .. . ... ... : ... .. . ... ... : ... .. . ... ... : ... .. . ... ...
ROW 14 : D-4 00 8 P7C ... ... : ... .. 4 ... ... ... : ... .. . ... : ... .. 0 ... : ... .. . ... ... : ... .. . ... ... : ... .. . ... ... : ... .. . ... ...
ROW 15 : ... .. . P80 ... ... : ... .. . ... ... ... : ... .. . ... : ... .. . ... : ... .. . ... ... : ... .. . ... ... : ... .. . ... ... : ... .. . ... ...
ROW 16 : ... .. . P82 ... ... : ... .. . ... ... ... : --- .. . ... : ... .. . ... : ... .. . ... ... : ... .. . ... ... : ... .. . ... ... : ... .. . ... ...
ROW 17 : ... .. . P85 ... ... : ... .. . ... ... ... : ... .. . ... : ... .. . ... : ... .. . ... ... : ... .. . ... ... : ... .. . ... ... : ... .. . ... ...
ROW 18 : D#4 00 9 P7C ... ... : C-3 00 A ... ... ... : G-3 00 . ... : 9-# 00 A ... : ... .. . ... ... : C-3 01 9 ... ... : F-2 01 9 ... ... : G#3 01 F ... ...
ROW 19 : D-4 00 9 P85 ... ... : ... .. 8 ... ... ... : ... .. . ... : ... .. 8 ... : ... .. . ... ... : ... .. 8 ... ... : ... .. 8 ... ... : ... .. D ... ...
ROW 1A : ... .. . P82 ... ... : ... .. . ... ... ... : ... .. . ... : ... .. 4 ... : ... .. . ... ... : ... .. . ... ... : ... .. . ... ... : ... .. 8 ... ...
ROW 1B : ... .. . P7F ... ... : ... .. . ... ... ... : ... .. . ... : ... .. 2 ... : ... .. . ... ... : ... .. . ... ... : ... .. . ... ... : ... .. . ... ...
ROW 1C : ... .. . P7C ... ... : ... .. 6 ... ... ... : ... .. . ... : ... .. 1 ... : ... .. . ... ... : ... .. 7 ... ... : ... .. 7 ... ... : ... .. . ... ...
ROW 1D : C#4 00 9 P86 ... ... : ... .. 5 ... ... ... : ... .. . ... : ... .. 0 ... : ... .. . ... ... : ... .. . ... ... : ... .. . ... ... : ... .. . ... ...
ROW 1E : ... .. . ... ... ... : ... .. 4 ... ... ... : ... .. . ... : ... .. . ... : ... .. . ... ... : ... .. . ... ... : ... .. . ... ... : ... .. . ... ...
ROW 1F : D-4 00 9 P7D ... ... : ... .. . ... ... ... : ... .. . ... : ... .. 8 ... : ... .. . ... ... : ... .. 6 ... ... : ... .. 6 ... ... : ... .. . ... ...
ROW 20 : ... .. . P80 ... ... : ... .. . ... ... ... : ... .. . ... : ... .. 6 ... : ... .. . ... ... : ... .. . ... ... : ... .. . ... ... : ... .. . ... ...
ROW 21 : ... .. . P83 ... ... : ... .. . ... ... ... : ... .. . ... : ... .. 3 ... : ... .. . ... ... : ... .. . ... ... : ... .. . ... ... : ... .. . ... ...
ROW 22 : D#4 00 A P7C ... ... : D-3 00 A ... ... ... : ... .. . ... : ... .. 1 ... : ... .. . ... ... : ... .. . ... ... : ... .. . ... ... : ... .. . ... ...
ROW 23 : ... .. 2 ... ... ... : ... .. 8 ... ... ... : ... .. . ... : ... .. . ... : ... .. . ... ... : ... .. 5 ... ... : ... .. 5 ... ... : ... .. 4 ... ...
ROW 24 : D-4 00 2 P84 ... ... : ... .. . ... ... ... : ... .. . ... : ... .. 0 ... : ... .. . ... ... : ... .. . ... ... : ... .. . ... ... : ... .. . ... ...
ROW 25 : ... .. . P80 ... ... : ... .. . ... ... ... : ... .. . ... : ... .. C ... : ... .. . ... ... : ... .. 4 ... ... : ... .. 4 ... ... : ... .. 1 ... ...
ROW 26 : ... .. 1 P7E ... ... : ... .. 6 ... ... ... : ... .. . ... : ... .. 9 ... : ... .. . ... ... : ... .. 3 ... ... : ... .. 3 ... ... : ... .. . ... ...
ROW 27 : ... .. . P7B ... ... : ... .. 5 ... ... ... : ... .. . ... : ... .. 4 ... : ... .. . ... ... : ... .. . ... ... : ... .. . ... ... : ... .. . ... ...
ROW 28 : C#4 00 1 P86 ... ... : ... .. 4 ... ... ... : ... .. . ... : ... .. 2 ... : ... .. . ... ... : ... .. . ... ... : ... .. . ... ... : ... .. . ... ...
ROW 29 : ... .. 0 ... V00 ... : ... .. . ... ... ... : ... .. . ... : ... .. 1 ... : ... .. . ... ... : ... .. . ... ... : ... .. . ... ... : ... .. . ... ...
ROW 2A : ... .. . ... ... ... : ... .. . ... ... ... : --- .. . ... : ... .. 0 ... : ... .. . ... ... : ... .. . ... ... : ... .. . ... ... : ... .. . ... ...
ROW 2B : ... .. . ... ... ... : ... .. . ... ... ... : ... .. . ... : ... .. . ... : ... .. . ... ... : ... .. . ... ... : ... .. . ... ... : ... .. . ... ...
ROW 2C : ... .. . ... ... ... : B-2 00 A ... ... ... : G-3 00 . ... : ... .. F ... : ... .. . ... ... : D-3 01 9 ... ... : G-2 01 9 ... ... : B-3 01 F ... ...
ROW 2D : ... .. . ... ... ... : ... .. 8 ... ... ... : ... .. . ... : ... .. C ... : ... .. . ... ... : ... .. 8 ... ... : ... .. 8 ... ... : ... .. D ... ...
ROW 2E : ... .. . ... ... ... : ... .. . ... ... ... : ... .. . ... : ... .. 6 ... : ... .. . ... ... : ... .. . ... ... : ... .. . ... ... : ... .. 8 ... ...
ROW 2F : ... .. . ... ... ... : ... .. . ... ... ... : ... .. . ... : ... .. 3 ... : ... .. . ... ... : ... .. . ... ... : ... .. . ... ... : ... .. . ... ...
ROW 30 : ... .. . ... ... ... : ... .. 6 ... ... ... : ... .. . ... : ... .. 2 ... : ... .. . ... ... : ... .. 7 ... ... : ... .. 7 ... ... : ... .. . ... ...
ROW 31 : ... .. . ... ... ... : ... .. 5 ... ... ... : ... .. . ... : ... .. 0 ... : ... .. . ... ... : ... .. . ... ... : ... .. . ... ... : ... .. . ... ...
ROW 32 : ... .. . ... ... ... : ... .. 4 ... ... ... : ... .. . ... : ... .. . ... : ... .. . ... ... : ... .. . ... ... : ... .. . ... ... : ... .. . ... ...
ROW 33 : ... .. . ... ... ... : ... .. . ... ... ... : ... .. . ... : ... .. . ... : ... .. . ... ... : ... .. 6 ... ... : ... .. 6 ... ... : ... .. . ... ...
ROW 34 : ... .. . ... ... ... : ... .. . ... ... ... : ... .. . ... : ... .. . ... : ... .. . ... ... : ... .. . ... ... : ... .. . ... ... : ... .. . ... ...
ROW 35 : ... .. . ... ... ... : ... .. . ... ... ... : ... .. . ... : ... .. . ... : ... .. . ... ... : ... .. . ... ... : ... .. . ... ... : ... .. . ... ...
ROW 36 : ... .. . ... ... ... : D-3 00 A ... ... ... : ... .. . ... : ... .. . ... : ... .. . ... ... : ... .. . ... ... : ... .. . ... ... : ... .. . ... ...
ROW 37 : ... .. . ... ... ... : ... .. 8 ... ... ... : ... .. . ... : ... .. . ... : ... .. . ... ... : ... .. . ... ... : ... .. . ... ... : ... .. . ... ...
ROW 38 : ... .. . ... ... ... : ... .. . ... ... ... : ... .. . ... : ... .. . ... : ... .. . ... ... : ... .. . ... ... : ... .. . ... ... : ... .. . ... ...
ROW 39 : ... .. . ... ... ... : ... .. . ... ... ... : ... .. . ... : ... .. . ... : ... .. . ... ... : ... .. . ... ... : ... .. . ... ... : ... .. . ... ...
ROW 3A : ... .. . ... ... ... : ... .. 6 ... ... ... : ... .. . ... : ... .. . ... : ... .. . ... ... : ... .. . ... ... : ... .. . ... ... : ... .. . ... ...
ROW 3B : ... .. . ... ... ... : ... .. 5 ... ... ... : ... .. . ... : ... .. . ... : ... .. . ... ... : ... .. . P84 ... : ... .. . P84 ... : ... .. . P84 ...
ROW 3C : ... .. . ... ... ... : ... .. 4 ... ... ... : ... .. . ... : ... .. . ... : ... .. . ... ... : ... .. . P86 ... : ... .. . P86 ... : ... .. . P86 ...
ROW 3D : ... .. . ... ... ... : ... .. . ... ... ... : ... .. . ... : ... .. . ... : ... .. . ... ... : ... .. . P85 ... : ... .. . P85 ... : ... .. . P85 ...
ROW 3E : ... .. . ... ... ... : ... .. . ... ... ... : --- .. . ... : ... .. . ... : ... .. . ... ... : ... .. . P82 ... : ... .. . P82 ... : ... .. . P82 ...
ROW 3F : ... .. . ... ... ... : ... .. . ... ... ... : ... .. . ... : ... .. . ... : ... .. . ... ... : ... .. . P7E ... : ... .. . P7E ... : ... .. . P7E ...
ROW 40 : D#4 00 8 P80 V01 ... : C-3 00 A ... ... ... : G-3 00 . ... : ... .. . ... : ... .. . ... ... : ... .. . P7B ... : ... .. . P7B ... : ... .. . P7B ...
ROW 41 : ... .. 7 ... ... ... : ... .. 8 ... ... ... : ... .. . ... : ... .. . ... : ... .. . ... ... : ... .. . P7A ... : ... .. . P7A ... : ... .. . P7A ...
ROW 42 : ... .. 6 ... ... ... : ... .. . ... ... ... : ... .. . ... : ... .. . ... : ... .. . ... ... : ... .. . P7C ... : ... .. . P7C ... : ... .. . P7C ...
ROW 43 : ... .. 5 ... ... ... : ... .. . ... ... ... : ... .. . ... : ... .. . ... : ... .. . ... ... : ... .. . P80 ... : ... .. . P80 ... : ... .. . P80 ...
ROW 44 : ... .. . ... ... ... : ... .. 6 ... ... ... : ... .. . ... : ... .. . ... : ... .. . ... ... : ... .. . P83 ... : ... .. . P83 ... : ... .. . P83 ...
ROW 45 : E-4 00 9 ... ... ... : ... .. 5 ... ... ... : ... .. . ... : ... .. . ... : ... .. . ... ... : ... .. . P86 ... : ... .. . P86 ... : ... .. . P86 ...
ROW 46 : ... .. 8 ... ... ... : ... .. 4 ... ... ... : ... .. . ... : ... .. . ... : ... .. . ... ... : ... .. . ... ... : ... .. . ... ... : ... .. . ... ...
ROW 47 : ... .. 7 ... ... ... : ... .. . ... ... ... : ... .. . ... : ... .. . ... : ... .. . ... ... : ... .. . P82 ... : ... .. . P82 ... : ... .. . P82 ...
ROW 48 : ... .. 6 ... ... ... : ... .. . ... ... ... : ... .. . ... : ... .. . ... : ... .. . ... ... : ... .. . P7F ... : ... .. . P7F ... : ... .. . P7F ...
ROW 49 : ... .. . ... ... ... : ... .. . ... ... ... : ... .. . ... : ... .. . ... : ... .. . ... ... : ... .. . P7B ... : ... .. . P7B ... : ... .. . P7B ...
ROW 4A : F-4 00 B ... ... ... : D-3 00 A ... ... ... : ... .. . ... : ... .. . ... : ... .. . ... ... : ... .. . P7A ... : ... .. . P7A ... : ... .. . P7A ...
ROW 4B : ... .. A ... ... ... : ... .. 8 ... ... ... : ... .. . ... : ... .. . ... : ... .. . ... ... : ... .. 5 P7C ... : ... .. 5 P7C ... : ... .. 4 P7C ...
ROW 4C : ... .. 9 ... ... ... : ... .. . ... ... ... : ... .. . ... : ... .. . ... : ... .. . ... ... : ... .. . P80 ... : ... .. . P80 ... : ... .. . P80 ...
ROW 4D : ... .. 7 ... ... ... : ... .. . ... ... ... : ... .. . ... : ... .. . ... : ... .. . ... ... : ... .. 4 P83 ... : ... .. 4 P83 ... : ... .. 1 P83 ...
ROW 4E : ... .. . ... ... ... : ... .. 6 ... ... ... : ... .. . ... : ... .. . ... : ... .. . ... ... : ... .. 3 P86 ... : ... .. 3 P86 ... : ... .. . P86 ...
ROW 4F : G-4 00 D ... ... ... : ... .. 5 ... ... ... : ... .. . ... : ... .. . ... : ... .. . ... ... : ... .. . ... ... : ... .. . ... ... : ... .. . ... ...
ROW 50 : ... .. C ... ... ... : ... .. 4 ... ... ... : ... .. . ... : ... .. . ... : ... .. . ... ... : ... .. . P83 ... : ... .. . P83 ... : ... .. . P83 ...
ROW 51 : ... .. B ... ... ... : ... .. . ... ... ... : ... .. . ... : ... .. . ... : ... .. . ... ... : ... .. . P80 ... : ... .. . P80 ... : ... .. . P80 ...
ROW 52 : ... .. 8 ... ... ... : ... .. . ... ... ... : --- .. . ... : ... .. . ... : ... .. . ... ... : ... .. . P7C ... : ... .. . P7C ... : ... .. . P7C ...
ROW 53 : ... .. . ... ... ... : ... .. . ... ... ... : ... .. . ... : ... .. . ... : ... .. . ... ... : ... .. . P7A ... : ... .. . P7A ... : ... .. . P7A ...
ROW 54 : G#4 00 F ... ... ... : D#3 00 A ... ... ... : F#3 00 . ... : D-# 00 D V01 : ... .. . ... ... : F#3 01 4 P80 ... : G#3 01 4 P80 ... : C-4 01 8 P80 ...
ROW 55 : ... .. E ... ... ... : ... .. 8 ... ... ... : ... .. . ... : ... .. B ... : ... .. . ... ... : ... .. . ... ... : ... .. . ... ... : ... .. 6 ... ...
ROW 56 : ... .. D ... ... ... : ... .. . ... ... ... : ... .. . ... : ... .. . ... : ... .. . ... ... : ... .. . ... ... : ... .. . ... ... : ... .. 4 ... ...
ROW 57 : ... .. A ... ... ... : ... .. . ... ... ... : ... .. . ... : ... .. A ... : ... .. . ... ... : ... .. . ... ... : ... .. . ... ... : ... .. . ... ...
ROW 58 : ... .. . ... ... ... : ... .. 6 ... ... ... : ... .. . ... : ... .. 8 ... : ... .. . ... ... : ... .. 3 ... ... : ... .. 3 ... ... : ... .. . ... ...
ROW 59 : ... .. 8 ... ... ... : ... .. 5 ... ... ... : ... .. . ... : ... .. 7 ... : ... .. . ... ... : ... .. . ... ... : ... .. . ... ... : ... .. . ... ...
ROW 5A : ... .. . ... ... ... : ... .. 4 ... ... ... : ... .. . ... : ... .. 6 ... : ... .. . ... ... : ... .. . ... ... : ... .. . ... ... : ... .. . ... ...
ROW 5B : ... .. . ... ... ... : ... .. . ... ... ... : ... .. . ... : ... .. . ... : ... .. . ... ... : ... .. . ... ... : ... .. . ... ... : ... .. . ... ...
ROW 5C : ... .. . ... ... ... : ... .. . ... ... ... : ... .. . ... : ... .. 5 ... : ... .. . ... ... : ... .. . ... ... : ... .. . ... ... : ... .. . ... ...
ROW 5D : ... .. . ... ... ... : ... .. . ... ... ... : ... .. . ... : ... .. . ... : ... .. . ... ... : ... .. . ... ... : ... .. . ... ... : ... .. . ... ...
ROW 5E : ... .. 7 ... ... ... : ... .. A ... ... ... : ... .. . ... : ... .. 4 ... : ... .. . ... ... : ... .. . ... ... : ... .. . ... ... : ... .. . ... ...
ROW 5F : ... .. . ... ... ... : ... .. 8 ... ... ... : ... .. . ... : ... .. . ... : ... .. . ... ... : ... .. . ... ... : ... .. . ... ... : ... .. . ... ...
ROW 60 : ... .. . ... ... ... : ... .. . ... ... ... : ... .. . ... : ... .. 3 ... : ... .. . ... ... : ... .. . ... ... : ... .. . ... ... : ... .. . ... ...
ROW 61 : ... .. . ... ... ... : ... .. . ... ... ... : ... .. . ... : ... .. 2 ... : ... .. . ... ... : ... .. . ... ... : ... .. . ... ... : ... .. . ... ...
ROW 62 : ... .. . ... ... ... : ... .. 6 ... ... ... : ... .. . ... : ... .. . ... : ... .. . ... ... : ... .. . ... ... : ... .. . ... ... : ... .. . ... ...
ROW 63 : ... .. 6 ... ... ... : ... .. 5 ... ... ... : ... .. . ... : ... .. 1 ... : ... .. . ... ... : ... .. 4 ... ... : ... .. 4 ... ... : ... .. 5 ... ...
ROW 64 : ... .. . ... ... ... : ... .. 4 ... ... ... : ... .. . ... : ... .. 0 ... : ... .. . ... ... : ... .. . ... ... : ... .. . ... ... : ... .. . ... ...
ROW 65 : ... .. . ... ... ... : ... .. . ... ... ... : ... .. . ... : ... .. . ... : ... .. . ... ... : ... .. . ... ... : ... .. . ... ... : ... .. . ... ...
ROW 66 : ... .. . ... ... ... : ... .. . ... ... ... : --- .. . ... : ... .. . ... : ... .. . ... ... : ... .. . ... ... : ... .. . ... ... : ... .. . ... ...
ROW 67 : ... .. . ... ... ... : ... .. . ... ... ... : ... .. . ... : ... .. . ... : ... .. . ... ... : ... .. . ... ... : ... .. . ... ... : ... .. . ... ...
ROW 68 : ... .. 5 ... ... ... : C-3 00 A ... ... ... : F#3 00 . ... : 9-# 00 A V00 : ... .. . ... ... : ... .. . ... ... : ... .. . ... ... : ... .. . ... ...
ROW 69 : ... .. . ... ... ... : ... .. 8 ... ... ... : ... .. . ... : ... .. 8 ... : ... .. . ... ... : ... .. . ... ... : ... .. . ... ... : ... .. . ... ...
ROW 6A : ... .. . ... ... ... : ... .. . ... ... ... : ... .. . ... : ... .. 4 ... : ... .. . ... ... : ... .. . ... ... : ... .. . ... ... : ... .. . ... ...
ROW 6B : ... .. . ... ... ... : ... .. . ... ... ... : ... .. . ... : ... .. 2 ... : ... .. . ... ... : ... .. . ... ... : ... .. . ... ... : ... .. . ... ...
ROW 6C : ... .. . ... ... ... : ... .. 6 ... ... ... : ... .. . ... : ... .. 1 ... : ... .. . ... ... : ... .. . ... ... : ... .. . ... ... : ... .. . ... ...
ROW 6D : ... .. 6 ... ... ... : ... .. 5 ... ... ... : ... .. . ... : ... .. 0 ... : ... .. . ... ... : ... .. . ... ... : ... .. . ... ... : ... .. 6 ... ...
ROW 6E : ... .. . ... ... ... : ... .. 4 ... ... ... : ... .. . ... : ... .. . ... : ... .. . ... ... : ... .. . ... ... : ... .. . ... ... : ... .. . ... ...
ROW 6F : ... .. . ... ... ... : ... .. . ... ... ... : ... .. . ... : ... .. . ... : ... .. . ... ... : ... .. . ... ... : ... .. . ... ... : ... .. . ... ...
ROW 70 : ... .. . ... ... ... : ... .. . ... ... ... : ... .. . ... : ... .. . ... : ... .. . ... ... : ... .. . ... ... : ... .. . ... ... : ... .. . ... ...
ROW 71 : ... .. . ... ... ... : ... .. . ... ... ... : ... .. . ... : ... .. . ... : ... .. . ... ... : ... .. . ... ... : ... .. . ... ... : ... .. . ... ...
ROW 72 : ... .. 7 ... ... ... : ... .. A ... ... ... : ... .. . ... : ... .. 8 ... : ... .. . ... ... : ... .. 5 ... ... : ... .. 5 ... ... : ... .. . ... ...
ROW 73 : ... .. . ... ... ... : ... .. 8 ... ... ... : ... .. . ... : ... .. 6 ... : ... .. . ... ... : ... .. . ... ... : ... .. . ... ... : ... .. . ... ...
ROW 74 : ... .. . ... ... ... : ... .. . ... ... ... : ... .. . ... : ... .. 3 ... : ... .. . ... ... : ... .. . ... ... : ... .. . ... ... : ... .. . ... ...
ROW 75 : ... .. . ... ... ... : ... .. . ... ... ... : ... .. . ... : ... .. 1 ... : ... .. . ... ... : ... .. . ... ... : ... .. . ... ... : ... .. . ... ...
ROW 76 : ... .. . ... ... ... : ... .. 6 ... ... ... : ... .. . ... : ... .. . ... : ... .. . ... ... : ... .. . ... ... : ... .. . ... ... : ... .. . ... ...
ROW 77 : ... .. 8 ... ... ... : ... .. 5 ... ... ... : ... .. . ... : ... .. 0 ... : ... .. . ... ... : ... .. . ... ... : ... .. . ... ... : ... .. 7 ... ...
ROW 78 : ... .. . ... ... ... : ... .. 4 ... ... ... : ... .. . ... : ... .. . ... : ... .. . ... ... : ... .. . ... ... : ... .. . ... ... : ... .. . ... ...
ROW 79 : ... .. . ... ... ... : ... .. . ... ... ... : ... .. . ... : ... .. . ... : ... .. . ... ... : ... .. . ... ... : ... .. . ... ... : ... .. . ... ...
ROW 7A : ... .. . ... ... ... : ... .. . ... ... ... : --- .. . ... : ... .. . ... : ... .. . ... ... : ... .. . ... ... : ... .. . ... ... : ... .. . ... ...
ROW 7B : ... .. . ... ... ... : ... .. . ... ... ... : ... .. . ... : ... .. . ... : ... .. . ... ... : ... .. . ... ... : ... .. . ... ... : ... .. . ... ...
ROW 7C : D#4 00 F ... ... ... : G#2 00 A ... ... ... : F#3 00 . ... : ... .. F ... : ... .. . ... ... : C-3 01 9 ... ... : D#3 01 9 ... ... : G#3 01 F ... ...
ROW 7D : ... .. E ... ... ... : ... .. 8 ... ... ... : ... .. . ... : ... .. C ... : ... .. . ... ... : ... .. 8 ... ... : ... .. 8 ... ... : ... .. D ... ...
ROW 7E : ... .. D ... ... ... : ... .. . ... ... ... : ... .. . ... : ... .. 6 ... : ... .. . ... ... : ... .. . ... ... : ... .. . ... ... : ... .. 8 ... ...
ROW 7F : ... .. A ... ... ... : ... .. . ... ... ... : ... .. . ... : ... .. 3 ... : ... .. . ... ... : ... .. . ... ... : ... .. . ... ... : ... .. . ... ...
ROW 80 : ... .. . ... ... ... : ... .. 6 ... ... ... : ... .. . ... : ... .. 2 ... : ... .. . ... ... : ... .. 7 ... ... : ... .. 7 ... ... : ... .. . ... ...
ROW 81 : ... .. 9 ... ... ... : ... .. 5 ... ... ... : ... .. . ... : ... .. 0 ... : ... .. . ... ... : ... .. 6 ... ... : ... .. 6 ... ... : ... .. 7 ... ...
ROW 82 : ... .. . ... ... ... : ... .. 4 ... ... ... : ... .. . ... : ... .. . ... : ... .. . ... ... : ... .. . ... ... : ... .. . ... ... : ... .. . ... ...
ROW 83 : ... .. . ... ... ... : ... .. . ... ... ... : ... .. . ... : ... .. . ... : ... .. . ... ... : ... .. 5 ... ... : ... .. 5 ... ... : ... .. . ... ...
ROW 84 : ... .. . ... ... ... : ... .. . ... ... ... : ... .. . ... : ... .. . ... : ... .. . ... ... : ... .. . ... ... : ... .. . ... ... : ... .. . ... ...
ROW 85 : ... .. . ... ... ... : ... .. . ... ... ... : ... .. . ... : ... .. . ... : ... .. . ... ... : ... .. . ... ... : ... .. . ... ... : ... .. . ... ...
ROW 86 : ... .. 8 ... ... ... : ... .. A ... ... ... : ... .. . ... : ... .. . ... : ... .. . ... ... : ... .. . ... ... : ... .. . ... ... : ... .. 6 ... ...
ROW 87 : ... .. . ... ... ... : ... .. 8 ... ... ... : ... .. . ... : ... .. . ... : ... .. . ... ... : ... .. . ... ... : ... .. . ... ... : ... .. . ... ...
ROW 88 : ... .. . ... ... ... : ... .. . ... ... ... : ... .. . ... : ... .. . ... : ... .. . ... ... : ... .. . ... ... : ... .. . ... ... : ... .. . ... ...
ROW 89 : ... .. . ... ... ... : ... .. . ... ... ... : ... .. . ... : ... .. . ... : ... .. . ... ... : ... .. . ... ... : ... .. . ... ... : ... .. . ... ...
ROW 8A : ... .. . ... ... ... : ... .. 6 ... ... ... : ... .. . ... : ... .. . ... : ... .. . ... ... : ... .. . ... ... : ... .. . ... ... : ... .. . ... ...
ROW 8B : ... .. . ... ... ... : ... .. 5 ... ... ... : ... .. . ... : ... .. . ... : ... .. . ... ... : ... .. 4 ... ... : ... .. 4 ... ... : ... .. . ... ...
ROW 8C : ... .. . ... ... ... : ... .. 4 ... ... ... : ... .. . ... : ... .. . ... : ... .. . ... ... : ... .. . ... ... : ... .. . ... ... : ... .. . ... ...
ROW 8D : ... .. . ... ... ... : ... .. . ... ... ... : ... .. . ... : ... .. . ... : ... .. . ... ... : ... .. . ... ... : ... .. . ... ... : ... .. . ... ...
ROW 8E : ... .. . ... ... ... : ... .. . ... ... ... : --- .. . ... : ... .. . ... : ... .. . ... ... : ... .. . ... ... : ... .. . ... ... : ... .. . ... ...
ROW 8F : ... .. . ... ... ... : ... .. . ... ... ... : ... .. . ... : ... .. . ... : ... .. . ... ... : ... .. . ... ... : ... .. . ... ... : ... .. . ... ...
ROW 90 : ... .. . ... ... ... : D#2 00 A ... ... ... : F#3 00 . ... : D-# 00 F ... : ... .. . ... ... : ... .. . ... ... : ... .. . ... ... : ... .. 5 ... ...
ROW 91 : ... .. . ... ... ... : ... .. 8 ... ... ... : ... .. . ... : ... .. C ... : ... .. . ... ... : ... .. . ... ... : ... .. . ... ... : ... .. . ... ...
ROW 92 : ... .. . ... ... ... : ... .. . ... ... ... : ... .. . ... : ... .. 6 ... : ... .. . ... ... : ... .. . ... ... : ... .. . ... ... : ... .. . ... ...
ROW 93 : ... .. . ... ... ... : ... .. . ... ... ... : ... .. . ... : ... .. 3 ... : ... .. . ... ... : ... .. . ... ... : ... .. . ... ... : ... .. . ... ...
ROW 94 : ... .. . ... ... ... : ... .. 6 ... ... ... : ... .. . ... : ... .. 2 ... : ... .. . ... ... : ... .. . ... ... : ... .. . ... ... : ... .. . ... ...
ROW 95 : ... .. 7 ... ... ... : ... .. 5 ... ... ... : ... .. . ... : ... .. 0 ... : ... .. . ... ... : ... .. . ... ... : ... .. . ... ... : ... .. . ... ...
ROW 96 : ... .. . ... ... ... : ... .. 4 ... ... ... : ... .. . ... : ... .. . ... : ... .. . ... ... : ... .. . ... ... : ... .. . ... ... : ... .. . ... ...
ROW 97 : ... .. . ... ... ... : ... .. . ... ... ... : ... .. . ... : ... .. . ... : ... .. . ... ... : ... .. . ... ... : ... .. . ... ... : ... .. . ... ...
ROW 98 : ... .. . ... ... ... : ... .. . ... ... ... : ... .. . ... : ... .. . ... : ... .. . ... ... : ... .. . ... ... : ... .. . ... ... : ... .. . ... ...
ROW 99 : ... .. . ... ... ... : ... .. . ... ... ... : ... .. . ... : ... .. . ... : ... .. . ... ... : ... .. . ... ... : ... .. . ... ... : ... .. . ... ...
ROW 9A : ... .. . ... ... ... : ... .. A ... ... ... : ... .. . ... : ... .. . ... : ... .. . ... ... : ... .. 3 ... ... : ... .. 3 ... ... : ... .. 4 ... ...
ROW 9B : ... .. . ... ... ... : ... .. 8 ... ... ... : ... .. . ... : ... .. . ... : ... .. . ... ... : ... .. . ... ... : ... .. . ... ... : ... .. . ... ...
ROW 9C : ... .. . ... ... ... : ... .. . ... ... ... : ... .. . ... : ... .. . ... : ... .. . ... ... : ... .. . ... ... : ... .. . ... ... : ... .. . ... ...
ROW 9D : ... .. . ... ... ... : ... .. . ... ... ... : ... .. . ... : ... .. . ... : ... .. . ... ... : ... .. . ... ... : ... .. . ... ... : ... .. . ... ...
ROW 9E : ... .. . ... ... ... : ... .. 6 ... ... ... : ... .. . ... : ... .. . ... : ... .. . ... ... : ... .. . ... ... : ... .. . ... ... : ... .. . ... ...
ROW 9F : ... .. 6 ... ... ... : ... .. 5 ... ... ... : ... .. . ... : ... .. . ... : ... .. . ... ... : ... .. . ... ... : ... .. . ... ... : ... .. . ... ...
ROW A0 : ... .. . ... ... ... : ... .. 4 ... ... ... : ... .. . ... : ... .. . ... : ... .. . ... ... : ... .. . ... ... : ... .. . ... ... : ... .. . ... ...
ROW A1 : ... .. . ... ... ... : ... .. . ... ... ... : ... .. . ... : ... .. . ... : ... .. . ... ... : ... .. . ... ... : ... .. . ... ... : ... .. . ... ...
ROW A2 : ... .. . ... ... ... : ... .. . ... ... ... : --- .. . ... : ... .. . ... : ... .. . ... ... : ... .. . ... ... : ... .. . ... ... : ... .. . ... ...
ROW A3 : ... .. . ... ... ... : ... .. . ... ... ... : ... .. . ... : ... .. . ... : ... .. . ... ... : ... .. . ... ... : ... .. . ... ... : ... .. . ... ...
ROW A4 : C-4 00 A ... ... ... : G#2 00 A ... ... ... : F#3 00 . ... : ... .. D ... : ... .. . ... ... : G#2 01 4 ... ... : C-3 01 4 ... ... : D#3 01 8 ... ...
ROW A5 : ... .. 9 ... ... ... : ... .. 8 ... ... ... : ... .. . ... : ... .. B ... : ... .. . ... ... : ... .. . ... ... : ... .. . ... ... : ... .. 6 ... ...
ROW A6 : ... .. 8 ... ... ... : ... .. . ... ... ... : ... .. . ... : ... .. . ... : ... .. . ... ... : ... .. . ... ... : ... .. . ... ... : ... .. 4 ... ...
ROW A7 : ... .. 6 ... ... ... : ... .. . ... ... ... : ... .. . ... : ... .. A ... : ... .. . ... ... : ... .. . ... ... : ... .. . ... ... : ... .. . ... ...
ROW A8 : ... .. . ... ... ... : ... .. 6 ... ... ... : ... .. . ... : ... .. 8 ... : ... .. . ... ... : ... .. 3 ... ... : ... .. 3 ... ... : ... .. . ... ...
ROW A9 : ... .. . ... ... ... : ... .. 5 ... ... ... : ... .. . ... : ... .. 7 ... : ... .. . ... ... : ... .. . ... ... : ... .. . ... ... : ... .. . ... ...
ROW AA : ... .. . ... ... ... : ... .. 4 ... ... ... : ... .. . ... : ... .. 6 ... : ... .. . ... ... : ... .. . ... ... : ... .. . ... ... : ... .. . ... ...
ROW AB : ... .. . ... ... ... : ... .. . ... ... ... : ... .. . ... : ... .. . ... : ... .. . ... ... : ... .. . ... ... : ... .. . ... ... : ... .. . ... ...
ROW AC : ... .. . ... ... ... : ... .. . ... ... ... : ... .. . ... : ... .. 5 ... : ... .. . ... ... : ... .. . ... ... : ... .. . ... ... : ... .. . ... ...
ROW AD : ... .. . ... ... ... : ... .. . ... ... ... : ... .. . ... : ... .. . ... : ... .. . ... ... : ... .. . ... ... : ... .. . ... ... : ... .. . ... ...
ROW AE : ... .. . ... ... ... : ... .. A ... ... ... : ... .. . ... : ... .. 4 ... : ... .. . ... ... : ... .. . ... ... : ... .. . ... ... : ... .. . ... ...
ROW AF : ... .. . ... ... ... : ... .. 8 ... ... ... : ... .. . ... : ... .. . ... : ... .. . ... ... : ... .. . ... ... : ... .. . ... ... : ... .. . ... ...
ROW B0 : ... .. . ... ... ... : ... .. . ... ... ... : ... .. . ... : ... .. 3 ... : ... .. . ... ... : ... .. . ... ... : ... .. . ... ... : ... .. . ... ...
ROW B1 : ... .. . ... ... ... : ... .. . ... ... ... : ... .. . ... : ... .. 2 ... : ... .. . ... ... : ... .. . ... ... : ... .. . ... ... : ... .. . ... ...
ROW B2 : ... .. . ... ... ... : ... .. 6 ... ... ... : ... .. . ... : ... .. . ... : ... .. . ... ... : ... .. . ... ... : ... .. . ... ... : ... .. . ... ...
ROW B3 : ... .. 7 ... ... ... : ... .. 5 ... ... ... : ... .. . ... : ... .. 1 ... : ... .. . ... ... : ... .. 4 ... ... : ... .. 4 ... ... : ... .. 5 ... ...
ROW B4 : ... .. . ... ... ... : ... .. 4 ... ... ... : ... .. . ... : ... .. 0 ... : ... .. . ... ... : ... .. . ... ... : ... .. . ... ... : ... .. . ... ...
ROW B5 : ... .. . ... ... ... : ... .. . ... ... ... : ... .. . ... : ... .. . ... : ... .. . ... ... : ... .. . ... ... : ... .. . ... ... : ... .. . ... ...
ROW B6 : ... .. . ... ... ... : ... .. . ... ... ... : --- .. . ... : ... .. . ... : ... .. . ... ... : ... .. . ... ... : ... .. . ... ... : ... .. . ... ...
ROW B7 : ... .. . ... ... ... : ... .. . ... ... ... : ... .. . ... : ... .. . ... : ... .. . ... ... : ... .. . ... ... : ... .. . ... ... : ... .. . ... ...
ROW B8 : ... .. . ... ... ... : C-3 00 A ... ... ... : F#3 00 . ... : 9-# 00 A ... : ... .. . ... ... : ... .. . ... ... : ... .. . ... ... : ... .. . ... ...
ROW B9 : ... .. . ... ... ... : ... .. 8 ... ... ... : ... .. . ... : ... .. 8 ... : ... .. . ... ... : ... .. . ... ... : ... .. . ... ... : ... .. . ... ...
ROW BA : ... .. . ... ... ... : ... .. . ... ... ... : ... .. . ... : ... .. 4 ... : ... .. . ... ... : ... .. . ... ... : ... .. . ... ... : ... .. . ... ...
ROW BB : ... .. . ... ... ... : ... .. . ... ... ... : ... .. . ... : ... .. 2 ... : ... .. . ... ... : ... .. . ... ... : ... .. . ... ... : ... .. . ... ...
ROW BC : ... .. . ... ... ... : ... .. 6 ... ... ... : ... .. . ... : ... .. 1 ... : ... .. . ... ... : ... .. . ... ... : ... .. . ... ... : ... .. . ... ...
ROW BD : ... .. 8 P84 ... ... : ... .. 5 ... ... ... : ... .. . ... : ... .. 0 ... : ... .. . ... ... : ... .. . ... ... : ... .. . ... ... : ... .. 6 ... ...
ROW BE : ... .. . P86 ... ... : ... .. 4 ... ... ... : ... .. . ... : ... .. . ... : ... .. . ... ... : ... .. . ... ... : ... .. . ... ... : ... .. . ... ...
ROW BF : ... .. . P85 ... ... : ... .. . ... ... ... : ... .. . ... : ... .. . ... : ... .. . ... ... : ... .. . ... ... : ... .. . ... ... : ... .. . ... ...
ROW C0 : ... .. . P82 ... ... : ... .. . ... ... ... : ... .. . ... : ... .. . ... : ... .. . ... ... : ... .. . ... ... : ... .. . ... ... : ... .. . ... ...
ROW C1 : ... .. . P7E ... ... : ... .. . ... ... ... : ... .. . ... : ... .. . ... : ... .. . ... ... : ... .. . ... ... : ... .. . ... ... : ... .. . ... ...
ROW C2 : ... .. . P7B ... ... : ... .. A ... ... ... : ... .. . ... : ... .. 8 ... : ... .. . ... ... : ... .. 5 ... ... : ... .. 5 ... ... : ... .. . ... ...
ROW C3 : B-3 00 8 P86 ... ... : ... .. 8 ... ... ... : ... .. . ... : ... .. 6 ... : ... .. . ... ... : ... .. . ... ... : ... .. . ... ... : ... .. . ... ...
ROW C4 : C-4 00 8 P7C ... ... : ... .. . ... ... ... : ... .. . ... : ... .. 3 ... : ... .. . ... ... : ... .. . ... ... : ... .. . ... ... : ... .. . ... ...
ROW C5 : ... .. . P80 ... ... : ... .. . ... ... ... : ... .. . ... : ... .. 1 ... : ... .. . ... ... : ... .. . ... ... : ... .. . ... ... : ... .. . ... ...
ROW C6 : ... .. . P83 ... ... : ... .. 6 ... ... ... : ... .. . ... : ... .. . ... : ... .. . ... ... : ... .. . ... ... : ... .. . ... ... : ... .. . ... ...
ROW C7 : ... .. . P86 ... ... : ... .. 5 ... ... ... : ... .. . ... : ... .. 0 ... : ... .. . ... ... : ... .. . ... ... : ... .. . ... ... : ... .. 7 ... ...
ROW C8 : ... .. . ... ... ... : ... .. 4 ... ... ... : ... .. . ... : ... .. . ... : ... .. . ... ... : ... .. . ... ... : ... .. . ... ... : ... .. . ... ...
ROW C9 : ... .. . P82 ... ... : ... .. . ... ... ... : ... .. . ... : ... .. . ... : ... .. . ... ... : ... .. . ... ... : ... .. . ... ... : ... .. . ... ...
ROW CA : ... .. . P7F ... ... : ... .. . ... ... ... : --- .. . ... : ... .. . ... : ... .. . ... ... : ... .. . ... ... : ... .. . ... ... : ... .. . ... ...
ROW CB : ... .. . P7B ... ... : ... .. . ... ... ... : ... .. . ... : ... .. . ... : ... .. . ... ... : ... .. . ... ... : ... .. . ... ... : ... .. . ... ...
ROW CC : B-3 00 8 P86 ... ... : D#3 00 A ... ... ... : F#3 00 . ... : ... .. F ... : ... .. . ... ... : F#2 01 9 ... ... : A-2 01 9 ... ... : F-3 01 F ... ...
ROW CD : C-4 00 8 P7C ... ... : ... .. 8 ... ... ... : ... .. . ... : ... .. C ... : ... .. . ... ... : ... .. 8 ... ... : ... .. 8 ... ... : ... .. D ... ...
ROW CE : ... .. . P80 ... ... : ... .. . ... ... ... : ... .. . ... : ... .. 6 ... : ... .. . ... ... : ... .. . ... ... : ... .. . ... ... : ... .. 8 ... ...
ROW CF : ... .. . P83 ... ... : ... .. . ... ... ... : ... .. . ... : ... .. 3 ... : ... .. . ... ... : ... .. . ... ... : ... .. . ... ... : ... .. . ... ...
ROW D0 : ... .. . P86 ... ... : ... .. 6 ... ... ... : ... .. . ... : ... .. 2 ... : ... .. . ... ... : ... .. 7 ... ... : ... .. 7 ... ... : ... .. . ... ...
ROW D1 : ... .. . ... ... ... : ... .. 5 ... ... ... : ... .. . ... : ... .. 0 ... : ... .. . ... ... : ... .. 6 ... ... : ... .. 6 ... ... : ... .. 7 ... ...
ROW D2 : ... .. . P83 ... ... : ... .. 4 ... ... ... : ... .. . ... : ... .. . ... : ... .. . ... ... : ... .. . ... ... : ... .. . ... ... : ... .. . ... ...
ROW D3 : ... .. . P80 ... ... : ... .. . ... ... ... : ... .. . ... : ... .. . ... : ... .. . ... ... : ... .. 5 ... ... : ... .. 5 ... ... : ... .. . ... ...
ROW D4 : ... .. . P7C ... ... : ... .. . ... ... ... : ... .. . ... : ... .. . ... : ... .. . ... ... : ... .. . ... ... : ... .. . ... ... : ... .. . ... ...
ROW D5 : B-3 00 8 P86 ... ... : ... .. . ... ... ... : ... .. . ... : ... .. . ... : ... .. . ... ... : ... .. . ... ... : ... .. . ... ... : ... .. . ... ...
ROW D6 : C-4 00 9 P7B ... ... : ... .. A ... ... ... : ... .. . ... : ... .. . ... : ... .. . ... ... : ... .. . ... ... : ... .. . ... ... : ... .. 6 ... ...
ROW D7 : ... .. . P7F ... ... : ... .. 8 ... ... ... : ... .. . ... : ... .. . ... : ... .. . ... ... : ... .. . ... ... : ... .. . ... ... : ... .. . ... ...
ROW D8 : ... .. . P82 ... ... : ... .. . ... ... ... : ... .. . ... : ... .. . ... : ... .. . ... ... : ... .. . ... ... : ... .. . ... ... : ... .. . ... ...
ROW D9 : ... .. . P86 ... ... : ... .. . ... ... ... : ... .. . ... : ... .. . ... : ... .. . ... ... : ... .. . ... ... : ... .. . ... ... : ... .. . ... ...
ROW DA : ... .. . ... ... ... : ... .. 6 ... ... ... : ... .. . ... : ... .. . ... : ... .. . ... ... : ... .. . ... ... : ... .. . ... ... : ... .. . ... ...
ROW DB : ... .. . P83 ... ... : ... .. 5 ... ... ... : ... .. . ... : ... .. . ... : ... .. . ... ... : ... .. 4 ... ... : ... .. 4 ... ... : ... .. . ... ...
ROW DC : ... .. . P80 ... ... : ... .. 4 ... ... ... : ... .. . ... : ... .. . ... : ... .. . ... ... : ... .. . ... ... : ... .. . ... ... : ... .. . ... ...
ROW DD : ... .. . P7C ... ... : ... .. . ... ... ... : ... .. . ... : ... .. . ... : ... .. . ... ... : ... .. . ... ... : ... .. . ... ... : ... .. . ... ...
ROW DE : B-3 00 9 P86 ... ... : ... .. . ... ... ... : --- .. . ... : ... .. . ... : ... .. . ... ... : ... .. . ... ... : ... .. . ... ... : ... .. . ... ...
ROW DF : C-4 00 9 P7B ... ... : ... .. . ... ... ... : ... .. . ... : ... .. . ... : ... .. . ... ... : ... .. . ... ... : ... .. . ... ... : ... .. . ... ...
ROW E0 : D-4 00 F P80 ... ... : C-3 00 A ... ... ... : F#3 00 . ... : ... .. . ... : ... .. . ... ... : ... .. . ... ... : ... .. . ... ... : D#3 01 B ... ...
ROW E1 : ... .. E ... ... ... : ... .. 8 ... ... ... : ... .. . ... : ... .. . ... : ... .. . ... ... : ... .. . ... ... : ... .. . ... ... : ... .. 9 ... ...
ROW E2 : ... .. D ... ... ... : ... .. . ... ... ... : ... .. . ... : ... .. . ... : ... .. . ... ... : ... .. . ... ... : ... .. . ... ... : ... .. 5 ... ...
ROW E3 : ... .. A ... ... ... : ... .. . ... ... ... : ... .. . ... : ... .. . ... : ... .. . ... ... : ... .. . ... ... : ... .. . ... ... : ... .. . ... ...
ROW E4 : ... .. . ... ... ... : ... .. 6 ... ... ... : ... .. . ... : ... .. . ... : ... .. . ... ... : ... .. . ... ... : ... .. . ... ... : ... .. . ... ...
ROW E5 : ... .. . ... ... ... : ... .. 5 ... ... ... : ... .. . ... : ... .. . ... : ... .. . ... ... : ... .. . ... ... : ... .. . ... ... : ... .. . ... ...
ROW E6 : ... .. . ... ... ... : ... .. 4 ... ... ... : ... .. . ... : ... .. . ... : ... .. . ... ... : ... .. . ... ... : ... .. . ... ... : ... .. . ... ...
ROW E7 : ... .. . ... ... ... : ... .. . ... ... ... : ... .. . ... : ... .. . ... : ... .. . ... ... : ... .. . ... ... : ... .. . ... ... : ... .. . ... ...
ROW E8 : ... .. . ... ... ... : ... .. . ... ... ... : ... .. . ... : ... .. . ... : ... .. . ... ... : ... .. . ... ... : ... .. . ... ... : ... .. . ... ...
ROW E9 : ... .. . ... ... ... : ... .. . ... ... ... : ... .. . ... : ... .. . ... : ... .. . ... ... : ... .. . ... ... : ... .. . ... ... : ... .. . ... ...
ROW EA : D#4 00 F ... ... ... : ... .. A ... ... ... : ... .. . ... : ... .. . ... : ... .. . ... ... : ... .. 3 ... ... : ... .. 3 ... ... : ... .. 4 ... ...
ROW EB : ... .. E ... ... ... : ... .. 8 ... ... ... : ... .. . ... : ... .. . ... : ... .. . ... ... : ... .. . ... ... : ... .. . ... ... : ... .. . ... ...
ROW EC : ... .. D ... ... ... : ... .. . ... ... ... : ... .. . ... : ... .. . ... : ... .. . ... ... : ... .. . ... ... : ... .. . ... ... : ... .. . ... ...
ROW ED : ... .. A ... ... ... : ... .. . ... ... ... : ... .. . ... : ... .. . ... : ... .. . ... ... : ... .. . ... ... : ... .. . ... ... : ... .. . ... ...
ROW EE : ... .. . ... ... ... : ... .. 6 ... ... ... : ... .. . ... : ... .. . ... : ... .. . ... ... : ... .. . ... ... : ... .. . ... ... : ... .. . ... ...
ROW EF : ... .. . ... ... ... : ... .. 5 ... ... ... : ... .. . ... : ... .. . ... : ... .. . ... ... : ... .. . ... ... : ... .. . ... ... : ... .. . ... ...
ROW F0 : ... .. 2 ... ... ... : ... .. 4 ... ... ... : ... .. . ... : ... .. . ... : ... .. . ... ... : ... .. . ... ... : ... .. . ... ... : ... .. . ... ...
ROW F1 : ... .. . ... ... ... : ... .. . ... ... ... : ... .. . ... : ... .. . ... : ... .. . ... ... : ... .. . ... ... : ... .. . ... ... : ... .. . ... ...
ROW F2 : ... .. . ... ... ... : ... .. . ... ... ... : --- .. . ... : ... .. . ... : ... .. . ... ... : ... .. . ... ... : ... .. . ... ... : ... .. . ... ...
ROW F3 : ... .. 1 ... ... ... : ... .. . ... ... ... : ... .. . ... : ... .. . ... : ... .. . ... ... : ... .. . ... ... : ... .. . ... ... : ... .. . ... ...
ROW F4 : D-4 00 F ... ... ... : D-3 00 A ... ... ... : G-3 00 . ... : D-# 00 D V01 : ... .. . ... ... : F-2 01 4 ... ... : B-2 01 4 ... ... : D-3 01 8 ... ...
ROW F5 : ... .. E ... ... ... : ... .. 8 ... ... ... : ... .. . ... : ... .. B ... : ... .. . ... ... : ... .. . ... ... : ... .. . ... ... : ... .. 6 ... ...
ROW F6 : ... .. D ... ... ... : ... .. . ... ... ... : ... .. . ... : ... .. . ... : ... .. . ... ... : ... .. . ... ... : ... .. . ... ... : ... .. 4 ... ...
ROW F7 : ... .. A ... ... ... : ... .. . ... ... ... : ... .. . ... : ... .. A ... : ... .. . ... ... : ... .. . ... ... : ... .. . ... ... : ... .. . ... ...
ROW F8 : ... .. . ... ... ... : ... .. 6 ... ... ... : ... .. . ... : ... .. 8 ... : ... .. . ... ... : ... .. 3 ... ... : ... .. 3 ... ... : ... .. . ... ...
ROW F9 : ... .. . ... ... ... : ... .. 5 ... ... ... : ... .. . ... : ... .. 7 ... : ... .. . ... ... : ... .. . ... ... : ... .. . ... ... : ... .. . ... ...
ROW FA : ... .. . ... ... ... : ... .. 4 ... ... ... : ... .. . ... : ... .. 6 ... : ... .. . ... ... : ... .. . ... ... : ... .. . ... ... : ... .. . ... ...
ROW FB : ... .. . ... ... ... : ... .. . ... ... ... : ... .. . ... : ... .. . ... : ... .. . ... ... : ... .. . ... ... : ... .. . ... ... : ... .. . ... ...
ROW FC : ... .. . ... ... ... : ... .. . ... ... ... : ... .. . ... : ... .. 5 ... : ... .. . ... ... : ... .. . ... ... : ... .. . ... ... : ... .. . ... ...
ROW FD : ... .. . ... ... ... : ... .. . ... ... ... : ... .. . ... : ... .. . ... : ... .. . ... ... : ... .. . ... ... : ... .. . ... ... : ... .. . ... ...
ROW FE : ... .. . ... ... ... : F-3 00 A ... ... ... : ... .. . ... : ... .. 4 ... : ... .. . ... ... : ... .. . ... ... : ... .. . ... ... : ... .. . ... ...
ROW FF : ... .. . ... ... ... : ... .. 8 ... ... ... : ... .. . ... : ... .. . ... : ... .. . ... ... : ... .. . ... ... : ... .. . ... ... : ... .. . ... ...

PATTERN 0C
ROW 00 : ... .. . ... ... ... : ... .. . ... ... ... : ... .. . ... : ... .. 3 ... : ... .. . ... ... : ... .. . ... ... : ... .. . ... ... : ... .. . ... ...
ROW 01 : ... .. . ... ... ... : ... .. . ... ... ... : ... .. . ... : ... .. 2 ... : ... .. . ... ... : ... .. . ... ... : ... .. . ... ... : ... .. . ... ...
ROW 02 : ... .. . ... ... ... : ... .. 6 ... ... ... : ... .. . ... : ... .. . ... : ... .. . ... ... : ... .. . ... ... : ... .. . ... ... : ... .. . ... ...
ROW 03 : ... .. . ... ... ... : ... .. 5 ... ... ... : ... .. . ... : ... .. 1 ... : ... .. . ... ... : ... .. . ... ... : ... .. . ... ... : ... .. . ... ...
ROW 04 : ... .. . ... ... ... : ... .. 4 ... ... ... : ... .. . ... : ... .. 0 ... : ... .. . ... ... : ... .. . ... ... : ... .. . ... ... : ... .. . ... ...
ROW 05 : ... .. . ... ... ... : ... .. . ... ... ... : ... .. . ... : ... .. . ... : ... .. . ... ... : ... .. . ... ... : ... .. . ... ... : ... .. . ... ...
ROW 06 : ... .. . ... ... ... : ... .. . ... ... ... : --- .. . ... : ... .. . ... : ... .. . ... ... : ... .. . ... ... : ... .. . ... ... : ... .. . ... ...
ROW 07 : ... .. . ... ... ... : ... .. . ... ... ... : ... .. . ... : ... .. . ... : ... .. . ... ... : ... .. . ... ... : ... .. . ... ... : ... .. . ... ...
ROW 08 : ... .. . P84 ... ... : D#3 00 A ... ... ... : G-3 00 . ... : 9-# 00 A V00 : ... .. . ... ... : ... .. . ... ... : ... .. . ... ... : ... .. . ... ...
ROW 09 : D#4 00 A P7C ... ... : ... .. 8 ... ... ... : ... .. . ... : ... .. 8 ... : ... .. . ... ... : ... .. . ... ... : ... .. . ... ... : ... .. . ... ...
ROW 0A : D-4 00 A P85 ... ... : ... .. . ... ... ... : ... .. . ... : ... .. 4 ... : ... .. . ... ... : ... .. . ... ... : ... .. . ... ... : ... .. . ... ...
ROW 0B : ... .. . P82 ... ... : ... .. . ... ... ... : ... .. . ... : ... .. 2 ... : ... .. . ... ... : ... .. . ... ... : ... .. . ... ... : ... .. . ... ...
ROW 0C : ... .. . P7E ... ... : ... .. 6 ... ... ... : ... .. . ... : ... .. 1 ... : ... .. . ... ... : ... .. . ... ... : ... .. . ... ... : ... .. . ... ...
ROW 0D : ... .. . P7B ... ... : ... .. 5 ... ... ... : ... .. . ... : ... .. 0 ... : ... .. . ... ... : ... .. 4 ... ... : ... .. 4 ... ... : ... .. 5 ... ...
ROW 0E : C#4 00 A P86 ... ... : ... .. 4 ... ... ... : ... .. . ... : ... .. . ... : ... .. . ... ... : ... .. . ... ... : ... .. . ... ... : ... .. . ... ...
ROW 0F : D-4 00 A P7C ... ... : ... .. . ... ... ... : ... .. . ... : ... .. . ... : ... .. . ... ... : ... .. . ... ... : ... .. . ... ... : ... .. . ... ...
ROW 10 : ... .. . P80 ... ... : ... .. . ... ... ... : ... .. . ... : ... .. . ... : ... .. . ... ... : ... .. . ... ... : ... .. . ... ... : ... .. . ... ...
ROW 11 : ... .. . P83 ... ... : ... .. . ... ... ... : ... .. . ... : ... .. . ... : ... .. . ... ... : ... .. . ... ... : ... .. . ... ... : ... .. . ... ...
ROW 12 : D#4 00 A P7C ... ... : F-3 00 A ... ... ... : ... .. . ... : ... .. 8 ... : ... .. . ... ... : ... .. . ... ... : ... .. . ... ... : ... .. . ... ...
ROW 13 : ... .. . ... ... ... : ... .. 8 ... ... ... : ... .. . ... : ... .. 6 ... : ... .. . ... ... : ... .. . ... ... : ... .. . ... ... : ... .. . ... ...
ROW 14 : D-4 00 A P82 ... ... : ... .. . ... ... ... : ... .. . ... : ... .. 3 ... : ... .. . ... ... : ... .. . ... ... : ... .. . ... ... : ... .. . ... ...
ROW 15 : ... .. . P7F ... ... : ... .. . ... ... ... : ... .. . ... : ... .. 1 ... : ... .. . ... ... : ... .. . ... ... : ... .. . ... ... : ... .. . ... ...
ROW 16 : ... .. . P7B ... ... : ... .. 6 ... ... ... : ... .. . ... : ... .. . ... : ... .. . ... ... : ... .. . ... ... : ... .. . ... ... : ... .. . ... ...
ROW 17 : C#4 00 A P86 ... ... : ... .. 5 ... ... ... : ... .. . ... : ... .. 0 ... : ... .. . ... ... : ... .. . ... ... : ... .. . ... ... : ... .. . ... ...
ROW 18 : D-4 00 A P7C ... ... : ... .. 4 ... ... ... : ... .. . ... : ... .. . ... : ... .. . ... ... : ... .. . ... ... : ... .. . ... ... : ... .. . ... ...
ROW 19 : ... .. . P80 ... ... : ... .. . ... ... ... : ... .. . ... : ... .. . ... : ... .. . ... ... : ... .. . ... ... : ... .. . ... ... : ... .. . ... ...
ROW 1A : ... .. . P83 ... ... : ... .. . ... ... ... : --- .. . ... : ... .. . ... : ... .. . ... ... : ... .. . ... ... : ... .. . ... ... : ... .. . ... ...
ROW 1B : D#4 00 A P7C ... ... : ... .. . ... ... ... : ... .. . ... : ... .. . ... : ... .. . ... ... : ... .. . ... ... : ... .. . ... ... : ... .. . ... ...
ROW 1C : D-3 00 F P80 V02 ... : D-3 00 A ... ... ... : G-3 00 . ... : ... .. F ... : ... .. . ... ... : ... .. . ... ... : ... .. . ... ... : ... .. . ... ...
ROW 1D : ... .. E ... ... ... : ... .. 8 ... ... ... : ... .. . ... : ... .. C ... : ... .. . ... ... : ... .. . ... ... : ... .. . ... ... : ... .. . ... ...
ROW 1E : ... .. D ... ... ... : ... .. . ... ... ... : ... .. . ... : ... .. 6 ... : ... .. . ... ... : ... .. . ... ... : ... .. . ... ... : ... .. . ... ...
ROW 1F : ... .. A ... ... ... : ... .. . ... ... ... : ... .. . ... : ... .. 3 ... : ... .. . ... ... : ... .. . ... ... : ... .. . ... ... : ... .. . ... ...
ROW 20 : ... .. . ... ... ... : ... .. 6 ... ... ... : ... .. . ... : ... .. 2 ... : ... .. . ... ... : ... .. . ... ... : ... .. . ... ... : ... .. . ... ...
ROW 21 : ... .. . ... ... ... : ... .. 5 ... ... ... : ... .. . ... : ... .. 0 ... : ... .. . ... ... : ... .. . ... ... : ... .. . ... ... : ... .. . ... ...
ROW 22 : ... .. . ... ... ... : ... .. 4 ... ... ... : ... .. . ... : ... .. . ... : ... .. . ... ... : ... .. . ... ... : ... .. . ... ... : ... .. . ... ...
ROW 23 : ... .. . ... ... ... : ... .. . ... ... ... : ... .. . ... : ... .. . ... : ... .. . ... ... : ... .. . ... ... : ... .. . ... ... : ... .. . ... ...
ROW 24 : ... .. . ... ... ... : ... .. . ... ... ... : ... .. . ... : ... .. . ... : ... .. . ... ... : ... .. . ... ... : ... .. . ... ... : ... .. . ... ...
ROW 25 : ... .. . ... ... ... : ... .. . ... ... ... : ... .. . ... : ... .. . ... : ... .. . ... ... : ... .. . ... ... : ... .. . ... ... : ... .. . ... ...
ROW 26 : ... .. . ... ... ... : F-3 00 A ... ... ... : ... .. . ... : ... .. . ... : ... .. . ... ... : ... .. . ... ... : ... .. . ... ... : ... .. 6 ... ...
ROW 27 : ... .. 2 ... ... ... : ... .. 8 ... ... ... : ... .. . ... : ... .. . ... : ... .. . ... ... : ... .. . ... ... : ... .. . ... ... : ... .. . ... ...
ROW 28 : ... .. . ... ... ... : ... .. . ... ... ... : ... .. . ... : ... .. . ... : ... .. . ... ... : ... .. . ... ... : ... .. . ... ... : ... .. . ... ...
ROW 29 : ... .. . ... ... ... : ... .. . ... ... ... : ... .. . ... : ... .. . ... : ... .. . ... ... : ... .. . ... ... : ... .. . ... ... : ... .. . ... ...
ROW 2A : ... .. 1 ... ... ... : ... .. 6 ... ... ... : ... .. . ... : ... .. . ... : ... .. . ... ... : ... .. . ... ... : ... .. . ... ... : ... .. . ... ...
ROW 2B : ... .. . ... ... ... : ... .. 5 ... ... ... : ... .. . ... : ... .. . ... : ... .. . ... ... : ... .. . ... ... : ... .. . ... ... : ... .. . ... ...
ROW 2C : ... .. . ... ... ... : ... .. 4 ... ... ... : ... .. . ... : ... .. . ... : ... .. . ... ... : ... .. . ... ... : ... .. . ... ... : ... .. . ... ...
ROW 2D : ... .. 0 ... V00 ... : ... .. . ... ... ... : ... .. . ... : ... .. . ... : ... .. . ... ... : ... .. . ... ... : ... .. . ... ... : ... .. . ... ...
ROW 2E : ... .. . ... ... ... : ... .. . ... ... ... : --- .. . ... : ... .. . ... : ... .. . ... ... : ... .. . ... ... : ... .. . ... ... : ... .. . ... ...
ROW 2F : ... .. . ... ... ... : ... .. . ... ... ... : ... .. . ... : ... .. . ... : ... .. . ... ... : ... .. . ... ... : ... .. . ... ... : ... .. . ... ...
ROW 30 : C-3 00 F P80 V02 ... : D#3 00 A ... ... ... : G-3 00 . ... : D-# 00 8 ... : ... .. . ... ... : G-2 01 7 ... ... : A#2 01 7 ... ... : D#3 01 D ... ...
ROW 31 : ... .. E ... ... ... : ... .. 8 ... ... ... : ... .. . ... : ... .. 7 ... : ... .. . ... ... : ... .. 6 ... ... : ... .. 6 ... ... : ... .. B ... ...
ROW 32 : ... .. D ... ... ... : ... .. . ... ... ... : ... .. . ... : ... .. . ... : ... .. . ... ... : ... .. . ... ... : ... .. . ... ... : ... .. 6 ... ...
ROW 33 : ... .. A ... ... ... : ... .. . ... ... ... : ... .. . ... : ... .. 6 ... : ... .. . ... ... : ... .. . ... ... : ... .. . ... ... : ... .. . ... ...
ROW 34 : ... .. . ... ... ... : ... .. 6 ... ... ... : ... .. . ... : ... .. 5 ... : ... .. . ... ... : ... .. . ... ... : ... .. . ... ... : ... .. . ... ...
ROW 35 : ... .. . ... ... ... : ... .. 5 ... ... ... : ... .. . ... : ... .. 4 ... : ... .. . ... ... : G#2 01 7 ... ... : B-2 01 7 ... ... : E-3 01 D ... ...
ROW 36 : ... .. . ... ... ... : ... .. 4 ... ... ... : ... .. . ... : ... .. . ... : ... .. . ... ... : ... .. 6 ... ... : ... .. 6 ... ... : ... .. B ... ...
ROW 37 : ... .. . ... ... ... : ... .. . ... ... ... : ... .. . ... : ... .. . ... : ... .. . ... ... : ... .. . ... ... : ... .. . ... ... : ... .. 6 ... ...
ROW 38 : ... .. . ... ... ... : ... .. . ... ... ... : ... .. . ... : ... .. 3 ... : ... .. . ... ... : ... .. . ... ... : ... .. . ... ... : ... .. . ... ...
ROW 39 : ... .. . ... ... ... : ... .. . ... ... ... : ... .. . ... : ... .. . ... : ... .. . ... ... : ... .. . ... ... : ... .. . ... ... : ... .. . ... ...
ROW 3A : ... .. . ... ... ... : F-3 00 A ... ... ... : ... .. . ... : ... .. 2 ... : ... .. . ... ... : A-2 01 8 ... ... : C-3 01 8 ... ... : F-3 01 E ... ...
ROW 3B : ... .. 2 ... ... ... : ... .. 8 ... ... ... : ... .. . ... : ... .. . ... : ... .. . ... ... : ... .. 7 ... ... : ... .. 7 ... ... : ... .. C ... ...
ROW 3C : ... .. . ... ... ... : ... .. . ... ... ... : ... .. . ... : ... .. . ... : ... .. . ... ... : ... .. . ... ... : ... .. . ... ... : ... .. 7 ... ...
ROW 3D : ... .. . ... ... ... : ... .. . ... ... ... : ... .. . ... : ... .. 1 ... : ... .. . ... ... : ... .. . ... ... : ... .. . ... ... : ... .. . ... ...
ROW 3E : ... .. 1 ... ... ... : ... .. 6 ... ... ... : ... .. . ... : ... .. . ... : ... .. . ... ... : ... .. 6 ... ... : ... .. 6 ... ... : ... .. . ... ...
ROW 3F : ... .. . ... ... ... : ... .. 5 ... ... ... : ... .. . ... : ... .. . ... : ... .. . ... ... : A#2 01 8 ... ... : C#3 01 8 ... ... : F#3 01 E ... ...
ROW 40 : ... .. . ... ... ... : ... .. 4 ... ... ... : ... .. . ... : ... .. 0 ... : ... .. . ... ... : ... .. 7 ... ... : ... .. 7 ... ... : ... .. C ... ...
ROW 41 : ... .. 0 ... V00 ... : ... .. . ... ... ... : ... .. . ... : ... .. . ... : ... .. . ... ... : ... .. . ... ... : ... .. . ... ... : ... .. 7 ... ...
ROW 42 : ... .. . ... ... ... : ... .. . ... ... ... : --- .. . ... : ... .. . ... : ... .. . ... ... : ... .. . ... ... : ... .. . ... ... : ... .. . ... ...
ROW 43 : ... .. . ... ... ... : ... .. . ... ... ... : ... .. . ... : ... .. . ... : ... .. . ... ... : ... .. 6 ... ... : ... .. 6 ... ... : ... .. . ... ...
ROW 44 : D#3 00 F P80 V02 ... : D-3 00 A ... ... ... : G-3 00 . ... : ... .. D ... : ... .. . ... ... : B-2 01 9 ... ... : F-3 01 9 ... ... : G-3 01 F ... ...
ROW 45 : ... .. E ... ... ... : ... .. 8 ... ... ... : ... .. . ... : ... .. B ... : ... .. . ... ... : ... .. 8 ... ... : ... .. 8 ... ... : ... .. D ... ...
ROW 46 : ... .. D ... ... ... : ... .. . ... ... ... : ... .. . ... : ... .. . ... : ... .. . ... ... : ... .. . ... ... : ... .. . ... ... : ... .. 8 ... ...
ROW 47 : ... .. A ... ... ... : ... .. . ... ... ... : ... .. . ... : ... .. A ... : ... .. . ... ... : ... .. . ... ... : ... .. . ... ... : ... .. . ... ...
ROW 48 : ... .. . ... ... ... : ... .. 6 ... ... ... : ... .. . ... : ... .. 8 ... : ... .. . ... ... : ... .. 7 ... ... : ... .. 7 ... ... : ... .. . ... ...
ROW 49 : ... .. . ... ... ... : ... .. 5 ... ... ... : ... .. . ... : ... .. 7 ... : ... .. . ... ... : ... .. 6 ... ... : ... .. 6 ... ... : ... .. 7 ... ...
ROW 4A : ... .. . ... ... ... : ... .. 4 ... ... ... : ... .. . ... : ... .. 6 ... : ... .. . ... ... : ... .. . ... ... : ... .. . ... ... : ... .. . ... ...
ROW 4B : ... .. . ... ... ... : ... .. . ... ... ... : ... .. . ... : ... .. . ... : ... .. . ... ... : ... .. 5 ... ... : ... .. 5 ... ... : ... .. . ... ...
ROW 4C : ... .. . ... ... ... : ... .. . ... ... ... : ... .. . ... : ... .. 5 ... : ... .. . ... ... : ... .. . ... ... : ... .. . ... ... : ... .. . ... ...
ROW 4D : ... .. . ... ... ... : ... .. . ... ... ... : ... .. . ... : ... .. . ... : ... .. . ... ... : ... .. . ... ... : ... .. . ... ... : ... .. . ... ...
ROW 4E : ... .. . ... ... ... : F-3 00 A ... ... ... : ... .. . ... : ... .. 4 ... : ... .. . ... ... : ... .. . ... ... : ... .. . ... ... : ... .. . ... ...
ROW 4F : ... .. . ... ... ... : ... .. 8 ... ... ... : ... .. . ... : ... .. . ... : ... .. . ... ... : ... .. . ... ... : ... .. . ... ... : ... .. . ... ...
ROW 50 : ... .. . ... ... ... : ... .. . ... ... ... : ... .. . ... : ... .. 3 ... : ... .. . ... ... : ... .. . ... ... : ... .. . ... ... : ... .. . ... ...
ROW 51 : ... .. . ... ... ... : ... .. . ... ... ... : ... .. . ... : ... .. 2 ... : ... .. . ... ... : ... .. . ... ... : ... .. . ... ... : ... .. . ... ...
ROW 52 : ... .. . ... ... ... : ... .. 6 ... ... ... : ... .. . ... : ... .. . ... : ... .. . ... ... : ... .. . ... ... : ... .. . ... ... : ... .. . ... ...
ROW 53 : ... .. . ... ... ... : ... .. 5 ... ... ... : ... .. . ... : ... .. 1 ... : ... .. . ... ... : ... .. . ... ... : ... .. . ... ... : ... .. 6 ... ...
ROW 54 : ... .. . ... ... ... : ... .. 4 ... ... ... : ... .. . ... : ... .. 0 ... : ... .. . ... ... : ... .. . ... ... : ... .. . ... ... : ... .. . ... ...
ROW 55 : ... .. . ... ... ... : ... .. . ... ... ... : ... .. . ... : ... .. . ... : ... .. . ... ... : ... .. . ... ... : ... .. . ... ... : ... .. . ... ...
ROW 56 : ... .. . ... ... ... : ... .. . ... ... ... : --- .. . ... : ... .. . ... : ... .. . ... ... : ... .. . ... ... : ... .. . ... ... : ... .. . ... ...
ROW 57 : ... .. . ... ... ... : ... .. . ... ... ... : ... .. . ... : ... .. . ... : ... .. . ... ... : ... .. . ... ... : ... .. . ... ... : ... .. . ... ...
ROW 58 : C-3 00 F ... ... ... : D#3 00 A ... ... ... : G-3 00 . ... : 9-# 00 A ... : ... .. . ... ... : ... .. . ... ... : ... .. . ... ... : ... .. . ... ...
ROW 59 : ... .. E ... ... ... : ... .. 8 ... ... ... : ... .. . ... : ... .. 8 ... : ... .. . ... ... : ... .. . ... ... : ... .. . ... ... : ... .. . ... ...
ROW 5A : ... .. D ... ... ... : ... .. . ... ... ... : ... .. . ... : ... .. 4 ... : ... .. . ... ... : ... .. . ... ... : ... .. . ... ... : ... .. . ... ...
ROW 5B : ... .. A ... ... ... : ... .. . ... ... ... : ... .. . ... : ... .. 2 ... : ... .. . ... ... : ... .. . ... ... : ... .. . ... ... : ... .. . ... ...
ROW 5C : ... .. . ... ... ... : ... .. 6 ... ... ... : ... .. . ... : ... .. 1 ... : ... .. . ... ... : ... .. . ... ... : ... .. . ... ... : ... .. . ... ...
ROW 5D : ... .. . ... ... ... : ... .. 5 ... ... ... : ... .. . ... : ... .. 0 ... : ... .. . ... ... : ... .. 4 ... ... : ... .. 4 ... ... : ... .. . ... ...
ROW 5E : ... .. . ... ... ... : ... .. 4 ... ... ... : ... .. . ... : ... .. . ... : ... .. . ... ... : ... .. . ... ... : ... .. . ... ... : ... .. . ... ...
ROW 5F : ... .. . ... ... ... : ... .. . ... ... ... : ... .. . ... : ... .. 8 ... : ... .. . ... ... : ... .. . ... ... : ... .. . ... ... : ... .. . ... ...
ROW 60 : ... .. . ... ... ... : ... .. . ... ... ... : ... .. . ... : ... .. 6 ... : ... .. . ... ... : ... .. . ... ... : ... .. . ... ... : ... .. . ... ...
ROW 61 : ... .. . ... ... ... : ... .. . ... ... ... : ... .. . ... : ... .. 3 ... : ... .. . ... ... : ... .. . ... ... : ... .. . ... ... : ... .. . ... ...
ROW 62 : ... .. . ... ... ... : F-3 00 A ... ... ... : ... .. . ... : ... .. 1 ... : ... .. . ... ... : ... .. . ... ... : ... .. . ... ... : ... .. . ... ...
ROW 63 : ... .. 2 ... ... ... : ... .. 8 ... ... ... : ... .. . ... : ... .. . ... : ... .. . ... ... : ... .. . ... ... : ... .. . ... ... : ... .. . ... ...
ROW 64 : ... .. . ... ... ... : ... .. . ... ... ... : ... .. . ... : ... .. 0 ... : ... .. . ... ... : ... .. . ... ... : ... .. . ... ... : ... .. . ... ...
ROW 65 : ... .. . ... ... ... : ... .. . ... ... ... : ... .. . ... : ... .. C ... : ... .. . ... ... : ... .. . ... ... : ... .. . ... ... : ... .. . ... ...
ROW 66 : ... .. 1 ... ... ... : ... .. 6 ... ... ... : ... .. . ... : ... .. 9 ... : ... .. . ... ... : ... .. . ... ... : ... .. . ... ... : ... .. . ... ...
ROW 67 : ... .. . ... ... ... : ... .. 5 ... ... ... : ... .. . ... : ... .. 4 ... : ... .. . ... ... : ... .. . ... ... : ... .. . ... ... : ... .. 5 ... ...
ROW 68 : ... .. . ... ... ... : ... .. 4 ... ... ... : ... .. . ... : ... .. 2 ... : ... .. . ... ... : ... .. . ... ... : ... .. . ... ... : ... .. . ... ...
ROW 69 : ... .. 0 ... V00 ... : ... .. . ... ... ... : ... .. . ... : ... .. 1 ... : ... .. . ... ... : ... .. . ... ... : ... .. . ... ... : ... .. . ... ...
ROW 6A : ... .. . ... ... ... : ... .. . ... ... ... : --- .. . ... : ... .. 0 ... : ... .. . ... ... : ... .. . ... ... : ... .. . ... ... : ... .. . ... ...
ROW 6B : ... .. . ... ... ... : ... .. . ... ... ... : ... .. . ... : ... .. . ... : ... .. . ... ... : ... .. . ... ... : ... .. . ... ... : ... .. . ... ...
ROW 6C : D-3 00 F P80 V02 ... : D-3 00 A ... ... ... : G-3 00 . ... : ... .. F ... : ... .. . ... ... : ... .. . ... ... : ... .. . ... ... : ... .. . ... ...
ROW 6D : ... .. E ... ... ... : ... .. 8 ... ... ... : ... .. . ... : ... .. C ... : ... .. . ... ... : ... .. . ... ... : ... .. . ... ... : ... .. . ... ...
ROW 6E : ... .. D ... ... ... : ... .. . ... ... ... : ... .. . ... : ... .. 6 ... : ... .. . ... ... : ... .. . ... ... : ... .. . ... ... : ... .. . ... ...
ROW 6F : ... .. A ... ... ... : ... .. . ... ... ... : ... .. . ... : ... .. 3 ... : ... .. . ... ... : ... .. . ... ... : ... .. . ... ... : ... .. . ... ...
ROW 70 : ... .. . ... ... ... : ... .. 6 ... ... ... : ... .. . ... : ... .. 2 ... : ... .. . ... ... : ... .. . ... ... : ... .. . ... ... : ... .. . ... ...
ROW 71 : ... .. . ... ... ... : ... .. 5 ... ... ... : ... .. . ... : ... .. 0 ... : ... .. . ... ... : ... .. . ... ... : ... .. . ... ... : ... .. . ... ...
ROW 72 : ... .. . ... ... ... : ... .. 4 ... ... ... : ... .. . ... : ... .. . ... : ... .. . ... ... : ... .. . ... ... : ... .. . ... ... : ... .. . ... ...
ROW 73 : ... .. . ... ... ... : ... .. . ... ... ... : ... .. . ... : ... .. . ... : ... .. . ... ... : ... .. . ... ... : ... .. . ... ... : ... .. . ... ...
ROW 74 : ... .. . ... ... ... : ... .. . ... ... ... : ... .. . ... : ... .. . ... : ... .. . ... ... : ... .. . ... ... : ... .. . ... ... : ... .. . ... ...
ROW 75 : ... .. . ... ... ... : ... .. . ... ... ... : ... .. . ... : ... .. . ... : ... .. . ... ... : ... .. . ... ... : ... .. . ... ... : ... .. . ... ...
ROW 76 : ... .. . ... ... ... : F-3 00 A ... ... ... : ... .. . ... : ... .. . ... : ... .. . ... ... : ... .. . ... ... : ... .. . ... ... : ... .. . ... ...
ROW 77 : ... .. . ... ... ... : ... .. 8 ... ... ... : ... .. . ... : ... .. . ... : ... .. . ... ... : ... .. . ... ... : ... .. . ... ... : ... .. . ... ...
ROW 78 : ... .. . ... ... ... : ... .. . ... ... ... : ... .. . ... : ... .. . ... : ... .. . ... ... : ... .. . ... ... : ... .. . ... ... : ... .. . ... ...
ROW 79 : ... .. . ... ... ... : ... .. . ... ... ... : ... .. . ... : ... .. . ... : ... .. . ... ... : ... .. . ... ... : ... .. . ... ... : ... .. . ... ...
ROW 7A : ... .. . ... ... ... : ... .. 6 ... ... ... : ... .. . ... : ... .. . ... : ... .. . ... ... : ... .. . ... ... : ... .. . ... ... : ... .. . ... ...
ROW 7B : ... .. . ... ... ... : ... .. 5 ... ... ... : ... .. . ... : ... .. . ... : ... .. . ... ... : ... .. 3 ... ... : ... .. 3 ... ... : ... .. 4 ... ...
ROW 7C : ... .. . ... ... ... : ... .. 4 ... ... ... : ... .. . ... : ... .. . ... : ... .. . ... ... : ... .. . ... ... : ... .. . ... ... : ... .. . ... ...
ROW 7D : ... .. . ... ... ... : ... .. . ... ... ... : ... .. . ... : ... .. . ... : ... .. . ... ... : ... .. . ... ... : ... .. . ... ... : ... .. . ... ...
ROW 7E : ... .. . ... ... ... : ... .. . ... ... ... : --- .. . ... : ... .. . ... : ... .. . ... ... : ... .. . ... ... : ... .. . ... ... : ... .. . ... ...
ROW 7F : ... .. . ... ... ... : ... .. . ... ... ... : ... .. . ... : ... .. . ... : ... .. . ... ... : ... .. . ... ... : ... .. . ... ... : ... .. . ... ...
ROW 80 : F-4 00 F ... V01 ... : D#3 00 A ... ... ... : G-3 00 . ... : ... .. . ... : ... .. . ... ... : ... .. . ... ... : ... .. . ... ... : ... .. . ... ...
ROW 81 : ... .. E ... ... ... : ... .. 8 ... ... ... : ... .. . ... : ... .. . ... : ... .. . ... ... : ... .. . ... ... : ... .. . ... ... : ... .. . ... ...
ROW 82 : ... .. D ... ... ... : ... .. . ... ... ... : ... .. . ... : ... .. . ... : ... .. . ... ... : ... .. . ... ... : ... .. . ... ... : ... .. . ... ...
ROW 83 : ... .. A ... ... ... : ... .. . ... ... ... : ... .. . ... : ... .. . ... : ... .. . ... ... : ... .. . ... ... : ... .. . ... ... : ... .. . ... ...
ROW 84 : ... .. . ... ... ... : ... .. 6 ... ... ... : ... .. . ... : ... .. . ... : ... .. . ... ... : ... .. . ... ... : ... .. . ... ... : ... .. . ... ...
ROW 85 : ... .. . ... ... ... : ... .. 5 ... ... ... : ... .. . ... : ... .. . ... : ... .. . ... ... : ... .. . ... ... : ... .. . ... ... : ... .. . ... ...
ROW 86 : ... .. 2 ... ... ... : ... .. 4 ... ... ... : ... .. . ... : ... .. . ... : ... .. . ... ... : ... .. . ... ... : ... .. . ... ... : ... .. . ... ...
ROW 87 : ... .. . ... ... ... : ... .. . ... ... ... : ... .. . ... : ... .. . ... : ... .. . ... ... : ... .. . ... ... : ... .. . ... ... : ... .. . ... ...
ROW 88 : ... .. . ... ... ... : ... .. . ... ... ... : ... .. . ... : ... .. . ... : ... .. . ... ... : ... .. . ... ... : ... .. . ... ... : ... .. . ... ...
ROW 89 : ... .. 1 ... ... ... : ... .. . ... ... ... : ... .. . ... : ... .. . ... : ... .. . ... ... : ... .. . ... ... : ... .. . ... ... : ... .. . ... ...
ROW 8A : G-4 00 F ... ... ... : F-3 00 A ... ... ... : ... .. . ... : ... .. . ... : ... .. . ... ... : ... .. . ... ... : ... .. . ... ... : ... .. . ... ...
ROW 8B : ... .. E ... ... ... : ... .. 8 ... ... ... : ... .. . ... : ... .. . ... : ... .. . ... ... : ... .. . ... ... : ... .. . ... ... : ... .. . ... ...
ROW 8C : ... .. D ... ... ... : ... .. . ... ... ... : ... .. . ... : ... .. . ... : ... .. . ... ... : ... .. . ... ... : ... .. . ... ... : ... .. . ... ...
ROW 8D : ... .. A ... ... ... : ... .. . ... ... ... : ... .. . ... : ... .. . ... : ... .. . ... ... : ... .. . ... ... : ... .. . ... ... : ... .. . ... ...
ROW 8E : ... .. . ... ... ... : ... .. 6 ... ... ... : ... .. . ... : ... .. . ... : ... .. . ... ... : ... .. . ... ... : ... .. . ... ... : ... .. . ... ...
ROW 8F : ... .. . ... ... ... : ... .. 5 ... ... ... : ... .. . ... : ... .. . ... : ... .. . ... ... : ... .. . ... ... : ... .. . ... ... : ... .. . ... ...
ROW 90 : ... .. 2 ... ... ... : ... .. 4 ... ... ... : ... .. . ... : ... .. . ... : ... .. . ... ... : ... .. . ... ... : ... .. . ... ... : ... .. . ... ...
ROW 91 : ... .. . ... ... ... : ... .. . ... ... ... : ... .. . ... : ... .. . ... : ... .. . ... ... : ... .. . ... ... : ... .. . ... ... : ... .. . ... ...
ROW 92 : ... .. . ... ... ... : ... .. . ... ... ... : --- .. . ... : ... .. . ... : ... .. . ... ... : ... .. . ... ... : ... .. . ... ... : ... .. . ... ...
ROW 93 : ... .. 1 ... ... ... : ... .. . ... ... ... : ... .. . ... : ... .. . ... : ... .. . ... ... : ... .. . ... ... : ... .. . ... ... : ... .. . ... ...
ROW 94 : G#4 00 F ... ... ... : G-3 00 A ... ... ... : F-3 00 . ... : D-# 00 D V01 : ... .. . ... ... : F-2 01 4 ... ... : C-3 01 4 ... ... : G#3 01 8 ... ...
ROW 95 : ... .. E ... ... ... : ... .. 8 ... ... ... : ... .. . ... : ... .. B ... : ... .. . ... ... : ... .. . ... ... : ... .. . ... ... : ... .. 6 ... ...
ROW 96 : ... .. D ... ... ... : ... .. . ... ... ... : ... .. . ... : ... .. . ... : ... .. . ... ... : ... .. . ... ... : ... .. . ... ... : ... .. 4 ... ...
ROW 97 : ... .. A ... ... ... : ... .. . ... ... ... : ... .. . ... : ... .. A ... : ... .. . ... ... : ... .. . ... ... : ... .. . ... ... : ... .. . ... ...
ROW 98 : ... .. . ... ... ... : ... .. 6 ... ... ... : ... .. . ... : ... .. 8 ... : ... .. . ... ... : ... .. 3 ... ... : ... .. 3 ... ... : ... .. . ... ...
ROW 99 : ... .. . ... ... ... : ... .. 5 ... ... ... : ... .. . ... : ... .. 7 ... : ... .. . ... ... : ... .. . ... ... : ... .. . ... ... : ... .. . ... ...
ROW 9A : ... .. . ... ... ... : ... .. 4 ... ... ... : ... .. . ... : ... .. 6 ... : ... .. . ... ... : ... .. . ... ... : ... .. . ... ... : ... .. . ... ...
ROW 9B : ... .. . ... ... ... : ... .. . ... ... ... : ... .. . ... : ... .. . ... : ... .. . ... ... : ... .. . ... ... : ... .. . ... ... : ... .. . ... ...
ROW 9C : ... .. . ... ... ... : ... .. . ... ... ... : ... .. . ... : ... .. 5 ... : ... .. . ... ... : ... .. . ... ... : ... .. . ... ... : ... .. . ... ...
ROW 9D : ... .. . ... ... ... : ... .. . ... ... ... : ... .. . ... : ... .. . ... : ... .. . ... ... : ... .. . ... ... : ... .. . ... ... : ... .. . ... ...
ROW 9E : ... .. . ... ... ... : ... .. A ... ... ... : ... .. . ... : ... .. 4 ... : ... .. . ... ... : ... .. . ... ... : ... .. . ... ... : ... .. . ... ...
ROW 9F : ... .. . ... ... ... : ... .. 8 ... ... ... : ... .. . ... : ... .. . ... : ... .. . ... ... : ... .. . ... ... : ... .. . ... ... : ... .. . ... ...
ROW A0 : ... .. . ... ... ... : ... .. . ... ... ... : ... .. . ... : ... .. 3 ... : ... .. . ... ... : ... .. . ... ... : ... .. . ... ... : ... .. . ... ...
ROW A1 : ... .. . ... ... ... : ... .. . ... ... ... : ... .. . ... : ... .. 2 ... : ... .. . ... ... : ... .. . ... ... : ... .. . ... ... : ... .. . ... ...
ROW A2 : ... .. . ... ... ... : ... .. 6 ... ... ... : ... .. . ... : ... .. . ... : ... .. . ... ... : ... .. . ... ... : ... .. . ... ... : ... .. . ... ...
ROW A3 : ... .. . ... ... ... : ... .. 5 ... ... ... : ... .. . ... : ... .. 1 ... : ... .. . ... ... : ... .. 4 ... ... : ... .. 4 ... ... : ... .. 5 ... ...
ROW A4 : ... .. . ... ... ... : ... .. 4 ... ... ... : ... .. . ... : ... .. 0 ... : ... .. . ... ... : ... .. . ... ... : ... .. . ... ... : ... .. . ... ...
ROW A5 : ... .. . ... ... ... : ... .. . ... ... ... : ... .. . ... : ... .. . ... : ... .. . ... ... : ... .. . ... ... : ... .. . ... ... : ... .. . ... ...
ROW A6 : ... .. . ... ... ... : ... .. . ... ... ... : --- .. . ... : ... .. . ... : ... .. . ... ... : ... .. . ... ... : ... .. . ... ... : ... .. . ... ...
ROW A7 : ... .. . ... ... ... : ... .. . ... ... ... : ... .. . ... : ... .. . ... : ... .. . ... ... : ... .. . ... ... : ... .. . ... ... : ... .. . ... ...
ROW A8 : ... .. . ... ... ... : D#3 00 A ... ... ... : G-3 00 . ... : 9-# 00 A V00 : ... .. . ... ... : ... .. . ... ... : ... .. . ... ... : ... .. . ... ...
ROW A9 : ... .. . ... ... ... : ... .. 8 ... ... ... : ... .. . ... : ... .. 8 ... : ... .. . ... ... : ... .. . ... ... : ... .. . ... ... : ... .. . ... ...
ROW AA : ... .. . ... ... ... : ... .. . ... ... ... : ... .. . ... : ... .. 4 ... : ... .. . ... ... : ... .. . ... ... : ... .. . ... ... : ... .. . ... ...
ROW AB : ... .. . ... ... ... : ... .. . ... ... ... : ... .. . ... : ... .. 2 ... : ... .. . ... ... : ... .. . ... ... : ... .. . ... ... : ... .. . ... ...
ROW AC : ... .. . ... ... ... : ... .. 6 ... ... ... : ... .. . ... : ... .. 1 ... : ... .. . ... ... : ... .. . ... ... : ... .. . ... ... : ... .. . ... ...
ROW AD : ... .. . ... ... ... : ... .. 5 ... ... ... : ... .. . ... : ... .. 0 ... : ... .. . ... ... : ... .. . ... ... : ... .. . ... ... : ... .. 6 ... ...
ROW AE : ... .. . ... ... ... : ... .. 4 ... ... ... : ... .. . ... : ... .. . ... : ... .. . ... ... : ... .. . ... ... : ... .. . ... ... : ... .. . ... ...
ROW AF : ... .. . ... ... ... : ... .. . ... ... ... : ... .. . ... : ... .. . ... : ... .. . ... ... : ... .. . ... ... : ... .. . ... ... : ... .. . ... ...
ROW B0 : ... .. . ... ... ... : ... .. . ... ... ... : ... .. . ... : ... .. . ... : ... .. . ... ... : ... .. . ... ... : ... .. . ... ... : ... .. . ... ...
ROW B1 : ... .. . ... ... ... : ... .. . ... ... ... : ... .. . ... : ... .. . ... : ... .. . ... ... : ... .. . ... ... : ... .. . ... ... : ... .. . ... ...
ROW B2 : ... .. . ... ... ... : ... .. A ... ... ... : ... .. . ... : ... .. 8 ... : ... .. . ... ... : ... .. 5 ... ... : ... .. 5 ... ... : ... .. . ... ...
ROW B3 : ... .. . ... ... ... : ... .. 8 ... ... ... : ... .. . ... : ... .. 6 ... : ... .. . ... ... : ... .. . ... ... : ... .. . ... ... : ... .. . ... ...
ROW B4 : ... .. . ... ... ... : ... .. . ... ... ... : ... .. . ... : ... .. 3 ... : ... .. . ... ... : ... .. . ... ... : ... .. . ... ... : ... .. . ... ...
ROW B5 : ... .. . ... ... ... : ... .. . ... ... ... : ... .. . ... : ... .. 1 ... : ... .. . ... ... : ... .. . ... ... : ... .. . ... ... : ... .. . ... ...
ROW B6 : ... .. . ... ... ... : ... .. 6 ... ... ... : ... .. . ... : ... .. . ... : ... .. . ... ... : ... .. . ... ... : ... .. . ... ... : ... .. . ... ...
ROW B7 : ... .. . ... ... ... : ... .. 5 ... ... ... : ... .. . ... : ... .. 0 ... : ... .. . ... ... : ... .. . ... ... : ... .. . ... ... : ... .. 7 ... ...
ROW B8 : ... .. . ... ... ... : ... .. 4 ... ... ... : ... .. . ... : ... .. . ... : ... .. . ... ... : ... .. . ... ... : ... .. . ... ... : ... .. . ... ...
ROW B9 : ... .. . ... ... ... : ... .. . ... ... ... : ... .. . ... : ... .. . ... : ... .. . ... ... : ... .. . ... ... : ... .. . ... ... : ... .. . ... ...
ROW BA : ... .. . ... ... ... : ... .. . ... ... ... : --- .. . ... : ... .. . ... : ... .. . ... ... : ... .. . ... ... : ... .. . ... ... : ... .. . ... ...
ROW BB : ... .. . ... ... ... : ... .. . ... ... ... : ... .. . ... : ... .. . ... : ... .. . ... ... : ... .. . ... ... : ... .. . ... ... : ... .. . ... ...
ROW BC : C-5 00 F ... ... ... : C-3 00 A ... ... ... : G#3 00 . ... : ... .. F ... : ... .. . ... ... : G#2 01 9 ... ... : ... .. 9 ... ... : F-3 01 F ... ...
ROW BD : ... .. E ... ... ... : ... .. 8 ... ... ... : ... .. . ... : ... .. C ... : ... .. . ... ... : ... .. 8 ... ... : ... .. 8 ... ... : ... .. D ... ...
ROW BE : ... .. D ... ... ... : ... .. . ... ... ... : ... .. . ... : ... .. 6 ... : ... .. . ... ... : ... .. . ... ... : ... .. . ... ... : ... .. 8 ... ...
ROW BF : ... .. A ... ... ... : ... .. . ... ... ... : ... .. . ... : ... .. 3 ... : ... .. . ... ... : ... .. . ... ... : ... .. . ... ... : ... .. . ... ...
ROW C0 : ... .. . ... ... ... : ... .. 6 ... ... ... : ... .. . ... : ... .. 2 ... : ... .. . ... ... : ... .. 7 ... ... : ... .. 7 ... ... : ... .. . ... ...
ROW C1 : ... .. . ... ... ... : ... .. 5 ... ... ... : ... .. . ... : ... .. 0 ... : ... .. . ... ... : ... .. 6 ... ... : ... .. 6 ... ... : ... .. 7 ... ...
ROW C2 : ... .. . ... ... ... : ... .. 4 ... ... ... : ... .. . ... : ... .. . ... : ... .. . ... ... : ... .. . ... ... : ... .. . ... ... : ... .. . ... ...
ROW C3 : ... .. . ... ... ... : ... .. . ... ... ... : ... .. . ... : ... .. . ... : ... .. . ... ... : ... .. 5 ... ... : ... .. 5 ... ... : ... .. . ... ...
ROW C4 : ... .. . ... ... ... : ... .. . ... ... ... : ... .. . ... : ... .. . ... : ... .. . ... ... : ... .. . ... ... : ... .. . ... ... : ... .. . ... ...
ROW C5 : ... .. . ... ... ... : ... .. . ... ... ... : ... .. . ... : ... .. . ... : ... .. . ... ... : ... .. . ... ... : ... .. . ... ... : ... .. . ... ...
ROW C6 : ... .. . ... ... ... : ... .. A ... ... ... : ... .. . ... : ... .. . ... : ... .. . ... ... : ... .. . ... ... : ... .. . ... ... : ... .. 6 ... ...
ROW C7 : ... .. . ... ... ... : ... .. 8 ... ... ... : ... .. . ... : ... .. . ... : ... .. . ... ... : ... .. . ... ... : ... .. . ... ... : ... .. . ... ...
ROW C8 : ... .. . ... ... ... : ... .. . ... ... ... : ... .. . ... : ... .. . ... : ... .. . ... ... : ... .. . ... ... : ... .. . ... ... : ... .. . ... ...
ROW C9 : ... .. . ... ... ... : ... .. . ... ... ... : ... .. . ... : ... .. . ... : ... .. . ... ... : ... .. . ... ... : ... .. . ... ... : ... .. . ... ...
ROW CA : ... .. . ... ... ... : ... .. 6 ... ... ... : ... .. . ... : ... .. . ... : ... .. . ... ... : ... .. . ... ... : ... .. . ... ... : ... .. . ... ...
ROW CB : ... .. . ... ... ... : ... .. 5 ... ... ... : ... .. . ... : ... .. . ... : ... .. . ... ... : ... .. 4 ... ... : ... .. 4 ... ... : ... .. . ... ...
ROW CC : ... .. . ... ... ... : ... .. 4 ... ... ... : ... .. . ... : ... .. . ... : ... .. . ... ... : ... .. . ... ... : ... .. . ... ... : ... .. . ... ...
ROW CD : ... .. . ... ... ... : ... .. . ... ... ... : ... .. . ... : ... .. . ... : ... .. . ... ... : ... .. . ... ... : ... .. . ... ... : ... .. . ... ...
ROW CE : ... .. . ... ... ... : ... .. . ... ... ... : --- .. . ... : ... .. . ... : ... .. . ... ... : ... .. . ... ... : ... .. . ... ... : ... .. . ... ...
ROW CF : ... .. . ... ... ... : ... .. . ... ... ... : ... .. . ... : ... .. . ... : ... .. . ... ... : ... .. . ... ... : ... .. . ... ... : ... .. . ... ...
ROW D0 : ... .. . ... ... ... : G#2 00 A ... ... ... : G-3 00 . ... : D-# 00 F ... : ... .. . ... ... : ... .. . ... ... : ... .. . ... ... : ... .. 5 ... ...
ROW D1 : ... .. 2 ... ... ... : ... .. 8 ... ... ... : ... .. . ... : ... .. C ... : ... .. . ... ... : ... .. . ... ... : ... .. . ... ... : ... .. . ... ...
ROW D2 : ... .. . ... ... ... : ... .. . ... ... ... : ... .. . ... : ... .. 6 ... : ... .. . ... ... : ... .. . ... ... : ... .. . ... ... : ... .. . ... ...
ROW D3 : ... .. . ... ... ... : ... .. . ... ... ... : ... .. . ... : ... .. 3 ... : ... .. . ... ... : ... .. . ... ... : ... .. . ... ... : ... .. . ... ...
ROW D4 : ... .. 1 ... ... ... : ... .. 6 ... ... ... : ... .. . ... : ... .. 2 ... : ... .. . ... ... : ... .. . ... ... : ... .. . ... ... : ... .. . ... ...
ROW D5 : ... .. . ... ... ... : ... .. 5 ... ... ... : ... .. . ... : ... .. 0 ... : ... .. . ... ... : ... .. . ... ... : ... .. . ... ... : ... .. . ... ...
ROW D6 : ... .. . ... ... ... : ... .. 4 ... ... ... : ... .. . ... : ... .. . ... : ... .. . ... ... : ... .. . ... ... : ... .. . ... ... : ... .. . ... ...
ROW D7 : ... .. 0 ... V00 ... : ... .. . ... ... ... : ... .. . ... : ... .. . ... : ... .. . ... ... : ... .. . ... ... : ... .. . ... ... : ... .. . ... ...
ROW D8 : ... .. . ... ... ... : ... .. . ... ... ... : ... .. . ... : ... .. . ... : ... .. . ... ... : ... .. . ... ... : ... .. . ... ... : ... .. . ... ...
ROW D9 : ... .. . ... ... ... : ... .. . ... ... ... : ... .. . ... : ... .. . ... : ... .. . ... ... : ... .. . ... ... : ... .. . ... ... : ... .. . ... ...
ROW DA : B-4 00 F P80 V01 ... : ... .. A ... ... ... : ... .. . ... : ... .. . ... : ... .. . ... ... : ... .. 3 ... ... : ... .. 3 ... ... : ... .. 4 ... ...
ROW DB : ... .. E ... ... ... : ... .. 8 ... ... ... : ... .. . ... : ... .. . ... : ... .. . ... ... : ... .. . ... ... : ... .. . ... ... : ... .. . ... ...
ROW DC : ... .. D ... ... ... : ... .. . ... ... ... : ... .. . ... : ... .. . ... : ... .. . ... ... : ... .. . ... ... : ... .. . ... ... : ... .. . ... ...
ROW DD : ... .. A ... ... ... : ... .. . ... ... ... : ... .. . ... : ... .. . ... : ... .. . ... ... : ... .. . ... ... : ... .. . ... ... : ... .. . ... ...
ROW DE : ... .. . ... ... ... : ... .. 6 ... ... ... : ... .. . ... : ... .. . ... : ... .. . ... ... : ... .. . ... ... : ... .. . ... ... : ... .. . ... ...
ROW DF : C-5 00 F ... ... ... : ... .. 5 ... ... ... : ... .. . ... : ... .. . ... : ... .. . ... ... : ... .. . ... ... : ... .. . ... ... : ... .. . ... ...
ROW E0 : ... .. E ... ... ... : ... .. 4 ... ... ... : ... .. . ... : ... .. . ... : ... .. . ... ... : ... .. . ... ... : ... .. . ... ... : ... .. . ... ...
ROW E1 : ... .. D ... ... ... : ... .. . ... ... ... : ... .. . ... : ... .. . ... : ... .. . ... ... : ... .. . ... ... : ... .. . ... ... : ... .. . ... ...
ROW E2 : ... .. A ... ... ... : ... .. . ... ... ... : --- .. . ... : ... .. . ... : ... .. . ... ... : ... .. . ... ... : ... .. . ... ... : ... .. . ... ...
ROW E3 : ... .. . ... ... ... : ... .. . ... ... ... : ... .. . ... : ... .. . ... : ... .. . ... ... : ... .. . ... ... : ... .. . ... ... : ... .. . ... ...
ROW E4 : D-5 00 F ... ... ... : C-3 00 A ... ... ... : F-3 00 . ... : ... .. D ... : ... .. . ... ... : G#1 01 4 ... ... : F-2 01 4 ... ... : C-3 01 8 ... ...
ROW E5 : ... .. E ... ... ... : ... .. 8 ... ... ... : ... .. . ... : ... .. B ... : ... .. . ... ... : ... .. . ... ... : ... .. . ... ... : ... .. 6 ... ...
ROW E6 : ... .. D ... ... ... : ... .. . ... ... ... : ... .. . ... : ... .. . ... : ... .. . ... ... : ... .. . ... ... : ... .. . ... ... : ... .. 4 ... ...
ROW E7 : ... .. A ... ... ... : ... .. . ... ... ... : ... .. . ... : ... .. A ... : ... .. . ... ... : ... .. . ... ... : ... .. . ... ... : ... .. . ... ...
ROW E8 : ... .. . ... ... ... : ... .. 6 ... ... ... : ... .. . ... : ... .. 8 ... : ... .. . ... ... : ... .. 3 ... ... : ... .. 3 ... ... : ... .. . ... ...
ROW E9 : ... .. . ... ... ... : ... .. 5 ... ... ... : ... .. . ... : ... .. 7 ... : ... .. . ... ... : ... .. . ... ... : ... .. . ... ... : ... .. . ... ...
ROW EA : ... .. . ... ... ... : ... .. 4 ... ... ... : ... .. . ... : ... .. 6 ... : ... .. . ... ... : ... .. . ... ... : ... .. . ... ... : ... .. . ... ...
ROW EB : ... .. . ... ... ... : ... .. . ... ... ... : ... .. . ... : ... .. . ... : ... .. . ... ... : ... .. . ... ... : ... .. . ... ... : ... .. . ... ...
ROW EC : ... .. . ... ... ... : ... .. . ... ... ... : ... .. . ... : ... .. 5 ... : ... .. . ... ... : ... .. . ... ... : ... .. . ... ... : ... .. . ... ...
ROW ED : ... .. . ... ... ... : ... .. . ... ... ... : ... .. . ... : ... .. . ... : ... .. . ... ... : ... .. . ... ... : ... .. . ... ... : ... .. . ... ...
ROW EE : ... .. . ... ... ... : ... .. A ... ... ... : ... .. . ... : ... .. 4 ... : ... .. . ... ... : ... .. . ... ... : ... .. . ... ... : ... .. . ... ...
ROW EF : ... .. . ... ... ... : ... .. 8 ... ... ... : ... .. . ... : ... .. . ... : ... .. . ... ... : ... .. . ... ... : ... .. . ... ... : ... .. . ... ...
ROW F0 : ... .. . ... ... ... : ... .. . ... ... ... : ... .. . ... : ... .. 3 ... : ... .. . ... ... : ... .. . ... ... : ... .. . ... ... : ... .. . ... ...
ROW F1 : ... .. . ... ... ... : ... .. . ... ... ... : ... .. . ... : ... .. 2 ... : ... .. . ... ... : ... .. . ... ... : ... .. . ... ... : ... .. . ... ...
ROW F2 : ... .. . ... ... ... : ... .. 6 ... ... ... : ... .. . ... : ... .. . ... : ... .. . ... ... : ... .. . ... ... : ... .. . ... ... : ... .. . ... ...
ROW F3 : ... .. . ... ... ... : ... .. 5 ... ... ... : ... .. . ... : ... .. 1 ... : ... .. . ... ... : ... .. 4 ... ... : ... .. 4 ... ... : ... .. 5 ... ...
ROW F4 : ... .. . ... ... ... : ... .. 4 ... ... ... : ... .. . ... : ... .. 0 ... : ... .. . ... ... : ... .. . ... ... : ... .. . ... ... : ... .. . ... ...
ROW F5 : ... .. . ... ... ... : ... .. . ... ... ... : ... .. . ... : ... .. . ... : ... .. . ... ... : ... .. . ... ... : ... .. . ... ... : ... .. . ... ...
ROW F6 : ... .. . ... ... ... : ... .. . ... ... ... : --- .. . ... : ... .. . ... : ... .. . ... ... : ... .. . ... ... : ... .. . ... ... : ... .. . ... ...
ROW F7 : ... .. . ... ... ... : ... .. . ... ... ... : ... .. . ... : ... .. . ... : ... .. . ... ... : ... .. . ... ... : ... .. . ... ... : ... .. . ... ...
ROW F8 : ... .. . ... ... ... : D#3 00 A ... ... ... : G#3 00 . ... : 9-# 00 A ... : ... .. . ... ... : ... .. . ... ... : ... .. . ... ... : ... .. . ... ...
ROW F9 : ... .. . ... ... ... : ... .. 8 ... ... ... : ... .. . ... : ... .. 8 ... : ... .. . ... ... : ... .. . ... ... : ... .. . ... ... : ... .. . ... ...
ROW FA : ... .. . ... ... ... : ... .. . ... ... ... : ... .. . ... : ... .. 4 ... : ... .. . ... ... : ... .. . ... ... : ... .. . ... ... : ... .. . ... ...
ROW FB : ... .. . ... ... ... : ... .. . ... ... ... : ... .. . ... : ... .. 2 ... : ... .. . ... ... : ... .. . ... ... : ... .. . ... ... : ... .. . ... ...
ROW FC : ... .. . ... ... ... : ... .. 6 ... ... ... : ... .. . ... : ... .. 1 ... : ... .. . ... ... : ... .. . ... ... : ... .. . ... ... : ... .. . ... ...
ROW FD : ... .. . ... ... ... : ... .. 5 ... ... ... : ... .. . ... : ... .. 0 ... : ... .. . ... ... : ... .. . ... ... : ... .. . ... ... : ... .. 6 ... ...
ROW FE : ... .. . ... ... ... : ... .. 4 ... ... ... : ... .. . ... : ... .. . ... : ... .. . ... ... : ... .. . ... ... : ... .. . ... ... : ... .. . ... ...
ROW FF : ... .. . ... ... ... : ... .. . ... ... ... : ... .. . ... : ... .. . ... : ... .. . ... ... : ... .. . ... ... : ... .. . ... ... : ... .. . ... ...

PATTERN 0D
ROW 00 : ... .. . ... ... ... : ... .. . ... ... ... : ... .. . ... : ... .. . ... : ... .. . ... ... : ... .. . ... ... : ... .. . ... ... : ... .. . ... ...
ROW 01 : ... .. . ... ... ... : ... .. . ... ... ... : ... .. . ... : ... .. . ... : ... .. . ... ... : ... .. . ... ... : ... .. . ... ... : ... .. . ... ...
ROW 02 : ... .. . P82 ... ... : ... .. A ... ... ... : ... .. . ... : ... .. 8 ... : ... .. . ... ... : ... .. 5 ... ... : ... .. 5 ... ... : ... .. . ... ...
ROW 03 : D#5 00 A P7E ... ... : ... .. 8 ... ... ... : ... .. . ... : ... .. 6 ... : ... .. . ... ... : ... .. . ... ... : ... .. . ... ... : ... .. . ... ...
ROW 04 : ... .. . ... ... ... : ... .. . ... ... ... : ... .. . ... : ... .. 3 ... : ... .. . ... ... : ... .. . ... ... : ... .. . ... ... : ... .. . ... ...
ROW 05 : D-5 00 A P81 ... ... : ... .. . ... ... ... : ... .. . ... : ... .. 1 ... : ... .. . ... ... : ... .. . ... ... : ... .. . ... ... : ... .. . ... ...
ROW 06 : ... .. . P7F ... ... : ... .. 6 ... ... ... : ... .. . ... : ... .. . ... : ... .. . ... ... : ... .. . ... ... : ... .. . ... ... : ... .. . ... ...
ROW 07 : C#5 00 A P83 ... ... : ... .. 5 ... ... ... : ... .. . ... : ... .. 0 ... : ... .. . ... ... : ... .. . ... ... : ... .. . ... ... : ... .. 7 ... ...
ROW 08 : ... .. . ... ... ... : ... .. 4 ... ... ... : ... .. . ... : ... .. . ... : ... .. . ... ... : ... .. . ... ... : ... .. . ... ... : ... .. . ... ...
ROW 09 : D-5 00 A P7E ... ... : ... .. . ... ... ... : ... .. . ... : ... .. . ... : ... .. . ... ... : ... .. . ... ... : ... .. . ... ... : ... .. . ... ...
ROW 0A : ... .. . P80 ... ... : ... .. . ... ... ... : --- .. . ... : ... .. . ... : ... .. . ... ... : ... .. . ... ... : ... .. . ... ... : ... .. . ... ...
ROW 0B : ... .. . P82 ... ... : ... .. . ... ... ... : ... .. . ... : ... .. . ... : ... .. . ... ... : ... .. . ... ... : ... .. . ... ... : ... .. . ... ...
ROW 0C : D#5 00 A P7E ... ... : F#3 00 A ... ... ... : A-3 00 . ... : ... .. F ... : ... .. . ... ... : F#2 01 9 ... ... : A-2 01 9 ... ... : D#3 01 F ... ...
ROW 0D : ... .. . ... ... ... : ... .. 8 ... ... ... : ... .. . ... : ... .. C ... : ... .. . ... ... : ... .. 8 ... ... : ... .. 8 ... ... : ... .. D ... ...
ROW 0E : D-5 00 A P81 ... ... : ... .. . ... ... ... : ... .. . ... : ... .. 6 ... : ... .. . ... ... : ... .. . ... ... : ... .. . ... ... : ... .. 8 ... ...
ROW 0F : ... .. . P80 ... ... : ... .. . ... ... ... : ... .. . ... : ... .. 3 ... : ... .. . ... ... : ... .. . ... ... : ... .. . ... ... : ... .. . ... ...
ROW 10 : C#5 00 A P83 ... ... : ... .. 6 ... ... ... : ... .. . ... : ... .. 2 ... : ... .. . ... ... : ... .. 7 ... ... : ... .. 7 ... ... : ... .. . ... ...
ROW 11 : ... .. . ... ... ... : ... .. 5 ... ... ... : ... .. . ... : ... .. 0 ... : ... .. . ... ... : ... .. 6 ... ... : ... .. 6 ... ... : ... .. 7 ... ...
ROW 12 : D-5 00 A P7E ... ... : ... .. 4 ... ... ... : ... .. . ... : ... .. . ... : ... .. . ... ... : ... .. . ... ... : ... .. . ... ... : ... .. . ... ...
ROW 13 : ... .. . P80 ... ... : ... .. . ... ... ... : ... .. . ... : ... .. . ... : ... .. . ... ... : ... .. 5 ... ... : ... .. 5 ... ... : ... .. . ... ...
ROW 14 : ... .. . P81 ... ... : ... .. . ... ... ... : ... .. . ... : ... .. . ... : ... .. . ... ... : ... .. . ... ... : ... .. . ... ... : ... .. . ... ...
ROW 15 : D#5 00 A P7E ... ... : ... .. . ... ... ... : ... .. . ... : ... .. . ... : ... .. . ... ... : ... .. . ... ... : ... .. . ... ... : ... .. . ... ...
ROW 16 : ... .. . ... ... ... : ... .. A ... ... ... : ... .. . ... : ... .. . ... : ... .. . ... ... : ... .. . ... ... : ... .. . ... ... : ... .. 6 ... ...
ROW 17 : D-5 00 A P81 ... ... : ... .. 8 ... ... ... : ... .. . ... : ... .. . ... : ... .. . ... ... : ... .. . ... ... : ... .. . ... ... : ... .. . ... ...
ROW 18 : ... .. . P80 ... ... : ... .. . ... ... ... : ... .. . ... : ... .. . ... : ... .. . ... ... : ... .. . ... ... : ... .. . ... ... : ... .. . ... ...
ROW 19 : ... .. . P7E ... ... : ... .. . ... ... ... : ... .. . ... : ... .. . ... : ... .. . ... ... : ... .. . ... ... : ... .. . ... ... : ... .. . ... ...
ROW 1A : C#5 00 A P83 ... ... : ... .. 6 ... ... ... : ... .. . ... : ... .. . ... : ... .. . ... ... : ... .. . ... ... : ... .. . ... ... : ... .. . ... ...
ROW 1B : ... .. . ... ... ... : ... .. 5 ... ... ... : ... .. . ... : ... .. . ... : ... .. . ... ... : ... .. 4 ... ... : ... .. 4 ... ... : ... .. . ... ...
ROW 1C : D-5 00 A P80 ... ... : ... .. 4 ... ... ... : ... .. . ... : ... .. . ... : ... .. . ... ... : ... .. . ... ... : ... .. . ... ... : ... .. . ... ...
ROW 1D : ... .. . P81 ... ... : ... .. . ... ... ... : ... .. . ... : ... .. . ... : ... .. . ... ... : ... .. . ... ... : ... .. . ... ... : ... .. . ... ...
ROW 1E : D#5 00 A P7E ... ... : ... .. . ... ... ... : --- .. . ... : ... .. . ... : ... .. . ... ... : ... .. . ... ... : ... .. . ... ... : ... .. . ... ...
ROW 1F : ... .. . ... ... ... : ... .. . ... ... ... : ... .. . ... : ... .. . ... : ... .. . ... ... : ... .. . ... ... : ... .. . ... ... : ... .. . ... ...
ROW 20 : C-5 00 F P80 ... ... : D#3 00 A ... ... ... : F#3 00 . ... : D-# 00 D ... : ... .. . ... ... : ... .. . ... ... : ... .. . ... ... : ... .. 5 ... ...
ROW 21 : ... .. E ... ... ... : ... .. 8 ... ... ... : ... .. . ... : ... .. B ... : ... .. . ... ... : ... .. . ... ... : ... .. . ... ... : ... .. . ... ...
ROW 22 : ... .. D ... ... ... : ... .. . ... ... ... : ... .. . ... : ... .. . ... : ... .. . ... ... : ... .. . ... ... : ... .. . ... ... : ... .. . ... ...
ROW 23 : ... .. A ... ... ... : ... .. . ... ... ... : ... .. . ... : ... .. A ... : ... .. . ... ... : ... .. . ... ... : ... .. . ... ... : ... .. . ... ...
ROW 24 : ... .. . ... ... ... : ... .. 6 ... ... ... : ... .. . ... : ... .. 8 ... : ... .. . ... ... : ... .. . ... ... : ... .. . ... ... : ... .. . ... ...
ROW 25 : ... .. . ... ... ... : ... .. 5 ... ... ... : ... .. . ... : ... .. 7 ... : ... .. . ... ... : ... .. . ... ... : ... .. . ... ... : ... .. . ... ...
ROW 26 : ... .. . ... ... ... : ... .. 4 ... ... ... : ... .. . ... : ... .. 6 ... : ... .. . ... ... : ... .. . ... ... : ... .. . ... ... : ... .. . ... ...
ROW 27 : ... .. . ... ... ... : ... .. . ... ... ... : ... .. . ... : ... .. . ... : ... .. . ... ... : ... .. . ... ... : ... .. . ... ... : ... .. . ... ...
ROW 28 : ... .. . ... ... ... : ... .. . ... ... ... : ... .. . ... : ... .. 5 ... : ... .. . ... ... : ... .. . ... ... : ... .. . ... ... : ... .. . ... ...
ROW 29 : ... .. . ... ... ... : ... .. . ... ... ... : ... .. . ... : ... .. . ... : ... .. . ... ... : ... .. . ... ... : ... .. . ... ... : ... .. . ... ...
ROW 2A : ... .. . ... ... ... : ... .. A ... ... ... : ... .. . ... : ... .. 4 ... : ... .. . ... ... : ... .. 3 ... ... : ... .. 3 ... ... : ... .. 4 ... ...
ROW 2B : ... .. . ... ... ... : ... .. 8 ... ... ... : ... .. . ... : ... .. . ... : ... .. . ... ... : ... .. . ... ... : ... .. . ... ... : ... .. . ... ...
ROW 2C : ... .. . ... ... ... : ... .. . ... ... ... : ... .. . ... : ... .. 3 ... : ... .. . ... ... : ... .. . ... ... : ... .. . ... ... : ... .. . ... ...
ROW 2D : ... .. . ... ... ... : ... .. . ... ... ... : ... .. . ... : ... .. 2 ... : ... .. . ... ... : ... .. . ... ... : ... .. . ... ... : ... .. . ... ...
ROW 2E : ... .. . ... ... ... : ... .. 6 ... ... ... : ... .. . ... : ... .. . ... : ... .. . ... ... : ... .. . ... ... : ... .. . ... ... : ... .. . ... ...
ROW 2F : ... .. . ... ... ... : ... .. 5 ... ... ... : ... .. . ... : ... .. 1 ... : ... .. . ... ... : ... .. . ... ... : ... .. . ... ... : ... .. . ... ...
ROW 30 : ... .. 2 ... ... ... : ... .. 4 ... ... ... : ... .. . ... : ... .. 0 ... : ... .. . ... ... : ... .. . ... ... : ... .. . ... ... : ... .. . ... ...
ROW 31 : ... .. . ... ... ... : ... .. . ... ... ... : ... .. . ... : ... .. . ... : ... .. . ... ... : ... .. . ... ... : ... .. . ... ... : ... .. . ... ...
ROW 32 : ... .. . ... ... ... : ... .. . ... ... ... : --- .. . ... : ... .. . ... : ... .. . ... ... : ... .. . ... ... : ... .. . ... ... : ... .. . ... ...
ROW 33 : ... .. 1 ... ... ... : ... .. . ... ... ... : ... .. . ... : ... .. . ... : ... .. . ... ... : ... .. . ... ... : ... .. . ... ... : ... .. . ... ...
ROW 34 : B-4 00 F ... ... ... : D-3 00 A ... ... ... : G-3 00 . ... : ... .. D V01 : ... .. . ... ... : F-2 01 4 ... ... : B-2 01 4 ... ... : D-3 01 8 ... ...
ROW 35 : ... .. E ... ... ... : ... .. 8 ... ... ... : ... .. . ... : ... .. B ... : ... .. . ... ... : ... .. . ... ... : ... .. . ... ... : ... .. 6 ... ...
ROW 36 : ... .. D ... ... ... : ... .. . ... ... ... : ... .. . ... : ... .. . ... : ... .. . ... ... : ... .. . ... ... : ... .. . ... ... : ... .. 4 ... ...
ROW 37 : ... .. A ... ... ... : ... .. . ... ... ... : ... .. . ... : ... .. A ... : ... .. . ... ... : ... .. . ... ... : ... .. . ... ... : ... .. . ... ...
ROW 38 : ... .. . ... ... ... : ... .. 6 ... ... ... : ... .. . ... : ... .. 8 ... : ... .. . ... ... : ... .. 3 ... ... : ... .. 3 ... ... : ... .. . ... ...
ROW 39 : ... .. . ... ... ... : ... .. 5 ... ... ... : ... .. . ... : ... .. 7 ... : ... .. . ... ... : ... .. . ... ... : ... .. . ... ... : ... .. . ... ...
ROW 3A : ... .. . ... ... ... : ... .. 4 ... ... ... : ... .. . ... : ... .. 6 ... : ... .. . ... ... : ... .. . ... ... : ... .. . ... ... : ... .. . ... ...
ROW 3B : ... .. . ... ... ... : ... .. . ... ... ... : ... .. . ... : ... .. . ... : ... .. . ... ... : ... .. . ... ... : ... .. . ... ... : ... .. . ... ...
ROW 3C : ... .. . ... ... ... : ... .. . ... ... ... : ... .. . ... : ... .. 5 ... : ... .. . ... ... : ... .. . ... ... : ... .. . ... ... : ... .. . ... ...
ROW 3D : ... .. . ... ... ... : ... .. . ... ... ... : ... .. . ... : ... .. . ... : ... .. . ... ... : ... .. . ... ... : ... .. . ... ... : ... .. . ... ...
ROW 3E : ... .. . ... ... ... : D#3 00 A ... ... ... : ... .. . ... : ... .. 4 ... : ... .. . ... ... : ... .. . ... ... : ... .. . ... ... : ... .. . ... ...
ROW 3F : ... .. . ... ... ... : ... .. 8 ... ... ... : ... .. . ... : ... .. . ... : ... .. . ... ... : ... .. . ... ... : ... .. . ... ... : ... .. . ... ...
ROW 40 : ... .. . ... ... ... : ... .. . ... ... ... : ... .. . ... : ... .. 3 ... : ... .. . ... ... : ... .. . ... ... : ... .. . ... ... : ... .. . ... ...
ROW 41 : ... .. . ... ... ... : ... .. . ... ... ... : ... .. . ... : ... .. 2 ... : ... .. . ... ... : ... .. . ... ... : ... .. . ... ... : ... .. . ... ...
ROW 42 : ... .. . ... ... ... : ... .. 6 ... ... ... : ... .. . ... : ... .. . ... : ... .. . ... ... : ... .. . ... ... : ... .. . ... ... : ... .. . ... ...
ROW 43 : ... .. . ... ... ... : ... .. 5 ... ... ... : ... .. . ... : ... .. 1 ... : ... .. . ... ... : ... .. 4 ... ... : ... .. 4 ... ... : ... .. 5 ... ...
ROW 44 : ... .. . ... ... ... : ... .. 4 ... ... ... : ... .. . ... : ... .. 0 ... : ... .. . ... ... : ... .. . ... ... : ... .. . ... ... : ... .. . ... ...
ROW 45 : ... .. . ... ... ... : ... .. . ... ... ... : ... .. . ... : ... .. . ... : ... .. . ... ... : ... .. . ... ... : ... .. . ... ... : ... .. . ... ...
ROW 46 : ... .. . ... ... ... : ... .. . ... ... ... : --- .. . ... : ... .. . ... : ... .. . ... ... : ... .. . ... ... : ... .. . ... ... : ... .. . ... ...
ROW 47 : ... .. . ... ... ... : ... .. . ... ... ... : ... .. . ... : ... .. . ... : ... .. . ... ... : ... .. . ... ... : ... .. . ... ... : ... .. . ... ...
ROW 48 : ... .. . ... ... ... : B-2 00 A ... ... ... : G-3 00 . ... : 9-# 00 A V00 : ... .. . ... ... : ... .. . ... ... : ... .. . ... ... : ... .. . ... ...
ROW 49 : ... .. . ... ... ... : ... .. 8 ... ... ... : ... .. . ... : ... .. 8 ... : ... .. . ... ... : ... .. . ... ... : ... .. . ... ... : ... .. . ... ...
ROW 4A : ... .. . ... ... ... : ... .. . ... ... ... : ... .. . ... : ... .. 4 ... : ... .. . ... ... : ... .. . ... ... : ... .. . ... ... : ... .. . ... ...
ROW 4B : ... .. . ... ... ... : ... .. . ... ... ... : ... .. . ... : ... .. 2 ... : ... .. . ... ... : ... .. . ... ... : ... .. . ... ... : ... .. . ... ...
ROW 4C : ... .. . ... ... ... : ... .. 6 ... ... ... : ... .. . ... : ... .. 1 ... : ... .. . ... ... : ... .. . ... ... : ... .. . ... ... : ... .. . ... ...
ROW 4D : ... .. . ... ... ... : ... .. 5 ... ... ... : ... .. . ... : ... .. 0 ... : ... .. . ... ... : ... .. . ... ... : ... .. . ... ... : ... .. 6 ... ...
ROW 4E : ... .. . ... ... ... : ... .. 4 ... ... ... : ... .. . ... : ... .. . ... : ... .. . ... ... : ... .. . ... ... : ... .. . ... ... : ... .. . ... ...
ROW 4F : ... .. . ... ... ... : ... .. . ... ... ... : ... .. . ... : ... .. . ... : ... .. . ... ... : ... .. . ... ... : ... .. . ... ... : ... .. . ... ...
ROW 50 : ... .. . ... ... ... : ... .. . ... ... ... : ... .. . ... : ... .. . ... : ... .. . ... ... : ... .. . ... ... : ... .. . ... ... : ... .. . ... ...
ROW 51 : ... .. . ... ... ... : ... .. . ... ... ... : ... .. . ... : ... .. . ... : ... .. . ... ... : ... .. . ... ... : ... .. . ... ... : ... .. . ... ...
ROW 52 : ... .. . P82 ... ... : D#3 00 A ... ... ... : ... .. . ... : ... .. 8 ... : ... .. . ... ... : ... .. 5 ... ... : ... .. 5 ... ... : ... .. . ... ...
ROW 53 : ... .. . P83 ... ... : ... .. 8 ... ... ... : ... .. . ... : ... .. 6 ... : ... .. . ... ... : ... .. . ... ... : ... .. . ... ... : ... .. . ... ...
ROW 54 : ... .. . ... ... ... : ... .. . ... ... ... : ... .. . ... : ... .. 3 ... : ... .. . ... ... : ... .. . ... ... : ... .. . ... ... : ... .. . ... ...
ROW 55 : ... .. . P81 ... ... : ... .. . ... ... ... : ... .. . ... : ... .. 1 ... : ... .. . ... ... : ... .. . ... ... : ... .. . ... ... : ... .. . ... ...
ROW 56 : ... .. . P7F ... ... : ... .. 6 ... ... ... : ... .. . ... : ... .. . ... : ... .. . ... ... : ... .. . ... ... : ... .. . ... ... : ... .. . ... ...
ROW 57 : ... .. . P7D ... ... : ... .. 5 ... ... ... : ... .. . ... : ... .. 0 ... : ... .. . ... ... : ... .. . ... ... : ... .. . ... ... : ... .. 7 ... ...
ROW 58 : ... .. . ... ... ... : ... .. 4 ... ... ... : ... .. . ... : ... .. . ... : ... .. . ... ... : ... .. . ... ... : ... .. . ... ... : ... .. . ... ...
ROW 59 : ... .. . P7E ... ... : ... .. . ... ... ... : ... .. . ... : ... .. . ... : ... .. . ... ... : ... .. . ... ... : ... .. . ... ... : ... .. . ... ...
ROW 5A : ... .. . P80 ... ... : ... .. . ... ... ... : --- .. . ... : ... .. . ... : ... .. . ... ... : ... .. . ... ... : ... .. . ... ... : ... .. . ... ...
ROW 5B : ... .. . P82 ... ... : ... .. . ... ... ... : ... .. . ... : ... .. . ... : ... .. . ... ... : ... .. . ... ... : ... .. . ... ... : ... .. . ... ...
ROW 5C : ... .. . P83 ... ... : G#2 00 A ... ... ... : G-3 00 . ... : ... .. F ... : ... .. . ... ... : G#2 01 9 ... ... : D-3 01 9 ... ... : F-3 01 F ... ...
ROW 5D : ... .. . ... ... ... : ... .. 8 ... ... ... : ... .. . ... : ... .. C ... : ... .. . ... ... : ... .. 8 ... ... : ... .. 8 ... ... : ... .. D ... ...
ROW 5E : ... .. . P81 ... ... : ... .. . ... ... ... : ... .. . ... : ... .. 6 ... : ... .. . ... ... : ... .. . ... ... : ... .. . ... ... : ... .. 8 ... ...
ROW 5F : ... .. . P80 ... ... : ... .. . ... ... ... : ... .. . ... : ... .. 3 ... : ... .. . ... ... : ... .. . ... ... : ... .. . ... ... : ... .. . ... ...
ROW 60 : ... .. . P7D ... ... : ... .. 6 ... ... ... : ... .. . ... : ... .. 2 ... : ... .. . ... ... : ... .. 7 ... ... : ... .. 7 ... ... : ... .. . ... ...
ROW 61 : ... .. . ... ... ... : ... .. 5 ... ... ... : ... .. . ... : ... .. 0 ... : ... .. . ... ... : ... .. 6 ... ... : ... .. 6 ... ... : ... .. 7 ... ...
ROW 62 : ... .. . P7E ... ... : ... .. 4 ... ... ... : ... .. . ... : ... .. . ... : ... .. . ... ... : ... .. . ... ... : ... .. . ... ... : ... .. . ... ...
ROW 63 : ... .. . P80 ... ... : ... .. . ... ... ... : ... .. . ... : ... .. . ... : ... .. . ... ... : ... .. 5 ... ... : ... .. 5 ... ... : ... .. . ... ...
ROW 64 : ... .. . P81 ... ... : ... .. . ... ... ... : ... .. . ... : ... .. . ... : ... .. . ... ... : ... .. . ... ... : ... .. . ... ... : ... .. . ... ...
ROW 65 : ... .. . P83 ... ... : ... .. . ... ... ... : ... .. . ... : ... .. . ... : ... .. . ... ... : ... .. . ... ... : ... .. . ... ... : ... .. . ... ...
ROW 66 : ... .. . ... ... ... : D#3 00 A ... ... ... : ... .. . ... : ... .. . ... : ... .. . ... ... : ... .. . ... ... : ... .. . ... ... : ... .. 6 ... ...
ROW 67 : ... .. . P81 ... ... : ... .. 8 ... ... ... : ... .. . ... : ... .. . ... : ... .. . ... ... : ... .. . ... ... : ... .. . ... ... : ... .. . ... ...
ROW 68 : ... .. . P80 ... ... : ... .. . ... ... ... : ... .. . ... : ... .. . ... : ... .. . ... ... : ... .. . ... ... : ... .. . ... ... : ... .. . ... ...
ROW 69 : ... .. . P7E ... ... : ... .. . ... ... ... : ... .. . ... : ... .. . ... : ... .. . ... ... : ... .. . ... ... : ... .. . ... ... : ... .. . ... ...
ROW 6A : ... .. . P7D ... ... : ... .. 6 ... ... ... : ... .. . ... : ... .. . ... : ... .. . ... ... : ... .. . ... ... : ... .. . ... ... : ... .. . ... ...
ROW 6B : ... .. . ... ... ... : ... .. 5 ... ... ... : ... .. . ... : ... .. . ... : ... .. . ... ... : ... .. 4 ... ... : ... .. 4 ... ... : ... .. . ... ...
ROW 6C : ... .. . P80 ... ... : ... .. 4 ... ... ... : ... .. . ... : ... .. . ... : ... .. . ... ... : ... .. . ... ... : ... .. . ... ... : ... .. . ... ...
ROW 6D : ... .. . P81 ... ... : ... .. . ... ... ... : ... .. . ... : ... .. . ... : ... .. . ... ... : ... .. . ... ... : ... .. . ... ... : ... .. . ... ...
ROW 6E : ... .. . P83 ... ... : ... .. . ... ... ... : --- .. . ... : ... .. . ... : ... .. . ... ... : ... .. . ... ... : ... .. . ... ... : ... .. . ... ...
ROW 6F : ... .. . ... ... ... : ... .. . ... ... ... : ... .. . ... : ... .. . ... : ... .. . ... ... : ... .. . ... ... : ... .. . ... ... : ... .. . ... ...
ROW 70 : ... .. . P82 ... ... : G-2 00 A ... ... ... : G-3 00 . ... : D-# 00 8 ... : ... .. . ... ... : ... .. . ... ... : ... .. . ... ... : ... .. 5 ... ...
ROW 71 : ... .. . P80 ... ... : ... .. 8 ... ... ... : ... .. . ... : ... .. 7 ... : ... .. . ... ... : ... .. . ... ... : ... .. . ... ... : ... .. . ... ...
ROW 72 : ... .. . P7E ... ... : ... .. . ... ... ... : ... .. . ... : ... .. . ... : ... .. . ... ... : ... .. . ... ... : ... .. . ... ... : ... .. . ... ...
ROW 73 : ... .. . P7D ... ... : ... .. . ... ... ... : ... .. . ... : ... .. 6 ... : ... .. . ... ... : ... .. . ... ... : ... .. . ... ... : ... .. . ... ...
ROW 74 : ... .. . ... ... ... : ... .. 6 ... ... ... : ... .. . ... : ... .. 5 ... : ... .. . ... ... : ... .. . ... ... : ... .. . ... ... : ... .. . ... ...
ROW 75 : A#4 00 F P80 ... ... : ... .. 5 ... ... ... : ... .. . ... : ... .. 4 ... : ... .. . ... ... : ... .. . ... ... : ... .. . ... ... : ... .. . ... ...
ROW 76 : ... .. E ... ... ... : ... .. 4 ... ... ... : ... .. . ... : ... .. . ... : ... .. . ... ... : ... .. . ... ... : ... .. . ... ... : ... .. . ... ...
ROW 77 : ... .. D ... ... ... : ... .. . ... ... ... : ... .. . ... : ... .. . ... : ... .. . ... ... : ... .. . ... ... : ... .. . ... ... : ... .. . ... ...
ROW 78 : ... .. A ... ... ... : ... .. . ... ... ... : ... .. . ... : ... .. 3 ... : ... .. . ... ... : ... .. . ... ... : ... .. . ... ... : ... .. . ... ...
ROW 79 : ... .. . ... ... ... : ... .. . ... ... ... : ... .. . ... : ... .. . ... : ... .. . ... ... : ... .. . ... ... : ... .. . ... ... : ... .. . ... ...
ROW 7A : A-4 00 F ... ... ... : D-3 00 A ... ... ... : ... .. . ... : ... .. 2 ... : ... .. . ... ... : ... .. 3 ... ... : ... .. 3 ... ... : ... .. 4 ... ...
ROW 7B : ... .. E ... ... ... : ... .. 8 ... ... ... : ... .. . ... : ... .. . ... : ... .. . ... ... : ... .. . ... ... : ... .. . ... ... : ... .. . ... ...
ROW 7C : ... .. D ... ... ... : ... .. . ... ... ... : ... .. . ... : ... .. . ... : ... .. . ... ... : ... .. . ... ... : ... .. . ... ... : ... .. . ... ...
ROW 7D : ... .. A ... ... ... : ... .. . ... ... ... : ... .. . ... : ... .. 1 ... : ... .. . ... ... : ... .. . ... ... : ... .. . ... ... : ... .. . ... ...
ROW 7E : ... .. . ... ... ... : ... .. 6 ... ... ... : ... .. . ... : ... .. . ... : ... .. . ... ... : ... .. . ... ... : ... .. . ... ... : ... .. . ... ...
ROW 7F : G#4 00 F ... ... ... : ... .. 5 ... ... ... : ... .. . ... : ... .. . ... : ... .. . ... ... : ... .. . ... ... : ... .. . ... ... : ... .. . ... ...
ROW 80 : ... .. E ... ... ... : ... .. 4 ... ... ... : ... .. . ... : ... .. 0 ... : ... .. . ... ... : ... .. . ... ... : ... .. . ... ... : ... .. . ... ...
ROW 81 : ... .. D ... ... ... : ... .. . ... ... ... : ... .. . ... : ... .. . ... : ... .. . ... ... : ... .. . ... ... : ... .. . ... ... : ... .. . ... ...
ROW 82 : ... .. A ... ... ... : ... .. . ... ... ... : --- .. . ... : ... .. . ... : ... .. . ... ... : ... .. . ... ... : ... .. . ... ... : ... .. . ... ...
ROW 83 : ... .. . ... ... ... : ... .. . ... ... ... : ... .. . ... : ... .. . ... : ... .. . ... ... : ... .. . ... ... : ... .. . ... ... : ... .. . ... ...
ROW 84 : G-4 00 F ... ... ... : F-3 00 A ... ... ... : G-3 00 . ... : ... .. D ... : ... .. . ... ... : B-2 01 4 ... ... : F-3 01 4 ... ... : G#3 01 8 ... ...
ROW 85 : ... .. E ... ... ... : ... .. 8 ... ... ... : ... .. . ... : ... .. B ... : ... .. . ... ... : ... .. . ... ... : ... .. . ... ... : ... .. 6 ... ...
ROW 86 : ... .. D ... ... ... : ... .. . ... ... ... : ... .. . ... : ... .. . ... : ... .. . ... ... : ... .. . ... ... : ... .. . ... ... : ... .. 4 ... ...
ROW 87 : ... .. A ... ... ... : ... .. . ... ... ... : ... .. . ... : ... .. A ... : ... .. . ... ... : ... .. . ... ... : ... .. . ... ... : ... .. . ... ...
ROW 88 : ... .. . ... ... ... : ... .. 6 ... ... ... : ... .. . ... : ... .. 8 ... : ... .. . ... ... : ... .. 3 ... ... : ... .. 3 ... ... : ... .. . ... ...
ROW 89 : ... .. . ... ... ... : ... .. 5 ... ... ... : ... .. . ... : ... .. 7 ... : ... .. . ... ... : ... .. . ... ... : ... .. . ... ... : ... .. . ... ...
ROW 8A : ... .. . ... ... ... : ... .. 4 ... ... ... : ... .. . ... : ... .. 6 ... : ... .. . ... ... : ... .. . ... ... : ... .. . ... ... : ... .. . ... ...
ROW 8B : ... .. . ... ... ... : ... .. . ... ... ... : ... .. . ... : ... .. . ... : ... .. . ... ... : ... .. . ... ... : ... .. . ... ... : ... .. . ... ...
ROW 8C : ... .. . ... ... ... : ... .. . ... ... ... : ... .. . ... : ... .. 5 ... : ... .. . ... ... : ... .. . ... ... : ... .. . ... ... : ... .. . ... ...
ROW 8D : ... .. . ... ... ... : ... .. . ... ... ... : ... .. . ... : ... .. . ... : ... .. . ... ... : ... .. . ... ... : ... .. . ... ... : ... .. . ... ...
ROW 8E : ... .. . ... ... ... : B-2 00 A ... ... ... : ... .. . ... : ... .. 4 ... : ... .. . ... ... : ... .. . ... ... : ... .. . ... ... : ... .. . ... ...
ROW 8F : ... .. . ... ... ... : ... .. 8 ... ... ... : ... .. . ... : ... .. . ... : ... .. . ... ... : ... .. . ... ... : ... .. . ... ... : ... .. . ... ...
ROW 90 : ... .. . ... ... ... : ... .. . ... ... ... : ... .. . ... : ... .. 3 ... : ... .. . ... ... : ... .. . ... ... : ... .. . ... ... : ... .. . ... ...
ROW 91 : ... .. . ... ... ... : ... .. . ... ... ... : ... .. . ... : ... .. 2 ... : ... .. . ... ... : ... .. . ... ... : ... .. . ... ... : ... .. . ... ...
ROW 92 : ... .. . ... ... ... : ... .. 6 ... ... ... : ... .. . ... : ... .. . ... : ... .. . ... ... : ... .. . ... ... : ... .. . ... ... : ... .. . ... ...
ROW 93 : ... .. . P82 ... ... : ... .. 5 ... ... ... : ... .. . ... : ... .. 1 ... : ... .. . ... ... : ... .. 4 ... ... : ... .. 4 ... ... : ... .. 5 ... ...
ROW 94 : ... .. . P83 ... ... : ... .. 4 ... ... ... : ... .. . ... : ... .. 0 ... : ... .. . ... ... : ... .. . ... ... : ... .. . ... ... : ... .. . ... ...
ROW 95 : ... .. . ... ... ... : ... .. . ... ... ... : ... .. . ... : ... .. . ... : ... .. . ... ... : ... .. . ... ... : ... .. . ... ... : ... .. . ... ...
ROW 96 : ... .. . P81 ... ... : ... .. . ... ... ... : --- .. . ... : ... .. . ... : ... .. . ... ... : ... .. . ... ... : ... .. . ... ... : ... .. . ... ...
ROW 97 : ... .. . P7F ... ... : ... .. . ... ... ... : ... .. . ... : ... .. . ... : ... .. . ... ... : ... .. . ... ... : ... .. . ... ... : ... .. . ... ...
ROW 98 : ... .. . P7D ... ... : D-3 00 A ... ... ... : G-3 00 . ... : 9-# 00 A ... : ... .. . ... ... : ... .. . ... ... : ... .. . ... ... : ... .. . ... ...
ROW 99 : ... .. . ... ... ... : ... .. 8 ... ... ... : ... .. . ... : ... .. 8 ... : ... .. . ... ... : ... .. . ... ... : ... .. . ... ... : ... .. . ... ...
ROW 9A : ... .. . P7E ... ... : ... .. . ... ... ... : ... .. . ... : ... .. 4 ... : ... .. . ... ... : ... .. . ... ... : ... .. . ... ... : ... .. . ... ...
ROW 9B : ... .. . P80 ... ... : ... .. . ... ... ... : ... .. . ... : ... .. 2 ... : ... .. . ... ... : ... .. . ... ... : ... .. . ... ... : ... .. . ... ...
ROW 9C : ... .. . P82 ... ... : ... .. 6 ... ... ... : ... .. . ... : ... .. 1 ... : ... .. . ... ... : ... .. . ... ... : ... .. . ... ... : ... .. . ... ...
ROW 9D : ... .. . P83 ... ... : ... .. 5 ... ... ... : ... .. . ... : ... .. 0 ... : ... .. . ... ... : ... .. . ... ... : ... .. . ... ... : ... .. 6 ... ...
ROW 9E : ... .. . ... ... ... : ... .. 4 ... ... ... : ... .. . ... : ... .. . ... : ... .. . ... ... : ... .. . ... ... : ... .. . ... ... : ... .. . ... ...
ROW 9F : ... .. . P81 ... ... : ... .. . ... ... ... : ... .. . ... : ... .. 8 ... : ... .. . ... ... : ... .. . ... ... : ... .. . ... ... : ... .. . ... ...
ROW A0 : ... .. . P80 ... ... : ... .. . ... ... ... : ... .. . ... : ... .. 6 ... : ... .. . ... ... : ... .. . ... ... : ... .. . ... ... : ... .. . ... ...
ROW A1 : ... .. . P7D ... ... : ... .. . ... ... ... : ... .. . ... : ... .. 3 ... : ... .. . ... ... : ... .. . ... ... : ... .. . ... ... : ... .. . ... ...
ROW A2 : ... .. . ... ... ... : G-2 00 A ... ... ... : ... .. . ... : ... .. 1 ... : ... .. . ... ... : ... .. 5 ... ... : ... .. 5 ... ... : ... .. . ... ...
ROW A3 : ... .. . P7E ... ... : ... .. 8 ... ... ... : ... .. . ... : ... .. . ... : ... .. . ... ... : ... .. . ... ... : ... .. . ... ... : ... .. . ... ...
ROW A4 : ... .. . P80 ... ... : ... .. . ... ... ... : ... .. . ... : ... .. 0 ... : ... .. . ... ... : ... .. . ... ... : ... .. . ... ... : ... .. . ... ...
ROW A5 : ... .. . P81 ... ... : ... .. . ... ... ... : ... .. . ... : ... .. C ... : ... .. . ... ... : ... .. . ... ... : ... .. . ... ... : ... .. . ... ...
ROW A6 : ... .. . P83 ... ... : ... .. 6 ... ... ... : ... .. . ... : ... .. 9 ... : ... .. . ... ... : ... .. . ... ... : ... .. . ... ... : ... .. . ... ...
ROW A7 : ... .. . ... ... ... : ... .. 5 ... ... ... : ... .. . ... : ... .. 4 ... : ... .. . ... ... : ... .. . ... ... : ... .. . ... ... : ... .. 7 ... ...
ROW A8 : ... .. . P81 ... ... : ... .. 4 ... ... ... : ... .. . ... : ... .. 2 ... : ... .. . ... ... : ... .. . ... ... : ... .. . ... ... : ... .. . ... ...
ROW A9 : ... .. . P80 ... ... : ... .. . ... ... ... : ... .. . ... : ... .. 1 ... : ... .. . ... ... : ... .. . ... ... : ... .. . ... ... : ... .. . ... ...
ROW AA : ... .. . P7E ... ... : ... .. . ... ... ... : --- .. . ... : ... .. 0 ... : ... .. . ... ... : ... .. . ... ... : ... .. . ... ... : ... .. . ... ...
ROW AB : ... .. . P7D ... ... : ... .. . ... ... ... : ... .. . ... : ... .. . ... : ... .. . ... ... : ... .. . ... ... : ... .. . ... ... : ... .. . ... ...
ROW AC : ... .. . ... ... ... : G#2 00 A ... ... ... : G-3 00 . ... : ... .. F ... : ... .. . ... ... : D-3 01 9 ... ... : G#3 01 9 ... ... : B-3 01 F ... ...
ROW AD : ... .. . P80 ... ... : ... .. 8 ... ... ... : ... .. . ... : ... .. C ... : ... .. . ... ... : ... .. 8 ... ... : ... .. 8 ... ... : ... .. D ... ...
ROW AE : ... .. . P81 ... ... : ... .. . ... ... ... : ... .. . ... : ... .. 6 ... : ... .. . ... ... : ... .. . ... ... : ... .. . ... ... : ... .. 8 ... ...
ROW AF : ... .. . P83 ... ... : ... .. . ... ... ... : ... .. . ... : ... .. 3 ... : ... .. . ... ... : ... .. . ... ... : ... .. . ... ... : ... .. . ... ...
ROW B0 : ... .. . ... ... ... : ... .. 6 ... ... ... : ... .. . ... : ... .. 2 ... : ... .. . ... ... : ... .. 7 ... ... : ... .. 7 ... ... : ... .. . ... ...
ROW B1 : ... .. . P82 ... ... : ... .. 5 ... ... ... : ... .. . ... : ... .. 0 ... : ... .. . ... ... : ... .. 6 ... ... : ... .. 6 ... ... : ... .. 7 ... ...
ROW B2 : ... .. . P80 ... ... : ... .. 4 ... ... ... : ... .. . ... : ... .. . ... : ... .. . ... ... : ... .. . ... ... : ... .. . ... ... : ... .. . ... ...
ROW B3 : ... .. . P7E ... ... : ... .. . ... ... ... : ... .. . ... : ... .. . ... : ... .. . ... ... : ... .. 5 ... ... : ... .. 5 ... ... : ... .. . ... ...
ROW B4 : ... .. . P7D ... ... : ... .. . ... ... ... : ... .. . ... : ... .. . ... : ... .. . ... ... : ... .. . ... ... : ... .. . ... ... : ... .. . ... ...
ROW B5 : ... .. . ... ... ... : ... .. . ... ... ... : ... .. . ... : ... .. . ... : ... .. . ... ... : ... .. . ... ... : ... .. . ... ... : ... .. . ... ...
ROW B6 : ... .. . P7F ... ... : F-2 00 A ... ... ... : ... .. . ... : ... .. . ... : ... .. . ... ... : ... .. . ... ... : ... .. . ... ... : ... .. 6 ... ...
ROW B7 : ... .. . P81 ... ... : ... .. 8 ... ... ... : ... .. . ... : ... .. . ... : ... .. . ... ... : ... .. . ... ... : ... .. . ... ... : ... .. . ... ...
ROW B8 : ... .. . P83 ... ... : ... .. . ... ... ... : ... .. . ... : ... .. . ... : ... .. . ... ... : ... .. . ... ... : ... .. . ... ... : ... .. . ... ...
ROW B9 : ... .. . ... ... ... : ... .. . ... ... ... : ... .. . ... : ... .. . ... : ... .. . ... ... : ... .. . ... ... : ... .. . ... ... : ... .. . ... ...
ROW BA : ... .. . P82 ... ... : ... .. 6 ... ... ... : ... .. . ... : ... .. . ... : ... .. . ... ... : ... .. . ... ... : ... .. . ... ... : ... .. . ... ...
ROW BB : ... .. . P80 ... ... : ... .. 5 ... ... ... : ... .. . ... : ... .. . ... : ... .. . ... ... : ... .. 4 ... ... : ... .. 4 ... ... : ... .. . ... ...
ROW BC : ... .. . P7E ... ... : ... .. 4 ... ... ... : ... .. . ... : ... .. . ... : ... .. . ... ... : ... .. . ... ... : ... .. . ... ... : ... .. . ... ...
ROW BD : ... .. . P7D ... ... : ... .. . ... ... ... : ... .. . ... : ... .. . ... : ... .. . ... ... : ... .. . ... ... : ... .. . ... ... : ... .. . ... ...
ROW BE : ... .. . ... ... ... : ... .. . ... ... ... : --- .. . ... : ... .. . ... : ... .. . ... ... : ... .. . ... ... : ... .. . ... ... : ... .. . ... ...
ROW BF : ... .. . P7F ... ... : ... .. . ... ... ... : ... .. . ... : ... .. . ... : ... .. . ... ... : ... .. . ... ... : ... .. . ... ... : ... .. . ... ...
ROW C0 : ... .. . P80 ... ... : D-2 00 A ... ... ... : G-3 00 . ... : ... .. . ... : ... .. . ... ... : ... .. . ... ... : ... .. . ... ... : ... .. 5 ... ...
ROW C1 : ... .. . P83 ... ... : ... .. 8 ... ... ... : ... .. . ... : ... .. . ... : ... .. . ... ... : ... .. . ... ... : ... .. . ... ... : ... .. . ... ...
ROW C2 : ... .. . ... ... ... : ... .. . ... ... ... : ... .. . ... : ... .. . ... : ... .. . ... ... : ... .. . ... ... : ... .. . ... ... : ... .. . ... ...
ROW C3 : ... .. . P82 ... ... : ... .. . ... ... ... : ... .. . ... : ... .. . ... : ... .. . ... ... : ... .. . ... ... : ... .. . ... ... : ... .. . ... ...
ROW C4 : ... .. . P80 ... ... : ... .. 6 ... ... ... : ... .. . ... : ... .. . ... : ... .. . ... ... : ... .. . ... ... : ... .. . ... ... : ... .. . ... ...
ROW C5 : ... .. . P7F ... ... : ... .. 5 ... ... ... : ... .. . ... : ... .. . ... : ... .. . ... ... : ... .. . ... ... : ... .. . ... ... : ... .. . ... ...
ROW C6 : ... .. 2 P7D ... ... : ... .. 4 ... ... ... : ... .. . ... : ... .. . ... : ... .. . ... ... : ... .. . ... ... : ... .. . ... ... : ... .. . ... ...
ROW C7 : ... .. . ... ... ... : ... .. . ... ... ... : ... .. . ... : ... .. . ... : ... .. . ... ... : ... .. . ... ... : ... .. . ... ... : ... .. . ... ...
ROW C8 : ... .. . P7F ... ... : ... .. . ... ... ... : ... .. . ... : ... .. . ... : ... .. . ... ... : ... .. . ... ... : ... .. . ... ... : ... .. . ... ...
ROW C9 : ... .. 1 P80 ... ... : ... .. . ... ... ... : ... .. . ... : ... .. . ... : ... .. . ... ... : ... .. . ... ... : ... .. . ... ... : ... .. . ... ...
ROW CA : ... .. . P82 ... ... : F-2 00 A ... ... ... : ... .. . ... : ... .. . ... : ... .. . ... ... : ... .. 3 ... ... : ... .. 3 ... ... : ... .. 4 ... ...
ROW CB : ... .. . P83 ... ... : ... .. 8 ... ... ... : ... .. . ... : ... .. . ... : ... .. . ... ... : ... .. . ... ... : ... .. . ... ... : ... .. . ... ...
ROW CC : ... .. 0 ... V00 ... : ... .. . ... ... ... : ... .. . ... : ... .. . ... : ... .. . ... ... : ... .. . ... ... : ... .. . ... ... : ... .. . ... ...
ROW CD : ... .. . ... ... ... : ... .. . ... ... ... : ... .. . ... : ... .. . ... : ... .. . ... ... : ... .. . ... ... : ... .. . ... ... : ... .. . ... ...
ROW CE : ... .. . ... ... ... : ... .. 6 ... ... ... : ... .. . ... : ... .. . ... : ... .. . ... ... : ... .. . ... ... : ... .. . ... ... : ... .. . ... ...
ROW CF : ... .. . ... ... ... : ... .. 5 ... ... ... : ... .. . ... : ... .. . ... : ... .. . ... ... : ... .. . ... ... : ... .. . ... ... : ... .. . ... ...
ROW D0 : ... .. . ... ... ... : ... .. 4 ... ... ... : ... .. . ... : ... .. . ... : ... .. . ... ... : ... .. . ... ... : ... .. . ... ... : ... .. . ... ...
ROW D1 : ... .. . ... ... ... : ... .. . ... ... ... : ... .. . ... : ... .. . ... : ... .. . ... ... : ... .. . ... ... : ... .. . ... ... : ... .. . ... ...
ROW D2 : ... .. . ... ... ... : ... .. . ... ... ... : --- .. . ... : ... .. . ... : ... .. . ... ... : ... .. . ... ... : ... .. . ... ... : ... .. . ... ...
ROW D3 : ... .. . ... ... ... : ... .. . ... ... ... : ... .. . ... : ... .. . ... : ... .. . ... ... : ... .. . ... ... : ... .. . ... ... : ... .. . ... ...
ROW D4 : G-1 00 F P80 V01 ... : G-2 00 D ... ... ... : G-2 00 . ... : D-# 00 D V01 : ... .. . ... ... : ... .. . ... ... : ... .. . ... ... : ... .. . ... ...
ROW D5 : ... .. E ... ... ... : ... .. B ... ... ... : ... .. . ... : ... .. B ... : ... .. . ... ... : ... .. 2 ... ... : ... .. 2 ... ... : ... .. 2 ... ...
ROW D6 : ... .. D ... ... ... : ... .. . ... ... ... : ... .. . ... : ... .. . ... : ... .. . ... ... : ... .. . ... ... : ... .. . ... ... : ... .. . ... ...
ROW D7 : ... .. A ... ... ... : ... .. A ... ... ... : ... .. . ... : ... .. A ... : ... .. . ... ... : ... .. . ... ... : ... .. . ... ... : ... .. 1 ... ...
ROW D8 : ... .. . ... ... ... : ... .. 8 ... ... ... : ... .. . ... : ... .. 8 ... : ... .. . ... ... : ... .. 1 ... ... : ... .. 1 ... ... : ... .. . ... ...
ROW D9 : ... .. . ... ... ... : B-2 00 C ... ... ... : ... .. . ... : ... .. 7 ... : ... .. . ... ... : ... .. . ... ... : ... .. . ... ... : ... .. . ... ...
ROW DA : ... .. . ... ... ... : ... .. A ... ... ... : ... .. . ... : ... .. 6 ... : ... .. . ... ... : ... .. . ... ... : ... .. . ... ... : ... .. . ... ...
ROW DB : ... .. . ... ... ... : ... .. . ... ... ... : ... .. . ... : ... .. . ... : ... .. . ... ... : ... .. . ... ... : ... .. . ... ... : ... .. . ... ...
ROW DC : ... .. . ... ... ... : ... .. 9 ... ... ... : ... .. . ... : ... .. 5 ... : ... .. . ... ... : ... .. . ... ... : ... .. . ... ... : ... .. . ... ...
ROW DD : ... .. . ... ... ... : ... .. 7 ... ... ... : ... .. . ... : ... .. . ... : ... .. . ... ... : ... .. . ... ... : ... .. . ... ... : ... .. . ... ...
ROW DE : ... .. . ... ... ... : D-3 00 C ... ... ... : ... .. . ... : ... .. 4 ... : ... .. . ... ... : ... .. . ... ... : ... .. . ... ... : ... .. 0 ... ...
ROW DF : ... .. 2 ... ... ... : ... .. A ... ... ... : ... .. . ... : ... .. . ... : ... .. . ... ... : ... .. . ... ... : ... .. . ... ... : ... .. . ... ...
ROW E0 : ... .. . ... ... ... : ... .. . ... ... ... : ... .. . ... : ... .. 3 ... : ... .. . ... ... : ... .. . ... ... : ... .. . ... ... : ... .. . ... ...
ROW E1 : ... .. . ... ... ... : ... .. 9 ... ... ... : ... .. . ... : ... .. 2 ... : ... .. . ... ... : ... .. . ... ... : ... .. . ... ... : ... .. . ... ...
ROW E2 : ... .. 1 ... ... ... : ... .. 7 ... ... ... : ... .. . ... : ... .. . ... : ... .. . ... ... : ... .. . ... ... : ... .. . ... ... : ... .. . ... ...
ROW E3 : ... .. . ... ... ... : F-3 00 B ... ... ... : ... .. . ... : ... .. 1 ... : ... .. . ... ... : ... .. . ... ... : ... .. . ... ... : ... .. . ... ...
ROW E4 : ... .. . ... ... ... : ... .. 9 ... ... ... : ... .. . ... : ... .. 0 ... : ... .. . ... ... : ... .. . ... ... : ... .. . ... ... : ... .. . ... ...
ROW E5 : ... .. 0 ... V00 ... : ... .. . ... ... ... : ... .. . ... : ... .. . ... : ... .. . ... ... : ... .. . ... ... : ... .. . ... ... : ... .. . ... ...
ROW E6 : ... .. . ... ... ... : ... .. 8 ... ... ... : ... .. . ... : ... .. . ... : ... .. . ... ... : ... .. . ... ... : ... .. . ... ... : ... .. . ... ...
ROW E7 : ... .. . ... ... ... : ... .. 6 ... ... ... : ... .. . ... : ... .. . ... : ... .. . ... ... : ... .. . ... ... : ... .. . ... ... : ... .. . ... ...
ROW E8 : B-3 00 F P80 V01 ... : G-3 00 B ... ... ... : --- .. . ... : 9-# 00 A V00 : ... .. . ... ... : B-3 01 9 ... ... : F-4 01 9 ... ... : G#4 01 F ... ...
ROW E9 : ... .. E ... ... ... : ... .. 9 ... ... ... : ... .. . ... : ... .. 8 ... : ... .. . ... ... : ... .. 8 ... ... : ... .. 8 ... ... : ... .. D ... ...
ROW EA : ... .. D ... ... ... : ... .. . ... ... ... : ... .. . ... : ... .. 4 ... : ... .. . ... ... : ... .. . ... ... : ... .. . ... ... : ... .. 8 ... ...
ROW EB : ... .. A ... ... ... : ... .. 8 ... ... ... : ... .. . ... : ... .. 2 ... : ... .. . ... ... : ... .. . ... ... : ... .. . ... ... : ... .. . ... ...
ROW EC : ... .. . ... ... ... : ... .. 6 ... ... ... : ... .. . ... : ... .. 1 ... : ... .. . ... ... : ... .. 7 ... ... : ... .. 7 ... ... : ... .. . ... ...
ROW ED : ... .. . ... ... ... : B-3 00 A ... ... ... : ... .. . ... : ... .. 0 ... : ... .. . ... ... : ... .. . ... ... : ... .. . ... ... : ... .. . ... ...
ROW EE : ... .. . ... ... ... : ... .. 8 ... ... ... : ... .. . ... : ... .. . ... : ... .. . ... ... : ... .. . ... ... : ... .. . ... ... : ... .. . ... ...
ROW EF : ... .. . ... ... ... : ... .. . ... ... ... : ... .. . ... : ... .. . ... : ... .. . ... ... : ... .. 6 ... ... : ... .. 6 ... ... : ... .. . ... ...
ROW F0 : ... .. . ... ... ... : ... .. . ... ... ... : ... .. . ... : ... .. . ... : ... .. . ... ... : ... .. . ... ... : ... .. . ... ... : ... .. . ... ...
ROW F1 : ... .. . ... ... ... : ... .. 6 ... ... ... : ... .. . ... : ... .. . ... : ... .. . ... ... : ... .. . ... ... : ... .. . ... ... : ... .. . ... ...
ROW F2 : ... .. . ... ... ... : D-4 00 A ... ... ... : ... .. . ... : ... .. 8 ... : ... .. . ... ... : ... .. 3 ... ... : ... .. 3 ... ... : ... .. 4 ... ...
ROW F3 : ... .. 2 ... ... ... : ... .. 8 ... ... ... : ... .. . ... : ... .. 6 ... : ... .. . ... ... : ... .. . ... ... : ... .. . ... ... : ... .. . ... ...
ROW F4 : ... .. . ... ... ... : ... .. . ... ... ... : ... .. . ... : ... .. 3 ... : ... .. . ... ... : ... .. . ... ... : ... .. . ... ... : ... .. . ... ...
ROW F5 : ... .. . ... ... ... : ... .. . ... ... ... : ... .. . ... : ... .. 1 ... : ... .. . ... ... : ... .. . ... ... : ... .. . ... ... : ... .. . ... ...
ROW F6 : ... .. 1 ... ... ... : ... .. 6 ... ... ... : ... .. . ... : ... .. . ... : ... .. . ... ... : ... .. . ... ... : ... .. . ... ... : ... .. . ... ...
ROW F7 : ... .. . ... ... ... : F-4 00 9 ... ... ... : ... .. . ... : ... .. 0 ... : ... .. . ... ... : ... .. 1 ... ... : ... .. 1 ... ... : ... .. 2 ... ...
ROW F8 : ... .. . ... ... ... : ... .. 8 ... ... ... : ... .. . ... : ... .. . ... : ... .. . ... ... : ... .. . ... ... : ... .. . ... ... : ... .. . ... ...
ROW F9 : ... .. 0 ... V00 ... : ... .. . ... ... ... : ... .. . ... : ... .. . ... : ... .. . ... ... : ... .. . ... ... : ... .. . ... ... : ... .. . ... ...
ROW FA : ... .. . ... ... ... : ... .. 7 ... ... ... : ... .. . ... : ... .. . ... : ... .. . ... ... : ... .. . ... ... : ... .. . ... ... : ... .. . ... ...
ROW FB : ... .. . ... ... ... : ... .. 5 ... ... ... : ... .. . ... : ... .. . ... : ... .. . ... ... : ... .. . ... ... : ... .. . ... ... : ... .. . ... ...
ROW FC : F-1 00 F P80 V01 ... : F-2 00 B ... ... ... : F-2 00 . ... : ... .. F ... : ... .. . ... ... : ... .. . ... ... : ... .. . ... ... : ... .. 1 ... ...
ROW FD : ... .. E ... ... ... : ... .. A ... ... ... : ... .. . ... : ... .. C ... : ... .. . ... ... : ... .. . ... ... : ... .. . ... ... : ... .. . ... ...
ROW FE : ... .. D ... ... ... : ... .. 9 ... ... ... : ... .. . ... : ... .. 6 ... : ... .. . ... ... : ... .. . ... ... : ... .. . ... ... : ... .. . ... ...
ROW FF : ... .. A ... ... ... : ... .. 7 ... ... ... : ... .. . ... : ... .. 3 ... : ... .. . ... ... : ... .. . ... ... : ... .. . ... ... : ... .. . ... ...

PATTERN 0E
ROW 00 : ... .. . ... ... ... : ... .. . ... ... ... : ... .. . ... : ... .. 2 ... : ... .. . ... ... : ... .. . ... ... : ... .. . ... ... : ... .. . ... ...
ROW 01 : ... .. . ... ... ... : G-2 00 B ... ... ... : ... .. . ... : ... .. 0 ... : ... .. . ... ... : ... .. . ... ... : ... .. . ... ... : ... .. . ... ...
ROW 02 : ... .. . ... ... ... : ... .. A ... ... ... : ... .. . ... : ... .. . ... : ... .. . ... ... : ... .. . ... ... : ... .. . ... ... : ... .. . ... ...
ROW 03 : ... .. . ... ... ... : ... .. 9 ... ... ... : ... .. . ... : ... .. . ... : ... .. . ... ... : ... .. . ... ... : ... .. . ... ... : ... .. . ... ...
ROW 04 : ... .. . ... ... ... : ... .. 7 ... ... ... : ... .. . ... : ... .. . ... : ... .. . ... ... : ... .. . ... ... : ... .. . ... ... : ... .. . ... ...
ROW 05 : ... .. . ... ... ... : ... .. . ... ... ... : ... .. . ... : ... .. . ... : ... .. . ... ... : ... .. . ... ... : ... .. . ... ... : ... .. . ... ...
ROW 06 : ... .. . ... ... ... : B-2 00 A ... ... ... : ... .. . ... : ... .. . ... : ... .. . ... ... : ... .. . ... ... : ... .. . ... ... : ... .. . ... ...
ROW 07 : ... .. 2 ... ... ... : ... .. 9 ... ... ... : ... .. . ... : ... .. . ... : ... .. . ... ... : ... .. . ... ... : ... .. . ... ... : ... .. . ... ...
ROW 08 : ... .. . ... ... ... : ... .. 8 ... ... ... : ... .. . ... : ... .. . ... : ... .. . ... ... : ... .. . ... ... : ... .. . ... ... : ... .. . ... ...
ROW 09 : ... .. . ... ... ... : ... .. 6 ... ... ... : ... .. . ... : ... .. . ... : ... .. . ... ... : ... .. . ... ... : ... .. . ... ... : ... .. . ... ...
ROW 0A : ... .. 1 ... ... ... : ... .. . ... ... ... : ... .. . ... : ... .. . ... : ... .. . ... ... : ... .. . ... ... : ... .. . ... ... : ... .. . ... ...
ROW 0B : ... .. . ... ... ... : D-3 00 A ... ... ... : ... .. . ... : ... .. . ... : ... .. . ... ... : --- .. . ... ... : --- .. . ... ... : ... .. 0 ... ...
ROW 0C : ... .. . ... ... ... : ... .. 9 ... ... ... : ... .. . ... : ... .. . ... : ... .. . ... ... : ... .. . ... ... : ... .. . ... ... : ... .. . ... ...
ROW 0D : ... .. 0 ... V00 ... : ... .. 8 ... ... ... : ... .. . ... : ... .. . ... : ... .. . ... ... : ... .. . ... ... : ... .. . ... ... : ... .. . ... ...
ROW 0E : ... .. . ... ... ... : ... .. 6 ... ... ... : ... .. . ... : ... .. . ... : ... .. . ... ... : ... .. . ... ... : ... .. . ... ... : ... .. . ... ...
ROW 0F : ... .. . ... ... ... : ... .. . ... ... ... : ... .. . ... : ... .. . ... : ... .. . ... ... : ... .. . ... ... : ... .. . ... ... : ... .. . ... ...
ROW 10 : D-4 00 F P80 V01 ... : F-3 00 9 ... ... ... : --- .. . ... : D-# 00 F ... : ... .. . ... ... : B-3 01 9 ... ... : F-4 01 9 ... ... : G-4 01 F ... ...
ROW 11 : ... .. E ... ... ... : ... .. 8 ... ... ... : ... .. . ... : ... .. C ... : ... .. . ... ... : ... .. 8 ... ... : ... .. 8 ... ... : ... .. D ... ...
ROW 12 : ... .. D ... ... ... : ... .. 7 ... ... ... : ... .. . ... : ... .. 6 ... : ... .. . ... ... : ... .. . ... ... : ... .. . ... ... : ... .. 8 ... ...
ROW 13 : ... .. A ... ... ... : ... .. 6 ... ... ... : ... .. . ... : ... .. 3 ... : ... .. . ... ... : ... .. . ... ... : ... .. . ... ... : ... .. . ... ...
ROW 14 : ... .. . ... ... ... : ... .. . ... ... ... : ... .. . ... : ... .. 2 ... : ... .. . ... ... : ... .. 7 ... ... : ... .. 7 ... ... : ... .. . ... ...
ROW 15 : ... .. . ... ... ... : G-3 00 9 ... ... ... : ... .. . ... : ... .. 0 ... : ... .. . ... ... : ... .. . ... ... : ... .. . ... ... : ... .. . ... ...
ROW 16 : ... .. . ... ... ... : ... .. 8 ... ... ... : ... .. . ... : ... .. . ... : ... .. . ... ... : ... .. . ... ... : ... .. . ... ... : ... .. . ... ...
ROW 17 : ... .. . ... ... ... : ... .. 7 ... ... ... : ... .. . ... : ... .. . ... : ... .. . ... ... : ... .. 6 ... ... : ... .. 6 ... ... : ... .. . ... ...
ROW 18 : ... .. . ... ... ... : ... .. 6 ... ... ... : ... .. . ... : ... .. . ... : ... .. . ... ... : ... .. . ... ... : ... .. . ... ... : ... .. . ... ...
ROW 19 : ... .. . ... ... ... : ... .. . ... ... ... : ... .. . ... : ... .. . ... : ... .. . ... ... : ... .. . ... ... : ... .. . ... ... : ... .. . ... ...
ROW 1A : ... .. . ... ... ... : B-3 00 8 ... ... ... : ... .. . ... : ... .. . ... : ... .. . ... ... : ... .. 3 ... ... : ... .. 3 ... ... : ... .. 4 ... ...
ROW 1B : ... .. 2 ... ... ... : ... .. 7 ... ... ... : ... .. . ... : ... .. . ... : ... .. . ... ... : ... .. . ... ... : ... .. . ... ... : ... .. . ... ...
ROW 1C : ... .. . ... ... ... : ... .. 6 ... ... ... : ... .. . ... : ... .. . ... : ... .. . ... ... : ... .. . ... ... : ... .. . ... ... : ... .. . ... ...
ROW 1D : ... .. . ... ... ... : ... .. 5 ... ... ... : ... .. . ... : ... .. . ... : ... .. . ... ... : ... .. . ... ... : ... .. . ... ... : ... .. . ... ...
ROW 1E : ... .. 1 ... ... ... : ... .. . ... ... ... : ... .. . ... : ... .. . ... : ... .. . ... ... : ... .. . ... ... : ... .. . ... ... : ... .. . ... ...
ROW 1F : ... .. . ... ... ... : D-4 00 8 ... ... ... : ... .. . ... : ... .. . ... : ... .. . ... ... : ... .. 1 ... ... : ... .. 1 ... ... : ... .. 2 ... ...
ROW 20 : ... .. . ... ... ... : ... .. 7 ... ... ... : ... .. . ... : ... .. . ... : ... .. . ... ... : ... .. . ... ... : ... .. . ... ... : ... .. . ... ...
ROW 21 : ... .. 0 ... V00 ... : ... .. 6 ... ... ... : ... .. . ... : ... .. . ... : ... .. . ... ... : ... .. . ... ... : ... .. . ... ... : ... .. . ... ...
ROW 22 : ... .. . ... ... ... : ... .. 5 ... ... ... : ... .. . ... : ... .. . ... : ... .. . ... ... : ... .. . ... ... : ... .. . ... ... : ... .. . ... ...
ROW 23 : ... .. . ... ... ... : ... .. . ... ... ... : ... .. . ... : ... .. . ... : ... .. . ... ... : ... .. . ... ... : ... .. . ... ... : ... .. . ... ...
ROW 24 : D#1 00 F P80 V01 ... : D#2 00 8 ... ... ... : D#2 00 . ... : ... .. D ... : ... .. . ... ... : ... .. . ... ... : ... .. . ... ... : ... .. 1 ... ...
ROW 25 : ... .. E ... ... ... : ... .. 7 ... ... ... : ... .. . ... : ... .. B ... : ... .. . ... ... : ... .. . ... ... : ... .. . ... ... : ... .. . ... ...
ROW 26 : ... .. D ... ... ... : ... .. 6 ... ... ... : ... .. . ... : ... .. . ... : ... .. . ... ... : ... .. . ... ... : ... .. . ... ... : ... .. . ... ...
ROW 27 : ... .. A ... ... ... : ... .. 5 ... ... ... : ... .. . ... : ... .. A ... : ... .. . ... ... : ... .. . ... ... : ... .. . ... ... : ... .. . ... ...
ROW 28 : ... .. . ... ... ... : ... .. . ... ... ... : ... .. . ... : ... .. 8 ... : ... .. . ... ... : ... .. . ... ... : ... .. . ... ... : ... .. . ... ...
ROW 29 : ... .. . ... ... ... : G-2 00 8 ... ... ... : ... .. . ... : ... .. 7 ... : ... .. . ... ... : ... .. . ... ... : ... .. . ... ... : ... .. . ... ...
ROW 2A : ... .. . ... ... ... : ... .. 7 ... ... ... : ... .. . ... : ... .. 6 ... : ... .. . ... ... : ... .. . ... ... : ... .. . ... ... : ... .. . ... ...
ROW 2B : ... .. . ... ... ... : ... .. 6 ... ... ... : ... .. . ... : ... .. . ... : ... .. . ... ... : ... .. . ... ... : ... .. . ... ... : ... .. . ... ...
ROW 2C : ... .. . ... ... ... : ... .. 5 ... ... ... : ... .. . ... : ... .. 5 ... : ... .. . ... ... : ... .. . ... ... : ... .. . ... ... : ... .. . ... ...
ROW 2D : ... .. . ... ... ... : ... .. . ... ... ... : ... .. . ... : ... .. . ... : ... .. . ... ... : ... .. . ... ... : ... .. . ... ... : ... .. . ... ...
ROW 2E : ... .. . ... ... ... : C-3 00 8 ... ... ... : ... .. . ... : ... .. 4 ... : ... .. . ... ... : ... .. . ... ... : ... .. . ... ... : ... .. . ... ...
ROW 2F : ... .. 2 ... ... ... : ... .. 7 ... ... ... : ... .. . ... : ... .. . ... : ... .. . ... ... : ... .. . ... ... : ... .. . ... ... : ... .. . ... ...
ROW 30 : ... .. . ... ... ... : ... .. 6 ... ... ... : ... .. . ... : ... .. 3 ... : ... .. . ... ... : ... .. . ... ... : ... .. . ... ... : ... .. . ... ...
ROW 31 : ... .. . ... ... ... : ... .. 5 ... ... ... : ... .. . ... : ... .. 2 ... : ... .. . ... ... : ... .. . ... ... : ... .. . ... ... : ... .. . ... ...
ROW 32 : ... .. 1 ... ... ... : ... .. . ... ... ... : ... .. . ... : ... .. . ... : ... .. . ... ... : ... .. . ... ... : ... .. . ... ... : ... .. . ... ...
ROW 33 : ... .. . ... ... ... : D#3 00 9 ... ... ... : ... .. . ... : ... .. 1 ... : ... .. . ... ... : --- .. . ... ... : --- .. . ... ... : ... .. 0 ... ...
ROW 34 : ... .. . ... ... ... : ... .. 8 ... ... ... : ... .. . ... : ... .. 0 ... : ... .. . ... ... : ... .. . ... ... : ... .. . ... ... : ... .. . ... ...
ROW 35 : ... .. 0 ... V00 ... : ... .. 7 ... ... ... : ... .. . ... : ... .. . ... : ... .. . ... ... : ... .. . ... ... : ... .. . ... ... : ... .. . ... ...
ROW 36 : ... .. . ... ... ... : ... .. 6 ... ... ... : ... .. . ... : ... .. . ... : ... .. . ... ... : ... .. . ... ... : ... .. . ... ... : ... .. . ... ...
ROW 37 : ... .. . ... ... ... : ... .. . ... ... ... : ... .. . ... : ... .. . ... : ... .. . ... ... : ... .. . ... ... : ... .. . ... ... : ... .. . ... ...
ROW 38 : C-4 00 F P80 V01 ... : G-3 00 9 ... ... ... : --- .. . ... : 9-# 00 A ... : ... .. . ... ... : C-4 01 9 ... ... : D#4 01 9 ... ... : F#4 01 F ... ...
ROW 39 : ... .. E ... ... ... : ... .. 8 ... ... ... : ... .. . ... : ... .. 8 ... : ... .. . ... ... : ... .. 8 ... ... : ... .. 8 ... ... : ... .. D ... ...
ROW 3A : ... .. D ... ... ... : ... .. 7 ... ... ... : ... .. . ... : ... .. 4 ... : ... .. . ... ... : ... .. . ... ... : ... .. . ... ... : ... .. 8 ... ...
ROW 3B : ... .. A ... ... ... : ... .. 6 ... ... ... : ... .. . ... : ... .. 2 ... : ... .. . ... ... : ... .. . ... ... : ... .. . ... ... : ... .. . ... ...
ROW 3C : ... .. . ... ... ... : ... .. . ... ... ... : ... .. . ... : ... .. 1 ... : ... .. . ... ... : ... .. 7 ... ... : ... .. 7 ... ... : ... .. . ... ...
ROW 3D : ... .. . ... ... ... : C-4 00 A ... ... ... : ... .. . ... : ... .. 0 ... : ... .. . ... ... : ... .. . ... ... : ... .. . ... ... : ... .. . ... ...
ROW 3E : ... .. . ... ... ... : ... .. 9 ... ... ... : ... .. . ... : ... .. . ... : ... .. . ... ... : ... .. . ... ... : ... .. . ... ... : ... .. . ... ...
ROW 3F : ... .. . ... ... ... : ... .. 8 ... ... ... : ... .. . ... : ... .. . ... : ... .. . ... ... : ... .. 6 ... ... : ... .. 6 ... ... : ... .. . ... ...
ROW 40 : ... .. . ... ... ... : ... .. 6 ... ... ... : ... .. . ... : ... .. . ... : ... .. . ... ... : ... .. . ... ... : ... .. . ... ... : ... .. . ... ...
ROW 41 : ... .. . ... ... ... : ... .. . ... ... ... : ... .. . ... : ... .. . ... : ... .. . ... ... : ... .. . ... ... : ... .. . ... ... : ... .. . ... ...
ROW 42 : ... .. . ... ... ... : D#4 00 A ... ... ... : ... .. . ... : ... .. 8 ... : ... .. . ... ... : ... .. 3 ... ... : ... .. 3 ... ... : ... .. 4 ... ...
ROW 43 : ... .. 2 ... ... ... : ... .. 9 ... ... ... : ... .. . ... : ... .. 6 ... : ... .. . ... ... : ... .. . ... ... : ... .. . ... ... : ... .. . ... ...
ROW 44 : ... .. . ... ... ... : ... .. 8 ... ... ... : ... .. . ... : ... .. 3 ... : ... .. . ... ... : ... .. . ... ... : ... .. . ... ... : ... .. . ... ...
ROW 45 : ... .. . ... ... ... : ... .. 6 ... ... ... : ... .. . ... : ... .. 1 ... : ... .. . ... ... : ... .. . ... ... : ... .. . ... ... : ... .. . ... ...
ROW 46 : ... .. 1 ... ... ... : ... .. . ... ... ... : ... .. . ... : ... .. . ... : ... .. . ... ... : ... .. . ... ... : ... .. . ... ... : ... .. . ... ...
ROW 47 : ... .. . ... ... ... : G-4 00 B ... ... ... : ... .. . ... : ... .. 0 ... : ... .. . ... ... : ... .. 1 ... ... : ... .. 1 ... ... : ... .. 2 ... ...
ROW 48 : ... .. . ... ... ... : ... .. A ... ... ... : ... .. . ... : ... .. . ... : ... .. . ... ... : ... .. . ... ... : ... .. . ... ... : ... .. . ... ...
ROW 49 : ... .. 0 ... V00 ... : ... .. 9 ... ... ... : ... .. . ... : ... .. . ... : ... .. . ... ... : ... .. . ... ... : ... .. . ... ... : ... .. . ... ...
ROW 4A : ... .. . ... ... ... : ... .. 7 ... ... ... : ... .. . ... : ... .. . ... : ... .. . ... ... : ... .. . ... ... : ... .. . ... ... : ... .. . ... ...
ROW 4B : ... .. . ... ... ... : ... .. . ... ... ... : ... .. . ... : ... .. . ... : ... .. . ... ... : ... .. . ... ... : ... .. . ... ... : ... .. . ... ...
ROW 4C : D-1 00 F P80 V01 ... : D-2 00 B ... ... ... : D-2 00 . ... : ... .. F ... : ... .. . ... ... : ... .. . ... ... : ... .. . ... ... : ... .. 1 ... ...
ROW 4D : ... .. E ... ... ... : ... .. A ... ... ... : ... .. . ... : ... .. C ... : ... .. . ... ... : ... .. . ... ... : ... .. . ... ... : ... .. . ... ...
ROW 4E : ... .. D ... ... ... : ... .. 9 ... ... ... : ... .. . ... : ... .. 6 ... : ... .. . ... ... : ... .. . ... ... : ... .. . ... ... : ... .. . ... ...
ROW 4F : ... .. A ... ... ... : ... .. 7 ... ... ... : ... .. . ... : ... .. 3 ... : ... .. . ... ... : ... .. . ... ... : ... .. . ... ... : ... .. . ... ...
ROW 50 : ... .. . ... ... ... : ... .. . ... ... ... : ... .. . ... : ... .. 2 ... : ... .. . ... ... : ... .. . ... ... : ... .. . ... ... : ... .. . ... ...
ROW 51 : ... .. . ... ... ... : G-2 00 C ... ... ... : ... .. . ... : ... .. 0 ... : ... .. . ... ... : ... .. . ... ... : ... .. . ... ... : ... .. . ... ...
ROW 52 : ... .. . ... ... ... : ... .. B ... ... ... : ... .. . ... : ... .. . ... : ... .. . ... ... : ... .. . ... ... : ... .. . ... ... : ... .. . ... ...
ROW 53 : ... .. . ... ... ... : ... .. A ... ... ... : ... .. . ... : ... .. . ... : ... .. . ... ... : ... .. . ... ... : ... .. . ... ... : ... .. . ... ...
ROW 54 : ... .. . ... ... ... : ... .. 8 ... ... ... : ... .. . ... : ... .. . ... : ... .. . ... ... : ... .. . ... ... : ... .. . ... ... : ... .. . ... ...
ROW 55 : ... .. . ... ... ... : ... .. . ... ... ... : ... .. . ... : ... .. . ... : ... .. . ... ... : ... .. . ... ... : ... .. . ... ... : ... .. . ... ...
ROW 56 : ... .. . ... ... ... : B-2 00 C ... ... ... : ... .. . ... : ... .. . ... : ... .. . ... ... : ... .. . ... ... : ... .. . ... ... : ... .. . ... ...
ROW 57 : ... .. 2 ... ... ... : ... .. B ... ... ... : ... .. . ... : ... .. . ... : ... .. . ... ... : ... .. . ... ... : ... .. . ... ... : ... .. . ... ...
ROW 58 : ... .. . ... ... ... : ... .. A ... ... ... : ... .. . ... : ... .. . ... : ... .. . ... ... : ... .. . ... ... : ... .. . ... ... : ... .. . ... ...
ROW 59 : ... .. . ... ... ... : ... .. 8 ... ... ... : ... .. . ... : ... .. . ... : ... .. . ... ... : ... .. . ... ... : ... .. . ... ... : ... .. . ... ...
ROW 5A : ... .. 1 ... ... ... : ... .. . ... ... ... : ... .. . ... : ... .. . ... : ... .. . ... ... : ... .. . ... ... : ... .. . ... ... : ... .. . ... ...
ROW 5B : ... .. . ... ... ... : D-3 00 D ... ... ... : ... .. . ... : ... .. . ... : ... .. . ... ... : --- .. . ... ... : --- .. . ... ... : ... .. 0 ... ...
ROW 5C : ... .. . ... ... ... : ... .. C ... ... ... : ... .. . ... : ... .. . ... : ... .. . ... ... : ... .. . ... ... : ... .. . ... ... : ... .. . ... ...
ROW 5D : ... .. 0 ... V00 ... : ... .. B ... ... ... : ... .. . ... : ... .. . ... : ... .. . ... ... : ... .. . ... ... : ... .. . ... ... : ... .. . ... ...
ROW 5E : ... .. . ... ... ... : ... .. 8 ... ... ... : ... .. . ... : ... .. . ... : ... .. . ... ... : ... .. . ... ... : ... .. . ... ... : ... .. . ... ...
ROW 5F : ... .. . ... ... ... : ... .. . ... ... ... : ... .. . ... : ... .. . ... : ... .. . ... ... : ... .. . ... ... : ... .. . ... ... : ... .. . ... ...
ROW 60 : G-4 00 8 P80 V02 ... : G-3 00 D ... ... ... : --- .. . ... : ... .. . ... : ... .. . ... ... : B-3 01 9 ... ... : F-4 01 9 ... ... : G-4 01 F ... ...
ROW 61 : ... .. 7 ... ... ... : ... .. C ... ... ... : ... .. . ... : ... .. . ... : ... .. . ... ... : ... .. 8 ... ... : ... .. 8 ... ... : ... .. D ... ...
ROW 62 : ... .. 6 ... ... ... : ... .. B ... ... ... : ... .. . ... : ... .. . ... : ... .. . ... ... : ... .. . ... ... : ... .. . ... ... : ... .. 8 ... ...
ROW 63 : ... .. 5 ... ... ... : ... .. 8 ... ... ... : ... .. . ... : ... .. . ... : ... .. . ... ... : ... .. . ... ... : ... .. . ... ... : ... .. . ... ...
ROW 64 : ... .. . ... ... ... : ... .. . ... ... ... : ... .. . ... : ... .. . ... : ... .. . ... ... : ... .. 7 ... ... : ... .. 7 ... ... : ... .. . ... ...
ROW 65 : A-4 00 A ... ... ... : B-3 00 E ... ... ... : ... .. . ... : ... .. . ... : ... .. . ... ... : ... .. . ... ... : ... .. . ... ... : ... .. . ... ...
ROW 66 : ... .. 9 ... ... ... : ... .. D ... ... ... : ... .. . ... : ... .. . ... : ... .. . ... ... : ... .. . ... ... : ... .. . ... ... : ... .. . ... ...
ROW 67 : ... .. 8 ... ... ... : ... .. C ... ... ... : ... .. . ... : ... .. . ... : ... .. . ... ... : ... .. 6 ... ... : ... .. 6 ... ... : ... .. . ... ...
ROW 68 : ... .. 6 ... ... ... : ... .. 9 ... ... ... : ... .. . ... : ... .. . ... : ... .. . ... ... : ... .. . ... ... : ... .. . ... ... : ... .. . ... ...
ROW 69 : ... .. . ... ... ... : ... .. . ... ... ... : ... .. . ... : ... .. . ... : ... .. . ... ... : ... .. . ... ... : ... .. . ... ... : ... .. . ... ...
ROW 6A : B-4 00 C ... ... ... : D-4 00 E ... ... ... : ... .. . ... : ... .. . ... : ... .. . ... ... : ... .. 3 ... ... : ... .. 3 ... ... : ... .. 4 ... ...
ROW 6B : ... .. B ... ... ... : ... .. D ... ... ... : ... .. . ... : ... .. . ... : ... .. . ... ... : ... .. . ... ... : ... .. . ... ... : ... .. . ... ...
ROW 6C : ... .. A ... ... ... : ... .. C ... ... ... : ... .. . ... : ... .. . ... : ... .. . ... ... : ... .. . ... ... : ... .. . ... ... : ... .. . ... ...
ROW 6D : ... .. 8 ... ... ... : ... .. 9 ... ... ... : ... .. . ... : ... .. . ... : ... .. . ... ... : ... .. . ... ... : ... .. . ... ... : ... .. . ... ...
ROW 6E : ... .. . ... ... ... : ... .. . ... ... ... : ... .. . ... : ... .. . ... : ... .. . ... ... : ... .. . ... ... : ... .. . ... ... : ... .. . ... ...
ROW 6F : C-5 00 F ... ... ... : G-4 00 F ... ... ... : ... .. . ... : ... .. . ... : ... .. . ... ... : ... .. 1 ... ... : ... .. 1 ... ... : ... .. 2 ... ...
ROW 70 : ... .. E ... ... ... : ... .. E ... ... ... : ... .. . ... : ... .. . ... : ... .. . ... ... : ... .. . ... ... : ... .. . ... ... : ... .. . ... ...
ROW 71 : ... .. D ... ... ... : ... .. D ... ... ... : ... .. . ... : ... .. . ... : ... .. . ... ... : ... .. . ... ... : ... .. . ... ... : ... .. . ... ...
ROW 72 : ... .. A ... ... ... : ... .. A ... ... ... : ... .. . ... : ... .. . ... : ... .. . ... ... : ... .. . ... ... : ... .. . ... ... : ... .. . ... ...
ROW 73 : ... .. . ... ... ... : ... .. . ... ... ... : ... .. . ... : ... .. . ... : ... .. . ... ... : ... .. . ... ... : ... .. . ... ... : ... .. . ... ...
ROW 74 : D-5 00 F ... ... ... : C-3 00 8 ... ... ... : C-2 00 . ... : D-# 00 D V01 : ... .. . ... ... : D#3 01 9 ... ... : G-3 01 9 ... ... : F-4 01 8 ... ...
ROW 75 : ... .. E ... ... ... : ... .. 7 ... ... ... : ... .. . ... : ... .. B ... : ... .. . ... ... : ... .. 8 ... ... : ... .. 8 ... ... : ... .. 6 ... ...
ROW 76 : ... .. D ... ... ... : ... .. . ... ... ... : ... .. . ... : ... .. . ... : ... .. . ... ... : ... .. . ... ... : ... .. . ... ... : ... .. 4 ... ...
ROW 77 : ... .. A ... ... ... : ... .. 6 ... ... ... : ... .. . ... : ... .. A ... : ... .. . ... ... : ... .. . ... ... : ... .. . ... ... : ... .. . ... ...
ROW 78 : ... .. . ... ... ... : ... .. 5 ... ... ... : ... .. . ... : ... .. 8 ... : ... .. . ... ... : ... .. 7 ... ... : ... .. 7 ... ... : ... .. . ... ...
ROW 79 : ... .. . ... ... ... : ... .. 4 ... ... ... : ... .. . ... : ... .. 7 ... : ... .. . ... ... : ... .. . ... ... : ... .. . ... ... : ... .. . ... ...
ROW 7A : ... .. . ... ... ... : ... .. . ... ... ... : ... .. . ... : ... .. 6 ... : ... .. . ... ... : ... .. . ... ... : ... .. . ... ... : ... .. . ... ...
ROW 7B : ... .. . ... ... ... : ... .. . ... ... ... : ... .. . ... : ... .. . ... : ... .. . ... ... : ... .. 6 ... ... : ... .. 6 ... ... : ... .. . ... ...
ROW 7C : ... .. . ... ... ... : ... .. 3 ... ... ... : ... .. . ... : ... .. 5 ... : ... .. . ... ... : ... .. . ... ... : ... .. . ... ... : ... .. . ... ...
ROW 7D : ... .. . ... ... ... : ... .. . ... ... ... : ... .. . ... : ... .. . ... : ... .. . ... ... : ... .. . ... ... : ... .. . ... ... : ... .. . ... ...
ROW 7E : ... .. . ... ... ... : G-2 00 8 ... ... ... : ... .. . ... : ... .. 4 ... : ... .. . ... ... : ... .. 1 ... ... : ... .. 1 ... ... : G-3 01 8 ... ...
ROW 7F : ... .. . ... ... ... : ... .. 7 ... ... ... : ... .. . ... : ... .. . ... : ... .. . ... ... : ... .. . ... ... : ... .. . ... ... : ... .. 6 ... ...
ROW 80 : ... .. . ... ... ... : ... .. . ... ... ... : ... .. . ... : ... .. 3 ... : ... .. . ... ... : ... .. . ... ... : ... .. . ... ... : ... .. 4 ... ...
ROW 81 : ... .. . ... ... ... : ... .. 6 ... ... ... : ... .. . ... : ... .. 2 ... : ... .. . ... ... : ... .. . ... ... : ... .. . ... ... : ... .. . ... ...
ROW 82 : ... .. . ... ... ... : ... .. 5 ... ... ... : ... .. . ... : ... .. . ... : ... .. . ... ... : ... .. . ... ... : ... .. . ... ... : ... .. . ... ...
ROW 83 : ... .. . ... ... ... : ... .. 4 ... ... ... : ... .. . ... : ... .. 1 ... : ... .. . ... ... : ... .. . ... ... : ... .. . ... ... : ... .. . ... ...
ROW 84 : ... .. . ... ... ... : ... .. . ... ... ... : ... .. . ... : ... .. 0 ... : ... .. . ... ... : ... .. . ... ... : ... .. . ... ... : ... .. . ... ...
ROW 85 : ... .. . ... ... ... : ... .. . ... ... ... : ... .. . ... : ... .. . ... : ... .. . ... ... : ... .. . ... ... : ... .. . ... ... : ... .. . ... ...
ROW 86 : ... .. . ... ... ... : ... .. 3 ... ... ... : ... .. . ... : ... .. . ... : ... .. . ... ... : ... .. . ... ... : ... .. . ... ... : ... .. . ... ...
ROW 87 : ... .. . ... ... ... : ... .. . ... ... ... : ... .. . ... : ... .. . ... : ... .. . ... ... : ... .. . ... ... : ... .. . ... ... : ... .. . ... ...
ROW 88 : C-5 00 F ... ... ... : D#2 00 8 ... ... ... : G-4 00 . ... : 9-# 00 A V00 : ... .. . ... ... : D-3 01 9 ... ... : ... .. 9 ... ... : F-4 01 8 ... ...
ROW 89 : ... .. E ... ... ... : ... .. 7 ... ... ... : ... .. . ... : ... .. 8 ... : ... .. . ... ... : ... .. 8 ... ... : ... .. 8 ... ... : ... .. 6 ... ...
ROW 8A : ... .. D ... ... ... : ... .. . ... ... ... : ... .. . ... : ... .. 4 ... : ... .. . ... ... : ... .. . ... ... : ... .. . ... ... : ... .. 4 ... ...
ROW 8B : ... .. A ... ... ... : ... .. 6 ... ... ... : ... .. . ... : ... .. 2 ... : ... .. . ... ... : ... .. . ... ... : ... .. . ... ... : ... .. . ... ...
ROW 8C : ... .. . ... ... ... : ... .. 5 ... ... ... : ... .. . ... : ... .. 1 ... : ... .. . ... ... : ... .. 7 ... ... : ... .. 7 ... ... : ... .. . ... ...
ROW 8D : ... .. . ... ... ... : ... .. 4 ... ... ... : ... .. . ... : ... .. 0 ... : ... .. . ... ... : ... .. . ... ... : ... .. . ... ... : ... .. . ... ...
ROW 8E : ... .. 2 ... ... ... : ... .. . ... ... ... : ... .. . ... : ... .. . ... : ... .. . ... ... : ... .. . ... ... : ... .. . ... ... : ... .. . ... ...
ROW 8F : ... .. . ... ... ... : ... .. . ... ... ... : ... .. . ... : ... .. . ... : ... .. . ... ... : ... .. 6 ... ... : ... .. 6 ... ... : ... .. . ... ...
ROW 90 : ... .. . ... ... ... : ... .. 3 ... ... ... : ... .. . ... : ... .. . ... : ... .. . ... ... : ... .. . ... ... : ... .. . ... ... : ... .. . ... ...
ROW 91 : ... .. 1 ... ... ... : ... .. . ... ... ... : ... .. . ... : ... .. . ... : ... .. . ... ... : ... .. . ... ... : ... .. . ... ... : ... .. . ... ...
ROW 92 : B-4 00 F ... ... ... : G-2 00 8 ... ... ... : --- .. . ... : ... .. 8 ... : ... .. . ... ... : ... .. 1 ... ... : ... .. 1 ... ... : G-3 01 8 ... ...
ROW 93 : ... .. E ... ... ... : ... .. 7 ... ... ... : ... .. . ... : ... .. 6 ... : ... .. . ... ... : ... .. . ... ... : ... .. . ... ... : ... .. 6 ... ...
ROW 94 : ... .. D ... ... ... : ... .. . ... ... ... : ... .. . ... : ... .. 3 ... : ... .. . ... ... : ... .. . ... ... : ... .. . ... ... : ... .. 4 ... ...
ROW 95 : ... .. A ... ... ... : ... .. 6 ... ... ... : ... .. . ... : ... .. 1 ... : ... .. . ... ... : ... .. . ... ... : ... .. . ... ... : ... .. . ... ...
ROW 96 : ... .. . ... ... ... : ... .. 5 ... ... ... : ... .. . ... : ... .. . ... : ... .. . ... ... : ... .. . ... ... : ... .. . ... ... : ... .. . ... ...
ROW 97 : ... .. . ... ... ... : ... .. 4 ... ... ... : ... .. . ... : ... .. 0 ... : ... .. . ... ... : ... .. . ... ... : ... .. . ... ... : ... .. . ... ...
ROW 98 : ... .. 2 ... ... ... : ... .. . ... ... ... : ... .. . ... : ... .. . ... : ... .. . ... ... : ... .. . ... ... : ... .. . ... ... : ... .. . ... ...
ROW 99 : ... .. . ... ... ... : ... .. . ... ... ... : ... .. . ... : ... .. . ... : ... .. . ... ... : ... .. . ... ... : ... .. . ... ... : ... .. . ... ...
ROW 9A : ... .. . ... ... ... : ... .. 3 ... ... ... : ... .. . ... : ... .. . ... : ... .. . ... ... : ... .. . ... ... : ... .. . ... ... : ... .. . ... ...
ROW 9B : ... .. 1 ... ... ... : ... .. . ... ... ... : ... .. . ... : ... .. . ... : ... .. . ... ... : ... .. . ... ... : ... .. . ... ... : ... .. . ... ...
ROW 9C : C-5 00 F ... ... ... : C-3 00 8 ... ... ... : G-2 00 . ... : ... .. F ... : ... .. . ... ... : D#3 01 9 ... ... : ... .. 9 ... ... : D#4 01 8 ... ...
ROW 9D : ... .. E ... ... ... : ... .. 7 ... ... ... : ... .. . ... : ... .. C ... : ... .. . ... ... : ... .. 8 ... ... : ... .. 8 ... ... : ... .. 6 ... ...
ROW 9E : ... .. D ... ... ... : ... .. . ... ... ... : ... .. . ... : ... .. 6 ... : ... .. . ... ... : ... .. . ... ... : ... .. . ... ... : ... .. 4 ... ...
ROW 9F : ... .. A ... ... ... : ... .. 6 ... ... ... : ... .. . ... : ... .. 3 ... : ... .. . ... ... : ... .. . ... ... : ... .. . ... ... : ... .. . ... ...
ROW A0 : ... .. . ... ... ... : ... .. 5 ... ... ... : ... .. . ... : ... .. 2 ... : ... .. . ... ... : ... .. 7 ... ... : ... .. 7 ... ... : ... .. . ... ...
ROW A1 : ... .. . ... ... ... : ... .. 4 ... ... ... : ... .. . ... : ... .. 0 ... : ... .. . ... ... : ... .. . ... ... : ... .. . ... ... : ... .. . ... ...
ROW A2 : ... .. . ... ... ... : ... .. . ... ... ... : ... .. . ... : ... .. . ... : ... .. . ... ... : ... .. . ... ... : ... .. . ... ... : ... .. . ... ...
ROW A3 : ... .. . ... ... ... : ... .. . ... ... ... : ... .. . ... : ... .. . ... : ... .. . ... ... : ... .. 6 ... ... : ... .. 6 ... ... : ... .. . ... ...
ROW A4 : ... .. . ... ... ... : ... .. 3 ... ... ... : ... .. . ... : ... .. . ... : ... .. . ... ... : ... .. . ... ... : ... .. . ... ... : ... .. . ... ...
ROW A5 : ... .. . ... ... ... : ... .. . ... ... ... : ... .. . ... : ... .. . ... : ... .. . ... ... : ... .. . ... ... : ... .. . ... ... : ... .. . ... ...
ROW A6 : ... .. . P82 ... ... : G-2 00 8 ... ... ... : ... .. . ... : ... .. . ... : ... .. . ... ... : ... .. 1 ... ... : ... .. 1 ... ... : G-3 01 8 ... ...
ROW A7 : ... .. . P83 ... ... : ... .. 7 ... ... ... : ... .. . ... : ... .. . ... : ... .. . ... ... : ... .. . ... ... : ... .. . ... ... : ... .. 6 ... ...
ROW A8 : ... .. . ... ... ... : ... .. . ... ... ... : ... .. . ... : ... .. . ... : ... .. . ... ... : ... .. . ... ... : ... .. . ... ... : ... .. 4 ... ...
ROW A9 : ... .. . P81 ... ... : ... .. 6 ... ... ... : ... .. . ... : ... .. . ... : ... .. . ... ... : ... .. . ... ... : ... .. . ... ... : ... .. . ... ...
ROW AA : ... .. . P7F ... ... : ... .. 5 ... ... ... : ... .. . ... : ... .. . ... : ... .. . ... ... : ... .. . ... ... : ... .. . ... ... : ... .. . ... ...
ROW AB : B-4 00 A P83 ... ... : ... .. 4 ... ... ... : ... .. . ... : ... .. . ... : ... .. . ... ... : ... .. . ... ... : ... .. . ... ... : ... .. . ... ...
ROW AC : ... .. . ... ... ... : ... .. . ... ... ... : ... .. . ... : ... .. . ... : ... .. . ... ... : ... .. . ... ... : ... .. . ... ... : ... .. . ... ...
ROW AD : C-5 00 A P7E ... ... : ... .. . ... ... ... : ... .. . ... : ... .. . ... : ... .. . ... ... : ... .. . ... ... : ... .. . ... ... : ... .. . ... ...
ROW AE : ... .. . P80 ... ... : ... .. 3 ... ... ... : ... .. . ... : ... .. . ... : ... .. . ... ... : ... .. . ... ... : ... .. . ... ... : ... .. . ... ...
ROW AF : ... .. . P82 ... ... : ... .. . ... ... ... : ... .. . ... : ... .. . ... : ... .. . ... ... : ... .. . ... ... : ... .. . ... ... : ... .. . ... ...
ROW B0 : G-4 00 F P80 ... ... : D#2 00 8 ... ... ... : D#4 00 . ... : D-# 00 8 ... : ... .. . ... ... : C-3 01 9 ... ... : ... .. 9 ... ... : D#4 01 8 ... ...
ROW B1 : ... .. E ... ... ... : ... .. 7 ... ... ... : ... .. . ... : ... .. 7 ... : ... .. . ... ... : ... .. 8 ... ... : ... .. 8 ... ... : ... .. 6 ... ...
ROW B2 : ... .. D ... ... ... : ... .. . ... ... ... : ... .. . ... : ... .. . ... : ... .. . ... ... : ... .. . ... ... : ... .. . ... ... : ... .. 4 ... ...
ROW B3 : ... .. A ... ... ... : ... .. 6 ... ... ... : ... .. . ... : ... .. 6 ... : ... .. . ... ... : ... .. . ... ... : ... .. . ... ... : ... .. . ... ...
ROW B4 : ... .. . ... ... ... : ... .. 5 ... ... ... : ... .. . ... : ... .. 5 ... : ... .. . ... ... : ... .. 7 ... ... : ... .. 7 ... ... : ... .. . ... ...
ROW B5 : ... .. . ... ... ... : ... .. 4 ... ... ... : ... .. . ... : ... .. 4 ... : ... .. . ... ... : ... .. . ... ... : ... .. . ... ... : ... .. . ... ...
ROW B6 : ... .. . ... ... ... : ... .. . ... ... ... : ... .. . ... : ... .. . ... : ... .. . ... ... : ... .. . ... ... : ... .. . ... ... : ... .. . ... ...
ROW B7 : ... .. . ... ... ... : ... .. . ... ... ... : ... .. . ... : ... .. . ... : ... .. . ... ... : ... .. 6 ... ... : ... .. 6 ... ... : ... .. . ... ...
ROW B8 : ... .. . ... ... ... : ... .. 3 ... ... ... : ... .. . ... : ... .. 3 ... : ... .. . ... ... : ... .. . ... ... : ... .. . ... ... : ... .. . ... ...
ROW B9 : ... .. . ... ... ... : ... .. . ... ... ... : ... .. . ... : ... .. . ... : ... .. . ... ... : ... .. . ... ... : ... .. . ... ... : ... .. . ... ...
ROW BA : ... .. . ... ... ... : G-2 00 8 ... ... ... : --- .. . ... : ... .. 2 ... : ... .. . ... ... : ... .. 1 ... ... : ... .. 1 ... ... : G-3 01 8 ... ...
ROW BB : ... .. 2 ... ... ... : ... .. 7 ... ... ... : ... .. . ... : ... .. . ... : ... .. . ... ... : ... .. . ... ... : ... .. . ... ... : ... .. 6 ... ...
ROW BC : ... .. . ... ... ... : ... .. . ... ... ... : ... .. . ... : ... .. . ... : ... .. . ... ... : ... .. . ... ... : ... .. . ... ... : ... .. 4 ... ...
ROW BD : ... .. . ... ... ... : ... .. 6 ... ... ... : ... .. . ... : ... .. 1 ... : ... .. . ... ... : ... .. . ... ... : ... .. . ... ... : ... .. . ... ...
ROW BE : ... .. 1 ... ... ... : ... .. 5 ... ... ... : ... .. . ... : ... .. . ... : ... .. . ... ... : ... .. . ... ... : ... .. . ... ... : ... .. . ... ...
ROW BF : ... .. . ... ... ... : ... .. 4 ... ... ... : ... .. . ... : ... .. . ... : ... .. . ... ... : ... .. . ... ... : ... .. . ... ... : ... .. . ... ...
ROW C0 : ... .. . ... ... ... : ... .. . ... ... ... : ... .. . ... : ... .. 0 ... : ... .. . ... ... : ... .. . ... ... : ... .. . ... ... : ... .. . ... ...
ROW C1 : ... .. 0 ... V00 ... : ... .. . ... ... ... : ... .. . ... : ... .. . ... : ... .. . ... ... : ... .. . ... ... : ... .. . ... ... : ... .. . ... ...
ROW C2 : ... .. . ... ... ... : ... .. 3 ... ... ... : ... .. . ... : ... .. . ... : ... .. . ... ... : ... .. . ... ... : ... .. . ... ... : ... .. . ... ...
ROW C3 : ... .. . ... ... ... : ... .. . ... ... ... : ... .. . ... : ... .. . ... : ... .. . ... ... : ... .. . ... ... : ... .. . ... ... : ... .. . ... ...
ROW C4 : A#4 00 F P80 V02 ... : B-2 00 8 ... ... ... : G#1 00 . ... : ... .. D ... : ... .. . ... ... : D#3 01 9 ... ... : G#3 01 9 ... ... : C#4 01 8 ... ...
ROW C5 : ... .. E ... ... ... : ... .. 7 ... ... ... : ... .. . ... : ... .. B ... : ... .. . ... ... : ... .. 8 ... ... : ... .. 8 ... ... : ... .. 6 ... ...
ROW C6 : ... .. D ... ... ... : ... .. . ... ... ... : ... .. . ... : ... .. . ... : ... .. . ... ... : ... .. . ... ... : ... .. . ... ... : ... .. 4 ... ...
ROW C7 : ... .. A ... ... ... : ... .. 6 ... ... ... : ... .. . ... : ... .. A ... : ... .. . ... ... : ... .. . ... ... : ... .. . ... ... : ... .. . ... ...
ROW C8 : ... .. . ... ... ... : ... .. 5 ... ... ... : ... .. . ... : ... .. 8 ... : ... .. . ... ... : ... .. 7 ... ... : ... .. 7 ... ... : ... .. . ... ...
ROW C9 : ... .. . ... ... ... : ... .. 4 ... ... ... : ... .. . ... : ... .. 7 ... : ... .. . ... ... : ... .. . ... ... : ... .. . ... ... : ... .. . ... ...
ROW CA : ... .. . ... ... ... : ... .. . ... ... ... : ... .. . ... : ... .. 6 ... : ... .. . ... ... : ... .. . ... ... : ... .. . ... ... : ... .. . ... ...
ROW CB : ... .. . ... ... ... : ... .. . ... ... ... : ... .. . ... : ... .. . ... : ... .. . ... ... : ... .. 6 ... ... : ... .. 6 ... ... : ... .. . ... ...
ROW CC : ... .. . ... ... ... : ... .. 3 ... ... ... : ... .. . ... : ... .. 5 ... : ... .. . ... ... : ... .. . ... ... : ... .. . ... ... : ... .. . ... ...
ROW CD : ... .. . ... ... ... : ... .. . ... ... ... : ... .. . ... : ... .. . ... : ... .. . ... ... : ... .. . ... ... : ... .. . ... ... : ... .. . ... ...
ROW CE : ... .. . ... ... ... : G#2 00 8 ... ... ... : ... .. . ... : ... .. 4 ... : ... .. . ... ... : ... .. 1 ... ... : ... .. 1 ... ... : G#3 01 8 ... ...
ROW CF : ... .. . ... ... ... : ... .. 7 ... ... ... : ... .. . ... : ... .. . ... : ... .. . ... ... : ... .. . ... ... : ... .. . ... ... : ... .. 6 ... ...
ROW D0 : ... .. . ... ... ... : ... .. . ... ... ... : ... .. . ... : ... .. 3 ... : ... .. . ... ... : ... .. . ... ... : ... .. . ... ... : ... .. 4 ... ...
ROW D1 : ... .. . ... ... ... : ... .. 6 ... ... ... : ... .. . ... : ... .. 2 ... : ... .. . ... ... : ... .. . ... ... : ... .. . ... ... : ... .. . ... ...
ROW D2 : ... .. . ... ... ... : ... .. 5 ... ... ... : ... .. . ... : ... .. . ... : ... .. . ... ... : ... .. . ... ... : ... .. . ... ... : ... .. . ... ...
ROW D3 : ... .. . ... ... ... : ... .. 4 ... ... ... : ... .. . ... : ... .. 1 ... : ... .. . ... ... : ... .. . ... ... : ... .. . ... ... : ... .. . ... ...
ROW D4 : ... .. 2 ... ... ... : ... .. . ... ... ... : ... .. . ... : ... .. 0 ... : ... .. . ... ... : ... .. . ... ... : ... .. . ... ... : ... .. . ... ...
ROW D5 : ... .. . ... ... ... : ... .. . ... ... ... : ... .. . ... : ... .. . ... : ... .. . ... ... : ... .. . ... ... : ... .. . ... ... : ... .. . ... ...
ROW D6 : ... .. . ... ... ... : ... .. 3 ... ... ... : ... .. . ... : ... .. . ... : ... .. . ... ... : ... .. . ... ... : ... .. . ... ... : ... .. . ... ...
ROW D7 : ... .. 1 ... ... ... : ... .. . ... ... ... : ... .. . ... : ... .. . ... : ... .. . ... ... : ... .. . ... ... : ... .. . ... ... : ... .. . ... ...
ROW D8 : G#4 00 F ... ... ... : F-2 00 8 ... ... ... : F-4 00 . ... : 9-# 00 A ... : ... .. . ... ... : B-2 01 9 ... ... : ... .. 9 ... ... : C#4 01 8 ... ...
ROW D9 : ... .. E ... ... ... : ... .. 7 ... ... ... : ... .. . ... : ... .. 8 ... : ... .. . ... ... : ... .. 8 ... ... : ... .. 8 ... ... : ... .. 6 ... ...
ROW DA : ... .. D ... ... ... : ... .. . ... ... ... : ... .. . ... : ... .. 4 ... : ... .. . ... ... : ... .. . ... ... : ... .. . ... ... : ... .. 4 ... ...
ROW DB : ... .. A ... ... ... : ... .. 6 ... ... ... : ... .. . ... : ... .. 2 ... : ... .. . ... ... : ... .. . ... ... : ... .. . ... ... : ... .. . ... ...
ROW DC : ... .. . ... ... ... : ... .. 5 ... ... ... : ... .. . ... : ... .. 1 ... : ... .. . ... ... : ... .. 7 ... ... : ... .. 7 ... ... : ... .. . ... ...
ROW DD : ... .. . ... ... ... : ... .. 4 ... ... ... : ... .. . ... : ... .. 0 ... : ... .. . ... ... : ... .. . ... ... : ... .. . ... ... : ... .. . ... ...
ROW DE : ... .. 2 ... ... ... : ... .. . ... ... ... : ... .. . ... : ... .. . ... : ... .. . ... ... : ... .. . ... ... : ... .. . ... ... : ... .. . ... ...
ROW DF : ... .. . ... ... ... : ... .. . ... ... ... : ... .. . ... : ... .. 8 ... : ... .. . ... ... : ... .. 6 ... ... : ... .. 6 ... ... : ... .. . ... ...
ROW E0 : ... .. . ... ... ... : ... .. 3 ... ... ... : ... .. . ... : ... .. 6 ... : ... .. . ... ... : ... .. . ... ... : ... .. . ... ... : ... .. . ... ...
ROW E1 : ... .. 1 ... ... ... : ... .. . ... ... ... : ... .. . ... : ... .. 3 ... : ... .. . ... ... : ... .. . ... ... : ... .. . ... ... : ... .. . ... ...
ROW E2 : G-4 00 F ... ... ... : G#2 00 8 ... ... ... : --- .. . ... : ... .. 1 ... : ... .. . ... ... : ... .. 1 ... ... : ... .. 1 ... ... : G#3 01 8 ... ...
ROW E3 : ... .. E ... ... ... : ... .. 7 ... ... ... : ... .. . ... : ... .. . ... : ... .. . ... ... : ... .. . ... ... : ... .. . ... ... : ... .. 6 ... ...
ROW E4 : ... .. D ... ... ... : ... .. . ... ... ... : ... .. . ... : ... .. 0 ... : ... .. . ... ... : ... .. . ... ... : ... .. . ... ... : ... .. 4 ... ...
ROW E5 : ... .. A ... ... ... : ... .. 6 ... ... ... : ... .. . ... : ... .. C ... : ... .. . ... ... : ... .. . ... ... : ... .. . ... ... : ... .. . ... ...
ROW E6 : ... .. . ... ... ... : ... .. 5 ... ... ... : ... .. . ... : ... .. 9 ... : ... .. . ... ... : ... .. . ... ... : ... .. . ... ... : ... .. . ... ...
ROW E7 : ... .. . ... ... ... : ... .. 4 ... ... ... : ... .. . ... : ... .. 4 ... : ... .. . ... ... : ... .. . ... ... : ... .. . ... ... : ... .. . ... ...
ROW E8 : ... .. 2 ... ... ... : ... .. . ... ... ... : ... .. . ... : ... .. 2 ... : ... .. . ... ... : ... .. . ... ... : ... .. . ... ... : ... .. . ... ...
ROW E9 : ... .. . ... ... ... : ... .. . ... ... ... : ... .. . ... : ... .. 1 ... : ... .. . ... ... : ... .. . ... ... : ... .. . ... ... : ... .. . ... ...
ROW EA : ... .. . ... ... ... : ... .. 3 ... ... ... : ... .. . ... : ... .. 0 ... : ... .. . ... ... : ... .. . ... ... : ... .. . ... ... : ... .. . ... ...
ROW EB : ... .. 1 ... ... ... : ... .. . ... ... ... : ... .. . ... : ... .. . ... : ... .. . ... ... : ... .. . ... ... : ... .. . ... ... : ... .. . ... ...
ROW EC : G#4 00 F ... ... ... : B-2 00 8 ... ... ... : D#3 00 . ... : ... .. F ... : ... .. . ... ... : D#3 01 9 ... ... : ... .. 9 ... ... : B-3 01 8 ... ...
ROW ED : ... .. E ... ... ... : ... .. 7 ... ... ... : ... .. . ... : ... .. C ... : ... .. . ... ... : ... .. 8 ... ... : ... .. 8 ... ... : ... .. 6 ... ...
ROW EE : ... .. D ... ... ... : ... .. . ... ... ... : ... .. . ... : ... .. 6 ... : ... .. . ... ... : ... .. . ... ... : ... .. . ... ... : ... .. 4 ... ...
ROW EF : ... .. A ... ... ... : ... .. 6 ... ... ... : ... .. . ... : ... .. 3 ... : ... .. . ... ... : ... .. . ... ... : ... .. . ... ... : ... .. . ... ...
ROW F0 : ... .. . ... ... ... : ... .. 5 ... ... ... : ... .. . ... : ... .. 2 ... : ... .. . ... ... : ... .. 7 ... ... : ... .. 7 ... ... : ... .. . ... ...
ROW F1 : ... .. . ... ... ... : ... .. 4 ... ... ... : ... .. . ... : ... .. 0 ... : ... .. . ... ... : ... .. . ... ... : ... .. . ... ... : ... .. . ... ...
ROW F2 : ... .. . ... ... ... : ... .. . ... ... ... : ... .. . ... : ... .. . ... : ... .. . ... ... : ... .. . ... ... : ... .. . ... ... : ... .. . ... ...
ROW F3 : ... .. . ... ... ... : ... .. . ... ... ... : ... .. . ... : ... .. . ... : ... .. . ... ... : ... .. 6 ... ... : ... .. 6 ... ... : ... .. . ... ...
ROW F4 : ... .. . ... ... ... : ... .. 3 ... ... ... : ... .. . ... : ... .. . ... : ... .. . ... ... : ... .. . ... ... : ... .. . ... ... : ... .. . ... ...
ROW F5 : ... .. . ... ... ... : ... .. . ... ... ... : ... .. . ... : ... .. . ... : ... .. . ... ... : ... .. . ... ... : ... .. . ... ... : ... .. . ... ...
ROW F6 : ... .. . P82 ... ... : G#2 00 8 ... ... ... : ... .. . ... : ... .. . ... : ... .. . ... ... : ... .. 1 ... ... : ... .. 1 ... ... : D#3 01 8 ... ...
ROW F7 : ... .. . P83 ... ... : ... .. 7 ... ... ... : ... .. . ... : ... .. . ... : ... .. . ... ... : ... .. . ... ... : ... .. . ... ... : ... .. 6 ... ...
ROW F8 : ... .. . ... ... ... : ... .. . ... ... ... : ... .. . ... : ... .. . ... : ... .. . ... ... : ... .. . ... ... : ... .. . ... ... : ... .. 4 ... ...
ROW F9 : ... .. . P81 ... ... : ... .. 6 ... ... ... : ... .. . ... : ... .. . ... : ... .. . ... ... : ... .. . ... ... : ... .. . ... ... : ... .. . ... ...
ROW FA : ... .. . P7F ... ... : ... .. 5 ... ... ... : ... .. . ... : ... .. . ... : ... .. . ... ... : ... .. . ... ... : ... .. . ... ... : ... .. . ... ...
ROW FB : ... .. . P7D ... ... : ... .. 4 ... ... ... : ... .. . ... : ... .. . ... : ... .. . ... ... : ... .. . ... ... : ... .. . ... ... : ... .. . ... ...
ROW FC : ... .. . ... ... ... : ... .. . ... ... ... : ... .. . ... : ... .. . ... : ... .. . ... ... : ... .. . ... ... : ... .. . ... ... : ... .. . ... ...
ROW FD : ... .. . P7E ... ... : ... .. . ... ... ... : ... .. . ... : ... .. . ... : ... .. . ... ... : ... .. . ... ... : ... .. . ... ... : ... .. . ... ...
ROW FE : ... .. . P80 ... ... : ... .. 3 ... ... ... : ... .. . ... : ... .. . ... : ... .. . ... ... : ... .. . ... ... : ... .. . ... ... : ... .. . ... ...
ROW FF : ... .. . P82 ... ... : ... .. . ... ... ... : ... .. . ... : ... .. . ... : ... .. . ... ... : ... .. . ... ... : ... .. . ... ... : ... .. . ... ...

PATTERN 0F
ROW 00 : B-3 00 F P80 ... ... : F-2 00 8 ... ... ... : B-3 00 . ... : ... .. . ... : ... .. . ... ... : G#2 01 9 ... ... : F-3 01 9 ... ... : B-3 01 8 ... ...
ROW 01 : ... .. E ... ... ... : ... .. 7 ... ... ... : ... .. . ... : ... .. . ... : ... .. . ... ... : ... .. 8 ... ... : ... .. 8 ... ... : ... .. 6 ... ...
ROW 02 : ... .. D ... ... ... : ... .. . ... ... ... : ... .. . ... : ... .. . ... : ... .. . ... ... : ... .. . ... ... : ... .. . ... ... : ... .. 4 ... ...
ROW 03 : ... .. A ... ... ... : ... .. 6 ... ... ... : ... .. . ... : ... .. . ... : ... .. . ... ... : ... .. . ... ... : ... .. . ... ... : ... .. . ... ...
ROW 04 : ... .. . ... ... ... : ... .. 5 ... ... ... : ... .. . ... : ... .. . ... : ... .. . ... ... : ... .. 7 ... ... : ... .. 7 ... ... : ... .. . ... ...
ROW 05 : ... .. . ... ... ... : ... .. 4 ... ... ... : ... .. . ... : ... .. . ... : ... .. . ... ... : ... .. . ... ... : ... .. . ... ... : ... .. . ... ...
ROW 06 : ... .. . ... ... ... : ... .. . ... ... ... : ... .. . ... : ... .. . ... : ... .. . ... ... : ... .. . ... ... : ... .. . ... ... : ... .. . ... ...
ROW 07 : ... .. . ... ... ... : ... .. . ... ... ... : ... .. . ... : ... .. . ... : ... .. . ... ... : ... .. 6 ... ... : ... .. 6 ... ... : ... .. . ... ...
ROW 08 : ... .. . ... ... ... : ... .. 3 ... ... ... : ... .. . ... : ... .. . ... : ... .. . ... ... : ... .. . ... ... : ... .. . ... ... : ... .. . ... ...
ROW 09 : ... .. . ... ... ... : ... .. . ... ... ... : ... .. . ... : ... .. . ... : ... .. . ... ... : ... .. . ... ... : ... .. . ... ... : ... .. . ... ...
ROW 0A : ... .. . ... ... ... : G#2 00 8 ... ... ... : --- .. . ... : ... .. . ... : ... .. . ... ... : ... .. 1 ... ... : ... .. 1 ... ... : D#3 01 8 ... ...
ROW 0B : ... .. 2 ... ... ... : ... .. 7 ... ... ... : ... .. . ... : ... .. . ... : ... .. . ... ... : ... .. . ... ... : ... .. . ... ... : ... .. 6 ... ...
ROW 0C : ... .. . ... ... ... : ... .. . ... ... ... : ... .. . ... : ... .. . ... : ... .. . ... ... : ... .. . ... ... : ... .. . ... ... : ... .. 4 ... ...
ROW 0D : ... .. . ... ... ... : ... .. 6 ... ... ... : ... .. . ... : ... .. . ... : ... .. . ... ... : ... .. . ... ... : ... .. . ... ... : ... .. . ... ...
ROW 0E : ... .. 1 ... ... ... : ... .. 5 ... ... ... : ... .. . ... : ... .. . ... : ... .. . ... ... : ... .. . ... ... : ... .. . ... ... : ... .. . ... ...
ROW 0F : ... .. . ... ... ... : ... .. 4 ... ... ... : ... .. . ... : ... .. . ... : ... .. . ... ... : ... .. . ... ... : ... .. . ... ... : ... .. . ... ...
ROW 10 : ... .. . ... ... ... : ... .. . ... ... ... : ... .. . ... : ... .. . ... : ... .. . ... ... : ... .. . ... ... : ... .. . ... ... : ... .. . ... ...
ROW 11 : ... .. 0 ... V00 ... : ... .. . ... ... ... : ... .. . ... : ... .. . ... : ... .. . ... ... : ... .. . ... ... : ... .. . ... ... : ... .. . ... ...
ROW 12 : ... .. . ... ... ... : ... .. 3 ... ... ... : ... .. . ... : ... .. . ... : ... .. . ... ... : ... .. . ... ... : ... .. . ... ... : ... .. . ... ...
ROW 13 : ... .. . ... ... ... : ... .. . ... ... ... : ... .. . ... : ... .. . ... : ... .. . ... ... : ... .. . ... ... : ... .. . ... ... : ... .. . ... ...
ROW 14 : A#3 00 F P80 V02 ... : A#2 00 8 ... ... ... : D-2 00 . ... : D-# 00 D V01 : ... .. . ... ... : A#2 01 9 ... ... : D-3 01 9 ... ... : A#3 01 8 ... ...
ROW 15 : ... .. E ... ... ... : ... .. 7 ... ... ... : ... .. . ... : ... .. B ... : ... .. . ... ... : ... .. 8 ... ... : ... .. 8 ... ... : ... .. 6 ... ...
ROW 16 : ... .. D ... ... ... : ... .. . ... ... ... : ... .. . ... : ... .. . ... : ... .. . ... ... : ... .. . ... ... : ... .. . ... ... : ... .. 4 ... ...
ROW 17 : ... .. A ... ... ... : ... .. 6 ... ... ... : ... .. . ... : ... .. A ... : ... .. . ... ... : ... .. . ... ... : ... .. . ... ... : ... .. . ... ...
ROW 18 : ... .. . ... ... ... : ... .. 5 ... ... ... : ... .. . ... : ... .. 8 ... : ... .. . ... ... : ... .. 7 ... ... : ... .. 7 ... ... : ... .. . ... ...
ROW 19 : ... .. . ... ... ... : ... .. 4 ... ... ... : ... .. . ... : ... .. 7 ... : ... .. . ... ... : ... .. . ... ... : ... .. . ... ... : ... .. . ... ...
ROW 1A : ... .. . ... ... ... : ... .. . ... ... ... : ... .. . ... : ... .. 6 ... : ... .. . ... ... : ... .. . ... ... : ... .. . ... ... : ... .. . ... ...
ROW 1B : ... .. . ... ... ... : ... .. . ... ... ... : ... .. . ... : ... .. . ... : ... .. . ... ... : ... .. 6 ... ... : ... .. 6 ... ... : ... .. . ... ...
ROW 1C : ... .. . ... ... ... : ... .. 3 ... ... ... : ... .. . ... : ... .. 5 ... : ... .. . ... ... : ... .. . ... ... : ... .. . ... ... : ... .. . ... ...
ROW 1D : ... .. . ... ... ... : ... .. . ... ... ... : ... .. . ... : ... .. . ... : ... .. . ... ... : ... .. . ... ... : ... .. . ... ... : ... .. . ... ...
ROW 1E : ... .. . ... ... ... : F-2 00 8 ... ... ... : ... .. . ... : ... .. 4 ... : ... .. . ... ... : ... .. 1 ... ... : ... .. 1 ... ... : D-3 01 8 ... ...
ROW 1F : ... .. . ... ... ... : ... .. 7 ... ... ... : ... .. . ... : ... .. . ... : ... .. . ... ... : ... .. . ... ... : ... .. . ... ... : ... .. 6 ... ...
ROW 20 : ... .. . ... ... ... : ... .. . ... ... ... : ... .. . ... : ... .. 3 ... : ... .. . ... ... : ... .. . ... ... : ... .. . ... ... : ... .. 4 ... ...
ROW 21 : ... .. . ... ... ... : ... .. 6 ... ... ... : ... .. . ... : ... .. 2 ... : ... .. . ... ... : ... .. . ... ... : ... .. . ... ... : ... .. . ... ...
ROW 22 : ... .. . ... ... ... : ... .. 5 ... ... ... : ... .. . ... : ... .. . ... : ... .. . ... ... : ... .. . ... ... : ... .. . ... ... : ... .. . ... ...
ROW 23 : ... .. . ... ... ... : ... .. 4 ... ... ... : ... .. . ... : ... .. 1 ... : ... .. . ... ... : ... .. . ... ... : ... .. . ... ... : ... .. . ... ...
ROW 24 : ... .. . ... ... ... : ... .. . ... ... ... : ... .. . ... : ... .. 0 ... : ... .. . ... ... : ... .. . ... ... : ... .. . ... ... : ... .. . ... ...
ROW 25 : ... .. . ... ... ... : ... .. . ... ... ... : ... .. . ... : ... .. . ... : ... .. . ... ... : ... .. . ... ... : ... .. . ... ... : ... .. . ... ...
ROW 26 : ... .. . ... ... ... : ... .. 3 ... ... ... : ... .. . ... : ... .. . ... : ... .. . ... ... : ... .. . ... ... : ... .. . ... ... : ... .. . ... ...
ROW 27 : ... .. . ... ... ... : ... .. . ... ... ... : ... .. . ... : ... .. . ... : ... .. . ... ... : ... .. . ... ... : ... .. . ... ... : ... .. . ... ...
ROW 28 : G#4 00 F ... ... ... : D-2 00 8 ... ... ... : A#4 00 . ... : 9-# 00 A V00 : ... .. . ... ... : F-3 01 9 ... ... : G#3 01 9 ... ... : A#3 01 8 ... ...
ROW 29 : ... .. E ... ... ... : ... .. 7 ... ... ... : ... .. . ... : ... .. 8 ... : ... .. . ... ... : ... .. 8 ... ... : ... .. 8 ... ... : ... .. 6 ... ...
ROW 2A : ... .. D ... ... ... : ... .. . ... ... ... : ... .. . ... : ... .. 4 ... : ... .. . ... ... : ... .. . ... ... : ... .. . ... ... : ... .. 4 ... ...
ROW 2B : ... .. A ... ... ... : ... .. 6 ... ... ... : ... .. . ... : ... .. 2 ... : ... .. . ... ... : ... .. . ... ... : ... .. . ... ... : ... .. . ... ...
ROW 2C : ... .. . ... ... ... : ... .. 5 ... ... ... : ... .. . ... : ... .. 1 ... : ... .. . ... ... : ... .. 7 ... ... : ... .. 7 ... ... : ... .. . ... ...
ROW 2D : ... .. . ... ... ... : ... .. 4 ... ... ... : ... .. . ... : ... .. 0 ... : ... .. . ... ... : ... .. . ... ... : ... .. . ... ... : ... .. . ... ...
ROW 2E : ... .. . ... ... ... : ... .. . ... ... ... : ... .. . ... : ... .. . ... : ... .. . ... ... : ... .. . ... ... : ... .. . ... ... : ... .. . ... ...
ROW 2F : ... .. . ... ... ... : ... .. . ... ... ... : ... .. . ... : ... .. . ... : ... .. . ... ... : ... .. 6 ... ... : ... .. 6 ... ... : ... .. . ... ...
ROW 30 : ... .. . ... ... ... : ... .. 3 ... ... ... : ... .. . ... : ... .. . ... : ... .. . ... ... : ... .. . ... ... : ... .. . ... ... : ... .. . ... ...
ROW 31 : ... .. . ... ... ... : ... .. . ... ... ... : ... .. . ... : ... .. . ... : ... .. . ... ... : ... .. . ... ... : ... .. . ... ... : ... .. . ... ...
ROW 32 : ... .. . ... ... ... : F-2 00 8 ... ... ... : --- .. . ... : ... .. 8 ... : ... .. . ... ... : ... .. 1 ... ... : ... .. 1 ... ... : D-3 01 8 ... ...
ROW 33 : ... .. 2 ... ... ... : ... .. 7 ... ... ... : ... .. . ... : ... .. 6 ... : ... .. . ... ... : ... .. . ... ... : ... .. . ... ... : ... .. 6 ... ...
ROW 34 : ... .. . ... ... ... : ... .. . ... ... ... : ... .. . ... : ... .. 3 ... : ... .. . ... ... : ... .. . ... ... : ... .. . ... ... : ... .. 4 ... ...
ROW 35 : ... .. . ... ... ... : ... .. 6 ... ... ... : ... .. . ... : ... .. 1 ... : ... .. . ... ... : ... .. . ... ... : ... .. . ... ... : ... .. . ... ...
ROW 36 : ... .. 1 ... ... ... : ... .. 5 ... ... ... : ... .. . ... : ... .. . ... : ... .. . ... ... : ... .. . ... ... : ... .. . ... ... : ... .. . ... ...
ROW 37 : ... .. . ... ... ... : ... .. 4 ... ... ... : ... .. . ... : ... .. 0 ... : ... .. . ... ... : ... .. . ... ... : ... .. . ... ... : ... .. . ... ...
ROW 38 : ... .. . ... ... ... : ... .. . ... ... ... : ... .. . ... : ... .. . ... : ... .. . ... ... : ... .. . ... ... : ... .. . ... ... : ... .. . ... ...
ROW 39 : ... .. 0 ... V00 ... : ... .. . ... ... ... : ... .. . ... : ... .. . ... : ... .. . ... ... : ... .. . ... ... : ... .. . ... ... : ... .. . ... ...
ROW 3A : ... .. . ... ... ... : ... .. 3 ... ... ... : ... .. . ... : ... .. . ... : ... .. . ... ... : ... .. . ... ... : ... .. . ... ... : ... .. . ... ...
ROW 3B : ... .. . ... ... ... : ... .. . ... ... ... : ... .. . ... : ... .. . ... : ... .. . ... ... : ... .. . ... ... : ... .. . ... ... : ... .. . ... ...
ROW 3C : G-4 00 F P80 V02 ... : A#2 00 8 ... ... ... : D#2 00 . ... : ... .. F ... : ... .. . ... ... : D#3 01 9 ... ... : G-3 01 9 ... ... : A#3 01 8 ... ...
ROW 3D : ... .. E ... ... ... : ... .. 7 ... ... ... : ... .. . ... : ... .. C ... : ... .. . ... ... : ... .. 8 ... ... : ... .. 8 ... ... : ... .. 6 ... ...
ROW 3E : ... .. D ... ... ... : ... .. . ... ... ... : ... .. . ... : ... .. 6 ... : ... .. . ... ... : ... .. . ... ... : ... .. . ... ... : ... .. 4 ... ...
ROW 3F : ... .. A ... ... ... : ... .. 6 ... ... ... : ... .. . ... : ... .. 3 ... : ... .. . ... ... : ... .. . ... ... : ... .. . ... ... : ... .. . ... ...
ROW 40 : ... .. . ... ... ... : ... .. 5 ... ... ... : ... .. . ... : ... .. 2 ... : ... .. . ... ... : ... .. 7 ... ... : ... .. 7 ... ... : ... .. . ... ...
ROW 41 : ... .. 8 ... ... ... : ... .. 4 ... ... ... : ... .. . ... : ... .. 0 ... : ... .. . ... ... : ... .. . ... ... : ... .. . ... ... : ... .. . ... ...
ROW 42 : ... .. . ... ... ... : ... .. . ... ... ... : ... .. . ... : ... .. . ... : ... .. . ... ... : ... .. . ... ... : ... .. . ... ... : ... .. . ... ...
ROW 43 : ... .. . ... ... ... : ... .. . ... ... ... : ... .. . ... : ... .. . ... : ... .. . ... ... : ... .. 6 ... ... : ... .. 6 ... ... : ... .. . ... ...
ROW 44 : ... .. . ... ... ... : ... .. 3 ... ... ... : ... .. . ... : ... .. . ... : ... .. . ... ... : ... .. . ... ... : ... .. . ... ... : ... .. . ... ...
ROW 45 : ... .. . ... ... ... : ... .. . ... ... ... : ... .. . ... : ... .. . ... : ... .. . ... ... : ... .. . ... ... : ... .. . ... ... : ... .. . ... ...
ROW 46 : ... .. . ... ... ... : G-2 00 8 ... ... ... : ... .. . ... : ... .. . ... : ... .. . ... ... : ... .. 1 ... ... : ... .. 1 ... ... : D#3 01 8 ... ...
ROW 47 : ... .. . ... ... ... : ... .. 7 ... ... ... : ... .. . ... : ... .. . ... : ... .. . ... ... : ... .. . ... ... : ... .. . ... ... : ... .. 6 ... ...
ROW 48 : ... .. . ... ... ... : ... .. . ... ... ... : ... .. . ... : ... .. . ... : ... .. . ... ... : ... .. . ... ... : ... .. . ... ... : ... .. 4 ... ...
ROW 49 : ... .. . ... ... ... : ... .. 6 ... ... ... : ... .. . ... : ... .. . ... : ... .. . ... ... : ... .. . ... ... : ... .. . ... ... : ... .. . ... ...
ROW 4A : ... .. . ... ... ... : ... .. 5 ... ... ... : ... .. . ... : ... .. . ... : ... .. . ... ... : ... .. . ... ... : ... .. . ... ... : ... .. . ... ...
ROW 4B : ... .. 6 ... ... ... : ... .. 4 ... ... ... : ... .. . ... : ... .. . ... : ... .. . ... ... : ... .. . ... ... : ... .. . ... ... : ... .. . ... ...
ROW 4C : ... .. . ... ... ... : ... .. . ... ... ... : ... .. . ... : ... .. . ... : ... .. . ... ... : ... .. . ... ... : ... .. . ... ... : ... .. . ... ...
ROW 4D : ... .. . ... ... ... : ... .. . ... ... ... : ... .. . ... : ... .. . ... : ... .. . ... ... : ... .. . ... ... : ... .. . ... ... : ... .. . ... ...
ROW 4E : ... .. . ... ... ... : ... .. 3 ... ... ... : ... .. . ... : ... .. . ... : ... .. . ... ... : ... .. . ... ... : ... .. . ... ... : ... .. . ... ...
ROW 4F : ... .. . ... ... ... : ... .. . ... ... ... : ... .. . ... : ... .. . ... : ... .. . ... ... : ... .. . ... ... : ... .. . ... ... : ... .. . ... ...
ROW 50 : ... .. . ... ... ... : D#2 00 8 ... ... ... : G-3 00 . ... : D-# 00 F ... : ... .. . ... ... : D-3 01 9 ... ... : ... .. 9 ... ... : A#3 01 8 ... ...
ROW 51 : ... .. . ... ... ... : ... .. 7 ... ... ... : ... .. . ... : ... .. C ... : ... .. . ... ... : ... .. 8 ... ... : ... .. 8 ... ... : ... .. 6 ... ...
ROW 52 : ... .. . ... ... ... : ... .. . ... ... ... : ... .. . ... : ... .. 6 ... : ... .. . ... ... : ... .. . ... ... : ... .. . ... ... : ... .. 4 ... ...
ROW 53 : ... .. . ... ... ... : ... .. 6 ... ... ... : ... .. . ... : ... .. 3 ... : ... .. . ... ... : ... .. . ... ... : ... .. . ... ... : ... .. . ... ...
ROW 54 : ... .. . ... ... ... : ... .. 5 ... ... ... : ... .. . ... : ... .. 2 ... : ... .. . ... ... : ... .. 7 ... ... : ... .. 7 ... ... : ... .. . ... ...
ROW 55 : ... .. 5 ... ... ... : ... .. 4 ... ... ... : ... .. . ... : ... .. 0 ... : ... .. . ... ... : ... .. . ... ... : ... .. . ... ... : ... .. . ... ...
ROW 56 : ... .. . ... ... ... : ... .. . ... ... ... : ... .. . ... : ... .. . ... : ... .. . ... ... : ... .. . ... ... : ... .. . ... ... : ... .. . ... ...
ROW 57 : ... .. . ... ... ... : ... .. . ... ... ... : ... .. . ... : ... .. . ... : ... .. . ... ... : ... .. 6 ... ... : ... .. 6 ... ... : ... .. . ... ...
ROW 58 : ... .. . ... ... ... : ... .. 3 ... ... ... : ... .. . ... : ... .. . ... : ... .. . ... ... : ... .. . ... ... : ... .. . ... ... : ... .. . ... ...
ROW 59 : ... .. . ... ... ... : ... .. . ... ... ... : ... .. . ... : ... .. . ... : ... .. . ... ... : ... .. . ... ... : ... .. . ... ... : ... .. . ... ...
ROW 5A : ... .. . ... ... ... : G-2 00 8 ... ... ... : --- .. . ... : ... .. . ... : ... .. . ... ... : ... .. 1 ... ... : ... .. 1 ... ... : D#3 01 8 ... ...
ROW 5B : ... .. . ... ... ... : ... .. 7 ... ... ... : ... .. . ... : ... .. . ... : ... .. . ... ... : ... .. . ... ... : ... .. . ... ... : ... .. 6 ... ...
ROW 5C : ... .. . ... ... ... : ... .. . ... ... ... : ... .. . ... : ... .. . ... : ... .. . ... ... : ... .. . ... ... : ... .. . ... ... : ... .. 4 ... ...
ROW 5D : ... .. . ... ... ... : ... .. 6 ... ... ... : ... .. . ... : ... .. . ... : ... .. . ... ... : ... .. . ... ... : ... .. . ... ... : ... .. . ... ...
ROW 5E : ... .. . ... ... ... : ... .. 5 ... ... ... : ... .. . ... : ... .. . ... : ... .. . ... ... : ... .. . ... ... : ... .. . ... ... : ... .. . ... ...
ROW 5F : ... .. 6 ... ... ... : ... .. 4 ... ... ... : ... .. . ... : ... .. . ... : ... .. . ... ... : ... .. . ... ... : ... .. . ... ... : ... .. . ... ...
ROW 60 : ... .. . ... ... ... : ... .. . ... ... ... : ... .. . ... : ... .. . ... : ... .. . ... ... : ... .. . ... ... : ... .. . ... ... : ... .. . ... ...
ROW 61 : ... .. . ... ... ... : ... .. . ... ... ... : ... .. . ... : ... .. . ... : ... .. . ... ... : ... .. . ... ... : ... .. . ... ... : ... .. . ... ...
ROW 62 : ... .. . ... ... ... : ... .. 3 ... ... ... : ... .. . ... : ... .. . ... : ... .. . ... ... : ... .. . ... ... : ... .. . ... ... : ... .. . ... ...
ROW 63 : ... .. . ... ... ... : ... .. . ... ... ... : ... .. . ... : ... .. . ... : ... .. . ... ... : ... .. . ... ... : ... .. . ... ... : ... .. . ... ...
ROW 64 : ... .. . P82 ... ... : A#2 00 8 ... ... ... : D#1 00 . ... : ... .. D ... : ... .. . ... ... : D#3 01 9 ... ... : ... .. 9 ... ... : G-3 01 8 ... ...
ROW 65 : ... .. . P83 ... ... : ... .. 7 ... ... ... : ... .. . ... : ... .. B ... : ... .. . ... ... : ... .. 8 ... ... : ... .. 8 ... ... : ... .. 6 ... ...
ROW 66 : ... .. . ... ... ... : ... .. . ... ... ... : ... .. . ... : ... .. . ... : ... .. . ... ... : ... .. . ... ... : ... .. . ... ... : ... .. 4 ... ...
ROW 67 : ... .. . P81 ... ... : ... .. 6 ... ... ... : ... .. . ... : ... .. A ... : ... .. . ... ... : ... .. . ... ... : ... .. . ... ... : ... .. . ... ...
ROW 68 : ... .. . P7F ... ... : ... .. 5 ... ... ... : ... .. . ... : ... .. 8 ... : ... .. . ... ... : ... .. 7 ... ... : ... .. 7 ... ... : ... .. . ... ...
ROW 69 : ... .. . P7D ... ... : ... .. 4 ... ... ... : ... .. . ... : ... .. 7 ... : ... .. . ... ... : ... .. . ... ... : ... .. . ... ... : ... .. . ... ...
ROW 6A : ... .. . ... ... ... : ... .. . ... ... ... : ... .. . ... : ... .. 6 ... : ... .. . ... ... : ... .. . ... ... : ... .. . ... ... : ... .. . ... ...
ROW 6B : ... .. . P7E ... ... : ... .. . ... ... ... : ... .. . ... : ... .. . ... : ... .. . ... ... : ... .. 6 ... ... : ... .. 6 ... ... : ... .. . ... ...
ROW 6C : ... .. . P80 ... ... : ... .. 3 ... ... ... : ... .. . ... : ... .. 5 ... : ... .. . ... ... : ... .. . ... ... : ... .. . ... ... : ... .. . ... ...
ROW 6D : ... .. . P82 ... ... : ... .. . ... ... ... : ... .. . ... : ... .. . ... : ... .. . ... ... : ... .. . ... ... : ... .. . ... ... : ... .. . ... ...
ROW 6E : ... .. 7 P83 ... ... : G-2 00 8 ... ... ... : ... .. . ... : ... .. 4 ... : ... .. . ... ... : ... .. 1 ... ... : ... .. 1 ... ... : A#2 01 8 ... ...
ROW 6F : ... .. . ... ... ... : ... .. 7 ... ... ... : ... .. . ... : ... .. . ... : ... .. . ... ... : ... .. . ... ... : ... .. . ... ... : ... .. 6 ... ...
ROW 70 : ... .. . P81 ... ... : ... .. . ... ... ... : ... .. . ... : ... .. 3 ... : ... .. . ... ... : ... .. . ... ... : ... .. . ... ... : ... .. 4 ... ...
ROW 71 : ... .. . P80 ... ... : ... .. 6 ... ... ... : ... .. . ... : ... .. 2 ... : ... .. . ... ... : ... .. . ... ... : ... .. . ... ... : ... .. . ... ...
ROW 72 : ... .. . P7D ... ... : ... .. 5 ... ... ... : ... .. . ... : ... .. . ... : ... .. . ... ... : ... .. . ... ... : ... .. . ... ... : ... .. . ... ...
ROW 73 : ... .. 8 ... ... ... : ... .. 4 ... ... ... : ... .. . ... : ... .. 1 ... : ... .. . ... ... : ... .. . ... ... : ... .. . ... ... : ... .. . ... ...
ROW 74 : ... .. . P7E ... ... : ... .. . ... ... ... : ... .. . ... : ... .. 0 ... : ... .. . ... ... : ... .. . ... ... : ... .. . ... ... : ... .. . ... ...
ROW 75 : ... .. . P80 ... ... : ... .. . ... ... ... : ... .. . ... : ... .. . ... : ... .. . ... ... : ... .. . ... ... : ... .. . ... ... : ... .. . ... ...
ROW 76 : ... .. . P81 ... ... : ... .. 3 ... ... ... : ... .. . ... : ... .. . ... : ... .. . ... ... : ... .. . ... ... : ... .. . ... ... : ... .. . ... ...
ROW 77 : ... .. . P83 ... ... : ... .. . ... ... ... : ... .. . ... : ... .. . ... : ... .. . ... ... : ... .. . ... ... : ... .. . ... ... : ... .. . ... ...
ROW 78 : ... .. . ... ... ... : D#2 00 8 ... ... ... : F-4 00 . ... : 9-# 00 A ... : ... .. . ... ... : A#2 01 9 ... ... : ... .. 9 ... ... : D#3 01 8 ... ...
ROW 79 : ... .. . P81 ... ... : ... .. 7 ... ... ... : ... .. . ... : ... .. 8 ... : ... .. . ... ... : ... .. 8 ... ... : ... .. 8 ... ... : ... .. 6 ... ...
ROW 7A : ... .. . P80 ... ... : ... .. . ... ... ... : ... .. . ... : ... .. 4 ... : ... .. . ... ... : ... .. . ... ... : ... .. . ... ... : ... .. 4 ... ...
ROW 7B : ... .. . P7E ... ... : ... .. 6 ... ... ... : ... .. . ... : ... .. 2 ... : ... .. . ... ... : ... .. . ... ... : ... .. . ... ... : ... .. . ... ...
ROW 7C : ... .. . P7D ... ... : ... .. 5 ... ... ... : ... .. . ... : ... .. 1 ... : ... .. . ... ... : ... .. 7 ... ... : ... .. 7 ... ... : ... .. . ... ...
ROW 7D : ... .. . ... ... ... : ... .. 4 ... ... ... : ... .. . ... : ... .. 0 ... : ... .. . ... ... : ... .. . ... ... : ... .. . ... ... : ... .. . ... ...
ROW 7E : ... .. . P80 ... ... : ... .. . ... ... ... : ... .. . ... : ... .. . ... : ... .. . ... ... : ... .. . ... ... : ... .. . ... ... : ... .. . ... ...
ROW 7F : ... .. . P81 ... ... : ... .. . ... ... ... : ... .. . ... : ... .. . ... : ... .. . ... ... : ... .. 6 ... ... : ... .. 6 ... ... : ... .. . ... ...
ROW 80 : ... .. . P83 ... ... : ... .. 3 ... ... ... : ... .. . ... : ... .. . ... : ... .. . ... ... : ... .. . ... ... : ... .. . ... ... : ... .. . ... ...
ROW 81 : ... .. . ... ... ... : ... .. . ... ... ... : ... .. . ... : ... .. . ... : ... .. . ... ... : ... .. . ... ... : ... .. . ... ... : ... .. . ... ...
ROW 82 : ... .. 9 P82 ... ... : G-2 00 8 ... ... ... : --- .. . ... : ... .. 8 ... : ... .. . ... ... : ... .. 1 ... ... : ... .. 1 ... ... : G-3 01 8 ... ...
ROW 83 : ... .. . P80 ... ... : ... .. 7 ... ... ... : ... .. . ... : ... .. 6 ... : ... .. . ... ... : ... .. . ... ... : ... .. . ... ... : ... .. 6 ... ...
ROW 84 : ... .. . P7E ... ... : ... .. . ... ... ... : ... .. . ... : ... .. 3 ... : ... .. . ... ... : ... .. . ... ... : ... .. . ... ... : ... .. 4 ... ...
ROW 85 : ... .. . P7D ... ... : ... .. 6 ... ... ... : ... .. . ... : ... .. 1 ... : ... .. . ... ... : ... .. . ... ... : ... .. . ... ... : ... .. . ... ...
ROW 86 : ... .. . ... ... ... : ... .. 5 ... ... ... : ... .. . ... : ... .. . ... : ... .. . ... ... : ... .. . ... ... : ... .. . ... ... : ... .. . ... ...
ROW 87 : ... .. A P7F ... ... : ... .. 4 ... ... ... : ... .. . ... : ... .. 0 ... : ... .. . ... ... : ... .. . ... ... : ... .. . ... ... : ... .. . ... ...
ROW 88 : ... .. 2 P81 ... ... : ... .. . ... ... ... : ... .. . ... : ... .. . ... : ... .. . ... ... : ... .. . ... ... : ... .. . ... ... : ... .. . ... ...
ROW 89 : ... .. . P83 ... ... : ... .. . ... ... ... : ... .. . ... : ... .. . ... : ... .. . ... ... : ... .. . ... ... : ... .. . ... ... : ... .. . ... ...
ROW 8A : ... .. . ... ... ... : ... .. 3 ... ... ... : ... .. . ... : ... .. . ... : ... .. . ... ... : ... .. . ... ... : ... .. . ... ... : ... .. . ... ...
ROW 8B : ... .. 1 P82 ... ... : ... .. . ... ... ... : ... .. . ... : ... .. . ... : ... .. . ... ... : ... .. . ... ... : ... .. . ... ... : ... .. . ... ...
ROW 8C : ... .. . P80 ... ... : D#3 00 8 ... ... ... : G-2 00 . ... : ... .. F ... : ... .. . ... ... : G-2 01 9 ... ... : A#3 01 9 ... ... : A#3 01 8 ... ...
ROW 8D : ... .. . P7E ... ... : ... .. 7 ... ... ... : ... .. . ... : ... .. C ... : ... .. . ... ... : ... .. 8 ... ... : ... .. 8 ... ... : ... .. 6 ... ...
ROW 8E : ... .. 0 ... V00 ... : ... .. . ... ... ... : ... .. . ... : ... .. 6 ... : ... .. . ... ... : ... .. . ... ... : ... .. . ... ... : ... .. 4 ... ...
ROW 8F : ... .. . ... ... ... : ... .. 6 ... ... ... : ... .. . ... : ... .. 3 ... : ... .. . ... ... : ... .. . ... ... : ... .. . ... ... : ... .. . ... ...
ROW 90 : ... .. . ... ... ... : ... .. 5 ... ... ... : ... .. . ... : ... .. 2 ... : ... .. . ... ... : ... .. 7 ... ... : ... .. 7 ... ... : ... .. . ... ...
ROW 91 : ... .. . ... ... ... : ... .. 4 ... ... ... : ... .. . ... : ... .. 0 ... : ... .. . ... ... : ... .. . ... ... : ... .. . ... ... : ... .. . ... ...
ROW 92 : ... .. . ... ... ... : ... .. . ... ... ... : ... .. . ... : ... .. . ... : ... .. . ... ... : ... .. . ... ... : ... .. . ... ... : ... .. . ... ...
ROW 93 : ... .. . ... ... ... : ... .. . ... ... ... : ... .. . ... : ... .. . ... : ... .. . ... ... : ... .. 6 ... ... : ... .. 6 ... ... : ... .. . ... ...
ROW 94 : ... .. . ... ... ... : ... .. 3 ... ... ... : ... .. . ... : ... .. . ... : ... .. . ... ... : ... .. . ... ... : ... .. . ... ... : ... .. . ... ...
ROW 95 : ... .. . ... ... ... : ... .. . ... ... ... : ... .. . ... : ... .. . ... : ... .. . ... ... : ... .. . ... ... : ... .. . ... ... : ... .. . ... ...
ROW 96 : ... .. . ... ... ... : A#2 00 8 ... ... ... : ... .. . ... : ... .. . ... : ... .. . ... ... : ... .. 1 ... ... : ... .. 1 ... ... : G-3 01 8 ... ...
ROW 97 : ... .. . ... ... ... : ... .. 7 ... ... ... : ... .. . ... : ... .. . ... : ... .. . ... ... : ... .. . ... ... : ... .. . ... ... : ... .. 6 ... ...
ROW 98 : ... .. . ... ... ... : ... .. . ... ... ... : ... .. . ... : ... .. . ... : ... .. . ... ... : ... .. . ... ... : ... .. . ... ... : ... .. 4 ... ...
ROW 99 : ... .. . ... ... ... : ... .. 6 ... ... ... : ... .. . ... : ... .. . ... : ... .. . ... ... : ... .. . ... ... : ... .. . ... ... : ... .. . ... ...
ROW 9A : ... .. . ... ... ... : ... .. 5 ... ... ... : ... .. . ... : ... .. . ... : ... .. . ... ... : ... .. . ... ... : ... .. . ... ... : ... .. . ... ...
ROW 9B : ... .. . ... ... ... : ... .. 4 ... ... ... : ... .. . ... : ... .. . ... : ... .. . ... ... : ... .. . ... ... : ... .. . ... ... : ... .. . ... ...
ROW 9C : ... .. . ... ... ... : ... .. . ... ... ... : ... .. . ... : ... .. . ... : ... .. . ... ... : ... .. . ... ... : ... .. . ... ... : ... .. . ... ...
ROW 9D : ... .. . ... ... ... : ... .. . ... ... ... : ... .. . ... : ... .. . ... : ... .. . ... ... : ... .. . ... ... : ... .. . ... ... : ... .. . ... ...
ROW 9E : ... .. . ... ... ... : ... .. 3 ... ... ... : ... .. . ... : ... .. . ... : ... .. . ... ... : ... .. . ... ... : ... .. . ... ... : ... .. . ... ...
ROW 9F : ... .. . ... ... ... : ... .. . ... ... ... : ... .. . ... : ... .. . ... : ... .. . ... ... : ... .. . ... ... : ... .. . ... ... : ... .. . ... ...
ROW A0 : A#3 00 F P80 V02 ... : G-2 00 8 ... ... ... : D#4 00 . ... : ... .. . ... : ... .. . ... ... : A#2 01 9 ... ... : G-3 01 9 ... ... : A#3 01 8 ... ...
ROW A1 : ... .. E ... ... ... : ... .. 7 ... ... ... : ... .. . ... : ... .. . ... : ... .. . ... ... : ... .. 8 ... ... : ... .. 8 ... ... : ... .. 6 ... ...
ROW A2 : ... .. D ... ... ... : ... .. . ... ... ... : ... .. . ... : ... .. . ... : ... .. . ... ... : ... .. . ... ... : ... .. . ... ... : ... .. 4 ... ...
ROW A3 : ... .. A ... ... ... : ... .. 6 ... ... ... : ... .. . ... : ... .. . ... : ... .. . ... ... : ... .. . ... ... : ... .. . ... ... : ... .. . ... ...
ROW A4 : ... .. . ... ... ... : ... .. 5 ... ... ... : ... .. . ... : ... .. . ... : ... .. . ... ... : ... .. 7 ... ... : ... .. 7 ... ... : ... .. . ... ...
ROW A5 : ... .. . ... ... ... : ... .. 4 ... ... ... : ... .. . ... : ... .. . ... : ... .. . ... ... : ... .. . ... ... : ... .. . ... ... : ... .. . ... ...
ROW A6 : ... .. 2 ... ... ... : ... .. . ... ... ... : ... .. . ... : ... .. . ... : ... .. . ... ... : ... .. . ... ... : ... .. . ... ... : ... .. . ... ...
ROW A7 : ... .. . ... ... ... : ... .. . ... ... ... : ... .. . ... : ... .. . ... : ... .. . ... ... : ... .. 6 ... ... : ... .. 6 ... ... : ... .. . ... ...
ROW A8 : ... .. . ... ... ... : ... .. 3 ... ... ... : ... .. . ... : ... .. . ... : ... .. . ... ... : ... .. . ... ... : ... .. . ... ... : ... .. . ... ...
ROW A9 : ... .. 1 ... ... ... : ... .. . ... ... ... : ... .. . ... : ... .. . ... : ... .. . ... ... : ... .. . ... ... : ... .. . ... ... : ... .. . ... ...
ROW AA : G#3 00 F ... ... ... : A#2 00 8 ... ... ... : --- .. . ... : ... .. . ... : ... .. . ... ... : ... .. 1 ... ... : ... .. 1 ... ... : D#4 01 8 ... ...
ROW AB : ... .. E ... ... ... : ... .. 7 ... ... ... : ... .. . ... : ... .. . ... : ... .. . ... ... : ... .. . ... ... : ... .. . ... ... : ... .. 6 ... ...
ROW AC : ... .. D ... ... ... : ... .. . ... ... ... : ... .. . ... : ... .. . ... : ... .. . ... ... : ... .. . ... ... : ... .. . ... ... : ... .. 4 ... ...
ROW AD : ... .. A ... ... ... : ... .. 6 ... ... ... : ... .. . ... : ... .. . ... : ... .. . ... ... : ... .. . ... ... : ... .. . ... ... : ... .. . ... ...
ROW AE : ... .. . ... ... ... : ... .. 5 ... ... ... : ... .. . ... : ... .. . ... : ... .. . ... ... : ... .. . ... ... : ... .. . ... ... : ... .. . ... ...
ROW AF : ... .. . ... ... ... : ... .. 4 ... ... ... : ... .. . ... : ... .. . ... : ... .. . ... ... : ... .. . ... ... : ... .. . ... ... : ... .. . ... ...
ROW B0 : ... .. 2 ... ... ... : ... .. . ... ... ... : ... .. . ... : ... .. . ... : ... .. . ... ... : ... .. . ... ... : ... .. . ... ... : ... .. . ... ...
ROW B1 : ... .. . ... ... ... : ... .. . ... ... ... : ... .. . ... : ... .. . ... : ... .. . ... ... : ... .. . ... ... : ... .. . ... ... : ... .. . ... ...
ROW B2 : ... .. . ... ... ... : ... .. 3 ... ... ... : ... .. . ... : ... .. . ... : ... .. . ... ... : ... .. . ... ... : ... .. . ... ... : ... .. . ... ...
ROW B3 : ... .. 1 ... ... ... : ... .. . ... ... ... : ... .. . ... : ... .. . ... : ... .. . ... ... : ... .. . ... ... : ... .. . ... ... : ... .. . ... ...
ROW B4 : G-3 00 F ... ... ... : D#3 00 8 ... ... ... : G#2 00 . ... : D-# 00 D V01 : ... .. . ... ... : D#3 01 9 ... ... : ... .. 9 ... ... : G-2 01 8 ... ...
ROW B5 : ... .. E ... ... ... : ... .. 7 ... ... ... : ... .. . ... : ... .. B ... : ... .. . ... ... : ... .. 8 ... ... : ... .. 8 ... ... : ... .. 6 ... ...
ROW B6 : ... .. D ... ... ... : ... .. . ... ... ... : ... .. . ... : ... .. . ... : ... .. . ... ... : ... .. . ... ... : ... .. . ... ... : ... .. 4 ... ...
ROW B7 : ... .. A ... ... ... : ... .. 6 ... ... ... : ... .. . ... : ... .. A ... : ... .. . ... ... : ... .. . ... ... : ... .. . ... ... : ... .. . ... ...
ROW B8 : ... .. . ... ... ... : ... .. 5 ... ... ... : ... .. . ... : ... .. 8 ... : ... .. . ... ... : ... .. 7 ... ... : ... .. 7 ... ... : ... .. . ... ...
ROW B9 : ... .. . ... ... ... : ... .. 4 ... ... ... : ... .. . ... : ... .. 7 ... : ... .. . ... ... : ... .. . ... ... : ... .. . ... ... : ... .. . ... ...
ROW BA : ... .. . ... ... ... : ... .. . ... ... ... : ... .. . ... : ... .. 6 ... : ... .. . ... ... : ... .. . ... ... : ... .. . ... ... : ... .. . ... ...
ROW BB : ... .. . ... ... ... : ... .. . ... ... ... : ... .. . ... : ... .. . ... : ... .. . ... ... : ... .. 6 ... ... : ... .. 6 ... ... : ... .. . ... ...
ROW BC : ... .. . ... ... ... : ... .. 3 ... ... ... : ... .. . ... : ... .. 5 ... : ... .. . ... ... : ... .. . ... ... : ... .. . ... ... : ... .. . ... ...
ROW BD : ... .. . ... ... ... : ... .. . ... ... ... : ... .. . ... : ... .. . ... : ... .. . ... ... : ... .. . ... ... : ... .. . ... ... : ... .. . ... ...
ROW BE : ... .. . ... ... ... : G#2 00 8 ... ... ... : ... .. . ... : ... .. 4 ... : ... .. . ... ... : ... .. 1 ... ... : ... .. 1 ... ... : ... .. . ... ...
ROW BF : ... .. . ... ... ... : ... .. 7 ... ... ... : ... .. . ... : ... .. . ... : ... .. . ... ... : ... .. . ... ... : ... .. . ... ... : ... .. . ... ...
ROW C0 : ... .. . ... ... ... : ... .. . ... ... ... : ... .. . ... : ... .. 3 ... : ... .. . ... ... : ... .. . ... ... : ... .. . ... ... : ... .. . ... ...
ROW C1 : ... .. . ... ... ... : ... .. 6 ... ... ... : ... .. . ... : ... .. 2 ... : ... .. . ... ... : ... .. . ... ... : ... .. . ... ... : ... .. . ... ...
ROW C2 : ... .. . ... ... ... : ... .. 5 ... ... ... : ... .. . ... : ... .. . ... : ... .. . ... ... : ... .. . ... ... : ... .. . ... ... : ... .. . ... ...
ROW C3 : ... .. . ... ... ... : ... .. 4 ... ... ... : ... .. . ... : ... .. 1 ... : ... .. . ... ... : ... .. . ... ... : ... .. . ... ... : ... .. . ... ...
ROW C4 : ... .. . ... ... ... : ... .. . ... ... ... : ... .. . ... : ... .. 0 ... : ... .. . ... ... : ... .. . ... ... : ... .. . ... ... : ... .. . ... ...
ROW C5 : ... .. . ... ... ... : ... .. . ... ... ... : ... .. . ... : ... .. . ... : ... .. . ... ... : ... .. . ... ... : ... .. . ... ... : ... .. . ... ...
ROW C6 : ... .. . ... ... ... : ... .. 3 ... ... ... : ... .. . ... : ... .. . ... : ... .. . ... ... : ... .. . ... ... : ... .. . ... ... : ... .. . ... ...
ROW C7 : ... .. . ... ... ... : ... .. . ... ... ... : ... .. . ... : ... .. . ... : ... .. . ... ... : ... .. . ... ... : ... .. . ... ... : ... .. . ... ...
ROW C8 : G-4 00 F ... ... ... : F-2 00 8 ... ... ... : G-4 00 . ... : 9-# 00 A V00 : ... .. . ... ... : A#2 01 9 ... ... : D#3 01 9 ... ... : D#3 01 8 ... ...
ROW C9 : ... .. E ... ... ... : ... .. 7 ... ... ... : ... .. . ... : ... .. 8 ... : ... .. . ... ... : ... .. 8 ... ... : ... .. 8 ... ... : ... .. 6 ... ...
ROW CA : ... .. D ... ... ... : ... .. . ... ... ... : ... .. . ... : ... .. 4 ... : ... .. . ... ... : ... .. . ... ... : ... .. . ... ... : ... .. 4 ... ...
ROW CB : ... .. A ... ... ... : ... .. 6 ... ... ... : ... .. . ... : ... .. 2 ... : ... .. . ... ... : ... .. . ... ... : ... .. . ... ... : ... .. . ... ...
ROW CC : ... .. . ... ... ... : ... .. 5 ... ... ... : ... .. . ... : ... .. 1 ... : ... .. . ... ... : ... .. 7 ... ... : ... .. 7 ... ... : ... .. . ... ...
ROW CD : ... .. . ... ... ... : ... .. 4 ... ... ... : ... .. . ... : ... .. 0 ... : ... .. . ... ... : ... .. . ... ... : ... .. . ... ... : ... .. . ... ...
ROW CE : ... .. . ... ... ... : ... .. . ... ... ... : ... .. . ... : ... .. . ... : ... .. . ... ... : ... .. . ... ... : ... .. . ... ... : ... .. . ... ...
ROW CF : ... .. . ... ... ... : ... .. . ... ... ... : ... .. . ... : ... .. . ... : ... .. . ... ... : ... .. 6 ... ... : ... .. 6 ... ... : ... .. . ... ...
ROW D0 : ... .. . ... ... ... : ... .. 3 ... ... ... : ... .. . ... : ... .. . ... : ... .. . ... ... : ... .. . ... ... : ... .. . ... ... : ... .. . ... ...
ROW D1 : ... .. . ... ... ... : ... .. . ... ... ... : ... .. . ... : ... .. . ... : ... .. . ... ... : ... .. . ... ... : ... .. . ... ... : ... .. . ... ...
ROW D2 : ... .. . ... ... ... : G#2 00 8 ... ... ... : --- .. . ... : ... .. 8 ... : ... .. . ... ... : ... .. 1 ... ... : ... .. 1 ... ... : ... .. . ... ...
ROW D3 : ... .. 2 ... ... ... : ... .. 7 ... ... ... : ... .. . ... : ... .. 6 ... : ... .. . ... ... : ... .. . ... ... : ... .. . ... ... : ... .. . ... ...
ROW D4 : ... .. . ... ... ... : ... .. . ... ... ... : ... .. . ... : ... .. 3 ... : ... .. . ... ... : ... .. . ... ... : ... .. . ... ... : ... .. . ... ...
ROW D5 : ... .. . ... ... ... : ... .. 6 ... ... ... : ... .. . ... : ... .. 1 ... : ... .. . ... ... : ... .. . ... ... : ... .. . ... ... : ... .. . ... ...
ROW D6 : ... .. 1 ... ... ... : ... .. 5 ... ... ... : ... .. . ... : ... .. . ... : ... .. . ... ... : ... .. . ... ... : ... .. . ... ... : ... .. . ... ...
ROW D7 : ... .. . ... ... ... : ... .. 4 ... ... ... : ... .. . ... : ... .. 0 ... : ... .. . ... ... : ... .. . ... ... : ... .. . ... ... : ... .. . ... ...
ROW D8 : ... .. . ... ... ... : ... .. . ... ... ... : ... .. . ... : ... .. . ... : ... .. . ... ... : ... .. . ... ... : ... .. . ... ... : ... .. . ... ...
ROW D9 : ... .. 0 ... V00 ... : ... .. . ... ... ... : ... .. . ... : ... .. . ... : ... .. . ... ... : ... .. . ... ... : ... .. . ... ... : ... .. . ... ...
ROW DA : ... .. . ... ... ... : ... .. 3 ... ... ... : ... .. . ... : ... .. . ... : ... .. . ... ... : ... .. . ... ... : ... .. . ... ... : ... .. . ... ...
ROW DB : ... .. . ... ... ... : ... .. . ... ... ... : ... .. . ... : ... .. . ... : ... .. . ... ... : ... .. . ... ... : ... .. . ... ... : ... .. . ... ...
ROW DC : F-4 00 F P80 V02 ... : C#3 00 8 ... ... ... : C#2 00 . ... : ... .. F ... : ... .. . ... ... : G#2 01 9 ... ... : F-3 01 9 ... ... : C#3 01 8 ... ...
ROW DD : ... .. E ... ... ... : ... .. 7 ... ... ... : ... .. . ... : ... .. C ... : ... .. . ... ... : ... .. 8 ... ... : ... .. 8 ... ... : ... .. 6 ... ...
ROW DE : ... .. D ... ... ... : ... .. . ... ... ... : ... .. . ... : ... .. 6 ... : ... .. . ... ... : ... .. . ... ... : ... .. . ... ... : ... .. 4 ... ...
ROW DF : ... .. A ... ... ... : ... .. 6 ... ... ... : ... .. . ... : ... .. 3 ... : ... .. . ... ... : ... .. . ... ... : ... .. . ... ... : ... .. . ... ...
ROW E0 : ... .. . ... ... ... : ... .. 5 ... ... ... : ... .. . ... : ... .. 2 ... : ... .. . ... ... : ... .. 7 ... ... : ... .. 7 ... ... : ... .. . ... ...
ROW E1 : ... .. 8 ... ... ... : ... .. 4 ... ... ... : ... .. . ... : ... .. 0 ... : ... .. . ... ... : ... .. . ... ... : ... .. . ... ... : ... .. . ... ...
ROW E2 : ... .. . ... ... ... : ... .. . ... ... ... : ... .. . ... : ... .. . ... : ... .. . ... ... : ... .. . ... ... : ... .. . ... ... : ... .. . ... ...
ROW E3 : ... .. . ... ... ... : ... .. . ... ... ... : ... .. . ... : ... .. . ... : ... .. . ... ... : ... .. 6 ... ... : ... .. 6 ... ... : ... .. . ... ...
ROW E4 : ... .. . ... ... ... : ... .. 3 ... ... ... : ... .. . ... : ... .. . ... : ... .. . ... ... : ... .. . ... ... : ... .. . ... ... : ... .. . ... ...
ROW E5 : ... .. . ... ... ... : ... .. . ... ... ... : ... .. . ... : ... .. . ... : ... .. . ... ... : ... .. . ... ... : ... .. . ... ... : ... .. . ... ...
ROW E6 : ... .. . ... ... ... : B-2 00 8 ... ... ... : ... .. . ... : ... .. . ... : ... .. . ... ... : ... .. 1 ... ... : ... .. 1 ... ... : B-2 01 8 ... ...
ROW E7 : ... .. . ... ... ... : ... .. 7 ... ... ... : ... .. . ... : ... .. . ... : ... .. . ... ... : ... .. . ... ... : ... .. . ... ... : ... .. 6 ... ...
ROW E8 : ... .. . ... ... ... : ... .. . ... ... ... : ... .. . ... : ... .. . ... : ... .. . ... ... : ... .. . ... ... : ... .. . ... ... : ... .. 4 ... ...
ROW E9 : ... .. . ... ... ... : ... .. 6 ... ... ... : ... .. . ... : ... .. . ... : ... .. . ... ... : ... .. . ... ... : ... .. . ... ... : ... .. . ... ...
ROW EA : ... .. . ... ... ... : ... .. 5 ... ... ... : ... .. . ... : ... .. . ... : ... .. . ... ... : ... .. . ... ... : ... .. . ... ... : ... .. . ... ...
ROW EB : ... .. 6 ... ... ... : ... .. 4 ... ... ... : ... .. . ... : ... .. . ... : ... .. . ... ... : ... .. . ... ... : ... .. . ... ... : ... .. . ... ...
ROW EC : ... .. . ... ... ... : ... .. . ... ... ... : ... .. . ... : ... .. . ... : ... .. . ... ... : ... .. . ... ... : ... .. . ... ... : ... .. . ... ...
ROW ED : ... .. . ... ... ... : ... .. . ... ... ... : ... .. . ... : ... .. . ... : ... .. . ... ... : ... .. . ... ... : ... .. . ... ... : ... .. . ... ...
ROW EE : ... .. . ... ... ... : ... .. 3 ... ... ... : ... .. . ... : ... .. . ... : ... .. . ... ... : ... .. . ... ... : ... .. . ... ... : ... .. . ... ...
ROW EF : ... .. . ... ... ... : ... .. . ... ... ... : ... .. . ... : ... .. . ... : ... .. . ... ... : ... .. . ... ... : ... .. . ... ... : ... .. . ... ...
ROW F0 : ... .. . ... ... ... : F-2 00 8 ... ... ... : F-4 00 . ... : D-# 00 8 ... : ... .. . ... ... : B-2 01 9 ... ... : ... .. 9 ... ... : C#3 01 8 ... ...
ROW F1 : ... .. . ... ... ... : ... .. 7 ... ... ... : ... .. . ... : ... .. 7 ... : ... .. . ... ... : ... .. 8 ... ... : ... .. 8 ... ... : ... .. 6 ... ...
ROW F2 : ... .. . ... ... ... : ... .. . ... ... ... : ... .. . ... : ... .. . ... : ... .. . ... ... : ... .. . ... ... : ... .. . ... ... : ... .. 4 ... ...
ROW F3 : ... .. . ... ... ... : ... .. 6 ... ... ... : ... .. . ... : ... .. 6 ... : ... .. . ... ... : ... .. . ... ... : ... .. . ... ... : ... .. . ... ...
ROW F4 : ... .. . ... ... ... : ... .. 5 ... ... ... : ... .. . ... : ... .. 5 ... : ... .. . ... ... : ... .. 7 ... ... : ... .. 7 ... ... : ... .. . ... ...
ROW F5 : ... .. 5 ... ... ... : ... .. 4 ... ... ... : ... .. . ... : ... .. 4 ... : ... .. . ... ... : ... .. . ... ... : ... .. . ... ... : ... .. . ... ...
ROW F6 : ... .. . ... ... ... : ... .. . ... ... ... : ... .. . ... : ... .. . ... : ... .. . ... ... : ... .. . ... ... : ... .. . ... ... : ... .. . ... ...
ROW F7 : ... .. . ... ... ... : ... .. . ... ... ... : ... .. . ... : ... .. . ... : ... .. . ... ... : ... .. 6 ... ... : ... .. 6 ... ... : ... .. . ... ...
ROW F8 : ... .. . ... ... ... : ... .. 3 ... ... ... : ... .. . ... : ... .. 3 ... : ... .. . ... ... : ... .. . ... ... : ... .. . ... ... : ... .. . ... ...
ROW F9 : ... .. . ... ... ... : ... .. . ... ... ... : ... .. . ... : ... .. . ... : ... .. . ... ... : ... .. . ... ... : ... .. . ... ... : ... .. . ... ...
ROW FA : ... .. . ... ... ... : G#2 00 8 ... ... ... : --- .. . ... : ... .. 2 ... : ... .. . ... ... : ... .. 1 ... ... : ... .. 1 ... ... : F-3 01 8 ... ...
ROW FB : ... .. . ... ... ... : ... .. 7 ... ... ... : ... .. . ... : ... .. . ... : ... .. . ... ... : ... .. . ... ... : ... .. . ... ... : ... .. 6 ... ...
ROW FC : ... .. . ... ... ... : ... .. . ... ... ... : ... .. . ... : ... .. . ... : ... .. . ... ... : ... .. . ... ... : ... .. . ... ... : ... .. 4 ... ...
ROW FD : ... .. . ... ... ... : ... .. 6 ... ... ... : ... .. . ... : ... .. 1 ... : ... .. . ... ... : ... .. . ... ... : ... .. . ... ... : ... .. . ... ...
ROW FE : ... .. . ... ... ... : ... .. 5 ... ... ... : ... .. . ... : ... .. . ... : ... .. . ... ... : ... .. . ... ... : ... .. . ... ... : ... .. . ... ...
ROW FF : ... .. 6 ... ... ... : ... .. 4 ... ... ... : ... .. . ... : ... .. . ... : ... .. . ... ... : ... .. . ... ... : ... .. . ... ... : ... .. . ... ...

PATTERN 10
ROW 00 : ... .. . ... ... ... : ... .. . ... ... ... : ... .. . ... : ... .. 0 ... : ... .. . ... ... : ... .. . ... ... : ... .. . ... ... : ... .. . ... ...
ROW 01 : ... .. . ... ... ... : ... .. . ... ... ... : ... .. . ... : ... .. . ... : ... .. . ... ... : ... .. . ... ... : ... .. . ... ... : ... .. . ... ...
ROW 02 : ... .. . ... ... ... : ... .. 3 ... ... ... : ... .. . ... : ... .. . ... : ... .. . ... ... : ... .. . ... ... : ... .. . ... ... : ... .. . ... ...
ROW 03 : ... .. . ... ... ... : ... .. . ... ... ... : ... .. . ... : ... .. . ... : ... .. . ... ... : ... .. . ... ... : ... .. . ... ... : ... .. . ... ...
ROW 04 : ... .. . P82 ... ... : B-2 00 8 ... ... ... : G#2 00 . ... : ... .. D ... : ... .. . ... ... : D#3 01 9 ... ... : ... .. 9 ... ... : G-3 01 8 ... ...
ROW 05 : ... .. . P83 ... ... : ... .. 7 ... ... ... : ... .. . ... : ... .. B ... : ... .. . ... ... : ... .. 8 ... ... : ... .. 8 ... ... : ... .. 6 ... ...
ROW 06 : ... .. . ... ... ... : ... .. . ... ... ... : ... .. . ... : ... .. . ... : ... .. . ... ... : ... .. . ... ... : ... .. . ... ... : ... .. 4 ... ...
ROW 07 : ... .. . P81 ... ... : ... .. 6 ... ... ... : ... .. . ... : ... .. A ... : ... .. . ... ... : ... .. . ... ... : ... .. . ... ... : ... .. . ... ...
ROW 08 : ... .. . P7F ... ... : ... .. 5 ... ... ... : ... .. . ... : ... .. 8 ... : ... .. . ... ... : ... .. 7 ... ... : ... .. 7 ... ... : ... .. . ... ...
ROW 09 : ... .. . P7D ... ... : ... .. 4 ... ... ... : ... .. . ... : ... .. 7 ... : ... .. . ... ... : ... .. . ... ... : ... .. . ... ... : ... .. . ... ...
ROW 0A : ... .. . ... ... ... : ... .. . ... ... ... : ... .. . ... : ... .. 6 ... : ... .. . ... ... : ... .. . ... ... : ... .. . ... ... : ... .. . ... ...
ROW 0B : ... .. . P7E ... ... : ... .. . ... ... ... : ... .. . ... : ... .. . ... : ... .. . ... ... : ... .. 6 ... ... : ... .. 6 ... ... : ... .. . ... ...
ROW 0C : ... .. . P80 ... ... : ... .. 3 ... ... ... : ... .. . ... : ... .. 5 ... : ... .. . ... ... : ... .. . ... ... : ... .. . ... ... : ... .. . ... ...
ROW 0D : ... .. . P82 ... ... : ... .. . ... ... ... : ... .. . ... : ... .. . ... : ... .. . ... ... : ... .. . ... ... : ... .. . ... ... : ... .. . ... ...
ROW 0E : ... .. 7 P83 ... ... : G#2 00 8 ... ... ... : ... .. . ... : ... .. 4 ... : ... .. . ... ... : ... .. 1 ... ... : ... .. 1 ... ... : G#3 01 8 ... ...
ROW 0F : ... .. . ... ... ... : ... .. 7 ... ... ... : ... .. . ... : ... .. . ... : ... .. . ... ... : ... .. . ... ... : ... .. . ... ... : ... .. 6 ... ...
ROW 10 : ... .. . P81 ... ... : ... .. . ... ... ... : ... .. . ... : ... .. 3 ... : ... .. . ... ... : ... .. . ... ... : ... .. . ... ... : ... .. 4 ... ...
ROW 11 : ... .. . P80 ... ... : ... .. 6 ... ... ... : ... .. . ... : ... .. 2 ... : ... .. . ... ... : ... .. . ... ... : ... .. . ... ... : ... .. . ... ...
ROW 12 : ... .. . P7D ... ... : ... .. 5 ... ... ... : ... .. . ... : ... .. . ... : ... .. . ... ... : ... .. . ... ... : ... .. . ... ... : ... .. . ... ...
ROW 13 : ... .. 8 ... ... ... : ... .. 4 ... ... ... : ... .. . ... : ... .. 1 ... : ... .. . ... ... : ... .. . ... ... : ... .. . ... ... : ... .. . ... ...
ROW 14 : ... .. . P7E ... ... : ... .. . ... ... ... : ... .. . ... : ... .. 0 ... : ... .. . ... ... : ... .. . ... ... : ... .. . ... ... : ... .. . ... ...
ROW 15 : ... .. . P80 ... ... : ... .. . ... ... ... : ... .. . ... : ... .. . ... : ... .. . ... ... : ... .. . ... ... : ... .. . ... ... : ... .. . ... ...
ROW 16 : ... .. . P81 ... ... : ... .. 3 ... ... ... : ... .. . ... : ... .. . ... : ... .. . ... ... : ... .. . ... ... : ... .. . ... ... : ... .. . ... ...
ROW 17 : ... .. . P83 ... ... : ... .. . ... ... ... : ... .. . ... : ... .. . ... : ... .. . ... ... : ... .. . ... ... : ... .. . ... ... : ... .. . ... ...
ROW 18 : A#3 00 C P80 ... ... : F-2 00 8 ... ... ... : B-3 00 . ... : 9-# 00 A ... : ... .. . ... ... : B-2 01 9 ... ... : G-3 01 9 ... ... : B-3 01 8 ... ...
ROW 19 : ... .. B ... ... ... : ... .. 7 ... ... ... : ... .. . ... : ... .. 8 ... : ... .. . ... ... : ... .. 8 ... ... : ... .. 8 ... ... : ... .. 6 ... ...
ROW 1A : ... .. A ... ... ... : ... .. . ... ... ... : ... .. . ... : ... .. 4 ... : ... .. . ... ... : ... .. . ... ... : ... .. . ... ... : ... .. 4 ... ...
ROW 1B : ... .. 8 ... ... ... : ... .. 6 ... ... ... : ... .. . ... : ... .. 2 ... : ... .. . ... ... : ... .. . ... ... : ... .. . ... ... : ... .. . ... ...
ROW 1C : ... .. . ... ... ... : ... .. 5 ... ... ... : ... .. . ... : ... .. 1 ... : ... .. . ... ... : ... .. 7 ... ... : ... .. 7 ... ... : ... .. . ... ...
ROW 1D : ... .. . ... ... ... : ... .. 4 ... ... ... : ... .. . ... : ... .. 0 ... : ... .. . ... ... : ... .. . ... ... : ... .. . ... ... : ... .. . ... ...
ROW 1E : ... .. . ... ... ... : ... .. . ... ... ... : ... .. . ... : ... .. . ... : ... .. . ... ... : ... .. . ... ... : ... .. . ... ... : ... .. . ... ...
ROW 1F : ... .. . ... ... ... : ... .. . ... ... ... : ... .. . ... : ... .. 8 ... : ... .. . ... ... : ... .. 6 ... ... : ... .. 6 ... ... : ... .. . ... ...
ROW 20 : ... .. . ... ... ... : ... .. 3 ... ... ... : ... .. . ... : ... .. 6 ... : ... .. . ... ... : ... .. . ... ... : ... .. . ... ... : ... .. . ... ...
ROW 21 : ... .. . ... ... ... : ... .. . ... ... ... : ... .. . ... : ... .. 3 ... : ... .. . ... ... : ... .. . ... ... : ... .. . ... ... : ... .. . ... ...
ROW 22 : G#3 00 E ... ... ... : G#2 00 8 ... ... ... : --- .. . ... : ... .. 1 ... : ... .. . ... ... : ... .. 1 ... ... : ... .. 1 ... ... : C#4 01 8 ... ...
ROW 23 : ... .. D ... ... ... : ... .. 7 ... ... ... : ... .. . ... : ... .. . ... : ... .. . ... ... : ... .. . ... ... : ... .. . ... ... : ... .. 6 ... ...
ROW 24 : ... .. C ... ... ... : ... .. . ... ... ... : ... .. . ... : ... .. 0 ... : ... .. . ... ... : ... .. . ... ... : ... .. . ... ... : ... .. 4 ... ...
ROW 25 : ... .. 9 ... ... ... : ... .. 6 ... ... ... : ... .. . ... : ... .. C ... : ... .. . ... ... : ... .. . ... ... : ... .. . ... ... : ... .. . ... ...
ROW 26 : ... .. . ... ... ... : ... .. 5 ... ... ... : ... .. . ... : ... .. 9 ... : ... .. . ... ... : ... .. . ... ... : ... .. . ... ... : ... .. . ... ...
ROW 27 : ... .. A ... ... ... : ... .. 4 ... ... ... : ... .. . ... : ... .. 4 ... : ... .. . ... ... : ... .. . ... ... : ... .. . ... ... : ... .. . ... ...
ROW 28 : ... .. 2 ... ... ... : ... .. . ... ... ... : ... .. . ... : ... .. 2 ... : ... .. . ... ... : ... .. . ... ... : ... .. . ... ... : ... .. 2 ... ...
ROW 29 : ... .. . ... ... ... : ... .. . ... ... ... : ... .. . ... : ... .. 1 ... : ... .. . ... ... : ... .. . ... ... : ... .. . ... ... : ... .. . ... ...
ROW 2A : ... .. . ... ... ... : ... .. 3 ... ... ... : ... .. . ... : ... .. 0 ... : ... .. . ... ... : ... .. . ... ... : ... .. . ... ... : ... .. 1 ... ...
ROW 2B : ... .. 1 ... ... ... : ... .. . ... ... ... : ... .. . ... : ... .. . ... : ... .. . ... ... : ... .. . ... ... : ... .. . ... ... : ... .. . ... ...
ROW 2C : G-3 00 F ... ... ... : B-2 00 8 ... ... ... : G-2 00 . ... : ... .. F ... : ... .. . ... ... : ... .. 9 ... ... : F-3 01 9 ... ... : F-4 01 8 ... ...
ROW 2D : ... .. E ... ... ... : ... .. 7 ... ... ... : ... .. . ... : ... .. C ... : ... .. . ... ... : ... .. 8 ... ... : ... .. 8 ... ... : ... .. 6 ... ...
ROW 2E : ... .. D ... ... ... : ... .. . ... ... ... : ... .. . ... : ... .. 6 ... : ... .. . ... ... : ... .. . ... ... : ... .. . ... ... : ... .. 4 ... ...
ROW 2F : ... .. A ... ... ... : ... .. 6 ... ... ... : ... .. . ... : ... .. 3 ... : ... .. . ... ... : ... .. . ... ... : ... .. . ... ... : ... .. . ... ...
ROW 30 : ... .. . ... ... ... : ... .. 5 ... ... ... : ... .. . ... : ... .. 2 ... : ... .. . ... ... : ... .. 7 ... ... : ... .. 7 ... ... : ... .. . ... ...
ROW 31 : ... .. . ... ... ... : ... .. 4 ... ... ... : ... .. . ... : ... .. 0 ... : ... .. . ... ... : ... .. . ... ... : ... .. . ... ... : ... .. . ... ...
ROW 32 : ... .. . ... ... ... : ... .. . ... ... ... : ... .. . ... : ... .. . ... : ... .. . ... ... : ... .. . ... ... : ... .. . ... ... : ... .. . ... ...
ROW 33 : ... .. . ... ... ... : ... .. . ... ... ... : ... .. . ... : ... .. . ... : ... .. . ... ... : ... .. 6 ... ... : ... .. 6 ... ... : ... .. . ... ...
ROW 34 : ... .. . ... ... ... : ... .. 3 ... ... ... : ... .. . ... : ... .. . ... : ... .. . ... ... : ... .. . ... ... : ... .. . ... ... : ... .. . ... ...
ROW 35 : ... .. . ... ... ... : ... .. . ... ... ... : ... .. . ... : ... .. . ... : ... .. . ... ... : ... .. . ... ... : ... .. . ... ... : ... .. . ... ...
ROW 36 : ... .. . ... ... ... : G-2 00 8 ... ... ... : ... .. . ... : ... .. . ... : ... .. . ... ... : ... .. 1 ... ... : ... .. 1 ... ... : ... .. . ... ...
ROW 37 : ... .. . ... ... ... : ... .. 7 ... ... ... : ... .. . ... : ... .. . ... : ... .. . ... ... : ... .. . ... ... : ... .. . ... ... : ... .. . ... ...
ROW 38 : ... .. . ... ... ... : ... .. . ... ... ... : ... .. . ... : ... .. . ... : ... .. . ... ... : ... .. . ... ... : ... .. . ... ... : ... .. . ... ...
ROW 39 : ... .. . ... ... ... : ... .. 6 ... ... ... : ... .. . ... : ... .. . ... : ... .. . ... ... : ... .. . ... ... : ... .. . ... ... : ... .. . ... ...
ROW 3A : ... .. . ... ... ... : ... .. 5 ... ... ... : ... .. . ... : ... .. . ... : ... .. . ... ... : ... .. . ... ... : ... .. . ... ... : ... .. . ... ...
ROW 3B : ... .. . ... ... ... : ... .. 4 ... ... ... : ... .. . ... : ... .. . ... : ... .. . ... ... : ... .. . ... ... : ... .. . ... ... : ... .. . ... ...
ROW 3C : ... .. . ... ... ... : ... .. . ... ... ... : ... .. . ... : ... .. . ... : ... .. . ... ... : ... .. . ... ... : ... .. . ... ... : ... .. . ... ...
ROW 3D : ... .. . ... ... ... : ... .. . ... ... ... : ... .. . ... : ... .. . ... : ... .. . ... ... : ... .. . ... ... : ... .. . ... ... : ... .. . ... ...
ROW 3E : ... .. . ... ... ... : ... .. 3 ... ... ... : ... .. . ... : ... .. . ... : ... .. . ... ... : ... .. . ... ... : ... .. . ... ... : ... .. . ... ...
ROW 3F : ... .. . ... ... ... : ... .. . ... ... ... : ... .. . ... : ... .. . ... : ... .. . ... ... : ... .. . ... ... : ... .. . ... ... : ... .. . ... ...
ROW 40 : F-4 00 F ... ... ... : F-2 00 8 ... ... ... : B-3 00 . ... : ... .. . ... : ... .. . ... ... : G-2 01 9 ... ... : D-3 01 9 ... ... : B-3 01 8 ... ...
ROW 41 : ... .. E ... ... ... : ... .. 7 ... ... ... : ... .. . ... : ... .. . ... : ... .. . ... ... : ... .. 8 ... ... : ... .. 8 ... ... : ... .. 6 ... ...
ROW 42 : ... .. D ... ... ... : ... .. . ... ... ... : ... .. . ... : ... .. . ... : ... .. . ... ... : ... .. . ... ... : ... .. . ... ... : ... .. 4 ... ...
ROW 43 : ... .. A ... ... ... : ... .. 6 ... ... ... : ... .. . ... : ... .. . ... : ... .. . ... ... : ... .. . ... ... : ... .. . ... ... : ... .. . ... ...
ROW 44 : ... .. . ... ... ... : ... .. 5 ... ... ... : ... .. . ... : ... .. . ... : ... .. . ... ... : ... .. 7 ... ... : ... .. 7 ... ... : ... .. . ... ...
ROW 45 : ... .. . ... ... ... : ... .. 4 ... ... ... : ... .. . ... : ... .. . ... : ... .. . ... ... : ... .. . ... ... : ... .. . ... ... : ... .. . ... ...
ROW 46 : ... .. . ... ... ... : ... .. . ... ... ... : ... .. . ... : ... .. . ... : ... .. . ... ... : ... .. . ... ... : ... .. . ... ... : ... .. . ... ...
ROW 47 : ... .. . ... ... ... : ... .. . ... ... ... : ... .. . ... : ... .. . ... : ... .. . ... ... : ... .. 6 ... ... : ... .. 6 ... ... : ... .. . ... ...
ROW 48 : ... .. . ... ... ... : ... .. 3 ... ... ... : ... .. . ... : ... .. . ... : ... .. . ... ... : ... .. . ... ... : ... .. . ... ... : ... .. . ... ...
ROW 49 : ... .. . ... ... ... : ... .. . ... ... ... : ... .. . ... : ... .. . ... : ... .. . ... ... : ... .. . ... ... : ... .. . ... ... : ... .. . ... ...
ROW 4A : ... .. . ... ... ... : G-2 00 8 ... ... ... : --- .. . ... : ... .. . ... : ... .. . ... ... : ... .. 1 ... ... : ... .. 1 ... ... : ... .. . ... ...
ROW 4B : ... .. 2 ... ... ... : ... .. 7 ... ... ... : ... .. . ... : ... .. . ... : ... .. . ... ... : ... .. . ... ... : ... .. . ... ... : ... .. 2 ... ...
ROW 4C : ... .. . ... ... ... : ... .. . ... ... ... : ... .. . ... : ... .. . ... : ... .. . ... ... : ... .. . ... ... : ... .. . ... ... : ... .. . ... ...
ROW 4D : ... .. . ... ... ... : ... .. 6 ... ... ... : ... .. . ... : ... .. . ... : ... .. . ... ... : ... .. . ... ... : ... .. . ... ... : ... .. 1 ... ...
ROW 4E : ... .. 1 ... ... ... : ... .. 5 ... ... ... : ... .. . ... : ... .. . ... : ... .. . ... ... : ... .. . ... ... : ... .. . ... ... : ... .. . ... ...
ROW 4F : ... .. . ... ... ... : ... .. 4 ... ... ... : ... .. . ... : ... .. . ... : ... .. . ... ... : ... .. . ... ... : ... .. . ... ... : ... .. . ... ...
ROW 50 : ... .. . ... ... ... : ... .. . ... ... ... : ... .. . ... : ... .. . ... : ... .. . ... ... : ... .. . ... ... : ... .. . ... ... : ... .. . ... ...
ROW 51 : ... .. 0 ... V00 ... : ... .. . ... ... ... : ... .. . ... : ... .. . ... : ... .. . ... ... : ... .. . ... ... : ... .. . ... ... : ... .. . ... ...
ROW 52 : ... .. . ... ... ... : ... .. 3 ... ... ... : ... .. . ... : ... .. . ... : ... .. . ... ... : ... .. . ... ... : ... .. . ... ... : ... .. . ... ...
ROW 53 : ... .. . ... ... ... : ... .. . ... ... ... : ... .. . ... : ... .. . ... : ... .. . ... ... : ... .. . ... ... : ... .. . ... ... : ... .. . ... ...
ROW 54 : D-4 00 F P80 V02 ... : ... .. 8 ... ... ... : C-2 00 . ... : D-# 00 D V01 : ... .. . ... ... : ... .. 9 ... ... : G-3 01 9 ... ... : ... .. 8 ... ...
ROW 55 : ... .. E ... ... ... : ... .. 7 ... ... ... : ... .. . ... : ... .. B ... : ... .. . ... ... : ... .. 8 ... ... : ... .. 8 ... ... : ... .. 6 ... ...
ROW 56 : ... .. D ... ... ... : ... .. . ... ... ... : ... .. . ... : ... .. . ... : ... .. . ... ... : ... .. . ... ... : ... .. . ... ... : ... .. 4 ... ...
ROW 57 : ... .. A ... ... ... : ... .. 6 ... ... ... : ... .. . ... : ... .. A ... : ... .. . ... ... : ... .. . ... ... : ... .. . ... ... : ... .. . ... ...
ROW 58 : ... .. . ... ... ... : ... .. 5 ... ... ... : ... .. . ... : ... .. 8 ... : ... .. . ... ... : ... .. 7 ... ... : ... .. 7 ... ... : ... .. . ... ...
ROW 59 : ... .. . ... ... ... : ... .. 4 ... ... ... : ... .. . ... : ... .. 7 ... : ... .. . ... ... : ... .. . ... ... : ... .. . ... ... : ... .. . ... ...
ROW 5A : ... .. . ... ... ... : ... .. . ... ... ... : ... .. . ... : ... .. 6 ... : ... .. . ... ... : ... .. . ... ... : ... .. . ... ... : ... .. . ... ...
ROW 5B : ... .. . ... ... ... : ... .. . ... ... ... : ... .. . ... : ... .. . ... : ... .. . ... ... : ... .. 6 ... ... : ... .. 6 ... ... : ... .. . ... ...
ROW 5C : ... .. . ... ... ... : ... .. 3 ... ... ... : ... .. . ... : ... .. 5 ... : ... .. . ... ... : ... .. . ... ... : ... .. . ... ... : ... .. . ... ...
ROW 5D : ... .. . ... ... ... : ... .. . ... ... ... : ... .. . ... : ... .. . ... : ... .. . ... ... : ... .. . ... ... : ... .. . ... ... : ... .. . ... ...
ROW 5E : ... .. . ... ... ... : B-2 00 8 ... ... ... : ... .. . ... : ... .. 4 ... : ... .. . ... ... : ... .. 1 ... ... : ... .. 1 ... ... : ... .. . ... ...
ROW 5F : ... .. . ... ... ... : ... .. 7 ... ... ... : ... .. . ... : ... .. . ... : ... .. . ... ... : ... .. . ... ... : ... .. . ... ... : ... .. . ... ...
ROW 60 : ... .. . ... ... ... : ... .. . ... ... ... : ... .. . ... : ... .. 3 ... : ... .. . ... ... : ... .. . ... ... : ... .. . ... ... : ... .. . ... ...
ROW 61 : ... .. . ... ... ... : ... .. 6 ... ... ... : ... .. . ... : ... .. 2 ... : ... .. . ... ... : ... .. . ... ... : ... .. . ... ... : ... .. . ... ...
ROW 62 : ... .. . ... ... ... : ... .. 5 ... ... ... : ... .. . ... : ... .. . ... : ... .. . ... ... : ... .. . ... ... : ... .. . ... ... : ... .. . ... ...
ROW 63 : ... .. . ... ... ... : ... .. 4 ... ... ... : ... .. . ... : ... .. 1 ... : ... .. . ... ... : ... .. . ... ... : ... .. . ... ... : ... .. . ... ...
ROW 64 : ... .. . ... ... ... : ... .. . ... ... ... : ... .. . ... : ... .. 0 ... : ... .. . ... ... : ... .. . ... ... : ... .. . ... ... : ... .. . ... ...
ROW 65 : ... .. . ... ... ... : ... .. . ... ... ... : ... .. . ... : ... .. . ... : ... .. . ... ... : ... .. . ... ... : ... .. . ... ... : ... .. . ... ...
ROW 66 : ... .. . ... ... ... : ... .. 3 ... ... ... : ... .. . ... : ... .. . ... : ... .. . ... ... : ... .. . ... ... : ... .. . ... ... : ... .. . ... ...
ROW 67 : ... .. . ... ... ... : ... .. . ... ... ... : ... .. . ... : ... .. . ... : ... .. . ... ... : ... .. . ... ... : ... .. . ... ... : ... .. . ... ...
ROW 68 : ... .. . ... ... ... : C-3 00 8 ... ... ... : D-4 00 . ... : 9-# 00 A V00 : ... .. . ... ... : D-3 01 9 ... ... : F-3 01 9 ... ... : ... .. . ... ...
ROW 69 : ... .. . ... ... ... : ... .. 7 ... ... ... : ... .. . ... : ... .. 8 ... : ... .. . ... ... : ... .. 8 ... ... : ... .. 8 ... ... : ... .. . ... ...
ROW 6A : ... .. . ... ... ... : ... .. . ... ... ... : ... .. . ... : ... .. 4 ... : ... .. . ... ... : ... .. . ... ... : ... .. . ... ... : ... .. . ... ...
ROW 6B : ... .. . ... ... ... : ... .. 6 ... ... ... : ... .. . ... : ... .. 2 ... : ... .. . ... ... : ... .. . ... ... : ... .. . ... ... : ... .. . ... ...
ROW 6C : ... .. . ... ... ... : ... .. 5 ... ... ... : ... .. . ... : ... .. 1 ... : ... .. . ... ... : ... .. 7 ... ... : ... .. 7 ... ... : ... .. . ... ...
ROW 6D : ... .. . ... ... ... : ... .. 4 ... ... ... : ... .. . ... : ... .. 0 ... : ... .. . ... ... : ... .. . ... ... : ... .. . ... ... : ... .. . ... ...
ROW 6E : ... .. 2 ... ... ... : ... .. . ... ... ... : ... .. . ... : ... .. . ... : ... .. . ... ... : ... .. . ... ... : ... .. . ... ... : ... .. 2 ... ...
ROW 6F : ... .. . ... ... ... : ... .. . ... ... ... : ... .. . ... : ... .. . ... : ... .. . ... ... : ... .. 6 ... ... : ... .. 6 ... ... : ... .. . ... ...
ROW 70 : ... .. . ... ... ... : ... .. 3 ... ... ... : ... .. . ... : ... .. . ... : ... .. . ... ... : ... .. . ... ... : ... .. . ... ... : ... .. 1 ... ...
ROW 71 : ... .. 1 ... ... ... : ... .. . ... ... ... : ... .. . ... : ... .. . ... : ... .. . ... ... : ... .. . ... ... : ... .. . ... ... : ... .. . ... ...
ROW 72 : D#4 00 F ... ... ... : D-3 00 8 ... ... ... : --- .. . ... : ... .. 8 ... : ... .. . ... ... : ... .. 1 ... ... : ... .. 1 ... ... : C-4 01 8 ... ...
ROW 73 : ... .. E ... ... ... : ... .. 7 ... ... ... : ... .. . ... : ... .. 6 ... : ... .. . ... ... : ... .. . ... ... : ... .. . ... ... : ... .. 6 ... ...
ROW 74 : ... .. D ... ... ... : ... .. . ... ... ... : ... .. . ... : ... .. 3 ... : ... .. . ... ... : ... .. . ... ... : ... .. . ... ... : ... .. 4 ... ...
ROW 75 : ... .. A ... ... ... : ... .. 6 ... ... ... : ... .. . ... : ... .. 1 ... : ... .. . ... ... : ... .. . ... ... : ... .. . ... ... : ... .. . ... ...
ROW 76 : ... .. . ... ... ... : ... .. 5 ... ... ... : ... .. . ... : ... .. . ... : ... .. . ... ... : ... .. . ... ... : ... .. . ... ... : ... .. . ... ...
ROW 77 : ... .. . ... ... ... : ... .. 4 ... ... ... : ... .. . ... : ... .. 0 ... : ... .. . ... ... : ... .. . ... ... : ... .. . ... ... : ... .. . ... ...
ROW 78 : ... .. 2 ... ... ... : ... .. . ... ... ... : ... .. . ... : ... .. . ... : ... .. . ... ... : ... .. . ... ... : ... .. . ... ... : ... .. 2 ... ...
ROW 79 : ... .. . ... ... ... : ... .. . ... ... ... : ... .. . ... : ... .. . ... : ... .. . ... ... : ... .. . ... ... : ... .. . ... ... : ... .. . ... ...
ROW 7A : ... .. . ... ... ... : ... .. 3 ... ... ... : ... .. . ... : ... .. . ... : ... .. . ... ... : ... .. . ... ... : ... .. . ... ... : ... .. 1 ... ...
ROW 7B : ... .. 1 ... ... ... : ... .. . ... ... ... : ... .. . ... : ... .. . ... : ... .. . ... ... : ... .. . ... ... : ... .. . ... ... : ... .. . ... ...
ROW 7C : ... .. F ... ... ... : B-2 00 8 ... ... ... : G-2 00 . ... : ... .. F ... : ... .. . ... ... : B-2 01 9 ... ... : D-3 01 9 ... ... : ... .. 8 ... ...
ROW 7D : ... .. E ... ... ... : ... .. 7 ... ... ... : ... .. . ... : ... .. C ... : ... .. . ... ... : ... .. 8 ... ... : ... .. 8 ... ... : ... .. 6 ... ...
ROW 7E : ... .. D ... ... ... : ... .. . ... ... ... : ... .. . ... : ... .. 6 ... : ... .. . ... ... : ... .. . ... ... : ... .. . ... ... : ... .. 4 ... ...
ROW 7F : ... .. A ... ... ... : ... .. 6 ... ... ... : ... .. . ... : ... .. 3 ... : ... .. . ... ... : ... .. . ... ... : ... .. . ... ... : ... .. . ... ...
ROW 80 : ... .. . ... ... ... : ... .. 5 ... ... ... : ... .. . ... : ... .. 2 ... : ... .. . ... ... : ... .. 7 ... ... : ... .. 7 ... ... : ... .. . ... ...
ROW 81 : ... .. 8 ... ... ... : ... .. 4 ... ... ... : ... .. . ... : ... .. 0 ... : ... .. . ... ... : ... .. . ... ... : ... .. . ... ... : ... .. . ... ...
ROW 82 : ... .. . ... ... ... : ... .. . ... ... ... : ... .. . ... : ... .. . ... : ... .. . ... ... : ... .. . ... ... : ... .. . ... ... : ... .. . ... ...
ROW 83 : ... .. . ... ... ... : ... .. . ... ... ... : ... .. . ... : ... .. . ... : ... .. . ... ... : ... .. 6 ... ... : ... .. 6 ... ... : ... .. . ... ...
ROW 84 : ... .. . ... ... ... : ... .. 3 ... ... ... : ... .. . ... : ... .. . ... : ... .. . ... ... : ... .. . ... ... : ... .. . ... ... : ... .. . ... ...
ROW 85 : ... .. . ... ... ... : ... .. . ... ... ... : ... .. . ... : ... .. . ... : ... .. . ... ... : ... .. . ... ... : ... .. . ... ... : ... .. . ... ...
ROW 86 : ... .. . ... ... ... : C-3 00 8 ... ... ... : ... .. . ... : ... .. . ... : ... .. . ... ... : ... .. 1 ... ... : ... .. 1 ... ... : ... .. . ... ...
ROW 87 : ... .. . ... ... ... : ... .. 7 ... ... ... : ... .. . ... : ... .. . ... : ... .. . ... ... : ... .. . ... ... : ... .. . ... ... : ... .. . ... ...
ROW 88 : ... .. . ... ... ... : ... .. . ... ... ... : ... .. . ... : ... .. . ... : ... .. . ... ... : ... .. . ... ... : ... .. . ... ... : ... .. . ... ...
ROW 89 : ... .. . ... ... ... : ... .. 6 ... ... ... : ... .. . ... : ... .. . ... : ... .. . ... ... : ... .. . ... ... : ... .. . ... ... : ... .. . ... ...
ROW 8A : ... .. . ... ... ... : ... .. 5 ... ... ... : ... .. . ... : ... .. . ... : ... .. . ... ... : ... .. . ... ... : ... .. . ... ... : ... .. . ... ...
ROW 8B : ... .. 6 ... ... ... : ... .. 4 ... ... ... : ... .. . ... : ... .. . ... : ... .. . ... ... : ... .. . ... ... : ... .. . ... ... : ... .. . ... ...
ROW 8C : ... .. . ... ... ... : ... .. . ... ... ... : ... .. . ... : ... .. . ... : ... .. . ... ... : ... .. . ... ... : ... .. . ... ... : ... .. . ... ...
ROW 8D : ... .. . ... ... ... : ... .. . ... ... ... : ... .. . ... : ... .. . ... : ... .. . ... ... : ... .. . ... ... : ... .. . ... ... : ... .. . ... ...
ROW 8E : ... .. . ... ... ... : ... .. 3 ... ... ... : ... .. . ... : ... .. . ... : ... .. . ... ... : ... .. . ... ... : ... .. . ... ... : ... .. . ... ...
ROW 8F : ... .. . ... ... ... : ... .. . ... ... ... : ... .. . ... : ... .. . ... : ... .. . ... ... : ... .. . ... ... : ... .. . ... ... : ... .. . ... ...
ROW 90 : ... .. . ... ... ... : D-3 00 8 ... ... ... : C-4 00 . ... : D-# 00 F ... : ... .. . ... ... : C-3 01 9 ... ... : D#3 01 9 ... ... : ... .. . ... ...
ROW 91 : ... .. . ... ... ... : ... .. 7 ... ... ... : ... .. . ... : ... .. C ... : ... .. . ... ... : ... .. 8 ... ... : ... .. 8 ... ... : ... .. . ... ...
ROW 92 : ... .. . ... ... ... : ... .. . ... ... ... : ... .. . ... : ... .. 6 ... : ... .. . ... ... : ... .. . ... ... : ... .. . ... ... : ... .. . ... ...
ROW 93 : ... .. . ... ... ... : ... .. 6 ... ... ... : ... .. . ... : ... .. 3 ... : ... .. . ... ... : ... .. . ... ... : ... .. . ... ... : ... .. . ... ...
ROW 94 : ... .. . ... ... ... : ... .. 5 ... ... ... : ... .. . ... : ... .. 2 ... : ... .. . ... ... : ... .. 7 ... ... : ... .. 7 ... ... : ... .. . ... ...
ROW 95 : ... .. 5 ... ... ... : ... .. 4 ... ... ... : ... .. . ... : ... .. 0 ... : ... .. . ... ... : ... .. . ... ... : ... .. . ... ... : ... .. . ... ...
ROW 96 : ... .. . ... ... ... : ... .. . ... ... ... : ... .. . ... : ... .. . ... : ... .. . ... ... : ... .. . ... ... : ... .. . ... ... : ... .. . ... ...
ROW 97 : ... .. . ... ... ... : ... .. . ... ... ... : ... .. . ... : ... .. . ... : ... .. . ... ... : ... .. 6 ... ... : ... .. 6 ... ... : ... .. . ... ...
ROW 98 : ... .. . ... ... ... : ... .. 3 ... ... ... : ... .. . ... : ... .. . ... : ... .. . ... ... : ... .. . ... ... : ... .. . ... ... : ... .. . ... ...
ROW 99 : ... .. . ... ... ... : ... .. . ... ... ... : ... .. . ... : ... .. . ... : ... .. . ... ... : ... .. . ... ... : ... .. . ... ... : ... .. . ... ...
ROW 9A : ... .. . ... ... ... : D#3 00 8 ... ... ... : --- .. . ... : ... .. . ... : ... .. . ... ... : ... .. 1 ... ... : ... .. 1 ... ... : ... .. . ... ...
ROW 9B : ... .. . ... ... ... : ... .. 7 ... ... ... : ... .. . ... : ... .. . ... : ... .. . ... ... : ... .. . ... ... : ... .. . ... ... : ... .. . ... ...
ROW 9C : ... .. . ... ... ... : ... .. . ... ... ... : ... .. . ... : ... .. . ... : ... .. . ... ... : ... .. . ... ... : ... .. . ... ... : ... .. . ... ...
ROW 9D : ... .. . ... ... ... : ... .. 6 ... ... ... : ... .. . ... : ... .. . ... : ... .. . ... ... : ... .. . ... ... : ... .. . ... ... : ... .. . ... ...
ROW 9E : ... .. . ... ... ... : ... .. 5 ... ... ... : ... .. . ... : ... .. . ... : ... .. . ... ... : ... .. . ... ... : ... .. . ... ... : ... .. . ... ...
ROW 9F : ... .. 6 ... ... ... : ... .. 4 ... ... ... : ... .. . ... : ... .. . ... : ... .. . ... ... : ... .. . ... ... : ... .. . ... ... : ... .. . ... ...
ROW A0 : ... .. . ... ... ... : ... .. . ... ... ... : ... .. . ... : ... .. . ... : ... .. . ... ... : ... .. . ... ... : ... .. . ... ... : ... .. . ... ...
ROW A1 : ... .. . ... ... ... : ... .. . ... ... ... : ... .. . ... : ... .. . ... : ... .. . ... ... : ... .. . ... ... : ... .. . ... ... : ... .. . ... ...
ROW A2 : ... .. . ... ... ... : ... .. 3 ... ... ... : ... .. . ... : ... .. . ... : ... .. . ... ... : ... .. . ... ... : ... .. . ... ... : ... .. . ... ...
ROW A3 : ... .. . ... ... ... : ... .. . ... ... ... : ... .. . ... : ... .. . ... : ... .. . ... ... : ... .. . ... ... : ... .. . ... ... : ... .. . ... ...
ROW A4 : ... .. . P82 ... ... : C-3 00 8 ... ... ... : C-3 00 . ... : ... .. D ... : ... .. . ... ... : G-2 01 9 ... ... : B-2 01 9 ... ... : ... .. . ... ...
ROW A5 : ... .. . P83 ... ... : ... .. 7 ... ... ... : ... .. . ... : ... .. B ... : ... .. . ... ... : ... .. 8 ... ... : ... .. 8 ... ... : ... .. . ... ...
ROW A6 : ... .. . ... ... ... : ... .. . ... ... ... : ... .. . ... : ... .. . ... : ... .. . ... ... : ... .. . ... ... : ... .. . ... ... : ... .. . ... ...
ROW A7 : ... .. . P81 ... ... : ... .. 6 ... ... ... : ... .. . ... : ... .. A ... : ... .. . ... ... : ... .. . ... ... : ... .. . ... ... : ... .. . ... ...
ROW A8 : ... .. . P7F ... ... : ... .. 5 ... ... ... : ... .. . ... : ... .. 8 ... : ... .. . ... ... : ... .. 7 ... ... : ... .. 7 ... ... : ... .. . ... ...
ROW A9 : ... .. . P7D ... ... : ... .. 4 ... ... ... : ... .. . ... : ... .. 7 ... : ... .. . ... ... : ... .. . ... ... : ... .. . ... ... : ... .. . ... ...
ROW AA : ... .. . ... ... ... : ... .. . ... ... ... : ... .. . ... : ... .. 6 ... : ... .. . ... ... : ... .. . ... ... : ... .. . ... ... : ... .. . ... ...
ROW AB : ... .. . P7E ... ... : ... .. . ... ... ... : ... .. . ... : ... .. . ... : ... .. . ... ... : ... .. 6 ... ... : ... .. 6 ... ... : ... .. . ... ...
ROW AC : ... .. . P80 ... ... : ... .. 3 ... ... ... : ... .. . ... : ... .. 5 ... : ... .. . ... ... : ... .. . ... ... : ... .. . ... ... : ... .. . ... ...
ROW AD : ... .. . P82 ... ... : ... .. . ... ... ... : ... .. . ... : ... .. . ... : ... .. . ... ... : ... .. . ... ... : ... .. . ... ... : ... .. . ... ...
ROW AE : ... .. 7 P83 ... ... : D-3 00 8 ... ... ... : ... .. . ... : ... .. 4 ... : ... .. . ... ... : ... .. 1 ... ... : ... .. 1 ... ... : ... .. . ... ...
ROW AF : ... .. . ... ... ... : ... .. 7 ... ... ... : ... .. . ... : ... .. . ... : ... .. . ... ... : ... .. . ... ... : ... .. . ... ... : ... .. . ... ...
ROW B0 : ... .. . P81 ... ... : ... .. . ... ... ... : ... .. . ... : ... .. 3 ... : ... .. . ... ... : ... .. . ... ... : ... .. . ... ... : ... .. . ... ...
ROW B1 : ... .. . P80 ... ... : ... .. 6 ... ... ... : ... .. . ... : ... .. 2 ... : ... .. . ... ... : ... .. . ... ... : ... .. . ... ... : ... .. . ... ...
ROW B2 : ... .. . P7D ... ... : ... .. 5 ... ... ... : ... .. . ... : ... .. . ... : ... .. . ... ... : ... .. . ... ... : ... .. . ... ... : ... .. . ... ...
ROW B3 : ... .. 8 ... ... ... : ... .. 4 ... ... ... : ... .. . ... : ... .. 1 ... : ... .. . ... ... : ... .. . ... ... : ... .. . ... ... : ... .. . ... ...
ROW B4 : ... .. . P7E ... ... : ... .. . ... ... ... : ... .. . ... : ... .. 0 ... : ... .. . ... ... : ... .. . ... ... : ... .. . ... ... : ... .. . ... ...
ROW B5 : ... .. . P80 ... ... : ... .. . ... ... ... : ... .. . ... : ... .. . ... : ... .. . ... ... : ... .. . ... ... : ... .. . ... ... : ... .. . ... ...
ROW B6 : ... .. . P81 ... ... : ... .. 3 ... ... ... : ... .. . ... : ... .. . ... : ... .. . ... ... : ... .. . ... ... : ... .. . ... ... : ... .. . ... ...
ROW B7 : ... .. . P83 ... ... : ... .. . ... ... ... : ... .. . ... : ... .. . ... : ... .. . ... ... : ... .. . ... ... : ... .. . ... ... : ... .. . ... ...
ROW B8 : ... .. . ... ... ... : D#3 00 8 ... ... ... : D#3 00 . ... : 9-# 00 A ... : ... .. . ... ... : D#2 01 9 ... ... : C-3 01 9 ... ... : ... .. . ... ...
ROW B9 : ... .. . P81 ... ... : ... .. 7 ... ... ... : ... .. . ... : ... .. 8 ... : ... .. . ... ... : ... .. 8 ... ... : ... .. 8 ... ... : ... .. . ... ...
ROW BA : ... .. . P80 ... ... : ... .. . ... ... ... : ... .. . ... : ... .. 4 ... : ... .. . ... ... : ... .. . ... ... : ... .. . ... ... : ... .. . ... ...
ROW BB : ... .. . P7E ... ... : ... .. 6 ... ... ... : ... .. . ... : ... .. 2 ... : ... .. . ... ... : ... .. . ... ... : ... .. . ... ... : ... .. . ... ...
ROW BC : ... .. . P7D ... ... : ... .. 5 ... ... ... : ... .. . ... : ... .. 1 ... : ... .. . ... ... : ... .. 7 ... ... : ... .. 7 ... ... : ... .. . ... ...
ROW BD : ... .. . ... ... ... : ... .. 4 ... ... ... : ... .. . ... : ... .. 0 ... : ... .. . ... ... : ... .. . ... ... : ... .. . ... ... : ... .. . ... ...
ROW BE : ... .. . P80 ... ... : ... .. . ... ... ... : ... .. . ... : ... .. . ... : ... .. . ... ... : ... .. . ... ... : ... .. . ... ... : ... .. . ... ...
ROW BF : ... .. . P81 ... ... : ... .. . ... ... ... : ... .. . ... : ... .. . ... : ... .. . ... ... : ... .. 6 ... ... : ... .. 6 ... ... : ... .. . ... ...
ROW C0 : ... .. . P83 ... ... : ... .. 3 ... ... ... : ... .. . ... : ... .. . ... : ... .. . ... ... : ... .. . ... ... : ... .. . ... ... : ... .. . ... ...
ROW C1 : ... .. . ... ... ... : ... .. . ... ... ... : ... .. . ... : ... .. . ... : ... .. . ... ... : ... .. . ... ... : ... .. . ... ... : ... .. . ... ...
ROW C2 : ... .. 9 P82 ... ... : G-3 00 8 ... ... ... : D-3 00 . ... : ... .. 8 ... : ... .. . ... ... : ... .. 1 ... ... : ... .. 1 ... ... : ... .. . ... ...
ROW C3 : ... .. . P80 ... ... : ... .. 7 ... ... ... : ... .. . ... : ... .. 6 ... : ... .. . ... ... : ... .. . ... ... : ... .. . ... ... : ... .. . ... ...
ROW C4 : ... .. . P7E ... ... : ... .. . ... ... ... : ... .. . ... : ... .. 3 ... : ... .. . ... ... : ... .. . ... ... : ... .. . ... ... : ... .. . ... ...
ROW C5 : ... .. . P7D ... ... : ... .. 6 ... ... ... : ... .. . ... : ... .. 1 ... : ... .. . ... ... : ... .. . ... ... : ... .. . ... ... : ... .. . ... ...
ROW C6 : ... .. . ... ... ... : ... .. 5 ... ... ... : ... .. . ... : ... .. . ... : ... .. . ... ... : ... .. . ... ... : ... .. . ... ... : ... .. . ... ...
ROW C7 : ... .. A P7F ... ... : ... .. 4 ... ... ... : ... .. . ... : ... .. 0 ... : ... .. . ... ... : ... .. . ... ... : ... .. . ... ... : ... .. . ... ...
ROW C8 : ... .. . P81 ... ... : ... .. . ... ... ... : ... .. . ... : ... .. . ... : ... .. . ... ... : ... .. . ... ... : ... .. . ... ... : ... .. . ... ...
ROW C9 : ... .. . P83 ... ... : ... .. . ... ... ... : ... .. . ... : ... .. . ... : ... .. . ... ... : ... .. . ... ... : ... .. . ... ... : ... .. . ... ...
ROW CA : ... .. . ... ... ... : ... .. 3 ... ... ... : ... .. . ... : ... .. . ... : ... .. . ... ... : ... .. . ... ... : ... .. . ... ... : ... .. . ... ...
ROW CB : ... .. . P82 ... ... : ... .. . ... ... ... : ... .. . ... : ... .. . ... : ... .. . ... ... : ... .. . ... ... : ... .. . ... ... : ... .. . ... ...
ROW CC : G-4 00 F P80 V01 ... : D#3 00 8 ... ... ... : D#3 00 . ... : ... .. F ... : ... .. . ... ... : G-2 01 9 ... ... : D-3 01 9 ... ... : ... .. . ... ...
ROW CD : ... .. E ... ... ... : ... .. 7 ... ... ... : ... .. . ... : ... .. C ... : ... .. . ... ... : ... .. 8 ... ... : ... .. 8 ... ... : ... .. 2 ... ...
ROW CE : ... .. D ... ... ... : ... .. . ... ... ... : ... .. . ... : ... .. 6 ... : ... .. . ... ... : ... .. . ... ... : ... .. . ... ... : ... .. . ... ...
ROW CF : ... .. A ... ... ... : ... .. 6 ... ... ... : ... .. . ... : ... .. 3 ... : ... .. . ... ... : ... .. . ... ... : ... .. . ... ... : ... .. 1 ... ...
ROW D0 : ... .. . ... ... ... : ... .. 5 ... ... ... : ... .. . ... : ... .. 2 ... : ... .. . ... ... : ... .. 7 ... ... : ... .. 7 ... ... : ... .. . ... ...
ROW D1 : ... .. . ... ... ... : ... .. 4 ... ... ... : ... .. . ... : ... .. 0 ... : ... .. . ... ... : ... .. . ... ... : ... .. . ... ... : ... .. . ... ...
ROW D2 : ... .. . ... ... ... : ... .. . ... ... ... : ... .. . ... : ... .. . ... : ... .. . ... ... : ... .. . ... ... : ... .. . ... ... : ... .. . ... ...
ROW D3 : ... .. . ... ... ... : ... .. . ... ... ... : ... .. . ... : ... .. . ... : ... .. . ... ... : ... .. 6 ... ... : ... .. 6 ... ... : ... .. . ... ...
ROW D4 : ... .. . ... ... ... : ... .. 3 ... ... ... : ... .. . ... : ... .. . ... : ... .. . ... ... : ... .. . ... ... : ... .. . ... ... : ... .. . ... ...
ROW D5 : ... .. . ... ... ... : ... .. . ... ... ... : ... .. . ... : ... .. . ... : ... .. . ... ... : ... .. . ... ... : ... .. . ... ... : ... .. . ... ...
ROW D6 : ... .. . ... ... ... : G-3 00 8 ... ... ... : ... .. . ... : ... .. . ... : ... .. . ... ... : ... .. 1 ... ... : ... .. 1 ... ... : ... .. 0 ... ...
ROW D7 : ... .. 2 ... ... ... : ... .. 7 ... ... ... : ... .. . ... : ... .. . ... : ... .. . ... ... : ... .. . ... ... : ... .. . ... ... : ... .. . ... ...
ROW D8 : ... .. . ... ... ... : ... .. . ... ... ... : ... .. . ... : ... .. . ... : ... .. . ... ... : ... .. . ... ... : ... .. . ... ... : ... .. . ... ...
ROW D9 : ... .. . ... ... ... : ... .. 6 ... ... ... : ... .. . ... : ... .. . ... : ... .. . ... ... : ... .. . ... ... : ... .. . ... ... : ... .. . ... ...
ROW DA : ... .. 1 ... ... ... : ... .. 5 ... ... ... : ... .. . ... : ... .. . ... : ... .. . ... ... : ... .. . ... ... : ... .. . ... ... : ... .. . ... ...
ROW DB : ... .. . ... ... ... : ... .. 4 ... ... ... : ... .. . ... : ... .. . ... : ... .. . ... ... : ... .. . ... ... : ... .. . ... ... : ... .. . ... ...
ROW DC : ... .. . ... ... ... : ... .. . ... ... ... : ... .. . ... : ... .. . ... : ... .. . ... ... : ... .. . ... ... : ... .. . ... ... : ... .. . ... ...
ROW DD : ... .. 0 ... V00 ... : ... .. . ... ... ... : ... .. . ... : ... .. . ... : ... .. . ... ... : ... .. . ... ... : ... .. . ... ... : ... .. . ... ...
ROW DE : ... .. . ... ... ... : ... .. 3 ... ... ... : ... .. . ... : ... .. . ... : ... .. . ... ... : ... .. . ... ... : ... .. . ... ... : ... .. . ... ...
ROW DF : ... .. . ... ... ... : ... .. . ... ... ... : ... .. . ... : ... .. . ... : ... .. . ... ... : ... .. . ... ... : ... .. . ... ... : ... .. . ... ...
ROW E0 : G-5 00 F P80 V01 ... : C-4 00 8 ... ... ... : G-2 00 . ... : D-# 00 D ... : ... .. . ... ... : C-3 01 9 ... ... : D#3 01 9 ... ... : ... .. . ... ...
ROW E1 : ... .. E ... ... ... : ... .. 7 ... ... ... : ... .. . ... : ... .. B ... : ... .. . ... ... : ... .. 8 ... ... : ... .. 8 ... ... : ... .. . ... ...
ROW E2 : ... .. D ... ... ... : ... .. . ... ... ... : ... .. . ... : ... .. . ... : ... .. . ... ... : ... .. . ... ... : ... .. . ... ... : ... .. . ... ...
ROW E3 : ... .. A ... ... ... : ... .. 6 ... ... ... : ... .. . ... : ... .. A ... : ... .. . ... ... : ... .. . ... ... : ... .. . ... ... : ... .. . ... ...
ROW E4 : ... .. . ... ... ... : ... .. 5 ... ... ... : ... .. . ... : ... .. 8 ... : ... .. . ... ... : ... .. 7 ... ... : ... .. 7 ... ... : ... .. . ... ...
ROW E5 : ... .. . ... ... ... : ... .. 4 ... ... ... : ... .. . ... : ... .. 7 ... : ... .. . ... ... : ... .. . ... ... : ... .. . ... ... : ... .. . ... ...
ROW E6 : ... .. . ... ... ... : ... .. . ... ... ... : ... .. . ... : ... .. 6 ... : ... .. . ... ... : ... .. . ... ... : ... .. . ... ... : ... .. . ... ...
ROW E7 : ... .. . ... ... ... : ... .. . ... ... ... : ... .. . ... : ... .. . ... : ... .. . ... ... : ... .. 6 ... ... : ... .. 6 ... ... : ... .. . ... ...
ROW E8 : ... .. . ... ... ... : ... .. 3 ... ... ... : ... .. . ... : ... .. 5 ... : ... .. . ... ... : ... .. . ... ... : ... .. . ... ... : ... .. . ... ...
ROW E9 : ... .. . ... ... ... : ... .. . ... ... ... : ... .. . ... : ... .. . ... : ... .. . ... ... : ... .. . ... ... : ... .. . ... ... : ... .. . ... ...
ROW EA : ... .. . ... ... ... : D#4 00 8 ... ... ... : ... .. . ... : ... .. 4 ... : ... .. . ... ... : ... .. 1 ... ... : ... .. 1 ... ... : ... .. . ... ...
ROW EB : ... .. 2 ... ... ... : ... .. 7 ... ... ... : ... .. . ... : ... .. . ... : ... .. . ... ... : ... .. . ... ... : ... .. . ... ... : ... .. . ... ...
ROW EC : ... .. . ... ... ... : ... .. . ... ... ... : ... .. . ... : ... .. 3 ... : ... .. . ... ... : ... .. . ... ... : ... .. . ... ... : ... .. . ... ...
ROW ED : ... .. . ... ... ... : ... .. 6 ... ... ... : ... .. . ... : ... .. 2 ... : ... .. . ... ... : ... .. . ... ... : ... .. . ... ... : ... .. . ... ...
ROW EE : ... .. 1 ... ... ... : ... .. 5 ... ... ... : ... .. . ... : ... .. . ... : ... .. . ... ... : ... .. . ... ... : ... .. . ... ... : ... .. . ... ...
ROW EF : ... .. . ... ... ... : ... .. 4 ... ... ... : ... .. . ... : ... .. 1 ... : ... .. . ... ... : ... .. . ... ... : ... .. . ... ... : ... .. . ... ...
ROW F0 : ... .. . ... ... ... : ... .. . ... ... ... : ... .. . ... : ... .. 0 ... : ... .. . ... ... : ... .. . ... ... : ... .. . ... ... : ... .. . ... ...
ROW F1 : ... .. 0 ... V00 ... : ... .. . ... ... ... : ... .. . ... : ... .. . ... : ... .. . ... ... : ... .. . ... ... : ... .. . ... ... : ... .. . ... ...
ROW F2 : ... .. . ... ... ... : ... .. 3 ... ... ... : ... .. . ... : ... .. . ... : ... .. . ... ... : ... .. . ... ... : ... .. . ... ... : ... .. . ... ...
ROW F3 : ... .. . ... ... ... : ... .. . ... ... ... : ... .. . ... : ... .. . ... : ... .. . ... ... : ... .. . ... ... : ... .. . ... ... : ... .. . ... ...
ROW F4 : D-5 00 F P80 V01 ... : C-3 00 8 ... ... ... : C-2 00 . ... : ... .. D V01 : ... .. . ... ... : D#3 01 9 ... ... : G-3 01 9 ... ... : F-4 01 8 ... ...
ROW F5 : ... .. E ... ... ... : ... .. 7 ... ... ... : ... .. . ... : ... .. B ... : ... .. . ... ... : ... .. 8 ... ... : ... .. 8 ... ... : ... .. 6 ... ...
ROW F6 : ... .. D ... ... ... : ... .. . ... ... ... : ... .. . ... : ... .. . ... : ... .. . ... ... : ... .. . ... ... : ... .. . ... ... : ... .. 4 ... ...
ROW F7 : ... .. A ... ... ... : ... .. 6 ... ... ... : ... .. . ... : ... .. A ... : ... .. . ... ... : ... .. . ... ... : ... .. . ... ... : ... .. . ... ...
ROW F8 : ... .. . ... ... ... : ... .. 5 ... ... ... : ... .. . ... : ... .. 8 ... : ... .. . ... ... : ... .. 7 ... ... : ... .. 7 ... ... : ... .. . ... ...
ROW F9 : ... .. . ... ... ... : ... .. 4 ... ... ... : ... .. . ... : ... .. 7 ... : ... .. . ... ... : ... .. . ... ... : ... .. . ... ... : ... .. . ... ...
ROW FA : ... .. . ... ... ... : ... .. . ... ... ... : ... .. . ... : ... .. 6 ... : ... .. . ... ... : ... .. . ... ... : ... .. . ... ... : ... .. . ... ...
ROW FB : ... .. . ... ... ... : ... .. . ... ... ... : ... .. . ... : ... .. . ... : ... .. . ... ... : ... .. 6 ... ... : ... .. 6 ... ... : ... .. . ... ...
ROW FC : ... .. . ... ... ... : ... .. 3 ... ... ... : ... .. . ... : ... .. 5 ... : ... .. . ... ... : ... .. . ... ... : ... .. . ... ... : ... .. . ... ...
ROW FD : ... .. . ... ... ... : ... .. . ... ... ... : ... .. . ... : ... .. . ... : ... .. . ... ... : ... .. . ... ... : ... .. . ... ... : ... .. . ... ...
ROW FE : ... .. . ... ... ... : G-2 00 8 ... ... ... : ... .. . ... : ... .. 4 ... : ... .. . ... ... : ... .. 1 ... ... : ... .. 1 ... ... : G-3 01 8 ... ...
ROW FF : ... .. . ... ... ... : ... .. 7 ... ... ... : ... .. . ... : ... .. . ... : ... .. . ... ... : ... .. . ... ... : ... .. . ... ... : ... .. 6 ... ...

PATTERN 11
ROW 00 : ... .. . ... ... ... : ... .. . ... ... ... : ... .. . ... : ... .. 3 ... : ... .. . ... ... : ... .. . ... ... : ... .. . ... ... : ... .. 4 ... ...
ROW 01 : ... .. . ... ... ... : ... .. 6 ... ... ... : ... .. . ... : ... .. 2 ... : ... .. . ... ... : ... .. . ... ... : ... .. . ... ... : ... .. . ... ...
ROW 02 : ... .. . ... ... ... : ... .. 5 ... ... ... : ... .. . ... : ... .. . ... : ... .. . ... ... : ... .. . ... ... : ... .. . ... ... : ... .. . ... ...
ROW 03 : ... .. . ... ... ... : ... .. 4 ... ... ... : ... .. . ... : ... .. 1 ... : ... .. . ... ... : ... .. . ... ... : ... .. . ... ... : ... .. . ... ...
ROW 04 : ... .. . ... ... ... : ... .. . ... ... ... : ... .. . ... : ... .. 0 ... : ... .. . ... ... : ... .. . ... ... : ... .. . ... ... : ... .. . ... ...
ROW 05 : ... .. . ... ... ... : ... .. . ... ... ... : ... .. . ... : ... .. . ... : ... .. . ... ... : ... .. . ... ... : ... .. . ... ... : ... .. . ... ...
ROW 06 : ... .. . ... ... ... : ... .. 3 ... ... ... : ... .. . ... : ... .. . ... : ... .. . ... ... : ... .. . ... ... : ... .. . ... ... : ... .. . ... ...
ROW 07 : ... .. . ... ... ... : ... .. . ... ... ... : ... .. . ... : ... .. . ... : ... .. . ... ... : ... .. . ... ... : ... .. . ... ... : ... .. . ... ...
ROW 08 : D#5 00 F ... ... ... : D#2 00 8 ... ... ... : G-4 00 . ... : 9-# 00 A V00 : ... .. . ... ... : D-3 01 9 ... ... : ... .. 9 ... ... : F-4 01 8 ... ...
ROW 09 : ... .. E ... ... ... : ... .. 7 ... ... ... : ... .. . ... : ... .. 8 ... : ... .. . ... ... : ... .. 8 ... ... : ... .. 8 ... ... : ... .. 6 ... ...
ROW 0A : ... .. D ... ... ... : ... .. . ... ... ... : ... .. . ... : ... .. 4 ... : ... .. . ... ... : ... .. . ... ... : ... .. . ... ... : ... .. 4 ... ...
ROW 0B : ... .. A ... ... ... : ... .. 6 ... ... ... : ... .. . ... : ... .. 2 ... : ... .. . ... ... : ... .. . ... ... : ... .. . ... ... : ... .. . ... ...
ROW 0C : ... .. . ... ... ... : ... .. 5 ... ... ... : ... .. . ... : ... .. 1 ... : ... .. . ... ... : ... .. 7 ... ... : ... .. 7 ... ... : ... .. . ... ...
ROW 0D : ... .. . ... ... ... : ... .. 4 ... ... ... : ... .. . ... : ... .. 0 ... : ... .. . ... ... : ... .. . ... ... : ... .. . ... ... : ... .. . ... ...
ROW 0E : ... .. 2 ... ... ... : ... .. . ... ... ... : ... .. . ... : ... .. . ... : ... .. . ... ... : ... .. . ... ... : ... .. . ... ... : ... .. . ... ...
ROW 0F : ... .. . ... ... ... : ... .. . ... ... ... : ... .. . ... : ... .. . ... : ... .. . ... ... : ... .. 6 ... ... : ... .. 6 ... ... : ... .. . ... ...
ROW 10 : ... .. . ... ... ... : ... .. 3 ... ... ... : ... .. . ... : ... .. . ... : ... .. . ... ... : ... .. . ... ... : ... .. . ... ... : ... .. . ... ...
ROW 11 : ... .. 1 ... ... ... : ... .. . ... ... ... : ... .. . ... : ... .. . ... : ... .. . ... ... : ... .. . ... ... : ... .. . ... ... : ... .. . ... ...
ROW 12 : D-5 00 F ... ... ... : G-2 00 8 ... ... ... : --- .. . ... : ... .. 8 ... : ... .. . ... ... : ... .. 1 ... ... : ... .. 1 ... ... : G-3 01 8 ... ...
ROW 13 : ... .. E ... ... ... : ... .. 7 ... ... ... : ... .. . ... : ... .. 6 ... : ... .. . ... ... : ... .. . ... ... : ... .. . ... ... : ... .. 6 ... ...
ROW 14 : ... .. D ... ... ... : ... .. . ... ... ... : ... .. . ... : ... .. 3 ... : ... .. . ... ... : ... .. . ... ... : ... .. . ... ... : ... .. 4 ... ...
ROW 15 : ... .. A ... ... ... : ... .. 6 ... ... ... : ... .. . ... : ... .. 1 ... : ... .. . ... ... : ... .. . ... ... : ... .. . ... ... : ... .. . ... ...
ROW 16 : ... .. . ... ... ... : ... .. 5 ... ... ... : ... .. . ... : ... .. . ... : ... .. . ... ... : ... .. . ... ... : ... .. . ... ... : ... .. . ... ...
ROW 17 : ... .. . ... ... ... : ... .. 4 ... ... ... : ... .. . ... : ... .. 0 ... : ... .. . ... ... : ... .. . ... ... : ... .. . ... ... : ... .. . ... ...
ROW 18 : ... .. 2 ... ... ... : ... .. . ... ... ... : ... .. . ... : ... .. . ... : ... .. . ... ... : ... .. . ... ... : ... .. . ... ... : ... .. . ... ...
ROW 19 : ... .. . ... ... ... : ... .. . ... ... ... : ... .. . ... : ... .. . ... : ... .. . ... ... : ... .. . ... ... : ... .. . ... ... : ... .. . ... ...
ROW 1A : ... .. . ... ... ... : ... .. 3 ... ... ... : ... .. . ... : ... .. . ... : ... .. . ... ... : ... .. . ... ... : ... .. . ... ... : ... .. . ... ...
ROW 1B : ... .. 1 ... ... ... : ... .. . ... ... ... : ... .. . ... : ... .. . ... : ... .. . ... ... : ... .. . ... ... : ... .. . ... ... : ... .. . ... ...
ROW 1C : C-5 00 F ... ... ... : C-3 00 8 ... ... ... : G-2 00 . ... : ... .. F ... : ... .. . ... ... : D#3 01 9 ... ... : ... .. 9 ... ... : D#4 01 8 ... ...
ROW 1D : ... .. E ... ... ... : ... .. 7 ... ... ... : ... .. . ... : ... .. C ... : ... .. . ... ... : ... .. 8 ... ... : ... .. 8 ... ... : ... .. 6 ... ...
ROW 1E : ... .. D ... ... ... : ... .. . ... ... ... : ... .. . ... : ... .. 6 ... : ... .. . ... ... : ... .. . ... ... : ... .. . ... ... : ... .. 4 ... ...
ROW 1F : ... .. A ... ... ... : ... .. 6 ... ... ... : ... .. . ... : ... .. 3 ... : ... .. . ... ... : ... .. . ... ... : ... .. . ... ... : ... .. . ... ...
ROW 20 : ... .. . ... ... ... : ... .. 5 ... ... ... : ... .. . ... : ... .. 2 ... : ... .. . ... ... : ... .. 7 ... ... : ... .. 7 ... ... : ... .. . ... ...
ROW 21 : ... .. . ... ... ... : ... .. 4 ... ... ... : ... .. . ... : ... .. 0 ... : ... .. . ... ... : ... .. . ... ... : ... .. . ... ... : ... .. . ... ...
ROW 22 : ... .. . ... ... ... : ... .. . ... ... ... : ... .. . ... : ... .. . ... : ... .. . ... ... : ... .. . ... ... : ... .. . ... ... : ... .. . ... ...
ROW 23 : ... .. . ... ... ... : ... .. . ... ... ... : ... .. . ... : ... .. . ... : ... .. . ... ... : ... .. 6 ... ... : ... .. 6 ... ... : ... .. . ... ...
ROW 24 : ... .. . ... ... ... : ... .. 3 ... ... ... : ... .. . ... : ... .. . ... : ... .. . ... ... : ... .. . ... ... : ... .. . ... ... : ... .. . ... ...
ROW 25 : ... .. . ... ... ... : ... .. . ... ... ... : ... .. . ... : ... .. . ... : ... .. . ... ... : ... .. . ... ... : ... .. . ... ... : ... .. . ... ...
ROW 26 : ... .. . P82 ... ... : G-2 00 8 ... ... ... : ... .. . ... : ... .. . ... : ... .. . ... ... : ... .. 1 ... ... : ... .. 1 ... ... : G-3 01 8 ... ...
ROW 27 : ... .. . P83 ... ... : ... .. 7 ... ... ... : ... .. . ... : ... .. . ... : ... .. . ... ... : ... .. . ... ... : ... .. . ... ... : ... .. 6 ... ...
ROW 28 : ... .. . ... ... ... : ... .. . ... ... ... : ... .. . ... : ... .. . ... : ... .. . ... ... : ... .. . ... ... : ... .. . ... ... : ... .. 4 ... ...
ROW 29 : ... .. . P81 ... ... : ... .. 6 ... ... ... : ... .. . ... : ... .. . ... : ... .. . ... ... : ... .. . ... ... : ... .. . ... ... : ... .. . ... ...
ROW 2A : ... .. . P7F ... ... : ... .. 5 ... ... ... : ... .. . ... : ... .. . ... : ... .. . ... ... : ... .. . ... ... : ... .. . ... ... : ... .. . ... ...
ROW 2B : B-4 00 A P83 ... ... : ... .. 4 ... ... ... : ... .. . ... : ... .. . ... : ... .. . ... ... : ... .. . ... ... : ... .. . ... ... : ... .. . ... ...
ROW 2C : ... .. . ... ... ... : ... .. . ... ... ... : ... .. . ... : ... .. . ... : ... .. . ... ... : ... .. . ... ... : ... .. . ... ... : ... .. . ... ...
ROW 2D : C-5 00 A P7E ... ... : ... .. . ... ... ... : ... .. . ... : ... .. . ... : ... .. . ... ... : ... .. . ... ... : ... .. . ... ... : ... .. . ... ...
ROW 2E : ... .. . P80 ... ... : ... .. 3 ... ... ... : ... .. . ... : ... .. . ... : ... .. . ... ... : ... .. . ... ... : ... .. . ... ... : ... .. . ... ...
ROW 2F : ... .. . P82 ... ... : ... .. . ... ... ... : ... .. . ... : ... .. . ... : ... .. . ... ... : ... .. . ... ... : ... .. . ... ... : ... .. . ... ...
ROW 30 : G-4 00 F P80 ... ... : D#2 00 8 ... ... ... : D#4 00 . ... : D-# 00 8 ... : ... .. . ... ... : C-3 01 9 ... ... : ... .. 9 ... ... : D#4 01 8 ... ...
ROW 31 : ... .. E ... ... ... : ... .. 7 ... ... ... : ... .. . ... : ... .. 7 ... : ... .. . ... ... : ... .. 8 ... ... : ... .. 8 ... ... : ... .. 6 ... ...
ROW 32 : ... .. D ... ... ... : ... .. . ... ... ... : ... .. . ... : ... .. . ... : ... .. . ... ... : ... .. . ... ... : ... .. . ... ... : ... .. 4 ... ...
ROW 33 : ... .. A ... ... ... : ... .. 6 ... ... ... : ... .. . ... : ... .. 6 ... : ... .. . ... ... : ... .. . ... ... : ... .. . ... ... : ... .. . ... ...
ROW 34 : ... .. . ... ... ... : ... .. 5 ... ... ... : ... .. . ... : ... .. 5 ... : ... .. . ... ... : ... .. 7 ... ... : ... .. 7 ... ... : ... .. . ... ...
ROW 35 : ... .. . ... ... ... : ... .. 4 ... ... ... : ... .. . ... : ... .. 4 ... : ... .. . ... ... : ... .. . ... ... : ... .. . ... ... : ... .. . ... ...
ROW 36 : ... .. . ... ... ... : ... .. . ... ... ... : ... .. . ... : ... .. . ... : ... .. . ... ... : ... .. . ... ... : ... .. . ... ... : ... .. . ... ...
ROW 37 : ... .. . ... ... ... : ... .. . ... ... ... : ... .. . ... : ... .. . ... : ... .. . ... ... : ... .. 6 ... ... : ... .. 6 ... ... : ... .. . ... ...
ROW 38 : ... .. . ... ... ... : ... .. 3 ... ... ... : ... .. . ... : ... .. 3 ... : ... .. . ... ... : ... .. . ... ... : ... .. . ... ... : ... .. . ... ...
ROW 39 : ... .. . ... ... ... : ... .. . ... ... ... : ... .. . ... : ... .. . ... : ... .. . ... ... : ... .. . ... ... : ... .. . ... ... : ... .. . ... ...
ROW 3A : ... .. . ... ... ... : G-2 00 8 ... ... ... : --- .. . ... : ... .. 2 ... : ... .. . ... ... : ... .. 1 ... ... : ... .. 1 ... ... : G-3 01 8 ... ...
ROW 3B : ... .. 2 ... ... ... : ... .. 7 ... ... ... : ... .. . ... : ... .. . ... : ... .. . ... ... : ... .. . ... ... : ... .. . ... ... : ... .. 6 ... ...
ROW 3C : ... .. . ... ... ... : ... .. . ... ... ... : ... .. . ... : ... .. . ... : ... .. . ... ... : ... .. . ... ... : ... .. . ... ... : ... .. 4 ... ...
ROW 3D : ... .. . ... ... ... : ... .. 6 ... ... ... : ... .. . ... : ... .. 1 ... : ... .. . ... ... : ... .. . ... ... : ... .. . ... ... : ... .. . ... ...
ROW 3E : ... .. 1 ... ... ... : ... .. 5 ... ... ... : ... .. . ... : ... .. . ... : ... .. . ... ... : ... .. . ... ... : ... .. . ... ... : ... .. . ... ...
ROW 3F : ... .. . ... ... ... : ... .. 4 ... ... ... : ... .. . ... : ... .. . ... : ... .. . ... ... : ... .. . ... ... : ... .. . ... ... : ... .. . ... ...
ROW 40 : ... .. . ... ... ... : ... .. . ... ... ... : ... .. . ... : ... .. 0 ... : ... .. . ... ... : ... .. . ... ... : ... .. . ... ... : ... .. . ... ...
ROW 41 : ... .. 0 ... V00 ... : ... .. . ... ... ... : ... .. . ... : ... .. . ... : ... .. . ... ... : ... .. . ... ... : ... .. . ... ... : ... .. . ... ...
ROW 42 : ... .. . ... ... ... : ... .. 3 ... ... ... : ... .. . ... : ... .. . ... : ... .. . ... ... : ... .. . ... ... : ... .. . ... ... : ... .. . ... ...
ROW 43 : ... .. . ... ... ... : ... .. . ... ... ... : ... .. . ... : ... .. . ... : ... .. . ... ... : ... .. . ... ... : ... .. . ... ... : ... .. . ... ...
ROW 44 : A#4 00 F P80 V01 ... : B-2 00 8 ... ... ... : G#1 00 . ... : ... .. D ... : ... .. . ... ... : D#3 01 9 ... ... : G#3 01 9 ... ... : C#4 01 8 ... ...
ROW 45 : ... .. E ... ... ... : ... .. 7 ... ... ... : ... .. . ... : ... .. B ... : ... .. . ... ... : ... .. 8 ... ... : ... .. 8 ... ... : ... .. 6 ... ...
ROW 46 : ... .. D ... ... ... : ... .. . ... ... ... : ... .. . ... : ... .. . ... : ... .. . ... ... : ... .. . ... ... : ... .. . ... ... : ... .. 4 ... ...
ROW 47 : ... .. A ... ... ... : ... .. 6 ... ... ... : ... .. . ... : ... .. A ... : ... .. . ... ... : ... .. . ... ... : ... .. . ... ... : ... .. . ... ...
ROW 48 : ... .. . ... ... ... : ... .. 5 ... ... ... : ... .. . ... : ... .. 8 ... : ... .. . ... ... : ... .. 7 ... ... : ... .. 7 ... ... : ... .. . ... ...
ROW 49 : ... .. . ... ... ... : ... .. 4 ... ... ... : ... .. . ... : ... .. 7 ... : ... .. . ... ... : ... .. . ... ... : ... .. . ... ... : ... .. . ... ...
ROW 4A : ... .. . ... ... ... : ... .. . ... ... ... : ... .. . ... : ... .. 6 ... : ... .. . ... ... : ... .. . ... ... : ... .. . ... ... : ... .. . ... ...
ROW 4B : ... .. . ... ... ... : ... .. . ... ... ... : ... .. . ... : ... .. . ... : ... .. . ... ... : ... .. 6 ... ... : ... .. 6 ... ... : ... .. . ... ...
ROW 4C : ... .. . ... ... ... : ... .. 3 ... ... ... : ... .. . ... : ... .. 5 ... : ... .. . ... ... : ... .. . ... ... : ... .. . ... ... : ... .. . ... ...
ROW 4D : ... .. . ... ... ... : ... .. . ... ... ... : ... .. . ... : ... .. . ... : ... .. . ... ... : ... .. . ... ... : ... .. . ... ... : ... .. . ... ...
ROW 4E : ... .. . ... ... ... : G#2 00 8 ... ... ... : ... .. . ... : ... .. 4 ... : ... .. . ... ... : ... .. 1 ... ... : ... .. 1 ... ... : G#3 01 8 ... ...
ROW 4F : ... .. . ... ... ... : ... .. 7 ... ... ... : ... .. . ... : ... .. . ... : ... .. . ... ... : ... .. . ... ... : ... .. . ... ... : ... .. 6 ... ...
ROW 50 : ... .. . ... ... ... : ... .. . ... ... ... : ... .. . ... : ... .. 3 ... : ... .. . ... ... : ... .. . ... ... : ... .. . ... ... : ... .. 4 ... ...
ROW 51 : ... .. . ... ... ... : ... .. 6 ... ... ... : ... .. . ... : ... .. 2 ... : ... .. . ... ... : ... .. . ... ... : ... .. . ... ... : ... .. . ... ...
ROW 52 : ... .. . ... ... ... : ... .. 5 ... ... ... : ... .. . ... : ... .. . ... : ... .. . ... ... : ... .. . ... ... : ... .. . ... ... : ... .. . ... ...
ROW 53 : ... .. . ... ... ... : ... .. 4 ... ... ... : ... .. . ... : ... .. 1 ... : ... .. . ... ... : ... .. . ... ... : ... .. . ... ... : ... .. . ... ...
ROW 54 : ... .. 2 ... ... ... : ... .. . ... ... ... : ... .. . ... : ... .. 0 ... : ... .. . ... ... : ... .. . ... ... : ... .. . ... ... : ... .. . ... ...
ROW 55 : ... .. . ... ... ... : ... .. . ... ... ... : ... .. . ... : ... .. . ... : ... .. . ... ... : ... .. . ... ... : ... .. . ... ... : ... .. . ... ...
ROW 56 : ... .. . ... ... ... : ... .. 3 ... ... ... : ... .. . ... : ... .. . ... : ... .. . ... ... : ... .. . ... ... : ... .. . ... ... : ... .. . ... ...
ROW 57 : ... .. 1 ... ... ... : ... .. . ... ... ... : ... .. . ... : ... .. . ... : ... .. . ... ... : ... .. . ... ... : ... .. . ... ... : ... .. . ... ...
ROW 58 : B-4 00 F ... ... ... : F-2 00 8 ... ... ... : F-4 00 . ... : 9-# 00 A ... : ... .. . ... ... : B-2 01 9 ... ... : ... .. 9 ... ... : C#4 01 8 ... ...
ROW 59 : ... .. E ... ... ... : ... .. 7 ... ... ... : ... .. . ... : ... .. 8 ... : ... .. . ... ... : ... .. 8 ... ... : ... .. 8 ... ... : ... .. 6 ... ...
ROW 5A : ... .. D ... ... ... : ... .. . ... ... ... : ... .. . ... : ... .. 4 ... : ... .. . ... ... : ... .. . ... ... : ... .. . ... ... : ... .. 4 ... ...
ROW 5B : ... .. A ... ... ... : ... .. 6 ... ... ... : ... .. . ... : ... .. 2 ... : ... .. . ... ... : ... .. . ... ... : ... .. . ... ... : ... .. . ... ...
ROW 5C : ... .. . ... ... ... : ... .. 5 ... ... ... : ... .. . ... : ... .. 1 ... : ... .. . ... ... : ... .. 7 ... ... : ... .. 7 ... ... : ... .. . ... ...
ROW 5D : ... .. . ... ... ... : ... .. 4 ... ... ... : ... .. . ... : ... .. 0 ... : ... .. . ... ... : ... .. . ... ... : ... .. . ... ... : ... .. . ... ...
ROW 5E : ... .. 2 ... ... ... : ... .. . ... ... ... : ... .. . ... : ... .. . ... : ... .. . ... ... : ... .. . ... ... : ... .. . ... ... : ... .. . ... ...
ROW 5F : ... .. . ... ... ... : ... .. . ... ... ... : ... .. . ... : ... .. 8 ... : ... .. . ... ... : ... .. 6 ... ... : ... .. 6 ... ... : ... .. . ... ...
ROW 60 : ... .. . ... ... ... : ... .. 3 ... ... ... : ... .. . ... : ... .. 6 ... : ... .. . ... ... : ... .. . ... ... : ... .. . ... ... : ... .. . ... ...
ROW 61 : ... .. 1 ... ... ... : ... .. . ... ... ... : ... .. . ... : ... .. 3 ... : ... .. . ... ... : ... .. . ... ... : ... .. . ... ... : ... .. . ... ...
ROW 62 : A#4 00 F ... ... ... : G#2 00 8 ... ... ... : --- .. . ... : ... .. 1 ... : ... .. . ... ... : ... .. 1 ... ... : ... .. 1 ... ... : G#3 01 8 ... ...
ROW 63 : ... .. E ... ... ... : ... .. 7 ... ... ... : ... .. . ... : ... .. . ... : ... .. . ... ... : ... .. . ... ... : ... .. . ... ... : ... .. 6 ... ...
ROW 64 : ... .. D ... ... ... : ... .. . ... ... ... : ... .. . ... : ... .. 0 ... : ... .. . ... ... : ... .. . ... ... : ... .. . ... ... : ... .. 4 ... ...
ROW 65 : ... .. A ... ... ... : ... .. 6 ... ... ... : ... .. . ... : ... .. C ... : ... .. . ... ... : ... .. . ... ... : ... .. . ... ... : ... .. . ... ...
ROW 66 : ... .. . ... ... ... : ... .. 5 ... ... ... : ... .. . ... : ... .. 9 ... : ... .. . ... ... : ... .. . ... ... : ... .. . ... ... : ... .. . ... ...
ROW 67 : ... .. . ... ... ... : ... .. 4 ... ... ... : ... .. . ... : ... .. 4 ... : ... .. . ... ... : ... .. . ... ... : ... .. . ... ... : ... .. . ... ...
ROW 68 : ... .. 2 ... ... ... : ... .. . ... ... ... : ... .. . ... : ... .. 2 ... : ... .. . ... ... : ... .. . ... ... : ... .. . ... ... : ... .. . ... ...
ROW 69 : ... .. . ... ... ... : ... .. . ... ... ... : ... .. . ... : ... .. 1 ... : ... .. . ... ... : ... .. . ... ... : ... .. . ... ... : ... .. . ... ...
ROW 6A : ... .. . ... ... ... : ... .. 3 ... ... ... : ... .. . ... : ... .. 0 ... : ... .. . ... ... : ... .. . ... ... : ... .. . ... ... : ... .. . ... ...
ROW 6B : ... .. 1 ... ... ... : ... .. . ... ... ... : ... .. . ... : ... .. . ... : ... .. . ... ... : ... .. . ... ... : ... .. . ... ... : ... .. . ... ...
ROW 6C : G#4 00 F ... ... ... : B-2 00 8 ... ... ... : D#3 00 . ... : ... .. F ... : ... .. . ... ... : D#3 01 9 ... ... : ... .. 9 ... ... : B-3 01 8 ... ...
ROW 6D : ... .. E ... ... ... : ... .. 7 ... ... ... : ... .. . ... : ... .. C ... : ... .. . ... ... : ... .. 8 ... ... : ... .. 8 ... ... : ... .. 6 ... ...
ROW 6E : ... .. D ... ... ... : ... .. . ... ... ... : ... .. . ... : ... .. 6 ... : ... .. . ... ... : ... .. . ... ... : ... .. . ... ... : ... .. 4 ... ...
ROW 6F : ... .. A ... ... ... : ... .. 6 ... ... ... : ... .. . ... : ... .. 3 ... : ... .. . ... ... : ... .. . ... ... : ... .. . ... ... : ... .. . ... ...
ROW 70 : ... .. . ... ... ... : ... .. 5 ... ... ... : ... .. . ... : ... .. 2 ... : ... .. . ... ... : ... .. 7 ... ... : ... .. 7 ... ... : ... .. . ... ...
ROW 71 : ... .. . ... ... ... : ... .. 4 ... ... ... : ... .. . ... : ... .. 0 ... : ... .. . ... ... : ... .. . ... ... : ... .. . ... ... : ... .. . ... ...
ROW 72 : ... .. . ... ... ... : ... .. . ... ... ... : ... .. . ... : ... .. . ... : ... .. . ... ... : ... .. . ... ... : ... .. . ... ... : ... .. . ... ...
ROW 73 : ... .. . ... ... ... : ... .. . ... ... ... : ... .. . ... : ... .. . ... : ... .. . ... ... : ... .. 6 ... ... : ... .. 6 ... ... : ... .. . ... ...
ROW 74 : ... .. . ... ... ... : ... .. 3 ... ... ... : ... .. . ... : ... .. . ... : ... .. . ... ... : ... .. . ... ... : ... .. . ... ... : ... .. . ... ...
ROW 75 : ... .. . ... ... ... : ... .. . ... ... ... : ... .. . ... : ... .. . ... : ... .. . ... ... : ... .. . ... ... : ... .. . ... ... : ... .. . ... ...
ROW 76 : ... .. . P82 ... ... : G#2 00 8 ... ... ... : ... .. . ... : ... .. . ... : ... .. . ... ... : ... .. 1 ... ... : ... .. 1 ... ... : D#3 01 8 ... ...
ROW 77 : ... .. . P83 ... ... : ... .. 7 ... ... ... : ... .. . ... : ... .. . ... : ... .. . ... ... : ... .. . ... ... : ... .. . ... ... : ... .. 6 ... ...
ROW 78 : ... .. . ... ... ... : ... .. . ... ... ... : ... .. . ... : ... .. . ... : ... .. . ... ... : ... .. . ... ... : ... .. . ... ... : ... .. 4 ... ...
ROW 79 : ... .. . P81 ... ... : ... .. 6 ... ... ... : ... .. . ... : ... .. . ... : ... .. . ... ... : ... .. . ... ... : ... .. . ... ... : ... .. . ... ...
ROW 7A : ... .. . P7F ... ... : ... .. 5 ... ... ... : ... .. . ... : ... .. . ... : ... .. . ... ... : ... .. . ... ... : ... .. . ... ... : ... .. . ... ...
ROW 7B : ... .. . P7D ... ... : ... .. 4 ... ... ... : ... .. . ... : ... .. . ... : ... .. . ... ... : ... .. . ... ... : ... .. . ... ... : ... .. . ... ...
ROW 7C : ... .. . ... ... ... : ... .. . ... ... ... : ... .. . ... : ... .. . ... : ... .. . ... ... : ... .. . ... ... : ... .. . ... ... : ... .. . ... ...
ROW 7D : ... .. . P7E ... ... : ... .. . ... ... ... : ... .. . ... : ... .. . ... : ... .. . ... ... : ... .. . ... ... : ... .. . ... ... : ... .. . ... ...
ROW 7E : ... .. . P80 ... ... : ... .. 3 ... ... ... : ... .. . ... : ... .. . ... : ... .. . ... ... : ... .. . ... ... : ... .. . ... ... : ... .. . ... ...
ROW 7F : ... .. . P82 ... ... : ... .. . ... ... ... : ... .. . ... : ... .. . ... : ... .. . ... ... : ... .. . ... ... : ... .. . ... ... : ... .. . ... ...
ROW 80 : B-3 00 F P80 ... ... : F-2 00 8 ... ... ... : B-3 00 . ... : ... .. . ... : ... .. . ... ... : G#2 01 9 ... ... : F-3 01 9 ... ... : B-3 01 8 ... ...
ROW 81 : ... .. E ... ... ... : ... .. 7 ... ... ... : ... .. . ... : ... .. . ... : ... .. . ... ... : ... .. 8 ... ... : ... .. 8 ... ... : ... .. 6 ... ...
ROW 82 : ... .. D ... ... ... : ... .. . ... ... ... : ... .. . ... : ... .. . ... : ... .. . ... ... : ... .. . ... ... : ... .. . ... ... : ... .. 4 ... ...
ROW 83 : ... .. A ... ... ... : ... .. 6 ... ... ... : ... .. . ... : ... .. . ... : ... .. . ... ... : ... .. . ... ... : ... .. . ... ... : ... .. . ... ...
ROW 84 : ... .. . ... ... ... : ... .. 5 ... ... ... : ... .. . ... : ... .. . ... : ... .. . ... ... : ... .. 7 ... ... : ... .. 7 ... ... : ... .. . ... ...
ROW 85 : ... .. . ... ... ... : ... .. 4 ... ... ... : ... .. . ... : ... .. . ... : ... .. . ... ... : ... .. . ... ... : ... .. . ... ... : ... .. . ... ...
ROW 86 : ... .. . ... ... ... : ... .. . ... ... ... : ... .. . ... : ... .. . ... : ... .. . ... ... : ... .. . ... ... : ... .. . ... ... : ... .. . ... ...
ROW 87 : ... .. . ... ... ... : ... .. . ... ... ... : ... .. . ... : ... .. . ... : ... .. . ... ... : ... .. 6 ... ... : ... .. 6 ... ... : ... .. . ... ...
ROW 88 : ... .. . ... ... ... : ... .. 3 ... ... ... : ... .. . ... : ... .. . ... : ... .. . ... ... : ... .. . ... ... : ... .. . ... ... : ... .. . ... ...
ROW 89 : ... .. . ... ... ... : ... .. . ... ... ... : ... .. . ... : ... .. . ... : ... .. . ... ... : ... .. . ... ... : ... .. . ... ... : ... .. . ... ...
ROW 8A : ... .. . ... ... ... : G#2 00 8 ... ... ... : --- .. . ... : ... .. . ... : ... .. . ... ... : ... .. 1 ... ... : ... .. 1 ... ... : D#3 01 8 ... ...
ROW 8B : ... .. 2 ... ... ... : ... .. 7 ... ... ... : ... .. . ... : ... .. . ... : ... .. . ... ... : ... .. . ... ... : ... .. . ... ... : ... .. 6 ... ...
ROW 8C : ... .. . ... ... ... : ... .. . ... ... ... : ... .. . ... : ... .. . ... : ... .. . ... ... : ... .. . ... ... : ... .. . ... ... : ... .. 4 ... ...
ROW 8D : ... .. . ... ... ... : ... .. 6 ... ... ... : ... .. . ... : ... .. . ... : ... .. . ... ... : ... .. . ... ... : ... .. . ... ... : ... .. . ... ...
ROW 8E : ... .. 1 ... ... ... : ... .. 5 ... ... ... : ... .. . ... : ... .. . ... : ... .. . ... ... : ... .. . ... ... : ... .. . ... ... : ... .. . ... ...
ROW 8F : ... .. . ... ... ... : ... .. 4 ... ... ... : ... .. . ... : ... .. . ... : ... .. . ... ... : ... .. . ... ... : ... .. . ... ... : ... .. . ... ...
ROW 90 : ... .. . ... ... ... : ... .. . ... ... ... : ... .. . ... : ... .. . ... : ... .. . ... ... : ... .. . ... ... : ... .. . ... ... : ... .. . ... ...
ROW 91 : ... .. 0 ... V00 ... : ... .. . ... ... ... : ... .. . ... : ... .. . ... : ... .. . ... ... : ... .. . ... ... : ... .. . ... ... : ... .. . ... ...
ROW 92 : ... .. . ... ... ... : ... .. 3 ... ... ... : ... .. . ... : ... .. . ... : ... .. . ... ... : ... .. . ... ... : ... .. . ... ... : ... .. . ... ...
ROW 93 : ... .. . ... ... ... : ... .. . ... ... ... : ... .. . ... : ... .. . ... : ... .. . ... ... : ... .. . ... ... : ... .. . ... ... : ... .. . ... ...
ROW 94 : A#3 00 F P80 V01 ... : A#2 00 8 ... ... ... : D-2 00 . ... : D-# 00 D V01 : ... .. . ... ... : A#2 01 9 ... ... : D-3 01 9 ... ... : A#3 01 8 ... ...
ROW 95 : ... .. E ... ... ... : ... .. 7 ... ... ... : ... .. . ... : ... .. B ... : ... .. . ... ... : ... .. 8 ... ... : ... .. 8 ... ... : ... .. 6 ... ...
ROW 96 : ... .. D ... ... ... : ... .. . ... ... ... : ... .. . ... : ... .. . ... : ... .. . ... ... : ... .. . ... ... : ... .. . ... ... : ... .. 4 ... ...
ROW 97 : ... .. A ... ... ... : ... .. 6 ... ... ... : ... .. . ... : ... .. A ... : ... .. . ... ... : ... .. . ... ... : ... .. . ... ... : ... .. . ... ...
ROW 98 : ... .. . ... ... ... : ... .. 5 ... ... ... : ... .. . ... : ... .. 8 ... : ... .. . ... ... : ... .. 7 ... ... : ... .. 7 ... ... : ... .. . ... ...
ROW 99 : ... .. . ... ... ... : ... .. 4 ... ... ... : ... .. . ... : ... .. 7 ... : ... .. . ... ... : ... .. . ... ... : ... .. . ... ... : ... .. . ... ...
ROW 9A : ... .. . ... ... ... : ... .. . ... ... ... : ... .. . ... : ... .. 6 ... : ... .. . ... ... : ... .. . ... ... : ... .. . ... ... : ... .. . ... ...
ROW 9B : ... .. . ... ... ... : ... .. . ... ... ... : ... .. . ... : ... .. . ... : ... .. . ... ... : ... .. 6 ... ... : ... .. 6 ... ... : ... .. . ... ...
ROW 9C : ... .. . ... ... ... : ... .. 3 ... ... ... : ... .. . ... : ... .. 5 ... : ... .. . ... ... : ... .. . ... ... : ... .. . ... ... : ... .. . ... ...
ROW 9D : ... .. . ... ... ... : ... .. . ... ... ... : ... .. . ... : ... .. . ... : ... .. . ... ... : ... .. . ... ... : ... .. . ... ... : ... .. . ... ...
ROW 9E : ... .. . ... ... ... : F-2 00 8 ... ... ... : ... .. . ... : ... .. 4 ... : ... .. . ... ... : ... .. 1 ... ... : ... .. 1 ... ... : D-3 01 8 ... ...
ROW 9F : ... .. . ... ... ... : ... .. 7 ... ... ... : ... .. . ... : ... .. . ... : ... .. . ... ... : ... .. . ... ... : ... .. . ... ... : ... .. 6 ... ...
ROW A0 : ... .. . ... ... ... : ... .. . ... ... ... : ... .. . ... : ... .. 3 ... : ... .. . ... ... : ... .. . ... ... : ... .. . ... ... : ... .. 4 ... ...
ROW A1 : ... .. . ... ... ... : ... .. 6 ... ... ... : ... .. . ... : ... .. 2 ... : ... .. . ... ... : ... .. . ... ... : ... .. . ... ... : ... .. . ... ...
ROW A2 : ... .. . ... ... ... : ... .. 5 ... ... ... : ... .. . ... : ... .. . ... : ... .. . ... ... : ... .. . ... ... : ... .. . ... ... : ... .. . ... ...
ROW A3 : ... .. . ... ... ... : ... .. 4 ... ... ... : ... .. . ... : ... .. 1 ... : ... .. . ... ... : ... .. . ... ... : ... .. . ... ... : ... .. . ... ...
ROW A4 : ... .. . ... ... ... : ... .. . ... ... ... : ... .. . ... : ... .. 0 ... : ... .. . ... ... : ... .. . ... ... : ... .. . ... ... : ... .. . ... ...
ROW A5 : ... .. . ... ... ... : ... .. . ... ... ... : ... .. . ... : ... .. . ... : ... .. . ... ... : ... .. . ... ... : ... .. . ... ... : ... .. . ... ...
ROW A6 : ... .. . ... ... ... : ... .. 3 ... ... ... : ... .. . ... : ... .. . ... : ... .. . ... ... : ... .. . ... ... : ... .. . ... ... : ... .. . ... ...
ROW A7 : ... .. . ... ... ... : ... .. . ... ... ... : ... .. . ... : ... .. . ... : ... .. . ... ... : ... .. . ... ... : ... .. . ... ... : ... .. . ... ...
ROW A8 : G#4 00 F ... ... ... : D-2 00 8 ... ... ... : A#4 00 . ... : 9-# 00 A V00 : ... .. . ... ... : F-3 01 9 ... ... : G#3 01 9 ... ... : A#3 01 8 ... ...
ROW A9 : ... .. E ... ... ... : ... .. 7 ... ... ... : ... .. . ... : ... .. 8 ... : ... .. . ... ... : ... .. 8 ... ... : ... .. 8 ... ... : ... .. 6 ... ...
ROW AA : ... .. D ... ... ... : ... .. . ... ... ... : ... .. . ... : ... .. 4 ... : ... .. . ... ... : ... .. . ... ... : ... .. . ... ... : ... .. 4 ... ...
ROW AB : ... .. A ... ... ... : ... .. 6 ... ... ... : ... .. . ... : ... .. 2 ... : ... .. . ... ... : ... .. . ... ... : ... .. . ... ... : ... .. . ... ...
ROW AC : ... .. . ... ... ... : ... .. 5 ... ... ... : ... .. . ... : ... .. 1 ... : ... .. . ... ... : ... .. 7 ... ... : ... .. 7 ... ... : ... .. . ... ...
ROW AD : ... .. . ... ... ... : ... .. 4 ... ... ... : ... .. . ... : ... .. 0 ... : ... .. . ... ... : ... .. . ... ... : ... .. . ... ... : ... .. . ... ...
ROW AE : ... .. . ... ... ... : ... .. . ... ... ... : ... .. . ... : ... .. . ... : ... .. . ... ... : ... .. . ... ... : ... .. . ... ... : ... .. . ... ...
ROW AF : ... .. . ... ... ... : ... .. . ... ... ... : ... .. . ... : ... .. . ... : ... .. . ... ... : ... .. 6 ... ... : ... .. 6 ... ... : ... .. . ... ...
ROW B0 : ... .. . ... ... ... : ... .. 3 ... ... ... : ... .. . ... : ... .. . ... : ... .. . ... ... : ... .. . ... ... : ... .. . ... ... : ... .. . ... ...
ROW B1 : ... .. . ... ... ... : ... .. . ... ... ... : ... .. . ... : ... .. . ... : ... .. . ... ... : ... .. . ... ... : ... .. . ... ... : ... .. . ... ...
ROW B2 : ... .. . ... ... ... : F-2 00 8 ... ... ... : --- .. . ... : ... .. 8 ... : ... .. . ... ... : ... .. 1 ... ... : ... .. 1 ... ... : D-3 01 8 ... ...
ROW B3 : ... .. 2 ... ... ... : ... .. 7 ... ... ... : ... .. . ... : ... .. 6 ... : ... .. . ... ... : ... .. . ... ... : ... .. . ... ... : ... .. 6 ... ...
ROW B4 : ... .. . ... ... ... : ... .. . ... ... ... : ... .. . ... : ... .. 3 ... : ... .. . ... ... : ... .. . ... ... : ... .. . ... ... : ... .. 4 ... ...
ROW B5 : ... .. . ... ... ... : ... .. 6 ... ... ... : ... .. . ... : ... .. 1 ... : ... .. . ... ... : ... .. . ... ... : ... .. . ... ... : ... .. . ... ...
ROW B6 : ... .. 1 ... ... ... : ... .. 5 ... ... ... : ... .. . ... : ... .. . ... : ... .. . ... ... : ... .. . ... ... : ... .. . ... ... : ... .. . ... ...
ROW B7 : ... .. . ... ... ... : ... .. 4 ... ... ... : ... .. . ... : ... .. 0 ... : ... .. . ... ... : ... .. . ... ... : ... .. . ... ... : ... .. . ... ...
ROW B8 : ... .. . ... ... ... : ... .. . ... ... ... : ... .. . ... : ... .. . ... : ... .. . ... ... : ... .. . ... ... : ... .. . ... ... : ... .. . ... ...
ROW B9 : ... .. 0 ... V00 ... : ... .. . ... ... ... : ... .. . ... : ... .. . ... : ... .. . ... ... : ... .. . ... ... : ... .. . ... ... : ... .. . ... ...
ROW BA : ... .. . ... ... ... : ... .. 3 ... ... ... : ... .. . ... : ... .. . ... : ... .. . ... ... : ... .. . ... ... : ... .. . ... ... : ... .. . ... ...
ROW BB : ... .. . ... ... ... : ... .. . ... ... ... : ... .. . ... : ... .. . ... : ... .. . ... ... : ... .. . ... ... : ... .. . ... ... : ... .. . ... ...
ROW BC : G-4 00 F P80 V01 ... : A#2 00 8 ... ... ... : D#2 00 . ... : ... .. F ... : ... .. . ... ... : D#3 01 9 ... ... : G-3 01 9 ... ... : A#3 01 8 ... ...
ROW BD : ... .. E ... ... ... : ... .. 7 ... ... ... : ... .. . ... : ... .. C ... : ... .. . ... ... : ... .. 8 ... ... : ... .. 8 ... ... : ... .. 6 ... ...
ROW BE : ... .. D ... ... ... : ... .. . ... ... ... : ... .. . ... : ... .. 6 ... : ... .. . ... ... : ... .. . ... ... : ... .. . ... ... : ... .. 4 ... ...
ROW BF : ... .. A ... ... ... : ... .. 6 ... ... ... : ... .. . ... : ... .. 3 ... : ... .. . ... ... : ... .. . ... ... : ... .. . ... ... : ... .. . ... ...
ROW C0 : ... .. . ... ... ... : ... .. 5 ... ... ... : ... .. . ... : ... .. 2 ... : ... .. . ... ... : ... .. 7 ... ... : ... .. 7 ... ... : ... .. . ... ...
ROW C1 : ... .. 8 ... ... ... : ... .. 4 ... ... ... : ... .. . ... : ... .. 0 ... : ... .. . ... ... : ... .. . ... ... : ... .. . ... ... : ... .. . ... ...
ROW C2 : ... .. . ... ... ... : ... .. . ... ... ... : ... .. . ... : ... .. . ... : ... .. . ... ... : ... .. . ... ... : ... .. . ... ... : ... .. . ... ...
ROW C3 : ... .. . ... ... ... : ... .. . ... ... ... : ... .. . ... : ... .. . ... : ... .. . ... ... : ... .. 6 ... ... : ... .. 6 ... ... : ... .. . ... ...
ROW C4 : ... .. . ... ... ... : ... .. 3 ... ... ... : ... .. . ... : ... .. . ... : ... .. . ... ... : ... .. . ... ... : ... .. . ... ... : ... .. . ... ...
ROW C5 : ... .. . ... ... ... : ... .. . ... ... ... : ... .. . ... : ... .. . ... : ... .. . ... ... : ... .. . ... ... : ... .. . ... ... : ... .. . ... ...
ROW C6 : ... .. . ... ... ... : G-2 00 8 ... ... ... : ... .. . ... : ... .. . ... : ... .. . ... ... : ... .. 1 ... ... : ... .. 1 ... ... : D#3 01 8 ... ...
ROW C7 : ... .. . ... ... ... : ... .. 7 ... ... ... : ... .. . ... : ... .. . ... : ... .. . ... ... : ... .. . ... ... : ... .. . ... ... : ... .. 6 ... ...
ROW C8 : ... .. . ... ... ... : ... .. . ... ... ... : ... .. . ... : ... .. . ... : ... .. . ... ... : ... .. . ... ... : ... .. . ... ... : ... .. 4 ... ...
ROW C9 : ... .. . ... ... ... : ... .. 6 ... ... ... : ... .. . ... : ... .. . ... : ... .. . ... ... : ... .. . ... ... : ... .. . ... ... : ... .. . ... ...
ROW CA : ... .. . ... ... ... : ... .. 5 ... ... ... : ... .. . ... : ... .. . ... : ... .. . ... ... : ... .. . ... ... : ... .. . ... ... : ... .. . ... ...
ROW CB : ... .. 6 ... ... ... : ... .. 4 ... ... ... : ... .. . ... : ... .. . ... : ... .. . ... ... : ... .. . ... ... : ... .. . ... ... : ... .. . ... ...
ROW CC : ... .. . ... ... ... : ... .. . ... ... ... : ... .. . ... : ... .. . ... : ... .. . ... ... : ... .. . ... ... : ... .. . ... ... : ... .. . ... ...
ROW CD : ... .. . ... ... ... : ... .. . ... ... ... : ... .. . ... : ... .. . ... : ... .. . ... ... : ... .. . ... ... : ... .. . ... ... : ... .. . ... ...
ROW CE : ... .. . ... ... ... : ... .. 3 ... ... ... : ... .. . ... : ... .. . ... : ... .. . ... ... : ... .. . ... ... : ... .. . ... ... : ... .. . ... ...
ROW CF : ... .. . ... ... ... : ... .. . ... ... ... : ... .. . ... : ... .. . ... : ... .. . ... ... : ... .. . ... ... : ... .. . ... ... : ... .. . ... ...
ROW D0 : ... .. . ... ... ... : D#2 00 8 ... ... ... : G-3 00 . ... : D-# 00 F ... : ... .. . ... ... : D-3 01 9 ... ... : ... .. 9 ... ... : A#3 01 8 ... ...
ROW D1 : ... .. . ... ... ... : ... .. 7 ... ... ... : ... .. . ... : ... .. C ... : ... .. . ... ... : ... .. 8 ... ... : ... .. 8 ... ... : ... .. 6 ... ...
ROW D2 : ... .. . ... ... ... : ... .. . ... ... ... : ... .. . ... : ... .. 6 ... : ... .. . ... ... : ... .. . ... ... : ... .. . ... ... : ... .. 4 ... ...
ROW D3 : ... .. . ... ... ... : ... .. 6 ... ... ... : ... .. . ... : ... .. 3 ... : ... .. . ... ... : ... .. . ... ... : ... .. . ... ... : ... .. . ... ...
ROW D4 : ... .. . ... ... ... : ... .. 5 ... ... ... : ... .. . ... : ... .. 2 ... : ... .. . ... ... : ... .. 7 ... ... : ... .. 7 ... ... : ... .. . ... ...
ROW D5 : ... .. 5 ... ... ... : ... .. 4 ... ... ... : ... .. . ... : ... .. 0 ... : ... .. . ... ... : ... .. . ... ... : ... .. . ... ... : ... .. . ... ...
ROW D6 : ... .. . ... ... ... : ... .. . ... ... ... : ... .. . ... : ... .. . ... : ... .. . ... ... : ... .. . ... ... : ... .. . ... ... : ... .. . ... ...
ROW D7 : ... .. . ... ... ... : ... .. . ... ... ... : ... .. . ... : ... .. . ... : ... .. . ... ... : ... .. 6 ... ... : ... .. 6 ... ... : ... .. . ... ...
ROW D8 : ... .. . ... ... ... : ... .. 3 ... ... ... : ... .. . ... : ... .. . ... : ... .. . ... ... : ... .. . ... ... : ... .. . ... ... : ... .. . ... ...
ROW D9 : ... .. . ... ... ... : ... .. . ... ... ... : ... .. . ... : ... .. . ... : ... .. . ... ... : ... .. . ... ... : ... .. . ... ... : ... .. . ... ...
ROW DA : ... .. . ... ... ... : G-2 00 8 ... ... ... : --- .. . ... : ... .. . ... : ... .. . ... ... : ... .. 1 ... ... : ... .. 1 ... ... : D#3 01 8 ... ...
ROW DB : ... .. . ... ... ... : ... .. 7 ... ... ... : ... .. . ... : ... .. . ... : ... .. . ... ... : ... .. . ... ... : ... .. . ... ... : ... .. 6 ... ...
ROW DC : ... .. . ... ... ... : ... .. . ... ... ... : ... .. . ... : ... .. . ... : ... .. . ... ... : ... .. . ... ... : ... .. . ... ... : ... .. 4 ... ...
ROW DD : ... .. . ... ... ... : ... .. 6 ... ... ... : ... .. . ... : ... .. . ... : ... .. . ... ... : ... .. . ... ... : ... .. . ... ... : ... .. . ... ...
ROW DE : ... .. . ... ... ... : ... .. 5 ... ... ... : ... .. . ... : ... .. . ... : ... .. . ... ... : ... .. . ... ... : ... .. . ... ... : ... .. . ... ...
ROW DF : ... .. 6 ... ... ... : ... .. 4 ... ... ... : ... .. . ... : ... .. . ... : ... .. . ... ... : ... .. . ... ... : ... .. . ... ... : ... .. . ... ...
ROW E0 : ... .. . ... ... ... : ... .. . ... ... ... : ... .. . ... : ... .. . ... : ... .. . ... ... : ... .. . ... ... : ... .. . ... ... : ... .. . ... ...
ROW E1 : ... .. . ... ... ... : ... .. . ... ... ... : ... .. . ... : ... .. . ... : ... .. . ... ... : ... .. . ... ... : ... .. . ... ... : ... .. . ... ...
ROW E2 : ... .. . ... ... ... : ... .. 3 ... ... ... : ... .. . ... : ... .. . ... : ... .. . ... ... : ... .. . ... ... : ... .. . ... ... : ... .. . ... ...
ROW E3 : ... .. . ... ... ... : ... .. . ... ... ... : ... .. . ... : ... .. . ... : ... .. . ... ... : ... .. . ... ... : ... .. . ... ... : ... .. . ... ...
ROW E4 : ... .. . P82 ... ... : A#2 00 8 ... ... ... : D#1 00 . ... : ... .. D ... : ... .. . ... ... : D#3 01 9 ... ... : ... .. 9 ... ... : G-3 01 8 ... ...
ROW E5 : ... .. . P83 ... ... : ... .. 7 ... ... ... : ... .. . ... : ... .. B ... : ... .. . ... ... : ... .. 8 ... ... : ... .. 8 ... ... : ... .. 6 ... ...
ROW E6 : ... .. . ... ... ... : ... .. . ... ... ... : ... .. . ... : ... .. . ... : ... .. . ... ... : ... .. . ... ... : ... .. . ... ... : ... .. 4 ... ...
ROW E7 : ... .. . P81 ... ... : ... .. 6 ... ... ... : ... .. . ... : ... .. A ... : ... .. . ... ... : ... .. . ... ... : ... .. . ... ... : ... .. . ... ...
ROW E8 : ... .. . P7F ... ... : ... .. 5 ... ... ... : ... .. . ... : ... .. 8 ... : ... .. . ... ... : ... .. 7 ... ... : ... .. 7 ... ... : ... .. . ... ...
ROW E9 : ... .. . P7D ... ... : ... .. 4 ... ... ... : ... .. . ... : ... .. 7 ... : ... .. . ... ... : ... .. . ... ... : ... .. . ... ... : ... .. . ... ...
ROW EA : ... .. . ... ... ... : ... .. . ... ... ... : ... .. . ... : ... .. 6 ... : ... .. . ... ... : ... .. . ... ... : ... .. . ... ... : ... .. . ... ...
ROW EB : ... .. . P7E ... ... : ... .. . ... ... ... : ... .. . ... : ... .. . ... : ... .. . ... ... : ... .. 6 ... ... : ... .. 6 ... ... : ... .. . ... ...
ROW EC : ... .. . P80 ... ... : ... .. 3 ... ... ... : ... .. . ... : ... .. 5 ... : ... .. . ... ... : ... .. . ... ... : ... .. . ... ... : ... .. . ... ...
ROW ED : ... .. . P82 ... ... : ... .. . ... ... ... : ... .. . ... : ... .. . ... : ... .. . ... ... : ... .. . ... ... : ... .. . ... ... : ... .. . ... ...
ROW EE : ... .. 7 P83 ... ... : G-2 00 8 ... ... ... : ... .. . ... : ... .. 4 ... : ... .. . ... ... : ... .. 1 ... ... : ... .. 1 ... ... : A#2 01 8 ... ...
ROW EF : ... .. . ... ... ... : ... .. 7 ... ... ... : ... .. . ... : ... .. . ... : ... .. . ... ... : ... .. . ... ... : ... .. . ... ... : ... .. 6 ... ...
ROW F0 : ... .. . P81 ... ... : ... .. . ... ... ... : ... .. . ... : ... .. 3 ... : ... .. . ... ... : ... .. . ... ... : ... .. . ... ... : ... .. 4 ... ...
ROW F1 : ... .. . P80 ... ... : ... .. 6 ... ... ... : ... .. . ... : ... .. 2 ... : ... .. . ... ... : ... .. . ... ... : ... .. . ... ... : ... .. . ... ...
ROW F2 : ... .. . P7D ... ... : ... .. 5 ... ... ... : ... .. . ... : ... .. . ... : ... .. . ... ... : ... .. . ... ... : ... .. . ... ... : ... .. . ... ...
ROW F3 : ... .. 8 ... ... ... : ... .. 4 ... ... ... : ... .. . ... : ... .. 1 ... : ... .. . ... ... : ... .. . ... ... : ... .. . ... ... : ... .. . ... ...
ROW F4 : ... .. . P7E ... ... : ... .. . ... ... ... : ... .. . ... : ... .. 0 ... : ... .. . ... ... : ... .. . ... ... : ... .. . ... ... : ... .. . ... ...
ROW F5 : ... .. . P80 ... ... : ... .. . ... ... ... : ... .. . ... : ... .. . ... : ... .. . ... ... : ... .. . ... ... : ... .. . ... ... : ... .. . ... ...
ROW F6 : ... .. . P81 ... ... : ... .. 3 ... ... ... : ... .. . ... : ... .. . ... : ... .. . ... ... : ... .. . ... ... : ... .. . ... ... : ... .. . ... ...
ROW F7 : ... .. . P83 ... ... : ... .. . ... ... ... : ... .. . ... : ... .. . ... : ... .. . ... ... : ... .. . ... ... : ... .. . ... ... : ... .. . ... ...
ROW F8 : ... .. . ... ... ... : D#2 00 8 ... ... ... : F-4 00 . ... : 9-# 00 A ... : ... .. . ... ... : A#2 01 9 ... ... : ... .. 9 ... ... : D#3 01 8 ... ...
ROW F9 : ... .. . P81 ... ... : ... .. 7 ... ... ... : ... .. . ... : ... .. 8 ... : ... .. . ... ... : ... .. 8 ... ... : ... .. 8 ... ... : ... .. 6 ... ...
ROW FA : ... .. . P80 ... ... : ... .. . ... ... ... : ... .. . ... : ... .. 4 ... : ... .. . ... ... : ... .. . ... ... : ... .. . ... ... : ... .. 4 ... ...
ROW FB : ... .. . P7E ... ... : ... .. 6 ... ... ... : ... .. . ... : ... .. 2 ... : ... .. . ... ... : ... .. . ... ... : ... .. . ... ... : ... .. . ... ...
ROW FC : ... .. . P7D ... ... : ... .. 5 ... ... ... : ... .. . ... : ... .. 1 ... : ... .. . ... ... : ... .. 7 ... ... : ... .. 7 ... ... : ... .. . ... ...
ROW FD : ... .. . ... ... ... : ... .. 4 ... ... ... : ... .. . ... : ... .. 0 ... : ... .. . ... ... : ... .. . ... ... : ... .. . ... ... : ... .. . ... ...
ROW FE : ... .. . P80 ... ... : ... .. . ... ... ... : ... .. . ... : ... .. . ... : ... .. . ... ... : ... .. . ... ... : ... .. . ... ... : ... .. . ... ...
ROW FF : ... .. . P81 ... ... : ... .. . ... ... ... : ... .. . ... : ... .. . ... : ... .. . ... ... : ... .. 6 ... ... : ... .. 6 ... ... : ... .. . ... ...

PATTERN 12
ROW 00 : ... .. . P83 ... ... : ... .. 3 ... ... ... : ... .. . ... : ... .. . ... : ... .. . ... ... : ... .. . ... ... : ... .. . ... ... : ... .. . ... ...
ROW 01 : ... .. . ... ... ... : ... .. . ... ... ... : ... .. . ... : ... .. . ... : ... .. . ... ... : ... .. . ... ... : ... .. . ... ... : ... .. . ... ...
ROW 02 : ... .. 9 P82 ... ... : G-2 00 8 ... ... ... : --- .. . ... : ... .. 8 ... : ... .. . ... ... : ... .. 1 ... ... : ... .. 1 ... ... : G-3 01 8 ... ...
ROW 03 : ... .. . P80 ... ... : ... .. 7 ... ... ... : ... .. . ... : ... .. 6 ... : ... .. . ... ... : ... .. . ... ... : ... .. . ... ... : ... .. 6 ... ...
ROW 04 : ... .. . P7E ... ... : ... .. . ... ... ... : ... .. . ... : ... .. 3 ... : ... .. . ... ... : ... .. . ... ... : ... .. . ... ... : ... .. 4 ... ...
ROW 05 : ... .. . P7D ... ... : ... .. 6 ... ... ... : ... .. . ... : ... .. 1 ... : ... .. . ... ... : ... .. . ... ... : ... .. . ... ... : ... .. . ... ...
ROW 06 : ... .. . ... ... ... : ... .. 5 ... ... ... : ... .. . ... : ... .. . ... : ... .. . ... ... : ... .. . ... ... : ... .. . ... ... : ... .. . ... ...
ROW 07 : ... .. A P7F ... ... : ... .. 4 ... ... ... : ... .. . ... : ... .. 0 ... : ... .. . ... ... : ... .. . ... ... : ... .. . ... ... : ... .. . ... ...
ROW 08 : ... .. 2 P81 ... ... : ... .. . ... ... ... : ... .. . ... : ... .. . ... : ... .. . ... ... : ... .. . ... ... : ... .. . ... ... : ... .. . ... ...
ROW 09 : ... .. . P83 ... ... : ... .. . ... ... ... : ... .. . ... : ... .. . ... : ... .. . ... ... : ... .. . ... ... : ... .. . ... ... : ... .. . ... ...
ROW 0A : ... .. . ... ... ... : ... .. 3 ... ... ... : ... .. . ... : ... .. . ... : ... .. . ... ... : ... .. . ... ... : ... .. . ... ... : ... .. . ... ...
ROW 0B : ... .. 1 P82 ... ... : ... .. . ... ... ... : ... .. . ... : ... .. . ... : ... .. . ... ... : ... .. . ... ... : ... .. . ... ... : ... .. . ... ...
ROW 0C : G-3 00 F P80 ... ... : D#3 00 8 ... ... ... : G-2 00 . ... : ... .. F ... : ... .. . ... ... : G-2 01 9 ... ... : A#3 01 9 ... ... : A#3 01 8 ... ...
ROW 0D : ... .. E ... ... ... : ... .. 7 ... ... ... : ... .. . ... : ... .. C ... : ... .. . ... ... : ... .. 8 ... ... : ... .. 8 ... ... : ... .. 6 ... ...
ROW 0E : ... .. D ... ... ... : ... .. . ... ... ... : ... .. . ... : ... .. 6 ... : ... .. . ... ... : ... .. . ... ... : ... .. . ... ... : ... .. 4 ... ...
ROW 0F : ... .. A ... ... ... : ... .. 6 ... ... ... : ... .. . ... : ... .. 3 ... : ... .. . ... ... : ... .. . ... ... : ... .. . ... ... : ... .. . ... ...
ROW 10 : ... .. . ... ... ... : ... .. 5 ... ... ... : ... .. . ... : ... .. 2 ... : ... .. . ... ... : ... .. 7 ... ... : ... .. 7 ... ... : ... .. . ... ...
ROW 11 : ... .. . ... ... ... : ... .. 4 ... ... ... : ... .. . ... : ... .. 0 ... : ... .. . ... ... : ... .. . ... ... : ... .. . ... ... : ... .. . ... ...
ROW 12 : ... .. . ... ... ... : ... .. . ... ... ... : ... .. . ... : ... .. . ... : ... .. . ... ... : ... .. . ... ... : ... .. . ... ... : ... .. . ... ...
ROW 13 : ... .. . ... ... ... : ... .. . ... ... ... : ... .. . ... : ... .. . ... : ... .. . ... ... : ... .. 6 ... ... : ... .. 6 ... ... : ... .. . ... ...
ROW 14 : ... .. . ... ... ... : ... .. 3 ... ... ... : ... .. . ... : ... .. . ... : ... .. . ... ... : ... .. . ... ... : ... .. . ... ... : ... .. . ... ...
ROW 15 : ... .. . ... ... ... : ... .. . ... ... ... : ... .. . ... : ... .. . ... : ... .. . ... ... : ... .. . ... ... : ... .. . ... ... : ... .. . ... ...
ROW 16 : ... .. . ... ... ... : A#2 00 8 ... ... ... : ... .. . ... : ... .. . ... : ... .. . ... ... : ... .. 1 ... ... : ... .. 1 ... ... : G-3 01 8 ... ...
ROW 17 : ... .. . ... ... ... : ... .. 7 ... ... ... : ... .. . ... : ... .. . ... : ... .. . ... ... : ... .. . ... ... : ... .. . ... ... : ... .. 6 ... ...
ROW 18 : ... .. . ... ... ... : ... .. . ... ... ... : ... .. . ... : ... .. . ... : ... .. . ... ... : ... .. . ... ... : ... .. . ... ... : ... .. 4 ... ...
ROW 19 : ... .. . ... ... ... : ... .. 6 ... ... ... : ... .. . ... : ... .. . ... : ... .. . ... ... : ... .. . ... ... : ... .. . ... ... : ... .. . ... ...
ROW 1A : ... .. . ... ... ... : ... .. 5 ... ... ... : ... .. . ... : ... .. . ... : ... .. . ... ... : ... .. . ... ... : ... .. . ... ... : ... .. . ... ...
ROW 1B : ... .. . ... ... ... : ... .. 4 ... ... ... : ... .. . ... : ... .. . ... : ... .. . ... ... : ... .. . ... ... : ... .. . ... ... : ... .. . ... ...
ROW 1C : ... .. . ... ... ... : ... .. . ... ... ... : ... .. . ... : ... .. . ... : ... .. . ... ... : ... .. . ... ... : ... .. . ... ... : ... .. . ... ...
ROW 1D : ... .. . ... ... ... : ... .. . ... ... ... : ... .. . ... : ... .. . ... : ... .. . ... ... : ... .. . ... ... : ... .. . ... ... : ... .. . ... ...
ROW 1E : ... .. . ... ... ... : ... .. 3 ... ... ... : ... .. . ... : ... .. . ... : ... .. . ... ... : ... .. . ... ... : ... .. . ... ... : ... .. . ... ...
ROW 1F : ... .. . ... ... ... : ... .. . ... ... ... : ... .. . ... : ... .. . ... : ... .. . ... ... : ... .. . ... ... : ... .. . ... ... : ... .. . ... ...
ROW 20 : G-4 00 F ... ... ... : G-2 00 8 ... ... ... : D#4 00 . ... : ... .. . ... : ... .. . ... ... : A#2 01 9 ... ... : G-3 01 9 ... ... : A#3 01 8 ... ...
ROW 21 : ... .. E ... ... ... : ... .. 7 ... ... ... : ... .. . ... : ... .. . ... : ... .. . ... ... : ... .. 8 ... ... : ... .. 8 ... ... : ... .. 6 ... ...
ROW 22 : ... .. D ... ... ... : ... .. . ... ... ... : ... .. . ... : ... .. . ... : ... .. . ... ... : ... .. . ... ... : ... .. . ... ... : ... .. 4 ... ...
ROW 23 : ... .. A ... ... ... : ... .. 6 ... ... ... : ... .. . ... : ... .. . ... : ... .. . ... ... : ... .. . ... ... : ... .. . ... ... : ... .. . ... ...
ROW 24 : ... .. . ... ... ... : ... .. 5 ... ... ... : ... .. . ... : ... .. . ... : ... .. . ... ... : ... .. 7 ... ... : ... .. 7 ... ... : ... .. . ... ...
ROW 25 : ... .. . ... ... ... : ... .. 4 ... ... ... : ... .. . ... : ... .. . ... : ... .. . ... ... : ... .. . ... ... : ... .. . ... ... : ... .. . ... ...
ROW 26 : ... .. . ... ... ... : ... .. . ... ... ... : ... .. . ... : ... .. . ... : ... .. . ... ... : ... .. . ... ... : ... .. . ... ... : ... .. . ... ...
ROW 27 : ... .. . ... ... ... : ... .. . ... ... ... : ... .. . ... : ... .. . ... : ... .. . ... ... : ... .. 6 ... ... : ... .. 6 ... ... : ... .. . ... ...
ROW 28 : ... .. . ... ... ... : ... .. 3 ... ... ... : ... .. . ... : ... .. . ... : ... .. . ... ... : ... .. . ... ... : ... .. . ... ... : ... .. . ... ...
ROW 29 : ... .. . ... ... ... : ... .. . ... ... ... : ... .. . ... : ... .. . ... : ... .. . ... ... : ... .. . ... ... : ... .. . ... ... : ... .. . ... ...
ROW 2A : ... .. . ... ... ... : A#2 00 8 ... ... ... : --- .. . ... : ... .. . ... : ... .. . ... ... : ... .. 1 ... ... : ... .. 1 ... ... : D#4 01 8 ... ...
ROW 2B : ... .. 2 ... ... ... : ... .. 7 ... ... ... : ... .. . ... : ... .. . ... : ... .. . ... ... : ... .. . ... ... : ... .. . ... ... : ... .. 6 ... ...
ROW 2C : ... .. . ... ... ... : ... .. . ... ... ... : ... .. . ... : ... .. . ... : ... .. . ... ... : ... .. . ... ... : ... .. . ... ... : ... .. 4 ... ...
ROW 2D : ... .. . ... ... ... : ... .. 6 ... ... ... : ... .. . ... : ... .. . ... : ... .. . ... ... : ... .. . ... ... : ... .. . ... ... : ... .. . ... ...
ROW 2E : ... .. 1 ... ... ... : ... .. 5 ... ... ... : ... .. . ... : ... .. . ... : ... .. . ... ... : ... .. . ... ... : ... .. . ... ... : ... .. . ... ...
ROW 2F : ... .. . ... ... ... : ... .. 4 ... ... ... : ... .. . ... : ... .. . ... : ... .. . ... ... : ... .. . ... ... : ... .. . ... ... : ... .. . ... ...
ROW 30 : ... .. . ... ... ... : ... .. . ... ... ... : ... .. . ... : ... .. . ... : ... .. . ... ... : ... .. . ... ... : ... .. . ... ... : ... .. . ... ...
ROW 31 : ... .. 0 ... V00 ... : ... .. . ... ... ... : ... .. . ... : ... .. . ... : ... .. . ... ... : ... .. . ... ... : ... .. . ... ... : ... .. . ... ...
ROW 32 : ... .. . ... ... ... : ... .. 3 ... ... ... : ... .. . ... : ... .. . ... : ... .. . ... ... : ... .. . ... ... : ... .. . ... ... : ... .. . ... ...
ROW 33 : ... .. . ... ... ... : ... .. . ... ... ... : ... .. . ... : ... .. . ... : ... .. . ... ... : ... .. . ... ... : ... .. . ... ... : ... .. . ... ...
ROW 34 : G-4 00 F P80 V01 ... : D#3 00 8 ... ... ... : G#2 00 . ... : D-# 00 D V01 : ... .. . ... ... : D#3 01 9 ... ... : ... .. 9 ... ... : G-2 01 8 ... ...
ROW 35 : ... .. E ... ... ... : ... .. 7 ... ... ... : ... .. . ... : ... .. B ... : ... .. . ... ... : ... .. 8 ... ... : ... .. 8 ... ... : ... .. 6 ... ...
ROW 36 : ... .. D ... ... ... : ... .. . ... ... ... : ... .. . ... : ... .. . ... : ... .. . ... ... : ... .. . ... ... : ... .. . ... ... : ... .. 4 ... ...
ROW 37 : ... .. A ... ... ... : ... .. 6 ... ... ... : ... .. . ... : ... .. A ... : ... .. . ... ... : ... .. . ... ... : ... .. . ... ... : ... .. . ... ...
ROW 38 : ... .. . ... ... ... : ... .. 5 ... ... ... : ... .. . ... : ... .. 8 ... : ... .. . ... ... : ... .. 7 ... ... : ... .. 7 ... ... : ... .. . ... ...
ROW 39 : ... .. . ... ... ... : ... .. 4 ... ... ... : ... .. . ... : ... .. 7 ... : ... .. . ... ... : ... .. . ... ... : ... .. . ... ... : ... .. . ... ...
ROW 3A : ... .. . ... ... ... : ... .. . ... ... ... : ... .. . ... : ... .. 6 ... : ... .. . ... ... : ... .. . ... ... : ... .. . ... ... : ... .. . ... ...
ROW 3B : ... .. . ... ... ... : ... .. . ... ... ... : ... .. . ... : ... .. . ... : ... .. . ... ... : ... .. 6 ... ... : ... .. 6 ... ... : ... .. . ... ...
ROW 3C : ... .. . ... ... ... : ... .. 3 ... ... ... : ... .. . ... : ... .. 5 ... : ... .. . ... ... : ... .. . ... ... : ... .. . ... ... : ... .. . ... ...
ROW 3D : ... .. . ... ... ... : ... .. . ... ... ... : ... .. . ... : ... .. . ... : ... .. . ... ... : ... .. . ... ... : ... .. . ... ... : ... .. . ... ...
ROW 3E : ... .. . ... ... ... : G#2 00 8 ... ... ... : ... .. . ... : ... .. 4 ... : ... .. . ... ... : ... .. 1 ... ... : ... .. 1 ... ... : ... .. . ... ...
ROW 3F : ... .. . ... ... ... : ... .. 7 ... ... ... : ... .. . ... : ... .. . ... : ... .. . ... ... : ... .. . ... ... : ... .. . ... ... : ... .. . ... ...
ROW 40 : ... .. . ... ... ... : ... .. . ... ... ... : ... .. . ... : ... .. 3 ... : ... .. . ... ... : ... .. . ... ... : ... .. . ... ... : ... .. . ... ...
ROW 41 : ... .. . ... ... ... : ... .. 6 ... ... ... : ... .. . ... : ... .. 2 ... : ... .. . ... ... : ... .. . ... ... : ... .. . ... ... : ... .. . ... ...
ROW 42 : ... .. . ... ... ... : ... .. 5 ... ... ... : ... .. . ... : ... .. . ... : ... .. . ... ... : ... .. . ... ... : ... .. . ... ... : ... .. . ... ...
ROW 43 : ... .. . ... ... ... : ... .. 4 ... ... ... : ... .. . ... : ... .. 1 ... : ... .. . ... ... : ... .. . ... ... : ... .. . ... ... : ... .. . ... ...
ROW 44 : ... .. . ... ... ... : ... .. . ... ... ... : ... .. . ... : ... .. 0 ... : ... .. . ... ... : ... .. . ... ... : ... .. . ... ... : ... .. . ... ...
ROW 45 : ... .. . ... ... ... : ... .. . ... ... ... : ... .. . ... : ... .. . ... : ... .. . ... ... : ... .. . ... ... : ... .. . ... ... : ... .. . ... ...
ROW 46 : ... .. . ... ... ... : ... .. 3 ... ... ... : ... .. . ... : ... .. . ... : ... .. . ... ... : ... .. . ... ... : ... .. . ... ... : ... .. . ... ...
ROW 47 : ... .. . ... ... ... : ... .. . ... ... ... : ... .. . ... : ... .. . ... : ... .. . ... ... : ... .. . ... ... : ... .. . ... ... : ... .. . ... ...
ROW 48 : ... .. . ... ... ... : F-2 00 8 ... ... ... : G-4 00 . ... : 9-# 00 A V00 : ... .. . ... ... : A#2 01 9 ... ... : D#3 01 9 ... ... : D#3 01 8 ... ...
ROW 49 : ... .. . ... ... ... : ... .. 7 ... ... ... : ... .. . ... : ... .. 8 ... : ... .. . ... ... : ... .. 8 ... ... : ... .. 8 ... ... : ... .. 6 ... ...
ROW 4A : ... .. . ... ... ... : ... .. . ... ... ... : ... .. . ... : ... .. 4 ... : ... .. . ... ... : ... .. . ... ... : ... .. . ... ... : ... .. 4 ... ...
ROW 4B : ... .. . ... ... ... : ... .. 6 ... ... ... : ... .. . ... : ... .. 2 ... : ... .. . ... ... : ... .. . ... ... : ... .. . ... ... : ... .. . ... ...
ROW 4C : ... .. . ... ... ... : ... .. 5 ... ... ... : ... .. . ... : ... .. 1 ... : ... .. . ... ... : ... .. 7 ... ... : ... .. 7 ... ... : ... .. . ... ...
ROW 4D : ... .. . ... ... ... : ... .. 4 ... ... ... : ... .. . ... : ... .. 0 ... : ... .. . ... ... : ... .. . ... ... : ... .. . ... ... : ... .. . ... ...
ROW 4E : ... .. . ... ... ... : ... .. . ... ... ... : ... .. . ... : ... .. . ... : ... .. . ... ... : ... .. . ... ... : ... .. . ... ... : ... .. . ... ...
ROW 4F : ... .. . ... ... ... : ... .. . ... ... ... : ... .. . ... : ... .. . ... : ... .. . ... ... : ... .. 6 ... ... : ... .. 6 ... ... : ... .. . ... ...
ROW 50 : ... .. . ... ... ... : ... .. 3 ... ... ... : ... .. . ... : ... .. . ... : ... .. . ... ... : ... .. . ... ... : ... .. . ... ... : ... .. . ... ...
ROW 51 : ... .. . ... ... ... : ... .. . ... ... ... : ... .. . ... : ... .. . ... : ... .. . ... ... : ... .. . ... ... : ... .. . ... ... : ... .. . ... ...
ROW 52 : ... .. . ... ... ... : G#2 00 8 ... ... ... : --- .. . ... : ... .. 8 ... : ... .. . ... ... : ... .. 1 ... ... : ... .. 1 ... ... : ... .. . ... ...
ROW 53 : ... .. . ... ... ... : ... .. 7 ... ... ... : ... .. . ... : ... .. 6 ... : ... .. . ... ... : ... .. . ... ... : ... .. . ... ... : ... .. . ... ...
ROW 54 : ... .. . ... ... ... : ... .. . ... ... ... : ... .. . ... : ... .. 3 ... : ... .. . ... ... : ... .. . ... ... : ... .. . ... ... : ... .. . ... ...
ROW 55 : ... .. . ... ... ... : ... .. 6 ... ... ... : ... .. . ... : ... .. 1 ... : ... .. . ... ... : ... .. . ... ... : ... .. . ... ... : ... .. . ... ...
ROW 56 : ... .. . ... ... ... : ... .. 5 ... ... ... : ... .. . ... : ... .. . ... : ... .. . ... ... : ... .. . ... ... : ... .. . ... ... : ... .. . ... ...
ROW 57 : ... .. . ... ... ... : ... .. 4 ... ... ... : ... .. . ... : ... .. 0 ... : ... .. . ... ... : ... .. . ... ... : ... .. . ... ... : ... .. . ... ...
ROW 58 : ... .. 2 ... ... ... : ... .. . ... ... ... : ... .. . ... : ... .. . ... : ... .. . ... ... : ... .. . ... ... : ... .. . ... ... : ... .. . ... ...
ROW 59 : ... .. . ... ... ... : ... .. . ... ... ... : ... .. . ... : ... .. . ... : ... .. . ... ... : ... .. . ... ... : ... .. . ... ... : ... .. . ... ...
ROW 5A : ... .. . ... ... ... : ... .. 3 ... ... ... : ... .. . ... : ... .. . ... : ... .. . ... ... : ... .. . ... ... : ... .. . ... ... : ... .. . ... ...
ROW 5B : ... .. 1 ... ... ... : ... .. . ... ... ... : ... .. . ... : ... .. . ... : ... .. . ... ... : ... .. . ... ... : ... .. . ... ... : ... .. . ... ...
ROW 5C : F-4 00 F ... ... ... : C#3 00 8 ... ... ... : C#2 00 . ... : ... .. F ... : ... .. . ... ... : G#2 01 9 ... ... : F-3 01 9 ... ... : C#3 01 8 ... ...
ROW 5D : ... .. E ... ... ... : ... .. 7 ... ... ... : ... .. . ... : ... .. C ... : ... .. . ... ... : ... .. 8 ... ... : ... .. 8 ... ... : ... .. 6 ... ...
ROW 5E : ... .. D ... ... ... : ... .. . ... ... ... : ... .. . ... : ... .. 6 ... : ... .. . ... ... : ... .. . ... ... : ... .. . ... ... : ... .. 4 ... ...
ROW 5F : ... .. A ... ... ... : ... .. 6 ... ... ... : ... .. . ... : ... .. 3 ... : ... .. . ... ... : ... .. . ... ... : ... .. . ... ... : ... .. . ... ...
ROW 60 : ... .. . ... ... ... : ... .. 5 ... ... ... : ... .. . ... : ... .. 2 ... : ... .. . ... ... : ... .. 7 ... ... : ... .. 7 ... ... : ... .. . ... ...
ROW 61 : ... .. 8 ... ... ... : ... .. 4 ... ... ... : ... .. . ... : ... .. 0 ... : ... .. . ... ... : ... .. . ... ... : ... .. . ... ... : ... .. . ... ...
ROW 62 : ... .. . ... ... ... : ... .. . ... ... ... : ... .. . ... : ... .. . ... : ... .. . ... ... : ... .. . ... ... : ... .. . ... ... : ... .. . ... ...
ROW 63 : ... .. . ... ... ... : ... .. . ... ... ... : ... .. . ... : ... .. . ... : ... .. . ... ... : ... .. 6 ... ... : ... .. 6 ... ... : ... .. . ... ...
ROW 64 : ... .. . ... ... ... : ... .. 3 ... ... ... : ... .. . ... : ... .. . ... : ... .. . ... ... : ... .. . ... ... : ... .. . ... ... : ... .. . ... ...
ROW 65 : ... .. . ... ... ... : ... .. . ... ... ... : ... .. . ... : ... .. . ... : ... .. . ... ... : ... .. . ... ... : ... .. . ... ... : ... .. . ... ...
ROW 66 : ... .. . ... ... ... : B-2 00 8 ... ... ... : ... .. . ... : ... .. . ... : ... .. . ... ... : ... .. 1 ... ... : ... .. 1 ... ... : B-2 01 8 ... ...
ROW 67 : ... .. . ... ... ... : ... .. 7 ... ... ... : ... .. . ... : ... .. . ... : ... .. . ... ... : ... .. . ... ... : ... .. . ... ... : ... .. 6 ... ...
ROW 68 : ... .. . ... ... ... : ... .. . ... ... ... : ... .. . ... : ... .. . ... : ... .. . ... ... : ... .. . ... ... : ... .. . ... ... : ... .. 4 ... ...
ROW 69 : ... .. . ... ... ... : ... .. 6 ... ... ... : ... .. . ... : ... .. . ... : ... .. . ... ... : ... .. . ... ... : ... .. . ... ... : ... .. . ... ...
ROW 6A : ... .. . ... ... ... : ... .. 5 ... ... ... : ... .. . ... : ... .. . ... : ... .. . ... ... : ... .. . ... ... : ... .. . ... ... : ... .. . ... ...
ROW 6B : ... .. 6 ... ... ... : ... .. 4 ... ... ... : ... .. . ... : ... .. . ... : ... .. . ... ... : ... .. . ... ... : ... .. . ... ... : ... .. . ... ...
ROW 6C : ... .. . ... ... ... : ... .. . ... ... ... : ... .. . ... : ... .. . ... : ... .. . ... ... : ... .. . ... ... : ... .. . ... ... : ... .. . ... ...
ROW 6D : ... .. . ... ... ... : ... .. . ... ... ... : ... .. . ... : ... .. . ... : ... .. . ... ... : ... .. . ... ... : ... .. . ... ... : ... .. . ... ...
ROW 6E : ... .. . ... ... ... : ... .. 3 ... ... ... : ... .. . ... : ... .. . ... : ... .. . ... ... : ... .. . ... ... : ... .. . ... ... : ... .. . ... ...
ROW 6F : ... .. . ... ... ... : ... .. . ... ... ... : ... .. . ... : ... .. . ... : ... .. . ... ... : ... .. . ... ... : ... .. . ... ... : ... .. . ... ...
ROW 70 : ... .. . ... ... ... : F-2 00 8 ... ... ... : F-4 00 . ... : D-# 00 8 ... : ... .. . ... ... : B-2 01 9 ... ... : ... .. 9 ... ... : C#3 01 8 ... ...
ROW 71 : ... .. . ... ... ... : ... .. 7 ... ... ... : ... .. . ... : ... .. 7 ... : ... .. . ... ... : ... .. 8 ... ... : ... .. 8 ... ... : ... .. 6 ... ...
ROW 72 : ... .. . ... ... ... : ... .. . ... ... ... : ... .. . ... : ... .. . ... : ... .. . ... ... : ... .. . ... ... : ... .. . ... ... : ... .. 4 ... ...
ROW 73 : ... .. . ... ... ... : ... .. 6 ... ... ... : ... .. . ... : ... .. 6 ... : ... .. . ... ... : ... .. . ... ... : ... .. . ... ... : ... .. . ... ...
ROW 74 : ... .. . ... ... ... : ... .. 5 ... ... ... : ... .. . ... : ... .. 5 ... : ... .. . ... ... : ... .. 7 ... ... : ... .. 7 ... ... : ... .. . ... ...
ROW 75 : ... .. 5 ... ... ... : ... .. 4 ... ... ... : ... .. . ... : ... .. 4 ... : ... .. . ... ... : ... .. . ... ... : ... .. . ... ... : ... .. . ... ...
ROW 76 : ... .. . ... ... ... : ... .. . ... ... ... : ... .. . ... : ... .. . ... : ... .. . ... ... : ... .. . ... ... : ... .. . ... ... : ... .. . ... ...
ROW 77 : ... .. . ... ... ... : ... .. . ... ... ... : ... .. . ... : ... .. . ... : ... .. . ... ... : ... .. 6 ... ... : ... .. 6 ... ... : ... .. . ... ...
ROW 78 : ... .. . ... ... ... : ... .. 3 ... ... ... : ... .. . ... : ... .. 3 ... : ... .. . ... ... : ... .. . ... ... : ... .. . ... ... : ... .. . ... ...
ROW 79 : ... .. . ... ... ... : ... .. . ... ... ... : ... .. . ... : ... .. . ... : ... .. . ... ... : ... .. . ... ... : ... .. . ... ... : ... .. . ... ...
ROW 7A : ... .. . ... ... ... : G#2 00 8 ... ... ... : --- .. . ... : ... .. 2 ... : ... .. . ... ... : ... .. 1 ... ... : ... .. 1 ... ... : F-3 01 8 ... ...
ROW 7B : ... .. . ... ... ... : ... .. 7 ... ... ... : ... .. . ... : ... .. . ... : ... .. . ... ... : ... .. . ... ... : ... .. . ... ... : ... .. 6 ... ...
ROW 7C : ... .. . ... ... ... : ... .. . ... ... ... : ... .. . ... : ... .. . ... : ... .. . ... ... : ... .. . ... ... : ... .. . ... ... : ... .. 4 ... ...
ROW 7D : ... .. . ... ... ... : ... .. 6 ... ... ... : ... .. . ... : ... .. 1 ... : ... .. . ... ... : ... .. . ... ... : ... .. . ... ... : ... .. . ... ...
ROW 7E : ... .. . ... ... ... : ... .. 5 ... ... ... : ... .. . ... : ... .. . ... : ... .. . ... ... : ... .. . ... ... : ... .. . ... ... : ... .. . ... ...
ROW 7F : ... .. 6 ... ... ... : ... .. 4 ... ... ... : ... .. . ... : ... .. . ... : ... .. . ... ... : ... .. . ... ... : ... .. . ... ... : ... .. . ... ...
ROW 80 : ... .. . ... ... ... : ... .. . ... ... ... : ... .. . ... : ... .. 0 ... : ... .. . ... ... : ... .. . ... ... : ... .. . ... ... : ... .. . ... ...
ROW 81 : ... .. . ... ... ... : ... .. . ... ... ... : ... .. . ... : ... .. . ... : ... .. . ... ... : ... .. . ... ... : ... .. . ... ... : ... .. . ... ...
ROW 82 : ... .. . ... ... ... : ... .. 3 ... ... ... : ... .. . ... : ... .. . ... : ... .. . ... ... : ... .. . ... ... : ... .. . ... ... : ... .. . ... ...
ROW 83 : ... .. . ... ... ... : ... .. . ... ... ... : ... .. . ... : ... .. . ... : ... .. . ... ... : ... .. . ... ... : ... .. . ... ... : ... .. . ... ...
ROW 84 : ... .. . P82 ... ... : B-2 00 8 ... ... ... : G#2 00 . ... : ... .. D ... : ... .. . ... ... : D#3 01 9 ... ... : ... .. 9 ... ... : G-3 01 8 ... ...
ROW 85 : ... .. . P83 ... ... : ... .. 7 ... ... ... : ... .. . ... : ... .. B ... : ... .. . ... ... : ... .. 8 ... ... : ... .. 8 ... ... : ... .. 6 ... ...
ROW 86 : ... .. . ... ... ... : ... .. . ... ... ... : ... .. . ... : ... .. . ... : ... .. . ... ... : ... .. . ... ... : ... .. . ... ... : ... .. 4 ... ...
ROW 87 : ... .. . P81 ... ... : ... .. 6 ... ... ... : ... .. . ... : ... .. A ... : ... .. . ... ... : ... .. . ... ... : ... .. . ... ... : ... .. . ... ...
ROW 88 : ... .. . P7F ... ... : ... .. 5 ... ... ... : ... .. . ... : ... .. 8 ... : ... .. . ... ... : ... .. 7 ... ... : ... .. 7 ... ... : ... .. . ... ...
ROW 89 : ... .. . P7D ... ... : ... .. 4 ... ... ... : ... .. . ... : ... .. 7 ... : ... .. . ... ... : ... .. . ... ... : ... .. . ... ... : ... .. . ... ...
ROW 8A : ... .. . ... ... ... : ... .. . ... ... ... : ... .. . ... : ... .. 6 ... : ... .. . ... ... : ... .. . ... ... : ... .. . ... ... : ... .. . ... ...
ROW 8B : ... .. . P7E ... ... : ... .. . ... ... ... : ... .. . ... : ... .. . ... : ... .. . ... ... : ... .. 6 ... ... : ... .. 6 ... ... : ... .. . ... ...
ROW 8C : ... .. . P80 ... ... : ... .. 3 ... ... ... : ... .. . ... : ... .. 5 ... : ... .. . ... ... : ... .. . ... ... : ... .. . ... ... : ... .. . ... ...
ROW 8D : ... .. . P82 ... ... : ... .. . ... ... ... : ... .. . ... : ... .. . ... : ... .. . ... ... : ... .. . ... ... : ... .. . ... ... : ... .. . ... ...
ROW 8E : ... .. 7 P83 ... ... : G#2 00 8 ... ... ... : ... .. . ... : ... .. 4 ... : ... .. . ... ... : ... .. 1 ... ... : ... .. 1 ... ... : G#3 01 8 ... ...
ROW 8F : ... .. 1 ... ... ... : ... .. 7 ... ... ... : ... .. . ... : ... .. . ... : ... .. . ... ... : ... .. . ... ... : ... .. . ... ... : ... .. 6 ... ...
ROW 90 : ... .. . P81 ... ... : ... .. . ... ... ... : ... .. . ... : ... .. 3 ... : ... .. . ... ... : ... .. . ... ... : ... .. . ... ... : ... .. 4 ... ...
ROW 91 : ... .. . P80 ... ... : ... .. 6 ... ... ... : ... .. . ... : ... .. 2 ... : ... .. . ... ... : ... .. . ... ... : ... .. . ... ... : ... .. . ... ...
ROW 92 : ... .. . P7D ... ... : ... .. 5 ... ... ... : ... .. . ... : ... .. . ... : ... .. . ... ... : ... .. . ... ... : ... .. . ... ... : ... .. . ... ...
ROW 93 : ... .. . ... ... ... : ... .. 4 ... ... ... : ... .. . ... : ... .. 1 ... : ... .. . ... ... : ... .. . ... ... : ... .. . ... ... : ... .. . ... ...
ROW 94 : ... .. . P7E ... ... : ... .. . ... ... ... : ... .. . ... : ... .. 0 ... : ... .. . ... ... : ... .. . ... ... : ... .. . ... ... : ... .. . ... ...
ROW 95 : ... .. 0 ... V00 ... : ... .. . ... ... ... : ... .. . ... : ... .. . ... : ... .. . ... ... : ... .. . ... ... : ... .. . ... ... : ... .. . ... ...
ROW 96 : ... .. . ... ... ... : ... .. 3 ... ... ... : ... .. . ... : ... .. . ... : ... .. . ... ... : ... .. . ... ... : ... .. . ... ... : ... .. . ... ...
ROW 97 : ... .. . ... ... ... : ... .. . ... ... ... : ... .. . ... : ... .. . ... : ... .. . ... ... : ... .. . ... ... : ... .. . ... ... : ... .. . ... ...
ROW 98 : G-4 00 C P80 V01 ... : F-2 00 8 ... ... ... : B-3 00 . ... : 9-# 00 A ... : ... .. . ... ... : B-2 01 9 ... ... : G-3 01 9 ... ... : B-3 01 8 ... ...
ROW 99 : ... .. B ... ... ... : ... .. 7 ... ... ... : ... .. . ... : ... .. 8 ... : ... .. . ... ... : ... .. 8 ... ... : ... .. 8 ... ... : ... .. 6 ... ...
ROW 9A : ... .. A ... ... ... : ... .. . ... ... ... : ... .. . ... : ... .. 4 ... : ... .. . ... ... : ... .. . ... ... : ... .. . ... ... : ... .. 4 ... ...
ROW 9B : ... .. 8 ... ... ... : ... .. 6 ... ... ... : ... .. . ... : ... .. 2 ... : ... .. . ... ... : ... .. . ... ... : ... .. . ... ... : ... .. . ... ...
ROW 9C : ... .. . ... ... ... : ... .. 5 ... ... ... : ... .. . ... : ... .. 1 ... : ... .. . ... ... : ... .. 7 ... ... : ... .. 7 ... ... : ... .. . ... ...
ROW 9D : ... .. . ... ... ... : ... .. 4 ... ... ... : ... .. . ... : ... .. 0 ... : ... .. . ... ... : ... .. . ... ... : ... .. . ... ... : ... .. . ... ...
ROW 9E : ... .. . ... ... ... : ... .. . ... ... ... : ... .. . ... : ... .. . ... : ... .. . ... ... : ... .. . ... ... : ... .. . ... ... : ... .. . ... ...
ROW 9F : ... .. . ... ... ... : ... .. . ... ... ... : ... .. . ... : ... .. 8 ... : ... .. . ... ... : ... .. 6 ... ... : ... .. 6 ... ... : ... .. . ... ...
ROW A0 : ... .. . ... ... ... : ... .. 3 ... ... ... : ... .. . ... : ... .. 6 ... : ... .. . ... ... : ... .. . ... ... : ... .. . ... ... : ... .. . ... ...
ROW A1 : ... .. . ... ... ... : ... .. . ... ... ... : ... .. . ... : ... .. 3 ... : ... .. . ... ... : ... .. . ... ... : ... .. . ... ... : ... .. . ... ...
ROW A2 : F-4 00 E ... ... ... : G#2 00 8 ... ... ... : --- .. . ... : ... .. 1 ... : ... .. . ... ... : ... .. 1 ... ... : ... .. 1 ... ... : C#4 01 8 ... ...
ROW A3 : ... .. D ... ... ... : ... .. 7 ... ... ... : ... .. . ... : ... .. . ... : ... .. . ... ... : ... .. . ... ... : ... .. . ... ... : ... .. 6 ... ...
ROW A4 : ... .. C ... ... ... : ... .. . ... ... ... : ... .. . ... : ... .. 0 ... : ... .. . ... ... : ... .. . ... ... : ... .. . ... ... : ... .. 4 ... ...
ROW A5 : ... .. 9 ... ... ... : ... .. 6 ... ... ... : ... .. . ... : ... .. C ... : ... .. . ... ... : ... .. . ... ... : ... .. . ... ... : ... .. . ... ...
ROW A6 : ... .. . ... ... ... : ... .. 5 ... ... ... : ... .. . ... : ... .. 9 ... : ... .. . ... ... : ... .. . ... ... : ... .. . ... ... : ... .. . ... ...
ROW A7 : ... .. A ... ... ... : ... .. 4 ... ... ... : ... .. . ... : ... .. 4 ... : ... .. . ... ... : ... .. . ... ... : ... .. . ... ... : ... .. . ... ...
ROW A8 : ... .. 2 ... ... ... : ... .. . ... ... ... : ... .. . ... : ... .. 2 ... : ... .. . ... ... : ... .. . ... ... : ... .. . ... ... : ... .. 2 ... ...
ROW A9 : ... .. . ... ... ... : ... .. . ... ... ... : ... .. . ... : ... .. 1 ... : ... .. . ... ... : ... .. . ... ... : ... .. . ... ... : ... .. . ... ...
ROW AA : ... .. . ... ... ... : ... .. 3 ... ... ... : ... .. . ... : ... .. 0 ... : ... .. . ... ... : ... .. . ... ... : ... .. . ... ... : ... .. 1 ... ...
ROW AB : ... .. 1 ... ... ... : ... .. . ... ... ... : ... .. . ... : ... .. . ... : ... .. . ... ... : ... .. . ... ... : ... .. . ... ... : ... .. . ... ...
ROW AC : D#4 00 F ... ... ... : B-2 00 8 ... ... ... : G-2 00 . ... : ... .. F ... : ... .. . ... ... : ... .. 9 ... ... : F-3 01 9 ... ... : F-4 01 8 ... ...
ROW AD : ... .. E ... ... ... : ... .. 7 ... ... ... : ... .. . ... : ... .. C ... : ... .. . ... ... : ... .. 8 ... ... : ... .. 8 ... ... : ... .. 6 ... ...
ROW AE : ... .. D ... ... ... : ... .. . ... ... ... : ... .. . ... : ... .. 6 ... : ... .. . ... ... : ... .. . ... ... : ... .. . ... ... : ... .. 4 ... ...
ROW AF : ... .. A ... ... ... : ... .. 6 ... ... ... : ... .. . ... : ... .. 3 ... : ... .. . ... ... : ... .. . ... ... : ... .. . ... ... : ... .. . ... ...
ROW B0 : ... .. . ... ... ... : ... .. 5 ... ... ... : ... .. . ... : ... .. 2 ... : ... .. . ... ... : ... .. 7 ... ... : ... .. 7 ... ... : ... .. . ... ...
ROW B1 : ... .. . ... ... ... : ... .. 4 ... ... ... : ... .. . ... : ... .. 0 ... : ... .. . ... ... : ... .. . ... ... : ... .. . ... ... : ... .. . ... ...
ROW B2 : ... .. . ... ... ... : ... .. . ... ... ... : ... .. . ... : ... .. . ... : ... .. . ... ... : ... .. . ... ... : ... .. . ... ... : ... .. . ... ...
ROW B3 : ... .. . ... ... ... : ... .. . ... ... ... : ... .. . ... : ... .. . ... : ... .. . ... ... : ... .. 6 ... ... : ... .. 6 ... ... : ... .. . ... ...
ROW B4 : ... .. . ... ... ... : ... .. 3 ... ... ... : ... .. . ... : ... .. . ... : ... .. . ... ... : ... .. . ... ... : ... .. . ... ... : ... .. . ... ...
ROW B5 : ... .. . ... ... ... : ... .. . ... ... ... : ... .. . ... : ... .. . ... : ... .. . ... ... : ... .. . ... ... : ... .. . ... ... : ... .. . ... ...
ROW B6 : ... .. . ... ... ... : G-2 00 8 ... ... ... : ... .. . ... : ... .. . ... : ... .. . ... ... : ... .. 1 ... ... : ... .. 1 ... ... : ... .. . ... ...
ROW B7 : ... .. . ... ... ... : ... .. 7 ... ... ... : ... .. . ... : ... .. . ... : ... .. . ... ... : ... .. . ... ... : ... .. . ... ... : ... .. . ... ...
ROW B8 : ... .. . ... ... ... : ... .. . ... ... ... : ... .. . ... : ... .. . ... : ... .. . ... ... : ... .. . ... ... : ... .. . ... ... : ... .. . ... ...
ROW B9 : ... .. . ... ... ... : ... .. 6 ... ... ... : ... .. . ... : ... .. . ... : ... .. . ... ... : ... .. . ... ... : ... .. . ... ... : ... .. . ... ...
ROW BA : ... .. . ... ... ... : ... .. 5 ... ... ... : ... .. . ... : ... .. . ... : ... .. . ... ... : ... .. . ... ... : ... .. . ... ... : ... .. . ... ...
ROW BB : ... .. . ... ... ... : ... .. 4 ... ... ... : ... .. . ... : ... .. . ... : ... .. . ... ... : ... .. . ... ... : ... .. . ... ... : ... .. . ... ...
ROW BC : ... .. . ... ... ... : ... .. . ... ... ... : ... .. . ... : ... .. . ... : ... .. . ... ... : ... .. . ... ... : ... .. . ... ... : ... .. . ... ...
ROW BD : ... .. . ... ... ... : ... .. . ... ... ... : ... .. . ... : ... .. . ... : ... .. . ... ... : ... .. . ... ... : ... .. . ... ... : ... .. . ... ...
ROW BE : ... .. . ... ... ... : ... .. 3 ... ... ... : ... .. . ... : ... .. . ... : ... .. . ... ... : ... .. . ... ... : ... .. . ... ... : ... .. . ... ...
ROW BF : ... .. . ... ... ... : ... .. . ... ... ... : ... .. . ... : ... .. . ... : ... .. . ... ... : ... .. . ... ... : ... .. . ... ... : ... .. . ... ...
ROW C0 : B-3 00 F ... ... ... : F-2 00 8 ... ... ... : B-3 00 . ... : ... .. . ... : ... .. . ... ... : G-2 01 9 ... ... : D-3 01 9 ... ... : B-3 01 8 ... ...
ROW C1 : ... .. E ... ... ... : ... .. 7 ... ... ... : ... .. . ... : ... .. . ... : ... .. . ... ... : ... .. 8 ... ... : ... .. 8 ... ... : ... .. 6 ... ...
ROW C2 : ... .. D ... ... ... : ... .. . ... ... ... : ... .. . ... : ... .. . ... : ... .. . ... ... : ... .. . ... ... : ... .. . ... ... : ... .. 4 ... ...
ROW C3 : ... .. A ... ... ... : ... .. 6 ... ... ... : ... .. . ... : ... .. . ... : ... .. . ... ... : ... .. . ... ... : ... .. . ... ... : ... .. . ... ...
ROW C4 : ... .. . ... ... ... : ... .. 5 ... ... ... : ... .. . ... : ... .. . ... : ... .. . ... ... : ... .. 7 ... ... : ... .. 7 ... ... : ... .. . ... ...
ROW C5 : ... .. . ... ... ... : ... .. 4 ... ... ... : ... .. . ... : ... .. . ... : ... .. . ... ... : ... .. . ... ... : ... .. . ... ... : ... .. . ... ...
ROW C6 : ... .. . ... ... ... : ... .. . ... ... ... : ... .. . ... : ... .. . ... : ... .. . ... ... : ... .. . ... ... : ... .. . ... ... : ... .. . ... ...
ROW C7 : ... .. . ... ... ... : ... .. . ... ... ... : ... .. . ... : ... .. . ... : ... .. . ... ... : ... .. 6 ... ... : ... .. 6 ... ... : ... .. . ... ...
ROW C8 : ... .. . ... ... ... : ... .. 3 ... ... ... : ... .. . ... : ... .. . ... : ... .. . ... ... : ... .. . ... ... : ... .. . ... ... : ... .. . ... ...
ROW C9 : ... .. . ... ... ... : ... .. . ... ... ... : ... .. . ... : ... .. . ... : ... .. . ... ... : ... .. . ... ... : ... .. . ... ... : ... .. . ... ...
ROW CA : ... .. . ... ... ... : G-2 00 8 ... ... ... : --- .. . ... : ... .. . ... : ... .. . ... ... : ... .. 1 ... ... : ... .. 1 ... ... : ... .. . ... ...
ROW CB : ... .. 2 ... ... ... : ... .. 7 ... ... ... : ... .. . ... : ... .. . ... : ... .. . ... ... : ... .. . ... ... : ... .. . ... ... : ... .. 2 ... ...
ROW CC : ... .. . ... ... ... : ... .. . ... ... ... : ... .. . ... : ... .. . ... : ... .. . ... ... : ... .. . ... ... : ... .. . ... ... : ... .. . ... ...
ROW CD : ... .. . ... ... ... : ... .. 6 ... ... ... : ... .. . ... : ... .. . ... : ... .. . ... ... : ... .. . ... ... : ... .. . ... ... : ... .. 1 ... ...
ROW CE : ... .. 1 ... ... ... : ... .. 5 ... ... ... : ... .. . ... : ... .. . ... : ... .. . ... ... : ... .. . ... ... : ... .. . ... ... : ... .. . ... ...
ROW CF : ... .. . ... ... ... : ... .. 4 ... ... ... : ... .. . ... : ... .. . ... : ... .. . ... ... : ... .. . ... ... : ... .. . ... ... : ... .. . ... ...
ROW D0 : ... .. . ... ... ... : ... .. . ... ... ... : ... .. . ... : ... .. . ... : ... .. . ... ... : ... .. . ... ... : ... .. . ... ... : ... .. . ... ...
ROW D1 : ... .. 0 ... V00 ... : ... .. . ... ... ... : ... .. . ... : ... .. . ... : ... .. . ... ... : ... .. . ... ... : ... .. . ... ... : ... .. . ... ...
ROW D2 : ... .. . ... ... ... : ... .. 3 ... ... ... : ... .. . ... : ... .. . ... : ... .. . ... ... : ... .. . ... ... : ... .. . ... ... : ... .. . ... ...
ROW D3 : ... .. . ... ... ... : ... .. . ... ... ... : ... .. . ... : ... .. . ... : ... .. . ... ... : ... .. . ... ... : ... .. . ... ... : ... .. . ... ...
ROW D4 : D-4 00 F P80 V01 ... : ... .. 8 ... ... ... : C-2 00 . ... : D-# 00 D V01 : ... .. . ... ... : ... .. 9 ... ... : G-3 01 9 ... ... : F-3 01 8 ... ...
ROW D5 : ... .. E ... ... ... : ... .. 7 ... ... ... : ... .. . ... : ... .. B ... : ... .. . ... ... : ... .. 8 ... ... : ... .. 8 ... ... : ... .. 6 ... ...
ROW D6 : ... .. D ... ... ... : ... .. . ... ... ... : ... .. . ... : ... .. . ... : ... .. . ... ... : ... .. . ... ... : ... .. . ... ... : ... .. 4 ... ...
ROW D7 : ... .. A ... ... ... : ... .. 6 ... ... ... : ... .. . ... : ... .. A ... : ... .. . ... ... : ... .. . ... ... : ... .. . ... ... : ... .. . ... ...
ROW D8 : ... .. . ... ... ... : ... .. 5 ... ... ... : ... .. . ... : ... .. 8 ... : ... .. . ... ... : ... .. 7 ... ... : ... .. 7 ... ... : ... .. . ... ...
ROW D9 : ... .. . ... ... ... : ... .. 4 ... ... ... : ... .. . ... : ... .. 7 ... : ... .. . ... ... : ... .. . ... ... : ... .. . ... ... : ... .. . ... ...
ROW DA : ... .. . ... ... ... : ... .. . ... ... ... : ... .. . ... : ... .. 6 ... : ... .. . ... ... : ... .. . ... ... : ... .. . ... ... : ... .. . ... ...
ROW DB : ... .. . ... ... ... : ... .. . ... ... ... : ... .. . ... : ... .. . ... : ... .. . ... ... : ... .. 6 ... ... : ... .. 6 ... ... : ... .. . ... ...
ROW DC : ... .. . ... ... ... : ... .. 3 ... ... ... : ... .. . ... : ... .. 5 ... : ... .. . ... ... : ... .. . ... ... : ... .. . ... ... : ... .. . ... ...
ROW DD : ... .. . ... ... ... : ... .. . ... ... ... : ... .. . ... : ... .. . ... : ... .. . ... ... : ... .. . ... ... : ... .. . ... ... : ... .. . ... ...
ROW DE : ... .. . ... ... ... : B-2 00 8 ... ... ... : ... .. . ... : ... .. 4 ... : ... .. . ... ... : ... .. 1 ... ... : ... .. 1 ... ... : ... .. . ... ...
ROW DF : ... .. . ... ... ... : ... .. 7 ... ... ... : ... .. . ... : ... .. . ... : ... .. . ... ... : ... .. . ... ... : ... .. . ... ... : ... .. . ... ...
ROW E0 : ... .. . ... ... ... : ... .. . ... ... ... : ... .. . ... : ... .. 3 ... : ... .. . ... ... : ... .. . ... ... : ... .. . ... ... : ... .. . ... ...
ROW E1 : ... .. . ... ... ... : ... .. 6 ... ... ... : ... .. . ... : ... .. 2 ... : ... .. . ... ... : ... .. . ... ... : ... .. . ... ... : ... .. . ... ...
ROW E2 : ... .. . ... ... ... : ... .. 5 ... ... ... : ... .. . ... : ... .. . ... : ... .. . ... ... : ... .. . ... ... : ... .. . ... ... : ... .. . ... ...
ROW E3 : ... .. . ... ... ... : ... .. 4 ... ... ... : ... .. . ... : ... .. 1 ... : ... .. . ... ... : ... .. . ... ... : ... .. . ... ... : ... .. . ... ...
ROW E4 : ... .. . ... ... ... : ... .. . ... ... ... : ... .. . ... : ... .. 0 ... : ... .. . ... ... : ... .. . ... ... : ... .. . ... ... : ... .. . ... ...
ROW E5 : ... .. . ... ... ... : ... .. . ... ... ... : ... .. . ... : ... .. . ... : ... .. . ... ... : ... .. . ... ... : ... .. . ... ... : ... .. . ... ...
ROW E6 : ... .. . ... ... ... : ... .. 3 ... ... ... : ... .. . ... : ... .. . ... : ... .. . ... ... : ... .. . ... ... : ... .. . ... ... : ... .. . ... ...
ROW E7 : ... .. . ... ... ... : ... .. . ... ... ... : ... .. . ... : ... .. . ... : ... .. . ... ... : ... .. . ... ... : ... .. . ... ... : ... .. . ... ...
ROW E8 : ... .. . ... ... ... : C-3 00 8 ... ... ... : D-4 00 . ... : 9-# 00 A V00 : ... .. . ... ... : D-3 01 9 ... ... : F-3 01 9 ... ... : ... .. . ... ...
ROW E9 : ... .. . ... ... ... : ... .. 7 ... ... ... : ... .. . ... : ... .. 8 ... : ... .. . ... ... : ... .. 8 ... ... : ... .. 8 ... ... : ... .. . ... ...
ROW EA : ... .. . ... ... ... : ... .. . ... ... ... : ... .. . ... : ... .. 4 ... : ... .. . ... ... : ... .. . ... ... : ... .. . ... ... : ... .. . ... ...
ROW EB : ... .. . ... ... ... : ... .. 6 ... ... ... : ... .. . ... : ... .. 2 ... : ... .. . ... ... : ... .. . ... ... : ... .. . ... ... : ... .. . ... ...
ROW EC : ... .. . ... ... ... : ... .. 5 ... ... ... : ... .. . ... : ... .. 1 ... : ... .. . ... ... : ... .. 7 ... ... : ... .. 7 ... ... : ... .. . ... ...
ROW ED : ... .. . ... ... ... : ... .. 4 ... ... ... : ... .. . ... : ... .. 0 ... : ... .. . ... ... : ... .. . ... ... : ... .. . ... ... : ... .. . ... ...
ROW EE : ... .. . ... ... ... : ... .. . ... ... ... : ... .. . ... : ... .. . ... : ... .. . ... ... : ... .. . ... ... : ... .. . ... ... : ... .. . ... ...
ROW EF : ... .. . ... ... ... : ... .. . ... ... ... : ... .. . ... : ... .. . ... : ... .. . ... ... : ... .. 6 ... ... : ... .. 6 ... ... : ... .. . ... ...
ROW F0 : ... .. . ... ... ... : ... .. 3 ... ... ... : ... .. . ... : ... .. . ... : ... .. . ... ... : ... .. . ... ... : ... .. . ... ... : ... .. . ... ...
ROW F1 : ... .. . ... ... ... : ... .. . ... ... ... : ... .. . ... : ... .. . ... : ... .. . ... ... : ... .. . ... ... : ... .. . ... ... : ... .. . ... ...
ROW F2 : ... .. . ... ... ... : D-3 00 8 ... ... ... : --- .. . ... : ... .. 8 ... : ... .. . ... ... : ... .. 1 ... ... : ... .. 1 ... ... : ... .. . ... ...
ROW F3 : ... .. . ... ... ... : ... .. 7 ... ... ... : ... .. . ... : ... .. 6 ... : ... .. . ... ... : ... .. . ... ... : ... .. . ... ... : ... .. . ... ...
ROW F4 : ... .. . ... ... ... : ... .. . ... ... ... : ... .. . ... : ... .. 3 ... : ... .. . ... ... : ... .. . ... ... : ... .. . ... ... : ... .. . ... ...
ROW F5 : ... .. . ... ... ... : ... .. 6 ... ... ... : ... .. . ... : ... .. 1 ... : ... .. . ... ... : ... .. . ... ... : ... .. . ... ... : ... .. . ... ...
ROW F6 : ... .. . ... ... ... : ... .. 5 ... ... ... : ... .. . ... : ... .. . ... : ... .. . ... ... : ... .. . ... ... : ... .. . ... ... : ... .. . ... ...
ROW F7 : ... .. . ... ... ... : ... .. 4 ... ... ... : ... .. . ... : ... .. 0 ... : ... .. . ... ... : ... .. . ... ... : ... .. . ... ... : ... .. . ... ...
ROW F8 : ... .. . ... ... ... : ... .. . ... ... ... : ... .. . ... : ... .. . ... : ... .. . ... ... : ... .. . ... ... : ... .. . ... ... : ... .. . ... ...
ROW F9 : ... .. . ... ... ... : ... .. . ... ... ... : ... .. . ... : ... .. . ... : ... .. . ... ... : ... .. . ... ... : ... .. . ... ... : ... .. . ... ...
ROW FA : ... .. . ... ... ... : ... .. 3 ... ... ... : ... .. . ... : ... .. . ... : ... .. . ... ... : ... .. . ... ... : ... .. . ... ... : ... .. . ... ...
ROW FB : ... .. . ... ... ... : ... .. . ... ... ... : ... .. . ... : ... .. . ... : ... .. . ... ... : ... .. . ... ... : ... .. . ... ... : ... .. . ... ...
ROW FC : C-4 00 F ... ... ... : B-2 00 8 ... ... ... : G-2 00 . ... : ... .. F ... : ... .. . ... ... : B-2 01 9 ... ... : D-3 01 9 ... ... : D#3 01 8 ... ...
ROW FD : ... .. E ... ... ... : ... .. 7 ... ... ... : ... .. . ... : ... .. C ... : ... .. . ... ... : ... .. 8 ... ... : ... .. 8 ... ... : ... .. 6 ... ...
ROW FE : ... .. D ... ... ... : ... .. . ... ... ... : ... .. . ... : ... .. 6 ... : ... .. . ... ... : ... .. . ... ... : ... .. . ... ... : ... .. 4 ... ...
ROW FF : ... .. A ... ... ... : ... .. 6 ... ... ... : ... .. . ... : ... .. 3 ... : ... .. . ... ... : ... .. . ... ... : ... .. . ... ... : ... .. . ... ...

PATTERN 13
ROW 00 : ... .. . ... ... ... : ... .. 5 ... ... ... : ... .. . ... : ... .. 2 ... : ... .. . ... ... : ... .. 7 ... ... : ... .. 7 ... ... : ... .. . ... ...
ROW 01 : ... .. 8 ... ... ... : ... .. 4 ... ... ... : ... .. . ... : ... .. 0 ... : ... .. . ... ... : ... .. . ... ... : ... .. . ... ... : ... .. . ... ...
ROW 02 : ... .. . ... ... ... : ... .. . ... ... ... : ... .. . ... : ... .. . ... : ... .. . ... ... : ... .. . ... ... : ... .. . ... ... : ... .. . ... ...
ROW 03 : ... .. . ... ... ... : ... .. . ... ... ... : ... .. . ... : ... .. . ... : ... .. . ... ... : ... .. 6 ... ... : ... .. 6 ... ... : ... .. . ... ...
ROW 04 : ... .. . ... ... ... : ... .. 3 ... ... ... : ... .. . ... : ... .. . ... : ... .. . ... ... : ... .. . ... ... : ... .. . ... ... : ... .. . ... ...
ROW 05 : ... .. . ... ... ... : ... .. . ... ... ... : ... .. . ... : ... .. . ... : ... .. . ... ... : ... .. . ... ... : ... .. . ... ... : ... .. . ... ...
ROW 06 : ... .. . ... ... ... : C-3 00 8 ... ... ... : ... .. . ... : ... .. . ... : ... .. . ... ... : ... .. 1 ... ... : ... .. 1 ... ... : ... .. . ... ...
ROW 07 : ... .. . ... ... ... : ... .. 7 ... ... ... : ... .. . ... : ... .. . ... : ... .. . ... ... : ... .. . ... ... : ... .. . ... ... : ... .. . ... ...
ROW 08 : ... .. . ... ... ... : ... .. . ... ... ... : ... .. . ... : ... .. . ... : ... .. . ... ... : ... .. . ... ... : ... .. . ... ... : ... .. . ... ...
ROW 09 : ... .. . ... ... ... : ... .. 6 ... ... ... : ... .. . ... : ... .. . ... : ... .. . ... ... : ... .. . ... ... : ... .. . ... ... : ... .. . ... ...
ROW 0A : ... .. . ... ... ... : ... .. 5 ... ... ... : ... .. . ... : ... .. . ... : ... .. . ... ... : ... .. . ... ... : ... .. . ... ... : ... .. . ... ...
ROW 0B : ... .. 6 ... ... ... : ... .. 4 ... ... ... : ... .. . ... : ... .. . ... : ... .. . ... ... : ... .. . ... ... : ... .. . ... ... : ... .. . ... ...
ROW 0C : ... .. . ... ... ... : ... .. . ... ... ... : ... .. . ... : ... .. . ... : ... .. . ... ... : ... .. . ... ... : ... .. . ... ... : ... .. . ... ...
ROW 0D : ... .. . ... ... ... : ... .. . ... ... ... : ... .. . ... : ... .. . ... : ... .. . ... ... : ... .. . ... ... : ... .. . ... ... : ... .. . ... ...
ROW 0E : ... .. . ... ... ... : ... .. 3 ... ... ... : ... .. . ... : ... .. . ... : ... .. . ... ... : ... .. . ... ... : ... .. . ... ... : ... .. . ... ...
ROW 0F : ... .. . ... ... ... : ... .. . ... ... ... : ... .. . ... : ... .. . ... : ... .. . ... ... : ... .. . ... ... : ... .. . ... ... : ... .. . ... ...
ROW 10 : ... .. . ... ... ... : D-3 00 8 ... ... ... : C-4 00 . ... : D-# 00 F ... : ... .. . ... ... : C-3 01 9 ... ... : D#3 01 9 ... ... : ... .. . ... ...
ROW 11 : ... .. . ... ... ... : ... .. 7 ... ... ... : ... .. . ... : ... .. C ... : ... .. . ... ... : ... .. 8 ... ... : ... .. 8 ... ... : ... .. . ... ...
ROW 12 : ... .. . ... ... ... : ... .. . ... ... ... : ... .. . ... : ... .. 6 ... : ... .. . ... ... : ... .. . ... ... : ... .. . ... ... : ... .. . ... ...
ROW 13 : ... .. . ... ... ... : ... .. 6 ... ... ... : ... .. . ... : ... .. 3 ... : ... .. . ... ... : ... .. . ... ... : ... .. . ... ... : ... .. . ... ...
ROW 14 : ... .. . ... ... ... : ... .. 5 ... ... ... : ... .. . ... : ... .. 2 ... : ... .. . ... ... : ... .. 7 ... ... : ... .. 7 ... ... : ... .. . ... ...
ROW 15 : ... .. 5 ... ... ... : ... .. 4 ... ... ... : ... .. . ... : ... .. 0 ... : ... .. . ... ... : ... .. . ... ... : ... .. . ... ... : ... .. . ... ...
ROW 16 : ... .. . ... ... ... : ... .. . ... ... ... : ... .. . ... : ... .. . ... : ... .. . ... ... : ... .. . ... ... : ... .. . ... ... : ... .. . ... ...
ROW 17 : ... .. . ... ... ... : ... .. . ... ... ... : ... .. . ... : ... .. . ... : ... .. . ... ... : ... .. 6 ... ... : ... .. 6 ... ... : ... .. . ... ...
ROW 18 : ... .. . ... ... ... : ... .. 3 ... ... ... : ... .. . ... : ... .. . ... : ... .. . ... ... : ... .. . ... ... : ... .. . ... ... : ... .. . ... ...
ROW 19 : ... .. . ... ... ... : ... .. . ... ... ... : ... .. . ... : ... .. . ... : ... .. . ... ... : ... .. . ... ... : ... .. . ... ... : ... .. . ... ...
ROW 1A : ... .. . ... ... ... : D#3 00 8 ... ... ... : --- .. . ... : ... .. . ... : ... .. . ... ... : ... .. 1 ... ... : ... .. 1 ... ... : ... .. . ... ...
ROW 1B : ... .. . ... ... ... : ... .. 7 ... ... ... : ... .. . ... : ... .. . ... : ... .. . ... ... : ... .. . ... ... : ... .. . ... ... : ... .. . ... ...
ROW 1C : ... .. . ... ... ... : ... .. . ... ... ... : ... .. . ... : ... .. . ... : ... .. . ... ... : ... .. . ... ... : ... .. . ... ... : ... .. . ... ...
ROW 1D : ... .. . ... ... ... : ... .. 6 ... ... ... : ... .. . ... : ... .. . ... : ... .. . ... ... : ... .. . ... ... : ... .. . ... ... : ... .. . ... ...
ROW 1E : ... .. . ... ... ... : ... .. 5 ... ... ... : ... .. . ... : ... .. . ... : ... .. . ... ... : ... .. . ... ... : ... .. . ... ... : ... .. . ... ...
ROW 1F : ... .. 6 ... ... ... : ... .. 4 ... ... ... : ... .. . ... : ... .. . ... : ... .. . ... ... : ... .. . ... ... : ... .. . ... ... : ... .. . ... ...
ROW 20 : ... .. . ... ... ... : ... .. . ... ... ... : ... .. . ... : ... .. . ... : ... .. . ... ... : ... .. . ... ... : ... .. . ... ... : ... .. . ... ...
ROW 21 : ... .. . ... ... ... : ... .. . ... ... ... : ... .. . ... : ... .. . ... : ... .. . ... ... : ... .. . ... ... : ... .. . ... ... : ... .. . ... ...
ROW 22 : ... .. . ... ... ... : ... .. 3 ... ... ... : ... .. . ... : ... .. . ... : ... .. . ... ... : ... .. . ... ... : ... .. . ... ... : ... .. . ... ...
ROW 23 : ... .. . ... ... ... : ... .. . ... ... ... : ... .. . ... : ... .. . ... : ... .. . ... ... : ... .. . ... ... : ... .. . ... ... : ... .. . ... ...
ROW 24 : ... .. . P82 ... ... : C-3 00 8 ... ... ... : C-3 00 . ... : ... .. D ... : ... .. . ... ... : G-2 01 9 ... ... : B-2 01 9 ... ... : ... .. . ... ...
ROW 25 : ... .. . P83 ... ... : ... .. 7 ... ... ... : ... .. . ... : ... .. B ... : ... .. . ... ... : ... .. 8 ... ... : ... .. 8 ... ... : ... .. . ... ...
ROW 26 : ... .. . ... ... ... : ... .. . ... ... ... : ... .. . ... : ... .. . ... : ... .. . ... ... : ... .. . ... ... : ... .. . ... ... : ... .. . ... ...
ROW 27 : ... .. . P81 ... ... : ... .. 6 ... ... ... : ... .. . ... : ... .. A ... : ... .. . ... ... : ... .. . ... ... : ... .. . ... ... : ... .. . ... ...
ROW 28 : ... .. . P7F ... ... : ... .. 5 ... ... ... : ... .. . ... : ... .. 8 ... : ... .. . ... ... : ... .. 7 ... ... : ... .. 7 ... ... : ... .. . ... ...
ROW 29 : ... .. . P7D ... ... : ... .. 4 ... ... ... : ... .. . ... : ... .. 7 ... : ... .. . ... ... : ... .. . ... ... : ... .. . ... ... : ... .. . ... ...
ROW 2A : ... .. . ... ... ... : ... .. . ... ... ... : ... .. . ... : ... .. 6 ... : ... .. . ... ... : ... .. . ... ... : ... .. . ... ... : ... .. . ... ...
ROW 2B : ... .. . P7E ... ... : ... .. . ... ... ... : ... .. . ... : ... .. . ... : ... .. . ... ... : ... .. 6 ... ... : ... .. 6 ... ... : ... .. . ... ...
ROW 2C : ... .. . P80 ... ... : ... .. 3 ... ... ... : ... .. . ... : ... .. 5 ... : ... .. . ... ... : ... .. . ... ... : ... .. . ... ... : ... .. . ... ...
ROW 2D : ... .. . P82 ... ... : ... .. . ... ... ... : ... .. . ... : ... .. . ... : ... .. . ... ... : ... .. . ... ... : ... .. . ... ... : ... .. . ... ...
ROW 2E : ... .. 7 P83 ... ... : D-3 00 8 ... ... ... : ... .. . ... : ... .. 4 ... : ... .. . ... ... : ... .. 1 ... ... : ... .. 1 ... ... : ... .. . ... ...
ROW 2F : ... .. . ... ... ... : ... .. 7 ... ... ... : ... .. . ... : ... .. . ... : ... .. . ... ... : ... .. . ... ... : ... .. . ... ... : ... .. . ... ...
ROW 30 : ... .. . P81 ... ... : ... .. . ... ... ... : ... .. . ... : ... .. 3 ... : ... .. . ... ... : ... .. . ... ... : ... .. . ... ... : ... .. . ... ...
ROW 31 : ... .. . P80 ... ... : ... .. 6 ... ... ... : ... .. . ... : ... .. 2 ... : ... .. . ... ... : ... .. . ... ... : ... .. . ... ... : ... .. . ... ...
ROW 32 : ... .. . P7D ... ... : ... .. 5 ... ... ... : ... .. . ... : ... .. . ... : ... .. . ... ... : ... .. . ... ... : ... .. . ... ... : ... .. . ... ...
ROW 33 : ... .. 8 ... ... ... : ... .. 4 ... ... ... : ... .. . ... : ... .. 1 ... : ... .. . ... ... : ... .. . ... ... : ... .. . ... ... : ... .. . ... ...
ROW 34 : ... .. . P7E ... ... : ... .. . ... ... ... : ... .. . ... : ... .. 0 ... : ... .. . ... ... : ... .. . ... ... : ... .. . ... ... : ... .. . ... ...
ROW 35 : ... .. . P80 ... ... : ... .. . ... ... ... : ... .. . ... : ... .. . ... : ... .. . ... ... : ... .. . ... ... : ... .. . ... ... : ... .. . ... ...
ROW 36 : ... .. . P81 ... ... : ... .. 3 ... ... ... : ... .. . ... : ... .. . ... : ... .. . ... ... : ... .. . ... ... : ... .. . ... ... : ... .. . ... ...
ROW 37 : ... .. . P83 ... ... : ... .. . ... ... ... : ... .. . ... : ... .. . ... : ... .. . ... ... : ... .. . ... ... : ... .. . ... ... : ... .. . ... ...
ROW 38 : ... .. . ... ... ... : D#3 00 8 ... ... ... : D#3 00 . ... : 9-# 00 A ... : ... .. . ... ... : D#2 01 9 ... ... : C-3 01 9 ... ... : ... .. . ... ...
ROW 39 : ... .. . P81 ... ... : ... .. 7 ... ... ... : ... .. . ... : ... .. 8 ... : ... .. . ... ... : ... .. 8 ... ... : ... .. 8 ... ... : ... .. . ... ...
ROW 3A : ... .. . P80 ... ... : ... .. . ... ... ... : ... .. . ... : ... .. 4 ... : ... .. . ... ... : ... .. . ... ... : ... .. . ... ... : ... .. . ... ...
ROW 3B : ... .. . P7E ... ... : ... .. 6 ... ... ... : ... .. . ... : ... .. 2 ... : ... .. . ... ... : ... .. . ... ... : ... .. . ... ... : ... .. . ... ...
ROW 3C : ... .. . P7D ... ... : ... .. 5 ... ... ... : ... .. . ... : ... .. 1 ... : ... .. . ... ... : ... .. 7 ... ... : ... .. 7 ... ... : ... .. . ... ...
ROW 3D : ... .. . ... ... ... : ... .. 4 ... ... ... : ... .. . ... : ... .. 0 ... : ... .. . ... ... : ... .. . ... ... : ... .. . ... ... : ... .. . ... ...
ROW 3E : ... .. . P80 ... ... : ... .. . ... ... ... : ... .. . ... : ... .. . ... : ... .. . ... ... : ... .. . ... ... : ... .. . ... ... : ... .. . ... ...
ROW 3F : ... .. . P81 ... ... : ... .. . ... ... ... : ... .. . ... : ... .. . ... : ... .. . ... ... : ... .. 6 ... ... : ... .. 6 ... ... : ... .. . ... ...
ROW 40 : ... .. . P83 ... ... : ... .. 3 ... ... ... : ... .. . ... : ... .. . ... : ... .. . ... ... : ... .. . ... ... : ... .. . ... ... : ... .. . ... ...
ROW 41 : ... .. . ... ... ... : ... .. . ... ... ... : ... .. . ... : ... .. . ... : ... .. . ... ... : ... .. . ... ... : ... .. . ... ... : ... .. . ... ...
ROW 42 : ... .. 9 P82 ... ... : G-3 00 8 ... ... ... : D-3 00 . ... : ... .. 8 ... : ... .. . ... ... : ... .. 1 ... ... : ... .. 1 ... ... : ... .. . ... ...
ROW 43 : ... .. . P80 ... ... : ... .. 7 ... ... ... : ... .. . ... : ... .. 6 ... : ... .. . ... ... : ... .. . ... ... : ... .. . ... ... : ... .. . ... ...
ROW 44 : ... .. . P7E ... ... : ... .. . ... ... ... : ... .. . ... : ... .. 3 ... : ... .. . ... ... : ... .. . ... ... : ... .. . ... ... : ... .. . ... ...
ROW 45 : ... .. . P7D ... ... : ... .. 6 ... ... ... : ... .. . ... : ... .. 1 ... : ... .. . ... ... : ... .. . ... ... : ... .. . ... ... : ... .. . ... ...
ROW 46 : ... .. . ... ... ... : ... .. 5 ... ... ... : ... .. . ... : ... .. . ... : ... .. . ... ... : ... .. . ... ... : ... .. . ... ... : ... .. . ... ...
ROW 47 : ... .. A P7F ... ... : ... .. 4 ... ... ... : ... .. . ... : ... .. 0 ... : ... .. . ... ... : ... .. . ... ... : ... .. . ... ... : ... .. . ... ...
ROW 48 : ... .. . P81 ... ... : ... .. . ... ... ... : ... .. . ... : ... .. . ... : ... .. . ... ... : ... .. . ... ... : ... .. . ... ... : ... .. . ... ...
ROW 49 : ... .. . P83 ... ... : ... .. . ... ... ... : ... .. . ... : ... .. . ... : ... .. . ... ... : ... .. . ... ... : ... .. . ... ... : ... .. . ... ...
ROW 4A : ... .. . ... ... ... : ... .. 3 ... ... ... : ... .. . ... : ... .. . ... : ... .. . ... ... : ... .. . ... ... : ... .. . ... ... : ... .. . ... ...
ROW 4B : ... .. . P82 ... ... : ... .. . ... ... ... : ... .. . ... : ... .. . ... : ... .. . ... ... : ... .. . ... ... : ... .. . ... ... : ... .. . ... ...
ROW 4C : ... .. . P80 ... ... : D#3 00 8 ... ... ... : D#3 00 . ... : ... .. F ... : ... .. . ... ... : G-2 01 9 ... ... : D-3 01 9 ... ... : ... .. . ... ...
ROW 4D : ... .. 2 P7E ... ... : ... .. 7 ... ... ... : ... .. . ... : ... .. C ... : ... .. . ... ... : ... .. 8 ... ... : ... .. 8 ... ... : ... .. 2 ... ...
ROW 4E : ... .. . P7D ... ... : ... .. . ... ... ... : ... .. . ... : ... .. 6 ... : ... .. . ... ... : ... .. . ... ... : ... .. . ... ... : ... .. . ... ...
ROW 4F : ... .. . ... ... ... : ... .. 6 ... ... ... : ... .. . ... : ... .. 3 ... : ... .. . ... ... : ... .. . ... ... : ... .. . ... ... : ... .. 1 ... ...
ROW 50 : ... .. 1 P7F ... ... : ... .. 5 ... ... ... : ... .. . ... : ... .. 2 ... : ... .. . ... ... : ... .. 7 ... ... : ... .. 7 ... ... : ... .. . ... ...
ROW 51 : ... .. . P80 ... ... : ... .. 4 ... ... ... : ... .. . ... : ... .. 0 ... : ... .. . ... ... : ... .. . ... ... : ... .. . ... ... : ... .. . ... ...
ROW 52 : ... .. . P83 ... ... : ... .. . ... ... ... : ... .. . ... : ... .. . ... : ... .. . ... ... : ... .. . ... ... : ... .. . ... ... : ... .. . ... ...
ROW 53 : ... .. 0 ... V00 ... : ... .. . ... ... ... : ... .. . ... : ... .. . ... : ... .. . ... ... : ... .. 6 ... ... : ... .. 6 ... ... : ... .. . ... ...
ROW 54 : ... .. . ... ... ... : ... .. 3 ... ... ... : ... .. . ... : ... .. . ... : ... .. . ... ... : ... .. . ... ... : ... .. . ... ... : ... .. . ... ...
ROW 55 : ... .. . ... ... ... : ... .. . ... ... ... : ... .. . ... : ... .. . ... : ... .. . ... ... : ... .. . ... ... : ... .. . ... ... : ... .. . ... ...
ROW 56 : ... .. . ... ... ... : G-3 00 8 ... ... ... : ... .. . ... : ... .. . ... : ... .. . ... ... : ... .. 1 ... ... : ... .. 1 ... ... : ... .. 0 ... ...
ROW 57 : ... .. . ... ... ... : ... .. 7 ... ... ... : ... .. . ... : ... .. . ... : ... .. . ... ... : ... .. . ... ... : ... .. . ... ... : ... .. . ... ...
ROW 58 : ... .. . ... ... ... : ... .. . ... ... ... : ... .. . ... : ... .. . ... : ... .. . ... ... : ... .. . ... ... : ... .. . ... ... : ... .. . ... ...
ROW 59 : ... .. . ... ... ... : ... .. 6 ... ... ... : ... .. . ... : ... .. . ... : ... .. . ... ... : ... .. . ... ... : ... .. . ... ... : ... .. . ... ...
ROW 5A : ... .. . ... ... ... : ... .. 5 ... ... ... : ... .. . ... : ... .. . ... : ... .. . ... ... : ... .. . ... ... : ... .. . ... ... : ... .. . ... ...
ROW 5B : ... .. . ... ... ... : ... .. 4 ... ... ... : ... .. . ... : ... .. . ... : ... .. . ... ... : ... .. . ... ... : ... .. . ... ... : ... .. . ... ...
ROW 5C : ... .. . ... ... ... : ... .. . ... ... ... : ... .. . ... : ... .. . ... : ... .. . ... ... : ... .. . ... ... : ... .. . ... ... : ... .. . ... ...
ROW 5D : ... .. . ... ... ... : ... .. . ... ... ... : ... .. . ... : ... .. . ... : ... .. . ... ... : ... .. . ... ... : ... .. . ... ... : ... .. . ... ...
ROW 5E : ... .. . ... ... ... : ... .. 3 ... ... ... : ... .. . ... : ... .. . ... : ... .. . ... ... : ... .. . ... ... : ... .. . ... ... : ... .. . ... ...
ROW 5F : ... .. . ... ... ... : ... .. . ... ... ... : ... .. . ... : ... .. . ... : ... .. . ... ... : ... .. . ... ... : ... .. . ... ... : ... .. . ... ...
ROW 60 : C-4 00 F P80 V01 ... : C-4 00 8 ... ... ... : G-2 00 . ... : D-# 00 D ... : ... .. . ... ... : C-3 01 9 ... ... : D#3 01 9 ... ... : ... .. . ... ...
ROW 61 : ... .. E ... ... ... : ... .. 7 ... ... ... : ... .. . ... : ... .. B ... : ... .. . ... ... : ... .. 8 ... ... : ... .. 8 ... ... : ... .. . ... ...
ROW 62 : ... .. D ... ... ... : ... .. . ... ... ... : ... .. . ... : ... .. . ... : ... .. . ... ... : ... .. . ... ... : ... .. . ... ... : ... .. . ... ...
ROW 63 : ... .. A ... ... ... : ... .. 6 ... ... ... : ... .. . ... : ... .. A ... : ... .. . ... ... : ... .. . ... ... : ... .. . ... ... : ... .. . ... ...
ROW 64 : ... .. . ... ... ... : ... .. 5 ... ... ... : ... .. . ... : ... .. 8 ... : ... .. . ... ... : ... .. 7 ... ... : ... .. 7 ... ... : ... .. . ... ...
ROW 65 : ... .. . ... ... ... : ... .. 4 ... ... ... : ... .. . ... : ... .. 7 ... : ... .. . ... ... : ... .. . ... ... : ... .. . ... ... : ... .. . ... ...
ROW 66 : ... .. . ... ... ... : ... .. . ... ... ... : ... .. . ... : ... .. 6 ... : ... .. . ... ... : ... .. . ... ... : ... .. . ... ... : ... .. . ... ...
ROW 67 : ... .. . ... ... ... : ... .. . ... ... ... : ... .. . ... : ... .. . ... : ... .. . ... ... : ... .. 6 ... ... : ... .. 6 ... ... : ... .. . ... ...
ROW 68 : ... .. . ... ... ... : ... .. 3 ... ... ... : ... .. . ... : ... .. 5 ... : ... .. . ... ... : ... .. . ... ... : ... .. . ... ... : ... .. . ... ...
ROW 69 : ... .. . ... ... ... : ... .. . ... ... ... : ... .. . ... : ... .. . ... : ... .. . ... ... : ... .. . ... ... : ... .. . ... ... : ... .. . ... ...
ROW 6A : ... .. . ... ... ... : D#4 00 8 ... ... ... : ... .. . ... : ... .. 4 ... : ... .. . ... ... : ... .. 1 ... ... : ... .. 1 ... ... : ... .. . ... ...
ROW 6B : ... .. 2 ... ... ... : ... .. 7 ... ... ... : ... .. . ... : ... .. . ... : ... .. . ... ... : ... .. . ... ... : ... .. . ... ... : ... .. . ... ...
ROW 6C : ... .. . ... ... ... : ... .. . ... ... ... : ... .. . ... : ... .. 3 ... : ... .. . ... ... : ... .. . ... ... : ... .. . ... ... : ... .. . ... ...
ROW 6D : ... .. . ... ... ... : ... .. 6 ... ... ... : ... .. . ... : ... .. 2 ... : ... .. . ... ... : ... .. . ... ... : ... .. . ... ... : ... .. . ... ...
ROW 6E : ... .. 1 ... ... ... : ... .. 5 ... ... ... : ... .. . ... : ... .. . ... : ... .. . ... ... : ... .. . ... ... : ... .. . ... ... : ... .. . ... ...
ROW 6F : ... .. . ... ... ... : ... .. 4 ... ... ... : ... .. . ... : ... .. 1 ... : ... .. . ... ... : ... .. . ... ... : ... .. . ... ... : ... .. . ... ...
ROW 70 : ... .. . ... ... ... : ... .. . ... ... ... : ... .. . ... : ... .. 0 ... : ... .. . ... ... : ... .. . ... ... : ... .. . ... ... : ... .. . ... ...
ROW 71 : ... .. 0 ... V00 ... : ... .. . ... ... ... : ... .. . ... : ... .. . ... : ... .. . ... ... : ... .. . ... ... : ... .. . ... ... : ... .. . ... ...
ROW 72 : ... .. . ... ... ... : ... .. 3 ... ... ... : ... .. . ... : ... .. . ... : ... .. . ... ... : ... .. . ... ... : ... .. . ... ... : ... .. . ... ...
ROW 73 : ... .. . ... ... ... : ... .. . ... ... ... : ... .. . ... : ... .. . ... : ... .. . ... ... : ... .. . ... ... : ... .. . ... ... : ... .. . ... ...
ROW 74 : G#4 00 F P80 V01 ... : F-3 00 8 ... ... ... : F-2 00 . ... : ... .. D V01 : ... .. . ... ... : G#2 01 9 ... ... : F-3 01 9 ... ... : --- .. . P7F ...
ROW 75 : ... .. E ... ... ... : ... .. 7 ... ... ... : ... .. . ... : ... .. B ... : ... .. . ... ... : ... .. 8 ... ... : ... .. 8 ... ... : ... .. . ... ...
ROW 76 : ... .. D ... ... ... : ... .. . ... ... ... : ... .. . ... : ... .. . ... : ... .. . ... ... : ... .. . ... ... : ... .. . ... ... : ... .. . ... ...
ROW 77 : ... .. A ... ... ... : ... .. 6 ... ... ... : ... .. . ... : ... .. A ... : ... .. . ... ... : ... .. . ... ... : ... .. . ... ... : ... .. . ... ...
ROW 78 : ... .. . ... ... ... : ... .. 5 ... ... ... : ... .. . ... : ... .. 8 ... : ... .. . ... ... : ... .. 7 ... ... : ... .. 7 ... ... : ... .. . ... ...
ROW 79 : ... .. . ... ... ... : ... .. 4 ... ... ... : ... .. . ... : ... .. 7 ... : ... .. . ... ... : ... .. 6 ... ... : ... .. 6 ... ... : ... .. . ... ...
ROW 7A : ... .. 2 ... ... ... : ... .. . ... ... ... : ... .. . ... : ... .. 6 ... : ... .. . ... ... : ... .. 5 ... ... : ... .. 5 ... ... : ... .. . ... ...
ROW 7B : ... .. . ... ... ... : ... .. . ... ... ... : ... .. . ... : ... .. . ... : ... .. . ... ... : ... .. . ... ... : ... .. . ... ... : ... .. . ... ...
ROW 7C : ... .. . ... ... ... : ... .. 3 ... ... ... : ... .. . ... : ... .. 5 ... : ... .. . ... ... : ... .. 4 ... ... : ... .. 4 ... ... : ... .. . ... ...
ROW 7D : ... .. 1 ... ... ... : ... .. . ... ... ... : ... .. . ... : ... .. . ... : ... .. . ... ... : ... .. 3 ... ... : ... .. 3 ... ... : ... .. . ... ...
ROW 7E : G-4 00 F ... ... ... : C-3 00 8 ... ... ... : ... .. . ... : ... .. 4 ... : ... .. . ... ... : F-2 01 9 ... ... : C-3 01 9 ... ... : ... .. . ... ...
ROW 7F : ... .. E ... ... ... : ... .. 7 ... ... ... : ... .. . ... : ... .. . ... : ... .. . ... ... : ... .. 8 ... ... : ... .. 8 ... ... : ... .. . ... ...
ROW 80 : ... .. D ... ... ... : ... .. . ... ... ... : ... .. . ... : ... .. 3 ... : ... .. . ... ... : ... .. . ... ... : ... .. . ... ... : ... .. . ... ...
ROW 81 : ... .. A ... ... ... : ... .. 6 ... ... ... : ... .. . ... : ... .. 2 ... : ... .. . ... ... : ... .. . ... ... : ... .. . ... ... : ... .. . ... ...
ROW 82 : ... .. . ... ... ... : ... .. 5 ... ... ... : ... .. . ... : ... .. . ... : ... .. . ... ... : ... .. 7 ... ... : ... .. 7 ... ... : ... .. . ... ...
ROW 83 : ... .. . ... ... ... : ... .. 4 ... ... ... : ... .. . ... : ... .. 1 ... : ... .. . ... ... : ... .. 6 ... ... : ... .. 6 ... ... : ... .. . ... ...
ROW 84 : ... .. 2 ... ... ... : ... .. . ... ... ... : ... .. . ... : ... .. 0 ... : ... .. . ... ... : ... .. 5 ... ... : ... .. 5 ... ... : ... .. . ... ...
ROW 85 : ... .. . ... ... ... : ... .. . ... ... ... : ... .. . ... : ... .. . ... : ... .. . ... ... : ... .. . ... ... : ... .. . ... ... : ... .. . ... ...
ROW 86 : ... .. . ... ... ... : ... .. 3 ... ... ... : ... .. . ... : ... .. . ... : ... .. . ... ... : ... .. 4 ... ... : ... .. 4 ... ... : ... .. . ... ...
ROW 87 : ... .. 1 ... ... ... : ... .. . ... ... ... : ... .. . ... : ... .. . ... : ... .. . ... ... : ... .. 3 ... ... : ... .. 3 ... ... : ... .. . ... ...
ROW 88 : G#4 00 F ... ... ... : F-3 00 8 ... ... ... : G#3 00 . ... : 9-# 00 A V00 : ... .. . ... ... : G#2 01 9 ... ... : F-3 01 9 ... ... : ... .. . ... ...
ROW 89 : ... .. E ... ... ... : ... .. 7 ... ... ... : ... .. . ... : ... .. 8 ... : ... .. . ... ... : ... .. 8 ... ... : ... .. 8 ... ... : ... .. . ... ...
ROW 8A : ... .. D ... ... ... : ... .. . ... ... ... : ... .. . ... : ... .. 4 ... : ... .. . ... ... : ... .. . ... ... : ... .. . ... ... : ... .. . ... ...
ROW 8B : ... .. A ... ... ... : ... .. 6 ... ... ... : ... .. . ... : ... .. 2 ... : ... .. . ... ... : ... .. . ... ... : ... .. . ... ... : ... .. . ... ...
ROW 8C : ... .. . ... ... ... : ... .. 5 ... ... ... : ... .. . ... : ... .. 1 ... : ... .. . ... ... : ... .. 7 ... ... : ... .. 7 ... ... : ... .. . ... ...
ROW 8D : ... .. . ... ... ... : ... .. 4 ... ... ... : ... .. . ... : ... .. 0 ... : ... .. . ... ... : ... .. 6 ... ... : ... .. 6 ... ... : ... .. . ... ...
ROW 8E : ... .. . ... ... ... : ... .. . ... ... ... : ... .. . ... : ... .. . ... : ... .. . ... ... : ... .. 5 ... ... : ... .. 5 ... ... : ... .. . ... ...
ROW 8F : ... .. . ... ... ... : ... .. . ... ... ... : ... .. . ... : ... .. . ... : ... .. . ... ... : ... .. . ... ... : ... .. . ... ... : ... .. . ... ...
ROW 90 : ... .. . ... ... ... : ... .. 3 ... ... ... : ... .. . ... : ... .. . ... : ... .. . ... ... : ... .. 4 ... ... : ... .. 4 ... ... : ... .. . ... ...
ROW 91 : ... .. . ... ... ... : ... .. . ... ... ... : ... .. . ... : ... .. . ... : ... .. . ... ... : ... .. 3 ... ... : ... .. 3 ... ... : ... .. . ... ...
ROW 92 : ... .. . ... ... ... : C-3 00 8 ... ... ... : --- .. . ... : ... .. 8 ... : ... .. . ... ... : A#2 01 9 ... ... : G-3 01 9 ... ... : ... .. . ... ...
ROW 93 : ... .. . ... ... ... : ... .. 7 ... ... ... : ... .. . ... : ... .. 6 ... : ... .. . ... ... : ... .. 8 ... ... : ... .. 8 ... ... : ... .. . ... ...
ROW 94 : ... .. . ... ... ... : ... .. . ... ... ... : ... .. . ... : ... .. 3 ... : ... .. . ... ... : ... .. . ... ... : ... .. . ... ... : ... .. . ... ...
ROW 95 : ... .. . ... ... ... : ... .. 6 ... ... ... : ... .. . ... : ... .. 1 ... : ... .. . ... ... : ... .. . ... ... : ... .. . ... ... : ... .. . ... ...
ROW 96 : ... .. . ... ... ... : ... .. 5 ... ... ... : ... .. . ... : ... .. . ... : ... .. . ... ... : ... .. 7 ... ... : ... .. 7 ... ... : ... .. . ... ...
ROW 97 : ... .. . P82 ... ... : ... .. 4 ... ... ... : ... .. . ... : ... .. 0 ... : ... .. . ... ... : ... .. 6 ... ... : ... .. 6 ... ... : ... .. . ... ...
ROW 98 : ... .. . P83 ... ... : ... .. . ... ... ... : ... .. . ... : ... .. . ... : ... .. . ... ... : ... .. 5 ... ... : ... .. 5 ... ... : ... .. . ... ...
ROW 99 : ... .. . ... ... ... : ... .. . ... ... ... : ... .. . ... : ... .. . ... : ... .. . ... ... : ... .. . ... ... : ... .. . ... ... : ... .. . ... ...
ROW 9A : ... .. . P81 ... ... : ... .. 3 ... ... ... : ... .. . ... : ... .. . ... : ... .. . ... ... : ... .. 4 ... ... : ... .. 4 ... ... : ... .. . ... ...
ROW 9B : ... .. . P7F ... ... : ... .. . ... ... ... : ... .. . ... : ... .. . ... : ... .. . ... ... : ... .. 3 ... ... : ... .. 3 ... ... : ... .. . ... ...
ROW 9C : ... .. . P7D ... ... : F-3 00 8 ... ... ... : F-1 00 . ... : ... .. F ... : ... .. . ... ... : C-3 01 9 ... ... : G#3 01 9 ... ... : F-3 01 C P80 ...
ROW 9D : ... .. . ... ... ... : ... .. 7 ... ... ... : ... .. . ... : ... .. C ... : ... .. . ... ... : ... .. 8 ... ... : ... .. 8 ... ... : ... .. A ... ...
ROW 9E : ... .. . P7E ... ... : ... .. . ... ... ... : ... .. . ... : ... .. 6 ... : ... .. . ... ... : ... .. . ... ... : ... .. . ... ... : ... .. 6 ... ...
ROW 9F : ... .. . P80 ... ... : ... .. 6 ... ... ... : ... .. . ... : ... .. 3 ... : ... .. . ... ... : ... .. . ... ... : ... .. . ... ... : ... .. . ... ...
ROW A0 : ... .. . P82 ... ... : ... .. 5 ... ... ... : ... .. . ... : ... .. 2 ... : ... .. . ... ... : ... .. 7 ... ... : ... .. 7 ... ... : ... .. . ... ...
ROW A1 : ... .. . P83 ... ... : ... .. 4 ... ... ... : ... .. . ... : ... .. 0 ... : ... .. . ... ... : ... .. . ... ... : ... .. . ... ... : ... .. . ... ...
ROW A2 : ... .. . ... ... ... : ... .. . ... ... ... : ... .. . ... : ... .. . ... : ... .. . ... ... : ... .. . ... ... : ... .. . ... ... : ... .. 3 ... ...
ROW A3 : ... .. . P81 ... ... : ... .. . ... ... ... : ... .. . ... : ... .. . ... : ... .. . ... ... : ... .. 6 ... ... : ... .. 6 ... ... : ... .. . ... ...
ROW A4 : ... .. . P80 ... ... : ... .. 3 ... ... ... : ... .. . ... : ... .. . ... : ... .. . ... ... : ... .. . ... ... : ... .. . ... ... : ... .. 1 ... ...
ROW A5 : ... .. . P7D ... ... : ... .. . ... ... ... : ... .. . ... : ... .. . ... : ... .. . ... ... : ... .. . ... ... : ... .. . ... ... : ... .. . ... ...
ROW A6 : ... .. . ... ... ... : C-3 00 8 ... ... ... : ... .. . ... : ... .. . ... : ... .. . ... ... : ... .. . ... ... : ... .. . ... ... : G-3 01 C ... ...
ROW A7 : ... .. 2 P7E ... ... : ... .. 7 ... ... ... : ... .. . ... : ... .. . ... : ... .. . ... ... : ... .. . ... ... : ... .. . ... ... : ... .. A ... ...
ROW A8 : ... .. . P80 ... ... : ... .. . ... ... ... : ... .. . ... : ... .. . ... : ... .. . ... ... : ... .. . ... ... : ... .. . ... ... : ... .. 6 ... ...
ROW A9 : ... .. . P81 ... ... : ... .. 6 ... ... ... : ... .. . ... : ... .. . ... : ... .. . ... ... : ... .. . ... ... : ... .. . ... ... : ... .. . ... ...
ROW AA : ... .. 1 P83 ... ... : ... .. 5 ... ... ... : ... .. . ... : ... .. . ... : ... .. . ... ... : ... .. . ... ... : ... .. . ... ... : ... .. . ... ...
ROW AB : ... .. . ... ... ... : ... .. 4 ... ... ... : ... .. . ... : ... .. . ... : ... .. . ... ... : ... .. . ... ... : ... .. . ... ... : ... .. . ... ...
ROW AC : ... .. . P81 ... ... : ... .. . ... ... ... : ... .. . ... : ... .. . ... : ... .. . ... ... : ... .. 5 ... ... : ... .. 5 ... ... : ... .. 3 ... ...
ROW AD : ... .. 0 ... V00 ... : ... .. . ... ... ... : ... .. . ... : ... .. . ... : ... .. . ... ... : ... .. . ... ... : ... .. . ... ... : ... .. . ... ...
ROW AE : ... .. . ... ... ... : ... .. 3 ... ... ... : ... .. . ... : ... .. . ... : ... .. . ... ... : ... .. 4 ... ... : ... .. 4 ... ... : ... .. 1 ... ...
ROW AF : ... .. . ... ... ... : ... .. . ... ... ... : ... .. . ... : ... .. . ... : ... .. . ... ... : ... .. 3 ... ... : ... .. 3 ... ... : ... .. . ... ...
ROW B0 : C-4 00 F P80 V01 ... : F-3 00 8 ... ... ... : D-4 00 . ... : D-# 00 8 ... : ... .. . ... ... : F-2 01 9 ... ... : C-3 01 9 ... ... : F-3 01 C ... ...
ROW B1 : ... .. E ... ... ... : ... .. 7 ... ... ... : ... .. . ... : ... .. 7 ... : ... .. . ... ... : ... .. 8 ... ... : ... .. 8 ... ... : ... .. A ... ...
ROW B2 : ... .. D ... ... ... : ... .. . ... ... ... : ... .. . ... : ... .. . ... : ... .. . ... ... : ... .. . ... ... : ... .. . ... ... : ... .. 6 ... ...
ROW B3 : ... .. A ... ... ... : ... .. 6 ... ... ... : ... .. . ... : ... .. 6 ... : ... .. . ... ... : ... .. . ... ... : ... .. . ... ... : ... .. . ... ...
ROW B4 : ... .. . ... ... ... : ... .. 5 ... ... ... : ... .. . ... : ... .. 5 ... : ... .. . ... ... : ... .. 7 ... ... : ... .. 7 ... ... : ... .. . ... ...
ROW B5 : ... .. . ... ... ... : ... .. 4 ... ... ... : ... .. . ... : ... .. 4 ... : ... .. . ... ... : ... .. . ... ... : ... .. . ... ... : ... .. . ... ...
ROW B6 : ... .. . ... ... ... : ... .. . ... ... ... : ... .. . ... : ... .. . ... : ... .. . ... ... : ... .. . ... ... : ... .. . ... ... : ... .. . ... ...
ROW B7 : ... .. . ... ... ... : ... .. . ... ... ... : ... .. . ... : ... .. . ... : ... .. . ... ... : ... .. 6 ... ... : ... .. 6 ... ... : ... .. . ... ...
ROW B8 : ... .. . ... ... ... : ... .. 3 ... ... ... : ... .. . ... : ... .. 3 ... : ... .. . ... ... : ... .. . ... ... : ... .. . ... ... : ... .. . ... ...
ROW B9 : ... .. . ... ... ... : ... .. . ... ... ... : ... .. . ... : ... .. . ... : ... .. . ... ... : ... .. . ... ... : ... .. . ... ... : ... .. . ... ...
ROW BA : ... .. . ... ... ... : C-3 00 8 ... ... ... : --- .. . ... : ... .. 2 ... : ... .. . ... ... : ... .. . ... ... : ... .. . ... ... : ... .. . ... ...
ROW BB : ... .. 2 ... ... ... : ... .. 7 ... ... ... : ... .. . ... : ... .. . ... : ... .. . ... ... : ... .. . ... ... : ... .. . ... ... : ... .. . ... ...
ROW BC : ... .. . ... ... ... : ... .. . ... ... ... : ... .. . ... : ... .. . ... : ... .. . ... ... : ... .. . ... ... : ... .. . ... ... : ... .. . ... ...
ROW BD : ... .. . ... ... ... : ... .. 6 ... ... ... : ... .. . ... : ... .. 1 ... : ... .. . ... ... : ... .. . ... ... : ... .. . ... ... : ... .. . ... ...
ROW BE : ... .. 1 ... ... ... : ... .. 5 ... ... ... : ... .. . ... : ... .. . ... : ... .. . ... ... : ... .. . ... ... : ... .. . ... ... : ... .. . ... ...
ROW BF : ... .. . ... ... ... : ... .. 4 ... ... ... : ... .. . ... : ... .. . ... : ... .. . ... ... : ... .. . ... ... : ... .. . ... ... : ... .. . ... ...
ROW C0 : ... .. . ... ... ... : ... .. . ... ... ... : ... .. . ... : ... .. 0 ... : ... .. . ... ... : ... .. 5 ... ... : ... .. 5 ... ... : ... .. . ... ...
ROW C1 : ... .. 0 ... V00 ... : ... .. . ... ... ... : ... .. . ... : ... .. . ... : ... .. . ... ... : ... .. . ... ... : ... .. . ... ... : ... .. . ... ...
ROW C2 : ... .. . ... ... ... : ... .. 3 ... ... ... : ... .. . ... : ... .. . ... : ... .. . ... ... : ... .. 4 ... ... : ... .. 4 ... ... : ... .. . ... ...
ROW C3 : ... .. . ... ... ... : ... .. . ... ... ... : ... .. . ... : ... .. . ... : ... .. . ... ... : ... .. 3 ... ... : ... .. 3 ... ... : ... .. . ... ...
ROW C4 : G#4 00 F P80 V01 ... : G-3 00 8 ... ... ... : F-2 00 . ... : ... .. D ... : ... .. . ... ... : G#2 01 9 ... ... : F-3 01 9 ... ... : C-3 01 C ... ...
ROW C5 : ... .. E ... ... ... : ... .. 7 ... ... ... : ... .. . ... : ... .. B ... : ... .. . ... ... : ... .. 8 ... ... : ... .. 8 ... ... : ... .. A ... ...
ROW C6 : ... .. D ... ... ... : ... .. . ... ... ... : ... .. . ... : ... .. . ... : ... .. . ... ... : ... .. . ... ... : ... .. . ... ... : ... .. 6 ... ...
ROW C7 : ... .. A ... ... ... : ... .. 6 ... ... ... : ... .. . ... : ... .. A ... : ... .. . ... ... : ... .. . ... ... : ... .. . ... ... : ... .. . ... ...
ROW C8 : ... .. . ... ... ... : ... .. 5 ... ... ... : ... .. . ... : ... .. 8 ... : ... .. . ... ... : ... .. 7 ... ... : ... .. 7 ... ... : ... .. . ... ...
ROW C9 : ... .. . ... ... ... : ... .. 4 ... ... ... : ... .. . ... : ... .. 7 ... : ... .. . ... ... : ... .. 6 ... ... : ... .. 6 ... ... : ... .. . ... ...
ROW CA : ... .. 2 ... ... ... : ... .. . ... ... ... : ... .. . ... : ... .. 6 ... : ... .. . ... ... : ... .. 5 ... ... : ... .. 5 ... ... : ... .. 3 ... ...
ROW CB : ... .. . ... ... ... : ... .. . ... ... ... : ... .. . ... : ... .. . ... : ... .. . ... ... : ... .. . ... ... : ... .. . ... ... : ... .. . ... ...
ROW CC : ... .. . ... ... ... : ... .. 3 ... ... ... : ... .. . ... : ... .. 5 ... : ... .. . ... ... : ... .. 4 ... ... : ... .. 4 ... ... : ... .. 1 ... ...
ROW CD : ... .. 1 ... ... ... : ... .. . ... ... ... : ... .. . ... : ... .. . ... : ... .. . ... ... : ... .. 3 ... ... : ... .. 3 ... ... : ... .. . ... ...
ROW CE : G-4 00 F ... ... ... : C-3 00 8 ... ... ... : ... .. . ... : ... .. 4 ... : ... .. . ... ... : F-2 01 9 ... ... : C-3 01 9 ... ... : A#2 01 C ... ...
ROW CF : ... .. E ... ... ... : ... .. 7 ... ... ... : ... .. . ... : ... .. . ... : ... .. . ... ... : ... .. 8 ... ... : ... .. 8 ... ... : ... .. A ... ...
ROW D0 : ... .. D ... ... ... : ... .. . ... ... ... : ... .. . ... : ... .. 3 ... : ... .. . ... ... : ... .. . ... ... : ... .. . ... ... : ... .. 6 ... ...
ROW D1 : ... .. A ... ... ... : ... .. 6 ... ... ... : ... .. . ... : ... .. 2 ... : ... .. . ... ... : ... .. . ... ... : ... .. . ... ... : ... .. . ... ...
ROW D2 : ... .. . ... ... ... : ... .. 5 ... ... ... : ... .. . ... : ... .. . ... : ... .. . ... ... : ... .. 7 ... ... : ... .. 7 ... ... : ... .. . ... ...
ROW D3 : ... .. . ... ... ... : ... .. 4 ... ... ... : ... .. . ... : ... .. 1 ... : ... .. . ... ... : ... .. 6 ... ... : ... .. 6 ... ... : ... .. . ... ...
ROW D4 : ... .. 2 ... ... ... : ... .. . ... ... ... : ... .. . ... : ... .. 0 ... : ... .. . ... ... : ... .. 5 ... ... : ... .. 5 ... ... : ... .. 3 ... ...
ROW D5 : ... .. . ... ... ... : ... .. . ... ... ... : ... .. . ... : ... .. . ... : ... .. . ... ... : ... .. . ... ... : ... .. . ... ... : ... .. . ... ...
ROW D6 : ... .. . ... ... ... : ... .. 3 ... ... ... : ... .. . ... : ... .. . ... : ... .. . ... ... : ... .. 4 ... ... : ... .. 4 ... ... : ... .. 1 ... ...
ROW D7 : ... .. 1 ... ... ... : ... .. . ... ... ... : ... .. . ... : ... .. . ... : ... .. . ... ... : ... .. 3 ... ... : ... .. 3 ... ... : ... .. . ... ...
ROW D8 : G#4 00 F ... ... ... : F-3 00 8 ... ... ... : G#4 00 . ... : 9-# 00 A ... : ... .. . ... ... : G#2 01 9 ... ... : F-3 01 9 ... ... : C-3 01 C ... ...
ROW D9 : ... .. E ... ... ... : ... .. 7 ... ... ... : ... .. . ... : ... .. 8 ... : ... .. . ... ... : ... .. 8 ... ... : ... .. 8 ... ... : ... .. A ... ...
ROW DA : ... .. D ... ... ... : ... .. . ... ... ... : ... .. . ... : ... .. 4 ... : ... .. . ... ... : ... .. . ... ... : ... .. . ... ... : ... .. 6 ... ...
ROW DB : ... .. A ... ... ... : ... .. 6 ... ... ... : ... .. . ... : ... .. 2 ... : ... .. . ... ... : ... .. . ... ... : ... .. . ... ... : ... .. . ... ...
ROW DC : ... .. . ... ... ... : ... .. 5 ... ... ... : ... .. . ... : ... .. 1 ... : ... .. . ... ... : ... .. 7 ... ... : ... .. 7 ... ... : ... .. . ... ...
ROW DD : ... .. . ... ... ... : ... .. 4 ... ... ... : ... .. . ... : ... .. 0 ... : ... .. . ... ... : ... .. 6 ... ... : ... .. 6 ... ... : ... .. . ... ...
ROW DE : ... .. . ... ... ... : ... .. . ... ... ... : ... .. . ... : ... .. . ... : ... .. . ... ... : ... .. 5 ... ... : ... .. 5 ... ... : ... .. . ... ...
ROW DF : ... .. . ... ... ... : ... .. . ... ... ... : ... .. . ... : ... .. 8 ... : ... .. . ... ... : ... .. . ... ... : ... .. . ... ... : ... .. . ... ...
ROW E0 : ... .. . ... ... ... : ... .. 3 ... ... ... : ... .. . ... : ... .. 6 ... : ... .. . ... ... : ... .. 4 ... ... : ... .. 4 ... ... : ... .. . ... ...
ROW E1 : ... .. . ... ... ... : ... .. . ... ... ... : ... .. . ... : ... .. 3 ... : ... .. . ... ... : ... .. 3 ... ... : ... .. 3 ... ... : ... .. . ... ...
ROW E2 : ... .. . ... ... ... : C-3 00 8 ... ... ... : --- .. . ... : ... .. 1 ... : ... .. . ... ... : A#2 01 9 ... ... : G-3 01 9 ... ... : ... .. . ... ...
ROW E3 : ... .. . ... ... ... : ... .. 7 ... ... ... : ... .. . ... : ... .. . ... : ... .. . ... ... : ... .. 8 ... ... : ... .. 8 ... ... : ... .. . ... ...
ROW E4 : ... .. . ... ... ... : ... .. . ... ... ... : ... .. . ... : ... .. 0 ... : ... .. . ... ... : ... .. . ... ... : ... .. . ... ... : ... .. . ... ...
ROW E5 : ... .. . ... ... ... : ... .. 6 ... ... ... : ... .. . ... : ... .. C ... : ... .. . ... ... : ... .. . ... ... : ... .. . ... ... : ... .. . ... ...
ROW E6 : ... .. . ... ... ... : ... .. 5 ... ... ... : ... .. . ... : ... .. 9 ... : ... .. . ... ... : ... .. 7 ... ... : ... .. 7 ... ... : ... .. . ... ...
ROW E7 : ... .. . ... ... ... : ... .. 4 ... ... ... : ... .. . ... : ... .. 4 ... : ... .. . ... ... : ... .. 6 ... ... : ... .. 6 ... ... : ... .. . ... ...
ROW E8 : ... .. . ... ... ... : ... .. . ... ... ... : ... .. . ... : ... .. 2 ... : ... .. . ... ... : ... .. 5 ... ... : ... .. 5 ... ... : ... .. 3 ... ...
ROW E9 : ... .. . ... ... ... : ... .. . ... ... ... : ... .. . ... : ... .. 1 ... : ... .. . ... ... : ... .. . ... ... : ... .. . ... ... : ... .. . ... ...
ROW EA : ... .. . ... ... ... : ... .. 3 ... ... ... : ... .. . ... : ... .. 0 ... : ... .. . ... ... : ... .. 4 ... ... : ... .. 4 ... ... : ... .. 1 ... ...
ROW EB : ... .. . ... ... ... : ... .. . ... ... ... : ... .. . ... : ... .. . ... : ... .. . ... ... : ... .. 3 ... ... : ... .. 3 ... ... : ... .. . ... ...
ROW EC : ... .. . ... ... ... : D-3 00 8 ... ... ... : D-2 00 . ... : ... .. F ... : ... .. . ... ... : C-3 01 9 ... ... : G#3 01 9 ... ... : G#2 01 C ... ...
ROW ED : ... .. . ... ... ... : ... .. 7 ... ... ... : ... .. . ... : ... .. C ... : ... .. . ... ... : ... .. 8 ... ... : ... .. 8 ... ... : ... .. A ... ...
ROW EE : ... .. . ... ... ... : ... .. . ... ... ... : ... .. . ... : ... .. 6 ... : ... .. . ... ... : ... .. . ... ... : ... .. . ... ... : ... .. 6 ... ...
ROW EF : ... .. . ... ... ... : ... .. 6 ... ... ... : ... .. . ... : ... .. 3 ... : ... .. . ... ... : ... .. . ... ... : ... .. . ... ... : ... .. . ... ...
ROW F0 : ... .. . ... ... ... : ... .. 5 ... ... ... : ... .. . ... : ... .. 2 ... : ... .. . ... ... : ... .. 7 ... ... : ... .. 7 ... ... : ... .. . ... ...
ROW F1 : ... .. . ... ... ... : ... .. 4 ... ... ... : ... .. . ... : ... .. 0 ... : ... .. . ... ... : ... .. . ... ... : ... .. . ... ... : ... .. . ... ...
ROW F2 : ... .. . ... ... ... : ... .. . ... ... ... : ... .. . ... : ... .. . ... : ... .. . ... ... : ... .. . ... ... : ... .. . ... ... : ... .. . ... ...
ROW F3 : ... .. . ... ... ... : ... .. . ... ... ... : ... .. . ... : ... .. . ... : ... .. . ... ... : ... .. 6 ... ... : ... .. 6 ... ... : ... .. . ... ...
ROW F4 : ... .. . ... ... ... : ... .. 3 ... ... ... : ... .. . ... : ... .. . ... : ... .. . ... ... : ... .. . ... ... : ... .. . ... ... : ... .. . ... ...
ROW F5 : ... .. . ... ... ... : ... .. . ... ... ... : ... .. . ... : ... .. . ... : ... .. . ... ... : ... .. . ... ... : ... .. . ... ... : ... .. . ... ...
ROW F6 : G-4 00 F ... ... ... : C-3 00 8 ... ... ... : ... .. . ... : ... .. . ... : ... .. . ... ... : ... .. . ... ... : ... .. . ... ... : G-2 01 C ... ...
ROW F7 : ... .. E ... ... ... : ... .. 7 ... ... ... : ... .. . ... : ... .. . ... : ... .. . ... ... : ... .. . ... ... : ... .. . ... ... : ... .. A ... ...
ROW F8 : ... .. D ... ... ... : ... .. . ... ... ... : ... .. . ... : ... .. . ... : ... .. . ... ... : ... .. . ... ... : ... .. . ... ... : ... .. 6 ... ...
ROW F9 : ... .. A ... ... ... : ... .. 6 ... ... ... : ... .. . ... : ... .. . ... : ... .. . ... ... : ... .. . ... ... : ... .. . ... ... : ... .. . ... ...
ROW FA : ... .. . ... ... ... : ... .. 5 ... ... ... : ... .. . ... : ... .. . ... : ... .. . ... ... : ... .. . ... ... : ... .. . ... ... : ... .. . ... ...
ROW FB : ... .. . ... ... ... : ... .. 4 ... ... ... : ... .. . ... : ... .. . ... : ... .. . ... ... : ... .. . ... ... : ... .. . ... ... : ... .. . ... ...
ROW FC : ... .. 2 ... ... ... : ... .. . ... ... ... : ... .. . ... : ... .. . ... : ... .. . ... ... : ... .. 5 ... ... : ... .. 5 ... ... : ... .. . ... ...
ROW FD : ... .. . ... ... ... : ... .. . ... ... ... : ... .. . ... : ... .. . ... : ... .. . ... ... : ... .. . ... ... : ... .. . ... ... : ... .. . ... ...
ROW FE : ... .. . ... ... ... : ... .. 3 ... ... ... : ... .. . ... : ... .. . ... : ... .. . ... ... : ... .. 4 ... ... : ... .. 4 ... ... : ... .. . ... ...
ROW FF : ... .. 1 ... ... ... : ... .. . ... ... ... : ... .. . ... : ... .. . ... : ... .. . ... ... : ... .. 3 ... ... : ... .. 3 ... ... : ... .. . ... ...

PATTERN 14
ROW 00 : F-4 00 F ... ... ... : D#3 00 8 ... ... ... : F-4 00 . ... : ... .. . ... : ... .. . ... ... : A#1 01 9 ... ... : F-3 01 9 ... ... : F-2 01 C ... ...
ROW 01 : ... .. E ... ... ... : ... .. 7 ... ... ... : ... .. . ... : ... .. . ... : ... .. . ... ... : ... .. 8 ... ... : ... .. 8 ... ... : ... .. A ... ...
ROW 02 : ... .. D ... ... ... : ... .. . ... ... ... : ... .. . ... : ... .. . ... : ... .. . ... ... : ... .. . ... ... : ... .. . ... ... : ... .. 6 ... ...
ROW 03 : ... .. A ... ... ... : ... .. 6 ... ... ... : ... .. . ... : ... .. . ... : ... .. . ... ... : ... .. . ... ... : ... .. . ... ... : ... .. . ... ...
ROW 04 : ... .. . ... ... ... : ... .. 5 ... ... ... : ... .. . ... : ... .. . ... : ... .. . ... ... : ... .. 7 ... ... : ... .. 7 ... ... : ... .. . ... ...
ROW 05 : ... .. . ... ... ... : ... .. 4 ... ... ... : ... .. . ... : ... .. . ... : ... .. . ... ... : ... .. . ... ... : ... .. . ... ... : ... .. . ... ...
ROW 06 : ... .. 2 ... ... ... : ... .. . ... ... ... : ... .. . ... : ... .. . ... : ... .. . ... ... : ... .. . ... ... : ... .. . ... ... : ... .. . ... ...
ROW 07 : ... .. . ... ... ... : ... .. . ... ... ... : ... .. . ... : ... .. . ... : ... .. . ... ... : ... .. 6 ... ... : ... .. 6 ... ... : ... .. . ... ...
ROW 08 : ... .. . ... ... ... : ... .. 3 ... ... ... : ... .. . ... : ... .. . ... : ... .. . ... ... : ... .. . ... ... : ... .. . ... ... : ... .. . ... ...
ROW 09 : ... .. 1 ... ... ... : ... .. . ... ... ... : ... .. . ... : ... .. . ... : ... .. . ... ... : ... .. . ... ... : ... .. . ... ... : ... .. . ... ...
ROW 0A : D#4 00 F ... ... ... : C-3 00 8 ... ... ... : --- .. . ... : ... .. . ... : ... .. . ... ... : C-2 01 9 ... ... : D#3 01 9 ... ... : G#2 01 C ... ...
ROW 0B : ... .. E ... ... ... : ... .. 7 ... ... ... : ... .. . ... : ... .. . ... : ... .. . ... ... : ... .. 8 ... ... : ... .. 8 ... ... : ... .. A ... ...
ROW 0C : ... .. D ... ... ... : ... .. . ... ... ... : ... .. . ... : ... .. . ... : ... .. . ... ... : ... .. . ... ... : ... .. . ... ... : ... .. 6 ... ...
ROW 0D : ... .. A ... ... ... : ... .. 6 ... ... ... : ... .. . ... : ... .. . ... : ... .. . ... ... : ... .. . ... ... : ... .. . ... ... : ... .. . ... ...
ROW 0E : ... .. . ... ... ... : ... .. 5 ... ... ... : ... .. . ... : ... .. . ... : ... .. . ... ... : ... .. 7 ... ... : ... .. 7 ... ... : ... .. . ... ...
ROW 0F : ... .. . ... ... ... : ... .. 4 ... ... ... : ... .. . ... : ... .. . ... : ... .. . ... ... : ... .. 6 ... ... : ... .. 6 ... ... : ... .. . ... ...
ROW 10 : ... .. 2 ... ... ... : ... .. . ... ... ... : ... .. . ... : ... .. . ... : ... .. . ... ... : ... .. 5 ... ... : ... .. 5 ... ... : ... .. . ... ...
ROW 11 : ... .. . ... ... ... : ... .. . ... ... ... : ... .. . ... : ... .. . ... : ... .. . ... ... : ... .. . ... ... : ... .. . ... ... : ... .. . ... ...
ROW 12 : ... .. . ... ... ... : ... .. 3 ... ... ... : ... .. . ... : ... .. . ... : ... .. . ... ... : ... .. 4 ... ... : ... .. 4 ... ... : ... .. . ... ...
ROW 13 : ... .. 1 ... ... ... : ... .. . ... ... ... : ... .. . ... : ... .. . ... : ... .. . ... ... : ... .. 3 ... ... : ... .. 3 ... ... : ... .. . ... ...
ROW 14 : D-4 00 F ... ... ... : D-3 00 8 ... ... ... : G-2 00 . ... : D-# 00 D V01 : ... .. . ... ... : D-2 01 9 ... ... : D-3 01 9 ... ... : G-2 01 C ... ...
ROW 15 : ... .. E ... ... ... : ... .. 7 ... ... ... : ... .. . ... : ... .. B ... : ... .. . ... ... : ... .. 8 ... ... : ... .. 8 ... ... : ... .. A ... ...
ROW 16 : ... .. D ... ... ... : ... .. . ... ... ... : ... .. . ... : ... .. . ... : ... .. . ... ... : ... .. . ... ... : ... .. . ... ... : ... .. 6 ... ...
ROW 17 : ... .. A ... ... ... : ... .. 6 ... ... ... : ... .. . ... : ... .. A ... : ... .. . ... ... : ... .. . ... ... : ... .. . ... ... : ... .. . ... ...
ROW 18 : ... .. . ... ... ... : ... .. 5 ... ... ... : ... .. . ... : ... .. 8 ... : ... .. . ... ... : ... .. 7 ... ... : ... .. 7 ... ... : ... .. . ... ...
ROW 19 : ... .. . ... ... ... : ... .. 4 ... ... ... : ... .. . ... : ... .. 7 ... : ... .. . ... ... : ... .. . ... ... : ... .. . ... ... : ... .. . ... ...
ROW 1A : ... .. . ... ... ... : ... .. . ... ... ... : ... .. . ... : ... .. 6 ... : ... .. . ... ... : ... .. . ... ... : ... .. . ... ... : ... .. . ... ...
ROW 1B : ... .. . ... ... ... : ... .. . ... ... ... : ... .. . ... : ... .. . ... : ... .. . ... ... : ... .. 6 ... ... : ... .. 6 ... ... : ... .. . ... ...
ROW 1C : ... .. . ... ... ... : ... .. 3 ... ... ... : ... .. . ... : ... .. 5 ... : ... .. . ... ... : ... .. . ... ... : ... .. . ... ... : ... .. . ... ...
ROW 1D : ... .. . ... ... ... : ... .. . ... ... ... : ... .. . ... : ... .. . ... : ... .. . ... ... : ... .. . ... ... : ... .. . ... ... : ... .. . ... ...
ROW 1E : ... .. . ... ... ... : G-2 00 8 ... ... ... : ... .. . ... : ... .. 4 ... : ... .. . ... ... : ... .. . ... ... : ... .. . ... ... : ... .. . ... ...
ROW 1F : ... .. . ... ... ... : ... .. 7 ... ... ... : ... .. . ... : ... .. . ... : ... .. . ... ... : ... .. . ... ... : ... .. . ... ... : ... .. . ... ...
ROW 20 : ... .. . ... ... ... : ... .. . ... ... ... : ... .. . ... : ... .. 3 ... : ... .. . ... ... : ... .. . ... ... : ... .. . ... ... : ... .. . ... ...
ROW 21 : ... .. . ... ... ... : ... .. 6 ... ... ... : ... .. . ... : ... .. 2 ... : ... .. . ... ... : ... .. . ... ... : ... .. . ... ... : ... .. . ... ...
ROW 22 : ... .. . ... ... ... : ... .. 5 ... ... ... : ... .. . ... : ... .. . ... : ... .. . ... ... : ... .. . ... ... : ... .. . ... ... : ... .. . ... ...
ROW 23 : ... .. . ... ... ... : ... .. 4 ... ... ... : ... .. . ... : ... .. 1 ... : ... .. . ... ... : ... .. . ... ... : ... .. . ... ... : ... .. . ... ...
ROW 24 : ... .. . ... ... ... : ... .. . ... ... ... : ... .. . ... : ... .. 0 ... : ... .. . ... ... : ... .. . ... ... : ... .. . ... ... : ... .. . ... ...
ROW 25 : ... .. . ... ... ... : ... .. . ... ... ... : ... .. . ... : ... .. . ... : ... .. . ... ... : ... .. . ... ... : ... .. . ... ... : ... .. . ... ...
ROW 26 : ... .. . ... ... ... : ... .. 3 ... ... ... : ... .. . ... : ... .. . ... : ... .. . ... ... : ... .. . ... ... : ... .. . ... ... : ... .. . ... ...
ROW 27 : ... .. . ... ... ... : ... .. . ... ... ... : ... .. . ... : ... .. . ... : ... .. . ... ... : ... .. . ... ... : ... .. . ... ... : ... .. . ... ...
ROW 28 : ... .. . ... ... ... : D-3 00 8 ... ... ... : D-4 00 . ... : 9-# 00 A V00 : ... .. . ... ... : ... .. . ... ... : ... .. . ... ... : ... .. . ... ...
ROW 29 : ... .. . ... ... ... : ... .. 7 ... ... ... : ... .. . ... : ... .. 8 ... : ... .. . ... ... : ... .. . ... ... : ... .. . ... ... : ... .. . ... ...
ROW 2A : ... .. . ... ... ... : ... .. . ... ... ... : ... .. . ... : ... .. 4 ... : ... .. . ... ... : ... .. . ... ... : ... .. . ... ... : ... .. . ... ...
ROW 2B : ... .. . ... ... ... : ... .. 6 ... ... ... : ... .. . ... : ... .. 2 ... : ... .. . ... ... : ... .. . ... ... : ... .. . ... ... : ... .. . ... ...
ROW 2C : ... .. . ... ... ... : ... .. 5 ... ... ... : ... .. . ... : ... .. 1 ... : ... .. . ... ... : ... .. . ... ... : ... .. . ... ... : ... .. . ... ...
ROW 2D : ... .. . ... ... ... : ... .. 4 ... ... ... : ... .. . ... : ... .. 0 ... : ... .. . ... ... : ... .. . ... ... : ... .. . ... ... : ... .. . ... ...
ROW 2E : ... .. 2 ... ... ... : ... .. . ... ... ... : ... .. . ... : ... .. . ... : ... .. . ... ... : ... .. 5 ... ... : ... .. 5 ... ... : ... .. 3 ... ...
ROW 2F : ... .. . ... ... ... : ... .. . ... ... ... : ... .. . ... : ... .. . ... : ... .. . ... ... : ... .. . ... ... : ... .. . ... ... : ... .. . ... ...
ROW 30 : ... .. . ... ... ... : ... .. 3 ... ... ... : ... .. . ... : ... .. . ... : ... .. . ... ... : ... .. 4 ... ... : ... .. 4 ... ... : ... .. 1 ... ...
ROW 31 : ... .. 1 ... ... ... : ... .. . ... ... ... : ... .. . ... : ... .. . ... : ... .. . ... ... : ... .. 3 ... ... : ... .. 3 ... ... : ... .. . ... ...
ROW 32 : G-3 00 F ... ... ... : G-2 00 8 ... ... ... : --- .. . ... : ... .. 8 ... : ... .. . ... ... : G-1 01 9 ... ... : G-2 01 9 ... ... : D-2 01 C ... ...
ROW 33 : ... .. E ... ... ... : ... .. 7 ... ... ... : ... .. . ... : ... .. 6 ... : ... .. . ... ... : ... .. 8 ... ... : ... .. 8 ... ... : ... .. A ... ...
ROW 34 : ... .. D ... ... ... : ... .. . ... ... ... : ... .. . ... : ... .. 3 ... : ... .. . ... ... : ... .. . ... ... : ... .. . ... ... : ... .. 6 ... ...
ROW 35 : ... .. A ... ... ... : ... .. 6 ... ... ... : ... .. . ... : ... .. 1 ... : ... .. . ... ... : ... .. . ... ... : ... .. . ... ... : ... .. . ... ...
ROW 36 : ... .. . ... ... ... : ... .. 5 ... ... ... : ... .. . ... : ... .. . ... : ... .. . ... ... : ... .. 7 ... ... : ... .. 7 ... ... : ... .. . ... ...
ROW 37 : ... .. . ... ... ... : ... .. 4 ... ... ... : ... .. . ... : ... .. 0 ... : ... .. . ... ... : ... .. 6 ... ... : ... .. 6 ... ... : ... .. . ... ...
ROW 38 : ... .. 2 ... ... ... : ... .. . ... ... ... : ... .. . ... : ... .. . ... : ... .. . ... ... : ... .. 5 ... ... : ... .. 5 ... ... : ... .. 3 ... ...
ROW 39 : ... .. . ... ... ... : ... .. . ... ... ... : ... .. . ... : ... .. . ... : ... .. . ... ... : ... .. . ... ... : ... .. . ... ... : ... .. . ... ...
ROW 3A : ... .. . ... ... ... : ... .. 3 ... ... ... : ... .. . ... : ... .. . ... : ... .. . ... ... : ... .. 4 ... ... : ... .. 4 ... ... : ... .. 1 ... ...
ROW 3B : ... .. 1 ... ... ... : ... .. . ... ... ... : ... .. . ... : ... .. . ... : ... .. . ... ... : ... .. 3 ... ... : ... .. 3 ... ... : ... .. . ... ...
ROW 3C : ... .. F ... ... ... : D-3 00 8 ... ... ... : G-1 00 . ... : ... .. F ... : ... .. . ... ... : ... .. 9 ... ... : ... .. 9 ... ... : ... .. C ... ...
ROW 3D : ... .. E ... ... ... : ... .. 7 ... ... ... : ... .. . ... : ... .. C ... : ... .. . ... ... : ... .. 8 ... ... : ... .. 8 ... ... : ... .. A ... ...
ROW 3E : ... .. D ... ... ... : ... .. . ... ... ... : ... .. . ... : ... .. 6 ... : ... .. . ... ... : ... .. . ... ... : ... .. . ... ... : ... .. 6 ... ...
ROW 3F : ... .. A ... ... ... : ... .. 6 ... ... ... : ... .. . ... : ... .. 3 ... : ... .. . ... ... : ... .. . ... ... : ... .. . ... ... : ... .. . ... ...
ROW 40 : ... .. . ... ... ... : ... .. 5 ... ... ... : ... .. . ... : ... .. 2 ... : ... .. . ... ... : ... .. 7 ... ... : ... .. 7 ... ... : ... .. . ... ...
ROW 41 : ... .. . ... ... ... : ... .. 4 ... ... ... : ... .. . ... : ... .. 0 ... : ... .. . ... ... : ... .. . ... ... : ... .. . ... ... : ... .. . ... ...
ROW 42 : ... .. . ... ... ... : ... .. . ... ... ... : ... .. . ... : ... .. . ... : ... .. . ... ... : ... .. . ... ... : ... .. . ... ... : ... .. . ... ...
ROW 43 : ... .. . ... ... ... : ... .. . ... ... ... : ... .. . ... : ... .. . ... : ... .. . ... ... : ... .. 6 ... ... : ... .. 6 ... ... : ... .. . ... ...
ROW 44 : ... .. . ... ... ... : ... .. 3 ... ... ... : ... .. . ... : ... .. . ... : ... .. . ... ... : ... .. . ... ... : ... .. . ... ... : ... .. . ... ...
ROW 45 : ... .. . ... ... ... : ... .. . ... ... ... : ... .. . ... : ... .. . ... : ... .. . ... ... : ... .. . ... ... : ... .. . ... ... : ... .. . ... ...
ROW 46 : ... .. . ... ... ... : G-2 00 8 ... ... ... : ... .. . ... : ... .. . ... : ... .. . ... ... : ... .. . ... ... : ... .. . ... ... : ... .. . ... ...
ROW 47 : ... .. . ... ... ... : ... .. 7 ... ... ... : ... .. . ... : ... .. . ... : ... .. . ... ... : ... .. . ... ... : ... .. . ... ... : ... .. . ... ...
ROW 48 : ... .. . ... ... ... : ... .. . ... ... ... : ... .. . ... : ... .. . ... : ... .. . ... ... : ... .. . ... ... : ... .. . ... ... : ... .. . ... ...
ROW 49 : ... .. . ... ... ... : ... .. 6 ... ... ... : ... .. . ... : ... .. . ... : ... .. . ... ... : ... .. . ... ... : ... .. . ... ... : ... .. . ... ...
ROW 4A : ... .. . ... ... ... : ... .. 5 ... ... ... : ... .. . ... : ... .. . ... : ... .. . ... ... : ... .. . ... ... : ... .. . ... ... : ... .. . ... ...
ROW 4B : ... .. . ... ... ... : ... .. 4 ... ... ... : ... .. . ... : ... .. . ... : ... .. . ... ... : ... .. . ... ... : ... .. . ... ... : ... .. . ... ...
ROW 4C : ... .. . ... ... ... : ... .. . ... ... ... : ... .. . ... : ... .. . ... : ... .. . ... ... : ... .. . ... ... : ... .. . ... ... : ... .. . ... ...
ROW 4D : ... .. . ... ... ... : ... .. . ... ... ... : ... .. . ... : ... .. . ... : ... .. . ... ... : ... .. . ... ... : ... .. . ... ... : ... .. . ... ...
ROW 4E : ... .. . ... ... ... : ... .. 3 ... ... ... : ... .. . ... : ... .. . ... : ... .. . ... ... : ... .. . ... ... : ... .. . ... ... : ... .. . ... ...
ROW 4F : ... .. . ... ... ... : ... .. . ... ... ... : ... .. . ... : ... .. . ... : ... .. . ... ... : ... .. . ... ... : ... .. . ... ... : ... .. . ... ...
ROW 50 : ... .. . ... ... ... : D-3 00 8 ... ... ... : B-3 00 . ... : D-# 00 F ... : ... .. . ... ... : ... .. . ... ... : ... .. . ... ... : ... .. . ... ...
ROW 51 : ... .. . ... ... ... : ... .. 7 ... ... ... : ... .. . ... : ... .. C ... : ... .. . ... ... : ... .. . ... ... : ... .. . ... ... : ... .. . ... ...
ROW 52 : ... .. . ... ... ... : ... .. . ... ... ... : ... .. . ... : ... .. 6 ... : ... .. . ... ... : ... .. . ... ... : ... .. . ... ... : ... .. . ... ...
ROW 53 : ... .. . ... ... ... : ... .. 6 ... ... ... : ... .. . ... : ... .. 3 ... : ... .. . ... ... : ... .. . ... ... : ... .. . ... ... : ... .. . ... ...
ROW 54 : ... .. . ... ... ... : ... .. 5 ... ... ... : ... .. . ... : ... .. 2 ... : ... .. . ... ... : ... .. . ... ... : ... .. . ... ... : ... .. . ... ...
ROW 55 : ... .. . ... ... ... : ... .. 4 ... ... ... : ... .. . ... : ... .. 0 ... : ... .. . ... ... : ... .. . ... ... : ... .. . ... ... : ... .. . ... ...
ROW 56 : ... .. . ... ... ... : ... .. . ... ... ... : ... .. . ... : ... .. . ... : ... .. . ... ... : ... .. . ... ... : ... .. . ... ... : ... .. . ... ...
ROW 57 : ... .. . ... ... ... : ... .. . ... ... ... : ... .. . ... : ... .. . ... : ... .. . ... ... : ... .. . ... ... : ... .. . ... ... : ... .. . ... ...
ROW 58 : ... .. . ... ... ... : ... .. 3 ... ... ... : ... .. . ... : ... .. . ... : ... .. . ... ... : ... .. . ... ... : ... .. . ... ... : ... .. . ... ...
ROW 59 : ... .. . ... ... ... : ... .. . ... ... ... : ... .. . ... : ... .. . ... : ... .. . ... ... : ... .. . ... ... : ... .. . ... ... : ... .. . ... ...
ROW 5A : ... .. . ... ... ... : G-2 00 8 ... ... ... : --- .. . ... : ... .. . ... : ... .. . ... ... : ... .. . ... ... : ... .. . ... ... : ... .. . ... ...
ROW 5B : ... .. . ... ... ... : ... .. 7 ... ... ... : ... .. . ... : ... .. . ... : ... .. . ... ... : ... .. . ... ... : ... .. . ... ... : ... .. . ... ...
ROW 5C : ... .. . ... ... ... : ... .. . ... ... ... : ... .. . ... : ... .. . ... : ... .. . ... ... : ... .. . ... ... : ... .. . ... ... : ... .. . ... ...
ROW 5D : ... .. . ... ... ... : ... .. 6 ... ... ... : ... .. . ... : ... .. . ... : ... .. . ... ... : ... .. . ... ... : ... .. . ... ... : ... .. . ... ...
ROW 5E : ... .. . ... ... ... : ... .. 5 ... ... ... : ... .. . ... : ... .. . ... : ... .. . ... ... : ... .. . ... ... : ... .. . ... ... : ... .. . ... ...
ROW 5F : ... .. . ... ... ... : ... .. 4 ... ... ... : ... .. . ... : ... .. . ... : ... .. . ... ... : ... .. . ... ... : ... .. . ... ... : ... .. . ... ...
ROW 60 : ... .. 2 ... ... ... : ... .. . ... ... ... : ... .. . ... : ... .. . ... : ... .. . ... ... : ... .. . ... ... : ... .. . ... ... : ... .. 3 ... ...
ROW 61 : ... .. . ... ... ... : ... .. . ... ... ... : ... .. . ... : ... .. . ... : ... .. . ... ... : ... .. . ... ... : ... .. . ... ... : ... .. . ... ...
ROW 62 : ... .. . ... ... ... : ... .. 3 ... ... ... : ... .. . ... : ... .. . ... : ... .. . ... ... : ... .. . ... ... : ... .. . ... ... : ... .. 1 ... ...
ROW 63 : ... .. 1 ... ... ... : ... .. . ... ... ... : ... .. . ... : ... .. . ... : ... .. . ... ... : ... .. . ... ... : ... .. . ... ... : ... .. . ... ...
ROW 64 : D-3 00 F ... ... ... : D-3 00 8 ... ... ... : G-2 00 . ... : ... .. D ... : ... .. . ... ... : B-3 01 9 ... ... : ... .. . ... ... : F-3 01 C ... ...
ROW 65 : ... .. E ... ... ... : ... .. 7 ... ... ... : ... .. . ... : ... .. B ... : ... .. . ... ... : ... .. 8 ... ... : ... .. . ... ... : ... .. A ... ...
ROW 66 : ... .. D ... ... ... : ... .. . ... ... ... : ... .. . ... : ... .. . ... : ... .. . ... ... : ... .. . ... ... : ... .. . ... ... : ... .. 6 ... ...
ROW 67 : ... .. A ... ... ... : ... .. 6 ... ... ... : ... .. . ... : ... .. A ... : ... .. . ... ... : ... .. . ... ... : ... .. . ... ... : ... .. . ... ...
ROW 68 : ... .. . ... ... ... : ... .. 5 ... ... ... : ... .. . ... : ... .. 8 ... : ... .. . ... ... : ... .. 7 ... ... : ... .. . ... ... : ... .. . ... ...
ROW 69 : ... .. . ... ... ... : ... .. 4 ... ... ... : ... .. . ... : ... .. 7 ... : ... .. . ... ... : ... .. . ... ... : ... .. . ... ... : ... .. . ... ...
ROW 6A : ... .. . ... ... ... : ... .. . ... ... ... : ... .. . ... : ... .. 6 ... : ... .. . ... ... : ... .. . ... ... : ... .. . ... ... : ... .. . ... ...
ROW 6B : ... .. . ... ... ... : ... .. . ... ... ... : ... .. . ... : ... .. . ... : ... .. . ... ... : ... .. 6 ... ... : ... .. . ... ... : ... .. . ... ...
ROW 6C : ... .. . ... ... ... : ... .. 3 ... ... ... : ... .. . ... : ... .. 5 ... : ... .. . ... ... : ... .. . ... ... : ... .. . ... ... : ... .. . ... ...
ROW 6D : ... .. . ... ... ... : ... .. . ... ... ... : ... .. . ... : ... .. . ... : ... .. . ... ... : ... .. . ... ... : ... .. . ... ... : ... .. . ... ...
ROW 6E : ... .. . ... ... ... : G-2 00 8 ... ... ... : ... .. . ... : ... .. 4 ... : ... .. . ... ... : ... .. . ... ... : ... .. . ... ... : ... .. . ... ...
ROW 6F : ... .. . ... ... ... : ... .. 7 ... ... ... : ... .. . ... : ... .. . ... : ... .. . ... ... : ... .. . ... ... : ... .. . ... ... : ... .. . ... ...
ROW 70 : ... .. . ... ... ... : ... .. . ... ... ... : ... .. . ... : ... .. 3 ... : ... .. . ... ... : ... .. . ... ... : ... .. . ... ... : ... .. . ... ...
ROW 71 : ... .. . ... ... ... : ... .. 6 ... ... ... : ... .. . ... : ... .. 2 ... : ... .. . ... ... : ... .. . ... ... : ... .. . ... ... : ... .. . ... ...
ROW 72 : ... .. . ... ... ... : ... .. 5 ... ... ... : ... .. . ... : ... .. . ... : ... .. . ... ... : ... .. . ... ... : ... .. . ... ... : ... .. . ... ...
ROW 73 : ... .. . ... ... ... : ... .. 4 ... ... ... : ... .. . ... : ... .. 1 ... : ... .. . ... ... : ... .. . ... ... : ... .. . ... ... : ... .. . ... ...
ROW 74 : ... .. . ... ... ... : ... .. . ... ... ... : ... .. . ... : ... .. 0 ... : ... .. . ... ... : ... .. . ... ... : ... .. . ... ... : ... .. . ... ...
ROW 75 : ... .. . ... ... ... : ... .. . ... ... ... : ... .. . ... : ... .. . ... : ... .. . ... ... : ... .. . ... ... : ... .. . ... ... : ... .. . ... ...
ROW 76 : ... .. . ... ... ... : ... .. 3 ... ... ... : ... .. . ... : ... .. . ... : ... .. . ... ... : ... .. . ... ... : ... .. . ... ... : ... .. . ... ...
ROW 77 : ... .. . ... ... ... : ... .. . ... ... ... : ... .. . ... : ... .. . ... : ... .. . ... ... : ... .. . ... ... : ... .. . ... ... : ... .. . ... ...
ROW 78 : ... .. . ... ... ... : D-3 00 8 ... ... ... : F-4 00 . ... : 9-# 00 A ... : ... .. . ... ... : ... .. . ... ... : ... .. . ... ... : ... .. . ... ...
ROW 79 : ... .. . ... ... ... : ... .. 7 ... ... ... : ... .. . ... : ... .. 8 ... : ... .. . ... ... : ... .. . ... ... : ... .. . ... ... : ... .. . ... ...
ROW 7A : ... .. . ... ... ... : ... .. . ... ... ... : ... .. . ... : ... .. 4 ... : ... .. . ... ... : ... .. . ... ... : ... .. . ... ... : ... .. . ... ...
ROW 7B : ... .. . ... ... ... : ... .. 6 ... ... ... : ... .. . ... : ... .. 2 ... : ... .. . ... ... : ... .. . ... ... : ... .. . ... ... : ... .. . ... ...
ROW 7C : ... .. . ... ... ... : ... .. 5 ... ... ... : ... .. . ... : ... .. 1 ... : ... .. . ... ... : ... .. . ... ... : ... .. . ... ... : ... .. . ... ...
ROW 7D : ... .. . ... ... ... : ... .. 4 ... ... ... : ... .. . ... : ... .. 0 ... : ... .. . ... ... : ... .. . ... ... : ... .. . ... ... : ... .. . ... ...
ROW 7E : ... .. 2 ... ... ... : ... .. . ... ... ... : ... .. . ... : ... .. . ... : ... .. . ... ... : ... .. 5 ... ... : ... .. . ... ... : ... .. 3 ... ...
ROW 7F : ... .. . ... ... ... : ... .. . ... ... ... : ... .. . ... : ... .. . ... : ... .. . ... ... : ... .. . ... ... : ... .. . ... ... : ... .. . ... ...
ROW 80 : ... .. . ... ... ... : ... .. 3 ... ... ... : ... .. . ... : ... .. . ... : ... .. . ... ... : ... .. 4 ... ... : ... .. . ... ... : ... .. 1 ... ...
ROW 81 : ... .. 1 ... ... ... : ... .. . ... ... ... : ... .. . ... : ... .. . ... : ... .. . ... ... : ... .. 3 ... ... : ... .. . ... ... : ... .. . ... ...
ROW 82 : G-2 00 F ... ... ... : G-2 00 8 ... ... ... : --- .. . ... : ... .. 8 ... : ... .. . ... ... : D-3 01 9 ... ... : ... .. . ... ... : B-2 01 C ... ...
ROW 83 : ... .. E ... ... ... : ... .. 7 ... ... ... : ... .. . ... : ... .. 6 ... : ... .. . ... ... : ... .. 8 ... ... : ... .. . ... ... : ... .. A ... ...
ROW 84 : ... .. D ... ... ... : ... .. . ... ... ... : ... .. . ... : ... .. 3 ... : ... .. . ... ... : ... .. . ... ... : ... .. . ... ... : ... .. 6 ... ...
ROW 85 : ... .. A ... ... ... : ... .. 6 ... ... ... : ... .. . ... : ... .. 1 ... : ... .. . ... ... : ... .. . ... ... : ... .. . ... ... : ... .. . ... ...
ROW 86 : ... .. . ... ... ... : ... .. 5 ... ... ... : ... .. . ... : ... .. . ... : ... .. . ... ... : ... .. 7 ... ... : ... .. . ... ... : ... .. . ... ...
ROW 87 : ... .. . ... ... ... : ... .. 4 ... ... ... : ... .. . ... : ... .. 0 ... : ... .. . ... ... : ... .. 6 ... ... : ... .. . ... ... : ... .. . ... ...
ROW 88 : ... .. 2 ... ... ... : ... .. . ... ... ... : ... .. . ... : ... .. . ... : ... .. . ... ... : ... .. 5 ... ... : ... .. . ... ... : ... .. 3 ... ...
ROW 89 : ... .. . ... ... ... : ... .. . ... ... ... : ... .. . ... : ... .. . ... : ... .. . ... ... : ... .. . ... ... : ... .. . ... ... : ... .. . ... ...
ROW 8A : ... .. . ... ... ... : ... .. 3 ... ... ... : ... .. . ... : ... .. . ... : ... .. . ... ... : ... .. 4 ... ... : ... .. . ... ... : ... .. 1 ... ...
ROW 8B : ... .. 1 ... ... ... : ... .. . ... ... ... : ... .. . ... : ... .. . ... : ... .. . ... ... : ... .. 3 ... ... : ... .. . ... ... : ... .. . ... ...
ROW 8C : ... .. F ... ... ... : D-3 00 8 ... ... ... : G-1 00 . ... : ... .. F ... : ... .. . ... ... : ... .. 9 ... ... : ... .. . ... ... : ... .. C ... ...
ROW 8D : ... .. E ... ... ... : ... .. 7 ... ... ... : ... .. . ... : ... .. C ... : ... .. . ... ... : ... .. 8 ... ... : ... .. . ... ... : ... .. A ... ...
ROW 8E : ... .. D ... ... ... : ... .. . ... ... ... : ... .. . ... : ... .. 6 ... : ... .. . ... ... : ... .. . ... ... : ... .. . ... ... : ... .. 6 ... ...
ROW 8F : ... .. A ... ... ... : ... .. 6 ... ... ... : ... .. . ... : ... .. 3 ... : ... .. . ... ... : ... .. . ... ... : ... .. . ... ... : ... .. . ... ...
ROW 90 : ... .. . ... ... ... : ... .. 5 ... ... ... : ... .. . ... : ... .. 2 ... : ... .. . ... ... : ... .. 7 ... ... : ... .. . ... ... : ... .. . ... ...
ROW 91 : ... .. . ... ... ... : ... .. 4 ... ... ... : ... .. . ... : ... .. 0 ... : ... .. . ... ... : ... .. . ... ... : ... .. . ... ... : ... .. . ... ...
ROW 92 : ... .. . ... ... ... : ... .. . ... ... ... : ... .. . ... : ... .. . ... : ... .. . ... ... : ... .. . ... ... : ... .. . ... ... : ... .. . ... ...
ROW 93 : ... .. . ... ... ... : ... .. . ... ... ... : ... .. . ... : ... .. . ... : ... .. . ... ... : ... .. 6 ... ... : ... .. . ... ... : ... .. . ... ...
ROW 94 : ... .. . ... ... ... : ... .. 3 ... ... ... : ... .. . ... : ... .. . ... : ... .. . ... ... : ... .. . ... ... : ... .. . ... ... : ... .. . ... ...
ROW 95 : ... .. . ... ... ... : ... .. . ... ... ... : ... .. . ... : ... .. . ... : ... .. . ... ... : ... .. . ... ... : ... .. . ... ... : ... .. . ... ...
ROW 96 : ... .. . ... ... ... : G-2 00 8 ... ... ... : ... .. . ... : ... .. . ... : ... .. . ... ... : ... .. . ... ... : ... .. . ... ... : ... .. . ... ...
ROW 97 : ... .. . ... ... ... : ... .. 7 ... ... ... : ... .. . ... : ... .. . ... : ... .. . ... ... : ... .. . ... ... : ... .. . ... ... : ... .. . ... ...
ROW 98 : ... .. . ... ... ... : ... .. . ... ... ... : ... .. . ... : ... .. . ... : ... .. . ... ... : ... .. . ... ... : ... .. . ... ... : ... .. . ... ...
ROW 99 : ... .. . ... ... ... : ... .. 6 ... ... ... : ... .. . ... : ... .. . ... : ... .. . ... ... : ... .. . ... ... : ... .. . ... ... : ... .. . ... ...
ROW 9A : ... .. . ... ... ... : ... .. 5 ... ... ... : ... .. . ... : ... .. . ... : ... .. . ... ... : ... .. . ... ... : ... .. . ... ... : ... .. . ... ...
ROW 9B : ... .. . ... ... ... : ... .. 4 ... ... ... : ... .. . ... : ... .. . ... : ... .. . ... ... : ... .. . ... ... : ... .. . ... ... : ... .. . ... ...
ROW 9C : ... .. . ... ... ... : ... .. . ... ... ... : ... .. . ... : ... .. . ... : ... .. . ... ... : ... .. . ... ... : ... .. . ... ... : ... .. . ... ...
ROW 9D : ... .. . ... ... ... : ... .. . ... ... ... : ... .. . ... : ... .. . ... : ... .. . ... ... : ... .. . ... ... : ... .. . ... ... : ... .. . ... ...
ROW 9E : ... .. . ... ... ... : ... .. 3 ... ... ... : ... .. . ... : ... .. . ... : ... .. . ... ... : ... .. . ... ... : ... .. . ... ... : ... .. . ... ...
ROW 9F : ... .. . ... ... ... : ... .. . ... ... ... : ... .. . ... : ... .. . ... : ... .. . ... ... : ... .. . ... ... : ... .. . ... ... : ... .. . ... ...
ROW A0 : C-4 00 F ... ... ... : D-3 00 8 ... ... ... : B-3 00 . ... : ... .. . ... : ... .. . ... ... : F-3 01 9 ... ... : ... .. . ... ... : D-3 01 C ... ...
ROW A1 : ... .. E ... ... ... : ... .. 7 ... ... ... : ... .. . ... : ... .. . ... : ... .. . ... ... : ... .. 8 ... ... : ... .. 5 ... ... : ... .. A ... ...
ROW A2 : ... .. D ... ... ... : ... .. . ... ... ... : ... .. . ... : ... .. . ... : ... .. . ... ... : ... .. . ... ... : ... .. . ... ... : ... .. 6 ... ...
ROW A3 : ... .. A ... ... ... : ... .. 6 ... ... ... : ... .. . ... : ... .. . ... : ... .. . ... ... : ... .. . ... ... : ... .. 4 ... ... : ... .. . ... ...
ROW A4 : ... .. . ... ... ... : ... .. 5 ... ... ... : ... .. . ... : ... .. . ... : ... .. . ... ... : ... .. 7 ... ... : ... .. 3 ... ... : ... .. . ... ...
ROW A5 : ... .. . ... ... ... : ... .. 4 ... ... ... : ... .. . ... : ... .. . ... : ... .. . ... ... : ... .. . ... ... : ... .. . ... ... : ... .. . ... ...
ROW A6 : ... .. . ... ... ... : ... .. . ... ... ... : ... .. . ... : ... .. . ... : ... .. . ... ... : ... .. . ... ... : ... .. . ... ... : ... .. . ... ...
ROW A7 : ... .. . ... ... ... : ... .. . ... ... ... : ... .. . ... : ... .. . ... : ... .. . ... ... : ... .. 6 ... ... : ... .. . ... ... : ... .. . ... ...
ROW A8 : ... .. . ... ... ... : ... .. 3 ... ... ... : ... .. . ... : ... .. . ... : ... .. . ... ... : ... .. . ... ... : ... .. . ... ... : ... .. . ... ...
ROW A9 : ... .. . ... ... ... : ... .. . ... ... ... : ... .. . ... : ... .. . ... : ... .. . ... ... : ... .. . ... ... : ... .. . ... ... : ... .. . ... ...
ROW AA : ... .. . ... ... ... : G-2 00 8 ... ... ... : --- .. . ... : ... .. . ... : ... .. . ... ... : G-3 01 9 ... ... : ... .. . ... ... : ... .. . ... ...
ROW AB : ... .. 2 ... ... ... : ... .. 7 ... ... ... : ... .. . ... : ... .. . ... : ... .. . ... ... : ... .. 8 ... ... : ... .. . ... ... : ... .. 3 ... ...
ROW AC : ... .. . ... ... ... : ... .. . ... ... ... : ... .. . ... : ... .. . ... : ... .. . ... ... : ... .. . ... ... : ... .. . ... ... : ... .. . ... ...
ROW AD : ... .. . ... ... ... : ... .. 6 ... ... ... : ... .. . ... : ... .. . ... : ... .. . ... ... : ... .. . ... ... : ... .. . ... ... : ... .. 1 ... ...
ROW AE : ... .. 1 ... ... ... : ... .. 5 ... ... ... : ... .. . ... : ... .. . ... : ... .. . ... ... : ... .. 7 ... ... : ... .. . ... ... : ... .. . ... ...
ROW AF : ... .. . ... ... ... : ... .. 4 ... ... ... : ... .. . ... : ... .. . ... : ... .. . ... ... : F-3 01 9 ... ... : ... .. 1 ... ... : ... .. . ... ...
ROW B0 : ... .. . ... ... ... : ... .. . ... ... ... : ... .. . ... : ... .. . ... : ... .. . ... ... : ... .. 8 ... ... : ... .. . ... ... : ... .. . ... ...
ROW B1 : ... .. 0 ... V00 ... : ... .. . ... ... ... : ... .. . ... : ... .. . ... : ... .. . ... ... : ... .. . ... ... : ... .. . ... ... : ... .. . ... ...
ROW B2 : ... .. . ... ... ... : ... .. 3 ... ... ... : ... .. . ... : ... .. . ... : ... .. . ... ... : ... .. . ... ... : ... .. . ... ... : ... .. . ... ...
ROW B3 : ... .. . ... ... ... : ... .. . ... ... ... : ... .. . ... : ... .. . ... : ... .. . ... ... : ... .. 7 ... ... : ... .. . ... ... : ... .. . ... ...
ROW B4 : G#4 00 F P80 V01 ... : F-3 00 8 ... ... ... : F-2 00 . ... : D-# 00 D V01 : ... .. . ... ... : G#2 01 9 ... ... : D#3 01 9 ... ... : C-3 01 C ... ...
ROW B5 : ... .. E ... ... ... : ... .. 7 ... ... ... : ... .. . ... : ... .. B ... : ... .. . ... ... : ... .. 8 ... ... : ... .. 8 ... ... : ... .. A ... ...
ROW B6 : ... .. D ... ... ... : ... .. . ... ... ... : ... .. . ... : ... .. . ... : ... .. . ... ... : ... .. . ... ... : ... .. . ... ... : ... .. 6 ... ...
ROW B7 : ... .. A ... ... ... : ... .. 6 ... ... ... : ... .. . ... : ... .. A ... : ... .. . ... ... : ... .. . ... ... : ... .. . ... ... : ... .. . ... ...
ROW B8 : ... .. . ... ... ... : ... .. 5 ... ... ... : ... .. . ... : ... .. 8 ... : ... .. . ... ... : ... .. 7 ... ... : ... .. 7 ... ... : ... .. . ... ...
ROW B9 : ... .. . ... ... ... : ... .. 4 ... ... ... : ... .. . ... : ... .. 7 ... : ... .. . ... ... : ... .. 6 ... ... : ... .. 6 ... ... : ... .. . ... ...
ROW BA : ... .. 2 ... ... ... : ... .. . ... ... ... : ... .. . ... : ... .. 6 ... : ... .. . ... ... : ... .. 5 ... ... : ... .. 5 ... ... : ... .. . ... ...
ROW BB : ... .. . ... ... ... : ... .. . ... ... ... : ... .. . ... : ... .. . ... : ... .. . ... ... : ... .. . ... ... : ... .. . ... ... : ... .. . ... ...
ROW BC : ... .. . ... ... ... : ... .. 3 ... ... ... : ... .. . ... : ... .. 5 ... : ... .. . ... ... : ... .. 4 ... ... : ... .. 4 ... ... : ... .. . ... ...
ROW BD : ... .. 1 ... ... ... : ... .. . ... ... ... : ... .. . ... : ... .. . ... : ... .. . ... ... : ... .. 3 ... ... : ... .. 3 ... ... : ... .. . ... ...
ROW BE : G-4 00 F ... ... ... : C-3 00 8 ... ... ... : ... .. . ... : ... .. 4 ... : ... .. . ... ... : G-2 01 9 ... ... : D-3 01 9 ... ... : ... .. . ... ...
ROW BF : ... .. E ... ... ... : ... .. 7 ... ... ... : ... .. . ... : ... .. . ... : ... .. . ... ... : ... .. 8 ... ... : ... .. 8 ... ... : ... .. . ... ...
ROW C0 : ... .. D ... ... ... : ... .. . ... ... ... : ... .. . ... : ... .. 3 ... : ... .. . ... ... : ... .. . ... ... : ... .. . ... ... : ... .. . ... ...
ROW C1 : ... .. A ... ... ... : ... .. 6 ... ... ... : ... .. . ... : ... .. 2 ... : ... .. . ... ... : ... .. . ... ... : ... .. . ... ... : ... .. . ... ...
ROW C2 : ... .. . ... ... ... : ... .. 5 ... ... ... : ... .. . ... : ... .. . ... : ... .. . ... ... : ... .. 7 ... ... : ... .. 7 ... ... : ... .. . ... ...
ROW C3 : ... .. . ... ... ... : ... .. 4 ... ... ... : ... .. . ... : ... .. 1 ... : ... .. . ... ... : ... .. 6 ... ... : ... .. 6 ... ... : ... .. . ... ...
ROW C4 : ... .. 2 ... ... ... : ... .. . ... ... ... : ... .. . ... : ... .. 0 ... : ... .. . ... ... : ... .. 5 ... ... : ... .. 5 ... ... : ... .. . ... ...
ROW C5 : ... .. . ... ... ... : ... .. . ... ... ... : ... .. . ... : ... .. . ... : ... .. . ... ... : ... .. . ... ... : ... .. . ... ... : ... .. . ... ...
ROW C6 : ... .. . ... ... ... : ... .. 3 ... ... ... : ... .. . ... : ... .. . ... : ... .. . ... ... : ... .. 4 ... ... : ... .. 4 ... ... : ... .. . ... ...
ROW C7 : ... .. 1 ... ... ... : ... .. . ... ... ... : ... .. . ... : ... .. . ... : ... .. . ... ... : ... .. 3 ... ... : ... .. 3 ... ... : ... .. . ... ...
ROW C8 : G#4 00 F ... ... ... : F-3 00 8 ... ... ... : G#3 00 . ... : 9-# 00 A V00 : ... .. . ... ... : G#2 01 9 ... ... : D#3 01 9 ... ... : ... .. . ... ...
ROW C9 : ... .. E ... ... ... : ... .. 7 ... ... ... : ... .. . ... : ... .. 8 ... : ... .. . ... ... : ... .. 8 ... ... : ... .. 8 ... ... : ... .. . ... ...
ROW CA : ... .. D ... ... ... : ... .. . ... ... ... : ... .. . ... : ... .. 4 ... : ... .. . ... ... : ... .. . ... ... : ... .. . ... ... : ... .. . ... ...
ROW CB : ... .. A ... ... ... : ... .. 6 ... ... ... : ... .. . ... : ... .. 2 ... : ... .. . ... ... : ... .. . ... ... : ... .. . ... ... : ... .. . ... ...
ROW CC : ... .. . ... ... ... : ... .. 5 ... ... ... : ... .. . ... : ... .. 1 ... : ... .. . ... ... : ... .. 7 ... ... : ... .. 7 ... ... : ... .. . ... ...
ROW CD : ... .. . ... ... ... : ... .. 4 ... ... ... : ... .. . ... : ... .. 0 ... : ... .. . ... ... : ... .. 6 ... ... : ... .. 6 ... ... : ... .. . ... ...
ROW CE : ... .. . ... ... ... : ... .. . ... ... ... : ... .. . ... : ... .. . ... : ... .. . ... ... : ... .. 5 ... ... : ... .. 5 ... ... : ... .. . ... ...
ROW CF : ... .. . ... ... ... : ... .. . ... ... ... : ... .. . ... : ... .. . ... : ... .. . ... ... : ... .. . ... ... : ... .. . ... ... : ... .. . ... ...
ROW D0 : ... .. . ... ... ... : ... .. 3 ... ... ... : ... .. . ... : ... .. . ... : ... .. . ... ... : ... .. 4 ... ... : ... .. 4 ... ... : ... .. . ... ...
ROW D1 : ... .. . ... ... ... : ... .. . ... ... ... : ... .. . ... : ... .. . ... : ... .. . ... ... : ... .. 3 ... ... : ... .. 3 ... ... : ... .. . ... ...
ROW D2 : ... .. . ... ... ... : C-3 00 8 ... ... ... : --- .. . ... : ... .. 8 ... : ... .. . ... ... : G-2 01 9 ... ... : D-3 01 9 ... ... : ... .. . ... ...
ROW D3 : ... .. . ... ... ... : ... .. 7 ... ... ... : ... .. . ... : ... .. 6 ... : ... .. . ... ... : ... .. 8 ... ... : ... .. 8 ... ... : ... .. . ... ...
ROW D4 : ... .. . ... ... ... : ... .. . ... ... ... : ... .. . ... : ... .. 3 ... : ... .. . ... ... : ... .. . ... ... : ... .. . ... ... : ... .. . ... ...
ROW D5 : ... .. . ... ... ... : ... .. 6 ... ... ... : ... .. . ... : ... .. 1 ... : ... .. . ... ... : ... .. . ... ... : ... .. . ... ... : ... .. . ... ...
ROW D6 : ... .. . ... ... ... : ... .. 5 ... ... ... : ... .. . ... : ... .. . ... : ... .. . ... ... : ... .. 7 ... ... : ... .. 7 ... ... : ... .. . ... ...
ROW D7 : ... .. . P82 ... ... : ... .. 4 ... ... ... : ... .. . ... : ... .. 0 ... : ... .. . ... ... : ... .. 6 ... ... : ... .. 6 ... ... : ... .. . ... ...
ROW D8 : ... .. . P83 ... ... : ... .. . ... ... ... : ... .. . ... : ... .. . ... : ... .. . ... ... : ... .. 5 ... ... : ... .. 5 ... ... : ... .. . ... ...
ROW D9 : ... .. . ... ... ... : ... .. . ... ... ... : ... .. . ... : ... .. . ... : ... .. . ... ... : ... .. . ... ... : ... .. . ... ... : ... .. . ... ...
ROW DA : ... .. . P81 ... ... : ... .. 3 ... ... ... : ... .. . ... : ... .. . ... : ... .. . ... ... : ... .. 4 ... ... : ... .. 4 ... ... : ... .. . ... ...
ROW DB : ... .. . P7F ... ... : ... .. . ... ... ... : ... .. . ... : ... .. . ... : ... .. . ... ... : ... .. 3 ... ... : ... .. 3 ... ... : ... .. . ... ...
ROW DC : ... .. . P7D ... ... : F-3 00 8 ... ... ... : F-1 00 . ... : ... .. F ... : ... .. . ... ... : F-2 01 9 ... ... : C-3 01 9 ... ... : F-3 01 C ... ...
ROW DD : ... .. . ... ... ... : ... .. 7 ... ... ... : ... .. . ... : ... .. C ... : ... .. . ... ... : ... .. 8 ... ... : ... .. 8 ... ... : ... .. A ... ...
ROW DE : ... .. . P7E ... ... : ... .. . ... ... ... : ... .. . ... : ... .. 6 ... : ... .. . ... ... : ... .. . ... ... : ... .. . ... ... : ... .. 6 ... ...
ROW DF : ... .. . P80 ... ... : ... .. 6 ... ... ... : ... .. . ... : ... .. 3 ... : ... .. . ... ... : ... .. . ... ... : ... .. . ... ... : ... .. . ... ...
ROW E0 : ... .. . P82 ... ... : ... .. 5 ... ... ... : ... .. . ... : ... .. 2 ... : ... .. . ... ... : ... .. 7 ... ... : ... .. 7 ... ... : ... .. . ... ...
ROW E1 : ... .. . P83 ... ... : ... .. 4 ... ... ... : ... .. . ... : ... .. 0 ... : ... .. . ... ... : ... .. . ... ... : ... .. . ... ... : ... .. . ... ...
ROW E2 : ... .. . ... ... ... : ... .. . ... ... ... : ... .. . ... : ... .. . ... : ... .. . ... ... : ... .. . ... ... : ... .. . ... ... : ... .. . ... ...
ROW E3 : ... .. . P81 ... ... : ... .. . ... ... ... : ... .. . ... : ... .. . ... : ... .. . ... ... : ... .. 6 ... ... : ... .. 6 ... ... : ... .. . ... ...
ROW E4 : ... .. . P80 ... ... : ... .. 3 ... ... ... : ... .. . ... : ... .. . ... : ... .. . ... ... : ... .. . ... ... : ... .. . ... ... : ... .. . ... ...
ROW E5 : ... .. . P7D ... ... : ... .. . ... ... ... : ... .. . ... : ... .. . ... : ... .. . ... ... : ... .. . ... ... : ... .. . ... ... : ... .. . ... ...
ROW E6 : ... .. . ... ... ... : C-3 00 8 ... ... ... : ... .. . ... : ... .. . ... : ... .. . ... ... : ... .. . ... ... : ... .. . ... ... : ... .. . ... ...
ROW E7 : ... .. 2 P7E ... ... : ... .. 7 ... ... ... : ... .. . ... : ... .. . ... : ... .. . ... ... : ... .. . ... ... : ... .. . ... ... : ... .. . ... ...
ROW E8 : ... .. . P80 ... ... : ... .. . ... ... ... : ... .. . ... : ... .. . ... : ... .. . ... ... : ... .. . ... ... : ... .. . ... ... : ... .. . ... ...
ROW E9 : ... .. . P81 ... ... : ... .. 6 ... ... ... : ... .. . ... : ... .. . ... : ... .. . ... ... : ... .. . ... ... : ... .. . ... ... : ... .. . ... ...
ROW EA : ... .. 1 P83 ... ... : ... .. 5 ... ... ... : ... .. . ... : ... .. . ... : ... .. . ... ... : ... .. . ... ... : ... .. . ... ... : ... .. . ... ...
ROW EB : ... .. . ... ... ... : ... .. 4 ... ... ... : ... .. . ... : ... .. . ... : ... .. . ... ... : ... .. . ... ... : ... .. . ... ... : ... .. . ... ...
ROW EC : ... .. . P81 ... ... : ... .. . ... ... ... : ... .. . ... : ... .. . ... : ... .. . ... ... : ... .. 5 ... ... : ... .. 5 ... ... : ... .. . ... ...
ROW ED : ... .. 0 ... V00 ... : ... .. . ... ... ... : ... .. . ... : ... .. . ... : ... .. . ... ... : ... .. . ... ... : ... .. . ... ... : ... .. . ... ...
ROW EE : ... .. . ... ... ... : ... .. 3 ... ... ... : ... .. . ... : ... .. . ... : ... .. . ... ... : ... .. 4 ... ... : ... .. 4 ... ... : ... .. . ... ...
ROW EF : ... .. . ... ... ... : ... .. . ... ... ... : ... .. . ... : ... .. . ... : ... .. . ... ... : ... .. 3 ... ... : ... .. 3 ... ... : ... .. . ... ...
ROW F0 : F-4 00 F P80 V01 ... : F-3 00 8 ... ... ... : D-4 00 . ... : D-# 00 8 ... : ... .. . ... ... : ... .. 9 ... ... : ... .. 9 ... ... : ... .. . ... ...
ROW F1 : ... .. E ... ... ... : ... .. 7 ... ... ... : ... .. . ... : ... .. 7 ... : ... .. . ... ... : ... .. 8 ... ... : ... .. 8 ... ... : ... .. . ... ...
ROW F2 : ... .. D ... ... ... : ... .. . ... ... ... : ... .. . ... : ... .. . ... : ... .. . ... ... : ... .. . ... ... : ... .. . ... ... : ... .. . ... ...
ROW F3 : ... .. A ... ... ... : ... .. 6 ... ... ... : ... .. . ... : ... .. 6 ... : ... .. . ... ... : ... .. . ... ... : ... .. . ... ... : ... .. . ... ...
ROW F4 : ... .. . ... ... ... : ... .. 5 ... ... ... : ... .. . ... : ... .. 5 ... : ... .. . ... ... : ... .. 7 ... ... : ... .. 7 ... ... : ... .. . ... ...
ROW F5 : ... .. . ... ... ... : ... .. 4 ... ... ... : ... .. . ... : ... .. 4 ... : ... .. . ... ... : ... .. . ... ... : ... .. . ... ... : ... .. . ... ...
ROW F6 : ... .. . ... ... ... : ... .. . ... ... ... : ... .. . ... : ... .. . ... : ... .. . ... ... : ... .. . ... ... : ... .. . ... ... : ... .. . ... ...
ROW F7 : ... .. . ... ... ... : ... .. . ... ... ... : ... .. . ... : ... .. . ... : ... .. . ... ... : ... .. 6 ... ... : ... .. 6 ... ... : ... .. . ... ...
ROW F8 : ... .. . ... ... ... : ... .. 3 ... ... ... : ... .. . ... : ... .. 3 ... : ... .. . ... ... : ... .. . ... ... : ... .. . ... ... : ... .. . ... ...
ROW F9 : ... .. . ... ... ... : ... .. . ... ... ... : ... .. . ... : ... .. . ... : ... .. . ... ... : ... .. . ... ... : ... .. . ... ... : ... .. . ... ...
ROW FA : G-4 00 F ... ... ... : C-3 00 8 ... ... ... : --- .. . ... : ... .. 2 ... : ... .. . ... ... : ... .. . ... ... : ... .. . ... ... : ... .. . ... ...
ROW FB : ... .. E ... ... ... : ... .. 7 ... ... ... : ... .. . ... : ... .. . ... : ... .. . ... ... : ... .. . ... ... : ... .. . ... ... : ... .. . ... ...
ROW FC : ... .. D ... ... ... : ... .. . ... ... ... : ... .. . ... : ... .. . ... : ... .. . ... ... : ... .. . ... ... : ... .. . ... ... : ... .. . ... ...
ROW FD : ... .. A ... ... ... : ... .. 6 ... ... ... : ... .. . ... : ... .. 1 ... : ... .. . ... ... : ... .. . ... ... : ... .. . ... ... : ... .. . ... ...
ROW FE : ... .. . ... ... ... : ... .. 5 ... ... ... : ... .. . ... : ... .. . ... : ... .. . ... ... : ... .. . ... ... : ... .. . ... ... : ... .. . ... ...
ROW FF : ... .. . ... ... ... : ... .. 4 ... ... ... : ... .. . ... : ... .. . ... : ... .. . ... ... : ... .. . ... ... : ... .. . ... ... : ... .. . ... ...

PATTERN 15
ROW 00 : ... .. 2 ... ... ... : ... .. . ... ... ... : ... .. . ... : ... .. 0 ... : ... .. . ... ... : ... .. 5 ... ... : ... .. 5 ... ... : ... .. . ... ...
ROW 01 : ... .. . ... ... ... : ... .. . ... ... ... : ... .. . ... : ... .. . ... : ... .. . ... ... : ... .. . ... ... : ... .. . ... ... : ... .. . ... ...
ROW 02 : ... .. . ... ... ... : ... .. 3 ... ... ... : ... .. . ... : ... .. . ... : ... .. . ... ... : ... .. 4 ... ... : ... .. 4 ... ... : ... .. . ... ...
ROW 03 : ... .. 1 ... ... ... : ... .. . ... ... ... : ... .. . ... : ... .. . ... : ... .. . ... ... : ... .. 3 ... ... : ... .. 3 ... ... : ... .. . ... ...
ROW 04 : G#4 00 F ... ... ... : G-3 00 8 ... ... ... : F-2 00 . ... : ... .. D ... : ... .. . ... ... : G#2 01 9 ... ... : F-3 01 9 ... ... : G-3 01 C ... ...
ROW 05 : ... .. E ... ... ... : ... .. 7 ... ... ... : ... .. . ... : ... .. B ... : ... .. . ... ... : ... .. 8 ... ... : ... .. 8 ... ... : ... .. A ... ...
ROW 06 : ... .. D ... ... ... : ... .. . ... ... ... : ... .. . ... : ... .. . ... : ... .. . ... ... : ... .. . ... ... : ... .. . ... ... : ... .. 6 ... ...
ROW 07 : ... .. A ... ... ... : ... .. 6 ... ... ... : ... .. . ... : ... .. A ... : ... .. . ... ... : ... .. . ... ... : ... .. . ... ... : ... .. . ... ...
ROW 08 : ... .. . ... ... ... : ... .. 5 ... ... ... : ... .. . ... : ... .. 8 ... : ... .. . ... ... : ... .. 7 ... ... : ... .. 7 ... ... : ... .. . ... ...
ROW 09 : ... .. . ... ... ... : ... .. 4 ... ... ... : ... .. . ... : ... .. 7 ... : ... .. . ... ... : ... .. 6 ... ... : ... .. 6 ... ... : ... .. . ... ...
ROW 0A : ... .. 2 ... ... ... : ... .. . ... ... ... : ... .. . ... : ... .. 6 ... : ... .. . ... ... : ... .. 5 ... ... : ... .. 5 ... ... : ... .. . ... ...
ROW 0B : ... .. . ... ... ... : ... .. . ... ... ... : ... .. . ... : ... .. . ... : ... .. . ... ... : ... .. . ... ... : ... .. . ... ... : ... .. . ... ...
ROW 0C : ... .. . ... ... ... : ... .. 3 ... ... ... : ... .. . ... : ... .. 5 ... : ... .. . ... ... : ... .. 4 ... ... : ... .. 4 ... ... : ... .. . ... ...
ROW 0D : ... .. 1 ... ... ... : ... .. . ... ... ... : ... .. . ... : ... .. . ... : ... .. . ... ... : ... .. 3 ... ... : ... .. 3 ... ... : ... .. . ... ...
ROW 0E : G-4 00 F ... ... ... : C-3 00 8 ... ... ... : ... .. . ... : ... .. 4 ... : ... .. . ... ... : F-2 01 9 ... ... : C-3 01 9 ... ... : ... .. . ... ...
ROW 0F : ... .. E ... ... ... : ... .. 7 ... ... ... : ... .. . ... : ... .. . ... : ... .. . ... ... : ... .. 8 ... ... : ... .. 8 ... ... : ... .. . ... ...
ROW 10 : ... .. D ... ... ... : ... .. . ... ... ... : ... .. . ... : ... .. 3 ... : ... .. . ... ... : ... .. . ... ... : ... .. . ... ... : ... .. . ... ...
ROW 11 : ... .. A ... ... ... : ... .. 6 ... ... ... : ... .. . ... : ... .. 2 ... : ... .. . ... ... : ... .. . ... ... : ... .. . ... ... : ... .. . ... ...
ROW 12 : ... .. . ... ... ... : ... .. 5 ... ... ... : ... .. . ... : ... .. . ... : ... .. . ... ... : ... .. 7 ... ... : ... .. 7 ... ... : ... .. . ... ...
ROW 13 : ... .. . ... ... ... : ... .. 4 ... ... ... : ... .. . ... : ... .. 1 ... : ... .. . ... ... : ... .. 6 ... ... : ... .. 6 ... ... : ... .. . ... ...
ROW 14 : ... .. 2 ... ... ... : ... .. . ... ... ... : ... .. . ... : ... .. 0 ... : ... .. . ... ... : ... .. 5 ... ... : ... .. 5 ... ... : ... .. . ... ...
ROW 15 : ... .. . ... ... ... : ... .. . ... ... ... : ... .. . ... : ... .. . ... : ... .. . ... ... : ... .. . ... ... : ... .. . ... ... : ... .. . ... ...
ROW 16 : ... .. . ... ... ... : ... .. 3 ... ... ... : ... .. . ... : ... .. . ... : ... .. . ... ... : ... .. 4 ... ... : ... .. 4 ... ... : ... .. . ... ...
ROW 17 : ... .. 1 ... ... ... : ... .. . ... ... ... : ... .. . ... : ... .. . ... : ... .. . ... ... : ... .. 3 ... ... : ... .. 3 ... ... : ... .. . ... ...
ROW 18 : G#4 00 F ... ... ... : F-3 00 8 ... ... ... : G#4 00 . ... : 9-# 00 A ... : ... .. . ... ... : G#2 01 9 ... ... : F-3 01 9 ... ... : ... .. . ... ...
ROW 19 : ... .. E ... ... ... : ... .. 7 ... ... ... : ... .. . ... : ... .. 8 ... : ... .. . ... ... : ... .. 8 ... ... : ... .. 8 ... ... : ... .. . ... ...
ROW 1A : ... .. D ... ... ... : ... .. . ... ... ... : ... .. . ... : ... .. 4 ... : ... .. . ... ... : ... .. . ... ... : ... .. . ... ... : ... .. . ... ...
ROW 1B : ... .. A ... ... ... : ... .. 6 ... ... ... : ... .. . ... : ... .. 2 ... : ... .. . ... ... : ... .. . ... ... : ... .. . ... ... : ... .. . ... ...
ROW 1C : ... .. . ... ... ... : ... .. 5 ... ... ... : ... .. . ... : ... .. 1 ... : ... .. . ... ... : ... .. 7 ... ... : ... .. 7 ... ... : ... .. . ... ...
ROW 1D : ... .. . ... ... ... : ... .. 4 ... ... ... : ... .. . ... : ... .. 0 ... : ... .. . ... ... : ... .. 6 ... ... : ... .. 6 ... ... : ... .. . ... ...
ROW 1E : ... .. . ... ... ... : ... .. . ... ... ... : ... .. . ... : ... .. . ... : ... .. . ... ... : ... .. 5 ... ... : ... .. 5 ... ... : ... .. . ... ...
ROW 1F : ... .. . ... ... ... : ... .. . ... ... ... : ... .. . ... : ... .. 8 ... : ... .. . ... ... : ... .. . ... ... : ... .. . ... ... : ... .. . ... ...
ROW 20 : ... .. . ... ... ... : ... .. 3 ... ... ... : ... .. . ... : ... .. 6 ... : ... .. . ... ... : ... .. 4 ... ... : ... .. 4 ... ... : ... .. . ... ...
ROW 21 : ... .. . ... ... ... : ... .. . ... ... ... : ... .. . ... : ... .. 3 ... : ... .. . ... ... : ... .. 3 ... ... : ... .. 3 ... ... : ... .. . ... ...
ROW 22 : ... .. . ... ... ... : C-3 00 8 ... ... ... : --- .. . ... : ... .. 1 ... : ... .. . ... ... : A#2 01 9 ... ... : G-3 01 9 ... ... : ... .. . ... ...
ROW 23 : ... .. . ... ... ... : ... .. 7 ... ... ... : ... .. . ... : ... .. . ... : ... .. . ... ... : ... .. 8 ... ... : ... .. 8 ... ... : ... .. . ... ...
ROW 24 : ... .. . ... ... ... : ... .. . ... ... ... : ... .. . ... : ... .. 0 ... : ... .. . ... ... : ... .. . ... ... : ... .. . ... ... : ... .. . ... ...
ROW 25 : ... .. . ... ... ... : ... .. 6 ... ... ... : ... .. . ... : ... .. C ... : ... .. . ... ... : ... .. . ... ... : ... .. . ... ... : ... .. . ... ...
ROW 26 : ... .. . ... ... ... : ... .. 5 ... ... ... : ... .. . ... : ... .. 9 ... : ... .. . ... ... : ... .. 7 ... ... : ... .. 7 ... ... : ... .. . ... ...
ROW 27 : ... .. . ... ... ... : ... .. 4 ... ... ... : ... .. . ... : ... .. 4 ... : ... .. . ... ... : ... .. 6 ... ... : ... .. 6 ... ... : ... .. . ... ...
ROW 28 : ... .. . ... ... ... : ... .. . ... ... ... : ... .. . ... : ... .. 2 ... : ... .. . ... ... : ... .. 5 ... ... : ... .. 5 ... ... : ... .. . ... ...
ROW 29 : ... .. . ... ... ... : ... .. . ... ... ... : ... .. . ... : ... .. 1 ... : ... .. . ... ... : ... .. . ... ... : ... .. . ... ... : ... .. . ... ...
ROW 2A : ... .. . ... ... ... : ... .. 3 ... ... ... : ... .. . ... : ... .. 0 ... : ... .. . ... ... : ... .. 4 ... ... : ... .. 4 ... ... : ... .. . ... ...
ROW 2B : ... .. . ... ... ... : ... .. . ... ... ... : ... .. . ... : ... .. . ... : ... .. . ... ... : ... .. 3 ... ... : ... .. 3 ... ... : ... .. . ... ...
ROW 2C : ... .. . ... ... ... : G#3 00 8 ... ... ... : D#2 00 . ... : ... .. F ... : ... .. . ... ... : C-3 01 9 ... ... : A#3 01 9 ... ... : G#3 01 C ... ...
ROW 2D : ... .. . ... ... ... : ... .. 7 ... ... ... : ... .. . ... : ... .. C ... : ... .. . ... ... : ... .. 8 ... ... : ... .. 8 ... ... : ... .. A ... ...
ROW 2E : ... .. . ... ... ... : ... .. . ... ... ... : ... .. . ... : ... .. 6 ... : ... .. . ... ... : ... .. . ... ... : ... .. . ... ... : ... .. 6 ... ...
ROW 2F : ... .. . ... ... ... : ... .. 6 ... ... ... : ... .. . ... : ... .. 3 ... : ... .. . ... ... : ... .. . ... ... : ... .. . ... ... : ... .. . ... ...
ROW 30 : ... .. . ... ... ... : ... .. 5 ... ... ... : ... .. . ... : ... .. 2 ... : ... .. . ... ... : ... .. 7 ... ... : ... .. 7 ... ... : ... .. . ... ...
ROW 31 : ... .. . ... ... ... : ... .. 4 ... ... ... : ... .. . ... : ... .. 0 ... : ... .. . ... ... : ... .. . ... ... : ... .. . ... ... : ... .. . ... ...
ROW 32 : ... .. . ... ... ... : ... .. . ... ... ... : ... .. . ... : ... .. . ... : ... .. . ... ... : ... .. . ... ... : ... .. . ... ... : ... .. . ... ...
ROW 33 : ... .. . ... ... ... : ... .. . ... ... ... : ... .. . ... : ... .. . ... : ... .. . ... ... : ... .. 6 ... ... : ... .. 6 ... ... : ... .. . ... ...
ROW 34 : ... .. . ... ... ... : ... .. 3 ... ... ... : ... .. . ... : ... .. . ... : ... .. . ... ... : ... .. . ... ... : ... .. . ... ... : ... .. . ... ...
ROW 35 : ... .. . ... ... ... : ... .. . ... ... ... : ... .. . ... : ... .. . ... : ... .. . ... ... : ... .. . ... ... : ... .. . ... ... : ... .. . ... ...
ROW 36 : ... .. . ... ... ... : C-3 00 8 ... ... ... : ... .. . ... : ... .. . ... : ... .. . ... ... : ... .. . ... ... : ... .. . ... ... : ... .. . ... ...
ROW 37 : ... .. . ... ... ... : ... .. 7 ... ... ... : ... .. . ... : ... .. . ... : ... .. . ... ... : ... .. . ... ... : ... .. . ... ... : ... .. . ... ...
ROW 38 : ... .. . ... ... ... : ... .. . ... ... ... : ... .. . ... : ... .. . ... : ... .. . ... ... : ... .. . ... ... : ... .. . ... ... : ... .. . ... ...
ROW 39 : ... .. . ... ... ... : ... .. 6 ... ... ... : ... .. . ... : ... .. . ... : ... .. . ... ... : ... .. . ... ... : ... .. . ... ... : ... .. . ... ...
ROW 3A : ... .. . ... ... ... : ... .. 5 ... ... ... : ... .. . ... : ... .. . ... : ... .. . ... ... : ... .. . ... ... : ... .. . ... ... : ... .. . ... ...
ROW 3B : ... .. . ... ... ... : ... .. 4 ... ... ... : ... .. . ... : ... .. . ... : ... .. . ... ... : ... .. . ... ... : ... .. . ... ... : ... .. . ... ...
ROW 3C : ... .. . ... ... ... : ... .. . ... ... ... : ... .. . ... : ... .. . ... : ... .. . ... ... : ... .. 5 ... ... : ... .. 5 ... ... : ... .. . ... ...
ROW 3D : ... .. . ... ... ... : ... .. . ... ... ... : ... .. . ... : ... .. . ... : ... .. . ... ... : ... .. . ... ... : ... .. . ... ... : ... .. . ... ...
ROW 3E : ... .. . ... ... ... : ... .. 3 ... ... ... : ... .. . ... : ... .. . ... : ... .. . ... ... : ... .. 4 ... ... : ... .. 4 ... ... : ... .. . ... ...
ROW 3F : ... .. . ... ... ... : ... .. . ... ... ... : ... .. . ... : ... .. . ... : ... .. . ... ... : ... .. 3 ... ... : ... .. 3 ... ... : ... .. . ... ...
ROW 40 : C-5 00 F ... ... ... : C-4 00 8 ... ... ... : G-4 00 . ... : ... .. . ... : ... .. . ... ... : D-3 01 9 ... ... : G#3 01 9 ... ... : ... .. . ... ...
ROW 41 : ... .. E ... ... ... : ... .. 7 ... ... ... : ... .. . ... : ... .. . ... : ... .. . ... ... : ... .. 8 ... ... : ... .. 8 ... ... : ... .. . ... ...
ROW 42 : ... .. D ... ... ... : ... .. . ... ... ... : ... .. . ... : ... .. . ... : ... .. . ... ... : ... .. . ... ... : ... .. . ... ... : ... .. . ... ...
ROW 43 : ... .. A ... ... ... : ... .. 6 ... ... ... : ... .. . ... : ... .. . ... : ... .. . ... ... : ... .. . ... ... : ... .. . ... ... : ... .. . ... ...
ROW 44 : ... .. . ... ... ... : ... .. 5 ... ... ... : ... .. . ... : ... .. . ... : ... .. . ... ... : ... .. 7 ... ... : ... .. 7 ... ... : ... .. . ... ...
ROW 45 : ... .. . ... ... ... : ... .. 4 ... ... ... : ... .. . ... : ... .. . ... : ... .. . ... ... : ... .. . ... ... : ... .. . ... ... : ... .. . ... ...
ROW 46 : ... .. . ... ... ... : ... .. . ... ... ... : ... .. . ... : ... .. . ... : ... .. . ... ... : ... .. . ... ... : ... .. . ... ... : ... .. . ... ...
ROW 47 : ... .. . ... ... ... : ... .. . ... ... ... : ... .. . ... : ... .. . ... : ... .. . ... ... : ... .. 6 ... ... : ... .. 6 ... ... : ... .. . ... ...
ROW 48 : ... .. . ... ... ... : ... .. 3 ... ... ... : ... .. . ... : ... .. . ... : ... .. . ... ... : ... .. . ... ... : ... .. . ... ... : ... .. . ... ...
ROW 49 : ... .. . ... ... ... : ... .. . ... ... ... : ... .. . ... : ... .. . ... : ... .. . ... ... : ... .. . ... ... : ... .. . ... ... : ... .. . ... ...
ROW 4A : ... .. . ... ... ... : F-3 00 8 ... ... ... : --- .. . ... : ... .. . ... : ... .. . ... ... : ... .. . ... ... : G-3 01 9 ... ... : ... .. . ... ...
ROW 4B : ... .. 2 ... ... ... : ... .. 7 ... ... ... : ... .. . ... : ... .. . ... : ... .. . ... ... : ... .. . ... ... : ... .. 8 ... ... : ... .. . ... ...
ROW 4C : ... .. . ... ... ... : ... .. . ... ... ... : ... .. . ... : ... .. . ... : ... .. . ... ... : ... .. . ... ... : ... .. . ... ... : ... .. . ... ...
ROW 4D : ... .. . ... ... ... : ... .. 6 ... ... ... : ... .. . ... : ... .. . ... : ... .. . ... ... : ... .. . ... ... : ... .. . ... ... : ... .. . ... ...
ROW 4E : ... .. 1 ... ... ... : ... .. 5 ... ... ... : ... .. . ... : ... .. . ... : ... .. . ... ... : ... .. . ... ... : ... .. 7 ... ... : ... .. . ... ...
ROW 4F : ... .. . ... ... ... : ... .. 4 ... ... ... : ... .. . ... : ... .. . ... : ... .. . ... ... : ... .. . ... ... : ... .. 6 ... ... : ... .. . ... ...
ROW 50 : ... .. . ... ... ... : ... .. . ... ... ... : ... .. . ... : ... .. . ... : ... .. . ... ... : ... .. 5 ... ... : ... .. 5 ... ... : ... .. . ... ...
ROW 51 : ... .. 0 ... V00 ... : ... .. . ... ... ... : ... .. . ... : ... .. . ... : ... .. . ... ... : ... .. . ... ... : ... .. . ... ... : ... .. . ... ...
ROW 52 : ... .. . ... ... ... : ... .. 3 ... ... ... : ... .. . ... : ... .. . ... : ... .. . ... ... : ... .. 4 ... ... : ... .. 4 ... ... : ... .. . ... ...
ROW 53 : ... .. . ... ... ... : ... .. . ... ... ... : ... .. . ... : ... .. . ... : ... .. . ... ... : ... .. 3 ... ... : ... .. 3 ... ... : ... .. . ... ...
ROW 54 : F-5 00 F P80 V01 ... : C#4 00 8 ... ... ... : C#2 00 . ... : D-# 00 D V01 : ... .. . ... ... : D#3 01 6 ... ... : F-3 01 9 ... ... : --- .. . P7F ...
ROW 55 : ... .. E ... ... ... : ... .. 7 ... ... ... : ... .. . ... : ... .. B ... : ... .. . ... ... : ... .. 5 ... ... : ... .. 8 ... ... : ... .. . ... ...
ROW 56 : ... .. D ... ... ... : ... .. . ... ... ... : ... .. . ... : ... .. . ... : ... .. . ... ... : ... .. . ... ... : ... .. . ... ... : ... .. . ... ...
ROW 57 : ... .. A ... ... ... : ... .. 6 ... ... ... : ... .. . ... : ... .. A ... : ... .. . ... ... : ... .. . ... ... : ... .. . ... ... : ... .. . ... ...
ROW 58 : ... .. . ... ... ... : ... .. 5 ... ... ... : ... .. . ... : ... .. 8 ... : ... .. . ... ... : ... .. 4 ... ... : ... .. 7 ... ... : ... .. . ... ...
ROW 59 : ... .. 8 ... ... ... : ... .. 4 ... ... ... : ... .. . ... : ... .. 7 ... : ... .. . ... ... : ... .. . ... ... : ... .. . ... ... : ... .. . ... ...
ROW 5A : ... .. . ... ... ... : ... .. . ... ... ... : ... .. . ... : ... .. 6 ... : ... .. . ... ... : ... .. . ... ... : ... .. . ... ... : ... .. . ... ...
ROW 5B : ... .. . ... ... ... : ... .. . ... ... ... : ... .. . ... : ... .. . ... : ... .. . ... ... : ... .. . ... ... : ... .. 6 ... ... : ... .. . ... ...
ROW 5C : ... .. . ... ... ... : ... .. 3 ... ... ... : ... .. . ... : ... .. 5 ... : ... .. . ... ... : ... .. . ... ... : ... .. . ... ... : ... .. . ... ...
ROW 5D : ... .. . ... ... ... : ... .. . ... ... ... : ... .. . ... : ... .. . ... : ... .. . ... ... : ... .. . ... ... : ... .. . ... ... : ... .. . ... ...
ROW 5E : ... .. . ... ... ... : G#3 00 8 ... ... ... : ... .. . ... : ... .. 4 ... : ... .. . ... ... : C#3 01 6 ... ... : ... .. . ... ... : ... .. . ... ...
ROW 5F : ... .. . ... ... ... : ... .. 7 ... ... ... : ... .. . ... : ... .. . ... : ... .. . ... ... : ... .. 5 ... ... : ... .. . ... ... : ... .. . ... ...
ROW 60 : ... .. . ... ... ... : ... .. . ... ... ... : ... .. . ... : ... .. 3 ... : ... .. . ... ... : ... .. . ... ... : ... .. . ... ... : ... .. . ... ...
ROW 61 : ... .. . ... ... ... : ... .. 6 ... ... ... : ... .. . ... : ... .. 2 ... : ... .. . ... ... : ... .. . ... ... : ... .. . ... ... : ... .. . ... ...
ROW 62 : ... .. . ... ... ... : ... .. 5 ... ... ... : ... .. . ... : ... .. . ... : ... .. . ... ... : ... .. 4 ... ... : ... .. . ... ... : ... .. . ... ...
ROW 63 : ... .. 6 ... ... ... : ... .. 4 ... ... ... : ... .. . ... : ... .. 1 ... : ... .. . ... ... : ... .. . ... ... : ... .. . ... ... : ... .. . ... ...
ROW 64 : ... .. . ... ... ... : ... .. . ... ... ... : ... .. . ... : ... .. 0 ... : ... .. . ... ... : ... .. . ... ... : ... .. . ... ... : ... .. . ... ...
ROW 65 : ... .. . ... ... ... : ... .. . ... ... ... : ... .. . ... : ... .. . ... : ... .. . ... ... : ... .. . ... ... : ... .. . ... ... : ... .. . ... ...
ROW 66 : ... .. . ... ... ... : ... .. 3 ... ... ... : ... .. . ... : ... .. . ... : ... .. . ... ... : ... .. . ... ... : ... .. . ... ... : ... .. . ... ...
ROW 67 : ... .. . ... ... ... : ... .. . ... ... ... : ... .. . ... : ... .. . ... : ... .. . ... ... : ... .. . ... ... : ... .. . ... ... : ... .. . ... ...
ROW 68 : ... .. . ... ... ... : G-3 00 8 ... ... ... : G-4 00 . ... : 9-# 00 A V00 : ... .. . ... ... : B-2 01 6 ... ... : ... .. . ... ... : ... .. . ... ...
ROW 69 : ... .. . ... ... ... : ... .. 7 ... ... ... : ... .. . ... : ... .. 8 ... : ... .. . ... ... : ... .. 5 ... ... : ... .. . ... ... : ... .. . ... ...
ROW 6A : ... .. . ... ... ... : ... .. . ... ... ... : ... .. . ... : ... .. 4 ... : ... .. . ... ... : ... .. . ... ... : ... .. . ... ... : ... .. . ... ...
ROW 6B : ... .. . ... ... ... : ... .. 6 ... ... ... : ... .. . ... : ... .. 2 ... : ... .. . ... ... : ... .. . ... ... : ... .. . ... ... : ... .. . ... ...
ROW 6C : ... .. . ... ... ... : ... .. 5 ... ... ... : ... .. . ... : ... .. 1 ... : ... .. . ... ... : ... .. 4 ... ... : ... .. . ... ... : ... .. . ... ...
ROW 6D : ... .. 5 ... ... ... : ... .. 4 ... ... ... : ... .. . ... : ... .. 0 ... : ... .. . ... ... : ... .. . ... ... : ... .. . ... ... : ... .. . ... ...
ROW 6E : ... .. . ... ... ... : ... .. . ... ... ... : ... .. . ... : ... .. . ... : ... .. . ... ... : ... .. . ... ... : ... .. . ... ... : ... .. . ... ...
ROW 6F : ... .. . ... ... ... : ... .. . ... ... ... : ... .. . ... : ... .. . ... : ... .. . ... ... : ... .. . ... ... : ... .. . ... ... : ... .. . ... ...
ROW 70 : ... .. . ... ... ... : ... .. 3 ... ... ... : ... .. . ... : ... .. . ... : ... .. . ... ... : ... .. . ... ... : ... .. . ... ... : ... .. . ... ...
ROW 71 : ... .. . ... ... ... : ... .. . ... ... ... : ... .. . ... : ... .. . ... : ... .. . ... ... : ... .. . ... ... : ... .. . ... ... : ... .. . ... ...
ROW 72 : ... .. . ... ... ... : F-3 00 8 ... ... ... : ... .. . ... : ... .. 8 ... : ... .. . ... ... : C#3 01 6 ... ... : ... .. . ... ... : ... .. . ... ...
ROW 73 : ... .. . ... ... ... : ... .. 7 ... ... ... : ... .. . ... : ... .. 6 ... : ... .. . ... ... : ... .. 5 ... ... : ... .. . ... ... : ... .. . ... ...
ROW 74 : ... .. . ... ... ... : ... .. . ... ... ... : ... .. . ... : ... .. 3 ... : ... .. . ... ... : ... .. . ... ... : ... .. . ... ... : ... .. . ... ...
ROW 75 : ... .. . ... ... ... : ... .. 6 ... ... ... : ... .. . ... : ... .. 1 ... : ... .. . ... ... : ... .. . ... ... : ... .. . ... ... : ... .. . ... ...
ROW 76 : ... .. . ... ... ... : ... .. 5 ... ... ... : ... .. . ... : ... .. . ... : ... .. . ... ... : ... .. 4 ... ... : ... .. . ... ... : ... .. . ... ...
ROW 77 : ... .. 6 ... ... ... : ... .. 4 ... ... ... : ... .. . ... : ... .. 0 ... : ... .. . ... ... : ... .. 5 ... ... : ... .. . ... ... : ... .. . ... ...
ROW 78 : ... .. . ... ... ... : ... .. . ... ... ... : ... .. . ... : ... .. . ... : ... .. . ... ... : ... .. . ... ... : ... .. . ... ... : ... .. . ... ...
ROW 79 : ... .. . ... ... ... : ... .. . ... ... ... : ... .. . ... : ... .. . ... : ... .. . ... ... : ... .. 4 ... ... : ... .. . ... ... : ... .. . ... ...
ROW 7A : ... .. . ... ... ... : ... .. 3 ... ... ... : ... .. . ... : ... .. . ... : ... .. . ... ... : ... .. . ... ... : ... .. . ... ... : ... .. . ... ...
ROW 7B : ... .. . ... ... ... : ... .. . ... ... ... : ... .. . ... : ... .. . ... : ... .. . ... ... : ... .. . ... ... : ... .. . ... ... : ... .. . ... ...
ROW 7C : ... .. . P81 ... ... : C#3 00 8 ... ... ... : C#3 00 . ... : ... .. F ... : ... .. . ... ... : G-2 01 6 ... ... : ... .. . ... ... : ... .. . ... ...
ROW 7D : ... .. . P82 ... ... : ... .. 7 ... ... ... : ... .. . ... : ... .. C ... : ... .. . ... ... : ... .. 5 ... ... : ... .. . ... ... : ... .. . ... ...
ROW 7E : ... .. . ... ... ... : ... .. . ... ... ... : ... .. . ... : ... .. 6 ... : ... .. . ... ... : ... .. . ... ... : ... .. . ... ... : ... .. . ... ...
ROW 7F : ... .. . P80 ... ... : ... .. 6 ... ... ... : ... .. . ... : ... .. 3 ... : ... .. . ... ... : ... .. . ... ... : ... .. . ... ... : ... .. . ... ...
ROW 80 : ... .. . ... ... ... : ... .. 5 ... ... ... : ... .. . ... : ... .. 2 ... : ... .. . ... ... : ... .. . ... ... : ... .. . ... ... : ... .. . ... ...
ROW 81 : ... .. . P7E ... ... : ... .. 4 ... ... ... : ... .. . ... : ... .. 0 ... : ... .. . ... ... : ... .. . ... ... : ... .. . ... ... : ... .. . ... ...
ROW 82 : ... .. . ... ... ... : ... .. . ... ... ... : ... .. . ... : ... .. . ... : ... .. . ... ... : ... .. . ... ... : ... .. . ... ... : ... .. . ... ...
ROW 83 : ... .. . P7F ... ... : ... .. . ... ... ... : ... .. . ... : ... .. . ... : ... .. . ... ... : ... .. 4 ... ... : ... .. . ... ... : ... .. . ... ...
ROW 84 : ... .. . P80 ... ... : ... .. 3 ... ... ... : ... .. . ... : ... .. . ... : ... .. . ... ... : ... .. . ... ... : ... .. . ... ... : ... .. . ... ...
ROW 85 : ... .. . P81 ... ... : ... .. . ... ... ... : ... .. . ... : ... .. . ... : ... .. . ... ... : ... .. . ... ... : ... .. . ... ... : ... .. . ... ...
ROW 86 : ... .. 7 P82 ... ... : B-2 00 8 ... ... ... : ... .. . ... : ... .. . ... : ... .. . ... ... : C#3 01 6 ... ... : ... .. . ... ... : ... .. . ... ...
ROW 87 : ... .. . ... ... ... : ... .. 7 ... ... ... : ... .. . ... : ... .. . ... : ... .. . ... ... : ... .. 5 ... ... : ... .. . ... ... : ... .. . ... ...
ROW 88 : ... .. . P80 ... ... : ... .. . ... ... ... : ... .. . ... : ... .. . ... : ... .. . ... ... : ... .. . ... ... : ... .. . ... ... : ... .. . ... ...
ROW 89 : ... .. . ... ... ... : ... .. 6 ... ... ... : ... .. . ... : ... .. . ... : ... .. . ... ... : ... .. . ... ... : ... .. . ... ... : ... .. . ... ...
ROW 8A : ... .. . P7F ... ... : ... .. 5 ... ... ... : ... .. . ... : ... .. . ... : ... .. . ... ... : ... .. . ... ... : ... .. . ... ... : ... .. . ... ...
ROW 8B : ... .. 8 P7E ... ... : ... .. 4 ... ... ... : ... .. . ... : ... .. . ... : ... .. . ... ... : ... .. . ... ... : ... .. . ... ... : ... .. . ... ...
ROW 8C : ... .. . P7F ... ... : ... .. . ... ... ... : ... .. . ... : ... .. . ... : ... .. . ... ... : ... .. . ... ... : ... .. . ... ... : ... .. . ... ...
ROW 8D : ... .. . P80 ... ... : ... .. . ... ... ... : ... .. . ... : ... .. . ... : ... .. . ... ... : ... .. 4 ... ... : ... .. . ... ... : ... .. . ... ...
ROW 8E : ... .. . P81 ... ... : ... .. 3 ... ... ... : ... .. . ... : ... .. . ... : ... .. . ... ... : ... .. . ... ... : ... .. . ... ... : ... .. . ... ...
ROW 8F : ... .. . P82 ... ... : ... .. . ... ... ... : ... .. . ... : ... .. . ... : ... .. . ... ... : ... .. . ... ... : ... .. . ... ... : ... .. . ... ...
ROW 90 : ... .. . ... ... ... : G#2 00 8 ... ... ... : F-4 00 . ... : D-# 00 8 ... : ... .. . ... ... : G#2 01 6 ... ... : ... .. . ... ... : G-4 01 8 P80 ...
ROW 91 : ... .. . P81 ... ... : ... .. 7 ... ... ... : ... .. . ... : ... .. 7 ... : ... .. . ... ... : ... .. 5 ... ... : ... .. . ... ... : ... .. 7 ... ...
ROW 92 : ... .. . P80 ... ... : ... .. . ... ... ... : ... .. . ... : ... .. . ... : ... .. . ... ... : ... .. . ... ... : ... .. . ... ... : ... .. 6 ... ...
ROW 93 : ... .. . P7F ... ... : ... .. 6 ... ... ... : ... .. . ... : ... .. 6 ... : ... .. . ... ... : ... .. . ... ... : ... .. . ... ... : --- .. . ... ...
ROW 94 : ... .. . P7E ... ... : ... .. 5 ... ... ... : ... .. . ... : ... .. 5 ... : ... .. . ... ... : ... .. . ... ... : ... .. . ... ... : ... .. . ... ...
ROW 95 : ... .. . P7F ... ... : ... .. 4 ... ... ... : ... .. . ... : ... .. 4 ... : ... .. . ... ... : ... .. . ... ... : ... .. . ... ... : ... .. . ... ...
ROW 96 : ... .. . P80 ... ... : ... .. . ... ... ... : ... .. . ... : ... .. . ... : ... .. . ... ... : ... .. . ... ... : ... .. . ... ... : ... .. . ... ...
ROW 97 : ... .. . ... ... ... : ... .. . ... ... ... : ... .. . ... : ... .. . ... : ... .. . ... ... : ... .. 4 ... ... : ... .. . ... ... : G-4 01 8 ... ...
ROW 98 : ... .. . P82 ... ... : ... .. 3 ... ... ... : ... .. . ... : ... .. 3 ... : ... .. . ... ... : ... .. . ... ... : ... .. . ... ... : ... .. 7 ... ...
ROW 99 : ... .. . ... ... ... : ... .. . ... ... ... : ... .. . ... : ... .. . ... : ... .. . ... ... : ... .. . ... ... : ... .. . ... ... : ... .. 6 ... ...
ROW 9A : ... .. 9 P81 ... ... : G-2 00 8 ... ... ... : ... .. . ... : ... .. 2 ... : ... .. . ... ... : C#3 01 7 ... ... : ... .. . ... ... : --- .. . ... ...
ROW 9B : ... .. . P80 ... ... : ... .. 7 ... ... ... : ... .. . ... : ... .. . ... : ... .. . ... ... : ... .. 6 ... ... : ... .. . ... ... : ... .. . ... ...
ROW 9C : ... .. . P7F ... ... : ... .. . ... ... ... : ... .. . ... : ... .. . ... : ... .. . ... ... : ... .. . ... ... : ... .. . ... ... : ... .. . ... ...
ROW 9D : ... .. . P7E ... ... : ... .. 6 ... ... ... : ... .. . ... : ... .. 1 ... : ... .. . ... ... : ... .. . ... ... : ... .. . ... ... : ... .. . ... ...
ROW 9E : ... .. . ... ... ... : ... .. 5 ... ... ... : ... .. . ... : ... .. . ... : ... .. . ... ... : ... .. 5 ... ... : ... .. . ... ... : G-4 01 8 ... ...
ROW 9F : ... .. A P80 ... ... : ... .. 4 ... ... ... : ... .. . ... : ... .. . ... : ... .. . ... ... : ... .. . ... ... : ... .. . ... ... : ... .. 7 ... ...
ROW A0 : ... .. . ... ... ... : ... .. . ... ... ... : ... .. . ... : ... .. 0 ... : ... .. . ... ... : ... .. . ... ... : ... .. . ... ... : ... .. 6 ... ...
ROW A1 : ... .. . P82 ... ... : ... .. . ... ... ... : ... .. . ... : ... .. . ... : ... .. . ... ... : ... .. 4 ... ... : ... .. . ... ... : --- .. . ... ...
ROW A2 : ... .. . ... ... ... : ... .. 3 ... ... ... : ... .. . ... : ... .. . ... : ... .. . ... ... : ... .. . ... ... : ... .. . ... ... : ... .. . ... ...
ROW A3 : ... .. . P81 ... ... : ... .. . ... ... ... : ... .. . ... : ... .. . ... : ... .. . ... ... : ... .. . ... ... : ... .. . ... ... : ... .. . ... ...
ROW A4 : ... .. 9 P80 ... ... : C#4 00 8 ... ... ... : C#2 00 . ... : ... .. D ... : ... .. . ... ... : D#3 01 7 ... ... : ... .. . ... ... : G-4 01 A ... ...
ROW A5 : ... .. . P7F ... ... : ... .. 7 ... ... ... : ... .. . ... : ... .. B ... : ... .. . ... ... : ... .. 6 ... ... : ... .. . ... ... : ... .. 8 ... ...
ROW A6 : ... .. . P7E ... ... : ... .. . ... ... ... : ... .. . ... : ... .. . ... : ... .. . ... ... : ... .. . ... ... : ... .. . ... ... : ... .. 5 ... ...
ROW A7 : ... .. . ... ... ... : ... .. 6 ... ... ... : ... .. . ... : ... .. A ... : ... .. . ... ... : ... .. . ... ... : ... .. . ... ... : ... .. . ... ...
ROW A8 : ... .. . P80 ... ... : ... .. 5 ... ... ... : ... .. . ... : ... .. 8 ... : ... .. . ... ... : ... .. 5 ... ... : ... .. . ... ... : ... .. . ... ...
ROW A9 : ... .. . ... ... ... : ... .. 4 ... ... ... : ... .. . ... : ... .. 7 ... : ... .. . ... ... : ... .. . ... ... : ... .. . ... ... : ... .. . ... ...
ROW AA : ... .. . P81 ... ... : ... .. . ... ... ... : ... .. . ... : ... .. 6 ... : ... .. . ... ... : ... .. . ... ... : ... .. . ... ... : ... .. . ... ...
ROW AB : ... .. . P82 ... ... : ... .. . ... ... ... : ... .. . ... : ... .. . ... : ... .. . ... ... : ... .. 4 ... ... : ... .. . ... ... : ... .. . ... ...
ROW AC : ... .. . P81 ... ... : ... .. 3 ... ... ... : ... .. . ... : ... .. 5 ... : ... .. . ... ... : ... .. . ... ... : ... .. . ... ... : ... .. . ... ...
ROW AD : ... .. . P80 ... ... : ... .. . ... ... ... : ... .. . ... : ... .. . ... : ... .. . ... ... : ... .. . ... ... : ... .. . ... ... : ... .. . ... ...
ROW AE : ... .. . P7F ... ... : G#3 00 8 ... ... ... : ... .. . ... : ... .. 4 ... : ... .. . ... ... : C#3 01 7 ... ... : ... .. . ... ... : ... .. . ... ...
ROW AF : ... .. . P7E ... ... : ... .. 7 ... ... ... : ... .. . ... : ... .. . ... : ... .. . ... ... : ... .. 6 ... ... : ... .. . ... ... : ... .. . ... ...
ROW B0 : ... .. . ... ... ... : ... .. . ... ... ... : ... .. . ... : ... .. 3 ... : ... .. . ... ... : ... .. . ... ... : ... .. . ... ... : ... .. . ... ...
ROW B1 : ... .. . P7F ... ... : ... .. 6 ... ... ... : ... .. . ... : ... .. 2 ... : ... .. . ... ... : ... .. . ... ... : ... .. . ... ... : ... .. . ... ...
ROW B2 : ... .. . P80 ... ... : ... .. 5 ... ... ... : ... .. . ... : ... .. . ... : ... .. . ... ... : ... .. 5 ... ... : ... .. . ... ... : ... .. . ... ...
ROW B3 : ... .. . P81 ... ... : ... .. 4 ... ... ... : ... .. . ... : ... .. 1 ... : ... .. . ... ... : ... .. . ... ... : ... .. . ... ... : ... .. . ... ...
ROW B4 : ... .. . P82 ... ... : ... .. . ... ... ... : ... .. . ... : ... .. 0 ... : ... .. . ... ... : ... .. . ... ... : ... .. . ... ... : ... .. . ... ...
ROW B5 : ... .. . P81 ... ... : ... .. . ... ... ... : ... .. . ... : ... .. . ... : ... .. . ... ... : ... .. 4 ... ... : ... .. . ... ... : ... .. . ... ...
ROW B6 : ... .. . P80 ... ... : ... .. 3 ... ... ... : ... .. . ... : ... .. . ... : ... .. . ... ... : ... .. . ... ... : ... .. . ... ... : ... .. . ... ...
ROW B7 : ... .. . ... ... ... : ... .. . ... ... ... : ... .. . ... : ... .. . ... : ... .. . ... ... : ... .. . ... ... : ... .. . ... ... : ... .. . ... ...
ROW B8 : ... .. . P7E ... ... : G-3 00 8 ... ... ... : G-4 00 . ... : 9-# 00 A ... : ... .. . ... ... : B-2 01 7 ... ... : B-3 01 9 ... ... : ... .. . ... ...
ROW B9 : ... .. . ... ... ... : ... .. 7 ... ... ... : ... .. . ... : ... .. 8 ... : ... .. . ... ... : ... .. 6 ... ... : ... .. 8 ... ... : ... .. . ... ...
ROW BA : ... .. . P7F ... ... : ... .. . ... ... ... : ... .. . ... : ... .. 4 ... : ... .. . ... ... : ... .. . ... ... : ... .. . ... ... : ... .. . ... ...
ROW BB : ... .. . P80 ... ... : ... .. 6 ... ... ... : ... .. . ... : ... .. 2 ... : ... .. . ... ... : ... .. . ... ... : --- .. . ... ... : ... .. . ... ...
ROW BC : ... .. . P81 ... ... : ... .. 5 ... ... ... : ... .. . ... : ... .. 1 ... : ... .. . ... ... : ... .. . ... ... : ... .. . ... ... : ... .. . ... ...
ROW BD : ... .. 8 P82 ... ... : ... .. 4 ... ... ... : ... .. . ... : ... .. 0 ... : ... .. . ... ... : ... .. . ... ... : ... .. . ... ... : ... .. . ... ...
ROW BE : ... .. . ... ... ... : ... .. . ... ... ... : ... .. . ... : ... .. . ... : ... .. . ... ... : ... .. . ... ... : ... .. . ... ... : ... .. . ... ...
ROW BF : ... .. . P80 ... ... : ... .. . ... ... ... : ... .. . ... : ... .. 8 ... : ... .. . ... ... : ... .. 5 ... ... : B-3 01 9 ... ... : ... .. . ... ...
ROW C0 : ... .. . ... ... ... : ... .. 3 ... ... ... : ... .. . ... : ... .. 6 ... : ... .. . ... ... : ... .. . ... ... : ... .. 8 ... ... : ... .. . ... ...
ROW C1 : ... .. . P7E ... ... : ... .. . ... ... ... : ... .. . ... : ... .. 3 ... : ... .. . ... ... : ... .. . ... ... : ... .. . ... ... : ... .. . ... ...
ROW C2 : ... .. . ... ... ... : F-3 00 8 ... ... ... : ... .. . ... : ... .. 1 ... : ... .. . ... ... : C#3 01 7 ... ... : --- .. . ... ... : ... .. . P83 ...
ROW C3 : ... .. . P7F ... ... : ... .. 7 ... ... ... : ... .. . ... : ... .. . ... : ... .. . ... ... : ... .. 6 ... ... : ... .. . ... ... : ... .. . P84 ...
ROW C4 : ... .. . P80 ... ... : ... .. . ... ... ... : ... .. . ... : ... .. 0 ... : ... .. . ... ... : ... .. . ... ... : ... .. . ... ... : ... .. . ... ...
ROW C5 : ... .. . P81 ... ... : ... .. 6 ... ... ... : ... .. . ... : ... .. C ... : ... .. . ... ... : ... .. . ... ... : ... .. . ... ... : ... .. . P81 ...
ROW C6 : ... .. . P82 ... ... : ... .. 5 ... ... ... : ... .. . ... : ... .. 9 ... : ... .. . ... ... : ... .. . ... ... : B-3 01 9 ... ... : ... .. . P7F ...
ROW C7 : ... .. . ... ... ... : ... .. 4 ... ... ... : ... .. . ... : ... .. 4 ... : ... .. . ... ... : ... .. . ... ... : ... .. 8 ... ... : ... .. . P7C ...
ROW C8 : ... .. . P80 ... ... : ... .. . ... ... ... : ... .. . ... : ... .. 2 ... : ... .. . ... ... : ... .. . ... ... : ... .. . ... ... : ... .. . ... ...
ROW C9 : ... .. . ... ... ... : ... .. . ... ... ... : ... .. . ... : ... .. 1 ... : ... .. . ... ... : ... .. 5 ... ... : --- .. . ... ... : ... .. . P7D ...
ROW CA : ... .. . P7F ... ... : ... .. 3 ... ... ... : ... .. . ... : ... .. 0 ... : ... .. . ... ... : ... .. . ... ... : ... .. . ... ... : ... .. . P80 ...
ROW CB : ... .. . P7E ... ... : ... .. . ... ... ... : ... .. . ... : ... .. . ... : ... .. . ... ... : ... .. . ... ... : ... .. . ... ... : ... .. . P82 ...
ROW CC : ... .. . P7F ... ... : C#3 00 8 ... ... ... : C#3 00 . ... : ... .. F ... : ... .. . ... ... : G-2 01 7 ... ... : B-3 01 9 ... ... : ... .. . P84 ...
ROW CD : ... .. . P80 ... ... : ... .. 7 ... ... ... : ... .. . ... : ... .. C ... : ... .. . ... ... : ... .. 6 ... ... : ... .. 8 ... ... : ... .. . ... ...
ROW CE : ... .. . P81 ... ... : ... .. . ... ... ... : ... .. . ... : ... .. 6 ... : ... .. . ... ... : ... .. . ... ... : ... .. . ... ... : ... .. . P81 ...
ROW CF : ... .. . P82 ... ... : ... .. 6 ... ... ... : ... .. . ... : ... .. 3 ... : ... .. . ... ... : ... .. . ... ... : ... .. . ... ... : ... .. . P80 ...
ROW D0 : ... .. . ... ... ... : ... .. 5 ... ... ... : ... .. . ... : ... .. 2 ... : ... .. . ... ... : ... .. . ... ... : ... .. 7 ... ... : ... .. . P7D ...
ROW D1 : ... .. . P81 ... ... : ... .. 4 ... ... ... : ... .. . ... : ... .. 0 ... : ... .. . ... ... : ... .. . ... ... : ... .. . ... ... : ... .. . P7C ...
ROW D2 : ... .. . P80 ... ... : ... .. . ... ... ... : ... .. . ... : ... .. . ... : ... .. . ... ... : ... .. . ... ... : ... .. . ... ... : ... .. . P7D ...
ROW D3 : ... .. . P7F ... ... : ... .. . ... ... ... : ... .. . ... : ... .. . ... : ... .. . ... ... : ... .. 5 ... ... : ... .. 6 ... ... : ... .. . P80 ...
ROW D4 : ... .. . P7E ... ... : ... .. 3 ... ... ... : ... .. . ... : ... .. . ... : ... .. . ... ... : ... .. . ... ... : ... .. . ... ... : ... .. . P82 ...
ROW D5 : ... .. . P7F ... ... : ... .. . ... ... ... : ... .. . ... : ... .. . ... : ... .. . ... ... : ... .. . ... ... : ... .. . ... ... : ... .. . P84 ...
ROW D6 : ... .. . P80 ... ... : B-2 00 8 ... ... ... : ... .. . ... : ... .. . ... : ... .. . ... ... : C#3 01 8 ... ... : ... .. . ... ... : ... .. . ... ...
ROW D7 : ... .. . ... ... ... : ... .. 7 ... ... ... : ... .. . ... : ... .. . ... : ... .. . ... ... : ... .. 7 ... ... : ... .. . ... ... : ... .. . P82 ...
ROW D8 : ... .. . P82 ... ... : ... .. . ... ... ... : ... .. . ... : ... .. . ... : ... .. . ... ... : ... .. . ... ... : ... .. . ... ... : ... .. . P80 ...
ROW D9 : ... .. . ... ... ... : ... .. 6 ... ... ... : ... .. . ... : ... .. . ... : ... .. . ... ... : ... .. . ... ... : ... .. . ... ... : ... .. . P7D ...
ROW DA : ... .. . P81 ... ... : ... .. 5 ... ... ... : ... .. . ... : ... .. . ... : ... .. . ... ... : ... .. 6 ... ... : ... .. . ... ... : ... .. . P7C ...
ROW DB : ... .. . P80 ... ... : ... .. 4 ... ... ... : ... .. . ... : ... .. . ... : ... .. . ... ... : ... .. . ... ... : ... .. . P84 ... : ... .. . P7D ...
ROW DC : ... .. . P7F ... ... : ... .. . ... ... ... : ... .. . ... : ... .. . ... : ... .. . ... ... : ... .. . ... ... : ... .. . P86 ... : ... .. . P80 ...
ROW DD : ... .. . P7E ... ... : ... .. . ... ... ... : ... .. . ... : ... .. . ... : ... .. . ... ... : ... .. 5 ... ... : ... .. . P85 ... : ... .. . P81 ...
ROW DE : ... .. . ... ... ... : ... .. 3 ... ... ... : ... .. . ... : ... .. . ... : ... .. . ... ... : ... .. . ... ... : ... .. . P82 ... : ... .. . P84 ...
ROW DF : ... .. . P80 ... ... : ... .. . ... ... ... : ... .. . ... : ... .. . ... : ... .. . ... ... : ... .. . ... ... : ... .. . P7E ... : ... .. . ... ...
ROW E0 : ... .. . ... ... ... : G#2 00 8 ... ... ... : F-4 00 . ... : ... .. . ... : ... .. . ... ... : G#2 01 8 ... ... : ... .. . P7B ... : ... .. . P82 ...
ROW E1 : ... .. . P82 ... ... : ... .. 7 ... ... ... : ... .. . ... : ... .. . ... : ... .. . ... ... : ... .. 7 ... ... : ... .. . P7A ... : ... .. . P80 ...
ROW E2 : ... .. . ... ... ... : ... .. . ... ... ... : ... .. . ... : ... .. . ... : ... .. . ... ... : ... .. . ... ... : ... .. . P7C ... : ... .. . P7D ...
ROW E3 : ... .. . P81 ... ... : ... .. 6 ... ... ... : ... .. . ... : ... .. . ... : ... .. . ... ... : ... .. . ... ... : ... .. . P80 ... : ... .. . P7C ...
ROW E4 : ... .. . P80 ... ... : ... .. 5 ... ... ... : ... .. . ... : ... .. . ... : ... .. . ... ... : ... .. 6 ... ... : ... .. . P83 ... : ... .. . ... ...
ROW E5 : ... .. . P7F ... ... : ... .. 4 ... ... ... : ... .. . ... : ... .. . ... : ... .. . ... ... : ... .. . ... ... : ... .. . P86 ... : ... .. . P7F ...
ROW E6 : ... .. . P7E ... ... : ... .. . ... ... ... : ... .. . ... : ... .. . ... : ... .. . ... ... : ... .. . ... ... : ... .. . ... ... : ... .. . P81 ...
ROW E7 : ... .. . ... ... ... : ... .. . ... ... ... : ... .. . ... : ... .. . ... : ... .. . ... ... : ... .. 5 ... ... : ... .. . P82 ... : ... .. . P84 ...
ROW E8 : ... .. . P80 ... ... : ... .. 3 ... ... ... : ... .. . ... : ... .. . ... : ... .. . ... ... : ... .. . ... ... : ... .. . P7F ... : ... .. . ... ...
ROW E9 : ... .. . ... ... ... : ... .. . ... ... ... : ... .. . ... : ... .. . ... : ... .. . ... ... : ... .. . ... ... : ... .. . P7B ... : ... .. . P83 ...
ROW EA : ... .. . P81 ... ... : G-2 00 8 ... ... ... : ... .. . ... : ... .. . ... : ... .. . ... ... : C#3 01 8 ... ... : ... .. . P7A ... : ... .. . P80 ...
ROW EB : ... .. 1 P82 ... ... : ... .. 7 ... ... ... : ... .. . ... : ... .. . ... : ... .. . ... ... : ... .. 7 ... ... : ... .. 5 P7C ... : ... .. . P7E ...
ROW EC : ... .. . P81 ... ... : ... .. . ... ... ... : ... .. . ... : ... .. . ... : ... .. . ... ... : ... .. . ... ... : ... .. . P80 ... : ... .. . P7C ...
ROW ED : ... .. . P80 ... ... : ... .. 6 ... ... ... : ... .. . ... : ... .. . ... : ... .. . ... ... : ... .. . ... ... : ... .. 4 P83 ... : ... .. . ... ...
ROW EE : ... .. . P7F ... ... : ... .. 5 ... ... ... : ... .. . ... : ... .. . ... : ... .. . ... ... : ... .. 6 ... ... : ... .. 3 P86 ... : ... .. . P7F ...
ROW EF : ... .. . P7E ... ... : ... .. 4 ... ... ... : ... .. . ... : ... .. . ... : ... .. . ... ... : ... .. . ... ... : ... .. . ... ... : ... .. . P80 ...
ROW F0 : ... .. . ... ... ... : ... .. . ... ... ... : ... .. . ... : ... .. . ... : ... .. . ... ... : ... .. . ... ... : ... .. . P83 ... : ... .. . P83 ...
ROW F1 : ... .. 0 ... V00 ... : ... .. . ... ... ... : ... .. . ... : ... .. . ... : ... .. . ... ... : ... .. 5 ... ... : ... .. . P80 ... : ... .. . P84 ...
ROW F2 : ... .. . ... ... ... : ... .. 3 ... ... ... : ... .. . ... : ... .. . ... : ... .. . ... ... : ... .. . ... ... : ... .. . P7C ... : ... .. . P83 ...
ROW F3 : ... .. . ... ... ... : ... .. . ... ... ... : ... .. . ... : ... .. . ... : ... .. . ... ... : ... .. . ... ... : ... .. . P7A ... : ... .. . P80 ...
ROW F4 : F-2 00 8 P80 V01 ... : C#4 00 8 ... ... ... : C#3 00 . ... : D-# 00 D V01 : ... .. . ... ... : F-3 01 9 ... ... : G#3 01 9 P80 ... : --- .. . ... ...
ROW F5 : ... .. 7 ... ... ... : ... .. 7 ... ... ... : ... .. . ... : ... .. B ... : ... .. . ... ... : ... .. 8 ... ... : ... .. 8 ... ... : ... .. . ... ...
ROW F6 : ... .. 6 ... ... ... : ... .. . ... ... ... : ... .. . ... : ... .. . ... : ... .. . ... ... : ... .. . ... ... : ... .. . ... ... : ... .. . ... ...
ROW F7 : ... .. 5 ... ... ... : ... .. 6 ... ... ... : ... .. . ... : ... .. A ... : ... .. . ... ... : ... .. . ... ... : ... .. . ... ... : ... .. . ... ...
ROW F8 : ... .. . ... ... ... : ... .. 5 ... ... ... : ... .. . ... : ... .. 8 ... : ... .. . ... ... : ... .. 7 ... ... : ... .. 7 ... ... : ... .. . ... ...
ROW F9 : ... .. . ... ... ... : ... .. 4 ... ... ... : ... .. . ... : ... .. 7 ... : ... .. . ... ... : ... .. 6 ... ... : ... .. . ... ... : ... .. . ... ...
ROW FA : ... .. . ... ... ... : ... .. . ... ... ... : ... .. . ... : ... .. 6 ... : ... .. . ... ... : ... .. . ... ... : ... .. . ... ... : ... .. . ... ...
ROW FB : ... .. . ... ... ... : ... .. . ... ... ... : ... .. . ... : ... .. . ... : ... .. . ... ... : ... .. 5 ... ... : ... .. 6 ... ... : ... .. . ... ...
ROW FC : ... .. . ... ... ... : ... .. 3 ... ... ... : --- .. . ... : ... .. 5 ... : ... .. . ... ... : ... .. . ... ... : ... .. . ... ... : ... .. . ... ...
ROW FD : ... .. . ... ... ... : ... .. . ... ... ... : ... .. . ... : ... .. . ... : ... .. . ... ... : ... .. . ... ... : ... .. . ... ... : ... .. . ... ...
ROW FE : ... .. . ... ... ... : G#3 00 8 ... ... ... : C#3 00 . ... : ... .. 4 ... : ... .. . ... ... : C#3 01 8 ... ... : ... .. . ... ... : ... .. . ... ...
ROW FF : ... .. . ... ... ... : ... .. 7 ... ... ... : ... .. . ... : ... .. . ... : ... .. . ... ... : ... .. 7 ... ... : ... .. 5 ... ... : ... .. . ... ...

PATTERN 16
ROW 00 : ... .. . ... ... ... : ... .. . ... ... ... : ... .. . ... : ... .. 3 ... : ... .. . ... ... : ... .. . ... ... : ... .. . ... ... : ... .. . ... ...
ROW 01 : ... .. . ... ... ... : ... .. 6 ... ... ... : ... .. . ... : ... .. 2 ... : ... .. . ... ... : ... .. . ... ... : ... .. 4 ... ... : ... .. . ... ...
ROW 02 : ... .. . ... ... ... : ... .. 5 ... ... ... : ... .. . ... : ... .. . ... : ... .. . ... ... : ... .. 6 ... ... : ... .. 3 ... ... : ... .. . ... ...
ROW 03 : ... .. 6 ... ... ... : ... .. 4 ... ... ... : ... .. . ... : ... .. 1 ... : ... .. . ... ... : F-3 01 8 ... ... : ... .. . ... ... : ... .. . ... ...
ROW 04 : ... .. . ... ... ... : ... .. . ... ... ... : ... .. . ... : ... .. 0 ... : ... .. . ... ... : ... .. 7 ... ... : ... .. . ... ... : ... .. . ... ...
ROW 05 : ... .. . ... ... ... : ... .. . ... ... ... : ... .. . ... : ... .. . ... : ... .. . ... ... : ... .. . ... ... : ... .. . ... ... : ... .. . ... ...
ROW 06 : ... .. . ... ... ... : ... .. 3 ... ... ... : --- .. . ... : ... .. . ... : ... .. . ... ... : ... .. . ... ... : ... .. . ... ... : ... .. . ... ...
ROW 07 : ... .. . ... ... ... : ... .. . ... ... ... : ... .. . ... : ... .. . ... : ... .. . ... ... : ... .. 6 ... ... : ... .. . ... ... : ... .. . ... ...
ROW 08 : G-2 00 9 ... ... ... : G-3 00 8 ... ... ... : B-2 00 . ... : 9-# 00 A V00 : ... .. . ... ... : G-3 01 8 ... ... : A#3 01 9 ... ... : ... .. . ... ...
ROW 09 : ... .. 8 ... ... ... : ... .. 7 ... ... ... : ... .. . ... : ... .. 8 ... : ... .. . ... ... : ... .. 7 ... ... : ... .. 8 ... ... : ... .. . ... ...
ROW 0A : ... .. 7 ... ... ... : ... .. . ... ... ... : ... .. . ... : ... .. 4 ... : ... .. . ... ... : ... .. . ... ... : ... .. . ... ... : ... .. . ... ...
ROW 0B : ... .. 6 ... ... ... : ... .. 6 ... ... ... : ... .. . ... : ... .. 2 ... : ... .. . ... ... : ... .. . ... ... : ... .. . ... ... : ... .. . ... ...
ROW 0C : ... .. . ... ... ... : ... .. 5 ... ... ... : ... .. . ... : ... .. 1 ... : ... .. . ... ... : ... .. 6 ... ... : ... .. 7 ... ... : ... .. . ... ...
ROW 0D : ... .. . ... ... ... : ... .. 4 ... ... ... : ... .. . ... : ... .. 0 ... : ... .. . ... ... : C#3 01 7 ... ... : ... .. . ... ... : ... .. . ... ...
ROW 0E : ... .. . ... ... ... : ... .. . ... ... ... : ... .. . ... : ... .. . ... : ... .. . ... ... : ... .. 6 ... ... : ... .. . ... ... : ... .. . ... ...
ROW 0F : ... .. . ... ... ... : ... .. . ... ... ... : ... .. . ... : ... .. . ... : ... .. . ... ... : ... .. . ... ... : ... .. 6 ... ... : ... .. . ... ...
ROW 10 : ... .. . ... ... ... : ... .. 3 ... ... ... : --- .. . ... : ... .. . ... : ... .. . ... ... : ... .. . ... ... : ... .. . ... ... : ... .. . ... ...
ROW 11 : ... .. . ... ... ... : ... .. . ... ... ... : ... .. . ... : ... .. . ... : ... .. . ... ... : ... .. . ... ... : ... .. . ... ... : ... .. . ... ...
ROW 12 : ... .. . ... ... ... : F-3 00 8 ... ... ... : B-2 00 . ... : ... .. 8 ... : ... .. . ... ... : D#3 01 7 ... ... : ... .. . ... ... : ... .. . ... ...
ROW 13 : ... .. . ... ... ... : ... .. 7 ... ... ... : ... .. . ... : ... .. 6 ... : ... .. . ... ... : ... .. 6 ... ... : ... .. 5 ... ... : ... .. . ... ...
ROW 14 : ... .. . ... ... ... : ... .. . ... ... ... : ... .. . ... : ... .. 3 ... : ... .. . ... ... : ... .. . ... ... : ... .. . ... ... : ... .. . ... ...
ROW 15 : ... .. . ... ... ... : ... .. 6 ... ... ... : ... .. . ... : ... .. 1 ... : ... .. . ... ... : ... .. . ... ... : ... .. 4 ... ... : ... .. . ... ...
ROW 16 : ... .. . ... ... ... : ... .. 5 ... ... ... : ... .. . ... : ... .. . ... : ... .. . ... ... : ... .. . ... ... : ... .. 3 ... ... : ... .. . ... ...
ROW 17 : ... .. 7 ... ... ... : ... .. 4 ... ... ... : ... .. . ... : ... .. 0 ... : ... .. . ... ... : G-3 01 7 ... ... : ... .. . ... ... : ... .. . ... ...
ROW 18 : ... .. . ... ... ... : ... .. . ... ... ... : ... .. . ... : ... .. . ... : ... .. . ... ... : ... .. 6 ... ... : ... .. . ... ... : ... .. . ... ...
ROW 19 : ... .. . ... ... ... : ... .. . ... ... ... : ... .. . ... : ... .. . ... : ... .. . ... ... : ... .. . ... ... : ... .. . ... ... : ... .. . ... ...
ROW 1A : ... .. . ... ... ... : ... .. 3 ... ... ... : --- .. . ... : ... .. . ... : ... .. . ... ... : ... .. . ... ... : ... .. . ... ... : ... .. . ... ...
ROW 1B : ... .. . ... ... ... : ... .. . ... ... ... : ... .. . ... : ... .. . ... : ... .. . ... ... : ... .. . ... ... : ... .. . ... ... : ... .. . ... ...
ROW 1C : G#2 00 B ... ... ... : C#3 00 8 ... ... ... : G-2 00 . ... : ... .. F ... : ... .. . ... ... : G#3 01 7 ... ... : B-3 01 9 ... ... : ... .. . ... ...
ROW 1D : ... .. A ... ... ... : ... .. 7 ... ... ... : ... .. . ... : ... .. C ... : ... .. . ... ... : ... .. 6 ... ... : ... .. 8 ... ... : ... .. . ... ...
ROW 1E : ... .. 9 ... ... ... : ... .. . ... ... ... : ... .. . ... : ... .. 6 ... : ... .. . ... ... : ... .. . ... ... : ... .. . ... ... : ... .. . ... ...
ROW 1F : ... .. 7 ... ... ... : ... .. 6 ... ... ... : ... .. . ... : ... .. 3 ... : ... .. . ... ... : ... .. . ... ... : ... .. . ... ... : ... .. . ... ...
ROW 20 : ... .. . ... ... ... : ... .. 5 ... ... ... : ... .. . ... : ... .. 2 ... : ... .. . ... ... : ... .. . ... ... : ... .. 7 ... ... : ... .. . ... ...
ROW 21 : ... .. . ... ... ... : ... .. 4 ... ... ... : ... .. . ... : ... .. 0 ... : ... .. . ... ... : D#3 01 7 ... ... : ... .. . ... ... : ... .. . ... ...
ROW 22 : ... .. . ... ... ... : ... .. . ... ... ... : ... .. . ... : ... .. . ... : ... .. . ... ... : ... .. 6 ... ... : ... .. . ... ... : ... .. . ... ...
ROW 23 : ... .. . ... ... ... : ... .. . ... ... ... : ... .. . ... : ... .. . ... : ... .. . ... ... : ... .. . ... ... : ... .. 6 ... ... : ... .. . ... ...
ROW 24 : ... .. . ... ... ... : ... .. 3 ... ... ... : --- .. . ... : ... .. . ... : ... .. . ... ... : ... .. . ... ... : ... .. . ... ... : ... .. . ... ...
ROW 25 : ... .. . ... ... ... : ... .. . ... ... ... : ... .. . ... : ... .. . ... : ... .. . ... ... : ... .. 5 ... ... : ... .. . ... ... : ... .. . ... ...
ROW 26 : ... .. 8 ... ... ... : B-2 00 8 ... ... ... : G-2 00 . ... : ... .. . ... : ... .. . ... ... : F-3 01 7 ... ... : ... .. . ... ... : ... .. . ... ...
ROW 27 : ... .. . ... ... ... : ... .. 7 ... ... ... : ... .. . ... : ... .. . ... : ... .. . ... ... : ... .. 6 ... ... : ... .. 5 ... ... : ... .. . ... ...
ROW 28 : ... .. . ... ... ... : ... .. . ... ... ... : ... .. . ... : ... .. . ... : ... .. . ... ... : ... .. . ... ... : ... .. . ... ... : ... .. . ... ...
ROW 29 : ... .. . ... ... ... : ... .. 6 ... ... ... : ... .. . ... : ... .. . ... : ... .. . ... ... : ... .. . ... ... : ... .. 4 ... ... : ... .. . ... ...
ROW 2A : ... .. . ... ... ... : ... .. 5 ... ... ... : ... .. . ... : ... .. . ... : ... .. . ... ... : ... .. 5 ... ... : ... .. 3 ... ... : ... .. . ... ...
ROW 2B : ... .. . ... ... ... : ... .. 4 ... ... ... : ... .. . ... : ... .. . ... : ... .. . ... ... : G#3 01 7 ... ... : ... .. . ... ... : ... .. . ... ...
ROW 2C : ... .. . ... ... ... : ... .. . ... ... ... : ... .. . ... : ... .. . ... : ... .. . ... ... : ... .. 6 ... ... : ... .. . ... ... : ... .. . ... ...
ROW 2D : ... .. . ... ... ... : ... .. . ... ... ... : ... .. . ... : ... .. . ... : ... .. . ... ... : ... .. . ... ... : ... .. . ... ... : ... .. . ... ...
ROW 2E : ... .. . ... ... ... : ... .. 3 ... ... ... : --- .. . ... : ... .. . ... : ... .. . ... ... : ... .. . ... ... : ... .. . ... ... : ... .. . ... ...
ROW 2F : ... .. . ... ... ... : ... .. . ... ... ... : ... .. . ... : ... .. . ... : ... .. . ... ... : ... .. 5 ... ... : ... .. . ... ... : ... .. . ... ...
ROW 30 : A#2 00 D ... ... ... : G#2 00 8 ... ... ... : F-2 00 . ... : D-# 00 F ... : ... .. . ... ... : A#3 01 7 ... ... : C#4 01 9 ... ... : ... .. . ... ...
ROW 31 : ... .. C ... ... ... : ... .. 7 ... ... ... : ... .. . ... : ... .. C ... : ... .. . ... ... : ... .. 6 ... ... : ... .. 8 ... ... : ... .. . ... ...
ROW 32 : ... .. B ... ... ... : ... .. . ... ... ... : ... .. . ... : ... .. 6 ... : ... .. . ... ... : ... .. . ... ... : ... .. . ... ... : ... .. . ... ...
ROW 33 : ... .. 8 ... ... ... : ... .. 6 ... ... ... : ... .. . ... : ... .. 3 ... : ... .. . ... ... : ... .. . ... ... : ... .. . ... ... : ... .. . ... ...
ROW 34 : ... .. . ... ... ... : ... .. 5 ... ... ... : ... .. . ... : ... .. 2 ... : ... .. . ... ... : ... .. 5 ... ... : ... .. 7 ... ... : ... .. . ... ...
ROW 35 : ... .. . ... ... ... : ... .. 4 ... ... ... : ... .. . ... : ... .. 0 ... : ... .. . ... ... : F-3 01 7 ... ... : ... .. . ... ... : ... .. . ... ...
ROW 36 : ... .. . ... ... ... : ... .. . ... ... ... : ... .. . ... : ... .. . ... : ... .. . ... ... : ... .. 6 ... ... : ... .. . ... ... : ... .. . ... ...
ROW 37 : ... .. . ... ... ... : ... .. . ... ... ... : ... .. . ... : ... .. . ... : ... .. . ... ... : ... .. . ... ... : ... .. 6 ... ... : ... .. . ... ...
ROW 38 : ... .. . ... ... ... : ... .. 3 ... ... ... : --- .. . ... : ... .. . ... : ... .. . ... ... : ... .. . ... ... : ... .. . ... ... : ... .. . ... ...
ROW 39 : ... .. . ... ... ... : ... .. . ... ... ... : ... .. . ... : ... .. . ... : ... .. . ... ... : ... .. 5 ... ... : ... .. . ... ... : ... .. . ... ...
ROW 3A : ... .. 9 ... ... ... : G-2 00 8 ... ... ... : F-2 00 . ... : ... .. . ... : ... .. . ... ... : G-3 01 6 ... ... : ... .. . ... ... : ... .. . ... ...
ROW 3B : ... .. . ... ... ... : ... .. 7 ... ... ... : ... .. . ... : ... .. . ... : ... .. . ... ... : ... .. 5 ... ... : ... .. 5 ... ... : ... .. . ... ...
ROW 3C : ... .. . ... ... ... : ... .. . ... ... ... : ... .. . ... : ... .. . ... : ... .. . ... ... : ... .. . ... ... : ... .. . ... ... : ... .. . ... ...
ROW 3D : ... .. . ... ... ... : ... .. 6 ... ... ... : ... .. . ... : ... .. . ... : ... .. . ... ... : ... .. . ... ... : ... .. 4 ... ... : ... .. . ... ...
ROW 3E : ... .. . ... ... ... : ... .. 5 ... ... ... : ... .. . ... : ... .. . ... : ... .. . ... ... : ... .. . ... ... : ... .. 3 ... ... : ... .. . ... ...
ROW 3F : ... .. . ... ... ... : ... .. 4 ... ... ... : ... .. . ... : ... .. . ... : ... .. . ... ... : A#3 01 6 ... ... : ... .. . ... ... : ... .. . ... ...
ROW 40 : ... .. . ... ... ... : ... .. . ... ... ... : ... .. . ... : ... .. . ... : ... .. . ... ... : ... .. 5 ... ... : ... .. . ... ... : ... .. . ... ...
ROW 41 : ... .. . ... ... ... : ... .. . ... ... ... : ... .. . ... : ... .. . ... : ... .. . ... ... : ... .. . ... ... : ... .. . ... ... : ... .. . ... ...
ROW 42 : ... .. . ... ... ... : ... .. 3 ... ... ... : --- .. . ... : ... .. . ... : ... .. . ... ... : ... .. . ... ... : ... .. . ... ... : ... .. . ... ...
ROW 43 : ... .. . ... ... ... : ... .. . ... ... ... : ... .. . ... : ... .. . ... : ... .. . ... ... : ... .. . ... ... : ... .. . ... ... : ... .. . ... ...
ROW 44 : B-2 00 F ... ... ... : F-2 00 8 ... ... ... : A#2 00 . ... : ... .. D ... : ... .. . ... ... : B-3 01 6 ... ... : D#4 01 9 ... ... : ... .. . ... ...
ROW 45 : ... .. E ... ... ... : ... .. 7 ... ... ... : ... .. . ... : ... .. B ... : ... .. . ... ... : ... .. 5 ... ... : ... .. 8 ... ... : ... .. . ... ...
ROW 46 : ... .. D ... ... ... : ... .. . ... ... ... : ... .. . ... : ... .. . ... : ... .. . ... ... : ... .. . ... ... : ... .. . ... ... : ... .. . ... ...
ROW 47 : ... .. A ... ... ... : ... .. 6 ... ... ... : ... .. . ... : ... .. A ... : ... .. . ... ... : ... .. . ... ... : ... .. . ... ... : ... .. . ... ...
ROW 48 : ... .. . ... ... ... : ... .. 5 ... ... ... : ... .. . ... : ... .. 8 ... : ... .. . ... ... : ... .. . ... ... : ... .. 7 ... ... : ... .. . ... ...
ROW 49 : ... .. 9 ... ... ... : ... .. 4 ... ... ... : ... .. . ... : ... .. 7 ... : ... .. . ... ... : G-3 01 6 ... ... : ... .. . ... ... : ... .. . ... ...
ROW 4A : ... .. . ... ... ... : ... .. . ... ... ... : ... .. . ... : ... .. 6 ... : ... .. . ... ... : ... .. 5 ... ... : ... .. . ... ... : ... .. . ... ...
ROW 4B : ... .. . ... ... ... : ... .. . ... ... ... : ... .. . ... : ... .. . ... : ... .. . ... ... : ... .. . ... ... : ... .. 6 ... ... : ... .. . ... ...
ROW 4C : ... .. . ... ... ... : ... .. 3 ... ... ... : --- .. . ... : ... .. 5 ... : ... .. . ... ... : ... .. . ... ... : ... .. . ... ... : ... .. . ... ...
ROW 4D : ... .. . ... ... ... : ... .. . ... ... ... : ... .. . ... : ... .. . ... : ... .. . ... ... : ... .. . ... ... : ... .. . ... ... : ... .. . ... ...
ROW 4E : ... .. . ... ... ... : G-2 00 8 ... ... ... : A#2 00 . ... : ... .. 4 ... : ... .. . ... ... : G#3 01 6 ... ... : ... .. . ... ... : ... .. . ... ...
ROW 4F : ... .. . ... ... ... : ... .. 7 ... ... ... : ... .. . ... : ... .. . ... : ... .. . ... ... : ... .. 5 ... ... : ... .. . ... ... : ... .. . ... ...
ROW 50 : ... .. . ... ... ... : ... .. . ... ... ... : ... .. . ... : ... .. 3 ... : ... .. . ... ... : ... .. . ... ... : ... .. . ... ... : ... .. . ... ...
ROW 51 : ... .. . ... ... ... : ... .. 6 ... ... ... : ... .. . ... : ... .. 2 ... : ... .. . ... ... : ... .. . ... ... : ... .. . ... ... : ... .. . ... ...
ROW 52 : ... .. . ... ... ... : ... .. 5 ... ... ... : ... .. . ... : ... .. . ... : ... .. . ... ... : ... .. 4 ... ... : ... .. . ... ... : ... .. . ... ...
ROW 53 : ... .. 8 ... ... ... : ... .. 4 ... ... ... : ... .. . ... : ... .. 1 ... : ... .. . ... ... : B-3 01 6 ... ... : ... .. . ... ... : ... .. . ... ...
ROW 54 : ... .. . ... ... ... : ... .. . ... ... ... : ... .. . ... : ... .. 0 ... : ... .. . ... ... : ... .. 5 ... ... : ... .. . ... ... : ... .. . ... ...
ROW 55 : ... .. . ... ... ... : ... .. . ... ... ... : ... .. . ... : ... .. . ... : ... .. . ... ... : ... .. . ... ... : ... .. . ... ... : ... .. . ... ...
ROW 56 : ... .. . ... ... ... : ... .. 3 ... ... ... : --- .. . ... : ... .. . ... : ... .. . ... ... : ... .. . ... ... : ... .. . ... ... : ... .. . ... ...
ROW 57 : ... .. . ... ... ... : ... .. . ... ... ... : ... .. . ... : ... .. . ... : ... .. . ... ... : ... .. 4 ... ... : ... .. . ... ... : ... .. . ... ...
ROW 58 : C#3 00 D ... ... ... : G#2 00 8 ... ... ... : G#2 00 . ... : 9-# 00 A ... : ... .. . ... ... : C#4 01 6 ... ... : F-4 01 9 ... ... : ... .. . ... ...
ROW 59 : ... .. C ... ... ... : ... .. 7 ... ... ... : ... .. . ... : ... .. 8 ... : ... .. . ... ... : ... .. 5 ... ... : ... .. 8 ... ... : ... .. . ... ...
ROW 5A : ... .. B ... ... ... : ... .. . ... ... ... : ... .. . ... : ... .. 4 ... : ... .. . ... ... : ... .. . ... ... : ... .. . ... ... : ... .. . ... ...
ROW 5B : ... .. 8 ... ... ... : ... .. 6 ... ... ... : ... .. . ... : ... .. 2 ... : ... .. . ... ... : ... .. . ... ... : ... .. . ... ... : ... .. . ... ...
ROW 5C : ... .. . ... ... ... : ... .. 5 ... ... ... : ... .. . ... : ... .. 1 ... : ... .. . ... ... : ... .. 4 ... ... : ... .. 7 ... ... : ... .. . ... ...
ROW 5D : ... .. . ... ... ... : ... .. 4 ... ... ... : ... .. . ... : ... .. 0 ... : ... .. . ... ... : G#3 01 6 ... ... : ... .. . ... ... : ... .. . ... ...
ROW 5E : ... .. . ... ... ... : ... .. . ... ... ... : ... .. . ... : ... .. . ... : ... .. . ... ... : ... .. 5 ... ... : ... .. . ... ... : ... .. . ... ...
ROW 5F : ... .. . ... ... ... : ... .. . ... ... ... : ... .. . ... : ... .. . ... : ... .. . ... ... : ... .. . ... ... : ... .. 6 ... ... : ... .. . ... ...
ROW 60 : ... .. . ... ... ... : ... .. 3 ... ... ... : --- .. . ... : ... .. . ... : ... .. . ... ... : ... .. . ... ... : ... .. . ... ... : ... .. . ... ...
ROW 61 : ... .. . ... ... ... : ... .. . ... ... ... : ... .. . ... : ... .. . ... : ... .. . ... ... : ... .. 4 ... ... : ... .. . ... ... : ... .. . ... ...
ROW 62 : ... .. . ... ... ... : B-2 00 8 ... ... ... : G#2 00 . ... : ... .. 8 ... : ... .. . ... ... : A#3 01 6 ... ... : ... .. . ... ... : ... .. . ... ...
ROW 63 : ... .. . ... ... ... : ... .. 7 ... ... ... : ... .. . ... : ... .. 6 ... : ... .. . ... ... : ... .. 5 ... ... : ... .. . ... ... : ... .. . ... ...
ROW 64 : ... .. . ... ... ... : ... .. . ... ... ... : ... .. . ... : ... .. 3 ... : ... .. . ... ... : ... .. . ... ... : ... .. . ... ... : ... .. . ... ...
ROW 65 : ... .. . ... ... ... : ... .. 6 ... ... ... : ... .. . ... : ... .. 1 ... : ... .. . ... ... : ... .. . ... ... : ... .. . ... ... : ... .. . ... ...
ROW 66 : ... .. . ... ... ... : ... .. 5 ... ... ... : ... .. . ... : ... .. . ... : ... .. . ... ... : ... .. 4 ... ... : ... .. . ... ... : ... .. . ... ...
ROW 67 : ... .. 7 ... ... ... : ... .. 4 ... ... ... : ... .. . ... : ... .. 0 ... : ... .. . ... ... : C#4 01 5 ... ... : ... .. . ... ... : ... .. . ... ...
ROW 68 : ... .. . ... ... ... : ... .. . ... ... ... : ... .. . ... : ... .. . ... : ... .. . ... ... : ... .. 4 ... ... : ... .. . ... ... : ... .. . ... ...
ROW 69 : ... .. . ... ... ... : ... .. . ... ... ... : ... .. . ... : ... .. . ... : ... .. . ... ... : ... .. . ... ... : ... .. . ... ... : ... .. . ... ...
ROW 6A : ... .. . ... ... ... : ... .. 3 ... ... ... : --- .. . ... : ... .. . ... : ... .. . ... ... : ... .. . ... ... : ... .. . ... ... : ... .. . ... ...
ROW 6B : ... .. . ... ... ... : ... .. . ... ... ... : ... .. . ... : ... .. . ... : ... .. . ... ... : ... .. . ... ... : ... .. . ... ... : ... .. . ... ...
ROW 6C : D#3 00 B ... ... ... : C#3 00 8 ... ... ... : D-2 00 . ... : ... .. F ... : ... .. . ... ... : D#4 01 5 ... ... : F#4 01 9 ... ... : ... .. . ... ...
ROW 6D : ... .. A ... ... ... : ... .. 7 ... ... ... : ... .. . ... : ... .. C ... : ... .. . ... ... : ... .. 4 ... ... : ... .. 8 ... ... : ... .. . ... ...
ROW 6E : ... .. 9 ... ... ... : ... .. . ... ... ... : ... .. . ... : ... .. 6 ... : ... .. . ... ... : ... .. . ... ... : ... .. . ... ... : ... .. . ... ...
ROW 6F : ... .. 7 ... ... ... : ... .. 6 ... ... ... : ... .. . ... : ... .. 3 ... : ... .. . ... ... : ... .. . ... ... : ... .. . ... ... : ... .. . ... ...
ROW 70 : ... .. . ... ... ... : ... .. 5 ... ... ... : ... .. . ... : ... .. 2 ... : ... .. . ... ... : ... .. . ... ... : ... .. 7 ... ... : ... .. . ... ...
ROW 71 : ... .. 6 ... ... ... : ... .. 4 ... ... ... : ... .. . ... : ... .. 0 ... : ... .. . ... ... : A#3 01 5 ... ... : ... .. . ... ... : ... .. . ... ...
ROW 72 : ... .. . ... ... ... : ... .. . ... ... ... : ... .. . ... : ... .. . ... : ... .. . ... ... : ... .. 4 ... ... : ... .. . ... ... : ... .. . ... ...
ROW 73 : ... .. . ... ... ... : ... .. . ... ... ... : ... .. . ... : ... .. . ... : ... .. . ... ... : ... .. . ... ... : ... .. 6 ... ... : ... .. . ... ...
ROW 74 : ... .. . ... ... ... : ... .. 3 ... ... ... : ... .. . ... : ... .. . ... : ... .. . ... ... : ... .. . ... ... : ... .. . ... ... : ... .. . ... ...
ROW 75 : ... .. . ... ... ... : ... .. . ... ... ... : ... .. . ... : ... .. . ... : ... .. . ... ... : ... .. . ... ... : ... .. . ... ... : ... .. . ... ...
ROW 76 : ... .. . ... ... ... : F-3 00 8 ... ... ... : ... .. . ... : ... .. . ... : ... .. . ... ... : B-3 01 5 ... ... : ... .. . ... ... : ... .. . ... ...
ROW 77 : ... .. . ... ... ... : ... .. 7 ... ... ... : ... .. . ... : ... .. . ... : ... .. . ... ... : ... .. 4 ... ... : ... .. . ... ... : ... .. . ... ...
ROW 78 : ... .. . ... ... ... : ... .. . ... ... ... : ... .. . ... : ... .. . ... : ... .. . ... ... : ... .. . ... ... : ... .. . ... ... : ... .. . ... ...
ROW 79 : ... .. . ... ... ... : ... .. 6 ... ... ... : ... .. . ... : ... .. . ... : ... .. . ... ... : ... .. . ... ... : ... .. . ... ... : ... .. . ... ...
ROW 7A : ... .. . ... ... ... : ... .. 5 ... ... ... : ... .. . ... : ... .. . ... : ... .. . ... ... : ... .. . ... ... : ... .. . ... ... : ... .. . ... ...
ROW 7B : ... .. . ... ... ... : ... .. 4 ... ... ... : ... .. . ... : ... .. . ... : ... .. . ... ... : D#4 01 4 ... ... : ... .. . ... ... : ... .. . ... ...
ROW 7C : ... .. . ... ... ... : ... .. . ... ... ... : ... .. . ... : ... .. . ... : ... .. . ... ... : ... .. . ... ... : ... .. . ... ... : ... .. . ... ...
ROW 7D : ... .. . ... ... ... : ... .. . ... ... ... : ... .. . ... : ... .. . ... : ... .. . ... ... : ... .. . ... ... : ... .. . ... ... : ... .. . ... ...
ROW 7E : ... .. . ... ... ... : ... .. 3 ... ... ... : ... .. . ... : ... .. . ... : ... .. . ... ... : ... .. . ... ... : ... .. . ... ... : ... .. . ... ...
ROW 7F : ... .. . ... ... ... : ... .. . ... ... ... : ... .. . ... : ... .. . ... : ... .. . ... ... : ... .. 3 ... ... : ... .. . ... ... : ... .. . ... ...
ROW 80 : F-3 00 9 ... ... ... : G-3 00 8 ... ... ... : C#2 00 . ... : ... .. . ... : ... .. . ... ... : F-4 01 4 ... ... : G-4 01 9 ... ... : ... .. . ... ...
ROW 81 : ... .. 8 ... ... ... : ... .. 7 ... ... ... : ... .. . ... : ... .. . ... : ... .. . ... ... : ... .. . ... ... : ... .. 8 ... ... : ... .. . ... ...
ROW 82 : ... .. 7 ... ... ... : ... .. . ... ... ... : ... .. . ... : ... .. . ... : ... .. . ... ... : ... .. . ... ... : ... .. . ... ... : ... .. . ... ...
ROW 83 : ... .. 6 ... ... ... : ... .. 6 ... ... ... : ... .. . ... : ... .. . ... : ... .. . ... ... : ... .. . ... ... : ... .. . ... ... : ... .. . ... ...
ROW 84 : ... .. . ... ... ... : ... .. 5 ... ... ... : ... .. . ... : ... .. . ... : ... .. . ... ... : ... .. 3 ... ... : ... .. 7 ... ... : ... .. . ... ...
ROW 85 : ... .. 5 ... ... ... : ... .. 4 ... ... ... : ... .. . ... : ... .. . ... : ... .. . ... ... : B-3 01 4 ... ... : ... .. . ... ... : ... .. . ... ...
ROW 86 : ... .. . ... ... ... : ... .. . ... ... ... : ... .. . ... : ... .. . ... : ... .. . ... ... : ... .. . ... ... : ... .. . ... ... : ... .. . ... ...
ROW 87 : ... .. . ... ... ... : ... .. . ... ... ... : ... .. . ... : ... .. . ... : ... .. . ... ... : ... .. . ... ... : ... .. 6 ... ... : ... .. . ... ...
ROW 88 : ... .. . ... ... ... : ... .. 3 ... ... ... : ... .. . ... : ... .. . ... : ... .. . ... ... : ... .. . ... ... : ... .. . ... ... : ... .. . ... ...
ROW 89 : ... .. . ... ... ... : ... .. . ... ... ... : ... .. . ... : ... .. . ... : ... .. . ... ... : ... .. 3 ... ... : ... .. . ... ... : ... .. . ... ...
ROW 8A : ... .. . ... ... ... : G#3 00 8 ... ... ... : C-2 00 . P90 : ... .. . ... : ... .. . ... ... : C#4 01 4 ... ... : ... .. . ... ... : ... .. . ... ...
ROW 8B : ... .. . ... ... ... : ... .. 7 ... ... ... : ... .. . P70 : ... .. . ... : ... .. . ... ... : ... .. . ... ... : ... .. . ... ... : ... .. . ... ...
ROW 8C : ... .. . ... ... ... : ... .. . ... ... ... : B-1 00 . P83 : ... .. . ... : ... .. . ... ... : ... .. . ... ... : ... .. . ... ... : ... .. . ... ...
ROW 8D : ... .. . ... ... ... : ... .. 6 ... ... ... : A#1 00 . P99 : ... .. . ... : ... .. . ... ... : ... .. . ... ... : ... .. . ... ... : ... .. . ... ...
ROW 8E : ... .. . ... ... ... : ... .. 5 ... ... ... : ... .. . P79 : ... .. . ... : ... .. . ... ... : ... .. 3 ... ... : ... .. . ... ... : ... .. . ... ...
ROW 8F : ... .. . ... ... ... : ... .. 4 ... ... ... : A-1 00 . P92 : ... .. . ... : ... .. . ... ... : F-4 01 4 ... ... : ... .. . ... ... : ... .. . ... ...
ROW 90 : ... .. . ... ... ... : ... .. . ... ... ... : ... .. . P72 : ... .. . ... : ... .. . ... ... : ... .. . ... ... : ... .. . ... ... : ... .. . ... ...
ROW 91 : ... .. . ... ... ... : ... .. . ... ... ... : G#1 00 . P8E : ... .. . ... : ... .. . ... ... : ... .. . ... ... : ... .. . ... ... : ... .. . ... ...
ROW 92 : ... .. . ... ... ... : ... .. 3 ... ... ... : ... .. . P6E : ... .. . ... : ... .. . ... ... : ... .. . ... ... : ... .. . ... ... : ... .. . ... ...
ROW 93 : ... .. . ... ... ... : ... .. . ... ... ... : G-1 00 . P8E : ... .. . ... : ... .. . ... ... : ... .. 3 ... ... : ... .. . ... ... : ... .. . ... ...
ROW 94 : C-3 00 F ... ... ... : G#4 00 8 ... ... ... : F-1 00 . P80 : D-# 00 D V01 : ... .. . ... ... : ... .. 9 ... ... : G#4 01 9 ... V03 : F-1 01 F ... ...
ROW 95 : ... .. E ... ... ... : ... .. 7 ... ... ... : ... .. . ... : ... .. B ... : ... .. . ... ... : ... .. 8 ... ... : ... .. 8 ... V01 : ... .. D ... ...
ROW 96 : ... .. D ... ... ... : ... .. . ... ... ... : ... .. . ... : ... .. . ... : ... .. . ... ... : ... .. . ... ... : ... .. . ... ... : ... .. 8 ... ...
ROW 97 : ... .. A ... ... ... : ... .. 6 ... ... ... : ... .. . ... : ... .. A ... : ... .. . ... ... : ... .. . ... ... : ... .. . ... ... : ... .. . ... ...
ROW 98 : ... .. . ... ... ... : ... .. 5 ... ... ... : ... .. . ... : ... .. 8 ... : ... .. . ... ... : ... .. 7 ... ... : ... .. . ... ... : ... .. . ... ...
ROW 99 : ... .. . ... ... ... : F-4 00 8 ... ... ... : ... .. . ... : ... .. 7 ... : ... .. . ... ... : ... .. . ... ... : ... .. . ... ... : ... .. . ... ...
ROW 9A : ... .. . ... ... ... : ... .. 7 ... ... ... : ... .. . ... : ... .. 6 ... : ... .. . ... ... : ... .. . ... ... : ... .. . ... ... : ... .. . ... ...
ROW 9B : ... .. . ... ... ... : ... .. . ... ... ... : ... .. . ... : ... .. . ... : ... .. . ... ... : ... .. 6 ... ... : ... .. 7 ... ... : ... .. . ... ...
ROW 9C : ... .. . ... ... ... : ... .. 6 ... ... ... : ... .. . ... : ... .. 5 ... : ... .. . ... ... : ... .. . ... ... : ... .. . ... ... : ... .. . ... ...
ROW 9D : ... .. . ... ... ... : ... .. 5 ... ... ... : ... .. . ... : ... .. . ... : ... .. . ... ... : ... .. . ... ... : ... .. . ... ... : ... .. . ... ...
ROW 9E : ... .. . ... ... ... : C-4 00 8 ... ... ... : ... .. . ... : ... .. 4 ... : ... .. . ... ... : ... .. . ... ... : ... .. . ... ... : ... .. . ... ...
ROW 9F : ... .. . ... ... ... : ... .. 7 ... ... ... : ... .. . ... : ... .. . ... : ... .. . ... ... : ... .. . ... ... : ... .. 6 ... ... : ... .. . ... ...
ROW A0 : ... .. . ... ... ... : ... .. . ... ... ... : ... .. . ... : ... .. 3 ... : ... .. . ... ... : ... .. . ... ... : ... .. . ... ... : ... .. . ... ...
ROW A1 : ... .. . ... ... ... : ... .. 6 ... ... ... : ... .. . ... : ... .. 2 ... : ... .. . ... ... : ... .. . ... ... : ... .. 5 ... ... : ... .. . ... ...
ROW A2 : ... .. . ... ... ... : ... .. 5 ... ... ... : ... .. . ... : ... .. . ... : ... .. . ... ... : ... .. . ... ... : ... .. . ... ... : ... .. . ... ...
ROW A3 : ... .. . ... ... ... : G#3 00 8 ... ... ... : ... .. . ... : ... .. 1 ... : ... .. . ... ... : ... .. . ... ... : ... .. . ... ... : ... .. . ... ...
ROW A4 : ... .. . ... ... ... : ... .. 7 ... ... ... : ... .. . ... : ... .. 0 ... : ... .. . ... ... : ... .. . ... ... : ... .. . ... ... : ... .. . ... ...
ROW A5 : ... .. . ... ... ... : ... .. . ... ... ... : ... .. . ... : ... .. . ... : ... .. . ... ... : ... .. . ... ... : ... .. 4 ... ... : ... .. . ... ...
ROW A6 : ... .. . ... ... ... : ... .. 6 ... ... ... : ... .. . ... : ... .. . ... : ... .. . ... ... : ... .. . ... ... : ... .. . ... ... : ... .. . ... ...
ROW A7 : ... .. . ... ... ... : ... .. 5 ... ... ... : ... .. . ... : ... .. . ... : ... .. . ... ... : ... .. . ... ... : ... .. . ... ... : ... .. . ... ...
ROW A8 : ... .. . ... ... ... : F-3 00 8 ... ... ... : ... .. . ... : 9-# 00 A V00 : ... .. . ... ... : ... .. . ... ... : ... .. . ... ... : ... .. . ... ...
ROW A9 : ... .. . ... ... ... : ... .. 7 ... ... ... : ... .. . ... : ... .. 8 ... : ... .. . ... ... : ... .. . ... ... : ... .. . ... ... : ... .. . ... ...
ROW AA : ... .. . ... ... ... : ... .. . ... ... ... : ... .. . ... : ... .. 4 ... : ... .. . ... ... : ... .. . ... ... : ... .. . ... ... : ... .. . ... ...
ROW AB : ... .. . ... ... ... : ... .. 6 ... ... ... : ... .. . ... : ... .. 2 ... : ... .. . ... ... : ... .. . ... ... : ... .. . ... ... : ... .. . ... ...
ROW AC : ... .. . ... ... ... : ... .. 5 ... ... ... : ... .. . ... : ... .. 1 ... : ... .. . ... ... : ... .. . ... ... : ... .. . ... ... : ... .. . ... ...
ROW AD : ... .. . ... ... ... : C-3 00 8 ... ... ... : ... .. . ... : ... .. 0 ... : ... .. . ... ... : ... .. . ... ... : ... .. . ... ... : ... .. . ... ...
ROW AE : ... .. . ... ... ... : ... .. 7 ... ... ... : ... .. . ... : ... .. . ... : ... .. . ... ... : ... .. . ... ... : ... .. . ... ... : ... .. . ... ...
ROW AF : ... .. . ... ... ... : ... .. . ... ... ... : ... .. . ... : ... .. . ... : ... .. . ... ... : ... .. . ... ... : ... .. . ... ... : ... .. . ... ...
ROW B0 : ... .. . ... ... ... : ... .. 6 ... ... ... : ... .. . ... : ... .. . ... : ... .. . ... ... : ... .. . ... ... : ... .. . ... ... : ... .. . ... ...
ROW B1 : ... .. . ... ... ... : ... .. 5 ... ... ... : ... .. . ... : ... .. . ... : ... .. . ... ... : ... .. . ... ... : ... .. . ... ... : ... .. . ... ...
ROW B2 : G#2 00 F ... ... ... : G#2 00 8 ... ... ... : ... .. . ... : ... .. 8 ... : ... .. . ... ... : C-4 01 9 ... ... : F-4 01 9 ... V03 : ... .. . ... ...
ROW B3 : ... .. E ... ... ... : ... .. 7 ... ... ... : ... .. . ... : ... .. 6 ... : ... .. . ... ... : ... .. 8 ... ... : ... .. 8 ... V01 : ... .. . ... ...
ROW B4 : ... .. D ... ... ... : ... .. . ... ... ... : ... .. . ... : ... .. 3 ... : ... .. . ... ... : ... .. . ... ... : ... .. . ... ... : ... .. . ... ...
ROW B5 : ... .. A ... ... ... : ... .. 6 ... ... ... : ... .. . ... : ... .. 1 ... : ... .. . ... ... : ... .. . ... ... : ... .. . ... ... : ... .. . ... ...
ROW B6 : ... .. . ... ... ... : ... .. 5 ... ... ... : ... .. . ... : ... .. . ... : ... .. . ... ... : ... .. 7 ... ... : ... .. . ... ... : ... .. . ... ...
ROW B7 : ... .. . ... ... ... : F-2 00 8 ... ... ... : ... .. . ... : ... .. 0 ... : ... .. . ... ... : ... .. 6 ... ... : ... .. . ... ... : ... .. . ... ...
ROW B8 : ... .. 2 ... ... ... : ... .. 7 ... ... ... : ... .. . ... : ... .. . ... : ... .. . ... ... : ... .. 5 ... ... : ... .. . ... ... : ... .. . ... ...
ROW B9 : ... .. . ... ... ... : ... .. . ... ... ... : ... .. . ... : ... .. . ... : ... .. . ... ... : ... .. . ... ... : ... .. 7 ... ... : ... .. . ... ...
ROW BA : ... .. . ... ... ... : ... .. 6 ... ... ... : ... .. . ... : ... .. . ... : ... .. . ... ... : ... .. 4 ... ... : ... .. . ... ... : ... .. . ... ...
ROW BB : ... .. 1 ... ... ... : ... .. 5 ... ... ... : ... .. . ... : ... .. . ... : ... .. . ... ... : ... .. 3 ... ... : ... .. . ... ... : ... .. . ... ...
ROW BC : ... .. F ... ... ... : C-2 00 8 ... ... ... : ... .. . ... : ... .. F ... : ... .. . ... ... : ... .. 9 ... ... : ... .. 9 ... V03 : C-2 01 F ... ...
ROW BD : ... .. E ... ... ... : ... .. 7 ... ... ... : ... .. . ... : ... .. C ... : ... .. . ... ... : ... .. 8 ... ... : ... .. 8 ... V01 : ... .. D ... ...
ROW BE : ... .. D ... ... ... : ... .. . ... ... ... : ... .. . ... : ... .. 6 ... : ... .. . ... ... : ... .. . ... ... : ... .. . ... ... : ... .. 8 ... ...
ROW BF : ... .. A ... ... ... : ... .. 6 ... ... ... : ... .. . ... : ... .. 3 ... : ... .. . ... ... : ... .. . ... ... : ... .. . ... ... : ... .. . ... ...
ROW C0 : ... .. . ... ... ... : ... .. 5 ... ... ... : ... .. . ... : ... .. 2 ... : ... .. . ... ... : ... .. 7 ... ... : ... .. . ... ... : ... .. . ... ...
ROW C1 : ... .. . ... ... ... : F-2 00 8 ... ... ... : ... .. . ... : ... .. 0 ... : ... .. . ... ... : ... .. . ... ... : ... .. . ... ... : ... .. . ... ...
ROW C2 : ... .. . ... ... ... : ... .. 7 ... ... ... : ... .. . ... : ... .. . ... : ... .. . ... ... : ... .. . ... ... : ... .. . ... ... : ... .. . ... ...
ROW C3 : ... .. . ... ... ... : ... .. . ... ... ... : ... .. . ... : ... .. . ... : ... .. . ... ... : ... .. 6 ... ... : ... .. 7 ... ... : ... .. . ... ...
ROW C4 : ... .. . ... ... ... : ... .. 6 ... ... ... : ... .. . ... : ... .. . ... : ... .. . ... ... : ... .. . ... ... : ... .. . ... ... : ... .. . ... ...
ROW C5 : ... .. . ... ... ... : ... .. 5 ... ... ... : ... .. . ... : ... .. . ... : ... .. . ... ... : ... .. . ... ... : ... .. . ... ... : ... .. . ... ...
ROW C6 : ... .. . ... ... ... : G#2 00 8 ... ... ... : ... .. . ... : ... .. . ... : ... .. . ... ... : ... .. . ... ... : ... .. . ... ... : ... .. . ... ...
ROW C7 : ... .. . ... ... ... : ... .. 7 ... ... ... : ... .. . ... : ... .. . ... : ... .. . ... ... : ... .. . ... ... : ... .. 6 ... ... : ... .. . ... ...
ROW C8 : ... .. . ... ... ... : ... .. . ... ... ... : ... .. . ... : ... .. . ... : ... .. . ... ... : ... .. . ... ... : ... .. . ... ... : ... .. . ... ...
ROW C9 : ... .. . ... ... ... : ... .. 6 ... ... ... : ... .. . ... : ... .. . ... : ... .. . ... ... : ... .. . ... ... : ... .. 5 ... ... : ... .. . ... ...
ROW CA : ... .. . ... ... ... : ... .. 5 ... ... ... : ... .. . ... : ... .. . ... : ... .. . ... ... : ... .. . ... ... : ... .. . ... ... : ... .. . ... ...
ROW CB : ... .. . ... ... ... : C-3 00 8 ... ... ... : ... .. . ... : ... .. . ... : ... .. . ... ... : ... .. . ... ... : ... .. . ... ... : ... .. . ... ...
ROW CC : ... .. . ... ... ... : ... .. 7 ... ... ... : ... .. . ... : ... .. . ... : ... .. . ... ... : ... .. . ... ... : ... .. . ... ... : ... .. . ... ...
ROW CD : ... .. . ... ... ... : ... .. . ... ... ... : ... .. . ... : ... .. . ... : ... .. . ... ... : ... .. . ... ... : ... .. 4 ... ... : ... .. . ... ...
ROW CE : ... .. . ... ... ... : ... .. 6 ... ... ... : ... .. . ... : ... .. . ... : ... .. . ... ... : ... .. . ... ... : ... .. . ... ... : ... .. . ... ...
ROW CF : ... .. . ... ... ... : ... .. 5 ... ... ... : ... .. . ... : ... .. . ... : ... .. . ... ... : ... .. . ... ... : ... .. . ... ... : ... .. . ... ...
ROW D0 : B-2 00 F ... ... ... : F-3 00 8 ... ... ... : ... .. . ... : D-# 00 8 ... : ... .. . ... ... : D-4 01 9 ... ... : G-4 01 9 ... V03 : ... .. . ... ...
ROW D1 : ... .. E ... ... ... : ... .. 7 ... ... ... : ... .. . ... : ... .. 7 ... : ... .. . ... ... : ... .. 8 ... ... : ... .. 8 ... V01 : ... .. . ... ...
ROW D2 : ... .. D ... ... ... : ... .. . ... ... ... : ... .. . ... : ... .. . ... : ... .. . ... ... : ... .. . ... ... : ... .. . ... ... : ... .. . ... ...
ROW D3 : ... .. A ... ... ... : ... .. 6 ... ... ... : ... .. . ... : ... .. 6 ... : ... .. . ... ... : ... .. . ... ... : ... .. . ... ... : ... .. . ... ...
ROW D4 : ... .. . ... ... ... : ... .. 5 ... ... ... : ... .. . ... : ... .. 5 ... : ... .. . ... ... : ... .. 7 ... ... : ... .. . ... ... : ... .. . ... ...
ROW D5 : ... .. . ... ... ... : G#3 00 8 ... ... ... : ... .. . ... : ... .. 4 ... : ... .. . ... ... : ... .. 6 ... ... : ... .. . ... ... : ... .. . ... ...
ROW D6 : ... .. 2 ... ... ... : ... .. 7 ... ... ... : ... .. . ... : ... .. . ... : ... .. . ... ... : ... .. 5 ... ... : ... .. . ... ... : ... .. . ... ...
ROW D7 : ... .. . ... ... ... : ... .. . ... ... ... : ... .. . ... : ... .. . ... : ... .. . ... ... : ... .. . ... ... : ... .. 7 ... ... : ... .. . ... ...
ROW D8 : ... .. . ... ... ... : ... .. 6 ... ... ... : ... .. . ... : ... .. 3 ... : ... .. . ... ... : ... .. 4 ... ... : ... .. . ... ... : ... .. . ... ...
ROW D9 : ... .. 1 ... ... ... : ... .. 5 ... ... ... : ... .. . ... : ... .. . ... : ... .. . ... ... : ... .. 3 ... ... : ... .. . ... ... : ... .. . ... ...
ROW DA : C-3 00 F ... ... ... : C-4 00 8 ... ... ... : ... .. . ... : ... .. 2 ... : ... .. . ... ... : C-4 01 9 ... ... : G#4 01 9 ... V03 : ... .. . ... ...
ROW DB : ... .. E ... ... ... : ... .. 7 ... ... ... : ... .. . ... : ... .. . ... : ... .. . ... ... : ... .. 8 ... ... : ... .. 8 ... V01 : ... .. . ... ...
ROW DC : ... .. D ... ... ... : ... .. . ... ... ... : ... .. . ... : ... .. . ... : ... .. . ... ... : ... .. . ... ... : ... .. . ... ... : ... .. . ... ...
ROW DD : ... .. A ... ... ... : ... .. 6 ... ... ... : ... .. . ... : ... .. 1 ... : ... .. . ... ... : ... .. . ... ... : ... .. . ... ... : ... .. . ... ...
ROW DE : ... .. . ... ... ... : ... .. 5 ... ... ... : ... .. . ... : ... .. . ... : ... .. . ... ... : ... .. 7 ... ... : ... .. . ... ... : ... .. . ... ...
ROW DF : ... .. . ... ... ... : F-4 00 8 ... ... ... : ... .. . ... : ... .. . ... : ... .. . ... ... : ... .. 6 ... ... : ... .. . ... ... : ... .. . ... ...
ROW E0 : ... .. 2 ... ... ... : ... .. 7 ... ... ... : ... .. . ... : ... .. 0 ... : ... .. . ... ... : ... .. 5 ... ... : ... .. . ... ... : ... .. . ... ...
ROW E1 : ... .. . ... ... ... : ... .. . ... ... ... : ... .. . ... : ... .. . ... : ... .. . ... ... : ... .. . ... ... : ... .. 7 ... ... : ... .. . ... ...
ROW E2 : ... .. . ... ... ... : ... .. 6 ... ... ... : ... .. . ... : ... .. . ... : ... .. . ... ... : ... .. 4 ... ... : ... .. . ... ... : ... .. . ... ...
ROW E3 : ... .. 1 ... ... ... : ... .. 5 ... ... ... : ... .. . ... : ... .. . ... : ... .. . ... ... : ... .. 3 ... ... : ... .. . ... ... : ... .. . ... ...
ROW E4 : B-2 00 F ... ... ... : G-4 00 8 ... ... ... : G-1 00 . ... : ... .. D ... : ... .. . ... ... : B-3 01 9 ... ... : G-4 01 9 ... V03 : D-2 01 F ... ...
ROW E5 : ... .. E ... ... ... : ... .. 7 ... ... ... : ... .. . ... : ... .. B ... : ... .. . ... ... : ... .. 8 ... ... : ... .. 8 ... V01 : ... .. D ... ...
ROW E6 : ... .. D ... ... ... : ... .. . ... ... ... : ... .. . ... : ... .. . ... : ... .. . ... ... : ... .. . ... ... : ... .. . ... ... : ... .. 8 ... ...
ROW E7 : ... .. A ... ... ... : ... .. 6 ... ... ... : ... .. . ... : ... .. A ... : ... .. . ... ... : ... .. . ... ... : ... .. . ... ... : ... .. . ... ...
ROW E8 : ... .. . ... ... ... : ... .. 5 ... ... ... : ... .. . ... : ... .. 8 ... : ... .. . ... ... : ... .. 7 ... ... : ... .. . ... ... : ... .. . ... ...
ROW E9 : ... .. . ... ... ... : ... .. 4 ... ... ... : ... .. . ... : ... .. 7 ... : ... .. . ... ... : ... .. . ... ... : ... .. . ... ... : ... .. . ... ...
ROW EA : ... .. . ... ... ... : ... .. . ... ... ... : ... .. . ... : ... .. 6 ... : ... .. . ... ... : ... .. . ... ... : ... .. . ... ... : ... .. . ... ...
ROW EB : ... .. . ... ... ... : ... .. . ... ... ... : ... .. . ... : ... .. . ... : ... .. . ... ... : ... .. 6 ... ... : ... .. 7 ... ... : ... .. . ... ...
ROW EC : ... .. . ... ... ... : ... .. 3 ... ... ... : ... .. . ... : ... .. 5 ... : ... .. . ... ... : ... .. . ... ... : ... .. . ... ... : ... .. . ... ...
ROW ED : ... .. . ... ... ... : ... .. . ... ... ... : ... .. . ... : ... .. . ... : ... .. . ... ... : ... .. . ... ... : ... .. . ... ... : ... .. . ... ...
ROW EE : ... .. . ... ... ... : ... .. 2 ... ... ... : ... .. . ... : ... .. 4 ... : ... .. . ... ... : ... .. . ... ... : ... .. . ... ... : ... .. . ... ...
ROW EF : ... .. 2 ... ... ... : ... .. . ... ... ... : ... .. . ... : ... .. . ... : ... .. . ... ... : ... .. 5 ... ... : ... .. 6 ... ... : ... .. . ... ...
ROW F0 : ... .. . ... ... ... : ... .. . ... ... ... : ... .. . ... : ... .. 3 ... : ... .. . ... ... : ... .. . ... ... : ... .. . ... ... : ... .. . ... ...
ROW F1 : ... .. . ... ... ... : ... .. 1 ... ... ... : ... .. . ... : ... .. 2 ... : ... .. . ... ... : ... .. 4 ... ... : ... .. 5 ... ... : ... .. . ... ...
ROW F2 : ... .. 1 ... ... ... : ... .. . ... ... ... : ... .. . ... : ... .. . ... : ... .. . ... ... : ... .. 3 ... ... : ... .. . ... ... : ... .. . ... ...
ROW F3 : ... .. . ... ... ... : ... .. . ... ... ... : ... .. . ... : ... .. 1 ... : ... .. . ... ... : ... .. . ... ... : ... .. . ... ... : ... .. . ... ...
ROW F4 : ... .. . ... ... ... : ... .. 0 ... ... ... : ... .. . ... : ... .. 0 ... : ... .. . ... ... : ... .. . ... ... : ... .. . ... ... : ... .. . ... ...
ROW F5 : ... .. 0 ... V00 ... : ... .. . ... ... ... : ... .. . ... : ... .. . ... : ... .. . ... ... : ... .. . ... ... : ... .. 4 ... ... : ... .. . ... ...
ROW F6 : ... .. . ... ... ... : ... .. . ... ... ... : ... .. . ... : ... .. . ... : ... .. . ... ... : ... .. . ... ... : ... .. . ... ... : ... .. . ... ...
ROW F7 : ... .. . ... ... ... : ... .. . ... ... ... : ... .. . ... : ... .. . ... : ... .. . ... ... : ... .. . ... ... : ... .. . ... ... : ... .. . ... ...
ROW F8 : G-2 00 F P80 V01 ... : D-4 00 8 P80 ... ... : G-2 00 . ... : 9-# 00 A ... : ... .. . ... ... : B-2 01 9 ... ... : D-4 01 9 ... V03 : G-1 01 F ... ...
ROW F9 : ... .. E ... ... ... : ... .. 7 ... ... ... : ... .. . ... : ... .. 8 ... : ... .. . ... ... : ... .. 8 ... ... : ... .. 8 ... V01 : ... .. D ... ...
ROW FA : ... .. D ... ... ... : ... .. . ... ... ... : ... .. . ... : ... .. 4 ... : ... .. . ... ... : ... .. . ... ... : ... .. . ... ... : ... .. 8 ... ...
ROW FB : ... .. A ... ... ... : ... .. 6 ... ... ... : ... .. . ... : ... .. 2 ... : ... .. . ... ... : ... .. . ... ... : ... .. . ... ... : ... .. . ... ...
ROW FC : ... .. . ... ... ... : ... .. 5 ... ... ... : ... .. . ... : ... .. 1 ... : ... .. . ... ... : ... .. 7 ... ... : ... .. . ... ... : ... .. . ... ...
ROW FD : ... .. . ... ... ... : ... .. 4 ... ... ... : ... .. . ... : ... .. 0 ... : ... .. . ... ... : ... .. . ... ... : ... .. . ... ... : ... .. . ... ...
ROW FE : ... .. . ... ... ... : ... .. . ... ... ... : ... .. . ... : ... .. . ... : ... .. . ... ... : ... .. . ... ... : ... .. . ... ... : ... .. . ... ...
ROW FF : ... .. . ... ... ... : ... .. . ... ... ... : ... .. . ... : ... .. 8 ... : ... .. . ... ... : ... .. 6 ... ... : ... .. 7 ... ... : ... .. . ... ...

PATTERN 17
ROW 00 : ... .. . ... ... ... : ... .. 3 ... ... ... : ... .. . ... : ... .. 6 ... : ... .. . ... ... : ... .. . ... ... : ... .. . ... ... : ... .. . ... ...
ROW 01 : ... .. . ... ... ... : ... .. . ... ... ... : ... .. . ... : ... .. 3 ... : ... .. . ... ... : ... .. . ... ... : ... .. . ... ... : ... .. . ... ...
ROW 02 : ... .. . ... ... ... : ... .. 2 ... ... ... : ... .. . ... : ... .. 1 ... : ... .. . ... ... : ... .. . ... ... : ... .. . ... ... : ... .. . ... ...
ROW 03 : ... .. 2 ... ... ... : ... .. . ... ... ... : ... .. . ... : ... .. . ... : ... .. . ... ... : ... .. 5 ... ... : ... .. 6 ... ... : ... .. . ... ...
ROW 04 : ... .. . ... ... ... : ... .. . ... ... ... : ... .. . ... : ... .. 0 ... : ... .. . ... ... : ... .. . ... ... : ... .. . ... ... : ... .. . ... ...
ROW 05 : ... .. . ... ... ... : ... .. 1 ... ... ... : ... .. . ... : ... .. C ... : ... .. . ... ... : ... .. 4 ... ... : ... .. 5 ... ... : ... .. . ... ...
ROW 06 : ... .. 1 ... ... ... : ... .. . ... ... ... : ... .. . ... : ... .. 9 ... : ... .. . ... ... : ... .. 3 ... ... : ... .. . ... ... : ... .. . ... ...
ROW 07 : ... .. . ... ... ... : ... .. . ... ... ... : ... .. . ... : ... .. 4 ... : ... .. . ... ... : ... .. . ... ... : ... .. . ... ... : ... .. . ... ...
ROW 08 : ... .. . ... ... ... : ... .. 0 ... ... ... : ... .. . ... : ... .. 2 ... : ... .. . ... ... : ... .. . ... ... : ... .. . ... ... : ... .. . ... ...
ROW 09 : ... .. 0 ... V00 ... : ... .. . ... ... ... : ... .. . ... : ... .. 1 ... : ... .. . ... ... : ... .. . ... ... : ... .. 4 ... ... : ... .. . ... ...
ROW 0A : ... .. . ... ... ... : ... .. . ... ... ... : ... .. . ... : ... .. 0 ... : ... .. . ... ... : ... .. . ... ... : ... .. . ... ... : ... .. . ... ...
ROW 0B : ... .. . ... ... ... : ... .. . ... ... ... : ... .. . ... : ... .. . ... : ... .. . ... ... : ... .. . ... ... : ... .. . ... ... : ... .. . ... ...
ROW 0C : G-1 00 F P80 V01 ... : D-3 00 8 P80 ... ... : F#3 00 . ... : ... .. F ... : ... .. . ... ... : G-0 01 9 ... ... : G-1 01 9 ... V03 : G-0 01 F ... ...
ROW 0D : ... .. E ... ... ... : ... .. 7 ... ... ... : G#2 00 . ... : ... .. C ... : ... .. . ... ... : ... .. 8 ... ... : ... .. 8 ... V01 : ... .. D ... ...
ROW 0E : ... .. D ... ... ... : ... .. . ... ... ... : C#2 00 . ... : ... .. 6 ... : ... .. . ... ... : ... .. . ... ... : ... .. . ... ... : ... .. 8 ... ...
ROW 0F : ... .. A ... ... ... : ... .. 6 ... ... ... : C-2 00 . ... : ... .. 3 ... : ... .. . ... ... : ... .. . ... ... : ... .. . ... ... : ... .. . ... ...
ROW 10 : ... .. . ... ... ... : ... .. 5 ... ... ... : G-1 00 . ... : ... .. 2 ... : ... .. . ... ... : ... .. 7 ... ... : ... .. . ... ... : ... .. . ... ...
ROW 11 : ... .. . ... ... ... : ... .. 4 ... ... ... : ... .. . ... : ... .. 0 ... : ... .. . ... ... : ... .. . ... ... : ... .. . ... ... : ... .. . ... ...
ROW 12 : ... .. . ... ... ... : ... .. . ... ... ... : ... .. . ... : ... .. . ... : ... .. . ... ... : ... .. . ... ... : ... .. . ... ... : ... .. . ... ...
ROW 13 : ... .. . ... ... ... : ... .. . ... ... ... : ... .. . ... : ... .. . ... : ... .. . ... ... : ... .. 6 ... ... : ... .. 7 ... ... : ... .. . ... ...
ROW 14 : ... .. . ... ... ... : ... .. 3 ... ... ... : ... .. . ... : ... .. . ... : ... .. . ... ... : ... .. . ... ... : ... .. . ... ... : ... .. . ... ...
ROW 15 : ... .. . ... ... ... : ... .. . ... ... ... : ... .. . ... : ... .. . ... : ... .. . ... ... : ... .. . ... ... : ... .. . ... ... : ... .. . ... ...
ROW 16 : ... .. . ... ... ... : ... .. 2 ... ... ... : ... .. . ... : ... .. . ... : ... .. . ... ... : ... .. . ... ... : ... .. . ... ... : ... .. . ... ...
ROW 17 : ... .. 2 ... ... ... : ... .. . ... ... ... : ... .. . ... : ... .. . ... : ... .. . ... ... : ... .. 5 ... ... : ... .. 6 ... ... : ... .. 4 ... ...
ROW 18 : ... .. . ... ... ... : ... .. . ... ... ... : ... .. . ... : ... .. . ... : ... .. . ... ... : ... .. . ... ... : ... .. . ... ... : ... .. . ... ...
ROW 19 : ... .. . ... ... ... : ... .. 1 ... ... ... : ... .. . ... : ... .. . ... : ... .. . ... ... : ... .. 4 ... ... : ... .. 5 ... ... : ... .. 1 ... ...
ROW 1A : ... .. 1 ... ... ... : ... .. . ... ... ... : ... .. . ... : ... .. . ... : ... .. . ... ... : ... .. 3 ... ... : ... .. . ... ... : ... .. . ... ...
ROW 1B : ... .. . ... ... ... : ... .. . ... ... ... : ... .. . ... : ... .. . ... : ... .. . ... ... : ... .. . ... ... : ... .. . ... ... : ... .. . ... ...
ROW 1C : ... .. . ... ... ... : ... .. 0 ... ... ... : ... .. . ... : ... .. . ... : ... .. . ... ... : ... .. . ... ... : ... .. . ... ... : ... .. . ... ...
ROW 1D : ... .. 0 ... V00 ... : ... .. . ... ... ... : ... .. . ... : ... .. . ... : ... .. . ... ... : ... .. . ... ... : ... .. 4 ... ... : ... .. . ... ...
ROW 1E : ... .. . ... ... ... : ... .. . ... ... ... : ... .. . ... : ... .. . ... : ... .. . ... ... : ... .. . ... ... : ... .. . ... ... : ... .. . ... ...
ROW 1F : ... .. . ... ... ... : ... .. . ... ... ... : ... .. . ... : ... .. . ... : ... .. . ... ... : ... .. . ... ... : ... .. . ... ... : ... .. . ... ...
ROW 20 : D-1 00 F P80 V01 ... : G-2 00 8 P80 ... ... : C#3 00 . ... : ... .. . ... : ... .. . ... ... : D-0 01 9 ... ... : D-1 01 9 ... V03 : D-0 01 F ... ...
ROW 21 : ... .. E ... ... ... : ... .. 7 ... ... ... : D#2 00 . ... : ... .. . ... : ... .. . ... ... : ... .. 8 ... ... : ... .. 8 ... V01 : ... .. D ... ...
ROW 22 : ... .. D ... ... ... : ... .. . ... ... ... : G#1 00 . ... : ... .. . ... : ... .. . ... ... : ... .. . ... ... : ... .. . ... ... : ... .. 8 ... ...
ROW 23 : ... .. A ... ... ... : ... .. 6 ... ... ... : G-1 00 . ... : ... .. . ... : ... .. . ... ... : ... .. . ... ... : ... .. . ... ... : ... .. . ... ...
ROW 24 : ... .. . ... ... ... : ... .. 5 ... ... ... : D-1 00 . ... : ... .. . ... : ... .. . ... ... : ... .. 7 ... ... : ... .. . ... ... : ... .. . ... ...
ROW 25 : ... .. . ... ... ... : ... .. 4 ... ... ... : ... .. . ... : ... .. . ... : ... .. . ... ... : ... .. . ... ... : ... .. . ... ... : ... .. . ... ...
ROW 26 : ... .. . ... ... ... : ... .. . ... ... ... : ... .. . ... : ... .. . ... : ... .. . ... ... : ... .. . ... ... : ... .. . ... ... : ... .. . ... ...
ROW 27 : ... .. . ... ... ... : ... .. . ... ... ... : ... .. . ... : ... .. . ... : ... .. . ... ... : ... .. 6 ... ... : ... .. 7 ... ... : ... .. . ... ...
ROW 28 : ... .. . ... ... ... : ... .. 3 ... ... ... : ... .. . ... : ... .. . ... : ... .. . ... ... : ... .. . ... ... : ... .. . ... ... : ... .. . ... ...
ROW 29 : ... .. . ... ... ... : ... .. . ... ... ... : ... .. . ... : ... .. . ... : ... .. . ... ... : ... .. . ... ... : ... .. . ... ... : ... .. . ... ...
ROW 2A : ... .. . ... ... ... : ... .. 2 ... ... ... : ... .. . ... : ... .. . ... : ... .. . ... ... : ... .. . ... ... : ... .. . ... ... : ... .. . ... ...
ROW 2B : ... .. 2 ... ... ... : ... .. . ... ... ... : ... .. . ... : ... .. . ... : ... .. . ... ... : ... .. 5 ... ... : ... .. 6 ... ... : ... .. 4 ... ...
ROW 2C : ... .. . ... ... ... : ... .. . ... ... ... : ... .. . ... : ... .. . ... : ... .. . ... ... : ... .. . ... ... : ... .. . ... ... : ... .. . ... ...
ROW 2D : ... .. . ... ... ... : ... .. 1 ... ... ... : ... .. . ... : ... .. . ... : ... .. . ... ... : ... .. 4 ... ... : ... .. 5 ... ... : ... .. 1 ... ...
ROW 2E : ... .. 1 ... ... ... : ... .. . ... ... ... : ... .. . ... : ... .. . ... : ... .. . ... ... : ... .. 3 ... ... : ... .. . ... ... : ... .. . ... ...
ROW 2F : ... .. . ... ... ... : ... .. . ... ... ... : ... .. . ... : ... .. . ... : ... .. . ... ... : ... .. . ... ... : ... .. . ... ... : ... .. . ... ...
ROW 30 : ... .. . ... ... ... : ... .. 0 ... ... ... : ... .. . ... : ... .. . ... : ... .. . ... ... : ... .. . ... ... : ... .. . ... ... : ... .. . ... ...
ROW 31 : ... .. 0 ... V00 ... : ... .. . ... ... ... : ... .. . ... : ... .. . ... : ... .. . ... ... : ... .. . ... ... : ... .. 4 ... ... : ... .. . ... ...
ROW 32 : ... .. . ... ... ... : ... .. . ... ... ... : ... .. . ... : ... .. . ... : ... .. . ... ... : ... .. . ... ... : ... .. . ... ... : ... .. . ... ...
ROW 33 : ... .. . ... ... ... : ... .. . ... ... ... : ... .. . ... : ... .. . ... : ... .. . ... ... : ... .. . ... ... : ... .. . ... ... : ... .. . ... ...
ROW 34 : C-3 00 F P80 V01 ... : G#4 00 8 P80 ... ... : F-2 00 . ... : D-# 00 D V01 : ... .. . ... ... : F-4 01 9 ... ... : G#4 01 9 ... V03 : F-0 01 F ... ...
ROW 35 : ... .. E ... ... ... : ... .. 7 ... ... ... : ... .. . ... : ... .. B ... : ... .. . ... ... : ... .. 8 ... ... : ... .. 8 ... V01 : ... .. D ... ...
ROW 36 : ... .. D ... ... ... : ... .. . ... ... ... : ... .. . ... : ... .. . ... : ... .. . ... ... : ... .. . ... ... : ... .. . ... ... : ... .. 8 ... ...
ROW 37 : ... .. A ... ... ... : ... .. 6 ... ... ... : ... .. . ... : ... .. A ... : ... .. . ... ... : ... .. . ... ... : ... .. . ... ... : ... .. . ... ...
ROW 38 : ... .. . ... ... ... : ... .. 5 ... ... ... : ... .. . ... : ... .. 8 ... : ... .. . ... ... : ... .. 7 ... ... : ... .. . ... ... : ... .. . ... ...
ROW 39 : ... .. . ... ... ... : F-4 00 8 ... ... ... : ... .. . ... : ... .. 7 ... : ... .. . ... ... : ... .. . ... ... : ... .. . ... ... : ... .. . ... ...
ROW 3A : ... .. . ... ... ... : ... .. 7 ... ... ... : ... .. . ... : ... .. 6 ... : ... .. . ... ... : ... .. . ... ... : ... .. . ... ... : ... .. . ... ...
ROW 3B : ... .. . ... ... ... : ... .. . ... ... ... : ... .. . ... : ... .. . ... : ... .. . ... ... : ... .. 6 ... ... : ... .. 7 ... ... : ... .. . ... ...
ROW 3C : ... .. . ... ... ... : ... .. 6 ... ... ... : ... .. . ... : ... .. 5 ... : ... .. . ... ... : ... .. . ... ... : ... .. . ... ... : ... .. . ... ...
ROW 3D : ... .. . ... ... ... : ... .. 5 ... ... ... : ... .. . ... : ... .. . ... : ... .. . ... ... : ... .. . ... ... : ... .. . ... ... : ... .. . ... ...
ROW 3E : ... .. . ... ... ... : C-4 00 8 ... ... ... : ... .. . ... : ... .. 4 ... : ... .. . ... ... : ... .. . ... ... : ... .. . ... ... : ... .. . ... ...
ROW 3F : ... .. . ... ... ... : ... .. 7 ... ... ... : ... .. . ... : ... .. . ... : ... .. . ... ... : ... .. . ... ... : ... .. 6 ... ... : ... .. . ... ...
ROW 40 : ... .. . ... ... ... : ... .. . ... ... ... : ... .. . ... : ... .. 3 ... : ... .. . ... ... : ... .. . ... ... : ... .. . ... ... : ... .. . ... ...
ROW 41 : ... .. . ... ... ... : ... .. 6 ... ... ... : ... .. . ... : ... .. 2 ... : ... .. . ... ... : ... .. . ... ... : ... .. 5 ... ... : ... .. . ... ...
ROW 42 : ... .. . ... ... ... : ... .. 5 ... ... ... : ... .. . ... : ... .. . ... : ... .. . ... ... : ... .. . ... ... : ... .. . ... ... : ... .. . ... ...
ROW 43 : ... .. . ... ... ... : G#3 00 8 ... ... ... : ... .. . ... : ... .. 1 ... : ... .. . ... ... : ... .. . ... ... : ... .. . ... ... : ... .. . ... ...
ROW 44 : ... .. . ... ... ... : ... .. 7 ... ... ... : ... .. . ... : ... .. 0 ... : ... .. . ... ... : ... .. . ... ... : ... .. . ... ... : ... .. . ... ...
ROW 45 : ... .. . ... ... ... : ... .. . ... ... ... : ... .. . ... : ... .. . ... : ... .. . ... ... : ... .. . ... ... : ... .. 4 ... ... : ... .. . ... ...
ROW 46 : ... .. . ... ... ... : ... .. 6 ... ... ... : ... .. . ... : ... .. . ... : ... .. . ... ... : ... .. . ... ... : ... .. . ... ... : ... .. . ... ...
ROW 47 : ... .. . ... ... ... : ... .. 5 ... ... ... : ... .. . ... : ... .. . ... : ... .. . ... ... : ... .. . ... ... : ... .. . ... ... : ... .. . ... ...
ROW 48 : ... .. . ... ... ... : F-3 00 8 ... ... ... : C-3 00 . ... : 9-# 00 A V00 : ... .. . ... ... : ... .. . ... ... : ... .. . ... ... : ... .. . ... ...
ROW 49 : ... .. . ... ... ... : ... .. 7 ... ... ... : ... .. . ... : ... .. 8 ... : ... .. . ... ... : ... .. . ... ... : ... .. . ... ... : ... .. . ... ...
ROW 4A : ... .. . ... ... ... : ... .. . ... ... ... : ... .. . ... : ... .. 4 ... : ... .. . ... ... : ... .. . ... ... : ... .. . ... ... : ... .. . ... ...
ROW 4B : ... .. . ... ... ... : ... .. 6 ... ... ... : ... .. . ... : ... .. 2 ... : ... .. . ... ... : ... .. . ... ... : ... .. . ... ... : ... .. . ... ...
ROW 4C : ... .. . ... ... ... : ... .. 5 ... ... ... : ... .. . ... : ... .. 1 ... : ... .. . ... ... : ... .. . ... ... : ... .. . ... ... : ... .. . ... ...
ROW 4D : ... .. . ... ... ... : C-3 00 8 ... ... ... : ... .. . ... : ... .. 0 ... : ... .. . ... ... : ... .. . ... ... : ... .. . ... ... : ... .. . ... ...
ROW 4E : ... .. 2 ... ... ... : ... .. 7 ... ... ... : ... .. . ... : ... .. . ... : ... .. . ... ... : ... .. 5 ... ... : ... .. . ... ... : ... .. . ... ...
ROW 4F : ... .. . ... ... ... : ... .. . ... ... ... : ... .. . ... : ... .. . ... : ... .. . ... ... : ... .. . ... ... : ... .. . ... ... : ... .. . ... ...
ROW 50 : ... .. . ... ... ... : ... .. 6 ... ... ... : ... .. . ... : ... .. . ... : ... .. . ... ... : ... .. 4 ... ... : ... .. . ... ... : ... .. . ... ...
ROW 51 : ... .. 1 ... ... ... : ... .. 5 ... ... ... : ... .. . ... : ... .. . ... : ... .. . ... ... : ... .. 3 ... ... : ... .. . ... ... : ... .. . ... ...
ROW 52 : G#2 00 F ... ... ... : G#2 00 8 ... ... ... : D-3 00 . ... : ... .. 8 ... : ... .. . ... ... : C-4 01 9 ... ... : F-4 01 9 ... V03 : ... .. . ... ...
ROW 53 : ... .. E ... ... ... : ... .. 7 ... ... ... : ... .. . ... : ... .. 6 ... : ... .. . ... ... : ... .. 8 ... ... : ... .. 8 ... V01 : ... .. . ... ...
ROW 54 : ... .. D ... ... ... : ... .. . ... ... ... : ... .. . ... : ... .. 3 ... : ... .. . ... ... : ... .. . ... ... : ... .. . ... ... : ... .. . ... ...
ROW 55 : ... .. A ... ... ... : ... .. 6 ... ... ... : ... .. . ... : ... .. 1 ... : ... .. . ... ... : ... .. . ... ... : ... .. . ... ... : ... .. . ... ...
ROW 56 : ... .. . ... ... ... : ... .. 5 ... ... ... : ... .. . ... : ... .. . ... : ... .. . ... ... : ... .. 7 ... ... : ... .. . ... ... : ... .. . ... ...
ROW 57 : ... .. . ... ... ... : F-2 00 8 ... ... ... : ... .. . ... : ... .. 0 ... : ... .. . ... ... : ... .. 6 ... ... : ... .. . ... ... : ... .. . ... ...
ROW 58 : ... .. 2 ... ... ... : ... .. 7 ... ... ... : ... .. . ... : ... .. . ... : ... .. . ... ... : ... .. 5 ... ... : ... .. . ... ... : ... .. . ... ...
ROW 59 : ... .. . ... ... ... : ... .. . ... ... ... : ... .. . ... : ... .. . ... : ... .. . ... ... : ... .. . ... ... : ... .. 7 ... ... : ... .. . ... ...
ROW 5A : ... .. . ... ... ... : ... .. 6 ... ... ... : ... .. . ... : ... .. . ... : ... .. . ... ... : ... .. 4 ... ... : ... .. . ... ... : ... .. . ... ...
ROW 5B : ... .. 1 ... ... ... : ... .. 5 ... ... ... : ... .. . ... : ... .. . ... : ... .. . ... ... : ... .. 3 ... ... : ... .. . ... ... : ... .. . ... ...
ROW 5C : ... .. F ... ... ... : C-2 00 8 ... ... ... : D#3 00 . ... : ... .. F ... : ... .. . ... ... : ... .. 9 ... ... : ... .. 9 ... V03 : F-1 01 F ... ...
ROW 5D : ... .. E ... ... ... : ... .. 7 ... ... ... : ... .. . ... : ... .. C ... : ... .. . ... ... : ... .. 8 ... ... : ... .. 8 ... V01 : ... .. D ... ...
ROW 5E : ... .. D ... ... ... : ... .. . ... ... ... : ... .. . ... : ... .. 6 ... : ... .. . ... ... : ... .. . ... ... : ... .. . ... ... : ... .. 8 ... ...
ROW 5F : ... .. A ... ... ... : ... .. 6 ... ... ... : ... .. . ... : ... .. 3 ... : ... .. . ... ... : ... .. . ... ... : ... .. . ... ... : ... .. . ... ...
ROW 60 : ... .. . ... ... ... : ... .. 5 ... ... ... : ... .. . ... : ... .. 2 ... : ... .. . ... ... : ... .. 7 ... ... : ... .. . ... ... : ... .. . ... ...
ROW 61 : ... .. . ... ... ... : F-2 00 8 ... ... ... : ... .. . ... : ... .. 0 ... : ... .. . ... ... : ... .. . ... ... : ... .. . ... ... : ... .. . ... ...
ROW 62 : ... .. . ... ... ... : ... .. 7 ... ... ... : ... .. . ... : ... .. . ... : ... .. . ... ... : ... .. . ... ... : ... .. . ... ... : ... .. . ... ...
ROW 63 : ... .. . ... ... ... : ... .. . ... ... ... : ... .. . ... : ... .. . ... : ... .. . ... ... : ... .. 6 ... ... : ... .. 7 ... ... : ... .. . ... ...
ROW 64 : ... .. . ... ... ... : ... .. 6 ... ... ... : ... .. . ... : ... .. . ... : ... .. . ... ... : ... .. . ... ... : ... .. . ... ... : ... .. . ... ...
ROW 65 : ... .. . ... ... ... : ... .. 5 ... ... ... : ... .. . ... : ... .. . ... : ... .. . ... ... : ... .. . ... ... : ... .. . ... ... : ... .. . ... ...
ROW 66 : ... .. . ... ... ... : G#2 00 8 ... ... ... : D-3 00 . ... : ... .. . ... : ... .. . ... ... : ... .. . ... ... : ... .. . ... ... : ... .. . ... ...
ROW 67 : ... .. . ... ... ... : ... .. 7 ... ... ... : ... .. . ... : ... .. . ... : ... .. . ... ... : ... .. . ... ... : ... .. 6 ... ... : ... .. . ... ...
ROW 68 : ... .. . ... ... ... : ... .. . ... ... ... : ... .. . ... : ... .. . ... : ... .. . ... ... : ... .. . ... ... : ... .. . ... ... : ... .. . ... ...
ROW 69 : ... .. . ... ... ... : ... .. 6 ... ... ... : ... .. . ... : ... .. . ... : ... .. . ... ... : ... .. . ... ... : ... .. 5 ... ... : ... .. . ... ...
ROW 6A : ... .. . ... ... ... : ... .. 5 ... ... ... : ... .. . ... : ... .. . ... : ... .. . ... ... : ... .. . ... ... : ... .. . ... ... : ... .. . ... ...
ROW 6B : ... .. . ... ... ... : C-3 00 8 ... ... ... : ... .. . ... : ... .. . ... : ... .. . ... ... : ... .. . ... ... : ... .. . ... ... : ... .. . ... ...
ROW 6C : ... .. 2 ... ... ... : ... .. 7 ... ... ... : ... .. . ... : ... .. . ... : ... .. . ... ... : ... .. 5 ... ... : ... .. . ... ... : ... .. . ... ...
ROW 6D : ... .. . ... ... ... : ... .. . ... ... ... : ... .. . ... : ... .. . ... : ... .. . ... ... : ... .. . ... ... : ... .. 4 ... ... : ... .. . ... ...
ROW 6E : ... .. . ... ... ... : ... .. 6 ... ... ... : ... .. . ... : ... .. . ... : ... .. . ... ... : ... .. 4 ... ... : ... .. . ... ... : ... .. . ... ...
ROW 6F : ... .. 1 ... ... ... : ... .. 5 ... ... ... : ... .. . ... : ... .. . ... : ... .. . ... ... : ... .. 3 ... ... : ... .. . ... ... : ... .. . ... ...
ROW 70 : F-2 00 F ... ... ... : F-3 00 8 ... ... ... : C-3 00 . ... : D-# 00 F ... : ... .. . ... ... : G#3 01 9 ... ... : G-4 01 9 ... V03 : ... .. . ... ...
ROW 71 : ... .. E ... ... ... : ... .. 7 ... ... ... : ... .. . ... : ... .. C ... : ... .. . ... ... : ... .. 8 ... ... : ... .. 8 ... V01 : ... .. . ... ...
ROW 72 : ... .. D ... ... ... : ... .. . ... ... ... : ... .. . ... : ... .. 6 ... : ... .. . ... ... : ... .. . ... ... : ... .. . ... ... : ... .. . ... ...
ROW 73 : ... .. A ... ... ... : ... .. 6 ... ... ... : ... .. . ... : ... .. 3 ... : ... .. . ... ... : ... .. . ... ... : ... .. . ... ... : ... .. . ... ...
ROW 74 : ... .. . ... ... ... : ... .. 5 ... ... ... : ... .. . ... : ... .. 2 ... : ... .. . ... ... : ... .. 7 ... ... : ... .. . ... ... : ... .. . ... ...
ROW 75 : ... .. . ... ... ... : G#3 00 8 ... ... ... : ... .. . ... : ... .. 0 ... : ... .. . ... ... : ... .. . ... ... : ... .. . ... ... : ... .. . ... ...
ROW 76 : ... .. . ... ... ... : ... .. 7 ... ... ... : ... .. . ... : ... .. . ... : ... .. . ... ... : ... .. . ... ... : ... .. . ... ... : ... .. . ... ...
ROW 77 : ... .. . ... ... ... : ... .. . ... ... ... : ... .. . ... : ... .. . ... : ... .. . ... ... : ... .. 6 ... ... : ... .. 7 ... ... : ... .. . ... ...
ROW 78 : ... .. . ... ... ... : ... .. 6 ... ... ... : ... .. . ... : ... .. . ... : ... .. . ... ... : ... .. . ... ... : ... .. . ... ... : ... .. . ... ...
ROW 79 : ... .. . ... ... ... : ... .. 5 ... ... ... : ... .. . ... : ... .. . ... : ... .. . ... ... : ... .. . ... ... : ... .. . ... ... : ... .. . ... ...
ROW 7A : ... .. . ... ... ... : C-4 00 8 ... ... ... : D#3 00 . ... : ... .. . ... : ... .. . ... ... : ... .. . ... ... : ... .. . ... ... : ... .. . ... ...
ROW 7B : ... .. . ... ... ... : ... .. 7 ... ... ... : ... .. . ... : ... .. . ... : ... .. . ... ... : ... .. . ... ... : ... .. 6 ... ... : ... .. . ... ...
ROW 7C : ... .. . ... ... ... : ... .. . ... ... ... : ... .. . ... : ... .. . ... : ... .. . ... ... : ... .. . ... ... : ... .. . ... ... : ... .. . ... ...
ROW 7D : ... .. . ... ... ... : ... .. 6 ... ... ... : ... .. . ... : ... .. . ... : ... .. . ... ... : ... .. . ... ... : ... .. 5 ... ... : ... .. . ... ...
ROW 7E : ... .. . ... ... ... : ... .. 5 ... ... ... : ... .. . ... : ... .. . ... : ... .. . ... ... : ... .. . ... ... : ... .. . ... ... : ... .. . ... ...
ROW 7F : ... .. . ... ... ... : F-4 00 8 ... ... ... : ... .. . ... : ... .. . ... : ... .. . ... ... : ... .. . ... ... : ... .. . ... ... : ... .. . ... ...
ROW 80 : ... .. . ... ... ... : ... .. 7 ... ... ... : ... .. . ... : ... .. . ... : ... .. . ... ... : ... .. . ... ... : ... .. . ... ... : ... .. . ... ...
ROW 81 : ... .. . ... ... ... : ... .. . ... ... ... : ... .. . ... : ... .. . ... : ... .. . ... ... : ... .. . ... ... : ... .. 4 ... ... : ... .. . ... ...
ROW 82 : ... .. . ... ... ... : ... .. 6 ... ... ... : ... .. . ... : ... .. . ... : ... .. . ... ... : ... .. . ... ... : ... .. . ... ... : ... .. . ... ...
ROW 83 : ... .. . ... ... ... : ... .. 5 ... ... ... : ... .. . ... : ... .. . ... : ... .. . ... ... : ... .. . ... ... : ... .. . ... ... : ... .. . ... ...
ROW 84 : G-2 00 F ... ... ... : G-4 00 8 ... ... ... : D-3 00 . ... : ... .. D ... : ... .. . ... ... : B-3 01 9 ... ... : D-4 01 9 ... V03 : G-1 01 F ... ...
ROW 85 : ... .. E ... ... ... : ... .. 7 ... ... ... : ... .. . ... : ... .. B ... : ... .. . ... ... : ... .. 8 ... ... : ... .. 8 ... V01 : ... .. D ... ...
ROW 86 : ... .. D ... ... ... : ... .. . ... ... ... : ... .. . ... : ... .. . ... : ... .. . ... ... : ... .. . ... ... : ... .. . ... ... : ... .. 8 ... ...
ROW 87 : ... .. A ... ... ... : ... .. 6 ... ... ... : ... .. . ... : ... .. A ... : ... .. . ... ... : ... .. . ... ... : ... .. . ... ... : ... .. . ... ...
ROW 88 : ... .. . ... ... ... : ... .. 5 ... ... ... : ... .. . ... : ... .. 8 ... : ... .. . ... ... : ... .. 7 ... ... : ... .. . ... ... : ... .. . ... ...
ROW 89 : ... .. . ... ... ... : ... .. 4 ... ... ... : ... .. . ... : ... .. 7 ... : ... .. . ... ... : ... .. 6 ... ... : ... .. . ... ... : ... .. . ... ...
ROW 8A : ... .. 2 ... ... ... : ... .. . ... ... ... : ... .. . ... : ... .. 6 ... : ... .. . ... ... : ... .. 5 ... ... : ... .. . ... ... : ... .. . ... ...
ROW 8B : ... .. . ... ... ... : ... .. . ... ... ... : ... .. . ... : ... .. . ... : ... .. . ... ... : ... .. . ... ... : ... .. 7 ... ... : ... .. . ... ...
ROW 8C : ... .. . ... ... ... : ... .. 3 ... ... ... : ... .. . ... : ... .. 5 ... : ... .. . ... ... : ... .. 4 ... ... : ... .. . ... ... : ... .. . ... ...
ROW 8D : ... .. 1 ... ... ... : ... .. . ... ... ... : ... .. . ... : ... .. . ... : ... .. . ... ... : ... .. 3 ... ... : ... .. . ... ... : ... .. . ... ...
ROW 8E : G#2 00 F ... ... ... : ... .. 2 ... ... ... : ... .. . ... : ... .. 4 ... : ... .. . ... ... : G#3 01 9 ... ... : C-4 01 9 ... V03 : ... .. . ... ...
ROW 8F : ... .. E ... ... ... : ... .. . ... ... ... : ... .. . ... : ... .. . ... : ... .. . ... ... : ... .. 8 ... ... : ... .. 8 ... V01 : ... .. . ... ...
ROW 90 : ... .. D ... ... ... : ... .. . ... ... ... : ... .. . ... : ... .. 3 ... : ... .. . ... ... : ... .. . ... ... : ... .. . ... ... : ... .. . ... ...
ROW 91 : ... .. A ... ... ... : ... .. 1 ... ... ... : ... .. . ... : ... .. 2 ... : ... .. . ... ... : ... .. . ... ... : ... .. . ... ... : ... .. . ... ...
ROW 92 : ... .. . ... ... ... : ... .. . ... ... ... : ... .. . ... : ... .. . ... : ... .. . ... ... : ... .. 7 ... ... : ... .. . ... ... : ... .. . ... ...
ROW 93 : ... .. . ... ... ... : ... .. . ... ... ... : ... .. . ... : ... .. 1 ... : ... .. . ... ... : ... .. 6 ... ... : ... .. . ... ... : ... .. . ... ...
ROW 94 : ... .. 2 ... ... ... : ... .. 0 ... ... ... : ... .. . ... : ... .. 0 ... : ... .. . ... ... : ... .. 5 ... ... : ... .. . ... ... : ... .. . ... ...
ROW 95 : ... .. . ... ... ... : ... .. . ... ... ... : ... .. . ... : ... .. . ... : ... .. . ... ... : ... .. . ... ... : ... .. 7 ... ... : ... .. . ... ...
ROW 96 : ... .. . ... ... ... : ... .. . ... ... ... : ... .. . ... : ... .. . ... : ... .. . ... ... : ... .. 4 ... ... : ... .. . ... ... : ... .. . ... ...
ROW 97 : ... .. 1 ... ... ... : ... .. . ... ... ... : ... .. . ... : ... .. . ... : ... .. . ... ... : ... .. 3 ... ... : ... .. . ... ... : ... .. . ... ...
ROW 98 : G-2 00 F ... ... ... : D-4 00 8 P80 ... ... : G-2 00 . ... : 9-# 00 A ... : ... .. . ... ... : B-3 01 9 ... ... : D-4 01 9 ... V03 : G-2 01 F ... ...
ROW 99 : ... .. E ... ... ... : ... .. 7 ... ... ... : ... .. . ... : ... .. 8 ... : ... .. . ... ... : ... .. 8 ... ... : ... .. 8 ... V01 : ... .. D ... ...
ROW 9A : ... .. D ... ... ... : ... .. . ... ... ... : ... .. . ... : ... .. 4 ... : ... .. . ... ... : ... .. . ... ... : ... .. . ... ... : ... .. 8 ... ...
ROW 9B : ... .. A ... ... ... : ... .. 6 ... ... ... : ... .. . ... : ... .. 2 ... : ... .. . ... ... : ... .. . ... ... : ... .. . ... ... : ... .. . ... ...
ROW 9C : ... .. . ... ... ... : ... .. 5 ... ... ... : ... .. . ... : ... .. 1 ... : ... .. . ... ... : ... .. 7 ... ... : ... .. . ... ... : ... .. . ... ...
ROW 9D : ... .. . ... ... ... : ... .. 4 ... ... ... : ... .. . ... : ... .. 0 ... : ... .. . ... ... : ... .. . ... ... : ... .. . ... ... : ... .. . ... ...
ROW 9E : ... .. . ... ... ... : ... .. . ... ... ... : ... .. . ... : ... .. . ... : ... .. . ... ... : ... .. . ... ... : ... .. . ... ... : ... .. . ... ...
ROW 9F : ... .. . ... ... ... : ... .. . ... ... ... : ... .. . ... : ... .. . ... : ... .. . ... ... : ... .. 6 ... ... : ... .. 7 ... ... : ... .. . ... ...
ROW A0 : ... .. . ... ... ... : ... .. 3 ... ... ... : ... .. . ... : ... .. . ... : ... .. . ... ... : ... .. . ... ... : ... .. . ... ... : ... .. . ... ...
ROW A1 : ... .. . ... ... ... : ... .. . ... ... ... : ... .. . ... : ... .. . ... : ... .. . ... ... : ... .. . ... ... : ... .. . ... ... : ... .. . ... ...
ROW A2 : ... .. . ... ... ... : ... .. 2 ... ... ... : ... .. . ... : ... .. 8 ... : ... .. . ... ... : ... .. . ... ... : ... .. . ... ... : ... .. . ... ...
ROW A3 : ... .. . ... ... ... : ... .. . ... ... ... : ... .. . ... : ... .. 6 ... : ... .. . ... ... : ... .. . ... ... : ... .. 6 ... ... : ... .. . ... ...
ROW A4 : ... .. . ... ... ... : ... .. . ... ... ... : ... .. . ... : ... .. 3 ... : ... .. . ... ... : ... .. . ... ... : ... .. . ... ... : ... .. . ... ...
ROW A5 : ... .. . ... ... ... : ... .. 1 ... ... ... : ... .. . ... : ... .. 1 ... : ... .. . ... ... : ... .. . ... ... : ... .. 5 ... ... : ... .. . ... ...
ROW A6 : ... .. . ... ... ... : ... .. . ... ... ... : ... .. . ... : ... .. . ... : ... .. . ... ... : ... .. . ... ... : ... .. . ... ... : ... .. . ... ...
ROW A7 : ... .. . ... ... ... : ... .. . ... ... ... : ... .. . ... : ... .. 0 ... : ... .. . ... ... : ... .. . ... ... : ... .. . ... ... : ... .. . ... ...
ROW A8 : ... .. . ... ... ... : ... .. 0 ... ... ... : ... .. . ... : ... .. . ... : ... .. . ... ... : ... .. . ... ... : ... .. . ... ... : ... .. . ... ...
ROW A9 : ... .. . ... ... ... : ... .. . ... ... ... : ... .. . ... : ... .. . ... : ... .. . ... ... : ... .. . ... ... : ... .. 4 ... ... : ... .. . ... ...
ROW AA : ... .. . ... ... ... : ... .. . ... ... ... : ... .. . ... : ... .. . ... : ... .. . ... ... : ... .. . ... ... : ... .. . ... ... : ... .. . ... ...
ROW AB : ... .. . ... ... ... : ... .. . ... ... ... : ... .. . ... : ... .. . ... : ... .. . ... ... : ... .. . ... ... : ... .. . ... ... : ... .. . ... ...
ROW AC : ... .. . ... ... ... : D-3 00 8 P80 ... ... : B-3 00 . ... : ... .. F ... : ... .. . ... ... : ... .. . ... ... : ... .. . ... ... : G#2 01 F ... ...
ROW AD : ... .. . ... ... ... : ... .. 7 ... ... ... : ... .. . ... : ... .. C ... : ... .. . ... ... : ... .. . ... ... : ... .. . ... ... : ... .. D ... ...
ROW AE : ... .. . ... ... ... : ... .. . ... ... ... : ... .. . ... : ... .. 6 ... : ... .. . ... ... : ... .. . ... ... : ... .. . ... ... : ... .. 8 ... ...
ROW AF : ... .. . ... ... ... : ... .. 6 ... ... ... : ... .. . ... : ... .. 3 ... : ... .. . ... ... : ... .. . ... ... : ... .. . ... ... : ... .. . ... ...
ROW B0 : ... .. . ... ... ... : ... .. 5 ... ... ... : ... .. . ... : ... .. 2 ... : ... .. . ... ... : ... .. . ... ... : ... .. . ... ... : ... .. . ... ...
ROW B1 : ... .. . ... ... ... : ... .. 4 ... ... ... : ... .. . ... : ... .. 0 ... : ... .. . ... ... : ... .. . ... ... : ... .. . ... ... : ... .. . ... ...
ROW B2 : ... .. . ... ... ... : ... .. . ... ... ... : ... .. . ... : ... .. . ... : ... .. . ... ... : ... .. . ... ... : ... .. . ... ... : ... .. . ... ...
ROW B3 : ... .. . ... ... ... : ... .. . ... ... ... : ... .. . ... : ... .. . ... : ... .. . ... ... : ... .. . ... ... : ... .. . ... ... : ... .. . ... ...
ROW B4 : ... .. . ... ... ... : ... .. 3 ... ... ... : ... .. . ... : ... .. . ... : ... .. . ... ... : ... .. . ... ... : ... .. . ... ... : ... .. . ... ...
ROW B5 : ... .. . ... ... ... : ... .. . ... ... ... : ... .. . ... : ... .. . ... : ... .. . ... ... : ... .. . ... ... : ... .. . ... ... : ... .. . ... ...
ROW B6 : ... .. . ... ... ... : ... .. 2 ... ... ... : ... .. . ... : ... .. . ... : ... .. . ... ... : ... .. . ... ... : ... .. . ... ... : ... .. . ... ...
ROW B7 : ... .. . ... ... ... : ... .. . ... ... ... : ... .. . ... : ... .. . ... : ... .. . ... ... : ... .. . ... ... : ... .. . ... ... : ... .. . ... ...
ROW B8 : ... .. . ... ... ... : ... .. . ... ... ... : ... .. . ... : ... .. . ... : ... .. . ... ... : ... .. . ... ... : ... .. 3 ... ... : ... .. . ... ...
ROW B9 : ... .. . ... ... ... : ... .. 1 ... ... ... : ... .. . ... : ... .. . ... : ... .. . ... ... : ... .. . ... ... : ... .. . ... ... : ... .. . ... ...
ROW BA : ... .. . ... ... ... : ... .. . ... ... ... : ... .. . ... : ... .. . ... : ... .. . ... ... : ... .. . ... ... : ... .. . ... ... : ... .. . ... ...
ROW BB : ... .. . ... ... ... : ... .. . ... ... ... : ... .. . ... : ... .. . ... : ... .. . ... ... : ... .. . ... ... : ... .. . ... ... : ... .. . ... ...
ROW BC : ... .. 2 ... ... ... : ... .. 0 ... ... ... : ... .. . ... : ... .. . ... : ... .. . ... ... : ... .. 5 ... ... : ... .. . ... ... : ... .. . ... ...
ROW BD : ... .. . ... ... ... : ... .. . ... ... ... : ... .. . ... : ... .. . ... : ... .. . ... ... : ... .. . ... ... : ... .. . ... ... : ... .. . ... ...
ROW BE : ... .. . ... ... ... : ... .. . ... ... ... : ... .. . ... : ... .. . ... : ... .. . ... ... : ... .. 4 ... ... : ... .. . ... ... : ... .. . ... ...
ROW BF : ... .. 1 ... ... ... : ... .. . ... ... ... : ... .. . ... : ... .. . ... : ... .. . ... ... : ... .. 3 ... ... : ... .. . ... ... : ... .. . ... ...
ROW C0 : D-4 00 F ... ... ... : G-2 00 8 P80 ... ... : D-4 00 . ... : ... .. . ... : ... .. . ... ... : ... .. 9 ... ... : G-4 01 9 ... V03 : B-2 01 F ... ...
ROW C1 : ... .. E ... ... ... : ... .. 7 ... ... ... : ... .. . ... : ... .. . ... : ... .. . ... ... : ... .. 8 ... ... : ... .. 8 ... V01 : ... .. D ... ...
ROW C2 : ... .. D ... ... ... : ... .. . ... ... ... : ... .. . ... : ... .. . ... : ... .. . ... ... : ... .. . ... ... : ... .. . ... ... : ... .. 8 ... ...
ROW C3 : ... .. A ... ... ... : ... .. 6 ... ... ... : ... .. . ... : ... .. . ... : ... .. . ... ... : ... .. . ... ... : ... .. . ... ... : ... .. . ... ...
ROW C4 : ... .. . ... ... ... : ... .. 5 ... ... ... : ... .. . ... : ... .. . ... : ... .. . ... ... : ... .. 7 ... ... : ... .. . ... ... : ... .. . ... ...
ROW C5 : ... .. . ... ... ... : ... .. 4 ... ... ... : ... .. . ... : ... .. . ... : ... .. . ... ... : ... .. . ... ... : ... .. . ... ... : ... .. . ... ...
ROW C6 : ... .. . ... ... ... : ... .. . ... ... ... : ... .. . ... : ... .. . ... : ... .. . ... ... : ... .. . ... ... : ... .. . ... ... : ... .. . ... ...
ROW C7 : ... .. . ... ... ... : ... .. . ... ... ... : ... .. . ... : ... .. . ... : ... .. . ... ... : ... .. 6 ... ... : ... .. 7 ... ... : ... .. . ... ...
ROW C8 : ... .. . ... ... ... : ... .. 3 ... ... ... : ... .. . ... : ... .. . ... : ... .. . ... ... : ... .. . ... ... : ... .. . ... ... : ... .. . ... ...
ROW C9 : ... .. . ... ... ... : ... .. . ... ... ... : ... .. . ... : ... .. . ... : ... .. . ... ... : ... .. . ... ... : ... .. . ... ... : ... .. . ... ...
ROW CA : ... .. . ... ... ... : ... .. 2 ... ... ... : ... .. . ... : ... .. . ... : ... .. . ... ... : ... .. . ... ... : ... .. . ... ... : ... .. . ... ...
ROW CB : ... .. 2 ... ... ... : ... .. . ... ... ... : ... .. . ... : ... .. . ... : ... .. . ... ... : ... .. 5 ... ... : ... .. 6 ... ... : ... .. . ... ...
ROW CC : ... .. . ... ... ... : ... .. . ... ... ... : ... .. . ... : ... .. . ... : ... .. . ... ... : ... .. . ... ... : ... .. . ... ... : ... .. . ... ...
ROW CD : ... .. . ... ... ... : ... .. 1 ... ... ... : ... .. . ... : ... .. . ... : ... .. . ... ... : ... .. 4 ... ... : ... .. 5 ... ... : ... .. . ... ...
ROW CE : ... .. 1 ... ... ... : ... .. . ... ... ... : ... .. . ... : ... .. . ... : ... .. . ... ... : ... .. 3 ... ... : ... .. . ... ... : ... .. . ... ...
ROW CF : ... .. . ... ... ... : ... .. . ... ... ... : ... .. . ... : ... .. . ... : ... .. . ... ... : ... .. . ... ... : ... .. . ... ... : ... .. . ... ...
ROW D0 : ... .. . ... ... ... : ... .. 0 ... ... ... : ... .. . ... : ... .. . ... : ... .. . ... ... : ... .. . ... ... : ... .. . ... ... : ... .. . ... ...
ROW D1 : ... .. 0 ... V00 ... : ... .. . ... ... ... : ... .. . ... : ... .. . ... : ... .. . ... ... : ... .. . ... ... : ... .. 4 ... ... : ... .. . ... ...
ROW D2 : ... .. . ... ... ... : ... .. . ... ... ... : ... .. . ... : ... .. . ... : ... .. . ... ... : ... .. . ... ... : ... .. . ... ... : ... .. . ... ...
ROW D3 : ... .. . ... ... ... : ... .. . ... ... ... : ... .. . ... : ... .. . ... : ... .. . ... ... : ... .. . ... ... : ... .. . ... ... : ... .. . ... ...
ROW D4 : D#4 00 F P80 V01 ... : F-4 00 8 P80 V02 ... : D#4 00 . ... : D-# 00 D V01 : ... .. . ... ... : C-4 01 9 ... ... : G#4 01 9 ... V03 : C-3 01 F ... ...
ROW D5 : ... .. E ... ... ... : ... .. 7 ... ... ... : ... .. . ... : ... .. B ... : ... .. . ... ... : ... .. 8 ... ... : ... .. 8 ... V01 : ... .. D ... ...
ROW D6 : ... .. D ... ... ... : ... .. 6 ... ... ... : ... .. . ... : ... .. . ... : ... .. . ... ... : ... .. . ... ... : ... .. . ... ... : ... .. 8 ... ...
ROW D7 : ... .. A ... ... ... : ... .. 5 ... ... ... : ... .. . ... : ... .. A ... : ... .. . ... ... : ... .. . ... ... : ... .. . ... ... : ... .. . ... ...
ROW D8 : ... .. . ... ... ... : ... .. . ... ... ... : ... .. . ... : ... .. 8 ... : ... .. . ... ... : ... .. 7 ... ... : ... .. . ... ... : ... .. . ... ...
ROW D9 : ... .. . ... ... ... : ... .. . ... ... ... : ... .. . ... : ... .. 7 ... : ... .. . ... ... : ... .. . ... ... : ... .. . ... ... : ... .. . ... ...
ROW DA : ... .. . ... ... ... : ... .. . ... ... ... : ... .. . ... : ... .. 6 ... : ... .. . ... ... : ... .. . ... ... : ... .. . ... ... : ... .. . ... ...
ROW DB : ... .. . ... ... ... : ... .. . ... ... ... : ... .. . ... : ... .. . ... : ... .. . ... ... : ... .. 6 ... ... : ... .. 7 ... ... : ... .. . ... ...
ROW DC : ... .. . ... ... ... : ... .. . ... ... ... : ... .. . ... : ... .. 5 ... : ... .. . ... ... : ... .. . ... ... : ... .. . ... ... : ... .. . ... ...
ROW DD : ... .. . ... ... ... : ... .. . ... ... ... : ... .. . ... : ... .. . ... : ... .. . ... ... : ... .. . ... ... : ... .. . ... ... : ... .. . ... ...
ROW DE : ... .. . ... ... ... : ... .. 6 ... ... ... : ... .. . ... : ... .. 4 ... : ... .. . ... ... : ... .. . ... ... : ... .. . ... ... : ... .. . ... ...
ROW DF : ... .. . ... ... ... : ... .. . ... ... ... : ... .. . ... : ... .. . ... : ... .. . ... ... : ... .. . ... ... : ... .. 6 ... ... : ... .. . ... ...
ROW E0 : ... .. . ... ... ... : ... .. . ... ... ... : ... .. . ... : ... .. 3 ... : ... .. . ... ... : ... .. . ... ... : ... .. . ... ... : ... .. . ... ...
ROW E1 : ... .. . ... ... ... : ... .. . ... ... ... : ... .. . ... : ... .. 2 ... : ... .. . ... ... : ... .. . ... ... : ... .. 5 ... ... : ... .. . ... ...
ROW E2 : ... .. . ... ... ... : ... .. . ... ... ... : ... .. . ... : ... .. . ... : ... .. . ... ... : ... .. . ... ... : ... .. . ... ... : ... .. . ... ...
ROW E3 : ... .. . ... ... ... : ... .. . ... ... ... : ... .. . ... : ... .. 1 ... : ... .. . ... ... : ... .. . ... ... : ... .. . ... ... : ... .. . ... ...
ROW E4 : ... .. . ... ... ... : ... .. . ... ... ... : ... .. . ... : ... .. 0 ... : ... .. . ... ... : ... .. . ... ... : ... .. . ... ... : ... .. . ... ...
ROW E5 : ... .. . ... ... ... : ... .. . ... ... ... : ... .. . ... : ... .. . ... : ... .. . ... ... : ... .. . ... ... : ... .. 4 ... ... : ... .. . ... ...
ROW E6 : ... .. . ... ... ... : ... .. . ... ... ... : ... .. . ... : ... .. . ... : ... .. . ... ... : ... .. . ... ... : ... .. . ... ... : ... .. . ... ...
ROW E7 : ... .. . ... ... ... : ... .. . ... ... ... : ... .. . ... : ... .. . ... : ... .. . ... ... : ... .. . ... ... : ... .. . ... ... : ... .. . ... ...
ROW E8 : ... .. . ... ... ... : ... .. 7 ... ... ... : ... .. . ... : 9-# 00 A V00 : ... .. . ... ... : ... .. . ... ... : ... .. . ... ... : ... .. . ... ...
ROW E9 : ... .. 2 ... ... ... : ... .. . ... ... ... : ... .. . ... : ... .. 8 ... : ... .. . ... ... : ... .. 5 ... ... : ... .. . ... ... : ... .. . ... ...
ROW EA : ... .. . ... ... ... : ... .. . ... ... ... : ... .. . ... : ... .. 4 ... : ... .. . ... ... : ... .. . ... ... : ... .. . ... ... : ... .. . ... ...
ROW EB : ... .. . ... ... ... : ... .. . ... ... ... : ... .. . ... : ... .. 2 ... : ... .. . ... ... : ... .. 4 ... ... : ... .. . ... ... : ... .. . ... ...
ROW EC : ... .. 1 ... ... ... : ... .. . ... ... ... : ... .. . ... : ... .. 1 ... : ... .. . ... ... : ... .. 3 ... ... : ... .. . ... ... : ... .. . ... ...
ROW ED : ... .. . ... ... ... : ... .. 8 ... ... ... : ... .. . ... : ... .. 0 ... : ... .. . ... ... : ... .. . ... ... : ... .. . ... ... : ... .. . ... ...
ROW EE : ... .. . ... ... ... : ... .. . ... ... ... : ... .. . ... : ... .. . ... : ... .. . ... ... : ... .. . ... ... : ... .. . ... ... : ... .. . ... ...
ROW EF : ... .. 0 ... V00 ... : ... .. . ... ... ... : ... .. . ... : ... .. . ... : ... .. . ... ... : ... .. . ... ... : ... .. . ... ... : ... .. . ... ...
ROW F0 : ... .. . ... ... ... : ... .. . ... ... ... : ... .. . ... : ... .. . ... : ... .. . ... ... : ... .. . ... ... : ... .. . ... ... : ... .. . ... ...
ROW F1 : ... .. . ... ... ... : ... .. . ... ... ... : ... .. . ... : ... .. . ... : ... .. . ... ... : ... .. . ... ... : ... .. . ... ... : ... .. . ... ...
ROW F2 : C-4 00 F P80 V01 ... : ... .. . ... ... ... : ... .. . ... : ... .. 8 ... : ... .. . ... ... : G#3 01 9 ... ... : F-4 01 9 ... V03 : ... .. . ... ...
ROW F3 : ... .. E ... ... ... : ... .. . ... ... ... : ... .. . ... : ... .. 6 ... : ... .. . ... ... : ... .. 8 ... ... : ... .. 8 ... V01 : ... .. . ... ...
ROW F4 : ... .. D ... ... ... : ... .. . ... ... ... : ... .. . ... : ... .. 3 ... : ... .. . ... ... : ... .. . ... ... : ... .. . ... ... : ... .. . ... ...
ROW F5 : ... .. A ... ... ... : ... .. . ... ... ... : ... .. . ... : ... .. 1 ... : ... .. . ... ... : ... .. . ... ... : ... .. . ... ... : ... .. . ... ...
ROW F6 : ... .. . ... ... ... : ... .. . ... ... ... : ... .. . ... : ... .. . ... : ... .. . ... ... : ... .. 7 ... ... : ... .. . ... ... : ... .. . ... ...
ROW F7 : ... .. . ... ... ... : ... .. 9 ... ... ... : ... .. . ... : ... .. 0 ... : ... .. . ... ... : ... .. 6 ... ... : ... .. . ... ... : ... .. . ... ...
ROW F8 : ... .. 2 ... ... ... : ... .. . ... ... ... : ... .. . ... : ... .. . ... : ... .. . ... ... : ... .. 5 ... ... : ... .. . ... ... : ... .. . ... ...
ROW F9 : ... .. . ... ... ... : ... .. . ... ... ... : ... .. . ... : ... .. . ... : ... .. . ... ... : ... .. . ... ... : ... .. 7 ... ... : ... .. . ... ...
ROW FA : ... .. . ... ... ... : ... .. . ... ... ... : ... .. . ... : ... .. . ... : ... .. . ... ... : ... .. 4 ... ... : ... .. . ... ... : ... .. . ... ...
ROW FB : ... .. 1 ... ... ... : ... .. . ... ... ... : ... .. . ... : ... .. . ... : ... .. . ... ... : ... .. 3 ... ... : ... .. . ... ... : ... .. . ... ...
ROW FC : ... .. F ... ... ... : C-5 00 F ... ... ... : C-4 00 . ... : ... .. F ... : ... .. . ... ... : ... .. 9 ... ... : ... .. 9 ... V03 : D-3 01 F ... ...
ROW FD : ... .. E ... ... ... : ... .. E ... ... ... : ... .. . ... : ... .. C ... : ... .. . ... ... : ... .. 8 ... ... : ... .. 8 ... V01 : ... .. D ... ...
ROW FE : ... .. D ... ... ... : ... .. D ... ... ... : ... .. . ... : ... .. 6 ... : ... .. . ... ... : ... .. . ... ... : ... .. . ... ... : ... .. 8 ... ...
ROW FF : ... .. A ... ... ... : ... .. A ... ... ... : ... .. . ... : ... .. 3 ... : ... .. . ... ... : ... .. . ... ... : ... .. . ... ... : ... .. . ... ...

PATTERN 18
ROW 00 : ... .. . ... ... ... : ... .. . ... ... ... : ... .. . ... : ... .. 2 ... : ... .. . ... ... : ... .. 7 ... ... : ... .. . ... ... : ... .. . ... ...
ROW 01 : ... .. . ... ... ... : ... .. . ... ... ... : ... .. . ... : ... .. 0 ... : ... .. . ... ... : ... .. . ... ... : ... .. . ... ... : ... .. . ... ...
ROW 02 : ... .. . ... ... ... : ... .. . ... ... ... : ... .. . ... : ... .. . ... : ... .. . ... ... : ... .. . ... ... : ... .. . ... ... : ... .. . ... ...
ROW 03 : ... .. . ... ... ... : ... .. . ... ... ... : ... .. . ... : ... .. . ... : ... .. . ... ... : ... .. 6 ... ... : ... .. 7 ... ... : ... .. . ... ...
ROW 04 : ... .. . ... ... ... : ... .. . ... ... ... : ... .. . ... : ... .. . ... : ... .. . ... ... : ... .. . ... ... : ... .. . ... ... : ... .. . ... ...
ROW 05 : ... .. . ... ... ... : ... .. . ... ... ... : ... .. . ... : ... .. . ... : ... .. . ... ... : ... .. . ... ... : ... .. . ... ... : ... .. . ... ...
ROW 06 : ... .. . ... ... ... : ... .. . P82 ... ... : ... .. . ... : ... .. . ... : ... .. . ... ... : ... .. . ... ... : ... .. . ... ... : ... .. . ... ...
ROW 07 : ... .. . ... ... ... : ... .. . P83 ... ... : ... .. . ... : ... .. . ... : ... .. . ... ... : ... .. . ... ... : ... .. 6 ... ... : ... .. . ... ...
ROW 08 : ... .. . ... ... ... : ... .. . ... ... ... : ... .. . ... : ... .. . ... : ... .. . ... ... : ... .. . ... ... : ... .. . ... ... : ... .. . ... ...
ROW 09 : ... .. . ... ... ... : ... .. . P81 ... ... : ... .. . ... : ... .. . ... : ... .. . ... ... : ... .. . ... ... : ... .. 5 ... ... : ... .. . ... ...
ROW 0A : ... .. . ... ... ... : ... .. . P7F ... ... : ... .. . ... : ... .. . ... : ... .. . ... ... : ... .. . ... ... : ... .. . ... ... : ... .. . ... ...
ROW 0B : ... .. . ... ... ... : B-4 00 A P83 ... ... : ... .. . ... : ... .. . ... : ... .. . ... ... : ... .. . ... ... : ... .. . ... ... : ... .. . ... ...
ROW 0C : ... .. . ... ... ... : ... .. . ... ... ... : ... .. . ... : ... .. . ... : ... .. . ... ... : ... .. . ... ... : ... .. . ... ... : ... .. . ... ...
ROW 0D : ... .. . ... ... ... : C-5 00 A P7E ... ... : ... .. . ... : ... .. . ... : ... .. . ... ... : ... .. . ... ... : ... .. 4 ... ... : ... .. . ... ...
ROW 0E : ... .. . ... ... ... : ... .. . P80 ... ... : ... .. . ... : ... .. . ... : ... .. . ... ... : ... .. . ... ... : ... .. . ... ... : ... .. . ... ...
ROW 0F : ... .. . ... ... ... : ... .. . P82 ... ... : ... .. . ... : ... .. . ... : ... .. . ... ... : ... .. . ... ... : ... .. . ... ... : ... .. . ... ...
ROW 10 : D-4 00 F ... ... ... : ... .. . P83 ... ... : D-4 00 . ... : D-# 00 8 ... : ... .. . ... ... : B-3 01 9 ... ... : G-4 01 9 ... V03 : ... .. . ... ...
ROW 11 : ... .. E ... ... ... : ... .. . ... ... ... : ... .. . ... : ... .. 7 ... : ... .. . ... ... : ... .. 8 ... ... : ... .. 8 ... V01 : ... .. . ... ...
ROW 12 : ... .. D ... ... ... : ... .. . P81 ... ... : ... .. . ... : ... .. . ... : ... .. . ... ... : ... .. . ... ... : ... .. . ... ... : ... .. . ... ...
ROW 13 : ... .. A ... ... ... : ... .. . P80 ... ... : ... .. . ... : ... .. 6 ... : ... .. . ... ... : ... .. . ... ... : ... .. . ... ... : ... .. . ... ...
ROW 14 : ... .. . ... ... ... : B-4 00 A P83 ... ... : ... .. . ... : ... .. 5 ... : ... .. . ... ... : ... .. 7 ... ... : ... .. . ... ... : ... .. . ... ...
ROW 15 : ... .. . ... ... ... : ... .. . ... ... ... : ... .. . ... : ... .. 4 ... : ... .. . ... ... : ... .. 6 ... ... : ... .. . ... ... : ... .. . ... ...
ROW 16 : ... .. 2 ... ... ... : C-5 00 A P7E ... ... : ... .. . ... : ... .. . ... : ... .. . ... ... : ... .. 5 ... ... : ... .. . ... ... : ... .. 4 ... ...
ROW 17 : ... .. . ... ... ... : ... .. . P80 ... ... : ... .. . ... : ... .. . ... : ... .. . ... ... : ... .. . ... ... : ... .. 7 ... ... : ... .. . ... ...
ROW 18 : ... .. . ... ... ... : ... .. . P81 ... ... : ... .. . ... : ... .. 3 ... : ... .. . ... ... : ... .. 4 ... ... : ... .. . ... ... : ... .. 1 ... ...
ROW 19 : ... .. 1 ... ... ... : ... .. . P83 ... ... : ... .. . ... : ... .. . ... : ... .. . ... ... : ... .. 3 ... ... : ... .. . ... ... : ... .. . ... ...
ROW 1A : D#4 00 F ... ... ... : D-5 00 F P80 ... ... : D#4 00 . ... : ... .. 2 ... : ... .. . ... ... : C-4 01 9 ... ... : G#4 01 9 ... V03 : C-3 01 F ... ...
ROW 1B : ... .. E ... ... ... : ... .. E ... ... ... : ... .. . ... : ... .. . ... : ... .. . ... ... : ... .. 8 ... ... : ... .. 8 ... V01 : ... .. D ... ...
ROW 1C : ... .. D ... ... ... : ... .. D ... ... ... : ... .. . ... : ... .. . ... : ... .. . ... ... : ... .. . ... ... : ... .. . ... ... : ... .. 8 ... ...
ROW 1D : ... .. A ... ... ... : ... .. A ... ... ... : ... .. . ... : ... .. 1 ... : ... .. . ... ... : ... .. . ... ... : ... .. . ... ... : ... .. . ... ...
ROW 1E : ... .. . ... ... ... : ... .. . ... ... ... : ... .. . ... : ... .. . ... : ... .. . ... ... : ... .. 7 ... ... : ... .. . ... ... : ... .. . ... ...
ROW 1F : ... .. . ... ... ... : C-5 00 F ... ... ... : ... .. . ... : ... .. . ... : ... .. . ... ... : ... .. 6 ... ... : ... .. . ... ... : ... .. . ... ...
ROW 20 : ... .. 2 ... ... ... : ... .. E ... ... ... : ... .. . ... : ... .. 0 ... : ... .. . ... ... : ... .. 5 ... ... : ... .. . ... ... : ... .. 4 ... ...
ROW 21 : ... .. . ... ... ... : ... .. D ... ... ... : ... .. . ... : ... .. . ... : ... .. . ... ... : ... .. . ... ... : ... .. 7 ... ... : ... .. . ... ...
ROW 22 : ... .. . ... ... ... : ... .. A ... ... ... : ... .. . ... : ... .. . ... : ... .. . ... ... : ... .. 4 ... ... : ... .. . ... ... : ... .. 1 ... ...
ROW 23 : ... .. 1 ... ... ... : ... .. . ... ... ... : ... .. . ... : ... .. . ... : ... .. . ... ... : ... .. 3 ... ... : ... .. . ... ... : ... .. . ... ...
ROW 24 : D-4 00 F ... ... ... : B-4 00 F ... ... ... : D-4 00 . ... : ... .. D ... : ... .. . ... ... : B-3 01 9 ... ... : G-4 01 9 ... V03 : D-3 01 F ... ...
ROW 25 : ... .. E ... ... ... : ... .. E ... ... ... : ... .. . ... : ... .. B ... : ... .. . ... ... : ... .. 8 ... ... : ... .. 8 ... V01 : ... .. D ... ...
ROW 26 : ... .. D ... ... ... : ... .. D ... ... ... : ... .. . ... : ... .. . ... : ... .. . ... ... : ... .. . ... ... : ... .. . ... ... : ... .. 8 ... ...
ROW 27 : ... .. A ... ... ... : ... .. A ... ... ... : ... .. . ... : ... .. A ... : ... .. . ... ... : ... .. . ... ... : ... .. . ... ... : ... .. . ... ...
ROW 28 : ... .. . ... ... ... : ... .. . ... ... ... : ... .. . ... : ... .. 8 ... : ... .. . ... ... : ... .. 7 ... ... : ... .. . ... ... : ... .. . ... ...
ROW 29 : ... .. . ... ... ... : ... .. . ... ... ... : ... .. . ... : ... .. 7 ... : ... .. . ... ... : ... .. . ... ... : ... .. . ... ... : ... .. . ... ...
ROW 2A : ... .. . ... ... ... : ... .. . ... ... ... : ... .. . ... : ... .. 6 ... : ... .. . ... ... : ... .. . ... ... : ... .. . ... ... : ... .. . ... ...
ROW 2B : ... .. . ... ... ... : ... .. . ... ... ... : ... .. . ... : ... .. . ... : ... .. . ... ... : ... .. 6 ... ... : ... .. 7 ... ... : ... .. . ... ...
ROW 2C : ... .. . ... ... ... : ... .. . ... ... ... : ... .. . ... : ... .. 5 ... : ... .. . ... ... : ... .. . ... ... : ... .. . ... ... : ... .. . ... ...
ROW 2D : ... .. . ... ... ... : ... .. . ... ... ... : ... .. . ... : ... .. . ... : ... .. . ... ... : ... .. . ... ... : ... .. . ... ... : ... .. . ... ...
ROW 2E : ... .. . ... ... ... : G-4 00 F ... ... ... : ... .. . ... : ... .. 4 ... : ... .. . ... ... : ... .. . ... ... : ... .. . ... ... : ... .. . ... ...
ROW 2F : ... .. . ... ... ... : ... .. E ... ... ... : ... .. . ... : ... .. . ... : ... .. . ... ... : ... .. . ... ... : ... .. 6 ... ... : ... .. . ... ...
ROW 30 : ... .. . ... ... ... : ... .. D ... ... ... : ... .. . ... : ... .. 3 ... : ... .. . ... ... : ... .. . ... ... : ... .. . ... ... : ... .. . ... ...
ROW 31 : ... .. . ... ... ... : ... .. A ... ... ... : ... .. . ... : ... .. 2 ... : ... .. . ... ... : ... .. . ... ... : ... .. 5 ... ... : ... .. . ... ...
ROW 32 : ... .. . ... ... ... : ... .. . ... ... ... : ... .. . ... : ... .. . ... : ... .. . ... ... : ... .. . ... ... : ... .. . ... ... : ... .. . ... ...
ROW 33 : ... .. . ... ... ... : ... .. . ... ... ... : ... .. . ... : ... .. 1 ... : ... .. . ... ... : ... .. . ... ... : ... .. . ... ... : ... .. . ... ...
ROW 34 : ... .. 2 ... ... ... : ... .. 2 ... ... ... : ... .. . ... : ... .. 0 ... : ... .. . ... ... : ... .. 5 ... ... : ... .. . ... ... : ... .. . ... ...
ROW 35 : ... .. . ... ... ... : ... .. . ... ... ... : ... .. . ... : ... .. . ... : ... .. . ... ... : ... .. . ... ... : ... .. 4 ... ... : ... .. . ... ...
ROW 36 : ... .. . ... ... ... : ... .. . ... ... ... : ... .. . ... : ... .. . ... : ... .. . ... ... : ... .. 4 ... ... : ... .. . ... ... : ... .. . ... ...
ROW 37 : ... .. 1 ... ... ... : ... .. 1 ... ... ... : ... .. . ... : ... .. . ... : ... .. . ... ... : ... .. 3 ... ... : ... .. . ... ... : ... .. . ... ...
ROW 38 : G-4 00 F ... ... ... : D-4 00 F ... ... ... : G-3 00 . ... : 9-# 00 A ... : ... .. . ... ... : G-3 01 9 ... ... : D-4 01 9 ... V03 : B-2 01 F ... ...
ROW 39 : ... .. E ... ... ... : ... .. E ... ... ... : ... .. . ... : ... .. 8 ... : ... .. . ... ... : ... .. 8 ... ... : ... .. 8 ... V01 : ... .. D ... ...
ROW 3A : ... .. D ... ... ... : ... .. D ... ... ... : ... .. . ... : ... .. 4 ... : ... .. . ... ... : ... .. . ... ... : ... .. . ... ... : ... .. 8 ... ...
ROW 3B : ... .. A ... ... ... : ... .. A ... ... ... : ... .. . ... : ... .. 2 ... : ... .. . ... ... : ... .. . ... ... : ... .. . ... ... : ... .. . ... ...
ROW 3C : ... .. . ... ... ... : ... .. . ... ... ... : ... .. . ... : ... .. 1 ... : ... .. . ... ... : ... .. 7 ... ... : ... .. . ... ... : ... .. . ... ...
ROW 3D : ... .. . ... ... ... : ... .. . ... ... ... : ... .. . ... : ... .. 0 ... : ... .. . ... ... : ... .. . ... ... : ... .. . ... ... : ... .. . ... ...
ROW 3E : ... .. . ... ... ... : ... .. 2 ... ... ... : ... .. . ... : ... .. . ... : ... .. . ... ... : ... .. . ... ... : ... .. . ... ... : ... .. . ... ...
ROW 3F : ... .. . ... ... ... : ... .. . ... ... ... : ... .. . ... : ... .. 8 ... : ... .. . ... ... : ... .. 6 ... ... : ... .. 7 ... ... : ... .. . ... ...
ROW 40 : ... .. . ... ... ... : ... .. . ... ... ... : ... .. . ... : ... .. 6 ... : ... .. . ... ... : ... .. . ... ... : ... .. . ... ... : ... .. . ... ...
ROW 41 : ... .. . ... ... ... : ... .. 1 ... ... ... : ... .. . ... : ... .. 3 ... : ... .. . ... ... : ... .. . ... ... : ... .. . ... ... : ... .. . ... ...
ROW 42 : ... .. . ... ... ... : B-3 00 F ... ... ... : ... .. . ... : ... .. 1 ... : ... .. . ... ... : ... .. . ... ... : ... .. . ... ... : ... .. . ... ...
ROW 43 : ... .. . ... ... ... : ... .. E ... ... ... : ... .. . ... : ... .. . ... : ... .. . ... ... : ... .. . ... ... : ... .. 6 ... ... : ... .. 4 ... ...
ROW 44 : ... .. . ... ... ... : ... .. D ... ... ... : ... .. . ... : ... .. 0 ... : ... .. . ... ... : ... .. . ... ... : ... .. . ... ... : ... .. . ... ...
ROW 45 : ... .. . ... ... ... : ... .. A ... ... ... : ... .. . ... : ... .. C ... : ... .. . ... ... : ... .. . ... ... : ... .. 5 ... ... : ... .. 1 ... ...
ROW 46 : ... .. . ... ... ... : ... .. . ... ... ... : ... .. . ... : ... .. 9 ... : ... .. . ... ... : ... .. . ... ... : ... .. . ... ... : ... .. . ... ...
ROW 47 : ... .. . ... ... ... : ... .. . ... ... ... : ... .. . ... : ... .. 4 ... : ... .. . ... ... : ... .. . ... ... : ... .. . ... ... : ... .. . ... ...
ROW 48 : ... .. 2 ... ... ... : ... .. 2 ... ... ... : ... .. . ... : ... .. 2 ... : ... .. . ... ... : ... .. 5 ... ... : ... .. . ... ... : ... .. . ... ...
ROW 49 : ... .. . ... ... ... : ... .. . ... ... ... : ... .. . ... : ... .. 1 ... : ... .. . ... ... : ... .. . ... ... : ... .. 4 ... ... : ... .. . ... ...
ROW 4A : ... .. . ... ... ... : ... .. . ... ... ... : ... .. . ... : ... .. 0 ... : ... .. . ... ... : ... .. 4 ... ... : ... .. . ... ... : ... .. . ... ...
ROW 4B : ... .. 1 ... ... ... : ... .. 1 ... ... ... : ... .. . ... : ... .. . ... : ... .. . ... ... : ... .. 3 ... ... : ... .. . ... ... : ... .. . ... ...
ROW 4C : G-1 00 F ... ... ... : G-3 00 F ... ... ... : F#4 00 . ... : ... .. F ... : ... .. . ... ... : G-0 01 9 P85 ... : G-1 01 9 ... V03 : G-1 01 F ... ...
ROW 4D : ... .. E ... ... ... : ... .. E ... ... ... : G#3 00 . ... : ... .. C ... : ... .. . ... ... : ... .. 8 ... ... : ... .. 8 ... V01 : ... .. D ... ...
ROW 4E : ... .. D ... ... ... : ... .. D ... ... ... : C#3 00 . ... : ... .. 6 ... : ... .. . ... ... : ... .. . ... ... : ... .. . ... ... : ... .. 8 ... ...
ROW 4F : ... .. A ... ... ... : ... .. A ... ... ... : C-3 00 . ... : ... .. 3 ... : ... .. . ... ... : ... .. . ... ... : ... .. . ... ... : ... .. . ... ...
ROW 50 : ... .. . ... ... ... : ... .. . ... ... ... : G-2 00 . ... : ... .. 2 ... : ... .. . ... ... : ... .. 7 ... ... : ... .. . ... ... : ... .. . ... ...
ROW 51 : ... .. . ... ... ... : ... .. . ... ... ... : ... .. . ... : ... .. 0 ... : ... .. . ... ... : ... .. . ... ... : ... .. . ... ... : ... .. . ... ...
ROW 52 : ... .. . ... ... ... : ... .. 2 ... ... ... : ... .. . ... : ... .. . ... : ... .. . ... ... : ... .. . ... ... : ... .. . ... ... : ... .. . ... ...
ROW 53 : ... .. . ... ... ... : ... .. . ... ... ... : ... .. . ... : ... .. . ... : ... .. . ... ... : ... .. 6 ... ... : ... .. 7 ... ... : ... .. . ... ...
ROW 54 : ... .. . ... ... ... : ... .. . ... ... ... : ... .. . ... : ... .. . ... : ... .. . ... ... : ... .. . ... ... : ... .. . ... ... : ... .. . ... ...
ROW 55 : ... .. . ... ... ... : ... .. 1 ... ... ... : ... .. . ... : ... .. . ... : ... .. . ... ... : ... .. . ... ... : ... .. . ... ... : ... .. . ... ...
ROW 56 : ... .. . ... ... ... : D-3 00 F ... ... ... : ... .. . ... : ... .. . ... : ... .. . ... ... : ... .. . ... ... : ... .. . ... ... : ... .. . ... ...
ROW 57 : ... .. 2 ... ... ... : ... .. E ... ... ... : ... .. . ... : ... .. . ... : ... .. . ... ... : ... .. 5 ... ... : ... .. 6 ... ... : ... .. 4 ... ...
ROW 58 : ... .. . ... ... ... : ... .. D ... ... ... : ... .. . ... : ... .. . ... : ... .. . ... ... : ... .. . ... ... : ... .. . ... ... : ... .. . ... ...
ROW 59 : ... .. . ... ... ... : ... .. A ... ... ... : ... .. . ... : ... .. . ... : ... .. . ... ... : ... .. 4 ... ... : ... .. 5 ... ... : ... .. 1 ... ...
ROW 5A : ... .. 1 ... ... ... : ... .. . ... ... ... : ... .. . ... : ... .. . ... : ... .. . ... ... : ... .. 3 ... ... : ... .. . ... ... : ... .. . ... ...
ROW 5B : ... .. . ... ... ... : ... .. . ... ... ... : ... .. . ... : ... .. . ... : ... .. . ... ... : ... .. . ... ... : ... .. . ... ... : ... .. . ... ...
ROW 5C : ... .. . ... ... ... : ... .. 2 ... ... ... : ... .. . ... : ... .. . ... : ... .. . ... ... : ... .. . ... ... : ... .. . ... ... : ... .. . ... ...
ROW 5D : ... .. 0 ... V00 ... : ... .. . ... ... ... : ... .. . ... : ... .. . ... : ... .. . ... ... : ... .. . ... ... : ... .. 4 ... ... : ... .. . ... ...
ROW 5E : ... .. . ... ... ... : ... .. . ... ... ... : ... .. . ... : ... .. . ... : ... .. . ... ... : ... .. . ... ... : ... .. . ... ... : ... .. . ... ...
ROW 5F : ... .. . ... ... ... : ... .. 1 ... ... ... : ... .. . ... : ... .. . ... : ... .. . ... ... : ... .. . ... ... : ... .. . ... ... : ... .. . ... ...
ROW 60 : G-1 00 F P80 V01 ... : B-2 00 F ... ... ... : F#3 00 . ... : ... .. . ... : ... .. . ... ... : ... .. 9 ... ... : G-0 01 9 ... V03 : G-0 01 F ... ...
ROW 61 : ... .. E ... ... ... : ... .. E ... ... ... : G#2 00 . ... : ... .. . ... : ... .. . ... ... : ... .. 8 ... ... : ... .. 8 ... V01 : ... .. D ... ...
ROW 62 : ... .. D ... ... ... : ... .. D ... ... ... : C#2 00 . ... : ... .. . ... : ... .. . ... ... : ... .. . ... ... : ... .. . ... ... : ... .. 8 ... ...
ROW 63 : ... .. A ... ... ... : ... .. A ... ... ... : C-2 00 . ... : ... .. . ... : ... .. . ... ... : ... .. . ... ... : ... .. . ... ... : ... .. . ... ...
ROW 64 : ... .. . ... ... ... : ... .. . ... ... ... : G-1 00 . ... : ... .. . ... : ... .. . ... ... : ... .. 7 ... ... : ... .. . ... ... : ... .. . ... ...
ROW 65 : ... .. . ... ... ... : ... .. . ... ... ... : ... .. . ... : ... .. . ... : ... .. . ... ... : ... .. . ... ... : ... .. . ... ... : ... .. . ... ...
ROW 66 : ... .. . ... ... ... : ... .. 2 ... ... ... : ... .. . ... : ... .. . ... : ... .. . ... ... : ... .. . ... ... : ... .. . ... ... : ... .. . ... ...
ROW 67 : ... .. . ... ... ... : ... .. . ... ... ... : ... .. . ... : ... .. . ... : ... .. . ... ... : ... .. 6 ... ... : ... .. 7 ... ... : ... .. . ... ...
ROW 68 : ... .. . ... ... ... : ... .. . ... ... ... : ... .. . ... : ... .. . ... : ... .. . ... ... : ... .. . ... ... : ... .. . ... ... : ... .. . ... ...
ROW 69 : ... .. . ... ... ... : ... .. 1 ... ... ... : ... .. . ... : ... .. . ... : ... .. . ... ... : ... .. . ... ... : ... .. . ... ... : ... .. . ... ...
ROW 6A : ... .. . ... ... ... : G-2 00 F ... ... ... : ... .. . ... : ... .. . ... : ... .. . ... ... : ... .. . ... ... : ... .. . ... ... : ... .. . ... ...
ROW 6B : ... .. 2 ... ... ... : ... .. E ... ... ... : ... .. . ... : ... .. . ... : ... .. . ... ... : ... .. 5 ... ... : ... .. 6 ... ... : ... .. 4 ... ...
ROW 6C : ... .. . ... ... ... : ... .. D ... ... ... : ... .. . ... : ... .. . ... : ... .. . ... ... : ... .. . ... ... : ... .. . ... ... : ... .. . ... ...
ROW 6D : ... .. . ... ... ... : ... .. A ... ... ... : ... .. . ... : ... .. . ... : ... .. . ... ... : ... .. 4 ... ... : ... .. 5 ... ... : ... .. 1 ... ...
ROW 6E : ... .. 1 ... ... ... : ... .. . ... ... ... : ... .. . ... : ... .. . ... : ... .. . ... ... : ... .. 3 ... ... : ... .. . ... ... : ... .. . ... ...
ROW 6F : ... .. . ... ... ... : ... .. . ... ... ... : ... .. . ... : ... .. . ... : ... .. . ... ... : ... .. . ... ... : ... .. . ... ... : ... .. . ... ...
ROW 70 : ... .. . ... ... ... : ... .. 2 ... ... ... : ... .. . ... : ... .. . ... : ... .. . ... ... : ... .. . ... ... : ... .. . ... ... : ... .. . ... ...
ROW 71 : ... .. 0 ... V00 ... : ... .. . ... ... ... : ... .. . ... : ... .. . ... : ... .. . ... ... : ... .. . ... ... : ... .. 4 ... ... : ... .. . ... ...
ROW 72 : ... .. . ... ... ... : ... .. . ... ... ... : ... .. . ... : ... .. . ... : ... .. . ... ... : ... .. . ... ... : ... .. . ... ... : ... .. . ... ...
ROW 73 : ... .. . ... ... ... : ... .. 1 ... ... ... : ... .. . ... : ... .. . ... : ... .. . ... ... : ... .. . ... ... : ... .. . ... ... : ... .. . ... ...
ROW 74 : G#4 00 F P80 V01 ... : F-2 00 F ... V00 ... : G-3 00 . ... : D-# 00 D V01 : ... .. . ... ... : C#3 01 9 P80 ... : F-2 01 9 ... V03 : G#2 01 F ... ...
ROW 75 : ... .. E ... ... ... : ... .. E ... ... ... : ... .. . ... : ... .. B ... : ... .. . ... ... : ... .. 8 ... ... : ... .. 8 ... V01 : ... .. D ... ...
ROW 76 : ... .. D ... ... ... : ... .. D ... ... ... : ... .. . ... : ... .. . ... : ... .. . ... ... : ... .. . ... ... : ... .. . ... ... : ... .. 8 ... ...
ROW 77 : ... .. A ... ... ... : ... .. A ... ... ... : ... .. . ... : ... .. A ... : ... .. . ... ... : ... .. . ... ... : ... .. . ... ... : ... .. . ... ...
ROW 78 : ... .. . ... ... ... : ... .. . ... ... ... : ... .. . ... : ... .. 8 ... : ... .. . ... ... : ... .. 7 ... ... : ... .. . ... ... : ... .. . ... ...
ROW 79 : ... .. . ... ... ... : ... .. . ... ... ... : ... .. . ... : ... .. 7 ... : ... .. . ... ... : ... .. . ... ... : ... .. . ... ... : ... .. . ... ...
ROW 7A : ... .. . ... ... ... : ... .. . ... ... ... : ... .. . ... : ... .. 6 ... : ... .. . ... ... : ... .. . ... ... : ... .. . ... ... : ... .. . ... ...
ROW 7B : ... .. . ... ... ... : ... .. . ... ... ... : ... .. . ... : ... .. . ... : ... .. . ... ... : ... .. 6 ... ... : ... .. 7 ... ... : ... .. . ... ...
ROW 7C : ... .. . ... ... ... : ... .. . ... ... ... : ... .. . ... : ... .. 5 ... : ... .. . ... ... : ... .. . ... ... : ... .. . ... ... : ... .. . ... ...
ROW 7D : ... .. . ... ... ... : ... .. . ... ... ... : ... .. . ... : ... .. . ... : ... .. . ... ... : ... .. . ... ... : ... .. . ... ... : ... .. . ... ...
ROW 7E : ... .. . ... ... ... : ... .. . ... ... ... : ... .. . ... : ... .. 4 ... : ... .. . ... ... : ... .. . ... ... : ... .. . ... ... : ... .. . ... ...
ROW 7F : ... .. . ... ... ... : ... .. . ... ... ... : ... .. . ... : ... .. . ... : ... .. . ... ... : ... .. . ... ... : ... .. 6 ... ... : ... .. . ... ...
ROW 80 : ... .. . ... ... ... : ... .. . ... ... ... : ... .. . ... : ... .. 3 ... : ... .. . ... ... : ... .. . ... ... : ... .. . ... ... : ... .. . ... ...
ROW 81 : ... .. . ... ... ... : ... .. . ... ... ... : ... .. . ... : ... .. 2 ... : ... .. . ... ... : ... .. . ... ... : ... .. 5 ... ... : ... .. . ... ...
ROW 82 : ... .. . ... ... ... : ... .. . ... ... ... : ... .. . ... : ... .. . ... : ... .. . ... ... : ... .. . ... ... : ... .. . ... ... : ... .. . ... ...
ROW 83 : ... .. . ... ... ... : ... .. . ... ... ... : ... .. . ... : ... .. 1 ... : ... .. . ... ... : ... .. . ... ... : ... .. . ... ... : ... .. . ... ...
ROW 84 : ... .. . ... ... ... : ... .. . ... ... ... : ... .. . ... : ... .. 0 ... : ... .. . ... ... : ... .. . ... ... : ... .. . ... ... : ... .. . ... ...
ROW 85 : ... .. . ... ... ... : ... .. . ... ... ... : ... .. . ... : ... .. . ... : ... .. . ... ... : ... .. . ... ... : ... .. 4 ... ... : ... .. . ... ...
ROW 86 : ... .. . ... ... ... : ... .. . ... ... ... : ... .. . ... : ... .. . ... : ... .. . ... ... : ... .. . ... ... : ... .. . ... ... : ... .. . ... ...
ROW 87 : ... .. . ... ... ... : ... .. . ... ... ... : ... .. . ... : ... .. . ... : ... .. . ... ... : ... .. . ... ... : ... .. . ... ... : ... .. . ... ...
ROW 88 : G-4 00 F ... ... ... : G-2 00 F ... ... ... : ... .. . ... : 9-# 00 A V00 : ... .. . ... ... : D#3 01 9 ... ... : G-2 01 9 ... V03 : G-2 01 F ... ...
ROW 89 : ... .. E ... ... ... : ... .. E ... ... ... : ... .. . ... : ... .. 8 ... : ... .. . ... ... : ... .. 8 ... ... : ... .. 8 ... V01 : ... .. D ... ...
ROW 8A : ... .. D ... ... ... : ... .. D ... ... ... : ... .. . ... : ... .. 4 ... : ... .. . ... ... : ... .. . ... ... : ... .. . ... ... : ... .. 8 ... ...
ROW 8B : ... .. A ... ... ... : ... .. A ... ... ... : ... .. . ... : ... .. 2 ... : ... .. . ... ... : ... .. . ... ... : ... .. . ... ... : ... .. . ... ...
ROW 8C : ... .. . ... ... ... : ... .. . ... ... ... : ... .. . ... : ... .. 1 ... : ... .. . ... ... : ... .. 7 ... ... : ... .. . ... ... : ... .. . ... ...
ROW 8D : ... .. . ... ... ... : ... .. . ... ... ... : ... .. . ... : ... .. 0 ... : ... .. . ... ... : ... .. . ... ... : ... .. . ... ... : ... .. . ... ...
ROW 8E : ... .. . ... ... ... : ... .. . ... ... ... : ... .. . ... : ... .. . ... : ... .. . ... ... : ... .. . ... ... : ... .. . ... ... : ... .. . ... ...
ROW 8F : ... .. . ... ... ... : ... .. . ... ... ... : ... .. . ... : ... .. . ... : ... .. . ... ... : ... .. 6 ... ... : ... .. 7 ... ... : ... .. . ... ...
ROW 90 : ... .. . ... ... ... : ... .. . ... ... ... : ... .. . ... : ... .. . ... : ... .. . ... ... : ... .. . ... ... : ... .. . ... ... : ... .. . ... ...
ROW 91 : ... .. . ... ... ... : ... .. . ... ... ... : ... .. . ... : ... .. . ... : ... .. . ... ... : ... .. . ... ... : ... .. . ... ... : ... .. . ... ...
ROW 92 : ... .. . ... ... ... : ... .. . ... ... ... : ... .. . ... : ... .. 8 ... : ... .. . ... ... : ... .. . ... ... : ... .. . ... ... : ... .. . ... ...
ROW 93 : ... .. 2 ... ... ... : ... .. 2 ... ... ... : ... .. . ... : ... .. 6 ... : ... .. . ... ... : ... .. . ... ... : ... .. 6 ... ... : ... .. 4 ... ...
ROW 94 : ... .. . ... ... ... : ... .. . ... ... ... : ... .. . ... : ... .. 3 ... : ... .. . ... ... : ... .. . ... ... : ... .. . ... ... : ... .. . ... ...
ROW 95 : ... .. . ... ... ... : ... .. . ... ... ... : ... .. . ... : ... .. 1 ... : ... .. . ... ... : ... .. . ... ... : ... .. 5 ... ... : ... .. 1 ... ...
ROW 96 : ... .. 1 ... ... ... : ... .. 1 ... ... ... : ... .. . ... : ... .. . ... : ... .. . ... ... : ... .. . ... ... : ... .. . ... ... : ... .. . ... ...
ROW 97 : ... .. . ... ... ... : ... .. . ... ... ... : ... .. . ... : ... .. 0 ... : ... .. . ... ... : ... .. . ... ... : ... .. . ... ... : ... .. . ... ...
ROW 98 : ... .. . ... ... ... : ... .. . ... ... ... : ... .. . ... : ... .. . ... : ... .. . ... ... : ... .. 5 ... ... : ... .. . ... ... : ... .. . ... ...
ROW 99 : ... .. 0 ... V00 ... : ... .. 0 ... ... ... : ... .. . ... : ... .. . ... : ... .. . ... ... : ... .. . ... ... : ... .. 4 ... ... : ... .. . ... ...
ROW 9A : ... .. . ... ... ... : ... .. . ... ... ... : ... .. . ... : ... .. . ... : ... .. . ... ... : ... .. 4 ... ... : ... .. . ... ... : ... .. . ... ...
ROW 9B : ... .. . ... ... ... : ... .. . ... ... ... : ... .. . ... : ... .. . ... : ... .. . ... ... : ... .. 3 ... ... : ... .. . ... ... : ... .. . ... ...
ROW 9C : G#3 00 F P80 V01 ... : B-2 00 F P80 ... ... : F-3 00 . ... : ... .. F ... : ... .. . ... ... : F-3 01 9 ... ... : G#2 01 9 ... V03 : B-2 01 F ... ...
ROW 9D : ... .. E ... ... ... : ... .. E ... ... ... : ... .. . ... : ... .. C ... : ... .. . ... ... : ... .. 8 ... ... : ... .. 8 ... V01 : ... .. D ... ...
ROW 9E : ... .. D ... ... ... : ... .. D ... ... ... : ... .. . ... : ... .. 6 ... : ... .. . ... ... : ... .. . ... ... : ... .. . ... ... : ... .. 8 ... ...
ROW 9F : ... .. A ... ... ... : ... .. A ... ... ... : ... .. . ... : ... .. 3 ... : ... .. . ... ... : ... .. . ... ... : ... .. . ... ... : ... .. . ... ...
ROW A0 : ... .. . ... ... ... : ... .. . ... ... ... : ... .. . ... : ... .. 2 ... : ... .. . ... ... : ... .. 7 ... ... : ... .. . ... ... : ... .. . ... ...
ROW A1 : ... .. . ... ... ... : ... .. . ... ... ... : ... .. . ... : ... .. 0 ... : ... .. . ... ... : ... .. . ... ... : ... .. . ... ... : ... .. . ... ...
ROW A2 : ... .. . ... ... ... : ... .. . ... ... ... : ... .. . ... : ... .. . ... : ... .. . ... ... : ... .. . ... ... : ... .. . ... ... : ... .. . ... ...
ROW A3 : ... .. . ... ... ... : ... .. . ... ... ... : ... .. . ... : ... .. . ... : ... .. . ... ... : ... .. 6 ... ... : ... .. 7 ... ... : ... .. . ... ...
ROW A4 : ... .. . ... ... ... : ... .. . ... ... ... : ... .. . ... : ... .. . ... : ... .. . ... ... : ... .. . ... ... : ... .. . ... ... : ... .. . ... ...
ROW A5 : ... .. . ... ... ... : ... .. . ... ... ... : ... .. . ... : ... .. . ... : ... .. . ... ... : ... .. . ... ... : ... .. . ... ... : ... .. . ... ...
ROW A6 : ... .. . ... ... ... : ... .. . ... ... ... : ... .. . ... : ... .. . ... : ... .. . ... ... : ... .. . ... ... : ... .. . ... ... : ... .. . ... ...
ROW A7 : ... .. . ... ... ... : ... .. . ... ... ... : ... .. . ... : ... .. . ... : ... .. . ... ... : ... .. . ... ... : ... .. 6 ... ... : ... .. . ... ...
ROW A8 : ... .. . ... ... ... : ... .. . ... ... ... : ... .. . ... : ... .. . ... : ... .. . ... ... : ... .. . ... ... : ... .. . ... ... : ... .. . ... ...
ROW A9 : ... .. . ... ... ... : ... .. . ... ... ... : ... .. . ... : ... .. . ... : ... .. . ... ... : ... .. . ... ... : ... .. 5 ... ... : ... .. . ... ...
ROW AA : ... .. . ... ... ... : ... .. . ... ... ... : ... .. . ... : ... .. . ... : ... .. . ... ... : ... .. . ... ... : ... .. . ... ... : ... .. . ... ...
ROW AB : ... .. . ... ... ... : ... .. . ... ... ... : ... .. . ... : ... .. . ... : ... .. . ... ... : ... .. . ... ... : ... .. . ... ... : ... .. . ... ...
ROW AC : ... .. . ... ... ... : ... .. . ... ... ... : ... .. . ... : ... .. . ... : ... .. . ... ... : ... .. . ... ... : ... .. . ... ... : ... .. . ... ...
ROW AD : ... .. . ... ... ... : ... .. . ... ... ... : ... .. . ... : ... .. . ... : ... .. . ... ... : ... .. . ... ... : ... .. 4 ... ... : ... .. . ... ...
ROW AE : ... .. . ... ... ... : ... .. . ... ... ... : ... .. . ... : ... .. . ... : ... .. . ... ... : ... .. . ... ... : ... .. . ... ... : ... .. . ... ...
ROW AF : ... .. . ... ... ... : ... .. . ... ... ... : ... .. . ... : ... .. . ... : ... .. . ... ... : ... .. . ... ... : ... .. . ... ... : ... .. . ... ...
ROW B0 : G-3 00 F ... ... ... : C-3 00 F ... ... ... : ... .. . ... : D-# 00 F ... : ... .. . ... ... : G-3 01 9 ... ... : C-3 01 9 ... V03 : G-2 01 F ... ...
ROW B1 : ... .. E ... ... ... : ... .. E ... ... ... : ... .. . ... : ... .. C ... : ... .. . ... ... : ... .. 8 ... ... : ... .. 8 ... V01 : ... .. D ... ...
ROW B2 : ... .. D ... ... ... : ... .. D ... ... ... : ... .. . ... : ... .. 6 ... : ... .. . ... ... : ... .. . ... ... : ... .. . ... ... : ... .. 8 ... ...
ROW B3 : ... .. A ... ... ... : ... .. A ... ... ... : ... .. . ... : ... .. 3 ... : ... .. . ... ... : ... .. . ... ... : ... .. . ... ... : ... .. . ... ...
ROW B4 : ... .. . ... ... ... : ... .. . ... ... ... : ... .. . ... : ... .. 2 ... : ... .. . ... ... : ... .. 7 ... ... : ... .. . ... ... : ... .. . ... ...
ROW B5 : ... .. . ... ... ... : ... .. . ... ... ... : ... .. . ... : ... .. 0 ... : ... .. . ... ... : ... .. . ... ... : ... .. . ... ... : ... .. . ... ...
ROW B6 : ... .. . ... ... ... : ... .. . ... ... ... : ... .. . ... : ... .. . ... : ... .. . ... ... : ... .. . ... ... : ... .. . ... ... : ... .. . ... ...
ROW B7 : ... .. . ... ... ... : ... .. . ... ... ... : ... .. . ... : ... .. . ... : ... .. . ... ... : ... .. 6 ... ... : ... .. 7 ... ... : ... .. . ... ...
ROW B8 : ... .. . ... ... ... : ... .. . ... ... ... : ... .. . ... : ... .. . ... : ... .. . ... ... : ... .. . ... ... : ... .. . ... ... : ... .. . ... ...
ROW B9 : ... .. . ... ... ... : ... .. . ... ... ... : ... .. . ... : ... .. . ... : ... .. . ... ... : ... .. . ... ... : ... .. . ... ... : ... .. . ... ...
ROW BA : ... .. . ... ... ... : ... .. . ... ... ... : ... .. . ... : ... .. . ... : ... .. . ... ... : ... .. . ... ... : ... .. . ... ... : ... .. . ... ...
ROW BB : ... .. 2 ... ... ... : ... .. 2 ... ... ... : ... .. . ... : ... .. . ... : ... .. . ... ... : ... .. 5 ... ... : ... .. 6 ... ... : ... .. 4 ... ...
ROW BC : ... .. . ... ... ... : ... .. . ... ... ... : ... .. . ... : ... .. . ... : ... .. . ... ... : ... .. . ... ... : ... .. . ... ... : ... .. . ... ...
ROW BD : ... .. . ... ... ... : ... .. . ... ... ... : ... .. . ... : ... .. . ... : ... .. . ... ... : ... .. 4 ... ... : ... .. 5 ... ... : ... .. 1 ... ...
ROW BE : ... .. 1 ... ... ... : ... .. 1 ... ... ... : ... .. . ... : ... .. . ... : ... .. . ... ... : ... .. 3 ... ... : ... .. . ... ... : ... .. . ... ...
ROW BF : ... .. . ... ... ... : ... .. . ... ... ... : ... .. . ... : ... .. . ... : ... .. . ... ... : ... .. . ... ... : ... .. . ... ... : ... .. . ... ...
ROW C0 : ... .. . ... ... ... : ... .. . ... ... ... : ... .. . ... : ... .. . ... : ... .. . ... ... : ... .. . ... ... : ... .. . ... ... : ... .. . ... ...
ROW C1 : ... .. 0 ... V00 ... : ... .. 0 ... ... ... : ... .. . ... : ... .. . ... : ... .. . ... ... : ... .. . ... ... : ... .. 4 ... ... : ... .. . ... ...
ROW C2 : ... .. . ... ... ... : ... .. . ... ... ... : ... .. . ... : ... .. . ... : ... .. . ... ... : ... .. . ... ... : ... .. . ... ... : ... .. . ... ...
ROW C3 : ... .. . ... ... ... : ... .. . ... ... ... : ... .. . ... : ... .. . ... : ... .. . ... ... : ... .. . ... ... : ... .. . ... ... : ... .. . ... ...
ROW C4 : G#2 00 F P80 V01 ... : D-3 00 F P80 ... ... : D#3 00 . ... : ... .. D ... : ... .. . ... ... : G#3 01 9 ... ... : B-2 01 9 ... V03 : F-3 01 F ... ...
ROW C5 : ... .. E ... ... ... : ... .. E ... ... ... : ... .. . ... : ... .. B ... : ... .. . ... ... : ... .. 8 ... ... : ... .. 8 ... V01 : ... .. D ... ...
ROW C6 : ... .. D ... ... ... : ... .. D ... ... ... : ... .. . ... : ... .. . ... : ... .. . ... ... : ... .. . ... ... : ... .. . ... ... : ... .. 8 ... ...
ROW C7 : ... .. A ... ... ... : ... .. A ... ... ... : ... .. . ... : ... .. A ... : ... .. . ... ... : ... .. . ... ... : ... .. . ... ... : ... .. . ... ...
ROW C8 : ... .. . ... ... ... : ... .. . ... ... ... : ... .. . ... : ... .. 8 ... : ... .. . ... ... : ... .. 7 ... ... : ... .. . ... ... : ... .. . ... ...
ROW C9 : ... .. . ... ... ... : ... .. . ... ... ... : ... .. . ... : ... .. 7 ... : ... .. . ... ... : ... .. . ... ... : ... .. . ... ... : ... .. . ... ...
ROW CA : ... .. . ... ... ... : ... .. . ... ... ... : ... .. . ... : ... .. 6 ... : ... .. . ... ... : ... .. . ... ... : ... .. . ... ... : ... .. . ... ...
ROW CB : ... .. . ... ... ... : ... .. . ... ... ... : ... .. . ... : ... .. . ... : ... .. . ... ... : ... .. 6 ... ... : ... .. 7 ... ... : ... .. . ... ...
ROW CC : ... .. . ... ... ... : ... .. . ... ... ... : ... .. . ... : ... .. 5 ... : ... .. . ... ... : ... .. . ... ... : ... .. . ... ... : ... .. . ... ...
ROW CD : ... .. . ... ... ... : ... .. . ... ... ... : ... .. . ... : ... .. . ... : ... .. . ... ... : ... .. . ... ... : ... .. . ... ... : ... .. . ... ...
ROW CE : ... .. . ... ... ... : ... .. . ... ... ... : ... .. . ... : ... .. 4 ... : ... .. . ... ... : ... .. . ... ... : ... .. . ... ... : ... .. . ... ...
ROW CF : ... .. . ... ... ... : ... .. . ... ... ... : ... .. . ... : ... .. . ... : ... .. . ... ... : ... .. . ... ... : ... .. 6 ... ... : ... .. . ... ...
ROW D0 : ... .. . ... ... ... : ... .. . ... ... ... : ... .. . ... : ... .. 3 ... : ... .. . ... ... : ... .. . ... ... : ... .. . ... ... : ... .. . ... ...
ROW D1 : ... .. . ... ... ... : ... .. . ... ... ... : ... .. . ... : ... .. 2 ... : ... .. . ... ... : ... .. . ... ... : ... .. 5 ... ... : ... .. . ... ...
ROW D2 : ... .. . ... ... ... : ... .. . ... ... ... : ... .. . ... : ... .. . ... : ... .. . ... ... : ... .. . ... ... : ... .. . ... ... : ... .. . ... ...
ROW D3 : ... .. . ... ... ... : ... .. . ... ... ... : ... .. . ... : ... .. 1 ... : ... .. . ... ... : ... .. . ... ... : ... .. . ... ... : ... .. . ... ...
ROW D4 : ... .. . ... ... ... : ... .. . ... ... ... : ... .. . ... : ... .. 0 ... : ... .. . ... ... : ... .. . ... ... : ... .. . ... ... : ... .. . ... ...
ROW D5 : ... .. . ... ... ... : ... .. . ... ... ... : ... .. . ... : ... .. . ... : ... .. . ... ... : ... .. . ... ... : ... .. 4 ... ... : ... .. . ... ...
ROW D6 : ... .. . ... ... ... : ... .. . ... ... ... : ... .. . ... : ... .. . ... : ... .. . ... ... : ... .. . ... ... : ... .. . ... ... : ... .. . ... ...
ROW D7 : ... .. . ... ... ... : ... .. . ... ... ... : ... .. . ... : ... .. . ... : ... .. . ... ... : ... .. . ... ... : ... .. . ... ... : ... .. . ... ...
ROW D8 : G-2 00 F ... ... ... : D#3 00 F ... ... ... : ... .. . ... : 9-# 00 A ... : ... .. . ... ... : ... .. . ... ... : D-3 01 9 ... V03 : G-2 01 F ... ...
ROW D9 : ... .. E ... ... ... : ... .. E ... ... ... : ... .. . ... : ... .. 8 ... : ... .. . ... ... : ... .. . ... ... : ... .. 8 ... V01 : ... .. D ... ...
ROW DA : ... .. D ... ... ... : ... .. D ... ... ... : ... .. . ... : ... .. 4 ... : ... .. . ... ... : ... .. . ... ... : ... .. . ... ... : ... .. 8 ... ...
ROW DB : ... .. A ... ... ... : ... .. A ... ... ... : ... .. . ... : ... .. 2 ... : ... .. . ... ... : ... .. . ... ... : ... .. . ... ... : ... .. . ... ...
ROW DC : ... .. . ... ... ... : ... .. . ... ... ... : ... .. . ... : ... .. 1 ... : ... .. . ... ... : ... .. . ... ... : ... .. . ... ... : ... .. . ... ...
ROW DD : ... .. . ... ... ... : ... .. . ... ... ... : ... .. . ... : ... .. 0 ... : ... .. . ... ... : ... .. . ... ... : ... .. . ... ... : ... .. . ... ...
ROW DE : ... .. . ... ... ... : ... .. . ... ... ... : ... .. . ... : ... .. . ... : ... .. . ... ... : ... .. . ... ... : ... .. . ... ... : ... .. . ... ...
ROW DF : ... .. . ... ... ... : ... .. . ... ... ... : ... .. . ... : ... .. . ... : ... .. . ... ... : ... .. . ... ... : ... .. 7 ... ... : ... .. . ... ...
ROW E0 : ... .. . ... ... ... : ... .. . ... ... ... : ... .. . ... : ... .. . ... : ... .. . ... ... : ... .. . ... ... : ... .. . ... ... : ... .. . ... ...
ROW E1 : ... .. . ... ... ... : ... .. . ... ... ... : ... .. . ... : ... .. . ... : ... .. . ... ... : ... .. . ... ... : ... .. . ... ... : ... .. . ... ...
ROW E2 : ... .. . ... ... ... : ... .. . ... ... ... : ... .. . ... : ... .. 8 ... : ... .. . ... ... : ... .. . ... ... : D#3 01 9 ... V03 : ... .. . ... ...
ROW E3 : ... .. 2 ... ... ... : ... .. 2 ... ... ... : ... .. . ... : ... .. 6 ... : ... .. . ... ... : ... .. 5 ... ... : ... .. 8 ... V01 : ... .. 4 ... ...
ROW E4 : ... .. . ... ... ... : ... .. . ... ... ... : ... .. . ... : ... .. 3 ... : ... .. . ... ... : ... .. . ... ... : ... .. . ... ... : ... .. . ... ...
ROW E5 : ... .. . ... ... ... : ... .. . ... ... ... : ... .. . ... : ... .. 1 ... : ... .. . ... ... : ... .. 4 ... ... : ... .. . ... ... : ... .. 1 ... ...
ROW E6 : ... .. 1 ... ... ... : ... .. 1 ... ... ... : ... .. . ... : ... .. . ... : ... .. . ... ... : ... .. 3 ... ... : ... .. . ... ... : ... .. . ... ...
ROW E7 : ... .. . ... ... ... : ... .. . ... ... ... : ... .. . ... : ... .. 0 ... : ... .. . ... ... : ... .. . ... ... : ... .. . ... ... : ... .. . ... ...
ROW E8 : ... .. . ... ... ... : ... .. . ... ... ... : ... .. . ... : ... .. . ... : ... .. . ... ... : ... .. . ... ... : ... .. . ... ... : ... .. . ... ...
ROW E9 : ... .. 0 ... V00 ... : ... .. 0 ... ... ... : ... .. . ... : ... .. . ... : ... .. . ... ... : ... .. . ... ... : ... .. 7 ... ... : ... .. . ... ...
ROW EA : ... .. . ... ... ... : ... .. . ... ... ... : ... .. . ... : ... .. . ... : ... .. . ... ... : ... .. . ... ... : ... .. . ... ... : ... .. . ... ...
ROW EB : ... .. . ... ... ... : ... .. . ... ... ... : ... .. . ... : ... .. . ... : ... .. . ... ... : ... .. . ... ... : ... .. . ... ... : ... .. . ... ...
ROW EC : D-3 00 F P80 V01 ... : F-3 00 F P80 ... ... : D-3 00 . ... : ... .. F ... : ... .. . ... ... : G-3 01 9 ... ... : F-3 01 9 ... V03 : D-3 01 F ... ...
ROW ED : ... .. E ... ... ... : ... .. E ... ... ... : ... .. . ... : ... .. C ... : ... .. . ... ... : ... .. 8 ... ... : ... .. 8 ... V01 : ... .. D ... ...
ROW EE : ... .. D ... ... ... : ... .. D ... ... ... : ... .. . ... : ... .. 6 ... : ... .. . ... ... : ... .. . ... ... : ... .. . ... ... : ... .. 8 ... ...
ROW EF : ... .. A ... ... ... : ... .. A ... ... ... : ... .. . ... : ... .. 3 ... : ... .. . ... ... : ... .. . ... ... : ... .. . ... ... : ... .. . ... ...
ROW F0 : ... .. . ... ... ... : ... .. . ... ... ... : ... .. . ... : ... .. 2 ... : ... .. . ... ... : ... .. 7 ... ... : ... .. . ... ... : ... .. . ... ...
ROW F1 : ... .. . ... ... ... : ... .. . ... ... ... : ... .. . ... : ... .. 0 ... : ... .. . ... ... : ... .. . ... ... : ... .. . ... ... : ... .. . ... ...
ROW F2 : ... .. 2 ... ... ... : ... .. . ... ... ... : ... .. . ... : ... .. . ... : ... .. . ... ... : ... .. . ... ... : ... .. . ... ... : ... .. . ... ...
ROW F3 : ... .. . ... ... ... : ... .. . ... ... ... : ... .. . ... : ... .. . ... : ... .. . ... ... : ... .. 6 ... ... : ... .. 7 ... ... : ... .. . ... ...
ROW F4 : ... .. . ... ... ... : ... .. . ... ... ... : ... .. . ... : ... .. . ... : ... .. . ... ... : ... .. . ... ... : ... .. . ... ... : ... .. . ... ...
ROW F5 : ... .. 1 ... ... ... : ... .. . ... ... ... : ... .. . ... : ... .. . ... : ... .. . ... ... : ... .. . ... ... : ... .. . ... ... : ... .. . ... ...
ROW F6 : C-3 00 F ... ... ... : ... .. . ... ... ... : ... .. . ... : ... .. . ... : ... .. . ... ... : ... .. . ... ... : ... .. . ... ... : ... .. . ... ...
ROW F7 : ... .. E ... ... ... : ... .. . ... ... ... : ... .. . ... : ... .. . ... : ... .. . ... ... : ... .. . ... ... : ... .. 6 ... ... : ... .. . ... ...
ROW F8 : ... .. D ... ... ... : ... .. . ... ... ... : ... .. . ... : ... .. . ... : ... .. . ... ... : ... .. . ... ... : ... .. . ... ... : ... .. . ... ...
ROW F9 : ... .. A ... ... ... : ... .. . ... ... ... : ... .. . ... : ... .. . ... : ... .. . ... ... : ... .. . ... ... : ... .. 5 ... ... : ... .. . ... ...
ROW FA : ... .. . ... ... ... : ... .. . ... ... ... : ... .. . ... : ... .. . ... : ... .. . ... ... : ... .. . ... ... : ... .. . ... ... : ... .. . ... ...
ROW FB : ... .. . ... ... ... : ... .. . ... ... ... : ... .. . ... : ... .. . ... : ... .. . ... ... : ... .. . ... ... : ... .. . ... ... : ... .. . ... ...
ROW FC : ... .. 2 ... ... ... : ... .. . ... ... ... : ... .. . ... : ... .. . ... : ... .. . ... ... : ... .. . ... ... : ... .. . ... ... : ... .. . ... ...
ROW FD : ... .. . ... ... ... : ... .. . ... ... ... : ... .. . ... : ... .. . ... : ... .. . ... ... : ... .. . ... ... : ... .. 4 ... ... : ... .. . ... ...
ROW FE : ... .. . ... ... ... : ... .. . ... ... ... : ... .. . ... : ... .. . ... : ... .. . ... ... : ... .. . ... ... : ... .. . ... ... : ... .. . ... ...
ROW FF : ... .. 1 ... ... ... : ... .. . ... ... ... : ... .. . ... : ... .. . ... : ... .. . ... ... : ... .. . ... ... : ... .. . ... ... : ... .. . ... ...

PATTERN 19
ROW 00 : B-2 00 F ... ... ... : G-3 00 F ... ... ... : ... .. . ... : D-# 00 D ... : ... .. . ... ... : ... .. . ... ... : D-3 01 9 ... V03 : G-2 01 F ... ...
ROW 01 : ... .. E ... ... ... : ... .. E ... ... ... : ... .. . ... : ... .. B ... : ... .. . ... ... : ... .. 5 ... ... : ... .. 8 ... V01 : ... .. D ... ...
ROW 02 : ... .. D ... ... ... : ... .. D ... ... ... : ... .. . ... : ... .. . ... : ... .. . ... ... : ... .. . ... ... : ... .. . ... ... : ... .. 8 ... ...
ROW 03 : ... .. A ... ... ... : ... .. A ... ... ... : ... .. . ... : ... .. A ... : ... .. . ... ... : ... .. 4 ... ... : ... .. . ... ... : ... .. . ... ...
ROW 04 : ... .. . ... ... ... : ... .. . ... ... ... : ... .. . ... : ... .. 8 ... : ... .. . ... ... : ... .. 3 ... ... : ... .. . ... ... : ... .. . ... ...
ROW 05 : ... .. . ... ... ... : ... .. . ... ... ... : ... .. . ... : ... .. 7 ... : ... .. . ... ... : ... .. . ... ... : ... .. . ... ... : ... .. . ... ...
ROW 06 : ... .. 2 ... ... ... : ... .. . ... ... ... : ... .. . ... : ... .. 6 ... : ... .. . ... ... : ... .. . ... ... : ... .. . ... ... : ... .. . ... ...
ROW 07 : ... .. . ... ... ... : ... .. . ... ... ... : ... .. . ... : ... .. . ... : ... .. . ... ... : ... .. . ... ... : ... .. 7 ... ... : ... .. . ... ...
ROW 08 : ... .. . ... ... ... : ... .. . ... ... ... : ... .. . ... : ... .. 5 ... : ... .. . ... ... : ... .. . ... ... : ... .. . ... ... : ... .. . ... ...
ROW 09 : ... .. 1 ... ... ... : ... .. . ... ... ... : ... .. . ... : ... .. . ... : ... .. . ... ... : ... .. . ... ... : ... .. . ... ... : ... .. . ... ...
ROW 0A : D-3 00 F ... ... ... : ... .. . ... ... ... : ... .. . ... : ... .. 4 ... : ... .. . ... ... : ... .. . ... ... : ... .. . ... ... : ... .. . ... ...
ROW 0B : ... .. E ... ... ... : ... .. 2 ... ... ... : ... .. . ... : ... .. . ... : ... .. . ... ... : ... .. . ... ... : ... .. 6 ... ... : ... .. 4 ... ...
ROW 0C : ... .. D ... ... ... : ... .. . ... ... ... : ... .. . ... : ... .. 3 ... : ... .. . ... ... : ... .. . ... ... : ... .. . ... ... : ... .. . ... ...
ROW 0D : ... .. A ... ... ... : ... .. . ... ... ... : ... .. . ... : ... .. 2 ... : ... .. . ... ... : ... .. . ... ... : ... .. 5 ... ... : ... .. 1 ... ...
ROW 0E : ... .. . ... ... ... : ... .. 1 ... ... ... : ... .. . ... : ... .. . ... : ... .. . ... ... : ... .. . ... ... : ... .. . ... ... : ... .. . ... ...
ROW 0F : ... .. . ... ... ... : ... .. . ... ... ... : ... .. . ... : ... .. 1 ... : ... .. . ... ... : ... .. 1 ... ... : ... .. . ... ... : ... .. . ... ...
ROW 10 : ... .. 2 ... ... ... : ... .. . ... ... ... : ... .. . ... : ... .. 0 ... : ... .. . ... ... : ... .. . ... ... : ... .. . ... ... : ... .. . ... ...
ROW 11 : ... .. . ... ... ... : ... .. 0 ... ... ... : ... .. . ... : ... .. . ... : ... .. . ... ... : ... .. . ... ... : ... .. 4 ... ... : ... .. . ... ...
ROW 12 : ... .. . ... ... ... : ... .. . ... ... ... : ... .. . ... : ... .. . ... : ... .. . ... ... : ... .. . ... ... : ... .. . ... ... : ... .. . ... ...
ROW 13 : ... .. 1 ... ... ... : ... .. . ... ... ... : ... .. . ... : ... .. . ... : ... .. . ... ... : ... .. . ... ... : ... .. . ... ... : ... .. . ... ...
ROW 14 : C-3 00 F ... ... ... : ... .. . ... ... ... : C-3 00 . ... : ... .. D V01 : ... .. . ... ... : D#3 01 6 ... ... : G-3 01 6 ... V05 : C-3 01 5 P7F ...
ROW 15 : ... .. E ... ... ... : ... .. . ... ... ... : ... .. . ... : ... .. B ... : ... .. . ... ... : ... .. 5 ... ... : ... .. 5 ... ... : ... .. 4 ... ...
ROW 16 : ... .. D ... ... ... : ... .. . ... ... ... : ... .. . ... : ... .. . ... : ... .. . ... ... : ... .. . ... ... : ... .. . ... ... : ... .. 2 ... ...
ROW 17 : ... .. A ... ... ... : ... .. . ... ... ... : ... .. . ... : ... .. A ... : ... .. . ... ... : ... .. 4 ... ... : ... .. 4 ... ... : ... .. . ... ...
ROW 18 : ... .. . ... ... ... : ... .. . ... ... ... : ... .. . ... : ... .. 8 ... : ... .. . ... ... : ... .. . ... ... : ... .. . ... ... : ... .. . ... ...
ROW 19 : ... .. 9 ... ... ... : ... .. . ... ... ... : ... .. . ... : ... .. 7 ... : ... .. . ... ... : ... .. . ... ... : ... .. . ... ... : ... .. . ... ...
ROW 1A : ... .. . ... ... ... : ... .. . ... ... ... : ... .. . ... : ... .. 6 ... : ... .. . ... ... : ... .. . ... ... : ... .. . ... ... : ... .. . ... ...
ROW 1B : ... .. . ... ... ... : ... .. . ... ... ... : ... .. . ... : ... .. . ... : ... .. . ... ... : ... .. 3 ... ... : ... .. 3 ... ... : ... .. . ... ...
ROW 1C : ... .. . ... ... ... : ... .. . ... ... ... : ... .. . ... : ... .. 5 ... : ... .. . ... ... : ... .. 2 ... ... : ... .. 2 ... ... : ... .. . ... ...
ROW 1D : ... .. . ... ... ... : ... .. . ... ... ... : ... .. . ... : ... .. . ... : ... .. . ... ... : ... .. . ... ... : ... .. . ... ... : ... .. . ... ...
ROW 1E : ... .. . ... ... ... : ... .. . ... ... ... : ... .. . ... : ... .. 4 ... : ... .. . ... ... : ... .. 1 ... ... : ... .. 1 ... ... : ... .. . ... ...
ROW 1F : ... .. . ... ... ... : ... .. . ... ... ... : ... .. . ... : ... .. . ... : ... .. . ... ... : ... .. . ... ... : ... .. . ... ... : ... .. . ... ...
ROW 20 : ... .. . ... ... ... : ... .. . ... ... ... : ... .. . ... : ... .. 3 ... : ... .. . ... ... : ... .. . ... ... : ... .. . ... ... : ... .. . ... ...
ROW 21 : ... .. . ... ... ... : ... .. . ... ... ... : ... .. . ... : ... .. 2 ... : ... .. . ... ... : ... .. . ... ... : ... .. . ... ... : ... .. . ... ...
ROW 22 : ... .. . ... ... ... : ... .. . ... ... ... : ... .. . ... : ... .. . ... : ... .. . ... ... : ... .. . ... ... : ... .. . ... ... : ... .. . ... ...
ROW 23 : ... .. 8 ... ... ... : ... .. . ... ... ... : --- .. . ... : ... .. 1 ... : ... .. . ... ... : ... .. . ... ... : ... .. . ... ... : ... .. . ... ...
ROW 24 : ... .. . ... ... ... : ... .. . ... ... ... : ... .. . ... : ... .. 0 ... : ... .. . ... ... : ... .. . ... ... : ... .. . ... ... : ... .. . ... ...
ROW 25 : ... .. . ... ... ... : ... .. . ... ... ... : ... .. . ... : ... .. . ... : ... .. . ... ... : ... .. . ... ... : ... .. . ... ... : ... .. . ... ...
ROW 26 : ... .. . ... ... ... : ... .. . ... ... ... : ... .. . ... : ... .. . ... : ... .. . ... ... : ... .. . ... ... : ... .. . ... ... : ... .. . ... ...
ROW 27 : ... .. . ... ... ... : ... .. . ... ... ... : ... .. . ... : ... .. . ... : ... .. . ... ... : ... .. . ... ... : ... .. . ... ... : ... .. . ... ...
ROW 28 : ... .. . ... ... ... : G-3 00 D P80 ... ... : D#4 00 . ... : 9-# 00 A V00 : ... .. . ... ... : ... .. 6 ... ... : ... .. 6 ... ... : ... .. . ... ...
ROW 29 : ... .. . ... ... ... : ... .. B ... ... ... : ... .. . ... : ... .. 8 ... : ... .. . ... ... : ... .. 5 ... ... : ... .. 5 ... ... : ... .. . ... ...
ROW 2A : ... .. . ... ... ... : ... .. . ... ... ... : ... .. . ... : ... .. 4 ... : ... .. . ... ... : ... .. . ... ... : ... .. . ... ... : ... .. . ... ...
ROW 2B : ... .. . ... ... ... : ... .. A ... ... ... : ... .. . ... : ... .. 2 ... : ... .. . ... ... : ... .. 4 ... ... : ... .. 4 ... ... : ... .. . ... ...
ROW 2C : ... .. . ... ... ... : ... .. 8 ... ... ... : ... .. . ... : ... .. 1 ... : ... .. . ... ... : ... .. . ... ... : ... .. . ... ... : ... .. . ... ...
ROW 2D : ... .. . ... ... ... : ... .. 1 ... ... ... : ... .. . ... : ... .. 0 ... : ... .. . ... ... : ... .. . ... ... : ... .. . ... ... : ... .. . ... ...
ROW 2E : ... .. . ... ... ... : ... .. . ... ... ... : ... .. . ... : ... .. . ... : ... .. . ... ... : ... .. . ... ... : ... .. . ... ... : ... .. . ... ...
ROW 2F : ... .. . ... ... ... : ... .. . ... ... ... : ... .. . ... : ... .. . ... : ... .. . ... ... : ... .. 3 ... ... : ... .. 3 ... ... : ... .. . ... ...
ROW 30 : ... .. . ... ... ... : ... .. . ... ... ... : ... .. . ... : ... .. . ... : ... .. . ... ... : ... .. 2 ... ... : ... .. 2 ... ... : ... .. . ... ...
ROW 31 : ... .. . ... ... ... : ... .. . ... ... ... : ... .. . ... : ... .. . ... : ... .. . ... ... : ... .. . ... ... : ... .. . ... ... : ... .. . ... ...
ROW 32 : ... .. . ... ... ... : ... .. 6 ... V02 ... : ... .. . ... : ... .. 8 ... : ... .. . ... ... : ... .. 1 ... ... : ... .. 1 ... ... : ... .. . ... ...
ROW 33 : ... .. . ... ... ... : ... .. 5 ... ... ... : ... .. . ... : ... .. 6 ... : ... .. . ... ... : ... .. . ... ... : ... .. . ... ... : ... .. . ... ...
ROW 34 : ... .. . ... ... ... : ... .. . ... ... ... : ... .. . ... : ... .. 3 ... : ... .. . ... ... : ... .. . ... ... : ... .. . ... ... : ... .. . ... ...
ROW 35 : ... .. . ... ... ... : ... .. . ... ... ... : ... .. . ... : ... .. 1 ... : ... .. . ... ... : ... .. . ... ... : ... .. . ... ... : ... .. . ... ...
ROW 36 : ... .. . ... ... ... : ... .. 4 ... ... ... : ... .. . ... : ... .. . ... : ... .. . ... ... : ... .. . ... ... : ... .. . ... ... : ... .. . ... ...
ROW 37 : ... .. 7 ... ... ... : ... .. 1 ... ... ... : --- .. . ... : ... .. 0 ... : ... .. . ... ... : ... .. . ... ... : ... .. . ... ... : ... .. . ... ...
ROW 38 : ... .. . ... ... ... : ... .. . ... ... ... : ... .. . ... : ... .. . ... : ... .. . ... ... : ... .. . ... ... : ... .. . ... ... : ... .. . ... ...
ROW 39 : ... .. . ... ... ... : ... .. . ... ... ... : ... .. . ... : ... .. . ... : ... .. . ... ... : ... .. . ... ... : ... .. . ... ... : ... .. . ... ...
ROW 3A : ... .. . ... ... ... : ... .. . ... ... ... : ... .. . ... : ... .. . ... : ... .. . ... ... : ... .. . ... ... : ... .. . ... ... : ... .. . ... ...
ROW 3B : ... .. . ... ... ... : ... .. . ... ... ... : ... .. . ... : ... .. . ... : ... .. . ... ... : ... .. . ... ... : ... .. . ... ... : ... .. . ... ...
ROW 3C : ... .. . ... ... ... : ... .. D ... V00 ... : D#4 00 . ... : ... .. F ... : ... .. . ... ... : D-3 01 6 ... ... : ... .. 6 ... ... : D-3 01 5 ... ...
ROW 3D : ... .. . ... ... ... : ... .. B ... ... ... : ... .. . ... : ... .. C ... : ... .. . ... ... : ... .. 5 ... ... : ... .. 5 ... ... : ... .. 4 ... ...
ROW 3E : ... .. . ... ... ... : ... .. . ... ... ... : ... .. . ... : ... .. 6 ... : ... .. . ... ... : ... .. . ... ... : ... .. . ... ... : ... .. 2 ... ...
ROW 3F : ... .. . ... ... ... : ... .. A ... ... ... : ... .. . ... : ... .. 3 ... : ... .. . ... ... : ... .. 4 ... ... : ... .. 4 ... ... : ... .. . ... ...
ROW 40 : ... .. . ... ... ... : ... .. 8 ... ... ... : ... .. . ... : ... .. 2 ... : ... .. . ... ... : ... .. . ... ... : ... .. . ... ... : ... .. . ... ...
ROW 41 : ... .. . ... ... ... : ... .. 1 ... ... ... : ... .. . ... : ... .. 0 ... : ... .. . ... ... : ... .. . ... ... : ... .. . ... ... : ... .. . ... ...
ROW 42 : ... .. . ... ... ... : ... .. . ... ... ... : ... .. . ... : ... .. . ... : ... .. . ... ... : ... .. . ... ... : ... .. . ... ... : ... .. . ... ...
ROW 43 : ... .. . ... ... ... : ... .. . ... ... ... : ... .. . ... : ... .. . ... : ... .. . ... ... : ... .. 3 ... ... : ... .. 3 ... ... : ... .. . ... ...
ROW 44 : ... .. . ... ... ... : ... .. . ... ... ... : ... .. . ... : ... .. . ... : ... .. . ... ... : ... .. 2 ... ... : ... .. 2 ... ... : ... .. . ... ...
ROW 45 : ... .. . ... ... ... : ... .. . ... ... ... : ... .. . ... : ... .. . ... : ... .. . ... ... : ... .. . ... ... : ... .. . ... ... : ... .. . ... ...
ROW 46 : ... .. 6 P85 ... ... : ... .. 6 ... V02 ... : ... .. . ... : ... .. . ... : ... .. . ... ... : ... .. 1 ... ... : ... .. 1 ... ... : ... .. 3 ... ...
ROW 47 : ... .. . P89 ... ... : ... .. 5 ... ... ... : ... .. . ... : ... .. . ... : ... .. . ... ... : ... .. . ... ... : ... .. . ... ... : ... .. . ... ...
ROW 48 : ... .. . P8B ... ... : ... .. . ... ... ... : ... .. . ... : ... .. . ... : ... .. . ... ... : ... .. . ... ... : ... .. . ... ... : ... .. . ... ...
ROW 49 : ... .. . P8A ... ... : ... .. . ... ... ... : ... .. . ... : ... .. . ... : ... .. . ... ... : ... .. . ... ... : ... .. . ... ... : ... .. . ... ...
ROW 4A : ... .. . P86 ... ... : ... .. 4 ... ... ... : ... .. . ... : ... .. . ... : ... .. . ... ... : ... .. . ... ... : ... .. . ... ... : ... .. . ... ...
ROW 4B : ... .. . P81 ... ... : ... .. 1 ... ... ... : --- .. . ... : ... .. . ... : ... .. . ... ... : ... .. . ... ... : ... .. . ... ... : ... .. . ... ...
ROW 4C : ... .. . P7D ... ... : ... .. . ... ... ... : ... .. . ... : ... .. . ... : ... .. . ... ... : ... .. . ... ... : ... .. . ... ... : ... .. . ... ...
ROW 4D : ... .. . P78 ... ... : ... .. . ... ... ... : ... .. . ... : ... .. . ... : ... .. . ... ... : ... .. . ... ... : ... .. . ... ... : ... .. . ... ...
ROW 4E : ... .. . P75 ... ... : ... .. . ... ... ... : ... .. . ... : ... .. . ... : ... .. . ... ... : ... .. . ... ... : ... .. . ... ... : ... .. . ... ...
ROW 4F : ... .. . ... ... ... : ... .. . ... ... ... : ... .. . ... : ... .. . ... : ... .. . ... ... : ... .. . ... ... : ... .. . ... ... : ... .. . ... ...
ROW 50 : ... .. . P78 ... ... : F-4 00 D ... V00 ... : G-3 00 . ... : D-# 00 8 ... : ... .. . ... ... : ... .. 6 ... ... : ... .. 6 ... ... : ... .. . ... ...
ROW 51 : ... .. . P7D ... ... : ... .. B ... ... ... : ... .. . ... : ... .. 7 ... : ... .. . ... ... : ... .. 5 ... ... : ... .. 5 ... ... : ... .. . ... ...
ROW 52 : ... .. . P81 ... ... : ... .. . ... ... ... : ... .. . ... : ... .. . ... : ... .. . ... ... : ... .. . ... ... : ... .. . ... ... : ... .. . ... ...
ROW 53 : ... .. . P86 ... ... : ... .. A ... ... ... : ... .. . ... : ... .. 6 ... : ... .. . ... ... : ... .. 4 ... ... : ... .. 4 ... ... : ... .. . ... ...
ROW 54 : ... .. . P8A ... ... : ... .. 8 ... ... ... : ... .. . ... : ... .. 5 ... : ... .. . ... ... : ... .. . ... ... : ... .. . ... ... : ... .. . ... ...
ROW 55 : ... .. . P8B ... ... : ... .. 1 ... ... ... : ... .. . ... : ... .. 4 ... : ... .. . ... ... : ... .. . ... ... : ... .. . ... ... : ... .. . ... ...
ROW 56 : ... .. . P89 ... ... : ... .. . ... ... ... : ... .. . ... : ... .. . ... : ... .. . ... ... : ... .. . ... ... : ... .. . ... ... : ... .. . ... ...
ROW 57 : ... .. . P85 ... ... : ... .. . ... ... ... : ... .. . ... : ... .. . ... : ... .. . ... ... : ... .. 3 ... ... : ... .. 3 ... ... : ... .. . ... ...
ROW 58 : ... .. . P80 ... ... : ... .. . ... ... ... : ... .. . ... : ... .. 3 ... : ... .. . ... ... : ... .. 2 ... ... : ... .. 2 ... ... : ... .. . ... ...
ROW 59 : ... .. . P7C ... ... : ... .. . ... ... ... : ... .. . ... : ... .. . ... : ... .. . ... ... : ... .. . ... ... : ... .. . ... ... : ... .. . ... ...
ROW 5A : ... .. 5 P77 ... ... : ... .. 6 ... V02 ... : ... .. . ... : ... .. 2 ... : ... .. . ... ... : ... .. 1 ... ... : ... .. 1 ... ... : ... .. . ... ...
ROW 5B : ... .. . P75 ... ... : ... .. 5 ... ... ... : ... .. . ... : ... .. . ... : ... .. . ... ... : ... .. . ... ... : ... .. . ... ... : ... .. . ... ...
ROW 5C : ... .. . ... ... ... : ... .. . ... ... ... : ... .. . ... : ... .. . ... : ... .. . ... ... : ... .. . ... ... : ... .. . ... ... : ... .. . ... ...
ROW 5D : ... .. . P79 ... ... : ... .. . ... ... ... : ... .. . ... : ... .. 1 ... : ... .. . ... ... : ... .. . ... ... : ... .. . ... ... : ... .. . ... ...
ROW 5E : ... .. . P7E ... ... : ... .. 4 ... ... ... : ... .. . ... : ... .. . ... : ... .. . ... ... : ... .. . ... ... : ... .. . ... ... : ... .. . ... ...
ROW 5F : ... .. . P82 ... ... : ... .. 1 ... ... ... : --- .. . ... : ... .. . ... : ... .. . ... ... : ... .. . ... ... : ... .. . ... ... : ... .. . ... ...
ROW 60 : ... .. . P87 ... ... : ... .. . ... ... ... : ... .. . ... : ... .. 0 ... : ... .. . ... ... : ... .. . ... ... : ... .. . ... ... : ... .. . ... ...
ROW 61 : ... .. . P8B ... ... : ... .. . ... ... ... : ... .. . ... : ... .. . ... : ... .. . ... ... : ... .. . ... ... : ... .. . ... ... : ... .. . ... ...
ROW 62 : ... .. . ... ... ... : ... .. . ... ... ... : ... .. . ... : ... .. . ... : ... .. . ... ... : ... .. . ... ... : ... .. . ... ... : ... .. . ... ...
ROW 63 : ... .. . P89 ... ... : ... .. . ... ... ... : ... .. . ... : ... .. . ... : ... .. . ... ... : ... .. . ... ... : ... .. . ... ... : ... .. . ... ...
ROW 64 : ... .. . P84 ... ... : ... .. D ... V00 ... : C-3 00 . ... : ... .. D ... : ... .. . ... ... : D#3 01 6 ... ... : ... .. 6 ... ... : F-3 01 6 ... ...
ROW 65 : ... .. . P80 ... ... : ... .. B ... ... ... : ... .. . ... : ... .. B ... : ... .. . ... ... : ... .. 5 ... ... : ... .. 5 ... ... : ... .. 5 ... ...
ROW 66 : ... .. . P7B ... ... : ... .. . ... ... ... : ... .. . ... : ... .. . ... : ... .. . ... ... : ... .. . ... ... : ... .. . ... ... : ... .. 3 ... ...
ROW 67 : ... .. . P77 ... ... : ... .. A ... ... ... : ... .. . ... : ... .. A ... : ... .. . ... ... : ... .. 4 ... ... : ... .. 4 ... ... : ... .. . ... ...
ROW 68 : ... .. . P75 ... ... : ... .. 8 ... ... ... : ... .. . ... : ... .. 8 ... : ... .. . ... ... : ... .. . ... ... : ... .. . ... ... : ... .. . ... ...
ROW 69 : ... .. . P76 ... ... : ... .. 1 ... ... ... : ... .. . ... : ... .. 7 ... : ... .. . ... ... : ... .. . ... ... : ... .. . ... ... : ... .. . ... ...
ROW 6A : ... .. . P7A ... ... : ... .. . ... ... ... : ... .. . ... : ... .. 6 ... : ... .. . ... ... : ... .. . ... ... : ... .. . ... ... : ... .. . ... ...
ROW 6B : ... .. . P7F ... ... : ... .. . ... ... ... : ... .. . ... : ... .. . ... : ... .. . ... ... : ... .. 3 ... ... : ... .. 3 ... ... : ... .. . ... ...
ROW 6C : ... .. . P83 ... ... : ... .. . ... ... ... : ... .. . ... : ... .. 5 ... : ... .. . ... ... : ... .. 2 ... ... : ... .. 2 ... ... : ... .. . ... ...
ROW 6D : ... .. . P88 ... ... : ... .. . ... ... ... : ... .. . ... : ... .. . ... : ... .. . ... ... : ... .. . ... ... : ... .. . ... ... : ... .. . ... ...
ROW 6E : ... .. . P8B ... ... : ... .. 6 ... V02 ... : ... .. . ... : ... .. 4 ... : ... .. . ... ... : ... .. 1 ... ... : ... .. 1 ... ... : ... .. . ... ...
ROW 6F : ... .. . ... ... ... : ... .. 5 ... ... ... : ... .. . ... : ... .. . ... : ... .. . ... ... : ... .. . ... ... : ... .. . ... ... : ... .. . ... ...
ROW 70 : ... .. . P88 ... ... : ... .. . ... ... ... : ... .. . ... : ... .. 3 ... : ... .. . ... ... : ... .. . ... ... : ... .. . ... ... : ... .. . ... ...
ROW 71 : ... .. . P83 ... ... : ... .. . ... ... ... : ... .. . ... : ... .. 2 ... : ... .. . ... ... : ... .. . ... ... : ... .. . ... ... : ... .. . ... ...
ROW 72 : ... .. . P7F ... ... : ... .. 4 ... ... ... : ... .. . ... : ... .. . ... : ... .. . ... ... : ... .. . ... ... : ... .. . ... ... : ... .. . ... ...
ROW 73 : ... .. . P7A ... ... : ... .. 1 ... ... ... : --- .. . ... : ... .. 1 ... : ... .. . ... ... : ... .. . ... ... : ... .. . ... ... : ... .. . ... ...
ROW 74 : ... .. . P76 ... ... : ... .. . ... ... ... : ... .. . ... : ... .. 0 ... : ... .. . ... ... : ... .. . ... ... : ... .. . ... ... : ... .. . ... ...
ROW 75 : ... .. . P75 ... ... : ... .. . ... ... ... : ... .. . ... : ... .. . ... : ... .. . ... ... : ... .. . ... ... : ... .. . ... ... : ... .. . ... ...
ROW 76 : ... .. . P77 ... ... : ... .. . ... ... ... : ... .. . ... : ... .. . ... : ... .. . ... ... : ... .. . ... ... : ... .. . ... ... : ... .. . ... ...
ROW 77 : ... .. . P7B ... ... : ... .. . ... ... ... : ... .. . ... : ... .. . ... : ... .. . ... ... : ... .. . ... ... : ... .. . ... ... : ... .. . ... ...
ROW 78 : ... .. . P80 ... ... : D#4 00 D ... V00 ... : D#4 00 . ... : 9-# 00 A ... : ... .. . ... ... : ... .. 6 ... ... : ... .. 6 ... ... : ... .. . ... ...
ROW 79 : ... .. . P84 ... ... : ... .. B ... ... ... : ... .. . ... : ... .. 8 ... : ... .. . ... ... : ... .. 5 ... ... : ... .. 5 ... ... : ... .. . ... ...
ROW 7A : ... .. . P89 ... ... : ... .. . ... ... ... : ... .. . ... : ... .. 4 ... : ... .. . ... ... : ... .. . ... ... : ... .. . ... ... : ... .. . ... ...
ROW 7B : ... .. . P8B ... ... : ... .. A ... ... ... : ... .. . ... : ... .. 2 ... : ... .. . ... ... : ... .. 4 ... ... : ... .. 4 ... ... : ... .. . ... ...
ROW 7C : ... .. . ... ... ... : ... .. 8 ... ... ... : ... .. . ... : ... .. 1 ... : ... .. . ... ... : ... .. . ... ... : ... .. . ... ... : ... .. . ... ...
ROW 7D : ... .. 6 P87 ... ... : ... .. 1 ... ... ... : ... .. . ... : ... .. 0 ... : ... .. . ... ... : ... .. . ... ... : ... .. . ... ... : ... .. . ... ...
ROW 7E : ... .. . P82 ... ... : ... .. . ... ... ... : ... .. . ... : ... .. . ... : ... .. . ... ... : ... .. . ... ... : ... .. . ... ... : ... .. . ... ...
ROW 7F : ... .. . P7E ... ... : ... .. . ... ... ... : ... .. . ... : ... .. 8 ... : ... .. . ... ... : ... .. 3 ... ... : ... .. 3 ... ... : ... .. . ... ...
ROW 80 : ... .. . P79 ... ... : ... .. . ... ... ... : ... .. . ... : ... .. 6 ... : ... .. . ... ... : ... .. 2 ... ... : ... .. 2 ... ... : ... .. . ... ...
ROW 81 : ... .. . P75 ... ... : ... .. . ... ... ... : ... .. . ... : ... .. 3 ... : ... .. . ... ... : ... .. . ... ... : ... .. . ... ... : ... .. . ... ...
ROW 82 : ... .. . ... ... ... : D-4 00 D ... V02 ... : ... .. . ... : ... .. 1 ... : ... .. . ... ... : ... .. 1 ... ... : ... .. 1 ... ... : ... .. . ... ...
ROW 83 : ... .. . P77 ... ... : ... .. B ... ... ... : ... .. . ... : ... .. . ... : ... .. . ... ... : ... .. . ... ... : ... .. . ... ... : ... .. . ... ...
ROW 84 : ... .. . P7C ... ... : ... .. . ... ... ... : ... .. . ... : ... .. 0 ... : ... .. . ... ... : ... .. . ... ... : ... .. . ... ... : ... .. . ... ...
ROW 85 : ... .. . P80 ... ... : ... .. A ... ... ... : ... .. . ... : ... .. C ... : ... .. . ... ... : ... .. . ... ... : ... .. . ... ... : ... .. . ... ...
ROW 86 : ... .. . P85 ... ... : ... .. 8 ... ... ... : ... .. . ... : ... .. 9 ... : ... .. . ... ... : ... .. . ... ... : ... .. . ... ... : ... .. . ... ...
ROW 87 : ... .. . P89 ... ... : ... .. 1 ... ... ... : --- .. . ... : ... .. 4 ... : ... .. . ... ... : ... .. . ... ... : ... .. . ... ... : ... .. . ... ...
ROW 88 : ... .. . P8B ... ... : ... .. . ... ... ... : ... .. . ... : ... .. 2 ... : ... .. . ... ... : ... .. . ... ... : ... .. . ... ... : ... .. . ... ...
ROW 89 : ... .. . P8A ... ... : ... .. . ... ... ... : ... .. . ... : ... .. 1 ... : ... .. . ... ... : ... .. . ... ... : ... .. . ... ... : ... .. . ... ...
ROW 8A : ... .. . P86 ... ... : ... .. . ... ... ... : ... .. . ... : ... .. 0 ... : ... .. . ... ... : ... .. . ... ... : ... .. . ... ... : ... .. . ... ...
ROW 8B : ... .. . P81 ... ... : ... .. . ... ... ... : ... .. . ... : ... .. . ... : ... .. . ... ... : ... .. . ... ... : ... .. . ... ... : ... .. . ... ...
ROW 8C : ... .. . P7D ... ... : D#4 00 D ... V00 ... : D#4 00 . ... : ... .. F ... : ... .. . ... ... : C-3 01 6 ... ... : ... .. 6 ... ... : D#3 01 7 ... ...
ROW 8D : ... .. . P78 ... ... : ... .. B ... ... ... : ... .. . ... : ... .. C ... : ... .. . ... ... : ... .. 5 ... ... : ... .. 5 ... ... : ... .. 6 ... ...
ROW 8E : ... .. . P75 ... ... : ... .. . ... ... ... : ... .. . ... : ... .. 6 ... : ... .. . ... ... : ... .. . ... ... : ... .. . ... ... : ... .. 3 ... ...
ROW 8F : ... .. . ... ... ... : ... .. A ... ... ... : ... .. . ... : ... .. 3 ... : ... .. . ... ... : ... .. 4 ... ... : ... .. 4 ... ... : ... .. . ... ...
ROW 90 : ... .. . P78 ... ... : ... .. 8 ... ... ... : ... .. . ... : ... .. 2 ... : ... .. . ... ... : ... .. . ... ... : ... .. . ... ... : ... .. . ... ...
ROW 91 : ... .. . P7D ... ... : ... .. 1 ... ... ... : ... .. . ... : ... .. 0 ... : ... .. . ... ... : ... .. . ... ... : ... .. . ... ... : ... .. . ... ...
ROW 92 : ... .. . P81 ... ... : ... .. . ... ... ... : ... .. . ... : ... .. . ... : ... .. . ... ... : ... .. . ... ... : ... .. . ... ... : ... .. . ... ...
ROW 93 : ... .. . P86 ... ... : ... .. . ... ... ... : ... .. . ... : ... .. . ... : ... .. . ... ... : ... .. 3 ... ... : ... .. 3 ... ... : ... .. . ... ...
ROW 94 : ... .. . P8A ... ... : ... .. . ... ... ... : ... .. . ... : ... .. . ... : ... .. . ... ... : ... .. 2 ... ... : ... .. 2 ... ... : ... .. . ... ...
ROW 95 : ... .. . P8B ... ... : ... .. . ... ... ... : ... .. . ... : ... .. . ... : ... .. . ... ... : ... .. . ... ... : ... .. . ... ... : ... .. . ... ...
ROW 96 : ... .. . P89 ... ... : ... .. 6 ... V02 ... : ... .. . ... : ... .. . ... : ... .. . ... ... : ... .. 1 ... ... : ... .. 1 ... ... : ... .. . ... ...
ROW 97 : ... .. . P85 ... ... : ... .. 5 ... ... ... : ... .. . ... : ... .. . ... : ... .. . ... ... : ... .. . ... ... : ... .. . ... ... : ... .. . ... ...
ROW 98 : ... .. . P80 ... ... : ... .. . ... ... ... : ... .. . ... : ... .. . ... : ... .. . ... ... : ... .. . ... ... : ... .. . ... ... : ... .. . ... ...
ROW 99 : ... .. . P7C ... ... : ... .. . ... ... ... : ... .. . ... : ... .. . ... : ... .. . ... ... : ... .. . ... ... : ... .. . ... ... : ... .. . ... ...
ROW 9A : ... .. . P77 ... ... : ... .. 4 ... ... ... : ... .. . ... : ... .. . ... : ... .. . ... ... : ... .. . ... ... : ... .. . ... ... : ... .. . ... ...
ROW 9B : ... .. . P75 ... ... : ... .. 1 ... ... ... : --- .. . ... : ... .. . ... : ... .. . ... ... : ... .. . ... ... : ... .. . ... ... : ... .. . ... ...
ROW 9C : ... .. . ... ... ... : ... .. . ... ... ... : ... .. . ... : ... .. . ... : ... .. . ... ... : ... .. . ... ... : ... .. . ... ... : ... .. . ... ...
ROW 9D : ... .. . P79 ... ... : ... .. . ... ... ... : ... .. . ... : ... .. . ... : ... .. . ... ... : ... .. . ... ... : ... .. . ... ... : ... .. . ... ...
ROW 9E : ... .. . P7E ... ... : ... .. . ... ... ... : ... .. . ... : ... .. . ... : ... .. . ... ... : ... .. . ... ... : ... .. . ... ... : ... .. . ... ...
ROW 9F : ... .. . P82 ... ... : ... .. . ... ... ... : ... .. . ... : ... .. . ... : ... .. . ... ... : ... .. . ... ... : ... .. . ... ... : ... .. . ... ...
ROW A0 : D-3 00 A P80 ... ... : C-4 00 D ... V00 ... : G-3 00 . ... : ... .. . ... : ... .. . ... ... : ... .. 6 ... ... : ... .. 6 ... ... : ... .. 4 ... ...
ROW A1 : ... .. 9 ... ... ... : ... .. B ... ... ... : ... .. . ... : ... .. . ... : ... .. . ... ... : ... .. 5 ... ... : ... .. 5 ... ... : ... .. . ... ...
ROW A2 : ... .. 8 ... ... ... : ... .. . ... ... ... : ... .. . ... : ... .. . ... : ... .. . ... ... : ... .. . ... ... : ... .. . ... ... : ... .. . ... ...
ROW A3 : ... .. 6 ... ... ... : ... .. A ... ... ... : ... .. . ... : ... .. . ... : ... .. . ... ... : ... .. 4 ... ... : ... .. 4 ... ... : ... .. . ... ...
ROW A4 : ... .. . ... ... ... : ... .. 8 ... ... ... : ... .. . ... : ... .. . ... : ... .. . ... ... : ... .. . ... ... : ... .. . ... ... : ... .. . ... ...
ROW A5 : ... .. . ... ... ... : ... .. 1 ... ... ... : ... .. . ... : ... .. . ... : ... .. . ... ... : ... .. . ... ... : ... .. . ... ... : ... .. . ... ...
ROW A6 : ... .. . ... ... ... : ... .. . ... ... ... : ... .. . ... : ... .. . ... : ... .. . ... ... : ... .. . ... ... : ... .. . ... ... : ... .. . ... ...
ROW A7 : ... .. . ... ... ... : ... .. . ... ... ... : ... .. . ... : ... .. . ... : ... .. . ... ... : ... .. 3 ... ... : ... .. 3 ... ... : ... .. . ... ...
ROW A8 : ... .. . ... ... ... : ... .. . ... ... ... : ... .. . ... : ... .. . ... : ... .. . ... ... : ... .. 2 ... ... : ... .. 2 ... ... : ... .. . ... ...
ROW A9 : ... .. . ... ... ... : ... .. . ... ... ... : ... .. . ... : ... .. . ... : ... .. . ... ... : ... .. . ... ... : ... .. . ... ... : ... .. . ... ...
ROW AA : C-3 00 B ... ... ... : ... .. 6 ... V02 ... : ... .. . ... : ... .. . ... : ... .. . ... ... : ... .. 1 ... ... : ... .. 1 ... ... : ... .. . ... ...
ROW AB : ... .. A ... ... ... : ... .. 5 ... ... ... : ... .. . ... : ... .. . ... : ... .. . ... ... : ... .. . ... ... : ... .. . ... ... : ... .. . ... ...
ROW AC : ... .. 9 ... ... ... : ... .. . ... ... ... : ... .. . ... : ... .. . ... : ... .. . ... ... : ... .. . ... ... : ... .. . ... ... : ... .. . ... ...
ROW AD : ... .. 7 ... ... ... : ... .. . ... ... ... : ... .. . ... : ... .. . ... : ... .. . ... ... : ... .. . ... ... : ... .. . ... ... : ... .. . ... ...
ROW AE : ... .. . ... ... ... : ... .. 4 ... ... ... : ... .. . ... : ... .. . ... : ... .. . ... ... : ... .. . ... ... : ... .. . ... ... : ... .. . ... ...
ROW AF : ... .. . ... ... ... : ... .. 1 ... ... ... : --- .. . ... : ... .. . ... : ... .. . ... ... : ... .. . ... ... : ... .. . ... ... : ... .. . ... ...
ROW B0 : ... .. . ... ... ... : ... .. . ... ... ... : ... .. . ... : ... .. . ... : ... .. . ... ... : ... .. . ... ... : ... .. . ... ... : ... .. . ... ...
ROW B1 : ... .. . ... ... ... : ... .. . ... ... ... : ... .. . ... : ... .. . ... : ... .. . ... ... : ... .. . ... ... : ... .. . ... ... : ... .. . ... ...
ROW B2 : ... .. . ... ... ... : ... .. . ... ... ... : ... .. . ... : ... .. . ... : ... .. . ... ... : ... .. . ... ... : ... .. . ... ... : ... .. . ... ...
ROW B3 : ... .. . ... ... ... : ... .. . ... ... ... : ... .. . ... : ... .. . ... : ... .. . ... ... : ... .. . ... ... : ... .. . ... ... : ... .. . ... ...
ROW B4 : B-2 00 B ... ... ... : ... .. 3 ... V00 ... : C-3 00 . ... : D-# 00 D V01 : ... .. . ... ... : D-3 01 6 ... ... : ... .. 6 ... ... : D-3 01 8 ... ...
ROW B5 : ... .. A ... ... ... : ... .. 2 ... ... ... : ... .. . ... : ... .. B ... : ... .. . ... ... : ... .. 5 ... ... : ... .. 5 ... ... : ... .. 6 ... ...
ROW B6 : ... .. 9 ... ... ... : ... .. . ... ... ... : ... .. . ... : ... .. . ... : ... .. . ... ... : ... .. . ... ... : ... .. . ... ... : ... .. 4 ... ...
ROW B7 : ... .. 7 ... ... ... : ... .. . ... ... ... : ... .. . ... : ... .. A ... : ... .. . ... ... : ... .. 4 ... ... : ... .. 4 ... ... : ... .. . ... ...
ROW B8 : ... .. . ... ... ... : ... .. . ... ... ... : ... .. . ... : ... .. 8 ... : ... .. . ... ... : ... .. . ... ... : ... .. . ... ... : ... .. . ... ...
ROW B9 : ... .. . ... ... ... : ... .. 1 ... ... ... : ... .. . ... : ... .. 7 ... : ... .. . ... ... : ... .. . ... ... : ... .. . ... ... : ... .. . ... ...
ROW BA : ... .. . ... ... ... : ... .. . ... ... ... : ... .. . ... : ... .. 6 ... : ... .. . ... ... : ... .. . ... ... : ... .. . ... ... : ... .. . ... ...
ROW BB : ... .. . ... ... ... : ... .. . ... ... ... : ... .. . ... : ... .. . ... : ... .. . ... ... : ... .. 3 ... ... : ... .. 3 ... ... : ... .. . ... ...
ROW BC : ... .. . ... ... ... : ... .. . ... ... ... : ... .. . ... : ... .. 5 ... : ... .. . ... ... : ... .. 2 ... ... : ... .. 2 ... ... : ... .. . ... ...
ROW BD : ... .. . ... ... ... : ... .. . ... ... ... : ... .. . ... : ... .. . ... : ... .. . ... ... : ... .. . ... ... : ... .. . ... ... : ... .. . ... ...
ROW BE : ... .. . ... ... ... : ... .. . ... V02 ... : ... .. . ... : ... .. 4 ... : ... .. . ... ... : ... .. 1 ... ... : ... .. 1 ... ... : ... .. . ... ...
ROW BF : ... .. . ... ... ... : ... .. . ... ... ... : ... .. . ... : ... .. . ... : ... .. . ... ... : ... .. . ... ... : ... .. . ... ... : ... .. . ... ...
ROW C0 : ... .. . ... ... ... : ... .. . ... ... ... : ... .. . ... : ... .. 3 ... : ... .. . ... ... : ... .. . ... ... : ... .. . ... ... : ... .. . ... ...
ROW C1 : ... .. . ... ... ... : ... .. . ... ... ... : ... .. . ... : ... .. 2 ... : ... .. . ... ... : ... .. . ... ... : ... .. . ... ... : ... .. . ... ...
ROW C2 : ... .. . ... ... ... : ... .. . ... ... ... : ... .. . ... : ... .. . ... : ... .. . ... ... : ... .. . ... ... : ... .. . ... ... : ... .. . ... ...
ROW C3 : ... .. 8 ... ... ... : ... .. . ... ... ... : --- .. . ... : ... .. 1 ... : ... .. . ... ... : ... .. . ... ... : ... .. . ... ... : ... .. . ... ...
ROW C4 : ... .. . ... ... ... : ... .. . ... ... ... : ... .. . ... : ... .. 0 ... : ... .. . ... ... : ... .. . ... ... : ... .. . ... ... : ... .. . ... ...
ROW C5 : ... .. . ... ... ... : ... .. . ... ... ... : ... .. . ... : ... .. . ... : ... .. . ... ... : ... .. . ... ... : ... .. . ... ... : ... .. . ... ...
ROW C6 : ... .. . ... ... ... : ... .. . ... ... ... : ... .. . ... : ... .. . ... : ... .. . ... ... : ... .. . ... ... : ... .. . ... ... : ... .. . ... ...
ROW C7 : ... .. . ... ... ... : ... .. . ... ... ... : ... .. . ... : ... .. . ... : ... .. . ... ... : ... .. . ... ... : ... .. . ... ... : ... .. . ... ...
ROW C8 : G-2 00 C ... ... ... : F-3 00 D ... V00 ... : D-4 00 . ... : 9-# 00 A V00 : ... .. . ... ... : ... .. 6 ... ... : ... .. 6 ... ... : ... .. . ... ...
ROW C9 : ... .. B ... ... ... : ... .. B ... ... ... : ... .. . ... : ... .. 8 ... : ... .. . ... ... : ... .. 5 ... ... : ... .. 5 ... ... : ... .. . ... ...
ROW CA : ... .. A ... ... ... : ... .. . ... ... ... : ... .. . ... : ... .. 4 ... : ... .. . ... ... : ... .. . ... ... : ... .. . ... ... : ... .. . ... ...
ROW CB : ... .. 8 ... ... ... : ... .. A ... ... ... : ... .. . ... : ... .. 2 ... : ... .. . ... ... : ... .. 4 ... ... : ... .. 4 ... ... : ... .. . ... ...
ROW CC : ... .. . ... ... ... : ... .. 8 ... ... ... : ... .. . ... : ... .. 1 ... : ... .. . ... ... : ... .. . ... ... : ... .. . ... ... : ... .. . ... ...
ROW CD : ... .. . ... ... ... : ... .. 1 ... ... ... : ... .. . ... : ... .. 0 ... : ... .. . ... ... : ... .. . ... ... : ... .. . ... ... : ... .. . ... ...
ROW CE : ... .. . ... ... ... : ... .. . ... ... ... : ... .. . ... : ... .. . ... : ... .. . ... ... : ... .. . ... ... : ... .. . ... ... : ... .. . ... ...
ROW CF : ... .. . ... ... ... : ... .. . ... ... ... : ... .. . ... : ... .. . ... : ... .. . ... ... : ... .. 3 ... ... : ... .. 3 ... ... : ... .. . ... ...
ROW D0 : ... .. . ... ... ... : ... .. . ... ... ... : ... .. . ... : ... .. . ... : ... .. . ... ... : ... .. 2 ... ... : ... .. 2 ... ... : ... .. . ... ...
ROW D1 : ... .. . ... ... ... : ... .. . ... ... ... : ... .. . ... : ... .. . ... : ... .. . ... ... : ... .. . ... ... : ... .. . ... ... : ... .. . ... ...
ROW D2 : ... .. . ... ... ... : ... .. 6 ... V02 ... : ... .. . ... : ... .. 8 ... : ... .. . ... ... : ... .. 1 ... ... : ... .. 1 ... ... : ... .. . ... ...
ROW D3 : ... .. 1 ... ... ... : ... .. 5 ... ... ... : ... .. . ... : ... .. 6 ... : ... .. . ... ... : ... .. . ... ... : ... .. . ... ... : ... .. . ... ...
ROW D4 : ... .. . ... ... ... : ... .. . ... ... ... : ... .. . ... : ... .. 3 ... : ... .. . ... ... : ... .. . ... ... : ... .. . ... ... : ... .. . ... ...
ROW D5 : ... .. . ... ... ... : ... .. . ... ... ... : ... .. . ... : ... .. 1 ... : ... .. . ... ... : ... .. . ... ... : ... .. . ... ... : ... .. . ... ...
ROW D6 : ... .. . ... ... ... : ... .. 4 ... ... ... : ... .. . ... : ... .. . ... : ... .. . ... ... : ... .. . ... ... : ... .. . ... ... : ... .. . ... ...
ROW D7 : ... .. . ... ... ... : ... .. 1 ... ... ... : --- .. . ... : ... .. 0 ... : ... .. . ... ... : ... .. . ... ... : ... .. . ... ... : ... .. . ... ...
ROW D8 : ... .. . ... ... ... : ... .. . ... ... ... : ... .. . ... : ... .. . ... : ... .. . ... ... : ... .. . ... ... : ... .. . ... ... : ... .. . ... ...
ROW D9 : ... .. 0 ... V00 ... : ... .. . ... ... ... : ... .. . ... : ... .. . ... : ... .. . ... ... : ... .. . ... ... : ... .. . ... ... : ... .. . ... ...
ROW DA : ... .. . ... ... ... : ... .. . ... ... ... : ... .. . ... : ... .. . ... : ... .. . ... ... : ... .. . ... ... : ... .. . ... ... : ... .. . ... ...
ROW DB : ... .. . ... ... ... : ... .. . ... ... ... : ... .. . ... : ... .. . ... : ... .. . ... ... : ... .. . ... ... : ... .. . ... ... : ... .. . ... ...
ROW DC : B-2 00 D P80 V01 ... : ... .. D ... V00 ... : D-4 00 . ... : ... .. F ... : ... .. . ... ... : C-3 01 6 ... ... : ... .. 6 ... ... : C-3 01 9 ... ...
ROW DD : ... .. C ... ... ... : ... .. B ... ... ... : ... .. . ... : ... .. C ... : ... .. . ... ... : ... .. 5 ... ... : ... .. 5 ... ... : ... .. 7 ... ...
ROW DE : ... .. B ... ... ... : ... .. . ... ... ... : ... .. . ... : ... .. 6 ... : ... .. . ... ... : ... .. . ... ... : ... .. . ... ... : ... .. 4 ... ...
ROW DF : ... .. 8 ... ... ... : ... .. A ... ... ... : ... .. . ... : ... .. 3 ... : ... .. . ... ... : ... .. 4 ... ... : ... .. 4 ... ... : ... .. . ... ...
ROW E0 : ... .. . ... ... ... : ... .. 8 ... ... ... : ... .. . ... : ... .. 2 ... : ... .. . ... ... : ... .. . ... ... : ... .. . ... ... : ... .. . ... ...
ROW E1 : ... .. . ... ... ... : ... .. 1 ... ... ... : ... .. . ... : ... .. 0 ... : ... .. . ... ... : ... .. . ... ... : ... .. . ... ... : ... .. . ... ...
ROW E2 : ... .. . ... ... ... : ... .. . ... ... ... : ... .. . ... : ... .. . ... : ... .. . ... ... : ... .. . ... ... : ... .. . ... ... : ... .. . ... ...
ROW E3 : ... .. . ... ... ... : ... .. . ... ... ... : ... .. . ... : ... .. . ... : ... .. . ... ... : ... .. 3 ... ... : ... .. 3 ... ... : ... .. . ... ...
ROW E4 : ... .. . ... ... ... : ... .. . ... ... ... : ... .. . ... : ... .. . ... : ... .. . ... ... : ... .. 2 ... ... : ... .. 2 ... ... : ... .. . ... ...
ROW E5 : ... .. . ... ... ... : ... .. . ... ... ... : ... .. . ... : ... .. . ... : ... .. . ... ... : ... .. . ... ... : ... .. . ... ... : ... .. . ... ...
ROW E6 : ... .. . ... ... ... : ... .. 6 ... V02 ... : ... .. . ... : ... .. . ... : ... .. . ... ... : ... .. 1 ... ... : ... .. 1 ... ... : ... .. . ... ...
ROW E7 : ... .. . ... ... ... : ... .. 5 ... ... ... : ... .. . ... : ... .. . ... : ... .. . ... ... : ... .. . ... ... : ... .. . ... ... : ... .. . ... ...
ROW E8 : ... .. . ... ... ... : ... .. . ... ... ... : ... .. . ... : ... .. . ... : ... .. . ... ... : ... .. . ... ... : ... .. . ... ... : ... .. . ... ...
ROW E9 : ... .. . ... ... ... : ... .. . ... ... ... : ... .. . ... : ... .. . ... : ... .. . ... ... : ... .. . ... ... : ... .. . ... ... : ... .. . ... ...
ROW EA : ... .. . ... ... ... : ... .. 4 ... ... ... : ... .. . ... : ... .. . ... : ... .. . ... ... : ... .. . ... ... : ... .. . ... ... : ... .. . ... ...
ROW EB : ... .. . ... ... ... : ... .. 1 ... ... ... : --- .. . ... : ... .. . ... : ... .. . ... ... : ... .. . ... ... : ... .. . ... ... : ... .. . ... ...
ROW EC : ... .. . ... ... ... : ... .. . ... ... ... : ... .. . ... : ... .. . ... : ... .. . ... ... : ... .. . ... ... : ... .. . ... ... : ... .. . ... ...
ROW ED : ... .. . ... ... ... : ... .. . ... ... ... : ... .. . ... : ... .. . ... : ... .. . ... ... : ... .. . ... ... : ... .. . ... ... : ... .. . ... ...
ROW EE : ... .. . ... ... ... : ... .. . ... ... ... : ... .. . ... : ... .. . ... : ... .. . ... ... : ... .. . ... ... : ... .. . ... ... : ... .. . ... ...
ROW EF : ... .. . ... ... ... : ... .. . ... ... ... : ... .. . ... : ... .. . ... : ... .. . ... ... : ... .. . ... ... : ... .. . ... ... : ... .. . ... ...
ROW F0 : D-3 00 E ... ... ... : C-4 00 D ... V00 ... : G-3 00 . ... : D-# 00 F ... : ... .. . ... ... : ... .. 6 ... ... : ... .. 6 ... ... : ... .. . ... ...
ROW F1 : ... .. D ... ... ... : ... .. B ... ... ... : ... .. . ... : ... .. C ... : ... .. . ... ... : ... .. 5 ... ... : ... .. 5 ... ... : ... .. . ... ...
ROW F2 : ... .. C ... ... ... : ... .. . ... ... ... : ... .. . ... : ... .. 6 ... : ... .. . ... ... : ... .. . ... ... : ... .. . ... ... : ... .. . ... ...
ROW F3 : ... .. 9 ... ... ... : ... .. A ... ... ... : ... .. . ... : ... .. 3 ... : ... .. . ... ... : ... .. 4 ... ... : ... .. 4 ... ... : ... .. . ... ...
ROW F4 : ... .. . ... ... ... : ... .. 8 ... ... ... : ... .. . ... : ... .. 2 ... : ... .. . ... ... : ... .. . ... ... : ... .. . ... ... : ... .. . ... ...
ROW F5 : ... .. . ... ... ... : ... .. 1 ... ... ... : ... .. . ... : ... .. 0 ... : ... .. . ... ... : ... .. . ... ... : ... .. . ... ... : ... .. . ... ...
ROW F6 : ... .. . ... ... ... : ... .. . ... ... ... : ... .. . ... : ... .. . ... : ... .. . ... ... : ... .. . ... ... : ... .. . ... ... : ... .. . ... ...
ROW F7 : ... .. . ... ... ... : ... .. . ... ... ... : ... .. . ... : ... .. . ... : ... .. . ... ... : ... .. 3 ... ... : ... .. 3 ... ... : ... .. . ... ...
ROW F8 : ... .. . ... ... ... : ... .. . ... ... ... : ... .. . ... : ... .. . ... : ... .. . ... ... : ... .. 2 ... ... : ... .. 2 ... ... : ... .. . ... ...
ROW F9 : ... .. . ... ... ... : ... .. . ... ... ... : ... .. . ... : ... .. . ... : ... .. . ... ... : ... .. . ... ... : ... .. . ... ... : ... .. . ... ...
ROW FA : ... .. . ... ... ... : ... .. 6 ... V02 ... : ... .. . ... : ... .. . ... : ... .. . ... ... : ... .. 1 ... ... : ... .. 1 ... ... : ... .. 5 ... ...
ROW FB : ... .. 1 ... ... ... : ... .. 5 ... ... ... : ... .. . ... : ... .. . ... : ... .. . ... ... : ... .. . ... ... : ... .. . ... ... : ... .. . ... ...
ROW FC : ... .. . ... ... ... : ... .. . ... ... ... : ... .. . ... : ... .. . ... : ... .. . ... ... : ... .. . ... ... : ... .. . ... ... : ... .. . ... ...
ROW FD : ... .. . ... ... ... : ... .. . ... ... ... : ... .. . ... : ... .. . ... : ... .. . ... ... : ... .. . ... ... : ... .. . ... ... : ... .. . ... ...
ROW FE : ... .. . ... ... ... : ... .. 4 ... ... ... : ... .. . ... : ... .. . ... : ... .. . ... ... : ... .. . ... ... : ... .. . ... ... : ... .. . ... ...
ROW FF : ... .. . ... ... ... : ... .. 1 ... ... ... : --- .. . ... : ... .. . ... : ... .. . ... ... : ... .. . ... ... : ... .. . ... ... : ... .. . ... ...

PATTERN 1A
ROW 00 : ... .. . ... ... ... : ... .. . ... ... ... : ... .. . ... : ... .. . ... : ... .. . ... ... : ... .. . ... ... : ... .. . ... ... : ... .. . ... ...
ROW 01 : ... .. 0 ... V00 ... : ... .. . ... ... ... : ... .. . ... : ... .. . ... : ... .. . ... ... : ... .. . ... ... : ... .. . ... ... : ... .. . ... ...
ROW 02 : ... .. . ... ... ... : ... .. . ... ... ... : ... .. . ... : ... .. . ... : ... .. . ... ... : ... .. . ... ... : ... .. . ... ... : ... .. . ... ...
ROW 03 : ... .. . ... ... ... : ... .. . ... ... ... : ... .. . ... : ... .. . ... : ... .. . ... ... : ... .. . ... ... : ... .. . ... ... : ... .. . ... ...
ROW 04 : F-3 00 F P80 V01 ... : ... .. D ... V00 ... : C-3 00 . ... : ... .. D ... : ... .. . ... ... : D-3 01 6 ... ... : ... .. 6 ... ... : ... .. A ... ...
ROW 05 : ... .. E ... ... ... : ... .. B ... ... ... : ... .. . ... : ... .. B ... : ... .. . ... ... : ... .. 5 ... ... : ... .. 5 ... ... : ... .. 8 ... ...
ROW 06 : ... .. D ... ... ... : ... .. . ... ... ... : ... .. . ... : ... .. . ... : ... .. . ... ... : ... .. . ... ... : ... .. . ... ... : ... .. 5 ... ...
ROW 07 : ... .. A ... ... ... : ... .. A ... ... ... : ... .. . ... : ... .. A ... : ... .. . ... ... : ... .. 4 ... ... : ... .. 4 ... ... : ... .. . ... ...
ROW 08 : ... .. . ... ... ... : ... .. 8 ... ... ... : ... .. . ... : ... .. 8 ... : ... .. . ... ... : ... .. . ... ... : ... .. . ... ... : ... .. . ... ...
ROW 09 : ... .. . ... ... ... : ... .. 1 ... ... ... : ... .. . ... : ... .. 7 ... : ... .. . ... ... : ... .. . ... ... : ... .. . ... ... : ... .. . ... ...
ROW 0A : ... .. . ... ... ... : ... .. . ... ... ... : ... .. . ... : ... .. 6 ... : ... .. . ... ... : ... .. . ... ... : ... .. . ... ... : ... .. . ... ...
ROW 0B : ... .. . ... ... ... : ... .. . ... ... ... : ... .. . ... : ... .. . ... : ... .. . ... ... : ... .. 3 ... ... : ... .. 3 ... ... : ... .. . ... ...
ROW 0C : ... .. . ... ... ... : ... .. . ... ... ... : ... .. . ... : ... .. 5 ... : ... .. . ... ... : ... .. 2 ... ... : ... .. 2 ... ... : ... .. . ... ...
ROW 0D : ... .. . ... ... ... : ... .. . ... ... ... : ... .. . ... : ... .. . ... : ... .. . ... ... : ... .. . ... ... : ... .. . ... ... : ... .. . ... ...
ROW 0E : ... .. . ... ... ... : ... .. 6 ... V02 ... : ... .. . ... : ... .. 4 ... : ... .. . ... ... : ... .. 1 ... ... : ... .. 1 ... ... : ... .. . ... ...
ROW 0F : ... .. . ... ... ... : ... .. 5 ... ... ... : ... .. . ... : ... .. . ... : ... .. . ... ... : ... .. . ... ... : ... .. . ... ... : ... .. . ... ...
ROW 10 : ... .. . ... ... ... : ... .. . ... ... ... : ... .. . ... : ... .. 3 ... : ... .. . ... ... : ... .. . ... ... : ... .. . ... ... : ... .. . ... ...
ROW 11 : ... .. . ... ... ... : ... .. . ... ... ... : ... .. . ... : ... .. 2 ... : ... .. . ... ... : ... .. . ... ... : ... .. . ... ... : ... .. . ... ...
ROW 12 : ... .. . ... ... ... : ... .. 4 ... ... ... : ... .. . ... : ... .. . ... : ... .. . ... ... : ... .. . ... ... : ... .. . ... ... : ... .. . ... ...
ROW 13 : ... .. . ... ... ... : ... .. 1 ... ... ... : --- .. . ... : ... .. 1 ... : ... .. . ... ... : ... .. . ... ... : ... .. . ... ... : ... .. . ... ...
ROW 14 : ... .. . ... ... ... : ... .. . ... ... ... : ... .. . ... : ... .. 0 ... : ... .. . ... ... : ... .. . ... ... : ... .. . ... ... : ... .. . ... ...
ROW 15 : ... .. . ... ... ... : ... .. . ... ... ... : ... .. . ... : ... .. . ... : ... .. . ... ... : ... .. . ... ... : ... .. . ... ... : ... .. . ... ...
ROW 16 : ... .. . ... ... ... : ... .. . ... ... ... : ... .. . ... : ... .. . ... : ... .. . ... ... : ... .. . ... ... : ... .. . ... ... : ... .. . ... ...
ROW 17 : ... .. . ... ... ... : ... .. . ... ... ... : ... .. . ... : ... .. . ... : ... .. . ... ... : ... .. . ... ... : ... .. . ... ... : ... .. . ... ...
ROW 18 : D#3 00 F ... ... ... : B-3 00 D ... V00 ... : D-4 00 . ... : 9-# 00 A ... : ... .. . ... ... : ... .. 6 ... ... : ... .. 6 ... ... : ... .. . ... ...
ROW 19 : ... .. E ... ... ... : ... .. B ... ... ... : ... .. . ... : ... .. 8 ... : ... .. . ... ... : ... .. 5 ... ... : ... .. 5 ... ... : ... .. . ... ...
ROW 1A : ... .. D ... ... ... : ... .. . ... ... ... : ... .. . ... : ... .. 4 ... : ... .. . ... ... : ... .. . ... ... : ... .. . ... ... : ... .. . ... ...
ROW 1B : ... .. A ... ... ... : ... .. A ... ... ... : ... .. . ... : ... .. 2 ... : ... .. . ... ... : ... .. 4 ... ... : ... .. 4 ... ... : ... .. . ... ...
ROW 1C : ... .. . ... ... ... : ... .. 8 ... ... ... : ... .. . ... : ... .. 1 ... : ... .. . ... ... : ... .. . ... ... : ... .. . ... ... : ... .. . ... ...
ROW 1D : ... .. . ... ... ... : ... .. 1 ... ... ... : ... .. . ... : ... .. 0 ... : ... .. . ... ... : ... .. . ... ... : ... .. . ... ... : ... .. . ... ...
ROW 1E : ... .. . ... ... ... : ... .. . ... ... ... : ... .. . ... : ... .. . ... : ... .. . ... ... : ... .. . ... ... : ... .. . ... ... : ... .. . ... ...
ROW 1F : ... .. . ... ... ... : ... .. . ... ... ... : ... .. . ... : ... .. . ... : ... .. . ... ... : ... .. 3 ... ... : ... .. 3 ... ... : ... .. . ... ...
ROW 20 : ... .. . ... ... ... : ... .. . ... ... ... : ... .. . ... : ... .. . ... : ... .. . ... ... : ... .. 2 ... ... : ... .. 2 ... ... : ... .. . ... ...
ROW 21 : ... .. . ... ... ... : ... .. . ... ... ... : ... .. . ... : ... .. . ... : ... .. . ... ... : ... .. . ... ... : ... .. . ... ... : ... .. . ... ...
ROW 22 : F-3 00 F ... ... ... : A-3 00 D ... V02 ... : ... .. . ... : ... .. 8 ... : ... .. . ... ... : ... .. 1 ... ... : ... .. 1 ... ... : ... .. . ... ...
ROW 23 : ... .. E ... ... ... : ... .. B ... ... ... : ... .. . ... : ... .. 6 ... : ... .. . ... ... : ... .. . ... ... : ... .. . ... ... : ... .. . ... ...
ROW 24 : ... .. D ... ... ... : ... .. . ... ... ... : ... .. . ... : ... .. 3 ... : ... .. . ... ... : ... .. . ... ... : ... .. . ... ... : ... .. . ... ...
ROW 25 : ... .. A ... ... ... : ... .. A ... ... ... : ... .. . ... : ... .. 1 ... : ... .. . ... ... : ... .. . ... ... : ... .. . ... ... : ... .. . ... ...
ROW 26 : ... .. . ... ... ... : ... .. 8 ... ... ... : ... .. . ... : ... .. . ... : ... .. . ... ... : ... .. . ... ... : ... .. . ... ... : ... .. . ... ...
ROW 27 : D#3 00 F ... ... ... : ... .. 1 ... ... ... : --- .. . ... : ... .. 0 ... : ... .. . ... ... : ... .. . ... ... : ... .. . ... ... : ... .. . ... ...
ROW 28 : ... .. E ... ... ... : ... .. . ... ... ... : ... .. . ... : ... .. . ... : ... .. . ... ... : ... .. . ... ... : ... .. . ... ... : ... .. . ... ...
ROW 29 : ... .. D ... ... ... : ... .. . ... ... ... : ... .. . ... : ... .. . ... : ... .. . ... ... : ... .. . ... ... : ... .. . ... ... : ... .. . ... ...
ROW 2A : ... .. A ... ... ... : ... .. . ... ... ... : ... .. . ... : ... .. . ... : ... .. . ... ... : ... .. . ... ... : ... .. . ... ... : ... .. . ... ...
ROW 2B : ... .. . ... ... ... : ... .. . ... ... ... : ... .. . ... : ... .. . ... : ... .. . ... ... : ... .. . ... ... : ... .. . ... ... : ... .. . ... ...
ROW 2C : D-3 00 F ... ... ... : B-3 00 D ... V00 ... : D-4 00 . ... : ... .. F ... : ... .. . ... ... : B-2 01 6 ... ... : ... .. 6 ... ... : B-2 01 B ... ...
ROW 2D : ... .. E ... ... ... : ... .. B ... ... ... : ... .. . ... : ... .. C ... : ... .. . ... ... : ... .. 5 ... ... : ... .. 5 ... ... : ... .. 9 ... ...
ROW 2E : ... .. D ... ... ... : ... .. . ... ... ... : ... .. . ... : ... .. 6 ... : ... .. . ... ... : ... .. . ... ... : ... .. . ... ... : ... .. 5 ... ...
ROW 2F : ... .. A ... ... ... : ... .. A ... ... ... : ... .. . ... : ... .. 3 ... : ... .. . ... ... : ... .. 4 ... ... : ... .. 4 ... ... : ... .. . ... ...
ROW 30 : ... .. . ... ... ... : ... .. 8 ... ... ... : ... .. . ... : ... .. 2 ... : ... .. . ... ... : ... .. . ... ... : ... .. . ... ... : ... .. . ... ...
ROW 31 : ... .. . ... ... ... : ... .. 1 ... ... ... : ... .. . ... : ... .. 0 ... : ... .. . ... ... : ... .. . ... ... : ... .. . ... ... : ... .. . ... ...
ROW 32 : ... .. . ... ... ... : ... .. . ... ... ... : ... .. . ... : ... .. . ... : ... .. . ... ... : ... .. . ... ... : ... .. . ... ... : ... .. . ... ...
ROW 33 : ... .. . ... ... ... : ... .. . ... ... ... : ... .. . ... : ... .. . ... : ... .. . ... ... : ... .. 3 ... ... : ... .. 3 ... ... : ... .. . ... ...
ROW 34 : ... .. . ... ... ... : ... .. . ... ... ... : ... .. . ... : ... .. . ... : ... .. . ... ... : ... .. 2 ... ... : ... .. 2 ... ... : ... .. . ... ...
ROW 35 : ... .. . ... ... ... : ... .. . ... ... ... : ... .. . ... : ... .. . ... : ... .. . ... ... : ... .. . ... ... : ... .. . ... ... : ... .. . ... ...
ROW 36 : ... .. . ... ... ... : ... .. 6 ... V02 ... : ... .. . ... : ... .. . ... : ... .. . ... ... : ... .. 1 ... ... : ... .. 1 ... ... : ... .. . ... ...
ROW 37 : ... .. . ... ... ... : ... .. 5 ... ... ... : ... .. . ... : ... .. . ... : ... .. . ... ... : ... .. . ... ... : ... .. . ... ... : ... .. . ... ...
ROW 38 : ... .. . ... ... ... : ... .. . ... ... ... : ... .. . ... : ... .. . ... : ... .. . ... ... : ... .. . ... ... : ... .. . ... ... : ... .. . ... ...
ROW 39 : ... .. . ... ... ... : ... .. . ... ... ... : ... .. . ... : ... .. . ... : ... .. . ... ... : ... .. . ... ... : ... .. . ... ... : ... .. . ... ...
ROW 3A : ... .. . ... ... ... : ... .. 4 ... ... ... : ... .. . ... : ... .. . ... : ... .. . ... ... : ... .. . ... ... : ... .. . ... ... : ... .. . ... ...
ROW 3B : ... .. . ... ... ... : ... .. 1 ... ... ... : --- .. . ... : ... .. . ... : ... .. . ... ... : ... .. . ... ... : ... .. . ... ... : ... .. . ... ...
ROW 3C : ... .. . ... ... ... : ... .. . ... ... ... : ... .. . ... : ... .. . ... : ... .. . ... ... : ... .. . ... ... : ... .. . ... ... : ... .. . ... ...
ROW 3D : ... .. . ... ... ... : ... .. . ... ... ... : ... .. . ... : ... .. . ... : ... .. . ... ... : ... .. . ... ... : ... .. . ... ... : ... .. . ... ...
ROW 3E : ... .. . ... ... ... : ... .. . ... ... ... : ... .. . ... : ... .. . ... : ... .. . ... ... : ... .. . ... ... : ... .. . ... ... : ... .. . ... ...
ROW 3F : ... .. . ... ... ... : ... .. . ... ... ... : ... .. . ... : ... .. . ... : ... .. . ... ... : ... .. . ... ... : ... .. . ... ... : ... .. . ... ...
ROW 40 : B-2 00 F ... ... ... : ... .. 3 ... V00 ... : G-3 00 . ... : ... .. . ... : ... .. . ... ... : ... .. 6 ... ... : ... .. 6 ... ... : ... .. . ... ...
ROW 41 : ... .. E ... ... ... : ... .. 2 ... ... ... : ... .. . ... : ... .. . ... : ... .. . ... ... : ... .. 5 ... ... : ... .. 5 ... ... : ... .. . ... ...
ROW 42 : ... .. D ... ... ... : ... .. . ... ... ... : ... .. . ... : ... .. . ... : ... .. . ... ... : ... .. . ... ... : ... .. . ... ... : ... .. . ... ...
ROW 43 : ... .. A ... ... ... : ... .. . ... ... ... : ... .. . ... : ... .. . ... : ... .. . ... ... : ... .. 4 ... ... : ... .. 4 ... ... : ... .. . ... ...
ROW 44 : ... .. . ... ... ... : ... .. . ... ... ... : ... .. . ... : ... .. . ... : ... .. . ... ... : ... .. . ... ... : ... .. . ... ... : ... .. . ... ...
ROW 45 : ... .. . ... ... ... : ... .. 1 ... ... ... : ... .. . ... : ... .. . ... : ... .. . ... ... : ... .. . ... ... : ... .. . ... ... : ... .. . ... ...
ROW 46 : ... .. . ... ... ... : ... .. . ... ... ... : ... .. . ... : ... .. . ... : ... .. . ... ... : ... .. . ... ... : ... .. . ... ... : ... .. . ... ...
ROW 47 : ... .. . ... ... ... : ... .. . ... ... ... : ... .. . ... : ... .. . ... : ... .. . ... ... : ... .. 3 ... ... : ... .. 3 ... ... : ... .. . ... ...
ROW 48 : ... .. . ... ... ... : ... .. . ... ... ... : ... .. . ... : ... .. . ... : ... .. . ... ... : ... .. 2 ... ... : ... .. 2 ... ... : ... .. . ... ...
ROW 49 : ... .. . ... ... ... : ... .. . ... ... ... : ... .. . ... : ... .. . ... : ... .. . ... ... : ... .. . ... ... : ... .. . ... ... : ... .. . ... ...
ROW 4A : ... .. . ... ... ... : ... .. . ... V02 ... : ... .. . ... : ... .. . ... : ... .. . ... ... : ... .. 1 ... ... : ... .. 1 ... ... : ... .. . ... ...
ROW 4B : ... .. 2 ... ... ... : ... .. . ... ... ... : ... .. . ... : ... .. . ... : ... .. . ... ... : ... .. . ... ... : ... .. . ... ... : ... .. . ... ...
ROW 4C : ... .. . ... ... ... : ... .. . ... ... ... : ... .. . ... : ... .. . ... : ... .. . ... ... : ... .. . ... ... : ... .. . ... ... : ... .. . ... ...
ROW 4D : ... .. . ... ... ... : ... .. . ... ... ... : ... .. . ... : ... .. . ... : ... .. . ... ... : ... .. . ... ... : ... .. . ... ... : ... .. . ... ...
ROW 4E : ... .. 1 ... ... ... : ... .. . ... ... ... : ... .. . ... : ... .. . ... : ... .. . ... ... : ... .. . ... ... : ... .. . ... ... : ... .. . ... ...
ROW 4F : ... .. . ... ... ... : ... .. . ... ... ... : --- .. . ... : ... .. . ... : ... .. . ... ... : ... .. . ... ... : ... .. . ... ... : ... .. . ... ...
ROW 50 : ... .. . ... ... ... : ... .. . ... ... ... : ... .. . ... : ... .. . ... : ... .. . ... ... : ... .. . ... ... : ... .. . ... ... : ... .. . ... ...
ROW 51 : ... .. 0 ... V00 ... : ... .. . ... ... ... : ... .. . ... : ... .. . ... : ... .. . ... ... : ... .. . ... ... : ... .. . ... ... : ... .. . ... ...
ROW 52 : ... .. . ... ... ... : ... .. . ... ... ... : ... .. . ... : ... .. . ... : ... .. . ... ... : ... .. . ... ... : ... .. . ... ... : ... .. . ... ...
ROW 53 : ... .. . ... ... ... : ... .. . ... ... ... : ... .. . ... : ... .. . ... : ... .. . ... ... : ... .. . ... ... : ... .. . ... ... : ... .. . ... ...
ROW 54 : ... .. . ... ... ... : ... .. 0 ... V00 ... : C-3 00 . ... : D-# 00 D V01 : ... .. . ... ... : D#3 01 6 ... ... : ... .. 6 ... ... : C-3 01 C ... ...
ROW 55 : ... .. . ... ... ... : ... .. . ... ... ... : ... .. . ... : ... .. B ... : ... .. . ... ... : ... .. 5 ... ... : ... .. 5 ... ... : ... .. A ... ...
ROW 56 : ... .. . ... ... ... : ... .. . ... ... ... : ... .. . ... : ... .. . ... : ... .. . ... ... : ... .. . ... ... : ... .. . ... ... : ... .. 6 ... ...
ROW 57 : D#3 00 F P80 V01 ... : ... .. . ... ... ... : ... .. . ... : ... .. A ... : ... .. . ... ... : ... .. 4 ... ... : ... .. 4 ... ... : ... .. . ... ...
ROW 58 : ... .. E ... ... ... : ... .. . ... ... ... : ... .. . ... : ... .. 8 ... : ... .. . ... ... : ... .. . ... ... : ... .. . ... ... : ... .. . ... ...
ROW 59 : D-3 00 F ... ... ... : ... .. . ... ... ... : ... .. . ... : ... .. 7 ... : ... .. . ... ... : ... .. . ... ... : ... .. . ... ... : ... .. 5 ... ...
ROW 5A : ... .. E ... ... ... : ... .. . ... ... ... : ... .. . ... : ... .. 6 ... : ... .. . ... ... : ... .. . ... ... : ... .. . ... ... : ... .. . ... ...
ROW 5B : ... .. D ... ... ... : ... .. . ... ... ... : ... .. . ... : ... .. . ... : ... .. . ... ... : ... .. 3 ... ... : ... .. 3 ... ... : ... .. . ... ...
ROW 5C : ... .. A ... ... ... : ... .. . ... ... ... : ... .. . ... : ... .. 5 ... : ... .. . ... ... : ... .. 2 ... ... : ... .. 2 ... ... : ... .. . ... ...
ROW 5D : ... .. . ... ... ... : ... .. . ... ... ... : ... .. . ... : ... .. . ... : ... .. . ... ... : ... .. . ... ... : ... .. . ... ... : ... .. . ... ...
ROW 5E : ... .. . ... ... ... : ... .. . ... ... ... : ... .. . ... : ... .. 4 ... : ... .. . ... ... : ... .. 1 ... ... : ... .. 1 ... ... : ... .. . ... ...
ROW 5F : ... .. . ... ... ... : ... .. . ... ... ... : ... .. . ... : ... .. . ... : ... .. . ... ... : ... .. . ... ... : ... .. . ... ... : ... .. . ... ...
ROW 60 : ... .. . ... ... ... : ... .. . ... ... ... : ... .. . ... : ... .. 3 ... : ... .. . ... ... : ... .. . ... ... : ... .. . ... ... : ... .. . ... ...
ROW 61 : ... .. . ... ... ... : ... .. . ... ... ... : ... .. . ... : ... .. 2 ... : ... .. . ... ... : ... .. . ... ... : ... .. . ... ... : ... .. . ... ...
ROW 62 : ... .. . ... ... ... : ... .. . ... ... ... : ... .. . ... : ... .. . ... : ... .. . ... ... : ... .. . ... ... : ... .. . ... ... : ... .. . ... ...
ROW 63 : ... .. . ... ... ... : ... .. . ... ... ... : --- .. . ... : ... .. 1 ... : ... .. . ... ... : ... .. . ... ... : ... .. . ... ... : ... .. . ... ...
ROW 64 : ... .. . ... ... ... : ... .. . ... ... ... : ... .. . ... : ... .. 0 ... : ... .. . ... ... : ... .. . ... ... : ... .. . ... ... : ... .. . ... ...
ROW 65 : ... .. . ... ... ... : ... .. . ... ... ... : ... .. . ... : ... .. . ... : ... .. . ... ... : ... .. . ... ... : ... .. . ... ... : ... .. . ... ...
ROW 66 : ... .. . ... ... ... : ... .. . ... ... ... : ... .. . ... : ... .. . ... : ... .. . ... ... : ... .. . ... ... : ... .. . ... ... : ... .. . ... ...
ROW 67 : ... .. . ... ... ... : ... .. . ... ... ... : ... .. . ... : ... .. . ... : ... .. . ... ... : ... .. . ... ... : ... .. . ... ... : ... .. . ... ...
ROW 68 : ... .. . ... ... ... : G-3 00 D P80 ... ... : D#4 00 . ... : 9-# 00 A V00 : ... .. . ... ... : ... .. 6 ... ... : ... .. 6 ... ... : ... .. . ... ...
ROW 69 : ... .. . ... ... ... : ... .. B ... ... ... : ... .. . ... : ... .. 8 ... : ... .. . ... ... : ... .. 5 ... ... : ... .. 5 ... ... : ... .. . ... ...
ROW 6A : ... .. . ... ... ... : ... .. . ... ... ... : ... .. . ... : ... .. 4 ... : ... .. . ... ... : ... .. . ... ... : ... .. . ... ... : ... .. . ... ...
ROW 6B : ... .. . ... ... ... : ... .. A ... ... ... : ... .. . ... : ... .. 2 ... : ... .. . ... ... : ... .. 4 ... ... : ... .. 4 ... ... : ... .. . ... ...
ROW 6C : ... .. . ... ... ... : ... .. 8 ... ... ... : ... .. . ... : ... .. 1 ... : ... .. . ... ... : ... .. . ... ... : ... .. . ... ... : ... .. . ... ...
ROW 6D : ... .. . ... ... ... : ... .. 1 ... ... ... : ... .. . ... : ... .. 0 ... : ... .. . ... ... : ... .. . ... ... : ... .. . ... ... : ... .. . ... ...
ROW 6E : ... .. . ... ... ... : ... .. . ... ... ... : ... .. . ... : ... .. . ... : ... .. . ... ... : ... .. . ... ... : ... .. . ... ... : ... .. . ... ...
ROW 6F : ... .. . ... ... ... : ... .. . ... ... ... : ... .. . ... : ... .. . ... : ... .. . ... ... : ... .. 3 ... ... : ... .. 3 ... ... : ... .. . ... ...
ROW 70 : ... .. . ... ... ... : ... .. . ... ... ... : ... .. . ... : ... .. . ... : ... .. . ... ... : ... .. 2 ... ... : ... .. 2 ... ... : ... .. . ... ...
ROW 71 : ... .. . ... ... ... : ... .. . ... ... ... : ... .. . ... : ... .. . ... : ... .. . ... ... : ... .. . ... ... : ... .. . ... ... : ... .. . ... ...
ROW 72 : ... .. . ... ... ... : ... .. 6 ... V02 ... : ... .. . ... : ... .. 8 ... : ... .. . ... ... : ... .. 1 ... ... : ... .. 1 ... ... : ... .. . ... ...
ROW 73 : ... .. . ... ... ... : ... .. 5 ... ... ... : ... .. . ... : ... .. 6 ... : ... .. . ... ... : ... .. . ... ... : ... .. . ... ... : ... .. . ... ...
ROW 74 : ... .. . ... ... ... : ... .. . ... ... ... : ... .. . ... : ... .. 3 ... : ... .. . ... ... : ... .. . ... ... : ... .. . ... ... : ... .. . ... ...
ROW 75 : ... .. . ... ... ... : ... .. . ... ... ... : ... .. . ... : ... .. 1 ... : ... .. . ... ... : ... .. . ... ... : ... .. . ... ... : ... .. . ... ...
ROW 76 : ... .. . ... ... ... : ... .. 4 ... ... ... : ... .. . ... : ... .. . ... : ... .. . ... ... : ... .. . ... ... : ... .. . ... ... : ... .. . ... ...
ROW 77 : ... .. . ... ... ... : ... .. 1 ... ... ... : --- .. . ... : ... .. 0 ... : ... .. . ... ... : ... .. . ... ... : ... .. . ... ... : ... .. . ... ...
ROW 78 : ... .. . ... ... ... : ... .. . ... ... ... : ... .. . ... : ... .. . ... : ... .. . ... ... : ... .. . ... ... : ... .. . ... ... : ... .. . ... ...
ROW 79 : ... .. . ... ... ... : ... .. . ... ... ... : ... .. . ... : ... .. . ... : ... .. . ... ... : ... .. . ... ... : ... .. . ... ... : ... .. . ... ...
ROW 7A : ... .. . ... ... ... : ... .. . ... ... ... : ... .. . ... : ... .. . ... : ... .. . ... ... : ... .. . ... ... : ... .. . ... ... : ... .. . ... ...
ROW 7B : ... .. . ... ... ... : ... .. . ... ... ... : ... .. . ... : ... .. . ... : ... .. . ... ... : ... .. . ... ... : ... .. . ... ... : ... .. . ... ...
ROW 7C : ... .. . ... ... ... : ... .. D ... V00 ... : D#4 00 . ... : ... .. F ... : ... .. . ... ... : D-3 01 6 ... ... : ... .. 6 ... ... : D-3 01 B ... ...
ROW 7D : ... .. . ... ... ... : ... .. B ... ... ... : ... .. . ... : ... .. C ... : ... .. . ... ... : ... .. 5 ... ... : ... .. 5 ... ... : ... .. 9 ... ...
ROW 7E : ... .. . ... ... ... : ... .. . ... ... ... : ... .. . ... : ... .. 6 ... : ... .. . ... ... : ... .. . ... ... : ... .. . ... ... : ... .. 5 ... ...
ROW 7F : ... .. . ... ... ... : ... .. A ... ... ... : ... .. . ... : ... .. 3 ... : ... .. . ... ... : ... .. 4 ... ... : ... .. 4 ... ... : ... .. . ... ...
ROW 80 : ... .. . ... ... ... : ... .. 8 ... ... ... : ... .. . ... : ... .. 2 ... : ... .. . ... ... : ... .. . ... ... : ... .. . ... ... : ... .. . ... ...
ROW 81 : ... .. . ... ... ... : ... .. 1 ... ... ... : ... .. . ... : ... .. 0 ... : ... .. . ... ... : ... .. . ... ... : ... .. . ... ... : ... .. . ... ...
ROW 82 : ... .. . ... ... ... : ... .. . ... ... ... : ... .. . ... : ... .. . ... : ... .. . ... ... : ... .. . ... ... : ... .. . ... ... : ... .. . ... ...
ROW 83 : ... .. . ... ... ... : ... .. . ... ... ... : ... .. . ... : ... .. . ... : ... .. . ... ... : ... .. 3 ... ... : ... .. 3 ... ... : ... .. . ... ...
ROW 84 : ... .. . ... ... ... : ... .. . ... ... ... : ... .. . ... : ... .. . ... : ... .. . ... ... : ... .. 2 ... ... : ... .. 2 ... ... : ... .. . ... ...
ROW 85 : ... .. . ... ... ... : ... .. . ... ... ... : ... .. . ... : ... .. . ... : ... .. . ... ... : ... .. . ... ... : ... .. . ... ... : ... .. . ... ...
ROW 86 : ... .. . ... ... ... : ... .. 6 ... V02 ... : ... .. . ... : ... .. . ... : ... .. . ... ... : ... .. 1 ... ... : ... .. 1 ... ... : ... .. . ... ...
ROW 87 : ... .. . ... ... ... : ... .. 5 ... ... ... : ... .. . ... : ... .. . ... : ... .. . ... ... : ... .. . ... ... : ... .. . ... ... : ... .. . ... ...
ROW 88 : ... .. . ... ... ... : ... .. . ... ... ... : ... .. . ... : ... .. . ... : ... .. . ... ... : ... .. . ... ... : ... .. . ... ... : ... .. . ... ...
ROW 89 : ... .. . ... ... ... : ... .. . ... ... ... : ... .. . ... : ... .. . ... : ... .. . ... ... : ... .. . ... ... : ... .. . ... ... : ... .. . ... ...
ROW 8A : ... .. . ... ... ... : ... .. 4 ... ... ... : ... .. . ... : ... .. . ... : ... .. . ... ... : ... .. . ... ... : ... .. . ... ... : ... .. . ... ...
ROW 8B : ... .. . ... ... ... : ... .. 1 ... ... ... : --- .. . ... : ... .. . ... : ... .. . ... ... : ... .. . ... ... : ... .. . ... ... : ... .. . ... ...
ROW 8C : ... .. . ... ... ... : ... .. . ... ... ... : ... .. . ... : ... .. . ... : ... .. . ... ... : ... .. . ... ... : ... .. . ... ... : ... .. . ... ...
ROW 8D : ... .. . ... ... ... : ... .. . ... ... ... : ... .. . ... : ... .. . ... : ... .. . ... ... : ... .. . ... ... : ... .. . ... ... : ... .. . ... ...
ROW 8E : ... .. . ... ... ... : ... .. . ... ... ... : ... .. . ... : ... .. . ... : ... .. . ... ... : ... .. . ... ... : ... .. . ... ... : ... .. . ... ...
ROW 8F : ... .. . ... ... ... : ... .. . ... ... ... : ... .. . ... : ... .. . ... : ... .. . ... ... : ... .. . ... ... : ... .. . ... ... : ... .. . ... ...
ROW 90 : ... .. . ... ... ... : F-4 00 D ... V00 ... : G-3 00 . ... : D-# 00 8 ... : ... .. . ... ... : ... .. 6 ... ... : ... .. 6 ... ... : ... .. . ... ...
ROW 91 : ... .. . ... ... ... : ... .. B ... ... ... : ... .. . ... : ... .. 7 ... : ... .. . ... ... : ... .. 5 ... ... : ... .. 5 ... ... : ... .. . ... ...
ROW 92 : ... .. . ... ... ... : ... .. . ... ... ... : ... .. . ... : ... .. . ... : ... .. . ... ... : ... .. . ... ... : ... .. . ... ... : ... .. . ... ...
ROW 93 : ... .. . ... ... ... : ... .. A ... ... ... : ... .. . ... : ... .. 6 ... : ... .. . ... ... : ... .. 4 ... ... : ... .. 4 ... ... : ... .. . ... ...
ROW 94 : ... .. . ... ... ... : ... .. 8 ... ... ... : ... .. . ... : ... .. 5 ... : ... .. . ... ... : ... .. . ... ... : ... .. . ... ... : ... .. . ... ...
ROW 95 : ... .. . ... ... ... : ... .. 1 ... ... ... : ... .. . ... : ... .. 4 ... : ... .. . ... ... : ... .. . ... ... : ... .. . ... ... : ... .. . ... ...
ROW 96 : ... .. . ... ... ... : ... .. . ... ... ... : ... .. . ... : ... .. . ... : ... .. . ... ... : ... .. . ... ... : ... .. . ... ... : ... .. . ... ...
ROW 97 : ... .. . ... ... ... : ... .. . ... ... ... : ... .. . ... : ... .. . ... : ... .. . ... ... : ... .. 3 ... ... : ... .. 3 ... ... : ... .. . ... ...
ROW 98 : ... .. . ... ... ... : ... .. . ... ... ... : ... .. . ... : ... .. 3 ... : ... .. . ... ... : ... .. 2 ... ... : ... .. 2 ... ... : ... .. . ... ...
ROW 99 : ... .. . ... ... ... : ... .. . ... ... ... : ... .. . ... : ... .. . ... : ... .. . ... ... : ... .. . ... ... : ... .. . ... ... : ... .. . ... ...
ROW 9A : C-3 00 F ... ... ... : ... .. 6 ... V02 ... : ... .. . ... : ... .. 2 ... : ... .. . ... ... : ... .. 1 ... ... : ... .. 1 ... ... : ... .. . ... ...
ROW 9B : ... .. E ... ... ... : ... .. 5 ... ... ... : ... .. . ... : ... .. . ... : ... .. . ... ... : ... .. . ... ... : ... .. . ... ... : ... .. . ... ...
ROW 9C : ... .. D ... ... ... : ... .. . ... ... ... : ... .. . ... : ... .. . ... : ... .. . ... ... : ... .. . ... ... : ... .. . ... ... : ... .. . ... ...
ROW 9D : ... .. A ... ... ... : ... .. . ... ... ... : ... .. . ... : ... .. 1 ... : ... .. . ... ... : ... .. . ... ... : ... .. . ... ... : ... .. . ... ...
ROW 9E : ... .. . ... ... ... : ... .. 4 ... ... ... : ... .. . ... : ... .. . ... : ... .. . ... ... : ... .. . ... ... : ... .. . ... ... : ... .. . ... ...
ROW 9F : ... .. . ... ... ... : ... .. 1 ... ... ... : --- .. . ... : ... .. . ... : ... .. . ... ... : ... .. . ... ... : ... .. . ... ... : ... .. . ... ...
ROW A0 : ... .. 2 ... ... ... : ... .. . ... ... ... : ... .. . ... : ... .. 0 ... : ... .. . ... ... : ... .. . ... ... : ... .. . ... ... : ... .. . ... ...
ROW A1 : ... .. . ... ... ... : ... .. . ... ... ... : ... .. . ... : ... .. . ... : ... .. . ... ... : ... .. . ... ... : ... .. . ... ... : ... .. . ... ...
ROW A2 : ... .. . ... ... ... : ... .. . ... ... ... : ... .. . ... : ... .. . ... : ... .. . ... ... : ... .. . ... ... : ... .. . ... ... : ... .. . ... ...
ROW A3 : ... .. 1 ... ... ... : ... .. . ... ... ... : ... .. . ... : ... .. . ... : ... .. . ... ... : ... .. . ... ... : ... .. . ... ... : ... .. . ... ...
ROW A4 : ... .. F ... ... ... : ... .. D ... V00 ... : C-3 00 . ... : ... .. D ... : ... .. . ... ... : D#3 01 6 ... ... : ... .. 6 ... ... : F-3 01 A ... ...
ROW A5 : ... .. E ... ... ... : ... .. B ... ... ... : ... .. . ... : ... .. B ... : ... .. . ... ... : ... .. 5 ... ... : ... .. 5 ... ... : ... .. 8 ... ...
ROW A6 : ... .. D ... ... ... : ... .. . ... ... ... : ... .. . ... : ... .. . ... : ... .. . ... ... : ... .. . ... ... : ... .. . ... ... : ... .. 5 ... ...
ROW A7 : ... .. A ... ... ... : ... .. A ... ... ... : ... .. . ... : ... .. A ... : ... .. . ... ... : ... .. 4 ... ... : ... .. 4 ... ... : ... .. . ... ...
ROW A8 : ... .. . ... ... ... : ... .. 8 ... ... ... : ... .. . ... : ... .. 8 ... : ... .. . ... ... : ... .. . ... ... : ... .. . ... ... : ... .. . ... ...
ROW A9 : ... .. 9 ... ... ... : ... .. 1 ... ... ... : ... .. . ... : ... .. 7 ... : ... .. . ... ... : ... .. . ... ... : ... .. . ... ... : ... .. . ... ...
ROW AA : ... .. . ... ... ... : ... .. . ... ... ... : ... .. . ... : ... .. 6 ... : ... .. . ... ... : ... .. . ... ... : ... .. . ... ... : ... .. . ... ...
ROW AB : ... .. . ... ... ... : ... .. . ... ... ... : ... .. . ... : ... .. . ... : ... .. . ... ... : ... .. 3 ... ... : ... .. 3 ... ... : ... .. . ... ...
ROW AC : ... .. . ... ... ... : ... .. . ... ... ... : ... .. . ... : ... .. 5 ... : ... .. . ... ... : ... .. 2 ... ... : ... .. 2 ... ... : ... .. . ... ...
ROW AD : ... .. . ... ... ... : ... .. . ... ... ... : ... .. . ... : ... .. . ... : ... .. . ... ... : ... .. . ... ... : ... .. . ... ... : ... .. . ... ...
ROW AE : ... .. . ... ... ... : ... .. 6 ... V02 ... : ... .. . ... : ... .. 4 ... : ... .. . ... ... : ... .. 1 ... ... : ... .. 1 ... ... : ... .. . ... ...
ROW AF : ... .. . ... ... ... : ... .. 5 ... ... ... : ... .. . ... : ... .. . ... : ... .. . ... ... : ... .. . ... ... : ... .. . ... ... : ... .. . ... ...
ROW B0 : ... .. . ... ... ... : ... .. . ... ... ... : ... .. . ... : ... .. 3 ... : ... .. . ... ... : ... .. . ... ... : ... .. . ... ... : ... .. . ... ...
ROW B1 : ... .. . ... ... ... : ... .. . ... ... ... : ... .. . ... : ... .. 2 ... : ... .. . ... ... : ... .. . ... ... : ... .. . ... ... : ... .. . ... ...
ROW B2 : ... .. . ... ... ... : ... .. 4 ... ... ... : ... .. . ... : ... .. . ... : ... .. . ... ... : ... .. . ... ... : ... .. . ... ... : ... .. . ... ...
ROW B3 : ... .. . ... ... ... : ... .. 1 ... ... ... : --- .. . ... : ... .. 1 ... : ... .. . ... ... : ... .. . ... ... : ... .. . ... ... : ... .. 4 ... ...
ROW B4 : ... .. . ... ... ... : ... .. . ... ... ... : ... .. . ... : ... .. 0 ... : ... .. . ... ... : ... .. . ... ... : ... .. . ... ... : ... .. . ... ...
ROW B5 : ... .. . ... ... ... : ... .. . ... ... ... : ... .. . ... : ... .. . ... : ... .. . ... ... : ... .. . ... ... : ... .. . ... ... : ... .. . ... ...
ROW B6 : ... .. . ... ... ... : ... .. . ... ... ... : ... .. . ... : ... .. . ... : ... .. . ... ... : ... .. . ... ... : ... .. . ... ... : ... .. . ... ...
ROW B7 : ... .. . ... ... ... : ... .. . ... ... ... : ... .. . ... : ... .. . ... : ... .. . ... ... : ... .. . ... ... : ... .. . ... ... : ... .. . ... ...
ROW B8 : ... .. . ... ... ... : D#4 00 D ... V00 ... : D#4 00 . ... : 9-# 00 A ... : ... .. . ... ... : ... .. 6 ... ... : ... .. 6 ... ... : D#3 01 9 ... ...
ROW B9 : ... .. . ... ... ... : ... .. B ... ... ... : ... .. . ... : ... .. 8 ... : ... .. . ... ... : ... .. 5 ... ... : ... .. 5 ... ... : ... .. 7 ... ...
ROW BA : ... .. . ... ... ... : ... .. . ... ... ... : ... .. . ... : ... .. 4 ... : ... .. . ... ... : ... .. . ... ... : ... .. . ... ... : ... .. 4 ... ...
ROW BB : ... .. . ... ... ... : ... .. A ... ... ... : ... .. . ... : ... .. 2 ... : ... .. . ... ... : ... .. 4 ... ... : ... .. 4 ... ... : ... .. . ... ...
ROW BC : ... .. . ... ... ... : ... .. 8 ... ... ... : ... .. . ... : ... .. 1 ... : ... .. . ... ... : ... .. . ... ... : ... .. . ... ... : ... .. . ... ...
ROW BD : ... .. . ... ... ... : ... .. 1 ... ... ... : ... .. . ... : ... .. 0 ... : ... .. . ... ... : ... .. . ... ... : ... .. . ... ... : ... .. . ... ...
ROW BE : ... .. . ... ... ... : ... .. . ... ... ... : ... .. . ... : ... .. . ... : ... .. . ... ... : ... .. . ... ... : ... .. . ... ... : ... .. . ... ...
ROW BF : ... .. . ... ... ... : ... .. . ... ... ... : ... .. . ... : ... .. 8 ... : ... .. . ... ... : ... .. 3 ... ... : ... .. 3 ... ... : ... .. . ... ...
ROW C0 : ... .. . ... ... ... : ... .. . ... ... ... : ... .. . ... : ... .. 6 ... : ... .. . ... ... : ... .. 2 ... ... : ... .. 2 ... ... : ... .. . ... ...
ROW C1 : ... .. . ... ... ... : ... .. . ... ... ... : ... .. . ... : ... .. 3 ... : ... .. . ... ... : ... .. . ... ... : ... .. . ... ... : ... .. . ... ...
ROW C2 : ... .. 8 ... ... ... : D-4 00 D ... V02 ... : ... .. . ... : ... .. 1 ... : ... .. . ... ... : ... .. 1 ... ... : ... .. 1 ... ... : ... .. . ... ...
ROW C3 : ... .. . ... ... ... : ... .. B ... ... ... : ... .. . ... : ... .. . ... : ... .. . ... ... : ... .. . ... ... : ... .. . ... ... : ... .. . ... ...
ROW C4 : ... .. . ... ... ... : ... .. . ... ... ... : ... .. . ... : ... .. 0 ... : ... .. . ... ... : ... .. . ... ... : ... .. . ... ... : ... .. . ... ...
ROW C5 : ... .. . ... ... ... : ... .. A ... ... ... : ... .. . ... : ... .. C ... : ... .. . ... ... : ... .. . ... ... : ... .. . ... ... : ... .. . ... ...
ROW C6 : ... .. . ... ... ... : ... .. 8 ... ... ... : ... .. . ... : ... .. 9 ... : ... .. . ... ... : ... .. . ... ... : ... .. . ... ... : ... .. . ... ...
ROW C7 : ... .. . ... ... ... : ... .. 1 ... ... ... : --- .. . ... : ... .. 4 ... : ... .. . ... ... : ... .. . ... ... : ... .. . ... ... : ... .. . ... ...
ROW C8 : ... .. . ... ... ... : ... .. . ... ... ... : ... .. . ... : ... .. 2 ... : ... .. . ... ... : ... .. . ... ... : ... .. . ... ... : ... .. . ... ...
ROW C9 : ... .. . ... ... ... : ... .. . ... ... ... : ... .. . ... : ... .. 1 ... : ... .. . ... ... : ... .. . ... ... : ... .. . ... ... : ... .. . ... ...
ROW CA : ... .. . ... ... ... : ... .. . ... ... ... : ... .. . ... : ... .. 0 ... : ... .. . ... ... : ... .. . ... ... : ... .. . ... ... : ... .. . ... ...
ROW CB : ... .. . ... ... ... : ... .. . ... ... ... : ... .. . ... : ... .. . ... : ... .. . ... ... : ... .. . ... ... : ... .. . ... ... : ... .. . ... ...
ROW CC : ... .. . ... ... ... : D#4 00 D ... V00 ... : D#4 00 . ... : ... .. F ... : ... .. . ... ... : C-3 01 6 ... ... : ... .. 6 ... ... : D-3 01 9 ... ...
ROW CD : ... .. . ... ... ... : ... .. B ... ... ... : ... .. . ... : ... .. C ... : ... .. . ... ... : ... .. 5 ... ... : ... .. 5 ... ... : ... .. 7 ... ...
ROW CE : ... .. . ... ... ... : ... .. . ... ... ... : ... .. . ... : ... .. 6 ... : ... .. . ... ... : ... .. . ... ... : ... .. . ... ... : ... .. 4 ... ...
ROW CF : ... .. . ... ... ... : ... .. A ... ... ... : ... .. . ... : ... .. 3 ... : ... .. . ... ... : ... .. 4 ... ... : ... .. 4 ... ... : ... .. . ... ...
ROW D0 : ... .. . ... ... ... : ... .. 8 ... ... ... : ... .. . ... : ... .. 2 ... : ... .. . ... ... : ... .. . ... ... : ... .. . ... ... : ... .. . ... ...
ROW D1 : ... .. . ... ... ... : ... .. 1 ... ... ... : ... .. . ... : ... .. 0 ... : ... .. . ... ... : ... .. . ... ... : ... .. . ... ... : ... .. . ... ...
ROW D2 : ... .. . ... ... ... : ... .. . ... ... ... : ... .. . ... : ... .. . ... : ... .. . ... ... : ... .. . ... ... : ... .. . ... ... : ... .. . ... ...
ROW D3 : ... .. . ... ... ... : ... .. . ... ... ... : ... .. . ... : ... .. . ... : ... .. . ... ... : ... .. 3 ... ... : ... .. 3 ... ... : ... .. . ... ...
ROW D4 : ... .. . ... ... ... : ... .. . ... ... ... : ... .. . ... : ... .. . ... : ... .. . ... ... : ... .. 2 ... ... : ... .. 2 ... ... : ... .. . ... ...
ROW D5 : ... .. . ... ... ... : ... .. . ... ... ... : ... .. . ... : ... .. . ... : ... .. . ... ... : ... .. . ... ... : ... .. . ... ... : ... .. . ... ...
ROW D6 : ... .. . ... ... ... : ... .. 6 ... V02 ... : ... .. . ... : ... .. . ... : ... .. . ... ... : ... .. 1 ... ... : ... .. 1 ... ... : ... .. . ... ...
ROW D7 : ... .. . ... ... ... : ... .. 5 ... ... ... : ... .. . ... : ... .. . ... : ... .. . ... ... : ... .. . ... ... : ... .. . ... ... : ... .. . ... ...
ROW D8 : ... .. . ... ... ... : ... .. . ... ... ... : ... .. . ... : ... .. . ... : ... .. . ... ... : ... .. . ... ... : ... .. . ... ... : ... .. . ... ...
ROW D9 : ... .. . ... ... ... : ... .. . ... ... ... : ... .. . ... : ... .. . ... : ... .. . ... ... : ... .. . ... ... : ... .. . ... ... : ... .. . ... ...
ROW DA : ... .. . ... ... ... : ... .. 4 ... ... ... : ... .. . ... : ... .. . ... : ... .. . ... ... : ... .. . ... ... : ... .. . ... ... : ... .. . ... ...
ROW DB : ... .. . ... ... ... : ... .. 1 ... ... ... : --- .. . ... : ... .. . ... : ... .. . ... ... : ... .. . ... ... : ... .. . ... ... : ... .. . ... ...
ROW DC : ... .. . ... ... ... : ... .. . ... ... ... : ... .. . ... : ... .. . ... : ... .. . ... ... : ... .. . ... ... : ... .. . ... ... : ... .. . ... ...
ROW DD : ... .. . ... ... ... : ... .. . ... ... ... : ... .. . ... : ... .. . ... : ... .. . ... ... : ... .. . ... ... : ... .. . ... ... : ... .. . ... ...
ROW DE : ... .. . ... ... ... : ... .. . ... ... ... : ... .. . ... : ... .. . ... : ... .. . ... ... : ... .. . ... ... : ... .. . ... ... : ... .. . ... ...
ROW DF : ... .. . ... ... ... : ... .. . ... ... ... : ... .. . ... : ... .. . ... : ... .. . ... ... : ... .. . ... ... : ... .. . ... ... : ... .. . ... ...
ROW E0 : ... .. . ... ... ... : C-4 00 D ... V00 ... : G-3 00 . ... : ... .. . ... : ... .. . ... ... : ... .. 6 ... ... : ... .. 6 ... ... : C-3 01 8 ... ...
ROW E1 : ... .. . ... ... ... : ... .. B ... ... ... : ... .. . ... : ... .. . ... : ... .. . ... ... : ... .. 5 ... ... : ... .. 5 ... ... : ... .. 6 ... ...
ROW E2 : ... .. . ... ... ... : ... .. . ... ... ... : ... .. . ... : ... .. . ... : ... .. . ... ... : ... .. . ... ... : ... .. . ... ... : ... .. 4 ... ...
ROW E3 : ... .. . ... ... ... : ... .. A ... ... ... : ... .. . ... : ... .. . ... : ... .. . ... ... : ... .. 4 ... ... : ... .. 4 ... ... : ... .. . ... ...
ROW E4 : ... .. . ... ... ... : ... .. 8 ... ... ... : ... .. . ... : ... .. . ... : ... .. . ... ... : ... .. . ... ... : ... .. . ... ... : ... .. . ... ...
ROW E5 : ... .. . P84 ... ... : ... .. 1 ... ... ... : ... .. . ... : ... .. . ... : ... .. . ... ... : ... .. . ... ... : ... .. . ... ... : ... .. . ... ...
ROW E6 : ... .. . P86 ... ... : ... .. . ... ... ... : ... .. . ... : ... .. . ... : ... .. . ... ... : ... .. . ... ... : ... .. . ... ... : ... .. . ... ...
ROW E7 : ... .. . P85 ... ... : ... .. . ... ... ... : ... .. . ... : ... .. . ... : ... .. . ... ... : ... .. 3 ... ... : ... .. 3 ... ... : ... .. . ... ...
ROW E8 : ... .. . P82 ... ... : ... .. . ... ... ... : ... .. . ... : ... .. . ... : ... .. . ... ... : ... .. 2 ... ... : ... .. 2 ... ... : ... .. . ... ...
ROW E9 : ... .. . P7E ... ... : ... .. . ... ... ... : ... .. . ... : ... .. . ... : ... .. . ... ... : ... .. . ... ... : ... .. . ... ... : ... .. . ... ...
ROW EA : ... .. . P7B ... ... : ... .. 6 ... V02 ... : ... .. . ... : ... .. . ... : ... .. . ... ... : ... .. 1 ... ... : ... .. 1 ... ... : ... .. . ... ...
ROW EB : ... .. . P7A ... ... : ... .. 5 ... ... ... : ... .. . ... : ... .. . ... : ... .. . ... ... : ... .. . ... ... : ... .. . ... ... : ... .. . ... ...
ROW EC : ... .. . P7C ... ... : ... .. . ... ... ... : ... .. . ... : ... .. . ... : ... .. . ... ... : ... .. . ... ... : ... .. . ... ... : ... .. . ... ...
ROW ED : ... .. . P80 ... ... : ... .. . ... ... ... : ... .. . ... : ... .. . ... : ... .. . ... ... : ... .. . ... ... : ... .. . ... ... : ... .. . ... ...
ROW EE : ... .. . P83 ... ... : ... .. 4 ... ... ... : ... .. . ... : ... .. . ... : ... .. . ... ... : ... .. . ... ... : ... .. . ... ... : ... .. . ... ...
ROW EF : ... .. . P86 ... ... : ... .. 1 ... ... ... : --- .. . ... : ... .. . ... : ... .. . ... ... : ... .. . ... ... : ... .. . ... ... : ... .. . ... ...
ROW F0 : ... .. . ... ... ... : ... .. . ... ... ... : ... .. . ... : ... .. . ... : ... .. . ... ... : ... .. . ... ... : ... .. . ... ... : ... .. . ... ...
ROW F1 : ... .. . P82 ... ... : ... .. . ... ... ... : ... .. . ... : ... .. . ... : ... .. . ... ... : ... .. . ... ... : ... .. . ... ... : ... .. . ... ...
ROW F2 : ... .. . P7F ... ... : ... .. . ... ... ... : ... .. . ... : ... .. . ... : ... .. . ... ... : ... .. . ... ... : ... .. . ... ... : ... .. . ... ...
ROW F3 : ... .. . P7B ... ... : ... .. . ... ... ... : ... .. . ... : ... .. . ... : ... .. . ... ... : ... .. . ... ... : ... .. . ... ... : ... .. . ... ...
ROW F4 : ... .. 7 P7A ... ... : ... .. 3 ... V00 ... : C-3 00 . ... : D-# 00 D V01 : ... .. . ... ... : D-3 01 6 ... ... : ... .. 6 ... ... : ... .. 8 ... ...
ROW F5 : ... .. . P7C ... ... : ... .. 2 ... ... ... : ... .. . ... : ... .. B ... : ... .. . ... ... : ... .. 5 ... ... : ... .. 5 ... ... : ... .. 6 ... ...
ROW F6 : ... .. . P80 ... ... : ... .. . ... ... ... : ... .. . ... : ... .. . ... : ... .. . ... ... : ... .. . ... ... : ... .. . ... ... : ... .. 4 ... ...
ROW F7 : ... .. . P83 ... ... : ... .. . ... ... ... : ... .. . ... : ... .. A ... : ... .. . ... ... : ... .. 4 ... ... : ... .. 4 ... ... : ... .. . ... ...
ROW F8 : ... .. . P86 ... ... : ... .. . ... ... ... : ... .. . ... : ... .. 8 ... : ... .. . ... ... : ... .. . ... ... : ... .. . ... ... : ... .. . ... ...
ROW F9 : ... .. . ... ... ... : ... .. 1 ... ... ... : ... .. . ... : ... .. 7 ... : ... .. . ... ... : ... .. . ... ... : ... .. . ... ... : ... .. . ... ...
ROW FA : ... .. . P83 ... ... : ... .. . ... ... ... : ... .. . ... : ... .. 6 ... : ... .. . ... ... : ... .. . ... ... : ... .. . ... ... : ... .. . ... ...
ROW FB : ... .. . P80 ... ... : ... .. . ... ... ... : ... .. . ... : ... .. . ... : ... .. . ... ... : ... .. 3 ... ... : ... .. 3 ... ... : ... .. . ... ...
ROW FC : ... .. . P7C ... ... : ... .. . ... ... ... : ... .. . ... : ... .. 5 ... : ... .. . ... ... : ... .. 2 ... ... : ... .. 2 ... ... : ... .. . ... ...
ROW FD : ... .. . P7A ... ... : ... .. . ... ... ... : ... .. . ... : ... .. . ... : ... .. . ... ... : ... .. . ... ... : ... .. . ... ... : ... .. . ... ...
ROW FE : ... .. . P7B ... ... : ... .. . ... V02 ... : ... .. . ... : ... .. 4 ... : ... .. . ... ... : ... .. 1 ... ... : ... .. 1 ... ... : ... .. . ... ...
ROW FF : ... .. . P7F ... ... : ... .. . ... ... ... : ... .. . ... : ... .. . ... : ... .. . ... ... : ... .. . ... ... : ... .. . ... ... : ... .. . ... ...

PATTERN 1B
ROW 00 : ... .. . P82 ... ... : ... .. . ... ... ... : ... .. . ... : ... .. 3 ... : ... .. . ... ... : ... .. . ... ... : ... .. . ... ... : ... .. . ... ...
ROW 01 : ... .. . P86 ... ... : ... .. . ... ... ... : ... .. . ... : ... .. 2 ... : ... .. . ... ... : ... .. . ... ... : ... .. . ... ... : ... .. . ... ...
ROW 02 : ... .. . ... ... ... : ... .. . ... ... ... : ... .. . ... : ... .. . ... : ... .. . ... ... : ... .. . ... ... : ... .. . ... ... : ... .. . ... ...
ROW 03 : ... .. . P83 ... ... : ... .. . ... ... ... : --- .. . ... : ... .. 1 ... : ... .. . ... ... : ... .. . ... ... : ... .. . ... ... : ... .. . ... ...
ROW 04 : ... .. . P80 ... ... : ... .. . ... ... ... : ... .. . ... : ... .. 0 ... : ... .. . ... ... : ... .. . ... ... : ... .. . ... ... : ... .. . ... ...
ROW 05 : ... .. . P7C ... ... : ... .. . ... ... ... : ... .. . ... : ... .. . ... : ... .. . ... ... : ... .. . ... ... : ... .. . ... ... : ... .. . ... ...
ROW 06 : ... .. . P7A ... ... : ... .. . ... ... ... : ... .. . ... : ... .. . ... : ... .. . ... ... : ... .. . ... ... : ... .. . ... ... : ... .. . ... ...
ROW 07 : ... .. . P7B ... ... : ... .. . ... ... ... : ... .. . ... : ... .. . ... : ... .. . ... ... : ... .. . ... ... : ... .. . ... ... : ... .. . ... ...
ROW 08 : ... .. . P7E ... ... : F-3 00 D ... V00 ... : D-4 00 . ... : 9-# 00 A V00 : ... .. . ... ... : ... .. 6 ... ... : ... .. 6 ... ... : ... .. . ... ...
ROW 09 : ... .. . P82 ... ... : ... .. B ... ... ... : ... .. . ... : ... .. 8 ... : ... .. . ... ... : ... .. 5 ... ... : ... .. 5 ... ... : ... .. . ... ...
ROW 0A : ... .. . P85 ... ... : ... .. . ... ... ... : ... .. . ... : ... .. 4 ... : ... .. . ... ... : ... .. . ... ... : ... .. . ... ... : ... .. . ... ...
ROW 0B : ... .. . P86 ... ... : ... .. A ... ... ... : ... .. . ... : ... .. 2 ... : ... .. . ... ... : ... .. 4 ... ... : ... .. 4 ... ... : ... .. . ... ...
ROW 0C : ... .. . P84 ... ... : ... .. 8 ... ... ... : ... .. . ... : ... .. 1 ... : ... .. . ... ... : ... .. . ... ... : ... .. . ... ... : ... .. . ... ...
ROW 0D : ... .. 6 P80 ... ... : ... .. 1 ... ... ... : ... .. . ... : ... .. 0 ... : ... .. . ... ... : ... .. . ... ... : ... .. . ... ... : ... .. 3 ... ...
ROW 0E : ... .. . P7D ... ... : ... .. . ... ... ... : ... .. . ... : ... .. . ... : ... .. . ... ... : ... .. . ... ... : ... .. . ... ... : ... .. . ... ...
ROW 0F : ... .. . P7A ... ... : ... .. . ... ... ... : ... .. . ... : ... .. . ... : ... .. . ... ... : ... .. 3 ... ... : ... .. 3 ... ... : ... .. . ... ...
ROW 10 : ... .. . ... ... ... : ... .. . ... ... ... : ... .. . ... : ... .. . ... : ... .. . ... ... : ... .. 2 ... ... : ... .. 2 ... ... : ... .. . ... ...
ROW 11 : ... .. . P7E ... ... : ... .. . ... ... ... : ... .. . ... : ... .. . ... : ... .. . ... ... : ... .. . ... ... : ... .. . ... ... : ... .. . ... ...
ROW 12 : ... .. . P81 ... ... : ... .. 6 ... V02 ... : ... .. . ... : ... .. 8 ... : ... .. . ... ... : ... .. 1 ... ... : ... .. 1 ... ... : ... .. . ... ...
ROW 13 : ... .. . P85 ... ... : ... .. 5 ... ... ... : ... .. . ... : ... .. 6 ... : ... .. . ... ... : ... .. . ... ... : ... .. . ... ... : ... .. . ... ...
ROW 14 : ... .. . P86 ... ... : ... .. . ... ... ... : ... .. . ... : ... .. 3 ... : ... .. . ... ... : ... .. . ... ... : ... .. . ... ... : ... .. . ... ...
ROW 15 : ... .. . P84 ... ... : ... .. . ... ... ... : ... .. . ... : ... .. 1 ... : ... .. . ... ... : ... .. . ... ... : ... .. . ... ... : ... .. . ... ...
ROW 16 : ... .. . P80 ... ... : ... .. 4 ... ... ... : ... .. . ... : ... .. . ... : ... .. . ... ... : ... .. . ... ... : ... .. . ... ... : ... .. . ... ...
ROW 17 : ... .. . P7D ... ... : ... .. 1 ... ... ... : --- .. . ... : ... .. 0 ... : ... .. . ... ... : ... .. . ... ... : ... .. . ... ... : ... .. . ... ...
ROW 18 : ... .. . P7A ... ... : ... .. . ... ... ... : ... .. . ... : ... .. . ... : ... .. . ... ... : ... .. . ... ... : ... .. . ... ... : ... .. . ... ...
ROW 19 : ... .. . ... ... ... : ... .. . ... ... ... : ... .. . ... : ... .. . ... : ... .. . ... ... : ... .. . ... ... : ... .. . ... ... : ... .. . ... ...
ROW 1A : ... .. . P7D ... ... : ... .. . ... ... ... : ... .. . ... : ... .. . ... : ... .. . ... ... : ... .. . ... ... : ... .. . ... ... : ... .. . ... ...
ROW 1B : ... .. . P80 ... ... : ... .. . ... ... ... : ... .. . ... : ... .. . ... : ... .. . ... ... : ... .. . ... ... : ... .. . ... ... : ... .. . ... ...
ROW 1C : ... .. . P84 ... ... : ... .. D ... V00 ... : D-4 00 . ... : ... .. F ... : ... .. . ... ... : C-3 01 6 ... ... : ... .. 6 ... ... : D-3 01 7 ... ...
ROW 1D : ... .. . P86 ... ... : ... .. B ... ... ... : ... .. . ... : ... .. C ... : ... .. . ... ... : ... .. 5 ... ... : ... .. 5 ... ... : ... .. 6 ... ...
ROW 1E : ... .. . P85 ... ... : ... .. . ... ... ... : ... .. . ... : ... .. 6 ... : ... .. . ... ... : ... .. . ... ... : ... .. . ... ... : ... .. 3 ... ...
ROW 1F : ... .. . P81 ... ... : ... .. A ... ... ... : ... .. . ... : ... .. 3 ... : ... .. . ... ... : ... .. 4 ... ... : ... .. 4 ... ... : ... .. . ... ...
ROW 20 : ... .. . P7E ... ... : ... .. 8 ... ... ... : ... .. . ... : ... .. 2 ... : ... .. . ... ... : ... .. . ... ... : ... .. . ... ... : ... .. . ... ...
ROW 21 : ... .. . P7A ... ... : ... .. 1 ... ... ... : ... .. . ... : ... .. 0 ... : ... .. . ... ... : ... .. . ... ... : ... .. . ... ... : ... .. . ... ...
ROW 22 : ... .. . ... ... ... : ... .. . ... ... ... : ... .. . ... : ... .. . ... : ... .. . ... ... : ... .. . ... ... : ... .. . ... ... : ... .. . ... ...
ROW 23 : ... .. . P7D ... ... : ... .. . ... ... ... : ... .. . ... : ... .. . ... : ... .. . ... ... : ... .. 3 ... ... : ... .. 3 ... ... : ... .. . ... ...
ROW 24 : ... .. . P80 ... ... : ... .. . ... ... ... : ... .. . ... : ... .. . ... : ... .. . ... ... : ... .. 2 ... ... : ... .. 2 ... ... : ... .. . ... ...
ROW 25 : ... .. . P84 ... ... : ... .. . ... ... ... : ... .. . ... : ... .. . ... : ... .. . ... ... : ... .. . ... ... : ... .. . ... ... : ... .. . ... ...
ROW 26 : ... .. . P86 ... ... : ... .. 6 ... V02 ... : ... .. . ... : ... .. . ... : ... .. . ... ... : ... .. 1 ... ... : ... .. 1 ... ... : ... .. . ... ...
ROW 27 : ... .. . P85 ... ... : ... .. 5 ... ... ... : ... .. . ... : ... .. . ... : ... .. . ... ... : ... .. . ... ... : ... .. . ... ... : ... .. . ... ...
ROW 28 : ... .. . P82 ... ... : ... .. . ... ... ... : ... .. . ... : ... .. . ... : ... .. . ... ... : ... .. . ... ... : ... .. . ... ... : ... .. . ... ...
ROW 29 : ... .. . P7E ... ... : ... .. . ... ... ... : ... .. . ... : ... .. . ... : ... .. . ... ... : ... .. . ... ... : ... .. . ... ... : ... .. . ... ...
ROW 2A : ... .. . P7B ... ... : ... .. 4 ... ... ... : ... .. . ... : ... .. . ... : ... .. . ... ... : ... .. . ... ... : ... .. . ... ... : ... .. . ... ...
ROW 2B : ... .. . P7A ... ... : ... .. 1 ... ... ... : --- .. . ... : ... .. . ... : ... .. . ... ... : ... .. . ... ... : ... .. . ... ... : ... .. . ... ...
ROW 2C : ... .. . P7C ... ... : ... .. . ... ... ... : ... .. . ... : ... .. . ... : ... .. . ... ... : ... .. . ... ... : ... .. . ... ... : ... .. . ... ...
ROW 2D : ... .. . P80 ... ... : ... .. . ... ... ... : ... .. . ... : ... .. . ... : ... .. . ... ... : ... .. . ... ... : ... .. . ... ... : ... .. . ... ...
ROW 2E : ... .. . P83 ... ... : ... .. . ... ... ... : ... .. . ... : ... .. . ... : ... .. . ... ... : ... .. . ... ... : ... .. . ... ... : ... .. . ... ...
ROW 2F : ... .. . P86 ... ... : ... .. . ... ... ... : ... .. . ... : ... .. . ... : ... .. . ... ... : ... .. . ... ... : ... .. . ... ... : ... .. . ... ...
ROW 30 : ... .. . ... ... ... : C-4 00 D ... V00 ... : G-3 00 . ... : D-# 00 F ... : ... .. . ... ... : ... .. 6 ... ... : ... .. 6 ... ... : C-3 01 7 ... ...
ROW 31 : ... .. . P82 ... ... : ... .. B ... ... ... : ... .. . ... : ... .. C ... : ... .. . ... ... : ... .. 5 ... ... : ... .. 5 ... ... : ... .. 6 ... ...
ROW 32 : ... .. . P7F ... ... : ... .. . ... ... ... : ... .. . ... : ... .. 6 ... : ... .. . ... ... : ... .. . ... ... : ... .. . ... ... : ... .. 3 ... ...
ROW 33 : ... .. . P7B ... ... : ... .. A ... ... ... : ... .. . ... : ... .. 3 ... : ... .. . ... ... : ... .. 4 ... ... : ... .. 4 ... ... : ... .. . ... ...
ROW 34 : ... .. . P7A ... ... : ... .. 8 ... ... ... : ... .. . ... : ... .. 2 ... : ... .. . ... ... : ... .. . ... ... : ... .. . ... ... : ... .. . ... ...
ROW 35 : ... .. . P7C ... ... : ... .. 1 ... ... ... : ... .. . ... : ... .. 0 ... : ... .. . ... ... : ... .. . ... ... : ... .. . ... ... : ... .. . ... ...
ROW 36 : ... .. . P80 ... ... : ... .. . ... ... ... : ... .. . ... : ... .. . ... : ... .. . ... ... : ... .. . ... ... : ... .. . ... ... : ... .. . ... ...
ROW 37 : ... .. . P83 ... ... : ... .. . ... ... ... : ... .. . ... : ... .. . ... : ... .. . ... ... : ... .. 3 ... ... : ... .. 3 ... ... : ... .. . ... ...
ROW 38 : ... .. . P86 ... ... : ... .. . ... ... ... : ... .. . ... : ... .. . ... : ... .. . ... ... : ... .. 2 ... ... : ... .. 2 ... ... : ... .. . ... ...
ROW 39 : ... .. . ... ... ... : ... .. . ... ... ... : ... .. . ... : ... .. . ... : ... .. . ... ... : ... .. . ... ... : ... .. . ... ... : ... .. . ... ...
ROW 3A : ... .. . P83 ... ... : ... .. 6 ... V02 ... : ... .. . ... : ... .. . ... : ... .. . ... ... : ... .. 1 ... ... : ... .. 1 ... ... : ... .. . ... ...
ROW 3B : ... .. 1 P80 ... ... : ... .. 5 ... ... ... : ... .. . ... : ... .. . ... : ... .. . ... ... : ... .. . ... ... : ... .. . ... ... : ... .. . ... ...
ROW 3C : ... .. . P7C ... ... : ... .. . ... ... ... : ... .. . ... : ... .. . ... : ... .. . ... ... : ... .. . ... ... : ... .. . ... ... : ... .. . ... ...
ROW 3D : ... .. . P7A ... ... : ... .. . ... ... ... : ... .. . ... : ... .. . ... : ... .. . ... ... : ... .. . ... ... : ... .. . ... ... : ... .. . ... ...
ROW 3E : ... .. . P7B ... ... : ... .. 4 ... ... ... : ... .. . ... : ... .. . ... : ... .. . ... ... : ... .. . ... ... : ... .. . ... ... : ... .. . ... ...
ROW 3F : ... .. . P7F ... ... : ... .. 1 ... ... ... : --- .. . ... : ... .. . ... : ... .. . ... ... : ... .. . ... ... : ... .. . ... ... : ... .. . ... ...
ROW 40 : ... .. . P82 ... ... : ... .. . ... ... ... : ... .. . ... : ... .. . ... : ... .. . ... ... : ... .. . ... ... : ... .. . ... ... : ... .. . ... ...
ROW 41 : ... .. 0 ... V00 ... : ... .. . ... ... ... : ... .. . ... : ... .. . ... : ... .. . ... ... : ... .. . ... ... : ... .. . ... ... : ... .. . ... ...
ROW 42 : ... .. . ... ... ... : ... .. . ... ... ... : ... .. . ... : ... .. . ... : ... .. . ... ... : ... .. . ... ... : ... .. . ... ... : ... .. . ... ...
ROW 43 : ... .. . ... ... ... : ... .. . ... ... ... : ... .. . ... : ... .. . ... : ... .. . ... ... : ... .. . ... ... : ... .. . ... ... : ... .. . ... ...
ROW 44 : ... .. . ... ... ... : ... .. D ... V00 ... : C-3 00 . ... : ... .. D ... : ... .. . ... ... : D-3 01 6 ... ... : ... .. 6 ... ... : B-2 01 6 ... ...
ROW 45 : ... .. . ... ... ... : ... .. B ... ... ... : ... .. . ... : ... .. B ... : ... .. . ... ... : ... .. 5 ... ... : ... .. 5 ... ... : ... .. 5 ... ...
ROW 46 : ... .. . ... ... ... : ... .. . ... ... ... : ... .. . ... : ... .. . ... : ... .. . ... ... : ... .. . ... ... : ... .. . ... ... : ... .. 3 ... ...
ROW 47 : ... .. . ... ... ... : ... .. A ... ... ... : ... .. . ... : ... .. A ... : ... .. . ... ... : ... .. 4 ... ... : ... .. 4 ... ... : ... .. . ... ...
ROW 48 : ... .. . ... ... ... : ... .. 8 ... ... ... : ... .. . ... : ... .. 8 ... : ... .. . ... ... : ... .. . ... ... : ... .. . ... ... : ... .. . ... ...
ROW 49 : ... .. . ... ... ... : ... .. 1 ... ... ... : ... .. . ... : ... .. 7 ... : ... .. . ... ... : ... .. . ... ... : ... .. . ... ... : ... .. . ... ...
ROW 4A : ... .. . ... ... ... : ... .. . ... ... ... : ... .. . ... : ... .. 6 ... : ... .. . ... ... : ... .. . ... ... : ... .. . ... ... : ... .. . ... ...
ROW 4B : ... .. . ... ... ... : ... .. . ... ... ... : ... .. . ... : ... .. . ... : ... .. . ... ... : ... .. 3 ... ... : ... .. 3 ... ... : ... .. . ... ...
ROW 4C : ... .. . ... ... ... : ... .. . ... ... ... : ... .. . ... : ... .. 5 ... : ... .. . ... ... : ... .. 2 ... ... : ... .. 2 ... ... : ... .. . ... ...
ROW 4D : ... .. . ... ... ... : ... .. . ... ... ... : ... .. . ... : ... .. . ... : ... .. . ... ... : ... .. . ... ... : ... .. . ... ... : ... .. . ... ...
ROW 4E : ... .. . ... ... ... : ... .. 6 ... V02 ... : ... .. . ... : ... .. 4 ... : ... .. . ... ... : ... .. 1 ... ... : ... .. 1 ... ... : ... .. . ... ...
ROW 4F : ... .. . ... ... ... : ... .. 5 ... ... ... : ... .. . ... : ... .. . ... : ... .. . ... ... : ... .. . ... ... : ... .. . ... ... : ... .. . ... ...
ROW 50 : ... .. . ... ... ... : ... .. . ... ... ... : ... .. . ... : ... .. 3 ... : ... .. . ... ... : ... .. . ... ... : ... .. . ... ... : ... .. . ... ...
ROW 51 : ... .. . ... ... ... : ... .. . ... ... ... : ... .. . ... : ... .. 2 ... : ... .. . ... ... : ... .. . ... ... : ... .. . ... ... : ... .. . ... ...
ROW 52 : ... .. . ... ... ... : ... .. 4 ... ... ... : ... .. . ... : ... .. . ... : ... .. . ... ... : ... .. . ... ... : ... .. . ... ... : ... .. . ... ...
ROW 53 : ... .. . ... ... ... : ... .. 1 ... ... ... : --- .. . ... : ... .. 1 ... : ... .. . ... ... : ... .. . ... ... : ... .. . ... ... : ... .. . ... ...
ROW 54 : ... .. . ... ... ... : ... .. . ... ... ... : ... .. . ... : ... .. 0 ... : ... .. . ... ... : ... .. . ... ... : ... .. . ... ... : ... .. . ... ...
ROW 55 : ... .. . ... ... ... : ... .. . ... ... ... : ... .. . ... : ... .. . ... : ... .. . ... ... : ... .. . ... ... : ... .. . ... ... : ... .. . ... ...
ROW 56 : ... .. . ... ... ... : ... .. . ... ... ... : ... .. . ... : ... .. . ... : ... .. . ... ... : ... .. . ... ... : ... .. . ... ... : ... .. . ... ...
ROW 57 : ... .. . ... ... ... : ... .. . ... ... ... : ... .. . ... : ... .. . ... : ... .. . ... ... : ... .. . ... ... : ... .. . ... ... : ... .. . ... ...
ROW 58 : ... .. . ... ... ... : B-3 00 D ... V00 ... : D-4 00 . ... : 9-# 00 A ... : ... .. . ... ... : ... .. 6 ... ... : ... .. 6 ... ... : G-2 01 6 ... ...
ROW 59 : ... .. . ... ... ... : ... .. B ... ... ... : ... .. . ... : ... .. 8 ... : ... .. . ... ... : ... .. 5 ... ... : ... .. 5 ... ... : ... .. 5 ... ...
ROW 5A : ... .. . ... ... ... : ... .. . ... ... ... : ... .. . ... : ... .. 4 ... : ... .. . ... ... : ... .. . ... ... : ... .. . ... ... : ... .. 3 ... ...
ROW 5B : ... .. . ... ... ... : ... .. A ... ... ... : ... .. . ... : ... .. 2 ... : ... .. . ... ... : ... .. 4 ... ... : ... .. 4 ... ... : ... .. . ... ...
ROW 5C : ... .. . ... ... ... : ... .. 8 ... ... ... : ... .. . ... : ... .. 1 ... : ... .. . ... ... : ... .. . ... ... : ... .. . ... ... : ... .. . ... ...
ROW 5D : ... .. . ... ... ... : ... .. 1 ... ... ... : ... .. . ... : ... .. 0 ... : ... .. . ... ... : ... .. . ... ... : ... .. . ... ... : ... .. . ... ...
ROW 5E : ... .. . ... ... ... : ... .. . ... ... ... : ... .. . ... : ... .. . ... : ... .. . ... ... : ... .. . ... ... : ... .. . ... ... : ... .. . ... ...
ROW 5F : ... .. . ... ... ... : ... .. . ... ... ... : ... .. . ... : ... .. . ... : ... .. . ... ... : ... .. 3 ... ... : ... .. 3 ... ... : ... .. . ... ...
ROW 60 : ... .. . ... ... ... : ... .. . ... ... ... : ... .. . ... : ... .. . ... : ... .. . ... ... : ... .. 2 ... ... : ... .. 2 ... ... : ... .. . ... ...
ROW 61 : ... .. . ... ... ... : ... .. . ... ... ... : ... .. . ... : ... .. . ... : ... .. . ... ... : ... .. . ... ... : ... .. . ... ... : ... .. . ... ...
ROW 62 : ... .. . ... ... ... : A-3 00 D ... V02 ... : ... .. . ... : ... .. 8 ... : ... .. . ... ... : ... .. 1 ... ... : ... .. 1 ... ... : ... .. . ... ...
ROW 63 : ... .. . ... ... ... : ... .. B ... ... ... : ... .. . ... : ... .. 6 ... : ... .. . ... ... : ... .. . ... ... : ... .. . ... ... : ... .. . ... ...
ROW 64 : ... .. . ... ... ... : ... .. . ... ... ... : ... .. . ... : ... .. 3 ... : ... .. . ... ... : ... .. . ... ... : ... .. . ... ... : ... .. . ... ...
ROW 65 : ... .. . ... ... ... : ... .. A ... ... ... : ... .. . ... : ... .. 1 ... : ... .. . ... ... : ... .. . ... ... : ... .. . ... ... : ... .. . ... ...
ROW 66 : ... .. . ... ... ... : ... .. 8 ... ... ... : ... .. . ... : ... .. . ... : ... .. . ... ... : ... .. . ... ... : ... .. . ... ... : ... .. . ... ...
ROW 67 : ... .. . ... ... ... : ... .. 1 ... ... ... : --- .. . ... : ... .. 0 ... : ... .. . ... ... : ... .. . ... ... : ... .. . ... ... : ... .. 2 ... ...
ROW 68 : ... .. . ... ... ... : ... .. . ... ... ... : ... .. . ... : ... .. . ... : ... .. . ... ... : ... .. . ... ... : ... .. . ... ... : ... .. . ... ...
ROW 69 : ... .. . ... ... ... : ... .. . ... ... ... : ... .. . ... : ... .. . ... : ... .. . ... ... : ... .. . ... ... : ... .. . ... ... : ... .. . ... ...
ROW 6A : ... .. . ... ... ... : ... .. . ... ... ... : ... .. . ... : ... .. . ... : ... .. . ... ... : ... .. . ... ... : ... .. . ... ... : ... .. . ... ...
ROW 6B : ... .. . ... ... ... : ... .. . ... ... ... : ... .. . ... : ... .. . ... : ... .. . ... ... : ... .. . ... ... : ... .. . ... ... : ... .. . ... ...
ROW 6C : ... .. . ... ... ... : B-3 00 D ... V00 ... : C-2 00 . ... : ... .. F ... : ... .. . ... ... : B-2 01 6 ... ... : ... .. 6 ... ... : B-2 01 5 ... ...
ROW 6D : ... .. . ... ... ... : ... .. B ... ... ... : ... .. . ... : ... .. C ... : ... .. . ... ... : ... .. 5 ... ... : ... .. 5 ... ... : ... .. 4 ... ...
ROW 6E : ... .. . ... ... ... : ... .. . ... ... ... : ... .. . ... : ... .. 6 ... : ... .. . ... ... : ... .. . ... ... : ... .. . ... ... : ... .. 2 ... ...
ROW 6F : ... .. . ... ... ... : ... .. A ... ... ... : ... .. . ... : ... .. 3 ... : ... .. . ... ... : ... .. 4 ... ... : ... .. 4 ... ... : ... .. . ... ...
ROW 70 : ... .. . ... ... ... : ... .. 8 ... ... ... : ... .. . ... : ... .. 2 ... : ... .. . ... ... : ... .. . ... ... : ... .. . ... ... : ... .. . ... ...
ROW 71 : ... .. . ... ... ... : ... .. 1 ... ... ... : ... .. . ... : ... .. 0 ... : ... .. . ... ... : ... .. . ... ... : ... .. . ... ... : ... .. . ... ...
ROW 72 : ... .. . ... ... ... : ... .. . ... ... ... : ... .. . ... : ... .. . ... : ... .. . ... ... : ... .. . ... ... : ... .. . ... ... : ... .. . ... ...
ROW 73 : ... .. . ... ... ... : ... .. . ... ... ... : ... .. . ... : ... .. . ... : ... .. . ... ... : ... .. 3 ... ... : ... .. 3 ... ... : ... .. . ... ...
ROW 74 : ... .. . ... ... ... : ... .. . ... ... ... : ... .. . ... : ... .. . ... : ... .. . ... ... : ... .. 2 ... ... : ... .. 2 ... ... : ... .. . ... ...
ROW 75 : ... .. . ... ... ... : ... .. . ... ... ... : ... .. . ... : ... .. . ... : ... .. . ... ... : ... .. . ... ... : ... .. . ... ... : ... .. . ... ...
ROW 76 : ... .. . ... ... ... : ... .. 6 ... V02 ... : ... .. . ... : ... .. . ... : ... .. . ... ... : ... .. 1 ... ... : ... .. 1 ... ... : ... .. . ... ...
ROW 77 : ... .. . ... ... ... : ... .. 5 ... ... ... : ... .. . ... : ... .. . ... : ... .. . ... ... : ... .. . ... ... : ... .. . ... ... : ... .. . ... ...
ROW 78 : ... .. . ... ... ... : ... .. . ... ... ... : ... .. . ... : ... .. . ... : ... .. . ... ... : ... .. . ... ... : ... .. . ... ... : ... .. . ... ...
ROW 79 : ... .. . ... ... ... : ... .. . ... ... ... : ... .. . ... : ... .. . ... : ... .. . ... ... : ... .. . ... ... : ... .. . ... ... : ... .. . ... ...
ROW 7A : ... .. . ... ... ... : ... .. 4 ... ... ... : ... .. . ... : ... .. . ... : ... .. . ... ... : ... .. . ... ... : ... .. . ... ... : ... .. . ... ...
ROW 7B : ... .. . ... ... ... : ... .. 1 ... ... ... : ... .. . ... : ... .. . ... : ... .. . ... ... : ... .. . ... ... : ... .. . ... ... : ... .. . ... ...
ROW 7C : ... .. . ... ... ... : ... .. . ... ... ... : ... .. . ... : ... .. . ... : ... .. . ... ... : ... .. . ... ... : ... .. . ... ... : ... .. . ... ...
ROW 7D : ... .. . ... ... ... : ... .. . ... ... ... : ... .. . ... : ... .. . ... : ... .. . ... ... : ... .. . ... ... : ... .. . ... ... : ... .. . ... ...
ROW 7E : ... .. . ... ... ... : ... .. . ... ... ... : ... .. . ... : ... .. . ... : ... .. . ... ... : ... .. . ... ... : ... .. . ... ... : ... .. . ... ...
ROW 7F : ... .. . ... ... ... : ... .. . ... ... ... : ... .. . ... : ... .. . ... : ... .. . ... ... : ... .. . ... ... : ... .. . ... ... : ... .. . ... ...
ROW 80 : ... .. . ... ... ... : ... .. 3 ... V00 ... : G-3 00 . ... : D-# 00 D ... : ... .. . ... ... : ... .. 6 ... ... : ... .. 6 ... ... : D-3 01 5 ... ...
ROW 81 : ... .. . ... ... ... : ... .. 2 ... ... ... : ... .. . ... : ... .. B ... : ... .. . ... ... : ... .. 5 ... ... : ... .. 5 ... ... : ... .. 4 ... ...
ROW 82 : ... .. . ... ... ... : ... .. . ... ... ... : ... .. . ... : ... .. . ... : ... .. . ... ... : ... .. . ... ... : ... .. . ... ... : ... .. 2 ... ...
ROW 83 : ... .. . ... ... ... : ... .. . ... ... ... : ... .. . ... : ... .. A ... : ... .. . ... ... : ... .. 4 ... ... : ... .. 4 ... ... : ... .. . ... ...
ROW 84 : ... .. . ... ... ... : ... .. . ... ... ... : ... .. . ... : ... .. 8 ... : ... .. . ... ... : ... .. . ... ... : ... .. . ... ... : ... .. . ... ...
ROW 85 : ... .. . ... ... ... : ... .. 1 ... ... ... : ... .. . ... : ... .. 7 ... : ... .. . ... ... : ... .. . ... ... : ... .. . ... ... : ... .. . ... ...
ROW 86 : ... .. . ... ... ... : ... .. . ... ... ... : ... .. . ... : ... .. 6 ... : ... .. . ... ... : ... .. . ... ... : ... .. . ... ... : ... .. . ... ...
ROW 87 : ... .. . ... ... ... : ... .. . ... ... ... : ... .. . ... : ... .. . ... : ... .. . ... ... : ... .. 3 ... ... : ... .. 3 ... ... : ... .. . ... ...
ROW 88 : ... .. . ... ... ... : ... .. . ... ... ... : ... .. . ... : ... .. 5 ... : ... .. . ... ... : ... .. 2 ... ... : ... .. 2 ... ... : ... .. . ... ...
ROW 89 : ... .. . ... ... ... : ... .. . ... ... ... : ... .. . ... : ... .. . ... : ... .. . ... ... : ... .. . ... ... : ... .. . ... ... : ... .. . ... ...
ROW 8A : ... .. . ... ... ... : ... .. . ... V02 ... : ... .. . ... : ... .. 4 ... : ... .. . ... ... : ... .. 1 ... ... : ... .. 1 ... ... : ... .. . ... ...
ROW 8B : ... .. . ... ... ... : ... .. . ... ... ... : ... .. . ... : ... .. . ... : ... .. . ... ... : ... .. . ... ... : ... .. . ... ... : ... .. . ... ...
ROW 8C : ... .. . ... ... ... : ... .. . ... ... ... : ... .. . ... : ... .. 3 ... : ... .. . ... ... : ... .. . ... ... : ... .. . ... ... : ... .. . ... ...
ROW 8D : ... .. . ... ... ... : ... .. . ... ... ... : ... .. . ... : ... .. 2 ... : ... .. . ... ... : ... .. . ... ... : ... .. . ... ... : ... .. . ... ...
ROW 8E : ... .. . ... ... ... : ... .. . ... ... ... : ... .. . ... : ... .. . ... : ... .. . ... ... : ... .. . ... ... : ... .. . ... ... : ... .. . ... ...
ROW 8F : ... .. . ... ... ... : ... .. . ... ... ... : --- .. . ... : ... .. 1 ... : ... .. . ... ... : ... .. . ... ... : ... .. . ... ... : ... .. . ... ...
ROW 90 : ... .. . ... ... ... : ... .. . ... ... ... : ... .. . ... : ... .. 0 ... : ... .. . ... ... : ... .. . ... ... : ... .. . ... ... : ... .. . ... ...
ROW 91 : ... .. . ... ... ... : ... .. . ... ... ... : ... .. . ... : ... .. . ... : ... .. . ... ... : ... .. . ... ... : ... .. . ... ... : ... .. . ... ...
ROW 92 : ... .. . ... ... ... : ... .. . ... ... ... : ... .. . ... : ... .. . ... : ... .. . ... ... : ... .. . ... ... : ... .. . ... ... : ... .. . ... ...
ROW 93 : ... .. . ... ... ... : ... .. . ... ... ... : ... .. . ... : ... .. . ... : ... .. . ... ... : ... .. . ... ... : ... .. . ... ... : ... .. . ... ...
ROW 94 : C-2 00 F P80 V01 ... : D#4 00 6 ... ... ... : C-3 00 . ... : ... .. D V01 : ... .. . ... ... : D#3 01 6 ... ... : ... .. 6 ... ... : C-3 01 5 ... ...
ROW 95 : ... .. E ... ... ... : ... .. 5 ... ... ... : ... .. . ... : ... .. B ... : ... .. . ... ... : ... .. 5 ... ... : ... .. 5 ... ... : ... .. 4 ... ...
ROW 96 : ... .. D ... ... ... : ... .. . ... ... ... : ... .. . ... : ... .. . ... : ... .. . ... ... : ... .. . ... ... : ... .. . ... ... : ... .. 2 ... ...
ROW 97 : ... .. A ... ... ... : ... .. . ... ... ... : ... .. . ... : ... .. A ... : ... .. . ... ... : ... .. 4 ... ... : ... .. 4 ... ... : ... .. . ... ...
ROW 98 : ... .. . ... ... ... : ... .. 4 ... ... ... : ... .. . ... : ... .. 8 ... : ... .. . ... ... : ... .. . ... ... : ... .. . ... ... : ... .. . ... ...
ROW 99 : ... .. . ... ... ... : ... .. 3 ... ... ... : ... .. . ... : ... .. 7 ... : ... .. . ... ... : ... .. . ... ... : ... .. . ... ... : ... .. . ... ...
ROW 9A : ... .. . ... ... ... : ... .. . ... ... ... : ... .. . ... : ... .. 6 ... : ... .. . ... ... : ... .. . ... ... : ... .. . ... ... : ... .. . ... ...
ROW 9B : ... .. . ... ... ... : ... .. . ... ... ... : ... .. . ... : ... .. . ... : ... .. . ... ... : ... .. 3 ... ... : ... .. 3 ... ... : ... .. . ... ...
ROW 9C : ... .. . ... ... ... : ... .. 2 ... ... ... : ... .. . ... : ... .. 5 ... : ... .. . ... ... : ... .. 2 ... ... : ... .. 2 ... ... : ... .. . ... ...
ROW 9D : ... .. . ... ... ... : ... .. . ... ... ... : ... .. . ... : ... .. . ... : ... .. . ... ... : ... .. . ... ... : ... .. . ... ... : ... .. . ... ...
ROW 9E : ... .. . ... ... ... : G-3 00 6 ... ... ... : ... .. . ... : ... .. 4 ... : ... .. . ... ... : ... .. 1 ... ... : ... .. 1 ... ... : ... .. . ... ...
ROW 9F : ... .. . ... ... ... : ... .. 5 ... ... ... : ... .. . ... : ... .. . ... : ... .. . ... ... : ... .. . ... ... : ... .. . ... ... : ... .. . ... ...
ROW A0 : ... .. . ... ... ... : ... .. . ... ... ... : ... .. . ... : ... .. 3 ... : ... .. . ... ... : ... .. . ... ... : ... .. . ... ... : ... .. . ... ...
ROW A1 : ... .. . ... ... ... : ... .. . ... ... ... : ... .. . ... : ... .. 2 ... : ... .. . ... ... : ... .. . ... ... : ... .. . ... ... : ... .. . ... ...
ROW A2 : ... .. . ... ... ... : ... .. 4 ... ... ... : ... .. . ... : ... .. . ... : ... .. . ... ... : ... .. . ... ... : ... .. . ... ... : ... .. . ... ...
ROW A3 : ... .. . ... ... ... : ... .. 3 ... ... ... : --- .. . ... : ... .. 1 ... : ... .. . ... ... : ... .. . ... ... : ... .. . ... ... : ... .. . ... ...
ROW A4 : ... .. 2 ... ... ... : ... .. . ... ... ... : ... .. . ... : ... .. 0 ... : ... .. . ... ... : ... .. . ... ... : ... .. . ... ... : ... .. . ... ...
ROW A5 : ... .. . ... ... ... : ... .. . ... ... ... : ... .. . ... : ... .. . ... : ... .. . ... ... : ... .. . ... ... : ... .. . ... ... : ... .. . ... ...
ROW A6 : ... .. . ... ... ... : ... .. 2 ... ... ... : ... .. . ... : ... .. . ... : ... .. . ... ... : ... .. . ... ... : ... .. . ... ... : ... .. . ... ...
ROW A7 : ... .. 1 ... ... ... : ... .. . ... ... ... : ... .. . ... : ... .. . ... : ... .. . ... ... : ... .. . ... ... : ... .. . ... ... : ... .. . ... ...
ROW A8 : G-3 00 F ... V02 ... : C-4 00 6 ... ... ... : D#4 00 . ... : 9-# 00 A V00 : ... .. . ... ... : ... .. 6 ... ... : ... .. 6 ... ... : ... .. . ... ...
ROW A9 : ... .. E ... ... ... : ... .. 5 ... ... ... : ... .. . ... : ... .. 8 ... : ... .. . ... ... : ... .. 5 ... ... : ... .. 5 ... ... : ... .. . ... ...
ROW AA : ... .. D ... ... ... : ... .. . ... ... ... : ... .. . ... : ... .. 4 ... : ... .. . ... ... : ... .. . ... ... : ... .. . ... ... : ... .. . ... ...
ROW AB : ... .. A ... ... ... : ... .. . ... ... ... : ... .. . ... : ... .. 2 ... : ... .. . ... ... : ... .. 4 ... ... : ... .. 4 ... ... : ... .. . ... ...
ROW AC : ... .. . ... ... ... : ... .. 4 ... ... ... : ... .. . ... : ... .. 1 ... : ... .. . ... ... : ... .. . ... ... : ... .. . ... ... : ... .. . ... ...
ROW AD : ... .. . ... ... ... : ... .. 3 ... ... ... : ... .. . ... : ... .. 0 ... : ... .. . ... ... : ... .. . ... ... : ... .. . ... ... : ... .. . ... ...
ROW AE : ... .. 2 ... ... ... : ... .. . ... ... ... : ... .. . ... : ... .. . ... : ... .. . ... ... : ... .. . ... ... : ... .. . ... ... : ... .. . ... ...
ROW AF : ... .. . ... ... ... : ... .. . ... ... ... : ... .. . ... : ... .. . ... : ... .. . ... ... : ... .. 3 ... ... : ... .. 3 ... ... : ... .. . ... ...
ROW B0 : ... .. . ... ... ... : ... .. 2 ... ... ... : ... .. . ... : ... .. . ... : ... .. . ... ... : ... .. 2 ... ... : ... .. 2 ... ... : ... .. . ... ...
ROW B1 : ... .. 1 ... ... ... : ... .. . ... ... ... : ... .. . ... : ... .. . ... : ... .. . ... ... : ... .. . ... ... : ... .. . ... ... : ... .. . ... ...
ROW B2 : ... .. . ... ... ... : G-3 00 6 ... ... ... : ... .. . ... : ... .. 8 ... : ... .. . ... ... : ... .. 1 ... ... : ... .. 1 ... ... : ... .. . ... ...
ROW B3 : ... .. . ... ... ... : ... .. 5 ... ... ... : ... .. . ... : ... .. 6 ... : ... .. . ... ... : ... .. . ... ... : ... .. . ... ... : ... .. . ... ...
ROW B4 : ... .. 0 ... V00 ... : ... .. . ... ... ... : ... .. . ... : ... .. 3 ... : ... .. . ... ... : ... .. . ... ... : ... .. . ... ... : ... .. . ... ...
ROW B5 : ... .. . ... ... ... : ... .. . ... ... ... : ... .. . ... : ... .. 1 ... : ... .. . ... ... : ... .. . ... ... : ... .. . ... ... : ... .. . ... ...
ROW B6 : ... .. . ... ... ... : ... .. 4 ... ... ... : ... .. . ... : ... .. . ... : ... .. . ... ... : ... .. . ... ... : ... .. . ... ... : ... .. . ... ...
ROW B7 : ... .. . ... ... ... : ... .. 3 ... ... ... : --- .. . ... : ... .. 0 ... : ... .. . ... ... : ... .. . ... ... : ... .. . ... ... : ... .. . ... ...
ROW B8 : ... .. . ... ... ... : ... .. . ... ... ... : ... .. . ... : ... .. . ... : ... .. . ... ... : ... .. . ... ... : ... .. . ... ... : ... .. . ... ...
ROW B9 : ... .. . ... ... ... : ... .. . ... ... ... : ... .. . ... : ... .. . ... : ... .. . ... ... : ... .. . ... ... : ... .. . ... ... : ... .. . ... ...
ROW BA : ... .. . ... ... ... : ... .. 2 ... ... ... : ... .. . ... : ... .. . ... : ... .. . ... ... : ... .. . ... ... : ... .. . ... ... : ... .. . ... ...
ROW BB : ... .. . ... ... ... : ... .. . ... ... ... : ... .. . ... : ... .. . ... : ... .. . ... ... : ... .. . ... ... : ... .. . ... ... : ... .. . ... ...
ROW BC : G-3 00 F P80 V02 ... : D#4 00 6 ... ... ... : D#4 00 . ... : ... .. F ... : ... .. . ... ... : D-3 01 6 ... ... : ... .. 6 ... ... : D-3 01 5 ... ...
ROW BD : ... .. E ... ... ... : ... .. 5 ... ... ... : ... .. . ... : ... .. C ... : ... .. . ... ... : ... .. 5 ... ... : ... .. 5 ... ... : ... .. 4 ... ...
ROW BE : ... .. D ... ... ... : ... .. . ... ... ... : ... .. . ... : ... .. 6 ... : ... .. . ... ... : ... .. . ... ... : ... .. . ... ... : ... .. 2 ... ...
ROW BF : ... .. A ... ... ... : ... .. . ... ... ... : ... .. . ... : ... .. 3 ... : ... .. . ... ... : ... .. 4 ... ... : ... .. 4 ... ... : ... .. . ... ...
ROW C0 : ... .. . ... ... ... : ... .. 4 ... ... ... : ... .. . ... : ... .. 2 ... : ... .. . ... ... : ... .. . ... ... : ... .. . ... ... : ... .. . ... ...
ROW C1 : ... .. . ... ... ... : ... .. 3 ... ... ... : ... .. . ... : ... .. 0 ... : ... .. . ... ... : ... .. . ... ... : ... .. . ... ... : ... .. . ... ...
ROW C2 : ... .. . ... ... ... : ... .. . ... ... ... : ... .. . ... : ... .. . ... : ... .. . ... ... : ... .. . ... ... : ... .. . ... ... : ... .. . ... ...
ROW C3 : ... .. . ... ... ... : ... .. . ... ... ... : ... .. . ... : ... .. . ... : ... .. . ... ... : ... .. 3 ... ... : ... .. 3 ... ... : ... .. . ... ...
ROW C4 : ... .. . ... ... ... : ... .. 2 ... ... ... : ... .. . ... : ... .. . ... : ... .. . ... ... : ... .. 2 ... ... : ... .. 2 ... ... : ... .. . ... ...
ROW C5 : ... .. . ... ... ... : ... .. . ... ... ... : ... .. . ... : ... .. . ... : ... .. . ... ... : ... .. . ... ... : ... .. . ... ... : ... .. . ... ...
ROW C6 : ... .. . ... ... ... : G-3 00 6 ... ... ... : ... .. . ... : ... .. . ... : ... .. . ... ... : ... .. 1 ... ... : ... .. 1 ... ... : ... .. 3 ... ...
ROW C7 : ... .. . ... ... ... : ... .. 5 ... ... ... : ... .. . ... : ... .. . ... : ... .. . ... ... : ... .. . ... ... : ... .. . ... ... : ... .. . ... ...
ROW C8 : ... .. . ... ... ... : ... .. . ... ... ... : ... .. . ... : ... .. . ... : ... .. . ... ... : ... .. . ... ... : ... .. . ... ... : ... .. . ... ...
ROW C9 : ... .. . ... ... ... : ... .. . ... ... ... : ... .. . ... : ... .. . ... : ... .. . ... ... : ... .. . ... ... : ... .. . ... ... : ... .. . ... ...
ROW CA : ... .. . ... ... ... : ... .. 4 ... ... ... : ... .. . ... : ... .. . ... : ... .. . ... ... : ... .. . ... ... : ... .. . ... ... : ... .. . ... ...
ROW CB : ... .. . ... ... ... : ... .. 3 ... ... ... : --- .. . ... : ... .. . ... : ... .. . ... ... : ... .. . ... ... : ... .. . ... ... : ... .. . ... ...
ROW CC : ... .. . ... ... ... : ... .. . ... ... ... : ... .. . ... : ... .. . ... : ... .. . ... ... : ... .. . ... ... : ... .. . ... ... : ... .. . ... ...
ROW CD : ... .. . ... ... ... : ... .. . ... ... ... : ... .. . ... : ... .. . ... : ... .. . ... ... : ... .. . ... ... : ... .. . ... ... : ... .. . ... ...
ROW CE : ... .. . ... ... ... : ... .. 2 ... ... ... : ... .. . ... : ... .. . ... : ... .. . ... ... : ... .. . ... ... : ... .. . ... ... : ... .. . ... ...
ROW CF : ... .. . ... ... ... : ... .. . ... ... ... : ... .. . ... : ... .. . ... : ... .. . ... ... : ... .. . ... ... : ... .. . ... ... : ... .. . ... ...
ROW D0 : F-4 00 F ... ... ... : C-4 00 6 ... ... ... : G-3 00 . ... : D-# 00 8 ... : ... .. . ... ... : ... .. 6 ... ... : ... .. 6 ... ... : ... .. . ... ...
ROW D1 : ... .. E ... ... ... : ... .. 5 ... ... ... : ... .. . ... : ... .. 7 ... : ... .. . ... ... : ... .. 5 ... ... : ... .. 5 ... ... : ... .. . ... ...
ROW D2 : ... .. D ... ... ... : ... .. . ... ... ... : ... .. . ... : ... .. . ... : ... .. . ... ... : ... .. . ... ... : ... .. . ... ... : ... .. . ... ...
ROW D3 : ... .. A ... ... ... : ... .. . ... ... ... : ... .. . ... : ... .. 6 ... : ... .. . ... ... : ... .. 4 ... ... : ... .. 4 ... ... : ... .. . ... ...
ROW D4 : ... .. . ... ... ... : ... .. 4 ... ... ... : ... .. . ... : ... .. 5 ... : ... .. . ... ... : ... .. . ... ... : ... .. . ... ... : ... .. . ... ...
ROW D5 : ... .. . ... ... ... : ... .. 3 ... ... ... : ... .. . ... : ... .. 4 ... : ... .. . ... ... : ... .. . ... ... : ... .. . ... ... : ... .. . ... ...
ROW D6 : ... .. 2 ... ... ... : ... .. . ... ... ... : ... .. . ... : ... .. . ... : ... .. . ... ... : ... .. . ... ... : ... .. . ... ... : ... .. . ... ...
ROW D7 : ... .. . ... ... ... : ... .. . ... ... ... : ... .. . ... : ... .. . ... : ... .. . ... ... : ... .. 3 ... ... : ... .. 3 ... ... : ... .. . ... ...
ROW D8 : ... .. . ... ... ... : ... .. 2 ... ... ... : ... .. . ... : ... .. 3 ... : ... .. . ... ... : ... .. 2 ... ... : ... .. 2 ... ... : ... .. . ... ...
ROW D9 : ... .. 1 ... ... ... : ... .. . ... ... ... : ... .. . ... : ... .. . ... : ... .. . ... ... : ... .. . ... ... : ... .. . ... ... : ... .. . ... ...
ROW DA : ... .. . ... ... ... : G-3 00 6 ... ... ... : ... .. . ... : ... .. 2 ... : ... .. . ... ... : ... .. 1 ... ... : ... .. 1 ... ... : ... .. . ... ...
ROW DB : ... .. . ... ... ... : ... .. 5 ... ... ... : ... .. . ... : ... .. . ... : ... .. . ... ... : ... .. . ... ... : ... .. . ... ... : ... .. . ... ...
ROW DC : ... .. 0 ... V00 ... : ... .. . ... ... ... : ... .. . ... : ... .. . ... : ... .. . ... ... : ... .. . ... ... : ... .. . ... ... : ... .. . ... ...
ROW DD : ... .. . ... ... ... : ... .. . ... ... ... : ... .. . ... : ... .. 1 ... : ... .. . ... ... : ... .. . ... ... : ... .. . ... ... : ... .. . ... ...
ROW DE : ... .. . ... ... ... : ... .. 4 ... ... ... : ... .. . ... : ... .. . ... : ... .. . ... ... : ... .. . ... ... : ... .. . ... ... : ... .. . ... ...
ROW DF : ... .. . ... ... ... : ... .. 3 ... ... ... : --- .. . ... : ... .. . ... : ... .. . ... ... : ... .. . ... ... : ... .. . ... ... : ... .. . ... ...
ROW E0 : ... .. . ... ... ... : ... .. . ... ... ... : ... .. . ... : ... .. 0 ... : ... .. . ... ... : ... .. . ... ... : ... .. . ... ... : ... .. . ... ...
ROW E1 : ... .. . ... ... ... : ... .. . ... ... ... : ... .. . ... : ... .. . ... : ... .. . ... ... : ... .. . ... ... : ... .. . ... ... : ... .. . ... ...
ROW E2 : ... .. . ... ... ... : ... .. 2 ... ... ... : ... .. . ... : ... .. . ... : ... .. . ... ... : ... .. . ... ... : ... .. . ... ... : ... .. . ... ...
ROW E3 : ... .. . ... ... ... : ... .. . ... ... ... : ... .. . ... : ... .. . ... : ... .. . ... ... : ... .. . ... ... : ... .. . ... ... : ... .. . ... ...
ROW E4 : F-4 00 F P80 V02 ... : D#4 00 6 ... ... ... : C-3 00 . ... : ... .. D ... : ... .. . ... ... : D#3 01 6 ... ... : ... .. 6 ... ... : F-3 01 6 ... ...
ROW E5 : ... .. E ... ... ... : ... .. 5 ... ... ... : ... .. . ... : ... .. B ... : ... .. . ... ... : ... .. 5 ... ... : ... .. 5 ... ... : ... .. 5 ... ...
ROW E6 : ... .. D ... ... ... : ... .. . ... ... ... : ... .. . ... : ... .. . ... : ... .. . ... ... : ... .. . ... ... : ... .. . ... ... : ... .. 3 ... ...
ROW E7 : ... .. A ... ... ... : ... .. . ... ... ... : ... .. . ... : ... .. A ... : ... .. . ... ... : ... .. 4 ... ... : ... .. 4 ... ... : ... .. . ... ...
ROW E8 : ... .. . ... ... ... : ... .. 4 ... ... ... : ... .. . ... : ... .. 8 ... : ... .. . ... ... : ... .. . ... ... : ... .. . ... ... : ... .. . ... ...
ROW E9 : ... .. . ... ... ... : ... .. 3 ... ... ... : ... .. . ... : ... .. 7 ... : ... .. . ... ... : ... .. . ... ... : ... .. . ... ... : ... .. . ... ...
ROW EA : ... .. . ... ... ... : ... .. . ... ... ... : ... .. . ... : ... .. 6 ... : ... .. . ... ... : ... .. . ... ... : ... .. . ... ... : ... .. . ... ...
ROW EB : ... .. . ... ... ... : ... .. . ... ... ... : ... .. . ... : ... .. . ... : ... .. . ... ... : ... .. 3 ... ... : ... .. 3 ... ... : ... .. . ... ...
ROW EC : ... .. . ... ... ... : ... .. 2 ... ... ... : ... .. . ... : ... .. 5 ... : ... .. . ... ... : ... .. 2 ... ... : ... .. 2 ... ... : ... .. . ... ...
ROW ED : ... .. . ... ... ... : ... .. . ... ... ... : ... .. . ... : ... .. . ... : ... .. . ... ... : ... .. . ... ... : ... .. . ... ... : ... .. . ... ...
ROW EE : ... .. . P84 ... ... : G-3 00 6 ... ... ... : ... .. . ... : ... .. 4 ... : ... .. . ... ... : ... .. 1 ... ... : ... .. 1 ... ... : ... .. . ... ...
ROW EF : F#4 00 A P7D ... ... : ... .. 5 ... ... ... : ... .. . ... : ... .. . ... : ... .. . ... ... : ... .. . ... ... : ... .. . ... ... : ... .. . ... ...
ROW F0 : ... .. . P7C ... ... : ... .. . ... ... ... : ... .. . ... : ... .. 3 ... : ... .. . ... ... : ... .. . ... ... : ... .. . ... ... : ... .. . ... ...
ROW F1 : F-4 00 A P82 ... ... : ... .. . ... ... ... : ... .. . ... : ... .. 2 ... : ... .. . ... ... : ... .. . ... ... : ... .. . ... ... : ... .. . ... ...
ROW F2 : ... .. . P7E ... ... : ... .. 4 ... ... ... : ... .. . ... : ... .. . ... : ... .. . ... ... : ... .. . ... ... : ... .. . ... ... : ... .. . ... ...
ROW F3 : E-4 00 A P85 ... ... : ... .. 3 ... ... ... : --- .. . ... : ... .. 1 ... : ... .. . ... ... : ... .. . ... ... : ... .. . ... ... : ... .. . ... ...
ROW F4 : ... .. . P84 ... ... : ... .. . ... ... ... : ... .. . ... : ... .. 0 ... : ... .. . ... ... : ... .. . ... ... : ... .. . ... ... : ... .. . ... ...
ROW F5 : F-4 00 A P7C ... ... : ... .. . ... ... ... : ... .. . ... : ... .. . ... : ... .. . ... ... : ... .. . ... ... : ... .. . ... ... : ... .. . ... ...
ROW F6 : ... .. . P80 ... ... : ... .. 2 ... ... ... : ... .. . ... : ... .. . ... : ... .. . ... ... : ... .. . ... ... : ... .. . ... ... : ... .. . ... ...
ROW F7 : ... .. . P83 ... ... : ... .. . ... ... ... : ... .. . ... : ... .. . ... : ... .. . ... ... : ... .. . ... ... : ... .. . ... ... : ... .. . ... ...
ROW F8 : D#4 00 F P80 ... ... : C-4 00 6 ... ... ... : D#4 00 . ... : 9-# 00 A ... : ... .. . ... ... : ... .. 6 ... ... : ... .. 6 ... ... : ... .. . ... ...
ROW F9 : ... .. E ... ... ... : ... .. 5 ... ... ... : ... .. . ... : ... .. 8 ... : ... .. . ... ... : ... .. 5 ... ... : ... .. 5 ... ... : ... .. . ... ...
ROW FA : ... .. D ... ... ... : ... .. . ... ... ... : ... .. . ... : ... .. 4 ... : ... .. . ... ... : ... .. . ... ... : ... .. . ... ... : ... .. . ... ...
ROW FB : ... .. A ... ... ... : ... .. . ... ... ... : ... .. . ... : ... .. 2 ... : ... .. . ... ... : ... .. 4 ... ... : ... .. 4 ... ... : ... .. . ... ...
ROW FC : ... .. . ... ... ... : ... .. 4 ... ... ... : ... .. . ... : ... .. 1 ... : ... .. . ... ... : ... .. . ... ... : ... .. . ... ... : ... .. . ... ...
ROW FD : ... .. . ... ... ... : ... .. 3 ... ... ... : ... .. . ... : ... .. 0 ... : ... .. . ... ... : ... .. . ... ... : ... .. . ... ... : ... .. . ... ...
ROW FE : ... .. 2 ... ... ... : ... .. . ... ... ... : ... .. . ... : ... .. . ... : ... .. . ... ... : ... .. . ... ... : ... .. . ... ... : ... .. . ... ...
ROW FF : ... .. . ... ... ... : ... .. . ... ... ... : ... .. . ... : ... .. 8 ... : ... .. . ... ... : ... .. 3 ... ... : ... .. 3 ... ... : ... .. . ... ...

PATTERN 1C
ROW 00 : ... .. . ... ... ... : ... .. 2 ... ... ... : ... .. . ... : ... .. 6 ... : ... .. . ... ... : ... .. 2 ... ... : ... .. 2 ... ... : ... .. . ... ...
ROW 01 : ... .. 1 ... ... ... : ... .. . ... ... ... : ... .. . ... : ... .. 3 ... : ... .. . ... ... : ... .. . ... ... : ... .. . ... ... : ... .. . ... ...
ROW 02 : D-4 00 F ... ... ... : G-3 00 6 ... ... ... : ... .. . ... : ... .. 1 ... : ... .. . ... ... : ... .. 1 ... ... : ... .. 1 ... ... : ... .. . ... ...
ROW 03 : ... .. E ... ... ... : ... .. 5 ... ... ... : ... .. . ... : ... .. . ... : ... .. . ... ... : ... .. . ... ... : ... .. . ... ... : ... .. . ... ...
ROW 04 : ... .. D ... ... ... : ... .. . ... ... ... : ... .. . ... : ... .. 0 ... : ... .. . ... ... : ... .. . ... ... : ... .. . ... ... : ... .. . ... ...
ROW 05 : ... .. A ... ... ... : ... .. . ... ... ... : ... .. . ... : ... .. C ... : ... .. . ... ... : ... .. . ... ... : ... .. . ... ... : ... .. . ... ...
ROW 06 : ... .. . ... ... ... : ... .. 4 ... ... ... : ... .. . ... : ... .. 9 ... : ... .. . ... ... : ... .. . ... ... : ... .. . ... ... : ... .. . ... ...
ROW 07 : ... .. . ... ... ... : ... .. 3 ... ... ... : --- .. . ... : ... .. 4 ... : ... .. . ... ... : ... .. . ... ... : ... .. . ... ... : ... .. . ... ...
ROW 08 : ... .. 2 ... ... ... : ... .. . ... ... ... : ... .. . ... : ... .. 2 ... : ... .. . ... ... : ... .. . ... ... : ... .. . ... ... : ... .. . ... ...
ROW 09 : ... .. . ... ... ... : ... .. . ... ... ... : ... .. . ... : ... .. 1 ... : ... .. . ... ... : ... .. . ... ... : ... .. . ... ... : ... .. . ... ...
ROW 0A : ... .. . ... ... ... : ... .. 2 ... ... ... : ... .. . ... : ... .. 0 ... : ... .. . ... ... : ... .. . ... ... : ... .. . ... ... : ... .. . ... ...
ROW 0B : ... .. 1 ... ... ... : ... .. . ... ... ... : ... .. . ... : ... .. . ... : ... .. . ... ... : ... .. . ... ... : ... .. . ... ... : ... .. . ... ...
ROW 0C : D#4 00 F ... ... ... : D-4 00 6 ... ... ... : D#4 00 . ... : ... .. F ... : ... .. . ... ... : C-3 01 6 ... ... : ... .. 6 ... ... : D#3 01 7 ... ...
ROW 0D : ... .. E ... ... ... : ... .. 5 ... ... ... : ... .. . ... : ... .. C ... : ... .. . ... ... : ... .. 5 ... ... : ... .. 5 ... ... : ... .. 6 ... ...
ROW 0E : ... .. D ... ... ... : ... .. . ... ... ... : ... .. . ... : ... .. 6 ... : ... .. . ... ... : ... .. . ... ... : ... .. . ... ... : ... .. 3 ... ...
ROW 0F : ... .. A ... ... ... : ... .. . ... ... ... : ... .. . ... : ... .. 3 ... : ... .. . ... ... : ... .. 4 ... ... : ... .. 4 ... ... : ... .. . ... ...
ROW 10 : ... .. . ... ... ... : ... .. 4 ... ... ... : ... .. . ... : ... .. 2 ... : ... .. . ... ... : ... .. . ... ... : ... .. . ... ... : ... .. . ... ...
ROW 11 : ... .. . ... ... ... : ... .. 3 ... ... ... : ... .. . ... : ... .. 0 ... : ... .. . ... ... : ... .. . ... ... : ... .. . ... ... : ... .. . ... ...
ROW 12 : ... .. . ... ... ... : ... .. . ... ... ... : ... .. . ... : ... .. . ... : ... .. . ... ... : ... .. . ... ... : ... .. . ... ... : ... .. . ... ...
ROW 13 : ... .. . ... ... ... : ... .. . ... ... ... : ... .. . ... : ... .. . ... : ... .. . ... ... : ... .. 3 ... ... : ... .. 3 ... ... : ... .. . ... ...
ROW 14 : ... .. . ... ... ... : ... .. 2 ... ... ... : ... .. . ... : ... .. . ... : ... .. . ... ... : ... .. 2 ... ... : ... .. 2 ... ... : ... .. . ... ...
ROW 15 : ... .. . ... ... ... : ... .. . ... ... ... : ... .. . ... : ... .. . ... : ... .. . ... ... : ... .. . ... ... : ... .. . ... ... : ... .. . ... ...
ROW 16 : ... .. . ... ... ... : G-3 00 6 ... ... ... : ... .. . ... : ... .. . ... : ... .. . ... ... : ... .. 1 ... ... : ... .. 1 ... ... : ... .. . ... ...
ROW 17 : ... .. . ... ... ... : ... .. 5 ... ... ... : ... .. . ... : ... .. . ... : ... .. . ... ... : ... .. . ... ... : ... .. . ... ... : ... .. . ... ...
ROW 18 : ... .. . ... ... ... : ... .. . ... ... ... : ... .. . ... : ... .. . ... : ... .. . ... ... : ... .. . ... ... : ... .. . ... ... : ... .. . ... ...
ROW 19 : ... .. . ... ... ... : ... .. . ... ... ... : ... .. . ... : ... .. . ... : ... .. . ... ... : ... .. . ... ... : ... .. . ... ... : ... .. . ... ...
ROW 1A : ... .. . ... ... ... : ... .. 4 ... ... ... : ... .. . ... : ... .. . ... : ... .. . ... ... : ... .. . ... ... : ... .. . ... ... : ... .. . ... ...
ROW 1B : ... .. . ... ... ... : ... .. 3 ... ... ... : --- .. . ... : ... .. . ... : ... .. . ... ... : ... .. . ... ... : ... .. . ... ... : ... .. . ... ...
ROW 1C : ... .. . ... ... ... : ... .. . ... ... ... : ... .. . ... : ... .. . ... : ... .. . ... ... : ... .. . ... ... : ... .. . ... ... : ... .. . ... ...
ROW 1D : ... .. . ... ... ... : ... .. . ... ... ... : ... .. . ... : ... .. . ... : ... .. . ... ... : ... .. . ... ... : ... .. . ... ... : ... .. . ... ...
ROW 1E : ... .. . ... ... ... : ... .. 2 ... ... ... : ... .. . ... : ... .. . ... : ... .. . ... ... : ... .. . ... ... : ... .. . ... ... : ... .. . ... ...
ROW 1F : ... .. . ... ... ... : ... .. . ... ... ... : ... .. . ... : ... .. . ... : ... .. . ... ... : ... .. . ... ... : ... .. . ... ... : ... .. . ... ...
ROW 20 : ... .. . ... ... ... : ... .. . ... ... ... : ... .. . ... : ... .. . ... : ... .. . ... ... : ... .. . ... ... : ... .. . ... ... : ... .. . ... ...
ROW 21 : ... .. . ... ... ... : ... .. . ... ... ... : ... .. . ... : ... .. . ... : ... .. . ... ... : ... .. . ... ... : ... .. . ... ... : ... .. . ... ...
ROW 22 : ... .. . ... ... ... : ... .. . ... ... ... : ... .. . ... : ... .. . ... : ... .. . ... ... : ... .. . ... ... : ... .. . ... ... : ... .. . ... ...
ROW 23 : ... .. . ... ... ... : ... .. . ... ... ... : ... .. . ... : ... .. . ... : ... .. . ... ... : ... .. . ... ... : ... .. . ... ... : ... .. . ... ...
ROW 24 : ... .. . ... ... ... : ... .. . ... ... ... : ... .. . ... : ... .. . ... : ... .. . ... ... : ... .. . ... ... : ... .. . ... ... : ... .. . ... ...
ROW 25 : ... .. . ... ... ... : ... .. . ... ... ... : ... .. . ... : ... .. . ... : ... .. . ... ... : ... .. . ... ... : ... .. . ... ... : ... .. . ... ...
ROW 26 : ... .. . ... ... ... : ... .. . ... ... ... : ... .. . ... : ... .. . ... : ... .. . ... ... : ... .. . ... ... : ... .. . ... ... : ... .. . ... ...
ROW 27 : ... .. . ... ... ... : ... .. . ... ... ... : ... .. . ... : ... .. . ... : ... .. . ... ... : ... .. . ... ... : ... .. . ... ... : ... .. . ... ...
ROW 28 : ... .. . ... ... ... : ... .. . ... ... ... : ... .. . ... : ... .. . ... : ... .. . ... ... : ... .. . ... ... : ... .. . ... ... : ... .. . ... ...
ROW 29 : ... .. . ... ... ... : ... .. . ... ... ... : ... .. . ... : ... .. . ... : ... .. . ... ... : ... .. . ... ... : ... .. . ... ... : ... .. . ... ...
ROW 2A : ... .. . ... ... ... : ... .. . ... ... ... : ... .. . ... : ... .. . ... : ... .. . ... ... : ... .. . ... ... : ... .. . ... ... : ... .. . ... ...
ROW 2B : ... .. . ... ... ... : ... .. . ... ... ... : ... .. . ... : ... .. . ... : ... .. . ... ... : ... .. . ... ... : ... .. . ... ... : ... .. . ... ...
ROW 2C : ... .. . ... ... ... : ... .. . ... ... ... : ... .. . ... : ... .. . ... : ... .. . ... ... : ... .. . ... ... : ... .. . ... ... : ... .. . ... ...
ROW 2D : ... .. . ... ... ... : ... .. . ... ... ... : ... .. . ... : ... .. . ... : ... .. . ... ... : ... .. . ... ... : ... .. . ... ... : ... .. . ... ...
ROW 2E : ... .. . ... ... ... : ... .. . ... ... ... : ... .. . ... : ... .. . ... : ... .. . ... ... : ... .. . ... ... : ... .. . ... ... : ... .. . ... ...
ROW 2F : ... .. . ... ... ... : ... .. . ... ... ... : ... .. . ... : ... .. . ... : ... .. . ... ... : ... .. . ... ... : ... .. . ... ... : ... .. . ... ...
ROW 30 : ... .. . ... ... ... : ... .. . ... ... ... : ... .. . ... : ... .. . ... : ... .. . ... ... : ... .. . ... ... : ... .. . ... ... : ... .. . ... ...
ROW 31 : ... .. . ... ... ... : ... .. . ... ... ... : ... .. . ... : ... .. . ... : ... .. . ... ... : ... .. . ... ... : ... .. . ... ... : ... .. . ... ...
ROW 32 : ... .. . ... ... ... : ... .. . ... ... ... : ... .. . ... : ... .. . ... : ... .. . ... ... : ... .. . ... ... : ... .. . ... ... : ... .. . ... ...
ROW 33 : ... .. . ... ... ... : ... .. . ... ... ... : ... .. . ... : ... .. . ... : ... .. . ... ... : ... .. . ... ... : ... .. . ... ... : ... .. . ... ...
ROW 34 : ... .. . ... ... ... : ... .. . ... ... ... : ... .. . ... : ... .. . ... : ... .. . ... ... : ... .. . ... ... : ... .. . ... ... : ... .. . ... ...
ROW 35 : ... .. . ... ... ... : ... .. . ... ... ... : ... .. . ... : ... .. . ... : ... .. . ... ... : ... .. . ... ... : ... .. . ... ... : ... .. . ... ...
ROW 36 : ... .. . ... ... ... : ... .. . ... ... ... : ... .. . ... : ... .. . ... : ... .. . ... ... : ... .. . ... ... : ... .. . ... ... : ... .. . ... ...
ROW 37 : ... .. . ... ... ... : ... .. . ... ... ... : ... .. . ... : ... .. . ... : ... .. . ... ... : ... .. . ... ... : ... .. . ... ... : ... .. . ... ...
ROW 38 : ... .. . ... ... ... : ... .. . ... ... ... : ... .. . ... : ... .. . ... : ... .. . ... ... : ... .. . ... ... : ... .. . ... ... : ... .. . ... ...
ROW 39 : ... .. . ... ... ... : ... .. . ... ... ... : ... .. . ... : ... .. . ... : ... .. . ... ... : ... .. . ... ... : ... .. . ... ... : ... .. . ... ...
ROW 3A : ... .. . ... ... ... : ... .. . ... ... ... : ... .. . ... : ... .. . ... : ... .. . ... ... : ... .. . ... ... : ... .. . ... ... : ... .. . ... ...
ROW 3B : ... .. . ... ... ... : ... .. . ... ... ... : ... .. . ... : ... .. . ... : ... .. . ... ... : ... .. . ... ... : ... .. . ... ... : ... .. . ... ...
ROW 3C : ... .. . ... ... ... : ... .. . ... ... ... : ... .. . ... : ... .. . ... : ... .. . ... ... : ... .. . ... ... : ... .. . ... ... : ... .. . ... ...
ROW 3D : ... .. . ... ... ... : ... .. . ... ... ... : ... .. . ... : ... .. . ... : ... .. . ... ... : ... .. . ... ... : ... .. . ... ... : ... .. . ... ...
ROW 3E : ... .. . ... ... ... : ... .. . ... ... ... : ... .. . ... : ... .. . ... : ... .. . ... ... : ... .. . ... ... : ... .. . ... ... : ... .. . ... ...
ROW 3F : ... .. . ... ... ... : ... .. . ... ... ... : ... .. . ... : ... .. . ... : ... .. . ... ... : ... .. . ... ... : ... .. . ... ... : ... .. . ... ...
ROW 40 : ... .. . ... ... ... : ... .. . ... ... ... : ... .. . ... : ... .. . ... : ... .. . ... ... : ... .. . ... ... : ... .. . ... ... : ... .. . ... ...
ROW 41 : ... .. . ... ... ... : ... .. . ... ... ... : ... .. . ... : ... .. . ... : ... .. . ... ... : ... .. . ... ... : ... .. . ... ... : ... .. . ... ...
ROW 42 : ... .. . ... ... ... : ... .. . ... ... ... : ... .. . ... : ... .. . ... : ... .. . ... ... : ... .. . ... ... : ... .. . ... ... : ... .. . ... ...
ROW 43 : ... .. . ... ... ... : ... .. . ... ... ... : ... .. . ... : ... .. . ... : ... .. . ... ... : ... .. . ... ... : ... .. . ... ... : ... .. . ... ...
ROW 44 : ... .. . ... ... ... : ... .. . ... ... ... : ... .. . ... : ... .. . ... : ... .. . ... ... : ... .. . ... ... : ... .. . ... ... : ... .. . ... ...
ROW 45 : ... .. . ... ... ... : ... .. . ... ... ... : ... .. . ... : ... .. . ... : ... .. . ... ... : ... .. . ... ... : ... .. . ... ... : ... .. . ... ...
ROW 46 : ... .. . ... ... ... : ... .. . ... ... ... : ... .. . ... : ... .. . ... : ... .. . ... ... : ... .. . ... ... : ... .. . ... ... : ... .. . ... ...
ROW 47 : ... .. . ... ... ... : ... .. . ... ... ... : ... .. . ... : ... .. . ... : ... .. . ... ... : ... .. . ... ... : ... .. . ... ... : ... .. . ... ...
ROW 48 : ... .. . ... ... ... : ... .. . ... ... ... : ... .. . ... : ... .. . ... : ... .. . ... ... : ... .. . ... ... : ... .. . ... ... : ... .. . ... ...
ROW 49 : ... .. . ... ... ... : ... .. . ... ... ... : ... .. . ... : ... .. . ... : ... .. . ... ... : ... .. . ... ... : ... .. . ... ... : ... .. . ... ...
ROW 4A : ... .. . ... ... ... : ... .. . ... ... ... : ... .. . ... : ... .. . ... : ... .. . ... ... : ... .. . ... ... : ... .. . ... ... : ... .. . ... ...
ROW 4B : ... .. . ... ... ... : ... .. . ... ... ... : ... .. . ... : ... .. . ... : ... .. . ... ... : ... .. . ... ... : ... .. . ... ... : ... .. . ... ...
ROW 4C : ... .. . ... ... ... : ... .. . ... ... ... : ... .. . ... : ... .. . ... : ... .. . ... ... : ... .. . ... ... : ... .. . ... ... : ... .. . ... ...
ROW 4D : ... .. . ... ... ... : ... .. . ... ... ... : ... .. . ... : ... .. . ... : ... .. . ... ... : ... .. . ... ... : ... .. . ... ... : ... .. . ... ...
ROW 4E : ... .. . ... ... ... : ... .. . ... ... ... : ... .. . ... : ... .. . ... : ... .. . ... ... : ... .. . ... ... : ... .. . ... ... : ... .. . ... ...
ROW 4F : ... .. . ... ... ... : ... .. . ... ... ... : ... .. . ... : ... .. . ... : ... .. . ... ... : ... .. . ... ... : ... .. . ... ... : ... .. . ... ...
ROW 50 : ... .. . ... ... ... : ... .. . ... ... ... : ... .. . ... : ... .. . ... : ... .. . ... ... : ... .. . ... ... : ... .. . ... ... : ... .. . ... ...
ROW 51 : ... .. . ... ... ... : ... .. . ... ... ... : ... .. . ... : ... .. . ... : ... .. . ... ... : ... .. . ... ... : ... .. . ... ... : ... .. . ... ...
ROW 52 : ... .. . ... ... ... : ... .. . ... ... ... : ... .. . ... : ... .. . ... : ... .. . ... ... : ... .. . ... ... : ... .. . ... ... : ... .. . ... ...
ROW 53 : ... .. . ... ... ... : ... .. . ... ... ... : ... .. . ... : ... .. . ... : ... .. . ... ... : ... .. . ... ... : ... .. . ... ... : ... .. . ... ...
ROW 54 : ... .. . ... ... ... : ... .. . ... ... ... : ... .. . ... : ... .. . ... : ... .. . ... ... : ... .. . ... ... : ... .. . ... ... : ... .. . ... ...
ROW 55 : ... .. . ... ... ... : ... .. . ... ... ... : ... .. . ... : ... .. . ... : ... .. . ... ... : ... .. . ... ... : ... .. . ... ... : ... .. . ... ...
ROW 56 : ... .. . ... ... ... : ... .. . ... ... ... : ... .. . ... : ... .. . ... : ... .. . ... ... : ... .. . ... ... : ... .. . ... ... : ... .. . ... ...
ROW 57 : ... .. . ... ... ... : ... .. . ... ... ... : ... .. . ... : ... .. . ... : ... .. . ... ... : ... .. . ... ... : ... .. . ... ... : ... .. . ... ...
ROW 58 : ... .. . ... ... ... : ... .. . ... ... ... : ... .. . ... : ... .. . ... : ... .. . ... ... : ... .. . ... ... : ... .. . ... ... : ... .. . ... ...
ROW 59 : ... .. . ... ... ... : ... .. . ... ... ... : ... .. . ... : ... .. . ... : ... .. . ... ... : ... .. . ... ... : ... .. . ... ... : ... .. . ... ...
ROW 5A : ... .. . ... ... ... : ... .. . ... ... ... : ... .. . ... : ... .. . ... : ... .. . ... ... : ... .. . ... ... : ... .. . ... ... : ... .. . ... ...
ROW 5B : ... .. . ... ... ... : ... .. . ... ... ... : ... .. . ... : ... .. . ... : ... .. . ... ... : ... .. . ... ... : ... .. . ... ... : ... .. . ... ...
ROW 5C : ... .. . ... ... ... : ... .. . ... ... ... : ... .. . ... : ... .. . ... : ... .. . ... ... : ... .. . ... ... : ... .. . ... ... : ... .. . ... ...
ROW 5D : ... .. . ... ... ... : ... .. . ... ... ... : ... .. . ... : ... .. . ... : ... .. . ... ... : ... .. . ... ... : ... .. . ... ... : ... .. . ... ...
ROW 5E : ... .. . ... ... ... : ... .. . ... ... ... : ... .. . ... : ... .. . ... : ... .. . ... ... : ... .. . ... ... : ... .. . ... ... : ... .. . ... ...
ROW 5F : ... .. . ... ... ... : ... .. . ... ... ... : ... .. . ... : ... .. . ... : ... .. . ... ... : ... .. . ... ... : ... .. . ... ... : ... .. . ... ...
ROW 60 : ... .. . ... ... ... : ... .. . ... ... ... : ... .. . ... : ... .. . ... : ... .. . ... ... : ... .. . ... ... : ... .. . ... ... : ... .. . ... ...
ROW 61 : ... .. . ... ... ... : ... .. . ... ... ... : ... .. . ... : ... .. . ... : ... .. . ... ... : ... .. . ... ... : ... .. . ... ... : ... .. . ... ...
ROW 62 : ... .. . ... ... ... : ... .. . ... ... ... : ... .. . ... : ... .. . ... : ... .. . ... ... : ... .. . ... ... : ... .. . ... ... : ... .. . ... ...
ROW 63 : ... .. . ... ... ... : ... .. . ... ... ... : ... .. . ... : ... .. . ... : ... .. . ... ... : ... .. . ... ... : ... .. . ... ... : ... .. . ... ...
ROW 64 : ... .. . ... ... ... : ... .. . ... ... ... : ... .. . ... : ... .. . ... : ... .. . ... ... : ... .. . ... ... : ... .. . ... ... : ... .. . ... ...
ROW 65 : ... .. . ... ... ... : ... .. . ... ... ... : ... .. . ... : ... .. . ... : ... .. . ... ... : ... .. . ... ... : ... .. . ... ... : ... .. . ... ...
ROW 66 : ... .. . ... ... ... : ... .. . ... ... ... : ... .. . ... : ... .. . ... : ... .. . ... ... : ... .. . ... ... : ... .. . ... ... : ... .. . ... ...
ROW 67 : ... .. . ... ... ... : ... .. . ... ... ... : ... .. . ... : ... .. . ... : ... .. . ... ... : ... .. . ... ... : ... .. . ... ... : ... .. . ... ...
ROW 68 : ... .. . ... ... ... : ... .. . ... ... ... : ... .. . ... : ... .. . ... : ... .. . ... ... : ... .. . ... ... : ... .. . ... ... : ... .. . ... ...
ROW 69 : ... .. . ... ... ... : ... .. . ... ... ... : ... .. . ... : ... .. . ... : ... .. . ... ... : ... .. . ... ... : ... .. . ... ... : ... .. . ... ...
ROW 6A : ... .. . ... ... ... : ... .. . ... ... ... : ... .. . ... : ... .. . ... : ... .. . ... ... : ... .. . ... ... : ... .. . ... ... : ... .. . ... ...
ROW 6B : ... .. . ... ... ... : ... .. . ... ... ... : ... .. . ... : ... .. . ... : ... .. . ... ... : ... .. . ... ... : ... .. . ... ... : ... .. . ... ...
ROW 6C : ... .. . ... ... ... : ... .. . ... ... ... : ... .. . ... : ... .. . ... : ... .. . ... ... : ... .. . ... ... : ... .. . ... ... : ... .. . ... ...
ROW 6D : ... .. . ... ... ... : ... .. . ... ... ... : ... .. . ... : ... .. . ... : ... .. . ... ... : ... .. . ... ... : ... .. . ... ... : ... .. . ... ...
ROW 6E : ... .. . ... ... ... : ... .. . ... ... ... : ... .. . ... : ... .. . ... : ... .. . ... ... : ... .. . ... ... : ... .. . ... ... : ... .. . ... ...
ROW 6F : ... .. . ... ... ... : ... .. . ... ... ... : ... .. . ... : ... .. . ... : ... .. . ... ... : ... .. . ... ... : ... .. . ... ... : ... .. . ... ...
ROW 70 : ... .. . ... ... ... : ... .. . ... ... ... : ... .. . ... : ... .. . ... : ... .. . ... ... : ... .. . ... ... : ... .. . ... ... : ... .. . ... ...
ROW 71 : ... .. . ... ... ... : ... .. . ... ... ... : ... .. . ... : ... .. . ... : ... .. . ... ... : ... .. . ... ... : ... .. . ... ... : ... .. . ... ...
ROW 72 : ... .. . ... ... ... : ... .. . ... ... ... : ... .. . ... : ... .. . ... : ... .. . ... ... : ... .. . ... ... : ... .. . ... ... : ... .. . ... ...
ROW 73 : ... .. . ... ... ... : ... .. . ... ... ... : ... .. . ... : ... .. . ... : ... .. . ... ... : ... .. . ... ... : ... .. . ... ... : ... .. . ... ...
ROW 74 : ... .. . ... ... ... : ... .. . ... ... ... : ... .. . ... : ... .. . ... : ... .. . ... ... : ... .. . ... ... : ... .. . ... ... : ... .. . ... ...
ROW 75 : ... .. . ... ... ... : ... .. . ... ... ... : ... .. . ... : ... .. . ... : ... .. . ... ... : ... .. . ... ... : ... .. . ... ... : ... .. . ... ...
ROW 76 : ... .. . ... ... ... : ... .. . ... ... ... : ... .. . ... : ... .. . ... : ... .. . ... ... : ... .. . ... ... : ... .. . ... ... : ... .. . ... ...
ROW 77 : ... .. . ... ... ... : ... .. . ... ... ... : ... .. . ... : ... .. . ... : ... .. . ... ... : ... .. . ... ... : ... .. . ... ... : ... .. . ... ...
ROW 78 : ... .. . ... ... ... : ... .. . ... ... ... : ... .. . ... : ... .. . ... : ... .. . ... ... : ... .. . ... ... : ... .. . ... ... : ... .. . ... ...
ROW 79 : ... .. . ... ... ... : ... .. . ... ... ... : ... .. . ... : ... .. . ... : ... .. . ... ... : ... .. . ... ... : ... .. . ... ... : ... .. . ... ...
ROW 7A : ... .. . ... ... ... : ... .. . ... ... ... : ... .. . ... : ... .. . ... : ... .. . ... ... : ... .. . ... ... : ... .. . ... ... : ... .. . ... ...
ROW 7B : ... .. . ... ... ... : ... .. . ... ... ... : ... .. . ... : ... .. . ... : ... .. . ... ... : ... .. . ... ... : ... .. . ... ... : ... .. . ... ...
ROW 7C : ... .. . ... ... ... : ... .. . ... ... ... : ... .. . ... : ... .. . ... : ... .. . ... ... : ... .. . ... ... : ... .. . ... ... : ... .. . ... ...
ROW 7D : ... .. . ... ... ... : ... .. . ... ... ... : ... .. . ... : ... .. . ... : ... .. . ... ... : ... .. . ... ... : ... .. . ... ... : ... .. . ... ...
ROW 7E : ... .. . ... ... ... : ... .. . ... ... ... : ... .. . ... : ... .. . ... : ... .. . ... ... : ... .. . ... ... : ... .. . ... ... : ... .. . ... ...
ROW 7F : ... .. . ... ... ... : ... .. . ... ... ... : ... .. . ... : ... .. . ... : ... .. . ... ... : ... .. . ... ... : ... .. . ... ... : ... .. . ... ...
ROW 80 : ... .. . ... ... ... : ... .. . ... ... ... : ... .. . ... : ... .. . ... : ... .. . ... ... : ... .. . ... ... : ... .. . ... ... : ... .. . ... ...
ROW 81 : ... .. . ... ... ... : ... .. . ... ... ... : ... .. . ... : ... .. . ... : ... .. . ... ... : ... .. . ... ... : ... .. . ... ... : ... .. . ... ...
ROW 82 : ... .. . ... ... ... : ... .. . ... ... ... : ... .. . ... : ... .. . ... : ... .. . ... ... : ... .. . ... ... : ... .. . ... ... : ... .. . ... ...
ROW 83 : ... .. . ... ... ... : ... .. . ... ... ... : ... .. . ... : ... .. . ... : ... .. . ... ... : ... .. . ... ... : ... .. . ... ... : ... .. . ... ...
ROW 84 : ... .. . ... ... ... : ... .. . ... ... ... : ... .. . ... : ... .. . ... : ... .. . ... ... : ... .. . ... ... : ... .. . ... ... : ... .. . ... ...
ROW 85 : ... .. . ... ... ... : ... .. . ... ... ... : ... .. . ... : ... .. . ... : ... .. . ... ... : ... .. . ... ... : ... .. . ... ... : ... .. . ... ...
ROW 86 : ... .. . ... ... ... : ... .. . ... ... ... : ... .. . ... : ... .. . ... : ... .. . ... ... : ... .. . ... ... : ... .. . ... ... : ... .. . ... ...
ROW 87 : ... .. . ... ... ... : ... .. . ... ... ... : ... .. . ... : ... .. . ... : ... .. . ... ... : ... .. . ... ... : ... .. . ... ... : ... .. . ... ...
ROW 88 : ... .. . ... ... ... : ... .. . ... ... ... : ... .. . ... : ... .. . ... : ... .. . ... ... : ... .. . ... ... : ... .. . ... ... : ... .. . ... ...
ROW 89 : ... .. . ... ... ... : ... .. . ... ... ... : ... .. . ... : ... .. . ... : ... .. . ... ... : ... .. . ... ... : ... .. . ... ... : ... .. . ... ...
ROW 8A : ... .. . ... ... ... : ... .. . ... ... ... : ... .. . ... : ... .. . ... : ... .. . ... ... : ... .. . ... ... : ... .. . ... ... : ... .. . ... ...
ROW 8B : ... .. . ... ... ... : ... .. . ... ... ... : ... .. . ... : ... .. . ... : ... .. . ... ... : ... .. . ... ... : ... .. . ... ... : ... .. . ... ...
ROW 8C : ... .. . ... ... ... : ... .. . ... ... ... : ... .. . ... : ... .. . ... : ... .. . ... ... : ... .. . ... ... : ... .. . ... ... : ... .. . ... ...
ROW 8D : ... .. . ... ... ... : ... .. . ... ... ... : ... .. . ... : ... .. . ... : ... .. . ... ... : ... .. . ... ... : ... .. . ... ... : ... .. . ... ...
ROW 8E : ... .. . ... ... ... : ... .. . ... ... ... : ... .. . ... : ... .. . ... : ... .. . ... ... : ... .. . ... ... : ... .. . ... ... : ... .. . ... ...
ROW 8F : ... .. . ... ... ... : ... .. . ... ... ... : ... .. . ... : ... .. . ... : ... .. . ... ... : ... .. . ... ... : ... .. . ... ... : ... .. . ... ...
ROW 90 : ... .. . ... ... ... : ... .. . ... ... ... : ... .. . ... : ... .. . ... : ... .. . ... ... : ... .. . ... ... : ... .. . ... ... : ... .. . ... ...
ROW 91 : ... .. . ... ... ... : ... .. . ... ... ... : ... .. . ... : ... .. . ... : ... .. . ... ... : ... .. . ... ... : ... .. . ... ... : ... .. . ... ...
ROW 92 : ... .. . ... ... ... : ... .. . ... ... ... : ... .. . ... : ... .. . ... : ... .. . ... ... : ... .. . ... ... : ... .. . ... ... : ... .. . ... ...
ROW 93 : ... .. . ... ... ... : ... .. . ... ... ... : ... .. . ... : ... .. . ... : ... .. . ... ... : ... .. . ... ... : ... .. . ... ... : ... .. . ... ...
ROW 94 : ... .. . ... ... ... : ... .. . ... ... ... : ... .. . ... : ... .. . ... : ... .. . ... ... : ... .. . ... ... : ... .. . ... ... : ... .. . ... ...
ROW 95 : ... .. . ... ... ... : ... .. . ... ... ... : ... .. . ... : ... .. . ... : ... .. . ... ... : ... .. . ... ... : ... .. . ... ... : ... .. . ... ...
ROW 96 : ... .. . ... ... ... : ... .. . ... ... ... : ... .. . ... : ... .. . ... : ... .. . ... ... : ... .. . ... ... : ... .. . ... ... : ... .. . ... ...
ROW 97 : ... .. . ... ... ... : ... .. . ... ... ... : ... .. . ... : ... .. . ... : ... .. . ... ... : ... .. . ... ... : ... .. . ... ... : ... .. . ... ...
ROW 98 : ... .. . ... ... ... : ... .. . ... ... ... : ... .. . ... : ... .. . ... : ... .. . ... ... : ... .. . ... ... : ... .. . ... ... : ... .. . ... ...
ROW 99 : ... .. . ... ... ... : ... .. . ... ... ... : ... .. . ... : ... .. . ... : ... .. . ... ... : ... .. . ... ... : ... .. . ... ... : ... .. . ... ...
ROW 9A : ... .. . ... ... ... : ... .. . ... ... ... : ... .. . ... : ... .. . ... : ... .. . ... ... : ... .. . ... ... : ... .. . ... ... : ... .. . ... ...
ROW 9B : ... .. . ... ... ... : ... .. . ... ... ... : ... .. . ... : ... .. . ... : ... .. . ... ... : ... .. . ... ... : ... .. . ... ... : ... .. . ... ...
ROW 9C : ... .. . ... ... ... : ... .. . ... ... ... : ... .. . ... : ... .. . ... : ... .. . ... ... : ... .. . ... ... : ... .. . ... ... : ... .. . ... ...
ROW 9D : ... .. . ... ... ... : ... .. . ... ... ... : ... .. . ... : ... .. . ... : ... .. . ... ... : ... .. . ... ... : ... .. . ... ... : ... .. . ... ...
ROW 9E : ... .. . ... ... ... : ... .. . ... ... ... : ... .. . ... : ... .. . ... : ... .. . ... ... : ... .. . ... ... : ... .. . ... ... : ... .. . ... ...
ROW 9F : ... .. . ... ... ... : ... .. . ... ... ... : ... .. . ... : ... .. . ... : ... .. . ... ... : ... .. . ... ... : ... .. . ... ... : ... .. . ... ...
ROW A0 : ... .. . ... ... ... : ... .. . ... ... ... : ... .. . ... : ... .. . ... : ... .. . ... ... : ... .. . ... ... : ... .. . ... ... : ... .. . ... ...
ROW A1 : ... .. . ... ... ... : ... .. . ... ... ... : ... .. . ... : ... .. . ... : ... .. . ... ... : ... .. . ... ... : ... .. . ... ... : ... .. . ... ...
ROW A2 : ... .. . ... ... ... : ... .. . ... ... ... : ... .. . ... : ... .. . ... : ... .. . ... ... : ... .. . ... ... : ... .. . ... ... : ... .. . ... ...
ROW A3 : ... .. . ... ... ... : ... .. . ... ... ... : ... .. . ... : ... .. . ... : ... .. . ... ... : ... .. . ... ... : ... .. . ... ... : ... .. . ... ...
ROW A4 : ... .. . ... ... ... : ... .. . ... ... ... : ... .. . ... : ... .. . ... : ... .. . ... ... : ... .. . ... ... : ... .. . ... ... : ... .. . ... ...
ROW A5 : ... .. . ... ... ... : ... .. . ... ... ... : ... .. . ... : ... .. . ... : ... .. . ... ... : ... .. . ... ... : ... .. . ... ... : ... .. . ... ...
ROW A6 : ... .. . ... ... ... : ... .. . ... ... ... : ... .. . ... : ... .. . ... : ... .. . ... ... : ... .. . ... ... : ... .. . ... ... : ... .. . ... ...
ROW A7 : ... .. . ... ... ... : ... .. . ... ... ... : ... .. . ... : ... .. . ... : ... .. . ... ... : ... .. . ... ... : ... .. . ... ... : ... .. . ... ...
ROW A8 : ... .. . ... ... ... : ... .. . ... ... ... : ... .. . ... : ... .. . ... : ... .. . ... ... : ... .. . ... ... : ... .. . ... ... : ... .. . ... ...
ROW A9 : ... .. . ... ... ... : ... .. . ... ... ... : ... .. . ... : ... .. . ... : ... .. . ... ... : ... .. . ... ... : ... .. . ... ... : ... .. . ... ...
ROW AA : ... .. . ... ... ... : ... .. . ... ... ... : ... .. . ... : ... .. . ... : ... .. . ... ... : ... .. . ... ... : ... .. . ... ... : ... .. . ... ...
ROW AB : ... .. . ... ... ... : ... .. . ... ... ... : ... .. . ... : ... .. . ... : ... .. . ... ... : ... .. . ... ... : ... .. . ... ... : ... .. . ... ...
ROW AC : ... .. . ... ... ... : ... .. . ... ... ... : ... .. . ... : ... .. . ... : ... .. . ... ... : ... .. . ... ... : ... .. . ... ... : ... .. . ... ...
ROW AD : ... .. . ... ... ... : ... .. . ... ... ... : ... .. . ... : ... .. . ... : ... .. . ... ... : ... .. . ... ... : ... .. . ... ... : ... .. . ... ...
ROW AE : ... .. . ... ... ... : ... .. . ... ... ... : ... .. . ... : ... .. . ... : ... .. . ... ... : ... .. . ... ... : ... .. . ... ... : ... .. . ... ...
ROW AF : ... .. . ... ... ... : ... .. . ... ... ... : ... .. . ... : ... .. . ... : ... .. . ... ... : ... .. . ... ... : ... .. . ... ... : ... .. . ... ...
ROW B0 : ... .. . ... ... ... : ... .. . ... ... ... : ... .. . ... : ... .. . ... : ... .. . ... ... : ... .. . ... ... : ... .. . ... ... : ... .. . ... ...
ROW B1 : ... .. . ... ... ... : ... .. . ... ... ... : ... .. . ... : ... .. . ... : ... .. . ... ... : ... .. . ... ... : ... .. . ... ... : ... .. . ... ...
ROW B2 : ... .. . ... ... ... : ... .. . ... ... ... : ... .. . ... : ... .. . ... : ... .. . ... ... : ... .. . ... ... : ... .. . ... ... : ... .. . ... ...
ROW B3 : ... .. . ... ... ... : ... .. . ... ... ... : ... .. . ... : ... .. . ... : ... .. . ... ... : ... .. . ... ... : ... .. . ... ... : ... .. . ... ...
ROW B4 : ... .. . ... ... ... : ... .. . ... ... ... : ... .. . ... : ... .. . ... : ... .. . ... ... : ... .. . ... ... : ... .. . ... ... : ... .. . ... ...
ROW B5 : ... .. . ... ... ... : ... .. . ... ... ... : ... .. . ... : ... .. . ... : ... .. . ... ... : ... .. . ... ... : ... .. . ... ... : ... .. . ... ...
ROW B6 : ... .. . ... ... ... : ... .. . ... ... ... : ... .. . ... : ... .. . ... : ... .. . ... ... : ... .. . ... ... : ... .. . ... ... : ... .. . ... ...
ROW B7 : ... .. . ... ... ... : ... .. . ... ... ... : ... .. . ... : ... .. . ... : ... .. . ... ... : ... .. . ... ... : ... .. . ... ... : ... .. . ... ...
ROW B8 : ... .. . ... ... ... : ... .. . ... ... ... : ... .. . ... : ... .. . ... : ... .. . ... ... : ... .. . ... ... : ... .. . ... ... : ... .. . ... ...
ROW B9 : ... .. . ... ... ... : ... .. . ... ... ... : ... .. . ... : ... .. . ... : ... .. . ... ... : ... .. . ... ... : ... .. . ... ... : ... .. . ... ...
ROW BA : ... .. . ... ... ... : ... .. . ... ... ... : ... .. . ... : ... .. . ... : ... .. . ... ... : ... .. . ... ... : ... .. . ... ... : ... .. . ... ...
ROW BB : ... .. . ... ... ... : ... .. . ... ... ... : ... .. . ... : ... .. . ... : ... .. . ... ... : ... .. . ... ... : ... .. . ... ... : ... .. . ... ...
ROW BC : ... .. . ... ... ... : ... .. . ... ... ... : ... .. . ... : ... .. . ... : ... .. . ... ... : ... .. . ... ... : ... .. . ... ... : ... .. . ... ...
ROW BD : ... .. . ... ... ... : ... .. . ... ... ... : ... .. . ... : ... .. . ... : ... .. . ... ... : ... .. . ... ... : ... .. . ... ... : ... .. . ... ...
ROW BE : ... .. . ... ... ... : ... .. . ... ... ... : ... .. . ... : ... .. . ... : ... .. . ... ... : ... .. . ... ... : ... .. . ... ... : ... .. . ... ...
ROW BF : ... .. . ... ... ... : ... .. . ... ... ... : ... .. . ... : ... .. . ... : ... .. . ... ... : ... .. . ... ... : ... .. . ... ... : ... .. . ... ...
ROW C0 : ... .. . ... ... ... : ... .. . ... ... ... : ... .. . ... : ... .. . ... : ... .. . ... ... : ... .. . ... ... : ... .. . ... ... : ... .. . ... ...
ROW C1 : ... .. . ... ... ... : ... .. . ... ... ... : ... .. . ... : ... .. . ... : ... .. . ... ... : ... .. . ... ... : ... .. . ... ... : ... .. . ... ...
ROW C2 : ... .. . ... ... ... : ... .. . ... ... ... : ... .. . ... : ... .. . ... : ... .. . ... ... : ... .. . ... ... : ... .. . ... ... : ... .. . ... ...
ROW C3 : ... .. . ... ... ... : ... .. . ... ... ... : ... .. . ... : ... .. . ... : ... .. . ... ... : ... .. . ... ... : ... .. . ... ... : ... .. . ... ...
ROW C4 : ... .. . ... ... ... : ... .. . ... ... ... : ... .. . ... : ... .. . ... : ... .. . ... ... : ... .. . ... ... : ... .. . ... ... : ... .. . ... ...
ROW C5 : ... .. . ... ... ... : ... .. . ... ... ... : ... .. . ... : ... .. . ... : ... .. . ... ... : ... .. . ... ... : ... .. . ... ... : ... .. . ... ...
ROW C6 : ... .. . ... ... ... : ... .. . ... ... ... : ... .. . ... : ... .. . ... : ... .. . ... ... : ... .. . ... ... : ... .. . ... ... : ... .. . ... ...
ROW C7 : ... .. . ... ... ... : ... .. . ... ... ... : ... .. . ... : ... .. . ... : ... .. . ... ... : ... .. . ... ... : ... .. . ... ... : ... .. . ... ...
ROW C8 : ... .. . ... ... ... : ... .. . ... ... ... : ... .. . ... : ... .. . ... : ... .. . ... ... : ... .. . ... ... : ... .. . ... ... : ... .. . ... ...
ROW C9 : ... .. . ... ... ... : ... .. . ... ... ... : ... .. . ... : ... .. . ... : ... .. . ... ... : ... .. . ... ... : ... .. . ... ... : ... .. . ... ...
ROW CA : ... .. . ... ... ... : ... .. . ... ... ... : ... .. . ... : ... .. . ... : ... .. . ... ... : ... .. . ... ... : ... .. . ... ... : ... .. . ... ...
ROW CB : ... .. . ... ... ... : ... .. . ... ... ... : ... .. . ... : ... .. . ... : ... .. . ... ... : ... .. . ... ... : ... .. . ... ... : ... .. . ... ...
ROW CC : ... .. . ... ... ... : ... .. . ... ... ... : ... .. . ... : ... .. . ... : ... .. . ... ... : ... .. . ... ... : ... .. . ... ... : ... .. . ... ...
ROW CD : ... .. . ... ... ... : ... .. . ... ... ... : ... .. . ... : ... .. . ... : ... .. . ... ... : ... .. . ... ... : ... .. . ... ... : ... .. . ... ...
ROW CE : ... .. . ... ... ... : ... .. . ... ... ... : ... .. . ... : ... .. . ... : ... .. . ... ... : ... .. . ... ... : ... .. . ... ... : ... .. . ... ...
ROW CF : ... .. . ... ... ... : ... .. . ... ... ... : ... .. . ... : ... .. . ... : ... .. . ... ... : ... .. . ... ... : ... .. . ... ... : ... .. . ... ...
ROW D0 : ... .. . ... ... ... : ... .. . ... ... ... : ... .. . ... : ... .. . ... : ... .. . ... ... : ... .. . ... ... : ... .. . ... ... : ... .. . ... ...
ROW D1 : ... .. . ... ... ... : ... .. . ... ... ... : ... .. . ... : ... .. . ... : ... .. . ... ... : ... .. . ... ... : ... .. . ... ... : ... .. . ... ...
ROW D2 : ... .. . ... ... ... : ... .. . ... ... ... : ... .. . ... : ... .. . ... : ... .. . ... ... : ... .. . ... ... : ... .. . ... ... : ... .. . ... ...
ROW D3 : ... .. . ... ... ... : ... .. . ... ... ... : ... .. . ... : ... .. . ... : ... .. . ... ... : ... .. . ... ... : ... .. . ... ... : ... .. . ... ...
ROW D4 : ... .. . ... ... ... : ... .. . ... ... ... : ... .. . ... : ... .. . ... : ... .. . ... ... : ... .. . ... ... : ... .. . ... ... : ... .. . ... ...
ROW D5 : ... .. . ... ... ... : ... .. . ... ... ... : ... .. . ... : ... .. . ... : ... .. . ... ... : ... .. . ... ... : ... .. . ... ... : ... .. . ... ...
ROW D6 : ... .. . ... ... ... : ... .. . ... ... ... : ... .. . ... : ... .. . ... : ... .. . ... ... : ... .. . ... ... : ... .. . ... ... : ... .. . ... ...
ROW D7 : ... .. . ... ... ... : ... .. . ... ... ... : ... .. . ... : ... .. . ... : ... .. . ... ... : ... .. . ... ... : ... .. . ... ... : ... .. . ... ...
ROW D8 : ... .. . ... ... ... : ... .. . ... ... ... : ... .. . ... : ... .. . ... : ... .. . ... ... : ... .. . ... ... : ... .. . ... ... : ... .. . ... ...
ROW D9 : ... .. . ... ... ... : ... .. . ... ... ... : ... .. . ... : ... .. . ... : ... .. . ... ... : ... .. . ... ... : ... .. . ... ... : ... .. . ... ...
ROW DA : ... .. . ... ... ... : ... .. . ... ... ... : ... .. . ... : ... .. . ... : ... .. . ... ... : ... .. . ... ... : ... .. . ... ... : ... .. . ... ...
ROW DB : ... .. . ... ... ... : ... .. . ... ... ... : ... .. . ... : ... .. . ... : ... .. . ... ... : ... .. . ... ... : ... .. . ... ... : ... .. . ... ...
ROW DC : ... .. . ... ... ... : ... .. . ... ... ... : ... .. . ... : ... .. . ... : ... .. . ... ... : ... .. . ... ... : ... .. . ... ... : ... .. . ... ...
ROW DD : ... .. . ... ... ... : ... .. . ... ... ... : ... .. . ... : ... .. . ... : ... .. . ... ... : ... .. . ... ... : ... .. . ... ... : ... .. . ... ...
ROW DE : ... .. . ... ... ... : ... .. . ... ... ... : ... .. . ... : ... .. . ... : ... .. . ... ... : ... .. . ... ... : ... .. . ... ... : ... .. . ... ...
ROW DF : ... .. . ... ... ... : ... .. . ... ... ... : ... .. . ... : ... .. . ... : ... .. . ... ... : ... .. . ... ... : ... .. . ... ... : ... .. . ... ...
ROW E0 : ... .. . ... ... ... : ... .. . ... ... ... : ... .. . ... : ... .. . ... : ... .. . ... ... : ... .. . ... ... : ... .. . ... ... : ... .. . ... ...
ROW E1 : ... .. . ... ... ... : ... .. . ... ... ... : ... .. . ... : ... .. . ... : ... .. . ... ... : ... .. . ... ... : ... .. . ... ... : ... .. . ... ...
ROW E2 : ... .. . ... ... ... : ... .. . ... ... ... : ... .. . ... : ... .. . ... : ... .. . ... ... : ... .. . ... ... : ... .. . ... ... : ... .. . ... ...
ROW E3 : ... .. . ... ... ... : ... .. . ... ... ... : ... .. . ... : ... .. . ... : ... .. . ... ... : ... .. . ... ... : ... .. . ... ... : ... .. . ... ...
ROW E4 : ... .. . ... ... ... : ... .. . ... ... ... : ... .. . ... : ... .. . ... : ... .. . ... ... : ... .. . ... ... : ... .. . ... ... : ... .. . ... ...
ROW E5 : ... .. . ... ... ... : ... .. . ... ... ... : ... .. . ... : ... .. . ... : ... .. . ... ... : ... .. . ... ... : ... .. . ... ... : ... .. . ... ...
ROW E6 : ... .. . ... ... ... : ... .. . ... ... ... : ... .. . ... : ... .. . ... : ... .. . ... ... : ... .. . ... ... : ... .. . ... ... : ... .. . ... ...
ROW E7 : ... .. . ... ... ... : ... .. . ... ... ... : ... .. . ... : ... .. . ... : ... .. . ... ... : ... .. . ... ... : ... .. . ... ... : ... .. . ... ...
ROW E8 : ... .. . ... ... ... : ... .. . ... ... ... : ... .. . ... : ... .. . ... : ... .. . ... ... : ... .. . ... ... : ... .. . ... ... : ... .. . ... ...
ROW E9 : ... .. . ... ... ... : ... .. . ... ... ... : ... .. . ... : ... .. . ... : ... .. . ... ... : ... .. . ... ... : ... .. . ... ... : ... .. . ... ...
ROW EA : ... .. . ... ... ... : ... .. . ... ... ... : ... .. . ... : ... .. . ... : ... .. . ... ... : ... .. . ... ... : ... .. . ... ... : ... .. . ... ...
ROW EB : ... .. . ... ... ... : ... .. . ... ... ... : ... .. . ... : ... .. . ... : ... .. . ... ... : ... .. . ... ... : ... .. . ... ... : ... .. . ... ...
ROW EC : ... .. . ... ... ... : ... .. . ... ... ... : ... .. . ... : ... .. . ... : ... .. . ... ... : ... .. . ... ... : ... .. . ... ... : ... .. . ... ...
ROW ED : ... .. . ... ... ... : ... .. . ... ... ... : ... .. . ... : ... .. . ... : ... .. . ... ... : ... .. . ... ... : ... .. . ... ... : ... .. . ... ...
ROW EE : ... .. . ... ... ... : ... .. . ... ... ... : ... .. . ... : ... .. . ... : ... .. . ... ... : ... .. . ... ... : ... .. . ... ... : ... .. . ... ...
ROW EF : ... .. . ... ... ... : ... .. . ... ... ... : ... .. . ... : ... .. . ... : ... .. . ... ... : ... .. . ... ... : ... .. . ... ... : ... .. . ... ...
ROW F0 : ... .. . ... ... ... : ... .. . ... ... ... : ... .. . ... : ... .. . ... : ... .. . ... ... : ... .. . ... ... : ... .. . ... ... : ... .. . ... ...
ROW F1 : ... .. . ... ... ... : ... .. . ... ... ... : ... .. . ... : ... .. . ... : ... .. . ... ... : ... .. . ... ... : ... .. . ... ... : ... .. . ... ...
ROW F2 : ... .. . ... ... ... : ... .. . ... ... ... : ... .. . ... : ... .. . ... : ... .. . ... ... : ... .. . ... ... : ... .. . ... ... : ... .. . ... ...
ROW F3 : ... .. . ... ... ... : ... .. . ... ... ... : ... .. . ... : ... .. . ... : ... .. . ... ... : ... .. . ... ... : ... .. . ... ... : ... .. . ... ...
ROW F4 : ... .. . ... ... ... : ... .. . ... ... ... : ... .. . ... : ... .. . ... : ... .. . ... ... : ... .. . ... ... : ... .. . ... ... : ... .. . ... ...
ROW F5 : ... .. . ... ... ... : ... .. . ... ... ... : ... .. . ... : ... .. . ... : ... .. . ... ... : ... .. . ... ... : ... .. . ... ... : ... .. . ... ...
ROW F6 : ... .. . ... ... ... : ... .. . ... ... ... : ... .. . ... : ... .. . ... : ... .. . ... ... : ... .. . ... ... : ... .. . ... ... : ... .. . ... ...
ROW F7 : ... .. . ... ... ... : ... .. . ... ... ... : ... .. . ... : ... .. . ... : ... .. . ... ... : ... .. . ... ... : ... .. . ... ... : ... .. . ... ...
ROW F8 : ... .. . ... ... ... : ... .. . ... ... ... : ... .. . ... : ... .. . ... : ... .. . ... ... : ... .. . ... ... : ... .. . ... ... : ... .. . ... ...
ROW F9 : ... .. . ... ... ... : ... .. . ... ... ... : ... .. . ... : ... .. . ... : ... .. . ... ... : ... .. . ... ... : ... .. . ... ... : ... .. . ... ...
ROW FA : ... .. . ... ... ... : ... .. . ... ... ... : ... .. . ... : ... .. . ... : ... .. . ... ... : ... .. . ... ... : ... .. . ... ... : ... .. . ... ...
ROW FB : ... .. . ... ... ... : ... .. . ... ... ... : ... .. . ... : ... .. . ... : ... .. . ... ... : ... .. . ... ... : ... .. . ... ... : ... .. . ... ...
ROW FC : ... .. . ... ... ... : ... .. . ... ... ... : ... .. . ... : ... .. . ... : ... .. . ... ... : ... .. . ... ... : ... .. . ... ... : ... .. . ... ...
ROW FD : ... .. . ... ... ... : ... .. . ... ... ... : ... .. . ... : ... .. . ... : ... .. . ... ... : ... .. . ... ... : ... .. . ... ... : ... .. . ... ...
ROW FE : ... .. . ... ... ... : ... .. . ... ... ... : ... .. . ... : ... .. . ... : ... .. . ... ... : ... .. . ... ... : ... .. . ... ... : ... .. . ... ...
ROW FF : ... .. . ... ... ... : ... .. . ... ... ... : ... .. . ... : ... .. . ... : ... .. . ... ... : ... .. . ... ... : ... .. . ... ... : ... .. . ... ...

# End of export
