# FamiTracker text export 0.4.2

# Song information
TITLE           "Shovel Knight OST"
AUTHOR          "Jake Kaufman"
COPYRIGHT       ""

# Song comment
COMMENT ""

# Global settings
MACHINE         0
FRAMERATE       0
EXPANSION       1
VIBRATO         1
SPLIT           21

# Macros

# DPCM samples

# Instruments
INST2A03   0    -1  -1  -1  -1  -1 "blank"
INSTVRC6   1    -1  -1  -1  -1  -1 "blank"

# Tracks

TRACK 256   1 150 "New song"
COLUMNS : 3 3 1 1 2 2 2 2

ORDER 00 : 00 00 00 00 00 00 00 00
ORDER 01 : 01 01 01 01 01 01 01 01
ORDER 02 : 02 02 02 02 02 02 02 02
ORDER 03 : 03 03 03 03 03 03 03 03
ORDER 04 : 04 04 04 04 04 04 04 04
ORDER 05 : 05 05 05 05 05 05 05 05
ORDER 06 : 06 06 06 06 06 06 06 06
ORDER 07 : 07 07 07 07 07 07 07 07
ORDER 08 : 08 08 08 08 08 08 08 08
ORDER 09 : 09 09 09 09 09 09 09 09
ORDER 0A : 0A 0A 0A 0A 0A 0A 0A 0A
ORDER 0B : 0B 0B 0B 0B 0B 0B 0B 0B
ORDER 0C : 0C 0C 0C 0C 0C 0C 0C 0C
ORDER 0D : 0D 0D 0D 0D 0D 0D 0D 0D
ORDER 0E : 0E 0E 0E 0E 0E 0E 0E 0E
ORDER 0F : 0F 0F 0F 0F 0F 0F 0F 0F
ORDER 10 : 10 10 10 10 10 10 10 10
ORDER 11 : 11 11 11 11 11 11 11 11
ORDER 12 : 12 12 12 12 12 12 12 12
ORDER 13 : 13 13 13 13 13 13 13 13
ORDER 14 : 14 14 14 14 14 14 14 14
ORDER 15 : 15 15 15 15 15 15 15 15
ORDER 16 : 16 16 16 16 16 16 16 16
ORDER 17 : 17 17 17 17 17 17 17 17
ORDER 18 : 18 18 18 18 18 18 18 18
ORDER 19 : 19 19 19 19 19 19 19 19
ORDER 1A : 1A 1A 1A 1A 1A 1A 1A 1A
ORDER 1B : 1B 1B 1B 1B 1B 1B 1B 1B
ORDER 1C : 1C 1C 1C 1C 1C 1C 1C 1C

PATTERN 00
ROW 00 : E-4 00 8 P80 V01 ... : A#2 00 D P80 V00 ... : B-3 00 . P80 : D-# 00 F V00 : === 00 . Z00 ... : A#2 01 A P80 V03 : F#2 01 A P80 V03 : A#3 01 8 P80 V00
ROW 01 : ... .. 7 ... ... ... : ... .. B ... ... ... : C#3 00 . ... : ... .. . ... : ... .. . ... ... : ... .. 9 ... ... : ... .. 9 ... ... : ... .. 6 ... ...
ROW 02 : ... .. 6 ... ... ... : ... .. . ... ... ... : F#2 00 . ... : ... .. . ... : ... .. . ... ... : ... .. 8 ... ... : ... .. 8 ... ... : ... .. 4 ... ...
ROW 03 : ... .. 5 ... ... ... : ... .. 9 ... ... ... : F-2 00 . ... : ... .. E ... : ... .. . ... ... : ... .. 6 ... ... : ... .. 6 ... ... : ... .. . ... ...
ROW 04 : ... .. . ... ... ... : ... .. 7 ... ... ... : C-2 00 . ... : ... .. . ... : ... .. . ... ... : ... .. . ... ... : ... .. . ... ... : ... .. . ... ...
ROW 05 : ... .. . ... ... ... : C-3 00 B ... ... ... : ... .. . ... : ... .. . ... : ... .. . ... ... : ... .. 5 ... ... : ... .. 5 ... ... : ... .. . ... ...
ROW 06 : ... .. . ... ... ... : ... .. 9 ... ... ... : ... .. . ... : ... .. . ... : ... .. . ... ... : ... .. . ... ... : ... .. . ... ... : ... .. . ... ...
ROW 07 : ... .. . ... ... ... : ... .. . ... ... ... : ... .. . ... : ... .. . ... : ... .. . ... ... : ... .. 4 ... ... : ... .. 4 ... ... : ... .. . ... ...
ROW 08 : ... .. . ... ... ... : ... .. 8 ... ... ... : ... .. . ... : ... .. D ... : ... .. . ... ... : ... .. . ... ... : ... .. . ... ... : ... .. . ... ...
ROW 09 : ... .. . ... ... ... : ... .. 6 ... ... ... : ... .. . ... : ... .. . ... : ... .. . ... ... : ... .. . ... ... : ... .. . ... ... : ... .. . ... ...
ROW 0A : ... .. . ... ... ... : E-3 00 A ... ... ... : ... .. . ... : C-# 00 D ... : ... .. . ... ... : ... .. . ... ... : ... .. . ... ... : ... .. . ... ...
ROW 0B : ... .. . ... ... ... : ... .. 8 ... ... ... : ... .. . ... : ... .. . ... : ... .. . ... ... : ... .. . ... ... : ... .. . ... ... : ... .. . ... ...
ROW 0C : ... .. . ... ... ... : ... .. . ... ... ... : ... .. . ... : ... .. . ... : ... .. . ... ... : ... .. . ... ... : ... .. . ... ... : ... .. . ... ...
ROW 0D : ... .. . ... ... ... : ... .. 7 ... ... ... : ... .. . ... : ... .. . ... : ... .. . ... ... : ... .. 3 ... ... : ... .. 3 ... ... : ... .. . ... ...
ROW 0E : ... .. . ... ... ... : ... .. 5 ... ... ... : ... .. . ... : ... .. . ... : ... .. . ... ... : ... .. . ... ... : ... .. . ... ... : ... .. . ... ...
ROW 0F : ... .. . ... ... ... : F#3 00 8 ... ... ... : ... .. . ... : ... .. C ... : ... .. . ... ... : ... .. . ... ... : ... .. . ... ... : ... .. . ... ...
ROW 10 : ... .. . ... ... ... : ... .. 7 ... ... ... : ... .. . ... : ... .. . ... : ... .. . ... ... : ... .. . ... ... : ... .. . ... ... : ... .. . ... ...
ROW 11 : ... .. . ... ... ... : ... .. . ... ... ... : ... .. . ... : ... .. . ... : ... .. . ... ... : ... .. . ... ... : ... .. . ... ... : ... .. . ... ...
ROW 12 : ... .. . P84 ... ... : ... .. 6 ... ... ... : ... .. . ... : ... .. . ... : ... .. . ... ... : ... .. . ... ... : ... .. . ... ... : ... .. . P84 ...
ROW 13 : F-4 00 5 P7C ... ... : ... .. 5 ... ... ... : ... .. . ... : ... .. . ... : ... .. . ... ... : ... .. . ... ... : ... .. . ... ... : ... .. . P86 ...
ROW 14 : E-4 00 5 P85 ... ... : D-3 00 7 ... ... ... : ... .. . ... : A-# 00 C ... : ... .. . ... ... : ... .. . ... ... : G#2 01 6 ... ... : ... .. . P85 ...
ROW 15 : ... .. . P82 ... ... : ... .. 6 ... ... ... : ... .. . ... : ... .. . ... : ... .. . ... ... : ... .. . ... ... : ... .. 5 ... ... : ... .. . P82 ...
ROW 16 : ... .. . P7E ... ... : ... .. . ... ... ... : ... .. . ... : ... .. . ... : ... .. . ... ... : ... .. . ... ... : ... .. 4 ... ... : ... .. . P7E ...
ROW 17 : D#4 00 5 P85 ... ... : ... .. 5 ... ... ... : ... .. . ... : ... .. B ... : ... .. . ... ... : ... .. 2 ... ... : ... .. 3 ... ... : ... .. . P7B ...
ROW 18 : ... .. . P84 ... ... : ... .. 4 ... ... ... : ... .. . ... : ... .. . ... : ... .. . ... ... : ... .. . ... ... : ... .. . ... ... : ... .. . P7A ...
ROW 19 : E-4 00 5 P7C ... ... : E-3 00 6 ... ... ... : ... .. . ... : ... .. . ... : ... .. . ... ... : ... .. . ... ... : ... .. . ... ... : ... .. . P7C ...
ROW 1A : ... .. . P80 ... ... : ... .. 5 ... ... ... : ... .. . ... : ... .. . ... : ... .. . ... ... : ... .. . ... ... : ... .. . ... ... : ... .. . P80 ...
ROW 1B : ... .. . P83 ... ... : ... .. . ... ... ... : ... .. . ... : ... .. . ... : ... .. . ... ... : ... .. . ... ... : ... .. 2 ... ... : ... .. . P83 ...
ROW 1C : F-4 00 5 P7C ... ... : ... .. . ... ... ... : ... .. . ... : ... .. . ... : ... .. . ... ... : ... .. . ... ... : ... .. . ... ... : ... .. . P86 ...
ROW 1D : ... .. . ... ... ... : ... .. 4 ... ... ... : ... .. . ... : ... .. . ... : ... .. . ... ... : ... .. . ... ... : ... .. . ... ... : ... .. . ... ...
ROW 1E : D-4 00 8 P80 ... ... : G#3 00 6 ... ... ... : ... .. . ... : 8-# 00 A ... : ... .. . ... ... : ... .. . ... ... : ... .. . ... ... : G#3 01 8 P80 ...
ROW 1F : ... .. 7 ... ... ... : ... .. 5 ... ... ... : ... .. . ... : ... .. . ... : ... .. . ... ... : ... .. . ... ... : ... .. . ... ... : ... .. 6 ... ...
ROW 20 : ... .. 6 ... ... ... : ... .. . ... ... ... : ... .. . ... : ... .. . ... : ... .. . ... ... : ... .. . ... ... : ... .. . ... ... : ... .. 4 ... ...
ROW 21 : ... .. 5 ... ... ... : ... .. . ... ... ... : ... .. . ... : ... .. . ... : ... .. . ... ... : ... .. . ... ... : ... .. . ... ... : ... .. . ... ...
ROW 22 : ... .. . ... ... ... : ... .. 4 ... ... ... : ... .. . ... : ... .. . ... : ... .. . ... ... : ... .. . ... ... : ... .. . ... ... : ... .. . ... ...
ROW 23 : ... .. . ... ... ... : A#3 00 6 ... ... ... : ... .. . ... : ... .. . ... : ... .. . ... ... : ... .. . ... ... : ... .. . ... ... : ... .. . ... ...
ROW 24 : ... .. . ... ... ... : ... .. 5 ... ... ... : ... .. . ... : ... .. . ... : ... .. . ... ... : ... .. . ... ... : ... .. . ... ... : ... .. . ... ...
ROW 25 : ... .. . ... ... ... : ... .. . ... ... ... : ... .. . ... : ... .. . ... : ... .. . ... ... : ... .. . ... ... : ... .. . ... ... : ... .. . ... ...
ROW 26 : ... .. . ... ... ... : ... .. . ... ... ... : ... .. . ... : ... .. 9 ... : ... .. . ... ... : ... .. . ... ... : ... .. . ... ... : ... .. . ... ...
ROW 27 : ... .. . ... ... ... : ... .. 4 ... ... ... : ... .. . ... : ... .. . ... : ... .. . ... ... : ... .. . ... ... : ... .. . ... ... : ... .. . ... ...
ROW 28 : E-4 00 8 ... ... ... : F#3 00 6 ... ... ... : ... .. . ... : 7-# 00 9 ... : ... .. . ... ... : G#2 01 5 ... ... : C-3 01 5 ... ... : A#3 01 8 ... ...
ROW 29 : ... .. 7 ... ... ... : ... .. 5 ... ... ... : ... .. . ... : ... .. . ... : ... .. . ... ... : ... .. 4 ... ... : ... .. 4 ... ... : ... .. 6 ... ...
ROW 2A : ... .. 6 ... ... ... : ... .. . ... ... ... : ... .. . ... : ... .. . ... : ... .. . ... ... : ... .. . ... ... : ... .. . ... ... : ... .. 4 ... ...
ROW 2B : ... .. 5 ... ... ... : ... .. . ... ... ... : ... .. . ... : ... .. . ... : ... .. . ... ... : ... .. 3 ... ... : ... .. 3 ... ... : ... .. . ... ...
ROW 2C : ... .. . ... ... ... : ... .. 4 ... ... ... : ... .. . ... : ... .. . ... : ... .. . ... ... : ... .. . ... ... : ... .. . ... ... : ... .. . ... ...
ROW 2D : ... .. . ... ... ... : G#3 00 6 ... ... ... : ... .. . ... : ... .. 8 ... : ... .. . ... ... : ... .. . ... ... : ... .. . ... ... : ... .. . ... ...
ROW 2E : ... .. . ... ... ... : ... .. 5 ... ... ... : ... .. . ... : ... .. . ... : ... .. . ... ... : ... .. . ... ... : ... .. . ... ... : ... .. . ... ...
ROW 2F : ... .. . ... ... ... : ... .. . ... ... ... : ... .. . ... : ... .. . ... : ... .. . ... ... : ... .. 2 ... ... : ... .. 2 ... ... : ... .. . ... ...
ROW 30 : ... .. . ... ... ... : ... .. . ... ... ... : ... .. . ... : ... .. . ... : ... .. . ... ... : ... .. . ... ... : ... .. . ... ... : ... .. . ... ...
ROW 31 : ... .. . ... ... ... : ... .. 4 ... ... ... : ... .. . ... : ... .. . ... : ... .. . ... ... : ... .. . ... ... : ... .. . ... ... : ... .. . ... ...
ROW 32 : D-4 00 8 ... ... ... : C-4 00 6 ... ... ... : ... .. . ... : 5-# 00 8 ... : ... .. . ... ... : ... .. . ... ... : ... .. . ... ... : G#3 01 8 ... ...
ROW 33 : ... .. 7 ... ... ... : ... .. 5 ... ... ... : ... .. . ... : ... .. . ... : ... .. . ... ... : ... .. . ... ... : ... .. . ... ... : ... .. 6 ... ...
ROW 34 : ... .. 6 ... ... ... : ... .. . ... ... ... : ... .. . ... : ... .. . ... : ... .. . ... ... : ... .. . ... ... : ... .. . ... ... : ... .. 4 ... ...
ROW 35 : ... .. 5 ... ... ... : ... .. . ... ... ... : ... .. . ... : ... .. 7 ... : ... .. . ... ... : ... .. . ... ... : ... .. . ... ... : ... .. . ... ...
ROW 36 : ... .. . ... ... ... : ... .. 4 ... ... ... : ... .. . ... : ... .. . ... : ... .. . ... ... : ... .. . ... ... : ... .. . ... ... : ... .. . ... ...
ROW 37 : ... .. . ... ... ... : D-4 00 6 ... ... ... : ... .. . ... : ... .. . ... : ... .. . ... ... : ... .. . ... ... : ... .. . ... ... : ... .. . ... ...
ROW 38 : ... .. . ... ... ... : ... .. 5 ... ... ... : ... .. . ... : ... .. . ... : ... .. . ... ... : ... .. . ... ... : ... .. . ... ... : ... .. . ... ...
ROW 39 : ... .. . ... ... ... : ... .. . ... ... ... : ... .. . ... : ... .. . ... : ... .. . ... ... : ... .. . ... ... : ... .. . ... ... : ... .. . ... ...
ROW 3A : ... .. . ... ... ... : ... .. 6 ... ... ... : ... .. . ... : ... .. . ... : ... .. . ... ... : ... .. 3 ... ... : ... .. 3 ... ... : ... .. . ... ...
ROW 3B : ... .. . ... ... ... : ... .. 4 ... ... ... : ... .. . ... : ... .. . ... : ... .. . ... ... : ... .. . ... ... : ... .. . ... ... : ... .. . ... ...
ROW 3C : E-4 00 8 ... ... ... : A#3 00 7 ... ... ... : ... .. . ... : 3-# 00 6 ... : ... .. . ... ... : ... .. . ... ... : D-3 01 6 ... ... : A#3 01 8 ... ...
ROW 3D : ... .. 7 ... ... ... : ... .. 6 ... ... ... : ... .. . ... : ... .. . ... : ... .. . ... ... : ... .. . ... ... : ... .. 5 ... ... : ... .. 6 ... ...
ROW 3E : ... .. 6 ... ... ... : ... .. . ... ... ... : ... .. . ... : ... .. . ... : ... .. . ... ... : ... .. . ... ... : ... .. 4 ... ... : ... .. 4 ... ...
ROW 3F : ... .. 5 ... ... ... : ... .. . ... ... ... : ... .. . ... : ... .. . ... : ... .. . ... ... : ... .. . ... ... : ... .. . ... ... : ... .. . ... ...
ROW 40 : ... .. . ... ... ... : ... .. 4 ... ... ... : ... .. . ... : ... .. . ... : ... .. . ... ... : ... .. . ... ... : ... .. . ... ... : ... .. . ... ...
ROW 41 : ... .. . ... ... ... : C-4 00 7 ... ... ... : ... .. . ... : ... .. . ... : ... .. . ... ... : ... .. . ... ... : ... .. 3 ... ... : ... .. . ... ...
ROW 42 : ... .. . ... ... ... : ... .. 6 ... ... ... : ... .. . ... : ... .. . ... : ... .. . ... ... : ... .. . ... ... : ... .. . ... ... : ... .. . ... ...
ROW 43 : ... .. . ... ... ... : ... .. . ... ... ... : ... .. . ... : ... .. . ... : ... .. . ... ... : ... .. . ... ... : ... .. . ... ... : ... .. . ... ...
ROW 44 : ... .. 6 ... ... ... : ... .. . ... ... ... : ... .. . ... : ... .. 5 ... : ... .. . ... ... : ... .. . ... ... : ... .. . ... ... : ... .. . ... ...
ROW 45 : ... .. 1 ... ... ... : ... .. 4 ... ... ... : ... .. . ... : ... .. . ... : ... .. . ... ... : ... .. . ... ... : ... .. . ... ... : ... .. . ... ...
ROW 46 : F#4 00 9 ... ... ... : E-4 00 7 ... ... ... : ... .. . ... : 1-# 00 5 ... : ... .. . ... ... : ... .. . ... ... : ... .. . ... ... : C-4 01 9 ... ...
ROW 47 : ... .. 8 ... ... ... : ... .. 6 ... ... ... : ... .. . ... : ... .. . ... : ... .. . ... ... : ... .. . ... ... : ... .. . ... ... : ... .. 7 ... ...
ROW 48 : ... .. 7 ... ... ... : ... .. . ... ... ... : ... .. . ... : ... .. . ... : ... .. . ... ... : ... .. . ... ... : ... .. . ... ... : ... .. 4 ... ...
ROW 49 : ... .. 6 ... ... ... : ... .. . ... ... ... : ... .. . ... : ... .. . ... : ... .. . ... ... : ... .. . ... ... : ... .. . ... ... : ... .. . ... ...
ROW 4A : ... .. . ... ... ... : ... .. 4 ... ... ... : ... .. . ... : ... .. . ... : ... .. . ... ... : ... .. . ... ... : ... .. . ... ... : ... .. . ... ...
ROW 4B : ... .. . ... ... ... : F#4 00 7 ... ... ... : ... .. . ... : ... .. 4 ... : ... .. . ... ... : ... .. . ... ... : ... .. . ... ... : ... .. 5 ... ...
ROW 4C : ... .. . ... ... ... : ... .. 6 ... ... ... : ... .. . ... : ... .. . ... : ... .. . ... ... : ... .. . ... ... : ... .. . ... ... : ... .. . ... ...
ROW 4D : ... .. . ... ... ... : ... .. . ... ... ... : ... .. . ... : ... .. . ... : ... .. . ... ... : ... .. . ... ... : ... .. . ... ... : ... .. . ... ...
ROW 4E : ... .. . ... ... ... : ... .. . ... ... ... : ... .. . ... : ... .. . ... : ... .. . ... ... : ... .. . ... ... : ... .. . ... ... : ... .. . ... ...
ROW 4F : ... .. 1 ... ... ... : ... .. 4 ... ... ... : ... .. . ... : ... .. . ... : ... .. . ... ... : ... .. . ... ... : ... .. . ... ... : ... .. . ... ...
ROW 50 : G#4 00 A ... ... ... : D-4 00 7 ... ... ... : ... .. . ... : ... .. . ... : ... .. . ... ... : C-3 01 6 ... ... : F#3 01 6 ... ... : D-4 01 A ... ...
ROW 51 : ... .. 9 ... ... ... : ... .. 6 ... ... ... : ... .. . ... : ... .. . ... : ... .. . ... ... : ... .. 5 ... ... : ... .. 5 ... ... : ... .. 8 ... ...
ROW 52 : ... .. 8 ... ... ... : ... .. . ... ... ... : ... .. . ... : ... .. . ... : ... .. . ... ... : ... .. 4 ... ... : ... .. 4 ... ... : ... .. 5 ... ...
ROW 53 : ... .. 7 ... ... ... : ... .. . ... ... ... : ... .. . ... : ... .. . ... : ... .. . ... ... : ... .. . ... ... : ... .. . ... ... : ... .. . ... ...
ROW 54 : ... .. . ... ... ... : ... .. 4 ... ... ... : ... .. . ... : ... .. . ... : ... .. . ... ... : ... .. . ... ... : ... .. . ... ... : ... .. . ... ...
ROW 55 : ... .. . ... ... ... : E-4 00 7 ... ... ... : ... .. . ... : ... .. . ... : ... .. . ... ... : ... .. 3 ... ... : ... .. 3 ... ... : ... .. . ... ...
ROW 56 : ... .. . ... ... ... : ... .. 6 ... ... ... : ... .. . ... : ... .. . ... : ... .. . ... ... : ... .. . ... ... : ... .. . ... ... : ... .. . ... ...
ROW 57 : ... .. . ... ... ... : ... .. . ... ... ... : ... .. . ... : ... .. . ... : ... .. . ... ... : ... .. . ... ... : ... .. . ... ... : ... .. . ... ...
ROW 58 : ... .. . ... ... ... : ... .. . ... ... ... : ... .. . ... : ... .. . ... : ... .. . ... ... : ... .. . ... ... : ... .. . ... ... : ... .. . ... ...
ROW 59 : ... .. . ... ... ... : ... .. 5 ... ... ... : ... .. . ... : ... .. . ... : ... .. . ... ... : ... .. . ... ... : ... .. . ... ... : ... .. . ... ...
ROW 5A : F#4 00 C ... ... ... : G#4 00 8 ... ... ... : ... .. . ... : ... .. . ... : ... .. . ... ... : ... .. . ... ... : ... .. . ... ... : C-4 01 C ... ...
ROW 5B : ... .. B ... ... ... : ... .. 7 ... ... ... : ... .. . ... : ... .. . ... : ... .. . ... ... : ... .. . ... ... : ... .. . ... ... : ... .. A ... ...
ROW 5C : ... .. A ... ... ... : ... .. . ... ... ... : ... .. . ... : ... .. . ... : ... .. . ... ... : ... .. . ... ... : ... .. . ... ... : ... .. 6 ... ...
ROW 5D : ... .. 8 ... ... ... : ... .. 6 ... ... ... : ... .. . ... : ... .. . ... : ... .. . ... ... : ... .. . ... ... : ... .. . ... ... : ... .. . ... ...
ROW 5E : ... .. . ... ... ... : ... .. 5 ... ... ... : ... .. . ... : ... .. . ... : ... .. . ... ... : ... .. . ... ... : ... .. . ... ... : ... .. . ... ...
ROW 5F : ... .. . ... ... ... : A#4 00 8 ... ... ... : ... .. . ... : ... .. . ... : ... .. . ... ... : ... .. . ... ... : ... .. . ... ... : ... .. . ... ...
ROW 60 : ... .. . ... ... ... : ... .. 7 ... ... ... : ... .. . ... : ... .. . ... : ... .. . ... ... : ... .. . ... ... : ... .. . ... ... : ... .. . ... ...
ROW 61 : ... .. . ... ... ... : ... .. . ... ... ... : ... .. . ... : ... .. . ... : ... .. . ... ... : ... .. . ... ... : ... .. . ... ... : ... .. . ... ...
ROW 62 : ... .. . ... ... ... : ... .. 6 ... ... ... : ... .. . ... : ... .. . ... : ... .. . ... ... : ... .. . ... ... : ... .. . ... ... : ... .. . ... ...
ROW 63 : ... .. 1 ... ... ... : ... .. 5 ... ... ... : ... .. . ... : ... .. . ... : ... .. . ... ... : ... .. . ... ... : ... .. . ... ... : ... .. . ... ...
ROW 64 : G#4 00 D ... ... ... : F#4 00 8 ... ... ... : ... .. . ... : ... .. . ... : ... .. . ... ... : ... .. . ... ... : G#3 01 6 ... ... : D-4 01 D ... ...
ROW 65 : ... .. C ... ... ... : ... .. 7 ... ... ... : ... .. . ... : ... .. . ... : ... .. . ... ... : ... .. . ... ... : ... .. . ... ... : ... .. B ... ...
ROW 66 : ... .. B ... ... ... : ... .. . ... ... ... : ... .. . ... : ... .. . ... : ... .. . ... ... : ... .. . ... ... : ... .. 5 ... ... : ... .. 6 ... ...
ROW 67 : ... .. 8 ... ... ... : ... .. 6 ... ... ... : ... .. . ... : ... .. . ... : ... .. . ... ... : ... .. . ... ... : ... .. 4 ... ... : ... .. . ... ...
ROW 68 : ... .. . ... ... ... : ... .. 5 ... ... ... : ... .. . ... : ... .. . ... : ... .. . ... ... : ... .. . ... ... : ... .. . ... ... : ... .. . ... ...
ROW 69 : ... .. 9 ... ... ... : G#4 00 8 ... ... ... : ... .. . ... : ... .. . ... : ... .. . ... ... : ... .. . ... ... : ... .. . ... ... : ... .. 7 ... ...
ROW 6A : ... .. . ... ... ... : ... .. 7 ... ... ... : ... .. . ... : ... .. . ... : ... .. . ... ... : ... .. . ... ... : ... .. . ... ... : ... .. . ... ...
ROW 6B : ... .. . ... ... ... : ... .. . ... ... ... : ... .. . ... : ... .. . ... : ... .. . ... ... : ... .. . ... ... : ... .. 3 ... ... : ... .. . ... ...
ROW 6C : ... .. . ... ... ... : ... .. 6 ... ... ... : ... .. . ... : ... .. . ... : ... .. . ... ... : ... .. . ... ... : ... .. . ... ... : ... .. . ... ...
ROW 6D : ... .. 1 ... ... ... : ... .. 5 ... ... ... : ... .. . ... : ... .. . ... : ... .. . ... ... : ... .. . ... ... : ... .. . ... ... : ... .. . ... ...
ROW 6E : A#4 00 F ... ... ... : C-5 00 8 ... ... ... : ... .. . ... : ... .. . ... : ... .. . ... ... : ... .. . ... ... : ... .. . ... ... : E-4 01 F ... ...
ROW 6F : ... .. E ... ... ... : ... .. 7 ... ... ... : ... .. . ... : ... .. . ... : ... .. . ... ... : ... .. . ... ... : ... .. . ... ... : ... .. D ... ...
ROW 70 : ... .. D ... ... ... : ... .. . ... ... ... : ... .. . ... : ... .. . ... : ... .. . ... ... : ... .. . ... ... : ... .. . ... ... : ... .. 8 ... ...
ROW 71 : ... .. A ... ... ... : ... .. 6 ... ... ... : ... .. . ... : ... .. . ... : ... .. . ... ... : ... .. . ... ... : ... .. . ... ... : ... .. . ... ...
ROW 72 : ... .. . ... ... ... : ... .. 5 ... ... ... : ... .. . ... : ... .. . ... : ... .. . ... ... : ... .. . ... ... : ... .. . ... ... : ... .. . ... ...
ROW 73 : ... .. . ... ... ... : D-5 00 8 ... ... ... : ... .. . ... : ... .. . ... : ... .. . ... ... : ... .. . ... ... : ... .. . ... ... : ... .. . ... ...
ROW 74 : ... .. . ... ... ... : ... .. 7 ... ... ... : ... .. . ... : ... .. . ... : ... .. . ... ... : ... .. . ... ... : ... .. . ... ... : ... .. . ... ...
ROW 75 : ... .. . ... ... ... : ... .. . ... ... ... : ... .. . ... : ... .. . ... : ... .. . ... ... : ... .. . ... ... : ... .. . ... ... : ... .. . ... ...
ROW 76 : ... .. 5 ... ... ... : ... .. . ... ... ... : ... .. . ... : ... .. . ... : ... .. . ... ... : ... .. . ... ... : ... .. . ... ... : ... .. 4 ... ...
ROW 77 : G#4 00 5 ... ... ... : ... .. 5 ... ... ... : ... .. . ... : ... .. . ... : ... .. . ... ... : ... .. . ... ... : ... .. . ... ... : D#4 01 4 P7C ...
ROW 78 : F#4 00 5 P81 ... ... : A#4 00 9 ... ... ... : ... .. . ... : ... .. . ... : ... .. . ... ... : D-3 01 7 ... ... : C-4 01 7 ... ... : A#3 01 8 P80 ...
ROW 79 : E-4 00 5 P85 ... ... : ... .. 8 ... ... ... : ... .. . ... : ... .. . ... : ... .. . ... ... : ... .. 6 ... ... : ... .. 6 ... ... : ... .. 6 ... ...
ROW 7A : D#4 00 5 P80 ... ... : ... .. . ... ... ... : ... .. . ... : ... .. . ... : ... .. . ... ... : ... .. 5 ... ... : ... .. 5 ... ... : ... .. 4 ... ...
ROW 7B : D-4 00 5 ... ... ... : ... .. 7 ... ... ... : ... .. . ... : ... .. . ... : ... .. . ... ... : ... .. . ... ... : ... .. . ... ... : ... .. . ... ...
ROW 7C : ... .. . ... ... ... : ... .. 5 ... ... ... : ... .. . ... : ... .. . ... : ... .. . ... ... : ... .. . ... ... : ... .. . ... ... : ... .. . ... ...
ROW 7D : ... .. . ... ... ... : C-5 00 9 ... ... ... : ... .. . ... : ... .. . ... : ... .. . ... ... : ... .. 4 ... ... : ... .. 4 ... ... : ... .. . ... ...
ROW 7E : ... .. . ... ... ... : ... .. 8 ... ... ... : ... .. . ... : ... .. . ... : ... .. . ... ... : ... .. . ... ... : ... .. . ... ... : ... .. . ... ...
ROW 7F : ... .. . ... ... ... : ... .. . ... ... ... : ... .. . ... : ... .. . ... : ... .. . ... ... : ... .. 3 ... ... : ... .. 3 ... ... : ... .. . ... ...
ROW 80 : ... .. 6 ... ... ... : ... .. 7 ... ... ... : ... .. . ... : ... .. . ... : ... .. . ... ... : ... .. . ... ... : ... .. . ... ... : ... .. . ... ...
ROW 81 : ... .. . ... ... ... : ... .. 5 ... ... ... : ... .. . ... : ... .. . ... : ... .. . ... ... : ... .. . ... ... : ... .. . ... ... : ... .. . ... ...
ROW 82 : ... .. . ... ... ... : E-5 00 9 ... ... ... : ... .. . ... : ... .. . ... : ... .. . ... ... : ... .. . ... ... : ... .. . ... ... : ... .. . ... ...
ROW 83 : ... .. . ... ... ... : ... .. 8 ... ... ... : ... .. . ... : ... .. . ... : ... .. . ... ... : ... .. . ... ... : ... .. . ... ... : ... .. . ... ...
ROW 84 : ... .. . ... ... ... : ... .. . ... ... ... : ... .. . ... : ... .. . ... : ... .. . ... ... : ... .. . ... ... : ... .. . ... ... : ... .. . ... ...
ROW 85 : ... .. . ... ... ... : ... .. 7 ... ... ... : ... .. . ... : ... .. . ... : ... .. . ... ... : ... .. . ... ... : ... .. . ... ... : ... .. 5 ... ...
ROW 86 : ... .. . ... ... ... : ... .. 5 ... ... ... : ... .. . ... : ... .. . ... : ... .. . ... ... : ... .. . ... ... : ... .. . ... ... : ... .. . ... ...
ROW 87 : ... .. . ... ... ... : F#5 00 9 ... ... ... : ... .. . ... : ... .. . ... : ... .. . ... ... : ... .. . ... ... : ... .. . ... ... : ... .. . ... ...
ROW 88 : ... .. . ... ... ... : ... .. 8 ... ... ... : ... .. . ... : ... .. . ... : ... .. . ... ... : ... .. . ... ... : ... .. . ... ... : ... .. . ... ...
ROW 89 : ... .. . ... ... ... : ... .. . ... ... ... : ... .. . ... : ... .. . ... : ... .. . ... ... : ... .. . ... ... : ... .. . ... ... : ... .. . ... ...
ROW 8A : ... .. 7 ... ... ... : ... .. 7 ... ... ... : ... .. . ... : ... .. . ... : ... .. . ... ... : ... .. . ... ... : ... .. . ... ... : ... .. . ... ...
ROW 8B : ... .. . ... ... ... : ... .. 5 ... ... ... : ... .. . ... : ... .. . ... : ... .. . ... ... : ... .. . ... ... : ... .. . ... ... : ... .. . ... ...
ROW 8C : ... .. . ... ... ... : D-5 00 A ... ... ... : ... .. . ... : ... .. . ... : ... .. . ... ... : ... .. . ... ... : D-4 01 7 ... ... : ... .. . ... ...
ROW 8D : ... .. . ... ... ... : ... .. 8 ... ... ... : ... .. . ... : ... .. . ... : ... .. . ... ... : ... .. . ... ... : ... .. 6 ... ... : ... .. . ... ...
ROW 8E : ... .. . ... ... ... : ... .. . ... ... ... : ... .. . ... : ... .. . ... : ... .. . ... ... : ... .. . ... ... : ... .. 5 ... ... : ... .. . ... ...
ROW 8F : ... .. . ... ... ... : ... .. . ... ... ... : ... .. . ... : ... .. . ... : ... .. . ... ... : ... .. . ... ... : ... .. . ... ... : ... .. . ... ...
ROW 90 : ... .. . ... ... ... : ... .. 6 ... ... ... : ... .. . ... : ... .. . ... : ... .. . ... ... : ... .. . ... ... : ... .. . ... ... : ... .. . ... ...
ROW 91 : ... .. 8 ... ... ... : E-5 00 A ... ... ... : ... .. . ... : ... .. . ... : ... .. . ... ... : ... .. . ... ... : ... .. 4 ... ... : ... .. 6 ... ...
ROW 92 : ... .. . ... ... ... : ... .. 8 ... ... ... : ... .. . ... : ... .. . ... : ... .. . ... ... : ... .. . ... ... : ... .. . ... ... : ... .. . ... ...
ROW 93 : ... .. . ... ... ... : ... .. . ... ... ... : ... .. . ... : ... .. . ... : ... .. . ... ... : ... .. . ... ... : ... .. 3 ... ... : ... .. . ... ...
ROW 94 : ... .. . ... ... ... : ... .. . ... ... ... : ... .. . ... : ... .. . ... : ... .. . ... ... : ... .. 4 ... ... : ... .. 4 ... ... : ... .. . ... ...
ROW 95 : ... .. . ... ... ... : ... .. 6 ... ... ... : ... .. . ... : ... .. . ... : ... .. . ... ... : ... .. . ... ... : ... .. . ... ... : ... .. . ... ...
ROW 96 : ... .. . ... ... ... : G#5 00 A ... ... ... : ... .. . ... : 2-# 00 5 ... : ... .. . ... ... : ... .. . ... ... : ... .. . ... ... : ... .. . ... ...
ROW 97 : ... .. . ... ... ... : ... .. 8 ... ... ... : ... .. . ... : ... .. . ... : ... .. . ... ... : ... .. . ... ... : ... .. . ... ... : ... .. . ... ...
ROW 98 : ... .. . ... ... ... : ... .. . ... ... ... : ... .. . ... : ... .. . ... : ... .. . ... ... : ... .. . ... ... : ... .. . ... ... : ... .. . ... ...
ROW 99 : ... .. . P84 ... ... : ... .. . ... ... ... : ... .. . ... : ... .. . ... : ... .. . ... ... : ... .. . ... ... : ... .. . ... ... : ... .. . P84 ...
ROW 9A : D#4 00 8 P7C ... ... : ... .. 6 ... ... ... : ... .. . ... : ... .. . ... : ... .. . ... ... : ... .. . ... ... : ... .. . ... ... : ... .. . P86 ...
ROW 9B : D-4 00 9 P85 ... ... : A#5 00 A ... ... ... : ... .. . ... : ... .. . ... : ... .. . ... ... : ... .. . ... ... : ... .. . ... ... : ... .. 7 P85 ...
ROW 9C : ... .. . P82 ... ... : ... .. 8 ... ... ... : ... .. . ... : ... .. . ... : ... .. . ... ... : ... .. . ... ... : ... .. . ... ... : ... .. . P82 ...
ROW 9D : ... .. . P7E ... ... : ... .. . ... ... ... : ... .. . ... : ... .. . ... : ... .. . ... ... : ... .. . ... ... : ... .. . ... ... : ... .. . P7E ...
ROW 9E : ... .. . P7B ... ... : ... .. . ... ... ... : ... .. . ... : ... .. 6 ... : ... .. . ... ... : ... .. . ... ... : ... .. . ... ... : ... .. . P7B ...
ROW 9F : C#4 00 9 P86 ... ... : ... .. 6 ... ... ... : ... .. . ... : ... .. . ... : ... .. . ... ... : ... .. . ... ... : ... .. . ... ... : ... .. . P7A ...
ROW A0 : D-4 00 A P7C ... ... : F#5 00 B ... ... ... : B-4 00 . ... : 3-# 00 6 ... : ... .. . ... ... : E-3 01 8 ... ... : A#3 01 8 ... ... : ... .. 8 P7C ...
ROW A1 : ... .. . P80 ... ... : ... .. 9 ... ... ... : C#4 00 . ... : ... .. . ... : ... .. . ... ... : ... .. 7 ... ... : ... .. 7 ... ... : ... .. . P80 ...
ROW A2 : ... .. . P83 ... ... : ... .. . ... ... ... : F#3 00 . ... : ... .. . ... : ... .. . ... ... : ... .. 6 ... ... : ... .. 6 ... ... : ... .. . P83 ...
ROW A3 : D#4 00 A P7C ... ... : ... .. 8 ... ... ... : F-3 00 . ... : ... .. . ... : ... .. . ... ... : ... .. 5 ... ... : ... .. 5 ... ... : ... .. . P86 ...
ROW A4 : ... .. . ... ... ... : ... .. 6 ... ... ... : C-3 00 . ... : ... .. . ... : ... .. . ... ... : ... .. . ... ... : ... .. . ... ... : ... .. . ... ...
ROW A5 : D-4 00 A P82 ... ... : G#5 00 B ... ... ... : ... .. . ... : ... .. 7 ... : ... .. . ... ... : ... .. 4 ... ... : ... .. 4 ... ... : ... .. . P82 ...
ROW A6 : ... .. . P7F ... ... : ... .. 9 ... ... ... : ... .. . ... : ... .. . ... : ... .. . ... ... : ... .. . ... ... : ... .. . ... ... : ... .. . P7F ...
ROW A7 : ... .. . P7B ... ... : ... .. . ... ... ... : ... .. . ... : ... .. . ... : ... .. . ... ... : ... .. . ... ... : ... .. . ... ... : ... .. . P7B ...
ROW A8 : C#4 00 A P86 ... ... : ... .. 8 ... ... ... : ... .. . ... : ... .. . ... : ... .. . ... ... : ... .. . ... ... : ... .. . ... ... : ... .. . P7A ...
ROW A9 : D-4 00 A P7C ... ... : ... .. 6 ... ... ... : ... .. . ... : ... .. . ... : ... .. . ... ... : ... .. . ... ... : ... .. . ... ... : ... .. . P7C ...
ROW AA : ... .. . P80 ... ... : C-6 00 B ... ... ... : ... .. . ... : 5-# 00 7 ... : ... .. . ... ... : ... .. . ... ... : ... .. . ... ... : ... .. . P80 ...
ROW AB : ... .. . P83 ... ... : ... .. 9 ... ... ... : ... .. . ... : ... .. . ... : ... .. . ... ... : ... .. . ... ... : ... .. . ... ... : ... .. . P83 ...
ROW AC : D#4 00 A P7C ... ... : ... .. . ... ... ... : ... .. . ... : ... .. . ... : ... .. . ... ... : ... .. . ... ... : ... .. . ... ... : ... .. . P86 ...
ROW AD : ... .. . ... ... ... : ... .. 8 ... ... ... : ... .. . ... : ... .. . ... : ... .. . ... ... : ... .. . ... ... : ... .. . ... ... : ... .. . ... ...
ROW AE : D-4 00 A P83 ... ... : ... .. 6 ... ... ... : ... .. . ... : ... .. . ... : ... .. . ... ... : ... .. . ... ... : ... .. . ... ... : ... .. . P83 ...
ROW AF : ... .. . P80 ... ... : D-6 00 B ... ... ... : ... .. . ... : ... .. 8 ... : ... .. . ... ... : ... .. . ... ... : ... .. . ... ... : ... .. . P80 ...
ROW B0 : ... .. . P7C ... ... : ... .. 9 ... ... ... : ... .. . ... : ... .. . ... : ... .. . ... ... : ... .. . ... ... : ... .. . ... ... : ... .. . P7C ...
ROW B1 : C#4 00 A P86 ... ... : ... .. . ... ... ... : ... .. . ... : ... .. . ... : ... .. . ... ... : ... .. . ... ... : ... .. . ... ... : ... .. . P7A ...
ROW B2 : D-4 00 A P7B ... ... : ... .. 8 ... ... ... : ... .. . ... : ... .. . ... : ... .. . ... ... : ... .. . ... ... : ... .. . ... ... : ... .. . P7B ...
ROW B3 : ... .. . P7F ... ... : ... .. 6 ... ... ... : ... .. . ... : ... .. . ... : ... .. . ... ... : ... .. . ... ... : ... .. . ... ... : ... .. . P7F ...
ROW B4 : ... .. . P82 ... ... : A#5 00 C ... ... ... : ... .. . ... : 7-# 00 8 ... : ... .. . ... ... : ... .. . ... ... : C-4 01 8 ... ... : ... .. . P82 ...
ROW B5 : D#4 00 A P7C ... ... : ... .. A ... ... ... : ... .. . ... : ... .. . ... : ... .. . ... ... : ... .. . ... ... : ... .. 7 ... ... : ... .. . P86 ...
ROW B6 : ... .. . ... ... ... : ... .. . ... ... ... : ... .. . ... : ... .. . ... : ... .. . ... ... : ... .. . ... ... : ... .. 6 ... ... : ... .. . ... ...
ROW B7 : D-4 00 A P83 ... ... : ... .. 9 ... ... ... : ... .. . ... : ... .. 9 ... : ... .. . ... ... : ... .. . ... ... : ... .. . ... ... : ... .. . P83 ...
ROW B8 : ... .. . P80 ... ... : ... .. 7 ... ... ... : ... .. . ... : ... .. . ... : ... .. . ... ... : ... .. . ... ... : ... .. . ... ... : ... .. . P80 ...
ROW B9 : ... .. . P7C ... ... : C-6 00 C ... ... ... : ... .. . ... : ... .. . ... : ... .. . ... ... : ... .. . ... ... : ... .. 5 ... ... : ... .. . P7C ...
ROW BA : C#4 00 A P86 ... ... : ... .. A ... ... ... : ... .. . ... : ... .. . ... : ... .. . ... ... : ... .. . ... ... : ... .. . ... ... : ... .. . P7A ...
ROW BB : D-4 00 A P7B ... ... : ... .. . ... ... ... : ... .. . ... : ... .. . ... : ... .. . ... ... : ... .. . ... ... : ... .. 4 ... ... : ... .. . P7B ...
ROW BC : ... .. . P7E ... ... : ... .. 9 ... ... ... : ... .. . ... : ... .. . ... : ... .. . ... ... : ... .. . ... ... : ... .. . ... ... : ... .. . P7E ...
ROW BD : ... .. . P82 ... ... : ... .. 7 ... ... ... : ... .. . ... : ... .. . ... : ... .. . ... ... : ... .. . ... ... : ... .. . ... ... : ... .. . P82 ...
ROW BE : ... .. . P85 ... ... : E-6 00 C ... ... ... : ... .. . ... : 8-# 00 A ... : ... .. . ... ... : ... .. . ... ... : ... .. . ... ... : ... .. . P85 ...
ROW BF : D#4 00 A P7C ... ... : ... .. A ... ... ... : ... .. . ... : ... .. . ... : ... .. . ... ... : ... .. . ... ... : ... .. . ... ... : ... .. . P86 ...
ROW C0 : D-4 00 A P84 ... ... : ... .. . ... ... ... : ... .. . ... : ... .. . ... : ... .. . ... ... : ... .. . ... ... : ... .. . ... ... : ... .. . P84 ...
ROW C1 : ... .. . P80 ... ... : ... .. 9 ... ... ... : ... .. . ... : ... .. . ... : ... .. . ... ... : ... .. . ... ... : ... .. . ... ... : ... .. . P80 ...
ROW C2 : ... .. . P7D ... ... : ... .. 7 ... ... ... : ... .. . ... : ... .. . ... : ... .. . ... ... : ... .. . ... ... : ... .. . ... ... : ... .. . P7D ...
ROW C3 : C#4 00 9 P86 ... ... : F#6 00 C ... ... ... : ... .. . ... : ... .. . ... : ... .. . ... ... : ... .. . ... ... : ... .. . ... ... : ... .. 7 P7A ...
ROW C4 : ... .. . ... ... ... : ... .. A ... ... ... : ... .. . ... : ... .. . ... : ... .. . ... ... : ... .. . ... ... : ... .. . ... ... : ... .. . ... ...
ROW C5 : D-4 00 9 P7E ... ... : ... .. . ... ... ... : ... .. . ... : ... .. . ... : ... .. . ... ... : ... .. . ... ... : ... .. . ... ... : ... .. . P7E ...
ROW C6 : ... .. 8 P81 ... ... : ... .. 9 ... ... ... : ... .. . ... : ... .. B ... : ... .. . ... ... : ... .. . ... ... : ... .. . ... ... : ... .. 6 P81 ...
ROW C7 : ... .. . P85 ... ... : ... .. 7 ... ... ... : ... .. . ... : ... .. . ... : ... .. . ... ... : ... .. . ... ... : ... .. . ... ... : ... .. . P85 ...
ROW C8 : D#4 00 8 P7C ... ... : D-6 00 D ... ... ... : B-2 00 . P89 : A-# 00 B ... : ... .. . ... ... : C-3 01 8 ... ... : E-4 01 8 ... ... : ... .. . P86 ...
ROW C9 : D-4 00 8 P84 ... ... : ... .. B ... ... ... : ... .. . P79 : ... .. . ... : ... .. . ... ... : ... .. 7 ... ... : ... .. 7 ... ... : ... .. . P84 ...
ROW CA : ... .. . P80 ... ... : ... .. . ... ... ... : A#2 00 . P84 : ... .. . ... : ... .. . ... ... : ... .. 6 ... ... : ... .. 6 ... ... : ... .. . P80 ...
ROW CB : ... .. . P7D ... ... : ... .. 9 ... ... ... : ... .. . P74 : ... .. . ... : ... .. . ... ... : ... .. . ... ... : ... .. . ... ... : ... .. . P7D ...
ROW CC : C#4 00 8 P86 ... ... : ... .. 7 ... ... ... : A-2 00 . P80 : ... .. . ... : ... .. . ... ... : ... .. . ... ... : ... .. . ... ... : ... .. . P7A ...
ROW CD : D-4 00 7 P80 ... ... : E-6 00 B ... ... ... : G#2 00 . P8F : ... .. . ... : ... .. . ... ... : ... .. 5 ... ... : ... .. 5 ... ... : ... .. 5 ... ...
ROW CE : ... .. . ... ... ... : ... .. 9 ... ... ... : ... .. . P7F : ... .. . ... : ... .. . ... ... : ... .. . ... ... : ... .. . ... ... : ... .. . P7D ...
ROW CF : ... .. . ... ... ... : ... .. . ... ... ... : G-2 00 . P8F : ... .. . ... : ... .. . ... ... : ... .. 4 ... ... : ... .. 4 ... ... : ... .. . P80 ...
ROW D0 : C#4 00 7 P84 ... ... : ... .. 8 ... ... ... : ... .. . P7F : ... .. C ... : ... .. . ... ... : ... .. . ... ... : ... .. . ... ... : ... .. . P7C ...
ROW D1 : ... .. . P7C ... ... : ... .. 6 ... ... ... : F#2 00 . P91 : ... .. . ... : ... .. . ... ... : ... .. . ... ... : ... .. . ... ... : A-3 01 5 P87 ...
ROW D2 : C-4 00 6 P80 ... ... : G#6 00 A ... ... ... : ... .. . P81 : C-# 00 C ... : ... .. . ... ... : ... .. . ... ... : ... .. . ... ... : ... .. . P7E ...
ROW D3 : B-3 00 6 P84 ... ... : ... .. 8 ... ... ... : ... .. . P71 : ... .. . ... : ... .. . ... ... : ... .. . ... ... : ... .. . ... ... : G#3 01 5 P83 ...
ROW D4 : ... .. . P7C ... ... : ... .. . ... ... ... : F-2 00 . P85 : ... .. . ... : ... .. . ... ... : ... .. . ... ... : ... .. . ... ... : ... .. . P78 ...
ROW D5 : A#3 00 6 P82 ... ... : ... .. 7 ... ... ... : ... .. . P75 : ... .. . ... : ... .. . ... ... : ... .. . ... ... : ... .. . ... ... : G-3 01 4 P7E ...
ROW D6 : ... .. . P7A ... ... : ... .. 5 ... ... ... : E-2 00 . P8B : ... .. . ... : ... .. . ... ... : ... .. . ... ... : ... .. . ... ... : F#3 01 4 P8A ...
ROW D7 : A-3 00 6 P80 ... ... : A#6 00 8 ... ... ... : ... .. . P7B : ... .. D ... : ... .. . ... ... : ... .. . ... ... : ... .. . ... ... : ... .. . P85 ...
ROW D8 : G#3 00 6 P87 ... ... : ... .. 7 ... ... ... : D#2 00 . P93 : ... .. . ... : ... .. . ... ... : ... .. . ... ... : ... .. . ... ... : ... .. . P80 ...
ROW D9 : ... .. . P7F ... ... : ... .. . ... ... ... : ... .. . P83 : ... .. . ... : ... .. . ... ... : ... .. . ... ... : ... .. . ... ... : ... .. . P7C ...
ROW DA : G-3 00 5 P87 ... ... : ... .. 6 ... ... ... : ... .. . P73 : ... .. . ... : ... .. . ... ... : ... .. . ... ... : ... .. . ... ... : F-3 01 4 P8A ...
ROW DB : ... .. . P7F ... ... : ... .. 4 ... ... ... : D-2 00 . P8E : ... .. . ... : ... .. . ... ... : ... .. . ... ... : ... .. . ... ... : ... .. . P81 ...
ROW DC : F#3 00 4 P88 ... ... : F#6 00 7 ... ... ... : ... .. . P7E : D-# 00 D ... : ... .. . ... ... : ... .. . ... ... : F#4 01 9 ... ... : ... .. 3 P76 ...
ROW DD : ... .. . P80 ... ... : ... .. 6 ... ... ... : ... .. . P6E : ... .. . ... : ... .. . ... ... : ... .. . ... ... : ... .. 8 ... ... : E-3 01 3 P80 ...
ROW DE : ... .. . P78 ... ... : ... .. . ... ... ... : C#2 00 . P8B : ... .. . ... : ... .. . ... ... : ... .. . ... ... : ... .. 7 ... ... : ... .. . P75 ...
ROW DF : F-3 00 4 P82 ... ... : ... .. 5 ... ... ... : ... .. . P7B : ... .. E ... : ... .. . ... ... : ... .. . ... ... : ... .. 6 ... ... : D#3 01 3 P83 ...
ROW E0 : ... .. . P7A ... ... : ... .. 4 ... ... ... : ... .. . P6B : ... .. . ... : ... .. . ... ... : ... .. . ... ... : ... .. . ... ... : ... .. . P7D ...
ROW E1 : E-3 00 4 P85 ... ... : G#6 00 6 ... ... ... : C-2 00 . P8B : ... .. . ... : ... .. . ... ... : ... .. . ... ... : ... .. 5 ... ... : ... .. . P79 ...
ROW E2 : ... .. . P7D ... ... : ... .. 5 ... ... ... : ... .. . P7B : ... .. . ... : ... .. . ... ... : ... .. . ... ... : ... .. . ... ... : D-3 01 3 P8C ...
ROW E3 : D#3 00 4 P8A ... ... : ... .. . ... ... ... : ... .. . P6B : ... .. . ... : ... .. . ... ... : ... .. . ... ... : ... .. 4 ... ... : ... .. . P87 ...
ROW E4 : ... .. 3 P82 ... ... : ... .. 4 ... ... ... : B-1 00 . P8E : ... .. . ... : ... .. . ... ... : ... .. . ... ... : ... .. . ... ... : ... .. 2 P7F ...
ROW E5 : ... .. . P7A ... ... : ... .. 3 ... ... ... : ... .. . P7E : ... .. . ... : ... .. . ... ... : ... .. . ... ... : ... .. . ... ... : C#3 01 2 P8D ...
ROW E6 : D-3 00 3 P87 ... ... : C-6 00 5 ... ... ... : ... .. . P6E : F-# 00 F ... : ... .. . ... ... : ... .. . ... ... : ... .. . ... ... : ... .. . P82 ...
ROW E7 : ... .. . P7F ... ... : ... .. 4 ... ... ... : A#1 00 . P94 : ... .. . ... : ... .. . ... ... : ... .. . ... ... : ... .. . ... ... : ... .. . P76 ...
ROW E8 : ... .. . P77 ... ... : ... .. . ... ... ... : ... .. . P84 : ... .. . ... : ... .. . ... ... : ... .. . ... ... : ... .. . ... ... : C-3 01 2 P89 ...
ROW E9 : C#3 00 2 P86 ... ... : ... .. 3 ... ... ... : ... .. . P74 : ... .. . ... : ... .. . ... ... : ... .. . ... ... : ... .. . ... ... : ... .. . P83 ...
ROW EA : ... .. . P7E ... ... : ... .. 2 ... ... ... : ... .. . P64 : ... .. . ... : ... .. . ... ... : ... .. . ... ... : ... .. . ... ... : ... .. . P7F ...
ROW EB : ... .. . P76 ... ... : D-6 00 3 ... ... ... : A-1 00 . P8D : ... .. . ... : ... .. . ... ... : ... .. 5 ... ... : ... .. 5 ... ... : ... .. . P7A ...
ROW EC : C-3 00 2 P86 ... ... : ... .. 2 ... ... ... : ... .. . P7D : ... .. . ... : ... .. . ... ... : ... .. . ... ... : ... .. . ... ... : ... .. . P75 ...
ROW ED : ... .. . P7E ... ... : ... .. . ... ... ... : ... .. . P6D : ... .. . ... : ... .. . ... ... : ... .. . ... ... : ... .. . ... ... : B-2 01 2 P8A ...
ROW EE : ... .. 0 ... V00 ... : ... .. . ... ... ... : G#1 00 . P99 : ... .. . ... : ... .. . ... ... : ... .. . ... ... : ... .. . ... ... : --- .. . P87 ...
ROW EF : ... .. . ... ... ... : ... .. . ... ... ... : ... .. . P89 : ... .. . ... : ... .. . ... ... : ... .. . ... ... : ... .. . ... ... : ... .. . ... ...
ROW F0 : E-1 00 F P80 V01 ... : E-2 00 F P82 V02 ... : D#5 00 . P80 : B-# 00 D ... : ... .. . ... ... : B-4 01 A ... ... : B-3 01 A P81 ... : G-4 01 F P80 ...
ROW F1 : ... .. E ... ... ... : ... .. E ... ... ... : F-4 00 . ... : ... .. B ... : ... .. . ... ... : ... .. 9 ... ... : ... .. 9 ... ... : ... .. D ... ...
ROW F2 : ... .. D ... ... ... : ... .. D ... ... ... : A#3 00 . ... : ... .. . ... : ... .. . ... ... : ... .. 8 ... ... : ... .. 8 ... ... : ... .. 8 ... ...
ROW F3 : ... .. 9 ... ... ... : ... .. 9 ... ... ... : A-3 00 . ... : ... .. A ... : ... .. . ... ... : ... .. 7 ... ... : ... .. 7 ... ... : ... .. . ... ...
ROW F4 : ... .. . ... ... ... : ... .. . ... ... ... : E-3 00 . ... : ... .. 8 ... : ... .. . ... ... : ... .. . ... ... : ... .. . ... ... : ... .. . ... ...
ROW F5 : ... .. . ... ... ... : ... .. . ... ... ... : ... .. . ... : ... .. 7 ... : ... .. . ... ... : ... .. 6 ... ... : ... .. 6 ... ... : ... .. . ... ...
ROW F6 : ... .. . ... ... ... : ... .. . ... ... ... : ... .. . ... : ... .. 6 ... : ... .. . ... ... : ... .. . ... ... : ... .. . ... ... : ... .. . ... ...
ROW F7 : ... .. . ... ... ... : ... .. . ... ... ... : ... .. . ... : ... .. . ... : ... .. . ... ... : ... .. 5 ... ... : ... .. 5 ... ... : ... .. . ... ...
ROW F8 : ... .. 8 ... ... ... : ... .. 8 ... ... ... : ... .. . ... : ... .. 5 ... : ... .. . ... ... : ... .. . ... ... : ... .. . ... ... : ... .. . ... ...
ROW F9 : ... .. . ... ... ... : ... .. . ... ... ... : ... .. . ... : ... .. . ... : ... .. . ... ... : ... .. . ... ... : ... .. . ... ... : ... .. . ... ...
ROW FA : ... .. . ... ... ... : ... .. . ... ... ... : D-3 00 . P8A : ... .. 4 ... : ... .. . ... ... : G-2 01 A ... ... : E-2 01 A ... ... : E-1 01 F ... ...
ROW FB : ... .. . ... ... ... : ... .. . ... ... ... : C#3 00 . P81 : ... .. . ... : ... .. . ... ... : ... .. 9 ... ... : ... .. 9 ... ... : ... .. D ... ...
ROW FC : ... .. . ... ... ... : ... .. . ... ... ... : C-3 00 . P79 : ... .. 3 ... : ... .. . ... ... : ... .. 8 ... ... : ... .. 8 ... ... : ... .. 8 ... ...
ROW FD : ... .. . ... ... ... : ... .. . ... ... ... : A#2 00 . P8D : ... .. 2 ... : ... .. . ... ... : --- .. . P81 ... : --- .. . P84 ... : --- .. . P82 ...
ROW FE : ... .. . ... ... ... : ... .. . ... ... ... : A-2 00 . P89 : ... .. . ... : ... .. . ... ... : ... .. . ... ... : ... .. . ... ... : ... .. . ... ...
ROW FF : ... .. . ... ... ... : ... .. . ... ... ... : G#2 00 . P88 : ... .. 1 ... : ... .. . ... ... : G-2 01 A P80 ... : E-2 01 A P81 ... : E-1 01 F P80 ...

PATTERN 01
ROW 00 : ... .. . ... ... ... : ... .. . ... ... ... : G-2 00 . ... : ... .. 0 ... : ... .. . ... ... : ... .. 9 ... ... : ... .. 9 ... ... : ... .. D ... ...
ROW 01 : ... .. . ... ... ... : ... .. . ... ... ... : F#2 00 . P8A : ... .. . ... : ... .. . ... ... : ... .. 8 ... ... : ... .. 8 ... ... : ... .. 8 ... ...
ROW 02 : ... .. 7 ... ... ... : ... .. 7 ... ... ... : F-2 00 . P8E : ... .. . ... : ... .. . ... ... : --- .. . P81 ... : --- .. . P84 ... : --- .. . P82 ...
ROW 03 : ... .. . ... ... ... : ... .. . ... ... ... : ... .. . P6E : ... .. . ... : ... .. . ... ... : ... .. . ... ... : ... .. . ... ... : ... .. . ... ...
ROW 04 : ... .. . ... ... ... : ... .. . ... ... ... : D#4 00 . P80 : 7-# 00 F ... : ... .. . ... ... : G-2 01 A P80 ... : E-2 01 A P81 ... : E-1 01 F P80 ...
ROW 05 : ... .. . ... ... ... : ... .. . ... ... ... : F-3 00 . ... : ... .. C ... : ... .. . ... ... : ... .. 9 ... ... : ... .. 9 ... ... : ... .. D ... ...
ROW 06 : ... .. . ... ... ... : ... .. . ... ... ... : A#2 00 . ... : ... .. 6 ... : ... .. . ... ... : ... .. 8 ... ... : ... .. 8 ... ... : ... .. 8 ... ...
ROW 07 : ... .. 6 ... ... ... : ... .. 6 ... ... ... : A-2 00 . ... : ... .. 3 ... : ... .. . ... ... : ... .. 7 ... ... : ... .. 7 ... ... : ... .. . ... ...
ROW 08 : ... .. . ... ... ... : ... .. . ... ... ... : E-2 00 . ... : ... .. 2 ... : ... .. . ... ... : ... .. . ... ... : ... .. . ... ... : ... .. . ... ...
ROW 09 : ... .. . ... ... ... : ... .. . ... ... ... : ... .. . ... : ... .. F ... : ... .. . ... ... : ... .. 6 ... ... : ... .. 6 ... ... : ... .. . ... ...
ROW 0A : ... .. . ... ... ... : ... .. . ... ... ... : ... .. . ... : ... .. C ... : ... .. . ... ... : ... .. . ... ... : ... .. . ... ... : ... .. . ... ...
ROW 0B : ... .. . ... ... ... : ... .. . ... ... ... : ... .. . ... : ... .. 6 ... : ... .. . ... ... : ... .. 5 ... ... : ... .. 5 ... ... : ... .. . ... ...
ROW 0C : ... .. . ... ... ... : ... .. . ... ... ... : ... .. . ... : ... .. 3 ... : ... .. . ... ... : ... .. . ... ... : ... .. . ... ... : ... .. . ... ...
ROW 0D : ... .. . ... ... ... : ... .. . ... ... ... : ... .. . ... : ... .. 2 ... : ... .. . ... ... : ... .. . ... ... : ... .. . ... ... : ... .. . ... ...
ROW 0E : ... .. . ... ... ... : ... .. . ... ... ... : D#5 00 . ... : C-# 00 F ... : ... .. . ... ... : B-4 01 A ... ... : B-3 01 A ... ... : G-4 01 F ... ...
ROW 0F : ... .. . ... ... ... : ... .. . ... ... ... : F-4 00 . ... : ... .. C ... : ... .. . ... ... : ... .. 9 ... ... : ... .. 9 ... ... : ... .. D ... ...
ROW 10 : ... .. . ... ... ... : ... .. . ... ... ... : A#3 00 . ... : ... .. 6 ... : ... .. . ... ... : ... .. 8 ... ... : ... .. 8 ... ... : ... .. 8 ... ...
ROW 11 : ... .. 5 ... ... ... : ... .. 5 ... ... ... : A-3 00 . ... : ... .. 3 ... : ... .. . ... ... : ... .. 7 ... ... : ... .. 7 ... ... : ... .. . ... ...
ROW 12 : ... .. . ... ... ... : ... .. . ... ... ... : E-3 00 . ... : ... .. 2 ... : ... .. . ... ... : ... .. . ... ... : ... .. . ... ... : ... .. . ... ...
ROW 13 : ... .. . ... ... ... : ... .. . ... ... ... : ... .. . ... : ... .. F ... : ... .. . ... ... : ... .. 6 ... ... : ... .. 6 ... ... : ... .. . ... ...
ROW 14 : ... .. . ... ... ... : ... .. . ... ... ... : ... .. . ... : ... .. C ... : ... .. . ... ... : ... .. . ... ... : ... .. . ... ... : ... .. . ... ...
ROW 15 : ... .. . ... ... ... : ... .. . ... ... ... : ... .. . ... : ... .. 6 ... : ... .. . ... ... : ... .. 5 ... ... : ... .. 5 ... ... : ... .. . ... ...
ROW 16 : ... .. 4 ... ... ... : ... .. 4 ... ... ... : ... .. . ... : ... .. 3 ... : ... .. . ... ... : ... .. . ... ... : ... .. . ... ... : ... .. . ... ...
ROW 17 : ... .. . ... ... ... : ... .. . ... ... ... : ... .. . ... : ... .. 2 ... : ... .. . ... ... : ... .. . ... ... : ... .. . ... ... : ... .. . ... ...
ROW 18 : ... .. . ... ... ... : ... .. . ... ... ... : D-3 00 . P8A : 8-# 00 F ... : ... .. . ... ... : G-2 01 A ... ... : E-2 01 A ... ... : E-1 01 F ... ...
ROW 19 : ... .. . ... ... ... : ... .. . ... ... ... : C#3 00 . P81 : ... .. C ... : ... .. . ... ... : ... .. 9 ... ... : ... .. 9 ... ... : ... .. D ... ...
ROW 1A : ... .. . ... ... ... : ... .. . ... ... ... : C-3 00 . P79 : ... .. 6 ... : ... .. . ... ... : ... .. 8 ... ... : ... .. 8 ... ... : ... .. 8 ... ...
ROW 1B : ... .. . ... ... ... : ... .. . ... ... ... : A#2 00 . P8D : ... .. 3 ... : ... .. . ... ... : --- .. . P81 ... : --- .. . P84 ... : --- .. . P82 ...
ROW 1C : ... .. . ... ... ... : ... .. . ... ... ... : A-2 00 . P89 : ... .. 2 ... : ... .. . ... ... : ... .. . ... ... : ... .. . ... ... : ... .. . ... ...
ROW 1D : ... .. . ... ... ... : ... .. . ... ... ... : G#2 00 . P88 : ... .. F ... : ... .. . ... ... : G-2 01 A P80 ... : E-2 01 A P81 ... : E-1 01 F P80 ...
ROW 1E : ... .. . ... ... ... : ... .. . ... ... ... : G-2 00 . ... : ... .. C ... : ... .. . ... ... : ... .. 9 ... ... : ... .. 9 ... ... : ... .. D ... ...
ROW 1F : ... .. . ... ... ... : ... .. . ... ... ... : F#2 00 . P8A : ... .. 6 ... : ... .. . ... ... : ... .. 8 ... ... : ... .. 8 ... ... : ... .. 8 ... ...
ROW 20 : ... .. 3 ... ... ... : ... .. 3 ... ... ... : F-2 00 . P8E : ... .. 3 ... : ... .. . ... ... : --- .. . P81 ... : --- .. . P84 ... : --- .. . P82 ...
ROW 21 : ... .. . ... ... ... : ... .. . ... ... ... : ... .. . P6E : ... .. 2 ... : ... .. . ... ... : ... .. . ... ... : ... .. . ... ... : ... .. . ... ...
ROW 22 : ... .. . ... ... ... : ... .. . ... ... ... : D#4 00 . P80 : 1-# 00 F ... : ... .. . ... ... : G-2 01 A P80 ... : E-2 01 A P81 ... : E-1 01 F P80 ...
ROW 23 : ... .. . ... ... ... : ... .. . ... ... ... : F-3 00 . ... : ... .. C ... : ... .. . ... ... : ... .. 9 ... ... : ... .. 9 ... ... : ... .. D ... ...
ROW 24 : ... .. . ... ... ... : ... .. . ... ... ... : A#2 00 . ... : ... .. 6 ... : ... .. . ... ... : ... .. 8 ... ... : ... .. 8 ... ... : ... .. 8 ... ...
ROW 25 : ... .. 2 ... ... ... : ... .. 2 ... ... ... : A-2 00 . ... : ... .. 3 ... : ... .. . ... ... : ... .. 7 ... ... : ... .. 7 ... ... : ... .. . ... ...
ROW 26 : ... .. . ... ... ... : ... .. . ... ... ... : E-2 00 . ... : ... .. 2 ... : ... .. . ... ... : ... .. . ... ... : ... .. . ... ... : ... .. . ... ...
ROW 27 : ... .. . ... ... ... : ... .. . ... ... ... : ... .. . ... : ... .. F ... : ... .. . ... ... : ... .. 6 ... ... : ... .. 6 ... ... : ... .. . ... ...
ROW 28 : ... .. . ... ... ... : ... .. . ... ... ... : ... .. . ... : ... .. C ... : ... .. . ... ... : ... .. . ... ... : ... .. . ... ... : ... .. . ... ...
ROW 29 : ... .. . ... ... ... : ... .. . ... ... ... : ... .. . ... : ... .. 6 ... : ... .. . ... ... : ... .. 5 ... ... : ... .. 5 ... ... : ... .. . ... ...
ROW 2A : ... .. . ... ... ... : ... .. . ... ... ... : ... .. . ... : ... .. 3 ... : ... .. . ... ... : ... .. . ... ... : ... .. . ... ... : ... .. . ... ...
ROW 2B : ... .. . ... ... ... : ... .. . ... ... ... : ... .. . ... : ... .. 2 ... : ... .. . ... ... : ... .. . ... ... : ... .. . ... ... : ... .. . ... ...
ROW 2C : ... .. F ... ... ... : E-3 00 F ... ... ... : E-5 00 . ... : B-# 00 D ... : ... .. . ... ... : D-5 01 A ... ... : A#3 01 A ... ... : F-4 01 F ... ...
ROW 2D : ... .. E ... ... ... : ... .. E ... ... ... : F#4 00 . ... : ... .. B ... : ... .. . ... ... : ... .. 9 ... ... : ... .. 9 ... ... : ... .. D ... ...
ROW 2E : ... .. D ... ... ... : ... .. D ... ... ... : B-3 00 . ... : ... .. . ... : ... .. . ... ... : ... .. 8 ... ... : ... .. 8 ... ... : ... .. 8 ... ...
ROW 2F : ... .. 9 ... ... ... : ... .. 9 ... ... ... : A#3 00 . ... : ... .. A ... : ... .. . ... ... : ... .. 7 ... ... : ... .. 7 ... ... : ... .. . ... ...
ROW 30 : ... .. . ... ... ... : ... .. . ... ... ... : F-3 00 . ... : ... .. 8 ... : ... .. . ... ... : ... .. . ... ... : ... .. . ... ... : ... .. . ... ...
ROW 31 : ... .. . ... ... ... : ... .. . ... ... ... : ... .. . ... : ... .. 7 ... : ... .. . ... ... : ... .. 6 ... ... : ... .. 6 ... ... : ... .. . ... ...
ROW 32 : ... .. . ... ... ... : ... .. . ... ... ... : ... .. . ... : ... .. 6 ... : ... .. . ... ... : ... .. . ... ... : ... .. . ... ... : ... .. . ... ...
ROW 33 : ... .. . ... ... ... : ... .. . ... ... ... : ... .. . ... : ... .. . ... : ... .. . ... ... : ... .. 5 ... ... : ... .. 5 ... ... : ... .. . ... ...
ROW 34 : ... .. 8 ... ... ... : ... .. 8 ... ... ... : ... .. . ... : ... .. 5 ... : ... .. . ... ... : ... .. . ... ... : ... .. . ... ... : ... .. . ... ...
ROW 35 : ... .. . ... ... ... : ... .. . ... ... ... : ... .. . ... : ... .. . ... : ... .. . ... ... : ... .. . ... ... : ... .. . ... ... : ... .. . ... ...
ROW 36 : ... .. . ... ... ... : ... .. . ... ... ... : D#3 00 . P88 : ... .. 4 ... : ... .. . ... ... : A#1 01 A ... ... : E-2 01 A ... ... : E-1 01 F ... ...
ROW 37 : ... .. . ... ... ... : ... .. . ... ... ... : D-3 00 . P7D : ... .. . ... : ... .. . ... ... : ... .. 9 ... ... : ... .. 9 ... ... : ... .. D ... ...
ROW 38 : ... .. . ... ... ... : ... .. . ... ... ... : C-3 00 . P8C : ... .. 3 ... : ... .. . ... ... : ... .. 8 ... ... : ... .. 8 ... ... : ... .. 8 ... ...
ROW 39 : ... .. . ... ... ... : ... .. . ... ... ... : B-2 00 . P85 : ... .. 2 ... : ... .. . ... ... : --- .. . P7E ... : --- .. . P84 ... : --- .. . P82 ...
ROW 3A : ... .. . ... ... ... : ... .. . ... ... ... : A#2 00 . P80 : ... .. . ... : ... .. . ... ... : ... .. . ... ... : ... .. . ... ... : ... .. . ... ...
ROW 3B : ... .. . ... ... ... : ... .. . ... ... ... : A-2 00 . P7C : ... .. 1 ... : ... .. . ... ... : A#1 01 A P80 ... : E-2 01 A P81 ... : E-1 01 F P80 ...
ROW 3C : ... .. . ... ... ... : ... .. . ... ... ... : G#2 00 . P7B : ... .. 0 ... : ... .. . ... ... : ... .. 9 ... ... : ... .. 9 ... ... : ... .. D ... ...
ROW 3D : ... .. . ... ... ... : ... .. . ... ... ... : G-2 00 . ... : ... .. . ... : ... .. . ... ... : ... .. 8 ... ... : ... .. 8 ... ... : ... .. 8 ... ...
ROW 3E : ... .. 7 ... ... ... : ... .. 7 ... ... ... : F#2 00 . P7D : ... .. . ... : ... .. . ... ... : --- .. . P7E ... : --- .. . P84 ... : --- .. . P82 ...
ROW 3F : ... .. . ... ... ... : ... .. . ... ... ... : F-2 00 . P81 : ... .. . ... : ... .. . ... ... : ... .. . ... ... : ... .. . ... ... : ... .. . ... ...
ROW 40 : ... .. . ... ... ... : ... .. . ... ... ... : D#4 00 . P80 : 7-# 00 F ... : ... .. . ... ... : A#1 01 A P80 ... : E-2 01 A P81 ... : E-1 01 F P80 ...
ROW 41 : ... .. . ... ... ... : ... .. . ... ... ... : F-3 00 . ... : ... .. C ... : ... .. . ... ... : ... .. 9 ... ... : ... .. 9 ... ... : ... .. D ... ...
ROW 42 : ... .. . ... ... ... : ... .. . ... ... ... : A#2 00 . ... : ... .. 6 ... : ... .. . ... ... : ... .. 8 ... ... : ... .. 8 ... ... : ... .. 8 ... ...
ROW 43 : ... .. 6 ... ... ... : ... .. 6 ... ... ... : A-2 00 . ... : ... .. 3 ... : ... .. . ... ... : ... .. 7 ... ... : ... .. 7 ... ... : ... .. . ... ...
ROW 44 : ... .. . ... ... ... : ... .. . ... ... ... : E-2 00 . ... : ... .. 2 ... : ... .. . ... ... : ... .. . ... ... : ... .. . ... ... : ... .. . ... ...
ROW 45 : ... .. . ... ... ... : ... .. . ... ... ... : ... .. . ... : ... .. F ... : ... .. . ... ... : ... .. 6 ... ... : ... .. 6 ... ... : ... .. . ... ...
ROW 46 : ... .. . ... ... ... : ... .. . ... ... ... : ... .. . ... : ... .. C ... : ... .. . ... ... : ... .. . ... ... : ... .. . ... ... : ... .. . ... ...
ROW 47 : ... .. . ... ... ... : ... .. . ... ... ... : ... .. . ... : ... .. 6 ... : ... .. . ... ... : ... .. 5 ... ... : ... .. 5 ... ... : ... .. . ... ...
ROW 48 : ... .. . ... ... ... : ... .. . ... ... ... : ... .. . ... : ... .. 3 ... : ... .. . ... ... : ... .. . ... ... : ... .. . ... ... : ... .. . ... ...
ROW 49 : ... .. . ... ... ... : ... .. . ... ... ... : ... .. . ... : ... .. 2 ... : ... .. . ... ... : ... .. . ... ... : ... .. . ... ... : ... .. . ... ...
ROW 4A : ... .. . ... ... ... : ... .. . ... ... ... : E-5 00 . ... : B-# 00 D ... : ... .. . ... ... : D-5 01 A ... ... : A#3 01 A ... ... : F-4 01 F ... ...
ROW 4B : ... .. . ... ... ... : ... .. . ... ... ... : F#4 00 . ... : ... .. B ... : ... .. . ... ... : ... .. 9 ... ... : ... .. 9 ... ... : ... .. D ... ...
ROW 4C : ... .. . ... ... ... : ... .. . ... ... ... : B-3 00 . ... : ... .. . ... : ... .. . ... ... : ... .. 8 ... ... : ... .. 8 ... ... : ... .. 8 ... ...
ROW 4D : ... .. 5 ... ... ... : ... .. 5 ... ... ... : A#3 00 . ... : ... .. A ... : ... .. . ... ... : ... .. 7 ... ... : ... .. 7 ... ... : ... .. . ... ...
ROW 4E : ... .. . ... ... ... : ... .. . ... ... ... : F-3 00 . ... : ... .. 8 ... : ... .. . ... ... : ... .. . ... ... : ... .. . ... ... : ... .. . ... ...
ROW 4F : ... .. . ... ... ... : ... .. . ... ... ... : ... .. . ... : ... .. 7 ... : ... .. . ... ... : ... .. 6 ... ... : ... .. 6 ... ... : ... .. . ... ...
ROW 50 : ... .. . ... ... ... : ... .. . ... ... ... : ... .. . ... : ... .. 6 ... : ... .. . ... ... : ... .. . ... ... : ... .. . ... ... : ... .. . ... ...
ROW 51 : ... .. . ... ... ... : ... .. . ... ... ... : ... .. . ... : ... .. . ... : ... .. . ... ... : ... .. 5 ... ... : ... .. 5 ... ... : ... .. . ... ...
ROW 52 : ... .. 4 ... ... ... : ... .. 4 ... ... ... : ... .. . ... : ... .. 5 ... : ... .. . ... ... : ... .. . ... ... : ... .. . ... ... : ... .. . ... ...
ROW 53 : ... .. . ... ... ... : ... .. . ... ... ... : ... .. . ... : ... .. . ... : ... .. . ... ... : ... .. . ... ... : ... .. . ... ... : ... .. . ... ...
ROW 54 : ... .. . ... ... ... : ... .. . ... ... ... : D#3 00 . P88 : ... .. 4 ... : ... .. . ... ... : A#1 01 A ... ... : E-2 01 A ... ... : E-1 01 F ... ...
ROW 55 : ... .. . ... ... ... : ... .. . ... ... ... : D-3 00 . P7D : ... .. . ... : ... .. . ... ... : ... .. 9 ... ... : ... .. 9 ... ... : ... .. D ... ...
ROW 56 : ... .. . ... ... ... : ... .. . ... ... ... : C-3 00 . P8C : ... .. 3 ... : ... .. . ... ... : ... .. 8 ... ... : ... .. 8 ... ... : ... .. 8 ... ...
ROW 57 : ... .. . ... ... ... : ... .. . ... ... ... : B-2 00 . P85 : ... .. 2 ... : ... .. . ... ... : --- .. . P7E ... : --- .. . P84 ... : --- .. . P82 ...
ROW 58 : ... .. . ... ... ... : ... .. . ... ... ... : A#2 00 . P80 : ... .. . ... : ... .. . ... ... : ... .. . ... ... : ... .. . ... ... : ... .. . ... ...
ROW 59 : ... .. . ... ... ... : ... .. . ... ... ... : A-2 00 . P7C : ... .. 1 ... : ... .. . ... ... : A#1 01 A P80 ... : E-2 01 A P81 ... : E-1 01 F P80 ...
ROW 5A : ... .. . ... ... ... : ... .. . ... ... ... : G#2 00 . P7B : ... .. 0 ... : ... .. . ... ... : ... .. 9 ... ... : ... .. 9 ... ... : ... .. D ... ...
ROW 5B : ... .. . ... ... ... : ... .. . ... ... ... : G-2 00 . ... : ... .. . ... : ... .. . ... ... : ... .. 8 ... ... : ... .. 8 ... ... : ... .. 8 ... ...
ROW 5C : ... .. 3 ... ... ... : ... .. 3 ... ... ... : F#2 00 . P7D : ... .. . ... : ... .. . ... ... : --- .. . P7E ... : --- .. . P84 ... : --- .. . P82 ...
ROW 5D : ... .. . ... ... ... : ... .. . ... ... ... : F-2 00 . P81 : ... .. . ... : ... .. . ... ... : ... .. . ... ... : ... .. . ... ... : ... .. . ... ...
ROW 5E : ... .. . ... ... ... : ... .. . ... ... ... : D#4 00 . P80 : 7-# 00 F ... : ... .. . ... ... : A#1 01 A P80 ... : E-2 01 A P81 ... : E-1 01 F P80 ...
ROW 5F : ... .. . ... ... ... : ... .. . ... ... ... : F-3 00 . ... : ... .. C ... : ... .. . ... ... : ... .. 9 ... ... : ... .. 9 ... ... : ... .. D ... ...
ROW 60 : ... .. . ... ... ... : ... .. . ... ... ... : A#2 00 . ... : ... .. 6 ... : ... .. . ... ... : ... .. 8 ... ... : ... .. 8 ... ... : ... .. 8 ... ...
ROW 61 : ... .. 2 ... ... ... : ... .. 2 ... ... ... : A-2 00 . ... : ... .. 3 ... : ... .. . ... ... : ... .. 7 ... ... : ... .. 7 ... ... : ... .. . ... ...
ROW 62 : ... .. . ... ... ... : ... .. . ... ... ... : E-2 00 . ... : ... .. 2 ... : ... .. . ... ... : ... .. . ... ... : ... .. . ... ... : ... .. . ... ...
ROW 63 : ... .. . ... ... ... : ... .. . ... ... ... : ... .. . ... : ... .. F ... : ... .. . ... ... : ... .. 6 ... ... : ... .. 6 ... ... : ... .. . ... ...
ROW 64 : ... .. . ... ... ... : ... .. . ... ... ... : ... .. . ... : ... .. C ... : ... .. . ... ... : ... .. . ... ... : ... .. . ... ... : ... .. . ... ...
ROW 65 : ... .. . ... ... ... : ... .. . ... ... ... : ... .. . ... : ... .. 6 ... : ... .. . ... ... : ... .. 5 ... ... : ... .. 5 ... ... : ... .. . ... ...
ROW 66 : ... .. . ... ... ... : ... .. . ... ... ... : ... .. . ... : ... .. 3 ... : ... .. . ... ... : ... .. . ... ... : ... .. . ... ... : ... .. . ... ...
ROW 67 : ... .. . ... ... ... : ... .. . ... ... ... : ... .. . ... : ... .. 2 ... : ... .. . ... ... : ... .. . ... ... : ... .. . ... ... : ... .. . ... ...
ROW 68 : E-2 00 F ... ... ... : E-4 00 F P81 ... ... : D#5 00 . ... : B-# 00 D ... : ... .. . ... ... : B-4 01 A ... ... : B-3 01 A ... ... : G-4 01 F ... ...
ROW 69 : ... .. E ... ... ... : ... .. E ... ... ... : F-4 00 . ... : ... .. B ... : ... .. . ... ... : ... .. 9 ... ... : ... .. 9 ... ... : ... .. D ... ...
ROW 6A : ... .. D ... ... ... : ... .. D ... ... ... : A#3 00 . ... : ... .. . ... : ... .. . ... ... : ... .. 8 ... ... : ... .. 8 ... ... : ... .. 8 ... ...
ROW 6B : ... .. 9 ... ... ... : ... .. 9 ... ... ... : A-3 00 . ... : ... .. A ... : ... .. . ... ... : ... .. 7 ... ... : ... .. 7 ... ... : ... .. . ... ...
ROW 6C : ... .. . ... ... ... : ... .. . ... ... ... : E-3 00 . ... : ... .. 8 ... : ... .. . ... ... : ... .. . ... ... : ... .. . ... ... : ... .. . ... ...
ROW 6D : ... .. . ... ... ... : ... .. . ... ... ... : ... .. . ... : ... .. 7 ... : ... .. . ... ... : ... .. 6 ... ... : ... .. 6 ... ... : ... .. . ... ...
ROW 6E : ... .. . ... ... ... : ... .. . ... ... ... : ... .. . ... : ... .. 6 ... : ... .. . ... ... : ... .. . ... ... : ... .. . ... ... : ... .. . ... ...
ROW 6F : ... .. . ... ... ... : ... .. . ... ... ... : ... .. . ... : ... .. . ... : ... .. . ... ... : ... .. 5 ... ... : ... .. 5 ... ... : ... .. . ... ...
ROW 70 : ... .. 8 ... ... ... : ... .. 8 ... ... ... : ... .. . ... : ... .. 5 ... : ... .. . ... ... : ... .. . ... ... : ... .. . ... ... : ... .. . ... ...
ROW 71 : ... .. . ... ... ... : ... .. . ... ... ... : ... .. . ... : ... .. . ... : ... .. . ... ... : ... .. . ... ... : ... .. . ... ... : ... .. . ... ...
ROW 72 : ... .. . ... ... ... : ... .. . ... ... ... : D-3 00 . P8A : ... .. 4 ... : ... .. . ... ... : B-3 01 A ... ... : E-3 01 A ... ... : E-2 01 F ... ...
ROW 73 : ... .. . ... ... ... : ... .. . ... ... ... : C#3 00 . P81 : ... .. . ... : ... .. . ... ... : ... .. 9 ... ... : ... .. 9 ... ... : ... .. D ... ...
ROW 74 : ... .. . ... ... ... : ... .. . ... ... ... : C-3 00 . P79 : ... .. 3 ... : ... .. . ... ... : ... .. 8 ... ... : ... .. 8 ... ... : ... .. 8 ... ...
ROW 75 : ... .. . ... ... ... : ... .. . ... ... ... : A#2 00 . P8D : ... .. 2 ... : ... .. . ... ... : --- .. . ... ... : --- .. . P7E ... : --- .. . P89 ...
ROW 76 : ... .. . ... ... ... : ... .. . ... ... ... : A-2 00 . P89 : ... .. . ... : ... .. . ... ... : ... .. . ... ... : ... .. . ... ... : ... .. . ... ...
ROW 77 : ... .. . ... ... ... : ... .. . ... ... ... : G#2 00 . P88 : ... .. 1 ... : ... .. . ... ... : B-3 01 A ... ... : E-3 01 A P81 ... : E-2 01 F P80 ...
ROW 78 : ... .. . ... ... ... : ... .. . ... ... ... : G-2 00 . ... : ... .. 0 ... : ... .. . ... ... : ... .. 9 ... ... : ... .. 9 ... ... : ... .. D ... ...
ROW 79 : ... .. . ... ... ... : ... .. . ... ... ... : F#2 00 . P8A : ... .. . ... : ... .. . ... ... : ... .. 8 ... ... : ... .. 8 ... ... : ... .. 8 ... ...
ROW 7A : ... .. 7 ... ... ... : ... .. 7 ... ... ... : F-2 00 . P8E : ... .. . ... : ... .. . ... ... : --- .. . ... ... : --- .. . P7E ... : --- .. . P89 ...
ROW 7B : ... .. . ... ... ... : ... .. . ... ... ... : ... .. . P6E : ... .. . ... : ... .. . ... ... : ... .. . ... ... : ... .. . ... ... : ... .. . ... ...
ROW 7C : ... .. . ... ... ... : ... .. . ... ... ... : D#4 00 . P80 : 7-# 00 F ... : ... .. . ... ... : B-3 01 A ... ... : E-3 01 A P81 ... : E-2 01 F P80 ...
ROW 7D : ... .. . ... ... ... : ... .. . ... ... ... : F-3 00 . ... : ... .. C ... : ... .. . ... ... : ... .. 9 ... ... : ... .. 9 ... ... : ... .. D ... ...
ROW 7E : ... .. . ... ... ... : ... .. . ... ... ... : A#2 00 . ... : ... .. 6 ... : ... .. . ... ... : ... .. 8 ... ... : ... .. 8 ... ... : ... .. 8 ... ...
ROW 7F : ... .. 6 ... ... ... : ... .. 6 ... ... ... : A-2 00 . ... : ... .. 3 ... : ... .. . ... ... : --- .. . ... ... : --- .. . P7E ... : --- .. . P89 ...
ROW 80 : ... .. . ... ... ... : ... .. . ... ... ... : E-2 00 . ... : ... .. 2 ... : ... .. . ... ... : ... .. . ... ... : ... .. . ... ... : ... .. . ... ...
ROW 81 : ... .. . ... ... ... : ... .. . ... ... ... : ... .. . ... : ... .. F ... : ... .. . ... ... : B-3 01 A ... ... : E-3 01 A P81 ... : E-2 01 F P80 ...
ROW 82 : ... .. . ... ... ... : ... .. . ... ... ... : ... .. . ... : ... .. C ... : ... .. . ... ... : ... .. 9 ... ... : ... .. 9 ... ... : ... .. D ... ...
ROW 83 : ... .. . ... ... ... : ... .. . ... ... ... : ... .. . ... : ... .. 6 ... : ... .. . ... ... : ... .. 8 ... ... : ... .. 8 ... ... : ... .. 8 ... ...
ROW 84 : ... .. . ... ... ... : ... .. . ... ... ... : ... .. . ... : ... .. 3 ... : ... .. . ... ... : --- .. . ... ... : --- .. . P7E ... : --- .. . P89 ...
ROW 85 : ... .. . ... ... ... : ... .. . ... ... ... : ... .. . ... : ... .. 2 ... : ... .. . ... ... : ... .. . ... ... : ... .. . ... ... : ... .. . ... ...
ROW 86 : ... .. . ... ... ... : ... .. . ... ... ... : D#5 00 . ... : C-# 00 F ... : ... .. . ... ... : B-4 01 A ... ... : B-3 01 A P81 ... : G-4 01 F P80 ...
ROW 87 : ... .. . ... ... ... : ... .. . ... ... ... : F-4 00 . ... : ... .. C ... : ... .. . ... ... : ... .. 9 ... ... : ... .. 9 ... ... : ... .. D ... ...
ROW 88 : ... .. . ... ... ... : ... .. . ... ... ... : A#3 00 . ... : ... .. 6 ... : ... .. . ... ... : ... .. 8 ... ... : ... .. 8 ... ... : ... .. 8 ... ...
ROW 89 : ... .. 5 ... ... ... : ... .. 5 ... ... ... : A-3 00 . ... : ... .. 3 ... : ... .. . ... ... : ... .. 7 ... ... : ... .. 7 ... ... : ... .. . ... ...
ROW 8A : ... .. . ... ... ... : ... .. . ... ... ... : E-3 00 . ... : ... .. 2 ... : ... .. . ... ... : ... .. . ... ... : ... .. . ... ... : ... .. . ... ...
ROW 8B : ... .. . ... ... ... : ... .. . ... ... ... : ... .. . ... : ... .. F ... : ... .. . ... ... : ... .. 6 ... ... : ... .. 6 ... ... : ... .. . ... ...
ROW 8C : ... .. . ... ... ... : ... .. . ... ... ... : ... .. . ... : ... .. C ... : ... .. . ... ... : ... .. . ... ... : ... .. . ... ... : ... .. . ... ...
ROW 8D : ... .. . ... ... ... : ... .. . ... ... ... : ... .. . ... : ... .. 6 ... : ... .. . ... ... : ... .. 5 ... ... : ... .. 5 ... ... : ... .. . ... ...
ROW 8E : ... .. 4 ... ... ... : ... .. 4 ... ... ... : ... .. . ... : ... .. 3 ... : ... .. . ... ... : ... .. . ... ... : ... .. . ... ... : ... .. . ... ...
ROW 8F : ... .. . ... ... ... : ... .. . ... ... ... : ... .. . ... : ... .. 2 ... : ... .. . ... ... : ... .. . ... ... : ... .. . ... ... : ... .. . ... ...
ROW 90 : ... .. . ... ... ... : ... .. . ... ... ... : D-3 00 . P8A : 8-# 00 F ... : ... .. . ... ... : B-3 01 A ... ... : E-3 01 A ... ... : E-2 01 F ... ...
ROW 91 : ... .. . ... ... ... : ... .. . ... ... ... : C#3 00 . P81 : ... .. C ... : ... .. . ... ... : ... .. 9 ... ... : ... .. 9 ... ... : ... .. D ... ...
ROW 92 : ... .. . ... ... ... : ... .. . ... ... ... : C-3 00 . P79 : ... .. 6 ... : ... .. . ... ... : ... .. 8 ... ... : ... .. 8 ... ... : ... .. 8 ... ...
ROW 93 : ... .. . ... ... ... : ... .. . ... ... ... : A#2 00 . P8D : ... .. 3 ... : ... .. . ... ... : --- .. . ... ... : --- .. . P7E ... : --- .. . P89 ...
ROW 94 : ... .. . ... ... ... : ... .. . ... ... ... : A-2 00 . P89 : ... .. 2 ... : ... .. . ... ... : ... .. . ... ... : ... .. . ... ... : ... .. . ... ...
ROW 95 : ... .. . ... ... ... : ... .. . ... ... ... : G#2 00 . P88 : ... .. F ... : ... .. . ... ... : B-3 01 A ... ... : E-3 01 A P81 ... : E-2 01 F P80 ...
ROW 96 : ... .. . ... ... ... : ... .. . ... ... ... : G-2 00 . ... : ... .. C ... : ... .. . ... ... : ... .. 9 ... ... : ... .. 9 ... ... : ... .. D ... ...
ROW 97 : ... .. . ... ... ... : ... .. . ... ... ... : F#2 00 . P8A : ... .. 6 ... : ... .. . ... ... : ... .. 8 ... ... : ... .. 8 ... ... : ... .. 8 ... ...
ROW 98 : ... .. 3 ... ... ... : ... .. 3 ... ... ... : F-2 00 . P8E : ... .. 3 ... : ... .. . ... ... : --- .. . ... ... : --- .. . P7E ... : --- .. . P89 ...
ROW 99 : ... .. . ... ... ... : ... .. . ... ... ... : ... .. . P6E : ... .. 2 ... : ... .. . ... ... : ... .. . ... ... : ... .. . ... ... : ... .. . ... ...
ROW 9A : ... .. . ... ... ... : ... .. . ... ... ... : D#4 00 . P80 : 1-# 00 F ... : ... .. . ... ... : B-3 01 A ... ... : E-3 01 A P81 ... : E-2 01 F P80 ...
ROW 9B : ... .. . ... ... ... : ... .. . ... ... ... : F-3 00 . ... : ... .. C ... : ... .. . ... ... : ... .. 9 ... ... : ... .. 9 ... ... : ... .. D ... ...
ROW 9C : ... .. . ... ... ... : ... .. . ... ... ... : A#2 00 . ... : ... .. 6 ... : ... .. . ... ... : ... .. 8 ... ... : ... .. 8 ... ... : ... .. 8 ... ...
ROW 9D : ... .. 2 ... ... ... : ... .. 2 ... ... ... : A-2 00 . ... : ... .. 3 ... : ... .. . ... ... : --- .. . ... ... : --- .. . P7E ... : --- .. . P89 ...
ROW 9E : ... .. . ... ... ... : ... .. . ... ... ... : E-2 00 . ... : ... .. 2 ... : ... .. . ... ... : ... .. . ... ... : ... .. . ... ... : ... .. . ... ...
ROW 9F : ... .. . ... ... ... : ... .. . ... ... ... : ... .. . ... : ... .. F ... : ... .. . ... ... : B-3 01 A ... ... : E-3 01 A P81 ... : E-2 01 F P80 ...
ROW A0 : ... .. . ... ... ... : ... .. . ... ... ... : ... .. . ... : ... .. C ... : ... .. . ... ... : ... .. 9 ... ... : ... .. 9 ... ... : ... .. D ... ...
ROW A1 : ... .. . ... ... ... : ... .. . ... ... ... : ... .. . ... : ... .. 6 ... : ... .. . ... ... : ... .. 8 ... ... : ... .. 8 ... ... : ... .. 8 ... ...
ROW A2 : ... .. . ... ... ... : ... .. . ... ... ... : ... .. . ... : ... .. 3 ... : ... .. . ... ... : --- .. . ... ... : --- .. . P7E ... : --- .. . P89 ...
ROW A3 : ... .. . ... ... ... : ... .. . ... ... ... : ... .. . ... : ... .. 2 ... : ... .. . ... ... : ... .. . ... ... : ... .. . ... ... : ... .. . ... ...
ROW A4 : D-2 00 F ... ... ... : D-4 00 F ... ... ... : E-5 00 . ... : A-# 00 F ... : ... .. . ... ... : G-4 01 A ... ... : D-4 01 A P81 ... : A#4 01 F P80 ...
ROW A5 : ... .. E ... ... ... : ... .. E ... ... ... : F#4 00 . ... : ... .. C ... : ... .. . ... ... : ... .. 9 ... ... : ... .. 9 ... ... : ... .. D ... ...
ROW A6 : ... .. D ... ... ... : ... .. D ... ... ... : B-3 00 . ... : ... .. A ... : ... .. . ... ... : ... .. 8 ... ... : ... .. 8 ... ... : ... .. 8 ... ...
ROW A7 : ... .. 9 ... ... ... : ... .. 9 ... ... ... : A#3 00 . ... : ... .. 8 ... : ... .. . ... ... : ... .. 7 ... ... : ... .. 7 ... ... : ... .. . ... ...
ROW A8 : ... .. . ... ... ... : ... .. . ... ... ... : F-3 00 . ... : ... .. 7 ... : ... .. . ... ... : ... .. . ... ... : ... .. . ... ... : ... .. . ... ...
ROW A9 : ... .. . ... ... ... : ... .. . ... ... ... : ... .. . ... : ... .. F ... : ... .. . ... ... : ... .. 6 ... ... : ... .. 6 ... ... : ... .. . ... ...
ROW AA : ... .. . ... ... ... : ... .. . ... ... ... : ... .. . ... : ... .. C ... : ... .. . ... ... : ... .. . ... ... : ... .. . ... ... : ... .. . ... ...
ROW AB : ... .. . ... ... ... : ... .. . ... ... ... : ... .. . ... : ... .. A ... : ... .. . ... ... : ... .. 5 ... ... : ... .. 5 ... ... : ... .. . ... ...
ROW AC : ... .. 8 ... ... ... : ... .. 8 ... ... ... : ... .. . ... : ... .. 8 ... : ... .. . ... ... : ... .. . ... ... : ... .. . ... ... : ... .. . ... ...
ROW AD : ... .. . ... ... ... : ... .. . ... ... ... : ... .. . ... : ... .. 7 ... : ... .. . ... ... : ... .. . ... ... : ... .. . ... ... : ... .. . ... ...
ROW AE : ... .. . ... ... ... : ... .. . ... ... ... : D#3 00 . P88 : 8-# 00 F ... : ... .. . ... ... : A#3 01 A ... ... : G-3 01 A ... ... : D-2 01 F ... ...
ROW AF : ... .. . ... ... ... : ... .. . ... ... ... : D-3 00 . P7D : ... .. C ... : ... .. . ... ... : ... .. 9 ... ... : ... .. 9 ... ... : ... .. D ... ...
ROW B0 : ... .. . ... ... ... : ... .. . ... ... ... : C-3 00 . P8C : ... .. A ... : ... .. . ... ... : ... .. 8 ... ... : ... .. 8 ... ... : ... .. 8 ... ...
ROW B1 : ... .. . ... ... ... : ... .. . ... ... ... : B-2 00 . P85 : ... .. 8 ... : ... .. . ... ... : ... .. 7 ... ... : ... .. 7 ... ... : ... .. . ... ...
ROW B2 : ... .. . ... ... ... : ... .. . ... ... ... : A#2 00 . P80 : ... .. 7 ... : ... .. . ... ... : ... .. . ... ... : ... .. . ... ... : ... .. . ... ...
ROW B3 : ... .. . ... ... ... : ... .. . ... ... ... : A-2 00 . P7C : ... .. F ... : ... .. . ... ... : ... .. 6 ... ... : ... .. 6 ... ... : ... .. . ... ...
ROW B4 : ... .. . ... ... ... : ... .. . ... ... ... : G#2 00 . P7B : ... .. C ... : ... .. . ... ... : ... .. . ... ... : ... .. . ... ... : ... .. . ... ...
ROW B5 : ... .. . ... ... ... : ... .. . ... ... ... : G-2 00 . ... : ... .. A ... : ... .. . ... ... : ... .. 5 ... ... : ... .. 5 ... ... : ... .. . ... ...
ROW B6 : ... .. 7 ... ... ... : ... .. 7 ... ... ... : F#2 00 . P7D : ... .. 8 ... : ... .. . ... ... : ... .. . ... ... : ... .. . ... ... : ... .. . ... ...
ROW B7 : ... .. . ... ... ... : ... .. . ... ... ... : F-2 00 . P81 : ... .. 7 ... : ... .. . ... ... : ... .. . ... ... : ... .. . ... ... : ... .. . ... ...
ROW B8 : ... .. . ... ... ... : ... .. . ... ... ... : C#4 00 . P80 : 4-# 00 F ... : ... .. . ... ... : ... .. A ... ... : ... .. A ... ... : ... .. F ... ...
ROW B9 : ... .. . ... ... ... : ... .. . ... ... ... : D#3 00 . ... : ... .. C ... : ... .. . ... ... : ... .. 9 ... ... : ... .. 9 ... ... : ... .. D ... ...
ROW BA : ... .. . ... ... ... : ... .. . ... ... ... : G#2 00 . ... : ... .. A ... : ... .. . ... ... : ... .. 8 ... ... : ... .. 8 ... ... : ... .. 8 ... ...
ROW BB : ... .. 6 ... ... ... : ... .. 6 ... ... ... : G-2 00 . ... : ... .. 8 ... : ... .. . ... ... : ... .. 7 ... ... : ... .. 7 ... ... : ... .. . ... ...
ROW BC : ... .. . ... ... ... : ... .. . ... ... ... : D-2 00 . ... : ... .. 7 ... : ... .. . ... ... : ... .. . ... ... : ... .. . ... ... : ... .. . ... ...
ROW BD : ... .. . ... ... ... : ... .. . ... ... ... : ... .. . ... : ... .. F ... : ... .. . ... ... : ... .. 6 ... ... : ... .. 6 ... ... : ... .. . ... ...
ROW BE : ... .. . ... ... ... : ... .. . ... ... ... : ... .. . ... : ... .. C ... : ... .. . ... ... : ... .. . ... ... : ... .. . ... ... : ... .. . ... ...
ROW BF : ... .. . ... ... ... : ... .. . ... ... ... : ... .. . ... : ... .. A ... : ... .. . ... ... : ... .. 5 ... ... : ... .. 5 ... ... : ... .. . ... ...
ROW C0 : ... .. . P70 ... ... : C#4 00 6 P7D ... ... : ... .. . ... : ... .. 8 ... : ... .. . ... ... : ... .. . ... ... : ... .. . ... ... : ... .. . ... ...
ROW C1 : C#2 00 6 P8D ... ... : B-3 00 6 P85 ... ... : ... .. . ... : ... .. 7 ... : ... .. . ... ... : ... .. . ... ... : ... .. . ... ... : ... .. . ... ...
ROW C2 : ... .. . P7D ... ... : A#3 00 6 P83 ... ... : E-6 00 . ... : 2-# 00 F ... : ... .. . ... ... : A#4 01 A ... ... : F-4 01 A ... ... : C#5 01 F ... ...
ROW C3 : ... .. . P6D ... ... : A-3 00 6 P81 ... ... : F#5 00 . ... : ... .. C ... : ... .. . ... ... : ... .. 9 ... ... : ... .. 9 ... ... : ... .. D ... ...
ROW C4 : C-2 00 6 P8D ... ... : G#3 00 6 P80 ... ... : B-4 00 . ... : ... .. A ... : ... .. . ... ... : ... .. 8 ... ... : ... .. 8 ... ... : ... .. 8 ... ...
ROW C5 : ... .. 5 P7D ... ... : G-3 00 5 ... ... ... : A#4 00 . ... : ... .. 8 ... : ... .. . ... ... : ... .. 7 ... ... : ... .. 7 ... ... : ... .. . ... ...
ROW C6 : ... .. . P6D ... ... : F#3 00 5 P81 ... ... : F-4 00 . ... : ... .. 7 ... : ... .. . ... ... : ... .. . ... ... : ... .. . ... ... : ... .. . ... ...
ROW C7 : B-1 00 5 P90 ... ... : F-3 00 5 P83 ... ... : ... .. . ... : ... .. F ... : ... .. . ... ... : ... .. 6 ... ... : ... .. 6 ... ... : ... .. . ... ...
ROW C8 : ... .. . P80 ... ... : E-3 00 5 P86 ... ... : ... .. . ... : ... .. C ... : ... .. . ... ... : ... .. . ... ... : ... .. . ... ... : ... .. . ... ...
ROW C9 : ... .. . P70 ... ... : ... .. . P76 ... ... : ... .. . ... : ... .. A ... : ... .. . ... ... : ... .. 5 ... ... : ... .. 5 ... ... : ... .. . ... ...
ROW CA : A#1 00 4 P96 ... ... : D#3 00 4 P7B ... ... : ... .. . ... : ... .. 8 ... : ... .. . ... ... : ... .. . ... ... : ... .. . ... ... : ... .. . ... ...
ROW CB : ... .. . P86 ... ... : D-3 00 4 P80 ... ... : ... .. . ... : ... .. 7 ... : ... .. . ... ... : ... .. . ... ... : ... .. . ... ... : ... .. . ... ...
ROW CC : ... .. . P76 ... ... : C#3 00 4 P87 ... ... : D-4 00 . P7E : 1-# 00 F ... : ... .. . ... ... : ... .. 4 ... ... : ... .. 4 ... ... : ... .. 6 ... ...
ROW CD : ... .. . P66 ... ... : ... .. . P77 ... ... : B-3 00 . P82 : ... .. C ... : ... .. . ... ... : ... .. . ... ... : ... .. . ... ... : ... .. . ... ...
ROW CE : A-1 00 4 P8F ... ... : C-3 00 4 P7F ... ... : A-3 00 . P7E : ... .. A ... : ... .. . ... ... : ... .. . ... ... : ... .. . ... ... : ... .. . ... ...
ROW CF : ... .. . P7F ... ... : B-2 00 4 P88 ... ... : G-3 00 . P7D : ... .. 8 ... : ... .. . ... ... : ... .. . ... ... : ... .. . ... ... : ... .. . ... ...
ROW D0 : ... .. . P6F ... ... : ... .. . P78 ... ... : F-3 00 . P80 : ... .. 7 ... : ... .. . ... ... : ... .. . ... ... : ... .. . ... ... : ... .. . ... ...
ROW D1 : G#1 00 4 P9B ... ... : A#2 00 4 P83 ... ... : D#3 00 . P88 : ... .. F ... : ... .. . ... ... : ... .. 3 ... ... : ... .. 3 ... ... : ... .. 5 ... ...
ROW D2 : ... .. . P8B ... ... : ... .. . P73 ... ... : D-3 00 . P7D : ... .. C ... : ... .. . ... ... : ... .. . ... ... : ... .. . ... ... : ... .. . ... ...
ROW D3 : ... .. . P7B ... ... : A-2 00 4 P7F ... ... : C-3 00 . P8C : ... .. A ... : ... .. . ... ... : ... .. . ... ... : ... .. . ... ... : ... .. . ... ...
ROW D4 : ... .. 3 P6B ... ... : G#2 00 3 P8E ... ... : B-2 00 . P85 : ... .. 8 ... : ... .. . ... ... : ... .. . ... ... : ... .. . ... ... : ... .. . ... ...
ROW D5 : G-1 00 3 P9B ... ... : ... .. . P7E ... ... : A#2 00 . P80 : ... .. 7 ... : ... .. . ... ... : ... .. . ... ... : ... .. . ... ... : ... .. . ... ...
ROW D6 : ... .. . P8B ... ... : G-2 00 3 P8E ... ... : C#4 00 . ... : 0-# 00 F ... : ... .. . ... ... : G#4 01 3 P7F ... : D#4 01 3 P85 ... : B-4 01 5 P7E ...
ROW D7 : ... .. . P7B ... ... : ... .. . P7E ... ... : D#3 00 . ... : ... .. C ... : ... .. . ... ... : F#4 01 3 ... ... : D-4 01 3 P7F ... : A-4 01 5 ... ...
ROW D8 : ... .. . P6B ... ... : F#2 00 3 P90 ... ... : G#2 00 . ... : ... .. A ... : ... .. . ... ... : E-4 01 3 P82 ... : C#4 01 3 P7B ... : G-4 01 5 P80 ...
ROW D9 : F#1 00 2 P9F ... ... : ... .. 2 P80 ... ... : G-2 00 . ... : ... .. 8 ... : ... .. . ... ... : D#4 01 3 P7C ... : B-3 01 3 P83 ... : F-4 01 5 P84 ...
ROW DA : ... .. . P8F ... ... : ... .. . P70 ... ... : D-2 00 . ... : ... .. 7 ... : ... .. . ... ... : C#4 01 3 P82 ... : A#3 01 3 P81 ... : E-4 01 5 P7F ...
ROW DB : ... .. . P7F ... ... : F-2 00 2 P84 ... ... : ... .. . ... : ... .. F ... : ... .. . ... ... : C-4 01 3 P7E ... : A-3 01 3 P7F ... : D#4 01 4 P7A ...
ROW DC : ... .. . P6F ... ... : ... .. . P74 ... ... : ... .. . ... : ... .. C ... : ... .. . ... ... : B-3 01 3 P7A ... : G#3 01 3 P7E ... : C#4 01 4 P84 ...
ROW DD : ... .. . P5F ... ... : E-2 00 2 P8A ... ... : ... .. . ... : ... .. A ... : ... .. . ... ... : A-3 01 3 P86 ... : G-3 01 3 ... ... : C-4 01 4 P81 ...
ROW DE : F-1 00 2 P97 ... ... : ... .. . P7A ... ... : ... .. . ... : ... .. 8 ... : ... .. . ... ... : --- .. . ... ... : --- .. . P81 ... : --- .. . ... ...
ROW DF : ... .. . P87 ... ... : D#2 00 2 P92 ... ... : ... .. . ... : ... .. 7 ... : ... .. . ... ... : ... .. . ... ... : ... .. . ... ... : ... .. . ... ...
ROW E0 : G-3 00 7 P80 ... ... : G-2 00 F P81 V01 ... : F#4 00 . ... : 9-# 00 D ... : ... .. . ... ... : A#2 01 9 P80 V05 : D-3 01 9 P7F V05 : G-4 01 F ... ...
ROW E1 : ... .. A ... ... ... : ... .. E ... ... ... : G#3 00 . ... : ... .. . ... : ... .. . ... ... : ... .. 8 ... ... : ... .. 8 ... ... : ... .. D ... ...
ROW E2 : ... .. 7 ... ... ... : ... .. D ... ... ... : C#3 00 . ... : ... .. . ... : ... .. . ... ... : ... .. . ... ... : ... .. . ... ... : ... .. 8 ... ...
ROW E3 : ... .. 0 ... V00 ... : ... .. A ... ... ... : C-3 00 . ... : ... .. B ... : ... .. . ... ... : ... .. 7 ... ... : ... .. 7 ... ... : ... .. 7 ... ...
ROW E4 : G-3 00 5 P80 V01 ... : ... .. . ... ... ... : G-2 00 . ... : ... .. . ... : ... .. . ... ... : ... .. 6 ... ... : ... .. 6 ... ... : ... .. . ... ...
ROW E5 : F-3 00 7 ... ... ... : ... .. . ... ... ... : ... .. . ... : ... .. A ... : ... .. . ... ... : ... .. . ... ... : ... .. . ... ... : ... .. 6 ... ...
ROW E6 : ... .. A ... ... ... : ... .. . ... ... ... : ... .. . ... : ... .. . ... : ... .. . ... ... : ... .. . ... ... : ... .. . ... ... : ... .. . ... ...
ROW E7 : ... .. 7 ... ... ... : ... .. . ... ... ... : ... .. . ... : ... .. . ... : ... .. . ... ... : ... .. 5 ... ... : ... .. 5 ... ... : ... .. . ... ...
ROW E8 : ... .. 0 ... V00 ... : ... .. . ... ... ... : ... .. . ... : ... .. 9 ... : ... .. . ... ... : ... .. . ... ... : ... .. . ... ... : ... .. . ... ...
ROW E9 : F-3 00 5 P80 V01 ... : ... .. . ... ... ... : ... .. . ... : ... .. . ... : ... .. . ... ... : ... .. . ... ... : ... .. . ... ... : ... .. . ... ...
ROW EA : C#3 00 7 ... ... ... : ... .. . ... ... ... : ... .. . ... : ... .. 7 ... : ... .. . ... ... : ... .. 4 ... ... : ... .. 4 ... ... : ... .. . ... ...
ROW EB : ... .. A ... ... ... : ... .. . ... ... ... : ... .. . ... : ... .. . ... : ... .. . ... ... : ... .. . ... ... : ... .. . ... ... : ... .. . ... ...
ROW EC : ... .. 7 ... ... ... : ... .. . ... ... ... : ... .. . ... : ... .. . ... : ... .. . ... ... : ... .. . ... ... : ... .. . ... ... : ... .. . ... ...
ROW ED : ... .. 0 ... V00 ... : F#2 00 A P83 ... ... : F#2 00 . P82 : ... .. 6 ... : ... .. . ... ... : ... .. . ... ... : ... .. . ... ... : ... .. 5 ... ...
ROW EE : C#3 00 5 P80 V01 ... : F-2 00 A P87 ... ... : F-2 00 . P86 : ... .. . ... : ... .. . ... ... : ... .. . ... ... : ... .. . ... ... : ... .. . ... ...
ROW EF : B-2 00 7 ... ... ... : E-2 00 A P8D ... ... : E-2 00 . P8C : ... .. 5 ... : ... .. . ... ... : A-2 01 4 P8C ... : C#3 01 4 P86 ... : F-4 01 5 P85 ...
ROW F0 : ... .. A ... ... ... : ... .. . P6D ... ... : D#2 00 . P94 : ... .. . ... : ... .. . ... ... : ... .. . P7C ... : ... .. . P76 ... : E-4 01 5 P80 ...
ROW F1 : ... .. 7 ... ... ... : D#2 00 A P75 ... ... : ... .. . P74 : ... .. . ... : ... .. . ... ... : G#2 01 4 P8B ... : C-3 01 4 P7E ... : D#4 01 5 P7B ...
ROW F2 : ... .. 0 ... V00 ... : D-2 00 A P80 ... ... : D-2 00 . P7F : ... .. 4 ... : ... .. . ... ... : ... .. . P7B ... : B-2 01 4 P87 ... : C#4 01 5 P85 ...
ROW F3 : B-2 00 5 P80 V01 ... : C#2 00 A P8D ... ... : C#2 00 . P8C : ... .. . ... : ... .. . ... ... : G-2 01 4 P8B ... : ... .. . P77 ... : C-4 01 5 P82 ...
ROW F4 : G-3 00 7 ... ... ... : F-2 00 F P81 ... ... : F-2 00 . P80 : 7-# 00 F ... : ... .. . ... ... : ... .. 3 P7B ... : A#2 01 3 P82 ... : B-3 01 4 P81 ...
ROW F5 : ... .. A ... ... ... : ... .. E ... ... ... : ... .. . ... : ... .. C ... : ... .. . ... ... : F#2 01 3 P8D ... : A-2 01 3 P8E ... : A#3 01 4 P80 ...
ROW F6 : ... .. 7 ... ... ... : ... .. D ... ... ... : ... .. . ... : ... .. A ... : ... .. . ... ... : ... .. . P7D ... : ... .. . P7E ... : A-3 01 4 P81 ...
ROW F7 : ... .. 0 ... V00 ... : ... .. A ... ... ... : ... .. . ... : ... .. 8 ... : ... .. . ... ... : F-2 01 3 P91 ... : G#2 01 3 P8D ... : G#3 01 4 P82 ...
ROW F8 : G-3 00 5 P80 V01 ... : ... .. . ... ... ... : ... .. . ... : ... .. 7 ... : ... .. . ... ... : ... .. . P81 ... : ... .. . P7D ... : G-3 01 4 P84 ...
ROW F9 : F-3 00 7 ... ... ... : ... .. . ... ... ... : ... .. . ... : ... .. 0 ... : ... .. . ... ... : ... .. . P71 ... : G-2 01 3 P8D ... : F#3 01 4 P88 ...
ROW FA : ... .. A ... ... ... : ... .. . ... ... ... : ... .. . ... : B-# 00 6 ... : ... .. . ... ... : E-2 01 3 P87 ... : ... .. . P7D ... : ... .. . P78 ...
ROW FB : ... .. 7 ... ... ... : ... .. . ... ... ... : ... .. . ... : ... .. 2 ... : ... .. . ... ... : ... .. . P77 ... : F#2 01 3 P8F ... : F-3 01 4 P7C ...
ROW FC : ... .. 0 ... V00 ... : ... .. . ... ... ... : ... .. . ... : ... .. . ... : ... .. . ... ... : D#2 01 3 P8F ... : ... .. . P7F ... : E-3 01 4 P82 ...
ROW FD : F-3 00 5 P80 V01 ... : ... .. . ... ... ... : ... .. . ... : ... .. 0 ... : ... .. . ... ... : ... .. . P7F ... : ... .. . P6F ... : D#3 01 4 P89 ...
ROW FE : C#3 00 7 ... ... ... : G-2 00 F ... ... ... : G-2 00 . ... : ... .. . ... : ... .. . ... ... : A-2 01 A P80 V03 : E-3 01 A P7F V03 : C#4 01 A P81 ...
ROW FF : ... .. A ... ... ... : ... .. E ... ... ... : ... .. . ... : ... .. A ... : ... .. . ... ... : ... .. 9 ... ... : ... .. 9 ... ... : ... .. 8 ... ...

PATTERN 02
ROW 00 : ... .. 7 ... ... ... : ... .. D ... ... ... : ... .. . ... : ... .. 4 ... : ... .. . ... ... : ... .. 8 ... ... : ... .. 8 ... ... : ... .. 5 ... ...
ROW 01 : ... .. 0 ... V00 ... : ... .. A ... ... ... : ... .. . ... : ... .. . ... : ... .. . ... ... : ... .. 7 ... ... : ... .. 7 ... ... : ... .. . ... ...
ROW 02 : C#3 00 5 P80 V01 ... : ... .. . ... ... ... : ... .. . ... : ... .. 0 ... : ... .. . ... ... : ... .. . ... ... : ... .. . ... ... : ... .. . ... ...
ROW 03 : B-2 00 7 ... ... ... : ... .. . ... ... ... : ... .. . ... : ... .. . ... : ... .. . ... ... : ... .. 6 ... ... : ... .. 6 ... ... : ... .. . ... ...
ROW 04 : ... .. A ... ... ... : ... .. . ... ... ... : ... .. . ... : ... .. 8 ... : ... .. . ... ... : ... .. . ... ... : ... .. . ... ... : ... .. . ... ...
ROW 05 : ... .. 7 ... ... ... : ... .. . ... ... ... : ... .. . ... : ... .. 3 ... : ... .. . ... ... : ... .. 5 ... ... : ... .. 5 ... ... : ... .. . ... ...
ROW 06 : ... .. 0 ... V00 ... : ... .. . ... ... ... : ... .. . ... : ... .. . ... : ... .. . ... ... : ... .. 1 ... ... : ... .. 1 ... ... : ... .. 1 ... ...
ROW 07 : B-2 00 5 P80 V01 ... : ... .. . ... ... ... : ... .. . ... : ... .. 0 ... : ... .. . ... ... : ... .. . ... ... : ... .. . ... ... : ... .. . ... ...
ROW 08 : G-3 00 7 ... ... ... : G-3 00 F ... ... ... : F#5 00 . ... : 2-# 00 F ... : ... .. . ... ... : ... .. 5 ... ... : ... .. 5 ... ... : ... .. 5 ... ...
ROW 09 : ... .. A ... ... ... : ... .. E ... ... ... : G#4 00 . ... : ... .. C ... : ... .. . ... ... : ... .. . ... ... : ... .. . ... ... : ... .. . ... ...
ROW 0A : ... .. 7 ... ... ... : ... .. D ... ... ... : C#4 00 . ... : ... .. 6 ... : ... .. . ... ... : ... .. . ... ... : ... .. . ... ... : ... .. . ... ...
ROW 0B : ... .. 0 ... V00 ... : ... .. A ... ... ... : C-4 00 . ... : ... .. 3 ... : ... .. . ... ... : ... .. . ... ... : ... .. . ... ... : ... .. . ... ...
ROW 0C : G-3 00 5 P80 V01 ... : ... .. . ... ... ... : G-3 00 . ... : ... .. 2 ... : ... .. . ... ... : ... .. . ... ... : ... .. . ... ... : ... .. . ... ...
ROW 0D : F-3 00 7 ... ... ... : ... .. . ... ... ... : ... .. . ... : ... .. 0 ... : ... .. . ... ... : ... .. 2 ... ... : ... .. 2 ... ... : ... .. 1 ... ...
ROW 0E : ... .. A ... ... ... : ... .. . ... ... ... : ... .. . ... : B-# 00 8 ... : ... .. . ... ... : ... .. . ... ... : ... .. . ... ... : ... .. . ... ...
ROW 0F : ... .. 7 ... ... ... : ... .. . ... ... ... : ... .. . ... : ... .. 3 ... : ... .. . ... ... : ... .. . ... ... : ... .. . ... ... : ... .. . ... ...
ROW 10 : ... .. 0 ... V00 ... : ... .. . ... ... ... : ... .. . ... : ... .. . ... : ... .. . ... ... : ... .. 1 ... ... : ... .. 1 ... ... : ... .. . ... ...
ROW 11 : F-3 00 5 P80 V01 ... : ... .. . ... ... ... : ... .. . ... : ... .. 0 ... : ... .. . ... ... : ... .. . ... ... : ... .. . ... ... : ... .. . ... ...
ROW 12 : C#3 00 7 ... ... ... : E-3 00 A P87 ... ... : E-3 00 . P86 : 2-# 00 F ... : ... .. . ... ... : G#2 01 A ... ... : D#3 01 A ... ... : C-4 01 A ... ...
ROW 13 : ... .. A ... ... ... : D-3 00 A P81 ... ... : D-3 00 . P80 : ... .. C ... : ... .. . ... ... : ... .. 9 ... ... : ... .. 9 ... ... : ... .. 8 ... ...
ROW 14 : ... .. 7 ... ... ... : C-3 00 A P80 ... ... : C-3 00 . P7F : ... .. 6 ... : ... .. . ... ... : ... .. 8 ... ... : ... .. 8 ... ... : ... .. 5 ... ...
ROW 15 : ... .. 0 ... V00 ... : A#2 00 A P84 ... ... : A#2 00 . P83 : ... .. 3 ... : ... .. . ... ... : ... .. 7 ... ... : ... .. 7 ... ... : ... .. . ... ...
ROW 16 : C#3 00 5 P80 V01 ... : G#2 00 A P8F ... ... : G#2 00 . P8E : ... .. 2 ... : ... .. . ... ... : ... .. . ... ... : ... .. . ... ... : ... .. . ... ...
ROW 17 : B-2 00 7 ... ... ... : G-2 00 A P7F ... ... : G-2 00 . P7E : ... .. 0 ... : ... .. . ... ... : ... .. 6 ... ... : ... .. 6 ... ... : ... .. . ... ...
ROW 18 : ... .. A ... ... ... : F#2 00 A P71 ... ... : F#2 00 . P70 : B-# 00 8 ... : ... .. . ... ... : ... .. . ... ... : ... .. . ... ... : ... .. . ... ...
ROW 19 : ... .. 7 ... ... ... : E-2 00 A P8B ... ... : E-2 00 . P8A : ... .. 3 ... : ... .. . ... ... : ... .. 5 ... ... : ... .. 5 ... ... : ... .. . ... ...
ROW 1A : ... .. 0 ... V00 ... : D#2 00 A P83 ... ... : D#2 00 . P82 : ... .. . ... : ... .. . ... ... : ... .. 1 ... ... : ... .. 1 ... ... : ... .. 1 ... ...
ROW 1B : B-2 00 5 P80 V01 ... : D-2 00 A P7E ... ... : D-2 00 . P7D : ... .. 0 ... : ... .. . ... ... : ... .. . ... ... : ... .. . ... ... : ... .. . ... ...
ROW 1C : G-3 00 7 ... ... ... : F-2 00 F P81 ... ... : F-2 00 . P80 : 7-# 00 F ... : ... .. . ... ... : ... .. 5 ... ... : ... .. 5 ... ... : ... .. 5 ... ...
ROW 1D : ... .. A ... ... ... : ... .. E ... ... ... : ... .. . ... : ... .. C ... : ... .. . ... ... : ... .. . ... ... : ... .. . ... ... : ... .. . ... ...
ROW 1E : ... .. 7 ... ... ... : ... .. D ... ... ... : ... .. . ... : ... .. A ... : ... .. . ... ... : ... .. . ... ... : ... .. . ... ... : ... .. . ... ...
ROW 1F : ... .. 0 ... V00 ... : ... .. A ... ... ... : ... .. . ... : ... .. 8 ... : ... .. . ... ... : ... .. . ... ... : ... .. . ... ... : ... .. . ... ...
ROW 20 : G-3 00 5 P80 V01 ... : ... .. . ... ... ... : ... .. . ... : ... .. 7 ... : ... .. . ... ... : ... .. . ... ... : ... .. . ... ... : ... .. . ... ...
ROW 21 : F-3 00 7 ... ... ... : ... .. . ... ... ... : ... .. . ... : ... .. 0 ... : ... .. . ... ... : ... .. . ... ... : ... .. . ... ... : ... .. . ... ...
ROW 22 : ... .. A ... ... ... : ... .. . ... ... ... : ... .. . ... : B-# 00 6 ... : ... .. . ... ... : ... .. . ... ... : ... .. . ... ... : ... .. . ... ...
ROW 23 : ... .. 7 ... ... ... : ... .. . ... ... ... : ... .. . ... : ... .. 2 ... : ... .. . ... ... : ... .. . ... ... : ... .. . ... ... : ... .. . ... ...
ROW 24 : ... .. 0 ... V00 ... : ... .. . ... ... ... : ... .. . ... : ... .. . ... : ... .. . ... ... : ... .. 1 ... ... : ... .. 1 ... ... : ... .. 1 ... ...
ROW 25 : F-3 00 5 P80 V01 ... : ... .. . ... ... ... : ... .. . ... : ... .. 0 ... : ... .. . ... ... : ... .. . ... ... : ... .. . ... ... : ... .. . ... ...
ROW 26 : C#3 00 7 ... ... ... : G-2 00 F ... ... ... : G-2 00 . ... : ... .. . ... : ... .. . ... ... : G-2 01 A ... ... : D-3 01 A ... ... : B-3 01 A ... ...
ROW 27 : ... .. A ... ... ... : ... .. E ... ... ... : ... .. . ... : ... .. A ... : ... .. . ... ... : ... .. 9 ... ... : ... .. 9 ... ... : ... .. 8 ... ...
ROW 28 : ... .. 7 ... ... ... : ... .. D ... ... ... : ... .. . ... : ... .. 4 ... : ... .. . ... ... : ... .. 8 ... ... : ... .. 8 ... ... : ... .. 5 ... ...
ROW 29 : ... .. 0 ... V00 ... : ... .. A ... ... ... : ... .. . ... : ... .. . ... : ... .. . ... ... : ... .. 7 ... ... : ... .. 7 ... ... : ... .. . ... ...
ROW 2A : C#3 00 5 P80 V01 ... : ... .. . ... ... ... : ... .. . ... : ... .. 0 ... : ... .. . ... ... : ... .. . ... ... : ... .. . ... ... : ... .. . ... ...
ROW 2B : B-2 00 7 ... ... ... : ... .. . ... ... ... : ... .. . ... : ... .. . ... : ... .. . ... ... : ... .. 6 ... ... : ... .. 6 ... ... : ... .. . ... ...
ROW 2C : ... .. A ... ... ... : ... .. . ... ... ... : ... .. . ... : ... .. 8 ... : ... .. . ... ... : ... .. . ... ... : ... .. . ... ... : ... .. . ... ...
ROW 2D : ... .. 7 ... ... ... : ... .. . ... ... ... : ... .. . ... : ... .. 3 ... : ... .. . ... ... : ... .. 5 ... ... : ... .. 5 ... ... : ... .. . ... ...
ROW 2E : ... .. 0 ... V00 ... : ... .. 0 ... V00 ... : --- .. . ... : ... .. . ... : ... .. . ... ... : ... .. 1 ... ... : ... .. 1 ... ... : ... .. 1 ... ...
ROW 2F : B-2 00 5 P80 V01 ... : ... .. . ... ... ... : ... .. . ... : ... .. 0 ... : ... .. . ... ... : ... .. . ... ... : ... .. . ... ... : ... .. . ... ...
ROW 30 : G-3 00 7 ... ... ... : F-1 00 F P81 V01 ... : E-3 00 . ... : 2-# 00 F ... : ... .. . ... ... : ... .. 5 ... ... : ... .. 5 ... ... : ... .. 5 ... ...
ROW 31 : ... .. A ... ... ... : ... .. E ... ... ... : F#2 00 . ... : ... .. C ... : ... .. . ... ... : ... .. . ... ... : ... .. . ... ... : ... .. . ... ...
ROW 32 : ... .. 7 ... ... ... : ... .. D ... ... ... : B-1 00 . ... : ... .. 6 ... : ... .. . ... ... : ... .. . ... ... : ... .. . ... ... : ... .. . ... ...
ROW 33 : ... .. 0 ... V00 ... : ... .. A ... ... ... : A#1 00 . ... : ... .. 3 ... : ... .. . ... ... : ... .. . ... ... : ... .. . ... ... : ... .. . ... ...
ROW 34 : G-3 00 5 P80 V01 ... : ... .. . ... ... ... : F-1 00 . ... : ... .. 2 ... : ... .. . ... ... : ... .. . ... ... : ... .. . ... ... : ... .. . ... ...
ROW 35 : F-3 00 7 ... ... ... : ... .. . ... ... ... : ... .. . ... : ... .. 0 ... : ... .. . ... ... : ... .. 2 ... ... : ... .. 2 ... ... : ... .. 1 ... ...
ROW 36 : ... .. A ... ... ... : ... .. . ... ... ... : ... .. . ... : B-# 00 8 ... : ... .. . ... ... : ... .. . ... ... : ... .. . ... ... : ... .. . ... ...
ROW 37 : ... .. 7 ... ... ... : ... .. . ... ... ... : ... .. . ... : ... .. 3 ... : ... .. . ... ... : ... .. . ... ... : ... .. . ... ... : ... .. . ... ...
ROW 38 : ... .. 0 ... V00 ... : ... .. . ... ... ... : ... .. . ... : ... .. . ... : ... .. . ... ... : ... .. 1 ... ... : ... .. 1 ... ... : ... .. . ... ...
ROW 39 : F-3 00 5 P80 V01 ... : ... .. . ... ... ... : ... .. . ... : ... .. 0 ... : ... .. . ... ... : ... .. . ... ... : ... .. . ... ... : ... .. . ... ...
ROW 3A : C#3 00 7 ... ... ... : D-2 00 F ... ... ... : C#4 00 . ... : 2-# 00 F ... : ... .. . ... ... : F#2 01 A ... ... : C#3 01 A ... ... : A#3 01 A ... ...
ROW 3B : ... .. A ... ... ... : ... .. E ... ... ... : D#3 00 . ... : ... .. C ... : ... .. . ... ... : ... .. 9 ... ... : ... .. 9 ... ... : ... .. 8 ... ...
ROW 3C : ... .. 7 ... ... ... : ... .. D ... ... ... : G#2 00 . ... : ... .. 6 ... : ... .. . ... ... : ... .. 8 ... ... : ... .. 8 ... ... : ... .. 5 ... ...
ROW 3D : ... .. 0 ... V00 ... : ... .. A ... ... ... : G-2 00 . ... : ... .. 3 ... : ... .. . ... ... : ... .. 7 ... ... : ... .. 7 ... ... : ... .. . ... ...
ROW 3E : C#3 00 5 P80 V01 ... : ... .. . ... ... ... : D-2 00 . ... : ... .. 2 ... : ... .. . ... ... : ... .. . ... ... : ... .. . ... ... : ... .. . ... ...
ROW 3F : B-2 00 7 ... ... ... : ... .. . ... ... ... : ... .. . ... : ... .. 0 ... : ... .. . ... ... : ... .. 6 ... ... : ... .. 6 ... ... : ... .. . ... ...
ROW 40 : ... .. A ... ... ... : ... .. . ... ... ... : ... .. . ... : B-# 00 8 ... : ... .. . ... ... : ... .. . ... ... : ... .. . ... ... : ... .. . ... ...
ROW 41 : ... .. 7 ... ... ... : ... .. . ... ... ... : ... .. . ... : ... .. 3 ... : ... .. . ... ... : ... .. 5 ... ... : ... .. 5 ... ... : ... .. . ... ...
ROW 42 : ... .. 0 ... V00 ... : ... .. . ... ... ... : ... .. . ... : ... .. . ... : ... .. . ... ... : ... .. 1 ... ... : ... .. 1 ... ... : ... .. 1 ... ...
ROW 43 : B-2 00 5 P80 V01 ... : ... .. . ... ... ... : ... .. . ... : ... .. 0 ... : ... .. . ... ... : ... .. . ... ... : ... .. . ... ... : ... .. . ... ...
ROW 44 : G-3 00 7 ... ... ... : C#2 00 F ... ... ... : C#2 00 . ... : 7-# 00 F ... : ... .. . ... ... : ... .. 5 ... ... : ... .. 5 ... ... : ... .. 5 ... ...
ROW 45 : ... .. A ... ... ... : ... .. E ... ... ... : ... .. . ... : ... .. C ... : ... .. . ... ... : ... .. . ... ... : ... .. . ... ... : ... .. . ... ...
ROW 46 : ... .. 7 ... ... ... : ... .. D ... ... ... : ... .. . ... : ... .. A ... : ... .. . ... ... : ... .. . ... ... : ... .. . ... ... : ... .. . ... ...
ROW 47 : ... .. 0 ... V00 ... : ... .. A ... ... ... : ... .. . ... : ... .. 8 ... : ... .. . ... ... : ... .. . ... ... : ... .. . ... ... : ... .. . ... ...
ROW 48 : G-3 00 5 P80 V01 ... : ... .. . ... ... ... : ... .. . ... : ... .. 7 ... : ... .. . ... ... : ... .. . ... ... : ... .. . ... ... : ... .. . ... ...
ROW 49 : F-3 00 7 ... ... ... : ... .. . ... ... ... : ... .. . ... : ... .. 0 ... : ... .. . ... ... : ... .. . ... ... : ... .. . ... ... : ... .. . ... ...
ROW 4A : ... .. A ... ... ... : ... .. . ... ... ... : ... .. . ... : B-# 00 6 ... : ... .. . ... ... : ... .. . ... ... : ... .. . ... ... : ... .. . ... ...
ROW 4B : ... .. 7 ... ... ... : ... .. . ... ... ... : ... .. . ... : ... .. 2 ... : ... .. . ... ... : ... .. . ... ... : ... .. . ... ... : ... .. . ... ...
ROW 4C : ... .. 0 ... V00 ... : ... .. . ... ... ... : ... .. . ... : ... .. . ... : ... .. . ... ... : ... .. 1 ... ... : ... .. 1 ... ... : ... .. 1 ... ...
ROW 4D : F-3 00 5 P80 V01 ... : ... .. . ... ... ... : ... .. . ... : ... .. 0 ... : ... .. . ... ... : ... .. . ... ... : ... .. . ... ... : ... .. . ... ...
ROW 4E : C#3 00 7 ... ... ... : G-1 00 F ... ... ... : G-1 00 . ... : ... .. . ... : ... .. . ... ... : F-2 01 A ... ... : C-3 01 A ... ... : A-3 01 A ... ...
ROW 4F : ... .. A ... ... ... : ... .. E ... ... ... : ... .. . ... : ... .. A ... : ... .. . ... ... : ... .. 9 ... ... : ... .. 9 ... ... : ... .. 8 ... ...
ROW 50 : ... .. 7 ... ... ... : ... .. D ... ... ... : ... .. . ... : ... .. 4 ... : ... .. . ... ... : ... .. 8 ... ... : ... .. 8 ... ... : ... .. 5 ... ...
ROW 51 : ... .. 0 ... V00 ... : ... .. 0 ... V00 ... : --- .. . ... : ... .. . ... : ... .. . ... ... : ... .. 7 ... ... : ... .. 7 ... ... : ... .. . ... ...
ROW 52 : C#3 00 5 P80 V01 ... : ... .. . ... ... ... : ... .. . ... : ... .. 0 ... : ... .. . ... ... : ... .. . ... ... : ... .. . ... ... : ... .. . ... ...
ROW 53 : B-2 00 7 ... ... ... : G-1 00 F P81 V01 ... : G-1 00 . ... : ... .. . ... : ... .. . ... ... : ... .. 6 ... ... : ... .. 6 ... ... : ... .. . ... ...
ROW 54 : ... .. A ... ... ... : ... .. E ... ... ... : ... .. . ... : ... .. 8 ... : ... .. . ... ... : ... .. . ... ... : ... .. . ... ... : ... .. . ... ...
ROW 55 : ... .. 7 ... ... ... : ... .. D ... ... ... : ... .. . ... : ... .. 3 ... : ... .. . ... ... : ... .. 5 ... ... : ... .. 5 ... ... : ... .. . ... ...
ROW 56 : ... .. 0 ... V00 ... : ... .. 0 ... V00 ... : --- .. . ... : ... .. . ... : ... .. . ... ... : ... .. 1 ... ... : ... .. 1 ... ... : ... .. 1 ... ...
ROW 57 : B-2 00 5 P80 V01 ... : ... .. . ... ... ... : ... .. . ... : ... .. 0 ... : ... .. . ... ... : ... .. . ... ... : ... .. . ... ... : ... .. . ... ...
ROW 58 : G-3 00 7 ... ... ... : F-2 00 F P81 V01 ... : E-4 00 . ... : 2-# 00 F ... : ... .. . ... ... : ... .. 5 ... ... : ... .. 5 ... ... : ... .. 5 ... ...
ROW 59 : ... .. A ... ... ... : ... .. E ... ... ... : F#3 00 . ... : ... .. C ... : ... .. . ... ... : ... .. . ... ... : ... .. . ... ... : ... .. . ... ...
ROW 5A : ... .. 7 ... ... ... : ... .. D ... ... ... : B-2 00 . ... : ... .. 6 ... : ... .. . ... ... : ... .. . ... ... : ... .. . ... ... : ... .. . ... ...
ROW 5B : ... .. 0 ... V00 ... : ... .. 0 ... V00 ... : --- .. . ... : ... .. 3 ... : ... .. . ... ... : ... .. . ... ... : ... .. . ... ... : ... .. . ... ...
ROW 5C : G-3 00 5 P80 V01 ... : ... .. . ... ... ... : ... .. . ... : ... .. 2 ... : ... .. . ... ... : ... .. . ... ... : ... .. . ... ... : ... .. . ... ...
ROW 5D : F-3 00 7 ... ... ... : F-2 00 F P81 V01 ... : F-2 00 . ... : ... .. 0 ... : ... .. . ... ... : ... .. 2 ... ... : ... .. 2 ... ... : ... .. 1 ... ...
ROW 5E : ... .. A ... ... ... : ... .. E ... ... ... : ... .. . ... : B-# 00 8 ... : ... .. . ... ... : ... .. . ... ... : ... .. . ... ... : ... .. . ... ...
ROW 5F : ... .. 7 ... ... ... : ... .. D ... ... ... : ... .. . ... : ... .. 3 ... : ... .. . ... ... : ... .. . ... ... : ... .. . ... ... : ... .. . ... ...
ROW 60 : ... .. 0 ... V00 ... : ... .. 0 ... V00 ... : --- .. . ... : ... .. . ... : ... .. . ... ... : ... .. 1 ... ... : ... .. 1 ... ... : ... .. . ... ...
ROW 61 : F-3 00 5 P80 V01 ... : ... .. . ... ... ... : ... .. . ... : ... .. 0 ... : ... .. . ... ... : ... .. . ... ... : ... .. . ... ... : ... .. . ... ...
ROW 62 : C#3 00 7 ... ... ... : E-2 00 F P81 V01 ... : E-2 00 . ... : C-# 00 8 ... : ... .. . ... ... : F#2 01 A ... ... : C#3 01 A ... ... : A#3 01 A ... ...
ROW 63 : ... .. A ... ... ... : ... .. E ... ... ... : ... .. . ... : ... .. 7 ... : ... .. . ... ... : ... .. 9 ... ... : ... .. 9 ... ... : ... .. 8 ... ...
ROW 64 : ... .. 7 ... ... ... : ... .. D ... ... ... : ... .. . ... : ... .. . ... : ... .. . ... ... : ... .. 8 ... ... : ... .. 8 ... ... : ... .. 5 ... ...
ROW 65 : ... .. 0 ... V00 ... : ... .. A ... ... ... : ... .. . ... : ... .. 6 ... : ... .. . ... ... : ... .. 7 ... ... : ... .. 7 ... ... : ... .. . ... ...
ROW 66 : C#3 00 5 P80 V01 ... : ... .. . ... ... ... : ... .. . ... : ... .. 5 ... : ... .. . ... ... : ... .. . ... ... : ... .. . ... ... : ... .. . ... ...
ROW 67 : B-2 00 7 ... ... ... : ... .. . ... ... ... : ... .. . ... : ... .. 4 ... : ... .. . ... ... : ... .. 6 ... ... : ... .. 6 ... ... : ... .. . ... ...
ROW 68 : ... .. A ... ... ... : ... .. . ... ... ... : ... .. . ... : ... .. . ... : ... .. . ... ... : ... .. . ... ... : ... .. . ... ... : ... .. . ... ...
ROW 69 : ... .. 7 ... ... ... : ... .. . ... ... ... : ... .. . ... : ... .. . ... : ... .. . ... ... : ... .. 5 ... ... : ... .. 5 ... ... : ... .. . ... ...
ROW 6A : ... .. 0 ... V00 ... : ... .. . ... ... ... : ... .. . ... : ... .. 3 ... : ... .. . ... ... : ... .. . ... ... : ... .. . ... ... : ... .. . ... ...
ROW 6B : B-2 00 5 P80 V01 ... : ... .. . ... ... ... : ... .. . ... : ... .. . ... : ... .. . ... ... : ... .. . ... ... : ... .. . ... ... : ... .. . ... ...
ROW 6C : G-3 00 7 ... ... ... : F-2 00 F ... ... ... : F-2 00 . ... : 7-# 00 F ... : ... .. . ... ... : G-2 01 A ... ... : D-3 01 A ... ... : B-3 01 A ... ...
ROW 6D : ... .. A ... ... ... : ... .. E ... ... ... : ... .. . ... : ... .. C ... : ... .. . ... ... : ... .. 9 ... ... : ... .. 9 ... ... : ... .. 8 ... ...
ROW 6E : ... .. 7 ... ... ... : ... .. D ... ... ... : ... .. . ... : ... .. A ... : ... .. . ... ... : ... .. 8 ... ... : ... .. 8 ... ... : ... .. 5 ... ...
ROW 6F : ... .. 0 ... V00 ... : ... .. A ... ... ... : ... .. . ... : ... .. 8 ... : ... .. . ... ... : ... .. 7 ... ... : ... .. 7 ... ... : ... .. . ... ...
ROW 70 : G-3 00 5 P80 V01 ... : ... .. . ... ... ... : ... .. . ... : ... .. 7 ... : ... .. . ... ... : ... .. . ... ... : ... .. . ... ... : ... .. . ... ...
ROW 71 : F-3 00 7 ... ... ... : ... .. . ... ... ... : ... .. . ... : ... .. 0 ... : ... .. . ... ... : ... .. 6 ... ... : ... .. 6 ... ... : ... .. . ... ...
ROW 72 : ... .. A ... ... ... : ... .. . ... ... ... : ... .. . ... : B-# 00 6 ... : ... .. . ... ... : ... .. . ... ... : ... .. . ... ... : ... .. . ... ...
ROW 73 : ... .. 7 ... ... ... : ... .. . ... ... ... : ... .. . ... : ... .. 2 ... : ... .. . ... ... : ... .. 5 ... ... : ... .. 5 ... ... : ... .. . ... ...
ROW 74 : ... .. 0 ... V00 ... : ... .. . ... ... ... : ... .. . ... : ... .. . ... : ... .. . ... ... : ... .. . ... ... : ... .. . ... ... : ... .. . ... ...
ROW 75 : F-3 00 5 P80 V01 ... : ... .. . ... ... ... : ... .. . ... : ... .. 0 ... : ... .. . ... ... : ... .. . ... ... : ... .. . ... ... : ... .. . ... ...
ROW 76 : C#3 00 7 ... ... ... : G-2 00 F ... ... ... : G-2 00 . ... : ... .. . ... : ... .. . ... ... : G#2 01 A ... ... : D#3 01 A ... ... : C-4 01 A ... ...
ROW 77 : ... .. A ... ... ... : ... .. E ... ... ... : ... .. . ... : ... .. A ... : ... .. . ... ... : ... .. 9 ... ... : ... .. 9 ... ... : ... .. 8 ... ...
ROW 78 : ... .. 7 ... ... ... : ... .. D ... ... ... : ... .. . ... : ... .. 4 ... : ... .. . ... ... : ... .. 8 ... ... : ... .. 8 ... ... : ... .. 5 ... ...
ROW 79 : ... .. 0 ... V00 ... : ... .. A ... ... ... : ... .. . ... : ... .. . ... : ... .. . ... ... : ... .. 7 ... ... : ... .. 7 ... ... : ... .. . ... ...
ROW 7A : C#3 00 5 P80 V01 ... : ... .. . ... ... ... : ... .. . ... : ... .. 0 ... : ... .. . ... ... : ... .. . ... ... : ... .. . ... ... : ... .. . ... ...
ROW 7B : B-2 00 7 ... ... ... : ... .. 0 ... V00 ... : --- .. . ... : ... .. . ... : ... .. . ... ... : ... .. 6 ... ... : ... .. 6 ... ... : ... .. . ... ...
ROW 7C : ... .. A ... ... ... : ... .. . ... ... ... : ... .. . ... : ... .. 8 ... : ... .. . ... ... : ... .. . ... ... : ... .. . ... ... : ... .. . ... ...
ROW 7D : ... .. 7 ... ... ... : ... .. . ... ... ... : ... .. . ... : ... .. 3 ... : ... .. . ... ... : ... .. 5 ... ... : ... .. 5 ... ... : ... .. . ... ...
ROW 7E : ... .. 0 ... V00 ... : ... .. . ... ... ... : ... .. . ... : ... .. . ... : ... .. . ... ... : ... .. 1 ... ... : ... .. 1 ... ... : ... .. 1 ... ...
ROW 7F : B-2 00 5 P80 V01 ... : ... .. . ... ... ... : ... .. . ... : ... .. 0 ... : ... .. . ... ... : ... .. . ... ... : ... .. . ... ... : ... .. . ... ...
ROW 80 : G-3 00 7 ... ... ... : G-1 00 F P81 V01 ... : F#3 00 . ... : ... .. . ... : ... .. . ... ... : ... .. 5 ... ... : ... .. 5 ... ... : ... .. 5 ... ...
ROW 81 : ... .. A ... ... ... : ... .. E ... ... ... : G#2 00 . ... : 2-# 00 F ... : ... .. . ... ... : ... .. . ... ... : ... .. . ... ... : ... .. . ... ...
ROW 82 : ... .. 7 ... ... ... : ... .. D ... ... ... : C#2 00 . ... : ... .. 6 ... : ... .. . ... ... : ... .. . ... ... : ... .. . ... ... : ... .. . ... ...
ROW 83 : ... .. 0 ... V00 ... : ... .. A ... ... ... : C-2 00 . ... : ... .. . ... : ... .. . ... ... : ... .. . ... ... : ... .. . ... ... : ... .. . ... ...
ROW 84 : G-3 00 5 P80 V01 ... : ... .. . ... ... ... : G-1 00 . ... : ... .. 0 ... : ... .. . ... ... : ... .. . ... ... : ... .. . ... ... : ... .. . ... ...
ROW 85 : F-3 00 7 ... ... ... : ... .. . ... ... ... : ... .. . ... : ... .. . ... : ... .. . ... ... : ... .. 2 ... ... : ... .. 2 ... ... : ... .. 1 ... ...
ROW 86 : ... .. A ... ... ... : ... .. . ... ... ... : ... .. . ... : B-# 00 6 ... : ... .. . ... ... : ... .. . ... ... : ... .. . ... ... : ... .. . ... ...
ROW 87 : ... .. 7 ... ... ... : ... .. . ... ... ... : ... .. . ... : ... .. 2 ... : ... .. . ... ... : ... .. . ... ... : ... .. . ... ... : ... .. . ... ...
ROW 88 : ... .. 0 ... V00 ... : ... .. . ... ... ... : ... .. . ... : ... .. . ... : ... .. . ... ... : ... .. 1 ... ... : ... .. 1 ... ... : ... .. . ... ...
ROW 89 : F-3 00 5 P80 V01 ... : ... .. . ... ... ... : ... .. . ... : ... .. 0 ... : ... .. . ... ... : ... .. . ... ... : ... .. . ... ... : ... .. . ... ...
ROW 8A : C#3 00 7 ... ... ... : F-2 00 F ... ... ... : F-2 00 . ... : ... .. . ... : ... .. . ... ... : A#2 01 A ... ... : F-3 01 A ... ... : D-4 01 A ... ...
ROW 8B : ... .. A ... ... ... : ... .. E ... ... ... : ... .. . ... : ... .. A ... : ... .. . ... ... : ... .. 9 ... ... : ... .. 9 ... ... : ... .. 8 ... ...
ROW 8C : ... .. 7 ... ... ... : ... .. D ... ... ... : ... .. . ... : ... .. 4 ... : ... .. . ... ... : ... .. 8 ... ... : ... .. 8 ... ... : ... .. 5 ... ...
ROW 8D : ... .. 0 ... V00 ... : ... .. A ... ... ... : ... .. . ... : ... .. . ... : ... .. . ... ... : ... .. 7 ... ... : ... .. 7 ... ... : ... .. . ... ...
ROW 8E : C#3 00 5 P80 V01 ... : ... .. . ... ... ... : ... .. . ... : ... .. 0 ... : ... .. . ... ... : ... .. . ... ... : ... .. . ... ... : ... .. . ... ...
ROW 8F : B-2 00 7 ... ... ... : ... .. . ... ... ... : ... .. . ... : ... .. . ... : ... .. . ... ... : ... .. 6 ... ... : ... .. 6 ... ... : ... .. . ... ...
ROW 90 : ... .. A ... ... ... : ... .. . ... ... ... : ... .. . ... : ... .. 8 ... : ... .. . ... ... : ... .. . ... ... : ... .. . ... ... : ... .. . ... ...
ROW 91 : ... .. 7 ... ... ... : ... .. . ... ... ... : ... .. . ... : ... .. 3 ... : ... .. . ... ... : ... .. 5 ... ... : ... .. 5 ... ... : ... .. . ... ...
ROW 92 : ... .. 0 ... V00 ... : ... .. . ... ... ... : ... .. . ... : ... .. . ... : ... .. . ... ... : ... .. 1 ... ... : ... .. 1 ... ... : ... .. 1 ... ...
ROW 93 : B-2 00 5 P80 V01 ... : ... .. . ... ... ... : ... .. . ... : ... .. 0 ... : ... .. . ... ... : ... .. . ... ... : ... .. . ... ... : ... .. . ... ...
ROW 94 : G-3 00 7 ... ... ... : ... .. . P71 ... ... : ... .. . P70 : 7-# 00 F ... : ... .. . ... ... : ... .. 5 ... ... : ... .. 5 ... ... : ... .. 5 ... ...
ROW 95 : ... .. A ... ... ... : E-2 00 A P87 ... ... : E-2 00 . P86 : ... .. C ... : ... .. . ... ... : ... .. . ... ... : ... .. . ... ... : ... .. . ... ...
ROW 96 : ... .. 7 ... ... ... : ... .. . P77 ... ... : ... .. . P76 : ... .. A ... : ... .. . ... ... : ... .. . ... ... : ... .. . ... ... : ... .. . ... ...
ROW 97 : ... .. 0 ... V00 ... : D#2 00 A P8F ... ... : D#2 00 . P8E : ... .. 8 ... : ... .. . ... ... : ... .. . ... ... : ... .. . ... ... : ... .. . ... ...
ROW 98 : G-3 00 5 P80 V01 ... : ... .. . P7F ... ... : ... .. . P7E : ... .. 7 ... : ... .. . ... ... : ... .. . ... ... : ... .. . ... ... : ... .. . ... ...
ROW 99 : F-3 00 7 ... ... ... : ... .. . P6F ... ... : ... .. . P6E : ... .. 0 ... : ... .. . ... ... : ... .. . ... ... : ... .. . ... ... : ... .. . ... ...
ROW 9A : ... .. A ... ... ... : D-2 00 A P8A ... ... : D-2 00 . P89 : B-# 00 6 ... : ... .. . ... ... : ... .. . ... ... : ... .. . ... ... : ... .. . ... ...
ROW 9B : ... .. 7 ... ... ... : ... .. . P7A ... ... : ... .. . P79 : ... .. 2 ... : ... .. . ... ... : ... .. . ... ... : ... .. . ... ... : ... .. . ... ...
ROW 9C : ... .. 0 ... V00 ... : ... .. . P6A ... ... : C#2 00 . P96 : ... .. . ... : ... .. . ... ... : ... .. 1 ... ... : ... .. 1 ... ... : ... .. 1 ... ...
ROW 9D : F-3 00 5 P80 V01 ... : C#2 00 A P87 ... ... : ... .. . P86 : ... .. 0 ... : ... .. . ... ... : ... .. . ... ... : ... .. . ... ... : ... .. . ... ...
ROW 9E : C#3 00 7 ... ... ... : B-1 00 F P81 ... ... : B-1 00 . P80 : ... .. . ... : ... .. . ... ... : B-2 01 A ... ... : F#3 01 A ... ... : D#4 01 A ... ...
ROW 9F : ... .. A ... ... ... : ... .. E ... ... ... : ... .. . ... : ... .. A ... : ... .. . ... ... : ... .. 9 ... ... : ... .. 9 ... ... : ... .. 8 ... ...
ROW A0 : ... .. 7 ... ... ... : ... .. D ... ... ... : ... .. . ... : ... .. 4 ... : ... .. . ... ... : ... .. 8 ... ... : ... .. 8 ... ... : ... .. 5 ... ...
ROW A1 : ... .. 0 ... V00 ... : ... .. A ... ... ... : ... .. . ... : ... .. . ... : ... .. . ... ... : ... .. 7 ... ... : ... .. 7 ... ... : ... .. . ... ...
ROW A2 : C#3 00 5 P80 V01 ... : ... .. . ... ... ... : ... .. . ... : ... .. 0 ... : ... .. . ... ... : ... .. . ... ... : ... .. . ... ... : ... .. . ... ...
ROW A3 : B-2 00 7 ... ... ... : ... .. . ... ... ... : ... .. . ... : ... .. . ... : ... .. . ... ... : ... .. 6 ... ... : ... .. 6 ... ... : ... .. . ... ...
ROW A4 : ... .. A ... ... ... : ... .. . ... ... ... : ... .. . ... : ... .. 8 ... : ... .. . ... ... : ... .. . ... ... : ... .. . ... ... : ... .. . ... ...
ROW A5 : ... .. 7 ... ... ... : ... .. . ... ... ... : ... .. . ... : ... .. 3 ... : ... .. . ... ... : ... .. 5 ... ... : ... .. 5 ... ... : ... .. . ... ...
ROW A6 : ... .. 0 ... V00 ... : ... .. . ... ... ... : ... .. . ... : ... .. . ... : ... .. . ... ... : ... .. 1 ... ... : ... .. 1 ... ... : ... .. 1 ... ...
ROW A7 : B-2 00 5 P80 V01 ... : ... .. . ... ... ... : ... .. . ... : ... .. 0 ... : ... .. . ... ... : ... .. . ... ... : ... .. . ... ... : ... .. . ... ...
ROW A8 : G-3 00 7 ... ... ... : F-1 00 F ... ... ... : E-3 00 . ... : 2-# 00 F ... : ... .. . ... ... : ... .. 5 ... ... : ... .. 5 ... ... : ... .. 5 ... ...
ROW A9 : ... .. A ... ... ... : ... .. E ... ... ... : F#2 00 . ... : ... .. C ... : ... .. . ... ... : ... .. . ... ... : ... .. . ... ... : ... .. . ... ...
ROW AA : ... .. 7 ... ... ... : ... .. D ... ... ... : B-1 00 . ... : ... .. 6 ... : ... .. . ... ... : ... .. . ... ... : ... .. . ... ... : ... .. . ... ...
ROW AB : ... .. 0 ... V00 ... : ... .. A ... ... ... : A#1 00 . ... : ... .. 3 ... : ... .. . ... ... : ... .. . ... ... : ... .. . ... ... : ... .. . ... ...
ROW AC : G-3 00 5 P80 V01 ... : ... .. . ... ... ... : F-1 00 . ... : ... .. 2 ... : ... .. . ... ... : ... .. . ... ... : ... .. . ... ... : ... .. . ... ...
ROW AD : F-3 00 7 ... ... ... : ... .. . ... ... ... : ... .. . ... : ... .. 0 ... : ... .. . ... ... : ... .. 2 ... ... : ... .. 2 ... ... : ... .. 1 ... ...
ROW AE : ... .. A ... ... ... : ... .. . ... ... ... : ... .. . ... : B-# 00 8 ... : ... .. . ... ... : ... .. . ... ... : ... .. . ... ... : ... .. . ... ...
ROW AF : ... .. 7 ... ... ... : ... .. . ... ... ... : ... .. . ... : ... .. 3 ... : ... .. . ... ... : ... .. . ... ... : ... .. . ... ... : ... .. . ... ...
ROW B0 : ... .. 0 ... V00 ... : ... .. . ... ... ... : ... .. . ... : ... .. . ... : ... .. . ... ... : ... .. 1 ... ... : ... .. 1 ... ... : ... .. . ... ...
ROW B1 : F-3 00 5 P80 V01 ... : ... .. . ... ... ... : ... .. . ... : ... .. 0 ... : ... .. . ... ... : ... .. . ... ... : ... .. . ... ... : ... .. . ... ...
ROW B2 : C#3 00 7 ... ... ... : G-1 00 F ... ... ... : F#3 00 . ... : 2-# 00 F ... : ... .. . ... ... : C-3 01 A ... ... : G-3 01 A ... ... : E-4 01 A ... ...
ROW B3 : ... .. A ... ... ... : ... .. E ... ... ... : G#2 00 . ... : ... .. C ... : ... .. . ... ... : ... .. 9 ... ... : ... .. 9 ... ... : ... .. 8 ... ...
ROW B4 : ... .. 7 ... ... ... : ... .. D ... ... ... : C#2 00 . ... : ... .. 6 ... : ... .. . ... ... : ... .. 8 ... ... : ... .. 8 ... ... : ... .. 5 ... ...
ROW B5 : ... .. 0 ... V00 ... : ... .. A ... ... ... : C-2 00 . ... : ... .. 3 ... : ... .. . ... ... : ... .. 7 ... ... : ... .. 7 ... ... : ... .. . ... ...
ROW B6 : C#3 00 5 P80 V01 ... : ... .. . ... ... ... : G-1 00 . ... : ... .. 2 ... : ... .. . ... ... : ... .. . ... ... : ... .. . ... ... : ... .. . ... ...
ROW B7 : B-2 00 7 ... ... ... : ... .. . ... ... ... : ... .. . ... : ... .. 0 ... : ... .. . ... ... : ... .. 6 ... ... : ... .. 6 ... ... : ... .. . ... ...
ROW B8 : ... .. A ... ... ... : ... .. . ... ... ... : ... .. . ... : B-# 00 8 ... : ... .. . ... ... : ... .. . ... ... : ... .. . ... ... : ... .. . ... ...
ROW B9 : ... .. 7 ... ... ... : ... .. . ... ... ... : ... .. . ... : ... .. 3 ... : ... .. . ... ... : ... .. 5 ... ... : ... .. 5 ... ... : ... .. . ... ...
ROW BA : ... .. 0 ... V00 ... : ... .. . ... ... ... : ... .. . ... : ... .. . ... : ... .. . ... ... : ... .. 1 ... ... : ... .. 1 ... ... : ... .. 1 ... ...
ROW BB : B-2 00 5 P80 V01 ... : ... .. . ... ... ... : ... .. . ... : ... .. 0 ... : ... .. . ... ... : ... .. . ... ... : ... .. . ... ... : ... .. . ... ...
ROW BC : G-3 00 7 ... ... ... : B-0 00 F ... ... ... : B-0 00 . ... : 7-# 00 F ... : ... .. . ... ... : ... .. 5 ... ... : ... .. 5 ... ... : ... .. 5 ... ...
ROW BD : ... .. A ... ... ... : ... .. E ... ... ... : ... .. . ... : ... .. C ... : ... .. . ... ... : ... .. . ... ... : ... .. . ... ... : ... .. . ... ...
ROW BE : ... .. 7 ... ... ... : ... .. D ... ... ... : ... .. . ... : ... .. A ... : ... .. . ... ... : ... .. . ... ... : ... .. . ... ... : ... .. . ... ...
ROW BF : ... .. 0 ... V00 ... : ... .. A ... ... ... : ... .. . ... : ... .. 8 ... : ... .. . ... ... : ... .. . ... ... : ... .. . ... ... : ... .. . ... ...
ROW C0 : G-3 00 5 P80 V01 ... : ... .. . ... ... ... : ... .. . ... : ... .. 7 ... : ... .. . ... ... : ... .. . ... ... : ... .. . ... ... : ... .. . ... ...
ROW C1 : F-3 00 7 ... ... ... : ... .. . ... ... ... : ... .. . ... : ... .. 0 ... : ... .. . ... ... : ... .. . ... ... : ... .. . ... ... : ... .. . ... ...
ROW C2 : ... .. A ... ... ... : ... .. . ... ... ... : ... .. . ... : B-# 00 6 ... : ... .. . ... ... : ... .. . ... ... : ... .. . ... ... : ... .. . ... ...
ROW C3 : ... .. 7 ... ... ... : ... .. . ... ... ... : ... .. . ... : ... .. 2 ... : ... .. . ... ... : ... .. . ... ... : ... .. . ... ... : ... .. . ... ...
ROW C4 : ... .. 0 ... V00 ... : ... .. 0 ... V00 ... : --- .. . ... : ... .. . ... : ... .. . ... ... : ... .. 1 ... ... : ... .. 1 ... ... : ... .. 1 ... ...
ROW C5 : F-3 00 5 P80 V01 ... : ... .. . ... ... ... : ... .. . ... : ... .. 0 ... : ... .. . ... ... : ... .. . ... ... : ... .. . ... ... : ... .. . ... ...
ROW C6 : C#3 00 7 ... ... ... : C#1 00 F P81 V01 ... : C#1 00 . ... : ... .. . ... : ... .. . ... ... : C#3 01 A ... ... : G#3 01 A ... ... : F-4 01 A ... ...
ROW C7 : ... .. A ... ... ... : ... .. E ... ... ... : ... .. . ... : ... .. A ... : ... .. . ... ... : ... .. 9 ... ... : ... .. 9 ... ... : ... .. 8 ... ...
ROW C8 : ... .. 7 ... ... ... : ... .. D ... ... ... : ... .. . ... : ... .. 4 ... : ... .. . ... ... : ... .. 8 ... ... : ... .. 8 ... ... : ... .. 5 ... ...
ROW C9 : ... .. 0 ... V00 ... : ... .. A ... ... ... : ... .. . ... : ... .. . ... : ... .. . ... ... : ... .. 7 ... ... : ... .. 7 ... ... : ... .. . ... ...
ROW CA : C#3 00 5 P80 V01 ... : ... .. . ... ... ... : ... .. . ... : ... .. 0 ... : ... .. . ... ... : ... .. . ... ... : ... .. . ... ... : ... .. . ... ...
ROW CB : B-2 00 7 ... ... ... : ... .. . ... ... ... : ... .. . ... : ... .. . ... : ... .. . ... ... : ... .. 6 ... ... : ... .. 6 ... ... : ... .. . ... ...
ROW CC : ... .. A ... ... ... : ... .. . ... ... ... : ... .. . ... : ... .. 8 ... : ... .. . ... ... : ... .. . ... ... : ... .. . ... ... : ... .. . ... ...
ROW CD : ... .. 7 ... ... ... : ... .. . ... ... ... : ... .. . ... : ... .. 3 ... : ... .. . ... ... : ... .. 5 ... ... : ... .. 5 ... ... : ... .. . ... ...
ROW CE : ... .. 0 ... V00 ... : ... .. 0 ... V00 ... : --- .. . ... : ... .. . ... : ... .. . ... ... : ... .. 1 ... ... : ... .. 1 ... ... : ... .. 1 ... ...
ROW CF : B-2 00 5 P80 V01 ... : ... .. . ... ... ... : ... .. . ... : ... .. 0 ... : ... .. . ... ... : ... .. . ... ... : ... .. . ... ... : ... .. . ... ...
ROW D0 : G-3 00 7 ... ... ... : G-1 00 F P81 V01 ... : F#3 00 . ... : 9-# 00 D ... : ... .. . ... ... : ... .. 5 ... ... : ... .. 5 ... ... : ... .. 5 ... ...
ROW D1 : ... .. A ... ... ... : ... .. E ... ... ... : G#2 00 . ... : ... .. . ... : ... .. . ... ... : ... .. . ... ... : ... .. . ... ... : ... .. . ... ...
ROW D2 : ... .. 7 ... ... ... : ... .. D ... ... ... : C#2 00 . ... : ... .. . ... : ... .. . ... ... : ... .. . ... ... : ... .. . ... ... : ... .. . ... ...
ROW D3 : ... .. 0 ... V00 ... : ... .. A ... ... ... : C-2 00 . ... : ... .. B ... : ... .. . ... ... : ... .. . ... ... : ... .. . ... ... : ... .. . ... ...
ROW D4 : G-3 00 5 P80 V01 ... : ... .. . ... ... ... : G-1 00 . ... : ... .. . ... : ... .. . ... ... : ... .. . ... ... : ... .. . ... ... : ... .. . ... ...
ROW D5 : F-3 00 7 ... ... ... : ... .. . ... ... ... : ... .. . ... : ... .. A ... : ... .. . ... ... : ... .. 2 ... ... : ... .. 2 ... ... : ... .. 1 ... ...
ROW D6 : ... .. A ... ... ... : ... .. . ... ... ... : ... .. . ... : ... .. . ... : ... .. . ... ... : ... .. . ... ... : ... .. . ... ... : ... .. . ... ...
ROW D7 : ... .. 7 ... ... ... : ... .. . ... ... ... : ... .. . ... : ... .. . ... : ... .. . ... ... : ... .. . ... ... : ... .. . ... ... : ... .. . ... ...
ROW D8 : ... .. 0 ... V00 ... : ... .. . ... ... ... : ... .. . ... : ... .. 9 ... : ... .. . ... ... : ... .. 1 ... ... : ... .. 1 ... ... : ... .. . ... ...
ROW D9 : F-3 00 5 P80 V01 ... : ... .. . ... ... ... : ... .. . ... : ... .. . ... : ... .. . ... ... : ... .. . ... ... : ... .. . ... ... : ... .. . ... ...
ROW DA : C#3 00 7 ... ... ... : F-2 00 F ... ... ... : F-2 00 . ... : ... .. 7 ... : ... .. . ... ... : D-3 01 A ... ... : A-3 01 A ... ... : F#4 01 A ... ...
ROW DB : ... .. A ... ... ... : ... .. E ... ... ... : ... .. . ... : ... .. . ... : ... .. . ... ... : ... .. 9 ... ... : ... .. 9 ... ... : ... .. 8 ... ...
ROW DC : ... .. 7 ... ... ... : ... .. D ... ... ... : ... .. . ... : ... .. . ... : ... .. . ... ... : ... .. 8 ... ... : ... .. 8 ... ... : ... .. 5 ... ...
ROW DD : ... .. 0 ... V00 ... : ... .. 0 ... V00 ... : --- .. . ... : ... .. 6 ... : ... .. . ... ... : ... .. 7 ... ... : ... .. 7 ... ... : ... .. . ... ...
ROW DE : C#3 00 5 P80 V01 ... : ... .. . ... ... ... : ... .. . ... : ... .. . ... : ... .. . ... ... : ... .. . ... ... : ... .. . ... ... : ... .. . ... ...
ROW DF : B-2 00 7 ... ... ... : F-2 00 F P81 V01 ... : E-4 00 . ... : ... .. 5 ... : ... .. . ... ... : ... .. 6 ... ... : ... .. 6 ... ... : ... .. . ... ...
ROW E0 : ... .. A ... ... ... : ... .. E ... ... ... : F#3 00 . ... : ... .. . ... : ... .. . ... ... : ... .. . ... ... : ... .. . ... ... : ... .. . ... ...
ROW E1 : ... .. 7 ... ... ... : ... .. D ... ... ... : B-2 00 . ... : ... .. . ... : ... .. . ... ... : ... .. 5 ... ... : ... .. 5 ... ... : ... .. . ... ...
ROW E2 : ... .. 0 ... V00 ... : ... .. 0 ... V00 ... : --- .. . ... : ... .. 4 ... : ... .. . ... ... : ... .. 1 ... ... : ... .. 1 ... ... : ... .. 1 ... ...
ROW E3 : B-2 00 5 P80 V01 ... : ... .. . ... ... ... : ... .. . ... : ... .. . ... : ... .. . ... ... : ... .. . ... ... : ... .. . ... ... : ... .. . ... ...
ROW E4 : G-3 00 7 ... ... ... : F-2 00 F P81 V01 ... : F-2 00 . ... : 7-# 00 F ... : ... .. . ... ... : ... .. 5 ... ... : ... .. 5 ... ... : ... .. 5 ... ...
ROW E5 : ... .. A ... ... ... : ... .. E ... ... ... : ... .. . ... : ... .. C ... : ... .. . ... ... : ... .. . ... ... : ... .. . ... ... : ... .. . ... ...
ROW E6 : ... .. 7 ... ... ... : ... .. D ... ... ... : ... .. . ... : ... .. A ... : ... .. . ... ... : ... .. . ... ... : ... .. . ... ... : ... .. . ... ...
ROW E7 : ... .. 0 ... V00 ... : ... .. 0 ... V00 ... : --- .. . ... : ... .. 8 ... : ... .. . ... ... : ... .. . ... ... : ... .. . ... ... : ... .. . ... ...
ROW E8 : G-3 00 5 P80 V01 ... : ... .. . ... ... ... : ... .. . ... : ... .. 7 ... : ... .. . ... ... : ... .. . ... ... : ... .. . ... ... : ... .. . ... ...
ROW E9 : F-3 00 7 ... ... ... : F-2 00 F P81 V01 ... : F-2 00 . ... : ... .. 0 ... : ... .. . ... ... : ... .. . ... ... : ... .. . ... ... : ... .. . ... ...
ROW EA : ... .. A ... ... ... : ... .. E ... ... ... : ... .. . ... : B-# 00 6 ... : ... .. . ... ... : ... .. . ... ... : ... .. . ... ... : ... .. . ... ...
ROW EB : ... .. 7 ... ... ... : ... .. D ... ... ... : ... .. . ... : ... .. 2 ... : ... .. . ... ... : ... .. . ... ... : ... .. . ... ... : ... .. . ... ...
ROW EC : ... .. 0 ... V00 ... : ... .. 0 ... V00 ... : --- .. . ... : ... .. . ... : ... .. . ... ... : ... .. 1 ... ... : ... .. 1 ... ... : ... .. 1 ... ...
ROW ED : F-3 00 5 P80 V01 ... : ... .. . ... ... ... : ... .. . ... : ... .. 0 ... : ... .. . ... ... : ... .. . ... ... : ... .. . ... ... : ... .. . ... ...
ROW EE : C#3 00 7 ... ... ... : G-1 00 F P81 V01 ... : F#3 00 . ... : 9-# 00 D ... : ... .. . ... ... : C#3 01 A ... ... : G#3 01 A ... ... : F-4 01 A ... ...
ROW EF : ... .. A ... ... ... : ... .. E ... ... ... : G#2 00 . ... : ... .. . ... : ... .. . ... ... : ... .. 9 ... ... : ... .. 9 ... ... : ... .. 8 ... ...
ROW F0 : ... .. 7 ... ... ... : ... .. D ... ... ... : C#2 00 . ... : ... .. . ... : ... .. . ... ... : ... .. 8 ... ... : ... .. 8 ... ... : ... .. 5 ... ...
ROW F1 : ... .. 0 ... V00 ... : ... .. A ... ... ... : C-2 00 . ... : ... .. B ... : ... .. . ... ... : ... .. 7 ... ... : ... .. 7 ... ... : ... .. . ... ...
ROW F2 : C#3 00 5 P80 V01 ... : ... .. . ... ... ... : G-1 00 . ... : ... .. . ... : ... .. . ... ... : ... .. . ... ... : ... .. . ... ... : ... .. . ... ...
ROW F3 : B-2 00 7 ... ... ... : ... .. . ... ... ... : ... .. . ... : ... .. A ... : ... .. . ... ... : ... .. 6 ... ... : ... .. 6 ... ... : ... .. . ... ...
ROW F4 : ... .. A ... ... ... : ... .. . ... ... ... : ... .. . ... : ... .. . ... : ... .. . ... ... : ... .. . ... ... : ... .. . ... ... : ... .. . ... ...
ROW F5 : ... .. 7 ... ... ... : ... .. . ... ... ... : ... .. . ... : ... .. . ... : ... .. . ... ... : ... .. 5 ... ... : ... .. 5 ... ... : ... .. . ... ...
ROW F6 : ... .. 0 ... V00 ... : ... .. . ... ... ... : ... .. . ... : ... .. 9 ... : ... .. . ... ... : ... .. 1 ... ... : ... .. 1 ... ... : ... .. 1 ... ...
ROW F7 : B-2 00 5 P80 V01 ... : ... .. . ... ... ... : ... .. . ... : ... .. . ... : ... .. . ... ... : ... .. . ... ... : ... .. . ... ... : ... .. . ... ...
ROW F8 : G-3 00 7 ... ... ... : F-2 00 F ... ... ... : F-2 00 . ... : ... .. 7 ... : ... .. . ... ... : ... .. 5 ... ... : ... .. 5 ... ... : ... .. 5 ... ...
ROW F9 : ... .. A ... ... ... : ... .. E ... ... ... : ... .. . ... : ... .. . ... : ... .. . ... ... : ... .. . ... ... : ... .. . ... ... : ... .. . ... ...
ROW FA : ... .. 7 ... ... ... : ... .. D ... ... ... : ... .. . ... : ... .. . ... : ... .. . ... ... : ... .. . ... ... : ... .. . ... ... : ... .. . ... ...
ROW FB : ... .. 0 ... V00 ... : ... .. 0 ... V00 ... : --- .. . ... : ... .. 6 ... : ... .. . ... ... : ... .. . ... ... : ... .. . ... ... : ... .. . ... ...
ROW FC : G-3 00 5 P80 V01 ... : ... .. . ... ... ... : ... .. . ... : ... .. . ... : ... .. . ... ... : ... .. . ... ... : ... .. . ... ... : ... .. . ... ...
ROW FD : F-3 00 7 ... ... ... : F-2 00 F P81 V01 ... : F-2 00 . ... : ... .. 5 ... : ... .. . ... ... : ... .. 2 ... ... : ... .. 2 ... ... : ... .. 1 ... ...
ROW FE : ... .. A ... ... ... : ... .. E ... ... ... : ... .. . ... : ... .. . ... : ... .. . ... ... : ... .. . ... ... : ... .. . ... ... : ... .. . ... ...
ROW FF : ... .. 7 ... ... ... : ... .. D ... ... ... : ... .. . ... : ... .. . ... : ... .. . ... ... : ... .. . ... ... : ... .. . ... ... : ... .. . ... ...

PATTERN 03
ROW 00 : ... .. 0 ... V00 ... : ... .. 0 ... V00 ... : --- .. . ... : ... .. 4 ... : ... .. . ... ... : ... .. 1 ... ... : ... .. 1 ... ... : ... .. . ... ...
ROW 01 : F-3 00 5 P80 V01 ... : ... .. . ... ... ... : ... .. . ... : ... .. . ... : ... .. . ... ... : ... .. . ... ... : ... .. . ... ... : ... .. . ... ...
ROW 02 : C#3 00 7 ... ... ... : F-2 00 F P81 V01 ... : F-2 00 . ... : ... .. 0 ... : ... .. . ... ... : C-3 01 A ... ... : G-3 01 A ... ... : E-4 01 A ... ...
ROW 03 : ... .. A ... ... ... : ... .. E ... ... ... : ... .. . ... : B-# 00 8 ... : ... .. . ... ... : ... .. 9 ... ... : ... .. 9 ... ... : ... .. 8 ... ...
ROW 04 : ... .. 7 ... ... ... : ... .. D ... ... ... : ... .. . ... : ... .. 3 ... : ... .. . ... ... : ... .. 8 ... ... : ... .. 8 ... ... : ... .. 5 ... ...
ROW 05 : ... .. 0 ... V00 ... : ... .. 0 ... V00 ... : --- .. . ... : ... .. . ... : ... .. . ... ... : ... .. 7 ... ... : ... .. 7 ... ... : ... .. . ... ...
ROW 06 : C#3 00 5 P80 V01 ... : ... .. . ... ... ... : ... .. . ... : ... .. 0 ... : ... .. . ... ... : ... .. . ... ... : ... .. . ... ... : ... .. . ... ...
ROW 07 : B-2 00 7 ... ... ... : F-2 00 F P81 V01 ... : F-2 00 . ... : ... .. . ... : ... .. . ... ... : ... .. 6 ... ... : ... .. 6 ... ... : ... .. . ... ...
ROW 08 : ... .. A ... ... ... : ... .. E ... ... ... : ... .. . ... : ... .. 6 ... : ... .. . ... ... : ... .. . ... ... : ... .. . ... ... : ... .. . ... ...
ROW 09 : ... .. 7 ... ... ... : ... .. D ... ... ... : ... .. . ... : ... .. 2 ... : ... .. . ... ... : ... .. 5 ... ... : ... .. 5 ... ... : ... .. . ... ...
ROW 0A : ... .. 0 ... V00 ... : ... .. 0 ... V00 ... : --- .. . ... : ... .. . ... : ... .. . ... ... : ... .. 1 ... ... : ... .. 1 ... ... : ... .. 1 ... ...
ROW 0B : B-2 00 5 P80 V01 ... : ... .. . ... ... ... : ... .. . ... : ... .. 0 ... : ... .. . ... ... : ... .. . ... ... : ... .. . ... ... : ... .. . ... ...
ROW 0C : G-3 00 7 ... ... ... : B-1 00 F P81 V01 ... : B-1 00 . ... : 7-# 00 F ... : ... .. . ... ... : B-2 01 A ... ... : F#3 01 A ... ... : D#4 01 A ... ...
ROW 0D : ... .. A ... ... ... : ... .. E ... ... ... : ... .. . ... : ... .. C ... : ... .. . ... ... : ... .. 9 ... ... : ... .. 9 ... ... : ... .. 8 ... ...
ROW 0E : ... .. 7 ... ... ... : ... .. D ... ... ... : ... .. . ... : ... .. A ... : ... .. . ... ... : ... .. 8 ... ... : ... .. 8 ... ... : ... .. 5 ... ...
ROW 0F : ... .. 0 ... V00 ... : ... .. A ... ... ... : ... .. . ... : ... .. 0 ... : ... .. . ... ... : ... .. 7 ... ... : ... .. 7 ... ... : ... .. . ... ...
ROW 10 : G-3 00 5 P80 V01 ... : ... .. . ... ... ... : ... .. . ... : ... .. . ... : ... .. . ... ... : ... .. . ... ... : ... .. . ... ... : ... .. . ... ...
ROW 11 : F-3 00 7 ... ... ... : ... .. . ... ... ... : ... .. . ... : 6-# 00 F ... : ... .. . ... ... : ... .. 6 ... ... : ... .. 6 ... ... : ... .. . ... ...
ROW 12 : ... .. A ... ... ... : ... .. . ... ... ... : ... .. . ... : ... .. C ... : ... .. . ... ... : ... .. . ... ... : ... .. . ... ... : ... .. . ... ...
ROW 13 : ... .. 7 ... ... ... : ... .. . ... ... ... : ... .. . ... : ... .. A ... : ... .. . ... ... : ... .. 5 ... ... : ... .. 5 ... ... : ... .. . ... ...
ROW 14 : ... .. 0 ... V00 ... : ... .. . ... ... ... : ... .. . ... : ... .. 0 ... : ... .. . ... ... : ... .. . ... ... : ... .. . ... ... : ... .. . ... ...
ROW 15 : F-3 00 5 P80 V01 ... : ... .. . ... ... ... : ... .. . ... : ... .. . ... : ... .. . ... ... : ... .. . ... ... : ... .. . ... ... : ... .. . ... ...
ROW 16 : C#3 00 7 ... ... ... : C#2 00 F ... ... ... : C#2 00 . ... : 5-# 00 F ... : ... .. . ... ... : ... .. . P84 ... : ... .. . P83 ... : ... .. . P85 ...
ROW 17 : ... .. A ... ... ... : ... .. E ... ... ... : ... .. . ... : ... .. C ... : ... .. . ... ... : ... .. . P86 ... : ... .. . P85 ... : E-4 01 5 P7C ...
ROW 18 : ... .. 7 ... ... ... : ... .. D ... ... ... : ... .. . ... : ... .. A ... : ... .. . ... ... : ... .. . P85 ... : ... .. . P84 ... : ... .. . P7B ...
ROW 19 : ... .. 0 ... V00 ... : ... .. A ... ... ... : ... .. . ... : ... .. 0 ... : ... .. . ... ... : ... .. . P82 ... : ... .. . P81 ... : D#4 01 5 P83 ...
ROW 1A : C#3 00 5 P80 V01 ... : ... .. . ... ... ... : ... .. . ... : ... .. . ... : ... .. . ... ... : ... .. . P7E ... : ... .. . P7D ... : ... .. . P7F ...
ROW 1B : B-2 00 7 ... ... ... : ... .. . ... ... ... : ... .. . ... : 4-# 00 F ... : ... .. . ... ... : ... .. . P7B ... : ... .. . P7A ... : ... .. . P7C ...
ROW 1C : ... .. A ... ... ... : ... .. . ... ... ... : ... .. . ... : ... .. C ... : ... .. . ... ... : ... .. . P7A ... : ... .. . P79 ... : ... .. . P7B ...
ROW 1D : ... .. 7 ... ... ... : ... .. . ... ... ... : ... .. . ... : ... .. A ... : ... .. . ... ... : ... .. . P7C ... : ... .. . P7B ... : ... .. . P7D ...
ROW 1E : ... .. 0 ... V00 ... : ... .. 0 ... V00 ... : --- .. . ... : ... .. 8 ... : ... .. . ... ... : ... .. . P80 ... : ... .. . P7F ... : ... .. . P81 ...
ROW 1F : B-2 00 5 P80 V01 ... : ... .. . ... ... ... : ... .. . ... : ... .. 7 ... : ... .. . ... ... : ... .. . P83 ... : ... .. . P82 ... : ... .. . P84 ...
ROW 20 : G-4 00 7 ... ... ... : G-2 00 F P81 V01 ... : F#4 00 . ... : 9-# 00 D ... : ... .. . ... ... : --- .. . P7C ... : --- .. . P81 ... : --- .. . ... ...
ROW 21 : ... .. A ... ... ... : ... .. E ... ... ... : G#3 00 . ... : ... .. . ... : ... .. . ... ... : ... .. . ... ... : ... .. . ... ... : ... .. . ... ...
ROW 22 : ... .. 7 ... ... ... : ... .. D ... ... ... : C#3 00 . ... : ... .. . ... : ... .. . ... ... : ... .. . ... ... : ... .. . ... ... : ... .. . ... ...
ROW 23 : ... .. 0 ... V00 ... : ... .. A ... ... ... : C-3 00 . ... : ... .. B ... : ... .. . ... ... : ... .. . ... ... : ... .. . ... ... : ... .. . ... ...
ROW 24 : G-4 00 5 P80 V01 ... : ... .. . ... ... ... : G-2 00 . ... : ... .. . ... : ... .. . ... ... : ... .. . ... ... : ... .. . ... ... : ... .. . ... ...
ROW 25 : F-4 00 7 ... ... ... : ... .. . ... ... ... : ... .. . ... : ... .. A ... : ... .. . ... ... : ... .. . ... ... : ... .. . ... ... : ... .. . ... ...
ROW 26 : ... .. A ... ... ... : ... .. . ... ... ... : ... .. . ... : ... .. . ... : ... .. . ... ... : ... .. . ... ... : ... .. . ... ... : ... .. . ... ...
ROW 27 : ... .. 7 ... ... ... : ... .. . ... ... ... : ... .. . ... : ... .. . ... : ... .. . ... ... : ... .. . ... ... : ... .. . ... ... : ... .. . ... ...
ROW 28 : ... .. 0 ... V00 ... : ... .. . ... ... ... : ... .. . ... : ... .. 9 ... : ... .. . ... ... : ... .. . ... ... : ... .. . ... ... : ... .. . ... ...
ROW 29 : F-4 00 5 P80 V01 ... : ... .. . ... ... ... : ... .. . ... : ... .. . ... : ... .. . ... ... : ... .. . ... ... : ... .. . ... ... : ... .. . ... ...
ROW 2A : C#4 00 7 ... ... ... : ... .. . ... ... ... : ... .. . ... : ... .. 7 ... : ... .. . ... ... : A#2 01 A P80 ... : F-3 01 A P7F ... : D-4 01 A P81 ...
ROW 2B : ... .. A ... ... ... : ... .. . ... ... ... : ... .. . ... : ... .. . ... : ... .. . ... ... : ... .. 9 ... ... : ... .. 9 ... ... : ... .. 8 ... ...
ROW 2C : ... .. 7 ... ... ... : ... .. . ... ... ... : ... .. . ... : ... .. . ... : ... .. . ... ... : ... .. 8 ... ... : ... .. 8 ... ... : ... .. 5 ... ...
ROW 2D : ... .. 0 ... V00 ... : F#2 00 A P83 ... ... : F#2 00 . P82 : ... .. 6 ... : ... .. . ... ... : ... .. 7 ... ... : ... .. 7 ... ... : ... .. . ... ...
ROW 2E : C#4 00 5 P80 V01 ... : F-2 00 A P87 ... ... : F-2 00 . P86 : ... .. . ... : ... .. . ... ... : ... .. . ... ... : ... .. . ... ... : ... .. . ... ...
ROW 2F : B-3 00 7 ... ... ... : E-2 00 A P8D ... ... : E-2 00 . P8C : ... .. 5 ... : ... .. . ... ... : ... .. 6 ... ... : ... .. 6 ... ... : ... .. . ... ...
ROW 30 : ... .. A ... ... ... : ... .. . P6D ... ... : D#2 00 . P94 : ... .. . ... : ... .. . ... ... : ... .. . ... ... : ... .. . ... ... : ... .. . ... ...
ROW 31 : ... .. 7 ... ... ... : D#2 00 A P75 ... ... : ... .. . P74 : ... .. . ... : ... .. . ... ... : ... .. 5 ... ... : ... .. 5 ... ... : ... .. . ... ...
ROW 32 : ... .. 0 ... V00 ... : D-2 00 A P80 ... ... : D-2 00 . P7F : ... .. 4 ... : ... .. . ... ... : ... .. 1 ... ... : ... .. 1 ... ... : ... .. 1 ... ...
ROW 33 : B-3 00 5 P80 V01 ... : C#2 00 A P8D ... ... : C#2 00 . P8C : ... .. . ... : ... .. . ... ... : ... .. . ... ... : ... .. . ... ... : ... .. . ... ...
ROW 34 : G-4 00 7 ... ... ... : F-2 00 F P81 ... ... : F-2 00 . P80 : 7-# 00 F ... : ... .. . ... ... : ... .. 5 ... ... : ... .. 5 ... ... : ... .. 5 ... ...
ROW 35 : ... .. A ... ... ... : ... .. E ... ... ... : ... .. . ... : ... .. C ... : ... .. . ... ... : ... .. . ... ... : ... .. . ... ... : ... .. . ... ...
ROW 36 : ... .. 7 ... ... ... : ... .. D ... ... ... : ... .. . ... : ... .. A ... : ... .. . ... ... : ... .. . ... ... : ... .. . ... ... : ... .. . ... ...
ROW 37 : ... .. 0 ... V00 ... : ... .. A ... ... ... : ... .. . ... : ... .. 8 ... : ... .. . ... ... : ... .. . ... ... : ... .. . ... ... : ... .. . ... ...
ROW 38 : G-4 00 5 P80 V01 ... : ... .. . ... ... ... : ... .. . ... : ... .. 7 ... : ... .. . ... ... : ... .. . ... ... : ... .. . ... ... : ... .. . ... ...
ROW 39 : F-4 00 7 ... ... ... : ... .. . ... ... ... : ... .. . ... : ... .. 0 ... : ... .. . ... ... : ... .. . ... ... : ... .. . ... ... : ... .. . ... ...
ROW 3A : ... .. A ... ... ... : ... .. . ... ... ... : ... .. . ... : B-# 00 6 ... : ... .. . ... ... : ... .. . ... ... : ... .. . ... ... : ... .. . ... ...
ROW 3B : ... .. 7 ... ... ... : ... .. . ... ... ... : ... .. . ... : ... .. 2 ... : ... .. . ... ... : ... .. . ... ... : ... .. . ... ... : ... .. . ... ...
ROW 3C : ... .. 0 ... V00 ... : ... .. . ... ... ... : ... .. . ... : ... .. . ... : ... .. . ... ... : ... .. 1 ... ... : ... .. 1 ... ... : ... .. 1 ... ...
ROW 3D : F-4 00 5 P80 V01 ... : ... .. . ... ... ... : ... .. . ... : ... .. 0 ... : ... .. . ... ... : ... .. . ... ... : ... .. . ... ... : ... .. . ... ...
ROW 3E : C#4 00 7 ... ... ... : G-2 00 F ... ... ... : G-2 00 . ... : ... .. . ... : ... .. . ... ... : A-2 01 A ... ... : E-3 01 A ... ... : C#4 01 A ... ...
ROW 3F : ... .. A ... ... ... : ... .. E ... ... ... : ... .. . ... : ... .. A ... : ... .. . ... ... : ... .. 9 ... ... : ... .. 9 ... ... : ... .. 8 ... ...
ROW 40 : ... .. 7 ... ... ... : ... .. D ... ... ... : ... .. . ... : ... .. 4 ... : ... .. . ... ... : ... .. 8 ... ... : ... .. 8 ... ... : ... .. 5 ... ...
ROW 41 : ... .. 0 ... V00 ... : ... .. A ... ... ... : ... .. . ... : ... .. . ... : ... .. . ... ... : ... .. 7 ... ... : ... .. 7 ... ... : ... .. . ... ...
ROW 42 : C#4 00 5 P80 V01 ... : ... .. . ... ... ... : ... .. . ... : ... .. 0 ... : ... .. . ... ... : ... .. . ... ... : ... .. . ... ... : ... .. . ... ...
ROW 43 : B-3 00 7 ... ... ... : ... .. . ... ... ... : ... .. . ... : ... .. . ... : ... .. . ... ... : ... .. 6 ... ... : ... .. 6 ... ... : ... .. . ... ...
ROW 44 : ... .. A ... ... ... : ... .. . ... ... ... : ... .. . ... : ... .. 8 ... : ... .. . ... ... : ... .. . ... ... : ... .. . ... ... : ... .. . ... ...
ROW 45 : ... .. 7 ... ... ... : ... .. . ... ... ... : ... .. . ... : ... .. 3 ... : ... .. . ... ... : ... .. 5 ... ... : ... .. 5 ... ... : ... .. . ... ...
ROW 46 : ... .. 0 ... V00 ... : ... .. . ... ... ... : ... .. . ... : ... .. . ... : ... .. . ... ... : ... .. 1 ... ... : ... .. 1 ... ... : ... .. 1 ... ...
ROW 47 : B-3 00 5 P80 V01 ... : ... .. . ... ... ... : ... .. . ... : ... .. 0 ... : ... .. . ... ... : ... .. . ... ... : ... .. . ... ... : ... .. . ... ...
ROW 48 : G-4 00 7 ... ... ... : G-3 00 F ... ... ... : F#5 00 . ... : 2-# 00 F ... : ... .. . ... ... : ... .. 5 ... ... : ... .. 5 ... ... : ... .. 5 ... ...
ROW 49 : ... .. A ... ... ... : ... .. E ... ... ... : G#4 00 . ... : ... .. C ... : ... .. . ... ... : ... .. . ... ... : ... .. . ... ... : ... .. . ... ...
ROW 4A : ... .. 7 ... ... ... : ... .. D ... ... ... : C#4 00 . ... : ... .. 6 ... : ... .. . ... ... : ... .. . ... ... : ... .. . ... ... : ... .. . ... ...
ROW 4B : ... .. 0 ... V00 ... : ... .. A ... ... ... : C-4 00 . ... : ... .. 3 ... : ... .. . ... ... : ... .. . ... ... : ... .. . ... ... : ... .. . ... ...
ROW 4C : G-4 00 5 P80 V01 ... : ... .. . ... ... ... : G-3 00 . ... : ... .. 2 ... : ... .. . ... ... : ... .. . ... ... : ... .. . ... ... : ... .. . ... ...
ROW 4D : F-4 00 7 ... ... ... : ... .. . ... ... ... : ... .. . ... : ... .. 0 ... : ... .. . ... ... : ... .. 2 ... ... : ... .. 2 ... ... : ... .. 1 ... ...
ROW 4E : ... .. A ... ... ... : ... .. . ... ... ... : ... .. . ... : B-# 00 8 ... : ... .. . ... ... : ... .. . ... ... : ... .. . ... ... : ... .. . ... ...
ROW 4F : ... .. 7 ... ... ... : ... .. . ... ... ... : ... .. . ... : ... .. 3 ... : ... .. . ... ... : ... .. . ... ... : ... .. . ... ... : ... .. . ... ...
ROW 50 : ... .. 0 ... V00 ... : ... .. . ... ... ... : ... .. . ... : ... .. . ... : ... .. . ... ... : ... .. 1 ... ... : ... .. 1 ... ... : ... .. . ... ...
ROW 51 : F-4 00 5 P80 V01 ... : ... .. . ... ... ... : ... .. . ... : ... .. 0 ... : ... .. . ... ... : ... .. . ... ... : ... .. . ... ... : ... .. . ... ...
ROW 52 : C#4 00 7 ... ... ... : E-3 00 A P87 ... ... : E-3 00 . P86 : 2-# 00 F ... : ... .. . ... ... : G#2 01 A ... ... : D#3 01 A ... ... : C-4 01 A ... ...
ROW 53 : ... .. A ... ... ... : D-3 00 A P81 ... ... : D-3 00 . P80 : ... .. C ... : ... .. . ... ... : ... .. 9 ... ... : ... .. 9 ... ... : ... .. 8 ... ...
ROW 54 : ... .. 7 ... ... ... : C-3 00 A P80 ... ... : C-3 00 . P7F : ... .. 6 ... : ... .. . ... ... : ... .. 8 ... ... : ... .. 8 ... ... : ... .. 5 ... ...
ROW 55 : ... .. 0 ... V00 ... : A#2 00 A P84 ... ... : A#2 00 . P83 : ... .. 3 ... : ... .. . ... ... : ... .. 7 ... ... : ... .. 7 ... ... : ... .. . ... ...
ROW 56 : C#4 00 5 P80 V01 ... : G#2 00 A P8F ... ... : G#2 00 . P8E : ... .. 2 ... : ... .. . ... ... : ... .. . ... ... : ... .. . ... ... : ... .. . ... ...
ROW 57 : B-3 00 7 ... ... ... : G-2 00 A P7F ... ... : G-2 00 . P7E : ... .. 0 ... : ... .. . ... ... : ... .. 6 ... ... : ... .. 6 ... ... : ... .. . ... ...
ROW 58 : ... .. A ... ... ... : F#2 00 A P71 ... ... : F#2 00 . P70 : B-# 00 8 ... : ... .. . ... ... : ... .. . ... ... : ... .. . ... ... : ... .. . ... ...
ROW 59 : ... .. 7 ... ... ... : E-2 00 A P8B ... ... : E-2 00 . P8A : ... .. 3 ... : ... .. . ... ... : ... .. 5 ... ... : ... .. 5 ... ... : ... .. . ... ...
ROW 5A : ... .. 0 ... V00 ... : D#2 00 A P83 ... ... : D#2 00 . P82 : ... .. . ... : ... .. . ... ... : ... .. 1 ... ... : ... .. 1 ... ... : ... .. 1 ... ...
ROW 5B : B-3 00 5 P80 V01 ... : D-2 00 A P7E ... ... : D-2 00 . P7D : ... .. 0 ... : ... .. . ... ... : ... .. . ... ... : ... .. . ... ... : ... .. . ... ...
ROW 5C : G-4 00 7 ... ... ... : F-2 00 F P81 ... ... : F-2 00 . P80 : 7-# 00 F ... : ... .. . ... ... : ... .. 5 ... ... : ... .. 5 ... ... : ... .. 5 ... ...
ROW 5D : ... .. A ... ... ... : ... .. E ... ... ... : ... .. . ... : ... .. C ... : ... .. . ... ... : ... .. . ... ... : ... .. . ... ... : ... .. . ... ...
ROW 5E : ... .. 7 ... ... ... : ... .. D ... ... ... : ... .. . ... : ... .. A ... : ... .. . ... ... : ... .. . ... ... : ... .. . ... ... : ... .. . ... ...
ROW 5F : ... .. 0 ... V00 ... : ... .. A ... ... ... : ... .. . ... : ... .. 8 ... : ... .. . ... ... : ... .. . ... ... : ... .. . ... ... : ... .. . ... ...
ROW 60 : G-4 00 5 P80 V01 ... : ... .. . ... ... ... : ... .. . ... : ... .. 7 ... : ... .. . ... ... : ... .. . ... ... : ... .. . ... ... : ... .. . ... ...
ROW 61 : F-4 00 7 ... ... ... : ... .. . ... ... ... : ... .. . ... : ... .. 0 ... : ... .. . ... ... : ... .. . ... ... : ... .. . ... ... : ... .. . ... ...
ROW 62 : ... .. A ... ... ... : ... .. . ... ... ... : ... .. . ... : B-# 00 6 ... : ... .. . ... ... : ... .. . ... ... : ... .. . ... ... : ... .. . ... ...
ROW 63 : ... .. 7 ... ... ... : ... .. . ... ... ... : ... .. . ... : ... .. 2 ... : ... .. . ... ... : ... .. . ... ... : ... .. . ... ... : ... .. . ... ...
ROW 64 : ... .. 0 ... V00 ... : ... .. . ... ... ... : ... .. . ... : ... .. . ... : ... .. . ... ... : ... .. 1 ... ... : ... .. 1 ... ... : ... .. 1 ... ...
ROW 65 : F-4 00 5 P80 V01 ... : ... .. . ... ... ... : ... .. . ... : ... .. 0 ... : ... .. . ... ... : ... .. . ... ... : ... .. . ... ... : ... .. . ... ...
ROW 66 : C#4 00 7 ... ... ... : G-2 00 F ... ... ... : G-2 00 . ... : ... .. . ... : ... .. . ... ... : G-2 01 A ... ... : D-3 01 A ... ... : B-3 01 A ... ...
ROW 67 : ... .. A ... ... ... : ... .. E ... ... ... : ... .. . ... : ... .. A ... : ... .. . ... ... : ... .. 9 ... ... : ... .. 9 ... ... : ... .. 8 ... ...
ROW 68 : ... .. 7 ... ... ... : ... .. D ... ... ... : ... .. . ... : ... .. 4 ... : ... .. . ... ... : ... .. 8 ... ... : ... .. 8 ... ... : ... .. 5 ... ...
ROW 69 : ... .. 0 ... V00 ... : ... .. A ... ... ... : ... .. . ... : ... .. . ... : ... .. . ... ... : ... .. 7 ... ... : ... .. 7 ... ... : ... .. . ... ...
ROW 6A : C#4 00 5 P80 V01 ... : ... .. . ... ... ... : ... .. . ... : ... .. 0 ... : ... .. . ... ... : ... .. . ... ... : ... .. . ... ... : ... .. . ... ...
ROW 6B : B-3 00 7 ... ... ... : ... .. . ... ... ... : ... .. . ... : ... .. . ... : ... .. . ... ... : ... .. 6 ... ... : ... .. 6 ... ... : ... .. . ... ...
ROW 6C : ... .. A ... ... ... : ... .. . ... ... ... : ... .. . ... : ... .. 8 ... : ... .. . ... ... : ... .. . ... ... : ... .. . ... ... : ... .. . ... ...
ROW 6D : ... .. 7 ... ... ... : ... .. . ... ... ... : ... .. . ... : ... .. 3 ... : ... .. . ... ... : ... .. 5 ... ... : ... .. 5 ... ... : ... .. . ... ...
ROW 6E : ... .. 0 ... V00 ... : ... .. 0 ... V00 ... : --- .. . ... : ... .. . ... : ... .. . ... ... : ... .. 1 ... ... : ... .. 1 ... ... : ... .. 1 ... ...
ROW 6F : B-3 00 5 P80 V01 ... : ... .. . ... ... ... : ... .. . ... : ... .. 0 ... : ... .. . ... ... : ... .. . ... ... : ... .. . ... ... : ... .. . ... ...
ROW 70 : G-4 00 7 ... ... ... : F-1 00 F P81 V01 ... : E-3 00 . ... : 2-# 00 F ... : ... .. . ... ... : ... .. 5 ... ... : ... .. 5 ... ... : ... .. 5 ... ...
ROW 71 : ... .. A ... ... ... : ... .. E ... ... ... : F#2 00 . ... : ... .. C ... : ... .. . ... ... : ... .. . ... ... : ... .. . ... ... : ... .. . ... ...
ROW 72 : ... .. 7 ... ... ... : ... .. D ... ... ... : B-1 00 . ... : ... .. 6 ... : ... .. . ... ... : ... .. . ... ... : ... .. . ... ... : ... .. . ... ...
ROW 73 : ... .. 0 ... V00 ... : ... .. A ... ... ... : A#1 00 . ... : ... .. 3 ... : ... .. . ... ... : ... .. . ... ... : ... .. . ... ... : ... .. . ... ...
ROW 74 : G-4 00 5 P80 V01 ... : ... .. . ... ... ... : F-1 00 . ... : ... .. 2 ... : ... .. . ... ... : ... .. . ... ... : ... .. . ... ... : ... .. . ... ...
ROW 75 : F-4 00 7 ... ... ... : ... .. . ... ... ... : ... .. . ... : ... .. 0 ... : ... .. . ... ... : ... .. 2 ... ... : ... .. 2 ... ... : ... .. 1 ... ...
ROW 76 : ... .. A ... ... ... : ... .. . ... ... ... : ... .. . ... : B-# 00 8 ... : ... .. . ... ... : ... .. . ... ... : ... .. . ... ... : ... .. . ... ...
ROW 77 : ... .. 7 ... ... ... : ... .. . ... ... ... : ... .. . ... : ... .. 3 ... : ... .. . ... ... : ... .. . ... ... : ... .. . ... ... : ... .. . ... ...
ROW 78 : ... .. 0 ... V00 ... : ... .. . ... ... ... : ... .. . ... : ... .. . ... : ... .. . ... ... : ... .. 1 ... ... : ... .. 1 ... ... : ... .. . ... ...
ROW 79 : F-4 00 5 P80 V01 ... : ... .. . ... ... ... : ... .. . ... : ... .. 0 ... : ... .. . ... ... : ... .. . ... ... : ... .. . ... ... : ... .. . ... ...
ROW 7A : C#4 00 7 ... ... ... : D-2 00 F ... ... ... : C#4 00 . ... : 2-# 00 F ... : ... .. . ... ... : F#2 01 A ... ... : C#3 01 A ... ... : A#3 01 A ... ...
ROW 7B : ... .. A ... ... ... : ... .. E ... ... ... : D#3 00 . ... : ... .. C ... : ... .. . ... ... : ... .. 9 ... ... : ... .. 9 ... ... : ... .. 8 ... ...
ROW 7C : ... .. 7 ... ... ... : ... .. D ... ... ... : G#2 00 . ... : ... .. 6 ... : ... .. . ... ... : ... .. 8 ... ... : ... .. 8 ... ... : ... .. 5 ... ...
ROW 7D : ... .. 0 ... V00 ... : ... .. A ... ... ... : G-2 00 . ... : ... .. 3 ... : ... .. . ... ... : ... .. 7 ... ... : ... .. 7 ... ... : ... .. . ... ...
ROW 7E : C#4 00 5 P80 V01 ... : ... .. . ... ... ... : D-2 00 . ... : ... .. 2 ... : ... .. . ... ... : ... .. . ... ... : ... .. . ... ... : ... .. . ... ...
ROW 7F : B-3 00 7 ... ... ... : ... .. . ... ... ... : ... .. . ... : ... .. 0 ... : ... .. . ... ... : ... .. 6 ... ... : ... .. 6 ... ... : ... .. . ... ...
ROW 80 : ... .. A ... ... ... : ... .. . ... ... ... : ... .. . ... : B-# 00 8 ... : ... .. . ... ... : ... .. . ... ... : ... .. . ... ... : ... .. . ... ...
ROW 81 : ... .. 7 ... ... ... : ... .. . ... ... ... : ... .. . ... : ... .. 3 ... : ... .. . ... ... : ... .. 5 ... ... : ... .. 5 ... ... : ... .. . ... ...
ROW 82 : ... .. 0 ... V00 ... : ... .. . ... ... ... : ... .. . ... : ... .. . ... : ... .. . ... ... : ... .. 1 ... ... : ... .. 1 ... ... : ... .. 1 ... ...
ROW 83 : B-3 00 5 P80 V01 ... : ... .. . ... ... ... : ... .. . ... : ... .. 0 ... : ... .. . ... ... : ... .. . ... ... : ... .. . ... ... : ... .. . ... ...
ROW 84 : G-4 00 7 ... ... ... : C#2 00 F ... ... ... : C#2 00 . ... : 7-# 00 F ... : ... .. . ... ... : ... .. 5 ... ... : ... .. 5 ... ... : ... .. 5 ... ...
ROW 85 : ... .. A ... ... ... : ... .. E ... ... ... : ... .. . ... : ... .. C ... : ... .. . ... ... : ... .. . ... ... : ... .. . ... ... : ... .. . ... ...
ROW 86 : ... .. 7 ... ... ... : ... .. D ... ... ... : ... .. . ... : ... .. A ... : ... .. . ... ... : ... .. . ... ... : ... .. . ... ... : ... .. . ... ...
ROW 87 : ... .. 0 ... V00 ... : ... .. A ... ... ... : ... .. . ... : ... .. 8 ... : ... .. . ... ... : ... .. . ... ... : ... .. . ... ... : ... .. . ... ...
ROW 88 : G-4 00 5 P80 V01 ... : ... .. . ... ... ... : ... .. . ... : ... .. 7 ... : ... .. . ... ... : ... .. . ... ... : ... .. . ... ... : ... .. . ... ...
ROW 89 : F-4 00 7 ... ... ... : ... .. . ... ... ... : ... .. . ... : ... .. 0 ... : ... .. . ... ... : ... .. . ... ... : ... .. . ... ... : ... .. . ... ...
ROW 8A : ... .. A ... ... ... : ... .. . ... ... ... : ... .. . ... : B-# 00 6 ... : ... .. . ... ... : ... .. . ... ... : ... .. . ... ... : ... .. . ... ...
ROW 8B : ... .. 7 ... ... ... : ... .. . ... ... ... : ... .. . ... : ... .. 2 ... : ... .. . ... ... : ... .. . ... ... : ... .. . ... ... : ... .. . ... ...
ROW 8C : ... .. 0 ... V00 ... : ... .. . ... ... ... : ... .. . ... : ... .. . ... : ... .. . ... ... : ... .. 1 ... ... : ... .. 1 ... ... : ... .. 1 ... ...
ROW 8D : F-4 00 5 P80 V01 ... : ... .. . ... ... ... : ... .. . ... : ... .. 0 ... : ... .. . ... ... : ... .. . ... ... : ... .. . ... ... : ... .. . ... ...
ROW 8E : C#4 00 7 ... ... ... : G-1 00 F ... ... ... : G-1 00 . ... : ... .. . ... : ... .. . ... ... : F-2 01 A ... ... : C-3 01 A ... ... : A-3 01 A ... ...
ROW 8F : ... .. A ... ... ... : ... .. E ... ... ... : ... .. . ... : ... .. A ... : ... .. . ... ... : ... .. 9 ... ... : ... .. 9 ... ... : ... .. 8 ... ...
ROW 90 : ... .. 7 ... ... ... : ... .. D ... ... ... : ... .. . ... : ... .. 4 ... : ... .. . ... ... : ... .. 8 ... ... : ... .. 8 ... ... : ... .. 5 ... ...
ROW 91 : ... .. 0 ... V00 ... : ... .. 0 ... V00 ... : --- .. . ... : ... .. . ... : ... .. . ... ... : ... .. 7 ... ... : ... .. 7 ... ... : ... .. . ... ...
ROW 92 : C#4 00 5 P80 V01 ... : ... .. . ... ... ... : ... .. . ... : ... .. 0 ... : ... .. . ... ... : ... .. . ... ... : ... .. . ... ... : ... .. . ... ...
ROW 93 : B-3 00 7 ... ... ... : G-1 00 F P81 V01 ... : G-1 00 . ... : ... .. . ... : ... .. . ... ... : ... .. 6 ... ... : ... .. 6 ... ... : ... .. . ... ...
ROW 94 : ... .. A ... ... ... : ... .. E ... ... ... : ... .. . ... : ... .. 8 ... : ... .. . ... ... : ... .. . ... ... : ... .. . ... ... : ... .. . ... ...
ROW 95 : ... .. 7 ... ... ... : ... .. D ... ... ... : ... .. . ... : ... .. 3 ... : ... .. . ... ... : ... .. 5 ... ... : ... .. 5 ... ... : ... .. . ... ...
ROW 96 : ... .. 0 ... V00 ... : ... .. 0 ... V00 ... : --- .. . ... : ... .. . ... : ... .. . ... ... : ... .. 1 ... ... : ... .. 1 ... ... : ... .. 1 ... ...
ROW 97 : B-3 00 5 P80 V01 ... : ... .. . ... ... ... : ... .. . ... : ... .. 0 ... : ... .. . ... ... : ... .. . ... ... : ... .. . ... ... : ... .. . ... ...
ROW 98 : G-4 00 7 ... ... ... : F-2 00 F P81 V01 ... : E-4 00 . ... : 2-# 00 F ... : ... .. . ... ... : ... .. 5 ... ... : ... .. 5 ... ... : ... .. 5 ... ...
ROW 99 : ... .. A ... ... ... : ... .. E ... ... ... : F#3 00 . ... : ... .. C ... : ... .. . ... ... : ... .. . ... ... : ... .. . ... ... : ... .. . ... ...
ROW 9A : ... .. 7 ... ... ... : ... .. D ... ... ... : B-2 00 . ... : ... .. 6 ... : ... .. . ... ... : ... .. . ... ... : ... .. . ... ... : ... .. . ... ...
ROW 9B : ... .. 0 ... V00 ... : ... .. 0 ... V00 ... : --- .. . ... : ... .. 3 ... : ... .. . ... ... : ... .. . ... ... : ... .. . ... ... : ... .. . ... ...
ROW 9C : G-4 00 5 P80 V01 ... : ... .. . ... ... ... : ... .. . ... : ... .. 2 ... : ... .. . ... ... : ... .. . ... ... : ... .. . ... ... : ... .. . ... ...
ROW 9D : F-4 00 7 ... ... ... : F-2 00 F P81 V01 ... : F-2 00 . ... : ... .. 0 ... : ... .. . ... ... : ... .. 2 ... ... : ... .. 2 ... ... : ... .. 1 ... ...
ROW 9E : ... .. A ... ... ... : ... .. E ... ... ... : ... .. . ... : B-# 00 8 ... : ... .. . ... ... : ... .. . ... ... : ... .. . ... ... : ... .. . ... ...
ROW 9F : ... .. 7 ... ... ... : ... .. D ... ... ... : ... .. . ... : ... .. 3 ... : ... .. . ... ... : ... .. . ... ... : ... .. . ... ... : ... .. . ... ...
ROW A0 : ... .. 0 ... V00 ... : ... .. 0 ... V00 ... : --- .. . ... : ... .. . ... : ... .. . ... ... : ... .. 1 ... ... : ... .. 1 ... ... : ... .. . ... ...
ROW A1 : F-4 00 5 P80 V01 ... : ... .. . ... ... ... : ... .. . ... : ... .. 0 ... : ... .. . ... ... : ... .. . ... ... : ... .. . ... ... : ... .. . ... ...
ROW A2 : C#4 00 7 ... ... ... : E-2 00 F P81 V01 ... : E-2 00 . ... : C-# 00 8 ... : ... .. . ... ... : F#2 01 A ... ... : C#3 01 A ... ... : A#3 01 A ... ...
ROW A3 : ... .. A ... ... ... : ... .. E ... ... ... : ... .. . ... : ... .. 7 ... : ... .. . ... ... : ... .. 9 ... ... : ... .. 9 ... ... : ... .. 8 ... ...
ROW A4 : ... .. 7 ... ... ... : ... .. D ... ... ... : ... .. . ... : ... .. . ... : ... .. . ... ... : ... .. 8 ... ... : ... .. 8 ... ... : ... .. 5 ... ...
ROW A5 : ... .. 0 ... V00 ... : ... .. A ... ... ... : ... .. . ... : ... .. 6 ... : ... .. . ... ... : ... .. 7 ... ... : ... .. 7 ... ... : ... .. . ... ...
ROW A6 : C#4 00 5 P80 V01 ... : ... .. . ... ... ... : ... .. . ... : ... .. 5 ... : ... .. . ... ... : ... .. . ... ... : ... .. . ... ... : ... .. . ... ...
ROW A7 : B-3 00 7 ... ... ... : ... .. . ... ... ... : ... .. . ... : ... .. 4 ... : ... .. . ... ... : ... .. 6 ... ... : ... .. 6 ... ... : ... .. . ... ...
ROW A8 : ... .. A ... ... ... : ... .. . ... ... ... : ... .. . ... : ... .. . ... : ... .. . ... ... : ... .. . ... ... : ... .. . ... ... : ... .. . ... ...
ROW A9 : ... .. 7 ... ... ... : ... .. . ... ... ... : ... .. . ... : ... .. . ... : ... .. . ... ... : ... .. 5 ... ... : ... .. 5 ... ... : ... .. . ... ...
ROW AA : ... .. 0 ... V00 ... : ... .. . ... ... ... : ... .. . ... : ... .. 3 ... : ... .. . ... ... : ... .. . ... ... : ... .. . ... ... : ... .. . ... ...
ROW AB : B-3 00 5 P80 V01 ... : ... .. . ... ... ... : ... .. . ... : ... .. . ... : ... .. . ... ... : ... .. . ... ... : ... .. . ... ... : ... .. . ... ...
ROW AC : G-4 00 7 ... ... ... : F-2 00 F ... ... ... : F-2 00 . ... : 7-# 00 F ... : ... .. . ... ... : G-2 01 A ... ... : D-3 01 A ... ... : B-3 01 A ... ...
ROW AD : ... .. A ... ... ... : ... .. E ... ... ... : ... .. . ... : ... .. C ... : ... .. . ... ... : ... .. 9 ... ... : ... .. 9 ... ... : ... .. 8 ... ...
ROW AE : ... .. 7 ... ... ... : ... .. D ... ... ... : ... .. . ... : ... .. A ... : ... .. . ... ... : ... .. 8 ... ... : ... .. 8 ... ... : ... .. 5 ... ...
ROW AF : ... .. 0 ... V00 ... : ... .. A ... ... ... : ... .. . ... : ... .. 8 ... : ... .. . ... ... : ... .. 7 ... ... : ... .. 7 ... ... : ... .. . ... ...
ROW B0 : G-4 00 5 P80 V01 ... : ... .. . ... ... ... : ... .. . ... : ... .. 7 ... : ... .. . ... ... : ... .. . ... ... : ... .. . ... ... : ... .. . ... ...
ROW B1 : F-4 00 7 ... ... ... : ... .. . ... ... ... : ... .. . ... : ... .. 0 ... : ... .. . ... ... : ... .. 6 ... ... : ... .. 6 ... ... : ... .. . ... ...
ROW B2 : ... .. A ... ... ... : ... .. . ... ... ... : ... .. . ... : B-# 00 6 ... : ... .. . ... ... : ... .. . ... ... : ... .. . ... ... : ... .. . ... ...
ROW B3 : ... .. 7 ... ... ... : ... .. . ... ... ... : ... .. . ... : ... .. 2 ... : ... .. . ... ... : ... .. 5 ... ... : ... .. 5 ... ... : ... .. . ... ...
ROW B4 : ... .. 0 ... V00 ... : ... .. . ... ... ... : ... .. . ... : ... .. . ... : ... .. . ... ... : ... .. . ... ... : ... .. . ... ... : ... .. . ... ...
ROW B5 : F-4 00 5 P80 V01 ... : ... .. . ... ... ... : ... .. . ... : ... .. 0 ... : ... .. . ... ... : ... .. . ... ... : ... .. . ... ... : ... .. . ... ...
ROW B6 : C#4 00 7 ... ... ... : G-2 00 F ... ... ... : G-2 00 . ... : ... .. . ... : ... .. . ... ... : G#2 01 A ... ... : D#3 01 A ... ... : C-4 01 A ... ...
ROW B7 : ... .. A ... ... ... : ... .. E ... ... ... : ... .. . ... : ... .. A ... : ... .. . ... ... : ... .. 9 ... ... : ... .. 9 ... ... : ... .. 8 ... ...
ROW B8 : ... .. 7 ... ... ... : ... .. D ... ... ... : ... .. . ... : ... .. 4 ... : ... .. . ... ... : ... .. 8 ... ... : ... .. 8 ... ... : ... .. 5 ... ...
ROW B9 : ... .. 0 ... V00 ... : ... .. A ... ... ... : ... .. . ... : ... .. . ... : ... .. . ... ... : ... .. 7 ... ... : ... .. 7 ... ... : ... .. . ... ...
ROW BA : C#4 00 5 P80 V01 ... : ... .. . ... ... ... : ... .. . ... : ... .. 0 ... : ... .. . ... ... : ... .. . ... ... : ... .. . ... ... : ... .. . ... ...
ROW BB : B-3 00 7 ... ... ... : ... .. 0 ... V00 ... : --- .. . ... : ... .. . ... : ... .. . ... ... : ... .. 6 ... ... : ... .. 6 ... ... : ... .. . ... ...
ROW BC : ... .. A ... ... ... : ... .. . ... ... ... : ... .. . ... : ... .. 8 ... : ... .. . ... ... : ... .. . ... ... : ... .. . ... ... : ... .. . ... ...
ROW BD : ... .. 7 ... ... ... : ... .. . ... ... ... : ... .. . ... : ... .. 3 ... : ... .. . ... ... : ... .. 5 ... ... : ... .. 5 ... ... : ... .. . ... ...
ROW BE : ... .. 0 ... V00 ... : ... .. . ... ... ... : ... .. . ... : ... .. . ... : ... .. . ... ... : ... .. 1 ... ... : ... .. 1 ... ... : ... .. 1 ... ...
ROW BF : B-3 00 5 P80 V01 ... : ... .. . ... ... ... : ... .. . ... : ... .. 0 ... : ... .. . ... ... : ... .. . ... ... : ... .. . ... ... : ... .. . ... ...
ROW C0 : G-4 00 7 ... ... ... : G-1 00 F P81 V01 ... : G-1 00 . ... : ... .. . ... : ... .. . ... ... : ... .. 5 ... ... : ... .. 5 ... ... : ... .. 5 ... ...
ROW C1 : ... .. A ... ... ... : ... .. E ... ... ... : ... .. . ... : 2-# 00 F ... : ... .. . ... ... : ... .. . ... ... : ... .. . ... ... : ... .. . ... ...
ROW C2 : ... .. 7 ... ... ... : ... .. D ... ... ... : ... .. . ... : ... .. 6 ... : ... .. . ... ... : ... .. . ... ... : ... .. . ... ... : ... .. . ... ...
ROW C3 : ... .. 0 ... V00 ... : ... .. A ... ... ... : ... .. . ... : ... .. . ... : ... .. . ... ... : ... .. . ... ... : ... .. . ... ... : ... .. . ... ...
ROW C4 : G-4 00 5 P80 V01 ... : ... .. . ... ... ... : ... .. . ... : ... .. 0 ... : ... .. . ... ... : ... .. . ... ... : ... .. . ... ... : ... .. . ... ...
ROW C5 : F-4 00 7 ... ... ... : ... .. . ... ... ... : ... .. . ... : ... .. . ... : ... .. . ... ... : ... .. 2 ... ... : ... .. 2 ... ... : ... .. 1 ... ...
ROW C6 : ... .. A ... ... ... : ... .. . ... ... ... : ... .. . ... : B-# 00 6 ... : ... .. . ... ... : ... .. . ... ... : ... .. . ... ... : ... .. . ... ...
ROW C7 : ... .. 7 ... ... ... : ... .. . ... ... ... : ... .. . ... : ... .. 2 ... : ... .. . ... ... : ... .. . ... ... : ... .. . ... ... : ... .. . ... ...
ROW C8 : ... .. 0 ... V00 ... : ... .. . ... ... ... : ... .. . ... : ... .. . ... : ... .. . ... ... : ... .. 1 ... ... : ... .. 1 ... ... : ... .. . ... ...
ROW C9 : F-4 00 5 P80 V01 ... : ... .. . ... ... ... : ... .. . ... : ... .. 0 ... : ... .. . ... ... : ... .. . ... ... : ... .. . ... ... : ... .. . ... ...
ROW CA : C#4 00 7 ... ... ... : ... .. . P71 ... ... : ... .. . P70 : ... .. . ... : ... .. . ... ... : A#2 01 A ... ... : F-3 01 A ... ... : D-4 01 A ... ...
ROW CB : ... .. A ... ... ... : ... .. . P61 ... ... : ... .. . P60 : ... .. A ... : ... .. . ... ... : ... .. 9 ... ... : ... .. 9 ... ... : ... .. 8 ... ...
ROW CC : ... .. 7 ... ... ... : F#1 00 A P95 ... ... : F#1 00 . P94 : ... .. 4 ... : ... .. . ... ... : ... .. 8 ... ... : ... .. 8 ... ... : ... .. 5 ... ...
ROW CD : ... .. 0 ... V00 ... : ... .. . P85 ... ... : ... .. . P84 : ... .. . ... : ... .. . ... ... : ... .. 7 ... ... : ... .. 7 ... ... : ... .. . ... ...
ROW CE : C#4 00 5 P80 V01 ... : ... .. . P75 ... ... : ... .. . P74 : ... .. 0 ... : ... .. . ... ... : ... .. . ... ... : ... .. . ... ... : ... .. . ... ...
ROW CF : B-3 00 7 ... ... ... : ... .. . P65 ... ... : ... .. . P64 : ... .. . ... : ... .. . ... ... : ... .. 6 ... ... : ... .. 6 ... ... : ... .. . ... ...
ROW D0 : ... .. A ... ... ... : F-1 00 A P9D ... ... : F-1 00 . P9C : ... .. 8 ... : ... .. . ... ... : ... .. . ... ... : ... .. . ... ... : ... .. . ... ...
ROW D1 : ... .. 7 ... ... ... : ... .. . P8D ... ... : ... .. . P8C : ... .. 3 ... : ... .. . ... ... : ... .. 5 ... ... : ... .. 5 ... ... : ... .. . ... ...
ROW D2 : ... .. 0 ... V00 ... : ... .. . P7D ... ... : ... .. . P7C : ... .. . ... : ... .. . ... ... : ... .. 1 ... ... : ... .. 1 ... ... : ... .. 1 ... ...
ROW D3 : B-3 00 5 P80 V01 ... : ... .. . P6D ... ... : ... .. . P6C : ... .. 0 ... : ... .. . ... ... : ... .. . ... ... : ... .. . ... ... : ... .. . ... ...
ROW D4 : G-4 00 7 ... ... ... : G-2 00 F P81 ... ... : G-2 00 . P80 : 7-# 00 F ... : ... .. . ... ... : ... .. 5 ... ... : ... .. 5 ... ... : ... .. 5 ... ...
ROW D5 : ... .. A ... ... ... : ... .. E ... ... ... : ... .. . ... : ... .. C ... : ... .. . ... ... : ... .. . ... ... : ... .. . ... ... : ... .. . ... ...
ROW D6 : ... .. 7 ... ... ... : ... .. D ... ... ... : ... .. . ... : ... .. A ... : ... .. . ... ... : ... .. . ... ... : ... .. . ... ... : ... .. . ... ...
ROW D7 : ... .. 0 ... V00 ... : ... .. A ... ... ... : ... .. . ... : ... .. 8 ... : ... .. . ... ... : ... .. . ... ... : ... .. . ... ... : ... .. . ... ...
ROW D8 : G-4 00 5 P80 V01 ... : ... .. . ... ... ... : ... .. . ... : ... .. 7 ... : ... .. . ... ... : ... .. . ... ... : ... .. . ... ... : ... .. . ... ...
ROW D9 : F-4 00 7 ... ... ... : ... .. . ... ... ... : ... .. . ... : ... .. 0 ... : ... .. . ... ... : ... .. . ... ... : ... .. . ... ... : ... .. . ... ...
ROW DA : ... .. A ... ... ... : ... .. . P84 ... ... : ... .. . P83 : B-# 00 6 ... : ... .. . ... ... : ... .. . ... ... : ... .. . ... ... : ... .. . ... ...
ROW DB : ... .. 7 ... ... ... : ... .. . P87 ... ... : ... .. . P86 : ... .. 2 ... : ... .. . ... ... : ... .. . ... ... : ... .. . ... ... : ... .. . ... ...
ROW DC : ... .. 0 ... V00 ... : ... .. 0 ... V00 ... : --- .. . ... : ... .. . ... : ... .. . ... ... : ... .. 1 ... ... : ... .. 1 ... ... : ... .. 1 ... ...
ROW DD : F-4 00 5 P80 V01 ... : ... .. . ... ... ... : ... .. . ... : ... .. 0 ... : ... .. . ... ... : ... .. . ... ... : ... .. . ... ... : ... .. . ... ...
ROW DE : C#4 00 7 ... ... ... : G-2 00 F P81 V01 ... : G-2 00 . P80 : ... .. . ... : ... .. . ... ... : B-2 01 A ... ... : F#3 01 A ... ... : D#4 01 A ... ...
ROW DF : ... .. A ... ... ... : ... .. E ... ... ... : ... .. . ... : ... .. A ... : ... .. . ... ... : ... .. 9 ... ... : ... .. 9 ... ... : ... .. 8 ... ...
ROW E0 : ... .. 7 ... ... ... : ... .. D ... ... ... : ... .. . ... : ... .. 4 ... : ... .. . ... ... : ... .. 8 ... ... : ... .. 8 ... ... : ... .. 5 ... ...
ROW E1 : ... .. 0 ... V00 ... : ... .. A ... ... ... : ... .. . ... : ... .. . ... : ... .. . ... ... : ... .. 7 ... ... : ... .. 7 ... ... : ... .. . ... ...
ROW E2 : C#4 00 5 P80 V01 ... : ... .. . ... ... ... : ... .. . ... : ... .. 0 ... : ... .. . ... ... : ... .. . ... ... : ... .. . ... ... : ... .. . ... ...
ROW E3 : B-3 00 7 ... ... ... : ... .. . ... ... ... : ... .. . ... : ... .. . ... : ... .. . ... ... : ... .. 6 ... ... : ... .. 6 ... ... : ... .. . ... ...
ROW E4 : ... .. A ... ... ... : ... .. . P88 ... ... : ... .. . P87 : ... .. 8 ... : ... .. . ... ... : ... .. . ... ... : ... .. . ... ... : ... .. . ... ...
ROW E5 : ... .. 7 ... ... ... : ... .. . P8F ... ... : ... .. . P8E : ... .. 3 ... : ... .. . ... ... : ... .. 5 ... ... : ... .. 5 ... ... : ... .. . ... ...
ROW E6 : ... .. 0 ... V00 ... : ... .. 0 ... V00 ... : --- .. . ... : ... .. . ... : ... .. . ... ... : ... .. 1 ... ... : ... .. 1 ... ... : ... .. 1 ... ...
ROW E7 : B-3 00 5 P80 V01 ... : ... .. . ... ... ... : ... .. . ... : ... .. 0 ... : ... .. . ... ... : ... .. . ... ... : ... .. . ... ... : ... .. . ... ...
ROW E8 : G-4 00 7 ... ... ... : G#2 00 F P81 V01 ... : G#2 00 . P80 : 2-# 00 F ... : ... .. . ... ... : ... .. 5 ... ... : ... .. 5 ... ... : ... .. 5 ... ...
ROW E9 : ... .. A ... ... ... : ... .. E ... ... ... : ... .. . ... : ... .. C ... : ... .. . ... ... : ... .. . ... ... : ... .. . ... ... : ... .. . ... ...
ROW EA : ... .. 7 ... ... ... : ... .. D ... ... ... : ... .. . ... : ... .. 6 ... : ... .. . ... ... : ... .. . ... ... : ... .. . ... ... : ... .. . ... ...
ROW EB : ... .. 0 ... V00 ... : ... .. 0 ... V00 ... : --- .. . ... : ... .. 3 ... : ... .. . ... ... : ... .. . ... ... : ... .. . ... ... : ... .. . ... ...
ROW EC : G-4 00 5 P80 V01 ... : ... .. . ... ... ... : ... .. . ... : ... .. 2 ... : ... .. . ... ... : ... .. . ... ... : ... .. . ... ... : ... .. . ... ...
ROW ED : F-4 00 7 ... ... ... : G-2 00 F P81 V01 ... : G-2 00 . ... : ... .. 0 ... : ... .. . ... ... : ... .. 2 ... ... : ... .. 2 ... ... : ... .. 1 ... ...
ROW EE : ... .. A ... ... ... : ... .. E ... ... ... : ... .. . ... : B-# 00 8 ... : ... .. . ... ... : ... .. . ... ... : ... .. . ... ... : ... .. . ... ...
ROW EF : ... .. 7 ... ... ... : ... .. D ... ... ... : ... .. . ... : ... .. 3 ... : ... .. . ... ... : ... .. . ... ... : ... .. . ... ... : ... .. . ... ...
ROW F0 : ... .. 0 ... V00 ... : ... .. 0 ... V00 ... : --- .. . ... : ... .. . ... : ... .. . ... ... : ... .. 1 ... ... : ... .. 1 ... ... : ... .. . ... ...
ROW F1 : F-4 00 5 P80 V01 ... : ... .. . ... ... ... : ... .. . ... : ... .. 0 ... : ... .. . ... ... : ... .. . ... ... : ... .. . ... ... : ... .. . ... ...
ROW F2 : C#4 00 7 ... ... ... : F-2 00 F P81 V01 ... : F-2 00 . ... : 2-# 00 F ... : ... .. . ... ... : C-3 01 A ... ... : G-3 01 A ... ... : E-4 01 A ... ...
ROW F3 : ... .. A ... ... ... : ... .. E ... ... ... : ... .. . ... : ... .. C ... : ... .. . ... ... : ... .. 9 ... ... : ... .. 9 ... ... : ... .. 8 ... ...
ROW F4 : ... .. 7 ... ... ... : ... .. D ... ... ... : ... .. . ... : ... .. 6 ... : ... .. . ... ... : ... .. 8 ... ... : ... .. 8 ... ... : ... .. 5 ... ...
ROW F5 : ... .. 0 ... V00 ... : ... .. A ... ... ... : ... .. . ... : ... .. 3 ... : ... .. . ... ... : ... .. 7 ... ... : ... .. 7 ... ... : ... .. . ... ...
ROW F6 : C#4 00 5 P80 V01 ... : ... .. . ... ... ... : ... .. . ... : ... .. 2 ... : ... .. . ... ... : ... .. . ... ... : ... .. . ... ... : ... .. . ... ...
ROW F7 : B-3 00 7 ... ... ... : ... .. . ... ... ... : ... .. . ... : ... .. 0 ... : ... .. . ... ... : ... .. 6 ... ... : ... .. 6 ... ... : ... .. . ... ...
ROW F8 : ... .. A ... ... ... : ... .. . ... ... ... : ... .. . ... : B-# 00 8 ... : ... .. . ... ... : ... .. . ... ... : ... .. . ... ... : ... .. . ... ...
ROW F9 : ... .. 7 ... ... ... : ... .. . ... ... ... : ... .. . ... : ... .. 3 ... : ... .. . ... ... : ... .. 5 ... ... : ... .. 5 ... ... : ... .. . ... ...
ROW FA : ... .. 0 ... V00 ... : ... .. 0 ... V00 ... : --- .. . ... : ... .. . ... : ... .. . ... ... : ... .. 1 ... ... : ... .. 1 ... ... : ... .. 1 ... ...
ROW FB : B-3 00 5 P80 V01 ... : ... .. . ... ... ... : ... .. . ... : ... .. 0 ... : ... .. . ... ... : ... .. . ... ... : ... .. . ... ... : ... .. . ... ...
ROW FC : G-4 00 7 ... ... ... : G-2 00 F P81 V01 ... : G-2 00 . ... : 7-# 00 F ... : ... .. . ... ... : ... .. 5 ... ... : ... .. 5 ... ... : ... .. 5 ... ...
ROW FD : ... .. A ... ... ... : ... .. E ... ... ... : ... .. . ... : ... .. C ... : ... .. . ... ... : ... .. . ... ... : ... .. . ... ... : ... .. . ... ...
ROW FE : ... .. 7 ... ... ... : ... .. D ... ... ... : ... .. . ... : ... .. A ... : ... .. . ... ... : ... .. . ... ... : ... .. . ... ... : ... .. . ... ...
ROW FF : ... .. 0 ... V00 ... : ... .. A ... ... ... : ... .. . ... : ... .. 8 ... : ... .. . ... ... : ... .. . ... ... : ... .. . ... ... : ... .. . ... ...

PATTERN 04
ROW 00 : G-4 00 5 P80 V01 ... : ... .. . ... ... ... : ... .. . ... : ... .. 7 ... : ... .. . ... ... : ... .. . ... ... : ... .. . ... ... : ... .. . ... ...
ROW 01 : F-4 00 7 ... ... ... : ... .. . ... ... ... : ... .. . ... : ... .. 0 ... : ... .. . ... ... : ... .. . ... ... : ... .. . ... ... : ... .. . ... ...
ROW 02 : ... .. A ... ... ... : F#2 00 A P8E ... ... : F#2 00 . P8D : B-# 00 6 ... : ... .. . ... ... : ... .. . ... ... : ... .. . ... ... : ... .. . ... ...
ROW 03 : ... .. 7 ... ... ... : ... .. . P79 ... ... : ... .. . P78 : ... .. 2 ... : ... .. . ... ... : ... .. . ... ... : ... .. . ... ... : ... .. . ... ...
ROW 04 : ... .. 0 ... V00 ... : F-2 00 A P88 ... ... : F-2 00 . P87 : ... .. . ... : ... .. . ... ... : ... .. 1 ... ... : ... .. 1 ... ... : ... .. 1 ... ...
ROW 05 : F-4 00 5 P80 V01 ... : ... .. . P73 ... ... : ... .. . P72 : ... .. 0 ... : ... .. . ... ... : ... .. . ... ... : ... .. . ... ... : ... .. . ... ...
ROW 06 : C#4 00 7 ... ... ... : B-1 00 F P81 ... ... : B-1 00 . P80 : ... .. . ... : ... .. . ... ... : C#3 01 A ... ... : G#3 01 A ... ... : F-4 01 A ... ...
ROW 07 : ... .. A ... ... ... : ... .. E ... ... ... : ... .. . ... : ... .. A ... : ... .. . ... ... : ... .. 9 ... ... : ... .. 9 ... ... : ... .. 8 ... ...
ROW 08 : ... .. 7 ... ... ... : ... .. D ... ... ... : ... .. . ... : ... .. 4 ... : ... .. . ... ... : ... .. 8 ... ... : ... .. 8 ... ... : ... .. 5 ... ...
ROW 09 : ... .. 0 ... V00 ... : ... .. A ... ... ... : ... .. . ... : ... .. . ... : ... .. . ... ... : ... .. 7 ... ... : ... .. 7 ... ... : ... .. . ... ...
ROW 0A : C#4 00 5 P80 V01 ... : ... .. . ... ... ... : ... .. . ... : ... .. 0 ... : ... .. . ... ... : ... .. . ... ... : ... .. . ... ... : ... .. . ... ...
ROW 0B : B-3 00 7 ... ... ... : ... .. . ... ... ... : ... .. . ... : ... .. . ... : ... .. . ... ... : ... .. 6 ... ... : ... .. 6 ... ... : ... .. . ... ...
ROW 0C : ... .. A ... ... ... : ... .. . ... ... ... : ... .. . ... : ... .. 8 ... : ... .. . ... ... : ... .. . ... ... : ... .. . ... ... : ... .. . ... ...
ROW 0D : ... .. 7 ... ... ... : ... .. . ... ... ... : ... .. . ... : ... .. 3 ... : ... .. . ... ... : ... .. 5 ... ... : ... .. 5 ... ... : ... .. . ... ...
ROW 0E : ... .. 0 ... V00 ... : ... .. 0 ... V00 ... : --- .. . ... : ... .. . ... : ... .. . ... ... : ... .. 1 ... ... : ... .. 1 ... ... : ... .. 1 ... ...
ROW 0F : B-3 00 5 P80 V01 ... : ... .. . ... ... ... : ... .. . ... : ... .. 0 ... : ... .. . ... ... : ... .. . ... ... : ... .. . ... ... : ... .. . ... ...
ROW 10 : G-4 00 7 ... ... ... : C#2 00 F P81 V01 ... : C#2 00 . ... : 9-# 00 D ... : ... .. . ... ... : ... .. 5 ... ... : ... .. 5 ... ... : ... .. 5 ... ...
ROW 11 : ... .. A ... ... ... : ... .. E ... ... ... : ... .. . ... : ... .. . ... : ... .. . ... ... : ... .. . ... ... : ... .. . ... ... : ... .. . ... ...
ROW 12 : ... .. 7 ... ... ... : ... .. D ... ... ... : ... .. . ... : ... .. . ... : ... .. . ... ... : ... .. . ... ... : ... .. . ... ... : ... .. . ... ...
ROW 13 : ... .. 0 ... V00 ... : ... .. A ... ... ... : ... .. . ... : ... .. B ... : ... .. . ... ... : ... .. . ... ... : ... .. . ... ... : ... .. . ... ...
ROW 14 : G-4 00 5 P80 V01 ... : ... .. . ... ... ... : ... .. . ... : ... .. . ... : ... .. . ... ... : ... .. . ... ... : ... .. . ... ... : ... .. . ... ...
ROW 15 : F-4 00 7 ... ... ... : ... .. . ... ... ... : ... .. . ... : ... .. A ... : ... .. . ... ... : ... .. 2 ... ... : ... .. 2 ... ... : ... .. 1 ... ...
ROW 16 : ... .. A ... ... ... : ... .. . ... ... ... : ... .. . ... : ... .. . ... : ... .. . ... ... : ... .. . ... ... : ... .. . ... ... : ... .. . ... ...
ROW 17 : ... .. 7 ... ... ... : ... .. . ... ... ... : ... .. . ... : ... .. . ... : ... .. . ... ... : ... .. . ... ... : ... .. . ... ... : ... .. . ... ...
ROW 18 : ... .. 0 ... V00 ... : ... .. . ... ... ... : ... .. . ... : ... .. 9 ... : ... .. . ... ... : ... .. 1 ... ... : ... .. 1 ... ... : ... .. . ... ...
ROW 19 : F-4 00 5 P80 V01 ... : ... .. . ... ... ... : ... .. . ... : ... .. . ... : ... .. . ... ... : ... .. . ... ... : ... .. . ... ... : ... .. . ... ...
ROW 1A : C#4 00 7 ... ... ... : F-1 00 F ... ... ... : F-1 00 . ... : ... .. 7 ... : ... .. . ... ... : D-3 01 A ... ... : A-3 01 A ... ... : F#4 01 A ... ...
ROW 1B : ... .. A ... ... ... : ... .. E ... ... ... : ... .. . ... : ... .. . ... : ... .. . ... ... : ... .. 9 ... ... : ... .. 9 ... ... : ... .. 8 ... ...
ROW 1C : ... .. 7 ... ... ... : ... .. D ... ... ... : ... .. . ... : ... .. . ... : ... .. . ... ... : ... .. 8 ... ... : ... .. 8 ... ... : ... .. 5 ... ...
ROW 1D : ... .. 0 ... V00 ... : ... .. A ... ... ... : ... .. . ... : ... .. 6 ... : ... .. . ... ... : ... .. 7 ... ... : ... .. 7 ... ... : ... .. . ... ...
ROW 1E : C#4 00 5 P80 V01 ... : ... .. . ... ... ... : ... .. . ... : ... .. . ... : ... .. . ... ... : ... .. . ... ... : ... .. . ... ... : ... .. . ... ...
ROW 1F : B-3 00 7 ... ... ... : ... .. . ... ... ... : ... .. . ... : ... .. 5 ... : ... .. . ... ... : ... .. 6 ... ... : ... .. 6 ... ... : ... .. . ... ...
ROW 20 : ... .. A ... ... ... : ... .. . ... ... ... : ... .. . ... : ... .. . ... : ... .. . ... ... : ... .. . ... ... : ... .. . ... ... : ... .. . ... ...
ROW 21 : ... .. 7 ... ... ... : ... .. . ... ... ... : ... .. . ... : ... .. . ... : ... .. . ... ... : ... .. 5 ... ... : ... .. 5 ... ... : ... .. . ... ...
ROW 22 : ... .. 0 ... V00 ... : ... .. . ... ... ... : ... .. . ... : ... .. 4 ... : ... .. . ... ... : ... .. 1 ... ... : ... .. 1 ... ... : ... .. 1 ... ...
ROW 23 : B-3 00 5 P80 V01 ... : ... .. . ... ... ... : ... .. . ... : ... .. . ... : ... .. . ... ... : ... .. . ... ... : ... .. . ... ... : ... .. . ... ...
ROW 24 : G-3 00 7 ... ... ... : G-1 00 F ... ... ... : G-1 00 . ... : 7-# 00 F ... : ... .. . ... ... : ... .. 5 ... ... : ... .. 5 ... ... : ... .. 5 ... ...
ROW 25 : ... .. A ... ... ... : ... .. E ... ... ... : ... .. . ... : ... .. C ... : ... .. . ... ... : ... .. . ... ... : ... .. . ... ... : ... .. . ... ...
ROW 26 : ... .. 7 ... ... ... : ... .. D ... ... ... : ... .. . ... : ... .. A ... : ... .. . ... ... : ... .. . ... ... : ... .. . ... ... : ... .. . ... ...
ROW 27 : ... .. 0 ... V00 ... : ... .. A ... ... ... : ... .. . ... : ... .. 8 ... : ... .. . ... ... : ... .. . ... ... : ... .. . ... ... : ... .. . ... ...
ROW 28 : G-3 00 5 P80 V01 ... : ... .. . ... ... ... : ... .. . ... : ... .. 7 ... : ... .. . ... ... : ... .. . ... ... : ... .. . ... ... : ... .. . ... ...
ROW 29 : F-3 00 7 ... ... ... : ... .. . ... ... ... : ... .. . ... : ... .. 0 ... : ... .. . ... ... : ... .. . ... ... : ... .. . ... ... : ... .. . ... ...
ROW 2A : ... .. A ... ... ... : ... .. . ... ... ... : ... .. . ... : B-# 00 6 ... : ... .. . ... ... : ... .. . ... ... : ... .. . ... ... : ... .. . ... ...
ROW 2B : ... .. 7 ... ... ... : ... .. . ... ... ... : ... .. . ... : ... .. 2 ... : ... .. . ... ... : ... .. . ... ... : ... .. . ... ... : ... .. . ... ...
ROW 2C : ... .. 0 ... V00 ... : ... .. . ... ... ... : ... .. . ... : ... .. . ... : ... .. . ... ... : ... .. 1 ... ... : ... .. 1 ... ... : ... .. 1 ... ...
ROW 2D : F-3 00 5 P80 V01 ... : ... .. . ... ... ... : ... .. . ... : ... .. 0 ... : ... .. . ... ... : ... .. . ... ... : ... .. . ... ... : ... .. . ... ...
ROW 2E : A-2 00 A ... ... ... : B-0 00 F ... ... ... : B-0 00 . ... : 9-# 00 D ... : ... .. . ... ... : C#3 01 A ... ... : G#3 01 A ... ... : F-4 01 A ... ...
ROW 2F : ... .. 9 ... ... ... : ... .. E ... ... ... : ... .. . ... : ... .. . ... : ... .. . ... ... : ... .. 9 ... ... : ... .. 9 ... ... : ... .. 8 ... ...
ROW 30 : ... .. 8 ... ... ... : ... .. D ... ... ... : ... .. . ... : ... .. . ... : ... .. . ... ... : ... .. 8 ... ... : ... .. 8 ... ... : ... .. 5 ... ...
ROW 31 : ... .. 6 ... ... ... : ... .. A ... ... ... : ... .. . ... : ... .. B ... : ... .. . ... ... : ... .. 7 ... ... : ... .. 7 ... ... : ... .. . ... ...
ROW 32 : ... .. . ... ... ... : ... .. . ... ... ... : ... .. . ... : ... .. . ... : ... .. . ... ... : ... .. . ... ... : ... .. . ... ... : ... .. . ... ...
ROW 33 : B-2 00 A ... ... ... : ... .. . ... ... ... : ... .. . ... : ... .. A ... : ... .. . ... ... : ... .. 6 ... ... : ... .. 6 ... ... : ... .. . ... ...
ROW 34 : ... .. 9 ... ... ... : ... .. . ... ... ... : ... .. . ... : ... .. . ... : ... .. . ... ... : ... .. . ... ... : ... .. . ... ... : ... .. . ... ...
ROW 35 : ... .. 8 ... ... ... : ... .. . ... ... ... : ... .. . ... : ... .. . ... : ... .. . ... ... : ... .. 5 ... ... : ... .. 5 ... ... : ... .. . ... ...
ROW 36 : ... .. 6 ... ... ... : ... .. . ... ... ... : ... .. . ... : ... .. 9 ... : ... .. . ... ... : ... .. 1 ... ... : ... .. 1 ... ... : ... .. 1 ... ...
ROW 37 : ... .. . ... ... ... : ... .. . ... ... ... : ... .. . ... : ... .. . ... : ... .. . ... ... : ... .. . ... ... : ... .. . ... ... : ... .. . ... ...
ROW 38 : D-3 00 B ... ... ... : C#1 00 F ... ... ... : C#1 00 . ... : ... .. 7 ... : ... .. . ... ... : ... .. 5 ... ... : ... .. 5 ... ... : ... .. 5 ... ...
ROW 39 : ... .. A ... ... ... : ... .. E ... ... ... : ... .. . ... : ... .. . ... : ... .. . ... ... : ... .. . ... ... : ... .. . ... ... : ... .. . ... ...
ROW 3A : ... .. 9 ... ... ... : ... .. D ... ... ... : ... .. . ... : ... .. . ... : ... .. . ... ... : ... .. . ... ... : ... .. . ... ... : ... .. . ... ...
ROW 3B : ... .. 7 ... ... ... : ... .. A ... ... ... : ... .. . ... : ... .. 6 ... : ... .. . ... ... : ... .. . ... ... : ... .. . ... ... : ... .. . ... ...
ROW 3C : ... .. . ... ... ... : ... .. . ... ... ... : ... .. . ... : ... .. . ... : ... .. . ... ... : ... .. . ... ... : ... .. . ... ... : ... .. . ... ...
ROW 3D : E-3 00 B ... ... ... : ... .. . ... ... ... : ... .. . ... : ... .. 5 ... : ... .. . ... ... : ... .. 2 ... ... : ... .. 2 ... ... : ... .. 1 ... ...
ROW 3E : ... .. A ... ... ... : ... .. . ... ... ... : ... .. . ... : ... .. . ... : ... .. . ... ... : ... .. . ... ... : ... .. . ... ... : ... .. . ... ...
ROW 3F : ... .. 9 ... ... ... : ... .. . ... ... ... : ... .. . ... : ... .. . ... : ... .. . ... ... : ... .. . ... ... : ... .. . ... ... : ... .. . ... ...
ROW 40 : ... .. 7 ... ... ... : ... .. . ... ... ... : ... .. . ... : ... .. 4 ... : ... .. . ... ... : ... .. 1 ... ... : ... .. 1 ... ... : ... .. . ... ...
ROW 41 : ... .. . ... ... ... : ... .. . ... ... ... : ... .. . ... : ... .. . ... : ... .. . ... ... : ... .. . ... ... : ... .. . ... ... : ... .. . ... ...
ROW 42 : F#3 00 C ... ... ... : G-3 00 F ... ... ... : G-3 00 . ... : ... .. 0 ... : ... .. . ... ... : C-3 01 A ... ... : G-3 01 A ... ... : E-4 01 A ... ...
ROW 43 : ... .. B ... ... ... : ... .. E ... ... ... : ... .. . ... : B-# 00 8 ... : ... .. . ... ... : ... .. 9 ... ... : ... .. 9 ... ... : ... .. 8 ... ...
ROW 44 : ... .. A ... ... ... : ... .. D ... ... ... : ... .. . ... : ... .. 3 ... : ... .. . ... ... : ... .. 8 ... ... : ... .. 8 ... ... : ... .. 5 ... ...
ROW 45 : ... .. 8 ... ... ... : ... .. 0 ... V00 ... : --- .. . ... : ... .. . ... : ... .. . ... ... : ... .. 7 ... ... : ... .. 7 ... ... : ... .. . ... ...
ROW 46 : ... .. . ... ... ... : ... .. . ... ... ... : ... .. . ... : ... .. 0 ... : ... .. . ... ... : ... .. . ... ... : ... .. . ... ... : ... .. . ... ...
ROW 47 : G-3 00 C ... ... ... : F-3 00 F P81 V01 ... : F-3 00 . ... : ... .. . ... : ... .. . ... ... : ... .. 6 ... ... : ... .. 6 ... ... : ... .. . ... ...
ROW 48 : ... .. B ... ... ... : ... .. E ... ... ... : ... .. . ... : ... .. 6 ... : ... .. . ... ... : ... .. . ... ... : ... .. . ... ... : ... .. . ... ...
ROW 49 : ... .. A ... ... ... : ... .. D ... ... ... : ... .. . ... : ... .. 2 ... : ... .. . ... ... : ... .. 5 ... ... : ... .. 5 ... ... : ... .. . ... ...
ROW 4A : ... .. 8 ... ... ... : ... .. 0 ... V00 ... : --- .. . ... : ... .. . ... : ... .. . ... ... : ... .. 1 ... ... : ... .. 1 ... ... : ... .. 1 ... ...
ROW 4B : ... .. . ... ... ... : ... .. . ... ... ... : ... .. . ... : ... .. 0 ... : ... .. . ... ... : ... .. . ... ... : ... .. . ... ... : ... .. . ... ...
ROW 4C : G#3 00 D ... ... ... : C#3 00 F P81 V01 ... : C#3 00 . ... : 7-# 00 F ... : ... .. . ... ... : B-2 01 A ... ... : F#3 01 A ... ... : G#3 01 F ... ...
ROW 4D : ... .. C ... ... ... : ... .. E ... ... ... : ... .. . ... : ... .. C ... : ... .. . ... ... : ... .. 9 ... ... : ... .. 9 ... ... : ... .. D ... ...
ROW 4E : ... .. B ... ... ... : ... .. D ... ... ... : ... .. . ... : ... .. A ... : ... .. . ... ... : ... .. 8 ... ... : ... .. 8 ... ... : ... .. 8 ... ...
ROW 4F : ... .. 8 ... ... ... : ... .. A ... ... ... : ... .. . ... : ... .. 0 ... : ... .. . ... ... : ... .. 7 ... ... : ... .. 7 ... ... : ... .. . ... ...
ROW 50 : ... .. . ... ... ... : ... .. . ... ... ... : ... .. . ... : ... .. . ... : ... .. . ... ... : ... .. . ... ... : ... .. . ... ... : ... .. . ... ...
ROW 51 : A#3 00 D ... ... ... : B-2 00 F ... ... ... : B-2 00 . ... : 6-# 00 F ... : ... .. . ... ... : ... .. 6 ... ... : ... .. 6 ... ... : A#3 01 F ... ...
ROW 52 : ... .. C ... ... ... : ... .. E ... ... ... : ... .. . ... : ... .. C ... : ... .. . ... ... : ... .. . ... ... : ... .. . ... ... : ... .. D ... ...
ROW 53 : ... .. B ... ... ... : ... .. D ... ... ... : ... .. . ... : ... .. A ... : ... .. . ... ... : ... .. 5 ... ... : ... .. 5 ... ... : ... .. 8 ... ...
ROW 54 : ... .. 8 ... ... ... : ... .. 0 ... V00 ... : --- .. . ... : ... .. 0 ... : ... .. . ... ... : ... .. 1 ... ... : ... .. 1 ... ... : ... .. . ... ...
ROW 55 : ... .. . ... ... ... : ... .. . ... ... ... : ... .. . ... : ... .. . ... : ... .. . ... ... : ... .. . ... ... : ... .. . ... ... : ... .. . ... ...
ROW 56 : C-4 00 E ... ... ... : G-2 00 F P81 V01 ... : G-2 00 . ... : 5-# 00 F ... : ... .. . ... ... : ... .. 5 P84 ... : ... .. 5 P83 ... : C-4 01 F ... ...
ROW 57 : ... .. D ... ... ... : ... .. E ... ... ... : ... .. . ... : ... .. C ... : ... .. . ... ... : ... .. . P86 ... : ... .. . P85 ... : ... .. D ... ...
ROW 58 : ... .. C ... ... ... : ... .. D ... ... ... : ... .. . ... : ... .. A ... : ... .. . ... ... : ... .. . P85 ... : ... .. . P84 ... : ... .. 8 ... ...
ROW 59 : ... .. 9 ... ... ... : ... .. 0 ... V00 ... : --- .. . ... : ... .. 0 ... : ... .. . ... ... : ... .. . P82 ... : ... .. . P81 ... : ... .. . ... ...
ROW 5A : ... .. . ... ... ... : ... .. . ... ... ... : ... .. . ... : ... .. . ... : ... .. . ... ... : ... .. . P7E ... : ... .. . P7D ... : ... .. . ... ...
ROW 5B : D-4 00 E ... ... ... : F-2 00 F P81 V01 ... : F-2 00 . ... : 4-# 00 F ... : ... .. . ... ... : ... .. . P7B ... : ... .. . P7A ... : D-4 01 F ... ...
ROW 5C : ... .. D ... ... ... : ... .. E ... ... ... : ... .. . ... : ... .. C ... : ... .. . ... ... : ... .. . P7A ... : ... .. . P79 ... : ... .. D ... ...
ROW 5D : ... .. C ... ... ... : ... .. D ... ... ... : ... .. . ... : ... .. A ... : ... .. . ... ... : ... .. . P7C ... : ... .. . P7B ... : ... .. 8 ... ...
ROW 5E : ... .. A ... ... ... : ... .. 0 ... V00 ... : --- .. . ... : ... .. 8 ... : ... .. . ... ... : ... .. . P80 ... : ... .. . P7F ... : ... .. . ... ...
ROW 5F : ... .. . ... ... ... : ... .. . ... ... ... : ... .. . ... : ... .. 7 ... : ... .. . ... ... : ... .. . P83 ... : ... .. . P82 ... : ... .. . ... ...
ROW 60 : C-4 00 D ... ... ... : C-2 00 F P81 V01 ... : B-3 00 . ... : 9-# 00 D ... : ... .. . ... ... : F#3 01 A P87 ... : A#3 01 A P85 ... : E-4 01 F ... ...
ROW 61 : ... .. B ... ... ... : ... .. E ... ... ... : C#3 00 . ... : ... .. . ... : ... .. . ... ... : ... .. 9 ... ... : ... .. 9 ... ... : ... .. D ... ...
ROW 62 : ... .. . ... ... ... : ... .. D ... ... ... : F#2 00 . ... : ... .. . ... : ... .. . ... ... : ... .. 8 P83 ... : ... .. 8 P81 ... : ... .. 8 ... ...
ROW 63 : ... .. A ... ... ... : ... .. A P83 ... ... : F-2 00 . ... : ... .. B ... : ... .. . ... ... : ... .. 7 P81 ... : ... .. 7 P7F ... : ... .. . ... ...
ROW 64 : ... .. 8 ... ... ... : ... .. . ... ... ... : C-2 00 . ... : ... .. . ... : ... .. . ... ... : ... .. . ... ... : ... .. . ... ... : ... .. . ... ...
ROW 65 : A#3 00 D ... ... ... : ... .. . ... ... ... : ... .. . ... : ... .. A ... : ... .. . ... ... : ... .. 6 ... ... : ... .. 6 ... ... : ... .. . ... ...
ROW 66 : ... .. B ... ... ... : ... .. . ... ... ... : ... .. . ... : ... .. . ... : ... .. . ... ... : ... .. . ... ... : ... .. . ... ... : ... .. . ... ...
ROW 67 : ... .. . ... ... ... : ... .. . ... ... ... : ... .. . ... : ... .. . ... : ... .. . ... ... : ... .. 5 ... ... : ... .. 5 ... ... : ... .. . ... ...
ROW 68 : ... .. A ... ... ... : ... .. . ... ... ... : ... .. . ... : ... .. 9 ... : ... .. . ... ... : ... .. . ... ... : ... .. . ... ... : ... .. . ... ...
ROW 69 : ... .. 8 ... ... ... : ... .. . ... ... ... : ... .. . ... : ... .. . ... : ... .. . ... ... : ... .. . ... ... : ... .. . ... ... : ... .. . ... ...
ROW 6A : D-3 00 D ... ... ... : C-3 00 F ... ... ... : B-4 00 . ... : ... .. 7 ... : ... .. . ... ... : ... .. . ... ... : ... .. . ... ... : ... .. . ... ...
ROW 6B : ... .. B ... ... ... : ... .. E ... ... ... : C#4 00 . ... : ... .. . ... : ... .. . ... ... : ... .. . ... ... : ... .. . ... ... : ... .. . ... ...
ROW 6C : ... .. . ... ... ... : ... .. D ... ... ... : F#3 00 . ... : ... .. . ... : ... .. . ... ... : ... .. . ... ... : ... .. . ... ... : ... .. . ... ...
ROW 6D : ... .. A ... ... ... : ... .. 0 ... V00 ... : --- .. . ... : ... .. 6 ... : ... .. . ... ... : ... .. . ... ... : ... .. . ... ... : ... .. . ... ...
ROW 6E : ... .. 8 ... ... ... : ... .. . ... ... ... : ... .. . ... : ... .. . ... : ... .. . ... ... : ... .. . ... ... : ... .. . ... ... : ... .. . ... ...
ROW 6F : E-3 00 D ... ... ... : C-3 00 F P83 V01 ... : C-3 00 . ... : ... .. 5 ... : ... .. . ... ... : ... .. . ... ... : ... .. . ... ... : ... .. . ... ...
ROW 70 : ... .. B ... ... ... : ... .. E ... ... ... : ... .. . ... : ... .. . ... : ... .. . ... ... : ... .. . ... ... : ... .. . ... ... : ... .. . ... ...
ROW 71 : ... .. . ... ... ... : ... .. D ... ... ... : ... .. . ... : ... .. . ... : ... .. . ... ... : ... .. . ... ... : ... .. . ... ... : ... .. . ... ...
ROW 72 : ... .. A ... ... ... : ... .. 0 ... V00 ... : --- .. . ... : ... .. 4 ... : ... .. . ... ... : ... .. . ... ... : ... .. . ... ... : ... .. . ... ...
ROW 73 : ... .. 8 ... ... ... : ... .. . ... ... ... : ... .. . ... : ... .. . ... : ... .. . ... ... : ... .. . ... ... : ... .. . ... ... : ... .. . ... ...
ROW 74 : C-3 00 D ... ... ... : C-2 00 F P83 V01 ... : C-2 00 . ... : 7-# 00 F ... : ... .. . ... ... : G-3 01 5 P7A ... : B-3 01 5 P7B ... : F-4 01 8 P80 ...
ROW 75 : ... .. B ... ... ... : ... .. E ... ... ... : ... .. . ... : ... .. C ... : ... .. . ... ... : ... .. . P80 ... : ... .. . P81 ... : F#4 01 8 P7C ...
ROW 76 : ... .. . ... ... ... : ... .. D ... ... ... : ... .. . ... : ... .. A ... : ... .. . ... ... : ... .. . P7E ... : ... .. . P7F ... : F-4 01 8 P84 ...
ROW 77 : ... .. A ... ... ... : ... .. A ... ... ... : ... .. . ... : ... .. 8 ... : ... .. . ... ... : F#3 01 5 P85 ... : A#3 01 5 P83 ... : E-4 01 8 P85 ...
ROW 78 : ... .. 8 ... ... ... : ... .. . ... ... ... : ... .. . ... : ... .. 7 ... : ... .. . ... ... : ... .. . P7D ... : ... .. . P7B ... : ... .. . P7D ...
ROW 79 : A#2 00 D ... ... ... : ... .. . ... ... ... : ... .. . ... : ... .. 0 ... : ... .. . ... ... : F-3 01 5 P85 ... : A-3 01 5 P7F ... : D#4 01 8 P7E ...
ROW 7A : ... .. B ... ... ... : ... .. . ... ... ... : ... .. . ... : B-# 00 6 ... : ... .. . ... ... : ... .. . P83 ... : ... .. . P7D ... : ... .. . P7C ...
ROW 7B : ... .. . ... ... ... : ... .. . ... ... ... : ... .. . ... : ... .. 2 ... : ... .. . ... ... : ... .. . P89 ... : ... .. . P83 ... : ... .. . P82 ...
ROW 7C : ... .. A ... ... ... : ... .. 0 ... V00 ... : --- .. . ... : ... .. . ... : ... .. . ... ... : F#3 01 5 P81 ... : A#3 01 5 P7F ... : E-4 01 8 P81 ...
ROW 7D : ... .. 8 ... ... ... : ... .. . ... ... ... : ... .. . ... : ... .. 0 ... : ... .. . ... ... : G-3 01 5 P79 ... : B-3 01 5 P7A ... : F-4 01 8 P7F ...
ROW 7E : E-2 00 D ... ... ... : A#2 00 F P83 V01 ... : A#2 00 . ... : ... .. . ... : ... .. . ... ... : E-3 01 A P81 ... : G#3 01 A P7F ... : D-4 01 F P81 ...
ROW 7F : ... .. B ... ... ... : ... .. E ... ... ... : ... .. . ... : ... .. A ... : ... .. . ... ... : ... .. 9 ... ... : ... .. 9 ... ... : ... .. D ... ...
ROW 80 : ... .. . ... ... ... : ... .. D ... ... ... : ... .. . ... : ... .. 4 ... : ... .. . ... ... : ... .. 8 ... ... : ... .. 8 ... ... : ... .. 8 ... ...
ROW 81 : ... .. A ... ... ... : ... .. A ... ... ... : ... .. . ... : ... .. . ... : ... .. . ... ... : ... .. 7 ... ... : ... .. 7 ... ... : ... .. . ... ...
ROW 82 : ... .. 8 ... ... ... : ... .. . ... ... ... : ... .. . ... : ... .. 0 ... : ... .. . ... ... : ... .. . ... ... : ... .. . ... ... : ... .. . ... ...
ROW 83 : F#2 00 D ... ... ... : ... .. . ... ... ... : ... .. . ... : ... .. . ... : ... .. . ... ... : ... .. 6 ... ... : ... .. 6 ... ... : ... .. . ... ...
ROW 84 : ... .. B ... ... ... : ... .. . ... ... ... : ... .. . ... : ... .. 8 ... : ... .. . ... ... : ... .. . ... ... : ... .. . ... ... : ... .. . ... ...
ROW 85 : ... .. . ... ... ... : ... .. . ... ... ... : ... .. . ... : ... .. 3 ... : ... .. . ... ... : ... .. 5 ... ... : ... .. 5 ... ... : ... .. . ... ...
ROW 86 : ... .. A ... ... ... : ... .. 0 ... V00 ... : --- .. . ... : ... .. . ... : ... .. . ... ... : ... .. . ... ... : ... .. . ... ... : ... .. . ... ...
ROW 87 : ... .. 8 ... ... ... : ... .. . ... ... ... : ... .. . ... : ... .. 0 ... : ... .. . ... ... : ... .. . ... ... : ... .. . ... ... : ... .. . ... ...
ROW 88 : C-4 00 D ... ... ... : G#2 00 F P83 V01 ... : G-4 00 . ... : 2-# 00 F ... : ... .. . ... ... : F#3 01 A ... ... : A#3 01 A ... ... : E-4 01 F ... ...
ROW 89 : ... .. B ... ... ... : ... .. E ... ... ... : A-3 00 . ... : ... .. C ... : ... .. . ... ... : ... .. 9 ... ... : ... .. 9 ... ... : ... .. D ... ...
ROW 8A : ... .. . ... ... ... : ... .. D ... ... ... : D-3 00 . ... : ... .. 6 ... : ... .. . ... ... : ... .. 8 ... ... : ... .. 8 ... ... : ... .. 8 ... ...
ROW 8B : ... .. A ... ... ... : ... .. A ... ... ... : C#3 00 . ... : ... .. 3 ... : ... .. . ... ... : ... .. 7 ... ... : ... .. 7 ... ... : ... .. . ... ...
ROW 8C : ... .. 8 ... ... ... : ... .. . ... ... ... : G#2 00 . ... : ... .. 2 ... : ... .. . ... ... : ... .. . ... ... : ... .. . ... ... : ... .. . ... ...
ROW 8D : A#3 00 D ... ... ... : ... .. . ... ... ... : ... .. . ... : ... .. 0 ... : ... .. . ... ... : ... .. 6 ... ... : ... .. 6 ... ... : ... .. . ... ...
ROW 8E : ... .. B ... ... ... : ... .. . ... ... ... : ... .. . ... : B-# 00 8 ... : ... .. . ... ... : ... .. . ... ... : ... .. . ... ... : ... .. . ... ...
ROW 8F : ... .. . ... ... ... : ... .. . ... ... ... : ... .. . ... : ... .. 3 ... : ... .. . ... ... : ... .. 5 ... ... : ... .. 5 ... ... : ... .. . ... ...
ROW 90 : ... .. A ... ... ... : ... .. . ... ... ... : ... .. . ... : ... .. . ... : ... .. . ... ... : ... .. . ... ... : ... .. . ... ... : ... .. . ... ...
ROW 91 : ... .. 8 ... ... ... : ... .. . ... ... ... : ... .. . ... : ... .. 0 ... : ... .. . ... ... : ... .. . ... ... : ... .. . ... ... : ... .. . ... ...
ROW 92 : D-3 00 D ... ... ... : D-2 00 F ... ... ... : C#4 00 . ... : 2-# 00 F ... : ... .. . ... ... : E-3 01 A ... ... : G#3 01 A ... ... : D-4 01 F ... ...
ROW 93 : ... .. B ... ... ... : ... .. E ... ... ... : D#3 00 . ... : ... .. C ... : ... .. . ... ... : ... .. 9 ... ... : ... .. 9 ... ... : ... .. D ... ...
ROW 94 : ... .. . ... ... ... : ... .. D ... ... ... : G#2 00 . ... : ... .. 6 ... : ... .. . ... ... : ... .. 8 ... ... : ... .. 8 ... ... : ... .. 8 ... ...
ROW 95 : ... .. A ... ... ... : ... .. A ... ... ... : G-2 00 . ... : ... .. 3 ... : ... .. . ... ... : ... .. 7 ... ... : ... .. 7 ... ... : ... .. . ... ...
ROW 96 : ... .. 8 ... ... ... : ... .. . ... ... ... : D-2 00 . ... : ... .. 2 ... : ... .. . ... ... : ... .. . ... ... : ... .. . ... ... : ... .. . ... ...
ROW 97 : E-3 00 D ... ... ... : ... .. . ... ... ... : ... .. . ... : ... .. 0 ... : ... .. . ... ... : ... .. 6 ... ... : ... .. 6 ... ... : ... .. . ... ...
ROW 98 : ... .. B ... ... ... : ... .. . ... ... ... : ... .. . ... : B-# 00 8 ... : ... .. . ... ... : ... .. . ... ... : ... .. . ... ... : ... .. . ... ...
ROW 99 : ... .. . ... ... ... : ... .. . ... ... ... : ... .. . ... : ... .. 3 ... : ... .. . ... ... : ... .. 5 ... ... : ... .. 5 ... ... : ... .. . ... ...
ROW 9A : ... .. A ... ... ... : ... .. . ... ... ... : ... .. . ... : ... .. . ... : ... .. . ... ... : ... .. . ... ... : ... .. . ... ... : ... .. . ... ...
ROW 9B : ... .. 8 ... ... ... : ... .. . ... ... ... : ... .. . ... : ... .. 0 ... : ... .. . ... ... : ... .. . ... ... : ... .. . ... ... : ... .. . ... ...
ROW 9C : C-3 00 D ... ... ... : E-2 00 F ... ... ... : E-2 00 . ... : 7-# 00 F ... : ... .. . ... ... : F#3 01 A ... ... : A#3 01 A ... ... : E-4 01 F ... ...
ROW 9D : ... .. B ... ... ... : ... .. E ... ... ... : ... .. . ... : ... .. C ... : ... .. . ... ... : ... .. 9 ... ... : ... .. 9 ... ... : ... .. D ... ...
ROW 9E : ... .. . ... ... ... : ... .. D ... ... ... : ... .. . ... : ... .. A ... : ... .. . ... ... : ... .. 8 ... ... : ... .. 8 ... ... : ... .. 8 ... ...
ROW 9F : ... .. A ... ... ... : ... .. A ... ... ... : ... .. . ... : ... .. 8 ... : ... .. . ... ... : ... .. 7 ... ... : ... .. 7 ... ... : ... .. . ... ...
ROW A0 : ... .. 8 ... ... ... : ... .. . ... ... ... : ... .. . ... : ... .. 7 ... : ... .. . ... ... : ... .. . ... ... : ... .. . ... ... : ... .. . ... ...
ROW A1 : A#2 00 D ... ... ... : ... .. . ... ... ... : ... .. . ... : ... .. 0 ... : ... .. . ... ... : ... .. 6 ... ... : ... .. 6 ... ... : ... .. . ... ...
ROW A2 : ... .. B ... ... ... : ... .. . ... ... ... : ... .. . ... : B-# 00 6 ... : ... .. . ... ... : ... .. . ... ... : ... .. . ... ... : ... .. . ... ...
ROW A3 : ... .. . ... ... ... : ... .. . ... ... ... : ... .. . ... : ... .. 2 ... : ... .. . ... ... : ... .. 5 ... ... : ... .. 5 ... ... : ... .. . ... ...
ROW A4 : ... .. A ... ... ... : ... .. 0 ... V00 ... : --- .. . ... : ... .. . ... : ... .. . ... ... : ... .. . ... ... : ... .. . ... ... : ... .. . ... ...
ROW A5 : ... .. 8 ... ... ... : ... .. . ... ... ... : ... .. . ... : ... .. 0 ... : ... .. . ... ... : ... .. . ... ... : ... .. . ... ... : ... .. . ... ...
ROW A6 : E-2 00 D ... ... ... : F#2 00 F P83 V01 ... : F#2 00 . ... : ... .. . ... : ... .. . ... ... : G#3 01 A ... ... : C-4 01 A ... ... : F#4 01 F ... ...
ROW A7 : ... .. B ... ... ... : ... .. E ... ... ... : ... .. . ... : ... .. A ... : ... .. . ... ... : ... .. 9 ... ... : ... .. 9 ... ... : ... .. D ... ...
ROW A8 : ... .. . ... ... ... : ... .. D ... ... ... : ... .. . ... : ... .. 4 ... : ... .. . ... ... : ... .. 8 ... ... : ... .. 8 ... ... : ... .. 8 ... ...
ROW A9 : ... .. A ... ... ... : ... .. A ... ... ... : ... .. . ... : ... .. . ... : ... .. . ... ... : ... .. 7 ... ... : ... .. 7 ... ... : ... .. . ... ...
ROW AA : ... .. 8 ... ... ... : ... .. . ... ... ... : ... .. . ... : ... .. 0 ... : ... .. . ... ... : ... .. . ... ... : ... .. . ... ... : ... .. . ... ...
ROW AB : F#2 00 D ... ... ... : ... .. . ... ... ... : ... .. . ... : ... .. . ... : ... .. . ... ... : ... .. 6 ... ... : ... .. 6 ... ... : ... .. . ... ...
ROW AC : ... .. B ... ... ... : ... .. . ... ... ... : ... .. . ... : ... .. 8 ... : ... .. . ... ... : ... .. . ... ... : ... .. . ... ... : ... .. . ... ...
ROW AD : ... .. . ... ... ... : ... .. . ... ... ... : ... .. . ... : ... .. 3 ... : ... .. . ... ... : ... .. 5 ... ... : ... .. 5 ... ... : ... .. . ... ...
ROW AE : ... .. A ... ... ... : ... .. 0 ... V00 ... : --- .. . ... : ... .. . ... : ... .. . ... ... : ... .. . ... ... : ... .. . ... ... : ... .. . ... ...
ROW AF : ... .. 8 ... ... ... : ... .. . ... ... ... : ... .. . ... : ... .. 0 ... : ... .. . ... ... : ... .. . ... ... : ... .. . ... ... : ... .. . ... ...
ROW B0 : C-4 00 D ... ... ... : A#1 00 F P83 V01 ... : A-3 00 . ... : 2-# 00 F ... : ... .. . ... ... : A#3 01 A ... ... : D-4 01 A ... ... : G#4 01 F ... ...
ROW B1 : ... .. B ... ... ... : ... .. E ... ... ... : B-2 00 . ... : ... .. C ... : ... .. . ... ... : ... .. 9 ... ... : ... .. 9 ... ... : ... .. D ... ...
ROW B2 : ... .. . ... ... ... : ... .. D ... ... ... : E-2 00 . ... : ... .. 6 ... : ... .. . ... ... : ... .. 8 ... ... : ... .. 8 ... ... : ... .. 8 ... ...
ROW B3 : ... .. A ... ... ... : ... .. 0 ... V00 ... : --- .. . ... : ... .. 3 ... : ... .. . ... ... : ... .. 7 ... ... : ... .. 7 ... ... : ... .. . ... ...
ROW B4 : ... .. 8 ... ... ... : ... .. . ... ... ... : ... .. . ... : ... .. 2 ... : ... .. . ... ... : ... .. . ... ... : ... .. . ... ... : ... .. . ... ...
ROW B5 : A#3 00 D ... ... ... : A#1 00 F P83 V01 ... : A#1 00 . ... : ... .. 0 ... : ... .. . ... ... : ... .. 6 ... ... : ... .. 6 ... ... : ... .. . ... ...
ROW B6 : ... .. B ... ... ... : ... .. E ... ... ... : ... .. . ... : B-# 00 8 ... : ... .. . ... ... : ... .. . ... ... : ... .. . ... ... : ... .. . ... ...
ROW B7 : ... .. . ... ... ... : ... .. D ... ... ... : ... .. . ... : ... .. 3 ... : ... .. . ... ... : ... .. 5 ... ... : ... .. 5 ... ... : ... .. . ... ...
ROW B8 : ... .. A ... ... ... : ... .. 0 ... V00 ... : --- .. . ... : ... .. . ... : ... .. . ... ... : ... .. . ... ... : ... .. . ... ... : ... .. . ... ...
ROW B9 : ... .. 8 ... ... ... : ... .. . ... ... ... : ... .. . ... : ... .. 0 ... : ... .. . ... ... : ... .. . ... ... : ... .. . ... ... : ... .. . ... ...
ROW BA : D-3 00 D ... ... ... : A#1 00 F P83 V01 ... : A#1 00 . ... : 2-# 00 F ... : ... .. . ... ... : G#3 01 A ... ... : C-4 01 A ... ... : F#4 01 F ... ...
ROW BB : ... .. B ... ... ... : ... .. E ... ... ... : ... .. . ... : ... .. C ... : ... .. . ... ... : ... .. 9 ... ... : ... .. 9 ... ... : ... .. D ... ...
ROW BC : ... .. . ... ... ... : ... .. D ... ... ... : ... .. . ... : ... .. 6 ... : ... .. . ... ... : ... .. 8 ... ... : ... .. 8 ... ... : ... .. 8 ... ...
ROW BD : ... .. A ... ... ... : ... .. 0 ... V00 ... : --- .. . ... : ... .. 3 ... : ... .. . ... ... : ... .. 7 ... ... : ... .. 7 ... ... : ... .. . ... ...
ROW BE : ... .. 8 ... ... ... : ... .. . ... ... ... : ... .. . ... : ... .. 2 ... : ... .. . ... ... : ... .. . ... ... : ... .. . ... ... : ... .. . ... ...
ROW BF : E-3 00 D ... ... ... : A#1 00 F P83 V01 ... : A#1 00 . ... : ... .. 0 ... : ... .. . ... ... : ... .. 6 ... ... : ... .. 6 ... ... : ... .. . ... ...
ROW C0 : ... .. B ... ... ... : ... .. E ... ... ... : ... .. . ... : B-# 00 8 ... : ... .. . ... ... : ... .. . ... ... : ... .. . ... ... : ... .. . ... ...
ROW C1 : ... .. . ... ... ... : ... .. D ... ... ... : ... .. . ... : ... .. 3 ... : ... .. . ... ... : ... .. 5 ... ... : ... .. 5 ... ... : ... .. . ... ...
ROW C2 : ... .. A ... ... ... : ... .. 0 ... V00 ... : --- .. . ... : ... .. . ... : ... .. . ... ... : ... .. . ... ... : ... .. . ... ... : ... .. . ... ...
ROW C3 : ... .. 8 ... ... ... : ... .. . ... ... ... : ... .. . ... : ... .. 0 ... : ... .. . ... ... : ... .. . ... ... : ... .. . ... ... : ... .. . ... ...
ROW C4 : C-3 00 D ... ... ... : C-2 00 F P83 V01 ... : C-2 00 . ... : 7-# 00 F ... : ... .. . ... ... : A#3 01 A ... ... : D-4 01 A ... ... : G#4 01 F ... ...
ROW C5 : ... .. B ... ... ... : ... .. E ... ... ... : ... .. . ... : ... .. C ... : ... .. . ... ... : ... .. 9 ... ... : ... .. 9 ... ... : ... .. D ... ...
ROW C6 : ... .. . ... ... ... : ... .. D ... ... ... : ... .. . ... : ... .. A ... : ... .. . ... ... : ... .. 8 ... ... : ... .. 8 ... ... : ... .. 8 ... ...
ROW C7 : ... .. A ... ... ... : ... .. A ... ... ... : ... .. . ... : ... .. 8 ... : ... .. . ... ... : ... .. 7 ... ... : ... .. 7 ... ... : ... .. . ... ...
ROW C8 : ... .. 8 ... ... ... : ... .. . ... ... ... : ... .. . ... : ... .. 7 ... : ... .. . ... ... : ... .. . ... ... : ... .. . ... ... : ... .. . ... ...
ROW C9 : A#2 00 D ... ... ... : ... .. . ... ... ... : ... .. . ... : ... .. 0 ... : ... .. . ... ... : ... .. 6 ... ... : ... .. 6 ... ... : ... .. . ... ...
ROW CA : ... .. B ... ... ... : ... .. . ... ... ... : ... .. . ... : B-# 00 6 ... : ... .. . ... ... : ... .. . ... ... : ... .. . ... ... : ... .. . ... ...
ROW CB : ... .. . ... ... ... : ... .. . ... ... ... : ... .. . ... : ... .. 2 ... : ... .. . ... ... : ... .. 5 ... ... : ... .. 5 ... ... : ... .. . ... ...
ROW CC : ... .. A ... ... ... : ... .. 0 ... V00 ... : --- .. . ... : ... .. . ... : ... .. . ... ... : ... .. . ... ... : ... .. . ... ... : ... .. . ... ...
ROW CD : ... .. 8 ... ... ... : ... .. . ... ... ... : ... .. . ... : ... .. 0 ... : ... .. . ... ... : ... .. . ... ... : ... .. . ... ... : ... .. . ... ...
ROW CE : E-2 00 D ... ... ... : C-3 00 F P83 V01 ... : C-3 00 . ... : ... .. . ... : ... .. . ... ... : C-4 01 A ... ... : E-4 01 A ... ... : A#4 01 F ... ...
ROW CF : ... .. B ... ... ... : ... .. E ... ... ... : ... .. . ... : ... .. A ... : ... .. . ... ... : ... .. 9 ... ... : ... .. 9 ... ... : ... .. D ... ...
ROW D0 : ... .. . ... ... ... : ... .. D ... ... ... : ... .. . ... : ... .. 4 ... : ... .. . ... ... : ... .. 8 ... ... : ... .. 8 ... ... : ... .. 8 ... ...
ROW D1 : ... .. A ... ... ... : ... .. A ... ... ... : ... .. . ... : ... .. . ... : ... .. . ... ... : ... .. 7 ... ... : ... .. 7 ... ... : ... .. . ... ...
ROW D2 : ... .. 8 ... ... ... : ... .. . ... ... ... : ... .. . ... : ... .. 0 ... : ... .. . ... ... : ... .. . ... ... : ... .. . ... ... : ... .. . ... ...
ROW D3 : F#2 00 D ... ... ... : ... .. . ... ... ... : ... .. . ... : ... .. . ... : ... .. . ... ... : ... .. 6 ... ... : ... .. 6 ... ... : ... .. . ... ...
ROW D4 : ... .. B ... ... ... : ... .. . ... ... ... : ... .. . ... : ... .. 8 ... : ... .. . ... ... : ... .. . ... ... : ... .. . ... ... : ... .. . ... ...
ROW D5 : ... .. . ... ... ... : ... .. . ... ... ... : ... .. . ... : ... .. 3 ... : ... .. . ... ... : ... .. 5 ... ... : ... .. 5 ... ... : ... .. . ... ...
ROW D6 : ... .. A ... ... ... : ... .. . ... ... ... : ... .. . ... : ... .. . ... : ... .. . ... ... : ... .. . ... ... : ... .. . ... ... : ... .. . ... ...
ROW D7 : ... .. 8 ... ... ... : ... .. . ... ... ... : ... .. . ... : ... .. 0 ... : ... .. . ... ... : ... .. . ... ... : ... .. . ... ... : ... .. . ... ...
ROW D8 : C-4 00 D ... ... ... : A#2 00 F ... ... ... : A-4 00 . ... : 2-# 00 F ... : ... .. . ... ... : D-4 01 A ... ... : F#4 01 A ... ... : C-5 01 F ... ...
ROW D9 : ... .. B ... ... ... : ... .. E ... ... ... : B-3 00 . ... : ... .. C ... : ... .. . ... ... : ... .. 9 ... ... : ... .. 9 ... ... : ... .. D ... ...
ROW DA : ... .. . ... ... ... : ... .. D ... ... ... : E-3 00 . ... : ... .. 6 ... : ... .. . ... ... : ... .. 8 ... ... : ... .. 8 ... ... : ... .. 8 ... ...
ROW DB : ... .. A ... ... ... : ... .. A ... ... ... : D#3 00 . ... : ... .. 3 ... : ... .. . ... ... : ... .. 7 ... ... : ... .. 7 ... ... : ... .. . ... ...
ROW DC : ... .. 8 ... ... ... : ... .. . ... ... ... : A#2 00 . ... : ... .. 2 ... : ... .. . ... ... : ... .. . ... ... : ... .. . ... ... : ... .. . ... ...
ROW DD : A#3 00 D ... ... ... : ... .. . ... ... ... : ... .. . ... : ... .. 0 ... : ... .. . ... ... : C-4 01 A ... ... : ... .. 6 ... ... : ... .. . ... ...
ROW DE : ... .. B ... ... ... : ... .. . ... ... ... : ... .. . ... : B-# 00 8 ... : ... .. . ... ... : ... .. 9 ... ... : ... .. . ... ... : ... .. . ... ...
ROW DF : ... .. . ... ... ... : ... .. . ... ... ... : ... .. . ... : ... .. 3 ... : ... .. . ... ... : ... .. 8 ... ... : ... .. 5 ... ... : ... .. . ... ...
ROW E0 : ... .. A ... ... ... : ... .. . ... ... ... : ... .. . ... : ... .. . ... : ... .. . ... ... : ... .. 7 ... ... : ... .. . ... ... : ... .. . ... ...
ROW E1 : ... .. 8 ... ... ... : ... .. . ... ... ... : ... .. . ... : ... .. 0 ... : ... .. . ... ... : ... .. . ... ... : ... .. . ... ... : ... .. . ... ...
ROW E2 : D-3 00 D ... ... ... : F#2 00 F ... ... ... : F-4 00 . ... : C-# 00 8 ... : ... .. . ... ... : A#3 01 A ... ... : ... .. . ... ... : C#5 01 8 P7E ...
ROW E3 : ... .. B ... ... ... : ... .. E ... ... ... : G-3 00 . ... : ... .. 7 ... : ... .. . ... ... : ... .. 9 ... ... : ... .. . ... ... : ... .. . P80 ...
ROW E4 : ... .. . ... ... ... : ... .. D ... ... ... : C-3 00 . ... : ... .. . ... : ... .. . ... ... : ... .. 8 ... ... : ... .. . ... ... : ... .. . P7F ...
ROW E5 : ... .. A ... ... ... : ... .. A ... ... ... : B-2 00 . ... : ... .. 6 ... : ... .. . ... ... : ... .. 7 ... ... : ... .. . ... ... : C-5 01 8 P83 ...
ROW E6 : ... .. 8 ... ... ... : ... .. . ... ... ... : F#2 00 . ... : ... .. 5 ... : ... .. . ... ... : ... .. . ... ... : ... .. . ... ... : ... .. . P7F ...
ROW E7 : E-3 00 D ... ... ... : ... .. . ... ... ... : ... .. . ... : ... .. 4 ... : ... .. . ... ... : C-4 01 A ... ... : G-4 01 5 P81 ... : B-4 01 8 P83 ...
ROW E8 : ... .. B ... ... ... : ... .. . ... ... ... : ... .. . ... : ... .. . ... : ... .. . ... ... : ... .. 9 ... ... : G#4 01 5 P7F ... : ... .. . P82 ...
ROW E9 : ... .. . ... ... ... : ... .. . ... ... ... : ... .. . ... : ... .. . ... : ... .. . ... ... : ... .. 8 ... ... : ... .. . P7D ... : C-5 01 8 P7D ...
ROW EA : ... .. A ... ... ... : ... .. 0 ... V00 ... : --- .. . ... : ... .. 3 ... : ... .. . ... ... : ... .. 7 ... ... : F#4 01 5 P83 ... : ... .. . P81 ...
ROW EB : ... .. 8 ... ... ... : ... .. . ... ... ... : ... .. . ... : ... .. . ... : ... .. . ... ... : ... .. . ... ... : F-4 01 5 P84 ... : C#5 01 8 P7D ...
ROW EC : C-3 00 D ... ... ... : E-2 00 F P83 V01 ... : E-2 00 . ... : 7-# 00 F ... : ... .. . ... ... : D-4 01 A ... ... : E-4 01 5 ... ... : G-4 01 F P81 ...
ROW ED : ... .. B ... ... ... : ... .. E ... ... ... : ... .. . ... : ... .. C ... : ... .. . ... ... : ... .. 9 ... ... : ... .. . P82 ... : ... .. D ... ...
ROW EE : ... .. . ... ... ... : ... .. D ... ... ... : ... .. . ... : ... .. A ... : ... .. . ... ... : ... .. 8 ... ... : F-4 01 5 P7E ... : ... .. 8 ... ...
ROW EF : ... .. A ... ... ... : ... .. A ... ... ... : ... .. . ... : ... .. 8 ... : ... .. . ... ... : ... .. 7 ... ... : F#4 01 5 P7F ... : ... .. . ... ...
ROW F0 : ... .. 8 ... ... ... : ... .. . ... ... ... : ... .. . ... : ... .. 7 ... : ... .. . ... ... : ... .. . ... ... : G-4 01 5 P80 ... : ... .. . ... ...
ROW F1 : A#2 00 D ... ... ... : ... .. . ... ... ... : ... .. . ... : ... .. 0 ... : ... .. . ... ... : E-4 01 A ... ... : G#4 01 5 P7F ... : G#4 01 F ... ...
ROW F2 : ... .. B ... ... ... : ... .. . ... ... ... : ... .. . ... : B-# 00 6 ... : ... .. . ... ... : ... .. 9 ... ... : ... .. . P7D ... : ... .. D ... ...
ROW F3 : ... .. . ... ... ... : ... .. . ... ... ... : ... .. . ... : ... .. 2 ... : ... .. . ... ... : ... .. 8 ... ... : G-4 01 5 ... ... : ... .. 8 ... ...
ROW F4 : ... .. A ... ... ... : ... .. . ... ... ... : ... .. . ... : ... .. . ... : ... .. . ... ... : ... .. 7 ... ... : F#4 01 5 P7C ... : ... .. . ... ...
ROW F5 : ... .. 8 ... ... ... : ... .. . ... ... ... : ... .. . ... : ... .. 0 ... : ... .. . ... ... : ... .. . ... ... : E-4 01 5 P85 ... : ... .. . ... ...
ROW F6 : E-2 00 D ... ... ... : C-2 00 F ... ... ... : C-2 00 . ... : ... .. . ... : ... .. . ... ... : F#4 01 A ... ... : --- .. . ... ... : A#4 01 F ... ...
ROW F7 : ... .. B ... ... ... : ... .. E ... ... ... : ... .. . ... : ... .. A ... : ... .. . ... ... : ... .. 9 ... ... : ... .. . ... ... : ... .. D ... ...
ROW F8 : ... .. . ... ... ... : ... .. D ... ... ... : ... .. . ... : ... .. 4 ... : ... .. . ... ... : ... .. 8 ... ... : ... .. . ... ... : ... .. 8 ... ...
ROW F9 : ... .. A ... ... ... : ... .. 0 ... V00 ... : --- .. . ... : ... .. . ... : ... .. . ... ... : ... .. 7 ... ... : ... .. . ... ... : ... .. . ... ...
ROW FA : ... .. 8 ... ... ... : ... .. . ... ... ... : ... .. . ... : ... .. 0 ... : ... .. . ... ... : ... .. . ... ... : ... .. . ... ... : ... .. . ... ...
ROW FB : F#2 00 D ... ... ... : C-2 00 F P83 V01 ... : C-2 00 . ... : ... .. . ... : ... .. . ... ... : G#4 01 A ... ... : ... .. . ... ... : C-5 01 F ... ...
ROW FC : ... .. B ... ... ... : ... .. E ... ... ... : ... .. . ... : ... .. 8 ... : ... .. . ... ... : ... .. 9 ... ... : ... .. . ... ... : ... .. D ... ...
ROW FD : ... .. . ... ... ... : ... .. D ... ... ... : ... .. . ... : ... .. 3 ... : ... .. . ... ... : ... .. 8 ... ... : ... .. . ... ... : ... .. 8 ... ...
ROW FE : ... .. A ... ... ... : ... .. 0 ... V00 ... : --- .. . ... : ... .. . ... : ... .. . ... ... : ... .. 7 ... ... : ... .. . ... ... : ... .. . ... ...
ROW FF : ... .. 8 ... ... ... : ... .. . ... ... ... : ... .. . ... : ... .. 0 ... : ... .. . ... ... : ... .. . ... ... : ... .. . ... ... : ... .. . ... ...

PATTERN 05
ROW 00 : G-2 00 F P7F ... ... : C#2 00 F P83 V01 ... : C-4 00 . ... : ... .. . ... : ... .. . ... ... : B-3 01 A P80 ... : F-4 01 A P80 ... : C#5 01 F P80 ...
ROW 01 : ... .. E ... ... ... : ... .. E ... ... ... : D-3 00 . ... : 2-# 00 F ... : ... .. . ... ... : ... .. 9 ... ... : ... .. 9 ... ... : ... .. D ... ...
ROW 02 : ... .. D ... ... ... : ... .. D ... ... ... : G-2 00 . ... : ... .. 6 ... : ... .. . ... ... : ... .. 8 ... ... : ... .. 8 ... ... : ... .. 8 ... ...
ROW 03 : ... .. A ... ... ... : ... .. A ... ... ... : F#2 00 . ... : ... .. . ... : ... .. . ... ... : ... .. 7 ... ... : ... .. 7 ... ... : ... .. . ... ...
ROW 04 : ... .. . ... ... ... : ... .. . ... ... ... : C#2 00 . ... : ... .. 0 ... : ... .. . ... ... : ... .. . ... ... : ... .. . ... ... : ... .. . ... ...
ROW 05 : ... .. . ... ... ... : ... .. . ... ... ... : ... .. . ... : ... .. . ... : ... .. . ... ... : ... .. 6 ... ... : ... .. 6 ... ... : ... .. . ... ...
ROW 06 : ... .. . ... ... ... : ... .. . ... ... ... : ... .. . ... : B-# 00 6 ... : ... .. . ... ... : ... .. . ... ... : ... .. . ... ... : ... .. . ... ...
ROW 07 : ... .. . ... ... ... : ... .. . ... ... ... : ... .. . ... : ... .. 2 ... : ... .. . ... ... : ... .. 5 ... ... : ... .. 5 ... ... : ... .. . ... ...
ROW 08 : ... .. 0 ... V00 ... : ... .. . ... ... ... : ... .. . ... : ... .. . ... : ... .. . ... ... : ... .. . ... ... : ... .. . ... ... : ... .. . ... ...
ROW 09 : ... .. . ... ... ... : ... .. . ... ... ... : ... .. . ... : ... .. 0 ... : ... .. . ... ... : ... .. . ... ... : ... .. . ... ... : ... .. . ... ...
ROW 0A : B-3 00 F P7F V01 ... : G-1 00 F ... ... ... : G-1 00 . ... : ... .. . ... : ... .. . ... ... : D-3 01 A ... ... : ... .. A ... ... : G-2 01 F ... ...
ROW 0B : ... .. E ... ... ... : ... .. E ... ... ... : ... .. . ... : ... .. A ... : ... .. . ... ... : ... .. 9 ... ... : ... .. 9 ... ... : ... .. D ... ...
ROW 0C : ... .. D ... ... ... : ... .. D ... ... ... : ... .. . ... : ... .. 4 ... : ... .. . ... ... : ... .. 8 ... ... : ... .. 8 ... ... : ... .. 8 ... ...
ROW 0D : ... .. 0 ... V00 ... : ... .. A ... ... ... : ... .. . ... : ... .. . ... : ... .. . ... ... : --- .. . P82 ... : ... .. 7 ... ... : ... .. . ... ...
ROW 0E : ... .. . ... ... ... : ... .. . ... ... ... : ... .. . ... : ... .. 0 ... : ... .. . ... ... : ... .. . ... ... : ... .. . ... ... : ... .. . ... ...
ROW 0F : B-3 00 F P7F V01 ... : ... .. . ... ... ... : ... .. . ... : ... .. . ... : ... .. . ... ... : D-3 01 A P80 ... : ... .. 6 ... ... : ... .. . ... ...
ROW 10 : ... .. E ... ... ... : ... .. . ... ... ... : ... .. . ... : ... .. 8 ... : ... .. . ... ... : ... .. 9 ... ... : ... .. . ... ... : ... .. . ... ...
ROW 11 : ... .. D ... ... ... : ... .. . ... ... ... : ... .. . ... : ... .. 3 ... : ... .. . ... ... : ... .. 8 ... ... : ... .. 5 ... ... : ... .. . ... ...
ROW 12 : ... .. 0 ... V00 ... : ... .. 0 ... V00 ... : --- .. . ... : ... .. . ... : ... .. . ... ... : --- .. . P82 ... : --- .. . ... ... : --- .. . P7D ...
ROW 13 : ... .. . ... ... ... : ... .. . ... ... ... : ... .. . ... : ... .. 0 ... : ... .. . ... ... : ... .. . ... ... : ... .. . ... ... : ... .. . ... ...
ROW 14 : F-3 00 F P7F V01 ... : C#2 00 F P83 V01 ... : C-4 00 . ... : 7-# 00 F ... : ... .. . ... ... : C#3 01 A P80 ... : F-4 01 A ... ... : G-1 01 F P80 ...
ROW 15 : ... .. E ... ... ... : ... .. E ... ... ... : D-3 00 . ... : ... .. C ... : ... .. . ... ... : ... .. 9 ... ... : ... .. 9 ... ... : ... .. D ... ...
ROW 16 : ... .. D ... ... ... : ... .. D ... ... ... : G-2 00 . ... : ... .. A ... : ... .. . ... ... : ... .. 8 ... ... : ... .. 8 ... ... : ... .. 8 ... ...
ROW 17 : ... .. A ... ... ... : ... .. 0 ... V00 ... : --- .. . ... : ... .. 8 ... : ... .. . ... ... : --- .. . P83 ... : ... .. 7 ... ... : ... .. . ... ...
ROW 18 : ... .. . ... ... ... : ... .. . ... ... ... : ... .. . ... : ... .. 7 ... : ... .. . ... ... : ... .. . ... ... : ... .. . ... ... : ... .. . ... ...
ROW 19 : ... .. . ... ... ... : C#2 00 F P83 V01 ... : C#2 00 . ... : ... .. 0 ... : ... .. . ... ... : C#3 01 A P80 ... : ... .. 6 ... ... : ... .. . ... ...
ROW 1A : ... .. . ... ... ... : ... .. E ... ... ... : ... .. . ... : B-# 00 6 ... : ... .. . ... ... : ... .. 9 ... ... : ... .. . ... ... : ... .. . ... ...
ROW 1B : ... .. . ... ... ... : ... .. D ... ... ... : ... .. . ... : ... .. 2 ... : ... .. . ... ... : ... .. 8 ... ... : ... .. 5 ... ... : ... .. . ... ...
ROW 1C : ... .. 0 ... V00 ... : ... .. 0 ... V00 ... : --- .. . ... : ... .. . ... : ... .. . ... ... : --- .. . P83 ... : --- .. . ... ... : --- .. . P81 ...
ROW 1D : ... .. . ... ... ... : ... .. . ... ... ... : ... .. . ... : ... .. 0 ... : ... .. . ... ... : ... .. . ... ... : ... .. . ... ... : ... .. . ... ...
ROW 1E : G-2 00 F P7F V01 ... : D-2 00 F P83 V01 ... : C#4 00 . ... : ... .. . ... : ... .. . ... ... : F-3 01 A P80 ... : C#4 01 A ... ... : B-4 01 F P80 ...
ROW 1F : ... .. E ... ... ... : ... .. E ... ... ... : D#3 00 . ... : ... .. A ... : ... .. . ... ... : ... .. 9 ... ... : ... .. 9 ... ... : ... .. D ... ...
ROW 20 : ... .. D ... ... ... : ... .. D ... ... ... : G#2 00 . ... : ... .. 4 ... : ... .. . ... ... : ... .. 8 ... ... : ... .. 8 ... ... : ... .. 8 ... ...
ROW 21 : ... .. A ... ... ... : ... .. A ... ... ... : G-2 00 . ... : ... .. . ... : ... .. . ... ... : ... .. 7 ... ... : ... .. 7 ... ... : ... .. . ... ...
ROW 22 : ... .. . ... ... ... : ... .. . ... ... ... : D-2 00 . ... : ... .. 0 ... : ... .. . ... ... : ... .. . ... ... : ... .. . ... ... : ... .. . ... ...
ROW 23 : ... .. . ... ... ... : ... .. . ... ... ... : ... .. . ... : ... .. . ... : ... .. . ... ... : ... .. 6 ... ... : ... .. 6 ... ... : ... .. . ... ...
ROW 24 : ... .. . ... ... ... : ... .. . ... ... ... : ... .. . ... : ... .. 8 ... : ... .. . ... ... : ... .. . ... ... : ... .. . ... ... : ... .. . ... ...
ROW 25 : ... .. . ... ... ... : ... .. . ... ... ... : ... .. . ... : ... .. 3 ... : ... .. . ... ... : ... .. 5 ... ... : ... .. 5 ... ... : ... .. . ... ...
ROW 26 : ... .. 0 ... V00 ... : ... .. . ... ... ... : ... .. . ... : ... .. . ... : ... .. . ... ... : ... .. . ... ... : ... .. . ... ... : ... .. . ... ...
ROW 27 : ... .. . ... ... ... : ... .. . ... ... ... : ... .. . ... : ... .. 0 ... : ... .. . ... ... : ... .. . ... ... : ... .. . ... ... : ... .. . ... ...
ROW 28 : F-3 00 F P7F V01 ... : G-1 00 F ... ... ... : G-1 00 . ... : 2-# 00 F ... : ... .. . ... ... : C#3 01 A ... ... : F-4 01 A ... ... : F-3 01 F ... ...
ROW 29 : ... .. E ... ... ... : ... .. E ... ... ... : ... .. . ... : ... .. C ... : ... .. . ... ... : ... .. 9 ... ... : ... .. 9 ... ... : ... .. D ... ...
ROW 2A : ... .. D ... ... ... : ... .. D ... ... ... : ... .. . ... : ... .. 6 ... : ... .. . ... ... : ... .. 8 ... ... : ... .. 8 ... ... : ... .. 8 ... ...
ROW 2B : ... .. 0 ... V00 ... : ... .. A ... ... ... : ... .. . ... : ... .. 3 ... : ... .. . ... ... : --- .. . P83 ... : ... .. 7 ... ... : ... .. . ... ...
ROW 2C : ... .. . ... ... ... : ... .. . ... ... ... : ... .. . ... : ... .. 2 ... : ... .. . ... ... : ... .. . ... ... : ... .. . ... ... : ... .. . ... ...
ROW 2D : F-3 00 F P7F V01 ... : ... .. . ... ... ... : ... .. . ... : ... .. 0 ... : ... .. . ... ... : C#3 01 A P80 ... : ... .. 6 ... ... : ... .. . ... ...
ROW 2E : ... .. E ... ... ... : ... .. . ... ... ... : ... .. . ... : B-# 00 8 ... : ... .. . ... ... : ... .. 9 ... ... : ... .. . ... ... : ... .. . ... ...
ROW 2F : ... .. D ... ... ... : ... .. . ... ... ... : ... .. . ... : ... .. 3 ... : ... .. . ... ... : ... .. 8 ... ... : ... .. 5 ... ... : ... .. . ... ...
ROW 30 : ... .. 0 ... V00 ... : ... .. 0 ... V00 ... : --- .. . ... : ... .. . ... : ... .. . ... ... : --- .. . P83 ... : --- .. . ... ... : --- .. . P7F ...
ROW 31 : ... .. . ... ... ... : ... .. . ... ... ... : ... .. . ... : ... .. 0 ... : ... .. . ... ... : ... .. . ... ... : ... .. . ... ... : ... .. . ... ...
ROW 32 : B-2 00 F P7F V01 ... : F-1 00 F P83 V01 ... : E-3 00 . ... : 2-# 00 F ... : ... .. . ... ... : G-2 01 A P80 ... : F-4 01 A ... ... : G-1 01 F P80 ...
ROW 33 : ... .. E ... ... ... : ... .. E ... ... ... : F#2 00 . ... : ... .. C ... : ... .. . ... ... : ... .. 9 ... ... : ... .. 9 ... ... : ... .. D ... ...
ROW 34 : ... .. D ... ... ... : ... .. D ... ... ... : B-1 00 . ... : ... .. 6 ... : ... .. . ... ... : ... .. 8 ... ... : ... .. 8 ... ... : ... .. 8 ... ...
ROW 35 : ... .. 0 ... V00 ... : ... .. A ... ... ... : A#1 00 . ... : ... .. 3 ... : ... .. . ... ... : --- .. . P81 ... : ... .. 7 ... ... : ... .. . ... ...
ROW 36 : ... .. . ... ... ... : ... .. . ... ... ... : F-1 00 . ... : ... .. 2 ... : ... .. . ... ... : ... .. . ... ... : ... .. . ... ... : ... .. . ... ...
ROW 37 : B-2 00 F P7F V01 ... : ... .. . ... ... ... : ... .. . ... : ... .. 0 ... : ... .. . ... ... : G-2 01 A P80 ... : ... .. 6 ... ... : ... .. . ... ...
ROW 38 : ... .. E ... ... ... : ... .. . ... ... ... : ... .. . ... : B-# 00 8 ... : ... .. . ... ... : ... .. 9 ... ... : ... .. . ... ... : ... .. . ... ...
ROW 39 : ... .. D ... ... ... : ... .. . ... ... ... : ... .. . ... : ... .. 3 ... : ... .. . ... ... : ... .. 8 ... ... : ... .. 5 ... ... : ... .. . ... ...
ROW 3A : ... .. 0 ... V00 ... : ... .. . ... ... ... : ... .. . ... : ... .. . ... : ... .. . ... ... : --- .. . P81 ... : --- .. . ... ... : --- .. . P81 ...
ROW 3B : ... .. . ... ... ... : ... .. . ... ... ... : ... .. . ... : ... .. 0 ... : ... .. . ... ... : ... .. . ... ... : ... .. . ... ... : ... .. . ... ...
ROW 3C : G-2 00 F P7F V01 ... : G-1 00 F ... ... ... : F#3 00 . ... : 7-# 00 F ... : ... .. . ... ... : F-4 01 A P80 ... : B-4 01 A ... ... : C#5 01 F P80 ...
ROW 3D : ... .. E ... ... ... : ... .. E ... ... ... : G#2 00 . ... : ... .. C ... : ... .. . ... ... : ... .. 9 ... ... : ... .. 9 ... ... : ... .. D ... ...
ROW 3E : ... .. D ... ... ... : ... .. D ... ... ... : C#2 00 . ... : ... .. A ... : ... .. . ... ... : ... .. 8 ... ... : ... .. 8 ... ... : ... .. 8 ... ...
ROW 3F : ... .. A ... ... ... : ... .. A ... ... ... : C-2 00 . ... : ... .. 8 ... : ... .. . ... ... : ... .. 7 ... ... : ... .. 7 ... ... : ... .. . ... ...
ROW 40 : ... .. . ... ... ... : ... .. . ... ... ... : G-1 00 . ... : ... .. 7 ... : ... .. . ... ... : ... .. . ... ... : ... .. . ... ... : ... .. . ... ...
ROW 41 : ... .. . ... ... ... : ... .. . ... ... ... : ... .. . ... : ... .. 0 ... : ... .. . ... ... : ... .. 6 ... ... : ... .. 6 ... ... : ... .. . ... ...
ROW 42 : ... .. . ... ... ... : ... .. . ... ... ... : ... .. . ... : B-# 00 6 ... : ... .. . ... ... : ... .. . ... ... : ... .. . ... ... : ... .. . ... ...
ROW 43 : ... .. . ... ... ... : ... .. . ... ... ... : ... .. . ... : ... .. 2 ... : ... .. . ... ... : ... .. 5 ... ... : ... .. 5 ... ... : ... .. . ... ...
ROW 44 : ... .. . ... ... ... : ... .. . ... ... ... : ... .. . ... : ... .. . ... : ... .. . ... ... : ... .. . ... ... : ... .. . ... ... : ... .. . ... ...
ROW 45 : ... .. . ... ... ... : ... .. . ... ... ... : ... .. . ... : ... .. 0 ... : ... .. . ... ... : ... .. . ... ... : ... .. . ... ... : ... .. . ... ...
ROW 46 : B-3 00 F ... ... ... : A#0 00 F ... ... ... : A#0 00 . ... : ... .. . ... : ... .. . ... ... : D-3 01 A ... ... : F-4 01 A ... ... : G-3 01 F ... ...
ROW 47 : ... .. E ... ... ... : ... .. E ... ... ... : ... .. . ... : ... .. A ... : ... .. . ... ... : ... .. 9 ... ... : ... .. 9 ... ... : ... .. D ... ...
ROW 48 : ... .. D ... ... ... : ... .. D ... ... ... : ... .. . ... : ... .. 4 ... : ... .. . ... ... : ... .. 8 ... ... : ... .. 8 ... ... : ... .. 8 ... ...
ROW 49 : ... .. 0 ... V00 ... : ... .. A ... ... ... : ... .. . ... : ... .. . ... : ... .. . ... ... : --- .. . P82 ... : ... .. 7 ... ... : ... .. . ... ...
ROW 4A : ... .. . ... ... ... : ... .. . ... ... ... : ... .. . ... : ... .. 0 ... : ... .. . ... ... : ... .. . ... ... : ... .. . ... ... : ... .. . ... ...
ROW 4B : B-3 00 F P7F V01 ... : ... .. . ... ... ... : ... .. . ... : ... .. . ... : ... .. . ... ... : D-3 01 A P80 ... : ... .. 6 ... ... : ... .. . ... ...
ROW 4C : ... .. E ... ... ... : ... .. . ... ... ... : ... .. . ... : ... .. 8 ... : ... .. . ... ... : ... .. 9 ... ... : ... .. . ... ... : ... .. . ... ...
ROW 4D : ... .. D ... ... ... : ... .. . ... ... ... : ... .. . ... : ... .. 3 ... : ... .. . ... ... : ... .. 8 ... ... : ... .. 5 ... ... : ... .. . ... ...
ROW 4E : ... .. 0 ... V00 ... : ... .. 0 ... V00 ... : --- .. . ... : ... .. . ... : ... .. . ... ... : --- .. . P82 ... : --- .. . ... ... : --- .. . P7F ...
ROW 4F : ... .. . ... ... ... : ... .. . ... ... ... : ... .. . ... : ... .. 0 ... : ... .. . ... ... : ... .. . ... ... : ... .. . ... ... : ... .. . ... ...
ROW 50 : F-3 00 F P7F V01 ... : F-3 00 F P83 V01 ... : E-5 00 . ... : 9-# 00 D ... : ... .. . ... ... : C#3 01 A P80 ... : F-4 01 A ... ... : G-1 01 F P80 ...
ROW 51 : ... .. E ... ... ... : ... .. E ... ... ... : F#4 00 . ... : ... .. . ... : ... .. . ... ... : ... .. 9 ... ... : ... .. 9 ... ... : ... .. D ... ...
ROW 52 : ... .. D ... ... ... : ... .. D ... ... ... : B-3 00 . ... : ... .. . ... : ... .. . ... ... : ... .. 8 ... ... : ... .. 8 ... ... : ... .. 8 ... ...
ROW 53 : ... .. 0 ... V00 ... : ... .. A ... ... ... : A#3 00 . ... : ... .. B ... : ... .. . ... ... : --- .. . P83 ... : ... .. 7 ... ... : ... .. . ... ...
ROW 54 : ... .. . ... ... ... : ... .. . ... ... ... : F-3 00 . ... : ... .. . ... : ... .. . ... ... : ... .. . ... ... : ... .. . ... ... : ... .. . ... ...
ROW 55 : F-3 00 F P7F V01 ... : E-3 00 A P76 ... ... : ... .. . ... : ... .. A ... : ... .. . ... ... : C#3 01 A P80 ... : ... .. 6 ... ... : ... .. . ... ...
ROW 56 : ... .. E ... ... ... : D-3 00 A P80 ... ... : D#3 00 . P88 : ... .. . ... : ... .. . ... ... : ... .. 9 ... ... : ... .. . ... ... : ... .. . ... ...
ROW 57 : ... .. D ... ... ... : C#3 00 A P77 ... ... : D-3 00 . P7D : ... .. . ... : ... .. . ... ... : ... .. 8 ... ... : ... .. 5 ... ... : ... .. . ... ...
ROW 58 : ... .. 0 ... V00 ... : B-2 00 A P88 ... ... : C-3 00 . P8C : ... .. 9 ... : ... .. . ... ... : --- .. . P83 ... : --- .. . ... ... : --- .. . P81 ...
ROW 59 : ... .. . ... ... ... : A#2 00 A P83 ... ... : B-2 00 . P85 : ... .. . ... : ... .. . ... ... : ... .. . ... ... : ... .. . ... ... : ... .. . ... ...
ROW 5A : G-2 00 F P7F V01 ... : G-2 00 F ... ... ... : F#4 00 . P80 : ... .. 7 ... : ... .. . ... ... : F-3 01 A P80 ... : B-3 01 A ... ... : G-4 01 F P80 ...
ROW 5B : ... .. E ... ... ... : ... .. E ... ... ... : G#3 00 . ... : ... .. . ... : ... .. . ... ... : ... .. 9 ... ... : ... .. 9 ... ... : ... .. D ... ...
ROW 5C : ... .. D ... ... ... : ... .. D ... ... ... : C#3 00 . ... : ... .. . ... : ... .. . ... ... : ... .. 8 ... ... : ... .. 8 ... ... : ... .. 8 ... ...
ROW 5D : ... .. A ... ... ... : ... .. 0 ... V00 ... : --- .. . ... : ... .. 6 ... : ... .. . ... ... : ... .. 7 ... ... : ... .. 7 ... ... : ... .. . ... ...
ROW 5E : ... .. . ... ... ... : ... .. . ... ... ... : ... .. . ... : ... .. . ... : ... .. . ... ... : ... .. . ... ... : ... .. . ... ... : ... .. . ... ...
ROW 5F : ... .. . ... ... ... : G-2 00 F P83 V01 ... : G-2 00 . ... : ... .. 5 ... : ... .. . ... ... : ... .. 6 ... ... : ... .. 6 ... ... : ... .. . ... ...
ROW 60 : ... .. . ... ... ... : ... .. E ... ... ... : ... .. . ... : ... .. . ... : ... .. . ... ... : ... .. . ... ... : ... .. . ... ... : ... .. . ... ...
ROW 61 : ... .. . ... ... ... : ... .. D ... ... ... : ... .. . ... : ... .. . ... : ... .. . ... ... : ... .. 5 ... ... : ... .. 5 ... ... : ... .. . ... ...
ROW 62 : ... .. . ... ... ... : ... .. 0 ... V00 ... : --- .. . ... : ... .. 4 ... : ... .. . ... ... : ... .. . ... ... : ... .. . ... ... : ... .. . ... ...
ROW 63 : ... .. . ... ... ... : ... .. . ... ... ... : ... .. . ... : ... .. . ... : ... .. . ... ... : ... .. . ... ... : ... .. . ... ... : ... .. . ... ...
ROW 64 : F-3 00 F ... ... ... : B-2 00 F P83 V01 ... : B-2 00 . ... : 7-# 00 F ... : ... .. . ... ... : F-2 01 A ... ... : F-4 01 A ... ... : F-3 01 F ... ...
ROW 65 : ... .. E ... ... ... : ... .. E ... ... ... : ... .. . ... : ... .. C ... : ... .. . ... ... : ... .. 9 ... ... : ... .. 9 ... ... : ... .. D ... ...
ROW 66 : ... .. D ... ... ... : ... .. D ... ... ... : ... .. . ... : ... .. A ... : ... .. . ... ... : ... .. 8 ... ... : ... .. 8 ... ... : ... .. 8 ... ...
ROW 67 : ... .. 0 ... V00 ... : ... .. A ... ... ... : ... .. . ... : ... .. 8 ... : ... .. . ... ... : --- .. . P7E ... : ... .. 7 ... ... : ... .. . ... ...
ROW 68 : ... .. . ... ... ... : ... .. . ... ... ... : ... .. . ... : ... .. 7 ... : ... .. . ... ... : ... .. . ... ... : ... .. . ... ... : ... .. . ... ...
ROW 69 : F-3 00 F P7F V01 ... : ... .. . ... ... ... : ... .. . ... : ... .. 0 ... : ... .. . ... ... : F-2 01 A P80 ... : ... .. 6 ... ... : ... .. . ... ...
ROW 6A : ... .. E ... ... ... : ... .. . ... ... ... : ... .. . ... : B-# 00 6 ... : ... .. . ... ... : ... .. 9 ... ... : ... .. . ... ... : ... .. . ... ...
ROW 6B : ... .. D ... ... ... : ... .. . ... ... ... : ... .. . ... : ... .. 2 ... : ... .. . ... ... : ... .. 8 ... ... : ... .. 5 ... ... : ... .. . ... ...
ROW 6C : ... .. 0 ... V00 ... : ... .. . ... ... ... : ... .. . ... : ... .. . ... : ... .. . ... ... : --- .. . P7E ... : --- .. . ... ... : --- .. . P7F ...
ROW 6D : ... .. . ... ... ... : ... .. . ... ... ... : ... .. . ... : ... .. 0 ... : ... .. . ... ... : ... .. . ... ... : ... .. . ... ... : ... .. . ... ...
ROW 6E : B-2 00 F P7F V01 ... : F-2 00 F ... ... ... : E-4 00 . ... : 9-# 00 D ... : ... .. . ... ... : G-2 01 A P80 ... : F-4 01 A ... ... : C#3 01 F P80 ...
ROW 6F : ... .. E ... ... ... : ... .. E ... ... ... : F#3 00 . ... : ... .. . ... : ... .. . ... ... : ... .. 9 ... ... : ... .. 9 ... ... : ... .. D ... ...
ROW 70 : ... .. D ... ... ... : ... .. D ... ... ... : B-2 00 . ... : ... .. . ... : ... .. . ... ... : ... .. 8 ... ... : ... .. 8 ... ... : ... .. 8 ... ...
ROW 71 : ... .. 0 ... V00 ... : ... .. A ... ... ... : A#2 00 . ... : ... .. B ... : ... .. . ... ... : --- .. . P81 ... : ... .. 7 ... ... : ... .. . ... ...
ROW 72 : ... .. . ... ... ... : ... .. . ... ... ... : F-2 00 . ... : ... .. . ... : ... .. . ... ... : ... .. . ... ... : ... .. . ... ... : ... .. . ... ...
ROW 73 : B-2 00 F P7F V01 ... : ... .. . ... ... ... : ... .. . ... : ... .. A ... : ... .. . ... ... : G-2 01 A P80 ... : ... .. 6 ... ... : ... .. . ... ...
ROW 74 : ... .. E ... ... ... : ... .. . ... ... ... : ... .. . ... : ... .. . ... : ... .. . ... ... : ... .. 9 ... ... : ... .. . ... ... : ... .. . ... ...
ROW 75 : ... .. D ... ... ... : ... .. . ... ... ... : ... .. . ... : ... .. . ... : ... .. . ... ... : ... .. 8 ... ... : ... .. 5 ... ... : ... .. . ... ...
ROW 76 : ... .. 0 ... V00 ... : ... .. 0 ... V00 ... : --- .. . ... : ... .. 9 ... : ... .. . ... ... : --- .. . P81 ... : --- .. . ... ... : --- .. . ... ...
ROW 77 : ... .. . ... ... ... : ... .. . ... ... ... : ... .. . ... : ... .. . ... : ... .. . ... ... : ... .. . ... ... : ... .. . ... ... : ... .. . ... ...
ROW 78 : F-2 00 F P7F V01 ... : G-1 00 F P83 V01 ... : F#3 00 . ... : ... .. 7 ... : ... .. . ... ... : B-2 01 A P80 ... : D#4 01 A ... ... : B-2 01 F ... ...
ROW 79 : ... .. E ... ... ... : ... .. E ... ... ... : G#2 00 . ... : ... .. . ... : ... .. . ... ... : ... .. 9 ... ... : ... .. 9 ... ... : ... .. D ... ...
ROW 7A : ... .. D ... ... ... : ... .. D ... ... ... : C#2 00 . ... : ... .. . ... : ... .. . ... ... : ... .. 8 ... ... : ... .. 8 ... ... : ... .. 8 ... ...
ROW 7B : ... .. A ... ... ... : ... .. 0 ... V00 ... : --- .. . ... : ... .. 6 ... : ... .. . ... ... : ... .. 7 ... ... : ... .. 7 ... ... : ... .. . ... ...
ROW 7C : ... .. . ... ... ... : ... .. . ... ... ... : ... .. . ... : ... .. . ... : ... .. . ... ... : ... .. . ... ... : ... .. . ... ... : ... .. . ... ...
ROW 7D : ... .. F ... ... ... : G-1 00 F P83 V01 ... : G-1 00 . ... : ... .. 5 ... : ... .. . ... ... : ... .. A ... ... : ... .. 6 ... ... : C#3 01 F ... ...
ROW 7E : ... .. E ... ... ... : ... .. E ... ... ... : ... .. . ... : ... .. . ... : ... .. . ... ... : ... .. 9 ... ... : ... .. . ... ... : ... .. D ... ...
ROW 7F : ... .. D ... ... ... : ... .. D ... ... ... : ... .. . ... : ... .. . ... : ... .. . ... ... : ... .. 8 ... ... : ... .. 5 ... ... : ... .. 8 ... ...
ROW 80 : ... .. 0 ... V00 ... : ... .. 0 ... V00 ... : --- .. . ... : ... .. 4 ... : ... .. . ... ... : ... .. 7 ... ... : ... .. . ... ... : ... .. 4 ... ...
ROW 81 : ... .. . ... ... ... : ... .. . ... ... ... : ... .. . ... : ... .. . ... : ... .. . ... ... : ... .. . ... ... : ... .. . ... ... : ... .. . ... ...
ROW 82 : G-2 00 F P7F V01 ... : G#1 00 F P83 V01 ... : G#1 00 . ... : ... .. 0 ... : ... .. . ... ... : C#3 01 A ... ... : B-3 01 A ... ... : F-3 01 F ... ...
ROW 83 : ... .. E ... ... ... : ... .. E ... ... ... : ... .. . ... : B-# 00 8 ... : ... .. . ... ... : ... .. 9 ... ... : ... .. 9 ... ... : ... .. D ... ...
ROW 84 : ... .. D ... ... ... : ... .. D ... ... ... : ... .. . ... : ... .. 3 ... : ... .. . ... ... : ... .. 8 ... ... : ... .. 8 ... ... : ... .. 8 ... ...
ROW 85 : ... .. 0 ... V00 ... : ... .. A ... ... ... : ... .. . ... : ... .. . ... : ... .. . ... ... : ... .. 7 ... ... : ... .. 7 ... ... : ... .. 4 ... ...
ROW 86 : ... .. . ... ... ... : ... .. . ... ... ... : ... .. . ... : ... .. 0 ... : ... .. . ... ... : ... .. . ... ... : ... .. . ... ... : ... .. . ... ...
ROW 87 : G-2 00 F P7F V01 ... : ... .. . ... ... ... : ... .. . ... : ... .. . ... : ... .. . ... ... : ... .. A ... ... : ... .. 6 ... ... : G-3 01 F ... ...
ROW 88 : ... .. E ... ... ... : ... .. . ... ... ... : ... .. . ... : ... .. 6 ... : ... .. . ... ... : ... .. 9 ... ... : ... .. . ... ... : ... .. D ... ...
ROW 89 : ... .. D ... ... ... : ... .. . ... ... ... : ... .. . ... : ... .. 2 ... : ... .. . ... ... : ... .. 8 ... ... : ... .. 5 ... ... : ... .. 8 ... ...
ROW 8A : ... .. 0 ... V00 ... : ... .. . ... ... ... : ... .. . ... : ... .. . ... : ... .. . ... ... : ... .. 7 ... ... : ... .. . ... ... : ... .. 4 ... ...
ROW 8B : ... .. . ... ... ... : ... .. . ... ... ... : ... .. . ... : ... .. 0 ... : ... .. . ... ... : ... .. . ... ... : ... .. . ... ... : ... .. . ... ...
ROW 8C : B-2 00 F P7F V01 ... : G-3 00 F ... ... ... : F#5 00 . ... : 7-# 00 F ... : ... .. . ... ... : D-3 01 A ... ... : F-4 01 A ... ... : A#3 01 F ... ...
ROW 8D : ... .. E ... ... ... : ... .. E ... ... ... : G#4 00 . ... : ... .. C ... : ... .. . ... ... : ... .. 9 ... ... : ... .. 9 ... ... : ... .. D ... ...
ROW 8E : ... .. D ... ... ... : ... .. D ... ... ... : C#4 00 . ... : ... .. A ... : ... .. . ... ... : ... .. 8 ... ... : ... .. 8 ... ... : ... .. 8 ... ...
ROW 8F : ... .. 0 ... V00 ... : ... .. A ... ... ... : C-4 00 . ... : ... .. 0 ... : ... .. . ... ... : --- .. . P82 ... : ... .. 7 ... ... : ... .. 4 ... ...
ROW 90 : ... .. . ... ... ... : ... .. . ... ... ... : G-3 00 . ... : ... .. . ... : ... .. . ... ... : ... .. . ... ... : ... .. . ... ... : ... .. . ... ...
ROW 91 : B-2 00 F P7F V01 ... : ... .. . ... ... ... : ... .. . ... : 6-# 00 F ... : ... .. . ... ... : D-3 01 A P80 ... : ... .. 6 ... ... : B-3 01 F ... ...
ROW 92 : ... .. E ... ... ... : ... .. . ... ... ... : ... .. . ... : ... .. C ... : ... .. . ... ... : ... .. 9 ... ... : ... .. . ... ... : ... .. D ... ...
ROW 93 : ... .. D ... ... ... : ... .. . ... ... ... : ... .. . ... : ... .. A ... : ... .. . ... ... : ... .. 8 ... ... : ... .. 5 ... ... : ... .. 8 ... ...
ROW 94 : ... .. 0 ... V00 ... : ... .. . ... ... ... : ... .. . ... : ... .. 0 ... : ... .. . ... ... : --- .. . P82 ... : ... .. . ... ... : ... .. 4 ... ...
ROW 95 : ... .. . ... ... ... : ... .. . ... ... ... : ... .. . ... : ... .. . ... : ... .. . ... ... : ... .. . ... ... : ... .. . ... ... : ... .. . ... ...
ROW 96 : C#3 00 F P7F V01 ... : B-2 00 F ... ... ... : B-2 00 . ... : 5-# 00 F ... : ... .. . ... ... : E-3 01 A P80 ... : G-4 01 A ... ... : C#4 01 F ... ...
ROW 97 : ... .. E ... ... ... : ... .. E ... ... ... : ... .. . ... : ... .. C ... : ... .. . ... ... : ... .. 9 ... ... : ... .. 9 ... ... : ... .. D ... ...
ROW 98 : ... .. D ... ... ... : ... .. D ... ... ... : ... .. . ... : ... .. A ... : ... .. . ... ... : ... .. 8 ... ... : ... .. 8 ... ... : ... .. 8 ... ...
ROW 99 : ... .. 0 ... V00 ... : ... .. A ... ... ... : ... .. . ... : ... .. 0 ... : ... .. . ... ... : --- .. . P82 ... : ... .. 7 ... ... : ... .. 4 ... ...
ROW 9A : ... .. . ... ... ... : ... .. . ... ... ... : ... .. . ... : ... .. . ... : ... .. . ... ... : ... .. . ... ... : ... .. . ... ... : ... .. . ... ...
ROW 9B : C#3 00 F P7F V01 ... : ... .. . ... ... ... : ... .. . ... : 4-# 00 F ... : ... .. . ... ... : E-3 01 A P80 ... : ... .. 6 ... ... : D-4 01 F ... ...
ROW 9C : ... .. E ... ... ... : ... .. . ... ... ... : ... .. . ... : ... .. C ... : ... .. . ... ... : ... .. 9 ... ... : ... .. . ... ... : ... .. D ... ...
ROW 9D : ... .. D ... ... ... : ... .. . ... ... ... : ... .. . ... : ... .. A ... : ... .. . ... ... : ... .. 8 ... ... : ... .. 5 ... ... : ... .. 8 ... ...
ROW 9E : ... .. 0 ... V00 ... : ... .. 0 ... V00 ... : --- .. . ... : ... .. 8 ... : ... .. . ... ... : --- .. . P82 ... : ... .. . ... ... : ... .. 4 ... ...
ROW 9F : ... .. . ... ... ... : ... .. . ... ... ... : ... .. . ... : ... .. 7 ... : ... .. . ... ... : ... .. . ... ... : ... .. . ... ... : ... .. . ... ...
ROW A0 : E-2 00 D P80 V01 ... : E-2 00 F P83 V01 ... : D#4 00 . ... : 9-# 00 D ... : ... .. . ... ... : A#3 01 A P81 ... : G#3 01 A P7F ... : E-4 01 F ... ...
ROW A1 : ... .. B ... ... ... : ... .. E ... ... ... : F-3 00 . ... : ... .. . ... : ... .. . ... ... : ... .. 9 ... ... : ... .. 9 ... ... : ... .. D ... ...
ROW A2 : ... .. . ... ... ... : ... .. D ... ... ... : A#2 00 . ... : ... .. . ... : ... .. . ... ... : ... .. 8 ... ... : ... .. 8 ... ... : ... .. 8 ... ...
ROW A3 : ... .. A ... ... ... : ... .. A ... ... ... : A-2 00 . ... : ... .. B ... : ... .. . ... ... : ... .. 7 ... ... : ... .. 7 ... ... : ... .. . ... ...
ROW A4 : ... .. 8 ... ... ... : ... .. . ... ... ... : E-2 00 . ... : ... .. . ... : ... .. . ... ... : ... .. . ... ... : ... .. . ... ... : ... .. . ... ...
ROW A5 : D-2 00 D ... ... ... : ... .. . ... ... ... : ... .. . ... : ... .. A ... : ... .. . ... ... : ... .. 6 ... ... : ... .. 6 ... ... : ... .. . ... ...
ROW A6 : ... .. B ... ... ... : ... .. . ... ... ... : ... .. . ... : ... .. . ... : ... .. . ... ... : ... .. . ... ... : ... .. . ... ... : ... .. . ... ...
ROW A7 : ... .. . ... ... ... : ... .. . ... ... ... : ... .. . ... : ... .. . ... : ... .. . ... ... : ... .. 5 ... ... : ... .. 5 ... ... : ... .. . ... ...
ROW A8 : ... .. A ... ... ... : ... .. . ... ... ... : ... .. . ... : ... .. 9 ... : ... .. . ... ... : ... .. . ... ... : ... .. . ... ... : ... .. . ... ...
ROW A9 : ... .. 8 ... ... ... : ... .. . ... ... ... : ... .. . ... : ... .. . ... : ... .. . ... ... : ... .. . ... ... : ... .. . ... ... : ... .. . ... ...
ROW AA : E-2 00 D ... ... ... : E-3 00 F ... ... ... : E-3 00 . ... : ... .. 7 ... : ... .. . ... ... : ... .. . ... ... : ... .. . ... ... : ... .. . ... ...
ROW AB : ... .. B ... ... ... : ... .. E ... ... ... : ... .. . ... : ... .. . ... : ... .. . ... ... : ... .. . ... ... : ... .. . ... ... : ... .. . ... ...
ROW AC : ... .. . ... ... ... : ... .. D ... ... ... : ... .. . ... : ... .. . ... : ... .. . ... ... : ... .. . ... ... : ... .. . ... ... : ... .. . ... ...
ROW AD : ... .. A ... ... ... : ... .. 0 ... V00 ... : --- .. . ... : ... .. 6 ... : ... .. . ... ... : ... .. . ... ... : ... .. . ... ... : ... .. . ... ...
ROW AE : ... .. 8 ... ... ... : ... .. . ... ... ... : ... .. . ... : ... .. . ... : ... .. . ... ... : ... .. . ... ... : ... .. . ... ... : ... .. . ... ...
ROW AF : F#2 00 D ... ... ... : E-3 00 F P83 V01 ... : E-3 00 . ... : ... .. 5 ... : ... .. . ... ... : ... .. . ... ... : ... .. . P83 ... : ... .. . P84 ...
ROW B0 : ... .. B ... ... ... : ... .. E ... ... ... : ... .. . ... : ... .. . ... : ... .. . ... ... : ... .. . ... ... : ... .. . P85 ... : F-4 01 8 P7B ...
ROW B1 : ... .. . ... ... ... : ... .. D ... ... ... : ... .. . ... : ... .. . ... : ... .. . ... ... : ... .. . ... ... : ... .. . P84 ... : E-4 01 8 P85 ...
ROW B2 : ... .. A ... ... ... : ... .. 0 ... V00 ... : --- .. . ... : ... .. 4 ... : ... .. . ... ... : ... .. . ... ... : ... .. . P81 ... : ... .. . P82 ...
ROW B3 : ... .. 8 ... ... ... : ... .. . ... ... ... : ... .. . ... : ... .. . ... : ... .. . ... ... : ... .. . ... ... : ... .. . P7D ... : ... .. . P7E ...
ROW B4 : G#2 00 D ... ... ... : E-2 00 F P83 V01 ... : E-2 00 . ... : 7-# 00 F ... : ... .. . ... ... : ... .. . ... ... : ... .. . P7A ... : ... .. . P7B ...
ROW B5 : ... .. B ... ... ... : ... .. E ... ... ... : ... .. . ... : ... .. C ... : ... .. . ... ... : ... .. . ... ... : ... .. . P79 ... : D#4 01 8 P85 ...
ROW B6 : ... .. . ... ... ... : ... .. D ... ... ... : ... .. . ... : ... .. A ... : ... .. . ... ... : ... .. . ... ... : ... .. . P7B ... : E-4 01 8 P7C ...
ROW B7 : ... .. A ... ... ... : ... .. A ... ... ... : ... .. . ... : ... .. 8 ... : ... .. . ... ... : ... .. . ... ... : ... .. . P7F ... : ... .. . P80 ...
ROW B8 : ... .. 8 ... ... ... : ... .. . ... ... ... : ... .. . ... : ... .. 7 ... : ... .. . ... ... : ... .. . ... ... : ... .. . P82 ... : ... .. . P83 ...
ROW B9 : A#2 00 D ... ... ... : ... .. . ... ... ... : ... .. . ... : ... .. 0 ... : ... .. . ... ... : ... .. . ... ... : ... .. . P85 ... : F-4 01 8 P7B ...
ROW BA : ... .. B ... ... ... : ... .. . ... ... ... : ... .. . ... : B-# 00 6 ... : ... .. . ... ... : ... .. . ... ... : ... .. . ... ... : ... .. . ... ...
ROW BB : ... .. . ... ... ... : ... .. . ... ... ... : ... .. . ... : ... .. 2 ... : ... .. . ... ... : ... .. . ... ... : ... .. . P81 ... : E-4 01 8 P82 ...
ROW BC : ... .. A ... ... ... : ... .. 0 ... V00 ... : --- .. . ... : ... .. . ... : ... .. . ... ... : ... .. . ... ... : ... .. . P7E ... : ... .. . P7F ...
ROW BD : ... .. 8 ... ... ... : ... .. . ... ... ... : ... .. . ... : ... .. 0 ... : ... .. . ... ... : ... .. . ... ... : ... .. . P7A ... : ... .. . P7B ...
ROW BE : C-3 00 D ... ... ... : D-3 00 F P83 V01 ... : D-3 00 . ... : ... .. . ... : ... .. . ... ... : G#3 01 A ... ... : F#3 01 A P7F ... : D-4 01 F P80 ...
ROW BF : ... .. B ... ... ... : ... .. E ... ... ... : ... .. . ... : ... .. A ... : ... .. . ... ... : ... .. 9 ... ... : ... .. 9 ... ... : ... .. D ... ...
ROW C0 : ... .. . ... ... ... : ... .. D ... ... ... : ... .. . ... : ... .. 4 ... : ... .. . ... ... : ... .. 8 ... ... : ... .. 8 ... ... : ... .. 8 ... ...
ROW C1 : ... .. A ... ... ... : ... .. A ... ... ... : ... .. . ... : ... .. . ... : ... .. . ... ... : ... .. 7 ... ... : ... .. 7 ... ... : ... .. . ... ...
ROW C2 : ... .. 8 ... ... ... : ... .. . ... ... ... : ... .. . ... : ... .. 0 ... : ... .. . ... ... : ... .. . ... ... : ... .. . ... ... : ... .. . ... ...
ROW C3 : D-3 00 D ... ... ... : ... .. . ... ... ... : ... .. . ... : ... .. . ... : ... .. . ... ... : ... .. 6 ... ... : ... .. 6 ... ... : ... .. . ... ...
ROW C4 : ... .. B ... ... ... : ... .. . ... ... ... : ... .. . ... : ... .. 8 ... : ... .. . ... ... : ... .. . ... ... : ... .. . ... ... : ... .. . ... ...
ROW C5 : ... .. . ... ... ... : ... .. . ... ... ... : ... .. . ... : ... .. 3 ... : ... .. . ... ... : ... .. 5 ... ... : ... .. 5 ... ... : ... .. . ... ...
ROW C6 : ... .. A ... ... ... : ... .. 0 ... V00 ... : --- .. . ... : ... .. . ... : ... .. . ... ... : ... .. . ... ... : ... .. . ... ... : ... .. . ... ...
ROW C7 : ... .. 8 ... ... ... : ... .. . ... ... ... : ... .. . ... : ... .. 0 ... : ... .. . ... ... : ... .. . ... ... : ... .. . ... ... : ... .. . ... ...
ROW C8 : E-2 00 D ... ... ... : C-3 00 F P83 V01 ... : B-4 00 . ... : 2-# 00 F ... : ... .. . ... ... : A#3 01 A ... ... : G#3 01 A ... ... : E-4 01 F ... ...
ROW C9 : ... .. B ... ... ... : ... .. E ... ... ... : C#4 00 . ... : ... .. C ... : ... .. . ... ... : ... .. 9 ... ... : ... .. 9 ... ... : ... .. D ... ...
ROW CA : ... .. . ... ... ... : ... .. D ... ... ... : F#3 00 . ... : ... .. 6 ... : ... .. . ... ... : ... .. 8 ... ... : ... .. 8 ... ... : ... .. 8 ... ...
ROW CB : ... .. A ... ... ... : ... .. A ... ... ... : F-3 00 . ... : ... .. 3 ... : ... .. . ... ... : ... .. 7 ... ... : ... .. 7 ... ... : ... .. . ... ...
ROW CC : ... .. 8 ... ... ... : ... .. . ... ... ... : C-3 00 . ... : ... .. 2 ... : ... .. . ... ... : ... .. . ... ... : ... .. . ... ... : ... .. . ... ...
ROW CD : D-2 00 D ... ... ... : ... .. . ... ... ... : ... .. . ... : ... .. 0 ... : ... .. . ... ... : ... .. 6 ... ... : ... .. 6 ... ... : ... .. . ... ...
ROW CE : ... .. B ... ... ... : ... .. . ... ... ... : ... .. . ... : B-# 00 8 ... : ... .. . ... ... : ... .. . ... ... : ... .. . ... ... : ... .. . ... ...
ROW CF : ... .. . ... ... ... : ... .. . ... ... ... : ... .. . ... : ... .. 3 ... : ... .. . ... ... : ... .. 5 ... ... : ... .. 5 ... ... : ... .. . ... ...
ROW D0 : ... .. A ... ... ... : ... .. . ... ... ... : ... .. . ... : ... .. . ... : ... .. . ... ... : ... .. . ... ... : ... .. . ... ... : ... .. . ... ...
ROW D1 : ... .. 8 ... ... ... : ... .. . ... ... ... : ... .. . ... : ... .. 0 ... : ... .. . ... ... : ... .. . ... ... : ... .. . ... ... : ... .. . ... ...
ROW D2 : E-2 00 D ... ... ... : F#2 00 F ... ... ... : F-4 00 . ... : 2-# 00 F ... : ... .. . ... ... : G#3 01 A ... ... : F#3 01 A ... ... : D-4 01 F ... ...
ROW D3 : ... .. B ... ... ... : ... .. E ... ... ... : G-3 00 . ... : ... .. C ... : ... .. . ... ... : ... .. 9 ... ... : ... .. 9 ... ... : ... .. D ... ...
ROW D4 : ... .. . ... ... ... : ... .. D ... ... ... : C-3 00 . ... : ... .. 6 ... : ... .. . ... ... : ... .. 8 ... ... : ... .. 8 ... ... : ... .. 8 ... ...
ROW D5 : ... .. A ... ... ... : ... .. A ... ... ... : B-2 00 . ... : ... .. 3 ... : ... .. . ... ... : ... .. 7 ... ... : ... .. 7 ... ... : ... .. . ... ...
ROW D6 : ... .. 8 ... ... ... : ... .. . ... ... ... : F#2 00 . ... : ... .. 2 ... : ... .. . ... ... : ... .. . ... ... : ... .. . ... ... : ... .. . ... ...
ROW D7 : F#2 00 D ... ... ... : ... .. . ... ... ... : ... .. . ... : ... .. 0 ... : ... .. . ... ... : ... .. 6 ... ... : ... .. 6 ... ... : ... .. . ... ...
ROW D8 : ... .. B ... ... ... : ... .. . ... ... ... : ... .. . ... : B-# 00 8 ... : ... .. . ... ... : ... .. . ... ... : ... .. . ... ... : ... .. . ... ...
ROW D9 : ... .. . ... ... ... : ... .. . ... ... ... : ... .. . ... : ... .. 3 ... : ... .. . ... ... : ... .. 5 ... ... : ... .. 5 ... ... : ... .. . ... ...
ROW DA : ... .. A ... ... ... : ... .. . ... ... ... : ... .. . ... : ... .. . ... : ... .. . ... ... : ... .. . ... ... : ... .. . ... ... : ... .. . ... ...
ROW DB : ... .. 8 ... ... ... : ... .. . ... ... ... : ... .. . ... : ... .. 0 ... : ... .. . ... ... : ... .. . ... ... : ... .. . ... ... : ... .. . ... ...
ROW DC : G#2 00 D ... ... ... : G#2 00 F ... ... ... : G#2 00 . ... : 7-# 00 F ... : ... .. . ... ... : A#3 01 A ... ... : G#3 01 A ... ... : E-4 01 F ... ...
ROW DD : ... .. B ... ... ... : ... .. E ... ... ... : ... .. . ... : ... .. C ... : ... .. . ... ... : ... .. 9 ... ... : ... .. 9 ... ... : ... .. D ... ...
ROW DE : ... .. . ... ... ... : ... .. D ... ... ... : ... .. . ... : ... .. A ... : ... .. . ... ... : ... .. 8 ... ... : ... .. 8 ... ... : ... .. 8 ... ...
ROW DF : ... .. A ... ... ... : ... .. A ... ... ... : ... .. . ... : ... .. 8 ... : ... .. . ... ... : ... .. 7 ... ... : ... .. 7 ... ... : ... .. . ... ...
ROW E0 : ... .. 8 ... ... ... : ... .. . ... ... ... : ... .. . ... : ... .. 7 ... : ... .. . ... ... : ... .. . ... ... : ... .. . ... ... : ... .. . ... ...
ROW E1 : A#2 00 D ... ... ... : ... .. . ... ... ... : ... .. . ... : ... .. 0 ... : ... .. . ... ... : ... .. 6 ... ... : ... .. 6 ... ... : ... .. . ... ...
ROW E2 : ... .. B ... ... ... : ... .. . ... ... ... : ... .. . ... : B-# 00 6 ... : ... .. . ... ... : ... .. . ... ... : ... .. . ... ... : ... .. . ... ...
ROW E3 : ... .. . ... ... ... : ... .. . ... ... ... : ... .. . ... : ... .. 2 ... : ... .. . ... ... : ... .. 5 ... ... : ... .. 5 ... ... : ... .. . ... ...
ROW E4 : ... .. A ... ... ... : ... .. 0 ... V00 ... : --- .. . ... : ... .. . ... : ... .. . ... ... : ... .. . ... ... : ... .. . ... ... : ... .. . ... ...
ROW E5 : ... .. 8 ... ... ... : ... .. . ... ... ... : ... .. . ... : ... .. 0 ... : ... .. . ... ... : ... .. . ... ... : ... .. . ... ... : ... .. . ... ...
ROW E6 : C-3 00 D ... ... ... : A#2 00 F P83 V01 ... : A#2 00 . ... : ... .. . ... : ... .. . ... ... : C-4 01 A ... ... : A#3 01 A ... ... : F#4 01 F ... ...
ROW E7 : ... .. B ... ... ... : ... .. E ... ... ... : ... .. . ... : ... .. A ... : ... .. . ... ... : ... .. 9 ... ... : ... .. 9 ... ... : ... .. D ... ...
ROW E8 : ... .. . ... ... ... : ... .. D ... ... ... : ... .. . ... : ... .. 4 ... : ... .. . ... ... : ... .. 8 ... ... : ... .. 8 ... ... : ... .. 8 ... ...
ROW E9 : ... .. A ... ... ... : ... .. A ... ... ... : ... .. . ... : ... .. . ... : ... .. . ... ... : ... .. 7 ... ... : ... .. 7 ... ... : ... .. . ... ...
ROW EA : ... .. 8 ... ... ... : ... .. . ... ... ... : ... .. . ... : ... .. 0 ... : ... .. . ... ... : ... .. . ... ... : ... .. . ... ... : ... .. . ... ...
ROW EB : D-3 00 D ... ... ... : ... .. . ... ... ... : ... .. . ... : ... .. . ... : ... .. . ... ... : ... .. 6 ... ... : ... .. 6 ... ... : ... .. . ... ...
ROW EC : ... .. B ... ... ... : ... .. . ... ... ... : ... .. . ... : ... .. 8 ... : ... .. . ... ... : ... .. . ... ... : ... .. . ... ... : ... .. . ... ...
ROW ED : ... .. . ... ... ... : ... .. . ... ... ... : ... .. . ... : ... .. 3 ... : ... .. . ... ... : ... .. 5 ... ... : ... .. 5 ... ... : ... .. . ... ...
ROW EE : ... .. A ... ... ... : ... .. 0 ... V00 ... : --- .. . ... : ... .. . ... : ... .. . ... ... : ... .. . ... ... : ... .. . ... ... : ... .. . ... ...
ROW EF : ... .. 8 ... ... ... : ... .. . ... ... ... : ... .. . ... : ... .. 0 ... : ... .. . ... ... : ... .. . ... ... : ... .. . ... ... : ... .. . ... ...
ROW F0 : E-2 00 D ... ... ... : D-2 00 F P83 V01 ... : C#4 00 . ... : 2-# 00 F ... : ... .. . ... ... : D-4 01 A ... ... : C-4 01 A ... ... : G#4 01 F ... ...
ROW F1 : ... .. B ... ... ... : ... .. E ... ... ... : D#3 00 . ... : ... .. C ... : ... .. . ... ... : ... .. 9 ... ... : ... .. 9 ... ... : ... .. D ... ...
ROW F2 : ... .. . ... ... ... : ... .. D ... ... ... : G#2 00 . ... : ... .. 6 ... : ... .. . ... ... : ... .. 8 ... ... : ... .. 8 ... ... : ... .. 8 ... ...
ROW F3 : ... .. A ... ... ... : ... .. 0 ... V00 ... : --- .. . ... : ... .. 3 ... : ... .. . ... ... : ... .. 7 ... ... : ... .. 7 ... ... : ... .. . ... ...
ROW F4 : ... .. 8 ... ... ... : ... .. . ... ... ... : ... .. . ... : ... .. 2 ... : ... .. . ... ... : ... .. . ... ... : ... .. . ... ... : ... .. . ... ...
ROW F5 : D-2 00 D ... ... ... : D-2 00 F P83 V01 ... : D-2 00 . ... : ... .. 0 ... : ... .. . ... ... : ... .. 6 ... ... : ... .. 6 ... ... : ... .. . ... ...
ROW F6 : ... .. B ... ... ... : ... .. E ... ... ... : ... .. . ... : B-# 00 8 ... : ... .. . ... ... : ... .. . ... ... : ... .. . ... ... : ... .. . ... ...
ROW F7 : ... .. . ... ... ... : ... .. D ... ... ... : ... .. . ... : ... .. 3 ... : ... .. . ... ... : ... .. 5 ... ... : ... .. 5 ... ... : ... .. . ... ...
ROW F8 : ... .. A ... ... ... : ... .. 0 ... V00 ... : --- .. . ... : ... .. . ... : ... .. . ... ... : ... .. . ... ... : ... .. . ... ... : ... .. . ... ...
ROW F9 : ... .. 8 ... ... ... : ... .. . ... ... ... : ... .. . ... : ... .. 0 ... : ... .. . ... ... : ... .. . ... ... : ... .. . ... ... : ... .. . ... ...
ROW FA : E-2 00 D ... ... ... : D-2 00 F P83 V01 ... : D-2 00 . ... : 2-# 00 F ... : ... .. . ... ... : C-4 01 A ... ... : A#3 01 A ... ... : F#4 01 F ... ...
ROW FB : ... .. B ... ... ... : ... .. E ... ... ... : ... .. . ... : ... .. C ... : ... .. . ... ... : ... .. 9 ... ... : ... .. 9 ... ... : ... .. D ... ...
ROW FC : ... .. . ... ... ... : ... .. D ... ... ... : ... .. . ... : ... .. 6 ... : ... .. . ... ... : ... .. 8 ... ... : ... .. 8 ... ... : ... .. 8 ... ...
ROW FD : ... .. A ... ... ... : ... .. 0 ... V00 ... : --- .. . ... : ... .. 3 ... : ... .. . ... ... : ... .. 7 ... ... : ... .. 7 ... ... : ... .. . ... ...
ROW FE : ... .. 8 ... ... ... : ... .. . ... ... ... : ... .. . ... : ... .. 2 ... : ... .. . ... ... : ... .. . ... ... : ... .. . ... ... : ... .. . ... ...
ROW FF : F#2 00 D ... ... ... : D-2 00 F P83 V01 ... : D-2 00 . ... : ... .. 0 ... : ... .. . ... ... : ... .. 6 ... ... : ... .. 6 ... ... : ... .. . ... ...

PATTERN 06
ROW 00 : ... .. B ... ... ... : ... .. E ... ... ... : ... .. . ... : B-# 00 8 ... : ... .. . ... ... : ... .. . ... ... : ... .. . ... ... : ... .. . ... ...
ROW 01 : ... .. . ... ... ... : ... .. D ... ... ... : ... .. . ... : ... .. 3 ... : ... .. . ... ... : ... .. 5 ... ... : ... .. 5 ... ... : ... .. . ... ...
ROW 02 : ... .. A ... ... ... : ... .. 0 ... V00 ... : --- .. . ... : ... .. . ... : ... .. . ... ... : ... .. . ... ... : ... .. . ... ... : ... .. . ... ...
ROW 03 : ... .. 8 ... ... ... : ... .. . ... ... ... : ... .. . ... : ... .. 0 ... : ... .. . ... ... : ... .. . ... ... : ... .. . ... ... : ... .. . ... ...
ROW 04 : G#2 00 D ... ... ... : E-2 00 F P83 V01 ... : E-2 00 . ... : 7-# 00 F ... : ... .. . ... ... : D-4 01 A ... ... : C-4 01 A ... ... : G#4 01 F ... ...
ROW 05 : ... .. B ... ... ... : ... .. E ... ... ... : ... .. . ... : ... .. C ... : ... .. . ... ... : ... .. 9 ... ... : ... .. 9 ... ... : ... .. D ... ...
ROW 06 : ... .. . ... ... ... : ... .. D ... ... ... : ... .. . ... : ... .. A ... : ... .. . ... ... : ... .. 8 ... ... : ... .. 8 ... ... : ... .. 8 ... ...
ROW 07 : ... .. A ... ... ... : ... .. A ... ... ... : ... .. . ... : ... .. 8 ... : ... .. . ... ... : ... .. 7 ... ... : ... .. 7 ... ... : ... .. . ... ...
ROW 08 : ... .. 8 ... ... ... : ... .. . ... ... ... : ... .. . ... : ... .. 7 ... : ... .. . ... ... : ... .. . ... ... : ... .. . ... ... : ... .. . ... ...
ROW 09 : A#2 00 D ... ... ... : ... .. . ... ... ... : ... .. . ... : ... .. 0 ... : ... .. . ... ... : ... .. 6 ... ... : ... .. 6 ... ... : ... .. . ... ...
ROW 0A : ... .. B ... ... ... : ... .. . ... ... ... : ... .. . ... : B-# 00 6 ... : ... .. . ... ... : ... .. . ... ... : ... .. . ... ... : ... .. . ... ...
ROW 0B : ... .. . ... ... ... : ... .. . ... ... ... : ... .. . ... : ... .. 2 ... : ... .. . ... ... : ... .. 5 ... ... : ... .. 5 ... ... : ... .. . ... ...
ROW 0C : ... .. A ... ... ... : ... .. 0 ... V00 ... : --- .. . ... : ... .. . ... : ... .. . ... ... : ... .. . ... ... : ... .. . ... ... : ... .. . ... ...
ROW 0D : ... .. 8 ... ... ... : ... .. . ... ... ... : ... .. . ... : ... .. 0 ... : ... .. . ... ... : ... .. . ... ... : ... .. . ... ... : ... .. . ... ...
ROW 0E : C-3 00 D ... ... ... : E-3 00 F P83 V01 ... : E-3 00 . ... : ... .. . ... : ... .. . ... ... : E-4 01 A ... ... : D-4 01 A ... ... : A#4 01 F ... ...
ROW 0F : ... .. B ... ... ... : ... .. E ... ... ... : ... .. . ... : ... .. A ... : ... .. . ... ... : ... .. 9 ... ... : ... .. 9 ... ... : ... .. D ... ...
ROW 10 : ... .. . ... ... ... : ... .. D ... ... ... : ... .. . ... : ... .. 4 ... : ... .. . ... ... : ... .. 8 ... ... : ... .. 8 ... ... : ... .. 8 ... ...
ROW 11 : ... .. A ... ... ... : ... .. A ... ... ... : ... .. . ... : ... .. . ... : ... .. . ... ... : ... .. 7 ... ... : ... .. 7 ... ... : ... .. . ... ...
ROW 12 : ... .. 8 ... ... ... : ... .. . ... ... ... : ... .. . ... : ... .. 0 ... : ... .. . ... ... : ... .. . ... ... : ... .. . ... ... : ... .. . ... ...
ROW 13 : D-3 00 D ... ... ... : ... .. . ... ... ... : ... .. . ... : ... .. . ... : ... .. . ... ... : ... .. 6 ... ... : ... .. 6 ... ... : ... .. . ... ...
ROW 14 : ... .. B ... ... ... : ... .. . ... ... ... : ... .. . ... : ... .. 8 ... : ... .. . ... ... : ... .. . ... ... : ... .. . ... ... : ... .. . ... ...
ROW 15 : ... .. . ... ... ... : ... .. . ... ... ... : ... .. . ... : ... .. 3 ... : ... .. . ... ... : ... .. 5 ... ... : ... .. 5 ... ... : ... .. . ... ...
ROW 16 : ... .. A ... ... ... : ... .. . ... ... ... : ... .. . ... : ... .. . ... : ... .. . ... ... : ... .. . ... ... : ... .. . ... ... : ... .. . ... ...
ROW 17 : ... .. 8 ... ... ... : ... .. . ... ... ... : ... .. . ... : ... .. 0 ... : ... .. . ... ... : ... .. . ... ... : ... .. . ... ... : ... .. . ... ...
ROW 18 : E-2 00 D ... ... ... : D-3 00 F ... ... ... : C#5 00 . ... : 2-# 00 F ... : ... .. . ... ... : F#4 01 A ... ... : E-4 01 A ... ... : C-5 01 F ... ...
ROW 19 : ... .. B ... ... ... : ... .. E ... ... ... : D#4 00 . ... : ... .. C ... : ... .. . ... ... : ... .. 9 ... ... : ... .. 9 ... ... : ... .. D ... ...
ROW 1A : ... .. . ... ... ... : ... .. D ... ... ... : G#3 00 . ... : ... .. 6 ... : ... .. . ... ... : ... .. 8 ... ... : ... .. 8 ... ... : ... .. 8 ... ...
ROW 1B : ... .. A ... ... ... : ... .. A ... ... ... : G-3 00 . ... : ... .. 3 ... : ... .. . ... ... : ... .. 7 ... ... : ... .. 7 ... ... : ... .. . ... ...
ROW 1C : ... .. 8 ... ... ... : ... .. . ... ... ... : D-3 00 . ... : ... .. 2 ... : ... .. . ... ... : ... .. . ... ... : ... .. . ... ... : ... .. . ... ...
ROW 1D : D-2 00 D ... ... ... : ... .. . ... ... ... : ... .. . ... : ... .. 0 ... : ... .. . ... ... : E-4 01 A ... ... : ... .. 6 ... ... : ... .. . ... ...
ROW 1E : ... .. B ... ... ... : ... .. . ... ... ... : ... .. . ... : B-# 00 8 ... : ... .. . ... ... : ... .. 9 ... ... : ... .. . ... ... : ... .. . ... ...
ROW 1F : ... .. . ... ... ... : ... .. . ... ... ... : ... .. . ... : ... .. 3 ... : ... .. . ... ... : ... .. 8 ... ... : ... .. 5 ... ... : ... .. . ... ...
ROW 20 : ... .. A ... ... ... : ... .. . ... ... ... : ... .. . ... : ... .. . ... : ... .. . ... ... : ... .. 7 ... ... : ... .. . ... ... : ... .. . ... ...
ROW 21 : ... .. 8 ... ... ... : ... .. . ... ... ... : ... .. . ... : ... .. 0 ... : ... .. . ... ... : ... .. . ... ... : ... .. . ... ... : ... .. . ... ...
ROW 22 : E-2 00 D ... ... ... : A#2 00 F ... ... ... : A-4 00 . ... : C-# 00 8 ... : ... .. . ... ... : D-4 01 A ... ... : ... .. . P83 ... : C#5 01 8 ... ...
ROW 23 : ... .. B ... ... ... : ... .. E ... ... ... : B-3 00 . ... : ... .. 7 ... : ... .. . ... ... : ... .. 9 ... ... : ... .. . P85 ... : ... .. . P82 ...
ROW 24 : ... .. . ... ... ... : ... .. D ... ... ... : E-3 00 . ... : ... .. . ... : ... .. . ... ... : ... .. 8 ... ... : ... .. . P84 ... : ... .. . P7F ...
ROW 25 : ... .. A ... ... ... : ... .. A ... ... ... : D#3 00 . ... : ... .. 6 ... : ... .. . ... ... : ... .. 7 ... ... : ... .. . P81 ... : C-5 01 8 P80 ...
ROW 26 : ... .. 8 ... ... ... : ... .. . ... ... ... : A#2 00 . ... : ... .. 5 ... : ... .. . ... ... : ... .. . ... ... : ... .. . P7D ... : B-4 01 8 ... ...
ROW 27 : F#2 00 D ... ... ... : ... .. . ... ... ... : ... .. . ... : ... .. 4 ... : ... .. . ... ... : E-4 01 A ... ... : D#4 01 5 P84 ... : ... .. . P7E ...
ROW 28 : ... .. B ... ... ... : ... .. . ... ... ... : ... .. . ... : ... .. . ... : ... .. . ... ... : ... .. 9 ... ... : ... .. . P83 ... : ... .. . P81 ...
ROW 29 : ... .. . ... ... ... : ... .. . ... ... ... : ... .. . ... : ... .. . ... : ... .. . ... ... : ... .. 8 ... ... : ... .. . P85 ... : C-5 01 8 P80 ...
ROW 2A : ... .. A ... ... ... : ... .. 0 ... V00 ... : --- .. . ... : ... .. 3 ... : ... .. . ... ... : ... .. 7 ... ... : E-4 01 5 P7F ... : C#5 01 8 ... ...
ROW 2B : ... .. 8 ... ... ... : ... .. . ... ... ... : ... .. . ... : ... .. . ... : ... .. . ... ... : ... .. . ... ... : ... .. . P82 ... : ... .. . P82 ...
ROW 2C : G#2 00 D ... ... ... : G#2 00 F P83 V01 ... : G#2 00 . ... : 7-# 00 F ... : ... .. . ... ... : F#4 01 A ... ... : A#3 01 A P7F ... : D-5 01 F P80 ...
ROW 2D : ... .. B ... ... ... : ... .. E ... ... ... : ... .. . ... : ... .. C ... : ... .. . ... ... : ... .. 9 ... ... : ... .. 9 ... ... : ... .. D ... ...
ROW 2E : ... .. . ... ... ... : ... .. D ... ... ... : ... .. . ... : ... .. A ... : ... .. . ... ... : ... .. 8 ... ... : ... .. 8 ... ... : ... .. 8 ... ...
ROW 2F : ... .. A ... ... ... : ... .. A ... ... ... : ... .. . ... : ... .. 8 ... : ... .. . ... ... : ... .. 7 ... ... : ... .. 7 ... ... : ... .. . ... ...
ROW 30 : ... .. 8 ... ... ... : ... .. . ... ... ... : ... .. . ... : ... .. 7 ... : ... .. . ... ... : ... .. . ... ... : ... .. . ... ... : ... .. . ... ...
ROW 31 : A#2 00 D ... ... ... : ... .. . ... ... ... : ... .. . ... : ... .. 0 ... : ... .. . ... ... : G#4 01 A ... ... : G#3 01 A ... ... : E-5 01 F ... ...
ROW 32 : ... .. B ... ... ... : ... .. . ... ... ... : ... .. . ... : B-# 00 6 ... : ... .. . ... ... : ... .. 9 ... ... : ... .. 9 ... ... : ... .. D ... ...
ROW 33 : ... .. . ... ... ... : ... .. . ... ... ... : ... .. . ... : ... .. 2 ... : ... .. . ... ... : ... .. 8 ... ... : ... .. 8 ... ... : ... .. 8 ... ...
ROW 34 : ... .. A ... ... ... : ... .. . ... ... ... : ... .. . ... : ... .. . ... : ... .. . ... ... : ... .. 7 ... ... : ... .. 7 ... ... : ... .. . ... ...
ROW 35 : ... .. 8 ... ... ... : ... .. . ... ... ... : ... .. . ... : ... .. 0 ... : ... .. . ... ... : ... .. . ... ... : ... .. . ... ... : ... .. . ... ...
ROW 36 : C-3 00 D ... ... ... : E-2 00 F ... ... ... : E-2 00 . ... : ... .. . ... : ... .. . ... ... : A#4 01 A ... ... : E-3 01 A ... ... : F#5 01 F ... ...
ROW 37 : ... .. B ... ... ... : ... .. E ... ... ... : ... .. . ... : ... .. A ... : ... .. . ... ... : ... .. 9 ... ... : ... .. 9 ... ... : ... .. D ... ...
ROW 38 : ... .. . ... ... ... : ... .. D ... ... ... : ... .. . ... : ... .. 4 ... : ... .. . ... ... : ... .. 8 ... ... : ... .. 8 ... ... : ... .. 8 ... ...
ROW 39 : ... .. A ... ... ... : ... .. 0 ... V00 ... : --- .. . ... : ... .. . ... : ... .. . ... ... : ... .. 7 ... ... : ... .. 7 ... ... : ... .. . ... ...
ROW 3A : ... .. 8 ... ... ... : ... .. . ... ... ... : ... .. . ... : ... .. 0 ... : ... .. . ... ... : ... .. . ... ... : ... .. . ... ... : ... .. . ... ...
ROW 3B : D-3 00 D ... ... ... : E-2 00 F P83 V01 ... : E-2 00 . ... : ... .. . ... : ... .. . ... ... : C-5 01 A ... ... : D-3 01 A ... ... : G#5 01 F ... ...
ROW 3C : ... .. B ... ... ... : ... .. E ... ... ... : ... .. . ... : ... .. 8 ... : ... .. . ... ... : ... .. 9 ... ... : ... .. 9 ... ... : ... .. D ... ...
ROW 3D : ... .. . ... ... ... : ... .. D ... ... ... : ... .. . ... : ... .. 3 ... : ... .. . ... ... : ... .. 8 ... ... : ... .. 8 ... ... : ... .. 8 ... ...
ROW 3E : ... .. A ... ... ... : ... .. 0 ... V00 ... : --- .. . ... : ... .. . ... : ... .. . ... ... : ... .. 7 ... ... : ... .. 7 ... ... : ... .. . ... ...
ROW 3F : ... .. 8 ... ... ... : ... .. . ... ... ... : ... .. . ... : ... .. 0 ... : ... .. . ... ... : ... .. . ... ... : ... .. . ... ... : ... .. . ... ...
ROW 40 : E-3 00 F ... ... ... : F#2 00 F P83 V01 ... : F-4 00 . ... : ... .. . ... : ... .. . ... ... : C#5 01 A ... ... : C-3 01 A ... ... : A#5 01 F ... ...
ROW 41 : ... .. E ... ... ... : ... .. E ... ... ... : G-3 00 . ... : 2-# 00 F ... : ... .. . ... ... : ... .. 9 ... ... : ... .. 9 ... ... : ... .. D ... ...
ROW 42 : ... .. D ... ... ... : ... .. D ... ... ... : C-3 00 . ... : ... .. 6 ... : ... .. . ... ... : ... .. 8 ... ... : ... .. 8 ... ... : ... .. 8 ... ...
ROW 43 : ... .. A ... ... ... : ... .. A ... ... ... : B-2 00 . ... : ... .. . ... : ... .. . ... ... : ... .. 7 ... ... : ... .. 7 ... ... : ... .. . ... ...
ROW 44 : ... .. . ... ... ... : ... .. . ... ... ... : F#2 00 . ... : ... .. 0 ... : ... .. . ... ... : ... .. . ... ... : ... .. . ... ... : ... .. . ... ...
ROW 45 : ... .. . ... ... ... : ... .. . ... ... ... : ... .. . ... : ... .. . ... : ... .. . ... ... : ... .. 6 ... ... : ... .. 6 ... ... : ... .. . ... ...
ROW 46 : ... .. . ... ... ... : ... .. . ... ... ... : ... .. . ... : B-# 00 6 ... : ... .. . ... ... : ... .. . ... ... : ... .. . ... ... : ... .. . ... ...
ROW 47 : ... .. . ... ... ... : ... .. . ... ... ... : ... .. . ... : ... .. 2 ... : ... .. . ... ... : ... .. 5 ... ... : ... .. 5 ... ... : ... .. . ... ...
ROW 48 : ... .. . ... ... ... : ... .. . ... ... ... : ... .. . ... : ... .. . ... : ... .. . ... ... : ... .. . ... ... : ... .. . ... ... : ... .. . ... ...
ROW 49 : ... .. . ... ... ... : ... .. . ... ... ... : ... .. . ... : ... .. 0 ... : ... .. . ... ... : ... .. . ... ... : ... .. . ... ... : ... .. . ... ...
ROW 4A : A#2 00 F ... ... ... : C-2 00 F ... ... ... : C-2 00 . ... : ... .. . ... : ... .. . ... ... : F#3 01 A ... ... : F#3 01 A ... ... : E-3 01 F ... ...
ROW 4B : ... .. E ... ... ... : ... .. E ... ... ... : ... .. . ... : ... .. A ... : ... .. . ... ... : ... .. 9 ... ... : ... .. 9 ... ... : ... .. D ... ...
ROW 4C : ... .. D ... ... ... : ... .. D ... ... ... : ... .. . ... : ... .. 4 ... : ... .. . ... ... : ... .. 8 ... ... : ... .. 8 ... ... : ... .. 8 ... ...
ROW 4D : ... .. A ... ... ... : ... .. A ... ... ... : ... .. . ... : ... .. . ... : ... .. . ... ... : --- .. . P80 ... : ... .. 7 ... ... : ... .. . ... ...
ROW 4E : ... .. . ... ... ... : ... .. . ... ... ... : ... .. . ... : ... .. 0 ... : ... .. . ... ... : ... .. . ... ... : ... .. . ... ... : ... .. . ... ...
ROW 4F : ... .. . ... ... ... : ... .. . ... ... ... : ... .. . ... : ... .. . ... : ... .. . ... ... : F#3 01 A P81 ... : ... .. 6 ... ... : ... .. . ... ...
ROW 50 : ... .. . ... ... ... : ... .. . ... ... ... : ... .. . ... : ... .. 8 ... : ... .. . ... ... : ... .. 9 ... ... : ... .. . ... ... : ... .. . ... ...
ROW 51 : ... .. . ... ... ... : ... .. . ... ... ... : ... .. . ... : ... .. 3 ... : ... .. . ... ... : ... .. 8 ... ... : ... .. 5 ... ... : ... .. . ... ...
ROW 52 : ... .. . ... ... ... : ... .. 0 ... V00 ... : --- .. . ... : ... .. . ... : ... .. . ... ... : --- .. . P80 ... : ... .. . ... ... : ... .. . ... ...
ROW 53 : ... .. . ... ... ... : ... .. . ... ... ... : ... .. . ... : ... .. 0 ... : ... .. . ... ... : ... .. . ... ... : ... .. . ... ... : ... .. . ... ...
ROW 54 : C-3 00 F ... ... ... : F#2 00 F P83 V01 ... : F#2 00 . ... : 7-# 00 F ... : ... .. . ... ... : C#5 01 5 P81 ... : C-3 01 5 ... ... : A#5 01 8 ... ...
ROW 55 : ... .. E ... ... ... : ... .. E ... ... ... : ... .. . ... : ... .. C ... : ... .. . ... ... : ... .. 4 ... ... : ... .. 4 ... ... : ... .. 6 ... ...
ROW 56 : ... .. D ... ... ... : ... .. D ... ... ... : ... .. . ... : ... .. A ... : ... .. . ... ... : ... .. . ... ... : ... .. . ... ... : ... .. 4 ... ...
ROW 57 : ... .. A ... ... ... : ... .. 0 ... V00 ... : --- .. . ... : ... .. 8 ... : ... .. . ... ... : --- .. . ... ... : ... .. 3 ... ... : ... .. . ... ...
ROW 58 : ... .. . ... ... ... : ... .. . ... ... ... : ... .. . ... : ... .. 7 ... : ... .. . ... ... : ... .. . ... ... : ... .. . ... ... : ... .. . ... ...
ROW 59 : ... .. . ... ... ... : F#2 00 F P83 V01 ... : F#2 00 . ... : ... .. 0 ... : ... .. . ... ... : F-3 01 A ... ... : ... .. . ... ... : ... .. . ... ...
ROW 5A : ... .. . ... ... ... : ... .. E ... ... ... : ... .. . ... : B-# 00 6 ... : ... .. . ... ... : ... .. 9 ... ... : ... .. . ... ... : ... .. . ... ...
ROW 5B : ... .. . ... ... ... : ... .. D ... ... ... : ... .. . ... : ... .. 2 ... : ... .. . ... ... : ... .. 8 ... ... : ... .. 2 ... ... : ... .. . ... ...
ROW 5C : ... .. . ... ... ... : ... .. 0 ... V00 ... : --- .. . ... : ... .. . ... : ... .. . ... ... : --- .. . ... ... : ... .. . ... ... : ... .. . ... ...
ROW 5D : ... .. . ... ... ... : ... .. . ... ... ... : ... .. . ... : ... .. 0 ... : ... .. . ... ... : ... .. . ... ... : ... .. . ... ... : ... .. . ... ...
ROW 5E : F#3 00 F ... ... ... : G#2 00 F P83 V01 ... : G-4 00 . ... : ... .. . ... : ... .. . ... ... : C-5 01 A ... ... : A#2 01 A ... ... : C-6 01 F ... ...
ROW 5F : ... .. E ... ... ... : ... .. E ... ... ... : A-3 00 . ... : ... .. A ... : ... .. . ... ... : ... .. 9 ... ... : ... .. 9 ... ... : ... .. D ... ...
ROW 60 : ... .. D ... ... ... : ... .. D ... ... ... : D-3 00 . ... : ... .. 4 ... : ... .. . ... ... : ... .. 8 ... ... : ... .. 8 ... ... : ... .. 8 ... ...
ROW 61 : ... .. A ... ... ... : ... .. A ... ... ... : C#3 00 . ... : ... .. . ... : ... .. . ... ... : ... .. 7 ... ... : ... .. 7 ... ... : ... .. . ... ...
ROW 62 : ... .. . ... ... ... : ... .. . ... ... ... : G#2 00 . ... : ... .. 0 ... : ... .. . ... ... : ... .. . ... ... : ... .. . ... ... : ... .. . ... ...
ROW 63 : ... .. . ... ... ... : ... .. . ... ... ... : ... .. . ... : ... .. . ... : ... .. . ... ... : ... .. 6 ... ... : ... .. 6 ... ... : ... .. . ... ...
ROW 64 : ... .. . ... ... ... : ... .. . ... ... ... : ... .. . ... : ... .. 8 ... : ... .. . ... ... : ... .. . ... ... : ... .. . ... ... : ... .. . ... ...
ROW 65 : ... .. . ... ... ... : ... .. . ... ... ... : ... .. . ... : ... .. 3 ... : ... .. . ... ... : ... .. 5 ... ... : ... .. 5 ... ... : ... .. . ... ...
ROW 66 : ... .. . ... ... ... : ... .. . ... ... ... : ... .. . ... : ... .. . ... : ... .. . ... ... : ... .. . ... ... : ... .. . ... ... : ... .. . ... ...
ROW 67 : ... .. . ... ... ... : ... .. . ... ... ... : ... .. . ... : ... .. 0 ... : ... .. . ... ... : ... .. . ... ... : ... .. . ... ... : ... .. . ... ...
ROW 68 : A#2 00 F ... ... ... : C-2 00 F ... ... ... : C-2 00 . ... : 2-# 00 F ... : ... .. . ... ... : F-3 01 A ... ... : F#3 01 A ... ... : D-4 01 F ... ...
ROW 69 : ... .. E ... ... ... : ... .. E ... ... ... : ... .. . ... : ... .. C ... : ... .. . ... ... : ... .. 9 ... ... : ... .. 9 ... ... : ... .. D ... ...
ROW 6A : ... .. D ... ... ... : ... .. D ... ... ... : ... .. . ... : ... .. 6 ... : ... .. . ... ... : ... .. 8 ... ... : ... .. 8 ... ... : ... .. 8 ... ...
ROW 6B : ... .. A ... ... ... : ... .. A ... ... ... : ... .. . ... : ... .. 3 ... : ... .. . ... ... : --- .. . ... ... : ... .. 7 ... ... : ... .. . ... ...
ROW 6C : ... .. . ... ... ... : ... .. . ... ... ... : ... .. . ... : ... .. 2 ... : ... .. . ... ... : ... .. . ... ... : ... .. . ... ... : ... .. . ... ...
ROW 6D : ... .. . ... ... ... : ... .. . ... ... ... : ... .. . ... : ... .. 0 ... : ... .. . ... ... : F-3 01 A ... ... : ... .. 6 ... ... : ... .. . ... ...
ROW 6E : ... .. . ... ... ... : ... .. . ... ... ... : ... .. . ... : B-# 00 8 ... : ... .. . ... ... : ... .. 9 ... ... : ... .. . ... ... : ... .. . ... ...
ROW 6F : ... .. . ... ... ... : ... .. . ... ... ... : ... .. . ... : ... .. 3 ... : ... .. . ... ... : ... .. 8 ... ... : ... .. 5 ... ... : ... .. . ... ...
ROW 70 : ... .. . ... ... ... : ... .. 0 ... V00 ... : --- .. . ... : ... .. . ... : ... .. . ... ... : --- .. . ... ... : ... .. . ... ... : ... .. . ... ...
ROW 71 : ... .. . ... ... ... : ... .. . ... ... ... : ... .. . ... : ... .. 0 ... : ... .. . ... ... : ... .. . ... ... : ... .. . ... ... : ... .. . ... ...
ROW 72 : C-3 00 F ... ... ... : A#1 00 F P83 V01 ... : A#1 00 . ... : 2-# 00 F ... : ... .. . ... ... : C-5 01 5 ... ... : A#2 01 5 ... ... : C-6 01 8 ... ...
ROW 73 : ... .. E ... ... ... : ... .. E ... ... ... : ... .. . ... : ... .. C ... : ... .. . ... ... : ... .. 4 ... ... : ... .. 4 ... ... : ... .. 6 ... ...
ROW 74 : ... .. D ... ... ... : ... .. D ... ... ... : ... .. . ... : ... .. 6 ... : ... .. . ... ... : ... .. . ... ... : ... .. . ... ... : ... .. 4 ... ...
ROW 75 : ... .. A ... ... ... : ... .. A ... ... ... : ... .. . ... : ... .. 3 ... : ... .. . ... ... : --- .. . ... ... : ... .. 3 ... ... : ... .. . ... ...
ROW 76 : ... .. . ... ... ... : ... .. . ... ... ... : ... .. . ... : ... .. 2 ... : ... .. . ... ... : ... .. . ... ... : ... .. . ... ... : ... .. . ... ...
ROW 77 : ... .. . ... ... ... : ... .. . ... ... ... : ... .. . ... : ... .. 0 ... : ... .. . ... ... : B-2 01 A ... ... : ... .. . ... ... : ... .. . ... ...
ROW 78 : ... .. . ... ... ... : ... .. . ... ... ... : ... .. . ... : B-# 00 8 ... : ... .. . ... ... : ... .. 9 ... ... : ... .. . ... ... : ... .. . ... ...
ROW 79 : ... .. . ... ... ... : ... .. . ... ... ... : ... .. . ... : ... .. 3 ... : ... .. . ... ... : ... .. 8 ... ... : ... .. 2 ... ... : ... .. . ... ...
ROW 7A : ... .. . ... ... ... : ... .. . ... ... ... : ... .. . ... : ... .. . ... : ... .. . ... ... : --- .. . P86 ... : ... .. . ... ... : ... .. . ... ...
ROW 7B : ... .. . ... ... ... : ... .. . ... ... ... : ... .. . ... : ... .. 0 ... : ... .. . ... ... : ... .. . ... ... : ... .. . ... ... : ... .. . ... ...
ROW 7C : E-3 00 F ... ... ... : C-2 00 F ... ... ... : B-3 00 . ... : 7-# 00 F ... : ... .. . ... ... : G-4 01 A P81 ... : C-3 01 A ... ... : A#5 01 F ... ...
ROW 7D : ... .. E ... ... ... : ... .. E ... ... ... : C#3 00 . ... : ... .. C ... : ... .. . ... ... : ... .. 9 ... ... : ... .. 9 ... ... : ... .. D ... ...
ROW 7E : ... .. D ... ... ... : ... .. D ... ... ... : F#2 00 . ... : ... .. A ... : ... .. . ... ... : ... .. 8 ... ... : ... .. 8 ... ... : ... .. 8 ... ...
ROW 7F : ... .. A ... ... ... : ... .. A ... ... ... : F-2 00 . ... : ... .. 8 ... : ... .. . ... ... : ... .. 7 ... ... : ... .. 7 ... ... : ... .. . ... ...
ROW 80 : ... .. . ... ... ... : ... .. . ... ... ... : C-2 00 . ... : ... .. 7 ... : ... .. . ... ... : ... .. . ... ... : ... .. . ... ... : ... .. . ... ...
ROW 81 : ... .. . ... ... ... : ... .. . ... ... ... : ... .. . ... : ... .. 0 ... : ... .. . ... ... : ... .. 6 ... ... : ... .. 6 ... ... : ... .. . ... ...
ROW 82 : ... .. . ... ... ... : ... .. . ... ... ... : ... .. . ... : B-# 00 6 ... : ... .. . ... ... : ... .. . ... ... : ... .. . ... ... : ... .. . ... ...
ROW 83 : ... .. . ... ... ... : ... .. . ... ... ... : ... .. . ... : ... .. 2 ... : ... .. . ... ... : ... .. 5 ... ... : ... .. 5 ... ... : ... .. . ... ...
ROW 84 : ... .. . ... ... ... : ... .. . ... ... ... : ... .. . ... : ... .. . ... : ... .. . ... ... : ... .. . ... ... : ... .. . ... ... : ... .. . ... ...
ROW 85 : ... .. . ... ... ... : ... .. . ... ... ... : ... .. . ... : ... .. 0 ... : ... .. . ... ... : ... .. . ... ... : ... .. . ... ... : ... .. . ... ...
ROW 86 : A#2 00 F ... ... ... : D#1 00 F ... ... ... : D#1 00 . ... : ... .. . ... : ... .. . ... ... : F#3 01 A ... ... : F#3 01 A ... ... : E-4 01 F ... ...
ROW 87 : ... .. E ... ... ... : ... .. E ... ... ... : ... .. . ... : ... .. A ... : ... .. . ... ... : ... .. 9 ... ... : ... .. 9 ... ... : ... .. D ... ...
ROW 88 : ... .. D ... ... ... : ... .. D ... ... ... : ... .. . ... : ... .. 4 ... : ... .. . ... ... : ... .. 8 ... ... : ... .. 8 ... ... : ... .. 8 ... ...
ROW 89 : ... .. A ... ... ... : ... .. A ... ... ... : ... .. . ... : ... .. . ... : ... .. . ... ... : --- .. . P80 ... : ... .. 7 ... ... : ... .. . ... ...
ROW 8A : ... .. . ... ... ... : ... .. . ... ... ... : ... .. . ... : ... .. 0 ... : ... .. . ... ... : ... .. . ... ... : ... .. . ... ... : ... .. . ... ...
ROW 8B : ... .. . ... ... ... : ... .. . ... ... ... : ... .. . ... : ... .. . ... : ... .. . ... ... : F#3 01 A P81 ... : ... .. 6 ... ... : ... .. . ... ...
ROW 8C : ... .. . ... ... ... : ... .. . ... ... ... : ... .. . ... : ... .. 8 ... : ... .. . ... ... : ... .. 9 ... ... : ... .. . ... ... : ... .. . ... ...
ROW 8D : ... .. . ... ... ... : ... .. . ... ... ... : ... .. . ... : ... .. 3 ... : ... .. . ... ... : ... .. 8 ... ... : ... .. 5 ... ... : ... .. . ... ...
ROW 8E : ... .. . ... ... ... : ... .. 0 ... V00 ... : --- .. . ... : ... .. . ... : ... .. . ... ... : --- .. . P80 ... : ... .. . ... ... : ... .. . ... ...
ROW 8F : ... .. . ... ... ... : ... .. . ... ... ... : ... .. . ... : ... .. 0 ... : ... .. . ... ... : ... .. . ... ... : ... .. . ... ... : ... .. . ... ...
ROW 90 : C-3 00 F ... ... ... : A#3 00 F P83 V01 ... : A#3 00 . ... : 9-# 00 D ... : ... .. . ... ... : G-4 01 5 P81 ... : C-3 01 5 ... ... : A#5 01 8 ... ...
ROW 91 : ... .. E ... ... ... : ... .. E ... ... ... : ... .. . ... : ... .. . ... : ... .. . ... ... : ... .. 4 ... ... : ... .. 4 ... ... : ... .. 6 ... ...
ROW 92 : ... .. D ... ... ... : ... .. D ... ... ... : ... .. . ... : ... .. . ... : ... .. . ... ... : ... .. . ... ... : ... .. . ... ... : ... .. 4 ... ...
ROW 93 : ... .. A ... ... ... : ... .. A ... ... ... : ... .. . ... : ... .. B ... : ... .. . ... ... : --- .. . ... ... : ... .. 3 ... ... : ... .. . ... ...
ROW 94 : ... .. . ... ... ... : ... .. . ... ... ... : ... .. . ... : ... .. . ... : ... .. . ... ... : ... .. . ... ... : ... .. . ... ... : ... .. . ... ...
ROW 95 : ... .. . ... ... ... : G#3 00 A P80 ... ... : G#3 00 . P7D : ... .. A ... : ... .. . ... ... : F-3 01 A ... ... : ... .. . ... ... : ... .. . ... ...
ROW 96 : ... .. . ... ... ... : F#3 00 A P81 ... ... : F#3 00 . P7E : ... .. . ... : ... .. . ... ... : ... .. 9 ... ... : ... .. . ... ... : ... .. . ... ...
ROW 97 : ... .. . ... ... ... : E-3 00 A P86 ... ... : E-3 00 . P83 : ... .. . ... : ... .. . ... ... : ... .. 8 ... ... : ... .. 2 ... ... : ... .. . ... ...
ROW 98 : ... .. . ... ... ... : D#3 00 A P7B ... ... : D#3 00 . P78 : ... .. 9 ... : ... .. . ... ... : --- .. . ... ... : ... .. . ... ... : ... .. . ... ...
ROW 99 : ... .. . ... ... ... : C#3 00 A P87 ... ... : C#3 00 . P84 : ... .. . ... : ... .. . ... ... : ... .. . ... ... : ... .. . ... ... : ... .. . ... ...
ROW 9A : G-3 00 F ... ... ... : C-3 00 F P83 ... ... : B-4 00 . P80 : ... .. 7 ... : ... .. . ... ... : F#4 01 A ... ... : A#2 01 A ... ... : E-5 01 F ... ...
ROW 9B : ... .. E ... ... ... : ... .. E ... ... ... : C#4 00 . ... : ... .. . ... : ... .. . ... ... : ... .. 9 ... ... : ... .. 9 ... ... : ... .. D ... ...
ROW 9C : ... .. D ... ... ... : ... .. D ... ... ... : F#3 00 . ... : ... .. . ... : ... .. . ... ... : ... .. 8 ... ... : ... .. 8 ... ... : ... .. 8 ... ...
ROW 9D : ... .. A ... ... ... : ... .. 0 ... V00 ... : --- .. . ... : ... .. 6 ... : ... .. . ... ... : ... .. 7 ... ... : ... .. 7 ... ... : ... .. . ... ...
ROW 9E : ... .. . ... ... ... : ... .. . ... ... ... : ... .. . ... : ... .. . ... : ... .. . ... ... : ... .. . ... ... : ... .. . ... ... : ... .. . ... ...
ROW 9F : ... .. . ... ... ... : C-3 00 F P83 V01 ... : C-3 00 . ... : ... .. 5 ... : ... .. . ... ... : ... .. 6 ... ... : ... .. 6 ... ... : ... .. . ... ...
ROW A0 : ... .. . ... ... ... : ... .. E ... ... ... : ... .. . ... : ... .. . ... : ... .. . ... ... : ... .. . ... ... : ... .. . ... ... : ... .. . ... ...
ROW A1 : ... .. . ... ... ... : ... .. D ... ... ... : ... .. . ... : ... .. . ... : ... .. . ... ... : ... .. 5 ... ... : ... .. 5 ... ... : ... .. . ... ...
ROW A2 : ... .. . ... ... ... : ... .. 0 ... V00 ... : --- .. . ... : ... .. 4 ... : ... .. . ... ... : ... .. . ... ... : ... .. . ... ... : ... .. . ... ...
ROW A3 : ... .. . ... ... ... : ... .. . ... ... ... : ... .. . ... : ... .. . ... : ... .. . ... ... : ... .. . ... ... : ... .. . ... ... : ... .. . ... ...
ROW A4 : A#2 00 F ... ... ... : E-3 00 F P83 V01 ... : E-3 00 . ... : 7-# 00 F ... : ... .. . ... ... : A-2 01 A ... ... : F#3 01 A ... ... : D-4 01 F ... ...
ROW A5 : ... .. E ... ... ... : ... .. E ... ... ... : ... .. . ... : ... .. C ... : ... .. . ... ... : ... .. 9 ... ... : ... .. 9 ... ... : ... .. D ... ...
ROW A6 : ... .. D ... ... ... : ... .. D ... ... ... : ... .. . ... : ... .. A ... : ... .. . ... ... : ... .. 8 ... ... : ... .. 8 ... ... : ... .. 8 ... ...
ROW A7 : ... .. A ... ... ... : ... .. A ... ... ... : ... .. . ... : ... .. 8 ... : ... .. . ... ... : --- .. . P83 ... : ... .. 7 ... ... : ... .. . ... ...
ROW A8 : ... .. . ... ... ... : ... .. . ... ... ... : ... .. . ... : ... .. 7 ... : ... .. . ... ... : ... .. . ... ... : ... .. . ... ... : ... .. . ... ...
ROW A9 : ... .. . ... ... ... : ... .. . ... ... ... : ... .. . ... : ... .. 0 ... : ... .. . ... ... : A-2 01 A P81 ... : ... .. 6 ... ... : ... .. . ... ...
ROW AA : ... .. . ... ... ... : ... .. . ... ... ... : ... .. . ... : B-# 00 6 ... : ... .. . ... ... : ... .. 9 ... ... : ... .. . ... ... : ... .. . ... ...
ROW AB : ... .. . ... ... ... : ... .. . ... ... ... : ... .. . ... : ... .. 2 ... : ... .. . ... ... : ... .. 8 ... ... : ... .. 5 ... ... : ... .. . ... ...
ROW AC : ... .. . ... ... ... : ... .. . ... ... ... : ... .. . ... : ... .. . ... : ... .. . ... ... : --- .. . P83 ... : ... .. . ... ... : ... .. . ... ...
ROW AD : ... .. . ... ... ... : ... .. . ... ... ... : ... .. . ... : ... .. 0 ... : ... .. . ... ... : ... .. . ... ... : ... .. . ... ... : ... .. . ... ...
ROW AE : C-3 00 F ... ... ... : A#2 00 F ... ... ... : A#2 00 . ... : 9-# 00 D ... : ... .. . ... ... : F#4 01 5 P81 ... : A#2 01 5 ... ... : E-5 01 8 ... ...
ROW AF : ... .. E ... ... ... : ... .. E ... ... ... : ... .. . ... : ... .. . ... : ... .. . ... ... : ... .. 4 ... ... : ... .. 4 ... ... : ... .. 6 ... ...
ROW B0 : ... .. D ... ... ... : ... .. D ... ... ... : ... .. . ... : ... .. . ... : ... .. . ... ... : ... .. . ... ... : ... .. . ... ... : ... .. 4 ... ...
ROW B1 : ... .. A ... ... ... : ... .. A ... ... ... : ... .. . ... : ... .. B ... : ... .. . ... ... : --- .. . ... ... : ... .. 3 ... ... : ... .. . ... ...
ROW B2 : ... .. . ... ... ... : ... .. . ... ... ... : ... .. . ... : ... .. . ... : ... .. . ... ... : ... .. . ... ... : ... .. . ... ... : ... .. . ... ...
ROW B3 : ... .. . ... ... ... : ... .. . ... ... ... : ... .. . ... : ... .. A ... : ... .. . ... ... : B-2 01 A ... ... : ... .. . ... ... : ... .. . ... ...
ROW B4 : ... .. . ... ... ... : ... .. . ... ... ... : ... .. . ... : ... .. . ... : ... .. . ... ... : ... .. 9 ... ... : ... .. . ... ... : ... .. . ... ...
ROW B5 : ... .. . ... ... ... : ... .. . ... ... ... : ... .. . ... : ... .. . ... : ... .. . ... ... : ... .. 8 ... ... : ... .. 2 ... ... : ... .. . ... ...
ROW B6 : ... .. . ... ... ... : ... .. 0 ... V00 ... : --- .. . ... : ... .. 9 ... : ... .. . ... ... : --- .. . P86 ... : ... .. . ... ... : ... .. . ... ...
ROW B7 : ... .. . ... ... ... : ... .. . ... ... ... : ... .. . ... : ... .. . ... : ... .. . ... ... : ... .. . ... ... : ... .. . ... ... : ... .. . ... ...
ROW B8 : E-3 00 F ... ... ... : C-2 00 F P83 V01 ... : B-3 00 . ... : ... .. 7 ... : ... .. . ... ... : D-3 01 A P81 ... : C-3 01 A ... ... : G#3 01 F ... ...
ROW B9 : ... .. E ... ... ... : ... .. E ... ... ... : C#3 00 . ... : ... .. . ... : ... .. . ... ... : ... .. 9 ... ... : ... .. 9 ... ... : ... .. D ... ...
ROW BA : ... .. D ... ... ... : ... .. D ... ... ... : F#2 00 . ... : ... .. . ... : ... .. . ... ... : ... .. 8 ... ... : ... .. 8 ... ... : ... .. 8 ... ...
ROW BB : ... .. A ... ... ... : ... .. 0 ... V00 ... : --- .. . ... : ... .. 6 ... : ... .. . ... ... : ... .. 7 ... ... : ... .. 7 ... ... : ... .. . ... ...
ROW BC : ... .. . ... ... ... : ... .. . ... ... ... : ... .. . ... : ... .. . ... : ... .. . ... ... : ... .. . ... ... : ... .. . ... ... : ... .. . ... ...
ROW BD : ... .. . ... ... ... : C-2 00 F P83 V01 ... : C-2 00 . ... : ... .. 5 ... : ... .. . ... ... : ... .. A ... ... : D-3 01 A ... ... : A#3 01 F ... ...
ROW BE : ... .. . ... ... ... : ... .. E ... ... ... : ... .. . ... : ... .. . ... : ... .. . ... ... : ... .. 9 ... ... : ... .. 9 ... ... : ... .. D ... ...
ROW BF : ... .. . ... ... ... : ... .. D ... ... ... : ... .. . ... : ... .. . ... : ... .. . ... ... : ... .. 8 ... ... : ... .. 8 ... ... : ... .. 8 ... ...
ROW C0 : ... .. . ... ... ... : ... .. 0 ... V00 ... : --- .. . ... : ... .. 4 ... : ... .. . ... ... : ... .. 7 ... ... : ... .. 7 ... ... : ... .. . ... ...
ROW C1 : ... .. . ... ... ... : ... .. . ... ... ... : ... .. . ... : ... .. . ... : ... .. . ... ... : ... .. . ... ... : ... .. . ... ... : ... .. . ... ...
ROW C2 : F#3 00 F ... ... ... : D-2 00 F P83 V01 ... : C#4 00 . ... : ... .. 0 ... : ... .. . ... ... : E-3 01 A ... ... : E-3 01 A ... ... : D-4 01 F ... ...
ROW C3 : ... .. E ... ... ... : ... .. E ... ... ... : D#3 00 . ... : B-# 00 8 ... : ... .. . ... ... : ... .. 9 ... ... : ... .. 9 ... ... : ... .. D ... ...
ROW C4 : ... .. D ... ... ... : ... .. D ... ... ... : G#2 00 . ... : ... .. 3 ... : ... .. . ... ... : ... .. 8 ... ... : ... .. 8 ... ... : ... .. 8 ... ...
ROW C5 : ... .. A ... ... ... : ... .. A ... ... ... : G-2 00 . ... : ... .. . ... : ... .. . ... ... : ... .. 7 ... ... : ... .. 7 ... ... : ... .. . ... ...
ROW C6 : ... .. . ... ... ... : ... .. . ... ... ... : D-2 00 . ... : ... .. 0 ... : ... .. . ... ... : ... .. . ... ... : ... .. . ... ... : ... .. . ... ...
ROW C7 : ... .. . ... ... ... : ... .. . ... ... ... : ... .. . ... : ... .. . ... : ... .. . ... ... : ... .. A ... ... : F#3 01 A ... ... : E-4 01 F ... ...
ROW C8 : ... .. . ... ... ... : ... .. . ... ... ... : ... .. . ... : ... .. 6 ... : ... .. . ... ... : ... .. 9 ... ... : ... .. 9 ... ... : ... .. D ... ...
ROW C9 : ... .. . ... ... ... : ... .. . ... ... ... : ... .. . ... : ... .. 2 ... : ... .. . ... ... : ... .. 8 ... ... : ... .. 8 ... ... : ... .. 8 ... ...
ROW CA : ... .. . ... ... ... : ... .. . ... ... ... : ... .. . ... : ... .. . ... : ... .. . ... ... : ... .. 7 ... ... : ... .. 7 ... ... : ... .. . ... ...
ROW CB : ... .. . ... ... ... : ... .. . ... ... ... : ... .. . ... : ... .. 0 ... : ... .. . ... ... : ... .. . ... ... : ... .. . ... ... : ... .. . ... ...
ROW CC : A#3 00 F ... ... ... : C-4 00 F ... ... ... : B-5 00 . ... : 7-# 00 F ... : ... .. . ... ... : F#3 01 A ... ... : G#3 01 A ... ... : G#4 01 F ... ...
ROW CD : ... .. E ... ... ... : ... .. E ... ... ... : C#5 00 . ... : ... .. C ... : ... .. . ... ... : ... .. 9 ... ... : ... .. 9 ... ... : ... .. D ... ...
ROW CE : ... .. D ... ... ... : ... .. D ... ... ... : F#4 00 . ... : ... .. A ... : ... .. . ... ... : ... .. 8 ... ... : ... .. 8 ... ... : ... .. 8 ... ...
ROW CF : ... .. A ... ... ... : ... .. A ... ... ... : F-4 00 . ... : ... .. 0 ... : ... .. . ... ... : --- .. . P80 ... : ... .. 7 ... ... : ... .. . ... ...
ROW D0 : ... .. . ... ... ... : ... .. . ... ... ... : C-4 00 . ... : ... .. . ... : ... .. . ... ... : ... .. . ... ... : ... .. . ... ... : ... .. . ... ...
ROW D1 : ... .. . ... ... ... : ... .. . ... ... ... : ... .. . ... : 6-# 00 F ... : ... .. . ... ... : F#3 01 A P81 ... : A#3 01 A ... ... : A#4 01 F ... ...
ROW D2 : ... .. . ... ... ... : ... .. . ... ... ... : ... .. . ... : ... .. C ... : ... .. . ... ... : ... .. 9 ... ... : ... .. 9 ... ... : ... .. D ... ...
ROW D3 : ... .. . ... ... ... : ... .. . ... ... ... : ... .. . ... : ... .. A ... : ... .. . ... ... : ... .. 8 ... ... : ... .. 8 ... ... : ... .. 8 ... ...
ROW D4 : ... .. . ... ... ... : ... .. . ... ... ... : ... .. . ... : ... .. 0 ... : ... .. . ... ... : --- .. . P80 ... : ... .. 7 ... ... : ... .. . ... ...
ROW D5 : ... .. . ... ... ... : ... .. . ... ... ... : ... .. . ... : ... .. . ... : ... .. . ... ... : ... .. . ... ... : ... .. . ... ... : ... .. . ... ...
ROW D6 : C-4 00 F ... ... ... : E-3 00 F ... ... ... : D#5 00 . ... : 5-# 00 F ... : ... .. . ... ... : G-3 01 A P81 ... : C-4 01 A ... ... : D-5 01 F ... ...
ROW D7 : ... .. E ... ... ... : ... .. E ... ... ... : F-4 00 . ... : ... .. C ... : ... .. . ... ... : ... .. 9 ... ... : ... .. 9 ... ... : ... .. D ... ...
ROW D8 : ... .. D ... ... ... : ... .. D ... ... ... : A#3 00 . ... : ... .. A ... : ... .. . ... ... : ... .. 8 ... ... : ... .. 8 ... ... : ... .. 8 ... ...
ROW D9 : ... .. A ... ... ... : ... .. A ... ... ... : A-3 00 . ... : ... .. 0 ... : ... .. . ... ... : --- .. . P80 ... : ... .. 7 ... ... : ... .. . ... ...
ROW DA : ... .. . ... ... ... : ... .. . ... ... ... : E-3 00 . ... : ... .. . ... : ... .. . ... ... : ... .. . ... ... : ... .. . ... ... : ... .. . ... ...
ROW DB : ... .. . ... ... ... : ... .. . ... ... ... : ... .. . ... : 4-# 00 F ... : ... .. . ... ... : G-3 01 A P81 ... : D-4 01 A ... ... : E-5 01 F ... ...
ROW DC : ... .. . ... ... ... : ... .. . ... ... ... : ... .. . ... : ... .. C ... : ... .. . ... ... : ... .. 9 ... ... : ... .. 9 ... ... : ... .. D ... ...
ROW DD : ... .. . ... ... ... : ... .. . ... ... ... : ... .. . ... : ... .. A ... : ... .. . ... ... : ... .. 8 ... ... : ... .. 8 ... ... : ... .. 8 ... ...
ROW DE : ... .. . ... ... ... : ... .. 0 ... V00 ... : --- .. . ... : ... .. 8 ... : ... .. . ... ... : --- .. . P80 ... : ... .. 7 ... ... : ... .. . ... ...
ROW DF : ... .. . ... ... ... : ... .. . ... ... ... : ... .. . ... : ... .. 7 ... : ... .. . ... ... : ... .. . ... ... : ... .. . ... ... : ... .. . ... ...
ROW E0 : F#5 00 D ... ... ... : F#1 00 F P83 V01 ... : F-4 00 . ... : 9-# 00 D ... : ... .. . ... ... : F#3 01 A P81 ... : A#3 01 A ... ... : E-4 01 F ... ...
ROW E1 : ... .. B ... ... ... : ... .. E ... ... ... : G-3 00 . ... : ... .. . ... : ... .. . ... ... : ... .. 9 ... ... : ... .. 9 ... ... : ... .. D ... ...
ROW E2 : ... .. . ... ... ... : ... .. D ... ... ... : C-3 00 . ... : ... .. . ... : ... .. . ... ... : ... .. 8 ... ... : ... .. 8 ... ... : ... .. 8 ... ...
ROW E3 : ... .. A ... ... ... : ... .. A ... ... ... : B-2 00 . ... : ... .. B ... : ... .. . ... ... : ... .. 7 ... ... : ... .. 7 ... ... : ... .. . ... ...
ROW E4 : ... .. 8 ... ... ... : ... .. . ... ... ... : F#2 00 . ... : ... .. . ... : ... .. . ... ... : ... .. . ... ... : ... .. . ... ... : ... .. . ... ...
ROW E5 : E-5 00 D ... ... ... : ... .. . ... ... ... : ... .. . ... : ... .. A ... : ... .. . ... ... : ... .. 6 ... ... : ... .. 6 ... ... : ... .. . ... ...
ROW E6 : ... .. B ... ... ... : ... .. . ... ... ... : ... .. . ... : ... .. . ... : ... .. . ... ... : ... .. . ... ... : ... .. . ... ... : ... .. . ... ...
ROW E7 : ... .. . ... ... ... : ... .. . ... ... ... : ... .. . ... : ... .. . ... : ... .. . ... ... : ... .. 5 ... ... : ... .. 5 ... ... : ... .. . ... ...
ROW E8 : F#5 00 6 ... ... ... : ... .. . ... ... ... : ... .. . ... : ... .. 9 ... : ... .. . ... ... : ... .. . ... ... : ... .. . ... ... : ... .. . ... ...
ROW E9 : ... .. 5 ... ... ... : ... .. . ... ... ... : ... .. . ... : ... .. . ... : ... .. . ... ... : ... .. . ... ... : ... .. . ... ... : ... .. . ... ...
ROW EA : G#4 00 D ... ... ... : F#2 00 F ... ... ... : F-5 00 . ... : ... .. 7 ... : ... .. . ... ... : ... .. . ... ... : ... .. . ... ... : ... .. . ... ...
ROW EB : ... .. B ... ... ... : ... .. E ... ... ... : G-4 00 . ... : ... .. . ... : ... .. . ... ... : ... .. . ... ... : ... .. . ... ... : ... .. . ... ...
ROW EC : ... .. . ... ... ... : ... .. D ... ... ... : C-4 00 . ... : ... .. . ... : ... .. . ... ... : ... .. . ... ... : ... .. . ... ... : ... .. . ... ...
ROW ED : E-5 00 6 ... ... ... : ... .. 0 ... V00 ... : --- .. . ... : ... .. 6 ... : ... .. . ... ... : ... .. . ... ... : ... .. . ... ... : ... .. . ... ...
ROW EE : ... .. 5 ... ... ... : ... .. . ... ... ... : ... .. . ... : ... .. . ... : ... .. . ... ... : ... .. . ... ... : ... .. . ... ... : ... .. . ... ...
ROW EF : A#4 00 D ... ... ... : F#2 00 F P83 V01 ... : F#3 00 . ... : ... .. 5 ... : ... .. . ... ... : ... .. . ... ... : ... .. . ... ... : ... .. . ... ...
ROW F0 : ... .. B ... ... ... : ... .. E ... ... ... : ... .. . ... : ... .. . ... : ... .. . ... ... : ... .. . ... ... : ... .. . ... ... : ... .. . ... ...
ROW F1 : ... .. . ... ... ... : ... .. D ... ... ... : ... .. . ... : ... .. . ... : ... .. . ... ... : ... .. . ... ... : ... .. . ... ... : ... .. . ... ...
ROW F2 : G#4 00 6 ... ... ... : ... .. 0 ... V00 ... : --- .. . ... : ... .. 4 ... : ... .. . ... ... : ... .. . ... ... : ... .. . ... ... : ... .. . ... ...
ROW F3 : ... .. 5 ... ... ... : ... .. . ... ... ... : ... .. . ... : ... .. . ... : ... .. . ... ... : ... .. . ... ... : ... .. . ... ... : ... .. . ... ...
ROW F4 : F#4 00 D ... ... ... : F#1 00 F P83 V01 ... : F#2 00 . ... : 7-# 00 F ... : ... .. . ... ... : ... .. . ... ... : ... .. . ... ... : ... .. . ... ...
ROW F5 : ... .. B ... ... ... : ... .. E ... ... ... : ... .. . ... : ... .. C ... : ... .. . ... ... : ... .. . ... ... : ... .. . ... ... : ... .. . ... ...
ROW F6 : ... .. . ... ... ... : ... .. D ... ... ... : ... .. . ... : ... .. A ... : ... .. . ... ... : ... .. . ... ... : ... .. . ... ... : ... .. . ... ...
ROW F7 : A#4 00 6 ... ... ... : ... .. A ... ... ... : ... .. . ... : ... .. 8 ... : ... .. . ... ... : ... .. . ... ... : ... .. . ... ... : ... .. . ... ...
ROW F8 : ... .. 5 ... ... ... : ... .. . ... ... ... : ... .. . ... : ... .. 7 ... : ... .. . ... ... : ... .. . ... ... : ... .. . ... ... : ... .. . ... ...
ROW F9 : E-4 00 D ... ... ... : ... .. . ... ... ... : ... .. . ... : ... .. 0 ... : ... .. . ... ... : ... .. . ... ... : ... .. . ... ... : ... .. . ... ...
ROW FA : ... .. B ... ... ... : ... .. . ... ... ... : ... .. . ... : B-# 00 6 ... : ... .. . ... ... : ... .. . ... ... : ... .. . ... ... : ... .. . ... ...
ROW FB : ... .. . ... ... ... : ... .. . ... ... ... : ... .. . ... : ... .. 2 ... : ... .. . ... ... : ... .. . ... ... : ... .. . ... ... : ... .. . ... ...
ROW FC : F#4 00 6 ... ... ... : ... .. 0 ... V00 ... : --- .. . ... : ... .. . ... : ... .. . ... ... : ... .. . ... ... : ... .. . ... ... : ... .. . ... ...
ROW FD : ... .. 5 ... ... ... : ... .. . ... ... ... : ... .. . ... : ... .. 0 ... : ... .. . ... ... : ... .. . ... ... : ... .. . ... ... : ... .. . ... ...
ROW FE : A#3 00 D ... ... ... : E-2 00 F P83 V01 ... : E-3 00 . ... : ... .. . ... : ... .. . ... ... : E-3 01 A ... ... : G#3 01 A ... ... : D-4 01 F ... ...
ROW FF : ... .. B ... ... ... : ... .. E ... ... ... : ... .. . ... : ... .. A ... : ... .. . ... ... : ... .. 9 ... ... : ... .. 9 ... ... : ... .. D ... ...

PATTERN 07
ROW 00 : ... .. . ... ... ... : ... .. D ... ... ... : ... .. . ... : ... .. 4 ... : ... .. . ... ... : ... .. 8 ... ... : ... .. 8 ... ... : ... .. 8 ... ...
ROW 01 : E-4 00 6 ... ... ... : ... .. A ... ... ... : ... .. . ... : ... .. . ... : ... .. . ... ... : ... .. 7 ... ... : ... .. 7 ... ... : ... .. . ... ...
ROW 02 : ... .. 5 ... ... ... : ... .. . ... ... ... : ... .. . ... : ... .. 0 ... : ... .. . ... ... : ... .. . ... ... : ... .. . ... ... : ... .. . ... ...
ROW 03 : C-4 00 D ... ... ... : ... .. . ... ... ... : ... .. . ... : ... .. . ... : ... .. . ... ... : ... .. 6 ... ... : ... .. 6 ... ... : ... .. . ... ...
ROW 04 : ... .. B ... ... ... : ... .. . ... ... ... : ... .. . ... : ... .. 8 ... : ... .. . ... ... : ... .. . ... ... : ... .. . ... ... : ... .. . ... ...
ROW 05 : ... .. . ... ... ... : ... .. . ... ... ... : ... .. . ... : ... .. 3 ... : ... .. . ... ... : ... .. 5 ... ... : ... .. 5 ... ... : ... .. . ... ...
ROW 06 : A#3 00 6 ... ... ... : ... .. 0 ... V00 ... : --- .. . ... : ... .. . ... : ... .. . ... ... : ... .. . ... ... : ... .. . ... ... : ... .. . ... ...
ROW 07 : ... .. 5 ... ... ... : ... .. . ... ... ... : ... .. . ... : ... .. 0 ... : ... .. . ... ... : ... .. . ... ... : ... .. . ... ... : ... .. . ... ...
ROW 08 : F#5 00 D ... ... ... : D-2 00 F P83 V01 ... : C#5 00 . ... : 2-# 00 F ... : ... .. . ... ... : F#3 01 A ... ... : A#3 01 A ... ... : E-4 01 F ... ...
ROW 09 : ... .. B ... ... ... : ... .. E ... ... ... : D#4 00 . ... : ... .. C ... : ... .. . ... ... : ... .. 9 ... ... : ... .. 9 ... ... : ... .. D ... ...
ROW 0A : ... .. . ... ... ... : ... .. D ... ... ... : G#3 00 . ... : ... .. 6 ... : ... .. . ... ... : ... .. 8 ... ... : ... .. 8 ... ... : ... .. 8 ... ...
ROW 0B : C-4 00 6 ... ... ... : ... .. A ... ... ... : G-3 00 . ... : ... .. 3 ... : ... .. . ... ... : ... .. 7 ... ... : ... .. 7 ... ... : ... .. . ... ...
ROW 0C : ... .. 5 ... ... ... : ... .. . ... ... ... : D-3 00 . ... : ... .. 2 ... : ... .. . ... ... : ... .. . ... ... : ... .. . ... ... : ... .. . ... ...
ROW 0D : E-5 00 D ... ... ... : ... .. . ... ... ... : ... .. . ... : ... .. 0 ... : ... .. . ... ... : ... .. 6 ... ... : ... .. 6 ... ... : ... .. . ... ...
ROW 0E : ... .. B ... ... ... : ... .. . ... ... ... : ... .. . ... : B-# 00 8 ... : ... .. . ... ... : ... .. . ... ... : ... .. . ... ... : ... .. . ... ...
ROW 0F : ... .. . ... ... ... : ... .. . ... ... ... : ... .. . ... : ... .. 3 ... : ... .. . ... ... : ... .. 5 ... ... : ... .. 5 ... ... : ... .. . ... ...
ROW 10 : F#5 00 6 ... ... ... : ... .. . ... ... ... : ... .. . ... : ... .. . ... : ... .. . ... ... : ... .. . ... ... : ... .. . ... ... : ... .. . ... ...
ROW 11 : ... .. 5 ... ... ... : ... .. . ... ... ... : ... .. . ... : ... .. 0 ... : ... .. . ... ... : ... .. . ... ... : ... .. . ... ... : ... .. . ... ...
ROW 12 : G#4 00 D ... ... ... : G#1 00 F ... ... ... : G-4 00 . ... : 2-# 00 F ... : ... .. . ... ... : E-3 01 A ... ... : G#3 01 A ... ... : D-4 01 F ... ...
ROW 13 : ... .. B ... ... ... : ... .. E ... ... ... : A-3 00 . ... : ... .. C ... : ... .. . ... ... : ... .. 9 ... ... : ... .. 9 ... ... : ... .. D ... ...
ROW 14 : ... .. . ... ... ... : ... .. D ... ... ... : D-3 00 . ... : ... .. 6 ... : ... .. . ... ... : ... .. 8 ... ... : ... .. 8 ... ... : ... .. 8 ... ...
ROW 15 : E-5 00 6 ... ... ... : ... .. A ... ... ... : C#3 00 . ... : ... .. 3 ... : ... .. . ... ... : ... .. 7 ... ... : ... .. 7 ... ... : ... .. . ... ...
ROW 16 : ... .. 5 ... ... ... : ... .. . ... ... ... : G#2 00 . ... : ... .. 2 ... : ... .. . ... ... : ... .. . ... ... : ... .. . ... ... : ... .. . ... ...
ROW 17 : A#4 00 D ... ... ... : ... .. . ... ... ... : ... .. . ... : ... .. 0 ... : ... .. . ... ... : ... .. 6 ... ... : ... .. 6 ... ... : ... .. . ... ...
ROW 18 : ... .. B ... ... ... : ... .. . ... ... ... : ... .. . ... : B-# 00 8 ... : ... .. . ... ... : ... .. . ... ... : ... .. . ... ... : ... .. . ... ...
ROW 19 : ... .. . ... ... ... : ... .. . ... ... ... : ... .. . ... : ... .. 3 ... : ... .. . ... ... : ... .. 5 ... ... : ... .. 5 ... ... : ... .. . ... ...
ROW 1A : G#4 00 6 ... ... ... : ... .. . ... ... ... : ... .. . ... : ... .. . ... : ... .. . ... ... : ... .. . ... ... : ... .. . ... ... : ... .. . ... ...
ROW 1B : ... .. 5 ... ... ... : ... .. . ... ... ... : ... .. . ... : ... .. 0 ... : ... .. . ... ... : ... .. . ... ... : ... .. . ... ... : ... .. . ... ...
ROW 1C : F#4 00 D ... ... ... : A#1 00 F ... ... ... : A#2 00 . ... : 7-# 00 F ... : ... .. . ... ... : F#3 01 A ... ... : A#3 01 A ... ... : E-4 01 F ... ...
ROW 1D : ... .. B ... ... ... : ... .. E ... ... ... : ... .. . ... : ... .. C ... : ... .. . ... ... : ... .. 9 ... ... : ... .. 9 ... ... : ... .. D ... ...
ROW 1E : ... .. . ... ... ... : ... .. D ... ... ... : ... .. . ... : ... .. A ... : ... .. . ... ... : ... .. 8 ... ... : ... .. 8 ... ... : ... .. 8 ... ...
ROW 1F : A#4 00 6 ... ... ... : ... .. A ... ... ... : ... .. . ... : ... .. 8 ... : ... .. . ... ... : ... .. 7 ... ... : ... .. 7 ... ... : ... .. . ... ...
ROW 20 : ... .. 5 ... ... ... : ... .. . ... ... ... : ... .. . ... : ... .. 7 ... : ... .. . ... ... : ... .. . ... ... : ... .. . ... ... : ... .. . ... ...
ROW 21 : E-4 00 D ... ... ... : ... .. . ... ... ... : ... .. . ... : ... .. 0 ... : ... .. . ... ... : ... .. 6 ... ... : ... .. 6 ... ... : ... .. . ... ...
ROW 22 : ... .. B ... ... ... : ... .. . ... ... ... : ... .. . ... : B-# 00 6 ... : ... .. . ... ... : ... .. . ... ... : ... .. . ... ... : ... .. . ... ...
ROW 23 : ... .. . ... ... ... : ... .. . ... ... ... : ... .. . ... : ... .. 2 ... : ... .. . ... ... : ... .. 5 ... ... : ... .. 5 ... ... : ... .. . ... ...
ROW 24 : F#4 00 6 ... ... ... : ... .. 0 ... V00 ... : --- .. . ... : ... .. . ... : ... .. . ... ... : ... .. . ... ... : ... .. . ... ... : ... .. . ... ...
ROW 25 : ... .. 5 ... ... ... : ... .. . ... ... ... : ... .. . ... : ... .. 0 ... : ... .. . ... ... : ... .. . ... ... : ... .. . ... ... : ... .. . ... ...
ROW 26 : A#3 00 D ... ... ... : C-2 00 F P83 V01 ... : C-3 00 . ... : ... .. . ... : ... .. . ... ... : G#3 01 A ... ... : C-4 01 A ... ... : F#4 01 F ... ...
ROW 27 : ... .. B ... ... ... : ... .. E ... ... ... : ... .. . ... : ... .. A ... : ... .. . ... ... : ... .. 9 ... ... : ... .. 9 ... ... : ... .. D ... ...
ROW 28 : ... .. . ... ... ... : ... .. D ... ... ... : ... .. . ... : ... .. 4 ... : ... .. . ... ... : ... .. 8 ... ... : ... .. 8 ... ... : ... .. 8 ... ...
ROW 29 : E-4 00 6 ... ... ... : ... .. A ... ... ... : ... .. . ... : ... .. . ... : ... .. . ... ... : ... .. 7 ... ... : ... .. 7 ... ... : ... .. . ... ...
ROW 2A : ... .. 5 ... ... ... : ... .. . ... ... ... : ... .. . ... : ... .. 0 ... : ... .. . ... ... : ... .. . ... ... : ... .. . ... ... : ... .. . ... ...
ROW 2B : C-4 00 D ... ... ... : ... .. . ... ... ... : ... .. . ... : ... .. . ... : ... .. . ... ... : ... .. 6 ... ... : ... .. 6 ... ... : ... .. . ... ...
ROW 2C : ... .. B ... ... ... : ... .. . ... ... ... : ... .. . ... : ... .. 8 ... : ... .. . ... ... : ... .. . ... ... : ... .. . ... ... : ... .. . ... ...
ROW 2D : ... .. . ... ... ... : ... .. . ... ... ... : ... .. . ... : ... .. 3 ... : ... .. . ... ... : ... .. 5 ... ... : ... .. 5 ... ... : ... .. . ... ...
ROW 2E : A#3 00 6 ... ... ... : ... .. 0 ... V00 ... : --- .. . ... : ... .. . ... : ... .. . ... ... : ... .. . ... ... : ... .. . ... ... : ... .. . ... ...
ROW 2F : ... .. 5 ... ... ... : ... .. . ... ... ... : ... .. . ... : ... .. 0 ... : ... .. . ... ... : ... .. . ... ... : ... .. . ... ... : ... .. . ... ...
ROW 30 : F#5 00 D ... ... ... : E-1 00 F P83 V01 ... : D#4 00 . ... : 2-# 00 F ... : ... .. . ... ... : A#3 01 A ... ... : D-4 01 A ... ... : G#4 01 F ... ...
ROW 31 : ... .. B ... ... ... : ... .. E ... ... ... : F-3 00 . ... : ... .. C ... : ... .. . ... ... : ... .. 9 ... ... : ... .. 9 ... ... : ... .. D ... ...
ROW 32 : ... .. . ... ... ... : ... .. D ... ... ... : A#2 00 . ... : ... .. 6 ... : ... .. . ... ... : ... .. 8 ... ... : ... .. 8 ... ... : ... .. 8 ... ...
ROW 33 : C-4 00 6 ... ... ... : ... .. 0 ... V00 ... : --- .. . ... : ... .. 3 ... : ... .. . ... ... : ... .. 7 ... ... : ... .. 7 ... ... : ... .. . ... ...
ROW 34 : ... .. 5 ... ... ... : ... .. . ... ... ... : ... .. . ... : ... .. 2 ... : ... .. . ... ... : ... .. . ... ... : ... .. . ... ... : ... .. . ... ...
ROW 35 : E-5 00 D ... ... ... : E-1 00 F P83 V01 ... : E-2 00 . ... : ... .. 0 ... : ... .. . ... ... : ... .. 6 ... ... : ... .. 6 ... ... : ... .. . ... ...
ROW 36 : ... .. B ... ... ... : ... .. E ... ... ... : ... .. . ... : B-# 00 8 ... : ... .. . ... ... : ... .. . ... ... : ... .. . ... ... : ... .. . ... ...
ROW 37 : ... .. . ... ... ... : ... .. D ... ... ... : ... .. . ... : ... .. 3 ... : ... .. . ... ... : ... .. 5 ... ... : ... .. 5 ... ... : ... .. . ... ...
ROW 38 : F#5 00 6 ... ... ... : ... .. 0 ... V00 ... : --- .. . ... : ... .. . ... : ... .. . ... ... : ... .. . ... ... : ... .. . ... ... : ... .. . ... ...
ROW 39 : ... .. 5 ... ... ... : ... .. . ... ... ... : ... .. . ... : ... .. 0 ... : ... .. . ... ... : ... .. . ... ... : ... .. . ... ... : ... .. . ... ...
ROW 3A : G#4 00 D ... ... ... : E-1 00 F P83 V01 ... : E-2 00 . ... : 2-# 00 F ... : ... .. . ... ... : G#3 01 A ... ... : C-4 01 A ... ... : F#4 01 F ... ...
ROW 3B : ... .. B ... ... ... : ... .. E ... ... ... : ... .. . ... : ... .. C ... : ... .. . ... ... : ... .. 9 ... ... : ... .. 9 ... ... : ... .. D ... ...
ROW 3C : ... .. . ... ... ... : ... .. D ... ... ... : ... .. . ... : ... .. 6 ... : ... .. . ... ... : ... .. 8 ... ... : ... .. 8 ... ... : ... .. 8 ... ...
ROW 3D : E-5 00 6 ... ... ... : ... .. 0 ... V00 ... : --- .. . ... : ... .. 3 ... : ... .. . ... ... : ... .. 7 ... ... : ... .. 7 ... ... : ... .. . ... ...
ROW 3E : ... .. 5 ... ... ... : ... .. . ... ... ... : ... .. . ... : ... .. 2 ... : ... .. . ... ... : ... .. . ... ... : ... .. . ... ... : ... .. . ... ...
ROW 3F : A#4 00 D ... ... ... : E-1 00 F P83 V01 ... : E-2 00 . ... : ... .. 0 ... : ... .. . ... ... : ... .. 6 ... ... : ... .. 6 ... ... : ... .. . ... ...
ROW 40 : ... .. B ... ... ... : ... .. E ... ... ... : ... .. . ... : B-# 00 8 ... : ... .. . ... ... : ... .. . ... ... : ... .. . ... ... : ... .. . ... ...
ROW 41 : ... .. . ... ... ... : ... .. D ... ... ... : ... .. . ... : ... .. 3 ... : ... .. . ... ... : ... .. 5 ... ... : ... .. 5 ... ... : ... .. . ... ...
ROW 42 : G#4 00 6 ... ... ... : ... .. 0 ... V00 ... : --- .. . ... : ... .. . ... : ... .. . ... ... : ... .. . ... ... : ... .. . ... ... : ... .. . ... ...
ROW 43 : ... .. 5 ... ... ... : ... .. . ... ... ... : ... .. . ... : ... .. 0 ... : ... .. . ... ... : ... .. . ... ... : ... .. . ... ... : ... .. . ... ...
ROW 44 : F#4 00 D ... ... ... : F#1 00 F P83 V01 ... : F#2 00 . ... : 7-# 00 F ... : ... .. . ... ... : A#3 01 A ... ... : D-4 01 A ... ... : G#4 01 F ... ...
ROW 45 : ... .. B ... ... ... : ... .. E ... ... ... : ... .. . ... : ... .. C ... : ... .. . ... ... : ... .. 9 ... ... : ... .. 9 ... ... : ... .. D ... ...
ROW 46 : ... .. . ... ... ... : ... .. D ... ... ... : ... .. . ... : ... .. A ... : ... .. . ... ... : ... .. 8 ... ... : ... .. 8 ... ... : ... .. 8 ... ...
ROW 47 : A#4 00 6 ... ... ... : ... .. A ... ... ... : ... .. . ... : ... .. 8 ... : ... .. . ... ... : ... .. 7 ... ... : ... .. 7 ... ... : ... .. . ... ...
ROW 48 : ... .. 5 ... ... ... : ... .. . ... ... ... : ... .. . ... : ... .. 7 ... : ... .. . ... ... : ... .. . ... ... : ... .. . ... ... : ... .. . ... ...
ROW 49 : E-4 00 D ... ... ... : ... .. . ... ... ... : ... .. . ... : ... .. 0 ... : ... .. . ... ... : ... .. 6 ... ... : ... .. 6 ... ... : ... .. . ... ...
ROW 4A : ... .. B ... ... ... : ... .. . ... ... ... : ... .. . ... : B-# 00 6 ... : ... .. . ... ... : ... .. . ... ... : ... .. . ... ... : ... .. . ... ...
ROW 4B : ... .. . ... ... ... : ... .. . ... ... ... : ... .. . ... : ... .. 2 ... : ... .. . ... ... : ... .. 5 ... ... : ... .. 5 ... ... : ... .. . ... ...
ROW 4C : F#4 00 6 ... ... ... : ... .. 0 ... V00 ... : --- .. . ... : ... .. . ... : ... .. . ... ... : ... .. . ... ... : ... .. . ... ... : ... .. . ... ...
ROW 4D : ... .. 5 ... ... ... : ... .. . ... ... ... : ... .. . ... : ... .. 0 ... : ... .. . ... ... : ... .. . ... ... : ... .. . ... ... : ... .. . ... ...
ROW 4E : A#3 00 D ... ... ... : F#2 00 F P83 V01 ... : F#3 00 . ... : ... .. . ... : ... .. . ... ... : C-4 01 A ... ... : E-4 01 A ... ... : A#4 01 F ... ...
ROW 4F : ... .. B ... ... ... : ... .. E ... ... ... : ... .. . ... : ... .. A ... : ... .. . ... ... : ... .. 9 ... ... : ... .. 9 ... ... : ... .. D ... ...
ROW 50 : ... .. . ... ... ... : ... .. D ... ... ... : ... .. . ... : ... .. 4 ... : ... .. . ... ... : ... .. 8 ... ... : ... .. 8 ... ... : ... .. 8 ... ...
ROW 51 : E-4 00 6 ... ... ... : ... .. A ... ... ... : ... .. . ... : ... .. . ... : ... .. . ... ... : ... .. 7 ... ... : ... .. 7 ... ... : ... .. . ... ...
ROW 52 : ... .. 5 ... ... ... : ... .. . ... ... ... : ... .. . ... : ... .. 0 ... : ... .. . ... ... : ... .. . ... ... : ... .. . ... ... : ... .. . ... ...
ROW 53 : C-4 00 D ... ... ... : ... .. . ... ... ... : ... .. . ... : ... .. . ... : ... .. . ... ... : ... .. 6 ... ... : ... .. 6 ... ... : ... .. . ... ...
ROW 54 : ... .. B ... ... ... : ... .. . ... ... ... : ... .. . ... : ... .. 8 ... : ... .. . ... ... : ... .. . ... ... : ... .. . ... ... : ... .. . ... ...
ROW 55 : ... .. . ... ... ... : ... .. . ... ... ... : ... .. . ... : ... .. 3 ... : ... .. . ... ... : ... .. 5 ... ... : ... .. 5 ... ... : ... .. . ... ...
ROW 56 : A#3 00 6 ... ... ... : ... .. . ... ... ... : ... .. . ... : ... .. . ... : ... .. . ... ... : ... .. . ... ... : ... .. . ... ... : ... .. . ... ...
ROW 57 : ... .. 5 ... ... ... : ... .. . ... ... ... : ... .. . ... : ... .. 0 ... : ... .. . ... ... : ... .. . ... ... : ... .. . ... ... : ... .. . ... ...
ROW 58 : F#5 00 D ... ... ... : E-2 00 F ... ... ... : D#5 00 . ... : 2-# 00 F ... : ... .. . ... ... : D-4 01 A ... ... : F#4 01 A ... ... : C-5 01 F ... ...
ROW 59 : ... .. B ... ... ... : ... .. E ... ... ... : F-4 00 . ... : ... .. C ... : ... .. . ... ... : ... .. 9 ... ... : ... .. 9 ... ... : ... .. D ... ...
ROW 5A : ... .. . ... ... ... : ... .. D ... ... ... : A#3 00 . ... : ... .. 6 ... : ... .. . ... ... : ... .. 8 ... ... : ... .. 8 ... ... : ... .. 8 ... ...
ROW 5B : C-4 00 6 ... ... ... : ... .. A ... ... ... : A-3 00 . ... : ... .. 3 ... : ... .. . ... ... : ... .. 7 ... ... : ... .. 7 ... ... : ... .. . ... ...
ROW 5C : ... .. 5 ... ... ... : ... .. . ... ... ... : E-3 00 . ... : ... .. 2 ... : ... .. . ... ... : ... .. . ... ... : ... .. . ... ... : ... .. . ... ...
ROW 5D : E-5 00 D ... ... ... : ... .. . ... ... ... : ... .. . ... : ... .. 0 ... : ... .. . ... ... : C-4 01 A ... ... : ... .. 6 ... ... : ... .. . ... ...
ROW 5E : ... .. B ... ... ... : ... .. . ... ... ... : ... .. . ... : B-# 00 8 ... : ... .. . ... ... : ... .. 9 ... ... : ... .. . ... ... : ... .. . ... ...
ROW 5F : ... .. . ... ... ... : ... .. . ... ... ... : ... .. . ... : ... .. 3 ... : ... .. . ... ... : ... .. 8 ... ... : ... .. 5 ... ... : ... .. . ... ...
ROW 60 : F#5 00 6 ... ... ... : ... .. . ... ... ... : ... .. . ... : ... .. . ... : ... .. . ... ... : ... .. 7 ... ... : ... .. . ... ... : ... .. . ... ...
ROW 61 : ... .. 5 ... ... ... : ... .. . ... ... ... : ... .. . ... : ... .. 0 ... : ... .. . ... ... : ... .. . ... ... : ... .. . ... ... : ... .. . ... ...
ROW 62 : G#4 00 D ... ... ... : C-2 00 F ... ... ... : B-4 00 . ... : C-# 00 8 ... : ... .. . ... ... : A#3 01 A ... ... : ... .. . ... ... : C#5 01 8 P83 ...
ROW 63 : ... .. B ... ... ... : ... .. E ... ... ... : C#4 00 . ... : ... .. 7 ... : ... .. . ... ... : ... .. 9 ... ... : ... .. . ... ... : D-5 01 8 ... ...
ROW 64 : ... .. . ... ... ... : ... .. D ... ... ... : F#3 00 . ... : ... .. . ... : ... .. . ... ... : ... .. 8 ... ... : ... .. . ... ... : ... .. . P81 ...
ROW 65 : E-5 00 6 ... ... ... : ... .. A ... ... ... : F-3 00 . ... : ... .. 6 ... : ... .. . ... ... : ... .. 7 ... ... : ... .. . ... ... : C#5 01 8 P7D ...
ROW 66 : ... .. 5 ... ... ... : ... .. . ... ... ... : C-3 00 . ... : ... .. 5 ... : ... .. . ... ... : ... .. . ... ... : ... .. . ... ... : B-4 01 8 P83 ...
ROW 67 : A#4 00 D ... ... ... : ... .. . ... ... ... : ... .. . ... : ... .. 4 ... : ... .. . ... ... : C-4 01 A ... ... : G-4 01 5 P81 ... : A#4 01 8 P81 ...
ROW 68 : ... .. B ... ... ... : ... .. . ... ... ... : ... .. . ... : ... .. . ... : ... .. . ... ... : ... .. 9 ... ... : G#4 01 5 P7F ... : ... .. . P7F ...
ROW 69 : ... .. . ... ... ... : ... .. . ... ... ... : ... .. . ... : ... .. . ... : ... .. . ... ... : ... .. 8 ... ... : ... .. . P7D ... : B-4 01 8 P7D ...
ROW 6A : G#4 00 6 ... ... ... : ... .. 0 ... V00 ... : --- .. . ... : ... .. 3 ... : ... .. . ... ... : ... .. 7 ... ... : F#4 01 5 P83 ... : C-5 01 8 P80 ...
ROW 6B : ... .. 5 ... ... ... : ... .. . ... ... ... : ... .. . ... : ... .. . ... : ... .. . ... ... : ... .. . ... ... : F-4 01 5 P84 ... : C#5 01 8 P82 ...
ROW 6C : F#4 00 D ... ... ... : A#1 00 F P83 V01 ... : A#2 00 . ... : 7-# 00 F ... : ... .. . ... ... : D-4 01 A ... ... : E-4 01 5 ... ... : G-4 01 F P80 ...
ROW 6D : ... .. B ... ... ... : ... .. E ... ... ... : ... .. . ... : ... .. C ... : ... .. . ... ... : ... .. 9 ... ... : ... .. . P82 ... : ... .. D ... ...
ROW 6E : ... .. . ... ... ... : ... .. D ... ... ... : ... .. . ... : ... .. A ... : ... .. . ... ... : ... .. 8 ... ... : F-4 01 5 P7E ... : ... .. 8 ... ...
ROW 6F : A#4 00 6 ... ... ... : ... .. A ... ... ... : ... .. . ... : ... .. 8 ... : ... .. . ... ... : ... .. 7 ... ... : F#4 01 5 P7F ... : ... .. . ... ...
ROW 70 : ... .. 5 ... ... ... : ... .. . ... ... ... : ... .. . ... : ... .. 7 ... : ... .. . ... ... : ... .. . ... ... : G-4 01 5 P80 ... : ... .. . ... ...
ROW 71 : E-4 00 D ... ... ... : ... .. . ... ... ... : ... .. . ... : ... .. 0 ... : ... .. . ... ... : E-4 01 A ... ... : G#4 01 5 P7F ... : G#4 01 F ... ...
ROW 72 : ... .. B ... ... ... : ... .. . ... ... ... : ... .. . ... : B-# 00 6 ... : ... .. . ... ... : ... .. 9 ... ... : ... .. . P7D ... : ... .. D ... ...
ROW 73 : ... .. . ... ... ... : ... .. . ... ... ... : ... .. . ... : ... .. 2 ... : ... .. . ... ... : ... .. 8 ... ... : G-4 01 5 ... ... : ... .. 8 ... ...
ROW 74 : F#4 00 6 ... ... ... : ... .. . ... ... ... : ... .. . ... : ... .. . ... : ... .. . ... ... : ... .. 7 ... ... : F#4 01 5 P7C ... : ... .. . ... ...
ROW 75 : ... .. 5 ... ... ... : ... .. . ... ... ... : ... .. . ... : ... .. 0 ... : ... .. . ... ... : ... .. . ... ... : E-4 01 5 P85 ... : ... .. . ... ...
ROW 76 : A#3 00 D ... ... ... : F#1 00 F ... ... ... : F#2 00 . ... : ... .. . ... : ... .. . ... ... : F#4 01 A ... ... : --- .. . ... ... : A#4 01 F ... ...
ROW 77 : ... .. B ... ... ... : ... .. E ... ... ... : ... .. . ... : ... .. A ... : ... .. . ... ... : ... .. 9 ... ... : ... .. . ... ... : ... .. D ... ...
ROW 78 : ... .. . ... ... ... : ... .. D ... ... ... : ... .. . ... : ... .. 4 ... : ... .. . ... ... : ... .. 8 ... ... : ... .. . ... ... : ... .. 8 ... ...
ROW 79 : E-4 00 6 ... ... ... : ... .. 0 ... V00 ... : --- .. . ... : ... .. . ... : ... .. . ... ... : ... .. 7 ... ... : ... .. . ... ... : ... .. . ... ...
ROW 7A : ... .. 5 ... ... ... : ... .. . ... ... ... : ... .. . ... : ... .. 0 ... : ... .. . ... ... : ... .. . ... ... : ... .. . ... ... : ... .. . ... ...
ROW 7B : C-4 00 D ... ... ... : F#1 00 F P83 V01 ... : F#2 00 . ... : ... .. . ... : ... .. . ... ... : G#4 01 A ... ... : ... .. . ... ... : C-5 01 F ... ...
ROW 7C : ... .. B ... ... ... : ... .. E ... ... ... : ... .. . ... : ... .. 8 ... : ... .. . ... ... : ... .. 9 ... ... : ... .. . ... ... : ... .. D ... ...
ROW 7D : ... .. . ... ... ... : ... .. D ... ... ... : ... .. . ... : ... .. 3 ... : ... .. . ... ... : ... .. 8 ... ... : ... .. . ... ... : ... .. 8 ... ...
ROW 7E : ... .. A ... ... ... : ... .. 0 ... V00 ... : --- .. . ... : ... .. . ... : ... .. . ... ... : ... .. 7 ... ... : ... .. . ... ... : ... .. . ... ...
ROW 7F : ... .. 8 ... ... ... : ... .. . ... ... ... : ... .. . ... : ... .. 0 ... : ... .. . ... ... : ... .. . ... ... : ... .. . ... ... : ... .. . ... ...
ROW 80 : C#4 00 F ... ... ... : G-2 00 F P83 V01 ... : F#4 00 . ... : 9-# 00 D ... : ... .. . ... ... : B-3 01 A ... ... : F-4 01 A P81 ... : C#5 01 F ... ...
ROW 81 : ... .. E ... ... ... : ... .. E ... ... ... : G#3 00 . ... : ... .. . ... : ... .. . ... ... : ... .. 9 ... ... : ... .. 9 ... ... : ... .. D ... ...
ROW 82 : ... .. D ... ... ... : ... .. D ... ... ... : C#3 00 . ... : ... .. . ... : ... .. . ... ... : ... .. 8 ... ... : ... .. 8 ... ... : ... .. 8 ... ...
ROW 83 : ... .. A ... ... ... : ... .. A ... ... ... : C-3 00 . ... : ... .. B ... : ... .. . ... ... : ... .. 7 ... ... : ... .. 7 ... ... : ... .. . ... ...
ROW 84 : ... .. . ... ... ... : ... .. . ... ... ... : G-2 00 . ... : ... .. . ... : ... .. . ... ... : ... .. . ... ... : ... .. . ... ... : ... .. . ... ...
ROW 85 : ... .. . ... ... ... : ... .. . ... ... ... : ... .. . ... : ... .. A ... : ... .. . ... ... : ... .. 6 ... ... : ... .. 6 ... ... : ... .. . ... ...
ROW 86 : ... .. . ... ... ... : ... .. . ... ... ... : ... .. . ... : ... .. . ... : ... .. . ... ... : ... .. . ... ... : ... .. . ... ... : ... .. . ... ...
ROW 87 : ... .. . ... ... ... : ... .. . ... ... ... : ... .. . ... : ... .. . ... : ... .. . ... ... : ... .. 5 ... ... : ... .. 5 ... ... : ... .. . ... ...
ROW 88 : ... .. 0 ... V00 ... : ... .. . ... ... ... : ... .. . ... : ... .. 9 ... : ... .. . ... ... : ... .. . ... ... : ... .. . ... ... : ... .. . ... ...
ROW 89 : ... .. . ... ... ... : ... .. . ... ... ... : ... .. . ... : ... .. . ... : ... .. . ... ... : ... .. . ... ... : ... .. . ... ... : ... .. . ... ...
ROW 8A : F-5 00 F P80 V01 ... : C#2 00 F ... ... ... : C#2 00 . ... : ... .. 7 ... : ... .. . ... ... : D-3 01 A ... ... : ... .. A ... ... : G-2 01 F ... ...
ROW 8B : ... .. E ... ... ... : ... .. E ... ... ... : ... .. . ... : ... .. . ... : ... .. . ... ... : ... .. 9 ... ... : ... .. 9 ... ... : ... .. D ... ...
ROW 8C : ... .. D ... ... ... : ... .. D ... ... ... : ... .. . ... : ... .. . ... : ... .. . ... ... : ... .. 8 ... ... : ... .. 8 ... ... : ... .. 8 ... ...
ROW 8D : ... .. 0 ... V00 ... : ... .. A ... ... ... : ... .. . ... : ... .. 6 ... : ... .. . ... ... : --- .. . P83 ... : ... .. 7 ... ... : ... .. . ... ...
ROW 8E : ... .. . ... ... ... : ... .. . ... ... ... : ... .. . ... : ... .. . ... : ... .. . ... ... : ... .. . ... ... : ... .. . ... ... : ... .. . ... ...
ROW 8F : F-5 00 F P80 V01 ... : ... .. . ... ... ... : ... .. . ... : ... .. 5 ... : ... .. . ... ... : D-3 01 A P81 ... : ... .. 6 ... ... : ... .. . ... ...
ROW 90 : ... .. E ... ... ... : ... .. . ... ... ... : ... .. . ... : ... .. . ... : ... .. . ... ... : ... .. 9 ... ... : ... .. . ... ... : ... .. . ... ...
ROW 91 : ... .. D ... ... ... : ... .. . ... ... ... : ... .. . ... : ... .. . ... : ... .. . ... ... : ... .. 8 ... ... : ... .. 5 ... ... : ... .. . ... ...
ROW 92 : ... .. 0 ... V00 ... : ... .. 0 ... V00 ... : --- .. . ... : ... .. 4 ... : ... .. . ... ... : --- .. . P83 ... : --- .. . ... ... : --- .. . P7D ...
ROW 93 : ... .. . ... ... ... : ... .. . ... ... ... : ... .. . ... : ... .. . ... : ... .. . ... ... : ... .. . ... ... : ... .. . ... ... : ... .. . ... ...
ROW 94 : B-4 00 F P80 V01 ... : G-2 00 F P83 V01 ... : F#4 00 . ... : 7-# 00 F ... : ... .. . ... ... : C#3 01 A P81 ... : F-4 01 A ... ... : G-1 01 F P80 ...
ROW 95 : ... .. E ... ... ... : ... .. E ... ... ... : G#3 00 . ... : ... .. C ... : ... .. . ... ... : ... .. 9 ... ... : ... .. 9 ... ... : ... .. D ... ...
ROW 96 : ... .. D ... ... ... : ... .. D ... ... ... : C#3 00 . ... : ... .. A ... : ... .. . ... ... : ... .. 8 ... ... : ... .. 8 ... ... : ... .. 8 ... ...
ROW 97 : ... .. A ... ... ... : ... .. 0 ... V00 ... : --- .. . ... : ... .. 8 ... : ... .. . ... ... : --- .. . P84 ... : ... .. 7 ... ... : ... .. . ... ...
ROW 98 : ... .. . ... ... ... : ... .. . ... ... ... : ... .. . ... : ... .. 7 ... : ... .. . ... ... : ... .. . ... ... : ... .. . ... ... : ... .. . ... ...
ROW 99 : ... .. . ... ... ... : G-2 00 F P83 V01 ... : G-2 00 . ... : ... .. 0 ... : ... .. . ... ... : C#3 01 A P81 ... : ... .. 6 ... ... : ... .. . ... ...
ROW 9A : ... .. . ... ... ... : ... .. E ... ... ... : ... .. . ... : B-# 00 6 ... : ... .. . ... ... : ... .. 9 ... ... : ... .. . ... ... : ... .. . ... ...
ROW 9B : ... .. . ... ... ... : ... .. D ... ... ... : ... .. . ... : ... .. 2 ... : ... .. . ... ... : ... .. 8 ... ... : ... .. 5 ... ... : ... .. . ... ...
ROW 9C : ... .. 0 ... V00 ... : ... .. 0 ... V00 ... : --- .. . ... : ... .. . ... : ... .. . ... ... : --- .. . P84 ... : --- .. . ... ... : --- .. . P81 ...
ROW 9D : ... .. . ... ... ... : ... .. . ... ... ... : ... .. . ... : ... .. 0 ... : ... .. . ... ... : ... .. . ... ... : ... .. . ... ... : ... .. . ... ...
ROW 9E : C#4 00 F P80 V01 ... : G#2 00 F P83 V01 ... : G-4 00 . ... : 9-# 00 D ... : ... .. . ... ... : F-3 01 A P81 ... : C#4 01 A ... ... : B-4 01 F P80 ...
ROW 9F : ... .. E ... ... ... : ... .. E ... ... ... : A-3 00 . ... : ... .. . ... : ... .. . ... ... : ... .. 9 ... ... : ... .. 9 ... ... : ... .. D ... ...
ROW A0 : ... .. D ... ... ... : ... .. D ... ... ... : D-3 00 . ... : ... .. . ... : ... .. . ... ... : ... .. 8 ... ... : ... .. 8 ... ... : ... .. 8 ... ...
ROW A1 : ... .. A ... ... ... : ... .. A ... ... ... : C#3 00 . ... : ... .. B ... : ... .. . ... ... : ... .. 7 ... ... : ... .. 7 ... ... : ... .. . ... ...
ROW A2 : ... .. . ... ... ... : ... .. . ... ... ... : G#2 00 . ... : ... .. . ... : ... .. . ... ... : ... .. . ... ... : ... .. . ... ... : ... .. . ... ...
ROW A3 : ... .. . ... ... ... : ... .. . ... ... ... : ... .. . ... : ... .. A ... : ... .. . ... ... : ... .. 6 ... ... : ... .. 6 ... ... : ... .. . ... ...
ROW A4 : ... .. . ... ... ... : ... .. . ... ... ... : ... .. . ... : ... .. . ... : ... .. . ... ... : ... .. . ... ... : ... .. . ... ... : ... .. . ... ...
ROW A5 : ... .. . ... ... ... : ... .. . ... ... ... : ... .. . ... : ... .. . ... : ... .. . ... ... : ... .. 5 ... ... : ... .. 5 ... ... : ... .. . ... ...
ROW A6 : ... .. 0 ... V00 ... : ... .. . ... ... ... : ... .. . ... : ... .. 9 ... : ... .. . ... ... : ... .. . ... ... : ... .. . ... ... : ... .. . ... ...
ROW A7 : ... .. . ... ... ... : ... .. . ... ... ... : ... .. . ... : ... .. . ... : ... .. . ... ... : ... .. . ... ... : ... .. . ... ... : ... .. . ... ...
ROW A8 : B-4 00 F P80 V01 ... : C#2 00 F ... ... ... : C#2 00 . ... : ... .. 7 ... : ... .. . ... ... : C#3 01 A ... ... : F-4 01 A ... ... : F-3 01 F ... ...
ROW A9 : ... .. E ... ... ... : ... .. E ... ... ... : ... .. . ... : ... .. . ... : ... .. . ... ... : ... .. 9 ... ... : ... .. 9 ... ... : ... .. D ... ...
ROW AA : ... .. D ... ... ... : ... .. D ... ... ... : ... .. . ... : ... .. . ... : ... .. . ... ... : ... .. 8 ... ... : ... .. 8 ... ... : ... .. 8 ... ...
ROW AB : ... .. 0 ... V00 ... : ... .. A ... ... ... : ... .. . ... : ... .. 6 ... : ... .. . ... ... : --- .. . P84 ... : ... .. 7 ... ... : ... .. . ... ...
ROW AC : ... .. . ... ... ... : ... .. . ... ... ... : ... .. . ... : ... .. . ... : ... .. . ... ... : ... .. . ... ... : ... .. . ... ... : ... .. . ... ...
ROW AD : B-4 00 F P80 V01 ... : ... .. . ... ... ... : ... .. . ... : ... .. 5 ... : ... .. . ... ... : C#3 01 A P81 ... : ... .. 6 ... ... : ... .. . ... ...
ROW AE : ... .. E ... ... ... : ... .. . ... ... ... : ... .. . ... : ... .. . ... : ... .. . ... ... : ... .. 9 ... ... : ... .. . ... ... : ... .. . ... ...
ROW AF : ... .. D ... ... ... : ... .. . ... ... ... : ... .. . ... : ... .. . ... : ... .. . ... ... : ... .. 8 ... ... : ... .. 5 ... ... : ... .. . ... ...
ROW B0 : ... .. 0 ... V00 ... : ... .. 0 ... V00 ... : --- .. . ... : ... .. 4 ... : ... .. . ... ... : --- .. . P84 ... : --- .. . ... ... : --- .. . P7F ...
ROW B1 : ... .. . ... ... ... : ... .. . ... ... ... : ... .. . ... : ... .. . ... : ... .. . ... ... : ... .. . ... ... : ... .. . ... ... : ... .. . ... ...
ROW B2 : F-4 00 F P80 V01 ... : B-1 00 F P83 V01 ... : A#3 00 . ... : 7-# 00 F ... : ... .. . ... ... : G-2 01 A P81 ... : F-4 01 A ... ... : G-1 01 F P80 ...
ROW B3 : ... .. E ... ... ... : ... .. E ... ... ... : C-3 00 . ... : ... .. C ... : ... .. . ... ... : ... .. 9 ... ... : ... .. 9 ... ... : ... .. D ... ...
ROW B4 : ... .. D ... ... ... : ... .. D ... ... ... : F-2 00 . ... : ... .. A ... : ... .. . ... ... : ... .. 8 ... ... : ... .. 8 ... ... : ... .. 8 ... ...
ROW B5 : ... .. 0 ... V00 ... : ... .. A ... ... ... : E-2 00 . ... : ... .. 8 ... : ... .. . ... ... : --- .. . P7F ... : ... .. 7 ... ... : ... .. . ... ...
ROW B6 : ... .. . ... ... ... : ... .. . ... ... ... : B-1 00 . ... : ... .. 7 ... : ... .. . ... ... : ... .. . ... ... : ... .. . ... ... : ... .. . ... ...
ROW B7 : F-4 00 F P80 V01 ... : ... .. . ... ... ... : ... .. . ... : ... .. 0 ... : ... .. . ... ... : G-2 01 A P81 ... : ... .. 6 ... ... : ... .. . ... ...
ROW B8 : ... .. E ... ... ... : ... .. . ... ... ... : ... .. . ... : B-# 00 6 ... : ... .. . ... ... : ... .. 9 ... ... : ... .. . ... ... : ... .. . ... ...
ROW B9 : ... .. D ... ... ... : ... .. . ... ... ... : ... .. . ... : ... .. 2 ... : ... .. . ... ... : ... .. 8 ... ... : ... .. 5 ... ... : ... .. . ... ...
ROW BA : ... .. 0 ... V00 ... : ... .. . ... ... ... : ... .. . ... : ... .. . ... : ... .. . ... ... : --- .. . P7F ... : --- .. . ... ... : --- .. . P81 ...
ROW BB : ... .. . ... ... ... : ... .. . ... ... ... : ... .. . ... : ... .. 0 ... : ... .. . ... ... : ... .. . ... ... : ... .. . ... ... : ... .. . ... ...
ROW BC : C#4 00 F P80 V01 ... : C#2 00 F ... ... ... : C-4 00 . ... : 9-# 00 D ... : ... .. . ... ... : F-4 01 A P81 ... : B-4 01 A ... ... : C#5 01 F P80 ...
ROW BD : ... .. E ... ... ... : ... .. E ... ... ... : D-3 00 . ... : ... .. . ... : ... .. . ... ... : ... .. 9 ... ... : ... .. 9 ... ... : ... .. D ... ...
ROW BE : ... .. D ... ... ... : ... .. D ... ... ... : G-2 00 . ... : ... .. . ... : ... .. . ... ... : ... .. 8 ... ... : ... .. 8 ... ... : ... .. 8 ... ...
ROW BF : ... .. A ... ... ... : ... .. A ... ... ... : F#2 00 . ... : ... .. B ... : ... .. . ... ... : ... .. 7 ... ... : ... .. 7 ... ... : ... .. . ... ...
ROW C0 : ... .. . ... ... ... : ... .. . ... ... ... : C#2 00 . ... : ... .. . ... : ... .. . ... ... : ... .. . ... ... : ... .. . ... ... : ... .. . ... ...
ROW C1 : ... .. . ... ... ... : ... .. . ... ... ... : ... .. . ... : ... .. A ... : ... .. . ... ... : ... .. 6 ... ... : ... .. 6 ... ... : ... .. . ... ...
ROW C2 : ... .. . ... ... ... : ... .. . ... ... ... : ... .. . ... : ... .. . ... : ... .. . ... ... : ... .. . ... ... : ... .. . ... ... : ... .. . ... ...
ROW C3 : ... .. . ... ... ... : ... .. . ... ... ... : ... .. . ... : ... .. . ... : ... .. . ... ... : ... .. 5 ... ... : ... .. 5 ... ... : ... .. . ... ...
ROW C4 : ... .. . ... ... ... : ... .. . ... ... ... : ... .. . ... : ... .. 9 ... : ... .. . ... ... : ... .. . ... ... : ... .. . ... ... : ... .. . ... ...
ROW C5 : ... .. . ... ... ... : ... .. . ... ... ... : ... .. . ... : ... .. . ... : ... .. . ... ... : ... .. . ... ... : ... .. . ... ... : ... .. . ... ...
ROW C6 : F-5 00 F ... ... ... : E-1 00 F ... ... ... : E-1 00 . ... : ... .. 7 ... : ... .. . ... ... : D-3 01 A ... ... : F-4 01 A ... ... : G-3 01 F ... ...
ROW C7 : ... .. E ... ... ... : ... .. E ... ... ... : ... .. . ... : ... .. . ... : ... .. . ... ... : ... .. 9 ... ... : ... .. 9 ... ... : ... .. D ... ...
ROW C8 : ... .. D ... ... ... : ... .. D ... ... ... : ... .. . ... : ... .. . ... : ... .. . ... ... : ... .. 8 ... ... : ... .. 8 ... ... : ... .. 8 ... ...
ROW C9 : ... .. 0 ... V00 ... : ... .. A ... ... ... : ... .. . ... : ... .. 6 ... : ... .. . ... ... : --- .. . P83 ... : ... .. 7 ... ... : ... .. . ... ...
ROW CA : ... .. . ... ... ... : ... .. . ... ... ... : ... .. . ... : ... .. . ... : ... .. . ... ... : ... .. . ... ... : ... .. . ... ... : ... .. . ... ...
ROW CB : F-5 00 F P80 V01 ... : ... .. . ... ... ... : ... .. . ... : ... .. 5 ... : ... .. . ... ... : D-3 01 A P81 ... : ... .. 6 ... ... : ... .. . ... ...
ROW CC : ... .. E ... ... ... : ... .. . ... ... ... : ... .. . ... : ... .. . ... : ... .. . ... ... : ... .. 9 ... ... : ... .. . ... ... : ... .. . ... ...
ROW CD : ... .. D ... ... ... : ... .. . ... ... ... : ... .. . ... : ... .. . ... : ... .. . ... ... : ... .. 8 ... ... : ... .. 5 ... ... : ... .. . ... ...
ROW CE : ... .. 0 ... V00 ... : ... .. 0 ... V00 ... : --- .. . ... : ... .. 4 ... : ... .. . ... ... : --- .. . P83 ... : --- .. . ... ... : --- .. . P7F ...
ROW CF : ... .. . ... ... ... : ... .. . ... ... ... : ... .. . ... : ... .. . ... : ... .. . ... ... : ... .. . ... ... : ... .. . ... ... : ... .. . ... ...
ROW D0 : B-4 00 F P80 V01 ... : B-3 00 F P83 V01 ... : A#5 00 . ... : 7-# 00 F ... : ... .. . ... ... : C#3 01 A P81 ... : F-4 01 A ... ... : G-1 01 F P80 ...
ROW D1 : ... .. E ... ... ... : ... .. E ... ... ... : C-5 00 . ... : ... .. C ... : ... .. . ... ... : ... .. 9 ... ... : ... .. 9 ... ... : ... .. D ... ...
ROW D2 : ... .. D ... ... ... : ... .. D ... ... ... : F-4 00 . ... : ... .. A ... : ... .. . ... ... : ... .. 8 ... ... : ... .. 8 ... ... : ... .. 8 ... ...
ROW D3 : ... .. 0 ... V00 ... : ... .. A ... ... ... : E-4 00 . ... : ... .. 8 ... : ... .. . ... ... : --- .. . P84 ... : ... .. 7 ... ... : ... .. . ... ...
ROW D4 : ... .. . ... ... ... : ... .. . ... ... ... : B-3 00 . ... : ... .. 7 ... : ... .. . ... ... : ... .. . ... ... : ... .. . ... ... : ... .. . ... ...
ROW D5 : B-4 00 F P80 V01 ... : A-3 00 A P7F ... ... : ... .. . ... : ... .. 0 ... : ... .. . ... ... : C#3 01 A P81 ... : ... .. 6 ... ... : ... .. . ... ...
ROW D6 : ... .. E ... ... ... : G-3 00 A P7E ... ... : A-3 00 . P7C : B-# 00 6 ... : ... .. . ... ... : ... .. 9 ... ... : ... .. . ... ... : ... .. . ... ...
ROW D7 : ... .. D ... ... ... : F-3 00 A P81 ... ... : G-3 00 . P7B : ... .. 2 ... : ... .. . ... ... : ... .. 8 ... ... : ... .. 5 ... ... : ... .. . ... ...
ROW D8 : ... .. 0 ... V00 ... : D#3 00 A P89 ... ... : F-3 00 . P7E : ... .. 3 ... : ... .. . ... ... : --- .. . P84 ... : --- .. . ... ... : --- .. . P81 ...
ROW D9 : ... .. . ... ... ... : D-3 00 A P7E ... ... : D#3 00 . P86 : ... .. 0 ... : ... .. . ... ... : ... .. . ... ... : ... .. . ... ... : ... .. . ... ...
ROW DA : C#4 00 F P80 V01 ... : C#3 00 F P83 ... ... : C-5 00 . P80 : 9-# 00 D ... : ... .. . ... ... : F-3 01 A P81 ... : B-3 01 A ... ... : G-4 01 F P80 ...
ROW DB : ... .. E ... ... ... : ... .. E ... ... ... : D-4 00 . ... : ... .. . ... : ... .. . ... ... : ... .. 9 ... ... : ... .. 9 ... ... : ... .. D ... ...
ROW DC : ... .. D ... ... ... : ... .. D ... ... ... : G-3 00 . ... : ... .. . ... : ... .. . ... ... : ... .. 8 ... ... : ... .. 8 ... ... : ... .. 8 ... ...
ROW DD : ... .. A ... ... ... : ... .. 0 ... V00 ... : --- .. . ... : ... .. B ... : ... .. . ... ... : ... .. 7 ... ... : ... .. 7 ... ... : ... .. . ... ...
ROW DE : ... .. . ... ... ... : ... .. . ... ... ... : ... .. . ... : ... .. . ... : ... .. . ... ... : ... .. . ... ... : ... .. . ... ... : ... .. . ... ...
ROW DF : ... .. . ... ... ... : C#3 00 F P83 V01 ... : C#3 00 . ... : ... .. A ... : ... .. . ... ... : ... .. 6 ... ... : ... .. 6 ... ... : ... .. . ... ...
ROW E0 : ... .. . ... ... ... : ... .. E ... ... ... : ... .. . ... : ... .. . ... : ... .. . ... ... : ... .. . ... ... : ... .. . ... ... : ... .. . ... ...
ROW E1 : ... .. . ... ... ... : ... .. D ... ... ... : ... .. . ... : ... .. . ... : ... .. . ... ... : ... .. 5 ... ... : ... .. 5 ... ... : ... .. . ... ...
ROW E2 : ... .. . ... ... ... : ... .. 0 ... V00 ... : --- .. . ... : ... .. 9 ... : ... .. . ... ... : ... .. . ... ... : ... .. . ... ... : ... .. . ... ...
ROW E3 : ... .. . ... ... ... : ... .. . ... ... ... : ... .. . ... : ... .. . ... : ... .. . ... ... : ... .. . ... ... : ... .. . ... ... : ... .. . ... ...
ROW E4 : B-4 00 F ... ... ... : F-3 00 F P83 V01 ... : F-3 00 . ... : ... .. 7 ... : ... .. . ... ... : F-2 01 A ... ... : F-4 01 A ... ... : F-3 01 F ... ...
ROW E5 : ... .. E ... ... ... : ... .. E ... ... ... : ... .. . ... : ... .. . ... : ... .. . ... ... : ... .. 9 ... ... : ... .. 9 ... ... : ... .. D ... ...
ROW E6 : ... .. D ... ... ... : ... .. D ... ... ... : ... .. . ... : ... .. . ... : ... .. . ... ... : ... .. 8 ... ... : ... .. 8 ... ... : ... .. 8 ... ...
ROW E7 : ... .. 0 ... V00 ... : ... .. A ... ... ... : ... .. . ... : ... .. 6 ... : ... .. . ... ... : --- .. . P7F ... : ... .. 7 ... ... : ... .. . ... ...
ROW E8 : ... .. . ... ... ... : ... .. . ... ... ... : ... .. . ... : ... .. . ... : ... .. . ... ... : ... .. . ... ... : ... .. . ... ... : ... .. . ... ...
ROW E9 : B-4 00 F P80 V01 ... : ... .. . ... ... ... : ... .. . ... : ... .. 5 ... : ... .. . ... ... : F-2 01 A P81 ... : ... .. 6 ... ... : ... .. . ... ...
ROW EA : ... .. E ... ... ... : ... .. . ... ... ... : ... .. . ... : ... .. . ... : ... .. . ... ... : ... .. 9 ... ... : ... .. . ... ... : ... .. . ... ...
ROW EB : ... .. D ... ... ... : ... .. . ... ... ... : ... .. . ... : ... .. . ... : ... .. . ... ... : ... .. 8 ... ... : ... .. 5 ... ... : ... .. . ... ...
ROW EC : ... .. 0 ... V00 ... : ... .. . ... ... ... : ... .. . ... : ... .. 4 ... : ... .. . ... ... : --- .. . P7F ... : --- .. . ... ... : --- .. . P7F ...
ROW ED : ... .. . ... ... ... : ... .. . ... ... ... : ... .. . ... : ... .. . ... : ... .. . ... ... : ... .. . ... ... : ... .. . ... ... : ... .. . ... ...
ROW EE : F-4 00 F P80 V01 ... : B-2 00 F ... ... ... : A#4 00 . ... : 7-# 00 F ... : ... .. . ... ... : G-2 01 A P81 ... : F-4 01 A ... ... : C#3 01 F P80 ...
ROW EF : ... .. E ... ... ... : ... .. E ... ... ... : C-4 00 . ... : ... .. C ... : ... .. . ... ... : ... .. 9 ... ... : ... .. 9 ... ... : ... .. D ... ...
ROW F0 : ... .. D ... ... ... : ... .. D ... ... ... : F-3 00 . ... : ... .. A ... : ... .. . ... ... : ... .. 8 ... ... : ... .. 8 ... ... : ... .. 8 ... ...
ROW F1 : ... .. 0 ... V00 ... : ... .. A ... ... ... : E-3 00 . ... : ... .. 8 ... : ... .. . ... ... : --- .. . P7F ... : ... .. 7 ... ... : ... .. . ... ...
ROW F2 : ... .. . ... ... ... : ... .. . ... ... ... : B-2 00 . ... : ... .. 7 ... : ... .. . ... ... : ... .. . ... ... : ... .. . ... ... : ... .. . ... ...
ROW F3 : F-4 00 F P80 V01 ... : ... .. . ... ... ... : ... .. . ... : ... .. 0 ... : ... .. . ... ... : G-2 01 A P81 ... : ... .. 6 ... ... : ... .. . ... ...
ROW F4 : ... .. E ... ... ... : ... .. . ... ... ... : ... .. . ... : B-# 00 6 ... : ... .. . ... ... : ... .. 9 ... ... : ... .. . ... ... : ... .. . ... ...
ROW F5 : ... .. D ... ... ... : ... .. . ... ... ... : ... .. . ... : ... .. 2 ... : ... .. . ... ... : ... .. 8 ... ... : ... .. 5 ... ... : ... .. . ... ...
ROW F6 : ... .. 0 ... V00 ... : ... .. 0 ... V00 ... : --- .. . ... : ... .. 3 ... : ... .. . ... ... : --- .. . P7F ... : --- .. . ... ... : --- .. . ... ...
ROW F7 : ... .. . ... ... ... : ... .. . ... ... ... : ... .. . ... : ... .. 0 ... : ... .. . ... ... : ... .. . ... ... : ... .. . ... ... : ... .. . ... ...
ROW F8 : B-3 00 F P80 V01 ... : C#2 00 F P83 V01 ... : G#5 00 . P7F : 5-# 00 F ... : ... .. . ... ... : B-2 01 A P81 ... : D#4 01 A ... ... : B-2 01 F ... ...
ROW F9 : ... .. E ... ... ... : ... .. E ... ... ... : E-5 00 . P82 : ... .. C ... : ... .. . ... ... : ... .. 9 ... ... : ... .. 9 ... ... : ... .. D ... ...
ROW FA : ... .. D ... ... ... : ... .. D ... ... ... : C#5 00 . P83 : ... .. A ... : ... .. . ... ... : ... .. 8 ... ... : ... .. 8 ... ... : ... .. 8 ... ...
ROW FB : ... .. A ... ... ... : ... .. 0 ... V00 ... : B-4 00 . P80 : ... .. 8 ... : ... .. . ... ... : ... .. 7 ... ... : ... .. 7 ... ... : ... .. . ... ...
ROW FC : ... .. . ... ... ... : ... .. . ... ... ... : --- .. . ... : ... .. 7 ... : ... .. . ... ... : ... .. . ... ... : ... .. . ... ... : ... .. . ... ...
ROW FD : ... .. F ... ... ... : C#2 00 F P83 V01 ... : G#5 00 . P7F : ... .. F ... : ... .. . ... ... : ... .. A ... ... : ... .. 6 ... ... : C#3 01 F ... ...
ROW FE : ... .. E ... ... ... : ... .. E ... ... ... : E-5 00 . P82 : ... .. C ... : ... .. . ... ... : ... .. 9 ... ... : ... .. . ... ... : ... .. D ... ...
ROW FF : ... .. D ... ... ... : ... .. D ... ... ... : C#5 00 . P83 : ... .. A ... : ... .. . ... ... : ... .. 8 ... ... : ... .. 5 ... ... : ... .. 8 ... ...

PATTERN 08
ROW 00 : ... .. 0 ... V00 ... : ... .. 0 ... V00 ... : B-4 00 . P80 : ... .. 8 ... : ... .. . ... ... : ... .. 7 ... ... : ... .. . ... ... : ... .. 4 ... ...
ROW 01 : ... .. . ... ... ... : ... .. . ... ... ... : --- .. . ... : ... .. 7 ... : ... .. . ... ... : ... .. . ... ... : ... .. . ... ... : ... .. . ... ...
ROW 02 : C#4 00 F P80 V01 ... : D-2 00 F P83 V01 ... : A#4 00 . P7E : D-# 00 F ... : ... .. . ... ... : C#3 01 A ... ... : B-3 01 A ... ... : F-3 01 F ... ...
ROW 03 : ... .. E ... ... ... : ... .. E ... ... ... : G#4 00 . ... : ... .. C ... : ... .. . ... ... : ... .. 9 ... ... : ... .. 9 ... ... : ... .. D ... ...
ROW 04 : ... .. D ... ... ... : ... .. D ... ... ... : F#4 00 . P7F : ... .. A ... : ... .. . ... ... : ... .. 8 ... ... : ... .. 8 ... ... : ... .. 8 ... ...
ROW 05 : ... .. 0 ... V00 ... : ... .. A ... ... ... : E-4 00 . P83 : ... .. 8 ... : ... .. . ... ... : ... .. 7 ... ... : ... .. 7 ... ... : ... .. 4 ... ...
ROW 06 : ... .. . ... ... ... : ... .. . ... ... ... : --- .. . ... : ... .. 7 ... : ... .. . ... ... : ... .. . ... ... : ... .. . ... ... : ... .. . ... ...
ROW 07 : C#4 00 F P80 V01 ... : ... .. . ... ... ... : A#4 00 . P7E : ... .. F ... : ... .. . ... ... : ... .. A ... ... : ... .. 6 ... ... : G-3 01 F ... ...
ROW 08 : ... .. E ... ... ... : ... .. . ... ... ... : G#4 00 . ... : ... .. C ... : ... .. . ... ... : ... .. 9 ... ... : ... .. . ... ... : ... .. D ... ...
ROW 09 : ... .. D ... ... ... : ... .. . ... ... ... : F#4 00 . P7F : ... .. A ... : ... .. . ... ... : ... .. 8 ... ... : ... .. 5 ... ... : ... .. 8 ... ...
ROW 0A : ... .. 0 ... V00 ... : ... .. . ... ... ... : E-4 00 . P83 : ... .. 8 ... : ... .. . ... ... : ... .. 7 ... ... : ... .. . ... ... : ... .. 4 ... ...
ROW 0B : ... .. . ... ... ... : ... .. . ... ... ... : --- .. . ... : ... .. 7 ... : ... .. . ... ... : ... .. . ... ... : ... .. . ... ... : ... .. . ... ...
ROW 0C : A-3 00 F P80 V01 ... : C#4 00 F ... ... ... : D-4 00 . P85 : 6-# 00 F ... : ... .. . ... ... : D-3 01 A ... ... : F-4 01 A ... ... : A#3 01 F ... ...
ROW 0D : ... .. E ... ... ... : ... .. E ... ... ... : C#4 00 . P82 : ... .. C ... : ... .. . ... ... : ... .. 9 ... ... : ... .. 9 ... ... : ... .. D ... ...
ROW 0E : ... .. D ... ... ... : ... .. D ... ... ... : C-4 00 . P7F : ... .. A ... : ... .. . ... ... : ... .. 8 ... ... : ... .. 8 ... ... : ... .. 8 ... ...
ROW 0F : ... .. 0 ... V00 ... : ... .. A ... ... ... : B-3 00 . P7C : ... .. 8 ... : ... .. . ... ... : --- .. . P83 ... : ... .. 7 ... ... : ... .. 4 ... ...
ROW 10 : ... .. . ... ... ... : ... .. . ... ... ... : --- .. . ... : ... .. 7 ... : ... .. . ... ... : ... .. . ... ... : ... .. . ... ... : ... .. . ... ...
ROW 11 : B-3 00 F P80 V01 ... : ... .. . ... ... ... : D-4 00 . P85 : ... .. F ... : ... .. . ... ... : D-3 01 A P81 ... : ... .. 6 ... ... : B-3 01 F ... ...
ROW 12 : ... .. E ... ... ... : ... .. . ... ... ... : C#4 00 . P82 : ... .. C ... : ... .. . ... ... : ... .. 9 ... ... : ... .. . ... ... : ... .. D ... ...
ROW 13 : ... .. D ... ... ... : ... .. . ... ... ... : C-4 00 . P7F : ... .. A ... : ... .. . ... ... : ... .. 8 ... ... : ... .. 5 ... ... : ... .. 8 ... ...
ROW 14 : ... .. 0 ... V00 ... : ... .. . ... ... ... : B-3 00 . P7C : ... .. 8 ... : ... .. . ... ... : --- .. . P83 ... : ... .. . ... ... : ... .. 4 ... ...
ROW 15 : ... .. . ... ... ... : ... .. . ... ... ... : --- .. . ... : ... .. 7 ... : ... .. . ... ... : ... .. . ... ... : ... .. . ... ... : ... .. . ... ...
ROW 16 : C-4 00 F P80 V01 ... : F-3 00 F ... ... ... : D#3 00 . P86 : 4-# 00 F ... : ... .. . ... ... : E-3 01 A P81 ... : G-4 01 A ... ... : C#4 01 F ... ...
ROW 17 : ... .. E ... ... ... : ... .. E ... ... ... : ... .. . P77 : ... .. C ... : ... .. . ... ... : ... .. 9 ... ... : ... .. 9 ... ... : ... .. D ... ...
ROW 18 : ... .. D ... ... ... : ... .. D ... ... ... : D-3 00 . P7D : ... .. A ... : ... .. . ... ... : ... .. 8 ... ... : ... .. 8 ... ... : ... .. 8 ... ...
ROW 19 : ... .. 0 ... V00 ... : ... .. A ... ... ... : C#3 00 . P85 : ... .. 8 ... : ... .. . ... ... : --- .. . P7E ... : ... .. 7 ... ... : ... .. 4 ... ...
ROW 1A : ... .. . ... ... ... : ... .. . ... ... ... : --- .. . ... : ... .. 7 ... : ... .. . ... ... : ... .. . ... ... : ... .. . ... ... : ... .. . ... ...
ROW 1B : D-4 00 F P80 V01 ... : ... .. . ... ... ... : D#3 00 . P86 : ... .. F ... : ... .. . ... ... : E-3 01 A P81 ... : ... .. 6 ... ... : D-4 01 F ... ...
ROW 1C : ... .. E ... ... ... : ... .. . ... ... ... : ... .. . P77 : ... .. C ... : ... .. . ... ... : ... .. 9 ... ... : ... .. . ... ... : ... .. D ... ...
ROW 1D : ... .. D ... ... ... : ... .. . ... ... ... : D-3 00 . P7D : ... .. A ... : ... .. . ... ... : ... .. 8 ... ... : ... .. 5 ... ... : ... .. 8 ... ...
ROW 1E : ... .. 0 ... V00 ... : ... .. 0 ... V00 ... : C#3 00 . P85 : ... .. 8 ... : ... .. . ... ... : --- .. . P7E ... : ... .. . ... ... : ... .. 4 ... ...
ROW 1F : ... .. . ... ... ... : ... .. . ... ... ... : --- .. . ... : ... .. 7 ... : ... .. . ... ... : ... .. . ... ... : ... .. . ... ... : ... .. . ... ...
ROW 20 : D#4 00 D P80 V01 ... : G-4 00 D P83 V01 ... : B-3 00 . P80 : 9-# 00 D ... : ... .. . ... ... : D#4 01 8 P80 ... : C-5 01 6 ... V05 : C-2 01 F P81 ...
ROW 21 : ... .. C ... ... ... : ... .. C ... ... ... : C#3 00 . ... : ... .. . ... : ... .. . ... ... : ... .. 7 ... ... : ... .. 5 ... ... : ... .. D ... ...
ROW 22 : ... .. B ... ... ... : ... .. B ... ... ... : F#2 00 . ... : ... .. . ... : ... .. . ... ... : ... .. 6 ... ... : ... .. . ... ... : ... .. 8 ... ...
ROW 23 : ... .. 2 P81 ... ... : ... .. 2 P80 ... ... : F-2 00 . ... : ... .. B ... : ... .. . ... ... : ... .. 5 ... ... : ... .. . P80 ... : ... .. . ... ...
ROW 24 : ... .. . ... ... ... : ... .. . ... ... ... : C-2 00 . ... : ... .. . ... : ... .. . ... ... : ... .. . ... ... : ... .. 4 ... ... : ... .. . ... ...
ROW 25 : ... .. D ... ... ... : ... .. D ... ... ... : ... .. . ... : ... .. A ... : ... .. . ... ... : C-4 01 8 ... ... : ... .. . ... ... : ... .. . ... ...
ROW 26 : ... .. C ... ... ... : ... .. C ... ... ... : ... .. . ... : ... .. . ... : ... .. . ... ... : ... .. 7 ... ... : ... .. . ... ... : ... .. . ... ...
ROW 27 : ... .. B ... ... ... : ... .. B ... ... ... : ... .. . ... : ... .. . ... : ... .. . ... ... : ... .. 6 ... ... : ... .. . ... ... : ... .. . ... ...
ROW 28 : ... .. 2 ... ... ... : ... .. 2 ... ... ... : ... .. . ... : ... .. 9 ... : ... .. . ... ... : ... .. 5 ... ... : ... .. . ... ... : ... .. . ... ...
ROW 29 : ... .. . ... ... ... : ... .. . ... ... ... : --- .. . ... : ... .. . ... : ... .. . ... ... : ... .. . ... ... : ... .. . ... ... : --- .. . P7D ...
ROW 2A : ... .. D ... ... ... : ... .. D ... ... ... : C-3 00 . ... : ... .. 7 ... : ... .. . ... ... : G-3 01 8 ... ... : ... .. . ... ... : C-3 01 F P81 ...
ROW 2B : ... .. C ... ... ... : ... .. C ... ... ... : ... .. . ... : ... .. . ... : ... .. . ... ... : ... .. 7 ... ... : ... .. . ... ... : ... .. D ... ...
ROW 2C : ... .. B ... ... ... : ... .. B ... ... ... : ... .. . ... : ... .. . ... : ... .. . ... ... : ... .. 6 ... ... : ... .. . ... ... : ... .. 8 ... ...
ROW 2D : ... .. 2 ... ... ... : ... .. 2 ... ... ... : ... .. . ... : ... .. 6 ... : ... .. . ... ... : ... .. 5 ... ... : ... .. . ... ... : ... .. . ... ...
ROW 2E : ... .. . ... ... ... : ... .. . ... ... ... : --- .. . ... : ... .. . ... : ... .. . ... ... : ... .. . ... ... : ... .. . ... ... : --- .. . P7F ...
ROW 2F : ... .. D ... ... ... : ... .. D ... ... ... : C-3 00 . ... : ... .. 5 ... : ... .. . ... ... : D#3 01 8 ... ... : ... .. . ... ... : C-3 01 F P81 ...
ROW 30 : ... .. C ... ... ... : ... .. C ... ... ... : ... .. . ... : ... .. . ... : ... .. . ... ... : ... .. 7 ... ... : ... .. . ... ... : ... .. D ... ...
ROW 31 : ... .. B ... ... ... : ... .. B ... ... ... : ... .. . ... : ... .. . ... : ... .. . ... ... : ... .. 6 ... ... : ... .. . ... ... : ... .. 8 ... ...
ROW 32 : ... .. 2 ... ... ... : ... .. 2 ... ... ... : ... .. . ... : ... .. 4 ... : ... .. . ... ... : ... .. 5 ... ... : ... .. 5 ... ... : ... .. . ... ...
ROW 33 : ... .. . ... ... ... : ... .. . ... ... ... : --- .. . ... : ... .. . ... : ... .. . ... ... : ... .. . ... ... : ... .. . ... ... : --- .. . P7F ...
ROW 34 : D-4 00 D ... V02 ... : F#4 00 D ... V02 ... : C-3 00 . ... : 7-# 00 F ... : ... .. . ... ... : D-4 01 8 ... ... : C#5 01 5 P7E ... : C-3 01 F P81 ...
ROW 35 : ... .. C ... ... ... : ... .. C ... ... ... : ... .. . ... : ... .. C ... : ... .. . ... ... : ... .. 7 ... ... : ... .. . P80 ... : ... .. D ... ...
ROW 36 : ... .. B ... ... ... : ... .. B ... ... ... : ... .. . ... : ... .. A ... : ... .. . ... ... : ... .. 6 ... ... : ... .. . P7F ... : ... .. 8 ... ...
ROW 37 : ... .. 2 ... ... ... : ... .. 2 ... ... ... : ... .. . ... : ... .. 8 ... : ... .. . ... ... : ... .. 5 ... ... : C-5 01 5 P82 ... : ... .. . ... ...
ROW 38 : ... .. . ... ... ... : ... .. . ... ... ... : --- .. . ... : ... .. 7 ... : ... .. . ... ... : ... .. . ... ... : ... .. . P7E ... : --- .. . P7F ...
ROW 39 : ... .. D ... ... ... : ... .. D ... ... ... : C-3 00 . ... : ... .. 0 ... : ... .. . ... ... : B-3 01 8 ... ... : B-4 01 5 P81 ... : C-3 01 F P81 ...
ROW 3A : ... .. C ... ... ... : ... .. C ... ... ... : ... .. . ... : B-# 00 6 ... : ... .. . ... ... : ... .. 7 ... ... : ... .. . P80 ... : ... .. D ... ...
ROW 3B : ... .. B ... ... ... : ... .. B ... ... ... : ... .. . ... : ... .. 2 ... : ... .. . ... ... : ... .. 6 ... ... : ... .. . P82 ... : ... .. 8 ... ...
ROW 3C : ... .. 2 ... ... ... : ... .. 2 ... ... ... : ... .. . ... : ... .. . ... : ... .. . ... ... : ... .. 5 ... ... : C-5 01 5 P80 ... : ... .. . ... ...
ROW 3D : ... .. . ... ... ... : ... .. . ... ... ... : --- .. . ... : ... .. 0 ... : ... .. . ... ... : ... .. . ... ... : ... .. . P83 ... : --- .. . P7F ...
ROW 3E : ... .. D ... ... ... : ... .. D ... ... ... : C-3 00 . ... : ... .. . ... : ... .. . ... ... : F#3 01 8 ... ... : C#5 01 6 P80 ... : C-3 01 F P81 ...
ROW 3F : ... .. C ... ... ... : ... .. C ... ... ... : ... .. . ... : ... .. A ... : ... .. . ... ... : ... .. 7 ... ... : ... .. . ... ... : ... .. D ... ...
ROW 40 : ... .. B ... ... ... : ... .. B ... ... ... : ... .. . ... : ... .. 4 ... : ... .. . ... ... : ... .. 6 ... ... : C-5 01 6 P82 ... : ... .. 8 ... ...
ROW 41 : ... .. 2 ... ... ... : ... .. 2 ... ... ... : ... .. . ... : ... .. . ... : ... .. . ... ... : ... .. 5 ... ... : ... .. . P7F ... : ... .. . ... ...
ROW 42 : ... .. . ... ... ... : ... .. . ... ... ... : --- .. . ... : ... .. 0 ... : ... .. . ... ... : ... .. . ... ... : B-4 01 6 P81 ... : --- .. . P7F ...
ROW 43 : ... .. D ... ... ... : ... .. D ... ... ... : C-3 00 . ... : ... .. . ... : ... .. . ... ... : D-3 01 8 ... ... : ... .. . P80 ... : C-3 01 F P81 ...
ROW 44 : ... .. C ... ... ... : ... .. C ... ... ... : ... .. . ... : ... .. 8 ... : ... .. . ... ... : ... .. 7 ... ... : ... .. . P82 ... : ... .. D ... ...
ROW 45 : ... .. B ... ... ... : ... .. B ... ... ... : ... .. . ... : ... .. 3 ... : ... .. . ... ... : ... .. 6 ... ... : C-5 01 6 P80 ... : ... .. 8 ... ...
ROW 46 : ... .. 2 ... ... ... : ... .. 2 ... ... ... : ... .. . ... : ... .. . ... : ... .. . ... ... : ... .. 5 ... ... : ... .. . P83 ... : ... .. . ... ...
ROW 47 : ... .. . ... ... ... : ... .. . ... ... ... : --- .. . ... : ... .. 0 ... : ... .. . ... ... : ... .. . ... ... : C#5 01 6 P80 ... : --- .. . P7F ...
ROW 48 : D#4 00 D ... V00 ... : G-4 00 D ... V00 ... : B-4 00 . ... : 2-# 00 F ... : ... .. . ... ... : D#4 01 8 ... ... : D#5 01 9 ... ... : C-3 01 F P81 ...
ROW 49 : ... .. C ... ... ... : ... .. C ... ... ... : C#4 00 . ... : ... .. C ... : ... .. . ... ... : ... .. 7 ... ... : ... .. 8 ... ... : ... .. D ... ...
ROW 4A : ... .. B ... ... ... : ... .. B ... ... ... : F#3 00 . ... : ... .. 6 ... : ... .. . ... ... : ... .. 6 ... ... : ... .. . ... ... : ... .. 8 ... ...
ROW 4B : ... .. 2 ... ... ... : ... .. 2 ... ... ... : F-3 00 . ... : ... .. 3 ... : ... .. . ... ... : ... .. 5 ... ... : ... .. . ... ... : ... .. . ... ...
ROW 4C : ... .. . ... ... ... : ... .. . ... ... ... : C-3 00 . ... : ... .. 2 ... : ... .. . ... ... : ... .. . ... ... : ... .. 7 ... ... : ... .. . ... ...
ROW 4D : ... .. D ... ... ... : ... .. D ... ... ... : ... .. . ... : ... .. 0 ... : ... .. . ... ... : C-4 01 8 ... ... : ... .. . ... ... : ... .. . ... ...
ROW 4E : ... .. C ... ... ... : ... .. C ... ... ... : ... .. . ... : B-# 00 8 ... : ... .. . ... ... : ... .. 7 ... ... : ... .. . ... ... : ... .. . ... ...
ROW 4F : ... .. B ... ... ... : ... .. B ... ... ... : ... .. . ... : ... .. 3 ... : ... .. . ... ... : ... .. 6 ... ... : ... .. 6 ... ... : ... .. . ... ...
ROW 50 : ... .. 2 ... ... ... : ... .. 2 ... ... ... : ... .. . ... : ... .. . ... : ... .. . ... ... : ... .. 5 ... ... : ... .. . ... ... : ... .. . ... ...
ROW 51 : ... .. . ... ... ... : ... .. . ... ... ... : --- .. . ... : ... .. 0 ... : ... .. . ... ... : ... .. . ... ... : ... .. . ... ... : --- .. . P7F ...
ROW 52 : ... .. D ... ... ... : ... .. D ... ... ... : B-4 00 . ... : 2-# 00 F ... : ... .. . ... ... : G-3 01 8 ... ... : ... .. . ... ... : C-3 01 F P81 ...
ROW 53 : ... .. C ... ... ... : ... .. C ... ... ... : C#4 00 . ... : ... .. C ... : ... .. . ... ... : ... .. 7 ... ... : ... .. . ... ... : ... .. D ... ...
ROW 54 : ... .. B ... ... ... : ... .. B ... ... ... : F#3 00 . ... : ... .. 6 ... : ... .. . ... ... : ... .. 6 ... ... : ... .. . ... ... : ... .. 8 ... ...
ROW 55 : ... .. 2 ... ... ... : ... .. 2 ... ... ... : F-3 00 . ... : ... .. 3 ... : ... .. . ... ... : ... .. 5 ... ... : ... .. 5 ... ... : ... .. . ... ...
ROW 56 : ... .. . ... ... ... : ... .. . ... ... ... : --- .. . ... : ... .. 2 ... : ... .. . ... ... : ... .. . ... ... : ... .. . ... ... : --- .. . P7F ...
ROW 57 : ... .. D ... ... ... : ... .. D ... ... ... : C-3 00 . ... : ... .. 0 ... : ... .. . ... ... : D#3 01 8 ... ... : ... .. . ... ... : C-3 01 F P81 ...
ROW 58 : ... .. C ... ... ... : ... .. C ... ... ... : ... .. . ... : B-# 00 8 ... : ... .. . ... ... : ... .. 7 ... ... : ... .. . ... ... : ... .. D ... ...
ROW 59 : ... .. B ... ... ... : ... .. B ... ... ... : ... .. . ... : ... .. 3 ... : ... .. . ... ... : ... .. 6 ... ... : ... .. . ... ... : ... .. 8 ... ...
ROW 5A : ... .. 2 ... ... ... : ... .. 2 ... ... ... : ... .. . ... : ... .. . ... : ... .. . ... ... : ... .. 5 ... ... : ... .. . ... ... : ... .. . ... ...
ROW 5B : ... .. . ... ... ... : ... .. . ... ... ... : --- .. . ... : ... .. 0 ... : ... .. . ... ... : ... .. . ... ... : ... .. . ... ... : --- .. . P7F ...
ROW 5C : C-4 00 D ... V01 ... : D#4 00 D ... V01 ... : C-3 00 . ... : 7-# 00 F ... : ... .. . ... ... : C-4 01 8 ... ... : E-5 01 5 P7F ... : C-3 01 F P81 ...
ROW 5D : ... .. C ... ... ... : ... .. C ... ... ... : ... .. . ... : ... .. C ... : ... .. . ... ... : ... .. 7 ... ... : ... .. . P81 ... : ... .. D ... ...
ROW 5E : ... .. B ... ... ... : ... .. B ... ... ... : ... .. . ... : ... .. A ... : ... .. . ... ... : ... .. 6 ... ... : ... .. . P80 ... : ... .. 8 ... ...
ROW 5F : ... .. 2 ... ... ... : ... .. 2 ... ... ... : ... .. . ... : ... .. 8 ... : ... .. . ... ... : ... .. 5 ... ... : D#5 01 5 P82 ... : ... .. . ... ...
ROW 60 : ... .. . ... ... ... : ... .. . ... ... ... : --- .. . ... : ... .. 7 ... : ... .. . ... ... : ... .. . ... ... : ... .. . P7E ... : --- .. . P7F ...
ROW 61 : ... .. D ... ... ... : ... .. D ... ... ... : C-3 00 . ... : ... .. 0 ... : ... .. . ... ... : G-3 01 8 ... ... : D-5 01 4 P80 ... : C-3 01 F P81 ...
ROW 62 : ... .. C ... ... ... : ... .. C ... ... ... : ... .. . ... : B-# 00 6 ... : ... .. . ... ... : ... .. 7 ... ... : ... .. . P7F ... : ... .. D ... ...
ROW 63 : ... .. B ... ... ... : ... .. B ... ... ... : ... .. . ... : ... .. 2 ... : ... .. . ... ... : ... .. 6 ... ... : ... .. . P81 ... : ... .. 8 ... ...
ROW 64 : ... .. 2 ... ... ... : ... .. 2 ... ... ... : ... .. . ... : ... .. . ... : ... .. . ... ... : ... .. 5 ... ... : D#5 01 4 P80 ... : ... .. . ... ...
ROW 65 : ... .. . ... ... ... : ... .. . ... ... ... : --- .. . ... : ... .. 0 ... : ... .. . ... ... : ... .. . ... ... : E-5 01 4 P7E ... : --- .. . P7F ...
ROW 66 : ... .. D ... ... ... : ... .. D ... ... ... : C-3 00 . ... : ... .. . ... : ... .. . ... ... : D#3 01 8 ... ... : ... .. . P81 ... : C-3 01 F P81 ...
ROW 67 : ... .. C ... ... ... : ... .. C ... ... ... : ... .. . ... : ... .. A ... : ... .. . ... ... : ... .. 7 ... ... : ... .. . ... ... : ... .. D ... ...
ROW 68 : ... .. B ... ... ... : ... .. B ... ... ... : ... .. . ... : ... .. 4 ... : ... .. . ... ... : ... .. 6 ... ... : D#5 01 4 P82 ... : ... .. 8 ... ...
ROW 69 : ... .. 2 ... ... ... : ... .. 2 ... ... ... : ... .. . ... : ... .. . ... : ... .. . ... ... : ... .. 5 ... ... : ... .. . P7F ... : ... .. . ... ...
ROW 6A : ... .. . ... ... ... : ... .. . ... ... ... : --- .. . ... : ... .. 0 ... : ... .. . ... ... : ... .. . ... ... : D-5 01 4 P80 ... : --- .. . P7F ...
ROW 6B : ... .. D ... ... ... : ... .. D ... ... ... : C-3 00 . ... : ... .. . ... : ... .. . ... ... : C-3 01 8 ... ... : ... .. . P7F ... : C-3 01 F P81 ...
ROW 6C : ... .. C ... ... ... : ... .. C ... ... ... : ... .. . ... : ... .. 8 ... : ... .. . ... ... : ... .. 7 ... ... : ... .. . P81 ... : ... .. D ... ...
ROW 6D : ... .. B ... ... ... : ... .. B ... ... ... : ... .. . ... : ... .. 3 ... : ... .. . ... ... : ... .. 6 ... ... : D#5 01 4 P80 ... : ... .. 8 ... ...
ROW 6E : ... .. 2 ... ... ... : ... .. 2 ... ... ... : ... .. . ... : ... .. . ... : ... .. . ... ... : ... .. 5 ... ... : E-5 01 4 P7E ... : ... .. . ... ...
ROW 6F : ... .. . ... ... ... : ... .. . ... ... ... : --- .. . ... : ... .. 0 ... : ... .. . ... ... : ... .. . ... ... : ... .. . P81 ... : --- .. . P7F ...
ROW 70 : D-4 00 D ... V02 ... : F#4 00 D ... V02 ... : B-3 00 . ... : 2-# 00 F ... : ... .. . ... ... : D-4 01 8 ... ... : D-5 01 6 P80 ... : C-2 01 F P81 ...
ROW 71 : ... .. C ... ... ... : ... .. C ... ... ... : C#3 00 . ... : ... .. C ... : ... .. . ... ... : ... .. 7 ... ... : ... .. 5 ... ... : ... .. D ... ...
ROW 72 : ... .. B ... ... ... : ... .. B ... ... ... : F#2 00 . ... : ... .. 6 ... : ... .. . ... ... : ... .. 6 ... ... : ... .. . ... ... : ... .. 8 ... ...
ROW 73 : ... .. 2 ... ... ... : ... .. 2 ... ... ... : F-2 00 . ... : ... .. 3 ... : ... .. . ... ... : ... .. 5 ... ... : ... .. . ... ... : ... .. . ... ...
ROW 74 : ... .. . ... ... ... : ... .. . ... ... ... : C-2 00 . ... : ... .. 2 ... : ... .. . ... ... : ... .. . ... ... : ... .. 4 ... ... : ... .. . ... ...
ROW 75 : ... .. D ... ... ... : ... .. D ... ... ... : ... .. . ... : ... .. 0 ... : ... .. . ... ... : A-3 01 8 ... ... : ... .. . ... ... : ... .. . ... ...
ROW 76 : ... .. C ... ... ... : ... .. C ... ... ... : ... .. . ... : B-# 00 8 ... : ... .. . ... ... : ... .. 7 ... ... : ... .. . ... ... : ... .. . ... ...
ROW 77 : ... .. B ... ... ... : ... .. B ... ... ... : ... .. . ... : ... .. 3 ... : ... .. . ... ... : ... .. 6 ... ... : ... .. . ... ... : ... .. . ... ...
ROW 78 : ... .. 2 ... ... ... : ... .. 2 ... ... ... : ... .. . ... : ... .. . ... : ... .. . ... ... : ... .. 5 ... ... : ... .. . ... ... : ... .. . ... ...
ROW 79 : ... .. . ... ... ... : ... .. . ... ... ... : --- .. . ... : ... .. 0 ... : ... .. . ... ... : ... .. . ... ... : ... .. . ... ... : --- .. . P7D ...
ROW 7A : ... .. D ... ... ... : ... .. D ... ... ... : C-3 00 . ... : 2-# 00 F ... : ... .. . ... ... : F#3 01 8 ... ... : ... .. . ... ... : C-3 01 F P81 ...
ROW 7B : ... .. C ... ... ... : ... .. C ... ... ... : ... .. . ... : ... .. C ... : ... .. . ... ... : ... .. 7 ... ... : ... .. . ... ... : ... .. D ... ...
ROW 7C : ... .. B ... ... ... : ... .. B ... ... ... : ... .. . ... : ... .. 6 ... : ... .. . ... ... : ... .. 6 ... ... : ... .. . ... ... : ... .. 8 ... ...
ROW 7D : ... .. 2 ... ... ... : ... .. 2 ... ... ... : ... .. . ... : ... .. 3 ... : ... .. . ... ... : ... .. 5 ... ... : ... .. . ... ... : ... .. . ... ...
ROW 7E : ... .. . ... ... ... : ... .. . ... ... ... : --- .. . ... : ... .. 2 ... : ... .. . ... ... : ... .. . ... ... : ... .. . ... ... : --- .. . P7F ...
ROW 7F : ... .. D ... ... ... : ... .. D ... ... ... : C-3 00 . ... : ... .. 0 ... : ... .. . ... ... : D-3 01 8 ... ... : ... .. . ... ... : C-3 01 F P81 ...
ROW 80 : ... .. C ... ... ... : ... .. C ... ... ... : ... .. . ... : B-# 00 8 ... : ... .. . ... ... : ... .. 7 ... ... : ... .. . ... ... : ... .. D ... ...
ROW 81 : ... .. B ... ... ... : ... .. B ... ... ... : ... .. . ... : ... .. 3 ... : ... .. . ... ... : ... .. 6 ... ... : ... .. . ... ... : ... .. 8 ... ...
ROW 82 : ... .. 2 ... ... ... : ... .. 2 ... ... ... : ... .. . ... : ... .. . ... : ... .. . ... ... : ... .. 5 ... ... : ... .. 5 ... ... : ... .. . ... ...
ROW 83 : ... .. . ... ... ... : ... .. . ... ... ... : --- .. . ... : ... .. 0 ... : ... .. . ... ... : ... .. . ... ... : ... .. . ... ... : --- .. . P7F ...
ROW 84 : C#4 00 D ... V03 ... : F-4 00 D ... V03 ... : C-3 00 . ... : 7-# 00 F ... : ... .. . ... ... : C#4 01 8 ... ... : D#5 01 5 P7F ... : C-3 01 F P81 ...
ROW 85 : ... .. C ... ... ... : ... .. C ... ... ... : ... .. . ... : ... .. C ... : ... .. . ... ... : ... .. 7 ... ... : ... .. . P81 ... : ... .. D ... ...
ROW 86 : ... .. B ... ... ... : ... .. B ... ... ... : ... .. . ... : ... .. A ... : ... .. . ... ... : ... .. 6 ... ... : ... .. . P80 ... : ... .. 8 ... ...
ROW 87 : ... .. 2 ... ... ... : ... .. 2 ... ... ... : ... .. . ... : ... .. 8 ... : ... .. . ... ... : ... .. 5 ... ... : D-5 01 5 P82 ... : ... .. . ... ...
ROW 88 : ... .. . ... ... ... : ... .. . ... ... ... : --- .. . ... : ... .. 7 ... : ... .. . ... ... : ... .. . ... ... : ... .. . P7E ... : --- .. . P7F ...
ROW 89 : ... .. D ... ... ... : ... .. D ... ... ... : C-3 00 . ... : ... .. 0 ... : ... .. . ... ... : G#3 01 8 ... ... : C#5 01 5 P81 ... : C-3 01 F P81 ...
ROW 8A : ... .. C ... ... ... : ... .. C ... ... ... : ... .. . ... : B-# 00 6 ... : ... .. . ... ... : ... .. 7 ... ... : ... .. . P80 ... : ... .. D ... ...
ROW 8B : ... .. B ... ... ... : ... .. B ... ... ... : ... .. . ... : ... .. 2 ... : ... .. . ... ... : ... .. 6 ... ... : ... .. . P82 ... : ... .. 8 ... ...
ROW 8C : ... .. 2 ... ... ... : ... .. 2 ... ... ... : ... .. . ... : ... .. . ... : ... .. . ... ... : ... .. 5 ... ... : D-5 01 5 P80 ... : ... .. . ... ...
ROW 8D : ... .. . ... ... ... : ... .. . ... ... ... : --- .. . ... : ... .. 0 ... : ... .. . ... ... : ... .. . ... ... : D#5 01 5 P7E ... : --- .. . P7F ...
ROW 8E : ... .. D ... ... ... : ... .. D ... ... ... : C-3 00 . ... : ... .. . ... : ... .. . ... ... : F-3 01 8 ... ... : ... .. 6 P81 ... : C-3 01 F P81 ...
ROW 8F : ... .. C ... ... ... : ... .. C ... ... ... : ... .. . ... : ... .. A ... : ... .. . ... ... : ... .. 7 ... ... : ... .. . ... ... : ... .. D ... ...
ROW 90 : ... .. B ... ... ... : ... .. B ... ... ... : ... .. . ... : ... .. 4 ... : ... .. . ... ... : ... .. 6 ... ... : D-5 01 6 P82 ... : ... .. 8 ... ...
ROW 91 : ... .. 2 ... ... ... : ... .. 2 ... ... ... : ... .. . ... : ... .. . ... : ... .. . ... ... : ... .. 5 ... ... : ... .. . P7F ... : ... .. . ... ...
ROW 92 : ... .. . ... ... ... : ... .. . ... ... ... : --- .. . ... : ... .. 0 ... : ... .. . ... ... : ... .. . ... ... : C#5 01 6 P81 ... : --- .. . P7F ...
ROW 93 : ... .. D ... ... ... : ... .. D ... ... ... : C-3 00 . ... : ... .. . ... : ... .. . ... ... : C#3 01 8 ... ... : ... .. . P80 ... : C-3 01 F P81 ...
ROW 94 : ... .. C ... ... ... : ... .. C ... ... ... : ... .. . ... : ... .. 8 ... : ... .. . ... ... : ... .. 7 ... ... : ... .. . P82 ... : ... .. D ... ...
ROW 95 : ... .. B ... ... ... : ... .. B ... ... ... : ... .. . ... : ... .. 3 ... : ... .. . ... ... : ... .. 6 ... ... : D-5 01 6 P80 ... : ... .. 8 ... ...
ROW 96 : ... .. 2 ... ... ... : ... .. 2 ... ... ... : ... .. . ... : ... .. . ... : ... .. . ... ... : ... .. 5 ... ... : D#5 01 6 P7E ... : ... .. . ... ...
ROW 97 : ... .. . ... ... ... : ... .. . ... ... ... : --- .. . ... : ... .. 0 ... : ... .. . ... ... : ... .. . ... ... : ... .. . P81 ... : --- .. . P7F ...
ROW 98 : D-4 00 D ... V01 ... : F#4 00 D ... V01 ... : B-4 00 . ... : 2-# 00 F ... : ... .. . ... ... : D-4 01 8 ... ... : A-4 01 9 P80 ... : C-3 01 F P81 ...
ROW 99 : ... .. C ... ... ... : ... .. C ... ... ... : C#4 00 . ... : ... .. C ... : ... .. . ... ... : ... .. 7 ... ... : ... .. 8 ... ... : ... .. D ... ...
ROW 9A : ... .. B ... ... ... : ... .. B ... ... ... : F#3 00 . ... : ... .. 6 ... : ... .. . ... ... : ... .. 6 ... ... : ... .. . ... ... : ... .. 8 ... ...
ROW 9B : ... .. 2 ... ... ... : ... .. 2 ... ... ... : F-3 00 . ... : ... .. 3 ... : ... .. . ... ... : ... .. 5 ... ... : ... .. . ... ... : ... .. . ... ...
ROW 9C : ... .. . ... ... ... : ... .. . ... ... ... : C-3 00 . ... : ... .. 2 ... : ... .. . ... ... : ... .. . ... ... : ... .. 7 ... ... : ... .. . ... ...
ROW 9D : ... .. D ... ... ... : ... .. D ... ... ... : ... .. . ... : ... .. 0 ... : ... .. . ... ... : A-3 01 8 ... ... : ... .. . ... ... : ... .. . ... ...
ROW 9E : ... .. C ... ... ... : ... .. C ... ... ... : ... .. . ... : B-# 00 8 ... : ... .. . ... ... : ... .. 7 ... ... : ... .. . ... ... : ... .. . ... ...
ROW 9F : ... .. B ... ... ... : ... .. B ... ... ... : ... .. . ... : ... .. 3 ... : ... .. . ... ... : ... .. 6 ... ... : ... .. 6 ... ... : ... .. . ... ...
ROW A0 : ... .. 2 ... ... ... : ... .. 2 ... ... ... : ... .. . ... : ... .. . ... : ... .. . ... ... : ... .. 5 ... ... : ... .. . ... ... : ... .. . ... ...
ROW A1 : ... .. . ... ... ... : ... .. . ... ... ... : --- .. . ... : ... .. 0 ... : ... .. . ... ... : ... .. . ... ... : ... .. . ... ... : --- .. . P7F ...
ROW A2 : ... .. D ... ... ... : ... .. D ... ... ... : B-4 00 . ... : C-# 00 8 ... : ... .. . ... ... : F#3 01 8 ... ... : ... .. . ... ... : C-3 01 F P81 ...
ROW A3 : ... .. C ... ... ... : ... .. C ... ... ... : C#4 00 . ... : ... .. 7 ... : ... .. . ... ... : ... .. 7 ... ... : ... .. . ... ... : ... .. D ... ...
ROW A4 : ... .. B ... ... ... : ... .. B ... ... ... : F#3 00 . ... : ... .. . ... : ... .. . ... ... : ... .. 6 ... ... : ... .. . ... ... : ... .. 8 ... ...
ROW A5 : ... .. 2 ... ... ... : ... .. 2 ... ... ... : F-3 00 . ... : ... .. 6 ... : ... .. . ... ... : ... .. 5 ... ... : ... .. 5 ... ... : ... .. . ... ...
ROW A6 : ... .. . ... ... ... : ... .. . ... ... ... : --- .. . ... : ... .. 5 ... : ... .. . ... ... : ... .. . ... ... : ... .. . ... ... : --- .. . P7F ...
ROW A7 : ... .. D ... ... ... : ... .. D ... ... ... : C-3 00 . ... : ... .. 4 ... : ... .. . ... ... : D-3 01 8 ... ... : ... .. . ... ... : C-3 01 F P81 ...
ROW A8 : ... .. C ... ... ... : ... .. C ... ... ... : ... .. . ... : ... .. . ... : ... .. . ... ... : ... .. 7 ... ... : ... .. . ... ... : ... .. D ... ...
ROW A9 : ... .. B ... ... ... : ... .. B ... ... ... : ... .. . ... : ... .. . ... : ... .. . ... ... : ... .. 6 ... ... : ... .. . ... ... : ... .. 8 ... ...
ROW AA : ... .. 2 ... ... ... : ... .. 2 ... ... ... : ... .. . ... : ... .. 3 ... : ... .. . ... ... : ... .. 5 ... ... : ... .. . ... ... : ... .. . ... ...
ROW AB : ... .. . ... ... ... : ... .. . ... ... ... : --- .. . ... : ... .. . ... : ... .. . ... ... : ... .. . ... ... : ... .. . ... ... : --- .. . P7F ...
ROW AC : A-4 00 D ... V00 ... : ... .. D ... V00 ... : C-3 00 . ... : 7-# 00 F ... : ... .. . ... ... : A-2 01 8 ... ... : A#4 01 5 P7D ... : C-3 01 F P81 ...
ROW AD : ... .. C ... ... ... : ... .. C ... ... ... : ... .. . ... : ... .. C ... : ... .. . ... ... : ... .. 7 ... ... : ... .. . P7F ... : ... .. D ... ...
ROW AE : ... .. B ... ... ... : ... .. B ... ... ... : ... .. . ... : ... .. A ... : ... .. . ... ... : ... .. 6 ... ... : ... .. . P7E ... : ... .. 8 ... ...
ROW AF : ... .. 2 ... ... ... : ... .. 2 ... ... ... : ... .. . ... : ... .. 8 ... : ... .. . ... ... : ... .. 5 ... ... : A-4 01 5 P82 ... : ... .. . ... ...
ROW B0 : ... .. . ... ... ... : ... .. . ... ... ... : --- .. . ... : ... .. 7 ... : ... .. . ... ... : ... .. . ... ... : ... .. . P7E ... : --- .. . P7F ...
ROW B1 : D-5 00 D ... ... ... : ... .. D ... ... ... : C-3 00 . ... : ... .. 0 ... : ... .. . ... ... : D-3 01 8 ... ... : G#4 01 4 P83 ... : C-3 01 F P81 ...
ROW B2 : ... .. C ... ... ... : ... .. C ... ... ... : ... .. . ... : B-# 00 6 ... : ... .. . ... ... : ... .. 7 ... ... : ... .. . P82 ... : ... .. D ... ...
ROW B3 : ... .. B ... ... ... : ... .. B ... ... ... : ... .. . ... : ... .. 2 ... : ... .. . ... ... : ... .. 6 ... ... : ... .. . P84 ... : ... .. 8 ... ...
ROW B4 : ... .. 2 ... ... ... : ... .. 2 ... ... ... : ... .. . ... : ... .. . ... : ... .. . ... ... : ... .. 5 ... ... : A-4 01 4 P80 ... : ... .. . ... ...
ROW B5 : ... .. . ... ... ... : ... .. . ... ... ... : --- .. . ... : ... .. 0 ... : ... .. . ... ... : ... .. . ... ... : ... .. . P83 ... : --- .. . P7F ...
ROW B6 : ... .. D ... ... ... : ... .. D ... ... ... : C-3 00 . ... : ... .. . ... : ... .. . ... ... : ... .. 8 ... ... : A#4 01 4 P7F ... : C-3 01 F P81 ...
ROW B7 : ... .. C ... ... ... : ... .. C ... ... ... : ... .. . ... : ... .. A ... : ... .. . ... ... : ... .. 7 ... ... : ... .. . ... ... : ... .. D ... ...
ROW B8 : ... .. B ... ... ... : ... .. B ... ... ... : ... .. . ... : ... .. 4 ... : ... .. . ... ... : ... .. 6 ... ... : A-4 01 4 P82 ... : ... .. 8 ... ...
ROW B9 : ... .. 2 ... ... ... : ... .. 2 ... ... ... : ... .. . ... : ... .. . ... : ... .. . ... ... : ... .. 5 ... ... : ... .. . P7F ... : ... .. . ... ...
ROW BA : ... .. . ... ... ... : ... .. . ... ... ... : --- .. . ... : ... .. 0 ... : ... .. . ... ... : ... .. . ... ... : G#4 01 4 P83 ... : --- .. . P7F ...
ROW BB : F#5 00 D ... ... ... : ... .. D ... ... ... : C-3 00 . ... : ... .. . ... : ... .. . ... ... : F#3 01 8 ... ... : ... .. . P82 ... : C-3 01 F P81 ...
ROW BC : ... .. C ... ... ... : ... .. C ... ... ... : ... .. . ... : ... .. 8 ... : ... .. . ... ... : ... .. 7 ... ... : ... .. . P84 ... : ... .. D ... ...
ROW BD : ... .. B ... ... ... : ... .. B ... ... ... : ... .. . ... : ... .. 3 ... : ... .. . ... ... : ... .. 6 ... ... : A-4 01 4 P80 ... : ... .. 8 ... ...
ROW BE : ... .. 2 ... ... ... : ... .. 2 ... ... ... : ... .. . ... : ... .. . ... : ... .. . ... ... : ... .. 5 ... ... : ... .. . P83 ... : ... .. . ... ...
ROW BF : ... .. . ... ... ... : ... .. . ... ... ... : --- .. . ... : ... .. 0 ... : ... .. . ... ... : ... .. . ... ... : A#4 01 4 P7F ... : --- .. . P7F ...
ROW C0 : C#4 00 D ... V01 ... : F-4 00 D ... V01 ... : B-3 00 . ... : ... .. . ... : ... .. . ... ... : F-3 01 8 ... ... : G#4 01 6 P80 ... : C-2 01 F P81 ...
ROW C1 : ... .. C ... ... ... : ... .. C ... ... ... : C#3 00 . ... : 2-# 00 F ... : ... .. . ... ... : ... .. 7 ... ... : ... .. 5 ... ... : ... .. D ... ...
ROW C2 : ... .. B ... ... ... : ... .. B ... ... ... : F#2 00 . ... : ... .. 6 ... : ... .. . ... ... : ... .. 6 ... ... : ... .. . ... ... : ... .. 8 ... ...
ROW C3 : ... .. 2 ... ... ... : ... .. 2 ... ... ... : F-2 00 . ... : ... .. . ... : ... .. . ... ... : ... .. 5 ... ... : ... .. . ... ... : ... .. . ... ...
ROW C4 : ... .. . ... ... ... : ... .. . ... ... ... : C-2 00 . ... : ... .. 0 ... : ... .. . ... ... : ... .. . ... ... : ... .. 4 ... ... : ... .. . ... ...
ROW C5 : ... .. D ... ... ... : ... .. D ... ... ... : ... .. . ... : ... .. . ... : ... .. . ... ... : C#3 01 8 ... ... : ... .. . ... ... : ... .. . ... ...
ROW C6 : ... .. C ... ... ... : ... .. C ... ... ... : ... .. . ... : B-# 00 6 ... : ... .. . ... ... : ... .. 7 ... ... : ... .. . ... ... : ... .. . ... ...
ROW C7 : ... .. B ... ... ... : ... .. B ... ... ... : ... .. . ... : ... .. 2 ... : ... .. . ... ... : ... .. 6 ... ... : ... .. . ... ... : ... .. . ... ...
ROW C8 : ... .. 2 ... ... ... : ... .. 2 ... ... ... : ... .. . ... : ... .. . ... : ... .. . ... ... : ... .. 5 ... ... : ... .. . ... ... : ... .. . ... ...
ROW C9 : ... .. . ... ... ... : ... .. . ... ... ... : --- .. . ... : ... .. 0 ... : ... .. . ... ... : ... .. . ... ... : ... .. . ... ... : --- .. . P7D ...
ROW CA : ... .. D ... ... ... : ... .. D ... ... ... : C-3 00 . ... : ... .. . ... : ... .. . ... ... : G#2 01 8 ... ... : ... .. . ... ... : C-3 01 F P81 ...
ROW CB : ... .. C ... ... ... : ... .. C ... ... ... : ... .. . ... : ... .. A ... : ... .. . ... ... : ... .. 7 ... ... : ... .. . ... ... : ... .. D ... ...
ROW CC : ... .. B ... ... ... : ... .. B ... ... ... : ... .. . ... : ... .. 4 ... : ... .. . ... ... : ... .. 6 ... ... : ... .. . ... ... : ... .. 8 ... ...
ROW CD : ... .. 2 ... ... ... : ... .. 2 ... ... ... : ... .. . ... : ... .. . ... : ... .. . ... ... : ... .. 5 ... ... : ... .. . ... ... : ... .. . ... ...
ROW CE : ... .. . ... ... ... : ... .. . ... ... ... : --- .. . ... : ... .. 0 ... : ... .. . ... ... : ... .. . ... ... : ... .. . ... ... : --- .. . P7F ...
ROW CF : ... .. D ... ... ... : ... .. D ... ... ... : C-3 00 . ... : ... .. . ... : ... .. . ... ... : F-2 01 8 ... ... : ... .. . ... ... : C-3 01 F P81 ...
ROW D0 : ... .. C ... ... ... : ... .. C ... ... ... : ... .. . ... : ... .. 8 ... : ... .. . ... ... : ... .. 7 ... ... : ... .. . ... ... : ... .. D ... ...
ROW D1 : ... .. B ... ... ... : ... .. B ... ... ... : ... .. . ... : ... .. 3 ... : ... .. . ... ... : ... .. 6 ... ... : ... .. . ... ... : ... .. 8 ... ...
ROW D2 : ... .. 2 ... ... ... : ... .. 2 ... ... ... : ... .. . ... : ... .. . ... : ... .. . ... ... : ... .. 5 ... ... : ... .. 5 ... ... : ... .. . ... ...
ROW D3 : ... .. . ... ... ... : ... .. . ... ... ... : --- .. . ... : ... .. 0 ... : ... .. . ... ... : ... .. . ... ... : ... .. . ... ... : --- .. . P7F ...
ROW D4 : C-4 00 D ... V02 ... : E-4 00 D ... V02 ... : C-3 00 . ... : 7-# 00 F ... : ... .. . ... ... : G#3 01 8 ... ... : ... .. . P84 ... : C-3 01 F P81 ...
ROW D5 : ... .. C ... ... ... : ... .. C ... ... ... : ... .. . ... : ... .. C ... : ... .. . ... ... : ... .. 7 ... ... : A-4 01 5 P7E ... : ... .. D ... ...
ROW D6 : ... .. B ... ... ... : ... .. B ... ... ... : ... .. . ... : ... .. A ... : ... .. . ... ... : ... .. 6 ... ... : ... .. . P7D ... : ... .. 8 ... ...
ROW D7 : ... .. 2 ... ... ... : ... .. 2 ... ... ... : ... .. . ... : ... .. 8 ... : ... .. . ... ... : ... .. 5 ... ... : G#4 01 5 P82 ... : ... .. . ... ...
ROW D8 : ... .. . ... ... ... : ... .. . ... ... ... : --- .. . ... : ... .. 7 ... : ... .. . ... ... : ... .. . ... ... : ... .. . P7E ... : --- .. . P7F ...
ROW D9 : ... .. D ... ... ... : ... .. D ... ... ... : C-3 00 . ... : ... .. 0 ... : ... .. . ... ... : F-3 01 8 ... ... : G-4 01 5 P83 ... : C-3 01 F P81 ...
ROW DA : ... .. C ... ... ... : ... .. C ... ... ... : ... .. . ... : B-# 00 6 ... : ... .. . ... ... : ... .. 7 ... ... : ... .. . P82 ... : ... .. D ... ...
ROW DB : ... .. B ... ... ... : ... .. B ... ... ... : ... .. . ... : ... .. 2 ... : ... .. . ... ... : ... .. 6 ... ... : ... .. . P84 ... : ... .. 8 ... ...
ROW DC : ... .. 2 ... ... ... : ... .. 2 ... ... ... : ... .. . ... : ... .. . ... : ... .. . ... ... : ... .. 5 ... ... : G#4 01 5 P80 ... : ... .. . ... ...
ROW DD : ... .. . ... ... ... : ... .. . ... ... ... : --- .. . ... : ... .. 0 ... : ... .. . ... ... : ... .. . ... ... : ... .. . P83 ... : --- .. . P7F ...
ROW DE : ... .. D ... ... ... : ... .. D ... ... ... : C-3 00 . ... : ... .. . ... : ... .. . ... ... : C#3 01 8 ... ... : A-4 01 6 P7E ... : C-3 01 F P81 ...
ROW DF : ... .. C ... ... ... : ... .. C ... ... ... : ... .. . ... : ... .. A ... : ... .. . ... ... : ... .. 7 ... ... : ... .. . ... ... : ... .. D ... ...
ROW E0 : ... .. B ... ... ... : ... .. B ... ... ... : ... .. . ... : ... .. 4 ... : ... .. . ... ... : ... .. 6 ... ... : G#4 01 6 P82 ... : ... .. 8 ... ...
ROW E1 : ... .. 2 ... ... ... : ... .. 2 ... ... ... : ... .. . ... : ... .. . ... : ... .. . ... ... : ... .. 5 ... ... : ... .. . P7F ... : ... .. . ... ...
ROW E2 : ... .. . ... ... ... : ... .. . ... ... ... : --- .. . ... : ... .. 0 ... : ... .. . ... ... : ... .. . ... ... : G-4 01 6 P83 ... : --- .. . P7F ...
ROW E3 : ... .. D ... ... ... : ... .. D ... ... ... : C-3 00 . ... : ... .. . ... : ... .. . ... ... : G#2 01 8 ... ... : ... .. . P82 ... : C-3 01 F P81 ...
ROW E4 : ... .. C ... ... ... : ... .. C ... ... ... : ... .. . ... : ... .. 8 ... : ... .. . ... ... : ... .. 7 ... ... : ... .. . P84 ... : ... .. D ... ...
ROW E5 : ... .. B ... ... ... : ... .. B ... ... ... : ... .. . ... : ... .. 3 ... : ... .. . ... ... : ... .. 6 ... ... : G#4 01 6 P80 ... : ... .. 8 ... ...
ROW E6 : ... .. 2 ... ... ... : ... .. 2 ... ... ... : ... .. . ... : ... .. . ... : ... .. . ... ... : ... .. 5 ... ... : ... .. . P83 ... : ... .. . ... ...
ROW E7 : ... .. . ... ... ... : ... .. . ... ... ... : --- .. . ... : ... .. 0 ... : ... .. . ... ... : ... .. . ... ... : A-4 01 6 P7E ... : --- .. . P7F ...
ROW E8 : C#4 00 D ... V00 ... : F-4 00 D ... V00 ... : B-4 00 . ... : 2-# 00 F ... : ... .. . ... ... : C#4 01 8 ... ... : C#5 01 9 P80 ... : C-3 01 F P81 ...
ROW E9 : ... .. C ... ... ... : ... .. C ... ... ... : C#4 00 . ... : ... .. C ... : ... .. . ... ... : ... .. 7 ... ... : ... .. 8 ... ... : ... .. D ... ...
ROW EA : ... .. B ... ... ... : ... .. B ... ... ... : F#3 00 . ... : ... .. 6 ... : ... .. . ... ... : ... .. 6 ... ... : ... .. . ... ... : ... .. 8 ... ...
ROW EB : ... .. 2 ... ... ... : ... .. 2 ... ... ... : F-3 00 . ... : ... .. 3 ... : ... .. . ... ... : ... .. 5 ... ... : ... .. . ... ... : ... .. . ... ...
ROW EC : ... .. . ... ... ... : ... .. . ... ... ... : C-3 00 . ... : ... .. 2 ... : ... .. . ... ... : ... .. . ... ... : ... .. 7 ... ... : ... .. . ... ...
ROW ED : ... .. D ... ... ... : ... .. D ... ... ... : ... .. . ... : ... .. 0 ... : ... .. . ... ... : G#3 01 8 ... ... : ... .. . ... ... : ... .. . ... ...
ROW EE : ... .. C ... ... ... : ... .. C ... ... ... : ... .. . ... : B-# 00 8 ... : ... .. . ... ... : ... .. 7 ... ... : ... .. . ... ... : ... .. . ... ...
ROW EF : ... .. B ... ... ... : ... .. B ... ... ... : ... .. . ... : ... .. 3 ... : ... .. . ... ... : ... .. 6 ... ... : ... .. 6 ... ... : ... .. . ... ...
ROW F0 : ... .. 2 ... ... ... : ... .. 2 ... ... ... : ... .. . ... : ... .. . ... : ... .. . ... ... : ... .. 5 ... ... : ... .. . ... ... : ... .. . ... ...
ROW F1 : ... .. . ... ... ... : ... .. . ... ... ... : --- .. . ... : ... .. 0 ... : ... .. . ... ... : ... .. . ... ... : ... .. . ... ... : --- .. . P7F ...
ROW F2 : ... .. D ... ... ... : ... .. D ... ... ... : B-4 00 . ... : 2-# 00 F ... : ... .. . ... ... : F-3 01 8 ... ... : ... .. . ... ... : C-3 01 F P81 ...
ROW F3 : ... .. C ... ... ... : ... .. C ... ... ... : C#4 00 . ... : ... .. C ... : ... .. . ... ... : ... .. 7 ... ... : ... .. . ... ... : ... .. D ... ...
ROW F4 : ... .. B ... ... ... : ... .. B ... ... ... : F#3 00 . ... : ... .. 6 ... : ... .. . ... ... : ... .. 6 ... ... : ... .. . ... ... : ... .. 8 ... ...
ROW F5 : ... .. 2 ... ... ... : ... .. 2 ... ... ... : F-3 00 . ... : ... .. 3 ... : ... .. . ... ... : ... .. 5 ... ... : ... .. 5 ... ... : ... .. . ... ...
ROW F6 : ... .. . ... ... ... : ... .. . ... ... ... : --- .. . ... : ... .. 2 ... : ... .. . ... ... : ... .. . ... ... : ... .. . ... ... : --- .. . P7F ...
ROW F7 : ... .. D ... ... ... : ... .. D ... ... ... : C-3 00 . ... : ... .. 0 ... : ... .. . ... ... : C#3 01 8 ... ... : ... .. . ... ... : C-3 01 F P81 ...
ROW F8 : ... .. C ... ... ... : ... .. C ... ... ... : ... .. . ... : B-# 00 8 ... : ... .. . ... ... : ... .. 7 ... ... : ... .. . ... ... : ... .. D ... ...
ROW F9 : ... .. B ... ... ... : ... .. B ... ... ... : ... .. . ... : ... .. 3 ... : ... .. . ... ... : ... .. 6 ... ... : ... .. . ... ... : ... .. 8 ... ...
ROW FA : ... .. 2 ... ... ... : ... .. 2 ... ... ... : ... .. . ... : ... .. . ... : ... .. . ... ... : ... .. 5 ... ... : ... .. . ... ... : ... .. . ... ...
ROW FB : ... .. . ... ... ... : ... .. . ... ... ... : --- .. . ... : ... .. 0 ... : ... .. . ... ... : ... .. . ... ... : ... .. . ... ... : --- .. . P7F ...
ROW FC : G#4 00 D ... V01 ... : ... .. D ... V01 ... : C-3 00 . ... : 7-# 00 F ... : ... .. . ... ... : G#3 01 8 ... ... : D-5 01 5 P7E ... : C-3 01 F P81 ...
ROW FD : ... .. C ... ... ... : ... .. C ... ... ... : ... .. . ... : ... .. C ... : ... .. . ... ... : ... .. 7 ... ... : ... .. . P80 ... : ... .. D ... ...
ROW FE : ... .. B ... ... ... : ... .. B ... ... ... : ... .. . ... : ... .. A ... : ... .. . ... ... : ... .. 6 ... ... : ... .. . P7F ... : ... .. 8 ... ...
ROW FF : ... .. 2 ... ... ... : ... .. 2 ... ... ... : ... .. . ... : ... .. 8 ... : ... .. . ... ... : ... .. 5 ... ... : C#5 01 5 P82 ... : ... .. . ... ...

PATTERN 09
ROW 00 : ... .. . ... ... ... : ... .. . ... ... ... : --- .. . ... : ... .. 7 ... : ... .. . ... ... : ... .. . ... ... : ... .. . P7E ... : --- .. . P7F ...
ROW 01 : C#5 00 D ... ... ... : ... .. D ... ... ... : C-3 00 . ... : ... .. 0 ... : ... .. . ... ... : C#4 01 8 ... ... : C-5 01 4 P81 ... : C-3 01 F P81 ...
ROW 02 : ... .. C ... ... ... : ... .. C ... ... ... : ... .. . ... : B-# 00 6 ... : ... .. . ... ... : ... .. 7 ... ... : ... .. . P80 ... : ... .. D ... ...
ROW 03 : ... .. B ... ... ... : ... .. B ... ... ... : ... .. . ... : ... .. 2 ... : ... .. . ... ... : ... .. 6 ... ... : ... .. . P82 ... : ... .. 8 ... ...
ROW 04 : ... .. 2 ... ... ... : ... .. 2 ... ... ... : ... .. . ... : ... .. . ... : ... .. . ... ... : ... .. 5 ... ... : C#5 01 4 P80 ... : ... .. . ... ...
ROW 05 : ... .. . ... ... ... : ... .. . ... ... ... : --- .. . ... : ... .. 0 ... : ... .. . ... ... : ... .. . ... ... : ... .. . P83 ... : --- .. . P7F ...
ROW 06 : ... .. D ... ... ... : ... .. D ... ... ... : C-3 00 . ... : ... .. . ... : ... .. . ... ... : ... .. 8 ... ... : D-5 01 4 P80 ... : C-3 01 F P81 ...
ROW 07 : ... .. C ... ... ... : ... .. C ... ... ... : ... .. . ... : ... .. A ... : ... .. . ... ... : ... .. 7 ... ... : ... .. . ... ... : ... .. D ... ...
ROW 08 : ... .. B ... ... ... : ... .. B ... ... ... : ... .. . ... : ... .. 4 ... : ... .. . ... ... : ... .. 6 ... ... : C#5 01 4 P82 ... : ... .. 8 ... ...
ROW 09 : ... .. 2 ... ... ... : ... .. 2 ... ... ... : ... .. . ... : ... .. . ... : ... .. . ... ... : ... .. 5 ... ... : ... .. . P7F ... : ... .. . ... ...
ROW 0A : ... .. . ... ... ... : ... .. . ... ... ... : --- .. . ... : ... .. 0 ... : ... .. . ... ... : ... .. . ... ... : C-5 01 4 P81 ... : --- .. . P7F ...
ROW 0B : F-5 00 D ... ... ... : ... .. D ... ... ... : C-3 00 . ... : ... .. . ... : ... .. . ... ... : F-4 01 8 ... ... : ... .. . P80 ... : C-3 01 F P81 ...
ROW 0C : ... .. C ... ... ... : ... .. C ... ... ... : ... .. . ... : ... .. 8 ... : ... .. . ... ... : ... .. 7 ... ... : ... .. . P82 ... : ... .. D ... ...
ROW 0D : ... .. B ... ... ... : ... .. B ... ... ... : ... .. . ... : ... .. 3 ... : ... .. . ... ... : ... .. 6 ... ... : C#5 01 4 P80 ... : ... .. 8 ... ...
ROW 0E : ... .. 2 ... ... ... : ... .. 2 ... ... ... : ... .. . ... : ... .. . ... : ... .. . ... ... : ... .. 5 ... ... : ... .. . P83 ... : ... .. . ... ...
ROW 0F : ... .. . ... ... ... : ... .. . ... ... ... : --- .. . ... : ... .. 0 ... : ... .. . ... ... : ... .. . ... ... : D-5 01 4 P80 ... : --- .. . P7F ...
ROW 10 : C-4 00 D ... V02 ... : D#4 00 D ... V02 ... : B-3 00 . ... : 9-# 00 D ... : ... .. . ... ... : D#4 01 8 ... ... : C-5 01 6 ... ... : C-2 01 F P81 ...
ROW 11 : ... .. C ... ... ... : ... .. C ... ... ... : C#3 00 . ... : ... .. . ... : ... .. . ... ... : ... .. 7 ... ... : ... .. 5 ... ... : ... .. D ... ...
ROW 12 : ... .. B ... ... ... : ... .. B ... ... ... : F#2 00 . ... : ... .. . ... : ... .. . ... ... : ... .. 6 ... ... : ... .. . ... ... : ... .. 8 ... ...
ROW 13 : ... .. 2 ... ... ... : ... .. 2 ... ... ... : F-2 00 . ... : ... .. B ... : ... .. . ... ... : ... .. 5 ... ... : ... .. . ... ... : ... .. . ... ...
ROW 14 : ... .. . ... ... ... : ... .. . ... ... ... : C-2 00 . ... : ... .. . ... : ... .. . ... ... : ... .. . ... ... : ... .. 4 ... ... : ... .. . ... ...
ROW 15 : ... .. D ... ... ... : ... .. D ... ... ... : ... .. . ... : ... .. A ... : ... .. . ... ... : C-4 01 8 ... ... : ... .. . ... ... : ... .. . ... ...
ROW 16 : ... .. C ... ... ... : ... .. C ... ... ... : ... .. . ... : ... .. . ... : ... .. . ... ... : ... .. 7 ... ... : ... .. . ... ... : ... .. . ... ...
ROW 17 : ... .. B ... ... ... : ... .. B ... ... ... : ... .. . ... : ... .. . ... : ... .. . ... ... : ... .. 6 ... ... : ... .. . ... ... : ... .. . ... ...
ROW 18 : ... .. 2 ... ... ... : ... .. 2 ... ... ... : ... .. . ... : ... .. 9 ... : ... .. . ... ... : ... .. 5 ... ... : ... .. . ... ... : ... .. . ... ...
ROW 19 : ... .. . ... ... ... : ... .. . ... ... ... : --- .. . ... : ... .. . ... : ... .. . ... ... : ... .. . ... ... : ... .. . ... ... : --- .. . P7D ...
ROW 1A : ... .. D ... ... ... : ... .. D ... ... ... : C-3 00 . ... : ... .. 7 ... : ... .. . ... ... : G-3 01 8 ... ... : ... .. . ... ... : C-3 01 F P81 ...
ROW 1B : ... .. C ... ... ... : ... .. C ... ... ... : ... .. . ... : ... .. . ... : ... .. . ... ... : ... .. 7 ... ... : ... .. . ... ... : ... .. D ... ...
ROW 1C : ... .. B ... ... ... : ... .. B ... ... ... : ... .. . ... : ... .. . ... : ... .. . ... ... : ... .. 6 ... ... : ... .. . ... ... : ... .. 8 ... ...
ROW 1D : ... .. 2 ... ... ... : ... .. 2 ... ... ... : ... .. . ... : ... .. 6 ... : ... .. . ... ... : ... .. 5 ... ... : ... .. . ... ... : ... .. . ... ...
ROW 1E : ... .. . ... ... ... : ... .. . ... ... ... : --- .. . ... : ... .. . ... : ... .. . ... ... : ... .. . ... ... : ... .. . ... ... : --- .. . P7F ...
ROW 1F : ... .. D ... ... ... : ... .. D ... ... ... : C-3 00 . ... : ... .. 5 ... : ... .. . ... ... : D#3 01 8 ... ... : ... .. . ... ... : C-3 01 F P81 ...
ROW 20 : ... .. C ... ... ... : ... .. C ... ... ... : ... .. . ... : ... .. . ... : ... .. . ... ... : ... .. 7 ... ... : ... .. . ... ... : ... .. D ... ...
ROW 21 : ... .. B ... ... ... : ... .. B ... ... ... : ... .. . ... : ... .. . ... : ... .. . ... ... : ... .. 6 ... ... : ... .. . ... ... : ... .. 8 ... ...
ROW 22 : ... .. 2 ... ... ... : ... .. 2 ... ... ... : ... .. . ... : ... .. 4 ... : ... .. . ... ... : ... .. 5 ... ... : ... .. 5 ... ... : ... .. . ... ...
ROW 23 : ... .. . ... ... ... : ... .. . ... ... ... : --- .. . ... : ... .. . ... : ... .. . ... ... : ... .. . ... ... : ... .. . ... ... : --- .. . P7F ...
ROW 24 : B-3 00 D ... V03 ... : D-4 00 D ... V03 ... : C-3 00 . ... : 7-# 00 F ... : ... .. . ... ... : D-4 01 8 ... ... : C#5 01 5 P7E ... : C-3 01 F P81 ...
ROW 25 : ... .. C ... ... ... : ... .. C ... ... ... : ... .. . ... : ... .. C ... : ... .. . ... ... : ... .. 7 ... ... : ... .. . P80 ... : ... .. D ... ...
ROW 26 : ... .. B ... ... ... : ... .. B ... ... ... : ... .. . ... : ... .. A ... : ... .. . ... ... : ... .. 6 ... ... : ... .. . P7F ... : ... .. 8 ... ...
ROW 27 : ... .. 2 ... ... ... : ... .. 2 ... ... ... : ... .. . ... : ... .. 8 ... : ... .. . ... ... : ... .. 5 ... ... : C-5 01 5 P82 ... : ... .. . ... ...
ROW 28 : ... .. . ... ... ... : ... .. . ... ... ... : --- .. . ... : ... .. 7 ... : ... .. . ... ... : ... .. . ... ... : ... .. . P7E ... : --- .. . P7F ...
ROW 29 : ... .. D ... ... ... : ... .. D ... ... ... : C-3 00 . ... : ... .. 0 ... : ... .. . ... ... : B-3 01 8 ... ... : B-4 01 5 P81 ... : C-3 01 F P81 ...
ROW 2A : ... .. C ... ... ... : ... .. C ... ... ... : ... .. . ... : B-# 00 6 ... : ... .. . ... ... : ... .. 7 ... ... : ... .. . P80 ... : ... .. D ... ...
ROW 2B : ... .. B ... ... ... : ... .. B ... ... ... : ... .. . ... : ... .. 2 ... : ... .. . ... ... : ... .. 6 ... ... : ... .. . P82 ... : ... .. 8 ... ...
ROW 2C : ... .. 2 ... ... ... : ... .. 2 ... ... ... : ... .. . ... : ... .. . ... : ... .. . ... ... : ... .. 5 ... ... : C-5 01 5 P80 ... : ... .. . ... ...
ROW 2D : ... .. . ... ... ... : ... .. . ... ... ... : --- .. . ... : ... .. 0 ... : ... .. . ... ... : ... .. . ... ... : ... .. . P83 ... : --- .. . P7F ...
ROW 2E : ... .. D ... ... ... : ... .. D ... ... ... : C-3 00 . ... : 9-# 00 D ... : ... .. . ... ... : F#3 01 8 ... ... : C#5 01 6 P80 ... : C-3 01 F P81 ...
ROW 2F : ... .. C ... ... ... : ... .. C ... ... ... : ... .. . ... : ... .. . ... : ... .. . ... ... : ... .. 7 ... ... : ... .. . ... ... : ... .. D ... ...
ROW 30 : ... .. B ... ... ... : ... .. B ... ... ... : ... .. . ... : ... .. . ... : ... .. . ... ... : ... .. 6 ... ... : C-5 01 6 P82 ... : ... .. 8 ... ...
ROW 31 : ... .. 2 ... ... ... : ... .. 2 ... ... ... : ... .. . ... : ... .. B ... : ... .. . ... ... : ... .. 5 ... ... : ... .. . P7F ... : ... .. . ... ...
ROW 32 : ... .. . ... ... ... : ... .. . ... ... ... : --- .. . ... : ... .. . ... : ... .. . ... ... : ... .. . ... ... : B-4 01 6 P81 ... : --- .. . P7F ...
ROW 33 : ... .. D ... ... ... : ... .. D ... ... ... : C-3 00 . ... : ... .. A ... : ... .. . ... ... : D-3 01 8 ... ... : ... .. . P80 ... : C-3 01 F P81 ...
ROW 34 : ... .. C ... ... ... : ... .. C ... ... ... : ... .. . ... : ... .. . ... : ... .. . ... ... : ... .. 7 ... ... : ... .. . P82 ... : ... .. D ... ...
ROW 35 : ... .. B ... ... ... : ... .. B ... ... ... : ... .. . ... : ... .. . ... : ... .. . ... ... : ... .. 6 ... ... : C-5 01 6 P80 ... : ... .. 8 ... ...
ROW 36 : ... .. 2 ... ... ... : ... .. 2 ... ... ... : ... .. . ... : ... .. 9 ... : ... .. . ... ... : ... .. 5 ... ... : ... .. . P83 ... : ... .. . ... ...
ROW 37 : ... .. . ... ... ... : ... .. . ... ... ... : --- .. . ... : ... .. . ... : ... .. . ... ... : ... .. . ... ... : C#5 01 6 P80 ... : --- .. . P7F ...
ROW 38 : C-4 00 D ... V01 ... : D#4 00 D ... V01 ... : F#4 00 . ... : ... .. 7 ... : ... .. . ... ... : D#4 01 8 ... ... : G-4 01 9 ... ... : G-2 01 F P81 ...
ROW 39 : ... .. C ... ... ... : ... .. C ... ... ... : G#3 00 . ... : ... .. . ... : ... .. . ... ... : ... .. 7 ... ... : ... .. 8 ... ... : ... .. D ... ...
ROW 3A : ... .. B ... ... ... : ... .. B ... ... ... : C#3 00 . ... : ... .. . ... : ... .. . ... ... : ... .. 6 ... ... : ... .. . ... ... : ... .. 8 ... ...
ROW 3B : ... .. 2 ... ... ... : ... .. 2 ... ... ... : C-3 00 . ... : ... .. 6 ... : ... .. . ... ... : ... .. 5 ... ... : ... .. . ... ... : ... .. . ... ...
ROW 3C : ... .. . ... ... ... : ... .. . ... ... ... : G-2 00 . ... : ... .. . ... : ... .. . ... ... : ... .. . ... ... : ... .. 7 ... ... : ... .. . ... ...
ROW 3D : ... .. D ... ... ... : ... .. D ... ... ... : ... .. . ... : ... .. 5 ... : ... .. . ... ... : C-4 01 8 ... ... : ... .. . ... ... : ... .. . ... ...
ROW 3E : ... .. C ... ... ... : ... .. C ... ... ... : ... .. . ... : ... .. . ... : ... .. . ... ... : ... .. 7 ... ... : ... .. . ... ... : ... .. . ... ...
ROW 3F : ... .. B ... ... ... : ... .. B ... ... ... : ... .. . ... : ... .. . ... : ... .. . ... ... : ... .. 6 ... ... : ... .. 6 ... ... : ... .. . ... ...
ROW 40 : ... .. 2 ... ... ... : ... .. 2 ... ... ... : ... .. . ... : ... .. 4 ... : ... .. . ... ... : ... .. 5 ... ... : ... .. . ... ... : ... .. . ... ...
ROW 41 : ... .. . ... ... ... : ... .. . ... ... ... : --- .. . ... : ... .. . ... : ... .. . ... ... : ... .. . ... ... : ... .. . ... ... : --- .. . P7E ...
ROW 42 : ... .. D ... ... ... : ... .. D ... ... ... : F#4 00 . ... : ... .. 0 ... : ... .. . ... ... : G-3 01 8 ... ... : ... .. . ... ... : G-2 01 F P81 ...
ROW 43 : ... .. C ... ... ... : ... .. C ... ... ... : G#3 00 . ... : B-# 00 8 ... : ... .. . ... ... : ... .. 7 ... ... : ... .. . ... ... : ... .. D ... ...
ROW 44 : ... .. B ... ... ... : ... .. B ... ... ... : C#3 00 . ... : ... .. 3 ... : ... .. . ... ... : ... .. 6 ... ... : ... .. . ... ... : ... .. 8 ... ...
ROW 45 : ... .. 2 ... ... ... : ... .. 2 ... ... ... : C-3 00 . ... : ... .. . ... : ... .. . ... ... : ... .. 5 ... ... : ... .. 5 ... ... : ... .. . ... ...
ROW 46 : ... .. . ... ... ... : ... .. . ... ... ... : --- .. . ... : ... .. 0 ... : ... .. . ... ... : ... .. . ... ... : ... .. . ... ... : --- .. . P7E ...
ROW 47 : ... .. D ... ... ... : ... .. D ... ... ... : G-2 00 . ... : ... .. . ... : ... .. . ... ... : D#3 01 8 ... ... : ... .. . ... ... : G-2 01 F P81 ...
ROW 48 : ... .. C ... ... ... : ... .. C ... ... ... : ... .. . ... : ... .. 6 ... : ... .. . ... ... : ... .. 7 ... ... : ... .. . ... ... : ... .. D ... ...
ROW 49 : ... .. B ... ... ... : ... .. B ... ... ... : ... .. . ... : ... .. 2 ... : ... .. . ... ... : ... .. 6 ... ... : ... .. . ... ... : ... .. 8 ... ...
ROW 4A : ... .. 2 ... ... ... : ... .. 2 ... ... ... : ... .. . ... : ... .. . ... : ... .. . ... ... : ... .. 5 ... ... : ... .. . ... ... : ... .. . ... ...
ROW 4B : ... .. . ... ... ... : ... .. . ... ... ... : --- .. . ... : ... .. 0 ... : ... .. . ... ... : ... .. . ... ... : ... .. . ... ... : --- .. . P7E ...
ROW 4C : D#5 00 D ... V00 ... : ... .. D ... V00 ... : G-4 00 . ... : 7-# 00 F ... : ... .. . ... ... : G-5 01 8 ... ... : ... .. . P84 ... : G-4 01 F P81 ...
ROW 4D : ... .. C ... ... ... : ... .. C ... ... ... : ... .. . ... : ... .. C ... : ... .. . ... ... : ... .. 7 ... ... : G#4 01 5 P7E ... : ... .. D ... ...
ROW 4E : ... .. B ... ... ... : ... .. B ... ... ... : ... .. . ... : ... .. A ... : ... .. . ... ... : ... .. 6 ... ... : ... .. . P7D ... : ... .. 8 ... ...
ROW 4F : ... .. 2 ... ... ... : ... .. 2 ... ... ... : ... .. . ... : ... .. 0 ... : ... .. . ... ... : ... .. 5 ... ... : G-4 01 5 P82 ... : ... .. . ... ...
ROW 50 : ... .. . ... ... ... : ... .. . ... ... ... : --- .. . ... : ... .. . ... : ... .. . ... ... : ... .. . ... ... : ... .. . P7E ... : --- .. . ... ...
ROW 51 : C-5 00 D ... ... ... : ... .. D ... ... ... : D#4 00 . ... : 6-# 00 F ... : ... .. . ... ... : G-4 01 8 ... ... : F#4 01 4 P83 ... : D#4 01 F ... ...
ROW 52 : ... .. C ... ... ... : ... .. C ... ... ... : ... .. . ... : ... .. C ... : ... .. . ... ... : ... .. 7 ... ... : ... .. . P82 ... : ... .. D ... ...
ROW 53 : ... .. B ... ... ... : ... .. B ... ... ... : ... .. . ... : ... .. A ... : ... .. . ... ... : ... .. 6 ... ... : ... .. . P84 ... : ... .. 8 ... ...
ROW 54 : ... .. 2 ... ... ... : ... .. 2 ... ... ... : ... .. . ... : ... .. 0 ... : ... .. . ... ... : ... .. 5 ... ... : G-4 01 4 P80 ... : ... .. . ... ...
ROW 55 : ... .. . ... ... ... : ... .. . ... ... ... : --- .. . ... : ... .. . ... : ... .. . ... ... : ... .. . ... ... : ... .. . P83 ... : --- .. . ... ...
ROW 56 : G-4 00 D ... ... ... : ... .. D ... ... ... : B-3 00 . ... : 5-# 00 F ... : ... .. . ... ... : G-3 01 8 ... ... : G#4 01 4 P7E ... : B-3 01 F ... ...
ROW 57 : ... .. C ... ... ... : ... .. C ... ... ... : ... .. . ... : ... .. C ... : ... .. . ... ... : ... .. 7 ... ... : ... .. . ... ... : ... .. D ... ...
ROW 58 : ... .. B ... ... ... : ... .. B ... ... ... : ... .. . ... : ... .. A ... : ... .. . ... ... : ... .. 6 ... ... : G-4 01 4 P82 ... : ... .. 8 ... ...
ROW 59 : ... .. 2 ... ... ... : ... .. 2 ... ... ... : ... .. . ... : ... .. 0 ... : ... .. . ... ... : ... .. 5 ... ... : ... .. . P7F ... : ... .. . ... ...
ROW 5A : ... .. . ... ... ... : ... .. . ... ... ... : --- .. . ... : ... .. . ... : ... .. . ... ... : ... .. . ... ... : F#4 01 4 P83 ... : --- .. . P8F ...
ROW 5B : G-3 00 D ... ... ... : ... .. D ... ... ... : G-3 00 . ... : 4-# 00 F ... : ... .. . ... ... : G-2 01 8 ... ... : ... .. . P82 ... : G-3 01 F P81 ...
ROW 5C : ... .. C ... ... ... : ... .. C ... ... ... : ... .. . ... : ... .. C ... : ... .. . ... ... : ... .. 7 ... ... : ... .. . P84 ... : ... .. D ... ...
ROW 5D : ... .. B ... ... ... : ... .. B ... ... ... : ... .. . ... : ... .. A ... : ... .. . ... ... : ... .. 6 ... ... : G-4 01 4 P80 ... : ... .. 8 ... ...
ROW 5E : ... .. 2 ... ... ... : ... .. 2 ... ... ... : ... .. . ... : ... .. 8 ... : ... .. . ... ... : ... .. 5 ... ... : ... .. . P83 ... : ... .. . ... ...
ROW 5F : ... .. . ... ... ... : ... .. . ... ... ... : --- .. . ... : ... .. 7 ... : ... .. . ... ... : ... .. . ... ... : G#4 01 4 P7E ... : --- .. . P80 ...
ROW 60 : D#4 00 D ... V01 ... : G-4 00 D ... V01 ... : B-4 00 . ... : 9-# 00 D ... : ... .. . ... ... : D#4 01 8 ... ... : C-5 01 6 P80 ... : C-3 01 F P81 ...
ROW 61 : ... .. C ... ... ... : ... .. C ... ... ... : C#4 00 . ... : ... .. . ... : ... .. . ... ... : ... .. 7 ... ... : ... .. 5 ... ... : ... .. D ... ...
ROW 62 : ... .. B ... ... ... : ... .. B ... ... ... : F#3 00 . ... : ... .. . ... : ... .. . ... ... : ... .. 6 ... ... : ... .. . ... ... : ... .. 8 ... ...
ROW 63 : ... .. 2 ... ... ... : ... .. 2 ... ... ... : F-3 00 . ... : ... .. B ... : ... .. . ... ... : ... .. 5 ... ... : ... .. . ... ... : ... .. . ... ...
ROW 64 : ... .. . ... ... ... : ... .. . ... ... ... : C-3 00 . ... : ... .. . ... : ... .. . ... ... : ... .. . ... ... : ... .. 4 ... ... : ... .. . ... ...
ROW 65 : ... .. D ... ... ... : ... .. D ... ... ... : ... .. . ... : ... .. A ... : ... .. . ... ... : C-4 01 8 ... ... : ... .. . ... ... : ... .. . ... ...
ROW 66 : ... .. C ... ... ... : ... .. C ... ... ... : ... .. . ... : ... .. . ... : ... .. . ... ... : ... .. 7 ... ... : ... .. . ... ... : ... .. . ... ...
ROW 67 : ... .. B ... ... ... : ... .. B ... ... ... : ... .. . ... : ... .. . ... : ... .. . ... ... : ... .. 6 ... ... : ... .. . ... ... : ... .. . ... ...
ROW 68 : ... .. 2 ... ... ... : ... .. 2 ... ... ... : ... .. . ... : ... .. 9 ... : ... .. . ... ... : ... .. 5 ... ... : ... .. . ... ... : ... .. . ... ...
ROW 69 : ... .. . ... ... ... : ... .. . ... ... ... : --- .. . ... : ... .. . ... : ... .. . ... ... : ... .. . ... ... : ... .. . ... ... : --- .. . P7F ...
ROW 6A : ... .. D ... ... ... : ... .. D ... ... ... : C-3 00 . ... : ... .. 7 ... : ... .. . ... ... : G-3 01 8 ... ... : ... .. . ... ... : C-3 01 F P81 ...
ROW 6B : ... .. C ... ... ... : ... .. C ... ... ... : ... .. . ... : ... .. . ... : ... .. . ... ... : ... .. 7 ... ... : ... .. . ... ... : ... .. D ... ...
ROW 6C : ... .. B ... ... ... : ... .. B ... ... ... : ... .. . ... : ... .. . ... : ... .. . ... ... : ... .. 6 ... ... : ... .. . ... ... : ... .. 8 ... ...
ROW 6D : ... .. 2 ... ... ... : ... .. 2 ... ... ... : ... .. . ... : ... .. 6 ... : ... .. . ... ... : ... .. 5 ... ... : ... .. . ... ... : ... .. . ... ...
ROW 6E : ... .. . ... ... ... : ... .. . ... ... ... : --- .. . ... : ... .. . ... : ... .. . ... ... : ... .. . ... ... : ... .. . ... ... : --- .. . P7F ...
ROW 6F : ... .. D ... ... ... : ... .. D ... ... ... : C-3 00 . ... : ... .. 5 ... : ... .. . ... ... : D#3 01 8 ... ... : ... .. . ... ... : C-3 01 F P81 ...
ROW 70 : ... .. C ... ... ... : ... .. C ... ... ... : ... .. . ... : ... .. . ... : ... .. . ... ... : ... .. 7 ... ... : ... .. . ... ... : ... .. D ... ...
ROW 71 : ... .. B ... ... ... : ... .. B ... ... ... : ... .. . ... : ... .. . ... : ... .. . ... ... : ... .. 6 ... ... : ... .. . ... ... : ... .. 8 ... ...
ROW 72 : ... .. 2 ... ... ... : ... .. 2 ... ... ... : ... .. . ... : ... .. 4 ... : ... .. . ... ... : ... .. 5 ... ... : ... .. 5 ... ... : ... .. . ... ...
ROW 73 : ... .. . ... ... ... : ... .. . ... ... ... : --- .. . ... : ... .. . ... : ... .. . ... ... : ... .. . ... ... : ... .. . ... ... : --- .. . P7F ...
ROW 74 : D-4 00 D ... V02 ... : F#4 00 D ... V02 ... : C-3 00 . ... : 7-# 00 F ... : ... .. . ... ... : D-4 01 8 ... ... : C#5 01 5 P7E ... : C-3 01 F P81 ...
ROW 75 : ... .. C ... ... ... : ... .. C ... ... ... : ... .. . ... : ... .. C ... : ... .. . ... ... : ... .. 7 ... ... : ... .. . P80 ... : ... .. D ... ...
ROW 76 : ... .. B ... ... ... : ... .. B ... ... ... : ... .. . ... : ... .. A ... : ... .. . ... ... : ... .. 6 ... ... : ... .. . P7F ... : ... .. 8 ... ...
ROW 77 : ... .. 2 ... ... ... : ... .. 2 ... ... ... : ... .. . ... : ... .. 8 ... : ... .. . ... ... : ... .. 5 ... ... : C-5 01 5 P82 ... : ... .. . ... ...
ROW 78 : ... .. . ... ... ... : ... .. . ... ... ... : --- .. . ... : ... .. 7 ... : ... .. . ... ... : ... .. . ... ... : ... .. . P7E ... : --- .. . P7F ...
ROW 79 : ... .. D ... ... ... : ... .. D ... ... ... : C-3 00 . ... : ... .. 0 ... : ... .. . ... ... : B-3 01 8 ... ... : B-4 01 5 P81 ... : C-3 01 F P81 ...
ROW 7A : ... .. C ... ... ... : ... .. C ... ... ... : ... .. . ... : B-# 00 6 ... : ... .. . ... ... : ... .. 7 ... ... : ... .. . P80 ... : ... .. D ... ...
ROW 7B : ... .. B ... ... ... : ... .. B ... ... ... : ... .. . ... : ... .. 2 ... : ... .. . ... ... : ... .. 6 ... ... : ... .. . P82 ... : ... .. 8 ... ...
ROW 7C : ... .. 2 ... ... ... : ... .. 2 ... ... ... : ... .. . ... : ... .. . ... : ... .. . ... ... : ... .. 5 ... ... : C-5 01 5 P80 ... : ... .. . ... ...
ROW 7D : ... .. . ... ... ... : ... .. . ... ... ... : --- .. . ... : ... .. 0 ... : ... .. . ... ... : ... .. . ... ... : ... .. . P83 ... : --- .. . P7F ...
ROW 7E : ... .. D ... ... ... : ... .. D ... ... ... : C-3 00 . ... : ... .. . ... : ... .. . ... ... : F#3 01 8 ... ... : C#5 01 6 P80 ... : C-3 01 F P81 ...
ROW 7F : ... .. C ... ... ... : ... .. C ... ... ... : ... .. . ... : ... .. A ... : ... .. . ... ... : ... .. 7 ... ... : ... .. . ... ... : ... .. D ... ...
ROW 80 : ... .. B ... ... ... : ... .. B ... ... ... : ... .. . ... : ... .. 4 ... : ... .. . ... ... : ... .. 6 ... ... : C-5 01 6 P82 ... : ... .. 8 ... ...
ROW 81 : ... .. 2 ... ... ... : ... .. 2 ... ... ... : ... .. . ... : ... .. . ... : ... .. . ... ... : ... .. 5 ... ... : ... .. . P7F ... : ... .. . ... ...
ROW 82 : ... .. . ... ... ... : ... .. . ... ... ... : --- .. . ... : ... .. 0 ... : ... .. . ... ... : ... .. . ... ... : B-4 01 6 P81 ... : --- .. . P7F ...
ROW 83 : ... .. D ... ... ... : ... .. D ... ... ... : C-3 00 . ... : ... .. . ... : ... .. . ... ... : D-3 01 8 ... ... : ... .. . P80 ... : C-3 01 F P81 ...
ROW 84 : ... .. C ... ... ... : ... .. C ... ... ... : ... .. . ... : ... .. 8 ... : ... .. . ... ... : ... .. 7 ... ... : ... .. . P82 ... : ... .. D ... ...
ROW 85 : ... .. B ... ... ... : ... .. B ... ... ... : ... .. . ... : ... .. 3 ... : ... .. . ... ... : ... .. 6 ... ... : C-5 01 6 P80 ... : ... .. 8 ... ...
ROW 86 : ... .. 2 ... ... ... : ... .. 2 ... ... ... : ... .. . ... : ... .. . ... : ... .. . ... ... : ... .. 5 ... ... : ... .. . P83 ... : ... .. . ... ...
ROW 87 : ... .. . ... ... ... : ... .. . ... ... ... : --- .. . ... : ... .. 0 ... : ... .. . ... ... : ... .. . ... ... : C#5 01 6 P80 ... : --- .. . P7F ...
ROW 88 : D#4 00 D ... V00 ... : G-4 00 D ... V00 ... : B-4 00 . ... : 2-# 00 F ... : ... .. . ... ... : D#4 01 8 ... ... : D#5 01 9 ... ... : C-3 01 F P81 ...
ROW 89 : ... .. C ... ... ... : ... .. C ... ... ... : C#4 00 . ... : ... .. C ... : ... .. . ... ... : ... .. 7 ... ... : ... .. 8 ... ... : ... .. D ... ...
ROW 8A : ... .. B ... ... ... : ... .. B ... ... ... : F#3 00 . ... : ... .. 6 ... : ... .. . ... ... : ... .. 6 ... ... : ... .. . ... ... : ... .. 8 ... ...
ROW 8B : ... .. 2 ... ... ... : ... .. 2 ... ... ... : F-3 00 . ... : ... .. 3 ... : ... .. . ... ... : ... .. 5 ... ... : ... .. . ... ... : ... .. . ... ...
ROW 8C : ... .. . ... ... ... : ... .. . ... ... ... : C-3 00 . ... : ... .. 2 ... : ... .. . ... ... : ... .. . ... ... : ... .. 7 ... ... : ... .. . ... ...
ROW 8D : ... .. D ... ... ... : ... .. D ... ... ... : ... .. . ... : ... .. 0 ... : ... .. . ... ... : C-4 01 8 ... ... : ... .. . ... ... : ... .. . ... ...
ROW 8E : ... .. C ... ... ... : ... .. C ... ... ... : ... .. . ... : B-# 00 8 ... : ... .. . ... ... : ... .. 7 ... ... : ... .. . ... ... : ... .. . ... ...
ROW 8F : ... .. B ... ... ... : ... .. B ... ... ... : ... .. . ... : ... .. 3 ... : ... .. . ... ... : ... .. 6 ... ... : ... .. 6 ... ... : ... .. . ... ...
ROW 90 : ... .. 2 ... ... ... : ... .. 2 ... ... ... : ... .. . ... : ... .. . ... : ... .. . ... ... : ... .. 5 ... ... : ... .. . ... ... : ... .. . ... ...
ROW 91 : ... .. . ... ... ... : ... .. . ... ... ... : --- .. . ... : ... .. 0 ... : ... .. . ... ... : ... .. . ... ... : ... .. . ... ... : --- .. . P7F ...
ROW 92 : ... .. D ... ... ... : ... .. D ... ... ... : B-4 00 . ... : 2-# 00 F ... : ... .. . ... ... : G-3 01 8 ... ... : ... .. . ... ... : C-3 01 F P81 ...
ROW 93 : ... .. C ... ... ... : ... .. C ... ... ... : C#4 00 . ... : ... .. C ... : ... .. . ... ... : ... .. 7 ... ... : ... .. . ... ... : ... .. D ... ...
ROW 94 : ... .. B ... ... ... : ... .. B ... ... ... : F#3 00 . ... : ... .. 6 ... : ... .. . ... ... : ... .. 6 ... ... : ... .. . ... ... : ... .. 8 ... ...
ROW 95 : ... .. 2 ... ... ... : ... .. 2 ... ... ... : F-3 00 . ... : ... .. 3 ... : ... .. . ... ... : ... .. 5 ... ... : ... .. 5 ... ... : ... .. . ... ...
ROW 96 : ... .. . ... ... ... : ... .. . ... ... ... : --- .. . ... : ... .. 2 ... : ... .. . ... ... : ... .. . ... ... : ... .. . ... ... : --- .. . P7F ...
ROW 97 : ... .. D ... ... ... : ... .. D ... ... ... : C-3 00 . ... : ... .. 0 ... : ... .. . ... ... : D#3 01 8 ... ... : ... .. . ... ... : C-3 01 F P81 ...
ROW 98 : ... .. C ... ... ... : ... .. C ... ... ... : ... .. . ... : B-# 00 8 ... : ... .. . ... ... : ... .. 7 ... ... : ... .. . ... ... : ... .. D ... ...
ROW 99 : ... .. B ... ... ... : ... .. B ... ... ... : ... .. . ... : ... .. 3 ... : ... .. . ... ... : ... .. 6 ... ... : ... .. . ... ... : ... .. 8 ... ...
ROW 9A : ... .. 2 ... ... ... : ... .. 2 ... ... ... : ... .. . ... : ... .. . ... : ... .. . ... ... : ... .. 5 ... ... : ... .. . ... ... : ... .. . ... ...
ROW 9B : ... .. . ... ... ... : ... .. . ... ... ... : --- .. . ... : ... .. 0 ... : ... .. . ... ... : ... .. . ... ... : ... .. . ... ... : --- .. . P7F ...
ROW 9C : C-4 00 D ... V01 ... : D#4 00 D ... V01 ... : C-3 00 . ... : 7-# 00 F ... : ... .. . ... ... : C-4 01 8 ... ... : E-5 01 5 P7F ... : C-3 01 F P81 ...
ROW 9D : ... .. C ... ... ... : ... .. C ... ... ... : ... .. . ... : ... .. C ... : ... .. . ... ... : ... .. 7 ... ... : ... .. . P81 ... : ... .. D ... ...
ROW 9E : ... .. B ... ... ... : ... .. B ... ... ... : ... .. . ... : ... .. A ... : ... .. . ... ... : ... .. 6 ... ... : ... .. . P80 ... : ... .. 8 ... ...
ROW 9F : ... .. 2 ... ... ... : ... .. 2 ... ... ... : ... .. . ... : ... .. 8 ... : ... .. . ... ... : ... .. 5 ... ... : D#5 01 5 P82 ... : ... .. . ... ...
ROW A0 : ... .. . ... ... ... : ... .. . ... ... ... : --- .. . ... : ... .. 7 ... : ... .. . ... ... : ... .. . ... ... : ... .. . P7E ... : --- .. . P7F ...
ROW A1 : ... .. D ... ... ... : ... .. D ... ... ... : C-3 00 . ... : ... .. 0 ... : ... .. . ... ... : G-3 01 8 ... ... : D-5 01 4 P80 ... : C-3 01 F P81 ...
ROW A2 : ... .. C ... ... ... : ... .. C ... ... ... : ... .. . ... : B-# 00 6 ... : ... .. . ... ... : ... .. 7 ... ... : ... .. . P7F ... : ... .. D ... ...
ROW A3 : ... .. B ... ... ... : ... .. B ... ... ... : ... .. . ... : ... .. 2 ... : ... .. . ... ... : ... .. 6 ... ... : ... .. . P81 ... : ... .. 8 ... ...
ROW A4 : ... .. 2 ... ... ... : ... .. 2 ... ... ... : ... .. . ... : ... .. . ... : ... .. . ... ... : ... .. 5 ... ... : D#5 01 4 P80 ... : ... .. . ... ...
ROW A5 : ... .. . ... ... ... : ... .. . ... ... ... : --- .. . ... : ... .. 0 ... : ... .. . ... ... : ... .. . ... ... : E-5 01 4 P7E ... : --- .. . P7F ...
ROW A6 : ... .. D ... ... ... : ... .. D ... ... ... : C-3 00 . ... : ... .. . ... : ... .. . ... ... : D#3 01 8 ... ... : ... .. . P81 ... : C-3 01 F P81 ...
ROW A7 : ... .. C ... ... ... : ... .. C ... ... ... : ... .. . ... : ... .. A ... : ... .. . ... ... : ... .. 7 ... ... : ... .. . ... ... : ... .. D ... ...
ROW A8 : ... .. B ... ... ... : ... .. B ... ... ... : ... .. . ... : ... .. 4 ... : ... .. . ... ... : ... .. 6 ... ... : D#5 01 4 P82 ... : ... .. 8 ... ...
ROW A9 : ... .. 2 ... ... ... : ... .. 2 ... ... ... : ... .. . ... : ... .. . ... : ... .. . ... ... : ... .. 5 ... ... : ... .. . P7F ... : ... .. . ... ...
ROW AA : ... .. . ... ... ... : ... .. . ... ... ... : --- .. . ... : ... .. 0 ... : ... .. . ... ... : ... .. . ... ... : D-5 01 4 P80 ... : --- .. . P7F ...
ROW AB : ... .. D ... ... ... : ... .. D ... ... ... : C-3 00 . ... : ... .. . ... : ... .. . ... ... : C-3 01 8 ... ... : ... .. . P7F ... : C-3 01 F P81 ...
ROW AC : ... .. C ... ... ... : ... .. C ... ... ... : ... .. . ... : ... .. 8 ... : ... .. . ... ... : ... .. 7 ... ... : ... .. . P81 ... : ... .. D ... ...
ROW AD : ... .. B ... ... ... : ... .. B ... ... ... : ... .. . ... : ... .. 3 ... : ... .. . ... ... : ... .. 6 ... ... : D#5 01 4 P80 ... : ... .. 8 ... ...
ROW AE : ... .. 2 ... ... ... : ... .. 2 ... ... ... : ... .. . ... : ... .. . ... : ... .. . ... ... : ... .. 5 ... ... : E-5 01 4 P7E ... : ... .. . ... ...
ROW AF : ... .. . ... ... ... : ... .. . ... ... ... : --- .. . ... : ... .. 0 ... : ... .. . ... ... : ... .. . ... ... : ... .. . P81 ... : --- .. . P7F ...
ROW B0 : D-4 00 D ... V02 ... : F#4 00 D ... V02 ... : B-3 00 . ... : 2-# 00 F ... : ... .. . ... ... : D-4 01 8 ... ... : D-5 01 6 P80 ... : C-2 01 F P81 ...
ROW B1 : ... .. C ... ... ... : ... .. C ... ... ... : C#3 00 . ... : ... .. C ... : ... .. . ... ... : ... .. 7 ... ... : ... .. 5 ... ... : ... .. D ... ...
ROW B2 : ... .. B ... ... ... : ... .. B ... ... ... : F#2 00 . ... : ... .. 6 ... : ... .. . ... ... : ... .. 6 ... ... : ... .. . ... ... : ... .. 8 ... ...
ROW B3 : ... .. 2 ... ... ... : ... .. 2 ... ... ... : F-2 00 . ... : ... .. 3 ... : ... .. . ... ... : ... .. 5 ... ... : ... .. . ... ... : ... .. . ... ...
ROW B4 : ... .. . ... ... ... : ... .. . ... ... ... : C-2 00 . ... : ... .. 2 ... : ... .. . ... ... : ... .. . ... ... : ... .. 4 ... ... : ... .. . ... ...
ROW B5 : ... .. D ... ... ... : ... .. D ... ... ... : ... .. . ... : ... .. 0 ... : ... .. . ... ... : A-3 01 8 ... ... : ... .. . ... ... : ... .. . ... ...
ROW B6 : ... .. C ... ... ... : ... .. C ... ... ... : ... .. . ... : B-# 00 8 ... : ... .. . ... ... : ... .. 7 ... ... : ... .. . ... ... : ... .. . ... ...
ROW B7 : ... .. B ... ... ... : ... .. B ... ... ... : ... .. . ... : ... .. 3 ... : ... .. . ... ... : ... .. 6 ... ... : ... .. . ... ... : ... .. . ... ...
ROW B8 : ... .. 2 ... ... ... : ... .. 2 ... ... ... : ... .. . ... : ... .. . ... : ... .. . ... ... : ... .. 5 ... ... : ... .. . ... ... : ... .. . ... ...
ROW B9 : ... .. . ... ... ... : ... .. . ... ... ... : --- .. . ... : ... .. 0 ... : ... .. . ... ... : ... .. . ... ... : ... .. . ... ... : --- .. . P7D ...
ROW BA : ... .. D ... ... ... : ... .. D ... ... ... : C-3 00 . ... : 2-# 00 F ... : ... .. . ... ... : F#3 01 8 ... ... : ... .. . ... ... : C-3 01 F P81 ...
ROW BB : ... .. C ... ... ... : ... .. C ... ... ... : ... .. . ... : ... .. C ... : ... .. . ... ... : ... .. 7 ... ... : ... .. . ... ... : ... .. D ... ...
ROW BC : ... .. B ... ... ... : ... .. B ... ... ... : ... .. . ... : ... .. 6 ... : ... .. . ... ... : ... .. 6 ... ... : ... .. . ... ... : ... .. 8 ... ...
ROW BD : ... .. 2 ... ... ... : ... .. 2 ... ... ... : ... .. . ... : ... .. 3 ... : ... .. . ... ... : ... .. 5 ... ... : ... .. . ... ... : ... .. . ... ...
ROW BE : ... .. . ... ... ... : ... .. . ... ... ... : --- .. . ... : ... .. 2 ... : ... .. . ... ... : ... .. . ... ... : ... .. . ... ... : --- .. . P7F ...
ROW BF : ... .. D ... ... ... : ... .. D ... ... ... : C-3 00 . ... : ... .. 0 ... : ... .. . ... ... : D-3 01 8 ... ... : ... .. . ... ... : C-3 01 F P81 ...
ROW C0 : ... .. C ... ... ... : ... .. C ... ... ... : ... .. . ... : B-# 00 8 ... : ... .. . ... ... : ... .. 7 ... ... : ... .. . ... ... : ... .. D ... ...
ROW C1 : ... .. B ... ... ... : ... .. B ... ... ... : ... .. . ... : ... .. 3 ... : ... .. . ... ... : ... .. 6 ... ... : ... .. . ... ... : ... .. 8 ... ...
ROW C2 : ... .. 2 ... ... ... : ... .. 2 ... ... ... : ... .. . ... : ... .. . ... : ... .. . ... ... : ... .. 5 ... ... : ... .. 5 ... ... : ... .. . ... ...
ROW C3 : ... .. . ... ... ... : ... .. . ... ... ... : --- .. . ... : ... .. 0 ... : ... .. . ... ... : ... .. . ... ... : ... .. . ... ... : --- .. . P7F ...
ROW C4 : C#4 00 D ... V03 ... : F-4 00 D ... V03 ... : C-3 00 . ... : 7-# 00 F ... : ... .. . ... ... : C#4 01 8 ... ... : D#5 01 5 P7F ... : C-3 01 F P81 ...
ROW C5 : ... .. C ... ... ... : ... .. C ... ... ... : ... .. . ... : ... .. C ... : ... .. . ... ... : ... .. 7 ... ... : ... .. . P81 ... : ... .. D ... ...
ROW C6 : ... .. B ... ... ... : ... .. B ... ... ... : ... .. . ... : ... .. A ... : ... .. . ... ... : ... .. 6 ... ... : ... .. . P80 ... : ... .. 8 ... ...
ROW C7 : ... .. 2 ... ... ... : ... .. 2 ... ... ... : ... .. . ... : ... .. 8 ... : ... .. . ... ... : ... .. 5 ... ... : D-5 01 5 P82 ... : ... .. . ... ...
ROW C8 : ... .. . ... ... ... : ... .. . ... ... ... : --- .. . ... : ... .. 7 ... : ... .. . ... ... : ... .. . ... ... : ... .. . P7E ... : --- .. . P7F ...
ROW C9 : ... .. D ... ... ... : ... .. D ... ... ... : C-3 00 . ... : ... .. 0 ... : ... .. . ... ... : G#3 01 8 ... ... : C#5 01 5 P81 ... : C-3 01 F P81 ...
ROW CA : ... .. C ... ... ... : ... .. C ... ... ... : ... .. . ... : B-# 00 6 ... : ... .. . ... ... : ... .. 7 ... ... : ... .. . P80 ... : ... .. D ... ...
ROW CB : ... .. B ... ... ... : ... .. B ... ... ... : ... .. . ... : ... .. 2 ... : ... .. . ... ... : ... .. 6 ... ... : ... .. . P82 ... : ... .. 8 ... ...
ROW CC : ... .. 2 ... ... ... : ... .. 2 ... ... ... : ... .. . ... : ... .. . ... : ... .. . ... ... : ... .. 5 ... ... : D-5 01 5 P80 ... : ... .. . ... ...
ROW CD : ... .. . ... ... ... : ... .. . ... ... ... : --- .. . ... : ... .. 0 ... : ... .. . ... ... : ... .. . ... ... : D#5 01 5 P7E ... : --- .. . P7F ...
ROW CE : ... .. D ... ... ... : ... .. D ... ... ... : C-3 00 . ... : ... .. . ... : ... .. . ... ... : F-3 01 8 ... ... : ... .. 6 P81 ... : C-3 01 F P81 ...
ROW CF : ... .. C ... ... ... : ... .. C ... ... ... : ... .. . ... : ... .. A ... : ... .. . ... ... : ... .. 7 ... ... : ... .. . ... ... : ... .. D ... ...
ROW D0 : ... .. B ... ... ... : ... .. B ... ... ... : ... .. . ... : ... .. 4 ... : ... .. . ... ... : ... .. 6 ... ... : D-5 01 6 P82 ... : ... .. 8 ... ...
ROW D1 : ... .. 2 ... ... ... : ... .. 2 ... ... ... : ... .. . ... : ... .. . ... : ... .. . ... ... : ... .. 5 ... ... : ... .. . P7F ... : ... .. . ... ...
ROW D2 : ... .. . ... ... ... : ... .. . ... ... ... : --- .. . ... : ... .. 0 ... : ... .. . ... ... : ... .. . ... ... : C#5 01 6 P81 ... : --- .. . P7F ...
ROW D3 : ... .. D ... ... ... : ... .. D ... ... ... : C-3 00 . ... : ... .. . ... : ... .. . ... ... : C#3 01 8 ... ... : ... .. . P80 ... : C-3 01 F P81 ...
ROW D4 : ... .. C ... ... ... : ... .. C ... ... ... : ... .. . ... : ... .. 8 ... : ... .. . ... ... : ... .. 7 ... ... : ... .. . P82 ... : ... .. D ... ...
ROW D5 : ... .. B ... ... ... : ... .. B ... ... ... : ... .. . ... : ... .. 3 ... : ... .. . ... ... : ... .. 6 ... ... : D-5 01 6 P80 ... : ... .. 8 ... ...
ROW D6 : ... .. 2 ... ... ... : ... .. 2 ... ... ... : ... .. . ... : ... .. . ... : ... .. . ... ... : ... .. 5 ... ... : D#5 01 6 P7E ... : ... .. . ... ...
ROW D7 : ... .. . ... ... ... : ... .. . ... ... ... : --- .. . ... : ... .. 0 ... : ... .. . ... ... : ... .. . ... ... : ... .. . P81 ... : --- .. . P7F ...
ROW D8 : D-4 00 D ... V01 ... : F#4 00 D ... V01 ... : B-4 00 . ... : 2-# 00 F ... : ... .. . ... ... : D-4 01 8 ... ... : A-4 01 9 P80 ... : C-3 01 F P81 ...
ROW D9 : ... .. C ... ... ... : ... .. C ... ... ... : C#4 00 . ... : ... .. C ... : ... .. . ... ... : ... .. 7 ... ... : ... .. 8 ... ... : ... .. D ... ...
ROW DA : ... .. B ... ... ... : ... .. B ... ... ... : F#3 00 . ... : ... .. 6 ... : ... .. . ... ... : ... .. 6 ... ... : ... .. . ... ... : ... .. 8 ... ...
ROW DB : ... .. 2 ... ... ... : ... .. 2 ... ... ... : F-3 00 . ... : ... .. 3 ... : ... .. . ... ... : ... .. 5 ... ... : ... .. . ... ... : ... .. . ... ...
ROW DC : ... .. . ... ... ... : ... .. . ... ... ... : C-3 00 . ... : ... .. 2 ... : ... .. . ... ... : ... .. . ... ... : ... .. 7 ... ... : ... .. . ... ...
ROW DD : ... .. D ... ... ... : ... .. D ... ... ... : ... .. . ... : ... .. 0 ... : ... .. . ... ... : A-3 01 8 ... ... : ... .. . ... ... : ... .. . ... ...
ROW DE : ... .. C ... ... ... : ... .. C ... ... ... : ... .. . ... : B-# 00 8 ... : ... .. . ... ... : ... .. 7 ... ... : ... .. . ... ... : ... .. . ... ...
ROW DF : ... .. B ... ... ... : ... .. B ... ... ... : ... .. . ... : ... .. 3 ... : ... .. . ... ... : ... .. 6 ... ... : ... .. 6 ... ... : ... .. . ... ...
ROW E0 : ... .. 2 ... ... ... : ... .. 2 ... ... ... : ... .. . ... : ... .. . ... : ... .. . ... ... : ... .. 5 ... ... : ... .. . ... ... : ... .. . ... ...
ROW E1 : ... .. . ... ... ... : ... .. . ... ... ... : --- .. . ... : ... .. 0 ... : ... .. . ... ... : ... .. . ... ... : ... .. . ... ... : --- .. . P7F ...
ROW E2 : ... .. D ... ... ... : ... .. D ... ... ... : B-4 00 . ... : C-# 00 8 ... : ... .. . ... ... : F#3 01 8 ... ... : ... .. . ... ... : C-3 01 F P81 ...
ROW E3 : ... .. C ... ... ... : ... .. C ... ... ... : C#4 00 . ... : ... .. 7 ... : ... .. . ... ... : ... .. 7 ... ... : ... .. . ... ... : ... .. D ... ...
ROW E4 : ... .. B ... ... ... : ... .. B ... ... ... : F#3 00 . ... : ... .. . ... : ... .. . ... ... : ... .. 6 ... ... : ... .. . ... ... : ... .. 8 ... ...
ROW E5 : ... .. 2 ... ... ... : ... .. 2 ... ... ... : F-3 00 . ... : ... .. 6 ... : ... .. . ... ... : ... .. 5 ... ... : ... .. 5 ... ... : ... .. . ... ...
ROW E6 : ... .. . ... ... ... : ... .. . ... ... ... : --- .. . ... : ... .. 5 ... : ... .. . ... ... : ... .. . ... ... : ... .. . ... ... : --- .. . P7F ...
ROW E7 : ... .. D ... ... ... : ... .. D ... ... ... : C-3 00 . ... : ... .. 4 ... : ... .. . ... ... : D-3 01 8 ... ... : ... .. . ... ... : C-3 01 F P81 ...
ROW E8 : ... .. C ... ... ... : ... .. C ... ... ... : ... .. . ... : ... .. . ... : ... .. . ... ... : ... .. 7 ... ... : ... .. . ... ... : ... .. D ... ...
ROW E9 : ... .. B ... ... ... : ... .. B ... ... ... : ... .. . ... : ... .. . ... : ... .. . ... ... : ... .. 6 ... ... : ... .. . ... ... : ... .. 8 ... ...
ROW EA : ... .. 2 ... ... ... : ... .. 2 ... ... ... : ... .. . ... : ... .. 3 ... : ... .. . ... ... : ... .. 5 ... ... : ... .. . ... ... : ... .. . ... ...
ROW EB : ... .. . ... ... ... : ... .. . ... ... ... : --- .. . ... : ... .. . ... : ... .. . ... ... : ... .. . ... ... : ... .. . ... ... : --- .. . P7F ...
ROW EC : ... .. D ... V00 ... : ... .. D ... V00 ... : C-3 00 . ... : 7-# 00 F ... : ... .. . ... ... : A-2 01 8 ... ... : A#4 01 5 P7D ... : C-3 01 F P81 ...
ROW ED : ... .. C ... ... ... : ... .. C ... ... ... : ... .. . ... : ... .. C ... : ... .. . ... ... : ... .. 7 ... ... : ... .. . P7F ... : ... .. D ... ...
ROW EE : ... .. B ... ... ... : ... .. B ... ... ... : ... .. . ... : ... .. A ... : ... .. . ... ... : ... .. 6 ... ... : ... .. . P7E ... : ... .. 8 ... ...
ROW EF : ... .. 2 ... ... ... : ... .. 2 ... ... ... : ... .. . ... : ... .. 8 ... : ... .. . ... ... : ... .. 5 ... ... : A-4 01 5 P82 ... : ... .. . ... ...
ROW F0 : ... .. . ... ... ... : ... .. . ... ... ... : --- .. . ... : ... .. 7 ... : ... .. . ... ... : ... .. . ... ... : ... .. . P7E ... : --- .. . P7F ...
ROW F1 : ... .. D ... ... ... : ... .. D ... ... ... : C-3 00 . ... : ... .. 0 ... : ... .. . ... ... : D-3 01 8 ... ... : G#4 01 4 P83 ... : C-3 01 F P81 ...
ROW F2 : ... .. C ... ... ... : ... .. C ... ... ... : ... .. . ... : B-# 00 6 ... : ... .. . ... ... : ... .. 7 ... ... : ... .. . P82 ... : ... .. D ... ...
ROW F3 : ... .. B ... ... ... : ... .. B ... ... ... : ... .. . ... : ... .. 2 ... : ... .. . ... ... : ... .. 6 ... ... : ... .. . P84 ... : ... .. 8 ... ...
ROW F4 : ... .. 2 ... ... ... : ... .. 2 ... ... ... : ... .. . ... : ... .. . ... : ... .. . ... ... : ... .. 5 ... ... : A-4 01 4 P80 ... : ... .. . ... ...
ROW F5 : ... .. . ... ... ... : ... .. . ... ... ... : --- .. . ... : ... .. 0 ... : ... .. . ... ... : ... .. . ... ... : ... .. . P83 ... : --- .. . P7F ...
ROW F6 : ... .. D ... ... ... : ... .. D ... ... ... : C-3 00 . ... : ... .. . ... : ... .. . ... ... : ... .. 8 ... ... : A#4 01 4 P7F ... : C-3 01 F P81 ...
ROW F7 : ... .. C ... ... ... : ... .. C ... ... ... : ... .. . ... : ... .. A ... : ... .. . ... ... : ... .. 7 ... ... : ... .. . ... ... : ... .. D ... ...
ROW F8 : ... .. B ... ... ... : ... .. B ... ... ... : ... .. . ... : ... .. 4 ... : ... .. . ... ... : ... .. 6 ... ... : A-4 01 4 P82 ... : ... .. 8 ... ...
ROW F9 : ... .. 2 ... ... ... : ... .. 2 ... ... ... : ... .. . ... : ... .. . ... : ... .. . ... ... : ... .. 5 ... ... : ... .. . P7F ... : ... .. . ... ...
ROW FA : ... .. . ... ... ... : ... .. . ... ... ... : --- .. . ... : ... .. 0 ... : ... .. . ... ... : ... .. . ... ... : G#4 01 4 P83 ... : --- .. . P7F ...
ROW FB : ... .. D ... ... ... : ... .. D ... ... ... : C-3 00 . ... : ... .. . ... : ... .. . ... ... : F#3 01 8 ... ... : ... .. . P82 ... : C-3 01 F P81 ...
ROW FC : ... .. C ... ... ... : ... .. C ... ... ... : ... .. . ... : ... .. 8 ... : ... .. . ... ... : ... .. 7 ... ... : ... .. . P84 ... : ... .. D ... ...
ROW FD : ... .. B ... ... ... : ... .. B ... ... ... : ... .. . ... : ... .. 3 ... : ... .. . ... ... : ... .. 6 ... ... : A-4 01 4 P80 ... : ... .. 8 ... ...
ROW FE : ... .. 2 ... ... ... : ... .. 2 ... ... ... : ... .. . ... : ... .. . ... : ... .. . ... ... : ... .. 5 ... ... : ... .. . P83 ... : ... .. . ... ...
ROW FF : ... .. . ... ... ... : ... .. . ... ... ... : --- .. . ... : ... .. 0 ... : ... .. . ... ... : ... .. . ... ... : A#4 01 4 P7F ... : --- .. . P7F ...

PATTERN 0A
ROW 00 : C#4 00 D ... V01 ... : F-4 00 D ... V01 ... : B-3 00 . ... : ... .. . ... : ... .. . ... ... : F-3 01 8 ... ... : G#4 01 6 P80 ... : C-2 01 F P81 ...
ROW 01 : ... .. C ... ... ... : ... .. C ... ... ... : C#3 00 . ... : 2-# 00 F ... : ... .. . ... ... : ... .. 7 ... ... : ... .. 5 ... ... : ... .. D ... ...
ROW 02 : ... .. B ... ... ... : ... .. B ... ... ... : F#2 00 . ... : ... .. 6 ... : ... .. . ... ... : ... .. 6 ... ... : ... .. . ... ... : ... .. 8 ... ...
ROW 03 : ... .. 2 ... ... ... : ... .. 2 ... ... ... : F-2 00 . ... : ... .. . ... : ... .. . ... ... : ... .. 5 ... ... : ... .. . ... ... : ... .. . ... ...
ROW 04 : ... .. . ... ... ... : ... .. . ... ... ... : C-2 00 . ... : ... .. 0 ... : ... .. . ... ... : ... .. . ... ... : ... .. 4 ... ... : ... .. . ... ...
ROW 05 : ... .. D ... ... ... : ... .. D ... ... ... : ... .. . ... : ... .. . ... : ... .. . ... ... : C#3 01 8 ... ... : ... .. . ... ... : ... .. . ... ...
ROW 06 : ... .. C ... ... ... : ... .. C ... ... ... : ... .. . ... : B-# 00 6 ... : ... .. . ... ... : ... .. 7 ... ... : ... .. . ... ... : ... .. . ... ...
ROW 07 : ... .. B ... ... ... : ... .. B ... ... ... : ... .. . ... : ... .. 2 ... : ... .. . ... ... : ... .. 6 ... ... : ... .. . ... ... : ... .. . ... ...
ROW 08 : ... .. 2 ... ... ... : ... .. 2 ... ... ... : ... .. . ... : ... .. . ... : ... .. . ... ... : ... .. 5 ... ... : ... .. . ... ... : ... .. . ... ...
ROW 09 : ... .. . ... ... ... : ... .. . ... ... ... : --- .. . ... : ... .. 0 ... : ... .. . ... ... : ... .. . ... ... : ... .. . ... ... : --- .. . P7D ...
ROW 0A : ... .. D ... ... ... : ... .. D ... ... ... : C-3 00 . ... : ... .. . ... : ... .. . ... ... : G#2 01 8 ... ... : ... .. . ... ... : C-3 01 F P81 ...
ROW 0B : ... .. C ... ... ... : ... .. C ... ... ... : ... .. . ... : ... .. A ... : ... .. . ... ... : ... .. 7 ... ... : ... .. . ... ... : ... .. D ... ...
ROW 0C : ... .. B ... ... ... : ... .. B ... ... ... : ... .. . ... : ... .. 4 ... : ... .. . ... ... : ... .. 6 ... ... : ... .. . ... ... : ... .. 8 ... ...
ROW 0D : ... .. 2 ... ... ... : ... .. 2 ... ... ... : ... .. . ... : ... .. . ... : ... .. . ... ... : ... .. 5 ... ... : ... .. . ... ... : ... .. . ... ...
ROW 0E : ... .. . ... ... ... : ... .. . ... ... ... : --- .. . ... : ... .. 0 ... : ... .. . ... ... : ... .. . ... ... : ... .. . ... ... : --- .. . P7F ...
ROW 0F : ... .. D ... ... ... : ... .. D ... ... ... : C-3 00 . ... : ... .. . ... : ... .. . ... ... : F-2 01 8 ... ... : ... .. . ... ... : C-3 01 F P81 ...
ROW 10 : ... .. C ... ... ... : ... .. C ... ... ... : ... .. . ... : ... .. 8 ... : ... .. . ... ... : ... .. 7 ... ... : ... .. . ... ... : ... .. D ... ...
ROW 11 : ... .. B ... ... ... : ... .. B ... ... ... : ... .. . ... : ... .. 3 ... : ... .. . ... ... : ... .. 6 ... ... : ... .. . ... ... : ... .. 8 ... ...
ROW 12 : ... .. 2 ... ... ... : ... .. 2 ... ... ... : ... .. . ... : ... .. . ... : ... .. . ... ... : ... .. 5 ... ... : ... .. 5 ... ... : ... .. . ... ...
ROW 13 : ... .. . ... ... ... : ... .. . ... ... ... : --- .. . ... : ... .. 0 ... : ... .. . ... ... : ... .. . ... ... : ... .. . ... ... : --- .. . P7F ...
ROW 14 : ... .. D ... V02 ... : ... .. D ... V02 ... : C-3 00 . ... : 7-# 00 F ... : ... .. . ... ... : G#3 01 8 ... ... : ... .. . P84 ... : C-3 01 F P81 ...
ROW 15 : ... .. C ... ... ... : ... .. C ... ... ... : ... .. . ... : ... .. C ... : ... .. . ... ... : ... .. 7 ... ... : A-4 01 5 P7E ... : ... .. D ... ...
ROW 16 : ... .. B ... ... ... : ... .. B ... ... ... : ... .. . ... : ... .. A ... : ... .. . ... ... : ... .. 6 ... ... : ... .. . P7D ... : ... .. 8 ... ...
ROW 17 : ... .. 2 ... ... ... : ... .. 2 ... ... ... : ... .. . ... : ... .. 8 ... : ... .. . ... ... : ... .. 5 ... ... : G#4 01 5 P82 ... : ... .. . ... ...
ROW 18 : ... .. . ... ... ... : ... .. . ... ... ... : --- .. . ... : ... .. 7 ... : ... .. . ... ... : ... .. . ... ... : ... .. . P7E ... : --- .. . P7F ...
ROW 19 : ... .. D ... ... ... : ... .. D ... ... ... : C-3 00 . ... : ... .. 0 ... : ... .. . ... ... : F-3 01 8 ... ... : G-4 01 5 P83 ... : C-3 01 F P81 ...
ROW 1A : ... .. C ... ... ... : ... .. C ... ... ... : ... .. . ... : B-# 00 6 ... : ... .. . ... ... : ... .. 7 ... ... : ... .. . P82 ... : ... .. D ... ...
ROW 1B : ... .. B ... ... ... : ... .. B ... ... ... : ... .. . ... : ... .. 2 ... : ... .. . ... ... : ... .. 6 ... ... : ... .. . P84 ... : ... .. 8 ... ...
ROW 1C : ... .. 2 ... ... ... : ... .. 2 ... ... ... : ... .. . ... : ... .. . ... : ... .. . ... ... : ... .. 5 ... ... : G#4 01 5 P80 ... : ... .. . ... ...
ROW 1D : ... .. . ... ... ... : ... .. . ... ... ... : --- .. . ... : ... .. 0 ... : ... .. . ... ... : ... .. . ... ... : ... .. . P83 ... : --- .. . P7F ...
ROW 1E : ... .. D ... ... ... : ... .. D ... ... ... : C-3 00 . ... : ... .. . ... : ... .. . ... ... : C#3 01 8 ... ... : A-4 01 6 P7E ... : C-3 01 F P81 ...
ROW 1F : ... .. C ... ... ... : ... .. C ... ... ... : ... .. . ... : ... .. A ... : ... .. . ... ... : ... .. 7 ... ... : ... .. . ... ... : ... .. D ... ...
ROW 20 : ... .. B ... ... ... : ... .. B ... ... ... : ... .. . ... : ... .. 4 ... : ... .. . ... ... : ... .. 6 ... ... : G#4 01 6 P82 ... : ... .. 8 ... ...
ROW 21 : ... .. 2 ... ... ... : ... .. 2 ... ... ... : ... .. . ... : ... .. . ... : ... .. . ... ... : ... .. 5 ... ... : ... .. . P7F ... : ... .. . ... ...
ROW 22 : ... .. . ... ... ... : ... .. . ... ... ... : --- .. . ... : ... .. 0 ... : ... .. . ... ... : ... .. . ... ... : G-4 01 6 P83 ... : --- .. . P7F ...
ROW 23 : ... .. D ... ... ... : ... .. D ... ... ... : C-3 00 . ... : ... .. . ... : ... .. . ... ... : G#2 01 8 ... ... : ... .. . P82 ... : C-3 01 F P81 ...
ROW 24 : ... .. C ... ... ... : ... .. C ... ... ... : ... .. . ... : ... .. 8 ... : ... .. . ... ... : ... .. 7 ... ... : ... .. . P84 ... : ... .. D ... ...
ROW 25 : ... .. B ... ... ... : ... .. B ... ... ... : ... .. . ... : ... .. 3 ... : ... .. . ... ... : ... .. 6 ... ... : G#4 01 6 P80 ... : ... .. 8 ... ...
ROW 26 : ... .. 2 ... ... ... : ... .. 2 ... ... ... : ... .. . ... : ... .. . ... : ... .. . ... ... : ... .. 5 ... ... : ... .. . P83 ... : ... .. . ... ...
ROW 27 : ... .. . ... ... ... : ... .. . ... ... ... : --- .. . ... : ... .. 0 ... : ... .. . ... ... : ... .. . ... ... : A-4 01 6 P7E ... : --- .. . P7F ...
ROW 28 : F-4 00 D ... V00 ... : G#4 00 D ... V00 ... : B-4 00 . ... : 2-# 00 F ... : ... .. . ... ... : C#4 01 8 ... ... : C#5 01 9 P80 ... : C-3 01 F P81 ...
ROW 29 : ... .. C ... ... ... : ... .. C ... ... ... : C#4 00 . ... : ... .. C ... : ... .. . ... ... : ... .. 7 ... ... : ... .. 8 ... ... : ... .. D ... ...
ROW 2A : ... .. B ... ... ... : ... .. B ... ... ... : F#3 00 . ... : ... .. 6 ... : ... .. . ... ... : ... .. 6 ... ... : ... .. . ... ... : ... .. 8 ... ...
ROW 2B : ... .. 2 ... ... ... : ... .. 2 ... ... ... : F-3 00 . ... : ... .. 3 ... : ... .. . ... ... : ... .. 5 ... ... : ... .. . ... ... : ... .. . ... ...
ROW 2C : ... .. . ... ... ... : ... .. . ... ... ... : C-3 00 . ... : ... .. 2 ... : ... .. . ... ... : ... .. . ... ... : ... .. 7 ... ... : ... .. . ... ...
ROW 2D : ... .. D ... ... ... : ... .. D ... ... ... : ... .. . ... : ... .. 0 ... : ... .. . ... ... : G#3 01 8 ... ... : ... .. . ... ... : ... .. . ... ...
ROW 2E : ... .. C ... ... ... : ... .. C ... ... ... : ... .. . ... : B-# 00 8 ... : ... .. . ... ... : ... .. 7 ... ... : ... .. . ... ... : ... .. . ... ...
ROW 2F : ... .. B ... ... ... : ... .. B ... ... ... : ... .. . ... : ... .. 3 ... : ... .. . ... ... : ... .. 6 ... ... : ... .. 6 ... ... : ... .. . ... ...
ROW 30 : ... .. 2 ... ... ... : ... .. 2 ... ... ... : ... .. . ... : ... .. . ... : ... .. . ... ... : ... .. 5 ... ... : ... .. . ... ... : ... .. . ... ...
ROW 31 : ... .. . ... ... ... : ... .. . ... ... ... : --- .. . ... : ... .. 0 ... : ... .. . ... ... : ... .. . ... ... : ... .. . ... ... : --- .. . P7F ...
ROW 32 : ... .. D ... ... ... : ... .. D ... ... ... : B-4 00 . ... : 2-# 00 F ... : ... .. . ... ... : F-3 01 8 ... ... : ... .. . ... ... : C-3 01 F P81 ...
ROW 33 : ... .. C ... ... ... : ... .. C ... ... ... : C#4 00 . ... : ... .. C ... : ... .. . ... ... : ... .. 7 ... ... : ... .. . ... ... : ... .. D ... ...
ROW 34 : ... .. B ... ... ... : ... .. B ... ... ... : F#3 00 . ... : ... .. 6 ... : ... .. . ... ... : ... .. 6 ... ... : ... .. . ... ... : ... .. 8 ... ...
ROW 35 : ... .. 2 ... ... ... : ... .. 2 ... ... ... : F-3 00 . ... : ... .. 3 ... : ... .. . ... ... : ... .. 5 ... ... : ... .. 5 ... ... : ... .. . ... ...
ROW 36 : ... .. . ... ... ... : ... .. . ... ... ... : --- .. . ... : ... .. 2 ... : ... .. . ... ... : ... .. . ... ... : ... .. . ... ... : --- .. . P7F ...
ROW 37 : ... .. D ... ... ... : ... .. D ... ... ... : C-3 00 . ... : ... .. 0 ... : ... .. . ... ... : C#3 01 8 ... ... : ... .. . ... ... : C-3 01 F P81 ...
ROW 38 : ... .. C ... ... ... : ... .. C ... ... ... : ... .. . ... : B-# 00 8 ... : ... .. . ... ... : ... .. 7 ... ... : ... .. . ... ... : ... .. D ... ...
ROW 39 : ... .. B ... ... ... : ... .. B ... ... ... : ... .. . ... : ... .. 3 ... : ... .. . ... ... : ... .. 6 ... ... : ... .. . ... ... : ... .. 8 ... ...
ROW 3A : ... .. 2 ... ... ... : ... .. 2 ... ... ... : ... .. . ... : ... .. . ... : ... .. . ... ... : ... .. 5 ... ... : ... .. . ... ... : ... .. . ... ...
ROW 3B : ... .. . ... ... ... : ... .. . ... ... ... : --- .. . ... : ... .. 0 ... : ... .. . ... ... : ... .. . ... ... : ... .. . ... ... : --- .. . P7F ...
ROW 3C : ... .. D ... V01 ... : ... .. D ... V01 ... : C-3 00 . ... : 7-# 00 F ... : ... .. . ... ... : G#3 01 8 ... ... : D-5 01 5 P7E ... : C-3 01 F P81 ...
ROW 3D : ... .. C ... ... ... : ... .. C ... ... ... : ... .. . ... : ... .. C ... : ... .. . ... ... : ... .. 7 ... ... : ... .. . P80 ... : ... .. D ... ...
ROW 3E : ... .. B ... ... ... : ... .. B ... ... ... : ... .. . ... : ... .. A ... : ... .. . ... ... : ... .. 6 ... ... : ... .. . P7F ... : ... .. 8 ... ...
ROW 3F : ... .. 2 ... ... ... : ... .. 2 ... ... ... : ... .. . ... : ... .. 8 ... : ... .. . ... ... : ... .. 5 ... ... : C#5 01 5 P82 ... : ... .. . ... ...
ROW 40 : ... .. . ... ... ... : ... .. . ... ... ... : --- .. . ... : ... .. 7 ... : ... .. . ... ... : ... .. . ... ... : ... .. . P7E ... : --- .. . P7F ...
ROW 41 : ... .. D ... ... ... : ... .. D ... ... ... : C-3 00 . ... : ... .. 0 ... : ... .. . ... ... : C#4 01 8 ... ... : C-5 01 4 P81 ... : C-3 01 F P81 ...
ROW 42 : ... .. C ... ... ... : ... .. C ... ... ... : ... .. . ... : B-# 00 6 ... : ... .. . ... ... : ... .. 7 ... ... : ... .. . P80 ... : ... .. D ... ...
ROW 43 : ... .. B ... ... ... : ... .. B ... ... ... : ... .. . ... : ... .. 2 ... : ... .. . ... ... : ... .. 6 ... ... : ... .. . P82 ... : ... .. 8 ... ...
ROW 44 : ... .. 2 ... ... ... : ... .. 2 ... ... ... : ... .. . ... : ... .. . ... : ... .. . ... ... : ... .. 5 ... ... : C#5 01 4 P80 ... : ... .. . ... ...
ROW 45 : ... .. . ... ... ... : ... .. . ... ... ... : --- .. . ... : ... .. 0 ... : ... .. . ... ... : ... .. . ... ... : ... .. . P83 ... : --- .. . P7F ...
ROW 46 : ... .. D ... ... ... : ... .. D ... ... ... : C-3 00 . ... : ... .. . ... : ... .. . ... ... : ... .. 8 ... ... : D-5 01 4 P80 ... : C-3 01 F P81 ...
ROW 47 : ... .. C ... ... ... : ... .. C ... ... ... : ... .. . ... : ... .. A ... : ... .. . ... ... : ... .. 7 ... ... : ... .. . ... ... : ... .. D ... ...
ROW 48 : ... .. B ... ... ... : ... .. B ... ... ... : ... .. . ... : ... .. 4 ... : ... .. . ... ... : ... .. 6 ... ... : C#5 01 4 P82 ... : ... .. 8 ... ...
ROW 49 : ... .. 2 ... ... ... : ... .. 2 ... ... ... : ... .. . ... : ... .. . ... : ... .. . ... ... : ... .. 5 ... ... : ... .. . P7F ... : ... .. . ... ...
ROW 4A : ... .. . ... ... ... : ... .. . ... ... ... : --- .. . ... : ... .. 0 ... : ... .. . ... ... : ... .. . ... ... : C-5 01 4 P81 ... : --- .. . P7F ...
ROW 4B : ... .. D ... ... ... : ... .. D ... ... ... : C-3 00 . ... : ... .. . ... : ... .. . ... ... : F-4 01 8 ... ... : ... .. . P80 ... : C-3 01 F P81 ...
ROW 4C : ... .. C ... ... ... : ... .. C ... ... ... : ... .. . ... : ... .. 8 ... : ... .. . ... ... : ... .. 7 ... ... : ... .. . P82 ... : ... .. D ... ...
ROW 4D : ... .. B ... ... ... : ... .. B ... ... ... : ... .. . ... : ... .. 3 ... : ... .. . ... ... : ... .. 6 ... ... : C#5 01 4 P80 ... : ... .. 8 ... ...
ROW 4E : ... .. 2 ... ... ... : ... .. 2 ... ... ... : ... .. . ... : ... .. . ... : ... .. . ... ... : ... .. 5 ... ... : ... .. . P83 ... : ... .. . ... ...
ROW 4F : ... .. . ... ... ... : ... .. . ... ... ... : --- .. . ... : ... .. 0 ... : ... .. . ... ... : ... .. . ... ... : D-5 01 4 P80 ... : --- .. . P7F ...
ROW 50 : G-3 00 D ... V02 ... : G-4 00 D ... V02 ... : B-3 00 . ... : 9-# 00 D ... : ... .. . ... ... : D#4 01 8 ... ... : C-5 01 9 ... ... : C-2 01 F P81 ...
ROW 51 : ... .. C ... ... ... : ... .. C ... ... ... : C#3 00 . ... : ... .. . ... : ... .. . ... ... : ... .. 7 ... ... : ... .. 8 ... ... : ... .. D ... ...
ROW 52 : ... .. B ... ... ... : ... .. B ... ... ... : F#2 00 . ... : ... .. . ... : ... .. . ... ... : ... .. 6 ... ... : ... .. . ... ... : ... .. 8 ... ...
ROW 53 : ... .. 2 ... ... ... : ... .. 2 ... ... ... : F-2 00 . ... : ... .. B ... : ... .. . ... ... : ... .. 5 ... ... : ... .. . ... ... : ... .. . ... ...
ROW 54 : ... .. . ... ... ... : ... .. . ... ... ... : C-2 00 . ... : ... .. . ... : ... .. . ... ... : ... .. . ... ... : ... .. 7 ... ... : ... .. . ... ...
ROW 55 : ... .. D ... ... ... : ... .. D ... ... ... : ... .. . ... : ... .. A ... : ... .. . ... ... : C-4 01 8 ... ... : ... .. . ... ... : ... .. . ... ...
ROW 56 : ... .. C ... ... ... : ... .. C ... ... ... : ... .. . ... : ... .. . ... : ... .. . ... ... : ... .. 7 ... ... : ... .. . ... ... : ... .. . ... ...
ROW 57 : ... .. B ... ... ... : ... .. B ... ... ... : ... .. . ... : ... .. . ... : ... .. . ... ... : ... .. 6 ... ... : ... .. 6 ... ... : ... .. . ... ...
ROW 58 : ... .. 2 ... ... ... : ... .. 2 ... ... ... : ... .. . ... : ... .. 9 ... : ... .. . ... ... : ... .. 5 ... ... : ... .. . ... ... : ... .. . ... ...
ROW 59 : ... .. . ... ... ... : ... .. . ... ... ... : --- .. . ... : ... .. . ... : ... .. . ... ... : ... .. . ... ... : ... .. . ... ... : --- .. . P7D ...
ROW 5A : C-4 00 D ... ... ... : ... .. D ... ... ... : C-3 00 . ... : ... .. 7 ... : ... .. . ... ... : G-3 01 8 ... ... : G-3 01 6 ... ... : C-3 01 F P81 ...
ROW 5B : ... .. C ... ... ... : ... .. C ... ... ... : ... .. . ... : ... .. . ... : ... .. . ... ... : ... .. 7 ... ... : ... .. 5 ... ... : ... .. D ... ...
ROW 5C : ... .. B ... ... ... : ... .. B ... ... ... : ... .. . ... : ... .. . ... : ... .. . ... ... : ... .. 6 ... ... : ... .. . ... ... : ... .. 8 ... ...
ROW 5D : ... .. 2 ... ... ... : ... .. 2 ... ... ... : ... .. . ... : ... .. 6 ... : ... .. . ... ... : ... .. 5 ... ... : ... .. 6 ... ... : ... .. . ... ...
ROW 5E : ... .. . ... ... ... : ... .. . ... ... ... : --- .. . ... : ... .. . ... : ... .. . ... ... : ... .. . ... ... : ... .. 5 ... ... : --- .. . P7F ...
ROW 5F : ... .. D ... ... ... : ... .. D ... ... ... : C-3 00 . ... : ... .. 5 ... : ... .. . ... ... : D#3 01 8 ... ... : ... .. 6 ... ... : C-3 01 F P81 ...
ROW 60 : ... .. C ... ... ... : ... .. C ... ... ... : ... .. . ... : ... .. . ... : ... .. . ... ... : ... .. 7 ... ... : ... .. 5 ... ... : ... .. D ... ...
ROW 61 : ... .. B ... ... ... : ... .. B ... ... ... : ... .. . ... : ... .. . ... : ... .. . ... ... : ... .. 6 ... ... : ... .. . ... ... : ... .. 8 ... ...
ROW 62 : ... .. 2 ... ... ... : ... .. 2 ... ... ... : ... .. . ... : ... .. 4 ... : ... .. . ... ... : ... .. 5 ... ... : ... .. 6 ... ... : ... .. . ... ...
ROW 63 : ... .. . ... ... ... : ... .. . ... ... ... : --- .. . ... : ... .. . ... : ... .. . ... ... : ... .. . ... ... : ... .. . ... ... : --- .. . P7F ...
ROW 64 : D#4 00 D ... V03 ... : C-5 00 D ... V03 ... : D#3 00 . ... : 7-# 00 F ... : ... .. . ... ... : D-4 01 8 ... ... : B-3 01 6 ... ... : D#3 01 F P81 ...
ROW 65 : ... .. C ... ... ... : ... .. C ... ... ... : ... .. . ... : ... .. C ... : ... .. . ... ... : ... .. 7 ... ... : ... .. 5 ... ... : ... .. D ... ...
ROW 66 : ... .. B ... ... ... : ... .. B ... ... ... : ... .. . ... : ... .. A ... : ... .. . ... ... : ... .. 6 ... ... : ... .. . ... ... : ... .. 8 ... ...
ROW 67 : ... .. 2 ... ... ... : ... .. 2 ... ... ... : ... .. . ... : ... .. 8 ... : ... .. . ... ... : ... .. 5 ... ... : ... .. 6 ... ... : ... .. . ... ...
ROW 68 : ... .. . ... ... ... : ... .. . ... ... ... : --- .. . ... : ... .. 7 ... : ... .. . ... ... : ... .. . ... ... : ... .. . ... ... : --- .. . P80 ...
ROW 69 : ... .. D ... ... ... : ... .. D ... ... ... : D#3 00 . ... : ... .. 0 ... : ... .. . ... ... : B-3 01 8 ... ... : ... .. . ... ... : D#3 01 F P81 ...
ROW 6A : ... .. C ... ... ... : ... .. C ... ... ... : ... .. . ... : B-# 00 6 ... : ... .. . ... ... : ... .. 7 ... ... : ... .. 5 ... ... : ... .. D ... ...
ROW 6B : ... .. B ... ... ... : ... .. B ... ... ... : ... .. . ... : ... .. 2 ... : ... .. . ... ... : ... .. 6 ... ... : ... .. . ... ... : ... .. 8 ... ...
ROW 6C : ... .. 2 ... ... ... : ... .. 2 ... ... ... : ... .. . ... : ... .. . ... : ... .. . ... ... : ... .. 5 ... ... : ... .. 7 ... ... : ... .. . ... ...
ROW 6D : ... .. . ... ... ... : ... .. . ... ... ... : --- .. . ... : ... .. 0 ... : ... .. . ... ... : ... .. . ... ... : ... .. 6 ... ... : --- .. . P80 ...
ROW 6E : G-3 00 D ... ... ... : ... .. D ... ... ... : D#3 00 . ... : 9-# 00 D ... : ... .. . ... ... : F#3 01 8 ... ... : G-3 01 6 ... ... : D#3 01 F P81 ...
ROW 6F : ... .. C ... ... ... : ... .. C ... ... ... : ... .. . ... : ... .. . ... : ... .. . ... ... : ... .. 7 ... ... : ... .. 5 ... ... : ... .. D ... ...
ROW 70 : ... .. B ... ... ... : ... .. B ... ... ... : ... .. . ... : ... .. . ... : ... .. . ... ... : ... .. 6 ... ... : ... .. . ... ... : ... .. 8 ... ...
ROW 71 : ... .. 2 ... ... ... : ... .. 2 ... ... ... : ... .. . ... : ... .. B ... : ... .. . ... ... : ... .. 5 ... ... : ... .. 8 ... ... : ... .. . ... ...
ROW 72 : ... .. . ... ... ... : ... .. . ... ... ... : --- .. . ... : ... .. . ... : ... .. . ... ... : ... .. . ... ... : ... .. 7 ... ... : --- .. . P80 ...
ROW 73 : ... .. D ... ... ... : ... .. D ... ... ... : D#3 00 . ... : ... .. A ... : ... .. . ... ... : D-3 01 8 ... ... : ... .. 6 ... ... : D#3 01 F P81 ...
ROW 74 : ... .. C ... ... ... : ... .. C ... ... ... : ... .. . ... : ... .. . ... : ... .. . ... ... : ... .. 7 ... ... : ... .. 5 ... ... : ... .. D ... ...
ROW 75 : ... .. B ... ... ... : ... .. B ... ... ... : ... .. . ... : ... .. . ... : ... .. . ... ... : ... .. 6 ... ... : ... .. . ... ... : ... .. 8 ... ...
ROW 76 : ... .. 2 ... ... ... : ... .. 2 ... ... ... : ... .. . ... : ... .. 9 ... : ... .. . ... ... : ... .. 5 ... ... : ... .. 8 ... ... : ... .. . ... ...
ROW 77 : ... .. . ... ... ... : ... .. . ... ... ... : --- .. . ... : ... .. . ... : ... .. . ... ... : ... .. . ... ... : ... .. 7 ... ... : --- .. . P80 ...
ROW 78 : D#4 00 D ... V01 ... : G-4 00 D ... V01 ... : G#4 00 . ... : ... .. 7 ... : ... .. . ... ... : D#4 01 8 ... ... : D#4 01 6 ... ... : A-2 01 F P81 ...
ROW 79 : ... .. C ... ... ... : ... .. C ... ... ... : A#3 00 . ... : ... .. . ... : ... .. . ... ... : ... .. 7 ... ... : ... .. 5 ... ... : ... .. D ... ...
ROW 7A : ... .. B ... ... ... : ... .. B ... ... ... : D#3 00 . ... : ... .. . ... : ... .. . ... ... : ... .. 6 ... ... : ... .. . ... ... : ... .. 8 ... ...
ROW 7B : ... .. 2 ... ... ... : ... .. 2 ... ... ... : D-3 00 . ... : ... .. 6 ... : ... .. . ... ... : ... .. 5 ... ... : ... .. 8 ... ... : ... .. . ... ...
ROW 7C : ... .. . ... ... ... : ... .. . ... ... ... : A-2 00 . ... : ... .. . ... : ... .. . ... ... : ... .. . ... ... : ... .. 7 ... ... : ... .. . ... ...
ROW 7D : ... .. D ... ... ... : F-4 00 D ... ... ... : ... .. . ... : ... .. 5 ... : ... .. . ... ... : C-4 01 8 ... ... : F#4 01 6 ... ... : ... .. . ... ...
ROW 7E : ... .. C ... ... ... : ... .. C ... ... ... : ... .. . ... : ... .. . ... : ... .. . ... ... : ... .. 7 ... ... : ... .. 5 ... ... : ... .. . ... ...
ROW 7F : ... .. B ... ... ... : ... .. B ... ... ... : ... .. . ... : ... .. . ... : ... .. . ... ... : ... .. 6 ... ... : ... .. . ... ... : ... .. . ... ...
ROW 80 : ... .. 2 ... ... ... : ... .. 2 ... ... ... : ... .. . ... : ... .. 4 ... : ... .. . ... ... : ... .. 5 ... ... : ... .. 8 ... ... : ... .. . ... ...
ROW 81 : ... .. . ... ... ... : ... .. . ... ... ... : --- .. . ... : ... .. . ... : ... .. . ... ... : ... .. . ... ... : ... .. 7 ... ... : --- .. . ... ...
ROW 82 : G-4 00 D ... ... ... : D#4 00 D ... ... ... : A-2 00 . ... : ... .. 0 ... : ... .. . ... ... : G-3 01 8 ... ... : A-4 01 6 ... ... : A-2 01 F ... ...
ROW 83 : ... .. C ... ... ... : ... .. C ... ... ... : ... .. . ... : B-# 00 8 ... : ... .. . ... ... : ... .. 7 ... ... : ... .. 5 ... ... : ... .. D ... ...
ROW 84 : ... .. B ... ... ... : ... .. B ... ... ... : ... .. . ... : ... .. 3 ... : ... .. . ... ... : ... .. 6 ... ... : ... .. . ... ... : ... .. 8 ... ...
ROW 85 : ... .. 2 ... ... ... : ... .. 2 ... ... ... : ... .. . ... : ... .. . ... : ... .. . ... ... : ... .. 5 ... ... : ... .. 7 ... ... : ... .. . ... ...
ROW 86 : ... .. . ... ... ... : ... .. . ... ... ... : --- .. . ... : ... .. 0 ... : ... .. . ... ... : ... .. . ... ... : ... .. 6 ... ... : --- .. . ... ...
ROW 87 : ... .. D ... ... ... : D-4 00 D ... ... ... : A-2 00 . ... : ... .. . ... : ... .. . ... ... : D#3 01 8 ... ... : C-5 01 6 ... ... : A-2 01 F ... ...
ROW 88 : ... .. C ... ... ... : ... .. C ... ... ... : ... .. . ... : ... .. 6 ... : ... .. . ... ... : ... .. 7 ... ... : ... .. 5 ... ... : ... .. D ... ...
ROW 89 : ... .. B ... ... ... : ... .. B ... ... ... : ... .. . ... : ... .. 2 ... : ... .. . ... ... : ... .. 6 ... ... : ... .. . ... ... : ... .. 8 ... ...
ROW 8A : ... .. 2 ... ... ... : ... .. 2 ... ... ... : ... .. . ... : ... .. . ... : ... .. . ... ... : ... .. 5 ... ... : ... .. 6 ... ... : ... .. . ... ...
ROW 8B : ... .. . ... ... ... : ... .. . ... ... ... : --- .. . ... : ... .. 0 ... : ... .. . ... ... : ... .. . ... ... : ... .. . ... ... : --- .. . ... ...
ROW 8C : A-4 00 D ... V00 ... : C-4 00 D ... V00 ... : F#3 00 . ... : 7-# 00 F ... : ... .. . ... ... : F#5 01 8 ... ... : A-4 01 6 ... ... : F#2 01 F ... ...
ROW 8D : ... .. C ... ... ... : ... .. C ... ... ... : ... .. . ... : ... .. C ... : ... .. . ... ... : ... .. 7 ... ... : ... .. 5 ... ... : ... .. D ... ...
ROW 8E : ... .. B ... ... ... : ... .. B ... ... ... : ... .. . ... : ... .. A ... : ... .. . ... ... : ... .. 6 ... ... : ... .. . ... ... : ... .. 8 ... ...
ROW 8F : ... .. 2 ... ... ... : ... .. 2 ... ... ... : ... .. . ... : ... .. 0 ... : ... .. . ... ... : ... .. 5 ... ... : ... .. 6 ... ... : ... .. . ... ...
ROW 90 : ... .. . ... ... ... : ... .. . ... ... ... : --- .. . ... : ... .. . ... : ... .. . ... ... : ... .. . ... ... : ... .. . ... ... : --- .. . P85 ...
ROW 91 : ... .. D ... ... ... : B-3 00 D ... ... ... : F#3 00 . ... : 6-# 00 F ... : ... .. . ... ... : F#4 01 8 ... ... : C-5 01 6 ... ... : F#2 01 F P81 ...
ROW 92 : ... .. C ... ... ... : ... .. C ... ... ... : ... .. . ... : ... .. C ... : ... .. . ... ... : ... .. 7 ... ... : ... .. 5 ... ... : ... .. D ... ...
ROW 93 : ... .. B ... ... ... : ... .. B ... ... ... : ... .. . ... : ... .. A ... : ... .. . ... ... : ... .. 6 ... ... : ... .. . ... ... : ... .. 8 ... ...
ROW 94 : ... .. 2 ... ... ... : ... .. 2 ... ... ... : ... .. . ... : ... .. 0 ... : ... .. . ... ... : ... .. 5 ... ... : ... .. 6 ... ... : ... .. . ... ...
ROW 95 : ... .. . ... ... ... : ... .. . ... ... ... : --- .. . ... : ... .. . ... : ... .. . ... ... : ... .. . ... ... : ... .. 5 ... ... : --- .. . P85 ...
ROW 96 : C-5 00 D ... ... ... : C-4 00 D ... ... ... : F#3 00 . ... : 5-# 00 F ... : ... .. . ... ... : F#3 01 8 ... ... : D#5 01 6 ... ... : F#1 01 F P81 ...
ROW 97 : ... .. C ... ... ... : ... .. C ... ... ... : ... .. . ... : ... .. C ... : ... .. . ... ... : ... .. 7 ... ... : ... .. 5 ... ... : ... .. D ... ...
ROW 98 : ... .. B ... ... ... : ... .. B ... ... ... : ... .. . ... : ... .. A ... : ... .. . ... ... : ... .. 6 ... ... : ... .. . ... ... : ... .. 8 ... ...
ROW 99 : ... .. 2 ... ... ... : ... .. 2 ... ... ... : ... .. . ... : ... .. 0 ... : ... .. . ... ... : ... .. 5 ... ... : ... .. . ... ... : ... .. . ... ...
ROW 9A : ... .. . ... ... ... : ... .. . ... ... ... : --- .. . ... : ... .. . ... : ... .. . ... ... : ... .. . ... ... : ... .. . ... ... : --- .. . P82 ...
ROW 9B : ... .. D ... ... ... : D-4 00 D ... ... ... : F#3 00 . ... : 4-# 00 F ... : ... .. . ... ... : F#2 01 8 ... ... : F#5 01 6 ... ... : F#1 01 F P81 ...
ROW 9C : ... .. C ... ... ... : ... .. C ... ... ... : ... .. . ... : ... .. C ... : ... .. . ... ... : ... .. 7 ... ... : ... .. 5 ... ... : ... .. D ... ...
ROW 9D : ... .. B ... ... ... : ... .. B ... ... ... : ... .. . ... : ... .. A ... : ... .. . ... ... : ... .. 6 ... ... : ... .. . ... ... : ... .. 8 ... ...
ROW 9E : ... .. 2 ... ... ... : ... .. 2 ... ... ... : ... .. . ... : ... .. 8 ... : ... .. . ... ... : ... .. 5 ... ... : ... .. . ... ... : ... .. . ... ...
ROW 9F : ... .. . ... ... ... : ... .. . ... ... ... : --- .. . ... : ... .. 7 ... : ... .. . ... ... : ... .. . ... ... : ... .. 4 ... ... : --- .. . P82 ...
ROW A0 : A#3 00 D ... V01 ... : ... .. D ... V01 ... : F#5 00 . ... : 9-# 00 D ... : ... .. . ... ... : A#4 01 8 ... ... : G-5 01 7 ... V03 : G-1 01 F P81 ...
ROW A1 : ... .. C ... ... ... : ... .. C ... ... ... : G#4 00 . ... : ... .. . ... : ... .. . ... ... : ... .. 7 ... ... : ... .. 6 ... ... : ... .. D ... ...
ROW A2 : ... .. B ... ... ... : ... .. B ... ... ... : C#4 00 . ... : ... .. . ... : ... .. . ... ... : ... .. 6 ... ... : ... .. 5 ... ... : ... .. 8 ... ...
ROW A3 : ... .. 2 ... ... ... : ... .. 2 ... ... ... : C-4 00 . ... : ... .. B ... : ... .. . ... ... : ... .. 5 ... ... : ... .. . ... ... : ... .. . ... ...
ROW A4 : ... .. . ... ... ... : ... .. . ... ... ... : G-3 00 . ... : ... .. . ... : ... .. . ... ... : ... .. . ... ... : ... .. . ... ... : ... .. . ... ...
ROW A5 : ... .. D ... ... ... : ... .. D ... ... ... : ... .. . ... : ... .. A ... : ... .. . ... ... : G-4 01 8 ... ... : ... .. 4 ... ... : ... .. . ... ...
ROW A6 : ... .. C ... ... ... : ... .. C ... ... ... : ... .. . ... : ... .. . ... : ... .. . ... ... : ... .. 7 ... ... : ... .. . ... ... : ... .. . ... ...
ROW A7 : ... .. B ... ... ... : ... .. B ... ... ... : ... .. . ... : ... .. . ... : ... .. . ... ... : ... .. 6 ... ... : ... .. 3 ... ... : ... .. . ... ...
ROW A8 : ... .. 2 ... ... ... : ... .. 2 ... ... ... : F-3 00 . P83 : ... .. 9 ... : ... .. . ... ... : ... .. 5 ... ... : ... .. 4 ... ... : ... .. . ... ...
ROW A9 : ... .. . ... ... ... : ... .. . ... ... ... : E-3 00 . P76 : ... .. . ... : ... .. . ... ... : ... .. . ... ... : ... .. . ... ... : ... .. . ... ...
ROW AA : ... .. D ... ... ... : ... .. D ... ... ... : D-3 00 . P80 : ... .. 7 ... : ... .. . ... ... : D-4 01 8 ... ... : ... .. . ... ... : ... .. . ... ...
ROW AB : ... .. C ... ... ... : ... .. C ... ... ... : C#3 00 . P77 : ... .. . ... : ... .. . ... ... : ... .. 7 ... ... : ... .. . ... ... : ... .. . ... ...
ROW AC : ... .. B ... ... ... : ... .. B ... ... ... : B-2 00 . P88 : ... .. . ... : ... .. . ... ... : ... .. 6 ... ... : ... .. . ... ... : ... .. . ... ...
ROW AD : ... .. 2 ... ... ... : ... .. 2 ... ... ... : A#2 00 . P83 : ... .. 6 ... : ... .. . ... ... : ... .. 5 ... ... : ... .. . ... ... : ... .. . ... ...
ROW AE : ... .. . ... ... ... : ... .. . ... ... ... : A-2 00 . P7F : ... .. . ... : ... .. . ... ... : ... .. . ... ... : ... .. . ... ... : ... .. . ... ...
ROW AF : ... .. D ... ... ... : ... .. D ... ... ... : G#2 00 . P7E : ... .. 5 ... : ... .. . ... ... : A#3 01 8 ... ... : ... .. . ... ... : ... .. . ... ...
ROW B0 : ... .. C ... ... ... : ... .. C ... ... ... : G-2 00 . ... : ... .. . ... : ... .. . ... ... : ... .. 7 ... ... : ... .. . ... ... : ... .. . ... ...
ROW B1 : ... .. B ... ... ... : ... .. B ... ... ... : F#2 00 . P80 : ... .. . ... : ... .. . ... ... : ... .. 6 ... ... : ... .. . ... ... : ... .. . ... ...
ROW B2 : ... .. 2 ... ... ... : ... .. 2 ... ... ... : F-2 00 . P84 : ... .. 4 ... : ... .. . ... ... : ... .. 5 ... ... : ... .. . ... ... : ... .. . ... ...
ROW B3 : ... .. . ... ... ... : ... .. . ... ... ... : --- .. . ... : ... .. . ... : ... .. . ... ... : ... .. . ... ... : ... .. . ... ... : ... .. . ... ...
ROW B4 : A-3 00 D ... V02 ... : C#4 00 D ... V02 ... : G-2 00 . P80 : 7-# 00 F ... : ... .. . ... ... : A-4 01 8 ... ... : G#5 01 4 ... ... : ... .. . ... ...
ROW B5 : ... .. C ... ... ... : ... .. C ... ... ... : ... .. . ... : ... .. C ... : ... .. . ... ... : ... .. 7 ... ... : A-5 01 4 P7F ... : ... .. . ... ...
ROW B6 : ... .. B ... ... ... : ... .. B ... ... ... : ... .. . ... : ... .. A ... : ... .. . ... ... : ... .. 6 ... ... : G#5 01 4 P81 ... : ... .. . ... ...
ROW B7 : ... .. 2 ... ... ... : ... .. 2 ... ... ... : ... .. . ... : ... .. 8 ... : ... .. . ... ... : ... .. 5 ... ... : G-5 01 4 P82 ... : ... .. . ... ...
ROW B8 : ... .. . ... ... ... : ... .. . ... ... ... : --- .. . ... : ... .. 7 ... : ... .. . ... ... : ... .. . ... ... : ... .. . P7E ... : ... .. . ... ...
ROW B9 : ... .. D ... ... ... : ... .. D ... ... ... : G-2 00 . ... : ... .. 0 ... : ... .. . ... ... : F#4 01 8 ... ... : F#5 01 5 P80 ... : ... .. . ... ...
ROW BA : ... .. C ... ... ... : ... .. C ... ... ... : ... .. . ... : B-# 00 6 ... : ... .. . ... ... : ... .. 7 ... ... : ... .. . P7F ... : ... .. . ... ...
ROW BB : ... .. B ... ... ... : ... .. B ... ... ... : ... .. . ... : ... .. 2 ... : ... .. . ... ... : ... .. 6 ... ... : ... .. . P81 ... : ... .. . ... ...
ROW BC : ... .. 2 ... ... ... : ... .. 2 ... ... ... : ... .. . ... : ... .. . ... : ... .. . ... ... : ... .. 5 ... ... : G-5 01 5 P80 ... : ... .. . ... ...
ROW BD : ... .. . ... ... ... : ... .. . ... ... ... : --- .. . ... : ... .. 0 ... : ... .. . ... ... : ... .. . ... ... : G#5 01 5 P7F ... : ... .. . ... ...
ROW BE : ... .. D ... ... ... : ... .. D ... ... ... : G-2 00 . ... : ... .. . ... : ... .. . ... ... : C#4 01 8 ... ... : A-5 01 5 ... ... : ... .. . ... ...
ROW BF : ... .. C ... ... ... : ... .. C ... ... ... : ... .. . ... : ... .. A ... : ... .. . ... ... : ... .. 7 ... ... : ... .. . ... ... : ... .. . ... ...
ROW C0 : ... .. B ... ... ... : ... .. B ... ... ... : ... .. . ... : ... .. 4 ... : ... .. . ... ... : ... .. 6 ... ... : G-5 01 5 P82 ... : ... .. . ... ...
ROW C1 : ... .. 2 ... ... ... : ... .. 2 ... ... ... : ... .. . ... : ... .. . ... : ... .. . ... ... : ... .. 5 ... ... : ... .. . P7F ... : ... .. . ... ...
ROW C2 : ... .. . ... ... ... : ... .. . ... ... ... : --- .. . ... : ... .. 0 ... : ... .. . ... ... : ... .. . ... ... : F#5 01 5 P80 ... : ... .. . ... ...
ROW C3 : ... .. D ... ... ... : ... .. D ... ... ... : G-2 00 . ... : ... .. . ... : ... .. . ... ... : A-3 01 8 ... ... : ... .. . P7F ... : ... .. . ... ...
ROW C4 : ... .. C ... ... ... : ... .. C ... ... ... : ... .. . ... : ... .. 8 ... : ... .. . ... ... : ... .. 7 ... ... : ... .. . P81 ... : ... .. . ... ...
ROW C5 : ... .. B ... ... ... : ... .. B ... ... ... : ... .. . ... : ... .. 3 ... : ... .. . ... ... : ... .. 6 ... ... : G-5 01 5 P80 ... : ... .. . ... ...
ROW C6 : ... .. 2 ... ... ... : ... .. 2 ... ... ... : ... .. . ... : ... .. . ... : ... .. . ... ... : ... .. 5 ... ... : G#5 01 5 P7F ... : ... .. . ... ...
ROW C7 : ... .. . ... ... ... : ... .. . ... ... ... : --- .. . ... : ... .. 0 ... : ... .. . ... ... : ... .. . ... ... : A-5 01 5 ... ... : ... .. . ... ...
ROW C8 : A#3 00 D ... V00 ... : D-4 00 D ... V00 ... : F#4 00 . ... : 2-# 00 F ... : ... .. . ... ... : A#4 01 8 ... ... : A#5 01 A P80 ... : ... .. . ... ...
ROW C9 : ... .. C ... ... ... : ... .. C ... ... ... : G#3 00 . ... : ... .. C ... : ... .. . ... ... : ... .. 7 ... ... : ... .. 9 ... ... : ... .. . ... ...
ROW CA : ... .. B ... ... ... : ... .. B ... ... ... : C#3 00 . ... : ... .. 6 ... : ... .. . ... ... : ... .. 6 ... ... : ... .. 8 ... ... : ... .. . ... ...
ROW CB : ... .. 2 ... ... ... : ... .. 2 ... ... ... : C-3 00 . ... : ... .. 3 ... : ... .. . ... ... : ... .. 5 ... ... : ... .. 7 ... ... : ... .. . ... ...
ROW CC : ... .. . ... ... ... : ... .. . ... ... ... : G-2 00 . ... : ... .. 2 ... : ... .. . ... ... : ... .. . ... ... : ... .. . ... ... : ... .. . ... ...
ROW CD : ... .. D ... ... ... : ... .. D ... ... ... : ... .. . ... : ... .. 0 ... : ... .. . ... ... : G-4 01 8 ... ... : ... .. 6 ... ... : ... .. . ... ...
ROW CE : ... .. C ... ... ... : ... .. C ... ... ... : ... .. . ... : B-# 00 8 ... : ... .. . ... ... : ... .. 7 ... ... : ... .. . ... ... : ... .. . ... ...
ROW CF : ... .. B ... ... ... : ... .. B ... ... ... : ... .. . ... : ... .. 3 ... : ... .. . ... ... : ... .. 6 ... ... : ... .. 5 ... ... : ... .. . ... ...
ROW D0 : ... .. 2 ... ... ... : ... .. 2 ... ... ... : ... .. . ... : ... .. . ... : ... .. . ... ... : ... .. 5 ... ... : ... .. . ... ... : ... .. . ... ...
ROW D1 : ... .. . ... ... ... : ... .. . ... ... ... : --- .. . ... : ... .. 0 ... : ... .. . ... ... : ... .. . ... ... : ... .. . ... ... : ... .. . ... ...
ROW D2 : ... .. D ... ... ... : ... .. D ... ... ... : G#4 00 . ... : 2-# 00 F ... : ... .. . ... ... : D-4 01 8 ... ... : ... .. . ... ... : A-1 01 F ... ...
ROW D3 : ... .. C ... ... ... : ... .. C ... ... ... : A#3 00 . ... : ... .. C ... : ... .. . ... ... : ... .. 7 ... ... : ... .. . ... ... : ... .. D ... ...
ROW D4 : ... .. B ... ... ... : ... .. B ... ... ... : D#3 00 . ... : ... .. 6 ... : ... .. . ... ... : ... .. 6 ... ... : ... .. . ... ... : ... .. 8 ... ...
ROW D5 : ... .. 2 ... ... ... : ... .. 2 ... ... ... : D-3 00 . ... : ... .. 3 ... : ... .. . ... ... : ... .. 5 ... ... : ... .. . ... ... : ... .. . ... ...
ROW D6 : ... .. . ... ... ... : ... .. . ... ... ... : A-2 00 . ... : ... .. 2 ... : ... .. . ... ... : ... .. . ... ... : ... .. . ... ... : ... .. . ... ...
ROW D7 : ... .. D ... ... ... : ... .. D ... ... ... : ... .. . ... : ... .. 0 ... : ... .. . ... ... : A#3 01 8 ... ... : ... .. . ... ... : ... .. . ... ...
ROW D8 : ... .. C ... ... ... : ... .. C ... ... ... : ... .. . ... : B-# 00 8 ... : ... .. . ... ... : ... .. 7 ... ... : ... .. . ... ... : ... .. . ... ...
ROW D9 : ... .. B ... ... ... : ... .. B ... ... ... : ... .. . ... : ... .. 3 ... : ... .. . ... ... : ... .. 6 ... ... : ... .. . ... ... : ... .. . ... ...
ROW DA : ... .. 2 ... ... ... : ... .. 2 ... ... ... : ... .. . ... : ... .. . ... : ... .. . ... ... : ... .. 5 ... ... : ... .. 4 ... ... : ... .. . ... ...
ROW DB : ... .. . ... ... ... : ... .. . ... ... ... : --- .. . ... : ... .. 0 ... : ... .. . ... ... : ... .. . ... ... : ... .. . ... ... : ... .. . ... ...
ROW DC : G-3 00 D ... V01 ... : A#3 00 D ... V01 ... : A-4 00 . ... : 7-# 00 F ... : ... .. . ... ... : G-4 01 8 ... ... : B-5 01 4 P81 ... : A#1 01 F ... ...
ROW DD : ... .. C ... ... ... : ... .. C ... ... ... : B-3 00 . ... : ... .. C ... : ... .. . ... ... : ... .. 7 ... ... : C-6 01 4 P7F ... : ... .. D ... ...
ROW DE : ... .. B ... ... ... : ... .. B ... ... ... : E-3 00 . ... : ... .. A ... : ... .. . ... ... : ... .. 6 ... ... : B-5 01 4 P82 ... : ... .. 8 ... ...
ROW DF : ... .. 2 ... ... ... : ... .. 2 ... ... ... : D#3 00 . ... : ... .. 8 ... : ... .. . ... ... : ... .. 5 ... ... : ... .. . P7F ... : ... .. . ... ...
ROW E0 : ... .. . ... ... ... : ... .. . ... ... ... : A#2 00 . ... : ... .. 7 ... : ... .. . ... ... : ... .. . ... ... : A-5 01 4 P82 ... : ... .. . ... ...
ROW E1 : ... .. D ... ... ... : ... .. D ... ... ... : ... .. . ... : ... .. 0 ... : ... .. . ... ... : D-4 01 8 ... ... : ... .. . P7F ... : ... .. . ... ...
ROW E2 : ... .. C ... ... ... : ... .. C ... ... ... : ... .. . ... : B-# 00 6 ... : ... .. . ... ... : ... .. 7 ... ... : G#5 01 4 P81 ... : ... .. . ... ...
ROW E3 : ... .. B ... ... ... : ... .. B ... ... ... : ... .. . ... : ... .. 2 ... : ... .. . ... ... : ... .. 6 ... ... : A-5 01 4 P80 ... : ... .. . ... ...
ROW E4 : ... .. 2 ... ... ... : ... .. 2 ... ... ... : ... .. . ... : ... .. . ... : ... .. . ... ... : ... .. 5 ... ... : A#5 01 4 ... ... : ... .. . ... ...
ROW E5 : ... .. . ... ... ... : ... .. . ... ... ... : --- .. . ... : ... .. 0 ... : ... .. . ... ... : ... .. . ... ... : B-5 01 4 ... ... : ... .. . ... ...
ROW E6 : ... .. D ... ... ... : ... .. D ... ... ... : F#4 00 . ... : ... .. . ... : ... .. . ... ... : A#3 01 8 ... ... : C-6 01 4 P7F ... : G-1 01 F ... ...
ROW E7 : ... .. C ... ... ... : ... .. C ... ... ... : G#3 00 . ... : ... .. A ... : ... .. . ... ... : ... .. 7 ... ... : ... .. . ... ... : ... .. D ... ...
ROW E8 : ... .. B ... ... ... : ... .. B ... ... ... : C#3 00 . ... : ... .. 4 ... : ... .. . ... ... : ... .. 6 ... ... : B-5 01 4 ... ... : ... .. 8 ... ...
ROW E9 : ... .. 2 ... ... ... : ... .. 2 ... ... ... : C-3 00 . ... : ... .. . ... : ... .. . ... ... : ... .. 5 ... ... : A#5 01 4 ... ... : ... .. . ... ...
ROW EA : ... .. . ... ... ... : ... .. . ... ... ... : G-2 00 . ... : ... .. 0 ... : ... .. . ... ... : ... .. . ... ... : A-5 01 4 ... ... : ... .. . ... ...
ROW EB : ... .. D ... ... ... : ... .. D ... ... ... : ... .. . ... : ... .. . ... : ... .. . ... ... : G-3 01 8 ... ... : G#5 01 3 P81 ... : ... .. . ... ...
ROW EC : ... .. C ... ... ... : ... .. C ... ... ... : ... .. . ... : ... .. 8 ... : ... .. . ... ... : ... .. 7 ... ... : A-5 01 3 P80 ... : ... .. . ... ...
ROW ED : ... .. B ... ... ... : ... .. B ... ... ... : ... .. . ... : ... .. 3 ... : ... .. . ... ... : ... .. 6 ... ... : A#5 01 3 ... ... : ... .. . ... ...
ROW EE : ... .. 2 ... ... ... : ... .. 2 ... ... ... : ... .. . ... : ... .. . ... : ... .. . ... ... : ... .. 5 ... ... : B-5 01 3 ... ... : ... .. . ... ...
ROW EF : ... .. . ... ... ... : ... .. . ... ... ... : --- .. . ... : ... .. 0 ... : ... .. . ... ... : ... .. . ... ... : C-6 01 3 P7F ... : ... .. . ... ...
ROW F0 : A-3 00 D ... V02 ... : C#4 00 D ... V02 ... : G#5 00 . ... : 2-# 00 F ... : ... .. . ... ... : A-4 01 8 ... ... : A-5 01 7 P80 ... : A-1 01 F ... ...
ROW F1 : ... .. C ... ... ... : ... .. C ... ... ... : A#4 00 . ... : ... .. C ... : ... .. . ... ... : ... .. 7 ... ... : ... .. 6 ... ... : ... .. D ... ...
ROW F2 : ... .. B ... ... ... : ... .. B ... ... ... : D#4 00 . ... : ... .. 6 ... : ... .. . ... ... : ... .. 6 ... ... : ... .. 5 ... ... : ... .. 8 ... ...
ROW F3 : ... .. 2 ... ... ... : ... .. 2 ... ... ... : D-4 00 . ... : ... .. 3 ... : ... .. . ... ... : ... .. 5 ... ... : ... .. . ... ... : ... .. . ... ...
ROW F4 : ... .. . ... ... ... : ... .. . ... ... ... : A-3 00 . ... : ... .. 2 ... : ... .. . ... ... : ... .. . ... ... : ... .. . ... ... : ... .. . ... ...
ROW F5 : ... .. D ... ... ... : ... .. D ... ... ... : ... .. . ... : ... .. 0 ... : ... .. . ... ... : E-4 01 8 ... ... : ... .. 4 ... ... : ... .. . ... ...
ROW F6 : ... .. C ... ... ... : ... .. C ... ... ... : ... .. . ... : B-# 00 8 ... : ... .. . ... ... : ... .. 7 ... ... : ... .. . ... ... : ... .. . ... ...
ROW F7 : ... .. B ... ... ... : ... .. B ... ... ... : ... .. . ... : ... .. 3 ... : ... .. . ... ... : ... .. 6 ... ... : ... .. 3 ... ... : ... .. . ... ...
ROW F8 : ... .. 2 ... ... ... : ... .. 2 ... ... ... : ... .. . ... : ... .. . ... : ... .. . ... ... : ... .. 5 ... ... : ... .. 4 ... ... : ... .. . ... ...
ROW F9 : ... .. . ... ... ... : ... .. . ... ... ... : ... .. . ... : ... .. 0 ... : ... .. . ... ... : ... .. . ... ... : ... .. . ... ... : ... .. . ... ...
ROW FA : ... .. D ... ... ... : ... .. D ... ... ... : G-3 00 . P7F : 2-# 00 F ... : ... .. . ... ... : C#4 01 8 ... ... : ... .. . ... ... : ... .. . ... ...
ROW FB : ... .. C ... ... ... : ... .. C ... ... ... : F-3 00 . P82 : ... .. C ... : ... .. . ... ... : ... .. 7 ... ... : ... .. . ... ... : ... .. . ... ...
ROW FC : ... .. B ... ... ... : ... .. B ... ... ... : D#3 00 . P8A : ... .. 6 ... : ... .. . ... ... : ... .. 6 ... ... : ... .. . ... ... : ... .. . ... ...
ROW FD : ... .. 2 ... ... ... : ... .. 2 ... ... ... : D-3 00 . P7F : ... .. 3 ... : ... .. . ... ... : ... .. 5 ... ... : ... .. . ... ... : ... .. . ... ...
ROW FE : ... .. . ... ... ... : ... .. . ... ... ... : C#3 00 . P76 : ... .. 2 ... : ... .. . ... ... : ... .. . ... ... : ... .. . ... ... : ... .. . ... ...
ROW FF : ... .. D ... ... ... : ... .. D ... ... ... : B-2 00 . P87 : ... .. 0 ... : ... .. . ... ... : A-3 01 8 ... ... : ... .. . ... ... : ... .. . ... ...

PATTERN 0B
ROW 00 : ... .. C ... ... ... : ... .. C ... ... ... : A#2 00 . P82 : B-# 00 8 ... : ... .. . ... ... : ... .. 7 ... ... : ... .. . ... ... : ... .. . ... ...
ROW 01 : ... .. B ... ... ... : ... .. B ... ... ... : A-2 00 . P7E : ... .. 3 ... : ... .. . ... ... : ... .. 6 ... ... : ... .. . ... ... : ... .. . ... ...
ROW 02 : ... .. 2 ... ... ... : ... .. 2 ... ... ... : G#2 00 . P7D : ... .. . ... : ... .. . ... ... : ... .. 5 ... ... : ... .. . ... ... : ... .. . ... ...
ROW 03 : ... .. . ... ... ... : ... .. . ... ... ... : --- .. . ... : ... .. 0 ... : ... .. . ... ... : ... .. . ... ... : ... .. . ... ... : ... .. . ... ...
ROW 04 : G#3 00 D ... V03 ... : C-4 00 D ... V03 ... : G-3 00 . P80 : 7-# 00 F ... : ... .. . ... ... : G#4 01 8 ... ... : A#5 01 4 ... ... : ... .. . ... ...
ROW 05 : ... .. C ... ... ... : ... .. C ... ... ... : ... .. . ... : ... .. C ... : ... .. . ... ... : ... .. 7 ... ... : B-5 01 4 P7F ... : ... .. . ... ...
ROW 06 : ... .. B ... ... ... : ... .. B ... ... ... : ... .. . ... : ... .. A ... : ... .. . ... ... : ... .. 6 ... ... : A#5 01 4 P81 ... : ... .. . ... ...
ROW 07 : ... .. 2 ... ... ... : ... .. 2 ... ... ... : ... .. . ... : ... .. 8 ... : ... .. . ... ... : ... .. 5 ... ... : A-5 01 4 P82 ... : ... .. . ... ...
ROW 08 : ... .. . ... ... ... : ... .. . ... ... ... : --- .. . ... : ... .. 7 ... : ... .. . ... ... : ... .. . ... ... : G#5 01 4 P81 ... : ... .. . ... ...
ROW 09 : ... .. D ... ... ... : ... .. D ... ... ... : G-3 00 . ... : ... .. 0 ... : ... .. . ... ... : D#4 01 8 ... ... : G-5 01 5 P82 ... : ... .. . ... ...
ROW 0A : ... .. C ... ... ... : ... .. C ... ... ... : ... .. . ... : B-# 00 6 ... : ... .. . ... ... : ... .. 7 ... ... : ... .. . P81 ... : ... .. . ... ...
ROW 0B : ... .. B ... ... ... : ... .. B ... ... ... : ... .. . ... : ... .. 2 ... : ... .. . ... ... : ... .. 6 ... ... : G#5 01 5 P7F ... : ... .. . ... ...
ROW 0C : ... .. 2 ... ... ... : ... .. 2 ... ... ... : ... .. . ... : ... .. . ... : ... .. . ... ... : ... .. 5 ... ... : A-5 01 5 P80 ... : ... .. . ... ...
ROW 0D : ... .. . ... ... ... : ... .. . ... ... ... : --- .. . ... : ... .. 0 ... : ... .. . ... ... : ... .. . ... ... : A#5 01 5 P7F ... : ... .. . ... ...
ROW 0E : ... .. D ... ... ... : ... .. D ... ... ... : G-3 00 . ... : ... .. . ... : ... .. . ... ... : C-4 01 8 ... ... : B-5 01 5 ... ... : ... .. . ... ...
ROW 0F : ... .. C ... ... ... : ... .. C ... ... ... : ... .. . ... : ... .. A ... : ... .. . ... ... : ... .. 7 ... ... : ... .. . ... ... : ... .. . ... ...
ROW 10 : ... .. B ... ... ... : ... .. B ... ... ... : ... .. . ... : ... .. 4 ... : ... .. . ... ... : ... .. 6 ... ... : A-5 01 5 P82 ... : ... .. . ... ...
ROW 11 : ... .. 2 ... ... ... : ... .. 2 ... ... ... : ... .. . ... : ... .. . ... : ... .. . ... ... : ... .. 5 ... ... : ... .. . P7F ... : ... .. . ... ...
ROW 12 : ... .. . ... ... ... : ... .. . ... ... ... : --- .. . ... : ... .. 0 ... : ... .. . ... ... : ... .. . ... ... : G-5 01 5 P82 ... : ... .. . ... ...
ROW 13 : ... .. D ... ... ... : ... .. D ... ... ... : G-3 00 . ... : ... .. . ... : ... .. . ... ... : G#3 01 8 ... ... : ... .. . P81 ... : ... .. . ... ...
ROW 14 : ... .. C ... ... ... : ... .. C ... ... ... : ... .. . ... : ... .. 8 ... : ... .. . ... ... : ... .. 7 ... ... : G#5 01 5 P7F ... : ... .. . ... ...
ROW 15 : ... .. B ... ... ... : ... .. B ... ... ... : ... .. . ... : ... .. 3 ... : ... .. . ... ... : ... .. 6 ... ... : A-5 01 5 P80 ... : ... .. . ... ...
ROW 16 : ... .. 2 ... ... ... : ... .. 2 ... ... ... : ... .. . ... : ... .. . ... : ... .. . ... ... : ... .. 5 ... ... : A#5 01 5 P7F ... : ... .. . ... ...
ROW 17 : ... .. . ... ... ... : ... .. . ... ... ... : --- .. . ... : ... .. 0 ... : ... .. . ... ... : ... .. . ... ... : B-5 01 5 ... ... : ... .. . ... ...
ROW 18 : A-3 00 D ... V01 ... : C#4 00 D ... V01 ... : G#4 00 . ... : 2-# 00 F ... : ... .. . ... ... : A-4 01 8 ... ... : E-5 01 A P80 ... : A-0 01 F ... ...
ROW 19 : ... .. C ... ... ... : ... .. C ... ... ... : A#3 00 . ... : ... .. C ... : ... .. . ... ... : ... .. 7 ... ... : ... .. 9 ... ... : ... .. D ... ...
ROW 1A : ... .. B ... ... ... : ... .. B ... ... ... : D#3 00 . ... : ... .. 6 ... : ... .. . ... ... : ... .. 6 ... ... : ... .. 8 ... ... : ... .. 8 ... ...
ROW 1B : ... .. 2 ... ... ... : ... .. 2 ... ... ... : D-3 00 . ... : ... .. 3 ... : ... .. . ... ... : ... .. 5 ... ... : ... .. 7 ... ... : ... .. . ... ...
ROW 1C : ... .. . ... ... ... : ... .. . ... ... ... : A-2 00 . ... : ... .. 2 ... : ... .. . ... ... : ... .. . ... ... : ... .. . ... ... : ... .. . ... ...
ROW 1D : ... .. D ... ... ... : ... .. D ... ... ... : ... .. . ... : ... .. 0 ... : ... .. . ... ... : E-4 01 8 ... ... : ... .. 6 ... ... : ... .. . ... ...
ROW 1E : ... .. C ... ... ... : ... .. C ... ... ... : ... .. . ... : B-# 00 8 ... : ... .. . ... ... : ... .. 7 ... ... : ... .. . ... ... : ... .. . ... ...
ROW 1F : ... .. B ... ... ... : ... .. B ... ... ... : ... .. . ... : ... .. 3 ... : ... .. . ... ... : ... .. 6 ... ... : ... .. 5 ... ... : ... .. . ... ...
ROW 20 : ... .. 2 ... ... ... : ... .. 2 ... ... ... : ... .. . ... : ... .. . ... : ... .. . ... ... : ... .. 5 ... ... : ... .. . ... ... : ... .. . ... ...
ROW 21 : ... .. . ... ... ... : ... .. . ... ... ... : --- .. . ... : ... .. 0 ... : ... .. . ... ... : ... .. . ... ... : ... .. . ... ... : ... .. . ... ...
ROW 22 : ... .. D ... ... ... : ... .. D ... ... ... : G#4 00 . ... : C-# 00 8 ... : ... .. . ... ... : C#4 01 8 ... ... : ... .. . ... ... : ... .. . ... ...
ROW 23 : ... .. C ... ... ... : ... .. C ... ... ... : A#3 00 . ... : ... .. 7 ... : ... .. . ... ... : ... .. 7 ... ... : ... .. . ... ... : ... .. . ... ...
ROW 24 : ... .. B ... ... ... : ... .. B ... ... ... : D#3 00 . ... : ... .. . ... : ... .. . ... ... : ... .. 6 ... ... : ... .. . ... ... : ... .. . ... ...
ROW 25 : ... .. 2 ... ... ... : ... .. 2 ... ... ... : D-3 00 . ... : ... .. 6 ... : ... .. . ... ... : ... .. 5 ... ... : ... .. . ... ... : ... .. . ... ...
ROW 26 : ... .. . ... ... ... : ... .. . ... ... ... : A-2 00 . ... : ... .. 5 ... : ... .. . ... ... : ... .. . ... ... : ... .. . ... ... : ... .. . ... ...
ROW 27 : ... .. D ... ... ... : ... .. D ... ... ... : ... .. . ... : ... .. 4 ... : ... .. . ... ... : A-3 01 8 ... ... : ... .. . ... ... : ... .. . ... ...
ROW 28 : ... .. C ... ... ... : ... .. C ... ... ... : ... .. . ... : ... .. . ... : ... .. . ... ... : ... .. 7 ... ... : ... .. . ... ... : ... .. . ... ...
ROW 29 : ... .. B ... ... ... : ... .. B ... ... ... : ... .. . ... : ... .. . ... : ... .. . ... ... : ... .. 6 ... ... : ... .. . ... ... : ... .. . ... ...
ROW 2A : ... .. 2 ... ... ... : ... .. 2 ... ... ... : ... .. . ... : ... .. 3 ... : ... .. . ... ... : ... .. 5 ... ... : ... .. 4 ... ... : ... .. . ... ...
ROW 2B : ... .. . ... ... ... : ... .. . ... ... ... : --- .. . ... : ... .. . ... : ... .. . ... ... : ... .. . ... ... : ... .. . ... ... : ... .. . ... ...
ROW 2C : E-4 00 D ... V00 ... : ... .. D ... V00 ... : A-3 00 . ... : 7-# 00 F ... : ... .. . ... ... : E-3 01 8 ... ... : F-5 01 4 P7F ... : A-1 01 F ... ...
ROW 2D : ... .. C ... ... ... : ... .. C ... ... ... : ... .. . ... : ... .. C ... : ... .. . ... ... : ... .. 7 ... ... : ... .. . P81 ... : ... .. D ... ...
ROW 2E : ... .. B ... ... ... : ... .. B ... ... ... : ... .. . ... : ... .. A ... : ... .. . ... ... : ... .. 6 ... ... : ... .. . P80 ... : ... .. 8 ... ...
ROW 2F : ... .. 2 ... ... ... : ... .. 2 ... ... ... : ... .. . ... : ... .. 8 ... : ... .. . ... ... : ... .. 5 ... ... : E-5 01 4 P82 ... : ... .. . ... ...
ROW 30 : ... .. . ... ... ... : ... .. . ... ... ... : --- .. . ... : ... .. 7 ... : ... .. . ... ... : ... .. . ... ... : ... .. . P7E ... : ... .. . ... ...
ROW 31 : A-4 00 D ... ... ... : ... .. D ... ... ... : A-3 00 . ... : ... .. 0 ... : ... .. . ... ... : A-3 01 8 ... ... : D#5 01 4 P80 ... : ... .. . ... ...
ROW 32 : ... .. C ... ... ... : ... .. C ... ... ... : ... .. . ... : B-# 00 6 ... : ... .. . ... ... : ... .. 7 ... ... : ... .. . P7F ... : ... .. . ... ...
ROW 33 : ... .. B ... ... ... : ... .. B ... ... ... : ... .. . ... : ... .. 2 ... : ... .. . ... ... : ... .. 6 ... ... : ... .. . P81 ... : ... .. . ... ...
ROW 34 : ... .. 2 ... ... ... : ... .. 2 ... ... ... : ... .. . ... : ... .. . ... : ... .. . ... ... : ... .. 5 ... ... : E-5 01 4 P80 ... : ... .. . ... ...
ROW 35 : ... .. . ... ... ... : ... .. . ... ... ... : --- .. . ... : ... .. 0 ... : ... .. . ... ... : ... .. . ... ... : F-5 01 4 P7E ... : ... .. . ... ...
ROW 36 : ... .. D ... ... ... : ... .. D ... ... ... : A-3 00 . ... : ... .. . ... : ... .. . ... ... : ... .. 8 ... ... : ... .. . P81 ... : ... .. . ... ...
ROW 37 : ... .. C ... ... ... : ... .. C ... ... ... : ... .. . ... : ... .. A ... : ... .. . ... ... : ... .. 7 ... ... : ... .. . ... ... : ... .. . ... ...
ROW 38 : ... .. B ... ... ... : ... .. B ... ... ... : ... .. . ... : ... .. 4 ... : ... .. . ... ... : ... .. 6 ... ... : E-5 01 4 P82 ... : ... .. . ... ...
ROW 39 : ... .. 2 ... ... ... : ... .. 2 ... ... ... : ... .. . ... : ... .. . ... : ... .. . ... ... : ... .. 5 ... ... : ... .. . P7F ... : ... .. . ... ...
ROW 3A : ... .. . ... ... ... : ... .. . ... ... ... : --- .. . ... : ... .. 0 ... : ... .. . ... ... : ... .. . ... ... : D#5 01 4 P80 ... : ... .. . ... ...
ROW 3B : C#5 00 D ... ... ... : ... .. D ... ... ... : A-3 00 . ... : ... .. . ... : ... .. . ... ... : C#4 01 8 ... ... : ... .. 3 P7F ... : ... .. . ... ...
ROW 3C : ... .. C ... ... ... : ... .. C ... ... ... : ... .. . ... : ... .. 8 ... : ... .. . ... ... : ... .. 7 ... ... : ... .. . P81 ... : ... .. . ... ...
ROW 3D : ... .. B ... ... ... : ... .. B ... ... ... : ... .. . ... : ... .. 3 ... : ... .. . ... ... : ... .. 6 ... ... : E-5 01 3 P80 ... : ... .. . ... ...
ROW 3E : ... .. 2 ... ... ... : ... .. 2 ... ... ... : ... .. . ... : ... .. . ... : ... .. . ... ... : ... .. 5 ... ... : F-5 01 3 P7E ... : ... .. . ... ...
ROW 3F : ... .. . ... ... ... : ... .. . ... ... ... : --- .. . ... : ... .. 0 ... : ... .. . ... ... : ... .. . ... ... : ... .. . P81 ... : ... .. . ... ...
ROW 40 : G#3 00 D ... V01 ... : C-4 00 D ... V01 ... : G-4 00 . ... : ... .. . ... : ... .. . ... ... : C-4 01 8 ... ... : D#5 01 7 P80 ... : G#1 01 F ... ...
ROW 41 : ... .. C ... ... ... : ... .. C ... ... ... : A-3 00 . ... : 2-# 00 F ... : ... .. . ... ... : ... .. 7 ... ... : ... .. 6 ... ... : ... .. D ... ...
ROW 42 : ... .. B ... ... ... : ... .. B ... ... ... : D-3 00 . ... : ... .. 6 ... : ... .. . ... ... : ... .. 6 ... ... : ... .. 5 ... ... : ... .. 8 ... ...
ROW 43 : ... .. 2 ... ... ... : ... .. 2 ... ... ... : C#3 00 . ... : ... .. . ... : ... .. . ... ... : ... .. 5 ... ... : ... .. . ... ... : ... .. . ... ...
ROW 44 : ... .. . ... ... ... : ... .. . ... ... ... : G#2 00 . ... : ... .. 0 ... : ... .. . ... ... : ... .. . ... ... : ... .. . ... ... : ... .. . ... ...
ROW 45 : ... .. D ... ... ... : ... .. D ... ... ... : ... .. . ... : ... .. . ... : ... .. . ... ... : G#3 01 8 ... ... : ... .. 4 ... ... : ... .. . ... ...
ROW 46 : ... .. C ... ... ... : ... .. C ... ... ... : ... .. . ... : B-# 00 6 ... : ... .. . ... ... : ... .. 7 ... ... : ... .. . ... ... : ... .. . ... ...
ROW 47 : ... .. B ... ... ... : ... .. B ... ... ... : ... .. . ... : ... .. 2 ... : ... .. . ... ... : ... .. 6 ... ... : ... .. 3 ... ... : ... .. . ... ...
ROW 48 : ... .. 2 ... ... ... : ... .. 2 ... ... ... : ... .. . ... : ... .. . ... : ... .. . ... ... : ... .. 5 ... ... : ... .. 4 ... ... : ... .. . ... ...
ROW 49 : ... .. . ... ... ... : ... .. . ... ... ... : --- .. . ... : ... .. 0 ... : ... .. . ... ... : ... .. . ... ... : ... .. . ... ... : ... .. . ... ...
ROW 4A : ... .. D ... ... ... : ... .. D ... ... ... : G-4 00 . ... : ... .. . ... : ... .. . ... ... : D#3 01 8 ... ... : ... .. . ... ... : ... .. . ... ...
ROW 4B : ... .. C ... ... ... : ... .. C ... ... ... : A-3 00 . ... : ... .. A ... : ... .. . ... ... : ... .. 7 ... ... : ... .. . ... ... : ... .. . ... ...
ROW 4C : ... .. B ... ... ... : ... .. B ... ... ... : D-3 00 . ... : ... .. 4 ... : ... .. . ... ... : ... .. 6 ... ... : ... .. . ... ... : ... .. . ... ...
ROW 4D : ... .. 2 ... ... ... : ... .. 2 ... ... ... : C#3 00 . ... : ... .. . ... : ... .. . ... ... : ... .. 5 ... ... : ... .. . ... ... : ... .. . ... ...
ROW 4E : ... .. . ... ... ... : ... .. . ... ... ... : G#2 00 . ... : ... .. 0 ... : ... .. . ... ... : ... .. . ... ... : ... .. . ... ... : ... .. . ... ...
ROW 4F : ... .. D ... ... ... : ... .. D ... ... ... : ... .. . ... : ... .. . ... : ... .. . ... ... : C-3 01 8 ... ... : ... .. . ... ... : ... .. . ... ...
ROW 50 : ... .. C ... ... ... : ... .. C ... ... ... : ... .. . ... : ... .. 8 ... : ... .. . ... ... : ... .. 7 ... ... : ... .. . ... ... : ... .. . ... ...
ROW 51 : ... .. B ... ... ... : ... .. B ... ... ... : ... .. . ... : ... .. 3 ... : ... .. . ... ... : ... .. 6 ... ... : ... .. . ... ... : ... .. . ... ...
ROW 52 : ... .. 2 ... ... ... : ... .. 2 ... ... ... : ... .. . ... : ... .. . ... : ... .. . ... ... : ... .. 5 ... ... : ... .. . ... ... : ... .. . ... ...
ROW 53 : ... .. . ... ... ... : ... .. . ... ... ... : --- .. . ... : ... .. 0 ... : ... .. . ... ... : ... .. . ... ... : ... .. . ... ... : ... .. . ... ...
ROW 54 : G-3 00 D ... V02 ... : B-3 00 D ... V02 ... : F#3 00 . ... : 7-# 00 F ... : ... .. . ... ... : D#4 01 8 ... ... : E-5 01 4 P7F ... : ... .. . ... ...
ROW 55 : ... .. C ... ... ... : ... .. C ... ... ... : ... .. . ... : ... .. C ... : ... .. . ... ... : ... .. 7 ... ... : ... .. . P81 ... : ... .. . ... ...
ROW 56 : ... .. B ... ... ... : ... .. B ... ... ... : ... .. . ... : ... .. A ... : ... .. . ... ... : ... .. 6 ... ... : ... .. . P80 ... : ... .. . ... ...
ROW 57 : ... .. 2 ... ... ... : ... .. 2 ... ... ... : ... .. . ... : ... .. 8 ... : ... .. . ... ... : ... .. 5 ... ... : D#5 01 4 P82 ... : ... .. . ... ...
ROW 58 : ... .. . ... ... ... : ... .. . ... ... ... : --- .. . ... : ... .. 7 ... : ... .. . ... ... : ... .. . ... ... : ... .. . P7E ... : ... .. . ... ...
ROW 59 : ... .. D ... ... ... : ... .. D ... ... ... : F#3 00 . ... : ... .. 0 ... : ... .. . ... ... : C-4 01 8 ... ... : D-5 01 5 P80 ... : ... .. . ... ...
ROW 5A : ... .. C ... ... ... : ... .. C ... ... ... : ... .. . ... : B-# 00 6 ... : ... .. . ... ... : ... .. 7 ... ... : ... .. . P7F ... : ... .. . ... ...
ROW 5B : ... .. B ... ... ... : ... .. B ... ... ... : ... .. . ... : ... .. 2 ... : ... .. . ... ... : ... .. 6 ... ... : ... .. . P81 ... : ... .. . ... ...
ROW 5C : ... .. 2 ... ... ... : ... .. 2 ... ... ... : ... .. . ... : ... .. . ... : ... .. . ... ... : ... .. 5 ... ... : D#5 01 5 P80 ... : ... .. . ... ...
ROW 5D : ... .. . ... ... ... : ... .. . ... ... ... : --- .. . ... : ... .. 0 ... : ... .. . ... ... : ... .. . ... ... : E-5 01 5 P7E ... : ... .. . ... ...
ROW 5E : ... .. D ... ... ... : ... .. D ... ... ... : F#3 00 . ... : ... .. . ... : ... .. . ... ... : G#3 01 8 ... ... : ... .. . P81 ... : ... .. . ... ...
ROW 5F : ... .. C ... ... ... : ... .. C ... ... ... : ... .. . ... : ... .. A ... : ... .. . ... ... : ... .. 7 ... ... : ... .. . ... ... : ... .. . ... ...
ROW 60 : ... .. B ... ... ... : ... .. B ... ... ... : ... .. . ... : ... .. 4 ... : ... .. . ... ... : ... .. 6 ... ... : D#5 01 5 P82 ... : ... .. . ... ...
ROW 61 : ... .. 2 ... ... ... : ... .. 2 ... ... ... : ... .. . ... : ... .. . ... : ... .. . ... ... : ... .. 5 ... ... : ... .. . P7F ... : ... .. . ... ...
ROW 62 : ... .. . ... ... ... : ... .. . ... ... ... : --- .. . ... : ... .. 0 ... : ... .. . ... ... : ... .. . ... ... : D-5 01 5 P80 ... : ... .. . ... ...
ROW 63 : ... .. D ... ... ... : ... .. D ... ... ... : F#3 00 . ... : ... .. . ... : ... .. . ... ... : D#3 01 8 ... ... : ... .. . P7F ... : ... .. . ... ...
ROW 64 : ... .. C ... ... ... : ... .. C ... ... ... : ... .. . ... : ... .. 8 ... : ... .. . ... ... : ... .. 7 ... ... : ... .. . P81 ... : ... .. . ... ...
ROW 65 : ... .. B ... ... ... : ... .. B ... ... ... : ... .. . ... : ... .. 3 ... : ... .. . ... ... : ... .. 6 ... ... : D#5 01 5 P80 ... : ... .. . ... ...
ROW 66 : ... .. 2 ... ... ... : ... .. 2 ... ... ... : ... .. . ... : ... .. . ... : ... .. . ... ... : ... .. 5 ... ... : E-5 01 5 P7E ... : ... .. . ... ...
ROW 67 : ... .. . ... ... ... : ... .. . ... ... ... : --- .. . ... : ... .. 0 ... : ... .. . ... ... : ... .. . ... ... : ... .. . P81 ... : ... .. . ... ...
ROW 68 : G#3 00 D ... V00 ... : C-4 00 D ... V00 ... : G-4 00 . ... : 2-# 00 F ... : ... .. . ... ... : G#4 01 8 ... ... : G#5 01 A P80 ... : ... .. . ... ...
ROW 69 : ... .. C ... ... ... : ... .. C ... ... ... : A-3 00 . ... : ... .. C ... : ... .. . ... ... : ... .. 7 ... ... : ... .. 9 ... ... : ... .. . ... ...
ROW 6A : ... .. B ... ... ... : ... .. B ... ... ... : D-3 00 . ... : ... .. 6 ... : ... .. . ... ... : ... .. 6 ... ... : ... .. 8 ... ... : ... .. . ... ...
ROW 6B : ... .. 2 ... ... ... : ... .. 2 ... ... ... : C#3 00 . ... : ... .. 3 ... : ... .. . ... ... : ... .. 5 ... ... : ... .. 7 ... ... : ... .. . ... ...
ROW 6C : ... .. . ... ... ... : ... .. . ... ... ... : G#2 00 . ... : ... .. 2 ... : ... .. . ... ... : ... .. . ... ... : ... .. . ... ... : ... .. . ... ...
ROW 6D : ... .. D ... ... ... : ... .. D ... ... ... : ... .. . ... : ... .. 0 ... : ... .. . ... ... : D#4 01 8 ... ... : ... .. 6 ... ... : ... .. . ... ...
ROW 6E : ... .. C ... ... ... : ... .. C ... ... ... : ... .. . ... : B-# 00 8 ... : ... .. . ... ... : ... .. 7 ... ... : ... .. . ... ... : ... .. . ... ...
ROW 6F : ... .. B ... ... ... : ... .. B ... ... ... : ... .. . ... : ... .. 3 ... : ... .. . ... ... : ... .. 6 ... ... : ... .. 5 ... ... : ... .. . ... ...
ROW 70 : ... .. 2 ... ... ... : ... .. 2 ... ... ... : ... .. . ... : ... .. . ... : ... .. . ... ... : ... .. 5 ... ... : ... .. . ... ... : ... .. . ... ...
ROW 71 : ... .. . ... ... ... : ... .. . ... ... ... : --- .. . ... : ... .. 0 ... : ... .. . ... ... : ... .. . ... ... : ... .. . ... ... : ... .. . ... ...
ROW 72 : ... .. D ... ... ... : ... .. D ... ... ... : G-4 00 . ... : 2-# 00 F ... : ... .. . ... ... : C-4 01 8 ... ... : ... .. . ... ... : A#1 01 F ... ...
ROW 73 : ... .. C ... ... ... : ... .. C ... ... ... : A-3 00 . ... : ... .. C ... : ... .. . ... ... : ... .. 7 ... ... : ... .. . ... ... : ... .. D ... ...
ROW 74 : ... .. B ... ... ... : ... .. B ... ... ... : D-3 00 . ... : ... .. 6 ... : ... .. . ... ... : ... .. 6 ... ... : ... .. . ... ... : ... .. 8 ... ...
ROW 75 : ... .. 2 ... ... ... : ... .. 2 ... ... ... : C#3 00 . ... : ... .. 3 ... : ... .. . ... ... : ... .. 5 ... ... : ... .. . ... ... : ... .. . ... ...
ROW 76 : ... .. . ... ... ... : ... .. . ... ... ... : G#2 00 . ... : ... .. 2 ... : ... .. . ... ... : ... .. . ... ... : ... .. . ... ... : ... .. . ... ...
ROW 77 : ... .. D ... ... ... : ... .. D ... ... ... : ... .. . ... : ... .. 0 ... : ... .. . ... ... : G#3 01 8 ... ... : ... .. . ... ... : ... .. . ... ...
ROW 78 : ... .. C ... ... ... : ... .. C ... ... ... : ... .. . ... : B-# 00 8 ... : ... .. . ... ... : ... .. 7 ... ... : ... .. . ... ... : ... .. . ... ...
ROW 79 : ... .. B ... ... ... : ... .. B ... ... ... : ... .. . ... : ... .. 3 ... : ... .. . ... ... : ... .. 6 ... ... : ... .. . ... ... : ... .. . ... ...
ROW 7A : ... .. 2 ... ... ... : ... .. 2 ... ... ... : ... .. . ... : ... .. . ... : ... .. . ... ... : ... .. 5 ... ... : ... .. 4 ... ... : ... .. . ... ...
ROW 7B : ... .. . ... ... ... : ... .. . ... ... ... : --- .. . ... : ... .. 0 ... : ... .. . ... ... : ... .. . ... ... : ... .. . ... ... : ... .. . ... ...
ROW 7C : D#4 00 D ... V01 ... : ... .. D ... V01 ... : D-4 00 . ... : 7-# 00 F ... : ... .. . ... ... : D#4 01 8 ... ... : A-5 01 4 P81 ... : C-2 01 F ... ...
ROW 7D : ... .. C ... ... ... : ... .. C ... ... ... : ... .. . ... : ... .. C ... : ... .. . ... ... : ... .. 7 ... ... : A#5 01 4 P7F ... : ... .. D ... ...
ROW 7E : ... .. B ... ... ... : ... .. B ... ... ... : ... .. . ... : ... .. A ... : ... .. . ... ... : ... .. 6 ... ... : A-5 01 4 P82 ... : ... .. 8 ... ...
ROW 7F : ... .. 2 ... ... ... : ... .. 2 ... ... ... : ... .. . ... : ... .. 8 ... : ... .. . ... ... : ... .. 5 ... ... : ... .. . P7F ... : ... .. . ... ...
ROW 80 : ... .. . ... ... ... : ... .. . ... ... ... : --- .. . ... : ... .. 7 ... : ... .. . ... ... : ... .. . ... ... : G-5 01 4 P82 ... : ... .. . ... ...
ROW 81 : G#4 00 D ... ... ... : ... .. D ... ... ... : D-4 00 . ... : ... .. 0 ... : ... .. . ... ... : G#4 01 8 ... ... : ... .. . P7F ... : ... .. . ... ...
ROW 82 : ... .. C ... ... ... : ... .. C ... ... ... : ... .. . ... : B-# 00 6 ... : ... .. . ... ... : ... .. 7 ... ... : ... .. . P7E ... : ... .. . ... ...
ROW 83 : ... .. B ... ... ... : ... .. B ... ... ... : ... .. . ... : ... .. 2 ... : ... .. . ... ... : ... .. 6 ... ... : ... .. . P80 ... : ... .. . ... ...
ROW 84 : ... .. 2 ... ... ... : ... .. 2 ... ... ... : ... .. . ... : ... .. . ... : ... .. . ... ... : ... .. 5 ... ... : G#5 01 4 ... ... : ... .. . ... ...
ROW 85 : ... .. . ... ... ... : ... .. . ... ... ... : --- .. . ... : ... .. 0 ... : ... .. . ... ... : ... .. . ... ... : A-5 01 4 ... ... : ... .. . ... ...
ROW 86 : ... .. D ... ... ... : ... .. D ... ... ... : D-3 00 . ... : ... .. . ... : ... .. . ... ... : ... .. 8 ... ... : A#5 01 4 P7F ... : G#1 01 F ... ...
ROW 87 : ... .. C ... ... ... : ... .. C ... ... ... : ... .. . ... : ... .. A ... : ... .. . ... ... : ... .. 7 ... ... : ... .. . ... ... : ... .. D ... ...
ROW 88 : ... .. B ... ... ... : ... .. B ... ... ... : ... .. . ... : ... .. 4 ... : ... .. . ... ... : ... .. 6 ... ... : A-5 01 4 ... ... : ... .. 8 ... ...
ROW 89 : ... .. 2 ... ... ... : ... .. 2 ... ... ... : ... .. . ... : ... .. . ... : ... .. . ... ... : ... .. 5 ... ... : G#5 01 4 ... ... : ... .. . ... ...
ROW 8A : ... .. . ... ... ... : ... .. . ... ... ... : --- .. . ... : ... .. 0 ... : ... .. . ... ... : ... .. . ... ... : G-5 01 4 ... ... : ... .. . ... ...
ROW 8B : C-5 00 D ... ... ... : ... .. D ... ... ... : D-3 00 . ... : ... .. . ... : ... .. . ... ... : C-5 01 8 ... ... : ... .. 3 P7E ... : ... .. . ... ...
ROW 8C : ... .. C ... ... ... : ... .. C ... ... ... : ... .. . ... : ... .. 8 ... : ... .. . ... ... : ... .. 7 ... ... : ... .. . P80 ... : ... .. . ... ...
ROW 8D : ... .. B ... ... ... : ... .. B ... ... ... : ... .. . ... : ... .. 3 ... : ... .. . ... ... : ... .. 6 ... ... : G#5 01 3 ... ... : ... .. . ... ...
ROW 8E : ... .. 2 ... ... ... : ... .. 2 ... ... ... : ... .. . ... : ... .. . ... : ... .. . ... ... : ... .. 5 ... ... : A-5 01 3 ... ... : ... .. . ... ...
ROW 8F : ... .. . ... ... ... : ... .. . ... ... ... : --- .. . ... : ... .. 0 ... : ... .. . ... ... : ... .. . ... ... : A#5 01 3 P7F ... : ... .. . ... ...
ROW 90 : G-3 00 D ... V02 ... : A#3 00 D ... V02 ... : F#4 00 . ... : 9-# 00 D ... : ... .. . ... ... : A#4 01 8 ... ... : G-5 01 7 P80 ... : G-1 01 F ... ...
ROW 91 : ... .. C ... ... ... : ... .. C ... ... ... : G#3 00 . ... : ... .. . ... : ... .. . ... ... : ... .. 7 ... ... : ... .. 6 ... ... : ... .. D ... ...
ROW 92 : ... .. B ... ... ... : ... .. B ... ... ... : C#3 00 . ... : ... .. . ... : ... .. . ... ... : ... .. 6 ... ... : ... .. 5 ... ... : ... .. 8 ... ...
ROW 93 : ... .. 2 ... ... ... : ... .. 2 ... ... ... : C-3 00 . ... : ... .. B ... : ... .. . ... ... : ... .. 5 ... ... : ... .. . ... ... : ... .. . ... ...
ROW 94 : ... .. . ... ... ... : ... .. . ... ... ... : G-2 00 . ... : ... .. . ... : ... .. . ... ... : ... .. . ... ... : ... .. . ... ... : ... .. . ... ...
ROW 95 : ... .. D ... ... ... : ... .. D ... ... ... : ... .. . ... : ... .. A ... : ... .. . ... ... : G-4 01 8 ... ... : ... .. 4 ... ... : ... .. . ... ...
ROW 96 : ... .. C ... ... ... : ... .. C ... ... ... : ... .. . ... : ... .. . ... : ... .. . ... ... : ... .. 7 ... ... : ... .. . ... ... : ... .. . ... ...
ROW 97 : ... .. B ... ... ... : ... .. B ... ... ... : ... .. . ... : ... .. . ... : ... .. . ... ... : ... .. 6 ... ... : ... .. 3 ... ... : ... .. . ... ...
ROW 98 : ... .. 2 ... ... ... : ... .. 2 ... ... ... : ... .. . ... : ... .. 9 ... : ... .. . ... ... : ... .. 5 ... ... : ... .. 4 ... ... : ... .. . ... ...
ROW 99 : ... .. . ... ... ... : ... .. . ... ... ... : --- .. . ... : ... .. . ... : ... .. . ... ... : ... .. . ... ... : ... .. . ... ... : ... .. . ... ...
ROW 9A : ... .. D ... ... ... : ... .. D ... ... ... : F#4 00 . ... : ... .. 7 ... : ... .. . ... ... : D-4 01 8 ... ... : ... .. . ... ... : ... .. . ... ...
ROW 9B : ... .. C ... ... ... : ... .. C ... ... ... : G#3 00 . ... : ... .. . ... : ... .. . ... ... : ... .. 7 ... ... : ... .. . ... ... : ... .. . ... ...
ROW 9C : ... .. B ... ... ... : ... .. B ... ... ... : C#3 00 . ... : ... .. . ... : ... .. . ... ... : ... .. 6 ... ... : ... .. . ... ... : ... .. . ... ...
ROW 9D : ... .. 2 ... ... ... : ... .. 2 ... ... ... : C-3 00 . ... : ... .. 6 ... : ... .. . ... ... : ... .. 5 ... ... : ... .. . ... ... : ... .. . ... ...
ROW 9E : ... .. . ... ... ... : ... .. . ... ... ... : G-2 00 . ... : ... .. . ... : ... .. . ... ... : ... .. . ... ... : ... .. . ... ... : ... .. . ... ...
ROW 9F : ... .. D ... ... ... : ... .. D ... ... ... : ... .. . ... : ... .. 5 ... : ... .. . ... ... : A#3 01 8 ... ... : ... .. . ... ... : ... .. . ... ...
ROW A0 : ... .. C ... ... ... : ... .. C ... ... ... : ... .. . ... : ... .. . ... : ... .. . ... ... : ... .. 7 ... ... : ... .. . ... ... : ... .. . ... ...
ROW A1 : ... .. B ... ... ... : ... .. B ... ... ... : ... .. . ... : ... .. . ... : ... .. . ... ... : ... .. 6 ... ... : ... .. . ... ... : ... .. . ... ...
ROW A2 : ... .. 2 ... ... ... : ... .. 2 ... ... ... : ... .. . ... : ... .. 4 ... : ... .. . ... ... : ... .. 5 ... ... : ... .. . ... ... : ... .. . ... ...
ROW A3 : ... .. . ... ... ... : ... .. . ... ... ... : --- .. . ... : ... .. . ... : ... .. . ... ... : ... .. . ... ... : ... .. . ... ... : ... .. . ... ...
ROW A4 : F#3 00 D ... V03 ... : A-3 00 D ... V03 ... : A#3 00 . ... : 7-# 00 F ... : ... .. . ... ... : A-4 01 8 ... ... : G#5 01 4 ... ... : G-2 01 F ... ...
ROW A5 : ... .. C ... ... ... : ... .. C ... ... ... : ... .. . ... : ... .. C ... : ... .. . ... ... : ... .. 7 ... ... : A-5 01 4 P7F ... : ... .. D ... ...
ROW A6 : ... .. B ... ... ... : ... .. B ... ... ... : ... .. . ... : ... .. A ... : ... .. . ... ... : ... .. 6 ... ... : G#5 01 4 P81 ... : ... .. 8 ... ...
ROW A7 : ... .. 2 ... ... ... : ... .. 2 ... ... ... : ... .. . ... : ... .. 8 ... : ... .. . ... ... : ... .. 5 ... ... : G-5 01 4 P82 ... : ... .. . ... ...
ROW A8 : ... .. . ... ... ... : ... .. . ... ... ... : --- .. . ... : ... .. 7 ... : ... .. . ... ... : ... .. . ... ... : ... .. . P7E ... : ... .. . ... ...
ROW A9 : ... .. D ... ... ... : ... .. D ... ... ... : A#3 00 . ... : ... .. 0 ... : ... .. . ... ... : F#4 01 8 ... ... : F#5 01 5 P80 ... : ... .. F ... ...
ROW AA : ... .. C ... ... ... : ... .. C ... ... ... : ... .. . ... : B-# 00 6 ... : ... .. . ... ... : ... .. 7 ... ... : ... .. . P7F ... : ... .. D ... ...
ROW AB : ... .. B ... ... ... : ... .. B ... ... ... : ... .. . ... : ... .. 2 ... : ... .. . ... ... : ... .. 6 ... ... : ... .. . P81 ... : ... .. 8 ... ...
ROW AC : ... .. 2 ... ... ... : ... .. 2 ... ... ... : ... .. . ... : ... .. . ... : ... .. . ... ... : ... .. 5 ... ... : G-5 01 5 P80 ... : ... .. . ... ...
ROW AD : ... .. . ... ... ... : ... .. . ... ... ... : --- .. . ... : ... .. 0 ... : ... .. . ... ... : ... .. . ... ... : G#5 01 5 P7F ... : ... .. . ... ...
ROW AE : ... .. D ... ... ... : ... .. D ... ... ... : D-3 00 . ... : 9-# 00 D ... : ... .. . ... ... : C#4 01 8 ... ... : A-5 01 5 ... ... : G-1 01 F ... ...
ROW AF : ... .. C ... ... ... : ... .. C ... ... ... : ... .. . ... : ... .. . ... : ... .. . ... ... : ... .. 7 ... ... : ... .. . ... ... : ... .. D ... ...
ROW B0 : ... .. B ... ... ... : ... .. B ... ... ... : ... .. . ... : ... .. . ... : ... .. . ... ... : ... .. 6 ... ... : G-5 01 5 P82 ... : ... .. 8 ... ...
ROW B1 : ... .. 2 ... ... ... : ... .. 2 ... ... ... : ... .. . ... : ... .. B ... : ... .. . ... ... : ... .. 5 ... ... : ... .. . P7F ... : ... .. . ... ...
ROW B2 : ... .. . ... ... ... : ... .. . ... ... ... : --- .. . ... : ... .. . ... : ... .. . ... ... : ... .. . ... ... : F#5 01 5 P80 ... : ... .. . ... ...
ROW B3 : ... .. D ... ... ... : ... .. D ... ... ... : D-3 00 . ... : ... .. A ... : ... .. . ... ... : A-3 01 8 ... ... : ... .. . P7F ... : ... .. F ... ...
ROW B4 : ... .. C ... ... ... : ... .. C ... ... ... : ... .. . ... : ... .. . ... : ... .. . ... ... : ... .. 7 ... ... : ... .. . P81 ... : ... .. D ... ...
ROW B5 : ... .. B ... ... ... : ... .. B ... ... ... : ... .. . ... : ... .. . ... : ... .. . ... ... : ... .. 6 ... ... : G-5 01 5 P80 ... : ... .. 8 ... ...
ROW B6 : ... .. 2 ... ... ... : ... .. 2 ... ... ... : ... .. . ... : ... .. 9 ... : ... .. . ... ... : ... .. 5 ... ... : G#5 01 5 P7F ... : ... .. . ... ...
ROW B7 : ... .. . ... ... ... : ... .. . ... ... ... : --- .. . ... : ... .. . ... : ... .. . ... ... : ... .. . ... ... : A-5 01 5 ... ... : ... .. . ... ...
ROW B8 : G-3 00 D ... V01 ... : A#3 00 D ... V01 ... : C#4 00 . ... : ... .. 7 ... : ... .. . ... ... : A#4 01 8 ... ... : D-5 01 A P80 ... : G-3 01 F ... ...
ROW B9 : ... .. C ... ... ... : ... .. C ... ... ... : D#3 00 . ... : ... .. . ... : ... .. . ... ... : ... .. 7 ... ... : ... .. 9 ... ... : ... .. D ... ...
ROW BA : ... .. B ... ... ... : ... .. B ... ... ... : G#2 00 . ... : ... .. . ... : ... .. . ... ... : ... .. 6 ... ... : ... .. 8 ... ... : ... .. 8 ... ...
ROW BB : ... .. 2 ... ... ... : ... .. 2 ... ... ... : G-2 00 . ... : ... .. 6 ... : ... .. . ... ... : ... .. 5 ... ... : ... .. 7 ... ... : ... .. . ... ...
ROW BC : ... .. . ... ... ... : ... .. . ... ... ... : D-2 00 . ... : ... .. . ... : ... .. . ... ... : ... .. . ... ... : ... .. . ... ... : ... .. . ... ...
ROW BD : ... .. D ... ... ... : ... .. D ... ... ... : ... .. . ... : ... .. 5 ... : ... .. . ... ... : G-4 01 8 ... ... : ... .. 6 ... ... : ... .. F ... ...
ROW BE : ... .. C ... ... ... : ... .. C ... ... ... : ... .. . ... : ... .. . ... : ... .. . ... ... : ... .. 7 ... ... : ... .. . ... ... : ... .. D ... ...
ROW BF : ... .. B ... ... ... : ... .. B ... ... ... : ... .. . ... : ... .. . ... : ... .. . ... ... : ... .. 6 ... ... : ... .. 5 ... ... : ... .. 8 ... ...
ROW C0 : ... .. 2 ... ... ... : ... .. 2 ... ... ... : ... .. . ... : ... .. 4 ... : ... .. . ... ... : ... .. 5 ... ... : ... .. . ... ... : ... .. . ... ...
ROW C1 : ... .. . ... ... ... : ... .. . ... ... ... : --- .. . ... : ... .. . ... : ... .. . ... ... : ... .. . ... ... : ... .. . ... ... : ... .. . ... ...
ROW C2 : ... .. D ... ... ... : ... .. D ... ... ... : D-5 00 . ... : ... .. 0 ... : ... .. . ... ... : D-4 01 8 ... ... : ... .. . ... ... : D-3 01 F ... ...
ROW C3 : ... .. C ... ... ... : ... .. C ... ... ... : ... .. . ... : B-# 00 8 ... : ... .. . ... ... : ... .. 7 ... ... : ... .. . ... ... : ... .. D ... ...
ROW C4 : ... .. B ... ... ... : ... .. B ... ... ... : ... .. . ... : ... .. 3 ... : ... .. . ... ... : ... .. 6 ... ... : ... .. . ... ... : ... .. 8 ... ...
ROW C5 : ... .. 2 ... ... ... : ... .. 2 ... ... ... : ... .. . ... : ... .. . ... : ... .. . ... ... : ... .. 5 ... ... : ... .. . ... ... : ... .. . ... ...
ROW C6 : ... .. . ... ... ... : ... .. . ... ... ... : --- .. . ... : ... .. 0 ... : ... .. . ... ... : ... .. . ... ... : ... .. . ... ... : ... .. . ... ...
ROW C7 : ... .. D ... ... ... : ... .. D ... ... ... : D-5 00 . ... : ... .. . ... : ... .. . ... ... : A#3 01 8 ... ... : ... .. . ... ... : ... .. F ... ...
ROW C8 : ... .. C ... ... ... : ... .. C ... ... ... : ... .. . ... : ... .. 6 ... : ... .. . ... ... : ... .. 7 ... ... : ... .. . ... ... : ... .. D ... ...
ROW C9 : ... .. B ... ... ... : ... .. B ... ... ... : ... .. . ... : ... .. 2 ... : ... .. . ... ... : ... .. 6 ... ... : ... .. . ... ... : ... .. 8 ... ...
ROW CA : ... .. 2 ... ... ... : ... .. 2 ... ... ... : ... .. . ... : ... .. . ... : ... .. . ... ... : ... .. 5 ... ... : ... .. 4 ... ... : ... .. . ... ...
ROW CB : ... .. . ... ... ... : ... .. . ... ... ... : --- .. . ... : ... .. 0 ... : ... .. . ... ... : ... .. . ... ... : ... .. . ... ... : ... .. . ... ...
ROW CC : A#4 00 D ... V00 ... : ... .. D ... V00 ... : D-4 00 . ... : 7-# 00 F ... : ... .. . ... ... : D-6 01 8 ... ... : D#5 01 4 P7F ... : F#4 01 F ... ...
ROW CD : ... .. C ... ... ... : ... .. C ... ... ... : ... .. . ... : ... .. C ... : ... .. . ... ... : ... .. 7 ... ... : ... .. . P81 ... : ... .. D ... ...
ROW CE : ... .. B ... ... ... : ... .. B ... ... ... : ... .. . ... : ... .. A ... : ... .. . ... ... : ... .. 6 ... ... : ... .. . P80 ... : ... .. 8 ... ...
ROW CF : ... .. 2 ... ... ... : ... .. 2 ... ... ... : ... .. . ... : ... .. 0 ... : ... .. . ... ... : ... .. 5 ... ... : D-5 01 4 P82 ... : ... .. . ... ...
ROW D0 : ... .. . ... ... ... : ... .. . ... ... ... : --- .. . ... : ... .. . ... : ... .. . ... ... : ... .. . ... ... : ... .. . P7E ... : ... .. . ... ...
ROW D1 : G-4 00 D ... ... ... : ... .. D ... ... ... : D-4 00 . ... : 6-# 00 F ... : ... .. . ... ... : D-5 01 8 ... ... : C#5 01 4 P81 ... : ... .. F ... ...
ROW D2 : ... .. C ... ... ... : ... .. C ... ... ... : ... .. . ... : ... .. C ... : ... .. . ... ... : ... .. 7 ... ... : ... .. . P80 ... : ... .. D ... ...
ROW D3 : ... .. B ... ... ... : ... .. B ... ... ... : ... .. . ... : ... .. A ... : ... .. . ... ... : ... .. 6 ... ... : ... .. . P82 ... : ... .. 8 ... ...
ROW D4 : ... .. 2 ... ... ... : ... .. 2 ... ... ... : ... .. . ... : ... .. 0 ... : ... .. . ... ... : ... .. 5 ... ... : D-5 01 4 P80 ... : ... .. . ... ...
ROW D5 : ... .. . ... ... ... : ... .. . ... ... ... : --- .. . ... : ... .. . ... : ... .. . ... ... : ... .. . ... ... : D#5 01 4 P7E ... : ... .. . ... ...
ROW D6 : D-4 00 D ... ... ... : ... .. D ... ... ... : D-3 00 . ... : 5-# 00 F ... : ... .. . ... ... : D-4 01 8 ... ... : ... .. . P81 ... : C-4 01 F ... ...
ROW D7 : ... .. C ... ... ... : ... .. C ... ... ... : ... .. . ... : ... .. C ... : ... .. . ... ... : ... .. 7 ... ... : ... .. . ... ... : ... .. D ... ...
ROW D8 : ... .. B ... ... ... : ... .. B ... ... ... : ... .. . ... : ... .. A ... : ... .. . ... ... : ... .. 6 ... ... : D-5 01 4 P82 ... : ... .. 8 ... ...
ROW D9 : ... .. 2 ... ... ... : ... .. 2 ... ... ... : ... .. . ... : ... .. 0 ... : ... .. . ... ... : ... .. 5 ... ... : ... .. . P7F ... : ... .. . ... ...
ROW DA : ... .. . ... ... ... : ... .. . ... ... ... : --- .. . ... : ... .. . ... : ... .. . ... ... : ... .. . ... ... : C#5 01 4 P81 ... : ... .. . ... ...
ROW DB : D-3 00 D ... ... ... : ... .. D ... ... ... : D-3 00 . ... : 4-# 00 F ... : ... .. . ... ... : D-3 01 8 ... ... : ... .. 3 P80 ... : ... .. F ... ...
ROW DC : ... .. C ... ... ... : ... .. C ... ... ... : ... .. . ... : ... .. C ... : ... .. . ... ... : ... .. 7 ... ... : ... .. . P82 ... : ... .. D ... ...
ROW DD : ... .. B ... ... ... : ... .. B ... ... ... : ... .. . ... : ... .. A ... : ... .. . ... ... : ... .. 6 ... ... : D-5 01 3 P80 ... : ... .. 8 ... ...
ROW DE : ... .. 2 ... ... ... : ... .. 2 ... ... ... : ... .. . ... : ... .. 8 ... : ... .. . ... ... : ... .. 5 ... ... : D#5 01 3 P7E ... : ... .. . ... ...
ROW DF : ... .. . ... ... ... : ... .. . ... ... ... : --- .. . ... : ... .. 7 ... : ... .. . ... ... : ... .. . ... ... : ... .. . P81 ... : ... .. . ... ...
ROW E0 : A#3 00 D ... V01 ... : D-4 00 D ... V01 ... : F#5 00 . ... : 9-# 00 D ... : ... .. . ... ... : A#4 01 8 ... ... : G-5 01 7 P80 ... : A#3 01 F ... ...
ROW E1 : ... .. C ... ... ... : ... .. C ... ... ... : G#4 00 . ... : ... .. . ... : ... .. . ... ... : ... .. 7 ... ... : ... .. 6 ... ... : ... .. D ... ...
ROW E2 : ... .. B ... ... ... : ... .. B ... ... ... : C#4 00 . ... : ... .. . ... : ... .. . ... ... : ... .. 6 ... ... : ... .. 5 ... ... : ... .. 8 ... ...
ROW E3 : ... .. 2 ... ... ... : ... .. 2 ... ... ... : C-4 00 . ... : ... .. B ... : ... .. . ... ... : ... .. 5 ... ... : ... .. . ... ... : ... .. . ... ...
ROW E4 : ... .. . ... ... ... : ... .. . ... ... ... : G-3 00 . ... : ... .. . ... : ... .. . ... ... : ... .. . ... ... : ... .. . ... ... : ... .. . ... ...
ROW E5 : ... .. D ... ... ... : ... .. D ... ... ... : ... .. . ... : ... .. A ... : ... .. . ... ... : G-4 01 8 ... ... : ... .. 4 ... ... : A-3 01 F ... ...
ROW E6 : ... .. C ... ... ... : ... .. C ... ... ... : ... .. . ... : ... .. . ... : ... .. . ... ... : ... .. 7 ... ... : ... .. . ... ... : ... .. D ... ...
ROW E7 : ... .. B ... ... ... : ... .. B ... ... ... : ... .. . ... : ... .. . ... : ... .. . ... ... : ... .. 6 ... ... : ... .. 3 ... ... : ... .. 8 ... ...
ROW E8 : ... .. 2 ... ... ... : ... .. 2 ... ... ... : F-3 00 . P83 : ... .. 9 ... : ... .. . ... ... : ... .. 5 ... ... : ... .. 4 ... ... : ... .. . ... ...
ROW E9 : ... .. . ... ... ... : ... .. . ... ... ... : E-3 00 . P76 : ... .. . ... : ... .. . ... ... : ... .. . ... ... : ... .. . ... ... : ... .. . ... ...
ROW EA : ... .. D ... ... ... : ... .. D ... ... ... : D-3 00 . P80 : ... .. 7 ... : ... .. . ... ... : D-4 01 8 ... ... : ... .. . ... ... : G-3 01 F ... ...
ROW EB : ... .. C ... ... ... : ... .. C ... ... ... : C#3 00 . P77 : ... .. . ... : ... .. . ... ... : ... .. 7 ... ... : ... .. . ... ... : ... .. D ... ...
ROW EC : ... .. B ... ... ... : ... .. B ... ... ... : B-2 00 . P88 : ... .. . ... : ... .. . ... ... : ... .. 6 ... ... : ... .. . ... ... : ... .. 8 ... ...
ROW ED : ... .. 2 ... ... ... : ... .. 2 ... ... ... : A#2 00 . P83 : ... .. 6 ... : ... .. . ... ... : ... .. 5 ... ... : ... .. . ... ... : ... .. . ... ...
ROW EE : ... .. . ... ... ... : ... .. . ... ... ... : A-2 00 . P7F : ... .. . ... : ... .. . ... ... : ... .. . ... ... : ... .. . ... ... : ... .. . ... ...
ROW EF : ... .. D ... ... ... : ... .. D ... ... ... : G#2 00 . P7E : ... .. 5 ... : ... .. . ... ... : A#3 01 8 ... ... : ... .. . ... ... : D-3 01 F ... ...
ROW F0 : ... .. C ... ... ... : ... .. C ... ... ... : G-2 00 . ... : ... .. . ... : ... .. . ... ... : ... .. 7 ... ... : ... .. . ... ... : ... .. D ... ...
ROW F1 : ... .. B ... ... ... : ... .. B ... ... ... : F#2 00 . P80 : ... .. . ... : ... .. . ... ... : ... .. 6 ... ... : ... .. . ... ... : ... .. 8 ... ...
ROW F2 : ... .. 2 ... ... ... : ... .. 2 ... ... ... : F-2 00 . P84 : ... .. 4 ... : ... .. . ... ... : ... .. 5 ... ... : ... .. . ... ... : ... .. . ... ...
ROW F3 : ... .. . ... ... ... : ... .. . ... ... ... : --- .. . ... : ... .. . ... : ... .. . ... ... : ... .. . ... ... : ... .. . ... ... : ... .. . ... ...
ROW F4 : A-3 00 D ... V02 ... : C#4 00 D ... V02 ... : G-2 00 . P80 : 7-# 00 F ... : ... .. . ... ... : A-4 01 8 ... ... : G#5 01 4 ... ... : A#2 01 F ... ...
ROW F5 : ... .. C ... ... ... : ... .. C ... ... ... : ... .. . ... : ... .. C ... : ... .. . ... ... : ... .. 7 ... ... : A-5 01 4 P7F ... : ... .. D ... ...
ROW F6 : ... .. B ... ... ... : ... .. B ... ... ... : ... .. . ... : ... .. A ... : ... .. . ... ... : ... .. 6 ... ... : G#5 01 4 P81 ... : ... .. 8 ... ...
ROW F7 : ... .. 2 ... ... ... : ... .. 2 ... ... ... : ... .. . ... : ... .. 8 ... : ... .. . ... ... : ... .. 5 ... ... : G-5 01 4 P82 ... : ... .. . ... ...
ROW F8 : ... .. . ... ... ... : ... .. . ... ... ... : --- .. . ... : ... .. 7 ... : ... .. . ... ... : ... .. . ... ... : ... .. . P7E ... : ... .. . ... ...
ROW F9 : ... .. D ... ... ... : ... .. D ... ... ... : G-2 00 . ... : ... .. 0 ... : ... .. . ... ... : F#4 01 8 ... ... : F#5 01 5 P80 ... : G-2 01 F ... ...
ROW FA : ... .. C ... ... ... : ... .. C ... ... ... : ... .. . ... : B-# 00 6 ... : ... .. . ... ... : ... .. 7 ... ... : ... .. . P7F ... : ... .. D ... ...
ROW FB : ... .. B ... ... ... : ... .. B ... ... ... : ... .. . ... : ... .. 2 ... : ... .. . ... ... : ... .. 6 ... ... : ... .. . P81 ... : ... .. 8 ... ...
ROW FC : ... .. 2 ... ... ... : ... .. 2 ... ... ... : ... .. . ... : ... .. . ... : ... .. . ... ... : ... .. 5 ... ... : G-5 01 5 P80 ... : ... .. . ... ...
ROW FD : ... .. . ... ... ... : ... .. . ... ... ... : --- .. . ... : ... .. 0 ... : ... .. . ... ... : ... .. . ... ... : G#5 01 5 P7F ... : ... .. . ... ...
ROW FE : ... .. D ... ... ... : ... .. D ... ... ... : G-2 00 . ... : ... .. . ... : ... .. . ... ... : C#4 01 8 ... ... : A-5 01 5 ... ... : D-2 01 F ... ...
ROW FF : ... .. C ... ... ... : ... .. C ... ... ... : ... .. . ... : ... .. A ... : ... .. . ... ... : ... .. 7 ... ... : ... .. . ... ... : ... .. D ... ...

PATTERN 0C
ROW 00 : ... .. B ... ... ... : ... .. B ... ... ... : ... .. . ... : ... .. 4 ... : ... .. . ... ... : ... .. 6 ... ... : G-5 01 5 P82 ... : ... .. 8 ... ...
ROW 01 : ... .. 2 ... ... ... : ... .. 2 ... ... ... : ... .. . ... : ... .. . ... : ... .. . ... ... : ... .. 5 ... ... : ... .. . P7F ... : ... .. . ... ...
ROW 02 : ... .. . ... ... ... : ... .. . ... ... ... : --- .. . ... : ... .. 0 ... : ... .. . ... ... : ... .. . ... ... : F#5 01 5 P80 ... : ... .. . ... ...
ROW 03 : ... .. D ... ... ... : ... .. D ... ... ... : G-2 00 . ... : ... .. . ... : ... .. . ... ... : A-3 01 8 ... ... : ... .. . P7F ... : A#1 01 F ... ...
ROW 04 : ... .. C ... ... ... : ... .. C ... ... ... : ... .. . ... : ... .. 8 ... : ... .. . ... ... : ... .. 7 ... ... : ... .. . P81 ... : ... .. D ... ...
ROW 05 : ... .. B ... ... ... : ... .. B ... ... ... : ... .. . ... : ... .. 3 ... : ... .. . ... ... : ... .. 6 ... ... : G-5 01 5 P80 ... : ... .. 8 ... ...
ROW 06 : ... .. 2 ... ... ... : ... .. 2 ... ... ... : ... .. . ... : ... .. . ... : ... .. . ... ... : ... .. 5 ... ... : G#5 01 5 P7F ... : ... .. . ... ...
ROW 07 : ... .. . ... ... ... : ... .. . ... ... ... : --- .. . ... : ... .. 0 ... : ... .. . ... ... : ... .. . ... ... : A-5 01 5 ... ... : ... .. . ... ...
ROW 08 : A#3 00 D ... V00 ... : D-4 00 D ... V00 ... : F#4 00 . ... : 2-# 00 F ... : ... .. . ... ... : A#4 01 8 ... ... : A#5 01 A P80 ... : A#3 01 F ... ...
ROW 09 : ... .. C ... ... ... : ... .. C ... ... ... : G#3 00 . ... : ... .. C ... : ... .. . ... ... : ... .. 7 ... ... : ... .. 9 ... ... : ... .. D ... ...
ROW 0A : ... .. B ... ... ... : ... .. B ... ... ... : C#3 00 . ... : ... .. 6 ... : ... .. . ... ... : ... .. 6 ... ... : ... .. 8 ... ... : ... .. 8 ... ...
ROW 0B : ... .. 2 ... ... ... : ... .. 2 ... ... ... : C-3 00 . ... : ... .. 3 ... : ... .. . ... ... : ... .. 5 ... ... : ... .. 7 ... ... : ... .. . ... ...
ROW 0C : ... .. . ... ... ... : ... .. . ... ... ... : G-2 00 . ... : ... .. 2 ... : ... .. . ... ... : ... .. . ... ... : ... .. . ... ... : ... .. . ... ...
ROW 0D : ... .. D ... ... ... : ... .. D ... ... ... : ... .. . ... : ... .. 0 ... : ... .. . ... ... : G-4 01 8 ... ... : ... .. 6 ... ... : A-3 01 F ... ...
ROW 0E : ... .. C ... ... ... : ... .. C ... ... ... : ... .. . ... : B-# 00 8 ... : ... .. . ... ... : ... .. 7 ... ... : ... .. . ... ... : ... .. D ... ...
ROW 0F : ... .. B ... ... ... : ... .. B ... ... ... : ... .. . ... : ... .. 3 ... : ... .. . ... ... : ... .. 6 ... ... : ... .. 5 ... ... : ... .. 8 ... ...
ROW 10 : ... .. 2 ... ... ... : ... .. 2 ... ... ... : ... .. . ... : ... .. . ... : ... .. . ... ... : ... .. 5 ... ... : ... .. . ... ... : ... .. . ... ...
ROW 11 : ... .. . ... ... ... : ... .. . ... ... ... : --- .. . ... : ... .. 0 ... : ... .. . ... ... : ... .. . ... ... : ... .. . ... ... : ... .. . ... ...
ROW 12 : ... .. D ... ... ... : ... .. D ... ... ... : G#4 00 . ... : 2-# 00 F ... : ... .. . ... ... : D-4 01 8 ... ... : ... .. . ... ... : G-3 01 F ... ...
ROW 13 : ... .. C ... ... ... : ... .. C ... ... ... : A#3 00 . ... : ... .. C ... : ... .. . ... ... : ... .. 7 ... ... : ... .. . ... ... : ... .. D ... ...
ROW 14 : ... .. B ... ... ... : ... .. B ... ... ... : D#3 00 . ... : ... .. 6 ... : ... .. . ... ... : ... .. 6 ... ... : ... .. . ... ... : ... .. 8 ... ...
ROW 15 : ... .. 2 ... ... ... : ... .. 2 ... ... ... : D-3 00 . ... : ... .. 3 ... : ... .. . ... ... : ... .. 5 ... ... : ... .. . ... ... : ... .. . ... ...
ROW 16 : ... .. . ... ... ... : ... .. . ... ... ... : A-2 00 . ... : ... .. 2 ... : ... .. . ... ... : ... .. . ... ... : ... .. . ... ... : ... .. . ... ...
ROW 17 : ... .. D ... ... ... : ... .. D ... ... ... : ... .. . ... : ... .. 0 ... : ... .. . ... ... : A#3 01 8 ... ... : ... .. . ... ... : D-3 01 F ... ...
ROW 18 : ... .. C ... ... ... : ... .. C ... ... ... : ... .. . ... : B-# 00 8 ... : ... .. . ... ... : ... .. 7 ... ... : ... .. . ... ... : ... .. D ... ...
ROW 19 : ... .. B ... ... ... : ... .. B ... ... ... : ... .. . ... : ... .. 3 ... : ... .. . ... ... : ... .. 6 ... ... : ... .. . ... ... : ... .. 8 ... ...
ROW 1A : ... .. 2 ... ... ... : ... .. 2 ... ... ... : ... .. . ... : ... .. . ... : ... .. . ... ... : ... .. 5 ... ... : ... .. 4 ... ... : ... .. . ... ...
ROW 1B : ... .. . ... ... ... : ... .. . ... ... ... : --- .. . ... : ... .. 0 ... : ... .. . ... ... : ... .. . ... ... : ... .. . ... ... : ... .. . ... ...
ROW 1C : G-3 00 D ... V01 ... : A#3 00 D ... V01 ... : A-4 00 . ... : 7-# 00 F ... : ... .. . ... ... : G-4 01 8 ... ... : B-5 01 4 P81 ... : A#2 01 F ... ...
ROW 1D : ... .. C ... ... ... : ... .. C ... ... ... : B-3 00 . ... : ... .. C ... : ... .. . ... ... : ... .. 7 ... ... : C-6 01 4 P7F ... : ... .. D ... ...
ROW 1E : ... .. B ... ... ... : ... .. B ... ... ... : E-3 00 . ... : ... .. A ... : ... .. . ... ... : ... .. 6 ... ... : B-5 01 4 P82 ... : ... .. 8 ... ...
ROW 1F : ... .. 2 ... ... ... : ... .. 2 ... ... ... : D#3 00 . ... : ... .. 8 ... : ... .. . ... ... : ... .. 5 ... ... : ... .. . P7F ... : ... .. . ... ...
ROW 20 : ... .. . ... ... ... : ... .. . ... ... ... : A#2 00 . ... : ... .. 7 ... : ... .. . ... ... : ... .. . ... ... : A-5 01 4 P82 ... : ... .. . ... ...
ROW 21 : ... .. D ... ... ... : ... .. D ... ... ... : ... .. . ... : ... .. 0 ... : ... .. . ... ... : D-4 01 8 ... ... : ... .. . P7F ... : G-2 01 F ... ...
ROW 22 : ... .. C ... ... ... : ... .. C ... ... ... : ... .. . ... : B-# 00 6 ... : ... .. . ... ... : ... .. 7 ... ... : G#5 01 4 P81 ... : ... .. D ... ...
ROW 23 : ... .. B ... ... ... : ... .. B ... ... ... : ... .. . ... : ... .. 2 ... : ... .. . ... ... : ... .. 6 ... ... : A-5 01 4 P80 ... : ... .. 8 ... ...
ROW 24 : ... .. 2 ... ... ... : ... .. 2 ... ... ... : ... .. . ... : ... .. . ... : ... .. . ... ... : ... .. 5 ... ... : A#5 01 4 ... ... : ... .. . ... ...
ROW 25 : ... .. . ... ... ... : ... .. . ... ... ... : --- .. . ... : ... .. 0 ... : ... .. . ... ... : ... .. . ... ... : B-5 01 4 ... ... : ... .. . ... ...
ROW 26 : ... .. D ... ... ... : ... .. D ... ... ... : F#4 00 . ... : ... .. . ... : ... .. . ... ... : A#3 01 8 ... ... : C-6 01 4 P7F ... : D-2 01 F ... ...
ROW 27 : ... .. C ... ... ... : ... .. C ... ... ... : G#3 00 . ... : ... .. A ... : ... .. . ... ... : ... .. 7 ... ... : ... .. . ... ... : ... .. D ... ...
ROW 28 : ... .. B ... ... ... : ... .. B ... ... ... : C#3 00 . ... : ... .. 4 ... : ... .. . ... ... : ... .. 6 ... ... : B-5 01 4 ... ... : ... .. 8 ... ...
ROW 29 : ... .. 2 ... ... ... : ... .. 2 ... ... ... : C-3 00 . ... : ... .. . ... : ... .. . ... ... : ... .. 5 ... ... : A#5 01 4 ... ... : ... .. . ... ...
ROW 2A : ... .. . ... ... ... : ... .. . ... ... ... : G-2 00 . ... : ... .. 0 ... : ... .. . ... ... : ... .. . ... ... : A-5 01 4 ... ... : ... .. . ... ...
ROW 2B : ... .. D ... ... ... : ... .. D ... ... ... : ... .. . ... : ... .. . ... : ... .. . ... ... : G-3 01 8 ... ... : G#5 01 3 P81 ... : A#1 01 F ... ...
ROW 2C : ... .. C ... ... ... : ... .. C ... ... ... : ... .. . ... : ... .. 8 ... : ... .. . ... ... : ... .. 7 ... ... : A-5 01 3 P80 ... : ... .. D ... ...
ROW 2D : ... .. B ... ... ... : ... .. B ... ... ... : ... .. . ... : ... .. 3 ... : ... .. . ... ... : ... .. 6 ... ... : A#5 01 3 ... ... : ... .. 8 ... ...
ROW 2E : ... .. 2 ... ... ... : ... .. 2 ... ... ... : ... .. . ... : ... .. . ... : ... .. . ... ... : ... .. 5 ... ... : B-5 01 3 ... ... : ... .. . ... ...
ROW 2F : ... .. . ... ... ... : ... .. . ... ... ... : --- .. . ... : ... .. 0 ... : ... .. . ... ... : ... .. . ... ... : C-6 01 3 P7F ... : ... .. . ... ...
ROW 30 : A-3 00 D ... V02 ... : C#4 00 D ... V02 ... : G#5 00 . ... : 2-# 00 F ... : ... .. . ... ... : A-4 01 8 ... ... : A-5 01 7 P80 ... : A-3 01 F ... ...
ROW 31 : ... .. C ... ... ... : ... .. C ... ... ... : A#4 00 . ... : ... .. C ... : ... .. . ... ... : ... .. 7 ... ... : ... .. 6 ... ... : ... .. D ... ...
ROW 32 : ... .. B ... ... ... : ... .. B ... ... ... : D#4 00 . ... : ... .. 6 ... : ... .. . ... ... : ... .. 6 ... ... : ... .. 5 ... ... : ... .. 8 ... ...
ROW 33 : ... .. 2 ... ... ... : ... .. 2 ... ... ... : D-4 00 . ... : ... .. 3 ... : ... .. . ... ... : ... .. 5 ... ... : ... .. . ... ... : ... .. . ... ...
ROW 34 : ... .. . ... ... ... : ... .. . ... ... ... : A-3 00 . ... : ... .. 2 ... : ... .. . ... ... : ... .. . ... ... : ... .. . ... ... : ... .. . ... ...
ROW 35 : ... .. D ... ... ... : ... .. D ... ... ... : ... .. . ... : ... .. 0 ... : ... .. . ... ... : E-4 01 8 ... ... : ... .. 4 ... ... : G-3 01 F ... ...
ROW 36 : ... .. C ... ... ... : ... .. C ... ... ... : ... .. . ... : B-# 00 8 ... : ... .. . ... ... : ... .. 7 ... ... : ... .. . ... ... : ... .. D ... ...
ROW 37 : ... .. B ... ... ... : ... .. B ... ... ... : ... .. . ... : ... .. 3 ... : ... .. . ... ... : ... .. 6 ... ... : ... .. 3 ... ... : ... .. 8 ... ...
ROW 38 : ... .. 2 ... ... ... : ... .. 2 ... ... ... : ... .. . ... : ... .. . ... : ... .. . ... ... : ... .. 5 ... ... : ... .. 4 ... ... : ... .. . ... ...
ROW 39 : ... .. . ... ... ... : ... .. . ... ... ... : ... .. . ... : ... .. 0 ... : ... .. . ... ... : ... .. . ... ... : ... .. . ... ... : ... .. . ... ...
ROW 3A : ... .. D ... ... ... : ... .. D ... ... ... : G-3 00 . P7F : 2-# 00 F ... : ... .. . ... ... : C#4 01 8 ... ... : ... .. . ... ... : E-3 01 F ... ...
ROW 3B : ... .. C ... ... ... : ... .. C ... ... ... : F-3 00 . P82 : ... .. C ... : ... .. . ... ... : ... .. 7 ... ... : ... .. . ... ... : ... .. D ... ...
ROW 3C : ... .. B ... ... ... : ... .. B ... ... ... : D#3 00 . P8A : ... .. 6 ... : ... .. . ... ... : ... .. 6 ... ... : ... .. . ... ... : ... .. 8 ... ...
ROW 3D : ... .. 2 ... ... ... : ... .. 2 ... ... ... : D-3 00 . P7F : ... .. 3 ... : ... .. . ... ... : ... .. 5 ... ... : ... .. . ... ... : ... .. . ... ...
ROW 3E : ... .. . ... ... ... : ... .. . ... ... ... : C#3 00 . P76 : ... .. 2 ... : ... .. . ... ... : ... .. . ... ... : ... .. . ... ... : ... .. . ... ...
ROW 3F : ... .. D ... ... ... : ... .. D ... ... ... : B-2 00 . P87 : ... .. 0 ... : ... .. . ... ... : A-3 01 8 ... ... : ... .. . ... ... : C#3 01 F ... ...
ROW 40 : ... .. C ... ... ... : ... .. C ... ... ... : A#2 00 . P82 : B-# 00 8 ... : ... .. . ... ... : ... .. 7 ... ... : ... .. . ... ... : ... .. D ... ...
ROW 41 : ... .. B ... ... ... : ... .. B ... ... ... : A-2 00 . P7E : ... .. 3 ... : ... .. . ... ... : ... .. 6 ... ... : ... .. . ... ... : ... .. 8 ... ...
ROW 42 : ... .. 2 ... ... ... : ... .. 2 ... ... ... : G#2 00 . P7D : ... .. . ... : ... .. . ... ... : ... .. 5 ... ... : ... .. . ... ... : ... .. . ... ...
ROW 43 : ... .. . ... ... ... : ... .. . ... ... ... : --- .. . ... : ... .. 0 ... : ... .. . ... ... : ... .. . ... ... : ... .. . ... ... : ... .. . ... ...
ROW 44 : G#3 00 D ... V03 ... : C-4 00 D ... V03 ... : G-3 00 . P80 : 7-# 00 F ... : ... .. . ... ... : G#4 01 8 ... ... : A#5 01 4 ... ... : A-2 01 F ... ...
ROW 45 : ... .. C ... ... ... : ... .. C ... ... ... : ... .. . ... : ... .. C ... : ... .. . ... ... : ... .. 7 ... ... : B-5 01 4 P7F ... : ... .. D ... ...
ROW 46 : ... .. B ... ... ... : ... .. B ... ... ... : ... .. . ... : ... .. A ... : ... .. . ... ... : ... .. 6 ... ... : A#5 01 4 P81 ... : ... .. 8 ... ...
ROW 47 : ... .. 2 ... ... ... : ... .. 2 ... ... ... : ... .. . ... : ... .. 8 ... : ... .. . ... ... : ... .. 5 ... ... : A-5 01 4 P82 ... : ... .. . ... ...
ROW 48 : ... .. . ... ... ... : ... .. . ... ... ... : --- .. . ... : ... .. 7 ... : ... .. . ... ... : ... .. . ... ... : G#5 01 4 P81 ... : ... .. . ... ...
ROW 49 : ... .. D ... ... ... : ... .. D ... ... ... : G-3 00 . ... : ... .. 0 ... : ... .. . ... ... : D#4 01 8 ... ... : G-5 01 5 P82 ... : G-2 01 F ... ...
ROW 4A : ... .. C ... ... ... : ... .. C ... ... ... : ... .. . ... : B-# 00 6 ... : ... .. . ... ... : ... .. 7 ... ... : ... .. . P81 ... : ... .. D ... ...
ROW 4B : ... .. B ... ... ... : ... .. B ... ... ... : ... .. . ... : ... .. 2 ... : ... .. . ... ... : ... .. 6 ... ... : G#5 01 5 P7F ... : ... .. 8 ... ...
ROW 4C : ... .. 2 ... ... ... : ... .. 2 ... ... ... : ... .. . ... : ... .. . ... : ... .. . ... ... : ... .. 5 ... ... : A-5 01 5 P80 ... : ... .. . ... ...
ROW 4D : ... .. . ... ... ... : ... .. . ... ... ... : --- .. . ... : ... .. 0 ... : ... .. . ... ... : ... .. . ... ... : A#5 01 5 P7F ... : ... .. . ... ...
ROW 4E : ... .. D ... ... ... : ... .. D ... ... ... : G-3 00 . ... : ... .. . ... : ... .. . ... ... : C-4 01 8 ... ... : B-5 01 5 ... ... : E-2 01 F ... ...
ROW 4F : ... .. C ... ... ... : ... .. C ... ... ... : ... .. . ... : ... .. A ... : ... .. . ... ... : ... .. 7 ... ... : ... .. . ... ... : ... .. D ... ...
ROW 50 : ... .. B ... ... ... : ... .. B ... ... ... : ... .. . ... : ... .. 4 ... : ... .. . ... ... : ... .. 6 ... ... : A-5 01 5 P82 ... : ... .. 8 ... ...
ROW 51 : ... .. 2 ... ... ... : ... .. 2 ... ... ... : ... .. . ... : ... .. . ... : ... .. . ... ... : ... .. 5 ... ... : ... .. . P7F ... : ... .. . ... ...
ROW 52 : ... .. . ... ... ... : ... .. . ... ... ... : --- .. . ... : ... .. 0 ... : ... .. . ... ... : ... .. . ... ... : G-5 01 5 P82 ... : ... .. . ... ...
ROW 53 : ... .. D ... ... ... : ... .. D ... ... ... : G-3 00 . ... : ... .. . ... : ... .. . ... ... : G#3 01 8 ... ... : ... .. . P81 ... : C#2 01 F ... ...
ROW 54 : ... .. C ... ... ... : ... .. C ... ... ... : ... .. . ... : ... .. 8 ... : ... .. . ... ... : ... .. 7 ... ... : G#5 01 5 P7F ... : ... .. D ... ...
ROW 55 : ... .. B ... ... ... : ... .. B ... ... ... : ... .. . ... : ... .. 3 ... : ... .. . ... ... : ... .. 6 ... ... : A-5 01 5 P80 ... : ... .. 8 ... ...
ROW 56 : ... .. 2 ... ... ... : ... .. 2 ... ... ... : ... .. . ... : ... .. . ... : ... .. . ... ... : ... .. 5 ... ... : A#5 01 5 P7F ... : ... .. . ... ...
ROW 57 : ... .. . ... ... ... : ... .. . ... ... ... : --- .. . ... : ... .. 0 ... : ... .. . ... ... : ... .. . ... ... : B-5 01 5 ... ... : ... .. . ... ...
ROW 58 : A-3 00 D ... V01 ... : C#4 00 D ... V01 ... : G#4 00 . ... : 2-# 00 F ... : ... .. . ... ... : A-4 01 8 ... ... : E-5 01 A P80 ... : A-3 01 F ... ...
ROW 59 : ... .. C ... ... ... : ... .. C ... ... ... : A#3 00 . ... : ... .. C ... : ... .. . ... ... : ... .. 7 ... ... : ... .. 9 ... ... : ... .. D ... ...
ROW 5A : ... .. B ... ... ... : ... .. B ... ... ... : D#3 00 . ... : ... .. 6 ... : ... .. . ... ... : ... .. 6 ... ... : ... .. 8 ... ... : ... .. 8 ... ...
ROW 5B : ... .. 2 ... ... ... : ... .. 2 ... ... ... : D-3 00 . ... : ... .. 3 ... : ... .. . ... ... : ... .. 5 ... ... : ... .. 7 ... ... : ... .. . ... ...
ROW 5C : ... .. . ... ... ... : ... .. . ... ... ... : A-2 00 . ... : ... .. 2 ... : ... .. . ... ... : ... .. . ... ... : ... .. . ... ... : ... .. . ... ...
ROW 5D : ... .. D ... ... ... : ... .. D ... ... ... : ... .. . ... : ... .. 0 ... : ... .. . ... ... : E-4 01 8 ... ... : ... .. 6 ... ... : G-3 01 F ... ...
ROW 5E : ... .. C ... ... ... : ... .. C ... ... ... : ... .. . ... : B-# 00 8 ... : ... .. . ... ... : ... .. 7 ... ... : ... .. . ... ... : ... .. D ... ...
ROW 5F : ... .. B ... ... ... : ... .. B ... ... ... : ... .. . ... : ... .. 3 ... : ... .. . ... ... : ... .. 6 ... ... : ... .. 5 ... ... : ... .. 8 ... ...
ROW 60 : ... .. 2 ... ... ... : ... .. 2 ... ... ... : ... .. . ... : ... .. . ... : ... .. . ... ... : ... .. 5 ... ... : ... .. . ... ... : ... .. . ... ...
ROW 61 : ... .. . ... ... ... : ... .. . ... ... ... : --- .. . ... : ... .. 0 ... : ... .. . ... ... : ... .. . ... ... : ... .. . ... ... : ... .. . ... ...
ROW 62 : ... .. D ... ... ... : ... .. D ... ... ... : G#4 00 . ... : C-# 00 8 ... : ... .. . ... ... : C#4 01 8 ... ... : ... .. . ... ... : E-3 01 F ... ...
ROW 63 : ... .. C ... ... ... : ... .. C ... ... ... : A#3 00 . ... : ... .. 7 ... : ... .. . ... ... : ... .. 7 ... ... : ... .. . ... ... : ... .. D ... ...
ROW 64 : ... .. B ... ... ... : ... .. B ... ... ... : D#3 00 . ... : ... .. . ... : ... .. . ... ... : ... .. 6 ... ... : ... .. . ... ... : ... .. 8 ... ...
ROW 65 : ... .. 2 ... ... ... : ... .. 2 ... ... ... : D-3 00 . ... : ... .. 6 ... : ... .. . ... ... : ... .. 5 ... ... : ... .. . ... ... : ... .. . ... ...
ROW 66 : ... .. . ... ... ... : ... .. . ... ... ... : A-2 00 . ... : ... .. 5 ... : ... .. . ... ... : ... .. . ... ... : ... .. . ... ... : ... .. . ... ...
ROW 67 : ... .. D ... ... ... : ... .. D ... ... ... : ... .. . ... : ... .. 4 ... : ... .. . ... ... : A-3 01 8 ... ... : ... .. . ... ... : C#3 01 F ... ...
ROW 68 : ... .. C ... ... ... : ... .. C ... ... ... : ... .. . ... : ... .. . ... : ... .. . ... ... : ... .. 7 ... ... : ... .. . ... ... : ... .. D ... ...
ROW 69 : ... .. B ... ... ... : ... .. B ... ... ... : ... .. . ... : ... .. . ... : ... .. . ... ... : ... .. 6 ... ... : ... .. . ... ... : ... .. 8 ... ...
ROW 6A : ... .. 2 ... ... ... : ... .. 2 ... ... ... : ... .. . ... : ... .. 3 ... : ... .. . ... ... : ... .. 5 ... ... : ... .. 4 ... ... : ... .. . ... ...
ROW 6B : ... .. . ... ... ... : ... .. . ... ... ... : --- .. . ... : ... .. . ... : ... .. . ... ... : ... .. . ... ... : ... .. . ... ... : ... .. . ... ...
ROW 6C : ... .. D ... V00 ... : ... .. D ... V00 ... : A-3 00 . ... : 7-# 00 F ... : ... .. . ... ... : E-3 01 8 ... ... : F-5 01 4 P7F ... : A-2 01 F ... ...
ROW 6D : ... .. C ... ... ... : ... .. C ... ... ... : ... .. . ... : ... .. C ... : ... .. . ... ... : ... .. 7 ... ... : ... .. . P81 ... : ... .. D ... ...
ROW 6E : ... .. B ... ... ... : ... .. B ... ... ... : ... .. . ... : ... .. A ... : ... .. . ... ... : ... .. 6 ... ... : ... .. . P80 ... : ... .. 8 ... ...
ROW 6F : ... .. 2 ... ... ... : ... .. 2 ... ... ... : ... .. . ... : ... .. 8 ... : ... .. . ... ... : ... .. 5 ... ... : E-5 01 4 P82 ... : ... .. . ... ...
ROW 70 : ... .. . ... ... ... : ... .. . ... ... ... : --- .. . ... : ... .. 7 ... : ... .. . ... ... : ... .. . ... ... : ... .. . P7E ... : ... .. . ... ...
ROW 71 : ... .. D ... ... ... : ... .. D ... ... ... : A-3 00 . ... : ... .. 0 ... : ... .. . ... ... : A-3 01 8 ... ... : D#5 01 4 P80 ... : G-2 01 F ... ...
ROW 72 : ... .. C ... ... ... : ... .. C ... ... ... : ... .. . ... : B-# 00 6 ... : ... .. . ... ... : ... .. 7 ... ... : ... .. . P7F ... : ... .. D ... ...
ROW 73 : ... .. B ... ... ... : ... .. B ... ... ... : ... .. . ... : ... .. 2 ... : ... .. . ... ... : ... .. 6 ... ... : ... .. . P81 ... : ... .. 8 ... ...
ROW 74 : ... .. 2 ... ... ... : ... .. 2 ... ... ... : ... .. . ... : ... .. . ... : ... .. . ... ... : ... .. 5 ... ... : E-5 01 4 P80 ... : ... .. . ... ...
ROW 75 : ... .. . ... ... ... : ... .. . ... ... ... : --- .. . ... : ... .. 0 ... : ... .. . ... ... : ... .. . ... ... : F-5 01 4 P7E ... : ... .. . ... ...
ROW 76 : ... .. D ... ... ... : ... .. D ... ... ... : A-3 00 . ... : ... .. . ... : ... .. . ... ... : ... .. 8 ... ... : ... .. . P81 ... : E-2 01 F ... ...
ROW 77 : ... .. C ... ... ... : ... .. C ... ... ... : ... .. . ... : ... .. A ... : ... .. . ... ... : ... .. 7 ... ... : ... .. . ... ... : ... .. D ... ...
ROW 78 : ... .. B ... ... ... : ... .. B ... ... ... : ... .. . ... : ... .. 4 ... : ... .. . ... ... : ... .. 6 ... ... : E-5 01 4 P82 ... : ... .. 8 ... ...
ROW 79 : ... .. 2 ... ... ... : ... .. 2 ... ... ... : ... .. . ... : ... .. . ... : ... .. . ... ... : ... .. 5 ... ... : ... .. . P7F ... : ... .. . ... ...
ROW 7A : ... .. . ... ... ... : ... .. . ... ... ... : --- .. . ... : ... .. 0 ... : ... .. . ... ... : ... .. . ... ... : D#5 01 4 P80 ... : ... .. . ... ...
ROW 7B : ... .. D ... ... ... : ... .. D ... ... ... : A-3 00 . ... : ... .. . ... : ... .. . ... ... : C#4 01 8 ... ... : ... .. 3 P7F ... : C#2 01 F ... ...
ROW 7C : ... .. C ... ... ... : ... .. C ... ... ... : ... .. . ... : ... .. 8 ... : ... .. . ... ... : ... .. 7 ... ... : ... .. . P81 ... : ... .. D ... ...
ROW 7D : ... .. B ... ... ... : ... .. B ... ... ... : ... .. . ... : ... .. 3 ... : ... .. . ... ... : ... .. 6 ... ... : E-5 01 3 P80 ... : ... .. 8 ... ...
ROW 7E : ... .. 2 ... ... ... : ... .. 2 ... ... ... : ... .. . ... : ... .. . ... : ... .. . ... ... : ... .. 5 ... ... : F-5 01 3 P7E ... : ... .. . ... ...
ROW 7F : ... .. . ... ... ... : ... .. . ... ... ... : --- .. . ... : ... .. 0 ... : ... .. . ... ... : ... .. . ... ... : ... .. . P81 ... : ... .. . ... ...
ROW 80 : G#3 00 D ... V01 ... : C-4 00 D ... V01 ... : G-4 00 . ... : ... .. . ... : ... .. . ... ... : C-4 01 8 ... ... : D#5 01 7 P80 ... : G#3 01 F ... ...
ROW 81 : ... .. C ... ... ... : ... .. C ... ... ... : A-3 00 . ... : 2-# 00 F ... : ... .. . ... ... : ... .. 7 ... ... : ... .. 6 ... ... : ... .. D ... ...
ROW 82 : ... .. B ... ... ... : ... .. B ... ... ... : D-3 00 . ... : ... .. 6 ... : ... .. . ... ... : ... .. 6 ... ... : ... .. 5 ... ... : ... .. 8 ... ...
ROW 83 : ... .. 2 ... ... ... : ... .. 2 ... ... ... : C#3 00 . ... : ... .. . ... : ... .. . ... ... : ... .. 5 ... ... : ... .. . ... ... : ... .. . ... ...
ROW 84 : ... .. . ... ... ... : ... .. . ... ... ... : G#2 00 . ... : ... .. 0 ... : ... .. . ... ... : ... .. . ... ... : ... .. . ... ... : ... .. . ... ...
ROW 85 : ... .. D ... ... ... : ... .. D ... ... ... : ... .. . ... : ... .. . ... : ... .. . ... ... : G#3 01 8 ... ... : ... .. 4 ... ... : D#3 01 F ... ...
ROW 86 : ... .. C ... ... ... : ... .. C ... ... ... : ... .. . ... : B-# 00 6 ... : ... .. . ... ... : ... .. 7 ... ... : ... .. . ... ... : ... .. D ... ...
ROW 87 : ... .. B ... ... ... : ... .. B ... ... ... : ... .. . ... : ... .. 2 ... : ... .. . ... ... : ... .. 6 ... ... : ... .. 3 ... ... : ... .. 8 ... ...
ROW 88 : ... .. 2 ... ... ... : ... .. 2 ... ... ... : ... .. . ... : ... .. . ... : ... .. . ... ... : ... .. 5 ... ... : ... .. 4 ... ... : ... .. . ... ...
ROW 89 : ... .. . ... ... ... : ... .. . ... ... ... : --- .. . ... : ... .. 0 ... : ... .. . ... ... : ... .. . ... ... : ... .. . ... ... : ... .. . ... ...
ROW 8A : ... .. D ... ... ... : ... .. D ... ... ... : G-4 00 . ... : ... .. . ... : ... .. . ... ... : D#3 01 8 ... ... : ... .. . ... ... : C-3 01 F ... ...
ROW 8B : ... .. C ... ... ... : ... .. C ... ... ... : A-3 00 . ... : ... .. A ... : ... .. . ... ... : ... .. 7 ... ... : ... .. . ... ... : ... .. D ... ...
ROW 8C : ... .. B ... ... ... : ... .. B ... ... ... : D-3 00 . ... : ... .. 4 ... : ... .. . ... ... : ... .. 6 ... ... : ... .. . ... ... : ... .. 8 ... ...
ROW 8D : ... .. 2 ... ... ... : ... .. 2 ... ... ... : C#3 00 . ... : ... .. . ... : ... .. . ... ... : ... .. 5 ... ... : ... .. . ... ... : ... .. . ... ...
ROW 8E : ... .. . ... ... ... : ... .. . ... ... ... : G#2 00 . ... : ... .. 0 ... : ... .. . ... ... : ... .. . ... ... : ... .. . ... ... : ... .. . ... ...
ROW 8F : ... .. D ... ... ... : ... .. D ... ... ... : ... .. . ... : ... .. . ... : ... .. . ... ... : C-3 01 8 ... ... : ... .. . ... ... : G#2 01 F ... ...
ROW 90 : ... .. C ... ... ... : ... .. C ... ... ... : ... .. . ... : ... .. 8 ... : ... .. . ... ... : ... .. 7 ... ... : ... .. . ... ... : ... .. D ... ...
ROW 91 : ... .. B ... ... ... : ... .. B ... ... ... : ... .. . ... : ... .. 3 ... : ... .. . ... ... : ... .. 6 ... ... : ... .. . ... ... : ... .. 8 ... ...
ROW 92 : ... .. 2 ... ... ... : ... .. 2 ... ... ... : ... .. . ... : ... .. . ... : ... .. . ... ... : ... .. 5 ... ... : ... .. . ... ... : ... .. . ... ...
ROW 93 : ... .. . ... ... ... : ... .. . ... ... ... : --- .. . ... : ... .. 0 ... : ... .. . ... ... : ... .. . ... ... : ... .. . ... ... : ... .. . ... ...
ROW 94 : ... .. D ... V02 ... : ... .. D ... V02 ... : F#3 00 . ... : 7-# 00 F ... : ... .. . ... ... : D#4 01 8 ... ... : E-5 01 4 P7F ... : D#2 01 F ... ...
ROW 95 : ... .. C ... ... ... : ... .. C ... ... ... : ... .. . ... : ... .. C ... : ... .. . ... ... : ... .. 7 ... ... : ... .. . P81 ... : ... .. D ... ...
ROW 96 : ... .. B ... ... ... : ... .. B ... ... ... : ... .. . ... : ... .. A ... : ... .. . ... ... : ... .. 6 ... ... : ... .. . P80 ... : ... .. 8 ... ...
ROW 97 : ... .. 2 ... ... ... : ... .. 2 ... ... ... : ... .. . ... : ... .. 8 ... : ... .. . ... ... : ... .. 5 ... ... : D#5 01 4 P82 ... : ... .. . ... ...
ROW 98 : ... .. . ... ... ... : ... .. . ... ... ... : --- .. . ... : ... .. 7 ... : ... .. . ... ... : ... .. . ... ... : ... .. . P7E ... : ... .. . ... ...
ROW 99 : ... .. D ... ... ... : ... .. D ... ... ... : F#3 00 . ... : ... .. 0 ... : ... .. . ... ... : C-4 01 8 ... ... : D-5 01 5 P80 ... : C-2 01 F ... ...
ROW 9A : ... .. C ... ... ... : ... .. C ... ... ... : ... .. . ... : B-# 00 6 ... : ... .. . ... ... : ... .. 7 ... ... : ... .. . P7F ... : ... .. D ... ...
ROW 9B : ... .. B ... ... ... : ... .. B ... ... ... : ... .. . ... : ... .. 2 ... : ... .. . ... ... : ... .. 6 ... ... : ... .. . P81 ... : ... .. 8 ... ...
ROW 9C : ... .. 2 ... ... ... : ... .. 2 ... ... ... : ... .. . ... : ... .. . ... : ... .. . ... ... : ... .. 5 ... ... : D#5 01 5 P80 ... : ... .. . ... ...
ROW 9D : ... .. . ... ... ... : ... .. . ... ... ... : --- .. . ... : ... .. 0 ... : ... .. . ... ... : ... .. . ... ... : E-5 01 5 P7E ... : ... .. . ... ...
ROW 9E : ... .. D ... ... ... : ... .. D ... ... ... : F#3 00 . ... : ... .. . ... : ... .. . ... ... : G#3 01 8 ... ... : ... .. . P81 ... : G#1 01 F ... ...
ROW 9F : ... .. C ... ... ... : ... .. C ... ... ... : ... .. . ... : ... .. A ... : ... .. . ... ... : ... .. 7 ... ... : ... .. . ... ... : ... .. D ... ...
ROW A0 : ... .. B ... ... ... : ... .. B ... ... ... : ... .. . ... : ... .. 4 ... : ... .. . ... ... : ... .. 6 ... ... : D#5 01 5 P82 ... : ... .. 8 ... ...
ROW A1 : ... .. 2 ... ... ... : ... .. 2 ... ... ... : ... .. . ... : ... .. . ... : ... .. . ... ... : ... .. 5 ... ... : ... .. . P7F ... : ... .. . ... ...
ROW A2 : ... .. . ... ... ... : ... .. . ... ... ... : --- .. . ... : ... .. 0 ... : ... .. . ... ... : ... .. . ... ... : D-5 01 5 P80 ... : ... .. . ... ...
ROW A3 : ... .. D ... ... ... : ... .. D ... ... ... : F#3 00 . ... : ... .. . ... : ... .. . ... ... : D#3 01 8 ... ... : ... .. . P7F ... : D#1 01 F ... ...
ROW A4 : ... .. C ... ... ... : ... .. C ... ... ... : ... .. . ... : ... .. 8 ... : ... .. . ... ... : ... .. 7 ... ... : ... .. . P81 ... : ... .. D ... ...
ROW A5 : ... .. B ... ... ... : ... .. B ... ... ... : ... .. . ... : ... .. 3 ... : ... .. . ... ... : ... .. 6 ... ... : D#5 01 5 P80 ... : ... .. 8 ... ...
ROW A6 : ... .. 2 ... ... ... : ... .. 2 ... ... ... : ... .. . ... : ... .. . ... : ... .. . ... ... : ... .. 5 ... ... : E-5 01 5 P7E ... : ... .. . ... ...
ROW A7 : ... .. . ... ... ... : ... .. . ... ... ... : --- .. . ... : ... .. 0 ... : ... .. . ... ... : ... .. . ... ... : ... .. . P81 ... : ... .. . ... ...
ROW A8 : C-4 00 D ... V00 ... : D#4 00 D ... V00 ... : G-4 00 . ... : 2-# 00 F ... : ... .. . ... ... : G#4 01 8 ... ... : G#5 01 A P80 ... : F#3 01 F ... ...
ROW A9 : ... .. C ... ... ... : ... .. C ... ... ... : A-3 00 . ... : ... .. C ... : ... .. . ... ... : ... .. 7 ... ... : ... .. 9 ... ... : ... .. D ... ...
ROW AA : ... .. B ... ... ... : ... .. B ... ... ... : D-3 00 . ... : ... .. 6 ... : ... .. . ... ... : ... .. 6 ... ... : ... .. 8 ... ... : ... .. 8 ... ...
ROW AB : ... .. 2 ... ... ... : ... .. 2 ... ... ... : C#3 00 . ... : ... .. 3 ... : ... .. . ... ... : ... .. 5 ... ... : ... .. 7 ... ... : ... .. . ... ...
ROW AC : ... .. . ... ... ... : ... .. . ... ... ... : G#2 00 . ... : ... .. 2 ... : ... .. . ... ... : ... .. . ... ... : ... .. . ... ... : ... .. . ... ...
ROW AD : ... .. D ... ... ... : ... .. D ... ... ... : ... .. . ... : ... .. 0 ... : ... .. . ... ... : D#4 01 8 ... ... : ... .. 6 ... ... : D#3 01 F ... ...
ROW AE : ... .. C ... ... ... : ... .. C ... ... ... : ... .. . ... : B-# 00 8 ... : ... .. . ... ... : ... .. 7 ... ... : ... .. . ... ... : ... .. D ... ...
ROW AF : ... .. B ... ... ... : ... .. B ... ... ... : ... .. . ... : ... .. 3 ... : ... .. . ... ... : ... .. 6 ... ... : ... .. 5 ... ... : ... .. 8 ... ...
ROW B0 : ... .. 2 ... ... ... : ... .. 2 ... ... ... : ... .. . ... : ... .. . ... : ... .. . ... ... : ... .. 5 ... ... : ... .. . ... ... : ... .. . ... ...
ROW B1 : ... .. . ... ... ... : ... .. . ... ... ... : --- .. . ... : ... .. 0 ... : ... .. . ... ... : ... .. . ... ... : ... .. . ... ... : ... .. . ... ...
ROW B2 : ... .. D ... ... ... : ... .. D ... ... ... : G-4 00 . ... : 2-# 00 F ... : ... .. . ... ... : C-4 01 8 ... ... : ... .. . ... ... : C-3 01 F ... ...
ROW B3 : ... .. C ... ... ... : ... .. C ... ... ... : A-3 00 . ... : ... .. C ... : ... .. . ... ... : ... .. 7 ... ... : ... .. . ... ... : ... .. D ... ...
ROW B4 : ... .. B ... ... ... : ... .. B ... ... ... : D-3 00 . ... : ... .. 6 ... : ... .. . ... ... : ... .. 6 ... ... : ... .. . ... ... : ... .. 8 ... ...
ROW B5 : ... .. 2 ... ... ... : ... .. 2 ... ... ... : C#3 00 . ... : ... .. 3 ... : ... .. . ... ... : ... .. 5 ... ... : ... .. . ... ... : ... .. . ... ...
ROW B6 : ... .. . ... ... ... : ... .. . ... ... ... : G#2 00 . ... : ... .. 2 ... : ... .. . ... ... : ... .. . ... ... : ... .. . ... ... : ... .. . ... ...
ROW B7 : ... .. D ... ... ... : ... .. D ... ... ... : ... .. . ... : ... .. 0 ... : ... .. . ... ... : G#3 01 8 ... ... : ... .. . ... ... : G#2 01 F ... ...
ROW B8 : ... .. C ... ... ... : ... .. C ... ... ... : ... .. . ... : B-# 00 8 ... : ... .. . ... ... : ... .. 7 ... ... : ... .. . ... ... : ... .. D ... ...
ROW B9 : ... .. B ... ... ... : ... .. B ... ... ... : ... .. . ... : ... .. 3 ... : ... .. . ... ... : ... .. 6 ... ... : ... .. . ... ... : ... .. 8 ... ...
ROW BA : ... .. 2 ... ... ... : ... .. 2 ... ... ... : ... .. . ... : ... .. . ... : ... .. . ... ... : ... .. 5 ... ... : ... .. 4 ... ... : ... .. . ... ...
ROW BB : ... .. . ... ... ... : ... .. . ... ... ... : --- .. . ... : ... .. 0 ... : ... .. . ... ... : ... .. . ... ... : ... .. . ... ... : ... .. . ... ...
ROW BC : ... .. D ... V01 ... : ... .. D ... V01 ... : D-4 00 . ... : 7-# 00 F ... : ... .. . ... ... : D#4 01 8 ... ... : A-5 01 4 P81 ... : F#2 01 F ... ...
ROW BD : ... .. C ... ... ... : ... .. C ... ... ... : ... .. . ... : ... .. C ... : ... .. . ... ... : ... .. 7 ... ... : A#5 01 4 P7F ... : ... .. D ... ...
ROW BE : ... .. B ... ... ... : ... .. B ... ... ... : ... .. . ... : ... .. A ... : ... .. . ... ... : ... .. 6 ... ... : A-5 01 4 P82 ... : ... .. 8 ... ...
ROW BF : ... .. 2 ... ... ... : ... .. 2 ... ... ... : ... .. . ... : ... .. 8 ... : ... .. . ... ... : ... .. 5 ... ... : ... .. . P7F ... : ... .. . ... ...
ROW C0 : ... .. . ... ... ... : ... .. . ... ... ... : --- .. . ... : ... .. 7 ... : ... .. . ... ... : ... .. . ... ... : G-5 01 4 P82 ... : ... .. . ... ...
ROW C1 : ... .. D ... ... ... : ... .. D ... ... ... : D-4 00 . ... : ... .. 0 ... : ... .. . ... ... : G#4 01 8 ... ... : ... .. . P7F ... : D#2 01 F ... ...
ROW C2 : ... .. C ... ... ... : ... .. C ... ... ... : ... .. . ... : B-# 00 6 ... : ... .. . ... ... : ... .. 7 ... ... : ... .. . P7E ... : ... .. D ... ...
ROW C3 : ... .. B ... ... ... : ... .. B ... ... ... : ... .. . ... : ... .. 2 ... : ... .. . ... ... : ... .. 6 ... ... : ... .. . P80 ... : ... .. 8 ... ...
ROW C4 : ... .. 2 ... ... ... : ... .. 2 ... ... ... : ... .. . ... : ... .. . ... : ... .. . ... ... : ... .. 5 ... ... : G#5 01 4 ... ... : ... .. . ... ...
ROW C5 : ... .. . ... ... ... : ... .. . ... ... ... : --- .. . ... : ... .. 0 ... : ... .. . ... ... : ... .. . ... ... : A-5 01 4 ... ... : ... .. . ... ...
ROW C6 : ... .. D ... ... ... : ... .. D ... ... ... : D-3 00 . ... : ... .. . ... : ... .. . ... ... : ... .. 8 ... ... : A#5 01 4 P7F ... : C-2 01 F ... ...
ROW C7 : ... .. C ... ... ... : ... .. C ... ... ... : ... .. . ... : ... .. A ... : ... .. . ... ... : ... .. 7 ... ... : ... .. . ... ... : ... .. D ... ...
ROW C8 : ... .. B ... ... ... : ... .. B ... ... ... : ... .. . ... : ... .. 4 ... : ... .. . ... ... : ... .. 6 ... ... : A-5 01 4 ... ... : ... .. 8 ... ...
ROW C9 : ... .. 2 ... ... ... : ... .. 2 ... ... ... : ... .. . ... : ... .. . ... : ... .. . ... ... : ... .. 5 ... ... : G#5 01 4 ... ... : ... .. . ... ...
ROW CA : ... .. . ... ... ... : ... .. . ... ... ... : --- .. . ... : ... .. 0 ... : ... .. . ... ... : ... .. . ... ... : G-5 01 4 ... ... : ... .. . ... ...
ROW CB : ... .. D ... ... ... : ... .. D ... ... ... : D-3 00 . ... : ... .. . ... : ... .. . ... ... : C-5 01 8 ... ... : ... .. 3 P7E ... : G#1 01 F ... ...
ROW CC : ... .. C ... ... ... : ... .. C ... ... ... : ... .. . ... : ... .. 8 ... : ... .. . ... ... : ... .. 7 ... ... : ... .. . P80 ... : ... .. D ... ...
ROW CD : ... .. B ... ... ... : ... .. B ... ... ... : ... .. . ... : ... .. 3 ... : ... .. . ... ... : ... .. 6 ... ... : G#5 01 3 ... ... : ... .. 8 ... ...
ROW CE : ... .. 2 ... ... ... : ... .. 2 ... ... ... : ... .. . ... : ... .. . ... : ... .. . ... ... : ... .. 5 ... ... : A-5 01 3 ... ... : ... .. . ... ...
ROW CF : ... .. . ... ... ... : ... .. . ... ... ... : --- .. . ... : ... .. 0 ... : ... .. . ... ... : ... .. . ... ... : A#5 01 3 P7F ... : ... .. . ... ...
ROW D0 : D-3 00 D ... V02 ... : D-4 00 D ... V02 ... : C#4 00 . ... : 9-# 00 D ... : ... .. . ... ... : A#4 01 8 ... ... : A#3 01 7 P80 ... : F#3 01 F ... ...
ROW D1 : ... .. C ... ... ... : ... .. C ... ... ... : D#3 00 . ... : ... .. . ... : ... .. . ... ... : ... .. 7 ... ... : ... .. 6 ... ... : ... .. D ... ...
ROW D2 : ... .. B ... ... ... : ... .. B ... ... ... : G#2 00 . ... : ... .. . ... : ... .. . ... ... : ... .. 6 ... ... : ... .. 5 ... ... : ... .. 8 ... ...
ROW D3 : ... .. 2 ... ... ... : ... .. 2 ... ... ... : G-2 00 . ... : ... .. B ... : ... .. . ... ... : ... .. 5 ... ... : ... .. . ... ... : ... .. . ... ...
ROW D4 : ... .. . ... ... ... : ... .. . ... ... ... : D-2 00 . ... : ... .. . ... : ... .. . ... ... : ... .. . ... ... : ... .. . ... ... : ... .. . ... ...
ROW D5 : ... .. D ... ... ... : ... .. D ... ... ... : ... .. . ... : ... .. A ... : ... .. . ... ... : G-4 01 8 ... ... : ... .. 7 ... ... : E-3 01 8 P8B ...
ROW D6 : ... .. C ... ... ... : ... .. C ... ... ... : ... .. . ... : ... .. . ... : ... .. . ... ... : ... .. 7 ... ... : ... .. 6 ... ... : D#3 01 8 P82 ...
ROW D7 : ... .. B ... ... ... : ... .. B ... ... ... : ... .. . ... : ... .. . ... : ... .. . ... ... : ... .. 6 ... ... : ... .. 5 ... ... : D-3 01 8 P7A ...
ROW D8 : ... .. 2 ... ... ... : ... .. 2 ... ... ... : ... .. . ... : ... .. 9 ... : ... .. . ... ... : ... .. 5 ... ... : ... .. . ... ... : C#3 01 8 P74 ...
ROW D9 : ... .. . ... ... ... : ... .. . ... ... ... : --- .. . ... : ... .. . ... : ... .. . ... ... : ... .. . ... ... : ... .. . ... ... : B-2 01 8 P8D ...
ROW DA : F#3 00 D ... ... ... : ... .. D ... ... ... : C#4 00 . ... : ... .. 7 ... : ... .. . ... ... : D-4 01 8 ... ... : D-4 01 7 ... ... : D-2 01 F P81 ...
ROW DB : ... .. C ... ... ... : ... .. C ... ... ... : D#3 00 . ... : ... .. . ... : ... .. . ... ... : ... .. 7 ... ... : ... .. 6 ... ... : ... .. D ... ...
ROW DC : ... .. B ... ... ... : ... .. B ... ... ... : G#2 00 . ... : ... .. . ... : ... .. . ... ... : ... .. 6 ... ... : ... .. 5 ... ... : ... .. 8 ... ...
ROW DD : ... .. 2 ... ... ... : ... .. 2 ... ... ... : G-2 00 . ... : ... .. 6 ... : ... .. . ... ... : ... .. 5 ... ... : ... .. 6 ... ... : ... .. . ... ...
ROW DE : ... .. . ... ... ... : ... .. . ... ... ... : D-2 00 . ... : ... .. . ... : ... .. . ... ... : ... .. . ... ... : ... .. . ... ... : ... .. . ... ...
ROW DF : ... .. D ... ... ... : ... .. D ... ... ... : ... .. . ... : ... .. 5 ... : ... .. . ... ... : A#3 01 8 ... ... : ... .. 7 ... ... : ... .. F ... ...
ROW E0 : ... .. C ... ... ... : ... .. C ... ... ... : ... .. . ... : ... .. . ... : ... .. . ... ... : ... .. 7 ... ... : ... .. 6 ... ... : ... .. D ... ...
ROW E1 : ... .. B ... ... ... : ... .. B ... ... ... : ... .. . ... : ... .. . ... : ... .. . ... ... : ... .. 6 ... ... : ... .. 5 ... ... : ... .. 8 ... ...
ROW E2 : ... .. 2 ... ... ... : ... .. 2 ... ... ... : ... .. . ... : ... .. 4 ... : ... .. . ... ... : ... .. 5 ... ... : ... .. 6 ... ... : ... .. . ... ...
ROW E3 : ... .. . ... ... ... : ... .. . ... ... ... : --- .. . ... : ... .. . ... : ... .. . ... ... : ... .. . ... ... : ... .. . ... ... : ... .. . ... ...
ROW E4 : A#3 00 D ... V03 ... : ... .. D ... V03 ... : D-3 00 . ... : 7-# 00 F ... : ... .. . ... ... : A-4 01 8 ... ... : F#4 01 7 ... ... : F#2 01 F ... ...
ROW E5 : ... .. C ... ... ... : ... .. C ... ... ... : ... .. . ... : ... .. C ... : ... .. . ... ... : ... .. 7 ... ... : ... .. 6 ... ... : ... .. D ... ...
ROW E6 : ... .. B ... ... ... : ... .. B ... ... ... : ... .. . ... : ... .. A ... : ... .. . ... ... : ... .. 6 ... ... : ... .. 5 ... ... : ... .. 8 ... ...
ROW E7 : ... .. 2 ... ... ... : ... .. 2 ... ... ... : ... .. . ... : ... .. 8 ... : ... .. . ... ... : ... .. 5 ... ... : ... .. 6 ... ... : ... .. . ... ...
ROW E8 : ... .. . ... ... ... : ... .. . ... ... ... : --- .. . ... : ... .. 7 ... : ... .. . ... ... : ... .. . ... ... : ... .. . ... ... : ... .. . ... ...
ROW E9 : ... .. D ... ... ... : ... .. D ... ... ... : D-3 00 . ... : ... .. 0 ... : ... .. . ... ... : F#4 01 8 ... ... : ... .. 7 ... ... : ... .. F ... ...
ROW EA : ... .. C ... ... ... : ... .. C ... ... ... : ... .. . ... : B-# 00 6 ... : ... .. . ... ... : ... .. 7 ... ... : ... .. 6 ... ... : ... .. D ... ...
ROW EB : ... .. B ... ... ... : ... .. B ... ... ... : ... .. . ... : ... .. 2 ... : ... .. . ... ... : ... .. 6 ... ... : ... .. 5 ... ... : ... .. 8 ... ...
ROW EC : ... .. 2 ... ... ... : ... .. 2 ... ... ... : ... .. . ... : ... .. . ... : ... .. . ... ... : ... .. 5 ... ... : ... .. 7 ... ... : ... .. . ... ...
ROW ED : ... .. . ... ... ... : ... .. . ... ... ... : --- .. . ... : ... .. 0 ... : ... .. . ... ... : ... .. . ... ... : ... .. . ... ... : ... .. . ... ...
ROW EE : F#3 00 D ... ... ... : ... .. D ... ... ... : D-3 00 . ... : 9-# 00 D ... : ... .. . ... ... : C#4 01 8 ... ... : D-4 01 7 ... ... : A#2 01 F ... ...
ROW EF : ... .. C ... ... ... : ... .. C ... ... ... : ... .. . ... : ... .. . ... : ... .. . ... ... : ... .. 7 ... ... : ... .. 6 ... ... : ... .. D ... ...
ROW F0 : ... .. B ... ... ... : ... .. B ... ... ... : ... .. . ... : ... .. . ... : ... .. . ... ... : ... .. 6 ... ... : ... .. 5 ... ... : ... .. 8 ... ...
ROW F1 : ... .. 2 ... ... ... : ... .. 2 ... ... ... : ... .. . ... : ... .. B ... : ... .. . ... ... : ... .. 5 ... ... : ... .. 7 ... ... : ... .. . ... ...
ROW F2 : ... .. . ... ... ... : ... .. . ... ... ... : --- .. . ... : ... .. . ... : ... .. . ... ... : ... .. . ... ... : ... .. . ... ... : ... .. . ... ...
ROW F3 : ... .. D ... ... ... : ... .. D ... ... ... : D-3 00 . ... : ... .. A ... : ... .. . ... ... : A-3 01 8 ... ... : ... .. . ... ... : ... .. F ... ...
ROW F4 : ... .. C ... ... ... : ... .. C ... ... ... : ... .. . ... : ... .. . ... : ... .. . ... ... : ... .. 7 ... ... : ... .. 6 ... ... : ... .. D ... ...
ROW F5 : ... .. B ... ... ... : ... .. B ... ... ... : ... .. . ... : ... .. . ... : ... .. . ... ... : ... .. 6 ... ... : ... .. 5 ... ... : ... .. 8 ... ...
ROW F6 : ... .. 2 ... ... ... : ... .. 2 ... ... ... : ... .. . ... : ... .. 9 ... : ... .. . ... ... : ... .. 5 ... ... : ... .. 7 ... ... : ... .. . ... ...
ROW F7 : ... .. . ... ... ... : ... .. . ... ... ... : --- .. . ... : ... .. . ... : ... .. . ... ... : ... .. . ... ... : ... .. . ... ... : ... .. . ... ...
ROW F8 : A#3 00 D ... V01 ... : ... .. D ... V01 ... : C#6 00 . ... : ... .. 7 ... : ... .. . ... ... : A#4 01 8 ... ... : F#4 01 7 ... ... : F#2 01 F ... ...
ROW F9 : ... .. C ... ... ... : ... .. C ... ... ... : D#5 00 . ... : ... .. . ... : ... .. . ... ... : ... .. 7 ... ... : ... .. 6 ... ... : ... .. D ... ...
ROW FA : ... .. B ... ... ... : ... .. B ... ... ... : G#4 00 . ... : ... .. . ... : ... .. . ... ... : ... .. 6 ... ... : ... .. 5 ... ... : ... .. 8 ... ...
ROW FB : ... .. 2 ... ... ... : ... .. 2 ... ... ... : G-4 00 . ... : ... .. 6 ... : ... .. . ... ... : ... .. 5 ... ... : ... .. 7 ... ... : ... .. . ... ...
ROW FC : ... .. . ... ... ... : ... .. . ... ... ... : D-4 00 . ... : ... .. . ... : ... .. . ... ... : ... .. . ... ... : ... .. . ... ... : ... .. . ... ...
ROW FD : ... .. D ... ... ... : C-4 00 D ... ... ... : ... .. . ... : ... .. 5 ... : ... .. . ... ... : G-4 01 8 ... ... : ... .. . ... ... : ... .. F ... ...
ROW FE : ... .. C ... ... ... : ... .. C ... ... ... : ... .. . ... : ... .. . ... : ... .. . ... ... : ... .. 7 ... ... : ... .. 6 ... ... : ... .. D ... ...
ROW FF : ... .. B ... ... ... : ... .. B ... ... ... : ... .. . ... : ... .. . ... : ... .. . ... ... : ... .. 6 ... ... : ... .. 5 ... ... : ... .. 8 ... ...

PATTERN 0D
ROW 00 : ... .. 2 ... ... ... : ... .. 2 ... ... ... : ... .. . ... : ... .. 4 ... : ... .. . ... ... : ... .. 5 ... ... : ... .. 7 ... ... : ... .. . ... ...
ROW 01 : ... .. . ... ... ... : ... .. . ... ... ... : --- .. . ... : ... .. . ... : ... .. . ... ... : ... .. . ... ... : ... .. . ... ... : ... .. . ... ...
ROW 02 : D-4 00 D ... ... ... : A#3 00 D ... ... ... : A#3 00 . ... : ... .. 0 ... : ... .. . ... ... : D-4 01 8 ... ... : A#4 01 7 ... ... : A#2 01 F ... ...
ROW 03 : ... .. C ... ... ... : ... .. C ... ... ... : ... .. . ... : B-# 00 8 ... : ... .. . ... ... : ... .. 7 ... ... : ... .. 6 ... ... : ... .. D ... ...
ROW 04 : ... .. B ... ... ... : ... .. B ... ... ... : ... .. . ... : ... .. 3 ... : ... .. . ... ... : ... .. 6 ... ... : ... .. 5 ... ... : ... .. 8 ... ...
ROW 05 : ... .. 2 ... ... ... : ... .. 2 ... ... ... : ... .. . ... : ... .. . ... : ... .. . ... ... : ... .. 5 ... ... : ... .. 7 ... ... : ... .. . ... ...
ROW 06 : ... .. . ... ... ... : ... .. . ... ... ... : --- .. . ... : ... .. 0 ... : ... .. . ... ... : ... .. . ... ... : ... .. . ... ... : ... .. . ... ...
ROW 07 : ... .. D ... ... ... : A-3 00 D ... ... ... : A#3 00 . ... : ... .. . ... : ... .. . ... ... : A#3 01 8 ... ... : ... .. . ... ... : ... .. F ... ...
ROW 08 : ... .. C ... ... ... : ... .. C ... ... ... : ... .. . ... : ... .. 6 ... : ... .. . ... ... : ... .. 7 ... ... : ... .. 6 ... ... : ... .. D ... ...
ROW 09 : ... .. B ... ... ... : ... .. B ... ... ... : ... .. . ... : ... .. 2 ... : ... .. . ... ... : ... .. 6 ... ... : ... .. 5 ... ... : ... .. 8 ... ...
ROW 0A : ... .. 2 ... ... ... : ... .. 2 ... ... ... : ... .. . ... : ... .. . ... : ... .. . ... ... : ... .. 5 ... ... : ... .. 6 ... ... : ... .. . ... ...
ROW 0B : ... .. . ... ... ... : ... .. . ... ... ... : --- .. . ... : ... .. 0 ... : ... .. . ... ... : ... .. . ... ... : ... .. . ... ... : ... .. . ... ...
ROW 0C : F#4 00 D ... V00 ... : G-3 00 D ... V00 ... : F#3 00 . ... : 7-# 00 F ... : ... .. . ... ... : D-6 01 8 ... ... : D-5 01 7 ... ... : D-3 01 F ... ...
ROW 0D : ... .. C ... ... ... : ... .. C ... ... ... : ... .. . ... : ... .. C ... : ... .. . ... ... : ... .. 7 ... ... : ... .. 6 ... ... : ... .. D ... ...
ROW 0E : ... .. B ... ... ... : ... .. B ... ... ... : ... .. . ... : ... .. A ... : ... .. . ... ... : ... .. 6 ... ... : ... .. 5 ... ... : ... .. 8 ... ...
ROW 0F : ... .. 2 ... ... ... : ... .. 2 ... ... ... : ... .. . ... : ... .. 0 ... : ... .. . ... ... : ... .. 5 ... ... : ... .. 6 ... ... : ... .. . ... ...
ROW 10 : ... .. . ... ... ... : ... .. . ... ... ... : --- .. . ... : ... .. . ... : ... .. . ... ... : ... .. . ... ... : ... .. . ... ... : ... .. . ... ...
ROW 11 : ... .. D ... ... ... : F#3 00 D ... ... ... : F#3 00 . ... : 6-# 00 F ... : ... .. . ... ... : D-5 01 8 ... ... : ... .. 7 ... ... : ... .. F ... ...
ROW 12 : ... .. C ... ... ... : ... .. C ... ... ... : ... .. . ... : ... .. C ... : ... .. . ... ... : ... .. 7 ... ... : ... .. 6 ... ... : ... .. D ... ...
ROW 13 : ... .. B ... ... ... : ... .. B ... ... ... : ... .. . ... : ... .. A ... : ... .. . ... ... : ... .. 6 ... ... : ... .. 5 ... ... : ... .. 8 ... ...
ROW 14 : ... .. 2 ... ... ... : ... .. 2 ... ... ... : ... .. . ... : ... .. 0 ... : ... .. . ... ... : ... .. 5 ... ... : ... .. 6 ... ... : ... .. . ... ...
ROW 15 : ... .. . ... ... ... : ... .. . ... ... ... : --- .. . ... : ... .. . ... : ... .. . ... ... : ... .. . ... ... : ... .. . ... ... : ... .. . ... ...
ROW 16 : A#4 00 D ... ... ... : G-3 00 D ... ... ... : D-3 00 . ... : 5-# 00 F ... : ... .. . ... ... : D-4 01 8 ... ... : F#5 01 7 ... ... : F#3 01 F ... ...
ROW 17 : ... .. C ... ... ... : ... .. C ... ... ... : ... .. . ... : ... .. C ... : ... .. . ... ... : ... .. 7 ... ... : ... .. 6 ... ... : ... .. D ... ...
ROW 18 : ... .. B ... ... ... : ... .. B ... ... ... : ... .. . ... : ... .. A ... : ... .. . ... ... : ... .. 6 ... ... : ... .. 5 ... ... : ... .. 8 ... ...
ROW 19 : ... .. 2 ... ... ... : ... .. 2 ... ... ... : ... .. . ... : ... .. 0 ... : ... .. . ... ... : ... .. 5 ... ... : ... .. . ... ... : ... .. . ... ...
ROW 1A : ... .. . ... ... ... : ... .. . ... ... ... : --- .. . ... : ... .. . ... : ... .. . ... ... : ... .. . ... ... : ... .. . ... ... : ... .. . ... ...
ROW 1B : ... .. D ... ... ... : A-3 00 D ... ... ... : D-3 00 . ... : 4-# 00 F ... : ... .. . ... ... : D-3 01 8 ... ... : ... .. 7 ... ... : ... .. F ... ...
ROW 1C : ... .. C ... ... ... : ... .. C ... ... ... : ... .. . ... : ... .. C ... : ... .. . ... ... : ... .. 7 ... ... : ... .. 6 ... ... : ... .. D ... ...
ROW 1D : ... .. B ... ... ... : ... .. B ... ... ... : ... .. . ... : ... .. A ... : ... .. . ... ... : ... .. 6 ... ... : ... .. 5 ... ... : ... .. 8 ... ...
ROW 1E : ... .. 2 ... ... ... : ... .. 2 ... ... ... : ... .. . ... : ... .. 8 ... : ... .. . ... ... : ... .. 5 ... ... : ... .. . ... ... : ... .. . ... ...
ROW 1F : ... .. . ... ... ... : ... .. . ... ... ... : --- .. . ... : ... .. 7 ... : ... .. . ... ... : ... .. . ... ... : ... .. . ... ... : ... .. . ... ...
ROW 20 : G-3 00 7 P80 ... ... : G-2 00 F ... ... ... : F#4 00 . ... : 9-# 00 D ... : ... .. . ... ... : A#3 01 9 ... V05 : D-4 01 9 P7F V05 : G-5 01 F ... ...
ROW 21 : ... .. A ... ... ... : ... .. E ... ... ... : G#3 00 . ... : ... .. . ... : ... .. . ... ... : ... .. 8 ... ... : ... .. 8 ... ... : ... .. D ... ...
ROW 22 : ... .. 7 ... ... ... : ... .. D ... ... ... : C#3 00 . ... : ... .. . ... : ... .. . ... ... : ... .. . ... ... : ... .. . ... ... : ... .. 8 ... ...
ROW 23 : ... .. 0 ... ... ... : ... .. A ... ... ... : C-3 00 . ... : ... .. B ... : ... .. . ... ... : ... .. 7 ... ... : ... .. 7 ... ... : ... .. 7 ... ...
ROW 24 : G-3 00 5 P80 ... ... : ... .. . ... ... ... : G-2 00 . ... : ... .. . ... : ... .. . ... ... : ... .. 6 ... ... : ... .. 6 ... ... : ... .. . ... ...
ROW 25 : F-3 00 7 ... ... ... : ... .. . ... ... ... : ... .. . ... : ... .. A ... : ... .. . ... ... : ... .. . ... ... : ... .. . ... ... : ... .. 6 ... ...
ROW 26 : ... .. A ... ... ... : ... .. . ... ... ... : ... .. . ... : ... .. . ... : ... .. . ... ... : ... .. . ... ... : ... .. . ... ... : ... .. . ... ...
ROW 27 : ... .. 7 ... ... ... : ... .. . ... ... ... : ... .. . ... : ... .. . ... : ... .. . ... ... : ... .. 5 ... ... : ... .. 5 ... ... : ... .. . ... ...
ROW 28 : ... .. 0 ... ... ... : ... .. . ... ... ... : ... .. . ... : ... .. 9 ... : ... .. . ... ... : ... .. . ... ... : ... .. . ... ... : ... .. . ... ...
ROW 29 : F-3 00 5 P80 ... ... : ... .. . ... ... ... : ... .. . ... : ... .. . ... : ... .. . ... ... : ... .. . ... ... : ... .. . ... ... : ... .. . ... ...
ROW 2A : C#3 00 7 ... ... ... : ... .. . ... ... ... : ... .. . ... : ... .. 7 ... : ... .. . ... ... : ... .. 4 ... ... : ... .. 4 ... ... : ... .. . ... ...
ROW 2B : ... .. A ... ... ... : ... .. . ... ... ... : ... .. . ... : ... .. . ... : ... .. . ... ... : ... .. . ... ... : ... .. . ... ... : ... .. . ... ...
ROW 2C : ... .. 7 ... ... ... : ... .. . ... ... ... : ... .. . ... : ... .. . ... : ... .. . ... ... : ... .. . ... ... : ... .. . ... ... : ... .. . ... ...
ROW 2D : ... .. 0 ... ... ... : F#2 00 A P82 ... ... : F#2 00 . P82 : ... .. 6 ... : ... .. . ... ... : ... .. . ... ... : ... .. . ... ... : ... .. 5 ... ...
ROW 2E : C#3 00 5 P80 ... ... : F-2 00 A P86 ... ... : F-2 00 . P86 : ... .. . ... : ... .. . ... ... : ... .. . ... ... : ... .. . ... ... : ... .. . ... ...
ROW 2F : B-2 00 7 ... ... ... : E-2 00 A P8C ... ... : E-2 00 . P8C : ... .. 5 ... : ... .. . ... ... : A-3 01 4 P7E ... : C#4 01 4 P7B ... : E-5 01 5 P80 ...
ROW 30 : ... .. A ... ... ... : D#2 00 A P94 ... ... : D#2 00 . P94 : ... .. . ... : ... .. . ... ... : G#3 01 4 P7D ... : B-3 01 4 P83 ... : C#5 01 5 P82 ...
ROW 31 : ... .. 7 ... ... ... : ... .. . P74 ... ... : ... .. . P74 : ... .. . ... : ... .. . ... ... : G-3 01 4 ... ... : A#3 01 4 P81 ... : B-4 01 5 P80 ...
ROW 32 : ... .. 0 ... ... ... : D-2 00 A P7F ... ... : D-2 00 . P7F : ... .. 4 ... : ... .. . ... ... : F#3 01 4 P7E ... : A-3 01 4 P7F ... : A-4 01 5 ... ...
ROW 33 : B-2 00 5 P80 ... ... : C#2 00 A P8C ... ... : C#2 00 . P8C : ... .. . ... : ... .. . ... ... : F-3 01 4 P80 ... : G#3 01 4 P7E ... : G-4 01 5 P82 ...
ROW 34 : G-3 00 7 ... ... ... : F-2 00 F P80 ... ... : F-2 00 . P80 : 7-# 00 F ... : ... .. . ... ... : E-3 01 3 P83 ... : G-3 01 3 ... ... : F#4 01 4 P7C ...
ROW 35 : ... .. A ... ... ... : ... .. E ... ... ... : ... .. . ... : ... .. C ... : ... .. . ... ... : D#3 01 3 P88 ... : F#3 01 3 P7F ... : E-4 01 4 P81 ...
ROW 36 : ... .. 7 ... ... ... : ... .. D ... ... ... : ... .. . ... : ... .. A ... : ... .. . ... ... : ... .. . P78 ... : F-3 01 3 P81 ... : D#4 01 4 P7C ...
ROW 37 : ... .. 0 ... ... ... : ... .. A ... ... ... : ... .. . ... : ... .. 8 ... : ... .. . ... ... : D-3 01 3 P7D ... : E-3 01 3 P84 ... : C#4 01 4 P86 ...
ROW 38 : G-3 00 5 P80 ... ... : ... .. . ... ... ... : ... .. . ... : ... .. 7 ... : ... .. . ... ... : C#3 01 3 P84 ... : D#3 01 3 P89 ... : C-4 01 4 P83 ...
ROW 39 : F-3 00 7 ... ... ... : ... .. . ... ... ... : ... .. . ... : ... .. 0 ... : ... .. . ... ... : C-3 01 3 P8C ... : ... .. . P79 ... : B-3 01 4 P82 ...
ROW 3A : ... .. A ... ... ... : ... .. . ... ... ... : ... .. . ... : B-# 00 6 ... : ... .. . ... ... : ... .. . P7C ... : D-3 01 3 P7E ... : A#3 01 4 P81 ...
ROW 3B : ... .. 7 ... ... ... : ... .. . ... ... ... : ... .. . ... : ... .. 2 ... : ... .. . ... ... : B-2 01 3 P85 ... : C#3 01 3 P85 ... : A-3 01 4 P82 ...
ROW 3C : ... .. 0 ... ... ... : ... .. . ... ... ... : ... .. . ... : ... .. . ... : ... .. . ... ... : ... .. . P75 ... : ... .. . P75 ... : G#3 01 4 P83 ...
ROW 3D : F-3 00 5 P80 ... ... : ... .. . ... ... ... : ... .. . ... : ... .. 0 ... : ... .. . ... ... : A#2 01 3 P80 ... : C-3 01 3 P7D ... : G-3 01 4 P85 ...
ROW 3E : C#3 00 7 ... ... ... : G-2 00 F ... ... ... : G-2 00 . ... : ... .. . ... : ... .. . ... ... : A-2 01 A ... V03 : E-3 01 A P7F V03 : C#4 01 A P81 ...
ROW 3F : ... .. A ... ... ... : ... .. E ... ... ... : ... .. . ... : ... .. A ... : ... .. . ... ... : ... .. 9 ... ... : ... .. 9 ... ... : ... .. 8 ... ...
ROW 40 : ... .. 7 ... ... ... : ... .. D ... ... ... : ... .. . ... : ... .. 4 ... : ... .. . ... ... : ... .. 8 ... ... : ... .. 8 ... ... : ... .. 5 ... ...
ROW 41 : ... .. 0 ... ... ... : ... .. A ... ... ... : ... .. . ... : ... .. . ... : ... .. . ... ... : ... .. 7 ... ... : ... .. 7 ... ... : ... .. . ... ...
ROW 42 : C#3 00 5 P80 ... ... : ... .. . ... ... ... : ... .. . ... : ... .. 0 ... : ... .. . ... ... : ... .. . ... ... : ... .. . ... ... : ... .. . ... ...
ROW 43 : B-2 00 7 ... ... ... : ... .. . ... ... ... : ... .. . ... : ... .. . ... : ... .. . ... ... : ... .. 6 ... ... : ... .. 6 ... ... : ... .. . ... ...
ROW 44 : ... .. A ... ... ... : ... .. . ... ... ... : ... .. . ... : ... .. 8 ... : ... .. . ... ... : ... .. . ... ... : ... .. . ... ... : ... .. . ... ...
ROW 45 : ... .. 7 ... ... ... : ... .. . ... ... ... : ... .. . ... : ... .. 3 ... : ... .. . ... ... : ... .. 5 ... ... : ... .. 5 ... ... : ... .. . ... ...
ROW 46 : ... .. 0 ... ... ... : ... .. . ... ... ... : ... .. . ... : ... .. . ... : ... .. . ... ... : ... .. 1 ... ... : ... .. 1 ... ... : ... .. 1 ... ...
ROW 47 : B-2 00 5 P80 ... ... : ... .. . ... ... ... : ... .. . ... : ... .. 0 ... : ... .. . ... ... : ... .. . ... ... : ... .. . ... ... : ... .. . ... ...
ROW 48 : G-3 00 7 ... ... ... : G-3 00 F ... ... ... : F#5 00 . ... : 2-# 00 F ... : ... .. . ... ... : ... .. 5 ... ... : ... .. 5 ... ... : ... .. 5 ... ...
ROW 49 : ... .. A ... ... ... : ... .. E ... ... ... : G#4 00 . ... : ... .. C ... : ... .. . ... ... : ... .. . ... ... : ... .. . ... ... : ... .. . ... ...
ROW 4A : ... .. 7 ... ... ... : ... .. D ... ... ... : C#4 00 . ... : ... .. 6 ... : ... .. . ... ... : ... .. . ... ... : ... .. . ... ... : ... .. . ... ...
ROW 4B : ... .. 0 ... ... ... : ... .. A ... ... ... : C-4 00 . ... : ... .. 3 ... : ... .. . ... ... : ... .. . ... ... : ... .. . ... ... : ... .. . ... ...
ROW 4C : G-3 00 5 P80 ... ... : ... .. . ... ... ... : G-3 00 . ... : ... .. 2 ... : ... .. . ... ... : ... .. . ... ... : ... .. . ... ... : ... .. . ... ...
ROW 4D : F-3 00 7 ... ... ... : ... .. . ... ... ... : ... .. . ... : ... .. 0 ... : ... .. . ... ... : ... .. 2 ... ... : ... .. 2 ... ... : ... .. 1 ... ...
ROW 4E : ... .. A ... ... ... : ... .. . ... ... ... : ... .. . ... : B-# 00 8 ... : ... .. . ... ... : ... .. . ... ... : ... .. . ... ... : ... .. . ... ...
ROW 4F : ... .. 7 ... ... ... : ... .. . ... ... ... : ... .. . ... : ... .. 3 ... : ... .. . ... ... : ... .. . ... ... : ... .. . ... ... : ... .. . ... ...
ROW 50 : ... .. 0 ... ... ... : ... .. . ... ... ... : ... .. . ... : ... .. . ... : ... .. . ... ... : ... .. 1 ... ... : ... .. 1 ... ... : ... .. . ... ...
ROW 51 : F-3 00 5 P80 ... ... : ... .. . ... ... ... : ... .. . ... : ... .. 0 ... : ... .. . ... ... : ... .. . ... ... : ... .. . ... ... : ... .. . ... ...
ROW 52 : C#3 00 7 ... ... ... : E-3 00 A P86 ... ... : E-3 00 . P86 : 2-# 00 F ... : ... .. . ... ... : G#2 01 A ... ... : D#3 01 A ... ... : C-4 01 A ... ...
ROW 53 : ... .. A ... ... ... : D-3 00 A P80 ... ... : D-3 00 . P80 : ... .. C ... : ... .. . ... ... : ... .. 9 ... ... : ... .. 9 ... ... : ... .. 8 ... ...
ROW 54 : ... .. 7 ... ... ... : C-3 00 A P7F ... ... : C-3 00 . P7F : ... .. 6 ... : ... .. . ... ... : ... .. 8 ... ... : ... .. 8 ... ... : ... .. 5 ... ...
ROW 55 : ... .. 0 ... ... ... : A#2 00 A P83 ... ... : A#2 00 . P83 : ... .. 3 ... : ... .. . ... ... : ... .. 7 ... ... : ... .. 7 ... ... : ... .. . ... ...
ROW 56 : C#3 00 5 P80 ... ... : G#2 00 A P8E ... ... : G#2 00 . P8E : ... .. 2 ... : ... .. . ... ... : ... .. . ... ... : ... .. . ... ... : ... .. . ... ...
ROW 57 : B-2 00 7 ... ... ... : G-2 00 A P7E ... ... : G-2 00 . P7E : ... .. 0 ... : ... .. . ... ... : ... .. 6 ... ... : ... .. 6 ... ... : ... .. . ... ...
ROW 58 : ... .. A ... ... ... : F#2 00 A P70 ... ... : F#2 00 . P70 : B-# 00 8 ... : ... .. . ... ... : ... .. . ... ... : ... .. . ... ... : ... .. . ... ...
ROW 59 : ... .. 7 ... ... ... : E-2 00 A P8A ... ... : E-2 00 . P8A : ... .. 3 ... : ... .. . ... ... : ... .. 5 ... ... : ... .. 5 ... ... : ... .. . ... ...
ROW 5A : ... .. 0 ... ... ... : D#2 00 A P82 ... ... : D#2 00 . P82 : ... .. . ... : ... .. . ... ... : ... .. 1 ... ... : ... .. 1 ... ... : ... .. 1 ... ...
ROW 5B : B-2 00 5 P80 ... ... : D-2 00 A P7D ... ... : D-2 00 . P7D : ... .. 0 ... : ... .. . ... ... : ... .. . ... ... : ... .. . ... ... : ... .. . ... ...
ROW 5C : G-3 00 7 ... ... ... : F-2 00 F P80 ... ... : F-2 00 . P80 : 7-# 00 F ... : ... .. . ... ... : ... .. 5 ... ... : ... .. 5 ... ... : ... .. 5 ... ...
ROW 5D : ... .. A ... ... ... : ... .. E ... ... ... : ... .. . ... : ... .. C ... : ... .. . ... ... : ... .. . ... ... : ... .. . ... ... : ... .. . ... ...
ROW 5E : ... .. 7 ... ... ... : ... .. D ... ... ... : ... .. . ... : ... .. A ... : ... .. . ... ... : ... .. . ... ... : ... .. . ... ... : ... .. . ... ...
ROW 5F : ... .. 0 ... ... ... : ... .. A ... ... ... : ... .. . ... : ... .. 8 ... : ... .. . ... ... : ... .. . ... ... : ... .. . ... ... : ... .. . ... ...
ROW 60 : G-3 00 5 P80 ... ... : ... .. . ... ... ... : ... .. . ... : ... .. 7 ... : ... .. . ... ... : ... .. . ... ... : ... .. . ... ... : ... .. . ... ...
ROW 61 : F-3 00 7 ... ... ... : ... .. . ... ... ... : ... .. . ... : ... .. 0 ... : ... .. . ... ... : ... .. . ... ... : ... .. . ... ... : ... .. . ... ...
ROW 62 : ... .. A ... ... ... : ... .. . ... ... ... : ... .. . ... : B-# 00 6 ... : ... .. . ... ... : ... .. . ... ... : ... .. . ... ... : ... .. . ... ...
ROW 63 : ... .. 7 ... ... ... : ... .. . ... ... ... : ... .. . ... : ... .. 2 ... : ... .. . ... ... : ... .. . ... ... : ... .. . ... ... : ... .. . ... ...
ROW 64 : ... .. 0 ... ... ... : ... .. . ... ... ... : ... .. . ... : ... .. . ... : ... .. . ... ... : ... .. 1 ... ... : ... .. 1 ... ... : ... .. 1 ... ...
ROW 65 : F-3 00 5 P80 ... ... : ... .. . ... ... ... : ... .. . ... : ... .. 0 ... : ... .. . ... ... : ... .. . ... ... : ... .. . ... ... : ... .. . ... ...
ROW 66 : C#3 00 7 ... ... ... : G-2 00 F ... ... ... : G-2 00 . ... : ... .. . ... : ... .. . ... ... : G-2 01 A ... ... : D-3 01 A ... ... : B-3 01 A ... ...
ROW 67 : ... .. A ... ... ... : ... .. E ... ... ... : ... .. . ... : ... .. A ... : ... .. . ... ... : ... .. 9 ... ... : ... .. 9 ... ... : ... .. 8 ... ...
ROW 68 : ... .. 7 ... ... ... : ... .. D ... ... ... : ... .. . ... : ... .. 4 ... : ... .. . ... ... : ... .. 8 ... ... : ... .. 8 ... ... : ... .. 5 ... ...
ROW 69 : ... .. 0 ... ... ... : ... .. A ... ... ... : ... .. . ... : ... .. . ... : ... .. . ... ... : ... .. 7 ... ... : ... .. 7 ... ... : ... .. . ... ...
ROW 6A : C#3 00 5 P80 ... ... : ... .. . ... ... ... : ... .. . ... : ... .. 0 ... : ... .. . ... ... : ... .. . ... ... : ... .. . ... ... : ... .. . ... ...
ROW 6B : B-2 00 7 ... ... ... : ... .. . ... ... ... : ... .. . ... : ... .. . ... : ... .. . ... ... : ... .. 6 ... ... : ... .. 6 ... ... : ... .. . ... ...
ROW 6C : ... .. A ... ... ... : ... .. . ... ... ... : ... .. . ... : ... .. 8 ... : ... .. . ... ... : ... .. . ... ... : ... .. . ... ... : ... .. . ... ...
ROW 6D : ... .. 7 ... ... ... : ... .. . ... ... ... : ... .. . ... : ... .. 3 ... : ... .. . ... ... : ... .. 5 ... ... : ... .. 5 ... ... : ... .. . ... ...
ROW 6E : ... .. 0 ... ... ... : ... .. 0 ... ... ... : --- .. . ... : ... .. . ... : ... .. . ... ... : ... .. 1 ... ... : ... .. 1 ... ... : ... .. 1 ... ...
ROW 6F : B-2 00 5 P80 ... ... : ... .. . ... ... ... : ... .. . ... : ... .. 0 ... : ... .. . ... ... : ... .. . ... ... : ... .. . ... ... : ... .. . ... ...
ROW 70 : G-3 00 7 ... ... ... : F-1 00 F P80 ... ... : E-3 00 . ... : 2-# 00 F ... : ... .. . ... ... : ... .. 5 ... ... : ... .. 5 ... ... : ... .. 5 ... ...
ROW 71 : ... .. A ... ... ... : ... .. E ... ... ... : F#2 00 . ... : ... .. C ... : ... .. . ... ... : ... .. . ... ... : ... .. . ... ... : ... .. . ... ...
ROW 72 : ... .. 7 ... ... ... : ... .. D ... ... ... : B-1 00 . ... : ... .. 6 ... : ... .. . ... ... : ... .. . ... ... : ... .. . ... ... : ... .. . ... ...
ROW 73 : ... .. 0 ... ... ... : ... .. A ... ... ... : A#1 00 . ... : ... .. 3 ... : ... .. . ... ... : ... .. . ... ... : ... .. . ... ... : ... .. . ... ...
ROW 74 : G-3 00 5 P80 ... ... : ... .. . ... ... ... : F-1 00 . ... : ... .. 2 ... : ... .. . ... ... : ... .. . ... ... : ... .. . ... ... : ... .. . ... ...
ROW 75 : F-3 00 7 ... ... ... : ... .. . ... ... ... : ... .. . ... : ... .. 0 ... : ... .. . ... ... : ... .. 2 ... ... : ... .. 2 ... ... : ... .. 1 ... ...
ROW 76 : ... .. A ... ... ... : ... .. . ... ... ... : ... .. . ... : B-# 00 8 ... : ... .. . ... ... : ... .. . ... ... : ... .. . ... ... : ... .. . ... ...
ROW 77 : ... .. 7 ... ... ... : ... .. . ... ... ... : ... .. . ... : ... .. 3 ... : ... .. . ... ... : ... .. . ... ... : ... .. . ... ... : ... .. . ... ...
ROW 78 : ... .. 0 ... ... ... : ... .. . ... ... ... : ... .. . ... : ... .. . ... : ... .. . ... ... : ... .. 1 ... ... : ... .. 1 ... ... : ... .. . ... ...
ROW 79 : F-3 00 5 P80 ... ... : ... .. . ... ... ... : ... .. . ... : ... .. 0 ... : ... .. . ... ... : ... .. . ... ... : ... .. . ... ... : ... .. . ... ...
ROW 7A : C#3 00 7 ... ... ... : D-2 00 F ... ... ... : C#4 00 . ... : 2-# 00 F ... : ... .. . ... ... : F#2 01 A ... ... : C#3 01 A ... ... : A#3 01 A ... ...
ROW 7B : ... .. A ... ... ... : ... .. E ... ... ... : D#3 00 . ... : ... .. C ... : ... .. . ... ... : ... .. 9 ... ... : ... .. 9 ... ... : ... .. 8 ... ...
ROW 7C : ... .. 7 ... ... ... : ... .. D ... ... ... : G#2 00 . ... : ... .. 6 ... : ... .. . ... ... : ... .. 8 ... ... : ... .. 8 ... ... : ... .. 5 ... ...
ROW 7D : ... .. 0 ... ... ... : ... .. A ... ... ... : G-2 00 . ... : ... .. 3 ... : ... .. . ... ... : ... .. 7 ... ... : ... .. 7 ... ... : ... .. . ... ...
ROW 7E : C#3 00 5 P80 ... ... : ... .. . ... ... ... : D-2 00 . ... : ... .. 2 ... : ... .. . ... ... : ... .. . ... ... : ... .. . ... ... : ... .. . ... ...
ROW 7F : B-2 00 7 ... ... ... : ... .. . ... ... ... : ... .. . ... : ... .. 0 ... : ... .. . ... ... : ... .. 6 ... ... : ... .. 6 ... ... : ... .. . ... ...
ROW 80 : ... .. A ... ... ... : ... .. . ... ... ... : ... .. . ... : B-# 00 8 ... : ... .. . ... ... : ... .. . ... ... : ... .. . ... ... : ... .. . ... ...
ROW 81 : ... .. 7 ... ... ... : ... .. . ... ... ... : ... .. . ... : ... .. 3 ... : ... .. . ... ... : ... .. 5 ... ... : ... .. 5 ... ... : ... .. . ... ...
ROW 82 : ... .. 0 ... ... ... : ... .. . ... ... ... : ... .. . ... : ... .. . ... : ... .. . ... ... : ... .. 1 ... ... : ... .. 1 ... ... : ... .. 1 ... ...
ROW 83 : B-2 00 5 P80 ... ... : ... .. . ... ... ... : ... .. . ... : ... .. 0 ... : ... .. . ... ... : ... .. . ... ... : ... .. . ... ... : ... .. . ... ...
ROW 84 : G-3 00 7 ... ... ... : C#2 00 F ... ... ... : C#2 00 . ... : 7-# 00 F ... : ... .. . ... ... : ... .. 5 ... ... : ... .. 5 ... ... : ... .. 5 ... ...
ROW 85 : ... .. A ... ... ... : ... .. E ... ... ... : ... .. . ... : ... .. C ... : ... .. . ... ... : ... .. . ... ... : ... .. . ... ... : ... .. . ... ...
ROW 86 : ... .. 7 ... ... ... : ... .. D ... ... ... : ... .. . ... : ... .. A ... : ... .. . ... ... : ... .. . ... ... : ... .. . ... ... : ... .. . ... ...
ROW 87 : ... .. 0 ... ... ... : ... .. A ... ... ... : ... .. . ... : ... .. 8 ... : ... .. . ... ... : ... .. . ... ... : ... .. . ... ... : ... .. . ... ...
ROW 88 : G-3 00 5 P80 ... ... : ... .. . ... ... ... : ... .. . ... : ... .. 7 ... : ... .. . ... ... : ... .. . ... ... : ... .. . ... ... : ... .. . ... ...
ROW 89 : F-3 00 7 ... ... ... : ... .. . ... ... ... : ... .. . ... : ... .. 0 ... : ... .. . ... ... : ... .. . ... ... : ... .. . ... ... : ... .. . ... ...
ROW 8A : ... .. A ... ... ... : ... .. . ... ... ... : ... .. . ... : B-# 00 6 ... : ... .. . ... ... : ... .. . ... ... : ... .. . ... ... : ... .. . ... ...
ROW 8B : ... .. 7 ... ... ... : ... .. . ... ... ... : ... .. . ... : ... .. 2 ... : ... .. . ... ... : ... .. . ... ... : ... .. . ... ... : ... .. . ... ...
ROW 8C : ... .. 0 ... ... ... : ... .. . ... ... ... : ... .. . ... : ... .. . ... : ... .. . ... ... : ... .. 1 ... ... : ... .. 1 ... ... : ... .. 1 ... ...
ROW 8D : F-3 00 5 P80 ... ... : ... .. . ... ... ... : ... .. . ... : ... .. 0 ... : ... .. . ... ... : ... .. . ... ... : ... .. . ... ... : ... .. . ... ...
ROW 8E : C#3 00 7 ... ... ... : G-1 00 F ... ... ... : G-1 00 . ... : ... .. . ... : ... .. . ... ... : F-2 01 A ... ... : C-3 01 A ... ... : A-3 01 A ... ...
ROW 8F : ... .. A ... ... ... : ... .. E ... ... ... : ... .. . ... : ... .. A ... : ... .. . ... ... : ... .. 9 ... ... : ... .. 9 ... ... : ... .. 8 ... ...
ROW 90 : ... .. 7 ... ... ... : ... .. D ... ... ... : ... .. . ... : ... .. 4 ... : ... .. . ... ... : ... .. 8 ... ... : ... .. 8 ... ... : ... .. 5 ... ...
ROW 91 : ... .. 0 ... ... ... : ... .. 0 ... ... ... : --- .. . ... : ... .. . ... : ... .. . ... ... : ... .. 7 ... ... : ... .. 7 ... ... : ... .. . ... ...
ROW 92 : C#3 00 5 P80 ... ... : ... .. . ... ... ... : ... .. . ... : ... .. 0 ... : ... .. . ... ... : ... .. . ... ... : ... .. . ... ... : ... .. . ... ...
ROW 93 : B-2 00 7 ... ... ... : G-1 00 F P80 ... ... : G-1 00 . ... : ... .. . ... : ... .. . ... ... : ... .. 6 ... ... : ... .. 6 ... ... : ... .. . ... ...
ROW 94 : ... .. A ... ... ... : ... .. E ... ... ... : ... .. . ... : ... .. 8 ... : ... .. . ... ... : ... .. . ... ... : ... .. . ... ... : ... .. . ... ...
ROW 95 : ... .. 7 ... ... ... : ... .. D ... ... ... : ... .. . ... : ... .. 3 ... : ... .. . ... ... : ... .. 5 ... ... : ... .. 5 ... ... : ... .. . ... ...
ROW 96 : ... .. 0 ... ... ... : ... .. 0 ... ... ... : --- .. . ... : ... .. . ... : ... .. . ... ... : ... .. 1 ... ... : ... .. 1 ... ... : ... .. 1 ... ...
ROW 97 : B-2 00 5 P80 ... ... : ... .. . ... ... ... : ... .. . ... : ... .. 0 ... : ... .. . ... ... : ... .. . ... ... : ... .. . ... ... : ... .. . ... ...
ROW 98 : G-3 00 7 ... ... ... : F-2 00 F P80 ... ... : E-4 00 . ... : 2-# 00 F ... : ... .. . ... ... : ... .. 5 ... ... : ... .. 5 ... ... : ... .. 5 ... ...
ROW 99 : ... .. A ... ... ... : ... .. E ... ... ... : F#3 00 . ... : ... .. C ... : ... .. . ... ... : ... .. . ... ... : ... .. . ... ... : ... .. . ... ...
ROW 9A : ... .. 7 ... ... ... : ... .. D ... ... ... : B-2 00 . ... : ... .. 6 ... : ... .. . ... ... : ... .. . ... ... : ... .. . ... ... : ... .. . ... ...
ROW 9B : ... .. 0 ... ... ... : ... .. 0 ... ... ... : --- .. . ... : ... .. 3 ... : ... .. . ... ... : ... .. . ... ... : ... .. . ... ... : ... .. . ... ...
ROW 9C : G-3 00 5 P80 ... ... : ... .. . ... ... ... : ... .. . ... : ... .. 2 ... : ... .. . ... ... : ... .. . ... ... : ... .. . ... ... : ... .. . ... ...
ROW 9D : F-3 00 7 ... ... ... : F-2 00 F P80 ... ... : F-2 00 . ... : ... .. 0 ... : ... .. . ... ... : ... .. 2 ... ... : ... .. 2 ... ... : ... .. 1 ... ...
ROW 9E : ... .. A ... ... ... : ... .. E ... ... ... : ... .. . ... : B-# 00 8 ... : ... .. . ... ... : ... .. . ... ... : ... .. . ... ... : ... .. . ... ...
ROW 9F : ... .. 7 ... ... ... : ... .. D ... ... ... : ... .. . ... : ... .. 3 ... : ... .. . ... ... : ... .. . ... ... : ... .. . ... ... : ... .. . ... ...
ROW A0 : ... .. 0 ... ... ... : ... .. 0 ... ... ... : --- .. . ... : ... .. . ... : ... .. . ... ... : ... .. 1 ... ... : ... .. 1 ... ... : ... .. . ... ...
ROW A1 : F-3 00 5 P80 ... ... : ... .. . ... ... ... : ... .. . ... : ... .. 0 ... : ... .. . ... ... : ... .. . ... ... : ... .. . ... ... : ... .. . ... ...
ROW A2 : C#3 00 7 ... ... ... : E-2 00 F P80 ... ... : E-2 00 . ... : C-# 00 8 ... : ... .. . ... ... : F#2 01 A ... ... : C#3 01 A ... ... : A#3 01 A ... ...
ROW A3 : ... .. A ... ... ... : ... .. E ... ... ... : ... .. . ... : ... .. 7 ... : ... .. . ... ... : ... .. 9 ... ... : ... .. 9 ... ... : ... .. 8 ... ...
ROW A4 : ... .. 7 ... ... ... : ... .. D ... ... ... : ... .. . ... : ... .. . ... : ... .. . ... ... : ... .. 8 ... ... : ... .. 8 ... ... : ... .. 5 ... ...
ROW A5 : ... .. 0 ... ... ... : ... .. A ... ... ... : ... .. . ... : ... .. 6 ... : ... .. . ... ... : ... .. 7 ... ... : ... .. 7 ... ... : ... .. . ... ...
ROW A6 : C#3 00 5 P80 ... ... : ... .. . ... ... ... : ... .. . ... : ... .. 5 ... : ... .. . ... ... : ... .. . ... ... : ... .. . ... ... : ... .. . ... ...
ROW A7 : B-2 00 7 ... ... ... : ... .. . ... ... ... : ... .. . ... : ... .. 4 ... : ... .. . ... ... : ... .. 6 ... ... : ... .. 6 ... ... : ... .. . ... ...
ROW A8 : ... .. A ... ... ... : ... .. . ... ... ... : ... .. . ... : ... .. . ... : ... .. . ... ... : ... .. . ... ... : ... .. . ... ... : ... .. . ... ...
ROW A9 : ... .. 7 ... ... ... : ... .. . ... ... ... : ... .. . ... : ... .. . ... : ... .. . ... ... : ... .. 5 ... ... : ... .. 5 ... ... : ... .. . ... ...
ROW AA : ... .. 0 ... ... ... : ... .. . ... ... ... : ... .. . ... : ... .. 3 ... : ... .. . ... ... : ... .. . ... ... : ... .. . ... ... : ... .. . ... ...
ROW AB : B-2 00 5 P80 ... ... : ... .. . ... ... ... : ... .. . ... : ... .. . ... : ... .. . ... ... : ... .. . ... ... : ... .. . ... ... : ... .. . ... ...
ROW AC : G-3 00 7 ... ... ... : F-2 00 F ... ... ... : F-2 00 . ... : 7-# 00 F ... : ... .. . ... ... : G-2 01 A ... ... : D-3 01 A ... ... : B-3 01 A ... ...
ROW AD : ... .. A ... ... ... : ... .. E ... ... ... : ... .. . ... : ... .. C ... : ... .. . ... ... : ... .. 9 ... ... : ... .. 9 ... ... : ... .. 8 ... ...
ROW AE : ... .. 7 ... ... ... : ... .. D ... ... ... : ... .. . ... : ... .. A ... : ... .. . ... ... : ... .. 8 ... ... : ... .. 8 ... ... : ... .. 5 ... ...
ROW AF : ... .. 0 ... ... ... : ... .. A ... ... ... : ... .. . ... : ... .. 8 ... : ... .. . ... ... : ... .. 7 ... ... : ... .. 7 ... ... : ... .. . ... ...
ROW B0 : G-3 00 5 P80 ... ... : ... .. . ... ... ... : ... .. . ... : ... .. 7 ... : ... .. . ... ... : ... .. . ... ... : ... .. . ... ... : ... .. . ... ...
ROW B1 : F-3 00 7 ... ... ... : ... .. . ... ... ... : ... .. . ... : ... .. 0 ... : ... .. . ... ... : ... .. 6 ... ... : ... .. 6 ... ... : ... .. . ... ...
ROW B2 : ... .. A ... ... ... : ... .. . ... ... ... : ... .. . ... : B-# 00 6 ... : ... .. . ... ... : ... .. . ... ... : ... .. . ... ... : ... .. . ... ...
ROW B3 : ... .. 7 ... ... ... : ... .. . ... ... ... : ... .. . ... : ... .. 2 ... : ... .. . ... ... : ... .. 5 ... ... : ... .. 5 ... ... : ... .. . ... ...
ROW B4 : ... .. 0 ... ... ... : ... .. . ... ... ... : ... .. . ... : ... .. . ... : ... .. . ... ... : ... .. . ... ... : ... .. . ... ... : ... .. . ... ...
ROW B5 : F-3 00 5 P80 ... ... : ... .. . ... ... ... : ... .. . ... : ... .. 0 ... : ... .. . ... ... : ... .. . ... ... : ... .. . ... ... : ... .. . ... ...
ROW B6 : C#3 00 7 ... ... ... : G-2 00 F ... ... ... : G-2 00 . ... : ... .. . ... : ... .. . ... ... : G#2 01 A ... ... : D#3 01 A ... ... : C-4 01 A ... ...
ROW B7 : ... .. A ... ... ... : ... .. E ... ... ... : ... .. . ... : ... .. A ... : ... .. . ... ... : ... .. 9 ... ... : ... .. 9 ... ... : ... .. 8 ... ...
ROW B8 : ... .. 7 ... ... ... : ... .. D ... ... ... : ... .. . ... : ... .. 4 ... : ... .. . ... ... : ... .. 8 ... ... : ... .. 8 ... ... : ... .. 5 ... ...
ROW B9 : ... .. 0 ... ... ... : ... .. A ... ... ... : ... .. . ... : ... .. . ... : ... .. . ... ... : ... .. 7 ... ... : ... .. 7 ... ... : ... .. . ... ...
ROW BA : C#3 00 5 P80 ... ... : ... .. . ... ... ... : ... .. . ... : ... .. 0 ... : ... .. . ... ... : ... .. . ... ... : ... .. . ... ... : ... .. . ... ...
ROW BB : B-2 00 7 ... ... ... : ... .. 0 ... ... ... : --- .. . ... : ... .. . ... : ... .. . ... ... : ... .. 6 ... ... : ... .. 6 ... ... : ... .. . ... ...
ROW BC : ... .. A ... ... ... : ... .. . ... ... ... : ... .. . ... : ... .. 8 ... : ... .. . ... ... : ... .. . ... ... : ... .. . ... ... : ... .. . ... ...
ROW BD : ... .. 7 ... ... ... : ... .. . ... ... ... : ... .. . ... : ... .. 3 ... : ... .. . ... ... : ... .. 5 ... ... : ... .. 5 ... ... : ... .. . ... ...
ROW BE : ... .. 0 ... ... ... : ... .. . ... ... ... : ... .. . ... : ... .. . ... : ... .. . ... ... : ... .. 1 ... ... : ... .. 1 ... ... : ... .. 1 ... ...
ROW BF : B-2 00 5 P80 ... ... : ... .. . ... ... ... : ... .. . ... : ... .. 0 ... : ... .. . ... ... : ... .. . ... ... : ... .. . ... ... : ... .. . ... ...
ROW C0 : G-3 00 7 ... ... ... : G-1 00 F P80 ... ... : F#3 00 . ... : ... .. . ... : ... .. . ... ... : ... .. 5 ... ... : ... .. 5 ... ... : ... .. 5 ... ...
ROW C1 : ... .. A ... ... ... : ... .. E ... ... ... : G#2 00 . ... : 2-# 00 F ... : ... .. . ... ... : ... .. . ... ... : ... .. . ... ... : ... .. . ... ...
ROW C2 : ... .. 7 ... ... ... : ... .. D ... ... ... : C#2 00 . ... : ... .. 6 ... : ... .. . ... ... : ... .. . ... ... : ... .. . ... ... : ... .. . ... ...
ROW C3 : ... .. 0 ... ... ... : ... .. A ... ... ... : C-2 00 . ... : ... .. . ... : ... .. . ... ... : ... .. . ... ... : ... .. . ... ... : ... .. . ... ...
ROW C4 : G-3 00 5 P80 ... ... : ... .. . ... ... ... : G-1 00 . ... : ... .. 0 ... : ... .. . ... ... : ... .. . ... ... : ... .. . ... ... : ... .. . ... ...
ROW C5 : F-3 00 7 ... ... ... : ... .. . ... ... ... : ... .. . ... : ... .. . ... : ... .. . ... ... : ... .. 2 ... ... : ... .. 2 ... ... : ... .. 1 ... ...
ROW C6 : ... .. A ... ... ... : ... .. . ... ... ... : ... .. . ... : B-# 00 6 ... : ... .. . ... ... : ... .. . ... ... : ... .. . ... ... : ... .. . ... ...
ROW C7 : ... .. 7 ... ... ... : ... .. . ... ... ... : ... .. . ... : ... .. 2 ... : ... .. . ... ... : ... .. . ... ... : ... .. . ... ... : ... .. . ... ...
ROW C8 : ... .. 0 ... ... ... : ... .. . ... ... ... : ... .. . ... : ... .. . ... : ... .. . ... ... : ... .. 1 ... ... : ... .. 1 ... ... : ... .. . ... ...
ROW C9 : F-3 00 5 P80 ... ... : ... .. . ... ... ... : ... .. . ... : ... .. 0 ... : ... .. . ... ... : ... .. . ... ... : ... .. . ... ... : ... .. . ... ...
ROW CA : C#3 00 7 ... ... ... : F-2 00 F ... ... ... : F-2 00 . ... : ... .. . ... : ... .. . ... ... : A#2 01 A ... ... : F-3 01 A ... ... : D-4 01 A ... ...
ROW CB : ... .. A ... ... ... : ... .. E ... ... ... : ... .. . ... : ... .. A ... : ... .. . ... ... : ... .. 9 ... ... : ... .. 9 ... ... : ... .. 8 ... ...
ROW CC : ... .. 7 ... ... ... : ... .. D ... ... ... : ... .. . ... : ... .. 4 ... : ... .. . ... ... : ... .. 8 ... ... : ... .. 8 ... ... : ... .. 5 ... ...
ROW CD : ... .. 0 ... ... ... : ... .. A ... ... ... : ... .. . ... : ... .. . ... : ... .. . ... ... : ... .. 7 ... ... : ... .. 7 ... ... : ... .. . ... ...
ROW CE : C#3 00 5 P80 ... ... : ... .. . ... ... ... : ... .. . ... : ... .. 0 ... : ... .. . ... ... : ... .. . ... ... : ... .. . ... ... : ... .. . ... ...
ROW CF : B-2 00 7 ... ... ... : ... .. . ... ... ... : ... .. . ... : ... .. . ... : ... .. . ... ... : ... .. 6 ... ... : ... .. 6 ... ... : ... .. . ... ...
ROW D0 : ... .. A ... ... ... : ... .. . ... ... ... : ... .. . ... : ... .. 8 ... : ... .. . ... ... : ... .. . ... ... : ... .. . ... ... : ... .. . ... ...
ROW D1 : ... .. 7 ... ... ... : ... .. . ... ... ... : ... .. . ... : ... .. 3 ... : ... .. . ... ... : ... .. 5 ... ... : ... .. 5 ... ... : ... .. . ... ...
ROW D2 : ... .. 0 ... ... ... : ... .. . ... ... ... : ... .. . ... : ... .. . ... : ... .. . ... ... : ... .. 1 ... ... : ... .. 1 ... ... : ... .. 1 ... ...
ROW D3 : B-2 00 5 P80 ... ... : ... .. . ... ... ... : ... .. . ... : ... .. 0 ... : ... .. . ... ... : ... .. . ... ... : ... .. . ... ... : ... .. . ... ...
ROW D4 : G-3 00 7 ... ... ... : ... .. . P70 ... ... : ... .. . P70 : 7-# 00 F ... : ... .. . ... ... : ... .. 5 ... ... : ... .. 5 ... ... : ... .. 5 ... ...
ROW D5 : ... .. A ... ... ... : E-2 00 A P86 ... ... : E-2 00 . P86 : ... .. C ... : ... .. . ... ... : ... .. . ... ... : ... .. . ... ... : ... .. . ... ...
ROW D6 : ... .. 7 ... ... ... : ... .. . P76 ... ... : ... .. . P76 : ... .. A ... : ... .. . ... ... : ... .. . ... ... : ... .. . ... ... : ... .. . ... ...
ROW D7 : ... .. 0 ... ... ... : D#2 00 A P8E ... ... : D#2 00 . P8E : ... .. 8 ... : ... .. . ... ... : ... .. . ... ... : ... .. . ... ... : ... .. . ... ...
ROW D8 : G-3 00 5 P80 ... ... : ... .. . P7E ... ... : ... .. . P7E : ... .. 7 ... : ... .. . ... ... : ... .. . ... ... : ... .. . ... ... : ... .. . ... ...
ROW D9 : F-3 00 7 ... ... ... : ... .. . P6E ... ... : ... .. . P6E : ... .. 0 ... : ... .. . ... ... : ... .. . ... ... : ... .. . ... ... : ... .. . ... ...
ROW DA : ... .. A ... ... ... : D-2 00 A P89 ... ... : D-2 00 . P89 : B-# 00 6 ... : ... .. . ... ... : ... .. . ... ... : ... .. . ... ... : ... .. . ... ...
ROW DB : ... .. 7 ... ... ... : ... .. . P79 ... ... : ... .. . P79 : ... .. 2 ... : ... .. . ... ... : ... .. . ... ... : ... .. . ... ... : ... .. . ... ...
ROW DC : ... .. 0 ... ... ... : C#2 00 A P96 ... ... : C#2 00 . P96 : ... .. . ... : ... .. . ... ... : ... .. 1 ... ... : ... .. 1 ... ... : ... .. 1 ... ...
ROW DD : F-3 00 5 P80 ... ... : ... .. . P86 ... ... : ... .. . P86 : ... .. 0 ... : ... .. . ... ... : ... .. . ... ... : ... .. . ... ... : ... .. . ... ...
ROW DE : C#3 00 7 ... ... ... : B-1 00 F P80 ... ... : B-1 00 . P80 : ... .. . ... : ... .. . ... ... : B-2 01 A ... ... : F#3 01 A ... ... : D#4 01 A ... ...
ROW DF : ... .. A ... ... ... : ... .. E ... ... ... : ... .. . ... : ... .. A ... : ... .. . ... ... : ... .. 9 ... ... : ... .. 9 ... ... : ... .. 8 ... ...
ROW E0 : ... .. 7 ... ... ... : ... .. D ... ... ... : ... .. . ... : ... .. 4 ... : ... .. . ... ... : ... .. 8 ... ... : ... .. 8 ... ... : ... .. 5 ... ...
ROW E1 : ... .. 0 ... ... ... : ... .. A ... ... ... : ... .. . ... : ... .. . ... : ... .. . ... ... : ... .. 7 ... ... : ... .. 7 ... ... : ... .. . ... ...
ROW E2 : C#3 00 5 P80 ... ... : ... .. . ... ... ... : ... .. . ... : ... .. 0 ... : ... .. . ... ... : ... .. . ... ... : ... .. . ... ... : ... .. . ... ...
ROW E3 : B-2 00 7 ... ... ... : ... .. . ... ... ... : ... .. . ... : ... .. . ... : ... .. . ... ... : ... .. 6 ... ... : ... .. 6 ... ... : ... .. . ... ...
ROW E4 : ... .. A ... ... ... : ... .. . ... ... ... : ... .. . ... : ... .. 8 ... : ... .. . ... ... : ... .. . ... ... : ... .. . ... ... : ... .. . ... ...
ROW E5 : ... .. 7 ... ... ... : ... .. . ... ... ... : ... .. . ... : ... .. 3 ... : ... .. . ... ... : ... .. 5 ... ... : ... .. 5 ... ... : ... .. . ... ...
ROW E6 : ... .. 0 ... ... ... : ... .. . ... ... ... : ... .. . ... : ... .. . ... : ... .. . ... ... : ... .. 1 ... ... : ... .. 1 ... ... : ... .. 1 ... ...
ROW E7 : B-2 00 5 P80 ... ... : ... .. . ... ... ... : ... .. . ... : ... .. 0 ... : ... .. . ... ... : ... .. . ... ... : ... .. . ... ... : ... .. . ... ...
ROW E8 : G-3 00 7 ... ... ... : F-1 00 F ... ... ... : E-3 00 . ... : 2-# 00 F ... : ... .. . ... ... : ... .. 5 ... ... : ... .. 5 ... ... : ... .. 5 ... ...
ROW E9 : ... .. A ... ... ... : ... .. E ... ... ... : F#2 00 . ... : ... .. C ... : ... .. . ... ... : ... .. . ... ... : ... .. . ... ... : ... .. . ... ...
ROW EA : ... .. 7 ... ... ... : ... .. D ... ... ... : B-1 00 . ... : ... .. 6 ... : ... .. . ... ... : ... .. . ... ... : ... .. . ... ... : ... .. . ... ...
ROW EB : ... .. 0 ... ... ... : ... .. A ... ... ... : A#1 00 . ... : ... .. 3 ... : ... .. . ... ... : ... .. . ... ... : ... .. . ... ... : ... .. . ... ...
ROW EC : G-3 00 5 P80 ... ... : ... .. . ... ... ... : F-1 00 . ... : ... .. 2 ... : ... .. . ... ... : ... .. . ... ... : ... .. . ... ... : ... .. . ... ...
ROW ED : F-3 00 7 ... ... ... : ... .. . ... ... ... : ... .. . ... : ... .. 0 ... : ... .. . ... ... : ... .. 2 ... ... : ... .. 2 ... ... : ... .. 1 ... ...
ROW EE : ... .. A ... ... ... : ... .. . ... ... ... : ... .. . ... : B-# 00 8 ... : ... .. . ... ... : ... .. . ... ... : ... .. . ... ... : ... .. . ... ...
ROW EF : ... .. 7 ... ... ... : ... .. . ... ... ... : ... .. . ... : ... .. 3 ... : ... .. . ... ... : ... .. . ... ... : ... .. . ... ... : ... .. . ... ...
ROW F0 : ... .. 0 ... ... ... : ... .. . ... ... ... : ... .. . ... : ... .. . ... : ... .. . ... ... : ... .. 1 ... ... : ... .. 1 ... ... : ... .. . ... ...
ROW F1 : F-3 00 5 P80 ... ... : ... .. . ... ... ... : ... .. . ... : ... .. 0 ... : ... .. . ... ... : ... .. . ... ... : ... .. . ... ... : ... .. . ... ...
ROW F2 : C#3 00 7 ... ... ... : G-1 00 F ... ... ... : F#3 00 . ... : 2-# 00 F ... : ... .. . ... ... : C-3 01 A ... ... : G-3 01 A ... ... : E-4 01 A ... ...
ROW F3 : ... .. A ... ... ... : ... .. E ... ... ... : G#2 00 . ... : ... .. C ... : ... .. . ... ... : ... .. 9 ... ... : ... .. 9 ... ... : ... .. 8 ... ...
ROW F4 : ... .. 7 ... ... ... : ... .. D ... ... ... : C#2 00 . ... : ... .. 6 ... : ... .. . ... ... : ... .. 8 ... ... : ... .. 8 ... ... : ... .. 5 ... ...
ROW F5 : ... .. 0 ... ... ... : ... .. A ... ... ... : C-2 00 . ... : ... .. 3 ... : ... .. . ... ... : ... .. 7 ... ... : ... .. 7 ... ... : ... .. . ... ...
ROW F6 : C#3 00 5 P80 ... ... : ... .. . ... ... ... : G-1 00 . ... : ... .. 2 ... : ... .. . ... ... : ... .. . ... ... : ... .. . ... ... : ... .. . ... ...
ROW F7 : B-2 00 7 ... ... ... : ... .. . ... ... ... : ... .. . ... : ... .. 0 ... : ... .. . ... ... : ... .. 6 ... ... : ... .. 6 ... ... : ... .. . ... ...
ROW F8 : ... .. A ... ... ... : ... .. . ... ... ... : ... .. . ... : B-# 00 8 ... : ... .. . ... ... : ... .. . ... ... : ... .. . ... ... : ... .. . ... ...
ROW F9 : ... .. 7 ... ... ... : ... .. . ... ... ... : ... .. . ... : ... .. 3 ... : ... .. . ... ... : ... .. 5 ... ... : ... .. 5 ... ... : ... .. . ... ...
ROW FA : ... .. 0 ... ... ... : ... .. . ... ... ... : ... .. . ... : ... .. . ... : ... .. . ... ... : ... .. 1 ... ... : ... .. 1 ... ... : ... .. 1 ... ...
ROW FB : B-2 00 5 P80 ... ... : ... .. . ... ... ... : ... .. . ... : ... .. 0 ... : ... .. . ... ... : ... .. . ... ... : ... .. . ... ... : ... .. . ... ...
ROW FC : G-3 00 7 ... ... ... : B-0 00 F ... ... ... : B-0 00 . ... : 7-# 00 F ... : ... .. . ... ... : ... .. 5 ... ... : ... .. 5 ... ... : ... .. 5 ... ...
ROW FD : ... .. A ... ... ... : ... .. E ... ... ... : ... .. . ... : ... .. C ... : ... .. . ... ... : ... .. . ... ... : ... .. . ... ... : ... .. . ... ...
ROW FE : ... .. 7 ... ... ... : ... .. D ... ... ... : ... .. . ... : ... .. A ... : ... .. . ... ... : ... .. . ... ... : ... .. . ... ... : ... .. . ... ...
ROW FF : ... .. 0 ... ... ... : ... .. A ... ... ... : ... .. . ... : ... .. 8 ... : ... .. . ... ... : ... .. . ... ... : ... .. . ... ... : ... .. . ... ...

PATTERN 0E
ROW 00 : G-3 00 5 P80 ... ... : ... .. . ... ... ... : ... .. . ... : ... .. 7 ... : ... .. . ... ... : ... .. . ... ... : ... .. . ... ... : ... .. . ... ...
ROW 01 : F-3 00 7 ... ... ... : ... .. . ... ... ... : ... .. . ... : ... .. 0 ... : ... .. . ... ... : ... .. . ... ... : ... .. . ... ... : ... .. . ... ...
ROW 02 : ... .. A ... ... ... : ... .. . ... ... ... : ... .. . ... : B-# 00 6 ... : ... .. . ... ... : ... .. . ... ... : ... .. . ... ... : ... .. . ... ...
ROW 03 : ... .. 7 ... ... ... : ... .. . ... ... ... : ... .. . ... : ... .. 2 ... : ... .. . ... ... : ... .. . ... ... : ... .. . ... ... : ... .. . ... ...
ROW 04 : ... .. 0 ... ... ... : ... .. 0 ... ... ... : --- .. . ... : ... .. . ... : ... .. . ... ... : ... .. 1 ... ... : ... .. 1 ... ... : ... .. 1 ... ...
ROW 05 : F-3 00 5 P80 ... ... : ... .. . ... ... ... : ... .. . ... : ... .. 0 ... : ... .. . ... ... : ... .. . ... ... : ... .. . ... ... : ... .. . ... ...
ROW 06 : C#3 00 7 ... ... ... : C#1 00 F P80 ... ... : C#1 00 . ... : ... .. . ... : ... .. . ... ... : C#3 01 A ... ... : G#3 01 A ... ... : F-4 01 A ... ...
ROW 07 : ... .. A ... ... ... : ... .. E ... ... ... : ... .. . ... : ... .. A ... : ... .. . ... ... : ... .. 9 ... ... : ... .. 9 ... ... : ... .. 8 ... ...
ROW 08 : ... .. 7 ... ... ... : ... .. D ... ... ... : ... .. . ... : ... .. 4 ... : ... .. . ... ... : ... .. 8 ... ... : ... .. 8 ... ... : ... .. 5 ... ...
ROW 09 : ... .. 0 ... ... ... : ... .. A ... ... ... : ... .. . ... : ... .. . ... : ... .. . ... ... : ... .. 7 ... ... : ... .. 7 ... ... : ... .. . ... ...
ROW 0A : C#3 00 5 P80 ... ... : ... .. . ... ... ... : ... .. . ... : ... .. 0 ... : ... .. . ... ... : ... .. . ... ... : ... .. . ... ... : ... .. . ... ...
ROW 0B : B-2 00 7 ... ... ... : ... .. . ... ... ... : ... .. . ... : ... .. . ... : ... .. . ... ... : ... .. 6 ... ... : ... .. 6 ... ... : ... .. . ... ...
ROW 0C : ... .. A ... ... ... : ... .. . ... ... ... : ... .. . ... : ... .. 8 ... : ... .. . ... ... : ... .. . ... ... : ... .. . ... ... : ... .. . ... ...
ROW 0D : ... .. 7 ... ... ... : ... .. . ... ... ... : ... .. . ... : ... .. 3 ... : ... .. . ... ... : ... .. 5 ... ... : ... .. 5 ... ... : ... .. . ... ...
ROW 0E : ... .. 0 ... ... ... : ... .. 0 ... ... ... : --- .. . ... : ... .. . ... : ... .. . ... ... : ... .. 1 ... ... : ... .. 1 ... ... : ... .. 1 ... ...
ROW 0F : B-2 00 5 P80 ... ... : ... .. . ... ... ... : ... .. . ... : ... .. 0 ... : ... .. . ... ... : ... .. . ... ... : ... .. . ... ... : ... .. . ... ...
ROW 10 : G-3 00 7 ... ... ... : G-1 00 F P80 ... ... : F#3 00 . ... : 9-# 00 D ... : ... .. . ... ... : ... .. 5 ... ... : ... .. 5 ... ... : ... .. 5 ... ...
ROW 11 : ... .. A ... ... ... : ... .. E ... ... ... : G#2 00 . ... : ... .. . ... : ... .. . ... ... : ... .. . ... ... : ... .. . ... ... : ... .. . ... ...
ROW 12 : ... .. 7 ... ... ... : ... .. D ... ... ... : C#2 00 . ... : ... .. . ... : ... .. . ... ... : ... .. . ... ... : ... .. . ... ... : ... .. . ... ...
ROW 13 : ... .. 0 ... ... ... : ... .. A ... ... ... : C-2 00 . ... : ... .. B ... : ... .. . ... ... : ... .. . ... ... : ... .. . ... ... : ... .. . ... ...
ROW 14 : G-3 00 5 P80 ... ... : ... .. . ... ... ... : G-1 00 . ... : ... .. . ... : ... .. . ... ... : ... .. . ... ... : ... .. . ... ... : ... .. . ... ...
ROW 15 : F-3 00 7 ... ... ... : ... .. . ... ... ... : ... .. . ... : ... .. A ... : ... .. . ... ... : ... .. 2 ... ... : ... .. 2 ... ... : ... .. 1 ... ...
ROW 16 : ... .. A ... ... ... : ... .. . ... ... ... : ... .. . ... : ... .. . ... : ... .. . ... ... : ... .. . ... ... : ... .. . ... ... : ... .. . ... ...
ROW 17 : ... .. 7 ... ... ... : ... .. . ... ... ... : ... .. . ... : ... .. . ... : ... .. . ... ... : ... .. . ... ... : ... .. . ... ... : ... .. . ... ...
ROW 18 : ... .. 0 ... ... ... : ... .. . ... ... ... : ... .. . ... : ... .. 9 ... : ... .. . ... ... : ... .. 1 ... ... : ... .. 1 ... ... : ... .. . ... ...
ROW 19 : F-3 00 5 P80 ... ... : ... .. . ... ... ... : ... .. . ... : ... .. . ... : ... .. . ... ... : ... .. . ... ... : ... .. . ... ... : ... .. . ... ...
ROW 1A : C#3 00 7 ... ... ... : F-2 00 F ... ... ... : F-2 00 . ... : ... .. 7 ... : ... .. . ... ... : D-3 01 A ... ... : A-3 01 A ... ... : F#4 01 A ... ...
ROW 1B : ... .. A ... ... ... : ... .. E ... ... ... : ... .. . ... : ... .. . ... : ... .. . ... ... : ... .. 9 ... ... : ... .. 9 ... ... : ... .. 8 ... ...
ROW 1C : ... .. 7 ... ... ... : ... .. D ... ... ... : ... .. . ... : ... .. . ... : ... .. . ... ... : ... .. 8 ... ... : ... .. 8 ... ... : ... .. 5 ... ...
ROW 1D : ... .. 0 ... ... ... : ... .. 0 ... ... ... : --- .. . ... : ... .. 6 ... : ... .. . ... ... : ... .. 7 ... ... : ... .. 7 ... ... : ... .. . ... ...
ROW 1E : C#3 00 5 P80 ... ... : ... .. . ... ... ... : ... .. . ... : ... .. . ... : ... .. . ... ... : ... .. . ... ... : ... .. . ... ... : ... .. . ... ...
ROW 1F : B-2 00 7 ... ... ... : F-2 00 F P80 ... ... : E-4 00 . ... : ... .. 5 ... : ... .. . ... ... : ... .. 6 ... ... : ... .. 6 ... ... : ... .. . ... ...
ROW 20 : ... .. A ... ... ... : ... .. E ... ... ... : F#3 00 . ... : ... .. . ... : ... .. . ... ... : ... .. . ... ... : ... .. . ... ... : ... .. . ... ...
ROW 21 : ... .. 7 ... ... ... : ... .. D ... ... ... : B-2 00 . ... : ... .. . ... : ... .. . ... ... : ... .. 5 ... ... : ... .. 5 ... ... : ... .. . ... ...
ROW 22 : ... .. 0 ... ... ... : ... .. 0 ... ... ... : --- .. . ... : ... .. 4 ... : ... .. . ... ... : ... .. 1 ... ... : ... .. 1 ... ... : ... .. 1 ... ...
ROW 23 : B-2 00 5 P80 ... ... : ... .. . ... ... ... : ... .. . ... : ... .. . ... : ... .. . ... ... : ... .. . ... ... : ... .. . ... ... : ... .. . ... ...
ROW 24 : G-3 00 7 ... ... ... : F-2 00 F P80 ... ... : F-2 00 . ... : 7-# 00 F ... : ... .. . ... ... : ... .. 5 ... ... : ... .. 5 ... ... : ... .. 5 ... ...
ROW 25 : ... .. A ... ... ... : ... .. E ... ... ... : ... .. . ... : ... .. C ... : ... .. . ... ... : ... .. . ... ... : ... .. . ... ... : ... .. . ... ...
ROW 26 : ... .. 7 ... ... ... : ... .. D ... ... ... : ... .. . ... : ... .. A ... : ... .. . ... ... : ... .. . ... ... : ... .. . ... ... : ... .. . ... ...
ROW 27 : ... .. 0 ... ... ... : ... .. 0 ... ... ... : --- .. . ... : ... .. 8 ... : ... .. . ... ... : ... .. . ... ... : ... .. . ... ... : ... .. . ... ...
ROW 28 : G-3 00 5 P80 ... ... : ... .. . ... ... ... : ... .. . ... : ... .. 7 ... : ... .. . ... ... : ... .. . ... ... : ... .. . ... ... : ... .. . ... ...
ROW 29 : F-3 00 7 ... ... ... : F-2 00 F P80 ... ... : F-2 00 . ... : ... .. 0 ... : ... .. . ... ... : ... .. . ... ... : ... .. . ... ... : ... .. . ... ...
ROW 2A : ... .. A ... ... ... : ... .. E ... ... ... : ... .. . ... : B-# 00 6 ... : ... .. . ... ... : ... .. . ... ... : ... .. . ... ... : ... .. . ... ...
ROW 2B : ... .. 7 ... ... ... : ... .. D ... ... ... : ... .. . ... : ... .. 2 ... : ... .. . ... ... : ... .. . ... ... : ... .. . ... ... : ... .. . ... ...
ROW 2C : ... .. 0 ... ... ... : ... .. 0 ... ... ... : --- .. . ... : ... .. . ... : ... .. . ... ... : ... .. 1 ... ... : ... .. 1 ... ... : ... .. 1 ... ...
ROW 2D : F-3 00 5 P80 ... ... : ... .. . ... ... ... : ... .. . ... : ... .. 0 ... : ... .. . ... ... : ... .. . ... ... : ... .. . ... ... : ... .. . ... ...
ROW 2E : C#3 00 7 ... ... ... : G-1 00 F P80 ... ... : F#3 00 . ... : 9-# 00 D ... : ... .. . ... ... : C#3 01 A ... ... : G#3 01 A ... ... : F-4 01 A ... ...
ROW 2F : ... .. A ... ... ... : ... .. E ... ... ... : G#2 00 . ... : ... .. . ... : ... .. . ... ... : ... .. 9 ... ... : ... .. 9 ... ... : ... .. 8 ... ...
ROW 30 : ... .. 7 ... ... ... : ... .. D ... ... ... : C#2 00 . ... : ... .. . ... : ... .. . ... ... : ... .. 8 ... ... : ... .. 8 ... ... : ... .. 5 ... ...
ROW 31 : ... .. 0 ... ... ... : ... .. A ... ... ... : C-2 00 . ... : ... .. B ... : ... .. . ... ... : ... .. 7 ... ... : ... .. 7 ... ... : ... .. . ... ...
ROW 32 : C#3 00 5 P80 ... ... : ... .. . ... ... ... : G-1 00 . ... : ... .. . ... : ... .. . ... ... : ... .. . ... ... : ... .. . ... ... : ... .. . ... ...
ROW 33 : B-2 00 7 ... ... ... : ... .. . ... ... ... : ... .. . ... : ... .. A ... : ... .. . ... ... : ... .. 6 ... ... : ... .. 6 ... ... : ... .. . ... ...
ROW 34 : ... .. A ... ... ... : ... .. . ... ... ... : ... .. . ... : ... .. . ... : ... .. . ... ... : ... .. . ... ... : ... .. . ... ... : ... .. . ... ...
ROW 35 : ... .. 7 ... ... ... : ... .. . ... ... ... : ... .. . ... : ... .. . ... : ... .. . ... ... : ... .. 5 ... ... : ... .. 5 ... ... : ... .. . ... ...
ROW 36 : ... .. 0 ... ... ... : ... .. . ... ... ... : ... .. . ... : ... .. 9 ... : ... .. . ... ... : ... .. 1 ... ... : ... .. 1 ... ... : ... .. 1 ... ...
ROW 37 : B-2 00 5 P80 ... ... : ... .. . ... ... ... : ... .. . ... : ... .. . ... : ... .. . ... ... : ... .. . ... ... : ... .. . ... ... : ... .. . ... ...
ROW 38 : G-3 00 7 ... ... ... : F-2 00 F ... ... ... : F-2 00 . ... : ... .. 7 ... : ... .. . ... ... : ... .. 5 ... ... : ... .. 5 ... ... : ... .. 5 ... ...
ROW 39 : ... .. A ... ... ... : ... .. E ... ... ... : ... .. . ... : ... .. . ... : ... .. . ... ... : ... .. . ... ... : ... .. . ... ... : ... .. . ... ...
ROW 3A : ... .. 7 ... ... ... : ... .. D ... ... ... : ... .. . ... : ... .. . ... : ... .. . ... ... : ... .. . ... ... : ... .. . ... ... : ... .. . ... ...
ROW 3B : ... .. 0 ... ... ... : ... .. 0 ... ... ... : --- .. . ... : ... .. 6 ... : ... .. . ... ... : ... .. . ... ... : ... .. . ... ... : ... .. . ... ...
ROW 3C : G-3 00 5 P80 ... ... : ... .. . ... ... ... : ... .. . ... : ... .. . ... : ... .. . ... ... : ... .. . ... ... : ... .. . ... ... : ... .. . ... ...
ROW 3D : F-3 00 7 ... ... ... : F-2 00 F P80 ... ... : F-2 00 . ... : ... .. 5 ... : ... .. . ... ... : ... .. 2 ... ... : ... .. 2 ... ... : ... .. 1 ... ...
ROW 3E : ... .. A ... ... ... : ... .. E ... ... ... : ... .. . ... : ... .. . ... : ... .. . ... ... : ... .. . ... ... : ... .. . ... ... : ... .. . ... ...
ROW 3F : ... .. 7 ... ... ... : ... .. D ... ... ... : ... .. . ... : ... .. . ... : ... .. . ... ... : ... .. . ... ... : ... .. . ... ... : ... .. . ... ...
ROW 40 : ... .. 0 ... ... ... : ... .. 0 ... ... ... : --- .. . ... : ... .. 4 ... : ... .. . ... ... : ... .. 1 ... ... : ... .. 1 ... ... : ... .. . ... ...
ROW 41 : F-3 00 5 P80 ... ... : ... .. . ... ... ... : ... .. . ... : ... .. . ... : ... .. . ... ... : ... .. . ... ... : ... .. . ... ... : ... .. . ... ...
ROW 42 : C#3 00 7 ... ... ... : F-2 00 F P80 ... ... : F-2 00 . ... : ... .. 0 ... : ... .. . ... ... : C-3 01 A ... ... : G-3 01 A ... ... : E-4 01 A ... ...
ROW 43 : ... .. A ... ... ... : ... .. E ... ... ... : ... .. . ... : B-# 00 8 ... : ... .. . ... ... : ... .. 9 ... ... : ... .. 9 ... ... : ... .. 8 ... ...
ROW 44 : ... .. 7 ... ... ... : ... .. D ... ... ... : ... .. . ... : ... .. 3 ... : ... .. . ... ... : ... .. 8 ... ... : ... .. 8 ... ... : ... .. 5 ... ...
ROW 45 : ... .. 0 ... ... ... : ... .. 0 ... ... ... : --- .. . ... : ... .. . ... : ... .. . ... ... : ... .. 7 ... ... : ... .. 7 ... ... : ... .. . ... ...
ROW 46 : C#3 00 5 P80 ... ... : ... .. . ... ... ... : ... .. . ... : ... .. 0 ... : ... .. . ... ... : ... .. . ... ... : ... .. . ... ... : ... .. . ... ...
ROW 47 : B-2 00 7 ... ... ... : F-2 00 F P80 ... ... : F-2 00 . ... : ... .. . ... : ... .. . ... ... : ... .. 6 ... ... : ... .. 6 ... ... : ... .. . ... ...
ROW 48 : ... .. A ... ... ... : ... .. E ... ... ... : ... .. . ... : ... .. 6 ... : ... .. . ... ... : ... .. . ... ... : ... .. . ... ... : ... .. . ... ...
ROW 49 : ... .. 7 ... ... ... : ... .. D ... ... ... : ... .. . ... : ... .. 2 ... : ... .. . ... ... : ... .. 5 ... ... : ... .. 5 ... ... : ... .. . ... ...
ROW 4A : ... .. 0 ... ... ... : ... .. 0 ... ... ... : --- .. . ... : ... .. . ... : ... .. . ... ... : ... .. 1 ... ... : ... .. 1 ... ... : ... .. 1 ... ...
ROW 4B : B-2 00 5 P80 ... ... : ... .. . ... ... ... : ... .. . ... : ... .. 0 ... : ... .. . ... ... : ... .. . ... ... : ... .. . ... ... : ... .. . ... ...
ROW 4C : G-3 00 7 ... ... ... : B-1 00 F P80 ... ... : B-1 00 . ... : 7-# 00 F ... : ... .. . ... ... : B-2 01 A ... ... : F#3 01 A ... ... : D#4 01 A ... ...
ROW 4D : ... .. A ... ... ... : ... .. E ... ... ... : ... .. . ... : ... .. C ... : ... .. . ... ... : ... .. 9 ... ... : ... .. 9 ... ... : ... .. 8 ... ...
ROW 4E : ... .. 7 ... ... ... : ... .. D ... ... ... : ... .. . ... : ... .. A ... : ... .. . ... ... : ... .. 8 ... ... : ... .. 8 ... ... : ... .. 5 ... ...
ROW 4F : ... .. 0 ... ... ... : ... .. A ... ... ... : ... .. . ... : ... .. 0 ... : ... .. . ... ... : ... .. 7 ... ... : ... .. 7 ... ... : ... .. . ... ...
ROW 50 : G-3 00 5 P80 ... ... : ... .. . ... ... ... : ... .. . ... : ... .. . ... : ... .. . ... ... : ... .. . ... ... : ... .. . ... ... : ... .. . ... ...
ROW 51 : F-3 00 7 ... ... ... : ... .. . ... ... ... : ... .. . ... : 6-# 00 F ... : ... .. . ... ... : ... .. 6 ... ... : ... .. 6 ... ... : ... .. . ... ...
ROW 52 : ... .. A ... ... ... : ... .. . ... ... ... : ... .. . ... : ... .. C ... : ... .. . ... ... : ... .. . ... ... : ... .. . ... ... : ... .. . ... ...
ROW 53 : ... .. 7 ... ... ... : ... .. . ... ... ... : ... .. . ... : ... .. A ... : ... .. . ... ... : ... .. 5 ... ... : ... .. 5 ... ... : ... .. . ... ...
ROW 54 : ... .. 0 ... ... ... : ... .. . ... ... ... : ... .. . ... : ... .. 0 ... : ... .. . ... ... : ... .. . ... ... : ... .. . ... ... : ... .. . ... ...
ROW 55 : F-3 00 5 P80 ... ... : ... .. . ... ... ... : ... .. . ... : ... .. . ... : ... .. . ... ... : ... .. . ... ... : ... .. . ... ... : ... .. . ... ...
ROW 56 : C#3 00 7 ... ... ... : C#2 00 F ... ... ... : C#2 00 . ... : 5-# 00 F ... : ... .. . ... ... : ... .. . P84 ... : ... .. . P83 ... : ... .. . P85 ...
ROW 57 : ... .. A ... ... ... : ... .. E ... ... ... : ... .. . ... : ... .. C ... : ... .. . ... ... : ... .. . P86 ... : ... .. . P85 ... : E-4 01 5 P7C ...
ROW 58 : ... .. 7 ... ... ... : ... .. D ... ... ... : ... .. . ... : ... .. A ... : ... .. . ... ... : ... .. . P85 ... : ... .. . P84 ... : ... .. . P7B ...
ROW 59 : ... .. 0 ... ... ... : ... .. A ... ... ... : ... .. . ... : ... .. 0 ... : ... .. . ... ... : ... .. . P82 ... : ... .. . P81 ... : D#4 01 5 P83 ...
ROW 5A : C#3 00 5 P80 ... ... : ... .. . ... ... ... : ... .. . ... : ... .. . ... : ... .. . ... ... : ... .. . P7E ... : ... .. . P7D ... : ... .. . P7F ...
ROW 5B : B-2 00 7 ... ... ... : ... .. . ... ... ... : ... .. . ... : 4-# 00 F ... : ... .. . ... ... : ... .. . P7B ... : ... .. . P7A ... : ... .. . P7C ...
ROW 5C : ... .. A ... ... ... : ... .. . ... ... ... : ... .. . ... : ... .. C ... : ... .. . ... ... : ... .. . P7A ... : ... .. . P79 ... : ... .. . P7B ...
ROW 5D : ... .. 7 ... ... ... : ... .. . ... ... ... : ... .. . ... : ... .. A ... : ... .. . ... ... : ... .. . P7C ... : ... .. . P7B ... : ... .. . P7D ...
ROW 5E : ... .. 0 ... ... ... : ... .. 0 ... ... ... : --- .. . ... : ... .. 8 ... : ... .. . ... ... : ... .. . P80 ... : ... .. . P7F ... : ... .. . P81 ...
ROW 5F : B-2 00 5 P80 ... ... : ... .. . ... ... ... : ... .. . ... : ... .. 7 ... : ... .. . ... ... : ... .. . P83 ... : ... .. . P82 ... : ... .. . P84 ...
ROW 60 : G-4 00 7 ... ... ... : G-2 00 F P80 ... ... : F#4 00 . ... : 9-# 00 D ... : ... .. . ... ... : --- .. . P7C ... : --- .. . P81 ... : --- .. . ... ...
ROW 61 : ... .. A ... ... ... : ... .. E ... ... ... : G#3 00 . ... : ... .. . ... : ... .. . ... ... : ... .. . ... ... : ... .. . ... ... : ... .. . ... ...
ROW 62 : ... .. 7 ... ... ... : ... .. D ... ... ... : C#3 00 . ... : ... .. . ... : ... .. . ... ... : ... .. . ... ... : ... .. . ... ... : ... .. . ... ...
ROW 63 : ... .. 0 ... ... ... : ... .. A ... ... ... : C-3 00 . ... : ... .. B ... : ... .. . ... ... : ... .. . ... ... : ... .. . ... ... : ... .. . ... ...
ROW 64 : G-4 00 5 P80 ... ... : ... .. . ... ... ... : G-2 00 . ... : ... .. . ... : ... .. . ... ... : ... .. . ... ... : ... .. . ... ... : ... .. . ... ...
ROW 65 : F-4 00 7 ... ... ... : ... .. . ... ... ... : ... .. . ... : ... .. A ... : ... .. . ... ... : ... .. . ... ... : ... .. . ... ... : ... .. . ... ...
ROW 66 : ... .. A ... ... ... : ... .. . ... ... ... : ... .. . ... : ... .. . ... : ... .. . ... ... : ... .. . ... ... : ... .. . ... ... : ... .. . ... ...
ROW 67 : ... .. 7 ... ... ... : ... .. . ... ... ... : ... .. . ... : ... .. . ... : ... .. . ... ... : ... .. . ... ... : ... .. . ... ... : ... .. . ... ...
ROW 68 : ... .. 0 ... ... ... : ... .. . ... ... ... : ... .. . ... : ... .. 9 ... : ... .. . ... ... : ... .. . ... ... : ... .. . ... ... : ... .. . ... ...
ROW 69 : F-4 00 5 P80 ... ... : ... .. . ... ... ... : ... .. . ... : ... .. . ... : ... .. . ... ... : ... .. . ... ... : ... .. . ... ... : ... .. . ... ...
ROW 6A : C#4 00 7 ... ... ... : ... .. . ... ... ... : ... .. . ... : ... .. 7 ... : ... .. . ... ... : A#2 01 A P80 ... : F-3 01 A P7F ... : D-4 01 A P81 ...
ROW 6B : ... .. A ... ... ... : ... .. . ... ... ... : ... .. . ... : ... .. . ... : ... .. . ... ... : ... .. 9 ... ... : ... .. 9 ... ... : ... .. 8 ... ...
ROW 6C : ... .. 7 ... ... ... : ... .. . ... ... ... : ... .. . ... : ... .. . ... : ... .. . ... ... : ... .. 8 ... ... : ... .. 8 ... ... : ... .. 5 ... ...
ROW 6D : ... .. 0 ... ... ... : F#2 00 A P82 ... ... : F#2 00 . P82 : ... .. 6 ... : ... .. . ... ... : ... .. 7 ... ... : ... .. 7 ... ... : ... .. . ... ...
ROW 6E : C#4 00 5 P80 ... ... : F-2 00 A P86 ... ... : F-2 00 . P86 : ... .. . ... : ... .. . ... ... : ... .. . ... ... : ... .. . ... ... : ... .. . ... ...
ROW 6F : B-3 00 7 ... ... ... : E-2 00 A P8C ... ... : E-2 00 . P8C : ... .. 5 ... : ... .. . ... ... : ... .. 6 ... ... : ... .. 6 ... ... : ... .. . ... ...
ROW 70 : ... .. A ... ... ... : D#2 00 A P94 ... ... : D#2 00 . P94 : ... .. . ... : ... .. . ... ... : ... .. . ... ... : ... .. . ... ... : ... .. . ... ...
ROW 71 : ... .. 7 ... ... ... : ... .. . P74 ... ... : ... .. . P74 : ... .. . ... : ... .. . ... ... : ... .. 5 ... ... : ... .. 5 ... ... : ... .. . ... ...
ROW 72 : ... .. 0 ... ... ... : D-2 00 A P7F ... ... : D-2 00 . P7F : ... .. 4 ... : ... .. . ... ... : ... .. 1 ... ... : ... .. 1 ... ... : ... .. 1 ... ...
ROW 73 : B-3 00 5 P80 ... ... : C#2 00 A P8C ... ... : C#2 00 . P8C : ... .. . ... : ... .. . ... ... : ... .. . ... ... : ... .. . ... ... : ... .. . ... ...
ROW 74 : G-4 00 7 ... ... ... : F-2 00 F P80 ... ... : F-2 00 . P80 : 7-# 00 F ... : ... .. . ... ... : ... .. 5 ... ... : ... .. 5 ... ... : ... .. 5 ... ...
ROW 75 : ... .. A ... ... ... : ... .. E ... ... ... : ... .. . ... : ... .. C ... : ... .. . ... ... : ... .. . ... ... : ... .. . ... ... : ... .. . ... ...
ROW 76 : ... .. 7 ... ... ... : ... .. D ... ... ... : ... .. . ... : ... .. A ... : ... .. . ... ... : ... .. . ... ... : ... .. . ... ... : ... .. . ... ...
ROW 77 : ... .. 0 ... ... ... : ... .. A ... ... ... : ... .. . ... : ... .. 8 ... : ... .. . ... ... : ... .. . ... ... : ... .. . ... ... : ... .. . ... ...
ROW 78 : G-4 00 5 P80 ... ... : ... .. . ... ... ... : ... .. . ... : ... .. 7 ... : ... .. . ... ... : ... .. . ... ... : ... .. . ... ... : ... .. . ... ...
ROW 79 : F-4 00 7 ... ... ... : ... .. . ... ... ... : ... .. . ... : ... .. 0 ... : ... .. . ... ... : ... .. . ... ... : ... .. . ... ... : ... .. . ... ...
ROW 7A : ... .. A ... ... ... : ... .. . ... ... ... : ... .. . ... : B-# 00 6 ... : ... .. . ... ... : ... .. . ... ... : ... .. . ... ... : ... .. . ... ...
ROW 7B : ... .. 7 ... ... ... : ... .. . ... ... ... : ... .. . ... : ... .. 2 ... : ... .. . ... ... : ... .. . ... ... : ... .. . ... ... : ... .. . ... ...
ROW 7C : ... .. 0 ... ... ... : ... .. . ... ... ... : ... .. . ... : ... .. . ... : ... .. . ... ... : ... .. 1 ... ... : ... .. 1 ... ... : ... .. 1 ... ...
ROW 7D : F-4 00 5 P80 ... ... : ... .. . ... ... ... : ... .. . ... : ... .. 0 ... : ... .. . ... ... : ... .. . ... ... : ... .. . ... ... : ... .. . ... ...
ROW 7E : C#4 00 7 ... ... ... : G-2 00 F ... ... ... : G-2 00 . ... : ... .. . ... : ... .. . ... ... : A-2 01 A ... ... : E-3 01 A ... ... : C#4 01 A ... ...
ROW 7F : ... .. A ... ... ... : ... .. E ... ... ... : ... .. . ... : ... .. A ... : ... .. . ... ... : ... .. 9 ... ... : ... .. 9 ... ... : ... .. 8 ... ...
ROW 80 : ... .. 7 ... ... ... : ... .. D ... ... ... : ... .. . ... : ... .. 4 ... : ... .. . ... ... : ... .. 8 ... ... : ... .. 8 ... ... : ... .. 5 ... ...
ROW 81 : ... .. 0 ... ... ... : ... .. A ... ... ... : ... .. . ... : ... .. . ... : ... .. . ... ... : ... .. 7 ... ... : ... .. 7 ... ... : ... .. . ... ...
ROW 82 : C#4 00 5 P80 ... ... : ... .. . ... ... ... : ... .. . ... : ... .. 0 ... : ... .. . ... ... : ... .. . ... ... : ... .. . ... ... : ... .. . ... ...
ROW 83 : B-3 00 7 ... ... ... : ... .. . ... ... ... : ... .. . ... : ... .. . ... : ... .. . ... ... : ... .. 6 ... ... : ... .. 6 ... ... : ... .. . ... ...
ROW 84 : ... .. A ... ... ... : ... .. . ... ... ... : ... .. . ... : ... .. 8 ... : ... .. . ... ... : ... .. . ... ... : ... .. . ... ... : ... .. . ... ...
ROW 85 : ... .. 7 ... ... ... : ... .. . ... ... ... : ... .. . ... : ... .. 3 ... : ... .. . ... ... : ... .. 5 ... ... : ... .. 5 ... ... : ... .. . ... ...
ROW 86 : ... .. 0 ... ... ... : ... .. . ... ... ... : ... .. . ... : ... .. . ... : ... .. . ... ... : ... .. 1 ... ... : ... .. 1 ... ... : ... .. 1 ... ...
ROW 87 : B-3 00 5 P80 ... ... : ... .. . ... ... ... : ... .. . ... : ... .. 0 ... : ... .. . ... ... : ... .. . ... ... : ... .. . ... ... : ... .. . ... ...
ROW 88 : G-4 00 7 ... ... ... : G-3 00 F ... ... ... : F#5 00 . ... : 2-# 00 F ... : ... .. . ... ... : ... .. 5 ... ... : ... .. 5 ... ... : ... .. 5 ... ...
ROW 89 : ... .. A ... ... ... : ... .. E ... ... ... : G#4 00 . ... : ... .. C ... : ... .. . ... ... : ... .. . ... ... : ... .. . ... ... : ... .. . ... ...
ROW 8A : ... .. 7 ... ... ... : ... .. D ... ... ... : C#4 00 . ... : ... .. 6 ... : ... .. . ... ... : ... .. . ... ... : ... .. . ... ... : ... .. . ... ...
ROW 8B : ... .. 0 ... ... ... : ... .. A ... ... ... : C-4 00 . ... : ... .. 3 ... : ... .. . ... ... : ... .. . ... ... : ... .. . ... ... : ... .. . ... ...
ROW 8C : G-4 00 5 P80 ... ... : ... .. . ... ... ... : G-3 00 . ... : ... .. 2 ... : ... .. . ... ... : ... .. . ... ... : ... .. . ... ... : ... .. . ... ...
ROW 8D : F-4 00 7 ... ... ... : ... .. . ... ... ... : ... .. . ... : ... .. 0 ... : ... .. . ... ... : ... .. 2 ... ... : ... .. 2 ... ... : ... .. 1 ... ...
ROW 8E : ... .. A ... ... ... : ... .. . ... ... ... : ... .. . ... : B-# 00 8 ... : ... .. . ... ... : ... .. . ... ... : ... .. . ... ... : ... .. . ... ...
ROW 8F : ... .. 7 ... ... ... : ... .. . ... ... ... : ... .. . ... : ... .. 3 ... : ... .. . ... ... : ... .. . ... ... : ... .. . ... ... : ... .. . ... ...
ROW 90 : ... .. 0 ... ... ... : ... .. . ... ... ... : ... .. . ... : ... .. . ... : ... .. . ... ... : ... .. 1 ... ... : ... .. 1 ... ... : ... .. . ... ...
ROW 91 : F-4 00 5 P80 ... ... : ... .. . ... ... ... : ... .. . ... : ... .. 0 ... : ... .. . ... ... : ... .. . ... ... : ... .. . ... ... : ... .. . ... ...
ROW 92 : C#4 00 7 ... ... ... : E-3 00 A P86 ... ... : E-3 00 . P86 : 2-# 00 F ... : ... .. . ... ... : G#2 01 A ... ... : D#3 01 A ... ... : C-4 01 A ... ...
ROW 93 : ... .. A ... ... ... : D-3 00 A P80 ... ... : D-3 00 . P80 : ... .. C ... : ... .. . ... ... : ... .. 9 ... ... : ... .. 9 ... ... : ... .. 8 ... ...
ROW 94 : ... .. 7 ... ... ... : C-3 00 A P7F ... ... : C-3 00 . P7F : ... .. 6 ... : ... .. . ... ... : ... .. 8 ... ... : ... .. 8 ... ... : ... .. 5 ... ...
ROW 95 : ... .. 0 ... ... ... : A#2 00 A P83 ... ... : A#2 00 . P83 : ... .. 3 ... : ... .. . ... ... : ... .. 7 ... ... : ... .. 7 ... ... : ... .. . ... ...
ROW 96 : C#4 00 5 P80 ... ... : G#2 00 A P8E ... ... : G#2 00 . P8E : ... .. 2 ... : ... .. . ... ... : ... .. . ... ... : ... .. . ... ... : ... .. . ... ...
ROW 97 : B-3 00 7 ... ... ... : G-2 00 A P7E ... ... : G-2 00 . P7E : ... .. 0 ... : ... .. . ... ... : ... .. 6 ... ... : ... .. 6 ... ... : ... .. . ... ...
ROW 98 : ... .. A ... ... ... : F#2 00 A P70 ... ... : F#2 00 . P70 : B-# 00 8 ... : ... .. . ... ... : ... .. . ... ... : ... .. . ... ... : ... .. . ... ...
ROW 99 : ... .. 7 ... ... ... : E-2 00 A P8A ... ... : E-2 00 . P8A : ... .. 3 ... : ... .. . ... ... : ... .. 5 ... ... : ... .. 5 ... ... : ... .. . ... ...
ROW 9A : ... .. 0 ... ... ... : D#2 00 A P82 ... ... : D#2 00 . P82 : ... .. . ... : ... .. . ... ... : ... .. 1 ... ... : ... .. 1 ... ... : ... .. 1 ... ...
ROW 9B : B-3 00 5 P80 ... ... : D-2 00 A P7D ... ... : D-2 00 . P7D : ... .. 0 ... : ... .. . ... ... : ... .. . ... ... : ... .. . ... ... : ... .. . ... ...
ROW 9C : G-4 00 7 ... ... ... : F-2 00 F P80 ... ... : F-2 00 . P80 : 7-# 00 F ... : ... .. . ... ... : ... .. 5 ... ... : ... .. 5 ... ... : ... .. 5 ... ...
ROW 9D : ... .. A ... ... ... : ... .. E ... ... ... : ... .. . ... : ... .. C ... : ... .. . ... ... : ... .. . ... ... : ... .. . ... ... : ... .. . ... ...
ROW 9E : ... .. 7 ... ... ... : ... .. D ... ... ... : ... .. . ... : ... .. A ... : ... .. . ... ... : ... .. . ... ... : ... .. . ... ... : ... .. . ... ...
ROW 9F : ... .. 0 ... ... ... : ... .. A ... ... ... : ... .. . ... : ... .. 8 ... : ... .. . ... ... : ... .. . ... ... : ... .. . ... ... : ... .. . ... ...
ROW A0 : G-4 00 5 P80 ... ... : ... .. . ... ... ... : ... .. . ... : ... .. 7 ... : ... .. . ... ... : ... .. . ... ... : ... .. . ... ... : ... .. . ... ...
ROW A1 : F-4 00 7 ... ... ... : ... .. . ... ... ... : ... .. . ... : ... .. 0 ... : ... .. . ... ... : ... .. . ... ... : ... .. . ... ... : ... .. . ... ...
ROW A2 : ... .. A ... ... ... : ... .. . ... ... ... : ... .. . ... : B-# 00 6 ... : ... .. . ... ... : ... .. . ... ... : ... .. . ... ... : ... .. . ... ...
ROW A3 : ... .. 7 ... ... ... : ... .. . ... ... ... : ... .. . ... : ... .. 2 ... : ... .. . ... ... : ... .. . ... ... : ... .. . ... ... : ... .. . ... ...
ROW A4 : ... .. 0 ... ... ... : ... .. . ... ... ... : ... .. . ... : ... .. . ... : ... .. . ... ... : ... .. 1 ... ... : ... .. 1 ... ... : ... .. 1 ... ...
ROW A5 : F-4 00 5 P80 ... ... : ... .. . ... ... ... : ... .. . ... : ... .. 0 ... : ... .. . ... ... : ... .. . ... ... : ... .. . ... ... : ... .. . ... ...
ROW A6 : C#4 00 7 ... ... ... : G-2 00 F ... ... ... : G-2 00 . ... : ... .. . ... : ... .. . ... ... : G-2 01 A ... ... : D-3 01 A ... ... : B-3 01 A ... ...
ROW A7 : ... .. A ... ... ... : ... .. E ... ... ... : ... .. . ... : ... .. A ... : ... .. . ... ... : ... .. 9 ... ... : ... .. 9 ... ... : ... .. 8 ... ...
ROW A8 : ... .. 7 ... ... ... : ... .. D ... ... ... : ... .. . ... : ... .. 4 ... : ... .. . ... ... : ... .. 8 ... ... : ... .. 8 ... ... : ... .. 5 ... ...
ROW A9 : ... .. 0 ... ... ... : ... .. A ... ... ... : ... .. . ... : ... .. . ... : ... .. . ... ... : ... .. 7 ... ... : ... .. 7 ... ... : ... .. . ... ...
ROW AA : C#4 00 5 P80 ... ... : ... .. . ... ... ... : ... .. . ... : ... .. 0 ... : ... .. . ... ... : ... .. . ... ... : ... .. . ... ... : ... .. . ... ...
ROW AB : B-3 00 7 ... ... ... : ... .. . ... ... ... : ... .. . ... : ... .. . ... : ... .. . ... ... : ... .. 6 ... ... : ... .. 6 ... ... : ... .. . ... ...
ROW AC : ... .. A ... ... ... : ... .. . ... ... ... : ... .. . ... : ... .. 8 ... : ... .. . ... ... : ... .. . ... ... : ... .. . ... ... : ... .. . ... ...
ROW AD : ... .. 7 ... ... ... : ... .. . ... ... ... : ... .. . ... : ... .. 3 ... : ... .. . ... ... : ... .. 5 ... ... : ... .. 5 ... ... : ... .. . ... ...
ROW AE : ... .. 0 ... ... ... : ... .. 0 ... ... ... : --- .. . ... : ... .. . ... : ... .. . ... ... : ... .. 1 ... ... : ... .. 1 ... ... : ... .. 1 ... ...
ROW AF : B-3 00 5 P80 ... ... : ... .. . ... ... ... : ... .. . ... : ... .. 0 ... : ... .. . ... ... : ... .. . ... ... : ... .. . ... ... : ... .. . ... ...
ROW B0 : G-4 00 7 ... ... ... : F-1 00 F P80 ... ... : E-3 00 . ... : 2-# 00 F ... : ... .. . ... ... : ... .. 5 ... ... : ... .. 5 ... ... : ... .. 5 ... ...
ROW B1 : ... .. A ... ... ... : ... .. E ... ... ... : F#2 00 . ... : ... .. C ... : ... .. . ... ... : ... .. . ... ... : ... .. . ... ... : ... .. . ... ...
ROW B2 : ... .. 7 ... ... ... : ... .. D ... ... ... : B-1 00 . ... : ... .. 6 ... : ... .. . ... ... : ... .. . ... ... : ... .. . ... ... : ... .. . ... ...
ROW B3 : ... .. 0 ... ... ... : ... .. A ... ... ... : A#1 00 . ... : ... .. 3 ... : ... .. . ... ... : ... .. . ... ... : ... .. . ... ... : ... .. . ... ...
ROW B4 : G-4 00 5 P80 ... ... : ... .. . ... ... ... : F-1 00 . ... : ... .. 2 ... : ... .. . ... ... : ... .. . ... ... : ... .. . ... ... : ... .. . ... ...
ROW B5 : F-4 00 7 ... ... ... : ... .. . ... ... ... : ... .. . ... : ... .. 0 ... : ... .. . ... ... : ... .. 2 ... ... : ... .. 2 ... ... : ... .. 1 ... ...
ROW B6 : ... .. A ... ... ... : ... .. . ... ... ... : ... .. . ... : B-# 00 8 ... : ... .. . ... ... : ... .. . ... ... : ... .. . ... ... : ... .. . ... ...
ROW B7 : ... .. 7 ... ... ... : ... .. . ... ... ... : ... .. . ... : ... .. 3 ... : ... .. . ... ... : ... .. . ... ... : ... .. . ... ... : ... .. . ... ...
ROW B8 : ... .. 0 ... ... ... : ... .. . ... ... ... : ... .. . ... : ... .. . ... : ... .. . ... ... : ... .. 1 ... ... : ... .. 1 ... ... : ... .. . ... ...
ROW B9 : F-4 00 5 P80 ... ... : ... .. . ... ... ... : ... .. . ... : ... .. 0 ... : ... .. . ... ... : ... .. . ... ... : ... .. . ... ... : ... .. . ... ...
ROW BA : C#4 00 7 ... ... ... : D-2 00 F ... ... ... : C#4 00 . ... : 2-# 00 F ... : ... .. . ... ... : F#2 01 A ... ... : C#3 01 A ... ... : A#3 01 A ... ...
ROW BB : ... .. A ... ... ... : ... .. E ... ... ... : D#3 00 . ... : ... .. C ... : ... .. . ... ... : ... .. 9 ... ... : ... .. 9 ... ... : ... .. 8 ... ...
ROW BC : ... .. 7 ... ... ... : ... .. D ... ... ... : G#2 00 . ... : ... .. 6 ... : ... .. . ... ... : ... .. 8 ... ... : ... .. 8 ... ... : ... .. 5 ... ...
ROW BD : ... .. 0 ... ... ... : ... .. A ... ... ... : G-2 00 . ... : ... .. 3 ... : ... .. . ... ... : ... .. 7 ... ... : ... .. 7 ... ... : ... .. . ... ...
ROW BE : C#4 00 5 P80 ... ... : ... .. . ... ... ... : D-2 00 . ... : ... .. 2 ... : ... .. . ... ... : ... .. . ... ... : ... .. . ... ... : ... .. . ... ...
ROW BF : B-3 00 7 ... ... ... : ... .. . ... ... ... : ... .. . ... : ... .. 0 ... : ... .. . ... ... : ... .. 6 ... ... : ... .. 6 ... ... : ... .. . ... ...
ROW C0 : ... .. A ... ... ... : ... .. . ... ... ... : ... .. . ... : B-# 00 8 ... : ... .. . ... ... : ... .. . ... ... : ... .. . ... ... : ... .. . ... ...
ROW C1 : ... .. 7 ... ... ... : ... .. . ... ... ... : ... .. . ... : ... .. 3 ... : ... .. . ... ... : ... .. 5 ... ... : ... .. 5 ... ... : ... .. . ... ...
ROW C2 : ... .. 0 ... ... ... : ... .. . ... ... ... : ... .. . ... : ... .. . ... : ... .. . ... ... : ... .. 1 ... ... : ... .. 1 ... ... : ... .. 1 ... ...
ROW C3 : B-3 00 5 P80 ... ... : ... .. . ... ... ... : ... .. . ... : ... .. 0 ... : ... .. . ... ... : ... .. . ... ... : ... .. . ... ... : ... .. . ... ...
ROW C4 : G-4 00 7 ... ... ... : C#2 00 F ... ... ... : C#2 00 . ... : 7-# 00 F ... : ... .. . ... ... : ... .. 5 ... ... : ... .. 5 ... ... : ... .. 5 ... ...
ROW C5 : ... .. A ... ... ... : ... .. E ... ... ... : ... .. . ... : ... .. C ... : ... .. . ... ... : ... .. . ... ... : ... .. . ... ... : ... .. . ... ...
ROW C6 : ... .. 7 ... ... ... : ... .. D ... ... ... : ... .. . ... : ... .. A ... : ... .. . ... ... : ... .. . ... ... : ... .. . ... ... : ... .. . ... ...
ROW C7 : ... .. 0 ... ... ... : ... .. A ... ... ... : ... .. . ... : ... .. 8 ... : ... .. . ... ... : ... .. . ... ... : ... .. . ... ... : ... .. . ... ...
ROW C8 : G-4 00 5 P80 ... ... : ... .. . ... ... ... : ... .. . ... : ... .. 7 ... : ... .. . ... ... : ... .. . ... ... : ... .. . ... ... : ... .. . ... ...
ROW C9 : F-4 00 7 ... ... ... : ... .. . ... ... ... : ... .. . ... : ... .. 0 ... : ... .. . ... ... : ... .. . ... ... : ... .. . ... ... : ... .. . ... ...
ROW CA : ... .. A ... ... ... : ... .. . ... ... ... : ... .. . ... : B-# 00 6 ... : ... .. . ... ... : ... .. . ... ... : ... .. . ... ... : ... .. . ... ...
ROW CB : ... .. 7 ... ... ... : ... .. . ... ... ... : ... .. . ... : ... .. 2 ... : ... .. . ... ... : ... .. . ... ... : ... .. . ... ... : ... .. . ... ...
ROW CC : ... .. 0 ... ... ... : ... .. . ... ... ... : ... .. . ... : ... .. . ... : ... .. . ... ... : ... .. 1 ... ... : ... .. 1 ... ... : ... .. 1 ... ...
ROW CD : F-4 00 5 P80 ... ... : ... .. . ... ... ... : ... .. . ... : ... .. 0 ... : ... .. . ... ... : ... .. . ... ... : ... .. . ... ... : ... .. . ... ...
ROW CE : C#4 00 7 ... ... ... : G-1 00 F ... ... ... : G-1 00 . ... : ... .. . ... : ... .. . ... ... : F-2 01 A ... ... : C-3 01 A ... ... : A-3 01 A ... ...
ROW CF : ... .. A ... ... ... : ... .. E ... ... ... : ... .. . ... : ... .. A ... : ... .. . ... ... : ... .. 9 ... ... : ... .. 9 ... ... : ... .. 8 ... ...
ROW D0 : ... .. 7 ... ... ... : ... .. D ... ... ... : ... .. . ... : ... .. 4 ... : ... .. . ... ... : ... .. 8 ... ... : ... .. 8 ... ... : ... .. 5 ... ...
ROW D1 : ... .. 0 ... ... ... : ... .. 0 ... ... ... : --- .. . ... : ... .. . ... : ... .. . ... ... : ... .. 7 ... ... : ... .. 7 ... ... : ... .. . ... ...
ROW D2 : C#4 00 5 P80 ... ... : ... .. . ... ... ... : ... .. . ... : ... .. 0 ... : ... .. . ... ... : ... .. . ... ... : ... .. . ... ... : ... .. . ... ...
ROW D3 : B-3 00 7 ... ... ... : G-1 00 F P80 ... ... : G-1 00 . ... : ... .. . ... : ... .. . ... ... : ... .. 6 ... ... : ... .. 6 ... ... : ... .. . ... ...
ROW D4 : ... .. A ... ... ... : ... .. E ... ... ... : ... .. . ... : ... .. 8 ... : ... .. . ... ... : ... .. . ... ... : ... .. . ... ... : ... .. . ... ...
ROW D5 : ... .. 7 ... ... ... : ... .. D ... ... ... : ... .. . ... : ... .. 3 ... : ... .. . ... ... : ... .. 5 ... ... : ... .. 5 ... ... : ... .. . ... ...
ROW D6 : ... .. 0 ... ... ... : ... .. 0 ... ... ... : --- .. . ... : ... .. . ... : ... .. . ... ... : ... .. 1 ... ... : ... .. 1 ... ... : ... .. 1 ... ...
ROW D7 : B-3 00 5 P80 ... ... : ... .. . ... ... ... : ... .. . ... : ... .. 0 ... : ... .. . ... ... : ... .. . ... ... : ... .. . ... ... : ... .. . ... ...
ROW D8 : G-4 00 7 ... ... ... : F-2 00 F P80 ... ... : E-4 00 . ... : 2-# 00 F ... : ... .. . ... ... : ... .. 5 ... ... : ... .. 5 ... ... : ... .. 5 ... ...
ROW D9 : ... .. A ... ... ... : ... .. E ... ... ... : F#3 00 . ... : ... .. C ... : ... .. . ... ... : ... .. . ... ... : ... .. . ... ... : ... .. . ... ...
ROW DA : ... .. 7 ... ... ... : ... .. D ... ... ... : B-2 00 . ... : ... .. 6 ... : ... .. . ... ... : ... .. . ... ... : ... .. . ... ... : ... .. . ... ...
ROW DB : ... .. 0 ... ... ... : ... .. 0 ... ... ... : --- .. . ... : ... .. 3 ... : ... .. . ... ... : ... .. . ... ... : ... .. . ... ... : ... .. . ... ...
ROW DC : G-4 00 5 P80 ... ... : ... .. . ... ... ... : ... .. . ... : ... .. 2 ... : ... .. . ... ... : ... .. . ... ... : ... .. . ... ... : ... .. . ... ...
ROW DD : F-4 00 7 ... ... ... : F-2 00 F P80 ... ... : F-2 00 . ... : ... .. 0 ... : ... .. . ... ... : ... .. 2 ... ... : ... .. 2 ... ... : ... .. 1 ... ...
ROW DE : ... .. A ... ... ... : ... .. E ... ... ... : ... .. . ... : B-# 00 8 ... : ... .. . ... ... : ... .. . ... ... : ... .. . ... ... : ... .. . ... ...
ROW DF : ... .. 7 ... ... ... : ... .. D ... ... ... : ... .. . ... : ... .. 3 ... : ... .. . ... ... : ... .. . ... ... : ... .. . ... ... : ... .. . ... ...
ROW E0 : ... .. 0 ... ... ... : ... .. 0 ... ... ... : --- .. . ... : ... .. . ... : ... .. . ... ... : ... .. 1 ... ... : ... .. 1 ... ... : ... .. . ... ...
ROW E1 : F-4 00 5 P80 ... ... : ... .. . ... ... ... : ... .. . ... : ... .. 0 ... : ... .. . ... ... : ... .. . ... ... : ... .. . ... ... : ... .. . ... ...
ROW E2 : C#4 00 7 ... ... ... : E-2 00 F P80 ... ... : E-2 00 . ... : C-# 00 8 ... : ... .. . ... ... : F#2 01 A ... ... : C#3 01 A ... ... : A#3 01 A ... ...
ROW E3 : ... .. A ... ... ... : ... .. E ... ... ... : ... .. . ... : ... .. 7 ... : ... .. . ... ... : ... .. 9 ... ... : ... .. 9 ... ... : ... .. 8 ... ...
ROW E4 : ... .. 7 ... ... ... : ... .. D ... ... ... : ... .. . ... : ... .. . ... : ... .. . ... ... : ... .. 8 ... ... : ... .. 8 ... ... : ... .. 5 ... ...
ROW E5 : ... .. 0 ... ... ... : ... .. A ... ... ... : ... .. . ... : ... .. 6 ... : ... .. . ... ... : ... .. 7 ... ... : ... .. 7 ... ... : ... .. . ... ...
ROW E6 : C#4 00 5 P80 ... ... : ... .. . ... ... ... : ... .. . ... : ... .. 5 ... : ... .. . ... ... : ... .. . ... ... : ... .. . ... ... : ... .. . ... ...
ROW E7 : B-3 00 7 ... ... ... : ... .. . ... ... ... : ... .. . ... : ... .. 4 ... : ... .. . ... ... : ... .. 6 ... ... : ... .. 6 ... ... : ... .. . ... ...
ROW E8 : ... .. A ... ... ... : ... .. . ... ... ... : ... .. . ... : ... .. . ... : ... .. . ... ... : ... .. . ... ... : ... .. . ... ... : ... .. . ... ...
ROW E9 : ... .. 7 ... ... ... : ... .. . ... ... ... : ... .. . ... : ... .. . ... : ... .. . ... ... : ... .. 5 ... ... : ... .. 5 ... ... : ... .. . ... ...
ROW EA : ... .. 0 ... ... ... : ... .. . ... ... ... : ... .. . ... : ... .. 3 ... : ... .. . ... ... : ... .. . ... ... : ... .. . ... ... : ... .. . ... ...
ROW EB : B-3 00 5 P80 ... ... : ... .. . ... ... ... : ... .. . ... : ... .. . ... : ... .. . ... ... : ... .. . ... ... : ... .. . ... ... : ... .. . ... ...
ROW EC : G-4 00 7 ... ... ... : F-2 00 F ... ... ... : F-2 00 . ... : 7-# 00 F ... : ... .. . ... ... : G-2 01 A ... ... : D-3 01 A ... ... : B-3 01 A ... ...
ROW ED : ... .. A ... ... ... : ... .. E ... ... ... : ... .. . ... : ... .. C ... : ... .. . ... ... : ... .. 9 ... ... : ... .. 9 ... ... : ... .. 8 ... ...
ROW EE : ... .. 7 ... ... ... : ... .. D ... ... ... : ... .. . ... : ... .. A ... : ... .. . ... ... : ... .. 8 ... ... : ... .. 8 ... ... : ... .. 5 ... ...
ROW EF : ... .. 0 ... ... ... : ... .. A ... ... ... : ... .. . ... : ... .. 8 ... : ... .. . ... ... : ... .. 7 ... ... : ... .. 7 ... ... : ... .. . ... ...
ROW F0 : G-4 00 5 P80 ... ... : ... .. . ... ... ... : ... .. . ... : ... .. 7 ... : ... .. . ... ... : ... .. . ... ... : ... .. . ... ... : ... .. . ... ...
ROW F1 : F-4 00 7 ... ... ... : ... .. . ... ... ... : ... .. . ... : ... .. 0 ... : ... .. . ... ... : ... .. 6 ... ... : ... .. 6 ... ... : ... .. . ... ...
ROW F2 : ... .. A ... ... ... : ... .. . ... ... ... : ... .. . ... : B-# 00 6 ... : ... .. . ... ... : ... .. . ... ... : ... .. . ... ... : ... .. . ... ...
ROW F3 : ... .. 7 ... ... ... : ... .. . ... ... ... : ... .. . ... : ... .. 2 ... : ... .. . ... ... : ... .. 5 ... ... : ... .. 5 ... ... : ... .. . ... ...
ROW F4 : ... .. 0 ... ... ... : ... .. . ... ... ... : ... .. . ... : ... .. . ... : ... .. . ... ... : ... .. . ... ... : ... .. . ... ... : ... .. . ... ...
ROW F5 : F-4 00 5 P80 ... ... : ... .. . ... ... ... : ... .. . ... : ... .. 0 ... : ... .. . ... ... : ... .. . ... ... : ... .. . ... ... : ... .. . ... ...
ROW F6 : C#4 00 7 ... ... ... : G-2 00 F ... ... ... : G-2 00 . ... : ... .. . ... : ... .. . ... ... : G#2 01 A ... ... : D#3 01 A ... ... : C-4 01 A ... ...
ROW F7 : ... .. A ... ... ... : ... .. E ... ... ... : ... .. . ... : ... .. A ... : ... .. . ... ... : ... .. 9 ... ... : ... .. 9 ... ... : ... .. 8 ... ...
ROW F8 : ... .. 7 ... ... ... : ... .. D ... ... ... : ... .. . ... : ... .. 4 ... : ... .. . ... ... : ... .. 8 ... ... : ... .. 8 ... ... : ... .. 5 ... ...
ROW F9 : ... .. 0 ... ... ... : ... .. A ... ... ... : ... .. . ... : ... .. . ... : ... .. . ... ... : ... .. 7 ... ... : ... .. 7 ... ... : ... .. . ... ...
ROW FA : C#4 00 5 P80 ... ... : ... .. . ... ... ... : ... .. . ... : ... .. 0 ... : ... .. . ... ... : ... .. . ... ... : ... .. . ... ... : ... .. . ... ...
ROW FB : B-3 00 7 ... ... ... : ... .. 0 ... ... ... : --- .. . ... : ... .. . ... : ... .. . ... ... : ... .. 6 ... ... : ... .. 6 ... ... : ... .. . ... ...
ROW FC : ... .. A ... ... ... : ... .. . ... ... ... : ... .. . ... : ... .. 8 ... : ... .. . ... ... : ... .. . ... ... : ... .. . ... ... : ... .. . ... ...
ROW FD : ... .. 7 ... ... ... : ... .. . ... ... ... : ... .. . ... : ... .. 3 ... : ... .. . ... ... : ... .. 5 ... ... : ... .. 5 ... ... : ... .. . ... ...
ROW FE : ... .. 0 ... ... ... : ... .. . ... ... ... : ... .. . ... : ... .. . ... : ... .. . ... ... : ... .. 1 ... ... : ... .. 1 ... ... : ... .. 1 ... ...
ROW FF : B-3 00 5 P80 ... ... : ... .. . ... ... ... : ... .. . ... : ... .. 0 ... : ... .. . ... ... : ... .. . ... ... : ... .. . ... ... : ... .. . ... ...

PATTERN 0F
ROW 00 : G-4 00 7 ... ... ... : G-1 00 F P80 ... ... : G-1 00 . ... : ... .. . ... : ... .. . ... ... : ... .. 5 ... ... : ... .. 5 ... ... : ... .. 5 ... ...
ROW 01 : ... .. A ... ... ... : ... .. E ... ... ... : ... .. . ... : 2-# 00 F ... : ... .. . ... ... : ... .. . ... ... : ... .. . ... ... : ... .. . ... ...
ROW 02 : ... .. 7 ... ... ... : ... .. D ... ... ... : ... .. . ... : ... .. 6 ... : ... .. . ... ... : ... .. . ... ... : ... .. . ... ... : ... .. . ... ...
ROW 03 : ... .. 0 ... ... ... : ... .. A ... ... ... : ... .. . ... : ... .. . ... : ... .. . ... ... : ... .. . ... ... : ... .. . ... ... : ... .. . ... ...
ROW 04 : G-4 00 5 P80 ... ... : ... .. . ... ... ... : ... .. . ... : ... .. 0 ... : ... .. . ... ... : ... .. . ... ... : ... .. . ... ... : ... .. . ... ...
ROW 05 : F-4 00 7 ... ... ... : ... .. . ... ... ... : ... .. . ... : ... .. . ... : ... .. . ... ... : ... .. 2 ... ... : ... .. 2 ... ... : ... .. 1 ... ...
ROW 06 : ... .. A ... ... ... : ... .. . ... ... ... : ... .. . ... : B-# 00 6 ... : ... .. . ... ... : ... .. . ... ... : ... .. . ... ... : ... .. . ... ...
ROW 07 : ... .. 7 ... ... ... : ... .. . ... ... ... : ... .. . ... : ... .. 2 ... : ... .. . ... ... : ... .. . ... ... : ... .. . ... ... : ... .. . ... ...
ROW 08 : ... .. 0 ... ... ... : ... .. . ... ... ... : ... .. . ... : ... .. . ... : ... .. . ... ... : ... .. 1 ... ... : ... .. 1 ... ... : ... .. . ... ...
ROW 09 : F-4 00 5 P80 ... ... : ... .. . ... ... ... : ... .. . ... : ... .. 0 ... : ... .. . ... ... : ... .. . ... ... : ... .. . ... ... : ... .. . ... ...
ROW 0A : C#4 00 7 ... ... ... : ... .. . P70 ... ... : ... .. . P70 : ... .. . ... : ... .. . ... ... : A#2 01 A ... ... : F-3 01 A ... ... : D-4 01 A ... ...
ROW 0B : ... .. A ... ... ... : ... .. . P60 ... ... : ... .. . P60 : ... .. A ... : ... .. . ... ... : ... .. 9 ... ... : ... .. 9 ... ... : ... .. 8 ... ...
ROW 0C : ... .. 7 ... ... ... : F#1 00 A P94 ... ... : F#1 00 . P94 : ... .. 4 ... : ... .. . ... ... : ... .. 8 ... ... : ... .. 8 ... ... : ... .. 5 ... ...
ROW 0D : ... .. 0 ... ... ... : ... .. . P84 ... ... : ... .. . P84 : ... .. . ... : ... .. . ... ... : ... .. 7 ... ... : ... .. 7 ... ... : ... .. . ... ...
ROW 0E : C#4 00 5 P80 ... ... : ... .. . P74 ... ... : ... .. . P74 : ... .. 0 ... : ... .. . ... ... : ... .. . ... ... : ... .. . ... ... : ... .. . ... ...
ROW 0F : B-3 00 7 ... ... ... : ... .. . P64 ... ... : ... .. . P64 : ... .. . ... : ... .. . ... ... : ... .. 6 ... ... : ... .. 6 ... ... : ... .. . ... ...
ROW 10 : ... .. A ... ... ... : F-1 00 A P9C ... ... : F-1 00 . P9C : ... .. 8 ... : ... .. . ... ... : ... .. . ... ... : ... .. . ... ... : ... .. . ... ...
ROW 11 : ... .. 7 ... ... ... : ... .. . P8C ... ... : ... .. . P8C : ... .. 3 ... : ... .. . ... ... : ... .. 5 ... ... : ... .. 5 ... ... : ... .. . ... ...
ROW 12 : ... .. 0 ... ... ... : ... .. . P7C ... ... : ... .. . P7C : ... .. . ... : ... .. . ... ... : ... .. 1 ... ... : ... .. 1 ... ... : ... .. 1 ... ...
ROW 13 : B-3 00 5 P80 ... ... : ... .. . P6C ... ... : ... .. . P6C : ... .. 0 ... : ... .. . ... ... : ... .. . ... ... : ... .. . ... ... : ... .. . ... ...
ROW 14 : G-4 00 7 ... ... ... : G-2 00 F P80 ... ... : G-2 00 . P80 : 7-# 00 F ... : ... .. . ... ... : ... .. 5 ... ... : ... .. 5 ... ... : ... .. 5 ... ...
ROW 15 : ... .. A ... ... ... : ... .. E ... ... ... : ... .. . ... : ... .. C ... : ... .. . ... ... : ... .. . ... ... : ... .. . ... ... : ... .. . ... ...
ROW 16 : ... .. 7 ... ... ... : ... .. D ... ... ... : ... .. . ... : ... .. A ... : ... .. . ... ... : ... .. . ... ... : ... .. . ... ... : ... .. . ... ...
ROW 17 : ... .. 0 ... ... ... : ... .. A ... ... ... : ... .. . ... : ... .. 8 ... : ... .. . ... ... : ... .. . ... ... : ... .. . ... ... : ... .. . ... ...
ROW 18 : G-4 00 5 P80 ... ... : ... .. . ... ... ... : ... .. . ... : ... .. 7 ... : ... .. . ... ... : ... .. . ... ... : ... .. . ... ... : ... .. . ... ...
ROW 19 : F-4 00 7 ... ... ... : ... .. . ... ... ... : ... .. . ... : ... .. 0 ... : ... .. . ... ... : ... .. . ... ... : ... .. . ... ... : ... .. . ... ...
ROW 1A : ... .. A ... ... ... : ... .. . P83 ... ... : ... .. . P83 : B-# 00 6 ... : ... .. . ... ... : ... .. . ... ... : ... .. . ... ... : ... .. . ... ...
ROW 1B : ... .. 7 ... ... ... : ... .. . P86 ... ... : ... .. . P86 : ... .. 2 ... : ... .. . ... ... : ... .. . ... ... : ... .. . ... ... : ... .. . ... ...
ROW 1C : ... .. 0 ... ... ... : ... .. 0 ... ... ... : --- .. . ... : ... .. . ... : ... .. . ... ... : ... .. 1 ... ... : ... .. 1 ... ... : ... .. 1 ... ...
ROW 1D : F-4 00 5 P80 ... ... : ... .. . ... ... ... : ... .. . ... : ... .. 0 ... : ... .. . ... ... : ... .. . ... ... : ... .. . ... ... : ... .. . ... ...
ROW 1E : C#4 00 7 ... ... ... : G-2 00 F P80 ... ... : G-2 00 . P80 : ... .. . ... : ... .. . ... ... : B-2 01 A ... ... : F#3 01 A ... ... : D#4 01 A ... ...
ROW 1F : ... .. A ... ... ... : ... .. E ... ... ... : ... .. . ... : ... .. A ... : ... .. . ... ... : ... .. 9 ... ... : ... .. 9 ... ... : ... .. 8 ... ...
ROW 20 : ... .. 7 ... ... ... : ... .. D ... ... ... : ... .. . ... : ... .. 4 ... : ... .. . ... ... : ... .. 8 ... ... : ... .. 8 ... ... : ... .. 5 ... ...
ROW 21 : ... .. 0 ... ... ... : ... .. A ... ... ... : ... .. . ... : ... .. . ... : ... .. . ... ... : ... .. 7 ... ... : ... .. 7 ... ... : ... .. . ... ...
ROW 22 : C#4 00 5 P80 ... ... : ... .. . ... ... ... : ... .. . ... : ... .. 0 ... : ... .. . ... ... : ... .. . ... ... : ... .. . ... ... : ... .. . ... ...
ROW 23 : B-3 00 7 ... ... ... : ... .. . ... ... ... : ... .. . ... : ... .. . ... : ... .. . ... ... : ... .. 6 ... ... : ... .. 6 ... ... : ... .. . ... ...
ROW 24 : ... .. A ... ... ... : ... .. . P87 ... ... : ... .. . P87 : ... .. 8 ... : ... .. . ... ... : ... .. . ... ... : ... .. . ... ... : ... .. . ... ...
ROW 25 : ... .. 7 ... ... ... : ... .. . P8E ... ... : ... .. . P8E : ... .. 3 ... : ... .. . ... ... : ... .. 5 ... ... : ... .. 5 ... ... : ... .. . ... ...
ROW 26 : ... .. 0 ... ... ... : ... .. 0 ... ... ... : --- .. . ... : ... .. . ... : ... .. . ... ... : ... .. 1 ... ... : ... .. 1 ... ... : ... .. 1 ... ...
ROW 27 : B-3 00 5 P80 ... ... : ... .. . ... ... ... : ... .. . ... : ... .. 0 ... : ... .. . ... ... : ... .. . ... ... : ... .. . ... ... : ... .. . ... ...
ROW 28 : G-4 00 7 ... ... ... : G#2 00 F P80 ... ... : G#2 00 . P80 : 2-# 00 F ... : ... .. . ... ... : ... .. 5 ... ... : ... .. 5 ... ... : ... .. 5 ... ...
ROW 29 : ... .. A ... ... ... : ... .. E ... ... ... : ... .. . ... : ... .. C ... : ... .. . ... ... : ... .. . ... ... : ... .. . ... ... : ... .. . ... ...
ROW 2A : ... .. 7 ... ... ... : ... .. D ... ... ... : ... .. . ... : ... .. 6 ... : ... .. . ... ... : ... .. . ... ... : ... .. . ... ... : ... .. . ... ...
ROW 2B : ... .. 0 ... ... ... : ... .. A ... ... ... : ... .. . ... : ... .. 3 ... : ... .. . ... ... : ... .. . ... ... : ... .. . ... ... : ... .. . ... ...
ROW 2C : G-4 00 5 P80 ... ... : ... .. . ... ... ... : ... .. . ... : ... .. 2 ... : ... .. . ... ... : ... .. . ... ... : ... .. . ... ... : ... .. . ... ...
ROW 2D : F-4 00 7 ... ... ... : G-2 00 F ... ... ... : G-2 00 . ... : ... .. 0 ... : ... .. . ... ... : ... .. 2 ... ... : ... .. 2 ... ... : ... .. 1 ... ...
ROW 2E : ... .. A ... ... ... : ... .. E ... ... ... : ... .. . ... : B-# 00 8 ... : ... .. . ... ... : ... .. . ... ... : ... .. . ... ... : ... .. . ... ...
ROW 2F : ... .. 7 ... ... ... : ... .. D ... ... ... : ... .. . ... : ... .. 3 ... : ... .. . ... ... : ... .. . ... ... : ... .. . ... ... : ... .. . ... ...
ROW 30 : ... .. 0 ... ... ... : ... .. 0 ... ... ... : --- .. . ... : ... .. . ... : ... .. . ... ... : ... .. 1 ... ... : ... .. 1 ... ... : ... .. . ... ...
ROW 31 : F-4 00 5 P80 ... ... : ... .. . ... ... ... : ... .. . ... : ... .. 0 ... : ... .. . ... ... : ... .. . ... ... : ... .. . ... ... : ... .. . ... ...
ROW 32 : C#4 00 7 ... ... ... : F-2 00 F P80 ... ... : F-2 00 . ... : 2-# 00 F ... : ... .. . ... ... : C-3 01 A ... ... : G-3 01 A ... ... : E-4 01 A ... ...
ROW 33 : ... .. A ... ... ... : ... .. E ... ... ... : ... .. . ... : ... .. C ... : ... .. . ... ... : ... .. 9 ... ... : ... .. 9 ... ... : ... .. 8 ... ...
ROW 34 : ... .. 7 ... ... ... : ... .. D ... ... ... : ... .. . ... : ... .. 6 ... : ... .. . ... ... : ... .. 8 ... ... : ... .. 8 ... ... : ... .. 5 ... ...
ROW 35 : ... .. 0 ... ... ... : ... .. A ... ... ... : ... .. . ... : ... .. 3 ... : ... .. . ... ... : ... .. 7 ... ... : ... .. 7 ... ... : ... .. . ... ...
ROW 36 : C#4 00 5 P80 ... ... : ... .. . ... ... ... : ... .. . ... : ... .. 2 ... : ... .. . ... ... : ... .. . ... ... : ... .. . ... ... : ... .. . ... ...
ROW 37 : B-3 00 7 ... ... ... : ... .. . ... ... ... : ... .. . ... : ... .. 0 ... : ... .. . ... ... : ... .. 6 ... ... : ... .. 6 ... ... : ... .. . ... ...
ROW 38 : ... .. A ... ... ... : ... .. . ... ... ... : ... .. . ... : B-# 00 8 ... : ... .. . ... ... : ... .. . ... ... : ... .. . ... ... : ... .. . ... ...
ROW 39 : ... .. 7 ... ... ... : ... .. . ... ... ... : ... .. . ... : ... .. 3 ... : ... .. . ... ... : ... .. 5 ... ... : ... .. 5 ... ... : ... .. . ... ...
ROW 3A : ... .. 0 ... ... ... : ... .. 0 ... ... ... : --- .. . ... : ... .. . ... : ... .. . ... ... : ... .. 1 ... ... : ... .. 1 ... ... : ... .. 1 ... ...
ROW 3B : B-3 00 5 P80 ... ... : ... .. . ... ... ... : ... .. . ... : ... .. 0 ... : ... .. . ... ... : ... .. . ... ... : ... .. . ... ... : ... .. . ... ...
ROW 3C : G-4 00 7 ... ... ... : G-2 00 F P80 ... ... : G-2 00 . ... : 7-# 00 F ... : ... .. . ... ... : ... .. 5 ... ... : ... .. 5 ... ... : ... .. 5 ... ...
ROW 3D : ... .. A ... ... ... : ... .. E ... ... ... : ... .. . ... : ... .. C ... : ... .. . ... ... : ... .. . ... ... : ... .. . ... ... : ... .. . ... ...
ROW 3E : ... .. 7 ... ... ... : ... .. D ... ... ... : ... .. . ... : ... .. A ... : ... .. . ... ... : ... .. . ... ... : ... .. . ... ... : ... .. . ... ...
ROW 3F : ... .. 0 ... ... ... : ... .. A ... ... ... : ... .. . ... : ... .. 8 ... : ... .. . ... ... : ... .. . ... ... : ... .. . ... ... : ... .. . ... ...
ROW 40 : G-4 00 5 P80 ... ... : ... .. . ... ... ... : ... .. . ... : ... .. 7 ... : ... .. . ... ... : ... .. . ... ... : ... .. . ... ... : ... .. . ... ...
ROW 41 : F-4 00 7 ... ... ... : ... .. . ... ... ... : ... .. . ... : ... .. 0 ... : ... .. . ... ... : ... .. . ... ... : ... .. . ... ... : ... .. . ... ...
ROW 42 : ... .. A ... ... ... : F#2 00 A P8D ... ... : F#2 00 . P8D : B-# 00 6 ... : ... .. . ... ... : ... .. . ... ... : ... .. . ... ... : ... .. . ... ...
ROW 43 : ... .. 7 ... ... ... : ... .. . P78 ... ... : ... .. . P78 : ... .. 2 ... : ... .. . ... ... : ... .. . ... ... : ... .. . ... ... : ... .. . ... ...
ROW 44 : ... .. 0 ... ... ... : F-2 00 A P87 ... ... : F-2 00 . P87 : ... .. . ... : ... .. . ... ... : ... .. 1 ... ... : ... .. 1 ... ... : ... .. 1 ... ...
ROW 45 : F-4 00 5 P80 ... ... : ... .. . P72 ... ... : ... .. . P72 : ... .. 0 ... : ... .. . ... ... : ... .. . ... ... : ... .. . ... ... : ... .. . ... ...
ROW 46 : C#4 00 7 ... ... ... : B-1 00 F P80 ... ... : B-1 00 . P80 : ... .. . ... : ... .. . ... ... : C#3 01 A ... ... : G#3 01 A ... ... : F-4 01 A ... ...
ROW 47 : ... .. A ... ... ... : ... .. E ... ... ... : ... .. . ... : ... .. A ... : ... .. . ... ... : ... .. 9 ... ... : ... .. 9 ... ... : ... .. 8 ... ...
ROW 48 : ... .. 7 ... ... ... : ... .. D ... ... ... : ... .. . ... : ... .. 4 ... : ... .. . ... ... : ... .. 8 ... ... : ... .. 8 ... ... : ... .. 5 ... ...
ROW 49 : ... .. 0 ... ... ... : ... .. A ... ... ... : ... .. . ... : ... .. . ... : ... .. . ... ... : ... .. 7 ... ... : ... .. 7 ... ... : ... .. . ... ...
ROW 4A : C#4 00 5 P80 ... ... : ... .. . ... ... ... : ... .. . ... : ... .. 0 ... : ... .. . ... ... : ... .. . ... ... : ... .. . ... ... : ... .. . ... ...
ROW 4B : B-3 00 7 ... ... ... : ... .. . ... ... ... : ... .. . ... : ... .. . ... : ... .. . ... ... : ... .. 6 ... ... : ... .. 6 ... ... : ... .. . ... ...
ROW 4C : ... .. A ... ... ... : ... .. . ... ... ... : ... .. . ... : ... .. 8 ... : ... .. . ... ... : ... .. . ... ... : ... .. . ... ... : ... .. . ... ...
ROW 4D : ... .. 7 ... ... ... : ... .. . ... ... ... : ... .. . ... : ... .. 3 ... : ... .. . ... ... : ... .. 5 ... ... : ... .. 5 ... ... : ... .. . ... ...
ROW 4E : ... .. 0 ... ... ... : ... .. 0 ... ... ... : --- .. . ... : ... .. . ... : ... .. . ... ... : ... .. 1 ... ... : ... .. 1 ... ... : ... .. 1 ... ...
ROW 4F : B-3 00 5 P80 ... ... : ... .. . ... ... ... : ... .. . ... : ... .. 0 ... : ... .. . ... ... : ... .. . ... ... : ... .. . ... ... : ... .. . ... ...
ROW 50 : G-4 00 7 ... ... ... : C#2 00 F P80 ... ... : C#2 00 . ... : 9-# 00 D ... : ... .. . ... ... : ... .. 5 ... ... : ... .. 5 ... ... : ... .. 5 ... ...
ROW 51 : ... .. A ... ... ... : ... .. E ... ... ... : ... .. . ... : ... .. . ... : ... .. . ... ... : ... .. . ... ... : ... .. . ... ... : ... .. . ... ...
ROW 52 : ... .. 7 ... ... ... : ... .. D ... ... ... : ... .. . ... : ... .. . ... : ... .. . ... ... : ... .. . ... ... : ... .. . ... ... : ... .. . ... ...
ROW 53 : ... .. 0 ... ... ... : ... .. A ... ... ... : ... .. . ... : ... .. B ... : ... .. . ... ... : ... .. . ... ... : ... .. . ... ... : ... .. . ... ...
ROW 54 : G-4 00 5 P80 ... ... : ... .. . ... ... ... : ... .. . ... : ... .. . ... : ... .. . ... ... : ... .. . ... ... : ... .. . ... ... : ... .. . ... ...
ROW 55 : F-4 00 7 ... ... ... : ... .. . ... ... ... : ... .. . ... : ... .. A ... : ... .. . ... ... : ... .. 2 ... ... : ... .. 2 ... ... : ... .. 1 ... ...
ROW 56 : ... .. A ... ... ... : ... .. . ... ... ... : ... .. . ... : ... .. . ... : ... .. . ... ... : ... .. . ... ... : ... .. . ... ... : ... .. . ... ...
ROW 57 : ... .. 7 ... ... ... : ... .. . ... ... ... : ... .. . ... : ... .. . ... : ... .. . ... ... : ... .. . ... ... : ... .. . ... ... : ... .. . ... ...
ROW 58 : ... .. 0 ... ... ... : ... .. . ... ... ... : ... .. . ... : ... .. 9 ... : ... .. . ... ... : ... .. 1 ... ... : ... .. 1 ... ... : ... .. . ... ...
ROW 59 : F-4 00 5 P80 ... ... : ... .. . ... ... ... : ... .. . ... : ... .. . ... : ... .. . ... ... : ... .. . ... ... : ... .. . ... ... : ... .. . ... ...
ROW 5A : C#4 00 7 ... ... ... : F-1 00 F ... ... ... : F-1 00 . ... : ... .. 7 ... : ... .. . ... ... : D-3 01 A ... ... : A-3 01 A ... ... : F#4 01 A ... ...
ROW 5B : ... .. A ... ... ... : ... .. E ... ... ... : ... .. . ... : ... .. . ... : ... .. . ... ... : ... .. 9 ... ... : ... .. 9 ... ... : ... .. 8 ... ...
ROW 5C : ... .. 7 ... ... ... : ... .. D ... ... ... : ... .. . ... : ... .. . ... : ... .. . ... ... : ... .. 8 ... ... : ... .. 8 ... ... : ... .. 5 ... ...
ROW 5D : ... .. 0 ... ... ... : ... .. A ... ... ... : ... .. . ... : ... .. 6 ... : ... .. . ... ... : ... .. 7 ... ... : ... .. 7 ... ... : ... .. . ... ...
ROW 5E : C#4 00 5 P80 ... ... : ... .. . ... ... ... : ... .. . ... : ... .. . ... : ... .. . ... ... : ... .. . ... ... : ... .. . ... ... : ... .. . ... ...
ROW 5F : B-3 00 7 ... ... ... : ... .. . ... ... ... : ... .. . ... : ... .. 5 ... : ... .. . ... ... : ... .. 6 ... ... : ... .. 6 ... ... : ... .. . ... ...
ROW 60 : ... .. A ... ... ... : ... .. . ... ... ... : ... .. . ... : ... .. . ... : ... .. . ... ... : ... .. . ... ... : ... .. . ... ... : ... .. . ... ...
ROW 61 : ... .. 7 ... ... ... : ... .. . ... ... ... : ... .. . ... : ... .. . ... : ... .. . ... ... : ... .. 5 ... ... : ... .. 5 ... ... : ... .. . ... ...
ROW 62 : ... .. 0 ... ... ... : ... .. . ... ... ... : ... .. . ... : ... .. 4 ... : ... .. . ... ... : ... .. 1 ... ... : ... .. 1 ... ... : ... .. 1 ... ...
ROW 63 : B-3 00 5 P80 ... ... : ... .. . ... ... ... : ... .. . ... : ... .. . ... : ... .. . ... ... : ... .. . ... ... : ... .. . ... ... : ... .. . ... ...
ROW 64 : G-3 00 7 ... ... ... : G-1 00 F ... ... ... : G-1 00 . ... : 7-# 00 F ... : ... .. . ... ... : ... .. 5 ... ... : ... .. 5 ... ... : ... .. 5 ... ...
ROW 65 : ... .. A ... ... ... : ... .. E ... ... ... : ... .. . ... : ... .. C ... : ... .. . ... ... : ... .. . ... ... : ... .. . ... ... : ... .. . ... ...
ROW 66 : ... .. 7 ... ... ... : ... .. D ... ... ... : ... .. . ... : ... .. A ... : ... .. . ... ... : ... .. . ... ... : ... .. . ... ... : ... .. . ... ...
ROW 67 : ... .. 0 ... ... ... : ... .. A ... ... ... : ... .. . ... : ... .. 8 ... : ... .. . ... ... : ... .. . ... ... : ... .. . ... ... : ... .. . ... ...
ROW 68 : G-3 00 5 P80 ... ... : ... .. . ... ... ... : ... .. . ... : ... .. 7 ... : ... .. . ... ... : ... .. . ... ... : ... .. . ... ... : ... .. . ... ...
ROW 69 : F-3 00 7 ... ... ... : ... .. . ... ... ... : ... .. . ... : ... .. 0 ... : ... .. . ... ... : ... .. . ... ... : ... .. . ... ... : ... .. . ... ...
ROW 6A : ... .. A ... ... ... : ... .. . ... ... ... : ... .. . ... : B-# 00 6 ... : ... .. . ... ... : ... .. . ... ... : ... .. . ... ... : ... .. . ... ...
ROW 6B : ... .. 7 ... ... ... : ... .. . ... ... ... : ... .. . ... : ... .. 2 ... : ... .. . ... ... : ... .. . ... ... : ... .. . ... ... : ... .. . ... ...
ROW 6C : ... .. 0 ... ... ... : ... .. . ... ... ... : ... .. . ... : ... .. . ... : ... .. . ... ... : ... .. 1 ... ... : ... .. 1 ... ... : ... .. 1 ... ...
ROW 6D : F-3 00 5 P80 ... ... : ... .. . ... ... ... : ... .. . ... : ... .. 0 ... : ... .. . ... ... : ... .. . ... ... : ... .. . ... ... : ... .. . ... ...
ROW 6E : A-2 00 A ... ... ... : B-0 00 F ... ... ... : B-0 00 . ... : 9-# 00 D ... : ... .. . ... ... : C#3 01 A ... ... : G#3 01 A ... ... : F-4 01 A ... ...
ROW 6F : ... .. 9 ... ... ... : ... .. E ... ... ... : ... .. . ... : ... .. . ... : ... .. . ... ... : ... .. 9 ... ... : ... .. 9 ... ... : ... .. 8 ... ...
ROW 70 : ... .. 8 ... ... ... : ... .. D ... ... ... : ... .. . ... : ... .. . ... : ... .. . ... ... : ... .. 8 ... ... : ... .. 8 ... ... : ... .. 5 ... ...
ROW 71 : ... .. 6 ... ... ... : ... .. A ... ... ... : ... .. . ... : ... .. B ... : ... .. . ... ... : ... .. 7 ... ... : ... .. 7 ... ... : ... .. . ... ...
ROW 72 : ... .. . ... ... ... : ... .. . ... ... ... : ... .. . ... : ... .. . ... : ... .. . ... ... : ... .. . ... ... : ... .. . ... ... : ... .. . ... ...
ROW 73 : B-2 00 A ... ... ... : ... .. . ... ... ... : ... .. . ... : ... .. A ... : ... .. . ... ... : ... .. 6 ... ... : ... .. 6 ... ... : ... .. . ... ...
ROW 74 : ... .. 9 ... ... ... : ... .. . ... ... ... : ... .. . ... : ... .. . ... : ... .. . ... ... : ... .. . ... ... : ... .. . ... ... : ... .. . ... ...
ROW 75 : ... .. 8 ... ... ... : ... .. . ... ... ... : ... .. . ... : ... .. . ... : ... .. . ... ... : ... .. 5 ... ... : ... .. 5 ... ... : ... .. . ... ...
ROW 76 : ... .. 6 ... ... ... : ... .. . ... ... ... : ... .. . ... : ... .. 9 ... : ... .. . ... ... : ... .. 1 ... ... : ... .. 1 ... ... : ... .. 1 ... ...
ROW 77 : ... .. . ... ... ... : ... .. . ... ... ... : ... .. . ... : ... .. . ... : ... .. . ... ... : ... .. . ... ... : ... .. . ... ... : ... .. . ... ...
ROW 78 : D-3 00 B ... ... ... : C#1 00 F ... ... ... : C#1 00 . ... : ... .. 7 ... : ... .. . ... ... : ... .. 5 ... ... : ... .. 5 ... ... : ... .. 5 ... ...
ROW 79 : ... .. A ... ... ... : ... .. E ... ... ... : ... .. . ... : ... .. . ... : ... .. . ... ... : ... .. . ... ... : ... .. . ... ... : ... .. . ... ...
ROW 7A : ... .. 9 ... ... ... : ... .. D ... ... ... : ... .. . ... : ... .. . ... : ... .. . ... ... : ... .. . ... ... : ... .. . ... ... : ... .. . ... ...
ROW 7B : ... .. 7 ... ... ... : ... .. A ... ... ... : ... .. . ... : ... .. 6 ... : ... .. . ... ... : ... .. . ... ... : ... .. . ... ... : ... .. . ... ...
ROW 7C : ... .. . ... ... ... : ... .. . ... ... ... : ... .. . ... : ... .. . ... : ... .. . ... ... : ... .. . ... ... : ... .. . ... ... : ... .. . ... ...
ROW 7D : E-3 00 B ... ... ... : ... .. . ... ... ... : ... .. . ... : ... .. 5 ... : ... .. . ... ... : ... .. 2 ... ... : ... .. 2 ... ... : ... .. 1 ... ...
ROW 7E : ... .. A ... ... ... : ... .. . ... ... ... : ... .. . ... : ... .. . ... : ... .. . ... ... : ... .. . ... ... : ... .. . ... ... : ... .. . ... ...
ROW 7F : ... .. 9 ... ... ... : ... .. . ... ... ... : ... .. . ... : ... .. . ... : ... .. . ... ... : ... .. . ... ... : ... .. . ... ... : ... .. . ... ...
ROW 80 : ... .. 7 ... ... ... : ... .. . ... ... ... : ... .. . ... : ... .. 4 ... : ... .. . ... ... : ... .. 1 ... ... : ... .. 1 ... ... : ... .. . ... ...
ROW 81 : ... .. . ... ... ... : ... .. . ... ... ... : ... .. . ... : ... .. . ... : ... .. . ... ... : ... .. . ... ... : ... .. . ... ... : ... .. . ... ...
ROW 82 : F#3 00 C ... ... ... : G-3 00 F ... ... ... : G-3 00 . ... : ... .. 0 ... : ... .. . ... ... : C-3 01 A ... ... : G-3 01 A ... ... : E-4 01 A ... ...
ROW 83 : ... .. B ... ... ... : ... .. E ... ... ... : ... .. . ... : B-# 00 8 ... : ... .. . ... ... : ... .. 9 ... ... : ... .. 9 ... ... : ... .. 8 ... ...
ROW 84 : ... .. A ... ... ... : ... .. D ... ... ... : ... .. . ... : ... .. 3 ... : ... .. . ... ... : ... .. 8 ... ... : ... .. 8 ... ... : ... .. 5 ... ...
ROW 85 : ... .. 8 ... ... ... : ... .. 0 ... ... ... : --- .. . ... : ... .. . ... : ... .. . ... ... : ... .. 7 ... ... : ... .. 7 ... ... : ... .. . ... ...
ROW 86 : ... .. . ... ... ... : ... .. . ... ... ... : ... .. . ... : ... .. 0 ... : ... .. . ... ... : ... .. . ... ... : ... .. . ... ... : ... .. . ... ...
ROW 87 : G-3 00 C ... ... ... : F-3 00 F P80 ... ... : F-3 00 . ... : ... .. . ... : ... .. . ... ... : ... .. 6 ... ... : ... .. 6 ... ... : ... .. . ... ...
ROW 88 : ... .. B ... ... ... : ... .. E ... ... ... : ... .. . ... : ... .. 6 ... : ... .. . ... ... : ... .. . ... ... : ... .. . ... ... : ... .. . ... ...
ROW 89 : ... .. A ... ... ... : ... .. D ... ... ... : ... .. . ... : ... .. 2 ... : ... .. . ... ... : ... .. 5 ... ... : ... .. 5 ... ... : ... .. . ... ...
ROW 8A : ... .. 8 ... ... ... : ... .. 0 ... ... ... : --- .. . ... : ... .. . ... : ... .. . ... ... : ... .. 1 ... ... : ... .. 1 ... ... : ... .. 1 ... ...
ROW 8B : ... .. . ... ... ... : ... .. . ... ... ... : ... .. . ... : ... .. 0 ... : ... .. . ... ... : ... .. . ... ... : ... .. . ... ... : ... .. . ... ...
ROW 8C : G#3 00 D ... ... ... : C#3 00 F P80 ... ... : C#3 00 . ... : 7-# 00 F ... : ... .. . ... ... : B-2 01 A ... ... : F#3 01 A ... ... : G#3 01 F ... ...
ROW 8D : ... .. C ... ... ... : ... .. E ... ... ... : ... .. . ... : ... .. C ... : ... .. . ... ... : ... .. 9 ... ... : ... .. 9 ... ... : ... .. D ... ...
ROW 8E : ... .. B ... ... ... : ... .. D ... ... ... : ... .. . ... : ... .. A ... : ... .. . ... ... : ... .. 8 ... ... : ... .. 8 ... ... : ... .. 8 ... ...
ROW 8F : ... .. 8 ... ... ... : ... .. A ... ... ... : ... .. . ... : ... .. 0 ... : ... .. . ... ... : ... .. 7 ... ... : ... .. 7 ... ... : ... .. . ... ...
ROW 90 : ... .. . ... ... ... : ... .. . ... ... ... : ... .. . ... : ... .. . ... : ... .. . ... ... : ... .. . ... ... : ... .. . ... ... : ... .. . ... ...
ROW 91 : A#3 00 D ... ... ... : B-2 00 F ... ... ... : B-2 00 . ... : 6-# 00 F ... : ... .. . ... ... : ... .. 6 ... ... : ... .. 6 ... ... : A#3 01 F ... ...
ROW 92 : ... .. C ... ... ... : ... .. E ... ... ... : ... .. . ... : ... .. C ... : ... .. . ... ... : ... .. . ... ... : ... .. . ... ... : ... .. D ... ...
ROW 93 : ... .. B ... ... ... : ... .. D ... ... ... : ... .. . ... : ... .. A ... : ... .. . ... ... : ... .. 5 ... ... : ... .. 5 ... ... : ... .. 8 ... ...
ROW 94 : ... .. 8 ... ... ... : ... .. 0 ... ... ... : --- .. . ... : ... .. 0 ... : ... .. . ... ... : ... .. 1 ... ... : ... .. 1 ... ... : ... .. . ... ...
ROW 95 : ... .. . ... ... ... : ... .. . ... ... ... : ... .. . ... : ... .. . ... : ... .. . ... ... : ... .. . ... ... : ... .. . ... ... : ... .. . ... ...
ROW 96 : C-4 00 E ... ... ... : G-2 00 F P80 ... ... : G-2 00 . ... : 5-# 00 F ... : ... .. . ... ... : ... .. 5 P84 ... : ... .. 5 P83 ... : C-4 01 F ... ...
ROW 97 : ... .. D ... ... ... : ... .. E ... ... ... : ... .. . ... : ... .. C ... : ... .. . ... ... : ... .. . P86 ... : ... .. . P85 ... : ... .. D ... ...
ROW 98 : ... .. C ... ... ... : ... .. D ... ... ... : ... .. . ... : ... .. A ... : ... .. . ... ... : ... .. . P85 ... : ... .. . P84 ... : ... .. 8 ... ...
ROW 99 : ... .. 9 ... ... ... : ... .. 0 ... ... ... : --- .. . ... : ... .. 0 ... : ... .. . ... ... : ... .. . P82 ... : ... .. . P81 ... : ... .. . ... ...
ROW 9A : ... .. . ... ... ... : ... .. . ... ... ... : ... .. . ... : ... .. . ... : ... .. . ... ... : ... .. . P7E ... : ... .. . P7D ... : ... .. . ... ...
ROW 9B : D-4 00 E ... ... ... : F-2 00 F P80 ... ... : F-2 00 . ... : 4-# 00 F ... : ... .. . ... ... : ... .. . P7B ... : ... .. . P7A ... : D-4 01 F ... ...
ROW 9C : ... .. D ... ... ... : ... .. E ... ... ... : ... .. . ... : ... .. C ... : ... .. . ... ... : ... .. . P7A ... : ... .. . P79 ... : ... .. D ... ...
ROW 9D : ... .. C ... ... ... : ... .. D ... ... ... : ... .. . ... : ... .. A ... : ... .. . ... ... : ... .. . P7C ... : ... .. . P7B ... : ... .. 8 ... ...
ROW 9E : ... .. A ... ... ... : ... .. 0 ... ... ... : --- .. . ... : ... .. 8 ... : ... .. . ... ... : ... .. . P80 ... : ... .. . P7F ... : ... .. . ... ...
ROW 9F : ... .. . ... ... ... : ... .. . ... ... ... : ... .. . ... : ... .. 7 ... : ... .. . ... ... : ... .. . P83 ... : ... .. . P82 ... : ... .. . ... ...
ROW A0 : C-4 00 D ... ... ... : C-2 00 F P80 V01 ... : B-3 00 . ... : 9-# 00 D ... : ... .. . ... ... : F#3 01 A P87 ... : A#3 01 A P85 ... : E-4 01 F ... ...
ROW A1 : ... .. B ... ... ... : ... .. E ... ... ... : C#3 00 . ... : ... .. . ... : ... .. . ... ... : ... .. 9 ... ... : ... .. 9 ... ... : ... .. D ... ...
ROW A2 : ... .. . ... ... ... : ... .. D ... ... ... : F#2 00 . ... : ... .. . ... : ... .. . ... ... : ... .. 8 P83 ... : ... .. 8 P81 ... : ... .. 8 ... ...
ROW A3 : ... .. A ... ... ... : ... .. A P83 ... ... : F-2 00 . ... : ... .. B ... : ... .. . ... ... : ... .. 7 P81 ... : ... .. 7 P7F ... : ... .. . ... ...
ROW A4 : ... .. 8 ... ... ... : ... .. . ... ... ... : C-2 00 . ... : ... .. . ... : ... .. . ... ... : ... .. . ... ... : ... .. . ... ... : ... .. . ... ...
ROW A5 : A#3 00 D ... ... ... : ... .. . ... ... ... : ... .. . ... : ... .. A ... : ... .. . ... ... : ... .. 6 ... ... : ... .. 6 ... ... : ... .. . ... ...
ROW A6 : ... .. B ... ... ... : ... .. . ... ... ... : ... .. . ... : ... .. . ... : ... .. . ... ... : ... .. . ... ... : ... .. . ... ... : ... .. . ... ...
ROW A7 : ... .. . ... ... ... : ... .. . ... ... ... : ... .. . ... : ... .. . ... : ... .. . ... ... : ... .. 5 ... ... : ... .. 5 ... ... : ... .. . ... ...
ROW A8 : ... .. A ... ... ... : ... .. . ... ... ... : ... .. . ... : ... .. 9 ... : ... .. . ... ... : ... .. . ... ... : ... .. . ... ... : ... .. . ... ...
ROW A9 : ... .. 8 ... ... ... : ... .. . ... ... ... : ... .. . ... : ... .. . ... : ... .. . ... ... : ... .. . ... ... : ... .. . ... ... : ... .. . ... ...
ROW AA : D-3 00 D ... ... ... : C-3 00 F ... ... ... : B-4 00 . ... : ... .. 7 ... : ... .. . ... ... : ... .. . ... ... : ... .. . ... ... : ... .. . ... ...
ROW AB : ... .. B ... ... ... : ... .. E ... ... ... : C#4 00 . ... : ... .. . ... : ... .. . ... ... : ... .. . ... ... : ... .. . ... ... : ... .. . ... ...
ROW AC : ... .. . ... ... ... : ... .. D ... ... ... : F#3 00 . ... : ... .. . ... : ... .. . ... ... : ... .. . ... ... : ... .. . ... ... : ... .. . ... ...
ROW AD : ... .. A ... ... ... : ... .. 0 ... V00 ... : --- .. . ... : ... .. 6 ... : ... .. . ... ... : ... .. . ... ... : ... .. . ... ... : ... .. . ... ...
ROW AE : ... .. 8 ... ... ... : ... .. . ... ... ... : ... .. . ... : ... .. . ... : ... .. . ... ... : ... .. . ... ... : ... .. . ... ... : ... .. . ... ...
ROW AF : E-3 00 D ... ... ... : C-3 00 F P83 V01 ... : C-3 00 . ... : ... .. 5 ... : ... .. . ... ... : ... .. . ... ... : ... .. . ... ... : ... .. . ... ...
ROW B0 : ... .. B ... ... ... : ... .. E ... ... ... : ... .. . ... : ... .. . ... : ... .. . ... ... : ... .. . ... ... : ... .. . ... ... : ... .. . ... ...
ROW B1 : ... .. . ... ... ... : ... .. D ... ... ... : ... .. . ... : ... .. . ... : ... .. . ... ... : ... .. . ... ... : ... .. . ... ... : ... .. . ... ...
ROW B2 : ... .. A ... ... ... : ... .. 0 ... V00 ... : --- .. . ... : ... .. 4 ... : ... .. . ... ... : ... .. . ... ... : ... .. . ... ... : ... .. . ... ...
ROW B3 : ... .. 8 ... ... ... : ... .. . ... ... ... : ... .. . ... : ... .. . ... : ... .. . ... ... : ... .. . ... ... : ... .. . ... ... : ... .. . ... ...
ROW B4 : C-3 00 D ... ... ... : C-2 00 F P83 V01 ... : C-2 00 . ... : 7-# 00 F ... : ... .. . ... ... : G-3 01 5 P7A ... : B-3 01 5 P7B ... : F-4 01 8 P80 ...
ROW B5 : ... .. B ... ... ... : ... .. E ... ... ... : ... .. . ... : ... .. C ... : ... .. . ... ... : ... .. . P80 ... : ... .. . P81 ... : F#4 01 8 P7C ...
ROW B6 : ... .. . ... ... ... : ... .. D ... ... ... : ... .. . ... : ... .. A ... : ... .. . ... ... : ... .. . P7E ... : ... .. . P7F ... : F-4 01 8 P84 ...
ROW B7 : ... .. A ... ... ... : ... .. A ... ... ... : ... .. . ... : ... .. 8 ... : ... .. . ... ... : F#3 01 5 P85 ... : A#3 01 5 P83 ... : E-4 01 8 P85 ...
ROW B8 : ... .. 8 ... ... ... : ... .. . ... ... ... : ... .. . ... : ... .. 7 ... : ... .. . ... ... : ... .. . P7D ... : ... .. . P7B ... : ... .. . P7D ...
ROW B9 : A#2 00 D ... ... ... : ... .. . ... ... ... : ... .. . ... : ... .. 0 ... : ... .. . ... ... : F-3 01 5 P85 ... : A-3 01 5 P7F ... : D#4 01 8 P7E ...
ROW BA : ... .. B ... ... ... : ... .. . ... ... ... : ... .. . ... : B-# 00 6 ... : ... .. . ... ... : ... .. . P83 ... : ... .. . P7D ... : ... .. . P7C ...
ROW BB : ... .. . ... ... ... : ... .. . ... ... ... : ... .. . ... : ... .. 2 ... : ... .. . ... ... : ... .. . P89 ... : ... .. . P83 ... : ... .. . P82 ...
ROW BC : ... .. A ... ... ... : ... .. 0 ... V00 ... : --- .. . ... : ... .. . ... : ... .. . ... ... : F#3 01 5 P81 ... : A#3 01 5 P7F ... : E-4 01 8 P81 ...
ROW BD : ... .. 8 ... ... ... : ... .. . ... ... ... : ... .. . ... : ... .. 0 ... : ... .. . ... ... : G-3 01 5 P79 ... : B-3 01 5 P7A ... : F-4 01 8 P7F ...
ROW BE : E-2 00 D ... ... ... : A#2 00 F P83 V01 ... : A#2 00 . ... : ... .. . ... : ... .. . ... ... : E-3 01 A P81 ... : G#3 01 A P7F ... : D-4 01 F P81 ...
ROW BF : ... .. B ... ... ... : ... .. E ... ... ... : ... .. . ... : ... .. A ... : ... .. . ... ... : ... .. 9 ... ... : ... .. 9 ... ... : ... .. D ... ...
ROW C0 : ... .. . ... ... ... : ... .. D ... ... ... : ... .. . ... : ... .. 4 ... : ... .. . ... ... : ... .. 8 ... ... : ... .. 8 ... ... : ... .. 8 ... ...
ROW C1 : ... .. A ... ... ... : ... .. A ... ... ... : ... .. . ... : ... .. . ... : ... .. . ... ... : ... .. 7 ... ... : ... .. 7 ... ... : ... .. . ... ...
ROW C2 : ... .. 8 ... ... ... : ... .. . ... ... ... : ... .. . ... : ... .. 0 ... : ... .. . ... ... : ... .. . ... ... : ... .. . ... ... : ... .. . ... ...
ROW C3 : F#2 00 D ... ... ... : ... .. . ... ... ... : ... .. . ... : ... .. . ... : ... .. . ... ... : ... .. 6 ... ... : ... .. 6 ... ... : ... .. . ... ...
ROW C4 : ... .. B ... ... ... : ... .. . ... ... ... : ... .. . ... : ... .. 8 ... : ... .. . ... ... : ... .. . ... ... : ... .. . ... ... : ... .. . ... ...
ROW C5 : ... .. . ... ... ... : ... .. . ... ... ... : ... .. . ... : ... .. 3 ... : ... .. . ... ... : ... .. 5 ... ... : ... .. 5 ... ... : ... .. . ... ...
ROW C6 : ... .. A ... ... ... : ... .. 0 ... V00 ... : --- .. . ... : ... .. . ... : ... .. . ... ... : ... .. . ... ... : ... .. . ... ... : ... .. . ... ...
ROW C7 : ... .. 8 ... ... ... : ... .. . ... ... ... : ... .. . ... : ... .. 0 ... : ... .. . ... ... : ... .. . ... ... : ... .. . ... ... : ... .. . ... ...
ROW C8 : C-4 00 D ... ... ... : G#2 00 F P83 V01 ... : G-4 00 . ... : 2-# 00 F ... : ... .. . ... ... : F#3 01 A ... ... : A#3 01 A ... ... : E-4 01 F ... ...
ROW C9 : ... .. B ... ... ... : ... .. E ... ... ... : A-3 00 . ... : ... .. C ... : ... .. . ... ... : ... .. 9 ... ... : ... .. 9 ... ... : ... .. D ... ...
ROW CA : ... .. . ... ... ... : ... .. D ... ... ... : D-3 00 . ... : ... .. 6 ... : ... .. . ... ... : ... .. 8 ... ... : ... .. 8 ... ... : ... .. 8 ... ...
ROW CB : ... .. A ... ... ... : ... .. A ... ... ... : C#3 00 . ... : ... .. 3 ... : ... .. . ... ... : ... .. 7 ... ... : ... .. 7 ... ... : ... .. . ... ...
ROW CC : ... .. 8 ... ... ... : ... .. . ... ... ... : G#2 00 . ... : ... .. 2 ... : ... .. . ... ... : ... .. . ... ... : ... .. . ... ... : ... .. . ... ...
ROW CD : A#3 00 D ... ... ... : ... .. . ... ... ... : ... .. . ... : ... .. 0 ... : ... .. . ... ... : ... .. 6 ... ... : ... .. 6 ... ... : ... .. . ... ...
ROW CE : ... .. B ... ... ... : ... .. . ... ... ... : ... .. . ... : B-# 00 8 ... : ... .. . ... ... : ... .. . ... ... : ... .. . ... ... : ... .. . ... ...
ROW CF : ... .. . ... ... ... : ... .. . ... ... ... : ... .. . ... : ... .. 3 ... : ... .. . ... ... : ... .. 5 ... ... : ... .. 5 ... ... : ... .. . ... ...
ROW D0 : ... .. A ... ... ... : ... .. . ... ... ... : ... .. . ... : ... .. . ... : ... .. . ... ... : ... .. . ... ... : ... .. . ... ... : ... .. . ... ...
ROW D1 : ... .. 8 ... ... ... : ... .. . ... ... ... : ... .. . ... : ... .. 0 ... : ... .. . ... ... : ... .. . ... ... : ... .. . ... ... : ... .. . ... ...
ROW D2 : D-3 00 D ... ... ... : D-2 00 F ... ... ... : C#4 00 . ... : 2-# 00 F ... : ... .. . ... ... : E-3 01 A ... ... : G#3 01 A ... ... : D-4 01 F ... ...
ROW D3 : ... .. B ... ... ... : ... .. E ... ... ... : D#3 00 . ... : ... .. C ... : ... .. . ... ... : ... .. 9 ... ... : ... .. 9 ... ... : ... .. D ... ...
ROW D4 : ... .. . ... ... ... : ... .. D ... ... ... : G#2 00 . ... : ... .. 6 ... : ... .. . ... ... : ... .. 8 ... ... : ... .. 8 ... ... : ... .. 8 ... ...
ROW D5 : ... .. A ... ... ... : ... .. A ... ... ... : G-2 00 . ... : ... .. 3 ... : ... .. . ... ... : ... .. 7 ... ... : ... .. 7 ... ... : ... .. . ... ...
ROW D6 : ... .. 8 ... ... ... : ... .. . ... ... ... : D-2 00 . ... : ... .. 2 ... : ... .. . ... ... : ... .. . ... ... : ... .. . ... ... : ... .. . ... ...
ROW D7 : E-3 00 D ... ... ... : ... .. . ... ... ... : ... .. . ... : ... .. 0 ... : ... .. . ... ... : ... .. 6 ... ... : ... .. 6 ... ... : ... .. . ... ...
ROW D8 : ... .. B ... ... ... : ... .. . ... ... ... : ... .. . ... : B-# 00 8 ... : ... .. . ... ... : ... .. . ... ... : ... .. . ... ... : ... .. . ... ...
ROW D9 : ... .. . ... ... ... : ... .. . ... ... ... : ... .. . ... : ... .. 3 ... : ... .. . ... ... : ... .. 5 ... ... : ... .. 5 ... ... : ... .. . ... ...
ROW DA : ... .. A ... ... ... : ... .. . ... ... ... : ... .. . ... : ... .. . ... : ... .. . ... ... : ... .. . ... ... : ... .. . ... ... : ... .. . ... ...
ROW DB : ... .. 8 ... ... ... : ... .. . ... ... ... : ... .. . ... : ... .. 0 ... : ... .. . ... ... : ... .. . ... ... : ... .. . ... ... : ... .. . ... ...
ROW DC : C-3 00 D ... ... ... : E-2 00 F ... ... ... : E-2 00 . ... : 7-# 00 F ... : ... .. . ... ... : F#3 01 A ... ... : A#3 01 A ... ... : E-4 01 F ... ...
ROW DD : ... .. B ... ... ... : ... .. E ... ... ... : ... .. . ... : ... .. C ... : ... .. . ... ... : ... .. 9 ... ... : ... .. 9 ... ... : ... .. D ... ...
ROW DE : ... .. . ... ... ... : ... .. D ... ... ... : ... .. . ... : ... .. A ... : ... .. . ... ... : ... .. 8 ... ... : ... .. 8 ... ... : ... .. 8 ... ...
ROW DF : ... .. A ... ... ... : ... .. A ... ... ... : ... .. . ... : ... .. 8 ... : ... .. . ... ... : ... .. 7 ... ... : ... .. 7 ... ... : ... .. . ... ...
ROW E0 : ... .. 8 ... ... ... : ... .. . ... ... ... : ... .. . ... : ... .. 7 ... : ... .. . ... ... : ... .. . ... ... : ... .. . ... ... : ... .. . ... ...
ROW E1 : A#2 00 D ... ... ... : ... .. . ... ... ... : ... .. . ... : ... .. 0 ... : ... .. . ... ... : ... .. 6 ... ... : ... .. 6 ... ... : ... .. . ... ...
ROW E2 : ... .. B ... ... ... : ... .. . ... ... ... : ... .. . ... : B-# 00 6 ... : ... .. . ... ... : ... .. . ... ... : ... .. . ... ... : ... .. . ... ...
ROW E3 : ... .. . ... ... ... : ... .. . ... ... ... : ... .. . ... : ... .. 2 ... : ... .. . ... ... : ... .. 5 ... ... : ... .. 5 ... ... : ... .. . ... ...
ROW E4 : ... .. A ... ... ... : ... .. 0 ... V00 ... : --- .. . ... : ... .. . ... : ... .. . ... ... : ... .. . ... ... : ... .. . ... ... : ... .. . ... ...
ROW E5 : ... .. 8 ... ... ... : ... .. . ... ... ... : ... .. . ... : ... .. 0 ... : ... .. . ... ... : ... .. . ... ... : ... .. . ... ... : ... .. . ... ...
ROW E6 : E-2 00 D ... ... ... : F#2 00 F P83 V01 ... : F#2 00 . ... : ... .. . ... : ... .. . ... ... : G#3 01 A ... ... : C-4 01 A ... ... : F#4 01 F ... ...
ROW E7 : ... .. B ... ... ... : ... .. E ... ... ... : ... .. . ... : ... .. A ... : ... .. . ... ... : ... .. 9 ... ... : ... .. 9 ... ... : ... .. D ... ...
ROW E8 : ... .. . ... ... ... : ... .. D ... ... ... : ... .. . ... : ... .. 4 ... : ... .. . ... ... : ... .. 8 ... ... : ... .. 8 ... ... : ... .. 8 ... ...
ROW E9 : ... .. A ... ... ... : ... .. A ... ... ... : ... .. . ... : ... .. . ... : ... .. . ... ... : ... .. 7 ... ... : ... .. 7 ... ... : ... .. . ... ...
ROW EA : ... .. 8 ... ... ... : ... .. . ... ... ... : ... .. . ... : ... .. 0 ... : ... .. . ... ... : ... .. . ... ... : ... .. . ... ... : ... .. . ... ...
ROW EB : F#2 00 D ... ... ... : ... .. . ... ... ... : ... .. . ... : ... .. . ... : ... .. . ... ... : ... .. 6 ... ... : ... .. 6 ... ... : ... .. . ... ...
ROW EC : ... .. B ... ... ... : ... .. . ... ... ... : ... .. . ... : ... .. 8 ... : ... .. . ... ... : ... .. . ... ... : ... .. . ... ... : ... .. . ... ...
ROW ED : ... .. . ... ... ... : ... .. . ... ... ... : ... .. . ... : ... .. 3 ... : ... .. . ... ... : ... .. 5 ... ... : ... .. 5 ... ... : ... .. . ... ...
ROW EE : ... .. A ... ... ... : ... .. 0 ... V00 ... : --- .. . ... : ... .. . ... : ... .. . ... ... : ... .. . ... ... : ... .. . ... ... : ... .. . ... ...
ROW EF : ... .. 8 ... ... ... : ... .. . ... ... ... : ... .. . ... : ... .. 0 ... : ... .. . ... ... : ... .. . ... ... : ... .. . ... ... : ... .. . ... ...
ROW F0 : C-4 00 D ... ... ... : A#1 00 F P83 V01 ... : A-3 00 . ... : 2-# 00 F ... : ... .. . ... ... : A#3 01 A ... ... : D-4 01 A ... ... : G#4 01 F ... ...
ROW F1 : ... .. B ... ... ... : ... .. E ... ... ... : B-2 00 . ... : ... .. C ... : ... .. . ... ... : ... .. 9 ... ... : ... .. 9 ... ... : ... .. D ... ...
ROW F2 : ... .. . ... ... ... : ... .. D ... ... ... : E-2 00 . ... : ... .. 6 ... : ... .. . ... ... : ... .. 8 ... ... : ... .. 8 ... ... : ... .. 8 ... ...
ROW F3 : ... .. A ... ... ... : ... .. 0 ... V00 ... : --- .. . ... : ... .. 3 ... : ... .. . ... ... : ... .. 7 ... ... : ... .. 7 ... ... : ... .. . ... ...
ROW F4 : ... .. 8 ... ... ... : ... .. . ... ... ... : ... .. . ... : ... .. 2 ... : ... .. . ... ... : ... .. . ... ... : ... .. . ... ... : ... .. . ... ...
ROW F5 : A#3 00 D ... ... ... : A#1 00 F P83 V01 ... : A#1 00 . ... : ... .. 0 ... : ... .. . ... ... : ... .. 6 ... ... : ... .. 6 ... ... : ... .. . ... ...
ROW F6 : ... .. B ... ... ... : ... .. E ... ... ... : ... .. . ... : B-# 00 8 ... : ... .. . ... ... : ... .. . ... ... : ... .. . ... ... : ... .. . ... ...
ROW F7 : ... .. . ... ... ... : ... .. D ... ... ... : ... .. . ... : ... .. 3 ... : ... .. . ... ... : ... .. 5 ... ... : ... .. 5 ... ... : ... .. . ... ...
ROW F8 : ... .. A ... ... ... : ... .. 0 ... V00 ... : --- .. . ... : ... .. . ... : ... .. . ... ... : ... .. . ... ... : ... .. . ... ... : ... .. . ... ...
ROW F9 : ... .. 8 ... ... ... : ... .. . ... ... ... : ... .. . ... : ... .. 0 ... : ... .. . ... ... : ... .. . ... ... : ... .. . ... ... : ... .. . ... ...
ROW FA : D-3 00 D ... ... ... : A#1 00 F P83 V01 ... : A#1 00 . ... : 2-# 00 F ... : ... .. . ... ... : G#3 01 A ... ... : C-4 01 A ... ... : F#4 01 F ... ...
ROW FB : ... .. B ... ... ... : ... .. E ... ... ... : ... .. . ... : ... .. C ... : ... .. . ... ... : ... .. 9 ... ... : ... .. 9 ... ... : ... .. D ... ...
ROW FC : ... .. . ... ... ... : ... .. D ... ... ... : ... .. . ... : ... .. 6 ... : ... .. . ... ... : ... .. 8 ... ... : ... .. 8 ... ... : ... .. 8 ... ...
ROW FD : ... .. A ... ... ... : ... .. 0 ... V00 ... : --- .. . ... : ... .. 3 ... : ... .. . ... ... : ... .. 7 ... ... : ... .. 7 ... ... : ... .. . ... ...
ROW FE : ... .. 8 ... ... ... : ... .. . ... ... ... : ... .. . ... : ... .. 2 ... : ... .. . ... ... : ... .. . ... ... : ... .. . ... ... : ... .. . ... ...
ROW FF : E-3 00 D ... ... ... : A#1 00 F P83 V01 ... : A#1 00 . ... : ... .. 0 ... : ... .. . ... ... : ... .. 6 ... ... : ... .. 6 ... ... : ... .. . ... ...

PATTERN 10
ROW 00 : ... .. B ... ... ... : ... .. E ... ... ... : ... .. . ... : B-# 00 8 ... : ... .. . ... ... : ... .. . ... ... : ... .. . ... ... : ... .. . ... ...
ROW 01 : ... .. . ... ... ... : ... .. D ... ... ... : ... .. . ... : ... .. 3 ... : ... .. . ... ... : ... .. 5 ... ... : ... .. 5 ... ... : ... .. . ... ...
ROW 02 : ... .. A ... ... ... : ... .. 0 ... V00 ... : --- .. . ... : ... .. . ... : ... .. . ... ... : ... .. . ... ... : ... .. . ... ... : ... .. . ... ...
ROW 03 : ... .. 8 ... ... ... : ... .. . ... ... ... : ... .. . ... : ... .. 0 ... : ... .. . ... ... : ... .. . ... ... : ... .. . ... ... : ... .. . ... ...
ROW 04 : C-3 00 D ... ... ... : C-2 00 F P83 V01 ... : C-2 00 . ... : 7-# 00 F ... : ... .. . ... ... : A#3 01 A ... ... : D-4 01 A ... ... : G#4 01 F ... ...
ROW 05 : ... .. B ... ... ... : ... .. E ... ... ... : ... .. . ... : ... .. C ... : ... .. . ... ... : ... .. 9 ... ... : ... .. 9 ... ... : ... .. D ... ...
ROW 06 : ... .. . ... ... ... : ... .. D ... ... ... : ... .. . ... : ... .. A ... : ... .. . ... ... : ... .. 8 ... ... : ... .. 8 ... ... : ... .. 8 ... ...
ROW 07 : ... .. A ... ... ... : ... .. A ... ... ... : ... .. . ... : ... .. 8 ... : ... .. . ... ... : ... .. 7 ... ... : ... .. 7 ... ... : ... .. . ... ...
ROW 08 : ... .. 8 ... ... ... : ... .. . ... ... ... : ... .. . ... : ... .. 7 ... : ... .. . ... ... : ... .. . ... ... : ... .. . ... ... : ... .. . ... ...
ROW 09 : A#2 00 D ... ... ... : ... .. . ... ... ... : ... .. . ... : ... .. 0 ... : ... .. . ... ... : ... .. 6 ... ... : ... .. 6 ... ... : ... .. . ... ...
ROW 0A : ... .. B ... ... ... : ... .. . ... ... ... : ... .. . ... : B-# 00 6 ... : ... .. . ... ... : ... .. . ... ... : ... .. . ... ... : ... .. . ... ...
ROW 0B : ... .. . ... ... ... : ... .. . ... ... ... : ... .. . ... : ... .. 2 ... : ... .. . ... ... : ... .. 5 ... ... : ... .. 5 ... ... : ... .. . ... ...
ROW 0C : ... .. A ... ... ... : ... .. 0 ... V00 ... : --- .. . ... : ... .. . ... : ... .. . ... ... : ... .. . ... ... : ... .. . ... ... : ... .. . ... ...
ROW 0D : ... .. 8 ... ... ... : ... .. . ... ... ... : ... .. . ... : ... .. 0 ... : ... .. . ... ... : ... .. . ... ... : ... .. . ... ... : ... .. . ... ...
ROW 0E : E-2 00 D ... ... ... : C-3 00 F P83 V01 ... : C-3 00 . ... : ... .. . ... : ... .. . ... ... : C-4 01 A ... ... : E-4 01 A ... ... : A#4 01 F ... ...
ROW 0F : ... .. B ... ... ... : ... .. E ... ... ... : ... .. . ... : ... .. A ... : ... .. . ... ... : ... .. 9 ... ... : ... .. 9 ... ... : ... .. D ... ...
ROW 10 : ... .. . ... ... ... : ... .. D ... ... ... : ... .. . ... : ... .. 4 ... : ... .. . ... ... : ... .. 8 ... ... : ... .. 8 ... ... : ... .. 8 ... ...
ROW 11 : ... .. A ... ... ... : ... .. A ... ... ... : ... .. . ... : ... .. . ... : ... .. . ... ... : ... .. 7 ... ... : ... .. 7 ... ... : ... .. . ... ...
ROW 12 : ... .. 8 ... ... ... : ... .. . ... ... ... : ... .. . ... : ... .. 0 ... : ... .. . ... ... : ... .. . ... ... : ... .. . ... ... : ... .. . ... ...
ROW 13 : F#2 00 D ... ... ... : ... .. . ... ... ... : ... .. . ... : ... .. . ... : ... .. . ... ... : ... .. 6 ... ... : ... .. 6 ... ... : ... .. . ... ...
ROW 14 : ... .. B ... ... ... : ... .. . ... ... ... : ... .. . ... : ... .. 8 ... : ... .. . ... ... : ... .. . ... ... : ... .. . ... ... : ... .. . ... ...
ROW 15 : ... .. . ... ... ... : ... .. . ... ... ... : ... .. . ... : ... .. 3 ... : ... .. . ... ... : ... .. 5 ... ... : ... .. 5 ... ... : ... .. . ... ...
ROW 16 : ... .. A ... ... ... : ... .. . ... ... ... : ... .. . ... : ... .. . ... : ... .. . ... ... : ... .. . ... ... : ... .. . ... ... : ... .. . ... ...
ROW 17 : ... .. 8 ... ... ... : ... .. . ... ... ... : ... .. . ... : ... .. 0 ... : ... .. . ... ... : ... .. . ... ... : ... .. . ... ... : ... .. . ... ...
ROW 18 : C-4 00 D ... ... ... : A#2 00 F ... ... ... : A-4 00 . ... : 2-# 00 F ... : ... .. . ... ... : D-4 01 A ... ... : F#4 01 A ... ... : C-5 01 F ... ...
ROW 19 : ... .. B ... ... ... : ... .. E ... ... ... : B-3 00 . ... : ... .. C ... : ... .. . ... ... : ... .. 9 ... ... : ... .. 9 ... ... : ... .. D ... ...
ROW 1A : ... .. . ... ... ... : ... .. D ... ... ... : E-3 00 . ... : ... .. 6 ... : ... .. . ... ... : ... .. 8 ... ... : ... .. 8 ... ... : ... .. 8 ... ...
ROW 1B : ... .. A ... ... ... : ... .. A ... ... ... : D#3 00 . ... : ... .. 3 ... : ... .. . ... ... : ... .. 7 ... ... : ... .. 7 ... ... : ... .. . ... ...
ROW 1C : ... .. 8 ... ... ... : ... .. . ... ... ... : A#2 00 . ... : ... .. 2 ... : ... .. . ... ... : ... .. . ... ... : ... .. . ... ... : ... .. . ... ...
ROW 1D : A#3 00 D ... ... ... : ... .. . ... ... ... : ... .. . ... : ... .. 0 ... : ... .. . ... ... : C-4 01 A ... ... : ... .. 6 ... ... : ... .. . ... ...
ROW 1E : ... .. B ... ... ... : ... .. . ... ... ... : ... .. . ... : B-# 00 8 ... : ... .. . ... ... : ... .. 9 ... ... : ... .. . ... ... : ... .. . ... ...
ROW 1F : ... .. . ... ... ... : ... .. . ... ... ... : ... .. . ... : ... .. 3 ... : ... .. . ... ... : ... .. 8 ... ... : ... .. 5 ... ... : ... .. . ... ...
ROW 20 : ... .. A ... ... ... : ... .. . ... ... ... : ... .. . ... : ... .. . ... : ... .. . ... ... : ... .. 7 ... ... : ... .. . ... ... : ... .. . ... ...
ROW 21 : ... .. 8 ... ... ... : ... .. . ... ... ... : ... .. . ... : ... .. 0 ... : ... .. . ... ... : ... .. . ... ... : ... .. . ... ... : ... .. . ... ...
ROW 22 : D-3 00 D ... ... ... : F#2 00 F ... ... ... : F-4 00 . ... : C-# 00 8 ... : ... .. . ... ... : A#3 01 A ... ... : ... .. . ... ... : C#5 01 8 P7E ...
ROW 23 : ... .. B ... ... ... : ... .. E ... ... ... : G-3 00 . ... : ... .. 7 ... : ... .. . ... ... : ... .. 9 ... ... : ... .. . ... ... : ... .. . P80 ...
ROW 24 : ... .. . ... ... ... : ... .. D ... ... ... : C-3 00 . ... : ... .. . ... : ... .. . ... ... : ... .. 8 ... ... : ... .. . ... ... : ... .. . P7F ...
ROW 25 : ... .. A ... ... ... : ... .. A ... ... ... : B-2 00 . ... : ... .. 6 ... : ... .. . ... ... : ... .. 7 ... ... : ... .. . ... ... : C-5 01 8 P83 ...
ROW 26 : ... .. 8 ... ... ... : ... .. . ... ... ... : F#2 00 . ... : ... .. 5 ... : ... .. . ... ... : ... .. . ... ... : ... .. . ... ... : ... .. . P7F ...
ROW 27 : E-3 00 D ... ... ... : ... .. . ... ... ... : ... .. . ... : ... .. 4 ... : ... .. . ... ... : C-4 01 A ... ... : G-4 01 5 P81 ... : B-4 01 8 P83 ...
ROW 28 : ... .. B ... ... ... : ... .. . ... ... ... : ... .. . ... : ... .. . ... : ... .. . ... ... : ... .. 9 ... ... : G#4 01 5 P7F ... : ... .. . P82 ...
ROW 29 : ... .. . ... ... ... : ... .. . ... ... ... : ... .. . ... : ... .. . ... : ... .. . ... ... : ... .. 8 ... ... : ... .. . P7D ... : C-5 01 8 P7D ...
ROW 2A : ... .. A ... ... ... : ... .. 0 ... V00 ... : --- .. . ... : ... .. 3 ... : ... .. . ... ... : ... .. 7 ... ... : F#4 01 5 P83 ... : ... .. . P81 ...
ROW 2B : ... .. 8 ... ... ... : ... .. . ... ... ... : ... .. . ... : ... .. . ... : ... .. . ... ... : ... .. . ... ... : F-4 01 5 P84 ... : C#5 01 8 P7D ...
ROW 2C : C-3 00 D ... ... ... : E-2 00 F P83 V01 ... : E-2 00 . ... : 7-# 00 F ... : ... .. . ... ... : D-4 01 A ... ... : E-4 01 5 ... ... : G-4 01 F P81 ...
ROW 2D : ... .. B ... ... ... : ... .. E ... ... ... : ... .. . ... : ... .. C ... : ... .. . ... ... : ... .. 9 ... ... : ... .. . P82 ... : ... .. D ... ...
ROW 2E : ... .. . ... ... ... : ... .. D ... ... ... : ... .. . ... : ... .. A ... : ... .. . ... ... : ... .. 8 ... ... : F-4 01 5 P7E ... : ... .. 8 ... ...
ROW 2F : ... .. A ... ... ... : ... .. A ... ... ... : ... .. . ... : ... .. 8 ... : ... .. . ... ... : ... .. 7 ... ... : F#4 01 5 P7F ... : ... .. . ... ...
ROW 30 : ... .. 8 ... ... ... : ... .. . ... ... ... : ... .. . ... : ... .. 7 ... : ... .. . ... ... : ... .. . ... ... : G-4 01 5 P80 ... : ... .. . ... ...
ROW 31 : A#2 00 D ... ... ... : ... .. . ... ... ... : ... .. . ... : ... .. 0 ... : ... .. . ... ... : E-4 01 A ... ... : G#4 01 5 P7F ... : G#4 01 F ... ...
ROW 32 : ... .. B ... ... ... : ... .. . ... ... ... : ... .. . ... : B-# 00 6 ... : ... .. . ... ... : ... .. 9 ... ... : ... .. . P7D ... : ... .. D ... ...
ROW 33 : ... .. . ... ... ... : ... .. . ... ... ... : ... .. . ... : ... .. 2 ... : ... .. . ... ... : ... .. 8 ... ... : G-4 01 5 ... ... : ... .. 8 ... ...
ROW 34 : ... .. A ... ... ... : ... .. . ... ... ... : ... .. . ... : ... .. . ... : ... .. . ... ... : ... .. 7 ... ... : F#4 01 5 P7C ... : ... .. . ... ...
ROW 35 : ... .. 8 ... ... ... : ... .. . ... ... ... : ... .. . ... : ... .. 0 ... : ... .. . ... ... : ... .. . ... ... : E-4 01 5 P85 ... : ... .. . ... ...
ROW 36 : E-2 00 D ... ... ... : C-2 00 F ... ... ... : C-2 00 . ... : ... .. . ... : ... .. . ... ... : F#4 01 A ... ... : --- .. . ... ... : A#4 01 F ... ...
ROW 37 : ... .. B ... ... ... : ... .. E ... ... ... : ... .. . ... : ... .. A ... : ... .. . ... ... : ... .. 9 ... ... : ... .. . ... ... : ... .. D ... ...
ROW 38 : ... .. . ... ... ... : ... .. D ... ... ... : ... .. . ... : ... .. 4 ... : ... .. . ... ... : ... .. 8 ... ... : ... .. . ... ... : ... .. 8 ... ...
ROW 39 : ... .. A ... ... ... : ... .. 0 ... V00 ... : --- .. . ... : ... .. . ... : ... .. . ... ... : ... .. 7 ... ... : ... .. . ... ... : ... .. . ... ...
ROW 3A : ... .. 8 ... ... ... : ... .. . ... ... ... : ... .. . ... : ... .. 0 ... : ... .. . ... ... : ... .. . ... ... : ... .. . ... ... : ... .. . ... ...
ROW 3B : F#2 00 D ... ... ... : C-2 00 F P83 V01 ... : C-2 00 . ... : ... .. . ... : ... .. . ... ... : G#4 01 A ... ... : ... .. . ... ... : C-5 01 F ... ...
ROW 3C : ... .. B ... ... ... : ... .. E ... ... ... : ... .. . ... : ... .. 8 ... : ... .. . ... ... : ... .. 9 ... ... : ... .. . ... ... : ... .. D ... ...
ROW 3D : ... .. . ... ... ... : ... .. D ... ... ... : ... .. . ... : ... .. 3 ... : ... .. . ... ... : ... .. 8 ... ... : ... .. . ... ... : ... .. 8 ... ...
ROW 3E : ... .. A ... ... ... : ... .. 0 ... V00 ... : --- .. . ... : ... .. . ... : ... .. . ... ... : ... .. 7 ... ... : ... .. . ... ... : ... .. . ... ...
ROW 3F : ... .. 8 ... ... ... : ... .. . ... ... ... : ... .. . ... : ... .. 0 ... : ... .. . ... ... : ... .. . ... ... : ... .. . ... ... : ... .. . ... ...
ROW 40 : G-2 00 F P7F ... ... : C#2 00 F P83 V01 ... : C-4 00 . ... : ... .. . ... : ... .. . ... ... : B-3 01 A P80 ... : F-4 01 A P80 ... : C#5 01 F P80 ...
ROW 41 : ... .. E ... ... ... : ... .. E ... ... ... : D-3 00 . ... : 2-# 00 F ... : ... .. . ... ... : ... .. 9 ... ... : ... .. 9 ... ... : ... .. D ... ...
ROW 42 : ... .. D ... ... ... : ... .. D ... ... ... : G-2 00 . ... : ... .. 6 ... : ... .. . ... ... : ... .. 8 ... ... : ... .. 8 ... ... : ... .. 8 ... ...
ROW 43 : ... .. A ... ... ... : ... .. A ... ... ... : F#2 00 . ... : ... .. . ... : ... .. . ... ... : ... .. 7 ... ... : ... .. 7 ... ... : ... .. . ... ...
ROW 44 : ... .. . ... ... ... : ... .. . ... ... ... : C#2 00 . ... : ... .. 0 ... : ... .. . ... ... : ... .. . ... ... : ... .. . ... ... : ... .. . ... ...
ROW 45 : ... .. . ... ... ... : ... .. . ... ... ... : ... .. . ... : ... .. . ... : ... .. . ... ... : ... .. 6 ... ... : ... .. 6 ... ... : ... .. . ... ...
ROW 46 : ... .. . ... ... ... : ... .. . ... ... ... : ... .. . ... : B-# 00 6 ... : ... .. . ... ... : ... .. . ... ... : ... .. . ... ... : ... .. . ... ...
ROW 47 : ... .. . ... ... ... : ... .. . ... ... ... : ... .. . ... : ... .. 2 ... : ... .. . ... ... : ... .. 5 ... ... : ... .. 5 ... ... : ... .. . ... ...
ROW 48 : ... .. 0 ... ... ... : ... .. . ... ... ... : ... .. . ... : ... .. . ... : ... .. . ... ... : ... .. . ... ... : ... .. . ... ... : ... .. . ... ...
ROW 49 : ... .. . ... ... ... : ... .. . ... ... ... : ... .. . ... : ... .. 0 ... : ... .. . ... ... : ... .. . ... ... : ... .. . ... ... : ... .. . ... ...
ROW 4A : B-3 00 F P7F ... ... : G-1 00 F ... ... ... : G-1 00 . ... : ... .. . ... : ... .. . ... ... : D-3 01 A ... ... : ... .. A ... ... : G-2 01 F ... ...
ROW 4B : ... .. E ... ... ... : ... .. E ... ... ... : ... .. . ... : ... .. A ... : ... .. . ... ... : ... .. 9 ... ... : ... .. 9 ... ... : ... .. D ... ...
ROW 4C : ... .. D ... ... ... : ... .. D ... ... ... : ... .. . ... : ... .. 4 ... : ... .. . ... ... : ... .. 8 ... ... : ... .. 8 ... ... : ... .. 8 ... ...
ROW 4D : ... .. 0 ... ... ... : ... .. A ... ... ... : ... .. . ... : ... .. . ... : ... .. . ... ... : --- .. . P82 ... : ... .. 7 ... ... : ... .. . ... ...
ROW 4E : ... .. . ... ... ... : ... .. . ... ... ... : ... .. . ... : ... .. 0 ... : ... .. . ... ... : ... .. . ... ... : ... .. . ... ... : ... .. . ... ...
ROW 4F : B-3 00 F P7F ... ... : ... .. . ... ... ... : ... .. . ... : ... .. . ... : ... .. . ... ... : D-3 01 A P80 ... : ... .. 6 ... ... : ... .. . ... ...
ROW 50 : ... .. E ... ... ... : ... .. . ... ... ... : ... .. . ... : ... .. 8 ... : ... .. . ... ... : ... .. 9 ... ... : ... .. . ... ... : ... .. . ... ...
ROW 51 : ... .. D ... ... ... : ... .. . ... ... ... : ... .. . ... : ... .. 3 ... : ... .. . ... ... : ... .. 8 ... ... : ... .. 5 ... ... : ... .. . ... ...
ROW 52 : ... .. 0 ... ... ... : ... .. 0 ... V00 ... : --- .. . ... : ... .. . ... : ... .. . ... ... : --- .. . P82 ... : --- .. . ... ... : --- .. . P7D ...
ROW 53 : ... .. . ... ... ... : ... .. . ... ... ... : ... .. . ... : ... .. 0 ... : ... .. . ... ... : ... .. . ... ... : ... .. . ... ... : ... .. . ... ...
ROW 54 : F-3 00 F P7F ... ... : C#2 00 F P83 V01 ... : C-4 00 . ... : 7-# 00 F ... : ... .. . ... ... : C#3 01 A P80 ... : F-4 01 A ... ... : G-1 01 F P80 ...
ROW 55 : ... .. E ... ... ... : ... .. E ... ... ... : D-3 00 . ... : ... .. C ... : ... .. . ... ... : ... .. 9 ... ... : ... .. 9 ... ... : ... .. D ... ...
ROW 56 : ... .. D ... ... ... : ... .. D ... ... ... : G-2 00 . ... : ... .. A ... : ... .. . ... ... : ... .. 8 ... ... : ... .. 8 ... ... : ... .. 8 ... ...
ROW 57 : ... .. A ... ... ... : ... .. 0 ... V00 ... : --- .. . ... : ... .. 8 ... : ... .. . ... ... : --- .. . P83 ... : ... .. 7 ... ... : ... .. . ... ...
ROW 58 : ... .. . ... ... ... : ... .. . ... ... ... : ... .. . ... : ... .. 7 ... : ... .. . ... ... : ... .. . ... ... : ... .. . ... ... : ... .. . ... ...
ROW 59 : ... .. . ... ... ... : C#2 00 F P83 V01 ... : C#2 00 . ... : ... .. 0 ... : ... .. . ... ... : C#3 01 A P80 ... : ... .. 6 ... ... : ... .. . ... ...
ROW 5A : ... .. . ... ... ... : ... .. E ... ... ... : ... .. . ... : B-# 00 6 ... : ... .. . ... ... : ... .. 9 ... ... : ... .. . ... ... : ... .. . ... ...
ROW 5B : ... .. . ... ... ... : ... .. D ... ... ... : ... .. . ... : ... .. 2 ... : ... .. . ... ... : ... .. 8 ... ... : ... .. 5 ... ... : ... .. . ... ...
ROW 5C : ... .. 0 ... ... ... : ... .. 0 ... V00 ... : --- .. . ... : ... .. . ... : ... .. . ... ... : --- .. . P83 ... : --- .. . ... ... : --- .. . P81 ...
ROW 5D : ... .. . ... ... ... : ... .. . ... ... ... : ... .. . ... : ... .. 0 ... : ... .. . ... ... : ... .. . ... ... : ... .. . ... ... : ... .. . ... ...
ROW 5E : G-2 00 F P7F ... ... : D-2 00 F P83 V01 ... : C#4 00 . ... : ... .. . ... : ... .. . ... ... : F-3 01 A P80 ... : C#4 01 A ... ... : B-4 01 F P80 ...
ROW 5F : ... .. E ... ... ... : ... .. E ... ... ... : D#3 00 . ... : ... .. A ... : ... .. . ... ... : ... .. 9 ... ... : ... .. 9 ... ... : ... .. D ... ...
ROW 60 : ... .. D ... ... ... : ... .. D ... ... ... : G#2 00 . ... : ... .. 4 ... : ... .. . ... ... : ... .. 8 ... ... : ... .. 8 ... ... : ... .. 8 ... ...
ROW 61 : ... .. A ... ... ... : ... .. A ... ... ... : G-2 00 . ... : ... .. . ... : ... .. . ... ... : ... .. 7 ... ... : ... .. 7 ... ... : ... .. . ... ...
ROW 62 : ... .. . ... ... ... : ... .. . ... ... ... : D-2 00 . ... : ... .. 0 ... : ... .. . ... ... : ... .. . ... ... : ... .. . ... ... : ... .. . ... ...
ROW 63 : ... .. . ... ... ... : ... .. . ... ... ... : ... .. . ... : ... .. . ... : ... .. . ... ... : ... .. 6 ... ... : ... .. 6 ... ... : ... .. . ... ...
ROW 64 : ... .. . ... ... ... : ... .. . ... ... ... : ... .. . ... : ... .. 8 ... : ... .. . ... ... : ... .. . ... ... : ... .. . ... ... : ... .. . ... ...
ROW 65 : ... .. . ... ... ... : ... .. . ... ... ... : ... .. . ... : ... .. 3 ... : ... .. . ... ... : ... .. 5 ... ... : ... .. 5 ... ... : ... .. . ... ...
ROW 66 : ... .. 0 ... ... ... : ... .. . ... ... ... : ... .. . ... : ... .. . ... : ... .. . ... ... : ... .. . ... ... : ... .. . ... ... : ... .. . ... ...
ROW 67 : ... .. . ... ... ... : ... .. . ... ... ... : ... .. . ... : ... .. 0 ... : ... .. . ... ... : ... .. . ... ... : ... .. . ... ... : ... .. . ... ...
ROW 68 : F-3 00 F P7F ... ... : G-1 00 F ... ... ... : G-1 00 . ... : 2-# 00 F ... : ... .. . ... ... : C#3 01 A ... ... : F-4 01 A ... ... : F-3 01 F ... ...
ROW 69 : ... .. E ... ... ... : ... .. E ... ... ... : ... .. . ... : ... .. C ... : ... .. . ... ... : ... .. 9 ... ... : ... .. 9 ... ... : ... .. D ... ...
ROW 6A : ... .. D ... ... ... : ... .. D ... ... ... : ... .. . ... : ... .. 6 ... : ... .. . ... ... : ... .. 8 ... ... : ... .. 8 ... ... : ... .. 8 ... ...
ROW 6B : ... .. 0 ... ... ... : ... .. A ... ... ... : ... .. . ... : ... .. 3 ... : ... .. . ... ... : --- .. . P83 ... : ... .. 7 ... ... : ... .. . ... ...
ROW 6C : ... .. . ... ... ... : ... .. . ... ... ... : ... .. . ... : ... .. 2 ... : ... .. . ... ... : ... .. . ... ... : ... .. . ... ... : ... .. . ... ...
ROW 6D : F-3 00 F P7F ... ... : ... .. . ... ... ... : ... .. . ... : ... .. 0 ... : ... .. . ... ... : C#3 01 A P80 ... : ... .. 6 ... ... : ... .. . ... ...
ROW 6E : ... .. E ... ... ... : ... .. . ... ... ... : ... .. . ... : B-# 00 8 ... : ... .. . ... ... : ... .. 9 ... ... : ... .. . ... ... : ... .. . ... ...
ROW 6F : ... .. D ... ... ... : ... .. . ... ... ... : ... .. . ... : ... .. 3 ... : ... .. . ... ... : ... .. 8 ... ... : ... .. 5 ... ... : ... .. . ... ...
ROW 70 : ... .. 0 ... ... ... : ... .. 0 ... V00 ... : --- .. . ... : ... .. . ... : ... .. . ... ... : --- .. . P83 ... : --- .. . ... ... : --- .. . P7F ...
ROW 71 : ... .. . ... ... ... : ... .. . ... ... ... : ... .. . ... : ... .. 0 ... : ... .. . ... ... : ... .. . ... ... : ... .. . ... ... : ... .. . ... ...
ROW 72 : B-2 00 F P7F ... ... : F-1 00 F P83 V01 ... : E-3 00 . ... : 2-# 00 F ... : ... .. . ... ... : G-2 01 A P80 ... : F-4 01 A ... ... : G-1 01 F P80 ...
ROW 73 : ... .. E ... ... ... : ... .. E ... ... ... : F#2 00 . ... : ... .. C ... : ... .. . ... ... : ... .. 9 ... ... : ... .. 9 ... ... : ... .. D ... ...
ROW 74 : ... .. D ... ... ... : ... .. D ... ... ... : B-1 00 . ... : ... .. 6 ... : ... .. . ... ... : ... .. 8 ... ... : ... .. 8 ... ... : ... .. 8 ... ...
ROW 75 : ... .. 0 ... ... ... : ... .. A ... ... ... : A#1 00 . ... : ... .. 3 ... : ... .. . ... ... : --- .. . P81 ... : ... .. 7 ... ... : ... .. . ... ...
ROW 76 : ... .. . ... ... ... : ... .. . ... ... ... : F-1 00 . ... : ... .. 2 ... : ... .. . ... ... : ... .. . ... ... : ... .. . ... ... : ... .. . ... ...
ROW 77 : B-2 00 F P7F ... ... : ... .. . ... ... ... : ... .. . ... : ... .. 0 ... : ... .. . ... ... : G-2 01 A P80 ... : ... .. 6 ... ... : ... .. . ... ...
ROW 78 : ... .. E ... ... ... : ... .. . ... ... ... : ... .. . ... : B-# 00 8 ... : ... .. . ... ... : ... .. 9 ... ... : ... .. . ... ... : ... .. . ... ...
ROW 79 : ... .. D ... ... ... : ... .. . ... ... ... : ... .. . ... : ... .. 3 ... : ... .. . ... ... : ... .. 8 ... ... : ... .. 5 ... ... : ... .. . ... ...
ROW 7A : ... .. 0 ... ... ... : ... .. . ... ... ... : ... .. . ... : ... .. . ... : ... .. . ... ... : --- .. . P81 ... : --- .. . ... ... : --- .. . P81 ...
ROW 7B : ... .. . ... ... ... : ... .. . ... ... ... : ... .. . ... : ... .. 0 ... : ... .. . ... ... : ... .. . ... ... : ... .. . ... ... : ... .. . ... ...
ROW 7C : G-2 00 F P7F ... ... : G-1 00 F ... ... ... : F#3 00 . ... : 7-# 00 F ... : ... .. . ... ... : F-4 01 A P80 ... : B-4 01 A ... ... : C#5 01 F P80 ...
ROW 7D : ... .. E ... ... ... : ... .. E ... ... ... : G#2 00 . ... : ... .. C ... : ... .. . ... ... : ... .. 9 ... ... : ... .. 9 ... ... : ... .. D ... ...
ROW 7E : ... .. D ... ... ... : ... .. D ... ... ... : C#2 00 . ... : ... .. A ... : ... .. . ... ... : ... .. 8 ... ... : ... .. 8 ... ... : ... .. 8 ... ...
ROW 7F : ... .. A ... ... ... : ... .. A ... ... ... : C-2 00 . ... : ... .. 8 ... : ... .. . ... ... : ... .. 7 ... ... : ... .. 7 ... ... : ... .. . ... ...
ROW 80 : ... .. . ... ... ... : ... .. . ... ... ... : G-1 00 . ... : ... .. 7 ... : ... .. . ... ... : ... .. . ... ... : ... .. . ... ... : ... .. . ... ...
ROW 81 : ... .. . ... ... ... : ... .. . ... ... ... : ... .. . ... : ... .. 0 ... : ... .. . ... ... : ... .. 6 ... ... : ... .. 6 ... ... : ... .. . ... ...
ROW 82 : ... .. . ... ... ... : ... .. . ... ... ... : ... .. . ... : B-# 00 6 ... : ... .. . ... ... : ... .. . ... ... : ... .. . ... ... : ... .. . ... ...
ROW 83 : ... .. . ... ... ... : ... .. . ... ... ... : ... .. . ... : ... .. 2 ... : ... .. . ... ... : ... .. 5 ... ... : ... .. 5 ... ... : ... .. . ... ...
ROW 84 : ... .. . ... ... ... : ... .. . ... ... ... : ... .. . ... : ... .. . ... : ... .. . ... ... : ... .. . ... ... : ... .. . ... ... : ... .. . ... ...
ROW 85 : ... .. . ... ... ... : ... .. . ... ... ... : ... .. . ... : ... .. 0 ... : ... .. . ... ... : ... .. . ... ... : ... .. . ... ... : ... .. . ... ...
ROW 86 : B-3 00 F ... ... ... : A#0 00 F ... ... ... : A#0 00 . ... : ... .. . ... : ... .. . ... ... : D-3 01 A ... ... : F-4 01 A ... ... : G-3 01 F ... ...
ROW 87 : ... .. E ... ... ... : ... .. E ... ... ... : ... .. . ... : ... .. A ... : ... .. . ... ... : ... .. 9 ... ... : ... .. 9 ... ... : ... .. D ... ...
ROW 88 : ... .. D ... ... ... : ... .. D ... ... ... : ... .. . ... : ... .. 4 ... : ... .. . ... ... : ... .. 8 ... ... : ... .. 8 ... ... : ... .. 8 ... ...
ROW 89 : ... .. 0 ... ... ... : ... .. A ... ... ... : ... .. . ... : ... .. . ... : ... .. . ... ... : --- .. . P82 ... : ... .. 7 ... ... : ... .. . ... ...
ROW 8A : ... .. . ... ... ... : ... .. . ... ... ... : ... .. . ... : ... .. 0 ... : ... .. . ... ... : ... .. . ... ... : ... .. . ... ... : ... .. . ... ...
ROW 8B : B-3 00 F P7F ... ... : ... .. . ... ... ... : ... .. . ... : ... .. . ... : ... .. . ... ... : D-3 01 A P80 ... : ... .. 6 ... ... : ... .. . ... ...
ROW 8C : ... .. E ... ... ... : ... .. . ... ... ... : ... .. . ... : ... .. 8 ... : ... .. . ... ... : ... .. 9 ... ... : ... .. . ... ... : ... .. . ... ...
ROW 8D : ... .. D ... ... ... : ... .. . ... ... ... : ... .. . ... : ... .. 3 ... : ... .. . ... ... : ... .. 8 ... ... : ... .. 5 ... ... : ... .. . ... ...
ROW 8E : ... .. 0 ... ... ... : ... .. 0 ... V00 ... : --- .. . ... : ... .. . ... : ... .. . ... ... : --- .. . P82 ... : --- .. . ... ... : --- .. . P7F ...
ROW 8F : ... .. . ... ... ... : ... .. . ... ... ... : ... .. . ... : ... .. 0 ... : ... .. . ... ... : ... .. . ... ... : ... .. . ... ... : ... .. . ... ...
ROW 90 : F-3 00 F P7F ... ... : F-3 00 F P83 V01 ... : E-5 00 . ... : 9-# 00 D ... : ... .. . ... ... : C#3 01 A P80 ... : F-4 01 A ... ... : G-1 01 F P80 ...
ROW 91 : ... .. E ... ... ... : ... .. E ... ... ... : F#4 00 . ... : ... .. . ... : ... .. . ... ... : ... .. 9 ... ... : ... .. 9 ... ... : ... .. D ... ...
ROW 92 : ... .. D ... ... ... : ... .. D ... ... ... : B-3 00 . ... : ... .. . ... : ... .. . ... ... : ... .. 8 ... ... : ... .. 8 ... ... : ... .. 8 ... ...
ROW 93 : ... .. 0 ... ... ... : ... .. A ... ... ... : A#3 00 . ... : ... .. B ... : ... .. . ... ... : --- .. . P83 ... : ... .. 7 ... ... : ... .. . ... ...
ROW 94 : ... .. . ... ... ... : ... .. . ... ... ... : F-3 00 . ... : ... .. . ... : ... .. . ... ... : ... .. . ... ... : ... .. . ... ... : ... .. . ... ...
ROW 95 : F-3 00 F P7F ... ... : E-3 00 A P76 ... ... : ... .. . ... : ... .. A ... : ... .. . ... ... : C#3 01 A P80 ... : ... .. 6 ... ... : ... .. . ... ...
ROW 96 : ... .. E ... ... ... : D-3 00 A P80 ... ... : D#3 00 . P88 : ... .. . ... : ... .. . ... ... : ... .. 9 ... ... : ... .. . ... ... : ... .. . ... ...
ROW 97 : ... .. D ... ... ... : C#3 00 A P77 ... ... : D-3 00 . P7D : ... .. . ... : ... .. . ... ... : ... .. 8 ... ... : ... .. 5 ... ... : ... .. . ... ...
ROW 98 : ... .. 0 ... ... ... : B-2 00 A P88 ... ... : C-3 00 . P8C : ... .. 9 ... : ... .. . ... ... : --- .. . P83 ... : --- .. . ... ... : --- .. . P81 ...
ROW 99 : ... .. . ... ... ... : A#2 00 A P83 ... ... : B-2 00 . P85 : ... .. . ... : ... .. . ... ... : ... .. . ... ... : ... .. . ... ... : ... .. . ... ...
ROW 9A : G-2 00 F P7F ... ... : G-2 00 F ... ... ... : F#4 00 . P80 : ... .. 7 ... : ... .. . ... ... : F-3 01 A P80 ... : B-3 01 A ... ... : G-4 01 F P80 ...
ROW 9B : ... .. E ... ... ... : ... .. E ... ... ... : G#3 00 . ... : ... .. . ... : ... .. . ... ... : ... .. 9 ... ... : ... .. 9 ... ... : ... .. D ... ...
ROW 9C : ... .. D ... ... ... : ... .. D ... ... ... : C#3 00 . ... : ... .. . ... : ... .. . ... ... : ... .. 8 ... ... : ... .. 8 ... ... : ... .. 8 ... ...
ROW 9D : ... .. A ... ... ... : ... .. 0 ... V00 ... : --- .. . ... : ... .. 6 ... : ... .. . ... ... : ... .. 7 ... ... : ... .. 7 ... ... : ... .. . ... ...
ROW 9E : ... .. . ... ... ... : ... .. . ... ... ... : ... .. . ... : ... .. . ... : ... .. . ... ... : ... .. . ... ... : ... .. . ... ... : ... .. . ... ...
ROW 9F : ... .. . ... ... ... : G-2 00 F P83 V01 ... : G-2 00 . ... : ... .. 5 ... : ... .. . ... ... : ... .. 6 ... ... : ... .. 6 ... ... : ... .. . ... ...
ROW A0 : ... .. . ... ... ... : ... .. E ... ... ... : ... .. . ... : ... .. . ... : ... .. . ... ... : ... .. . ... ... : ... .. . ... ... : ... .. . ... ...
ROW A1 : ... .. . ... ... ... : ... .. D ... ... ... : ... .. . ... : ... .. . ... : ... .. . ... ... : ... .. 5 ... ... : ... .. 5 ... ... : ... .. . ... ...
ROW A2 : ... .. . ... ... ... : ... .. 0 ... V00 ... : --- .. . ... : ... .. 4 ... : ... .. . ... ... : ... .. . ... ... : ... .. . ... ... : ... .. . ... ...
ROW A3 : ... .. . ... ... ... : ... .. . ... ... ... : ... .. . ... : ... .. . ... : ... .. . ... ... : ... .. . ... ... : ... .. . ... ... : ... .. . ... ...
ROW A4 : F-3 00 F ... ... ... : B-2 00 F P83 V01 ... : B-2 00 . ... : 7-# 00 F ... : ... .. . ... ... : F-2 01 A ... ... : F-4 01 A ... ... : F-3 01 F ... ...
ROW A5 : ... .. E ... ... ... : ... .. E ... ... ... : ... .. . ... : ... .. C ... : ... .. . ... ... : ... .. 9 ... ... : ... .. 9 ... ... : ... .. D ... ...
ROW A6 : ... .. D ... ... ... : ... .. D ... ... ... : ... .. . ... : ... .. A ... : ... .. . ... ... : ... .. 8 ... ... : ... .. 8 ... ... : ... .. 8 ... ...
ROW A7 : ... .. 0 ... ... ... : ... .. A ... ... ... : ... .. . ... : ... .. 8 ... : ... .. . ... ... : --- .. . P7E ... : ... .. 7 ... ... : ... .. . ... ...
ROW A8 : ... .. . ... ... ... : ... .. . ... ... ... : ... .. . ... : ... .. 7 ... : ... .. . ... ... : ... .. . ... ... : ... .. . ... ... : ... .. . ... ...
ROW A9 : F-3 00 F P7F ... ... : ... .. . ... ... ... : ... .. . ... : ... .. 0 ... : ... .. . ... ... : F-2 01 A P80 ... : ... .. 6 ... ... : ... .. . ... ...
ROW AA : ... .. E ... ... ... : ... .. . ... ... ... : ... .. . ... : B-# 00 6 ... : ... .. . ... ... : ... .. 9 ... ... : ... .. . ... ... : ... .. . ... ...
ROW AB : ... .. D ... ... ... : ... .. . ... ... ... : ... .. . ... : ... .. 2 ... : ... .. . ... ... : ... .. 8 ... ... : ... .. 5 ... ... : ... .. . ... ...
ROW AC : ... .. 0 ... ... ... : ... .. . ... ... ... : ... .. . ... : ... .. . ... : ... .. . ... ... : --- .. . P7E ... : --- .. . ... ... : --- .. . P7F ...
ROW AD : ... .. . ... ... ... : ... .. . ... ... ... : ... .. . ... : ... .. 0 ... : ... .. . ... ... : ... .. . ... ... : ... .. . ... ... : ... .. . ... ...
ROW AE : B-2 00 F P7F ... ... : F-2 00 F ... ... ... : E-4 00 . ... : 9-# 00 D ... : ... .. . ... ... : G-2 01 A P80 ... : F-4 01 A ... ... : C#3 01 F P80 ...
ROW AF : ... .. E ... ... ... : ... .. E ... ... ... : F#3 00 . ... : ... .. . ... : ... .. . ... ... : ... .. 9 ... ... : ... .. 9 ... ... : ... .. D ... ...
ROW B0 : ... .. D ... ... ... : ... .. D ... ... ... : B-2 00 . ... : ... .. . ... : ... .. . ... ... : ... .. 8 ... ... : ... .. 8 ... ... : ... .. 8 ... ...
ROW B1 : ... .. 0 ... ... ... : ... .. A ... ... ... : A#2 00 . ... : ... .. B ... : ... .. . ... ... : --- .. . P81 ... : ... .. 7 ... ... : ... .. . ... ...
ROW B2 : ... .. . ... ... ... : ... .. . ... ... ... : F-2 00 . ... : ... .. . ... : ... .. . ... ... : ... .. . ... ... : ... .. . ... ... : ... .. . ... ...
ROW B3 : B-2 00 F P7F ... ... : ... .. . ... ... ... : ... .. . ... : ... .. A ... : ... .. . ... ... : G-2 01 A P80 ... : ... .. 6 ... ... : ... .. . ... ...
ROW B4 : ... .. E ... ... ... : ... .. . ... ... ... : ... .. . ... : ... .. . ... : ... .. . ... ... : ... .. 9 ... ... : ... .. . ... ... : ... .. . ... ...
ROW B5 : ... .. D ... ... ... : ... .. . ... ... ... : ... .. . ... : ... .. . ... : ... .. . ... ... : ... .. 8 ... ... : ... .. 5 ... ... : ... .. . ... ...
ROW B6 : ... .. 0 ... ... ... : ... .. 0 ... V00 ... : --- .. . ... : ... .. 9 ... : ... .. . ... ... : --- .. . P81 ... : --- .. . ... ... : --- .. . ... ...
ROW B7 : ... .. . ... ... ... : ... .. . ... ... ... : ... .. . ... : ... .. . ... : ... .. . ... ... : ... .. . ... ... : ... .. . ... ... : ... .. . ... ...
ROW B8 : F-2 00 F P7F ... ... : G-1 00 F P83 V01 ... : F#3 00 . ... : ... .. 7 ... : ... .. . ... ... : B-2 01 A P80 ... : D#4 01 A ... ... : B-2 01 F ... ...
ROW B9 : ... .. E ... ... ... : ... .. E ... ... ... : G#2 00 . ... : ... .. . ... : ... .. . ... ... : ... .. 9 ... ... : ... .. 9 ... ... : ... .. D ... ...
ROW BA : ... .. D ... ... ... : ... .. D ... ... ... : C#2 00 . ... : ... .. . ... : ... .. . ... ... : ... .. 8 ... ... : ... .. 8 ... ... : ... .. 8 ... ...
ROW BB : ... .. A ... ... ... : ... .. 0 ... V00 ... : --- .. . ... : ... .. 6 ... : ... .. . ... ... : ... .. 7 ... ... : ... .. 7 ... ... : ... .. . ... ...
ROW BC : ... .. . ... ... ... : ... .. . ... ... ... : ... .. . ... : ... .. . ... : ... .. . ... ... : ... .. . ... ... : ... .. . ... ... : ... .. . ... ...
ROW BD : ... .. F ... ... ... : G-1 00 F P83 V01 ... : G-1 00 . ... : ... .. 5 ... : ... .. . ... ... : ... .. A ... ... : ... .. 6 ... ... : C#3 01 F ... ...
ROW BE : ... .. E ... ... ... : ... .. E ... ... ... : ... .. . ... : ... .. . ... : ... .. . ... ... : ... .. 9 ... ... : ... .. . ... ... : ... .. D ... ...
ROW BF : ... .. D ... ... ... : ... .. D ... ... ... : ... .. . ... : ... .. . ... : ... .. . ... ... : ... .. 8 ... ... : ... .. 5 ... ... : ... .. 8 ... ...
ROW C0 : ... .. 0 ... ... ... : ... .. 0 ... V00 ... : --- .. . ... : ... .. 4 ... : ... .. . ... ... : ... .. 7 ... ... : ... .. . ... ... : ... .. 4 ... ...
ROW C1 : ... .. . ... ... ... : ... .. . ... ... ... : ... .. . ... : ... .. . ... : ... .. . ... ... : ... .. . ... ... : ... .. . ... ... : ... .. . ... ...
ROW C2 : G-2 00 F P7F ... ... : G#1 00 F P83 V01 ... : G#1 00 . ... : ... .. 0 ... : ... .. . ... ... : C#3 01 A ... ... : B-3 01 A ... ... : F-3 01 F ... ...
ROW C3 : ... .. E ... ... ... : ... .. E ... ... ... : ... .. . ... : B-# 00 8 ... : ... .. . ... ... : ... .. 9 ... ... : ... .. 9 ... ... : ... .. D ... ...
ROW C4 : ... .. D ... ... ... : ... .. D ... ... ... : ... .. . ... : ... .. 3 ... : ... .. . ... ... : ... .. 8 ... ... : ... .. 8 ... ... : ... .. 8 ... ...
ROW C5 : ... .. 0 ... ... ... : ... .. A ... ... ... : ... .. . ... : ... .. . ... : ... .. . ... ... : ... .. 7 ... ... : ... .. 7 ... ... : ... .. 4 ... ...
ROW C6 : ... .. . ... ... ... : ... .. . ... ... ... : ... .. . ... : ... .. 0 ... : ... .. . ... ... : ... .. . ... ... : ... .. . ... ... : ... .. . ... ...
ROW C7 : G-2 00 F P7F ... ... : ... .. . ... ... ... : ... .. . ... : ... .. . ... : ... .. . ... ... : ... .. A ... ... : ... .. 6 ... ... : G-3 01 F ... ...
ROW C8 : ... .. E ... ... ... : ... .. . ... ... ... : ... .. . ... : ... .. 6 ... : ... .. . ... ... : ... .. 9 ... ... : ... .. . ... ... : ... .. D ... ...
ROW C9 : ... .. D ... ... ... : ... .. . ... ... ... : ... .. . ... : ... .. 2 ... : ... .. . ... ... : ... .. 8 ... ... : ... .. 5 ... ... : ... .. 8 ... ...
ROW CA : ... .. 0 ... ... ... : ... .. . ... ... ... : ... .. . ... : ... .. . ... : ... .. . ... ... : ... .. 7 ... ... : ... .. . ... ... : ... .. 4 ... ...
ROW CB : ... .. . ... ... ... : ... .. . ... ... ... : ... .. . ... : ... .. 0 ... : ... .. . ... ... : ... .. . ... ... : ... .. . ... ... : ... .. . ... ...
ROW CC : B-2 00 F P7F ... ... : G-3 00 F ... ... ... : F#5 00 . ... : 7-# 00 F ... : ... .. . ... ... : D-3 01 A ... ... : F-4 01 A ... ... : A#3 01 F ... ...
ROW CD : ... .. E ... ... ... : ... .. E ... ... ... : G#4 00 . ... : ... .. C ... : ... .. . ... ... : ... .. 9 ... ... : ... .. 9 ... ... : ... .. D ... ...
ROW CE : ... .. D ... ... ... : ... .. D ... ... ... : C#4 00 . ... : ... .. A ... : ... .. . ... ... : ... .. 8 ... ... : ... .. 8 ... ... : ... .. 8 ... ...
ROW CF : ... .. 0 ... ... ... : ... .. A ... ... ... : C-4 00 . ... : ... .. 0 ... : ... .. . ... ... : --- .. . P82 ... : ... .. 7 ... ... : ... .. 4 ... ...
ROW D0 : ... .. . ... ... ... : ... .. . ... ... ... : G-3 00 . ... : ... .. . ... : ... .. . ... ... : ... .. . ... ... : ... .. . ... ... : ... .. . ... ...
ROW D1 : B-2 00 F P7F ... ... : ... .. . ... ... ... : ... .. . ... : 6-# 00 F ... : ... .. . ... ... : D-3 01 A P80 ... : ... .. 6 ... ... : B-3 01 F ... ...
ROW D2 : ... .. E ... ... ... : ... .. . ... ... ... : ... .. . ... : ... .. C ... : ... .. . ... ... : ... .. 9 ... ... : ... .. . ... ... : ... .. D ... ...
ROW D3 : ... .. D ... ... ... : ... .. . ... ... ... : ... .. . ... : ... .. A ... : ... .. . ... ... : ... .. 8 ... ... : ... .. 5 ... ... : ... .. 8 ... ...
ROW D4 : ... .. 0 ... ... ... : ... .. . ... ... ... : ... .. . ... : ... .. 0 ... : ... .. . ... ... : --- .. . P82 ... : ... .. . ... ... : ... .. 4 ... ...
ROW D5 : ... .. . ... ... ... : ... .. . ... ... ... : ... .. . ... : ... .. . ... : ... .. . ... ... : ... .. . ... ... : ... .. . ... ... : ... .. . ... ...
ROW D6 : C#3 00 F P7F ... ... : B-2 00 F ... ... ... : B-2 00 . ... : 5-# 00 F ... : ... .. . ... ... : E-3 01 A P80 ... : G-4 01 A ... ... : C#4 01 F ... ...
ROW D7 : ... .. E ... ... ... : ... .. E ... ... ... : ... .. . ... : ... .. C ... : ... .. . ... ... : ... .. 9 ... ... : ... .. 9 ... ... : ... .. D ... ...
ROW D8 : ... .. D ... ... ... : ... .. D ... ... ... : ... .. . ... : ... .. A ... : ... .. . ... ... : ... .. 8 ... ... : ... .. 8 ... ... : ... .. 8 ... ...
ROW D9 : ... .. 0 ... ... ... : ... .. A ... ... ... : ... .. . ... : ... .. 0 ... : ... .. . ... ... : --- .. . P82 ... : ... .. 7 ... ... : ... .. 4 ... ...
ROW DA : ... .. . ... ... ... : ... .. . ... ... ... : ... .. . ... : ... .. . ... : ... .. . ... ... : ... .. . ... ... : ... .. . ... ... : ... .. . ... ...
ROW DB : C#3 00 F P7F ... ... : ... .. . ... ... ... : ... .. . ... : 4-# 00 F ... : ... .. . ... ... : E-3 01 A P80 ... : ... .. 6 ... ... : D-4 01 F ... ...
ROW DC : ... .. E ... ... ... : ... .. . ... ... ... : ... .. . ... : ... .. C ... : ... .. . ... ... : ... .. 9 ... ... : ... .. . ... ... : ... .. D ... ...
ROW DD : ... .. D ... ... ... : ... .. . ... ... ... : ... .. . ... : ... .. A ... : ... .. . ... ... : ... .. 8 ... ... : ... .. 5 ... ... : ... .. 8 ... ...
ROW DE : ... .. 0 ... ... ... : ... .. 0 ... V00 ... : --- .. . ... : ... .. 8 ... : ... .. . ... ... : --- .. . P82 ... : ... .. . ... ... : ... .. 4 ... ...
ROW DF : ... .. . ... ... ... : ... .. . ... ... ... : ... .. . ... : ... .. 7 ... : ... .. . ... ... : ... .. . ... ... : ... .. . ... ... : ... .. . ... ...
ROW E0 : E-2 00 D P80 ... ... : E-2 00 F P83 V01 ... : D#4 00 . ... : 9-# 00 D ... : ... .. . ... ... : A#3 01 A P81 ... : G#3 01 A P7F ... : E-4 01 F ... ...
ROW E1 : ... .. B ... ... ... : ... .. E ... ... ... : F-3 00 . ... : ... .. . ... : ... .. . ... ... : ... .. 9 ... ... : ... .. 9 ... ... : ... .. D ... ...
ROW E2 : ... .. . ... ... ... : ... .. D ... ... ... : A#2 00 . ... : ... .. . ... : ... .. . ... ... : ... .. 8 ... ... : ... .. 8 ... ... : ... .. 8 ... ...
ROW E3 : ... .. A ... ... ... : ... .. A ... ... ... : A-2 00 . ... : ... .. B ... : ... .. . ... ... : ... .. 7 ... ... : ... .. 7 ... ... : ... .. . ... ...
ROW E4 : ... .. 8 ... ... ... : ... .. . ... ... ... : E-2 00 . ... : ... .. . ... : ... .. . ... ... : ... .. . ... ... : ... .. . ... ... : ... .. . ... ...
ROW E5 : D-2 00 D ... ... ... : ... .. . ... ... ... : ... .. . ... : ... .. A ... : ... .. . ... ... : ... .. 6 ... ... : ... .. 6 ... ... : ... .. . ... ...
ROW E6 : ... .. B ... ... ... : ... .. . ... ... ... : ... .. . ... : ... .. . ... : ... .. . ... ... : ... .. . ... ... : ... .. . ... ... : ... .. . ... ...
ROW E7 : ... .. . ... ... ... : ... .. . ... ... ... : ... .. . ... : ... .. . ... : ... .. . ... ... : ... .. 5 ... ... : ... .. 5 ... ... : ... .. . ... ...
ROW E8 : ... .. A ... ... ... : ... .. . ... ... ... : ... .. . ... : ... .. 9 ... : ... .. . ... ... : ... .. . ... ... : ... .. . ... ... : ... .. . ... ...
ROW E9 : ... .. 8 ... ... ... : ... .. . ... ... ... : ... .. . ... : ... .. . ... : ... .. . ... ... : ... .. . ... ... : ... .. . ... ... : ... .. . ... ...
ROW EA : E-2 00 D ... ... ... : E-3 00 F ... ... ... : E-3 00 . ... : ... .. 7 ... : ... .. . ... ... : ... .. . ... ... : ... .. . ... ... : ... .. . ... ...
ROW EB : ... .. B ... ... ... : ... .. E ... ... ... : ... .. . ... : ... .. . ... : ... .. . ... ... : ... .. . ... ... : ... .. . ... ... : ... .. . ... ...
ROW EC : ... .. . ... ... ... : ... .. D ... ... ... : ... .. . ... : ... .. . ... : ... .. . ... ... : ... .. . ... ... : ... .. . ... ... : ... .. . ... ...
ROW ED : ... .. A ... ... ... : ... .. 0 ... V00 ... : --- .. . ... : ... .. 6 ... : ... .. . ... ... : ... .. . ... ... : ... .. . ... ... : ... .. . ... ...
ROW EE : ... .. 8 ... ... ... : ... .. . ... ... ... : ... .. . ... : ... .. . ... : ... .. . ... ... : ... .. . ... ... : ... .. . ... ... : ... .. . ... ...
ROW EF : F#2 00 D ... ... ... : E-3 00 F P83 V01 ... : E-3 00 . ... : ... .. 5 ... : ... .. . ... ... : ... .. . ... ... : ... .. . P83 ... : ... .. . P84 ...
ROW F0 : ... .. B ... ... ... : ... .. E ... ... ... : ... .. . ... : ... .. . ... : ... .. . ... ... : ... .. . ... ... : ... .. . P85 ... : F-4 01 8 P7B ...
ROW F1 : ... .. . ... ... ... : ... .. D ... ... ... : ... .. . ... : ... .. . ... : ... .. . ... ... : ... .. . ... ... : ... .. . P84 ... : E-4 01 8 P85 ...
ROW F2 : ... .. A ... ... ... : ... .. 0 ... V00 ... : --- .. . ... : ... .. 4 ... : ... .. . ... ... : ... .. . ... ... : ... .. . P81 ... : ... .. . P82 ...
ROW F3 : ... .. 8 ... ... ... : ... .. . ... ... ... : ... .. . ... : ... .. . ... : ... .. . ... ... : ... .. . ... ... : ... .. . P7D ... : ... .. . P7E ...
ROW F4 : G#2 00 D ... ... ... : E-2 00 F P83 V01 ... : E-2 00 . ... : 7-# 00 F ... : ... .. . ... ... : ... .. . ... ... : ... .. . P7A ... : ... .. . P7B ...
ROW F5 : ... .. B ... ... ... : ... .. E ... ... ... : ... .. . ... : ... .. C ... : ... .. . ... ... : ... .. . ... ... : ... .. . P79 ... : D#4 01 8 P85 ...
ROW F6 : ... .. . ... ... ... : ... .. D ... ... ... : ... .. . ... : ... .. A ... : ... .. . ... ... : ... .. . ... ... : ... .. . P7B ... : E-4 01 8 P7C ...
ROW F7 : ... .. A ... ... ... : ... .. A ... ... ... : ... .. . ... : ... .. 8 ... : ... .. . ... ... : ... .. . ... ... : ... .. . P7F ... : ... .. . P80 ...
ROW F8 : ... .. 8 ... ... ... : ... .. . ... ... ... : ... .. . ... : ... .. 7 ... : ... .. . ... ... : ... .. . ... ... : ... .. . P82 ... : ... .. . P83 ...
ROW F9 : A#2 00 D ... ... ... : ... .. . ... ... ... : ... .. . ... : ... .. 0 ... : ... .. . ... ... : ... .. . ... ... : ... .. . P85 ... : F-4 01 8 P7B ...
ROW FA : ... .. B ... ... ... : ... .. . ... ... ... : ... .. . ... : B-# 00 6 ... : ... .. . ... ... : ... .. . ... ... : ... .. . ... ... : ... .. . ... ...
ROW FB : ... .. . ... ... ... : ... .. . ... ... ... : ... .. . ... : ... .. 2 ... : ... .. . ... ... : ... .. . ... ... : ... .. . P81 ... : E-4 01 8 P82 ...
ROW FC : ... .. A ... ... ... : ... .. 0 ... V00 ... : --- .. . ... : ... .. . ... : ... .. . ... ... : ... .. . ... ... : ... .. . P7E ... : ... .. . P7F ...
ROW FD : ... .. 8 ... ... ... : ... .. . ... ... ... : ... .. . ... : ... .. 0 ... : ... .. . ... ... : ... .. . ... ... : ... .. . P7A ... : ... .. . P7B ...
ROW FE : C-3 00 D ... ... ... : D-3 00 F P83 V01 ... : D-3 00 . ... : ... .. . ... : ... .. . ... ... : G#3 01 A ... ... : F#3 01 A P7F ... : D-4 01 F P80 ...
ROW FF : ... .. B ... ... ... : ... .. E ... ... ... : ... .. . ... : ... .. A ... : ... .. . ... ... : ... .. 9 ... ... : ... .. 9 ... ... : ... .. D ... ...

PATTERN 11
ROW 00 : ... .. . ... ... ... : ... .. D ... ... ... : ... .. . ... : ... .. 4 ... : ... .. . ... ... : ... .. 8 ... ... : ... .. 8 ... ... : ... .. 8 ... ...
ROW 01 : ... .. A ... ... ... : ... .. A ... ... ... : ... .. . ... : ... .. . ... : ... .. . ... ... : ... .. 7 ... ... : ... .. 7 ... ... : ... .. . ... ...
ROW 02 : ... .. 8 ... ... ... : ... .. . ... ... ... : ... .. . ... : ... .. 0 ... : ... .. . ... ... : ... .. . ... ... : ... .. . ... ... : ... .. . ... ...
ROW 03 : D-3 00 D ... ... ... : ... .. . ... ... ... : ... .. . ... : ... .. . ... : ... .. . ... ... : ... .. 6 ... ... : ... .. 6 ... ... : ... .. . ... ...
ROW 04 : ... .. B ... ... ... : ... .. . ... ... ... : ... .. . ... : ... .. 8 ... : ... .. . ... ... : ... .. . ... ... : ... .. . ... ... : ... .. . ... ...
ROW 05 : ... .. . ... ... ... : ... .. . ... ... ... : ... .. . ... : ... .. 3 ... : ... .. . ... ... : ... .. 5 ... ... : ... .. 5 ... ... : ... .. . ... ...
ROW 06 : ... .. A ... ... ... : ... .. 0 ... V00 ... : --- .. . ... : ... .. . ... : ... .. . ... ... : ... .. . ... ... : ... .. . ... ... : ... .. . ... ...
ROW 07 : ... .. 8 ... ... ... : ... .. . ... ... ... : ... .. . ... : ... .. 0 ... : ... .. . ... ... : ... .. . ... ... : ... .. . ... ... : ... .. . ... ...
ROW 08 : E-2 00 D ... ... ... : C-3 00 F P83 V01 ... : B-4 00 . ... : 2-# 00 F ... : ... .. . ... ... : A#3 01 A ... ... : G#3 01 A ... ... : E-4 01 F ... ...
ROW 09 : ... .. B ... ... ... : ... .. E ... ... ... : C#4 00 . ... : ... .. C ... : ... .. . ... ... : ... .. 9 ... ... : ... .. 9 ... ... : ... .. D ... ...
ROW 0A : ... .. . ... ... ... : ... .. D ... ... ... : F#3 00 . ... : ... .. 6 ... : ... .. . ... ... : ... .. 8 ... ... : ... .. 8 ... ... : ... .. 8 ... ...
ROW 0B : ... .. A ... ... ... : ... .. A ... ... ... : F-3 00 . ... : ... .. 3 ... : ... .. . ... ... : ... .. 7 ... ... : ... .. 7 ... ... : ... .. . ... ...
ROW 0C : ... .. 8 ... ... ... : ... .. . ... ... ... : C-3 00 . ... : ... .. 2 ... : ... .. . ... ... : ... .. . ... ... : ... .. . ... ... : ... .. . ... ...
ROW 0D : D-2 00 D ... ... ... : ... .. . ... ... ... : ... .. . ... : ... .. 0 ... : ... .. . ... ... : ... .. 6 ... ... : ... .. 6 ... ... : ... .. . ... ...
ROW 0E : ... .. B ... ... ... : ... .. . ... ... ... : ... .. . ... : B-# 00 8 ... : ... .. . ... ... : ... .. . ... ... : ... .. . ... ... : ... .. . ... ...
ROW 0F : ... .. . ... ... ... : ... .. . ... ... ... : ... .. . ... : ... .. 3 ... : ... .. . ... ... : ... .. 5 ... ... : ... .. 5 ... ... : ... .. . ... ...
ROW 10 : ... .. A ... ... ... : ... .. . ... ... ... : ... .. . ... : ... .. . ... : ... .. . ... ... : ... .. . ... ... : ... .. . ... ... : ... .. . ... ...
ROW 11 : ... .. 8 ... ... ... : ... .. . ... ... ... : ... .. . ... : ... .. 0 ... : ... .. . ... ... : ... .. . ... ... : ... .. . ... ... : ... .. . ... ...
ROW 12 : E-2 00 D ... ... ... : F#2 00 F ... ... ... : F-4 00 . ... : 2-# 00 F ... : ... .. . ... ... : G#3 01 A ... ... : F#3 01 A ... ... : D-4 01 F ... ...
ROW 13 : ... .. B ... ... ... : ... .. E ... ... ... : G-3 00 . ... : ... .. C ... : ... .. . ... ... : ... .. 9 ... ... : ... .. 9 ... ... : ... .. D ... ...
ROW 14 : ... .. . ... ... ... : ... .. D ... ... ... : C-3 00 . ... : ... .. 6 ... : ... .. . ... ... : ... .. 8 ... ... : ... .. 8 ... ... : ... .. 8 ... ...
ROW 15 : ... .. A ... ... ... : ... .. A ... ... ... : B-2 00 . ... : ... .. 3 ... : ... .. . ... ... : ... .. 7 ... ... : ... .. 7 ... ... : ... .. . ... ...
ROW 16 : ... .. 8 ... ... ... : ... .. . ... ... ... : F#2 00 . ... : ... .. 2 ... : ... .. . ... ... : ... .. . ... ... : ... .. . ... ... : ... .. . ... ...
ROW 17 : F#2 00 D ... ... ... : ... .. . ... ... ... : ... .. . ... : ... .. 0 ... : ... .. . ... ... : ... .. 6 ... ... : ... .. 6 ... ... : ... .. . ... ...
ROW 18 : ... .. B ... ... ... : ... .. . ... ... ... : ... .. . ... : B-# 00 8 ... : ... .. . ... ... : ... .. . ... ... : ... .. . ... ... : ... .. . ... ...
ROW 19 : ... .. . ... ... ... : ... .. . ... ... ... : ... .. . ... : ... .. 3 ... : ... .. . ... ... : ... .. 5 ... ... : ... .. 5 ... ... : ... .. . ... ...
ROW 1A : ... .. A ... ... ... : ... .. . ... ... ... : ... .. . ... : ... .. . ... : ... .. . ... ... : ... .. . ... ... : ... .. . ... ... : ... .. . ... ...
ROW 1B : ... .. 8 ... ... ... : ... .. . ... ... ... : ... .. . ... : ... .. 0 ... : ... .. . ... ... : ... .. . ... ... : ... .. . ... ... : ... .. . ... ...
ROW 1C : G#2 00 D ... ... ... : G#2 00 F ... ... ... : G#2 00 . ... : 7-# 00 F ... : ... .. . ... ... : A#3 01 A ... ... : G#3 01 A ... ... : E-4 01 F ... ...
ROW 1D : ... .. B ... ... ... : ... .. E ... ... ... : ... .. . ... : ... .. C ... : ... .. . ... ... : ... .. 9 ... ... : ... .. 9 ... ... : ... .. D ... ...
ROW 1E : ... .. . ... ... ... : ... .. D ... ... ... : ... .. . ... : ... .. A ... : ... .. . ... ... : ... .. 8 ... ... : ... .. 8 ... ... : ... .. 8 ... ...
ROW 1F : ... .. A ... ... ... : ... .. A ... ... ... : ... .. . ... : ... .. 8 ... : ... .. . ... ... : ... .. 7 ... ... : ... .. 7 ... ... : ... .. . ... ...
ROW 20 : ... .. 8 ... ... ... : ... .. . ... ... ... : ... .. . ... : ... .. 7 ... : ... .. . ... ... : ... .. . ... ... : ... .. . ... ... : ... .. . ... ...
ROW 21 : A#2 00 D ... ... ... : ... .. . ... ... ... : ... .. . ... : ... .. 0 ... : ... .. . ... ... : ... .. 6 ... ... : ... .. 6 ... ... : ... .. . ... ...
ROW 22 : ... .. B ... ... ... : ... .. . ... ... ... : ... .. . ... : B-# 00 6 ... : ... .. . ... ... : ... .. . ... ... : ... .. . ... ... : ... .. . ... ...
ROW 23 : ... .. . ... ... ... : ... .. . ... ... ... : ... .. . ... : ... .. 2 ... : ... .. . ... ... : ... .. 5 ... ... : ... .. 5 ... ... : ... .. . ... ...
ROW 24 : ... .. A ... ... ... : ... .. 0 ... V00 ... : --- .. . ... : ... .. . ... : ... .. . ... ... : ... .. . ... ... : ... .. . ... ... : ... .. . ... ...
ROW 25 : ... .. 8 ... ... ... : ... .. . ... ... ... : ... .. . ... : ... .. 0 ... : ... .. . ... ... : ... .. . ... ... : ... .. . ... ... : ... .. . ... ...
ROW 26 : C-3 00 D ... ... ... : A#2 00 F P83 V01 ... : A#2 00 . ... : ... .. . ... : ... .. . ... ... : C-4 01 A ... ... : A#3 01 A ... ... : F#4 01 F ... ...
ROW 27 : ... .. B ... ... ... : ... .. E ... ... ... : ... .. . ... : ... .. A ... : ... .. . ... ... : ... .. 9 ... ... : ... .. 9 ... ... : ... .. D ... ...
ROW 28 : ... .. . ... ... ... : ... .. D ... ... ... : ... .. . ... : ... .. 4 ... : ... .. . ... ... : ... .. 8 ... ... : ... .. 8 ... ... : ... .. 8 ... ...
ROW 29 : ... .. A ... ... ... : ... .. A ... ... ... : ... .. . ... : ... .. . ... : ... .. . ... ... : ... .. 7 ... ... : ... .. 7 ... ... : ... .. . ... ...
ROW 2A : ... .. 8 ... ... ... : ... .. . ... ... ... : ... .. . ... : ... .. 0 ... : ... .. . ... ... : ... .. . ... ... : ... .. . ... ... : ... .. . ... ...
ROW 2B : D-3 00 D ... ... ... : ... .. . ... ... ... : ... .. . ... : ... .. . ... : ... .. . ... ... : ... .. 6 ... ... : ... .. 6 ... ... : ... .. . ... ...
ROW 2C : ... .. B ... ... ... : ... .. . ... ... ... : ... .. . ... : ... .. 8 ... : ... .. . ... ... : ... .. . ... ... : ... .. . ... ... : ... .. . ... ...
ROW 2D : ... .. . ... ... ... : ... .. . ... ... ... : ... .. . ... : ... .. 3 ... : ... .. . ... ... : ... .. 5 ... ... : ... .. 5 ... ... : ... .. . ... ...
ROW 2E : ... .. A ... ... ... : ... .. 0 ... V00 ... : --- .. . ... : ... .. . ... : ... .. . ... ... : ... .. . ... ... : ... .. . ... ... : ... .. . ... ...
ROW 2F : ... .. 8 ... ... ... : ... .. . ... ... ... : ... .. . ... : ... .. 0 ... : ... .. . ... ... : ... .. . ... ... : ... .. . ... ... : ... .. . ... ...
ROW 30 : E-2 00 D ... ... ... : D-2 00 F P83 V01 ... : C#4 00 . ... : 2-# 00 F ... : ... .. . ... ... : D-4 01 A ... ... : C-4 01 A ... ... : G#4 01 F ... ...
ROW 31 : ... .. B ... ... ... : ... .. E ... ... ... : D#3 00 . ... : ... .. C ... : ... .. . ... ... : ... .. 9 ... ... : ... .. 9 ... ... : ... .. D ... ...
ROW 32 : ... .. . ... ... ... : ... .. D ... ... ... : G#2 00 . ... : ... .. 6 ... : ... .. . ... ... : ... .. 8 ... ... : ... .. 8 ... ... : ... .. 8 ... ...
ROW 33 : ... .. A ... ... ... : ... .. 0 ... V00 ... : --- .. . ... : ... .. 3 ... : ... .. . ... ... : ... .. 7 ... ... : ... .. 7 ... ... : ... .. . ... ...
ROW 34 : ... .. 8 ... ... ... : ... .. . ... ... ... : ... .. . ... : ... .. 2 ... : ... .. . ... ... : ... .. . ... ... : ... .. . ... ... : ... .. . ... ...
ROW 35 : D-2 00 D ... ... ... : D-2 00 F P83 V01 ... : D-2 00 . ... : ... .. 0 ... : ... .. . ... ... : ... .. 6 ... ... : ... .. 6 ... ... : ... .. . ... ...
ROW 36 : ... .. B ... ... ... : ... .. E ... ... ... : ... .. . ... : B-# 00 8 ... : ... .. . ... ... : ... .. . ... ... : ... .. . ... ... : ... .. . ... ...
ROW 37 : ... .. . ... ... ... : ... .. D ... ... ... : ... .. . ... : ... .. 3 ... : ... .. . ... ... : ... .. 5 ... ... : ... .. 5 ... ... : ... .. . ... ...
ROW 38 : ... .. A ... ... ... : ... .. 0 ... V00 ... : --- .. . ... : ... .. . ... : ... .. . ... ... : ... .. . ... ... : ... .. . ... ... : ... .. . ... ...
ROW 39 : ... .. 8 ... ... ... : ... .. . ... ... ... : ... .. . ... : ... .. 0 ... : ... .. . ... ... : ... .. . ... ... : ... .. . ... ... : ... .. . ... ...
ROW 3A : E-2 00 D ... ... ... : D-2 00 F P83 V01 ... : D-2 00 . ... : 2-# 00 F ... : ... .. . ... ... : C-4 01 A ... ... : A#3 01 A ... ... : F#4 01 F ... ...
ROW 3B : ... .. B ... ... ... : ... .. E ... ... ... : ... .. . ... : ... .. C ... : ... .. . ... ... : ... .. 9 ... ... : ... .. 9 ... ... : ... .. D ... ...
ROW 3C : ... .. . ... ... ... : ... .. D ... ... ... : ... .. . ... : ... .. 6 ... : ... .. . ... ... : ... .. 8 ... ... : ... .. 8 ... ... : ... .. 8 ... ...
ROW 3D : ... .. A ... ... ... : ... .. 0 ... V00 ... : --- .. . ... : ... .. 3 ... : ... .. . ... ... : ... .. 7 ... ... : ... .. 7 ... ... : ... .. . ... ...
ROW 3E : ... .. 8 ... ... ... : ... .. . ... ... ... : ... .. . ... : ... .. 2 ... : ... .. . ... ... : ... .. . ... ... : ... .. . ... ... : ... .. . ... ...
ROW 3F : F#2 00 D ... ... ... : D-2 00 F P83 V01 ... : D-2 00 . ... : ... .. 0 ... : ... .. . ... ... : ... .. 6 ... ... : ... .. 6 ... ... : ... .. . ... ...
ROW 40 : ... .. B ... ... ... : ... .. E ... ... ... : ... .. . ... : B-# 00 8 ... : ... .. . ... ... : ... .. . ... ... : ... .. . ... ... : ... .. . ... ...
ROW 41 : ... .. . ... ... ... : ... .. D ... ... ... : ... .. . ... : ... .. 3 ... : ... .. . ... ... : ... .. 5 ... ... : ... .. 5 ... ... : ... .. . ... ...
ROW 42 : ... .. A ... ... ... : ... .. 0 ... V00 ... : --- .. . ... : ... .. . ... : ... .. . ... ... : ... .. . ... ... : ... .. . ... ... : ... .. . ... ...
ROW 43 : ... .. 8 ... ... ... : ... .. . ... ... ... : ... .. . ... : ... .. 0 ... : ... .. . ... ... : ... .. . ... ... : ... .. . ... ... : ... .. . ... ...
ROW 44 : G#2 00 D ... ... ... : E-2 00 F P83 V01 ... : E-2 00 . ... : 7-# 00 F ... : ... .. . ... ... : D-4 01 A ... ... : C-4 01 A ... ... : G#4 01 F ... ...
ROW 45 : ... .. B ... ... ... : ... .. E ... ... ... : ... .. . ... : ... .. C ... : ... .. . ... ... : ... .. 9 ... ... : ... .. 9 ... ... : ... .. D ... ...
ROW 46 : ... .. . ... ... ... : ... .. D ... ... ... : ... .. . ... : ... .. A ... : ... .. . ... ... : ... .. 8 ... ... : ... .. 8 ... ... : ... .. 8 ... ...
ROW 47 : ... .. A ... ... ... : ... .. A ... ... ... : ... .. . ... : ... .. 8 ... : ... .. . ... ... : ... .. 7 ... ... : ... .. 7 ... ... : ... .. . ... ...
ROW 48 : ... .. 8 ... ... ... : ... .. . ... ... ... : ... .. . ... : ... .. 7 ... : ... .. . ... ... : ... .. . ... ... : ... .. . ... ... : ... .. . ... ...
ROW 49 : A#2 00 D ... ... ... : ... .. . ... ... ... : ... .. . ... : ... .. 0 ... : ... .. . ... ... : ... .. 6 ... ... : ... .. 6 ... ... : ... .. . ... ...
ROW 4A : ... .. B ... ... ... : ... .. . ... ... ... : ... .. . ... : B-# 00 6 ... : ... .. . ... ... : ... .. . ... ... : ... .. . ... ... : ... .. . ... ...
ROW 4B : ... .. . ... ... ... : ... .. . ... ... ... : ... .. . ... : ... .. 2 ... : ... .. . ... ... : ... .. 5 ... ... : ... .. 5 ... ... : ... .. . ... ...
ROW 4C : ... .. A ... ... ... : ... .. 0 ... V00 ... : --- .. . ... : ... .. . ... : ... .. . ... ... : ... .. . ... ... : ... .. . ... ... : ... .. . ... ...
ROW 4D : ... .. 8 ... ... ... : ... .. . ... ... ... : ... .. . ... : ... .. 0 ... : ... .. . ... ... : ... .. . ... ... : ... .. . ... ... : ... .. . ... ...
ROW 4E : C-3 00 D ... ... ... : E-3 00 F P83 V01 ... : E-3 00 . ... : ... .. . ... : ... .. . ... ... : E-4 01 A ... ... : D-4 01 A ... ... : A#4 01 F ... ...
ROW 4F : ... .. B ... ... ... : ... .. E ... ... ... : ... .. . ... : ... .. A ... : ... .. . ... ... : ... .. 9 ... ... : ... .. 9 ... ... : ... .. D ... ...
ROW 50 : ... .. . ... ... ... : ... .. D ... ... ... : ... .. . ... : ... .. 4 ... : ... .. . ... ... : ... .. 8 ... ... : ... .. 8 ... ... : ... .. 8 ... ...
ROW 51 : ... .. A ... ... ... : ... .. A ... ... ... : ... .. . ... : ... .. . ... : ... .. . ... ... : ... .. 7 ... ... : ... .. 7 ... ... : ... .. . ... ...
ROW 52 : ... .. 8 ... ... ... : ... .. . ... ... ... : ... .. . ... : ... .. 0 ... : ... .. . ... ... : ... .. . ... ... : ... .. . ... ... : ... .. . ... ...
ROW 53 : D-3 00 D ... ... ... : ... .. . ... ... ... : ... .. . ... : ... .. . ... : ... .. . ... ... : ... .. 6 ... ... : ... .. 6 ... ... : ... .. . ... ...
ROW 54 : ... .. B ... ... ... : ... .. . ... ... ... : ... .. . ... : ... .. 8 ... : ... .. . ... ... : ... .. . ... ... : ... .. . ... ... : ... .. . ... ...
ROW 55 : ... .. . ... ... ... : ... .. . ... ... ... : ... .. . ... : ... .. 3 ... : ... .. . ... ... : ... .. 5 ... ... : ... .. 5 ... ... : ... .. . ... ...
ROW 56 : ... .. A ... ... ... : ... .. . ... ... ... : ... .. . ... : ... .. . ... : ... .. . ... ... : ... .. . ... ... : ... .. . ... ... : ... .. . ... ...
ROW 57 : ... .. 8 ... ... ... : ... .. . ... ... ... : ... .. . ... : ... .. 0 ... : ... .. . ... ... : ... .. . ... ... : ... .. . ... ... : ... .. . ... ...
ROW 58 : E-2 00 D ... ... ... : D-3 00 F ... ... ... : C#5 00 . ... : 2-# 00 F ... : ... .. . ... ... : F#4 01 A ... ... : E-4 01 A ... ... : C-5 01 F ... ...
ROW 59 : ... .. B ... ... ... : ... .. E ... ... ... : D#4 00 . ... : ... .. C ... : ... .. . ... ... : ... .. 9 ... ... : ... .. 9 ... ... : ... .. D ... ...
ROW 5A : ... .. . ... ... ... : ... .. D ... ... ... : G#3 00 . ... : ... .. 6 ... : ... .. . ... ... : ... .. 8 ... ... : ... .. 8 ... ... : ... .. 8 ... ...
ROW 5B : ... .. A ... ... ... : ... .. A ... ... ... : G-3 00 . ... : ... .. 3 ... : ... .. . ... ... : ... .. 7 ... ... : ... .. 7 ... ... : ... .. . ... ...
ROW 5C : ... .. 8 ... ... ... : ... .. . ... ... ... : D-3 00 . ... : ... .. 2 ... : ... .. . ... ... : ... .. . ... ... : ... .. . ... ... : ... .. . ... ...
ROW 5D : D-2 00 D ... ... ... : ... .. . ... ... ... : ... .. . ... : ... .. 0 ... : ... .. . ... ... : E-4 01 A ... ... : ... .. 6 ... ... : ... .. . ... ...
ROW 5E : ... .. B ... ... ... : ... .. . ... ... ... : ... .. . ... : B-# 00 8 ... : ... .. . ... ... : ... .. 9 ... ... : ... .. . ... ... : ... .. . ... ...
ROW 5F : ... .. . ... ... ... : ... .. . ... ... ... : ... .. . ... : ... .. 3 ... : ... .. . ... ... : ... .. 8 ... ... : ... .. 5 ... ... : ... .. . ... ...
ROW 60 : ... .. A ... ... ... : ... .. . ... ... ... : ... .. . ... : ... .. . ... : ... .. . ... ... : ... .. 7 ... ... : ... .. . ... ... : ... .. . ... ...
ROW 61 : ... .. 8 ... ... ... : ... .. . ... ... ... : ... .. . ... : ... .. 0 ... : ... .. . ... ... : ... .. . ... ... : ... .. . ... ... : ... .. . ... ...
ROW 62 : E-2 00 D ... ... ... : A#2 00 F ... ... ... : A-4 00 . ... : C-# 00 8 ... : ... .. . ... ... : D-4 01 A ... ... : ... .. . P83 ... : C#5 01 8 ... ...
ROW 63 : ... .. B ... ... ... : ... .. E ... ... ... : B-3 00 . ... : ... .. 7 ... : ... .. . ... ... : ... .. 9 ... ... : ... .. . P85 ... : ... .. . P82 ...
ROW 64 : ... .. . ... ... ... : ... .. D ... ... ... : E-3 00 . ... : ... .. . ... : ... .. . ... ... : ... .. 8 ... ... : ... .. . P84 ... : ... .. . P7F ...
ROW 65 : ... .. A ... ... ... : ... .. A ... ... ... : D#3 00 . ... : ... .. 6 ... : ... .. . ... ... : ... .. 7 ... ... : ... .. . P81 ... : C-5 01 8 P80 ...
ROW 66 : ... .. 8 ... ... ... : ... .. . ... ... ... : A#2 00 . ... : ... .. 5 ... : ... .. . ... ... : ... .. . ... ... : ... .. . P7D ... : B-4 01 8 ... ...
ROW 67 : F#2 00 D ... ... ... : ... .. . ... ... ... : ... .. . ... : ... .. 4 ... : ... .. . ... ... : E-4 01 A ... ... : D#4 01 5 P84 ... : ... .. . P7E ...
ROW 68 : ... .. B ... ... ... : ... .. . ... ... ... : ... .. . ... : ... .. . ... : ... .. . ... ... : ... .. 9 ... ... : ... .. . P83 ... : ... .. . P81 ...
ROW 69 : ... .. . ... ... ... : ... .. . ... ... ... : ... .. . ... : ... .. . ... : ... .. . ... ... : ... .. 8 ... ... : ... .. . P85 ... : C-5 01 8 P80 ...
ROW 6A : ... .. A ... ... ... : ... .. 0 ... V00 ... : --- .. . ... : ... .. 3 ... : ... .. . ... ... : ... .. 7 ... ... : E-4 01 5 P7F ... : C#5 01 8 ... ...
ROW 6B : ... .. 8 ... ... ... : ... .. . ... ... ... : ... .. . ... : ... .. . ... : ... .. . ... ... : ... .. . ... ... : ... .. . P82 ... : ... .. . P82 ...
ROW 6C : G#2 00 D ... ... ... : G#2 00 F P83 V01 ... : G#2 00 . ... : 7-# 00 F ... : ... .. . ... ... : F#4 01 A ... ... : A#3 01 A P7F ... : D-5 01 F P80 ...
ROW 6D : ... .. B ... ... ... : ... .. E ... ... ... : ... .. . ... : ... .. C ... : ... .. . ... ... : ... .. 9 ... ... : ... .. 9 ... ... : ... .. D ... ...
ROW 6E : ... .. . ... ... ... : ... .. D ... ... ... : ... .. . ... : ... .. A ... : ... .. . ... ... : ... .. 8 ... ... : ... .. 8 ... ... : ... .. 8 ... ...
ROW 6F : ... .. A ... ... ... : ... .. A ... ... ... : ... .. . ... : ... .. 8 ... : ... .. . ... ... : ... .. 7 ... ... : ... .. 7 ... ... : ... .. . ... ...
ROW 70 : ... .. 8 ... ... ... : ... .. . ... ... ... : ... .. . ... : ... .. 7 ... : ... .. . ... ... : ... .. . ... ... : ... .. . ... ... : ... .. . ... ...
ROW 71 : A#2 00 D ... ... ... : ... .. . ... ... ... : ... .. . ... : ... .. 0 ... : ... .. . ... ... : G#4 01 A ... ... : G#3 01 A ... ... : E-5 01 F ... ...
ROW 72 : ... .. B ... ... ... : ... .. . ... ... ... : ... .. . ... : B-# 00 6 ... : ... .. . ... ... : ... .. 9 ... ... : ... .. 9 ... ... : ... .. D ... ...
ROW 73 : ... .. . ... ... ... : ... .. . ... ... ... : ... .. . ... : ... .. 2 ... : ... .. . ... ... : ... .. 8 ... ... : ... .. 8 ... ... : ... .. 8 ... ...
ROW 74 : ... .. A ... ... ... : ... .. . ... ... ... : ... .. . ... : ... .. . ... : ... .. . ... ... : ... .. 7 ... ... : ... .. 7 ... ... : ... .. . ... ...
ROW 75 : ... .. 8 ... ... ... : ... .. . ... ... ... : ... .. . ... : ... .. 0 ... : ... .. . ... ... : ... .. . ... ... : ... .. . ... ... : ... .. . ... ...
ROW 76 : C-3 00 D ... ... ... : E-2 00 F ... ... ... : E-2 00 . ... : ... .. . ... : ... .. . ... ... : A#4 01 A ... ... : E-3 01 A ... ... : F#5 01 F ... ...
ROW 77 : ... .. B ... ... ... : ... .. E ... ... ... : ... .. . ... : ... .. A ... : ... .. . ... ... : ... .. 9 ... ... : ... .. 9 ... ... : ... .. D ... ...
ROW 78 : ... .. . ... ... ... : ... .. D ... ... ... : ... .. . ... : ... .. 4 ... : ... .. . ... ... : ... .. 8 ... ... : ... .. 8 ... ... : ... .. 8 ... ...
ROW 79 : ... .. A ... ... ... : ... .. 0 ... V00 ... : --- .. . ... : ... .. . ... : ... .. . ... ... : ... .. 7 ... ... : ... .. 7 ... ... : ... .. . ... ...
ROW 7A : ... .. 8 ... ... ... : ... .. . ... ... ... : ... .. . ... : ... .. 0 ... : ... .. . ... ... : ... .. . ... ... : ... .. . ... ... : ... .. . ... ...
ROW 7B : D-3 00 D ... ... ... : E-2 00 F P83 V01 ... : E-2 00 . ... : ... .. . ... : ... .. . ... ... : C-5 01 A ... ... : D-3 01 A ... ... : G#5 01 F ... ...
ROW 7C : ... .. B ... ... ... : ... .. E ... ... ... : ... .. . ... : ... .. 8 ... : ... .. . ... ... : ... .. 9 ... ... : ... .. 9 ... ... : ... .. D ... ...
ROW 7D : ... .. . ... ... ... : ... .. D ... ... ... : ... .. . ... : ... .. 3 ... : ... .. . ... ... : ... .. 8 ... ... : ... .. 8 ... ... : ... .. 8 ... ...
ROW 7E : ... .. A ... ... ... : ... .. 0 ... V00 ... : --- .. . ... : ... .. . ... : ... .. . ... ... : ... .. 7 ... ... : ... .. 7 ... ... : ... .. . ... ...
ROW 7F : ... .. 8 ... ... ... : ... .. . ... ... ... : ... .. . ... : ... .. 0 ... : ... .. . ... ... : ... .. . ... ... : ... .. . ... ... : ... .. . ... ...
ROW 80 : E-3 00 F ... ... ... : F#2 00 F P83 V01 ... : F-4 00 . ... : ... .. . ... : ... .. . ... ... : C#5 01 A ... ... : C-3 01 A ... ... : A#5 01 F ... ...
ROW 81 : ... .. E ... ... ... : ... .. E ... ... ... : G-3 00 . ... : 2-# 00 F ... : ... .. . ... ... : ... .. 9 ... ... : ... .. 9 ... ... : ... .. D ... ...
ROW 82 : ... .. D ... ... ... : ... .. D ... ... ... : C-3 00 . ... : ... .. 6 ... : ... .. . ... ... : ... .. 8 ... ... : ... .. 8 ... ... : ... .. 8 ... ...
ROW 83 : ... .. A ... ... ... : ... .. A ... ... ... : B-2 00 . ... : ... .. . ... : ... .. . ... ... : ... .. 7 ... ... : ... .. 7 ... ... : ... .. . ... ...
ROW 84 : ... .. . ... ... ... : ... .. . ... ... ... : F#2 00 . ... : ... .. 0 ... : ... .. . ... ... : ... .. . ... ... : ... .. . ... ... : ... .. . ... ...
ROW 85 : ... .. . ... ... ... : ... .. . ... ... ... : ... .. . ... : ... .. . ... : ... .. . ... ... : ... .. 6 ... ... : ... .. 6 ... ... : ... .. . ... ...
ROW 86 : ... .. . ... ... ... : ... .. . ... ... ... : ... .. . ... : B-# 00 6 ... : ... .. . ... ... : ... .. . ... ... : ... .. . ... ... : ... .. . ... ...
ROW 87 : ... .. . ... ... ... : ... .. . ... ... ... : ... .. . ... : ... .. 2 ... : ... .. . ... ... : ... .. 5 ... ... : ... .. 5 ... ... : ... .. . ... ...
ROW 88 : ... .. . ... ... ... : ... .. . ... ... ... : ... .. . ... : ... .. . ... : ... .. . ... ... : ... .. . ... ... : ... .. . ... ... : ... .. . ... ...
ROW 89 : ... .. . ... ... ... : ... .. . ... ... ... : ... .. . ... : ... .. 0 ... : ... .. . ... ... : ... .. . ... ... : ... .. . ... ... : ... .. . ... ...
ROW 8A : A#2 00 F ... ... ... : C-2 00 F ... ... ... : C-2 00 . ... : ... .. . ... : ... .. . ... ... : F#3 01 A ... ... : F#3 01 A ... ... : E-3 01 F ... ...
ROW 8B : ... .. E ... ... ... : ... .. E ... ... ... : ... .. . ... : ... .. A ... : ... .. . ... ... : ... .. 9 ... ... : ... .. 9 ... ... : ... .. D ... ...
ROW 8C : ... .. D ... ... ... : ... .. D ... ... ... : ... .. . ... : ... .. 4 ... : ... .. . ... ... : ... .. 8 ... ... : ... .. 8 ... ... : ... .. 8 ... ...
ROW 8D : ... .. A ... ... ... : ... .. A ... ... ... : ... .. . ... : ... .. . ... : ... .. . ... ... : --- .. . P80 ... : ... .. 7 ... ... : ... .. . ... ...
ROW 8E : ... .. . ... ... ... : ... .. . ... ... ... : ... .. . ... : ... .. 0 ... : ... .. . ... ... : ... .. . ... ... : ... .. . ... ... : ... .. . ... ...
ROW 8F : ... .. . ... ... ... : ... .. . ... ... ... : ... .. . ... : ... .. . ... : ... .. . ... ... : F#3 01 A P81 ... : ... .. 6 ... ... : ... .. . ... ...
ROW 90 : ... .. . ... ... ... : ... .. . ... ... ... : ... .. . ... : ... .. 8 ... : ... .. . ... ... : ... .. 9 ... ... : ... .. . ... ... : ... .. . ... ...
ROW 91 : ... .. . ... ... ... : ... .. . ... ... ... : ... .. . ... : ... .. 3 ... : ... .. . ... ... : ... .. 8 ... ... : ... .. 5 ... ... : ... .. . ... ...
ROW 92 : ... .. . ... ... ... : ... .. 0 ... V00 ... : --- .. . ... : ... .. . ... : ... .. . ... ... : --- .. . P80 ... : ... .. . ... ... : ... .. . ... ...
ROW 93 : ... .. . ... ... ... : ... .. . ... ... ... : ... .. . ... : ... .. 0 ... : ... .. . ... ... : ... .. . ... ... : ... .. . ... ... : ... .. . ... ...
ROW 94 : C-3 00 F ... ... ... : F#2 00 F P83 V01 ... : F#2 00 . ... : 7-# 00 F ... : ... .. . ... ... : C#5 01 5 P81 ... : C-3 01 5 ... ... : A#5 01 8 ... ...
ROW 95 : ... .. E ... ... ... : ... .. E ... ... ... : ... .. . ... : ... .. C ... : ... .. . ... ... : ... .. 4 ... ... : ... .. 4 ... ... : ... .. 6 ... ...
ROW 96 : ... .. D ... ... ... : ... .. D ... ... ... : ... .. . ... : ... .. A ... : ... .. . ... ... : ... .. . ... ... : ... .. . ... ... : ... .. 4 ... ...
ROW 97 : ... .. A ... ... ... : ... .. 0 ... V00 ... : --- .. . ... : ... .. 8 ... : ... .. . ... ... : --- .. . ... ... : ... .. 3 ... ... : ... .. . ... ...
ROW 98 : ... .. . ... ... ... : ... .. . ... ... ... : ... .. . ... : ... .. 7 ... : ... .. . ... ... : ... .. . ... ... : ... .. . ... ... : ... .. . ... ...
ROW 99 : ... .. . ... ... ... : F#2 00 F P83 V01 ... : F#2 00 . ... : ... .. 0 ... : ... .. . ... ... : F-3 01 A ... ... : ... .. . ... ... : ... .. . ... ...
ROW 9A : ... .. . ... ... ... : ... .. E ... ... ... : ... .. . ... : B-# 00 6 ... : ... .. . ... ... : ... .. 9 ... ... : ... .. . ... ... : ... .. . ... ...
ROW 9B : ... .. . ... ... ... : ... .. D ... ... ... : ... .. . ... : ... .. 2 ... : ... .. . ... ... : ... .. 8 ... ... : ... .. 2 ... ... : ... .. . ... ...
ROW 9C : ... .. . ... ... ... : ... .. 0 ... V00 ... : --- .. . ... : ... .. . ... : ... .. . ... ... : --- .. . ... ... : ... .. . ... ... : ... .. . ... ...
ROW 9D : ... .. . ... ... ... : ... .. . ... ... ... : ... .. . ... : ... .. 0 ... : ... .. . ... ... : ... .. . ... ... : ... .. . ... ... : ... .. . ... ...
ROW 9E : F#3 00 F ... ... ... : G#2 00 F P83 V01 ... : G-4 00 . ... : ... .. . ... : ... .. . ... ... : C-5 01 A ... ... : A#2 01 A ... ... : C-6 01 F ... ...
ROW 9F : ... .. E ... ... ... : ... .. E ... ... ... : A-3 00 . ... : ... .. A ... : ... .. . ... ... : ... .. 9 ... ... : ... .. 9 ... ... : ... .. D ... ...
ROW A0 : ... .. D ... ... ... : ... .. D ... ... ... : D-3 00 . ... : ... .. 4 ... : ... .. . ... ... : ... .. 8 ... ... : ... .. 8 ... ... : ... .. 8 ... ...
ROW A1 : ... .. A ... ... ... : ... .. A ... ... ... : C#3 00 . ... : ... .. . ... : ... .. . ... ... : ... .. 7 ... ... : ... .. 7 ... ... : ... .. . ... ...
ROW A2 : ... .. . ... ... ... : ... .. . ... ... ... : G#2 00 . ... : ... .. 0 ... : ... .. . ... ... : ... .. . ... ... : ... .. . ... ... : ... .. . ... ...
ROW A3 : ... .. . ... ... ... : ... .. . ... ... ... : ... .. . ... : ... .. . ... : ... .. . ... ... : ... .. 6 ... ... : ... .. 6 ... ... : ... .. . ... ...
ROW A4 : ... .. . ... ... ... : ... .. . ... ... ... : ... .. . ... : ... .. 8 ... : ... .. . ... ... : ... .. . ... ... : ... .. . ... ... : ... .. . ... ...
ROW A5 : ... .. . ... ... ... : ... .. . ... ... ... : ... .. . ... : ... .. 3 ... : ... .. . ... ... : ... .. 5 ... ... : ... .. 5 ... ... : ... .. . ... ...
ROW A6 : ... .. . ... ... ... : ... .. . ... ... ... : ... .. . ... : ... .. . ... : ... .. . ... ... : ... .. . ... ... : ... .. . ... ... : ... .. . ... ...
ROW A7 : ... .. . ... ... ... : ... .. . ... ... ... : ... .. . ... : ... .. 0 ... : ... .. . ... ... : ... .. . ... ... : ... .. . ... ... : ... .. . ... ...
ROW A8 : A#2 00 F ... ... ... : C-2 00 F ... ... ... : C-2 00 . ... : 2-# 00 F ... : ... .. . ... ... : F-3 01 A ... ... : F#3 01 A ... ... : D-4 01 F ... ...
ROW A9 : ... .. E ... ... ... : ... .. E ... ... ... : ... .. . ... : ... .. C ... : ... .. . ... ... : ... .. 9 ... ... : ... .. 9 ... ... : ... .. D ... ...
ROW AA : ... .. D ... ... ... : ... .. D ... ... ... : ... .. . ... : ... .. 6 ... : ... .. . ... ... : ... .. 8 ... ... : ... .. 8 ... ... : ... .. 8 ... ...
ROW AB : ... .. A ... ... ... : ... .. A ... ... ... : ... .. . ... : ... .. 3 ... : ... .. . ... ... : --- .. . ... ... : ... .. 7 ... ... : ... .. . ... ...
ROW AC : ... .. . ... ... ... : ... .. . ... ... ... : ... .. . ... : ... .. 2 ... : ... .. . ... ... : ... .. . ... ... : ... .. . ... ... : ... .. . ... ...
ROW AD : ... .. . ... ... ... : ... .. . ... ... ... : ... .. . ... : ... .. 0 ... : ... .. . ... ... : F-3 01 A ... ... : ... .. 6 ... ... : ... .. . ... ...
ROW AE : ... .. . ... ... ... : ... .. . ... ... ... : ... .. . ... : B-# 00 8 ... : ... .. . ... ... : ... .. 9 ... ... : ... .. . ... ... : ... .. . ... ...
ROW AF : ... .. . ... ... ... : ... .. . ... ... ... : ... .. . ... : ... .. 3 ... : ... .. . ... ... : ... .. 8 ... ... : ... .. 5 ... ... : ... .. . ... ...
ROW B0 : ... .. . ... ... ... : ... .. 0 ... V00 ... : --- .. . ... : ... .. . ... : ... .. . ... ... : --- .. . ... ... : ... .. . ... ... : ... .. . ... ...
ROW B1 : ... .. . ... ... ... : ... .. . ... ... ... : ... .. . ... : ... .. 0 ... : ... .. . ... ... : ... .. . ... ... : ... .. . ... ... : ... .. . ... ...
ROW B2 : C-3 00 F ... ... ... : A#1 00 F P83 V01 ... : A#1 00 . ... : 2-# 00 F ... : ... .. . ... ... : C-5 01 5 ... ... : A#2 01 5 ... ... : C-6 01 8 ... ...
ROW B3 : ... .. E ... ... ... : ... .. E ... ... ... : ... .. . ... : ... .. C ... : ... .. . ... ... : ... .. 4 ... ... : ... .. 4 ... ... : ... .. 6 ... ...
ROW B4 : ... .. D ... ... ... : ... .. D ... ... ... : ... .. . ... : ... .. 6 ... : ... .. . ... ... : ... .. . ... ... : ... .. . ... ... : ... .. 4 ... ...
ROW B5 : ... .. A ... ... ... : ... .. A ... ... ... : ... .. . ... : ... .. 3 ... : ... .. . ... ... : --- .. . ... ... : ... .. 3 ... ... : ... .. . ... ...
ROW B6 : ... .. . ... ... ... : ... .. . ... ... ... : ... .. . ... : ... .. 2 ... : ... .. . ... ... : ... .. . ... ... : ... .. . ... ... : ... .. . ... ...
ROW B7 : ... .. . ... ... ... : ... .. . ... ... ... : ... .. . ... : ... .. 0 ... : ... .. . ... ... : B-2 01 A ... ... : ... .. . ... ... : ... .. . ... ...
ROW B8 : ... .. . ... ... ... : ... .. . ... ... ... : ... .. . ... : B-# 00 8 ... : ... .. . ... ... : ... .. 9 ... ... : ... .. . ... ... : ... .. . ... ...
ROW B9 : ... .. . ... ... ... : ... .. . ... ... ... : ... .. . ... : ... .. 3 ... : ... .. . ... ... : ... .. 8 ... ... : ... .. 2 ... ... : ... .. . ... ...
ROW BA : ... .. . ... ... ... : ... .. . ... ... ... : ... .. . ... : ... .. . ... : ... .. . ... ... : --- .. . P86 ... : ... .. . ... ... : ... .. . ... ...
ROW BB : ... .. . ... ... ... : ... .. . ... ... ... : ... .. . ... : ... .. 0 ... : ... .. . ... ... : ... .. . ... ... : ... .. . ... ... : ... .. . ... ...
ROW BC : E-3 00 F ... ... ... : C-2 00 F ... ... ... : B-3 00 . ... : 7-# 00 F ... : ... .. . ... ... : G-4 01 A P81 ... : C-3 01 A ... ... : A#5 01 F ... ...
ROW BD : ... .. E ... ... ... : ... .. E ... ... ... : C#3 00 . ... : ... .. C ... : ... .. . ... ... : ... .. 9 ... ... : ... .. 9 ... ... : ... .. D ... ...
ROW BE : ... .. D ... ... ... : ... .. D ... ... ... : F#2 00 . ... : ... .. A ... : ... .. . ... ... : ... .. 8 ... ... : ... .. 8 ... ... : ... .. 8 ... ...
ROW BF : ... .. A ... ... ... : ... .. A ... ... ... : F-2 00 . ... : ... .. 8 ... : ... .. . ... ... : ... .. 7 ... ... : ... .. 7 ... ... : ... .. . ... ...
ROW C0 : ... .. . ... ... ... : ... .. . ... ... ... : C-2 00 . ... : ... .. 7 ... : ... .. . ... ... : ... .. . ... ... : ... .. . ... ... : ... .. . ... ...
ROW C1 : ... .. . ... ... ... : ... .. . ... ... ... : ... .. . ... : ... .. 0 ... : ... .. . ... ... : ... .. 6 ... ... : ... .. 6 ... ... : ... .. . ... ...
ROW C2 : ... .. . ... ... ... : ... .. . ... ... ... : ... .. . ... : B-# 00 6 ... : ... .. . ... ... : ... .. . ... ... : ... .. . ... ... : ... .. . ... ...
ROW C3 : ... .. . ... ... ... : ... .. . ... ... ... : ... .. . ... : ... .. 2 ... : ... .. . ... ... : ... .. 5 ... ... : ... .. 5 ... ... : ... .. . ... ...
ROW C4 : ... .. . ... ... ... : ... .. . ... ... ... : ... .. . ... : ... .. . ... : ... .. . ... ... : ... .. . ... ... : ... .. . ... ... : ... .. . ... ...
ROW C5 : ... .. . ... ... ... : ... .. . ... ... ... : ... .. . ... : ... .. 0 ... : ... .. . ... ... : ... .. . ... ... : ... .. . ... ... : ... .. . ... ...
ROW C6 : A#2 00 F ... ... ... : D#1 00 F ... ... ... : D#1 00 . ... : ... .. . ... : ... .. . ... ... : F#3 01 A ... ... : F#3 01 A ... ... : E-4 01 F ... ...
ROW C7 : ... .. E ... ... ... : ... .. E ... ... ... : ... .. . ... : ... .. A ... : ... .. . ... ... : ... .. 9 ... ... : ... .. 9 ... ... : ... .. D ... ...
ROW C8 : ... .. D ... ... ... : ... .. D ... ... ... : ... .. . ... : ... .. 4 ... : ... .. . ... ... : ... .. 8 ... ... : ... .. 8 ... ... : ... .. 8 ... ...
ROW C9 : ... .. A ... ... ... : ... .. A ... ... ... : ... .. . ... : ... .. . ... : ... .. . ... ... : --- .. . P80 ... : ... .. 7 ... ... : ... .. . ... ...
ROW CA : ... .. . ... ... ... : ... .. . ... ... ... : ... .. . ... : ... .. 0 ... : ... .. . ... ... : ... .. . ... ... : ... .. . ... ... : ... .. . ... ...
ROW CB : ... .. . ... ... ... : ... .. . ... ... ... : ... .. . ... : ... .. . ... : ... .. . ... ... : F#3 01 A P81 ... : ... .. 6 ... ... : ... .. . ... ...
ROW CC : ... .. . ... ... ... : ... .. . ... ... ... : ... .. . ... : ... .. 8 ... : ... .. . ... ... : ... .. 9 ... ... : ... .. . ... ... : ... .. . ... ...
ROW CD : ... .. . ... ... ... : ... .. . ... ... ... : ... .. . ... : ... .. 3 ... : ... .. . ... ... : ... .. 8 ... ... : ... .. 5 ... ... : ... .. . ... ...
ROW CE : ... .. . ... ... ... : ... .. 0 ... V00 ... : --- .. . ... : ... .. . ... : ... .. . ... ... : --- .. . P80 ... : ... .. . ... ... : ... .. . ... ...
ROW CF : ... .. . ... ... ... : ... .. . ... ... ... : ... .. . ... : ... .. 0 ... : ... .. . ... ... : ... .. . ... ... : ... .. . ... ... : ... .. . ... ...
ROW D0 : C-3 00 F ... ... ... : A#3 00 F P83 V01 ... : A#3 00 . ... : 9-# 00 D ... : ... .. . ... ... : G-4 01 5 P81 ... : C-3 01 5 ... ... : A#5 01 8 ... ...
ROW D1 : ... .. E ... ... ... : ... .. E ... ... ... : ... .. . ... : ... .. . ... : ... .. . ... ... : ... .. 4 ... ... : ... .. 4 ... ... : ... .. 6 ... ...
ROW D2 : ... .. D ... ... ... : ... .. D ... ... ... : ... .. . ... : ... .. . ... : ... .. . ... ... : ... .. . ... ... : ... .. . ... ... : ... .. 4 ... ...
ROW D3 : ... .. A ... ... ... : ... .. A ... ... ... : ... .. . ... : ... .. B ... : ... .. . ... ... : --- .. . ... ... : ... .. 3 ... ... : ... .. . ... ...
ROW D4 : ... .. . ... ... ... : ... .. . ... ... ... : ... .. . ... : ... .. . ... : ... .. . ... ... : ... .. . ... ... : ... .. . ... ... : ... .. . ... ...
ROW D5 : ... .. . ... ... ... : G#3 00 A P80 ... ... : G#3 00 . P7D : ... .. A ... : ... .. . ... ... : F-3 01 A ... ... : ... .. . ... ... : ... .. . ... ...
ROW D6 : ... .. . ... ... ... : F#3 00 A P81 ... ... : F#3 00 . P7E : ... .. . ... : ... .. . ... ... : ... .. 9 ... ... : ... .. . ... ... : ... .. . ... ...
ROW D7 : ... .. . ... ... ... : E-3 00 A P86 ... ... : E-3 00 . P83 : ... .. . ... : ... .. . ... ... : ... .. 8 ... ... : ... .. 2 ... ... : ... .. . ... ...
ROW D8 : ... .. . ... ... ... : D#3 00 A P7B ... ... : D#3 00 . P78 : ... .. 9 ... : ... .. . ... ... : --- .. . ... ... : ... .. . ... ... : ... .. . ... ...
ROW D9 : ... .. . ... ... ... : C#3 00 A P87 ... ... : C#3 00 . P84 : ... .. . ... : ... .. . ... ... : ... .. . ... ... : ... .. . ... ... : ... .. . ... ...
ROW DA : G-3 00 F ... ... ... : C-3 00 F P83 ... ... : B-4 00 . P80 : ... .. 7 ... : ... .. . ... ... : F#4 01 A ... ... : A#2 01 A ... ... : E-5 01 F ... ...
ROW DB : ... .. E ... ... ... : ... .. E ... ... ... : C#4 00 . ... : ... .. . ... : ... .. . ... ... : ... .. 9 ... ... : ... .. 9 ... ... : ... .. D ... ...
ROW DC : ... .. D ... ... ... : ... .. D ... ... ... : F#3 00 . ... : ... .. . ... : ... .. . ... ... : ... .. 8 ... ... : ... .. 8 ... ... : ... .. 8 ... ...
ROW DD : ... .. A ... ... ... : ... .. 0 ... V00 ... : --- .. . ... : ... .. 6 ... : ... .. . ... ... : ... .. 7 ... ... : ... .. 7 ... ... : ... .. . ... ...
ROW DE : ... .. . ... ... ... : ... .. . ... ... ... : ... .. . ... : ... .. . ... : ... .. . ... ... : ... .. . ... ... : ... .. . ... ... : ... .. . ... ...
ROW DF : ... .. . ... ... ... : C-3 00 F P83 V01 ... : C-3 00 . ... : ... .. 5 ... : ... .. . ... ... : ... .. 6 ... ... : ... .. 6 ... ... : ... .. . ... ...
ROW E0 : ... .. . ... ... ... : ... .. E ... ... ... : ... .. . ... : ... .. . ... : ... .. . ... ... : ... .. . ... ... : ... .. . ... ... : ... .. . ... ...
ROW E1 : ... .. . ... ... ... : ... .. D ... ... ... : ... .. . ... : ... .. . ... : ... .. . ... ... : ... .. 5 ... ... : ... .. 5 ... ... : ... .. . ... ...
ROW E2 : ... .. . ... ... ... : ... .. 0 ... V00 ... : --- .. . ... : ... .. 4 ... : ... .. . ... ... : ... .. . ... ... : ... .. . ... ... : ... .. . ... ...
ROW E3 : ... .. . ... ... ... : ... .. . ... ... ... : ... .. . ... : ... .. . ... : ... .. . ... ... : ... .. . ... ... : ... .. . ... ... : ... .. . ... ...
ROW E4 : A#2 00 F ... ... ... : E-3 00 F P83 V01 ... : E-3 00 . ... : 7-# 00 F ... : ... .. . ... ... : A-2 01 A ... ... : F#3 01 A ... ... : D-4 01 F ... ...
ROW E5 : ... .. E ... ... ... : ... .. E ... ... ... : ... .. . ... : ... .. C ... : ... .. . ... ... : ... .. 9 ... ... : ... .. 9 ... ... : ... .. D ... ...
ROW E6 : ... .. D ... ... ... : ... .. D ... ... ... : ... .. . ... : ... .. A ... : ... .. . ... ... : ... .. 8 ... ... : ... .. 8 ... ... : ... .. 8 ... ...
ROW E7 : ... .. A ... ... ... : ... .. A ... ... ... : ... .. . ... : ... .. 8 ... : ... .. . ... ... : --- .. . P83 ... : ... .. 7 ... ... : ... .. . ... ...
ROW E8 : ... .. . ... ... ... : ... .. . ... ... ... : ... .. . ... : ... .. 7 ... : ... .. . ... ... : ... .. . ... ... : ... .. . ... ... : ... .. . ... ...
ROW E9 : ... .. . ... ... ... : ... .. . ... ... ... : ... .. . ... : ... .. 0 ... : ... .. . ... ... : A-2 01 A P81 ... : ... .. 6 ... ... : ... .. . ... ...
ROW EA : ... .. . ... ... ... : ... .. . ... ... ... : ... .. . ... : B-# 00 6 ... : ... .. . ... ... : ... .. 9 ... ... : ... .. . ... ... : ... .. . ... ...
ROW EB : ... .. . ... ... ... : ... .. . ... ... ... : ... .. . ... : ... .. 2 ... : ... .. . ... ... : ... .. 8 ... ... : ... .. 5 ... ... : ... .. . ... ...
ROW EC : ... .. . ... ... ... : ... .. . ... ... ... : ... .. . ... : ... .. . ... : ... .. . ... ... : --- .. . P83 ... : ... .. . ... ... : ... .. . ... ...
ROW ED : ... .. . ... ... ... : ... .. . ... ... ... : ... .. . ... : ... .. 0 ... : ... .. . ... ... : ... .. . ... ... : ... .. . ... ... : ... .. . ... ...
ROW EE : C-3 00 F ... ... ... : A#2 00 F ... ... ... : A#2 00 . ... : 9-# 00 D ... : ... .. . ... ... : F#4 01 5 P81 ... : A#2 01 5 ... ... : E-5 01 8 ... ...
ROW EF : ... .. E ... ... ... : ... .. E ... ... ... : ... .. . ... : ... .. . ... : ... .. . ... ... : ... .. 4 ... ... : ... .. 4 ... ... : ... .. 6 ... ...
ROW F0 : ... .. D ... ... ... : ... .. D ... ... ... : ... .. . ... : ... .. . ... : ... .. . ... ... : ... .. . ... ... : ... .. . ... ... : ... .. 4 ... ...
ROW F1 : ... .. A ... ... ... : ... .. A ... ... ... : ... .. . ... : ... .. B ... : ... .. . ... ... : --- .. . ... ... : ... .. 3 ... ... : ... .. . ... ...
ROW F2 : ... .. . ... ... ... : ... .. . ... ... ... : ... .. . ... : ... .. . ... : ... .. . ... ... : ... .. . ... ... : ... .. . ... ... : ... .. . ... ...
ROW F3 : ... .. . ... ... ... : ... .. . ... ... ... : ... .. . ... : ... .. A ... : ... .. . ... ... : B-2 01 A ... ... : ... .. . ... ... : ... .. . ... ...
ROW F4 : ... .. . ... ... ... : ... .. . ... ... ... : ... .. . ... : ... .. . ... : ... .. . ... ... : ... .. 9 ... ... : ... .. . ... ... : ... .. . ... ...
ROW F5 : ... .. . ... ... ... : ... .. . ... ... ... : ... .. . ... : ... .. . ... : ... .. . ... ... : ... .. 8 ... ... : ... .. 2 ... ... : ... .. . ... ...
ROW F6 : ... .. . ... ... ... : ... .. 0 ... V00 ... : --- .. . ... : ... .. 9 ... : ... .. . ... ... : --- .. . P86 ... : ... .. . ... ... : ... .. . ... ...
ROW F7 : ... .. . ... ... ... : ... .. . ... ... ... : ... .. . ... : ... .. . ... : ... .. . ... ... : ... .. . ... ... : ... .. . ... ... : ... .. . ... ...
ROW F8 : E-3 00 F ... ... ... : C-2 00 F P83 V01 ... : B-3 00 . ... : ... .. 7 ... : ... .. . ... ... : D-3 01 A P81 ... : C-3 01 A ... ... : G#3 01 F ... ...
ROW F9 : ... .. E ... ... ... : ... .. E ... ... ... : C#3 00 . ... : ... .. . ... : ... .. . ... ... : ... .. 9 ... ... : ... .. 9 ... ... : ... .. D ... ...
ROW FA : ... .. D ... ... ... : ... .. D ... ... ... : F#2 00 . ... : ... .. . ... : ... .. . ... ... : ... .. 8 ... ... : ... .. 8 ... ... : ... .. 8 ... ...
ROW FB : ... .. A ... ... ... : ... .. 0 ... V00 ... : --- .. . ... : ... .. 6 ... : ... .. . ... ... : ... .. 7 ... ... : ... .. 7 ... ... : ... .. . ... ...
ROW FC : ... .. . ... ... ... : ... .. . ... ... ... : ... .. . ... : ... .. . ... : ... .. . ... ... : ... .. . ... ... : ... .. . ... ... : ... .. . ... ...
ROW FD : ... .. . ... ... ... : C-2 00 F P83 V01 ... : C-2 00 . ... : ... .. 5 ... : ... .. . ... ... : ... .. A ... ... : D-3 01 A ... ... : A#3 01 F ... ...
ROW FE : ... .. . ... ... ... : ... .. E ... ... ... : ... .. . ... : ... .. . ... : ... .. . ... ... : ... .. 9 ... ... : ... .. 9 ... ... : ... .. D ... ...
ROW FF : ... .. . ... ... ... : ... .. D ... ... ... : ... .. . ... : ... .. . ... : ... .. . ... ... : ... .. 8 ... ... : ... .. 8 ... ... : ... .. 8 ... ...

PATTERN 12
ROW 00 : ... .. . ... ... ... : ... .. 0 ... V00 ... : --- .. . ... : ... .. 4 ... : ... .. . ... ... : ... .. 7 ... ... : ... .. 7 ... ... : ... .. . ... ...
ROW 01 : ... .. . ... ... ... : ... .. . ... ... ... : ... .. . ... : ... .. . ... : ... .. . ... ... : ... .. . ... ... : ... .. . ... ... : ... .. . ... ...
ROW 02 : F#3 00 F ... ... ... : D-2 00 F P83 V01 ... : C#4 00 . ... : ... .. 0 ... : ... .. . ... ... : E-3 01 A ... ... : E-3 01 A ... ... : D-4 01 F ... ...
ROW 03 : ... .. E ... ... ... : ... .. E ... ... ... : D#3 00 . ... : B-# 00 8 ... : ... .. . ... ... : ... .. 9 ... ... : ... .. 9 ... ... : ... .. D ... ...
ROW 04 : ... .. D ... ... ... : ... .. D ... ... ... : G#2 00 . ... : ... .. 3 ... : ... .. . ... ... : ... .. 8 ... ... : ... .. 8 ... ... : ... .. 8 ... ...
ROW 05 : ... .. A ... ... ... : ... .. A ... ... ... : G-2 00 . ... : ... .. . ... : ... .. . ... ... : ... .. 7 ... ... : ... .. 7 ... ... : ... .. . ... ...
ROW 06 : ... .. . ... ... ... : ... .. . ... ... ... : D-2 00 . ... : ... .. 0 ... : ... .. . ... ... : ... .. . ... ... : ... .. . ... ... : ... .. . ... ...
ROW 07 : ... .. . ... ... ... : ... .. . ... ... ... : ... .. . ... : ... .. . ... : ... .. . ... ... : ... .. A ... ... : F#3 01 A ... ... : E-4 01 F ... ...
ROW 08 : ... .. . ... ... ... : ... .. . ... ... ... : ... .. . ... : ... .. 6 ... : ... .. . ... ... : ... .. 9 ... ... : ... .. 9 ... ... : ... .. D ... ...
ROW 09 : ... .. . ... ... ... : ... .. . ... ... ... : ... .. . ... : ... .. 2 ... : ... .. . ... ... : ... .. 8 ... ... : ... .. 8 ... ... : ... .. 8 ... ...
ROW 0A : ... .. . ... ... ... : ... .. . ... ... ... : ... .. . ... : ... .. . ... : ... .. . ... ... : ... .. 7 ... ... : ... .. 7 ... ... : ... .. . ... ...
ROW 0B : ... .. . ... ... ... : ... .. . ... ... ... : ... .. . ... : ... .. 0 ... : ... .. . ... ... : ... .. . ... ... : ... .. . ... ... : ... .. . ... ...
ROW 0C : A#3 00 F ... ... ... : C-4 00 F ... ... ... : B-5 00 . ... : 7-# 00 F ... : ... .. . ... ... : F#3 01 A ... ... : G#3 01 A ... ... : G#4 01 F ... ...
ROW 0D : ... .. E ... ... ... : ... .. E ... ... ... : C#5 00 . ... : ... .. C ... : ... .. . ... ... : ... .. 9 ... ... : ... .. 9 ... ... : ... .. D ... ...
ROW 0E : ... .. D ... ... ... : ... .. D ... ... ... : F#4 00 . ... : ... .. A ... : ... .. . ... ... : ... .. 8 ... ... : ... .. 8 ... ... : ... .. 8 ... ...
ROW 0F : ... .. A ... ... ... : ... .. A ... ... ... : F-4 00 . ... : ... .. 0 ... : ... .. . ... ... : --- .. . P80 ... : ... .. 7 ... ... : ... .. . ... ...
ROW 10 : ... .. . ... ... ... : ... .. . ... ... ... : C-4 00 . ... : ... .. . ... : ... .. . ... ... : ... .. . ... ... : ... .. . ... ... : ... .. . ... ...
ROW 11 : ... .. . ... ... ... : ... .. . ... ... ... : ... .. . ... : 6-# 00 F ... : ... .. . ... ... : F#3 01 A P81 ... : A#3 01 A ... ... : A#4 01 F ... ...
ROW 12 : ... .. . ... ... ... : ... .. . ... ... ... : ... .. . ... : ... .. C ... : ... .. . ... ... : ... .. 9 ... ... : ... .. 9 ... ... : ... .. D ... ...
ROW 13 : ... .. . ... ... ... : ... .. . ... ... ... : ... .. . ... : ... .. A ... : ... .. . ... ... : ... .. 8 ... ... : ... .. 8 ... ... : ... .. 8 ... ...
ROW 14 : ... .. . ... ... ... : ... .. . ... ... ... : ... .. . ... : ... .. 0 ... : ... .. . ... ... : --- .. . P80 ... : ... .. 7 ... ... : ... .. . ... ...
ROW 15 : ... .. . ... ... ... : ... .. . ... ... ... : ... .. . ... : ... .. . ... : ... .. . ... ... : ... .. . ... ... : ... .. . ... ... : ... .. . ... ...
ROW 16 : C-4 00 F ... ... ... : E-3 00 F ... ... ... : D#5 00 . ... : 5-# 00 F ... : ... .. . ... ... : G-3 01 A P81 ... : C-4 01 A ... ... : D-5 01 F ... ...
ROW 17 : ... .. E ... ... ... : ... .. E ... ... ... : F-4 00 . ... : ... .. C ... : ... .. . ... ... : ... .. 9 ... ... : ... .. 9 ... ... : ... .. D ... ...
ROW 18 : ... .. D ... ... ... : ... .. D ... ... ... : A#3 00 . ... : ... .. A ... : ... .. . ... ... : ... .. 8 ... ... : ... .. 8 ... ... : ... .. 8 ... ...
ROW 19 : ... .. A ... ... ... : ... .. A ... ... ... : A-3 00 . ... : ... .. 0 ... : ... .. . ... ... : --- .. . P80 ... : ... .. 7 ... ... : ... .. . ... ...
ROW 1A : ... .. . ... ... ... : ... .. . ... ... ... : E-3 00 . ... : ... .. . ... : ... .. . ... ... : ... .. . ... ... : ... .. . ... ... : ... .. . ... ...
ROW 1B : ... .. . ... ... ... : ... .. . ... ... ... : ... .. . ... : 4-# 00 F ... : ... .. . ... ... : G-3 01 A P81 ... : D-4 01 A ... ... : E-5 01 F ... ...
ROW 1C : ... .. . ... ... ... : ... .. . ... ... ... : ... .. . ... : ... .. C ... : ... .. . ... ... : ... .. 9 ... ... : ... .. 9 ... ... : ... .. D ... ...
ROW 1D : ... .. . ... ... ... : ... .. . ... ... ... : ... .. . ... : ... .. A ... : ... .. . ... ... : ... .. 8 ... ... : ... .. 8 ... ... : ... .. 8 ... ...
ROW 1E : ... .. . ... ... ... : ... .. 0 ... V00 ... : --- .. . ... : ... .. 8 ... : ... .. . ... ... : --- .. . P80 ... : ... .. 7 ... ... : ... .. . ... ...
ROW 1F : ... .. . ... ... ... : ... .. . ... ... ... : ... .. . ... : ... .. 7 ... : ... .. . ... ... : ... .. . ... ... : ... .. . ... ... : ... .. . ... ...
ROW 20 : F#5 00 D ... V01 ... : F#1 00 F P83 V01 ... : F-4 00 . ... : 9-# 00 D ... : ... .. . ... ... : F#3 01 A P81 ... : A#3 01 A ... ... : E-4 01 F ... ...
ROW 21 : ... .. B ... ... ... : ... .. E ... ... ... : G-3 00 . ... : ... .. . ... : ... .. . ... ... : ... .. 9 ... ... : ... .. 9 ... ... : ... .. D ... ...
ROW 22 : ... .. . ... ... ... : ... .. D ... ... ... : C-3 00 . ... : ... .. . ... : ... .. . ... ... : ... .. 8 ... ... : ... .. 8 ... ... : ... .. 8 ... ...
ROW 23 : ... .. A ... ... ... : ... .. A ... ... ... : B-2 00 . ... : ... .. B ... : ... .. . ... ... : ... .. 7 ... ... : ... .. 7 ... ... : ... .. . ... ...
ROW 24 : ... .. 8 ... ... ... : ... .. . ... ... ... : F#2 00 . ... : ... .. . ... : ... .. . ... ... : ... .. . ... ... : ... .. . ... ... : ... .. . ... ...
ROW 25 : E-5 00 D ... ... ... : ... .. . ... ... ... : ... .. . ... : ... .. A ... : ... .. . ... ... : ... .. 6 ... ... : ... .. 6 ... ... : ... .. . ... ...
ROW 26 : ... .. B ... ... ... : ... .. . ... ... ... : ... .. . ... : ... .. . ... : ... .. . ... ... : ... .. . ... ... : ... .. . ... ... : ... .. . ... ...
ROW 27 : ... .. . ... ... ... : ... .. . ... ... ... : ... .. . ... : ... .. . ... : ... .. . ... ... : ... .. 5 ... ... : ... .. 5 ... ... : ... .. . ... ...
ROW 28 : F#5 00 6 ... ... ... : ... .. . ... ... ... : ... .. . ... : ... .. 9 ... : ... .. . ... ... : ... .. . ... ... : ... .. . ... ... : ... .. . ... ...
ROW 29 : ... .. 5 ... ... ... : ... .. . ... ... ... : ... .. . ... : ... .. . ... : ... .. . ... ... : ... .. . ... ... : ... .. . ... ... : ... .. . ... ...
ROW 2A : G#4 00 D ... ... ... : F#2 00 F ... ... ... : F-5 00 . ... : ... .. 7 ... : ... .. . ... ... : ... .. . ... ... : ... .. . ... ... : ... .. . ... ...
ROW 2B : ... .. B ... ... ... : ... .. E ... ... ... : G-4 00 . ... : ... .. . ... : ... .. . ... ... : ... .. . ... ... : ... .. . ... ... : ... .. . ... ...
ROW 2C : ... .. . ... ... ... : ... .. D ... ... ... : C-4 00 . ... : ... .. . ... : ... .. . ... ... : ... .. . ... ... : ... .. . ... ... : ... .. . ... ...
ROW 2D : E-5 00 6 ... ... ... : ... .. 0 ... V00 ... : --- .. . ... : ... .. 6 ... : ... .. . ... ... : ... .. . ... ... : ... .. . ... ... : ... .. . ... ...
ROW 2E : ... .. 5 ... ... ... : ... .. . ... ... ... : ... .. . ... : ... .. . ... : ... .. . ... ... : ... .. . ... ... : ... .. . ... ... : ... .. . ... ...
ROW 2F : A#4 00 D ... ... ... : F#2 00 F P83 V01 ... : F#3 00 . ... : ... .. 5 ... : ... .. . ... ... : ... .. . ... ... : ... .. . ... ... : ... .. . ... ...
ROW 30 : ... .. B ... ... ... : ... .. E ... ... ... : ... .. . ... : ... .. . ... : ... .. . ... ... : ... .. . ... ... : ... .. . ... ... : ... .. . ... ...
ROW 31 : ... .. . ... ... ... : ... .. D ... ... ... : ... .. . ... : ... .. . ... : ... .. . ... ... : ... .. . ... ... : ... .. . ... ... : ... .. . ... ...
ROW 32 : G#4 00 6 ... ... ... : ... .. 0 ... V00 ... : --- .. . ... : ... .. 4 ... : ... .. . ... ... : ... .. . ... ... : ... .. . ... ... : ... .. . ... ...
ROW 33 : ... .. 5 ... ... ... : ... .. . ... ... ... : ... .. . ... : ... .. . ... : ... .. . ... ... : ... .. . ... ... : ... .. . ... ... : ... .. . ... ...
ROW 34 : F#4 00 D ... ... ... : F#1 00 F P83 V01 ... : F#2 00 . ... : 7-# 00 F ... : ... .. . ... ... : ... .. . ... ... : ... .. . ... ... : ... .. . ... ...
ROW 35 : ... .. B ... ... ... : ... .. E ... ... ... : ... .. . ... : ... .. C ... : ... .. . ... ... : ... .. . ... ... : ... .. . ... ... : ... .. . ... ...
ROW 36 : ... .. . ... ... ... : ... .. D ... ... ... : ... .. . ... : ... .. A ... : ... .. . ... ... : ... .. . ... ... : ... .. . ... ... : ... .. . ... ...
ROW 37 : A#4 00 6 ... ... ... : ... .. A ... ... ... : ... .. . ... : ... .. 8 ... : ... .. . ... ... : ... .. . ... ... : ... .. . ... ... : ... .. . ... ...
ROW 38 : ... .. 5 ... ... ... : ... .. . ... ... ... : ... .. . ... : ... .. 7 ... : ... .. . ... ... : ... .. . ... ... : ... .. . ... ... : ... .. . ... ...
ROW 39 : E-4 00 D ... ... ... : ... .. . ... ... ... : ... .. . ... : ... .. 0 ... : ... .. . ... ... : ... .. . ... ... : ... .. . ... ... : ... .. . ... ...
ROW 3A : ... .. B ... ... ... : ... .. . ... ... ... : ... .. . ... : B-# 00 6 ... : ... .. . ... ... : ... .. . ... ... : ... .. . ... ... : ... .. . ... ...
ROW 3B : ... .. . ... ... ... : ... .. . ... ... ... : ... .. . ... : ... .. 2 ... : ... .. . ... ... : ... .. . ... ... : ... .. . ... ... : ... .. . ... ...
ROW 3C : F#4 00 6 ... ... ... : ... .. 0 ... V00 ... : --- .. . ... : ... .. . ... : ... .. . ... ... : ... .. . ... ... : ... .. . ... ... : ... .. . ... ...
ROW 3D : ... .. 5 ... ... ... : ... .. . ... ... ... : ... .. . ... : ... .. 0 ... : ... .. . ... ... : ... .. . ... ... : ... .. . ... ... : ... .. . ... ...
ROW 3E : A#3 00 D ... ... ... : E-2 00 F P83 V01 ... : E-3 00 . ... : ... .. . ... : ... .. . ... ... : E-3 01 A ... ... : G#3 01 A ... ... : D-4 01 F ... ...
ROW 3F : ... .. B ... ... ... : ... .. E ... ... ... : ... .. . ... : ... .. A ... : ... .. . ... ... : ... .. 9 ... ... : ... .. 9 ... ... : ... .. D ... ...
ROW 40 : ... .. . ... ... ... : ... .. D ... ... ... : ... .. . ... : ... .. 4 ... : ... .. . ... ... : ... .. 8 ... ... : ... .. 8 ... ... : ... .. 8 ... ...
ROW 41 : E-4 00 6 ... ... ... : ... .. A ... ... ... : ... .. . ... : ... .. . ... : ... .. . ... ... : ... .. 7 ... ... : ... .. 7 ... ... : ... .. . ... ...
ROW 42 : ... .. 5 ... ... ... : ... .. . ... ... ... : ... .. . ... : ... .. 0 ... : ... .. . ... ... : ... .. . ... ... : ... .. . ... ... : ... .. . ... ...
ROW 43 : C-4 00 D ... ... ... : ... .. . ... ... ... : ... .. . ... : ... .. . ... : ... .. . ... ... : ... .. 6 ... ... : ... .. 6 ... ... : ... .. . ... ...
ROW 44 : ... .. B ... ... ... : ... .. . ... ... ... : ... .. . ... : ... .. 8 ... : ... .. . ... ... : ... .. . ... ... : ... .. . ... ... : ... .. . ... ...
ROW 45 : ... .. . ... ... ... : ... .. . ... ... ... : ... .. . ... : ... .. 3 ... : ... .. . ... ... : ... .. 5 ... ... : ... .. 5 ... ... : ... .. . ... ...
ROW 46 : A#3 00 6 ... ... ... : ... .. 0 ... V00 ... : --- .. . ... : ... .. . ... : ... .. . ... ... : ... .. . ... ... : ... .. . ... ... : ... .. . ... ...
ROW 47 : ... .. 5 ... ... ... : ... .. . ... ... ... : ... .. . ... : ... .. 0 ... : ... .. . ... ... : ... .. . ... ... : ... .. . ... ... : ... .. . ... ...
ROW 48 : F#5 00 D ... ... ... : D-2 00 F P83 V01 ... : C#5 00 . ... : 2-# 00 F ... : ... .. . ... ... : F#3 01 A ... ... : A#3 01 A ... ... : E-4 01 F ... ...
ROW 49 : ... .. B ... ... ... : ... .. E ... ... ... : D#4 00 . ... : ... .. C ... : ... .. . ... ... : ... .. 9 ... ... : ... .. 9 ... ... : ... .. D ... ...
ROW 4A : ... .. . ... ... ... : ... .. D ... ... ... : G#3 00 . ... : ... .. 6 ... : ... .. . ... ... : ... .. 8 ... ... : ... .. 8 ... ... : ... .. 8 ... ...
ROW 4B : C-4 00 6 ... ... ... : ... .. A ... ... ... : G-3 00 . ... : ... .. 3 ... : ... .. . ... ... : ... .. 7 ... ... : ... .. 7 ... ... : ... .. . ... ...
ROW 4C : ... .. 5 ... ... ... : ... .. . ... ... ... : D-3 00 . ... : ... .. 2 ... : ... .. . ... ... : ... .. . ... ... : ... .. . ... ... : ... .. . ... ...
ROW 4D : E-5 00 D ... ... ... : ... .. . ... ... ... : ... .. . ... : ... .. 0 ... : ... .. . ... ... : ... .. 6 ... ... : ... .. 6 ... ... : ... .. . ... ...
ROW 4E : ... .. B ... ... ... : ... .. . ... ... ... : ... .. . ... : B-# 00 8 ... : ... .. . ... ... : ... .. . ... ... : ... .. . ... ... : ... .. . ... ...
ROW 4F : ... .. . ... ... ... : ... .. . ... ... ... : ... .. . ... : ... .. 3 ... : ... .. . ... ... : ... .. 5 ... ... : ... .. 5 ... ... : ... .. . ... ...
ROW 50 : F#5 00 6 ... ... ... : ... .. . ... ... ... : ... .. . ... : ... .. . ... : ... .. . ... ... : ... .. . ... ... : ... .. . ... ... : ... .. . ... ...
ROW 51 : ... .. 5 ... ... ... : ... .. . ... ... ... : ... .. . ... : ... .. 0 ... : ... .. . ... ... : ... .. . ... ... : ... .. . ... ... : ... .. . ... ...
ROW 52 : G#4 00 D ... ... ... : G#1 00 F ... ... ... : G-4 00 . ... : 2-# 00 F ... : ... .. . ... ... : E-3 01 A ... ... : G#3 01 A ... ... : D-4 01 F ... ...
ROW 53 : ... .. B ... ... ... : ... .. E ... ... ... : A-3 00 . ... : ... .. C ... : ... .. . ... ... : ... .. 9 ... ... : ... .. 9 ... ... : ... .. D ... ...
ROW 54 : ... .. . ... ... ... : ... .. D ... ... ... : D-3 00 . ... : ... .. 6 ... : ... .. . ... ... : ... .. 8 ... ... : ... .. 8 ... ... : ... .. 8 ... ...
ROW 55 : E-5 00 6 ... ... ... : ... .. A ... ... ... : C#3 00 . ... : ... .. 3 ... : ... .. . ... ... : ... .. 7 ... ... : ... .. 7 ... ... : ... .. . ... ...
ROW 56 : ... .. 5 ... ... ... : ... .. . ... ... ... : G#2 00 . ... : ... .. 2 ... : ... .. . ... ... : ... .. . ... ... : ... .. . ... ... : ... .. . ... ...
ROW 57 : A#4 00 D ... ... ... : ... .. . ... ... ... : ... .. . ... : ... .. 0 ... : ... .. . ... ... : ... .. 6 ... ... : ... .. 6 ... ... : ... .. . ... ...
ROW 58 : ... .. B ... ... ... : ... .. . ... ... ... : ... .. . ... : B-# 00 8 ... : ... .. . ... ... : ... .. . ... ... : ... .. . ... ... : ... .. . ... ...
ROW 59 : ... .. . ... ... ... : ... .. . ... ... ... : ... .. . ... : ... .. 3 ... : ... .. . ... ... : ... .. 5 ... ... : ... .. 5 ... ... : ... .. . ... ...
ROW 5A : G#4 00 6 ... ... ... : ... .. . ... ... ... : ... .. . ... : ... .. . ... : ... .. . ... ... : ... .. . ... ... : ... .. . ... ... : ... .. . ... ...
ROW 5B : ... .. 5 ... ... ... : ... .. . ... ... ... : ... .. . ... : ... .. 0 ... : ... .. . ... ... : ... .. . ... ... : ... .. . ... ... : ... .. . ... ...
ROW 5C : F#4 00 D ... ... ... : A#1 00 F ... ... ... : A#2 00 . ... : 7-# 00 F ... : ... .. . ... ... : F#3 01 A ... ... : A#3 01 A ... ... : E-4 01 F ... ...
ROW 5D : ... .. B ... ... ... : ... .. E ... ... ... : ... .. . ... : ... .. C ... : ... .. . ... ... : ... .. 9 ... ... : ... .. 9 ... ... : ... .. D ... ...
ROW 5E : ... .. . ... ... ... : ... .. D ... ... ... : ... .. . ... : ... .. A ... : ... .. . ... ... : ... .. 8 ... ... : ... .. 8 ... ... : ... .. 8 ... ...
ROW 5F : A#4 00 6 ... ... ... : ... .. A ... ... ... : ... .. . ... : ... .. 8 ... : ... .. . ... ... : ... .. 7 ... ... : ... .. 7 ... ... : ... .. . ... ...
ROW 60 : ... .. 5 ... ... ... : ... .. . ... ... ... : ... .. . ... : ... .. 7 ... : ... .. . ... ... : ... .. . ... ... : ... .. . ... ... : ... .. . ... ...
ROW 61 : E-4 00 D ... ... ... : ... .. . ... ... ... : ... .. . ... : ... .. 0 ... : ... .. . ... ... : ... .. 6 ... ... : ... .. 6 ... ... : ... .. . ... ...
ROW 62 : ... .. B ... ... ... : ... .. . ... ... ... : ... .. . ... : B-# 00 6 ... : ... .. . ... ... : ... .. . ... ... : ... .. . ... ... : ... .. . ... ...
ROW 63 : ... .. . ... ... ... : ... .. . ... ... ... : ... .. . ... : ... .. 2 ... : ... .. . ... ... : ... .. 5 ... ... : ... .. 5 ... ... : ... .. . ... ...
ROW 64 : F#4 00 6 ... ... ... : ... .. 0 ... V00 ... : --- .. . ... : ... .. . ... : ... .. . ... ... : ... .. . ... ... : ... .. . ... ... : ... .. . ... ...
ROW 65 : ... .. 5 ... ... ... : ... .. . ... ... ... : ... .. . ... : ... .. 0 ... : ... .. . ... ... : ... .. . ... ... : ... .. . ... ... : ... .. . ... ...
ROW 66 : A#3 00 D ... ... ... : C-2 00 F P83 V01 ... : C-3 00 . ... : ... .. . ... : ... .. . ... ... : G#3 01 A ... ... : C-4 01 A ... ... : F#4 01 F ... ...
ROW 67 : ... .. B ... ... ... : ... .. E ... ... ... : ... .. . ... : ... .. A ... : ... .. . ... ... : ... .. 9 ... ... : ... .. 9 ... ... : ... .. D ... ...
ROW 68 : ... .. . ... ... ... : ... .. D ... ... ... : ... .. . ... : ... .. 4 ... : ... .. . ... ... : ... .. 8 ... ... : ... .. 8 ... ... : ... .. 8 ... ...
ROW 69 : E-4 00 6 ... ... ... : ... .. A ... ... ... : ... .. . ... : ... .. . ... : ... .. . ... ... : ... .. 7 ... ... : ... .. 7 ... ... : ... .. . ... ...
ROW 6A : ... .. 5 ... ... ... : ... .. . ... ... ... : ... .. . ... : ... .. 0 ... : ... .. . ... ... : ... .. . ... ... : ... .. . ... ... : ... .. . ... ...
ROW 6B : C-4 00 D ... ... ... : ... .. . ... ... ... : ... .. . ... : ... .. . ... : ... .. . ... ... : ... .. 6 ... ... : ... .. 6 ... ... : ... .. . ... ...
ROW 6C : ... .. B ... ... ... : ... .. . ... ... ... : ... .. . ... : ... .. 8 ... : ... .. . ... ... : ... .. . ... ... : ... .. . ... ... : ... .. . ... ...
ROW 6D : ... .. . ... ... ... : ... .. . ... ... ... : ... .. . ... : ... .. 3 ... : ... .. . ... ... : ... .. 5 ... ... : ... .. 5 ... ... : ... .. . ... ...
ROW 6E : A#3 00 6 ... ... ... : ... .. 0 ... V00 ... : --- .. . ... : ... .. . ... : ... .. . ... ... : ... .. . ... ... : ... .. . ... ... : ... .. . ... ...
ROW 6F : ... .. 5 ... ... ... : ... .. . ... ... ... : ... .. . ... : ... .. 0 ... : ... .. . ... ... : ... .. . ... ... : ... .. . ... ... : ... .. . ... ...
ROW 70 : F#5 00 D ... ... ... : E-1 00 F P83 V01 ... : D#4 00 . ... : 2-# 00 F ... : ... .. . ... ... : A#3 01 A ... ... : D-4 01 A ... ... : G#4 01 F ... ...
ROW 71 : ... .. B ... ... ... : ... .. E ... ... ... : F-3 00 . ... : ... .. C ... : ... .. . ... ... : ... .. 9 ... ... : ... .. 9 ... ... : ... .. D ... ...
ROW 72 : ... .. . ... ... ... : ... .. D ... ... ... : A#2 00 . ... : ... .. 6 ... : ... .. . ... ... : ... .. 8 ... ... : ... .. 8 ... ... : ... .. 8 ... ...
ROW 73 : C-4 00 6 ... ... ... : ... .. 0 ... V00 ... : --- .. . ... : ... .. 3 ... : ... .. . ... ... : ... .. 7 ... ... : ... .. 7 ... ... : ... .. . ... ...
ROW 74 : ... .. 5 ... ... ... : ... .. . ... ... ... : ... .. . ... : ... .. 2 ... : ... .. . ... ... : ... .. . ... ... : ... .. . ... ... : ... .. . ... ...
ROW 75 : E-5 00 D ... ... ... : E-1 00 F P83 V01 ... : E-2 00 . ... : ... .. 0 ... : ... .. . ... ... : ... .. 6 ... ... : ... .. 6 ... ... : ... .. . ... ...
ROW 76 : ... .. B ... ... ... : ... .. E ... ... ... : ... .. . ... : B-# 00 8 ... : ... .. . ... ... : ... .. . ... ... : ... .. . ... ... : ... .. . ... ...
ROW 77 : ... .. . ... ... ... : ... .. D ... ... ... : ... .. . ... : ... .. 3 ... : ... .. . ... ... : ... .. 5 ... ... : ... .. 5 ... ... : ... .. . ... ...
ROW 78 : F#5 00 6 ... ... ... : ... .. 0 ... V00 ... : --- .. . ... : ... .. . ... : ... .. . ... ... : ... .. . ... ... : ... .. . ... ... : ... .. . ... ...
ROW 79 : ... .. 5 ... ... ... : ... .. . ... ... ... : ... .. . ... : ... .. 0 ... : ... .. . ... ... : ... .. . ... ... : ... .. . ... ... : ... .. . ... ...
ROW 7A : G#4 00 D ... ... ... : E-1 00 F P83 V01 ... : E-2 00 . ... : 2-# 00 F ... : ... .. . ... ... : G#3 01 A ... ... : C-4 01 A ... ... : F#4 01 F ... ...
ROW 7B : ... .. B ... ... ... : ... .. E ... ... ... : ... .. . ... : ... .. C ... : ... .. . ... ... : ... .. 9 ... ... : ... .. 9 ... ... : ... .. D ... ...
ROW 7C : ... .. . ... ... ... : ... .. D ... ... ... : ... .. . ... : ... .. 6 ... : ... .. . ... ... : ... .. 8 ... ... : ... .. 8 ... ... : ... .. 8 ... ...
ROW 7D : E-5 00 6 ... ... ... : ... .. 0 ... V00 ... : --- .. . ... : ... .. 3 ... : ... .. . ... ... : ... .. 7 ... ... : ... .. 7 ... ... : ... .. . ... ...
ROW 7E : ... .. 5 ... ... ... : ... .. . ... ... ... : ... .. . ... : ... .. 2 ... : ... .. . ... ... : ... .. . ... ... : ... .. . ... ... : ... .. . ... ...
ROW 7F : A#4 00 D ... ... ... : E-1 00 F P83 V01 ... : E-2 00 . ... : ... .. 0 ... : ... .. . ... ... : ... .. 6 ... ... : ... .. 6 ... ... : ... .. . ... ...
ROW 80 : ... .. B ... ... ... : ... .. E ... ... ... : ... .. . ... : B-# 00 8 ... : ... .. . ... ... : ... .. . ... ... : ... .. . ... ... : ... .. . ... ...
ROW 81 : ... .. . ... ... ... : ... .. D ... ... ... : ... .. . ... : ... .. 3 ... : ... .. . ... ... : ... .. 5 ... ... : ... .. 5 ... ... : ... .. . ... ...
ROW 82 : G#4 00 6 ... ... ... : ... .. 0 ... V00 ... : --- .. . ... : ... .. . ... : ... .. . ... ... : ... .. . ... ... : ... .. . ... ... : ... .. . ... ...
ROW 83 : ... .. 5 ... ... ... : ... .. . ... ... ... : ... .. . ... : ... .. 0 ... : ... .. . ... ... : ... .. . ... ... : ... .. . ... ... : ... .. . ... ...
ROW 84 : F#4 00 D ... ... ... : F#1 00 F P83 V01 ... : F#2 00 . ... : 7-# 00 F ... : ... .. . ... ... : A#3 01 A ... ... : D-4 01 A ... ... : G#4 01 F ... ...
ROW 85 : ... .. B ... ... ... : ... .. E ... ... ... : ... .. . ... : ... .. C ... : ... .. . ... ... : ... .. 9 ... ... : ... .. 9 ... ... : ... .. D ... ...
ROW 86 : ... .. . ... ... ... : ... .. D ... ... ... : ... .. . ... : ... .. A ... : ... .. . ... ... : ... .. 8 ... ... : ... .. 8 ... ... : ... .. 8 ... ...
ROW 87 : A#4 00 6 ... ... ... : ... .. A ... ... ... : ... .. . ... : ... .. 8 ... : ... .. . ... ... : ... .. 7 ... ... : ... .. 7 ... ... : ... .. . ... ...
ROW 88 : ... .. 5 ... ... ... : ... .. . ... ... ... : ... .. . ... : ... .. 7 ... : ... .. . ... ... : ... .. . ... ... : ... .. . ... ... : ... .. . ... ...
ROW 89 : E-4 00 D ... ... ... : ... .. . ... ... ... : ... .. . ... : ... .. 0 ... : ... .. . ... ... : ... .. 6 ... ... : ... .. 6 ... ... : ... .. . ... ...
ROW 8A : ... .. B ... ... ... : ... .. . ... ... ... : ... .. . ... : B-# 00 6 ... : ... .. . ... ... : ... .. . ... ... : ... .. . ... ... : ... .. . ... ...
ROW 8B : ... .. . ... ... ... : ... .. . ... ... ... : ... .. . ... : ... .. 2 ... : ... .. . ... ... : ... .. 5 ... ... : ... .. 5 ... ... : ... .. . ... ...
ROW 8C : F#4 00 6 ... ... ... : ... .. 0 ... V00 ... : --- .. . ... : ... .. . ... : ... .. . ... ... : ... .. . ... ... : ... .. . ... ... : ... .. . ... ...
ROW 8D : ... .. 5 ... ... ... : ... .. . ... ... ... : ... .. . ... : ... .. 0 ... : ... .. . ... ... : ... .. . ... ... : ... .. . ... ... : ... .. . ... ...
ROW 8E : A#3 00 D ... ... ... : F#2 00 F P83 V01 ... : F#3 00 . ... : ... .. . ... : ... .. . ... ... : C-4 01 A ... ... : E-4 01 A ... ... : A#4 01 F ... ...
ROW 8F : ... .. B ... ... ... : ... .. E ... ... ... : ... .. . ... : ... .. A ... : ... .. . ... ... : ... .. 9 ... ... : ... .. 9 ... ... : ... .. D ... ...
ROW 90 : ... .. . ... ... ... : ... .. D ... ... ... : ... .. . ... : ... .. 4 ... : ... .. . ... ... : ... .. 8 ... ... : ... .. 8 ... ... : ... .. 8 ... ...
ROW 91 : E-4 00 6 ... ... ... : ... .. A ... ... ... : ... .. . ... : ... .. . ... : ... .. . ... ... : ... .. 7 ... ... : ... .. 7 ... ... : ... .. . ... ...
ROW 92 : ... .. 5 ... ... ... : ... .. . ... ... ... : ... .. . ... : ... .. 0 ... : ... .. . ... ... : ... .. . ... ... : ... .. . ... ... : ... .. . ... ...
ROW 93 : C-4 00 D ... ... ... : ... .. . ... ... ... : ... .. . ... : ... .. . ... : ... .. . ... ... : ... .. 6 ... ... : ... .. 6 ... ... : ... .. . ... ...
ROW 94 : ... .. B ... ... ... : ... .. . ... ... ... : ... .. . ... : ... .. 8 ... : ... .. . ... ... : ... .. . ... ... : ... .. . ... ... : ... .. . ... ...
ROW 95 : ... .. . ... ... ... : ... .. . ... ... ... : ... .. . ... : ... .. 3 ... : ... .. . ... ... : ... .. 5 ... ... : ... .. 5 ... ... : ... .. . ... ...
ROW 96 : A#3 00 6 ... ... ... : ... .. . ... ... ... : ... .. . ... : ... .. . ... : ... .. . ... ... : ... .. . ... ... : ... .. . ... ... : ... .. . ... ...
ROW 97 : ... .. 5 ... ... ... : ... .. . ... ... ... : ... .. . ... : ... .. 0 ... : ... .. . ... ... : ... .. . ... ... : ... .. . ... ... : ... .. . ... ...
ROW 98 : F#5 00 D ... ... ... : E-2 00 F ... ... ... : D#5 00 . ... : 2-# 00 F ... : ... .. . ... ... : D-4 01 A ... ... : F#4 01 A ... ... : C-5 01 F ... ...
ROW 99 : ... .. B ... ... ... : ... .. E ... ... ... : F-4 00 . ... : ... .. C ... : ... .. . ... ... : ... .. 9 ... ... : ... .. 9 ... ... : ... .. D ... ...
ROW 9A : ... .. . ... ... ... : ... .. D ... ... ... : A#3 00 . ... : ... .. 6 ... : ... .. . ... ... : ... .. 8 ... ... : ... .. 8 ... ... : ... .. 8 ... ...
ROW 9B : C-4 00 6 ... ... ... : ... .. A ... ... ... : A-3 00 . ... : ... .. 3 ... : ... .. . ... ... : ... .. 7 ... ... : ... .. 7 ... ... : ... .. . ... ...
ROW 9C : ... .. 5 ... ... ... : ... .. . ... ... ... : E-3 00 . ... : ... .. 2 ... : ... .. . ... ... : ... .. . ... ... : ... .. . ... ... : ... .. . ... ...
ROW 9D : E-5 00 D ... ... ... : ... .. . ... ... ... : ... .. . ... : ... .. 0 ... : ... .. . ... ... : C-4 01 A ... ... : ... .. 6 ... ... : ... .. . ... ...
ROW 9E : ... .. B ... ... ... : ... .. . ... ... ... : ... .. . ... : B-# 00 8 ... : ... .. . ... ... : ... .. 9 ... ... : ... .. . ... ... : ... .. . ... ...
ROW 9F : ... .. . ... ... ... : ... .. . ... ... ... : ... .. . ... : ... .. 3 ... : ... .. . ... ... : ... .. 8 ... ... : ... .. 5 ... ... : ... .. . ... ...
ROW A0 : F#5 00 6 ... ... ... : ... .. . ... ... ... : ... .. . ... : ... .. . ... : ... .. . ... ... : ... .. 7 ... ... : ... .. . ... ... : ... .. . ... ...
ROW A1 : ... .. 5 ... ... ... : ... .. . ... ... ... : ... .. . ... : ... .. 0 ... : ... .. . ... ... : ... .. . ... ... : ... .. . ... ... : ... .. . ... ...
ROW A2 : G#4 00 D ... ... ... : C-2 00 F ... ... ... : B-4 00 . ... : C-# 00 8 ... : ... .. . ... ... : A#3 01 A ... ... : ... .. . ... ... : C#5 01 8 P83 ...
ROW A3 : ... .. B ... ... ... : ... .. E ... ... ... : C#4 00 . ... : ... .. 7 ... : ... .. . ... ... : ... .. 9 ... ... : ... .. . ... ... : D-5 01 8 ... ...
ROW A4 : ... .. . ... ... ... : ... .. D ... ... ... : F#3 00 . ... : ... .. . ... : ... .. . ... ... : ... .. 8 ... ... : ... .. . ... ... : ... .. . P81 ...
ROW A5 : E-5 00 6 ... ... ... : ... .. A ... ... ... : F-3 00 . ... : ... .. 6 ... : ... .. . ... ... : ... .. 7 ... ... : ... .. . ... ... : C#5 01 8 P7D ...
ROW A6 : ... .. 5 ... ... ... : ... .. . ... ... ... : C-3 00 . ... : ... .. 5 ... : ... .. . ... ... : ... .. . ... ... : ... .. . ... ... : B-4 01 8 P83 ...
ROW A7 : A#4 00 D ... ... ... : ... .. . ... ... ... : ... .. . ... : ... .. 4 ... : ... .. . ... ... : C-4 01 A ... ... : G-4 01 5 P81 ... : A#4 01 8 P81 ...
ROW A8 : ... .. B ... ... ... : ... .. . ... ... ... : ... .. . ... : ... .. . ... : ... .. . ... ... : ... .. 9 ... ... : G#4 01 5 P7F ... : ... .. . P7F ...
ROW A9 : ... .. . ... ... ... : ... .. . ... ... ... : ... .. . ... : ... .. . ... : ... .. . ... ... : ... .. 8 ... ... : ... .. . P7D ... : B-4 01 8 P7D ...
ROW AA : G#4 00 6 ... ... ... : ... .. 0 ... V00 ... : --- .. . ... : ... .. 3 ... : ... .. . ... ... : ... .. 7 ... ... : F#4 01 5 P83 ... : C-5 01 8 P80 ...
ROW AB : ... .. 5 ... ... ... : ... .. . ... ... ... : ... .. . ... : ... .. . ... : ... .. . ... ... : ... .. . ... ... : F-4 01 5 P84 ... : C#5 01 8 P82 ...
ROW AC : F#4 00 D ... ... ... : A#1 00 F P83 V01 ... : A#2 00 . ... : 7-# 00 F ... : ... .. . ... ... : D-4 01 A ... ... : E-4 01 5 ... ... : G-4 01 F P80 ...
ROW AD : ... .. B ... ... ... : ... .. E ... ... ... : ... .. . ... : ... .. C ... : ... .. . ... ... : ... .. 9 ... ... : ... .. . P82 ... : ... .. D ... ...
ROW AE : ... .. . ... ... ... : ... .. D ... ... ... : ... .. . ... : ... .. A ... : ... .. . ... ... : ... .. 8 ... ... : F-4 01 5 P7E ... : ... .. 8 ... ...
ROW AF : A#4 00 6 ... ... ... : ... .. A ... ... ... : ... .. . ... : ... .. 8 ... : ... .. . ... ... : ... .. 7 ... ... : F#4 01 5 P7F ... : ... .. . ... ...
ROW B0 : ... .. 5 ... ... ... : ... .. . ... ... ... : ... .. . ... : ... .. 7 ... : ... .. . ... ... : ... .. . ... ... : G-4 01 5 P80 ... : ... .. . ... ...
ROW B1 : E-4 00 D ... ... ... : ... .. . ... ... ... : ... .. . ... : ... .. 0 ... : ... .. . ... ... : E-4 01 A ... ... : G#4 01 5 P7F ... : G#4 01 F ... ...
ROW B2 : ... .. B ... ... ... : ... .. . ... ... ... : ... .. . ... : B-# 00 6 ... : ... .. . ... ... : ... .. 9 ... ... : ... .. . P7D ... : ... .. D ... ...
ROW B3 : ... .. . ... ... ... : ... .. . ... ... ... : ... .. . ... : ... .. 2 ... : ... .. . ... ... : ... .. 8 ... ... : G-4 01 5 ... ... : ... .. 8 ... ...
ROW B4 : F#4 00 6 ... ... ... : ... .. . ... ... ... : ... .. . ... : ... .. . ... : ... .. . ... ... : ... .. 7 ... ... : F#4 01 5 P7C ... : ... .. . ... ...
ROW B5 : ... .. 5 ... ... ... : ... .. . ... ... ... : ... .. . ... : ... .. 0 ... : ... .. . ... ... : ... .. . ... ... : E-4 01 5 P85 ... : ... .. . ... ...
ROW B6 : A#3 00 D ... ... ... : F#1 00 F ... ... ... : F#2 00 . ... : ... .. . ... : ... .. . ... ... : F#4 01 A ... ... : --- .. . ... ... : A#4 01 F ... ...
ROW B7 : ... .. B ... ... ... : ... .. E ... ... ... : ... .. . ... : ... .. A ... : ... .. . ... ... : ... .. 9 ... ... : ... .. . ... ... : ... .. D ... ...
ROW B8 : ... .. . ... ... ... : ... .. D ... ... ... : ... .. . ... : ... .. 4 ... : ... .. . ... ... : ... .. 8 ... ... : ... .. . ... ... : ... .. 8 ... ...
ROW B9 : E-4 00 6 ... ... ... : ... .. 0 ... V00 ... : --- .. . ... : ... .. . ... : ... .. . ... ... : ... .. 7 ... ... : ... .. . ... ... : ... .. . ... ...
ROW BA : ... .. 5 ... ... ... : ... .. . ... ... ... : ... .. . ... : ... .. 0 ... : ... .. . ... ... : ... .. . ... ... : ... .. . ... ... : ... .. . ... ...
ROW BB : C-4 00 D ... ... ... : F#1 00 F P83 V01 ... : F#2 00 . ... : ... .. . ... : ... .. . ... ... : G#4 01 A ... ... : ... .. . ... ... : C-5 01 F ... ...
ROW BC : ... .. B ... ... ... : ... .. E ... ... ... : ... .. . ... : ... .. 8 ... : ... .. . ... ... : ... .. 9 ... ... : ... .. . ... ... : ... .. D ... ...
ROW BD : ... .. . ... ... ... : ... .. D ... ... ... : ... .. . ... : ... .. 3 ... : ... .. . ... ... : ... .. 8 ... ... : ... .. . ... ... : ... .. 8 ... ...
ROW BE : ... .. A ... ... ... : ... .. 0 ... V00 ... : --- .. . ... : ... .. . ... : ... .. . ... ... : ... .. 7 ... ... : ... .. . ... ... : ... .. . ... ...
ROW BF : ... .. 8 ... ... ... : ... .. . ... ... ... : ... .. . ... : ... .. 0 ... : ... .. . ... ... : ... .. . ... ... : ... .. . ... ... : ... .. . ... ...
ROW C0 : C#4 00 F ... ... ... : G-2 00 F P83 V01 ... : F#4 00 . ... : 9-# 00 D ... : ... .. . ... ... : B-3 01 A ... ... : F-4 01 A P81 ... : C#5 01 F ... ...
ROW C1 : ... .. E ... ... ... : ... .. E ... ... ... : G#3 00 . ... : ... .. . ... : ... .. . ... ... : ... .. 9 ... ... : ... .. 9 ... ... : ... .. D ... ...
ROW C2 : ... .. D ... ... ... : ... .. D ... ... ... : C#3 00 . ... : ... .. . ... : ... .. . ... ... : ... .. 8 ... ... : ... .. 8 ... ... : ... .. 8 ... ...
ROW C3 : ... .. A ... ... ... : ... .. A ... ... ... : C-3 00 . ... : ... .. B ... : ... .. . ... ... : ... .. 7 ... ... : ... .. 7 ... ... : ... .. . ... ...
ROW C4 : ... .. . ... ... ... : ... .. . ... ... ... : G-2 00 . ... : ... .. . ... : ... .. . ... ... : ... .. . ... ... : ... .. . ... ... : ... .. . ... ...
ROW C5 : ... .. . ... ... ... : ... .. . ... ... ... : ... .. . ... : ... .. A ... : ... .. . ... ... : ... .. 6 ... ... : ... .. 6 ... ... : ... .. . ... ...
ROW C6 : ... .. . ... ... ... : ... .. . ... ... ... : ... .. . ... : ... .. . ... : ... .. . ... ... : ... .. . ... ... : ... .. . ... ... : ... .. . ... ...
ROW C7 : ... .. . ... ... ... : ... .. . ... ... ... : ... .. . ... : ... .. . ... : ... .. . ... ... : ... .. 5 ... ... : ... .. 5 ... ... : ... .. . ... ...
ROW C8 : ... .. 0 ... V00 ... : ... .. . ... ... ... : ... .. . ... : ... .. 9 ... : ... .. . ... ... : ... .. . ... ... : ... .. . ... ... : ... .. . ... ...
ROW C9 : ... .. . ... ... ... : ... .. . ... ... ... : ... .. . ... : ... .. . ... : ... .. . ... ... : ... .. . ... ... : ... .. . ... ... : ... .. . ... ...
ROW CA : F-5 00 F P80 V01 ... : C#2 00 F ... ... ... : C#2 00 . ... : ... .. 7 ... : ... .. . ... ... : D-3 01 A ... ... : ... .. A ... ... : G-2 01 F ... ...
ROW CB : ... .. E ... ... ... : ... .. E ... ... ... : ... .. . ... : ... .. . ... : ... .. . ... ... : ... .. 9 ... ... : ... .. 9 ... ... : ... .. D ... ...
ROW CC : ... .. D ... ... ... : ... .. D ... ... ... : ... .. . ... : ... .. . ... : ... .. . ... ... : ... .. 8 ... ... : ... .. 8 ... ... : ... .. 8 ... ...
ROW CD : ... .. 0 ... V00 ... : ... .. A ... ... ... : ... .. . ... : ... .. 6 ... : ... .. . ... ... : --- .. . P83 ... : ... .. 7 ... ... : ... .. . ... ...
ROW CE : ... .. . ... ... ... : ... .. . ... ... ... : ... .. . ... : ... .. . ... : ... .. . ... ... : ... .. . ... ... : ... .. . ... ... : ... .. . ... ...
ROW CF : F-5 00 F P80 V01 ... : ... .. . ... ... ... : ... .. . ... : ... .. 5 ... : ... .. . ... ... : D-3 01 A P81 ... : ... .. 6 ... ... : ... .. . ... ...
ROW D0 : ... .. E ... ... ... : ... .. . ... ... ... : ... .. . ... : ... .. . ... : ... .. . ... ... : ... .. 9 ... ... : ... .. . ... ... : ... .. . ... ...
ROW D1 : ... .. D ... ... ... : ... .. . ... ... ... : ... .. . ... : ... .. . ... : ... .. . ... ... : ... .. 8 ... ... : ... .. 5 ... ... : ... .. . ... ...
ROW D2 : ... .. 0 ... V00 ... : ... .. 0 ... V00 ... : --- .. . ... : ... .. 4 ... : ... .. . ... ... : --- .. . P83 ... : --- .. . ... ... : --- .. . P7D ...
ROW D3 : ... .. . ... ... ... : ... .. . ... ... ... : ... .. . ... : ... .. . ... : ... .. . ... ... : ... .. . ... ... : ... .. . ... ... : ... .. . ... ...
ROW D4 : B-4 00 F P80 V01 ... : G-2 00 F P83 V01 ... : F#4 00 . ... : 7-# 00 F ... : ... .. . ... ... : C#3 01 A P81 ... : F-4 01 A ... ... : G-1 01 F P80 ...
ROW D5 : ... .. E ... ... ... : ... .. E ... ... ... : G#3 00 . ... : ... .. C ... : ... .. . ... ... : ... .. 9 ... ... : ... .. 9 ... ... : ... .. D ... ...
ROW D6 : ... .. D ... ... ... : ... .. D ... ... ... : C#3 00 . ... : ... .. A ... : ... .. . ... ... : ... .. 8 ... ... : ... .. 8 ... ... : ... .. 8 ... ...
ROW D7 : ... .. A ... ... ... : ... .. 0 ... V00 ... : --- .. . ... : ... .. 8 ... : ... .. . ... ... : --- .. . P84 ... : ... .. 7 ... ... : ... .. . ... ...
ROW D8 : ... .. . ... ... ... : ... .. . ... ... ... : ... .. . ... : ... .. 7 ... : ... .. . ... ... : ... .. . ... ... : ... .. . ... ... : ... .. . ... ...
ROW D9 : ... .. . ... ... ... : G-2 00 F P83 V01 ... : G-2 00 . ... : ... .. 0 ... : ... .. . ... ... : C#3 01 A P81 ... : ... .. 6 ... ... : ... .. . ... ...
ROW DA : ... .. . ... ... ... : ... .. E ... ... ... : ... .. . ... : B-# 00 6 ... : ... .. . ... ... : ... .. 9 ... ... : ... .. . ... ... : ... .. . ... ...
ROW DB : ... .. . ... ... ... : ... .. D ... ... ... : ... .. . ... : ... .. 2 ... : ... .. . ... ... : ... .. 8 ... ... : ... .. 5 ... ... : ... .. . ... ...
ROW DC : ... .. 0 ... V00 ... : ... .. 0 ... V00 ... : --- .. . ... : ... .. . ... : ... .. . ... ... : --- .. . P84 ... : --- .. . ... ... : --- .. . P81 ...
ROW DD : ... .. . ... ... ... : ... .. . ... ... ... : ... .. . ... : ... .. 0 ... : ... .. . ... ... : ... .. . ... ... : ... .. . ... ... : ... .. . ... ...
ROW DE : C#4 00 F P80 V01 ... : G#2 00 F P83 V01 ... : G-4 00 . ... : 9-# 00 D ... : ... .. . ... ... : F-3 01 A P81 ... : C#4 01 A ... ... : B-4 01 F P80 ...
ROW DF : ... .. E ... ... ... : ... .. E ... ... ... : A-3 00 . ... : ... .. . ... : ... .. . ... ... : ... .. 9 ... ... : ... .. 9 ... ... : ... .. D ... ...
ROW E0 : ... .. D ... ... ... : ... .. D ... ... ... : D-3 00 . ... : ... .. . ... : ... .. . ... ... : ... .. 8 ... ... : ... .. 8 ... ... : ... .. 8 ... ...
ROW E1 : ... .. A ... ... ... : ... .. A ... ... ... : C#3 00 . ... : ... .. B ... : ... .. . ... ... : ... .. 7 ... ... : ... .. 7 ... ... : ... .. . ... ...
ROW E2 : ... .. . ... ... ... : ... .. . ... ... ... : G#2 00 . ... : ... .. . ... : ... .. . ... ... : ... .. . ... ... : ... .. . ... ... : ... .. . ... ...
ROW E3 : ... .. . ... ... ... : ... .. . ... ... ... : ... .. . ... : ... .. A ... : ... .. . ... ... : ... .. 6 ... ... : ... .. 6 ... ... : ... .. . ... ...
ROW E4 : ... .. . ... ... ... : ... .. . ... ... ... : ... .. . ... : ... .. . ... : ... .. . ... ... : ... .. . ... ... : ... .. . ... ... : ... .. . ... ...
ROW E5 : ... .. . ... ... ... : ... .. . ... ... ... : ... .. . ... : ... .. . ... : ... .. . ... ... : ... .. 5 ... ... : ... .. 5 ... ... : ... .. . ... ...
ROW E6 : ... .. 0 ... V00 ... : ... .. . ... ... ... : ... .. . ... : ... .. 9 ... : ... .. . ... ... : ... .. . ... ... : ... .. . ... ... : ... .. . ... ...
ROW E7 : ... .. . ... ... ... : ... .. . ... ... ... : ... .. . ... : ... .. . ... : ... .. . ... ... : ... .. . ... ... : ... .. . ... ... : ... .. . ... ...
ROW E8 : B-4 00 F P80 V01 ... : C#2 00 F ... ... ... : C#2 00 . ... : ... .. 7 ... : ... .. . ... ... : C#3 01 A ... ... : F-4 01 A ... ... : F-3 01 F ... ...
ROW E9 : ... .. E ... ... ... : ... .. E ... ... ... : ... .. . ... : ... .. . ... : ... .. . ... ... : ... .. 9 ... ... : ... .. 9 ... ... : ... .. D ... ...
ROW EA : ... .. D ... ... ... : ... .. D ... ... ... : ... .. . ... : ... .. . ... : ... .. . ... ... : ... .. 8 ... ... : ... .. 8 ... ... : ... .. 8 ... ...
ROW EB : ... .. 0 ... V00 ... : ... .. A ... ... ... : ... .. . ... : ... .. 6 ... : ... .. . ... ... : --- .. . P84 ... : ... .. 7 ... ... : ... .. . ... ...
ROW EC : ... .. . ... ... ... : ... .. . ... ... ... : ... .. . ... : ... .. . ... : ... .. . ... ... : ... .. . ... ... : ... .. . ... ... : ... .. . ... ...
ROW ED : B-4 00 F P80 V01 ... : ... .. . ... ... ... : ... .. . ... : ... .. 5 ... : ... .. . ... ... : C#3 01 A P81 ... : ... .. 6 ... ... : ... .. . ... ...
ROW EE : ... .. E ... ... ... : ... .. . ... ... ... : ... .. . ... : ... .. . ... : ... .. . ... ... : ... .. 9 ... ... : ... .. . ... ... : ... .. . ... ...
ROW EF : ... .. D ... ... ... : ... .. . ... ... ... : ... .. . ... : ... .. . ... : ... .. . ... ... : ... .. 8 ... ... : ... .. 5 ... ... : ... .. . ... ...
ROW F0 : ... .. 0 ... V00 ... : ... .. 0 ... V00 ... : --- .. . ... : ... .. 4 ... : ... .. . ... ... : --- .. . P84 ... : --- .. . ... ... : --- .. . P7F ...
ROW F1 : ... .. . ... ... ... : ... .. . ... ... ... : ... .. . ... : ... .. . ... : ... .. . ... ... : ... .. . ... ... : ... .. . ... ... : ... .. . ... ...
ROW F2 : F-4 00 F P80 V01 ... : B-1 00 F P83 V01 ... : A#3 00 . ... : 7-# 00 F ... : ... .. . ... ... : G-2 01 A P81 ... : F-4 01 A ... ... : G-1 01 F P80 ...
ROW F3 : ... .. E ... ... ... : ... .. E ... ... ... : C-3 00 . ... : ... .. C ... : ... .. . ... ... : ... .. 9 ... ... : ... .. 9 ... ... : ... .. D ... ...
ROW F4 : ... .. D ... ... ... : ... .. D ... ... ... : F-2 00 . ... : ... .. A ... : ... .. . ... ... : ... .. 8 ... ... : ... .. 8 ... ... : ... .. 8 ... ...
ROW F5 : ... .. 0 ... V00 ... : ... .. A ... ... ... : E-2 00 . ... : ... .. 8 ... : ... .. . ... ... : --- .. . P7F ... : ... .. 7 ... ... : ... .. . ... ...
ROW F6 : ... .. . ... ... ... : ... .. . ... ... ... : B-1 00 . ... : ... .. 7 ... : ... .. . ... ... : ... .. . ... ... : ... .. . ... ... : ... .. . ... ...
ROW F7 : F-4 00 F P80 V01 ... : ... .. . ... ... ... : ... .. . ... : ... .. 0 ... : ... .. . ... ... : G-2 01 A P81 ... : ... .. 6 ... ... : ... .. . ... ...
ROW F8 : ... .. E ... ... ... : ... .. . ... ... ... : ... .. . ... : B-# 00 6 ... : ... .. . ... ... : ... .. 9 ... ... : ... .. . ... ... : ... .. . ... ...
ROW F9 : ... .. D ... ... ... : ... .. . ... ... ... : ... .. . ... : ... .. 2 ... : ... .. . ... ... : ... .. 8 ... ... : ... .. 5 ... ... : ... .. . ... ...
ROW FA : ... .. 0 ... V00 ... : ... .. . ... ... ... : ... .. . ... : ... .. . ... : ... .. . ... ... : --- .. . P7F ... : --- .. . ... ... : --- .. . P81 ...
ROW FB : ... .. . ... ... ... : ... .. . ... ... ... : ... .. . ... : ... .. 0 ... : ... .. . ... ... : ... .. . ... ... : ... .. . ... ... : ... .. . ... ...
ROW FC : C#4 00 F P80 V01 ... : C#2 00 F ... ... ... : C-4 00 . ... : 9-# 00 D ... : ... .. . ... ... : F-4 01 A P81 ... : B-4 01 A ... ... : C#5 01 F P80 ...
ROW FD : ... .. E ... ... ... : ... .. E ... ... ... : D-3 00 . ... : ... .. . ... : ... .. . ... ... : ... .. 9 ... ... : ... .. 9 ... ... : ... .. D ... ...
ROW FE : ... .. D ... ... ... : ... .. D ... ... ... : G-2 00 . ... : ... .. . ... : ... .. . ... ... : ... .. 8 ... ... : ... .. 8 ... ... : ... .. 8 ... ...
ROW FF : ... .. A ... ... ... : ... .. A ... ... ... : F#2 00 . ... : ... .. B ... : ... .. . ... ... : ... .. 7 ... ... : ... .. 7 ... ... : ... .. . ... ...

PATTERN 13
ROW 00 : ... .. . ... ... ... : ... .. . ... ... ... : C#2 00 . ... : ... .. . ... : ... .. . ... ... : ... .. . ... ... : ... .. . ... ... : ... .. . ... ...
ROW 01 : ... .. . ... ... ... : ... .. . ... ... ... : ... .. . ... : ... .. A ... : ... .. . ... ... : ... .. 6 ... ... : ... .. 6 ... ... : ... .. . ... ...
ROW 02 : ... .. . ... ... ... : ... .. . ... ... ... : ... .. . ... : ... .. . ... : ... .. . ... ... : ... .. . ... ... : ... .. . ... ... : ... .. . ... ...
ROW 03 : ... .. . ... ... ... : ... .. . ... ... ... : ... .. . ... : ... .. . ... : ... .. . ... ... : ... .. 5 ... ... : ... .. 5 ... ... : ... .. . ... ...
ROW 04 : ... .. . ... ... ... : ... .. . ... ... ... : ... .. . ... : ... .. 9 ... : ... .. . ... ... : ... .. . ... ... : ... .. . ... ... : ... .. . ... ...
ROW 05 : ... .. . ... ... ... : ... .. . ... ... ... : ... .. . ... : ... .. . ... : ... .. . ... ... : ... .. . ... ... : ... .. . ... ... : ... .. . ... ...
ROW 06 : F-5 00 F ... ... ... : E-1 00 F ... ... ... : E-1 00 . ... : ... .. 7 ... : ... .. . ... ... : D-3 01 A ... ... : F-4 01 A ... ... : G-3 01 F ... ...
ROW 07 : ... .. E ... ... ... : ... .. E ... ... ... : ... .. . ... : ... .. . ... : ... .. . ... ... : ... .. 9 ... ... : ... .. 9 ... ... : ... .. D ... ...
ROW 08 : ... .. D ... ... ... : ... .. D ... ... ... : ... .. . ... : ... .. . ... : ... .. . ... ... : ... .. 8 ... ... : ... .. 8 ... ... : ... .. 8 ... ...
ROW 09 : ... .. 0 ... V00 ... : ... .. A ... ... ... : ... .. . ... : ... .. 6 ... : ... .. . ... ... : --- .. . P83 ... : ... .. 7 ... ... : ... .. . ... ...
ROW 0A : ... .. . ... ... ... : ... .. . ... ... ... : ... .. . ... : ... .. . ... : ... .. . ... ... : ... .. . ... ... : ... .. . ... ... : ... .. . ... ...
ROW 0B : F-5 00 F P80 V01 ... : ... .. . ... ... ... : ... .. . ... : ... .. 5 ... : ... .. . ... ... : D-3 01 A P81 ... : ... .. 6 ... ... : ... .. . ... ...
ROW 0C : ... .. E ... ... ... : ... .. . ... ... ... : ... .. . ... : ... .. . ... : ... .. . ... ... : ... .. 9 ... ... : ... .. . ... ... : ... .. . ... ...
ROW 0D : ... .. D ... ... ... : ... .. . ... ... ... : ... .. . ... : ... .. . ... : ... .. . ... ... : ... .. 8 ... ... : ... .. 5 ... ... : ... .. . ... ...
ROW 0E : ... .. 0 ... V00 ... : ... .. 0 ... V00 ... : --- .. . ... : ... .. 4 ... : ... .. . ... ... : --- .. . P83 ... : --- .. . ... ... : --- .. . P7F ...
ROW 0F : ... .. . ... ... ... : ... .. . ... ... ... : ... .. . ... : ... .. . ... : ... .. . ... ... : ... .. . ... ... : ... .. . ... ... : ... .. . ... ...
ROW 10 : B-4 00 F P80 V01 ... : B-3 00 F P83 V01 ... : A#5 00 . ... : 7-# 00 F ... : ... .. . ... ... : C#3 01 A P81 ... : F-4 01 A ... ... : G-1 01 F P80 ...
ROW 11 : ... .. E ... ... ... : ... .. E ... ... ... : C-5 00 . ... : ... .. C ... : ... .. . ... ... : ... .. 9 ... ... : ... .. 9 ... ... : ... .. D ... ...
ROW 12 : ... .. D ... ... ... : ... .. D ... ... ... : F-4 00 . ... : ... .. A ... : ... .. . ... ... : ... .. 8 ... ... : ... .. 8 ... ... : ... .. 8 ... ...
ROW 13 : ... .. 0 ... V00 ... : ... .. A ... ... ... : E-4 00 . ... : ... .. 8 ... : ... .. . ... ... : --- .. . P84 ... : ... .. 7 ... ... : ... .. . ... ...
ROW 14 : ... .. . ... ... ... : ... .. . ... ... ... : B-3 00 . ... : ... .. 7 ... : ... .. . ... ... : ... .. . ... ... : ... .. . ... ... : ... .. . ... ...
ROW 15 : B-4 00 F P80 V01 ... : A-3 00 A P7F ... ... : ... .. . ... : ... .. 0 ... : ... .. . ... ... : C#3 01 A P81 ... : ... .. 6 ... ... : ... .. . ... ...
ROW 16 : ... .. E ... ... ... : G-3 00 A P7E ... ... : A-3 00 . P7C : B-# 00 6 ... : ... .. . ... ... : ... .. 9 ... ... : ... .. . ... ... : ... .. . ... ...
ROW 17 : ... .. D ... ... ... : F-3 00 A P81 ... ... : G-3 00 . P7B : ... .. 2 ... : ... .. . ... ... : ... .. 8 ... ... : ... .. 5 ... ... : ... .. . ... ...
ROW 18 : ... .. 0 ... V00 ... : D#3 00 A P89 ... ... : F-3 00 . P7E : ... .. 3 ... : ... .. . ... ... : --- .. . P84 ... : --- .. . ... ... : --- .. . P81 ...
ROW 19 : ... .. . ... ... ... : D-3 00 A P7E ... ... : D#3 00 . P86 : ... .. 0 ... : ... .. . ... ... : ... .. . ... ... : ... .. . ... ... : ... .. . ... ...
ROW 1A : C#4 00 F P80 V01 ... : C#3 00 F P83 ... ... : C-5 00 . P80 : 9-# 00 D ... : ... .. . ... ... : F-3 01 A P81 ... : B-3 01 A ... ... : G-4 01 F P80 ...
ROW 1B : ... .. E ... ... ... : ... .. E ... ... ... : D-4 00 . ... : ... .. . ... : ... .. . ... ... : ... .. 9 ... ... : ... .. 9 ... ... : ... .. D ... ...
ROW 1C : ... .. D ... ... ... : ... .. D ... ... ... : G-3 00 . ... : ... .. . ... : ... .. . ... ... : ... .. 8 ... ... : ... .. 8 ... ... : ... .. 8 ... ...
ROW 1D : ... .. A ... ... ... : ... .. 0 ... V00 ... : --- .. . ... : ... .. B ... : ... .. . ... ... : ... .. 7 ... ... : ... .. 7 ... ... : ... .. . ... ...
ROW 1E : ... .. . ... ... ... : ... .. . ... ... ... : ... .. . ... : ... .. . ... : ... .. . ... ... : ... .. . ... ... : ... .. . ... ... : ... .. . ... ...
ROW 1F : ... .. . ... ... ... : C#3 00 F P83 V01 ... : C#3 00 . ... : ... .. A ... : ... .. . ... ... : ... .. 6 ... ... : ... .. 6 ... ... : ... .. . ... ...
ROW 20 : ... .. . ... ... ... : ... .. E ... ... ... : ... .. . ... : ... .. . ... : ... .. . ... ... : ... .. . ... ... : ... .. . ... ... : ... .. . ... ...
ROW 21 : ... .. . ... ... ... : ... .. D ... ... ... : ... .. . ... : ... .. . ... : ... .. . ... ... : ... .. 5 ... ... : ... .. 5 ... ... : ... .. . ... ...
ROW 22 : ... .. . ... ... ... : ... .. 0 ... V00 ... : --- .. . ... : ... .. 9 ... : ... .. . ... ... : ... .. . ... ... : ... .. . ... ... : ... .. . ... ...
ROW 23 : ... .. . ... ... ... : ... .. . ... ... ... : ... .. . ... : ... .. . ... : ... .. . ... ... : ... .. . ... ... : ... .. . ... ... : ... .. . ... ...
ROW 24 : B-4 00 F ... ... ... : F-3 00 F P83 V01 ... : F-3 00 . ... : ... .. 7 ... : ... .. . ... ... : F-2 01 A ... ... : F-4 01 A ... ... : F-3 01 F ... ...
ROW 25 : ... .. E ... ... ... : ... .. E ... ... ... : ... .. . ... : ... .. . ... : ... .. . ... ... : ... .. 9 ... ... : ... .. 9 ... ... : ... .. D ... ...
ROW 26 : ... .. D ... ... ... : ... .. D ... ... ... : ... .. . ... : ... .. . ... : ... .. . ... ... : ... .. 8 ... ... : ... .. 8 ... ... : ... .. 8 ... ...
ROW 27 : ... .. 0 ... V00 ... : ... .. A ... ... ... : ... .. . ... : ... .. 6 ... : ... .. . ... ... : --- .. . P7F ... : ... .. 7 ... ... : ... .. . ... ...
ROW 28 : ... .. . ... ... ... : ... .. . ... ... ... : ... .. . ... : ... .. . ... : ... .. . ... ... : ... .. . ... ... : ... .. . ... ... : ... .. . ... ...
ROW 29 : B-4 00 F P80 V01 ... : ... .. . ... ... ... : ... .. . ... : ... .. 5 ... : ... .. . ... ... : F-2 01 A P81 ... : ... .. 6 ... ... : ... .. . ... ...
ROW 2A : ... .. E ... ... ... : ... .. . ... ... ... : ... .. . ... : ... .. . ... : ... .. . ... ... : ... .. 9 ... ... : ... .. . ... ... : ... .. . ... ...
ROW 2B : ... .. D ... ... ... : ... .. . ... ... ... : ... .. . ... : ... .. . ... : ... .. . ... ... : ... .. 8 ... ... : ... .. 5 ... ... : ... .. . ... ...
ROW 2C : ... .. 0 ... V00 ... : ... .. . ... ... ... : ... .. . ... : ... .. 4 ... : ... .. . ... ... : --- .. . P7F ... : --- .. . ... ... : --- .. . P7F ...
ROW 2D : ... .. . ... ... ... : ... .. . ... ... ... : ... .. . ... : ... .. . ... : ... .. . ... ... : ... .. . ... ... : ... .. . ... ... : ... .. . ... ...
ROW 2E : F-4 00 F P80 V01 ... : B-2 00 F ... ... ... : A#4 00 . ... : 7-# 00 F ... : ... .. . ... ... : G-2 01 A P81 ... : F-4 01 A ... ... : C#3 01 F P80 ...
ROW 2F : ... .. E ... ... ... : ... .. E ... ... ... : C-4 00 . ... : ... .. C ... : ... .. . ... ... : ... .. 9 ... ... : ... .. 9 ... ... : ... .. D ... ...
ROW 30 : ... .. D ... ... ... : ... .. D ... ... ... : F-3 00 . ... : ... .. A ... : ... .. . ... ... : ... .. 8 ... ... : ... .. 8 ... ... : ... .. 8 ... ...
ROW 31 : ... .. 0 ... V00 ... : ... .. A ... ... ... : E-3 00 . ... : ... .. 8 ... : ... .. . ... ... : --- .. . P7F ... : ... .. 7 ... ... : ... .. . ... ...
ROW 32 : ... .. . ... ... ... : ... .. . ... ... ... : B-2 00 . ... : ... .. 7 ... : ... .. . ... ... : ... .. . ... ... : ... .. . ... ... : ... .. . ... ...
ROW 33 : F-4 00 F P80 V01 ... : ... .. . ... ... ... : ... .. . ... : ... .. 0 ... : ... .. . ... ... : G-2 01 A P81 ... : ... .. 6 ... ... : ... .. . ... ...
ROW 34 : ... .. E ... ... ... : ... .. . ... ... ... : ... .. . ... : B-# 00 6 ... : ... .. . ... ... : ... .. 9 ... ... : ... .. . ... ... : ... .. . ... ...
ROW 35 : ... .. D ... ... ... : ... .. . ... ... ... : ... .. . ... : ... .. 2 ... : ... .. . ... ... : ... .. 8 ... ... : ... .. 5 ... ... : ... .. . ... ...
ROW 36 : ... .. 0 ... V00 ... : ... .. 0 ... V00 ... : --- .. . ... : ... .. 3 ... : ... .. . ... ... : --- .. . P7F ... : --- .. . ... ... : --- .. . ... ...
ROW 37 : ... .. . ... ... ... : ... .. . ... ... ... : ... .. . ... : ... .. 0 ... : ... .. . ... ... : ... .. . ... ... : ... .. . ... ... : ... .. . ... ...
ROW 38 : B-3 00 F P80 V01 ... : C#2 00 F P83 V01 ... : G#5 00 . P7F : 5-# 00 F ... : ... .. . ... ... : B-2 01 A P81 ... : D#4 01 A ... ... : B-2 01 F ... ...
ROW 39 : ... .. E ... ... ... : ... .. E ... ... ... : E-5 00 . P82 : ... .. C ... : ... .. . ... ... : ... .. 9 ... ... : ... .. 9 ... ... : ... .. D ... ...
ROW 3A : ... .. D ... ... ... : ... .. D ... ... ... : C#5 00 . P83 : ... .. A ... : ... .. . ... ... : ... .. 8 ... ... : ... .. 8 ... ... : ... .. 8 ... ...
ROW 3B : ... .. A ... ... ... : ... .. 0 ... V00 ... : B-4 00 . P80 : ... .. 8 ... : ... .. . ... ... : ... .. 7 ... ... : ... .. 7 ... ... : ... .. . ... ...
ROW 3C : ... .. . ... ... ... : ... .. . ... ... ... : --- .. . ... : ... .. 7 ... : ... .. . ... ... : ... .. . ... ... : ... .. . ... ... : ... .. . ... ...
ROW 3D : ... .. F ... ... ... : C#2 00 F P83 V01 ... : G#5 00 . P7F : ... .. F ... : ... .. . ... ... : ... .. A ... ... : ... .. 6 ... ... : C#3 01 F ... ...
ROW 3E : ... .. E ... ... ... : ... .. E ... ... ... : E-5 00 . P82 : ... .. C ... : ... .. . ... ... : ... .. 9 ... ... : ... .. . ... ... : ... .. D ... ...
ROW 3F : ... .. D ... ... ... : ... .. D ... ... ... : C#5 00 . P83 : ... .. A ... : ... .. . ... ... : ... .. 8 ... ... : ... .. 5 ... ... : ... .. 8 ... ...
ROW 40 : ... .. 0 ... V00 ... : ... .. 0 ... V00 ... : B-4 00 . P80 : ... .. 8 ... : ... .. . ... ... : ... .. 7 ... ... : ... .. . ... ... : ... .. 4 ... ...
ROW 41 : ... .. . ... ... ... : ... .. . ... ... ... : --- .. . ... : ... .. 7 ... : ... .. . ... ... : ... .. . ... ... : ... .. . ... ... : ... .. . ... ...
ROW 42 : C#4 00 F P80 V01 ... : D-2 00 F P83 V01 ... : A#4 00 . P7E : D-# 00 F ... : ... .. . ... ... : C#3 01 A ... ... : B-3 01 A ... ... : F-3 01 F ... ...
ROW 43 : ... .. E ... ... ... : ... .. E ... ... ... : G#4 00 . ... : ... .. C ... : ... .. . ... ... : ... .. 9 ... ... : ... .. 9 ... ... : ... .. D ... ...
ROW 44 : ... .. D ... ... ... : ... .. D ... ... ... : F#4 00 . P7F : ... .. A ... : ... .. . ... ... : ... .. 8 ... ... : ... .. 8 ... ... : ... .. 8 ... ...
ROW 45 : ... .. 0 ... V00 ... : ... .. A ... ... ... : E-4 00 . P83 : ... .. 8 ... : ... .. . ... ... : ... .. 7 ... ... : ... .. 7 ... ... : ... .. 4 ... ...
ROW 46 : ... .. . ... ... ... : ... .. . ... ... ... : --- .. . ... : ... .. 7 ... : ... .. . ... ... : ... .. . ... ... : ... .. . ... ... : ... .. . ... ...
ROW 47 : C#4 00 F P80 V01 ... : ... .. . ... ... ... : A#4 00 . P7E : ... .. F ... : ... .. . ... ... : ... .. A ... ... : ... .. 6 ... ... : G-3 01 F ... ...
ROW 48 : ... .. E ... ... ... : ... .. . ... ... ... : G#4 00 . ... : ... .. C ... : ... .. . ... ... : ... .. 9 ... ... : ... .. . ... ... : ... .. D ... ...
ROW 49 : ... .. D ... ... ... : ... .. . ... ... ... : F#4 00 . P7F : ... .. A ... : ... .. . ... ... : ... .. 8 ... ... : ... .. 5 ... ... : ... .. 8 ... ...
ROW 4A : ... .. 0 ... V00 ... : ... .. . ... ... ... : E-4 00 . P83 : ... .. 8 ... : ... .. . ... ... : ... .. 7 ... ... : ... .. . ... ... : ... .. 4 ... ...
ROW 4B : ... .. . ... ... ... : ... .. . ... ... ... : --- .. . ... : ... .. 7 ... : ... .. . ... ... : ... .. . ... ... : ... .. . ... ... : ... .. . ... ...
ROW 4C : A-3 00 F P80 V01 ... : C#4 00 F ... ... ... : D-4 00 . P85 : 6-# 00 F ... : ... .. . ... ... : D-3 01 A ... ... : F-4 01 A ... ... : A#3 01 F ... ...
ROW 4D : ... .. E ... ... ... : ... .. E ... ... ... : C#4 00 . P82 : ... .. C ... : ... .. . ... ... : ... .. 9 ... ... : ... .. 9 ... ... : ... .. D ... ...
ROW 4E : ... .. D ... ... ... : ... .. D ... ... ... : C-4 00 . P7F : ... .. A ... : ... .. . ... ... : ... .. 8 ... ... : ... .. 8 ... ... : ... .. 8 ... ...
ROW 4F : ... .. 0 ... V00 ... : ... .. A ... ... ... : B-3 00 . P7C : ... .. 8 ... : ... .. . ... ... : --- .. . P83 ... : ... .. 7 ... ... : ... .. 4 ... ...
ROW 50 : ... .. . ... ... ... : ... .. . ... ... ... : --- .. . ... : ... .. 7 ... : ... .. . ... ... : ... .. . ... ... : ... .. . ... ... : ... .. . ... ...
ROW 51 : B-3 00 F P80 V01 ... : ... .. . ... ... ... : D-4 00 . P85 : ... .. F ... : ... .. . ... ... : D-3 01 A P81 ... : ... .. 6 ... ... : B-3 01 F ... ...
ROW 52 : ... .. E ... ... ... : ... .. . ... ... ... : C#4 00 . P82 : ... .. C ... : ... .. . ... ... : ... .. 9 ... ... : ... .. . ... ... : ... .. D ... ...
ROW 53 : ... .. D ... ... ... : ... .. . ... ... ... : C-4 00 . P7F : ... .. A ... : ... .. . ... ... : ... .. 8 ... ... : ... .. 5 ... ... : ... .. 8 ... ...
ROW 54 : ... .. 0 ... V00 ... : ... .. . ... ... ... : B-3 00 . P7C : ... .. 8 ... : ... .. . ... ... : --- .. . P83 ... : ... .. . ... ... : ... .. 4 ... ...
ROW 55 : ... .. . ... ... ... : ... .. . ... ... ... : --- .. . ... : ... .. 7 ... : ... .. . ... ... : ... .. . ... ... : ... .. . ... ... : ... .. . ... ...
ROW 56 : C-4 00 F P80 V01 ... : F-3 00 F ... ... ... : D#3 00 . P86 : 4-# 00 F ... : ... .. . ... ... : E-3 01 A P81 ... : G-4 01 A ... ... : C#4 01 F ... ...
ROW 57 : ... .. E ... ... ... : ... .. E ... ... ... : ... .. . P77 : ... .. C ... : ... .. . ... ... : ... .. 9 ... ... : ... .. 9 ... ... : ... .. D ... ...
ROW 58 : ... .. D ... ... ... : ... .. D ... ... ... : D-3 00 . P7D : ... .. A ... : ... .. . ... ... : ... .. 8 ... ... : ... .. 8 ... ... : ... .. 8 ... ...
ROW 59 : ... .. 0 ... V00 ... : ... .. A ... ... ... : C#3 00 . P85 : ... .. 8 ... : ... .. . ... ... : --- .. . P7E ... : ... .. 7 ... ... : ... .. 4 ... ...
ROW 5A : ... .. . ... ... ... : ... .. . ... ... ... : --- .. . ... : ... .. 7 ... : ... .. . ... ... : ... .. . ... ... : ... .. . ... ... : ... .. . ... ...
ROW 5B : D-4 00 F P80 V01 ... : ... .. . ... ... ... : D#3 00 . P86 : ... .. F ... : ... .. . ... ... : E-3 01 A P81 ... : ... .. 6 ... ... : D-4 01 F ... ...
ROW 5C : ... .. E ... ... ... : ... .. . ... ... ... : ... .. . P77 : ... .. C ... : ... .. . ... ... : ... .. 9 ... ... : ... .. . ... ... : ... .. D ... ...
ROW 5D : ... .. D ... ... ... : ... .. . ... ... ... : D-3 00 . P7D : ... .. A ... : ... .. . ... ... : ... .. 8 ... ... : ... .. 5 ... ... : ... .. 8 ... ...
ROW 5E : ... .. 0 ... V00 ... : ... .. 0 ... V00 ... : C#3 00 . P85 : ... .. 8 ... : ... .. . ... ... : --- .. . P7E ... : ... .. . ... ... : ... .. 4 ... ...
ROW 5F : ... .. . ... ... ... : ... .. . ... ... ... : --- .. . ... : ... .. 7 ... : ... .. . ... ... : ... .. . ... ... : ... .. . ... ... : ... .. . ... ...
ROW 60 : D#4 00 D P80 V01 ... : G-4 00 D P83 V01 ... : B-3 00 . P80 : 9-# 00 D ... : ... .. . ... ... : D#4 01 8 P80 ... : C-5 01 6 ... V05 : C-2 01 F P81 ...
ROW 61 : ... .. C ... ... ... : ... .. C ... ... ... : C#3 00 . ... : ... .. . ... : ... .. . ... ... : ... .. 7 ... ... : ... .. 5 ... ... : ... .. D ... ...
ROW 62 : ... .. B ... ... ... : ... .. B ... ... ... : F#2 00 . ... : ... .. . ... : ... .. . ... ... : ... .. 6 ... ... : ... .. . ... ... : ... .. 8 ... ...
ROW 63 : ... .. 2 P81 ... ... : ... .. 2 P80 ... ... : F-2 00 . ... : ... .. B ... : ... .. . ... ... : ... .. 5 ... ... : ... .. . P80 ... : ... .. . ... ...
ROW 64 : ... .. . ... ... ... : ... .. . ... ... ... : C-2 00 . ... : ... .. . ... : ... .. . ... ... : ... .. . ... ... : ... .. 4 ... ... : ... .. . ... ...
ROW 65 : ... .. D ... ... ... : ... .. D ... ... ... : ... .. . ... : ... .. A ... : ... .. . ... ... : C-4 01 8 ... ... : ... .. . ... ... : ... .. . ... ...
ROW 66 : ... .. C ... ... ... : ... .. C ... ... ... : ... .. . ... : ... .. . ... : ... .. . ... ... : ... .. 7 ... ... : ... .. . ... ... : ... .. . ... ...
ROW 67 : ... .. B ... ... ... : ... .. B ... ... ... : ... .. . ... : ... .. . ... : ... .. . ... ... : ... .. 6 ... ... : ... .. . ... ... : ... .. . ... ...
ROW 68 : ... .. 2 ... ... ... : ... .. 2 ... ... ... : ... .. . ... : ... .. 9 ... : ... .. . ... ... : ... .. 5 ... ... : ... .. . ... ... : ... .. . ... ...
ROW 69 : ... .. . ... ... ... : ... .. . ... ... ... : --- .. . ... : ... .. . ... : ... .. . ... ... : ... .. . ... ... : ... .. . ... ... : --- .. . P7D ...
ROW 6A : ... .. D ... ... ... : ... .. D ... ... ... : C-3 00 . ... : ... .. 7 ... : ... .. . ... ... : G-3 01 8 ... ... : ... .. . ... ... : C-3 01 F P81 ...
ROW 6B : ... .. C ... ... ... : ... .. C ... ... ... : ... .. . ... : ... .. . ... : ... .. . ... ... : ... .. 7 ... ... : ... .. . ... ... : ... .. D ... ...
ROW 6C : ... .. B ... ... ... : ... .. B ... ... ... : ... .. . ... : ... .. . ... : ... .. . ... ... : ... .. 6 ... ... : ... .. . ... ... : ... .. 8 ... ...
ROW 6D : ... .. 2 ... ... ... : ... .. 2 ... ... ... : ... .. . ... : ... .. 6 ... : ... .. . ... ... : ... .. 5 ... ... : ... .. . ... ... : ... .. . ... ...
ROW 6E : ... .. . ... ... ... : ... .. . ... ... ... : --- .. . ... : ... .. . ... : ... .. . ... ... : ... .. . ... ... : ... .. . ... ... : --- .. . P7F ...
ROW 6F : ... .. D ... ... ... : ... .. D ... ... ... : C-3 00 . ... : ... .. 5 ... : ... .. . ... ... : D#3 01 8 ... ... : ... .. . ... ... : C-3 01 F P81 ...
ROW 70 : ... .. C ... ... ... : ... .. C ... ... ... : ... .. . ... : ... .. . ... : ... .. . ... ... : ... .. 7 ... ... : ... .. . ... ... : ... .. D ... ...
ROW 71 : ... .. B ... ... ... : ... .. B ... ... ... : ... .. . ... : ... .. . ... : ... .. . ... ... : ... .. 6 ... ... : ... .. . ... ... : ... .. 8 ... ...
ROW 72 : ... .. 2 ... ... ... : ... .. 2 ... ... ... : ... .. . ... : ... .. 4 ... : ... .. . ... ... : ... .. 5 ... ... : ... .. 5 ... ... : ... .. . ... ...
ROW 73 : ... .. . ... ... ... : ... .. . ... ... ... : --- .. . ... : ... .. . ... : ... .. . ... ... : ... .. . ... ... : ... .. . ... ... : --- .. . P7F ...
ROW 74 : D-4 00 D ... V02 ... : F#4 00 D ... V02 ... : C-3 00 . ... : 7-# 00 F ... : ... .. . ... ... : D-4 01 8 ... ... : C#5 01 5 P7E ... : C-3 01 F P81 ...
ROW 75 : ... .. C ... ... ... : ... .. C ... ... ... : ... .. . ... : ... .. C ... : ... .. . ... ... : ... .. 7 ... ... : ... .. . P80 ... : ... .. D ... ...
ROW 76 : ... .. B ... ... ... : ... .. B ... ... ... : ... .. . ... : ... .. A ... : ... .. . ... ... : ... .. 6 ... ... : ... .. . P7F ... : ... .. 8 ... ...
ROW 77 : ... .. 2 ... ... ... : ... .. 2 ... ... ... : ... .. . ... : ... .. 8 ... : ... .. . ... ... : ... .. 5 ... ... : C-5 01 5 P82 ... : ... .. . ... ...
ROW 78 : ... .. . ... ... ... : ... .. . ... ... ... : --- .. . ... : ... .. 7 ... : ... .. . ... ... : ... .. . ... ... : ... .. . P7E ... : --- .. . P7F ...
ROW 79 : ... .. D ... ... ... : ... .. D ... ... ... : C-3 00 . ... : ... .. 0 ... : ... .. . ... ... : B-3 01 8 ... ... : B-4 01 5 P81 ... : C-3 01 F P81 ...
ROW 7A : ... .. C ... ... ... : ... .. C ... ... ... : ... .. . ... : B-# 00 6 ... : ... .. . ... ... : ... .. 7 ... ... : ... .. . P80 ... : ... .. D ... ...
ROW 7B : ... .. B ... ... ... : ... .. B ... ... ... : ... .. . ... : ... .. 2 ... : ... .. . ... ... : ... .. 6 ... ... : ... .. . P82 ... : ... .. 8 ... ...
ROW 7C : ... .. 2 ... ... ... : ... .. 2 ... ... ... : ... .. . ... : ... .. . ... : ... .. . ... ... : ... .. 5 ... ... : C-5 01 5 P80 ... : ... .. . ... ...
ROW 7D : ... .. . ... ... ... : ... .. . ... ... ... : --- .. . ... : ... .. 0 ... : ... .. . ... ... : ... .. . ... ... : ... .. . P83 ... : --- .. . P7F ...
ROW 7E : ... .. D ... ... ... : ... .. D ... ... ... : C-3 00 . ... : ... .. . ... : ... .. . ... ... : F#3 01 8 ... ... : C#5 01 6 P80 ... : C-3 01 F P81 ...
ROW 7F : ... .. C ... ... ... : ... .. C ... ... ... : ... .. . ... : ... .. A ... : ... .. . ... ... : ... .. 7 ... ... : ... .. . ... ... : ... .. D ... ...
ROW 80 : ... .. B ... ... ... : ... .. B ... ... ... : ... .. . ... : ... .. 4 ... : ... .. . ... ... : ... .. 6 ... ... : C-5 01 6 P82 ... : ... .. 8 ... ...
ROW 81 : ... .. 2 ... ... ... : ... .. 2 ... ... ... : ... .. . ... : ... .. . ... : ... .. . ... ... : ... .. 5 ... ... : ... .. . P7F ... : ... .. . ... ...
ROW 82 : ... .. . ... ... ... : ... .. . ... ... ... : --- .. . ... : ... .. 0 ... : ... .. . ... ... : ... .. . ... ... : B-4 01 6 P81 ... : --- .. . P7F ...
ROW 83 : ... .. D ... ... ... : ... .. D ... ... ... : C-3 00 . ... : ... .. . ... : ... .. . ... ... : D-3 01 8 ... ... : ... .. . P80 ... : C-3 01 F P81 ...
ROW 84 : ... .. C ... ... ... : ... .. C ... ... ... : ... .. . ... : ... .. 8 ... : ... .. . ... ... : ... .. 7 ... ... : ... .. . P82 ... : ... .. D ... ...
ROW 85 : ... .. B ... ... ... : ... .. B ... ... ... : ... .. . ... : ... .. 3 ... : ... .. . ... ... : ... .. 6 ... ... : C-5 01 6 P80 ... : ... .. 8 ... ...
ROW 86 : ... .. 2 ... ... ... : ... .. 2 ... ... ... : ... .. . ... : ... .. . ... : ... .. . ... ... : ... .. 5 ... ... : ... .. . P83 ... : ... .. . ... ...
ROW 87 : ... .. . ... ... ... : ... .. . ... ... ... : --- .. . ... : ... .. 0 ... : ... .. . ... ... : ... .. . ... ... : C#5 01 6 P80 ... : --- .. . P7F ...
ROW 88 : D#4 00 D ... V00 ... : G-4 00 D ... V00 ... : B-4 00 . ... : 2-# 00 F ... : ... .. . ... ... : D#4 01 8 ... ... : D#5 01 9 ... ... : C-3 01 F P81 ...
ROW 89 : ... .. C ... ... ... : ... .. C ... ... ... : C#4 00 . ... : ... .. C ... : ... .. . ... ... : ... .. 7 ... ... : ... .. 8 ... ... : ... .. D ... ...
ROW 8A : ... .. B ... ... ... : ... .. B ... ... ... : F#3 00 . ... : ... .. 6 ... : ... .. . ... ... : ... .. 6 ... ... : ... .. . ... ... : ... .. 8 ... ...
ROW 8B : ... .. 2 ... ... ... : ... .. 2 ... ... ... : F-3 00 . ... : ... .. 3 ... : ... .. . ... ... : ... .. 5 ... ... : ... .. . ... ... : ... .. . ... ...
ROW 8C : ... .. . ... ... ... : ... .. . ... ... ... : C-3 00 . ... : ... .. 2 ... : ... .. . ... ... : ... .. . ... ... : ... .. 7 ... ... : ... .. . ... ...
ROW 8D : ... .. D ... ... ... : ... .. D ... ... ... : ... .. . ... : ... .. 0 ... : ... .. . ... ... : C-4 01 8 ... ... : ... .. . ... ... : ... .. . ... ...
ROW 8E : ... .. C ... ... ... : ... .. C ... ... ... : ... .. . ... : B-# 00 8 ... : ... .. . ... ... : ... .. 7 ... ... : ... .. . ... ... : ... .. . ... ...
ROW 8F : ... .. B ... ... ... : ... .. B ... ... ... : ... .. . ... : ... .. 3 ... : ... .. . ... ... : ... .. 6 ... ... : ... .. 6 ... ... : ... .. . ... ...
ROW 90 : ... .. 2 ... ... ... : ... .. 2 ... ... ... : ... .. . ... : ... .. . ... : ... .. . ... ... : ... .. 5 ... ... : ... .. . ... ... : ... .. . ... ...
ROW 91 : ... .. . ... ... ... : ... .. . ... ... ... : --- .. . ... : ... .. 0 ... : ... .. . ... ... : ... .. . ... ... : ... .. . ... ... : --- .. . P7F ...
ROW 92 : ... .. D ... ... ... : ... .. D ... ... ... : B-4 00 . ... : 2-# 00 F ... : ... .. . ... ... : G-3 01 8 ... ... : ... .. . ... ... : C-3 01 F P81 ...
ROW 93 : ... .. C ... ... ... : ... .. C ... ... ... : C#4 00 . ... : ... .. C ... : ... .. . ... ... : ... .. 7 ... ... : ... .. . ... ... : ... .. D ... ...
ROW 94 : ... .. B ... ... ... : ... .. B ... ... ... : F#3 00 . ... : ... .. 6 ... : ... .. . ... ... : ... .. 6 ... ... : ... .. . ... ... : ... .. 8 ... ...
ROW 95 : ... .. 2 ... ... ... : ... .. 2 ... ... ... : F-3 00 . ... : ... .. 3 ... : ... .. . ... ... : ... .. 5 ... ... : ... .. 5 ... ... : ... .. . ... ...
ROW 96 : ... .. . ... ... ... : ... .. . ... ... ... : --- .. . ... : ... .. 2 ... : ... .. . ... ... : ... .. . ... ... : ... .. . ... ... : --- .. . P7F ...
ROW 97 : ... .. D ... ... ... : ... .. D ... ... ... : C-3 00 . ... : ... .. 0 ... : ... .. . ... ... : D#3 01 8 ... ... : ... .. . ... ... : C-3 01 F P81 ...
ROW 98 : ... .. C ... ... ... : ... .. C ... ... ... : ... .. . ... : B-# 00 8 ... : ... .. . ... ... : ... .. 7 ... ... : ... .. . ... ... : ... .. D ... ...
ROW 99 : ... .. B ... ... ... : ... .. B ... ... ... : ... .. . ... : ... .. 3 ... : ... .. . ... ... : ... .. 6 ... ... : ... .. . ... ... : ... .. 8 ... ...
ROW 9A : ... .. 2 ... ... ... : ... .. 2 ... ... ... : ... .. . ... : ... .. . ... : ... .. . ... ... : ... .. 5 ... ... : ... .. . ... ... : ... .. . ... ...
ROW 9B : ... .. . ... ... ... : ... .. . ... ... ... : --- .. . ... : ... .. 0 ... : ... .. . ... ... : ... .. . ... ... : ... .. . ... ... : --- .. . P7F ...
ROW 9C : C-4 00 D ... V01 ... : D#4 00 D ... V01 ... : C-3 00 . ... : 7-# 00 F ... : ... .. . ... ... : C-4 01 8 ... ... : E-5 01 5 P7F ... : C-3 01 F P81 ...
ROW 9D : ... .. C ... ... ... : ... .. C ... ... ... : ... .. . ... : ... .. C ... : ... .. . ... ... : ... .. 7 ... ... : ... .. . P81 ... : ... .. D ... ...
ROW 9E : ... .. B ... ... ... : ... .. B ... ... ... : ... .. . ... : ... .. A ... : ... .. . ... ... : ... .. 6 ... ... : ... .. . P80 ... : ... .. 8 ... ...
ROW 9F : ... .. 2 ... ... ... : ... .. 2 ... ... ... : ... .. . ... : ... .. 8 ... : ... .. . ... ... : ... .. 5 ... ... : D#5 01 5 P82 ... : ... .. . ... ...
ROW A0 : ... .. . ... ... ... : ... .. . ... ... ... : --- .. . ... : ... .. 7 ... : ... .. . ... ... : ... .. . ... ... : ... .. . P7E ... : --- .. . P7F ...
ROW A1 : ... .. D ... ... ... : ... .. D ... ... ... : C-3 00 . ... : ... .. 0 ... : ... .. . ... ... : G-3 01 8 ... ... : D-5 01 4 P80 ... : C-3 01 F P81 ...
ROW A2 : ... .. C ... ... ... : ... .. C ... ... ... : ... .. . ... : B-# 00 6 ... : ... .. . ... ... : ... .. 7 ... ... : ... .. . P7F ... : ... .. D ... ...
ROW A3 : ... .. B ... ... ... : ... .. B ... ... ... : ... .. . ... : ... .. 2 ... : ... .. . ... ... : ... .. 6 ... ... : ... .. . P81 ... : ... .. 8 ... ...
ROW A4 : ... .. 2 ... ... ... : ... .. 2 ... ... ... : ... .. . ... : ... .. . ... : ... .. . ... ... : ... .. 5 ... ... : D#5 01 4 P80 ... : ... .. . ... ...
ROW A5 : ... .. . ... ... ... : ... .. . ... ... ... : --- .. . ... : ... .. 0 ... : ... .. . ... ... : ... .. . ... ... : E-5 01 4 P7E ... : --- .. . P7F ...
ROW A6 : ... .. D ... ... ... : ... .. D ... ... ... : C-3 00 . ... : ... .. . ... : ... .. . ... ... : D#3 01 8 ... ... : ... .. . P81 ... : C-3 01 F P81 ...
ROW A7 : ... .. C ... ... ... : ... .. C ... ... ... : ... .. . ... : ... .. A ... : ... .. . ... ... : ... .. 7 ... ... : ... .. . ... ... : ... .. D ... ...
ROW A8 : ... .. B ... ... ... : ... .. B ... ... ... : ... .. . ... : ... .. 4 ... : ... .. . ... ... : ... .. 6 ... ... : D#5 01 4 P82 ... : ... .. 8 ... ...
ROW A9 : ... .. 2 ... ... ... : ... .. 2 ... ... ... : ... .. . ... : ... .. . ... : ... .. . ... ... : ... .. 5 ... ... : ... .. . P7F ... : ... .. . ... ...
ROW AA : ... .. . ... ... ... : ... .. . ... ... ... : --- .. . ... : ... .. 0 ... : ... .. . ... ... : ... .. . ... ... : D-5 01 4 P80 ... : --- .. . P7F ...
ROW AB : ... .. D ... ... ... : ... .. D ... ... ... : C-3 00 . ... : ... .. . ... : ... .. . ... ... : C-3 01 8 ... ... : ... .. . P7F ... : C-3 01 F P81 ...
ROW AC : ... .. C ... ... ... : ... .. C ... ... ... : ... .. . ... : ... .. 8 ... : ... .. . ... ... : ... .. 7 ... ... : ... .. . P81 ... : ... .. D ... ...
ROW AD : ... .. B ... ... ... : ... .. B ... ... ... : ... .. . ... : ... .. 3 ... : ... .. . ... ... : ... .. 6 ... ... : D#5 01 4 P80 ... : ... .. 8 ... ...
ROW AE : ... .. 2 ... ... ... : ... .. 2 ... ... ... : ... .. . ... : ... .. . ... : ... .. . ... ... : ... .. 5 ... ... : E-5 01 4 P7E ... : ... .. . ... ...
ROW AF : ... .. . ... ... ... : ... .. . ... ... ... : --- .. . ... : ... .. 0 ... : ... .. . ... ... : ... .. . ... ... : ... .. . P81 ... : --- .. . P7F ...
ROW B0 : D-4 00 D ... V02 ... : F#4 00 D ... V02 ... : B-3 00 . ... : 2-# 00 F ... : ... .. . ... ... : D-4 01 8 ... ... : D-5 01 6 P80 ... : C-2 01 F P81 ...
ROW B1 : ... .. C ... ... ... : ... .. C ... ... ... : C#3 00 . ... : ... .. C ... : ... .. . ... ... : ... .. 7 ... ... : ... .. 5 ... ... : ... .. D ... ...
ROW B2 : ... .. B ... ... ... : ... .. B ... ... ... : F#2 00 . ... : ... .. 6 ... : ... .. . ... ... : ... .. 6 ... ... : ... .. . ... ... : ... .. 8 ... ...
ROW B3 : ... .. 2 ... ... ... : ... .. 2 ... ... ... : F-2 00 . ... : ... .. 3 ... : ... .. . ... ... : ... .. 5 ... ... : ... .. . ... ... : ... .. . ... ...
ROW B4 : ... .. . ... ... ... : ... .. . ... ... ... : C-2 00 . ... : ... .. 2 ... : ... .. . ... ... : ... .. . ... ... : ... .. 4 ... ... : ... .. . ... ...
ROW B5 : ... .. D ... ... ... : ... .. D ... ... ... : ... .. . ... : ... .. 0 ... : ... .. . ... ... : A-3 01 8 ... ... : ... .. . ... ... : ... .. . ... ...
ROW B6 : ... .. C ... ... ... : ... .. C ... ... ... : ... .. . ... : B-# 00 8 ... : ... .. . ... ... : ... .. 7 ... ... : ... .. . ... ... : ... .. . ... ...
ROW B7 : ... .. B ... ... ... : ... .. B ... ... ... : ... .. . ... : ... .. 3 ... : ... .. . ... ... : ... .. 6 ... ... : ... .. . ... ... : ... .. . ... ...
ROW B8 : ... .. 2 ... ... ... : ... .. 2 ... ... ... : ... .. . ... : ... .. . ... : ... .. . ... ... : ... .. 5 ... ... : ... .. . ... ... : ... .. . ... ...
ROW B9 : ... .. . ... ... ... : ... .. . ... ... ... : --- .. . ... : ... .. 0 ... : ... .. . ... ... : ... .. . ... ... : ... .. . ... ... : --- .. . P7D ...
ROW BA : ... .. D ... ... ... : ... .. D ... ... ... : C-3 00 . ... : 2-# 00 F ... : ... .. . ... ... : F#3 01 8 ... ... : ... .. . ... ... : C-3 01 F P81 ...
ROW BB : ... .. C ... ... ... : ... .. C ... ... ... : ... .. . ... : ... .. C ... : ... .. . ... ... : ... .. 7 ... ... : ... .. . ... ... : ... .. D ... ...
ROW BC : ... .. B ... ... ... : ... .. B ... ... ... : ... .. . ... : ... .. 6 ... : ... .. . ... ... : ... .. 6 ... ... : ... .. . ... ... : ... .. 8 ... ...
ROW BD : ... .. 2 ... ... ... : ... .. 2 ... ... ... : ... .. . ... : ... .. 3 ... : ... .. . ... ... : ... .. 5 ... ... : ... .. . ... ... : ... .. . ... ...
ROW BE : ... .. . ... ... ... : ... .. . ... ... ... : --- .. . ... : ... .. 2 ... : ... .. . ... ... : ... .. . ... ... : ... .. . ... ... : --- .. . P7F ...
ROW BF : ... .. D ... ... ... : ... .. D ... ... ... : C-3 00 . ... : ... .. 0 ... : ... .. . ... ... : D-3 01 8 ... ... : ... .. . ... ... : C-3 01 F P81 ...
ROW C0 : ... .. C ... ... ... : ... .. C ... ... ... : ... .. . ... : B-# 00 8 ... : ... .. . ... ... : ... .. 7 ... ... : ... .. . ... ... : ... .. D ... ...
ROW C1 : ... .. B ... ... ... : ... .. B ... ... ... : ... .. . ... : ... .. 3 ... : ... .. . ... ... : ... .. 6 ... ... : ... .. . ... ... : ... .. 8 ... ...
ROW C2 : ... .. 2 ... ... ... : ... .. 2 ... ... ... : ... .. . ... : ... .. . ... : ... .. . ... ... : ... .. 5 ... ... : ... .. 5 ... ... : ... .. . ... ...
ROW C3 : ... .. . ... ... ... : ... .. . ... ... ... : --- .. . ... : ... .. 0 ... : ... .. . ... ... : ... .. . ... ... : ... .. . ... ... : --- .. . P7F ...
ROW C4 : C#4 00 D ... V03 ... : F-4 00 D ... V03 ... : C-3 00 . ... : 7-# 00 F ... : ... .. . ... ... : C#4 01 8 ... ... : D#5 01 5 P7F ... : C-3 01 F P81 ...
ROW C5 : ... .. C ... ... ... : ... .. C ... ... ... : ... .. . ... : ... .. C ... : ... .. . ... ... : ... .. 7 ... ... : ... .. . P81 ... : ... .. D ... ...
ROW C6 : ... .. B ... ... ... : ... .. B ... ... ... : ... .. . ... : ... .. A ... : ... .. . ... ... : ... .. 6 ... ... : ... .. . P80 ... : ... .. 8 ... ...
ROW C7 : ... .. 2 ... ... ... : ... .. 2 ... ... ... : ... .. . ... : ... .. 8 ... : ... .. . ... ... : ... .. 5 ... ... : D-5 01 5 P82 ... : ... .. . ... ...
ROW C8 : ... .. . ... ... ... : ... .. . ... ... ... : --- .. . ... : ... .. 7 ... : ... .. . ... ... : ... .. . ... ... : ... .. . P7E ... : --- .. . P7F ...
ROW C9 : ... .. D ... ... ... : ... .. D ... ... ... : C-3 00 . ... : ... .. 0 ... : ... .. . ... ... : G#3 01 8 ... ... : C#5 01 5 P81 ... : C-3 01 F P81 ...
ROW CA : ... .. C ... ... ... : ... .. C ... ... ... : ... .. . ... : B-# 00 6 ... : ... .. . ... ... : ... .. 7 ... ... : ... .. . P80 ... : ... .. D ... ...
ROW CB : ... .. B ... ... ... : ... .. B ... ... ... : ... .. . ... : ... .. 2 ... : ... .. . ... ... : ... .. 6 ... ... : ... .. . P82 ... : ... .. 8 ... ...
ROW CC : ... .. 2 ... ... ... : ... .. 2 ... ... ... : ... .. . ... : ... .. . ... : ... .. . ... ... : ... .. 5 ... ... : D-5 01 5 P80 ... : ... .. . ... ...
ROW CD : ... .. . ... ... ... : ... .. . ... ... ... : --- .. . ... : ... .. 0 ... : ... .. . ... ... : ... .. . ... ... : D#5 01 5 P7E ... : --- .. . P7F ...
ROW CE : ... .. D ... ... ... : ... .. D ... ... ... : C-3 00 . ... : ... .. . ... : ... .. . ... ... : F-3 01 8 ... ... : ... .. 6 P81 ... : C-3 01 F P81 ...
ROW CF : ... .. C ... ... ... : ... .. C ... ... ... : ... .. . ... : ... .. A ... : ... .. . ... ... : ... .. 7 ... ... : ... .. . ... ... : ... .. D ... ...
ROW D0 : ... .. B ... ... ... : ... .. B ... ... ... : ... .. . ... : ... .. 4 ... : ... .. . ... ... : ... .. 6 ... ... : D-5 01 6 P82 ... : ... .. 8 ... ...
ROW D1 : ... .. 2 ... ... ... : ... .. 2 ... ... ... : ... .. . ... : ... .. . ... : ... .. . ... ... : ... .. 5 ... ... : ... .. . P7F ... : ... .. . ... ...
ROW D2 : ... .. . ... ... ... : ... .. . ... ... ... : --- .. . ... : ... .. 0 ... : ... .. . ... ... : ... .. . ... ... : C#5 01 6 P81 ... : --- .. . P7F ...
ROW D3 : ... .. D ... ... ... : ... .. D ... ... ... : C-3 00 . ... : ... .. . ... : ... .. . ... ... : C#3 01 8 ... ... : ... .. . P80 ... : C-3 01 F P81 ...
ROW D4 : ... .. C ... ... ... : ... .. C ... ... ... : ... .. . ... : ... .. 8 ... : ... .. . ... ... : ... .. 7 ... ... : ... .. . P82 ... : ... .. D ... ...
ROW D5 : ... .. B ... ... ... : ... .. B ... ... ... : ... .. . ... : ... .. 3 ... : ... .. . ... ... : ... .. 6 ... ... : D-5 01 6 P80 ... : ... .. 8 ... ...
ROW D6 : ... .. 2 ... ... ... : ... .. 2 ... ... ... : ... .. . ... : ... .. . ... : ... .. . ... ... : ... .. 5 ... ... : D#5 01 6 P7E ... : ... .. . ... ...
ROW D7 : ... .. . ... ... ... : ... .. . ... ... ... : --- .. . ... : ... .. 0 ... : ... .. . ... ... : ... .. . ... ... : ... .. . P81 ... : --- .. . P7F ...
ROW D8 : D-4 00 D ... V01 ... : F#4 00 D ... V01 ... : B-4 00 . ... : 2-# 00 F ... : ... .. . ... ... : D-4 01 8 ... ... : A-4 01 9 P80 ... : C-3 01 F P81 ...
ROW D9 : ... .. C ... ... ... : ... .. C ... ... ... : C#4 00 . ... : ... .. C ... : ... .. . ... ... : ... .. 7 ... ... : ... .. 8 ... ... : ... .. D ... ...
ROW DA : ... .. B ... ... ... : ... .. B ... ... ... : F#3 00 . ... : ... .. 6 ... : ... .. . ... ... : ... .. 6 ... ... : ... .. . ... ... : ... .. 8 ... ...
ROW DB : ... .. 2 ... ... ... : ... .. 2 ... ... ... : F-3 00 . ... : ... .. 3 ... : ... .. . ... ... : ... .. 5 ... ... : ... .. . ... ... : ... .. . ... ...
ROW DC : ... .. . ... ... ... : ... .. . ... ... ... : C-3 00 . ... : ... .. 2 ... : ... .. . ... ... : ... .. . ... ... : ... .. 7 ... ... : ... .. . ... ...
ROW DD : ... .. D ... ... ... : ... .. D ... ... ... : ... .. . ... : ... .. 0 ... : ... .. . ... ... : A-3 01 8 ... ... : ... .. . ... ... : ... .. . ... ...
ROW DE : ... .. C ... ... ... : ... .. C ... ... ... : ... .. . ... : B-# 00 8 ... : ... .. . ... ... : ... .. 7 ... ... : ... .. . ... ... : ... .. . ... ...
ROW DF : ... .. B ... ... ... : ... .. B ... ... ... : ... .. . ... : ... .. 3 ... : ... .. . ... ... : ... .. 6 ... ... : ... .. 6 ... ... : ... .. . ... ...
ROW E0 : ... .. 2 ... ... ... : ... .. 2 ... ... ... : ... .. . ... : ... .. . ... : ... .. . ... ... : ... .. 5 ... ... : ... .. . ... ... : ... .. . ... ...
ROW E1 : ... .. . ... ... ... : ... .. . ... ... ... : --- .. . ... : ... .. 0 ... : ... .. . ... ... : ... .. . ... ... : ... .. . ... ... : --- .. . P7F ...
ROW E2 : ... .. D ... ... ... : ... .. D ... ... ... : B-4 00 . ... : C-# 00 8 ... : ... .. . ... ... : F#3 01 8 ... ... : ... .. . ... ... : C-3 01 F P81 ...
ROW E3 : ... .. C ... ... ... : ... .. C ... ... ... : C#4 00 . ... : ... .. 7 ... : ... .. . ... ... : ... .. 7 ... ... : ... .. . ... ... : ... .. D ... ...
ROW E4 : ... .. B ... ... ... : ... .. B ... ... ... : F#3 00 . ... : ... .. . ... : ... .. . ... ... : ... .. 6 ... ... : ... .. . ... ... : ... .. 8 ... ...
ROW E5 : ... .. 2 ... ... ... : ... .. 2 ... ... ... : F-3 00 . ... : ... .. 6 ... : ... .. . ... ... : ... .. 5 ... ... : ... .. 5 ... ... : ... .. . ... ...
ROW E6 : ... .. . ... ... ... : ... .. . ... ... ... : --- .. . ... : ... .. 5 ... : ... .. . ... ... : ... .. . ... ... : ... .. . ... ... : --- .. . P7F ...
ROW E7 : ... .. D ... ... ... : ... .. D ... ... ... : C-3 00 . ... : ... .. 4 ... : ... .. . ... ... : D-3 01 8 ... ... : ... .. . ... ... : C-3 01 F P81 ...
ROW E8 : ... .. C ... ... ... : ... .. C ... ... ... : ... .. . ... : ... .. . ... : ... .. . ... ... : ... .. 7 ... ... : ... .. . ... ... : ... .. D ... ...
ROW E9 : ... .. B ... ... ... : ... .. B ... ... ... : ... .. . ... : ... .. . ... : ... .. . ... ... : ... .. 6 ... ... : ... .. . ... ... : ... .. 8 ... ...
ROW EA : ... .. 2 ... ... ... : ... .. 2 ... ... ... : ... .. . ... : ... .. 3 ... : ... .. . ... ... : ... .. 5 ... ... : ... .. . ... ... : ... .. . ... ...
ROW EB : ... .. . ... ... ... : ... .. . ... ... ... : --- .. . ... : ... .. . ... : ... .. . ... ... : ... .. . ... ... : ... .. . ... ... : --- .. . P7F ...
ROW EC : A-4 00 D ... V00 ... : ... .. D ... V00 ... : C-3 00 . ... : 7-# 00 F ... : ... .. . ... ... : A-2 01 8 ... ... : A#4 01 5 P7D ... : C-3 01 F P81 ...
ROW ED : ... .. C ... ... ... : ... .. C ... ... ... : ... .. . ... : ... .. C ... : ... .. . ... ... : ... .. 7 ... ... : ... .. . P7F ... : ... .. D ... ...
ROW EE : ... .. B ... ... ... : ... .. B ... ... ... : ... .. . ... : ... .. A ... : ... .. . ... ... : ... .. 6 ... ... : ... .. . P7E ... : ... .. 8 ... ...
ROW EF : ... .. 2 ... ... ... : ... .. 2 ... ... ... : ... .. . ... : ... .. 8 ... : ... .. . ... ... : ... .. 5 ... ... : A-4 01 5 P82 ... : ... .. . ... ...
ROW F0 : ... .. . ... ... ... : ... .. . ... ... ... : --- .. . ... : ... .. 7 ... : ... .. . ... ... : ... .. . ... ... : ... .. . P7E ... : --- .. . P7F ...
ROW F1 : D-5 00 D ... ... ... : ... .. D ... ... ... : C-3 00 . ... : ... .. 0 ... : ... .. . ... ... : D-3 01 8 ... ... : G#4 01 4 P83 ... : C-3 01 F P81 ...
ROW F2 : ... .. C ... ... ... : ... .. C ... ... ... : ... .. . ... : B-# 00 6 ... : ... .. . ... ... : ... .. 7 ... ... : ... .. . P82 ... : ... .. D ... ...
ROW F3 : ... .. B ... ... ... : ... .. B ... ... ... : ... .. . ... : ... .. 2 ... : ... .. . ... ... : ... .. 6 ... ... : ... .. . P84 ... : ... .. 8 ... ...
ROW F4 : ... .. 2 ... ... ... : ... .. 2 ... ... ... : ... .. . ... : ... .. . ... : ... .. . ... ... : ... .. 5 ... ... : A-4 01 4 P80 ... : ... .. . ... ...
ROW F5 : ... .. . ... ... ... : ... .. . ... ... ... : --- .. . ... : ... .. 0 ... : ... .. . ... ... : ... .. . ... ... : ... .. . P83 ... : --- .. . P7F ...
ROW F6 : ... .. D ... ... ... : ... .. D ... ... ... : C-3 00 . ... : ... .. . ... : ... .. . ... ... : ... .. 8 ... ... : A#4 01 4 P7F ... : C-3 01 F P81 ...
ROW F7 : ... .. C ... ... ... : ... .. C ... ... ... : ... .. . ... : ... .. A ... : ... .. . ... ... : ... .. 7 ... ... : ... .. . ... ... : ... .. D ... ...
ROW F8 : ... .. B ... ... ... : ... .. B ... ... ... : ... .. . ... : ... .. 4 ... : ... .. . ... ... : ... .. 6 ... ... : A-4 01 4 P82 ... : ... .. 8 ... ...
ROW F9 : ... .. 2 ... ... ... : ... .. 2 ... ... ... : ... .. . ... : ... .. . ... : ... .. . ... ... : ... .. 5 ... ... : ... .. . P7F ... : ... .. . ... ...
ROW FA : ... .. . ... ... ... : ... .. . ... ... ... : --- .. . ... : ... .. 0 ... : ... .. . ... ... : ... .. . ... ... : G#4 01 4 P83 ... : --- .. . P7F ...
ROW FB : F#5 00 D ... ... ... : ... .. D ... ... ... : C-3 00 . ... : ... .. . ... : ... .. . ... ... : F#3 01 8 ... ... : ... .. . P82 ... : C-3 01 F P81 ...
ROW FC : ... .. C ... ... ... : ... .. C ... ... ... : ... .. . ... : ... .. 8 ... : ... .. . ... ... : ... .. 7 ... ... : ... .. . P84 ... : ... .. D ... ...
ROW FD : ... .. B ... ... ... : ... .. B ... ... ... : ... .. . ... : ... .. 3 ... : ... .. . ... ... : ... .. 6 ... ... : A-4 01 4 P80 ... : ... .. 8 ... ...
ROW FE : ... .. 2 ... ... ... : ... .. 2 ... ... ... : ... .. . ... : ... .. . ... : ... .. . ... ... : ... .. 5 ... ... : ... .. . P83 ... : ... .. . ... ...
ROW FF : ... .. . ... ... ... : ... .. . ... ... ... : --- .. . ... : ... .. 0 ... : ... .. . ... ... : ... .. . ... ... : A#4 01 4 P7F ... : --- .. . P7F ...

PATTERN 14
ROW 00 : C#4 00 D ... V01 ... : F-4 00 D ... V01 ... : B-3 00 . ... : ... .. . ... : ... .. . ... ... : F-3 01 8 ... ... : G#4 01 6 P80 ... : C-2 01 F P81 ...
ROW 01 : ... .. C ... ... ... : ... .. C ... ... ... : C#3 00 . ... : 2-# 00 F ... : ... .. . ... ... : ... .. 7 ... ... : ... .. 5 ... ... : ... .. D ... ...
ROW 02 : ... .. B ... ... ... : ... .. B ... ... ... : F#2 00 . ... : ... .. 6 ... : ... .. . ... ... : ... .. 6 ... ... : ... .. . ... ... : ... .. 8 ... ...
ROW 03 : ... .. 2 ... ... ... : ... .. 2 ... ... ... : F-2 00 . ... : ... .. . ... : ... .. . ... ... : ... .. 5 ... ... : ... .. . ... ... : ... .. . ... ...
ROW 04 : ... .. . ... ... ... : ... .. . ... ... ... : C-2 00 . ... : ... .. 0 ... : ... .. . ... ... : ... .. . ... ... : ... .. 4 ... ... : ... .. . ... ...
ROW 05 : ... .. D ... ... ... : ... .. D ... ... ... : ... .. . ... : ... .. . ... : ... .. . ... ... : C#3 01 8 ... ... : ... .. . ... ... : ... .. . ... ...
ROW 06 : ... .. C ... ... ... : ... .. C ... ... ... : ... .. . ... : B-# 00 6 ... : ... .. . ... ... : ... .. 7 ... ... : ... .. . ... ... : ... .. . ... ...
ROW 07 : ... .. B ... ... ... : ... .. B ... ... ... : ... .. . ... : ... .. 2 ... : ... .. . ... ... : ... .. 6 ... ... : ... .. . ... ... : ... .. . ... ...
ROW 08 : ... .. 2 ... ... ... : ... .. 2 ... ... ... : ... .. . ... : ... .. . ... : ... .. . ... ... : ... .. 5 ... ... : ... .. . ... ... : ... .. . ... ...
ROW 09 : ... .. . ... ... ... : ... .. . ... ... ... : --- .. . ... : ... .. 0 ... : ... .. . ... ... : ... .. . ... ... : ... .. . ... ... : --- .. . P7D ...
ROW 0A : ... .. D ... ... ... : ... .. D ... ... ... : C-3 00 . ... : ... .. . ... : ... .. . ... ... : G#2 01 8 ... ... : ... .. . ... ... : C-3 01 F P81 ...
ROW 0B : ... .. C ... ... ... : ... .. C ... ... ... : ... .. . ... : ... .. A ... : ... .. . ... ... : ... .. 7 ... ... : ... .. . ... ... : ... .. D ... ...
ROW 0C : ... .. B ... ... ... : ... .. B ... ... ... : ... .. . ... : ... .. 4 ... : ... .. . ... ... : ... .. 6 ... ... : ... .. . ... ... : ... .. 8 ... ...
ROW 0D : ... .. 2 ... ... ... : ... .. 2 ... ... ... : ... .. . ... : ... .. . ... : ... .. . ... ... : ... .. 5 ... ... : ... .. . ... ... : ... .. . ... ...
ROW 0E : ... .. . ... ... ... : ... .. . ... ... ... : --- .. . ... : ... .. 0 ... : ... .. . ... ... : ... .. . ... ... : ... .. . ... ... : --- .. . P7F ...
ROW 0F : ... .. D ... ... ... : ... .. D ... ... ... : C-3 00 . ... : ... .. . ... : ... .. . ... ... : F-2 01 8 ... ... : ... .. . ... ... : C-3 01 F P81 ...
ROW 10 : ... .. C ... ... ... : ... .. C ... ... ... : ... .. . ... : ... .. 8 ... : ... .. . ... ... : ... .. 7 ... ... : ... .. . ... ... : ... .. D ... ...
ROW 11 : ... .. B ... ... ... : ... .. B ... ... ... : ... .. . ... : ... .. 3 ... : ... .. . ... ... : ... .. 6 ... ... : ... .. . ... ... : ... .. 8 ... ...
ROW 12 : ... .. 2 ... ... ... : ... .. 2 ... ... ... : ... .. . ... : ... .. . ... : ... .. . ... ... : ... .. 5 ... ... : ... .. 5 ... ... : ... .. . ... ...
ROW 13 : ... .. . ... ... ... : ... .. . ... ... ... : --- .. . ... : ... .. 0 ... : ... .. . ... ... : ... .. . ... ... : ... .. . ... ... : --- .. . P7F ...
ROW 14 : C-4 00 D ... V02 ... : E-4 00 D ... V02 ... : C-3 00 . ... : 7-# 00 F ... : ... .. . ... ... : G#3 01 8 ... ... : ... .. . P84 ... : C-3 01 F P81 ...
ROW 15 : ... .. C ... ... ... : ... .. C ... ... ... : ... .. . ... : ... .. C ... : ... .. . ... ... : ... .. 7 ... ... : A-4 01 5 P7E ... : ... .. D ... ...
ROW 16 : ... .. B ... ... ... : ... .. B ... ... ... : ... .. . ... : ... .. A ... : ... .. . ... ... : ... .. 6 ... ... : ... .. . P7D ... : ... .. 8 ... ...
ROW 17 : ... .. 2 ... ... ... : ... .. 2 ... ... ... : ... .. . ... : ... .. 8 ... : ... .. . ... ... : ... .. 5 ... ... : G#4 01 5 P82 ... : ... .. . ... ...
ROW 18 : ... .. . ... ... ... : ... .. . ... ... ... : --- .. . ... : ... .. 7 ... : ... .. . ... ... : ... .. . ... ... : ... .. . P7E ... : --- .. . P7F ...
ROW 19 : ... .. D ... ... ... : ... .. D ... ... ... : C-3 00 . ... : ... .. 0 ... : ... .. . ... ... : F-3 01 8 ... ... : G-4 01 5 P83 ... : C-3 01 F P81 ...
ROW 1A : ... .. C ... ... ... : ... .. C ... ... ... : ... .. . ... : B-# 00 6 ... : ... .. . ... ... : ... .. 7 ... ... : ... .. . P82 ... : ... .. D ... ...
ROW 1B : ... .. B ... ... ... : ... .. B ... ... ... : ... .. . ... : ... .. 2 ... : ... .. . ... ... : ... .. 6 ... ... : ... .. . P84 ... : ... .. 8 ... ...
ROW 1C : ... .. 2 ... ... ... : ... .. 2 ... ... ... : ... .. . ... : ... .. . ... : ... .. . ... ... : ... .. 5 ... ... : G#4 01 5 P80 ... : ... .. . ... ...
ROW 1D : ... .. . ... ... ... : ... .. . ... ... ... : --- .. . ... : ... .. 0 ... : ... .. . ... ... : ... .. . ... ... : ... .. . P83 ... : --- .. . P7F ...
ROW 1E : ... .. D ... ... ... : ... .. D ... ... ... : C-3 00 . ... : ... .. . ... : ... .. . ... ... : C#3 01 8 ... ... : A-4 01 6 P7E ... : C-3 01 F P81 ...
ROW 1F : ... .. C ... ... ... : ... .. C ... ... ... : ... .. . ... : ... .. A ... : ... .. . ... ... : ... .. 7 ... ... : ... .. . ... ... : ... .. D ... ...
ROW 20 : ... .. B ... ... ... : ... .. B ... ... ... : ... .. . ... : ... .. 4 ... : ... .. . ... ... : ... .. 6 ... ... : G#4 01 6 P82 ... : ... .. 8 ... ...
ROW 21 : ... .. 2 ... ... ... : ... .. 2 ... ... ... : ... .. . ... : ... .. . ... : ... .. . ... ... : ... .. 5 ... ... : ... .. . P7F ... : ... .. . ... ...
ROW 22 : ... .. . ... ... ... : ... .. . ... ... ... : --- .. . ... : ... .. 0 ... : ... .. . ... ... : ... .. . ... ... : G-4 01 6 P83 ... : --- .. . P7F ...
ROW 23 : ... .. D ... ... ... : ... .. D ... ... ... : C-3 00 . ... : ... .. . ... : ... .. . ... ... : G#2 01 8 ... ... : ... .. . P82 ... : C-3 01 F P81 ...
ROW 24 : ... .. C ... ... ... : ... .. C ... ... ... : ... .. . ... : ... .. 8 ... : ... .. . ... ... : ... .. 7 ... ... : ... .. . P84 ... : ... .. D ... ...
ROW 25 : ... .. B ... ... ... : ... .. B ... ... ... : ... .. . ... : ... .. 3 ... : ... .. . ... ... : ... .. 6 ... ... : G#4 01 6 P80 ... : ... .. 8 ... ...
ROW 26 : ... .. 2 ... ... ... : ... .. 2 ... ... ... : ... .. . ... : ... .. . ... : ... .. . ... ... : ... .. 5 ... ... : ... .. . P83 ... : ... .. . ... ...
ROW 27 : ... .. . ... ... ... : ... .. . ... ... ... : --- .. . ... : ... .. 0 ... : ... .. . ... ... : ... .. . ... ... : A-4 01 6 P7E ... : --- .. . P7F ...
ROW 28 : C#4 00 D ... V00 ... : F-4 00 D ... V00 ... : B-4 00 . ... : 2-# 00 F ... : ... .. . ... ... : C#4 01 8 ... ... : C#5 01 9 P80 ... : C-3 01 F P81 ...
ROW 29 : ... .. C ... ... ... : ... .. C ... ... ... : C#4 00 . ... : ... .. C ... : ... .. . ... ... : ... .. 7 ... ... : ... .. 8 ... ... : ... .. D ... ...
ROW 2A : ... .. B ... ... ... : ... .. B ... ... ... : F#3 00 . ... : ... .. 6 ... : ... .. . ... ... : ... .. 6 ... ... : ... .. . ... ... : ... .. 8 ... ...
ROW 2B : ... .. 2 ... ... ... : ... .. 2 ... ... ... : F-3 00 . ... : ... .. 3 ... : ... .. . ... ... : ... .. 5 ... ... : ... .. . ... ... : ... .. . ... ...
ROW 2C : ... .. . ... ... ... : ... .. . ... ... ... : C-3 00 . ... : ... .. 2 ... : ... .. . ... ... : ... .. . ... ... : ... .. 7 ... ... : ... .. . ... ...
ROW 2D : ... .. D ... ... ... : ... .. D ... ... ... : ... .. . ... : ... .. 0 ... : ... .. . ... ... : G#3 01 8 ... ... : ... .. . ... ... : ... .. . ... ...
ROW 2E : ... .. C ... ... ... : ... .. C ... ... ... : ... .. . ... : B-# 00 8 ... : ... .. . ... ... : ... .. 7 ... ... : ... .. . ... ... : ... .. . ... ...
ROW 2F : ... .. B ... ... ... : ... .. B ... ... ... : ... .. . ... : ... .. 3 ... : ... .. . ... ... : ... .. 6 ... ... : ... .. 6 ... ... : ... .. . ... ...
ROW 30 : ... .. 2 ... ... ... : ... .. 2 ... ... ... : ... .. . ... : ... .. . ... : ... .. . ... ... : ... .. 5 ... ... : ... .. . ... ... : ... .. . ... ...
ROW 31 : ... .. . ... ... ... : ... .. . ... ... ... : --- .. . ... : ... .. 0 ... : ... .. . ... ... : ... .. . ... ... : ... .. . ... ... : --- .. . P7F ...
ROW 32 : ... .. D ... ... ... : ... .. D ... ... ... : B-4 00 . ... : 2-# 00 F ... : ... .. . ... ... : F-3 01 8 ... ... : ... .. . ... ... : C-3 01 F P81 ...
ROW 33 : ... .. C ... ... ... : ... .. C ... ... ... : C#4 00 . ... : ... .. C ... : ... .. . ... ... : ... .. 7 ... ... : ... .. . ... ... : ... .. D ... ...
ROW 34 : ... .. B ... ... ... : ... .. B ... ... ... : F#3 00 . ... : ... .. 6 ... : ... .. . ... ... : ... .. 6 ... ... : ... .. . ... ... : ... .. 8 ... ...
ROW 35 : ... .. 2 ... ... ... : ... .. 2 ... ... ... : F-3 00 . ... : ... .. 3 ... : ... .. . ... ... : ... .. 5 ... ... : ... .. 5 ... ... : ... .. . ... ...
ROW 36 : ... .. . ... ... ... : ... .. . ... ... ... : --- .. . ... : ... .. 2 ... : ... .. . ... ... : ... .. . ... ... : ... .. . ... ... : --- .. . P7F ...
ROW 37 : ... .. D ... ... ... : ... .. D ... ... ... : C-3 00 . ... : ... .. 0 ... : ... .. . ... ... : C#3 01 8 ... ... : ... .. . ... ... : C-3 01 F P81 ...
ROW 38 : ... .. C ... ... ... : ... .. C ... ... ... : ... .. . ... : B-# 00 8 ... : ... .. . ... ... : ... .. 7 ... ... : ... .. . ... ... : ... .. D ... ...
ROW 39 : ... .. B ... ... ... : ... .. B ... ... ... : ... .. . ... : ... .. 3 ... : ... .. . ... ... : ... .. 6 ... ... : ... .. . ... ... : ... .. 8 ... ...
ROW 3A : ... .. 2 ... ... ... : ... .. 2 ... ... ... : ... .. . ... : ... .. . ... : ... .. . ... ... : ... .. 5 ... ... : ... .. . ... ... : ... .. . ... ...
ROW 3B : ... .. . ... ... ... : ... .. . ... ... ... : --- .. . ... : ... .. 0 ... : ... .. . ... ... : ... .. . ... ... : ... .. . ... ... : --- .. . P7F ...
ROW 3C : G#4 00 D ... V01 ... : ... .. D ... V01 ... : C-3 00 . ... : 7-# 00 F ... : ... .. . ... ... : G#3 01 8 ... ... : D-5 01 5 P7E ... : C-3 01 F P81 ...
ROW 3D : ... .. C ... ... ... : ... .. C ... ... ... : ... .. . ... : ... .. C ... : ... .. . ... ... : ... .. 7 ... ... : ... .. . P80 ... : ... .. D ... ...
ROW 3E : ... .. B ... ... ... : ... .. B ... ... ... : ... .. . ... : ... .. A ... : ... .. . ... ... : ... .. 6 ... ... : ... .. . P7F ... : ... .. 8 ... ...
ROW 3F : ... .. 2 ... ... ... : ... .. 2 ... ... ... : ... .. . ... : ... .. 8 ... : ... .. . ... ... : ... .. 5 ... ... : C#5 01 5 P82 ... : ... .. . ... ...
ROW 40 : ... .. . ... ... ... : ... .. . ... ... ... : --- .. . ... : ... .. 7 ... : ... .. . ... ... : ... .. . ... ... : ... .. . P7E ... : --- .. . P7F ...
ROW 41 : C#5 00 D ... ... ... : ... .. D ... ... ... : C-3 00 . ... : ... .. 0 ... : ... .. . ... ... : C#4 01 8 ... ... : C-5 01 4 P81 ... : C-3 01 F P81 ...
ROW 42 : ... .. C ... ... ... : ... .. C ... ... ... : ... .. . ... : B-# 00 6 ... : ... .. . ... ... : ... .. 7 ... ... : ... .. . P80 ... : ... .. D ... ...
ROW 43 : ... .. B ... ... ... : ... .. B ... ... ... : ... .. . ... : ... .. 2 ... : ... .. . ... ... : ... .. 6 ... ... : ... .. . P82 ... : ... .. 8 ... ...
ROW 44 : ... .. 2 ... ... ... : ... .. 2 ... ... ... : ... .. . ... : ... .. . ... : ... .. . ... ... : ... .. 5 ... ... : C#5 01 4 P80 ... : ... .. . ... ...
ROW 45 : ... .. . ... ... ... : ... .. . ... ... ... : --- .. . ... : ... .. 0 ... : ... .. . ... ... : ... .. . ... ... : ... .. . P83 ... : --- .. . P7F ...
ROW 46 : ... .. D ... ... ... : ... .. D ... ... ... : C-3 00 . ... : ... .. . ... : ... .. . ... ... : ... .. 8 ... ... : D-5 01 4 P80 ... : C-3 01 F P81 ...
ROW 47 : ... .. C ... ... ... : ... .. C ... ... ... : ... .. . ... : ... .. A ... : ... .. . ... ... : ... .. 7 ... ... : ... .. . ... ... : ... .. D ... ...
ROW 48 : ... .. B ... ... ... : ... .. B ... ... ... : ... .. . ... : ... .. 4 ... : ... .. . ... ... : ... .. 6 ... ... : C#5 01 4 P82 ... : ... .. 8 ... ...
ROW 49 : ... .. 2 ... ... ... : ... .. 2 ... ... ... : ... .. . ... : ... .. . ... : ... .. . ... ... : ... .. 5 ... ... : ... .. . P7F ... : ... .. . ... ...
ROW 4A : ... .. . ... ... ... : ... .. . ... ... ... : --- .. . ... : ... .. 0 ... : ... .. . ... ... : ... .. . ... ... : C-5 01 4 P81 ... : --- .. . P7F ...
ROW 4B : F-5 00 D ... ... ... : ... .. D ... ... ... : C-3 00 . ... : ... .. . ... : ... .. . ... ... : F-4 01 8 ... ... : ... .. . P80 ... : C-3 01 F P81 ...
ROW 4C : ... .. C ... ... ... : ... .. C ... ... ... : ... .. . ... : ... .. 8 ... : ... .. . ... ... : ... .. 7 ... ... : ... .. . P82 ... : ... .. D ... ...
ROW 4D : ... .. B ... ... ... : ... .. B ... ... ... : ... .. . ... : ... .. 3 ... : ... .. . ... ... : ... .. 6 ... ... : C#5 01 4 P80 ... : ... .. 8 ... ...
ROW 4E : ... .. 2 ... ... ... : ... .. 2 ... ... ... : ... .. . ... : ... .. . ... : ... .. . ... ... : ... .. 5 ... ... : ... .. . P83 ... : ... .. . ... ...
ROW 4F : ... .. . ... ... ... : ... .. . ... ... ... : --- .. . ... : ... .. 0 ... : ... .. . ... ... : ... .. . ... ... : D-5 01 4 P80 ... : --- .. . P7F ...
ROW 50 : C-4 00 D ... V02 ... : D#4 00 D ... V02 ... : B-3 00 . ... : 9-# 00 D ... : ... .. . ... ... : D#4 01 8 ... ... : C-5 01 6 ... ... : C-2 01 F P81 ...
ROW 51 : ... .. C ... ... ... : ... .. C ... ... ... : C#3 00 . ... : ... .. . ... : ... .. . ... ... : ... .. 7 ... ... : ... .. 5 ... ... : ... .. D ... ...
ROW 52 : ... .. B ... ... ... : ... .. B ... ... ... : F#2 00 . ... : ... .. . ... : ... .. . ... ... : ... .. 6 ... ... : ... .. . ... ... : ... .. 8 ... ...
ROW 53 : ... .. 2 ... ... ... : ... .. 2 ... ... ... : F-2 00 . ... : ... .. B ... : ... .. . ... ... : ... .. 5 ... ... : ... .. . ... ... : ... .. . ... ...
ROW 54 : ... .. . ... ... ... : ... .. . ... ... ... : C-2 00 . ... : ... .. . ... : ... .. . ... ... : ... .. . ... ... : ... .. 4 ... ... : ... .. . ... ...
ROW 55 : ... .. D ... ... ... : ... .. D ... ... ... : ... .. . ... : ... .. A ... : ... .. . ... ... : C-4 01 8 ... ... : ... .. . ... ... : ... .. . ... ...
ROW 56 : ... .. C ... ... ... : ... .. C ... ... ... : ... .. . ... : ... .. . ... : ... .. . ... ... : ... .. 7 ... ... : ... .. . ... ... : ... .. . ... ...
ROW 57 : ... .. B ... ... ... : ... .. B ... ... ... : ... .. . ... : ... .. . ... : ... .. . ... ... : ... .. 6 ... ... : ... .. . ... ... : ... .. . ... ...
ROW 58 : ... .. 2 ... ... ... : ... .. 2 ... ... ... : ... .. . ... : ... .. 9 ... : ... .. . ... ... : ... .. 5 ... ... : ... .. . ... ... : ... .. . ... ...
ROW 59 : ... .. . ... ... ... : ... .. . ... ... ... : --- .. . ... : ... .. . ... : ... .. . ... ... : ... .. . ... ... : ... .. . ... ... : --- .. . P7D ...
ROW 5A : ... .. D ... ... ... : ... .. D ... ... ... : C-3 00 . ... : ... .. 7 ... : ... .. . ... ... : G-3 01 8 ... ... : ... .. . ... ... : C-3 01 F P81 ...
ROW 5B : ... .. C ... ... ... : ... .. C ... ... ... : ... .. . ... : ... .. . ... : ... .. . ... ... : ... .. 7 ... ... : ... .. . ... ... : ... .. D ... ...
ROW 5C : ... .. B ... ... ... : ... .. B ... ... ... : ... .. . ... : ... .. . ... : ... .. . ... ... : ... .. 6 ... ... : ... .. . ... ... : ... .. 8 ... ...
ROW 5D : ... .. 2 ... ... ... : ... .. 2 ... ... ... : ... .. . ... : ... .. 6 ... : ... .. . ... ... : ... .. 5 ... ... : ... .. . ... ... : ... .. . ... ...
ROW 5E : ... .. . ... ... ... : ... .. . ... ... ... : --- .. . ... : ... .. . ... : ... .. . ... ... : ... .. . ... ... : ... .. . ... ... : --- .. . P7F ...
ROW 5F : ... .. D ... ... ... : ... .. D ... ... ... : C-3 00 . ... : ... .. 5 ... : ... .. . ... ... : D#3 01 8 ... ... : ... .. . ... ... : C-3 01 F P81 ...
ROW 60 : ... .. C ... ... ... : ... .. C ... ... ... : ... .. . ... : ... .. . ... : ... .. . ... ... : ... .. 7 ... ... : ... .. . ... ... : ... .. D ... ...
ROW 61 : ... .. B ... ... ... : ... .. B ... ... ... : ... .. . ... : ... .. . ... : ... .. . ... ... : ... .. 6 ... ... : ... .. . ... ... : ... .. 8 ... ...
ROW 62 : ... .. 2 ... ... ... : ... .. 2 ... ... ... : ... .. . ... : ... .. 4 ... : ... .. . ... ... : ... .. 5 ... ... : ... .. 5 ... ... : ... .. . ... ...
ROW 63 : ... .. . ... ... ... : ... .. . ... ... ... : --- .. . ... : ... .. . ... : ... .. . ... ... : ... .. . ... ... : ... .. . ... ... : --- .. . P7F ...
ROW 64 : B-3 00 D ... V03 ... : D-4 00 D ... V03 ... : C-3 00 . ... : 7-# 00 F ... : ... .. . ... ... : D-4 01 8 ... ... : C#5 01 5 P7E ... : C-3 01 F P81 ...
ROW 65 : ... .. C ... ... ... : ... .. C ... ... ... : ... .. . ... : ... .. C ... : ... .. . ... ... : ... .. 7 ... ... : ... .. . P80 ... : ... .. D ... ...
ROW 66 : ... .. B ... ... ... : ... .. B ... ... ... : ... .. . ... : ... .. A ... : ... .. . ... ... : ... .. 6 ... ... : ... .. . P7F ... : ... .. 8 ... ...
ROW 67 : ... .. 2 ... ... ... : ... .. 2 ... ... ... : ... .. . ... : ... .. 8 ... : ... .. . ... ... : ... .. 5 ... ... : C-5 01 5 P82 ... : ... .. . ... ...
ROW 68 : ... .. . ... ... ... : ... .. . ... ... ... : --- .. . ... : ... .. 7 ... : ... .. . ... ... : ... .. . ... ... : ... .. . P7E ... : --- .. . P7F ...
ROW 69 : ... .. D ... ... ... : ... .. D ... ... ... : C-3 00 . ... : ... .. 0 ... : ... .. . ... ... : B-3 01 8 ... ... : B-4 01 5 P81 ... : C-3 01 F P81 ...
ROW 6A : ... .. C ... ... ... : ... .. C ... ... ... : ... .. . ... : B-# 00 6 ... : ... .. . ... ... : ... .. 7 ... ... : ... .. . P80 ... : ... .. D ... ...
ROW 6B : ... .. B ... ... ... : ... .. B ... ... ... : ... .. . ... : ... .. 2 ... : ... .. . ... ... : ... .. 6 ... ... : ... .. . P82 ... : ... .. 8 ... ...
ROW 6C : ... .. 2 ... ... ... : ... .. 2 ... ... ... : ... .. . ... : ... .. . ... : ... .. . ... ... : ... .. 5 ... ... : C-5 01 5 P80 ... : ... .. . ... ...
ROW 6D : ... .. . ... ... ... : ... .. . ... ... ... : --- .. . ... : ... .. 0 ... : ... .. . ... ... : ... .. . ... ... : ... .. . P83 ... : --- .. . P7F ...
ROW 6E : ... .. D ... ... ... : ... .. D ... ... ... : C-3 00 . ... : 9-# 00 D ... : ... .. . ... ... : F#3 01 8 ... ... : C#5 01 6 P80 ... : C-3 01 F P81 ...
ROW 6F : ... .. C ... ... ... : ... .. C ... ... ... : ... .. . ... : ... .. . ... : ... .. . ... ... : ... .. 7 ... ... : ... .. . ... ... : ... .. D ... ...
ROW 70 : ... .. B ... ... ... : ... .. B ... ... ... : ... .. . ... : ... .. . ... : ... .. . ... ... : ... .. 6 ... ... : C-5 01 6 P82 ... : ... .. 8 ... ...
ROW 71 : ... .. 2 ... ... ... : ... .. 2 ... ... ... : ... .. . ... : ... .. B ... : ... .. . ... ... : ... .. 5 ... ... : ... .. . P7F ... : ... .. . ... ...
ROW 72 : ... .. . ... ... ... : ... .. . ... ... ... : --- .. . ... : ... .. . ... : ... .. . ... ... : ... .. . ... ... : B-4 01 6 P81 ... : --- .. . P7F ...
ROW 73 : ... .. D ... ... ... : ... .. D ... ... ... : C-3 00 . ... : ... .. A ... : ... .. . ... ... : D-3 01 8 ... ... : ... .. . P80 ... : C-3 01 F P81 ...
ROW 74 : ... .. C ... ... ... : ... .. C ... ... ... : ... .. . ... : ... .. . ... : ... .. . ... ... : ... .. 7 ... ... : ... .. . P82 ... : ... .. D ... ...
ROW 75 : ... .. B ... ... ... : ... .. B ... ... ... : ... .. . ... : ... .. . ... : ... .. . ... ... : ... .. 6 ... ... : C-5 01 6 P80 ... : ... .. 8 ... ...
ROW 76 : ... .. 2 ... ... ... : ... .. 2 ... ... ... : ... .. . ... : ... .. 9 ... : ... .. . ... ... : ... .. 5 ... ... : ... .. . P83 ... : ... .. . ... ...
ROW 77 : ... .. . ... ... ... : ... .. . ... ... ... : --- .. . ... : ... .. . ... : ... .. . ... ... : ... .. . ... ... : C#5 01 6 P80 ... : --- .. . P7F ...
ROW 78 : C-4 00 D ... V01 ... : D#4 00 D ... V01 ... : F#4 00 . ... : ... .. 7 ... : ... .. . ... ... : D#4 01 8 ... ... : G-4 01 9 ... ... : G-2 01 F P81 ...
ROW 79 : ... .. C ... ... ... : ... .. C ... ... ... : G#3 00 . ... : ... .. . ... : ... .. . ... ... : ... .. 7 ... ... : ... .. 8 ... ... : ... .. D ... ...
ROW 7A : ... .. B ... ... ... : ... .. B ... ... ... : C#3 00 . ... : ... .. . ... : ... .. . ... ... : ... .. 6 ... ... : ... .. . ... ... : ... .. 8 ... ...
ROW 7B : ... .. 2 ... ... ... : ... .. 2 ... ... ... : C-3 00 . ... : ... .. 6 ... : ... .. . ... ... : ... .. 5 ... ... : ... .. . ... ... : ... .. . ... ...
ROW 7C : ... .. . ... ... ... : ... .. . ... ... ... : G-2 00 . ... : ... .. . ... : ... .. . ... ... : ... .. . ... ... : ... .. 7 ... ... : ... .. . ... ...
ROW 7D : ... .. D ... ... ... : ... .. D ... ... ... : ... .. . ... : ... .. 5 ... : ... .. . ... ... : C-4 01 8 ... ... : ... .. . ... ... : ... .. . ... ...
ROW 7E : ... .. C ... ... ... : ... .. C ... ... ... : ... .. . ... : ... .. . ... : ... .. . ... ... : ... .. 7 ... ... : ... .. . ... ... : ... .. . ... ...
ROW 7F : ... .. B ... ... ... : ... .. B ... ... ... : ... .. . ... : ... .. . ... : ... .. . ... ... : ... .. 6 ... ... : ... .. 6 ... ... : ... .. . ... ...
ROW 80 : ... .. 2 ... ... ... : ... .. 2 ... ... ... : ... .. . ... : ... .. 4 ... : ... .. . ... ... : ... .. 5 ... ... : ... .. . ... ... : ... .. . ... ...
ROW 81 : ... .. . ... ... ... : ... .. . ... ... ... : --- .. . ... : ... .. . ... : ... .. . ... ... : ... .. . ... ... : ... .. . ... ... : --- .. . P7E ...
ROW 82 : ... .. D ... ... ... : ... .. D ... ... ... : F#4 00 . ... : ... .. 0 ... : ... .. . ... ... : G-3 01 8 ... ... : ... .. . ... ... : G-2 01 F P81 ...
ROW 83 : ... .. C ... ... ... : ... .. C ... ... ... : G#3 00 . ... : B-# 00 8 ... : ... .. . ... ... : ... .. 7 ... ... : ... .. . ... ... : ... .. D ... ...
ROW 84 : ... .. B ... ... ... : ... .. B ... ... ... : C#3 00 . ... : ... .. 3 ... : ... .. . ... ... : ... .. 6 ... ... : ... .. . ... ... : ... .. 8 ... ...
ROW 85 : ... .. 2 ... ... ... : ... .. 2 ... ... ... : C-3 00 . ... : ... .. . ... : ... .. . ... ... : ... .. 5 ... ... : ... .. 5 ... ... : ... .. . ... ...
ROW 86 : ... .. . ... ... ... : ... .. . ... ... ... : --- .. . ... : ... .. 0 ... : ... .. . ... ... : ... .. . ... ... : ... .. . ... ... : --- .. . P7E ...
ROW 87 : ... .. D ... ... ... : ... .. D ... ... ... : G-2 00 . ... : ... .. . ... : ... .. . ... ... : D#3 01 8 ... ... : ... .. . ... ... : G-2 01 F P81 ...
ROW 88 : ... .. C ... ... ... : ... .. C ... ... ... : ... .. . ... : ... .. 6 ... : ... .. . ... ... : ... .. 7 ... ... : ... .. . ... ... : ... .. D ... ...
ROW 89 : ... .. B ... ... ... : ... .. B ... ... ... : ... .. . ... : ... .. 2 ... : ... .. . ... ... : ... .. 6 ... ... : ... .. . ... ... : ... .. 8 ... ...
ROW 8A : ... .. 2 ... ... ... : ... .. 2 ... ... ... : ... .. . ... : ... .. . ... : ... .. . ... ... : ... .. 5 ... ... : ... .. . ... ... : ... .. . ... ...
ROW 8B : ... .. . ... ... ... : ... .. . ... ... ... : --- .. . ... : ... .. 0 ... : ... .. . ... ... : ... .. . ... ... : ... .. . ... ... : --- .. . P7E ...
ROW 8C : D#5 00 D ... V00 ... : ... .. D ... V00 ... : G-4 00 . ... : 7-# 00 F ... : ... .. . ... ... : G-5 01 8 ... ... : ... .. . P84 ... : G-4 01 F P81 ...
ROW 8D : ... .. C ... ... ... : ... .. C ... ... ... : ... .. . ... : ... .. C ... : ... .. . ... ... : ... .. 7 ... ... : G#4 01 5 P7E ... : ... .. D ... ...
ROW 8E : ... .. B ... ... ... : ... .. B ... ... ... : ... .. . ... : ... .. A ... : ... .. . ... ... : ... .. 6 ... ... : ... .. . P7D ... : ... .. 8 ... ...
ROW 8F : ... .. 2 ... ... ... : ... .. 2 ... ... ... : ... .. . ... : ... .. 0 ... : ... .. . ... ... : ... .. 5 ... ... : G-4 01 5 P82 ... : ... .. . ... ...
ROW 90 : ... .. . ... ... ... : ... .. . ... ... ... : --- .. . ... : ... .. . ... : ... .. . ... ... : ... .. . ... ... : ... .. . P7E ... : --- .. . ... ...
ROW 91 : C-5 00 D ... ... ... : ... .. D ... ... ... : D#4 00 . ... : 6-# 00 F ... : ... .. . ... ... : G-4 01 8 ... ... : F#4 01 4 P83 ... : D#4 01 F ... ...
ROW 92 : ... .. C ... ... ... : ... .. C ... ... ... : ... .. . ... : ... .. C ... : ... .. . ... ... : ... .. 7 ... ... : ... .. . P82 ... : ... .. D ... ...
ROW 93 : ... .. B ... ... ... : ... .. B ... ... ... : ... .. . ... : ... .. A ... : ... .. . ... ... : ... .. 6 ... ... : ... .. . P84 ... : ... .. 8 ... ...
ROW 94 : ... .. 2 ... ... ... : ... .. 2 ... ... ... : ... .. . ... : ... .. 0 ... : ... .. . ... ... : ... .. 5 ... ... : G-4 01 4 P80 ... : ... .. . ... ...
ROW 95 : ... .. . ... ... ... : ... .. . ... ... ... : --- .. . ... : ... .. . ... : ... .. . ... ... : ... .. . ... ... : ... .. . P83 ... : --- .. . ... ...
ROW 96 : G-4 00 D ... ... ... : ... .. D ... ... ... : B-3 00 . ... : 5-# 00 F ... : ... .. . ... ... : G-3 01 8 ... ... : G#4 01 4 P7E ... : B-3 01 F ... ...
ROW 97 : ... .. C ... ... ... : ... .. C ... ... ... : ... .. . ... : ... .. C ... : ... .. . ... ... : ... .. 7 ... ... : ... .. . ... ... : ... .. D ... ...
ROW 98 : ... .. B ... ... ... : ... .. B ... ... ... : ... .. . ... : ... .. A ... : ... .. . ... ... : ... .. 6 ... ... : G-4 01 4 P82 ... : ... .. 8 ... ...
ROW 99 : ... .. 2 ... ... ... : ... .. 2 ... ... ... : ... .. . ... : ... .. 0 ... : ... .. . ... ... : ... .. 5 ... ... : ... .. . P7F ... : ... .. . ... ...
ROW 9A : ... .. . ... ... ... : ... .. . ... ... ... : --- .. . ... : ... .. . ... : ... .. . ... ... : ... .. . ... ... : F#4 01 4 P83 ... : --- .. . P8F ...
ROW 9B : G-3 00 D ... ... ... : ... .. D ... ... ... : G-3 00 . ... : 4-# 00 F ... : ... .. . ... ... : G-2 01 8 ... ... : ... .. . P82 ... : G-3 01 F P81 ...
ROW 9C : ... .. C ... ... ... : ... .. C ... ... ... : ... .. . ... : ... .. C ... : ... .. . ... ... : ... .. 7 ... ... : ... .. . P84 ... : ... .. D ... ...
ROW 9D : ... .. B ... ... ... : ... .. B ... ... ... : ... .. . ... : ... .. A ... : ... .. . ... ... : ... .. 6 ... ... : G-4 01 4 P80 ... : ... .. 8 ... ...
ROW 9E : ... .. 2 ... ... ... : ... .. 2 ... ... ... : ... .. . ... : ... .. 8 ... : ... .. . ... ... : ... .. 5 ... ... : ... .. . P83 ... : ... .. . ... ...
ROW 9F : ... .. . ... ... ... : ... .. . ... ... ... : --- .. . ... : ... .. 7 ... : ... .. . ... ... : ... .. . ... ... : G#4 01 4 P7E ... : --- .. . P80 ...
ROW A0 : D#4 00 D ... V01 ... : G-4 00 D ... V01 ... : B-4 00 . ... : 9-# 00 D ... : ... .. . ... ... : D#4 01 8 ... ... : C-5 01 6 P80 ... : C-3 01 F P81 ...
ROW A1 : ... .. C ... ... ... : ... .. C ... ... ... : C#4 00 . ... : ... .. . ... : ... .. . ... ... : ... .. 7 ... ... : ... .. 5 ... ... : ... .. D ... ...
ROW A2 : ... .. B ... ... ... : ... .. B ... ... ... : F#3 00 . ... : ... .. . ... : ... .. . ... ... : ... .. 6 ... ... : ... .. . ... ... : ... .. 8 ... ...
ROW A3 : ... .. 2 ... ... ... : ... .. 2 ... ... ... : F-3 00 . ... : ... .. B ... : ... .. . ... ... : ... .. 5 ... ... : ... .. . ... ... : ... .. . ... ...
ROW A4 : ... .. . ... ... ... : ... .. . ... ... ... : C-3 00 . ... : ... .. . ... : ... .. . ... ... : ... .. . ... ... : ... .. 4 ... ... : ... .. . ... ...
ROW A5 : ... .. D ... ... ... : ... .. D ... ... ... : ... .. . ... : ... .. A ... : ... .. . ... ... : C-4 01 8 ... ... : ... .. . ... ... : ... .. . ... ...
ROW A6 : ... .. C ... ... ... : ... .. C ... ... ... : ... .. . ... : ... .. . ... : ... .. . ... ... : ... .. 7 ... ... : ... .. . ... ... : ... .. . ... ...
ROW A7 : ... .. B ... ... ... : ... .. B ... ... ... : ... .. . ... : ... .. . ... : ... .. . ... ... : ... .. 6 ... ... : ... .. . ... ... : ... .. . ... ...
ROW A8 : ... .. 2 ... ... ... : ... .. 2 ... ... ... : ... .. . ... : ... .. 9 ... : ... .. . ... ... : ... .. 5 ... ... : ... .. . ... ... : ... .. . ... ...
ROW A9 : ... .. . ... ... ... : ... .. . ... ... ... : --- .. . ... : ... .. . ... : ... .. . ... ... : ... .. . ... ... : ... .. . ... ... : --- .. . P7F ...
ROW AA : ... .. D ... ... ... : ... .. D ... ... ... : C-3 00 . ... : ... .. 7 ... : ... .. . ... ... : G-3 01 8 ... ... : ... .. . ... ... : C-3 01 F P81 ...
ROW AB : ... .. C ... ... ... : ... .. C ... ... ... : ... .. . ... : ... .. . ... : ... .. . ... ... : ... .. 7 ... ... : ... .. . ... ... : ... .. D ... ...
ROW AC : ... .. B ... ... ... : ... .. B ... ... ... : ... .. . ... : ... .. . ... : ... .. . ... ... : ... .. 6 ... ... : ... .. . ... ... : ... .. 8 ... ...
ROW AD : ... .. 2 ... ... ... : ... .. 2 ... ... ... : ... .. . ... : ... .. 6 ... : ... .. . ... ... : ... .. 5 ... ... : ... .. . ... ... : ... .. . ... ...
ROW AE : ... .. . ... ... ... : ... .. . ... ... ... : --- .. . ... : ... .. . ... : ... .. . ... ... : ... .. . ... ... : ... .. . ... ... : --- .. . P7F ...
ROW AF : ... .. D ... ... ... : ... .. D ... ... ... : C-3 00 . ... : ... .. 5 ... : ... .. . ... ... : D#3 01 8 ... ... : ... .. . ... ... : C-3 01 F P81 ...
ROW B0 : ... .. C ... ... ... : ... .. C ... ... ... : ... .. . ... : ... .. . ... : ... .. . ... ... : ... .. 7 ... ... : ... .. . ... ... : ... .. D ... ...
ROW B1 : ... .. B ... ... ... : ... .. B ... ... ... : ... .. . ... : ... .. . ... : ... .. . ... ... : ... .. 6 ... ... : ... .. . ... ... : ... .. 8 ... ...
ROW B2 : ... .. 2 ... ... ... : ... .. 2 ... ... ... : ... .. . ... : ... .. 4 ... : ... .. . ... ... : ... .. 5 ... ... : ... .. 5 ... ... : ... .. . ... ...
ROW B3 : ... .. . ... ... ... : ... .. . ... ... ... : --- .. . ... : ... .. . ... : ... .. . ... ... : ... .. . ... ... : ... .. . ... ... : --- .. . P7F ...
ROW B4 : D-4 00 D ... V02 ... : F#4 00 D ... V02 ... : C-3 00 . ... : 7-# 00 F ... : ... .. . ... ... : D-4 01 8 ... ... : C#5 01 5 P7E ... : C-3 01 F P81 ...
ROW B5 : ... .. C ... ... ... : ... .. C ... ... ... : ... .. . ... : ... .. C ... : ... .. . ... ... : ... .. 7 ... ... : ... .. . P80 ... : ... .. D ... ...
ROW B6 : ... .. B ... ... ... : ... .. B ... ... ... : ... .. . ... : ... .. A ... : ... .. . ... ... : ... .. 6 ... ... : ... .. . P7F ... : ... .. 8 ... ...
ROW B7 : ... .. 2 ... ... ... : ... .. 2 ... ... ... : ... .. . ... : ... .. 8 ... : ... .. . ... ... : ... .. 5 ... ... : C-5 01 5 P82 ... : ... .. . ... ...
ROW B8 : ... .. . ... ... ... : ... .. . ... ... ... : --- .. . ... : ... .. 7 ... : ... .. . ... ... : ... .. . ... ... : ... .. . P7E ... : --- .. . P7F ...
ROW B9 : ... .. D ... ... ... : ... .. D ... ... ... : C-3 00 . ... : ... .. 0 ... : ... .. . ... ... : B-3 01 8 ... ... : B-4 01 5 P81 ... : C-3 01 F P81 ...
ROW BA : ... .. C ... ... ... : ... .. C ... ... ... : ... .. . ... : B-# 00 6 ... : ... .. . ... ... : ... .. 7 ... ... : ... .. . P80 ... : ... .. D ... ...
ROW BB : ... .. B ... ... ... : ... .. B ... ... ... : ... .. . ... : ... .. 2 ... : ... .. . ... ... : ... .. 6 ... ... : ... .. . P82 ... : ... .. 8 ... ...
ROW BC : ... .. 2 ... ... ... : ... .. 2 ... ... ... : ... .. . ... : ... .. . ... : ... .. . ... ... : ... .. 5 ... ... : C-5 01 5 P80 ... : ... .. . ... ...
ROW BD : ... .. . ... ... ... : ... .. . ... ... ... : --- .. . ... : ... .. 0 ... : ... .. . ... ... : ... .. . ... ... : ... .. . P83 ... : --- .. . P7F ...
ROW BE : ... .. D ... ... ... : ... .. D ... ... ... : C-3 00 . ... : ... .. . ... : ... .. . ... ... : F#3 01 8 ... ... : C#5 01 6 P80 ... : C-3 01 F P81 ...
ROW BF : ... .. C ... ... ... : ... .. C ... ... ... : ... .. . ... : ... .. A ... : ... .. . ... ... : ... .. 7 ... ... : ... .. . ... ... : ... .. D ... ...
ROW C0 : ... .. B ... ... ... : ... .. B ... ... ... : ... .. . ... : ... .. 4 ... : ... .. . ... ... : ... .. 6 ... ... : C-5 01 6 P82 ... : ... .. 8 ... ...
ROW C1 : ... .. 2 ... ... ... : ... .. 2 ... ... ... : ... .. . ... : ... .. . ... : ... .. . ... ... : ... .. 5 ... ... : ... .. . P7F ... : ... .. . ... ...
ROW C2 : ... .. . ... ... ... : ... .. . ... ... ... : --- .. . ... : ... .. 0 ... : ... .. . ... ... : ... .. . ... ... : B-4 01 6 P81 ... : --- .. . P7F ...
ROW C3 : ... .. D ... ... ... : ... .. D ... ... ... : C-3 00 . ... : ... .. . ... : ... .. . ... ... : D-3 01 8 ... ... : ... .. . P80 ... : C-3 01 F P81 ...
ROW C4 : ... .. C ... ... ... : ... .. C ... ... ... : ... .. . ... : ... .. 8 ... : ... .. . ... ... : ... .. 7 ... ... : ... .. . P82 ... : ... .. D ... ...
ROW C5 : ... .. B ... ... ... : ... .. B ... ... ... : ... .. . ... : ... .. 3 ... : ... .. . ... ... : ... .. 6 ... ... : C-5 01 6 P80 ... : ... .. 8 ... ...
ROW C6 : ... .. 2 ... ... ... : ... .. 2 ... ... ... : ... .. . ... : ... .. . ... : ... .. . ... ... : ... .. 5 ... ... : ... .. . P83 ... : ... .. . ... ...
ROW C7 : ... .. . ... ... ... : ... .. . ... ... ... : --- .. . ... : ... .. 0 ... : ... .. . ... ... : ... .. . ... ... : C#5 01 6 P80 ... : --- .. . P7F ...
ROW C8 : D#4 00 D ... V00 ... : G-4 00 D ... V00 ... : B-4 00 . ... : 2-# 00 F ... : ... .. . ... ... : D#4 01 8 ... ... : D#5 01 9 ... ... : C-3 01 F P81 ...
ROW C9 : ... .. C ... ... ... : ... .. C ... ... ... : C#4 00 . ... : ... .. C ... : ... .. . ... ... : ... .. 7 ... ... : ... .. 8 ... ... : ... .. D ... ...
ROW CA : ... .. B ... ... ... : ... .. B ... ... ... : F#3 00 . ... : ... .. 6 ... : ... .. . ... ... : ... .. 6 ... ... : ... .. . ... ... : ... .. 8 ... ...
ROW CB : ... .. 2 ... ... ... : ... .. 2 ... ... ... : F-3 00 . ... : ... .. 3 ... : ... .. . ... ... : ... .. 5 ... ... : ... .. . ... ... : ... .. . ... ...
ROW CC : ... .. . ... ... ... : ... .. . ... ... ... : C-3 00 . ... : ... .. 2 ... : ... .. . ... ... : ... .. . ... ... : ... .. 7 ... ... : ... .. . ... ...
ROW CD : ... .. D ... ... ... : ... .. D ... ... ... : ... .. . ... : ... .. 0 ... : ... .. . ... ... : C-4 01 8 ... ... : ... .. . ... ... : ... .. . ... ...
ROW CE : ... .. C ... ... ... : ... .. C ... ... ... : ... .. . ... : B-# 00 8 ... : ... .. . ... ... : ... .. 7 ... ... : ... .. . ... ... : ... .. . ... ...
ROW CF : ... .. B ... ... ... : ... .. B ... ... ... : ... .. . ... : ... .. 3 ... : ... .. . ... ... : ... .. 6 ... ... : ... .. 6 ... ... : ... .. . ... ...
ROW D0 : ... .. 2 ... ... ... : ... .. 2 ... ... ... : ... .. . ... : ... .. . ... : ... .. . ... ... : ... .. 5 ... ... : ... .. . ... ... : ... .. . ... ...
ROW D1 : ... .. . ... ... ... : ... .. . ... ... ... : --- .. . ... : ... .. 0 ... : ... .. . ... ... : ... .. . ... ... : ... .. . ... ... : --- .. . P7F ...
ROW D2 : ... .. D ... ... ... : ... .. D ... ... ... : B-4 00 . ... : 2-# 00 F ... : ... .. . ... ... : G-3 01 8 ... ... : ... .. . ... ... : C-3 01 F P81 ...
ROW D3 : ... .. C ... ... ... : ... .. C ... ... ... : C#4 00 . ... : ... .. C ... : ... .. . ... ... : ... .. 7 ... ... : ... .. . ... ... : ... .. D ... ...
ROW D4 : ... .. B ... ... ... : ... .. B ... ... ... : F#3 00 . ... : ... .. 6 ... : ... .. . ... ... : ... .. 6 ... ... : ... .. . ... ... : ... .. 8 ... ...
ROW D5 : ... .. 2 ... ... ... : ... .. 2 ... ... ... : F-3 00 . ... : ... .. 3 ... : ... .. . ... ... : ... .. 5 ... ... : ... .. 5 ... ... : ... .. . ... ...
ROW D6 : ... .. . ... ... ... : ... .. . ... ... ... : --- .. . ... : ... .. 2 ... : ... .. . ... ... : ... .. . ... ... : ... .. . ... ... : --- .. . P7F ...
ROW D7 : ... .. D ... ... ... : ... .. D ... ... ... : C-3 00 . ... : ... .. 0 ... : ... .. . ... ... : D#3 01 8 ... ... : ... .. . ... ... : C-3 01 F P81 ...
ROW D8 : ... .. C ... ... ... : ... .. C ... ... ... : ... .. . ... : B-# 00 8 ... : ... .. . ... ... : ... .. 7 ... ... : ... .. . ... ... : ... .. D ... ...
ROW D9 : ... .. B ... ... ... : ... .. B ... ... ... : ... .. . ... : ... .. 3 ... : ... .. . ... ... : ... .. 6 ... ... : ... .. . ... ... : ... .. 8 ... ...
ROW DA : ... .. 2 ... ... ... : ... .. 2 ... ... ... : ... .. . ... : ... .. . ... : ... .. . ... ... : ... .. 5 ... ... : ... .. . ... ... : ... .. . ... ...
ROW DB : ... .. . ... ... ... : ... .. . ... ... ... : --- .. . ... : ... .. 0 ... : ... .. . ... ... : ... .. . ... ... : ... .. . ... ... : --- .. . P7F ...
ROW DC : C-4 00 D ... V01 ... : D#4 00 D ... V01 ... : C-3 00 . ... : 7-# 00 F ... : ... .. . ... ... : C-4 01 8 ... ... : E-5 01 5 P7F ... : C-3 01 F P81 ...
ROW DD : ... .. C ... ... ... : ... .. C ... ... ... : ... .. . ... : ... .. C ... : ... .. . ... ... : ... .. 7 ... ... : ... .. . P81 ... : ... .. D ... ...
ROW DE : ... .. B ... ... ... : ... .. B ... ... ... : ... .. . ... : ... .. A ... : ... .. . ... ... : ... .. 6 ... ... : ... .. . P80 ... : ... .. 8 ... ...
ROW DF : ... .. 2 ... ... ... : ... .. 2 ... ... ... : ... .. . ... : ... .. 8 ... : ... .. . ... ... : ... .. 5 ... ... : D#5 01 5 P82 ... : ... .. . ... ...
ROW E0 : ... .. . ... ... ... : ... .. . ... ... ... : --- .. . ... : ... .. 7 ... : ... .. . ... ... : ... .. . ... ... : ... .. . P7E ... : --- .. . P7F ...
ROW E1 : ... .. D ... ... ... : ... .. D ... ... ... : C-3 00 . ... : ... .. 0 ... : ... .. . ... ... : G-3 01 8 ... ... : D-5 01 4 P80 ... : C-3 01 F P81 ...
ROW E2 : ... .. C ... ... ... : ... .. C ... ... ... : ... .. . ... : B-# 00 6 ... : ... .. . ... ... : ... .. 7 ... ... : ... .. . P7F ... : ... .. D ... ...
ROW E3 : ... .. B ... ... ... : ... .. B ... ... ... : ... .. . ... : ... .. 2 ... : ... .. . ... ... : ... .. 6 ... ... : ... .. . P81 ... : ... .. 8 ... ...
ROW E4 : ... .. 2 ... ... ... : ... .. 2 ... ... ... : ... .. . ... : ... .. . ... : ... .. . ... ... : ... .. 5 ... ... : D#5 01 4 P80 ... : ... .. . ... ...
ROW E5 : ... .. . ... ... ... : ... .. . ... ... ... : --- .. . ... : ... .. 0 ... : ... .. . ... ... : ... .. . ... ... : E-5 01 4 P7E ... : --- .. . P7F ...
ROW E6 : ... .. D ... ... ... : ... .. D ... ... ... : C-3 00 . ... : ... .. . ... : ... .. . ... ... : D#3 01 8 ... ... : ... .. . P81 ... : C-3 01 F P81 ...
ROW E7 : ... .. C ... ... ... : ... .. C ... ... ... : ... .. . ... : ... .. A ... : ... .. . ... ... : ... .. 7 ... ... : ... .. . ... ... : ... .. D ... ...
ROW E8 : ... .. B ... ... ... : ... .. B ... ... ... : ... .. . ... : ... .. 4 ... : ... .. . ... ... : ... .. 6 ... ... : D#5 01 4 P82 ... : ... .. 8 ... ...
ROW E9 : ... .. 2 ... ... ... : ... .. 2 ... ... ... : ... .. . ... : ... .. . ... : ... .. . ... ... : ... .. 5 ... ... : ... .. . P7F ... : ... .. . ... ...
ROW EA : ... .. . ... ... ... : ... .. . ... ... ... : --- .. . ... : ... .. 0 ... : ... .. . ... ... : ... .. . ... ... : D-5 01 4 P80 ... : --- .. . P7F ...
ROW EB : ... .. D ... ... ... : ... .. D ... ... ... : C-3 00 . ... : ... .. . ... : ... .. . ... ... : C-3 01 8 ... ... : ... .. . P7F ... : C-3 01 F P81 ...
ROW EC : ... .. C ... ... ... : ... .. C ... ... ... : ... .. . ... : ... .. 8 ... : ... .. . ... ... : ... .. 7 ... ... : ... .. . P81 ... : ... .. D ... ...
ROW ED : ... .. B ... ... ... : ... .. B ... ... ... : ... .. . ... : ... .. 3 ... : ... .. . ... ... : ... .. 6 ... ... : D#5 01 4 P80 ... : ... .. 8 ... ...
ROW EE : ... .. 2 ... ... ... : ... .. 2 ... ... ... : ... .. . ... : ... .. . ... : ... .. . ... ... : ... .. 5 ... ... : E-5 01 4 P7E ... : ... .. . ... ...
ROW EF : ... .. . ... ... ... : ... .. . ... ... ... : --- .. . ... : ... .. 0 ... : ... .. . ... ... : ... .. . ... ... : ... .. . P81 ... : --- .. . P7F ...
ROW F0 : D-4 00 D ... V02 ... : F#4 00 D ... V02 ... : B-3 00 . ... : 2-# 00 F ... : ... .. . ... ... : D-4 01 8 ... ... : D-5 01 6 P80 ... : C-2 01 F P81 ...
ROW F1 : ... .. C ... ... ... : ... .. C ... ... ... : C#3 00 . ... : ... .. C ... : ... .. . ... ... : ... .. 7 ... ... : ... .. 5 ... ... : ... .. D ... ...
ROW F2 : ... .. B ... ... ... : ... .. B ... ... ... : F#2 00 . ... : ... .. 6 ... : ... .. . ... ... : ... .. 6 ... ... : ... .. . ... ... : ... .. 8 ... ...
ROW F3 : ... .. 2 ... ... ... : ... .. 2 ... ... ... : F-2 00 . ... : ... .. 3 ... : ... .. . ... ... : ... .. 5 ... ... : ... .. . ... ... : ... .. . ... ...
ROW F4 : ... .. . ... ... ... : ... .. . ... ... ... : C-2 00 . ... : ... .. 2 ... : ... .. . ... ... : ... .. . ... ... : ... .. 4 ... ... : ... .. . ... ...
ROW F5 : ... .. D ... ... ... : ... .. D ... ... ... : ... .. . ... : ... .. 0 ... : ... .. . ... ... : A-3 01 8 ... ... : ... .. . ... ... : ... .. . ... ...
ROW F6 : ... .. C ... ... ... : ... .. C ... ... ... : ... .. . ... : B-# 00 8 ... : ... .. . ... ... : ... .. 7 ... ... : ... .. . ... ... : ... .. . ... ...
ROW F7 : ... .. B ... ... ... : ... .. B ... ... ... : ... .. . ... : ... .. 3 ... : ... .. . ... ... : ... .. 6 ... ... : ... .. . ... ... : ... .. . ... ...
ROW F8 : ... .. 2 ... ... ... : ... .. 2 ... ... ... : ... .. . ... : ... .. . ... : ... .. . ... ... : ... .. 5 ... ... : ... .. . ... ... : ... .. . ... ...
ROW F9 : ... .. . ... ... ... : ... .. . ... ... ... : --- .. . ... : ... .. 0 ... : ... .. . ... ... : ... .. . ... ... : ... .. . ... ... : --- .. . P7D ...
ROW FA : ... .. D ... ... ... : ... .. D ... ... ... : C-3 00 . ... : 2-# 00 F ... : ... .. . ... ... : F#3 01 8 ... ... : ... .. . ... ... : C-3 01 F P81 ...
ROW FB : ... .. C ... ... ... : ... .. C ... ... ... : ... .. . ... : ... .. C ... : ... .. . ... ... : ... .. 7 ... ... : ... .. . ... ... : ... .. D ... ...
ROW FC : ... .. B ... ... ... : ... .. B ... ... ... : ... .. . ... : ... .. 6 ... : ... .. . ... ... : ... .. 6 ... ... : ... .. . ... ... : ... .. 8 ... ...
ROW FD : ... .. 2 ... ... ... : ... .. 2 ... ... ... : ... .. . ... : ... .. 3 ... : ... .. . ... ... : ... .. 5 ... ... : ... .. . ... ... : ... .. . ... ...
ROW FE : ... .. . ... ... ... : ... .. . ... ... ... : --- .. . ... : ... .. 2 ... : ... .. . ... ... : ... .. . ... ... : ... .. . ... ... : --- .. . P7F ...
ROW FF : ... .. D ... ... ... : ... .. D ... ... ... : C-3 00 . ... : ... .. 0 ... : ... .. . ... ... : D-3 01 8 ... ... : ... .. . ... ... : C-3 01 F P81 ...

PATTERN 15
ROW 00 : ... .. C ... ... ... : ... .. C ... ... ... : ... .. . ... : B-# 00 8 ... : ... .. . ... ... : ... .. 7 ... ... : ... .. . ... ... : ... .. D ... ...
ROW 01 : ... .. B ... ... ... : ... .. B ... ... ... : ... .. . ... : ... .. 3 ... : ... .. . ... ... : ... .. 6 ... ... : ... .. . ... ... : ... .. 8 ... ...
ROW 02 : ... .. 2 ... ... ... : ... .. 2 ... ... ... : ... .. . ... : ... .. . ... : ... .. . ... ... : ... .. 5 ... ... : ... .. 5 ... ... : ... .. . ... ...
ROW 03 : ... .. . ... ... ... : ... .. . ... ... ... : --- .. . ... : ... .. 0 ... : ... .. . ... ... : ... .. . ... ... : ... .. . ... ... : --- .. . P7F ...
ROW 04 : C#4 00 D ... V03 ... : F-4 00 D ... V03 ... : C-3 00 . ... : 7-# 00 F ... : ... .. . ... ... : C#4 01 8 ... ... : D#5 01 5 P7F ... : C-3 01 F P81 ...
ROW 05 : ... .. C ... ... ... : ... .. C ... ... ... : ... .. . ... : ... .. C ... : ... .. . ... ... : ... .. 7 ... ... : ... .. . P81 ... : ... .. D ... ...
ROW 06 : ... .. B ... ... ... : ... .. B ... ... ... : ... .. . ... : ... .. A ... : ... .. . ... ... : ... .. 6 ... ... : ... .. . P80 ... : ... .. 8 ... ...
ROW 07 : ... .. 2 ... ... ... : ... .. 2 ... ... ... : ... .. . ... : ... .. 8 ... : ... .. . ... ... : ... .. 5 ... ... : D-5 01 5 P82 ... : ... .. . ... ...
ROW 08 : ... .. . ... ... ... : ... .. . ... ... ... : --- .. . ... : ... .. 7 ... : ... .. . ... ... : ... .. . ... ... : ... .. . P7E ... : --- .. . P7F ...
ROW 09 : ... .. D ... ... ... : ... .. D ... ... ... : C-3 00 . ... : ... .. 0 ... : ... .. . ... ... : G#3 01 8 ... ... : C#5 01 5 P81 ... : C-3 01 F P81 ...
ROW 0A : ... .. C ... ... ... : ... .. C ... ... ... : ... .. . ... : B-# 00 6 ... : ... .. . ... ... : ... .. 7 ... ... : ... .. . P80 ... : ... .. D ... ...
ROW 0B : ... .. B ... ... ... : ... .. B ... ... ... : ... .. . ... : ... .. 2 ... : ... .. . ... ... : ... .. 6 ... ... : ... .. . P82 ... : ... .. 8 ... ...
ROW 0C : ... .. 2 ... ... ... : ... .. 2 ... ... ... : ... .. . ... : ... .. . ... : ... .. . ... ... : ... .. 5 ... ... : D-5 01 5 P80 ... : ... .. . ... ...
ROW 0D : ... .. . ... ... ... : ... .. . ... ... ... : --- .. . ... : ... .. 0 ... : ... .. . ... ... : ... .. . ... ... : D#5 01 5 P7E ... : --- .. . P7F ...
ROW 0E : ... .. D ... ... ... : ... .. D ... ... ... : C-3 00 . ... : ... .. . ... : ... .. . ... ... : F-3 01 8 ... ... : ... .. 6 P81 ... : C-3 01 F P81 ...
ROW 0F : ... .. C ... ... ... : ... .. C ... ... ... : ... .. . ... : ... .. A ... : ... .. . ... ... : ... .. 7 ... ... : ... .. . ... ... : ... .. D ... ...
ROW 10 : ... .. B ... ... ... : ... .. B ... ... ... : ... .. . ... : ... .. 4 ... : ... .. . ... ... : ... .. 6 ... ... : D-5 01 6 P82 ... : ... .. 8 ... ...
ROW 11 : ... .. 2 ... ... ... : ... .. 2 ... ... ... : ... .. . ... : ... .. . ... : ... .. . ... ... : ... .. 5 ... ... : ... .. . P7F ... : ... .. . ... ...
ROW 12 : ... .. . ... ... ... : ... .. . ... ... ... : --- .. . ... : ... .. 0 ... : ... .. . ... ... : ... .. . ... ... : C#5 01 6 P81 ... : --- .. . P7F ...
ROW 13 : ... .. D ... ... ... : ... .. D ... ... ... : C-3 00 . ... : ... .. . ... : ... .. . ... ... : C#3 01 8 ... ... : ... .. . P80 ... : C-3 01 F P81 ...
ROW 14 : ... .. C ... ... ... : ... .. C ... ... ... : ... .. . ... : ... .. 8 ... : ... .. . ... ... : ... .. 7 ... ... : ... .. . P82 ... : ... .. D ... ...
ROW 15 : ... .. B ... ... ... : ... .. B ... ... ... : ... .. . ... : ... .. 3 ... : ... .. . ... ... : ... .. 6 ... ... : D-5 01 6 P80 ... : ... .. 8 ... ...
ROW 16 : ... .. 2 ... ... ... : ... .. 2 ... ... ... : ... .. . ... : ... .. . ... : ... .. . ... ... : ... .. 5 ... ... : D#5 01 6 P7E ... : ... .. . ... ...
ROW 17 : ... .. . ... ... ... : ... .. . ... ... ... : --- .. . ... : ... .. 0 ... : ... .. . ... ... : ... .. . ... ... : ... .. . P81 ... : --- .. . P7F ...
ROW 18 : D-4 00 D ... V01 ... : F#4 00 D ... V01 ... : B-4 00 . ... : 2-# 00 F ... : ... .. . ... ... : D-4 01 8 ... ... : A-4 01 9 P80 ... : C-3 01 F P81 ...
ROW 19 : ... .. C ... ... ... : ... .. C ... ... ... : C#4 00 . ... : ... .. C ... : ... .. . ... ... : ... .. 7 ... ... : ... .. 8 ... ... : ... .. D ... ...
ROW 1A : ... .. B ... ... ... : ... .. B ... ... ... : F#3 00 . ... : ... .. 6 ... : ... .. . ... ... : ... .. 6 ... ... : ... .. . ... ... : ... .. 8 ... ...
ROW 1B : ... .. 2 ... ... ... : ... .. 2 ... ... ... : F-3 00 . ... : ... .. 3 ... : ... .. . ... ... : ... .. 5 ... ... : ... .. . ... ... : ... .. . ... ...
ROW 1C : ... .. . ... ... ... : ... .. . ... ... ... : C-3 00 . ... : ... .. 2 ... : ... .. . ... ... : ... .. . ... ... : ... .. 7 ... ... : ... .. . ... ...
ROW 1D : ... .. D ... ... ... : ... .. D ... ... ... : ... .. . ... : ... .. 0 ... : ... .. . ... ... : A-3 01 8 ... ... : ... .. . ... ... : ... .. . ... ...
ROW 1E : ... .. C ... ... ... : ... .. C ... ... ... : ... .. . ... : B-# 00 8 ... : ... .. . ... ... : ... .. 7 ... ... : ... .. . ... ... : ... .. . ... ...
ROW 1F : ... .. B ... ... ... : ... .. B ... ... ... : ... .. . ... : ... .. 3 ... : ... .. . ... ... : ... .. 6 ... ... : ... .. 6 ... ... : ... .. . ... ...
ROW 20 : ... .. 2 ... ... ... : ... .. 2 ... ... ... : ... .. . ... : ... .. . ... : ... .. . ... ... : ... .. 5 ... ... : ... .. . ... ... : ... .. . ... ...
ROW 21 : ... .. . ... ... ... : ... .. . ... ... ... : --- .. . ... : ... .. 0 ... : ... .. . ... ... : ... .. . ... ... : ... .. . ... ... : --- .. . P7F ...
ROW 22 : ... .. D ... ... ... : ... .. D ... ... ... : B-4 00 . ... : C-# 00 8 ... : ... .. . ... ... : F#3 01 8 ... ... : ... .. . ... ... : C-3 01 F P81 ...
ROW 23 : ... .. C ... ... ... : ... .. C ... ... ... : C#4 00 . ... : ... .. 7 ... : ... .. . ... ... : ... .. 7 ... ... : ... .. . ... ... : ... .. D ... ...
ROW 24 : ... .. B ... ... ... : ... .. B ... ... ... : F#3 00 . ... : ... .. . ... : ... .. . ... ... : ... .. 6 ... ... : ... .. . ... ... : ... .. 8 ... ...
ROW 25 : ... .. 2 ... ... ... : ... .. 2 ... ... ... : F-3 00 . ... : ... .. 6 ... : ... .. . ... ... : ... .. 5 ... ... : ... .. 5 ... ... : ... .. . ... ...
ROW 26 : ... .. . ... ... ... : ... .. . ... ... ... : --- .. . ... : ... .. 5 ... : ... .. . ... ... : ... .. . ... ... : ... .. . ... ... : --- .. . P7F ...
ROW 27 : ... .. D ... ... ... : ... .. D ... ... ... : C-3 00 . ... : ... .. 4 ... : ... .. . ... ... : D-3 01 8 ... ... : ... .. . ... ... : C-3 01 F P81 ...
ROW 28 : ... .. C ... ... ... : ... .. C ... ... ... : ... .. . ... : ... .. . ... : ... .. . ... ... : ... .. 7 ... ... : ... .. . ... ... : ... .. D ... ...
ROW 29 : ... .. B ... ... ... : ... .. B ... ... ... : ... .. . ... : ... .. . ... : ... .. . ... ... : ... .. 6 ... ... : ... .. . ... ... : ... .. 8 ... ...
ROW 2A : ... .. 2 ... ... ... : ... .. 2 ... ... ... : ... .. . ... : ... .. 3 ... : ... .. . ... ... : ... .. 5 ... ... : ... .. . ... ... : ... .. . ... ...
ROW 2B : ... .. . ... ... ... : ... .. . ... ... ... : --- .. . ... : ... .. . ... : ... .. . ... ... : ... .. . ... ... : ... .. . ... ... : --- .. . P7F ...
ROW 2C : ... .. D ... V00 ... : ... .. D ... V00 ... : C-3 00 . ... : 7-# 00 F ... : ... .. . ... ... : A-2 01 8 ... ... : A#4 01 5 P7D ... : C-3 01 F P81 ...
ROW 2D : ... .. C ... ... ... : ... .. C ... ... ... : ... .. . ... : ... .. C ... : ... .. . ... ... : ... .. 7 ... ... : ... .. . P7F ... : ... .. D ... ...
ROW 2E : ... .. B ... ... ... : ... .. B ... ... ... : ... .. . ... : ... .. A ... : ... .. . ... ... : ... .. 6 ... ... : ... .. . P7E ... : ... .. 8 ... ...
ROW 2F : ... .. 2 ... ... ... : ... .. 2 ... ... ... : ... .. . ... : ... .. 8 ... : ... .. . ... ... : ... .. 5 ... ... : A-4 01 5 P82 ... : ... .. . ... ...
ROW 30 : ... .. . ... ... ... : ... .. . ... ... ... : --- .. . ... : ... .. 7 ... : ... .. . ... ... : ... .. . ... ... : ... .. . P7E ... : --- .. . P7F ...
ROW 31 : ... .. D ... ... ... : ... .. D ... ... ... : C-3 00 . ... : ... .. 0 ... : ... .. . ... ... : D-3 01 8 ... ... : G#4 01 4 P83 ... : C-3 01 F P81 ...
ROW 32 : ... .. C ... ... ... : ... .. C ... ... ... : ... .. . ... : B-# 00 6 ... : ... .. . ... ... : ... .. 7 ... ... : ... .. . P82 ... : ... .. D ... ...
ROW 33 : ... .. B ... ... ... : ... .. B ... ... ... : ... .. . ... : ... .. 2 ... : ... .. . ... ... : ... .. 6 ... ... : ... .. . P84 ... : ... .. 8 ... ...
ROW 34 : ... .. 2 ... ... ... : ... .. 2 ... ... ... : ... .. . ... : ... .. . ... : ... .. . ... ... : ... .. 5 ... ... : A-4 01 4 P80 ... : ... .. . ... ...
ROW 35 : ... .. . ... ... ... : ... .. . ... ... ... : --- .. . ... : ... .. 0 ... : ... .. . ... ... : ... .. . ... ... : ... .. . P83 ... : --- .. . P7F ...
ROW 36 : ... .. D ... ... ... : ... .. D ... ... ... : C-3 00 . ... : ... .. . ... : ... .. . ... ... : ... .. 8 ... ... : A#4 01 4 P7F ... : C-3 01 F P81 ...
ROW 37 : ... .. C ... ... ... : ... .. C ... ... ... : ... .. . ... : ... .. A ... : ... .. . ... ... : ... .. 7 ... ... : ... .. . ... ... : ... .. D ... ...
ROW 38 : ... .. B ... ... ... : ... .. B ... ... ... : ... .. . ... : ... .. 4 ... : ... .. . ... ... : ... .. 6 ... ... : A-4 01 4 P82 ... : ... .. 8 ... ...
ROW 39 : ... .. 2 ... ... ... : ... .. 2 ... ... ... : ... .. . ... : ... .. . ... : ... .. . ... ... : ... .. 5 ... ... : ... .. . P7F ... : ... .. . ... ...
ROW 3A : ... .. . ... ... ... : ... .. . ... ... ... : --- .. . ... : ... .. 0 ... : ... .. . ... ... : ... .. . ... ... : G#4 01 4 P83 ... : --- .. . P7F ...
ROW 3B : ... .. D ... ... ... : ... .. D ... ... ... : C-3 00 . ... : ... .. . ... : ... .. . ... ... : F#3 01 8 ... ... : ... .. . P82 ... : C-3 01 F P81 ...
ROW 3C : ... .. C ... ... ... : ... .. C ... ... ... : ... .. . ... : ... .. 8 ... : ... .. . ... ... : ... .. 7 ... ... : ... .. . P84 ... : ... .. D ... ...
ROW 3D : ... .. B ... ... ... : ... .. B ... ... ... : ... .. . ... : ... .. 3 ... : ... .. . ... ... : ... .. 6 ... ... : A-4 01 4 P80 ... : ... .. 8 ... ...
ROW 3E : ... .. 2 ... ... ... : ... .. 2 ... ... ... : ... .. . ... : ... .. . ... : ... .. . ... ... : ... .. 5 ... ... : ... .. . P83 ... : ... .. . ... ...
ROW 3F : ... .. . ... ... ... : ... .. . ... ... ... : --- .. . ... : ... .. 0 ... : ... .. . ... ... : ... .. . ... ... : A#4 01 4 P7F ... : --- .. . P7F ...
ROW 40 : C#4 00 D ... V01 ... : F-4 00 D ... V01 ... : B-3 00 . ... : ... .. . ... : ... .. . ... ... : F-3 01 8 ... ... : G#4 01 6 P80 ... : C-2 01 F P81 ...
ROW 41 : ... .. C ... ... ... : ... .. C ... ... ... : C#3 00 . ... : 2-# 00 F ... : ... .. . ... ... : ... .. 7 ... ... : ... .. 5 ... ... : ... .. D ... ...
ROW 42 : ... .. B ... ... ... : ... .. B ... ... ... : F#2 00 . ... : ... .. 6 ... : ... .. . ... ... : ... .. 6 ... ... : ... .. . ... ... : ... .. 8 ... ...
ROW 43 : ... .. 2 ... ... ... : ... .. 2 ... ... ... : F-2 00 . ... : ... .. . ... : ... .. . ... ... : ... .. 5 ... ... : ... .. . ... ... : ... .. . ... ...
ROW 44 : ... .. . ... ... ... : ... .. . ... ... ... : C-2 00 . ... : ... .. 0 ... : ... .. . ... ... : ... .. . ... ... : ... .. 4 ... ... : ... .. . ... ...
ROW 45 : ... .. D ... ... ... : ... .. D ... ... ... : ... .. . ... : ... .. . ... : ... .. . ... ... : C#3 01 8 ... ... : ... .. . ... ... : ... .. . ... ...
ROW 46 : ... .. C ... ... ... : ... .. C ... ... ... : ... .. . ... : B-# 00 6 ... : ... .. . ... ... : ... .. 7 ... ... : ... .. . ... ... : ... .. . ... ...
ROW 47 : ... .. B ... ... ... : ... .. B ... ... ... : ... .. . ... : ... .. 2 ... : ... .. . ... ... : ... .. 6 ... ... : ... .. . ... ... : ... .. . ... ...
ROW 48 : ... .. 2 ... ... ... : ... .. 2 ... ... ... : ... .. . ... : ... .. . ... : ... .. . ... ... : ... .. 5 ... ... : ... .. . ... ... : ... .. . ... ...
ROW 49 : ... .. . ... ... ... : ... .. . ... ... ... : --- .. . ... : ... .. 0 ... : ... .. . ... ... : ... .. . ... ... : ... .. . ... ... : --- .. . P7D ...
ROW 4A : ... .. D ... ... ... : ... .. D ... ... ... : C-3 00 . ... : ... .. . ... : ... .. . ... ... : G#2 01 8 ... ... : ... .. . ... ... : C-3 01 F P81 ...
ROW 4B : ... .. C ... ... ... : ... .. C ... ... ... : ... .. . ... : ... .. A ... : ... .. . ... ... : ... .. 7 ... ... : ... .. . ... ... : ... .. D ... ...
ROW 4C : ... .. B ... ... ... : ... .. B ... ... ... : ... .. . ... : ... .. 4 ... : ... .. . ... ... : ... .. 6 ... ... : ... .. . ... ... : ... .. 8 ... ...
ROW 4D : ... .. 2 ... ... ... : ... .. 2 ... ... ... : ... .. . ... : ... .. . ... : ... .. . ... ... : ... .. 5 ... ... : ... .. . ... ... : ... .. . ... ...
ROW 4E : ... .. . ... ... ... : ... .. . ... ... ... : --- .. . ... : ... .. 0 ... : ... .. . ... ... : ... .. . ... ... : ... .. . ... ... : --- .. . P7F ...
ROW 4F : ... .. D ... ... ... : ... .. D ... ... ... : C-3 00 . ... : ... .. . ... : ... .. . ... ... : F-2 01 8 ... ... : ... .. . ... ... : C-3 01 F P81 ...
ROW 50 : ... .. C ... ... ... : ... .. C ... ... ... : ... .. . ... : ... .. 8 ... : ... .. . ... ... : ... .. 7 ... ... : ... .. . ... ... : ... .. D ... ...
ROW 51 : ... .. B ... ... ... : ... .. B ... ... ... : ... .. . ... : ... .. 3 ... : ... .. . ... ... : ... .. 6 ... ... : ... .. . ... ... : ... .. 8 ... ...
ROW 52 : ... .. 2 ... ... ... : ... .. 2 ... ... ... : ... .. . ... : ... .. . ... : ... .. . ... ... : ... .. 5 ... ... : ... .. 5 ... ... : ... .. . ... ...
ROW 53 : ... .. . ... ... ... : ... .. . ... ... ... : --- .. . ... : ... .. 0 ... : ... .. . ... ... : ... .. . ... ... : ... .. . ... ... : --- .. . P7F ...
ROW 54 : ... .. D ... V02 ... : ... .. D ... V02 ... : C-3 00 . ... : 7-# 00 F ... : ... .. . ... ... : G#3 01 8 ... ... : ... .. . P84 ... : C-3 01 F P81 ...
ROW 55 : ... .. C ... ... ... : ... .. C ... ... ... : ... .. . ... : ... .. C ... : ... .. . ... ... : ... .. 7 ... ... : A-4 01 5 P7E ... : ... .. D ... ...
ROW 56 : ... .. B ... ... ... : ... .. B ... ... ... : ... .. . ... : ... .. A ... : ... .. . ... ... : ... .. 6 ... ... : ... .. . P7D ... : ... .. 8 ... ...
ROW 57 : ... .. 2 ... ... ... : ... .. 2 ... ... ... : ... .. . ... : ... .. 8 ... : ... .. . ... ... : ... .. 5 ... ... : G#4 01 5 P82 ... : ... .. . ... ...
ROW 58 : ... .. . ... ... ... : ... .. . ... ... ... : --- .. . ... : ... .. 7 ... : ... .. . ... ... : ... .. . ... ... : ... .. . P7E ... : --- .. . P7F ...
ROW 59 : ... .. D ... ... ... : ... .. D ... ... ... : C-3 00 . ... : ... .. 0 ... : ... .. . ... ... : F-3 01 8 ... ... : G-4 01 5 P83 ... : C-3 01 F P81 ...
ROW 5A : ... .. C ... ... ... : ... .. C ... ... ... : ... .. . ... : B-# 00 6 ... : ... .. . ... ... : ... .. 7 ... ... : ... .. . P82 ... : ... .. D ... ...
ROW 5B : ... .. B ... ... ... : ... .. B ... ... ... : ... .. . ... : ... .. 2 ... : ... .. . ... ... : ... .. 6 ... ... : ... .. . P84 ... : ... .. 8 ... ...
ROW 5C : ... .. 2 ... ... ... : ... .. 2 ... ... ... : ... .. . ... : ... .. . ... : ... .. . ... ... : ... .. 5 ... ... : G#4 01 5 P80 ... : ... .. . ... ...
ROW 5D : ... .. . ... ... ... : ... .. . ... ... ... : --- .. . ... : ... .. 0 ... : ... .. . ... ... : ... .. . ... ... : ... .. . P83 ... : --- .. . P7F ...
ROW 5E : ... .. D ... ... ... : ... .. D ... ... ... : C-3 00 . ... : ... .. . ... : ... .. . ... ... : C#3 01 8 ... ... : A-4 01 6 P7E ... : C-3 01 F P81 ...
ROW 5F : ... .. C ... ... ... : ... .. C ... ... ... : ... .. . ... : ... .. A ... : ... .. . ... ... : ... .. 7 ... ... : ... .. . ... ... : ... .. D ... ...
ROW 60 : ... .. B ... ... ... : ... .. B ... ... ... : ... .. . ... : ... .. 4 ... : ... .. . ... ... : ... .. 6 ... ... : G#4 01 6 P82 ... : ... .. 8 ... ...
ROW 61 : ... .. 2 ... ... ... : ... .. 2 ... ... ... : ... .. . ... : ... .. . ... : ... .. . ... ... : ... .. 5 ... ... : ... .. . P7F ... : ... .. . ... ...
ROW 62 : ... .. . ... ... ... : ... .. . ... ... ... : --- .. . ... : ... .. 0 ... : ... .. . ... ... : ... .. . ... ... : G-4 01 6 P83 ... : --- .. . P7F ...
ROW 63 : ... .. D ... ... ... : ... .. D ... ... ... : C-3 00 . ... : ... .. . ... : ... .. . ... ... : G#2 01 8 ... ... : ... .. . P82 ... : C-3 01 F P81 ...
ROW 64 : ... .. C ... ... ... : ... .. C ... ... ... : ... .. . ... : ... .. 8 ... : ... .. . ... ... : ... .. 7 ... ... : ... .. . P84 ... : ... .. D ... ...
ROW 65 : ... .. B ... ... ... : ... .. B ... ... ... : ... .. . ... : ... .. 3 ... : ... .. . ... ... : ... .. 6 ... ... : G#4 01 6 P80 ... : ... .. 8 ... ...
ROW 66 : ... .. 2 ... ... ... : ... .. 2 ... ... ... : ... .. . ... : ... .. . ... : ... .. . ... ... : ... .. 5 ... ... : ... .. . P83 ... : ... .. . ... ...
ROW 67 : ... .. . ... ... ... : ... .. . ... ... ... : --- .. . ... : ... .. 0 ... : ... .. . ... ... : ... .. . ... ... : A-4 01 6 P7E ... : --- .. . P7F ...
ROW 68 : F-4 00 D ... V00 ... : G#4 00 D ... V00 ... : B-4 00 . ... : 2-# 00 F ... : ... .. . ... ... : C#4 01 8 ... ... : C#5 01 9 P80 ... : C-3 01 F P81 ...
ROW 69 : ... .. C ... ... ... : ... .. C ... ... ... : C#4 00 . ... : ... .. C ... : ... .. . ... ... : ... .. 7 ... ... : ... .. 8 ... ... : ... .. D ... ...
ROW 6A : ... .. B ... ... ... : ... .. B ... ... ... : F#3 00 . ... : ... .. 6 ... : ... .. . ... ... : ... .. 6 ... ... : ... .. . ... ... : ... .. 8 ... ...
ROW 6B : ... .. 2 ... ... ... : ... .. 2 ... ... ... : F-3 00 . ... : ... .. 3 ... : ... .. . ... ... : ... .. 5 ... ... : ... .. . ... ... : ... .. . ... ...
ROW 6C : ... .. . ... ... ... : ... .. . ... ... ... : C-3 00 . ... : ... .. 2 ... : ... .. . ... ... : ... .. . ... ... : ... .. 7 ... ... : ... .. . ... ...
ROW 6D : ... .. D ... ... ... : ... .. D ... ... ... : ... .. . ... : ... .. 0 ... : ... .. . ... ... : G#3 01 8 ... ... : ... .. . ... ... : ... .. . ... ...
ROW 6E : ... .. C ... ... ... : ... .. C ... ... ... : ... .. . ... : B-# 00 8 ... : ... .. . ... ... : ... .. 7 ... ... : ... .. . ... ... : ... .. . ... ...
ROW 6F : ... .. B ... ... ... : ... .. B ... ... ... : ... .. . ... : ... .. 3 ... : ... .. . ... ... : ... .. 6 ... ... : ... .. 6 ... ... : ... .. . ... ...
ROW 70 : ... .. 2 ... ... ... : ... .. 2 ... ... ... : ... .. . ... : ... .. . ... : ... .. . ... ... : ... .. 5 ... ... : ... .. . ... ... : ... .. . ... ...
ROW 71 : ... .. . ... ... ... : ... .. . ... ... ... : --- .. . ... : ... .. 0 ... : ... .. . ... ... : ... .. . ... ... : ... .. . ... ... : --- .. . P7F ...
ROW 72 : ... .. D ... ... ... : ... .. D ... ... ... : B-4 00 . ... : 2-# 00 F ... : ... .. . ... ... : F-3 01 8 ... ... : ... .. . ... ... : C-3 01 F P81 ...
ROW 73 : ... .. C ... ... ... : ... .. C ... ... ... : C#4 00 . ... : ... .. C ... : ... .. . ... ... : ... .. 7 ... ... : ... .. . ... ... : ... .. D ... ...
ROW 74 : ... .. B ... ... ... : ... .. B ... ... ... : F#3 00 . ... : ... .. 6 ... : ... .. . ... ... : ... .. 6 ... ... : ... .. . ... ... : ... .. 8 ... ...
ROW 75 : ... .. 2 ... ... ... : ... .. 2 ... ... ... : F-3 00 . ... : ... .. 3 ... : ... .. . ... ... : ... .. 5 ... ... : ... .. 5 ... ... : ... .. . ... ...
ROW 76 : ... .. . ... ... ... : ... .. . ... ... ... : --- .. . ... : ... .. 2 ... : ... .. . ... ... : ... .. . ... ... : ... .. . ... ... : --- .. . P7F ...
ROW 77 : ... .. D ... ... ... : ... .. D ... ... ... : C-3 00 . ... : ... .. 0 ... : ... .. . ... ... : C#3 01 8 ... ... : ... .. . ... ... : C-3 01 F P81 ...
ROW 78 : ... .. C ... ... ... : ... .. C ... ... ... : ... .. . ... : B-# 00 8 ... : ... .. . ... ... : ... .. 7 ... ... : ... .. . ... ... : ... .. D ... ...
ROW 79 : ... .. B ... ... ... : ... .. B ... ... ... : ... .. . ... : ... .. 3 ... : ... .. . ... ... : ... .. 6 ... ... : ... .. . ... ... : ... .. 8 ... ...
ROW 7A : ... .. 2 ... ... ... : ... .. 2 ... ... ... : ... .. . ... : ... .. . ... : ... .. . ... ... : ... .. 5 ... ... : ... .. . ... ... : ... .. . ... ...
ROW 7B : ... .. . ... ... ... : ... .. . ... ... ... : --- .. . ... : ... .. 0 ... : ... .. . ... ... : ... .. . ... ... : ... .. . ... ... : --- .. . P7F ...
ROW 7C : ... .. D ... V01 ... : ... .. D ... V01 ... : C-3 00 . ... : 7-# 00 F ... : ... .. . ... ... : G#3 01 8 ... ... : D-5 01 5 P7E ... : C-3 01 F P81 ...
ROW 7D : ... .. C ... ... ... : ... .. C ... ... ... : ... .. . ... : ... .. C ... : ... .. . ... ... : ... .. 7 ... ... : ... .. . P80 ... : ... .. D ... ...
ROW 7E : ... .. B ... ... ... : ... .. B ... ... ... : ... .. . ... : ... .. A ... : ... .. . ... ... : ... .. 6 ... ... : ... .. . P7F ... : ... .. 8 ... ...
ROW 7F : ... .. 2 ... ... ... : ... .. 2 ... ... ... : ... .. . ... : ... .. 8 ... : ... .. . ... ... : ... .. 5 ... ... : C#5 01 5 P82 ... : ... .. . ... ...
ROW 80 : ... .. . ... ... ... : ... .. . ... ... ... : --- .. . ... : ... .. 7 ... : ... .. . ... ... : ... .. . ... ... : ... .. . P7E ... : --- .. . P7F ...
ROW 81 : ... .. D ... ... ... : ... .. D ... ... ... : C-3 00 . ... : ... .. 0 ... : ... .. . ... ... : C#4 01 8 ... ... : C-5 01 4 P81 ... : C-3 01 F P81 ...
ROW 82 : ... .. C ... ... ... : ... .. C ... ... ... : ... .. . ... : B-# 00 6 ... : ... .. . ... ... : ... .. 7 ... ... : ... .. . P80 ... : ... .. D ... ...
ROW 83 : ... .. B ... ... ... : ... .. B ... ... ... : ... .. . ... : ... .. 2 ... : ... .. . ... ... : ... .. 6 ... ... : ... .. . P82 ... : ... .. 8 ... ...
ROW 84 : ... .. 2 ... ... ... : ... .. 2 ... ... ... : ... .. . ... : ... .. . ... : ... .. . ... ... : ... .. 5 ... ... : C#5 01 4 P80 ... : ... .. . ... ...
ROW 85 : ... .. . ... ... ... : ... .. . ... ... ... : --- .. . ... : ... .. 0 ... : ... .. . ... ... : ... .. . ... ... : ... .. . P83 ... : --- .. . P7F ...
ROW 86 : ... .. D ... ... ... : ... .. D ... ... ... : C-3 00 . ... : ... .. . ... : ... .. . ... ... : ... .. 8 ... ... : D-5 01 4 P80 ... : C-3 01 F P81 ...
ROW 87 : ... .. C ... ... ... : ... .. C ... ... ... : ... .. . ... : ... .. A ... : ... .. . ... ... : ... .. 7 ... ... : ... .. . ... ... : ... .. D ... ...
ROW 88 : ... .. B ... ... ... : ... .. B ... ... ... : ... .. . ... : ... .. 4 ... : ... .. . ... ... : ... .. 6 ... ... : C#5 01 4 P82 ... : ... .. 8 ... ...
ROW 89 : ... .. 2 ... ... ... : ... .. 2 ... ... ... : ... .. . ... : ... .. . ... : ... .. . ... ... : ... .. 5 ... ... : ... .. . P7F ... : ... .. . ... ...
ROW 8A : ... .. . ... ... ... : ... .. . ... ... ... : --- .. . ... : ... .. 0 ... : ... .. . ... ... : ... .. . ... ... : C-5 01 4 P81 ... : --- .. . P7F ...
ROW 8B : ... .. D ... ... ... : ... .. D ... ... ... : C-3 00 . ... : ... .. . ... : ... .. . ... ... : F-4 01 8 ... ... : ... .. . P80 ... : C-3 01 F P81 ...
ROW 8C : ... .. C ... ... ... : ... .. C ... ... ... : ... .. . ... : ... .. 8 ... : ... .. . ... ... : ... .. 7 ... ... : ... .. . P82 ... : ... .. D ... ...
ROW 8D : ... .. B ... ... ... : ... .. B ... ... ... : ... .. . ... : ... .. 3 ... : ... .. . ... ... : ... .. 6 ... ... : C#5 01 4 P80 ... : ... .. 8 ... ...
ROW 8E : ... .. 2 ... ... ... : ... .. 2 ... ... ... : ... .. . ... : ... .. . ... : ... .. . ... ... : ... .. 5 ... ... : ... .. . P83 ... : ... .. . ... ...
ROW 8F : ... .. . ... ... ... : ... .. . ... ... ... : --- .. . ... : ... .. 0 ... : ... .. . ... ... : ... .. . ... ... : D-5 01 4 P80 ... : --- .. . P7F ...
ROW 90 : G-3 00 D ... V02 ... : G-4 00 D ... V02 ... : B-3 00 . ... : 9-# 00 D ... : ... .. . ... ... : D#4 01 8 ... ... : C-5 01 9 ... ... : C-2 01 F P81 ...
ROW 91 : ... .. C ... ... ... : ... .. C ... ... ... : C#3 00 . ... : ... .. . ... : ... .. . ... ... : ... .. 7 ... ... : ... .. 8 ... ... : ... .. D ... ...
ROW 92 : ... .. B ... ... ... : ... .. B ... ... ... : F#2 00 . ... : ... .. . ... : ... .. . ... ... : ... .. 6 ... ... : ... .. . ... ... : ... .. 8 ... ...
ROW 93 : ... .. 2 ... ... ... : ... .. 2 ... ... ... : F-2 00 . ... : ... .. B ... : ... .. . ... ... : ... .. 5 ... ... : ... .. . ... ... : ... .. . ... ...
ROW 94 : ... .. . ... ... ... : ... .. . ... ... ... : C-2 00 . ... : ... .. . ... : ... .. . ... ... : ... .. . ... ... : ... .. 7 ... ... : ... .. . ... ...
ROW 95 : ... .. D ... ... ... : ... .. D ... ... ... : ... .. . ... : ... .. A ... : ... .. . ... ... : C-4 01 8 ... ... : ... .. . ... ... : ... .. . ... ...
ROW 96 : ... .. C ... ... ... : ... .. C ... ... ... : ... .. . ... : ... .. . ... : ... .. . ... ... : ... .. 7 ... ... : ... .. . ... ... : ... .. . ... ...
ROW 97 : ... .. B ... ... ... : ... .. B ... ... ... : ... .. . ... : ... .. . ... : ... .. . ... ... : ... .. 6 ... ... : ... .. 6 ... ... : ... .. . ... ...
ROW 98 : ... .. 2 ... ... ... : ... .. 2 ... ... ... : ... .. . ... : ... .. 9 ... : ... .. . ... ... : ... .. 5 ... ... : ... .. . ... ... : ... .. . ... ...
ROW 99 : ... .. . ... ... ... : ... .. . ... ... ... : --- .. . ... : ... .. . ... : ... .. . ... ... : ... .. . ... ... : ... .. . ... ... : --- .. . P7D ...
ROW 9A : C-4 00 D ... ... ... : ... .. D ... ... ... : C-3 00 . ... : ... .. 7 ... : ... .. . ... ... : G-3 01 8 ... ... : G-3 01 6 ... ... : C-3 01 F P81 ...
ROW 9B : ... .. C ... ... ... : ... .. C ... ... ... : ... .. . ... : ... .. . ... : ... .. . ... ... : ... .. 7 ... ... : ... .. 5 ... ... : ... .. D ... ...
ROW 9C : ... .. B ... ... ... : ... .. B ... ... ... : ... .. . ... : ... .. . ... : ... .. . ... ... : ... .. 6 ... ... : ... .. . ... ... : ... .. 8 ... ...
ROW 9D : ... .. 2 ... ... ... : ... .. 2 ... ... ... : ... .. . ... : ... .. 6 ... : ... .. . ... ... : ... .. 5 ... ... : ... .. 6 ... ... : ... .. . ... ...
ROW 9E : ... .. . ... ... ... : ... .. . ... ... ... : --- .. . ... : ... .. . ... : ... .. . ... ... : ... .. . ... ... : ... .. 5 ... ... : --- .. . P7F ...
ROW 9F : ... .. D ... ... ... : ... .. D ... ... ... : C-3 00 . ... : ... .. 5 ... : ... .. . ... ... : D#3 01 8 ... ... : ... .. 6 ... ... : C-3 01 F P81 ...
ROW A0 : ... .. C ... ... ... : ... .. C ... ... ... : ... .. . ... : ... .. . ... : ... .. . ... ... : ... .. 7 ... ... : ... .. 5 ... ... : ... .. D ... ...
ROW A1 : ... .. B ... ... ... : ... .. B ... ... ... : ... .. . ... : ... .. . ... : ... .. . ... ... : ... .. 6 ... ... : ... .. . ... ... : ... .. 8 ... ...
ROW A2 : ... .. 2 ... ... ... : ... .. 2 ... ... ... : ... .. . ... : ... .. 4 ... : ... .. . ... ... : ... .. 5 ... ... : ... .. 6 ... ... : ... .. . ... ...
ROW A3 : ... .. . ... ... ... : ... .. . ... ... ... : --- .. . ... : ... .. . ... : ... .. . ... ... : ... .. . ... ... : ... .. . ... ... : --- .. . P7F ...
ROW A4 : D#4 00 D ... V03 ... : C-5 00 D ... V03 ... : D#3 00 . ... : 7-# 00 F ... : ... .. . ... ... : D-4 01 8 ... ... : B-3 01 6 ... ... : D#3 01 F P81 ...
ROW A5 : ... .. C ... ... ... : ... .. C ... ... ... : ... .. . ... : ... .. C ... : ... .. . ... ... : ... .. 7 ... ... : ... .. 5 ... ... : ... .. D ... ...
ROW A6 : ... .. B ... ... ... : ... .. B ... ... ... : ... .. . ... : ... .. A ... : ... .. . ... ... : ... .. 6 ... ... : ... .. . ... ... : ... .. 8 ... ...
ROW A7 : ... .. 2 ... ... ... : ... .. 2 ... ... ... : ... .. . ... : ... .. 8 ... : ... .. . ... ... : ... .. 5 ... ... : ... .. 6 ... ... : ... .. . ... ...
ROW A8 : ... .. . ... ... ... : ... .. . ... ... ... : --- .. . ... : ... .. 7 ... : ... .. . ... ... : ... .. . ... ... : ... .. . ... ... : --- .. . P80 ...
ROW A9 : ... .. D ... ... ... : ... .. D ... ... ... : D#3 00 . ... : ... .. 0 ... : ... .. . ... ... : B-3 01 8 ... ... : ... .. . ... ... : D#3 01 F P81 ...
ROW AA : ... .. C ... ... ... : ... .. C ... ... ... : ... .. . ... : B-# 00 6 ... : ... .. . ... ... : ... .. 7 ... ... : ... .. 5 ... ... : ... .. D ... ...
ROW AB : ... .. B ... ... ... : ... .. B ... ... ... : ... .. . ... : ... .. 2 ... : ... .. . ... ... : ... .. 6 ... ... : ... .. . ... ... : ... .. 8 ... ...
ROW AC : ... .. 2 ... ... ... : ... .. 2 ... ... ... : ... .. . ... : ... .. . ... : ... .. . ... ... : ... .. 5 ... ... : ... .. 7 ... ... : ... .. . ... ...
ROW AD : ... .. . ... ... ... : ... .. . ... ... ... : --- .. . ... : ... .. 0 ... : ... .. . ... ... : ... .. . ... ... : ... .. 6 ... ... : --- .. . P80 ...
ROW AE : G-3 00 D ... ... ... : ... .. D ... ... ... : D#3 00 . ... : 9-# 00 D ... : ... .. . ... ... : F#3 01 8 ... ... : G-3 01 6 ... ... : D#3 01 F P81 ...
ROW AF : ... .. C ... ... ... : ... .. C ... ... ... : ... .. . ... : ... .. . ... : ... .. . ... ... : ... .. 7 ... ... : ... .. 5 ... ... : ... .. D ... ...
ROW B0 : ... .. B ... ... ... : ... .. B ... ... ... : ... .. . ... : ... .. . ... : ... .. . ... ... : ... .. 6 ... ... : ... .. . ... ... : ... .. 8 ... ...
ROW B1 : ... .. 2 ... ... ... : ... .. 2 ... ... ... : ... .. . ... : ... .. B ... : ... .. . ... ... : ... .. 5 ... ... : ... .. 8 ... ... : ... .. . ... ...
ROW B2 : ... .. . ... ... ... : ... .. . ... ... ... : --- .. . ... : ... .. . ... : ... .. . ... ... : ... .. . ... ... : ... .. 7 ... ... : --- .. . P80 ...
ROW B3 : ... .. D ... ... ... : ... .. D ... ... ... : D#3 00 . ... : ... .. A ... : ... .. . ... ... : D-3 01 8 ... ... : ... .. 6 ... ... : D#3 01 F P81 ...
ROW B4 : ... .. C ... ... ... : ... .. C ... ... ... : ... .. . ... : ... .. . ... : ... .. . ... ... : ... .. 7 ... ... : ... .. 5 ... ... : ... .. D ... ...
ROW B5 : ... .. B ... ... ... : ... .. B ... ... ... : ... .. . ... : ... .. . ... : ... .. . ... ... : ... .. 6 ... ... : ... .. . ... ... : ... .. 8 ... ...
ROW B6 : ... .. 2 ... ... ... : ... .. 2 ... ... ... : ... .. . ... : ... .. 9 ... : ... .. . ... ... : ... .. 5 ... ... : ... .. 8 ... ... : ... .. . ... ...
ROW B7 : ... .. . ... ... ... : ... .. . ... ... ... : --- .. . ... : ... .. . ... : ... .. . ... ... : ... .. . ... ... : ... .. 7 ... ... : --- .. . P80 ...
ROW B8 : D#4 00 D ... V01 ... : G-4 00 D ... V01 ... : G#4 00 . ... : ... .. 7 ... : ... .. . ... ... : D#4 01 8 ... ... : D#4 01 6 ... ... : A-2 01 F P81 ...
ROW B9 : ... .. C ... ... ... : ... .. C ... ... ... : A#3 00 . ... : ... .. . ... : ... .. . ... ... : ... .. 7 ... ... : ... .. 5 ... ... : ... .. D ... ...
ROW BA : ... .. B ... ... ... : ... .. B ... ... ... : D#3 00 . ... : ... .. . ... : ... .. . ... ... : ... .. 6 ... ... : ... .. . ... ... : ... .. 8 ... ...
ROW BB : ... .. 2 ... ... ... : ... .. 2 ... ... ... : D-3 00 . ... : ... .. 6 ... : ... .. . ... ... : ... .. 5 ... ... : ... .. 8 ... ... : ... .. . ... ...
ROW BC : ... .. . ... ... ... : ... .. . ... ... ... : A-2 00 . ... : ... .. . ... : ... .. . ... ... : ... .. . ... ... : ... .. 7 ... ... : ... .. . ... ...
ROW BD : ... .. D ... ... ... : F-4 00 D ... ... ... : ... .. . ... : ... .. 5 ... : ... .. . ... ... : C-4 01 8 ... ... : F#4 01 6 ... ... : ... .. . ... ...
ROW BE : ... .. C ... ... ... : ... .. C ... ... ... : ... .. . ... : ... .. . ... : ... .. . ... ... : ... .. 7 ... ... : ... .. 5 ... ... : ... .. . ... ...
ROW BF : ... .. B ... ... ... : ... .. B ... ... ... : ... .. . ... : ... .. . ... : ... .. . ... ... : ... .. 6 ... ... : ... .. . ... ... : ... .. . ... ...
ROW C0 : ... .. 2 ... ... ... : ... .. 2 ... ... ... : ... .. . ... : ... .. 4 ... : ... .. . ... ... : ... .. 5 ... ... : ... .. 8 ... ... : ... .. . ... ...
ROW C1 : ... .. . ... ... ... : ... .. . ... ... ... : --- .. . ... : ... .. . ... : ... .. . ... ... : ... .. . ... ... : ... .. 7 ... ... : --- .. . ... ...
ROW C2 : G-4 00 D ... ... ... : D#4 00 D ... ... ... : A-2 00 . ... : ... .. 0 ... : ... .. . ... ... : G-3 01 8 ... ... : A-4 01 6 ... ... : A-2 01 F ... ...
ROW C3 : ... .. C ... ... ... : ... .. C ... ... ... : ... .. . ... : B-# 00 8 ... : ... .. . ... ... : ... .. 7 ... ... : ... .. 5 ... ... : ... .. D ... ...
ROW C4 : ... .. B ... ... ... : ... .. B ... ... ... : ... .. . ... : ... .. 3 ... : ... .. . ... ... : ... .. 6 ... ... : ... .. . ... ... : ... .. 8 ... ...
ROW C5 : ... .. 2 ... ... ... : ... .. 2 ... ... ... : ... .. . ... : ... .. . ... : ... .. . ... ... : ... .. 5 ... ... : ... .. 7 ... ... : ... .. . ... ...
ROW C6 : ... .. . ... ... ... : ... .. . ... ... ... : --- .. . ... : ... .. 0 ... : ... .. . ... ... : ... .. . ... ... : ... .. 6 ... ... : --- .. . ... ...
ROW C7 : ... .. D ... ... ... : D-4 00 D ... ... ... : A-2 00 . ... : ... .. . ... : ... .. . ... ... : D#3 01 8 ... ... : C-5 01 6 ... ... : A-2 01 F ... ...
ROW C8 : ... .. C ... ... ... : ... .. C ... ... ... : ... .. . ... : ... .. 6 ... : ... .. . ... ... : ... .. 7 ... ... : ... .. 5 ... ... : ... .. D ... ...
ROW C9 : ... .. B ... ... ... : ... .. B ... ... ... : ... .. . ... : ... .. 2 ... : ... .. . ... ... : ... .. 6 ... ... : ... .. . ... ... : ... .. 8 ... ...
ROW CA : ... .. 2 ... ... ... : ... .. 2 ... ... ... : ... .. . ... : ... .. . ... : ... .. . ... ... : ... .. 5 ... ... : ... .. 6 ... ... : ... .. . ... ...
ROW CB : ... .. . ... ... ... : ... .. . ... ... ... : --- .. . ... : ... .. 0 ... : ... .. . ... ... : ... .. . ... ... : ... .. . ... ... : --- .. . ... ...
ROW CC : A-4 00 D ... V00 ... : C-4 00 D ... V00 ... : F#3 00 . ... : 7-# 00 F ... : ... .. . ... ... : F#5 01 8 ... ... : A-4 01 6 ... ... : F#2 01 F ... ...
ROW CD : ... .. C ... ... ... : ... .. C ... ... ... : ... .. . ... : ... .. C ... : ... .. . ... ... : ... .. 7 ... ... : ... .. 5 ... ... : ... .. D ... ...
ROW CE : ... .. B ... ... ... : ... .. B ... ... ... : ... .. . ... : ... .. A ... : ... .. . ... ... : ... .. 6 ... ... : ... .. . ... ... : ... .. 8 ... ...
ROW CF : ... .. 2 ... ... ... : ... .. 2 ... ... ... : ... .. . ... : ... .. 0 ... : ... .. . ... ... : ... .. 5 ... ... : ... .. 6 ... ... : ... .. . ... ...
ROW D0 : ... .. . ... ... ... : ... .. . ... ... ... : --- .. . ... : ... .. . ... : ... .. . ... ... : ... .. . ... ... : ... .. . ... ... : --- .. . P85 ...
ROW D1 : ... .. D ... ... ... : B-3 00 D ... ... ... : F#3 00 . ... : 6-# 00 F ... : ... .. . ... ... : F#4 01 8 ... ... : C-5 01 6 ... ... : F#2 01 F P81 ...
ROW D2 : ... .. C ... ... ... : ... .. C ... ... ... : ... .. . ... : ... .. C ... : ... .. . ... ... : ... .. 7 ... ... : ... .. 5 ... ... : ... .. D ... ...
ROW D3 : ... .. B ... ... ... : ... .. B ... ... ... : ... .. . ... : ... .. A ... : ... .. . ... ... : ... .. 6 ... ... : ... .. . ... ... : ... .. 8 ... ...
ROW D4 : ... .. 2 ... ... ... : ... .. 2 ... ... ... : ... .. . ... : ... .. 0 ... : ... .. . ... ... : ... .. 5 ... ... : ... .. 6 ... ... : ... .. . ... ...
ROW D5 : ... .. . ... ... ... : ... .. . ... ... ... : --- .. . ... : ... .. . ... : ... .. . ... ... : ... .. . ... ... : ... .. 5 ... ... : --- .. . P85 ...
ROW D6 : C-5 00 D ... ... ... : C-4 00 D ... ... ... : F#3 00 . ... : 5-# 00 F ... : ... .. . ... ... : F#3 01 8 ... ... : D#5 01 6 ... ... : F#1 01 F P81 ...
ROW D7 : ... .. C ... ... ... : ... .. C ... ... ... : ... .. . ... : ... .. C ... : ... .. . ... ... : ... .. 7 ... ... : ... .. 5 ... ... : ... .. D ... ...
ROW D8 : ... .. B ... ... ... : ... .. B ... ... ... : ... .. . ... : ... .. A ... : ... .. . ... ... : ... .. 6 ... ... : ... .. . ... ... : ... .. 8 ... ...
ROW D9 : ... .. 2 ... ... ... : ... .. 2 ... ... ... : ... .. . ... : ... .. 0 ... : ... .. . ... ... : ... .. 5 ... ... : ... .. . ... ... : ... .. . ... ...
ROW DA : ... .. . ... ... ... : ... .. . ... ... ... : --- .. . ... : ... .. . ... : ... .. . ... ... : ... .. . ... ... : ... .. . ... ... : --- .. . P82 ...
ROW DB : ... .. D ... ... ... : D-4 00 D ... ... ... : F#3 00 . ... : 4-# 00 F ... : ... .. . ... ... : F#2 01 8 ... ... : F#5 01 6 ... ... : F#1 01 F P81 ...
ROW DC : ... .. C ... ... ... : ... .. C ... ... ... : ... .. . ... : ... .. C ... : ... .. . ... ... : ... .. 7 ... ... : ... .. 5 ... ... : ... .. D ... ...
ROW DD : ... .. B ... ... ... : ... .. B ... ... ... : ... .. . ... : ... .. A ... : ... .. . ... ... : ... .. 6 ... ... : ... .. . ... ... : ... .. 8 ... ...
ROW DE : ... .. 2 ... ... ... : ... .. 2 ... ... ... : ... .. . ... : ... .. 8 ... : ... .. . ... ... : ... .. 5 ... ... : ... .. . ... ... : ... .. . ... ...
ROW DF : ... .. . ... ... ... : ... .. . ... ... ... : --- .. . ... : ... .. 7 ... : ... .. . ... ... : ... .. . ... ... : ... .. 4 ... ... : --- .. . P82 ...
ROW E0 : A#3 00 D ... V01 ... : ... .. D ... V01 ... : F#5 00 . ... : 9-# 00 D ... : ... .. . ... ... : A#4 01 8 ... ... : G-5 01 7 ... V03 : G-1 01 F P81 ...
ROW E1 : ... .. C ... ... ... : ... .. C ... ... ... : G#4 00 . ... : ... .. . ... : ... .. . ... ... : ... .. 7 ... ... : ... .. 6 ... ... : ... .. D ... ...
ROW E2 : ... .. B ... ... ... : ... .. B ... ... ... : C#4 00 . ... : ... .. . ... : ... .. . ... ... : ... .. 6 ... ... : ... .. 5 ... ... : ... .. 8 ... ...
ROW E3 : ... .. 2 ... ... ... : ... .. 2 ... ... ... : C-4 00 . ... : ... .. B ... : ... .. . ... ... : ... .. 5 ... ... : ... .. . ... ... : ... .. . ... ...
ROW E4 : ... .. . ... ... ... : ... .. . ... ... ... : G-3 00 . ... : ... .. . ... : ... .. . ... ... : ... .. . ... ... : ... .. . ... ... : ... .. . ... ...
ROW E5 : ... .. D ... ... ... : ... .. D ... ... ... : ... .. . ... : ... .. A ... : ... .. . ... ... : G-4 01 8 ... ... : ... .. 4 ... ... : ... .. . ... ...
ROW E6 : ... .. C ... ... ... : ... .. C ... ... ... : ... .. . ... : ... .. . ... : ... .. . ... ... : ... .. 7 ... ... : ... .. . ... ... : ... .. . ... ...
ROW E7 : ... .. B ... ... ... : ... .. B ... ... ... : ... .. . ... : ... .. . ... : ... .. . ... ... : ... .. 6 ... ... : ... .. 3 ... ... : ... .. . ... ...
ROW E8 : ... .. 2 ... ... ... : ... .. 2 ... ... ... : F-3 00 . P83 : ... .. 9 ... : ... .. . ... ... : ... .. 5 ... ... : ... .. 4 ... ... : ... .. . ... ...
ROW E9 : ... .. . ... ... ... : ... .. . ... ... ... : E-3 00 . P76 : ... .. . ... : ... .. . ... ... : ... .. . ... ... : ... .. . ... ... : ... .. . ... ...
ROW EA : ... .. D ... ... ... : ... .. D ... ... ... : D-3 00 . P80 : ... .. 7 ... : ... .. . ... ... : D-4 01 8 ... ... : ... .. . ... ... : ... .. . ... ...
ROW EB : ... .. C ... ... ... : ... .. C ... ... ... : C#3 00 . P77 : ... .. . ... : ... .. . ... ... : ... .. 7 ... ... : ... .. . ... ... : ... .. . ... ...
ROW EC : ... .. B ... ... ... : ... .. B ... ... ... : B-2 00 . P88 : ... .. . ... : ... .. . ... ... : ... .. 6 ... ... : ... .. . ... ... : ... .. . ... ...
ROW ED : ... .. 2 ... ... ... : ... .. 2 ... ... ... : A#2 00 . P83 : ... .. 6 ... : ... .. . ... ... : ... .. 5 ... ... : ... .. . ... ... : ... .. . ... ...
ROW EE : ... .. . ... ... ... : ... .. . ... ... ... : A-2 00 . P7F : ... .. . ... : ... .. . ... ... : ... .. . ... ... : ... .. . ... ... : ... .. . ... ...
ROW EF : ... .. D ... ... ... : ... .. D ... ... ... : G#2 00 . P7E : ... .. 5 ... : ... .. . ... ... : A#3 01 8 ... ... : ... .. . ... ... : ... .. . ... ...
ROW F0 : ... .. C ... ... ... : ... .. C ... ... ... : G-2 00 . ... : ... .. . ... : ... .. . ... ... : ... .. 7 ... ... : ... .. . ... ... : ... .. . ... ...
ROW F1 : ... .. B ... ... ... : ... .. B ... ... ... : F#2 00 . P80 : ... .. . ... : ... .. . ... ... : ... .. 6 ... ... : ... .. . ... ... : ... .. . ... ...
ROW F2 : ... .. 2 ... ... ... : ... .. 2 ... ... ... : F-2 00 . P84 : ... .. 4 ... : ... .. . ... ... : ... .. 5 ... ... : ... .. . ... ... : ... .. . ... ...
ROW F3 : ... .. . ... ... ... : ... .. . ... ... ... : --- .. . ... : ... .. . ... : ... .. . ... ... : ... .. . ... ... : ... .. . ... ... : ... .. . ... ...
ROW F4 : A-3 00 D ... V02 ... : C#4 00 D ... V02 ... : G-2 00 . P80 : 7-# 00 F ... : ... .. . ... ... : A-4 01 8 ... ... : G#5 01 4 ... ... : ... .. . ... ...
ROW F5 : ... .. C ... ... ... : ... .. C ... ... ... : ... .. . ... : ... .. C ... : ... .. . ... ... : ... .. 7 ... ... : A-5 01 4 P7F ... : ... .. . ... ...
ROW F6 : ... .. B ... ... ... : ... .. B ... ... ... : ... .. . ... : ... .. A ... : ... .. . ... ... : ... .. 6 ... ... : G#5 01 4 P81 ... : ... .. . ... ...
ROW F7 : ... .. 2 ... ... ... : ... .. 2 ... ... ... : ... .. . ... : ... .. 8 ... : ... .. . ... ... : ... .. 5 ... ... : G-5 01 4 P82 ... : ... .. . ... ...
ROW F8 : ... .. . ... ... ... : ... .. . ... ... ... : --- .. . ... : ... .. 7 ... : ... .. . ... ... : ... .. . ... ... : ... .. . P7E ... : ... .. . ... ...
ROW F9 : ... .. D ... ... ... : ... .. D ... ... ... : G-2 00 . ... : ... .. 0 ... : ... .. . ... ... : F#4 01 8 ... ... : F#5 01 5 P80 ... : ... .. . ... ...
ROW FA : ... .. C ... ... ... : ... .. C ... ... ... : ... .. . ... : B-# 00 6 ... : ... .. . ... ... : ... .. 7 ... ... : ... .. . P7F ... : ... .. . ... ...
ROW FB : ... .. B ... ... ... : ... .. B ... ... ... : ... .. . ... : ... .. 2 ... : ... .. . ... ... : ... .. 6 ... ... : ... .. . P81 ... : ... .. . ... ...
ROW FC : ... .. 2 ... ... ... : ... .. 2 ... ... ... : ... .. . ... : ... .. . ... : ... .. . ... ... : ... .. 5 ... ... : G-5 01 5 P80 ... : ... .. . ... ...
ROW FD : ... .. . ... ... ... : ... .. . ... ... ... : --- .. . ... : ... .. 0 ... : ... .. . ... ... : ... .. . ... ... : G#5 01 5 P7F ... : ... .. . ... ...
ROW FE : ... .. D ... ... ... : ... .. D ... ... ... : G-2 00 . ... : ... .. . ... : ... .. . ... ... : C#4 01 8 ... ... : A-5 01 5 ... ... : ... .. . ... ...
ROW FF : ... .. C ... ... ... : ... .. C ... ... ... : ... .. . ... : ... .. A ... : ... .. . ... ... : ... .. 7 ... ... : ... .. . ... ... : ... .. . ... ...

PATTERN 16
ROW 00 : ... .. B ... ... ... : ... .. B ... ... ... : ... .. . ... : ... .. 4 ... : ... .. . ... ... : ... .. 6 ... ... : G-5 01 5 P82 ... : ... .. . ... ...
ROW 01 : ... .. 2 ... ... ... : ... .. 2 ... ... ... : ... .. . ... : ... .. . ... : ... .. . ... ... : ... .. 5 ... ... : ... .. . P7F ... : ... .. . ... ...
ROW 02 : ... .. . ... ... ... : ... .. . ... ... ... : --- .. . ... : ... .. 0 ... : ... .. . ... ... : ... .. . ... ... : F#5 01 5 P80 ... : ... .. . ... ...
ROW 03 : ... .. D ... ... ... : ... .. D ... ... ... : G-2 00 . ... : ... .. . ... : ... .. . ... ... : A-3 01 8 ... ... : ... .. . P7F ... : ... .. . ... ...
ROW 04 : ... .. C ... ... ... : ... .. C ... ... ... : ... .. . ... : ... .. 8 ... : ... .. . ... ... : ... .. 7 ... ... : ... .. . P81 ... : ... .. . ... ...
ROW 05 : ... .. B ... ... ... : ... .. B ... ... ... : ... .. . ... : ... .. 3 ... : ... .. . ... ... : ... .. 6 ... ... : G-5 01 5 P80 ... : ... .. . ... ...
ROW 06 : ... .. 2 ... ... ... : ... .. 2 ... ... ... : ... .. . ... : ... .. . ... : ... .. . ... ... : ... .. 5 ... ... : G#5 01 5 P7F ... : ... .. . ... ...
ROW 07 : ... .. . ... ... ... : ... .. . ... ... ... : --- .. . ... : ... .. 0 ... : ... .. . ... ... : ... .. . ... ... : A-5 01 5 ... ... : ... .. . ... ...
ROW 08 : A#3 00 D ... V00 ... : D-4 00 D ... V00 ... : F#4 00 . ... : 2-# 00 F ... : ... .. . ... ... : A#4 01 8 ... ... : A#5 01 A P80 ... : ... .. . ... ...
ROW 09 : ... .. C ... ... ... : ... .. C ... ... ... : G#3 00 . ... : ... .. C ... : ... .. . ... ... : ... .. 7 ... ... : ... .. 9 ... ... : ... .. . ... ...
ROW 0A : ... .. B ... ... ... : ... .. B ... ... ... : C#3 00 . ... : ... .. 6 ... : ... .. . ... ... : ... .. 6 ... ... : ... .. 8 ... ... : ... .. . ... ...
ROW 0B : ... .. 2 ... ... ... : ... .. 2 ... ... ... : C-3 00 . ... : ... .. 3 ... : ... .. . ... ... : ... .. 5 ... ... : ... .. 7 ... ... : ... .. . ... ...
ROW 0C : ... .. . ... ... ... : ... .. . ... ... ... : G-2 00 . ... : ... .. 2 ... : ... .. . ... ... : ... .. . ... ... : ... .. . ... ... : ... .. . ... ...
ROW 0D : ... .. D ... ... ... : ... .. D ... ... ... : ... .. . ... : ... .. 0 ... : ... .. . ... ... : G-4 01 8 ... ... : ... .. 6 ... ... : ... .. . ... ...
ROW 0E : ... .. C ... ... ... : ... .. C ... ... ... : ... .. . ... : B-# 00 8 ... : ... .. . ... ... : ... .. 7 ... ... : ... .. . ... ... : ... .. . ... ...
ROW 0F : ... .. B ... ... ... : ... .. B ... ... ... : ... .. . ... : ... .. 3 ... : ... .. . ... ... : ... .. 6 ... ... : ... .. 5 ... ... : ... .. . ... ...
ROW 10 : ... .. 2 ... ... ... : ... .. 2 ... ... ... : ... .. . ... : ... .. . ... : ... .. . ... ... : ... .. 5 ... ... : ... .. . ... ... : ... .. . ... ...
ROW 11 : ... .. . ... ... ... : ... .. . ... ... ... : --- .. . ... : ... .. 0 ... : ... .. . ... ... : ... .. . ... ... : ... .. . ... ... : ... .. . ... ...
ROW 12 : ... .. D ... ... ... : ... .. D ... ... ... : G#4 00 . ... : 2-# 00 F ... : ... .. . ... ... : D-4 01 8 ... ... : ... .. . ... ... : A-1 01 F ... ...
ROW 13 : ... .. C ... ... ... : ... .. C ... ... ... : A#3 00 . ... : ... .. C ... : ... .. . ... ... : ... .. 7 ... ... : ... .. . ... ... : ... .. D ... ...
ROW 14 : ... .. B ... ... ... : ... .. B ... ... ... : D#3 00 . ... : ... .. 6 ... : ... .. . ... ... : ... .. 6 ... ... : ... .. . ... ... : ... .. 8 ... ...
ROW 15 : ... .. 2 ... ... ... : ... .. 2 ... ... ... : D-3 00 . ... : ... .. 3 ... : ... .. . ... ... : ... .. 5 ... ... : ... .. . ... ... : ... .. . ... ...
ROW 16 : ... .. . ... ... ... : ... .. . ... ... ... : A-2 00 . ... : ... .. 2 ... : ... .. . ... ... : ... .. . ... ... : ... .. . ... ... : ... .. . ... ...
ROW 17 : ... .. D ... ... ... : ... .. D ... ... ... : ... .. . ... : ... .. 0 ... : ... .. . ... ... : A#3 01 8 ... ... : ... .. . ... ... : ... .. . ... ...
ROW 18 : ... .. C ... ... ... : ... .. C ... ... ... : ... .. . ... : B-# 00 8 ... : ... .. . ... ... : ... .. 7 ... ... : ... .. . ... ... : ... .. . ... ...
ROW 19 : ... .. B ... ... ... : ... .. B ... ... ... : ... .. . ... : ... .. 3 ... : ... .. . ... ... : ... .. 6 ... ... : ... .. . ... ... : ... .. . ... ...
ROW 1A : ... .. 2 ... ... ... : ... .. 2 ... ... ... : ... .. . ... : ... .. . ... : ... .. . ... ... : ... .. 5 ... ... : ... .. 4 ... ... : ... .. . ... ...
ROW 1B : ... .. . ... ... ... : ... .. . ... ... ... : --- .. . ... : ... .. 0 ... : ... .. . ... ... : ... .. . ... ... : ... .. . ... ... : ... .. . ... ...
ROW 1C : G-3 00 D ... V01 ... : A#3 00 D ... V01 ... : A-4 00 . ... : 7-# 00 F ... : ... .. . ... ... : G-4 01 8 ... ... : B-5 01 4 P81 ... : A#1 01 F ... ...
ROW 1D : ... .. C ... ... ... : ... .. C ... ... ... : B-3 00 . ... : ... .. C ... : ... .. . ... ... : ... .. 7 ... ... : C-6 01 4 P7F ... : ... .. D ... ...
ROW 1E : ... .. B ... ... ... : ... .. B ... ... ... : E-3 00 . ... : ... .. A ... : ... .. . ... ... : ... .. 6 ... ... : B-5 01 4 P82 ... : ... .. 8 ... ...
ROW 1F : ... .. 2 ... ... ... : ... .. 2 ... ... ... : D#3 00 . ... : ... .. 8 ... : ... .. . ... ... : ... .. 5 ... ... : ... .. . P7F ... : ... .. . ... ...
ROW 20 : ... .. . ... ... ... : ... .. . ... ... ... : A#2 00 . ... : ... .. 7 ... : ... .. . ... ... : ... .. . ... ... : A-5 01 4 P82 ... : ... .. . ... ...
ROW 21 : ... .. D ... ... ... : ... .. D ... ... ... : ... .. . ... : ... .. 0 ... : ... .. . ... ... : D-4 01 8 ... ... : ... .. . P7F ... : ... .. . ... ...
ROW 22 : ... .. C ... ... ... : ... .. C ... ... ... : ... .. . ... : B-# 00 6 ... : ... .. . ... ... : ... .. 7 ... ... : G#5 01 4 P81 ... : ... .. . ... ...
ROW 23 : ... .. B ... ... ... : ... .. B ... ... ... : ... .. . ... : ... .. 2 ... : ... .. . ... ... : ... .. 6 ... ... : A-5 01 4 P80 ... : ... .. . ... ...
ROW 24 : ... .. 2 ... ... ... : ... .. 2 ... ... ... : ... .. . ... : ... .. . ... : ... .. . ... ... : ... .. 5 ... ... : A#5 01 4 ... ... : ... .. . ... ...
ROW 25 : ... .. . ... ... ... : ... .. . ... ... ... : --- .. . ... : ... .. 0 ... : ... .. . ... ... : ... .. . ... ... : B-5 01 4 ... ... : ... .. . ... ...
ROW 26 : ... .. D ... ... ... : ... .. D ... ... ... : F#4 00 . ... : ... .. . ... : ... .. . ... ... : A#3 01 8 ... ... : C-6 01 4 P7F ... : G-1 01 F ... ...
ROW 27 : ... .. C ... ... ... : ... .. C ... ... ... : G#3 00 . ... : ... .. A ... : ... .. . ... ... : ... .. 7 ... ... : ... .. . ... ... : ... .. D ... ...
ROW 28 : ... .. B ... ... ... : ... .. B ... ... ... : C#3 00 . ... : ... .. 4 ... : ... .. . ... ... : ... .. 6 ... ... : B-5 01 4 ... ... : ... .. 8 ... ...
ROW 29 : ... .. 2 ... ... ... : ... .. 2 ... ... ... : C-3 00 . ... : ... .. . ... : ... .. . ... ... : ... .. 5 ... ... : A#5 01 4 ... ... : ... .. . ... ...
ROW 2A : ... .. . ... ... ... : ... .. . ... ... ... : G-2 00 . ... : ... .. 0 ... : ... .. . ... ... : ... .. . ... ... : A-5 01 4 ... ... : ... .. . ... ...
ROW 2B : ... .. D ... ... ... : ... .. D ... ... ... : ... .. . ... : ... .. . ... : ... .. . ... ... : G-3 01 8 ... ... : G#5 01 3 P81 ... : ... .. . ... ...
ROW 2C : ... .. C ... ... ... : ... .. C ... ... ... : ... .. . ... : ... .. 8 ... : ... .. . ... ... : ... .. 7 ... ... : A-5 01 3 P80 ... : ... .. . ... ...
ROW 2D : ... .. B ... ... ... : ... .. B ... ... ... : ... .. . ... : ... .. 3 ... : ... .. . ... ... : ... .. 6 ... ... : A#5 01 3 ... ... : ... .. . ... ...
ROW 2E : ... .. 2 ... ... ... : ... .. 2 ... ... ... : ... .. . ... : ... .. . ... : ... .. . ... ... : ... .. 5 ... ... : B-5 01 3 ... ... : ... .. . ... ...
ROW 2F : ... .. . ... ... ... : ... .. . ... ... ... : --- .. . ... : ... .. 0 ... : ... .. . ... ... : ... .. . ... ... : C-6 01 3 P7F ... : ... .. . ... ...
ROW 30 : A-3 00 D ... V02 ... : C#4 00 D ... V02 ... : G#5 00 . ... : 2-# 00 F ... : ... .. . ... ... : A-4 01 8 ... ... : A-5 01 7 P80 ... : A-1 01 F ... ...
ROW 31 : ... .. C ... ... ... : ... .. C ... ... ... : A#4 00 . ... : ... .. C ... : ... .. . ... ... : ... .. 7 ... ... : ... .. 6 ... ... : ... .. D ... ...
ROW 32 : ... .. B ... ... ... : ... .. B ... ... ... : D#4 00 . ... : ... .. 6 ... : ... .. . ... ... : ... .. 6 ... ... : ... .. 5 ... ... : ... .. 8 ... ...
ROW 33 : ... .. 2 ... ... ... : ... .. 2 ... ... ... : D-4 00 . ... : ... .. 3 ... : ... .. . ... ... : ... .. 5 ... ... : ... .. . ... ... : ... .. . ... ...
ROW 34 : ... .. . ... ... ... : ... .. . ... ... ... : A-3 00 . ... : ... .. 2 ... : ... .. . ... ... : ... .. . ... ... : ... .. . ... ... : ... .. . ... ...
ROW 35 : ... .. D ... ... ... : ... .. D ... ... ... : ... .. . ... : ... .. 0 ... : ... .. . ... ... : E-4 01 8 ... ... : ... .. 4 ... ... : ... .. . ... ...
ROW 36 : ... .. C ... ... ... : ... .. C ... ... ... : ... .. . ... : B-# 00 8 ... : ... .. . ... ... : ... .. 7 ... ... : ... .. . ... ... : ... .. . ... ...
ROW 37 : ... .. B ... ... ... : ... .. B ... ... ... : ... .. . ... : ... .. 3 ... : ... .. . ... ... : ... .. 6 ... ... : ... .. 3 ... ... : ... .. . ... ...
ROW 38 : ... .. 2 ... ... ... : ... .. 2 ... ... ... : ... .. . ... : ... .. . ... : ... .. . ... ... : ... .. 5 ... ... : ... .. 4 ... ... : ... .. . ... ...
ROW 39 : ... .. . ... ... ... : ... .. . ... ... ... : ... .. . ... : ... .. 0 ... : ... .. . ... ... : ... .. . ... ... : ... .. . ... ... : ... .. . ... ...
ROW 3A : ... .. D ... ... ... : ... .. D ... ... ... : G-3 00 . P7F : 2-# 00 F ... : ... .. . ... ... : C#4 01 8 ... ... : ... .. . ... ... : ... .. . ... ...
ROW 3B : ... .. C ... ... ... : ... .. C ... ... ... : F-3 00 . P82 : ... .. C ... : ... .. . ... ... : ... .. 7 ... ... : ... .. . ... ... : ... .. . ... ...
ROW 3C : ... .. B ... ... ... : ... .. B ... ... ... : D#3 00 . P8A : ... .. 6 ... : ... .. . ... ... : ... .. 6 ... ... : ... .. . ... ... : ... .. . ... ...
ROW 3D : ... .. 2 ... ... ... : ... .. 2 ... ... ... : D-3 00 . P7F : ... .. 3 ... : ... .. . ... ... : ... .. 5 ... ... : ... .. . ... ... : ... .. . ... ...
ROW 3E : ... .. . ... ... ... : ... .. . ... ... ... : C#3 00 . P76 : ... .. 2 ... : ... .. . ... ... : ... .. . ... ... : ... .. . ... ... : ... .. . ... ...
ROW 3F : ... .. D ... ... ... : ... .. D ... ... ... : B-2 00 . P87 : ... .. 0 ... : ... .. . ... ... : A-3 01 8 ... ... : ... .. . ... ... : ... .. . ... ...
ROW 40 : ... .. C ... ... ... : ... .. C ... ... ... : A#2 00 . P82 : B-# 00 8 ... : ... .. . ... ... : ... .. 7 ... ... : ... .. . ... ... : ... .. . ... ...
ROW 41 : ... .. B ... ... ... : ... .. B ... ... ... : A-2 00 . P7E : ... .. 3 ... : ... .. . ... ... : ... .. 6 ... ... : ... .. . ... ... : ... .. . ... ...
ROW 42 : ... .. 2 ... ... ... : ... .. 2 ... ... ... : G#2 00 . P7D : ... .. . ... : ... .. . ... ... : ... .. 5 ... ... : ... .. . ... ... : ... .. . ... ...
ROW 43 : ... .. . ... ... ... : ... .. . ... ... ... : --- .. . ... : ... .. 0 ... : ... .. . ... ... : ... .. . ... ... : ... .. . ... ... : ... .. . ... ...
ROW 44 : G#3 00 D ... V03 ... : C-4 00 D ... V03 ... : G-3 00 . P80 : 7-# 00 F ... : ... .. . ... ... : G#4 01 8 ... ... : A#5 01 4 ... ... : ... .. . ... ...
ROW 45 : ... .. C ... ... ... : ... .. C ... ... ... : ... .. . ... : ... .. C ... : ... .. . ... ... : ... .. 7 ... ... : B-5 01 4 P7F ... : ... .. . ... ...
ROW 46 : ... .. B ... ... ... : ... .. B ... ... ... : ... .. . ... : ... .. A ... : ... .. . ... ... : ... .. 6 ... ... : A#5 01 4 P81 ... : ... .. . ... ...
ROW 47 : ... .. 2 ... ... ... : ... .. 2 ... ... ... : ... .. . ... : ... .. 8 ... : ... .. . ... ... : ... .. 5 ... ... : A-5 01 4 P82 ... : ... .. . ... ...
ROW 48 : ... .. . ... ... ... : ... .. . ... ... ... : --- .. . ... : ... .. 7 ... : ... .. . ... ... : ... .. . ... ... : G#5 01 4 P81 ... : ... .. . ... ...
ROW 49 : ... .. D ... ... ... : ... .. D ... ... ... : G-3 00 . ... : ... .. 0 ... : ... .. . ... ... : D#4 01 8 ... ... : G-5 01 5 P82 ... : ... .. . ... ...
ROW 4A : ... .. C ... ... ... : ... .. C ... ... ... : ... .. . ... : B-# 00 6 ... : ... .. . ... ... : ... .. 7 ... ... : ... .. . P81 ... : ... .. . ... ...
ROW 4B : ... .. B ... ... ... : ... .. B ... ... ... : ... .. . ... : ... .. 2 ... : ... .. . ... ... : ... .. 6 ... ... : G#5 01 5 P7F ... : ... .. . ... ...
ROW 4C : ... .. 2 ... ... ... : ... .. 2 ... ... ... : ... .. . ... : ... .. . ... : ... .. . ... ... : ... .. 5 ... ... : A-5 01 5 P80 ... : ... .. . ... ...
ROW 4D : ... .. . ... ... ... : ... .. . ... ... ... : --- .. . ... : ... .. 0 ... : ... .. . ... ... : ... .. . ... ... : A#5 01 5 P7F ... : ... .. . ... ...
ROW 4E : ... .. D ... ... ... : ... .. D ... ... ... : G-3 00 . ... : ... .. . ... : ... .. . ... ... : C-4 01 8 ... ... : B-5 01 5 ... ... : ... .. . ... ...
ROW 4F : ... .. C ... ... ... : ... .. C ... ... ... : ... .. . ... : ... .. A ... : ... .. . ... ... : ... .. 7 ... ... : ... .. . ... ... : ... .. . ... ...
ROW 50 : ... .. B ... ... ... : ... .. B ... ... ... : ... .. . ... : ... .. 4 ... : ... .. . ... ... : ... .. 6 ... ... : A-5 01 5 P82 ... : ... .. . ... ...
ROW 51 : ... .. 2 ... ... ... : ... .. 2 ... ... ... : ... .. . ... : ... .. . ... : ... .. . ... ... : ... .. 5 ... ... : ... .. . P7F ... : ... .. . ... ...
ROW 52 : ... .. . ... ... ... : ... .. . ... ... ... : --- .. . ... : ... .. 0 ... : ... .. . ... ... : ... .. . ... ... : G-5 01 5 P82 ... : ... .. . ... ...
ROW 53 : ... .. D ... ... ... : ... .. D ... ... ... : G-3 00 . ... : ... .. . ... : ... .. . ... ... : G#3 01 8 ... ... : ... .. . P81 ... : ... .. . ... ...
ROW 54 : ... .. C ... ... ... : ... .. C ... ... ... : ... .. . ... : ... .. 8 ... : ... .. . ... ... : ... .. 7 ... ... : G#5 01 5 P7F ... : ... .. . ... ...
ROW 55 : ... .. B ... ... ... : ... .. B ... ... ... : ... .. . ... : ... .. 3 ... : ... .. . ... ... : ... .. 6 ... ... : A-5 01 5 P80 ... : ... .. . ... ...
ROW 56 : ... .. 2 ... ... ... : ... .. 2 ... ... ... : ... .. . ... : ... .. . ... : ... .. . ... ... : ... .. 5 ... ... : A#5 01 5 P7F ... : ... .. . ... ...
ROW 57 : ... .. . ... ... ... : ... .. . ... ... ... : --- .. . ... : ... .. 0 ... : ... .. . ... ... : ... .. . ... ... : B-5 01 5 ... ... : ... .. . ... ...
ROW 58 : A-3 00 D ... V01 ... : C#4 00 D ... V01 ... : G#4 00 . ... : 2-# 00 F ... : ... .. . ... ... : A-4 01 8 ... ... : E-5 01 A P80 ... : A-0 01 F ... ...
ROW 59 : ... .. C ... ... ... : ... .. C ... ... ... : A#3 00 . ... : ... .. C ... : ... .. . ... ... : ... .. 7 ... ... : ... .. 9 ... ... : ... .. D ... ...
ROW 5A : ... .. B ... ... ... : ... .. B ... ... ... : D#3 00 . ... : ... .. 6 ... : ... .. . ... ... : ... .. 6 ... ... : ... .. 8 ... ... : ... .. 8 ... ...
ROW 5B : ... .. 2 ... ... ... : ... .. 2 ... ... ... : D-3 00 . ... : ... .. 3 ... : ... .. . ... ... : ... .. 5 ... ... : ... .. 7 ... ... : ... .. . ... ...
ROW 5C : ... .. . ... ... ... : ... .. . ... ... ... : A-2 00 . ... : ... .. 2 ... : ... .. . ... ... : ... .. . ... ... : ... .. . ... ... : ... .. . ... ...
ROW 5D : ... .. D ... ... ... : ... .. D ... ... ... : ... .. . ... : ... .. 0 ... : ... .. . ... ... : E-4 01 8 ... ... : ... .. 6 ... ... : ... .. . ... ...
ROW 5E : ... .. C ... ... ... : ... .. C ... ... ... : ... .. . ... : B-# 00 8 ... : ... .. . ... ... : ... .. 7 ... ... : ... .. . ... ... : ... .. . ... ...
ROW 5F : ... .. B ... ... ... : ... .. B ... ... ... : ... .. . ... : ... .. 3 ... : ... .. . ... ... : ... .. 6 ... ... : ... .. 5 ... ... : ... .. . ... ...
ROW 60 : ... .. 2 ... ... ... : ... .. 2 ... ... ... : ... .. . ... : ... .. . ... : ... .. . ... ... : ... .. 5 ... ... : ... .. . ... ... : ... .. . ... ...
ROW 61 : ... .. . ... ... ... : ... .. . ... ... ... : --- .. . ... : ... .. 0 ... : ... .. . ... ... : ... .. . ... ... : ... .. . ... ... : ... .. . ... ...
ROW 62 : ... .. D ... ... ... : ... .. D ... ... ... : G#4 00 . ... : C-# 00 8 ... : ... .. . ... ... : C#4 01 8 ... ... : ... .. . ... ... : ... .. . ... ...
ROW 63 : ... .. C ... ... ... : ... .. C ... ... ... : A#3 00 . ... : ... .. 7 ... : ... .. . ... ... : ... .. 7 ... ... : ... .. . ... ... : ... .. . ... ...
ROW 64 : ... .. B ... ... ... : ... .. B ... ... ... : D#3 00 . ... : ... .. . ... : ... .. . ... ... : ... .. 6 ... ... : ... .. . ... ... : ... .. . ... ...
ROW 65 : ... .. 2 ... ... ... : ... .. 2 ... ... ... : D-3 00 . ... : ... .. 6 ... : ... .. . ... ... : ... .. 5 ... ... : ... .. . ... ... : ... .. . ... ...
ROW 66 : ... .. . ... ... ... : ... .. . ... ... ... : A-2 00 . ... : ... .. 5 ... : ... .. . ... ... : ... .. . ... ... : ... .. . ... ... : ... .. . ... ...
ROW 67 : ... .. D ... ... ... : ... .. D ... ... ... : ... .. . ... : ... .. 4 ... : ... .. . ... ... : A-3 01 8 ... ... : ... .. . ... ... : ... .. . ... ...
ROW 68 : ... .. C ... ... ... : ... .. C ... ... ... : ... .. . ... : ... .. . ... : ... .. . ... ... : ... .. 7 ... ... : ... .. . ... ... : ... .. . ... ...
ROW 69 : ... .. B ... ... ... : ... .. B ... ... ... : ... .. . ... : ... .. . ... : ... .. . ... ... : ... .. 6 ... ... : ... .. . ... ... : ... .. . ... ...
ROW 6A : ... .. 2 ... ... ... : ... .. 2 ... ... ... : ... .. . ... : ... .. 3 ... : ... .. . ... ... : ... .. 5 ... ... : ... .. 4 ... ... : ... .. . ... ...
ROW 6B : ... .. . ... ... ... : ... .. . ... ... ... : --- .. . ... : ... .. . ... : ... .. . ... ... : ... .. . ... ... : ... .. . ... ... : ... .. . ... ...
ROW 6C : E-4 00 D ... V00 ... : ... .. D ... V00 ... : A-3 00 . ... : 7-# 00 F ... : ... .. . ... ... : E-3 01 8 ... ... : F-5 01 4 P7F ... : A-1 01 F ... ...
ROW 6D : ... .. C ... ... ... : ... .. C ... ... ... : ... .. . ... : ... .. C ... : ... .. . ... ... : ... .. 7 ... ... : ... .. . P81 ... : ... .. D ... ...
ROW 6E : ... .. B ... ... ... : ... .. B ... ... ... : ... .. . ... : ... .. A ... : ... .. . ... ... : ... .. 6 ... ... : ... .. . P80 ... : ... .. 8 ... ...
ROW 6F : ... .. 2 ... ... ... : ... .. 2 ... ... ... : ... .. . ... : ... .. 8 ... : ... .. . ... ... : ... .. 5 ... ... : E-5 01 4 P82 ... : ... .. . ... ...
ROW 70 : ... .. . ... ... ... : ... .. . ... ... ... : --- .. . ... : ... .. 7 ... : ... .. . ... ... : ... .. . ... ... : ... .. . P7E ... : ... .. . ... ...
ROW 71 : A-4 00 D ... ... ... : ... .. D ... ... ... : A-3 00 . ... : ... .. 0 ... : ... .. . ... ... : A-3 01 8 ... ... : D#5 01 4 P80 ... : ... .. . ... ...
ROW 72 : ... .. C ... ... ... : ... .. C ... ... ... : ... .. . ... : B-# 00 6 ... : ... .. . ... ... : ... .. 7 ... ... : ... .. . P7F ... : ... .. . ... ...
ROW 73 : ... .. B ... ... ... : ... .. B ... ... ... : ... .. . ... : ... .. 2 ... : ... .. . ... ... : ... .. 6 ... ... : ... .. . P81 ... : ... .. . ... ...
ROW 74 : ... .. 2 ... ... ... : ... .. 2 ... ... ... : ... .. . ... : ... .. . ... : ... .. . ... ... : ... .. 5 ... ... : E-5 01 4 P80 ... : ... .. . ... ...
ROW 75 : ... .. . ... ... ... : ... .. . ... ... ... : --- .. . ... : ... .. 0 ... : ... .. . ... ... : ... .. . ... ... : F-5 01 4 P7E ... : ... .. . ... ...
ROW 76 : ... .. D ... ... ... : ... .. D ... ... ... : A-3 00 . ... : ... .. . ... : ... .. . ... ... : ... .. 8 ... ... : ... .. . P81 ... : ... .. . ... ...
ROW 77 : ... .. C ... ... ... : ... .. C ... ... ... : ... .. . ... : ... .. A ... : ... .. . ... ... : ... .. 7 ... ... : ... .. . ... ... : ... .. . ... ...
ROW 78 : ... .. B ... ... ... : ... .. B ... ... ... : ... .. . ... : ... .. 4 ... : ... .. . ... ... : ... .. 6 ... ... : E-5 01 4 P82 ... : ... .. . ... ...
ROW 79 : ... .. 2 ... ... ... : ... .. 2 ... ... ... : ... .. . ... : ... .. . ... : ... .. . ... ... : ... .. 5 ... ... : ... .. . P7F ... : ... .. . ... ...
ROW 7A : ... .. . ... ... ... : ... .. . ... ... ... : --- .. . ... : ... .. 0 ... : ... .. . ... ... : ... .. . ... ... : D#5 01 4 P80 ... : ... .. . ... ...
ROW 7B : C#5 00 D ... ... ... : ... .. D ... ... ... : A-3 00 . ... : ... .. . ... : ... .. . ... ... : C#4 01 8 ... ... : ... .. 3 P7F ... : ... .. . ... ...
ROW 7C : ... .. C ... ... ... : ... .. C ... ... ... : ... .. . ... : ... .. 8 ... : ... .. . ... ... : ... .. 7 ... ... : ... .. . P81 ... : ... .. . ... ...
ROW 7D : ... .. B ... ... ... : ... .. B ... ... ... : ... .. . ... : ... .. 3 ... : ... .. . ... ... : ... .. 6 ... ... : E-5 01 3 P80 ... : ... .. . ... ...
ROW 7E : ... .. 2 ... ... ... : ... .. 2 ... ... ... : ... .. . ... : ... .. . ... : ... .. . ... ... : ... .. 5 ... ... : F-5 01 3 P7E ... : ... .. . ... ...
ROW 7F : ... .. . ... ... ... : ... .. . ... ... ... : --- .. . ... : ... .. 0 ... : ... .. . ... ... : ... .. . ... ... : ... .. . P81 ... : ... .. . ... ...
ROW 80 : G#3 00 D ... V01 ... : C-4 00 D ... V01 ... : G-4 00 . ... : ... .. . ... : ... .. . ... ... : C-4 01 8 ... ... : D#5 01 7 P80 ... : G#1 01 F ... ...
ROW 81 : ... .. C ... ... ... : ... .. C ... ... ... : A-3 00 . ... : 2-# 00 F ... : ... .. . ... ... : ... .. 7 ... ... : ... .. 6 ... ... : ... .. D ... ...
ROW 82 : ... .. B ... ... ... : ... .. B ... ... ... : D-3 00 . ... : ... .. 6 ... : ... .. . ... ... : ... .. 6 ... ... : ... .. 5 ... ... : ... .. 8 ... ...
ROW 83 : ... .. 2 ... ... ... : ... .. 2 ... ... ... : C#3 00 . ... : ... .. . ... : ... .. . ... ... : ... .. 5 ... ... : ... .. . ... ... : ... .. . ... ...
ROW 84 : ... .. . ... ... ... : ... .. . ... ... ... : G#2 00 . ... : ... .. 0 ... : ... .. . ... ... : ... .. . ... ... : ... .. . ... ... : ... .. . ... ...
ROW 85 : ... .. D ... ... ... : ... .. D ... ... ... : ... .. . ... : ... .. . ... : ... .. . ... ... : G#3 01 8 ... ... : ... .. 4 ... ... : ... .. . ... ...
ROW 86 : ... .. C ... ... ... : ... .. C ... ... ... : ... .. . ... : B-# 00 6 ... : ... .. . ... ... : ... .. 7 ... ... : ... .. . ... ... : ... .. . ... ...
ROW 87 : ... .. B ... ... ... : ... .. B ... ... ... : ... .. . ... : ... .. 2 ... : ... .. . ... ... : ... .. 6 ... ... : ... .. 3 ... ... : ... .. . ... ...
ROW 88 : ... .. 2 ... ... ... : ... .. 2 ... ... ... : ... .. . ... : ... .. . ... : ... .. . ... ... : ... .. 5 ... ... : ... .. 4 ... ... : ... .. . ... ...
ROW 89 : ... .. . ... ... ... : ... .. . ... ... ... : --- .. . ... : ... .. 0 ... : ... .. . ... ... : ... .. . ... ... : ... .. . ... ... : ... .. . ... ...
ROW 8A : ... .. D ... ... ... : ... .. D ... ... ... : G-4 00 . ... : ... .. . ... : ... .. . ... ... : D#3 01 8 ... ... : ... .. . ... ... : ... .. . ... ...
ROW 8B : ... .. C ... ... ... : ... .. C ... ... ... : A-3 00 . ... : ... .. A ... : ... .. . ... ... : ... .. 7 ... ... : ... .. . ... ... : ... .. . ... ...
ROW 8C : ... .. B ... ... ... : ... .. B ... ... ... : D-3 00 . ... : ... .. 4 ... : ... .. . ... ... : ... .. 6 ... ... : ... .. . ... ... : ... .. . ... ...
ROW 8D : ... .. 2 ... ... ... : ... .. 2 ... ... ... : C#3 00 . ... : ... .. . ... : ... .. . ... ... : ... .. 5 ... ... : ... .. . ... ... : ... .. . ... ...
ROW 8E : ... .. . ... ... ... : ... .. . ... ... ... : G#2 00 . ... : ... .. 0 ... : ... .. . ... ... : ... .. . ... ... : ... .. . ... ... : ... .. . ... ...
ROW 8F : ... .. D ... ... ... : ... .. D ... ... ... : ... .. . ... : ... .. . ... : ... .. . ... ... : C-3 01 8 ... ... : ... .. . ... ... : ... .. . ... ...
ROW 90 : ... .. C ... ... ... : ... .. C ... ... ... : ... .. . ... : ... .. 8 ... : ... .. . ... ... : ... .. 7 ... ... : ... .. . ... ... : ... .. . ... ...
ROW 91 : ... .. B ... ... ... : ... .. B ... ... ... : ... .. . ... : ... .. 3 ... : ... .. . ... ... : ... .. 6 ... ... : ... .. . ... ... : ... .. . ... ...
ROW 92 : ... .. 2 ... ... ... : ... .. 2 ... ... ... : ... .. . ... : ... .. . ... : ... .. . ... ... : ... .. 5 ... ... : ... .. . ... ... : ... .. . ... ...
ROW 93 : ... .. . ... ... ... : ... .. . ... ... ... : --- .. . ... : ... .. 0 ... : ... .. . ... ... : ... .. . ... ... : ... .. . ... ... : ... .. . ... ...
ROW 94 : G-3 00 D ... V02 ... : B-3 00 D ... V02 ... : F#3 00 . ... : 7-# 00 F ... : ... .. . ... ... : D#4 01 8 ... ... : E-5 01 4 P7F ... : ... .. . ... ...
ROW 95 : ... .. C ... ... ... : ... .. C ... ... ... : ... .. . ... : ... .. C ... : ... .. . ... ... : ... .. 7 ... ... : ... .. . P81 ... : ... .. . ... ...
ROW 96 : ... .. B ... ... ... : ... .. B ... ... ... : ... .. . ... : ... .. A ... : ... .. . ... ... : ... .. 6 ... ... : ... .. . P80 ... : ... .. . ... ...
ROW 97 : ... .. 2 ... ... ... : ... .. 2 ... ... ... : ... .. . ... : ... .. 8 ... : ... .. . ... ... : ... .. 5 ... ... : D#5 01 4 P82 ... : ... .. . ... ...
ROW 98 : ... .. . ... ... ... : ... .. . ... ... ... : --- .. . ... : ... .. 7 ... : ... .. . ... ... : ... .. . ... ... : ... .. . P7E ... : ... .. . ... ...
ROW 99 : ... .. D ... ... ... : ... .. D ... ... ... : F#3 00 . ... : ... .. 0 ... : ... .. . ... ... : C-4 01 8 ... ... : D-5 01 5 P80 ... : ... .. . ... ...
ROW 9A : ... .. C ... ... ... : ... .. C ... ... ... : ... .. . ... : B-# 00 6 ... : ... .. . ... ... : ... .. 7 ... ... : ... .. . P7F ... : ... .. . ... ...
ROW 9B : ... .. B ... ... ... : ... .. B ... ... ... : ... .. . ... : ... .. 2 ... : ... .. . ... ... : ... .. 6 ... ... : ... .. . P81 ... : ... .. . ... ...
ROW 9C : ... .. 2 ... ... ... : ... .. 2 ... ... ... : ... .. . ... : ... .. . ... : ... .. . ... ... : ... .. 5 ... ... : D#5 01 5 P80 ... : ... .. . ... ...
ROW 9D : ... .. . ... ... ... : ... .. . ... ... ... : --- .. . ... : ... .. 0 ... : ... .. . ... ... : ... .. . ... ... : E-5 01 5 P7E ... : ... .. . ... ...
ROW 9E : ... .. D ... ... ... : ... .. D ... ... ... : F#3 00 . ... : ... .. . ... : ... .. . ... ... : G#3 01 8 ... ... : ... .. . P81 ... : ... .. . ... ...
ROW 9F : ... .. C ... ... ... : ... .. C ... ... ... : ... .. . ... : ... .. A ... : ... .. . ... ... : ... .. 7 ... ... : ... .. . ... ... : ... .. . ... ...
ROW A0 : ... .. B ... ... ... : ... .. B ... ... ... : ... .. . ... : ... .. 4 ... : ... .. . ... ... : ... .. 6 ... ... : D#5 01 5 P82 ... : ... .. . ... ...
ROW A1 : ... .. 2 ... ... ... : ... .. 2 ... ... ... : ... .. . ... : ... .. . ... : ... .. . ... ... : ... .. 5 ... ... : ... .. . P7F ... : ... .. . ... ...
ROW A2 : ... .. . ... ... ... : ... .. . ... ... ... : --- .. . ... : ... .. 0 ... : ... .. . ... ... : ... .. . ... ... : D-5 01 5 P80 ... : ... .. . ... ...
ROW A3 : ... .. D ... ... ... : ... .. D ... ... ... : F#3 00 . ... : ... .. . ... : ... .. . ... ... : D#3 01 8 ... ... : ... .. . P7F ... : ... .. . ... ...
ROW A4 : ... .. C ... ... ... : ... .. C ... ... ... : ... .. . ... : ... .. 8 ... : ... .. . ... ... : ... .. 7 ... ... : ... .. . P81 ... : ... .. . ... ...
ROW A5 : ... .. B ... ... ... : ... .. B ... ... ... : ... .. . ... : ... .. 3 ... : ... .. . ... ... : ... .. 6 ... ... : D#5 01 5 P80 ... : ... .. . ... ...
ROW A6 : ... .. 2 ... ... ... : ... .. 2 ... ... ... : ... .. . ... : ... .. . ... : ... .. . ... ... : ... .. 5 ... ... : E-5 01 5 P7E ... : ... .. . ... ...
ROW A7 : ... .. . ... ... ... : ... .. . ... ... ... : --- .. . ... : ... .. 0 ... : ... .. . ... ... : ... .. . ... ... : ... .. . P81 ... : ... .. . ... ...
ROW A8 : G#3 00 D ... V00 ... : C-4 00 D ... V00 ... : G-4 00 . ... : 2-# 00 F ... : ... .. . ... ... : G#4 01 8 ... ... : G#5 01 A P80 ... : ... .. . ... ...
ROW A9 : ... .. C ... ... ... : ... .. C ... ... ... : A-3 00 . ... : ... .. C ... : ... .. . ... ... : ... .. 7 ... ... : ... .. 9 ... ... : ... .. . ... ...
ROW AA : ... .. B ... ... ... : ... .. B ... ... ... : D-3 00 . ... : ... .. 6 ... : ... .. . ... ... : ... .. 6 ... ... : ... .. 8 ... ... : ... .. . ... ...
ROW AB : ... .. 2 ... ... ... : ... .. 2 ... ... ... : C#3 00 . ... : ... .. 3 ... : ... .. . ... ... : ... .. 5 ... ... : ... .. 7 ... ... : ... .. . ... ...
ROW AC : ... .. . ... ... ... : ... .. . ... ... ... : G#2 00 . ... : ... .. 2 ... : ... .. . ... ... : ... .. . ... ... : ... .. . ... ... : ... .. . ... ...
ROW AD : ... .. D ... ... ... : ... .. D ... ... ... : ... .. . ... : ... .. 0 ... : ... .. . ... ... : D#4 01 8 ... ... : ... .. 6 ... ... : ... .. . ... ...
ROW AE : ... .. C ... ... ... : ... .. C ... ... ... : ... .. . ... : B-# 00 8 ... : ... .. . ... ... : ... .. 7 ... ... : ... .. . ... ... : ... .. . ... ...
ROW AF : ... .. B ... ... ... : ... .. B ... ... ... : ... .. . ... : ... .. 3 ... : ... .. . ... ... : ... .. 6 ... ... : ... .. 5 ... ... : ... .. . ... ...
ROW B0 : ... .. 2 ... ... ... : ... .. 2 ... ... ... : ... .. . ... : ... .. . ... : ... .. . ... ... : ... .. 5 ... ... : ... .. . ... ... : ... .. . ... ...
ROW B1 : ... .. . ... ... ... : ... .. . ... ... ... : --- .. . ... : ... .. 0 ... : ... .. . ... ... : ... .. . ... ... : ... .. . ... ... : ... .. . ... ...
ROW B2 : ... .. D ... ... ... : ... .. D ... ... ... : G-4 00 . ... : 2-# 00 F ... : ... .. . ... ... : C-4 01 8 ... ... : ... .. . ... ... : A#1 01 F ... ...
ROW B3 : ... .. C ... ... ... : ... .. C ... ... ... : A-3 00 . ... : ... .. C ... : ... .. . ... ... : ... .. 7 ... ... : ... .. . ... ... : ... .. D ... ...
ROW B4 : ... .. B ... ... ... : ... .. B ... ... ... : D-3 00 . ... : ... .. 6 ... : ... .. . ... ... : ... .. 6 ... ... : ... .. . ... ... : ... .. 8 ... ...
ROW B5 : ... .. 2 ... ... ... : ... .. 2 ... ... ... : C#3 00 . ... : ... .. 3 ... : ... .. . ... ... : ... .. 5 ... ... : ... .. . ... ... : ... .. . ... ...
ROW B6 : ... .. . ... ... ... : ... .. . ... ... ... : G#2 00 . ... : ... .. 2 ... : ... .. . ... ... : ... .. . ... ... : ... .. . ... ... : ... .. . ... ...
ROW B7 : ... .. D ... ... ... : ... .. D ... ... ... : ... .. . ... : ... .. 0 ... : ... .. . ... ... : G#3 01 8 ... ... : ... .. . ... ... : ... .. . ... ...
ROW B8 : ... .. C ... ... ... : ... .. C ... ... ... : ... .. . ... : B-# 00 8 ... : ... .. . ... ... : ... .. 7 ... ... : ... .. . ... ... : ... .. . ... ...
ROW B9 : ... .. B ... ... ... : ... .. B ... ... ... : ... .. . ... : ... .. 3 ... : ... .. . ... ... : ... .. 6 ... ... : ... .. . ... ... : ... .. . ... ...
ROW BA : ... .. 2 ... ... ... : ... .. 2 ... ... ... : ... .. . ... : ... .. . ... : ... .. . ... ... : ... .. 5 ... ... : ... .. 4 ... ... : ... .. . ... ...
ROW BB : ... .. . ... ... ... : ... .. . ... ... ... : --- .. . ... : ... .. 0 ... : ... .. . ... ... : ... .. . ... ... : ... .. . ... ... : ... .. . ... ...
ROW BC : D#4 00 D ... V01 ... : ... .. D ... V01 ... : D-4 00 . ... : 7-# 00 F ... : ... .. . ... ... : D#4 01 8 ... ... : A-5 01 4 P81 ... : C-2 01 F ... ...
ROW BD : ... .. C ... ... ... : ... .. C ... ... ... : ... .. . ... : ... .. C ... : ... .. . ... ... : ... .. 7 ... ... : A#5 01 4 P7F ... : ... .. D ... ...
ROW BE : ... .. B ... ... ... : ... .. B ... ... ... : ... .. . ... : ... .. A ... : ... .. . ... ... : ... .. 6 ... ... : A-5 01 4 P82 ... : ... .. 8 ... ...
ROW BF : ... .. 2 ... ... ... : ... .. 2 ... ... ... : ... .. . ... : ... .. 8 ... : ... .. . ... ... : ... .. 5 ... ... : ... .. . P7F ... : ... .. . ... ...
ROW C0 : ... .. . ... ... ... : ... .. . ... ... ... : --- .. . ... : ... .. 7 ... : ... .. . ... ... : ... .. . ... ... : G-5 01 4 P82 ... : ... .. . ... ...
ROW C1 : G#4 00 D ... ... ... : ... .. D ... ... ... : D-4 00 . ... : ... .. 0 ... : ... .. . ... ... : G#4 01 8 ... ... : ... .. . P7F ... : ... .. . ... ...
ROW C2 : ... .. C ... ... ... : ... .. C ... ... ... : ... .. . ... : B-# 00 6 ... : ... .. . ... ... : ... .. 7 ... ... : ... .. . P7E ... : ... .. . ... ...
ROW C3 : ... .. B ... ... ... : ... .. B ... ... ... : ... .. . ... : ... .. 2 ... : ... .. . ... ... : ... .. 6 ... ... : ... .. . P80 ... : ... .. . ... ...
ROW C4 : ... .. 2 ... ... ... : ... .. 2 ... ... ... : ... .. . ... : ... .. . ... : ... .. . ... ... : ... .. 5 ... ... : G#5 01 4 ... ... : ... .. . ... ...
ROW C5 : ... .. . ... ... ... : ... .. . ... ... ... : --- .. . ... : ... .. 0 ... : ... .. . ... ... : ... .. . ... ... : A-5 01 4 ... ... : ... .. . ... ...
ROW C6 : ... .. D ... ... ... : ... .. D ... ... ... : D-3 00 . ... : ... .. . ... : ... .. . ... ... : ... .. 8 ... ... : A#5 01 4 P7F ... : G#1 01 F ... ...
ROW C7 : ... .. C ... ... ... : ... .. C ... ... ... : ... .. . ... : ... .. A ... : ... .. . ... ... : ... .. 7 ... ... : ... .. . ... ... : ... .. D ... ...
ROW C8 : ... .. B ... ... ... : ... .. B ... ... ... : ... .. . ... : ... .. 4 ... : ... .. . ... ... : ... .. 6 ... ... : A-5 01 4 ... ... : ... .. 8 ... ...
ROW C9 : ... .. 2 ... ... ... : ... .. 2 ... ... ... : ... .. . ... : ... .. . ... : ... .. . ... ... : ... .. 5 ... ... : G#5 01 4 ... ... : ... .. . ... ...
ROW CA : ... .. . ... ... ... : ... .. . ... ... ... : --- .. . ... : ... .. 0 ... : ... .. . ... ... : ... .. . ... ... : G-5 01 4 ... ... : ... .. . ... ...
ROW CB : C-5 00 D ... ... ... : ... .. D ... ... ... : D-3 00 . ... : ... .. . ... : ... .. . ... ... : C-5 01 8 ... ... : ... .. 3 P7E ... : ... .. . ... ...
ROW CC : ... .. C ... ... ... : ... .. C ... ... ... : ... .. . ... : ... .. 8 ... : ... .. . ... ... : ... .. 7 ... ... : ... .. . P80 ... : ... .. . ... ...
ROW CD : ... .. B ... ... ... : ... .. B ... ... ... : ... .. . ... : ... .. 3 ... : ... .. . ... ... : ... .. 6 ... ... : G#5 01 3 ... ... : ... .. . ... ...
ROW CE : ... .. 2 ... ... ... : ... .. 2 ... ... ... : ... .. . ... : ... .. . ... : ... .. . ... ... : ... .. 5 ... ... : A-5 01 3 ... ... : ... .. . ... ...
ROW CF : ... .. . ... ... ... : ... .. . ... ... ... : --- .. . ... : ... .. 0 ... : ... .. . ... ... : ... .. . ... ... : A#5 01 3 P7F ... : ... .. . ... ...
ROW D0 : G-3 00 D ... V02 ... : A#3 00 D ... V02 ... : F#4 00 . ... : 9-# 00 D ... : ... .. . ... ... : A#4 01 8 ... ... : G-5 01 7 P80 ... : G-1 01 F ... ...
ROW D1 : ... .. C ... ... ... : ... .. C ... ... ... : G#3 00 . ... : ... .. . ... : ... .. . ... ... : ... .. 7 ... ... : ... .. 6 ... ... : ... .. D ... ...
ROW D2 : ... .. B ... ... ... : ... .. B ... ... ... : C#3 00 . ... : ... .. . ... : ... .. . ... ... : ... .. 6 ... ... : ... .. 5 ... ... : ... .. 8 ... ...
ROW D3 : ... .. 2 ... ... ... : ... .. 2 ... ... ... : C-3 00 . ... : ... .. B ... : ... .. . ... ... : ... .. 5 ... ... : ... .. . ... ... : ... .. . ... ...
ROW D4 : ... .. . ... ... ... : ... .. . ... ... ... : G-2 00 . ... : ... .. . ... : ... .. . ... ... : ... .. . ... ... : ... .. . ... ... : ... .. . ... ...
ROW D5 : ... .. D ... ... ... : ... .. D ... ... ... : ... .. . ... : ... .. A ... : ... .. . ... ... : G-4 01 8 ... ... : ... .. 4 ... ... : ... .. . ... ...
ROW D6 : ... .. C ... ... ... : ... .. C ... ... ... : ... .. . ... : ... .. . ... : ... .. . ... ... : ... .. 7 ... ... : ... .. . ... ... : ... .. . ... ...
ROW D7 : ... .. B ... ... ... : ... .. B ... ... ... : ... .. . ... : ... .. . ... : ... .. . ... ... : ... .. 6 ... ... : ... .. 3 ... ... : ... .. . ... ...
ROW D8 : ... .. 2 ... ... ... : ... .. 2 ... ... ... : ... .. . ... : ... .. 9 ... : ... .. . ... ... : ... .. 5 ... ... : ... .. 4 ... ... : ... .. . ... ...
ROW D9 : ... .. . ... ... ... : ... .. . ... ... ... : --- .. . ... : ... .. . ... : ... .. . ... ... : ... .. . ... ... : ... .. . ... ... : ... .. . ... ...
ROW DA : ... .. D ... ... ... : ... .. D ... ... ... : F#4 00 . ... : ... .. 7 ... : ... .. . ... ... : D-4 01 8 ... ... : ... .. . ... ... : ... .. . ... ...
ROW DB : ... .. C ... ... ... : ... .. C ... ... ... : G#3 00 . ... : ... .. . ... : ... .. . ... ... : ... .. 7 ... ... : ... .. . ... ... : ... .. . ... ...
ROW DC : ... .. B ... ... ... : ... .. B ... ... ... : C#3 00 . ... : ... .. . ... : ... .. . ... ... : ... .. 6 ... ... : ... .. . ... ... : ... .. . ... ...
ROW DD : ... .. 2 ... ... ... : ... .. 2 ... ... ... : C-3 00 . ... : ... .. 6 ... : ... .. . ... ... : ... .. 5 ... ... : ... .. . ... ... : ... .. . ... ...
ROW DE : ... .. . ... ... ... : ... .. . ... ... ... : G-2 00 . ... : ... .. . ... : ... .. . ... ... : ... .. . ... ... : ... .. . ... ... : ... .. . ... ...
ROW DF : ... .. D ... ... ... : ... .. D ... ... ... : ... .. . ... : ... .. 5 ... : ... .. . ... ... : A#3 01 8 ... ... : ... .. . ... ... : ... .. . ... ...
ROW E0 : ... .. C ... ... ... : ... .. C ... ... ... : ... .. . ... : ... .. . ... : ... .. . ... ... : ... .. 7 ... ... : ... .. . ... ... : ... .. . ... ...
ROW E1 : ... .. B ... ... ... : ... .. B ... ... ... : ... .. . ... : ... .. . ... : ... .. . ... ... : ... .. 6 ... ... : ... .. . ... ... : ... .. . ... ...
ROW E2 : ... .. 2 ... ... ... : ... .. 2 ... ... ... : ... .. . ... : ... .. 4 ... : ... .. . ... ... : ... .. 5 ... ... : ... .. . ... ... : ... .. . ... ...
ROW E3 : ... .. . ... ... ... : ... .. . ... ... ... : --- .. . ... : ... .. . ... : ... .. . ... ... : ... .. . ... ... : ... .. . ... ... : ... .. . ... ...
ROW E4 : F#3 00 D ... V03 ... : A-3 00 D ... V03 ... : A#3 00 . ... : 7-# 00 F ... : ... .. . ... ... : A-4 01 8 ... ... : G#5 01 4 ... ... : G-2 01 F ... ...
ROW E5 : ... .. C ... ... ... : ... .. C ... ... ... : ... .. . ... : ... .. C ... : ... .. . ... ... : ... .. 7 ... ... : A-5 01 4 P7F ... : ... .. D ... ...
ROW E6 : ... .. B ... ... ... : ... .. B ... ... ... : ... .. . ... : ... .. A ... : ... .. . ... ... : ... .. 6 ... ... : G#5 01 4 P81 ... : ... .. 8 ... ...
ROW E7 : ... .. 2 ... ... ... : ... .. 2 ... ... ... : ... .. . ... : ... .. 8 ... : ... .. . ... ... : ... .. 5 ... ... : G-5 01 4 P82 ... : ... .. . ... ...
ROW E8 : ... .. . ... ... ... : ... .. . ... ... ... : --- .. . ... : ... .. 7 ... : ... .. . ... ... : ... .. . ... ... : ... .. . P7E ... : ... .. . ... ...
ROW E9 : ... .. D ... ... ... : ... .. D ... ... ... : A#3 00 . ... : ... .. 0 ... : ... .. . ... ... : F#4 01 8 ... ... : F#5 01 5 P80 ... : ... .. F ... ...
ROW EA : ... .. C ... ... ... : ... .. C ... ... ... : ... .. . ... : B-# 00 6 ... : ... .. . ... ... : ... .. 7 ... ... : ... .. . P7F ... : ... .. D ... ...
ROW EB : ... .. B ... ... ... : ... .. B ... ... ... : ... .. . ... : ... .. 2 ... : ... .. . ... ... : ... .. 6 ... ... : ... .. . P81 ... : ... .. 8 ... ...
ROW EC : ... .. 2 ... ... ... : ... .. 2 ... ... ... : ... .. . ... : ... .. . ... : ... .. . ... ... : ... .. 5 ... ... : G-5 01 5 P80 ... : ... .. . ... ...
ROW ED : ... .. . ... ... ... : ... .. . ... ... ... : --- .. . ... : ... .. 0 ... : ... .. . ... ... : ... .. . ... ... : G#5 01 5 P7F ... : ... .. . ... ...
ROW EE : ... .. D ... ... ... : ... .. D ... ... ... : D-3 00 . ... : 9-# 00 D ... : ... .. . ... ... : C#4 01 8 ... ... : A-5 01 5 ... ... : G-1 01 F ... ...
ROW EF : ... .. C ... ... ... : ... .. C ... ... ... : ... .. . ... : ... .. . ... : ... .. . ... ... : ... .. 7 ... ... : ... .. . ... ... : ... .. D ... ...
ROW F0 : ... .. B ... ... ... : ... .. B ... ... ... : ... .. . ... : ... .. . ... : ... .. . ... ... : ... .. 6 ... ... : G-5 01 5 P82 ... : ... .. 8 ... ...
ROW F1 : ... .. 2 ... ... ... : ... .. 2 ... ... ... : ... .. . ... : ... .. B ... : ... .. . ... ... : ... .. 5 ... ... : ... .. . P7F ... : ... .. . ... ...
ROW F2 : ... .. . ... ... ... : ... .. . ... ... ... : --- .. . ... : ... .. . ... : ... .. . ... ... : ... .. . ... ... : F#5 01 5 P80 ... : ... .. . ... ...
ROW F3 : ... .. D ... ... ... : ... .. D ... ... ... : D-3 00 . ... : ... .. A ... : ... .. . ... ... : A-3 01 8 ... ... : ... .. . P7F ... : ... .. F ... ...
ROW F4 : ... .. C ... ... ... : ... .. C ... ... ... : ... .. . ... : ... .. . ... : ... .. . ... ... : ... .. 7 ... ... : ... .. . P81 ... : ... .. D ... ...
ROW F5 : ... .. B ... ... ... : ... .. B ... ... ... : ... .. . ... : ... .. . ... : ... .. . ... ... : ... .. 6 ... ... : G-5 01 5 P80 ... : ... .. 8 ... ...
ROW F6 : ... .. 2 ... ... ... : ... .. 2 ... ... ... : ... .. . ... : ... .. 9 ... : ... .. . ... ... : ... .. 5 ... ... : G#5 01 5 P7F ... : ... .. . ... ...
ROW F7 : ... .. . ... ... ... : ... .. . ... ... ... : --- .. . ... : ... .. . ... : ... .. . ... ... : ... .. . ... ... : A-5 01 5 ... ... : ... .. . ... ...
ROW F8 : G-3 00 D ... V01 ... : A#3 00 D ... V01 ... : C#4 00 . ... : ... .. 7 ... : ... .. . ... ... : A#4 01 8 ... ... : D-5 01 A P80 ... : G-3 01 F ... ...
ROW F9 : ... .. C ... ... ... : ... .. C ... ... ... : D#3 00 . ... : ... .. . ... : ... .. . ... ... : ... .. 7 ... ... : ... .. 9 ... ... : ... .. D ... ...
ROW FA : ... .. B ... ... ... : ... .. B ... ... ... : G#2 00 . ... : ... .. . ... : ... .. . ... ... : ... .. 6 ... ... : ... .. 8 ... ... : ... .. 8 ... ...
ROW FB : ... .. 2 ... ... ... : ... .. 2 ... ... ... : G-2 00 . ... : ... .. 6 ... : ... .. . ... ... : ... .. 5 ... ... : ... .. 7 ... ... : ... .. . ... ...
ROW FC : ... .. . ... ... ... : ... .. . ... ... ... : D-2 00 . ... : ... .. . ... : ... .. . ... ... : ... .. . ... ... : ... .. . ... ... : ... .. . ... ...
ROW FD : ... .. D ... ... ... : ... .. D ... ... ... : ... .. . ... : ... .. 5 ... : ... .. . ... ... : G-4 01 8 ... ... : ... .. 6 ... ... : ... .. F ... ...
ROW FE : ... .. C ... ... ... : ... .. C ... ... ... : ... .. . ... : ... .. . ... : ... .. . ... ... : ... .. 7 ... ... : ... .. . ... ... : ... .. D ... ...
ROW FF : ... .. B ... ... ... : ... .. B ... ... ... : ... .. . ... : ... .. . ... : ... .. . ... ... : ... .. 6 ... ... : ... .. 5 ... ... : ... .. 8 ... ...

PATTERN 17
ROW 00 : ... .. 2 ... ... ... : ... .. 2 ... ... ... : ... .. . ... : ... .. 4 ... : ... .. . ... ... : ... .. 5 ... ... : ... .. . ... ... : ... .. . ... ...
ROW 01 : ... .. . ... ... ... : ... .. . ... ... ... : --- .. . ... : ... .. . ... : ... .. . ... ... : ... .. . ... ... : ... .. . ... ... : ... .. . ... ...
ROW 02 : ... .. D ... ... ... : ... .. D ... ... ... : D-5 00 . ... : ... .. 0 ... : ... .. . ... ... : D-4 01 8 ... ... : ... .. . ... ... : D-3 01 F ... ...
ROW 03 : ... .. C ... ... ... : ... .. C ... ... ... : ... .. . ... : B-# 00 8 ... : ... .. . ... ... : ... .. 7 ... ... : ... .. . ... ... : ... .. D ... ...
ROW 04 : ... .. B ... ... ... : ... .. B ... ... ... : ... .. . ... : ... .. 3 ... : ... .. . ... ... : ... .. 6 ... ... : ... .. . ... ... : ... .. 8 ... ...
ROW 05 : ... .. 2 ... ... ... : ... .. 2 ... ... ... : ... .. . ... : ... .. . ... : ... .. . ... ... : ... .. 5 ... ... : ... .. . ... ... : ... .. . ... ...
ROW 06 : ... .. . ... ... ... : ... .. . ... ... ... : --- .. . ... : ... .. 0 ... : ... .. . ... ... : ... .. . ... ... : ... .. . ... ... : ... .. . ... ...
ROW 07 : ... .. D ... ... ... : ... .. D ... ... ... : D-5 00 . ... : ... .. . ... : ... .. . ... ... : A#3 01 8 ... ... : ... .. . ... ... : ... .. F ... ...
ROW 08 : ... .. C ... ... ... : ... .. C ... ... ... : ... .. . ... : ... .. 6 ... : ... .. . ... ... : ... .. 7 ... ... : ... .. . ... ... : ... .. D ... ...
ROW 09 : ... .. B ... ... ... : ... .. B ... ... ... : ... .. . ... : ... .. 2 ... : ... .. . ... ... : ... .. 6 ... ... : ... .. . ... ... : ... .. 8 ... ...
ROW 0A : ... .. 2 ... ... ... : ... .. 2 ... ... ... : ... .. . ... : ... .. . ... : ... .. . ... ... : ... .. 5 ... ... : ... .. 4 ... ... : ... .. . ... ...
ROW 0B : ... .. . ... ... ... : ... .. . ... ... ... : --- .. . ... : ... .. 0 ... : ... .. . ... ... : ... .. . ... ... : ... .. . ... ... : ... .. . ... ...
ROW 0C : A#4 00 D ... V00 ... : ... .. D ... V00 ... : D-4 00 . ... : 7-# 00 F ... : ... .. . ... ... : D-6 01 8 ... ... : D#5 01 4 P7F ... : F#4 01 F ... ...
ROW 0D : ... .. C ... ... ... : ... .. C ... ... ... : ... .. . ... : ... .. C ... : ... .. . ... ... : ... .. 7 ... ... : ... .. . P81 ... : ... .. D ... ...
ROW 0E : ... .. B ... ... ... : ... .. B ... ... ... : ... .. . ... : ... .. A ... : ... .. . ... ... : ... .. 6 ... ... : ... .. . P80 ... : ... .. 8 ... ...
ROW 0F : ... .. 2 ... ... ... : ... .. 2 ... ... ... : ... .. . ... : ... .. 0 ... : ... .. . ... ... : ... .. 5 ... ... : D-5 01 4 P82 ... : ... .. . ... ...
ROW 10 : ... .. . ... ... ... : ... .. . ... ... ... : --- .. . ... : ... .. . ... : ... .. . ... ... : ... .. . ... ... : ... .. . P7E ... : ... .. . ... ...
ROW 11 : G-4 00 D ... ... ... : ... .. D ... ... ... : D-4 00 . ... : 6-# 00 F ... : ... .. . ... ... : D-5 01 8 ... ... : C#5 01 4 P81 ... : ... .. F ... ...
ROW 12 : ... .. C ... ... ... : ... .. C ... ... ... : ... .. . ... : ... .. C ... : ... .. . ... ... : ... .. 7 ... ... : ... .. . P80 ... : ... .. D ... ...
ROW 13 : ... .. B ... ... ... : ... .. B ... ... ... : ... .. . ... : ... .. A ... : ... .. . ... ... : ... .. 6 ... ... : ... .. . P82 ... : ... .. 8 ... ...
ROW 14 : ... .. 2 ... ... ... : ... .. 2 ... ... ... : ... .. . ... : ... .. 0 ... : ... .. . ... ... : ... .. 5 ... ... : D-5 01 4 P80 ... : ... .. . ... ...
ROW 15 : ... .. . ... ... ... : ... .. . ... ... ... : --- .. . ... : ... .. . ... : ... .. . ... ... : ... .. . ... ... : D#5 01 4 P7E ... : ... .. . ... ...
ROW 16 : D-4 00 D ... ... ... : ... .. D ... ... ... : D-3 00 . ... : 5-# 00 F ... : ... .. . ... ... : D-4 01 8 ... ... : ... .. . P81 ... : C-4 01 F ... ...
ROW 17 : ... .. C ... ... ... : ... .. C ... ... ... : ... .. . ... : ... .. C ... : ... .. . ... ... : ... .. 7 ... ... : ... .. . ... ... : ... .. D ... ...
ROW 18 : ... .. B ... ... ... : ... .. B ... ... ... : ... .. . ... : ... .. A ... : ... .. . ... ... : ... .. 6 ... ... : D-5 01 4 P82 ... : ... .. 8 ... ...
ROW 19 : ... .. 2 ... ... ... : ... .. 2 ... ... ... : ... .. . ... : ... .. 0 ... : ... .. . ... ... : ... .. 5 ... ... : ... .. . P7F ... : ... .. . ... ...
ROW 1A : ... .. . ... ... ... : ... .. . ... ... ... : --- .. . ... : ... .. . ... : ... .. . ... ... : ... .. . ... ... : C#5 01 4 P81 ... : ... .. . ... ...
ROW 1B : D-3 00 D ... ... ... : ... .. D ... ... ... : D-3 00 . ... : 4-# 00 F ... : ... .. . ... ... : D-3 01 8 ... ... : ... .. 3 P80 ... : ... .. F ... ...
ROW 1C : ... .. C ... ... ... : ... .. C ... ... ... : ... .. . ... : ... .. C ... : ... .. . ... ... : ... .. 7 ... ... : ... .. . P82 ... : ... .. D ... ...
ROW 1D : ... .. B ... ... ... : ... .. B ... ... ... : ... .. . ... : ... .. A ... : ... .. . ... ... : ... .. 6 ... ... : D-5 01 3 P80 ... : ... .. 8 ... ...
ROW 1E : ... .. 2 ... ... ... : ... .. 2 ... ... ... : ... .. . ... : ... .. 8 ... : ... .. . ... ... : ... .. 5 ... ... : D#5 01 3 P7E ... : ... .. . ... ...
ROW 1F : ... .. . ... ... ... : ... .. . ... ... ... : --- .. . ... : ... .. 7 ... : ... .. . ... ... : ... .. . ... ... : ... .. . P81 ... : ... .. . ... ...
ROW 20 : A#3 00 D ... V01 ... : D-4 00 D ... V01 ... : F#5 00 . ... : 9-# 00 D ... : ... .. . ... ... : A#4 01 8 ... ... : G-5 01 7 P80 ... : A#3 01 F ... ...
ROW 21 : ... .. C ... ... ... : ... .. C ... ... ... : G#4 00 . ... : ... .. . ... : ... .. . ... ... : ... .. 7 ... ... : ... .. 6 ... ... : ... .. D ... ...
ROW 22 : ... .. B ... ... ... : ... .. B ... ... ... : C#4 00 . ... : ... .. . ... : ... .. . ... ... : ... .. 6 ... ... : ... .. 5 ... ... : ... .. 8 ... ...
ROW 23 : ... .. 2 ... ... ... : ... .. 2 ... ... ... : C-4 00 . ... : ... .. B ... : ... .. . ... ... : ... .. 5 ... ... : ... .. . ... ... : ... .. . ... ...
ROW 24 : ... .. . ... ... ... : ... .. . ... ... ... : G-3 00 . ... : ... .. . ... : ... .. . ... ... : ... .. . ... ... : ... .. . ... ... : ... .. . ... ...
ROW 25 : ... .. D ... ... ... : ... .. D ... ... ... : ... .. . ... : ... .. A ... : ... .. . ... ... : G-4 01 8 ... ... : ... .. 4 ... ... : A-3 01 F ... ...
ROW 26 : ... .. C ... ... ... : ... .. C ... ... ... : ... .. . ... : ... .. . ... : ... .. . ... ... : ... .. 7 ... ... : ... .. . ... ... : ... .. D ... ...
ROW 27 : ... .. B ... ... ... : ... .. B ... ... ... : ... .. . ... : ... .. . ... : ... .. . ... ... : ... .. 6 ... ... : ... .. 3 ... ... : ... .. 8 ... ...
ROW 28 : ... .. 2 ... ... ... : ... .. 2 ... ... ... : F-3 00 . P83 : ... .. 9 ... : ... .. . ... ... : ... .. 5 ... ... : ... .. 4 ... ... : ... .. . ... ...
ROW 29 : ... .. . ... ... ... : ... .. . ... ... ... : E-3 00 . P76 : ... .. . ... : ... .. . ... ... : ... .. . ... ... : ... .. . ... ... : ... .. . ... ...
ROW 2A : ... .. D ... ... ... : ... .. D ... ... ... : D-3 00 . P80 : ... .. 7 ... : ... .. . ... ... : D-4 01 8 ... ... : ... .. . ... ... : G-3 01 F ... ...
ROW 2B : ... .. C ... ... ... : ... .. C ... ... ... : C#3 00 . P77 : ... .. . ... : ... .. . ... ... : ... .. 7 ... ... : ... .. . ... ... : ... .. D ... ...
ROW 2C : ... .. B ... ... ... : ... .. B ... ... ... : B-2 00 . P88 : ... .. . ... : ... .. . ... ... : ... .. 6 ... ... : ... .. . ... ... : ... .. 8 ... ...
ROW 2D : ... .. 2 ... ... ... : ... .. 2 ... ... ... : A#2 00 . P83 : ... .. 6 ... : ... .. . ... ... : ... .. 5 ... ... : ... .. . ... ... : ... .. . ... ...
ROW 2E : ... .. . ... ... ... : ... .. . ... ... ... : A-2 00 . P7F : ... .. . ... : ... .. . ... ... : ... .. . ... ... : ... .. . ... ... : ... .. . ... ...
ROW 2F : ... .. D ... ... ... : ... .. D ... ... ... : G#2 00 . P7E : ... .. 5 ... : ... .. . ... ... : A#3 01 8 ... ... : ... .. . ... ... : D-3 01 F ... ...
ROW 30 : ... .. C ... ... ... : ... .. C ... ... ... : G-2 00 . ... : ... .. . ... : ... .. . ... ... : ... .. 7 ... ... : ... .. . ... ... : ... .. D ... ...
ROW 31 : ... .. B ... ... ... : ... .. B ... ... ... : F#2 00 . P80 : ... .. . ... : ... .. . ... ... : ... .. 6 ... ... : ... .. . ... ... : ... .. 8 ... ...
ROW 32 : ... .. 2 ... ... ... : ... .. 2 ... ... ... : F-2 00 . P84 : ... .. 4 ... : ... .. . ... ... : ... .. 5 ... ... : ... .. . ... ... : ... .. . ... ...
ROW 33 : ... .. . ... ... ... : ... .. . ... ... ... : --- .. . ... : ... .. . ... : ... .. . ... ... : ... .. . ... ... : ... .. . ... ... : ... .. . ... ...
ROW 34 : A-3 00 D ... V02 ... : C#4 00 D ... V02 ... : G-2 00 . P80 : 7-# 00 F ... : ... .. . ... ... : A-4 01 8 ... ... : G#5 01 4 ... ... : A#2 01 F ... ...
ROW 35 : ... .. C ... ... ... : ... .. C ... ... ... : ... .. . ... : ... .. C ... : ... .. . ... ... : ... .. 7 ... ... : A-5 01 4 P7F ... : ... .. D ... ...
ROW 36 : ... .. B ... ... ... : ... .. B ... ... ... : ... .. . ... : ... .. A ... : ... .. . ... ... : ... .. 6 ... ... : G#5 01 4 P81 ... : ... .. 8 ... ...
ROW 37 : ... .. 2 ... ... ... : ... .. 2 ... ... ... : ... .. . ... : ... .. 8 ... : ... .. . ... ... : ... .. 5 ... ... : G-5 01 4 P82 ... : ... .. . ... ...
ROW 38 : ... .. . ... ... ... : ... .. . ... ... ... : --- .. . ... : ... .. 7 ... : ... .. . ... ... : ... .. . ... ... : ... .. . P7E ... : ... .. . ... ...
ROW 39 : ... .. D ... ... ... : ... .. D ... ... ... : G-2 00 . ... : ... .. 0 ... : ... .. . ... ... : F#4 01 8 ... ... : F#5 01 5 P80 ... : G-2 01 F ... ...
ROW 3A : ... .. C ... ... ... : ... .. C ... ... ... : ... .. . ... : B-# 00 6 ... : ... .. . ... ... : ... .. 7 ... ... : ... .. . P7F ... : ... .. D ... ...
ROW 3B : ... .. B ... ... ... : ... .. B ... ... ... : ... .. . ... : ... .. 2 ... : ... .. . ... ... : ... .. 6 ... ... : ... .. . P81 ... : ... .. 8 ... ...
ROW 3C : ... .. 2 ... ... ... : ... .. 2 ... ... ... : ... .. . ... : ... .. . ... : ... .. . ... ... : ... .. 5 ... ... : G-5 01 5 P80 ... : ... .. . ... ...
ROW 3D : ... .. . ... ... ... : ... .. . ... ... ... : --- .. . ... : ... .. 0 ... : ... .. . ... ... : ... .. . ... ... : G#5 01 5 P7F ... : ... .. . ... ...
ROW 3E : ... .. D ... ... ... : ... .. D ... ... ... : G-2 00 . ... : ... .. . ... : ... .. . ... ... : C#4 01 8 ... ... : A-5 01 5 ... ... : D-2 01 F ... ...
ROW 3F : ... .. C ... ... ... : ... .. C ... ... ... : ... .. . ... : ... .. A ... : ... .. . ... ... : ... .. 7 ... ... : ... .. . ... ... : ... .. D ... ...
ROW 40 : ... .. B ... ... ... : ... .. B ... ... ... : ... .. . ... : ... .. 4 ... : ... .. . ... ... : ... .. 6 ... ... : G-5 01 5 P82 ... : ... .. 8 ... ...
ROW 41 : ... .. 2 ... ... ... : ... .. 2 ... ... ... : ... .. . ... : ... .. . ... : ... .. . ... ... : ... .. 5 ... ... : ... .. . P7F ... : ... .. . ... ...
ROW 42 : ... .. . ... ... ... : ... .. . ... ... ... : --- .. . ... : ... .. 0 ... : ... .. . ... ... : ... .. . ... ... : F#5 01 5 P80 ... : ... .. . ... ...
ROW 43 : ... .. D ... ... ... : ... .. D ... ... ... : G-2 00 . ... : ... .. . ... : ... .. . ... ... : A-3 01 8 ... ... : ... .. . P7F ... : A#1 01 F ... ...
ROW 44 : ... .. C ... ... ... : ... .. C ... ... ... : ... .. . ... : ... .. 8 ... : ... .. . ... ... : ... .. 7 ... ... : ... .. . P81 ... : ... .. D ... ...
ROW 45 : ... .. B ... ... ... : ... .. B ... ... ... : ... .. . ... : ... .. 3 ... : ... .. . ... ... : ... .. 6 ... ... : G-5 01 5 P80 ... : ... .. 8 ... ...
ROW 46 : ... .. 2 ... ... ... : ... .. 2 ... ... ... : ... .. . ... : ... .. . ... : ... .. . ... ... : ... .. 5 ... ... : G#5 01 5 P7F ... : ... .. . ... ...
ROW 47 : ... .. . ... ... ... : ... .. . ... ... ... : --- .. . ... : ... .. 0 ... : ... .. . ... ... : ... .. . ... ... : A-5 01 5 ... ... : ... .. . ... ...
ROW 48 : A#3 00 D ... V00 ... : D-4 00 D ... V00 ... : F#4 00 . ... : 2-# 00 F ... : ... .. . ... ... : A#4 01 8 ... ... : A#5 01 A P80 ... : A#3 01 F ... ...
ROW 49 : ... .. C ... ... ... : ... .. C ... ... ... : G#3 00 . ... : ... .. C ... : ... .. . ... ... : ... .. 7 ... ... : ... .. 9 ... ... : ... .. D ... ...
ROW 4A : ... .. B ... ... ... : ... .. B ... ... ... : C#3 00 . ... : ... .. 6 ... : ... .. . ... ... : ... .. 6 ... ... : ... .. 8 ... ... : ... .. 8 ... ...
ROW 4B : ... .. 2 ... ... ... : ... .. 2 ... ... ... : C-3 00 . ... : ... .. 3 ... : ... .. . ... ... : ... .. 5 ... ... : ... .. 7 ... ... : ... .. . ... ...
ROW 4C : ... .. . ... ... ... : ... .. . ... ... ... : G-2 00 . ... : ... .. 2 ... : ... .. . ... ... : ... .. . ... ... : ... .. . ... ... : ... .. . ... ...
ROW 4D : ... .. D ... ... ... : ... .. D ... ... ... : ... .. . ... : ... .. 0 ... : ... .. . ... ... : G-4 01 8 ... ... : ... .. 6 ... ... : A-3 01 F ... ...
ROW 4E : ... .. C ... ... ... : ... .. C ... ... ... : ... .. . ... : B-# 00 8 ... : ... .. . ... ... : ... .. 7 ... ... : ... .. . ... ... : ... .. D ... ...
ROW 4F : ... .. B ... ... ... : ... .. B ... ... ... : ... .. . ... : ... .. 3 ... : ... .. . ... ... : ... .. 6 ... ... : ... .. 5 ... ... : ... .. 8 ... ...
ROW 50 : ... .. 2 ... ... ... : ... .. 2 ... ... ... : ... .. . ... : ... .. . ... : ... .. . ... ... : ... .. 5 ... ... : ... .. . ... ... : ... .. . ... ...
ROW 51 : ... .. . ... ... ... : ... .. . ... ... ... : --- .. . ... : ... .. 0 ... : ... .. . ... ... : ... .. . ... ... : ... .. . ... ... : ... .. . ... ...
ROW 52 : ... .. D ... ... ... : ... .. D ... ... ... : G#4 00 . ... : 2-# 00 F ... : ... .. . ... ... : D-4 01 8 ... ... : ... .. . ... ... : G-3 01 F ... ...
ROW 53 : ... .. C ... ... ... : ... .. C ... ... ... : A#3 00 . ... : ... .. C ... : ... .. . ... ... : ... .. 7 ... ... : ... .. . ... ... : ... .. D ... ...
ROW 54 : ... .. B ... ... ... : ... .. B ... ... ... : D#3 00 . ... : ... .. 6 ... : ... .. . ... ... : ... .. 6 ... ... : ... .. . ... ... : ... .. 8 ... ...
ROW 55 : ... .. 2 ... ... ... : ... .. 2 ... ... ... : D-3 00 . ... : ... .. 3 ... : ... .. . ... ... : ... .. 5 ... ... : ... .. . ... ... : ... .. . ... ...
ROW 56 : ... .. . ... ... ... : ... .. . ... ... ... : A-2 00 . ... : ... .. 2 ... : ... .. . ... ... : ... .. . ... ... : ... .. . ... ... : ... .. . ... ...
ROW 57 : ... .. D ... ... ... : ... .. D ... ... ... : ... .. . ... : ... .. 0 ... : ... .. . ... ... : A#3 01 8 ... ... : ... .. . ... ... : D-3 01 F ... ...
ROW 58 : ... .. C ... ... ... : ... .. C ... ... ... : ... .. . ... : B-# 00 8 ... : ... .. . ... ... : ... .. 7 ... ... : ... .. . ... ... : ... .. D ... ...
ROW 59 : ... .. B ... ... ... : ... .. B ... ... ... : ... .. . ... : ... .. 3 ... : ... .. . ... ... : ... .. 6 ... ... : ... .. . ... ... : ... .. 8 ... ...
ROW 5A : ... .. 2 ... ... ... : ... .. 2 ... ... ... : ... .. . ... : ... .. . ... : ... .. . ... ... : ... .. 5 ... ... : ... .. 4 ... ... : ... .. . ... ...
ROW 5B : ... .. . ... ... ... : ... .. . ... ... ... : --- .. . ... : ... .. 0 ... : ... .. . ... ... : ... .. . ... ... : ... .. . ... ... : ... .. . ... ...
ROW 5C : G-3 00 D ... V01 ... : A#3 00 D ... V01 ... : A-4 00 . ... : 7-# 00 F ... : ... .. . ... ... : G-4 01 8 ... ... : B-5 01 4 P81 ... : A#2 01 F ... ...
ROW 5D : ... .. C ... ... ... : ... .. C ... ... ... : B-3 00 . ... : ... .. C ... : ... .. . ... ... : ... .. 7 ... ... : C-6 01 4 P7F ... : ... .. D ... ...
ROW 5E : ... .. B ... ... ... : ... .. B ... ... ... : E-3 00 . ... : ... .. A ... : ... .. . ... ... : ... .. 6 ... ... : B-5 01 4 P82 ... : ... .. 8 ... ...
ROW 5F : ... .. 2 ... ... ... : ... .. 2 ... ... ... : D#3 00 . ... : ... .. 8 ... : ... .. . ... ... : ... .. 5 ... ... : ... .. . P7F ... : ... .. . ... ...
ROW 60 : ... .. . ... ... ... : ... .. . ... ... ... : A#2 00 . ... : ... .. 7 ... : ... .. . ... ... : ... .. . ... ... : A-5 01 4 P82 ... : ... .. . ... ...
ROW 61 : ... .. D ... ... ... : ... .. D ... ... ... : ... .. . ... : ... .. 0 ... : ... .. . ... ... : D-4 01 8 ... ... : ... .. . P7F ... : G-2 01 F ... ...
ROW 62 : ... .. C ... ... ... : ... .. C ... ... ... : ... .. . ... : B-# 00 6 ... : ... .. . ... ... : ... .. 7 ... ... : G#5 01 4 P81 ... : ... .. D ... ...
ROW 63 : ... .. B ... ... ... : ... .. B ... ... ... : ... .. . ... : ... .. 2 ... : ... .. . ... ... : ... .. 6 ... ... : A-5 01 4 P80 ... : ... .. 8 ... ...
ROW 64 : ... .. 2 ... ... ... : ... .. 2 ... ... ... : ... .. . ... : ... .. . ... : ... .. . ... ... : ... .. 5 ... ... : A#5 01 4 ... ... : ... .. . ... ...
ROW 65 : ... .. . ... ... ... : ... .. . ... ... ... : --- .. . ... : ... .. 0 ... : ... .. . ... ... : ... .. . ... ... : B-5 01 4 ... ... : ... .. . ... ...
ROW 66 : ... .. D ... ... ... : ... .. D ... ... ... : F#4 00 . ... : ... .. . ... : ... .. . ... ... : A#3 01 8 ... ... : C-6 01 4 P7F ... : D-2 01 F ... ...
ROW 67 : ... .. C ... ... ... : ... .. C ... ... ... : G#3 00 . ... : ... .. A ... : ... .. . ... ... : ... .. 7 ... ... : ... .. . ... ... : ... .. D ... ...
ROW 68 : ... .. B ... ... ... : ... .. B ... ... ... : C#3 00 . ... : ... .. 4 ... : ... .. . ... ... : ... .. 6 ... ... : B-5 01 4 ... ... : ... .. 8 ... ...
ROW 69 : ... .. 2 ... ... ... : ... .. 2 ... ... ... : C-3 00 . ... : ... .. . ... : ... .. . ... ... : ... .. 5 ... ... : A#5 01 4 ... ... : ... .. . ... ...
ROW 6A : ... .. . ... ... ... : ... .. . ... ... ... : G-2 00 . ... : ... .. 0 ... : ... .. . ... ... : ... .. . ... ... : A-5 01 4 ... ... : ... .. . ... ...
ROW 6B : ... .. D ... ... ... : ... .. D ... ... ... : ... .. . ... : ... .. . ... : ... .. . ... ... : G-3 01 8 ... ... : G#5 01 3 P81 ... : A#1 01 F ... ...
ROW 6C : ... .. C ... ... ... : ... .. C ... ... ... : ... .. . ... : ... .. 8 ... : ... .. . ... ... : ... .. 7 ... ... : A-5 01 3 P80 ... : ... .. D ... ...
ROW 6D : ... .. B ... ... ... : ... .. B ... ... ... : ... .. . ... : ... .. 3 ... : ... .. . ... ... : ... .. 6 ... ... : A#5 01 3 ... ... : ... .. 8 ... ...
ROW 6E : ... .. 2 ... ... ... : ... .. 2 ... ... ... : ... .. . ... : ... .. . ... : ... .. . ... ... : ... .. 5 ... ... : B-5 01 3 ... ... : ... .. . ... ...
ROW 6F : ... .. . ... ... ... : ... .. . ... ... ... : --- .. . ... : ... .. 0 ... : ... .. . ... ... : ... .. . ... ... : C-6 01 3 P7F ... : ... .. . ... ...
ROW 70 : A-3 00 D ... V02 ... : C#4 00 D ... V02 ... : G#5 00 . ... : 2-# 00 F ... : ... .. . ... ... : A-4 01 8 ... ... : A-5 01 7 P80 ... : A-3 01 F ... ...
ROW 71 : ... .. C ... ... ... : ... .. C ... ... ... : A#4 00 . ... : ... .. C ... : ... .. . ... ... : ... .. 7 ... ... : ... .. 6 ... ... : ... .. D ... ...
ROW 72 : ... .. B ... ... ... : ... .. B ... ... ... : D#4 00 . ... : ... .. 6 ... : ... .. . ... ... : ... .. 6 ... ... : ... .. 5 ... ... : ... .. 8 ... ...
ROW 73 : ... .. 2 ... ... ... : ... .. 2 ... ... ... : D-4 00 . ... : ... .. 3 ... : ... .. . ... ... : ... .. 5 ... ... : ... .. . ... ... : ... .. . ... ...
ROW 74 : ... .. . ... ... ... : ... .. . ... ... ... : A-3 00 . ... : ... .. 2 ... : ... .. . ... ... : ... .. . ... ... : ... .. . ... ... : ... .. . ... ...
ROW 75 : ... .. D ... ... ... : ... .. D ... ... ... : ... .. . ... : ... .. 0 ... : ... .. . ... ... : E-4 01 8 ... ... : ... .. 4 ... ... : G-3 01 F ... ...
ROW 76 : ... .. C ... ... ... : ... .. C ... ... ... : ... .. . ... : B-# 00 8 ... : ... .. . ... ... : ... .. 7 ... ... : ... .. . ... ... : ... .. D ... ...
ROW 77 : ... .. B ... ... ... : ... .. B ... ... ... : ... .. . ... : ... .. 3 ... : ... .. . ... ... : ... .. 6 ... ... : ... .. 3 ... ... : ... .. 8 ... ...
ROW 78 : ... .. 2 ... ... ... : ... .. 2 ... ... ... : ... .. . ... : ... .. . ... : ... .. . ... ... : ... .. 5 ... ... : ... .. 4 ... ... : ... .. . ... ...
ROW 79 : ... .. . ... ... ... : ... .. . ... ... ... : ... .. . ... : ... .. 0 ... : ... .. . ... ... : ... .. . ... ... : ... .. . ... ... : ... .. . ... ...
ROW 7A : ... .. D ... ... ... : ... .. D ... ... ... : G-3 00 . P7F : 2-# 00 F ... : ... .. . ... ... : C#4 01 8 ... ... : ... .. . ... ... : E-3 01 F ... ...
ROW 7B : ... .. C ... ... ... : ... .. C ... ... ... : F-3 00 . P82 : ... .. C ... : ... .. . ... ... : ... .. 7 ... ... : ... .. . ... ... : ... .. D ... ...
ROW 7C : ... .. B ... ... ... : ... .. B ... ... ... : D#3 00 . P8A : ... .. 6 ... : ... .. . ... ... : ... .. 6 ... ... : ... .. . ... ... : ... .. 8 ... ...
ROW 7D : ... .. 2 ... ... ... : ... .. 2 ... ... ... : D-3 00 . P7F : ... .. 3 ... : ... .. . ... ... : ... .. 5 ... ... : ... .. . ... ... : ... .. . ... ...
ROW 7E : ... .. . ... ... ... : ... .. . ... ... ... : C#3 00 . P76 : ... .. 2 ... : ... .. . ... ... : ... .. . ... ... : ... .. . ... ... : ... .. . ... ...
ROW 7F : ... .. D ... ... ... : ... .. D ... ... ... : B-2 00 . P87 : ... .. 0 ... : ... .. . ... ... : A-3 01 8 ... ... : ... .. . ... ... : C#3 01 F ... ...
ROW 80 : ... .. C ... ... ... : ... .. C ... ... ... : A#2 00 . P82 : B-# 00 8 ... : ... .. . ... ... : ... .. 7 ... ... : ... .. . ... ... : ... .. D ... ...
ROW 81 : ... .. B ... ... ... : ... .. B ... ... ... : A-2 00 . P7E : ... .. 3 ... : ... .. . ... ... : ... .. 6 ... ... : ... .. . ... ... : ... .. 8 ... ...
ROW 82 : ... .. 2 ... ... ... : ... .. 2 ... ... ... : G#2 00 . P7D : ... .. . ... : ... .. . ... ... : ... .. 5 ... ... : ... .. . ... ... : ... .. . ... ...
ROW 83 : ... .. . ... ... ... : ... .. . ... ... ... : --- .. . ... : ... .. 0 ... : ... .. . ... ... : ... .. . ... ... : ... .. . ... ... : ... .. . ... ...
ROW 84 : G#3 00 D ... V03 ... : C-4 00 D ... V03 ... : G-3 00 . P80 : 7-# 00 F ... : ... .. . ... ... : G#4 01 8 ... ... : A#5 01 4 ... ... : A-2 01 F ... ...
ROW 85 : ... .. C ... ... ... : ... .. C ... ... ... : ... .. . ... : ... .. C ... : ... .. . ... ... : ... .. 7 ... ... : B-5 01 4 P7F ... : ... .. D ... ...
ROW 86 : ... .. B ... ... ... : ... .. B ... ... ... : ... .. . ... : ... .. A ... : ... .. . ... ... : ... .. 6 ... ... : A#5 01 4 P81 ... : ... .. 8 ... ...
ROW 87 : ... .. 2 ... ... ... : ... .. 2 ... ... ... : ... .. . ... : ... .. 8 ... : ... .. . ... ... : ... .. 5 ... ... : A-5 01 4 P82 ... : ... .. . ... ...
ROW 88 : ... .. . ... ... ... : ... .. . ... ... ... : --- .. . ... : ... .. 7 ... : ... .. . ... ... : ... .. . ... ... : G#5 01 4 P81 ... : ... .. . ... ...
ROW 89 : ... .. D ... ... ... : ... .. D ... ... ... : G-3 00 . ... : ... .. 0 ... : ... .. . ... ... : D#4 01 8 ... ... : G-5 01 5 P82 ... : G-2 01 F ... ...
ROW 8A : ... .. C ... ... ... : ... .. C ... ... ... : ... .. . ... : B-# 00 6 ... : ... .. . ... ... : ... .. 7 ... ... : ... .. . P81 ... : ... .. D ... ...
ROW 8B : ... .. B ... ... ... : ... .. B ... ... ... : ... .. . ... : ... .. 2 ... : ... .. . ... ... : ... .. 6 ... ... : G#5 01 5 P7F ... : ... .. 8 ... ...
ROW 8C : ... .. 2 ... ... ... : ... .. 2 ... ... ... : ... .. . ... : ... .. . ... : ... .. . ... ... : ... .. 5 ... ... : A-5 01 5 P80 ... : ... .. . ... ...
ROW 8D : ... .. . ... ... ... : ... .. . ... ... ... : --- .. . ... : ... .. 0 ... : ... .. . ... ... : ... .. . ... ... : A#5 01 5 P7F ... : ... .. . ... ...
ROW 8E : ... .. D ... ... ... : ... .. D ... ... ... : G-3 00 . ... : ... .. . ... : ... .. . ... ... : C-4 01 8 ... ... : B-5 01 5 ... ... : E-2 01 F ... ...
ROW 8F : ... .. C ... ... ... : ... .. C ... ... ... : ... .. . ... : ... .. A ... : ... .. . ... ... : ... .. 7 ... ... : ... .. . ... ... : ... .. D ... ...
ROW 90 : ... .. B ... ... ... : ... .. B ... ... ... : ... .. . ... : ... .. 4 ... : ... .. . ... ... : ... .. 6 ... ... : A-5 01 5 P82 ... : ... .. 8 ... ...
ROW 91 : ... .. 2 ... ... ... : ... .. 2 ... ... ... : ... .. . ... : ... .. . ... : ... .. . ... ... : ... .. 5 ... ... : ... .. . P7F ... : ... .. . ... ...
ROW 92 : ... .. . ... ... ... : ... .. . ... ... ... : --- .. . ... : ... .. 0 ... : ... .. . ... ... : ... .. . ... ... : G-5 01 5 P82 ... : ... .. . ... ...
ROW 93 : ... .. D ... ... ... : ... .. D ... ... ... : G-3 00 . ... : ... .. . ... : ... .. . ... ... : G#3 01 8 ... ... : ... .. . P81 ... : C#2 01 F ... ...
ROW 94 : ... .. C ... ... ... : ... .. C ... ... ... : ... .. . ... : ... .. 8 ... : ... .. . ... ... : ... .. 7 ... ... : G#5 01 5 P7F ... : ... .. D ... ...
ROW 95 : ... .. B ... ... ... : ... .. B ... ... ... : ... .. . ... : ... .. 3 ... : ... .. . ... ... : ... .. 6 ... ... : A-5 01 5 P80 ... : ... .. 8 ... ...
ROW 96 : ... .. 2 ... ... ... : ... .. 2 ... ... ... : ... .. . ... : ... .. . ... : ... .. . ... ... : ... .. 5 ... ... : A#5 01 5 P7F ... : ... .. . ... ...
ROW 97 : ... .. . ... ... ... : ... .. . ... ... ... : --- .. . ... : ... .. 0 ... : ... .. . ... ... : ... .. . ... ... : B-5 01 5 ... ... : ... .. . ... ...
ROW 98 : A-3 00 D ... V01 ... : C#4 00 D ... V01 ... : G#4 00 . ... : 2-# 00 F ... : ... .. . ... ... : A-4 01 8 ... ... : E-5 01 A P80 ... : A-3 01 F ... ...
ROW 99 : ... .. C ... ... ... : ... .. C ... ... ... : A#3 00 . ... : ... .. C ... : ... .. . ... ... : ... .. 7 ... ... : ... .. 9 ... ... : ... .. D ... ...
ROW 9A : ... .. B ... ... ... : ... .. B ... ... ... : D#3 00 . ... : ... .. 6 ... : ... .. . ... ... : ... .. 6 ... ... : ... .. 8 ... ... : ... .. 8 ... ...
ROW 9B : ... .. 2 ... ... ... : ... .. 2 ... ... ... : D-3 00 . ... : ... .. 3 ... : ... .. . ... ... : ... .. 5 ... ... : ... .. 7 ... ... : ... .. . ... ...
ROW 9C : ... .. . ... ... ... : ... .. . ... ... ... : A-2 00 . ... : ... .. 2 ... : ... .. . ... ... : ... .. . ... ... : ... .. . ... ... : ... .. . ... ...
ROW 9D : ... .. D ... ... ... : ... .. D ... ... ... : ... .. . ... : ... .. 0 ... : ... .. . ... ... : E-4 01 8 ... ... : ... .. 6 ... ... : G-3 01 F ... ...
ROW 9E : ... .. C ... ... ... : ... .. C ... ... ... : ... .. . ... : B-# 00 8 ... : ... .. . ... ... : ... .. 7 ... ... : ... .. . ... ... : ... .. D ... ...
ROW 9F : ... .. B ... ... ... : ... .. B ... ... ... : ... .. . ... : ... .. 3 ... : ... .. . ... ... : ... .. 6 ... ... : ... .. 5 ... ... : ... .. 8 ... ...
ROW A0 : ... .. 2 ... ... ... : ... .. 2 ... ... ... : ... .. . ... : ... .. . ... : ... .. . ... ... : ... .. 5 ... ... : ... .. . ... ... : ... .. . ... ...
ROW A1 : ... .. . ... ... ... : ... .. . ... ... ... : --- .. . ... : ... .. 0 ... : ... .. . ... ... : ... .. . ... ... : ... .. . ... ... : ... .. . ... ...
ROW A2 : ... .. D ... ... ... : ... .. D ... ... ... : G#4 00 . ... : C-# 00 8 ... : ... .. . ... ... : C#4 01 8 ... ... : ... .. . ... ... : E-3 01 F ... ...
ROW A3 : ... .. C ... ... ... : ... .. C ... ... ... : A#3 00 . ... : ... .. 7 ... : ... .. . ... ... : ... .. 7 ... ... : ... .. . ... ... : ... .. D ... ...
ROW A4 : ... .. B ... ... ... : ... .. B ... ... ... : D#3 00 . ... : ... .. . ... : ... .. . ... ... : ... .. 6 ... ... : ... .. . ... ... : ... .. 8 ... ...
ROW A5 : ... .. 2 ... ... ... : ... .. 2 ... ... ... : D-3 00 . ... : ... .. 6 ... : ... .. . ... ... : ... .. 5 ... ... : ... .. . ... ... : ... .. . ... ...
ROW A6 : ... .. . ... ... ... : ... .. . ... ... ... : A-2 00 . ... : ... .. 5 ... : ... .. . ... ... : ... .. . ... ... : ... .. . ... ... : ... .. . ... ...
ROW A7 : ... .. D ... ... ... : ... .. D ... ... ... : ... .. . ... : ... .. 4 ... : ... .. . ... ... : A-3 01 8 ... ... : ... .. . ... ... : C#3 01 F ... ...
ROW A8 : ... .. C ... ... ... : ... .. C ... ... ... : ... .. . ... : ... .. . ... : ... .. . ... ... : ... .. 7 ... ... : ... .. . ... ... : ... .. D ... ...
ROW A9 : ... .. B ... ... ... : ... .. B ... ... ... : ... .. . ... : ... .. . ... : ... .. . ... ... : ... .. 6 ... ... : ... .. . ... ... : ... .. 8 ... ...
ROW AA : ... .. 2 ... ... ... : ... .. 2 ... ... ... : ... .. . ... : ... .. 3 ... : ... .. . ... ... : ... .. 5 ... ... : ... .. 4 ... ... : ... .. . ... ...
ROW AB : ... .. . ... ... ... : ... .. . ... ... ... : --- .. . ... : ... .. . ... : ... .. . ... ... : ... .. . ... ... : ... .. . ... ... : ... .. . ... ...
ROW AC : ... .. D ... V00 ... : ... .. D ... V00 ... : A-3 00 . ... : 7-# 00 F ... : ... .. . ... ... : E-3 01 8 ... ... : F-5 01 4 P7F ... : A-2 01 F ... ...
ROW AD : ... .. C ... ... ... : ... .. C ... ... ... : ... .. . ... : ... .. C ... : ... .. . ... ... : ... .. 7 ... ... : ... .. . P81 ... : ... .. D ... ...
ROW AE : ... .. B ... ... ... : ... .. B ... ... ... : ... .. . ... : ... .. A ... : ... .. . ... ... : ... .. 6 ... ... : ... .. . P80 ... : ... .. 8 ... ...
ROW AF : ... .. 2 ... ... ... : ... .. 2 ... ... ... : ... .. . ... : ... .. 8 ... : ... .. . ... ... : ... .. 5 ... ... : E-5 01 4 P82 ... : ... .. . ... ...
ROW B0 : ... .. . ... ... ... : ... .. . ... ... ... : --- .. . ... : ... .. 7 ... : ... .. . ... ... : ... .. . ... ... : ... .. . P7E ... : ... .. . ... ...
ROW B1 : ... .. D ... ... ... : ... .. D ... ... ... : A-3 00 . ... : ... .. 0 ... : ... .. . ... ... : A-3 01 8 ... ... : D#5 01 4 P80 ... : G-2 01 F ... ...
ROW B2 : ... .. C ... ... ... : ... .. C ... ... ... : ... .. . ... : B-# 00 6 ... : ... .. . ... ... : ... .. 7 ... ... : ... .. . P7F ... : ... .. D ... ...
ROW B3 : ... .. B ... ... ... : ... .. B ... ... ... : ... .. . ... : ... .. 2 ... : ... .. . ... ... : ... .. 6 ... ... : ... .. . P81 ... : ... .. 8 ... ...
ROW B4 : ... .. 2 ... ... ... : ... .. 2 ... ... ... : ... .. . ... : ... .. . ... : ... .. . ... ... : ... .. 5 ... ... : E-5 01 4 P80 ... : ... .. . ... ...
ROW B5 : ... .. . ... ... ... : ... .. . ... ... ... : --- .. . ... : ... .. 0 ... : ... .. . ... ... : ... .. . ... ... : F-5 01 4 P7E ... : ... .. . ... ...
ROW B6 : ... .. D ... ... ... : ... .. D ... ... ... : A-3 00 . ... : ... .. . ... : ... .. . ... ... : ... .. 8 ... ... : ... .. . P81 ... : E-2 01 F ... ...
ROW B7 : ... .. C ... ... ... : ... .. C ... ... ... : ... .. . ... : ... .. A ... : ... .. . ... ... : ... .. 7 ... ... : ... .. . ... ... : ... .. D ... ...
ROW B8 : ... .. B ... ... ... : ... .. B ... ... ... : ... .. . ... : ... .. 4 ... : ... .. . ... ... : ... .. 6 ... ... : E-5 01 4 P82 ... : ... .. 8 ... ...
ROW B9 : ... .. 2 ... ... ... : ... .. 2 ... ... ... : ... .. . ... : ... .. . ... : ... .. . ... ... : ... .. 5 ... ... : ... .. . P7F ... : ... .. . ... ...
ROW BA : ... .. . ... ... ... : ... .. . ... ... ... : --- .. . ... : ... .. 0 ... : ... .. . ... ... : ... .. . ... ... : D#5 01 4 P80 ... : ... .. . ... ...
ROW BB : ... .. D ... ... ... : ... .. D ... ... ... : A-3 00 . ... : ... .. . ... : ... .. . ... ... : C#4 01 8 ... ... : ... .. 3 P7F ... : C#2 01 F ... ...
ROW BC : ... .. C ... ... ... : ... .. C ... ... ... : ... .. . ... : ... .. 8 ... : ... .. . ... ... : ... .. 7 ... ... : ... .. . P81 ... : ... .. D ... ...
ROW BD : ... .. B ... ... ... : ... .. B ... ... ... : ... .. . ... : ... .. 3 ... : ... .. . ... ... : ... .. 6 ... ... : E-5 01 3 P80 ... : ... .. 8 ... ...
ROW BE : ... .. 2 ... ... ... : ... .. 2 ... ... ... : ... .. . ... : ... .. . ... : ... .. . ... ... : ... .. 5 ... ... : F-5 01 3 P7E ... : ... .. . ... ...
ROW BF : ... .. . ... ... ... : ... .. . ... ... ... : --- .. . ... : ... .. 0 ... : ... .. . ... ... : ... .. . ... ... : ... .. . P81 ... : ... .. . ... ...
ROW C0 : G#3 00 D ... V01 ... : C-4 00 D ... V01 ... : G-4 00 . ... : ... .. . ... : ... .. . ... ... : C-4 01 8 ... ... : D#5 01 7 P80 ... : G#3 01 F ... ...
ROW C1 : ... .. C ... ... ... : ... .. C ... ... ... : A-3 00 . ... : 2-# 00 F ... : ... .. . ... ... : ... .. 7 ... ... : ... .. 6 ... ... : ... .. D ... ...
ROW C2 : ... .. B ... ... ... : ... .. B ... ... ... : D-3 00 . ... : ... .. 6 ... : ... .. . ... ... : ... .. 6 ... ... : ... .. 5 ... ... : ... .. 8 ... ...
ROW C3 : ... .. 2 ... ... ... : ... .. 2 ... ... ... : C#3 00 . ... : ... .. . ... : ... .. . ... ... : ... .. 5 ... ... : ... .. . ... ... : ... .. . ... ...
ROW C4 : ... .. . ... ... ... : ... .. . ... ... ... : G#2 00 . ... : ... .. 0 ... : ... .. . ... ... : ... .. . ... ... : ... .. . ... ... : ... .. . ... ...
ROW C5 : ... .. D ... ... ... : ... .. D ... ... ... : ... .. . ... : ... .. . ... : ... .. . ... ... : G#3 01 8 ... ... : ... .. 4 ... ... : D#3 01 F ... ...
ROW C6 : ... .. C ... ... ... : ... .. C ... ... ... : ... .. . ... : B-# 00 6 ... : ... .. . ... ... : ... .. 7 ... ... : ... .. . ... ... : ... .. D ... ...
ROW C7 : ... .. B ... ... ... : ... .. B ... ... ... : ... .. . ... : ... .. 2 ... : ... .. . ... ... : ... .. 6 ... ... : ... .. 3 ... ... : ... .. 8 ... ...
ROW C8 : ... .. 2 ... ... ... : ... .. 2 ... ... ... : ... .. . ... : ... .. . ... : ... .. . ... ... : ... .. 5 ... ... : ... .. 4 ... ... : ... .. . ... ...
ROW C9 : ... .. . ... ... ... : ... .. . ... ... ... : --- .. . ... : ... .. 0 ... : ... .. . ... ... : ... .. . ... ... : ... .. . ... ... : ... .. . ... ...
ROW CA : ... .. D ... ... ... : ... .. D ... ... ... : G-4 00 . ... : ... .. . ... : ... .. . ... ... : D#3 01 8 ... ... : ... .. . ... ... : C-3 01 F ... ...
ROW CB : ... .. C ... ... ... : ... .. C ... ... ... : A-3 00 . ... : ... .. A ... : ... .. . ... ... : ... .. 7 ... ... : ... .. . ... ... : ... .. D ... ...
ROW CC : ... .. B ... ... ... : ... .. B ... ... ... : D-3 00 . ... : ... .. 4 ... : ... .. . ... ... : ... .. 6 ... ... : ... .. . ... ... : ... .. 8 ... ...
ROW CD : ... .. 2 ... ... ... : ... .. 2 ... ... ... : C#3 00 . ... : ... .. . ... : ... .. . ... ... : ... .. 5 ... ... : ... .. . ... ... : ... .. . ... ...
ROW CE : ... .. . ... ... ... : ... .. . ... ... ... : G#2 00 . ... : ... .. 0 ... : ... .. . ... ... : ... .. . ... ... : ... .. . ... ... : ... .. . ... ...
ROW CF : ... .. D ... ... ... : ... .. D ... ... ... : ... .. . ... : ... .. . ... : ... .. . ... ... : C-3 01 8 ... ... : ... .. . ... ... : G#2 01 F ... ...
ROW D0 : ... .. C ... ... ... : ... .. C ... ... ... : ... .. . ... : ... .. 8 ... : ... .. . ... ... : ... .. 7 ... ... : ... .. . ... ... : ... .. D ... ...
ROW D1 : ... .. B ... ... ... : ... .. B ... ... ... : ... .. . ... : ... .. 3 ... : ... .. . ... ... : ... .. 6 ... ... : ... .. . ... ... : ... .. 8 ... ...
ROW D2 : ... .. 2 ... ... ... : ... .. 2 ... ... ... : ... .. . ... : ... .. . ... : ... .. . ... ... : ... .. 5 ... ... : ... .. . ... ... : ... .. . ... ...
ROW D3 : ... .. . ... ... ... : ... .. . ... ... ... : --- .. . ... : ... .. 0 ... : ... .. . ... ... : ... .. . ... ... : ... .. . ... ... : ... .. . ... ...
ROW D4 : ... .. D ... V02 ... : ... .. D ... V02 ... : F#3 00 . ... : 7-# 00 F ... : ... .. . ... ... : D#4 01 8 ... ... : E-5 01 4 P7F ... : D#2 01 F ... ...
ROW D5 : ... .. C ... ... ... : ... .. C ... ... ... : ... .. . ... : ... .. C ... : ... .. . ... ... : ... .. 7 ... ... : ... .. . P81 ... : ... .. D ... ...
ROW D6 : ... .. B ... ... ... : ... .. B ... ... ... : ... .. . ... : ... .. A ... : ... .. . ... ... : ... .. 6 ... ... : ... .. . P80 ... : ... .. 8 ... ...
ROW D7 : ... .. 2 ... ... ... : ... .. 2 ... ... ... : ... .. . ... : ... .. 8 ... : ... .. . ... ... : ... .. 5 ... ... : D#5 01 4 P82 ... : ... .. . ... ...
ROW D8 : ... .. . ... ... ... : ... .. . ... ... ... : --- .. . ... : ... .. 7 ... : ... .. . ... ... : ... .. . ... ... : ... .. . P7E ... : ... .. . ... ...
ROW D9 : ... .. D ... ... ... : ... .. D ... ... ... : F#3 00 . ... : ... .. 0 ... : ... .. . ... ... : C-4 01 8 ... ... : D-5 01 5 P80 ... : C-2 01 F ... ...
ROW DA : ... .. C ... ... ... : ... .. C ... ... ... : ... .. . ... : B-# 00 6 ... : ... .. . ... ... : ... .. 7 ... ... : ... .. . P7F ... : ... .. D ... ...
ROW DB : ... .. B ... ... ... : ... .. B ... ... ... : ... .. . ... : ... .. 2 ... : ... .. . ... ... : ... .. 6 ... ... : ... .. . P81 ... : ... .. 8 ... ...
ROW DC : ... .. 2 ... ... ... : ... .. 2 ... ... ... : ... .. . ... : ... .. . ... : ... .. . ... ... : ... .. 5 ... ... : D#5 01 5 P80 ... : ... .. . ... ...
ROW DD : ... .. . ... ... ... : ... .. . ... ... ... : --- .. . ... : ... .. 0 ... : ... .. . ... ... : ... .. . ... ... : E-5 01 5 P7E ... : ... .. . ... ...
ROW DE : ... .. D ... ... ... : ... .. D ... ... ... : F#3 00 . ... : ... .. . ... : ... .. . ... ... : G#3 01 8 ... ... : ... .. . P81 ... : G#1 01 F ... ...
ROW DF : ... .. C ... ... ... : ... .. C ... ... ... : ... .. . ... : ... .. A ... : ... .. . ... ... : ... .. 7 ... ... : ... .. . ... ... : ... .. D ... ...
ROW E0 : ... .. B ... ... ... : ... .. B ... ... ... : ... .. . ... : ... .. 4 ... : ... .. . ... ... : ... .. 6 ... ... : D#5 01 5 P82 ... : ... .. 8 ... ...
ROW E1 : ... .. 2 ... ... ... : ... .. 2 ... ... ... : ... .. . ... : ... .. . ... : ... .. . ... ... : ... .. 5 ... ... : ... .. . P7F ... : ... .. . ... ...
ROW E2 : ... .. . ... ... ... : ... .. . ... ... ... : --- .. . ... : ... .. 0 ... : ... .. . ... ... : ... .. . ... ... : D-5 01 5 P80 ... : ... .. . ... ...
ROW E3 : ... .. D ... ... ... : ... .. D ... ... ... : F#3 00 . ... : ... .. . ... : ... .. . ... ... : D#3 01 8 ... ... : ... .. . P7F ... : D#1 01 F ... ...
ROW E4 : ... .. C ... ... ... : ... .. C ... ... ... : ... .. . ... : ... .. 8 ... : ... .. . ... ... : ... .. 7 ... ... : ... .. . P81 ... : ... .. D ... ...
ROW E5 : ... .. B ... ... ... : ... .. B ... ... ... : ... .. . ... : ... .. 3 ... : ... .. . ... ... : ... .. 6 ... ... : D#5 01 5 P80 ... : ... .. 8 ... ...
ROW E6 : ... .. 2 ... ... ... : ... .. 2 ... ... ... : ... .. . ... : ... .. . ... : ... .. . ... ... : ... .. 5 ... ... : E-5 01 5 P7E ... : ... .. . ... ...
ROW E7 : ... .. . ... ... ... : ... .. . ... ... ... : --- .. . ... : ... .. 0 ... : ... .. . ... ... : ... .. . ... ... : ... .. . P81 ... : ... .. . ... ...
ROW E8 : C-4 00 D ... V00 ... : D#4 00 D ... V00 ... : G-4 00 . ... : 2-# 00 F ... : ... .. . ... ... : G#4 01 8 ... ... : G#5 01 A P80 ... : F#3 01 F ... ...
ROW E9 : ... .. C ... ... ... : ... .. C ... ... ... : A-3 00 . ... : ... .. C ... : ... .. . ... ... : ... .. 7 ... ... : ... .. 9 ... ... : ... .. D ... ...
ROW EA : ... .. B ... ... ... : ... .. B ... ... ... : D-3 00 . ... : ... .. 6 ... : ... .. . ... ... : ... .. 6 ... ... : ... .. 8 ... ... : ... .. 8 ... ...
ROW EB : ... .. 2 ... ... ... : ... .. 2 ... ... ... : C#3 00 . ... : ... .. 3 ... : ... .. . ... ... : ... .. 5 ... ... : ... .. 7 ... ... : ... .. . ... ...
ROW EC : ... .. . ... ... ... : ... .. . ... ... ... : G#2 00 . ... : ... .. 2 ... : ... .. . ... ... : ... .. . ... ... : ... .. . ... ... : ... .. . ... ...
ROW ED : ... .. D ... ... ... : ... .. D ... ... ... : ... .. . ... : ... .. 0 ... : ... .. . ... ... : D#4 01 8 ... ... : ... .. 6 ... ... : D#3 01 F ... ...
ROW EE : ... .. C ... ... ... : ... .. C ... ... ... : ... .. . ... : B-# 00 8 ... : ... .. . ... ... : ... .. 7 ... ... : ... .. . ... ... : ... .. D ... ...
ROW EF : ... .. B ... ... ... : ... .. B ... ... ... : ... .. . ... : ... .. 3 ... : ... .. . ... ... : ... .. 6 ... ... : ... .. 5 ... ... : ... .. 8 ... ...
ROW F0 : ... .. 2 ... ... ... : ... .. 2 ... ... ... : ... .. . ... : ... .. . ... : ... .. . ... ... : ... .. 5 ... ... : ... .. . ... ... : ... .. . ... ...
ROW F1 : ... .. . ... ... ... : ... .. . ... ... ... : --- .. . ... : ... .. 0 ... : ... .. . ... ... : ... .. . ... ... : ... .. . ... ... : ... .. . ... ...
ROW F2 : ... .. D ... ... ... : ... .. D ... ... ... : G-4 00 . ... : 2-# 00 F ... : ... .. . ... ... : C-4 01 8 ... ... : ... .. . ... ... : C-3 01 F ... ...
ROW F3 : ... .. C ... ... ... : ... .. C ... ... ... : A-3 00 . ... : ... .. C ... : ... .. . ... ... : ... .. 7 ... ... : ... .. . ... ... : ... .. D ... ...
ROW F4 : ... .. B ... ... ... : ... .. B ... ... ... : D-3 00 . ... : ... .. 6 ... : ... .. . ... ... : ... .. 6 ... ... : ... .. . ... ... : ... .. 8 ... ...
ROW F5 : ... .. 2 ... ... ... : ... .. 2 ... ... ... : C#3 00 . ... : ... .. 3 ... : ... .. . ... ... : ... .. 5 ... ... : ... .. . ... ... : ... .. . ... ...
ROW F6 : ... .. . ... ... ... : ... .. . ... ... ... : G#2 00 . ... : ... .. 2 ... : ... .. . ... ... : ... .. . ... ... : ... .. . ... ... : ... .. . ... ...
ROW F7 : ... .. D ... ... ... : ... .. D ... ... ... : ... .. . ... : ... .. 0 ... : ... .. . ... ... : G#3 01 8 ... ... : ... .. . ... ... : G#2 01 F ... ...
ROW F8 : ... .. C ... ... ... : ... .. C ... ... ... : ... .. . ... : B-# 00 8 ... : ... .. . ... ... : ... .. 7 ... ... : ... .. . ... ... : ... .. D ... ...
ROW F9 : ... .. B ... ... ... : ... .. B ... ... ... : ... .. . ... : ... .. 3 ... : ... .. . ... ... : ... .. 6 ... ... : ... .. . ... ... : ... .. 8 ... ...
ROW FA : ... .. 2 ... ... ... : ... .. 2 ... ... ... : ... .. . ... : ... .. . ... : ... .. . ... ... : ... .. 5 ... ... : ... .. 4 ... ... : ... .. . ... ...
ROW FB : ... .. . ... ... ... : ... .. . ... ... ... : --- .. . ... : ... .. 0 ... : ... .. . ... ... : ... .. . ... ... : ... .. . ... ... : ... .. . ... ...
ROW FC : ... .. D ... V01 ... : ... .. D ... V01 ... : D-4 00 . ... : 7-# 00 F ... : ... .. . ... ... : D#4 01 8 ... ... : A-5 01 4 P81 ... : F#2 01 F ... ...
ROW FD : ... .. C ... ... ... : ... .. C ... ... ... : ... .. . ... : ... .. C ... : ... .. . ... ... : ... .. 7 ... ... : A#5 01 4 P7F ... : ... .. D ... ...
ROW FE : ... .. B ... ... ... : ... .. B ... ... ... : ... .. . ... : ... .. A ... : ... .. . ... ... : ... .. 6 ... ... : A-5 01 4 P82 ... : ... .. 8 ... ...
ROW FF : ... .. 2 ... ... ... : ... .. 2 ... ... ... : ... .. . ... : ... .. 8 ... : ... .. . ... ... : ... .. 5 ... ... : ... .. . P7F ... : ... .. . ... ...

PATTERN 18
ROW 00 : ... .. . ... ... ... : ... .. . ... ... ... : --- .. . ... : ... .. 7 ... : ... .. . ... ... : ... .. . ... ... : G-5 01 4 P82 ... : ... .. . ... ...
ROW 01 : ... .. D ... ... ... : ... .. D ... ... ... : D-4 00 . ... : ... .. 0 ... : ... .. . ... ... : G#4 01 8 ... ... : ... .. . P7F ... : D#2 01 F ... ...
ROW 02 : ... .. C ... ... ... : ... .. C ... ... ... : ... .. . ... : B-# 00 6 ... : ... .. . ... ... : ... .. 7 ... ... : ... .. . P7E ... : ... .. D ... ...
ROW 03 : ... .. B ... ... ... : ... .. B ... ... ... : ... .. . ... : ... .. 2 ... : ... .. . ... ... : ... .. 6 ... ... : ... .. . P80 ... : ... .. 8 ... ...
ROW 04 : ... .. 2 ... ... ... : ... .. 2 ... ... ... : ... .. . ... : ... .. . ... : ... .. . ... ... : ... .. 5 ... ... : G#5 01 4 ... ... : ... .. . ... ...
ROW 05 : ... .. . ... ... ... : ... .. . ... ... ... : --- .. . ... : ... .. 0 ... : ... .. . ... ... : ... .. . ... ... : A-5 01 4 ... ... : ... .. . ... ...
ROW 06 : ... .. D ... ... ... : ... .. D ... ... ... : D-3 00 . ... : ... .. . ... : ... .. . ... ... : ... .. 8 ... ... : A#5 01 4 P7F ... : C-2 01 F ... ...
ROW 07 : ... .. C ... ... ... : ... .. C ... ... ... : ... .. . ... : ... .. A ... : ... .. . ... ... : ... .. 7 ... ... : ... .. . ... ... : ... .. D ... ...
ROW 08 : ... .. B ... ... ... : ... .. B ... ... ... : ... .. . ... : ... .. 4 ... : ... .. . ... ... : ... .. 6 ... ... : A-5 01 4 ... ... : ... .. 8 ... ...
ROW 09 : ... .. 2 ... ... ... : ... .. 2 ... ... ... : ... .. . ... : ... .. . ... : ... .. . ... ... : ... .. 5 ... ... : G#5 01 4 ... ... : ... .. . ... ...
ROW 0A : ... .. . ... ... ... : ... .. . ... ... ... : --- .. . ... : ... .. 0 ... : ... .. . ... ... : ... .. . ... ... : G-5 01 4 ... ... : ... .. . ... ...
ROW 0B : ... .. D ... ... ... : ... .. D ... ... ... : D-3 00 . ... : ... .. . ... : ... .. . ... ... : C-5 01 8 ... ... : ... .. 3 P7E ... : G#1 01 F ... ...
ROW 0C : ... .. C ... ... ... : ... .. C ... ... ... : ... .. . ... : ... .. 8 ... : ... .. . ... ... : ... .. 7 ... ... : ... .. . P80 ... : ... .. D ... ...
ROW 0D : ... .. B ... ... ... : ... .. B ... ... ... : ... .. . ... : ... .. 3 ... : ... .. . ... ... : ... .. 6 ... ... : G#5 01 3 ... ... : ... .. 8 ... ...
ROW 0E : ... .. 2 ... ... ... : ... .. 2 ... ... ... : ... .. . ... : ... .. . ... : ... .. . ... ... : ... .. 5 ... ... : A-5 01 3 ... ... : ... .. . ... ...
ROW 0F : ... .. . ... ... ... : ... .. . ... ... ... : --- .. . ... : ... .. 0 ... : ... .. . ... ... : ... .. . ... ... : A#5 01 3 P7F ... : ... .. . ... ...
ROW 10 : D-3 00 D ... V02 ... : D-4 00 D ... V02 ... : C#4 00 . ... : 9-# 00 D ... : ... .. . ... ... : A#4 01 8 ... ... : A#3 01 7 P80 ... : F#3 01 F ... ...
ROW 11 : ... .. C ... ... ... : ... .. C ... ... ... : D#3 00 . ... : ... .. . ... : ... .. . ... ... : ... .. 7 ... ... : ... .. 6 ... ... : ... .. D ... ...
ROW 12 : ... .. B ... ... ... : ... .. B ... ... ... : G#2 00 . ... : ... .. . ... : ... .. . ... ... : ... .. 6 ... ... : ... .. 5 ... ... : ... .. 8 ... ...
ROW 13 : ... .. 2 ... ... ... : ... .. 2 ... ... ... : G-2 00 . ... : ... .. B ... : ... .. . ... ... : ... .. 5 ... ... : ... .. . ... ... : ... .. . ... ...
ROW 14 : ... .. . ... ... ... : ... .. . ... ... ... : D-2 00 . ... : ... .. . ... : ... .. . ... ... : ... .. . ... ... : ... .. . ... ... : ... .. . ... ...
ROW 15 : ... .. D ... ... ... : ... .. D ... ... ... : ... .. . ... : ... .. A ... : ... .. . ... ... : G-4 01 8 ... ... : ... .. 7 ... ... : E-3 01 8 P8B ...
ROW 16 : ... .. C ... ... ... : ... .. C ... ... ... : ... .. . ... : ... .. . ... : ... .. . ... ... : ... .. 7 ... ... : ... .. 6 ... ... : D#3 01 8 P82 ...
ROW 17 : ... .. B ... ... ... : ... .. B ... ... ... : ... .. . ... : ... .. . ... : ... .. . ... ... : ... .. 6 ... ... : ... .. 5 ... ... : D-3 01 8 P7A ...
ROW 18 : ... .. 2 ... ... ... : ... .. 2 ... ... ... : ... .. . ... : ... .. 9 ... : ... .. . ... ... : ... .. 5 ... ... : ... .. . ... ... : C#3 01 8 P74 ...
ROW 19 : ... .. . ... ... ... : ... .. . ... ... ... : --- .. . ... : ... .. . ... : ... .. . ... ... : ... .. . ... ... : ... .. . ... ... : B-2 01 8 P8D ...
ROW 1A : F#3 00 D ... ... ... : ... .. D ... ... ... : C#4 00 . ... : ... .. 7 ... : ... .. . ... ... : D-4 01 8 ... ... : D-4 01 7 ... ... : D-2 01 F P81 ...
ROW 1B : ... .. C ... ... ... : ... .. C ... ... ... : D#3 00 . ... : ... .. . ... : ... .. . ... ... : ... .. 7 ... ... : ... .. 6 ... ... : ... .. D ... ...
ROW 1C : ... .. B ... ... ... : ... .. B ... ... ... : G#2 00 . ... : ... .. . ... : ... .. . ... ... : ... .. 6 ... ... : ... .. 5 ... ... : ... .. 8 ... ...
ROW 1D : ... .. 2 ... ... ... : ... .. 2 ... ... ... : G-2 00 . ... : ... .. 6 ... : ... .. . ... ... : ... .. 5 ... ... : ... .. 6 ... ... : ... .. . ... ...
ROW 1E : ... .. . ... ... ... : ... .. . ... ... ... : D-2 00 . ... : ... .. . ... : ... .. . ... ... : ... .. . ... ... : ... .. . ... ... : ... .. . ... ...
ROW 1F : ... .. D ... ... ... : ... .. D ... ... ... : ... .. . ... : ... .. 5 ... : ... .. . ... ... : A#3 01 8 ... ... : ... .. 7 ... ... : ... .. F ... ...
ROW 20 : ... .. C ... ... ... : ... .. C ... ... ... : ... .. . ... : ... .. . ... : ... .. . ... ... : ... .. 7 ... ... : ... .. 6 ... ... : ... .. D ... ...
ROW 21 : ... .. B ... ... ... : ... .. B ... ... ... : ... .. . ... : ... .. . ... : ... .. . ... ... : ... .. 6 ... ... : ... .. 5 ... ... : ... .. 8 ... ...
ROW 22 : ... .. 2 ... ... ... : ... .. 2 ... ... ... : ... .. . ... : ... .. 4 ... : ... .. . ... ... : ... .. 5 ... ... : ... .. 6 ... ... : ... .. . ... ...
ROW 23 : ... .. . ... ... ... : ... .. . ... ... ... : --- .. . ... : ... .. . ... : ... .. . ... ... : ... .. . ... ... : ... .. . ... ... : ... .. . ... ...
ROW 24 : A#3 00 D ... V03 ... : ... .. D ... V03 ... : D-3 00 . ... : 7-# 00 F ... : ... .. . ... ... : A-4 01 8 ... ... : F#4 01 7 ... ... : F#2 01 F ... ...
ROW 25 : ... .. C ... ... ... : ... .. C ... ... ... : ... .. . ... : ... .. C ... : ... .. . ... ... : ... .. 7 ... ... : ... .. 6 ... ... : ... .. D ... ...
ROW 26 : ... .. B ... ... ... : ... .. B ... ... ... : ... .. . ... : ... .. A ... : ... .. . ... ... : ... .. 6 ... ... : ... .. 5 ... ... : ... .. 8 ... ...
ROW 27 : ... .. 2 ... ... ... : ... .. 2 ... ... ... : ... .. . ... : ... .. 8 ... : ... .. . ... ... : ... .. 5 ... ... : ... .. 6 ... ... : ... .. . ... ...
ROW 28 : ... .. . ... ... ... : ... .. . ... ... ... : --- .. . ... : ... .. 7 ... : ... .. . ... ... : ... .. . ... ... : ... .. . ... ... : ... .. . ... ...
ROW 29 : ... .. D ... ... ... : ... .. D ... ... ... : D-3 00 . ... : ... .. 0 ... : ... .. . ... ... : F#4 01 8 ... ... : ... .. 7 ... ... : ... .. F ... ...
ROW 2A : ... .. C ... ... ... : ... .. C ... ... ... : ... .. . ... : B-# 00 6 ... : ... .. . ... ... : ... .. 7 ... ... : ... .. 6 ... ... : ... .. D ... ...
ROW 2B : ... .. B ... ... ... : ... .. B ... ... ... : ... .. . ... : ... .. 2 ... : ... .. . ... ... : ... .. 6 ... ... : ... .. 5 ... ... : ... .. 8 ... ...
ROW 2C : ... .. 2 ... ... ... : ... .. 2 ... ... ... : ... .. . ... : ... .. . ... : ... .. . ... ... : ... .. 5 ... ... : ... .. 7 ... ... : ... .. . ... ...
ROW 2D : ... .. . ... ... ... : ... .. . ... ... ... : --- .. . ... : ... .. 0 ... : ... .. . ... ... : ... .. . ... ... : ... .. . ... ... : ... .. . ... ...
ROW 2E : F#3 00 D ... ... ... : ... .. D ... ... ... : D-3 00 . ... : 9-# 00 D ... : ... .. . ... ... : C#4 01 8 ... ... : D-4 01 7 ... ... : A#2 01 F ... ...
ROW 2F : ... .. C ... ... ... : ... .. C ... ... ... : ... .. . ... : ... .. . ... : ... .. . ... ... : ... .. 7 ... ... : ... .. 6 ... ... : ... .. D ... ...
ROW 30 : ... .. B ... ... ... : ... .. B ... ... ... : ... .. . ... : ... .. . ... : ... .. . ... ... : ... .. 6 ... ... : ... .. 5 ... ... : ... .. 8 ... ...
ROW 31 : ... .. 2 ... ... ... : ... .. 2 ... ... ... : ... .. . ... : ... .. B ... : ... .. . ... ... : ... .. 5 ... ... : ... .. 7 ... ... : ... .. . ... ...
ROW 32 : ... .. . ... ... ... : ... .. . ... ... ... : --- .. . ... : ... .. . ... : ... .. . ... ... : ... .. . ... ... : ... .. . ... ... : ... .. . ... ...
ROW 33 : ... .. D ... ... ... : ... .. D ... ... ... : D-3 00 . ... : ... .. A ... : ... .. . ... ... : A-3 01 8 ... ... : ... .. . ... ... : ... .. F ... ...
ROW 34 : ... .. C ... ... ... : ... .. C ... ... ... : ... .. . ... : ... .. . ... : ... .. . ... ... : ... .. 7 ... ... : ... .. 6 ... ... : ... .. D ... ...
ROW 35 : ... .. B ... ... ... : ... .. B ... ... ... : ... .. . ... : ... .. . ... : ... .. . ... ... : ... .. 6 ... ... : ... .. 5 ... ... : ... .. 8 ... ...
ROW 36 : ... .. 2 ... ... ... : ... .. 2 ... ... ... : ... .. . ... : ... .. 9 ... : ... .. . ... ... : ... .. 5 ... ... : ... .. 7 ... ... : ... .. . ... ...
ROW 37 : ... .. . ... ... ... : ... .. . ... ... ... : --- .. . ... : ... .. . ... : ... .. . ... ... : ... .. . ... ... : ... .. . ... ... : ... .. . ... ...
ROW 38 : A#3 00 D ... V01 ... : ... .. D ... V01 ... : C#6 00 . ... : ... .. 7 ... : ... .. . ... ... : A#4 01 8 ... ... : F#4 01 7 ... ... : F#2 01 F ... ...
ROW 39 : ... .. C ... ... ... : ... .. C ... ... ... : D#5 00 . ... : ... .. . ... : ... .. . ... ... : ... .. 7 ... ... : ... .. 6 ... ... : ... .. D ... ...
ROW 3A : ... .. B ... ... ... : ... .. B ... ... ... : G#4 00 . ... : ... .. . ... : ... .. . ... ... : ... .. 6 ... ... : ... .. 5 ... ... : ... .. 8 ... ...
ROW 3B : ... .. 2 ... ... ... : ... .. 2 ... ... ... : G-4 00 . ... : ... .. 6 ... : ... .. . ... ... : ... .. 5 ... ... : ... .. 7 ... ... : ... .. . ... ...
ROW 3C : ... .. . ... ... ... : ... .. . ... ... ... : D-4 00 . ... : ... .. . ... : ... .. . ... ... : ... .. . ... ... : ... .. . ... ... : ... .. . ... ...
ROW 3D : ... .. D ... ... ... : C-4 00 D ... ... ... : ... .. . ... : ... .. 5 ... : ... .. . ... ... : G-4 01 8 ... ... : ... .. . ... ... : ... .. F ... ...
ROW 3E : ... .. C ... ... ... : ... .. C ... ... ... : ... .. . ... : ... .. . ... : ... .. . ... ... : ... .. 7 ... ... : ... .. 6 ... ... : ... .. D ... ...
ROW 3F : ... .. B ... ... ... : ... .. B ... ... ... : ... .. . ... : ... .. . ... : ... .. . ... ... : ... .. 6 ... ... : ... .. 5 ... ... : ... .. 8 ... ...
ROW 40 : ... .. 2 ... ... ... : ... .. 2 ... ... ... : ... .. . ... : ... .. 4 ... : ... .. . ... ... : ... .. 5 ... ... : ... .. 7 ... ... : ... .. . ... ...
ROW 41 : ... .. . ... ... ... : ... .. . ... ... ... : --- .. . ... : ... .. . ... : ... .. . ... ... : ... .. . ... ... : ... .. . ... ... : ... .. . ... ...
ROW 42 : D-4 00 D ... ... ... : A#3 00 D ... ... ... : A#3 00 . ... : ... .. 0 ... : ... .. . ... ... : D-4 01 8 ... ... : A#4 01 7 ... ... : A#2 01 F ... ...
ROW 43 : ... .. C ... ... ... : ... .. C ... ... ... : ... .. . ... : B-# 00 8 ... : ... .. . ... ... : ... .. 7 ... ... : ... .. 6 ... ... : ... .. D ... ...
ROW 44 : ... .. B ... ... ... : ... .. B ... ... ... : ... .. . ... : ... .. 3 ... : ... .. . ... ... : ... .. 6 ... ... : ... .. 5 ... ... : ... .. 8 ... ...
ROW 45 : ... .. 2 ... ... ... : ... .. 2 ... ... ... : ... .. . ... : ... .. . ... : ... .. . ... ... : ... .. 5 ... ... : ... .. 7 ... ... : ... .. . ... ...
ROW 46 : ... .. . ... ... ... : ... .. . ... ... ... : --- .. . ... : ... .. 0 ... : ... .. . ... ... : ... .. . ... ... : ... .. . ... ... : ... .. . ... ...
ROW 47 : ... .. D ... ... ... : A-3 00 D ... ... ... : A#3 00 . ... : ... .. . ... : ... .. . ... ... : A#3 01 8 ... ... : ... .. . ... ... : ... .. F ... ...
ROW 48 : ... .. C ... ... ... : ... .. C ... ... ... : ... .. . ... : ... .. 6 ... : ... .. . ... ... : ... .. 7 ... ... : ... .. 6 ... ... : ... .. D ... ...
ROW 49 : ... .. B ... ... ... : ... .. B ... ... ... : ... .. . ... : ... .. 2 ... : ... .. . ... ... : ... .. 6 ... ... : ... .. 5 ... ... : ... .. 8 ... ...
ROW 4A : ... .. 2 ... ... ... : ... .. 2 ... ... ... : ... .. . ... : ... .. . ... : ... .. . ... ... : ... .. 5 ... ... : ... .. 6 ... ... : ... .. . ... ...
ROW 4B : ... .. . ... ... ... : ... .. . ... ... ... : --- .. . ... : ... .. 0 ... : ... .. . ... ... : ... .. . ... ... : ... .. . ... ... : ... .. . ... ...
ROW 4C : F#4 00 D ... V00 ... : G-3 00 D ... V00 ... : F#3 00 . ... : 7-# 00 F ... : ... .. . ... ... : D-6 01 8 ... ... : D-5 01 7 ... ... : D-3 01 F ... ...
ROW 4D : ... .. C ... ... ... : ... .. C ... ... ... : ... .. . ... : ... .. C ... : ... .. . ... ... : ... .. 7 ... ... : ... .. 6 ... ... : ... .. D ... ...
ROW 4E : ... .. B ... ... ... : ... .. B ... ... ... : ... .. . ... : ... .. A ... : ... .. . ... ... : ... .. 6 ... ... : ... .. 5 ... ... : ... .. 8 ... ...
ROW 4F : ... .. 2 ... ... ... : ... .. 2 ... ... ... : ... .. . ... : ... .. 0 ... : ... .. . ... ... : ... .. 5 ... ... : ... .. 6 ... ... : ... .. . ... ...
ROW 50 : ... .. . ... ... ... : ... .. . ... ... ... : --- .. . ... : ... .. . ... : ... .. . ... ... : ... .. . ... ... : ... .. . ... ... : ... .. . ... ...
ROW 51 : ... .. D ... ... ... : F#3 00 D ... ... ... : F#3 00 . ... : 6-# 00 F ... : ... .. . ... ... : D-5 01 8 ... ... : ... .. 7 ... ... : ... .. F ... ...
ROW 52 : ... .. C ... ... ... : ... .. C ... ... ... : ... .. . ... : ... .. C ... : ... .. . ... ... : ... .. 7 ... ... : ... .. 6 ... ... : ... .. D ... ...
ROW 53 : ... .. B ... ... ... : ... .. B ... ... ... : ... .. . ... : ... .. A ... : ... .. . ... ... : ... .. 6 ... ... : ... .. 5 ... ... : ... .. 8 ... ...
ROW 54 : ... .. 2 ... ... ... : ... .. 2 ... ... ... : ... .. . ... : ... .. 0 ... : ... .. . ... ... : ... .. 5 ... ... : ... .. 6 ... ... : ... .. . ... ...
ROW 55 : ... .. . ... ... ... : ... .. . ... ... ... : --- .. . ... : ... .. . ... : ... .. . ... ... : ... .. . ... ... : ... .. . ... ... : ... .. . ... ...
ROW 56 : A#4 00 D ... ... ... : G-3 00 D ... ... ... : D-3 00 . ... : 5-# 00 F ... : ... .. . ... ... : D-4 01 8 ... ... : F#5 01 7 ... ... : F#3 01 F ... ...
ROW 57 : ... .. C ... ... ... : ... .. C ... ... ... : ... .. . ... : ... .. C ... : ... .. . ... ... : ... .. 7 ... ... : ... .. 6 ... ... : ... .. D ... ...
ROW 58 : ... .. B ... ... ... : ... .. B ... ... ... : ... .. . ... : ... .. A ... : ... .. . ... ... : ... .. 6 ... ... : ... .. 5 ... ... : ... .. 8 ... ...
ROW 59 : ... .. 2 ... ... ... : ... .. 2 ... ... ... : ... .. . ... : ... .. 0 ... : ... .. . ... ... : ... .. 5 ... ... : ... .. . ... ... : ... .. . ... ...
ROW 5A : ... .. . ... ... ... : ... .. . ... ... ... : --- .. . ... : ... .. . ... : ... .. . ... ... : ... .. . ... ... : ... .. . ... ... : ... .. . ... ...
ROW 5B : ... .. D ... ... ... : A-3 00 D ... ... ... : D-3 00 . ... : 4-# 00 F ... : ... .. . ... ... : D-3 01 8 ... ... : ... .. 7 ... ... : ... .. F ... ...
ROW 5C : ... .. C ... ... ... : ... .. C ... ... ... : ... .. . ... : ... .. C ... : ... .. . ... ... : ... .. 7 ... ... : ... .. 6 ... ... : ... .. D ... ...
ROW 5D : ... .. B ... ... ... : ... .. B ... ... ... : ... .. . ... : ... .. A ... : ... .. . ... ... : ... .. 6 ... ... : ... .. 5 ... ... : ... .. 8 ... ...
ROW 5E : ... .. 2 ... ... ... : ... .. 2 ... ... ... : ... .. . ... : ... .. 8 ... : ... .. . ... ... : ... .. 5 ... ... : ... .. . ... ... : ... .. . ... ...
ROW 5F : ... .. . ... ... ... : ... .. . ... ... ... : --- .. . ... : ... .. 7 ... : ... .. . ... ... : ... .. . ... ... : ... .. . ... ... : ... .. . ... ...
ROW 60 : G-3 00 7 P80 ... ... : G-2 00 F ... ... ... : F#4 00 . ... : 9-# 00 D ... : ... .. . ... ... : A#3 01 9 ... V05 : D-4 01 9 P7F V05 : G-5 01 F ... ...
ROW 61 : ... .. A ... ... ... : ... .. E ... ... ... : G#3 00 . ... : ... .. . ... : ... .. . ... ... : ... .. 8 ... ... : ... .. 8 ... ... : ... .. D ... ...
ROW 62 : ... .. 7 ... ... ... : ... .. D ... ... ... : C#3 00 . ... : ... .. . ... : ... .. . ... ... : ... .. . ... ... : ... .. . ... ... : ... .. 8 ... ...
ROW 63 : ... .. 0 ... ... ... : ... .. A ... ... ... : C-3 00 . ... : ... .. B ... : ... .. . ... ... : ... .. 7 ... ... : ... .. 7 ... ... : ... .. 7 ... ...
ROW 64 : G-3 00 5 P80 ... ... : ... .. . ... ... ... : G-2 00 . ... : ... .. . ... : ... .. . ... ... : ... .. 6 ... ... : ... .. 6 ... ... : ... .. . ... ...
ROW 65 : F-3 00 7 ... ... ... : ... .. . ... ... ... : ... .. . ... : ... .. A ... : ... .. . ... ... : ... .. . ... ... : ... .. . ... ... : ... .. 6 ... ...
ROW 66 : ... .. A ... ... ... : ... .. . ... ... ... : ... .. . ... : ... .. . ... : ... .. . ... ... : ... .. . ... ... : ... .. . ... ... : ... .. . ... ...
ROW 67 : ... .. 7 ... ... ... : ... .. . ... ... ... : ... .. . ... : ... .. . ... : ... .. . ... ... : ... .. 5 ... ... : ... .. 5 ... ... : ... .. . ... ...
ROW 68 : ... .. 0 ... ... ... : ... .. . ... ... ... : ... .. . ... : ... .. 9 ... : ... .. . ... ... : ... .. . ... ... : ... .. . ... ... : ... .. . ... ...
ROW 69 : F-3 00 5 P80 ... ... : ... .. . ... ... ... : ... .. . ... : ... .. . ... : ... .. . ... ... : ... .. . ... ... : ... .. . ... ... : ... .. . ... ...
ROW 6A : C#3 00 7 ... ... ... : ... .. . ... ... ... : ... .. . ... : ... .. 7 ... : ... .. . ... ... : ... .. 4 ... ... : ... .. 4 ... ... : ... .. . ... ...
ROW 6B : ... .. A ... ... ... : ... .. . ... ... ... : ... .. . ... : ... .. . ... : ... .. . ... ... : ... .. . ... ... : ... .. . ... ... : ... .. . ... ...
ROW 6C : ... .. 7 ... ... ... : ... .. . ... ... ... : ... .. . ... : ... .. . ... : ... .. . ... ... : ... .. . ... ... : ... .. . ... ... : ... .. . ... ...
ROW 6D : ... .. 0 ... ... ... : F#2 00 A P82 ... ... : F#2 00 . P82 : ... .. 6 ... : ... .. . ... ... : ... .. . ... ... : ... .. . ... ... : ... .. 5 ... ...
ROW 6E : C#3 00 5 P80 ... ... : F-2 00 A P86 ... ... : F-2 00 . P86 : ... .. . ... : ... .. . ... ... : ... .. . ... ... : ... .. . ... ... : ... .. . ... ...
ROW 6F : B-2 00 7 ... ... ... : E-2 00 A P8C ... ... : E-2 00 . P8C : ... .. 5 ... : ... .. . ... ... : A-3 01 4 P7E ... : C#4 01 4 P7B ... : E-5 01 5 P80 ...
ROW 70 : ... .. A ... ... ... : D#2 00 A P94 ... ... : D#2 00 . P94 : ... .. . ... : ... .. . ... ... : G#3 01 4 P7D ... : B-3 01 4 P83 ... : C#5 01 5 P82 ...
ROW 71 : ... .. 7 ... ... ... : ... .. . P74 ... ... : ... .. . P74 : ... .. . ... : ... .. . ... ... : G-3 01 4 ... ... : A#3 01 4 P81 ... : B-4 01 5 P80 ...
ROW 72 : ... .. 0 ... ... ... : D-2 00 A P7F ... ... : D-2 00 . P7F : ... .. 4 ... : ... .. . ... ... : F#3 01 4 P7E ... : A-3 01 4 P7F ... : A-4 01 5 ... ...
ROW 73 : B-2 00 5 P80 ... ... : C#2 00 A P8C ... ... : C#2 00 . P8C : ... .. . ... : ... .. . ... ... : F-3 01 4 P80 ... : G#3 01 4 P7E ... : G-4 01 5 P82 ...
ROW 74 : G-3 00 7 ... ... ... : F-2 00 F P80 ... ... : F-2 00 . P80 : 7-# 00 F ... : ... .. . ... ... : E-3 01 3 P83 ... : G-3 01 3 ... ... : F#4 01 4 P7C ...
ROW 75 : ... .. A ... ... ... : ... .. E ... ... ... : ... .. . ... : ... .. C ... : ... .. . ... ... : D#3 01 3 P88 ... : F#3 01 3 P7F ... : E-4 01 4 P81 ...
ROW 76 : ... .. 7 ... ... ... : ... .. D ... ... ... : ... .. . ... : ... .. A ... : ... .. . ... ... : ... .. . P78 ... : F-3 01 3 P81 ... : D#4 01 4 P7C ...
ROW 77 : ... .. 0 ... ... ... : ... .. A ... ... ... : ... .. . ... : ... .. 8 ... : ... .. . ... ... : D-3 01 3 P7D ... : E-3 01 3 P84 ... : C#4 01 4 P86 ...
ROW 78 : G-3 00 5 P80 ... ... : ... .. . ... ... ... : ... .. . ... : ... .. 7 ... : ... .. . ... ... : C#3 01 3 P84 ... : D#3 01 3 P89 ... : C-4 01 4 P83 ...
ROW 79 : F-3 00 7 ... ... ... : ... .. . ... ... ... : ... .. . ... : ... .. 0 ... : ... .. . ... ... : C-3 01 3 P8C ... : ... .. . P79 ... : B-3 01 4 P82 ...
ROW 7A : ... .. A ... ... ... : ... .. . ... ... ... : ... .. . ... : B-# 00 6 ... : ... .. . ... ... : ... .. . P7C ... : D-3 01 3 P7E ... : A#3 01 4 P81 ...
ROW 7B : ... .. 7 ... ... ... : ... .. . ... ... ... : ... .. . ... : ... .. 2 ... : ... .. . ... ... : B-2 01 3 P85 ... : C#3 01 3 P85 ... : A-3 01 4 P82 ...
ROW 7C : ... .. 0 ... ... ... : ... .. . ... ... ... : ... .. . ... : ... .. . ... : ... .. . ... ... : ... .. . P75 ... : ... .. . P75 ... : G#3 01 4 P83 ...
ROW 7D : F-3 00 5 P80 ... ... : ... .. . ... ... ... : ... .. . ... : ... .. 0 ... : ... .. . ... ... : A#2 01 3 P80 ... : C-3 01 3 P7D ... : G-3 01 4 P85 ...
ROW 7E : C#3 00 7 ... ... ... : G-2 00 F ... ... ... : G-2 00 . ... : ... .. . ... : ... .. . ... ... : A-2 01 A ... V03 : E-3 01 A P7F V03 : C#4 01 A P81 ...
ROW 7F : ... .. A ... ... ... : ... .. E ... ... ... : ... .. . ... : ... .. A ... : ... .. . ... ... : ... .. 9 ... ... : ... .. 9 ... ... : ... .. 8 ... ...
ROW 80 : ... .. 7 ... ... ... : ... .. D ... ... ... : ... .. . ... : ... .. 4 ... : ... .. . ... ... : ... .. 8 ... ... : ... .. 8 ... ... : ... .. 5 ... ...
ROW 81 : ... .. 0 ... ... ... : ... .. A ... ... ... : ... .. . ... : ... .. . ... : ... .. . ... ... : ... .. 7 ... ... : ... .. 7 ... ... : ... .. . ... ...
ROW 82 : C#3 00 5 P80 ... ... : ... .. . ... ... ... : ... .. . ... : ... .. 0 ... : ... .. . ... ... : ... .. . ... ... : ... .. . ... ... : ... .. . ... ...
ROW 83 : B-2 00 7 ... ... ... : ... .. . ... ... ... : ... .. . ... : ... .. . ... : ... .. . ... ... : ... .. 6 ... ... : ... .. 6 ... ... : ... .. . ... ...
ROW 84 : ... .. A ... ... ... : ... .. . ... ... ... : ... .. . ... : ... .. 8 ... : ... .. . ... ... : ... .. . ... ... : ... .. . ... ... : ... .. . ... ...
ROW 85 : ... .. 7 ... ... ... : ... .. . ... ... ... : ... .. . ... : ... .. 3 ... : ... .. . ... ... : ... .. 5 ... ... : ... .. 5 ... ... : ... .. . ... ...
ROW 86 : ... .. 0 ... ... ... : ... .. . ... ... ... : ... .. . ... : ... .. . ... : ... .. . ... ... : ... .. 1 ... ... : ... .. 1 ... ... : ... .. 1 ... ...
ROW 87 : B-2 00 5 P80 ... ... : ... .. . ... ... ... : ... .. . ... : ... .. 0 ... : ... .. . ... ... : ... .. . ... ... : ... .. . ... ... : ... .. . ... ...
ROW 88 : G-3 00 7 ... ... ... : G-3 00 F ... ... ... : F#5 00 . ... : 2-# 00 F ... : ... .. . ... ... : ... .. 5 ... ... : ... .. 5 ... ... : ... .. 5 ... ...
ROW 89 : ... .. A ... ... ... : ... .. E ... ... ... : G#4 00 . ... : ... .. C ... : ... .. . ... ... : ... .. . ... ... : ... .. . ... ... : ... .. . ... ...
ROW 8A : ... .. 7 ... ... ... : ... .. D ... ... ... : C#4 00 . ... : ... .. 6 ... : ... .. . ... ... : ... .. . ... ... : ... .. . ... ... : ... .. . ... ...
ROW 8B : ... .. 0 ... ... ... : ... .. A ... ... ... : C-4 00 . ... : ... .. 3 ... : ... .. . ... ... : ... .. . ... ... : ... .. . ... ... : ... .. . ... ...
ROW 8C : G-3 00 5 P80 ... ... : ... .. . ... ... ... : G-3 00 . ... : ... .. 2 ... : ... .. . ... ... : ... .. . ... ... : ... .. . ... ... : ... .. . ... ...
ROW 8D : F-3 00 7 ... ... ... : ... .. . ... ... ... : ... .. . ... : ... .. 0 ... : ... .. . ... ... : ... .. 2 ... ... : ... .. 2 ... ... : ... .. 1 ... ...
ROW 8E : ... .. A ... ... ... : ... .. . ... ... ... : ... .. . ... : B-# 00 8 ... : ... .. . ... ... : ... .. . ... ... : ... .. . ... ... : ... .. . ... ...
ROW 8F : ... .. 7 ... ... ... : ... .. . ... ... ... : ... .. . ... : ... .. 3 ... : ... .. . ... ... : ... .. . ... ... : ... .. . ... ... : ... .. . ... ...
ROW 90 : ... .. 0 ... ... ... : ... .. . ... ... ... : ... .. . ... : ... .. . ... : ... .. . ... ... : ... .. 1 ... ... : ... .. 1 ... ... : ... .. . ... ...
ROW 91 : F-3 00 5 P80 ... ... : ... .. . ... ... ... : ... .. . ... : ... .. 0 ... : ... .. . ... ... : ... .. . ... ... : ... .. . ... ... : ... .. . ... ...
ROW 92 : C#3 00 7 ... ... ... : E-3 00 A P86 ... ... : E-3 00 . P86 : 2-# 00 F ... : ... .. . ... ... : G#2 01 A ... ... : D#3 01 A ... ... : C-4 01 A ... ...
ROW 93 : ... .. A ... ... ... : D-3 00 A P80 ... ... : D-3 00 . P80 : ... .. C ... : ... .. . ... ... : ... .. 9 ... ... : ... .. 9 ... ... : ... .. 8 ... ...
ROW 94 : ... .. 7 ... ... ... : C-3 00 A P7F ... ... : C-3 00 . P7F : ... .. 6 ... : ... .. . ... ... : ... .. 8 ... ... : ... .. 8 ... ... : ... .. 5 ... ...
ROW 95 : ... .. 0 ... ... ... : A#2 00 A P83 ... ... : A#2 00 . P83 : ... .. 3 ... : ... .. . ... ... : ... .. 7 ... ... : ... .. 7 ... ... : ... .. . ... ...
ROW 96 : C#3 00 5 P80 ... ... : G#2 00 A P8E ... ... : G#2 00 . P8E : ... .. 2 ... : ... .. . ... ... : ... .. . ... ... : ... .. . ... ... : ... .. . ... ...
ROW 97 : B-2 00 7 ... ... ... : G-2 00 A P7E ... ... : G-2 00 . P7E : ... .. 0 ... : ... .. . ... ... : ... .. 6 ... ... : ... .. 6 ... ... : ... .. . ... ...
ROW 98 : ... .. A ... ... ... : F#2 00 A P70 ... ... : F#2 00 . P70 : B-# 00 8 ... : ... .. . ... ... : ... .. . ... ... : ... .. . ... ... : ... .. . ... ...
ROW 99 : ... .. 7 ... ... ... : E-2 00 A P8A ... ... : E-2 00 . P8A : ... .. 3 ... : ... .. . ... ... : ... .. 5 ... ... : ... .. 5 ... ... : ... .. . ... ...
ROW 9A : ... .. 0 ... ... ... : D#2 00 A P82 ... ... : D#2 00 . P82 : ... .. . ... : ... .. . ... ... : ... .. 1 ... ... : ... .. 1 ... ... : ... .. 1 ... ...
ROW 9B : B-2 00 5 P80 ... ... : D-2 00 A P7D ... ... : D-2 00 . P7D : ... .. 0 ... : ... .. . ... ... : ... .. . ... ... : ... .. . ... ... : ... .. . ... ...
ROW 9C : G-3 00 7 ... ... ... : F-2 00 F P80 ... ... : F-2 00 . P80 : 7-# 00 F ... : ... .. . ... ... : ... .. 5 ... ... : ... .. 5 ... ... : ... .. 5 ... ...
ROW 9D : ... .. A ... ... ... : ... .. E ... ... ... : ... .. . ... : ... .. C ... : ... .. . ... ... : ... .. . ... ... : ... .. . ... ... : ... .. . ... ...
ROW 9E : ... .. 7 ... ... ... : ... .. D ... ... ... : ... .. . ... : ... .. A ... : ... .. . ... ... : ... .. . ... ... : ... .. . ... ... : ... .. . ... ...
ROW 9F : ... .. 0 ... ... ... : ... .. A ... ... ... : ... .. . ... : ... .. 8 ... : ... .. . ... ... : ... .. . ... ... : ... .. . ... ... : ... .. . ... ...
ROW A0 : G-3 00 5 P80 ... ... : ... .. . ... ... ... : ... .. . ... : ... .. 7 ... : ... .. . ... ... : ... .. . ... ... : ... .. . ... ... : ... .. . ... ...
ROW A1 : F-3 00 7 ... ... ... : ... .. . ... ... ... : ... .. . ... : ... .. 0 ... : ... .. . ... ... : ... .. . ... ... : ... .. . ... ... : ... .. . ... ...
ROW A2 : ... .. A ... ... ... : ... .. . ... ... ... : ... .. . ... : B-# 00 6 ... : ... .. . ... ... : ... .. . ... ... : ... .. . ... ... : ... .. . ... ...
ROW A3 : ... .. 7 ... ... ... : ... .. . ... ... ... : ... .. . ... : ... .. 2 ... : ... .. . ... ... : ... .. . ... ... : ... .. . ... ... : ... .. . ... ...
ROW A4 : ... .. 0 ... ... ... : ... .. . ... ... ... : ... .. . ... : ... .. . ... : ... .. . ... ... : ... .. 1 ... ... : ... .. 1 ... ... : ... .. 1 ... ...
ROW A5 : F-3 00 5 P80 ... ... : ... .. . ... ... ... : ... .. . ... : ... .. 0 ... : ... .. . ... ... : ... .. . ... ... : ... .. . ... ... : ... .. . ... ...
ROW A6 : C#3 00 7 ... ... ... : G-2 00 F ... ... ... : G-2 00 . ... : ... .. . ... : ... .. . ... ... : G-2 01 A ... ... : D-3 01 A ... ... : B-3 01 A ... ...
ROW A7 : ... .. A ... ... ... : ... .. E ... ... ... : ... .. . ... : ... .. A ... : ... .. . ... ... : ... .. 9 ... ... : ... .. 9 ... ... : ... .. 8 ... ...
ROW A8 : ... .. 7 ... ... ... : ... .. D ... ... ... : ... .. . ... : ... .. 4 ... : ... .. . ... ... : ... .. 8 ... ... : ... .. 8 ... ... : ... .. 5 ... ...
ROW A9 : ... .. 0 ... ... ... : ... .. A ... ... ... : ... .. . ... : ... .. . ... : ... .. . ... ... : ... .. 7 ... ... : ... .. 7 ... ... : ... .. . ... ...
ROW AA : C#3 00 5 P80 ... ... : ... .. . ... ... ... : ... .. . ... : ... .. 0 ... : ... .. . ... ... : ... .. . ... ... : ... .. . ... ... : ... .. . ... ...
ROW AB : B-2 00 7 ... ... ... : ... .. . ... ... ... : ... .. . ... : ... .. . ... : ... .. . ... ... : ... .. 6 ... ... : ... .. 6 ... ... : ... .. . ... ...
ROW AC : ... .. A ... ... ... : ... .. . ... ... ... : ... .. . ... : ... .. 8 ... : ... .. . ... ... : ... .. . ... ... : ... .. . ... ... : ... .. . ... ...
ROW AD : ... .. 7 ... ... ... : ... .. . ... ... ... : ... .. . ... : ... .. 3 ... : ... .. . ... ... : ... .. 5 ... ... : ... .. 5 ... ... : ... .. . ... ...
ROW AE : ... .. 0 ... ... ... : ... .. 0 ... ... ... : --- .. . ... : ... .. . ... : ... .. . ... ... : ... .. 1 ... ... : ... .. 1 ... ... : ... .. 1 ... ...
ROW AF : B-2 00 5 P80 ... ... : ... .. . ... ... ... : ... .. . ... : ... .. 0 ... : ... .. . ... ... : ... .. . ... ... : ... .. . ... ... : ... .. . ... ...
ROW B0 : G-3 00 7 ... ... ... : F-1 00 F P80 ... ... : E-3 00 . ... : 2-# 00 F ... : ... .. . ... ... : ... .. 5 ... ... : ... .. 5 ... ... : ... .. 5 ... ...
ROW B1 : ... .. A ... ... ... : ... .. E ... ... ... : F#2 00 . ... : ... .. C ... : ... .. . ... ... : ... .. . ... ... : ... .. . ... ... : ... .. . ... ...
ROW B2 : ... .. 7 ... ... ... : ... .. D ... ... ... : B-1 00 . ... : ... .. 6 ... : ... .. . ... ... : ... .. . ... ... : ... .. . ... ... : ... .. . ... ...
ROW B3 : ... .. 0 ... ... ... : ... .. A ... ... ... : A#1 00 . ... : ... .. 3 ... : ... .. . ... ... : ... .. . ... ... : ... .. . ... ... : ... .. . ... ...
ROW B4 : G-3 00 5 P80 ... ... : ... .. . ... ... ... : F-1 00 . ... : ... .. 2 ... : ... .. . ... ... : ... .. . ... ... : ... .. . ... ... : ... .. . ... ...
ROW B5 : F-3 00 7 ... ... ... : ... .. . ... ... ... : ... .. . ... : ... .. 0 ... : ... .. . ... ... : ... .. 2 ... ... : ... .. 2 ... ... : ... .. 1 ... ...
ROW B6 : ... .. A ... ... ... : ... .. . ... ... ... : ... .. . ... : B-# 00 8 ... : ... .. . ... ... : ... .. . ... ... : ... .. . ... ... : ... .. . ... ...
ROW B7 : ... .. 7 ... ... ... : ... .. . ... ... ... : ... .. . ... : ... .. 3 ... : ... .. . ... ... : ... .. . ... ... : ... .. . ... ... : ... .. . ... ...
ROW B8 : ... .. 0 ... ... ... : ... .. . ... ... ... : ... .. . ... : ... .. . ... : ... .. . ... ... : ... .. 1 ... ... : ... .. 1 ... ... : ... .. . ... ...
ROW B9 : F-3 00 5 P80 ... ... : ... .. . ... ... ... : ... .. . ... : ... .. 0 ... : ... .. . ... ... : ... .. . ... ... : ... .. . ... ... : ... .. . ... ...
ROW BA : C#3 00 7 ... ... ... : D-2 00 F ... ... ... : C#4 00 . ... : 2-# 00 F ... : ... .. . ... ... : F#2 01 A ... ... : C#3 01 A ... ... : A#3 01 A ... ...
ROW BB : ... .. A ... ... ... : ... .. E ... ... ... : D#3 00 . ... : ... .. C ... : ... .. . ... ... : ... .. 9 ... ... : ... .. 9 ... ... : ... .. 8 ... ...
ROW BC : ... .. 7 ... ... ... : ... .. D ... ... ... : G#2 00 . ... : ... .. 6 ... : ... .. . ... ... : ... .. 8 ... ... : ... .. 8 ... ... : ... .. 5 ... ...
ROW BD : ... .. 0 ... ... ... : ... .. A ... ... ... : G-2 00 . ... : ... .. 3 ... : ... .. . ... ... : ... .. 7 ... ... : ... .. 7 ... ... : ... .. . ... ...
ROW BE : C#3 00 5 P80 ... ... : ... .. . ... ... ... : D-2 00 . ... : ... .. 2 ... : ... .. . ... ... : ... .. . ... ... : ... .. . ... ... : ... .. . ... ...
ROW BF : B-2 00 7 ... ... ... : ... .. . ... ... ... : ... .. . ... : ... .. 0 ... : ... .. . ... ... : ... .. 6 ... ... : ... .. 6 ... ... : ... .. . ... ...
ROW C0 : ... .. A ... ... ... : ... .. . ... ... ... : ... .. . ... : B-# 00 8 ... : ... .. . ... ... : ... .. . ... ... : ... .. . ... ... : ... .. . ... ...
ROW C1 : ... .. 7 ... ... ... : ... .. . ... ... ... : ... .. . ... : ... .. 3 ... : ... .. . ... ... : ... .. 5 ... ... : ... .. 5 ... ... : ... .. . ... ...
ROW C2 : ... .. 0 ... ... ... : ... .. . ... ... ... : ... .. . ... : ... .. . ... : ... .. . ... ... : ... .. 1 ... ... : ... .. 1 ... ... : ... .. 1 ... ...
ROW C3 : B-2 00 5 P80 ... ... : ... .. . ... ... ... : ... .. . ... : ... .. 0 ... : ... .. . ... ... : ... .. . ... ... : ... .. . ... ... : ... .. . ... ...
ROW C4 : G-3 00 7 ... ... ... : C#2 00 F ... ... ... : C#2 00 . ... : 7-# 00 F ... : ... .. . ... ... : ... .. 5 ... ... : ... .. 5 ... ... : ... .. 5 ... ...
ROW C5 : ... .. A ... ... ... : ... .. E ... ... ... : ... .. . ... : ... .. C ... : ... .. . ... ... : ... .. . ... ... : ... .. . ... ... : ... .. . ... ...
ROW C6 : ... .. 7 ... ... ... : ... .. D ... ... ... : ... .. . ... : ... .. A ... : ... .. . ... ... : ... .. . ... ... : ... .. . ... ... : ... .. . ... ...
ROW C7 : ... .. 0 ... ... ... : ... .. A ... ... ... : ... .. . ... : ... .. 8 ... : ... .. . ... ... : ... .. . ... ... : ... .. . ... ... : ... .. . ... ...
ROW C8 : G-3 00 5 P80 ... ... : ... .. . ... ... ... : ... .. . ... : ... .. 7 ... : ... .. . ... ... : ... .. . ... ... : ... .. . ... ... : ... .. . ... ...
ROW C9 : F-3 00 7 ... ... ... : ... .. . ... ... ... : ... .. . ... : ... .. 0 ... : ... .. . ... ... : ... .. . ... ... : ... .. . ... ... : ... .. . ... ...
ROW CA : ... .. A ... ... ... : ... .. . ... ... ... : ... .. . ... : B-# 00 6 ... : ... .. . ... ... : ... .. . ... ... : ... .. . ... ... : ... .. . ... ...
ROW CB : ... .. 7 ... ... ... : ... .. . ... ... ... : ... .. . ... : ... .. 2 ... : ... .. . ... ... : ... .. . ... ... : ... .. . ... ... : ... .. . ... ...
ROW CC : ... .. 0 ... ... ... : ... .. . ... ... ... : ... .. . ... : ... .. . ... : ... .. . ... ... : ... .. 1 ... ... : ... .. 1 ... ... : ... .. 1 ... ...
ROW CD : F-3 00 5 P80 ... ... : ... .. . ... ... ... : ... .. . ... : ... .. 0 ... : ... .. . ... ... : ... .. . ... ... : ... .. . ... ... : ... .. . ... ...
ROW CE : C#3 00 7 ... ... ... : G-1 00 F ... ... ... : G-1 00 . ... : ... .. . ... : ... .. . ... ... : F-2 01 A ... ... : C-3 01 A ... ... : A-3 01 A ... ...
ROW CF : ... .. A ... ... ... : ... .. E ... ... ... : ... .. . ... : ... .. A ... : ... .. . ... ... : ... .. 9 ... ... : ... .. 9 ... ... : ... .. 8 ... ...
ROW D0 : ... .. 7 ... ... ... : ... .. D ... ... ... : ... .. . ... : ... .. 4 ... : ... .. . ... ... : ... .. 8 ... ... : ... .. 8 ... ... : ... .. 5 ... ...
ROW D1 : ... .. 0 ... ... ... : ... .. 0 ... ... ... : --- .. . ... : ... .. . ... : ... .. . ... ... : ... .. 7 ... ... : ... .. 7 ... ... : ... .. . ... ...
ROW D2 : C#3 00 5 P80 ... ... : ... .. . ... ... ... : ... .. . ... : ... .. 0 ... : ... .. . ... ... : ... .. . ... ... : ... .. . ... ... : ... .. . ... ...
ROW D3 : B-2 00 7 ... ... ... : G-1 00 F P80 ... ... : G-1 00 . ... : ... .. . ... : ... .. . ... ... : ... .. 6 ... ... : ... .. 6 ... ... : ... .. . ... ...
ROW D4 : ... .. A ... ... ... : ... .. E ... ... ... : ... .. . ... : ... .. 8 ... : ... .. . ... ... : ... .. . ... ... : ... .. . ... ... : ... .. . ... ...
ROW D5 : ... .. 7 ... ... ... : ... .. D ... ... ... : ... .. . ... : ... .. 3 ... : ... .. . ... ... : ... .. 5 ... ... : ... .. 5 ... ... : ... .. . ... ...
ROW D6 : ... .. 0 ... ... ... : ... .. 0 ... ... ... : --- .. . ... : ... .. . ... : ... .. . ... ... : ... .. 1 ... ... : ... .. 1 ... ... : ... .. 1 ... ...
ROW D7 : B-2 00 5 P80 ... ... : ... .. . ... ... ... : ... .. . ... : ... .. 0 ... : ... .. . ... ... : ... .. . ... ... : ... .. . ... ... : ... .. . ... ...
ROW D8 : G-3 00 7 ... ... ... : F-2 00 F P80 ... ... : E-4 00 . ... : 2-# 00 F ... : ... .. . ... ... : ... .. 5 ... ... : ... .. 5 ... ... : ... .. 5 ... ...
ROW D9 : ... .. A ... ... ... : ... .. E ... ... ... : F#3 00 . ... : ... .. C ... : ... .. . ... ... : ... .. . ... ... : ... .. . ... ... : ... .. . ... ...
ROW DA : ... .. 7 ... ... ... : ... .. D ... ... ... : B-2 00 . ... : ... .. 6 ... : ... .. . ... ... : ... .. . ... ... : ... .. . ... ... : ... .. . ... ...
ROW DB : ... .. 0 ... ... ... : ... .. 0 ... ... ... : --- .. . ... : ... .. 3 ... : ... .. . ... ... : ... .. . ... ... : ... .. . ... ... : ... .. . ... ...
ROW DC : G-3 00 5 P80 ... ... : ... .. . ... ... ... : ... .. . ... : ... .. 2 ... : ... .. . ... ... : ... .. . ... ... : ... .. . ... ... : ... .. . ... ...
ROW DD : F-3 00 7 ... ... ... : F-2 00 F P80 ... ... : F-2 00 . ... : ... .. 0 ... : ... .. . ... ... : ... .. 2 ... ... : ... .. 2 ... ... : ... .. 1 ... ...
ROW DE : ... .. A ... ... ... : ... .. E ... ... ... : ... .. . ... : B-# 00 8 ... : ... .. . ... ... : ... .. . ... ... : ... .. . ... ... : ... .. . ... ...
ROW DF : ... .. 7 ... ... ... : ... .. D ... ... ... : ... .. . ... : ... .. 3 ... : ... .. . ... ... : ... .. . ... ... : ... .. . ... ... : ... .. . ... ...
ROW E0 : ... .. 0 ... ... ... : ... .. 0 ... ... ... : --- .. . ... : ... .. . ... : ... .. . ... ... : ... .. 1 ... ... : ... .. 1 ... ... : ... .. . ... ...
ROW E1 : F-3 00 5 P80 ... ... : ... .. . ... ... ... : ... .. . ... : ... .. 0 ... : ... .. . ... ... : ... .. . ... ... : ... .. . ... ... : ... .. . ... ...
ROW E2 : C#3 00 7 ... ... ... : E-2 00 F P80 ... ... : E-2 00 . ... : C-# 00 8 ... : ... .. . ... ... : F#2 01 A ... ... : C#3 01 A ... ... : A#3 01 A ... ...
ROW E3 : ... .. A ... ... ... : ... .. E ... ... ... : ... .. . ... : ... .. 7 ... : ... .. . ... ... : ... .. 9 ... ... : ... .. 9 ... ... : ... .. 8 ... ...
ROW E4 : ... .. 7 ... ... ... : ... .. D ... ... ... : ... .. . ... : ... .. . ... : ... .. . ... ... : ... .. 8 ... ... : ... .. 8 ... ... : ... .. 5 ... ...
ROW E5 : ... .. 0 ... ... ... : ... .. A ... ... ... : ... .. . ... : ... .. 6 ... : ... .. . ... ... : ... .. 7 ... ... : ... .. 7 ... ... : ... .. . ... ...
ROW E6 : C#3 00 5 P80 ... ... : ... .. . ... ... ... : ... .. . ... : ... .. 5 ... : ... .. . ... ... : ... .. . ... ... : ... .. . ... ... : ... .. . ... ...
ROW E7 : B-2 00 7 ... ... ... : ... .. . ... ... ... : ... .. . ... : ... .. 4 ... : ... .. . ... ... : ... .. 6 ... ... : ... .. 6 ... ... : ... .. . ... ...
ROW E8 : ... .. A ... ... ... : ... .. . ... ... ... : ... .. . ... : ... .. . ... : ... .. . ... ... : ... .. . ... ... : ... .. . ... ... : ... .. . ... ...
ROW E9 : ... .. 7 ... ... ... : ... .. . ... ... ... : ... .. . ... : ... .. . ... : ... .. . ... ... : ... .. 5 ... ... : ... .. 5 ... ... : ... .. . ... ...
ROW EA : ... .. 0 ... ... ... : ... .. . ... ... ... : ... .. . ... : ... .. 3 ... : ... .. . ... ... : ... .. . ... ... : ... .. . ... ... : ... .. . ... ...
ROW EB : B-2 00 5 P80 ... ... : ... .. . ... ... ... : ... .. . ... : ... .. . ... : ... .. . ... ... : ... .. . ... ... : ... .. . ... ... : ... .. . ... ...
ROW EC : G-3 00 7 ... ... ... : F-2 00 F ... ... ... : F-2 00 . ... : 7-# 00 F ... : ... .. . ... ... : G-2 01 A ... ... : D-3 01 A ... ... : B-3 01 A ... ...
ROW ED : ... .. A ... ... ... : ... .. E ... ... ... : ... .. . ... : ... .. C ... : ... .. . ... ... : ... .. 9 ... ... : ... .. 9 ... ... : ... .. 8 ... ...
ROW EE : ... .. 7 ... ... ... : ... .. D ... ... ... : ... .. . ... : ... .. A ... : ... .. . ... ... : ... .. 8 ... ... : ... .. 8 ... ... : ... .. 5 ... ...
ROW EF : ... .. 0 ... ... ... : ... .. A ... ... ... : ... .. . ... : ... .. 8 ... : ... .. . ... ... : ... .. 7 ... ... : ... .. 7 ... ... : ... .. . ... ...
ROW F0 : G-3 00 5 P80 ... ... : ... .. . ... ... ... : ... .. . ... : ... .. 7 ... : ... .. . ... ... : ... .. . ... ... : ... .. . ... ... : ... .. . ... ...
ROW F1 : F-3 00 7 ... ... ... : ... .. . ... ... ... : ... .. . ... : ... .. 0 ... : ... .. . ... ... : ... .. 6 ... ... : ... .. 6 ... ... : ... .. . ... ...
ROW F2 : ... .. A ... ... ... : ... .. . ... ... ... : ... .. . ... : B-# 00 6 ... : ... .. . ... ... : ... .. . ... ... : ... .. . ... ... : ... .. . ... ...
ROW F3 : ... .. 7 ... ... ... : ... .. . ... ... ... : ... .. . ... : ... .. 2 ... : ... .. . ... ... : ... .. 5 ... ... : ... .. 5 ... ... : ... .. . ... ...
ROW F4 : ... .. 0 ... ... ... : ... .. . ... ... ... : ... .. . ... : ... .. . ... : ... .. . ... ... : ... .. . ... ... : ... .. . ... ... : ... .. . ... ...
ROW F5 : F-3 00 5 P80 ... ... : ... .. . ... ... ... : ... .. . ... : ... .. 0 ... : ... .. . ... ... : ... .. . ... ... : ... .. . ... ... : ... .. . ... ...
ROW F6 : C#3 00 7 ... ... ... : G-2 00 F ... ... ... : G-2 00 . ... : ... .. . ... : ... .. . ... ... : G#2 01 A ... ... : D#3 01 A ... ... : C-4 01 A ... ...
ROW F7 : ... .. A ... ... ... : ... .. E ... ... ... : ... .. . ... : ... .. A ... : ... .. . ... ... : ... .. 9 ... ... : ... .. 9 ... ... : ... .. 8 ... ...
ROW F8 : ... .. 7 ... ... ... : ... .. D ... ... ... : ... .. . ... : ... .. 4 ... : ... .. . ... ... : ... .. 8 ... ... : ... .. 8 ... ... : ... .. 5 ... ...
ROW F9 : ... .. 0 ... ... ... : ... .. A ... ... ... : ... .. . ... : ... .. . ... : ... .. . ... ... : ... .. 7 ... ... : ... .. 7 ... ... : ... .. . ... ...
ROW FA : C#3 00 5 P80 ... ... : ... .. . ... ... ... : ... .. . ... : ... .. 0 ... : ... .. . ... ... : ... .. . ... ... : ... .. . ... ... : ... .. . ... ...
ROW FB : B-2 00 7 ... ... ... : ... .. 0 ... ... ... : --- .. . ... : ... .. . ... : ... .. . ... ... : ... .. 6 ... ... : ... .. 6 ... ... : ... .. . ... ...
ROW FC : ... .. A ... ... ... : ... .. . ... ... ... : ... .. . ... : ... .. 8 ... : ... .. . ... ... : ... .. . ... ... : ... .. . ... ... : ... .. . ... ...
ROW FD : ... .. 7 ... ... ... : ... .. . ... ... ... : ... .. . ... : ... .. 3 ... : ... .. . ... ... : ... .. 5 ... ... : ... .. 5 ... ... : ... .. . ... ...
ROW FE : ... .. 0 ... ... ... : ... .. . ... ... ... : ... .. . ... : ... .. . ... : ... .. . ... ... : ... .. 1 ... ... : ... .. 1 ... ... : ... .. 1 ... ...
ROW FF : B-2 00 5 P80 ... ... : ... .. . ... ... ... : ... .. . ... : ... .. 0 ... : ... .. . ... ... : ... .. . ... ... : ... .. . ... ... : ... .. . ... ...

PATTERN 19
ROW 00 : G-3 00 7 ... ... ... : G-1 00 F P80 ... ... : F#3 00 . ... : ... .. . ... : ... .. . ... ... : ... .. 5 ... ... : ... .. 5 ... ... : ... .. 5 ... ...
ROW 01 : ... .. A ... ... ... : ... .. E ... ... ... : G#2 00 . ... : 2-# 00 F ... : ... .. . ... ... : ... .. . ... ... : ... .. . ... ... : ... .. . ... ...
ROW 02 : ... .. 7 ... ... ... : ... .. D ... ... ... : C#2 00 . ... : ... .. 6 ... : ... .. . ... ... : ... .. . ... ... : ... .. . ... ... : ... .. . ... ...
ROW 03 : ... .. 0 ... ... ... : ... .. A ... ... ... : C-2 00 . ... : ... .. . ... : ... .. . ... ... : ... .. . ... ... : ... .. . ... ... : ... .. . ... ...
ROW 04 : G-3 00 5 P80 ... ... : ... .. . ... ... ... : G-1 00 . ... : ... .. 0 ... : ... .. . ... ... : ... .. . ... ... : ... .. . ... ... : ... .. . ... ...
ROW 05 : F-3 00 7 ... ... ... : ... .. . ... ... ... : ... .. . ... : ... .. . ... : ... .. . ... ... : ... .. 2 ... ... : ... .. 2 ... ... : ... .. 1 ... ...
ROW 06 : ... .. A ... ... ... : ... .. . ... ... ... : ... .. . ... : B-# 00 6 ... : ... .. . ... ... : ... .. . ... ... : ... .. . ... ... : ... .. . ... ...
ROW 07 : ... .. 7 ... ... ... : ... .. . ... ... ... : ... .. . ... : ... .. 2 ... : ... .. . ... ... : ... .. . ... ... : ... .. . ... ... : ... .. . ... ...
ROW 08 : ... .. 0 ... ... ... : ... .. . ... ... ... : ... .. . ... : ... .. . ... : ... .. . ... ... : ... .. 1 ... ... : ... .. 1 ... ... : ... .. . ... ...
ROW 09 : F-3 00 5 P80 ... ... : ... .. . ... ... ... : ... .. . ... : ... .. 0 ... : ... .. . ... ... : ... .. . ... ... : ... .. . ... ... : ... .. . ... ...
ROW 0A : C#3 00 7 ... ... ... : F-2 00 F ... ... ... : F-2 00 . ... : ... .. . ... : ... .. . ... ... : A#2 01 A ... ... : F-3 01 A ... ... : D-4 01 A ... ...
ROW 0B : ... .. A ... ... ... : ... .. E ... ... ... : ... .. . ... : ... .. A ... : ... .. . ... ... : ... .. 9 ... ... : ... .. 9 ... ... : ... .. 8 ... ...
ROW 0C : ... .. 7 ... ... ... : ... .. D ... ... ... : ... .. . ... : ... .. 4 ... : ... .. . ... ... : ... .. 8 ... ... : ... .. 8 ... ... : ... .. 5 ... ...
ROW 0D : ... .. 0 ... ... ... : ... .. A ... ... ... : ... .. . ... : ... .. . ... : ... .. . ... ... : ... .. 7 ... ... : ... .. 7 ... ... : ... .. . ... ...
ROW 0E : C#3 00 5 P80 ... ... : ... .. . ... ... ... : ... .. . ... : ... .. 0 ... : ... .. . ... ... : ... .. . ... ... : ... .. . ... ... : ... .. . ... ...
ROW 0F : B-2 00 7 ... ... ... : ... .. . ... ... ... : ... .. . ... : ... .. . ... : ... .. . ... ... : ... .. 6 ... ... : ... .. 6 ... ... : ... .. . ... ...
ROW 10 : ... .. A ... ... ... : ... .. . ... ... ... : ... .. . ... : ... .. 8 ... : ... .. . ... ... : ... .. . ... ... : ... .. . ... ... : ... .. . ... ...
ROW 11 : ... .. 7 ... ... ... : ... .. . ... ... ... : ... .. . ... : ... .. 3 ... : ... .. . ... ... : ... .. 5 ... ... : ... .. 5 ... ... : ... .. . ... ...
ROW 12 : ... .. 0 ... ... ... : ... .. . ... ... ... : ... .. . ... : ... .. . ... : ... .. . ... ... : ... .. 1 ... ... : ... .. 1 ... ... : ... .. 1 ... ...
ROW 13 : B-2 00 5 P80 ... ... : ... .. . ... ... ... : ... .. . ... : ... .. 0 ... : ... .. . ... ... : ... .. . ... ... : ... .. . ... ... : ... .. . ... ...
ROW 14 : G-3 00 7 ... ... ... : ... .. . P70 ... ... : ... .. . P70 : 7-# 00 F ... : ... .. . ... ... : ... .. 5 ... ... : ... .. 5 ... ... : ... .. 5 ... ...
ROW 15 : ... .. A ... ... ... : E-2 00 A P86 ... ... : E-2 00 . P86 : ... .. C ... : ... .. . ... ... : ... .. . ... ... : ... .. . ... ... : ... .. . ... ...
ROW 16 : ... .. 7 ... ... ... : ... .. . P76 ... ... : ... .. . P76 : ... .. A ... : ... .. . ... ... : ... .. . ... ... : ... .. . ... ... : ... .. . ... ...
ROW 17 : ... .. 0 ... ... ... : D#2 00 A P8E ... ... : D#2 00 . P8E : ... .. 8 ... : ... .. . ... ... : ... .. . ... ... : ... .. . ... ... : ... .. . ... ...
ROW 18 : G-3 00 5 P80 ... ... : ... .. . P7E ... ... : ... .. . P7E : ... .. 7 ... : ... .. . ... ... : ... .. . ... ... : ... .. . ... ... : ... .. . ... ...
ROW 19 : F-3 00 7 ... ... ... : ... .. . P6E ... ... : ... .. . P6E : ... .. 0 ... : ... .. . ... ... : ... .. . ... ... : ... .. . ... ... : ... .. . ... ...
ROW 1A : ... .. A ... ... ... : D-2 00 A P89 ... ... : D-2 00 . P89 : B-# 00 6 ... : ... .. . ... ... : ... .. . ... ... : ... .. . ... ... : ... .. . ... ...
ROW 1B : ... .. 7 ... ... ... : ... .. . P79 ... ... : ... .. . P79 : ... .. 2 ... : ... .. . ... ... : ... .. . ... ... : ... .. . ... ... : ... .. . ... ...
ROW 1C : ... .. 0 ... ... ... : C#2 00 A P96 ... ... : C#2 00 . P96 : ... .. . ... : ... .. . ... ... : ... .. 1 ... ... : ... .. 1 ... ... : ... .. 1 ... ...
ROW 1D : F-3 00 5 P80 ... ... : ... .. . P86 ... ... : ... .. . P86 : ... .. 0 ... : ... .. . ... ... : ... .. . ... ... : ... .. . ... ... : ... .. . ... ...
ROW 1E : C#3 00 7 ... ... ... : B-1 00 F P80 ... ... : B-1 00 . P80 : ... .. . ... : ... .. . ... ... : B-2 01 A ... ... : F#3 01 A ... ... : D#4 01 A ... ...
ROW 1F : ... .. A ... ... ... : ... .. E ... ... ... : ... .. . ... : ... .. A ... : ... .. . ... ... : ... .. 9 ... ... : ... .. 9 ... ... : ... .. 8 ... ...
ROW 20 : ... .. 7 ... ... ... : ... .. D ... ... ... : ... .. . ... : ... .. 4 ... : ... .. . ... ... : ... .. 8 ... ... : ... .. 8 ... ... : ... .. 5 ... ...
ROW 21 : ... .. 0 ... ... ... : ... .. A ... ... ... : ... .. . ... : ... .. . ... : ... .. . ... ... : ... .. 7 ... ... : ... .. 7 ... ... : ... .. . ... ...
ROW 22 : C#3 00 5 P80 ... ... : ... .. . ... ... ... : ... .. . ... : ... .. 0 ... : ... .. . ... ... : ... .. . ... ... : ... .. . ... ... : ... .. . ... ...
ROW 23 : B-2 00 7 ... ... ... : ... .. . ... ... ... : ... .. . ... : ... .. . ... : ... .. . ... ... : ... .. 6 ... ... : ... .. 6 ... ... : ... .. . ... ...
ROW 24 : ... .. A ... ... ... : ... .. . ... ... ... : ... .. . ... : ... .. 8 ... : ... .. . ... ... : ... .. . ... ... : ... .. . ... ... : ... .. . ... ...
ROW 25 : ... .. 7 ... ... ... : ... .. . ... ... ... : ... .. . ... : ... .. 3 ... : ... .. . ... ... : ... .. 5 ... ... : ... .. 5 ... ... : ... .. . ... ...
ROW 26 : ... .. 0 ... ... ... : ... .. . ... ... ... : ... .. . ... : ... .. . ... : ... .. . ... ... : ... .. 1 ... ... : ... .. 1 ... ... : ... .. 1 ... ...
ROW 27 : B-2 00 5 P80 ... ... : ... .. . ... ... ... : ... .. . ... : ... .. 0 ... : ... .. . ... ... : ... .. . ... ... : ... .. . ... ... : ... .. . ... ...
ROW 28 : G-3 00 7 ... ... ... : F-1 00 F ... ... ... : E-3 00 . ... : 2-# 00 F ... : ... .. . ... ... : ... .. 5 ... ... : ... .. 5 ... ... : ... .. 5 ... ...
ROW 29 : ... .. A ... ... ... : ... .. E ... ... ... : F#2 00 . ... : ... .. C ... : ... .. . ... ... : ... .. . ... ... : ... .. . ... ... : ... .. . ... ...
ROW 2A : ... .. 7 ... ... ... : ... .. D ... ... ... : B-1 00 . ... : ... .. 6 ... : ... .. . ... ... : ... .. . ... ... : ... .. . ... ... : ... .. . ... ...
ROW 2B : ... .. 0 ... ... ... : ... .. A ... ... ... : A#1 00 . ... : ... .. 3 ... : ... .. . ... ... : ... .. . ... ... : ... .. . ... ... : ... .. . ... ...
ROW 2C : G-3 00 5 P80 ... ... : ... .. . ... ... ... : F-1 00 . ... : ... .. 2 ... : ... .. . ... ... : ... .. . ... ... : ... .. . ... ... : ... .. . ... ...
ROW 2D : F-3 00 7 ... ... ... : ... .. . ... ... ... : ... .. . ... : ... .. 0 ... : ... .. . ... ... : ... .. 2 ... ... : ... .. 2 ... ... : ... .. 1 ... ...
ROW 2E : ... .. A ... ... ... : ... .. . ... ... ... : ... .. . ... : B-# 00 8 ... : ... .. . ... ... : ... .. . ... ... : ... .. . ... ... : ... .. . ... ...
ROW 2F : ... .. 7 ... ... ... : ... .. . ... ... ... : ... .. . ... : ... .. 3 ... : ... .. . ... ... : ... .. . ... ... : ... .. . ... ... : ... .. . ... ...
ROW 30 : ... .. 0 ... ... ... : ... .. . ... ... ... : ... .. . ... : ... .. . ... : ... .. . ... ... : ... .. 1 ... ... : ... .. 1 ... ... : ... .. . ... ...
ROW 31 : F-3 00 5 P80 ... ... : ... .. . ... ... ... : ... .. . ... : ... .. 0 ... : ... .. . ... ... : ... .. . ... ... : ... .. . ... ... : ... .. . ... ...
ROW 32 : C#3 00 7 ... ... ... : G-1 00 F ... ... ... : F#3 00 . ... : 2-# 00 F ... : ... .. . ... ... : C-3 01 A ... ... : G-3 01 A ... ... : E-4 01 A ... ...
ROW 33 : ... .. A ... ... ... : ... .. E ... ... ... : G#2 00 . ... : ... .. C ... : ... .. . ... ... : ... .. 9 ... ... : ... .. 9 ... ... : ... .. 8 ... ...
ROW 34 : ... .. 7 ... ... ... : ... .. D ... ... ... : C#2 00 . ... : ... .. 6 ... : ... .. . ... ... : ... .. 8 ... ... : ... .. 8 ... ... : ... .. 5 ... ...
ROW 35 : ... .. 0 ... ... ... : ... .. A ... ... ... : C-2 00 . ... : ... .. 3 ... : ... .. . ... ... : ... .. 7 ... ... : ... .. 7 ... ... : ... .. . ... ...
ROW 36 : C#3 00 5 P80 ... ... : ... .. . ... ... ... : G-1 00 . ... : ... .. 2 ... : ... .. . ... ... : ... .. . ... ... : ... .. . ... ... : ... .. . ... ...
ROW 37 : B-2 00 7 ... ... ... : ... .. . ... ... ... : ... .. . ... : ... .. 0 ... : ... .. . ... ... : ... .. 6 ... ... : ... .. 6 ... ... : ... .. . ... ...
ROW 38 : ... .. A ... ... ... : ... .. . ... ... ... : ... .. . ... : B-# 00 8 ... : ... .. . ... ... : ... .. . ... ... : ... .. . ... ... : ... .. . ... ...
ROW 39 : ... .. 7 ... ... ... : ... .. . ... ... ... : ... .. . ... : ... .. 3 ... : ... .. . ... ... : ... .. 5 ... ... : ... .. 5 ... ... : ... .. . ... ...
ROW 3A : ... .. 0 ... ... ... : ... .. . ... ... ... : ... .. . ... : ... .. . ... : ... .. . ... ... : ... .. 1 ... ... : ... .. 1 ... ... : ... .. 1 ... ...
ROW 3B : B-2 00 5 P80 ... ... : ... .. . ... ... ... : ... .. . ... : ... .. 0 ... : ... .. . ... ... : ... .. . ... ... : ... .. . ... ... : ... .. . ... ...
ROW 3C : G-3 00 7 ... ... ... : B-0 00 F ... ... ... : B-0 00 . ... : 7-# 00 F ... : ... .. . ... ... : ... .. 5 ... ... : ... .. 5 ... ... : ... .. 5 ... ...
ROW 3D : ... .. A ... ... ... : ... .. E ... ... ... : ... .. . ... : ... .. C ... : ... .. . ... ... : ... .. . ... ... : ... .. . ... ... : ... .. . ... ...
ROW 3E : ... .. 7 ... ... ... : ... .. D ... ... ... : ... .. . ... : ... .. A ... : ... .. . ... ... : ... .. . ... ... : ... .. . ... ... : ... .. . ... ...
ROW 3F : ... .. 0 ... ... ... : ... .. A ... ... ... : ... .. . ... : ... .. 8 ... : ... .. . ... ... : ... .. . ... ... : ... .. . ... ... : ... .. . ... ...
ROW 40 : G-3 00 5 P80 ... ... : ... .. . ... ... ... : ... .. . ... : ... .. 7 ... : ... .. . ... ... : ... .. . ... ... : ... .. . ... ... : ... .. . ... ...
ROW 41 : F-3 00 7 ... ... ... : ... .. . ... ... ... : ... .. . ... : ... .. 0 ... : ... .. . ... ... : ... .. . ... ... : ... .. . ... ... : ... .. . ... ...
ROW 42 : ... .. A ... ... ... : ... .. . ... ... ... : ... .. . ... : B-# 00 6 ... : ... .. . ... ... : ... .. . ... ... : ... .. . ... ... : ... .. . ... ...
ROW 43 : ... .. 7 ... ... ... : ... .. . ... ... ... : ... .. . ... : ... .. 2 ... : ... .. . ... ... : ... .. . ... ... : ... .. . ... ... : ... .. . ... ...
ROW 44 : ... .. 0 ... ... ... : ... .. 0 ... ... ... : --- .. . ... : ... .. . ... : ... .. . ... ... : ... .. 1 ... ... : ... .. 1 ... ... : ... .. 1 ... ...
ROW 45 : F-3 00 5 P80 ... ... : ... .. . ... ... ... : ... .. . ... : ... .. 0 ... : ... .. . ... ... : ... .. . ... ... : ... .. . ... ... : ... .. . ... ...
ROW 46 : C#3 00 7 ... ... ... : C#1 00 F P80 ... ... : C#1 00 . ... : ... .. . ... : ... .. . ... ... : C#3 01 A ... ... : G#3 01 A ... ... : F-4 01 A ... ...
ROW 47 : ... .. A ... ... ... : ... .. E ... ... ... : ... .. . ... : ... .. A ... : ... .. . ... ... : ... .. 9 ... ... : ... .. 9 ... ... : ... .. 8 ... ...
ROW 48 : ... .. 7 ... ... ... : ... .. D ... ... ... : ... .. . ... : ... .. 4 ... : ... .. . ... ... : ... .. 8 ... ... : ... .. 8 ... ... : ... .. 5 ... ...
ROW 49 : ... .. 0 ... ... ... : ... .. A ... ... ... : ... .. . ... : ... .. . ... : ... .. . ... ... : ... .. 7 ... ... : ... .. 7 ... ... : ... .. . ... ...
ROW 4A : C#3 00 5 P80 ... ... : ... .. . ... ... ... : ... .. . ... : ... .. 0 ... : ... .. . ... ... : ... .. . ... ... : ... .. . ... ... : ... .. . ... ...
ROW 4B : B-2 00 7 ... ... ... : ... .. . ... ... ... : ... .. . ... : ... .. . ... : ... .. . ... ... : ... .. 6 ... ... : ... .. 6 ... ... : ... .. . ... ...
ROW 4C : ... .. A ... ... ... : ... .. . ... ... ... : ... .. . ... : ... .. 8 ... : ... .. . ... ... : ... .. . ... ... : ... .. . ... ... : ... .. . ... ...
ROW 4D : ... .. 7 ... ... ... : ... .. . ... ... ... : ... .. . ... : ... .. 3 ... : ... .. . ... ... : ... .. 5 ... ... : ... .. 5 ... ... : ... .. . ... ...
ROW 4E : ... .. 0 ... ... ... : ... .. 0 ... ... ... : --- .. . ... : ... .. . ... : ... .. . ... ... : ... .. 1 ... ... : ... .. 1 ... ... : ... .. 1 ... ...
ROW 4F : B-2 00 5 P80 ... ... : ... .. . ... ... ... : ... .. . ... : ... .. 0 ... : ... .. . ... ... : ... .. . ... ... : ... .. . ... ... : ... .. . ... ...
ROW 50 : G-3 00 7 ... ... ... : G-1 00 F P80 ... ... : F#3 00 . ... : 9-# 00 D ... : ... .. . ... ... : ... .. 5 ... ... : ... .. 5 ... ... : ... .. 5 ... ...
ROW 51 : ... .. A ... ... ... : ... .. E ... ... ... : G#2 00 . ... : ... .. . ... : ... .. . ... ... : ... .. . ... ... : ... .. . ... ... : ... .. . ... ...
ROW 52 : ... .. 7 ... ... ... : ... .. D ... ... ... : C#2 00 . ... : ... .. . ... : ... .. . ... ... : ... .. . ... ... : ... .. . ... ... : ... .. . ... ...
ROW 53 : ... .. 0 ... ... ... : ... .. A ... ... ... : C-2 00 . ... : ... .. B ... : ... .. . ... ... : ... .. . ... ... : ... .. . ... ... : ... .. . ... ...
ROW 54 : G-3 00 5 P80 ... ... : ... .. . ... ... ... : G-1 00 . ... : ... .. . ... : ... .. . ... ... : ... .. . ... ... : ... .. . ... ... : ... .. . ... ...
ROW 55 : F-3 00 7 ... ... ... : ... .. . ... ... ... : ... .. . ... : ... .. A ... : ... .. . ... ... : ... .. 2 ... ... : ... .. 2 ... ... : ... .. 1 ... ...
ROW 56 : ... .. A ... ... ... : ... .. . ... ... ... : ... .. . ... : ... .. . ... : ... .. . ... ... : ... .. . ... ... : ... .. . ... ... : ... .. . ... ...
ROW 57 : ... .. 7 ... ... ... : ... .. . ... ... ... : ... .. . ... : ... .. . ... : ... .. . ... ... : ... .. . ... ... : ... .. . ... ... : ... .. . ... ...
ROW 58 : ... .. 0 ... ... ... : ... .. . ... ... ... : ... .. . ... : ... .. 9 ... : ... .. . ... ... : ... .. 1 ... ... : ... .. 1 ... ... : ... .. . ... ...
ROW 59 : F-3 00 5 P80 ... ... : ... .. . ... ... ... : ... .. . ... : ... .. . ... : ... .. . ... ... : ... .. . ... ... : ... .. . ... ... : ... .. . ... ...
ROW 5A : C#3 00 7 ... ... ... : F-2 00 F ... ... ... : F-2 00 . ... : ... .. 7 ... : ... .. . ... ... : D-3 01 A ... ... : A-3 01 A ... ... : F#4 01 A ... ...
ROW 5B : ... .. A ... ... ... : ... .. E ... ... ... : ... .. . ... : ... .. . ... : ... .. . ... ... : ... .. 9 ... ... : ... .. 9 ... ... : ... .. 8 ... ...
ROW 5C : ... .. 7 ... ... ... : ... .. D ... ... ... : ... .. . ... : ... .. . ... : ... .. . ... ... : ... .. 8 ... ... : ... .. 8 ... ... : ... .. 5 ... ...
ROW 5D : ... .. 0 ... ... ... : ... .. 0 ... ... ... : --- .. . ... : ... .. 6 ... : ... .. . ... ... : ... .. 7 ... ... : ... .. 7 ... ... : ... .. . ... ...
ROW 5E : C#3 00 5 P80 ... ... : ... .. . ... ... ... : ... .. . ... : ... .. . ... : ... .. . ... ... : ... .. . ... ... : ... .. . ... ... : ... .. . ... ...
ROW 5F : B-2 00 7 ... ... ... : F-2 00 F P80 ... ... : E-4 00 . ... : ... .. 5 ... : ... .. . ... ... : ... .. 6 ... ... : ... .. 6 ... ... : ... .. . ... ...
ROW 60 : ... .. A ... ... ... : ... .. E ... ... ... : F#3 00 . ... : ... .. . ... : ... .. . ... ... : ... .. . ... ... : ... .. . ... ... : ... .. . ... ...
ROW 61 : ... .. 7 ... ... ... : ... .. D ... ... ... : B-2 00 . ... : ... .. . ... : ... .. . ... ... : ... .. 5 ... ... : ... .. 5 ... ... : ... .. . ... ...
ROW 62 : ... .. 0 ... ... ... : ... .. 0 ... ... ... : --- .. . ... : ... .. 4 ... : ... .. . ... ... : ... .. 1 ... ... : ... .. 1 ... ... : ... .. 1 ... ...
ROW 63 : B-2 00 5 P80 ... ... : ... .. . ... ... ... : ... .. . ... : ... .. . ... : ... .. . ... ... : ... .. . ... ... : ... .. . ... ... : ... .. . ... ...
ROW 64 : G-3 00 7 ... ... ... : F-2 00 F P80 ... ... : F-2 00 . ... : 7-# 00 F ... : ... .. . ... ... : ... .. 5 ... ... : ... .. 5 ... ... : ... .. 5 ... ...
ROW 65 : ... .. A ... ... ... : ... .. E ... ... ... : ... .. . ... : ... .. C ... : ... .. . ... ... : ... .. . ... ... : ... .. . ... ... : ... .. . ... ...
ROW 66 : ... .. 7 ... ... ... : ... .. D ... ... ... : ... .. . ... : ... .. A ... : ... .. . ... ... : ... .. . ... ... : ... .. . ... ... : ... .. . ... ...
ROW 67 : ... .. 0 ... ... ... : ... .. 0 ... ... ... : --- .. . ... : ... .. 8 ... : ... .. . ... ... : ... .. . ... ... : ... .. . ... ... : ... .. . ... ...
ROW 68 : G-3 00 5 P80 ... ... : ... .. . ... ... ... : ... .. . ... : ... .. 7 ... : ... .. . ... ... : ... .. . ... ... : ... .. . ... ... : ... .. . ... ...
ROW 69 : F-3 00 7 ... ... ... : F-2 00 F P80 ... ... : F-2 00 . ... : ... .. 0 ... : ... .. . ... ... : ... .. . ... ... : ... .. . ... ... : ... .. . ... ...
ROW 6A : ... .. A ... ... ... : ... .. E ... ... ... : ... .. . ... : B-# 00 6 ... : ... .. . ... ... : ... .. . ... ... : ... .. . ... ... : ... .. . ... ...
ROW 6B : ... .. 7 ... ... ... : ... .. D ... ... ... : ... .. . ... : ... .. 2 ... : ... .. . ... ... : ... .. . ... ... : ... .. . ... ... : ... .. . ... ...
ROW 6C : ... .. 0 ... ... ... : ... .. 0 ... ... ... : --- .. . ... : ... .. . ... : ... .. . ... ... : ... .. 1 ... ... : ... .. 1 ... ... : ... .. 1 ... ...
ROW 6D : F-3 00 5 P80 ... ... : ... .. . ... ... ... : ... .. . ... : ... .. 0 ... : ... .. . ... ... : ... .. . ... ... : ... .. . ... ... : ... .. . ... ...
ROW 6E : C#3 00 7 ... ... ... : G-1 00 F P80 ... ... : F#3 00 . ... : 9-# 00 D ... : ... .. . ... ... : C#3 01 A ... ... : G#3 01 A ... ... : F-4 01 A ... ...
ROW 6F : ... .. A ... ... ... : ... .. E ... ... ... : G#2 00 . ... : ... .. . ... : ... .. . ... ... : ... .. 9 ... ... : ... .. 9 ... ... : ... .. 8 ... ...
ROW 70 : ... .. 7 ... ... ... : ... .. D ... ... ... : C#2 00 . ... : ... .. . ... : ... .. . ... ... : ... .. 8 ... ... : ... .. 8 ... ... : ... .. 5 ... ...
ROW 71 : ... .. 0 ... ... ... : ... .. A ... ... ... : C-2 00 . ... : ... .. B ... : ... .. . ... ... : ... .. 7 ... ... : ... .. 7 ... ... : ... .. . ... ...
ROW 72 : C#3 00 5 P80 ... ... : ... .. . ... ... ... : G-1 00 . ... : ... .. . ... : ... .. . ... ... : ... .. . ... ... : ... .. . ... ... : ... .. . ... ...
ROW 73 : B-2 00 7 ... ... ... : ... .. . ... ... ... : ... .. . ... : ... .. A ... : ... .. . ... ... : ... .. 6 ... ... : ... .. 6 ... ... : ... .. . ... ...
ROW 74 : ... .. A ... ... ... : ... .. . ... ... ... : ... .. . ... : ... .. . ... : ... .. . ... ... : ... .. . ... ... : ... .. . ... ... : ... .. . ... ...
ROW 75 : ... .. 7 ... ... ... : ... .. . ... ... ... : ... .. . ... : ... .. . ... : ... .. . ... ... : ... .. 5 ... ... : ... .. 5 ... ... : ... .. . ... ...
ROW 76 : ... .. 0 ... ... ... : ... .. . ... ... ... : ... .. . ... : ... .. 9 ... : ... .. . ... ... : ... .. 1 ... ... : ... .. 1 ... ... : ... .. 1 ... ...
ROW 77 : B-2 00 5 P80 ... ... : ... .. . ... ... ... : ... .. . ... : ... .. . ... : ... .. . ... ... : ... .. . ... ... : ... .. . ... ... : ... .. . ... ...
ROW 78 : G-3 00 7 ... ... ... : F-2 00 F ... ... ... : F-2 00 . ... : ... .. 7 ... : ... .. . ... ... : ... .. 5 ... ... : ... .. 5 ... ... : ... .. 5 ... ...
ROW 79 : ... .. A ... ... ... : ... .. E ... ... ... : ... .. . ... : ... .. . ... : ... .. . ... ... : ... .. . ... ... : ... .. . ... ... : ... .. . ... ...
ROW 7A : ... .. 7 ... ... ... : ... .. D ... ... ... : ... .. . ... : ... .. . ... : ... .. . ... ... : ... .. . ... ... : ... .. . ... ... : ... .. . ... ...
ROW 7B : ... .. 0 ... ... ... : ... .. 0 ... ... ... : --- .. . ... : ... .. 6 ... : ... .. . ... ... : ... .. . ... ... : ... .. . ... ... : ... .. . ... ...
ROW 7C : G-3 00 5 P80 ... ... : ... .. . ... ... ... : ... .. . ... : ... .. . ... : ... .. . ... ... : ... .. . ... ... : ... .. . ... ... : ... .. . ... ...
ROW 7D : F-3 00 7 ... ... ... : F-2 00 F P80 ... ... : F-2 00 . ... : ... .. 5 ... : ... .. . ... ... : ... .. 2 ... ... : ... .. 2 ... ... : ... .. 1 ... ...
ROW 7E : ... .. A ... ... ... : ... .. E ... ... ... : ... .. . ... : ... .. . ... : ... .. . ... ... : ... .. . ... ... : ... .. . ... ... : ... .. . ... ...
ROW 7F : ... .. 7 ... ... ... : ... .. D ... ... ... : ... .. . ... : ... .. . ... : ... .. . ... ... : ... .. . ... ... : ... .. . ... ... : ... .. . ... ...
ROW 80 : ... .. 0 ... ... ... : ... .. 0 ... ... ... : --- .. . ... : ... .. 4 ... : ... .. . ... ... : ... .. 1 ... ... : ... .. 1 ... ... : ... .. . ... ...
ROW 81 : F-3 00 5 P80 ... ... : ... .. . ... ... ... : ... .. . ... : ... .. . ... : ... .. . ... ... : ... .. . ... ... : ... .. . ... ... : ... .. . ... ...
ROW 82 : C#3 00 7 ... ... ... : F-2 00 F P80 ... ... : F-2 00 . ... : ... .. 0 ... : ... .. . ... ... : C-3 01 A ... ... : G-3 01 A ... ... : E-4 01 A ... ...
ROW 83 : ... .. A ... ... ... : ... .. E ... ... ... : ... .. . ... : B-# 00 8 ... : ... .. . ... ... : ... .. 9 ... ... : ... .. 9 ... ... : ... .. 8 ... ...
ROW 84 : ... .. 7 ... ... ... : ... .. D ... ... ... : ... .. . ... : ... .. 3 ... : ... .. . ... ... : ... .. 8 ... ... : ... .. 8 ... ... : ... .. 5 ... ...
ROW 85 : ... .. 0 ... ... ... : ... .. 0 ... ... ... : --- .. . ... : ... .. . ... : ... .. . ... ... : ... .. 7 ... ... : ... .. 7 ... ... : ... .. . ... ...
ROW 86 : C#3 00 5 P80 ... ... : ... .. . ... ... ... : ... .. . ... : ... .. 0 ... : ... .. . ... ... : ... .. . ... ... : ... .. . ... ... : ... .. . ... ...
ROW 87 : B-2 00 7 ... ... ... : F-2 00 F P80 ... ... : F-2 00 . ... : ... .. . ... : ... .. . ... ... : ... .. 6 ... ... : ... .. 6 ... ... : ... .. . ... ...
ROW 88 : ... .. A ... ... ... : ... .. E ... ... ... : ... .. . ... : ... .. 6 ... : ... .. . ... ... : ... .. . ... ... : ... .. . ... ... : ... .. . ... ...
ROW 89 : ... .. 7 ... ... ... : ... .. D ... ... ... : ... .. . ... : ... .. 2 ... : ... .. . ... ... : ... .. 5 ... ... : ... .. 5 ... ... : ... .. . ... ...
ROW 8A : ... .. 0 ... ... ... : ... .. 0 ... ... ... : --- .. . ... : ... .. . ... : ... .. . ... ... : ... .. 1 ... ... : ... .. 1 ... ... : ... .. 1 ... ...
ROW 8B : B-2 00 5 P80 ... ... : ... .. . ... ... ... : ... .. . ... : ... .. 0 ... : ... .. . ... ... : ... .. . ... ... : ... .. . ... ... : ... .. . ... ...
ROW 8C : G-3 00 7 ... ... ... : B-1 00 F P80 ... ... : B-1 00 . ... : 7-# 00 F ... : ... .. . ... ... : B-2 01 A ... ... : F#3 01 A ... ... : D#4 01 A ... ...
ROW 8D : ... .. A ... ... ... : ... .. E ... ... ... : ... .. . ... : ... .. C ... : ... .. . ... ... : ... .. 9 ... ... : ... .. 9 ... ... : ... .. 8 ... ...
ROW 8E : ... .. 7 ... ... ... : ... .. D ... ... ... : ... .. . ... : ... .. A ... : ... .. . ... ... : ... .. 8 ... ... : ... .. 8 ... ... : ... .. 5 ... ...
ROW 8F : ... .. 0 ... ... ... : ... .. A ... ... ... : ... .. . ... : ... .. 0 ... : ... .. . ... ... : ... .. 7 ... ... : ... .. 7 ... ... : ... .. . ... ...
ROW 90 : G-3 00 5 P80 ... ... : ... .. . ... ... ... : ... .. . ... : ... .. . ... : ... .. . ... ... : ... .. . ... ... : ... .. . ... ... : ... .. . ... ...
ROW 91 : F-3 00 7 ... ... ... : ... .. . ... ... ... : ... .. . ... : 6-# 00 F ... : ... .. . ... ... : ... .. 6 ... ... : ... .. 6 ... ... : ... .. . ... ...
ROW 92 : ... .. A ... ... ... : ... .. . ... ... ... : ... .. . ... : ... .. C ... : ... .. . ... ... : ... .. . ... ... : ... .. . ... ... : ... .. . ... ...
ROW 93 : ... .. 7 ... ... ... : ... .. . ... ... ... : ... .. . ... : ... .. A ... : ... .. . ... ... : ... .. 5 ... ... : ... .. 5 ... ... : ... .. . ... ...
ROW 94 : ... .. 0 ... ... ... : ... .. . ... ... ... : ... .. . ... : ... .. 0 ... : ... .. . ... ... : ... .. . ... ... : ... .. . ... ... : ... .. . ... ...
ROW 95 : F-3 00 5 P80 ... ... : ... .. . ... ... ... : ... .. . ... : ... .. . ... : ... .. . ... ... : ... .. . ... ... : ... .. . ... ... : ... .. . ... ...
ROW 96 : C#3 00 7 ... ... ... : C#2 00 F ... ... ... : C#2 00 . ... : 5-# 00 F ... : ... .. . ... ... : ... .. . P84 ... : ... .. . P83 ... : ... .. . P85 ...
ROW 97 : ... .. A ... ... ... : ... .. E ... ... ... : ... .. . ... : ... .. C ... : ... .. . ... ... : ... .. . P86 ... : ... .. . P85 ... : E-4 01 5 P7C ...
ROW 98 : ... .. 7 ... ... ... : ... .. D ... ... ... : ... .. . ... : ... .. A ... : ... .. . ... ... : ... .. . P85 ... : ... .. . P84 ... : ... .. . P7B ...
ROW 99 : ... .. 0 ... ... ... : ... .. A ... ... ... : ... .. . ... : ... .. 0 ... : ... .. . ... ... : ... .. . P82 ... : ... .. . P81 ... : D#4 01 5 P83 ...
ROW 9A : C#3 00 5 P80 ... ... : ... .. . ... ... ... : ... .. . ... : ... .. . ... : ... .. . ... ... : ... .. . P7E ... : ... .. . P7D ... : ... .. . P7F ...
ROW 9B : B-2 00 7 ... ... ... : ... .. . ... ... ... : ... .. . ... : 4-# 00 F ... : ... .. . ... ... : ... .. . P7B ... : ... .. . P7A ... : ... .. . P7C ...
ROW 9C : ... .. A ... ... ... : ... .. . ... ... ... : ... .. . ... : ... .. C ... : ... .. . ... ... : ... .. . P7A ... : ... .. . P79 ... : ... .. . P7B ...
ROW 9D : ... .. 7 ... ... ... : ... .. . ... ... ... : ... .. . ... : ... .. A ... : ... .. . ... ... : ... .. . P7C ... : ... .. . P7B ... : ... .. . P7D ...
ROW 9E : ... .. 0 ... ... ... : ... .. 0 ... ... ... : --- .. . ... : ... .. 8 ... : ... .. . ... ... : ... .. . P80 ... : ... .. . P7F ... : ... .. . P81 ...
ROW 9F : B-2 00 5 P80 ... ... : ... .. . ... ... ... : ... .. . ... : ... .. 7 ... : ... .. . ... ... : ... .. . P83 ... : ... .. . P82 ... : ... .. . P84 ...
ROW A0 : G-4 00 7 ... ... ... : G-2 00 F P80 ... ... : F#4 00 . ... : 9-# 00 D ... : ... .. . ... ... : --- .. . P7C ... : --- .. . P81 ... : --- .. . ... ...
ROW A1 : ... .. A ... ... ... : ... .. E ... ... ... : G#3 00 . ... : ... .. . ... : ... .. . ... ... : ... .. . ... ... : ... .. . ... ... : ... .. . ... ...
ROW A2 : ... .. 7 ... ... ... : ... .. D ... ... ... : C#3 00 . ... : ... .. . ... : ... .. . ... ... : ... .. . ... ... : ... .. . ... ... : ... .. . ... ...
ROW A3 : ... .. 0 ... ... ... : ... .. A ... ... ... : C-3 00 . ... : ... .. B ... : ... .. . ... ... : ... .. . ... ... : ... .. . ... ... : ... .. . ... ...
ROW A4 : G-4 00 5 P80 ... ... : ... .. . ... ... ... : G-2 00 . ... : ... .. . ... : ... .. . ... ... : ... .. . ... ... : ... .. . ... ... : ... .. . ... ...
ROW A5 : F-4 00 7 ... ... ... : ... .. . ... ... ... : ... .. . ... : ... .. A ... : ... .. . ... ... : ... .. . ... ... : ... .. . ... ... : ... .. . ... ...
ROW A6 : ... .. A ... ... ... : ... .. . ... ... ... : ... .. . ... : ... .. . ... : ... .. . ... ... : ... .. . ... ... : ... .. . ... ... : ... .. . ... ...
ROW A7 : ... .. 7 ... ... ... : ... .. . ... ... ... : ... .. . ... : ... .. . ... : ... .. . ... ... : ... .. . ... ... : ... .. . ... ... : ... .. . ... ...
ROW A8 : ... .. 0 ... ... ... : ... .. . ... ... ... : ... .. . ... : ... .. 9 ... : ... .. . ... ... : ... .. . ... ... : ... .. . ... ... : ... .. . ... ...
ROW A9 : F-4 00 5 P80 ... ... : ... .. . ... ... ... : ... .. . ... : ... .. . ... : ... .. . ... ... : ... .. . ... ... : ... .. . ... ... : ... .. . ... ...
ROW AA : C#4 00 7 ... ... ... : ... .. . ... ... ... : ... .. . ... : ... .. 7 ... : ... .. . ... ... : A#2 01 A P80 ... : F-3 01 A P7F ... : D-4 01 A P81 ...
ROW AB : ... .. A ... ... ... : ... .. . ... ... ... : ... .. . ... : ... .. . ... : ... .. . ... ... : ... .. 9 ... ... : ... .. 9 ... ... : ... .. 8 ... ...
ROW AC : ... .. 7 ... ... ... : ... .. . ... ... ... : ... .. . ... : ... .. . ... : ... .. . ... ... : ... .. 8 ... ... : ... .. 8 ... ... : ... .. 5 ... ...
ROW AD : ... .. 0 ... ... ... : F#2 00 A P82 ... ... : F#2 00 . P82 : ... .. 6 ... : ... .. . ... ... : ... .. 7 ... ... : ... .. 7 ... ... : ... .. . ... ...
ROW AE : C#4 00 5 P80 ... ... : F-2 00 A P86 ... ... : F-2 00 . P86 : ... .. . ... : ... .. . ... ... : ... .. . ... ... : ... .. . ... ... : ... .. . ... ...
ROW AF : B-3 00 7 ... ... ... : E-2 00 A P8C ... ... : E-2 00 . P8C : ... .. 5 ... : ... .. . ... ... : ... .. 6 ... ... : ... .. 6 ... ... : ... .. . ... ...
ROW B0 : ... .. A ... ... ... : D#2 00 A P94 ... ... : D#2 00 . P94 : ... .. . ... : ... .. . ... ... : ... .. . ... ... : ... .. . ... ... : ... .. . ... ...
ROW B1 : ... .. 7 ... ... ... : ... .. . P74 ... ... : ... .. . P74 : ... .. . ... : ... .. . ... ... : ... .. 5 ... ... : ... .. 5 ... ... : ... .. . ... ...
ROW B2 : ... .. 0 ... ... ... : D-2 00 A P7F ... ... : D-2 00 . P7F : ... .. 4 ... : ... .. . ... ... : ... .. 1 ... ... : ... .. 1 ... ... : ... .. 1 ... ...
ROW B3 : B-3 00 5 P80 ... ... : C#2 00 A P8C ... ... : C#2 00 . P8C : ... .. . ... : ... .. . ... ... : ... .. . ... ... : ... .. . ... ... : ... .. . ... ...
ROW B4 : G-4 00 7 ... ... ... : F-2 00 F P80 ... ... : F-2 00 . P80 : 7-# 00 F ... : ... .. . ... ... : ... .. 5 ... ... : ... .. 5 ... ... : ... .. 5 ... ...
ROW B5 : ... .. A ... ... ... : ... .. E ... ... ... : ... .. . ... : ... .. C ... : ... .. . ... ... : ... .. . ... ... : ... .. . ... ... : ... .. . ... ...
ROW B6 : ... .. 7 ... ... ... : ... .. D ... ... ... : ... .. . ... : ... .. A ... : ... .. . ... ... : ... .. . ... ... : ... .. . ... ... : ... .. . ... ...
ROW B7 : ... .. 0 ... ... ... : ... .. A ... ... ... : ... .. . ... : ... .. 8 ... : ... .. . ... ... : ... .. . ... ... : ... .. . ... ... : ... .. . ... ...
ROW B8 : G-4 00 5 P80 ... ... : ... .. . ... ... ... : ... .. . ... : ... .. 7 ... : ... .. . ... ... : ... .. . ... ... : ... .. . ... ... : ... .. . ... ...
ROW B9 : F-4 00 7 ... ... ... : ... .. . ... ... ... : ... .. . ... : ... .. 0 ... : ... .. . ... ... : ... .. . ... ... : ... .. . ... ... : ... .. . ... ...
ROW BA : ... .. A ... ... ... : ... .. . ... ... ... : ... .. . ... : B-# 00 6 ... : ... .. . ... ... : ... .. . ... ... : ... .. . ... ... : ... .. . ... ...
ROW BB : ... .. 7 ... ... ... : ... .. . ... ... ... : ... .. . ... : ... .. 2 ... : ... .. . ... ... : ... .. . ... ... : ... .. . ... ... : ... .. . ... ...
ROW BC : ... .. 0 ... ... ... : ... .. . ... ... ... : ... .. . ... : ... .. . ... : ... .. . ... ... : ... .. 1 ... ... : ... .. 1 ... ... : ... .. 1 ... ...
ROW BD : F-4 00 5 P80 ... ... : ... .. . ... ... ... : ... .. . ... : ... .. 0 ... : ... .. . ... ... : ... .. . ... ... : ... .. . ... ... : ... .. . ... ...
ROW BE : C#4 00 7 ... ... ... : G-2 00 F ... ... ... : G-2 00 . ... : ... .. . ... : ... .. . ... ... : A-2 01 A ... ... : E-3 01 A ... ... : C#4 01 A ... ...
ROW BF : ... .. A ... ... ... : ... .. E ... ... ... : ... .. . ... : ... .. A ... : ... .. . ... ... : ... .. 9 ... ... : ... .. 9 ... ... : ... .. 8 ... ...
ROW C0 : ... .. 7 ... ... ... : ... .. D ... ... ... : ... .. . ... : ... .. 4 ... : ... .. . ... ... : ... .. 8 ... ... : ... .. 8 ... ... : ... .. 5 ... ...
ROW C1 : ... .. 0 ... ... ... : ... .. A ... ... ... : ... .. . ... : ... .. . ... : ... .. . ... ... : ... .. 7 ... ... : ... .. 7 ... ... : ... .. . ... ...
ROW C2 : C#4 00 5 P80 ... ... : ... .. . ... ... ... : ... .. . ... : ... .. 0 ... : ... .. . ... ... : ... .. . ... ... : ... .. . ... ... : ... .. . ... ...
ROW C3 : B-3 00 7 ... ... ... : ... .. . ... ... ... : ... .. . ... : ... .. . ... : ... .. . ... ... : ... .. 6 ... ... : ... .. 6 ... ... : ... .. . ... ...
ROW C4 : ... .. A ... ... ... : ... .. . ... ... ... : ... .. . ... : ... .. 8 ... : ... .. . ... ... : ... .. . ... ... : ... .. . ... ... : ... .. . ... ...
ROW C5 : ... .. 7 ... ... ... : ... .. . ... ... ... : ... .. . ... : ... .. 3 ... : ... .. . ... ... : ... .. 5 ... ... : ... .. 5 ... ... : ... .. . ... ...
ROW C6 : ... .. 0 ... ... ... : ... .. . ... ... ... : ... .. . ... : ... .. . ... : ... .. . ... ... : ... .. 1 ... ... : ... .. 1 ... ... : ... .. 1 ... ...
ROW C7 : B-3 00 5 P80 ... ... : ... .. . ... ... ... : ... .. . ... : ... .. 0 ... : ... .. . ... ... : ... .. . ... ... : ... .. . ... ... : ... .. . ... ...
ROW C8 : G-4 00 7 ... ... ... : G-3 00 F ... ... ... : F#5 00 . ... : 2-# 00 F ... : ... .. . ... ... : ... .. 5 ... ... : ... .. 5 ... ... : ... .. 5 ... ...
ROW C9 : ... .. A ... ... ... : ... .. E ... ... ... : G#4 00 . ... : ... .. C ... : ... .. . ... ... : ... .. . ... ... : ... .. . ... ... : ... .. . ... ...
ROW CA : ... .. 7 ... ... ... : ... .. D ... ... ... : C#4 00 . ... : ... .. 6 ... : ... .. . ... ... : ... .. . ... ... : ... .. . ... ... : ... .. . ... ...
ROW CB : ... .. 0 ... ... ... : ... .. A ... ... ... : C-4 00 . ... : ... .. 3 ... : ... .. . ... ... : ... .. . ... ... : ... .. . ... ... : ... .. . ... ...
ROW CC : G-4 00 5 P80 ... ... : ... .. . ... ... ... : G-3 00 . ... : ... .. 2 ... : ... .. . ... ... : ... .. . ... ... : ... .. . ... ... : ... .. . ... ...
ROW CD : F-4 00 7 ... ... ... : ... .. . ... ... ... : ... .. . ... : ... .. 0 ... : ... .. . ... ... : ... .. 2 ... ... : ... .. 2 ... ... : ... .. 1 ... ...
ROW CE : ... .. A ... ... ... : ... .. . ... ... ... : ... .. . ... : B-# 00 8 ... : ... .. . ... ... : ... .. . ... ... : ... .. . ... ... : ... .. . ... ...
ROW CF : ... .. 7 ... ... ... : ... .. . ... ... ... : ... .. . ... : ... .. 3 ... : ... .. . ... ... : ... .. . ... ... : ... .. . ... ... : ... .. . ... ...
ROW D0 : ... .. 0 ... ... ... : ... .. . ... ... ... : ... .. . ... : ... .. . ... : ... .. . ... ... : ... .. 1 ... ... : ... .. 1 ... ... : ... .. . ... ...
ROW D1 : F-4 00 5 P80 ... ... : ... .. . ... ... ... : ... .. . ... : ... .. 0 ... : ... .. . ... ... : ... .. . ... ... : ... .. . ... ... : ... .. . ... ...
ROW D2 : C#4 00 7 ... ... ... : E-3 00 A P86 ... ... : E-3 00 . P86 : 2-# 00 F ... : ... .. . ... ... : G#2 01 A ... ... : D#3 01 A ... ... : C-4 01 A ... ...
ROW D3 : ... .. A ... ... ... : D-3 00 A P80 ... ... : D-3 00 . P80 : ... .. C ... : ... .. . ... ... : ... .. 9 ... ... : ... .. 9 ... ... : ... .. 8 ... ...
ROW D4 : ... .. 7 ... ... ... : C-3 00 A P7F ... ... : C-3 00 . P7F : ... .. 6 ... : ... .. . ... ... : ... .. 8 ... ... : ... .. 8 ... ... : ... .. 5 ... ...
ROW D5 : ... .. 0 ... ... ... : A#2 00 A P83 ... ... : A#2 00 . P83 : ... .. 3 ... : ... .. . ... ... : ... .. 7 ... ... : ... .. 7 ... ... : ... .. . ... ...
ROW D6 : C#4 00 5 P80 ... ... : G#2 00 A P8E ... ... : G#2 00 . P8E : ... .. 2 ... : ... .. . ... ... : ... .. . ... ... : ... .. . ... ... : ... .. . ... ...
ROW D7 : B-3 00 7 ... ... ... : G-2 00 A P7E ... ... : G-2 00 . P7E : ... .. 0 ... : ... .. . ... ... : ... .. 6 ... ... : ... .. 6 ... ... : ... .. . ... ...
ROW D8 : ... .. A ... ... ... : F#2 00 A P70 ... ... : F#2 00 . P70 : B-# 00 8 ... : ... .. . ... ... : ... .. . ... ... : ... .. . ... ... : ... .. . ... ...
ROW D9 : ... .. 7 ... ... ... : E-2 00 A P8A ... ... : E-2 00 . P8A : ... .. 3 ... : ... .. . ... ... : ... .. 5 ... ... : ... .. 5 ... ... : ... .. . ... ...
ROW DA : ... .. 0 ... ... ... : D#2 00 A P82 ... ... : D#2 00 . P82 : ... .. . ... : ... .. . ... ... : ... .. 1 ... ... : ... .. 1 ... ... : ... .. 1 ... ...
ROW DB : B-3 00 5 P80 ... ... : D-2 00 A P7D ... ... : D-2 00 . P7D : ... .. 0 ... : ... .. . ... ... : ... .. . ... ... : ... .. . ... ... : ... .. . ... ...
ROW DC : G-4 00 7 ... ... ... : F-2 00 F P80 ... ... : F-2 00 . P80 : 7-# 00 F ... : ... .. . ... ... : ... .. 5 ... ... : ... .. 5 ... ... : ... .. 5 ... ...
ROW DD : ... .. A ... ... ... : ... .. E ... ... ... : ... .. . ... : ... .. C ... : ... .. . ... ... : ... .. . ... ... : ... .. . ... ... : ... .. . ... ...
ROW DE : ... .. 7 ... ... ... : ... .. D ... ... ... : ... .. . ... : ... .. A ... : ... .. . ... ... : ... .. . ... ... : ... .. . ... ... : ... .. . ... ...
ROW DF : ... .. 0 ... ... ... : ... .. A ... ... ... : ... .. . ... : ... .. 8 ... : ... .. . ... ... : ... .. . ... ... : ... .. . ... ... : ... .. . ... ...
ROW E0 : G-4 00 5 P80 ... ... : ... .. . ... ... ... : ... .. . ... : ... .. 7 ... : ... .. . ... ... : ... .. . ... ... : ... .. . ... ... : ... .. . ... ...
ROW E1 : F-4 00 7 ... ... ... : ... .. . ... ... ... : ... .. . ... : ... .. 0 ... : ... .. . ... ... : ... .. . ... ... : ... .. . ... ... : ... .. . ... ...
ROW E2 : ... .. A ... ... ... : ... .. . ... ... ... : ... .. . ... : B-# 00 6 ... : ... .. . ... ... : ... .. . ... ... : ... .. . ... ... : ... .. . ... ...
ROW E3 : ... .. 7 ... ... ... : ... .. . ... ... ... : ... .. . ... : ... .. 2 ... : ... .. . ... ... : ... .. . ... ... : ... .. . ... ... : ... .. . ... ...
ROW E4 : ... .. 0 ... ... ... : ... .. . ... ... ... : ... .. . ... : ... .. . ... : ... .. . ... ... : ... .. 1 ... ... : ... .. 1 ... ... : ... .. 1 ... ...
ROW E5 : F-4 00 5 P80 ... ... : ... .. . ... ... ... : ... .. . ... : ... .. 0 ... : ... .. . ... ... : ... .. . ... ... : ... .. . ... ... : ... .. . ... ...
ROW E6 : C#4 00 7 ... ... ... : G-2 00 F ... ... ... : G-2 00 . ... : ... .. . ... : ... .. . ... ... : G-2 01 A ... ... : D-3 01 A ... ... : B-3 01 A ... ...
ROW E7 : ... .. A ... ... ... : ... .. E ... ... ... : ... .. . ... : ... .. A ... : ... .. . ... ... : ... .. 9 ... ... : ... .. 9 ... ... : ... .. 8 ... ...
ROW E8 : ... .. 7 ... ... ... : ... .. D ... ... ... : ... .. . ... : ... .. 4 ... : ... .. . ... ... : ... .. 8 ... ... : ... .. 8 ... ... : ... .. 5 ... ...
ROW E9 : ... .. 0 ... ... ... : ... .. A ... ... ... : ... .. . ... : ... .. . ... : ... .. . ... ... : ... .. 7 ... ... : ... .. 7 ... ... : ... .. . ... ...
ROW EA : C#4 00 5 P80 ... ... : ... .. . ... ... ... : ... .. . ... : ... .. 0 ... : ... .. . ... ... : ... .. . ... ... : ... .. . ... ... : ... .. . ... ...
ROW EB : B-3 00 7 ... ... ... : ... .. . ... ... ... : ... .. . ... : ... .. . ... : ... .. . ... ... : ... .. 6 ... ... : ... .. 6 ... ... : ... .. . ... ...
ROW EC : ... .. A ... ... ... : ... .. . ... ... ... : ... .. . ... : ... .. 8 ... : ... .. . ... ... : ... .. . ... ... : ... .. . ... ... : ... .. . ... ...
ROW ED : ... .. 7 ... ... ... : ... .. . ... ... ... : ... .. . ... : ... .. 3 ... : ... .. . ... ... : ... .. 5 ... ... : ... .. 5 ... ... : ... .. . ... ...
ROW EE : ... .. 0 ... ... ... : ... .. 0 ... ... ... : --- .. . ... : ... .. . ... : ... .. . ... ... : ... .. 1 ... ... : ... .. 1 ... ... : ... .. 1 ... ...
ROW EF : B-3 00 5 P80 ... ... : ... .. . ... ... ... : ... .. . ... : ... .. 0 ... : ... .. . ... ... : ... .. . ... ... : ... .. . ... ... : ... .. . ... ...
ROW F0 : G-4 00 7 ... ... ... : F-1 00 F P80 ... ... : E-3 00 . ... : 2-# 00 F ... : ... .. . ... ... : ... .. 5 ... ... : ... .. 5 ... ... : ... .. 5 ... ...
ROW F1 : ... .. A ... ... ... : ... .. E ... ... ... : F#2 00 . ... : ... .. C ... : ... .. . ... ... : ... .. . ... ... : ... .. . ... ... : ... .. . ... ...
ROW F2 : ... .. 7 ... ... ... : ... .. D ... ... ... : B-1 00 . ... : ... .. 6 ... : ... .. . ... ... : ... .. . ... ... : ... .. . ... ... : ... .. . ... ...
ROW F3 : ... .. 0 ... ... ... : ... .. A ... ... ... : A#1 00 . ... : ... .. 3 ... : ... .. . ... ... : ... .. . ... ... : ... .. . ... ... : ... .. . ... ...
ROW F4 : G-4 00 5 P80 ... ... : ... .. . ... ... ... : F-1 00 . ... : ... .. 2 ... : ... .. . ... ... : ... .. . ... ... : ... .. . ... ... : ... .. . ... ...
ROW F5 : F-4 00 7 ... ... ... : ... .. . ... ... ... : ... .. . ... : ... .. 0 ... : ... .. . ... ... : ... .. 2 ... ... : ... .. 2 ... ... : ... .. 1 ... ...
ROW F6 : ... .. A ... ... ... : ... .. . ... ... ... : ... .. . ... : B-# 00 8 ... : ... .. . ... ... : ... .. . ... ... : ... .. . ... ... : ... .. . ... ...
ROW F7 : ... .. 7 ... ... ... : ... .. . ... ... ... : ... .. . ... : ... .. 3 ... : ... .. . ... ... : ... .. . ... ... : ... .. . ... ... : ... .. . ... ...
ROW F8 : ... .. 0 ... ... ... : ... .. . ... ... ... : ... .. . ... : ... .. . ... : ... .. . ... ... : ... .. 1 ... ... : ... .. 1 ... ... : ... .. . ... ...
ROW F9 : F-4 00 5 P80 ... ... : ... .. . ... ... ... : ... .. . ... : ... .. 0 ... : ... .. . ... ... : ... .. . ... ... : ... .. . ... ... : ... .. . ... ...
ROW FA : C#4 00 7 ... ... ... : D-2 00 F ... ... ... : C#4 00 . ... : 2-# 00 F ... : ... .. . ... ... : F#2 01 A ... ... : C#3 01 A ... ... : A#3 01 A ... ...
ROW FB : ... .. A ... ... ... : ... .. E ... ... ... : D#3 00 . ... : ... .. C ... : ... .. . ... ... : ... .. 9 ... ... : ... .. 9 ... ... : ... .. 8 ... ...
ROW FC : ... .. 7 ... ... ... : ... .. D ... ... ... : G#2 00 . ... : ... .. 6 ... : ... .. . ... ... : ... .. 8 ... ... : ... .. 8 ... ... : ... .. 5 ... ...
ROW FD : ... .. 0 ... ... ... : ... .. A ... ... ... : G-2 00 . ... : ... .. 3 ... : ... .. . ... ... : ... .. 7 ... ... : ... .. 7 ... ... : ... .. . ... ...
ROW FE : C#4 00 5 P80 ... ... : ... .. . ... ... ... : D-2 00 . ... : ... .. 2 ... : ... .. . ... ... : ... .. . ... ... : ... .. . ... ... : ... .. . ... ...
ROW FF : B-3 00 7 ... ... ... : ... .. . ... ... ... : ... .. . ... : ... .. 0 ... : ... .. . ... ... : ... .. 6 ... ... : ... .. 6 ... ... : ... .. . ... ...

PATTERN 1A
ROW 00 : ... .. A ... ... ... : ... .. . ... ... ... : ... .. . ... : B-# 00 8 ... : ... .. . ... ... : ... .. . ... ... : ... .. . ... ... : ... .. . ... ...
ROW 01 : ... .. 7 ... ... ... : ... .. . ... ... ... : ... .. . ... : ... .. 3 ... : ... .. . ... ... : ... .. 5 ... ... : ... .. 5 ... ... : ... .. . ... ...
ROW 02 : ... .. 0 ... ... ... : ... .. . ... ... ... : ... .. . ... : ... .. . ... : ... .. . ... ... : ... .. 1 ... ... : ... .. 1 ... ... : ... .. 1 ... ...
ROW 03 : B-3 00 5 P80 ... ... : ... .. . ... ... ... : ... .. . ... : ... .. 0 ... : ... .. . ... ... : ... .. . ... ... : ... .. . ... ... : ... .. . ... ...
ROW 04 : G-4 00 7 ... ... ... : C#2 00 F ... ... ... : C#2 00 . ... : 7-# 00 F ... : ... .. . ... ... : ... .. 5 ... ... : ... .. 5 ... ... : ... .. 5 ... ...
ROW 05 : ... .. A ... ... ... : ... .. E ... ... ... : ... .. . ... : ... .. C ... : ... .. . ... ... : ... .. . ... ... : ... .. . ... ... : ... .. . ... ...
ROW 06 : ... .. 7 ... ... ... : ... .. D ... ... ... : ... .. . ... : ... .. A ... : ... .. . ... ... : ... .. . ... ... : ... .. . ... ... : ... .. . ... ...
ROW 07 : ... .. 0 ... ... ... : ... .. A ... ... ... : ... .. . ... : ... .. 8 ... : ... .. . ... ... : ... .. . ... ... : ... .. . ... ... : ... .. . ... ...
ROW 08 : G-4 00 5 P80 ... ... : ... .. . ... ... ... : ... .. . ... : ... .. 7 ... : ... .. . ... ... : ... .. . ... ... : ... .. . ... ... : ... .. . ... ...
ROW 09 : F-4 00 7 ... ... ... : ... .. . ... ... ... : ... .. . ... : ... .. 0 ... : ... .. . ... ... : ... .. . ... ... : ... .. . ... ... : ... .. . ... ...
ROW 0A : ... .. A ... ... ... : ... .. . ... ... ... : ... .. . ... : B-# 00 6 ... : ... .. . ... ... : ... .. . ... ... : ... .. . ... ... : ... .. . ... ...
ROW 0B : ... .. 7 ... ... ... : ... .. . ... ... ... : ... .. . ... : ... .. 2 ... : ... .. . ... ... : ... .. . ... ... : ... .. . ... ... : ... .. . ... ...
ROW 0C : ... .. 0 ... ... ... : ... .. . ... ... ... : ... .. . ... : ... .. . ... : ... .. . ... ... : ... .. 1 ... ... : ... .. 1 ... ... : ... .. 1 ... ...
ROW 0D : F-4 00 5 P80 ... ... : ... .. . ... ... ... : ... .. . ... : ... .. 0 ... : ... .. . ... ... : ... .. . ... ... : ... .. . ... ... : ... .. . ... ...
ROW 0E : C#4 00 7 ... ... ... : G-1 00 F ... ... ... : G-1 00 . ... : ... .. . ... : ... .. . ... ... : F-2 01 A ... ... : C-3 01 A ... ... : A-3 01 A ... ...
ROW 0F : ... .. A ... ... ... : ... .. E ... ... ... : ... .. . ... : ... .. A ... : ... .. . ... ... : ... .. 9 ... ... : ... .. 9 ... ... : ... .. 8 ... ...
ROW 10 : ... .. 7 ... ... ... : ... .. D ... ... ... : ... .. . ... : ... .. 4 ... : ... .. . ... ... : ... .. 8 ... ... : ... .. 8 ... ... : ... .. 5 ... ...
ROW 11 : ... .. 0 ... ... ... : ... .. 0 ... ... ... : --- .. . ... : ... .. . ... : ... .. . ... ... : ... .. 7 ... ... : ... .. 7 ... ... : ... .. . ... ...
ROW 12 : C#4 00 5 P80 ... ... : ... .. . ... ... ... : ... .. . ... : ... .. 0 ... : ... .. . ... ... : ... .. . ... ... : ... .. . ... ... : ... .. . ... ...
ROW 13 : B-3 00 7 ... ... ... : G-1 00 F P80 ... ... : G-1 00 . ... : ... .. . ... : ... .. . ... ... : ... .. 6 ... ... : ... .. 6 ... ... : ... .. . ... ...
ROW 14 : ... .. A ... ... ... : ... .. E ... ... ... : ... .. . ... : ... .. 8 ... : ... .. . ... ... : ... .. . ... ... : ... .. . ... ... : ... .. . ... ...
ROW 15 : ... .. 7 ... ... ... : ... .. D ... ... ... : ... .. . ... : ... .. 3 ... : ... .. . ... ... : ... .. 5 ... ... : ... .. 5 ... ... : ... .. . ... ...
ROW 16 : ... .. 0 ... ... ... : ... .. 0 ... ... ... : --- .. . ... : ... .. . ... : ... .. . ... ... : ... .. 1 ... ... : ... .. 1 ... ... : ... .. 1 ... ...
ROW 17 : B-3 00 5 P80 ... ... : ... .. . ... ... ... : ... .. . ... : ... .. 0 ... : ... .. . ... ... : ... .. . ... ... : ... .. . ... ... : ... .. . ... ...
ROW 18 : G-4 00 7 ... ... ... : F-2 00 F P80 ... ... : E-4 00 . ... : 2-# 00 F ... : ... .. . ... ... : ... .. 5 ... ... : ... .. 5 ... ... : ... .. 5 ... ...
ROW 19 : ... .. A ... ... ... : ... .. E ... ... ... : F#3 00 . ... : ... .. C ... : ... .. . ... ... : ... .. . ... ... : ... .. . ... ... : ... .. . ... ...
ROW 1A : ... .. 7 ... ... ... : ... .. D ... ... ... : B-2 00 . ... : ... .. 6 ... : ... .. . ... ... : ... .. . ... ... : ... .. . ... ... : ... .. . ... ...
ROW 1B : ... .. 0 ... ... ... : ... .. 0 ... ... ... : --- .. . ... : ... .. 3 ... : ... .. . ... ... : ... .. . ... ... : ... .. . ... ... : ... .. . ... ...
ROW 1C : G-4 00 5 P80 ... ... : ... .. . ... ... ... : ... .. . ... : ... .. 2 ... : ... .. . ... ... : ... .. . ... ... : ... .. . ... ... : ... .. . ... ...
ROW 1D : F-4 00 7 ... ... ... : F-2 00 F P80 ... ... : F-2 00 . ... : ... .. 0 ... : ... .. . ... ... : ... .. 2 ... ... : ... .. 2 ... ... : ... .. 1 ... ...
ROW 1E : ... .. A ... ... ... : ... .. E ... ... ... : ... .. . ... : B-# 00 8 ... : ... .. . ... ... : ... .. . ... ... : ... .. . ... ... : ... .. . ... ...
ROW 1F : ... .. 7 ... ... ... : ... .. D ... ... ... : ... .. . ... : ... .. 3 ... : ... .. . ... ... : ... .. . ... ... : ... .. . ... ... : ... .. . ... ...
ROW 20 : ... .. 0 ... ... ... : ... .. 0 ... ... ... : --- .. . ... : ... .. . ... : ... .. . ... ... : ... .. 1 ... ... : ... .. 1 ... ... : ... .. . ... ...
ROW 21 : F-4 00 5 P80 ... ... : ... .. . ... ... ... : ... .. . ... : ... .. 0 ... : ... .. . ... ... : ... .. . ... ... : ... .. . ... ... : ... .. . ... ...
ROW 22 : C#4 00 7 ... ... ... : E-2 00 F P80 ... ... : E-2 00 . ... : C-# 00 8 ... : ... .. . ... ... : F#2 01 A ... ... : C#3 01 A ... ... : A#3 01 A ... ...
ROW 23 : ... .. A ... ... ... : ... .. E ... ... ... : ... .. . ... : ... .. 7 ... : ... .. . ... ... : ... .. 9 ... ... : ... .. 9 ... ... : ... .. 8 ... ...
ROW 24 : ... .. 7 ... ... ... : ... .. D ... ... ... : ... .. . ... : ... .. . ... : ... .. . ... ... : ... .. 8 ... ... : ... .. 8 ... ... : ... .. 5 ... ...
ROW 25 : ... .. 0 ... ... ... : ... .. A ... ... ... : ... .. . ... : ... .. 6 ... : ... .. . ... ... : ... .. 7 ... ... : ... .. 7 ... ... : ... .. . ... ...
ROW 26 : C#4 00 5 P80 ... ... : ... .. . ... ... ... : ... .. . ... : ... .. 5 ... : ... .. . ... ... : ... .. . ... ... : ... .. . ... ... : ... .. . ... ...
ROW 27 : B-3 00 7 ... ... ... : ... .. . ... ... ... : ... .. . ... : ... .. 4 ... : ... .. . ... ... : ... .. 6 ... ... : ... .. 6 ... ... : ... .. . ... ...
ROW 28 : ... .. A ... ... ... : ... .. . ... ... ... : ... .. . ... : ... .. . ... : ... .. . ... ... : ... .. . ... ... : ... .. . ... ... : ... .. . ... ...
ROW 29 : ... .. 7 ... ... ... : ... .. . ... ... ... : ... .. . ... : ... .. . ... : ... .. . ... ... : ... .. 5 ... ... : ... .. 5 ... ... : ... .. . ... ...
ROW 2A : ... .. 0 ... ... ... : ... .. . ... ... ... : ... .. . ... : ... .. 3 ... : ... .. . ... ... : ... .. . ... ... : ... .. . ... ... : ... .. . ... ...
ROW 2B : B-3 00 5 P80 ... ... : ... .. . ... ... ... : ... .. . ... : ... .. . ... : ... .. . ... ... : ... .. . ... ... : ... .. . ... ... : ... .. . ... ...
ROW 2C : G-4 00 7 ... ... ... : F-2 00 F ... ... ... : F-2 00 . ... : 7-# 00 F ... : ... .. . ... ... : G-2 01 A ... ... : D-3 01 A ... ... : B-3 01 A ... ...
ROW 2D : ... .. A ... ... ... : ... .. E ... ... ... : ... .. . ... : ... .. C ... : ... .. . ... ... : ... .. 9 ... ... : ... .. 9 ... ... : ... .. 8 ... ...
ROW 2E : ... .. 7 ... ... ... : ... .. D ... ... ... : ... .. . ... : ... .. A ... : ... .. . ... ... : ... .. 8 ... ... : ... .. 8 ... ... : ... .. 5 ... ...
ROW 2F : ... .. 0 ... ... ... : ... .. A ... ... ... : ... .. . ... : ... .. 8 ... : ... .. . ... ... : ... .. 7 ... ... : ... .. 7 ... ... : ... .. . ... ...
ROW 30 : G-4 00 5 P80 ... ... : ... .. . ... ... ... : ... .. . ... : ... .. 7 ... : ... .. . ... ... : ... .. . ... ... : ... .. . ... ... : ... .. . ... ...
ROW 31 : F-4 00 7 ... ... ... : ... .. . ... ... ... : ... .. . ... : ... .. 0 ... : ... .. . ... ... : ... .. 6 ... ... : ... .. 6 ... ... : ... .. . ... ...
ROW 32 : ... .. A ... ... ... : ... .. . ... ... ... : ... .. . ... : B-# 00 6 ... : ... .. . ... ... : ... .. . ... ... : ... .. . ... ... : ... .. . ... ...
ROW 33 : ... .. 7 ... ... ... : ... .. . ... ... ... : ... .. . ... : ... .. 2 ... : ... .. . ... ... : ... .. 5 ... ... : ... .. 5 ... ... : ... .. . ... ...
ROW 34 : ... .. 0 ... ... ... : ... .. . ... ... ... : ... .. . ... : ... .. . ... : ... .. . ... ... : ... .. . ... ... : ... .. . ... ... : ... .. . ... ...
ROW 35 : F-4 00 5 P80 ... ... : ... .. . ... ... ... : ... .. . ... : ... .. 0 ... : ... .. . ... ... : ... .. . ... ... : ... .. . ... ... : ... .. . ... ...
ROW 36 : C#4 00 7 ... ... ... : G-2 00 F ... ... ... : G-2 00 . ... : ... .. . ... : ... .. . ... ... : G#2 01 A ... ... : D#3 01 A ... ... : C-4 01 A ... ...
ROW 37 : ... .. A ... ... ... : ... .. E ... ... ... : ... .. . ... : ... .. A ... : ... .. . ... ... : ... .. 9 ... ... : ... .. 9 ... ... : ... .. 8 ... ...
ROW 38 : ... .. 7 ... ... ... : ... .. D ... ... ... : ... .. . ... : ... .. 4 ... : ... .. . ... ... : ... .. 8 ... ... : ... .. 8 ... ... : ... .. 5 ... ...
ROW 39 : ... .. 0 ... ... ... : ... .. A ... ... ... : ... .. . ... : ... .. . ... : ... .. . ... ... : ... .. 7 ... ... : ... .. 7 ... ... : ... .. . ... ...
ROW 3A : C#4 00 5 P80 ... ... : ... .. . ... ... ... : ... .. . ... : ... .. 0 ... : ... .. . ... ... : ... .. . ... ... : ... .. . ... ... : ... .. . ... ...
ROW 3B : B-3 00 7 ... ... ... : ... .. 0 ... ... ... : --- .. . ... : ... .. . ... : ... .. . ... ... : ... .. 6 ... ... : ... .. 6 ... ... : ... .. . ... ...
ROW 3C : ... .. A ... ... ... : ... .. . ... ... ... : ... .. . ... : ... .. 8 ... : ... .. . ... ... : ... .. . ... ... : ... .. . ... ... : ... .. . ... ...
ROW 3D : ... .. 7 ... ... ... : ... .. . ... ... ... : ... .. . ... : ... .. 3 ... : ... .. . ... ... : ... .. 5 ... ... : ... .. 5 ... ... : ... .. . ... ...
ROW 3E : ... .. 0 ... ... ... : ... .. . ... ... ... : ... .. . ... : ... .. . ... : ... .. . ... ... : ... .. 1 ... ... : ... .. 1 ... ... : ... .. 1 ... ...
ROW 3F : B-3 00 5 P80 ... ... : ... .. . ... ... ... : ... .. . ... : ... .. 0 ... : ... .. . ... ... : ... .. . ... ... : ... .. . ... ... : ... .. . ... ...
ROW 40 : G-4 00 7 ... ... ... : G-1 00 F P80 ... ... : G-1 00 . ... : ... .. . ... : ... .. . ... ... : ... .. 5 ... ... : ... .. 5 ... ... : ... .. 5 ... ...
ROW 41 : ... .. A ... ... ... : ... .. E ... ... ... : ... .. . ... : 2-# 00 F ... : ... .. . ... ... : ... .. . ... ... : ... .. . ... ... : ... .. . ... ...
ROW 42 : ... .. 7 ... ... ... : ... .. D ... ... ... : ... .. . ... : ... .. 6 ... : ... .. . ... ... : ... .. . ... ... : ... .. . ... ... : ... .. . ... ...
ROW 43 : ... .. 0 ... ... ... : ... .. A ... ... ... : ... .. . ... : ... .. . ... : ... .. . ... ... : ... .. . ... ... : ... .. . ... ... : ... .. . ... ...
ROW 44 : G-4 00 5 P80 ... ... : ... .. . ... ... ... : ... .. . ... : ... .. 0 ... : ... .. . ... ... : ... .. . ... ... : ... .. . ... ... : ... .. . ... ...
ROW 45 : F-4 00 7 ... ... ... : ... .. . ... ... ... : ... .. . ... : ... .. . ... : ... .. . ... ... : ... .. 2 ... ... : ... .. 2 ... ... : ... .. 1 ... ...
ROW 46 : ... .. A ... ... ... : ... .. . ... ... ... : ... .. . ... : B-# 00 6 ... : ... .. . ... ... : ... .. . ... ... : ... .. . ... ... : ... .. . ... ...
ROW 47 : ... .. 7 ... ... ... : ... .. . ... ... ... : ... .. . ... : ... .. 2 ... : ... .. . ... ... : ... .. . ... ... : ... .. . ... ... : ... .. . ... ...
ROW 48 : ... .. 0 ... ... ... : ... .. . ... ... ... : ... .. . ... : ... .. . ... : ... .. . ... ... : ... .. 1 ... ... : ... .. 1 ... ... : ... .. . ... ...
ROW 49 : F-4 00 5 P80 ... ... : ... .. . ... ... ... : ... .. . ... : ... .. 0 ... : ... .. . ... ... : ... .. . ... ... : ... .. . ... ... : ... .. . ... ...
ROW 4A : C#4 00 7 ... ... ... : ... .. . P70 ... ... : ... .. . P70 : ... .. . ... : ... .. . ... ... : A#2 01 A ... ... : F-3 01 A ... ... : D-4 01 A ... ...
ROW 4B : ... .. A ... ... ... : ... .. . P60 ... ... : ... .. . P60 : ... .. A ... : ... .. . ... ... : ... .. 9 ... ... : ... .. 9 ... ... : ... .. 8 ... ...
ROW 4C : ... .. 7 ... ... ... : F#1 00 A P94 ... ... : F#1 00 . P94 : ... .. 4 ... : ... .. . ... ... : ... .. 8 ... ... : ... .. 8 ... ... : ... .. 5 ... ...
ROW 4D : ... .. 0 ... ... ... : ... .. . P84 ... ... : ... .. . P84 : ... .. . ... : ... .. . ... ... : ... .. 7 ... ... : ... .. 7 ... ... : ... .. . ... ...
ROW 4E : C#4 00 5 P80 ... ... : ... .. . P74 ... ... : ... .. . P74 : ... .. 0 ... : ... .. . ... ... : ... .. . ... ... : ... .. . ... ... : ... .. . ... ...
ROW 4F : B-3 00 7 ... ... ... : ... .. . P64 ... ... : ... .. . P64 : ... .. . ... : ... .. . ... ... : ... .. 6 ... ... : ... .. 6 ... ... : ... .. . ... ...
ROW 50 : ... .. A ... ... ... : F-1 00 A P9C ... ... : F-1 00 . P9C : ... .. 8 ... : ... .. . ... ... : ... .. . ... ... : ... .. . ... ... : ... .. . ... ...
ROW 51 : ... .. 7 ... ... ... : ... .. . P8C ... ... : ... .. . P8C : ... .. 3 ... : ... .. . ... ... : ... .. 5 ... ... : ... .. 5 ... ... : ... .. . ... ...
ROW 52 : ... .. 0 ... ... ... : ... .. . P7C ... ... : ... .. . P7C : ... .. . ... : ... .. . ... ... : ... .. 1 ... ... : ... .. 1 ... ... : ... .. 1 ... ...
ROW 53 : B-3 00 5 P80 ... ... : ... .. . P6C ... ... : ... .. . P6C : ... .. 0 ... : ... .. . ... ... : ... .. . ... ... : ... .. . ... ... : ... .. . ... ...
ROW 54 : G-4 00 7 ... ... ... : G-2 00 F P80 ... ... : G-2 00 . P80 : 7-# 00 F ... : ... .. . ... ... : ... .. 5 ... ... : ... .. 5 ... ... : ... .. 5 ... ...
ROW 55 : ... .. A ... ... ... : ... .. E ... ... ... : ... .. . ... : ... .. C ... : ... .. . ... ... : ... .. . ... ... : ... .. . ... ... : ... .. . ... ...
ROW 56 : ... .. 7 ... ... ... : ... .. D ... ... ... : ... .. . ... : ... .. A ... : ... .. . ... ... : ... .. . ... ... : ... .. . ... ... : ... .. . ... ...
ROW 57 : ... .. 0 ... ... ... : ... .. A ... ... ... : ... .. . ... : ... .. 8 ... : ... .. . ... ... : ... .. . ... ... : ... .. . ... ... : ... .. . ... ...
ROW 58 : G-4 00 5 P80 ... ... : ... .. . ... ... ... : ... .. . ... : ... .. 7 ... : ... .. . ... ... : ... .. . ... ... : ... .. . ... ... : ... .. . ... ...
ROW 59 : F-4 00 7 ... ... ... : ... .. . ... ... ... : ... .. . ... : ... .. 0 ... : ... .. . ... ... : ... .. . ... ... : ... .. . ... ... : ... .. . ... ...
ROW 5A : ... .. A ... ... ... : ... .. . P83 ... ... : ... .. . P83 : B-# 00 6 ... : ... .. . ... ... : ... .. . ... ... : ... .. . ... ... : ... .. . ... ...
ROW 5B : ... .. 7 ... ... ... : ... .. . P86 ... ... : ... .. . P86 : ... .. 2 ... : ... .. . ... ... : ... .. . ... ... : ... .. . ... ... : ... .. . ... ...
ROW 5C : ... .. 0 ... ... ... : ... .. 0 ... ... ... : --- .. . ... : ... .. . ... : ... .. . ... ... : ... .. 1 ... ... : ... .. 1 ... ... : ... .. 1 ... ...
ROW 5D : F-4 00 5 P80 ... ... : ... .. . ... ... ... : ... .. . ... : ... .. 0 ... : ... .. . ... ... : ... .. . ... ... : ... .. . ... ... : ... .. . ... ...
ROW 5E : C#4 00 7 ... ... ... : G-2 00 F P80 ... ... : G-2 00 . P80 : ... .. . ... : ... .. . ... ... : B-2 01 A ... ... : F#3 01 A ... ... : D#4 01 A ... ...
ROW 5F : ... .. A ... ... ... : ... .. E ... ... ... : ... .. . ... : ... .. A ... : ... .. . ... ... : ... .. 9 ... ... : ... .. 9 ... ... : ... .. 8 ... ...
ROW 60 : ... .. 7 ... ... ... : ... .. D ... ... ... : ... .. . ... : ... .. 4 ... : ... .. . ... ... : ... .. 8 ... ... : ... .. 8 ... ... : ... .. 5 ... ...
ROW 61 : ... .. 0 ... ... ... : ... .. A ... ... ... : ... .. . ... : ... .. . ... : ... .. . ... ... : ... .. 7 ... ... : ... .. 7 ... ... : ... .. . ... ...
ROW 62 : C#4 00 5 P80 ... ... : ... .. . ... ... ... : ... .. . ... : ... .. 0 ... : ... .. . ... ... : ... .. . ... ... : ... .. . ... ... : ... .. . ... ...
ROW 63 : B-3 00 7 ... ... ... : ... .. . ... ... ... : ... .. . ... : ... .. . ... : ... .. . ... ... : ... .. 6 ... ... : ... .. 6 ... ... : ... .. . ... ...
ROW 64 : ... .. A ... ... ... : ... .. . P87 ... ... : ... .. . P87 : ... .. 8 ... : ... .. . ... ... : ... .. . ... ... : ... .. . ... ... : ... .. . ... ...
ROW 65 : ... .. 7 ... ... ... : ... .. . P8E ... ... : ... .. . P8E : ... .. 3 ... : ... .. . ... ... : ... .. 5 ... ... : ... .. 5 ... ... : ... .. . ... ...
ROW 66 : ... .. 0 ... ... ... : ... .. 0 ... ... ... : --- .. . ... : ... .. . ... : ... .. . ... ... : ... .. 1 ... ... : ... .. 1 ... ... : ... .. 1 ... ...
ROW 67 : B-3 00 5 P80 ... ... : ... .. . ... ... ... : ... .. . ... : ... .. 0 ... : ... .. . ... ... : ... .. . ... ... : ... .. . ... ... : ... .. . ... ...
ROW 68 : G-4 00 7 ... ... ... : G#2 00 F P80 ... ... : G#2 00 . P80 : 2-# 00 F ... : ... .. . ... ... : ... .. 5 ... ... : ... .. 5 ... ... : ... .. 5 ... ...
ROW 69 : ... .. A ... ... ... : ... .. E ... ... ... : ... .. . ... : ... .. C ... : ... .. . ... ... : ... .. . ... ... : ... .. . ... ... : ... .. . ... ...
ROW 6A : ... .. 7 ... ... ... : ... .. D ... ... ... : ... .. . ... : ... .. 6 ... : ... .. . ... ... : ... .. . ... ... : ... .. . ... ... : ... .. . ... ...
ROW 6B : ... .. 0 ... ... ... : ... .. A ... ... ... : ... .. . ... : ... .. 3 ... : ... .. . ... ... : ... .. . ... ... : ... .. . ... ... : ... .. . ... ...
ROW 6C : G-4 00 5 P80 ... ... : ... .. . ... ... ... : ... .. . ... : ... .. 2 ... : ... .. . ... ... : ... .. . ... ... : ... .. . ... ... : ... .. . ... ...
ROW 6D : F-4 00 7 ... ... ... : G-2 00 F ... ... ... : G-2 00 . ... : ... .. 0 ... : ... .. . ... ... : ... .. 2 ... ... : ... .. 2 ... ... : ... .. 1 ... ...
ROW 6E : ... .. A ... ... ... : ... .. E ... ... ... : ... .. . ... : B-# 00 8 ... : ... .. . ... ... : ... .. . ... ... : ... .. . ... ... : ... .. . ... ...
ROW 6F : ... .. 7 ... ... ... : ... .. D ... ... ... : ... .. . ... : ... .. 3 ... : ... .. . ... ... : ... .. . ... ... : ... .. . ... ... : ... .. . ... ...
ROW 70 : ... .. 0 ... ... ... : ... .. 0 ... ... ... : --- .. . ... : ... .. . ... : ... .. . ... ... : ... .. 1 ... ... : ... .. 1 ... ... : ... .. . ... ...
ROW 71 : F-4 00 5 P80 ... ... : ... .. . ... ... ... : ... .. . ... : ... .. 0 ... : ... .. . ... ... : ... .. . ... ... : ... .. . ... ... : ... .. . ... ...
ROW 72 : C#4 00 7 ... ... ... : F-2 00 F P80 ... ... : F-2 00 . ... : 2-# 00 F ... : ... .. . ... ... : C-3 01 A ... ... : G-3 01 A ... ... : E-4 01 A ... ...
ROW 73 : ... .. A ... ... ... : ... .. E ... ... ... : ... .. . ... : ... .. C ... : ... .. . ... ... : ... .. 9 ... ... : ... .. 9 ... ... : ... .. 8 ... ...
ROW 74 : ... .. 7 ... ... ... : ... .. D ... ... ... : ... .. . ... : ... .. 6 ... : ... .. . ... ... : ... .. 8 ... ... : ... .. 8 ... ... : ... .. 5 ... ...
ROW 75 : ... .. 0 ... ... ... : ... .. A ... ... ... : ... .. . ... : ... .. 3 ... : ... .. . ... ... : ... .. 7 ... ... : ... .. 7 ... ... : ... .. . ... ...
ROW 76 : C#4 00 5 P80 ... ... : ... .. . ... ... ... : ... .. . ... : ... .. 2 ... : ... .. . ... ... : ... .. . ... ... : ... .. . ... ... : ... .. . ... ...
ROW 77 : B-3 00 7 ... ... ... : ... .. . ... ... ... : ... .. . ... : ... .. 0 ... : ... .. . ... ... : ... .. 6 ... ... : ... .. 6 ... ... : ... .. . ... ...
ROW 78 : ... .. A ... ... ... : ... .. . ... ... ... : ... .. . ... : B-# 00 8 ... : ... .. . ... ... : ... .. . ... ... : ... .. . ... ... : ... .. . ... ...
ROW 79 : ... .. 7 ... ... ... : ... .. . ... ... ... : ... .. . ... : ... .. 3 ... : ... .. . ... ... : ... .. 5 ... ... : ... .. 5 ... ... : ... .. . ... ...
ROW 7A : ... .. 0 ... ... ... : ... .. 0 ... ... ... : --- .. . ... : ... .. . ... : ... .. . ... ... : ... .. 1 ... ... : ... .. 1 ... ... : ... .. 1 ... ...
ROW 7B : B-3 00 5 P80 ... ... : ... .. . ... ... ... : ... .. . ... : ... .. 0 ... : ... .. . ... ... : ... .. . ... ... : ... .. . ... ... : ... .. . ... ...
ROW 7C : G-4 00 7 ... ... ... : G-2 00 F P80 ... ... : G-2 00 . ... : 7-# 00 F ... : ... .. . ... ... : ... .. 5 ... ... : ... .. 5 ... ... : ... .. 5 ... ...
ROW 7D : ... .. A ... ... ... : ... .. E ... ... ... : ... .. . ... : ... .. C ... : ... .. . ... ... : ... .. . ... ... : ... .. . ... ... : ... .. . ... ...
ROW 7E : ... .. 7 ... ... ... : ... .. D ... ... ... : ... .. . ... : ... .. A ... : ... .. . ... ... : ... .. . ... ... : ... .. . ... ... : ... .. . ... ...
ROW 7F : ... .. 0 ... ... ... : ... .. A ... ... ... : ... .. . ... : ... .. 8 ... : ... .. . ... ... : ... .. . ... ... : ... .. . ... ... : ... .. . ... ...
ROW 80 : G-4 00 5 P80 ... ... : ... .. . ... ... ... : ... .. . ... : ... .. 7 ... : ... .. . ... ... : ... .. . ... ... : ... .. . ... ... : ... .. . ... ...
ROW 81 : F-4 00 7 ... ... ... : ... .. . ... ... ... : ... .. . ... : ... .. 0 ... : ... .. . ... ... : ... .. . ... ... : ... .. . ... ... : ... .. . ... ...
ROW 82 : ... .. A ... ... ... : F#2 00 A P8D ... ... : F#2 00 . P8D : B-# 00 6 ... : ... .. . ... ... : ... .. . ... ... : ... .. . ... ... : ... .. . ... ...
ROW 83 : ... .. 7 ... ... ... : ... .. . P78 ... ... : ... .. . P78 : ... .. 2 ... : ... .. . ... ... : ... .. . ... ... : ... .. . ... ... : ... .. . ... ...
ROW 84 : ... .. 0 ... ... ... : F-2 00 A P87 ... ... : F-2 00 . P87 : ... .. . ... : ... .. . ... ... : ... .. 1 ... ... : ... .. 1 ... ... : ... .. 1 ... ...
ROW 85 : F-4 00 5 P80 ... ... : ... .. . P72 ... ... : ... .. . P72 : ... .. 0 ... : ... .. . ... ... : ... .. . ... ... : ... .. . ... ... : ... .. . ... ...
ROW 86 : C#4 00 7 ... ... ... : B-1 00 F P80 ... ... : B-1 00 . P80 : ... .. . ... : ... .. . ... ... : C#3 01 A ... ... : G#3 01 A ... ... : F-4 01 A ... ...
ROW 87 : ... .. A ... ... ... : ... .. E ... ... ... : ... .. . ... : ... .. A ... : ... .. . ... ... : ... .. 9 ... ... : ... .. 9 ... ... : ... .. 8 ... ...
ROW 88 : ... .. 7 ... ... ... : ... .. D ... ... ... : ... .. . ... : ... .. 4 ... : ... .. . ... ... : ... .. 8 ... ... : ... .. 8 ... ... : ... .. 5 ... ...
ROW 89 : ... .. 0 ... ... ... : ... .. A ... ... ... : ... .. . ... : ... .. . ... : ... .. . ... ... : ... .. 7 ... ... : ... .. 7 ... ... : ... .. . ... ...
ROW 8A : C#4 00 5 P80 ... ... : ... .. . ... ... ... : ... .. . ... : ... .. 0 ... : ... .. . ... ... : ... .. . ... ... : ... .. . ... ... : ... .. . ... ...
ROW 8B : B-3 00 7 ... ... ... : ... .. . ... ... ... : ... .. . ... : ... .. . ... : ... .. . ... ... : ... .. 6 ... ... : ... .. 6 ... ... : ... .. . ... ...
ROW 8C : ... .. A ... ... ... : ... .. . ... ... ... : ... .. . ... : ... .. 8 ... : ... .. . ... ... : ... .. . ... ... : ... .. . ... ... : ... .. . ... ...
ROW 8D : ... .. 7 ... ... ... : ... .. . ... ... ... : ... .. . ... : ... .. 3 ... : ... .. . ... ... : ... .. 5 ... ... : ... .. 5 ... ... : ... .. . ... ...
ROW 8E : ... .. 0 ... ... ... : ... .. 0 ... ... ... : --- .. . ... : ... .. . ... : ... .. . ... ... : ... .. 1 ... ... : ... .. 1 ... ... : ... .. 1 ... ...
ROW 8F : B-3 00 5 P80 ... ... : ... .. . ... ... ... : ... .. . ... : ... .. 0 ... : ... .. . ... ... : ... .. . ... ... : ... .. . ... ... : ... .. . ... ...
ROW 90 : G-4 00 7 ... ... ... : C#2 00 F P80 ... ... : C#2 00 . ... : 9-# 00 D ... : ... .. . ... ... : ... .. 5 ... ... : ... .. 5 ... ... : ... .. 5 ... ...
ROW 91 : ... .. A ... ... ... : ... .. E ... ... ... : ... .. . ... : ... .. . ... : ... .. . ... ... : ... .. . ... ... : ... .. . ... ... : ... .. . ... ...
ROW 92 : ... .. 7 ... ... ... : ... .. D ... ... ... : ... .. . ... : ... .. . ... : ... .. . ... ... : ... .. . ... ... : ... .. . ... ... : ... .. . ... ...
ROW 93 : ... .. 0 ... ... ... : ... .. A ... ... ... : ... .. . ... : ... .. B ... : ... .. . ... ... : ... .. . ... ... : ... .. . ... ... : ... .. . ... ...
ROW 94 : G-4 00 5 P80 ... ... : ... .. . ... ... ... : ... .. . ... : ... .. . ... : ... .. . ... ... : ... .. . ... ... : ... .. . ... ... : ... .. . ... ...
ROW 95 : F-4 00 7 ... ... ... : ... .. . ... ... ... : ... .. . ... : ... .. A ... : ... .. . ... ... : ... .. 2 ... ... : ... .. 2 ... ... : ... .. 1 ... ...
ROW 96 : ... .. A ... ... ... : ... .. . ... ... ... : ... .. . ... : ... .. . ... : ... .. . ... ... : ... .. . ... ... : ... .. . ... ... : ... .. . ... ...
ROW 97 : ... .. 7 ... ... ... : ... .. . ... ... ... : ... .. . ... : ... .. . ... : ... .. . ... ... : ... .. . ... ... : ... .. . ... ... : ... .. . ... ...
ROW 98 : ... .. 0 ... ... ... : ... .. . ... ... ... : ... .. . ... : ... .. 9 ... : ... .. . ... ... : ... .. 1 ... ... : ... .. 1 ... ... : ... .. . ... ...
ROW 99 : F-4 00 5 P80 ... ... : ... .. . ... ... ... : ... .. . ... : ... .. . ... : ... .. . ... ... : ... .. . ... ... : ... .. . ... ... : ... .. . ... ...
ROW 9A : C#4 00 7 ... ... ... : F-1 00 F ... ... ... : F-1 00 . ... : ... .. 7 ... : ... .. . ... ... : D-3 01 A ... ... : A-3 01 A ... ... : F#4 01 A ... ...
ROW 9B : ... .. A ... ... ... : ... .. E ... ... ... : ... .. . ... : ... .. . ... : ... .. . ... ... : ... .. 9 ... ... : ... .. 9 ... ... : ... .. 8 ... ...
ROW 9C : ... .. 7 ... ... ... : ... .. D ... ... ... : ... .. . ... : ... .. . ... : ... .. . ... ... : ... .. 8 ... ... : ... .. 8 ... ... : ... .. 5 ... ...
ROW 9D : ... .. 0 ... ... ... : ... .. A ... ... ... : ... .. . ... : ... .. 6 ... : ... .. . ... ... : ... .. 7 ... ... : ... .. 7 ... ... : ... .. . ... ...
ROW 9E : C#4 00 5 P80 ... ... : ... .. . ... ... ... : ... .. . ... : ... .. . ... : ... .. . ... ... : ... .. . ... ... : ... .. . ... ... : ... .. . ... ...
ROW 9F : B-3 00 7 ... ... ... : ... .. . ... ... ... : ... .. . ... : ... .. 5 ... : ... .. . ... ... : ... .. 6 ... ... : ... .. 6 ... ... : ... .. . ... ...
ROW A0 : ... .. A ... ... ... : ... .. . ... ... ... : ... .. . ... : ... .. . ... : ... .. . ... ... : ... .. . ... ... : ... .. . ... ... : ... .. . ... ...
ROW A1 : ... .. 7 ... ... ... : ... .. . ... ... ... : ... .. . ... : ... .. . ... : ... .. . ... ... : ... .. 5 ... ... : ... .. 5 ... ... : ... .. . ... ...
ROW A2 : ... .. 0 ... ... ... : ... .. . ... ... ... : ... .. . ... : ... .. 4 ... : ... .. . ... ... : ... .. 1 ... ... : ... .. 1 ... ... : ... .. 1 ... ...
ROW A3 : B-3 00 5 P80 ... ... : ... .. . ... ... ... : ... .. . ... : ... .. . ... : ... .. . ... ... : ... .. . ... ... : ... .. . ... ... : ... .. . ... ...
ROW A4 : G-3 00 7 ... ... ... : G-1 00 F ... ... ... : G-1 00 . ... : 7-# 00 F ... : ... .. . ... ... : ... .. 5 ... ... : ... .. 5 ... ... : ... .. 5 ... ...
ROW A5 : ... .. A ... ... ... : ... .. E ... ... ... : ... .. . ... : ... .. C ... : ... .. . ... ... : ... .. . ... ... : ... .. . ... ... : ... .. . ... ...
ROW A6 : ... .. 7 ... ... ... : ... .. D ... ... ... : ... .. . ... : ... .. A ... : ... .. . ... ... : ... .. . ... ... : ... .. . ... ... : ... .. . ... ...
ROW A7 : ... .. 0 ... ... ... : ... .. A ... ... ... : ... .. . ... : ... .. 8 ... : ... .. . ... ... : ... .. . ... ... : ... .. . ... ... : ... .. . ... ...
ROW A8 : G-3 00 5 P80 ... ... : ... .. . ... ... ... : ... .. . ... : ... .. 7 ... : ... .. . ... ... : ... .. . ... ... : ... .. . ... ... : ... .. . ... ...
ROW A9 : F-3 00 7 ... ... ... : ... .. . ... ... ... : ... .. . ... : ... .. 0 ... : ... .. . ... ... : ... .. . ... ... : ... .. . ... ... : ... .. . ... ...
ROW AA : ... .. A ... ... ... : ... .. . ... ... ... : ... .. . ... : B-# 00 6 ... : ... .. . ... ... : ... .. . ... ... : ... .. . ... ... : ... .. . ... ...
ROW AB : ... .. 7 ... ... ... : ... .. . ... ... ... : ... .. . ... : ... .. 2 ... : ... .. . ... ... : ... .. . ... ... : ... .. . ... ... : ... .. . ... ...
ROW AC : ... .. 0 ... ... ... : ... .. . ... ... ... : ... .. . ... : ... .. . ... : ... .. . ... ... : ... .. 1 ... ... : ... .. 1 ... ... : ... .. 1 ... ...
ROW AD : F-3 00 5 P80 ... ... : ... .. . ... ... ... : ... .. . ... : ... .. 0 ... : ... .. . ... ... : ... .. . ... ... : ... .. . ... ... : ... .. . ... ...
ROW AE : A-2 00 A ... ... ... : B-0 00 F ... ... ... : B-0 00 . ... : 9-# 00 D ... : ... .. . ... ... : C#3 01 A ... ... : G#3 01 A ... ... : F-4 01 A ... ...
ROW AF : ... .. 9 ... ... ... : ... .. E ... ... ... : ... .. . ... : ... .. . ... : ... .. . ... ... : ... .. 9 ... ... : ... .. 9 ... ... : ... .. 8 ... ...
ROW B0 : ... .. 8 ... ... ... : ... .. D ... ... ... : ... .. . ... : ... .. . ... : ... .. . ... ... : ... .. 8 ... ... : ... .. 8 ... ... : ... .. 5 ... ...
ROW B1 : ... .. 6 ... ... ... : ... .. A ... ... ... : ... .. . ... : ... .. B ... : ... .. . ... ... : ... .. 7 ... ... : ... .. 7 ... ... : ... .. . ... ...
ROW B2 : ... .. . ... ... ... : ... .. . ... ... ... : ... .. . ... : ... .. . ... : ... .. . ... ... : ... .. . ... ... : ... .. . ... ... : ... .. . ... ...
ROW B3 : B-2 00 A ... ... ... : ... .. . ... ... ... : ... .. . ... : ... .. A ... : ... .. . ... ... : ... .. 6 ... ... : ... .. 6 ... ... : ... .. . ... ...
ROW B4 : ... .. 9 ... ... ... : ... .. . ... ... ... : ... .. . ... : ... .. . ... : ... .. . ... ... : ... .. . ... ... : ... .. . ... ... : ... .. . ... ...
ROW B5 : ... .. 8 ... ... ... : ... .. . ... ... ... : ... .. . ... : ... .. . ... : ... .. . ... ... : ... .. 5 ... ... : ... .. 5 ... ... : ... .. . ... ...
ROW B6 : ... .. 6 ... ... ... : ... .. . ... ... ... : ... .. . ... : ... .. 9 ... : ... .. . ... ... : ... .. 1 ... ... : ... .. 1 ... ... : ... .. 1 ... ...
ROW B7 : ... .. . ... ... ... : ... .. . ... ... ... : ... .. . ... : ... .. . ... : ... .. . ... ... : ... .. . ... ... : ... .. . ... ... : ... .. . ... ...
ROW B8 : D-3 00 B ... ... ... : C#1 00 F ... ... ... : C#1 00 . ... : ... .. 7 ... : ... .. . ... ... : ... .. 5 ... ... : ... .. 5 ... ... : ... .. 5 ... ...
ROW B9 : ... .. A ... ... ... : ... .. E ... ... ... : ... .. . ... : ... .. . ... : ... .. . ... ... : ... .. . ... ... : ... .. . ... ... : ... .. . ... ...
ROW BA : ... .. 9 ... ... ... : ... .. D ... ... ... : ... .. . ... : ... .. . ... : ... .. . ... ... : ... .. . ... ... : ... .. . ... ... : ... .. . ... ...
ROW BB : ... .. 7 ... ... ... : ... .. A ... ... ... : ... .. . ... : ... .. 6 ... : ... .. . ... ... : ... .. . ... ... : ... .. . ... ... : ... .. . ... ...
ROW BC : ... .. . ... ... ... : ... .. . ... ... ... : ... .. . ... : ... .. . ... : ... .. . ... ... : ... .. . ... ... : ... .. . ... ... : ... .. . ... ...
ROW BD : E-3 00 B ... ... ... : ... .. . ... ... ... : ... .. . ... : ... .. 5 ... : ... .. . ... ... : ... .. 2 ... ... : ... .. 2 ... ... : ... .. 1 ... ...
ROW BE : ... .. A ... ... ... : ... .. . ... ... ... : ... .. . ... : ... .. . ... : ... .. . ... ... : ... .. . ... ... : ... .. . ... ... : ... .. . ... ...
ROW BF : ... .. 9 ... ... ... : ... .. . ... ... ... : ... .. . ... : ... .. . ... : ... .. . ... ... : ... .. . ... ... : ... .. . ... ... : ... .. . ... ...
ROW C0 : ... .. 7 ... ... ... : ... .. . ... ... ... : ... .. . ... : ... .. 4 ... : ... .. . ... ... : ... .. 1 ... ... : ... .. 1 ... ... : ... .. . ... ...
ROW C1 : ... .. . ... ... ... : ... .. . ... ... ... : ... .. . ... : ... .. . ... : ... .. . ... ... : ... .. . ... ... : ... .. . ... ... : ... .. . ... ...
ROW C2 : F#3 00 C ... ... ... : G-3 00 F ... ... ... : G-3 00 . ... : ... .. 0 ... : ... .. . ... ... : C-3 01 A ... ... : G-3 01 A ... ... : E-4 01 A ... ...
ROW C3 : ... .. B ... ... ... : ... .. E ... ... ... : ... .. . ... : B-# 00 8 ... : ... .. . ... ... : ... .. 9 ... ... : ... .. 9 ... ... : ... .. 8 ... ...
ROW C4 : ... .. A ... ... ... : ... .. D ... ... ... : ... .. . ... : ... .. 3 ... : ... .. . ... ... : ... .. 8 ... ... : ... .. 8 ... ... : ... .. 5 ... ...
ROW C5 : ... .. 8 ... ... ... : ... .. 0 ... ... ... : --- .. . ... : ... .. . ... : ... .. . ... ... : ... .. 7 ... ... : ... .. 7 ... ... : ... .. . ... ...
ROW C6 : ... .. . ... ... ... : ... .. . ... ... ... : ... .. . ... : ... .. 0 ... : ... .. . ... ... : ... .. . ... ... : ... .. . ... ... : ... .. . ... ...
ROW C7 : G-3 00 C ... ... ... : F-3 00 F P80 ... ... : F-3 00 . ... : ... .. . ... : ... .. . ... ... : ... .. 6 ... ... : ... .. 6 ... ... : ... .. . ... ...
ROW C8 : ... .. B ... ... ... : ... .. E ... ... ... : ... .. . ... : ... .. 6 ... : ... .. . ... ... : ... .. . ... ... : ... .. . ... ... : ... .. . ... ...
ROW C9 : ... .. A ... ... ... : ... .. D ... ... ... : ... .. . ... : ... .. 2 ... : ... .. . ... ... : ... .. 5 ... ... : ... .. 5 ... ... : ... .. . ... ...
ROW CA : ... .. 8 ... ... ... : ... .. 0 ... ... ... : --- .. . ... : ... .. . ... : ... .. . ... ... : ... .. 1 ... ... : ... .. 1 ... ... : ... .. 1 ... ...
ROW CB : ... .. . ... ... ... : ... .. . ... ... ... : ... .. . ... : ... .. 0 ... : ... .. . ... ... : ... .. . ... ... : ... .. . ... ... : ... .. . ... ...
ROW CC : G#3 00 D ... ... ... : C#3 00 F P80 ... ... : C#3 00 . ... : 7-# 00 F ... : ... .. . ... ... : B-2 01 A ... ... : F#3 01 A ... ... : G#3 01 F ... ...
ROW CD : ... .. C ... ... ... : ... .. E ... ... ... : ... .. . ... : ... .. C ... : ... .. . ... ... : ... .. 9 ... ... : ... .. 9 ... ... : ... .. D ... ...
ROW CE : ... .. B ... ... ... : ... .. D ... ... ... : ... .. . ... : ... .. A ... : ... .. . ... ... : ... .. 8 ... ... : ... .. 8 ... ... : ... .. 8 ... ...
ROW CF : ... .. 8 ... ... ... : ... .. A ... ... ... : ... .. . ... : ... .. 0 ... : ... .. . ... ... : ... .. 7 ... ... : ... .. 7 ... ... : ... .. . ... ...
ROW D0 : ... .. . ... ... ... : ... .. . ... ... ... : ... .. . ... : ... .. . ... : ... .. . ... ... : ... .. . ... ... : ... .. . ... ... : ... .. . ... ...
ROW D1 : A#3 00 D ... ... ... : B-2 00 F ... ... ... : B-2 00 . ... : 6-# 00 F ... : ... .. . ... ... : ... .. 6 ... ... : ... .. 6 ... ... : A#3 01 F ... ...
ROW D2 : ... .. C ... ... ... : ... .. E ... ... ... : ... .. . ... : ... .. C ... : ... .. . ... ... : ... .. . ... ... : ... .. . ... ... : ... .. D ... ...
ROW D3 : ... .. B ... ... ... : ... .. D ... ... ... : ... .. . ... : ... .. A ... : ... .. . ... ... : ... .. 5 ... ... : ... .. 5 ... ... : ... .. 8 ... ...
ROW D4 : ... .. 8 ... ... ... : ... .. 0 ... ... ... : --- .. . ... : ... .. 0 ... : ... .. . ... ... : ... .. 1 ... ... : ... .. 1 ... ... : ... .. . ... ...
ROW D5 : ... .. . ... ... ... : ... .. . ... ... ... : ... .. . ... : ... .. . ... : ... .. . ... ... : ... .. . ... ... : ... .. . ... ... : ... .. . ... ...
ROW D6 : C-4 00 E ... ... ... : G-2 00 F P80 ... ... : G-2 00 . ... : 5-# 00 F ... : ... .. . ... ... : ... .. 5 P84 ... : ... .. 5 P83 ... : C-4 01 F ... ...
ROW D7 : ... .. D ... ... ... : ... .. E ... ... ... : ... .. . ... : ... .. C ... : ... .. . ... ... : ... .. . P86 ... : ... .. . P85 ... : ... .. D ... ...
ROW D8 : ... .. C ... ... ... : ... .. D ... ... ... : ... .. . ... : ... .. A ... : ... .. . ... ... : ... .. . P85 ... : ... .. . P84 ... : ... .. 8 ... ...
ROW D9 : ... .. 9 ... ... ... : ... .. 0 ... ... ... : --- .. . ... : ... .. 0 ... : ... .. . ... ... : ... .. . P82 ... : ... .. . P81 ... : ... .. . ... ...
ROW DA : ... .. . ... ... ... : ... .. . ... ... ... : ... .. . ... : ... .. . ... : ... .. . ... ... : ... .. . P7E ... : ... .. . P7D ... : ... .. . ... ...
ROW DB : D-4 00 E ... ... ... : F-2 00 F P80 ... ... : F-2 00 . ... : 4-# 00 F ... : ... .. . ... ... : ... .. . P7B ... : ... .. . P7A ... : D-4 01 F ... ...
ROW DC : ... .. D ... ... ... : ... .. E ... ... ... : ... .. . ... : ... .. C ... : ... .. . ... ... : ... .. . P7A ... : ... .. . P79 ... : ... .. D ... ...
ROW DD : ... .. C ... ... ... : ... .. D ... ... ... : ... .. . ... : ... .. A ... : ... .. . ... ... : ... .. . P7C ... : ... .. . P7B ... : ... .. 8 ... ...
ROW DE : ... .. A ... ... ... : ... .. 0 ... ... ... : --- .. . ... : ... .. 8 ... : ... .. . ... ... : ... .. . P80 ... : ... .. . P7F ... : ... .. . ... ...
ROW DF : ... .. . ... ... ... : ... .. . ... ... ... : ... .. . ... : ... .. 7 ... : ... .. . ... ... : ... .. . P83 ... : ... .. . P82 ... : ... .. . ... ...
ROW E0 : C-4 00 D ... ... ... : C-2 00 F P80 V01 ... : B-3 00 . ... : 9-# 00 D ... : ... .. . ... ... : F#3 01 A P87 ... : A#3 01 A P85 ... : E-4 01 F ... ...
ROW E1 : ... .. B ... ... ... : ... .. E ... ... ... : C#3 00 . ... : ... .. . ... : ... .. . ... ... : ... .. 9 ... ... : ... .. 9 ... ... : ... .. D ... ...
ROW E2 : ... .. . ... ... ... : ... .. D ... ... ... : F#2 00 . ... : ... .. . ... : ... .. . ... ... : ... .. 8 P83 ... : ... .. 8 P81 ... : ... .. 8 ... ...
ROW E3 : ... .. A ... ... ... : ... .. A P83 ... ... : F-2 00 . ... : ... .. B ... : ... .. . ... ... : ... .. 7 P81 ... : ... .. 7 P7F ... : ... .. . ... ...
ROW E4 : ... .. 8 ... ... ... : ... .. . ... ... ... : C-2 00 . ... : ... .. . ... : ... .. . ... ... : ... .. . ... ... : ... .. . ... ... : ... .. . ... ...
ROW E5 : A#3 00 D ... ... ... : ... .. . ... ... ... : ... .. . ... : ... .. A ... : ... .. . ... ... : ... .. 6 ... ... : ... .. 6 ... ... : ... .. . ... ...
ROW E6 : ... .. B ... ... ... : ... .. . ... ... ... : ... .. . ... : ... .. . ... : ... .. . ... ... : ... .. . ... ... : ... .. . ... ... : ... .. . ... ...
ROW E7 : ... .. . ... ... ... : ... .. . ... ... ... : ... .. . ... : ... .. . ... : ... .. . ... ... : ... .. 5 ... ... : ... .. 5 ... ... : ... .. . ... ...
ROW E8 : ... .. A ... ... ... : ... .. . ... ... ... : ... .. . ... : ... .. 9 ... : ... .. . ... ... : ... .. . ... ... : ... .. . ... ... : ... .. . ... ...
ROW E9 : ... .. 8 ... ... ... : ... .. . ... ... ... : ... .. . ... : ... .. . ... : ... .. . ... ... : ... .. . ... ... : ... .. . ... ... : ... .. . ... ...
ROW EA : D-3 00 D ... ... ... : C-3 00 F ... ... ... : B-4 00 . ... : ... .. 7 ... : ... .. . ... ... : ... .. . ... ... : ... .. . ... ... : ... .. . ... ...
ROW EB : ... .. B ... ... ... : ... .. E ... ... ... : C#4 00 . ... : ... .. . ... : ... .. . ... ... : ... .. . ... ... : ... .. . ... ... : ... .. . ... ...
ROW EC : ... .. . ... ... ... : ... .. D ... ... ... : F#3 00 . ... : ... .. . ... : ... .. . ... ... : ... .. . ... ... : ... .. . ... ... : ... .. . ... ...
ROW ED : ... .. A ... ... ... : ... .. 0 ... V00 ... : --- .. . ... : ... .. 6 ... : ... .. . ... ... : ... .. . ... ... : ... .. . ... ... : ... .. . ... ...
ROW EE : ... .. 8 ... ... ... : ... .. . ... ... ... : ... .. . ... : ... .. . ... : ... .. . ... ... : ... .. . ... ... : ... .. . ... ... : ... .. . ... ...
ROW EF : E-3 00 D ... ... ... : C-3 00 F P83 V01 ... : C-3 00 . ... : ... .. 5 ... : ... .. . ... ... : ... .. . ... ... : ... .. . ... ... : ... .. . ... ...
ROW F0 : ... .. B ... ... ... : ... .. E ... ... ... : ... .. . ... : ... .. . ... : ... .. . ... ... : ... .. . ... ... : ... .. . ... ... : ... .. . ... ...
ROW F1 : ... .. . ... ... ... : ... .. D ... ... ... : ... .. . ... : ... .. . ... : ... .. . ... ... : ... .. . ... ... : ... .. . ... ... : ... .. . ... ...
ROW F2 : ... .. A ... ... ... : ... .. 0 ... V00 ... : --- .. . ... : ... .. 4 ... : ... .. . ... ... : ... .. . ... ... : ... .. . ... ... : ... .. . ... ...
ROW F3 : ... .. 8 ... ... ... : ... .. . ... ... ... : ... .. . ... : ... .. . ... : ... .. . ... ... : ... .. . ... ... : ... .. . ... ... : ... .. . ... ...
ROW F4 : C-3 00 D ... ... ... : C-2 00 F P83 V01 ... : C-2 00 . ... : 7-# 00 F ... : ... .. . ... ... : G-3 01 5 P7A ... : B-3 01 5 P7B ... : F-4 01 8 P80 ...
ROW F5 : ... .. B ... ... ... : ... .. E ... ... ... : ... .. . ... : ... .. C ... : ... .. . ... ... : ... .. . P80 ... : ... .. . P81 ... : F#4 01 8 P7C ...
ROW F6 : ... .. . ... ... ... : ... .. D ... ... ... : ... .. . ... : ... .. A ... : ... .. . ... ... : ... .. . P7E ... : ... .. . P7F ... : F-4 01 8 P84 ...
ROW F7 : ... .. A ... ... ... : ... .. A ... ... ... : ... .. . ... : ... .. 8 ... : ... .. . ... ... : F#3 01 5 P85 ... : A#3 01 5 P83 ... : E-4 01 8 P85 ...
ROW F8 : ... .. 8 ... ... ... : ... .. . ... ... ... : ... .. . ... : ... .. 7 ... : ... .. . ... ... : ... .. . P7D ... : ... .. . P7B ... : ... .. . P7D ...
ROW F9 : A#2 00 D ... ... ... : ... .. . ... ... ... : ... .. . ... : ... .. 0 ... : ... .. . ... ... : F-3 01 5 P85 ... : A-3 01 5 P7F ... : D#4 01 8 P7E ...
ROW FA : ... .. B ... ... ... : ... .. . ... ... ... : ... .. . ... : B-# 00 6 ... : ... .. . ... ... : ... .. . P83 ... : ... .. . P7D ... : ... .. . P7C ...
ROW FB : ... .. . ... ... ... : ... .. . ... ... ... : ... .. . ... : ... .. 2 ... : ... .. . ... ... : ... .. . P89 ... : ... .. . P83 ... : ... .. . P82 ...
ROW FC : ... .. A ... ... ... : ... .. 0 ... V00 ... : --- .. . ... : ... .. . ... : ... .. . ... ... : F#3 01 5 P81 ... : A#3 01 5 P7F ... : E-4 01 8 P81 ...
ROW FD : ... .. 8 ... ... ... : ... .. . ... ... ... : ... .. . ... : ... .. 0 ... : ... .. . ... ... : G-3 01 5 P79 ... : B-3 01 5 P7A ... : F-4 01 8 P7F ...
ROW FE : E-2 00 D ... ... ... : A#2 00 F P83 V01 ... : A#2 00 . ... : ... .. . ... : ... .. . ... ... : E-3 01 A P81 ... : G#3 01 A P7F ... : D-4 01 F P81 ...
ROW FF : ... .. B ... ... ... : ... .. E ... ... ... : ... .. . ... : ... .. A ... : ... .. . ... ... : ... .. 9 ... ... : ... .. 9 ... ... : ... .. D ... ...

PATTERN 1B
ROW 00 : ... .. . ... ... ... : ... .. D ... ... ... : ... .. . ... : ... .. 4 ... : ... .. . ... ... : ... .. 8 ... ... : ... .. 8 ... ... : ... .. 8 ... ...
ROW 01 : ... .. A ... ... ... : ... .. A ... ... ... : ... .. . ... : ... .. . ... : ... .. . ... ... : ... .. 7 ... ... : ... .. 7 ... ... : ... .. . ... ...
ROW 02 : ... .. 8 ... ... ... : ... .. . ... ... ... : ... .. . ... : ... .. 0 ... : ... .. . ... ... : ... .. . ... ... : ... .. . ... ... : ... .. . ... ...
ROW 03 : F#2 00 D ... ... ... : ... .. . ... ... ... : ... .. . ... : ... .. . ... : ... .. . ... ... : ... .. 6 ... ... : ... .. 6 ... ... : ... .. . ... ...
ROW 04 : ... .. B ... ... ... : ... .. . ... ... ... : ... .. . ... : ... .. 8 ... : ... .. . ... ... : ... .. . ... ... : ... .. . ... ... : ... .. . ... ...
ROW 05 : ... .. . ... ... ... : ... .. . ... ... ... : ... .. . ... : ... .. 3 ... : ... .. . ... ... : ... .. 5 ... ... : ... .. 5 ... ... : ... .. . ... ...
ROW 06 : ... .. A ... ... ... : ... .. 0 ... V00 ... : --- .. . ... : ... .. . ... : ... .. . ... ... : ... .. . ... ... : ... .. . ... ... : ... .. . ... ...
ROW 07 : ... .. 8 ... ... ... : ... .. . ... ... ... : ... .. . ... : ... .. 0 ... : ... .. . ... ... : ... .. . ... ... : ... .. . ... ... : ... .. . ... ...
ROW 08 : C-4 00 D ... ... ... : G#2 00 F P83 V01 ... : G-4 00 . ... : 2-# 00 F ... : ... .. . ... ... : F#3 01 A ... ... : A#3 01 A ... ... : E-4 01 F ... ...
ROW 09 : ... .. B ... ... ... : ... .. E ... ... ... : A-3 00 . ... : ... .. C ... : ... .. . ... ... : ... .. 9 ... ... : ... .. 9 ... ... : ... .. D ... ...
ROW 0A : ... .. . ... ... ... : ... .. D ... ... ... : D-3 00 . ... : ... .. 6 ... : ... .. . ... ... : ... .. 8 ... ... : ... .. 8 ... ... : ... .. 8 ... ...
ROW 0B : ... .. A ... ... ... : ... .. A ... ... ... : C#3 00 . ... : ... .. 3 ... : ... .. . ... ... : ... .. 7 ... ... : ... .. 7 ... ... : ... .. . ... ...
ROW 0C : ... .. 8 ... ... ... : ... .. . ... ... ... : G#2 00 . ... : ... .. 2 ... : ... .. . ... ... : ... .. . ... ... : ... .. . ... ... : ... .. . ... ...
ROW 0D : A#3 00 D ... ... ... : ... .. . ... ... ... : ... .. . ... : ... .. 0 ... : ... .. . ... ... : ... .. 6 ... ... : ... .. 6 ... ... : ... .. . ... ...
ROW 0E : ... .. B ... ... ... : ... .. . ... ... ... : ... .. . ... : B-# 00 8 ... : ... .. . ... ... : ... .. . ... ... : ... .. . ... ... : ... .. . ... ...
ROW 0F : ... .. . ... ... ... : ... .. . ... ... ... : ... .. . ... : ... .. 3 ... : ... .. . ... ... : ... .. 5 ... ... : ... .. 5 ... ... : ... .. . ... ...
ROW 10 : ... .. A ... ... ... : ... .. . ... ... ... : ... .. . ... : ... .. . ... : ... .. . ... ... : ... .. . ... ... : ... .. . ... ... : ... .. . ... ...
ROW 11 : ... .. 8 ... ... ... : ... .. . ... ... ... : ... .. . ... : ... .. 0 ... : ... .. . ... ... : ... .. . ... ... : ... .. . ... ... : ... .. . ... ...
ROW 12 : D-3 00 D ... ... ... : D-2 00 F ... ... ... : C#4 00 . ... : 2-# 00 F ... : ... .. . ... ... : E-3 01 A ... ... : G#3 01 A ... ... : D-4 01 F ... ...
ROW 13 : ... .. B ... ... ... : ... .. E ... ... ... : D#3 00 . ... : ... .. C ... : ... .. . ... ... : ... .. 9 ... ... : ... .. 9 ... ... : ... .. D ... ...
ROW 14 : ... .. . ... ... ... : ... .. D ... ... ... : G#2 00 . ... : ... .. 6 ... : ... .. . ... ... : ... .. 8 ... ... : ... .. 8 ... ... : ... .. 8 ... ...
ROW 15 : ... .. A ... ... ... : ... .. A ... ... ... : G-2 00 . ... : ... .. 3 ... : ... .. . ... ... : ... .. 7 ... ... : ... .. 7 ... ... : ... .. . ... ...
ROW 16 : ... .. 8 ... ... ... : ... .. . ... ... ... : D-2 00 . ... : ... .. 2 ... : ... .. . ... ... : ... .. . ... ... : ... .. . ... ... : ... .. . ... ...
ROW 17 : E-3 00 D ... ... ... : ... .. . ... ... ... : ... .. . ... : ... .. 0 ... : ... .. . ... ... : ... .. 6 ... ... : ... .. 6 ... ... : ... .. . ... ...
ROW 18 : ... .. B ... ... ... : ... .. . ... ... ... : ... .. . ... : B-# 00 8 ... : ... .. . ... ... : ... .. . ... ... : ... .. . ... ... : ... .. . ... ...
ROW 19 : ... .. . ... ... ... : ... .. . ... ... ... : ... .. . ... : ... .. 3 ... : ... .. . ... ... : ... .. 5 ... ... : ... .. 5 ... ... : ... .. . ... ...
ROW 1A : ... .. A ... ... ... : ... .. . ... ... ... : ... .. . ... : ... .. . ... : ... .. . ... ... : ... .. . ... ... : ... .. . ... ... : ... .. . ... ...
ROW 1B : ... .. 8 ... ... ... : ... .. . ... ... ... : ... .. . ... : ... .. 0 ... : ... .. . ... ... : ... .. . ... ... : ... .. . ... ... : ... .. . ... ...
ROW 1C : C-3 00 D ... ... ... : E-2 00 F ... ... ... : E-2 00 . ... : 7-# 00 F ... : ... .. . ... ... : F#3 01 A ... ... : A#3 01 A ... ... : E-4 01 F ... ...
ROW 1D : ... .. B ... ... ... : ... .. E ... ... ... : ... .. . ... : ... .. C ... : ... .. . ... ... : ... .. 9 ... ... : ... .. 9 ... ... : ... .. D ... ...
ROW 1E : ... .. . ... ... ... : ... .. D ... ... ... : ... .. . ... : ... .. A ... : ... .. . ... ... : ... .. 8 ... ... : ... .. 8 ... ... : ... .. 8 ... ...
ROW 1F : ... .. A ... ... ... : ... .. A ... ... ... : ... .. . ... : ... .. 8 ... : ... .. . ... ... : ... .. 7 ... ... : ... .. 7 ... ... : ... .. . ... ...
ROW 20 : ... .. 8 ... ... ... : ... .. . ... ... ... : ... .. . ... : ... .. 7 ... : ... .. . ... ... : ... .. . ... ... : ... .. . ... ... : ... .. . ... ...
ROW 21 : A#2 00 D ... ... ... : ... .. . ... ... ... : ... .. . ... : ... .. 0 ... : ... .. . ... ... : ... .. 6 ... ... : ... .. 6 ... ... : ... .. . ... ...
ROW 22 : ... .. B ... ... ... : ... .. . ... ... ... : ... .. . ... : B-# 00 6 ... : ... .. . ... ... : ... .. . ... ... : ... .. . ... ... : ... .. . ... ...
ROW 23 : ... .. . ... ... ... : ... .. . ... ... ... : ... .. . ... : ... .. 2 ... : ... .. . ... ... : ... .. 5 ... ... : ... .. 5 ... ... : ... .. . ... ...
ROW 24 : ... .. A ... ... ... : ... .. 0 ... V00 ... : --- .. . ... : ... .. . ... : ... .. . ... ... : ... .. . ... ... : ... .. . ... ... : ... .. . ... ...
ROW 25 : ... .. 8 ... ... ... : ... .. . ... ... ... : ... .. . ... : ... .. 0 ... : ... .. . ... ... : ... .. . ... ... : ... .. . ... ... : ... .. . ... ...
ROW 26 : E-2 00 D ... ... ... : F#2 00 F P83 V01 ... : F#2 00 . ... : ... .. . ... : ... .. . ... ... : G#3 01 A ... ... : C-4 01 A ... ... : F#4 01 F ... ...
ROW 27 : ... .. B ... ... ... : ... .. E ... ... ... : ... .. . ... : ... .. A ... : ... .. . ... ... : ... .. 9 ... ... : ... .. 9 ... ... : ... .. D ... ...
ROW 28 : ... .. . ... ... ... : ... .. D ... ... ... : ... .. . ... : ... .. 4 ... : ... .. . ... ... : ... .. 8 ... ... : ... .. 8 ... ... : ... .. 8 ... ...
ROW 29 : ... .. A ... ... ... : ... .. A ... ... ... : ... .. . ... : ... .. . ... : ... .. . ... ... : ... .. 7 ... ... : ... .. 7 ... ... : ... .. . ... ...
ROW 2A : ... .. 8 ... ... ... : ... .. . ... ... ... : ... .. . ... : ... .. 0 ... : ... .. . ... ... : ... .. . ... ... : ... .. . ... ... : ... .. . ... ...
ROW 2B : F#2 00 D ... ... ... : ... .. . ... ... ... : ... .. . ... : ... .. . ... : ... .. . ... ... : ... .. 6 ... ... : ... .. 6 ... ... : ... .. . ... ...
ROW 2C : ... .. B ... ... ... : ... .. . ... ... ... : ... .. . ... : ... .. 8 ... : ... .. . ... ... : ... .. . ... ... : ... .. . ... ... : ... .. . ... ...
ROW 2D : ... .. . ... ... ... : ... .. . ... ... ... : ... .. . ... : ... .. 3 ... : ... .. . ... ... : ... .. 5 ... ... : ... .. 5 ... ... : ... .. . ... ...
ROW 2E : ... .. A ... ... ... : ... .. 0 ... V00 ... : --- .. . ... : ... .. . ... : ... .. . ... ... : ... .. . ... ... : ... .. . ... ... : ... .. . ... ...
ROW 2F : ... .. 8 ... ... ... : ... .. . ... ... ... : ... .. . ... : ... .. 0 ... : ... .. . ... ... : ... .. . ... ... : ... .. . ... ... : ... .. . ... ...
ROW 30 : C-4 00 D ... ... ... : A#1 00 F P83 V01 ... : A-3 00 . ... : 2-# 00 F ... : ... .. . ... ... : A#3 01 A ... ... : D-4 01 A ... ... : G#4 01 F ... ...
ROW 31 : ... .. B ... ... ... : ... .. E ... ... ... : B-2 00 . ... : ... .. C ... : ... .. . ... ... : ... .. 9 ... ... : ... .. 9 ... ... : ... .. D ... ...
ROW 32 : ... .. . ... ... ... : ... .. D ... ... ... : E-2 00 . ... : ... .. 6 ... : ... .. . ... ... : ... .. 8 ... ... : ... .. 8 ... ... : ... .. 8 ... ...
ROW 33 : ... .. A ... ... ... : ... .. 0 ... V00 ... : --- .. . ... : ... .. 3 ... : ... .. . ... ... : ... .. 7 ... ... : ... .. 7 ... ... : ... .. . ... ...
ROW 34 : ... .. 8 ... ... ... : ... .. . ... ... ... : ... .. . ... : ... .. 2 ... : ... .. . ... ... : ... .. . ... ... : ... .. . ... ... : ... .. . ... ...
ROW 35 : A#3 00 D ... ... ... : A#1 00 F P83 V01 ... : A#1 00 . ... : ... .. 0 ... : ... .. . ... ... : ... .. 6 ... ... : ... .. 6 ... ... : ... .. . ... ...
ROW 36 : ... .. B ... ... ... : ... .. E ... ... ... : ... .. . ... : B-# 00 8 ... : ... .. . ... ... : ... .. . ... ... : ... .. . ... ... : ... .. . ... ...
ROW 37 : ... .. . ... ... ... : ... .. D ... ... ... : ... .. . ... : ... .. 3 ... : ... .. . ... ... : ... .. 5 ... ... : ... .. 5 ... ... : ... .. . ... ...
ROW 38 : ... .. A ... ... ... : ... .. 0 ... V00 ... : --- .. . ... : ... .. . ... : ... .. . ... ... : ... .. . ... ... : ... .. . ... ... : ... .. . ... ...
ROW 39 : ... .. 8 ... ... ... : ... .. . ... ... ... : ... .. . ... : ... .. 0 ... : ... .. . ... ... : ... .. . ... ... : ... .. . ... ... : ... .. . ... ...
ROW 3A : D-3 00 D ... ... ... : A#1 00 F P83 V01 ... : A#1 00 . ... : 2-# 00 F ... : ... .. . ... ... : G#3 01 A ... ... : C-4 01 A ... ... : F#4 01 F ... ...
ROW 3B : ... .. B ... ... ... : ... .. E ... ... ... : ... .. . ... : ... .. C ... : ... .. . ... ... : ... .. 9 ... ... : ... .. 9 ... ... : ... .. D ... ...
ROW 3C : ... .. . ... ... ... : ... .. D ... ... ... : ... .. . ... : ... .. 6 ... : ... .. . ... ... : ... .. 8 ... ... : ... .. 8 ... ... : ... .. 8 ... ...
ROW 3D : ... .. A ... ... ... : ... .. 0 ... V00 ... : --- .. . ... : ... .. 3 ... : ... .. . ... ... : ... .. 7 ... ... : ... .. 7 ... ... : ... .. . ... ...
ROW 3E : ... .. 8 ... ... ... : ... .. . ... ... ... : ... .. . ... : ... .. 2 ... : ... .. . ... ... : ... .. . ... ... : ... .. . ... ... : ... .. . ... ...
ROW 3F : E-3 00 D ... ... ... : A#1 00 F P83 V01 ... : A#1 00 . ... : ... .. 0 ... : ... .. . ... ... : ... .. 6 ... ... : ... .. 6 ... ... : ... .. . ... ...
ROW 40 : ... .. B ... ... ... : ... .. E ... ... ... : ... .. . ... : B-# 00 8 ... : ... .. . ... ... : ... .. . ... ... : ... .. . ... ... : ... .. . ... ...
ROW 41 : ... .. . ... ... ... : ... .. D ... ... ... : ... .. . ... : ... .. 3 ... : ... .. . ... ... : ... .. 5 ... ... : ... .. 5 ... ... : ... .. . ... ...
ROW 42 : ... .. A ... ... ... : ... .. 0 ... V00 ... : --- .. . ... : ... .. . ... : ... .. . ... ... : ... .. . ... ... : ... .. . ... ... : ... .. . ... ...
ROW 43 : ... .. 8 ... ... ... : ... .. . ... ... ... : ... .. . ... : ... .. 0 ... : ... .. . ... ... : ... .. . ... ... : ... .. . ... ... : ... .. . ... ...
ROW 44 : C-3 00 D ... ... ... : C-2 00 F P83 V01 ... : C-2 00 . ... : 7-# 00 F ... : ... .. . ... ... : A#3 01 A ... ... : D-4 01 A ... ... : G#4 01 F ... ...
ROW 45 : ... .. B ... ... ... : ... .. E ... ... ... : ... .. . ... : ... .. C ... : ... .. . ... ... : ... .. 9 ... ... : ... .. 9 ... ... : ... .. D ... ...
ROW 46 : ... .. . ... ... ... : ... .. D ... ... ... : ... .. . ... : ... .. A ... : ... .. . ... ... : ... .. 8 ... ... : ... .. 8 ... ... : ... .. 8 ... ...
ROW 47 : ... .. A ... ... ... : ... .. A ... ... ... : ... .. . ... : ... .. 8 ... : ... .. . ... ... : ... .. 7 ... ... : ... .. 7 ... ... : ... .. . ... ...
ROW 48 : ... .. 8 ... ... ... : ... .. . ... ... ... : ... .. . ... : ... .. 7 ... : ... .. . ... ... : ... .. . ... ... : ... .. . ... ... : ... .. . ... ...
ROW 49 : A#2 00 D ... ... ... : ... .. . ... ... ... : ... .. . ... : ... .. 0 ... : ... .. . ... ... : ... .. 6 ... ... : ... .. 6 ... ... : ... .. . ... ...
ROW 4A : ... .. B ... ... ... : ... .. . ... ... ... : ... .. . ... : B-# 00 6 ... : ... .. . ... ... : ... .. . ... ... : ... .. . ... ... : ... .. . ... ...
ROW 4B : ... .. . ... ... ... : ... .. . ... ... ... : ... .. . ... : ... .. 2 ... : ... .. . ... ... : ... .. 5 ... ... : ... .. 5 ... ... : ... .. . ... ...
ROW 4C : ... .. A ... ... ... : ... .. 0 ... V00 ... : --- .. . ... : ... .. . ... : ... .. . ... ... : ... .. . ... ... : ... .. . ... ... : ... .. . ... ...
ROW 4D : ... .. 8 ... ... ... : ... .. . ... ... ... : ... .. . ... : ... .. 0 ... : ... .. . ... ... : ... .. . ... ... : ... .. . ... ... : ... .. . ... ...
ROW 4E : E-2 00 D ... ... ... : C-3 00 F P83 V01 ... : C-3 00 . ... : ... .. . ... : ... .. . ... ... : C-4 01 A ... ... : E-4 01 A ... ... : A#4 01 F ... ...
ROW 4F : ... .. B ... ... ... : ... .. E ... ... ... : ... .. . ... : ... .. A ... : ... .. . ... ... : ... .. 9 ... ... : ... .. 9 ... ... : ... .. D ... ...
ROW 50 : ... .. . ... ... ... : ... .. D ... ... ... : ... .. . ... : ... .. 4 ... : ... .. . ... ... : ... .. 8 ... ... : ... .. 8 ... ... : ... .. 8 ... ...
ROW 51 : ... .. A ... ... ... : ... .. A ... ... ... : ... .. . ... : ... .. . ... : ... .. . ... ... : ... .. 7 ... ... : ... .. 7 ... ... : ... .. . ... ...
ROW 52 : ... .. 8 ... ... ... : ... .. . ... ... ... : ... .. . ... : ... .. 0 ... : ... .. . ... ... : ... .. . ... ... : ... .. . ... ... : ... .. . ... ...
ROW 53 : F#2 00 D ... ... ... : ... .. . ... ... ... : ... .. . ... : ... .. . ... : ... .. . ... ... : ... .. 6 ... ... : ... .. 6 ... ... : ... .. . ... ...
ROW 54 : ... .. B ... ... ... : ... .. . ... ... ... : ... .. . ... : ... .. 8 ... : ... .. . ... ... : ... .. . ... ... : ... .. . ... ... : ... .. . ... ...
ROW 55 : ... .. . ... ... ... : ... .. . ... ... ... : ... .. . ... : ... .. 3 ... : ... .. . ... ... : ... .. 5 ... ... : ... .. 5 ... ... : ... .. . ... ...
ROW 56 : ... .. A ... ... ... : ... .. . ... ... ... : ... .. . ... : ... .. . ... : ... .. . ... ... : ... .. . ... ... : ... .. . ... ... : ... .. . ... ...
ROW 57 : ... .. 8 ... ... ... : ... .. . ... ... ... : ... .. . ... : ... .. 0 ... : ... .. . ... ... : ... .. . ... ... : ... .. . ... ... : ... .. . ... ...
ROW 58 : C-4 00 D ... ... ... : A#2 00 F ... ... ... : A-4 00 . ... : 2-# 00 F ... : ... .. . ... ... : D-4 01 A ... ... : F#4 01 A ... ... : C-5 01 F ... ...
ROW 59 : ... .. B ... ... ... : ... .. E ... ... ... : B-3 00 . ... : ... .. C ... : ... .. . ... ... : ... .. 9 ... ... : ... .. 9 ... ... : ... .. D ... ...
ROW 5A : ... .. . ... ... ... : ... .. D ... ... ... : E-3 00 . ... : ... .. 6 ... : ... .. . ... ... : ... .. 8 ... ... : ... .. 8 ... ... : ... .. 8 ... ...
ROW 5B : ... .. A ... ... ... : ... .. A ... ... ... : D#3 00 . ... : ... .. 3 ... : ... .. . ... ... : ... .. 7 ... ... : ... .. 7 ... ... : ... .. . ... ...
ROW 5C : ... .. 8 ... ... ... : ... .. . ... ... ... : A#2 00 . ... : ... .. 2 ... : ... .. . ... ... : ... .. . ... ... : ... .. . ... ... : ... .. . ... ...
ROW 5D : A#3 00 D ... ... ... : ... .. . ... ... ... : ... .. . ... : ... .. 0 ... : ... .. . ... ... : C-4 01 A ... ... : ... .. 6 ... ... : ... .. . ... ...
ROW 5E : ... .. B ... ... ... : ... .. . ... ... ... : ... .. . ... : B-# 00 8 ... : ... .. . ... ... : ... .. 9 ... ... : ... .. . ... ... : ... .. . ... ...
ROW 5F : ... .. . ... ... ... : ... .. . ... ... ... : ... .. . ... : ... .. 3 ... : ... .. . ... ... : ... .. 8 ... ... : ... .. 5 ... ... : ... .. . ... ...
ROW 60 : ... .. A ... ... ... : ... .. . ... ... ... : ... .. . ... : ... .. . ... : ... .. . ... ... : ... .. 7 ... ... : ... .. . ... ... : ... .. . ... ...
ROW 61 : ... .. 8 ... ... ... : ... .. . ... ... ... : ... .. . ... : ... .. 0 ... : ... .. . ... ... : ... .. . ... ... : ... .. . ... ... : ... .. . ... ...
ROW 62 : D-3 00 D ... ... ... : F#2 00 F ... ... ... : F-4 00 . ... : C-# 00 8 ... : ... .. . ... ... : A#3 01 A ... ... : ... .. . ... ... : C#5 01 8 P7E ...
ROW 63 : ... .. B ... ... ... : ... .. E ... ... ... : G-3 00 . ... : ... .. 7 ... : ... .. . ... ... : ... .. 9 ... ... : ... .. . ... ... : ... .. . P80 ...
ROW 64 : ... .. . ... ... ... : ... .. D ... ... ... : C-3 00 . ... : ... .. . ... : ... .. . ... ... : ... .. 8 ... ... : ... .. . ... ... : ... .. . P7F ...
ROW 65 : ... .. A ... ... ... : ... .. A ... ... ... : B-2 00 . ... : ... .. 6 ... : ... .. . ... ... : ... .. 7 ... ... : ... .. . ... ... : C-5 01 8 P83 ...
ROW 66 : ... .. 8 ... ... ... : ... .. . ... ... ... : F#2 00 . ... : ... .. 5 ... : ... .. . ... ... : ... .. . ... ... : ... .. . ... ... : ... .. . P7F ...
ROW 67 : E-3 00 D ... ... ... : ... .. . ... ... ... : ... .. . ... : ... .. 4 ... : ... .. . ... ... : C-4 01 A ... ... : G-4 01 5 P81 ... : B-4 01 8 P83 ...
ROW 68 : ... .. B ... ... ... : ... .. . ... ... ... : ... .. . ... : ... .. . ... : ... .. . ... ... : ... .. 9 ... ... : G#4 01 5 P7F ... : ... .. . P82 ...
ROW 69 : ... .. . ... ... ... : ... .. . ... ... ... : ... .. . ... : ... .. . ... : ... .. . ... ... : ... .. 8 ... ... : ... .. . P7D ... : C-5 01 8 P7D ...
ROW 6A : ... .. A ... ... ... : ... .. 0 ... V00 ... : --- .. . ... : ... .. 3 ... : ... .. . ... ... : ... .. 7 ... ... : F#4 01 5 P83 ... : ... .. . P81 ...
ROW 6B : ... .. 8 ... ... ... : ... .. . ... ... ... : ... .. . ... : ... .. . ... : ... .. . ... ... : ... .. . ... ... : F-4 01 5 P84 ... : C#5 01 8 P7D ...
ROW 6C : C-3 00 D ... ... ... : E-2 00 F P83 V01 ... : E-2 00 . ... : 7-# 00 F ... : ... .. . ... ... : D-4 01 A ... ... : E-4 01 5 ... ... : G-4 01 F P81 ...
ROW 6D : ... .. B ... ... ... : ... .. E ... ... ... : ... .. . ... : ... .. C ... : ... .. . ... ... : ... .. 9 ... ... : ... .. . P82 ... : ... .. D ... ...
ROW 6E : ... .. . ... ... ... : ... .. D ... ... ... : ... .. . ... : ... .. A ... : ... .. . ... ... : ... .. 8 ... ... : F-4 01 5 P7E ... : ... .. 8 ... ...
ROW 6F : ... .. A ... ... ... : ... .. A ... ... ... : ... .. . ... : ... .. 8 ... : ... .. . ... ... : ... .. 7 ... ... : F#4 01 5 P7F ... : ... .. . ... ...
ROW 70 : ... .. 8 ... ... ... : ... .. . ... ... ... : ... .. . ... : ... .. 7 ... : ... .. . ... ... : ... .. . ... ... : G-4 01 5 P80 ... : ... .. . ... ...
ROW 71 : A#2 00 D ... ... ... : ... .. . ... ... ... : ... .. . ... : ... .. 0 ... : ... .. . ... ... : E-4 01 A ... ... : G#4 01 5 P7F ... : G#4 01 F ... ...
ROW 72 : ... .. B ... ... ... : ... .. . ... ... ... : ... .. . ... : B-# 00 6 ... : ... .. . ... ... : ... .. 9 ... ... : ... .. . P7D ... : ... .. D ... ...
ROW 73 : ... .. . ... ... ... : ... .. . ... ... ... : ... .. . ... : ... .. 2 ... : ... .. . ... ... : ... .. 8 ... ... : G-4 01 5 ... ... : ... .. 8 ... ...
ROW 74 : ... .. A ... ... ... : ... .. . ... ... ... : ... .. . ... : ... .. . ... : ... .. . ... ... : ... .. 7 ... ... : F#4 01 5 P7C ... : ... .. . ... ...
ROW 75 : ... .. 8 ... ... ... : ... .. . ... ... ... : ... .. . ... : ... .. 0 ... : ... .. . ... ... : ... .. . ... ... : E-4 01 5 P85 ... : ... .. . ... ...
ROW 76 : E-2 00 D ... ... ... : C-2 00 F ... ... ... : C-2 00 . ... : ... .. . ... : ... .. . ... ... : F#4 01 A ... ... : --- .. . ... ... : A#4 01 F ... ...
ROW 77 : ... .. B ... ... ... : ... .. E ... ... ... : ... .. . ... : ... .. A ... : ... .. . ... ... : ... .. 9 ... ... : ... .. . ... ... : ... .. D ... ...
ROW 78 : ... .. . ... ... ... : ... .. D ... ... ... : ... .. . ... : ... .. 4 ... : ... .. . ... ... : ... .. 8 ... ... : ... .. . ... ... : ... .. 8 ... ...
ROW 79 : ... .. A ... ... ... : ... .. 0 ... V00 ... : --- .. . ... : ... .. . ... : ... .. . ... ... : ... .. 7 ... ... : ... .. . ... ... : ... .. . ... ...
ROW 7A : ... .. 8 ... ... ... : ... .. . ... ... ... : ... .. . ... : ... .. 0 ... : ... .. . ... ... : ... .. . ... ... : ... .. . ... ... : ... .. . ... ...
ROW 7B : F#2 00 D ... ... ... : C-2 00 F P83 V01 ... : C-2 00 . ... : ... .. . ... : ... .. . ... ... : G#4 01 A ... ... : ... .. . ... ... : C-5 01 F ... ...
ROW 7C : ... .. B ... ... ... : ... .. E ... ... ... : ... .. . ... : ... .. 8 ... : ... .. . ... ... : ... .. 9 ... ... : ... .. . ... ... : ... .. D ... ...
ROW 7D : ... .. . ... ... ... : ... .. D ... ... ... : ... .. . ... : ... .. 3 ... : ... .. . ... ... : ... .. 8 ... ... : ... .. . ... ... : ... .. 8 ... ...
ROW 7E : ... .. A ... ... ... : ... .. 0 ... V00 ... : --- .. . ... : ... .. . ... : ... .. . ... ... : ... .. 7 ... ... : ... .. . ... ... : ... .. . ... ...
ROW 7F : ... .. 8 ... ... ... : ... .. . ... ... ... : ... .. . ... : ... .. 0 ... : ... .. . ... ... : ... .. . ... ... : ... .. . ... ... : ... .. . ... ...
ROW 80 : G-2 00 F P7F ... ... : C#2 00 F P83 V01 ... : C-4 00 . ... : ... .. . ... : ... .. . ... ... : B-3 01 A P80 ... : F-4 01 A P80 ... : C#5 01 F P80 ...
ROW 81 : ... .. E ... ... ... : ... .. E ... ... ... : D-3 00 . ... : 2-# 00 F ... : ... .. . ... ... : ... .. 9 ... ... : ... .. 9 ... ... : ... .. D ... ...
ROW 82 : ... .. D ... ... ... : ... .. D ... ... ... : G-2 00 . ... : ... .. 6 ... : ... .. . ... ... : ... .. 8 ... ... : ... .. 8 ... ... : ... .. 8 ... ...
ROW 83 : ... .. A ... ... ... : ... .. A ... ... ... : F#2 00 . ... : ... .. . ... : ... .. . ... ... : ... .. 7 ... ... : ... .. 7 ... ... : ... .. . ... ...
ROW 84 : ... .. . ... ... ... : ... .. . ... ... ... : C#2 00 . ... : ... .. 0 ... : ... .. . ... ... : ... .. . ... ... : ... .. . ... ... : ... .. . ... ...
ROW 85 : ... .. . ... ... ... : ... .. . ... ... ... : ... .. . ... : ... .. . ... : ... .. . ... ... : ... .. 6 ... ... : ... .. 6 ... ... : ... .. . ... ...
ROW 86 : ... .. . ... ... ... : ... .. . ... ... ... : ... .. . ... : B-# 00 6 ... : ... .. . ... ... : ... .. . ... ... : ... .. . ... ... : ... .. . ... ...
ROW 87 : ... .. . ... ... ... : ... .. . ... ... ... : ... .. . ... : ... .. 2 ... : ... .. . ... ... : ... .. 5 ... ... : ... .. 5 ... ... : ... .. . ... ...
ROW 88 : ... .. 0 ... ... ... : ... .. . ... ... ... : ... .. . ... : ... .. . ... : ... .. . ... ... : ... .. . ... ... : ... .. . ... ... : ... .. . ... ...
ROW 89 : ... .. . ... ... ... : ... .. . ... ... ... : ... .. . ... : ... .. 0 ... : ... .. . ... ... : ... .. . ... ... : ... .. . ... ... : ... .. . ... ...
ROW 8A : B-3 00 F P7F ... ... : G-1 00 F ... ... ... : G-1 00 . ... : ... .. . ... : ... .. . ... ... : D-3 01 A ... ... : ... .. A ... ... : G-2 01 F ... ...
ROW 8B : ... .. E ... ... ... : ... .. E ... ... ... : ... .. . ... : ... .. A ... : ... .. . ... ... : ... .. 9 ... ... : ... .. 9 ... ... : ... .. D ... ...
ROW 8C : ... .. D ... ... ... : ... .. D ... ... ... : ... .. . ... : ... .. 4 ... : ... .. . ... ... : ... .. 8 ... ... : ... .. 8 ... ... : ... .. 8 ... ...
ROW 8D : ... .. 0 ... ... ... : ... .. A ... ... ... : ... .. . ... : ... .. . ... : ... .. . ... ... : --- .. . P82 ... : ... .. 7 ... ... : ... .. . ... ...
ROW 8E : ... .. . ... ... ... : ... .. . ... ... ... : ... .. . ... : ... .. 0 ... : ... .. . ... ... : ... .. . ... ... : ... .. . ... ... : ... .. . ... ...
ROW 8F : B-3 00 F P7F ... ... : ... .. . ... ... ... : ... .. . ... : ... .. . ... : ... .. . ... ... : D-3 01 A P80 ... : ... .. 6 ... ... : ... .. . ... ...
ROW 90 : ... .. E ... ... ... : ... .. . ... ... ... : ... .. . ... : ... .. 8 ... : ... .. . ... ... : ... .. 9 ... ... : ... .. . ... ... : ... .. . ... ...
ROW 91 : ... .. D ... ... ... : ... .. . ... ... ... : ... .. . ... : ... .. 3 ... : ... .. . ... ... : ... .. 8 ... ... : ... .. 5 ... ... : ... .. . ... ...
ROW 92 : ... .. 0 ... ... ... : ... .. 0 ... V00 ... : --- .. . ... : ... .. . ... : ... .. . ... ... : --- .. . P82 ... : --- .. . ... ... : --- .. . P7D ...
ROW 93 : ... .. . ... ... ... : ... .. . ... ... ... : ... .. . ... : ... .. 0 ... : ... .. . ... ... : ... .. . ... ... : ... .. . ... ... : ... .. . ... ...
ROW 94 : F-3 00 F P7F ... ... : C#2 00 F P83 V01 ... : C-4 00 . ... : 7-# 00 F ... : ... .. . ... ... : C#3 01 A P80 ... : F-4 01 A ... ... : G-1 01 F P80 ...
ROW 95 : ... .. E ... ... ... : ... .. E ... ... ... : D-3 00 . ... : ... .. C ... : ... .. . ... ... : ... .. 9 ... ... : ... .. 9 ... ... : ... .. D ... ...
ROW 96 : ... .. D ... ... ... : ... .. D ... ... ... : G-2 00 . ... : ... .. A ... : ... .. . ... ... : ... .. 8 ... ... : ... .. 8 ... ... : ... .. 8 ... ...
ROW 97 : ... .. A ... ... ... : ... .. 0 ... V00 ... : --- .. . ... : ... .. 8 ... : ... .. . ... ... : --- .. . P83 ... : ... .. 7 ... ... : ... .. . ... ...
ROW 98 : ... .. . ... ... ... : ... .. . ... ... ... : ... .. . ... : ... .. 7 ... : ... .. . ... ... : ... .. . ... ... : ... .. . ... ... : ... .. . ... ...
ROW 99 : ... .. . ... ... ... : C#2 00 F P83 V01 ... : C#2 00 . ... : ... .. 0 ... : ... .. . ... ... : C#3 01 A P80 ... : ... .. 6 ... ... : ... .. . ... ...
ROW 9A : ... .. . ... ... ... : ... .. E ... ... ... : ... .. . ... : B-# 00 6 ... : ... .. . ... ... : ... .. 9 ... ... : ... .. . ... ... : ... .. . ... ...
ROW 9B : ... .. . ... ... ... : ... .. D ... ... ... : ... .. . ... : ... .. 2 ... : ... .. . ... ... : ... .. 8 ... ... : ... .. 5 ... ... : ... .. . ... ...
ROW 9C : ... .. 0 ... ... ... : ... .. 0 ... V00 ... : --- .. . ... : ... .. . ... : ... .. . ... ... : --- .. . P83 ... : --- .. . ... ... : --- .. . P81 ...
ROW 9D : ... .. . ... ... ... : ... .. . ... ... ... : ... .. . ... : ... .. 0 ... : ... .. . ... ... : ... .. . ... ... : ... .. . ... ... : ... .. . ... ...
ROW 9E : G-2 00 F P7F ... ... : D-2 00 F P83 V01 ... : C#4 00 . ... : ... .. . ... : ... .. . ... ... : F-3 01 A P80 ... : C#4 01 A ... ... : B-4 01 F P80 ...
ROW 9F : ... .. E ... ... ... : ... .. E ... ... ... : D#3 00 . ... : ... .. A ... : ... .. . ... ... : ... .. 9 ... ... : ... .. 9 ... ... : ... .. D ... ...
ROW A0 : ... .. D ... ... ... : ... .. D ... ... ... : G#2 00 . ... : ... .. 4 ... : ... .. . ... ... : ... .. 8 ... ... : ... .. 8 ... ... : ... .. 8 ... ...
ROW A1 : ... .. A ... ... ... : ... .. A ... ... ... : G-2 00 . ... : ... .. . ... : ... .. . ... ... : ... .. 7 ... ... : ... .. 7 ... ... : ... .. . ... ...
ROW A2 : ... .. . ... ... ... : ... .. . ... ... ... : D-2 00 . ... : ... .. 0 ... : ... .. . ... ... : ... .. . ... ... : ... .. . ... ... : ... .. . ... ...
ROW A3 : ... .. . ... ... ... : ... .. . ... ... ... : ... .. . ... : ... .. . ... : ... .. . ... ... : ... .. 6 ... ... : ... .. 6 ... ... : ... .. . ... ...
ROW A4 : ... .. . ... ... ... : ... .. . ... ... ... : ... .. . ... : ... .. 8 ... : ... .. . ... ... : ... .. . ... ... : ... .. . ... ... : ... .. . ... ...
ROW A5 : ... .. . ... ... ... : ... .. . ... ... ... : ... .. . ... : ... .. 3 ... : ... .. . ... ... : ... .. 5 ... ... : ... .. 5 ... ... : ... .. . ... ...
ROW A6 : ... .. 0 ... ... ... : ... .. . ... ... ... : ... .. . ... : ... .. . ... : ... .. . ... ... : ... .. . ... ... : ... .. . ... ... : ... .. . ... ...
ROW A7 : ... .. . ... ... ... : ... .. . ... ... ... : ... .. . ... : ... .. 0 ... : ... .. . ... ... : ... .. . ... ... : ... .. . ... ... : ... .. . ... ...
ROW A8 : F-3 00 F P7F ... ... : G-1 00 F ... ... ... : G-1 00 . ... : 2-# 00 F ... : ... .. . ... ... : C#3 01 A ... ... : F-4 01 A ... ... : F-3 01 F ... ...
ROW A9 : ... .. E ... ... ... : ... .. E ... ... ... : ... .. . ... : ... .. C ... : ... .. . ... ... : ... .. 9 ... ... : ... .. 9 ... ... : ... .. D ... ...
ROW AA : ... .. D ... ... ... : ... .. D ... ... ... : ... .. . ... : ... .. 6 ... : ... .. . ... ... : ... .. 8 ... ... : ... .. 8 ... ... : ... .. 8 ... ...
ROW AB : ... .. 0 ... ... ... : ... .. A ... ... ... : ... .. . ... : ... .. 3 ... : ... .. . ... ... : --- .. . P83 ... : ... .. 7 ... ... : ... .. . ... ...
ROW AC : ... .. . ... ... ... : ... .. . ... ... ... : ... .. . ... : ... .. 2 ... : ... .. . ... ... : ... .. . ... ... : ... .. . ... ... : ... .. . ... ...
ROW AD : F-3 00 F P7F ... ... : ... .. . ... ... ... : ... .. . ... : ... .. 0 ... : ... .. . ... ... : C#3 01 A P80 ... : ... .. 6 ... ... : ... .. . ... ...
ROW AE : ... .. E ... ... ... : ... .. . ... ... ... : ... .. . ... : B-# 00 8 ... : ... .. . ... ... : ... .. 9 ... ... : ... .. . ... ... : ... .. . ... ...
ROW AF : ... .. D ... ... ... : ... .. . ... ... ... : ... .. . ... : ... .. 3 ... : ... .. . ... ... : ... .. 8 ... ... : ... .. 5 ... ... : ... .. . ... ...
ROW B0 : ... .. 0 ... ... ... : ... .. 0 ... V00 ... : --- .. . ... : ... .. . ... : ... .. . ... ... : --- .. . P83 ... : --- .. . ... ... : --- .. . P7F ...
ROW B1 : ... .. . ... ... ... : ... .. . ... ... ... : ... .. . ... : ... .. 0 ... : ... .. . ... ... : ... .. . ... ... : ... .. . ... ... : ... .. . ... ...
ROW B2 : B-2 00 F P7F ... ... : F-1 00 F P83 V01 ... : E-3 00 . ... : 2-# 00 F ... : ... .. . ... ... : G-2 01 A P80 ... : F-4 01 A ... ... : G-1 01 F P80 ...
ROW B3 : ... .. E ... ... ... : ... .. E ... ... ... : F#2 00 . ... : ... .. C ... : ... .. . ... ... : ... .. 9 ... ... : ... .. 9 ... ... : ... .. D ... ...
ROW B4 : ... .. D ... ... ... : ... .. D ... ... ... : B-1 00 . ... : ... .. 6 ... : ... .. . ... ... : ... .. 8 ... ... : ... .. 8 ... ... : ... .. 8 ... ...
ROW B5 : ... .. 0 ... ... ... : ... .. A ... ... ... : A#1 00 . ... : ... .. 3 ... : ... .. . ... ... : --- .. . P81 ... : ... .. 7 ... ... : ... .. . ... ...
ROW B6 : ... .. . ... ... ... : ... .. . ... ... ... : F-1 00 . ... : ... .. 2 ... : ... .. . ... ... : ... .. . ... ... : ... .. . ... ... : ... .. . ... ...
ROW B7 : B-2 00 F P7F ... ... : ... .. . ... ... ... : ... .. . ... : ... .. 0 ... : ... .. . ... ... : G-2 01 A P80 ... : ... .. 6 ... ... : ... .. . ... ...
ROW B8 : ... .. E ... ... ... : ... .. . ... ... ... : ... .. . ... : B-# 00 8 ... : ... .. . ... ... : ... .. 9 ... ... : ... .. . ... ... : ... .. . ... ...
ROW B9 : ... .. D ... ... ... : ... .. . ... ... ... : ... .. . ... : ... .. 3 ... : ... .. . ... ... : ... .. 8 ... ... : ... .. 5 ... ... : ... .. . ... ...
ROW BA : ... .. 0 ... ... ... : ... .. . ... ... ... : ... .. . ... : ... .. . ... : ... .. . ... ... : --- .. . P81 ... : --- .. . ... ... : --- .. . P81 ...
ROW BB : ... .. . ... ... ... : ... .. . ... ... ... : ... .. . ... : ... .. 0 ... : ... .. . ... ... : ... .. . ... ... : ... .. . ... ... : ... .. . ... ...
ROW BC : G-2 00 F P7F ... ... : G-1 00 F ... ... ... : F#3 00 . ... : 7-# 00 F ... : ... .. . ... ... : F-4 01 A P80 ... : B-4 01 A ... ... : C#5 01 F P80 ...
ROW BD : ... .. E ... ... ... : ... .. E ... ... ... : G#2 00 . ... : ... .. C ... : ... .. . ... ... : ... .. 9 ... ... : ... .. 9 ... ... : ... .. D ... ...
ROW BE : ... .. D ... ... ... : ... .. D ... ... ... : C#2 00 . ... : ... .. A ... : ... .. . ... ... : ... .. 8 ... ... : ... .. 8 ... ... : ... .. 8 ... ...
ROW BF : ... .. A ... ... ... : ... .. A ... ... ... : C-2 00 . ... : ... .. 8 ... : ... .. . ... ... : ... .. 7 ... ... : ... .. 7 ... ... : ... .. . ... ...
ROW C0 : ... .. . ... ... ... : ... .. . ... ... ... : G-1 00 . ... : ... .. 7 ... : ... .. . ... ... : ... .. . ... ... : ... .. . ... ... : ... .. . ... ...
ROW C1 : ... .. . ... ... ... : ... .. . ... ... ... : ... .. . ... : ... .. 0 ... : ... .. . ... ... : ... .. 6 ... ... : ... .. 6 ... ... : ... .. . ... ...
ROW C2 : ... .. . ... ... ... : ... .. . ... ... ... : ... .. . ... : B-# 00 6 ... : ... .. . ... ... : ... .. . ... ... : ... .. . ... ... : ... .. . ... ...
ROW C3 : ... .. . ... ... ... : ... .. . ... ... ... : ... .. . ... : ... .. 2 ... : ... .. . ... ... : ... .. 5 ... ... : ... .. 5 ... ... : ... .. . ... ...
ROW C4 : ... .. . ... ... ... : ... .. . ... ... ... : ... .. . ... : ... .. . ... : ... .. . ... ... : ... .. . ... ... : ... .. . ... ... : ... .. . ... ...
ROW C5 : ... .. . ... ... ... : ... .. . ... ... ... : ... .. . ... : ... .. 0 ... : ... .. . ... ... : ... .. . ... ... : ... .. . ... ... : ... .. . ... ...
ROW C6 : B-3 00 F ... ... ... : A#0 00 F ... ... ... : A#0 00 . ... : ... .. . ... : ... .. . ... ... : D-3 01 A ... ... : F-4 01 A ... ... : G-3 01 F ... ...
ROW C7 : ... .. E ... ... ... : ... .. E ... ... ... : ... .. . ... : ... .. A ... : ... .. . ... ... : ... .. 9 ... ... : ... .. 9 ... ... : ... .. D ... ...
ROW C8 : ... .. D ... ... ... : ... .. D ... ... ... : ... .. . ... : ... .. 4 ... : ... .. . ... ... : ... .. 8 ... ... : ... .. 8 ... ... : ... .. 8 ... ...
ROW C9 : ... .. 0 ... ... ... : ... .. A ... ... ... : ... .. . ... : ... .. . ... : ... .. . ... ... : --- .. . P82 ... : ... .. 7 ... ... : ... .. . ... ...
ROW CA : ... .. . ... ... ... : ... .. . ... ... ... : ... .. . ... : ... .. 0 ... : ... .. . ... ... : ... .. . ... ... : ... .. . ... ... : ... .. . ... ...
ROW CB : B-3 00 F P7F ... ... : ... .. . ... ... ... : ... .. . ... : ... .. . ... : ... .. . ... ... : D-3 01 A P80 ... : ... .. 6 ... ... : ... .. . ... ...
ROW CC : ... .. E ... ... ... : ... .. . ... ... ... : ... .. . ... : ... .. 8 ... : ... .. . ... ... : ... .. 9 ... ... : ... .. . ... ... : ... .. . ... ...
ROW CD : ... .. D ... ... ... : ... .. . ... ... ... : ... .. . ... : ... .. 3 ... : ... .. . ... ... : ... .. 8 ... ... : ... .. 5 ... ... : ... .. . ... ...
ROW CE : ... .. 0 ... ... ... : ... .. 0 ... V00 ... : --- .. . ... : ... .. . ... : ... .. . ... ... : --- .. . P82 ... : --- .. . ... ... : --- .. . P7F ...
ROW CF : ... .. . ... ... ... : ... .. . ... ... ... : ... .. . ... : ... .. 0 ... : ... .. . ... ... : ... .. . ... ... : ... .. . ... ... : ... .. . ... ...
ROW D0 : F-3 00 F P7F ... ... : F-3 00 F P83 V01 ... : E-5 00 . ... : 9-# 00 D ... : ... .. . ... ... : C#3 01 A P80 ... : F-4 01 A ... ... : G-1 01 F P80 ...
ROW D1 : ... .. E ... ... ... : ... .. E ... ... ... : F#4 00 . ... : ... .. . ... : ... .. . ... ... : ... .. 9 ... ... : ... .. 9 ... ... : ... .. D ... ...
ROW D2 : ... .. D ... ... ... : ... .. D ... ... ... : B-3 00 . ... : ... .. . ... : ... .. . ... ... : ... .. 8 ... ... : ... .. 8 ... ... : ... .. 8 ... ...
ROW D3 : ... .. 0 ... ... ... : ... .. A ... ... ... : A#3 00 . ... : ... .. B ... : ... .. . ... ... : --- .. . P83 ... : ... .. 7 ... ... : ... .. . ... ...
ROW D4 : ... .. . ... ... ... : ... .. . ... ... ... : F-3 00 . ... : ... .. . ... : ... .. . ... ... : ... .. . ... ... : ... .. . ... ... : ... .. . ... ...
ROW D5 : F-3 00 F P7F ... ... : E-3 00 A P76 ... ... : ... .. . ... : ... .. A ... : ... .. . ... ... : C#3 01 A P80 ... : ... .. 6 ... ... : ... .. . ... ...
ROW D6 : ... .. E ... ... ... : D-3 00 A P80 ... ... : D#3 00 . P88 : ... .. . ... : ... .. . ... ... : ... .. 9 ... ... : ... .. . ... ... : ... .. . ... ...
ROW D7 : ... .. D ... ... ... : C#3 00 A P77 ... ... : D-3 00 . P7D : ... .. . ... : ... .. . ... ... : ... .. 8 ... ... : ... .. 5 ... ... : ... .. . ... ...
ROW D8 : ... .. 0 ... ... ... : B-2 00 A P88 ... ... : C-3 00 . P8C : ... .. 9 ... : ... .. . ... ... : --- .. . P83 ... : --- .. . ... ... : --- .. . P81 ...
ROW D9 : ... .. . ... ... ... : A#2 00 A P83 ... ... : B-2 00 . P85 : ... .. . ... : ... .. . ... ... : ... .. . ... ... : ... .. . ... ... : ... .. . ... ...
ROW DA : G-2 00 F P7F ... ... : G-2 00 F ... ... ... : F#4 00 . P80 : ... .. 7 ... : ... .. . ... ... : F-3 01 A P80 ... : B-3 01 A ... ... : G-4 01 F P80 ...
ROW DB : ... .. E ... ... ... : ... .. E ... ... ... : G#3 00 . ... : ... .. . ... : ... .. . ... ... : ... .. 9 ... ... : ... .. 9 ... ... : ... .. D ... ...
ROW DC : ... .. D ... ... ... : ... .. D ... ... ... : C#3 00 . ... : ... .. . ... : ... .. . ... ... : ... .. 8 ... ... : ... .. 8 ... ... : ... .. 8 ... ...
ROW DD : ... .. A ... ... ... : ... .. 0 ... V00 ... : --- .. . ... : ... .. 6 ... : ... .. . ... ... : ... .. 7 ... ... : ... .. 7 ... ... : ... .. . ... ...
ROW DE : ... .. . ... ... ... : ... .. . ... ... ... : ... .. . ... : ... .. . ... : ... .. . ... ... : ... .. . ... ... : ... .. . ... ... : ... .. . ... ...
ROW DF : ... .. . ... ... ... : G-2 00 F P83 V01 ... : G-2 00 . ... : ... .. 5 ... : ... .. . ... ... : ... .. 6 ... ... : ... .. 6 ... ... : ... .. . ... ...
ROW E0 : ... .. . ... ... ... : ... .. E ... ... ... : ... .. . ... : ... .. . ... : ... .. . ... ... : ... .. . ... ... : ... .. . ... ... : ... .. . ... ...
ROW E1 : ... .. . ... ... ... : ... .. D ... ... ... : ... .. . ... : ... .. . ... : ... .. . ... ... : ... .. 5 ... ... : ... .. 5 ... ... : ... .. . ... ...
ROW E2 : ... .. . ... ... ... : ... .. 0 ... V00 ... : --- .. . ... : ... .. 4 ... : ... .. . ... ... : ... .. . ... ... : ... .. . ... ... : ... .. . ... ...
ROW E3 : ... .. . ... ... ... : ... .. . ... ... ... : ... .. . ... : ... .. . ... : ... .. . ... ... : ... .. . ... ... : ... .. . ... ... : ... .. . ... ...
ROW E4 : F-3 00 F ... ... ... : B-2 00 F P83 V01 ... : B-2 00 . ... : 7-# 00 F ... : ... .. . ... ... : F-2 01 A ... ... : F-4 01 A ... ... : F-3 01 F ... ...
ROW E5 : ... .. E ... ... ... : ... .. E ... ... ... : ... .. . ... : ... .. C ... : ... .. . ... ... : ... .. 9 ... ... : ... .. 9 ... ... : ... .. D ... ...
ROW E6 : ... .. D ... ... ... : ... .. D ... ... ... : ... .. . ... : ... .. A ... : ... .. . ... ... : ... .. 8 ... ... : ... .. 8 ... ... : ... .. 8 ... ...
ROW E7 : ... .. 0 ... ... ... : ... .. A ... ... ... : ... .. . ... : ... .. 8 ... : ... .. . ... ... : --- .. . P7E ... : ... .. 7 ... ... : ... .. . ... ...
ROW E8 : ... .. . ... ... ... : ... .. . ... ... ... : ... .. . ... : ... .. 7 ... : ... .. . ... ... : ... .. . ... ... : ... .. . ... ... : ... .. . ... ...
ROW E9 : F-3 00 F P7F ... ... : ... .. . ... ... ... : ... .. . ... : ... .. 0 ... : ... .. . ... ... : F-2 01 A P80 ... : ... .. 6 ... ... : ... .. . ... ...
ROW EA : ... .. E ... ... ... : ... .. . ... ... ... : ... .. . ... : B-# 00 6 ... : ... .. . ... ... : ... .. 9 ... ... : ... .. . ... ... : ... .. . ... ...
ROW EB : ... .. D ... ... ... : ... .. . ... ... ... : ... .. . ... : ... .. 2 ... : ... .. . ... ... : ... .. 8 ... ... : ... .. 5 ... ... : ... .. . ... ...
ROW EC : ... .. 0 ... ... ... : ... .. . ... ... ... : ... .. . ... : ... .. . ... : ... .. . ... ... : --- .. . P7E ... : --- .. . ... ... : --- .. . P7F ...
ROW ED : ... .. . ... ... ... : ... .. . ... ... ... : ... .. . ... : ... .. 0 ... : ... .. . ... ... : ... .. . ... ... : ... .. . ... ... : ... .. . ... ...
ROW EE : B-2 00 F P7F ... ... : F-2 00 F ... ... ... : E-4 00 . ... : 9-# 00 D ... : ... .. . ... ... : G-2 01 A P80 ... : F-4 01 A ... ... : C#3 01 F P80 ...
ROW EF : ... .. E ... ... ... : ... .. E ... ... ... : F#3 00 . ... : ... .. . ... : ... .. . ... ... : ... .. 9 ... ... : ... .. 9 ... ... : ... .. D ... ...
ROW F0 : ... .. D ... ... ... : ... .. D ... ... ... : B-2 00 . ... : ... .. . ... : ... .. . ... ... : ... .. 8 ... ... : ... .. 8 ... ... : ... .. 8 ... ...
ROW F1 : ... .. 0 ... ... ... : ... .. A ... ... ... : A#2 00 . ... : ... .. B ... : ... .. . ... ... : --- .. . P81 ... : ... .. 7 ... ... : ... .. . ... ...
ROW F2 : ... .. . ... ... ... : ... .. . ... ... ... : F-2 00 . ... : ... .. . ... : ... .. . ... ... : ... .. . ... ... : ... .. . ... ... : ... .. . ... ...
ROW F3 : B-2 00 F P7F ... ... : ... .. . ... ... ... : ... .. . ... : ... .. A ... : ... .. . ... ... : G-2 01 A P80 ... : ... .. 6 ... ... : ... .. . ... ...
ROW F4 : ... .. E ... ... ... : ... .. . ... ... ... : ... .. . ... : ... .. . ... : ... .. . ... ... : ... .. 9 ... ... : ... .. . ... ... : ... .. . ... ...
ROW F5 : ... .. D ... ... ... : ... .. . ... ... ... : ... .. . ... : ... .. . ... : ... .. . ... ... : ... .. 8 ... ... : ... .. 5 ... ... : ... .. . ... ...
ROW F6 : ... .. 0 ... ... ... : ... .. 0 ... V00 ... : --- .. . ... : ... .. 9 ... : ... .. . ... ... : --- .. . P81 ... : --- .. . ... ... : --- .. . ... ...
ROW F7 : ... .. . ... ... ... : ... .. . ... ... ... : ... .. . ... : ... .. . ... : ... .. . ... ... : ... .. . ... ... : ... .. . ... ... : ... .. . ... ...
ROW F8 : F-2 00 F P7F ... ... : G-1 00 F P83 V01 ... : F#3 00 . ... : ... .. 7 ... : ... .. . ... ... : B-2 01 A P80 ... : D#4 01 A ... ... : B-2 01 F ... ...
ROW F9 : ... .. E ... ... ... : ... .. E ... ... ... : G#2 00 . ... : ... .. . ... : ... .. . ... ... : ... .. 9 ... ... : ... .. 9 ... ... : ... .. D ... ...
ROW FA : ... .. D ... ... ... : ... .. D ... ... ... : C#2 00 . ... : ... .. . ... : ... .. . ... ... : ... .. 8 ... ... : ... .. 8 ... ... : ... .. 8 ... ...
ROW FB : ... .. A ... ... ... : ... .. 0 ... V00 ... : --- .. . ... : ... .. 6 ... : ... .. . ... ... : ... .. 7 ... ... : ... .. 7 ... ... : ... .. . ... ...
ROW FC : ... .. . ... ... ... : ... .. . ... ... ... : ... .. . ... : ... .. . ... : ... .. . ... ... : ... .. . ... ... : ... .. . ... ... : ... .. . ... ...
ROW FD : ... .. F ... ... ... : G-1 00 F P83 V01 ... : G-1 00 . ... : ... .. 5 ... : ... .. . ... ... : ... .. A ... ... : ... .. 6 ... ... : C#3 01 F ... ...
ROW FE : ... .. E ... ... ... : ... .. E ... ... ... : ... .. . ... : ... .. . ... : ... .. . ... ... : ... .. 9 ... ... : ... .. . ... ... : ... .. D ... ...
ROW FF : ... .. D ... ... ... : ... .. D ... ... ... : ... .. . ... : ... .. . ... : ... .. . ... ... : ... .. 8 ... ... : ... .. 5 ... ... : ... .. 8 ... ...

PATTERN 1C
ROW 00 : ... .. 0 ... ... ... : ... .. 0 ... V00 ... : --- .. . ... : ... .. 4 ... : ... .. . ... ... : ... .. 7 ... ... : ... .. . ... ... : ... .. 4 ... ...
ROW 01 : ... .. . ... ... ... : ... .. . ... ... ... : ... .. . ... : ... .. . ... : ... .. . ... ... : ... .. . ... ... : ... .. . ... ... : ... .. . ... ...
ROW 02 : G-2 00 F P7F ... ... : G#1 00 F P83 V01 ... : G#1 00 . ... : ... .. 0 ... : ... .. . ... ... : C#3 01 A ... ... : B-3 01 A ... ... : F-3 01 F ... ...
ROW 03 : ... .. E ... ... ... : ... .. E ... ... ... : ... .. . ... : B-# 00 8 ... : ... .. . ... ... : ... .. 9 ... ... : ... .. 9 ... ... : ... .. D ... ...
ROW 04 : ... .. D ... ... ... : ... .. D ... ... ... : ... .. . ... : ... .. 3 ... : ... .. . ... ... : ... .. 8 ... ... : ... .. 8 ... ... : ... .. 8 ... ...
ROW 05 : ... .. 0 ... ... ... : ... .. A ... ... ... : ... .. . ... : ... .. . ... : ... .. . ... ... : ... .. 7 ... ... : ... .. 7 ... ... : ... .. 4 ... ...
ROW 06 : ... .. . ... ... ... : ... .. . ... ... ... : ... .. . ... : ... .. 0 ... : ... .. . ... ... : ... .. . ... ... : ... .. . ... ... : ... .. . ... ...
ROW 07 : G-2 00 F P7F ... ... : ... .. . ... ... ... : ... .. . ... : ... .. . ... : ... .. . ... ... : ... .. A ... ... : ... .. 6 ... ... : G-3 01 F ... ...
ROW 08 : ... .. E ... ... ... : ... .. . ... ... ... : ... .. . ... : ... .. 6 ... : ... .. . ... ... : ... .. 9 ... ... : ... .. . ... ... : ... .. D ... ...
ROW 09 : ... .. D ... ... ... : ... .. . ... ... ... : ... .. . ... : ... .. 2 ... : ... .. . ... ... : ... .. 8 ... ... : ... .. 5 ... ... : ... .. 8 ... ...
ROW 0A : ... .. 0 ... ... ... : ... .. . ... ... ... : ... .. . ... : ... .. . ... : ... .. . ... ... : ... .. 7 ... ... : ... .. . ... ... : ... .. 4 ... ...
ROW 0B : ... .. . ... ... ... : ... .. . ... ... ... : ... .. . ... : ... .. 0 ... : ... .. . ... ... : ... .. . ... ... : ... .. . ... ... : ... .. . ... ...
ROW 0C : B-2 00 F P7F ... ... : G-3 00 F ... ... ... : F#5 00 . ... : 7-# 00 F ... : ... .. . ... ... : D-3 01 A ... ... : F-4 01 A ... ... : A#3 01 F ... ...
ROW 0D : ... .. E ... ... ... : ... .. E ... ... ... : G#4 00 . ... : ... .. C ... : ... .. . ... ... : ... .. 9 ... ... : ... .. 9 ... ... : ... .. D ... ...
ROW 0E : ... .. D ... ... ... : ... .. D ... ... ... : C#4 00 . ... : ... .. A ... : ... .. . ... ... : ... .. 8 ... ... : ... .. 8 ... ... : ... .. 8 ... ...
ROW 0F : ... .. 0 ... ... ... : ... .. A ... ... ... : C-4 00 . ... : ... .. 0 ... : ... .. . ... ... : --- .. . P82 ... : ... .. 7 ... ... : ... .. 4 ... ...
ROW 10 : ... .. . ... ... ... : ... .. . ... ... ... : G-3 00 . ... : ... .. . ... : ... .. . ... ... : ... .. . ... ... : ... .. . ... ... : ... .. . ... ...
ROW 11 : B-2 00 F P7F ... ... : ... .. . ... ... ... : ... .. . ... : 6-# 00 F ... : ... .. . ... ... : D-3 01 A P80 ... : ... .. 6 ... ... : B-3 01 F ... ...
ROW 12 : ... .. E ... ... ... : ... .. . ... ... ... : ... .. . ... : ... .. C ... : ... .. . ... ... : ... .. 9 ... ... : ... .. . ... ... : ... .. D ... ...
ROW 13 : ... .. D ... ... ... : ... .. . ... ... ... : ... .. . ... : ... .. A ... : ... .. . ... ... : ... .. 8 ... ... : ... .. 5 ... ... : ... .. 8 ... ...
ROW 14 : ... .. 0 ... ... ... : ... .. . ... ... ... : ... .. . ... : ... .. 0 ... : ... .. . ... ... : --- .. . P82 ... : ... .. . ... ... : ... .. 4 ... ...
ROW 15 : ... .. . ... ... ... : ... .. . ... ... ... : ... .. . ... : ... .. . ... : ... .. . ... ... : ... .. . ... ... : ... .. . ... ... : ... .. . ... ...
ROW 16 : C#3 00 F P7F ... ... : B-2 00 F ... ... ... : B-2 00 . ... : 5-# 00 F ... : ... .. . ... ... : E-3 01 A P80 ... : G-4 01 A ... ... : C#4 01 F ... ...
ROW 17 : ... .. E ... ... ... : ... .. E ... ... ... : ... .. . ... : ... .. C ... : ... .. . ... ... : ... .. 9 ... ... : ... .. 9 ... ... : ... .. D ... ...
ROW 18 : ... .. D ... ... ... : ... .. D ... ... ... : ... .. . ... : ... .. A ... : ... .. . ... ... : ... .. 8 ... ... : ... .. 8 ... ... : ... .. 8 ... ...
ROW 19 : ... .. 0 ... ... ... : ... .. A ... ... ... : ... .. . ... : ... .. 0 ... : ... .. . ... ... : --- .. . P82 ... : ... .. 7 ... ... : ... .. 4 ... ...
ROW 1A : ... .. . ... ... ... : ... .. . ... ... ... : ... .. . ... : ... .. . ... : ... .. . ... ... : ... .. . ... ... : ... .. . ... ... : ... .. . ... ...
ROW 1B : C#3 00 F P7F ... ... : ... .. . ... ... ... : ... .. . ... : 4-# 00 F ... : ... .. . ... ... : E-3 01 A P80 ... : ... .. 6 ... ... : D-4 01 F ... ...
ROW 1C : ... .. E ... ... ... : ... .. . ... ... ... : ... .. . ... : ... .. C ... : ... .. . ... ... : ... .. 9 ... ... : ... .. . ... ... : ... .. D ... ...
ROW 1D : ... .. D ... ... ... : ... .. . ... ... ... : ... .. . ... : ... .. A ... : ... .. . ... ... : ... .. 8 ... ... : ... .. 5 ... ... : ... .. 8 ... ...
ROW 1E : ... .. 0 ... ... ... : ... .. 0 ... V00 ... : --- .. . ... : ... .. 8 ... : ... .. . ... ... : --- .. . P82 ... : ... .. . ... ... : ... .. 4 ... ...
ROW 1F : ... .. . ... ... ... : ... .. . ... ... ... : ... .. . ... : ... .. . ... : ... .. . ... ... : ... .. . ... ... : ... .. . ... ... : ... .. . ... ...
ROW 20 : ... .. . ... ... ... : ... .. . ... ... ... : ... .. . ... : ... .. . ... : ... .. . ... ... : ... .. . ... ... : ... .. . ... ... : ... .. . ... ...
ROW 21 : ... .. . ... ... ... : ... .. . ... ... ... : ... .. . ... : ... .. . ... : ... .. . ... ... : ... .. . ... ... : ... .. . ... ... : ... .. . ... ...
ROW 22 : ... .. . ... ... ... : ... .. . ... ... ... : ... .. . ... : ... .. . ... : ... .. . ... ... : ... .. . ... ... : ... .. . ... ... : ... .. . ... ...
ROW 23 : ... .. . ... ... ... : ... .. . ... ... ... : ... .. . ... : ... .. . ... : ... .. . ... ... : ... .. . ... ... : ... .. . ... ... : ... .. . ... ...
ROW 24 : ... .. . ... ... ... : ... .. . ... ... ... : ... .. . ... : ... .. . ... : ... .. . ... ... : ... .. . ... ... : ... .. . ... ... : ... .. . ... ...
ROW 25 : ... .. . ... ... ... : ... .. . ... ... ... : ... .. . ... : ... .. . ... : ... .. . ... ... : ... .. . ... ... : ... .. . ... ... : ... .. . ... ...
ROW 26 : ... .. . ... ... ... : ... .. . ... ... ... : ... .. . ... : ... .. . ... : ... .. . ... ... : ... .. . ... ... : ... .. . ... ... : ... .. . ... ...
ROW 27 : ... .. . ... ... ... : ... .. . ... ... ... : ... .. . ... : ... .. . ... : ... .. . ... ... : ... .. . ... ... : ... .. . ... ... : ... .. . ... ...
ROW 28 : ... .. . ... ... ... : ... .. . ... ... ... : ... .. . ... : ... .. . ... : ... .. . ... ... : ... .. . ... ... : ... .. . ... ... : ... .. . ... ...
ROW 29 : ... .. . ... ... ... : ... .. . ... ... ... : ... .. . ... : ... .. . ... : ... .. . ... ... : ... .. . ... ... : ... .. . ... ... : ... .. . ... ...
ROW 2A : ... .. . ... ... ... : ... .. . ... ... ... : ... .. . ... : ... .. . ... : ... .. . ... ... : ... .. . ... ... : ... .. . ... ... : ... .. . ... ...
ROW 2B : ... .. . ... ... ... : ... .. . ... ... ... : ... .. . ... : ... .. . ... : ... .. . ... ... : ... .. . ... ... : ... .. . ... ... : ... .. . ... ...
ROW 2C : ... .. . ... ... ... : ... .. . ... ... ... : ... .. . ... : ... .. . ... : ... .. . ... ... : ... .. . ... ... : ... .. . ... ... : ... .. . ... ...
ROW 2D : ... .. . ... ... ... : ... .. . ... ... ... : ... .. . ... : ... .. . ... : ... .. . ... ... : ... .. . ... ... : ... .. . ... ... : ... .. . ... ...
ROW 2E : ... .. . ... ... ... : ... .. . ... ... ... : ... .. . ... : ... .. . ... : ... .. . ... ... : ... .. . ... ... : ... .. . ... ... : ... .. . ... ...
ROW 2F : ... .. . ... ... ... : ... .. . ... ... ... : ... .. . ... : ... .. . ... : ... .. . ... ... : ... .. . ... ... : ... .. . ... ... : ... .. . ... ...
ROW 30 : ... .. . ... ... ... : ... .. . ... ... ... : ... .. . ... : ... .. . ... : ... .. . ... ... : ... .. . ... ... : ... .. . ... ... : ... .. . ... ...
ROW 31 : ... .. . ... ... ... : ... .. . ... ... ... : ... .. . ... : ... .. . ... : ... .. . ... ... : ... .. . ... ... : ... .. . ... ... : ... .. . ... ...
ROW 32 : ... .. . ... ... ... : ... .. . ... ... ... : ... .. . ... : ... .. . ... : ... .. . ... ... : ... .. . ... ... : ... .. . ... ... : ... .. . ... ...
ROW 33 : ... .. . ... ... ... : ... .. . ... ... ... : ... .. . ... : ... .. . ... : ... .. . ... ... : ... .. . ... ... : ... .. . ... ... : ... .. . ... ...
ROW 34 : ... .. . ... ... ... : ... .. . ... ... ... : ... .. . ... : ... .. . ... : ... .. . ... ... : ... .. . ... ... : ... .. . ... ... : ... .. . ... ...
ROW 35 : ... .. . ... ... ... : ... .. . ... ... ... : ... .. . ... : ... .. . ... : ... .. . ... ... : ... .. . ... ... : ... .. . ... ... : ... .. . ... ...
ROW 36 : ... .. . ... ... ... : ... .. . ... ... ... : ... .. . ... : ... .. . ... : ... .. . ... ... : ... .. . ... ... : ... .. . ... ... : ... .. . ... ...
ROW 37 : ... .. . ... ... ... : ... .. . ... ... ... : ... .. . ... : ... .. . ... : ... .. . ... ... : ... .. . ... ... : ... .. . ... ... : ... .. . ... ...
ROW 38 : ... .. . ... ... ... : ... .. . ... ... ... : ... .. . ... : ... .. . ... : ... .. . ... ... : ... .. . ... ... : ... .. . ... ... : ... .. . ... ...
ROW 39 : ... .. . ... ... ... : ... .. . ... ... ... : ... .. . ... : ... .. . ... : ... .. . ... ... : ... .. . ... ... : ... .. . ... ... : ... .. . ... ...
ROW 3A : ... .. . ... ... ... : ... .. . ... ... ... : ... .. . ... : ... .. . ... : ... .. . ... ... : ... .. . ... ... : ... .. . ... ... : ... .. . ... ...
ROW 3B : ... .. . ... ... ... : ... .. . ... ... ... : ... .. . ... : ... .. . ... : ... .. . ... ... : ... .. . ... ... : ... .. . ... ... : ... .. . ... ...
ROW 3C : ... .. . ... ... ... : ... .. . ... ... ... : ... .. . ... : ... .. . ... : ... .. . ... ... : ... .. . ... ... : ... .. . ... ... : ... .. . ... ...
ROW 3D : ... .. . ... ... ... : ... .. . ... ... ... : ... .. . ... : ... .. . ... : ... .. . ... ... : ... .. . ... ... : ... .. . ... ... : ... .. . ... ...
ROW 3E : ... .. . ... ... ... : ... .. . ... ... ... : ... .. . ... : ... .. . ... : ... .. . ... ... : ... .. . ... ... : ... .. . ... ... : ... .. . ... ...
ROW 3F : ... .. . ... ... ... : ... .. . ... ... ... : ... .. . ... : ... .. . ... : ... .. . ... ... : ... .. . ... ... : ... .. . ... ... : ... .. . ... ...
ROW 40 : ... .. . ... ... ... : ... .. . ... ... ... : ... .. . ... : ... .. . ... : ... .. . ... ... : ... .. . ... ... : ... .. . ... ... : ... .. . ... ...
ROW 41 : ... .. . ... ... ... : ... .. . ... ... ... : ... .. . ... : ... .. . ... : ... .. . ... ... : ... .. . ... ... : ... .. . ... ... : ... .. . ... ...
ROW 42 : ... .. . ... ... ... : ... .. . ... ... ... : ... .. . ... : ... .. . ... : ... .. . ... ... : ... .. . ... ... : ... .. . ... ... : ... .. . ... ...
ROW 43 : ... .. . ... ... ... : ... .. . ... ... ... : ... .. . ... : ... .. . ... : ... .. . ... ... : ... .. . ... ... : ... .. . ... ... : ... .. . ... ...
ROW 44 : ... .. . ... ... ... : ... .. . ... ... ... : ... .. . ... : ... .. . ... : ... .. . ... ... : ... .. . ... ... : ... .. . ... ... : ... .. . ... ...
ROW 45 : ... .. . ... ... ... : ... .. . ... ... ... : ... .. . ... : ... .. . ... : ... .. . ... ... : ... .. . ... ... : ... .. . ... ... : ... .. . ... ...
ROW 46 : ... .. . ... ... ... : ... .. . ... ... ... : ... .. . ... : ... .. . ... : ... .. . ... ... : ... .. . ... ... : ... .. . ... ... : ... .. . ... ...
ROW 47 : ... .. . ... ... ... : ... .. . ... ... ... : ... .. . ... : ... .. . ... : ... .. . ... ... : ... .. . ... ... : ... .. . ... ... : ... .. . ... ...
ROW 48 : ... .. . ... ... ... : ... .. . ... ... ... : ... .. . ... : ... .. . ... : ... .. . ... ... : ... .. . ... ... : ... .. . ... ... : ... .. . ... ...
ROW 49 : ... .. . ... ... ... : ... .. . ... ... ... : ... .. . ... : ... .. . ... : ... .. . ... ... : ... .. . ... ... : ... .. . ... ... : ... .. . ... ...
ROW 4A : ... .. . ... ... ... : ... .. . ... ... ... : ... .. . ... : ... .. . ... : ... .. . ... ... : ... .. . ... ... : ... .. . ... ... : ... .. . ... ...
ROW 4B : ... .. . ... ... ... : ... .. . ... ... ... : ... .. . ... : ... .. . ... : ... .. . ... ... : ... .. . ... ... : ... .. . ... ... : ... .. . ... ...
ROW 4C : ... .. . ... ... ... : ... .. . ... ... ... : ... .. . ... : ... .. . ... : ... .. . ... ... : ... .. . ... ... : ... .. . ... ... : ... .. . ... ...
ROW 4D : ... .. . ... ... ... : ... .. . ... ... ... : ... .. . ... : ... .. . ... : ... .. . ... ... : ... .. . ... ... : ... .. . ... ... : ... .. . ... ...
ROW 4E : ... .. . ... ... ... : ... .. . ... ... ... : ... .. . ... : ... .. . ... : ... .. . ... ... : ... .. . ... ... : ... .. . ... ... : ... .. . ... ...
ROW 4F : ... .. . ... ... ... : ... .. . ... ... ... : ... .. . ... : ... .. . ... : ... .. . ... ... : ... .. . ... ... : ... .. . ... ... : ... .. . ... ...
ROW 50 : ... .. . ... ... ... : ... .. . ... ... ... : ... .. . ... : ... .. . ... : ... .. . ... ... : ... .. . ... ... : ... .. . ... ... : ... .. . ... ...
ROW 51 : ... .. . ... ... ... : ... .. . ... ... ... : ... .. . ... : ... .. . ... : ... .. . ... ... : ... .. . ... ... : ... .. . ... ... : ... .. . ... ...
ROW 52 : ... .. . ... ... ... : ... .. . ... ... ... : ... .. . ... : ... .. . ... : ... .. . ... ... : ... .. . ... ... : ... .. . ... ... : ... .. . ... ...
ROW 53 : ... .. . ... ... ... : ... .. . ... ... ... : ... .. . ... : ... .. . ... : ... .. . ... ... : ... .. . ... ... : ... .. . ... ... : ... .. . ... ...
ROW 54 : ... .. . ... ... ... : ... .. . ... ... ... : ... .. . ... : ... .. . ... : ... .. . ... ... : ... .. . ... ... : ... .. . ... ... : ... .. . ... ...
ROW 55 : ... .. . ... ... ... : ... .. . ... ... ... : ... .. . ... : ... .. . ... : ... .. . ... ... : ... .. . ... ... : ... .. . ... ... : ... .. . ... ...
ROW 56 : ... .. . ... ... ... : ... .. . ... ... ... : ... .. . ... : ... .. . ... : ... .. . ... ... : ... .. . ... ... : ... .. . ... ... : ... .. . ... ...
ROW 57 : ... .. . ... ... ... : ... .. . ... ... ... : ... .. . ... : ... .. . ... : ... .. . ... ... : ... .. . ... ... : ... .. . ... ... : ... .. . ... ...
ROW 58 : ... .. . ... ... ... : ... .. . ... ... ... : ... .. . ... : ... .. . ... : ... .. . ... ... : ... .. . ... ... : ... .. . ... ... : ... .. . ... ...
ROW 59 : ... .. . ... ... ... : ... .. . ... ... ... : ... .. . ... : ... .. . ... : ... .. . ... ... : ... .. . ... ... : ... .. . ... ... : ... .. . ... ...
ROW 5A : ... .. . ... ... ... : ... .. . ... ... ... : ... .. . ... : ... .. . ... : ... .. . ... ... : ... .. . ... ... : ... .. . ... ... : ... .. . ... ...
ROW 5B : ... .. . ... ... ... : ... .. . ... ... ... : ... .. . ... : ... .. . ... : ... .. . ... ... : ... .. . ... ... : ... .. . ... ... : ... .. . ... ...
ROW 5C : ... .. . ... ... ... : ... .. . ... ... ... : ... .. . ... : ... .. . ... : ... .. . ... ... : ... .. . ... ... : ... .. . ... ... : ... .. . ... ...
ROW 5D : ... .. . ... ... ... : ... .. . ... ... ... : ... .. . ... : ... .. . ... : ... .. . ... ... : ... .. . ... ... : ... .. . ... ... : ... .. . ... ...
ROW 5E : ... .. . ... ... ... : ... .. . ... ... ... : ... .. . ... : ... .. . ... : ... .. . ... ... : ... .. . ... ... : ... .. . ... ... : ... .. . ... ...
ROW 5F : ... .. . ... ... ... : ... .. . ... ... ... : ... .. . ... : ... .. . ... : ... .. . ... ... : ... .. . ... ... : ... .. . ... ... : ... .. . ... ...
ROW 60 : ... .. . ... ... ... : ... .. . ... ... ... : ... .. . ... : ... .. . ... : ... .. . ... ... : ... .. . ... ... : ... .. . ... ... : ... .. . ... ...
ROW 61 : ... .. . ... ... ... : ... .. . ... ... ... : ... .. . ... : ... .. . ... : ... .. . ... ... : ... .. . ... ... : ... .. . ... ... : ... .. . ... ...
ROW 62 : ... .. . ... ... ... : ... .. . ... ... ... : ... .. . ... : ... .. . ... : ... .. . ... ... : ... .. . ... ... : ... .. . ... ... : ... .. . ... ...
ROW 63 : ... .. . ... ... ... : ... .. . ... ... ... : ... .. . ... : ... .. . ... : ... .. . ... ... : ... .. . ... ... : ... .. . ... ... : ... .. . ... ...
ROW 64 : ... .. . ... ... ... : ... .. . ... ... ... : ... .. . ... : ... .. . ... : ... .. . ... ... : ... .. . ... ... : ... .. . ... ... : ... .. . ... ...
ROW 65 : ... .. . ... ... ... : ... .. . ... ... ... : ... .. . ... : ... .. . ... : ... .. . ... ... : ... .. . ... ... : ... .. . ... ... : ... .. . ... ...
ROW 66 : ... .. . ... ... ... : ... .. . ... ... ... : ... .. . ... : ... .. . ... : ... .. . ... ... : ... .. . ... ... : ... .. . ... ... : ... .. . ... ...
ROW 67 : ... .. . ... ... ... : ... .. . ... ... ... : ... .. . ... : ... .. . ... : ... .. . ... ... : ... .. . ... ... : ... .. . ... ... : ... .. . ... ...
ROW 68 : ... .. . ... ... ... : ... .. . ... ... ... : ... .. . ... : ... .. . ... : ... .. . ... ... : ... .. . ... ... : ... .. . ... ... : ... .. . ... ...
ROW 69 : ... .. . ... ... ... : ... .. . ... ... ... : ... .. . ... : ... .. . ... : ... .. . ... ... : ... .. . ... ... : ... .. . ... ... : ... .. . ... ...
ROW 6A : ... .. . ... ... ... : ... .. . ... ... ... : ... .. . ... : ... .. . ... : ... .. . ... ... : ... .. . ... ... : ... .. . ... ... : ... .. . ... ...
ROW 6B : ... .. . ... ... ... : ... .. . ... ... ... : ... .. . ... : ... .. . ... : ... .. . ... ... : ... .. . ... ... : ... .. . ... ... : ... .. . ... ...
ROW 6C : ... .. . ... ... ... : ... .. . ... ... ... : ... .. . ... : ... .. . ... : ... .. . ... ... : ... .. . ... ... : ... .. . ... ... : ... .. . ... ...
ROW 6D : ... .. . ... ... ... : ... .. . ... ... ... : ... .. . ... : ... .. . ... : ... .. . ... ... : ... .. . ... ... : ... .. . ... ... : ... .. . ... ...
ROW 6E : ... .. . ... ... ... : ... .. . ... ... ... : ... .. . ... : ... .. . ... : ... .. . ... ... : ... .. . ... ... : ... .. . ... ... : ... .. . ... ...
ROW 6F : ... .. . ... ... ... : ... .. . ... ... ... : ... .. . ... : ... .. . ... : ... .. . ... ... : ... .. . ... ... : ... .. . ... ... : ... .. . ... ...
ROW 70 : ... .. . ... ... ... : ... .. . ... ... ... : ... .. . ... : ... .. . ... : ... .. . ... ... : ... .. . ... ... : ... .. . ... ... : ... .. . ... ...
ROW 71 : ... .. . ... ... ... : ... .. . ... ... ... : ... .. . ... : ... .. . ... : ... .. . ... ... : ... .. . ... ... : ... .. . ... ... : ... .. . ... ...
ROW 72 : ... .. . ... ... ... : ... .. . ... ... ... : ... .. . ... : ... .. . ... : ... .. . ... ... : ... .. . ... ... : ... .. . ... ... : ... .. . ... ...
ROW 73 : ... .. . ... ... ... : ... .. . ... ... ... : ... .. . ... : ... .. . ... : ... .. . ... ... : ... .. . ... ... : ... .. . ... ... : ... .. . ... ...
ROW 74 : ... .. . ... ... ... : ... .. . ... ... ... : ... .. . ... : ... .. . ... : ... .. . ... ... : ... .. . ... ... : ... .. . ... ... : ... .. . ... ...
ROW 75 : ... .. . ... ... ... : ... .. . ... ... ... : ... .. . ... : ... .. . ... : ... .. . ... ... : ... .. . ... ... : ... .. . ... ... : ... .. . ... ...
ROW 76 : ... .. . ... ... ... : ... .. . ... ... ... : ... .. . ... : ... .. . ... : ... .. . ... ... : ... .. . ... ... : ... .. . ... ... : ... .. . ... ...
ROW 77 : ... .. . ... ... ... : ... .. . ... ... ... : ... .. . ... : ... .. . ... : ... .. . ... ... : ... .. . ... ... : ... .. . ... ... : ... .. . ... ...
ROW 78 : ... .. . ... ... ... : ... .. . ... ... ... : ... .. . ... : ... .. . ... : ... .. . ... ... : ... .. . ... ... : ... .. . ... ... : ... .. . ... ...
ROW 79 : ... .. . ... ... ... : ... .. . ... ... ... : ... .. . ... : ... .. . ... : ... .. . ... ... : ... .. . ... ... : ... .. . ... ... : ... .. . ... ...
ROW 7A : ... .. . ... ... ... : ... .. . ... ... ... : ... .. . ... : ... .. . ... : ... .. . ... ... : ... .. . ... ... : ... .. . ... ... : ... .. . ... ...
ROW 7B : ... .. . ... ... ... : ... .. . ... ... ... : ... .. . ... : ... .. . ... : ... .. . ... ... : ... .. . ... ... : ... .. . ... ... : ... .. . ... ...
ROW 7C : ... .. . ... ... ... : ... .. . ... ... ... : ... .. . ... : ... .. . ... : ... .. . ... ... : ... .. . ... ... : ... .. . ... ... : ... .. . ... ...
ROW 7D : ... .. . ... ... ... : ... .. . ... ... ... : ... .. . ... : ... .. . ... : ... .. . ... ... : ... .. . ... ... : ... .. . ... ... : ... .. . ... ...
ROW 7E : ... .. . ... ... ... : ... .. . ... ... ... : ... .. . ... : ... .. . ... : ... .. . ... ... : ... .. . ... ... : ... .. . ... ... : ... .. . ... ...
ROW 7F : ... .. . ... ... ... : ... .. . ... ... ... : ... .. . ... : ... .. . ... : ... .. . ... ... : ... .. . ... ... : ... .. . ... ... : ... .. . ... ...
ROW 80 : ... .. . ... ... ... : ... .. . ... ... ... : ... .. . ... : ... .. . ... : ... .. . ... ... : ... .. . ... ... : ... .. . ... ... : ... .. . ... ...
ROW 81 : ... .. . ... ... ... : ... .. . ... ... ... : ... .. . ... : ... .. . ... : ... .. . ... ... : ... .. . ... ... : ... .. . ... ... : ... .. . ... ...
ROW 82 : ... .. . ... ... ... : ... .. . ... ... ... : ... .. . ... : ... .. . ... : ... .. . ... ... : ... .. . ... ... : ... .. . ... ... : ... .. . ... ...
ROW 83 : ... .. . ... ... ... : ... .. . ... ... ... : ... .. . ... : ... .. . ... : ... .. . ... ... : ... .. . ... ... : ... .. . ... ... : ... .. . ... ...
ROW 84 : ... .. . ... ... ... : ... .. . ... ... ... : ... .. . ... : ... .. . ... : ... .. . ... ... : ... .. . ... ... : ... .. . ... ... : ... .. . ... ...
ROW 85 : ... .. . ... ... ... : ... .. . ... ... ... : ... .. . ... : ... .. . ... : ... .. . ... ... : ... .. . ... ... : ... .. . ... ... : ... .. . ... ...
ROW 86 : ... .. . ... ... ... : ... .. . ... ... ... : ... .. . ... : ... .. . ... : ... .. . ... ... : ... .. . ... ... : ... .. . ... ... : ... .. . ... ...
ROW 87 : ... .. . ... ... ... : ... .. . ... ... ... : ... .. . ... : ... .. . ... : ... .. . ... ... : ... .. . ... ... : ... .. . ... ... : ... .. . ... ...
ROW 88 : ... .. . ... ... ... : ... .. . ... ... ... : ... .. . ... : ... .. . ... : ... .. . ... ... : ... .. . ... ... : ... .. . ... ... : ... .. . ... ...
ROW 89 : ... .. . ... ... ... : ... .. . ... ... ... : ... .. . ... : ... .. . ... : ... .. . ... ... : ... .. . ... ... : ... .. . ... ... : ... .. . ... ...
ROW 8A : ... .. . ... ... ... : ... .. . ... ... ... : ... .. . ... : ... .. . ... : ... .. . ... ... : ... .. . ... ... : ... .. . ... ... : ... .. . ... ...
ROW 8B : ... .. . ... ... ... : ... .. . ... ... ... : ... .. . ... : ... .. . ... : ... .. . ... ... : ... .. . ... ... : ... .. . ... ... : ... .. . ... ...
ROW 8C : ... .. . ... ... ... : ... .. . ... ... ... : ... .. . ... : ... .. . ... : ... .. . ... ... : ... .. . ... ... : ... .. . ... ... : ... .. . ... ...
ROW 8D : ... .. . ... ... ... : ... .. . ... ... ... : ... .. . ... : ... .. . ... : ... .. . ... ... : ... .. . ... ... : ... .. . ... ... : ... .. . ... ...
ROW 8E : ... .. . ... ... ... : ... .. . ... ... ... : ... .. . ... : ... .. . ... : ... .. . ... ... : ... .. . ... ... : ... .. . ... ... : ... .. . ... ...
ROW 8F : ... .. . ... ... ... : ... .. . ... ... ... : ... .. . ... : ... .. . ... : ... .. . ... ... : ... .. . ... ... : ... .. . ... ... : ... .. . ... ...
ROW 90 : ... .. . ... ... ... : ... .. . ... ... ... : ... .. . ... : ... .. . ... : ... .. . ... ... : ... .. . ... ... : ... .. . ... ... : ... .. . ... ...
ROW 91 : ... .. . ... ... ... : ... .. . ... ... ... : ... .. . ... : ... .. . ... : ... .. . ... ... : ... .. . ... ... : ... .. . ... ... : ... .. . ... ...
ROW 92 : ... .. . ... ... ... : ... .. . ... ... ... : ... .. . ... : ... .. . ... : ... .. . ... ... : ... .. . ... ... : ... .. . ... ... : ... .. . ... ...
ROW 93 : ... .. . ... ... ... : ... .. . ... ... ... : ... .. . ... : ... .. . ... : ... .. . ... ... : ... .. . ... ... : ... .. . ... ... : ... .. . ... ...
ROW 94 : ... .. . ... ... ... : ... .. . ... ... ... : ... .. . ... : ... .. . ... : ... .. . ... ... : ... .. . ... ... : ... .. . ... ... : ... .. . ... ...
ROW 95 : ... .. . ... ... ... : ... .. . ... ... ... : ... .. . ... : ... .. . ... : ... .. . ... ... : ... .. . ... ... : ... .. . ... ... : ... .. . ... ...
ROW 96 : ... .. . ... ... ... : ... .. . ... ... ... : ... .. . ... : ... .. . ... : ... .. . ... ... : ... .. . ... ... : ... .. . ... ... : ... .. . ... ...
ROW 97 : ... .. . ... ... ... : ... .. . ... ... ... : ... .. . ... : ... .. . ... : ... .. . ... ... : ... .. . ... ... : ... .. . ... ... : ... .. . ... ...
ROW 98 : ... .. . ... ... ... : ... .. . ... ... ... : ... .. . ... : ... .. . ... : ... .. . ... ... : ... .. . ... ... : ... .. . ... ... : ... .. . ... ...
ROW 99 : ... .. . ... ... ... : ... .. . ... ... ... : ... .. . ... : ... .. . ... : ... .. . ... ... : ... .. . ... ... : ... .. . ... ... : ... .. . ... ...
ROW 9A : ... .. . ... ... ... : ... .. . ... ... ... : ... .. . ... : ... .. . ... : ... .. . ... ... : ... .. . ... ... : ... .. . ... ... : ... .. . ... ...
ROW 9B : ... .. . ... ... ... : ... .. . ... ... ... : ... .. . ... : ... .. . ... : ... .. . ... ... : ... .. . ... ... : ... .. . ... ... : ... .. . ... ...
ROW 9C : ... .. . ... ... ... : ... .. . ... ... ... : ... .. . ... : ... .. . ... : ... .. . ... ... : ... .. . ... ... : ... .. . ... ... : ... .. . ... ...
ROW 9D : ... .. . ... ... ... : ... .. . ... ... ... : ... .. . ... : ... .. . ... : ... .. . ... ... : ... .. . ... ... : ... .. . ... ... : ... .. . ... ...
ROW 9E : ... .. . ... ... ... : ... .. . ... ... ... : ... .. . ... : ... .. . ... : ... .. . ... ... : ... .. . ... ... : ... .. . ... ... : ... .. . ... ...
ROW 9F : ... .. . ... ... ... : ... .. . ... ... ... : ... .. . ... : ... .. . ... : ... .. . ... ... : ... .. . ... ... : ... .. . ... ... : ... .. . ... ...
ROW A0 : ... .. . ... ... ... : ... .. . ... ... ... : ... .. . ... : ... .. . ... : ... .. . ... ... : ... .. . ... ... : ... .. . ... ... : ... .. . ... ...
ROW A1 : ... .. . ... ... ... : ... .. . ... ... ... : ... .. . ... : ... .. . ... : ... .. . ... ... : ... .. . ... ... : ... .. . ... ... : ... .. . ... ...
ROW A2 : ... .. . ... ... ... : ... .. . ... ... ... : ... .. . ... : ... .. . ... : ... .. . ... ... : ... .. . ... ... : ... .. . ... ... : ... .. . ... ...
ROW A3 : ... .. . ... ... ... : ... .. . ... ... ... : ... .. . ... : ... .. . ... : ... .. . ... ... : ... .. . ... ... : ... .. . ... ... : ... .. . ... ...
ROW A4 : ... .. . ... ... ... : ... .. . ... ... ... : ... .. . ... : ... .. . ... : ... .. . ... ... : ... .. . ... ... : ... .. . ... ... : ... .. . ... ...
ROW A5 : ... .. . ... ... ... : ... .. . ... ... ... : ... .. . ... : ... .. . ... : ... .. . ... ... : ... .. . ... ... : ... .. . ... ... : ... .. . ... ...
ROW A6 : ... .. . ... ... ... : ... .. . ... ... ... : ... .. . ... : ... .. . ... : ... .. . ... ... : ... .. . ... ... : ... .. . ... ... : ... .. . ... ...
ROW A7 : ... .. . ... ... ... : ... .. . ... ... ... : ... .. . ... : ... .. . ... : ... .. . ... ... : ... .. . ... ... : ... .. . ... ... : ... .. . ... ...
ROW A8 : ... .. . ... ... ... : ... .. . ... ... ... : ... .. . ... : ... .. . ... : ... .. . ... ... : ... .. . ... ... : ... .. . ... ... : ... .. . ... ...
ROW A9 : ... .. . ... ... ... : ... .. . ... ... ... : ... .. . ... : ... .. . ... : ... .. . ... ... : ... .. . ... ... : ... .. . ... ... : ... .. . ... ...
ROW AA : ... .. . ... ... ... : ... .. . ... ... ... : ... .. . ... : ... .. . ... : ... .. . ... ... : ... .. . ... ... : ... .. . ... ... : ... .. . ... ...
ROW AB : ... .. . ... ... ... : ... .. . ... ... ... : ... .. . ... : ... .. . ... : ... .. . ... ... : ... .. . ... ... : ... .. . ... ... : ... .. . ... ...
ROW AC : ... .. . ... ... ... : ... .. . ... ... ... : ... .. . ... : ... .. . ... : ... .. . ... ... : ... .. . ... ... : ... .. . ... ... : ... .. . ... ...
ROW AD : ... .. . ... ... ... : ... .. . ... ... ... : ... .. . ... : ... .. . ... : ... .. . ... ... : ... .. . ... ... : ... .. . ... ... : ... .. . ... ...
ROW AE : ... .. . ... ... ... : ... .. . ... ... ... : ... .. . ... : ... .. . ... : ... .. . ... ... : ... .. . ... ... : ... .. . ... ... : ... .. . ... ...
ROW AF : ... .. . ... ... ... : ... .. . ... ... ... : ... .. . ... : ... .. . ... : ... .. . ... ... : ... .. . ... ... : ... .. . ... ... : ... .. . ... ...
ROW B0 : ... .. . ... ... ... : ... .. . ... ... ... : ... .. . ... : ... .. . ... : ... .. . ... ... : ... .. . ... ... : ... .. . ... ... : ... .. . ... ...
ROW B1 : ... .. . ... ... ... : ... .. . ... ... ... : ... .. . ... : ... .. . ... : ... .. . ... ... : ... .. . ... ... : ... .. . ... ... : ... .. . ... ...
ROW B2 : ... .. . ... ... ... : ... .. . ... ... ... : ... .. . ... : ... .. . ... : ... .. . ... ... : ... .. . ... ... : ... .. . ... ... : ... .. . ... ...
ROW B3 : ... .. . ... ... ... : ... .. . ... ... ... : ... .. . ... : ... .. . ... : ... .. . ... ... : ... .. . ... ... : ... .. . ... ... : ... .. . ... ...
ROW B4 : ... .. . ... ... ... : ... .. . ... ... ... : ... .. . ... : ... .. . ... : ... .. . ... ... : ... .. . ... ... : ... .. . ... ... : ... .. . ... ...
ROW B5 : ... .. . ... ... ... : ... .. . ... ... ... : ... .. . ... : ... .. . ... : ... .. . ... ... : ... .. . ... ... : ... .. . ... ... : ... .. . ... ...
ROW B6 : ... .. . ... ... ... : ... .. . ... ... ... : ... .. . ... : ... .. . ... : ... .. . ... ... : ... .. . ... ... : ... .. . ... ... : ... .. . ... ...
ROW B7 : ... .. . ... ... ... : ... .. . ... ... ... : ... .. . ... : ... .. . ... : ... .. . ... ... : ... .. . ... ... : ... .. . ... ... : ... .. . ... ...
ROW B8 : ... .. . ... ... ... : ... .. . ... ... ... : ... .. . ... : ... .. . ... : ... .. . ... ... : ... .. . ... ... : ... .. . ... ... : ... .. . ... ...
ROW B9 : ... .. . ... ... ... : ... .. . ... ... ... : ... .. . ... : ... .. . ... : ... .. . ... ... : ... .. . ... ... : ... .. . ... ... : ... .. . ... ...
ROW BA : ... .. . ... ... ... : ... .. . ... ... ... : ... .. . ... : ... .. . ... : ... .. . ... ... : ... .. . ... ... : ... .. . ... ... : ... .. . ... ...
ROW BB : ... .. . ... ... ... : ... .. . ... ... ... : ... .. . ... : ... .. . ... : ... .. . ... ... : ... .. . ... ... : ... .. . ... ... : ... .. . ... ...
ROW BC : ... .. . ... ... ... : ... .. . ... ... ... : ... .. . ... : ... .. . ... : ... .. . ... ... : ... .. . ... ... : ... .. . ... ... : ... .. . ... ...
ROW BD : ... .. . ... ... ... : ... .. . ... ... ... : ... .. . ... : ... .. . ... : ... .. . ... ... : ... .. . ... ... : ... .. . ... ... : ... .. . ... ...
ROW BE : ... .. . ... ... ... : ... .. . ... ... ... : ... .. . ... : ... .. . ... : ... .. . ... ... : ... .. . ... ... : ... .. . ... ... : ... .. . ... ...
ROW BF : ... .. . ... ... ... : ... .. . ... ... ... : ... .. . ... : ... .. . ... : ... .. . ... ... : ... .. . ... ... : ... .. . ... ... : ... .. . ... ...
ROW C0 : ... .. . ... ... ... : ... .. . ... ... ... : ... .. . ... : ... .. . ... : ... .. . ... ... : ... .. . ... ... : ... .. . ... ... : ... .. . ... ...
ROW C1 : ... .. . ... ... ... : ... .. . ... ... ... : ... .. . ... : ... .. . ... : ... .. . ... ... : ... .. . ... ... : ... .. . ... ... : ... .. . ... ...
ROW C2 : ... .. . ... ... ... : ... .. . ... ... ... : ... .. . ... : ... .. . ... : ... .. . ... ... : ... .. . ... ... : ... .. . ... ... : ... .. . ... ...
ROW C3 : ... .. . ... ... ... : ... .. . ... ... ... : ... .. . ... : ... .. . ... : ... .. . ... ... : ... .. . ... ... : ... .. . ... ... : ... .. . ... ...
ROW C4 : ... .. . ... ... ... : ... .. . ... ... ... : ... .. . ... : ... .. . ... : ... .. . ... ... : ... .. . ... ... : ... .. . ... ... : ... .. . ... ...
ROW C5 : ... .. . ... ... ... : ... .. . ... ... ... : ... .. . ... : ... .. . ... : ... .. . ... ... : ... .. . ... ... : ... .. . ... ... : ... .. . ... ...
ROW C6 : ... .. . ... ... ... : ... .. . ... ... ... : ... .. . ... : ... .. . ... : ... .. . ... ... : ... .. . ... ... : ... .. . ... ... : ... .. . ... ...
ROW C7 : ... .. . ... ... ... : ... .. . ... ... ... : ... .. . ... : ... .. . ... : ... .. . ... ... : ... .. . ... ... : ... .. . ... ... : ... .. . ... ...
ROW C8 : ... .. . ... ... ... : ... .. . ... ... ... : ... .. . ... : ... .. . ... : ... .. . ... ... : ... .. . ... ... : ... .. . ... ... : ... .. . ... ...
ROW C9 : ... .. . ... ... ... : ... .. . ... ... ... : ... .. . ... : ... .. . ... : ... .. . ... ... : ... .. . ... ... : ... .. . ... ... : ... .. . ... ...
ROW CA : ... .. . ... ... ... : ... .. . ... ... ... : ... .. . ... : ... .. . ... : ... .. . ... ... : ... .. . ... ... : ... .. . ... ... : ... .. . ... ...
ROW CB : ... .. . ... ... ... : ... .. . ... ... ... : ... .. . ... : ... .. . ... : ... .. . ... ... : ... .. . ... ... : ... .. . ... ... : ... .. . ... ...
ROW CC : ... .. . ... ... ... : ... .. . ... ... ... : ... .. . ... : ... .. . ... : ... .. . ... ... : ... .. . ... ... : ... .. . ... ... : ... .. . ... ...
ROW CD : ... .. . ... ... ... : ... .. . ... ... ... : ... .. . ... : ... .. . ... : ... .. . ... ... : ... .. . ... ... : ... .. . ... ... : ... .. . ... ...
ROW CE : ... .. . ... ... ... : ... .. . ... ... ... : ... .. . ... : ... .. . ... : ... .. . ... ... : ... .. . ... ... : ... .. . ... ... : ... .. . ... ...
ROW CF : ... .. . ... ... ... : ... .. . ... ... ... : ... .. . ... : ... .. . ... : ... .. . ... ... : ... .. . ... ... : ... .. . ... ... : ... .. . ... ...
ROW D0 : ... .. . ... ... ... : ... .. . ... ... ... : ... .. . ... : ... .. . ... : ... .. . ... ... : ... .. . ... ... : ... .. . ... ... : ... .. . ... ...
ROW D1 : ... .. . ... ... ... : ... .. . ... ... ... : ... .. . ... : ... .. . ... : ... .. . ... ... : ... .. . ... ... : ... .. . ... ... : ... .. . ... ...
ROW D2 : ... .. . ... ... ... : ... .. . ... ... ... : ... .. . ... : ... .. . ... : ... .. . ... ... : ... .. . ... ... : ... .. . ... ... : ... .. . ... ...
ROW D3 : ... .. . ... ... ... : ... .. . ... ... ... : ... .. . ... : ... .. . ... : ... .. . ... ... : ... .. . ... ... : ... .. . ... ... : ... .. . ... ...
ROW D4 : ... .. . ... ... ... : ... .. . ... ... ... : ... .. . ... : ... .. . ... : ... .. . ... ... : ... .. . ... ... : ... .. . ... ... : ... .. . ... ...
ROW D5 : ... .. . ... ... ... : ... .. . ... ... ... : ... .. . ... : ... .. . ... : ... .. . ... ... : ... .. . ... ... : ... .. . ... ... : ... .. . ... ...
ROW D6 : ... .. . ... ... ... : ... .. . ... ... ... : ... .. . ... : ... .. . ... : ... .. . ... ... : ... .. . ... ... : ... .. . ... ... : ... .. . ... ...
ROW D7 : ... .. . ... ... ... : ... .. . ... ... ... : ... .. . ... : ... .. . ... : ... .. . ... ... : ... .. . ... ... : ... .. . ... ... : ... .. . ... ...
ROW D8 : ... .. . ... ... ... : ... .. . ... ... ... : ... .. . ... : ... .. . ... : ... .. . ... ... : ... .. . ... ... : ... .. . ... ... : ... .. . ... ...
ROW D9 : ... .. . ... ... ... : ... .. . ... ... ... : ... .. . ... : ... .. . ... : ... .. . ... ... : ... .. . ... ... : ... .. . ... ... : ... .. . ... ...
ROW DA : ... .. . ... ... ... : ... .. . ... ... ... : ... .. . ... : ... .. . ... : ... .. . ... ... : ... .. . ... ... : ... .. . ... ... : ... .. . ... ...
ROW DB : ... .. . ... ... ... : ... .. . ... ... ... : ... .. . ... : ... .. . ... : ... .. . ... ... : ... .. . ... ... : ... .. . ... ... : ... .. . ... ...
ROW DC : ... .. . ... ... ... : ... .. . ... ... ... : ... .. . ... : ... .. . ... : ... .. . ... ... : ... .. . ... ... : ... .. . ... ... : ... .. . ... ...
ROW DD : ... .. . ... ... ... : ... .. . ... ... ... : ... .. . ... : ... .. . ... : ... .. . ... ... : ... .. . ... ... : ... .. . ... ... : ... .. . ... ...
ROW DE : ... .. . ... ... ... : ... .. . ... ... ... : ... .. . ... : ... .. . ... : ... .. . ... ... : ... .. . ... ... : ... .. . ... ... : ... .. . ... ...
ROW DF : ... .. . ... ... ... : ... .. . ... ... ... : ... .. . ... : ... .. . ... : ... .. . ... ... : ... .. . ... ... : ... .. . ... ... : ... .. . ... ...
ROW E0 : ... .. . ... ... ... : ... .. . ... ... ... : ... .. . ... : ... .. . ... : ... .. . ... ... : ... .. . ... ... : ... .. . ... ... : ... .. . ... ...
ROW E1 : ... .. . ... ... ... : ... .. . ... ... ... : ... .. . ... : ... .. . ... : ... .. . ... ... : ... .. . ... ... : ... .. . ... ... : ... .. . ... ...
ROW E2 : ... .. . ... ... ... : ... .. . ... ... ... : ... .. . ... : ... .. . ... : ... .. . ... ... : ... .. . ... ... : ... .. . ... ... : ... .. . ... ...
ROW E3 : ... .. . ... ... ... : ... .. . ... ... ... : ... .. . ... : ... .. . ... : ... .. . ... ... : ... .. . ... ... : ... .. . ... ... : ... .. . ... ...
ROW E4 : ... .. . ... ... ... : ... .. . ... ... ... : ... .. . ... : ... .. . ... : ... .. . ... ... : ... .. . ... ... : ... .. . ... ... : ... .. . ... ...
ROW E5 : ... .. . ... ... ... : ... .. . ... ... ... : ... .. . ... : ... .. . ... : ... .. . ... ... : ... .. . ... ... : ... .. . ... ... : ... .. . ... ...
ROW E6 : ... .. . ... ... ... : ... .. . ... ... ... : ... .. . ... : ... .. . ... : ... .. . ... ... : ... .. . ... ... : ... .. . ... ... : ... .. . ... ...
ROW E7 : ... .. . ... ... ... : ... .. . ... ... ... : ... .. . ... : ... .. . ... : ... .. . ... ... : ... .. . ... ... : ... .. . ... ... : ... .. . ... ...
ROW E8 : ... .. . ... ... ... : ... .. . ... ... ... : ... .. . ... : ... .. . ... : ... .. . ... ... : ... .. . ... ... : ... .. . ... ... : ... .. . ... ...
ROW E9 : ... .. . ... ... ... : ... .. . ... ... ... : ... .. . ... : ... .. . ... : ... .. . ... ... : ... .. . ... ... : ... .. . ... ... : ... .. . ... ...
ROW EA : ... .. . ... ... ... : ... .. . ... ... ... : ... .. . ... : ... .. . ... : ... .. . ... ... : ... .. . ... ... : ... .. . ... ... : ... .. . ... ...
ROW EB : ... .. . ... ... ... : ... .. . ... ... ... : ... .. . ... : ... .. . ... : ... .. . ... ... : ... .. . ... ... : ... .. . ... ... : ... .. . ... ...
ROW EC : ... .. . ... ... ... : ... .. . ... ... ... : ... .. . ... : ... .. . ... : ... .. . ... ... : ... .. . ... ... : ... .. . ... ... : ... .. . ... ...
ROW ED : ... .. . ... ... ... : ... .. . ... ... ... : ... .. . ... : ... .. . ... : ... .. . ... ... : ... .. . ... ... : ... .. . ... ... : ... .. . ... ...
ROW EE : ... .. . ... ... ... : ... .. . ... ... ... : ... .. . ... : ... .. . ... : ... .. . ... ... : ... .. . ... ... : ... .. . ... ... : ... .. . ... ...
ROW EF : ... .. . ... ... ... : ... .. . ... ... ... : ... .. . ... : ... .. . ... : ... .. . ... ... : ... .. . ... ... : ... .. . ... ... : ... .. . ... ...
ROW F0 : ... .. . ... ... ... : ... .. . ... ... ... : ... .. . ... : ... .. . ... : ... .. . ... ... : ... .. . ... ... : ... .. . ... ... : ... .. . ... ...
ROW F1 : ... .. . ... ... ... : ... .. . ... ... ... : ... .. . ... : ... .. . ... : ... .. . ... ... : ... .. . ... ... : ... .. . ... ... : ... .. . ... ...
ROW F2 : ... .. . ... ... ... : ... .. . ... ... ... : ... .. . ... : ... .. . ... : ... .. . ... ... : ... .. . ... ... : ... .. . ... ... : ... .. . ... ...
ROW F3 : ... .. . ... ... ... : ... .. . ... ... ... : ... .. . ... : ... .. . ... : ... .. . ... ... : ... .. . ... ... : ... .. . ... ... : ... .. . ... ...
ROW F4 : ... .. . ... ... ... : ... .. . ... ... ... : ... .. . ... : ... .. . ... : ... .. . ... ... : ... .. . ... ... : ... .. . ... ... : ... .. . ... ...
ROW F5 : ... .. . ... ... ... : ... .. . ... ... ... : ... .. . ... : ... .. . ... : ... .. . ... ... : ... .. . ... ... : ... .. . ... ... : ... .. . ... ...
ROW F6 : ... .. . ... ... ... : ... .. . ... ... ... : ... .. . ... : ... .. . ... : ... .. . ... ... : ... .. . ... ... : ... .. . ... ... : ... .. . ... ...
ROW F7 : ... .. . ... ... ... : ... .. . ... ... ... : ... .. . ... : ... .. . ... : ... .. . ... ... : ... .. . ... ... : ... .. . ... ... : ... .. . ... ...
ROW F8 : ... .. . ... ... ... : ... .. . ... ... ... : ... .. . ... : ... .. . ... : ... .. . ... ... : ... .. . ... ... : ... .. . ... ... : ... .. . ... ...
ROW F9 : ... .. . ... ... ... : ... .. . ... ... ... : ... .. . ... : ... .. . ... : ... .. . ... ... : ... .. . ... ... : ... .. . ... ... : ... .. . ... ...
ROW FA : ... .. . ... ... ... : ... .. . ... ... ... : ... .. . ... : ... .. . ... : ... .. . ... ... : ... .. . ... ... : ... .. . ... ... : ... .. . ... ...
ROW FB : ... .. . ... ... ... : ... .. . ... ... ... : ... .. . ... : ... .. . ... : ... .. . ... ... : ... .. . ... ... : ... .. . ... ... : ... .. . ... ...
ROW FC : ... .. . ... ... ... : ... .. . ... ... ... : ... .. . ... : ... .. . ... : ... .. . ... ... : ... .. . ... ... : ... .. . ... ... : ... .. . ... ...
ROW FD : ... .. . ... ... ... : ... .. . ... ... ... : ... .. . ... : ... .. . ... : ... .. . ... ... : ... .. . ... ... : ... .. . ... ... : ... .. . ... ...
ROW FE : ... .. . ... ... ... : ... .. . ... ... ... : ... .. . ... : ... .. . ... : ... .. . ... ... : ... .. . ... ... : ... .. . ... ... : ... .. . ... ...
ROW FF : ... .. . ... ... ... : ... .. . ... ... ... : ... .. . ... : ... .. . ... : ... .. . ... ... : ... .. . ... ... : ... .. . ... ... : ... .. . ... ...

# End of export
