# FamiTracker text export 0.4.2

# Song information
TITLE           "Shovel Knight OST"
AUTHOR          "Jake Kaufman"
COPYRIGHT       ""

# Song comment
COMMENT ""

# Global settings
MACHINE         0
FRAMERATE       0
EXPANSION       1
VIBRATO         1
SPLIT           21

# Macros

# DPCM samples

# Instruments
INST2A03   0    -1  -1  -1  -1  -1 "blank"
INSTVRC6   1    -1  -1  -1  -1  -1 "blank"

# Tracks

TRACK 256   1 150 "New song"
COLUMNS : 3 3 1 1 2 2 2 2

ORDER 00 : 00 00 00 00 00 00 00 00
ORDER 01 : 01 01 01 01 01 01 01 01
ORDER 02 : 02 02 02 02 02 02 02 02
ORDER 03 : 03 03 03 03 03 03 03 03
ORDER 04 : 04 04 04 04 04 04 04 04
ORDER 05 : 05 05 05 05 05 05 05 05
ORDER 06 : 06 06 06 06 06 06 06 06
ORDER 07 : 07 07 07 07 07 07 07 07
ORDER 08 : 08 08 08 08 08 08 08 08
ORDER 09 : 09 09 09 09 09 09 09 09
ORDER 0A : 0A 0A 0A 0A 0A 0A 0A 0A
ORDER 0B : 0B 0B 0B 0B 0B 0B 0B 0B
ORDER 0C : 0C 0C 0C 0C 0C 0C 0C 0C
ORDER 0D : 0D 0D 0D 0D 0D 0D 0D 0D
ORDER 0E : 0E 0E 0E 0E 0E 0E 0E 0E
ORDER 0F : 0F 0F 0F 0F 0F 0F 0F 0F
ORDER 10 : 10 10 10 10 10 10 10 10
ORDER 11 : 11 11 11 11 11 11 11 11
ORDER 12 : 12 12 12 12 12 12 12 12
ORDER 13 : 13 13 13 13 13 13 13 13
ORDER 14 : 14 14 14 14 14 14 14 14
ORDER 15 : 15 15 15 15 15 15 15 15
ORDER 16 : 16 16 16 16 16 16 16 16
ORDER 17 : 17 17 17 17 17 17 17 17
ORDER 18 : 18 18 18 18 18 18 18 18
ORDER 19 : 19 19 19 19 19 19 19 19
ORDER 1A : 1A 1A 1A 1A 1A 1A 1A 1A
ORDER 1B : 1B 1B 1B 1B 1B 1B 1B 1B
ORDER 1C : 1C 1C 1C 1C 1C 1C 1C 1C

PATTERN 00
ROW 00 : D#3 00 8 P80 V00 ... : D#3 00 A P80 V00 ... : A#2 00 . P82 : 1-# 00 F V00 : === 00 . Z00 ... : E-3 01 6 P80 V05 : G-4 01 6 P80 V05 : --- .. 0 P80 V00
ROW 01 : ... .. 7 ... ... ... : ... .. 9 ... ... ... : G#2 00 . P8B : ... .. C ... : ... .. . ... ... : ... .. 5 ... ... : ... .. 5 ... ... : ... .. . ... ...
ROW 02 : ... .. . ... ... ... : ... .. 8 ... ... ... : G-2 00 . P79 : ... .. 6 ... : ... .. . ... ... : ... .. . ... ... : ... .. . ... ... : ... .. . ... ...
ROW 03 : ... .. 6 ... ... ... : ... .. 6 ... ... ... : F-2 00 . P8D : ... .. 3 ... : ... .. . ... ... : ... .. . ... ... : ... .. . ... ... : ... .. . ... ...
ROW 04 : ... .. 5 ... ... ... : ... .. . ... ... ... : E-2 00 . P81 : ... .. 2 ... : ... .. . ... ... : ... .. 4 ... ... : ... .. 4 ... ... : ... .. . ... ...
ROW 05 : ... .. 4 ... ... ... : ... .. . ... ... ... : D#2 00 . P77 : ... .. 0 ... : ... .. . ... ... : ... .. . ... ... : ... .. . ... ... : ... .. . ... ...
ROW 06 : ... .. . ... ... ... : ... .. . ... ... ... : D-2 00 . P70 : ... .. . ... : ... .. . ... ... : ... .. . ... ... : ... .. . ... ... : ... .. . ... ...
ROW 07 : ... .. . ... ... ... : ... .. . ... ... ... : C#2 00 . P6B : ... .. . ... : ... .. . ... ... : ... .. 3 ... ... : ... .. 3 ... ... : ... .. . ... ...
ROW 08 : C#3 00 8 ... ... ... : ... .. . ... ... ... : C#3 00 . P80 : E-# 00 F ... : ... .. . ... ... : ... .. . ... ... : ... .. . ... ... : ... .. . ... ...
ROW 09 : ... .. 7 ... ... ... : ... .. . ... ... ... : ... .. . ... : ... .. C ... : ... .. . ... ... : ... .. . ... ... : ... .. . ... ... : ... .. . ... ...
ROW 0A : ... .. . ... ... ... : ... .. . ... ... ... : ... .. . ... : ... .. 6 ... : ... .. . ... ... : ... .. . ... ... : ... .. . ... ... : ... .. . ... ...
ROW 0B : ... .. 6 ... ... ... : ... .. . ... ... ... : ... .. . ... : ... .. 3 ... : ... .. . ... ... : ... .. . ... ... : ... .. . ... ... : ... .. . ... ...
ROW 0C : ... .. 5 ... ... ... : ... .. . ... ... ... : ... .. . ... : ... .. 2 ... : ... .. . ... ... : ... .. . ... ... : ... .. . ... ... : ... .. . ... ...
ROW 0D : ... .. 4 ... ... ... : ... .. . ... ... ... : ... .. . ... : ... .. 0 ... : ... .. . ... ... : ... .. . ... ... : ... .. . ... ... : ... .. . ... ...
ROW 0E : ... .. . ... ... ... : ... .. . ... ... ... : ... .. . ... : ... .. . ... : ... .. . ... ... : ... .. . ... ... : ... .. . ... ... : ... .. . ... ...
ROW 0F : ... .. . ... ... ... : ... .. . ... ... ... : ... .. . ... : ... .. . ... : ... .. . ... ... : ... .. . ... ... : ... .. . ... ... : ... .. . ... ...
ROW 10 : E-3 00 8 ... ... ... : ... .. 5 ... ... ... : B-3 00 . P7D : 5-# 00 F ... : ... .. . ... ... : ... .. . ... ... : ... .. . ... ... : G#2 01 F ... ...
ROW 11 : ... .. 7 ... ... ... : ... .. . ... ... ... : A#3 00 . P7C : ... .. C ... : ... .. . ... ... : ... .. . ... ... : ... .. . ... ... : ... .. D ... ...
ROW 12 : ... .. . ... ... ... : ... .. . ... ... ... : A-3 00 . P7B : ... .. 6 ... : ... .. . ... ... : ... .. . ... ... : ... .. . ... ... : ... .. 8 ... ...
ROW 13 : ... .. 6 ... ... ... : ... .. . ... ... ... : G#3 00 . ... : ... .. 3 ... : ... .. . ... ... : ... .. . ... ... : ... .. . ... ... : ... .. . ... ...
ROW 14 : ... .. 5 ... ... ... : ... .. . ... ... ... : G-3 00 . P7C : ... .. 2 ... : ... .. . ... ... : ... .. . ... ... : ... .. . ... ... : ... .. . ... ...
ROW 15 : ... .. 4 ... ... ... : ... .. . ... ... ... : F#3 00 . P7E : ... .. 0 ... : ... .. . ... ... : ... .. . ... ... : ... .. . ... ... : ... .. . ... ...
ROW 16 : ... .. . ... ... ... : ... .. . ... ... ... : F-3 00 . P81 : ... .. . ... : ... .. . ... ... : ... .. . ... ... : ... .. . ... ... : ... .. . ... ...
ROW 17 : ... .. . ... ... ... : ... .. . ... ... ... : E-3 00 . P85 : ... .. . ... : ... .. . ... ... : ... .. . ... ... : ... .. . ... ... : ... .. . ... ...
ROW 18 : G-3 00 8 ... ... ... : ... .. . ... ... ... : C#3 00 . P80 : E-# 00 F ... : ... .. . ... ... : ... .. . ... ... : ... .. . ... ... : ... .. . ... ...
ROW 19 : ... .. 7 ... ... ... : ... .. . ... ... ... : ... .. . ... : ... .. C ... : ... .. . ... ... : ... .. . ... ... : ... .. . ... ... : ... .. . ... ...
ROW 1A : ... .. . ... ... ... : ... .. . ... ... ... : ... .. . ... : ... .. 6 ... : ... .. . ... ... : ... .. . ... ... : ... .. . ... ... : ... .. . ... ...
ROW 1B : ... .. 6 ... ... ... : ... .. . ... ... ... : ... .. . ... : ... .. 3 ... : ... .. . ... ... : ... .. . ... ... : ... .. . ... ... : ... .. . ... ...
ROW 1C : ... .. 5 ... ... ... : ... .. 4 ... ... ... : ... .. . ... : ... .. 2 ... : ... .. . ... ... : ... .. 2 ... ... : ... .. 2 ... ... : ... .. . ... ...
ROW 1D : ... .. 4 ... ... ... : ... .. . ... ... ... : ... .. . ... : ... .. 0 ... : ... .. . ... ... : ... .. . ... ... : ... .. . ... ... : ... .. 4 ... ...
ROW 1E : ... .. . ... ... ... : ... .. . ... ... ... : ... .. . ... : ... .. . ... : ... .. . ... ... : ... .. . ... ... : ... .. . ... ... : ... .. . ... ...
ROW 1F : ... .. . ... ... ... : ... .. . ... ... ... : ... .. . ... : ... .. . ... : ... .. . ... ... : ... .. . ... ... : ... .. . ... ... : ... .. 1 ... ...
ROW 20 : D#3 00 8 ... ... ... : ... .. . ... ... ... : B-2 00 . ... : ... .. F ... : ... .. . ... ... : ... .. . ... ... : ... .. . ... ... : E-3 01 F ... ...
ROW 21 : ... .. 7 ... ... ... : ... .. . ... ... ... : ... .. . ... : ... .. C ... : ... .. . ... ... : ... .. . ... ... : ... .. . ... ... : ... .. D ... ...
ROW 22 : ... .. . ... ... ... : ... .. . ... ... ... : ... .. . ... : ... .. 6 ... : ... .. . ... ... : ... .. . ... ... : ... .. . ... ... : ... .. 8 ... ...
ROW 23 : ... .. 6 ... ... ... : ... .. . ... ... ... : ... .. . ... : ... .. 3 ... : ... .. . ... ... : ... .. . ... ... : ... .. . ... ... : ... .. . ... ...
ROW 24 : ... .. 5 ... ... ... : ... .. . ... ... ... : ... .. . ... : ... .. 2 ... : ... .. . ... ... : ... .. . ... ... : ... .. . ... ... : ... .. . ... ...
ROW 25 : ... .. 4 ... ... ... : ... .. . ... ... ... : ... .. . ... : ... .. 0 ... : ... .. . ... ... : ... .. . ... ... : ... .. . ... ... : ... .. . ... ...
ROW 26 : ... .. . ... ... ... : ... .. . ... ... ... : ... .. . ... : ... .. . ... : ... .. . ... ... : ... .. . ... ... : ... .. . ... ... : ... .. . ... ...
ROW 27 : ... .. . ... ... ... : ... .. . ... ... ... : ... .. . ... : ... .. . ... : ... .. . ... ... : ... .. . ... ... : ... .. . ... ... : ... .. . ... ...
ROW 28 : C#3 00 8 ... ... ... : ... .. . ... ... ... : C#3 00 . ... : ... .. F ... : ... .. . ... ... : ... .. . ... ... : ... .. . ... ... : D#3 01 F ... ...
ROW 29 : ... .. 7 ... ... ... : ... .. . ... ... ... : ... .. . ... : ... .. C ... : ... .. . ... ... : ... .. . ... ... : ... .. . ... ... : ... .. D ... ...
ROW 2A : ... .. . ... ... ... : ... .. . ... ... ... : ... .. . ... : ... .. 6 ... : ... .. . ... ... : ... .. . ... ... : ... .. . ... ... : ... .. 8 ... ...
ROW 2B : ... .. 6 ... ... ... : ... .. . ... ... ... : ... .. . ... : ... .. 3 ... : ... .. . ... ... : ... .. . ... ... : ... .. . ... ... : ... .. . ... ...
ROW 2C : ... .. 5 ... ... ... : ... .. . ... ... ... : ... .. . ... : ... .. 2 ... : ... .. . ... ... : ... .. . ... ... : ... .. . ... ... : ... .. . ... ...
ROW 2D : ... .. 4 ... ... ... : ... .. . ... ... ... : ... .. . ... : ... .. 0 ... : ... .. . ... ... : ... .. . ... ... : ... .. . ... ... : ... .. . ... ...
ROW 2E : ... .. . ... ... ... : ... .. . ... ... ... : ... .. . ... : ... .. . ... : ... .. . ... ... : ... .. . ... ... : ... .. . ... ... : ... .. . ... ...
ROW 2F : ... .. . ... ... ... : ... .. . ... ... ... : ... .. . ... : ... .. . ... : ... .. . ... ... : ... .. . ... ... : ... .. . ... ... : ... .. . ... ...
ROW 30 : E-3 00 8 ... ... ... : ... .. . ... ... ... : B-3 00 . P7D : 5-# 00 F ... : ... .. . ... ... : ... .. . ... ... : ... .. . ... ... : E-3 01 F ... ...
ROW 31 : ... .. 7 ... ... ... : ... .. . ... ... ... : A#3 00 . P7C : ... .. C ... : ... .. . ... ... : ... .. . ... ... : ... .. . ... ... : ... .. D ... ...
ROW 32 : ... .. . ... ... ... : ... .. . ... ... ... : A-3 00 . P7B : ... .. 6 ... : ... .. . ... ... : ... .. . ... ... : ... .. . ... ... : ... .. 8 ... ...
ROW 33 : ... .. 6 ... ... ... : ... .. . ... ... ... : G#3 00 . ... : ... .. 3 ... : ... .. . ... ... : ... .. . ... ... : ... .. . ... ... : ... .. . ... ...
ROW 34 : ... .. 5 ... ... ... : ... .. 3 ... ... ... : G-3 00 . P7C : ... .. 2 ... : ... .. . ... ... : ... .. . ... ... : ... .. . ... ... : ... .. . ... ...
ROW 35 : ... .. 4 ... ... ... : ... .. . ... ... ... : F#3 00 . P7E : ... .. 0 ... : ... .. . ... ... : ... .. . ... ... : ... .. . ... ... : ... .. . ... ...
ROW 36 : ... .. . ... ... ... : ... .. . ... ... ... : F-3 00 . P81 : ... .. . ... : ... .. . ... ... : ... .. . ... ... : ... .. . ... ... : ... .. . ... ...
ROW 37 : ... .. . ... ... ... : ... .. . ... ... ... : E-3 00 . P85 : ... .. . ... : ... .. . ... ... : ... .. . ... ... : ... .. . ... ... : ... .. . ... ...
ROW 38 : G-3 00 8 ... ... ... : ... .. . ... ... ... : C#3 00 . P80 : E-# 00 F ... : ... .. . ... ... : ... .. . ... ... : ... .. . ... ... : G#2 01 F ... ...
ROW 39 : ... .. 7 ... ... ... : ... .. . ... ... ... : ... .. . ... : ... .. C ... : ... .. . ... ... : ... .. . ... ... : ... .. . ... ... : ... .. D ... ...
ROW 3A : ... .. . ... ... ... : ... .. . ... ... ... : ... .. . ... : ... .. 6 ... : ... .. . ... ... : ... .. . ... ... : ... .. . ... ... : ... .. 8 ... ...
ROW 3B : ... .. 6 ... ... ... : ... .. . ... ... ... : ... .. . ... : ... .. 3 ... : ... .. . ... ... : ... .. . ... ... : ... .. . ... ... : ... .. . ... ...
ROW 3C : ... .. 5 ... ... ... : ... .. . ... ... ... : ... .. . ... : ... .. 2 ... : ... .. . ... ... : ... .. . ... ... : ... .. . ... ... : ... .. . ... ...
ROW 3D : ... .. 4 ... ... ... : ... .. . ... ... ... : ... .. . ... : ... .. 0 ... : ... .. . ... ... : ... .. . ... ... : ... .. . ... ... : ... .. . ... ...
ROW 3E : ... .. . ... ... ... : ... .. . ... ... ... : ... .. . ... : ... .. . ... : ... .. . ... ... : ... .. . ... ... : ... .. . ... ... : ... .. . ... ...
ROW 3F : ... .. . ... ... ... : ... .. . ... ... ... : ... .. . ... : ... .. . ... : ... .. . ... ... : ... .. . ... ... : ... .. . ... ... : ... .. . ... ...
ROW 40 : D#3 00 8 ... ... ... : C#3 00 5 ... ... ... : ... .. . ... : ... .. F ... : ... .. . ... ... : E-2 01 3 ... ... : G#4 01 3 ... ... : ... .. . ... ...
ROW 41 : ... .. 7 ... ... ... : ... .. 4 ... ... ... : ... .. . ... : ... .. C ... : ... .. . ... ... : ... .. 2 ... ... : ... .. 2 ... ... : ... .. . ... ...
ROW 42 : ... .. . ... ... ... : ... .. . ... ... ... : ... .. . ... : ... .. 6 ... : ... .. . ... ... : ... .. . ... ... : ... .. . ... ... : ... .. . ... ...
ROW 43 : ... .. 6 ... ... ... : ... .. 3 ... ... ... : ... .. . ... : ... .. 3 ... : ... .. . ... ... : ... .. . ... ... : ... .. . ... ... : ... .. . ... ...
ROW 44 : ... .. 5 ... ... ... : ... .. . ... ... ... : ... .. . ... : ... .. 2 ... : ... .. . ... ... : ... .. . ... ... : ... .. . ... ... : ... .. . ... ...
ROW 45 : ... .. 4 ... ... ... : ... .. . ... ... ... : ... .. . ... : ... .. 0 ... : ... .. . ... ... : ... .. . ... ... : ... .. . ... ... : ... .. . ... ...
ROW 46 : ... .. . ... ... ... : ... .. . ... ... ... : ... .. . ... : ... .. . ... : ... .. . ... ... : ... .. . ... ... : ... .. . ... ... : ... .. . ... ...
ROW 47 : ... .. . ... ... ... : ... .. . ... ... ... : ... .. . ... : ... .. . ... : ... .. . ... ... : ... .. . ... ... : ... .. . ... ... : ... .. . ... ...
ROW 48 : C#3 00 8 ... ... ... : ... .. 4 ... ... ... : C#2 00 . ... : ... .. F ... : ... .. . ... ... : ... .. . ... ... : ... .. . ... ... : ... .. . ... ...
ROW 49 : ... .. 7 ... ... ... : ... .. . ... ... ... : ... .. . ... : ... .. C ... : ... .. . ... ... : ... .. . ... ... : ... .. . ... ... : ... .. . ... ...
ROW 4A : ... .. . ... ... ... : ... .. . ... ... ... : ... .. . ... : ... .. 6 ... : ... .. . ... ... : ... .. . ... ... : ... .. . ... ... : ... .. . ... ...
ROW 4B : ... .. 6 ... ... ... : ... .. . ... ... ... : ... .. . ... : ... .. 3 ... : ... .. . ... ... : ... .. . ... ... : ... .. . ... ... : ... .. . ... ...
ROW 4C : ... .. 5 ... ... ... : ... .. . ... ... ... : ... .. . ... : ... .. 2 ... : ... .. . ... ... : ... .. . ... ... : ... .. . ... ... : ... .. . ... ...
ROW 4D : ... .. 4 ... ... ... : ... .. . ... ... ... : ... .. . ... : ... .. 0 ... : ... .. . ... ... : ... .. . ... ... : ... .. . ... ... : ... .. . ... ...
ROW 4E : ... .. . ... ... ... : ... .. . ... ... ... : ... .. . ... : ... .. . ... : ... .. . ... ... : ... .. . ... ... : ... .. . ... ... : ... .. . ... ...
ROW 4F : ... .. . ... ... ... : ... .. . ... ... ... : ... .. . ... : ... .. . ... : ... .. . ... ... : ... .. . ... ... : ... .. . ... ... : ... .. . ... ...
ROW 50 : E-3 00 8 ... ... ... : ... .. . ... ... ... : B-3 00 . P7D : 5-# 00 F ... : ... .. . ... ... : ... .. . ... ... : ... .. . ... ... : ... .. . ... ...
ROW 51 : ... .. 7 ... ... ... : ... .. . ... ... ... : A#3 00 . P7C : ... .. C ... : ... .. . ... ... : ... .. . ... ... : ... .. . ... ... : ... .. . ... ...
ROW 52 : ... .. . ... ... ... : ... .. . ... ... ... : A-3 00 . P7B : ... .. 6 ... : ... .. . ... ... : ... .. . ... ... : ... .. . ... ... : ... .. . ... ...
ROW 53 : ... .. 6 ... ... ... : ... .. . ... ... ... : G#3 00 . ... : ... .. 3 ... : ... .. . ... ... : ... .. . ... ... : ... .. . ... ... : ... .. . ... ...
ROW 54 : ... .. 5 ... ... ... : ... .. . ... ... ... : G-3 00 . P7C : ... .. 2 ... : ... .. . ... ... : ... .. . ... ... : ... .. . ... ... : ... .. . ... ...
ROW 55 : ... .. 4 ... ... ... : ... .. . ... ... ... : F#3 00 . P7E : ... .. 0 ... : ... .. . ... ... : ... .. . ... ... : ... .. . ... ... : ... .. . ... ...
ROW 56 : ... .. . ... ... ... : ... .. . ... ... ... : F-3 00 . P81 : ... .. . ... : ... .. . ... ... : ... .. . ... ... : ... .. . ... ... : ... .. . ... ...
ROW 57 : ... .. . ... ... ... : ... .. . ... ... ... : E-3 00 . P85 : ... .. . ... : ... .. . ... ... : ... .. . ... ... : ... .. . ... ... : ... .. . ... ...
ROW 58 : G#3 00 8 ... ... ... : ... .. . ... ... ... : C#3 00 . P80 : E-# 00 F ... : ... .. . ... ... : ... .. . ... ... : ... .. . ... ... : ... .. . P84 ...
ROW 59 : ... .. 7 ... ... ... : ... .. . ... ... ... : ... .. . ... : ... .. C ... : ... .. . ... ... : ... .. . ... ... : ... .. . ... ... : ... .. . P86 ...
ROW 5A : ... .. . ... ... ... : ... .. . ... ... ... : ... .. . ... : ... .. 6 ... : ... .. . ... ... : ... .. . ... ... : ... .. . ... ... : ... .. . P85 ...
ROW 5B : ... .. 6 ... ... ... : ... .. . ... ... ... : ... .. . ... : ... .. 3 ... : ... .. . ... ... : ... .. . ... ... : ... .. . ... ... : ... .. . P82 ...
ROW 5C : ... .. 5 ... ... ... : ... .. . ... ... ... : ... .. . ... : ... .. 2 ... : ... .. . ... ... : ... .. . ... ... : ... .. . ... ... : ... .. . P7E ...
ROW 5D : ... .. 4 ... ... ... : ... .. . ... ... ... : ... .. . ... : ... .. 0 ... : ... .. . ... ... : ... .. . ... ... : ... .. . ... ... : ... .. . P7B ...
ROW 5E : ... .. . ... ... ... : ... .. . ... ... ... : ... .. . ... : ... .. . ... : ... .. . ... ... : ... .. . ... ... : ... .. . ... ... : ... .. . P7A ...
ROW 5F : ... .. . ... ... ... : ... .. . ... ... ... : ... .. . ... : ... .. . ... : ... .. . ... ... : ... .. . ... ... : ... .. . ... ... : ... .. . P7C ...
ROW 60 : D#3 00 8 ... ... ... : ... .. . ... ... ... : B-2 00 . ... : ... .. F ... : ... .. . ... ... : C#3 01 4 ... ... : ... .. . ... ... : ... .. . P80 ...
ROW 61 : ... .. 7 ... ... ... : ... .. . ... ... ... : ... .. . ... : ... .. C ... : ... .. . ... ... : ... .. 3 ... ... : ... .. . ... ... : ... .. . P83 ...
ROW 62 : ... .. . ... ... ... : ... .. . ... ... ... : ... .. . ... : ... .. 6 ... : ... .. . ... ... : ... .. . ... ... : ... .. . ... ... : ... .. . P86 ...
ROW 63 : ... .. 6 ... ... ... : ... .. . ... ... ... : ... .. . ... : ... .. 3 ... : ... .. . ... ... : ... .. . ... ... : ... .. . ... ... : ... .. . ... ...
ROW 64 : ... .. 5 ... ... ... : ... .. 5 ... ... ... : ... .. . ... : ... .. 2 ... : ... .. . ... ... : ... .. . ... ... : ... .. 3 ... ... : ... .. . P82 ...
ROW 65 : ... .. 4 ... ... ... : ... .. . ... ... ... : ... .. . ... : ... .. 0 ... : ... .. . ... ... : ... .. . ... ... : ... .. . ... ... : ... .. . P7F ...
ROW 66 : ... .. . ... ... ... : ... .. . ... ... ... : ... .. . ... : ... .. . ... : ... .. . ... ... : ... .. . ... ... : ... .. . ... ... : ... .. . P7B ...
ROW 67 : ... .. . ... ... ... : ... .. . ... ... ... : ... .. . ... : ... .. . ... : ... .. . ... ... : ... .. . ... ... : ... .. . ... ... : ... .. . P7A ...
ROW 68 : C#3 00 8 ... ... ... : ... .. . ... ... ... : A#2 00 . P82 : 1-# 00 F ... : ... .. . ... ... : ... .. . ... ... : ... .. . ... ... : ... .. . P7C ...
ROW 69 : ... .. 7 ... ... ... : ... .. . ... ... ... : G#2 00 . P8B : ... .. C ... : ... .. . ... ... : ... .. . ... ... : ... .. . ... ... : ... .. . P80 ...
ROW 6A : ... .. . ... ... ... : ... .. . ... ... ... : G-2 00 . P79 : ... .. 6 ... : ... .. . ... ... : ... .. . ... ... : ... .. . ... ... : ... .. . P83 ...
ROW 6B : ... .. 6 ... ... ... : ... .. . ... ... ... : F-2 00 . P8D : ... .. 3 ... : ... .. . ... ... : ... .. . ... ... : ... .. . ... ... : ... .. . P86 ...
ROW 6C : ... .. 5 ... ... ... : ... .. . ... ... ... : E-2 00 . P81 : ... .. 2 ... : ... .. . ... ... : ... .. . ... ... : ... .. . ... ... : ... .. . ... ...
ROW 6D : ... .. 4 ... ... ... : ... .. . ... ... ... : D#2 00 . P77 : ... .. 0 ... : ... .. . ... ... : ... .. . ... ... : ... .. . ... ... : ... .. . P83 ...
ROW 6E : ... .. . ... ... ... : ... .. . ... ... ... : D-2 00 . P70 : ... .. . ... : ... .. . ... ... : ... .. . ... ... : ... .. . ... ... : ... .. . P80 ...
ROW 6F : ... .. . ... ... ... : ... .. . ... ... ... : C#2 00 . P6B : ... .. . ... : ... .. . ... ... : ... .. . ... ... : ... .. . ... ... : ... .. . P7C ...
ROW 70 : E-3 00 8 ... ... ... : ... .. . ... ... ... : B-3 00 . P7D : 5-# 00 F ... : ... .. . ... ... : ... .. . ... ... : ... .. . ... ... : ... .. . P7A ...
ROW 71 : ... .. 7 ... ... ... : ... .. . ... ... ... : A#3 00 . P7C : ... .. C ... : ... .. . ... ... : ... .. . ... ... : ... .. . ... ... : ... .. 4 P7B ...
ROW 72 : ... .. . ... ... ... : ... .. . ... ... ... : A-3 00 . P7B : ... .. 6 ... : ... .. . ... ... : ... .. . ... ... : ... .. . ... ... : ... .. . P7F ...
ROW 73 : ... .. 6 ... ... ... : ... .. . ... ... ... : G#3 00 . ... : ... .. 3 ... : ... .. . ... ... : ... .. . ... ... : ... .. . ... ... : ... .. 1 P82 ...
ROW 74 : ... .. 5 ... ... ... : ... .. 6 ... ... ... : G-3 00 . P7C : ... .. 2 ... : ... .. . ... ... : ... .. . ... ... : ... .. . ... ... : ... .. . P86 ...
ROW 75 : ... .. 4 ... ... ... : ... .. . ... ... ... : F#3 00 . P7E : ... .. 0 ... : ... .. . ... ... : ... .. . ... ... : ... .. . ... ... : ... .. . ... ...
ROW 76 : ... .. . ... ... ... : ... .. . ... ... ... : F-3 00 . P81 : ... .. . ... : ... .. . ... ... : ... .. . ... ... : ... .. . ... ... : ... .. . P83 ...
ROW 77 : ... .. . ... ... ... : ... .. . ... ... ... : E-3 00 . P85 : ... .. . ... : ... .. . ... ... : ... .. . ... ... : ... .. . ... ... : ... .. . P80 ...
ROW 78 : G#3 00 8 ... ... ... : ... .. . ... ... ... : C#3 00 . P80 : E-# 00 F ... : ... .. . ... ... : ... .. . ... ... : ... .. . ... ... : ... .. . P7C ...
ROW 79 : ... .. 7 ... ... ... : ... .. . ... ... ... : ... .. . ... : ... .. C ... : ... .. . ... ... : ... .. . ... ... : ... .. . ... ... : ... .. . P7A ...
ROW 7A : ... .. . ... ... ... : ... .. . ... ... ... : ... .. . ... : ... .. 6 ... : ... .. . ... ... : ... .. . ... ... : ... .. . ... ... : ... .. 0 P7B ...
ROW 7B : ... .. 6 ... ... ... : ... .. . ... ... ... : ... .. . ... : ... .. 3 ... : ... .. . ... ... : ... .. . ... ... : ... .. . ... ... : ... .. . P7E ...
ROW 7C : ... .. 5 ... ... ... : ... .. . ... ... ... : ... .. . ... : ... .. 2 ... : ... .. . ... ... : ... .. . ... ... : ... .. . ... ... : ... .. . P82 ...
ROW 7D : ... .. 4 ... ... ... : ... .. . ... ... ... : ... .. . ... : ... .. 0 ... : ... .. . ... ... : ... .. . ... ... : ... .. . ... ... : ... .. . P85 ...
ROW 7E : ... .. . ... ... ... : ... .. . ... ... ... : ... .. . ... : ... .. . ... : ... .. . ... ... : ... .. . ... ... : ... .. . ... ... : ... .. . P86 ...
ROW 7F : ... .. . ... ... ... : ... .. . ... ... ... : ... .. . ... : ... .. . ... : ... .. . ... ... : ... .. . ... ... : ... .. . ... ... : ... .. . P84 ...
ROW 80 : D#3 00 8 ... ... ... : G-3 00 A ... ... ... : A#2 00 . P82 : 1-# 00 F ... : ... .. . ... ... : D#3 01 6 ... ... : A#4 01 6 ... ... : ... .. . P80 ...
ROW 81 : ... .. 7 ... ... ... : ... .. 9 ... ... ... : G#2 00 . P8B : ... .. C ... : ... .. . ... ... : ... .. 5 ... ... : ... .. 5 ... ... : ... .. . P7D ...
ROW 82 : ... .. . ... ... ... : ... .. 8 ... ... ... : G-2 00 . P79 : ... .. 6 ... : ... .. . ... ... : ... .. . ... ... : ... .. . ... ... : ... .. . P7A ...
ROW 83 : ... .. 6 ... ... ... : ... .. 6 ... ... ... : F-2 00 . P8D : ... .. 3 ... : ... .. . ... ... : ... .. . ... ... : ... .. . ... ... : ... .. . ... ...
ROW 84 : ... .. 5 ... ... ... : ... .. . ... ... ... : E-2 00 . P81 : ... .. 2 ... : ... .. . ... ... : ... .. 4 ... ... : ... .. 4 ... ... : ... .. . P7E ...
ROW 85 : ... .. 4 ... ... ... : ... .. . ... ... ... : D#2 00 . P77 : ... .. 0 ... : ... .. . ... ... : ... .. . ... ... : ... .. . ... ... : ... .. . P81 ...
ROW 86 : ... .. . ... ... ... : ... .. . ... ... ... : D-2 00 . P70 : ... .. . ... : ... .. . ... ... : ... .. . ... ... : ... .. . ... ... : ... .. . P85 ...
ROW 87 : ... .. . ... ... ... : ... .. . ... ... ... : C#2 00 . P6B : ... .. . ... : ... .. . ... ... : ... .. 3 ... ... : ... .. 3 ... ... : ... .. . P86 ...
ROW 88 : C#3 00 8 ... ... ... : ... .. . ... ... ... : ... .. . P80 : E-# 00 F ... : ... .. . ... ... : ... .. . ... ... : ... .. . ... ... : ... .. . P84 ...
ROW 89 : ... .. 7 ... ... ... : ... .. . ... ... ... : ... .. . ... : ... .. C ... : ... .. . ... ... : ... .. . ... ... : ... .. . ... ... : ... .. . P80 ...
ROW 8A : ... .. . ... ... ... : ... .. . ... ... ... : ... .. . ... : ... .. 6 ... : ... .. . ... ... : ... .. . ... ... : ... .. . ... ... : ... .. . P7D ...
ROW 8B : ... .. 6 ... ... ... : ... .. . ... ... ... : ... .. . ... : ... .. 3 ... : ... .. . ... ... : ... .. . ... ... : ... .. . ... ... : ... .. . P7A ...
ROW 8C : ... .. 5 ... ... ... : ... .. . ... ... ... : ... .. . ... : ... .. 2 ... : ... .. . ... ... : ... .. . ... ... : ... .. . ... ... : ... .. . ... ...
ROW 8D : ... .. 4 ... ... ... : ... .. . ... ... ... : ... .. . ... : ... .. 0 ... : ... .. . ... ... : ... .. . ... ... : ... .. . ... ... : ... .. . P7D ...
ROW 8E : ... .. . ... ... ... : ... .. . ... ... ... : ... .. . ... : ... .. . ... : ... .. . ... ... : ... .. . ... ... : ... .. . ... ... : ... .. . P80 ...
ROW 8F : ... .. . ... ... ... : ... .. . ... ... ... : ... .. . ... : ... .. . ... : ... .. . ... ... : ... .. . ... ... : ... .. . ... ... : ... .. . P84 ...
ROW 90 : E-3 00 8 ... ... ... : ... .. . ... ... ... : B-3 00 . P7D : 5-# 00 F ... : ... .. . ... ... : ... .. . ... ... : ... .. . ... ... : A#2 01 F P80 ...
ROW 91 : ... .. 7 ... ... ... : ... .. . ... ... ... : A#3 00 . P7C : ... .. C ... : ... .. . ... ... : ... .. . ... ... : ... .. . ... ... : ... .. D ... ...
ROW 92 : ... .. . ... ... ... : ... .. . ... ... ... : A-3 00 . P7B : ... .. 6 ... : ... .. . ... ... : ... .. . ... ... : ... .. . ... ... : ... .. 8 ... ...
ROW 93 : ... .. 6 ... ... ... : ... .. . ... ... ... : G#3 00 . ... : ... .. 3 ... : ... .. . ... ... : ... .. . ... ... : ... .. . ... ... : ... .. . ... ...
ROW 94 : ... .. 5 ... ... ... : ... .. 5 ... ... ... : G-3 00 . P7C : ... .. 2 ... : ... .. . ... ... : ... .. . ... ... : ... .. . ... ... : ... .. . ... ...
ROW 95 : ... .. 4 ... ... ... : ... .. . ... ... ... : F#3 00 . P7E : ... .. 0 ... : ... .. . ... ... : ... .. . ... ... : ... .. . ... ... : ... .. . ... ...
ROW 96 : ... .. . ... ... ... : ... .. . ... ... ... : F-3 00 . P81 : ... .. . ... : ... .. . ... ... : ... .. . ... ... : ... .. . ... ... : ... .. . ... ...
ROW 97 : ... .. . ... ... ... : ... .. . ... ... ... : E-3 00 . P85 : ... .. . ... : ... .. . ... ... : ... .. . ... ... : ... .. . ... ... : ... .. . ... ...
ROW 98 : G-3 00 8 ... ... ... : ... .. . ... ... ... : C#3 00 . P80 : E-# 00 F ... : ... .. . ... ... : ... .. . ... ... : ... .. . ... ... : ... .. . ... ...
ROW 99 : ... .. 7 ... ... ... : ... .. . ... ... ... : ... .. . ... : ... .. C ... : ... .. . ... ... : ... .. . ... ... : ... .. . ... ... : ... .. . ... ...
ROW 9A : ... .. . ... ... ... : ... .. . ... ... ... : ... .. . ... : ... .. 6 ... : ... .. . ... ... : ... .. . ... ... : ... .. . ... ... : ... .. . ... ...
ROW 9B : ... .. 6 ... ... ... : ... .. . ... ... ... : ... .. . ... : ... .. 3 ... : ... .. . ... ... : ... .. . ... ... : ... .. . ... ... : ... .. . ... ...
ROW 9C : ... .. 5 ... ... ... : ... .. . ... ... ... : ... .. . ... : ... .. 2 ... : ... .. . ... ... : ... .. . ... ... : ... .. . ... ... : ... .. . ... ...
ROW 9D : ... .. 4 ... ... ... : ... .. . ... ... ... : ... .. . ... : ... .. 0 ... : ... .. . ... ... : ... .. . ... ... : ... .. . ... ... : ... .. 4 ... ...
ROW 9E : ... .. . ... ... ... : ... .. . ... ... ... : ... .. . ... : ... .. . ... : ... .. . ... ... : ... .. . ... ... : ... .. . ... ... : ... .. . ... ...
ROW 9F : ... .. . ... ... ... : ... .. . ... ... ... : ... .. . ... : ... .. . ... : ... .. . ... ... : ... .. . ... ... : ... .. . ... ... : ... .. 1 ... ...
ROW A0 : D#3 00 8 ... ... ... : ... .. . ... ... ... : B-2 00 . ... : ... .. F ... : ... .. . ... ... : ... .. . ... ... : ... .. . ... ... : D#3 01 F ... ...
ROW A1 : ... .. 7 ... ... ... : ... .. . ... ... ... : ... .. . ... : ... .. C ... : ... .. . ... ... : ... .. . ... ... : ... .. . ... ... : ... .. D ... ...
ROW A2 : ... .. . ... ... ... : ... .. . ... ... ... : ... .. . ... : ... .. 6 ... : ... .. . ... ... : ... .. . ... ... : ... .. . ... ... : ... .. 8 ... ...
ROW A3 : ... .. 6 ... ... ... : ... .. . ... ... ... : ... .. . ... : ... .. 3 ... : ... .. . ... ... : ... .. . ... ... : ... .. . ... ... : ... .. . ... ...
ROW A4 : ... .. 5 ... ... ... : ... .. 4 ... ... ... : ... .. . ... : ... .. 2 ... : ... .. . ... ... : ... .. 2 ... ... : ... .. 2 ... ... : ... .. . ... ...
ROW A5 : ... .. 4 ... ... ... : ... .. . ... ... ... : ... .. . ... : ... .. 0 ... : ... .. . ... ... : ... .. . ... ... : ... .. . ... ... : ... .. . ... ...
ROW A6 : ... .. . ... ... ... : ... .. . ... ... ... : ... .. . ... : ... .. . ... : ... .. . ... ... : ... .. . ... ... : ... .. . ... ... : ... .. . ... ...
ROW A7 : ... .. . ... ... ... : ... .. . ... ... ... : ... .. . ... : ... .. . ... : ... .. . ... ... : ... .. . ... ... : ... .. . ... ... : ... .. . ... ...
ROW A8 : C#3 00 8 ... ... ... : ... .. . ... ... ... : C#3 00 . ... : ... .. F ... : ... .. . ... ... : ... .. . ... ... : ... .. . ... ... : C#3 01 F ... ...
ROW A9 : ... .. 7 ... ... ... : ... .. . ... ... ... : ... .. . ... : ... .. C ... : ... .. . ... ... : ... .. . ... ... : ... .. . ... ... : ... .. D ... ...
ROW AA : ... .. . ... ... ... : ... .. . ... ... ... : ... .. . ... : ... .. 6 ... : ... .. . ... ... : ... .. . ... ... : ... .. . ... ... : ... .. 8 ... ...
ROW AB : ... .. 6 ... ... ... : ... .. . ... ... ... : ... .. . ... : ... .. 3 ... : ... .. . ... ... : ... .. . ... ... : ... .. . ... ... : ... .. . ... ...
ROW AC : ... .. 5 ... ... ... : ... .. . ... ... ... : ... .. . ... : ... .. 2 ... : ... .. . ... ... : ... .. . ... ... : ... .. . ... ... : ... .. . ... ...
ROW AD : ... .. 4 ... ... ... : ... .. . ... ... ... : ... .. . ... : ... .. 0 ... : ... .. . ... ... : ... .. . ... ... : ... .. . ... ... : ... .. . ... ...
ROW AE : ... .. . ... ... ... : ... .. . ... ... ... : ... .. . ... : ... .. . ... : ... .. . ... ... : ... .. . ... ... : ... .. . ... ... : ... .. . ... ...
ROW AF : ... .. . ... ... ... : ... .. . ... ... ... : ... .. . ... : ... .. . ... : ... .. . ... ... : ... .. . ... ... : ... .. . ... ... : ... .. . ... ...
ROW B0 : E-3 00 8 ... ... ... : ... .. . ... ... ... : B-3 00 . P7D : 5-# 00 F ... : ... .. . ... ... : ... .. . ... ... : ... .. . ... ... : D#3 01 F ... ...
ROW B1 : ... .. 7 ... ... ... : ... .. . ... ... ... : A#3 00 . P7C : ... .. C ... : ... .. . ... ... : ... .. . ... ... : ... .. . ... ... : ... .. D ... ...
ROW B2 : ... .. . ... ... ... : ... .. . ... ... ... : A-3 00 . P7B : ... .. 6 ... : ... .. . ... ... : ... .. . ... ... : ... .. . ... ... : ... .. 8 ... ...
ROW B3 : ... .. 6 ... ... ... : ... .. . ... ... ... : G#3 00 . ... : ... .. 3 ... : ... .. . ... ... : ... .. . ... ... : ... .. . ... ... : ... .. . ... ...
ROW B4 : ... .. 5 ... ... ... : ... .. . ... ... ... : G-3 00 . P7C : ... .. 2 ... : ... .. . ... ... : ... .. . ... ... : ... .. . ... ... : ... .. . ... ...
ROW B5 : ... .. 4 ... ... ... : ... .. . ... ... ... : F#3 00 . P7E : ... .. 0 ... : ... .. . ... ... : ... .. . ... ... : ... .. . ... ... : ... .. . ... ...
ROW B6 : ... .. . ... ... ... : ... .. . ... ... ... : F-3 00 . P81 : ... .. . ... : ... .. . ... ... : ... .. . ... ... : ... .. . ... ... : ... .. . ... ...
ROW B7 : ... .. . ... ... ... : ... .. . ... ... ... : E-3 00 . P85 : ... .. . ... : ... .. . ... ... : ... .. . ... ... : ... .. . ... ... : ... .. . ... ...
ROW B8 : G-3 00 8 ... ... ... : ... .. . ... ... ... : C#3 00 . P80 : E-# 00 F ... : ... .. . ... ... : ... .. . ... ... : ... .. . ... ... : G-2 01 F ... ...
ROW B9 : ... .. 7 ... ... ... : ... .. . ... ... ... : ... .. . ... : ... .. C ... : ... .. . ... ... : ... .. . ... ... : ... .. . ... ... : ... .. D ... ...
ROW BA : ... .. . ... ... ... : ... .. . ... ... ... : ... .. . ... : ... .. 6 ... : ... .. . ... ... : ... .. . ... ... : ... .. . ... ... : ... .. 8 ... ...
ROW BB : ... .. 6 ... ... ... : ... .. . ... ... ... : ... .. . ... : ... .. 3 ... : ... .. . ... ... : ... .. . ... ... : ... .. . ... ... : ... .. . ... ...
ROW BC : ... .. 5 ... ... ... : ... .. . ... ... ... : ... .. . ... : ... .. 2 ... : ... .. . ... ... : ... .. . ... ... : ... .. . ... ... : ... .. . ... ...
ROW BD : ... .. 4 ... ... ... : ... .. . ... ... ... : ... .. . ... : ... .. 0 ... : ... .. . ... ... : ... .. . ... ... : ... .. . ... ... : ... .. . ... ...
ROW BE : ... .. . ... ... ... : ... .. . ... ... ... : ... .. . ... : ... .. . ... : ... .. . ... ... : ... .. . ... ... : ... .. . ... ... : ... .. . ... ...
ROW BF : ... .. . ... ... ... : ... .. . ... ... ... : ... .. . ... : ... .. . ... : ... .. . ... ... : ... .. . ... ... : ... .. . ... ... : ... .. . ... ...
ROW C0 : D#3 00 8 ... ... ... : ... .. . ... ... ... : ... .. . ... : ... .. F ... : ... .. . ... ... : ... .. . ... ... : ... .. . ... ... : ... .. . ... ...
ROW C1 : ... .. 7 ... ... ... : ... .. . ... ... ... : ... .. . ... : ... .. C ... : ... .. . ... ... : ... .. . ... ... : ... .. . ... ... : ... .. . ... ...
ROW C2 : ... .. . ... ... ... : ... .. . ... ... ... : ... .. . ... : ... .. 6 ... : ... .. . ... ... : ... .. . ... ... : ... .. . ... ... : ... .. . ... ...
ROW C3 : ... .. 6 ... ... ... : ... .. . ... ... ... : ... .. . ... : ... .. 3 ... : ... .. . ... ... : ... .. . ... ... : ... .. . ... ... : ... .. . ... ...
ROW C4 : ... .. 5 ... ... ... : ... .. 3 ... ... ... : ... .. . ... : ... .. 2 ... : ... .. . ... ... : ... .. . ... ... : ... .. . ... ... : ... .. . ... ...
ROW C5 : ... .. 4 ... ... ... : ... .. . ... ... ... : ... .. . ... : ... .. 0 ... : ... .. . ... ... : ... .. . ... ... : ... .. . ... ... : ... .. . ... ...
ROW C6 : ... .. . ... ... ... : ... .. . ... ... ... : ... .. . ... : ... .. . ... : ... .. . ... ... : ... .. . ... ... : ... .. . ... ... : ... .. . ... ...
ROW C7 : ... .. . ... ... ... : ... .. . ... ... ... : ... .. . ... : ... .. . ... : ... .. . ... ... : ... .. . ... ... : ... .. . ... ... : ... .. . ... ...
ROW C8 : C#3 00 8 ... ... ... : ... .. . ... ... ... : C#2 00 . ... : ... .. F ... : ... .. . ... ... : ... .. . ... ... : ... .. . ... ... : ... .. . ... ...
ROW C9 : ... .. 7 ... ... ... : ... .. . ... ... ... : ... .. . ... : ... .. C ... : ... .. . ... ... : ... .. . ... ... : ... .. . ... ... : ... .. . ... ...
ROW CA : ... .. . ... ... ... : ... .. . ... ... ... : ... .. . ... : ... .. 6 ... : ... .. . ... ... : ... .. . ... ... : ... .. . ... ... : ... .. . ... ...
ROW CB : ... .. 6 ... ... ... : ... .. . ... ... ... : ... .. . ... : ... .. 3 ... : ... .. . ... ... : ... .. . ... ... : ... .. . ... ... : ... .. . ... ...
ROW CC : ... .. 5 ... ... ... : ... .. . ... ... ... : ... .. . ... : ... .. 2 ... : ... .. . ... ... : ... .. . ... ... : ... .. . ... ... : ... .. . ... ...
ROW CD : ... .. 4 ... ... ... : ... .. . ... ... ... : ... .. . ... : ... .. 0 ... : ... .. . ... ... : ... .. . ... ... : ... .. . ... ... : ... .. . ... ...
ROW CE : ... .. . ... ... ... : ... .. . ... ... ... : ... .. . ... : ... .. . ... : ... .. . ... ... : ... .. . ... ... : ... .. . ... ... : ... .. . ... ...
ROW CF : ... .. . ... ... ... : ... .. . ... ... ... : ... .. . ... : ... .. . ... : ... .. . ... ... : ... .. . ... ... : ... .. . ... ... : ... .. . ... ...
ROW D0 : E-3 00 8 ... ... ... : ... .. . ... ... ... : B-3 00 . P7D : 5-# 00 F ... : ... .. . ... ... : ... .. . ... ... : ... .. . ... ... : ... .. . ... ...
ROW D1 : ... .. 7 ... ... ... : ... .. . ... ... ... : A#3 00 . P7C : ... .. C ... : ... .. . ... ... : ... .. . ... ... : ... .. . ... ... : ... .. . ... ...
ROW D2 : ... .. . ... ... ... : ... .. . ... ... ... : A-3 00 . P7B : ... .. 6 ... : ... .. . ... ... : ... .. . ... ... : ... .. . ... ... : ... .. . ... ...
ROW D3 : ... .. 6 ... ... ... : ... .. . ... ... ... : G#3 00 . ... : ... .. 3 ... : ... .. . ... ... : ... .. . ... ... : ... .. . ... ... : ... .. . ... ...
ROW D4 : ... .. 5 ... ... ... : ... .. 2 ... ... ... : G-3 00 . P7C : ... .. 2 ... : ... .. . ... ... : ... .. 1 ... ... : ... .. 1 ... ... : ... .. . P84 ...
ROW D5 : ... .. 4 ... ... ... : ... .. . ... ... ... : F#3 00 . P7E : ... .. 0 ... : ... .. . ... ... : ... .. . ... ... : ... .. . ... ... : ... .. . P86 ...
ROW D6 : ... .. . ... ... ... : ... .. . ... ... ... : F-3 00 . P81 : ... .. . ... : ... .. . ... ... : ... .. . ... ... : ... .. . ... ... : ... .. . P85 ...
ROW D7 : ... .. . ... ... ... : ... .. . ... ... ... : E-3 00 . P85 : ... .. . ... : ... .. . ... ... : ... .. . ... ... : ... .. . ... ... : ... .. . P82 ...
ROW D8 : G-3 00 8 ... ... ... : ... .. . ... ... ... : C#3 00 . P80 : E-# 00 F ... : ... .. . ... ... : ... .. . ... ... : ... .. . ... ... : ... .. . P7E ...
ROW D9 : ... .. 7 ... ... ... : ... .. . ... ... ... : ... .. . ... : ... .. C ... : ... .. . ... ... : ... .. . ... ... : ... .. . ... ... : ... .. . P7B ...
ROW DA : ... .. . ... ... ... : ... .. . ... ... ... : ... .. . ... : ... .. 6 ... : ... .. . ... ... : ... .. . ... ... : ... .. . ... ... : ... .. . P7A ...
ROW DB : ... .. 6 ... ... ... : ... .. . ... ... ... : ... .. . ... : ... .. 3 ... : ... .. . ... ... : ... .. . ... ... : ... .. . ... ... : ... .. . P7C ...
ROW DC : ... .. 5 ... ... ... : ... .. . ... ... ... : ... .. . ... : ... .. 2 ... : ... .. . ... ... : ... .. . ... ... : ... .. . ... ... : ... .. . P80 ...
ROW DD : ... .. 4 ... ... ... : ... .. . ... ... ... : ... .. . ... : ... .. 0 ... : ... .. . ... ... : ... .. . ... ... : ... .. . ... ... : ... .. . P83 ...
ROW DE : ... .. . ... ... ... : ... .. . ... ... ... : ... .. . ... : ... .. . ... : ... .. . ... ... : ... .. . ... ... : ... .. . ... ... : ... .. . P86 ...
ROW DF : ... .. . ... ... ... : ... .. . ... ... ... : ... .. . ... : ... .. . ... : ... .. . ... ... : ... .. . ... ... : ... .. . ... ... : ... .. . ... ...
ROW E0 : D#3 00 8 ... ... ... : ... .. . ... ... ... : B-2 00 . ... : ... .. F ... : ... .. . ... ... : ... .. . ... ... : ... .. . ... ... : ... .. . P82 ...
ROW E1 : ... .. 7 ... ... ... : ... .. . ... ... ... : ... .. . ... : ... .. C ... : ... .. . ... ... : ... .. . ... ... : ... .. . ... ... : ... .. . P7F ...
ROW E2 : ... .. . ... ... ... : ... .. . ... ... ... : ... .. . ... : ... .. 6 ... : ... .. . ... ... : ... .. . ... ... : ... .. . ... ... : ... .. . P7B ...
ROW E3 : ... .. 6 ... ... ... : ... .. . ... ... ... : ... .. . ... : ... .. 3 ... : ... .. . ... ... : ... .. . ... ... : ... .. . ... ... : ... .. . P7A ...
ROW E4 : ... .. 5 ... ... ... : ... .. . ... ... ... : ... .. . ... : ... .. 2 ... : ... .. . ... ... : ... .. . ... ... : ... .. . ... ... : ... .. . P7C ...
ROW E5 : ... .. 4 ... ... ... : ... .. . ... ... ... : ... .. . ... : ... .. 0 ... : ... .. . ... ... : ... .. . ... ... : ... .. . ... ... : ... .. . P80 ...
ROW E6 : ... .. . ... ... ... : ... .. . ... ... ... : ... .. . ... : ... .. . ... : ... .. . ... ... : ... .. . ... ... : ... .. . ... ... : ... .. . P83 ...
ROW E7 : ... .. . ... ... ... : ... .. . ... ... ... : ... .. . ... : ... .. . ... : ... .. . ... ... : ... .. . ... ... : ... .. . ... ... : ... .. . P86 ...
ROW E8 : C#3 00 8 ... ... ... : ... .. . ... ... ... : A#2 00 . P82 : 1-# 00 F ... : ... .. . ... ... : ... .. . ... ... : ... .. . ... ... : ... .. . ... ...
ROW E9 : ... .. 7 ... ... ... : ... .. . ... ... ... : G#2 00 . P8B : ... .. C ... : ... .. . ... ... : ... .. . ... ... : ... .. . ... ... : ... .. . P83 ...
ROW EA : ... .. . ... ... ... : ... .. . ... ... ... : G-2 00 . P79 : ... .. 6 ... : ... .. . ... ... : ... .. . ... ... : ... .. . ... ... : ... .. . P80 ...
ROW EB : ... .. 6 ... ... ... : ... .. . ... ... ... : F-2 00 . P8D : ... .. 3 ... : ... .. . ... ... : ... .. . ... ... : ... .. . ... ... : ... .. . P7C ...
ROW EC : ... .. 5 ... ... ... : ... .. . ... ... ... : E-2 00 . P81 : ... .. 2 ... : ... .. . ... ... : ... .. . ... ... : ... .. . ... ... : ... .. . P7A ...
ROW ED : ... .. 4 ... ... ... : ... .. . ... ... ... : D#2 00 . P77 : ... .. 0 ... : ... .. . ... ... : ... .. . ... ... : ... .. . ... ... : ... .. . P7B ...
ROW EE : ... .. . ... ... ... : ... .. . ... ... ... : D-2 00 . P70 : ... .. . ... : ... .. . ... ... : ... .. . ... ... : ... .. . ... ... : ... .. . P7F ...
ROW EF : ... .. . ... ... ... : ... .. . ... ... ... : C#2 00 . P6B : ... .. . ... : ... .. . ... ... : ... .. . ... ... : ... .. . ... ... : ... .. . P82 ...
ROW F0 : E-3 00 8 ... ... ... : ... .. . ... ... ... : B-3 00 . P7D : 5-# 00 F ... : ... .. . ... ... : ... .. . ... ... : ... .. . ... ... : ... .. . P86 ...
ROW F1 : ... .. 7 ... ... ... : ... .. . ... ... ... : A#3 00 . P7C : ... .. C ... : ... .. . ... ... : ... .. . ... ... : ... .. . ... ... : ... .. 4 ... ...
ROW F2 : ... .. . ... ... ... : ... .. . ... ... ... : A-3 00 . P7B : ... .. 6 ... : ... .. . ... ... : ... .. . ... ... : ... .. . ... ... : ... .. . P83 ...
ROW F3 : ... .. 6 ... ... ... : ... .. . ... ... ... : G#3 00 . ... : ... .. 3 ... : ... .. . ... ... : ... .. . ... ... : ... .. . ... ... : ... .. 1 P80 ...
ROW F4 : ... .. 5 ... ... ... : ... .. 1 ... ... ... : G-3 00 . P7C : ... .. 2 ... : ... .. . ... ... : ... .. . ... ... : ... .. . ... ... : ... .. . P7C ...
ROW F5 : ... .. 4 ... ... ... : ... .. . ... ... ... : F#3 00 . P7E : ... .. 0 ... : ... .. . ... ... : ... .. . ... ... : ... .. . ... ... : ... .. . P7A ...
ROW F6 : ... .. . ... ... ... : ... .. . ... ... ... : F-3 00 . P81 : ... .. . ... : ... .. . ... ... : ... .. . ... ... : ... .. . ... ... : ... .. . P7B ...
ROW F7 : ... .. . ... ... ... : ... .. . ... ... ... : E-3 00 . P85 : ... .. . ... : ... .. . ... ... : ... .. . ... ... : ... .. . ... ... : ... .. . P7E ...
ROW F8 : G-3 00 8 ... ... ... : ... .. . ... ... ... : C#3 00 . P80 : 1-# 00 F ... : ... .. . ... ... : ... .. . ... ... : ... .. . ... ... : ... .. . P82 ...
ROW F9 : ... .. 7 ... ... ... : ... .. . ... ... ... : ... .. . ... : ... .. C ... : ... .. . ... ... : ... .. . ... ... : ... .. . ... ... : ... .. . P85 ...
ROW FA : ... .. . ... ... ... : ... .. . ... ... ... : ... .. . ... : ... .. 6 ... : ... .. . ... ... : ... .. . ... ... : ... .. . ... ... : ... .. 0 P86 ...
ROW FB : ... .. 6 ... ... ... : ... .. . ... ... ... : ... .. . ... : ... .. 3 ... : ... .. . ... ... : ... .. . ... ... : ... .. . ... ... : ... .. . P84 ...
ROW FC : ... .. 5 ... ... ... : ... .. . ... ... ... : ... .. . ... : ... .. 2 ... : ... .. . ... ... : ... .. . ... ... : ... .. . ... ... : ... .. . P80 ...
ROW FD : ... .. 4 ... ... ... : ... .. . ... ... ... : ... .. . ... : ... .. 0 ... : ... .. . ... ... : ... .. . ... ... : ... .. . ... ... : ... .. . P7D ...
ROW FE : ... .. . ... ... ... : ... .. . ... ... ... : ... .. . ... : ... .. . ... : ... .. . ... ... : ... .. . ... ... : ... .. . ... ... : ... .. . P7A ...
ROW FF : ... .. . ... ... ... : ... .. . ... ... ... : ... .. . ... : ... .. . ... : ... .. . ... ... : ... .. . ... ... : ... .. . ... ... : ... .. . ... ...

PATTERN 01
ROW 00 : F#3 00 8 ... ... ... : ... .. 2 ... ... ... : A#2 00 . P82 : ... .. F ... : ... .. . ... ... : E-3 01 1 ... ... : B-4 01 1 ... ... : ... .. . P7E ...
ROW 01 : ... .. 7 ... ... ... : ... .. 1 ... ... ... : G#2 00 . P8B : ... .. C ... : ... .. . ... ... : ... .. . ... ... : ... .. . ... ... : ... .. . P81 ...
ROW 02 : ... .. . ... ... ... : ... .. . ... ... ... : G-2 00 . P79 : ... .. 6 ... : ... .. . ... ... : ... .. . ... ... : ... .. . ... ... : ... .. . P85 ...
ROW 03 : ... .. 6 ... ... ... : ... .. . ... ... ... : F-2 00 . P8D : ... .. 3 ... : ... .. . ... ... : ... .. . ... ... : ... .. . ... ... : ... .. . P86 ...
ROW 04 : ... .. 5 ... ... ... : ... .. . ... ... ... : E-2 00 . P81 : ... .. 2 ... : ... .. . ... ... : ... .. . ... ... : ... .. . ... ... : ... .. . P84 ...
ROW 05 : ... .. 4 ... ... ... : ... .. . ... ... ... : D#2 00 . P77 : ... .. 0 ... : ... .. . ... ... : ... .. . ... ... : ... .. . ... ... : ... .. . P80 ...
ROW 06 : ... .. . ... ... ... : ... .. . ... ... ... : D-2 00 . P70 : ... .. . ... : ... .. . ... ... : ... .. . ... ... : ... .. . ... ... : ... .. . P7D ...
ROW 07 : ... .. . ... ... ... : ... .. . ... ... ... : C#2 00 . P6B : ... .. . ... : ... .. . ... ... : ... .. . ... ... : ... .. . ... ... : ... .. . P7A ...
ROW 08 : E-3 00 8 ... ... ... : ... .. . ... ... ... : ... .. . P80 : E-# 00 F ... : ... .. . ... ... : ... .. . ... ... : ... .. . ... ... : ... .. . ... ...
ROW 09 : ... .. 7 ... ... ... : ... .. . ... ... ... : ... .. . ... : ... .. C ... : ... .. . ... ... : ... .. . ... ... : ... .. . ... ... : ... .. . P7D ...
ROW 0A : ... .. . ... ... ... : ... .. . ... ... ... : ... .. . ... : ... .. 6 ... : ... .. . ... ... : ... .. . ... ... : ... .. . ... ... : ... .. . P80 ...
ROW 0B : ... .. 6 ... ... ... : ... .. . ... ... ... : ... .. . ... : ... .. 3 ... : ... .. . ... ... : ... .. . ... ... : ... .. . ... ... : ... .. . P84 ...
ROW 0C : ... .. 5 ... ... ... : ... .. 2 ... ... ... : ... .. . ... : ... .. 2 ... : ... .. . ... ... : ... .. . ... ... : ... .. . ... ... : ... .. . P86 ...
ROW 0D : ... .. 4 ... ... ... : ... .. . ... ... ... : ... .. . ... : ... .. 0 ... : ... .. . ... ... : ... .. . ... ... : ... .. . ... ... : ... .. . P85 ...
ROW 0E : ... .. . ... ... ... : ... .. . ... ... ... : ... .. . ... : ... .. . ... : ... .. . ... ... : ... .. . ... ... : ... .. . ... ... : ... .. . P81 ...
ROW 0F : ... .. . ... ... ... : ... .. . ... ... ... : ... .. . ... : ... .. . ... : ... .. . ... ... : ... .. . ... ... : ... .. . ... ... : ... .. . P7E ...
ROW 10 : G-3 00 8 ... ... ... : ... .. . ... ... ... : B-3 00 . P7D : 5-# 00 F ... : ... .. . ... ... : ... .. . ... ... : ... .. . ... ... : B-2 01 F P80 ...
ROW 11 : ... .. 7 ... ... ... : ... .. . ... ... ... : A#3 00 . P7C : ... .. C ... : ... .. . ... ... : ... .. . ... ... : ... .. . ... ... : ... .. D ... ...
ROW 12 : ... .. . ... ... ... : ... .. . ... ... ... : A-3 00 . P7B : ... .. 6 ... : ... .. . ... ... : ... .. . ... ... : ... .. . ... ... : ... .. 8 ... ...
ROW 13 : ... .. 6 ... ... ... : ... .. . ... ... ... : G#3 00 . ... : ... .. 3 ... : ... .. . ... ... : ... .. . ... ... : ... .. . ... ... : ... .. . ... ...
ROW 14 : ... .. 5 ... ... ... : ... .. . ... ... ... : G-3 00 . P7C : ... .. 2 ... : ... .. . ... ... : ... .. . ... ... : ... .. . ... ... : ... .. . ... ...
ROW 15 : ... .. 4 ... ... ... : ... .. . ... ... ... : F#3 00 . P7E : ... .. 0 ... : ... .. . ... ... : ... .. . ... ... : ... .. . ... ... : ... .. . ... ...
ROW 16 : ... .. . ... ... ... : ... .. . ... ... ... : F-3 00 . P81 : ... .. . ... : ... .. . ... ... : ... .. . ... ... : ... .. . ... ... : ... .. . ... ...
ROW 17 : ... .. . ... ... ... : ... .. . ... ... ... : E-3 00 . P85 : ... .. . ... : ... .. . ... ... : ... .. . ... ... : ... .. . ... ... : ... .. . ... ...
ROW 18 : B-3 00 8 ... ... ... : ... .. . ... ... ... : C#3 00 . P80 : E-# 00 F ... : ... .. . ... ... : ... .. . ... ... : ... .. . ... ... : ... .. . ... ...
ROW 19 : ... .. 7 ... ... ... : ... .. . ... ... ... : ... .. . ... : ... .. C ... : ... .. . ... ... : ... .. . ... ... : ... .. . ... ... : ... .. . ... ...
ROW 1A : ... .. . ... ... ... : ... .. . ... ... ... : ... .. . ... : ... .. 6 ... : ... .. . ... ... : ... .. . ... ... : ... .. . ... ... : ... .. . ... ...
ROW 1B : ... .. 6 ... ... ... : ... .. . ... ... ... : ... .. . ... : ... .. 3 ... : ... .. . ... ... : ... .. . ... ... : ... .. . ... ... : ... .. . ... ...
ROW 1C : ... .. 5 ... ... ... : ... .. . ... ... ... : ... .. . ... : ... .. 2 ... : ... .. . ... ... : ... .. . ... ... : ... .. . ... ... : ... .. . ... ...
ROW 1D : ... .. 4 ... ... ... : ... .. . ... ... ... : ... .. . ... : ... .. 0 ... : ... .. . ... ... : ... .. . ... ... : ... .. . ... ... : ... .. 4 ... ...
ROW 1E : ... .. . ... ... ... : ... .. . ... ... ... : ... .. . ... : ... .. . ... : ... .. . ... ... : ... .. . ... ... : ... .. . ... ... : ... .. . ... ...
ROW 1F : ... .. . ... ... ... : ... .. . ... ... ... : ... .. . ... : ... .. . ... : ... .. . ... ... : ... .. . ... ... : ... .. . ... ... : ... .. 1 ... ...
ROW 20 : F#3 00 8 ... ... ... : ... .. 3 ... ... ... : B-2 00 . ... : ... .. F ... : ... .. . ... ... : ... .. 2 ... ... : ... .. 2 ... ... : G-3 01 F ... ...
ROW 21 : ... .. 7 ... ... ... : ... .. . ... ... ... : ... .. . ... : ... .. C ... : ... .. . ... ... : ... .. . ... ... : ... .. . ... ... : ... .. D ... ...
ROW 22 : ... .. . ... ... ... : ... .. . ... ... ... : ... .. . ... : ... .. 6 ... : ... .. . ... ... : ... .. . ... ... : ... .. . ... ... : ... .. 8 ... ...
ROW 23 : ... .. 6 ... ... ... : ... .. . ... ... ... : ... .. . ... : ... .. 3 ... : ... .. . ... ... : ... .. . ... ... : ... .. . ... ... : ... .. . ... ...
ROW 24 : ... .. 5 ... ... ... : ... .. . ... ... ... : ... .. . ... : ... .. 2 ... : ... .. . ... ... : ... .. . ... ... : ... .. . ... ... : ... .. . ... ...
ROW 25 : ... .. 4 ... ... ... : ... .. . ... ... ... : ... .. . ... : ... .. 0 ... : ... .. . ... ... : ... .. . ... ... : ... .. . ... ... : ... .. . ... ...
ROW 26 : ... .. . ... ... ... : ... .. . ... ... ... : ... .. . ... : ... .. . ... : ... .. . ... ... : ... .. . ... ... : ... .. . ... ... : ... .. . ... ...
ROW 27 : ... .. . ... ... ... : ... .. . ... ... ... : ... .. . ... : ... .. . ... : ... .. . ... ... : ... .. . ... ... : ... .. . ... ... : ... .. . ... ...
ROW 28 : E-3 00 8 ... ... ... : ... .. 4 ... ... ... : C#3 00 . ... : ... .. F ... : ... .. . ... ... : ... .. . ... ... : ... .. . ... ... : F#3 01 F ... ...
ROW 29 : ... .. 7 ... ... ... : ... .. . ... ... ... : ... .. . ... : ... .. C ... : ... .. . ... ... : ... .. . ... ... : ... .. . ... ... : ... .. D ... ...
ROW 2A : ... .. . ... ... ... : ... .. . ... ... ... : ... .. . ... : ... .. 6 ... : ... .. . ... ... : ... .. . ... ... : ... .. . ... ... : ... .. 8 ... ...
ROW 2B : ... .. 6 ... ... ... : ... .. . ... ... ... : ... .. . ... : ... .. 3 ... : ... .. . ... ... : ... .. . ... ... : ... .. . ... ... : ... .. . ... ...
ROW 2C : ... .. 5 ... ... ... : ... .. . ... ... ... : ... .. . ... : ... .. 2 ... : ... .. . ... ... : ... .. . ... ... : ... .. . ... ... : ... .. . ... ...
ROW 2D : ... .. 4 ... ... ... : ... .. . ... ... ... : ... .. . ... : ... .. 0 ... : ... .. . ... ... : ... .. . ... ... : ... .. . ... ... : ... .. 4 ... ...
ROW 2E : ... .. . ... ... ... : ... .. . ... ... ... : ... .. . ... : ... .. . ... : ... .. . ... ... : ... .. . ... ... : ... .. . ... ... : ... .. . ... ...
ROW 2F : ... .. . ... ... ... : ... .. . ... ... ... : ... .. . ... : ... .. . ... : ... .. . ... ... : ... .. . ... ... : ... .. . ... ... : ... .. 1 ... ...
ROW 30 : G-3 00 8 ... ... ... : ... .. . ... ... ... : B-3 00 . P7D : 5-# 00 F ... : ... .. . ... ... : ... .. . ... ... : ... .. . ... ... : G-3 01 F ... ...
ROW 31 : ... .. 7 ... ... ... : ... .. . ... ... ... : A#3 00 . P7C : ... .. C ... : ... .. . ... ... : ... .. . ... ... : ... .. . ... ... : ... .. D ... ...
ROW 32 : ... .. . ... ... ... : ... .. . ... ... ... : A-3 00 . P7B : ... .. 6 ... : ... .. . ... ... : ... .. . ... ... : ... .. . ... ... : ... .. 8 ... ...
ROW 33 : ... .. 6 ... ... ... : ... .. . ... ... ... : G#3 00 . ... : ... .. 3 ... : ... .. . ... ... : ... .. . ... ... : ... .. . ... ... : ... .. . ... ...
ROW 34 : ... .. 5 ... ... ... : ... .. . ... ... ... : G-3 00 . P7C : ... .. 2 ... : ... .. . ... ... : ... .. . ... ... : ... .. . ... ... : ... .. . ... ...
ROW 35 : ... .. 4 ... ... ... : ... .. . ... ... ... : F#3 00 . P7E : ... .. 0 ... : ... .. . ... ... : ... .. . ... ... : ... .. . ... ... : ... .. 4 ... ...
ROW 36 : ... .. . ... ... ... : ... .. . ... ... ... : F-3 00 . P81 : ... .. . ... : ... .. . ... ... : ... .. . ... ... : ... .. . ... ... : ... .. . ... ...
ROW 37 : ... .. . ... ... ... : ... .. . ... ... ... : E-3 00 . P85 : ... .. . ... : ... .. . ... ... : ... .. . ... ... : ... .. . ... ... : ... .. 1 ... ...
ROW 38 : B-3 00 8 ... ... ... : ... .. . ... ... ... : C#3 00 . P80 : E-# 00 F ... : ... .. . ... ... : ... .. . ... ... : ... .. . ... ... : B-2 01 F ... ...
ROW 39 : ... .. 7 ... ... ... : ... .. . ... ... ... : ... .. . ... : ... .. C ... : ... .. . ... ... : ... .. . ... ... : ... .. . ... ... : ... .. D ... ...
ROW 3A : ... .. . ... ... ... : ... .. . ... ... ... : ... .. . ... : ... .. 6 ... : ... .. . ... ... : ... .. . ... ... : ... .. . ... ... : ... .. 8 ... ...
ROW 3B : ... .. 6 ... ... ... : ... .. . ... ... ... : ... .. . ... : ... .. 3 ... : ... .. . ... ... : ... .. . ... ... : ... .. . ... ... : ... .. . ... ...
ROW 3C : ... .. 5 ... ... ... : ... .. 5 ... ... ... : ... .. . ... : ... .. 2 ... : ... .. . ... ... : ... .. 3 ... ... : ... .. 3 ... ... : ... .. . ... ...
ROW 3D : ... .. 4 ... ... ... : ... .. . ... ... ... : ... .. . ... : ... .. 0 ... : ... .. . ... ... : ... .. . ... ... : ... .. . ... ... : ... .. . ... ...
ROW 3E : ... .. . ... ... ... : ... .. . ... ... ... : ... .. . ... : ... .. . ... : ... .. . ... ... : ... .. . ... ... : ... .. . ... ... : ... .. . ... ...
ROW 3F : ... .. . ... ... ... : ... .. . ... ... ... : ... .. . ... : ... .. . ... : ... .. . ... ... : ... .. . ... ... : ... .. . ... ... : ... .. . ... ...
ROW 40 : F#3 00 8 ... ... ... : E-3 00 8 ... ... ... : ... .. . ... : ... .. F ... : ... .. . ... ... : B-2 01 4 ... ... : E-5 01 4 ... ... : ... .. . ... ...
ROW 41 : ... .. 7 ... ... ... : ... .. 7 ... ... ... : ... .. . ... : ... .. C ... : ... .. . ... ... : ... .. . ... ... : ... .. . ... ... : ... .. . ... ...
ROW 42 : ... .. . ... ... ... : ... .. 6 ... ... ... : ... .. . ... : ... .. 6 ... : ... .. . ... ... : ... .. . ... ... : ... .. . ... ... : ... .. . ... ...
ROW 43 : ... .. 6 ... ... ... : ... .. 5 ... ... ... : ... .. . ... : ... .. 3 ... : ... .. . ... ... : ... .. . ... ... : ... .. . ... ... : ... .. . ... ...
ROW 44 : ... .. 5 ... ... ... : ... .. . ... ... ... : ... .. . ... : ... .. 2 ... : ... .. . ... ... : ... .. 3 ... ... : ... .. 3 ... ... : ... .. . ... ...
ROW 45 : ... .. 4 ... ... ... : ... .. . ... ... ... : ... .. . ... : ... .. 0 ... : ... .. . ... ... : ... .. . ... ... : ... .. . ... ... : ... .. . ... ...
ROW 46 : ... .. . ... ... ... : ... .. . ... ... ... : ... .. . ... : ... .. . ... : ... .. . ... ... : ... .. . ... ... : ... .. . ... ... : ... .. . ... ...
ROW 47 : ... .. . ... ... ... : ... .. . ... ... ... : ... .. . ... : ... .. . ... : ... .. . ... ... : ... .. . ... ... : ... .. . ... ... : ... .. . ... ...
ROW 48 : E-3 00 8 ... ... ... : ... .. 6 ... ... ... : C#2 00 . ... : ... .. F ... : ... .. . ... ... : ... .. . ... ... : ... .. . ... ... : ... .. . ... ...
ROW 49 : ... .. 7 ... ... ... : ... .. . ... ... ... : ... .. . ... : ... .. C ... : ... .. . ... ... : ... .. . ... ... : ... .. . ... ... : ... .. . ... ...
ROW 4A : ... .. . ... ... ... : ... .. . ... ... ... : ... .. . ... : ... .. 6 ... : ... .. . ... ... : ... .. . ... ... : ... .. . ... ... : ... .. . ... ...
ROW 4B : ... .. 6 ... ... ... : ... .. . ... ... ... : ... .. . ... : ... .. 3 ... : ... .. . ... ... : ... .. . ... ... : ... .. . ... ... : ... .. . ... ...
ROW 4C : ... .. 5 ... ... ... : ... .. . ... ... ... : ... .. . ... : ... .. 2 ... : ... .. . ... ... : ... .. . ... ... : ... .. . ... ... : ... .. . ... ...
ROW 4D : ... .. 4 ... ... ... : ... .. . ... ... ... : ... .. . ... : ... .. 0 ... : ... .. . ... ... : ... .. . ... ... : ... .. . ... ... : ... .. . ... ...
ROW 4E : ... .. . ... ... ... : ... .. . ... ... ... : ... .. . ... : ... .. . ... : ... .. . ... ... : ... .. . ... ... : ... .. . ... ... : ... .. . ... ...
ROW 4F : ... .. . ... ... ... : ... .. . ... ... ... : ... .. . ... : ... .. . ... : ... .. . ... ... : ... .. . ... ... : ... .. . ... ... : ... .. . ... ...
ROW 50 : G-3 00 8 ... ... ... : ... .. . ... ... ... : B-3 00 . P7D : 5-# 00 F ... : ... .. . ... ... : ... .. 4 ... ... : ... .. 4 ... ... : ... .. . ... ...
ROW 51 : ... .. 7 ... ... ... : ... .. . ... ... ... : A#3 00 . P7C : ... .. C ... : ... .. . ... ... : ... .. . ... ... : ... .. . ... ... : ... .. . ... ...
ROW 52 : ... .. . ... ... ... : ... .. . ... ... ... : A-3 00 . P7B : ... .. 6 ... : ... .. . ... ... : ... .. . ... ... : ... .. . ... ... : ... .. . ... ...
ROW 53 : ... .. 6 ... ... ... : ... .. . ... ... ... : G#3 00 . ... : ... .. 3 ... : ... .. . ... ... : ... .. . ... ... : ... .. . ... ... : ... .. . ... ...
ROW 54 : ... .. 5 ... ... ... : ... .. . ... ... ... : G-3 00 . P7C : ... .. 2 ... : ... .. . ... ... : ... .. . ... ... : ... .. . ... ... : ... .. . ... ...
ROW 55 : ... .. 4 ... ... ... : ... .. . ... ... ... : F#3 00 . P7E : ... .. 0 ... : ... .. . ... ... : ... .. . ... ... : ... .. . ... ... : ... .. . ... ...
ROW 56 : ... .. . ... ... ... : ... .. . ... ... ... : F-3 00 . P81 : ... .. . ... : ... .. . ... ... : ... .. . ... ... : ... .. . ... ... : ... .. . ... ...
ROW 57 : ... .. . ... ... ... : ... .. . ... ... ... : E-3 00 . P85 : ... .. . ... : ... .. . ... ... : ... .. . ... ... : ... .. . ... ... : ... .. . ... ...
ROW 58 : B-3 00 8 ... ... ... : ... .. . ... ... ... : C#3 00 . P80 : E-# 00 F ... : ... .. . ... ... : ... .. . ... ... : ... .. . ... ... : ... .. . ... ...
ROW 59 : ... .. 7 ... ... ... : ... .. . ... ... ... : ... .. . ... : ... .. C ... : ... .. . ... ... : ... .. . ... ... : ... .. . ... ... : ... .. . ... ...
ROW 5A : ... .. . ... ... ... : ... .. . ... ... ... : ... .. . ... : ... .. 6 ... : ... .. . ... ... : ... .. . ... ... : ... .. . ... ... : ... .. . ... ...
ROW 5B : ... .. 6 ... ... ... : ... .. . ... ... ... : ... .. . ... : ... .. 3 ... : ... .. . ... ... : ... .. . ... ... : ... .. . ... ... : ... .. . ... ...
ROW 5C : ... .. 5 ... ... ... : ... .. 7 ... ... ... : ... .. . ... : ... .. 2 ... : ... .. . ... ... : ... .. . ... ... : ... .. . ... ... : ... .. . P84 ...
ROW 5D : ... .. 4 ... ... ... : ... .. . ... ... ... : ... .. . ... : ... .. 0 ... : ... .. . ... ... : ... .. . ... ... : ... .. . ... ... : ... .. . P86 ...
ROW 5E : ... .. . ... ... ... : ... .. . ... ... ... : ... .. . ... : ... .. . ... : ... .. . ... ... : ... .. . ... ... : ... .. . ... ... : ... .. . P85 ...
ROW 5F : ... .. . ... ... ... : ... .. . ... ... ... : ... .. . ... : ... .. . ... : ... .. . ... ... : ... .. . ... ... : ... .. . ... ... : ... .. . P82 ...
ROW 60 : F#3 00 8 ... ... ... : ... .. . ... ... ... : B-2 00 . ... : ... .. F ... : ... .. . ... ... : ... .. . ... ... : ... .. . ... ... : ... .. . P7E ...
ROW 61 : ... .. 7 ... ... ... : ... .. . ... ... ... : ... .. . ... : ... .. C ... : ... .. . ... ... : ... .. . ... ... : ... .. . ... ... : ... .. . P7B ...
ROW 62 : ... .. . ... ... ... : ... .. . ... ... ... : ... .. . ... : ... .. 6 ... : ... .. . ... ... : ... .. . ... ... : ... .. . ... ... : ... .. . P7A ...
ROW 63 : ... .. 6 ... ... ... : ... .. . ... ... ... : ... .. . ... : ... .. 3 ... : ... .. . ... ... : ... .. . ... ... : ... .. . ... ... : ... .. . P7C ...
ROW 64 : ... .. 5 ... ... ... : ... .. 8 ... ... ... : ... .. . ... : ... .. 2 ... : ... .. . ... ... : ... .. . ... ... : ... .. . ... ... : ... .. . P80 ...
ROW 65 : ... .. 4 ... ... ... : ... .. . ... ... ... : ... .. . ... : ... .. 0 ... : ... .. . ... ... : ... .. . ... ... : ... .. . ... ... : ... .. . P83 ...
ROW 66 : ... .. . ... ... ... : ... .. . ... ... ... : ... .. . ... : ... .. . ... : ... .. . ... ... : ... .. . ... ... : ... .. . ... ... : ... .. . P86 ...
ROW 67 : ... .. . ... ... ... : ... .. . ... ... ... : ... .. . ... : ... .. . ... : ... .. . ... ... : ... .. . ... ... : ... .. . ... ... : ... .. . ... ...
ROW 68 : E-3 00 8 ... ... ... : ... .. . ... ... ... : A#2 00 . P82 : D-# 00 F ... : ... .. . ... ... : ... .. . ... ... : ... .. . ... ... : ... .. . P82 ...
ROW 69 : ... .. 7 ... ... ... : ... .. . ... ... ... : G#2 00 . P8B : ... .. C ... : ... .. . ... ... : ... .. . ... ... : ... .. . ... ... : ... .. . P7F ...
ROW 6A : ... .. . ... ... ... : ... .. . ... ... ... : G-2 00 . P79 : ... .. 6 ... : ... .. . ... ... : ... .. . ... ... : ... .. . ... ... : ... .. . P7B ...
ROW 6B : ... .. 6 ... ... ... : ... .. . ... ... ... : F-2 00 . P8D : ... .. 3 ... : ... .. . ... ... : ... .. . ... ... : ... .. . ... ... : ... .. . P7A ...
ROW 6C : ... .. 5 ... ... ... : ... .. . ... ... ... : E-2 00 . P81 : ... .. F ... : ... .. . ... ... : ... .. . ... ... : ... .. . ... ... : ... .. . P7C ...
ROW 6D : ... .. 4 ... ... ... : ... .. . ... ... ... : D#2 00 . P77 : ... .. C ... : ... .. . ... ... : ... .. . ... ... : ... .. . ... ... : ... .. . P80 ...
ROW 6E : ... .. . ... ... ... : ... .. . ... ... ... : D-2 00 . P70 : ... .. 6 ... : ... .. . ... ... : ... .. . ... ... : ... .. . ... ... : ... .. . P83 ...
ROW 6F : ... .. . ... ... ... : ... .. . ... ... ... : C#2 00 . P6B : ... .. 3 ... : ... .. . ... ... : ... .. . ... ... : ... .. . ... ... : ... .. . P86 ...
ROW 70 : G-3 00 8 ... ... ... : ... .. . ... ... ... : B-3 00 . P7D : C-# 00 F ... : ... .. . ... ... : ... .. 5 ... ... : ... .. 5 ... ... : ... .. . ... ...
ROW 71 : ... .. 7 ... ... ... : ... .. . ... ... ... : A#3 00 . P7C : ... .. C ... : ... .. . ... ... : ... .. . ... ... : ... .. . ... ... : ... .. 4 P83 ...
ROW 72 : ... .. . ... ... ... : ... .. . ... ... ... : A-3 00 . P7B : ... .. 6 ... : ... .. . ... ... : ... .. . ... ... : ... .. . ... ... : ... .. . P80 ...
ROW 73 : ... .. 6 ... ... ... : ... .. . ... ... ... : G#3 00 . ... : ... .. 3 ... : ... .. . ... ... : ... .. . ... ... : ... .. . ... ... : ... .. 1 P7C ...
ROW 74 : ... .. 5 ... ... ... : ... .. . ... ... ... : G-3 00 . P7C : ... .. F ... : ... .. . ... ... : ... .. . ... ... : ... .. . ... ... : ... .. . P7A ...
ROW 75 : ... .. 4 ... ... ... : ... .. . ... ... ... : F#3 00 . P7E : ... .. C ... : ... .. . ... ... : ... .. . ... ... : ... .. . ... ... : ... .. . P7B ...
ROW 76 : ... .. . ... ... ... : ... .. . ... ... ... : F-3 00 . P81 : ... .. 6 ... : ... .. . ... ... : ... .. . ... ... : ... .. . ... ... : ... .. . P7F ...
ROW 77 : ... .. . ... ... ... : ... .. . ... ... ... : E-3 00 . P85 : ... .. 3 ... : ... .. . ... ... : ... .. . ... ... : ... .. . ... ... : ... .. . P82 ...
ROW 78 : B-3 00 8 ... ... ... : ... .. 9 ... ... ... : ... .. . P76 : B-# 00 F ... : ... .. . ... ... : ... .. . ... ... : ... .. . ... ... : ... .. . P86 ...
ROW 79 : ... .. 7 ... ... ... : ... .. . ... ... ... : D#3 00 . P7C : ... .. C ... : ... .. . ... ... : ... .. . ... ... : ... .. . ... ... : ... .. . ... ...
ROW 7A : ... .. . ... ... ... : ... .. . ... ... ... : D-3 00 . P82 : ... .. 6 ... : ... .. . ... ... : ... .. . ... ... : ... .. . ... ... : ... .. 0 P83 ...
ROW 7B : ... .. 6 ... ... ... : ... .. . ... ... ... : C#3 00 . P8A : ... .. 3 ... : ... .. . ... ... : ... .. . ... ... : ... .. . ... ... : ... .. . P80 ...
ROW 7C : ... .. 5 ... ... ... : ... .. . ... ... ... : ... .. . P7B : ... .. F ... : ... .. . ... ... : ... .. . ... ... : ... .. . ... ... : ... .. . P7C ...
ROW 7D : ... .. 4 ... ... ... : ... .. . ... ... ... : C-3 00 . P84 : ... .. C ... : ... .. . ... ... : ... .. . ... ... : ... .. . ... ... : ... .. . P7A ...
ROW 7E : ... .. . ... ... ... : ... .. . ... ... ... : ... .. . P75 : ... .. 6 ... : ... .. . ... ... : ... .. . ... ... : ... .. . ... ... : ... .. . P7B ...
ROW 7F : ... .. . ... ... ... : ... .. . ... ... ... : B-2 00 . P7F : ... .. 3 ... : ... .. . ... ... : ... .. . ... ... : ... .. . ... ... : ... .. . P7E ...
ROW 80 : G-3 00 8 ... ... ... : G-3 00 F ... ... ... : C#3 00 . P80 : 5-# 00 D ... : ... .. . ... ... : A#2 01 9 ... ... : D#5 01 9 ... ... : C#2 01 D P80 ...
ROW 81 : ... .. 7 ... ... ... : ... .. E ... ... ... : ... .. . ... : ... .. . ... : ... .. . ... ... : ... .. 8 ... ... : ... .. 8 ... ... : ... .. B ... ...
ROW 82 : ... .. . ... ... ... : ... .. D ... ... ... : ... .. . ... : 1-# 00 D ... : ... .. . ... ... : ... .. . ... ... : ... .. . ... ... : ... .. 9 ... ...
ROW 83 : ... .. 6 ... ... ... : ... .. A ... ... ... : ... .. . ... : F-# 00 6 ... : ... .. . ... ... : ... .. . ... ... : ... .. . ... ... : ... .. 7 ... ...
ROW 84 : F-3 00 8 ... ... ... : ... .. . ... ... ... : ... .. . ... : B-# 00 1 ... : ... .. . ... ... : ... .. 6 ... ... : ... .. 6 ... ... : ... .. 5 ... ...
ROW 85 : ... .. 7 ... ... ... : ... .. 2 ... ... ... : ... .. . ... : ... .. 0 ... : ... .. . ... ... : ... .. 5 ... ... : ... .. 5 ... ... : ... .. 3 ... ...
ROW 86 : ... .. . ... ... ... : ... .. . ... ... ... : --- .. . ... : ... .. . ... : ... .. . ... ... : ... .. . ... ... : ... .. . ... ... : ... .. . ... ...
ROW 87 : ... .. 6 ... ... ... : ... .. . ... ... ... : ... .. . ... : ... .. . ... : ... .. . ... ... : ... .. 4 ... ... : ... .. 4 ... ... : ... .. 2 ... ...
ROW 88 : D#3 00 8 ... ... ... : ... .. F ... ... ... : C#3 00 . ... : 5-# 00 D ... : ... .. . ... ... : ... .. 9 ... ... : ... .. 9 ... ... : ... .. D ... ...
ROW 89 : ... .. 7 ... ... ... : ... .. E ... ... ... : ... .. . ... : ... .. . ... : ... .. . ... ... : ... .. 8 ... ... : ... .. 8 ... ... : ... .. B ... ...
ROW 8A : ... .. . ... ... ... : ... .. D ... ... ... : ... .. . ... : 1-# 00 D ... : ... .. . ... ... : ... .. . ... ... : ... .. . ... ... : ... .. 9 ... ...
ROW 8B : ... .. 6 ... ... ... : ... .. A ... ... ... : ... .. . ... : F-# 00 6 ... : ... .. . ... ... : ... .. . ... ... : ... .. . ... ... : ... .. 7 ... ...
ROW 8C : F-3 00 8 ... ... ... : ... .. . ... ... ... : ... .. . ... : B-# 00 1 ... : ... .. . ... ... : ... .. 6 ... ... : ... .. 6 ... ... : ... .. 5 ... ...
ROW 8D : ... .. 7 ... ... ... : ... .. 2 ... ... ... : ... .. . ... : ... .. 0 ... : ... .. . ... ... : ... .. 5 ... ... : ... .. 5 ... ... : ... .. 3 ... ...
ROW 8E : ... .. . ... ... ... : ... .. . ... ... ... : --- .. . ... : ... .. . ... : ... .. . ... ... : ... .. . ... ... : ... .. . ... ... : ... .. . ... ...
ROW 8F : ... .. 6 ... ... ... : ... .. . ... ... ... : ... .. . ... : ... .. . ... : ... .. . ... ... : ... .. 4 ... ... : ... .. 4 ... ... : ... .. 2 ... ...
ROW 90 : G-3 00 8 ... ... ... : ... .. F ... ... ... : C#3 00 . ... : ... .. C ... : ... .. . ... ... : ... .. 9 ... ... : ... .. 9 ... ... : ... .. D ... ...
ROW 91 : ... .. 7 ... ... ... : ... .. E ... ... ... : ... .. . ... : ... .. . ... : ... .. . ... ... : ... .. 8 ... ... : ... .. 8 ... ... : ... .. B ... ...
ROW 92 : ... .. . ... ... ... : ... .. D ... ... ... : ... .. . ... : ... .. . ... : ... .. . ... ... : ... .. . ... ... : ... .. . ... ... : ... .. 9 ... ...
ROW 93 : ... .. 6 ... ... ... : ... .. A ... ... ... : ... .. . ... : ... .. . ... : ... .. . ... ... : ... .. . ... ... : ... .. . ... ... : ... .. 7 ... ...
ROW 94 : G#3 00 8 ... ... ... : ... .. . ... ... ... : ... .. . ... : ... .. 8 ... : ... .. . ... ... : ... .. 7 ... ... : ... .. 7 ... ... : ... .. 5 ... ...
ROW 95 : ... .. 7 ... ... ... : ... .. . ... ... ... : ... .. . ... : ... .. . ... : ... .. . ... ... : ... .. . ... ... : ... .. . ... ... : ... .. 3 ... ...
ROW 96 : ... .. . ... ... ... : ... .. . ... ... ... : ... .. . ... : ... .. . ... : ... .. . ... ... : ... .. . ... ... : ... .. . ... ... : ... .. . ... ...
ROW 97 : ... .. 6 ... ... ... : ... .. . ... ... ... : ... .. . ... : ... .. . ... : ... .. . ... ... : ... .. 6 ... ... : ... .. 6 ... ... : ... .. 2 ... ...
ROW 98 : A#3 00 8 ... ... ... : ... .. . ... ... ... : ... .. . ... : ... .. 6 ... : ... .. . ... ... : ... .. . ... ... : ... .. . ... ... : ... .. . ... ...
ROW 99 : ... .. 7 ... ... ... : ... .. . ... ... ... : ... .. . ... : ... .. . ... : ... .. . ... ... : ... .. . ... ... : ... .. . ... ... : ... .. 1 ... ...
ROW 9A : ... .. . ... ... ... : ... .. . ... ... ... : ... .. . ... : ... .. . ... : ... .. . ... ... : ... .. . ... ... : ... .. . ... ... : ... .. . ... ...
ROW 9B : ... .. 6 ... ... ... : ... .. . ... ... ... : ... .. . ... : ... .. . ... : ... .. . ... ... : ... .. . ... ... : ... .. . ... ... : ... .. . ... ...
ROW 9C : C-4 00 8 ... ... ... : ... .. . ... ... ... : C-3 00 . P78 : ... .. . ... : ... .. . ... ... : --- .. . P82 ... : --- .. . ... ... : --- .. . ... ...
ROW 9D : ... .. 7 ... ... ... : ... .. 2 ... ... ... : A#2 00 . P8C : ... .. . ... : ... .. . ... ... : ... .. . ... ... : ... .. . ... ... : ... .. . ... ...
ROW 9E : ... .. . ... ... ... : ... .. . ... ... ... : A-2 00 . P88 : ... .. . ... : ... .. . ... ... : ... .. . ... ... : ... .. . ... ... : ... .. . ... ...
ROW 9F : ... .. 6 ... ... ... : ... .. . ... ... ... : G#2 00 . P87 : ... .. . ... : ... .. . ... ... : ... .. . ... ... : ... .. . ... ... : ... .. . ... ...
ROW A0 : C#4 00 8 ... ... ... : ... .. 1 ... ... ... : G-2 00 . ... : 1-# 00 F ... : ... .. . ... ... : ... .. . ... ... : ... .. . ... ... : ... .. . ... ...
ROW A1 : ... .. 7 ... ... ... : ... .. . ... ... ... : F#2 00 . P89 : ... .. C ... : ... .. . ... ... : ... .. . ... ... : ... .. . ... ... : ... .. . ... ...
ROW A2 : ... .. . ... ... ... : ... .. . ... ... ... : F-2 00 . P8D : ... .. 6 ... : ... .. . ... ... : ... .. . ... ... : ... .. . ... ... : ... .. . ... ...
ROW A3 : ... .. 6 ... ... ... : ... .. 0 ... ... ... : E-2 00 . P93 : ... .. 3 ... : ... .. . ... ... : ... .. . ... ... : ... .. . ... ... : ... .. . ... ...
ROW A4 : D#4 00 8 ... ... ... : ... .. . ... ... ... : ... .. . P73 : ... .. 2 ... : ... .. . ... ... : ... .. . ... ... : ... .. . ... ... : ... .. . ... ...
ROW A5 : ... .. 7 ... ... ... : ... .. . ... ... ... : D#2 00 . P7B : ... .. 0 ... : ... .. . ... ... : ... .. . ... ... : ... .. . ... ... : ... .. . ... ...
ROW A6 : ... .. . ... ... ... : ... .. . ... ... ... : D-2 00 . P86 : ... .. . ... : ... .. . ... ... : ... .. . ... ... : ... .. . ... ... : ... .. . ... ...
ROW A7 : ... .. 6 ... ... ... : ... .. . ... ... ... : C#2 00 . P93 : ... .. . ... : ... .. . ... ... : ... .. . ... ... : ... .. . ... ... : ... .. . ... ...
ROW A8 : F-4 00 8 ... ... ... : G-3 00 F P80 ... ... : B-2 00 . P7F : 5-# 00 D ... : ... .. . ... ... : A#2 01 9 P80 ... : D#5 01 9 ... ... : C#2 01 D ... ...
ROW A9 : ... .. 7 ... ... ... : ... .. E ... ... ... : A-2 00 . P84 : ... .. . ... : ... .. . ... ... : ... .. 8 ... ... : ... .. 8 ... ... : ... .. B ... ...
ROW AA : ... .. . ... ... ... : ... .. D ... ... ... : G#2 00 . P71 : 1-# 00 D ... : ... .. . ... ... : ... .. . ... ... : ... .. . ... ... : ... .. 9 ... ...
ROW AB : ... .. 6 ... ... ... : ... .. A ... ... ... : F#2 00 . P81 : F-# 00 6 ... : ... .. . ... ... : ... .. . ... ... : ... .. . ... ... : ... .. 7 ... ...
ROW AC : G-4 00 8 ... ... ... : ... .. . ... ... ... : F-2 00 . P73 : B-# 00 1 ... : ... .. . ... ... : ... .. 7 ... ... : ... .. 7 ... ... : ... .. 5 ... ...
ROW AD : ... .. 7 ... ... ... : ... .. . ... ... ... : D#2 00 . P8F : ... .. 0 ... : ... .. . ... ... : ... .. . ... ... : ... .. . ... ... : ... .. 3 ... ...
ROW AE : ... .. . ... ... ... : ... .. . ... ... ... : D-2 00 . P88 : ... .. . ... : ... .. . ... ... : ... .. . ... ... : ... .. . ... ... : ... .. . ... ...
ROW AF : ... .. 6 ... ... ... : ... .. . ... ... ... : C#2 00 . P83 : ... .. . ... : ... .. . ... ... : ... .. 6 ... ... : ... .. 6 ... ... : ... .. 2 ... ...
ROW B0 : G#4 00 8 ... ... ... : ... .. . ... ... ... : C-2 00 . P81 : 1-# 00 F ... : ... .. . ... ... : ... .. . ... ... : ... .. . ... ... : ... .. . ... ...
ROW B1 : ... .. 7 ... ... ... : ... .. . ... ... ... : B-1 00 . P82 : ... .. C ... : ... .. . ... ... : ... .. . ... ... : ... .. . ... ... : ... .. 1 ... ...
ROW B2 : ... .. . ... ... ... : ... .. . ... ... ... : A#1 00 . P86 : ... .. 6 ... : ... .. . ... ... : ... .. . ... ... : ... .. . ... ... : ... .. . ... ...
ROW B3 : ... .. 6 ... ... ... : ... .. . ... ... ... : A-1 00 . P8D : ... .. 3 ... : ... .. . ... ... : ... .. . ... ... : ... .. . ... ... : ... .. . ... ...
ROW B4 : A#4 00 8 ... ... ... : ... .. . ... ... ... : G#1 00 . P97 : ... .. F ... : ... .. . ... ... : --- .. . P82 ... : --- .. . ... ... : --- .. . ... ...
ROW B5 : ... .. 7 ... ... ... : ... .. 2 ... ... ... : ... .. . P65 : ... .. C ... : ... .. . ... ... : ... .. . ... ... : ... .. . ... ... : ... .. . ... ...
ROW B6 : ... .. . ... ... ... : ... .. . ... ... ... : G-1 00 . P73 : ... .. 6 ... : ... .. . ... ... : ... .. . ... ... : ... .. . ... ... : ... .. . ... ...
ROW B7 : ... .. 6 ... ... ... : ... .. . ... ... ... : F#1 00 . P85 : ... .. 3 ... : ... .. . ... ... : ... .. . ... ... : ... .. . ... ... : ... .. . ... ...
ROW B8 : B-4 00 8 ... ... ... : ... .. 1 ... ... ... : F-1 00 . P9B : ... .. F ... : ... .. . ... ... : ... .. . ... ... : ... .. . ... ... : ... .. . ... ...
ROW B9 : ... .. 7 ... ... ... : ... .. . ... ... ... : ... .. . P69 : ... .. C ... : ... .. . ... ... : ... .. . ... ... : ... .. . ... ... : ... .. . ... ...
ROW BA : ... .. . ... ... ... : ... .. . ... ... ... : E-1 00 . P83 : ... .. 6 ... : ... .. . ... ... : ... .. . ... ... : ... .. . ... ... : ... .. . ... ...
ROW BB : ... .. 6 ... ... ... : ... .. 0 ... ... ... : D#1 00 . PA2 : ... .. 3 ... : ... .. . ... ... : ... .. . ... ... : ... .. . ... ... : ... .. . ... ...
ROW BC : C#5 00 8 ... ... ... : ... .. . ... ... ... : ... .. . P70 : ... .. 2 ... : ... .. . ... ... : ... .. . ... ... : ... .. . ... ... : ... .. . ... ...
ROW BD : ... .. 7 ... ... ... : ... .. . ... ... ... : D-1 00 . P94 : ... .. 0 ... : ... .. . ... ... : ... .. . ... ... : ... .. . ... ... : ... .. . ... ...
ROW BE : ... .. . ... ... ... : ... .. . ... ... ... : ... .. . P62 : ... .. . ... : ... .. . ... ... : ... .. . ... ... : ... .. . ... ... : ... .. . ... ...
ROW BF : ... .. 6 ... ... ... : ... .. . ... ... ... : C#1 00 . P8A : ... .. . ... : ... .. . ... ... : ... .. . ... ... : ... .. . ... ... : ... .. . ... ...
ROW C0 : D-5 00 8 ... ... ... : F#3 00 F P80 ... ... : C#3 00 . P80 : 5-# 00 D ... : ... .. . ... ... : A-2 01 9 P80 ... : D-5 01 9 ... ... : C#2 01 D ... ...
ROW C1 : ... .. 7 ... ... ... : ... .. E ... ... ... : ... .. . ... : ... .. . ... : ... .. . ... ... : ... .. 8 ... ... : ... .. 8 ... ... : ... .. B ... ...
ROW C2 : ... .. . ... ... ... : ... .. D ... ... ... : ... .. . ... : 1-# 00 D ... : ... .. . ... ... : ... .. . ... ... : ... .. . ... ... : ... .. 9 ... ...
ROW C3 : ... .. 6 ... ... ... : ... .. A ... ... ... : ... .. . ... : F-# 00 6 ... : ... .. . ... ... : ... .. . ... ... : ... .. . ... ... : ... .. 7 ... ...
ROW C4 : C#5 00 8 ... ... ... : ... .. . ... ... ... : ... .. . ... : B-# 00 1 ... : ... .. . ... ... : ... .. 6 ... ... : ... .. 6 ... ... : ... .. 5 ... ...
ROW C5 : ... .. 7 ... ... ... : ... .. 2 ... ... ... : ... .. . ... : ... .. 0 ... : ... .. . ... ... : ... .. 5 ... ... : ... .. 5 ... ... : ... .. 3 ... ...
ROW C6 : ... .. . ... ... ... : ... .. . ... ... ... : --- .. . ... : ... .. . ... : ... .. . ... ... : ... .. . ... ... : ... .. . ... ... : ... .. . ... ...
ROW C7 : ... .. 6 ... ... ... : ... .. . ... ... ... : ... .. . ... : ... .. . ... : ... .. . ... ... : ... .. 4 ... ... : ... .. 4 ... ... : ... .. 2 ... ...
ROW C8 : D-5 00 8 ... ... ... : ... .. F ... ... ... : C#3 00 . ... : 5-# 00 D ... : ... .. . ... ... : ... .. 9 ... ... : ... .. 9 ... ... : ... .. D ... ...
ROW C9 : ... .. 7 ... ... ... : ... .. E ... ... ... : ... .. . ... : ... .. . ... : ... .. . ... ... : ... .. 8 ... ... : ... .. 8 ... ... : ... .. B ... ...
ROW CA : ... .. . ... ... ... : ... .. D ... ... ... : ... .. . ... : 1-# 00 D ... : ... .. . ... ... : ... .. . ... ... : ... .. . ... ... : ... .. 9 ... ...
ROW CB : ... .. 6 ... ... ... : ... .. A ... ... ... : ... .. . ... : F-# 00 6 ... : ... .. . ... ... : ... .. . ... ... : ... .. . ... ... : ... .. 7 ... ...
ROW CC : E-5 00 8 ... ... ... : ... .. . ... ... ... : ... .. . ... : B-# 00 1 ... : ... .. . ... ... : ... .. 6 ... ... : ... .. 6 ... ... : ... .. 5 ... ...
ROW CD : ... .. 7 ... ... ... : ... .. 2 ... ... ... : ... .. . ... : ... .. 0 ... : ... .. . ... ... : ... .. 5 ... ... : ... .. 5 ... ... : ... .. 3 ... ...
ROW CE : ... .. . ... ... ... : ... .. . ... ... ... : --- .. . ... : ... .. . ... : ... .. . ... ... : ... .. . ... ... : ... .. . ... ... : ... .. . ... ...
ROW CF : ... .. 6 ... ... ... : ... .. . ... ... ... : ... .. . ... : ... .. . ... : ... .. . ... ... : ... .. 4 ... ... : ... .. 4 ... ... : ... .. 2 ... ...
ROW D0 : F#5 00 8 ... ... ... : ... .. F ... ... ... : C#3 00 . ... : ... .. C ... : ... .. . ... ... : ... .. 9 ... ... : ... .. 9 ... ... : ... .. D ... ...
ROW D1 : ... .. 7 ... ... ... : ... .. E ... ... ... : ... .. . ... : ... .. . ... : ... .. . ... ... : ... .. 8 ... ... : ... .. 8 ... ... : ... .. B ... ...
ROW D2 : ... .. . ... ... ... : ... .. D ... ... ... : ... .. . ... : ... .. . ... : ... .. . ... ... : ... .. . ... ... : ... .. . ... ... : ... .. 9 ... ...
ROW D3 : ... .. 6 ... ... ... : ... .. A ... ... ... : ... .. . ... : ... .. . ... : ... .. . ... ... : ... .. . ... ... : ... .. . ... ... : ... .. 7 ... ...
ROW D4 : G#5 00 8 ... ... ... : ... .. . ... ... ... : ... .. . ... : ... .. 8 ... : ... .. . ... ... : ... .. 7 ... ... : ... .. 7 ... ... : ... .. 5 ... ...
ROW D5 : ... .. 7 ... ... ... : ... .. . ... ... ... : ... .. . ... : ... .. . ... : ... .. . ... ... : ... .. . ... ... : ... .. . ... ... : ... .. 3 ... ...
ROW D6 : ... .. . ... ... ... : ... .. . ... ... ... : ... .. . ... : ... .. . ... : ... .. . ... ... : ... .. . ... ... : ... .. . ... ... : ... .. . ... ...
ROW D7 : ... .. 6 ... ... ... : ... .. . ... ... ... : ... .. . ... : ... .. . ... : ... .. . ... ... : ... .. 6 ... ... : ... .. 6 ... ... : ... .. 2 ... ...
ROW D8 : A-5 00 8 ... ... ... : ... .. . ... ... ... : ... .. . ... : ... .. 6 ... : ... .. . ... ... : ... .. . ... ... : ... .. . ... ... : ... .. . ... ...
ROW D9 : ... .. 7 ... ... ... : ... .. . ... ... ... : ... .. . ... : ... .. . ... : ... .. . ... ... : ... .. . ... ... : ... .. . ... ... : ... .. 1 ... ...
ROW DA : ... .. . ... ... ... : ... .. . ... ... ... : ... .. . ... : ... .. . ... : ... .. . ... ... : ... .. . ... ... : ... .. . ... ... : ... .. . ... ...
ROW DB : ... .. 6 ... ... ... : ... .. . ... ... ... : ... .. . ... : ... .. . ... : ... .. . ... ... : ... .. . ... ... : ... .. . ... ... : ... .. . ... ...
ROW DC : B-5 00 8 ... ... ... : ... .. . ... ... ... : C-3 00 . P78 : 1-# 00 F ... : ... .. . ... ... : ... .. . ... ... : ... .. . ... ... : ... .. . ... ...
ROW DD : ... .. 7 ... ... ... : ... .. . ... ... ... : A#2 00 . P8C : ... .. C ... : ... .. . ... ... : ... .. . ... ... : ... .. . ... ... : ... .. 0 ... ...
ROW DE : ... .. . ... ... ... : ... .. . ... ... ... : A-2 00 . P88 : ... .. 6 ... : ... .. . ... ... : ... .. . ... ... : ... .. . ... ... : ... .. . ... ...
ROW DF : ... .. 6 ... ... ... : ... .. . ... ... ... : G#2 00 . P87 : ... .. 3 ... : ... .. . ... ... : ... .. . ... ... : ... .. . ... ... : ... .. . ... ...
ROW E0 : A-5 00 8 ... ... ... : ... .. . ... ... ... : G-2 00 . ... : ... .. F ... : ... .. . ... ... : --- .. . P82 ... : --- .. . ... ... : --- .. . ... ...
ROW E1 : ... .. 7 ... ... ... : ... .. 2 ... ... ... : F#2 00 . P89 : ... .. C ... : ... .. . ... ... : ... .. . ... ... : ... .. . ... ... : ... .. . ... ...
ROW E2 : ... .. . ... ... ... : ... .. . ... ... ... : F-2 00 . P8D : ... .. 6 ... : ... .. . ... ... : ... .. . ... ... : ... .. . ... ... : ... .. . ... ...
ROW E3 : ... .. 6 ... ... ... : ... .. . ... ... ... : E-2 00 . P93 : ... .. 3 ... : ... .. . ... ... : ... .. . ... ... : ... .. . ... ... : ... .. . ... ...
ROW E4 : G#5 00 8 ... ... ... : ... .. 1 ... ... ... : ... .. . P73 : ... .. 2 ... : ... .. . ... ... : ... .. . ... ... : ... .. . ... ... : ... .. . ... ...
ROW E5 : ... .. 7 ... ... ... : ... .. . ... ... ... : D#2 00 . P7B : ... .. 0 ... : ... .. . ... ... : ... .. . ... ... : ... .. . ... ... : ... .. . ... ...
ROW E6 : ... .. . ... ... ... : ... .. . ... ... ... : D-2 00 . P86 : ... .. . ... : ... .. . ... ... : ... .. . ... ... : ... .. . ... ... : ... .. . ... ...
ROW E7 : ... .. 6 ... ... ... : ... .. 0 ... ... ... : C#2 00 . P93 : ... .. . ... : ... .. . ... ... : ... .. . ... ... : ... .. . ... ... : ... .. . ... ...
ROW E8 : A-5 00 8 ... ... ... : F#3 00 F P80 ... ... : B-2 00 . P7F : 5-# 00 D ... : ... .. . ... ... : A-2 01 9 P80 ... : D-5 01 9 ... ... : C#2 01 D ... ...
ROW E9 : ... .. 7 ... ... ... : ... .. E ... ... ... : A-2 00 . P84 : ... .. . ... : ... .. . ... ... : ... .. 8 ... ... : ... .. 8 ... ... : ... .. B ... ...
ROW EA : ... .. . ... ... ... : ... .. D ... ... ... : G#2 00 . P71 : 1-# 00 D ... : ... .. . ... ... : ... .. . ... ... : ... .. . ... ... : ... .. 9 ... ...
ROW EB : ... .. 6 ... ... ... : ... .. A ... ... ... : F#2 00 . P81 : F-# 00 6 ... : ... .. . ... ... : ... .. . ... ... : ... .. . ... ... : ... .. 7 ... ...
ROW EC : B-5 00 8 ... ... ... : ... .. . ... ... ... : F-2 00 . P73 : B-# 00 1 ... : ... .. . ... ... : ... .. 7 ... ... : ... .. 7 ... ... : ... .. 5 ... ...
ROW ED : ... .. 7 ... ... ... : ... .. . ... ... ... : D#2 00 . P8F : ... .. 0 ... : ... .. . ... ... : ... .. . ... ... : ... .. . ... ... : ... .. 3 ... ...
ROW EE : ... .. . ... ... ... : ... .. . ... ... ... : D-2 00 . P88 : ... .. . ... : ... .. . ... ... : ... .. . ... ... : ... .. . ... ... : ... .. . ... ...
ROW EF : ... .. 6 ... ... ... : ... .. . ... ... ... : C#2 00 . P83 : ... .. . ... : ... .. . ... ... : ... .. 6 ... ... : ... .. 6 ... ... : ... .. 2 ... ...
ROW F0 : C#6 00 8 ... ... ... : ... .. . ... ... ... : C-2 00 . P81 : 7-# 00 1 ... : ... .. . ... ... : ... .. . ... ... : ... .. . ... ... : ... .. . ... ...
ROW F1 : ... .. 7 ... ... ... : ... .. . ... ... ... : B-1 00 . P82 : ... .. . ... : ... .. . ... ... : ... .. . ... ... : ... .. . ... ... : ... .. 1 ... ...
ROW F2 : ... .. . ... ... ... : ... .. . ... ... ... : A#1 00 . P86 : ... .. . ... : ... .. . ... ... : ... .. . ... ... : ... .. . ... ... : ... .. . ... ...
ROW F3 : ... .. 6 ... ... ... : ... .. . ... ... ... : A-1 00 . P8D : ... .. . ... : ... .. . ... ... : ... .. . ... ... : ... .. . ... ... : ... .. . ... ...
ROW F4 : D-6 00 8 ... ... ... : ... .. . ... ... ... : G#1 00 . P97 : ... .. . ... : ... .. . ... ... : ... .. . ... ... : ... .. . ... ... : ... .. . ... ...
ROW F5 : ... .. 7 ... ... ... : ... .. . ... ... ... : ... .. . P65 : ... .. . ... : ... .. . ... ... : ... .. . ... ... : ... .. . ... ... : ... .. 0 ... ...
ROW F6 : ... .. . ... ... ... : ... .. . ... ... ... : G-1 00 . P73 : ... .. . ... : ... .. . ... ... : ... .. . ... ... : ... .. . ... ... : ... .. . ... ...
ROW F7 : ... .. 6 ... ... ... : ... .. . ... ... ... : F#1 00 . P85 : ... .. . ... : ... .. . ... ... : ... .. . ... ... : ... .. . ... ... : ... .. . ... ...
ROW F8 : E-6 00 8 ... ... ... : ... .. . ... ... ... : A#4 00 . P7E : ... .. . ... : ... .. . ... ... : ... .. . ... ... : ... .. . ... ... : ... .. . ... ...
ROW F9 : ... .. 7 ... ... ... : ... .. . ... ... ... : G#4 00 . ... : ... .. . ... : ... .. . ... ... : ... .. . ... ... : ... .. . ... ... : ... .. . ... ...
ROW FA : ... .. . ... ... ... : ... .. . ... ... ... : F#4 00 . P7F : ... .. . ... : ... .. . ... ... : ... .. . ... ... : ... .. . ... ... : ... .. . ... ...
ROW FB : ... .. 6 ... ... ... : ... .. . ... ... ... : E-4 00 . P83 : ... .. . ... : ... .. . ... ... : ... .. . ... ... : ... .. . ... ... : ... .. . ... ...
ROW FC : F#6 00 8 ... ... ... : ... .. 0 ... ... ... : A#4 00 . P7E : ... .. . ... : ... .. . ... ... : --- .. . P82 ... : --- .. . ... ... : --- .. . ... ...
ROW FD : ... .. 7 ... ... ... : ... .. . ... ... ... : G#4 00 . ... : ... .. . ... : ... .. . ... ... : ... .. . ... ... : ... .. . ... ... : ... .. . ... ...
ROW FE : ... .. . ... ... ... : ... .. . ... ... ... : F#4 00 . P7F : ... .. . ... : ... .. . ... ... : ... .. . ... ... : ... .. . ... ... : ... .. . ... ...
ROW FF : ... .. 6 ... ... ... : ... .. . ... ... ... : E-4 00 . P83 : ... .. . ... : ... .. . ... ... : ... .. . ... ... : ... .. . ... ... : ... .. . ... ...

PATTERN 02
ROW 00 : C#6 00 5 ... ... ... : F#3 00 8 P80 ... ... : A#4 00 . P7E : ... .. . ... : ... .. . ... ... : A-2 01 4 P80 ... : D-5 01 4 ... ... : C#2 01 6 ... ...
ROW 01 : ... .. 4 ... ... ... : ... .. 7 ... ... ... : G#4 00 . ... : ... .. . ... : ... .. . ... ... : ... .. . ... ... : ... .. . ... ... : ... .. 5 ... ...
ROW 02 : ... .. . ... ... ... : ... .. 6 ... ... ... : F#4 00 . P7F : ... .. . ... : ... .. . ... ... : ... .. . ... ... : ... .. . ... ... : ... .. 4 ... ...
ROW 03 : ... .. . ... ... ... : ... .. 5 ... ... ... : E-4 00 . P83 : ... .. . ... : ... .. . ... ... : ... .. . ... ... : ... .. . ... ... : ... .. 3 ... ...
ROW 04 : D-6 00 5 ... ... ... : ... .. . ... ... ... : D#4 00 . P7E : ... .. . ... : ... .. . ... ... : ... .. 3 ... ... : ... .. 3 ... ... : ... .. 2 ... ...
ROW 05 : ... .. 4 ... ... ... : ... .. . ... ... ... : C#4 00 . P85 : ... .. . ... : ... .. . ... ... : ... .. . ... ... : ... .. . ... ... : ... .. 1 ... ...
ROW 06 : ... .. . ... ... ... : ... .. . ... ... ... : C-4 00 . P82 : ... .. . ... : ... .. . ... ... : ... .. . ... ... : ... .. . ... ... : ... .. . ... ...
ROW 07 : ... .. . ... ... ... : ... .. . ... ... ... : B-3 00 . P7F : ... .. . ... : ... .. . ... ... : ... .. . ... ... : ... .. . ... ... : ... .. . ... ...
ROW 08 : E-6 00 5 ... ... ... : ... .. . ... ... ... : G-4 00 . P81 : B-# 00 2 ... : ... .. . ... ... : ... .. . ... ... : ... .. . ... ... : ... .. . ... ...
ROW 09 : ... .. 4 ... ... ... : ... .. . ... ... ... : F-4 00 . P83 : ... .. . ... : ... .. . ... ... : ... .. . ... ... : ... .. . ... ... : ... .. . ... ...
ROW 0A : ... .. . ... ... ... : ... .. . ... ... ... : E-4 00 . P7E : ... .. . ... : ... .. . ... ... : ... .. . ... ... : ... .. . ... ... : ... .. . ... ...
ROW 0B : ... .. . ... ... ... : ... .. . ... ... ... : D-4 00 . P83 : ... .. . ... : ... .. . ... ... : ... .. . ... ... : ... .. . ... ... : ... .. . ... ...
ROW 0C : F#6 00 5 ... ... ... : ... .. . ... ... ... : C#4 00 . P80 : ... .. 3 ... : ... .. . ... ... : ... .. . ... ... : ... .. . ... ... : ... .. . ... ...
ROW 0D : ... .. 4 ... ... ... : ... .. . ... ... ... : C-4 00 . P7D : ... .. . ... : ... .. . ... ... : ... .. . ... ... : ... .. . ... ... : ... .. 0 ... ...
ROW 0E : ... .. . ... ... ... : ... .. . ... ... ... : B-3 00 . P7A : ... .. . ... : ... .. . ... ... : ... .. . ... ... : ... .. . ... ... : ... .. . ... ...
ROW 0F : ... .. . ... ... ... : ... .. . ... ... ... : A-3 00 . P87 : ... .. . ... : ... .. . ... ... : ... .. . ... ... : ... .. . ... ... : ... .. . ... ...
ROW 10 : C#6 00 2 ... ... ... : ... .. . ... ... ... : G-4 00 . P81 : 9-# 00 5 ... : ... .. . ... ... : --- .. . P82 ... : --- .. . ... ... : --- .. . ... ...
ROW 11 : ... .. . ... ... ... : ... .. . ... ... ... : F-4 00 . P83 : ... .. . ... : ... .. . ... ... : ... .. . ... ... : ... .. . ... ... : ... .. . ... ...
ROW 12 : ... .. . ... ... ... : ... .. . ... ... ... : E-4 00 . P7E : ... .. . ... : ... .. . ... ... : ... .. . ... ... : ... .. . ... ... : ... .. . ... ...
ROW 13 : ... .. . ... ... ... : ... .. . ... ... ... : D-4 00 . P83 : ... .. . ... : ... .. . ... ... : ... .. . ... ... : ... .. . ... ... : ... .. . ... ...
ROW 14 : D-6 00 2 ... ... ... : ... .. 0 ... ... ... : C#4 00 . P80 : ... .. 6 ... : ... .. . ... ... : ... .. . ... ... : ... .. . ... ... : ... .. . ... ...
ROW 15 : ... .. . ... ... ... : ... .. . ... ... ... : C-4 00 . P7D : ... .. . ... : ... .. . ... ... : ... .. . ... ... : ... .. . ... ... : ... .. . ... ...
ROW 16 : ... .. . ... ... ... : ... .. . ... ... ... : B-3 00 . P7A : ... .. . ... : ... .. . ... ... : ... .. . ... ... : ... .. . ... ... : ... .. . ... ...
ROW 17 : ... .. . ... ... ... : ... .. . ... ... ... : A-3 00 . P87 : ... .. . ... : ... .. . ... ... : ... .. . ... ... : ... .. . ... ... : ... .. . ... ...
ROW 18 : E-6 00 2 ... ... ... : F#3 00 4 P80 ... ... : D-4 00 . P85 : 7-# 00 8 ... : ... .. . ... ... : A-2 01 2 P80 ... : D-5 01 2 ... ... : C#2 01 3 ... ...
ROW 19 : ... .. . ... ... ... : ... .. 3 ... ... ... : C#4 00 . P82 : ... .. . ... : ... .. . ... ... : ... .. . ... ... : ... .. . ... ... : ... .. 2 ... ...
ROW 1A : ... .. . ... ... ... : ... .. . ... ... ... : C-4 00 . P7F : ... .. . ... : ... .. . ... ... : ... .. . ... ... : ... .. . ... ... : ... .. . ... ...
ROW 1B : ... .. . ... ... ... : ... .. 2 ... ... ... : B-3 00 . P7C : ... .. . ... : ... .. . ... ... : ... .. . ... ... : ... .. . ... ... : ... .. 1 ... ...
ROW 1C : F#6 00 2 ... ... ... : ... .. . ... ... ... : A#3 00 . P7B : ... .. 7 ... : ... .. . ... ... : ... .. 1 ... ... : ... .. 1 ... ... : ... .. . ... ...
ROW 1D : ... .. . ... ... ... : ... .. . ... ... ... : A-3 00 . P7A : ... .. . ... : ... .. . ... ... : ... .. . ... ... : ... .. . ... ... : ... .. . ... ...
ROW 1E : ... .. . ... ... ... : ... .. . ... ... ... : G#3 00 . ... : ... .. . ... : ... .. . ... ... : ... .. . ... ... : ... .. . ... ... : ... .. . ... ...
ROW 1F : ... .. . ... ... ... : ... .. . ... ... ... : G-3 00 . P7B : ... .. . ... : ... .. . ... ... : ... .. . ... ... : ... .. . ... ... : ... .. . ... ...
ROW 20 : C#6 00 1 ... ... ... : ... .. . ... ... ... : D-4 00 . P85 : 5-# 00 6 ... : ... .. . ... ... : ... .. . ... ... : ... .. . ... ... : ... .. . ... ...
ROW 21 : ... .. . ... ... ... : ... .. . ... ... ... : C#4 00 . P82 : ... .. . ... : ... .. . ... ... : ... .. . ... ... : ... .. . ... ... : ... .. . ... ...
ROW 22 : ... .. . ... ... ... : ... .. . ... ... ... : C-4 00 . P7F : ... .. . ... : ... .. . ... ... : ... .. . ... ... : ... .. . ... ... : ... .. . ... ...
ROW 23 : ... .. . ... ... ... : ... .. . ... ... ... : B-3 00 . P7C : ... .. . ... : ... .. . ... ... : ... .. . ... ... : ... .. . ... ... : ... .. . ... ...
ROW 24 : D-6 00 1 ... ... ... : ... .. . ... ... ... : A#3 00 . P7B : ... .. 5 ... : ... .. . ... ... : ... .. . ... ... : ... .. . ... ... : ... .. . ... ...
ROW 25 : ... .. . ... ... ... : ... .. . ... ... ... : A-3 00 . P7A : ... .. . ... : ... .. . ... ... : ... .. . ... ... : ... .. . ... ... : ... .. 0 ... ...
ROW 26 : ... .. . ... ... ... : ... .. . ... ... ... : G#3 00 . ... : ... .. . ... : ... .. . ... ... : ... .. . ... ... : ... .. . ... ... : ... .. . ... ...
ROW 27 : ... .. . ... ... ... : ... .. . ... ... ... : G-3 00 . P7B : ... .. . ... : ... .. . ... ... : ... .. . ... ... : ... .. . ... ... : ... .. . ... ...
ROW 28 : E-6 00 1 ... ... ... : ... .. . ... ... ... : A#3 00 . P7F : 6-# 00 4 ... : ... .. . ... ... : ... .. . ... ... : ... .. . ... ... : ... .. . ... ...
ROW 29 : ... .. . ... ... ... : ... .. . ... ... ... : A-3 00 . P7E : ... .. . ... : ... .. . ... ... : ... .. . ... ... : ... .. . ... ... : ... .. . ... ...
ROW 2A : ... .. . ... ... ... : ... .. . ... ... ... : G#3 00 . ... : ... .. . ... : ... .. . ... ... : ... .. . ... ... : ... .. . ... ... : ... .. . ... ...
ROW 2B : ... .. . ... ... ... : ... .. . ... ... ... : G-3 00 . P7F : ... .. . ... : ... .. . ... ... : ... .. . ... ... : ... .. . ... ... : ... .. . ... ...
ROW 2C : F#6 00 1 ... ... ... : ... .. 0 ... ... ... : F#3 00 . P81 : ... .. 5 ... : ... .. . ... ... : --- .. . P82 ... : --- .. . ... ... : --- .. . ... ...
ROW 2D : ... .. . ... ... ... : ... .. . ... ... ... : F-3 00 . P84 : ... .. . ... : ... .. . ... ... : ... .. . ... ... : ... .. . ... ... : ... .. . ... ...
ROW 2E : ... .. . ... ... ... : ... .. . ... ... ... : E-3 00 . P88 : ... .. . ... : ... .. . ... ... : ... .. . ... ... : ... .. . ... ... : ... .. . ... ...
ROW 2F : ... .. . ... ... ... : ... .. . ... ... ... : ... .. . P79 : ... .. . ... : ... .. . ... ... : ... .. . ... ... : ... .. . ... ... : ... .. . ... ...
ROW 30 : ... .. 0 ... ... ... : ... .. . ... ... ... : A#3 00 . P7F : 7-# 00 4 ... : ... .. . ... ... : ... .. . ... ... : ... .. . ... ... : ... .. . ... ...
ROW 31 : ... .. . ... ... ... : ... .. . ... ... ... : A-3 00 . P7E : ... .. . ... : ... .. . ... ... : ... .. . ... ... : ... .. . ... ... : ... .. . ... ...
ROW 32 : ... .. . ... ... ... : ... .. . ... ... ... : G#3 00 . ... : ... .. . ... : ... .. . ... ... : ... .. . ... ... : ... .. . ... ... : ... .. . ... ...
ROW 33 : ... .. . ... ... ... : ... .. . ... ... ... : G-3 00 . P7F : ... .. . ... : ... .. . ... ... : ... .. . ... ... : ... .. . ... ... : ... .. . ... ...
ROW 34 : ... .. . ... ... ... : ... .. . ... ... ... : F#3 00 . P81 : 8-# 00 4 ... : ... .. . ... ... : ... .. . ... ... : ... .. . ... ... : ... .. . ... ...
ROW 35 : ... .. . ... ... ... : ... .. . ... ... ... : F-3 00 . P84 : ... .. . ... : ... .. . ... ... : ... .. . ... ... : ... .. . ... ... : ... .. . ... ...
ROW 36 : ... .. . ... ... ... : ... .. . ... ... ... : E-3 00 . P88 : ... .. . ... : ... .. . ... ... : ... .. . ... ... : ... .. . ... ... : ... .. . ... ...
ROW 37 : ... .. . ... ... ... : ... .. . ... ... ... : ... .. . P79 : ... .. . ... : ... .. . ... ... : ... .. . ... ... : ... .. . ... ... : ... .. . ... ...
ROW 38 : ... .. . ... ... ... : ... .. . ... ... ... : F#3 00 . P82 : 9-# 00 4 ... : ... .. . ... ... : ... .. . ... ... : ... .. . ... ... : ... .. . ... ...
ROW 39 : ... .. . ... ... ... : ... .. . ... ... ... : F-3 00 . P85 : ... .. . ... : ... .. . ... ... : ... .. . ... ... : ... .. . ... ... : ... .. . ... ...
ROW 3A : ... .. . ... ... ... : ... .. . ... ... ... : E-3 00 . P89 : ... .. . ... : ... .. . ... ... : ... .. . ... ... : ... .. . ... ... : ... .. . ... ...
ROW 3B : ... .. . ... ... ... : ... .. . ... ... ... : ... .. . P7A : ... .. . ... : ... .. . ... ... : ... .. . ... ... : ... .. . ... ... : ... .. . ... ...
ROW 3C : ... .. . ... ... ... : ... .. . ... ... ... : D#3 00 . P80 : B-# 00 4 ... : ... .. . ... ... : ... .. . ... ... : ... .. . ... ... : ... .. . ... ...
ROW 3D : ... .. . ... ... ... : ... .. . ... ... ... : D-3 00 . P86 : ... .. . ... : ... .. . ... ... : ... .. . ... ... : ... .. . ... ... : ... .. . ... ...
ROW 3E : ... .. . ... ... ... : ... .. . ... ... ... : ... .. . P77 : ... .. . ... : ... .. . ... ... : ... .. . ... ... : ... .. . ... ... : ... .. . ... ...
ROW 3F : ... .. . ... ... ... : ... .. . ... ... ... : C#3 00 . P7F : ... .. . ... : ... .. . ... ... : ... .. . ... ... : ... .. . ... ... : ... .. . ... ...
ROW 40 : ... .. . ... ... ... : C#1 00 A P80 ... ... : A#2 00 . P82 : C-# 00 B ... : ... .. . ... ... : E-3 01 6 P80 V03 : G#3 01 6 ... V03 : C#1 01 F ... ...
ROW 41 : ... .. . ... ... ... : ... .. 8 ... ... ... : G#2 00 . P8B : ... .. . ... : ... .. . ... ... : ... .. . ... ... : ... .. . ... ... : ... .. D ... ...
ROW 42 : ... .. . ... ... ... : ... .. . ... ... ... : G-2 00 . P79 : ... .. . ... : ... .. . ... ... : ... .. 5 ... ... : ... .. 5 ... ... : ... .. 8 ... ...
ROW 43 : ... .. . ... ... ... : ... .. . ... ... ... : F-2 00 . P8D : ... .. . ... : ... .. . ... ... : ... .. 4 ... ... : ... .. 4 ... ... : ... .. . ... ...
ROW 44 : ... .. . ... ... ... : ... .. 4 ... ... ... : E-2 00 . P81 : ... .. 9 ... : ... .. . ... ... : ... .. 2 ... ... : ... .. 2 ... ... : ... .. . ... ...
ROW 45 : ... .. . ... ... ... : ... .. 3 ... ... ... : D#2 00 . P77 : ... .. . ... : ... .. . ... ... : ... .. . ... ... : ... .. . ... ... : ... .. . ... ...
ROW 46 : ... .. . ... ... ... : ... .. . ... ... ... : --- .. . ... : ... .. . ... : ... .. . ... ... : ... .. . ... ... : ... .. . ... ... : --- .. . P81 ...
ROW 47 : ... .. . ... ... ... : ... .. . ... ... ... : ... .. . ... : ... .. . ... : ... .. . ... ... : ... .. . ... ... : ... .. . ... ... : ... .. . ... ...
ROW 48 : ... .. . ... ... ... : G#1 00 A ... ... ... : C#2 00 . P80 : ... .. 7 ... : ... .. . ... ... : ... .. 6 ... ... : ... .. 6 ... ... : C#0 01 F P80 ...
ROW 49 : ... .. . ... ... ... : ... .. 8 ... ... ... : ... .. . ... : ... .. . ... : ... .. . ... ... : ... .. . ... ... : ... .. . ... ... : ... .. D ... ...
ROW 4A : ... .. . ... ... ... : ... .. . ... ... ... : ... .. . ... : ... .. . ... : ... .. . ... ... : ... .. 5 ... ... : ... .. 5 ... ... : ... .. 8 ... ...
ROW 4B : ... .. . ... ... ... : ... .. . ... ... ... : ... .. . ... : ... .. . ... : ... .. . ... ... : ... .. 4 ... ... : ... .. 4 ... ... : ... .. . ... ...
ROW 4C : ... .. . ... ... ... : ... .. 4 ... ... ... : ... .. . ... : ... .. 6 ... : ... .. . ... ... : ... .. 2 ... ... : ... .. 2 ... ... : ... .. . ... ...
ROW 4D : ... .. . ... ... ... : ... .. 3 ... ... ... : ... .. . ... : ... .. . ... : ... .. . ... ... : ... .. . ... ... : ... .. . ... ... : ... .. . ... ...
ROW 4E : ... .. . ... ... ... : ... .. . ... ... ... : ... .. . ... : ... .. . ... : ... .. . ... ... : ... .. . ... ... : ... .. . ... ... : ... .. . ... ...
ROW 4F : ... .. . ... ... ... : ... .. . ... ... ... : ... .. . ... : ... .. . ... : ... .. . ... ... : ... .. . ... ... : ... .. . ... ... : ... .. . ... ...
ROW 50 : ... .. . ... ... ... : E-2 00 A ... ... ... : ... .. . ... : ... .. 4 ... : ... .. . ... ... : ... .. 6 ... ... : ... .. 6 ... ... : ... .. . ... ...
ROW 51 : ... .. . ... ... ... : ... .. 8 ... ... ... : ... .. . ... : ... .. . ... : ... .. . ... ... : ... .. . ... ... : ... .. . ... ... : ... .. . ... ...
ROW 52 : ... .. . ... ... ... : ... .. . ... ... ... : ... .. . ... : ... .. . ... : ... .. . ... ... : ... .. 5 ... ... : ... .. 5 ... ... : ... .. . ... ...
ROW 53 : ... .. . ... ... ... : ... .. . ... ... ... : ... .. . ... : ... .. . ... : ... .. . ... ... : ... .. 4 ... ... : ... .. 4 ... ... : ... .. . ... ...
ROW 54 : ... .. . ... ... ... : ... .. 4 ... ... ... : ... .. . ... : ... .. 3 ... : ... .. . ... ... : ... .. 2 ... ... : ... .. 2 ... ... : ... .. . ... ...
ROW 55 : ... .. . ... ... ... : ... .. 3 ... ... ... : ... .. . ... : ... .. . ... : ... .. . ... ... : ... .. . ... ... : ... .. . ... ... : ... .. . ... ...
ROW 56 : ... .. . ... ... ... : ... .. . ... ... ... : --- .. . ... : ... .. . ... : ... .. . ... ... : ... .. . ... ... : ... .. . ... ... : --- .. . P83 ...
ROW 57 : ... .. . ... ... ... : ... .. . ... ... ... : ... .. . ... : ... .. . ... : ... .. . ... ... : ... .. . ... ... : ... .. . ... ... : ... .. . ... ...
ROW 58 : ... .. . ... ... ... : C#2 00 A ... ... ... : C#2 00 . ... : ... .. 1 ... : ... .. . ... ... : ... .. 6 ... ... : ... .. 6 ... ... : C#0 01 F P80 ...
ROW 59 : ... .. . ... ... ... : ... .. 8 ... ... ... : ... .. . ... : ... .. . ... : ... .. . ... ... : ... .. . ... ... : ... .. . ... ... : ... .. D ... ...
ROW 5A : ... .. . ... ... ... : ... .. . ... ... ... : ... .. . ... : ... .. . ... : ... .. . ... ... : ... .. 5 ... ... : ... .. 5 ... ... : ... .. 8 ... ...
ROW 5B : ... .. . ... ... ... : ... .. . ... ... ... : ... .. . ... : ... .. . ... : ... .. . ... ... : ... .. 4 ... ... : ... .. 4 ... ... : ... .. . ... ...
ROW 5C : ... .. . ... ... ... : ... .. 4 ... ... ... : ... .. . ... : ... .. 0 ... : ... .. . ... ... : ... .. 2 ... ... : ... .. 2 ... ... : ... .. . ... ...
ROW 5D : ... .. . ... ... ... : ... .. 3 ... ... ... : ... .. . ... : ... .. . ... : ... .. . ... ... : ... .. . ... ... : ... .. . ... ... : ... .. . ... ...
ROW 5E : ... .. . ... ... ... : ... .. . ... ... ... : ... .. . ... : ... .. . ... : ... .. . ... ... : ... .. . ... ... : ... .. . ... ... : ... .. . ... ...
ROW 5F : ... .. . ... ... ... : ... .. . ... ... ... : ... .. . ... : ... .. . ... : ... .. . ... ... : ... .. . ... ... : ... .. . ... ... : ... .. . ... ...
ROW 60 : G#2 00 F P80 ... ... : G#2 00 A ... ... ... : B-3 00 . P7D : 5-# 00 D ... : ... .. . ... ... : ... .. 6 ... ... : ... .. 6 ... ... : ... .. . ... ...
ROW 61 : ... .. E ... ... ... : ... .. 8 ... ... ... : A#3 00 . P7C : ... .. . ... : ... .. . ... ... : ... .. . ... ... : ... .. . ... ... : ... .. . ... ...
ROW 62 : ... .. D ... ... ... : ... .. . ... ... ... : A-3 00 . P7B : 1-# 00 D ... : ... .. . ... ... : ... .. 5 ... ... : ... .. 5 ... ... : ... .. . ... ...
ROW 63 : ... .. A ... ... ... : ... .. . ... ... ... : G#3 00 . ... : F-# 00 6 ... : ... .. . ... ... : ... .. 4 ... ... : ... .. 4 ... ... : ... .. . ... ...
ROW 64 : ... .. . ... ... ... : ... .. 4 ... ... ... : G-3 00 . P7C : B-# 00 1 ... : ... .. . ... ... : ... .. 2 ... ... : ... .. 2 ... ... : ... .. . ... ...
ROW 65 : ... .. . ... ... ... : ... .. 3 ... ... ... : F#3 00 . P7E : ... .. 0 ... : ... .. . ... ... : ... .. . ... ... : ... .. . ... ... : ... .. . ... ...
ROW 66 : ... .. . ... ... ... : ... .. . ... ... ... : --- .. . ... : ... .. . ... : ... .. . ... ... : ... .. . ... ... : ... .. . ... ... : --- .. . P83 ...
ROW 67 : ... .. . ... ... ... : ... .. . ... ... ... : ... .. . ... : ... .. . ... : ... .. . ... ... : ... .. . ... ... : ... .. . ... ... : ... .. . ... ...
ROW 68 : ... .. . ... ... ... : E-3 00 A ... ... ... : C#2 00 . P80 : E-# 00 A ... : ... .. . ... ... : ... .. 6 ... ... : ... .. 6 ... ... : C#0 01 F P80 ...
ROW 69 : ... .. . ... ... ... : ... .. 8 ... ... ... : ... .. . ... : ... .. 8 ... : ... .. . ... ... : ... .. . ... ... : ... .. . ... ... : ... .. D ... ...
ROW 6A : ... .. . ... ... ... : ... .. . ... ... ... : ... .. . ... : ... .. 4 ... : ... .. . ... ... : ... .. 5 ... ... : ... .. 5 ... ... : ... .. 8 ... ...
ROW 6B : ... .. . ... ... ... : ... .. . ... ... ... : ... .. . ... : ... .. 2 ... : ... .. . ... ... : ... .. 4 ... ... : ... .. 4 ... ... : ... .. . ... ...
ROW 6C : ... .. . ... ... ... : ... .. 4 ... ... ... : ... .. . ... : ... .. 1 ... : ... .. . ... ... : ... .. 2 ... ... : ... .. 2 ... ... : ... .. . ... ...
ROW 6D : ... .. 2 ... ... ... : ... .. 3 ... ... ... : ... .. . ... : ... .. 0 ... : ... .. . ... ... : ... .. . ... ... : ... .. . ... ... : ... .. . ... ...
ROW 6E : ... .. . ... ... ... : ... .. . ... ... ... : --- .. . ... : ... .. . ... : ... .. . ... ... : ... .. . ... ... : ... .. . ... ... : --- .. . P83 ...
ROW 6F : ... .. . ... ... ... : ... .. . ... ... ... : ... .. . ... : ... .. . ... : ... .. . ... ... : ... .. . ... ... : ... .. . ... ... : ... .. . ... ...
ROW 70 : D#3 00 F ... ... ... : B-2 00 A ... ... ... : B-2 00 . ... : ... .. F ... : ... .. . ... ... : ... .. 6 ... ... : ... .. 6 ... ... : B-0 01 F P80 ...
ROW 71 : ... .. E ... ... ... : ... .. 8 ... ... ... : ... .. . ... : ... .. C ... : ... .. . ... ... : ... .. . ... ... : ... .. . ... ... : ... .. D ... ...
ROW 72 : ... .. D ... ... ... : ... .. . ... ... ... : ... .. . ... : ... .. 6 ... : ... .. . ... ... : ... .. 5 ... ... : ... .. 5 ... ... : ... .. 8 ... ...
ROW 73 : ... .. A ... ... ... : ... .. . ... ... ... : ... .. . ... : ... .. 3 ... : ... .. . ... ... : ... .. 4 ... ... : ... .. 4 ... ... : ... .. . ... ...
ROW 74 : ... .. . ... ... ... : ... .. 4 ... ... ... : ... .. . ... : ... .. 2 ... : ... .. . ... ... : ... .. 2 ... ... : ... .. 2 ... ... : ... .. . ... ...
ROW 75 : ... .. . P89 ... ... : ... .. 3 ... ... ... : ... .. . ... : ... .. 0 ... : ... .. . ... ... : ... .. . ... ... : ... .. . ... ... : ... .. . ... ...
ROW 76 : E-3 00 A P7D ... ... : ... .. . ... ... ... : --- .. . ... : ... .. . ... : ... .. . ... ... : ... .. . ... ... : ... .. . ... ... : --- .. . ... ...
ROW 77 : ... .. . P80 ... ... : ... .. . ... ... ... : ... .. . ... : ... .. . ... : ... .. . ... ... : ... .. . ... ... : ... .. . ... ... : ... .. . ... ...
ROW 78 : ... .. . ... ... ... : C#3 00 A ... ... ... : C#3 00 . ... : D-# 00 A ... : ... .. . ... ... : ... .. 6 ... ... : ... .. 6 ... ... : C#1 01 F ... ...
ROW 79 : ... .. 2 ... ... ... : ... .. 8 ... ... ... : ... .. . ... : ... .. . ... : ... .. . ... ... : ... .. . ... ... : ... .. . ... ... : ... .. D ... ...
ROW 7A : ... .. . ... ... ... : ... .. . ... ... ... : ... .. . ... : ... .. . ... : ... .. . ... ... : ... .. 5 ... ... : ... .. 5 ... ... : ... .. 8 ... ...
ROW 7B : ... .. . ... ... ... : ... .. . ... ... ... : ... .. . ... : ... .. . ... : ... .. . ... ... : ... .. 4 ... ... : ... .. 4 ... ... : ... .. . ... ...
ROW 7C : ... .. 1 ... ... ... : ... .. 4 ... ... ... : ... .. . ... : ... .. . ... : ... .. . ... ... : ... .. 2 ... ... : ... .. 2 ... ... : ... .. . ... ...
ROW 7D : ... .. . ... ... ... : ... .. 3 ... ... ... : ... .. . ... : ... .. . ... : ... .. . ... ... : ... .. . ... ... : ... .. . ... ... : ... .. . ... ...
ROW 7E : ... .. . ... ... ... : ... .. . ... ... ... : --- .. . ... : ... .. . ... : ... .. . ... ... : ... .. . ... ... : ... .. . ... ... : --- .. . P81 ...
ROW 7F : ... .. 0 ... ... ... : ... .. . ... ... ... : ... .. . ... : ... .. . ... : ... .. . ... ... : ... .. . ... ... : ... .. . ... ... : ... .. . ... ...
ROW 80 : D#3 00 F P80 ... ... : C#1 00 A ... ... ... : A#2 00 . P82 : 1-# 00 F ... : ... .. . ... ... : ... .. 6 ... ... : ... .. 6 ... ... : B-1 01 F P80 ...
ROW 81 : ... .. E ... ... ... : ... .. 8 ... ... ... : G#2 00 . P8B : ... .. C ... : ... .. . ... ... : ... .. . ... ... : ... .. . ... ... : ... .. D ... ...
ROW 82 : ... .. D ... ... ... : ... .. . ... ... ... : G-2 00 . P79 : ... .. 6 ... : ... .. . ... ... : ... .. 5 ... ... : ... .. 5 ... ... : ... .. 8 ... ...
ROW 83 : ... .. A ... ... ... : ... .. . ... ... ... : F-2 00 . P8D : ... .. 3 ... : ... .. . ... ... : ... .. 4 ... ... : ... .. 4 ... ... : ... .. . ... ...
ROW 84 : ... .. . ... ... ... : ... .. 4 ... ... ... : E-2 00 . P81 : ... .. 2 ... : ... .. . ... ... : ... .. 2 ... ... : ... .. 2 ... ... : ... .. . ... ...
ROW 85 : ... .. . ... ... ... : ... .. 3 ... ... ... : D#2 00 . P77 : ... .. 0 ... : ... .. . ... ... : ... .. . ... ... : ... .. . ... ... : ... .. . ... ...
ROW 86 : ... .. . ... ... ... : ... .. . ... ... ... : --- .. . ... : ... .. . ... : ... .. . ... ... : ... .. . ... ... : ... .. . ... ... : --- .. . P86 ...
ROW 87 : ... .. . ... ... ... : ... .. . ... ... ... : ... .. . ... : ... .. . ... : ... .. . ... ... : ... .. . ... ... : ... .. . ... ... : ... .. . ... ...
ROW 88 : ... .. . ... ... ... : G#1 00 A ... ... ... : C#2 00 . P80 : E-# 00 A ... : ... .. . ... ... : ... .. 6 ... ... : ... .. 6 ... ... : C#0 01 F P80 ...
ROW 89 : ... .. . ... ... ... : ... .. 8 ... ... ... : ... .. . ... : ... .. 8 ... : ... .. . ... ... : ... .. . ... ... : ... .. . ... ... : ... .. D ... ...
ROW 8A : ... .. . ... ... ... : ... .. . ... ... ... : ... .. . ... : ... .. 4 ... : ... .. . ... ... : ... .. 5 ... ... : ... .. 5 ... ... : ... .. 8 ... ...
ROW 8B : ... .. . ... ... ... : ... .. . ... ... ... : ... .. . ... : ... .. 2 ... : ... .. . ... ... : ... .. 4 ... ... : ... .. 4 ... ... : ... .. . ... ...
ROW 8C : ... .. . ... ... ... : ... .. 4 ... ... ... : ... .. . ... : ... .. 1 ... : ... .. . ... ... : ... .. 2 ... ... : ... .. 2 ... ... : ... .. . ... ...
ROW 8D : ... .. . ... ... ... : ... .. 3 ... ... ... : ... .. . ... : ... .. 0 ... : ... .. . ... ... : ... .. . ... ... : ... .. . ... ... : ... .. . ... ...
ROW 8E : ... .. . ... ... ... : ... .. . ... ... ... : ... .. . ... : ... .. . ... : ... .. . ... ... : ... .. . ... ... : ... .. . ... ... : ... .. . ... ...
ROW 8F : ... .. . ... ... ... : ... .. . ... ... ... : ... .. . ... : ... .. . ... : ... .. . ... ... : ... .. . ... ... : ... .. . ... ... : ... .. . ... ...
ROW 90 : ... .. . ... ... ... : E-2 00 A ... ... ... : ... .. . ... : ... .. F ... : ... .. . ... ... : ... .. 6 ... ... : ... .. 6 ... ... : ... .. . ... ...
ROW 91 : ... .. 2 ... ... ... : ... .. 8 ... ... ... : ... .. . ... : ... .. C ... : ... .. . ... ... : ... .. . ... ... : ... .. . ... ... : ... .. . ... ...
ROW 92 : ... .. . ... ... ... : ... .. . ... ... ... : ... .. . ... : ... .. 6 ... : ... .. . ... ... : ... .. 5 ... ... : ... .. 5 ... ... : ... .. . ... ...
ROW 93 : ... .. . ... ... ... : ... .. . ... ... ... : ... .. . ... : ... .. 3 ... : ... .. . ... ... : ... .. 4 ... ... : ... .. 4 ... ... : ... .. . ... ...
ROW 94 : ... .. 1 ... ... ... : ... .. 4 ... ... ... : ... .. . ... : ... .. 2 ... : ... .. . ... ... : ... .. 2 ... ... : ... .. 2 ... ... : ... .. . ... ...
ROW 95 : ... .. . ... ... ... : ... .. 3 ... ... ... : ... .. . ... : ... .. 0 ... : ... .. . ... ... : ... .. . ... ... : ... .. . ... ... : ... .. . ... ...
ROW 96 : ... .. . ... ... ... : ... .. . ... ... ... : --- .. . ... : ... .. . ... : ... .. . ... ... : ... .. . ... ... : ... .. . ... ... : --- .. . P83 ...
ROW 97 : ... .. 0 ... ... ... : ... .. . ... ... ... : ... .. . ... : ... .. . ... : ... .. . ... ... : ... .. . ... ... : ... .. . ... ... : ... .. . ... ...
ROW 98 : C#3 00 F P80 ... ... : C#2 00 A ... ... ... : C#2 00 . ... : 1-# 00 F ... : ... .. . ... ... : ... .. 6 ... ... : ... .. 6 ... ... : C#0 01 F P80 ...
ROW 99 : ... .. E ... ... ... : ... .. 8 ... ... ... : ... .. . ... : ... .. C ... : ... .. . ... ... : ... .. . ... ... : ... .. . ... ... : ... .. D ... ...
ROW 9A : ... .. D ... ... ... : ... .. . ... ... ... : ... .. . ... : ... .. 6 ... : ... .. . ... ... : ... .. 5 ... ... : ... .. 5 ... ... : ... .. 8 ... ...
ROW 9B : ... .. A ... ... ... : ... .. . ... ... ... : ... .. . ... : ... .. 3 ... : ... .. . ... ... : ... .. 4 ... ... : ... .. 4 ... ... : ... .. . ... ...
ROW 9C : ... .. . ... ... ... : ... .. 4 ... ... ... : ... .. . ... : ... .. 2 ... : ... .. . ... ... : ... .. 2 ... ... : ... .. 2 ... ... : ... .. . ... ...
ROW 9D : ... .. . ... ... ... : ... .. 3 ... ... ... : ... .. . ... : ... .. 0 ... : ... .. . ... ... : ... .. . ... ... : ... .. . ... ... : ... .. . ... ...
ROW 9E : ... .. . ... ... ... : ... .. . ... ... ... : ... .. . ... : ... .. . ... : ... .. . ... ... : ... .. . ... ... : ... .. . ... ... : ... .. . ... ...
ROW 9F : ... .. . ... ... ... : ... .. . ... ... ... : ... .. . ... : ... .. . ... : ... .. . ... ... : ... .. . ... ... : ... .. . ... ... : ... .. . ... ...
ROW A0 : ... .. . ... ... ... : G#2 00 A ... ... ... : B-3 00 . P7D : 5-# 00 D ... : ... .. . ... ... : ... .. 6 ... ... : ... .. 6 ... ... : ... .. . ... ...
ROW A1 : ... .. . ... ... ... : ... .. 8 ... ... ... : A#3 00 . P7C : ... .. . ... : ... .. . ... ... : ... .. . ... ... : ... .. . ... ... : ... .. . ... ...
ROW A2 : ... .. . ... ... ... : ... .. . ... ... ... : A-3 00 . P7B : 1-# 00 D ... : ... .. . ... ... : ... .. 5 ... ... : ... .. 5 ... ... : ... .. . ... ...
ROW A3 : ... .. . ... ... ... : ... .. . ... ... ... : G#3 00 . ... : F-# 00 6 ... : ... .. . ... ... : ... .. 4 ... ... : ... .. 4 ... ... : ... .. . ... ...
ROW A4 : ... .. . ... ... ... : ... .. 4 ... ... ... : G-3 00 . P7C : B-# 00 1 ... : ... .. . ... ... : ... .. 2 ... ... : ... .. 2 ... ... : ... .. . ... ...
ROW A5 : ... .. . ... ... ... : ... .. 3 ... ... ... : F#3 00 . P7E : ... .. 0 ... : ... .. . ... ... : ... .. . ... ... : ... .. . ... ... : ... .. . ... ...
ROW A6 : ... .. . ... ... ... : ... .. . ... ... ... : --- .. . ... : ... .. . ... : ... .. . ... ... : ... .. . ... ... : ... .. . ... ... : --- .. . P83 ...
ROW A7 : ... .. . ... ... ... : ... .. . ... ... ... : ... .. . ... : ... .. . ... : ... .. . ... ... : ... .. . ... ... : ... .. . ... ... : ... .. . ... ...
ROW A8 : ... .. . ... ... ... : E-3 00 A ... ... ... : C#2 00 . P80 : E-# 00 A ... : ... .. . ... ... : ... .. 6 ... ... : ... .. 6 ... ... : C#0 01 F P80 ...
ROW A9 : ... .. 2 ... ... ... : ... .. 8 ... ... ... : ... .. . ... : ... .. 8 ... : ... .. . ... ... : ... .. . ... ... : ... .. . ... ... : ... .. D ... ...
ROW AA : ... .. . ... ... ... : ... .. . ... ... ... : ... .. . ... : ... .. 4 ... : ... .. . ... ... : ... .. 5 ... ... : ... .. 5 ... ... : ... .. 8 ... ...
ROW AB : ... .. . ... ... ... : ... .. . ... ... ... : ... .. . ... : ... .. 2 ... : ... .. . ... ... : ... .. 4 ... ... : ... .. 4 ... ... : ... .. . ... ...
ROW AC : ... .. 1 ... ... ... : ... .. 4 ... ... ... : ... .. . ... : ... .. 1 ... : ... .. . ... ... : ... .. 2 ... ... : ... .. 2 ... ... : ... .. . ... ...
ROW AD : ... .. . ... ... ... : ... .. 3 ... ... ... : ... .. . ... : ... .. 0 ... : ... .. . ... ... : ... .. . ... ... : ... .. . ... ... : ... .. . ... ...
ROW AE : ... .. . ... ... ... : ... .. . ... ... ... : --- .. . ... : ... .. . ... : ... .. . ... ... : ... .. . ... ... : ... .. . ... ... : --- .. . P83 ...
ROW AF : ... .. 0 ... ... ... : ... .. . ... ... ... : ... .. . ... : ... .. . ... : ... .. . ... ... : ... .. . ... ... : ... .. . ... ... : ... .. . ... ...
ROW B0 : G#3 00 F P80 ... ... : B-2 00 A ... ... ... : B-2 00 . ... : ... .. F ... : ... .. . ... ... : ... .. 6 ... ... : ... .. 6 ... ... : B-0 01 F P80 ...
ROW B1 : ... .. E ... ... ... : ... .. 8 ... ... ... : ... .. . ... : ... .. C ... : ... .. . ... ... : ... .. . ... ... : ... .. . ... ... : ... .. D ... ...
ROW B2 : ... .. D ... ... ... : ... .. . ... ... ... : ... .. . ... : ... .. 6 ... : ... .. . ... ... : ... .. 5 ... ... : ... .. 5 ... ... : ... .. 8 ... ...
ROW B3 : ... .. A ... ... ... : ... .. . ... ... ... : ... .. . ... : ... .. 3 ... : ... .. . ... ... : ... .. 4 ... ... : ... .. 4 ... ... : ... .. . ... ...
ROW B4 : ... .. . ... ... ... : ... .. 4 ... ... ... : ... .. . ... : ... .. 2 ... : ... .. . ... ... : ... .. 2 ... ... : ... .. 2 ... ... : ... .. . ... ...
ROW B5 : ... .. . ... ... ... : ... .. 3 ... ... ... : ... .. . ... : ... .. 0 ... : ... .. . ... ... : ... .. . ... ... : ... .. . ... ... : ... .. . ... ...
ROW B6 : ... .. . ... ... ... : ... .. . ... ... ... : --- .. . ... : ... .. . ... : ... .. . ... ... : ... .. . ... ... : ... .. . ... ... : --- .. . ... ...
ROW B7 : ... .. . ... ... ... : ... .. . ... ... ... : ... .. . ... : ... .. . ... : ... .. . ... ... : ... .. . ... ... : ... .. . ... ... : ... .. . ... ...
ROW B8 : ... .. . ... ... ... : C#3 00 A ... ... ... : C#3 00 . ... : F-# 00 F ... : ... .. . ... ... : ... .. 6 ... ... : ... .. 6 ... ... : C#1 01 F ... ...
ROW B9 : ... .. . ... ... ... : ... .. 8 ... ... ... : ... .. . ... : ... .. C ... : ... .. . ... ... : ... .. . ... ... : ... .. . ... ... : ... .. D ... ...
ROW BA : ... .. . ... ... ... : ... .. . ... ... ... : ... .. . ... : ... .. 6 ... : ... .. . ... ... : ... .. 5 ... ... : ... .. 5 ... ... : ... .. 8 ... ...
ROW BB : ... .. . ... ... ... : ... .. . ... ... ... : ... .. . ... : ... .. 3 ... : ... .. . ... ... : ... .. 4 ... ... : ... .. 4 ... ... : ... .. . ... ...
ROW BC : ... .. . ... ... ... : ... .. 4 ... ... ... : ... .. . ... : ... .. F ... : ... .. . ... ... : ... .. 2 ... ... : ... .. 2 ... ... : ... .. . ... ...
ROW BD : ... .. . ... ... ... : ... .. 3 ... ... ... : ... .. . ... : ... .. C ... : ... .. . ... ... : ... .. . ... ... : ... .. . ... ... : ... .. . ... ...
ROW BE : ... .. . ... ... ... : ... .. . ... ... ... : --- .. . ... : ... .. 6 ... : ... .. . ... ... : ... .. . ... ... : ... .. . ... ... : --- .. . P81 ...
ROW BF : ... .. . ... ... ... : ... .. . ... ... ... : ... .. . ... : ... .. 3 ... : ... .. . ... ... : ... .. . ... ... : ... .. . ... ... : ... .. . ... ...
ROW C0 : F#3 00 F ... ... ... : C#1 00 A ... ... ... : A#2 00 . P82 : 1-# 00 F ... : ... .. . ... ... : D#3 01 6 ... ... : G-3 01 6 ... ... : A#1 01 F P80 ...
ROW C1 : G-3 00 E P78 ... ... : ... .. 8 ... ... ... : G#2 00 . P8B : ... .. C ... : ... .. . ... ... : ... .. . ... ... : ... .. . ... ... : ... .. D ... ...
ROW C2 : ... .. D P80 ... ... : ... .. . ... ... ... : G-2 00 . P79 : ... .. 6 ... : ... .. . ... ... : ... .. 5 ... ... : ... .. 5 ... ... : ... .. 8 ... ...
ROW C3 : ... .. A ... ... ... : ... .. . ... ... ... : F-2 00 . P8D : ... .. 3 ... : ... .. . ... ... : ... .. 4 ... ... : ... .. 4 ... ... : ... .. . ... ...
ROW C4 : ... .. . ... ... ... : ... .. 4 ... ... ... : E-2 00 . P81 : ... .. 2 ... : ... .. . ... ... : ... .. 2 ... ... : ... .. 2 ... ... : ... .. . ... ...
ROW C5 : ... .. . ... ... ... : ... .. 3 ... ... ... : D#2 00 . P77 : ... .. 0 ... : ... .. . ... ... : ... .. . ... ... : ... .. . ... ... : ... .. . ... ...
ROW C6 : ... .. . ... ... ... : ... .. . ... ... ... : --- .. . ... : ... .. . ... : ... .. . ... ... : ... .. . ... ... : ... .. . ... ... : --- .. . ... ...
ROW C7 : ... .. . ... ... ... : ... .. . ... ... ... : ... .. . ... : ... .. . ... : ... .. . ... ... : ... .. . ... ... : ... .. . ... ... : ... .. . ... ...
ROW C8 : ... .. . ... ... ... : A#1 00 A ... ... ... : D#2 00 . P80 : E-# 00 A ... : ... .. . ... ... : ... .. 6 ... ... : ... .. 6 ... ... : D#0 01 F ... ...
ROW C9 : ... .. . ... ... ... : ... .. 8 ... ... ... : ... .. . ... : ... .. 8 ... : ... .. . ... ... : ... .. . ... ... : ... .. . ... ... : ... .. D ... ...
ROW CA : ... .. . ... ... ... : ... .. . ... ... ... : ... .. . ... : ... .. 4 ... : ... .. . ... ... : ... .. 5 ... ... : ... .. 5 ... ... : ... .. 8 ... ...
ROW CB : ... .. . ... ... ... : ... .. . ... ... ... : ... .. . ... : ... .. 2 ... : ... .. . ... ... : ... .. 4 ... ... : ... .. 4 ... ... : ... .. . ... ...
ROW CC : ... .. . ... ... ... : ... .. 4 ... ... ... : ... .. . ... : ... .. 1 ... : ... .. . ... ... : ... .. 2 ... ... : ... .. 2 ... ... : ... .. . ... ...
ROW CD : ... .. 2 ... ... ... : ... .. 3 ... ... ... : ... .. . ... : ... .. 0 ... : ... .. . ... ... : ... .. . ... ... : ... .. . ... ... : ... .. . ... ...
ROW CE : ... .. . ... ... ... : ... .. . ... ... ... : ... .. . ... : ... .. . ... : ... .. . ... ... : ... .. . ... ... : ... .. . ... ... : ... .. . ... ...
ROW CF : ... .. . ... ... ... : ... .. . ... ... ... : ... .. . ... : ... .. . ... : ... .. . ... ... : ... .. . ... ... : ... .. . ... ... : ... .. . ... ...
ROW D0 : D#3 00 F ... ... ... : G-2 00 A ... ... ... : ... .. . ... : 1-# 00 F ... : ... .. . ... ... : ... .. 6 ... ... : ... .. 6 ... ... : ... .. . ... ...
ROW D1 : ... .. E P89 ... ... : ... .. 8 ... ... ... : ... .. . ... : ... .. C ... : ... .. . ... ... : ... .. . ... ... : ... .. . ... ... : ... .. . ... ...
ROW D2 : E-3 00 D P7D ... ... : ... .. . ... ... ... : ... .. . ... : ... .. 6 ... : ... .. . ... ... : ... .. 5 ... ... : ... .. 5 ... ... : ... .. . ... ...
ROW D3 : ... .. A P80 ... ... : ... .. . ... ... ... : ... .. . ... : ... .. 3 ... : ... .. . ... ... : ... .. 4 ... ... : ... .. 4 ... ... : ... .. . ... ...
ROW D4 : ... .. . ... ... ... : ... .. 4 ... ... ... : ... .. . ... : ... .. 2 ... : ... .. . ... ... : ... .. 2 ... ... : ... .. 2 ... ... : ... .. . ... ...
ROW D5 : ... .. 2 ... ... ... : ... .. 3 ... ... ... : ... .. . ... : ... .. 0 ... : ... .. . ... ... : ... .. . ... ... : ... .. . ... ... : ... .. . ... ...
ROW D6 : ... .. . ... ... ... : ... .. . ... ... ... : --- .. . ... : ... .. . ... : ... .. . ... ... : ... .. . ... ... : ... .. . ... ... : --- .. . P83 ...
ROW D7 : ... .. . ... ... ... : ... .. . ... ... ... : ... .. . ... : ... .. . ... : ... .. . ... ... : ... .. . ... ... : ... .. . ... ... : ... .. . ... ...
ROW D8 : D#3 00 F ... ... ... : D#2 00 A ... ... ... : D#2 00 . ... : E-# 00 A ... : ... .. . ... ... : ... .. 6 ... ... : ... .. 6 ... ... : D#0 01 F P80 ...
ROW D9 : ... .. E ... ... ... : ... .. 8 ... ... ... : ... .. . ... : ... .. 8 ... : ... .. . ... ... : ... .. . ... ... : ... .. . ... ... : ... .. D ... ...
ROW DA : ... .. D ... ... ... : ... .. . ... ... ... : ... .. . ... : ... .. 4 ... : ... .. . ... ... : ... .. 5 ... ... : ... .. 5 ... ... : ... .. 8 ... ...
ROW DB : ... .. A ... ... ... : ... .. . ... ... ... : ... .. . ... : ... .. 2 ... : ... .. . ... ... : ... .. 4 ... ... : ... .. 4 ... ... : ... .. . ... ...
ROW DC : ... .. . ... ... ... : ... .. 4 ... ... ... : ... .. . ... : ... .. 1 ... : ... .. . ... ... : ... .. 2 ... ... : ... .. 2 ... ... : ... .. . ... ...
ROW DD : ... .. . ... ... ... : ... .. 3 ... ... ... : ... .. . ... : ... .. 0 ... : ... .. . ... ... : ... .. . ... ... : ... .. . ... ... : ... .. . ... ...
ROW DE : ... .. . ... ... ... : ... .. . ... ... ... : ... .. . ... : ... .. . ... : ... .. . ... ... : ... .. . ... ... : ... .. . ... ... : ... .. . ... ...
ROW DF : ... .. . ... ... ... : ... .. . ... ... ... : ... .. . ... : ... .. . ... : ... .. . ... ... : ... .. . ... ... : ... .. . ... ... : ... .. . ... ...
ROW E0 : ... .. . ... ... ... : A#2 00 A ... ... ... : B-3 00 . P7D : 5-# 00 D ... : ... .. . ... ... : ... .. 6 ... ... : ... .. 6 ... ... : ... .. . ... ...
ROW E1 : ... .. . ... ... ... : ... .. 8 ... ... ... : A#3 00 . P7C : ... .. . ... : ... .. . ... ... : ... .. . ... ... : ... .. . ... ... : ... .. . ... ...
ROW E2 : ... .. . ... ... ... : ... .. . ... ... ... : A-3 00 . P7B : 1-# 00 D ... : ... .. . ... ... : ... .. 5 ... ... : ... .. 5 ... ... : ... .. . ... ...
ROW E3 : ... .. . ... ... ... : ... .. . ... ... ... : G#3 00 . ... : F-# 00 6 ... : ... .. . ... ... : ... .. 4 ... ... : ... .. 4 ... ... : ... .. . ... ...
ROW E4 : ... .. . ... ... ... : ... .. 4 ... ... ... : G-3 00 . P7C : B-# 00 1 ... : ... .. . ... ... : ... .. 2 ... ... : ... .. 2 ... ... : ... .. . ... ...
ROW E5 : ... .. . ... ... ... : ... .. 3 ... ... ... : F#3 00 . P7E : ... .. 0 ... : ... .. . ... ... : ... .. . ... ... : ... .. . ... ... : ... .. . ... ...
ROW E6 : ... .. . ... ... ... : ... .. . ... ... ... : --- .. . ... : ... .. . ... : ... .. . ... ... : ... .. . ... ... : ... .. . ... ... : --- .. . P83 ...
ROW E7 : ... .. . ... ... ... : ... .. . ... ... ... : ... .. . ... : ... .. . ... : ... .. . ... ... : ... .. . ... ... : ... .. . ... ... : ... .. . ... ...
ROW E8 : ... .. . ... ... ... : G-3 00 A ... ... ... : C#2 00 . P80 : E-# 00 A ... : ... .. . ... ... : ... .. 6 ... ... : ... .. 6 ... ... : C#0 01 F P80 ...
ROW E9 : ... .. . ... ... ... : ... .. 8 ... ... ... : ... .. . ... : ... .. 8 ... : ... .. . ... ... : ... .. . ... ... : ... .. . ... ... : ... .. D ... ...
ROW EA : ... .. . ... ... ... : ... .. . ... ... ... : ... .. . ... : ... .. 4 ... : ... .. . ... ... : ... .. 5 ... ... : ... .. 5 ... ... : ... .. 8 ... ...
ROW EB : ... .. . ... ... ... : ... .. . ... ... ... : ... .. . ... : ... .. 2 ... : ... .. . ... ... : ... .. 4 ... ... : ... .. 4 ... ... : ... .. . ... ...
ROW EC : ... .. . ... ... ... : ... .. 4 ... ... ... : ... .. . ... : ... .. 1 ... : ... .. . ... ... : ... .. 2 ... ... : ... .. 2 ... ... : ... .. . ... ...
ROW ED : ... .. 2 ... ... ... : ... .. 3 ... ... ... : ... .. . ... : ... .. 0 ... : ... .. . ... ... : ... .. . ... ... : ... .. . ... ... : ... .. . ... ...
ROW EE : ... .. . ... ... ... : ... .. . ... ... ... : --- .. . ... : ... .. . ... : ... .. . ... ... : ... .. . ... ... : ... .. . ... ... : --- .. . P83 ...
ROW EF : ... .. . ... ... ... : ... .. . ... ... ... : ... .. . ... : ... .. . ... : ... .. . ... ... : ... .. . ... ... : ... .. . ... ... : ... .. . ... ...
ROW F0 : ... .. 8 ... ... ... : C#3 00 A ... ... ... : C#3 00 . ... : ... .. F ... : ... .. . ... ... : ... .. 6 ... ... : ... .. 6 ... ... : C#1 01 F P80 ...
ROW F1 : ... .. 7 P89 ... ... : ... .. 8 ... ... ... : ... .. . ... : ... .. C ... : ... .. . ... ... : ... .. . ... ... : ... .. . ... ... : ... .. D ... ...
ROW F2 : E-3 00 6 P7D ... ... : ... .. . ... ... ... : ... .. . ... : ... .. 6 ... : ... .. . ... ... : ... .. 5 ... ... : ... .. 5 ... ... : ... .. 8 ... ...
ROW F3 : ... .. 5 P80 ... ... : ... .. . ... ... ... : ... .. . ... : ... .. 3 ... : ... .. . ... ... : ... .. 4 ... ... : ... .. 4 ... ... : ... .. . ... ...
ROW F4 : ... .. . ... ... ... : ... .. 4 ... ... ... : ... .. . ... : ... .. 2 ... : ... .. . ... ... : ... .. 2 ... ... : ... .. 2 ... ... : ... .. . ... ...
ROW F5 : ... .. 1 ... ... ... : ... .. 3 ... ... ... : ... .. . ... : ... .. 0 ... : ... .. . ... ... : ... .. . ... ... : ... .. . ... ... : ... .. . ... ...
ROW F6 : ... .. . ... ... ... : ... .. . ... ... ... : --- .. . ... : ... .. . ... : ... .. . ... ... : ... .. . ... ... : ... .. . ... ... : --- .. . P81 ...
ROW F7 : ... .. . ... ... ... : ... .. . ... ... ... : ... .. . ... : ... .. . ... : ... .. . ... ... : ... .. . ... ... : ... .. . ... ... : ... .. . ... ...
ROW F8 : D#3 00 8 ... ... ... : D#3 00 A ... ... ... : D#3 00 . ... : D-# 00 A ... : ... .. . ... ... : ... .. 6 ... ... : ... .. 6 ... ... : D#1 01 F P80 ...
ROW F9 : ... .. 7 ... ... ... : ... .. 8 ... ... ... : ... .. . ... : ... .. . ... : ... .. . ... ... : ... .. . ... ... : ... .. . ... ... : ... .. D ... ...
ROW FA : ... .. 6 ... ... ... : ... .. . ... ... ... : ... .. . ... : ... .. . ... : ... .. . ... ... : ... .. 5 ... ... : ... .. 5 ... ... : ... .. 8 ... ...
ROW FB : ... .. 5 ... ... ... : ... .. . ... ... ... : ... .. . ... : ... .. . ... : ... .. . ... ... : ... .. 4 ... ... : ... .. 4 ... ... : ... .. . ... ...
ROW FC : ... .. . ... ... ... : ... .. 4 ... ... ... : ... .. . ... : ... .. . ... : ... .. . ... ... : ... .. 2 ... ... : ... .. 2 ... ... : ... .. . ... ...
ROW FD : ... .. . ... ... ... : ... .. 3 ... ... ... : ... .. . ... : ... .. . ... : ... .. . ... ... : ... .. . ... ... : ... .. . ... ... : ... .. . ... ...
ROW FE : ... .. . ... ... ... : ... .. . ... ... ... : --- .. . ... : ... .. . ... : ... .. . ... ... : ... .. . ... ... : ... .. . ... ... : --- .. . P81 ...
ROW FF : ... .. . ... ... ... : ... .. . ... ... ... : ... .. . ... : ... .. . ... : ... .. . ... ... : ... .. . ... ... : ... .. . ... ... : ... .. . ... ...

PATTERN 03
ROW 00 : F#3 00 6 ... ... ... : C#2 00 A ... ... ... : A#2 00 . P82 : 1-# 00 F ... : ... .. . ... ... : ... .. 6 ... ... : ... .. 6 ... ... : C#2 01 F P80 ...
ROW 01 : G-3 00 5 P78 ... ... : ... .. 8 ... ... ... : G#2 00 . P8B : ... .. C ... : ... .. . ... ... : ... .. . ... ... : ... .. . ... ... : ... .. D ... ...
ROW 02 : ... .. . P80 ... ... : ... .. . ... ... ... : G-2 00 . P79 : ... .. 6 ... : ... .. . ... ... : ... .. 5 ... ... : ... .. 5 ... ... : ... .. 8 ... ...
ROW 03 : ... .. 4 ... ... ... : ... .. . ... ... ... : F-2 00 . P8D : ... .. 3 ... : ... .. . ... ... : ... .. 4 ... ... : ... .. 4 ... ... : ... .. . ... ...
ROW 04 : ... .. . ... ... ... : ... .. 4 ... ... ... : E-2 00 . P81 : ... .. 2 ... : ... .. . ... ... : ... .. 2 ... ... : ... .. 2 ... ... : ... .. . ... ...
ROW 05 : ... .. . ... ... ... : ... .. 3 ... ... ... : D#2 00 . P77 : ... .. 0 ... : ... .. . ... ... : ... .. . ... ... : ... .. . ... ... : ... .. . ... ...
ROW 06 : ... .. . ... ... ... : ... .. . ... ... ... : --- .. . ... : ... .. . ... : ... .. . ... ... : ... .. . ... ... : ... .. . ... ... : --- .. . ... ...
ROW 07 : ... .. . ... ... ... : ... .. . ... ... ... : ... .. . ... : ... .. . ... : ... .. . ... ... : ... .. . ... ... : ... .. . ... ... : ... .. . ... ...
ROW 08 : ... .. . ... ... ... : A#2 00 A ... ... ... : D#2 00 . P80 : E-# 00 A ... : ... .. . ... ... : ... .. 6 ... ... : ... .. 6 ... ... : D#0 01 F ... ...
ROW 09 : ... .. . ... ... ... : ... .. 8 ... ... ... : ... .. . ... : ... .. 8 ... : ... .. . ... ... : ... .. . ... ... : ... .. . ... ... : ... .. D ... ...
ROW 0A : ... .. . ... ... ... : ... .. . ... ... ... : ... .. . ... : ... .. 4 ... : ... .. . ... ... : ... .. 5 ... ... : ... .. 5 ... ... : ... .. 8 ... ...
ROW 0B : ... .. . ... ... ... : ... .. . ... ... ... : ... .. . ... : ... .. 2 ... : ... .. . ... ... : ... .. 4 ... ... : ... .. 4 ... ... : ... .. . ... ...
ROW 0C : ... .. . ... ... ... : ... .. 4 ... ... ... : ... .. . ... : ... .. 1 ... : ... .. . ... ... : ... .. 2 ... ... : ... .. 2 ... ... : ... .. . ... ...
ROW 0D : ... .. 1 ... ... ... : ... .. 3 ... ... ... : ... .. . ... : ... .. 0 ... : ... .. . ... ... : ... .. . ... ... : ... .. . ... ... : ... .. . ... ...
ROW 0E : ... .. . ... ... ... : ... .. . ... ... ... : ... .. . ... : ... .. . ... : ... .. . ... ... : ... .. . ... ... : ... .. . ... ... : ... .. . ... ...
ROW 0F : ... .. . ... ... ... : ... .. . ... ... ... : ... .. . ... : ... .. . ... : ... .. . ... ... : ... .. . ... ... : ... .. . ... ... : ... .. . ... ...
ROW 10 : D#3 00 6 ... ... ... : G-3 00 A ... ... ... : ... .. . ... : ... .. F ... : ... .. . ... ... : ... .. 6 ... ... : ... .. 6 ... ... : ... .. . ... ...
ROW 11 : ... .. 5 P89 ... ... : ... .. 8 ... ... ... : ... .. . ... : ... .. C ... : ... .. . ... ... : ... .. . ... ... : ... .. . ... ... : ... .. . ... ...
ROW 12 : E-3 00 5 P7D ... ... : ... .. . ... ... ... : ... .. . ... : ... .. 6 ... : ... .. . ... ... : ... .. 5 ... ... : ... .. 5 ... ... : ... .. . ... ...
ROW 13 : ... .. 4 P80 ... ... : ... .. . ... ... ... : ... .. . ... : ... .. 3 ... : ... .. . ... ... : ... .. 4 ... ... : ... .. 4 ... ... : ... .. . ... ...
ROW 14 : ... .. . ... ... ... : ... .. 4 ... ... ... : ... .. . ... : ... .. 2 ... : ... .. . ... ... : ... .. 2 ... ... : ... .. 2 ... ... : ... .. . ... ...
ROW 15 : ... .. 1 ... ... ... : ... .. 3 ... ... ... : ... .. . ... : ... .. 0 ... : ... .. . ... ... : ... .. . ... ... : ... .. . ... ... : ... .. . ... ...
ROW 16 : ... .. . ... ... ... : ... .. . ... ... ... : --- .. . ... : ... .. . ... : ... .. . ... ... : ... .. . ... ... : ... .. . ... ... : --- .. . P83 ...
ROW 17 : ... .. . ... ... ... : ... .. . ... ... ... : ... .. . ... : ... .. . ... : ... .. . ... ... : ... .. . ... ... : ... .. . ... ... : ... .. . ... ...
ROW 18 : D#3 00 6 ... ... ... : D#3 00 A ... ... ... : D#2 00 . ... : 1-# 00 F ... : ... .. . ... ... : ... .. 6 ... ... : ... .. 6 ... ... : D#0 01 F P80 ...
ROW 19 : ... .. 5 ... ... ... : ... .. 8 ... ... ... : ... .. . ... : ... .. C ... : ... .. . ... ... : ... .. . ... ... : ... .. . ... ... : ... .. D ... ...
ROW 1A : ... .. . ... ... ... : ... .. . ... ... ... : ... .. . ... : ... .. 6 ... : ... .. . ... ... : ... .. 5 ... ... : ... .. 5 ... ... : ... .. 8 ... ...
ROW 1B : ... .. 4 ... ... ... : ... .. . ... ... ... : ... .. . ... : ... .. 3 ... : ... .. . ... ... : ... .. 4 ... ... : ... .. 4 ... ... : ... .. . ... ...
ROW 1C : ... .. . ... ... ... : ... .. 4 ... ... ... : ... .. . ... : ... .. 2 ... : ... .. . ... ... : ... .. 2 ... ... : ... .. 2 ... ... : ... .. . ... ...
ROW 1D : ... .. . ... ... ... : ... .. 3 ... ... ... : ... .. . ... : ... .. 0 ... : ... .. . ... ... : ... .. . ... ... : ... .. . ... ... : ... .. . ... ...
ROW 1E : ... .. . ... ... ... : ... .. . ... ... ... : ... .. . ... : ... .. . ... : ... .. . ... ... : ... .. . ... ... : ... .. . ... ... : ... .. . ... ...
ROW 1F : ... .. . ... ... ... : ... .. . ... ... ... : ... .. . ... : ... .. . ... : ... .. . ... ... : ... .. . ... ... : ... .. . ... ... : ... .. . ... ...
ROW 20 : F#3 00 4 ... ... ... : C#3 00 A ... ... ... : B-3 00 . P7D : 5-# 00 D ... : ... .. . ... ... : E-3 01 6 ... ... : G#3 01 6 ... ... : ... .. . ... ...
ROW 21 : G-3 00 3 P78 ... ... : ... .. 8 ... ... ... : A#3 00 . P7C : ... .. . ... : ... .. . ... ... : ... .. . ... ... : ... .. . ... ... : ... .. . ... ...
ROW 22 : ... .. . P80 ... ... : ... .. . ... ... ... : A-3 00 . P7B : 1-# 00 D ... : ... .. . ... ... : ... .. 5 ... ... : ... .. 5 ... ... : ... .. . ... ...
ROW 23 : ... .. 2 ... ... ... : ... .. . ... ... ... : G#3 00 . ... : F-# 00 6 ... : ... .. . ... ... : ... .. 4 ... ... : ... .. 4 ... ... : ... .. . ... ...
ROW 24 : ... .. . ... ... ... : ... .. 4 ... ... ... : G-3 00 . P7C : B-# 00 1 ... : ... .. . ... ... : ... .. 2 ... ... : ... .. 2 ... ... : ... .. . ... ...
ROW 25 : ... .. . ... ... ... : ... .. 3 ... ... ... : F#3 00 . P7E : ... .. 0 ... : ... .. . ... ... : ... .. . ... ... : ... .. . ... ... : ... .. . ... ...
ROW 26 : ... .. . ... ... ... : ... .. . ... ... ... : --- .. . ... : ... .. . ... : ... .. . ... ... : ... .. . ... ... : ... .. . ... ... : --- .. . P83 ...
ROW 27 : ... .. . ... ... ... : ... .. . ... ... ... : ... .. . ... : ... .. . ... : ... .. . ... ... : ... .. . ... ... : ... .. . ... ... : ... .. . ... ...
ROW 28 : ... .. . ... ... ... : G#3 00 A ... ... ... : G#2 00 . P80 : E-# 00 A ... : ... .. . ... ... : ... .. 6 ... ... : ... .. 6 ... ... : G#0 01 F P80 ...
ROW 29 : ... .. . ... ... ... : ... .. 8 ... ... ... : ... .. . ... : ... .. 8 ... : ... .. . ... ... : ... .. . ... ... : ... .. . ... ... : ... .. D ... ...
ROW 2A : ... .. . ... ... ... : ... .. . ... ... ... : ... .. . ... : ... .. 4 ... : ... .. . ... ... : ... .. 5 ... ... : ... .. 5 ... ... : ... .. 8 ... ...
ROW 2B : ... .. . ... ... ... : ... .. . ... ... ... : ... .. . ... : ... .. 2 ... : ... .. . ... ... : ... .. 4 ... ... : ... .. 4 ... ... : ... .. . ... ...
ROW 2C : ... .. . ... ... ... : ... .. 4 ... ... ... : ... .. . ... : ... .. 1 ... : ... .. . ... ... : ... .. 2 ... ... : ... .. 2 ... ... : ... .. . ... ...
ROW 2D : ... .. 1 ... ... ... : ... .. 3 ... ... ... : ... .. . ... : ... .. 0 ... : ... .. . ... ... : ... .. . ... ... : ... .. . ... ... : ... .. . ... ...
ROW 2E : ... .. . ... ... ... : ... .. . ... ... ... : --- .. . ... : ... .. . ... : ... .. . ... ... : ... .. . ... ... : ... .. . ... ... : --- .. . P84 ...
ROW 2F : ... .. . ... ... ... : ... .. . ... ... ... : ... .. . ... : ... .. . ... : ... .. . ... ... : ... .. . ... ... : ... .. . ... ... : ... .. . ... ...
ROW 30 : D#3 00 4 ... ... ... : E-3 00 A ... ... ... : C#3 00 . ... : ... .. F ... : ... .. . ... ... : ... .. 6 ... ... : ... .. 6 ... ... : C#1 01 F P80 ...
ROW 31 : ... .. 3 P89 ... ... : ... .. 8 ... ... ... : ... .. . ... : ... .. C ... : ... .. . ... ... : ... .. . ... ... : ... .. . ... ... : ... .. D ... ...
ROW 32 : E-3 00 3 P7D ... ... : ... .. . ... ... ... : ... .. . ... : ... .. 6 ... : ... .. . ... ... : ... .. 5 ... ... : ... .. 5 ... ... : ... .. 8 ... ...
ROW 33 : ... .. 2 P80 ... ... : ... .. . ... ... ... : ... .. . ... : ... .. 3 ... : ... .. . ... ... : ... .. 4 ... ... : ... .. 4 ... ... : ... .. . ... ...
ROW 34 : ... .. . ... ... ... : ... .. 4 ... ... ... : ... .. . ... : ... .. 2 ... : ... .. . ... ... : ... .. 2 ... ... : ... .. 2 ... ... : ... .. . ... ...
ROW 35 : ... .. 1 ... ... ... : ... .. 3 ... ... ... : ... .. . ... : ... .. 0 ... : ... .. . ... ... : ... .. . ... ... : ... .. . ... ... : ... .. . ... ...
ROW 36 : ... .. . ... ... ... : ... .. . ... ... ... : --- .. . ... : ... .. . ... : ... .. . ... ... : ... .. . ... ... : ... .. . ... ... : --- .. . P81 ...
ROW 37 : ... .. . ... ... ... : ... .. . ... ... ... : ... .. . ... : ... .. . ... : ... .. . ... ... : ... .. . ... ... : ... .. . ... ... : ... .. . ... ...
ROW 38 : D#3 00 4 ... ... ... : C#4 00 A ... ... ... : G#3 00 . ... : F-# 00 F ... : ... .. . ... ... : ... .. 6 ... ... : ... .. 6 ... ... : G#1 01 F P80 ...
ROW 39 : ... .. 3 ... ... ... : ... .. 8 ... ... ... : ... .. . ... : ... .. C ... : ... .. . ... ... : ... .. . ... ... : ... .. . ... ... : ... .. D ... ...
ROW 3A : ... .. . ... ... ... : ... .. . ... ... ... : ... .. . ... : ... .. 6 ... : ... .. . ... ... : ... .. 5 ... ... : ... .. 5 ... ... : ... .. 8 ... ...
ROW 3B : ... .. 2 ... ... ... : ... .. . ... ... ... : ... .. . ... : ... .. 3 ... : ... .. . ... ... : ... .. 4 ... ... : ... .. 4 ... ... : ... .. . ... ...
ROW 3C : ... .. . ... ... ... : ... .. 4 ... ... ... : ... .. . ... : ... .. F ... : ... .. . ... ... : ... .. 2 ... ... : ... .. 2 ... ... : ... .. . ... ...
ROW 3D : ... .. . ... ... ... : ... .. 3 ... ... ... : ... .. . ... : ... .. C ... : ... .. . ... ... : ... .. . ... ... : ... .. . ... ... : ... .. . ... ...
ROW 3E : ... .. . ... ... ... : ... .. . ... ... ... : --- .. . ... : ... .. 6 ... : ... .. . ... ... : ... .. . ... ... : ... .. . ... ... : --- .. . P7E ...
ROW 3F : ... .. . ... ... ... : ... .. . ... ... ... : ... .. . ... : ... .. 3 ... : ... .. . ... ... : ... .. . ... ... : ... .. . ... ... : ... .. . ... ...
ROW 40 : ... .. 0 ... ... ... : C#1 00 A ... ... ... : A#2 00 . P82 : 1-# 00 F ... : ... .. . ... ... : F#3 01 6 ... ... : A#3 01 6 ... ... : F#1 01 F P80 ...
ROW 41 : ... .. . ... ... ... : ... .. 8 ... ... ... : G#2 00 . P8B : ... .. C ... : ... .. . ... ... : ... .. . ... ... : ... .. . ... ... : ... .. D ... ...
ROW 42 : ... .. . ... ... ... : ... .. . ... ... ... : G-2 00 . P79 : ... .. 6 ... : ... .. . ... ... : ... .. 5 ... ... : ... .. 5 ... ... : ... .. 8 ... ...
ROW 43 : ... .. . ... ... ... : ... .. . ... ... ... : F-2 00 . P8D : ... .. 3 ... : ... .. . ... ... : ... .. 4 ... ... : ... .. 4 ... ... : ... .. . ... ...
ROW 44 : ... .. . ... ... ... : ... .. 4 ... ... ... : E-2 00 . P81 : ... .. 2 ... : ... .. . ... ... : ... .. 2 ... ... : ... .. 2 ... ... : ... .. . ... ...
ROW 45 : ... .. . ... ... ... : ... .. 3 ... ... ... : D#2 00 . P77 : ... .. 0 ... : ... .. . ... ... : ... .. . ... ... : ... .. . ... ... : ... .. . ... ...
ROW 46 : ... .. . ... ... ... : ... .. . ... ... ... : --- .. . ... : ... .. . ... : ... .. . ... ... : ... .. . ... ... : ... .. . ... ... : --- .. . P81 ...
ROW 47 : ... .. . ... ... ... : ... .. . ... ... ... : ... .. . ... : ... .. . ... : ... .. . ... ... : ... .. . ... ... : ... .. . ... ... : ... .. . ... ...
ROW 48 : ... .. . ... ... ... : A#1 00 A ... ... ... : F#2 00 . P80 : E-# 00 A ... : ... .. . ... ... : ... .. 6 ... ... : ... .. 6 ... ... : F#0 01 F P80 ...
ROW 49 : ... .. . ... ... ... : ... .. 8 ... ... ... : ... .. . ... : ... .. 8 ... : ... .. . ... ... : ... .. . ... ... : ... .. . ... ... : ... .. D ... ...
ROW 4A : ... .. . ... ... ... : ... .. . ... ... ... : ... .. . ... : ... .. 4 ... : ... .. . ... ... : ... .. 5 ... ... : ... .. 5 ... ... : ... .. 8 ... ...
ROW 4B : ... .. . ... ... ... : ... .. . ... ... ... : ... .. . ... : ... .. 2 ... : ... .. . ... ... : ... .. 4 ... ... : ... .. 4 ... ... : ... .. . ... ...
ROW 4C : ... .. . ... ... ... : ... .. 4 ... ... ... : ... .. . ... : ... .. 1 ... : ... .. . ... ... : ... .. 2 ... ... : ... .. 2 ... ... : ... .. . ... ...
ROW 4D : ... .. . ... ... ... : ... .. 3 ... ... ... : ... .. . ... : ... .. 0 ... : ... .. . ... ... : ... .. . ... ... : ... .. . ... ... : ... .. . ... ...
ROW 4E : ... .. . ... ... ... : ... .. . ... ... ... : ... .. . ... : ... .. . ... : ... .. . ... ... : ... .. . ... ... : ... .. . ... ... : ... .. . ... ...
ROW 4F : ... .. . ... ... ... : ... .. . ... ... ... : ... .. . ... : ... .. . ... : ... .. . ... ... : ... .. . ... ... : ... .. . ... ... : ... .. . ... ...
ROW 50 : ... .. . ... ... ... : F#2 00 A ... ... ... : ... .. . ... : 1-# 00 F ... : ... .. . ... ... : ... .. 6 ... ... : ... .. 6 ... ... : ... .. . ... ...
ROW 51 : ... .. . ... ... ... : ... .. 8 ... ... ... : ... .. . ... : ... .. C ... : ... .. . ... ... : ... .. . ... ... : ... .. . ... ... : ... .. . ... ...
ROW 52 : ... .. . ... ... ... : ... .. . ... ... ... : ... .. . ... : ... .. 6 ... : ... .. . ... ... : ... .. 5 ... ... : ... .. 5 ... ... : ... .. . ... ...
ROW 53 : ... .. . ... ... ... : ... .. . ... ... ... : ... .. . ... : ... .. 3 ... : ... .. . ... ... : ... .. 4 ... ... : ... .. 4 ... ... : ... .. . ... ...
ROW 54 : ... .. . ... ... ... : ... .. 4 ... ... ... : ... .. . ... : ... .. 2 ... : ... .. . ... ... : ... .. 2 ... ... : ... .. 2 ... ... : ... .. . ... ...
ROW 55 : ... .. . ... ... ... : ... .. 3 ... ... ... : ... .. . ... : ... .. 0 ... : ... .. . ... ... : ... .. . ... ... : ... .. . ... ... : ... .. . ... ...
ROW 56 : ... .. . ... ... ... : ... .. . ... ... ... : --- .. . ... : ... .. . ... : ... .. . ... ... : ... .. . ... ... : ... .. . ... ... : --- .. . P81 ...
ROW 57 : ... .. . ... ... ... : ... .. . ... ... ... : ... .. . ... : ... .. . ... : ... .. . ... ... : ... .. . ... ... : ... .. . ... ... : ... .. . ... ...
ROW 58 : ... .. . ... ... ... : C#2 00 A ... ... ... : F#2 00 . ... : E-# 00 A ... : ... .. . ... ... : ... .. 6 ... ... : ... .. 6 ... ... : F#0 01 F P80 ...
ROW 59 : ... .. . ... ... ... : ... .. 8 ... ... ... : ... .. . ... : ... .. 8 ... : ... .. . ... ... : ... .. . ... ... : ... .. . ... ... : ... .. D ... ...
ROW 5A : ... .. . ... ... ... : ... .. . ... ... ... : ... .. . ... : ... .. 4 ... : ... .. . ... ... : ... .. 5 ... ... : ... .. 5 ... ... : ... .. 8 ... ...
ROW 5B : ... .. . ... ... ... : ... .. . ... ... ... : ... .. . ... : ... .. 2 ... : ... .. . ... ... : ... .. 4 ... ... : ... .. 4 ... ... : ... .. . ... ...
ROW 5C : ... .. . ... ... ... : ... .. 4 ... ... ... : ... .. . ... : ... .. 1 ... : ... .. . ... ... : ... .. 2 ... ... : ... .. 2 ... ... : ... .. . ... ...
ROW 5D : ... .. . ... ... ... : ... .. 3 ... ... ... : ... .. . ... : ... .. 0 ... : ... .. . ... ... : ... .. . ... ... : ... .. . ... ... : ... .. . ... ...
ROW 5E : ... .. . ... ... ... : ... .. . ... ... ... : ... .. . ... : ... .. . ... : ... .. . ... ... : ... .. . ... ... : ... .. . ... ... : ... .. . ... ...
ROW 5F : ... .. . ... ... ... : ... .. . ... ... ... : ... .. . ... : ... .. . ... : ... .. . ... ... : ... .. . ... ... : ... .. . ... ... : ... .. . ... ...
ROW 60 : C#3 00 F P80 ... ... : A#2 00 A ... ... ... : B-3 00 . P7D : 5-# 00 D ... : ... .. . ... ... : ... .. 6 ... ... : ... .. 6 ... ... : ... .. . ... ...
ROW 61 : ... .. E ... ... ... : ... .. 8 ... ... ... : A#3 00 . P7C : ... .. . ... : ... .. . ... ... : ... .. . ... ... : ... .. . ... ... : ... .. . ... ...
ROW 62 : ... .. D ... ... ... : ... .. . ... ... ... : A-3 00 . P7B : 1-# 00 D ... : ... .. . ... ... : ... .. 5 ... ... : ... .. 5 ... ... : ... .. . ... ...
ROW 63 : ... .. A ... ... ... : ... .. . ... ... ... : G#3 00 . ... : F-# 00 6 ... : ... .. . ... ... : ... .. 4 ... ... : ... .. 4 ... ... : ... .. . ... ...
ROW 64 : ... .. . ... ... ... : ... .. 4 ... ... ... : G-3 00 . P7C : B-# 00 1 ... : ... .. . ... ... : ... .. 2 ... ... : ... .. 2 ... ... : ... .. . ... ...
ROW 65 : ... .. . ... ... ... : ... .. 3 ... ... ... : F#3 00 . P7E : ... .. 0 ... : ... .. . ... ... : ... .. . ... ... : ... .. . ... ... : ... .. . ... ...
ROW 66 : ... .. . ... ... ... : ... .. . ... ... ... : --- .. . ... : ... .. . ... : ... .. . ... ... : ... .. . ... ... : ... .. . ... ... : --- .. . P81 ...
ROW 67 : ... .. . ... ... ... : ... .. . ... ... ... : ... .. . ... : ... .. . ... : ... .. . ... ... : ... .. . ... ... : ... .. . ... ... : ... .. . ... ...
ROW 68 : ... .. . ... ... ... : F#3 00 A ... ... ... : F#2 00 . P80 : E-# 00 A ... : ... .. . ... ... : ... .. 6 ... ... : ... .. 6 ... ... : F#0 01 F P80 ...
ROW 69 : ... .. . ... ... ... : ... .. 8 ... ... ... : ... .. . ... : ... .. 8 ... : ... .. . ... ... : ... .. . ... ... : ... .. . ... ... : ... .. D ... ...
ROW 6A : ... .. . ... ... ... : ... .. . ... ... ... : ... .. . ... : ... .. 4 ... : ... .. . ... ... : ... .. 5 ... ... : ... .. 5 ... ... : ... .. 8 ... ...
ROW 6B : ... .. . ... ... ... : ... .. . ... ... ... : ... .. . ... : ... .. 2 ... : ... .. . ... ... : ... .. 4 ... ... : ... .. 4 ... ... : ... .. . ... ...
ROW 6C : ... .. . ... ... ... : ... .. 4 ... ... ... : ... .. . ... : ... .. 1 ... : ... .. . ... ... : ... .. 2 ... ... : ... .. 2 ... ... : ... .. . ... ...
ROW 6D : ... .. . ... ... ... : ... .. 3 ... ... ... : ... .. . ... : ... .. 0 ... : ... .. . ... ... : ... .. . ... ... : ... .. . ... ... : ... .. . ... ...
ROW 6E : ... .. . ... ... ... : ... .. . ... ... ... : --- .. . ... : ... .. . ... : ... .. . ... ... : ... .. . ... ... : ... .. . ... ... : --- .. . P81 ...
ROW 6F : ... .. . ... ... ... : ... .. . ... ... ... : ... .. . ... : ... .. . ... : ... .. . ... ... : ... .. . ... ... : ... .. . ... ... : ... .. . ... ...
ROW 70 : G#3 00 F ... ... ... : C#3 00 A ... ... ... : C#3 00 . ... : ... .. F ... : ... .. . ... ... : ... .. 6 ... ... : ... .. 6 ... ... : C#1 01 F P80 ...
ROW 71 : A-3 00 E P7A ... ... : ... .. 8 ... ... ... : ... .. . ... : ... .. C ... : ... .. . ... ... : ... .. . ... ... : ... .. . ... ... : ... .. D ... ...
ROW 72 : ... .. D P83 ... ... : ... .. . ... ... ... : ... .. . ... : ... .. 6 ... : ... .. . ... ... : ... .. 5 ... ... : ... .. 5 ... ... : ... .. 8 ... ...
ROW 73 : A#3 00 A P7E ... ... : ... .. . ... ... ... : ... .. . ... : ... .. 3 ... : ... .. . ... ... : ... .. 4 ... ... : ... .. 4 ... ... : ... .. . ... ...
ROW 74 : ... .. . P80 ... ... : ... .. 4 ... ... ... : ... .. . ... : ... .. 2 ... : ... .. . ... ... : ... .. 2 ... ... : ... .. 2 ... ... : ... .. . ... ...
ROW 75 : ... .. . ... ... ... : ... .. 3 ... ... ... : ... .. . ... : ... .. 0 ... : ... .. . ... ... : ... .. . ... ... : ... .. . ... ... : ... .. . ... ...
ROW 76 : ... .. . ... ... ... : ... .. . ... ... ... : --- .. . ... : ... .. . ... : ... .. . ... ... : ... .. . ... ... : ... .. . ... ... : --- .. . P81 ...
ROW 77 : ... .. . ... ... ... : ... .. . ... ... ... : ... .. . ... : ... .. . ... : ... .. . ... ... : ... .. . ... ... : ... .. . ... ... : ... .. . ... ...
ROW 78 : ... .. . ... ... ... : A#3 00 A ... ... ... : E-3 00 . ... : D-# 00 A ... : ... .. . ... ... : ... .. 6 ... ... : ... .. 6 ... ... : E-1 01 F P80 ...
ROW 79 : ... .. . ... ... ... : ... .. 8 ... ... ... : ... .. . ... : ... .. . ... : ... .. . ... ... : ... .. . ... ... : ... .. . ... ... : ... .. D ... ...
ROW 7A : ... .. . ... ... ... : ... .. . ... ... ... : ... .. . ... : ... .. . ... : ... .. . ... ... : ... .. 5 ... ... : ... .. 5 ... ... : ... .. 8 ... ...
ROW 7B : ... .. . ... ... ... : ... .. . ... ... ... : ... .. . ... : ... .. . ... : ... .. . ... ... : ... .. 4 ... ... : ... .. 4 ... ... : ... .. . ... ...
ROW 7C : ... .. . ... ... ... : ... .. 4 ... ... ... : ... .. . ... : ... .. . ... : ... .. . ... ... : ... .. 2 ... ... : ... .. 2 ... ... : ... .. . ... ...
ROW 7D : ... .. . ... ... ... : ... .. 3 ... ... ... : ... .. . ... : ... .. . ... : ... .. . ... ... : ... .. . ... ... : ... .. . ... ... : ... .. . ... ...
ROW 7E : ... .. . ... ... ... : ... .. . ... ... ... : --- .. . ... : ... .. . ... : ... .. . ... ... : ... .. . ... ... : ... .. . ... ... : --- .. . P82 ...
ROW 7F : ... .. . ... ... ... : ... .. . ... ... ... : ... .. . ... : ... .. . ... : ... .. . ... ... : ... .. . ... ... : ... .. . ... ... : ... .. . ... ...
ROW 80 : G#3 00 F ... ... ... : C#2 00 A ... ... ... : A#2 00 . P82 : 1-# 00 F ... : ... .. . ... ... : ... .. 6 ... ... : ... .. 6 ... ... : F#1 01 F P80 ...
ROW 81 : ... .. E ... ... ... : ... .. 8 ... ... ... : G#2 00 . P8B : ... .. C ... : ... .. . ... ... : ... .. . ... ... : ... .. . ... ... : ... .. D ... ...
ROW 82 : ... .. D ... ... ... : ... .. . ... ... ... : G-2 00 . P79 : ... .. 6 ... : ... .. . ... ... : ... .. 5 ... ... : ... .. 5 ... ... : ... .. 8 ... ...
ROW 83 : ... .. A ... ... ... : ... .. . ... ... ... : F-2 00 . P8D : ... .. 3 ... : ... .. . ... ... : ... .. 4 ... ... : ... .. 4 ... ... : ... .. . ... ...
ROW 84 : ... .. . ... ... ... : ... .. 4 ... ... ... : E-2 00 . P81 : ... .. 2 ... : ... .. . ... ... : ... .. 2 ... ... : ... .. 2 ... ... : ... .. . ... ...
ROW 85 : ... .. . ... ... ... : ... .. 3 ... ... ... : D#2 00 . P77 : ... .. 0 ... : ... .. . ... ... : ... .. . ... ... : ... .. . ... ... : ... .. . ... ...
ROW 86 : ... .. . ... ... ... : ... .. . ... ... ... : --- .. . ... : ... .. . ... : ... .. . ... ... : ... .. . ... ... : ... .. . ... ... : --- .. . P81 ...
ROW 87 : ... .. . ... ... ... : ... .. . ... ... ... : ... .. . ... : ... .. . ... : ... .. . ... ... : ... .. . ... ... : ... .. . ... ... : ... .. . ... ...
ROW 88 : ... .. . ... ... ... : F#2 00 A ... ... ... : F#2 00 . P80 : E-# 00 A ... : ... .. . ... ... : ... .. 6 ... ... : ... .. 6 ... ... : F#0 01 F P80 ...
ROW 89 : ... .. . ... ... ... : ... .. 8 ... ... ... : ... .. . ... : ... .. 8 ... : ... .. . ... ... : ... .. . ... ... : ... .. . ... ... : ... .. D ... ...
ROW 8A : ... .. . ... ... ... : ... .. . ... ... ... : ... .. . ... : ... .. 4 ... : ... .. . ... ... : ... .. 5 ... ... : ... .. 5 ... ... : ... .. 8 ... ...
ROW 8B : ... .. . ... ... ... : ... .. . ... ... ... : ... .. . ... : ... .. 2 ... : ... .. . ... ... : ... .. 4 ... ... : ... .. 4 ... ... : ... .. . ... ...
ROW 8C : ... .. . ... ... ... : ... .. 4 ... ... ... : ... .. . ... : ... .. 1 ... : ... .. . ... ... : ... .. 2 ... ... : ... .. 2 ... ... : ... .. . ... ...
ROW 8D : ... .. . ... ... ... : ... .. 3 ... ... ... : ... .. . ... : ... .. 0 ... : ... .. . ... ... : ... .. . ... ... : ... .. . ... ... : ... .. . ... ...
ROW 8E : ... .. . ... ... ... : ... .. . ... ... ... : ... .. . ... : ... .. . ... : ... .. . ... ... : ... .. . ... ... : ... .. . ... ... : ... .. . ... ...
ROW 8F : ... .. . ... ... ... : ... .. . ... ... ... : ... .. . ... : ... .. . ... : ... .. . ... ... : ... .. . ... ... : ... .. . ... ... : ... .. . ... ...
ROW 90 : ... .. . ... ... ... : C#3 00 A ... ... ... : ... .. . ... : ... .. F ... : ... .. . ... ... : ... .. 6 ... ... : ... .. 6 ... ... : ... .. . ... ...
ROW 91 : ... .. . ... ... ... : ... .. 8 ... ... ... : ... .. . ... : ... .. C ... : ... .. . ... ... : ... .. . ... ... : ... .. . ... ... : ... .. . ... ...
ROW 92 : ... .. . ... ... ... : ... .. . ... ... ... : ... .. . ... : ... .. 6 ... : ... .. . ... ... : ... .. 5 ... ... : ... .. 5 ... ... : ... .. . ... ...
ROW 93 : ... .. . ... ... ... : ... .. . ... ... ... : ... .. . ... : ... .. 3 ... : ... .. . ... ... : ... .. 4 ... ... : ... .. 4 ... ... : ... .. . ... ...
ROW 94 : ... .. . ... ... ... : ... .. 4 ... ... ... : ... .. . ... : ... .. 2 ... : ... .. . ... ... : ... .. 2 ... ... : ... .. 2 ... ... : ... .. . ... ...
ROW 95 : ... .. . ... ... ... : ... .. 3 ... ... ... : ... .. . ... : ... .. 0 ... : ... .. . ... ... : ... .. . ... ... : ... .. . ... ... : ... .. . ... ...
ROW 96 : ... .. . ... ... ... : ... .. . ... ... ... : --- .. . ... : ... .. . ... : ... .. . ... ... : ... .. . ... ... : ... .. . ... ... : --- .. . P81 ...
ROW 97 : ... .. . ... ... ... : ... .. . ... ... ... : ... .. . ... : ... .. . ... : ... .. . ... ... : ... .. . ... ... : ... .. . ... ... : ... .. . ... ...
ROW 98 : F#3 00 F ... ... ... : A#2 00 A ... ... ... : F#2 00 . ... : 1-# 00 F ... : ... .. . ... ... : ... .. 6 ... ... : ... .. 6 ... ... : F#0 01 F P80 ...
ROW 99 : ... .. E ... ... ... : ... .. 8 ... ... ... : ... .. . ... : ... .. C ... : ... .. . ... ... : ... .. . ... ... : ... .. . ... ... : ... .. D ... ...
ROW 9A : ... .. D ... ... ... : ... .. . ... ... ... : ... .. . ... : ... .. 6 ... : ... .. . ... ... : ... .. 5 ... ... : ... .. 5 ... ... : ... .. 8 ... ...
ROW 9B : ... .. A ... ... ... : ... .. . ... ... ... : ... .. . ... : ... .. 3 ... : ... .. . ... ... : ... .. 4 ... ... : ... .. 4 ... ... : ... .. . ... ...
ROW 9C : ... .. . ... ... ... : ... .. 4 ... ... ... : ... .. . ... : ... .. 2 ... : ... .. . ... ... : ... .. 2 ... ... : ... .. 2 ... ... : ... .. . ... ...
ROW 9D : ... .. . ... ... ... : ... .. 3 ... ... ... : ... .. . ... : ... .. 0 ... : ... .. . ... ... : ... .. . ... ... : ... .. . ... ... : ... .. . ... ...
ROW 9E : ... .. . ... ... ... : ... .. . ... ... ... : ... .. . ... : ... .. . ... : ... .. . ... ... : ... .. . ... ... : ... .. . ... ... : ... .. . ... ...
ROW 9F : ... .. . ... ... ... : ... .. . ... ... ... : ... .. . ... : ... .. . ... : ... .. . ... ... : ... .. . ... ... : ... .. . ... ... : ... .. . ... ...
ROW A0 : ... .. . ... ... ... : F#3 00 A ... ... ... : B-3 00 . P7D : 5-# 00 D ... : ... .. . ... ... : ... .. 6 ... ... : ... .. 6 ... ... : ... .. . ... ...
ROW A1 : ... .. . ... ... ... : ... .. 8 ... ... ... : A#3 00 . P7C : ... .. . ... : ... .. . ... ... : ... .. . ... ... : ... .. . ... ... : ... .. . ... ...
ROW A2 : ... .. . ... ... ... : ... .. . ... ... ... : A-3 00 . P7B : 1-# 00 D ... : ... .. . ... ... : ... .. 5 ... ... : ... .. 5 ... ... : ... .. . ... ...
ROW A3 : ... .. . ... ... ... : ... .. . ... ... ... : G#3 00 . ... : F-# 00 6 ... : ... .. . ... ... : ... .. 4 ... ... : ... .. 4 ... ... : ... .. . ... ...
ROW A4 : ... .. . ... ... ... : ... .. 4 ... ... ... : G-3 00 . P7C : B-# 00 1 ... : ... .. . ... ... : ... .. 2 ... ... : ... .. 2 ... ... : ... .. . ... ...
ROW A5 : ... .. . ... ... ... : ... .. 3 ... ... ... : F#3 00 . P7E : ... .. 0 ... : ... .. . ... ... : ... .. . ... ... : ... .. . ... ... : ... .. . ... ...
ROW A6 : ... .. . ... ... ... : ... .. . ... ... ... : --- .. . ... : ... .. . ... : ... .. . ... ... : ... .. . ... ... : ... .. . ... ... : --- .. . P81 ...
ROW A7 : ... .. . ... ... ... : ... .. . ... ... ... : ... .. . ... : ... .. . ... : ... .. . ... ... : ... .. . ... ... : ... .. . ... ... : ... .. . ... ...
ROW A8 : ... .. . ... ... ... : C#4 00 A ... ... ... : F#2 00 . P80 : E-# 00 A ... : ... .. . ... ... : ... .. 6 ... ... : ... .. 6 ... ... : F#0 01 F P80 ...
ROW A9 : ... .. . ... ... ... : ... .. 8 ... ... ... : ... .. . ... : ... .. 8 ... : ... .. . ... ... : ... .. . ... ... : ... .. . ... ... : ... .. D ... ...
ROW AA : ... .. . ... ... ... : ... .. . ... ... ... : ... .. . ... : ... .. 4 ... : ... .. . ... ... : ... .. 5 ... ... : ... .. 5 ... ... : ... .. 8 ... ...
ROW AB : ... .. . ... ... ... : ... .. . ... ... ... : ... .. . ... : ... .. 2 ... : ... .. . ... ... : ... .. 4 ... ... : ... .. 4 ... ... : ... .. . ... ...
ROW AC : ... .. . ... ... ... : ... .. 4 ... ... ... : ... .. . ... : ... .. 1 ... : ... .. . ... ... : ... .. 2 ... ... : ... .. 2 ... ... : ... .. . ... ...
ROW AD : ... .. . ... ... ... : ... .. 3 ... ... ... : ... .. . ... : ... .. 0 ... : ... .. . ... ... : ... .. . ... ... : ... .. . ... ... : ... .. . ... ...
ROW AE : ... .. . ... ... ... : ... .. . ... ... ... : --- .. . ... : ... .. . ... : ... .. . ... ... : ... .. . ... ... : ... .. . ... ... : --- .. . P81 ...
ROW AF : ... .. . ... ... ... : ... .. . ... ... ... : ... .. . ... : ... .. . ... : ... .. . ... ... : ... .. . ... ... : ... .. . ... ... : ... .. . ... ...
ROW B0 : G#3 00 F ... ... ... : A#3 00 A ... ... ... : G#2 00 . ... : ... .. F ... : ... .. . ... ... : ... .. 6 ... ... : ... .. 6 ... ... : G#0 01 F P80 ...
ROW B1 : A-3 00 E P7A ... ... : ... .. 8 ... ... ... : ... .. . ... : ... .. C ... : ... .. . ... ... : ... .. . ... ... : ... .. . ... ... : ... .. D ... ...
ROW B2 : ... .. D P83 ... ... : ... .. . ... ... ... : ... .. . ... : ... .. 6 ... : ... .. . ... ... : ... .. 5 ... ... : ... .. 5 ... ... : ... .. 8 ... ...
ROW B3 : A#3 00 A P7E ... ... : ... .. . ... ... ... : ... .. . ... : ... .. 3 ... : ... .. . ... ... : ... .. 4 ... ... : ... .. 4 ... ... : ... .. . ... ...
ROW B4 : ... .. . P80 ... ... : ... .. 4 ... ... ... : ... .. . ... : ... .. 2 ... : ... .. . ... ... : ... .. 2 ... ... : ... .. 2 ... ... : ... .. . ... ...
ROW B5 : ... .. . ... ... ... : ... .. 3 ... ... ... : ... .. . ... : ... .. 0 ... : ... .. . ... ... : ... .. . ... ... : ... .. . ... ... : ... .. . ... ...
ROW B6 : ... .. . ... ... ... : ... .. . ... ... ... : --- .. . ... : ... .. . ... : ... .. . ... ... : ... .. . ... ... : ... .. . ... ... : --- .. . P84 ...
ROW B7 : ... .. . ... ... ... : ... .. . ... ... ... : ... .. . ... : ... .. . ... : ... .. . ... ... : ... .. . ... ... : ... .. . ... ... : ... .. . ... ...
ROW B8 : ... .. . ... ... ... : F#4 00 A ... ... ... : B-2 00 . ... : F-# 00 F ... : ... .. . ... ... : ... .. 6 ... ... : ... .. 6 ... ... : B-0 01 F P80 ...
ROW B9 : ... .. . ... ... ... : ... .. 8 ... ... ... : ... .. . ... : ... .. C ... : ... .. . ... ... : ... .. . ... ... : ... .. . ... ... : ... .. D ... ...
ROW BA : ... .. . ... ... ... : ... .. . ... ... ... : ... .. . ... : ... .. 6 ... : ... .. . ... ... : ... .. 5 ... ... : ... .. 5 ... ... : ... .. 8 ... ...
ROW BB : ... .. . ... ... ... : ... .. . ... ... ... : ... .. . ... : ... .. 3 ... : ... .. . ... ... : ... .. 4 ... ... : ... .. 4 ... ... : ... .. . ... ...
ROW BC : ... .. . ... ... ... : ... .. 4 ... ... ... : ... .. . ... : ... .. F ... : ... .. . ... ... : ... .. 2 ... ... : ... .. 2 ... ... : ... .. . ... ...
ROW BD : ... .. 2 ... ... ... : ... .. 3 ... ... ... : ... .. . ... : ... .. C ... : ... .. . ... ... : ... .. . ... ... : ... .. . ... ... : ... .. . ... ...
ROW BE : ... .. . ... ... ... : ... .. . ... ... ... : --- .. . ... : ... .. 6 ... : ... .. . ... ... : ... .. . ... ... : ... .. . ... ... : --- .. . ... ...
ROW BF : ... .. . ... ... ... : ... .. . ... ... ... : ... .. . ... : ... .. 3 ... : ... .. . ... ... : ... .. . ... ... : ... .. . ... ... : ... .. . ... ...
ROW C0 : ... .. F ... ... ... : C#1 00 A ... ... ... : A#2 00 . P82 : 1-# 00 F ... : ... .. . ... ... : E-3 01 6 ... ... : G#3 01 6 ... ... : C#1 01 F ... ...
ROW C1 : ... .. E ... ... ... : ... .. 8 ... ... ... : G#2 00 . P8B : ... .. C ... : ... .. . ... ... : ... .. . ... ... : ... .. . ... ... : ... .. D ... ...
ROW C2 : ... .. D ... ... ... : ... .. . ... ... ... : G-2 00 . P79 : ... .. 6 ... : ... .. . ... ... : ... .. 5 ... ... : ... .. 5 ... ... : ... .. 8 ... ...
ROW C3 : ... .. A ... ... ... : ... .. . ... ... ... : F-2 00 . P8D : ... .. 3 ... : ... .. . ... ... : ... .. 4 ... ... : ... .. 4 ... ... : ... .. . ... ...
ROW C4 : ... .. . ... ... ... : ... .. 4 ... ... ... : E-2 00 . P81 : ... .. 2 ... : ... .. . ... ... : ... .. 2 ... ... : ... .. 2 ... ... : ... .. . ... ...
ROW C5 : ... .. . ... ... ... : ... .. 3 ... ... ... : D#2 00 . P77 : ... .. 0 ... : ... .. . ... ... : ... .. . ... ... : ... .. . ... ... : ... .. . ... ...
ROW C6 : ... .. . ... ... ... : ... .. . ... ... ... : --- .. . ... : ... .. . ... : ... .. . ... ... : ... .. . ... ... : ... .. . ... ... : --- .. . P81 ...
ROW C7 : ... .. . ... ... ... : ... .. . ... ... ... : ... .. . ... : ... .. . ... : ... .. . ... ... : ... .. . ... ... : ... .. . ... ... : ... .. . ... ...
ROW C8 : ... .. . ... ... ... : C#2 00 A ... ... ... : C#2 00 . P80 : E-# 00 A ... : ... .. . ... ... : ... .. 6 ... ... : ... .. 6 ... ... : C#0 01 F P80 ...
ROW C9 : ... .. . ... ... ... : ... .. 8 ... ... ... : ... .. . ... : ... .. 8 ... : ... .. . ... ... : ... .. . ... ... : ... .. . ... ... : ... .. D ... ...
ROW CA : ... .. . ... ... ... : ... .. . ... ... ... : ... .. . ... : ... .. 4 ... : ... .. . ... ... : ... .. 5 ... ... : ... .. 5 ... ... : ... .. 8 ... ...
ROW CB : ... .. . ... ... ... : ... .. . ... ... ... : ... .. . ... : ... .. 2 ... : ... .. . ... ... : ... .. 4 ... ... : ... .. 4 ... ... : ... .. . ... ...
ROW CC : ... .. . ... ... ... : ... .. 4 ... ... ... : ... .. . ... : ... .. 1 ... : ... .. . ... ... : ... .. 2 ... ... : ... .. 2 ... ... : ... .. . ... ...
ROW CD : ... .. . ... ... ... : ... .. 3 ... ... ... : ... .. . ... : ... .. 0 ... : ... .. . ... ... : ... .. . ... ... : ... .. . ... ... : ... .. . ... ...
ROW CE : ... .. . ... ... ... : ... .. . ... ... ... : ... .. . ... : ... .. . ... : ... .. . ... ... : ... .. . ... ... : ... .. . ... ... : ... .. . ... ...
ROW CF : ... .. . ... ... ... : ... .. . ... ... ... : ... .. . ... : ... .. . ... : ... .. . ... ... : ... .. . ... ... : ... .. . ... ... : ... .. . ... ...
ROW D0 : B-3 00 F ... ... ... : B-2 00 A ... ... ... : ... .. . ... : 1-# 00 F ... : ... .. . ... ... : ... .. 6 ... ... : ... .. 6 ... ... : ... .. . ... ...
ROW D1 : ... .. E ... ... ... : ... .. 8 ... ... ... : ... .. . ... : ... .. C ... : ... .. . ... ... : ... .. . ... ... : ... .. . ... ... : ... .. . ... ...
ROW D2 : ... .. D ... ... ... : ... .. . ... ... ... : ... .. . ... : ... .. 6 ... : ... .. . ... ... : ... .. 5 ... ... : ... .. 5 ... ... : ... .. . ... ...
ROW D3 : ... .. A ... ... ... : ... .. . ... ... ... : ... .. . ... : ... .. 3 ... : ... .. . ... ... : ... .. 4 ... ... : ... .. 4 ... ... : ... .. . ... ...
ROW D4 : ... .. . ... ... ... : ... .. 4 ... ... ... : ... .. . ... : ... .. 2 ... : ... .. . ... ... : ... .. 2 ... ... : ... .. 2 ... ... : ... .. . ... ...
ROW D5 : ... .. 2 ... ... ... : ... .. 3 ... ... ... : ... .. . ... : ... .. 0 ... : ... .. . ... ... : ... .. . ... ... : ... .. . ... ... : ... .. . ... ...
ROW D6 : ... .. . ... ... ... : ... .. . ... ... ... : --- .. . ... : ... .. . ... : ... .. . ... ... : ... .. . ... ... : ... .. . ... ... : --- .. . P83 ...
ROW D7 : ... .. . ... ... ... : ... .. . ... ... ... : ... .. . ... : ... .. . ... : ... .. . ... ... : ... .. . ... ... : ... .. . ... ... : ... .. . ... ...
ROW D8 : G#3 00 F ... ... ... : E-2 00 A ... ... ... : C#2 00 . ... : E-# 00 A ... : ... .. . ... ... : ... .. 6 ... ... : ... .. 6 ... ... : C#0 01 F P80 ...
ROW D9 : ... .. E ... ... ... : ... .. 8 ... ... ... : ... .. . ... : ... .. 8 ... : ... .. . ... ... : ... .. . ... ... : ... .. . ... ... : ... .. D ... ...
ROW DA : ... .. D ... ... ... : ... .. . ... ... ... : ... .. . ... : ... .. 4 ... : ... .. . ... ... : ... .. 5 ... ... : ... .. 5 ... ... : ... .. 8 ... ...
ROW DB : ... .. A ... ... ... : ... .. . ... ... ... : ... .. . ... : ... .. 2 ... : ... .. . ... ... : ... .. 4 ... ... : ... .. 4 ... ... : ... .. . ... ...
ROW DC : ... .. . ... ... ... : ... .. 4 ... ... ... : ... .. . ... : ... .. 1 ... : ... .. . ... ... : ... .. 2 ... ... : ... .. 2 ... ... : ... .. . ... ...
ROW DD : ... .. . ... ... ... : ... .. 3 ... ... ... : ... .. . ... : ... .. 0 ... : ... .. . ... ... : ... .. . ... ... : ... .. . ... ... : ... .. . ... ...
ROW DE : ... .. . ... ... ... : ... .. . ... ... ... : ... .. . ... : ... .. . ... : ... .. . ... ... : ... .. . ... ... : ... .. . ... ... : ... .. . ... ...
ROW DF : ... .. . ... ... ... : ... .. . ... ... ... : ... .. . ... : ... .. . ... : ... .. . ... ... : ... .. . ... ... : ... .. . ... ... : ... .. . ... ...
ROW E0 : ... .. . ... ... ... : G#2 00 A ... ... ... : B-3 00 . P7D : 5-# 00 D ... : ... .. . ... ... : D#3 01 6 ... ... : F#3 01 6 ... ... : ... .. . ... ...
ROW E1 : ... .. . ... ... ... : ... .. 8 ... ... ... : A#3 00 . P7C : ... .. . ... : ... .. . ... ... : ... .. . ... ... : ... .. . ... ... : ... .. . ... ...
ROW E2 : ... .. . ... ... ... : ... .. . ... ... ... : A-3 00 . P7B : 1-# 00 D ... : ... .. . ... ... : ... .. 5 ... ... : ... .. 5 ... ... : ... .. . ... ...
ROW E3 : ... .. . ... ... ... : ... .. . ... ... ... : G#3 00 . ... : F-# 00 6 ... : ... .. . ... ... : ... .. 4 ... ... : ... .. 4 ... ... : ... .. . ... ...
ROW E4 : ... .. . P84 ... ... : ... .. 4 ... ... ... : G-3 00 . P7C : B-# 00 1 ... : ... .. . ... ... : ... .. 2 ... ... : ... .. 2 ... ... : ... .. . ... ...
ROW E5 : ... .. . P86 ... ... : ... .. 3 ... ... ... : F#3 00 . P7E : ... .. 0 ... : ... .. . ... ... : ... .. . ... ... : ... .. . ... ... : ... .. . ... ...
ROW E6 : ... .. . P85 ... ... : ... .. . ... ... ... : --- .. . ... : ... .. . ... : ... .. . ... ... : ... .. . ... ... : ... .. . ... ... : --- .. . P83 ...
ROW E7 : ... .. . P82 ... ... : ... .. . ... ... ... : ... .. . ... : ... .. . ... : ... .. . ... ... : ... .. . ... ... : ... .. . ... ... : ... .. . ... ...
ROW E8 : ... .. . P7E ... ... : E-3 00 A ... ... ... : C#3 00 . P80 : E-# 00 A ... : ... .. . ... ... : ... .. 6 ... ... : ... .. 6 ... ... : C#1 01 F P80 ...
ROW E9 : ... .. . P7B ... ... : ... .. 8 ... ... ... : ... .. . ... : ... .. 8 ... : ... .. . ... ... : ... .. . ... ... : ... .. . ... ... : ... .. D ... ...
ROW EA : ... .. . P7A ... ... : ... .. . ... ... ... : ... .. . ... : ... .. 4 ... : ... .. . ... ... : ... .. 5 ... ... : ... .. 5 ... ... : ... .. 8 ... ...
ROW EB : ... .. . P7C ... ... : ... .. . ... ... ... : ... .. . ... : ... .. 2 ... : ... .. . ... ... : ... .. 4 ... ... : ... .. 4 ... ... : ... .. . ... ...
ROW EC : ... .. . P80 ... ... : ... .. 4 ... ... ... : ... .. . ... : ... .. 1 ... : ... .. . ... ... : ... .. 2 ... ... : ... .. 2 ... ... : ... .. . ... ...
ROW ED : ... .. . P83 ... ... : ... .. 3 ... ... ... : ... .. . ... : ... .. 0 ... : ... .. . ... ... : ... .. . ... ... : ... .. . ... ... : ... .. . ... ...
ROW EE : ... .. . P86 ... ... : ... .. . ... ... ... : --- .. . ... : ... .. . ... : ... .. . ... ... : ... .. . ... ... : ... .. . ... ... : --- .. . P81 ...
ROW EF : ... .. . ... ... ... : ... .. . ... ... ... : ... .. . ... : ... .. . ... : ... .. . ... ... : ... .. . ... ... : ... .. . ... ... : ... .. . ... ...
ROW F0 : B-3 00 8 P80 ... ... : C#3 00 A ... ... ... : B-3 00 . ... : ... .. F ... : ... .. . ... ... : ... .. 6 ... ... : ... .. 6 ... ... : B-1 01 F P80 ...
ROW F1 : ... .. 7 ... ... ... : ... .. 8 ... ... ... : ... .. . ... : ... .. C ... : ... .. . ... ... : ... .. . ... ... : ... .. . ... ... : ... .. D ... ...
ROW F2 : ... .. 6 ... ... ... : ... .. . ... ... ... : ... .. . ... : ... .. 6 ... : ... .. . ... ... : ... .. 5 ... ... : ... .. 5 ... ... : ... .. 8 ... ...
ROW F3 : ... .. 5 ... ... ... : ... .. . ... ... ... : ... .. . ... : ... .. 3 ... : ... .. . ... ... : ... .. 4 ... ... : ... .. 4 ... ... : ... .. . ... ...
ROW F4 : ... .. . ... ... ... : ... .. 4 ... ... ... : ... .. . ... : ... .. 2 ... : ... .. . ... ... : ... .. 2 ... ... : ... .. 2 ... ... : ... .. . ... ...
ROW F5 : ... .. 1 ... ... ... : ... .. 3 ... ... ... : ... .. . ... : ... .. 0 ... : ... .. . ... ... : ... .. . ... ... : ... .. . ... ... : ... .. . ... ...
ROW F6 : ... .. . ... ... ... : ... .. . ... ... ... : --- .. . ... : ... .. . ... : ... .. . ... ... : ... .. . ... ... : ... .. . ... ... : --- .. . P86 ...
ROW F7 : ... .. . ... ... ... : ... .. . ... ... ... : ... .. . ... : ... .. . ... : ... .. . ... ... : ... .. . ... ... : ... .. . ... ... : ... .. . ... ...
ROW F8 : G#3 00 8 ... ... ... : G#3 00 A ... ... ... : C#4 00 . ... : D-# 00 A ... : ... .. . ... ... : ... .. 6 ... ... : ... .. 6 ... ... : C#2 01 F P80 ...
ROW F9 : ... .. 7 ... ... ... : ... .. 8 ... ... ... : ... .. . ... : ... .. . ... : ... .. . ... ... : ... .. . ... ... : ... .. . ... ... : ... .. D ... ...
ROW FA : ... .. 6 ... ... ... : ... .. . ... ... ... : ... .. . ... : ... .. . ... : ... .. . ... ... : ... .. 5 ... ... : ... .. 5 ... ... : ... .. 8 ... ...
ROW FB : ... .. 5 ... ... ... : ... .. . ... ... ... : ... .. . ... : ... .. . ... : ... .. . ... ... : ... .. 4 ... ... : ... .. 4 ... ... : ... .. . ... ...
ROW FC : ... .. . ... ... ... : ... .. 4 ... ... ... : ... .. . ... : ... .. . ... : ... .. . ... ... : ... .. 2 ... ... : ... .. 2 ... ... : ... .. . ... ...
ROW FD : ... .. . ... ... ... : ... .. 3 ... ... ... : ... .. . ... : ... .. . ... : ... .. . ... ... : ... .. . ... ... : ... .. . ... ... : ... .. . ... ...
ROW FE : ... .. . ... ... ... : ... .. . ... ... ... : --- .. . ... : ... .. . ... : ... .. . ... ... : ... .. . ... ... : ... .. . ... ... : --- .. . ... ...
ROW FF : ... .. . ... ... ... : ... .. . ... ... ... : ... .. . ... : ... .. . ... : ... .. . ... ... : ... .. . ... ... : ... .. . ... ... : ... .. . ... ...

PATTERN 04
ROW 00 : ... .. . ... ... ... : C#1 00 A ... ... ... : A#2 00 . P82 : 1-# 00 F ... : ... .. . ... ... : C#3 01 6 ... ... : E-3 01 6 ... ... : C#1 01 F ... ...
ROW 01 : ... .. . ... ... ... : ... .. 8 ... ... ... : G#2 00 . P8B : ... .. C ... : ... .. . ... ... : ... .. . ... ... : ... .. . ... ... : ... .. D ... ...
ROW 02 : ... .. . ... ... ... : ... .. . ... ... ... : G-2 00 . P79 : ... .. 6 ... : ... .. . ... ... : ... .. 5 ... ... : ... .. 5 ... ... : ... .. 8 ... ...
ROW 03 : ... .. . ... ... ... : ... .. . ... ... ... : F-2 00 . P8D : ... .. 3 ... : ... .. . ... ... : ... .. 4 ... ... : ... .. 4 ... ... : ... .. . ... ...
ROW 04 : ... .. . P84 ... ... : ... .. 4 ... ... ... : E-2 00 . P81 : ... .. 2 ... : ... .. . ... ... : ... .. 2 ... ... : ... .. 2 ... ... : ... .. . ... ...
ROW 05 : ... .. . P86 ... ... : ... .. 3 ... ... ... : D#2 00 . P77 : ... .. 0 ... : ... .. . ... ... : ... .. . ... ... : ... .. . ... ... : ... .. . ... ...
ROW 06 : ... .. . P85 ... ... : ... .. . ... ... ... : --- .. . ... : ... .. . ... : ... .. . ... ... : ... .. . ... ... : ... .. . ... ... : --- .. . P81 ...
ROW 07 : ... .. . P82 ... ... : ... .. . ... ... ... : ... .. . ... : ... .. . ... : ... .. . ... ... : ... .. . ... ... : ... .. . ... ... : ... .. . ... ...
ROW 08 : ... .. . P7E ... ... : G#1 00 A ... ... ... : C#2 00 . P80 : E-# 00 A ... : ... .. . ... ... : ... .. 6 ... ... : ... .. 6 ... ... : C#0 01 F P80 ...
ROW 09 : ... .. . P7B ... ... : ... .. 8 ... ... ... : ... .. . ... : ... .. 8 ... : ... .. . ... ... : ... .. . ... ... : ... .. . ... ... : ... .. D ... ...
ROW 0A : ... .. . P7A ... ... : ... .. . ... ... ... : ... .. . ... : ... .. 4 ... : ... .. . ... ... : ... .. 5 ... ... : ... .. 5 ... ... : ... .. 8 ... ...
ROW 0B : ... .. . P7C ... ... : ... .. . ... ... ... : ... .. . ... : ... .. 2 ... : ... .. . ... ... : ... .. 4 ... ... : ... .. 4 ... ... : ... .. . ... ...
ROW 0C : ... .. . P80 ... ... : ... .. 4 ... ... ... : ... .. . ... : ... .. 1 ... : ... .. . ... ... : ... .. 2 ... ... : ... .. 2 ... ... : ... .. . ... ...
ROW 0D : ... .. . P83 ... ... : ... .. 3 ... ... ... : ... .. . ... : ... .. 0 ... : ... .. . ... ... : ... .. . ... ... : ... .. . ... ... : ... .. . ... ...
ROW 0E : ... .. . P86 ... ... : ... .. . ... ... ... : ... .. . ... : ... .. . ... : ... .. . ... ... : ... .. . ... ... : ... .. . ... ... : ... .. . ... ...
ROW 0F : ... .. . ... ... ... : ... .. . ... ... ... : ... .. . ... : ... .. . ... : ... .. . ... ... : ... .. . ... ... : ... .. . ... ... : ... .. . ... ...
ROW 10 : B-3 00 6 P80 ... ... : G#2 00 A ... ... ... : ... .. . ... : ... .. F ... : ... .. . ... ... : G#2 01 6 ... ... : C#3 01 6 ... ... : ... .. . ... ...
ROW 11 : ... .. 5 ... ... ... : ... .. 8 ... ... ... : ... .. . ... : ... .. C ... : ... .. . ... ... : ... .. . ... ... : ... .. . ... ... : ... .. . ... ...
ROW 12 : ... .. . ... ... ... : ... .. . ... ... ... : ... .. . ... : ... .. 6 ... : ... .. . ... ... : ... .. 5 ... ... : ... .. 5 ... ... : ... .. . ... ...
ROW 13 : ... .. 4 ... ... ... : ... .. . ... ... ... : ... .. . ... : ... .. 3 ... : ... .. . ... ... : ... .. 4 ... ... : ... .. 4 ... ... : ... .. . ... ...
ROW 14 : ... .. . ... ... ... : ... .. 4 ... ... ... : ... .. . ... : ... .. 2 ... : ... .. . ... ... : ... .. 2 ... ... : ... .. 2 ... ... : ... .. . ... ...
ROW 15 : ... .. 1 ... ... ... : ... .. 3 ... ... ... : ... .. . ... : ... .. 0 ... : ... .. . ... ... : ... .. . ... ... : ... .. . ... ... : ... .. . ... ...
ROW 16 : ... .. . ... ... ... : ... .. . ... ... ... : --- .. . ... : ... .. . ... : ... .. . ... ... : ... .. . ... ... : ... .. . ... ... : --- .. . P83 ...
ROW 17 : ... .. . ... ... ... : ... .. . ... ... ... : ... .. . ... : ... .. . ... : ... .. . ... ... : ... .. . ... ... : ... .. . ... ... : ... .. . ... ...
ROW 18 : G#3 00 6 ... ... ... : C#2 00 A ... ... ... : C#2 00 . ... : 1-# 00 F ... : ... .. . ... ... : ... .. 6 ... ... : ... .. 6 ... ... : C#0 01 F P80 ...
ROW 19 : ... .. 5 ... ... ... : ... .. 8 ... ... ... : ... .. . ... : ... .. C ... : ... .. . ... ... : ... .. . ... ... : ... .. . ... ... : ... .. D ... ...
ROW 1A : ... .. . ... ... ... : ... .. . ... ... ... : ... .. . ... : ... .. 6 ... : ... .. . ... ... : ... .. 5 ... ... : ... .. 5 ... ... : ... .. 8 ... ...
ROW 1B : ... .. 4 ... ... ... : ... .. . ... ... ... : ... .. . ... : ... .. 3 ... : ... .. . ... ... : ... .. 4 ... ... : ... .. 4 ... ... : ... .. . ... ...
ROW 1C : ... .. . ... ... ... : ... .. 4 ... ... ... : ... .. . ... : ... .. 2 ... : ... .. . ... ... : ... .. 2 ... ... : ... .. 2 ... ... : ... .. . ... ...
ROW 1D : ... .. . ... ... ... : ... .. 3 ... ... ... : ... .. . ... : ... .. 0 ... : ... .. . ... ... : ... .. . ... ... : ... .. . ... ... : ... .. . ... ...
ROW 1E : ... .. . ... ... ... : ... .. . ... ... ... : ... .. . ... : ... .. . ... : ... .. . ... ... : ... .. . ... ... : ... .. . ... ... : ... .. . ... ...
ROW 1F : ... .. . ... ... ... : ... .. . ... ... ... : ... .. . ... : ... .. . ... : ... .. . ... ... : ... .. . ... ... : ... .. . ... ... : ... .. . ... ...
ROW 20 : ... .. . ... ... ... : E-2 00 A ... ... ... : B-3 00 . P7D : 5-# 00 D ... : ... .. . ... ... : C#3 01 6 ... ... : E-3 01 6 ... ... : ... .. . ... ...
ROW 21 : ... .. . ... ... ... : ... .. 8 ... ... ... : A#3 00 . P7C : ... .. . ... : ... .. . ... ... : ... .. . ... ... : ... .. . ... ... : ... .. . ... ...
ROW 22 : ... .. . ... ... ... : ... .. . ... ... ... : A-3 00 . P7B : 1-# 00 D ... : ... .. . ... ... : ... .. 5 ... ... : ... .. 5 ... ... : ... .. . ... ...
ROW 23 : ... .. . ... ... ... : ... .. . ... ... ... : G#3 00 . ... : F-# 00 6 ... : ... .. . ... ... : ... .. 4 ... ... : ... .. 4 ... ... : ... .. . ... ...
ROW 24 : ... .. . P84 ... ... : ... .. 4 ... ... ... : G-3 00 . P7C : B-# 00 1 ... : ... .. . ... ... : ... .. 2 ... ... : ... .. 2 ... ... : ... .. . ... ...
ROW 25 : ... .. . P86 ... ... : ... .. 3 ... ... ... : F#3 00 . P7E : ... .. 0 ... : ... .. . ... ... : ... .. . ... ... : ... .. . ... ... : ... .. . ... ...
ROW 26 : ... .. . P85 ... ... : ... .. . ... ... ... : --- .. . ... : ... .. . ... : ... .. . ... ... : ... .. . ... ... : ... .. . ... ... : --- .. . P83 ...
ROW 27 : ... .. . P82 ... ... : ... .. . ... ... ... : ... .. . ... : ... .. . ... : ... .. . ... ... : ... .. . ... ... : ... .. . ... ... : ... .. . ... ...
ROW 28 : ... .. . P7E ... ... : C#3 00 A ... ... ... : C#2 00 . P80 : E-# 00 A ... : ... .. . ... ... : ... .. 6 ... ... : ... .. 6 ... ... : C#0 01 F P80 ...
ROW 29 : ... .. . P7B ... ... : ... .. 8 ... ... ... : ... .. . ... : ... .. 8 ... : ... .. . ... ... : ... .. . ... ... : ... .. . ... ... : ... .. D ... ...
ROW 2A : ... .. . P7A ... ... : ... .. . ... ... ... : ... .. . ... : ... .. 4 ... : ... .. . ... ... : ... .. 5 ... ... : ... .. 5 ... ... : ... .. 8 ... ...
ROW 2B : ... .. . P7C ... ... : ... .. . ... ... ... : ... .. . ... : ... .. 2 ... : ... .. . ... ... : ... .. 4 ... ... : ... .. 4 ... ... : ... .. . ... ...
ROW 2C : ... .. . P80 ... ... : ... .. 4 ... ... ... : ... .. . ... : ... .. 1 ... : ... .. . ... ... : ... .. 2 ... ... : ... .. 2 ... ... : ... .. . ... ...
ROW 2D : ... .. . P83 ... ... : ... .. 3 ... ... ... : ... .. . ... : ... .. 0 ... : ... .. . ... ... : ... .. . ... ... : ... .. . ... ... : ... .. . ... ...
ROW 2E : ... .. . P86 ... ... : ... .. . ... ... ... : --- .. . ... : ... .. . ... : ... .. . ... ... : ... .. . ... ... : ... .. . ... ... : --- .. . P83 ...
ROW 2F : ... .. . ... ... ... : ... .. . ... ... ... : ... .. . ... : ... .. . ... : ... .. . ... ... : ... .. . ... ... : ... .. . ... ... : ... .. . ... ...
ROW 30 : B-3 00 4 P80 ... ... : G#2 00 A ... ... ... : E-3 00 . ... : ... .. F ... : ... .. . ... ... : E-3 01 6 ... ... : G#3 01 6 ... ... : E-1 01 F P80 ...
ROW 31 : ... .. 3 ... ... ... : ... .. 8 ... ... ... : ... .. . ... : ... .. C ... : ... .. . ... ... : ... .. . ... ... : ... .. . ... ... : ... .. D ... ...
ROW 32 : ... .. . ... ... ... : ... .. . ... ... ... : ... .. . ... : ... .. 6 ... : ... .. . ... ... : ... .. 5 ... ... : ... .. 5 ... ... : ... .. 8 ... ...
ROW 33 : ... .. 2 ... ... ... : ... .. . ... ... ... : ... .. . ... : ... .. 3 ... : ... .. . ... ... : ... .. 4 ... ... : ... .. 4 ... ... : ... .. . ... ...
ROW 34 : ... .. . ... ... ... : ... .. 4 ... ... ... : ... .. . ... : ... .. 2 ... : ... .. . ... ... : ... .. 2 ... ... : ... .. 2 ... ... : ... .. . ... ...
ROW 35 : ... .. 1 ... ... ... : ... .. 3 ... ... ... : ... .. . ... : ... .. 0 ... : ... .. . ... ... : ... .. . ... ... : ... .. . ... ... : ... .. . ... ...
ROW 36 : ... .. . ... ... ... : ... .. . ... ... ... : --- .. . ... : ... .. . ... : ... .. . ... ... : ... .. . ... ... : ... .. . ... ... : --- .. . P82 ...
ROW 37 : ... .. . ... ... ... : ... .. . ... ... ... : ... .. . ... : ... .. . ... : ... .. . ... ... : ... .. . ... ... : ... .. . ... ... : ... .. . ... ...
ROW 38 : G#3 00 4 ... ... ... : E-3 00 A ... ... ... : G#3 00 . ... : F-# 00 F ... : ... .. . ... ... : ... .. 6 ... ... : ... .. 6 ... ... : G#1 01 F P80 ...
ROW 39 : ... .. 3 ... ... ... : ... .. 8 ... ... ... : ... .. . ... : ... .. C ... : ... .. . ... ... : ... .. . ... ... : ... .. . ... ... : ... .. D ... ...
ROW 3A : ... .. . ... ... ... : ... .. . ... ... ... : ... .. . ... : ... .. 6 ... : ... .. . ... ... : ... .. 5 ... ... : ... .. 5 ... ... : ... .. 8 ... ...
ROW 3B : ... .. 2 ... ... ... : ... .. . ... ... ... : ... .. . ... : ... .. 3 ... : ... .. . ... ... : ... .. 4 ... ... : ... .. 4 ... ... : ... .. . ... ...
ROW 3C : ... .. . ... ... ... : ... .. 4 ... ... ... : ... .. . ... : ... .. F ... : ... .. . ... ... : ... .. 2 ... ... : ... .. 2 ... ... : ... .. . ... ...
ROW 3D : ... .. . ... ... ... : ... .. 3 ... ... ... : ... .. . ... : ... .. C ... : ... .. . ... ... : ... .. . ... ... : ... .. . ... ... : ... .. . ... ...
ROW 3E : ... .. . ... ... ... : ... .. . ... ... ... : --- .. . ... : ... .. 6 ... : ... .. . ... ... : ... .. . ... ... : ... .. . ... ... : --- .. . P7E ...
ROW 3F : ... .. . ... ... ... : ... .. . ... ... ... : ... .. . ... : ... .. 3 ... : ... .. . ... ... : ... .. . ... ... : ... .. . ... ... : ... .. . ... ...
ROW 40 : ... .. 0 ... ... ... : A-2 00 A ... ... ... : A#2 00 . P82 : 1-# 00 F ... : ... .. . ... ... : C#3 01 6 ... ... : A-3 01 6 ... ... : A-1 01 F P80 ...
ROW 41 : ... .. . ... ... ... : ... .. 8 ... ... ... : G#2 00 . P8B : ... .. C ... : ... .. . ... ... : ... .. . ... ... : ... .. . ... ... : ... .. D ... ...
ROW 42 : ... .. . ... ... ... : ... .. . ... ... ... : G-2 00 . P79 : ... .. 6 ... : ... .. . ... ... : ... .. 5 ... ... : ... .. 5 ... ... : ... .. 8 ... ...
ROW 43 : ... .. . ... ... ... : ... .. . ... ... ... : F-2 00 . P8D : ... .. 3 ... : ... .. . ... ... : ... .. 4 ... ... : ... .. 4 ... ... : ... .. . ... ...
ROW 44 : ... .. . ... ... ... : ... .. 4 ... ... ... : E-2 00 . P81 : ... .. 2 ... : ... .. . ... ... : ... .. 2 ... ... : ... .. 2 ... ... : ... .. . ... ...
ROW 45 : ... .. . ... ... ... : ... .. 3 ... ... ... : D#2 00 . P77 : ... .. 0 ... : ... .. . ... ... : ... .. . ... ... : ... .. . ... ... : ... .. . ... ...
ROW 46 : ... .. . ... ... ... : ... .. . ... ... ... : --- .. . ... : ... .. . ... : ... .. . ... ... : ... .. . ... ... : ... .. . ... ... : --- .. . P7F ...
ROW 47 : ... .. . ... ... ... : ... .. . ... ... ... : ... .. . ... : ... .. . ... : ... .. . ... ... : ... .. . ... ... : ... .. . ... ... : ... .. . ... ...
ROW 48 : ... .. . ... ... ... : G#2 00 A ... ... ... : A-2 00 . P80 : E-# 00 A ... : ... .. . ... ... : ... .. 6 ... ... : ... .. 6 ... ... : A-0 01 F P80 ...
ROW 49 : ... .. . ... ... ... : ... .. 8 ... ... ... : ... .. . ... : ... .. 8 ... : ... .. . ... ... : ... .. . ... ... : ... .. . ... ... : ... .. D ... ...
ROW 4A : ... .. . ... ... ... : ... .. . ... ... ... : ... .. . ... : ... .. 4 ... : ... .. . ... ... : ... .. 5 ... ... : ... .. 5 ... ... : ... .. 8 ... ...
ROW 4B : ... .. . ... ... ... : ... .. . ... ... ... : ... .. . ... : ... .. 2 ... : ... .. . ... ... : ... .. 4 ... ... : ... .. 4 ... ... : ... .. . ... ...
ROW 4C : ... .. . ... ... ... : ... .. 4 ... ... ... : ... .. . ... : ... .. 1 ... : ... .. . ... ... : ... .. 2 ... ... : ... .. 2 ... ... : ... .. . ... ...
ROW 4D : ... .. . ... ... ... : ... .. 3 ... ... ... : ... .. . ... : ... .. 0 ... : ... .. . ... ... : ... .. . ... ... : ... .. . ... ... : ... .. . ... ...
ROW 4E : ... .. . ... ... ... : ... .. . ... ... ... : ... .. . ... : ... .. . ... : ... .. . ... ... : ... .. . ... ... : ... .. . ... ... : ... .. . ... ...
ROW 4F : ... .. . ... ... ... : ... .. . ... ... ... : ... .. . ... : ... .. . ... : ... .. . ... ... : ... .. . ... ... : ... .. . ... ... : ... .. . ... ...
ROW 50 : ... .. . ... ... ... : A-2 00 A ... ... ... : ... .. . ... : 1-# 00 F ... : ... .. . ... ... : ... .. 6 ... ... : ... .. 6 ... ... : ... .. . ... ...
ROW 51 : ... .. . ... ... ... : ... .. 8 ... ... ... : ... .. . ... : ... .. C ... : ... .. . ... ... : ... .. . ... ... : ... .. . ... ... : ... .. . ... ...
ROW 52 : ... .. . ... ... ... : ... .. . ... ... ... : ... .. . ... : ... .. 6 ... : ... .. . ... ... : ... .. 5 ... ... : ... .. 5 ... ... : ... .. . ... ...
ROW 53 : ... .. . ... ... ... : ... .. . ... ... ... : ... .. . ... : ... .. 3 ... : ... .. . ... ... : ... .. 4 ... ... : ... .. 4 ... ... : ... .. . ... ...
ROW 54 : ... .. . ... ... ... : ... .. 4 ... ... ... : ... .. . ... : ... .. 2 ... : ... .. . ... ... : ... .. 2 ... ... : ... .. 2 ... ... : ... .. . ... ...
ROW 55 : ... .. . ... ... ... : ... .. 3 ... ... ... : ... .. . ... : ... .. 0 ... : ... .. . ... ... : ... .. . ... ... : ... .. . ... ... : ... .. . ... ...
ROW 56 : ... .. . ... ... ... : ... .. . ... ... ... : --- .. . ... : ... .. . ... : ... .. . ... ... : ... .. . ... ... : ... .. . ... ... : --- .. . ... ...
ROW 57 : ... .. . ... ... ... : ... .. . ... ... ... : ... .. . ... : ... .. . ... : ... .. . ... ... : ... .. . ... ... : ... .. . ... ... : ... .. . ... ...
ROW 58 : ... .. . ... ... ... : G#3 00 A ... ... ... : A-2 00 . ... : E-# 00 A ... : ... .. . ... ... : ... .. 6 ... ... : ... .. 6 ... ... : A-0 01 F ... ...
ROW 59 : ... .. . ... ... ... : ... .. 8 ... ... ... : ... .. . ... : ... .. 8 ... : ... .. . ... ... : ... .. . ... ... : ... .. . ... ... : ... .. D ... ...
ROW 5A : ... .. . ... ... ... : ... .. . ... ... ... : ... .. . ... : ... .. 4 ... : ... .. . ... ... : ... .. 5 ... ... : ... .. 5 ... ... : ... .. 8 ... ...
ROW 5B : ... .. . ... ... ... : ... .. . ... ... ... : ... .. . ... : ... .. 2 ... : ... .. . ... ... : ... .. 4 ... ... : ... .. 4 ... ... : ... .. . ... ...
ROW 5C : ... .. . ... ... ... : ... .. 4 ... ... ... : ... .. . ... : ... .. 1 ... : ... .. . ... ... : ... .. 2 ... ... : ... .. 2 ... ... : ... .. . ... ...
ROW 5D : ... .. . ... ... ... : ... .. 3 ... ... ... : ... .. . ... : ... .. 0 ... : ... .. . ... ... : ... .. . ... ... : ... .. . ... ... : ... .. . ... ...
ROW 5E : ... .. . ... ... ... : ... .. . ... ... ... : ... .. . ... : ... .. . ... : ... .. . ... ... : ... .. . ... ... : ... .. . ... ... : ... .. . ... ...
ROW 5F : ... .. . ... ... ... : ... .. . ... ... ... : ... .. . ... : ... .. . ... : ... .. . ... ... : ... .. . ... ... : ... .. . ... ... : ... .. . ... ...
ROW 60 : E-3 00 F P80 ... ... : G#2 00 A ... ... ... : B-3 00 . P7D : 5-# 00 D ... : ... .. . ... ... : ... .. 6 ... ... : ... .. 6 ... ... : ... .. . ... ...
ROW 61 : ... .. E ... ... ... : ... .. 8 ... ... ... : A#3 00 . P7C : ... .. . ... : ... .. . ... ... : ... .. . ... ... : ... .. . ... ... : ... .. . ... ...
ROW 62 : ... .. D ... ... ... : ... .. . ... ... ... : A-3 00 . P7B : 1-# 00 D ... : ... .. . ... ... : ... .. 5 ... ... : ... .. 5 ... ... : ... .. . ... ...
ROW 63 : ... .. A ... ... ... : ... .. . ... ... ... : G#3 00 . ... : F-# 00 6 ... : ... .. . ... ... : ... .. 4 ... ... : ... .. 4 ... ... : ... .. . ... ...
ROW 64 : ... .. . ... ... ... : ... .. 4 ... ... ... : G-3 00 . P7C : B-# 00 1 ... : ... .. . ... ... : ... .. 2 ... ... : ... .. 2 ... ... : ... .. . ... ...
ROW 65 : ... .. . ... ... ... : ... .. 3 ... ... ... : F#3 00 . P7E : ... .. 0 ... : ... .. . ... ... : ... .. . ... ... : ... .. . ... ... : ... .. . ... ...
ROW 66 : ... .. . ... ... ... : ... .. . ... ... ... : --- .. . ... : ... .. . ... : ... .. . ... ... : ... .. . ... ... : ... .. . ... ... : --- .. . ... ...
ROW 67 : ... .. . ... ... ... : ... .. . ... ... ... : ... .. . ... : ... .. . ... : ... .. . ... ... : ... .. . ... ... : ... .. . ... ... : ... .. . ... ...
ROW 68 : ... .. . ... ... ... : A-2 00 A ... ... ... : A-2 00 . P80 : E-# 00 A ... : ... .. . ... ... : ... .. 6 ... ... : ... .. 6 ... ... : A-0 01 F ... ...
ROW 69 : ... .. . ... ... ... : ... .. 8 ... ... ... : ... .. . ... : ... .. 8 ... : ... .. . ... ... : ... .. . ... ... : ... .. . ... ... : ... .. D ... ...
ROW 6A : ... .. . ... ... ... : ... .. . ... ... ... : ... .. . ... : ... .. 4 ... : ... .. . ... ... : ... .. 5 ... ... : ... .. 5 ... ... : ... .. 8 ... ...
ROW 6B : ... .. . ... ... ... : ... .. . ... ... ... : ... .. . ... : ... .. 2 ... : ... .. . ... ... : ... .. 4 ... ... : ... .. 4 ... ... : ... .. . ... ...
ROW 6C : ... .. . ... ... ... : ... .. 4 ... ... ... : ... .. . ... : ... .. 1 ... : ... .. . ... ... : ... .. 2 ... ... : ... .. 2 ... ... : ... .. . ... ...
ROW 6D : ... .. 2 ... ... ... : ... .. 3 ... ... ... : ... .. . ... : ... .. 0 ... : ... .. . ... ... : ... .. . ... ... : ... .. . ... ... : ... .. . ... ...
ROW 6E : ... .. . ... ... ... : ... .. . ... ... ... : --- .. . ... : ... .. . ... : ... .. . ... ... : ... .. . ... ... : ... .. . ... ... : --- .. . ... ...
ROW 6F : ... .. . ... ... ... : ... .. . ... ... ... : ... .. . ... : ... .. . ... : ... .. . ... ... : ... .. . ... ... : ... .. . ... ... : ... .. . ... ...
ROW 70 : B-3 00 F ... ... ... : E-3 00 A ... ... ... : E-3 00 . ... : ... .. F ... : ... .. . ... ... : ... .. 6 ... ... : ... .. 6 ... ... : E-1 01 F ... ...
ROW 71 : ... .. E ... ... ... : ... .. 8 ... ... ... : ... .. . ... : ... .. C ... : ... .. . ... ... : ... .. . ... ... : ... .. . ... ... : ... .. D ... ...
ROW 72 : ... .. D ... ... ... : ... .. . ... ... ... : ... .. . ... : ... .. 6 ... : ... .. . ... ... : ... .. 5 ... ... : ... .. 5 ... ... : ... .. 8 ... ...
ROW 73 : ... .. A ... ... ... : ... .. . ... ... ... : ... .. . ... : ... .. 3 ... : ... .. . ... ... : ... .. 4 ... ... : ... .. 4 ... ... : ... .. . ... ...
ROW 74 : ... .. . ... ... ... : ... .. 4 ... ... ... : ... .. . ... : ... .. 2 ... : ... .. . ... ... : ... .. 2 ... ... : ... .. 2 ... ... : ... .. . ... ...
ROW 75 : C-4 00 A P7D ... ... : ... .. 3 ... ... ... : ... .. . ... : ... .. 0 ... : ... .. . ... ... : ... .. . ... ... : ... .. . ... ... : ... .. . ... ...
ROW 76 : ... .. . P86 ... ... : ... .. . ... ... ... : --- .. . ... : ... .. . ... : ... .. . ... ... : ... .. . ... ... : ... .. . ... ... : --- .. . P82 ...
ROW 77 : C#4 00 A P80 ... ... : ... .. . ... ... ... : ... .. . ... : ... .. . ... : ... .. . ... ... : ... .. . ... ... : ... .. . ... ... : ... .. . ... ...
ROW 78 : ... .. . ... ... ... : C#3 00 A ... ... ... : B-3 00 . ... : D-# 00 A ... : ... .. . ... ... : ... .. 6 ... ... : ... .. 6 ... ... : B-1 01 F P80 ...
ROW 79 : ... .. . ... ... ... : ... .. 8 ... ... ... : ... .. . ... : ... .. . ... : ... .. . ... ... : ... .. . ... ... : ... .. . ... ... : ... .. D ... ...
ROW 7A : ... .. . ... ... ... : ... .. . ... ... ... : ... .. . ... : ... .. . ... : ... .. . ... ... : ... .. 5 ... ... : ... .. 5 ... ... : ... .. 8 ... ...
ROW 7B : ... .. . ... ... ... : ... .. . ... ... ... : ... .. . ... : ... .. . ... : ... .. . ... ... : ... .. 4 ... ... : ... .. 4 ... ... : ... .. . ... ...
ROW 7C : ... .. . ... ... ... : ... .. 4 ... ... ... : ... .. . ... : ... .. . ... : ... .. . ... ... : ... .. 2 ... ... : ... .. 2 ... ... : ... .. . ... ...
ROW 7D : ... .. . ... ... ... : ... .. 3 ... ... ... : ... .. . ... : ... .. . ... : ... .. . ... ... : ... .. . ... ... : ... .. . ... ... : ... .. . ... ...
ROW 7E : ... .. . ... ... ... : ... .. . ... ... ... : --- .. . ... : ... .. . ... : ... .. . ... ... : ... .. . ... ... : ... .. . ... ... : --- .. . P86 ...
ROW 7F : ... .. . ... ... ... : ... .. . ... ... ... : ... .. . ... : ... .. . ... : ... .. . ... ... : ... .. . ... ... : ... .. . ... ... : ... .. . ... ...
ROW 80 : B-3 00 F ... ... ... : A-2 00 A ... ... ... : A#2 00 . P82 : 1-# 00 F ... : ... .. . ... ... : A-2 01 6 ... ... : E-3 01 6 ... ... : A-1 01 F P80 ...
ROW 81 : ... .. E ... ... ... : ... .. 8 ... ... ... : G#2 00 . P8B : ... .. C ... : ... .. . ... ... : ... .. . ... ... : ... .. . ... ... : ... .. D ... ...
ROW 82 : ... .. D ... ... ... : ... .. . ... ... ... : G-2 00 . P79 : ... .. 6 ... : ... .. . ... ... : ... .. 5 ... ... : ... .. 5 ... ... : ... .. 8 ... ...
ROW 83 : ... .. A ... ... ... : ... .. . ... ... ... : F-2 00 . P8D : ... .. 3 ... : ... .. . ... ... : ... .. 4 ... ... : ... .. 4 ... ... : ... .. . ... ...
ROW 84 : ... .. . ... ... ... : ... .. 4 ... ... ... : E-2 00 . P81 : ... .. 2 ... : ... .. . ... ... : ... .. 2 ... ... : ... .. 2 ... ... : ... .. . ... ...
ROW 85 : ... .. . ... ... ... : ... .. 3 ... ... ... : D#2 00 . P77 : ... .. 0 ... : ... .. . ... ... : ... .. . ... ... : ... .. . ... ... : ... .. . ... ...
ROW 86 : ... .. . ... ... ... : ... .. . ... ... ... : --- .. . ... : ... .. . ... : ... .. . ... ... : ... .. . ... ... : ... .. . ... ... : --- .. . P7F ...
ROW 87 : ... .. . ... ... ... : ... .. . ... ... ... : ... .. . ... : ... .. . ... : ... .. . ... ... : ... .. . ... ... : ... .. . ... ... : ... .. . ... ...
ROW 88 : ... .. . ... ... ... : G#2 00 A ... ... ... : A-2 00 . P80 : E-# 00 A ... : ... .. . ... ... : ... .. 6 ... ... : ... .. 6 ... ... : A-0 01 F P80 ...
ROW 89 : ... .. . ... ... ... : ... .. 8 ... ... ... : ... .. . ... : ... .. 8 ... : ... .. . ... ... : ... .. . ... ... : ... .. . ... ... : ... .. D ... ...
ROW 8A : ... .. . ... ... ... : ... .. . ... ... ... : ... .. . ... : ... .. 4 ... : ... .. . ... ... : ... .. 5 ... ... : ... .. 5 ... ... : ... .. 8 ... ...
ROW 8B : ... .. . ... ... ... : ... .. . ... ... ... : ... .. . ... : ... .. 2 ... : ... .. . ... ... : ... .. 4 ... ... : ... .. 4 ... ... : ... .. . ... ...
ROW 8C : ... .. . ... ... ... : ... .. 4 ... ... ... : ... .. . ... : ... .. 1 ... : ... .. . ... ... : ... .. 2 ... ... : ... .. 2 ... ... : ... .. . ... ...
ROW 8D : ... .. . ... ... ... : ... .. 3 ... ... ... : ... .. . ... : ... .. 0 ... : ... .. . ... ... : ... .. . ... ... : ... .. . ... ... : ... .. . ... ...
ROW 8E : ... .. . ... ... ... : ... .. . ... ... ... : ... .. . ... : ... .. . ... : ... .. . ... ... : ... .. . ... ... : ... .. . ... ... : ... .. . ... ...
ROW 8F : ... .. . ... ... ... : ... .. . ... ... ... : ... .. . ... : ... .. . ... : ... .. . ... ... : ... .. . ... ... : ... .. . ... ... : ... .. . ... ...
ROW 90 : ... .. . ... ... ... : A-2 00 A ... ... ... : ... .. . ... : ... .. F ... : ... .. . ... ... : ... .. 6 ... ... : ... .. 6 ... ... : ... .. . ... ...
ROW 91 : ... .. . ... ... ... : ... .. 8 ... ... ... : ... .. . ... : ... .. C ... : ... .. . ... ... : ... .. . ... ... : ... .. . ... ... : ... .. . ... ...
ROW 92 : ... .. . ... ... ... : ... .. . ... ... ... : ... .. . ... : ... .. 6 ... : ... .. . ... ... : ... .. 5 ... ... : ... .. 5 ... ... : ... .. . ... ...
ROW 93 : ... .. . ... ... ... : ... .. . ... ... ... : ... .. . ... : ... .. 3 ... : ... .. . ... ... : ... .. 4 ... ... : ... .. 4 ... ... : ... .. . ... ...
ROW 94 : ... .. . ... ... ... : ... .. 4 ... ... ... : ... .. . ... : ... .. 2 ... : ... .. . ... ... : ... .. 2 ... ... : ... .. 2 ... ... : ... .. . ... ...
ROW 95 : ... .. 2 ... ... ... : ... .. 3 ... ... ... : ... .. . ... : ... .. 0 ... : ... .. . ... ... : ... .. . ... ... : ... .. . ... ... : ... .. . ... ...
ROW 96 : ... .. . ... ... ... : ... .. . ... ... ... : --- .. . ... : ... .. . ... : ... .. . ... ... : ... .. . ... ... : ... .. . ... ... : --- .. . ... ...
ROW 97 : ... .. . ... ... ... : ... .. . ... ... ... : ... .. . ... : ... .. . ... : ... .. . ... ... : ... .. . ... ... : ... .. . ... ... : ... .. . ... ...
ROW 98 : A-3 00 F ... ... ... : G#3 00 A ... ... ... : A-2 00 . ... : 1-# 00 F ... : ... .. . ... ... : ... .. 6 ... ... : ... .. 6 ... ... : A-0 01 F ... ...
ROW 99 : ... .. E ... ... ... : ... .. 8 ... ... ... : ... .. . ... : ... .. C ... : ... .. . ... ... : ... .. . ... ... : ... .. . ... ... : ... .. D ... ...
ROW 9A : ... .. D ... ... ... : ... .. . ... ... ... : ... .. . ... : ... .. 6 ... : ... .. . ... ... : ... .. 5 ... ... : ... .. 5 ... ... : ... .. 8 ... ...
ROW 9B : ... .. A ... ... ... : ... .. . ... ... ... : ... .. . ... : ... .. 3 ... : ... .. . ... ... : ... .. 4 ... ... : ... .. 4 ... ... : ... .. . ... ...
ROW 9C : ... .. . ... ... ... : ... .. 4 ... ... ... : ... .. . ... : ... .. 2 ... : ... .. . ... ... : ... .. 2 ... ... : ... .. 2 ... ... : ... .. . ... ...
ROW 9D : ... .. . ... ... ... : ... .. 3 ... ... ... : ... .. . ... : ... .. 0 ... : ... .. . ... ... : ... .. . ... ... : ... .. . ... ... : ... .. . ... ...
ROW 9E : ... .. . ... ... ... : ... .. . ... ... ... : ... .. . ... : ... .. . ... : ... .. . ... ... : ... .. . ... ... : ... .. . ... ... : ... .. . ... ...
ROW 9F : ... .. . ... ... ... : ... .. . ... ... ... : ... .. . ... : ... .. . ... : ... .. . ... ... : ... .. . ... ... : ... .. . ... ... : ... .. . ... ...
ROW A0 : ... .. . ... ... ... : C#3 00 A ... ... ... : B-3 00 . P7D : 5-# 00 D ... : ... .. . ... ... : C#3 01 6 ... ... : A-3 01 6 ... ... : ... .. . ... ...
ROW A1 : ... .. . ... ... ... : ... .. 8 ... ... ... : A#3 00 . P7C : ... .. . ... : ... .. . ... ... : ... .. . ... ... : ... .. . ... ... : ... .. . ... ...
ROW A2 : ... .. . ... ... ... : ... .. . ... ... ... : A-3 00 . P7B : 1-# 00 D ... : ... .. . ... ... : ... .. 5 ... ... : ... .. 5 ... ... : ... .. . ... ...
ROW A3 : ... .. . ... ... ... : ... .. . ... ... ... : G#3 00 . ... : F-# 00 6 ... : ... .. . ... ... : ... .. 4 ... ... : ... .. 4 ... ... : ... .. . ... ...
ROW A4 : ... .. . ... ... ... : ... .. 4 ... ... ... : G-3 00 . P7C : B-# 00 1 ... : ... .. . ... ... : ... .. 2 ... ... : ... .. 2 ... ... : ... .. . ... ...
ROW A5 : ... .. . ... ... ... : ... .. 3 ... ... ... : F#3 00 . P7E : ... .. 0 ... : ... .. . ... ... : ... .. . ... ... : ... .. . ... ... : ... .. . ... ...
ROW A6 : ... .. . ... ... ... : ... .. . ... ... ... : --- .. . ... : ... .. . ... : ... .. . ... ... : ... .. . ... ... : ... .. . ... ... : --- .. . ... ...
ROW A7 : ... .. . ... ... ... : ... .. . ... ... ... : ... .. . ... : ... .. . ... : ... .. . ... ... : ... .. . ... ... : ... .. . ... ... : ... .. . ... ...
ROW A8 : ... .. . ... ... ... : E-3 00 A ... ... ... : A-2 00 . P80 : E-# 00 A ... : ... .. . ... ... : ... .. 6 ... ... : ... .. 6 ... ... : A-0 01 F ... ...
ROW A9 : ... .. . ... ... ... : ... .. 8 ... ... ... : ... .. . ... : ... .. 8 ... : ... .. . ... ... : ... .. . ... ... : ... .. . ... ... : ... .. D ... ...
ROW AA : ... .. . ... ... ... : ... .. . ... ... ... : ... .. . ... : ... .. 4 ... : ... .. . ... ... : ... .. 5 ... ... : ... .. 5 ... ... : ... .. 8 ... ...
ROW AB : ... .. . ... ... ... : ... .. . ... ... ... : ... .. . ... : ... .. 2 ... : ... .. . ... ... : ... .. 4 ... ... : ... .. 4 ... ... : ... .. . ... ...
ROW AC : ... .. . ... ... ... : ... .. 4 ... ... ... : ... .. . ... : ... .. 1 ... : ... .. . ... ... : ... .. 2 ... ... : ... .. 2 ... ... : ... .. . ... ...
ROW AD : ... .. 2 ... ... ... : ... .. 3 ... ... ... : ... .. . ... : ... .. 0 ... : ... .. . ... ... : ... .. . ... ... : ... .. . ... ... : ... .. . ... ...
ROW AE : ... .. . ... ... ... : ... .. . ... ... ... : --- .. . ... : ... .. . ... : ... .. . ... ... : ... .. . ... ... : ... .. . ... ... : --- .. . ... ...
ROW AF : ... .. . ... ... ... : ... .. . ... ... ... : ... .. . ... : ... .. . ... : ... .. . ... ... : ... .. . ... ... : ... .. . ... ... : ... .. . ... ...
ROW B0 : D#4 00 F ... ... ... : C#4 00 A ... ... ... : C#3 00 . ... : ... .. F ... : ... .. . ... ... : ... .. 6 ... ... : ... .. 6 ... ... : C#1 01 F ... ...
ROW B1 : ... .. E ... ... ... : ... .. 8 ... ... ... : ... .. . ... : ... .. C ... : ... .. . ... ... : ... .. . ... ... : ... .. . ... ... : ... .. D ... ...
ROW B2 : ... .. D ... ... ... : ... .. . ... ... ... : ... .. . ... : ... .. 6 ... : ... .. . ... ... : ... .. 5 ... ... : ... .. 5 ... ... : ... .. 8 ... ...
ROW B3 : ... .. A ... ... ... : ... .. . ... ... ... : ... .. . ... : ... .. 3 ... : ... .. . ... ... : ... .. 4 ... ... : ... .. 4 ... ... : ... .. . ... ...
ROW B4 : ... .. . ... ... ... : ... .. 4 ... ... ... : ... .. . ... : ... .. 2 ... : ... .. . ... ... : ... .. 2 ... ... : ... .. 2 ... ... : ... .. . ... ...
ROW B5 : E-4 00 A P7F ... ... : ... .. 3 ... ... ... : ... .. . ... : ... .. 0 ... : ... .. . ... ... : ... .. . ... ... : ... .. . ... ... : ... .. . ... ...
ROW B6 : ... .. . P80 ... ... : ... .. . ... ... ... : --- .. . ... : ... .. . ... : ... .. . ... ... : ... .. . ... ... : ... .. . ... ... : --- .. . P81 ...
ROW B7 : ... .. . ... ... ... : ... .. . ... ... ... : ... .. . ... : ... .. . ... : ... .. . ... ... : ... .. . ... ... : ... .. . ... ... : ... .. . ... ...
ROW B8 : ... .. . ... ... ... : A-3 00 A ... ... ... : E-3 00 . ... : F-# 00 F ... : ... .. . ... ... : ... .. 6 ... ... : ... .. 6 ... ... : E-1 01 F P80 ...
ROW B9 : ... .. . ... ... ... : ... .. 8 ... ... ... : ... .. . ... : ... .. C ... : ... .. . ... ... : ... .. . ... ... : ... .. . ... ... : ... .. D ... ...
ROW BA : ... .. . ... ... ... : ... .. . ... ... ... : ... .. . ... : ... .. 6 ... : ... .. . ... ... : ... .. 5 ... ... : ... .. 5 ... ... : ... .. 8 ... ...
ROW BB : ... .. . ... ... ... : ... .. . ... ... ... : ... .. . ... : ... .. 3 ... : ... .. . ... ... : ... .. 4 ... ... : ... .. 4 ... ... : ... .. . ... ...
ROW BC : ... .. . ... ... ... : ... .. 4 ... ... ... : ... .. . ... : ... .. F ... : ... .. . ... ... : ... .. 2 ... ... : ... .. 2 ... ... : ... .. . ... ...
ROW BD : ... .. . ... ... ... : ... .. 3 ... ... ... : ... .. . ... : ... .. C ... : ... .. . ... ... : ... .. . ... ... : ... .. . ... ... : ... .. . ... ...
ROW BE : ... .. . ... ... ... : ... .. . ... ... ... : --- .. . ... : ... .. 6 ... : ... .. . ... ... : ... .. . ... ... : ... .. . ... ... : --- .. . P82 ...
ROW BF : ... .. . ... ... ... : ... .. . ... ... ... : ... .. . ... : ... .. 3 ... : ... .. . ... ... : ... .. . ... ... : ... .. . ... ... : ... .. . ... ...
ROW C0 : D#4 00 F ... ... ... : A#2 00 A ... ... ... : A#2 00 . P82 : 1-# 00 F ... : ... .. . ... ... : D#3 01 6 ... ... : A#3 01 6 ... ... : D#1 01 F P80 ...
ROW C1 : ... .. E ... ... ... : ... .. 8 ... ... ... : G#2 00 . P8B : ... .. C ... : ... .. . ... ... : ... .. . ... ... : ... .. . ... ... : ... .. D ... ...
ROW C2 : ... .. D ... ... ... : ... .. . ... ... ... : G-2 00 . P79 : ... .. 6 ... : ... .. . ... ... : ... .. 5 ... ... : ... .. 5 ... ... : ... .. 8 ... ...
ROW C3 : ... .. A ... ... ... : ... .. . ... ... ... : F-2 00 . P8D : ... .. 3 ... : ... .. . ... ... : ... .. 4 ... ... : ... .. 4 ... ... : ... .. . ... ...
ROW C4 : ... .. . ... ... ... : ... .. 4 ... ... ... : E-2 00 . P81 : ... .. 2 ... : ... .. . ... ... : ... .. 2 ... ... : ... .. 2 ... ... : ... .. . ... ...
ROW C5 : ... .. . ... ... ... : ... .. 3 ... ... ... : D#2 00 . P77 : ... .. 0 ... : ... .. . ... ... : ... .. . ... ... : ... .. . ... ... : ... .. . ... ...
ROW C6 : ... .. . ... ... ... : ... .. . ... ... ... : --- .. . ... : ... .. . ... : ... .. . ... ... : ... .. . ... ... : ... .. . ... ... : --- .. . P81 ...
ROW C7 : ... .. . ... ... ... : ... .. . ... ... ... : ... .. . ... : ... .. . ... : ... .. . ... ... : ... .. . ... ... : ... .. . ... ... : ... .. . ... ...
ROW C8 : ... .. . ... ... ... : G-2 00 A ... ... ... : D#2 00 . P80 : E-# 00 A ... : ... .. . ... ... : ... .. 6 ... ... : ... .. 6 ... ... : D#0 01 F P80 ...
ROW C9 : ... .. . ... ... ... : ... .. 8 ... ... ... : ... .. . ... : ... .. 8 ... : ... .. . ... ... : ... .. . ... ... : ... .. . ... ... : ... .. D ... ...
ROW CA : ... .. . ... ... ... : ... .. . ... ... ... : ... .. . ... : ... .. 4 ... : ... .. . ... ... : ... .. 5 ... ... : ... .. 5 ... ... : ... .. 8 ... ...
ROW CB : ... .. . ... ... ... : ... .. . ... ... ... : ... .. . ... : ... .. 2 ... : ... .. . ... ... : ... .. 4 ... ... : ... .. 4 ... ... : ... .. . ... ...
ROW CC : ... .. . ... ... ... : ... .. 4 ... ... ... : ... .. . ... : ... .. 1 ... : ... .. . ... ... : ... .. 2 ... ... : ... .. 2 ... ... : ... .. . ... ...
ROW CD : ... .. . ... ... ... : ... .. 3 ... ... ... : ... .. . ... : ... .. 0 ... : ... .. . ... ... : ... .. . ... ... : ... .. . ... ... : ... .. . ... ...
ROW CE : ... .. . ... ... ... : ... .. . ... ... ... : ... .. . ... : ... .. . ... : ... .. . ... ... : ... .. . ... ... : ... .. . ... ... : ... .. . ... ...
ROW CF : ... .. . ... ... ... : ... .. . ... ... ... : ... .. . ... : ... .. . ... : ... .. . ... ... : ... .. . ... ... : ... .. . ... ... : ... .. . ... ...
ROW D0 : A#3 00 F ... ... ... : A#2 00 A ... ... ... : ... .. . ... : 1-# 00 F ... : ... .. . ... ... : ... .. 6 ... ... : ... .. 6 ... ... : ... .. . ... ...
ROW D1 : ... .. E ... ... ... : ... .. 8 ... ... ... : ... .. . ... : ... .. C ... : ... .. . ... ... : ... .. . ... ... : ... .. . ... ... : ... .. . ... ...
ROW D2 : ... .. D ... ... ... : ... .. . ... ... ... : ... .. . ... : ... .. 6 ... : ... .. . ... ... : ... .. 5 ... ... : ... .. 5 ... ... : ... .. . ... ...
ROW D3 : ... .. A ... ... ... : ... .. . ... ... ... : ... .. . ... : ... .. 3 ... : ... .. . ... ... : ... .. 4 ... ... : ... .. 4 ... ... : ... .. . ... ...
ROW D4 : ... .. . ... ... ... : ... .. 4 ... ... ... : ... .. . ... : ... .. 2 ... : ... .. . ... ... : ... .. 2 ... ... : ... .. 2 ... ... : ... .. . ... ...
ROW D5 : ... .. 2 ... ... ... : ... .. 3 ... ... ... : ... .. . ... : ... .. 0 ... : ... .. . ... ... : ... .. . ... ... : ... .. . ... ... : ... .. . ... ...
ROW D6 : ... .. . ... ... ... : ... .. . ... ... ... : --- .. . ... : ... .. . ... : ... .. . ... ... : ... .. . ... ... : ... .. . ... ... : --- .. . P83 ...
ROW D7 : ... .. . ... ... ... : ... .. . ... ... ... : ... .. . ... : ... .. . ... : ... .. . ... ... : ... .. . ... ... : ... .. . ... ... : ... .. . ... ...
ROW D8 : G-3 00 F ... ... ... : G-3 00 A ... ... ... : D#2 00 . ... : E-# 00 A ... : ... .. . ... ... : ... .. 6 ... ... : ... .. 6 ... ... : D#0 01 F P80 ...
ROW D9 : ... .. E ... ... ... : ... .. 8 ... ... ... : ... .. . ... : ... .. 8 ... : ... .. . ... ... : ... .. . ... ... : ... .. . ... ... : ... .. D ... ...
ROW DA : ... .. D ... ... ... : ... .. . ... ... ... : ... .. . ... : ... .. 4 ... : ... .. . ... ... : ... .. 5 ... ... : ... .. 5 ... ... : ... .. 8 ... ...
ROW DB : ... .. A ... ... ... : ... .. . ... ... ... : ... .. . ... : ... .. 2 ... : ... .. . ... ... : ... .. 4 ... ... : ... .. 4 ... ... : ... .. . ... ...
ROW DC : ... .. . ... ... ... : ... .. 4 ... ... ... : ... .. . ... : ... .. 1 ... : ... .. . ... ... : ... .. 2 ... ... : ... .. 2 ... ... : ... .. . ... ...
ROW DD : ... .. . ... ... ... : ... .. 3 ... ... ... : ... .. . ... : ... .. 0 ... : ... .. . ... ... : ... .. . ... ... : ... .. . ... ... : ... .. . ... ...
ROW DE : ... .. . ... ... ... : ... .. . ... ... ... : ... .. . ... : ... .. . ... : ... .. . ... ... : ... .. . ... ... : ... .. . ... ... : ... .. . ... ...
ROW DF : ... .. . ... ... ... : ... .. . ... ... ... : ... .. . ... : ... .. . ... : ... .. . ... ... : ... .. . ... ... : ... .. . ... ... : ... .. . ... ...
ROW E0 : ... .. . ... ... ... : C#3 00 A ... ... ... : B-3 00 . P7D : 5-# 00 D ... : ... .. . ... ... : ... .. 6 ... ... : ... .. 6 ... ... : ... .. . ... ...
ROW E1 : ... .. . ... ... ... : ... .. 8 ... ... ... : A#3 00 . P7C : ... .. . ... : ... .. . ... ... : ... .. . ... ... : ... .. . ... ... : ... .. . ... ...
ROW E2 : ... .. . ... ... ... : ... .. . ... ... ... : A-3 00 . P7B : 1-# 00 D ... : ... .. . ... ... : ... .. 5 ... ... : ... .. 5 ... ... : ... .. . ... ...
ROW E3 : ... .. . ... ... ... : ... .. . ... ... ... : G#3 00 . ... : F-# 00 6 ... : ... .. . ... ... : ... .. 4 ... ... : ... .. 4 ... ... : ... .. . ... ...
ROW E4 : ... .. . P84 ... ... : ... .. 4 ... ... ... : G-3 00 . P7C : B-# 00 1 ... : ... .. . ... ... : ... .. 2 ... ... : ... .. 2 ... ... : ... .. . ... ...
ROW E5 : ... .. . P86 ... ... : ... .. 3 ... ... ... : F#3 00 . P7E : ... .. 0 ... : ... .. . ... ... : ... .. . ... ... : ... .. . ... ... : ... .. . ... ...
ROW E6 : ... .. . P85 ... ... : ... .. . ... ... ... : --- .. . ... : ... .. . ... : ... .. . ... ... : ... .. . ... ... : ... .. . ... ... : --- .. . P83 ...
ROW E7 : ... .. . P82 ... ... : ... .. . ... ... ... : ... .. . ... : ... .. . ... : ... .. . ... ... : ... .. . ... ... : ... .. . ... ... : ... .. . ... ...
ROW E8 : ... .. . P7E ... ... : D#3 00 A ... ... ... : D#2 00 . P80 : E-# 00 A ... : ... .. . ... ... : ... .. 6 ... ... : ... .. 6 ... ... : D#0 01 F P80 ...
ROW E9 : ... .. . P7B ... ... : ... .. 8 ... ... ... : ... .. . ... : ... .. 8 ... : ... .. . ... ... : ... .. . ... ... : ... .. . ... ... : ... .. D ... ...
ROW EA : ... .. . P7A ... ... : ... .. . ... ... ... : ... .. . ... : ... .. 4 ... : ... .. . ... ... : ... .. 5 ... ... : ... .. 5 ... ... : ... .. 8 ... ...
ROW EB : ... .. . P7C ... ... : ... .. . ... ... ... : ... .. . ... : ... .. 2 ... : ... .. . ... ... : ... .. 4 ... ... : ... .. 4 ... ... : ... .. . ... ...
ROW EC : ... .. . P80 ... ... : ... .. 4 ... ... ... : ... .. . ... : ... .. 1 ... : ... .. . ... ... : ... .. 2 ... ... : ... .. 2 ... ... : ... .. . ... ...
ROW ED : ... .. . P83 ... ... : ... .. 3 ... ... ... : ... .. . ... : ... .. 0 ... : ... .. . ... ... : ... .. . ... ... : ... .. . ... ... : ... .. . ... ...
ROW EE : ... .. . P86 ... ... : ... .. . ... ... ... : --- .. . ... : ... .. . ... : ... .. . ... ... : ... .. . ... ... : ... .. . ... ... : --- .. . P83 ...
ROW EF : ... .. . ... ... ... : ... .. . ... ... ... : ... .. . ... : ... .. . ... : ... .. . ... ... : ... .. . ... ... : ... .. . ... ... : ... .. . ... ...
ROW F0 : A#3 00 8 P80 ... ... : C#4 00 A ... ... ... : A#2 00 . ... : ... .. F ... : ... .. . ... ... : ... .. 6 ... ... : ... .. 6 ... ... : A#0 01 F P80 ...
ROW F1 : ... .. 7 ... ... ... : ... .. 8 ... ... ... : ... .. . ... : ... .. C ... : ... .. . ... ... : ... .. . ... ... : ... .. . ... ... : ... .. D ... ...
ROW F2 : ... .. 6 ... ... ... : ... .. . ... ... ... : ... .. . ... : ... .. 6 ... : ... .. . ... ... : ... .. 5 ... ... : ... .. 5 ... ... : ... .. 8 ... ...
ROW F3 : ... .. 5 ... ... ... : ... .. . ... ... ... : ... .. . ... : ... .. 3 ... : ... .. . ... ... : ... .. 4 ... ... : ... .. 4 ... ... : ... .. . ... ...
ROW F4 : ... .. . ... ... ... : ... .. 4 ... ... ... : ... .. . ... : ... .. 2 ... : ... .. . ... ... : ... .. 2 ... ... : ... .. 2 ... ... : ... .. . ... ...
ROW F5 : ... .. 1 ... ... ... : ... .. 3 ... ... ... : ... .. . ... : ... .. 0 ... : ... .. . ... ... : ... .. . ... ... : ... .. . ... ... : ... .. . ... ...
ROW F6 : ... .. . ... ... ... : ... .. . ... ... ... : --- .. . ... : ... .. . ... : ... .. . ... ... : ... .. . ... ... : ... .. . ... ... : --- .. . P7F ...
ROW F7 : ... .. . ... ... ... : ... .. . ... ... ... : ... .. . ... : ... .. . ... : ... .. . ... ... : ... .. . ... ... : ... .. . ... ... : ... .. . ... ...
ROW F8 : G-3 00 8 ... ... ... : G-3 00 A ... ... ... : C#3 00 . ... : D-# 00 A ... : ... .. . ... ... : ... .. 6 ... ... : ... .. 6 ... ... : C#1 01 F P80 ...
ROW F9 : ... .. 7 ... ... ... : ... .. 8 ... ... ... : ... .. . ... : ... .. . ... : ... .. . ... ... : ... .. . ... ... : ... .. . ... ... : ... .. D ... ...
ROW FA : ... .. 6 ... ... ... : ... .. . ... ... ... : ... .. . ... : ... .. . ... : ... .. . ... ... : ... .. 5 ... ... : ... .. 5 ... ... : ... .. 8 ... ...
ROW FB : ... .. 5 ... ... ... : ... .. . ... ... ... : ... .. . ... : ... .. . ... : ... .. . ... ... : ... .. 4 ... ... : ... .. 4 ... ... : ... .. . ... ...
ROW FC : ... .. . ... ... ... : ... .. 4 ... ... ... : ... .. . ... : ... .. . ... : ... .. . ... ... : ... .. 2 ... ... : ... .. 2 ... ... : ... .. . ... ...
ROW FD : ... .. . ... ... ... : ... .. 3 ... ... ... : ... .. . ... : ... .. . ... : ... .. . ... ... : ... .. . ... ... : ... .. . ... ... : ... .. . ... ...
ROW FE : ... .. . ... ... ... : ... .. . ... ... ... : --- .. . ... : ... .. . ... : ... .. . ... ... : ... .. . ... ... : ... .. . ... ... : --- .. . P81 ...
ROW FF : ... .. . ... ... ... : ... .. . ... ... ... : ... .. . ... : ... .. . ... : ... .. . ... ... : ... .. . ... ... : ... .. . ... ... : ... .. . ... ...

PATTERN 05
ROW 00 : D#4 00 6 ... ... ... : A#2 00 A ... ... ... : A#2 00 . P82 : 1-# 00 F ... : ... .. . ... ... : ... .. 6 ... ... : G-3 01 6 ... ... : D#1 01 F P80 ...
ROW 01 : ... .. 5 ... ... ... : ... .. 8 ... ... ... : G#2 00 . P8B : ... .. C ... : ... .. . ... ... : ... .. . ... ... : ... .. . ... ... : ... .. D ... ...
ROW 02 : ... .. . ... ... ... : ... .. . ... ... ... : G-2 00 . P79 : ... .. 6 ... : ... .. . ... ... : ... .. 5 ... ... : ... .. 5 ... ... : ... .. 8 ... ...
ROW 03 : ... .. 4 ... ... ... : ... .. . ... ... ... : F-2 00 . P8D : ... .. 3 ... : ... .. . ... ... : ... .. 4 ... ... : ... .. 4 ... ... : ... .. . ... ...
ROW 04 : ... .. . ... ... ... : ... .. 4 ... ... ... : E-2 00 . P81 : ... .. 2 ... : ... .. . ... ... : ... .. 2 ... ... : ... .. 2 ... ... : ... .. . ... ...
ROW 05 : ... .. . ... ... ... : ... .. 3 ... ... ... : D#2 00 . P77 : ... .. 0 ... : ... .. . ... ... : ... .. . ... ... : ... .. . ... ... : ... .. . ... ...
ROW 06 : ... .. . ... ... ... : ... .. . ... ... ... : --- .. . ... : ... .. . ... : ... .. . ... ... : ... .. . ... ... : ... .. . ... ... : --- .. . P81 ...
ROW 07 : ... .. . ... ... ... : ... .. . ... ... ... : ... .. . ... : ... .. . ... : ... .. . ... ... : ... .. . ... ... : ... .. . ... ... : ... .. . ... ...
ROW 08 : ... .. . ... ... ... : G-2 00 A ... ... ... : D#2 00 . P80 : E-# 00 A ... : ... .. . ... ... : ... .. 6 ... ... : ... .. 6 ... ... : D#0 01 F P80 ...
ROW 09 : ... .. . ... ... ... : ... .. 8 ... ... ... : ... .. . ... : ... .. 8 ... : ... .. . ... ... : ... .. . ... ... : ... .. . ... ... : ... .. D ... ...
ROW 0A : ... .. . ... ... ... : ... .. . ... ... ... : ... .. . ... : ... .. 4 ... : ... .. . ... ... : ... .. 5 ... ... : ... .. 5 ... ... : ... .. 8 ... ...
ROW 0B : ... .. . ... ... ... : ... .. . ... ... ... : ... .. . ... : ... .. 2 ... : ... .. . ... ... : ... .. 4 ... ... : ... .. 4 ... ... : ... .. . ... ...
ROW 0C : ... .. . ... ... ... : ... .. 4 ... ... ... : ... .. . ... : ... .. 1 ... : ... .. . ... ... : ... .. 2 ... ... : ... .. 2 ... ... : ... .. . ... ...
ROW 0D : ... .. . ... ... ... : ... .. 3 ... ... ... : ... .. . ... : ... .. 0 ... : ... .. . ... ... : ... .. . ... ... : ... .. . ... ... : ... .. . ... ...
ROW 0E : ... .. . ... ... ... : ... .. . ... ... ... : ... .. . ... : ... .. . ... : ... .. . ... ... : ... .. . ... ... : ... .. . ... ... : ... .. . ... ...
ROW 0F : ... .. . ... ... ... : ... .. . ... ... ... : ... .. . ... : ... .. . ... : ... .. . ... ... : ... .. . ... ... : ... .. . ... ... : ... .. . ... ...
ROW 10 : A#3 00 6 ... ... ... : A#2 00 A ... ... ... : ... .. . ... : ... .. F ... : ... .. . ... ... : ... .. 6 ... ... : ... .. 6 ... ... : ... .. . ... ...
ROW 11 : ... .. 5 ... ... ... : ... .. 8 ... ... ... : ... .. . ... : ... .. C ... : ... .. . ... ... : ... .. . ... ... : ... .. . ... ... : ... .. . ... ...
ROW 12 : ... .. . ... ... ... : ... .. . ... ... ... : ... .. . ... : ... .. 6 ... : ... .. . ... ... : ... .. 5 ... ... : ... .. 5 ... ... : ... .. . ... ...
ROW 13 : ... .. 4 ... ... ... : ... .. . ... ... ... : ... .. . ... : ... .. 3 ... : ... .. . ... ... : ... .. 4 ... ... : ... .. 4 ... ... : ... .. . ... ...
ROW 14 : ... .. . ... ... ... : ... .. 4 ... ... ... : ... .. . ... : ... .. 2 ... : ... .. . ... ... : ... .. 2 ... ... : ... .. 2 ... ... : ... .. . ... ...
ROW 15 : ... .. 1 ... ... ... : ... .. 3 ... ... ... : ... .. . ... : ... .. 0 ... : ... .. . ... ... : ... .. . ... ... : ... .. . ... ... : ... .. . ... ...
ROW 16 : ... .. . ... ... ... : ... .. . ... ... ... : --- .. . ... : ... .. . ... : ... .. . ... ... : ... .. . ... ... : ... .. . ... ... : --- .. . P83 ...
ROW 17 : ... .. . ... ... ... : ... .. . ... ... ... : ... .. . ... : ... .. . ... : ... .. . ... ... : ... .. . ... ... : ... .. . ... ... : ... .. . ... ...
ROW 18 : G-3 00 6 ... ... ... : G-3 00 A ... ... ... : D#2 00 . ... : 1-# 00 F ... : ... .. . ... ... : ... .. 6 ... ... : ... .. 6 ... ... : D#0 01 F P80 ...
ROW 19 : ... .. 5 ... ... ... : ... .. 8 ... ... ... : ... .. . ... : ... .. C ... : ... .. . ... ... : ... .. . ... ... : ... .. . ... ... : ... .. D ... ...
ROW 1A : ... .. . ... ... ... : ... .. . ... ... ... : ... .. . ... : ... .. 6 ... : ... .. . ... ... : ... .. 5 ... ... : ... .. 5 ... ... : ... .. 8 ... ...
ROW 1B : ... .. 4 ... ... ... : ... .. . ... ... ... : ... .. . ... : ... .. 3 ... : ... .. . ... ... : ... .. 4 ... ... : ... .. 4 ... ... : ... .. . ... ...
ROW 1C : ... .. . ... ... ... : ... .. 4 ... ... ... : ... .. . ... : ... .. 2 ... : ... .. . ... ... : ... .. 2 ... ... : ... .. 2 ... ... : ... .. . ... ...
ROW 1D : ... .. . ... ... ... : ... .. 3 ... ... ... : ... .. . ... : ... .. 0 ... : ... .. . ... ... : ... .. . ... ... : ... .. . ... ... : ... .. . ... ...
ROW 1E : ... .. . ... ... ... : ... .. . ... ... ... : ... .. . ... : ... .. . ... : ... .. . ... ... : ... .. . ... ... : ... .. . ... ... : ... .. . ... ...
ROW 1F : ... .. . ... ... ... : ... .. . ... ... ... : ... .. . ... : ... .. . ... : ... .. . ... ... : ... .. . ... ... : ... .. . ... ... : ... .. . ... ...
ROW 20 : D#4 00 4 ... ... ... : C#3 00 A ... ... ... : B-3 00 . P7D : 5-# 00 D ... : ... .. . ... ... : ... .. 6 ... ... : A#3 01 6 ... ... : ... .. . ... ...
ROW 21 : ... .. 3 ... ... ... : ... .. 8 ... ... ... : A#3 00 . P7C : ... .. . ... : ... .. . ... ... : ... .. . ... ... : ... .. . ... ... : ... .. . ... ...
ROW 22 : ... .. . ... ... ... : ... .. . ... ... ... : A-3 00 . P7B : 1-# 00 D ... : ... .. . ... ... : ... .. 5 ... ... : ... .. 5 ... ... : ... .. . ... ...
ROW 23 : ... .. 2 ... ... ... : ... .. . ... ... ... : G#3 00 . ... : F-# 00 6 ... : ... .. . ... ... : ... .. 4 ... ... : ... .. 4 ... ... : ... .. . ... ...
ROW 24 : ... .. . ... ... ... : ... .. 4 ... ... ... : G-3 00 . P7C : B-# 00 1 ... : ... .. . ... ... : ... .. 2 ... ... : ... .. 2 ... ... : ... .. . ... ...
ROW 25 : ... .. . ... ... ... : ... .. 3 ... ... ... : F#3 00 . P7E : ... .. 0 ... : ... .. . ... ... : ... .. . ... ... : ... .. . ... ... : ... .. . ... ...
ROW 26 : ... .. . ... ... ... : ... .. . ... ... ... : --- .. . ... : ... .. . ... : ... .. . ... ... : ... .. . ... ... : ... .. . ... ... : --- .. . P83 ...
ROW 27 : ... .. . ... ... ... : ... .. . ... ... ... : ... .. . ... : ... .. . ... : ... .. . ... ... : ... .. . ... ... : ... .. . ... ... : ... .. . ... ...
ROW 28 : ... .. . ... ... ... : D#3 00 A ... ... ... : D#3 00 . P80 : E-# 00 A ... : ... .. . ... ... : ... .. 6 ... ... : ... .. 6 ... ... : D#1 01 F P80 ...
ROW 29 : ... .. . ... ... ... : ... .. 8 ... ... ... : ... .. . ... : ... .. 8 ... : ... .. . ... ... : ... .. . ... ... : ... .. . ... ... : ... .. D ... ...
ROW 2A : ... .. . ... ... ... : ... .. . ... ... ... : ... .. . ... : ... .. 4 ... : ... .. . ... ... : ... .. 5 ... ... : ... .. 5 ... ... : ... .. 8 ... ...
ROW 2B : ... .. . ... ... ... : ... .. . ... ... ... : ... .. . ... : ... .. 2 ... : ... .. . ... ... : ... .. 4 ... ... : ... .. 4 ... ... : ... .. . ... ...
ROW 2C : ... .. . ... ... ... : ... .. 4 ... ... ... : ... .. . ... : ... .. 1 ... : ... .. . ... ... : ... .. 2 ... ... : ... .. 2 ... ... : ... .. . ... ...
ROW 2D : ... .. . ... ... ... : ... .. 3 ... ... ... : ... .. . ... : ... .. 0 ... : ... .. . ... ... : ... .. . ... ... : ... .. . ... ... : ... .. . ... ...
ROW 2E : ... .. . ... ... ... : ... .. . ... ... ... : --- .. . ... : ... .. . ... : ... .. . ... ... : ... .. . ... ... : ... .. . ... ... : --- .. . P81 ...
ROW 2F : ... .. . ... ... ... : ... .. . ... ... ... : ... .. . ... : ... .. . ... : ... .. . ... ... : ... .. . ... ... : ... .. . ... ... : ... .. . ... ...
ROW 30 : A#3 00 4 ... ... ... : C#4 00 A ... ... ... : G-3 00 . ... : ... .. F ... : ... .. . ... ... : ... .. 6 ... ... : ... .. 6 ... ... : G-1 01 F P80 ...
ROW 31 : ... .. 3 ... ... ... : ... .. 8 ... ... ... : ... .. . ... : ... .. C ... : ... .. . ... ... : ... .. . ... ... : ... .. . ... ... : ... .. D ... ...
ROW 32 : ... .. . ... ... ... : ... .. . ... ... ... : ... .. . ... : ... .. 6 ... : ... .. . ... ... : ... .. 5 ... ... : ... .. 5 ... ... : ... .. 8 ... ...
ROW 33 : ... .. 2 ... ... ... : ... .. . ... ... ... : ... .. . ... : ... .. 3 ... : ... .. . ... ... : ... .. 4 ... ... : ... .. 4 ... ... : ... .. . ... ...
ROW 34 : ... .. . ... ... ... : ... .. 4 ... ... ... : ... .. . ... : ... .. 2 ... : ... .. . ... ... : ... .. 2 ... ... : ... .. 2 ... ... : ... .. . ... ...
ROW 35 : ... .. 1 ... ... ... : ... .. 3 ... ... ... : ... .. . ... : ... .. 0 ... : ... .. . ... ... : ... .. . ... ... : ... .. . ... ... : ... .. . ... ...
ROW 36 : ... .. . ... ... ... : ... .. . ... ... ... : --- .. . ... : ... .. . ... : ... .. . ... ... : ... .. . ... ... : ... .. . ... ... : --- .. . P81 ...
ROW 37 : ... .. . ... ... ... : ... .. . ... ... ... : ... .. . ... : ... .. . ... : ... .. . ... ... : ... .. . ... ... : ... .. . ... ... : ... .. . ... ...
ROW 38 : G-3 00 4 ... ... ... : A#3 00 A ... ... ... : C#4 00 . ... : F-# 00 F ... : ... .. . ... ... : ... .. 6 ... ... : ... .. 6 ... ... : C#2 01 F P80 ...
ROW 39 : ... .. 3 ... ... ... : ... .. 8 ... ... ... : ... .. . ... : ... .. C ... : ... .. . ... ... : ... .. . ... ... : ... .. . ... ... : ... .. D ... ...
ROW 3A : ... .. . ... ... ... : ... .. . ... ... ... : ... .. . ... : ... .. 6 ... : ... .. . ... ... : ... .. 5 ... ... : ... .. 5 ... ... : ... .. 8 ... ...
ROW 3B : ... .. 2 ... ... ... : ... .. . ... ... ... : ... .. . ... : ... .. 3 ... : ... .. . ... ... : ... .. 4 ... ... : ... .. 4 ... ... : ... .. . ... ...
ROW 3C : ... .. . ... ... ... : ... .. 4 ... ... ... : ... .. . ... : ... .. F ... : ... .. . ... ... : ... .. 2 ... ... : ... .. 2 ... ... : ... .. . ... ...
ROW 3D : ... .. . ... ... ... : ... .. 3 ... ... ... : ... .. . ... : ... .. C ... : ... .. . ... ... : ... .. . ... ... : ... .. . ... ... : ... .. . ... ...
ROW 3E : ... .. . ... ... ... : ... .. . ... ... ... : --- .. . ... : ... .. 6 ... : ... .. . ... ... : ... .. . ... ... : ... .. . ... ... : --- .. . ... ...
ROW 3F : ... .. . ... ... ... : ... .. . ... ... ... : ... .. . ... : ... .. 3 ... : ... .. . ... ... : ... .. . ... ... : ... .. . ... ... : ... .. . ... ...
ROW 40 : ... .. 0 ... ... ... : A-2 00 A ... ... ... : A#2 00 . P82 : 1-# 00 F ... : ... .. . ... ... : C#3 01 6 ... ... : A-3 01 6 ... ... : A-0 01 F ... ...
ROW 41 : ... .. . ... ... ... : ... .. 8 ... ... ... : G#2 00 . P8B : ... .. C ... : ... .. . ... ... : ... .. . ... ... : ... .. . ... ... : ... .. D ... ...
ROW 42 : ... .. . ... ... ... : ... .. . ... ... ... : G-2 00 . P79 : ... .. 6 ... : ... .. . ... ... : ... .. 5 ... ... : ... .. 5 ... ... : ... .. 8 ... ...
ROW 43 : ... .. . ... ... ... : ... .. . ... ... ... : F-2 00 . P8D : ... .. 3 ... : ... .. . ... ... : ... .. 4 ... ... : ... .. 4 ... ... : ... .. . ... ...
ROW 44 : ... .. . ... ... ... : ... .. 4 ... ... ... : E-2 00 . P81 : ... .. 2 ... : ... .. . ... ... : ... .. 2 ... ... : ... .. 2 ... ... : ... .. . ... ...
ROW 45 : ... .. . ... ... ... : ... .. 3 ... ... ... : D#2 00 . P77 : ... .. 0 ... : ... .. . ... ... : ... .. . ... ... : ... .. . ... ... : ... .. . ... ...
ROW 46 : ... .. . ... ... ... : ... .. . ... ... ... : --- .. . ... : ... .. . ... : ... .. . ... ... : ... .. . ... ... : ... .. . ... ... : --- .. . ... ...
ROW 47 : ... .. . ... ... ... : ... .. . ... ... ... : ... .. . ... : ... .. . ... : ... .. . ... ... : ... .. . ... ... : ... .. . ... ... : ... .. . ... ...
ROW 48 : ... .. . ... ... ... : G#2 00 A ... ... ... : E-3 00 . P80 : E-# 00 A ... : ... .. . ... ... : ... .. 6 ... ... : ... .. 6 ... ... : E-1 01 F ... ...
ROW 49 : ... .. . ... ... ... : ... .. 8 ... ... ... : ... .. . ... : ... .. 8 ... : ... .. . ... ... : ... .. . ... ... : ... .. . ... ... : ... .. D ... ...
ROW 4A : ... .. . ... ... ... : ... .. . ... ... ... : ... .. . ... : ... .. 4 ... : ... .. . ... ... : ... .. 5 ... ... : ... .. 5 ... ... : ... .. 8 ... ...
ROW 4B : ... .. . ... ... ... : ... .. . ... ... ... : ... .. . ... : ... .. 2 ... : ... .. . ... ... : ... .. 4 ... ... : ... .. 4 ... ... : ... .. . ... ...
ROW 4C : ... .. . ... ... ... : ... .. 4 ... ... ... : ... .. . ... : ... .. 1 ... : ... .. . ... ... : ... .. 2 ... ... : ... .. 2 ... ... : ... .. . ... ...
ROW 4D : ... .. . ... ... ... : ... .. 3 ... ... ... : ... .. . ... : ... .. 0 ... : ... .. . ... ... : ... .. . ... ... : ... .. . ... ... : ... .. . ... ...
ROW 4E : ... .. . ... ... ... : ... .. . ... ... ... : ... .. . ... : ... .. . ... : ... .. . ... ... : ... .. . ... ... : ... .. . ... ... : ... .. . ... ...
ROW 4F : ... .. . ... ... ... : ... .. . ... ... ... : ... .. . ... : ... .. . ... : ... .. . ... ... : ... .. . ... ... : ... .. . ... ... : ... .. . ... ...
ROW 50 : ... .. . ... ... ... : A-2 00 A ... ... ... : ... .. . ... : 1-# 00 F ... : ... .. . ... ... : ... .. 6 ... ... : ... .. 6 ... ... : ... .. . ... ...
ROW 51 : ... .. . ... ... ... : ... .. 8 ... ... ... : ... .. . ... : ... .. C ... : ... .. . ... ... : ... .. . ... ... : ... .. . ... ... : ... .. . ... ...
ROW 52 : ... .. . ... ... ... : ... .. . ... ... ... : ... .. . ... : ... .. 6 ... : ... .. . ... ... : ... .. 5 ... ... : ... .. 5 ... ... : ... .. . ... ...
ROW 53 : ... .. . ... ... ... : ... .. . ... ... ... : ... .. . ... : ... .. 3 ... : ... .. . ... ... : ... .. 4 ... ... : ... .. 4 ... ... : ... .. . ... ...
ROW 54 : ... .. . ... ... ... : ... .. 4 ... ... ... : ... .. . ... : ... .. 2 ... : ... .. . ... ... : ... .. 2 ... ... : ... .. 2 ... ... : ... .. . ... ...
ROW 55 : ... .. . ... ... ... : ... .. 3 ... ... ... : ... .. . ... : ... .. 0 ... : ... .. . ... ... : ... .. . ... ... : ... .. . ... ... : ... .. . ... ...
ROW 56 : ... .. . ... ... ... : ... .. . ... ... ... : --- .. . ... : ... .. . ... : ... .. . ... ... : ... .. . ... ... : ... .. . ... ... : --- .. . P82 ...
ROW 57 : ... .. . ... ... ... : ... .. . ... ... ... : ... .. . ... : ... .. . ... : ... .. . ... ... : ... .. . ... ... : ... .. . ... ... : ... .. . ... ...
ROW 58 : ... .. . ... ... ... : G#3 00 A ... ... ... : E-3 00 . ... : E-# 00 A ... : ... .. . ... ... : ... .. 6 ... ... : ... .. 6 ... ... : E-1 01 F P80 ...
ROW 59 : ... .. . ... ... ... : ... .. 8 ... ... ... : ... .. . ... : ... .. 8 ... : ... .. . ... ... : ... .. . ... ... : ... .. . ... ... : ... .. D ... ...
ROW 5A : ... .. . ... ... ... : ... .. . ... ... ... : ... .. . ... : ... .. 4 ... : ... .. . ... ... : ... .. 5 ... ... : ... .. 5 ... ... : ... .. 8 ... ...
ROW 5B : ... .. . ... ... ... : ... .. . ... ... ... : ... .. . ... : ... .. 2 ... : ... .. . ... ... : ... .. 4 ... ... : ... .. 4 ... ... : ... .. . ... ...
ROW 5C : ... .. . ... ... ... : ... .. 4 ... ... ... : ... .. . ... : ... .. 1 ... : ... .. . ... ... : ... .. 2 ... ... : ... .. 2 ... ... : ... .. . ... ...
ROW 5D : ... .. . ... ... ... : ... .. 3 ... ... ... : ... .. . ... : ... .. 0 ... : ... .. . ... ... : ... .. . ... ... : ... .. . ... ... : ... .. . ... ...
ROW 5E : ... .. . ... ... ... : ... .. . ... ... ... : ... .. . ... : ... .. . ... : ... .. . ... ... : ... .. . ... ... : ... .. . ... ... : ... .. . ... ...
ROW 5F : ... .. . ... ... ... : ... .. . ... ... ... : ... .. . ... : ... .. . ... : ... .. . ... ... : ... .. . ... ... : ... .. . ... ... : ... .. . ... ...
ROW 60 : E-3 00 F P80 ... ... : C#3 00 A ... ... ... : B-3 00 . P7D : 5-# 00 D ... : ... .. . ... ... : ... .. 6 ... ... : ... .. 6 ... ... : ... .. . ... ...
ROW 61 : ... .. E ... ... ... : ... .. 8 ... ... ... : A#3 00 . P7C : ... .. . ... : ... .. . ... ... : ... .. . ... ... : ... .. . ... ... : ... .. . ... ...
ROW 62 : ... .. D ... ... ... : ... .. . ... ... ... : A-3 00 . P7B : 1-# 00 D ... : ... .. . ... ... : ... .. 5 ... ... : ... .. 5 ... ... : ... .. . ... ...
ROW 63 : ... .. A ... ... ... : ... .. . ... ... ... : G#3 00 . ... : F-# 00 6 ... : ... .. . ... ... : ... .. 4 ... ... : ... .. 4 ... ... : ... .. . ... ...
ROW 64 : ... .. . ... ... ... : ... .. 4 ... ... ... : G-3 00 . P7C : B-# 00 1 ... : ... .. . ... ... : ... .. 2 ... ... : ... .. 2 ... ... : ... .. . ... ...
ROW 65 : ... .. . ... ... ... : ... .. 3 ... ... ... : F#3 00 . P7E : ... .. 0 ... : ... .. . ... ... : ... .. . ... ... : ... .. . ... ... : ... .. . ... ...
ROW 66 : ... .. . ... ... ... : ... .. . ... ... ... : --- .. . ... : ... .. . ... : ... .. . ... ... : ... .. . ... ... : ... .. . ... ... : --- .. . P82 ...
ROW 67 : ... .. . ... ... ... : ... .. . ... ... ... : ... .. . ... : ... .. . ... : ... .. . ... ... : ... .. . ... ... : ... .. . ... ... : ... .. . ... ...
ROW 68 : ... .. . ... ... ... : E-3 00 A ... ... ... : E-3 00 . P80 : E-# 00 A ... : ... .. . ... ... : ... .. 6 ... ... : ... .. 6 ... ... : E-1 01 F P80 ...
ROW 69 : ... .. . ... ... ... : ... .. 8 ... ... ... : ... .. . ... : ... .. 8 ... : ... .. . ... ... : ... .. . ... ... : ... .. . ... ... : ... .. D ... ...
ROW 6A : ... .. . ... ... ... : ... .. . ... ... ... : ... .. . ... : ... .. 4 ... : ... .. . ... ... : ... .. 5 ... ... : ... .. 5 ... ... : ... .. 8 ... ...
ROW 6B : ... .. . ... ... ... : ... .. . ... ... ... : ... .. . ... : ... .. 2 ... : ... .. . ... ... : ... .. 4 ... ... : ... .. 4 ... ... : ... .. . ... ...
ROW 6C : ... .. . ... ... ... : ... .. 4 ... ... ... : ... .. . ... : ... .. 1 ... : ... .. . ... ... : ... .. 2 ... ... : ... .. 2 ... ... : ... .. . ... ...
ROW 6D : ... .. 2 ... ... ... : ... .. 3 ... ... ... : ... .. . ... : ... .. 0 ... : ... .. . ... ... : ... .. . ... ... : ... .. . ... ... : ... .. . ... ...
ROW 6E : ... .. . ... ... ... : ... .. . ... ... ... : --- .. . ... : ... .. . ... : ... .. . ... ... : ... .. . ... ... : ... .. . ... ... : --- .. . P82 ...
ROW 6F : ... .. . ... ... ... : ... .. . ... ... ... : ... .. . ... : ... .. . ... : ... .. . ... ... : ... .. . ... ... : ... .. . ... ... : ... .. . ... ...
ROW 70 : B-3 00 F ... ... ... : C#4 00 A ... ... ... : B-3 00 . ... : ... .. F ... : ... .. . ... ... : ... .. 6 ... ... : ... .. 6 ... ... : B-1 01 F P80 ...
ROW 71 : ... .. E ... ... ... : ... .. 8 ... ... ... : ... .. . ... : ... .. C ... : ... .. . ... ... : ... .. . ... ... : ... .. . ... ... : ... .. D ... ...
ROW 72 : ... .. D ... ... ... : ... .. . ... ... ... : ... .. . ... : ... .. 6 ... : ... .. . ... ... : ... .. 5 ... ... : ... .. 5 ... ... : ... .. 8 ... ...
ROW 73 : ... .. A ... ... ... : ... .. . ... ... ... : ... .. . ... : ... .. 3 ... : ... .. . ... ... : ... .. 4 ... ... : ... .. 4 ... ... : ... .. . ... ...
ROW 74 : ... .. . ... ... ... : ... .. 4 ... ... ... : ... .. . ... : ... .. 2 ... : ... .. . ... ... : ... .. 2 ... ... : ... .. 2 ... ... : ... .. . ... ...
ROW 75 : C-4 00 A P7D ... ... : ... .. 3 ... ... ... : ... .. . ... : ... .. 0 ... : ... .. . ... ... : ... .. . ... ... : ... .. . ... ... : ... .. . ... ...
ROW 76 : ... .. . P86 ... ... : ... .. . ... ... ... : --- .. . ... : ... .. . ... : ... .. . ... ... : ... .. . ... ... : ... .. . ... ... : --- .. . P86 ...
ROW 77 : C#4 00 A P80 ... ... : ... .. . ... ... ... : ... .. . ... : ... .. . ... : ... .. . ... ... : ... .. . ... ... : ... .. . ... ... : ... .. . ... ...
ROW 78 : ... .. . ... ... ... : A-3 00 A ... ... ... : A-3 00 . ... : D-# 00 A ... : ... .. . ... ... : ... .. 6 ... ... : ... .. 6 ... ... : A-1 01 F P80 ...
ROW 79 : ... .. . ... ... ... : ... .. 8 ... ... ... : ... .. . ... : ... .. . ... : ... .. . ... ... : ... .. . ... ... : ... .. . ... ... : ... .. D ... ...
ROW 7A : ... .. . ... ... ... : ... .. . ... ... ... : ... .. . ... : ... .. . ... : ... .. . ... ... : ... .. 5 ... ... : ... .. 5 ... ... : ... .. 8 ... ...
ROW 7B : ... .. . ... ... ... : ... .. . ... ... ... : ... .. . ... : ... .. . ... : ... .. . ... ... : ... .. 4 ... ... : ... .. 4 ... ... : ... .. . ... ...
ROW 7C : ... .. . ... ... ... : ... .. 4 ... ... ... : ... .. . ... : ... .. . ... : ... .. . ... ... : ... .. 2 ... ... : ... .. 2 ... ... : ... .. . ... ...
ROW 7D : ... .. . ... ... ... : ... .. 3 ... ... ... : ... .. . ... : ... .. . ... : ... .. . ... ... : ... .. . ... ... : ... .. . ... ... : ... .. . ... ...
ROW 7E : ... .. . ... ... ... : ... .. . ... ... ... : --- .. . ... : ... .. . ... : ... .. . ... ... : ... .. . ... ... : ... .. . ... ... : --- .. . P7F ...
ROW 7F : ... .. . ... ... ... : ... .. . ... ... ... : ... .. . ... : ... .. . ... : ... .. . ... ... : ... .. . ... ... : ... .. . ... ... : ... .. . ... ...
ROW 80 : B-3 00 F ... ... ... : A-2 00 A ... ... ... : A#2 00 . P82 : 1-# 00 F ... : ... .. . ... ... : A-2 01 6 ... ... : E-3 01 6 ... ... : A-0 01 F P80 ...
ROW 81 : ... .. E ... ... ... : ... .. 8 ... ... ... : G#2 00 . P8B : ... .. C ... : ... .. . ... ... : ... .. . ... ... : ... .. . ... ... : ... .. D ... ...
ROW 82 : ... .. D ... ... ... : ... .. . ... ... ... : G-2 00 . P79 : ... .. 6 ... : ... .. . ... ... : ... .. 5 ... ... : ... .. 5 ... ... : ... .. 8 ... ...
ROW 83 : ... .. A ... ... ... : ... .. . ... ... ... : F-2 00 . P8D : ... .. 3 ... : ... .. . ... ... : ... .. 4 ... ... : ... .. 4 ... ... : ... .. . ... ...
ROW 84 : ... .. . ... ... ... : ... .. 4 ... ... ... : E-2 00 . P81 : ... .. 2 ... : ... .. . ... ... : ... .. 2 ... ... : ... .. 2 ... ... : ... .. . ... ...
ROW 85 : ... .. . ... ... ... : ... .. 3 ... ... ... : D#2 00 . P77 : ... .. 0 ... : ... .. . ... ... : ... .. . ... ... : ... .. . ... ... : ... .. . ... ...
ROW 86 : ... .. . ... ... ... : ... .. . ... ... ... : --- .. . ... : ... .. . ... : ... .. . ... ... : ... .. . ... ... : ... .. . ... ... : --- .. . ... ...
ROW 87 : ... .. . ... ... ... : ... .. . ... ... ... : ... .. . ... : ... .. . ... : ... .. . ... ... : ... .. . ... ... : ... .. . ... ... : ... .. . ... ...
ROW 88 : ... .. . ... ... ... : G#2 00 A ... ... ... : E-3 00 . P80 : E-# 00 A ... : ... .. . ... ... : ... .. 6 ... ... : ... .. 6 ... ... : E-1 01 F ... ...
ROW 89 : ... .. . ... ... ... : ... .. 8 ... ... ... : ... .. . ... : ... .. 8 ... : ... .. . ... ... : ... .. . ... ... : ... .. . ... ... : ... .. D ... ...
ROW 8A : ... .. . ... ... ... : ... .. . ... ... ... : ... .. . ... : ... .. 4 ... : ... .. . ... ... : ... .. 5 ... ... : ... .. 5 ... ... : ... .. 8 ... ...
ROW 8B : ... .. . ... ... ... : ... .. . ... ... ... : ... .. . ... : ... .. 2 ... : ... .. . ... ... : ... .. 4 ... ... : ... .. 4 ... ... : ... .. . ... ...
ROW 8C : ... .. . ... ... ... : ... .. 4 ... ... ... : ... .. . ... : ... .. 1 ... : ... .. . ... ... : ... .. 2 ... ... : ... .. 2 ... ... : ... .. . ... ...
ROW 8D : ... .. . ... ... ... : ... .. 3 ... ... ... : ... .. . ... : ... .. 0 ... : ... .. . ... ... : ... .. . ... ... : ... .. . ... ... : ... .. . ... ...
ROW 8E : ... .. . ... ... ... : ... .. . ... ... ... : ... .. . ... : ... .. . ... : ... .. . ... ... : ... .. . ... ... : ... .. . ... ... : ... .. . ... ...
ROW 8F : ... .. . ... ... ... : ... .. . ... ... ... : ... .. . ... : ... .. . ... : ... .. . ... ... : ... .. . ... ... : ... .. . ... ... : ... .. . ... ...
ROW 90 : ... .. . ... ... ... : A-2 00 A ... ... ... : ... .. . ... : ... .. F ... : ... .. . ... ... : ... .. 6 ... ... : ... .. 6 ... ... : ... .. . ... ...
ROW 91 : ... .. . ... ... ... : ... .. 8 ... ... ... : ... .. . ... : ... .. C ... : ... .. . ... ... : ... .. . ... ... : ... .. . ... ... : ... .. . ... ...
ROW 92 : ... .. . ... ... ... : ... .. . ... ... ... : ... .. . ... : ... .. 6 ... : ... .. . ... ... : ... .. 5 ... ... : ... .. 5 ... ... : ... .. . ... ...
ROW 93 : ... .. . ... ... ... : ... .. . ... ... ... : ... .. . ... : ... .. 3 ... : ... .. . ... ... : ... .. 4 ... ... : ... .. 4 ... ... : ... .. . ... ...
ROW 94 : ... .. . ... ... ... : ... .. 4 ... ... ... : ... .. . ... : ... .. 2 ... : ... .. . ... ... : ... .. 2 ... ... : ... .. 2 ... ... : ... .. . ... ...
ROW 95 : ... .. 2 ... ... ... : ... .. 3 ... ... ... : ... .. . ... : ... .. 0 ... : ... .. . ... ... : ... .. . ... ... : ... .. . ... ... : ... .. . ... ...
ROW 96 : ... .. . ... ... ... : ... .. . ... ... ... : --- .. . ... : ... .. . ... : ... .. . ... ... : ... .. . ... ... : ... .. . ... ... : --- .. . P82 ...
ROW 97 : ... .. . ... ... ... : ... .. . ... ... ... : ... .. . ... : ... .. . ... : ... .. . ... ... : ... .. . ... ... : ... .. . ... ... : ... .. . ... ...
ROW 98 : A-3 00 F ... ... ... : G#3 00 A ... ... ... : C#4 00 . ... : 1-# 00 F ... : ... .. . ... ... : ... .. 6 ... ... : ... .. 6 ... ... : C#2 01 F P80 ...
ROW 99 : ... .. E ... ... ... : ... .. 8 ... ... ... : ... .. . ... : ... .. C ... : ... .. . ... ... : ... .. . ... ... : ... .. . ... ... : ... .. D ... ...
ROW 9A : ... .. D ... ... ... : ... .. . ... ... ... : ... .. . ... : ... .. 6 ... : ... .. . ... ... : ... .. 5 ... ... : ... .. 5 ... ... : ... .. 8 ... ...
ROW 9B : ... .. A ... ... ... : ... .. . ... ... ... : ... .. . ... : ... .. 3 ... : ... .. . ... ... : ... .. 4 ... ... : ... .. 4 ... ... : ... .. . ... ...
ROW 9C : ... .. . ... ... ... : ... .. 4 ... ... ... : ... .. . ... : ... .. 2 ... : ... .. . ... ... : ... .. 2 ... ... : ... .. 2 ... ... : ... .. . ... ...
ROW 9D : ... .. . ... ... ... : ... .. 3 ... ... ... : ... .. . ... : ... .. 0 ... : ... .. . ... ... : ... .. . ... ... : ... .. . ... ... : ... .. . ... ...
ROW 9E : ... .. . ... ... ... : ... .. . ... ... ... : ... .. . ... : ... .. . ... : ... .. . ... ... : ... .. . ... ... : ... .. . ... ... : ... .. . ... ...
ROW 9F : ... .. . ... ... ... : ... .. . ... ... ... : ... .. . ... : ... .. . ... : ... .. . ... ... : ... .. . ... ... : ... .. . ... ... : ... .. . ... ...
ROW A0 : ... .. . ... ... ... : C#3 00 A ... ... ... : B-3 00 . P7D : 5-# 00 D ... : ... .. . ... ... : C#3 01 6 ... ... : C#4 01 6 ... ... : ... .. . ... ...
ROW A1 : ... .. . ... ... ... : ... .. 8 ... ... ... : A#3 00 . P7C : ... .. . ... : ... .. . ... ... : ... .. . ... ... : ... .. . ... ... : ... .. . ... ...
ROW A2 : ... .. . ... ... ... : ... .. . ... ... ... : A-3 00 . P7B : 1-# 00 D ... : ... .. . ... ... : ... .. 5 ... ... : ... .. 5 ... ... : ... .. . ... ...
ROW A3 : ... .. . ... ... ... : ... .. . ... ... ... : G#3 00 . ... : F-# 00 6 ... : ... .. . ... ... : ... .. 4 ... ... : ... .. 4 ... ... : ... .. . ... ...
ROW A4 : ... .. . ... ... ... : ... .. 4 ... ... ... : G-3 00 . P7C : B-# 00 1 ... : ... .. . ... ... : ... .. 2 ... ... : ... .. 2 ... ... : ... .. . ... ...
ROW A5 : ... .. . ... ... ... : ... .. 3 ... ... ... : F#3 00 . P7E : ... .. 0 ... : ... .. . ... ... : ... .. . ... ... : ... .. . ... ... : ... .. . ... ...
ROW A6 : ... .. . ... ... ... : ... .. . ... ... ... : --- .. . ... : ... .. . ... : ... .. . ... ... : ... .. . ... ... : ... .. . ... ... : --- .. . ... ...
ROW A7 : ... .. . ... ... ... : ... .. . ... ... ... : ... .. . ... : ... .. . ... : ... .. . ... ... : ... .. . ... ... : ... .. . ... ... : ... .. . ... ...
ROW A8 : ... .. . ... ... ... : E-3 00 A ... ... ... : A-2 00 . P80 : E-# 00 A ... : ... .. . ... ... : ... .. 6 ... ... : ... .. 6 ... ... : A-0 01 F ... ...
ROW A9 : ... .. . ... ... ... : ... .. 8 ... ... ... : ... .. . ... : ... .. 8 ... : ... .. . ... ... : ... .. . ... ... : ... .. . ... ... : ... .. D ... ...
ROW AA : ... .. . ... ... ... : ... .. . ... ... ... : ... .. . ... : ... .. 4 ... : ... .. . ... ... : ... .. 5 ... ... : ... .. 5 ... ... : ... .. 8 ... ...
ROW AB : ... .. . ... ... ... : ... .. . ... ... ... : ... .. . ... : ... .. 2 ... : ... .. . ... ... : ... .. 4 ... ... : ... .. 4 ... ... : ... .. . ... ...
ROW AC : ... .. . ... ... ... : ... .. 4 ... ... ... : ... .. . ... : ... .. 1 ... : ... .. . ... ... : ... .. 2 ... ... : ... .. 2 ... ... : ... .. . ... ...
ROW AD : ... .. 2 ... ... ... : ... .. 3 ... ... ... : ... .. . ... : ... .. 0 ... : ... .. . ... ... : ... .. . ... ... : ... .. . ... ... : ... .. . ... ...
ROW AE : ... .. . ... ... ... : ... .. . ... ... ... : --- .. . ... : ... .. . ... : ... .. . ... ... : ... .. . ... ... : ... .. . ... ... : --- .. . ... ...
ROW AF : ... .. . ... ... ... : ... .. . ... ... ... : ... .. . ... : ... .. . ... : ... .. . ... ... : ... .. . ... ... : ... .. . ... ... : ... .. . ... ...
ROW B0 : D#4 00 F ... ... ... : C#4 00 A ... ... ... : E-3 00 . ... : ... .. F ... : ... .. . ... ... : ... .. 6 ... ... : ... .. 6 ... ... : E-1 01 F ... ...
ROW B1 : ... .. E ... ... ... : ... .. 8 ... ... ... : ... .. . ... : ... .. C ... : ... .. . ... ... : ... .. . ... ... : ... .. . ... ... : ... .. D ... ...
ROW B2 : ... .. D ... ... ... : ... .. . ... ... ... : ... .. . ... : ... .. 6 ... : ... .. . ... ... : ... .. 5 ... ... : ... .. 5 ... ... : ... .. 8 ... ...
ROW B3 : ... .. A ... ... ... : ... .. . ... ... ... : ... .. . ... : ... .. 3 ... : ... .. . ... ... : ... .. 4 ... ... : ... .. 4 ... ... : ... .. . ... ...
ROW B4 : ... .. . ... ... ... : ... .. 4 ... ... ... : ... .. . ... : ... .. 2 ... : ... .. . ... ... : ... .. 2 ... ... : ... .. 2 ... ... : ... .. . ... ...
ROW B5 : E-4 00 A P7F ... ... : ... .. 3 ... ... ... : ... .. . ... : ... .. 0 ... : ... .. . ... ... : ... .. . ... ... : ... .. . ... ... : ... .. . ... ...
ROW B6 : ... .. . P80 ... ... : ... .. . ... ... ... : --- .. . ... : ... .. . ... : ... .. . ... ... : ... .. . ... ... : ... .. . ... ... : --- .. . P82 ...
ROW B7 : ... .. . ... ... ... : ... .. . ... ... ... : ... .. . ... : ... .. . ... : ... .. . ... ... : ... .. . ... ... : ... .. . ... ... : ... .. . ... ...
ROW B8 : ... .. . ... ... ... : A-3 00 A ... ... ... : A-3 00 . ... : F-# 00 F ... : ... .. . ... ... : ... .. 6 ... ... : ... .. 6 ... ... : A-1 01 F P80 ...
ROW B9 : ... .. . ... ... ... : ... .. 8 ... ... ... : ... .. . ... : ... .. C ... : ... .. . ... ... : ... .. . ... ... : ... .. . ... ... : ... .. D ... ...
ROW BA : ... .. . ... ... ... : ... .. . ... ... ... : ... .. . ... : ... .. 6 ... : ... .. . ... ... : ... .. 5 ... ... : ... .. 5 ... ... : ... .. 8 ... ...
ROW BB : ... .. . ... ... ... : ... .. . ... ... ... : ... .. . ... : ... .. 3 ... : ... .. . ... ... : ... .. 4 ... ... : ... .. 4 ... ... : ... .. . ... ...
ROW BC : ... .. . ... ... ... : ... .. 4 ... ... ... : ... .. . ... : ... .. F ... : ... .. . ... ... : ... .. 2 ... ... : ... .. 2 ... ... : ... .. . ... ...
ROW BD : ... .. . ... ... ... : ... .. 3 ... ... ... : ... .. . ... : ... .. C ... : ... .. . ... ... : ... .. . ... ... : ... .. . ... ... : ... .. . ... ...
ROW BE : ... .. . ... ... ... : ... .. . ... ... ... : --- .. . ... : ... .. 6 ... : ... .. . ... ... : ... .. . ... ... : ... .. . ... ... : --- .. . P7F ...
ROW BF : ... .. . ... ... ... : ... .. . ... ... ... : ... .. . ... : ... .. 3 ... : ... .. . ... ... : ... .. . ... ... : ... .. . ... ... : ... .. . ... ...
ROW C0 : D#4 00 F ... ... ... : A#3 00 A ... ... ... : A#2 00 . P82 : 1-# 00 F ... : ... .. . ... ... : A#2 01 6 ... ... : D#4 01 6 ... ... : D#1 01 F P80 ...
ROW C1 : ... .. E ... ... ... : ... .. 8 ... ... ... : G#2 00 . P8B : ... .. C ... : ... .. . ... ... : ... .. . ... ... : ... .. . ... ... : ... .. D ... ...
ROW C2 : ... .. D ... ... ... : ... .. . ... ... ... : G-2 00 . P79 : ... .. 6 ... : ... .. . ... ... : ... .. 5 ... ... : ... .. 5 ... ... : ... .. 8 ... ...
ROW C3 : ... .. A ... ... ... : ... .. . ... ... ... : F-2 00 . P8D : ... .. 3 ... : ... .. . ... ... : ... .. 4 ... ... : ... .. 4 ... ... : ... .. . ... ...
ROW C4 : ... .. . ... ... ... : ... .. 4 ... ... ... : E-2 00 . P81 : ... .. 2 ... : ... .. . ... ... : ... .. 2 ... ... : ... .. 2 ... ... : ... .. . ... ...
ROW C5 : ... .. . ... ... ... : ... .. 3 ... ... ... : D#2 00 . P77 : ... .. 0 ... : ... .. . ... ... : ... .. . ... ... : ... .. . ... ... : ... .. . ... ...
ROW C6 : ... .. . ... ... ... : ... .. . ... ... ... : --- .. . ... : ... .. . ... : ... .. . ... ... : ... .. . ... ... : ... .. . ... ... : --- .. . P81 ...
ROW C7 : ... .. . ... ... ... : ... .. . ... ... ... : ... .. . ... : ... .. . ... : ... .. . ... ... : ... .. . ... ... : ... .. . ... ... : ... .. . ... ...
ROW C8 : ... .. . ... ... ... : C#3 00 A ... ... ... : D#2 00 . P80 : E-# 00 A ... : ... .. . ... ... : ... .. 6 ... ... : ... .. 6 ... ... : D#0 01 F P80 ...
ROW C9 : ... .. . ... ... ... : ... .. 8 ... ... ... : ... .. . ... : ... .. 8 ... : ... .. . ... ... : ... .. . ... ... : ... .. . ... ... : ... .. D ... ...
ROW CA : ... .. . ... ... ... : ... .. . ... ... ... : ... .. . ... : ... .. 4 ... : ... .. . ... ... : ... .. 5 ... ... : ... .. 5 ... ... : ... .. 8 ... ...
ROW CB : ... .. . ... ... ... : ... .. . ... ... ... : ... .. . ... : ... .. 2 ... : ... .. . ... ... : ... .. 4 ... ... : ... .. 4 ... ... : ... .. . ... ...
ROW CC : ... .. . ... ... ... : ... .. 4 ... ... ... : ... .. . ... : ... .. 1 ... : ... .. . ... ... : ... .. 2 ... ... : ... .. 2 ... ... : ... .. . ... ...
ROW CD : ... .. . ... ... ... : ... .. 3 ... ... ... : ... .. . ... : ... .. 0 ... : ... .. . ... ... : ... .. . ... ... : ... .. . ... ... : ... .. . ... ...
ROW CE : ... .. . ... ... ... : ... .. . ... ... ... : ... .. . ... : ... .. . ... : ... .. . ... ... : ... .. . ... ... : ... .. . ... ... : ... .. . ... ...
ROW CF : ... .. . ... ... ... : ... .. . ... ... ... : ... .. . ... : ... .. . ... : ... .. . ... ... : ... .. . ... ... : ... .. . ... ... : ... .. . ... ...
ROW D0 : ... .. . ... ... ... : D#3 00 A ... ... ... : ... .. . ... : 1-# 00 F ... : ... .. . ... ... : ... .. 6 ... ... : ... .. 6 ... ... : ... .. . ... ...
ROW D1 : ... .. . ... ... ... : ... .. 8 ... ... ... : ... .. . ... : ... .. C ... : ... .. . ... ... : ... .. . ... ... : ... .. . ... ... : ... .. . ... ...
ROW D2 : ... .. . ... ... ... : ... .. . ... ... ... : ... .. . ... : ... .. 6 ... : ... .. . ... ... : ... .. 5 ... ... : ... .. 5 ... ... : ... .. . ... ...
ROW D3 : ... .. . ... ... ... : ... .. . ... ... ... : ... .. . ... : ... .. 3 ... : ... .. . ... ... : ... .. 4 ... ... : ... .. 4 ... ... : ... .. . ... ...
ROW D4 : ... .. . ... ... ... : ... .. 4 ... ... ... : ... .. . ... : ... .. 2 ... : ... .. . ... ... : ... .. 2 ... ... : ... .. 2 ... ... : ... .. . ... ...
ROW D5 : ... .. . ... ... ... : ... .. 3 ... ... ... : ... .. . ... : ... .. 0 ... : ... .. . ... ... : ... .. . ... ... : ... .. . ... ... : ... .. . ... ...
ROW D6 : ... .. . ... ... ... : ... .. . ... ... ... : --- .. . ... : ... .. . ... : ... .. . ... ... : ... .. . ... ... : ... .. . ... ... : --- .. . P83 ...
ROW D7 : ... .. . ... ... ... : ... .. . ... ... ... : ... .. . ... : ... .. . ... : ... .. . ... ... : ... .. . ... ... : ... .. . ... ... : ... .. . ... ...
ROW D8 : ... .. . ... ... ... : G-3 00 A ... ... ... : D#2 00 . ... : E-# 00 A ... : ... .. . ... ... : ... .. 6 ... ... : ... .. 6 ... ... : D#0 01 F P80 ...
ROW D9 : ... .. . ... ... ... : ... .. 8 ... ... ... : ... .. . ... : ... .. 8 ... : ... .. . ... ... : ... .. . ... ... : ... .. . ... ... : ... .. D ... ...
ROW DA : ... .. . ... ... ... : ... .. . ... ... ... : ... .. . ... : ... .. 4 ... : ... .. . ... ... : ... .. 5 ... ... : ... .. 5 ... ... : ... .. 8 ... ...
ROW DB : ... .. . ... ... ... : ... .. . ... ... ... : ... .. . ... : ... .. 2 ... : ... .. . ... ... : ... .. 4 ... ... : ... .. 4 ... ... : ... .. . ... ...
ROW DC : ... .. . ... ... ... : ... .. 4 ... ... ... : ... .. . ... : ... .. 1 ... : ... .. . ... ... : ... .. 2 ... ... : ... .. 2 ... ... : ... .. . ... ...
ROW DD : ... .. . ... ... ... : ... .. 3 ... ... ... : ... .. . ... : ... .. 0 ... : ... .. . ... ... : ... .. . ... ... : ... .. . ... ... : ... .. . ... ...
ROW DE : ... .. . ... ... ... : ... .. . ... ... ... : ... .. . ... : ... .. . ... : ... .. . ... ... : ... .. . ... ... : ... .. . ... ... : ... .. . ... ...
ROW DF : ... .. . ... ... ... : ... .. . ... ... ... : ... .. . ... : ... .. . ... : ... .. . ... ... : ... .. . ... ... : ... .. . ... ... : ... .. . ... ...
ROW E0 : ... .. . ... ... ... : A#2 00 A ... ... ... : B-3 00 . P7D : 5-# 00 D ... : ... .. . ... ... : ... .. 6 ... ... : ... .. 6 ... ... : ... .. . ... ...
ROW E1 : ... .. . ... ... ... : ... .. 8 ... ... ... : A#3 00 . P7C : ... .. . ... : ... .. . ... ... : ... .. . ... ... : ... .. . ... ... : ... .. . ... ...
ROW E2 : ... .. . ... ... ... : ... .. . ... ... ... : A-3 00 . P7B : 1-# 00 D ... : ... .. . ... ... : ... .. 5 ... ... : ... .. 5 ... ... : ... .. . ... ...
ROW E3 : ... .. . ... ... ... : ... .. . ... ... ... : G#3 00 . ... : F-# 00 6 ... : ... .. . ... ... : ... .. 4 ... ... : ... .. 4 ... ... : ... .. . ... ...
ROW E4 : ... .. . ... ... ... : ... .. 4 ... ... ... : G-3 00 . P7C : B-# 00 1 ... : ... .. . ... ... : ... .. 2 ... ... : ... .. 2 ... ... : ... .. . ... ...
ROW E5 : ... .. . ... ... ... : ... .. 3 ... ... ... : F#3 00 . P7E : ... .. 0 ... : ... .. . ... ... : ... .. . ... ... : ... .. . ... ... : ... .. . ... ...
ROW E6 : ... .. . ... ... ... : ... .. . ... ... ... : --- .. . ... : ... .. . ... : ... .. . ... ... : ... .. . ... ... : ... .. . ... ... : --- .. . P83 ...
ROW E7 : ... .. . ... ... ... : ... .. . ... ... ... : ... .. . ... : ... .. . ... : ... .. . ... ... : ... .. . ... ... : ... .. . ... ... : ... .. . ... ...
ROW E8 : ... .. . ... ... ... : C#3 00 A ... ... ... : D#2 00 . P80 : E-# 00 A ... : ... .. . ... ... : ... .. 6 ... ... : ... .. 6 ... ... : D#0 01 F P80 ...
ROW E9 : ... .. . ... ... ... : ... .. 8 ... ... ... : ... .. . ... : ... .. 8 ... : ... .. . ... ... : ... .. . ... ... : ... .. . ... ... : ... .. D ... ...
ROW EA : ... .. . ... ... ... : ... .. . ... ... ... : ... .. . ... : ... .. 4 ... : ... .. . ... ... : ... .. 5 ... ... : ... .. 5 ... ... : ... .. 8 ... ...
ROW EB : ... .. . ... ... ... : ... .. . ... ... ... : ... .. . ... : ... .. 2 ... : ... .. . ... ... : ... .. 4 ... ... : ... .. 4 ... ... : ... .. . ... ...
ROW EC : ... .. . ... ... ... : ... .. 4 ... ... ... : ... .. . ... : ... .. 1 ... : ... .. . ... ... : ... .. 2 ... ... : ... .. 2 ... ... : ... .. . ... ...
ROW ED : ... .. . ... ... ... : ... .. 3 ... ... ... : ... .. . ... : ... .. 0 ... : ... .. . ... ... : ... .. . ... ... : ... .. . ... ... : ... .. . ... ...
ROW EE : ... .. . ... ... ... : ... .. . ... ... ... : --- .. . ... : ... .. . ... : ... .. . ... ... : ... .. . ... ... : ... .. . ... ... : --- .. . P83 ...
ROW EF : ... .. . ... ... ... : ... .. . ... ... ... : ... .. . ... : ... .. . ... : ... .. . ... ... : ... .. . ... ... : ... .. . ... ... : ... .. . ... ...
ROW F0 : ... .. . P84 ... ... : D#3 00 A ... ... ... : A#2 00 . ... : ... .. F ... : ... .. . ... ... : ... .. 6 ... ... : ... .. 6 ... ... : A#0 01 F P80 ...
ROW F1 : E-4 00 A P7C ... ... : ... .. 8 ... ... ... : ... .. . ... : ... .. C ... : ... .. . ... ... : ... .. . ... ... : ... .. . ... ... : ... .. D ... ...
ROW F2 : D#4 00 A P85 ... ... : ... .. . ... ... ... : ... .. . ... : ... .. 6 ... : ... .. . ... ... : ... .. 5 ... ... : ... .. 5 ... ... : ... .. 8 ... ...
ROW F3 : ... .. . P82 ... ... : ... .. . ... ... ... : ... .. . ... : ... .. 3 ... : ... .. . ... ... : ... .. 4 ... ... : ... .. 4 ... ... : ... .. . ... ...
ROW F4 : ... .. . P7E ... ... : ... .. 4 ... ... ... : ... .. . ... : ... .. 2 ... : ... .. . ... ... : ... .. 2 ... ... : ... .. 2 ... ... : ... .. . ... ...
ROW F5 : D-4 00 A P85 ... ... : ... .. 3 ... ... ... : ... .. . ... : ... .. 0 ... : ... .. . ... ... : ... .. . ... ... : ... .. . ... ... : ... .. . ... ...
ROW F6 : ... .. . P84 ... ... : ... .. . ... ... ... : --- .. . ... : ... .. . ... : ... .. . ... ... : ... .. . ... ... : ... .. . ... ... : --- .. . P7F ...
ROW F7 : D#4 00 A P7C ... ... : ... .. . ... ... ... : ... .. . ... : ... .. . ... : ... .. . ... ... : ... .. . ... ... : ... .. . ... ... : ... .. . ... ...
ROW F8 : ... .. . P80 ... ... : G-2 00 A ... ... ... : D#3 00 . ... : D-# 00 A ... : ... .. . ... ... : ... .. 6 ... ... : ... .. 6 ... ... : D#1 01 F P80 ...
ROW F9 : ... .. . P83 ... ... : ... .. 8 ... ... ... : ... .. . ... : ... .. . ... : ... .. . ... ... : ... .. . ... ... : ... .. . ... ... : ... .. D ... ...
ROW FA : E-4 00 A P7C ... ... : ... .. . ... ... ... : ... .. . ... : ... .. . ... : ... .. . ... ... : ... .. 5 ... ... : ... .. 5 ... ... : ... .. 8 ... ...
ROW FB : ... .. . ... ... ... : ... .. . ... ... ... : ... .. . ... : ... .. . ... : ... .. . ... ... : ... .. 4 ... ... : ... .. 4 ... ... : ... .. . ... ...
ROW FC : D#4 00 A P82 ... ... : ... .. 4 ... ... ... : ... .. . ... : ... .. . ... : ... .. . ... ... : ... .. 2 ... ... : ... .. 2 ... ... : ... .. . ... ...
ROW FD : ... .. . P7F ... ... : ... .. 3 ... ... ... : ... .. . ... : ... .. . ... : ... .. . ... ... : ... .. . ... ... : ... .. . ... ... : ... .. . ... ...
ROW FE : D-4 00 A P85 ... ... : ... .. . ... ... ... : --- .. . ... : ... .. . ... : ... .. . ... ... : ... .. . ... ... : ... .. . ... ... : --- .. . P81 ...
ROW FF : ... .. . P84 ... ... : ... .. . ... ... ... : ... .. . ... : ... .. . ... : ... .. . ... ... : ... .. . ... ... : ... .. . ... ... : ... .. . ... ...

PATTERN 06
ROW 00 : D#4 00 A P7C ... ... : G#2 00 A ... ... ... : A#2 00 . P82 : 1-# 00 F ... : ... .. . ... ... : G#2 01 6 ... ... : C-4 01 6 ... ... : G#1 01 F P80 ...
ROW 01 : ... .. . P80 ... ... : ... .. 8 ... ... ... : G#2 00 . P8B : ... .. C ... : ... .. . ... ... : ... .. . ... ... : ... .. . ... ... : ... .. D ... ...
ROW 02 : ... .. . P83 ... ... : ... .. . ... ... ... : G-2 00 . P79 : ... .. 6 ... : ... .. . ... ... : ... .. 5 ... ... : ... .. 5 ... ... : ... .. 8 ... ...
ROW 03 : E-4 00 A P7C ... ... : ... .. . ... ... ... : F-2 00 . P8D : ... .. 3 ... : ... .. . ... ... : ... .. 4 ... ... : ... .. 4 ... ... : ... .. . ... ...
ROW 04 : ... .. . ... ... ... : ... .. 4 ... ... ... : E-2 00 . P81 : ... .. 2 ... : ... .. . ... ... : ... .. 2 ... ... : ... .. 2 ... ... : ... .. . ... ...
ROW 05 : D#4 00 A P83 ... ... : ... .. 3 ... ... ... : D#2 00 . P77 : ... .. 0 ... : ... .. . ... ... : ... .. . ... ... : ... .. . ... ... : ... .. . ... ...
ROW 06 : ... .. . P80 ... ... : ... .. . ... ... ... : --- .. . ... : ... .. . ... : ... .. . ... ... : ... .. . ... ... : ... .. . ... ... : --- .. . P7E ...
ROW 07 : ... .. . P7C ... ... : ... .. . ... ... ... : ... .. . ... : ... .. . ... : ... .. . ... ... : ... .. . ... ... : ... .. . ... ... : ... .. . ... ...
ROW 08 : D-4 00 A P84 ... ... : C-3 00 A ... ... ... : G#2 00 . P80 : E-# 00 A ... : ... .. . ... ... : ... .. 6 ... ... : ... .. 6 ... ... : G#0 01 F P80 ...
ROW 09 : ... .. . P85 ... ... : ... .. 8 ... ... ... : ... .. . ... : ... .. 8 ... : ... .. . ... ... : ... .. . ... ... : ... .. . ... ... : ... .. D ... ...
ROW 0A : D#4 00 A P7F ... ... : ... .. . ... ... ... : ... .. . ... : ... .. 4 ... : ... .. . ... ... : ... .. 5 ... ... : ... .. 5 ... ... : ... .. 8 ... ...
ROW 0B : ... .. . P82 ... ... : ... .. . ... ... ... : ... .. . ... : ... .. 2 ... : ... .. . ... ... : ... .. 4 ... ... : ... .. 4 ... ... : ... .. . ... ...
ROW 0C : E-4 00 A P7C ... ... : ... .. 4 ... ... ... : ... .. . ... : ... .. 1 ... : ... .. . ... ... : ... .. 2 ... ... : ... .. 2 ... ... : ... .. . ... ...
ROW 0D : ... .. . ... ... ... : ... .. 3 ... ... ... : ... .. . ... : ... .. 0 ... : ... .. . ... ... : ... .. . ... ... : ... .. . ... ... : ... .. . ... ...
ROW 0E : D#4 00 A P83 ... ... : ... .. . ... ... ... : ... .. . ... : ... .. . ... : ... .. . ... ... : ... .. . ... ... : ... .. . ... ... : ... .. . ... ...
ROW 0F : ... .. . P80 ... ... : ... .. . ... ... ... : ... .. . ... : ... .. . ... : ... .. . ... ... : ... .. . ... ... : ... .. . ... ... : ... .. . ... ...
ROW 10 : ... .. . P7C ... ... : D#3 00 A ... ... ... : ... .. . ... : 6-# 00 D ... : ... .. . ... ... : C-3 01 6 ... ... : D#4 01 6 ... ... : ... .. . ... ...
ROW 11 : D-4 00 A P84 ... ... : ... .. 8 ... ... ... : ... .. . ... : ... .. . ... : ... .. . ... ... : ... .. . ... ... : ... .. . ... ... : ... .. . ... ...
ROW 12 : ... .. . P85 ... ... : ... .. . ... ... ... : ... .. . ... : 2-# 00 D ... : ... .. . ... ... : ... .. 5 ... ... : ... .. 5 ... ... : ... .. . ... ...
ROW 13 : D#4 00 A P7E ... ... : ... .. . ... ... ... : ... .. . ... : 0-# 00 6 ... : ... .. . ... ... : ... .. 4 ... ... : ... .. 4 ... ... : ... .. . ... ...
ROW 14 : ... .. . P82 ... ... : ... .. 4 ... ... ... : ... .. . ... : C-# 00 1 ... : ... .. . ... ... : ... .. 2 ... ... : ... .. 2 ... ... : ... .. . ... ...
ROW 15 : ... .. . P85 ... ... : ... .. 3 ... ... ... : ... .. . ... : ... .. 0 ... : ... .. . ... ... : ... .. . ... ... : ... .. . ... ... : ... .. . ... ...
ROW 16 : E-4 00 A P7C ... ... : ... .. . ... ... ... : --- .. . ... : ... .. . ... : ... .. . ... ... : ... .. . ... ... : ... .. . ... ... : --- .. . P84 ...
ROW 17 : D#4 00 A P84 ... ... : ... .. . ... ... ... : ... .. . ... : ... .. . ... : ... .. . ... ... : ... .. . ... ... : ... .. . ... ... : ... .. . ... ...
ROW 18 : ... .. . P80 ... ... : F#3 00 A ... ... ... : A-4 00 . P7F : 5-# 00 D ... : ... .. . ... ... : ... .. 6 ... ... : ... .. 6 ... ... : G#0 01 F P80 ...
ROW 19 : ... .. . P7D ... ... : ... .. 8 ... ... ... : G-4 00 . P80 : ... .. . ... : ... .. . ... ... : ... .. . ... ... : ... .. . ... ... : ... .. D ... ...
ROW 1A : D-4 00 A P84 ... ... : ... .. . ... ... ... : F-4 00 . P82 : 1-# 00 D ... : ... .. . ... ... : ... .. 5 ... ... : ... .. 5 ... ... : ... .. 8 ... ...
ROW 1B : ... .. . ... ... ... : ... .. . ... ... ... : E-4 00 . P7D : F-# 00 6 ... : ... .. . ... ... : ... .. 4 ... ... : ... .. 4 ... ... : ... .. . ... ...
ROW 1C : D#4 00 A P7E ... ... : ... .. 4 ... ... ... : A-4 00 . P7F : B-# 00 1 ... : ... .. . ... ... : ... .. 2 ... ... : ... .. 2 ... ... : ... .. . ... ...
ROW 1D : ... .. . P81 ... ... : ... .. 3 ... ... ... : G-4 00 . P80 : ... .. 0 ... : ... .. . ... ... : ... .. . ... ... : ... .. . ... ... : ... .. . ... ...
ROW 1E : ... .. . P85 ... ... : ... .. . ... ... ... : F-4 00 . P82 : ... .. . ... : ... .. . ... ... : ... .. . ... ... : ... .. . ... ... : --- .. . P84 ...
ROW 1F : E-4 00 A P7C ... ... : ... .. . ... ... ... : E-4 00 . P7D : ... .. . ... : ... .. . ... ... : ... .. . ... ... : ... .. . ... ... : ... .. . ... ...
ROW 20 : D#4 00 A P84 ... ... : G#3 00 A ... ... ... : A-4 00 . P7F : 5-# 00 D ... : ... .. . ... ... : D#3 01 6 ... ... : F#4 01 6 ... ... : C-1 01 F P80 ...
ROW 21 : ... .. 2 P80 ... ... : ... .. 8 ... ... ... : G-4 00 . P80 : ... .. . ... : ... .. . ... ... : ... .. . ... ... : ... .. . ... ... : ... .. D ... ...
ROW 22 : ... .. . P7D ... ... : ... .. . ... ... ... : F-4 00 . P82 : 1-# 00 D ... : ... .. . ... ... : ... .. 5 ... ... : ... .. 5 ... ... : ... .. 8 ... ...
ROW 23 : D-4 00 2 P84 ... ... : ... .. . ... ... ... : E-4 00 . P7D : F-# 00 6 ... : ... .. . ... ... : ... .. 4 ... ... : ... .. 4 ... ... : ... .. . ... ...
ROW 24 : ... .. 1 ... ... ... : ... .. 4 ... ... ... : D-4 00 . P82 : B-# 00 1 ... : ... .. . ... ... : ... .. 2 ... ... : ... .. 2 ... ... : ... .. . ... ...
ROW 25 : D#4 00 1 P7D ... ... : ... .. 3 ... ... ... : C#4 00 . P7F : ... .. 0 ... : ... .. . ... ... : ... .. . ... ... : ... .. . ... ... : ... .. . ... ...
ROW 26 : ... .. . P80 ... ... : ... .. . ... ... ... : C-4 00 . P7C : ... .. . ... : ... .. . ... ... : ... .. . ... ... : ... .. . ... ... : --- .. . ... ...
ROW 27 : ... .. 0 ... ... ... : ... .. . ... ... ... : A#3 00 . P87 : ... .. . ... : ... .. . ... ... : ... .. . ... ... : ... .. . ... ... : ... .. . ... ...
ROW 28 : G#3 00 F P80 ... ... : C-4 00 A ... ... ... : D-4 00 . P7B : 4-# 00 D ... : ... .. . ... ... : ... .. 6 ... ... : ... .. 6 ... ... : D#1 01 F ... ...
ROW 29 : ... .. E ... ... ... : ... .. 8 ... ... ... : C-4 00 . P84 : ... .. . ... : ... .. . ... ... : ... .. . ... ... : ... .. . ... ... : ... .. D ... ...
ROW 2A : ... .. D ... ... ... : ... .. . ... ... ... : B-3 00 . P81 : 0-# 00 D ... : ... .. . ... ... : ... .. 5 ... ... : ... .. 5 ... ... : ... .. 8 ... ...
ROW 2B : ... .. A ... ... ... : ... .. . ... ... ... : A#3 00 . P80 : E-# 00 6 ... : ... .. . ... ... : ... .. 4 ... ... : ... .. 4 ... ... : ... .. . ... ...
ROW 2C : ... .. . ... ... ... : ... .. 4 ... ... ... : A-3 00 . P7F : A-# 00 1 ... : ... .. . ... ... : ... .. 2 ... ... : ... .. 2 ... ... : ... .. . ... ...
ROW 2D : ... .. 2 ... ... ... : ... .. 3 ... ... ... : G#3 00 . ... : ... .. 0 ... : ... .. . ... ... : ... .. . ... ... : ... .. . ... ... : ... .. . ... ...
ROW 2E : ... .. . ... ... ... : ... .. . ... ... ... : G-3 00 . P80 : ... .. . ... : ... .. . ... ... : ... .. . ... ... : ... .. . ... ... : --- .. . P81 ...
ROW 2F : ... .. . ... ... ... : ... .. . ... ... ... : F#3 00 . P82 : ... .. . ... : ... .. . ... ... : ... .. . ... ... : ... .. . ... ... : ... .. . ... ...
ROW 30 : C#4 00 F ... ... ... : D#4 00 A ... ... ... : A-3 00 . P7F : 3-# 00 D ... : ... .. . ... ... : F#3 01 6 ... ... : G#4 01 6 ... ... : G#1 01 F P80 ...
ROW 31 : ... .. E ... ... ... : ... .. 8 ... ... ... : G#3 00 . ... : ... .. . ... : ... .. . ... ... : ... .. . ... ... : ... .. . ... ... : ... .. D ... ...
ROW 32 : ... .. D ... ... ... : ... .. . ... ... ... : G-3 00 . P80 : F-# 00 D ... : ... .. . ... ... : ... .. 5 ... ... : ... .. 5 ... ... : ... .. 8 ... ...
ROW 33 : ... .. A ... ... ... : ... .. . ... ... ... : F#3 00 . P82 : D-# 00 6 ... : ... .. . ... ... : ... .. 4 ... ... : ... .. 4 ... ... : ... .. . ... ...
ROW 34 : ... .. . ... ... ... : ... .. 4 ... ... ... : F-3 00 . P85 : 9-# 00 1 ... : ... .. . ... ... : ... .. 2 ... ... : ... .. 2 ... ... : ... .. . ... ...
ROW 35 : ... .. . ... ... ... : ... .. 3 ... ... ... : E-3 00 . P89 : ... .. 0 ... : ... .. . ... ... : ... .. . ... ... : ... .. . ... ... : ... .. . ... ...
ROW 36 : ... .. . ... ... ... : ... .. . ... ... ... : ... .. . P7A : ... .. . ... : ... .. . ... ... : ... .. . ... ... : ... .. . ... ... : --- .. . P7E ...
ROW 37 : ... .. . ... ... ... : ... .. . ... ... ... : D#3 00 . P80 : ... .. . ... : ... .. . ... ... : ... .. . ... ... : ... .. . ... ... : ... .. . ... ...
ROW 38 : D#4 00 F ... ... ... : G#4 00 A ... ... ... : D-3 00 . P86 : 1-# 00 D ... : ... .. . ... ... : ... .. 6 ... ... : ... .. 6 ... ... : D#2 01 F P80 ...
ROW 39 : ... .. E ... ... ... : ... .. 8 ... ... ... : ... .. . P77 : ... .. . ... : ... .. . ... ... : ... .. . ... ... : ... .. . ... ... : ... .. D ... ...
ROW 3A : ... .. D ... ... ... : ... .. . ... ... ... : C#3 00 . P7F : D-# 00 D ... : ... .. . ... ... : ... .. 5 ... ... : ... .. 5 ... ... : ... .. 8 ... ...
ROW 3B : ... .. A ... ... ... : ... .. . ... ... ... : C-3 00 . P88 : B-# 00 6 ... : ... .. . ... ... : ... .. 4 ... ... : ... .. 4 ... ... : ... .. . ... ...
ROW 3C : ... .. . ... ... ... : ... .. 4 ... ... ... : ... .. . P79 : 7-# 00 1 ... : ... .. . ... ... : ... .. 2 ... ... : ... .. 2 ... ... : ... .. . ... ...
ROW 3D : ... .. 2 ... ... ... : ... .. 3 ... ... ... : B-2 00 . P83 : ... .. 0 ... : ... .. . ... ... : ... .. . ... ... : ... .. . ... ... : ... .. . ... ...
ROW 3E : ... .. . ... ... ... : ... .. . ... ... ... : ... .. . P74 : ... .. . ... : ... .. . ... ... : ... .. . ... ... : ... .. . ... ... : --- .. . ... ...
ROW 3F : ... .. . ... ... ... : ... .. . ... ... ... : A#2 00 . P80 : ... .. . ... : ... .. . ... ... : ... .. . ... ... : ... .. . ... ... : ... .. . ... ...
ROW 40 : E-4 00 F ... ... ... : E-3 00 7 ... ... ... : G#3 00 . P85 : 1-# 00 F ... : ... .. . ... ... : C#3 01 6 ... ... : E-3 01 6 ... ... : A-1 01 F ... ...
ROW 41 : ... .. E ... ... ... : ... .. A ... ... ... : F-3 00 . P86 : ... .. C ... : ... .. . ... ... : ... .. . ... ... : ... .. . ... ... : ... .. D ... ...
ROW 42 : ... .. D ... ... ... : ... .. 7 ... ... ... : D#3 00 . P7C : ... .. 6 ... : ... .. . ... ... : ... .. 5 ... ... : ... .. 5 ... ... : ... .. 8 ... ...
ROW 43 : ... .. A ... ... ... : ... .. 0 ... ... ... : C#3 00 . P76 : ... .. 3 ... : ... .. . ... ... : ... .. 4 ... ... : ... .. 4 ... ... : ... .. . ... ...
ROW 44 : ... .. . ... ... ... : E-3 00 5 P80 ... ... : B-2 00 . P75 : ... .. 2 ... : ... .. . ... ... : ... .. 1 ... ... : ... .. 1 ... ... : ... .. . ... ...
ROW 45 : ... .. . ... ... ... : ... .. 8 ... ... ... : A-2 00 . P7A : ... .. 0 ... : ... .. . ... ... : ... .. . ... ... : ... .. . ... ... : ... .. . ... ...
ROW 46 : ... .. . ... ... ... : ... .. 0 ... ... ... : G-2 00 . P87 : ... .. . ... : ... .. . ... ... : ... .. . ... ... : ... .. . ... ... : ... .. . ... ...
ROW 47 : ... .. . ... ... ... : ... .. . ... ... ... : --- .. . ... : ... .. . ... : ... .. . ... ... : ... .. . ... ... : ... .. . ... ... : --- .. . P7F ...
ROW 48 : ... .. . ... ... ... : A-2 00 7 P80 ... ... : A-2 00 . P80 : ... .. F ... : ... .. . ... ... : ... .. 3 ... ... : ... .. 3 ... ... : A-0 01 F P80 ...
ROW 49 : ... .. . ... ... ... : ... .. A ... ... ... : ... .. . ... : ... .. C ... : ... .. . ... ... : ... .. . ... ... : ... .. . ... ... : ... .. D ... ...
ROW 4A : ... .. . ... ... ... : ... .. 7 ... ... ... : ... .. . ... : ... .. 6 ... : ... .. . ... ... : ... .. . ... ... : ... .. . ... ... : ... .. 8 ... ...
ROW 4B : ... .. . ... ... ... : ... .. 0 ... ... ... : ... .. . ... : ... .. 3 ... : ... .. . ... ... : ... .. . ... ... : ... .. . ... ... : ... .. . ... ...
ROW 4C : ... .. . ... ... ... : A-2 00 5 P80 ... ... : ... .. . ... : ... .. 2 ... : ... .. . ... ... : ... .. 1 ... ... : ... .. 1 ... ... : ... .. . ... ...
ROW 4D : ... .. . ... ... ... : ... .. 8 ... ... ... : ... .. . ... : ... .. 0 ... : ... .. . ... ... : ... .. . ... ... : ... .. . ... ... : ... .. . ... ...
ROW 4E : ... .. . ... ... ... : ... .. 0 ... ... ... : ... .. . ... : ... .. . ... : ... .. . ... ... : ... .. . ... ... : ... .. . ... ... : ... .. . ... ...
ROW 4F : ... .. . ... ... ... : ... .. . ... ... ... : --- .. . ... : ... .. . ... : ... .. . ... ... : ... .. . ... ... : ... .. . ... ... : --- .. . ... ...
ROW 50 : F#4 00 F ... ... ... : C#3 00 7 P80 ... ... : B-3 00 . P7D : 5-# 00 F ... : ... .. . ... ... : ... .. 3 ... ... : ... .. 3 ... ... : E-1 01 F ... ...
ROW 51 : ... .. E ... ... ... : ... .. A ... ... ... : A#3 00 . P7C : ... .. C ... : ... .. . ... ... : ... .. . ... ... : ... .. . ... ... : ... .. D ... ...
ROW 52 : ... .. D ... ... ... : ... .. 7 ... ... ... : A-3 00 . P7B : ... .. 6 ... : ... .. . ... ... : ... .. . ... ... : ... .. . ... ... : ... .. 8 ... ...
ROW 53 : ... .. A ... ... ... : ... .. 0 ... ... ... : G#3 00 . ... : ... .. 3 ... : ... .. . ... ... : ... .. . ... ... : ... .. . ... ... : ... .. . ... ...
ROW 54 : ... .. . ... ... ... : C#3 00 5 P80 ... ... : G-3 00 . P7C : ... .. 2 ... : ... .. . ... ... : ... .. 1 ... ... : ... .. 1 ... ... : ... .. . ... ...
ROW 55 : ... .. 2 ... ... ... : ... .. 8 ... ... ... : F#3 00 . P7E : ... .. 0 ... : ... .. . ... ... : ... .. . ... ... : ... .. . ... ... : ... .. . ... ...
ROW 56 : ... .. . ... ... ... : ... .. 0 ... ... ... : F-3 00 . P81 : ... .. . ... : ... .. . ... ... : ... .. . ... ... : ... .. . ... ... : ... .. . ... ...
ROW 57 : ... .. . ... ... ... : ... .. . ... ... ... : --- .. . ... : ... .. . ... : ... .. . ... ... : ... .. . ... ... : ... .. . ... ... : --- .. . P82 ...
ROW 58 : D#4 00 F ... ... ... : B-3 00 7 P80 ... ... : A-2 00 . P80 : 1-# 00 F ... : ... .. . ... ... : ... .. 3 ... ... : ... .. 3 ... ... : A-0 01 F P80 ...
ROW 59 : ... .. E ... ... ... : ... .. A ... ... ... : ... .. . ... : ... .. C ... : ... .. . ... ... : ... .. . ... ... : ... .. . ... ... : ... .. D ... ...
ROW 5A : ... .. D ... ... ... : ... .. 7 ... ... ... : ... .. . ... : ... .. 6 ... : ... .. . ... ... : ... .. . ... ... : ... .. . ... ... : ... .. 8 ... ...
ROW 5B : ... .. A ... ... ... : ... .. 0 ... ... ... : ... .. . ... : ... .. 3 ... : ... .. . ... ... : ... .. . ... ... : ... .. . ... ... : ... .. . ... ...
ROW 5C : ... .. . ... ... ... : B-3 00 5 P80 ... ... : ... .. . ... : ... .. 2 ... : ... .. . ... ... : ... .. 1 ... ... : ... .. 1 ... ... : ... .. . ... ...
ROW 5D : ... .. . ... ... ... : ... .. 8 ... ... ... : ... .. . ... : ... .. 0 ... : ... .. . ... ... : ... .. . ... ... : ... .. . ... ... : ... .. . ... ...
ROW 5E : ... .. . ... ... ... : ... .. 0 ... ... ... : ... .. . ... : ... .. . ... : ... .. . ... ... : ... .. . ... ... : ... .. . ... ... : ... .. . ... ...
ROW 5F : ... .. . ... ... ... : ... .. . ... ... ... : ... .. . ... : ... .. . ... : ... .. . ... ... : ... .. . ... ... : ... .. . ... ... : ... .. . ... ...
ROW 60 : ... .. . ... ... ... : G#3 00 7 P80 ... ... : G#3 00 . P85 : C-# 00 8 ... : ... .. . ... ... : ... .. 3 ... ... : ... .. 3 ... ... : ... .. . ... ...
ROW 61 : ... .. 2 ... ... ... : ... .. A ... ... ... : F-3 00 . P86 : ... .. 6 ... : ... .. . ... ... : ... .. . ... ... : ... .. . ... ... : ... .. . ... ...
ROW 62 : ... .. . ... ... ... : ... .. 7 ... ... ... : D#3 00 . P7C : ... .. 3 ... : ... .. . ... ... : ... .. . ... ... : ... .. . ... ... : ... .. . ... ...
ROW 63 : ... .. . ... ... ... : ... .. 0 ... ... ... : C#3 00 . P76 : ... .. 1 ... : ... .. . ... ... : ... .. . ... ... : ... .. . ... ... : ... .. . ... ...
ROW 64 : ... .. 1 ... ... ... : G#3 00 5 P80 ... ... : B-2 00 . P75 : ... .. . ... : ... .. . ... ... : ... .. 2 ... ... : ... .. 2 ... ... : ... .. . ... ...
ROW 65 : ... .. . ... ... ... : ... .. 8 ... ... ... : A-2 00 . P7A : ... .. 0 ... : ... .. . ... ... : ... .. . ... ... : ... .. . ... ... : ... .. . ... ...
ROW 66 : ... .. . ... ... ... : ... .. 0 ... ... ... : G-2 00 . P87 : ... .. . ... : ... .. . ... ... : ... .. . ... ... : ... .. . ... ... : ... .. . ... ...
ROW 67 : ... .. 0 ... ... ... : ... .. . ... ... ... : --- .. . ... : ... .. . ... : ... .. . ... ... : ... .. . ... ... : ... .. . ... ... : --- .. . ... ...
ROW 68 : E-4 00 F P80 ... ... : A-3 00 7 P80 ... ... : G#2 00 . P80 : 1-# 00 F ... : ... .. . ... ... : ... .. 3 ... ... : ... .. 3 ... ... : G#0 01 F ... ...
ROW 69 : ... .. E ... ... ... : ... .. A ... ... ... : ... .. . ... : ... .. C ... : ... .. . ... ... : ... .. . ... ... : ... .. . ... ... : ... .. D ... ...
ROW 6A : ... .. D ... ... ... : ... .. 7 ... ... ... : ... .. . ... : ... .. 6 ... : ... .. . ... ... : ... .. . ... ... : ... .. . ... ... : ... .. 8 ... ...
ROW 6B : ... .. A ... ... ... : ... .. 0 ... ... ... : ... .. . ... : ... .. 3 ... : ... .. . ... ... : ... .. . ... ... : ... .. . ... ... : ... .. . ... ...
ROW 6C : ... .. . ... ... ... : A-3 00 5 P80 ... ... : ... .. . ... : ... .. 2 ... : ... .. . ... ... : ... .. 2 ... ... : ... .. 2 ... ... : ... .. . ... ...
ROW 6D : ... .. . ... ... ... : ... .. 8 ... ... ... : ... .. . ... : ... .. 0 ... : ... .. . ... ... : ... .. . ... ... : ... .. . ... ... : ... .. . ... ...
ROW 6E : ... .. . ... ... ... : ... .. 0 ... ... ... : ... .. . ... : ... .. . ... : ... .. . ... ... : ... .. . ... ... : ... .. . ... ... : ... .. . ... ...
ROW 6F : ... .. . ... ... ... : ... .. . ... ... ... : --- .. . ... : ... .. . ... : ... .. . ... ... : ... .. . ... ... : ... .. . ... ... : --- .. . P84 ...
ROW 70 : ... .. . ... ... ... : E-3 00 7 P80 ... ... : B-3 00 . P7D : 5-# 00 F ... : ... .. . ... ... : ... .. 3 ... ... : ... .. 3 ... ... : A-0 01 F P80 ...
ROW 71 : ... .. 2 ... ... ... : ... .. A ... ... ... : A#3 00 . P7C : ... .. C ... : ... .. . ... ... : ... .. . ... ... : ... .. . ... ... : ... .. D ... ...
ROW 72 : ... .. . ... ... ... : ... .. 7 ... ... ... : A-3 00 . P7B : ... .. 6 ... : ... .. . ... ... : ... .. . ... ... : ... .. . ... ... : ... .. 8 ... ...
ROW 73 : ... .. . ... ... ... : ... .. 0 ... ... ... : G#3 00 . ... : ... .. 3 ... : ... .. . ... ... : ... .. . ... ... : ... .. . ... ... : ... .. . ... ...
ROW 74 : ... .. 1 ... ... ... : E-3 00 5 P80 ... ... : G-3 00 . P7C : ... .. 2 ... : ... .. . ... ... : ... .. 2 ... ... : ... .. 2 ... ... : ... .. . ... ...
ROW 75 : ... .. . ... ... ... : ... .. 8 ... ... ... : F#3 00 . P7E : ... .. 0 ... : ... .. . ... ... : ... .. . ... ... : ... .. . ... ... : ... .. . ... ...
ROW 76 : ... .. . ... ... ... : ... .. 0 ... ... ... : F-3 00 . P81 : ... .. . ... : ... .. . ... ... : ... .. . ... ... : ... .. . ... ... : ... .. . ... ...
ROW 77 : ... .. 0 ... ... ... : ... .. . ... ... ... : --- .. . ... : ... .. . ... : ... .. . ... ... : ... .. . ... ... : ... .. . ... ... : --- .. . ... ...
ROW 78 : C#4 00 F P80 ... ... : D#3 00 7 P80 ... ... : G#3 00 . P80 : 1-# 00 F ... : ... .. . ... ... : ... .. 3 ... ... : ... .. 3 ... ... : G#1 01 F ... ...
ROW 79 : ... .. E ... ... ... : ... .. A ... ... ... : ... .. . ... : ... .. C ... : ... .. . ... ... : ... .. . ... ... : ... .. . ... ... : ... .. D ... ...
ROW 7A : ... .. D ... ... ... : ... .. 7 ... ... ... : ... .. . ... : ... .. 6 ... : ... .. . ... ... : ... .. . ... ... : ... .. . ... ... : ... .. 8 ... ...
ROW 7B : ... .. A ... ... ... : ... .. 0 ... ... ... : ... .. . ... : ... .. 3 ... : ... .. . ... ... : ... .. . ... ... : ... .. . ... ... : ... .. . ... ...
ROW 7C : ... .. . ... ... ... : D#3 00 5 P80 ... ... : ... .. . ... : ... .. 2 ... : ... .. . ... ... : ... .. 2 ... ... : ... .. 2 ... ... : ... .. . ... ...
ROW 7D : ... .. . ... ... ... : ... .. 8 ... ... ... : ... .. . ... : ... .. 0 ... : ... .. . ... ... : ... .. . ... ... : ... .. . ... ... : ... .. . ... ...
ROW 7E : ... .. . ... ... ... : ... .. 0 ... ... ... : ... .. . ... : ... .. . ... : ... .. . ... ... : ... .. . ... ... : ... .. . ... ... : ... .. . ... ...
ROW 7F : ... .. . ... ... ... : ... .. . ... ... ... : --- .. . ... : ... .. . ... : ... .. . ... ... : ... .. . ... ... : ... .. . ... ... : --- .. . P7E ...
ROW 80 : ... .. . ... ... ... : E-3 00 7 P80 ... ... : G#3 00 . P85 : ... .. F ... : ... .. . ... ... : E-3 01 6 ... ... : A-3 01 6 ... ... : A-0 01 F P80 ...
ROW 81 : ... .. . ... ... ... : ... .. A ... ... ... : F-3 00 . P86 : ... .. C ... : ... .. . ... ... : ... .. . ... ... : ... .. . ... ... : ... .. D ... ...
ROW 82 : ... .. . ... ... ... : ... .. 7 ... ... ... : D#3 00 . P7C : ... .. 6 ... : ... .. . ... ... : ... .. 5 ... ... : ... .. 5 ... ... : ... .. 8 ... ...
ROW 83 : ... .. . ... ... ... : ... .. 0 ... ... ... : C#3 00 . P76 : ... .. 3 ... : ... .. . ... ... : ... .. 4 ... ... : ... .. 4 ... ... : ... .. . ... ...
ROW 84 : ... .. . ... ... ... : E-3 00 5 P80 ... ... : B-2 00 . P75 : ... .. 2 ... : ... .. . ... ... : ... .. . ... ... : ... .. . ... ... : ... .. . ... ...
ROW 85 : ... .. . ... ... ... : ... .. 8 ... ... ... : A-2 00 . P7A : ... .. 0 ... : ... .. . ... ... : ... .. . ... ... : ... .. . ... ... : ... .. . ... ...
ROW 86 : ... .. . ... ... ... : ... .. 0 ... ... ... : G-2 00 . P87 : ... .. . ... : ... .. . ... ... : ... .. . ... ... : ... .. . ... ... : ... .. . ... ...
ROW 87 : ... .. . ... ... ... : ... .. . ... ... ... : --- .. . ... : ... .. . ... : ... .. . ... ... : ... .. 3 ... ... : ... .. 3 ... ... : --- .. . ... ...
ROW 88 : C#3 00 F ... ... ... : A-2 00 7 P80 ... ... : A-2 00 . P80 : ... .. F ... : ... .. . ... ... : ... .. . ... ... : ... .. . ... ... : A-0 01 F ... ...
ROW 89 : ... .. E ... ... ... : ... .. A ... ... ... : ... .. . ... : ... .. C ... : ... .. . ... ... : ... .. . ... ... : ... .. . ... ... : ... .. D ... ...
ROW 8A : ... .. D ... ... ... : ... .. 7 ... ... ... : ... .. . ... : ... .. 6 ... : ... .. . ... ... : ... .. . ... ... : ... .. . ... ... : ... .. 8 ... ...
ROW 8B : ... .. A ... ... ... : ... .. 0 ... ... ... : ... .. . ... : ... .. 3 ... : ... .. . ... ... : ... .. . ... ... : ... .. . ... ... : ... .. . ... ...
ROW 8C : ... .. . ... ... ... : A-2 00 5 P80 ... ... : ... .. . ... : ... .. 2 ... : ... .. . ... ... : ... .. . ... ... : ... .. . ... ... : ... .. . ... ...
ROW 8D : ... .. . ... ... ... : ... .. 8 ... ... ... : ... .. . ... : ... .. 0 ... : ... .. . ... ... : ... .. . ... ... : ... .. . ... ... : ... .. . ... ...
ROW 8E : ... .. . ... ... ... : ... .. 0 ... ... ... : ... .. . ... : ... .. . ... : ... .. . ... ... : ... .. . ... ... : ... .. . ... ... : ... .. . ... ...
ROW 8F : ... .. . ... ... ... : ... .. . ... ... ... : --- .. . ... : ... .. . ... : ... .. . ... ... : ... .. . ... ... : ... .. . ... ... : --- .. . ... ...
ROW 90 : ... .. . ... ... ... : C#3 00 7 P80 ... ... : B-3 00 . P7D : 5-# 00 F ... : ... .. . ... ... : ... .. . ... ... : ... .. . ... ... : E-1 01 F ... ...
ROW 91 : ... .. 2 ... ... ... : ... .. A ... ... ... : A#3 00 . P7C : ... .. C ... : ... .. . ... ... : ... .. . ... ... : ... .. . ... ... : ... .. D ... ...
ROW 92 : ... .. . ... ... ... : ... .. 7 ... ... ... : A-3 00 . P7B : ... .. 6 ... : ... .. . ... ... : ... .. . ... ... : ... .. . ... ... : ... .. 8 ... ...
ROW 93 : ... .. . ... ... ... : ... .. 0 ... ... ... : G#3 00 . ... : ... .. 3 ... : ... .. . ... ... : ... .. . ... ... : ... .. . ... ... : ... .. . ... ...
ROW 94 : ... .. 1 ... ... ... : C#3 00 5 P80 ... ... : G-3 00 . P7C : ... .. 2 ... : ... .. . ... ... : ... .. . ... ... : ... .. . ... ... : ... .. . ... ...
ROW 95 : ... .. . ... ... ... : ... .. 8 ... ... ... : F#3 00 . P7E : ... .. 0 ... : ... .. . ... ... : ... .. . ... ... : ... .. . ... ... : ... .. . ... ...
ROW 96 : ... .. . ... ... ... : ... .. 0 ... ... ... : F-3 00 . P81 : ... .. . ... : ... .. . ... ... : ... .. . ... ... : ... .. . ... ... : ... .. . ... ...
ROW 97 : ... .. 0 ... ... ... : ... .. . ... ... ... : --- .. . ... : ... .. . ... : ... .. . ... ... : ... .. . ... ... : ... .. . ... ... : --- .. . P82 ...
ROW 98 : C#3 00 F P80 ... ... : B-3 00 7 P80 ... ... : A-2 00 . P80 : 1-# 00 F ... : ... .. . ... ... : ... .. . ... ... : ... .. . ... ... : A-0 01 F P80 ...
ROW 99 : ... .. E ... ... ... : ... .. A ... ... ... : ... .. . ... : ... .. C ... : ... .. . ... ... : ... .. . ... ... : ... .. . ... ... : ... .. D ... ...
ROW 9A : ... .. D ... ... ... : ... .. 7 ... ... ... : ... .. . ... : ... .. 6 ... : ... .. . ... ... : ... .. . ... ... : ... .. . ... ... : ... .. 8 ... ...
ROW 9B : ... .. A ... ... ... : ... .. 0 ... ... ... : ... .. . ... : ... .. 3 ... : ... .. . ... ... : ... .. . ... ... : ... .. . ... ... : ... .. . ... ...
ROW 9C : ... .. . ... ... ... : B-3 00 5 P80 ... ... : ... .. . ... : ... .. 2 ... : ... .. . ... ... : ... .. . ... ... : ... .. . ... ... : ... .. . ... ...
ROW 9D : ... .. . ... ... ... : ... .. 8 ... ... ... : ... .. . ... : ... .. 0 ... : ... .. . ... ... : ... .. . ... ... : ... .. . ... ... : ... .. . ... ...
ROW 9E : ... .. . ... ... ... : ... .. 0 ... ... ... : ... .. . ... : ... .. . ... : ... .. . ... ... : ... .. . ... ... : ... .. . ... ... : ... .. . ... ...
ROW 9F : ... .. . ... ... ... : ... .. . ... ... ... : --- .. . ... : ... .. . ... : ... .. . ... ... : ... .. . ... ... : ... .. . ... ... : --- .. . ... ...
ROW A0 : ... .. . ... ... ... : G#3 00 7 P80 ... ... : G#3 00 . P85 : C-# 00 8 ... : ... .. . ... ... : D#3 01 6 ... ... : F#3 01 6 ... ... : B-0 01 F ... ...
ROW A1 : ... .. . ... ... ... : ... .. A ... ... ... : F-3 00 . P86 : ... .. 6 ... : ... .. . ... ... : ... .. . ... ... : ... .. . ... ... : ... .. D ... ...
ROW A2 : ... .. . ... ... ... : ... .. 7 ... ... ... : D#3 00 . P7C : ... .. 3 ... : ... .. . ... ... : ... .. 5 ... ... : ... .. 5 ... ... : ... .. 8 ... ...
ROW A3 : ... .. . ... ... ... : ... .. 0 ... ... ... : C#3 00 . P76 : ... .. 1 ... : ... .. . ... ... : ... .. 4 ... ... : ... .. 4 ... ... : ... .. . ... ...
ROW A4 : ... .. . ... ... ... : G#3 00 5 P80 ... ... : B-2 00 . P75 : ... .. . ... : ... .. . ... ... : ... .. . ... ... : ... .. . ... ... : ... .. . ... ...
ROW A5 : ... .. . ... ... ... : ... .. 8 ... ... ... : A-2 00 . P7A : ... .. 0 ... : ... .. . ... ... : ... .. . ... ... : ... .. . ... ... : ... .. . ... ...
ROW A6 : ... .. . ... ... ... : ... .. 0 ... ... ... : G-2 00 . P87 : ... .. . ... : ... .. . ... ... : ... .. . ... ... : ... .. . ... ... : ... .. . ... ...
ROW A7 : ... .. . ... ... ... : ... .. . ... ... ... : --- .. . ... : ... .. . ... : ... .. . ... ... : ... .. 3 ... ... : ... .. 3 ... ... : --- .. . ... ...
ROW A8 : B-2 00 F ... ... ... : A-3 00 7 P80 ... ... : B-2 00 . P80 : 1-# 00 F ... : ... .. . ... ... : ... .. . ... ... : ... .. . ... ... : B-0 01 F ... ...
ROW A9 : ... .. E ... ... ... : ... .. A ... ... ... : ... .. . ... : ... .. C ... : ... .. . ... ... : ... .. . ... ... : ... .. . ... ... : ... .. D ... ...
ROW AA : ... .. D ... ... ... : ... .. 7 ... ... ... : ... .. . ... : ... .. 6 ... : ... .. . ... ... : ... .. . ... ... : ... .. . ... ... : ... .. 8 ... ...
ROW AB : ... .. A ... ... ... : ... .. 0 ... ... ... : ... .. . ... : ... .. 3 ... : ... .. . ... ... : ... .. . ... ... : ... .. . ... ... : ... .. . ... ...
ROW AC : ... .. . ... ... ... : A-3 00 5 P80 ... ... : ... .. . ... : ... .. 2 ... : ... .. . ... ... : ... .. . ... ... : ... .. . ... ... : ... .. . ... ...
ROW AD : ... .. 2 ... ... ... : ... .. 8 ... ... ... : ... .. . ... : ... .. 0 ... : ... .. . ... ... : ... .. . ... ... : ... .. . ... ... : ... .. . ... ...
ROW AE : ... .. . ... ... ... : ... .. 0 ... ... ... : ... .. . ... : ... .. . ... : ... .. . ... ... : ... .. . ... ... : ... .. . ... ... : ... .. . ... ...
ROW AF : ... .. . ... ... ... : ... .. . ... ... ... : --- .. . ... : ... .. . ... : ... .. . ... ... : ... .. . ... ... : ... .. . ... ... : --- .. . ... ...
ROW B0 : C#3 00 F ... ... ... : E-3 00 7 P80 ... ... : B-3 00 . P7D : 5-# 00 F ... : ... .. . ... ... : ... .. . ... ... : ... .. . ... ... : F#1 01 F ... ...
ROW B1 : ... .. E ... ... ... : ... .. A ... ... ... : A#3 00 . P7C : ... .. C ... : ... .. . ... ... : ... .. . ... ... : ... .. . ... ... : ... .. D ... ...
ROW B2 : ... .. D ... ... ... : ... .. 7 ... ... ... : A-3 00 . P7B : ... .. 6 ... : ... .. . ... ... : ... .. . ... ... : ... .. . ... ... : ... .. 8 ... ...
ROW B3 : ... .. A ... ... ... : ... .. 0 ... ... ... : G#3 00 . ... : ... .. 3 ... : ... .. . ... ... : ... .. . ... ... : ... .. . ... ... : ... .. . ... ...
ROW B4 : ... .. . ... ... ... : E-3 00 5 P80 ... ... : G-3 00 . P7C : ... .. 2 ... : ... .. . ... ... : ... .. . ... ... : ... .. . ... ... : ... .. . ... ...
ROW B5 : ... .. 2 ... ... ... : ... .. 8 ... ... ... : F#3 00 . P7E : ... .. 0 ... : ... .. . ... ... : ... .. . ... ... : ... .. . ... ... : ... .. . ... ...
ROW B6 : ... .. . ... ... ... : ... .. 0 ... ... ... : F-3 00 . P81 : ... .. . ... : ... .. . ... ... : ... .. . ... ... : ... .. . ... ... : ... .. . ... ...
ROW B7 : ... .. . ... ... ... : ... .. . ... ... ... : --- .. . ... : ... .. . ... : ... .. . ... ... : ... .. . ... ... : ... .. . ... ... : --- .. . P81 ...
ROW B8 : F#3 00 F ... ... ... : D#3 00 8 P80 ... ... : G#3 00 . P85 : C-# 00 8 ... : ... .. . ... ... : C#4 01 6 ... V00 : D#4 01 6 ... V00 : B-0 01 F P80 ...
ROW B9 : ... .. E ... ... ... : ... .. 7 ... ... ... : F-3 00 . P86 : ... .. 6 ... : ... .. . ... ... : ... .. . ... ... : ... .. . ... ... : ... .. D ... ...
ROW BA : ... .. D ... ... ... : ... .. . ... ... ... : D#3 00 . P7C : ... .. 3 ... : ... .. . ... ... : ... .. . ... ... : ... .. . ... ... : ... .. 8 ... ...
ROW BB : ... .. A ... ... ... : ... .. 6 ... ... ... : C#3 00 . P76 : ... .. 1 ... : ... .. . ... ... : ... .. 5 ... ... : ... .. 5 ... ... : ... .. . ... ...
ROW BC : ... .. . ... ... ... : ... .. 5 ... ... ... : B-2 00 . P75 : ... .. . ... : ... .. . ... ... : ... .. 4 ... ... : ... .. 4 ... ... : ... .. . ... ...
ROW BD : ... .. . ... ... ... : ... .. 4 ... ... ... : A-2 00 . P7A : ... .. 0 ... : ... .. . ... ... : ... .. . ... ... : ... .. . ... ... : ... .. . ... ...
ROW BE : ... .. . ... ... ... : ... .. . ... ... ... : G-2 00 . P87 : ... .. . ... : ... .. . ... ... : ... .. . ... ... : ... .. . ... ... : ... .. . ... ...
ROW BF : ... .. . ... ... ... : ... .. . ... ... ... : F#2 00 . P77 : ... .. . ... : ... .. . ... ... : ... .. . ... ... : ... .. . ... ... : ... .. . ... ...
ROW C0 : ... .. . ... ... ... : ... .. 3 ... ... ... : E-2 00 . P8F : 1-# 00 F ... : ... .. . ... ... : --- .. . ... ... : --- .. . ... ... : ... .. . ... ...
ROW C1 : ... .. 2 ... ... ... : ... .. . ... ... ... : D#2 00 . P85 : ... .. C ... : ... .. . ... ... : ... .. . ... ... : ... .. . ... ... : ... .. . ... ...
ROW C2 : ... .. . ... ... ... : ... .. 2 ... ... ... : D-2 00 . P7E : ... .. 6 ... : ... .. . ... ... : ... .. . ... ... : ... .. . ... ... : ... .. . ... ...
ROW C3 : ... .. . ... ... ... : ... .. . ... ... ... : C#2 00 . P79 : ... .. 3 ... : ... .. . ... ... : ... .. . ... ... : ... .. . ... ... : ... .. . ... ...
ROW C4 : ... .. 1 ... ... ... : ... .. . ... ... ... : C-2 00 . P77 : ... .. 2 ... : ... .. . ... ... : ... .. . ... ... : ... .. . ... ... : ... .. . ... ...
ROW C5 : ... .. . ... ... ... : ... .. 1 ... ... ... : B-1 00 . P78 : ... .. 0 ... : ... .. . ... ... : ... .. . ... ... : ... .. . ... ... : ... .. . ... ...
ROW C6 : ... .. . ... ... ... : ... .. . ... ... ... : A#1 00 . P7C : ... .. . ... : ... .. . ... ... : ... .. . ... ... : ... .. . ... ... : ... .. . ... ...
ROW C7 : ... .. 0 ... ... ... : ... .. . ... ... ... : --- .. . ... : ... .. . ... : ... .. . ... ... : ... .. . ... ... : ... .. . ... ... : --- .. . ... ...
ROW C8 : G#3 00 F P80 ... ... : E-3 00 A ... ... ... : G#3 00 . P85 : ... .. F ... : ... .. . ... ... : C#4 01 6 ... ... : E-4 01 6 ... ... : C#1 01 F ... ...
ROW C9 : ... .. E ... ... ... : ... .. 9 ... ... ... : F-3 00 . P86 : ... .. C ... : ... .. . ... ... : ... .. . ... ... : ... .. . ... ... : ... .. D ... ...
ROW CA : ... .. D ... ... ... : ... .. 8 ... ... ... : D#3 00 . P7C : ... .. 6 ... : ... .. . ... ... : ... .. . ... ... : ... .. . ... ... : ... .. 8 ... ...
ROW CB : ... .. A ... ... ... : ... .. 6 ... ... ... : C#3 00 . P76 : ... .. 3 ... : ... .. . ... ... : ... .. 5 ... ... : ... .. 5 ... ... : ... .. . ... ...
ROW CC : ... .. . ... ... ... : ... .. . ... ... ... : B-2 00 . P75 : ... .. 2 ... : ... .. . ... ... : ... .. 4 ... ... : ... .. 4 ... ... : ... .. . ... ...
ROW CD : ... .. . ... ... ... : ... .. . ... ... ... : A-2 00 . P7A : ... .. 0 ... : ... .. . ... ... : ... .. . ... ... : ... .. . ... ... : ... .. . ... ...
ROW CE : ... .. . ... ... ... : ... .. . ... ... ... : G-2 00 . P87 : ... .. . ... : ... .. . ... ... : ... .. . ... ... : ... .. . ... ... : ... .. . ... ...
ROW CF : ... .. . ... ... ... : ... .. . ... ... ... : F#2 00 . P77 : ... .. . ... : ... .. . ... ... : ... .. . ... ... : ... .. . ... ... : ... .. . ... ...
ROW D0 : ... .. . ... ... ... : ... .. . ... ... ... : E-2 00 . P8F : 5-# 00 F ... : ... .. . ... ... : --- .. . ... ... : --- .. . ... ... : ... .. . ... ...
ROW D1 : ... .. 2 ... ... ... : ... .. 1 ... ... ... : D#2 00 . P85 : ... .. C ... : ... .. . ... ... : ... .. . ... ... : ... .. . ... ... : ... .. . ... ...
ROW D2 : ... .. . ... ... ... : ... .. . ... ... ... : D-2 00 . P7E : ... .. 6 ... : ... .. . ... ... : ... .. . ... ... : ... .. . ... ... : ... .. . ... ...
ROW D3 : ... .. . ... ... ... : ... .. . ... ... ... : C#2 00 . P79 : ... .. 3 ... : ... .. . ... ... : ... .. . ... ... : ... .. . ... ... : ... .. . ... ...
ROW D4 : ... .. 1 ... ... ... : ... .. . ... ... ... : C-2 00 . P77 : ... .. 2 ... : ... .. . ... ... : ... .. . ... ... : ... .. . ... ... : ... .. . ... ...
ROW D5 : ... .. . ... ... ... : ... .. . ... ... ... : B-1 00 . P78 : ... .. 0 ... : ... .. . ... ... : ... .. . ... ... : ... .. . ... ... : ... .. . ... ...
ROW D6 : ... .. . ... ... ... : ... .. . ... ... ... : A#1 00 . P7C : ... .. . ... : ... .. . ... ... : ... .. . ... ... : ... .. . ... ... : ... .. . ... ...
ROW D7 : ... .. 0 ... ... ... : ... .. 0 ... ... ... : A-1 00 . P83 : ... .. . ... : ... .. . ... ... : ... .. . ... ... : ... .. . ... ... : ... .. . ... ...
ROW D8 : C#5 00 F P80 ... ... : E-4 00 A P80 ... ... : A#4 00 . P7E : D-# 00 A ... : ... .. . ... ... : B-3 01 6 ... V05 : E-4 01 6 ... V05 : C#2 01 F ... ...
ROW D9 : ... .. E ... ... ... : ... .. 9 ... ... ... : G#4 00 . ... : ... .. . ... : ... .. . ... ... : ... .. 5 ... ... : ... .. 5 ... ... : ... .. D ... ...
ROW DA : ... .. D ... ... ... : ... .. 8 ... ... ... : F#4 00 . P7F : ... .. . ... : ... .. . ... ... : ... .. . ... ... : ... .. . ... ... : ... .. 8 ... ...
ROW DB : ... .. A ... ... ... : ... .. 6 ... ... ... : E-4 00 . P83 : ... .. . ... : ... .. . ... ... : ... .. . ... ... : ... .. . ... ... : ... .. . ... ...
ROW DC : ... .. . ... ... ... : ... .. . ... ... ... : D#4 00 . P7E : ... .. C ... : ... .. . ... ... : ... .. 4 ... ... : ... .. 4 ... ... : ... .. . ... ...
ROW DD : ... .. . ... ... ... : ... .. . ... ... ... : C#4 00 . P85 : ... .. . ... : ... .. . ... ... : ... .. . ... ... : ... .. . ... ... : ... .. . ... ...
ROW DE : ... .. . ... ... ... : ... .. . ... ... ... : C-4 00 . P82 : ... .. . ... : ... .. . ... ... : ... .. . ... ... : ... .. . ... ... : ... .. . ... ...
ROW DF : ... .. . ... ... ... : ... .. . ... ... ... : B-3 00 . P7F : ... .. . ... : ... .. . ... ... : ... .. . ... ... : ... .. . ... ... : ... .. . ... ...
ROW E0 : ... .. . ... ... ... : ... .. . ... ... ... : A#3 00 . P7E : ... .. A ... : ... .. . ... ... : --- .. . ... ... : --- .. . ... ... : ... .. . P70 ...
ROW E1 : ... .. . ... ... ... : ... .. . ... ... ... : A-3 00 . P7D : ... .. . ... : ... .. . ... ... : ... .. . ... ... : ... .. . ... ... : C-2 01 8 P97 ...
ROW E2 : ... .. . ... ... ... : ... .. . ... ... ... : G#3 00 . ... : ... .. . ... : ... .. . ... ... : ... .. . ... ... : ... .. . ... ... : ... .. . P87 ...
ROW E3 : ... .. . ... ... ... : ... .. . ... ... ... : G-3 00 . P7E : ... .. . ... : ... .. . ... ... : ... .. . ... ... : ... .. . ... ... : ... .. . P77 ...
ROW E4 : ... .. . ... ... ... : ... .. . ... ... ... : F#3 00 . P80 : ... .. 7 ... : ... .. . ... ... : ... .. . ... ... : ... .. . ... ... : ... .. . P67 ...
ROW E5 : ... .. 2 ... ... ... : ... .. 1 ... ... ... : F-3 00 . P83 : ... .. . ... : ... .. . ... ... : ... .. . ... ... : ... .. . ... ... : B-1 01 8 P91 ...
ROW E6 : ... .. . ... ... ... : ... .. . ... ... ... : E-3 00 . P87 : ... .. . ... : ... .. . ... ... : ... .. . ... ... : ... .. . ... ... : ... .. . P81 ...
ROW E7 : ... .. . ... ... ... : ... .. . ... ... ... : ... .. . P78 : ... .. . ... : ... .. . ... ... : ... .. . ... ... : ... .. . ... ... : ... .. . P71 ...
ROW E8 : ... .. 8 ... ... ... : ... .. 8 ... ... ... : F-4 00 . P82 : ... .. 5 ... : ... .. . ... ... : B-3 01 2 ... ... : E-4 01 2 ... ... : A#1 01 8 P9F ...
ROW E9 : ... .. 7 ... ... ... : ... .. 7 ... ... ... : E-4 00 . P7D : ... .. . ... : ... .. . ... ... : ... .. . ... ... : ... .. . ... ... : ... .. . P8F ...
ROW EA : ... .. 6 ... ... ... : ... .. 6 ... ... ... : D-4 00 . P82 : ... .. . ... : ... .. . ... ... : ... .. . ... ... : ... .. . ... ... : ... .. . P7F ...
ROW EB : ... .. 5 ... ... ... : ... .. 5 ... ... ... : C#4 00 . P7F : ... .. . ... : ... .. . ... ... : ... .. . ... ... : ... .. . ... ... : ... .. . P6F ...
ROW EC : ... .. . ... ... ... : ... .. . ... ... ... : C-4 00 . P7C : ... .. 3 ... : ... .. . ... ... : ... .. 1 ... ... : ... .. 1 ... ... : A-1 01 8 PA0 ...
ROW ED : ... .. . ... ... ... : ... .. 1 ... ... ... : A#3 00 . P87 : ... .. . ... : ... .. . ... ... : ... .. . ... ... : ... .. . ... ... : ... .. . P90 ...
ROW EE : ... .. . ... ... ... : ... .. . ... ... ... : A-3 00 . P86 : ... .. . ... : ... .. . ... ... : ... .. . ... ... : ... .. . ... ... : ... .. . P80 ...
ROW EF : ... .. . ... ... ... : ... .. . ... ... ... : G#3 00 . ... : ... .. . ... : ... .. . ... ... : ... .. . ... ... : ... .. . ... ... : --- .. . P7F ...
ROW F0 : C#3 00 F ... ... ... : G#2 00 7 ... ... ... : D#4 00 . P85 : 5-# 00 F ... : ... .. . ... ... : --- .. . ... ... : --- .. . ... ... : C#1 01 F P80 ...
ROW F1 : ... .. E ... ... ... : ... .. A ... ... ... : D-4 00 . P80 : ... .. C ... : ... .. . ... ... : ... .. . ... ... : ... .. . ... ... : ... .. D ... ...
ROW F2 : ... .. D ... ... ... : ... .. 7 ... ... ... : C#4 00 . P7D : ... .. 6 ... : ... .. . ... ... : ... .. . ... ... : ... .. . ... ... : ... .. 8 ... ...
ROW F3 : ... .. A ... ... ... : ... .. 0 ... ... ... : B-3 00 . P86 : ... .. 3 ... : ... .. . ... ... : ... .. . ... ... : ... .. . ... ... : ... .. . ... ...
ROW F4 : ... .. . ... ... ... : G#2 00 5 P80 ... ... : A#3 00 . P85 : ... .. 2 ... : ... .. . ... ... : ... .. . ... ... : ... .. . ... ... : ... .. . ... ...
ROW F5 : ... .. 2 ... ... ... : ... .. 8 ... ... ... : A-3 00 . P84 : ... .. 0 ... : ... .. . ... ... : ... .. . ... ... : ... .. . ... ... : ... .. . ... ...
ROW F6 : ... .. . ... ... ... : ... .. 0 ... ... ... : G#3 00 . ... : ... .. . ... : ... .. . ... ... : ... .. . ... ... : ... .. . ... ... : ... .. . ... ...
ROW F7 : ... .. . ... ... ... : ... .. . ... ... ... : --- .. . ... : ... .. . ... : ... .. . ... ... : ... .. . ... ... : ... .. . ... ... : --- .. . P81 ...
ROW F8 : F#3 00 F ... ... ... : D#3 00 8 P80 ... ... : G#3 00 . P85 : C-# 00 8 ... : ... .. . ... ... : C#4 01 A ... V00 : D#4 01 A ... V00 : B-0 01 F P80 ...
ROW F9 : ... .. E ... ... ... : ... .. 7 ... ... ... : F-3 00 . P86 : ... .. 6 ... : ... .. . ... ... : ... .. 9 ... ... : ... .. 9 ... ... : ... .. D ... ...
ROW FA : ... .. D ... ... ... : ... .. . ... ... ... : D#3 00 . P7C : ... .. 3 ... : ... .. . ... ... : ... .. . ... ... : ... .. . ... ... : ... .. 8 ... ...
ROW FB : ... .. A ... ... ... : ... .. 6 ... ... ... : C#3 00 . P76 : ... .. 1 ... : ... .. . ... ... : ... .. 8 ... ... : ... .. 8 ... ... : ... .. . ... ...
ROW FC : ... .. . ... ... ... : ... .. 5 ... ... ... : B-2 00 . P75 : ... .. . ... : ... .. . ... ... : ... .. 7 ... ... : ... .. 7 ... ... : ... .. . ... ...
ROW FD : ... .. . ... ... ... : ... .. 4 ... ... ... : A-2 00 . P7A : ... .. 0 ... : ... .. . ... ... : ... .. . ... ... : ... .. . ... ... : ... .. . ... ...
ROW FE : ... .. . ... ... ... : ... .. . ... ... ... : G-2 00 . P87 : ... .. . ... : ... .. . ... ... : ... .. 6 ... ... : ... .. 6 ... ... : ... .. . ... ...
ROW FF : ... .. . ... ... ... : ... .. . ... ... ... : F#2 00 . P77 : ... .. . ... : ... .. . ... ... : ... .. . ... ... : ... .. . ... ... : ... .. . ... ...

PATTERN 07
ROW 00 : ... .. . ... ... ... : ... .. 3 ... ... ... : E-2 00 . P8F : 1-# 00 F ... : ... .. . ... ... : --- .. . ... ... : --- .. . ... ... : ... .. . ... ...
ROW 01 : ... .. . ... ... ... : ... .. . ... ... ... : D#2 00 . P85 : ... .. C ... : ... .. . ... ... : ... .. . ... ... : ... .. . ... ... : ... .. . ... ...
ROW 02 : ... .. . ... ... ... : ... .. 2 ... ... ... : D-2 00 . P7E : ... .. 6 ... : ... .. . ... ... : ... .. . ... ... : ... .. . ... ... : ... .. . ... ...
ROW 03 : ... .. . ... ... ... : ... .. . ... ... ... : C#2 00 . P79 : ... .. 3 ... : ... .. . ... ... : ... .. . ... ... : ... .. . ... ... : ... .. . ... ...
ROW 04 : ... .. . ... ... ... : ... .. . ... ... ... : C-2 00 . P77 : ... .. 2 ... : ... .. . ... ... : ... .. . ... ... : ... .. . ... ... : ... .. . ... ...
ROW 05 : ... .. 2 ... ... ... : ... .. 1 ... ... ... : B-1 00 . P78 : ... .. 0 ... : ... .. . ... ... : ... .. . ... ... : ... .. . ... ... : ... .. . ... ...
ROW 06 : ... .. . ... ... ... : ... .. . ... ... ... : A#1 00 . P7C : ... .. . ... : ... .. . ... ... : ... .. . ... ... : ... .. . ... ... : ... .. . ... ...
ROW 07 : ... .. . ... ... ... : ... .. . ... ... ... : --- .. . ... : ... .. . ... : ... .. . ... ... : ... .. . ... ... : ... .. . ... ... : --- .. . ... ...
ROW 08 : G#3 00 F ... ... ... : B-2 00 8 ... ... ... : G#3 00 . P85 : ... .. F ... : ... .. . ... ... : C#4 01 A ... ... : E-4 01 A ... ... : C#1 01 F ... ...
ROW 09 : ... .. E ... ... ... : ... .. 7 ... ... ... : F-3 00 . P86 : ... .. C ... : ... .. . ... ... : ... .. 9 ... ... : ... .. 9 ... ... : ... .. D ... ...
ROW 0A : ... .. D ... ... ... : ... .. . ... ... ... : D#3 00 . P7C : ... .. 6 ... : ... .. . ... ... : ... .. . ... ... : ... .. . ... ... : ... .. 8 ... ...
ROW 0B : ... .. A ... ... ... : ... .. 6 ... ... ... : C#3 00 . P76 : ... .. 3 ... : ... .. . ... ... : ... .. 8 ... ... : ... .. 8 ... ... : ... .. . ... ...
ROW 0C : ... .. . ... ... ... : ... .. 5 ... ... ... : B-2 00 . P75 : ... .. 2 ... : ... .. . ... ... : ... .. 7 ... ... : ... .. 7 ... ... : ... .. . ... ...
ROW 0D : ... .. . ... ... ... : ... .. 4 ... ... ... : A-2 00 . P7A : ... .. 0 ... : ... .. . ... ... : ... .. . ... ... : ... .. . ... ... : ... .. . ... ...
ROW 0E : ... .. . ... ... ... : ... .. . ... ... ... : G-2 00 . P87 : ... .. . ... : ... .. . ... ... : ... .. 6 ... ... : ... .. 6 ... ... : ... .. . ... ...
ROW 0F : ... .. . ... ... ... : ... .. . ... ... ... : F#2 00 . P77 : ... .. . ... : ... .. . ... ... : ... .. . ... ... : ... .. . ... ... : ... .. . ... ...
ROW 10 : ... .. . ... ... ... : ... .. 3 ... ... ... : E-2 00 . P8F : 5-# 00 F ... : ... .. . ... ... : --- .. . ... ... : --- .. . ... ... : ... .. . ... ...
ROW 11 : ... .. . ... ... ... : ... .. . ... ... ... : D#2 00 . P85 : ... .. C ... : ... .. . ... ... : ... .. . ... ... : ... .. . ... ... : ... .. . ... ...
ROW 12 : ... .. . ... ... ... : ... .. 2 ... ... ... : D-2 00 . P7E : ... .. 6 ... : ... .. . ... ... : ... .. . ... ... : ... .. . ... ... : ... .. . ... ...
ROW 13 : ... .. . ... ... ... : ... .. . ... ... ... : C#2 00 . P79 : ... .. 3 ... : ... .. . ... ... : ... .. . ... ... : ... .. . ... ... : ... .. . ... ...
ROW 14 : ... .. . ... ... ... : ... .. . ... ... ... : C-2 00 . P77 : ... .. 2 ... : ... .. . ... ... : ... .. . ... ... : ... .. . ... ... : ... .. . ... ...
ROW 15 : ... .. . ... ... ... : ... .. 1 ... ... ... : B-1 00 . P78 : ... .. 0 ... : ... .. . ... ... : ... .. . ... ... : ... .. . ... ... : ... .. . ... ...
ROW 16 : ... .. . ... ... ... : ... .. . ... ... ... : A#1 00 . P7C : ... .. . ... : ... .. . ... ... : ... .. . ... ... : ... .. . ... ... : ... .. . ... ...
ROW 17 : ... .. . ... ... ... : ... .. . ... ... ... : A-1 00 . P83 : ... .. . ... : ... .. . ... ... : ... .. . ... ... : ... .. . ... ... : ... .. . ... ...
ROW 18 : B-4 00 F ... ... ... : E-4 00 A ... ... ... : A#4 00 . P7E : D-# 00 A ... : ... .. . ... ... : F#3 01 9 ... V05 : D#4 01 9 ... V05 : C#2 01 F ... ...
ROW 19 : ... .. E ... ... ... : ... .. 9 ... ... ... : G#4 00 . ... : ... .. . ... : ... .. . ... ... : ... .. 8 ... ... : ... .. 8 ... ... : ... .. D ... ...
ROW 1A : ... .. D ... ... ... : ... .. 8 ... ... ... : F#4 00 . P7F : ... .. . ... : ... .. . ... ... : ... .. . ... ... : ... .. . ... ... : ... .. 8 ... ...
ROW 1B : ... .. A ... ... ... : ... .. 6 ... ... ... : E-4 00 . P83 : ... .. . ... : ... .. . ... ... : ... .. . ... ... : ... .. . ... ... : ... .. . ... ...
ROW 1C : ... .. . ... ... ... : ... .. . ... ... ... : D#4 00 . P7E : ... .. C ... : ... .. . ... ... : ... .. 7 ... ... : ... .. 7 ... ... : ... .. . ... ...
ROW 1D : ... .. . ... ... ... : ... .. . ... ... ... : C#4 00 . P85 : ... .. . ... : ... .. . ... ... : ... .. . ... ... : ... .. . ... ... : ... .. . ... ...
ROW 1E : ... .. . ... ... ... : ... .. . ... ... ... : C-4 00 . P82 : ... .. . ... : ... .. . ... ... : ... .. . ... ... : ... .. . ... ... : ... .. . ... ...
ROW 1F : ... .. . ... ... ... : ... .. . ... ... ... : B-3 00 . P7F : ... .. . ... : ... .. . ... ... : ... .. 6 ... ... : ... .. 6 ... ... : ... .. . ... ...
ROW 20 : ... .. . ... ... ... : F#2 00 8 ... ... ... : A-3 00 . P7C : ... .. A ... : ... .. . ... ... : --- .. . P7F ... : --- .. . ... ... : ... .. . P70 ...
ROW 21 : ... .. . ... ... ... : ... .. 7 ... ... ... : G-3 00 . ... : ... .. . ... : ... .. . ... ... : ... .. . ... ... : ... .. . ... ... : C-2 01 8 P97 ...
ROW 22 : ... .. . ... ... ... : ... .. . ... ... ... : F-3 00 . P80 : ... .. . ... : ... .. . ... ... : ... .. . ... ... : ... .. . ... ... : ... .. . P87 ...
ROW 23 : ... .. . ... ... ... : ... .. 6 ... ... ... : D#3 00 . P89 : ... .. . ... : ... .. . ... ... : ... .. . ... ... : ... .. . ... ... : ... .. . P77 ...
ROW 24 : ... .. . ... ... ... : G#2 00 8 ... ... ... : D-3 00 . P7F : ... .. 7 ... : ... .. . ... ... : ... .. . ... ... : ... .. . ... ... : ... .. . P67 ...
ROW 25 : ... .. 2 ... ... ... : ... .. 7 ... ... ... : C#3 00 . P77 : ... .. . ... : ... .. . ... ... : ... .. . ... ... : ... .. . ... ... : B-1 01 8 P91 ...
ROW 26 : ... .. . ... ... ... : ... .. . ... ... ... : B-2 00 . P89 : ... .. . ... : ... .. . ... ... : ... .. . ... ... : ... .. . ... ... : ... .. . P81 ...
ROW 27 : ... .. . ... ... ... : ... .. 6 ... ... ... : A#2 00 . P85 : ... .. . ... : ... .. . ... ... : ... .. . ... ... : ... .. . ... ... : ... .. . P71 ...
ROW 28 : ... .. 8 ... ... ... : A-2 00 8 ... ... ... : F-4 00 . P82 : ... .. 5 ... : ... .. . ... ... : F#3 01 2 P80 ... : D#4 01 2 ... ... : A#1 01 8 P9F ...
ROW 29 : ... .. 7 ... ... ... : ... .. 7 ... ... ... : D-4 00 . P81 : ... .. . ... : ... .. . ... ... : ... .. . ... ... : ... .. . ... ... : ... .. . P8F ...
ROW 2A : ... .. 6 ... ... ... : ... .. . ... ... ... : B-3 00 . P86 : ... .. . ... : ... .. . ... ... : ... .. . ... ... : ... .. . ... ... : ... .. . P7F ...
ROW 2B : ... .. 5 ... ... ... : ... .. 6 ... ... ... : A-3 00 . P83 : ... .. . ... : ... .. . ... ... : ... .. . ... ... : ... .. . ... ... : ... .. . P6F ...
ROW 2C : ... .. . ... ... ... : B-2 00 8 ... ... ... : G-3 00 . ... : ... .. 3 ... : ... .. . ... ... : ... .. 1 ... ... : ... .. 1 ... ... : A-1 01 8 PA0 ...
ROW 2D : ... .. . ... ... ... : ... .. 7 ... ... ... : F-3 00 . P87 : ... .. . ... : ... .. . ... ... : ... .. . ... ... : ... .. . ... ... : ... .. . P90 ...
ROW 2E : ... .. . ... ... ... : ... .. . ... ... ... : E-3 00 . P7B : ... .. . ... : ... .. . ... ... : ... .. . ... ... : ... .. . ... ... : ... .. . P80 ...
ROW 2F : ... .. . ... ... ... : ... .. 6 ... ... ... : --- .. . ... : ... .. . ... : ... .. . ... ... : ... .. . ... ... : ... .. . ... ... : --- .. . P7F ...
ROW 30 : C#4 00 F ... ... ... : C#3 00 8 ... ... ... : F-4 00 . P82 : 5-# 00 F ... : ... .. . ... ... : ... .. . ... ... : --- .. . ... ... : F#1 01 F P80 ...
ROW 31 : ... .. E ... ... ... : ... .. 7 ... ... ... : E-4 00 . P7D : ... .. C ... : ... .. . ... ... : ... .. . ... ... : ... .. . ... ... : ... .. D ... ...
ROW 32 : ... .. D ... ... ... : ... .. . ... ... ... : D-4 00 . P82 : ... .. 6 ... : ... .. . ... ... : ... .. . ... ... : ... .. . ... ... : ... .. 8 ... ...
ROW 33 : ... .. A ... ... ... : ... .. 6 ... ... ... : C#4 00 . P7F : ... .. 3 ... : ... .. . ... ... : ... .. . ... ... : ... .. . ... ... : ... .. . ... ...
ROW 34 : ... .. . ... ... ... : D#3 00 8 ... ... ... : C-4 00 . P7C : ... .. 2 ... : ... .. . ... ... : ... .. . ... ... : ... .. . ... ... : ... .. . ... ...
ROW 35 : ... .. . ... ... ... : ... .. 7 ... ... ... : A#3 00 . P87 : ... .. 0 ... : ... .. . ... ... : ... .. . ... ... : ... .. . ... ... : ... .. . ... ...
ROW 36 : ... .. . ... ... ... : ... .. . ... ... ... : A-3 00 . P86 : ... .. . ... : ... .. . ... ... : ... .. . ... ... : ... .. . ... ... : ... .. . ... ...
ROW 37 : ... .. . ... ... ... : ... .. 6 ... ... ... : --- .. . ... : ... .. . ... : ... .. . ... ... : ... .. . ... ... : ... .. . ... ... : --- .. . P81 ...
ROW 38 : D#4 00 F ... ... ... : E-3 00 8 ... ... ... : G#3 00 . P80 : 1-# 00 F ... : ... .. . ... ... : D#3 01 F ... V00 : ... .. . ... ... : G#1 01 F P80 ...
ROW 39 : ... .. E ... ... ... : ... .. 7 ... ... ... : ... .. . ... : ... .. C ... : ... .. . ... ... : ... .. D ... ... : ... .. . ... ... : ... .. D ... ...
ROW 3A : ... .. D ... ... ... : ... .. . ... ... ... : ... .. . ... : ... .. 6 ... : ... .. . ... ... : ... .. 8 ... ... : ... .. . ... ... : ... .. 8 ... ...
ROW 3B : ... .. A ... ... ... : ... .. 6 ... ... ... : ... .. . ... : ... .. 3 ... : ... .. . ... ... : ... .. . ... ... : ... .. . ... ... : ... .. . ... ...
ROW 3C : ... .. . ... ... ... : F#3 00 8 ... ... ... : ... .. . ... : ... .. 2 ... : ... .. . ... ... : ... .. . ... ... : ... .. . ... ... : ... .. . ... ...
ROW 3D : ... .. 2 ... ... ... : ... .. 7 ... ... ... : ... .. . ... : ... .. 0 ... : ... .. . ... ... : ... .. . ... ... : ... .. . ... ... : ... .. . ... ...
ROW 3E : ... .. . ... ... ... : ... .. . ... ... ... : ... .. . ... : ... .. . ... : ... .. . ... ... : ... .. . ... ... : ... .. . ... ... : ... .. . ... ...
ROW 3F : ... .. . ... ... ... : ... .. 6 ... ... ... : --- .. . ... : ... .. . ... : ... .. . ... ... : ... .. . ... ... : ... .. . ... ... : --- .. . P7E ...
ROW 40 : E-4 00 F ... ... ... : G#3 00 8 ... ... ... : G#3 00 . P85 : ... .. F ... : ... .. . ... ... : C#3 01 4 ... V05 : E-3 01 4 ... ... : A-1 01 F P80 ...
ROW 41 : ... .. E ... ... ... : ... .. 7 ... ... ... : F-3 00 . P86 : ... .. C ... : ... .. . ... ... : ... .. . ... ... : ... .. . ... ... : ... .. D ... ...
ROW 42 : ... .. D ... ... ... : ... .. . ... ... ... : D#3 00 . P7C : ... .. 6 ... : ... .. . ... ... : ... .. . ... ... : ... .. . ... ... : ... .. 8 ... ...
ROW 43 : ... .. A ... ... ... : ... .. 6 ... ... ... : C#3 00 . P76 : ... .. 3 ... : ... .. . ... ... : ... .. . ... ... : ... .. . ... ... : ... .. . ... ...
ROW 44 : ... .. . ... ... ... : ... .. 5 ... ... ... : B-2 00 . P75 : ... .. 2 ... : ... .. . ... ... : ... .. 3 ... ... : ... .. 3 ... ... : ... .. . ... ...
ROW 45 : ... .. . ... ... ... : ... .. 4 ... ... ... : A-2 00 . P7A : ... .. 0 ... : ... .. . ... ... : ... .. . ... ... : ... .. . ... ... : ... .. . ... ...
ROW 46 : ... .. . ... ... ... : ... .. . ... ... ... : G-2 00 . P87 : ... .. . ... : ... .. . ... ... : ... .. . ... ... : ... .. . ... ... : ... .. . ... ...
ROW 47 : ... .. . ... ... ... : ... .. . ... ... ... : --- .. . ... : ... .. . ... : ... .. . ... ... : ... .. . ... ... : ... .. . ... ... : --- .. . P7F ...
ROW 48 : ... .. . ... ... ... : C#3 00 7 ... ... ... : A-2 00 . P80 : ... .. F ... : ... .. . ... ... : ... .. . ... ... : ... .. . ... ... : A-0 01 F P80 ...
ROW 49 : ... .. . ... ... ... : ... .. A ... ... ... : ... .. . ... : ... .. C ... : ... .. . ... ... : ... .. . ... ... : ... .. . ... ... : ... .. D ... ...
ROW 4A : ... .. . ... ... ... : ... .. 7 ... ... ... : ... .. . ... : ... .. 6 ... : ... .. . ... ... : ... .. . ... ... : ... .. . ... ... : ... .. 8 ... ...
ROW 4B : ... .. . ... ... ... : ... .. 0 ... ... ... : ... .. . ... : ... .. 3 ... : ... .. . ... ... : ... .. . ... ... : ... .. . ... ... : ... .. . ... ...
ROW 4C : ... .. . ... ... ... : C#3 00 5 P80 ... ... : ... .. . ... : ... .. 2 ... : ... .. . ... ... : ... .. . ... ... : ... .. . ... ... : ... .. . ... ...
ROW 4D : ... .. 2 ... ... ... : ... .. 8 ... ... ... : ... .. . ... : ... .. 0 ... : ... .. . ... ... : ... .. . ... ... : ... .. . ... ... : ... .. . ... ...
ROW 4E : ... .. . ... ... ... : ... .. 0 ... ... ... : ... .. . ... : ... .. . ... : ... .. . ... ... : ... .. . ... ... : ... .. . ... ... : ... .. . ... ...
ROW 4F : ... .. . ... ... ... : ... .. . ... ... ... : --- .. . ... : ... .. . ... : ... .. . ... ... : ... .. . ... ... : ... .. . ... ... : --- .. . ... ...
ROW 50 : F#4 00 F ... ... ... : E-3 00 7 P80 ... ... : B-3 00 . P7D : 5-# 00 F ... : ... .. . ... ... : ... .. . ... ... : ... .. . ... ... : G#0 01 F ... ...
ROW 51 : ... .. E ... ... ... : ... .. A ... ... ... : A#3 00 . P7C : ... .. C ... : ... .. . ... ... : ... .. . ... ... : ... .. . ... ... : ... .. D ... ...
ROW 52 : ... .. D ... ... ... : ... .. 7 ... ... ... : A-3 00 . P7B : ... .. 6 ... : ... .. . ... ... : ... .. . ... ... : ... .. . ... ... : ... .. 8 ... ...
ROW 53 : ... .. A ... ... ... : ... .. 0 ... ... ... : G#3 00 . ... : ... .. 3 ... : ... .. . ... ... : ... .. . ... ... : ... .. . ... ... : ... .. . ... ...
ROW 54 : ... .. . ... ... ... : E-3 00 5 P80 ... ... : G-3 00 . P7C : ... .. 2 ... : ... .. . ... ... : ... .. . ... ... : ... .. . ... ... : ... .. . ... ...
ROW 55 : ... .. 2 ... ... ... : ... .. 8 ... ... ... : F#3 00 . P7E : ... .. 0 ... : ... .. . ... ... : ... .. . ... ... : ... .. . ... ... : ... .. . ... ...
ROW 56 : ... .. . ... ... ... : ... .. 0 ... ... ... : F-3 00 . P81 : ... .. . ... : ... .. . ... ... : ... .. . ... ... : ... .. . ... ... : ... .. . ... ...
ROW 57 : ... .. . ... ... ... : ... .. . ... ... ... : --- .. . ... : ... .. . ... : ... .. . ... ... : ... .. . ... ... : ... .. . ... ... : --- .. . P84 ...
ROW 58 : D#4 00 F ... ... ... : C#4 00 7 P80 ... ... : A-2 00 . P80 : 1-# 00 F ... : ... .. . ... ... : ... .. . ... ... : ... .. . ... ... : A-0 01 F P80 ...
ROW 59 : ... .. E ... ... ... : ... .. A ... ... ... : ... .. . ... : ... .. C ... : ... .. . ... ... : ... .. . ... ... : ... .. . ... ... : ... .. D ... ...
ROW 5A : ... .. D ... ... ... : ... .. 7 ... ... ... : ... .. . ... : ... .. 6 ... : ... .. . ... ... : ... .. . ... ... : ... .. . ... ... : ... .. 8 ... ...
ROW 5B : ... .. A ... ... ... : ... .. 0 ... ... ... : ... .. . ... : ... .. 3 ... : ... .. . ... ... : ... .. . ... ... : ... .. . ... ... : ... .. . ... ...
ROW 5C : ... .. . ... ... ... : C#4 00 5 P80 ... ... : ... .. . ... : ... .. 2 ... : ... .. . ... ... : ... .. . ... ... : ... .. . ... ... : ... .. . ... ...
ROW 5D : ... .. . ... ... ... : ... .. 8 ... ... ... : ... .. . ... : ... .. 0 ... : ... .. . ... ... : ... .. . ... ... : ... .. . ... ... : ... .. . ... ...
ROW 5E : ... .. . ... ... ... : ... .. 0 ... ... ... : ... .. . ... : ... .. . ... : ... .. . ... ... : ... .. . ... ... : ... .. . ... ... : ... .. . ... ...
ROW 5F : ... .. . ... ... ... : ... .. . ... ... ... : ... .. . ... : ... .. . ... : ... .. . ... ... : ... .. . ... ... : ... .. . ... ... : ... .. . ... ...
ROW 60 : ... .. . ... ... ... : C#3 00 7 P80 ... ... : G#3 00 . P85 : C-# 00 8 ... : ... .. . ... ... : A-1 01 6 ... ... : ... .. 4 ... ... : ... .. . ... ...
ROW 61 : ... .. . ... ... ... : ... .. A ... ... ... : F-3 00 . P86 : ... .. 6 ... : ... .. . ... ... : ... .. 5 ... ... : ... .. . ... ... : ... .. . ... ...
ROW 62 : ... .. . ... ... ... : ... .. 7 ... ... ... : D#3 00 . P7C : ... .. 3 ... : ... .. . ... ... : ... .. . ... ... : ... .. . ... ... : ... .. . ... ...
ROW 63 : ... .. . ... ... ... : ... .. 0 ... ... ... : C#3 00 . P76 : ... .. 1 ... : ... .. . ... ... : ... .. . ... ... : ... .. . ... ... : ... .. . ... ...
ROW 64 : ... .. . ... ... ... : C#3 00 5 P80 ... ... : B-2 00 . P75 : ... .. . ... : ... .. . ... ... : ... .. 4 ... ... : ... .. 3 ... ... : ... .. . ... ...
ROW 65 : ... .. 2 ... ... ... : ... .. 8 ... ... ... : A-2 00 . P7A : ... .. 0 ... : ... .. . ... ... : ... .. . ... ... : ... .. . ... ... : ... .. . ... ...
ROW 66 : ... .. . ... ... ... : ... .. 0 ... ... ... : G-2 00 . P87 : ... .. . ... : ... .. . ... ... : ... .. . ... ... : ... .. . ... ... : ... .. . ... ...
ROW 67 : ... .. . ... ... ... : ... .. . ... ... ... : --- .. . ... : ... .. . ... : ... .. . ... ... : ... .. . ... ... : ... .. . ... ... : --- .. . ... ...
ROW 68 : E-4 00 F ... ... ... : D#3 00 7 P80 ... ... : G#3 00 . P80 : 1-# 00 F ... : ... .. . ... ... : ... .. . ... ... : D#3 01 4 ... ... : G#1 01 F ... ...
ROW 69 : ... .. E ... ... ... : ... .. A ... ... ... : ... .. . ... : ... .. C ... : ... .. . ... ... : ... .. . ... ... : ... .. . ... ... : ... .. D ... ...
ROW 6A : ... .. D ... ... ... : ... .. 7 ... ... ... : ... .. . ... : ... .. 6 ... : ... .. . ... ... : ... .. . ... ... : ... .. . ... ... : ... .. 8 ... ...
ROW 6B : ... .. A ... ... ... : ... .. 0 ... ... ... : ... .. . ... : ... .. 3 ... : ... .. . ... ... : ... .. . ... ... : ... .. . ... ... : ... .. . ... ...
ROW 6C : ... .. . ... ... ... : D#3 00 5 P80 ... ... : ... .. . ... : ... .. 2 ... : ... .. . ... ... : ... .. . ... ... : ... .. 3 ... ... : ... .. . ... ...
ROW 6D : ... .. . ... ... ... : ... .. 8 ... ... ... : ... .. . ... : ... .. 0 ... : ... .. . ... ... : ... .. . ... ... : ... .. . ... ... : ... .. . ... ...
ROW 6E : ... .. . ... ... ... : ... .. 0 ... ... ... : ... .. . ... : ... .. . ... : ... .. . ... ... : ... .. . ... ... : ... .. . ... ... : ... .. . ... ...
ROW 6F : ... .. . ... ... ... : ... .. . ... ... ... : --- .. . ... : ... .. . ... : ... .. . ... ... : ... .. . ... ... : ... .. . ... ... : --- .. . P7E ...
ROW 70 : ... .. . ... ... ... : E-3 00 7 P80 ... ... : B-3 00 . P7D : 5-# 00 F ... : ... .. . ... ... : ... .. . ... ... : C#3 01 4 ... ... : E-1 01 F P80 ...
ROW 71 : ... .. . ... ... ... : ... .. A ... ... ... : A#3 00 . P7C : ... .. C ... : ... .. . ... ... : ... .. . ... ... : ... .. . ... ... : ... .. D ... ...
ROW 72 : ... .. . ... ... ... : ... .. 7 ... ... ... : A-3 00 . P7B : ... .. 6 ... : ... .. . ... ... : ... .. . ... ... : ... .. . ... ... : ... .. 8 ... ...
ROW 73 : ... .. . ... ... ... : ... .. 0 ... ... ... : G#3 00 . ... : ... .. 3 ... : ... .. . ... ... : ... .. . ... ... : ... .. . ... ... : ... .. . ... ...
ROW 74 : ... .. . ... ... ... : E-3 00 5 P80 ... ... : G-3 00 . P7C : ... .. 2 ... : ... .. . ... ... : ... .. . ... ... : ... .. 3 ... ... : ... .. . ... ...
ROW 75 : ... .. 2 ... ... ... : ... .. 8 ... ... ... : F#3 00 . P7E : ... .. 0 ... : ... .. . ... ... : ... .. . ... ... : ... .. . ... ... : ... .. . ... ...
ROW 76 : ... .. . ... ... ... : ... .. 0 ... ... ... : F-3 00 . P81 : ... .. . ... : ... .. . ... ... : ... .. . ... ... : ... .. . ... ... : ... .. . ... ...
ROW 77 : ... .. . ... ... ... : ... .. . ... ... ... : --- .. . ... : ... .. . ... : ... .. . ... ... : ... .. . ... ... : ... .. . ... ... : --- .. . P82 ...
ROW 78 : C#4 00 F ... ... ... : D#4 00 7 P80 ... ... : G#2 00 . P80 : 1-# 00 8 ... : ... .. . ... ... : ... .. . ... ... : B-2 01 4 ... ... : G#0 01 F P80 ...
ROW 79 : ... .. E ... ... ... : ... .. A ... ... ... : ... .. . ... : ... .. 6 ... : ... .. . ... ... : ... .. . ... ... : ... .. . ... ... : ... .. D ... ...
ROW 7A : ... .. D ... ... ... : ... .. 7 ... ... ... : ... .. . ... : ... .. 3 ... : ... .. . ... ... : ... .. . ... ... : ... .. . ... ... : ... .. 8 ... ...
ROW 7B : ... .. A ... ... ... : ... .. 0 ... ... ... : ... .. . ... : ... .. 1 ... : ... .. . ... ... : ... .. . ... ... : ... .. . ... ... : ... .. . ... ...
ROW 7C : ... .. . ... ... ... : D#4 00 5 P80 ... ... : ... .. . ... : ... .. . ... : ... .. . ... ... : ... .. . ... ... : ... .. 3 ... ... : ... .. . ... ...
ROW 7D : ... .. . ... ... ... : ... .. 8 ... ... ... : ... .. . ... : ... .. 0 ... : ... .. . ... ... : ... .. . ... ... : ... .. . ... ... : ... .. . ... ...
ROW 7E : ... .. . ... ... ... : ... .. 0 ... ... ... : ... .. . ... : ... .. . ... : ... .. . ... ... : ... .. . ... ... : ... .. . ... ... : ... .. . ... ...
ROW 7F : ... .. . ... ... ... : ... .. . ... ... ... : --- .. . ... : ... .. . ... : ... .. . ... ... : ... .. . ... ... : ... .. . ... ... : --- .. . P84 ...
ROW 80 : ... .. . ... ... ... : E-3 00 7 P80 ... ... : G#3 00 . P85 : ... .. F ... : ... .. . ... ... : ... .. . ... ... : C#3 01 4 ... ... : A-0 01 F P80 ...
ROW 81 : ... .. . ... ... ... : ... .. A ... ... ... : F-3 00 . P86 : ... .. C ... : ... .. . ... ... : ... .. . ... ... : ... .. . ... ... : ... .. D ... ...
ROW 82 : ... .. . ... ... ... : ... .. 7 ... ... ... : D#3 00 . P7C : ... .. 6 ... : ... .. . ... ... : ... .. . ... ... : ... .. . ... ... : ... .. 8 ... ...
ROW 83 : ... .. . ... ... ... : ... .. 0 ... ... ... : C#3 00 . P76 : ... .. 3 ... : ... .. . ... ... : ... .. . ... ... : ... .. . ... ... : ... .. . ... ...
ROW 84 : ... .. . ... ... ... : E-3 00 5 P80 ... ... : B-2 00 . P75 : ... .. 2 ... : ... .. . ... ... : ... .. . ... ... : ... .. 3 ... ... : ... .. . ... ...
ROW 85 : ... .. 2 ... ... ... : ... .. 8 ... ... ... : A-2 00 . P7A : ... .. 0 ... : ... .. . ... ... : ... .. . ... ... : ... .. . ... ... : ... .. . ... ...
ROW 86 : ... .. . ... ... ... : ... .. 0 ... ... ... : G-2 00 . P87 : ... .. . ... : ... .. . ... ... : ... .. . ... ... : ... .. . ... ... : ... .. . ... ...
ROW 87 : ... .. . ... ... ... : ... .. . ... ... ... : --- .. . ... : ... .. . ... : ... .. . ... ... : ... .. . ... ... : ... .. . ... ... : --- .. . ... ...
ROW 88 : B-3 00 F ... ... ... : C#3 00 7 P80 ... ... : A-2 00 . P80 : ... .. F ... : ... .. . ... ... : ... .. . ... ... : ... .. . ... ... : A-0 01 F ... ...
ROW 89 : ... .. E ... ... ... : ... .. A ... ... ... : ... .. . ... : ... .. C ... : ... .. . ... ... : ... .. . ... ... : ... .. . ... ... : ... .. D ... ...
ROW 8A : ... .. D ... ... ... : ... .. 7 ... ... ... : ... .. . ... : ... .. 6 ... : ... .. . ... ... : ... .. . ... ... : ... .. . ... ... : ... .. 8 ... ...
ROW 8B : ... .. A ... ... ... : ... .. 0 ... ... ... : ... .. . ... : ... .. 3 ... : ... .. . ... ... : ... .. . ... ... : ... .. . ... ... : ... .. . ... ...
ROW 8C : ... .. . ... ... ... : C#3 00 5 P80 ... ... : ... .. . ... : ... .. 2 ... : ... .. . ... ... : ... .. . ... ... : ... .. . ... ... : ... .. . ... ...
ROW 8D : ... .. . ... ... ... : ... .. 8 ... ... ... : ... .. . ... : ... .. 0 ... : ... .. . ... ... : ... .. . ... ... : ... .. . ... ... : ... .. . ... ...
ROW 8E : ... .. . ... ... ... : ... .. 0 ... ... ... : ... .. . ... : ... .. . ... : ... .. . ... ... : ... .. . ... ... : ... .. . ... ... : ... .. . ... ...
ROW 8F : ... .. . ... ... ... : ... .. . ... ... ... : --- .. . ... : ... .. . ... : ... .. . ... ... : ... .. . ... ... : ... .. . ... ... : --- .. . ... ...
ROW 90 : ... .. . ... ... ... : D#3 00 7 P80 ... ... : B-3 00 . P7D : 5-# 00 F ... : ... .. . ... ... : ... .. . ... ... : B-2 01 4 ... ... : G#0 01 F ... ...
ROW 91 : ... .. . ... ... ... : ... .. A ... ... ... : A#3 00 . P7C : ... .. C ... : ... .. . ... ... : ... .. . ... ... : ... .. . ... ... : ... .. D ... ...
ROW 92 : ... .. . ... ... ... : ... .. 7 ... ... ... : A-3 00 . P7B : ... .. 6 ... : ... .. . ... ... : ... .. . ... ... : ... .. . ... ... : ... .. 8 ... ...
ROW 93 : ... .. . ... ... ... : ... .. 0 ... ... ... : G#3 00 . ... : ... .. 3 ... : ... .. . ... ... : ... .. . ... ... : ... .. . ... ... : ... .. . ... ...
ROW 94 : ... .. . ... ... ... : D#3 00 5 P80 ... ... : G-3 00 . P7C : ... .. 2 ... : ... .. . ... ... : ... .. . ... ... : ... .. 3 ... ... : ... .. . ... ...
ROW 95 : ... .. 2 ... ... ... : ... .. 8 ... ... ... : F#3 00 . P7E : ... .. 0 ... : ... .. . ... ... : ... .. . ... ... : ... .. . ... ... : ... .. . ... ...
ROW 96 : ... .. . ... ... ... : ... .. 0 ... ... ... : F-3 00 . P81 : ... .. . ... : ... .. . ... ... : ... .. . ... ... : ... .. . ... ... : ... .. . ... ...
ROW 97 : ... .. . ... ... ... : ... .. . ... ... ... : --- .. . ... : ... .. . ... : ... .. . ... ... : ... .. . ... ... : ... .. . ... ... : --- .. . P84 ...
ROW 98 : C#4 00 F ... ... ... : B-3 00 7 P80 ... ... : A-2 00 . P80 : 1-# 00 F ... : ... .. . ... ... : ... .. . ... ... : ... .. . ... ... : A-0 01 F P80 ...
ROW 99 : ... .. E ... ... ... : ... .. A ... ... ... : ... .. . ... : ... .. C ... : ... .. . ... ... : ... .. . ... ... : ... .. . ... ... : ... .. D ... ...
ROW 9A : ... .. D ... ... ... : ... .. 7 ... ... ... : ... .. . ... : ... .. 6 ... : ... .. . ... ... : ... .. . ... ... : ... .. . ... ... : ... .. 8 ... ...
ROW 9B : ... .. A ... ... ... : ... .. 0 ... ... ... : ... .. . ... : ... .. 3 ... : ... .. . ... ... : ... .. . ... ... : ... .. . ... ... : ... .. . ... ...
ROW 9C : ... .. . ... ... ... : B-3 00 5 P80 ... ... : ... .. . ... : ... .. 2 ... : ... .. . ... ... : ... .. . ... ... : ... .. . ... ... : ... .. . ... ...
ROW 9D : ... .. . ... ... ... : ... .. 8 ... ... ... : ... .. . ... : ... .. 0 ... : ... .. . ... ... : ... .. . ... ... : ... .. . ... ... : ... .. . ... ...
ROW 9E : ... .. . ... ... ... : ... .. 0 ... ... ... : ... .. . ... : ... .. . ... : ... .. . ... ... : ... .. . ... ... : ... .. . ... ... : ... .. . ... ...
ROW 9F : ... .. . ... ... ... : ... .. . ... ... ... : ... .. . ... : ... .. . ... : ... .. . ... ... : ... .. . ... ... : ... .. . ... ... : ... .. . ... ...
ROW A0 : ... .. . ... ... ... : D#3 00 7 P80 ... ... : G#3 00 . P85 : C-# 00 8 ... : ... .. . ... ... : B-1 01 6 ... ... : F#2 01 4 ... ... : ... .. . ... ...
ROW A1 : ... .. . ... ... ... : ... .. A ... ... ... : F-3 00 . P86 : ... .. 6 ... : ... .. . ... ... : ... .. 5 ... ... : ... .. . ... ... : ... .. . ... ...
ROW A2 : ... .. . ... ... ... : ... .. 7 ... ... ... : D#3 00 . P7C : ... .. 3 ... : ... .. . ... ... : ... .. . ... ... : ... .. . ... ... : ... .. . ... ...
ROW A3 : ... .. . ... ... ... : ... .. 0 ... ... ... : C#3 00 . P76 : ... .. 1 ... : ... .. . ... ... : ... .. . ... ... : ... .. . ... ... : ... .. . ... ...
ROW A4 : ... .. . ... ... ... : D#3 00 5 P80 ... ... : B-2 00 . P75 : ... .. . ... : ... .. . ... ... : ... .. 4 ... ... : ... .. 3 ... ... : ... .. . ... ...
ROW A5 : ... .. 2 ... ... ... : ... .. 8 ... ... ... : A-2 00 . P7A : ... .. 0 ... : ... .. . ... ... : ... .. . ... ... : ... .. . ... ... : ... .. . ... ...
ROW A6 : ... .. . ... ... ... : ... .. 0 ... ... ... : G-2 00 . P87 : ... .. . ... : ... .. . ... ... : ... .. . ... ... : ... .. . ... ... : ... .. . ... ...
ROW A7 : ... .. . ... ... ... : ... .. . ... ... ... : F#2 00 . P77 : ... .. . ... : ... .. . ... ... : ... .. . ... ... : ... .. . ... ... : ... .. . ... ...
ROW A8 : ... .. 1 ... ... ... : E-3 00 7 P80 ... ... : E-2 00 . P8F : 1-# 00 F ... : ... .. . ... ... : G#1 01 6 ... ... : E-2 01 4 ... ... : ... .. . ... ...
ROW A9 : ... .. . ... ... ... : ... .. A ... ... ... : D#2 00 . P85 : ... .. C ... : ... .. . ... ... : ... .. 5 ... ... : ... .. . ... ... : ... .. . ... ...
ROW AA : ... .. . ... ... ... : ... .. 7 ... ... ... : D-2 00 . P7E : ... .. 6 ... : ... .. . ... ... : ... .. . ... ... : ... .. . ... ... : ... .. . ... ...
ROW AB : ... .. 0 ... ... ... : ... .. 0 ... ... ... : C#2 00 . P79 : ... .. 3 ... : ... .. . ... ... : ... .. . ... ... : ... .. . ... ... : ... .. . ... ...
ROW AC : ... .. . ... ... ... : E-3 00 5 P80 ... ... : C-2 00 . P77 : ... .. 2 ... : ... .. . ... ... : ... .. 4 ... ... : ... .. 3 ... ... : ... .. . ... ...
ROW AD : ... .. . ... ... ... : ... .. 8 ... ... ... : B-1 00 . P78 : ... .. 0 ... : ... .. . ... ... : ... .. . ... ... : ... .. . ... ... : ... .. . ... ...
ROW AE : ... .. . ... ... ... : ... .. 0 ... ... ... : A#1 00 . P7C : ... .. . ... : ... .. . ... ... : ... .. . ... ... : ... .. . ... ... : ... .. . ... ...
ROW AF : ... .. . ... ... ... : ... .. . ... ... ... : --- .. . ... : ... .. . ... : ... .. . ... ... : ... .. . ... ... : ... .. . ... ... : --- .. . ... ...
ROW B0 : F#3 00 F P80 ... ... : F#3 00 7 P80 ... ... : B-3 00 . P7D : 5-# 00 F ... : ... .. . ... ... : B-1 01 6 ... ... : D#2 01 4 ... ... : B-0 01 F ... ...
ROW B1 : ... .. E ... ... ... : ... .. A ... ... ... : A#3 00 . P7C : ... .. C ... : ... .. . ... ... : ... .. 5 ... ... : ... .. . ... ... : ... .. D ... ...
ROW B2 : ... .. D ... ... ... : ... .. 7 ... ... ... : A-3 00 . P7B : ... .. 6 ... : ... .. . ... ... : ... .. . ... ... : ... .. . ... ... : ... .. 8 ... ...
ROW B3 : ... .. A ... ... ... : ... .. 0 ... ... ... : G#3 00 . ... : ... .. 3 ... : ... .. . ... ... : ... .. . ... ... : ... .. . ... ... : ... .. . ... ...
ROW B4 : ... .. . ... ... ... : F#3 00 5 P80 ... ... : G-3 00 . P7C : ... .. 2 ... : ... .. . ... ... : ... .. 4 ... ... : ... .. 3 ... ... : ... .. . ... ...
ROW B5 : ... .. . ... ... ... : ... .. 8 ... ... ... : F#3 00 . P7E : ... .. 0 ... : ... .. . ... ... : ... .. . ... ... : ... .. . ... ... : ... .. . ... ...
ROW B6 : ... .. . ... ... ... : ... .. 0 ... ... ... : F-3 00 . P81 : ... .. . ... : ... .. . ... ... : ... .. . ... ... : ... .. . ... ... : ... .. . ... ...
ROW B7 : ... .. . ... ... ... : ... .. . ... ... ... : --- .. . ... : ... .. . ... : ... .. . ... ... : ... .. . ... ... : ... .. . ... ... : --- .. . ... ...
ROW B8 : E-3 00 F ... ... ... : B-3 00 A P80 ... ... : C#3 00 . P80 : C-# 00 8 ... : ... .. . ... ... : C#1 01 6 ... ... : C#2 01 4 ... ... : C#1 01 F ... ...
ROW B9 : ... .. E ... ... ... : ... .. 9 ... ... ... : ... .. . ... : ... .. 6 ... : ... .. . ... ... : ... .. 5 ... ... : ... .. . ... ... : ... .. D ... ...
ROW BA : ... .. D ... ... ... : ... .. 8 ... ... ... : ... .. . ... : ... .. 3 ... : ... .. . ... ... : ... .. . ... ... : ... .. . ... ... : ... .. 8 ... ...
ROW BB : ... .. A ... ... ... : ... .. 6 ... ... ... : ... .. . ... : ... .. 1 ... : ... .. . ... ... : ... .. . ... ... : ... .. . ... ... : ... .. . ... ...
ROW BC : ... .. . ... ... ... : ... .. . ... ... ... : ... .. . ... : ... .. . ... : ... .. . ... ... : ... .. 4 ... ... : ... .. 3 ... ... : ... .. . ... ...
ROW BD : ... .. . ... ... ... : ... .. . ... ... ... : ... .. . ... : ... .. 0 ... : ... .. . ... ... : ... .. . ... ... : ... .. . ... ... : ... .. . ... ...
ROW BE : ... .. . ... ... ... : ... .. . ... ... ... : ... .. . ... : ... .. . ... : ... .. . ... ... : ... .. . ... ... : ... .. . ... ... : ... .. . ... ...
ROW BF : ... .. . ... ... ... : ... .. . ... ... ... : ... .. . ... : ... .. . ... : ... .. . ... ... : ... .. . ... ... : ... .. . ... ... : ... .. . ... ...
ROW C0 : ... .. . ... ... ... : C-4 00 6 P7C ... ... : G#3 00 . P85 : 1-# 00 F ... : ... .. . ... ... : ... .. . ... ... : ... .. . ... ... : ... .. . ... ...
ROW C1 : ... .. . ... ... ... : ... .. . P81 ... ... : F-3 00 . P86 : ... .. C ... : ... .. . ... ... : ... .. . ... ... : ... .. . ... ... : ... .. . ... ...
ROW C2 : ... .. . ... ... ... : ... .. . P7F ... ... : D#3 00 . P7C : ... .. 6 ... : ... .. . ... ... : ... .. . ... ... : ... .. . ... ... : ... .. . ... ...
ROW C3 : ... .. . ... ... ... : B-3 00 6 P84 ... ... : C#3 00 . P76 : ... .. 3 ... : ... .. . ... ... : ... .. . ... ... : ... .. . ... ... : ... .. . ... ...
ROW C4 : ... .. . ... ... ... : ... .. . P7C ... ... : B-2 00 . P75 : ... .. 2 ... : ... .. . ... ... : ... .. . ... ... : ... .. . ... ... : ... .. . ... ...
ROW C5 : ... .. . ... ... ... : A#3 00 6 P83 ... ... : A-2 00 . P7A : ... .. 0 ... : ... .. . ... ... : ... .. . ... ... : ... .. . ... ... : ... .. . ... ...
ROW C6 : ... .. . ... ... ... : ... .. . P81 ... ... : G-2 00 . P87 : ... .. . ... : ... .. . ... ... : ... .. . ... ... : ... .. . ... ... : ... .. . ... ...
ROW C7 : ... .. . ... ... ... : ... .. . P86 ... ... : --- .. . ... : ... .. . ... : ... .. . ... ... : ... .. . ... ... : ... .. . ... ... : --- .. . P81 ...
ROW C8 : C#4 00 F ... ... ... : F#4 00 A P80 ... ... : C#2 00 . P80 : ... .. F ... : ... .. . ... ... : B-3 01 4 ... ... : B-2 01 4 ... ... : D#0 01 F P80 ...
ROW C9 : ... .. E ... ... ... : ... .. 9 ... ... ... : ... .. . ... : ... .. C ... : ... .. . ... ... : ... .. . ... ... : ... .. . ... ... : ... .. D ... ...
ROW CA : ... .. D ... ... ... : ... .. 8 ... ... ... : ... .. . ... : ... .. 6 ... : ... .. . ... ... : ... .. . ... ... : ... .. . ... ... : ... .. 8 ... ...
ROW CB : ... .. A ... ... ... : ... .. 6 ... ... ... : ... .. . ... : ... .. 3 ... : ... .. . ... ... : ... .. . ... ... : ... .. . ... ... : ... .. . ... ...
ROW CC : ... .. . ... ... ... : ... .. . ... ... ... : ... .. . ... : ... .. 2 ... : ... .. . ... ... : C#4 01 4 ... ... : C#3 01 4 ... ... : ... .. . ... ...
ROW CD : D-4 00 A P7D ... ... : ... .. . ... ... ... : ... .. . ... : ... .. 0 ... : ... .. . ... ... : ... .. . ... ... : ... .. . ... ... : ... .. . ... ...
ROW CE : D#4 00 A P7C ... ... : ... .. . ... ... ... : ... .. . ... : ... .. . ... : ... .. . ... ... : ... .. . ... ... : ... .. . ... ... : ... .. . ... ...
ROW CF : ... .. . P80 ... ... : ... .. . ... ... ... : --- .. . ... : ... .. . ... : ... .. . ... ... : ... .. . ... ... : ... .. . ... ... : --- .. . P83 ...
ROW D0 : ... .. . ... ... ... : B-2 00 7 ... ... ... : B-3 00 . P7D : 5-# 00 F ... : ... .. . ... ... : D#4 01 4 ... ... : D#3 01 4 ... ... : D#0 01 F P80 ...
ROW D1 : ... .. . ... ... ... : ... .. A ... ... ... : A#3 00 . P7C : ... .. C ... : ... .. . ... ... : ... .. . ... ... : ... .. . ... ... : ... .. D ... ...
ROW D2 : ... .. . ... ... ... : ... .. 7 ... ... ... : A-3 00 . P7B : ... .. 6 ... : ... .. . ... ... : ... .. . ... ... : ... .. . ... ... : ... .. 8 ... ...
ROW D3 : ... .. . ... ... ... : ... .. 0 ... ... ... : G#3 00 . ... : ... .. 3 ... : ... .. . ... ... : ... .. . ... ... : ... .. . ... ... : ... .. . ... ...
ROW D4 : ... .. . ... ... ... : B-2 00 5 P80 ... ... : G-3 00 . P7C : ... .. 2 ... : ... .. . ... ... : E-4 01 4 ... ... : E-3 01 4 ... ... : ... .. . ... ...
ROW D5 : ... .. . ... ... ... : ... .. 8 ... ... ... : F#3 00 . P7E : ... .. 0 ... : ... .. . ... ... : ... .. . ... ... : ... .. . ... ... : ... .. . ... ...
ROW D6 : ... .. . ... ... ... : ... .. 0 ... ... ... : F-3 00 . P81 : ... .. . ... : ... .. . ... ... : ... .. . ... ... : ... .. . ... ... : ... .. . ... ...
ROW D7 : ... .. . ... ... ... : ... .. . ... ... ... : --- .. . ... : ... .. . ... : ... .. . ... ... : ... .. . ... ... : ... .. . ... ... : --- .. . P83 ...
ROW D8 : B-3 00 F ... ... ... : D#4 00 A P80 ... ... : D#2 00 . P80 : 1-# 00 F ... : ... .. . ... ... : F#4 01 4 ... ... : F#3 01 4 ... ... : D#0 01 F P80 ...
ROW D9 : ... .. E ... ... ... : ... .. 9 ... ... ... : ... .. . ... : ... .. C ... : ... .. . ... ... : ... .. . ... ... : ... .. . ... ... : ... .. D ... ...
ROW DA : ... .. D ... ... ... : ... .. 8 ... ... ... : ... .. . ... : ... .. 6 ... : ... .. . ... ... : ... .. . ... ... : ... .. . ... ... : ... .. 8 ... ...
ROW DB : ... .. A ... ... ... : ... .. 6 ... ... ... : ... .. . ... : ... .. 3 ... : ... .. . ... ... : ... .. . ... ... : ... .. . ... ... : ... .. . ... ...
ROW DC : ... .. . ... ... ... : ... .. . ... ... ... : ... .. . ... : ... .. 2 ... : ... .. . ... ... : G#4 01 4 ... ... : G#3 01 4 ... ... : ... .. . ... ...
ROW DD : ... .. . ... ... ... : ... .. . ... ... ... : ... .. . ... : ... .. 0 ... : ... .. . ... ... : ... .. . ... ... : ... .. . ... ... : ... .. . ... ...
ROW DE : ... .. . ... ... ... : ... .. . ... ... ... : ... .. . ... : ... .. . ... : ... .. . ... ... : ... .. . ... ... : ... .. . ... ... : ... .. . ... ...
ROW DF : ... .. . ... ... ... : ... .. . ... ... ... : --- .. . ... : ... .. . ... : ... .. . ... ... : ... .. . ... ... : ... .. . ... ... : --- .. . P83 ...
ROW E0 : ... .. . ... ... ... : ... .. . ... ... ... : G#3 00 . P85 : C-# 00 8 ... : ... .. . ... ... : D#4 01 4 ... ... : D#3 01 4 ... ... : E-0 01 F P80 ...
ROW E1 : ... .. . ... ... ... : ... .. . ... ... ... : F-3 00 . P86 : ... .. 6 ... : ... .. . ... ... : ... .. . ... ... : ... .. . ... ... : ... .. D ... ...
ROW E2 : ... .. . ... ... ... : ... .. . ... ... ... : D#3 00 . P7C : ... .. 3 ... : ... .. . ... ... : ... .. . ... ... : ... .. . ... ... : ... .. 8 ... ...
ROW E3 : ... .. . ... ... ... : ... .. . ... ... ... : C#3 00 . P76 : ... .. 1 ... : ... .. . ... ... : ... .. . ... ... : ... .. . ... ... : ... .. . ... ...
ROW E4 : ... .. . P84 ... ... : ... .. 5 P84 ... ... : B-2 00 . P75 : ... .. . ... : ... .. . ... ... : E-4 01 4 ... ... : E-3 01 4 ... ... : ... .. . ... ...
ROW E5 : ... .. . P86 ... ... : E-4 00 5 P7C ... ... : A-2 00 . P7A : ... .. 0 ... : ... .. . ... ... : ... .. . ... ... : ... .. . ... ... : ... .. . ... ...
ROW E6 : ... .. . P85 ... ... : D#4 00 5 P85 ... ... : G-2 00 . P87 : ... .. . ... : ... .. . ... ... : ... .. . ... ... : ... .. . ... ... : ... .. . ... ...
ROW E7 : ... .. . P82 ... ... : ... .. . P82 ... ... : --- .. . ... : ... .. . ... : ... .. . ... ... : ... .. . ... ... : ... .. . ... ... : --- .. . ... ...
ROW E8 : ... .. . P7E ... ... : ... .. . P7E ... ... : F#2 00 . P80 : 1-# 00 F ... : ... .. . ... ... : F#4 01 4 ... ... : F#3 01 4 ... ... : F#0 01 F ... ...
ROW E9 : ... .. . P7B ... ... : D-4 00 5 P85 ... ... : ... .. . ... : ... .. C ... : ... .. . ... ... : ... .. . ... ... : ... .. . ... ... : ... .. D ... ...
ROW EA : ... .. . P7A ... ... : ... .. . P84 ... ... : ... .. . ... : ... .. 6 ... : ... .. . ... ... : ... .. . ... ... : ... .. . ... ... : ... .. 8 ... ...
ROW EB : ... .. . P7C ... ... : D#4 00 5 P7C ... ... : ... .. . ... : ... .. 3 ... : ... .. . ... ... : ... .. . ... ... : ... .. . ... ... : ... .. . ... ...
ROW EC : ... .. . P80 ... ... : ... .. . P80 ... ... : ... .. . ... : ... .. 2 ... : ... .. . ... ... : G#4 01 4 ... ... : G#3 01 4 ... ... : ... .. . ... ...
ROW ED : ... .. . P83 ... ... : ... .. . P83 ... ... : ... .. . ... : ... .. 0 ... : ... .. . ... ... : ... .. . ... ... : ... .. . ... ... : ... .. . ... ...
ROW EE : ... .. . P86 ... ... : E-4 00 5 P7C ... ... : ... .. . ... : ... .. . ... : ... .. . ... ... : ... .. . ... ... : ... .. . ... ... : ... .. . ... ...
ROW EF : ... .. . ... ... ... : ... .. . ... ... ... : --- .. . ... : ... .. . ... : ... .. . ... ... : ... .. . ... ... : ... .. . ... ... : --- .. . P81 ...
ROW F0 : ... .. . P82 ... ... : D#4 00 5 P82 ... ... : B-3 00 . P7D : 5-# 00 F ... : ... .. . ... ... : B-4 01 4 ... ... : B-3 01 4 ... ... : G#0 01 F P80 ...
ROW F1 : ... .. . P7F ... ... : ... .. . P7F ... ... : A#3 00 . P7C : ... .. C ... : ... .. . ... ... : ... .. . ... ... : ... .. . ... ... : ... .. D ... ...
ROW F2 : ... .. . P7B ... ... : D-4 00 5 P85 ... ... : A-3 00 . P7B : ... .. 6 ... : ... .. . ... ... : ... .. . ... ... : ... .. . ... ... : ... .. 8 ... ...
ROW F3 : ... .. . P7A ... ... : ... .. . P84 ... ... : G#3 00 . ... : ... .. 3 ... : ... .. . ... ... : ... .. . ... ... : ... .. . ... ... : ... .. . ... ...
ROW F4 : ... .. . P7C ... ... : D#4 00 5 P7C ... ... : G-3 00 . P7C : ... .. 2 ... : ... .. . ... ... : C#5 01 4 ... ... : C#4 01 4 ... ... : ... .. . ... ...
ROW F5 : ... .. . P80 ... ... : ... .. . P80 ... ... : F#3 00 . P7E : ... .. 0 ... : ... .. . ... ... : ... .. . ... ... : ... .. . ... ... : ... .. . ... ...
ROW F6 : ... .. . P83 ... ... : ... .. . P83 ... ... : F-3 00 . P81 : ... .. . ... : ... .. . ... ... : ... .. . ... ... : ... .. . ... ... : ... .. . ... ...
ROW F7 : ... .. . P86 ... ... : E-4 00 5 P7C ... ... : --- .. . ... : ... .. . ... : ... .. . ... ... : ... .. . ... ... : ... .. . ... ... : --- .. . P84 ...
ROW F8 : ... .. . ... ... ... : ... .. . ... ... ... : C#3 00 . P80 : C-# 00 8 ... : ... .. . ... ... : D#5 01 4 ... ... : D#4 01 4 ... ... : C#1 01 F P80 ...
ROW F9 : ... .. 2 P83 ... ... : D#4 00 1 P83 ... ... : ... .. . ... : ... .. 6 ... : ... .. . ... ... : ... .. . ... ... : ... .. . ... ... : ... .. D ... ...
ROW FA : ... .. . P80 ... ... : ... .. . P80 ... ... : ... .. . ... : ... .. 3 ... : ... .. . ... ... : ... .. . ... ... : ... .. . ... ... : ... .. 8 ... ...
ROW FB : ... .. . P7C ... ... : ... .. . P7C ... ... : ... .. . ... : ... .. 1 ... : ... .. . ... ... : ... .. . ... ... : ... .. . ... ... : ... .. . ... ...
ROW FC : ... .. 1 P7A ... ... : D-4 00 1 P84 ... ... : ... .. . ... : ... .. . ... : ... .. . ... ... : E-5 01 4 ... ... : E-4 01 4 ... ... : ... .. . ... ...
ROW FD : ... .. . P7B ... ... : ... .. . P85 ... ... : ... .. . ... : ... .. 0 ... : ... .. . ... ... : ... .. . ... ... : ... .. . ... ... : ... .. . ... ...
ROW FE : ... .. . P7F ... ... : D#4 00 1 P7F ... ... : ... .. . ... : ... .. . ... : ... .. . ... ... : ... .. . ... ... : ... .. . ... ... : ... .. . ... ...
ROW FF : ... .. 0 ... ... ... : ... .. 0 ... ... ... : ... .. . ... : ... .. . ... : ... .. . ... ... : ... .. . ... ... : ... .. . ... ... : ... .. . ... ...

PATTERN 08
ROW 00 : C#2 00 F P80 ... ... : D#3 00 7 P80 ... ... : G#3 00 . P85 : 1-# 00 F ... : ... .. . ... ... : F#5 01 4 ... ... : F#4 01 4 ... ... : ... .. . ... ...
ROW 01 : ... .. E ... ... ... : ... .. A ... ... ... : F-3 00 . P86 : ... .. C ... : ... .. . ... ... : ... .. . ... ... : ... .. . ... ... : ... .. . ... ...
ROW 02 : ... .. D ... ... ... : ... .. 7 ... ... ... : D#3 00 . P7C : ... .. 6 ... : ... .. . ... ... : ... .. . ... ... : ... .. . ... ... : ... .. . ... ...
ROW 03 : ... .. A ... ... ... : ... .. 0 ... ... ... : C#3 00 . P76 : ... .. 3 ... : ... .. . ... ... : ... .. . ... ... : ... .. . ... ... : ... .. . ... ...
ROW 04 : ... .. . ... ... ... : D#3 00 5 P80 ... ... : B-2 00 . P75 : ... .. 2 ... : ... .. . ... ... : ... .. 3 ... ... : ... .. 3 ... ... : ... .. . ... ...
ROW 05 : ... .. . ... ... ... : ... .. 8 ... ... ... : A-2 00 . P7A : ... .. 0 ... : ... .. . ... ... : ... .. . ... ... : ... .. . ... ... : ... .. . ... ...
ROW 06 : ... .. . ... ... ... : ... .. 0 ... ... ... : G-2 00 . P87 : ... .. . ... : ... .. . ... ... : ... .. . ... ... : ... .. . ... ... : ... .. . ... ...
ROW 07 : ... .. . ... ... ... : ... .. . ... ... ... : --- .. . ... : ... .. . ... : ... .. . ... ... : ... .. . ... ... : ... .. . ... ... : --- .. . P81 ...
ROW 08 : C#1 00 F ... ... ... : E-3 00 7 P80 ... ... : C#2 00 . P80 : ... .. F ... : ... .. . ... ... : ... .. . ... ... : ... .. . ... ... : D#0 01 F P80 ...
ROW 09 : ... .. E ... ... ... : ... .. A ... ... ... : ... .. . ... : ... .. C ... : ... .. . ... ... : ... .. . ... ... : ... .. . ... ... : ... .. D ... ...
ROW 0A : ... .. D ... ... ... : ... .. 7 ... ... ... : ... .. . ... : ... .. 6 ... : ... .. . ... ... : ... .. . ... ... : ... .. . ... ... : ... .. 8 ... ...
ROW 0B : ... .. A ... ... ... : ... .. 0 ... ... ... : ... .. . ... : ... .. 3 ... : ... .. . ... ... : ... .. . ... ... : ... .. . ... ... : ... .. . ... ...
ROW 0C : ... .. . ... ... ... : E-3 00 5 P80 ... ... : ... .. . ... : ... .. 2 ... : ... .. . ... ... : ... .. . ... ... : ... .. . ... ... : ... .. . ... ...
ROW 0D : ... .. . ... ... ... : ... .. 8 ... ... ... : ... .. . ... : ... .. 0 ... : ... .. . ... ... : ... .. . ... ... : ... .. . ... ... : ... .. . ... ...
ROW 0E : ... .. . ... ... ... : ... .. 0 ... ... ... : ... .. . ... : ... .. . ... : ... .. . ... ... : ... .. . ... ... : ... .. . ... ... : ... .. . ... ...
ROW 0F : ... .. . ... ... ... : ... .. . ... ... ... : --- .. . ... : ... .. . ... : ... .. . ... ... : ... .. . ... ... : ... .. . ... ... : --- .. . P83 ...
ROW 10 : D#2 00 F ... ... ... : G#3 00 7 P80 ... ... : B-3 00 . P7D : 5-# 00 F ... : ... .. . ... ... : E-5 01 4 ... ... : E-4 01 4 ... ... : D#0 01 F P80 ...
ROW 11 : ... .. E ... ... ... : ... .. A ... ... ... : A#3 00 . P7C : ... .. C ... : ... .. . ... ... : ... .. . ... ... : ... .. . ... ... : ... .. D ... ...
ROW 12 : ... .. D ... ... ... : ... .. 7 ... ... ... : A-3 00 . P7B : ... .. 6 ... : ... .. . ... ... : ... .. . ... ... : ... .. . ... ... : ... .. 8 ... ...
ROW 13 : ... .. A ... ... ... : ... .. 0 ... ... ... : G#3 00 . ... : ... .. 3 ... : ... .. . ... ... : ... .. . ... ... : ... .. . ... ... : ... .. . ... ...
ROW 14 : ... .. . ... ... ... : G#3 00 5 P80 ... ... : G-3 00 . P7C : ... .. 2 ... : ... .. . ... ... : ... .. 3 ... ... : ... .. 3 ... ... : ... .. . ... ...
ROW 15 : ... .. . ... ... ... : ... .. 8 ... ... ... : F#3 00 . P7E : ... .. 0 ... : ... .. . ... ... : ... .. . ... ... : ... .. . ... ... : ... .. . ... ...
ROW 16 : ... .. . ... ... ... : ... .. 0 ... ... ... : F-3 00 . P81 : ... .. . ... : ... .. . ... ... : ... .. . ... ... : ... .. . ... ... : ... .. . ... ...
ROW 17 : ... .. . ... ... ... : ... .. . ... ... ... : --- .. . ... : ... .. . ... : ... .. . ... ... : ... .. . ... ... : ... .. . ... ... : --- .. . P83 ...
ROW 18 : E-2 00 F ... ... ... : D#4 00 7 P80 ... ... : D#2 00 . P80 : 1-# 00 F ... : ... .. . ... ... : ... .. . ... ... : ... .. . ... ... : D#0 01 F P80 ...
ROW 19 : ... .. E ... ... ... : ... .. A ... ... ... : ... .. . ... : ... .. C ... : ... .. . ... ... : ... .. . ... ... : ... .. . ... ... : ... .. D ... ...
ROW 1A : ... .. D ... ... ... : ... .. 7 ... ... ... : ... .. . ... : ... .. 6 ... : ... .. . ... ... : ... .. . ... ... : ... .. . ... ... : ... .. 8 ... ...
ROW 1B : ... .. A ... ... ... : ... .. 0 ... ... ... : ... .. . ... : ... .. 3 ... : ... .. . ... ... : ... .. . ... ... : ... .. . ... ... : ... .. . ... ...
ROW 1C : ... .. . ... ... ... : D#4 00 5 P80 ... ... : ... .. . ... : ... .. 2 ... : ... .. . ... ... : ... .. . ... ... : ... .. . ... ... : ... .. . ... ...
ROW 1D : ... .. . ... ... ... : ... .. 8 ... ... ... : ... .. . ... : ... .. 0 ... : ... .. . ... ... : ... .. . ... ... : ... .. . ... ... : ... .. . ... ...
ROW 1E : ... .. . ... ... ... : ... .. 0 ... ... ... : ... .. . ... : ... .. . ... : ... .. . ... ... : ... .. . ... ... : ... .. . ... ... : ... .. . ... ...
ROW 1F : ... .. . ... ... ... : ... .. . ... ... ... : --- .. . ... : ... .. . ... : ... .. . ... ... : ... .. . ... ... : ... .. . ... ... : --- .. . P83 ...
ROW 20 : C#1 00 F ... ... ... : B-3 00 7 P80 ... ... : G#3 00 . P85 : C-# 00 8 ... : ... .. . ... ... : D#5 01 4 ... ... : D#4 01 4 ... ... : E-0 01 F P80 ...
ROW 21 : ... .. E ... ... ... : ... .. A ... ... ... : F-3 00 . P86 : ... .. 6 ... : ... .. . ... ... : ... .. . ... ... : ... .. . ... ... : ... .. D ... ...
ROW 22 : ... .. D ... ... ... : ... .. 7 ... ... ... : D#3 00 . P7C : ... .. 3 ... : ... .. . ... ... : ... .. . ... ... : ... .. . ... ... : ... .. 8 ... ...
ROW 23 : ... .. A ... ... ... : ... .. 0 ... ... ... : C#3 00 . P76 : ... .. 1 ... : ... .. . ... ... : ... .. . ... ... : ... .. . ... ... : ... .. . ... ...
ROW 24 : ... .. . ... ... ... : B-3 00 5 P80 ... ... : B-2 00 . P75 : ... .. . ... : ... .. . ... ... : ... .. 3 ... ... : ... .. 3 ... ... : ... .. . ... ...
ROW 25 : ... .. . ... ... ... : ... .. 8 ... ... ... : A-2 00 . P7A : ... .. 0 ... : ... .. . ... ... : ... .. . ... ... : ... .. . ... ... : ... .. . ... ...
ROW 26 : ... .. . ... ... ... : ... .. 0 ... ... ... : G-2 00 . P87 : ... .. . ... : ... .. . ... ... : ... .. . ... ... : ... .. . ... ... : ... .. . ... ...
ROW 27 : ... .. . ... ... ... : ... .. . ... ... ... : --- .. . ... : ... .. . ... : ... .. . ... ... : ... .. . ... ... : ... .. . ... ... : --- .. . ... ...
ROW 28 : B-2 00 F ... ... ... : C#4 00 7 P80 ... ... : F#2 00 . P80 : 1-# 00 F ... : ... .. . ... ... : ... .. . ... ... : ... .. . ... ... : F#0 01 F ... ...
ROW 29 : ... .. E ... ... ... : ... .. A ... ... ... : ... .. . ... : ... .. C ... : ... .. . ... ... : ... .. . ... ... : ... .. . ... ... : ... .. D ... ...
ROW 2A : ... .. D ... ... ... : ... .. 7 ... ... ... : ... .. . ... : ... .. 6 ... : ... .. . ... ... : ... .. . ... ... : ... .. . ... ... : ... .. 8 ... ...
ROW 2B : ... .. A ... ... ... : ... .. 0 ... ... ... : ... .. . ... : ... .. 3 ... : ... .. . ... ... : ... .. . ... ... : ... .. . ... ... : ... .. . ... ...
ROW 2C : ... .. . ... ... ... : C#4 00 5 P80 ... ... : ... .. . ... : ... .. 2 ... : ... .. . ... ... : ... .. . ... ... : ... .. . ... ... : ... .. . ... ...
ROW 2D : ... .. . ... ... ... : ... .. 8 ... ... ... : ... .. . ... : ... .. 0 ... : ... .. . ... ... : ... .. . ... ... : ... .. . ... ... : ... .. . ... ...
ROW 2E : ... .. . ... ... ... : ... .. 0 ... ... ... : ... .. . ... : ... .. . ... : ... .. . ... ... : ... .. . ... ... : ... .. . ... ... : ... .. . ... ...
ROW 2F : ... .. . ... ... ... : ... .. . ... ... ... : --- .. . ... : ... .. . ... : ... .. . ... ... : ... .. . ... ... : ... .. . ... ... : --- .. . P81 ...
ROW 30 : D#2 00 F ... ... ... : F#4 00 7 P80 ... ... : B-3 00 . P7D : 5-# 00 F ... : ... .. . ... ... : C#5 01 4 ... ... : C#4 01 4 ... ... : G#0 01 F P80 ...
ROW 31 : ... .. E ... ... ... : ... .. A ... ... ... : A#3 00 . P7C : ... .. C ... : ... .. . ... ... : ... .. . ... ... : ... .. . ... ... : ... .. D ... ...
ROW 32 : ... .. D ... ... ... : ... .. 7 ... ... ... : A-3 00 . P7B : ... .. 6 ... : ... .. . ... ... : ... .. . ... ... : ... .. . ... ... : ... .. 8 ... ...
ROW 33 : ... .. A ... ... ... : ... .. 0 ... ... ... : G#3 00 . ... : ... .. 3 ... : ... .. . ... ... : ... .. . ... ... : ... .. . ... ... : ... .. . ... ...
ROW 34 : ... .. . ... ... ... : F#4 00 5 P80 ... ... : G-3 00 . P7C : ... .. 2 ... : ... .. . ... ... : ... .. 3 ... ... : ... .. 3 ... ... : ... .. . ... ...
ROW 35 : ... .. . ... ... ... : ... .. 8 ... ... ... : F#3 00 . P7E : ... .. 0 ... : ... .. . ... ... : ... .. . ... ... : ... .. . ... ... : ... .. . ... ...
ROW 36 : ... .. . ... ... ... : ... .. 0 ... ... ... : F-3 00 . P81 : ... .. . ... : ... .. . ... ... : ... .. . ... ... : ... .. . ... ... : ... .. . ... ...
ROW 37 : ... .. . ... ... ... : ... .. . ... ... ... : --- .. . ... : ... .. . ... : ... .. . ... ... : ... .. . ... ... : ... .. . ... ... : --- .. . P84 ...
ROW 38 : E-2 00 F ... ... ... : G#4 00 7 P80 ... ... : E-3 00 . P80 : 1-# 00 F ... : ... .. . ... ... : ... .. . ... ... : ... .. . ... ... : E-1 01 F P80 ...
ROW 39 : ... .. E ... ... ... : ... .. A ... ... ... : ... .. . ... : ... .. C ... : ... .. . ... ... : ... .. . ... ... : ... .. . ... ... : ... .. D ... ...
ROW 3A : ... .. D ... ... ... : ... .. 7 ... ... ... : ... .. . ... : ... .. 6 ... : ... .. . ... ... : ... .. . ... ... : ... .. . ... ... : ... .. 8 ... ...
ROW 3B : ... .. A ... ... ... : ... .. 0 ... ... ... : ... .. . ... : ... .. 3 ... : ... .. . ... ... : ... .. . ... ... : ... .. . ... ... : ... .. . ... ...
ROW 3C : ... .. . ... ... ... : G#4 00 5 P80 ... ... : ... .. . ... : ... .. 2 ... : ... .. . ... ... : ... .. . ... ... : ... .. . ... ... : ... .. . ... ...
ROW 3D : ... .. . ... ... ... : ... .. 8 ... ... ... : ... .. . ... : ... .. 0 ... : ... .. . ... ... : ... .. . ... ... : ... .. . ... ... : ... .. . ... ...
ROW 3E : ... .. . ... ... ... : ... .. 0 ... ... ... : ... .. . ... : ... .. . ... : ... .. . ... ... : ... .. . ... ... : ... .. . ... ... : ... .. . ... ...
ROW 3F : ... .. . ... ... ... : ... .. . ... ... ... : --- .. . ... : ... .. . ... : ... .. . ... ... : ... .. . ... ... : ... .. . ... ... : --- .. . P82 ...
ROW 40 : E-4 00 F ... ... ... : B-4 00 7 P80 ... ... : G#3 00 . P85 : ... .. F ... : ... .. . ... ... : B-4 01 4 ... ... : E-3 01 4 ... ... : A-0 01 F P80 ...
ROW 41 : ... .. E ... ... ... : ... .. A ... ... ... : F-3 00 . P86 : ... .. C ... : ... .. . ... ... : ... .. . ... ... : ... .. . ... ... : ... .. D ... ...
ROW 42 : ... .. D ... ... ... : ... .. 7 ... ... ... : D#3 00 . P7C : ... .. 6 ... : ... .. . ... ... : ... .. . ... ... : ... .. . ... ... : ... .. 8 ... ...
ROW 43 : ... .. A ... ... ... : ... .. 0 ... ... ... : C#3 00 . P76 : ... .. 3 ... : ... .. . ... ... : ... .. . ... ... : ... .. . ... ... : ... .. . ... ...
ROW 44 : ... .. . ... ... ... : B-4 00 5 P80 ... ... : B-2 00 . P75 : ... .. 2 ... : ... .. . ... ... : ... .. 3 ... ... : ... .. 3 ... ... : ... .. . ... ...
ROW 45 : ... .. . ... ... ... : ... .. 8 ... ... ... : A-2 00 . P7A : ... .. 0 ... : ... .. . ... ... : ... .. . ... ... : ... .. . ... ... : ... .. . ... ...
ROW 46 : ... .. . ... ... ... : ... .. 0 ... ... ... : G-2 00 . P87 : ... .. . ... : ... .. . ... ... : ... .. . ... ... : ... .. . ... ... : ... .. . ... ...
ROW 47 : ... .. . ... ... ... : ... .. . ... ... ... : --- .. . ... : ... .. . ... : ... .. . ... ... : ... .. . ... ... : ... .. . ... ... : --- .. . ... ...
ROW 48 : ... .. . ... ... ... : E-4 00 7 P80 ... ... : A-2 00 . P80 : ... .. F ... : ... .. . ... ... : ... .. . ... ... : ... .. . ... ... : A-0 01 F ... ...
ROW 49 : ... .. . ... ... ... : ... .. A ... ... ... : ... .. . ... : ... .. C ... : ... .. . ... ... : ... .. . ... ... : ... .. . ... ... : ... .. D ... ...
ROW 4A : ... .. . ... ... ... : ... .. 7 ... ... ... : ... .. . ... : ... .. 6 ... : ... .. . ... ... : ... .. . ... ... : ... .. . ... ... : ... .. 8 ... ...
ROW 4B : ... .. . ... ... ... : ... .. 0 ... ... ... : ... .. . ... : ... .. 3 ... : ... .. . ... ... : ... .. . ... ... : ... .. . ... ... : ... .. . ... ...
ROW 4C : ... .. . ... ... ... : E-4 00 5 P80 ... ... : ... .. . ... : ... .. 2 ... : ... .. . ... ... : ... .. . ... ... : ... .. . ... ... : ... .. . ... ...
ROW 4D : ... .. . ... ... ... : ... .. 8 ... ... ... : ... .. . ... : ... .. 0 ... : ... .. . ... ... : ... .. . ... ... : ... .. . ... ... : ... .. . ... ...
ROW 4E : ... .. . ... ... ... : ... .. 0 ... ... ... : ... .. . ... : ... .. . ... : ... .. . ... ... : ... .. . ... ... : ... .. . ... ... : ... .. . ... ...
ROW 4F : ... .. . ... ... ... : ... .. . ... ... ... : --- .. . ... : ... .. . ... : ... .. . ... ... : ... .. . ... ... : ... .. . ... ... : --- .. . ... ...
ROW 50 : F#4 00 F ... ... ... : D#4 00 7 P80 ... ... : B-3 00 . P7D : 5-# 00 F ... : ... .. . ... ... : G#4 01 4 ... ... : C#3 01 4 ... ... : E-1 01 F ... ...
ROW 51 : ... .. E ... ... ... : ... .. A ... ... ... : A#3 00 . P7C : ... .. C ... : ... .. . ... ... : ... .. . ... ... : ... .. . ... ... : ... .. D ... ...
ROW 52 : ... .. D ... ... ... : ... .. 7 ... ... ... : A-3 00 . P7B : ... .. 6 ... : ... .. . ... ... : ... .. . ... ... : ... .. . ... ... : ... .. 8 ... ...
ROW 53 : ... .. A ... ... ... : ... .. 0 ... ... ... : G#3 00 . ... : ... .. 3 ... : ... .. . ... ... : ... .. . ... ... : ... .. . ... ... : ... .. . ... ...
ROW 54 : ... .. . ... ... ... : D#4 00 5 P80 ... ... : G-3 00 . P7C : ... .. 2 ... : ... .. . ... ... : ... .. 3 ... ... : ... .. 3 ... ... : ... .. . ... ...
ROW 55 : ... .. 2 ... ... ... : ... .. 8 ... ... ... : F#3 00 . P7E : ... .. 0 ... : ... .. . ... ... : ... .. . ... ... : ... .. . ... ... : ... .. . ... ...
ROW 56 : ... .. . ... ... ... : ... .. 0 ... ... ... : F-3 00 . P81 : ... .. . ... : ... .. . ... ... : ... .. . ... ... : ... .. . ... ... : ... .. . ... ...
ROW 57 : ... .. . ... ... ... : ... .. . ... ... ... : --- .. . ... : ... .. . ... : ... .. . ... ... : ... .. . ... ... : ... .. . ... ... : --- .. . P82 ...
ROW 58 : D#4 00 F ... ... ... : E-4 00 7 P80 ... ... : A-2 00 . P80 : 1-# 00 F ... : ... .. . ... ... : ... .. . ... ... : ... .. . ... ... : A-0 01 F P80 ...
ROW 59 : ... .. E ... ... ... : ... .. A ... ... ... : ... .. . ... : ... .. C ... : ... .. . ... ... : ... .. . ... ... : ... .. . ... ... : ... .. D ... ...
ROW 5A : ... .. D ... ... ... : ... .. 7 ... ... ... : ... .. . ... : ... .. 6 ... : ... .. . ... ... : ... .. . ... ... : ... .. . ... ... : ... .. 8 ... ...
ROW 5B : ... .. A ... ... ... : ... .. 0 ... ... ... : ... .. . ... : ... .. 3 ... : ... .. . ... ... : ... .. . ... ... : ... .. . ... ... : ... .. . ... ...
ROW 5C : ... .. . ... ... ... : E-4 00 5 P80 ... ... : ... .. . ... : ... .. 2 ... : ... .. . ... ... : ... .. . ... ... : ... .. . ... ... : ... .. . ... ...
ROW 5D : ... .. . ... ... ... : ... .. 8 ... ... ... : ... .. . ... : ... .. 0 ... : ... .. . ... ... : ... .. . ... ... : ... .. . ... ... : ... .. . ... ...
ROW 5E : ... .. . ... ... ... : ... .. 0 ... ... ... : ... .. . ... : ... .. . ... : ... .. . ... ... : ... .. . ... ... : ... .. . ... ... : ... .. . ... ...
ROW 5F : ... .. . ... ... ... : ... .. . ... ... ... : ... .. . ... : ... .. . ... : ... .. . ... ... : ... .. . ... ... : ... .. . ... ... : ... .. . ... ...
ROW 60 : ... .. . ... ... ... : C#4 00 7 P80 ... ... : G#3 00 . P85 : C-# 00 8 ... : ... .. . ... ... : F#4 01 4 ... ... : E-3 01 4 ... ... : ... .. . ... ...
ROW 61 : ... .. 2 ... ... ... : ... .. A ... ... ... : F-3 00 . P86 : ... .. 6 ... : ... .. . ... ... : ... .. . ... ... : ... .. . ... ... : ... .. . ... ...
ROW 62 : ... .. . ... ... ... : ... .. 7 ... ... ... : D#3 00 . P7C : ... .. 3 ... : ... .. . ... ... : ... .. . ... ... : ... .. . ... ... : ... .. . ... ...
ROW 63 : ... .. . ... ... ... : ... .. 0 ... ... ... : C#3 00 . P76 : ... .. 1 ... : ... .. . ... ... : ... .. . ... ... : ... .. . ... ... : ... .. . ... ...
ROW 64 : ... .. 1 ... ... ... : C#4 00 5 P80 ... ... : B-2 00 . P75 : ... .. . ... : ... .. . ... ... : ... .. 3 ... ... : ... .. 3 ... ... : ... .. . ... ...
ROW 65 : ... .. . ... ... ... : ... .. 8 ... ... ... : A-2 00 . P7A : ... .. 0 ... : ... .. . ... ... : ... .. . ... ... : ... .. . ... ... : ... .. . ... ...
ROW 66 : ... .. . ... ... ... : ... .. 0 ... ... ... : G-2 00 . P87 : ... .. . ... : ... .. . ... ... : ... .. . ... ... : ... .. . ... ... : ... .. . ... ...
ROW 67 : ... .. 0 ... ... ... : ... .. . ... ... ... : --- .. . ... : ... .. . ... : ... .. . ... ... : ... .. . ... ... : ... .. . ... ... : --- .. . ... ...
ROW 68 : E-4 00 F P80 ... ... : B-3 00 7 P80 ... ... : G#2 00 . P80 : 1-# 00 F ... : ... .. . ... ... : ... .. . ... ... : ... .. . ... ... : G#0 01 F ... ...
ROW 69 : ... .. E ... ... ... : ... .. A ... ... ... : ... .. . ... : ... .. C ... : ... .. . ... ... : ... .. . ... ... : ... .. . ... ... : ... .. D ... ...
ROW 6A : ... .. D ... ... ... : ... .. 7 ... ... ... : ... .. . ... : ... .. 6 ... : ... .. . ... ... : ... .. . ... ... : ... .. . ... ... : ... .. 8 ... ...
ROW 6B : ... .. A ... ... ... : ... .. 0 ... ... ... : ... .. . ... : ... .. 3 ... : ... .. . ... ... : ... .. . ... ... : ... .. . ... ... : ... .. . ... ...
ROW 6C : ... .. . ... ... ... : B-3 00 5 P80 ... ... : ... .. . ... : ... .. 2 ... : ... .. . ... ... : ... .. . ... ... : ... .. . ... ... : ... .. . ... ...
ROW 6D : ... .. . ... ... ... : ... .. 8 ... ... ... : ... .. . ... : ... .. 0 ... : ... .. . ... ... : ... .. . ... ... : ... .. . ... ... : ... .. . ... ...
ROW 6E : ... .. . ... ... ... : ... .. 0 ... ... ... : ... .. . ... : ... .. . ... : ... .. . ... ... : ... .. . ... ... : ... .. . ... ... : ... .. . ... ...
ROW 6F : ... .. . ... ... ... : ... .. . ... ... ... : --- .. . ... : ... .. . ... : ... .. . ... ... : ... .. . ... ... : ... .. . ... ... : --- .. . P84 ...
ROW 70 : ... .. . ... ... ... : C#4 00 7 P80 ... ... : B-3 00 . P7D : 5-# 00 F ... : ... .. . ... ... : B-4 01 4 ... ... : G#3 01 4 ... ... : A-0 01 F P80 ...
ROW 71 : ... .. 2 ... ... ... : ... .. A ... ... ... : A#3 00 . P7C : ... .. C ... : ... .. . ... ... : ... .. . ... ... : ... .. . ... ... : ... .. D ... ...
ROW 72 : ... .. . ... ... ... : ... .. 7 ... ... ... : A-3 00 . P7B : ... .. 6 ... : ... .. . ... ... : ... .. . ... ... : ... .. . ... ... : ... .. 8 ... ...
ROW 73 : ... .. . ... ... ... : ... .. 0 ... ... ... : G#3 00 . ... : ... .. 3 ... : ... .. . ... ... : ... .. . ... ... : ... .. . ... ... : ... .. . ... ...
ROW 74 : ... .. 1 ... ... ... : C#4 00 5 P80 ... ... : G-3 00 . P7C : ... .. 2 ... : ... .. . ... ... : ... .. 3 ... ... : ... .. 3 ... ... : ... .. . ... ...
ROW 75 : ... .. . ... ... ... : ... .. 8 ... ... ... : F#3 00 . P7E : ... .. 0 ... : ... .. . ... ... : ... .. . ... ... : ... .. . ... ... : ... .. . ... ...
ROW 76 : ... .. . ... ... ... : ... .. 0 ... ... ... : F-3 00 . P81 : ... .. . ... : ... .. . ... ... : ... .. . ... ... : ... .. . ... ... : ... .. . ... ...
ROW 77 : ... .. 0 ... ... ... : ... .. . ... ... ... : --- .. . ... : ... .. . ... : ... .. . ... ... : ... .. . ... ... : ... .. . ... ... : --- .. . ... ...
ROW 78 : C#4 00 F P80 ... ... : B-4 00 7 P80 ... ... : G#3 00 . P80 : 1-# 00 F ... : ... .. . ... ... : G#4 01 4 ... ... : ... .. . ... ... : G#1 01 F ... ...
ROW 79 : ... .. E ... ... ... : ... .. A ... ... ... : ... .. . ... : ... .. C ... : ... .. . ... ... : ... .. . ... ... : ... .. . ... ... : ... .. D ... ...
ROW 7A : ... .. D ... ... ... : ... .. 7 ... ... ... : ... .. . ... : ... .. 6 ... : ... .. . ... ... : ... .. . ... ... : ... .. . ... ... : ... .. 8 ... ...
ROW 7B : ... .. A ... ... ... : ... .. 0 ... ... ... : ... .. . ... : ... .. 3 ... : ... .. . ... ... : ... .. . ... ... : ... .. . ... ... : ... .. . ... ...
ROW 7C : ... .. . ... ... ... : B-4 00 5 P80 ... ... : ... .. . ... : ... .. 2 ... : ... .. . ... ... : ... .. 3 ... ... : ... .. . ... ... : ... .. . ... ...
ROW 7D : ... .. . ... ... ... : ... .. 8 ... ... ... : ... .. . ... : ... .. 0 ... : ... .. . ... ... : ... .. . ... ... : ... .. . ... ... : ... .. . ... ...
ROW 7E : ... .. . ... ... ... : ... .. 0 ... ... ... : ... .. . ... : ... .. . ... : ... .. . ... ... : ... .. . ... ... : ... .. . ... ... : ... .. . ... ...
ROW 7F : ... .. . ... ... ... : ... .. . ... ... ... : --- .. . ... : ... .. . ... : ... .. . ... ... : ... .. . ... ... : ... .. . ... ... : --- .. . P7E ...
ROW 80 : ... .. . ... ... ... : D#4 00 7 P80 ... ... : G#3 00 . P85 : ... .. F ... : ... .. . ... ... : ... .. . ... ... : C#4 01 4 ... ... : A-0 01 F P80 ...
ROW 81 : ... .. . ... ... ... : ... .. A ... ... ... : F-3 00 . P86 : ... .. C ... : ... .. . ... ... : ... .. . ... ... : ... .. . ... ... : ... .. D ... ...
ROW 82 : ... .. . ... ... ... : ... .. 7 ... ... ... : D#3 00 . P7C : ... .. 6 ... : ... .. . ... ... : ... .. . ... ... : ... .. . ... ... : ... .. 8 ... ...
ROW 83 : ... .. . ... ... ... : ... .. 0 ... ... ... : C#3 00 . P76 : ... .. 3 ... : ... .. . ... ... : ... .. . ... ... : ... .. . ... ... : ... .. . ... ...
ROW 84 : ... .. . ... ... ... : D#4 00 5 P80 ... ... : B-2 00 . P75 : ... .. 2 ... : ... .. . ... ... : ... .. . ... ... : ... .. 3 ... ... : ... .. . ... ...
ROW 85 : ... .. . ... ... ... : ... .. 8 ... ... ... : A-2 00 . P7A : ... .. 0 ... : ... .. . ... ... : ... .. . ... ... : ... .. . ... ... : ... .. . ... ...
ROW 86 : ... .. . ... ... ... : ... .. 0 ... ... ... : G-2 00 . P87 : ... .. . ... : ... .. . ... ... : ... .. . ... ... : ... .. . ... ... : ... .. . ... ...
ROW 87 : ... .. . ... ... ... : ... .. . ... ... ... : --- .. . ... : ... .. . ... : ... .. . ... ... : ... .. . ... ... : ... .. . ... ... : --- .. . ... ...
ROW 88 : C#3 00 F ... ... ... : E-4 00 7 P80 ... ... : A-2 00 . P80 : ... .. F ... : ... .. . ... ... : F#4 01 4 ... ... : ... .. . ... ... : A-0 01 F ... ...
ROW 89 : ... .. E ... ... ... : ... .. A ... ... ... : ... .. . ... : ... .. C ... : ... .. . ... ... : ... .. . ... ... : ... .. . ... ... : ... .. D ... ...
ROW 8A : ... .. D ... ... ... : ... .. 7 ... ... ... : ... .. . ... : ... .. 6 ... : ... .. . ... ... : ... .. . ... ... : ... .. . ... ... : ... .. 8 ... ...
ROW 8B : ... .. A ... ... ... : ... .. 0 ... ... ... : ... .. . ... : ... .. 3 ... : ... .. . ... ... : ... .. . ... ... : ... .. . ... ... : ... .. . ... ...
ROW 8C : ... .. . ... ... ... : E-4 00 5 P80 ... ... : ... .. . ... : ... .. 2 ... : ... .. . ... ... : ... .. 3 ... ... : ... .. . ... ... : ... .. . ... ...
ROW 8D : ... .. . ... ... ... : ... .. 8 ... ... ... : ... .. . ... : ... .. 0 ... : ... .. . ... ... : ... .. . ... ... : ... .. . ... ... : ... .. . ... ...
ROW 8E : ... .. . ... ... ... : ... .. 0 ... ... ... : ... .. . ... : ... .. . ... : ... .. . ... ... : ... .. . ... ... : ... .. . ... ... : ... .. . ... ...
ROW 8F : ... .. . ... ... ... : ... .. . ... ... ... : --- .. . ... : ... .. . ... : ... .. . ... ... : ... .. . ... ... : ... .. . ... ... : --- .. . ... ...
ROW 90 : ... .. . ... ... ... : G#3 00 7 P80 ... ... : B-3 00 . P7D : 5-# 00 F ... : ... .. . ... ... : E-4 01 4 ... ... : G#3 01 4 ... ... : E-1 01 F ... ...
ROW 91 : ... .. 2 ... ... ... : ... .. A ... ... ... : A#3 00 . P7C : ... .. C ... : ... .. . ... ... : ... .. . ... ... : ... .. . ... ... : ... .. D ... ...
ROW 92 : ... .. . ... ... ... : ... .. 7 ... ... ... : A-3 00 . P7B : ... .. 6 ... : ... .. . ... ... : ... .. . ... ... : ... .. . ... ... : ... .. 8 ... ...
ROW 93 : ... .. . ... ... ... : ... .. 0 ... ... ... : G#3 00 . ... : ... .. 3 ... : ... .. . ... ... : ... .. . ... ... : ... .. . ... ... : ... .. . ... ...
ROW 94 : ... .. 1 ... ... ... : G#3 00 5 P80 ... ... : G-3 00 . P7C : ... .. 2 ... : ... .. . ... ... : ... .. 3 ... ... : ... .. 3 ... ... : ... .. . ... ...
ROW 95 : ... .. . ... ... ... : ... .. 8 ... ... ... : F#3 00 . P7E : ... .. 0 ... : ... .. . ... ... : ... .. . ... ... : ... .. . ... ... : ... .. . ... ...
ROW 96 : ... .. . ... ... ... : ... .. 0 ... ... ... : F-3 00 . P81 : ... .. . ... : ... .. . ... ... : ... .. . ... ... : ... .. . ... ... : ... .. . ... ...
ROW 97 : ... .. 0 ... ... ... : ... .. . ... ... ... : --- .. . ... : ... .. . ... : ... .. . ... ... : ... .. . ... ... : ... .. . ... ... : --- .. . P82 ...
ROW 98 : C#3 00 F P80 ... ... : A-3 00 7 P80 ... ... : A-2 00 . P80 : 1-# 00 F ... : ... .. . ... ... : D#4 01 4 ... ... : ... .. . ... ... : A-0 01 F P80 ...
ROW 99 : ... .. E ... ... ... : ... .. A ... ... ... : ... .. . ... : ... .. C ... : ... .. . ... ... : ... .. . ... ... : ... .. . ... ... : ... .. D ... ...
ROW 9A : ... .. D ... ... ... : ... .. 7 ... ... ... : ... .. . ... : ... .. 6 ... : ... .. . ... ... : ... .. . ... ... : ... .. . ... ... : ... .. 8 ... ...
ROW 9B : ... .. A ... ... ... : ... .. 0 ... ... ... : ... .. . ... : ... .. 3 ... : ... .. . ... ... : ... .. . ... ... : ... .. . ... ... : ... .. . ... ...
ROW 9C : ... .. . ... ... ... : A-3 00 5 P80 ... ... : ... .. . ... : ... .. 2 ... : ... .. . ... ... : ... .. 3 ... ... : ... .. . ... ... : ... .. . ... ...
ROW 9D : ... .. . ... ... ... : ... .. 8 ... ... ... : ... .. . ... : ... .. 0 ... : ... .. . ... ... : ... .. . ... ... : ... .. . ... ... : ... .. . ... ...
ROW 9E : ... .. . ... ... ... : ... .. 0 ... ... ... : ... .. . ... : ... .. . ... : ... .. . ... ... : ... .. . ... ... : ... .. . ... ... : ... .. . ... ...
ROW 9F : ... .. . ... ... ... : ... .. . ... ... ... : --- .. . ... : ... .. . ... : ... .. . ... ... : ... .. . ... ... : ... .. . ... ... : --- .. . ... ...
ROW A0 : ... .. . ... ... ... : G#4 00 7 P80 ... ... : G#3 00 . P85 : C-# 00 8 ... : ... .. . ... ... : E-4 01 4 ... ... : E-3 01 4 ... ... : B-0 01 F ... ...
ROW A1 : ... .. . ... ... ... : ... .. A ... ... ... : F-3 00 . P86 : ... .. 6 ... : ... .. . ... ... : ... .. . ... ... : ... .. . ... ... : ... .. D ... ...
ROW A2 : ... .. . ... ... ... : ... .. 7 ... ... ... : D#3 00 . P7C : ... .. 3 ... : ... .. . ... ... : ... .. . ... ... : ... .. . ... ... : ... .. 8 ... ...
ROW A3 : ... .. . ... ... ... : ... .. 0 ... ... ... : C#3 00 . P76 : ... .. 1 ... : ... .. . ... ... : ... .. . ... ... : ... .. . ... ... : ... .. . ... ...
ROW A4 : ... .. . ... ... ... : G#4 00 5 P80 ... ... : B-2 00 . P75 : ... .. . ... : ... .. . ... ... : ... .. 3 ... ... : ... .. 3 ... ... : ... .. . ... ...
ROW A5 : ... .. . ... ... ... : ... .. 8 ... ... ... : A-2 00 . P7A : ... .. 0 ... : ... .. . ... ... : ... .. . ... ... : ... .. . ... ... : ... .. . ... ...
ROW A6 : ... .. . ... ... ... : ... .. 0 ... ... ... : G-2 00 . P87 : ... .. . ... : ... .. . ... ... : ... .. . ... ... : ... .. . ... ... : ... .. . ... ...
ROW A7 : ... .. . ... ... ... : ... .. . ... ... ... : --- .. . ... : ... .. . ... : ... .. . ... ... : ... .. . ... ... : ... .. . ... ... : --- .. . ... ...
ROW A8 : B-2 00 F ... ... ... : C#4 00 7 P80 ... ... : B-2 00 . P80 : 1-# 00 F ... : ... .. . ... ... : D#4 01 4 ... ... : ... .. . ... ... : B-0 01 F ... ...
ROW A9 : ... .. E ... ... ... : ... .. A ... ... ... : ... .. . ... : ... .. C ... : ... .. . ... ... : ... .. . ... ... : ... .. . ... ... : ... .. D ... ...
ROW AA : ... .. D ... ... ... : ... .. 7 ... ... ... : ... .. . ... : ... .. 6 ... : ... .. . ... ... : ... .. . ... ... : ... .. . ... ... : ... .. 8 ... ...
ROW AB : ... .. A ... ... ... : ... .. 0 ... ... ... : ... .. . ... : ... .. 3 ... : ... .. . ... ... : ... .. . ... ... : ... .. . ... ... : ... .. . ... ...
ROW AC : ... .. . ... ... ... : C#4 00 5 P80 ... ... : ... .. . ... : ... .. 2 ... : ... .. . ... ... : ... .. 3 ... ... : ... .. . ... ... : ... .. . ... ...
ROW AD : ... .. 2 ... ... ... : ... .. 8 ... ... ... : ... .. . ... : ... .. 0 ... : ... .. . ... ... : ... .. . ... ... : ... .. . ... ... : ... .. . ... ...
ROW AE : ... .. . ... ... ... : ... .. 0 ... ... ... : ... .. . ... : ... .. . ... : ... .. . ... ... : ... .. . ... ... : ... .. . ... ... : ... .. . ... ...
ROW AF : ... .. . ... ... ... : ... .. . ... ... ... : --- .. . ... : ... .. . ... : ... .. . ... ... : ... .. . ... ... : ... .. . ... ... : --- .. . ... ...
ROW B0 : C#3 00 F ... ... ... : G#3 00 7 P80 ... ... : B-3 00 . P7D : 5-# 00 F ... : ... .. . ... ... : C#4 01 4 ... ... : C#3 01 4 ... ... : F#1 01 F ... ...
ROW B1 : ... .. E ... ... ... : ... .. A ... ... ... : A#3 00 . P7C : ... .. C ... : ... .. . ... ... : ... .. . ... ... : ... .. . ... ... : ... .. D ... ...
ROW B2 : ... .. D ... ... ... : ... .. 7 ... ... ... : A-3 00 . P7B : ... .. 6 ... : ... .. . ... ... : ... .. . ... ... : ... .. . ... ... : ... .. 8 ... ...
ROW B3 : ... .. A ... ... ... : ... .. 0 ... ... ... : G#3 00 . ... : ... .. 3 ... : ... .. . ... ... : ... .. . ... ... : ... .. . ... ... : ... .. . ... ...
ROW B4 : ... .. . ... ... ... : G#3 00 5 P80 ... ... : G-3 00 . P7C : ... .. 2 ... : ... .. . ... ... : ... .. 3 ... ... : ... .. 3 ... ... : ... .. . ... ...
ROW B5 : ... .. 2 ... ... ... : ... .. 8 ... ... ... : F#3 00 . P7E : ... .. 0 ... : ... .. . ... ... : ... .. . ... ... : ... .. . ... ... : ... .. . ... ...
ROW B6 : ... .. . ... ... ... : ... .. 0 ... ... ... : F-3 00 . P81 : ... .. . ... : ... .. . ... ... : ... .. . ... ... : ... .. . ... ... : ... .. . ... ...
ROW B7 : ... .. . ... ... ... : ... .. . ... ... ... : --- .. . ... : ... .. . ... : ... .. . ... ... : ... .. . ... ... : ... .. . ... ... : --- .. . P81 ...
ROW B8 : F#3 00 F ... ... ... : D#3 00 8 P80 ... ... : G#3 00 . P85 : C-# 00 8 ... : ... .. . ... ... : ... .. 5 ... V00 : D#4 01 5 ... V00 : B-0 01 F P80 ...
ROW B9 : ... .. E ... ... ... : ... .. 7 ... ... ... : F-3 00 . P86 : ... .. 6 ... : ... .. . ... ... : ... .. 4 ... ... : ... .. 4 ... ... : ... .. D ... ...
ROW BA : ... .. D ... ... ... : ... .. . ... ... ... : D#3 00 . P7C : ... .. 3 ... : ... .. . ... ... : ... .. . ... ... : ... .. . ... ... : ... .. 8 ... ...
ROW BB : ... .. A ... ... ... : ... .. 6 ... ... ... : C#3 00 . P76 : ... .. 1 ... : ... .. . ... ... : ... .. . ... ... : ... .. . ... ... : ... .. . ... ...
ROW BC : ... .. . ... ... ... : ... .. 5 ... ... ... : B-2 00 . P75 : ... .. . ... : ... .. . ... ... : ... .. 3 ... ... : ... .. 3 ... ... : ... .. . ... ...
ROW BD : ... .. . ... ... ... : ... .. 4 ... ... ... : A-2 00 . P7A : ... .. 0 ... : ... .. . ... ... : ... .. . ... ... : ... .. . ... ... : ... .. . ... ...
ROW BE : ... .. . ... ... ... : ... .. . ... ... ... : G-2 00 . P87 : ... .. . ... : ... .. . ... ... : ... .. . ... ... : ... .. . ... ... : ... .. . ... ...
ROW BF : ... .. . ... ... ... : ... .. . ... ... ... : F#2 00 . P77 : ... .. . ... : ... .. . ... ... : ... .. . ... ... : ... .. . ... ... : ... .. . ... ...
ROW C0 : ... .. . ... ... ... : ... .. 3 ... ... ... : E-2 00 . P8F : 1-# 00 F ... : ... .. . ... ... : --- .. . ... ... : --- .. . ... ... : ... .. . ... ...
ROW C1 : ... .. 2 ... ... ... : ... .. . ... ... ... : D#2 00 . P85 : ... .. C ... : ... .. . ... ... : ... .. . ... ... : ... .. . ... ... : ... .. . ... ...
ROW C2 : ... .. . ... ... ... : ... .. 2 ... ... ... : D-2 00 . P7E : ... .. 6 ... : ... .. . ... ... : ... .. . ... ... : ... .. . ... ... : ... .. . ... ...
ROW C3 : ... .. . ... ... ... : ... .. . ... ... ... : C#2 00 . P79 : ... .. 3 ... : ... .. . ... ... : ... .. . ... ... : ... .. . ... ... : ... .. . ... ...
ROW C4 : ... .. 1 ... ... ... : ... .. . ... ... ... : C-2 00 . P77 : ... .. 2 ... : ... .. . ... ... : ... .. . ... ... : ... .. . ... ... : ... .. . ... ...
ROW C5 : ... .. . ... ... ... : ... .. 1 ... ... ... : B-1 00 . P78 : ... .. 0 ... : ... .. . ... ... : ... .. . ... ... : ... .. . ... ... : ... .. . ... ...
ROW C6 : ... .. . ... ... ... : ... .. . ... ... ... : A#1 00 . P7C : ... .. . ... : ... .. . ... ... : ... .. . ... ... : ... .. . ... ... : ... .. . ... ...
ROW C7 : ... .. 0 ... ... ... : ... .. . ... ... ... : --- .. . ... : ... .. . ... : ... .. . ... ... : ... .. . ... ... : ... .. . ... ... : --- .. . ... ...
ROW C8 : G#3 00 F P80 ... ... : E-3 00 A ... ... ... : G#3 00 . P85 : ... .. F ... : ... .. . ... ... : C#4 01 5 ... ... : E-4 01 5 ... ... : C#1 01 F ... ...
ROW C9 : ... .. E ... ... ... : ... .. 9 ... ... ... : F-3 00 . P86 : ... .. C ... : ... .. . ... ... : ... .. 4 ... ... : ... .. 4 ... ... : ... .. D ... ...
ROW CA : ... .. D ... ... ... : ... .. 8 ... ... ... : D#3 00 . P7C : ... .. 6 ... : ... .. . ... ... : ... .. . ... ... : ... .. . ... ... : ... .. 8 ... ...
ROW CB : ... .. A ... ... ... : ... .. 6 ... ... ... : C#3 00 . P76 : ... .. 3 ... : ... .. . ... ... : ... .. . ... ... : ... .. . ... ... : ... .. . ... ...
ROW CC : ... .. . ... ... ... : ... .. . ... ... ... : B-2 00 . P75 : ... .. 2 ... : ... .. . ... ... : ... .. 3 ... ... : ... .. 3 ... ... : ... .. . ... ...
ROW CD : ... .. . ... ... ... : ... .. . ... ... ... : A-2 00 . P7A : ... .. 0 ... : ... .. . ... ... : ... .. . ... ... : ... .. . ... ... : ... .. . ... ...
ROW CE : ... .. . ... ... ... : ... .. . ... ... ... : G-2 00 . P87 : ... .. . ... : ... .. . ... ... : ... .. . ... ... : ... .. . ... ... : ... .. . ... ...
ROW CF : ... .. . ... ... ... : ... .. . ... ... ... : F#2 00 . P77 : ... .. . ... : ... .. . ... ... : ... .. . ... ... : ... .. . ... ... : ... .. . ... ...
ROW D0 : ... .. . ... ... ... : ... .. . ... ... ... : E-2 00 . P8F : 5-# 00 F ... : ... .. . ... ... : --- .. . ... ... : --- .. . ... ... : ... .. . ... ...
ROW D1 : ... .. 2 ... ... ... : ... .. 1 ... ... ... : D#2 00 . P85 : ... .. C ... : ... .. . ... ... : ... .. . ... ... : ... .. . ... ... : ... .. . ... ...
ROW D2 : ... .. . ... ... ... : ... .. . ... ... ... : D-2 00 . P7E : ... .. 6 ... : ... .. . ... ... : ... .. . ... ... : ... .. . ... ... : ... .. . ... ...
ROW D3 : ... .. . ... ... ... : ... .. . ... ... ... : C#2 00 . P79 : ... .. 3 ... : ... .. . ... ... : ... .. . ... ... : ... .. . ... ... : ... .. . ... ...
ROW D4 : ... .. 1 ... ... ... : ... .. . ... ... ... : C-2 00 . P77 : ... .. 2 ... : ... .. . ... ... : ... .. . ... ... : ... .. . ... ... : ... .. . ... ...
ROW D5 : ... .. . ... ... ... : ... .. . ... ... ... : B-1 00 . P78 : ... .. 0 ... : ... .. . ... ... : ... .. . ... ... : ... .. . ... ... : ... .. . ... ...
ROW D6 : ... .. . ... ... ... : ... .. . ... ... ... : A#1 00 . P7C : ... .. . ... : ... .. . ... ... : ... .. . ... ... : ... .. . ... ... : ... .. . ... ...
ROW D7 : ... .. 0 ... ... ... : ... .. 0 ... ... ... : A-1 00 . P83 : ... .. . ... : ... .. . ... ... : ... .. . ... ... : ... .. . ... ... : ... .. . ... ...
ROW D8 : C#5 00 F P80 ... ... : E-4 00 A P80 ... ... : A#4 00 . P7E : D-# 00 A ... : ... .. . ... ... : B-3 01 4 ... V05 : E-4 01 4 ... V05 : C#2 01 F ... ...
ROW D9 : ... .. E ... ... ... : ... .. 9 ... ... ... : G#4 00 . ... : ... .. . ... : ... .. . ... ... : ... .. . ... ... : ... .. . ... ... : ... .. D ... ...
ROW DA : ... .. D ... ... ... : ... .. 8 ... ... ... : F#4 00 . P7F : ... .. . ... : ... .. . ... ... : ... .. . ... ... : ... .. . ... ... : ... .. 8 ... ...
ROW DB : ... .. A ... ... ... : ... .. 6 ... ... ... : E-4 00 . P83 : ... .. . ... : ... .. . ... ... : ... .. . ... ... : ... .. . ... ... : ... .. . ... ...
ROW DC : ... .. . ... ... ... : ... .. . ... ... ... : D#4 00 . P7E : ... .. C ... : ... .. . ... ... : ... .. 3 ... ... : ... .. 3 ... ... : ... .. . ... ...
ROW DD : ... .. . ... ... ... : ... .. . ... ... ... : C#4 00 . P85 : ... .. . ... : ... .. . ... ... : ... .. . ... ... : ... .. . ... ... : ... .. . ... ...
ROW DE : ... .. . ... ... ... : ... .. . ... ... ... : C-4 00 . P82 : ... .. . ... : ... .. . ... ... : ... .. . ... ... : ... .. . ... ... : ... .. . ... ...
ROW DF : ... .. . ... ... ... : ... .. . ... ... ... : B-3 00 . P7F : ... .. . ... : ... .. . ... ... : ... .. . ... ... : ... .. . ... ... : ... .. . ... ...
ROW E0 : ... .. . ... ... ... : ... .. . ... ... ... : A#3 00 . P7E : ... .. A ... : ... .. . ... ... : --- .. . ... ... : --- .. . ... ... : ... .. . P70 ...
ROW E1 : ... .. . ... ... ... : ... .. . ... ... ... : A-3 00 . P7D : ... .. . ... : ... .. . ... ... : ... .. . ... ... : ... .. . ... ... : C-2 01 8 P97 ...
ROW E2 : ... .. . ... ... ... : ... .. . ... ... ... : G#3 00 . ... : ... .. . ... : ... .. . ... ... : ... .. . ... ... : ... .. . ... ... : ... .. . P87 ...
ROW E3 : ... .. . ... ... ... : ... .. . ... ... ... : G-3 00 . P7E : ... .. . ... : ... .. . ... ... : ... .. . ... ... : ... .. . ... ... : ... .. . P77 ...
ROW E4 : ... .. . ... ... ... : ... .. . ... ... ... : F#3 00 . P80 : ... .. 7 ... : ... .. . ... ... : ... .. . ... ... : ... .. . ... ... : ... .. . P67 ...
ROW E5 : ... .. 2 ... ... ... : ... .. 1 ... ... ... : F-3 00 . P83 : ... .. . ... : ... .. . ... ... : ... .. . ... ... : ... .. . ... ... : B-1 01 8 P91 ...
ROW E6 : ... .. . ... ... ... : ... .. . ... ... ... : E-3 00 . P87 : ... .. . ... : ... .. . ... ... : ... .. . ... ... : ... .. . ... ... : ... .. . P81 ...
ROW E7 : ... .. . ... ... ... : ... .. . ... ... ... : ... .. . P78 : ... .. . ... : ... .. . ... ... : ... .. . ... ... : ... .. . ... ... : ... .. . P71 ...
ROW E8 : ... .. 8 ... ... ... : ... .. 8 ... ... ... : F-4 00 . P82 : ... .. 5 ... : ... .. . ... ... : B-3 01 2 ... ... : E-4 01 2 ... ... : A#1 01 8 P9F ...
ROW E9 : ... .. 7 ... ... ... : ... .. 7 ... ... ... : E-4 00 . P7D : ... .. . ... : ... .. . ... ... : ... .. . ... ... : ... .. . ... ... : ... .. . P8F ...
ROW EA : ... .. 6 ... ... ... : ... .. 6 ... ... ... : D-4 00 . P82 : ... .. . ... : ... .. . ... ... : ... .. . ... ... : ... .. . ... ... : ... .. . P7F ...
ROW EB : ... .. 5 ... ... ... : ... .. 5 ... ... ... : C#4 00 . P7F : ... .. . ... : ... .. . ... ... : ... .. . ... ... : ... .. . ... ... : ... .. . P6F ...
ROW EC : ... .. . ... ... ... : ... .. . ... ... ... : C-4 00 . P7C : ... .. 3 ... : ... .. . ... ... : ... .. 1 ... ... : ... .. 1 ... ... : A-1 01 8 PA0 ...
ROW ED : ... .. . ... ... ... : ... .. 1 ... ... ... : A#3 00 . P87 : ... .. . ... : ... .. . ... ... : ... .. . ... ... : ... .. . ... ... : ... .. . P90 ...
ROW EE : ... .. . ... ... ... : ... .. . ... ... ... : A-3 00 . P86 : ... .. . ... : ... .. . ... ... : ... .. . ... ... : ... .. . ... ... : ... .. . P80 ...
ROW EF : ... .. . ... ... ... : ... .. . ... ... ... : G#3 00 . ... : ... .. . ... : ... .. . ... ... : ... .. . ... ... : ... .. . ... ... : --- .. . P7F ...
ROW F0 : C#3 00 F ... ... ... : G#2 00 7 ... ... ... : D#4 00 . P85 : 5-# 00 F ... : ... .. . ... ... : --- .. . ... ... : --- .. . ... ... : C#1 01 F P80 ...
ROW F1 : ... .. E ... ... ... : ... .. A ... ... ... : D-4 00 . P80 : ... .. C ... : ... .. . ... ... : ... .. . ... ... : ... .. . ... ... : ... .. D ... ...
ROW F2 : ... .. D ... ... ... : ... .. 7 ... ... ... : C#4 00 . P7D : ... .. 6 ... : ... .. . ... ... : ... .. . ... ... : ... .. . ... ... : ... .. 8 ... ...
ROW F3 : ... .. A ... ... ... : ... .. 0 ... ... ... : B-3 00 . P86 : ... .. 3 ... : ... .. . ... ... : ... .. . ... ... : ... .. . ... ... : ... .. . ... ...
ROW F4 : ... .. . ... ... ... : G#2 00 5 P80 ... ... : A#3 00 . P85 : ... .. 2 ... : ... .. . ... ... : ... .. . ... ... : ... .. . ... ... : ... .. . ... ...
ROW F5 : ... .. 2 ... ... ... : ... .. 8 ... ... ... : A-3 00 . P84 : ... .. 0 ... : ... .. . ... ... : ... .. . ... ... : ... .. . ... ... : ... .. . ... ...
ROW F6 : ... .. . ... ... ... : ... .. 0 ... ... ... : G#3 00 . ... : ... .. . ... : ... .. . ... ... : ... .. . ... ... : ... .. . ... ... : ... .. . ... ...
ROW F7 : ... .. . ... ... ... : ... .. . ... ... ... : --- .. . ... : ... .. . ... : ... .. . ... ... : ... .. . ... ... : ... .. . ... ... : --- .. . P81 ...
ROW F8 : F#3 00 F ... ... ... : D#3 00 8 P80 ... ... : G#3 00 . P85 : C-# 00 8 ... : ... .. . ... ... : C#4 01 A ... V00 : D#4 01 A ... V00 : B-0 01 F P80 ...
ROW F9 : ... .. E ... ... ... : ... .. 7 ... ... ... : F-3 00 . P86 : ... .. 6 ... : ... .. . ... ... : ... .. 9 ... ... : ... .. 9 ... ... : ... .. D ... ...
ROW FA : ... .. D ... ... ... : ... .. . ... ... ... : D#3 00 . P7C : ... .. 3 ... : ... .. . ... ... : ... .. . ... ... : ... .. . ... ... : ... .. 8 ... ...
ROW FB : ... .. A ... ... ... : ... .. 6 ... ... ... : C#3 00 . P76 : ... .. 1 ... : ... .. . ... ... : ... .. 8 ... ... : ... .. 8 ... ... : ... .. . ... ...
ROW FC : ... .. . ... ... ... : ... .. 5 ... ... ... : B-2 00 . P75 : ... .. . ... : ... .. . ... ... : ... .. 7 ... ... : ... .. 7 ... ... : ... .. . ... ...
ROW FD : ... .. . ... ... ... : ... .. 4 ... ... ... : A-2 00 . P7A : ... .. 0 ... : ... .. . ... ... : ... .. . ... ... : ... .. . ... ... : ... .. . ... ...
ROW FE : ... .. . ... ... ... : ... .. . ... ... ... : G-2 00 . P87 : ... .. . ... : ... .. . ... ... : ... .. 6 ... ... : ... .. 6 ... ... : ... .. . ... ...
ROW FF : ... .. . ... ... ... : ... .. . ... ... ... : F#2 00 . P77 : ... .. . ... : ... .. . ... ... : ... .. . ... ... : ... .. . ... ... : ... .. . ... ...

PATTERN 09
ROW 00 : ... .. . ... ... ... : ... .. 3 ... ... ... : E-2 00 . P8F : 1-# 00 F ... : ... .. . ... ... : --- .. . ... ... : --- .. . ... ... : ... .. . ... ...
ROW 01 : ... .. . ... ... ... : ... .. . ... ... ... : D#2 00 . P85 : ... .. C ... : ... .. . ... ... : ... .. . ... ... : ... .. . ... ... : ... .. . ... ...
ROW 02 : ... .. . ... ... ... : ... .. 2 ... ... ... : D-2 00 . P7E : ... .. 6 ... : ... .. . ... ... : ... .. . ... ... : ... .. . ... ... : ... .. . ... ...
ROW 03 : ... .. . ... ... ... : ... .. . ... ... ... : C#2 00 . P79 : ... .. 3 ... : ... .. . ... ... : ... .. . ... ... : ... .. . ... ... : ... .. . ... ...
ROW 04 : ... .. . ... ... ... : ... .. . ... ... ... : C-2 00 . P77 : ... .. 2 ... : ... .. . ... ... : ... .. . ... ... : ... .. . ... ... : ... .. . ... ...
ROW 05 : ... .. 2 ... ... ... : ... .. 1 ... ... ... : B-1 00 . P78 : ... .. 0 ... : ... .. . ... ... : ... .. . ... ... : ... .. . ... ... : ... .. . ... ...
ROW 06 : ... .. . ... ... ... : ... .. . ... ... ... : A#1 00 . P7C : ... .. . ... : ... .. . ... ... : ... .. . ... ... : ... .. . ... ... : ... .. . ... ...
ROW 07 : ... .. . ... ... ... : ... .. . ... ... ... : --- .. . ... : ... .. . ... : ... .. . ... ... : ... .. . ... ... : ... .. . ... ... : --- .. . ... ...
ROW 08 : G#3 00 F ... ... ... : B-2 00 8 ... ... ... : G#3 00 . P85 : ... .. F ... : ... .. . ... ... : C#4 01 A ... ... : E-4 01 A ... ... : C#1 01 F ... ...
ROW 09 : ... .. E ... ... ... : ... .. 7 ... ... ... : F-3 00 . P86 : ... .. C ... : ... .. . ... ... : ... .. 9 ... ... : ... .. 9 ... ... : ... .. D ... ...
ROW 0A : ... .. D ... ... ... : ... .. . ... ... ... : D#3 00 . P7C : ... .. 6 ... : ... .. . ... ... : ... .. . ... ... : ... .. . ... ... : ... .. 8 ... ...
ROW 0B : ... .. A ... ... ... : ... .. 6 ... ... ... : C#3 00 . P76 : ... .. 3 ... : ... .. . ... ... : ... .. 8 ... ... : ... .. 8 ... ... : ... .. . ... ...
ROW 0C : ... .. . ... ... ... : ... .. 5 ... ... ... : B-2 00 . P75 : ... .. 2 ... : ... .. . ... ... : ... .. 7 ... ... : ... .. 7 ... ... : ... .. . ... ...
ROW 0D : ... .. . ... ... ... : ... .. 4 ... ... ... : A-2 00 . P7A : ... .. 0 ... : ... .. . ... ... : ... .. . ... ... : ... .. . ... ... : ... .. . ... ...
ROW 0E : ... .. . ... ... ... : ... .. . ... ... ... : G-2 00 . P87 : ... .. . ... : ... .. . ... ... : ... .. 6 ... ... : ... .. 6 ... ... : ... .. . ... ...
ROW 0F : ... .. . ... ... ... : ... .. . ... ... ... : F#2 00 . P77 : ... .. . ... : ... .. . ... ... : ... .. . ... ... : ... .. . ... ... : ... .. . ... ...
ROW 10 : ... .. . ... ... ... : ... .. 3 ... ... ... : E-2 00 . P8F : 5-# 00 F ... : ... .. . ... ... : --- .. . ... ... : --- .. . ... ... : ... .. . ... ...
ROW 11 : ... .. . ... ... ... : ... .. . ... ... ... : D#2 00 . P85 : ... .. C ... : ... .. . ... ... : ... .. . ... ... : ... .. . ... ... : ... .. . ... ...
ROW 12 : ... .. . ... ... ... : ... .. 2 ... ... ... : D-2 00 . P7E : ... .. 6 ... : ... .. . ... ... : ... .. . ... ... : ... .. . ... ... : ... .. . ... ...
ROW 13 : ... .. . ... ... ... : ... .. . ... ... ... : C#2 00 . P79 : ... .. 3 ... : ... .. . ... ... : ... .. . ... ... : ... .. . ... ... : ... .. . ... ...
ROW 14 : ... .. . ... ... ... : ... .. . ... ... ... : C-2 00 . P77 : ... .. 2 ... : ... .. . ... ... : ... .. . ... ... : ... .. . ... ... : ... .. . ... ...
ROW 15 : ... .. . ... ... ... : ... .. 1 ... ... ... : B-1 00 . P78 : ... .. 0 ... : ... .. . ... ... : ... .. . ... ... : ... .. . ... ... : ... .. . ... ...
ROW 16 : ... .. . ... ... ... : ... .. . ... ... ... : A#1 00 . P7C : ... .. . ... : ... .. . ... ... : ... .. . ... ... : ... .. . ... ... : ... .. . ... ...
ROW 17 : ... .. . ... ... ... : ... .. . ... ... ... : A-1 00 . P83 : ... .. . ... : ... .. . ... ... : ... .. . ... ... : ... .. . ... ... : ... .. . ... ...
ROW 18 : B-4 00 F ... ... ... : E-4 00 A ... ... ... : A#4 00 . P7E : D-# 00 A ... : ... .. . ... ... : F#3 01 9 ... V05 : D#4 01 9 ... V05 : C#2 01 F ... ...
ROW 19 : ... .. E ... ... ... : ... .. 9 ... ... ... : G#4 00 . ... : ... .. . ... : ... .. . ... ... : ... .. 8 ... ... : ... .. 8 ... ... : ... .. D ... ...
ROW 1A : ... .. D ... ... ... : ... .. 8 ... ... ... : F#4 00 . P7F : ... .. . ... : ... .. . ... ... : ... .. . ... ... : ... .. . ... ... : ... .. 8 ... ...
ROW 1B : ... .. A ... ... ... : ... .. 6 ... ... ... : E-4 00 . P83 : ... .. . ... : ... .. . ... ... : ... .. . ... ... : ... .. . ... ... : ... .. . ... ...
ROW 1C : ... .. . ... ... ... : ... .. . ... ... ... : D#4 00 . P7E : ... .. C ... : ... .. . ... ... : ... .. 7 ... ... : ... .. 7 ... ... : ... .. . ... ...
ROW 1D : ... .. . ... ... ... : ... .. . ... ... ... : C#4 00 . P85 : ... .. . ... : ... .. . ... ... : ... .. . ... ... : ... .. . ... ... : ... .. . ... ...
ROW 1E : ... .. . ... ... ... : ... .. . ... ... ... : C-4 00 . P82 : ... .. . ... : ... .. . ... ... : ... .. . ... ... : ... .. . ... ... : ... .. . ... ...
ROW 1F : ... .. . ... ... ... : ... .. . ... ... ... : B-3 00 . P7F : ... .. . ... : ... .. . ... ... : ... .. 6 ... ... : ... .. 6 ... ... : ... .. . ... ...
ROW 20 : ... .. . ... ... ... : F#2 00 8 ... ... ... : A-3 00 . P7C : ... .. A ... : ... .. . ... ... : --- .. . P7F ... : --- .. . ... ... : ... .. . P70 ...
ROW 21 : ... .. . ... ... ... : ... .. 7 ... ... ... : G-3 00 . ... : ... .. . ... : ... .. . ... ... : ... .. . ... ... : ... .. . ... ... : C-2 01 8 P97 ...
ROW 22 : ... .. . ... ... ... : ... .. . ... ... ... : F-3 00 . P80 : ... .. . ... : ... .. . ... ... : ... .. . ... ... : ... .. . ... ... : ... .. . P87 ...
ROW 23 : ... .. . ... ... ... : ... .. 6 ... ... ... : D#3 00 . P89 : ... .. . ... : ... .. . ... ... : ... .. . ... ... : ... .. . ... ... : ... .. . P77 ...
ROW 24 : ... .. . ... ... ... : G#2 00 8 ... ... ... : D-3 00 . P7F : ... .. 7 ... : ... .. . ... ... : ... .. . ... ... : ... .. . ... ... : ... .. . P67 ...
ROW 25 : ... .. 2 ... ... ... : ... .. 7 ... ... ... : C#3 00 . P77 : ... .. . ... : ... .. . ... ... : ... .. . ... ... : ... .. . ... ... : B-1 01 8 P91 ...
ROW 26 : ... .. . ... ... ... : ... .. . ... ... ... : B-2 00 . P89 : ... .. . ... : ... .. . ... ... : ... .. . ... ... : ... .. . ... ... : ... .. . P81 ...
ROW 27 : ... .. . ... ... ... : ... .. 6 ... ... ... : A#2 00 . P85 : ... .. . ... : ... .. . ... ... : ... .. . ... ... : ... .. . ... ... : ... .. . P71 ...
ROW 28 : C#3 00 F ... ... ... : A-2 00 8 ... ... ... : F-4 00 . P82 : ... .. 5 ... : ... .. . ... ... : F#3 01 2 P80 ... : D#4 01 2 ... ... : A#1 01 8 P9F ...
ROW 29 : ... .. E ... ... ... : ... .. 7 ... ... ... : D-4 00 . P81 : ... .. . ... : ... .. . ... ... : ... .. . ... ... : ... .. . ... ... : ... .. . P8F ...
ROW 2A : ... .. D ... ... ... : ... .. . ... ... ... : B-3 00 . P86 : ... .. . ... : ... .. . ... ... : ... .. . ... ... : ... .. . ... ... : ... .. . P7F ...
ROW 2B : ... .. A ... ... ... : ... .. 6 ... ... ... : A-3 00 . P83 : ... .. . ... : ... .. . ... ... : ... .. . ... ... : ... .. . ... ... : ... .. . P6F ...
ROW 2C : ... .. . ... ... ... : B-2 00 8 ... ... ... : G-3 00 . ... : ... .. 3 ... : ... .. . ... ... : ... .. 1 ... ... : ... .. 1 ... ... : A-1 01 8 PA0 ...
ROW 2D : ... .. . ... ... ... : ... .. 7 ... ... ... : F-3 00 . P87 : ... .. . ... : ... .. . ... ... : ... .. . ... ... : ... .. . ... ... : ... .. . P90 ...
ROW 2E : ... .. . ... ... ... : ... .. . ... ... ... : E-3 00 . P7B : ... .. . ... : ... .. . ... ... : ... .. . ... ... : ... .. . ... ... : ... .. . P80 ...
ROW 2F : ... .. . ... ... ... : ... .. 6 ... ... ... : --- .. . ... : ... .. . ... : ... .. . ... ... : ... .. . ... ... : ... .. . ... ... : --- .. . P7F ...
ROW 30 : E-3 00 F ... ... ... : C#3 00 8 ... ... ... : F#3 00 . P80 : 5-# 00 F ... : ... .. . ... ... : ... .. . ... ... : --- .. . ... ... : F#1 01 F P80 ...
ROW 31 : ... .. E ... ... ... : ... .. 7 ... ... ... : ... .. . ... : ... .. C ... : ... .. . ... ... : ... .. . ... ... : ... .. . ... ... : ... .. D ... ...
ROW 32 : ... .. D ... ... ... : ... .. . ... ... ... : ... .. . ... : ... .. 6 ... : ... .. . ... ... : ... .. . ... ... : ... .. . ... ... : ... .. 8 ... ...
ROW 33 : ... .. A ... ... ... : ... .. 6 ... ... ... : ... .. . ... : ... .. 3 ... : ... .. . ... ... : ... .. . ... ... : ... .. . ... ... : ... .. . ... ...
ROW 34 : ... .. . ... ... ... : D#3 00 8 ... ... ... : ... .. . ... : ... .. 2 ... : ... .. . ... ... : ... .. . ... ... : ... .. . ... ... : ... .. . ... ...
ROW 35 : ... .. . ... ... ... : ... .. 7 ... ... ... : ... .. . ... : ... .. 0 ... : ... .. . ... ... : ... .. . ... ... : ... .. . ... ... : ... .. . ... ...
ROW 36 : ... .. . ... ... ... : ... .. . ... ... ... : ... .. . ... : ... .. . ... : ... .. . ... ... : ... .. . ... ... : ... .. . ... ... : ... .. . ... ...
ROW 37 : ... .. . ... ... ... : ... .. 6 ... ... ... : --- .. . ... : ... .. . ... : ... .. . ... ... : ... .. . ... ... : ... .. . ... ... : --- .. . P81 ...
ROW 38 : G#3 00 F ... ... ... : E-3 00 8 ... ... ... : G#3 00 . ... : 1-# 00 F ... : ... .. . ... ... : ... .. . ... ... : ... .. . ... ... : G#1 01 F P80 ...
ROW 39 : ... .. E ... ... ... : ... .. 7 ... ... ... : ... .. . ... : ... .. C ... : ... .. . ... ... : ... .. . ... ... : ... .. . ... ... : ... .. D ... ...
ROW 3A : ... .. D ... ... ... : ... .. . ... ... ... : ... .. . ... : ... .. 6 ... : ... .. . ... ... : ... .. . ... ... : ... .. . ... ... : ... .. 8 ... ...
ROW 3B : ... .. A ... ... ... : ... .. 6 ... ... ... : ... .. . ... : ... .. 3 ... : ... .. . ... ... : ... .. . ... ... : ... .. . ... ... : ... .. . ... ...
ROW 3C : ... .. . ... ... ... : F#3 00 8 ... ... ... : ... .. . ... : ... .. 2 ... : ... .. . ... ... : ... .. . ... ... : ... .. . ... ... : ... .. . ... ...
ROW 3D : ... .. 2 ... ... ... : ... .. 7 ... ... ... : ... .. . ... : ... .. 0 ... : ... .. . ... ... : ... .. . ... ... : ... .. . ... ... : ... .. . ... ...
ROW 3E : ... .. . ... ... ... : ... .. . ... ... ... : ... .. . ... : ... .. . ... : ... .. . ... ... : ... .. . ... ... : ... .. . ... ... : ... .. . ... ...
ROW 3F : ... .. . ... ... ... : ... .. 6 ... ... ... : --- .. . ... : ... .. . ... : ... .. . ... ... : ... .. . ... ... : ... .. . ... ... : --- .. . P7E ...
ROW 40 : F#3 00 F ... ... ... : A-2 00 7 ... ... ... : G#3 00 . P85 : ... .. F ... : ... .. . ... ... : D-3 01 6 ... ... : A-2 01 6 ... ... : A-1 01 F P80 ...
ROW 41 : ... .. E ... ... ... : ... .. A ... ... ... : F-3 00 . P86 : ... .. C ... : ... .. . ... ... : ... .. 5 ... ... : ... .. 5 ... ... : ... .. D ... ...
ROW 42 : ... .. D ... ... ... : ... .. 7 ... ... ... : D#3 00 . P7C : ... .. 6 ... : ... .. . ... ... : ... .. . ... ... : ... .. . ... ... : ... .. 8 ... ...
ROW 43 : ... .. A ... ... ... : ... .. 0 ... ... ... : C#3 00 . P76 : ... .. 3 ... : ... .. . ... ... : ... .. . ... ... : ... .. . ... ... : ... .. . ... ...
ROW 44 : ... .. . ... ... ... : A-2 00 5 P80 ... ... : B-2 00 . P75 : ... .. 2 ... : ... .. . ... ... : ... .. 4 ... ... : ... .. 4 ... ... : ... .. . ... ...
ROW 45 : ... .. . ... ... ... : ... .. 8 ... ... ... : A-2 00 . P7A : ... .. 0 ... : ... .. . ... ... : ... .. . ... ... : ... .. . ... ... : ... .. . ... ...
ROW 46 : ... .. . ... ... ... : ... .. 0 ... ... ... : G-2 00 . P87 : ... .. . ... : ... .. . ... ... : ... .. . ... ... : ... .. . ... ... : ... .. . ... ...
ROW 47 : ... .. . ... ... ... : ... .. . ... ... ... : --- .. . ... : ... .. . ... : ... .. . ... ... : ... .. . ... ... : ... .. . ... ... : --- .. . P7F ...
ROW 48 : ... .. . ... ... ... : G#2 00 7 P80 ... ... : A-3 00 . P80 : ... .. F ... : ... .. . ... ... : ... .. . ... ... : ... .. . ... ... : A-1 01 F P80 ...
ROW 49 : ... .. . ... ... ... : ... .. A ... ... ... : ... .. . ... : ... .. C ... : ... .. . ... ... : ... .. . ... ... : ... .. . ... ... : ... .. D ... ...
ROW 4A : ... .. . ... ... ... : ... .. 7 ... ... ... : ... .. . ... : ... .. 6 ... : ... .. . ... ... : ... .. . ... ... : ... .. . ... ... : ... .. 8 ... ...
ROW 4B : ... .. . ... ... ... : ... .. 0 ... ... ... : ... .. . ... : ... .. 3 ... : ... .. . ... ... : ... .. . ... ... : ... .. . ... ... : ... .. . ... ...
ROW 4C : ... .. . ... ... ... : G#2 00 5 P80 ... ... : ... .. . ... : ... .. 2 ... : ... .. . ... ... : ... .. . ... ... : ... .. . ... ... : ... .. . ... ...
ROW 4D : ... .. . ... ... ... : ... .. 8 ... ... ... : ... .. . ... : ... .. 0 ... : ... .. . ... ... : ... .. . ... ... : ... .. . ... ... : ... .. . ... ...
ROW 4E : ... .. . ... ... ... : ... .. 0 ... ... ... : ... .. . ... : ... .. . ... : ... .. . ... ... : ... .. . ... ... : ... .. . ... ... : ... .. . ... ...
ROW 4F : ... .. . ... ... ... : ... .. . ... ... ... : --- .. . ... : ... .. . ... : ... .. . ... ... : ... .. . ... ... : ... .. . ... ... : --- .. . P7F ...
ROW 50 : E-3 00 F ... ... ... : A-2 00 7 P80 ... ... : B-3 00 . P7D : 5-# 00 F ... : ... .. . ... ... : ... .. . ... ... : ... .. . ... ... : A-1 01 F P80 ...
ROW 51 : ... .. E ... ... ... : ... .. A ... ... ... : A#3 00 . P7C : ... .. C ... : ... .. . ... ... : ... .. . ... ... : ... .. . ... ... : ... .. D ... ...
ROW 52 : ... .. D ... ... ... : ... .. 7 ... ... ... : A-3 00 . P7B : ... .. 6 ... : ... .. . ... ... : ... .. . ... ... : ... .. . ... ... : ... .. 8 ... ...
ROW 53 : ... .. A ... ... ... : ... .. 0 ... ... ... : G#3 00 . ... : ... .. 3 ... : ... .. . ... ... : ... .. . ... ... : ... .. . ... ... : ... .. . ... ...
ROW 54 : ... .. . ... ... ... : A-2 00 5 P80 ... ... : G-3 00 . P7C : ... .. 2 ... : ... .. . ... ... : ... .. . ... ... : ... .. . ... ... : ... .. . ... ...
ROW 55 : ... .. . ... ... ... : ... .. 8 ... ... ... : F#3 00 . P7E : ... .. 0 ... : ... .. . ... ... : ... .. . ... ... : ... .. . ... ... : ... .. . ... ...
ROW 56 : ... .. . ... ... ... : ... .. 0 ... ... ... : F-3 00 . P81 : ... .. . ... : ... .. . ... ... : ... .. . ... ... : ... .. . ... ... : ... .. . ... ...
ROW 57 : ... .. . ... ... ... : ... .. . ... ... ... : --- .. . ... : ... .. . ... : ... .. . ... ... : ... .. . ... ... : ... .. . ... ... : --- .. . P7F ...
ROW 58 : F#3 00 F ... ... ... : G#3 00 7 P80 ... ... : A-3 00 . P80 : 1-# 00 F ... : ... .. . ... ... : ... .. . ... ... : ... .. . ... ... : A-1 01 F P80 ...
ROW 59 : ... .. E ... ... ... : ... .. A ... ... ... : ... .. . ... : ... .. C ... : ... .. . ... ... : ... .. . ... ... : ... .. . ... ... : ... .. D ... ...
ROW 5A : ... .. D ... ... ... : ... .. 7 ... ... ... : ... .. . ... : ... .. 6 ... : ... .. . ... ... : ... .. . ... ... : ... .. . ... ... : ... .. 8 ... ...
ROW 5B : ... .. A ... ... ... : ... .. 0 ... ... ... : ... .. . ... : ... .. 3 ... : ... .. . ... ... : ... .. . ... ... : ... .. . ... ... : ... .. . ... ...
ROW 5C : ... .. . ... ... ... : G#3 00 5 P80 ... ... : ... .. . ... : ... .. 2 ... : ... .. . ... ... : ... .. . ... ... : ... .. . ... ... : ... .. . ... ...
ROW 5D : ... .. . ... ... ... : ... .. 8 ... ... ... : ... .. . ... : ... .. 0 ... : ... .. . ... ... : ... .. . ... ... : ... .. . ... ... : ... .. . ... ...
ROW 5E : ... .. . ... ... ... : ... .. 0 ... ... ... : ... .. . ... : ... .. . ... : ... .. . ... ... : ... .. . ... ... : ... .. . ... ... : ... .. . ... ...
ROW 5F : ... .. . ... ... ... : ... .. . ... ... ... : --- .. . ... : ... .. . ... : ... .. . ... ... : ... .. . ... ... : ... .. . ... ... : --- .. . P7F ...
ROW 60 : ... .. . ... ... ... : G#2 00 7 P80 ... ... : G#3 00 . P85 : C-# 00 8 ... : ... .. . ... ... : E-3 01 6 ... ... : B-2 01 6 ... ... : A-1 01 F P80 ...
ROW 61 : ... .. . ... ... ... : ... .. A ... ... ... : F-3 00 . P86 : ... .. 6 ... : ... .. . ... ... : ... .. 5 ... ... : ... .. 5 ... ... : ... .. D ... ...
ROW 62 : ... .. . ... ... ... : ... .. 7 ... ... ... : D#3 00 . P7C : ... .. 3 ... : ... .. . ... ... : ... .. . ... ... : ... .. . ... ... : ... .. 8 ... ...
ROW 63 : ... .. . ... ... ... : ... .. 0 ... ... ... : C#3 00 . P76 : ... .. 1 ... : ... .. . ... ... : ... .. . ... ... : ... .. . ... ... : ... .. . ... ...
ROW 64 : ... .. . ... ... ... : G#2 00 5 P80 ... ... : B-2 00 . P75 : ... .. . ... : ... .. . ... ... : ... .. 4 ... ... : ... .. 4 ... ... : ... .. . ... ...
ROW 65 : ... .. . ... ... ... : ... .. 8 ... ... ... : A-2 00 . P7A : ... .. 0 ... : ... .. . ... ... : ... .. . ... ... : ... .. . ... ... : ... .. . ... ...
ROW 66 : ... .. . ... ... ... : ... .. 0 ... ... ... : G-2 00 . P87 : ... .. . ... : ... .. . ... ... : ... .. . ... ... : ... .. . ... ... : ... .. . ... ...
ROW 67 : ... .. . ... ... ... : ... .. . ... ... ... : --- .. . ... : ... .. . ... : ... .. . ... ... : ... .. . ... ... : ... .. . ... ... : --- .. . P7F ...
ROW 68 : ... .. . ... ... ... : A-2 00 7 P80 ... ... : A-3 00 . P80 : 1-# 00 F ... : ... .. . ... ... : ... .. . ... ... : ... .. . ... ... : A-1 01 F P80 ...
ROW 69 : ... .. . ... ... ... : ... .. A ... ... ... : ... .. . ... : ... .. C ... : ... .. . ... ... : ... .. . ... ... : ... .. . ... ... : ... .. D ... ...
ROW 6A : ... .. . ... ... ... : ... .. 7 ... ... ... : ... .. . ... : ... .. 6 ... : ... .. . ... ... : ... .. . ... ... : ... .. . ... ... : ... .. 8 ... ...
ROW 6B : ... .. . ... ... ... : ... .. 0 ... ... ... : ... .. . ... : ... .. 3 ... : ... .. . ... ... : ... .. . ... ... : ... .. . ... ... : ... .. . ... ...
ROW 6C : ... .. . ... ... ... : A-2 00 5 P80 ... ... : ... .. . ... : ... .. 2 ... : ... .. . ... ... : ... .. . ... ... : ... .. . ... ... : ... .. . ... ...
ROW 6D : ... .. . ... ... ... : ... .. 8 ... ... ... : ... .. . ... : ... .. 0 ... : ... .. . ... ... : ... .. . ... ... : ... .. . ... ... : ... .. . ... ...
ROW 6E : ... .. . ... ... ... : ... .. 0 ... ... ... : ... .. . ... : ... .. . ... : ... .. . ... ... : ... .. . ... ... : ... .. . ... ... : ... .. . ... ...
ROW 6F : ... .. . ... ... ... : ... .. . ... ... ... : --- .. . ... : ... .. . ... : ... .. . ... ... : ... .. . ... ... : ... .. . ... ... : --- .. . P7F ...
ROW 70 : ... .. . ... ... ... : E-3 00 7 P80 ... ... : B-3 00 . P7D : 5-# 00 F ... : ... .. . ... ... : ... .. . ... ... : ... .. . ... ... : A-1 01 F P80 ...
ROW 71 : ... .. . ... ... ... : ... .. A ... ... ... : A#3 00 . P7C : ... .. C ... : ... .. . ... ... : ... .. . ... ... : ... .. . ... ... : ... .. D ... ...
ROW 72 : ... .. . ... ... ... : ... .. 7 ... ... ... : A-3 00 . P7B : ... .. 6 ... : ... .. . ... ... : ... .. . ... ... : ... .. . ... ... : ... .. 8 ... ...
ROW 73 : ... .. . ... ... ... : ... .. 0 ... ... ... : G#3 00 . ... : ... .. 3 ... : ... .. . ... ... : ... .. . ... ... : ... .. . ... ... : ... .. . ... ...
ROW 74 : ... .. . ... ... ... : E-3 00 5 P80 ... ... : G-3 00 . P7C : ... .. 2 ... : ... .. . ... ... : ... .. . ... ... : ... .. . ... ... : ... .. . ... ...
ROW 75 : ... .. 2 ... ... ... : ... .. 8 ... ... ... : F#3 00 . P7E : ... .. 0 ... : ... .. . ... ... : ... .. . ... ... : ... .. . ... ... : ... .. . ... ...
ROW 76 : ... .. . ... ... ... : ... .. 0 ... ... ... : F-3 00 . P81 : ... .. . ... : ... .. . ... ... : ... .. . ... ... : ... .. . ... ... : ... .. . ... ...
ROW 77 : ... .. . ... ... ... : ... .. . ... ... ... : --- .. . ... : ... .. . ... : ... .. . ... ... : ... .. . ... ... : ... .. . ... ... : --- .. . P7F ...
ROW 78 : ... .. 1 ... ... ... : F#3 00 7 P80 ... ... : A-3 00 . P80 : 1-# 00 8 ... : ... .. . ... ... : ... .. . ... ... : ... .. . ... ... : A-1 01 F P80 ...
ROW 79 : ... .. . ... ... ... : ... .. A ... ... ... : ... .. . ... : ... .. 6 ... : ... .. . ... ... : ... .. . ... ... : ... .. . ... ... : ... .. D ... ...
ROW 7A : ... .. . ... ... ... : ... .. 7 ... ... ... : ... .. . ... : ... .. 3 ... : ... .. . ... ... : ... .. . ... ... : ... .. . ... ... : ... .. 8 ... ...
ROW 7B : ... .. 0 ... ... ... : ... .. 0 ... ... ... : ... .. . ... : ... .. 1 ... : ... .. . ... ... : ... .. . ... ... : ... .. . ... ... : ... .. . ... ...
ROW 7C : ... .. . ... ... ... : F#3 00 5 P80 ... ... : ... .. . ... : ... .. . ... : ... .. . ... ... : ... .. . ... ... : ... .. . ... ... : ... .. . ... ...
ROW 7D : ... .. . ... ... ... : ... .. 8 ... ... ... : ... .. . ... : ... .. 0 ... : ... .. . ... ... : ... .. . ... ... : ... .. . ... ... : ... .. . ... ...
ROW 7E : ... .. . ... ... ... : ... .. 0 ... ... ... : ... .. . ... : ... .. . ... : ... .. . ... ... : ... .. . ... ... : ... .. . ... ... : ... .. . ... ...
ROW 7F : ... .. . ... ... ... : ... .. . ... ... ... : --- .. . ... : ... .. . ... : ... .. . ... ... : ... .. . ... ... : ... .. . ... ... : --- .. . P7F ...
ROW 80 : F#3 00 F P80 ... ... : A-2 00 7 P80 ... ... : G#3 00 . P85 : ... .. F ... : ... .. . ... ... : F#3 01 6 ... ... : D-3 01 6 ... ... : D-1 01 F P80 ...
ROW 81 : ... .. E ... ... ... : ... .. A ... ... ... : F-3 00 . P86 : ... .. C ... : ... .. . ... ... : ... .. 5 ... ... : ... .. 5 ... ... : ... .. D ... ...
ROW 82 : ... .. D ... ... ... : ... .. 7 ... ... ... : D#3 00 . P7C : ... .. 6 ... : ... .. . ... ... : ... .. . ... ... : ... .. . ... ... : ... .. 8 ... ...
ROW 83 : ... .. A ... ... ... : ... .. 0 ... ... ... : C#3 00 . P76 : ... .. 3 ... : ... .. . ... ... : ... .. . ... ... : ... .. . ... ... : ... .. . ... ...
ROW 84 : ... .. . ... ... ... : A-2 00 5 P80 ... ... : B-2 00 . P75 : ... .. 2 ... : ... .. . ... ... : ... .. 4 ... ... : ... .. 4 ... ... : ... .. . ... ...
ROW 85 : ... .. . ... ... ... : ... .. 8 ... ... ... : A-2 00 . P7A : ... .. 0 ... : ... .. . ... ... : ... .. . ... ... : ... .. . ... ... : ... .. . ... ...
ROW 86 : ... .. . ... ... ... : ... .. 0 ... ... ... : G-2 00 . P87 : ... .. . ... : ... .. . ... ... : ... .. . ... ... : ... .. . ... ... : ... .. . ... ...
ROW 87 : ... .. . ... ... ... : ... .. . ... ... ... : --- .. . ... : ... .. . ... : ... .. . ... ... : ... .. . ... ... : ... .. . ... ... : --- .. . ... ...
ROW 88 : ... .. . ... ... ... : G#2 00 7 P80 ... ... : D-3 00 . P80 : ... .. F ... : ... .. . ... ... : ... .. . ... ... : ... .. . ... ... : D-1 01 F ... ...
ROW 89 : ... .. . ... ... ... : ... .. A ... ... ... : ... .. . ... : ... .. C ... : ... .. . ... ... : ... .. . ... ... : ... .. . ... ... : ... .. D ... ...
ROW 8A : ... .. . ... ... ... : ... .. 7 ... ... ... : ... .. . ... : ... .. 6 ... : ... .. . ... ... : ... .. . ... ... : ... .. . ... ... : ... .. 8 ... ...
ROW 8B : ... .. . ... ... ... : ... .. 0 ... ... ... : ... .. . ... : ... .. 3 ... : ... .. . ... ... : ... .. . ... ... : ... .. . ... ... : ... .. . ... ...
ROW 8C : ... .. . ... ... ... : G#2 00 5 P80 ... ... : ... .. . ... : ... .. 2 ... : ... .. . ... ... : ... .. . ... ... : ... .. . ... ... : ... .. . ... ...
ROW 8D : ... .. . ... ... ... : ... .. 8 ... ... ... : ... .. . ... : ... .. 0 ... : ... .. . ... ... : ... .. . ... ... : ... .. . ... ... : ... .. . ... ...
ROW 8E : ... .. . ... ... ... : ... .. 0 ... ... ... : ... .. . ... : ... .. . ... : ... .. . ... ... : ... .. . ... ... : ... .. . ... ... : ... .. . ... ...
ROW 8F : ... .. . ... ... ... : ... .. . ... ... ... : --- .. . ... : ... .. . ... : ... .. . ... ... : ... .. . ... ... : ... .. . ... ... : --- .. . ... ...
ROW 90 : G#3 00 F ... ... ... : A-2 00 7 P80 ... ... : B-3 00 . P7D : 5-# 00 F ... : ... .. . ... ... : ... .. . ... ... : ... .. . ... ... : D-1 01 F ... ...
ROW 91 : ... .. E ... ... ... : ... .. A ... ... ... : A#3 00 . P7C : ... .. C ... : ... .. . ... ... : ... .. . ... ... : ... .. . ... ... : ... .. D ... ...
ROW 92 : ... .. D ... ... ... : ... .. 7 ... ... ... : A-3 00 . P7B : ... .. 6 ... : ... .. . ... ... : ... .. . ... ... : ... .. . ... ... : ... .. 8 ... ...
ROW 93 : ... .. A ... ... ... : ... .. 0 ... ... ... : G#3 00 . ... : ... .. 3 ... : ... .. . ... ... : ... .. . ... ... : ... .. . ... ... : ... .. . ... ...
ROW 94 : ... .. . ... ... ... : A-2 00 5 P80 ... ... : G-3 00 . P7C : ... .. 2 ... : ... .. . ... ... : ... .. . ... ... : ... .. . ... ... : ... .. . ... ...
ROW 95 : ... .. 2 ... ... ... : ... .. 8 ... ... ... : F#3 00 . P7E : ... .. 0 ... : ... .. . ... ... : ... .. . ... ... : ... .. . ... ... : ... .. . ... ...
ROW 96 : ... .. . ... ... ... : ... .. 0 ... ... ... : F-3 00 . P81 : ... .. . ... : ... .. . ... ... : ... .. . ... ... : ... .. . ... ... : ... .. . ... ...
ROW 97 : ... .. . ... ... ... : ... .. . ... ... ... : --- .. . ... : ... .. . ... : ... .. . ... ... : ... .. . ... ... : ... .. . ... ... : --- .. . ... ...
ROW 98 : A-3 00 F ... ... ... : E-3 00 7 P80 ... ... : D-3 00 . P80 : 1-# 00 F ... : ... .. . ... ... : ... .. . ... ... : ... .. . ... ... : D-1 01 F ... ...
ROW 99 : ... .. E ... ... ... : ... .. A ... ... ... : ... .. . ... : ... .. C ... : ... .. . ... ... : ... .. . ... ... : ... .. . ... ... : ... .. D ... ...
ROW 9A : ... .. D ... ... ... : ... .. 7 ... ... ... : ... .. . ... : ... .. 6 ... : ... .. . ... ... : ... .. . ... ... : ... .. . ... ... : ... .. 8 ... ...
ROW 9B : ... .. A ... ... ... : ... .. 0 ... ... ... : ... .. . ... : ... .. 3 ... : ... .. . ... ... : ... .. . ... ... : ... .. . ... ... : ... .. . ... ...
ROW 9C : ... .. . ... ... ... : E-3 00 5 P80 ... ... : ... .. . ... : ... .. 2 ... : ... .. . ... ... : ... .. . ... ... : ... .. . ... ... : ... .. . ... ...
ROW 9D : ... .. . ... ... ... : ... .. 8 ... ... ... : ... .. . ... : ... .. 0 ... : ... .. . ... ... : ... .. . ... ... : ... .. . ... ... : ... .. . ... ...
ROW 9E : ... .. . ... ... ... : ... .. 0 ... ... ... : ... .. . ... : ... .. . ... : ... .. . ... ... : ... .. . ... ... : ... .. . ... ... : ... .. . ... ...
ROW 9F : ... .. . ... ... ... : ... .. . ... ... ... : --- .. . ... : ... .. . ... : ... .. . ... ... : ... .. . ... ... : ... .. . ... ... : --- .. . ... ...
ROW A0 : ... .. . ... ... ... : D-3 00 7 P80 ... ... : G#3 00 . P85 : C-# 00 8 ... : ... .. . ... ... : D-4 01 6 ... ... : F#3 01 6 ... ... : D-1 01 F ... ...
ROW A1 : ... .. . ... ... ... : ... .. A ... ... ... : F-3 00 . P86 : ... .. 6 ... : ... .. . ... ... : ... .. 5 ... ... : ... .. 5 ... ... : ... .. D ... ...
ROW A2 : ... .. . ... ... ... : ... .. 7 ... ... ... : D#3 00 . P7C : ... .. 3 ... : ... .. . ... ... : ... .. . ... ... : ... .. . ... ... : ... .. 8 ... ...
ROW A3 : ... .. . ... ... ... : ... .. 0 ... ... ... : C#3 00 . P76 : ... .. 1 ... : ... .. . ... ... : ... .. . ... ... : ... .. . ... ... : ... .. . ... ...
ROW A4 : ... .. . ... ... ... : D-3 00 5 P80 ... ... : B-2 00 . P75 : ... .. . ... : ... .. . ... ... : ... .. 4 ... ... : ... .. 4 ... ... : ... .. . ... ...
ROW A5 : ... .. . ... ... ... : ... .. 8 ... ... ... : A-2 00 . P7A : ... .. 0 ... : ... .. . ... ... : ... .. . ... ... : ... .. . ... ... : ... .. . ... ...
ROW A6 : ... .. . ... ... ... : ... .. 0 ... ... ... : G-2 00 . P87 : ... .. . ... : ... .. . ... ... : ... .. . ... ... : ... .. . ... ... : ... .. . ... ...
ROW A7 : ... .. . ... ... ... : ... .. . ... ... ... : --- .. . ... : ... .. . ... : ... .. . ... ... : ... .. . ... ... : ... .. . ... ... : --- .. . ... ...
ROW A8 : B-3 00 F ... ... ... : F#3 00 7 P80 ... ... : D-3 00 . P80 : 1-# 00 F ... : ... .. . ... ... : ... .. . ... ... : ... .. . ... ... : D-1 01 F ... ...
ROW A9 : ... .. E ... ... ... : ... .. A ... ... ... : ... .. . ... : ... .. C ... : ... .. . ... ... : ... .. . ... ... : ... .. . ... ... : ... .. D ... ...
ROW AA : ... .. D ... ... ... : ... .. 7 ... ... ... : ... .. . ... : ... .. 6 ... : ... .. . ... ... : ... .. . ... ... : ... .. . ... ... : ... .. 8 ... ...
ROW AB : ... .. A ... ... ... : ... .. 0 ... ... ... : ... .. . ... : ... .. 3 ... : ... .. . ... ... : ... .. . ... ... : ... .. . ... ... : ... .. . ... ...
ROW AC : ... .. . ... ... ... : F#3 00 5 P80 ... ... : ... .. . ... : ... .. 2 ... : ... .. . ... ... : ... .. . ... ... : ... .. . ... ... : ... .. . ... ...
ROW AD : ... .. . ... ... ... : ... .. 8 ... ... ... : ... .. . ... : ... .. 0 ... : ... .. . ... ... : ... .. . ... ... : ... .. . ... ... : ... .. . ... ...
ROW AE : ... .. . ... ... ... : ... .. 0 ... ... ... : ... .. . ... : ... .. . ... : ... .. . ... ... : ... .. . ... ... : ... .. . ... ... : ... .. . ... ...
ROW AF : ... .. . ... ... ... : ... .. . ... ... ... : --- .. . ... : ... .. . ... : ... .. . ... ... : ... .. . ... ... : ... .. . ... ... : --- .. . ... ...
ROW B0 : A-3 00 F ... ... ... : A-3 00 7 P80 ... ... : B-3 00 . P7D : 5-# 00 F ... : ... .. . ... ... : ... .. . ... ... : ... .. . ... ... : D-1 01 F ... ...
ROW B1 : ... .. E ... ... ... : ... .. A ... ... ... : A#3 00 . P7C : ... .. C ... : ... .. . ... ... : ... .. . ... ... : ... .. . ... ... : ... .. D ... ...
ROW B2 : ... .. D ... ... ... : ... .. 7 ... ... ... : A-3 00 . P7B : ... .. 6 ... : ... .. . ... ... : ... .. . ... ... : ... .. . ... ... : ... .. 8 ... ...
ROW B3 : ... .. A ... ... ... : ... .. 0 ... ... ... : G#3 00 . ... : ... .. 3 ... : ... .. . ... ... : ... .. . ... ... : ... .. . ... ... : ... .. . ... ...
ROW B4 : ... .. . ... ... ... : A-3 00 5 P80 ... ... : G-3 00 . P7C : ... .. 2 ... : ... .. . ... ... : ... .. . ... ... : ... .. . ... ... : ... .. . ... ...
ROW B5 : ... .. . ... ... ... : ... .. 8 ... ... ... : F#3 00 . P7E : ... .. 0 ... : ... .. . ... ... : ... .. . ... ... : ... .. . ... ... : ... .. . ... ...
ROW B6 : ... .. . ... ... ... : ... .. 0 ... ... ... : F-3 00 . P81 : ... .. . ... : ... .. . ... ... : ... .. . ... ... : ... .. . ... ... : ... .. . ... ...
ROW B7 : ... .. . ... ... ... : ... .. . ... ... ... : --- .. . ... : ... .. . ... : ... .. . ... ... : ... .. . ... ... : ... .. . ... ... : --- .. . ... ...
ROW B8 : ... .. . ... ... ... : G#3 00 7 P80 ... ... : D-3 00 . P80 : C-# 00 8 ... : ... .. . ... ... : ... .. . ... ... : ... .. . ... ... : D-1 01 F ... ...
ROW B9 : ... .. . ... ... ... : ... .. A ... ... ... : ... .. . ... : ... .. 6 ... : ... .. . ... ... : ... .. . ... ... : ... .. . ... ... : ... .. D ... ...
ROW BA : ... .. . ... ... ... : ... .. 7 ... ... ... : ... .. . ... : ... .. 3 ... : ... .. . ... ... : ... .. . ... ... : ... .. . ... ... : ... .. 8 ... ...
ROW BB : ... .. . ... ... ... : ... .. 0 ... ... ... : ... .. . ... : ... .. 1 ... : ... .. . ... ... : ... .. . ... ... : ... .. . ... ... : ... .. . ... ...
ROW BC : ... .. . ... ... ... : G#3 00 5 P80 ... ... : ... .. . ... : ... .. . ... : ... .. . ... ... : ... .. . ... ... : ... .. . ... ... : ... .. . ... ...
ROW BD : ... .. 2 ... ... ... : ... .. 8 ... ... ... : ... .. . ... : ... .. 0 ... : ... .. . ... ... : ... .. . ... ... : ... .. . ... ... : ... .. . ... ...
ROW BE : ... .. . ... ... ... : ... .. 0 ... ... ... : ... .. . ... : ... .. . ... : ... .. . ... ... : ... .. . ... ... : ... .. . ... ... : ... .. . ... ...
ROW BF : ... .. . ... ... ... : ... .. . ... ... ... : --- .. . ... : ... .. . ... : ... .. . ... ... : ... .. . ... ... : ... .. . ... ... : --- .. . ... ...
ROW C0 : G#3 00 F ... ... ... : C#4 00 8 P80 ... ... : G#3 00 . P85 : 1-# 00 F ... : ... .. . ... ... : C#4 01 6 ... ... : ... .. 6 ... ... : D#0 01 F ... ...
ROW C1 : ... .. E ... ... ... : ... .. 7 ... ... ... : F-3 00 . P86 : ... .. C ... : ... .. . ... ... : ... .. 5 ... ... : ... .. 5 ... ... : ... .. D ... ...
ROW C2 : ... .. D ... ... ... : ... .. . ... ... ... : D#3 00 . P7C : ... .. 6 ... : ... .. . ... ... : ... .. . ... ... : ... .. . ... ... : ... .. 8 ... ...
ROW C3 : ... .. A ... ... ... : ... .. 6 ... ... ... : C#3 00 . P76 : ... .. 3 ... : ... .. . ... ... : ... .. . ... ... : ... .. . ... ... : ... .. . ... ...
ROW C4 : ... .. . ... ... ... : G#3 00 8 ... ... ... : B-2 00 . P75 : ... .. 2 ... : ... .. . ... ... : ... .. 4 ... ... : ... .. 4 ... ... : ... .. . ... ...
ROW C5 : ... .. . ... ... ... : ... .. 7 ... ... ... : A-2 00 . P7A : ... .. 0 ... : ... .. . ... ... : ... .. . ... ... : ... .. . ... ... : ... .. . ... ...
ROW C6 : ... .. . ... ... ... : ... .. . ... ... ... : G-2 00 . P87 : ... .. . ... : ... .. . ... ... : ... .. . ... ... : ... .. . ... ... : ... .. . ... ...
ROW C7 : ... .. . ... ... ... : ... .. 6 ... ... ... : --- .. . ... : ... .. . ... : ... .. . ... ... : ... .. . ... ... : ... .. . ... ... : --- .. . P83 ...
ROW C8 : ... .. . ... ... ... : D#3 00 8 ... ... ... : D#3 00 . P80 : ... .. F ... : ... .. . ... ... : ... .. . ... ... : ... .. . ... ... : D#1 01 F P80 ...
ROW C9 : ... .. . ... ... ... : ... .. 7 ... ... ... : ... .. . ... : ... .. C ... : ... .. . ... ... : ... .. . ... ... : ... .. . ... ... : ... .. D ... ...
ROW CA : ... .. . ... ... ... : ... .. . ... ... ... : ... .. . ... : ... .. 6 ... : ... .. . ... ... : ... .. . ... ... : ... .. . ... ... : ... .. 8 ... ...
ROW CB : ... .. . ... ... ... : ... .. 6 ... ... ... : ... .. . ... : ... .. 3 ... : ... .. . ... ... : ... .. . ... ... : ... .. . ... ... : ... .. . ... ...
ROW CC : ... .. . ... ... ... : G#2 00 8 ... ... ... : ... .. . ... : ... .. 2 ... : ... .. . ... ... : ... .. . ... ... : ... .. . ... ... : ... .. . ... ...
ROW CD : ... .. . ... ... ... : ... .. 7 ... ... ... : ... .. . ... : ... .. 0 ... : ... .. . ... ... : ... .. . ... ... : ... .. . ... ... : ... .. . ... ...
ROW CE : ... .. . ... ... ... : ... .. . ... ... ... : ... .. . ... : ... .. . ... : ... .. . ... ... : ... .. . ... ... : ... .. . ... ... : ... .. . ... ...
ROW CF : ... .. . ... ... ... : ... .. 6 ... ... ... : --- .. . ... : ... .. . ... : ... .. . ... ... : ... .. . ... ... : ... .. . ... ... : --- .. . P81 ...
ROW D0 : ... .. . ... ... ... : D#3 00 8 ... ... ... : B-3 00 . P7D : 5-# 00 F ... : ... .. . ... ... : ... .. . ... ... : ... .. . ... ... : E-1 01 F P80 ...
ROW D1 : ... .. . ... ... ... : ... .. 7 ... ... ... : A#3 00 . P7C : ... .. C ... : ... .. . ... ... : ... .. . ... ... : ... .. . ... ... : ... .. D ... ...
ROW D2 : ... .. . ... ... ... : ... .. . ... ... ... : A-3 00 . P7B : ... .. 6 ... : ... .. . ... ... : ... .. . ... ... : ... .. . ... ... : ... .. 8 ... ...
ROW D3 : ... .. . ... ... ... : ... .. 6 ... ... ... : G#3 00 . ... : ... .. 3 ... : ... .. . ... ... : ... .. . ... ... : ... .. . ... ... : ... .. . ... ...
ROW D4 : ... .. . ... ... ... : F#3 00 8 ... ... ... : G-3 00 . P7C : ... .. 2 ... : ... .. . ... ... : ... .. . ... ... : ... .. . ... ... : ... .. . ... ...
ROW D5 : ... .. . ... ... ... : ... .. 7 ... ... ... : F#3 00 . P7E : ... .. 0 ... : ... .. . ... ... : ... .. . ... ... : ... .. . ... ... : ... .. . ... ...
ROW D6 : ... .. . ... ... ... : ... .. . ... ... ... : F-3 00 . P81 : ... .. . ... : ... .. . ... ... : ... .. . ... ... : ... .. . ... ... : ... .. . ... ...
ROW D7 : ... .. . ... ... ... : ... .. 6 ... ... ... : --- .. . ... : ... .. . ... : ... .. . ... ... : ... .. . ... ... : ... .. . ... ... : --- .. . P82 ...
ROW D8 : ... .. . ... ... ... : G#3 00 8 ... ... ... : C#3 00 . P80 : 1-# 00 F ... : ... .. . ... ... : ... .. . ... ... : ... .. . ... ... : C#1 01 F P80 ...
ROW D9 : ... .. . ... ... ... : ... .. 7 ... ... ... : ... .. . ... : ... .. C ... : ... .. . ... ... : ... .. . ... ... : ... .. . ... ... : ... .. D ... ...
ROW DA : ... .. . ... ... ... : ... .. . ... ... ... : ... .. . ... : ... .. 6 ... : ... .. . ... ... : ... .. . ... ... : ... .. . ... ... : ... .. 8 ... ...
ROW DB : ... .. . ... ... ... : ... .. 6 ... ... ... : ... .. . ... : ... .. 3 ... : ... .. . ... ... : ... .. . ... ... : ... .. . ... ... : ... .. . ... ...
ROW DC : ... .. . ... ... ... : C#4 00 8 ... ... ... : ... .. . ... : ... .. 2 ... : ... .. . ... ... : ... .. . ... ... : ... .. . ... ... : ... .. . ... ...
ROW DD : ... .. . ... ... ... : ... .. 7 ... ... ... : ... .. . ... : ... .. 0 ... : ... .. . ... ... : ... .. . ... ... : ... .. . ... ... : ... .. . ... ...
ROW DE : ... .. . ... ... ... : ... .. . ... ... ... : ... .. . ... : ... .. . ... : ... .. . ... ... : ... .. . ... ... : ... .. . ... ... : ... .. . ... ...
ROW DF : ... .. . ... ... ... : ... .. 6 ... ... ... : --- .. . ... : ... .. . ... : ... .. . ... ... : ... .. . ... ... : ... .. . ... ... : --- .. . P81 ...
ROW E0 : ... .. . ... ... ... : A#3 00 8 ... ... ... : G#3 00 . P85 : C-# 00 8 ... : ... .. . ... ... : ... .. . ... ... : ... .. . ... ... : D#1 01 F P80 ...
ROW E1 : ... .. . ... ... ... : ... .. 7 ... ... ... : F-3 00 . P86 : ... .. 6 ... : ... .. . ... ... : ... .. . ... ... : ... .. . ... ... : ... .. D ... ...
ROW E2 : ... .. . ... ... ... : ... .. . ... ... ... : D#3 00 . P7C : ... .. 3 ... : ... .. . ... ... : ... .. . ... ... : ... .. . ... ... : ... .. 8 ... ...
ROW E3 : ... .. . ... ... ... : ... .. 6 ... ... ... : C#3 00 . P76 : ... .. 1 ... : ... .. . ... ... : ... .. . ... ... : ... .. . ... ... : ... .. . ... ...
ROW E4 : ... .. . ... ... ... : D#3 00 8 ... ... ... : B-2 00 . P75 : ... .. . ... : ... .. . ... ... : ... .. . ... ... : ... .. . ... ... : ... .. . ... ...
ROW E5 : ... .. . ... ... ... : ... .. 7 ... ... ... : A-2 00 . P7A : ... .. 0 ... : ... .. . ... ... : ... .. . ... ... : ... .. . ... ... : ... .. . ... ...
ROW E6 : ... .. . ... ... ... : ... .. . ... ... ... : G-2 00 . P87 : ... .. . ... : ... .. . ... ... : ... .. . ... ... : ... .. . ... ... : ... .. . ... ...
ROW E7 : ... .. . ... ... ... : ... .. 6 ... ... ... : --- .. . ... : ... .. . ... : ... .. . ... ... : ... .. . ... ... : ... .. . ... ... : --- .. . P81 ...
ROW E8 : ... .. . ... ... ... : C#3 00 8 ... ... ... : A-3 00 . P80 : 1-# 00 F ... : ... .. . ... ... : ... .. . ... ... : ... .. . ... ... : A-1 01 F P80 ...
ROW E9 : ... .. . ... ... ... : ... .. 7 ... ... ... : ... .. . ... : ... .. C ... : ... .. . ... ... : ... .. . ... ... : ... .. . ... ... : ... .. D ... ...
ROW EA : ... .. . ... ... ... : ... .. . ... ... ... : ... .. . ... : ... .. 6 ... : ... .. . ... ... : ... .. . ... ... : ... .. . ... ... : ... .. 8 ... ...
ROW EB : ... .. . ... ... ... : ... .. 6 ... ... ... : ... .. . ... : ... .. 3 ... : ... .. . ... ... : ... .. . ... ... : ... .. . ... ... : ... .. . ... ...
ROW EC : ... .. . ... ... ... : G#2 00 8 ... ... ... : ... .. . ... : ... .. 2 ... : ... .. . ... ... : ... .. . ... ... : ... .. . ... ... : ... .. . ... ...
ROW ED : ... .. . ... ... ... : ... .. 7 ... ... ... : ... .. . ... : ... .. 0 ... : ... .. . ... ... : ... .. . ... ... : ... .. . ... ... : ... .. . ... ...
ROW EE : ... .. . ... ... ... : ... .. . ... ... ... : ... .. . ... : ... .. . ... : ... .. . ... ... : ... .. . ... ... : ... .. . ... ... : ... .. . ... ...
ROW EF : ... .. . ... ... ... : ... .. 6 ... ... ... : --- .. . ... : ... .. . ... : ... .. . ... ... : ... .. . ... ... : ... .. . ... ... : --- .. . P7F ...
ROW F0 : ... .. . ... ... ... : D#2 00 8 ... ... ... : B-3 00 . P7D : 5-# 00 F ... : ... .. . ... ... : ... .. . ... ... : ... .. . ... ... : C#2 01 F P80 ...
ROW F1 : ... .. . ... ... ... : ... .. 7 ... ... ... : A#3 00 . P7C : ... .. C ... : ... .. . ... ... : ... .. . ... ... : ... .. . ... ... : ... .. D ... ...
ROW F2 : ... .. . ... ... ... : ... .. . ... ... ... : A-3 00 . P7B : ... .. 6 ... : ... .. . ... ... : ... .. . ... ... : ... .. . ... ... : ... .. 8 ... ...
ROW F3 : ... .. . ... ... ... : ... .. 6 ... ... ... : G#3 00 . ... : ... .. 3 ... : ... .. . ... ... : ... .. . ... ... : ... .. . ... ... : ... .. . ... ...
ROW F4 : ... .. . ... ... ... : G#2 00 8 ... ... ... : G-3 00 . P7C : ... .. 2 ... : ... .. . ... ... : ... .. . ... ... : ... .. . ... ... : ... .. . ... ...
ROW F5 : ... .. . ... ... ... : ... .. 7 ... ... ... : F#3 00 . P7E : ... .. 0 ... : ... .. . ... ... : ... .. . ... ... : ... .. . ... ... : ... .. . ... ...
ROW F6 : ... .. . ... ... ... : ... .. . ... ... ... : F-3 00 . P81 : ... .. . ... : ... .. . ... ... : ... .. . ... ... : ... .. . ... ... : ... .. . ... ...
ROW F7 : ... .. . ... ... ... : ... .. 6 ... ... ... : --- .. . ... : ... .. . ... : ... .. . ... ... : ... .. . ... ... : ... .. . ... ... : --- .. . ... ...
ROW F8 : ... .. . P84 ... ... : C#3 00 8 ... ... ... : D#4 00 . P80 : C-# 00 8 ... : ... .. . ... ... : ... .. . ... ... : ... .. . ... ... : D#2 01 F ... ...
ROW F9 : ... .. . P86 ... ... : ... .. 7 ... ... ... : ... .. . ... : ... .. 6 ... : ... .. . ... ... : ... .. . ... ... : ... .. . ... ... : ... .. D ... ...
ROW FA : ... .. . P85 ... ... : ... .. . ... ... ... : ... .. . ... : ... .. 3 ... : ... .. . ... ... : ... .. . ... ... : ... .. . ... ... : ... .. 8 ... ...
ROW FB : ... .. . P82 ... ... : ... .. 6 ... ... ... : ... .. . ... : ... .. 1 ... : ... .. . ... ... : ... .. . ... ... : ... .. . ... ... : ... .. . ... ...
ROW FC : ... .. . P7E ... ... : D#3 00 8 ... ... ... : ... .. . ... : ... .. . ... : ... .. . ... ... : ... .. . ... ... : ... .. . ... ... : ... .. . ... ...
ROW FD : ... .. . P7B ... ... : ... .. 7 ... ... ... : ... .. . ... : ... .. 0 ... : ... .. . ... ... : ... .. . ... ... : ... .. . ... ... : ... .. . ... ...
ROW FE : ... .. . P7A ... ... : ... .. . ... ... ... : ... .. . ... : ... .. . ... : ... .. . ... ... : ... .. . ... ... : ... .. . ... ... : ... .. . ... ...
ROW FF : ... .. . P7C ... ... : ... .. 6 ... ... ... : --- .. . ... : ... .. . ... : ... .. . ... ... : ... .. . ... ... : ... .. . ... ... : --- .. . ... ...

PATTERN 0A
ROW 00 : ... .. . P80 ... ... : C-4 00 8 ... ... ... : G#3 00 . P85 : 1-# 00 F ... : ... .. . ... ... : C-4 01 6 ... ... : D#3 01 6 ... ... : C-2 01 F ... ...
ROW 01 : ... .. . P83 ... ... : ... .. 7 ... ... ... : F-3 00 . P86 : ... .. C ... : ... .. . ... ... : ... .. 5 ... ... : ... .. 5 ... ... : ... .. D ... ...
ROW 02 : ... .. . P86 ... ... : ... .. . ... ... ... : D#3 00 . P7C : ... .. 6 ... : ... .. . ... ... : ... .. . ... ... : ... .. . ... ... : ... .. 8 ... ...
ROW 03 : ... .. . ... ... ... : ... .. 6 ... ... ... : C#3 00 . P76 : ... .. 3 ... : ... .. . ... ... : ... .. . ... ... : ... .. . ... ... : ... .. . ... ...
ROW 04 : ... .. . P82 ... ... : ... .. 5 ... ... ... : B-2 00 . P75 : ... .. 2 ... : ... .. . ... ... : ... .. 4 ... ... : ... .. 4 ... ... : ... .. . ... ...
ROW 05 : ... .. . P7F ... ... : ... .. 4 ... ... ... : A-2 00 . P7A : ... .. 0 ... : ... .. . ... ... : ... .. . ... ... : ... .. . ... ... : ... .. . ... ...
ROW 06 : ... .. . P7B ... ... : ... .. . ... ... ... : G-2 00 . P87 : ... .. . ... : ... .. . ... ... : ... .. . ... ... : ... .. . ... ... : ... .. . ... ...
ROW 07 : ... .. . P7A ... ... : ... .. . ... ... ... : --- .. . ... : ... .. . ... : ... .. . ... ... : ... .. . ... ... : ... .. . ... ... : --- .. . P7C ...
ROW 08 : ... .. . P7C ... ... : G#3 00 8 ... ... ... : B-4 00 . P83 : ... .. F ... : ... .. . ... ... : ... .. . ... ... : ... .. . ... ... : G#0 01 F P80 ...
ROW 09 : ... .. . P80 ... ... : ... .. 7 ... ... ... : A-4 00 . P82 : ... .. C ... : ... .. . ... ... : ... .. . ... ... : ... .. . ... ... : ... .. D ... ...
ROW 0A : ... .. . P83 ... ... : ... .. . ... ... ... : G-4 00 . P83 : ... .. 6 ... : ... .. . ... ... : ... .. . ... ... : ... .. . ... ... : ... .. 8 ... ...
ROW 0B : ... .. . P86 ... ... : ... .. 6 ... ... ... : F#4 00 . P7C : ... .. 3 ... : ... .. . ... ... : ... .. . ... ... : ... .. . ... ... : ... .. . ... ...
ROW 0C : ... .. . ... ... ... : ... .. 5 ... ... ... : B-4 00 . P83 : ... .. 2 ... : ... .. . ... ... : ... .. . ... ... : ... .. . ... ... : ... .. . ... ...
ROW 0D : ... .. . P83 ... ... : ... .. 4 ... ... ... : A-4 00 . P82 : ... .. 0 ... : ... .. . ... ... : ... .. . ... ... : ... .. . ... ... : ... .. . ... ...
ROW 0E : ... .. . P80 ... ... : ... .. . ... ... ... : G-4 00 . P83 : ... .. . ... : ... .. . ... ... : ... .. . ... ... : ... .. . ... ... : ... .. . ... ...
ROW 0F : ... .. . P7C ... ... : ... .. . ... ... ... : --- .. . ... : ... .. . ... : ... .. . ... ... : ... .. . ... ... : ... .. . ... ... : --- .. . P84 ...
ROW 10 : ... .. . P7A ... ... : F#3 00 8 ... ... ... : B-4 00 . ... : 5-# 00 F ... : ... .. . ... ... : ... .. . ... ... : G#4 01 6 ... ... : G#1 01 F P80 ...
ROW 11 : ... .. . P7B ... ... : ... .. 7 ... ... ... : A-4 00 . P82 : ... .. C ... : ... .. . ... ... : ... .. . ... ... : ... .. 5 ... ... : ... .. D ... ...
ROW 12 : ... .. . P7F ... ... : ... .. . ... ... ... : G-4 00 . P83 : ... .. 6 ... : ... .. . ... ... : ... .. . ... ... : ... .. . ... ... : ... .. 8 ... ...
ROW 13 : ... .. . P82 ... ... : ... .. 6 ... ... ... : F#4 00 . P7C : ... .. 3 ... : ... .. . ... ... : ... .. . ... ... : ... .. . ... ... : ... .. . ... ...
ROW 14 : ... .. . P86 ... ... : ... .. 5 ... ... ... : E-4 00 . P80 : ... .. 2 ... : ... .. . ... ... : ... .. . ... ... : F#4 01 6 ... ... : ... .. . ... ...
ROW 15 : ... .. . ... ... ... : ... .. 4 ... ... ... : D-4 00 . P85 : ... .. 0 ... : ... .. . ... ... : ... .. . ... ... : ... .. 5 ... ... : ... .. . ... ...
ROW 16 : ... .. . P83 ... ... : ... .. . ... ... ... : C#4 00 . P82 : ... .. . ... : ... .. . ... ... : ... .. . ... ... : ... .. . ... ... : ... .. . ... ...
ROW 17 : ... .. . P80 ... ... : ... .. . ... ... ... : --- .. . ... : ... .. . ... : ... .. . ... ... : ... .. . ... ... : ... .. . ... ... : --- .. . P7E ...
ROW 18 : ... .. . P7C ... ... : D#3 00 8 ... ... ... : G-4 00 . P81 : 1-# 00 F ... : ... .. . ... ... : ... .. . ... ... : E-4 01 6 ... ... : G#0 01 F P80 ...
ROW 19 : ... .. . P7A ... ... : ... .. 7 ... ... ... : F-4 00 . P83 : ... .. C ... : ... .. . ... ... : ... .. . ... ... : ... .. 5 ... ... : ... .. D ... ...
ROW 1A : ... .. . P7B ... ... : ... .. . ... ... ... : E-4 00 . P7E : ... .. 6 ... : ... .. . ... ... : ... .. . ... ... : ... .. . ... ... : ... .. 8 ... ...
ROW 1B : ... .. . P7E ... ... : ... .. 6 ... ... ... : D-4 00 . P83 : ... .. 3 ... : ... .. . ... ... : ... .. . ... ... : ... .. . ... ... : ... .. . ... ...
ROW 1C : ... .. . P82 ... ... : ... .. 5 ... ... ... : C#4 00 . P80 : ... .. 2 ... : ... .. . ... ... : ... .. . ... ... : D#4 01 6 ... ... : ... .. . ... ...
ROW 1D : ... .. . P85 ... ... : ... .. 4 ... ... ... : C-4 00 . P7D : ... .. 0 ... : ... .. . ... ... : ... .. . ... ... : ... .. 5 ... ... : ... .. . ... ...
ROW 1E : ... .. . P86 ... ... : ... .. . ... ... ... : B-3 00 . P7A : ... .. . ... : ... .. . ... ... : ... .. . ... ... : ... .. . ... ... : ... .. . ... ...
ROW 1F : ... .. . P84 ... ... : ... .. . ... ... ... : --- .. . ... : ... .. . ... : ... .. . ... ... : ... .. . ... ... : ... .. . ... ... : --- .. . P84 ...
ROW 20 : ... .. . P80 ... ... : G#3 00 A ... V02 ... : G-4 00 . P81 : C-# 00 8 ... : ... .. . ... ... : ... .. . ... ... : C#4 01 6 ... ... : A-1 01 F P80 ...
ROW 21 : ... .. . P7D ... ... : ... .. 9 ... ... ... : F-4 00 . P83 : ... .. 6 ... : ... .. . ... ... : ... .. . ... ... : ... .. 5 ... ... : ... .. D ... ...
ROW 22 : ... .. . P7A ... ... : ... .. 8 ... ... ... : E-4 00 . P7E : ... .. 3 ... : ... .. . ... ... : ... .. . ... ... : ... .. . ... ... : ... .. 8 ... ...
ROW 23 : ... .. . ... ... ... : ... .. 6 ... ... ... : D-4 00 . P83 : ... .. 1 ... : ... .. . ... ... : ... .. . ... ... : ... .. . ... ... : ... .. . ... ...
ROW 24 : ... .. . P7E ... ... : ... .. . ... ... ... : C#4 00 . P80 : ... .. . ... : ... .. . ... ... : ... .. . ... ... : C-4 01 6 ... ... : ... .. . ... ...
ROW 25 : ... .. . P81 ... ... : ... .. . ... ... ... : C-4 00 . P7D : ... .. 0 ... : ... .. . ... ... : ... .. . ... ... : ... .. 5 ... ... : ... .. . ... ...
ROW 26 : ... .. . P85 ... ... : ... .. . ... ... ... : B-3 00 . P7A : ... .. . ... : ... .. . ... ... : ... .. . ... ... : ... .. . ... ... : ... .. . ... ...
ROW 27 : ... .. . P86 ... ... : ... .. . ... ... ... : --- .. . ... : ... .. . ... : ... .. . ... ... : ... .. . ... ... : ... .. . ... ... : --- .. . P7F ...
ROW 28 : ... .. . P84 ... ... : ... .. . ... ... ... : D#4 00 . P85 : 1-# 00 F ... : ... .. . ... ... : ... .. . ... ... : A-3 01 6 ... ... : G#1 01 F P80 ...
ROW 29 : ... .. . P80 ... ... : ... .. . ... ... ... : D-4 00 . P80 : ... .. C ... : ... .. . ... ... : ... .. . ... ... : ... .. 5 ... ... : ... .. D ... ...
ROW 2A : ... .. . P7D ... ... : ... .. . ... ... ... : C#4 00 . P7D : ... .. 6 ... : ... .. . ... ... : ... .. . ... ... : ... .. . ... ... : ... .. 8 ... ...
ROW 2B : ... .. . P7A ... ... : ... .. . ... ... ... : B-3 00 . P86 : ... .. 3 ... : ... .. . ... ... : ... .. . ... ... : ... .. . ... ... : ... .. . ... ...
ROW 2C : ... .. . ... ... ... : ... .. . ... ... ... : A#3 00 . P85 : ... .. 2 ... : ... .. . ... ... : ... .. . ... ... : G#3 01 6 ... ... : ... .. . ... ...
ROW 2D : ... .. . P7D ... ... : ... .. . ... ... ... : A-3 00 . P84 : ... .. 0 ... : ... .. . ... ... : ... .. . ... ... : ... .. 5 ... ... : ... .. . ... ...
ROW 2E : ... .. . P80 ... ... : ... .. . ... ... ... : G#3 00 . ... : ... .. . ... : ... .. . ... ... : ... .. . ... ... : ... .. . ... ... : ... .. . ... ...
ROW 2F : ... .. . P84 ... ... : ... .. . ... ... ... : --- .. . ... : ... .. . ... : ... .. . ... ... : ... .. . ... ... : ... .. . ... ... : --- .. . P7E ...
ROW 30 : ... .. . P86 ... ... : A-3 00 A P81 ... ... : D#4 00 . P85 : 5-# 00 F ... : ... .. . ... ... : ... .. . ... ... : F#3 01 6 ... ... : F#1 01 F P80 ...
ROW 31 : ... .. 2 P85 ... ... : A#3 00 9 P83 ... ... : D-4 00 . P80 : ... .. C ... : ... .. . ... ... : ... .. . ... ... : ... .. 5 ... ... : ... .. D ... ...
ROW 32 : ... .. . P81 ... ... : B-3 00 8 P85 ... ... : C#4 00 . P7D : ... .. 6 ... : ... .. . ... ... : ... .. . ... ... : ... .. . ... ... : ... .. 8 ... ...
ROW 33 : ... .. . P7E ... ... : C#4 00 6 P7D ... ... : B-3 00 . P86 : ... .. 3 ... : ... .. . ... ... : ... .. . ... ... : ... .. . ... ... : ... .. . ... ...
ROW 34 : ... .. 1 P7A ... ... : D-4 00 6 P81 ... ... : A#3 00 . P85 : ... .. 2 ... : ... .. . ... ... : ... .. . ... ... : E-3 01 6 ... ... : ... .. . ... ...
ROW 35 : ... .. . ... ... ... : D#4 00 6 P80 ... ... : A-3 00 . P84 : ... .. 0 ... : ... .. . ... ... : ... .. . ... ... : ... .. 5 ... ... : ... .. . ... ...
ROW 36 : ... .. . P7D ... ... : ... .. . ... ... ... : G#3 00 . ... : ... .. . ... : ... .. . ... ... : ... .. . ... ... : ... .. . ... ... : ... .. . ... ...
ROW 37 : ... .. 0 ... ... ... : ... .. . ... ... ... : --- .. . ... : ... .. . ... : ... .. . ... ... : ... .. . ... ... : ... .. . ... ... : --- .. . P81 ...
ROW 38 : ... .. . ... ... ... : ... .. . ... ... ... : G#3 00 . P80 : 1-# 00 F ... : ... .. . ... ... : ... .. . ... ... : D#3 01 6 ... ... : G#1 01 F P80 ...
ROW 39 : ... .. . ... ... ... : ... .. . ... ... ... : G-3 00 . P81 : ... .. C ... : ... .. . ... ... : ... .. . ... ... : ... .. 5 ... ... : ... .. D ... ...
ROW 3A : ... .. . ... ... ... : ... .. . ... ... ... : F#3 00 . P83 : ... .. 6 ... : ... .. . ... ... : ... .. . ... ... : ... .. . ... ... : ... .. 8 ... ...
ROW 3B : ... .. . ... ... ... : ... .. . ... ... ... : F-3 00 . P86 : ... .. 3 ... : ... .. . ... ... : ... .. . ... ... : ... .. . ... ... : ... .. . ... ...
ROW 3C : ... .. . ... ... ... : ... .. . ... ... ... : ... .. . P77 : ... .. 2 ... : ... .. . ... ... : ... .. . ... ... : E-3 01 6 ... ... : ... .. . ... ...
ROW 3D : ... .. . ... ... ... : ... .. . ... ... ... : E-3 00 . P7B : ... .. 0 ... : ... .. . ... ... : ... .. . ... ... : ... .. 5 ... ... : ... .. . ... ...
ROW 3E : ... .. . ... ... ... : ... .. . ... ... ... : D#3 00 . P81 : ... .. . ... : ... .. . ... ... : ... .. . ... ... : ... .. . ... ... : ... .. . ... ...
ROW 3F : ... .. . ... ... ... : ... .. . ... ... ... : --- .. . ... : ... .. . ... : ... .. . ... ... : ... .. . ... ... : ... .. . ... ... : --- .. . P7E ...
ROW 40 : ... .. . ... ... ... : E-4 00 8 ... ... ... : A#2 00 . P82 : ... .. F ... : ... .. . ... ... : E-3 01 5 ... V03 : G#3 01 5 ... V03 : C#1 01 F P80 ...
ROW 41 : ... .. . ... ... ... : ... .. 7 ... ... ... : G#2 00 . P8B : ... .. C ... : ... .. . ... ... : ... .. 4 ... ... : ... .. 4 ... ... : ... .. D ... ...
ROW 42 : ... .. . ... ... ... : ... .. 6 ... ... ... : G-2 00 . P79 : ... .. 6 ... : ... .. . ... ... : ... .. . ... ... : ... .. . ... ... : ... .. 8 ... ...
ROW 43 : ... .. . ... ... ... : ... .. 5 ... ... ... : F-2 00 . P8D : ... .. 3 ... : ... .. . ... ... : ... .. 3 ... ... : ... .. 3 ... ... : ... .. . ... ...
ROW 44 : ... .. . ... ... ... : ... .. . ... ... ... : E-2 00 . P81 : ... .. 2 ... : ... .. . ... ... : ... .. 2 ... ... : ... .. 2 ... ... : ... .. . ... ...
ROW 45 : ... .. . ... ... ... : ... .. . ... ... ... : D#2 00 . P77 : ... .. 0 ... : ... .. . ... ... : ... .. . ... ... : ... .. . ... ... : ... .. . ... ...
ROW 46 : ... .. . ... ... ... : ... .. . ... ... ... : --- .. . ... : ... .. . ... : ... .. . ... ... : ... .. 1 ... ... : ... .. 1 ... ... : --- .. . P81 ...
ROW 47 : ... .. . ... ... ... : ... .. . ... ... ... : ... .. . ... : ... .. . ... : ... .. . ... ... : ... .. . ... ... : ... .. . ... ... : ... .. . ... ...
ROW 48 : ... .. . ... ... ... : ... .. . ... ... ... : C#2 00 . P80 : E-# 00 A ... : ... .. . ... ... : ... .. 5 ... ... : ... .. 5 ... ... : C#0 01 F P80 ...
ROW 49 : ... .. . ... ... ... : ... .. . ... ... ... : ... .. . ... : ... .. 8 ... : ... .. . ... ... : ... .. 4 ... ... : ... .. 4 ... ... : ... .. D ... ...
ROW 4A : ... .. . ... ... ... : ... .. . ... ... ... : ... .. . ... : ... .. 4 ... : ... .. . ... ... : ... .. . ... ... : ... .. . ... ... : ... .. 8 ... ...
ROW 4B : ... .. . ... ... ... : ... .. . ... ... ... : ... .. . ... : ... .. 2 ... : ... .. . ... ... : ... .. 3 ... ... : ... .. 3 ... ... : ... .. . ... ...
ROW 4C : ... .. . ... ... ... : ... .. . ... ... ... : ... .. . ... : ... .. 1 ... : ... .. . ... ... : ... .. 2 ... ... : ... .. 2 ... ... : ... .. . ... ...
ROW 4D : ... .. . ... ... ... : ... .. . ... ... ... : ... .. . ... : ... .. 0 ... : ... .. . ... ... : ... .. . ... ... : ... .. . ... ... : ... .. . ... ...
ROW 4E : ... .. . ... ... ... : ... .. . ... ... ... : ... .. . ... : ... .. . ... : ... .. . ... ... : ... .. 1 ... ... : ... .. 1 ... ... : ... .. . ... ...
ROW 4F : ... .. . ... ... ... : ... .. . ... ... ... : ... .. . ... : ... .. . ... : ... .. . ... ... : ... .. . ... ... : ... .. . ... ... : ... .. . ... ...
ROW 50 : ... .. . ... ... ... : ... .. . ... ... ... : ... .. . ... : 1-# 00 F ... : ... .. . ... ... : ... .. 5 ... ... : ... .. 5 ... ... : ... .. . ... ...
ROW 51 : ... .. . ... ... ... : ... .. . ... ... ... : ... .. . ... : ... .. C ... : ... .. . ... ... : ... .. 4 ... ... : ... .. 4 ... ... : ... .. . ... ...
ROW 52 : ... .. . ... ... ... : ... .. . ... ... ... : ... .. . ... : ... .. 6 ... : ... .. . ... ... : ... .. . ... ... : ... .. . ... ... : ... .. . ... ...
ROW 53 : ... .. . ... ... ... : ... .. . ... ... ... : ... .. . ... : ... .. 3 ... : ... .. . ... ... : ... .. 3 ... ... : ... .. 3 ... ... : ... .. . ... ...
ROW 54 : ... .. . ... ... ... : ... .. . ... ... ... : ... .. . ... : ... .. 2 ... : ... .. . ... ... : ... .. 2 ... ... : ... .. 2 ... ... : ... .. . ... ...
ROW 55 : ... .. . ... ... ... : ... .. . ... ... ... : ... .. . ... : ... .. 0 ... : ... .. . ... ... : ... .. . ... ... : ... .. . ... ... : ... .. . ... ...
ROW 56 : ... .. . ... ... ... : ... .. . ... ... ... : --- .. . ... : ... .. . ... : ... .. . ... ... : ... .. 1 ... ... : ... .. 1 ... ... : --- .. . P83 ...
ROW 57 : ... .. . ... ... ... : ... .. . ... ... ... : ... .. . ... : ... .. . ... : ... .. . ... ... : ... .. . ... ... : ... .. . ... ... : ... .. . ... ...
ROW 58 : ... .. . ... ... ... : ... .. . ... ... ... : C#2 00 . ... : E-# 00 A ... : ... .. . ... ... : ... .. 5 ... ... : ... .. 5 ... ... : C#0 01 F P80 ...
ROW 59 : ... .. . ... ... ... : ... .. . ... ... ... : ... .. . ... : ... .. 8 ... : ... .. . ... ... : ... .. 4 ... ... : ... .. 4 ... ... : ... .. D ... ...
ROW 5A : ... .. . ... ... ... : ... .. . ... ... ... : ... .. . ... : ... .. 4 ... : ... .. . ... ... : ... .. . ... ... : ... .. . ... ... : ... .. 8 ... ...
ROW 5B : ... .. . ... ... ... : ... .. . ... ... ... : ... .. . ... : ... .. 2 ... : ... .. . ... ... : ... .. 3 ... ... : ... .. 3 ... ... : ... .. . ... ...
ROW 5C : ... .. . ... ... ... : ... .. . ... ... ... : ... .. . ... : ... .. 1 ... : ... .. . ... ... : ... .. 2 ... ... : ... .. 2 ... ... : ... .. . ... ...
ROW 5D : ... .. . ... ... ... : ... .. . ... ... ... : ... .. . ... : ... .. 0 ... : ... .. . ... ... : ... .. . ... ... : ... .. . ... ... : ... .. . ... ...
ROW 5E : ... .. . ... ... ... : ... .. . ... ... ... : ... .. . ... : ... .. . ... : ... .. . ... ... : ... .. 1 ... ... : ... .. 1 ... ... : ... .. . ... ...
ROW 5F : ... .. . ... ... ... : ... .. . ... ... ... : ... .. . ... : ... .. . ... : ... .. . ... ... : ... .. . ... ... : ... .. . ... ... : ... .. . ... ...
ROW 60 : G#2 00 F P80 ... ... : D#4 00 8 ... ... ... : B-3 00 . P7D : 5-# 00 D ... : ... .. . ... ... : ... .. 5 ... ... : ... .. 5 ... ... : ... .. . ... ...
ROW 61 : ... .. E ... ... ... : ... .. 7 ... ... ... : A#3 00 . P7C : ... .. . ... : ... .. . ... ... : ... .. 4 ... ... : ... .. 4 ... ... : ... .. . ... ...
ROW 62 : ... .. D ... ... ... : ... .. 6 ... ... ... : A-3 00 . P7B : 1-# 00 D ... : ... .. . ... ... : ... .. . ... ... : ... .. . ... ... : ... .. . ... ...
ROW 63 : ... .. A ... ... ... : ... .. 5 ... ... ... : G#3 00 . ... : F-# 00 6 ... : ... .. . ... ... : ... .. 3 ... ... : ... .. 3 ... ... : ... .. . ... ...
ROW 64 : ... .. . ... ... ... : ... .. . ... ... ... : G-3 00 . P7C : B-# 00 1 ... : ... .. . ... ... : ... .. 2 ... ... : ... .. 2 ... ... : ... .. . ... ...
ROW 65 : ... .. . ... ... ... : ... .. . ... ... ... : F#3 00 . P7E : ... .. 0 ... : ... .. . ... ... : ... .. . ... ... : ... .. . ... ... : ... .. . ... ...
ROW 66 : ... .. . ... ... ... : ... .. . ... ... ... : --- .. . ... : ... .. . ... : ... .. . ... ... : ... .. 1 ... ... : ... .. 1 ... ... : --- .. . P83 ...
ROW 67 : ... .. . ... ... ... : ... .. . ... ... ... : ... .. . ... : ... .. . ... : ... .. . ... ... : ... .. . ... ... : ... .. . ... ... : ... .. . ... ...
ROW 68 : ... .. . ... ... ... : ... .. . ... ... ... : C#2 00 . P80 : E-# 00 A ... : ... .. . ... ... : ... .. 5 ... ... : ... .. 5 ... ... : C#0 01 F P80 ...
ROW 69 : ... .. . ... ... ... : ... .. . ... ... ... : ... .. . ... : ... .. 8 ... : ... .. . ... ... : ... .. 4 ... ... : ... .. 4 ... ... : ... .. D ... ...
ROW 6A : ... .. . ... ... ... : ... .. . ... ... ... : ... .. . ... : ... .. 4 ... : ... .. . ... ... : ... .. . ... ... : ... .. . ... ... : ... .. 8 ... ...
ROW 6B : ... .. . ... ... ... : ... .. . ... ... ... : ... .. . ... : ... .. 2 ... : ... .. . ... ... : ... .. 3 ... ... : ... .. 3 ... ... : ... .. . ... ...
ROW 6C : ... .. . ... ... ... : ... .. . ... ... ... : ... .. . ... : ... .. 1 ... : ... .. . ... ... : ... .. 2 ... ... : ... .. 2 ... ... : ... .. . ... ...
ROW 6D : ... .. 2 ... ... ... : ... .. . ... ... ... : ... .. . ... : ... .. 0 ... : ... .. . ... ... : ... .. . ... ... : ... .. . ... ... : ... .. . ... ...
ROW 6E : ... .. . ... ... ... : ... .. . ... ... ... : --- .. . ... : ... .. . ... : ... .. . ... ... : ... .. 1 ... ... : ... .. 1 ... ... : --- .. . P83 ...
ROW 6F : ... .. . ... ... ... : ... .. . ... ... ... : ... .. . ... : ... .. . ... : ... .. . ... ... : ... .. . ... ... : ... .. . ... ... : ... .. . ... ...
ROW 70 : D#3 00 F ... ... ... : ... .. . ... ... ... : B-2 00 . ... : ... .. F ... : ... .. . ... ... : ... .. 5 ... ... : ... .. 5 ... ... : B-0 01 F P80 ...
ROW 71 : ... .. E ... ... ... : ... .. . ... ... ... : ... .. . ... : ... .. C ... : ... .. . ... ... : ... .. 4 ... ... : ... .. 4 ... ... : ... .. D ... ...
ROW 72 : ... .. D ... ... ... : ... .. . ... ... ... : ... .. . ... : ... .. 6 ... : ... .. . ... ... : ... .. . ... ... : ... .. . ... ... : ... .. 8 ... ...
ROW 73 : ... .. A ... ... ... : ... .. . ... ... ... : ... .. . ... : ... .. 3 ... : ... .. . ... ... : ... .. 3 ... ... : ... .. 3 ... ... : ... .. . ... ...
ROW 74 : ... .. . ... ... ... : ... .. . ... ... ... : ... .. . ... : ... .. 2 ... : ... .. . ... ... : ... .. 2 ... ... : ... .. 2 ... ... : ... .. . ... ...
ROW 75 : ... .. . P89 ... ... : ... .. . ... ... ... : ... .. . ... : ... .. 0 ... : ... .. . ... ... : ... .. . ... ... : ... .. . ... ... : ... .. . ... ...
ROW 76 : E-3 00 A P7D ... ... : ... .. . ... ... ... : --- .. . ... : ... .. . ... : ... .. . ... ... : ... .. 1 ... ... : ... .. 1 ... ... : --- .. . ... ...
ROW 77 : ... .. . P80 ... ... : ... .. . ... ... ... : ... .. . ... : ... .. . ... : ... .. . ... ... : ... .. . ... ... : ... .. . ... ... : ... .. . ... ...
ROW 78 : ... .. . ... ... ... : E-4 00 8 ... ... ... : C#3 00 . ... : D-# 00 A ... : ... .. . ... ... : ... .. 5 ... ... : ... .. 5 ... ... : C#1 01 F ... ...
ROW 79 : ... .. 2 ... ... ... : ... .. 7 ... ... ... : ... .. . ... : ... .. . ... : ... .. . ... ... : ... .. 4 ... ... : ... .. 4 ... ... : ... .. D ... ...
ROW 7A : ... .. . ... ... ... : ... .. 6 ... ... ... : ... .. . ... : ... .. . ... : ... .. . ... ... : ... .. . ... ... : ... .. . ... ... : ... .. 8 ... ...
ROW 7B : ... .. . ... ... ... : ... .. 5 ... ... ... : ... .. . ... : ... .. . ... : ... .. . ... ... : ... .. 3 ... ... : ... .. 3 ... ... : ... .. . ... ...
ROW 7C : ... .. 1 ... ... ... : D#4 00 8 ... ... ... : ... .. . ... : ... .. . ... : ... .. . ... ... : ... .. 2 ... ... : ... .. 2 ... ... : ... .. . ... ...
ROW 7D : ... .. . ... ... ... : ... .. 7 ... ... ... : ... .. . ... : ... .. . ... : ... .. . ... ... : ... .. . ... ... : ... .. . ... ... : ... .. . ... ...
ROW 7E : ... .. . ... ... ... : ... .. 6 ... ... ... : --- .. . ... : ... .. . ... : ... .. . ... ... : ... .. 1 ... ... : ... .. 1 ... ... : --- .. . P81 ...
ROW 7F : ... .. 0 ... ... ... : ... .. 5 ... ... ... : ... .. . ... : ... .. . ... : ... .. . ... ... : ... .. . ... ... : ... .. . ... ... : ... .. . ... ...
ROW 80 : D#3 00 F P80 ... ... : C#4 00 8 P86 ... ... : A#2 00 . P82 : 1-# 00 F ... : ... .. . ... ... : ... .. 5 ... ... : ... .. 5 ... ... : B-1 01 F P80 ...
ROW 81 : ... .. E ... ... ... : ... .. 7 P80 ... ... : G#2 00 . P8B : ... .. C ... : ... .. . ... ... : ... .. 4 ... ... : ... .. 4 ... ... : ... .. D ... ...
ROW 82 : ... .. D ... ... ... : ... .. 6 ... ... ... : G-2 00 . P79 : ... .. 6 ... : ... .. . ... ... : ... .. . ... ... : ... .. . ... ... : ... .. 8 ... ...
ROW 83 : ... .. A ... ... ... : ... .. 5 ... ... ... : F-2 00 . P8D : ... .. 3 ... : ... .. . ... ... : ... .. 3 ... ... : ... .. 3 ... ... : ... .. . ... ...
ROW 84 : ... .. . ... ... ... : ... .. . ... ... ... : E-2 00 . P81 : ... .. 2 ... : ... .. . ... ... : ... .. 2 ... ... : ... .. 2 ... ... : ... .. . ... ...
ROW 85 : ... .. . ... ... ... : ... .. . ... ... ... : D#2 00 . P77 : ... .. 0 ... : ... .. . ... ... : ... .. . ... ... : ... .. . ... ... : ... .. . ... ...
ROW 86 : ... .. . ... ... ... : ... .. . ... ... ... : --- .. . ... : ... .. . ... : ... .. . ... ... : ... .. 1 ... ... : ... .. 1 ... ... : --- .. . P86 ...
ROW 87 : ... .. . ... ... ... : ... .. . ... ... ... : ... .. . ... : ... .. . ... : ... .. . ... ... : ... .. . ... ... : ... .. . ... ... : ... .. . ... ...
ROW 88 : ... .. . ... ... ... : ... .. . ... ... ... : C#2 00 . P80 : E-# 00 A ... : ... .. . ... ... : ... .. 5 ... ... : ... .. 5 ... ... : C#0 01 F P80 ...
ROW 89 : ... .. . ... ... ... : ... .. . ... ... ... : ... .. . ... : ... .. 8 ... : ... .. . ... ... : ... .. 4 ... ... : ... .. 4 ... ... : ... .. D ... ...
ROW 8A : ... .. . ... ... ... : ... .. . ... ... ... : ... .. . ... : ... .. 4 ... : ... .. . ... ... : ... .. . ... ... : ... .. . ... ... : ... .. 8 ... ...
ROW 8B : ... .. . ... ... ... : ... .. . ... ... ... : ... .. . ... : ... .. 2 ... : ... .. . ... ... : ... .. 3 ... ... : ... .. 3 ... ... : ... .. . ... ...
ROW 8C : ... .. . ... ... ... : ... .. . ... ... ... : ... .. . ... : ... .. 1 ... : ... .. . ... ... : ... .. 2 ... ... : ... .. 2 ... ... : ... .. . ... ...
ROW 8D : ... .. . ... ... ... : ... .. . ... ... ... : ... .. . ... : ... .. 0 ... : ... .. . ... ... : ... .. . ... ... : ... .. . ... ... : ... .. . ... ...
ROW 8E : ... .. . ... ... ... : ... .. . ... ... ... : ... .. . ... : ... .. . ... : ... .. . ... ... : ... .. 1 ... ... : ... .. 1 ... ... : ... .. . ... ...
ROW 8F : ... .. . ... ... ... : ... .. . ... ... ... : ... .. . ... : ... .. . ... : ... .. . ... ... : ... .. . ... ... : ... .. . ... ... : ... .. . ... ...
ROW 90 : ... .. . ... ... ... : C-4 00 8 P7C ... ... : ... .. . ... : ... .. F ... : ... .. . ... ... : ... .. 5 ... ... : ... .. 5 ... ... : ... .. . ... ...
ROW 91 : ... .. 2 ... ... ... : A#3 00 7 P86 ... ... : ... .. . ... : ... .. C ... : ... .. . ... ... : ... .. 4 ... ... : ... .. 4 ... ... : ... .. . ... ...
ROW 92 : ... .. . ... ... ... : A-3 00 6 P84 ... ... : ... .. . ... : ... .. 6 ... : ... .. . ... ... : ... .. . ... ... : ... .. . ... ... : ... .. . ... ...
ROW 93 : ... .. . ... ... ... : G#3 00 5 P83 ... ... : ... .. . ... : ... .. 3 ... : ... .. . ... ... : ... .. 3 ... ... : ... .. 3 ... ... : ... .. . ... ...
ROW 94 : ... .. 1 ... ... ... : ... .. . P80 ... ... : ... .. . ... : ... .. 2 ... : ... .. . ... ... : ... .. 2 ... ... : ... .. 2 ... ... : ... .. . ... ...
ROW 95 : ... .. . ... ... ... : ... .. . ... ... ... : ... .. . ... : ... .. 0 ... : ... .. . ... ... : ... .. . ... ... : ... .. . ... ... : ... .. . ... ...
ROW 96 : ... .. . ... ... ... : ... .. . ... ... ... : --- .. . ... : ... .. . ... : ... .. . ... ... : ... .. 1 ... ... : ... .. 1 ... ... : --- .. . P83 ...
ROW 97 : ... .. 0 ... ... ... : ... .. . ... ... ... : ... .. . ... : ... .. . ... : ... .. . ... ... : ... .. . ... ... : ... .. . ... ... : ... .. . ... ...
ROW 98 : C#3 00 F P80 ... ... : ... .. . ... ... ... : C#2 00 . ... : 1-# 00 F ... : ... .. . ... ... : ... .. 5 ... ... : ... .. 5 ... ... : C#0 01 F P80 ...
ROW 99 : ... .. E ... ... ... : ... .. . ... ... ... : ... .. . ... : ... .. C ... : ... .. . ... ... : ... .. 4 ... ... : ... .. 4 ... ... : ... .. D ... ...
ROW 9A : ... .. D ... ... ... : ... .. . ... ... ... : ... .. . ... : ... .. 6 ... : ... .. . ... ... : ... .. . ... ... : ... .. . ... ... : ... .. 8 ... ...
ROW 9B : ... .. A ... ... ... : ... .. . ... ... ... : ... .. . ... : ... .. 3 ... : ... .. . ... ... : ... .. 3 ... ... : ... .. 3 ... ... : ... .. . ... ...
ROW 9C : ... .. . ... ... ... : ... .. . ... ... ... : ... .. . ... : ... .. 2 ... : ... .. . ... ... : ... .. 2 ... ... : ... .. 2 ... ... : ... .. . ... ...
ROW 9D : ... .. . ... ... ... : ... .. . ... ... ... : ... .. . ... : ... .. 0 ... : ... .. . ... ... : ... .. . ... ... : ... .. . ... ... : ... .. . ... ...
ROW 9E : ... .. . ... ... ... : ... .. . ... ... ... : ... .. . ... : ... .. . ... : ... .. . ... ... : ... .. 1 ... ... : ... .. 1 ... ... : ... .. . ... ...
ROW 9F : ... .. . ... ... ... : ... .. . ... ... ... : ... .. . ... : ... .. . ... : ... .. . ... ... : ... .. . ... ... : ... .. . ... ... : ... .. . ... ...
ROW A0 : ... .. . ... ... ... : A-3 00 8 P81 ... ... : B-3 00 . P7D : 5-# 00 D ... : ... .. . ... ... : ... .. 5 ... ... : ... .. 5 ... ... : ... .. . ... ...
ROW A1 : ... .. . ... ... ... : A#3 00 7 P83 ... ... : A#3 00 . P7C : ... .. . ... : ... .. . ... ... : ... .. 4 ... ... : ... .. 4 ... ... : ... .. . ... ...
ROW A2 : ... .. . ... ... ... : B-3 00 6 P85 ... ... : A-3 00 . P7B : 1-# 00 D ... : ... .. . ... ... : ... .. . ... ... : ... .. . ... ... : ... .. . ... ...
ROW A3 : ... .. . ... ... ... : C#4 00 5 P7D ... ... : G#3 00 . ... : F-# 00 6 ... : ... .. . ... ... : ... .. 3 ... ... : ... .. 3 ... ... : ... .. . ... ...
ROW A4 : ... .. . ... ... ... : ... .. . P80 ... ... : G-3 00 . P7C : B-# 00 1 ... : ... .. . ... ... : ... .. 2 ... ... : ... .. 2 ... ... : ... .. . ... ...
ROW A5 : ... .. . ... ... ... : ... .. . ... ... ... : F#3 00 . P7E : ... .. 0 ... : ... .. . ... ... : ... .. . ... ... : ... .. . ... ... : ... .. . ... ...
ROW A6 : ... .. . ... ... ... : ... .. . ... ... ... : --- .. . ... : ... .. . ... : ... .. . ... ... : ... .. 1 ... ... : ... .. 1 ... ... : --- .. . P83 ...
ROW A7 : ... .. . ... ... ... : ... .. . ... ... ... : ... .. . ... : ... .. . ... : ... .. . ... ... : ... .. . ... ... : ... .. . ... ... : ... .. . ... ...
ROW A8 : ... .. . ... ... ... : ... .. . ... ... ... : C#2 00 . P80 : E-# 00 A ... : ... .. . ... ... : ... .. 5 ... ... : ... .. 5 ... ... : C#0 01 F P80 ...
ROW A9 : ... .. 2 ... ... ... : ... .. . ... ... ... : ... .. . ... : ... .. 8 ... : ... .. . ... ... : ... .. 4 ... ... : ... .. 4 ... ... : ... .. D ... ...
ROW AA : ... .. . ... ... ... : ... .. . ... ... ... : ... .. . ... : ... .. 4 ... : ... .. . ... ... : ... .. . ... ... : ... .. . ... ... : ... .. 8 ... ...
ROW AB : ... .. . ... ... ... : ... .. . ... ... ... : ... .. . ... : ... .. 2 ... : ... .. . ... ... : ... .. 3 ... ... : ... .. 3 ... ... : ... .. . ... ...
ROW AC : ... .. 1 ... ... ... : ... .. . ... ... ... : ... .. . ... : ... .. 1 ... : ... .. . ... ... : ... .. 2 ... ... : ... .. 2 ... ... : ... .. . ... ...
ROW AD : ... .. . ... ... ... : ... .. . ... ... ... : ... .. . ... : ... .. 0 ... : ... .. . ... ... : ... .. . ... ... : ... .. . ... ... : ... .. . ... ...
ROW AE : ... .. . ... ... ... : ... .. . ... ... ... : --- .. . ... : ... .. . ... : ... .. . ... ... : ... .. 1 ... ... : ... .. 1 ... ... : --- .. . P83 ...
ROW AF : ... .. 0 ... ... ... : ... .. . ... ... ... : ... .. . ... : ... .. . ... : ... .. . ... ... : ... .. . ... ... : ... .. . ... ... : ... .. . ... ...
ROW B0 : G#3 00 F P80 ... ... : D-4 00 8 P84 ... ... : B-2 00 . ... : ... .. F ... : ... .. . ... ... : ... .. 5 ... ... : ... .. 5 ... ... : B-0 01 F P80 ...
ROW B1 : ... .. E ... ... ... : E-4 00 7 P80 ... ... : ... .. . ... : ... .. C ... : ... .. . ... ... : ... .. 4 ... ... : ... .. 4 ... ... : ... .. D ... ...
ROW B2 : ... .. D ... ... ... : F#4 00 6 P7D ... ... : ... .. . ... : ... .. 6 ... : ... .. . ... ... : ... .. . ... ... : ... .. . ... ... : ... .. 8 ... ...
ROW B3 : ... .. A ... ... ... : G#4 00 5 ... ... ... : ... .. . ... : ... .. 3 ... : ... .. . ... ... : ... .. 3 ... ... : ... .. 3 ... ... : ... .. . ... ...
ROW B4 : ... .. . ... ... ... : ... .. . P80 ... ... : ... .. . ... : ... .. 2 ... : ... .. . ... ... : ... .. 2 ... ... : ... .. 2 ... ... : ... .. . ... ...
ROW B5 : ... .. . ... ... ... : ... .. . ... ... ... : ... .. . ... : ... .. 0 ... : ... .. . ... ... : ... .. . ... ... : ... .. . ... ... : ... .. . ... ...
ROW B6 : ... .. . ... ... ... : ... .. . ... ... ... : --- .. . ... : ... .. . ... : ... .. . ... ... : ... .. 1 ... ... : ... .. 1 ... ... : --- .. . ... ...
ROW B7 : ... .. . ... ... ... : ... .. . ... ... ... : ... .. . ... : ... .. . ... : ... .. . ... ... : ... .. . ... ... : ... .. . ... ... : ... .. . ... ...
ROW B8 : ... .. . ... ... ... : ... .. . ... ... ... : C#3 00 . ... : F-# 00 F ... : ... .. . ... ... : ... .. 5 ... ... : ... .. 5 ... ... : C#1 01 F ... ...
ROW B9 : ... .. . ... ... ... : ... .. . ... ... ... : ... .. . ... : ... .. C ... : ... .. . ... ... : ... .. 4 ... ... : ... .. 4 ... ... : ... .. D ... ...
ROW BA : ... .. . ... ... ... : ... .. . ... ... ... : ... .. . ... : ... .. 6 ... : ... .. . ... ... : ... .. . ... ... : ... .. . ... ... : ... .. 8 ... ...
ROW BB : ... .. . ... ... ... : ... .. . ... ... ... : ... .. . ... : ... .. 3 ... : ... .. . ... ... : ... .. 3 ... ... : ... .. 3 ... ... : ... .. . ... ...
ROW BC : ... .. . ... ... ... : ... .. . ... ... ... : ... .. . ... : ... .. F ... : ... .. . ... ... : ... .. 2 ... ... : ... .. 2 ... ... : ... .. . ... ...
ROW BD : ... .. . ... ... ... : ... .. . ... ... ... : ... .. . ... : ... .. C ... : ... .. . ... ... : ... .. . ... ... : ... .. . ... ... : ... .. . ... ...
ROW BE : ... .. . ... ... ... : ... .. . ... ... ... : --- .. . ... : ... .. 6 ... : ... .. . ... ... : ... .. 1 ... ... : ... .. 1 ... ... : --- .. . P81 ...
ROW BF : ... .. . ... ... ... : ... .. . ... ... ... : ... .. . ... : ... .. 3 ... : ... .. . ... ... : ... .. . ... ... : ... .. . ... ... : ... .. . ... ...
ROW C0 : F#3 00 F ... ... ... : A#4 00 8 ... ... ... : A#2 00 . P82 : 1-# 00 F ... : ... .. . ... ... : D#3 01 5 ... ... : G-3 01 5 ... ... : A#1 01 F P80 ...
ROW C1 : G-3 00 E P78 ... ... : ... .. 7 ... ... ... : G#2 00 . P8B : ... .. C ... : ... .. . ... ... : ... .. 4 ... ... : ... .. 4 ... ... : ... .. D ... ...
ROW C2 : ... .. D P80 ... ... : ... .. 6 ... ... ... : G-2 00 . P79 : ... .. 6 ... : ... .. . ... ... : ... .. . ... ... : ... .. . ... ... : ... .. 8 ... ...
ROW C3 : ... .. A ... ... ... : ... .. 5 ... ... ... : F-2 00 . P8D : ... .. 3 ... : ... .. . ... ... : ... .. 3 ... ... : ... .. 3 ... ... : ... .. . ... ...
ROW C4 : ... .. . ... ... ... : ... .. . ... ... ... : E-2 00 . P81 : ... .. 2 ... : ... .. . ... ... : ... .. 2 ... ... : ... .. 2 ... ... : ... .. . ... ...
ROW C5 : ... .. . ... ... ... : ... .. . ... ... ... : D#2 00 . P77 : ... .. 0 ... : ... .. . ... ... : ... .. . ... ... : ... .. . ... ... : ... .. . ... ...
ROW C6 : ... .. . ... ... ... : ... .. . ... ... ... : --- .. . ... : ... .. . ... : ... .. . ... ... : ... .. 1 ... ... : ... .. 1 ... ... : --- .. . ... ...
ROW C7 : ... .. . ... ... ... : ... .. . ... ... ... : ... .. . ... : ... .. . ... : ... .. . ... ... : ... .. . ... ... : ... .. . ... ... : ... .. . ... ...
ROW C8 : ... .. . ... ... ... : ... .. 8 P81 ... ... : D#2 00 . P80 : E-# 00 A ... : ... .. . ... ... : ... .. 5 ... ... : ... .. 5 ... ... : D#0 01 F ... ...
ROW C9 : ... .. . ... ... ... : ... .. 7 P82 ... ... : ... .. . ... : ... .. 8 ... : ... .. . ... ... : ... .. 4 ... ... : ... .. 4 ... ... : ... .. D ... ...
ROW CA : ... .. . ... ... ... : ... .. 6 P83 ... ... : ... .. . ... : ... .. 4 ... : ... .. . ... ... : ... .. . ... ... : ... .. . ... ... : ... .. 8 ... ...
ROW CB : ... .. . ... ... ... : B-4 00 5 P7D ... ... : ... .. . ... : ... .. 2 ... : ... .. . ... ... : ... .. 3 ... ... : ... .. 3 ... ... : ... .. . ... ...
ROW CC : ... .. . ... ... ... : ... .. . P7E ... ... : ... .. . ... : ... .. 1 ... : ... .. . ... ... : ... .. 2 ... ... : ... .. 2 ... ... : ... .. . ... ...
ROW CD : ... .. 2 ... ... ... : ... .. . P7F ... ... : ... .. . ... : ... .. 0 ... : ... .. . ... ... : ... .. . ... ... : ... .. . ... ... : ... .. . ... ...
ROW CE : ... .. . ... ... ... : ... .. . P80 ... ... : ... .. . ... : ... .. . ... : ... .. . ... ... : ... .. 1 ... ... : ... .. 1 ... ... : ... .. . ... ...
ROW CF : ... .. . ... ... ... : ... .. . ... ... ... : ... .. . ... : ... .. . ... : ... .. . ... ... : ... .. . ... ... : ... .. . ... ... : ... .. . ... ...
ROW D0 : D#3 00 F ... ... ... : ... .. 8 P7F ... ... : ... .. . ... : 1-# 00 F ... : ... .. . ... ... : ... .. 5 ... ... : ... .. 5 ... ... : ... .. . ... ...
ROW D1 : ... .. E P89 ... ... : ... .. 7 P7E ... ... : ... .. . ... : ... .. C ... : ... .. . ... ... : ... .. 4 ... ... : ... .. 4 ... ... : ... .. . ... ...
ROW D2 : E-3 00 D P7D ... ... : ... .. 6 P7D ... ... : ... .. . ... : ... .. 6 ... : ... .. . ... ... : ... .. . ... ... : ... .. . ... ... : ... .. . ... ...
ROW D3 : ... .. A P80 ... ... : A#4 00 5 P83 ... ... : ... .. . ... : ... .. 3 ... : ... .. . ... ... : ... .. 3 ... ... : ... .. 3 ... ... : ... .. . ... ...
ROW D4 : ... .. . ... ... ... : ... .. 4 P82 ... ... : ... .. . ... : ... .. 2 ... : ... .. . ... ... : ... .. 2 ... ... : ... .. 2 ... ... : ... .. . ... ...
ROW D5 : ... .. 2 ... ... ... : ... .. . P81 ... ... : ... .. . ... : ... .. 0 ... : ... .. . ... ... : ... .. . ... ... : ... .. . ... ... : ... .. . ... ...
ROW D6 : ... .. . ... ... ... : ... .. . P80 ... ... : --- .. . ... : ... .. . ... : ... .. . ... ... : ... .. 1 ... ... : ... .. 1 ... ... : --- .. . P83 ...
ROW D7 : ... .. . ... ... ... : ... .. . ... ... ... : ... .. . ... : ... .. . ... : ... .. . ... ... : ... .. . ... ... : ... .. . ... ... : ... .. . ... ...
ROW D8 : D#3 00 F ... ... ... : ... .. 7 P81 ... ... : D#2 00 . ... : E-# 00 A ... : ... .. . ... ... : ... .. 5 ... ... : ... .. 5 ... ... : D#0 01 F P80 ...
ROW D9 : ... .. E ... ... ... : ... .. 6 P82 ... ... : ... .. . ... : ... .. 8 ... : ... .. . ... ... : ... .. 4 ... ... : ... .. 4 ... ... : ... .. D ... ...
ROW DA : ... .. D ... ... ... : ... .. . P83 ... ... : ... .. . ... : ... .. 4 ... : ... .. . ... ... : ... .. . ... ... : ... .. . ... ... : ... .. 8 ... ...
ROW DB : ... .. A ... ... ... : B-4 00 4 P7D ... ... : ... .. . ... : ... .. 2 ... : ... .. . ... ... : ... .. 3 ... ... : ... .. 3 ... ... : ... .. . ... ...
ROW DC : ... .. . ... ... ... : ... .. . P7E ... ... : ... .. . ... : ... .. 1 ... : ... .. . ... ... : ... .. 2 ... ... : ... .. 2 ... ... : ... .. . ... ...
ROW DD : ... .. . ... ... ... : ... .. . P7F ... ... : ... .. . ... : ... .. 0 ... : ... .. . ... ... : ... .. . ... ... : ... .. . ... ... : ... .. . ... ...
ROW DE : ... .. . ... ... ... : ... .. . P80 ... ... : ... .. . ... : ... .. . ... : ... .. . ... ... : ... .. 1 ... ... : ... .. 1 ... ... : ... .. . ... ...
ROW DF : ... .. . ... ... ... : ... .. . ... ... ... : ... .. . ... : ... .. . ... : ... .. . ... ... : ... .. . ... ... : ... .. . ... ... : ... .. . ... ...
ROW E0 : F#3 00 8 ... ... ... : ... .. 6 P7F ... ... : B-3 00 . P7D : 5-# 00 D ... : ... .. . ... ... : ... .. 5 ... ... : ... .. 5 ... ... : ... .. . ... ...
ROW E1 : G-3 00 7 P78 ... ... : ... .. 5 P7E ... ... : A#3 00 . P7C : ... .. . ... : ... .. . ... ... : ... .. 4 ... ... : ... .. 4 ... ... : ... .. . ... ...
ROW E2 : ... .. 6 P80 ... ... : ... .. . P7D ... ... : A-3 00 . P7B : 1-# 00 D ... : ... .. . ... ... : ... .. . ... ... : ... .. . ... ... : ... .. . ... ...
ROW E3 : ... .. 5 ... ... ... : A#4 00 4 P83 ... ... : G#3 00 . ... : F-# 00 6 ... : ... .. . ... ... : ... .. 3 ... ... : ... .. 3 ... ... : ... .. . ... ...
ROW E4 : ... .. . ... ... ... : ... .. . P82 ... ... : G-3 00 . P7C : B-# 00 1 ... : ... .. . ... ... : ... .. 2 ... ... : ... .. 2 ... ... : ... .. . ... ...
ROW E5 : ... .. . ... ... ... : ... .. . P81 ... ... : F#3 00 . P7E : ... .. 0 ... : ... .. . ... ... : ... .. . ... ... : ... .. . ... ... : ... .. . ... ...
ROW E6 : ... .. . ... ... ... : ... .. . P80 ... ... : --- .. . ... : ... .. . ... : ... .. . ... ... : ... .. 1 ... ... : ... .. 1 ... ... : --- .. . P83 ...
ROW E7 : ... .. . ... ... ... : ... .. . ... ... ... : ... .. . ... : ... .. . ... : ... .. . ... ... : ... .. . ... ... : ... .. . ... ... : ... .. . ... ...
ROW E8 : ... .. . ... ... ... : ... .. 6 P81 ... ... : C#2 00 . P80 : E-# 00 A ... : ... .. . ... ... : ... .. 5 ... ... : ... .. 5 ... ... : C#0 01 F P80 ...
ROW E9 : ... .. . ... ... ... : ... .. 5 P82 ... ... : ... .. . ... : ... .. 8 ... : ... .. . ... ... : ... .. 4 ... ... : ... .. 4 ... ... : ... .. D ... ...
ROW EA : ... .. . ... ... ... : ... .. . P83 ... ... : ... .. . ... : ... .. 4 ... : ... .. . ... ... : ... .. . ... ... : ... .. . ... ... : ... .. 8 ... ...
ROW EB : ... .. . ... ... ... : B-4 00 4 P7D ... ... : ... .. . ... : ... .. 2 ... : ... .. . ... ... : ... .. 3 ... ... : ... .. 3 ... ... : ... .. . ... ...
ROW EC : ... .. . ... ... ... : ... .. 3 P7E ... ... : ... .. . ... : ... .. 1 ... : ... .. . ... ... : ... .. 2 ... ... : ... .. 2 ... ... : ... .. . ... ...
ROW ED : ... .. 1 ... ... ... : ... .. . P7F ... ... : ... .. . ... : ... .. 0 ... : ... .. . ... ... : ... .. . ... ... : ... .. . ... ... : ... .. . ... ...
ROW EE : ... .. . ... ... ... : ... .. . P80 ... ... : --- .. . ... : ... .. . ... : ... .. . ... ... : ... .. 1 ... ... : ... .. 1 ... ... : --- .. . P83 ...
ROW EF : ... .. . ... ... ... : ... .. . ... ... ... : ... .. . ... : ... .. . ... : ... .. . ... ... : ... .. . ... ... : ... .. . ... ... : ... .. . ... ...
ROW F0 : D#3 00 8 ... ... ... : ... .. 5 P7F ... ... : C#3 00 . ... : ... .. F ... : ... .. . ... ... : ... .. 5 ... ... : ... .. 5 ... ... : C#1 01 F P80 ...
ROW F1 : ... .. 7 P89 ... ... : ... .. 4 P7E ... ... : ... .. . ... : ... .. C ... : ... .. . ... ... : ... .. 4 ... ... : ... .. 4 ... ... : ... .. D ... ...
ROW F2 : E-3 00 6 P7D ... ... : ... .. . P7D ... ... : ... .. . ... : ... .. 6 ... : ... .. . ... ... : ... .. . ... ... : ... .. . ... ... : ... .. 8 ... ...
ROW F3 : ... .. 5 P80 ... ... : A#4 00 3 P83 ... ... : ... .. . ... : ... .. 3 ... : ... .. . ... ... : ... .. 3 ... ... : ... .. 3 ... ... : ... .. . ... ...
ROW F4 : ... .. . ... ... ... : ... .. . P82 ... ... : ... .. . ... : ... .. 2 ... : ... .. . ... ... : ... .. 2 ... ... : ... .. 2 ... ... : ... .. . ... ...
ROW F5 : ... .. 1 ... ... ... : ... .. . P81 ... ... : ... .. . ... : ... .. 0 ... : ... .. . ... ... : ... .. . ... ... : ... .. . ... ... : ... .. . ... ...
ROW F6 : ... .. . ... ... ... : ... .. . P80 ... ... : --- .. . ... : ... .. . ... : ... .. . ... ... : ... .. 1 ... ... : ... .. 1 ... ... : --- .. . P81 ...
ROW F7 : ... .. . ... ... ... : ... .. . ... ... ... : ... .. . ... : ... .. . ... : ... .. . ... ... : ... .. . ... ... : ... .. . ... ... : ... .. . ... ...
ROW F8 : D#3 00 8 ... ... ... : A-4 00 5 P82 ... ... : D#3 00 . ... : D-# 00 A ... : ... .. . ... ... : ... .. 5 ... ... : ... .. 5 ... ... : D#1 01 F P80 ...
ROW F9 : ... .. 7 ... ... ... : ... .. 4 P7D ... ... : ... .. . ... : ... .. . ... : ... .. . ... ... : ... .. 4 ... ... : ... .. 4 ... ... : ... .. D ... ...
ROW FA : ... .. 6 ... ... ... : G#4 00 4 P80 ... ... : ... .. . ... : ... .. . ... : ... .. . ... ... : ... .. . ... ... : ... .. . ... ... : ... .. 8 ... ...
ROW FB : ... .. 5 ... ... ... : ... .. 3 ... ... ... : ... .. . ... : ... .. . ... : ... .. . ... ... : ... .. 3 ... ... : ... .. 3 ... ... : ... .. . ... ...
ROW FC : ... .. . ... ... ... : ... .. 2 ... ... ... : ... .. . ... : ... .. . ... : ... .. . ... ... : ... .. 2 ... ... : ... .. 2 ... ... : ... .. . ... ...
ROW FD : ... .. . ... ... ... : ... .. . ... ... ... : ... .. . ... : ... .. . ... : ... .. . ... ... : ... .. . ... ... : ... .. . ... ... : ... .. . ... ...
ROW FE : ... .. . ... ... ... : ... .. . ... ... ... : --- .. . ... : ... .. . ... : ... .. . ... ... : ... .. 1 ... ... : ... .. 1 ... ... : --- .. . P81 ...
ROW FF : ... .. . ... ... ... : ... .. . ... ... ... : ... .. . ... : ... .. . ... : ... .. . ... ... : ... .. . ... ... : ... .. . ... ... : ... .. . ... ...

PATTERN 0B
ROW 00 : F#3 00 6 ... ... ... : G-4 00 5 P83 ... ... : A#2 00 . P82 : 1-# 00 F ... : ... .. . ... ... : ... .. 5 ... ... : ... .. 5 ... ... : C#2 01 F P80 ...
ROW 01 : G-3 00 5 P78 ... ... : ... .. 4 P80 ... ... : G#2 00 . P8B : ... .. C ... : ... .. . ... ... : ... .. 4 ... ... : ... .. 4 ... ... : ... .. D ... ...
ROW 02 : ... .. . P80 ... ... : ... .. . ... ... ... : G-2 00 . P79 : ... .. 6 ... : ... .. . ... ... : ... .. . ... ... : ... .. . ... ... : ... .. 8 ... ...
ROW 03 : ... .. 4 ... ... ... : ... .. 3 ... ... ... : F-2 00 . P8D : ... .. 3 ... : ... .. . ... ... : ... .. 3 ... ... : ... .. 3 ... ... : ... .. . ... ...
ROW 04 : ... .. . ... ... ... : ... .. 2 ... ... ... : E-2 00 . P81 : ... .. 2 ... : ... .. . ... ... : ... .. 2 ... ... : ... .. 2 ... ... : ... .. . ... ...
ROW 05 : ... .. . ... ... ... : ... .. . ... ... ... : D#2 00 . P77 : ... .. 0 ... : ... .. . ... ... : ... .. . ... ... : ... .. . ... ... : ... .. . ... ...
ROW 06 : ... .. . ... ... ... : ... .. . ... ... ... : --- .. . ... : ... .. . ... : ... .. . ... ... : ... .. 1 ... ... : ... .. 1 ... ... : --- .. . ... ...
ROW 07 : ... .. . ... ... ... : ... .. . ... ... ... : ... .. . ... : ... .. . ... : ... .. . ... ... : ... .. . ... ... : ... .. . ... ... : ... .. . ... ...
ROW 08 : ... .. . ... ... ... : G#4 00 5 P7D ... ... : D#2 00 . P80 : E-# 00 A ... : ... .. . ... ... : ... .. 5 ... ... : ... .. 5 ... ... : D#0 01 F ... ...
ROW 09 : ... .. . ... ... ... : ... .. 4 P80 ... ... : ... .. . ... : ... .. 8 ... : ... .. . ... ... : ... .. 4 ... ... : ... .. 4 ... ... : ... .. D ... ...
ROW 0A : ... .. . ... ... ... : ... .. . ... ... ... : ... .. . ... : ... .. 4 ... : ... .. . ... ... : ... .. . ... ... : ... .. . ... ... : ... .. 8 ... ...
ROW 0B : ... .. . ... ... ... : ... .. 3 ... ... ... : ... .. . ... : ... .. 2 ... : ... .. . ... ... : ... .. 3 ... ... : ... .. 3 ... ... : ... .. . ... ...
ROW 0C : ... .. . ... ... ... : ... .. 2 ... ... ... : ... .. . ... : ... .. 1 ... : ... .. . ... ... : ... .. 2 ... ... : ... .. 2 ... ... : ... .. . ... ...
ROW 0D : ... .. 1 ... ... ... : ... .. . ... ... ... : ... .. . ... : ... .. 0 ... : ... .. . ... ... : ... .. . ... ... : ... .. . ... ... : ... .. . ... ...
ROW 0E : ... .. . ... ... ... : ... .. . ... ... ... : ... .. . ... : ... .. . ... : ... .. . ... ... : ... .. 1 ... ... : ... .. 1 ... ... : ... .. . ... ...
ROW 0F : ... .. . ... ... ... : ... .. . ... ... ... : ... .. . ... : ... .. . ... : ... .. . ... ... : ... .. . ... ... : ... .. . ... ... : ... .. . ... ...
ROW 10 : D#3 00 6 ... ... ... : G-4 00 5 ... ... ... : ... .. . ... : ... .. F ... : ... .. . ... ... : ... .. 5 ... ... : ... .. 5 ... ... : ... .. . ... ...
ROW 11 : ... .. 5 P89 ... ... : ... .. 4 ... ... ... : ... .. . ... : ... .. C ... : ... .. . ... ... : ... .. 4 ... ... : ... .. 4 ... ... : ... .. . ... ...
ROW 12 : E-3 00 5 P7D ... ... : ... .. . ... ... ... : ... .. . ... : ... .. 6 ... : ... .. . ... ... : ... .. . ... ... : ... .. . ... ... : ... .. . ... ...
ROW 13 : ... .. 4 P80 ... ... : ... .. 3 ... ... ... : ... .. . ... : ... .. 3 ... : ... .. . ... ... : ... .. 3 ... ... : ... .. 3 ... ... : ... .. . ... ...
ROW 14 : ... .. . ... ... ... : ... .. 2 ... ... ... : ... .. . ... : ... .. 2 ... : ... .. . ... ... : ... .. 2 ... ... : ... .. 2 ... ... : ... .. . ... ...
ROW 15 : ... .. 1 ... ... ... : ... .. . ... ... ... : ... .. . ... : ... .. 0 ... : ... .. . ... ... : ... .. . ... ... : ... .. . ... ... : ... .. . ... ...
ROW 16 : ... .. . ... ... ... : ... .. . ... ... ... : --- .. . ... : ... .. . ... : ... .. . ... ... : ... .. 1 ... ... : ... .. 1 ... ... : --- .. . P83 ...
ROW 17 : ... .. . ... ... ... : ... .. . ... ... ... : ... .. . ... : ... .. . ... : ... .. . ... ... : ... .. . ... ... : ... .. . ... ... : ... .. . ... ...
ROW 18 : D#3 00 6 ... ... ... : ... .. . ... ... ... : D#2 00 . ... : 1-# 00 F ... : ... .. . ... ... : ... .. 5 ... ... : ... .. 5 ... ... : D#0 01 F P80 ...
ROW 19 : ... .. 5 ... ... ... : ... .. . ... ... ... : ... .. . ... : ... .. C ... : ... .. . ... ... : ... .. 4 ... ... : ... .. 4 ... ... : ... .. D ... ...
ROW 1A : ... .. . ... ... ... : ... .. . ... ... ... : ... .. . ... : ... .. 6 ... : ... .. . ... ... : ... .. . ... ... : ... .. . ... ... : ... .. 8 ... ...
ROW 1B : ... .. 4 ... ... ... : ... .. . ... ... ... : ... .. . ... : ... .. 3 ... : ... .. . ... ... : ... .. 3 ... ... : ... .. 3 ... ... : ... .. . ... ...
ROW 1C : ... .. . ... ... ... : ... .. . ... ... ... : ... .. . ... : ... .. 2 ... : ... .. . ... ... : ... .. 2 ... ... : ... .. 2 ... ... : ... .. . ... ...
ROW 1D : ... .. . ... ... ... : ... .. . ... ... ... : ... .. . ... : ... .. 0 ... : ... .. . ... ... : ... .. . ... ... : ... .. . ... ... : ... .. . ... ...
ROW 1E : ... .. . ... ... ... : ... .. . ... ... ... : ... .. . ... : ... .. . ... : ... .. . ... ... : ... .. 1 ... ... : ... .. 1 ... ... : ... .. . ... ...
ROW 1F : ... .. . ... ... ... : ... .. . ... ... ... : ... .. . ... : ... .. . ... : ... .. . ... ... : ... .. . ... ... : ... .. . ... ... : ... .. . ... ...
ROW 20 : F#3 00 4 ... ... ... : F-4 00 5 P81 ... ... : B-3 00 . P7D : 5-# 00 D ... : ... .. . ... ... : E-3 01 5 ... ... : G#3 01 5 ... ... : ... .. . ... ...
ROW 21 : G-3 00 3 P78 ... ... : D#4 00 4 P85 ... ... : A#3 00 . P7C : ... .. . ... : ... .. . ... ... : ... .. 4 ... ... : ... .. 4 ... ... : ... .. . ... ...
ROW 22 : ... .. . P80 ... ... : ... .. . P80 ... ... : A-3 00 . P7B : 1-# 00 D ... : ... .. . ... ... : ... .. . ... ... : ... .. . ... ... : ... .. . ... ...
ROW 23 : ... .. 2 ... ... ... : ... .. 3 ... ... ... : G#3 00 . ... : F-# 00 6 ... : ... .. . ... ... : ... .. 3 ... ... : ... .. 3 ... ... : ... .. . ... ...
ROW 24 : ... .. . ... ... ... : ... .. . ... ... ... : G-3 00 . P7C : B-# 00 1 ... : ... .. . ... ... : ... .. 2 ... ... : ... .. 2 ... ... : ... .. . ... ...
ROW 25 : ... .. . ... ... ... : ... .. . ... ... ... : F#3 00 . P7E : ... .. 0 ... : ... .. . ... ... : ... .. . ... ... : ... .. . ... ... : ... .. . ... ...
ROW 26 : ... .. . ... ... ... : ... .. . ... ... ... : --- .. . ... : ... .. . ... : ... .. . ... ... : ... .. 1 ... ... : ... .. 1 ... ... : --- .. . P83 ...
ROW 27 : ... .. . ... ... ... : ... .. . ... ... ... : ... .. . ... : ... .. . ... : ... .. . ... ... : ... .. . ... ... : ... .. . ... ... : ... .. . ... ...
ROW 28 : ... .. . ... ... ... : ... .. . ... ... ... : G#2 00 . P80 : E-# 00 A ... : ... .. . ... ... : ... .. 5 ... ... : ... .. 5 ... ... : G#0 01 F P80 ...
ROW 29 : ... .. . ... ... ... : ... .. . ... ... ... : ... .. . ... : ... .. 8 ... : ... .. . ... ... : ... .. 4 ... ... : ... .. 4 ... ... : ... .. D ... ...
ROW 2A : ... .. . ... ... ... : ... .. . ... ... ... : ... .. . ... : ... .. 4 ... : ... .. . ... ... : ... .. . ... ... : ... .. . ... ... : ... .. 8 ... ...
ROW 2B : ... .. . ... ... ... : ... .. . ... ... ... : ... .. . ... : ... .. 2 ... : ... .. . ... ... : ... .. 3 ... ... : ... .. 3 ... ... : ... .. . ... ...
ROW 2C : ... .. . ... ... ... : ... .. . ... ... ... : ... .. . ... : ... .. 1 ... : ... .. . ... ... : ... .. 2 ... ... : ... .. 2 ... ... : ... .. . ... ...
ROW 2D : ... .. 1 ... ... ... : ... .. . ... ... ... : ... .. . ... : ... .. 0 ... : ... .. . ... ... : ... .. . ... ... : ... .. . ... ... : ... .. . ... ...
ROW 2E : ... .. . ... ... ... : ... .. . ... ... ... : --- .. . ... : ... .. . ... : ... .. . ... ... : ... .. 1 ... ... : ... .. 1 ... ... : --- .. . P84 ...
ROW 2F : ... .. . ... ... ... : ... .. . ... ... ... : ... .. . ... : ... .. . ... : ... .. . ... ... : ... .. . ... ... : ... .. . ... ... : ... .. . ... ...
ROW 30 : D#3 00 4 ... ... ... : C#4 00 5 P86 ... ... : C#3 00 . ... : ... .. F ... : ... .. . ... ... : ... .. 5 ... ... : ... .. 5 ... ... : C#1 01 F P80 ...
ROW 31 : ... .. 3 P89 ... ... : C-4 00 4 P82 ... ... : ... .. . ... : ... .. C ... : ... .. . ... ... : ... .. 4 ... ... : ... .. 4 ... ... : ... .. D ... ...
ROW 32 : E-3 00 3 P7D ... ... : B-3 00 4 P7E ... ... : ... .. . ... : ... .. 6 ... : ... .. . ... ... : ... .. . ... ... : ... .. . ... ... : ... .. 8 ... ...
ROW 33 : ... .. 2 P80 ... ... : A#3 00 3 P80 ... ... : ... .. . ... : ... .. 3 ... : ... .. . ... ... : ... .. 3 ... ... : ... .. 3 ... ... : ... .. . ... ...
ROW 34 : ... .. . ... ... ... : ... .. . ... ... ... : ... .. . ... : ... .. 2 ... : ... .. . ... ... : ... .. 2 ... ... : ... .. 2 ... ... : ... .. . ... ...
ROW 35 : ... .. 1 ... ... ... : ... .. . ... ... ... : ... .. . ... : ... .. 0 ... : ... .. . ... ... : ... .. . ... ... : ... .. . ... ... : ... .. . ... ...
ROW 36 : ... .. . ... ... ... : ... .. . ... ... ... : --- .. . ... : ... .. . ... : ... .. . ... ... : ... .. 1 ... ... : ... .. 1 ... ... : --- .. . P81 ...
ROW 37 : ... .. . ... ... ... : ... .. . ... ... ... : ... .. . ... : ... .. . ... : ... .. . ... ... : ... .. . ... ... : ... .. . ... ... : ... .. . ... ...
ROW 38 : D#3 00 4 ... ... ... : ... .. . ... ... ... : G#3 00 . ... : F-# 00 F ... : ... .. . ... ... : ... .. 5 ... ... : ... .. 5 ... ... : G#1 01 F P80 ...
ROW 39 : ... .. 3 ... ... ... : ... .. . ... ... ... : ... .. . ... : ... .. C ... : ... .. . ... ... : ... .. 4 ... ... : ... .. 4 ... ... : ... .. D ... ...
ROW 3A : ... .. . ... ... ... : ... .. . ... ... ... : ... .. . ... : ... .. 6 ... : ... .. . ... ... : ... .. . ... ... : ... .. . ... ... : ... .. 8 ... ...
ROW 3B : ... .. 2 ... ... ... : ... .. . ... ... ... : ... .. . ... : ... .. 3 ... : ... .. . ... ... : ... .. 3 ... ... : ... .. 3 ... ... : ... .. . ... ...
ROW 3C : ... .. . ... ... ... : ... .. . ... ... ... : ... .. . ... : ... .. F ... : ... .. . ... ... : ... .. 2 ... ... : ... .. 2 ... ... : ... .. . ... ...
ROW 3D : ... .. . ... ... ... : ... .. . ... ... ... : ... .. . ... : ... .. C ... : ... .. . ... ... : ... .. . ... ... : ... .. . ... ... : ... .. . ... ...
ROW 3E : ... .. . ... ... ... : ... .. . ... ... ... : --- .. . ... : ... .. 6 ... : ... .. . ... ... : ... .. 1 ... ... : ... .. 1 ... ... : --- .. . P7E ...
ROW 3F : ... .. . ... ... ... : ... .. . ... ... ... : ... .. . ... : ... .. 3 ... : ... .. . ... ... : ... .. . ... ... : ... .. . ... ... : ... .. . ... ...
ROW 40 : ... .. 0 ... ... ... : B-3 00 5 P82 ... ... : A#2 00 . P82 : 1-# 00 F ... : ... .. . ... ... : F#3 01 5 ... ... : A#3 01 5 ... ... : F#1 01 F P80 ...
ROW 41 : ... .. . ... ... ... : C-4 00 4 P86 ... ... : G#2 00 . P8B : ... .. C ... : ... .. . ... ... : ... .. 4 ... ... : ... .. 4 ... ... : ... .. D ... ...
ROW 42 : ... .. . ... ... ... : C#4 00 4 P80 ... ... : G-2 00 . P79 : ... .. 6 ... : ... .. . ... ... : ... .. . ... ... : ... .. . ... ... : ... .. 8 ... ...
ROW 43 : ... .. . ... ... ... : ... .. 3 ... ... ... : F-2 00 . P8D : ... .. 3 ... : ... .. . ... ... : ... .. 3 ... ... : ... .. 3 ... ... : ... .. . ... ...
ROW 44 : ... .. . ... ... ... : ... .. . ... ... ... : E-2 00 . P81 : ... .. 2 ... : ... .. . ... ... : ... .. 2 ... ... : ... .. 2 ... ... : ... .. . ... ...
ROW 45 : ... .. . ... ... ... : ... .. . ... ... ... : D#2 00 . P77 : ... .. 0 ... : ... .. . ... ... : ... .. . ... ... : ... .. . ... ... : ... .. . ... ...
ROW 46 : ... .. . ... ... ... : ... .. . ... ... ... : --- .. . ... : ... .. . ... : ... .. . ... ... : ... .. 1 ... ... : ... .. 1 ... ... : --- .. . P81 ...
ROW 47 : ... .. . ... ... ... : ... .. . ... ... ... : ... .. . ... : ... .. . ... : ... .. . ... ... : ... .. . ... ... : ... .. . ... ... : ... .. . ... ...
ROW 48 : ... .. . ... ... ... : ... .. . ... ... ... : F#2 00 . P80 : E-# 00 A ... : ... .. . ... ... : ... .. 5 ... ... : ... .. 5 ... ... : F#0 01 F P80 ...
ROW 49 : ... .. . ... ... ... : ... .. . ... ... ... : ... .. . ... : ... .. 8 ... : ... .. . ... ... : ... .. 4 ... ... : ... .. 4 ... ... : ... .. D ... ...
ROW 4A : ... .. . ... ... ... : ... .. . ... ... ... : ... .. . ... : ... .. 4 ... : ... .. . ... ... : ... .. . ... ... : ... .. . ... ... : ... .. 8 ... ...
ROW 4B : ... .. . ... ... ... : ... .. . ... ... ... : ... .. . ... : ... .. 2 ... : ... .. . ... ... : ... .. 3 ... ... : ... .. 3 ... ... : ... .. . ... ...
ROW 4C : ... .. . ... ... ... : ... .. . ... ... ... : ... .. . ... : ... .. 1 ... : ... .. . ... ... : ... .. 2 ... ... : ... .. 2 ... ... : ... .. . ... ...
ROW 4D : ... .. . ... ... ... : ... .. . ... ... ... : ... .. . ... : ... .. 0 ... : ... .. . ... ... : ... .. . ... ... : ... .. . ... ... : ... .. . ... ...
ROW 4E : ... .. . ... ... ... : ... .. . ... ... ... : ... .. . ... : ... .. . ... : ... .. . ... ... : ... .. 1 ... ... : ... .. 1 ... ... : ... .. . ... ...
ROW 4F : ... .. . ... ... ... : ... .. . ... ... ... : ... .. . ... : ... .. . ... : ... .. . ... ... : ... .. . ... ... : ... .. . ... ... : ... .. . ... ...
ROW 50 : ... .. . ... ... ... : ... .. 4 ... ... ... : ... .. . ... : 1-# 00 F ... : ... .. . ... ... : ... .. 5 ... ... : ... .. 5 ... ... : ... .. . ... ...
ROW 51 : ... .. . ... ... ... : ... .. . ... ... ... : ... .. . ... : ... .. C ... : ... .. . ... ... : ... .. 4 ... ... : ... .. 4 ... ... : ... .. . ... ...
ROW 52 : ... .. . ... ... ... : ... .. . ... ... ... : ... .. . ... : ... .. 6 ... : ... .. . ... ... : ... .. . ... ... : ... .. . ... ... : ... .. . ... ...
ROW 53 : ... .. . ... ... ... : ... .. . ... ... ... : ... .. . ... : ... .. 3 ... : ... .. . ... ... : ... .. 3 ... ... : ... .. 3 ... ... : ... .. . ... ...
ROW 54 : ... .. . ... ... ... : ... .. . ... ... ... : ... .. . ... : ... .. 2 ... : ... .. . ... ... : ... .. 2 ... ... : ... .. 2 ... ... : ... .. . ... ...
ROW 55 : ... .. . ... ... ... : ... .. . ... ... ... : ... .. . ... : ... .. 0 ... : ... .. . ... ... : ... .. . ... ... : ... .. . ... ... : ... .. . ... ...
ROW 56 : ... .. . ... ... ... : ... .. . ... ... ... : --- .. . ... : ... .. . ... : ... .. . ... ... : ... .. 1 ... ... : ... .. 1 ... ... : --- .. . P81 ...
ROW 57 : ... .. . ... ... ... : ... .. . ... ... ... : ... .. . ... : ... .. . ... : ... .. . ... ... : ... .. . ... ... : ... .. . ... ... : ... .. . ... ...
ROW 58 : ... .. . ... ... ... : ... .. . ... ... ... : F#2 00 . ... : E-# 00 A ... : ... .. . ... ... : ... .. 5 ... ... : ... .. 5 ... ... : F#0 01 F P80 ...
ROW 59 : ... .. . ... ... ... : ... .. . ... ... ... : ... .. . ... : ... .. 8 ... : ... .. . ... ... : ... .. 4 ... ... : ... .. 4 ... ... : ... .. D ... ...
ROW 5A : ... .. . ... ... ... : ... .. . ... ... ... : ... .. . ... : ... .. 4 ... : ... .. . ... ... : ... .. . ... ... : ... .. . ... ... : ... .. 8 ... ...
ROW 5B : ... .. . ... ... ... : ... .. . ... ... ... : ... .. . ... : ... .. 2 ... : ... .. . ... ... : ... .. 3 ... ... : ... .. 3 ... ... : ... .. . ... ...
ROW 5C : ... .. . ... ... ... : ... .. . ... ... ... : ... .. . ... : ... .. 1 ... : ... .. . ... ... : ... .. 2 ... ... : ... .. 2 ... ... : ... .. . ... ...
ROW 5D : ... .. . ... ... ... : ... .. . ... ... ... : ... .. . ... : ... .. 0 ... : ... .. . ... ... : ... .. . ... ... : ... .. . ... ... : ... .. . ... ...
ROW 5E : ... .. . ... ... ... : ... .. . ... ... ... : ... .. . ... : ... .. . ... : ... .. . ... ... : ... .. 1 ... ... : ... .. 1 ... ... : ... .. . ... ...
ROW 5F : ... .. . ... ... ... : ... .. . ... ... ... : ... .. . ... : ... .. . ... : ... .. . ... ... : ... .. . ... ... : ... .. . ... ... : ... .. . ... ...
ROW 60 : C#3 00 F P80 ... ... : D-4 00 7 P84 ... ... : B-3 00 . P7D : 5-# 00 D ... : ... .. . ... ... : ... .. 5 ... ... : ... .. 5 ... ... : ... .. . ... ...
ROW 61 : ... .. E ... ... ... : E-4 00 6 P80 ... ... : A#3 00 . P7C : ... .. . ... : ... .. . ... ... : ... .. 4 ... ... : ... .. 4 ... ... : ... .. . ... ...
ROW 62 : ... .. D ... ... ... : F#4 00 6 P7D ... ... : A-3 00 . P7B : 1-# 00 D ... : ... .. . ... ... : ... .. . ... ... : ... .. . ... ... : ... .. . ... ...
ROW 63 : ... .. A ... ... ... : G#4 00 4 ... ... ... : G#3 00 . ... : F-# 00 6 ... : ... .. . ... ... : ... .. 3 ... ... : ... .. 3 ... ... : ... .. . ... ...
ROW 64 : ... .. . ... ... ... : A#4 00 4 P7E ... ... : G-3 00 . P7C : B-# 00 1 ... : ... .. . ... ... : ... .. 2 ... ... : ... .. 2 ... ... : ... .. . ... ...
ROW 65 : ... .. . ... ... ... : ... .. . P80 ... ... : F#3 00 . P7E : ... .. 0 ... : ... .. . ... ... : ... .. . ... ... : ... .. . ... ... : ... .. . ... ...
ROW 66 : ... .. . ... ... ... : ... .. . ... ... ... : --- .. . ... : ... .. . ... : ... .. . ... ... : ... .. 1 ... ... : ... .. 1 ... ... : --- .. . P81 ...
ROW 67 : ... .. . ... ... ... : ... .. . ... ... ... : ... .. . ... : ... .. . ... : ... .. . ... ... : ... .. . ... ... : ... .. . ... ... : ... .. . ... ...
ROW 68 : ... .. . ... ... ... : ... .. . ... ... ... : F#2 00 . P80 : E-# 00 A ... : ... .. . ... ... : ... .. 5 ... ... : ... .. 5 ... ... : F#0 01 F P80 ...
ROW 69 : ... .. . ... ... ... : ... .. . ... ... ... : ... .. . ... : ... .. 8 ... : ... .. . ... ... : ... .. 4 ... ... : ... .. 4 ... ... : ... .. D ... ...
ROW 6A : ... .. . ... ... ... : ... .. . ... ... ... : ... .. . ... : ... .. 4 ... : ... .. . ... ... : ... .. . ... ... : ... .. . ... ... : ... .. 8 ... ...
ROW 6B : ... .. . ... ... ... : ... .. . ... ... ... : ... .. . ... : ... .. 2 ... : ... .. . ... ... : ... .. 3 ... ... : ... .. 3 ... ... : ... .. . ... ...
ROW 6C : ... .. . ... ... ... : ... .. . ... ... ... : ... .. . ... : ... .. 1 ... : ... .. . ... ... : ... .. 2 ... ... : ... .. 2 ... ... : ... .. . ... ...
ROW 6D : ... .. . ... ... ... : ... .. . ... ... ... : ... .. . ... : ... .. 0 ... : ... .. . ... ... : ... .. . ... ... : ... .. . ... ... : ... .. . ... ...
ROW 6E : ... .. . ... ... ... : ... .. . ... ... ... : --- .. . ... : ... .. . ... : ... .. . ... ... : ... .. 1 ... ... : ... .. 1 ... ... : --- .. . P81 ...
ROW 6F : ... .. . ... ... ... : ... .. . ... ... ... : ... .. . ... : ... .. . ... : ... .. . ... ... : ... .. . ... ... : ... .. . ... ... : ... .. . ... ...
ROW 70 : G#3 00 F ... ... ... : ... .. 5 ... ... ... : C#3 00 . ... : ... .. F ... : ... .. . ... ... : ... .. 5 ... ... : ... .. 5 ... ... : C#1 01 F P80 ...
ROW 71 : A-3 00 E P7A ... ... : ... .. . ... ... ... : ... .. . ... : ... .. C ... : ... .. . ... ... : ... .. 4 ... ... : ... .. 4 ... ... : ... .. D ... ...
ROW 72 : ... .. D P83 ... ... : ... .. . ... ... ... : ... .. . ... : ... .. 6 ... : ... .. . ... ... : ... .. . ... ... : ... .. . ... ... : ... .. 8 ... ...
ROW 73 : A#3 00 A P7E ... ... : ... .. . ... ... ... : ... .. . ... : ... .. 3 ... : ... .. . ... ... : ... .. 3 ... ... : ... .. 3 ... ... : ... .. . ... ...
ROW 74 : ... .. . P80 ... ... : ... .. . ... ... ... : ... .. . ... : ... .. 2 ... : ... .. . ... ... : ... .. 2 ... ... : ... .. 2 ... ... : ... .. . ... ...
ROW 75 : ... .. . ... ... ... : ... .. . ... ... ... : ... .. . ... : ... .. 0 ... : ... .. . ... ... : ... .. . ... ... : ... .. . ... ... : ... .. . ... ...
ROW 76 : ... .. . ... ... ... : ... .. . ... ... ... : --- .. . ... : ... .. . ... : ... .. . ... ... : ... .. 1 ... ... : ... .. 1 ... ... : --- .. . P81 ...
ROW 77 : ... .. . ... ... ... : ... .. . ... ... ... : ... .. . ... : ... .. . ... : ... .. . ... ... : ... .. . ... ... : ... .. . ... ... : ... .. . ... ...
ROW 78 : ... .. . ... ... ... : ... .. . ... ... ... : E-3 00 . ... : D-# 00 A ... : ... .. . ... ... : ... .. 5 ... ... : ... .. 5 ... ... : E-1 01 F P80 ...
ROW 79 : ... .. . ... ... ... : ... .. . ... ... ... : ... .. . ... : ... .. . ... : ... .. . ... ... : ... .. 4 ... ... : ... .. 4 ... ... : ... .. D ... ...
ROW 7A : ... .. . ... ... ... : ... .. . ... ... ... : ... .. . ... : ... .. . ... : ... .. . ... ... : ... .. . ... ... : ... .. . ... ... : ... .. 8 ... ...
ROW 7B : ... .. . ... ... ... : ... .. . ... ... ... : ... .. . ... : ... .. . ... : ... .. . ... ... : ... .. 3 ... ... : ... .. 3 ... ... : ... .. . ... ...
ROW 7C : ... .. . ... ... ... : ... .. . ... ... ... : ... .. . ... : ... .. . ... : ... .. . ... ... : ... .. 2 ... ... : ... .. 2 ... ... : ... .. . ... ...
ROW 7D : ... .. . ... ... ... : ... .. . ... ... ... : ... .. . ... : ... .. . ... : ... .. . ... ... : ... .. . ... ... : ... .. . ... ... : ... .. . ... ...
ROW 7E : ... .. . ... ... ... : ... .. . ... ... ... : --- .. . ... : ... .. . ... : ... .. . ... ... : ... .. 1 ... ... : ... .. 1 ... ... : --- .. . P82 ...
ROW 7F : ... .. . ... ... ... : ... .. . ... ... ... : ... .. . ... : ... .. . ... : ... .. . ... ... : ... .. . ... ... : ... .. . ... ... : ... .. . ... ...
ROW 80 : G#3 00 F ... ... ... : C-5 00 7 P83 ... ... : A#2 00 . P82 : 1-# 00 F ... : ... .. . ... ... : ... .. 5 ... ... : ... .. 5 ... ... : F#1 01 F P80 ...
ROW 81 : ... .. E ... ... ... : C#5 00 6 P80 ... ... : G#2 00 . P8B : ... .. C ... : ... .. . ... ... : ... .. 4 ... ... : ... .. 4 ... ... : ... .. D ... ...
ROW 82 : ... .. D ... ... ... : ... .. . ... ... ... : G-2 00 . P79 : ... .. 6 ... : ... .. . ... ... : ... .. . ... ... : ... .. . ... ... : ... .. 8 ... ...
ROW 83 : ... .. A ... ... ... : ... .. 4 ... ... ... : F-2 00 . P8D : ... .. 3 ... : ... .. . ... ... : ... .. 3 ... ... : ... .. 3 ... ... : ... .. . ... ...
ROW 84 : ... .. . ... ... ... : ... .. . ... ... ... : E-2 00 . P81 : ... .. 2 ... : ... .. . ... ... : ... .. 2 ... ... : ... .. 2 ... ... : ... .. . ... ...
ROW 85 : ... .. . ... ... ... : ... .. . ... ... ... : D#2 00 . P77 : ... .. 0 ... : ... .. . ... ... : ... .. . ... ... : ... .. . ... ... : ... .. . ... ...
ROW 86 : ... .. . ... ... ... : ... .. . ... ... ... : --- .. . ... : ... .. . ... : ... .. . ... ... : ... .. 1 ... ... : ... .. 1 ... ... : --- .. . P81 ...
ROW 87 : ... .. . ... ... ... : ... .. . ... ... ... : ... .. . ... : ... .. . ... : ... .. . ... ... : ... .. . ... ... : ... .. . ... ... : ... .. . ... ...
ROW 88 : ... .. . ... ... ... : ... .. . ... ... ... : F#2 00 . P80 : E-# 00 A ... : ... .. . ... ... : ... .. 5 ... ... : ... .. 5 ... ... : F#0 01 F P80 ...
ROW 89 : ... .. . ... ... ... : ... .. . ... ... ... : ... .. . ... : ... .. 8 ... : ... .. . ... ... : ... .. 4 ... ... : ... .. 4 ... ... : ... .. D ... ...
ROW 8A : ... .. . ... ... ... : ... .. . ... ... ... : ... .. . ... : ... .. 4 ... : ... .. . ... ... : ... .. . ... ... : ... .. . ... ... : ... .. 8 ... ...
ROW 8B : ... .. . ... ... ... : ... .. . ... ... ... : ... .. . ... : ... .. 2 ... : ... .. . ... ... : ... .. 3 ... ... : ... .. 3 ... ... : ... .. . ... ...
ROW 8C : ... .. . ... ... ... : ... .. . ... ... ... : ... .. . ... : ... .. 1 ... : ... .. . ... ... : ... .. 2 ... ... : ... .. 2 ... ... : ... .. . ... ...
ROW 8D : ... .. . ... ... ... : ... .. . ... ... ... : ... .. . ... : ... .. 0 ... : ... .. . ... ... : ... .. . ... ... : ... .. . ... ... : ... .. . ... ...
ROW 8E : ... .. . ... ... ... : ... .. . ... ... ... : ... .. . ... : ... .. . ... : ... .. . ... ... : ... .. 1 ... ... : ... .. 1 ... ... : ... .. . ... ...
ROW 8F : ... .. . ... ... ... : ... .. . ... ... ... : ... .. . ... : ... .. . ... : ... .. . ... ... : ... .. . ... ... : ... .. . ... ... : ... .. . ... ...
ROW 90 : ... .. . ... ... ... : A#4 00 7 P83 ... ... : ... .. . ... : ... .. F ... : ... .. . ... ... : ... .. 5 ... ... : ... .. 5 ... ... : ... .. . ... ...
ROW 91 : ... .. . ... ... ... : G#4 00 6 P82 ... ... : ... .. . ... : ... .. C ... : ... .. . ... ... : ... .. 4 ... ... : ... .. 4 ... ... : ... .. . ... ...
ROW 92 : ... .. . ... ... ... : F#4 00 6 ... ... ... : ... .. . ... : ... .. 6 ... : ... .. . ... ... : ... .. . ... ... : ... .. . ... ... : ... .. . ... ...
ROW 93 : ... .. . ... ... ... : ... .. 4 P80 ... ... : ... .. . ... : ... .. 3 ... : ... .. . ... ... : ... .. 3 ... ... : ... .. 3 ... ... : ... .. . ... ...
ROW 94 : ... .. . ... ... ... : ... .. . ... ... ... : ... .. . ... : ... .. 2 ... : ... .. . ... ... : ... .. 2 ... ... : ... .. 2 ... ... : ... .. . ... ...
ROW 95 : ... .. . ... ... ... : ... .. . ... ... ... : ... .. . ... : ... .. 0 ... : ... .. . ... ... : ... .. . ... ... : ... .. . ... ... : ... .. . ... ...
ROW 96 : ... .. . ... ... ... : ... .. . ... ... ... : --- .. . ... : ... .. . ... : ... .. . ... ... : ... .. 1 ... ... : ... .. 1 ... ... : --- .. . P81 ...
ROW 97 : ... .. . ... ... ... : ... .. . ... ... ... : ... .. . ... : ... .. . ... : ... .. . ... ... : ... .. . ... ... : ... .. . ... ... : ... .. . ... ...
ROW 98 : F#3 00 F ... ... ... : ... .. . ... ... ... : F#2 00 . ... : 1-# 00 F ... : ... .. . ... ... : ... .. 5 ... ... : ... .. 5 ... ... : F#0 01 F P80 ...
ROW 99 : ... .. E ... ... ... : ... .. . ... ... ... : ... .. . ... : ... .. C ... : ... .. . ... ... : ... .. 4 ... ... : ... .. 4 ... ... : ... .. D ... ...
ROW 9A : ... .. D ... ... ... : ... .. . ... ... ... : ... .. . ... : ... .. 6 ... : ... .. . ... ... : ... .. . ... ... : ... .. . ... ... : ... .. 8 ... ...
ROW 9B : ... .. A ... ... ... : ... .. . ... ... ... : ... .. . ... : ... .. 3 ... : ... .. . ... ... : ... .. 3 ... ... : ... .. 3 ... ... : ... .. . ... ...
ROW 9C : ... .. . ... ... ... : ... .. . ... ... ... : ... .. . ... : ... .. 2 ... : ... .. . ... ... : ... .. 2 ... ... : ... .. 2 ... ... : ... .. . ... ...
ROW 9D : ... .. . ... ... ... : ... .. . ... ... ... : ... .. . ... : ... .. 0 ... : ... .. . ... ... : ... .. . ... ... : ... .. . ... ... : ... .. . ... ...
ROW 9E : ... .. . ... ... ... : ... .. . ... ... ... : ... .. . ... : ... .. . ... : ... .. . ... ... : ... .. 1 ... ... : ... .. 1 ... ... : ... .. . ... ...
ROW 9F : ... .. . ... ... ... : ... .. . ... ... ... : ... .. . ... : ... .. . ... : ... .. . ... ... : ... .. . ... ... : ... .. . ... ... : ... .. . ... ...
ROW A0 : ... .. . ... ... ... : E-4 00 7 P83 ... ... : B-3 00 . P7D : 5-# 00 D ... : ... .. . ... ... : ... .. 5 ... ... : ... .. 5 ... ... : ... .. . ... ...
ROW A1 : ... .. . ... ... ... : D#4 00 6 P7D ... ... : A#3 00 . P7C : ... .. . ... : ... .. . ... ... : ... .. 4 ... ... : ... .. 4 ... ... : ... .. . ... ...
ROW A2 : ... .. . ... ... ... : C#4 00 6 P83 ... ... : A-3 00 . P7B : 1-# 00 D ... : ... .. . ... ... : ... .. . ... ... : ... .. . ... ... : ... .. . ... ...
ROW A3 : ... .. . ... ... ... : C-4 00 4 P7F ... ... : G#3 00 . ... : F-# 00 6 ... : ... .. . ... ... : ... .. 3 ... ... : ... .. 3 ... ... : ... .. . ... ...
ROW A4 : ... .. . ... ... ... : B-3 00 4 P7B ... ... : G-3 00 . P7C : B-# 00 1 ... : ... .. . ... ... : ... .. 2 ... ... : ... .. 2 ... ... : ... .. . ... ...
ROW A5 : ... .. . ... ... ... : A#3 00 4 P80 ... ... : F#3 00 . P7E : ... .. 0 ... : ... .. . ... ... : ... .. . ... ... : ... .. . ... ... : ... .. . ... ...
ROW A6 : ... .. . ... ... ... : ... .. . ... ... ... : --- .. . ... : ... .. . ... : ... .. . ... ... : ... .. 1 ... ... : ... .. 1 ... ... : --- .. . P81 ...
ROW A7 : ... .. . ... ... ... : ... .. . ... ... ... : ... .. . ... : ... .. . ... : ... .. . ... ... : ... .. . ... ... : ... .. . ... ... : ... .. . ... ...
ROW A8 : ... .. . ... ... ... : B-3 00 7 ... ... ... : F#2 00 . P80 : E-# 00 A ... : ... .. . ... ... : ... .. 5 ... ... : ... .. 5 ... ... : F#0 01 F P80 ...
ROW A9 : ... .. . ... ... ... : ... .. 6 ... ... ... : ... .. . ... : ... .. 8 ... : ... .. . ... ... : ... .. 4 ... ... : ... .. 4 ... ... : ... .. D ... ...
ROW AA : ... .. . ... ... ... : ... .. . ... ... ... : ... .. . ... : ... .. 4 ... : ... .. . ... ... : ... .. . ... ... : ... .. . ... ... : ... .. 8 ... ...
ROW AB : ... .. . ... ... ... : ... .. 4 ... ... ... : ... .. . ... : ... .. 2 ... : ... .. . ... ... : ... .. 3 ... ... : ... .. 3 ... ... : ... .. . ... ...
ROW AC : ... .. . ... ... ... : ... .. . ... ... ... : ... .. . ... : ... .. 1 ... : ... .. . ... ... : ... .. 2 ... ... : ... .. 2 ... ... : ... .. . ... ...
ROW AD : ... .. . ... ... ... : ... .. . ... ... ... : ... .. . ... : ... .. 0 ... : ... .. . ... ... : ... .. . ... ... : ... .. . ... ... : ... .. . ... ...
ROW AE : ... .. . ... ... ... : ... .. . ... ... ... : --- .. . ... : ... .. . ... : ... .. . ... ... : ... .. 1 ... ... : ... .. 1 ... ... : --- .. . P81 ...
ROW AF : ... .. . ... ... ... : ... .. . ... ... ... : ... .. . ... : ... .. . ... : ... .. . ... ... : ... .. . ... ... : ... .. . ... ... : ... .. . ... ...
ROW B0 : G#3 00 F ... ... ... : C-4 00 7 P84 ... ... : G#2 00 . ... : ... .. F ... : ... .. . ... ... : ... .. 5 ... ... : ... .. 5 ... ... : G#0 01 F P80 ...
ROW B1 : A-3 00 E P7A ... ... : C#4 00 6 P80 ... ... : ... .. . ... : ... .. C ... : ... .. . ... ... : ... .. 4 ... ... : ... .. 4 ... ... : ... .. D ... ...
ROW B2 : ... .. D P83 ... ... : ... .. . ... ... ... : ... .. . ... : ... .. 6 ... : ... .. . ... ... : ... .. . ... ... : ... .. . ... ... : ... .. 8 ... ...
ROW B3 : A#3 00 A P7E ... ... : ... .. 4 ... ... ... : ... .. . ... : ... .. 3 ... : ... .. . ... ... : ... .. 3 ... ... : ... .. 3 ... ... : ... .. . ... ...
ROW B4 : ... .. . P80 ... ... : ... .. . ... ... ... : ... .. . ... : ... .. 2 ... : ... .. . ... ... : ... .. 2 ... ... : ... .. 2 ... ... : ... .. . ... ...
ROW B5 : ... .. . ... ... ... : ... .. . ... ... ... : ... .. . ... : ... .. 0 ... : ... .. . ... ... : ... .. . ... ... : ... .. . ... ... : ... .. . ... ...
ROW B6 : ... .. . ... ... ... : ... .. . ... ... ... : --- .. . ... : ... .. . ... : ... .. . ... ... : ... .. 1 ... ... : ... .. 1 ... ... : --- .. . P84 ...
ROW B7 : ... .. . ... ... ... : ... .. . ... ... ... : ... .. . ... : ... .. . ... : ... .. . ... ... : ... .. . ... ... : ... .. . ... ... : ... .. . ... ...
ROW B8 : ... .. . ... ... ... : C-4 00 7 P7C ... ... : B-2 00 . ... : F-# 00 F ... : ... .. . ... ... : ... .. 5 ... ... : ... .. 5 ... ... : B-0 01 F P80 ...
ROW B9 : ... .. . ... ... ... : A#3 00 6 P86 ... ... : ... .. . ... : ... .. C ... : ... .. . ... ... : ... .. 4 ... ... : ... .. 4 ... ... : ... .. D ... ...
ROW BA : ... .. . ... ... ... : ... .. . P80 ... ... : ... .. . ... : ... .. 6 ... : ... .. . ... ... : ... .. . ... ... : ... .. . ... ... : ... .. 8 ... ...
ROW BB : ... .. . ... ... ... : ... .. 4 ... ... ... : ... .. . ... : ... .. 3 ... : ... .. . ... ... : ... .. 3 ... ... : ... .. 3 ... ... : ... .. . ... ...
ROW BC : ... .. . ... ... ... : ... .. . ... ... ... : ... .. . ... : ... .. F ... : ... .. . ... ... : ... .. 2 ... ... : ... .. 2 ... ... : ... .. . ... ...
ROW BD : ... .. 2 ... ... ... : ... .. . ... ... ... : ... .. . ... : ... .. C ... : ... .. . ... ... : ... .. . ... ... : ... .. . ... ... : ... .. . ... ...
ROW BE : ... .. . ... ... ... : ... .. . ... ... ... : --- .. . ... : ... .. 6 ... : ... .. . ... ... : ... .. 1 ... ... : ... .. 1 ... ... : --- .. . ... ...
ROW BF : ... .. . ... ... ... : ... .. . ... ... ... : ... .. . ... : ... .. 3 ... : ... .. . ... ... : ... .. . ... ... : ... .. . ... ... : ... .. . ... ...
ROW C0 : ... .. F ... ... ... : A-3 00 7 P7E ... ... : A#2 00 . P82 : 1-# 00 F ... : ... .. . ... ... : E-3 01 5 ... ... : G#3 01 5 ... ... : C#1 01 F ... ...
ROW C1 : ... .. E ... ... ... : G#3 00 6 P80 ... ... : G#2 00 . P8B : ... .. C ... : ... .. . ... ... : ... .. 4 ... ... : ... .. 4 ... ... : ... .. D ... ...
ROW C2 : ... .. D ... ... ... : ... .. . ... ... ... : G-2 00 . P79 : ... .. 6 ... : ... .. . ... ... : ... .. . ... ... : ... .. . ... ... : ... .. 8 ... ...
ROW C3 : ... .. A ... ... ... : ... .. 4 ... ... ... : F-2 00 . P8D : ... .. 3 ... : ... .. . ... ... : ... .. 3 ... ... : ... .. 3 ... ... : ... .. . ... ...
ROW C4 : ... .. . ... ... ... : ... .. . ... ... ... : E-2 00 . P81 : ... .. 2 ... : ... .. . ... ... : ... .. 2 ... ... : ... .. 2 ... ... : ... .. . ... ...
ROW C5 : ... .. . ... ... ... : ... .. . ... ... ... : D#2 00 . P77 : ... .. 0 ... : ... .. . ... ... : ... .. . ... ... : ... .. . ... ... : ... .. . ... ...
ROW C6 : ... .. . ... ... ... : ... .. . ... ... ... : --- .. . ... : ... .. . ... : ... .. . ... ... : ... .. 1 ... ... : ... .. 1 ... ... : --- .. . P81 ...
ROW C7 : ... .. . ... ... ... : ... .. . ... ... ... : ... .. . ... : ... .. . ... : ... .. . ... ... : ... .. . ... ... : ... .. . ... ... : ... .. . ... ...
ROW C8 : ... .. . ... ... ... : ... .. . ... ... ... : C#2 00 . P80 : E-# 00 A ... : ... .. . ... ... : ... .. 5 ... ... : ... .. 5 ... ... : C#0 01 F P80 ...
ROW C9 : ... .. . ... ... ... : ... .. . ... ... ... : ... .. . ... : ... .. 8 ... : ... .. . ... ... : ... .. 4 ... ... : ... .. 4 ... ... : ... .. D ... ...
ROW CA : ... .. . ... ... ... : ... .. . ... ... ... : ... .. . ... : ... .. 4 ... : ... .. . ... ... : ... .. . ... ... : ... .. . ... ... : ... .. 8 ... ...
ROW CB : ... .. . ... ... ... : ... .. . ... ... ... : ... .. . ... : ... .. 2 ... : ... .. . ... ... : ... .. 3 ... ... : ... .. 3 ... ... : ... .. . ... ...
ROW CC : ... .. . ... ... ... : ... .. . ... ... ... : ... .. . ... : ... .. 1 ... : ... .. . ... ... : ... .. 2 ... ... : ... .. 2 ... ... : ... .. . ... ...
ROW CD : ... .. . ... ... ... : ... .. . ... ... ... : ... .. . ... : ... .. 0 ... : ... .. . ... ... : ... .. . ... ... : ... .. . ... ... : ... .. . ... ...
ROW CE : ... .. . ... ... ... : ... .. . ... ... ... : ... .. . ... : ... .. . ... : ... .. . ... ... : ... .. 1 ... ... : ... .. 1 ... ... : ... .. . ... ...
ROW CF : ... .. . ... ... ... : ... .. . ... ... ... : ... .. . ... : ... .. . ... : ... .. . ... ... : ... .. . ... ... : ... .. . ... ... : ... .. . ... ...
ROW D0 : B-3 00 F ... ... ... : A-3 00 7 P81 ... ... : ... .. . ... : 1-# 00 F ... : ... .. . ... ... : ... .. 5 ... ... : ... .. 5 ... ... : ... .. . ... ...
ROW D1 : ... .. E ... ... ... : A#3 00 6 P83 ... ... : ... .. . ... : ... .. C ... : ... .. . ... ... : ... .. 4 ... ... : ... .. 4 ... ... : ... .. . ... ...
ROW D2 : ... .. D ... ... ... : B-3 00 6 P85 ... ... : ... .. . ... : ... .. 6 ... : ... .. . ... ... : ... .. . ... ... : ... .. . ... ... : ... .. . ... ...
ROW D3 : ... .. A ... ... ... : C#4 00 4 P7D ... ... : ... .. . ... : ... .. 3 ... : ... .. . ... ... : ... .. 3 ... ... : ... .. 3 ... ... : ... .. . ... ...
ROW D4 : ... .. . ... ... ... : D-4 00 4 P81 ... ... : ... .. . ... : ... .. 2 ... : ... .. . ... ... : ... .. 2 ... ... : ... .. 2 ... ... : ... .. . ... ...
ROW D5 : ... .. 2 ... ... ... : E-4 00 4 P7D ... ... : ... .. . ... : ... .. 0 ... : ... .. . ... ... : ... .. . ... ... : ... .. . ... ... : ... .. . ... ...
ROW D6 : ... .. . ... ... ... : ... .. . P80 ... ... : --- .. . ... : ... .. . ... : ... .. . ... ... : ... .. 1 ... ... : ... .. 1 ... ... : --- .. . P83 ...
ROW D7 : ... .. . ... ... ... : ... .. . ... ... ... : ... .. . ... : ... .. . ... : ... .. . ... ... : ... .. . ... ... : ... .. . ... ... : ... .. . ... ...
ROW D8 : G#3 00 F ... ... ... : ... .. . ... ... ... : C#2 00 . ... : E-# 00 A ... : ... .. . ... ... : ... .. 5 ... ... : ... .. 5 ... ... : C#0 01 F P80 ...
ROW D9 : ... .. E ... ... ... : ... .. . ... ... ... : ... .. . ... : ... .. 8 ... : ... .. . ... ... : ... .. 4 ... ... : ... .. 4 ... ... : ... .. D ... ...
ROW DA : ... .. D ... ... ... : ... .. . ... ... ... : ... .. . ... : ... .. 4 ... : ... .. . ... ... : ... .. . ... ... : ... .. . ... ... : ... .. 8 ... ...
ROW DB : ... .. A ... ... ... : ... .. . ... ... ... : ... .. . ... : ... .. 2 ... : ... .. . ... ... : ... .. 3 ... ... : ... .. 3 ... ... : ... .. . ... ...
ROW DC : ... .. . ... ... ... : ... .. . ... ... ... : ... .. . ... : ... .. 1 ... : ... .. . ... ... : ... .. 2 ... ... : ... .. 2 ... ... : ... .. . ... ...
ROW DD : ... .. . ... ... ... : ... .. . ... ... ... : ... .. . ... : ... .. 0 ... : ... .. . ... ... : ... .. . ... ... : ... .. . ... ... : ... .. . ... ...
ROW DE : ... .. . ... ... ... : ... .. . ... ... ... : ... .. . ... : ... .. . ... : ... .. . ... ... : ... .. 1 ... ... : ... .. 1 ... ... : ... .. . ... ...
ROW DF : ... .. . ... ... ... : ... .. . ... ... ... : ... .. . ... : ... .. . ... : ... .. . ... ... : ... .. . ... ... : ... .. . ... ... : ... .. . ... ...
ROW E0 : ... .. . ... ... ... : D#4 00 7 ... ... ... : B-3 00 . P7D : 5-# 00 D ... : ... .. . ... ... : D#3 01 5 ... ... : F#3 01 5 ... ... : ... .. . ... ...
ROW E1 : ... .. . ... ... ... : ... .. 6 ... ... ... : A#3 00 . P7C : ... .. . ... : ... .. . ... ... : ... .. 4 ... ... : ... .. 4 ... ... : ... .. . ... ...
ROW E2 : ... .. . ... ... ... : ... .. . ... ... ... : A-3 00 . P7B : 1-# 00 D ... : ... .. . ... ... : ... .. . ... ... : ... .. . ... ... : ... .. . ... ...
ROW E3 : ... .. . ... ... ... : ... .. 4 ... ... ... : G#3 00 . ... : F-# 00 6 ... : ... .. . ... ... : ... .. 3 ... ... : ... .. 3 ... ... : ... .. . ... ...
ROW E4 : ... .. . P84 ... ... : ... .. . ... ... ... : G-3 00 . P7C : B-# 00 1 ... : ... .. . ... ... : ... .. 2 ... ... : ... .. 2 ... ... : ... .. . ... ...
ROW E5 : ... .. . P86 ... ... : ... .. . ... ... ... : F#3 00 . P7E : ... .. 0 ... : ... .. . ... ... : ... .. . ... ... : ... .. . ... ... : ... .. . ... ...
ROW E6 : ... .. . P85 ... ... : ... .. . ... ... ... : --- .. . ... : ... .. . ... : ... .. . ... ... : ... .. 1 ... ... : ... .. 1 ... ... : --- .. . P83 ...
ROW E7 : ... .. . P82 ... ... : ... .. . ... ... ... : ... .. . ... : ... .. . ... : ... .. . ... ... : ... .. . ... ... : ... .. . ... ... : ... .. . ... ...
ROW E8 : ... .. . P7E ... ... : E-4 00 7 ... ... ... : C#3 00 . P80 : E-# 00 A ... : ... .. . ... ... : ... .. 5 ... ... : ... .. 5 ... ... : C#1 01 F P80 ...
ROW E9 : ... .. . P7B ... ... : ... .. 6 ... ... ... : ... .. . ... : ... .. 8 ... : ... .. . ... ... : ... .. 4 ... ... : ... .. 4 ... ... : ... .. D ... ...
ROW EA : ... .. . P7A ... ... : ... .. . ... ... ... : ... .. . ... : ... .. 4 ... : ... .. . ... ... : ... .. . ... ... : ... .. . ... ... : ... .. 8 ... ...
ROW EB : ... .. . P7C ... ... : ... .. 4 ... ... ... : ... .. . ... : ... .. 2 ... : ... .. . ... ... : ... .. 3 ... ... : ... .. 3 ... ... : ... .. . ... ...
ROW EC : ... .. . P80 ... ... : D#4 00 7 ... ... ... : ... .. . ... : ... .. 1 ... : ... .. . ... ... : ... .. 2 ... ... : ... .. 2 ... ... : ... .. . ... ...
ROW ED : ... .. . P83 ... ... : ... .. 6 ... ... ... : ... .. . ... : ... .. 0 ... : ... .. . ... ... : ... .. . ... ... : ... .. . ... ... : ... .. . ... ...
ROW EE : ... .. . P86 ... ... : ... .. . ... ... ... : --- .. . ... : ... .. . ... : ... .. . ... ... : ... .. 1 ... ... : ... .. 1 ... ... : --- .. . P81 ...
ROW EF : ... .. . ... ... ... : ... .. 4 ... ... ... : ... .. . ... : ... .. . ... : ... .. . ... ... : ... .. . ... ... : ... .. . ... ... : ... .. . ... ...
ROW F0 : B-3 00 8 P80 ... ... : C#4 00 7 P86 ... ... : B-3 00 . ... : ... .. F ... : ... .. . ... ... : ... .. 5 ... ... : ... .. 5 ... ... : B-1 01 F P80 ...
ROW F1 : ... .. 7 ... ... ... : ... .. 6 P80 ... ... : ... .. . ... : ... .. C ... : ... .. . ... ... : ... .. 4 ... ... : ... .. 4 ... ... : ... .. D ... ...
ROW F2 : ... .. 6 ... ... ... : ... .. . ... ... ... : ... .. . ... : ... .. 6 ... : ... .. . ... ... : ... .. . ... ... : ... .. . ... ... : ... .. 8 ... ...
ROW F3 : ... .. 5 ... ... ... : ... .. 4 ... ... ... : ... .. . ... : ... .. 3 ... : ... .. . ... ... : ... .. 3 ... ... : ... .. 3 ... ... : ... .. . ... ...
ROW F4 : ... .. . ... ... ... : ... .. . ... ... ... : ... .. . ... : ... .. 2 ... : ... .. . ... ... : ... .. 2 ... ... : ... .. 2 ... ... : ... .. . ... ...
ROW F5 : ... .. 1 ... ... ... : ... .. . ... ... ... : ... .. . ... : ... .. 0 ... : ... .. . ... ... : ... .. . ... ... : ... .. . ... ... : ... .. . ... ...
ROW F6 : ... .. . ... ... ... : ... .. . ... ... ... : --- .. . ... : ... .. . ... : ... .. . ... ... : ... .. 1 ... ... : ... .. 1 ... ... : --- .. . P86 ...
ROW F7 : ... .. . ... ... ... : ... .. . ... ... ... : ... .. . ... : ... .. . ... : ... .. . ... ... : ... .. . ... ... : ... .. . ... ... : ... .. . ... ...
ROW F8 : G#3 00 8 ... ... ... : ... .. . ... ... ... : C#4 00 . ... : D-# 00 A ... : ... .. . ... ... : ... .. 5 ... ... : ... .. 5 ... ... : C#2 01 F P80 ...
ROW F9 : ... .. 7 ... ... ... : ... .. . ... ... ... : ... .. . ... : ... .. . ... : ... .. . ... ... : ... .. 4 ... ... : ... .. 4 ... ... : ... .. D ... ...
ROW FA : ... .. 6 ... ... ... : ... .. . ... ... ... : ... .. . ... : ... .. . ... : ... .. . ... ... : ... .. . ... ... : ... .. . ... ... : ... .. 8 ... ...
ROW FB : ... .. 5 ... ... ... : ... .. . ... ... ... : ... .. . ... : ... .. . ... : ... .. . ... ... : ... .. 3 ... ... : ... .. 3 ... ... : ... .. . ... ...
ROW FC : ... .. . ... ... ... : ... .. . ... ... ... : ... .. . ... : ... .. . ... : ... .. . ... ... : ... .. 2 ... ... : ... .. 2 ... ... : ... .. . ... ...
ROW FD : ... .. . ... ... ... : ... .. . ... ... ... : ... .. . ... : ... .. . ... : ... .. . ... ... : ... .. . ... ... : ... .. . ... ... : ... .. . ... ...
ROW FE : ... .. . ... ... ... : ... .. . ... ... ... : --- .. . ... : ... .. . ... : ... .. . ... ... : ... .. 1 ... ... : ... .. 1 ... ... : --- .. . ... ...
ROW FF : ... .. . ... ... ... : ... .. . ... ... ... : ... .. . ... : ... .. . ... : ... .. . ... ... : ... .. . ... ... : ... .. . ... ... : ... .. . ... ...

PATTERN 0C
ROW 00 : ... .. . ... ... ... : D-4 00 7 P84 ... ... : A#2 00 . P82 : 1-# 00 F ... : ... .. . ... ... : C#3 01 5 ... ... : E-3 01 5 ... ... : C#1 01 F ... ...
ROW 01 : ... .. . ... ... ... : E-4 00 6 P80 ... ... : G#2 00 . P8B : ... .. C ... : ... .. . ... ... : ... .. 4 ... ... : ... .. 4 ... ... : ... .. D ... ...
ROW 02 : ... .. . ... ... ... : F#4 00 6 P7D ... ... : G-2 00 . P79 : ... .. 6 ... : ... .. . ... ... : ... .. . ... ... : ... .. . ... ... : ... .. 8 ... ...
ROW 03 : ... .. . ... ... ... : G#4 00 4 ... ... ... : F-2 00 . P8D : ... .. 3 ... : ... .. . ... ... : ... .. 3 ... ... : ... .. 3 ... ... : ... .. . ... ...
ROW 04 : ... .. . P84 ... ... : ... .. . P80 ... ... : E-2 00 . P81 : ... .. 2 ... : ... .. . ... ... : ... .. 2 ... ... : ... .. 2 ... ... : ... .. . ... ...
ROW 05 : ... .. . P86 ... ... : ... .. . ... ... ... : D#2 00 . P77 : ... .. 0 ... : ... .. . ... ... : ... .. . ... ... : ... .. . ... ... : ... .. . ... ...
ROW 06 : ... .. . P85 ... ... : ... .. . ... ... ... : --- .. . ... : ... .. . ... : ... .. . ... ... : ... .. 1 ... ... : ... .. 1 ... ... : --- .. . P81 ...
ROW 07 : ... .. . P82 ... ... : ... .. . ... ... ... : ... .. . ... : ... .. . ... : ... .. . ... ... : ... .. . ... ... : ... .. . ... ... : ... .. . ... ...
ROW 08 : ... .. . P7E ... ... : ... .. . P84 ... ... : C#2 00 . P80 : E-# 00 A ... : ... .. . ... ... : ... .. 5 ... ... : ... .. 5 ... ... : C#0 01 F P80 ...
ROW 09 : ... .. . P7B ... ... : A-4 00 4 P7E ... ... : ... .. . ... : ... .. 8 ... : ... .. . ... ... : ... .. 4 ... ... : ... .. 4 ... ... : ... .. D ... ...
ROW 0A : ... .. . P7A ... ... : ... .. . P7D ... ... : ... .. . ... : ... .. 4 ... : ... .. . ... ... : ... .. . ... ... : ... .. . ... ... : ... .. 8 ... ...
ROW 0B : ... .. . P7C ... ... : G#4 00 4 P82 ... ... : ... .. . ... : ... .. 2 ... : ... .. . ... ... : ... .. 3 ... ... : ... .. 3 ... ... : ... .. . ... ...
ROW 0C : ... .. . P80 ... ... : ... .. . P7E ... ... : ... .. . ... : ... .. 1 ... : ... .. . ... ... : ... .. 2 ... ... : ... .. 2 ... ... : ... .. . ... ...
ROW 0D : ... .. . P83 ... ... : G-4 00 4 P83 ... ... : ... .. . ... : ... .. 0 ... : ... .. . ... ... : ... .. . ... ... : ... .. . ... ... : ... .. . ... ...
ROW 0E : ... .. . P86 ... ... : ... .. . P82 ... ... : ... .. . ... : ... .. . ... : ... .. . ... ... : ... .. 1 ... ... : ... .. 1 ... ... : ... .. . ... ...
ROW 0F : ... .. . ... ... ... : ... .. . P84 ... ... : ... .. . ... : ... .. . ... : ... .. . ... ... : ... .. . ... ... : ... .. . ... ... : ... .. . ... ...
ROW 10 : B-3 00 6 P80 ... ... : F#4 00 7 P80 ... ... : ... .. . ... : ... .. F ... : ... .. . ... ... : G#2 01 5 ... ... : C#3 01 5 ... ... : ... .. . ... ...
ROW 11 : ... .. 5 ... ... ... : E-4 00 6 P83 ... ... : ... .. . ... : ... .. C ... : ... .. . ... ... : ... .. 4 ... ... : ... .. 4 ... ... : ... .. . ... ...
ROW 12 : ... .. . ... ... ... : ... .. . P80 ... ... : ... .. . ... : ... .. 6 ... : ... .. . ... ... : ... .. . ... ... : ... .. . ... ... : ... .. . ... ...
ROW 13 : ... .. 4 ... ... ... : ... .. 4 ... ... ... : ... .. . ... : ... .. 3 ... : ... .. . ... ... : ... .. 3 ... ... : ... .. 3 ... ... : ... .. . ... ...
ROW 14 : ... .. . ... ... ... : ... .. . ... ... ... : ... .. . ... : ... .. 2 ... : ... .. . ... ... : ... .. 2 ... ... : ... .. 2 ... ... : ... .. . ... ...
ROW 15 : ... .. 1 ... ... ... : ... .. . ... ... ... : ... .. . ... : ... .. 0 ... : ... .. . ... ... : ... .. . ... ... : ... .. . ... ... : ... .. . ... ...
ROW 16 : ... .. . ... ... ... : ... .. . ... ... ... : --- .. . ... : ... .. . ... : ... .. . ... ... : ... .. 1 ... ... : ... .. 1 ... ... : --- .. . P83 ...
ROW 17 : ... .. . ... ... ... : ... .. . ... ... ... : ... .. . ... : ... .. . ... : ... .. . ... ... : ... .. . ... ... : ... .. . ... ... : ... .. . ... ...
ROW 18 : G#3 00 6 ... ... ... : ... .. . ... ... ... : C#2 00 . ... : 1-# 00 F ... : ... .. . ... ... : ... .. 5 ... ... : ... .. 5 ... ... : C#0 01 F P80 ...
ROW 19 : ... .. 5 ... ... ... : ... .. . ... ... ... : ... .. . ... : ... .. C ... : ... .. . ... ... : ... .. 4 ... ... : ... .. 4 ... ... : ... .. D ... ...
ROW 1A : ... .. . ... ... ... : ... .. . ... ... ... : ... .. . ... : ... .. 6 ... : ... .. . ... ... : ... .. . ... ... : ... .. . ... ... : ... .. 8 ... ...
ROW 1B : ... .. 4 ... ... ... : ... .. . ... ... ... : ... .. . ... : ... .. 3 ... : ... .. . ... ... : ... .. 3 ... ... : ... .. 3 ... ... : ... .. . ... ...
ROW 1C : ... .. . ... ... ... : ... .. . ... ... ... : ... .. . ... : ... .. 2 ... : ... .. . ... ... : ... .. 2 ... ... : ... .. 2 ... ... : ... .. . ... ...
ROW 1D : ... .. . ... ... ... : ... .. . ... ... ... : ... .. . ... : ... .. 0 ... : ... .. . ... ... : ... .. . ... ... : ... .. . ... ... : ... .. . ... ...
ROW 1E : ... .. . ... ... ... : ... .. . ... ... ... : ... .. . ... : ... .. . ... : ... .. . ... ... : ... .. 1 ... ... : ... .. 1 ... ... : ... .. . ... ...
ROW 1F : ... .. . ... ... ... : ... .. . ... ... ... : ... .. . ... : ... .. . ... : ... .. . ... ... : ... .. . ... ... : ... .. . ... ... : ... .. . ... ...
ROW 20 : ... .. . ... ... ... : F#4 00 7 P7D ... ... : B-3 00 . P7D : 5-# 00 D ... : ... .. . ... ... : C#3 01 5 ... ... : E-3 01 5 ... ... : ... .. . ... ...
ROW 21 : ... .. . ... ... ... : G#4 00 6 ... ... ... : A#3 00 . P7C : ... .. . ... : ... .. . ... ... : ... .. 4 ... ... : ... .. 4 ... ... : ... .. . ... ...
ROW 22 : ... .. . ... ... ... : ... .. . P80 ... ... : A-3 00 . P7B : 1-# 00 D ... : ... .. . ... ... : ... .. . ... ... : ... .. . ... ... : ... .. . ... ...
ROW 23 : ... .. . ... ... ... : ... .. 4 ... ... ... : G#3 00 . ... : F-# 00 6 ... : ... .. . ... ... : ... .. 3 ... ... : ... .. 3 ... ... : ... .. . ... ...
ROW 24 : ... .. . P84 ... ... : ... .. . ... ... ... : G-3 00 . P7C : B-# 00 1 ... : ... .. . ... ... : ... .. 2 ... ... : ... .. 2 ... ... : ... .. . ... ...
ROW 25 : ... .. . P86 ... ... : ... .. . ... ... ... : F#3 00 . P7E : ... .. 0 ... : ... .. . ... ... : ... .. . ... ... : ... .. . ... ... : ... .. . ... ...
ROW 26 : ... .. . P85 ... ... : ... .. . ... ... ... : --- .. . ... : ... .. . ... : ... .. . ... ... : ... .. 1 ... ... : ... .. 1 ... ... : --- .. . P83 ...
ROW 27 : ... .. . P82 ... ... : ... .. . ... ... ... : ... .. . ... : ... .. . ... : ... .. . ... ... : ... .. . ... ... : ... .. . ... ... : ... .. . ... ...
ROW 28 : ... .. . P7E ... ... : ... .. . ... ... ... : C#2 00 . P80 : E-# 00 A ... : ... .. . ... ... : ... .. 5 ... ... : ... .. 5 ... ... : C#0 01 F P80 ...
ROW 29 : ... .. . P7B ... ... : ... .. . ... ... ... : ... .. . ... : ... .. 8 ... : ... .. . ... ... : ... .. 4 ... ... : ... .. 4 ... ... : ... .. D ... ...
ROW 2A : ... .. . P7A ... ... : ... .. . ... ... ... : ... .. . ... : ... .. 4 ... : ... .. . ... ... : ... .. . ... ... : ... .. . ... ... : ... .. 8 ... ...
ROW 2B : ... .. . P7C ... ... : ... .. . ... ... ... : ... .. . ... : ... .. 2 ... : ... .. . ... ... : ... .. 3 ... ... : ... .. 3 ... ... : ... .. . ... ...
ROW 2C : ... .. . P80 ... ... : ... .. . ... ... ... : ... .. . ... : ... .. 1 ... : ... .. . ... ... : ... .. 2 ... ... : ... .. 2 ... ... : ... .. . ... ...
ROW 2D : ... .. . P83 ... ... : ... .. . ... ... ... : ... .. . ... : ... .. 0 ... : ... .. . ... ... : ... .. . ... ... : ... .. . ... ... : ... .. . ... ...
ROW 2E : ... .. . P86 ... ... : ... .. . ... ... ... : --- .. . ... : ... .. . ... : ... .. . ... ... : ... .. 1 ... ... : ... .. 1 ... ... : --- .. . P83 ...
ROW 2F : ... .. . ... ... ... : ... .. . ... ... ... : ... .. . ... : ... .. . ... : ... .. . ... ... : ... .. . ... ... : ... .. . ... ... : ... .. . ... ...
ROW 30 : B-3 00 4 P80 ... ... : A#4 00 7 P81 ... ... : E-3 00 . ... : ... .. F ... : ... .. . ... ... : E-3 01 5 ... ... : G#3 01 5 ... ... : E-1 01 F P80 ...
ROW 31 : ... .. 3 ... ... ... : C#5 00 6 P7E ... ... : ... .. . ... : ... .. C ... : ... .. . ... ... : ... .. 4 ... ... : ... .. 4 ... ... : ... .. D ... ...
ROW 32 : ... .. . ... ... ... : ... .. . P80 ... ... : ... .. . ... : ... .. 6 ... : ... .. . ... ... : ... .. . ... ... : ... .. . ... ... : ... .. 8 ... ...
ROW 33 : ... .. 2 ... ... ... : ... .. 4 ... ... ... : ... .. . ... : ... .. 3 ... : ... .. . ... ... : ... .. 3 ... ... : ... .. 3 ... ... : ... .. . ... ...
ROW 34 : ... .. . ... ... ... : ... .. . ... ... ... : ... .. . ... : ... .. 2 ... : ... .. . ... ... : ... .. 2 ... ... : ... .. 2 ... ... : ... .. . ... ...
ROW 35 : ... .. 1 ... ... ... : ... .. . ... ... ... : ... .. . ... : ... .. 0 ... : ... .. . ... ... : ... .. . ... ... : ... .. . ... ... : ... .. . ... ...
ROW 36 : ... .. . ... ... ... : ... .. . ... ... ... : --- .. . ... : ... .. . ... : ... .. . ... ... : ... .. 1 ... ... : ... .. 1 ... ... : --- .. . P82 ...
ROW 37 : ... .. . ... ... ... : ... .. . ... ... ... : ... .. . ... : ... .. . ... : ... .. . ... ... : ... .. . ... ... : ... .. . ... ... : ... .. . ... ...
ROW 38 : G#3 00 4 ... ... ... : ... .. . ... ... ... : G#3 00 . ... : F-# 00 F ... : ... .. . ... ... : ... .. 5 ... ... : ... .. 5 ... ... : G#1 01 F P80 ...
ROW 39 : ... .. 3 ... ... ... : ... .. . ... ... ... : ... .. . ... : ... .. C ... : ... .. . ... ... : ... .. 4 ... ... : ... .. 4 ... ... : ... .. D ... ...
ROW 3A : ... .. . ... ... ... : ... .. . ... ... ... : ... .. . ... : ... .. 6 ... : ... .. . ... ... : ... .. . ... ... : ... .. . ... ... : ... .. 8 ... ...
ROW 3B : ... .. 2 ... ... ... : ... .. . ... ... ... : ... .. . ... : ... .. 3 ... : ... .. . ... ... : ... .. 3 ... ... : ... .. 3 ... ... : ... .. . ... ...
ROW 3C : ... .. . ... ... ... : ... .. . ... V01 ... : ... .. . ... : ... .. F ... : ... .. . ... ... : ... .. 2 ... ... : ... .. 2 ... ... : ... .. . ... ...
ROW 3D : ... .. . ... ... ... : ... .. . ... ... ... : ... .. . ... : ... .. C ... : ... .. . ... ... : ... .. . ... ... : ... .. . ... ... : ... .. . ... ...
ROW 3E : ... .. . ... ... ... : ... .. . ... ... ... : --- .. . ... : ... .. 6 ... : ... .. . ... ... : ... .. 1 ... ... : ... .. 1 ... ... : --- .. . P7E ...
ROW 3F : ... .. . ... ... ... : ... .. . ... ... ... : ... .. . ... : ... .. 3 ... : ... .. . ... ... : ... .. . ... ... : ... .. . ... ... : ... .. . ... ...
ROW 40 : ... .. 0 ... ... ... : E-5 00 8 ... ... ... : A#2 00 . P82 : 1-# 00 F ... : ... .. . ... ... : C#3 01 5 ... ... : A-3 01 5 ... ... : A-1 01 F P80 ...
ROW 41 : ... .. . ... ... ... : ... .. 7 ... ... ... : G#2 00 . P8B : ... .. C ... : ... .. . ... ... : ... .. 4 ... ... : ... .. 4 ... ... : ... .. D ... ...
ROW 42 : ... .. . ... ... ... : ... .. . ... ... ... : G-2 00 . P79 : ... .. 6 ... : ... .. . ... ... : ... .. . ... ... : ... .. . ... ... : ... .. 8 ... ...
ROW 43 : ... .. . ... ... ... : ... .. 6 ... ... ... : F-2 00 . P8D : ... .. 3 ... : ... .. . ... ... : ... .. 3 ... ... : ... .. 3 ... ... : ... .. . ... ...
ROW 44 : ... .. . ... ... ... : ... .. 5 ... ... ... : E-2 00 . P81 : ... .. 2 ... : ... .. . ... ... : ... .. 2 ... ... : ... .. 2 ... ... : ... .. . ... ...
ROW 45 : ... .. . ... ... ... : ... .. 4 ... ... ... : D#2 00 . P77 : ... .. 0 ... : ... .. . ... ... : ... .. . ... ... : ... .. . ... ... : ... .. . ... ...
ROW 46 : ... .. . ... ... ... : ... .. . ... ... ... : --- .. . ... : ... .. . ... : ... .. . ... ... : ... .. 1 ... ... : ... .. 1 ... ... : --- .. . P7F ...
ROW 47 : ... .. . ... ... ... : ... .. . ... ... ... : ... .. . ... : ... .. . ... : ... .. . ... ... : ... .. . ... ... : ... .. . ... ... : ... .. . ... ...
ROW 48 : ... .. . ... ... ... : C#5 00 8 ... ... ... : A-2 00 . P80 : E-# 00 A ... : ... .. . ... ... : ... .. 5 ... ... : ... .. 5 ... ... : A-0 01 F P80 ...
ROW 49 : ... .. . ... ... ... : ... .. 7 ... ... ... : ... .. . ... : ... .. 8 ... : ... .. . ... ... : ... .. 4 ... ... : ... .. 4 ... ... : ... .. D ... ...
ROW 4A : ... .. . ... ... ... : ... .. . ... ... ... : ... .. . ... : ... .. 4 ... : ... .. . ... ... : ... .. . ... ... : ... .. . ... ... : ... .. 8 ... ...
ROW 4B : ... .. . ... ... ... : ... .. 6 ... ... ... : ... .. . ... : ... .. 2 ... : ... .. . ... ... : ... .. 3 ... ... : ... .. 3 ... ... : ... .. . ... ...
ROW 4C : ... .. . ... ... ... : E-5 00 5 ... ... ... : ... .. . ... : ... .. 1 ... : ... .. . ... ... : ... .. 2 ... ... : ... .. 2 ... ... : ... .. . ... ...
ROW 4D : ... .. . ... ... ... : ... .. 4 ... ... ... : ... .. . ... : ... .. 0 ... : ... .. . ... ... : ... .. . ... ... : ... .. . ... ... : ... .. . ... ...
ROW 4E : ... .. . ... ... ... : ... .. . ... ... ... : ... .. . ... : ... .. . ... : ... .. . ... ... : ... .. 1 ... ... : ... .. 1 ... ... : ... .. . ... ...
ROW 4F : ... .. . ... ... ... : ... .. . ... ... ... : ... .. . ... : ... .. . ... : ... .. . ... ... : ... .. . ... ... : ... .. . ... ... : ... .. . ... ...
ROW 50 : ... .. . ... ... ... : A-4 00 8 ... ... ... : ... .. . ... : 1-# 00 F ... : ... .. . ... ... : ... .. 5 ... ... : ... .. 5 ... ... : ... .. . ... ...
ROW 51 : ... .. . ... ... ... : ... .. 7 ... ... ... : ... .. . ... : ... .. C ... : ... .. . ... ... : ... .. 4 ... ... : ... .. 4 ... ... : ... .. . ... ...
ROW 52 : ... .. . ... ... ... : ... .. . ... ... ... : ... .. . ... : ... .. 6 ... : ... .. . ... ... : ... .. . ... ... : ... .. . ... ... : ... .. . ... ...
ROW 53 : ... .. . ... ... ... : ... .. 6 ... ... ... : ... .. . ... : ... .. 3 ... : ... .. . ... ... : ... .. 3 ... ... : ... .. 3 ... ... : ... .. . ... ...
ROW 54 : ... .. . ... ... ... : C#5 00 5 ... ... ... : ... .. . ... : ... .. 2 ... : ... .. . ... ... : ... .. 2 ... ... : ... .. 2 ... ... : ... .. . ... ...
ROW 55 : ... .. . ... ... ... : ... .. 4 ... ... ... : ... .. . ... : ... .. 0 ... : ... .. . ... ... : ... .. . ... ... : ... .. . ... ... : ... .. . ... ...
ROW 56 : ... .. . ... ... ... : ... .. . ... ... ... : --- .. . ... : ... .. . ... : ... .. . ... ... : ... .. 1 ... ... : ... .. 1 ... ... : --- .. . ... ...
ROW 57 : ... .. . ... ... ... : ... .. . ... ... ... : ... .. . ... : ... .. . ... : ... .. . ... ... : ... .. . ... ... : ... .. . ... ... : ... .. . ... ...
ROW 58 : ... .. . ... ... ... : E-4 00 8 ... ... ... : A-2 00 . ... : E-# 00 A ... : ... .. . ... ... : ... .. 5 ... ... : ... .. 5 ... ... : A-0 01 F ... ...
ROW 59 : ... .. . ... ... ... : ... .. 7 ... ... ... : ... .. . ... : ... .. 8 ... : ... .. . ... ... : ... .. 4 ... ... : ... .. 4 ... ... : ... .. D ... ...
ROW 5A : ... .. . ... ... ... : ... .. . ... ... ... : ... .. . ... : ... .. 4 ... : ... .. . ... ... : ... .. . ... ... : ... .. . ... ... : ... .. 8 ... ...
ROW 5B : ... .. . ... ... ... : ... .. 6 ... ... ... : ... .. . ... : ... .. 2 ... : ... .. . ... ... : ... .. 3 ... ... : ... .. 3 ... ... : ... .. . ... ...
ROW 5C : ... .. . ... ... ... : A-4 00 5 ... ... ... : ... .. . ... : ... .. 1 ... : ... .. . ... ... : ... .. 2 ... ... : ... .. 2 ... ... : ... .. . ... ...
ROW 5D : ... .. . ... ... ... : ... .. 4 ... ... ... : ... .. . ... : ... .. 0 ... : ... .. . ... ... : ... .. . ... ... : ... .. . ... ... : ... .. . ... ...
ROW 5E : ... .. . ... ... ... : ... .. . ... ... ... : ... .. . ... : ... .. . ... : ... .. . ... ... : ... .. 1 ... ... : ... .. 1 ... ... : ... .. . ... ...
ROW 5F : ... .. . ... ... ... : ... .. . ... ... ... : ... .. . ... : ... .. . ... : ... .. . ... ... : ... .. . ... ... : ... .. . ... ... : ... .. . ... ...
ROW 60 : E-3 00 F P80 ... ... : C#4 00 8 ... ... ... : B-3 00 . P7D : 5-# 00 D ... : ... .. . ... ... : ... .. 5 ... ... : ... .. 5 ... ... : ... .. . ... ...
ROW 61 : ... .. E ... ... ... : ... .. 7 ... ... ... : A#3 00 . P7C : ... .. . ... : ... .. . ... ... : ... .. 4 ... ... : ... .. 4 ... ... : ... .. . ... ...
ROW 62 : ... .. D ... ... ... : ... .. . ... ... ... : A-3 00 . P7B : 1-# 00 D ... : ... .. . ... ... : ... .. . ... ... : ... .. . ... ... : ... .. . ... ...
ROW 63 : ... .. A ... ... ... : ... .. 6 ... ... ... : G#3 00 . ... : F-# 00 6 ... : ... .. . ... ... : ... .. 3 ... ... : ... .. 3 ... ... : ... .. . ... ...
ROW 64 : ... .. . ... ... ... : E-4 00 5 ... ... ... : G-3 00 . P7C : B-# 00 1 ... : ... .. . ... ... : ... .. 2 ... ... : ... .. 2 ... ... : ... .. . ... ...
ROW 65 : ... .. . ... ... ... : ... .. 4 ... ... ... : F#3 00 . P7E : ... .. 0 ... : ... .. . ... ... : ... .. . ... ... : ... .. . ... ... : ... .. . ... ...
ROW 66 : ... .. . ... ... ... : ... .. . ... ... ... : --- .. . ... : ... .. . ... : ... .. . ... ... : ... .. 1 ... ... : ... .. 1 ... ... : --- .. . ... ...
ROW 67 : ... .. . ... ... ... : ... .. . ... ... ... : ... .. . ... : ... .. . ... : ... .. . ... ... : ... .. . ... ... : ... .. . ... ... : ... .. . ... ...
ROW 68 : ... .. . ... ... ... : A-3 00 8 ... ... ... : A-2 00 . P80 : E-# 00 A ... : ... .. . ... ... : ... .. 5 ... ... : ... .. 5 ... ... : A-0 01 F ... ...
ROW 69 : ... .. . ... ... ... : ... .. 7 ... ... ... : ... .. . ... : ... .. 8 ... : ... .. . ... ... : ... .. 4 ... ... : ... .. 4 ... ... : ... .. D ... ...
ROW 6A : ... .. . ... ... ... : ... .. . ... ... ... : ... .. . ... : ... .. 4 ... : ... .. . ... ... : ... .. . ... ... : ... .. . ... ... : ... .. 8 ... ...
ROW 6B : ... .. . ... ... ... : ... .. 6 ... ... ... : ... .. . ... : ... .. 2 ... : ... .. . ... ... : ... .. 3 ... ... : ... .. 3 ... ... : ... .. . ... ...
ROW 6C : ... .. . ... ... ... : C#4 00 5 ... ... ... : ... .. . ... : ... .. 1 ... : ... .. . ... ... : ... .. 2 ... ... : ... .. 2 ... ... : ... .. . ... ...
ROW 6D : ... .. 2 ... ... ... : ... .. 4 ... ... ... : ... .. . ... : ... .. 0 ... : ... .. . ... ... : ... .. . ... ... : ... .. . ... ... : ... .. . ... ...
ROW 6E : ... .. . ... ... ... : ... .. . ... ... ... : --- .. . ... : ... .. . ... : ... .. . ... ... : ... .. 1 ... ... : ... .. 1 ... ... : --- .. . ... ...
ROW 6F : ... .. . ... ... ... : ... .. . ... ... ... : ... .. . ... : ... .. . ... : ... .. . ... ... : ... .. . ... ... : ... .. . ... ... : ... .. . ... ...
ROW 70 : B-3 00 F ... ... ... : E-3 00 8 ... ... ... : E-3 00 . ... : ... .. F ... : ... .. . ... ... : ... .. 5 ... ... : ... .. 5 ... ... : E-1 01 F ... ...
ROW 71 : ... .. E ... ... ... : ... .. 7 ... ... ... : ... .. . ... : ... .. C ... : ... .. . ... ... : ... .. 4 ... ... : ... .. 4 ... ... : ... .. D ... ...
ROW 72 : ... .. D ... ... ... : ... .. . ... ... ... : ... .. . ... : ... .. 6 ... : ... .. . ... ... : ... .. . ... ... : ... .. . ... ... : ... .. 8 ... ...
ROW 73 : ... .. A ... ... ... : ... .. 6 ... ... ... : ... .. . ... : ... .. 3 ... : ... .. . ... ... : ... .. 3 ... ... : ... .. 3 ... ... : ... .. . ... ...
ROW 74 : ... .. . ... ... ... : A-3 00 5 ... ... ... : ... .. . ... : ... .. 2 ... : ... .. . ... ... : ... .. 2 ... ... : ... .. 2 ... ... : ... .. . ... ...
ROW 75 : C-4 00 A P7D ... ... : ... .. 4 ... ... ... : ... .. . ... : ... .. 0 ... : ... .. . ... ... : ... .. . ... ... : ... .. . ... ... : ... .. . ... ...
ROW 76 : ... .. . P86 ... ... : ... .. . ... ... ... : --- .. . ... : ... .. . ... : ... .. . ... ... : ... .. 1 ... ... : ... .. 1 ... ... : --- .. . P82 ...
ROW 77 : C#4 00 A P80 ... ... : ... .. . ... ... ... : ... .. . ... : ... .. . ... : ... .. . ... ... : ... .. . ... ... : ... .. . ... ... : ... .. . ... ...
ROW 78 : ... .. . ... ... ... : C#3 00 8 ... ... ... : B-3 00 . ... : D-# 00 A ... : ... .. . ... ... : ... .. 5 ... ... : ... .. 5 ... ... : B-1 01 F P80 ...
ROW 79 : ... .. . ... ... ... : ... .. 7 ... ... ... : ... .. . ... : ... .. . ... : ... .. . ... ... : ... .. 4 ... ... : ... .. 4 ... ... : ... .. D ... ...
ROW 7A : ... .. . ... ... ... : ... .. . ... ... ... : ... .. . ... : ... .. . ... : ... .. . ... ... : ... .. . ... ... : ... .. . ... ... : ... .. 8 ... ...
ROW 7B : ... .. . ... ... ... : ... .. 6 ... ... ... : ... .. . ... : ... .. . ... : ... .. . ... ... : ... .. 3 ... ... : ... .. 3 ... ... : ... .. . ... ...
ROW 7C : ... .. . ... ... ... : E-3 00 5 ... ... ... : ... .. . ... : ... .. . ... : ... .. . ... ... : ... .. 2 ... ... : ... .. 2 ... ... : ... .. . ... ...
ROW 7D : ... .. . ... ... ... : ... .. 4 ... ... ... : ... .. . ... : ... .. . ... : ... .. . ... ... : ... .. . ... ... : ... .. . ... ... : ... .. . ... ...
ROW 7E : ... .. . ... ... ... : ... .. . ... ... ... : --- .. . ... : ... .. . ... : ... .. . ... ... : ... .. 1 ... ... : ... .. 1 ... ... : --- .. . P86 ...
ROW 7F : ... .. . ... ... ... : ... .. . ... ... ... : ... .. . ... : ... .. . ... : ... .. . ... ... : ... .. . ... ... : ... .. . ... ... : ... .. . ... ...
ROW 80 : B-3 00 F ... ... ... : E-5 00 8 ... ... ... : A#2 00 . P82 : 1-# 00 F ... : ... .. . ... ... : A-2 01 5 ... ... : E-3 01 5 ... ... : A-1 01 F P80 ...
ROW 81 : ... .. E ... ... ... : ... .. 7 ... ... ... : G#2 00 . P8B : ... .. C ... : ... .. . ... ... : ... .. 4 ... ... : ... .. 4 ... ... : ... .. D ... ...
ROW 82 : ... .. D ... ... ... : ... .. . ... ... ... : G-2 00 . P79 : ... .. 6 ... : ... .. . ... ... : ... .. . ... ... : ... .. . ... ... : ... .. 8 ... ...
ROW 83 : ... .. A ... ... ... : ... .. 6 ... ... ... : F-2 00 . P8D : ... .. 3 ... : ... .. . ... ... : ... .. 3 ... ... : ... .. 3 ... ... : ... .. . ... ...
ROW 84 : ... .. . ... ... ... : C#3 00 5 ... ... ... : E-2 00 . P81 : ... .. 2 ... : ... .. . ... ... : ... .. 2 ... ... : ... .. 2 ... ... : ... .. . ... ...
ROW 85 : ... .. . ... ... ... : ... .. 4 ... ... ... : D#2 00 . P77 : ... .. 0 ... : ... .. . ... ... : ... .. . ... ... : ... .. . ... ... : ... .. . ... ...
ROW 86 : ... .. . ... ... ... : ... .. . ... ... ... : --- .. . ... : ... .. . ... : ... .. . ... ... : ... .. 1 ... ... : ... .. 1 ... ... : --- .. . P7F ...
ROW 87 : ... .. . ... ... ... : ... .. . ... ... ... : ... .. . ... : ... .. . ... : ... .. . ... ... : ... .. . ... ... : ... .. . ... ... : ... .. . ... ...
ROW 88 : ... .. . ... ... ... : C#5 00 8 ... ... ... : A-2 00 . P80 : E-# 00 A ... : ... .. . ... ... : ... .. 5 ... ... : ... .. 5 ... ... : A-0 01 F P80 ...
ROW 89 : ... .. . ... ... ... : ... .. 7 ... ... ... : ... .. . ... : ... .. 8 ... : ... .. . ... ... : ... .. 4 ... ... : ... .. 4 ... ... : ... .. D ... ...
ROW 8A : ... .. . ... ... ... : ... .. . ... ... ... : ... .. . ... : ... .. 4 ... : ... .. . ... ... : ... .. . ... ... : ... .. . ... ... : ... .. 8 ... ...
ROW 8B : ... .. . ... ... ... : ... .. 6 ... ... ... : ... .. . ... : ... .. 2 ... : ... .. . ... ... : ... .. 3 ... ... : ... .. 3 ... ... : ... .. . ... ...
ROW 8C : ... .. . ... ... ... : E-5 00 5 ... ... ... : ... .. . ... : ... .. 1 ... : ... .. . ... ... : ... .. 2 ... ... : ... .. 2 ... ... : ... .. . ... ...
ROW 8D : ... .. . ... ... ... : ... .. 4 ... ... ... : ... .. . ... : ... .. 0 ... : ... .. . ... ... : ... .. . ... ... : ... .. . ... ... : ... .. . ... ...
ROW 8E : ... .. . ... ... ... : ... .. . ... ... ... : ... .. . ... : ... .. . ... : ... .. . ... ... : ... .. 1 ... ... : ... .. 1 ... ... : ... .. . ... ...
ROW 8F : ... .. . ... ... ... : ... .. . ... ... ... : ... .. . ... : ... .. . ... : ... .. . ... ... : ... .. . ... ... : ... .. . ... ... : ... .. . ... ...
ROW 90 : ... .. . ... ... ... : A-4 00 8 ... ... ... : ... .. . ... : ... .. F ... : ... .. . ... ... : ... .. 5 ... ... : ... .. 5 ... ... : ... .. . ... ...
ROW 91 : ... .. . ... ... ... : ... .. 7 ... ... ... : ... .. . ... : ... .. C ... : ... .. . ... ... : ... .. 4 ... ... : ... .. 4 ... ... : ... .. . ... ...
ROW 92 : ... .. . ... ... ... : ... .. . ... ... ... : ... .. . ... : ... .. 6 ... : ... .. . ... ... : ... .. . ... ... : ... .. . ... ... : ... .. . ... ...
ROW 93 : ... .. . ... ... ... : ... .. 6 ... ... ... : ... .. . ... : ... .. 3 ... : ... .. . ... ... : ... .. 3 ... ... : ... .. 3 ... ... : ... .. . ... ...
ROW 94 : ... .. . ... ... ... : C#5 00 5 ... ... ... : ... .. . ... : ... .. 2 ... : ... .. . ... ... : ... .. 2 ... ... : ... .. 2 ... ... : ... .. . ... ...
ROW 95 : ... .. 2 ... ... ... : ... .. 4 ... ... ... : ... .. . ... : ... .. 0 ... : ... .. . ... ... : ... .. . ... ... : ... .. . ... ... : ... .. . ... ...
ROW 96 : ... .. . ... ... ... : ... .. . ... ... ... : --- .. . ... : ... .. . ... : ... .. . ... ... : ... .. 1 ... ... : ... .. 1 ... ... : --- .. . ... ...
ROW 97 : ... .. . ... ... ... : ... .. . ... ... ... : ... .. . ... : ... .. . ... : ... .. . ... ... : ... .. . ... ... : ... .. . ... ... : ... .. . ... ...
ROW 98 : A-3 00 F ... ... ... : E-4 00 8 ... ... ... : A-2 00 . ... : 1-# 00 F ... : ... .. . ... ... : ... .. 5 ... ... : ... .. 5 ... ... : A-0 01 F ... ...
ROW 99 : ... .. E ... ... ... : ... .. 7 ... ... ... : ... .. . ... : ... .. C ... : ... .. . ... ... : ... .. 4 ... ... : ... .. 4 ... ... : ... .. D ... ...
ROW 9A : ... .. D ... ... ... : ... .. . ... ... ... : ... .. . ... : ... .. 6 ... : ... .. . ... ... : ... .. . ... ... : ... .. . ... ... : ... .. 8 ... ...
ROW 9B : ... .. A ... ... ... : ... .. 6 ... ... ... : ... .. . ... : ... .. 3 ... : ... .. . ... ... : ... .. 3 ... ... : ... .. 3 ... ... : ... .. . ... ...
ROW 9C : ... .. . ... ... ... : A-4 00 5 ... ... ... : ... .. . ... : ... .. 2 ... : ... .. . ... ... : ... .. 2 ... ... : ... .. 2 ... ... : ... .. . ... ...
ROW 9D : ... .. . ... ... ... : ... .. 4 ... ... ... : ... .. . ... : ... .. 0 ... : ... .. . ... ... : ... .. . ... ... : ... .. . ... ... : ... .. . ... ...
ROW 9E : ... .. . ... ... ... : ... .. . ... ... ... : ... .. . ... : ... .. . ... : ... .. . ... ... : ... .. 1 ... ... : ... .. 1 ... ... : ... .. . ... ...
ROW 9F : ... .. . ... ... ... : ... .. . ... ... ... : ... .. . ... : ... .. . ... : ... .. . ... ... : ... .. . ... ... : ... .. . ... ... : ... .. . ... ...
ROW A0 : ... .. . ... ... ... : C#4 00 8 ... ... ... : B-3 00 . P7D : 5-# 00 D ... : ... .. . ... ... : C#3 01 5 ... ... : A-3 01 5 ... ... : ... .. . ... ...
ROW A1 : ... .. . ... ... ... : ... .. 7 ... ... ... : A#3 00 . P7C : ... .. . ... : ... .. . ... ... : ... .. 4 ... ... : ... .. 4 ... ... : ... .. . ... ...
ROW A2 : ... .. . ... ... ... : ... .. . ... ... ... : A-3 00 . P7B : 1-# 00 D ... : ... .. . ... ... : ... .. . ... ... : ... .. . ... ... : ... .. . ... ...
ROW A3 : ... .. . ... ... ... : ... .. 6 ... ... ... : G#3 00 . ... : F-# 00 6 ... : ... .. . ... ... : ... .. 3 ... ... : ... .. 3 ... ... : ... .. . ... ...
ROW A4 : ... .. . ... ... ... : E-4 00 5 ... ... ... : G-3 00 . P7C : B-# 00 1 ... : ... .. . ... ... : ... .. 2 ... ... : ... .. 2 ... ... : ... .. . ... ...
ROW A5 : ... .. . ... ... ... : ... .. 4 ... ... ... : F#3 00 . P7E : ... .. 0 ... : ... .. . ... ... : ... .. . ... ... : ... .. . ... ... : ... .. . ... ...
ROW A6 : ... .. . ... ... ... : ... .. . ... ... ... : --- .. . ... : ... .. . ... : ... .. . ... ... : ... .. 1 ... ... : ... .. 1 ... ... : --- .. . ... ...
ROW A7 : ... .. . ... ... ... : ... .. . ... ... ... : ... .. . ... : ... .. . ... : ... .. . ... ... : ... .. . ... ... : ... .. . ... ... : ... .. . ... ...
ROW A8 : ... .. . ... ... ... : A-3 00 8 ... ... ... : A-2 00 . P80 : E-# 00 A ... : ... .. . ... ... : ... .. 5 ... ... : ... .. 5 ... ... : A-0 01 F ... ...
ROW A9 : ... .. . ... ... ... : ... .. 7 ... ... ... : ... .. . ... : ... .. 8 ... : ... .. . ... ... : ... .. 4 ... ... : ... .. 4 ... ... : ... .. D ... ...
ROW AA : ... .. . ... ... ... : ... .. . ... ... ... : ... .. . ... : ... .. 4 ... : ... .. . ... ... : ... .. . ... ... : ... .. . ... ... : ... .. 8 ... ...
ROW AB : ... .. . ... ... ... : ... .. 6 ... ... ... : ... .. . ... : ... .. 2 ... : ... .. . ... ... : ... .. 3 ... ... : ... .. 3 ... ... : ... .. . ... ...
ROW AC : ... .. . ... ... ... : C#4 00 5 ... ... ... : ... .. . ... : ... .. 1 ... : ... .. . ... ... : ... .. 2 ... ... : ... .. 2 ... ... : ... .. . ... ...
ROW AD : ... .. 2 ... ... ... : ... .. 4 ... ... ... : ... .. . ... : ... .. 0 ... : ... .. . ... ... : ... .. . ... ... : ... .. . ... ... : ... .. . ... ...
ROW AE : ... .. . ... ... ... : ... .. . ... ... ... : --- .. . ... : ... .. . ... : ... .. . ... ... : ... .. 1 ... ... : ... .. 1 ... ... : --- .. . ... ...
ROW AF : ... .. . ... ... ... : ... .. . ... ... ... : ... .. . ... : ... .. . ... : ... .. . ... ... : ... .. . ... ... : ... .. . ... ... : ... .. . ... ...
ROW B0 : D#4 00 F ... ... ... : E-3 00 8 ... ... ... : C#3 00 . ... : ... .. F ... : ... .. . ... ... : ... .. 5 ... ... : ... .. 5 ... ... : C#1 01 F ... ...
ROW B1 : ... .. E ... ... ... : ... .. 7 ... ... ... : ... .. . ... : ... .. C ... : ... .. . ... ... : ... .. 4 ... ... : ... .. 4 ... ... : ... .. D ... ...
ROW B2 : ... .. D ... ... ... : ... .. . ... ... ... : ... .. . ... : ... .. 6 ... : ... .. . ... ... : ... .. . ... ... : ... .. . ... ... : ... .. 8 ... ...
ROW B3 : ... .. A ... ... ... : ... .. 6 ... ... ... : ... .. . ... : ... .. 3 ... : ... .. . ... ... : ... .. 3 ... ... : ... .. 3 ... ... : ... .. . ... ...
ROW B4 : ... .. . ... ... ... : A-3 00 5 ... ... ... : ... .. . ... : ... .. 2 ... : ... .. . ... ... : ... .. 2 ... ... : ... .. 2 ... ... : ... .. . ... ...
ROW B5 : E-4 00 A P7F ... ... : ... .. 4 ... ... ... : ... .. . ... : ... .. 0 ... : ... .. . ... ... : ... .. . ... ... : ... .. . ... ... : ... .. . ... ...
ROW B6 : ... .. . P80 ... ... : ... .. . ... ... ... : --- .. . ... : ... .. . ... : ... .. . ... ... : ... .. 1 ... ... : ... .. 1 ... ... : --- .. . P81 ...
ROW B7 : ... .. . ... ... ... : ... .. . ... ... ... : ... .. . ... : ... .. . ... : ... .. . ... ... : ... .. . ... ... : ... .. . ... ... : ... .. . ... ...
ROW B8 : ... .. . ... ... ... : C#3 00 8 ... ... ... : E-3 00 . ... : F-# 00 F ... : ... .. . ... ... : ... .. 5 ... ... : ... .. 5 ... ... : E-1 01 F P80 ...
ROW B9 : ... .. . ... ... ... : ... .. 7 ... ... ... : ... .. . ... : ... .. C ... : ... .. . ... ... : ... .. 4 ... ... : ... .. 4 ... ... : ... .. D ... ...
ROW BA : ... .. . ... ... ... : ... .. . ... ... ... : ... .. . ... : ... .. 6 ... : ... .. . ... ... : ... .. . ... ... : ... .. . ... ... : ... .. 8 ... ...
ROW BB : ... .. . ... ... ... : ... .. 6 ... ... ... : ... .. . ... : ... .. 3 ... : ... .. . ... ... : ... .. 3 ... ... : ... .. 3 ... ... : ... .. . ... ...
ROW BC : ... .. . ... ... ... : E-3 00 5 ... ... ... : ... .. . ... : ... .. F ... : ... .. . ... ... : ... .. 2 ... ... : ... .. 2 ... ... : ... .. . ... ...
ROW BD : ... .. . ... ... ... : ... .. 4 ... ... ... : ... .. . ... : ... .. C ... : ... .. . ... ... : ... .. . ... ... : ... .. . ... ... : ... .. . ... ...
ROW BE : ... .. . ... ... ... : ... .. . ... ... ... : --- .. . ... : ... .. 6 ... : ... .. . ... ... : ... .. 1 ... ... : ... .. 1 ... ... : --- .. . P82 ...
ROW BF : ... .. . ... ... ... : ... .. . ... ... ... : ... .. . ... : ... .. 3 ... : ... .. . ... ... : ... .. . ... ... : ... .. . ... ... : ... .. . ... ...
ROW C0 : D#4 00 F ... ... ... : D#5 00 8 ... ... ... : A#2 00 . P82 : 1-# 00 F ... : ... .. . ... ... : D#3 01 5 ... ... : A#3 01 5 ... ... : D#1 01 F P80 ...
ROW C1 : ... .. E ... ... ... : ... .. 7 ... ... ... : G#2 00 . P8B : ... .. C ... : ... .. . ... ... : ... .. 4 ... ... : ... .. 4 ... ... : ... .. D ... ...
ROW C2 : ... .. D ... ... ... : ... .. . ... ... ... : G-2 00 . P79 : ... .. 6 ... : ... .. . ... ... : ... .. . ... ... : ... .. . ... ... : ... .. 8 ... ...
ROW C3 : ... .. A ... ... ... : ... .. 6 ... ... ... : F-2 00 . P8D : ... .. 3 ... : ... .. . ... ... : ... .. 3 ... ... : ... .. 3 ... ... : ... .. . ... ...
ROW C4 : ... .. . ... ... ... : C#3 00 5 ... ... ... : E-2 00 . P81 : ... .. 2 ... : ... .. . ... ... : ... .. 2 ... ... : ... .. 2 ... ... : ... .. . ... ...
ROW C5 : ... .. . ... ... ... : ... .. 4 ... ... ... : D#2 00 . P77 : ... .. 0 ... : ... .. . ... ... : ... .. . ... ... : ... .. . ... ... : ... .. . ... ...
ROW C6 : ... .. . ... ... ... : ... .. . ... ... ... : --- .. . ... : ... .. . ... : ... .. . ... ... : ... .. 1 ... ... : ... .. 1 ... ... : --- .. . P81 ...
ROW C7 : ... .. . ... ... ... : ... .. . ... ... ... : ... .. . ... : ... .. . ... : ... .. . ... ... : ... .. . ... ... : ... .. . ... ... : ... .. . ... ...
ROW C8 : ... .. . ... ... ... : A#4 00 8 ... ... ... : D#2 00 . P80 : E-# 00 A ... : ... .. . ... ... : ... .. 5 ... ... : ... .. 5 ... ... : D#0 01 F P80 ...
ROW C9 : ... .. . ... ... ... : ... .. 7 ... ... ... : ... .. . ... : ... .. 8 ... : ... .. . ... ... : ... .. 4 ... ... : ... .. 4 ... ... : ... .. D ... ...
ROW CA : ... .. . ... ... ... : ... .. . ... ... ... : ... .. . ... : ... .. 4 ... : ... .. . ... ... : ... .. . ... ... : ... .. . ... ... : ... .. 8 ... ...
ROW CB : ... .. . ... ... ... : ... .. 6 ... ... ... : ... .. . ... : ... .. 2 ... : ... .. . ... ... : ... .. 3 ... ... : ... .. 3 ... ... : ... .. . ... ...
ROW CC : ... .. . ... ... ... : D#5 00 5 ... ... ... : ... .. . ... : ... .. 1 ... : ... .. . ... ... : ... .. 2 ... ... : ... .. 2 ... ... : ... .. . ... ...
ROW CD : ... .. . ... ... ... : ... .. 4 ... ... ... : ... .. . ... : ... .. 0 ... : ... .. . ... ... : ... .. . ... ... : ... .. . ... ... : ... .. . ... ...
ROW CE : ... .. . ... ... ... : ... .. . ... ... ... : ... .. . ... : ... .. . ... : ... .. . ... ... : ... .. 1 ... ... : ... .. 1 ... ... : ... .. . ... ...
ROW CF : ... .. . ... ... ... : ... .. . ... ... ... : ... .. . ... : ... .. . ... : ... .. . ... ... : ... .. . ... ... : ... .. . ... ... : ... .. . ... ...
ROW D0 : A#3 00 F ... ... ... : G-4 00 8 ... ... ... : ... .. . ... : 1-# 00 F ... : ... .. . ... ... : ... .. 5 ... ... : ... .. 5 ... ... : ... .. . ... ...
ROW D1 : ... .. E ... ... ... : ... .. 7 ... ... ... : ... .. . ... : ... .. C ... : ... .. . ... ... : ... .. 4 ... ... : ... .. 4 ... ... : ... .. . ... ...
ROW D2 : ... .. D ... ... ... : ... .. . ... ... ... : ... .. . ... : ... .. 6 ... : ... .. . ... ... : ... .. . ... ... : ... .. . ... ... : ... .. . ... ...
ROW D3 : ... .. A ... ... ... : ... .. 6 ... ... ... : ... .. . ... : ... .. 3 ... : ... .. . ... ... : ... .. 3 ... ... : ... .. 3 ... ... : ... .. . ... ...
ROW D4 : ... .. . ... ... ... : A#4 00 5 ... ... ... : ... .. . ... : ... .. 2 ... : ... .. . ... ... : ... .. 2 ... ... : ... .. 2 ... ... : ... .. . ... ...
ROW D5 : ... .. 2 ... ... ... : ... .. 4 ... ... ... : ... .. . ... : ... .. 0 ... : ... .. . ... ... : ... .. . ... ... : ... .. . ... ... : ... .. . ... ...
ROW D6 : ... .. . ... ... ... : ... .. . ... ... ... : --- .. . ... : ... .. . ... : ... .. . ... ... : ... .. 1 ... ... : ... .. 1 ... ... : --- .. . P83 ...
ROW D7 : ... .. . ... ... ... : ... .. . ... ... ... : ... .. . ... : ... .. . ... : ... .. . ... ... : ... .. . ... ... : ... .. . ... ... : ... .. . ... ...
ROW D8 : G-3 00 F ... ... ... : D#4 00 8 ... ... ... : D#2 00 . ... : E-# 00 A ... : ... .. . ... ... : ... .. 5 ... ... : ... .. 5 ... ... : D#0 01 F P80 ...
ROW D9 : ... .. E ... ... ... : ... .. 7 ... ... ... : ... .. . ... : ... .. 8 ... : ... .. . ... ... : ... .. 4 ... ... : ... .. 4 ... ... : ... .. D ... ...
ROW DA : ... .. D ... ... ... : ... .. . ... ... ... : ... .. . ... : ... .. 4 ... : ... .. . ... ... : ... .. . ... ... : ... .. . ... ... : ... .. 8 ... ...
ROW DB : ... .. A ... ... ... : ... .. 6 ... ... ... : ... .. . ... : ... .. 2 ... : ... .. . ... ... : ... .. 3 ... ... : ... .. 3 ... ... : ... .. . ... ...
ROW DC : ... .. . ... ... ... : G-4 00 5 ... ... ... : ... .. . ... : ... .. 1 ... : ... .. . ... ... : ... .. 2 ... ... : ... .. 2 ... ... : ... .. . ... ...
ROW DD : ... .. . ... ... ... : ... .. 4 ... ... ... : ... .. . ... : ... .. 0 ... : ... .. . ... ... : ... .. . ... ... : ... .. . ... ... : ... .. . ... ...
ROW DE : ... .. . ... ... ... : ... .. . ... ... ... : ... .. . ... : ... .. . ... : ... .. . ... ... : ... .. 1 ... ... : ... .. 1 ... ... : ... .. . ... ...
ROW DF : ... .. . ... ... ... : ... .. . ... ... ... : ... .. . ... : ... .. . ... : ... .. . ... ... : ... .. . ... ... : ... .. . ... ... : ... .. . ... ...
ROW E0 : ... .. . ... ... ... : C#4 00 8 ... ... ... : B-3 00 . P7D : 5-# 00 D ... : ... .. . ... ... : ... .. 5 ... ... : ... .. 5 ... ... : ... .. . ... ...
ROW E1 : ... .. . ... ... ... : ... .. 7 ... ... ... : A#3 00 . P7C : ... .. . ... : ... .. . ... ... : ... .. 4 ... ... : ... .. 4 ... ... : ... .. . ... ...
ROW E2 : ... .. . ... ... ... : ... .. . ... ... ... : A-3 00 . P7B : 1-# 00 D ... : ... .. . ... ... : ... .. . ... ... : ... .. . ... ... : ... .. . ... ...
ROW E3 : ... .. . ... ... ... : ... .. 6 ... ... ... : G#3 00 . ... : F-# 00 6 ... : ... .. . ... ... : ... .. 3 ... ... : ... .. 3 ... ... : ... .. . ... ...
ROW E4 : ... .. . P84 ... ... : D#4 00 5 ... ... ... : G-3 00 . P7C : B-# 00 1 ... : ... .. . ... ... : ... .. 2 ... ... : ... .. 2 ... ... : ... .. . ... ...
ROW E5 : ... .. . P86 ... ... : ... .. 4 ... ... ... : F#3 00 . P7E : ... .. 0 ... : ... .. . ... ... : ... .. . ... ... : ... .. . ... ... : ... .. . ... ...
ROW E6 : ... .. . P85 ... ... : ... .. . ... ... ... : --- .. . ... : ... .. . ... : ... .. . ... ... : ... .. 1 ... ... : ... .. 1 ... ... : --- .. . P83 ...
ROW E7 : ... .. . P82 ... ... : ... .. . ... ... ... : ... .. . ... : ... .. . ... : ... .. . ... ... : ... .. . ... ... : ... .. . ... ... : ... .. . ... ...
ROW E8 : ... .. . P7E ... ... : A#3 00 8 ... ... ... : D#2 00 . P80 : E-# 00 A ... : ... .. . ... ... : ... .. 5 ... ... : ... .. 5 ... ... : D#0 01 F P80 ...
ROW E9 : ... .. . P7B ... ... : ... .. 7 ... ... ... : ... .. . ... : ... .. 8 ... : ... .. . ... ... : ... .. 4 ... ... : ... .. 4 ... ... : ... .. D ... ...
ROW EA : ... .. . P7A ... ... : ... .. . ... ... ... : ... .. . ... : ... .. 4 ... : ... .. . ... ... : ... .. . ... ... : ... .. . ... ... : ... .. 8 ... ...
ROW EB : ... .. . P7C ... ... : ... .. 6 ... ... ... : ... .. . ... : ... .. 2 ... : ... .. . ... ... : ... .. 3 ... ... : ... .. 3 ... ... : ... .. . ... ...
ROW EC : ... .. . P80 ... ... : C#4 00 5 ... ... ... : ... .. . ... : ... .. 1 ... : ... .. . ... ... : ... .. 2 ... ... : ... .. 2 ... ... : ... .. . ... ...
ROW ED : ... .. . P83 ... ... : ... .. 4 ... ... ... : ... .. . ... : ... .. 0 ... : ... .. . ... ... : ... .. . ... ... : ... .. . ... ... : ... .. . ... ...
ROW EE : ... .. . P86 ... ... : ... .. . ... ... ... : --- .. . ... : ... .. . ... : ... .. . ... ... : ... .. 1 ... ... : ... .. 1 ... ... : --- .. . P83 ...
ROW EF : ... .. . ... ... ... : ... .. . ... ... ... : ... .. . ... : ... .. . ... : ... .. . ... ... : ... .. . ... ... : ... .. . ... ... : ... .. . ... ...
ROW F0 : A#3 00 8 P80 ... ... : G-3 00 8 ... ... ... : A#2 00 . ... : ... .. F ... : ... .. . ... ... : ... .. 5 ... ... : ... .. 5 ... ... : A#0 01 F P80 ...
ROW F1 : ... .. 7 ... ... ... : ... .. 7 ... ... ... : ... .. . ... : ... .. C ... : ... .. . ... ... : ... .. 4 ... ... : ... .. 4 ... ... : ... .. D ... ...
ROW F2 : ... .. 6 ... ... ... : ... .. . ... ... ... : ... .. . ... : ... .. 6 ... : ... .. . ... ... : ... .. . ... ... : ... .. . ... ... : ... .. 8 ... ...
ROW F3 : ... .. 5 ... ... ... : ... .. 6 ... ... ... : ... .. . ... : ... .. 3 ... : ... .. . ... ... : ... .. 3 ... ... : ... .. 3 ... ... : ... .. . ... ...
ROW F4 : ... .. . ... ... ... : A#3 00 5 ... ... ... : ... .. . ... : ... .. 2 ... : ... .. . ... ... : ... .. 2 ... ... : ... .. 2 ... ... : ... .. . ... ...
ROW F5 : ... .. 1 ... ... ... : ... .. 4 ... ... ... : ... .. . ... : ... .. 0 ... : ... .. . ... ... : ... .. . ... ... : ... .. . ... ... : ... .. . ... ...
ROW F6 : ... .. . ... ... ... : ... .. . ... ... ... : --- .. . ... : ... .. . ... : ... .. . ... ... : ... .. 1 ... ... : ... .. 1 ... ... : --- .. . P7F ...
ROW F7 : ... .. . ... ... ... : ... .. . ... ... ... : ... .. . ... : ... .. . ... : ... .. . ... ... : ... .. . ... ... : ... .. . ... ... : ... .. . ... ...
ROW F8 : G-3 00 8 ... ... ... : D#3 00 8 ... ... ... : C#3 00 . ... : D-# 00 A ... : ... .. . ... ... : ... .. 5 ... ... : ... .. 5 ... ... : C#1 01 F P80 ...
ROW F9 : ... .. 7 ... ... ... : ... .. 7 ... ... ... : ... .. . ... : ... .. . ... : ... .. . ... ... : ... .. 4 ... ... : ... .. 4 ... ... : ... .. D ... ...
ROW FA : ... .. 6 ... ... ... : ... .. . ... ... ... : ... .. . ... : ... .. . ... : ... .. . ... ... : ... .. . ... ... : ... .. . ... ... : ... .. 8 ... ...
ROW FB : ... .. 5 ... ... ... : ... .. 6 ... ... ... : ... .. . ... : ... .. . ... : ... .. . ... ... : ... .. 3 ... ... : ... .. 3 ... ... : ... .. . ... ...
ROW FC : ... .. . ... ... ... : G-3 00 5 ... ... ... : ... .. . ... : ... .. . ... : ... .. . ... ... : ... .. 2 ... ... : ... .. 2 ... ... : ... .. . ... ...
ROW FD : ... .. . ... ... ... : ... .. 4 ... ... ... : ... .. . ... : ... .. . ... : ... .. . ... ... : ... .. . ... ... : ... .. . ... ... : ... .. . ... ...
ROW FE : ... .. . ... ... ... : ... .. . ... ... ... : --- .. . ... : ... .. . ... : ... .. . ... ... : ... .. 1 ... ... : ... .. 1 ... ... : --- .. . P81 ...
ROW FF : ... .. . ... ... ... : ... .. . ... ... ... : ... .. . ... : ... .. . ... : ... .. . ... ... : ... .. . ... ... : ... .. . ... ... : ... .. . ... ...

PATTERN 0D
ROW 00 : D#4 00 6 ... ... ... : D#5 00 8 ... ... ... : A#2 00 . P82 : 1-# 00 F ... : ... .. . ... ... : ... .. 5 ... ... : G-3 01 5 ... ... : D#1 01 F P80 ...
ROW 01 : ... .. 5 ... ... ... : ... .. 7 ... ... ... : G#2 00 . P8B : ... .. C ... : ... .. . ... ... : ... .. 4 ... ... : ... .. 4 ... ... : ... .. D ... ...
ROW 02 : ... .. . ... ... ... : ... .. . ... ... ... : G-2 00 . P79 : ... .. 6 ... : ... .. . ... ... : ... .. . ... ... : ... .. . ... ... : ... .. 8 ... ...
ROW 03 : ... .. 4 ... ... ... : ... .. 6 ... ... ... : F-2 00 . P8D : ... .. 3 ... : ... .. . ... ... : ... .. 3 ... ... : ... .. 3 ... ... : ... .. . ... ...
ROW 04 : ... .. . ... ... ... : D#3 00 5 ... ... ... : E-2 00 . P81 : ... .. 2 ... : ... .. . ... ... : ... .. 2 ... ... : ... .. 2 ... ... : ... .. . ... ...
ROW 05 : ... .. . ... ... ... : ... .. 4 ... ... ... : D#2 00 . P77 : ... .. 0 ... : ... .. . ... ... : ... .. . ... ... : ... .. . ... ... : ... .. . ... ...
ROW 06 : ... .. . ... ... ... : ... .. . ... ... ... : --- .. . ... : ... .. . ... : ... .. . ... ... : ... .. 1 ... ... : ... .. 1 ... ... : --- .. . P81 ...
ROW 07 : ... .. . ... ... ... : ... .. . ... ... ... : ... .. . ... : ... .. . ... : ... .. . ... ... : ... .. . ... ... : ... .. . ... ... : ... .. . ... ...
ROW 08 : ... .. . ... ... ... : C#5 00 8 ... ... ... : D#2 00 . P80 : E-# 00 A ... : ... .. . ... ... : ... .. 5 ... ... : ... .. 5 ... ... : D#0 01 F P80 ...
ROW 09 : ... .. . ... ... ... : ... .. 7 ... ... ... : ... .. . ... : ... .. 8 ... : ... .. . ... ... : ... .. 4 ... ... : ... .. 4 ... ... : ... .. D ... ...
ROW 0A : ... .. . ... ... ... : ... .. . ... ... ... : ... .. . ... : ... .. 4 ... : ... .. . ... ... : ... .. . ... ... : ... .. . ... ... : ... .. 8 ... ...
ROW 0B : ... .. . ... ... ... : ... .. 6 ... ... ... : ... .. . ... : ... .. 2 ... : ... .. . ... ... : ... .. 3 ... ... : ... .. 3 ... ... : ... .. . ... ...
ROW 0C : ... .. . ... ... ... : D#5 00 5 ... ... ... : ... .. . ... : ... .. 1 ... : ... .. . ... ... : ... .. 2 ... ... : ... .. 2 ... ... : ... .. . ... ...
ROW 0D : ... .. . ... ... ... : ... .. 4 ... ... ... : ... .. . ... : ... .. 0 ... : ... .. . ... ... : ... .. . ... ... : ... .. . ... ... : ... .. . ... ...
ROW 0E : ... .. . ... ... ... : ... .. . ... ... ... : ... .. . ... : ... .. . ... : ... .. . ... ... : ... .. 1 ... ... : ... .. 1 ... ... : ... .. . ... ...
ROW 0F : ... .. . ... ... ... : ... .. . ... ... ... : ... .. . ... : ... .. . ... : ... .. . ... ... : ... .. . ... ... : ... .. . ... ... : ... .. . ... ...
ROW 10 : A#3 00 6 ... ... ... : A#4 00 8 ... ... ... : ... .. . ... : ... .. F ... : ... .. . ... ... : ... .. 5 ... ... : ... .. 5 ... ... : ... .. . ... ...
ROW 11 : ... .. 5 ... ... ... : ... .. 7 ... ... ... : ... .. . ... : ... .. C ... : ... .. . ... ... : ... .. 4 ... ... : ... .. 4 ... ... : ... .. . ... ...
ROW 12 : ... .. . ... ... ... : ... .. . ... ... ... : ... .. . ... : ... .. 6 ... : ... .. . ... ... : ... .. . ... ... : ... .. . ... ... : ... .. . ... ...
ROW 13 : ... .. 4 ... ... ... : ... .. 6 ... ... ... : ... .. . ... : ... .. 3 ... : ... .. . ... ... : ... .. 3 ... ... : ... .. 3 ... ... : ... .. . ... ...
ROW 14 : ... .. . ... ... ... : C#5 00 5 ... ... ... : ... .. . ... : ... .. 2 ... : ... .. . ... ... : ... .. 2 ... ... : ... .. 2 ... ... : ... .. . ... ...
ROW 15 : ... .. 1 ... ... ... : ... .. 4 ... ... ... : ... .. . ... : ... .. 0 ... : ... .. . ... ... : ... .. . ... ... : ... .. . ... ... : ... .. . ... ...
ROW 16 : ... .. . ... ... ... : ... .. . ... ... ... : --- .. . ... : ... .. . ... : ... .. . ... ... : ... .. 1 ... ... : ... .. 1 ... ... : --- .. . P83 ...
ROW 17 : ... .. . ... ... ... : ... .. . ... ... ... : ... .. . ... : ... .. . ... : ... .. . ... ... : ... .. . ... ... : ... .. . ... ... : ... .. . ... ...
ROW 18 : G-3 00 6 ... ... ... : G-4 00 8 ... ... ... : D#2 00 . ... : 1-# 00 F ... : ... .. . ... ... : ... .. 5 ... ... : ... .. 5 ... ... : D#0 01 F P80 ...
ROW 19 : ... .. 5 ... ... ... : ... .. 7 ... ... ... : ... .. . ... : ... .. C ... : ... .. . ... ... : ... .. 4 ... ... : ... .. 4 ... ... : ... .. D ... ...
ROW 1A : ... .. . ... ... ... : ... .. . ... ... ... : ... .. . ... : ... .. 6 ... : ... .. . ... ... : ... .. . ... ... : ... .. . ... ... : ... .. 8 ... ...
ROW 1B : ... .. 4 ... ... ... : ... .. 6 ... ... ... : ... .. . ... : ... .. 3 ... : ... .. . ... ... : ... .. 3 ... ... : ... .. 3 ... ... : ... .. . ... ...
ROW 1C : ... .. . ... ... ... : A#4 00 5 ... ... ... : ... .. . ... : ... .. 2 ... : ... .. . ... ... : ... .. 2 ... ... : ... .. 2 ... ... : ... .. . ... ...
ROW 1D : ... .. . ... ... ... : ... .. 4 ... ... ... : ... .. . ... : ... .. 0 ... : ... .. . ... ... : ... .. . ... ... : ... .. . ... ... : ... .. . ... ...
ROW 1E : ... .. . ... ... ... : ... .. . ... ... ... : ... .. . ... : ... .. . ... : ... .. . ... ... : ... .. 1 ... ... : ... .. 1 ... ... : ... .. . ... ...
ROW 1F : ... .. . ... ... ... : ... .. . ... ... ... : ... .. . ... : ... .. . ... : ... .. . ... ... : ... .. . ... ... : ... .. . ... ... : ... .. . ... ...
ROW 20 : D#4 00 4 ... ... ... : D#4 00 8 ... ... ... : B-3 00 . P7D : 5-# 00 D ... : ... .. . ... ... : ... .. 5 ... ... : A#3 01 5 ... ... : ... .. . ... ...
ROW 21 : ... .. 3 ... ... ... : ... .. 7 ... ... ... : A#3 00 . P7C : ... .. . ... : ... .. . ... ... : ... .. 4 ... ... : ... .. 4 ... ... : ... .. . ... ...
ROW 22 : ... .. . ... ... ... : ... .. . ... ... ... : A-3 00 . P7B : 1-# 00 D ... : ... .. . ... ... : ... .. . ... ... : ... .. . ... ... : ... .. . ... ...
ROW 23 : ... .. 2 ... ... ... : ... .. 6 ... ... ... : G#3 00 . ... : F-# 00 6 ... : ... .. . ... ... : ... .. 3 ... ... : ... .. 3 ... ... : ... .. . ... ...
ROW 24 : ... .. . ... ... ... : G-4 00 5 ... ... ... : G-3 00 . P7C : B-# 00 1 ... : ... .. . ... ... : ... .. 2 ... ... : ... .. 2 ... ... : ... .. . ... ...
ROW 25 : ... .. . ... ... ... : ... .. 4 ... ... ... : F#3 00 . P7E : ... .. 0 ... : ... .. . ... ... : ... .. . ... ... : ... .. . ... ... : ... .. . ... ...
ROW 26 : ... .. . ... ... ... : ... .. . ... ... ... : --- .. . ... : ... .. . ... : ... .. . ... ... : ... .. 1 ... ... : ... .. 1 ... ... : --- .. . P83 ...
ROW 27 : ... .. . ... ... ... : ... .. . ... ... ... : ... .. . ... : ... .. . ... : ... .. . ... ... : ... .. . ... ... : ... .. . ... ... : ... .. . ... ...
ROW 28 : ... .. . ... ... ... : C#4 00 8 ... ... ... : D#3 00 . P80 : E-# 00 A ... : ... .. . ... ... : ... .. 5 ... ... : ... .. 5 ... ... : D#1 01 F P80 ...
ROW 29 : ... .. . ... ... ... : ... .. 7 ... ... ... : ... .. . ... : ... .. 8 ... : ... .. . ... ... : ... .. 4 ... ... : ... .. 4 ... ... : ... .. D ... ...
ROW 2A : ... .. . ... ... ... : ... .. . ... ... ... : ... .. . ... : ... .. 4 ... : ... .. . ... ... : ... .. . ... ... : ... .. . ... ... : ... .. 8 ... ...
ROW 2B : ... .. . ... ... ... : ... .. 6 ... ... ... : ... .. . ... : ... .. 2 ... : ... .. . ... ... : ... .. 3 ... ... : ... .. 3 ... ... : ... .. . ... ...
ROW 2C : ... .. . ... ... ... : D#4 00 5 ... ... ... : ... .. . ... : ... .. 1 ... : ... .. . ... ... : ... .. 2 ... ... : ... .. 2 ... ... : ... .. . ... ...
ROW 2D : ... .. . ... ... ... : ... .. 4 ... ... ... : ... .. . ... : ... .. 0 ... : ... .. . ... ... : ... .. . ... ... : ... .. . ... ... : ... .. . ... ...
ROW 2E : ... .. . ... ... ... : ... .. . ... ... ... : --- .. . ... : ... .. . ... : ... .. . ... ... : ... .. 1 ... ... : ... .. 1 ... ... : --- .. . P81 ...
ROW 2F : ... .. . ... ... ... : ... .. . ... ... ... : ... .. . ... : ... .. . ... : ... .. . ... ... : ... .. . ... ... : ... .. . ... ... : ... .. . ... ...
ROW 30 : A#3 00 4 ... ... ... : A#3 00 8 ... ... ... : G-3 00 . ... : ... .. F ... : ... .. . ... ... : ... .. 5 ... ... : ... .. 5 ... ... : G-1 01 F P80 ...
ROW 31 : ... .. 3 ... ... ... : ... .. 7 ... ... ... : ... .. . ... : ... .. C ... : ... .. . ... ... : ... .. 4 ... ... : ... .. 4 ... ... : ... .. D ... ...
ROW 32 : ... .. . ... ... ... : ... .. . ... ... ... : ... .. . ... : ... .. 6 ... : ... .. . ... ... : ... .. . ... ... : ... .. . ... ... : ... .. 8 ... ...
ROW 33 : ... .. 2 ... ... ... : ... .. 6 ... ... ... : ... .. . ... : ... .. 3 ... : ... .. . ... ... : ... .. 3 ... ... : ... .. 3 ... ... : ... .. . ... ...
ROW 34 : ... .. . ... ... ... : C#4 00 5 ... ... ... : ... .. . ... : ... .. 2 ... : ... .. . ... ... : ... .. 2 ... ... : ... .. 2 ... ... : ... .. . ... ...
ROW 35 : ... .. 1 ... ... ... : ... .. 4 ... ... ... : ... .. . ... : ... .. 0 ... : ... .. . ... ... : ... .. . ... ... : ... .. . ... ... : ... .. . ... ...
ROW 36 : ... .. . ... ... ... : ... .. . ... ... ... : --- .. . ... : ... .. . ... : ... .. . ... ... : ... .. 1 ... ... : ... .. 1 ... ... : --- .. . P81 ...
ROW 37 : ... .. . ... ... ... : ... .. . ... ... ... : ... .. . ... : ... .. . ... : ... .. . ... ... : ... .. . ... ... : ... .. . ... ... : ... .. . ... ...
ROW 38 : G-3 00 4 ... ... ... : G-3 00 8 ... ... ... : C#4 00 . ... : F-# 00 F ... : ... .. . ... ... : ... .. 5 ... ... : ... .. 5 ... ... : C#2 01 F P80 ...
ROW 39 : ... .. 3 ... ... ... : ... .. 7 ... ... ... : ... .. . ... : ... .. C ... : ... .. . ... ... : ... .. 4 ... ... : ... .. 4 ... ... : ... .. D ... ...
ROW 3A : ... .. . ... ... ... : ... .. . ... ... ... : ... .. . ... : ... .. 6 ... : ... .. . ... ... : ... .. . ... ... : ... .. . ... ... : ... .. 8 ... ...
ROW 3B : ... .. 2 ... ... ... : ... .. 6 ... ... ... : ... .. . ... : ... .. 3 ... : ... .. . ... ... : ... .. 3 ... ... : ... .. 3 ... ... : ... .. . ... ...
ROW 3C : ... .. . ... ... ... : A#3 00 5 ... ... ... : ... .. . ... : ... .. F ... : ... .. . ... ... : ... .. 2 ... ... : ... .. 2 ... ... : ... .. . ... ...
ROW 3D : ... .. . ... ... ... : ... .. 4 ... ... ... : ... .. . ... : ... .. C ... : ... .. . ... ... : ... .. . ... ... : ... .. . ... ... : ... .. . ... ...
ROW 3E : ... .. . ... ... ... : ... .. . ... ... ... : --- .. . ... : ... .. 6 ... : ... .. . ... ... : ... .. 1 ... ... : ... .. 1 ... ... : --- .. . ... ...
ROW 3F : ... .. . ... ... ... : ... .. . ... ... ... : ... .. . ... : ... .. 3 ... : ... .. . ... ... : ... .. . ... ... : ... .. . ... ... : ... .. . ... ...
ROW 40 : ... .. 0 ... ... ... : C#5 00 8 ... ... ... : A#2 00 . P82 : 1-# 00 F ... : ... .. . ... ... : C#3 01 5 ... ... : A-3 01 5 ... ... : A-0 01 F ... ...
ROW 41 : ... .. . ... ... ... : ... .. 7 ... ... ... : G#2 00 . P8B : ... .. C ... : ... .. . ... ... : ... .. 4 ... ... : ... .. 4 ... ... : ... .. D ... ...
ROW 42 : ... .. . ... ... ... : ... .. . ... ... ... : G-2 00 . P79 : ... .. 6 ... : ... .. . ... ... : ... .. . ... ... : ... .. . ... ... : ... .. 8 ... ...
ROW 43 : ... .. . ... ... ... : ... .. 6 ... ... ... : F-2 00 . P8D : ... .. 3 ... : ... .. . ... ... : ... .. 3 ... ... : ... .. 3 ... ... : ... .. . ... ...
ROW 44 : ... .. . ... ... ... : G-3 00 5 ... ... ... : E-2 00 . P81 : ... .. 2 ... : ... .. . ... ... : ... .. 2 ... ... : ... .. 2 ... ... : ... .. . ... ...
ROW 45 : ... .. . ... ... ... : ... .. 4 ... ... ... : D#2 00 . P77 : ... .. 0 ... : ... .. . ... ... : ... .. . ... ... : ... .. . ... ... : ... .. . ... ...
ROW 46 : ... .. . ... ... ... : ... .. . ... ... ... : --- .. . ... : ... .. . ... : ... .. . ... ... : ... .. 1 ... ... : ... .. 1 ... ... : --- .. . ... ...
ROW 47 : ... .. . ... ... ... : ... .. . ... ... ... : ... .. . ... : ... .. . ... : ... .. . ... ... : ... .. . ... ... : ... .. . ... ... : ... .. . ... ...
ROW 48 : ... .. . ... ... ... : A-4 00 8 ... ... ... : E-3 00 . P80 : E-# 00 A ... : ... .. . ... ... : ... .. 5 ... ... : ... .. 5 ... ... : E-1 01 F ... ...
ROW 49 : ... .. . ... ... ... : ... .. 7 ... ... ... : ... .. . ... : ... .. 8 ... : ... .. . ... ... : ... .. 4 ... ... : ... .. 4 ... ... : ... .. D ... ...
ROW 4A : ... .. . ... ... ... : ... .. . ... ... ... : ... .. . ... : ... .. 4 ... : ... .. . ... ... : ... .. . ... ... : ... .. . ... ... : ... .. 8 ... ...
ROW 4B : ... .. . ... ... ... : ... .. 6 ... ... ... : ... .. . ... : ... .. 2 ... : ... .. . ... ... : ... .. 3 ... ... : ... .. 3 ... ... : ... .. . ... ...
ROW 4C : ... .. . ... ... ... : C#5 00 5 ... ... ... : ... .. . ... : ... .. 1 ... : ... .. . ... ... : ... .. 2 ... ... : ... .. 2 ... ... : ... .. . ... ...
ROW 4D : ... .. . ... ... ... : ... .. 4 ... ... ... : ... .. . ... : ... .. 0 ... : ... .. . ... ... : ... .. . ... ... : ... .. . ... ... : ... .. . ... ...
ROW 4E : ... .. . ... ... ... : ... .. . ... ... ... : ... .. . ... : ... .. . ... : ... .. . ... ... : ... .. 1 ... ... : ... .. 1 ... ... : ... .. . ... ...
ROW 4F : ... .. . ... ... ... : ... .. . ... ... ... : ... .. . ... : ... .. . ... : ... .. . ... ... : ... .. . ... ... : ... .. . ... ... : ... .. . ... ...
ROW 50 : ... .. . ... ... ... : E-4 00 8 ... ... ... : ... .. . ... : 1-# 00 F ... : ... .. . ... ... : ... .. 5 ... ... : ... .. 5 ... ... : ... .. . ... ...
ROW 51 : ... .. . ... ... ... : ... .. 7 ... ... ... : ... .. . ... : ... .. C ... : ... .. . ... ... : ... .. 4 ... ... : ... .. 4 ... ... : ... .. . ... ...
ROW 52 : ... .. . ... ... ... : ... .. . ... ... ... : ... .. . ... : ... .. 6 ... : ... .. . ... ... : ... .. . ... ... : ... .. . ... ... : ... .. . ... ...
ROW 53 : ... .. . ... ... ... : ... .. 6 ... ... ... : ... .. . ... : ... .. 3 ... : ... .. . ... ... : ... .. 3 ... ... : ... .. 3 ... ... : ... .. . ... ...
ROW 54 : ... .. . ... ... ... : A-4 00 5 ... ... ... : ... .. . ... : ... .. 2 ... : ... .. . ... ... : ... .. 2 ... ... : ... .. 2 ... ... : ... .. . ... ...
ROW 55 : ... .. . ... ... ... : ... .. 4 ... ... ... : ... .. . ... : ... .. 0 ... : ... .. . ... ... : ... .. . ... ... : ... .. . ... ... : ... .. . ... ...
ROW 56 : ... .. . ... ... ... : ... .. . ... ... ... : --- .. . ... : ... .. . ... : ... .. . ... ... : ... .. 1 ... ... : ... .. 1 ... ... : --- .. . P82 ...
ROW 57 : ... .. . ... ... ... : ... .. . ... ... ... : ... .. . ... : ... .. . ... : ... .. . ... ... : ... .. . ... ... : ... .. . ... ... : ... .. . ... ...
ROW 58 : ... .. . ... ... ... : C#4 00 8 ... ... ... : E-3 00 . ... : E-# 00 A ... : ... .. . ... ... : ... .. 5 ... ... : ... .. 5 ... ... : E-1 01 F P80 ...
ROW 59 : ... .. . ... ... ... : ... .. 7 ... ... ... : ... .. . ... : ... .. 8 ... : ... .. . ... ... : ... .. 4 ... ... : ... .. 4 ... ... : ... .. D ... ...
ROW 5A : ... .. . ... ... ... : ... .. . ... ... ... : ... .. . ... : ... .. 4 ... : ... .. . ... ... : ... .. . ... ... : ... .. . ... ... : ... .. 8 ... ...
ROW 5B : ... .. . ... ... ... : ... .. 6 ... ... ... : ... .. . ... : ... .. 2 ... : ... .. . ... ... : ... .. 3 ... ... : ... .. 3 ... ... : ... .. . ... ...
ROW 5C : ... .. . ... ... ... : E-4 00 5 ... ... ... : ... .. . ... : ... .. 1 ... : ... .. . ... ... : ... .. 2 ... ... : ... .. 2 ... ... : ... .. . ... ...
ROW 5D : ... .. . ... ... ... : ... .. 4 ... ... ... : ... .. . ... : ... .. 0 ... : ... .. . ... ... : ... .. . ... ... : ... .. . ... ... : ... .. . ... ...
ROW 5E : ... .. . ... ... ... : ... .. . ... ... ... : ... .. . ... : ... .. . ... : ... .. . ... ... : ... .. 1 ... ... : ... .. 1 ... ... : ... .. . ... ...
ROW 5F : ... .. . ... ... ... : ... .. . ... ... ... : ... .. . ... : ... .. . ... : ... .. . ... ... : ... .. . ... ... : ... .. . ... ... : ... .. . ... ...
ROW 60 : E-3 00 F P80 ... ... : A-3 00 8 ... ... ... : B-3 00 . P7D : 5-# 00 D ... : ... .. . ... ... : ... .. 5 ... ... : ... .. 5 ... ... : ... .. . ... ...
ROW 61 : ... .. E ... ... ... : ... .. 7 ... ... ... : A#3 00 . P7C : ... .. . ... : ... .. . ... ... : ... .. 4 ... ... : ... .. 4 ... ... : ... .. . ... ...
ROW 62 : ... .. D ... ... ... : ... .. . ... ... ... : A-3 00 . P7B : 1-# 00 D ... : ... .. . ... ... : ... .. . ... ... : ... .. . ... ... : ... .. . ... ...
ROW 63 : ... .. A ... ... ... : ... .. 6 ... ... ... : G#3 00 . ... : F-# 00 6 ... : ... .. . ... ... : ... .. 3 ... ... : ... .. 3 ... ... : ... .. . ... ...
ROW 64 : ... .. . ... ... ... : C#4 00 5 ... ... ... : G-3 00 . P7C : B-# 00 1 ... : ... .. . ... ... : ... .. 2 ... ... : ... .. 2 ... ... : ... .. . ... ...
ROW 65 : ... .. . ... ... ... : ... .. 4 ... ... ... : F#3 00 . P7E : ... .. 0 ... : ... .. . ... ... : ... .. . ... ... : ... .. . ... ... : ... .. . ... ...
ROW 66 : ... .. . ... ... ... : ... .. . ... ... ... : --- .. . ... : ... .. . ... : ... .. . ... ... : ... .. 1 ... ... : ... .. 1 ... ... : --- .. . P82 ...
ROW 67 : ... .. . ... ... ... : ... .. . ... ... ... : ... .. . ... : ... .. . ... : ... .. . ... ... : ... .. . ... ... : ... .. . ... ... : ... .. . ... ...
ROW 68 : ... .. . ... ... ... : E-3 00 8 ... ... ... : E-3 00 . P80 : E-# 00 A ... : ... .. . ... ... : ... .. 5 ... ... : ... .. 5 ... ... : E-1 01 F P80 ...
ROW 69 : ... .. . ... ... ... : ... .. 7 ... ... ... : ... .. . ... : ... .. 8 ... : ... .. . ... ... : ... .. 4 ... ... : ... .. 4 ... ... : ... .. D ... ...
ROW 6A : ... .. . ... ... ... : ... .. . ... ... ... : ... .. . ... : ... .. 4 ... : ... .. . ... ... : ... .. . ... ... : ... .. . ... ... : ... .. 8 ... ...
ROW 6B : ... .. . ... ... ... : ... .. 6 ... ... ... : ... .. . ... : ... .. 2 ... : ... .. . ... ... : ... .. 3 ... ... : ... .. 3 ... ... : ... .. . ... ...
ROW 6C : ... .. . ... ... ... : A-3 00 5 ... ... ... : ... .. . ... : ... .. 1 ... : ... .. . ... ... : ... .. 2 ... ... : ... .. 2 ... ... : ... .. . ... ...
ROW 6D : ... .. 2 ... ... ... : ... .. 4 ... ... ... : ... .. . ... : ... .. 0 ... : ... .. . ... ... : ... .. . ... ... : ... .. . ... ... : ... .. . ... ...
ROW 6E : ... .. . ... ... ... : ... .. . ... ... ... : --- .. . ... : ... .. . ... : ... .. . ... ... : ... .. 1 ... ... : ... .. 1 ... ... : --- .. . P82 ...
ROW 6F : ... .. . ... ... ... : ... .. . ... ... ... : ... .. . ... : ... .. . ... : ... .. . ... ... : ... .. . ... ... : ... .. . ... ... : ... .. . ... ...
ROW 70 : B-3 00 F ... ... ... : C#3 00 8 ... ... ... : B-3 00 . ... : ... .. F ... : ... .. . ... ... : ... .. 5 ... ... : ... .. 5 ... ... : B-1 01 F P80 ...
ROW 71 : ... .. E ... ... ... : ... .. 7 ... ... ... : ... .. . ... : ... .. C ... : ... .. . ... ... : ... .. 4 ... ... : ... .. 4 ... ... : ... .. D ... ...
ROW 72 : ... .. D ... ... ... : ... .. . ... ... ... : ... .. . ... : ... .. 6 ... : ... .. . ... ... : ... .. . ... ... : ... .. . ... ... : ... .. 8 ... ...
ROW 73 : ... .. A ... ... ... : ... .. 6 ... ... ... : ... .. . ... : ... .. 3 ... : ... .. . ... ... : ... .. 3 ... ... : ... .. 3 ... ... : ... .. . ... ...
ROW 74 : ... .. . ... ... ... : E-3 00 5 ... ... ... : ... .. . ... : ... .. 2 ... : ... .. . ... ... : ... .. 2 ... ... : ... .. 2 ... ... : ... .. . ... ...
ROW 75 : C-4 00 A P7D ... ... : ... .. 4 ... ... ... : ... .. . ... : ... .. 0 ... : ... .. . ... ... : ... .. . ... ... : ... .. . ... ... : ... .. . ... ...
ROW 76 : ... .. . P86 ... ... : ... .. . ... ... ... : --- .. . ... : ... .. . ... : ... .. . ... ... : ... .. 1 ... ... : ... .. 1 ... ... : --- .. . P86 ...
ROW 77 : C#4 00 A P80 ... ... : ... .. . ... ... ... : ... .. . ... : ... .. . ... : ... .. . ... ... : ... .. . ... ... : ... .. . ... ... : ... .. . ... ...
ROW 78 : ... .. . ... ... ... : A-2 00 8 ... ... ... : A-3 00 . ... : D-# 00 A ... : ... .. . ... ... : ... .. 5 ... ... : ... .. 5 ... ... : A-1 01 F P80 ...
ROW 79 : ... .. . ... ... ... : ... .. 7 ... ... ... : ... .. . ... : ... .. . ... : ... .. . ... ... : ... .. 4 ... ... : ... .. 4 ... ... : ... .. D ... ...
ROW 7A : ... .. . ... ... ... : ... .. . ... ... ... : ... .. . ... : ... .. . ... : ... .. . ... ... : ... .. . ... ... : ... .. . ... ... : ... .. 8 ... ...
ROW 7B : ... .. . ... ... ... : ... .. 6 ... ... ... : ... .. . ... : ... .. . ... : ... .. . ... ... : ... .. 3 ... ... : ... .. 3 ... ... : ... .. . ... ...
ROW 7C : ... .. . ... ... ... : C#3 00 5 ... ... ... : ... .. . ... : ... .. . ... : ... .. . ... ... : ... .. 2 ... ... : ... .. 2 ... ... : ... .. . ... ...
ROW 7D : ... .. . ... ... ... : ... .. 4 ... ... ... : ... .. . ... : ... .. . ... : ... .. . ... ... : ... .. . ... ... : ... .. . ... ... : ... .. . ... ...
ROW 7E : ... .. . ... ... ... : ... .. . ... ... ... : --- .. . ... : ... .. . ... : ... .. . ... ... : ... .. 1 ... ... : ... .. 1 ... ... : --- .. . P7F ...
ROW 7F : ... .. . ... ... ... : ... .. . ... ... ... : ... .. . ... : ... .. . ... : ... .. . ... ... : ... .. . ... ... : ... .. . ... ... : ... .. . ... ...
ROW 80 : B-3 00 F ... ... ... : C#5 00 8 ... ... ... : A#2 00 . P82 : 1-# 00 F ... : ... .. . ... ... : A-2 01 5 ... ... : E-3 01 5 ... ... : A-0 01 F P80 ...
ROW 81 : ... .. E ... ... ... : ... .. 7 ... ... ... : G#2 00 . P8B : ... .. C ... : ... .. . ... ... : ... .. 4 ... ... : ... .. 4 ... ... : ... .. D ... ...
ROW 82 : ... .. D ... ... ... : ... .. . ... ... ... : G-2 00 . P79 : ... .. 6 ... : ... .. . ... ... : ... .. . ... ... : ... .. . ... ... : ... .. 8 ... ...
ROW 83 : ... .. A ... ... ... : ... .. 6 ... ... ... : F-2 00 . P8D : ... .. 3 ... : ... .. . ... ... : ... .. 3 ... ... : ... .. 3 ... ... : ... .. . ... ...
ROW 84 : ... .. . ... ... ... : A-2 00 5 ... ... ... : E-2 00 . P81 : ... .. 2 ... : ... .. . ... ... : ... .. 2 ... ... : ... .. 2 ... ... : ... .. . ... ...
ROW 85 : ... .. . ... ... ... : ... .. 4 ... ... ... : D#2 00 . P77 : ... .. 0 ... : ... .. . ... ... : ... .. . ... ... : ... .. . ... ... : ... .. . ... ...
ROW 86 : ... .. . ... ... ... : ... .. . ... ... ... : --- .. . ... : ... .. . ... : ... .. . ... ... : ... .. 1 ... ... : ... .. 1 ... ... : --- .. . ... ...
ROW 87 : ... .. . ... ... ... : ... .. . ... ... ... : ... .. . ... : ... .. . ... : ... .. . ... ... : ... .. . ... ... : ... .. . ... ... : ... .. . ... ...
ROW 88 : ... .. . ... ... ... : A-4 00 8 ... ... ... : E-3 00 . P80 : E-# 00 A ... : ... .. . ... ... : ... .. 5 ... ... : ... .. 5 ... ... : E-1 01 F ... ...
ROW 89 : ... .. . ... ... ... : ... .. 7 ... ... ... : ... .. . ... : ... .. 8 ... : ... .. . ... ... : ... .. 4 ... ... : ... .. 4 ... ... : ... .. D ... ...
ROW 8A : ... .. . ... ... ... : ... .. . ... ... ... : ... .. . ... : ... .. 4 ... : ... .. . ... ... : ... .. . ... ... : ... .. . ... ... : ... .. 8 ... ...
ROW 8B : ... .. . ... ... ... : ... .. 6 ... ... ... : ... .. . ... : ... .. 2 ... : ... .. . ... ... : ... .. 3 ... ... : ... .. 3 ... ... : ... .. . ... ...
ROW 8C : ... .. . ... ... ... : C#5 00 5 ... ... ... : ... .. . ... : ... .. 1 ... : ... .. . ... ... : ... .. 2 ... ... : ... .. 2 ... ... : ... .. . ... ...
ROW 8D : ... .. . ... ... ... : ... .. 4 ... ... ... : ... .. . ... : ... .. 0 ... : ... .. . ... ... : ... .. . ... ... : ... .. . ... ... : ... .. . ... ...
ROW 8E : ... .. . ... ... ... : ... .. . ... ... ... : ... .. . ... : ... .. . ... : ... .. . ... ... : ... .. 1 ... ... : ... .. 1 ... ... : ... .. . ... ...
ROW 8F : ... .. . ... ... ... : ... .. . ... ... ... : ... .. . ... : ... .. . ... : ... .. . ... ... : ... .. . ... ... : ... .. . ... ... : ... .. . ... ...
ROW 90 : ... .. . ... ... ... : E-4 00 8 ... ... ... : ... .. . ... : ... .. F ... : ... .. . ... ... : ... .. 5 ... ... : ... .. 5 ... ... : ... .. . ... ...
ROW 91 : ... .. . ... ... ... : ... .. 7 ... ... ... : ... .. . ... : ... .. C ... : ... .. . ... ... : ... .. 4 ... ... : ... .. 4 ... ... : ... .. . ... ...
ROW 92 : ... .. . ... ... ... : ... .. . ... ... ... : ... .. . ... : ... .. 6 ... : ... .. . ... ... : ... .. . ... ... : ... .. . ... ... : ... .. . ... ...
ROW 93 : ... .. . ... ... ... : ... .. 6 ... ... ... : ... .. . ... : ... .. 3 ... : ... .. . ... ... : ... .. 3 ... ... : ... .. 3 ... ... : ... .. . ... ...
ROW 94 : ... .. . ... ... ... : A-4 00 5 ... ... ... : ... .. . ... : ... .. 2 ... : ... .. . ... ... : ... .. 2 ... ... : ... .. 2 ... ... : ... .. . ... ...
ROW 95 : ... .. 2 ... ... ... : ... .. 4 ... ... ... : ... .. . ... : ... .. 0 ... : ... .. . ... ... : ... .. . ... ... : ... .. . ... ... : ... .. . ... ...
ROW 96 : ... .. . ... ... ... : ... .. . ... ... ... : --- .. . ... : ... .. . ... : ... .. . ... ... : ... .. 1 ... ... : ... .. 1 ... ... : --- .. . P82 ...
ROW 97 : ... .. . ... ... ... : ... .. . ... ... ... : ... .. . ... : ... .. . ... : ... .. . ... ... : ... .. . ... ... : ... .. . ... ... : ... .. . ... ...
ROW 98 : A-3 00 F ... ... ... : C#4 00 8 ... ... ... : C#4 00 . ... : 1-# 00 F ... : ... .. . ... ... : ... .. 5 ... ... : ... .. 5 ... ... : C#2 01 F P80 ...
ROW 99 : ... .. E ... ... ... : ... .. 7 ... ... ... : ... .. . ... : ... .. C ... : ... .. . ... ... : ... .. 4 ... ... : ... .. 4 ... ... : ... .. D ... ...
ROW 9A : ... .. D ... ... ... : ... .. . ... ... ... : ... .. . ... : ... .. 6 ... : ... .. . ... ... : ... .. . ... ... : ... .. . ... ... : ... .. 8 ... ...
ROW 9B : ... .. A ... ... ... : ... .. 6 ... ... ... : ... .. . ... : ... .. 3 ... : ... .. . ... ... : ... .. 3 ... ... : ... .. 3 ... ... : ... .. . ... ...
ROW 9C : ... .. . ... ... ... : E-4 00 5 ... ... ... : ... .. . ... : ... .. 2 ... : ... .. . ... ... : ... .. 2 ... ... : ... .. 2 ... ... : ... .. . ... ...
ROW 9D : ... .. . ... ... ... : ... .. 4 ... ... ... : ... .. . ... : ... .. 0 ... : ... .. . ... ... : ... .. . ... ... : ... .. . ... ... : ... .. . ... ...
ROW 9E : ... .. . ... ... ... : ... .. . ... ... ... : ... .. . ... : ... .. . ... : ... .. . ... ... : ... .. 1 ... ... : ... .. 1 ... ... : ... .. . ... ...
ROW 9F : ... .. . ... ... ... : ... .. . ... ... ... : ... .. . ... : ... .. . ... : ... .. . ... ... : ... .. . ... ... : ... .. . ... ... : ... .. . ... ...
ROW A0 : ... .. . ... ... ... : A-3 00 8 ... ... ... : B-3 00 . P7D : 5-# 00 D ... : ... .. . ... ... : C#3 01 5 ... ... : C#4 01 5 ... ... : ... .. . ... ...
ROW A1 : ... .. . ... ... ... : ... .. 7 ... ... ... : A#3 00 . P7C : ... .. . ... : ... .. . ... ... : ... .. 4 ... ... : ... .. 4 ... ... : ... .. . ... ...
ROW A2 : ... .. . ... ... ... : ... .. . ... ... ... : A-3 00 . P7B : 1-# 00 D ... : ... .. . ... ... : ... .. . ... ... : ... .. . ... ... : ... .. . ... ...
ROW A3 : ... .. . ... ... ... : ... .. 6 ... ... ... : G#3 00 . ... : F-# 00 6 ... : ... .. . ... ... : ... .. 3 ... ... : ... .. 3 ... ... : ... .. . ... ...
ROW A4 : ... .. . ... ... ... : C#4 00 5 ... ... ... : G-3 00 . P7C : B-# 00 1 ... : ... .. . ... ... : ... .. 2 ... ... : ... .. 2 ... ... : ... .. . ... ...
ROW A5 : ... .. . ... ... ... : ... .. 4 ... ... ... : F#3 00 . P7E : ... .. 0 ... : ... .. . ... ... : ... .. . ... ... : ... .. . ... ... : ... .. . ... ...
ROW A6 : ... .. . ... ... ... : ... .. . ... ... ... : --- .. . ... : ... .. . ... : ... .. . ... ... : ... .. 1 ... ... : ... .. 1 ... ... : --- .. . ... ...
ROW A7 : ... .. . ... ... ... : ... .. . ... ... ... : ... .. . ... : ... .. . ... : ... .. . ... ... : ... .. . ... ... : ... .. . ... ... : ... .. . ... ...
ROW A8 : ... .. . ... ... ... : E-3 00 8 ... ... ... : A-2 00 . P80 : E-# 00 A ... : ... .. . ... ... : ... .. 5 ... ... : ... .. 5 ... ... : A-0 01 F ... ...
ROW A9 : ... .. . ... ... ... : ... .. 7 ... ... ... : ... .. . ... : ... .. 8 ... : ... .. . ... ... : ... .. 4 ... ... : ... .. 4 ... ... : ... .. D ... ...
ROW AA : ... .. . ... ... ... : ... .. . ... ... ... : ... .. . ... : ... .. 4 ... : ... .. . ... ... : ... .. . ... ... : ... .. . ... ... : ... .. 8 ... ...
ROW AB : ... .. . ... ... ... : ... .. 6 ... ... ... : ... .. . ... : ... .. 2 ... : ... .. . ... ... : ... .. 3 ... ... : ... .. 3 ... ... : ... .. . ... ...
ROW AC : ... .. . ... ... ... : A-3 00 5 ... ... ... : ... .. . ... : ... .. 1 ... : ... .. . ... ... : ... .. 2 ... ... : ... .. 2 ... ... : ... .. . ... ...
ROW AD : ... .. 2 ... ... ... : ... .. 4 ... ... ... : ... .. . ... : ... .. 0 ... : ... .. . ... ... : ... .. . ... ... : ... .. . ... ... : ... .. . ... ...
ROW AE : ... .. . ... ... ... : ... .. . ... ... ... : --- .. . ... : ... .. . ... : ... .. . ... ... : ... .. 1 ... ... : ... .. 1 ... ... : --- .. . ... ...
ROW AF : ... .. . ... ... ... : ... .. . ... ... ... : ... .. . ... : ... .. . ... : ... .. . ... ... : ... .. . ... ... : ... .. . ... ... : ... .. . ... ...
ROW B0 : D#4 00 F ... ... ... : C#3 00 8 ... ... ... : E-3 00 . ... : ... .. F ... : ... .. . ... ... : ... .. 5 ... ... : ... .. 5 ... ... : E-1 01 F ... ...
ROW B1 : ... .. E ... ... ... : ... .. 7 ... ... ... : ... .. . ... : ... .. C ... : ... .. . ... ... : ... .. 4 ... ... : ... .. 4 ... ... : ... .. D ... ...
ROW B2 : ... .. D ... ... ... : ... .. . ... ... ... : ... .. . ... : ... .. 6 ... : ... .. . ... ... : ... .. . ... ... : ... .. . ... ... : ... .. 8 ... ...
ROW B3 : ... .. A ... ... ... : ... .. 6 ... ... ... : ... .. . ... : ... .. 3 ... : ... .. . ... ... : ... .. 3 ... ... : ... .. 3 ... ... : ... .. . ... ...
ROW B4 : ... .. . ... ... ... : E-3 00 5 ... ... ... : ... .. . ... : ... .. 2 ... : ... .. . ... ... : ... .. 2 ... ... : ... .. 2 ... ... : ... .. . ... ...
ROW B5 : E-4 00 A P7F ... ... : ... .. 4 ... ... ... : ... .. . ... : ... .. 0 ... : ... .. . ... ... : ... .. . ... ... : ... .. . ... ... : ... .. . ... ...
ROW B6 : ... .. . P80 ... ... : ... .. . ... ... ... : --- .. . ... : ... .. . ... : ... .. . ... ... : ... .. 1 ... ... : ... .. 1 ... ... : --- .. . P82 ...
ROW B7 : ... .. . ... ... ... : ... .. . ... ... ... : ... .. . ... : ... .. . ... : ... .. . ... ... : ... .. . ... ... : ... .. . ... ... : ... .. . ... ...
ROW B8 : ... .. . ... ... ... : A-2 00 8 ... ... ... : A-3 00 . ... : F-# 00 F ... : ... .. . ... ... : ... .. 5 ... ... : ... .. 5 ... ... : A-1 01 F P80 ...
ROW B9 : ... .. . ... ... ... : ... .. 7 ... ... ... : ... .. . ... : ... .. C ... : ... .. . ... ... : ... .. 4 ... ... : ... .. 4 ... ... : ... .. D ... ...
ROW BA : ... .. . ... ... ... : ... .. . ... ... ... : ... .. . ... : ... .. 6 ... : ... .. . ... ... : ... .. . ... ... : ... .. . ... ... : ... .. 8 ... ...
ROW BB : ... .. . ... ... ... : ... .. 6 ... ... ... : ... .. . ... : ... .. 3 ... : ... .. . ... ... : ... .. 3 ... ... : ... .. 3 ... ... : ... .. . ... ...
ROW BC : ... .. . ... ... ... : C#3 00 5 ... ... ... : ... .. . ... : ... .. F ... : ... .. . ... ... : ... .. 2 ... ... : ... .. 2 ... ... : ... .. . ... ...
ROW BD : ... .. . ... ... ... : ... .. 4 ... ... ... : ... .. . ... : ... .. C ... : ... .. . ... ... : ... .. . ... ... : ... .. . ... ... : ... .. . ... ...
ROW BE : ... .. . ... ... ... : ... .. . ... ... ... : --- .. . ... : ... .. 6 ... : ... .. . ... ... : ... .. 1 ... ... : ... .. 1 ... ... : --- .. . P7F ...
ROW BF : ... .. . ... ... ... : ... .. . ... ... ... : ... .. . ... : ... .. 3 ... : ... .. . ... ... : ... .. . ... ... : ... .. . ... ... : ... .. . ... ...
ROW C0 : D#4 00 F ... ... ... : A#2 00 8 ... ... ... : A#2 00 . P82 : 1-# 00 F ... : ... .. . ... ... : A#2 01 5 ... ... : D#4 01 5 ... ... : D#1 01 F P80 ...
ROW C1 : ... .. E ... ... ... : ... .. 7 ... ... ... : G#2 00 . P8B : ... .. C ... : ... .. . ... ... : ... .. 4 ... ... : ... .. 4 ... ... : ... .. D ... ...
ROW C2 : ... .. D ... ... ... : ... .. . ... ... ... : G-2 00 . P79 : ... .. 6 ... : ... .. . ... ... : ... .. . ... ... : ... .. . ... ... : ... .. 8 ... ...
ROW C3 : ... .. A ... ... ... : ... .. 6 ... ... ... : F-2 00 . P8D : ... .. 3 ... : ... .. . ... ... : ... .. 3 ... ... : ... .. 3 ... ... : ... .. . ... ...
ROW C4 : ... .. . ... ... ... : A-2 00 5 ... ... ... : E-2 00 . P81 : ... .. 2 ... : ... .. . ... ... : ... .. 2 ... ... : ... .. 2 ... ... : ... .. . ... ...
ROW C5 : ... .. . ... ... ... : ... .. 4 ... ... ... : D#2 00 . P77 : ... .. 0 ... : ... .. . ... ... : ... .. . ... ... : ... .. . ... ... : ... .. . ... ...
ROW C6 : ... .. . ... ... ... : ... .. . ... ... ... : --- .. . ... : ... .. . ... : ... .. . ... ... : ... .. 1 ... ... : ... .. 1 ... ... : --- .. . P81 ...
ROW C7 : ... .. . ... ... ... : ... .. . ... ... ... : ... .. . ... : ... .. . ... : ... .. . ... ... : ... .. . ... ... : ... .. . ... ... : ... .. . ... ...
ROW C8 : ... .. . ... ... ... : C#3 00 8 ... ... ... : D#2 00 . P80 : E-# 00 A ... : ... .. . ... ... : ... .. 5 ... ... : ... .. 5 ... ... : D#0 01 F P80 ...
ROW C9 : ... .. . ... ... ... : ... .. 7 ... ... ... : ... .. . ... : ... .. 8 ... : ... .. . ... ... : ... .. 4 ... ... : ... .. 4 ... ... : ... .. D ... ...
ROW CA : ... .. . ... ... ... : ... .. . ... ... ... : ... .. . ... : ... .. 4 ... : ... .. . ... ... : ... .. . ... ... : ... .. . ... ... : ... .. 8 ... ...
ROW CB : ... .. . ... ... ... : ... .. 6 ... ... ... : ... .. . ... : ... .. 2 ... : ... .. . ... ... : ... .. 3 ... ... : ... .. 3 ... ... : ... .. . ... ...
ROW CC : ... .. . ... ... ... : A#2 00 5 ... ... ... : ... .. . ... : ... .. 1 ... : ... .. . ... ... : ... .. 2 ... ... : ... .. 2 ... ... : ... .. . ... ...
ROW CD : ... .. . ... ... ... : ... .. 4 ... ... ... : ... .. . ... : ... .. 0 ... : ... .. . ... ... : ... .. . ... ... : ... .. . ... ... : ... .. . ... ...
ROW CE : ... .. . ... ... ... : ... .. . ... ... ... : ... .. . ... : ... .. . ... : ... .. . ... ... : ... .. 1 ... ... : ... .. 1 ... ... : ... .. . ... ...
ROW CF : ... .. . ... ... ... : ... .. . ... ... ... : ... .. . ... : ... .. . ... : ... .. . ... ... : ... .. . ... ... : ... .. . ... ... : ... .. . ... ...
ROW D0 : ... .. . ... ... ... : D#3 00 8 ... ... ... : ... .. . ... : 1-# 00 F ... : ... .. . ... ... : ... .. 5 ... ... : ... .. 5 ... ... : ... .. . ... ...
ROW D1 : ... .. . ... ... ... : ... .. 7 ... ... ... : ... .. . ... : ... .. C ... : ... .. . ... ... : ... .. 4 ... ... : ... .. 4 ... ... : ... .. . ... ...
ROW D2 : ... .. . ... ... ... : ... .. . ... ... ... : ... .. . ... : ... .. 6 ... : ... .. . ... ... : ... .. . ... ... : ... .. . ... ... : ... .. . ... ...
ROW D3 : ... .. . ... ... ... : ... .. 6 ... ... ... : ... .. . ... : ... .. 3 ... : ... .. . ... ... : ... .. 3 ... ... : ... .. 3 ... ... : ... .. . ... ...
ROW D4 : ... .. . ... ... ... : C#3 00 5 ... ... ... : ... .. . ... : ... .. 2 ... : ... .. . ... ... : ... .. 2 ... ... : ... .. 2 ... ... : ... .. . ... ...
ROW D5 : ... .. . ... ... ... : ... .. 4 ... ... ... : ... .. . ... : ... .. 0 ... : ... .. . ... ... : ... .. . ... ... : ... .. . ... ... : ... .. . ... ...
ROW D6 : ... .. . ... ... ... : ... .. . ... ... ... : --- .. . ... : ... .. . ... : ... .. . ... ... : ... .. 1 ... ... : ... .. 1 ... ... : --- .. . P83 ...
ROW D7 : ... .. . ... ... ... : ... .. . ... ... ... : ... .. . ... : ... .. . ... : ... .. . ... ... : ... .. . ... ... : ... .. . ... ... : ... .. . ... ...
ROW D8 : ... .. . ... ... ... : G-3 00 8 ... ... ... : D#2 00 . ... : E-# 00 A ... : ... .. . ... ... : ... .. 5 ... ... : ... .. 5 ... ... : D#0 01 F P80 ...
ROW D9 : ... .. . ... ... ... : ... .. 7 ... ... ... : ... .. . ... : ... .. 8 ... : ... .. . ... ... : ... .. 4 ... ... : ... .. 4 ... ... : ... .. D ... ...
ROW DA : ... .. . ... ... ... : ... .. . ... ... ... : ... .. . ... : ... .. 4 ... : ... .. . ... ... : ... .. . ... ... : ... .. . ... ... : ... .. 8 ... ...
ROW DB : ... .. . ... ... ... : ... .. 6 ... ... ... : ... .. . ... : ... .. 2 ... : ... .. . ... ... : ... .. 3 ... ... : ... .. 3 ... ... : ... .. . ... ...
ROW DC : ... .. . ... ... ... : D#3 00 5 ... ... ... : ... .. . ... : ... .. 1 ... : ... .. . ... ... : ... .. 2 ... ... : ... .. 2 ... ... : ... .. . ... ...
ROW DD : ... .. . ... ... ... : ... .. 4 ... ... ... : ... .. . ... : ... .. 0 ... : ... .. . ... ... : ... .. . ... ... : ... .. . ... ... : ... .. . ... ...
ROW DE : ... .. . ... ... ... : ... .. . ... ... ... : ... .. . ... : ... .. . ... : ... .. . ... ... : ... .. 1 ... ... : ... .. 1 ... ... : ... .. . ... ...
ROW DF : ... .. . ... ... ... : ... .. . ... ... ... : ... .. . ... : ... .. . ... : ... .. . ... ... : ... .. . ... ... : ... .. . ... ... : ... .. . ... ...
ROW E0 : ... .. . ... ... ... : A#3 00 8 ... ... ... : B-3 00 . P7D : 5-# 00 D ... : ... .. . ... ... : ... .. 5 ... ... : ... .. 5 ... ... : ... .. . ... ...
ROW E1 : ... .. . ... ... ... : ... .. 7 ... ... ... : A#3 00 . P7C : ... .. . ... : ... .. . ... ... : ... .. 4 ... ... : ... .. 4 ... ... : ... .. . ... ...
ROW E2 : ... .. . ... ... ... : ... .. . ... ... ... : A-3 00 . P7B : 1-# 00 D ... : ... .. . ... ... : ... .. . ... ... : ... .. . ... ... : ... .. . ... ...
ROW E3 : ... .. . ... ... ... : ... .. 6 ... ... ... : G#3 00 . ... : F-# 00 6 ... : ... .. . ... ... : ... .. 3 ... ... : ... .. 3 ... ... : ... .. . ... ...
ROW E4 : ... .. . ... ... ... : G-3 00 5 ... ... ... : G-3 00 . P7C : B-# 00 1 ... : ... .. . ... ... : ... .. 2 ... ... : ... .. 2 ... ... : ... .. . ... ...
ROW E5 : ... .. . ... ... ... : ... .. 4 ... ... ... : F#3 00 . P7E : ... .. 0 ... : ... .. . ... ... : ... .. . ... ... : ... .. . ... ... : ... .. . ... ...
ROW E6 : ... .. . ... ... ... : ... .. . ... ... ... : --- .. . ... : ... .. . ... : ... .. . ... ... : ... .. 1 ... ... : ... .. 1 ... ... : --- .. . P83 ...
ROW E7 : ... .. . ... ... ... : ... .. . ... ... ... : ... .. . ... : ... .. . ... : ... .. . ... ... : ... .. . ... ... : ... .. . ... ... : ... .. . ... ...
ROW E8 : ... .. . ... ... ... : C#4 00 8 ... ... ... : D#2 00 . P80 : E-# 00 A ... : ... .. . ... ... : ... .. 5 ... ... : ... .. 5 ... ... : D#0 01 F P80 ...
ROW E9 : ... .. . ... ... ... : ... .. 7 ... ... ... : ... .. . ... : ... .. 8 ... : ... .. . ... ... : ... .. 4 ... ... : ... .. 4 ... ... : ... .. D ... ...
ROW EA : ... .. . ... ... ... : ... .. . ... ... ... : ... .. . ... : ... .. 4 ... : ... .. . ... ... : ... .. . ... ... : ... .. . ... ... : ... .. 8 ... ...
ROW EB : ... .. . ... ... ... : ... .. 6 ... ... ... : ... .. . ... : ... .. 2 ... : ... .. . ... ... : ... .. 3 ... ... : ... .. 3 ... ... : ... .. . ... ...
ROW EC : ... .. . ... ... ... : A#3 00 5 ... ... ... : ... .. . ... : ... .. 1 ... : ... .. . ... ... : ... .. 2 ... ... : ... .. 2 ... ... : ... .. . ... ...
ROW ED : ... .. . ... ... ... : ... .. 4 ... ... ... : ... .. . ... : ... .. 0 ... : ... .. . ... ... : ... .. . ... ... : ... .. . ... ... : ... .. . ... ...
ROW EE : ... .. . ... ... ... : ... .. . ... ... ... : --- .. . ... : ... .. . ... : ... .. . ... ... : ... .. 1 ... ... : ... .. 1 ... ... : --- .. . P83 ...
ROW EF : ... .. . ... ... ... : ... .. . ... ... ... : ... .. . ... : ... .. . ... : ... .. . ... ... : ... .. . ... ... : ... .. . ... ... : ... .. . ... ...
ROW F0 : ... .. . P84 ... ... : D#4 00 8 ... ... ... : A#2 00 . ... : ... .. F ... : ... .. . ... ... : ... .. 5 ... ... : ... .. 5 ... ... : A#0 01 F P80 ...
ROW F1 : E-4 00 A P7C ... ... : ... .. 7 ... ... ... : ... .. . ... : ... .. C ... : ... .. . ... ... : ... .. 4 ... ... : ... .. 4 ... ... : ... .. D ... ...
ROW F2 : D#4 00 A P85 ... ... : ... .. . ... ... ... : ... .. . ... : ... .. 6 ... : ... .. . ... ... : ... .. . ... ... : ... .. . ... ... : ... .. 8 ... ...
ROW F3 : ... .. . P82 ... ... : ... .. 6 ... ... ... : ... .. . ... : ... .. 3 ... : ... .. . ... ... : ... .. 3 ... ... : ... .. 3 ... ... : ... .. . ... ...
ROW F4 : ... .. . P7E ... ... : C#4 00 5 ... ... ... : ... .. . ... : ... .. 2 ... : ... .. . ... ... : ... .. 2 ... ... : ... .. 2 ... ... : ... .. . ... ...
ROW F5 : D-4 00 A P85 ... ... : ... .. 4 ... ... ... : ... .. . ... : ... .. 0 ... : ... .. . ... ... : ... .. . ... ... : ... .. . ... ... : ... .. . ... ...
ROW F6 : ... .. . P84 ... ... : ... .. . ... ... ... : --- .. . ... : ... .. . ... : ... .. . ... ... : ... .. 1 ... ... : ... .. 1 ... ... : --- .. . P7F ...
ROW F7 : D#4 00 A P7C ... ... : ... .. . ... ... ... : ... .. . ... : ... .. . ... : ... .. . ... ... : ... .. . ... ... : ... .. . ... ... : ... .. . ... ...
ROW F8 : ... .. . P80 ... ... : G-4 00 8 ... ... ... : D#3 00 . ... : D-# 00 A ... : ... .. . ... ... : ... .. 5 ... ... : ... .. 5 ... ... : D#1 01 F P80 ...
ROW F9 : ... .. . P83 ... ... : ... .. 7 ... ... ... : ... .. . ... : ... .. . ... : ... .. . ... ... : ... .. 4 ... ... : ... .. 4 ... ... : ... .. D ... ...
ROW FA : E-4 00 A P7C ... ... : ... .. . ... ... ... : ... .. . ... : ... .. . ... : ... .. . ... ... : ... .. . ... ... : ... .. . ... ... : ... .. 8 ... ...
ROW FB : ... .. . ... ... ... : ... .. 6 ... ... ... : ... .. . ... : ... .. . ... : ... .. . ... ... : ... .. 3 ... ... : ... .. 3 ... ... : ... .. . ... ...
ROW FC : D#4 00 A P82 ... ... : D#4 00 5 ... ... ... : ... .. . ... : ... .. . ... : ... .. . ... ... : ... .. 2 ... ... : ... .. 2 ... ... : ... .. . ... ...
ROW FD : ... .. . P7F ... ... : ... .. 4 ... ... ... : ... .. . ... : ... .. . ... : ... .. . ... ... : ... .. . ... ... : ... .. . ... ... : ... .. . ... ...
ROW FE : D-4 00 A P85 ... ... : ... .. . ... ... ... : --- .. . ... : ... .. . ... : ... .. . ... ... : ... .. 1 ... ... : ... .. 1 ... ... : --- .. . P81 ...
ROW FF : ... .. . P84 ... ... : ... .. . ... ... ... : ... .. . ... : ... .. . ... : ... .. . ... ... : ... .. . ... ... : ... .. . ... ... : ... .. . ... ...

PATTERN 0E
ROW 00 : D#4 00 A P7C ... ... : C-3 00 8 ... ... ... : A#2 00 . P82 : 1-# 00 F ... : ... .. . ... ... : G#2 01 5 ... ... : C-4 01 5 ... ... : G#1 01 F P80 ...
ROW 01 : ... .. . P80 ... ... : ... .. 7 ... ... ... : G#2 00 . P8B : ... .. C ... : ... .. . ... ... : ... .. 4 ... ... : ... .. 4 ... ... : ... .. D ... ...
ROW 02 : ... .. . P83 ... ... : ... .. . ... ... ... : G-2 00 . P79 : ... .. 6 ... : ... .. . ... ... : ... .. . ... ... : ... .. . ... ... : ... .. 8 ... ...
ROW 03 : E-4 00 A P7C ... ... : ... .. 6 ... ... ... : F-2 00 . P8D : ... .. 3 ... : ... .. . ... ... : ... .. 3 ... ... : ... .. 3 ... ... : ... .. . ... ...
ROW 04 : ... .. . ... ... ... : G-4 00 5 ... ... ... : E-2 00 . P81 : ... .. 2 ... : ... .. . ... ... : ... .. 2 ... ... : ... .. 2 ... ... : ... .. . ... ...
ROW 05 : D#4 00 A P83 ... ... : ... .. 4 ... ... ... : D#2 00 . P77 : ... .. 0 ... : ... .. . ... ... : ... .. . ... ... : ... .. . ... ... : ... .. . ... ...
ROW 06 : ... .. . P80 ... ... : ... .. . ... ... ... : --- .. . ... : ... .. . ... : ... .. . ... ... : ... .. 1 ... ... : ... .. 1 ... ... : --- .. . P7E ...
ROW 07 : ... .. . P7C ... ... : ... .. . ... ... ... : ... .. . ... : ... .. . ... : ... .. . ... ... : ... .. . ... ... : ... .. . ... ... : ... .. . ... ...
ROW 08 : D-4 00 A P84 ... ... : D#3 00 8 ... ... ... : A#4 00 . P7E : 7-# 00 F ... : ... .. . ... ... : ... .. 5 ... ... : ... .. 5 ... ... : G#0 01 F P80 ...
ROW 09 : ... .. . P85 ... ... : ... .. 7 ... ... ... : G#4 00 . ... : ... .. C ... : ... .. . ... ... : ... .. 4 ... ... : ... .. 4 ... ... : ... .. D ... ...
ROW 0A : D#4 00 A P7F ... ... : ... .. . ... ... ... : F#4 00 . P7F : ... .. 6 ... : ... .. . ... ... : ... .. . ... ... : ... .. . ... ... : ... .. 8 ... ...
ROW 0B : ... .. . P82 ... ... : ... .. 6 ... ... ... : E-4 00 . P83 : ... .. 3 ... : ... .. . ... ... : ... .. 3 ... ... : ... .. 3 ... ... : ... .. . ... ...
ROW 0C : E-4 00 A P7C ... ... : C-3 00 5 ... ... ... : D#4 00 . P7E : ... .. F ... : ... .. . ... ... : ... .. 2 ... ... : ... .. 2 ... ... : ... .. . ... ...
ROW 0D : ... .. . ... ... ... : ... .. 4 ... ... ... : C#4 00 . P85 : ... .. C ... : ... .. . ... ... : ... .. . ... ... : ... .. . ... ... : ... .. . ... ...
ROW 0E : D#4 00 A P83 ... ... : ... .. . ... ... ... : C-4 00 . P82 : ... .. 6 ... : ... .. . ... ... : ... .. 1 ... ... : ... .. 1 ... ... : ... .. . ... ...
ROW 0F : ... .. . P80 ... ... : ... .. . ... ... ... : B-3 00 . P7F : ... .. 3 ... : ... .. . ... ... : ... .. . ... ... : ... .. . ... ... : ... .. . ... ...
ROW 10 : ... .. . P7C ... ... : F#3 00 8 ... ... ... : A#3 00 . P7E : 5-# 00 F ... : ... .. . ... ... : C-3 01 5 ... ... : D#4 01 5 ... ... : ... .. . ... ...
ROW 11 : D-4 00 A P84 ... ... : ... .. 7 ... ... ... : A-3 00 . P7D : ... .. C ... : ... .. . ... ... : ... .. 4 ... ... : ... .. 4 ... ... : ... .. . ... ...
ROW 12 : ... .. . P85 ... ... : ... .. . ... ... ... : G#3 00 . ... : ... .. 6 ... : ... .. . ... ... : ... .. . ... ... : ... .. . ... ... : ... .. . ... ...
ROW 13 : D#4 00 A P7E ... ... : ... .. 6 ... ... ... : G-3 00 . P7E : ... .. 3 ... : ... .. . ... ... : ... .. 3 ... ... : ... .. 3 ... ... : ... .. . ... ...
ROW 14 : ... .. . P82 ... ... : D#3 00 5 ... ... ... : F#3 00 . P80 : ... .. F ... : ... .. . ... ... : ... .. 2 ... ... : ... .. 2 ... ... : ... .. . ... ...
ROW 15 : ... .. . P85 ... ... : ... .. 4 ... ... ... : F-3 00 . P83 : ... .. C ... : ... .. . ... ... : ... .. . ... ... : ... .. . ... ... : ... .. . ... ...
ROW 16 : E-4 00 A P7C ... ... : ... .. . ... ... ... : E-3 00 . P87 : ... .. 6 ... : ... .. . ... ... : ... .. 1 ... ... : ... .. 1 ... ... : --- .. . P84 ...
ROW 17 : D#4 00 A P84 ... ... : ... .. . ... ... ... : ... .. . P78 : ... .. 3 ... : ... .. . ... ... : ... .. . ... ... : ... .. . ... ... : ... .. . ... ...
ROW 18 : ... .. . P80 ... ... : G#3 00 8 ... ... ... : F-4 00 . P82 : B-# 00 F ... : ... .. . ... ... : ... .. 5 ... ... : ... .. 5 ... ... : G#0 01 F P80 ...
ROW 19 : ... .. . P7D ... ... : ... .. 7 ... ... ... : E-4 00 . P7D : ... .. C ... : ... .. . ... ... : ... .. 4 ... ... : ... .. 4 ... ... : ... .. D ... ...
ROW 1A : D-4 00 A P84 ... ... : ... .. . ... ... ... : D-4 00 . P82 : ... .. 6 ... : ... .. . ... ... : ... .. . ... ... : ... .. . ... ... : ... .. 8 ... ...
ROW 1B : ... .. . ... ... ... : ... .. 6 ... ... ... : C#4 00 . P7F : ... .. 3 ... : ... .. . ... ... : ... .. 3 ... ... : ... .. 3 ... ... : ... .. . ... ...
ROW 1C : D#4 00 A P7E ... ... : F#3 00 5 ... ... ... : C-4 00 . P7C : ... .. 2 ... : ... .. . ... ... : ... .. 2 ... ... : ... .. 2 ... ... : ... .. . ... ...
ROW 1D : ... .. . P81 ... ... : ... .. 4 ... ... ... : A#3 00 . P87 : ... .. 0 ... : ... .. . ... ... : ... .. . ... ... : ... .. . ... ... : ... .. . ... ...
ROW 1E : ... .. . P85 ... ... : ... .. . ... ... ... : A-3 00 . P86 : ... .. . ... : ... .. . ... ... : ... .. 1 ... ... : ... .. 1 ... ... : --- .. . P84 ...
ROW 1F : E-4 00 A P7C ... ... : ... .. . ... ... ... : G#3 00 . ... : ... .. . ... : ... .. . ... ... : ... .. . ... ... : ... .. . ... ... : ... .. . ... ...
ROW 20 : D#4 00 A P84 ... ... : C-4 00 8 ... ... ... : G-3 00 . P87 : 5-# 00 F ... : ... .. . ... ... : D#3 01 5 ... ... : F#4 01 5 ... ... : C-1 01 F P80 ...
ROW 21 : ... .. 2 P80 ... ... : ... .. 7 ... ... ... : ... .. . P78 : ... .. C ... : ... .. . ... ... : ... .. 4 ... ... : ... .. 4 ... ... : ... .. D ... ...
ROW 22 : ... .. . P7D ... ... : ... .. . ... ... ... : F#3 00 . P7A : ... .. 6 ... : ... .. . ... ... : ... .. . ... ... : ... .. . ... ... : ... .. 8 ... ...
ROW 23 : D-4 00 2 P84 ... ... : ... .. 6 ... ... ... : F-3 00 . P7D : ... .. 3 ... : ... .. . ... ... : ... .. 3 ... ... : ... .. 3 ... ... : ... .. . ... ...
ROW 24 : ... .. 1 ... ... ... : G#3 00 5 ... ... ... : E-3 00 . P81 : ... .. F ... : ... .. . ... ... : ... .. 2 ... ... : ... .. 2 ... ... : ... .. . ... ...
ROW 25 : D#4 00 1 P7D ... ... : ... .. 4 ... ... ... : D#3 00 . P87 : ... .. C ... : ... .. . ... ... : ... .. . ... ... : ... .. . ... ... : ... .. . ... ...
ROW 26 : ... .. . P80 ... ... : ... .. . ... ... ... : ... .. . P78 : ... .. 6 ... : ... .. . ... ... : ... .. 1 ... ... : ... .. 1 ... ... : --- .. . ... ...
ROW 27 : ... .. 0 ... ... ... : ... .. . ... ... ... : D-3 00 . P7E : ... .. 3 ... : ... .. . ... ... : ... .. . ... ... : ... .. . ... ... : ... .. . ... ...
ROW 28 : G#3 00 F P80 ... ... : D#4 00 8 ... ... ... : F-4 00 . P82 : ... .. F ... : ... .. . ... ... : ... .. 5 ... ... : ... .. 5 ... ... : D#1 01 F ... ...
ROW 29 : ... .. E ... ... ... : ... .. 7 ... ... ... : E-4 00 . P7D : ... .. C ... : ... .. . ... ... : ... .. 4 ... ... : ... .. 4 ... ... : ... .. D ... ...
ROW 2A : ... .. D ... ... ... : ... .. . ... ... ... : D-4 00 . P82 : ... .. 6 ... : ... .. . ... ... : ... .. . ... ... : ... .. . ... ... : ... .. 8 ... ...
ROW 2B : ... .. A ... ... ... : ... .. 6 ... ... ... : C#4 00 . P7F : ... .. 3 ... : ... .. . ... ... : ... .. 3 ... ... : ... .. 3 ... ... : ... .. . ... ...
ROW 2C : ... .. . ... ... ... : C-4 00 5 ... ... ... : C-4 00 . P7C : ... .. 2 ... : ... .. . ... ... : ... .. 2 ... ... : ... .. 2 ... ... : ... .. . ... ...
ROW 2D : ... .. 2 ... ... ... : ... .. 4 ... ... ... : A#3 00 . P87 : ... .. 0 ... : ... .. . ... ... : ... .. . ... ... : ... .. . ... ... : ... .. . ... ...
ROW 2E : ... .. . ... ... ... : ... .. . ... ... ... : A-3 00 . P86 : ... .. . ... : ... .. . ... ... : ... .. 1 ... ... : ... .. 1 ... ... : --- .. . P81 ...
ROW 2F : ... .. . ... ... ... : ... .. . ... ... ... : G#3 00 . ... : ... .. . ... : ... .. . ... ... : ... .. . ... ... : ... .. . ... ... : ... .. . ... ...
ROW 30 : C#4 00 F ... ... ... : F#4 00 8 ... ... ... : C#4 00 . P7D : 4-# 00 F ... : ... .. . ... ... : F#3 01 5 ... ... : G#4 01 5 ... ... : G#1 01 F P80 ...
ROW 31 : ... .. E ... ... ... : ... .. 7 ... ... ... : B-3 00 . P86 : ... .. C ... : ... .. . ... ... : ... .. 4 ... ... : ... .. 4 ... ... : ... .. D ... ...
ROW 32 : ... .. D ... ... ... : ... .. . ... ... ... : A#3 00 . P85 : ... .. 6 ... : ... .. . ... ... : ... .. . ... ... : ... .. . ... ... : ... .. 8 ... ...
ROW 33 : ... .. A ... ... ... : ... .. 6 ... ... ... : A-3 00 . P84 : ... .. 3 ... : ... .. . ... ... : ... .. 3 ... ... : ... .. 3 ... ... : ... .. . ... ...
ROW 34 : ... .. . ... ... ... : D#4 00 5 ... ... ... : G#3 00 . ... : ... .. 2 ... : ... .. . ... ... : ... .. 2 ... ... : ... .. 2 ... ... : ... .. . ... ...
ROW 35 : ... .. . ... ... ... : ... .. 4 ... ... ... : G-3 00 . P85 : ... .. 0 ... : ... .. . ... ... : ... .. . ... ... : ... .. . ... ... : ... .. . ... ...
ROW 36 : ... .. . ... ... ... : ... .. . ... ... ... : F#3 00 . P87 : ... .. . ... : ... .. . ... ... : ... .. 1 ... ... : ... .. 1 ... ... : --- .. . P7E ...
ROW 37 : ... .. . ... ... ... : ... .. . ... ... ... : ... .. . P78 : ... .. . ... : ... .. . ... ... : ... .. . ... ... : ... .. . ... ... : ... .. . ... ...
ROW 38 : D#4 00 F ... ... ... : G#4 00 8 ... ... ... : C#4 00 . P7D : B-# 00 F ... : ... .. . ... ... : ... .. 5 ... ... : ... .. 5 ... ... : D#2 01 F P80 ...
ROW 39 : ... .. E ... ... ... : ... .. 7 ... ... ... : B-3 00 . P86 : ... .. C ... : ... .. . ... ... : ... .. 4 ... ... : ... .. 4 ... ... : ... .. D ... ...
ROW 3A : ... .. D ... ... ... : ... .. . ... ... ... : A#3 00 . P85 : ... .. 6 ... : ... .. . ... ... : ... .. . ... ... : ... .. . ... ... : ... .. 8 ... ...
ROW 3B : ... .. A ... ... ... : ... .. 6 ... ... ... : A-3 00 . P84 : ... .. 3 ... : ... .. . ... ... : ... .. 3 ... ... : ... .. 3 ... ... : ... .. . ... ...
ROW 3C : ... .. . ... ... ... : F#4 00 5 ... ... ... : G#3 00 . ... : ... .. 2 ... : ... .. . ... ... : ... .. 2 ... ... : ... .. 2 ... ... : ... .. . ... ...
ROW 3D : ... .. 2 ... ... ... : ... .. 4 ... ... ... : G-3 00 . P85 : ... .. 0 ... : ... .. . ... ... : ... .. . ... ... : ... .. . ... ... : ... .. . ... ...
ROW 3E : ... .. . ... ... ... : ... .. . ... ... ... : F#3 00 . P87 : ... .. . ... : ... .. . ... ... : ... .. 1 ... ... : ... .. 1 ... ... : --- .. . ... ...
ROW 3F : ... .. . ... ... ... : ... .. . ... ... ... : ... .. . P78 : ... .. . ... : ... .. . ... ... : ... .. . ... ... : ... .. . ... ... : ... .. . ... ...
ROW 40 : E-4 00 F ... ... ... : E-3 00 7 ... ... ... : G#3 00 . P85 : 1-# 00 F ... : ... .. . ... ... : B-4 01 5 ... ... : E-3 01 6 ... ... : A-1 01 F ... ...
ROW 41 : ... .. E ... ... ... : ... .. A ... ... ... : F-3 00 . P86 : ... .. C ... : ... .. . ... ... : ... .. 4 ... ... : ... .. . ... ... : ... .. D ... ...
ROW 42 : ... .. D ... ... ... : ... .. 7 ... ... ... : D#3 00 . P7C : ... .. 6 ... : ... .. . ... ... : ... .. . ... ... : ... .. 5 ... ... : ... .. 8 ... ...
ROW 43 : ... .. A ... ... ... : ... .. 0 ... V00 ... : C#3 00 . P76 : ... .. 3 ... : ... .. . ... ... : ... .. 3 ... ... : ... .. 4 ... ... : ... .. . ... ...
ROW 44 : ... .. . ... ... ... : E-3 00 5 P80 V01 ... : B-2 00 . P75 : ... .. 2 ... : ... .. . ... ... : C#5 01 5 ... ... : ... .. 1 ... ... : ... .. . ... ...
ROW 45 : ... .. . ... ... ... : ... .. 8 ... ... ... : A-2 00 . P7A : ... .. 0 ... : ... .. . ... ... : ... .. 4 ... ... : ... .. . ... ... : ... .. . ... ...
ROW 46 : ... .. . ... ... ... : ... .. 0 ... V00 ... : G-2 00 . P87 : ... .. . ... : ... .. . ... ... : ... .. . ... ... : ... .. . ... ... : ... .. . ... ...
ROW 47 : ... .. . ... ... ... : ... .. . ... ... ... : --- .. . ... : ... .. . ... : ... .. . ... ... : ... .. 3 ... ... : ... .. . ... ... : --- .. . P7F ...
ROW 48 : ... .. . ... ... ... : A-2 00 7 P80 V01 ... : A-2 00 . P80 : ... .. F ... : ... .. . ... ... : B-4 01 5 ... ... : ... .. 3 ... ... : A-1 01 F P80 ...
ROW 49 : ... .. . ... ... ... : ... .. A ... ... ... : ... .. . ... : ... .. C ... : ... .. . ... ... : ... .. 4 ... ... : ... .. . ... ... : ... .. D ... ...
ROW 4A : ... .. . ... ... ... : ... .. 7 ... ... ... : ... .. . ... : ... .. 6 ... : ... .. . ... ... : ... .. . ... ... : ... .. . ... ... : ... .. 8 ... ...
ROW 4B : ... .. . ... ... ... : ... .. 0 ... V00 ... : ... .. . ... : ... .. 3 ... : ... .. . ... ... : ... .. 3 ... ... : ... .. . ... ... : ... .. . ... ...
ROW 4C : ... .. . ... ... ... : A-2 00 5 P80 V01 ... : ... .. . ... : ... .. 2 ... : ... .. . ... ... : A-4 01 5 ... ... : ... .. 1 ... ... : ... .. . ... ...
ROW 4D : ... .. . ... ... ... : ... .. 8 ... ... ... : ... .. . ... : ... .. 0 ... : ... .. . ... ... : ... .. 4 ... ... : ... .. . ... ... : ... .. . ... ...
ROW 4E : ... .. . ... ... ... : ... .. 0 ... V00 ... : ... .. . ... : ... .. . ... : ... .. . ... ... : ... .. . ... ... : ... .. . ... ... : ... .. . ... ...
ROW 4F : ... .. . ... ... ... : ... .. . ... ... ... : --- .. . ... : ... .. . ... : ... .. . ... ... : ... .. 3 ... ... : ... .. . ... ... : --- .. . P7F ...
ROW 50 : F#4 00 F ... ... ... : C#3 00 7 P80 V01 ... : B-3 00 . P7D : 5-# 00 F ... : ... .. . ... ... : B-4 01 5 ... ... : ... .. 3 ... ... : E-2 01 F P80 ...
ROW 51 : ... .. E ... ... ... : ... .. A ... ... ... : A#3 00 . P7C : ... .. C ... : ... .. . ... ... : ... .. 4 ... ... : ... .. . ... ... : ... .. D ... ...
ROW 52 : ... .. D ... ... ... : ... .. 7 ... ... ... : A-3 00 . P7B : ... .. 6 ... : ... .. . ... ... : ... .. . ... ... : ... .. . ... ... : ... .. 8 ... ...
ROW 53 : ... .. A ... ... ... : ... .. 0 ... V00 ... : G#3 00 . ... : ... .. 3 ... : ... .. . ... ... : ... .. 3 ... ... : ... .. . ... ... : ... .. . ... ...
ROW 54 : ... .. . ... ... ... : C#3 00 5 P80 V01 ... : G-3 00 . P7C : ... .. 2 ... : ... .. . ... ... : C#5 01 5 ... ... : ... .. 1 ... ... : ... .. . ... ...
ROW 55 : ... .. 2 ... ... ... : ... .. 8 ... ... ... : F#3 00 . P7E : ... .. 0 ... : ... .. . ... ... : ... .. 4 ... ... : ... .. . ... ... : ... .. . ... ...
ROW 56 : ... .. . ... ... ... : ... .. 0 ... V00 ... : F-3 00 . P81 : ... .. . ... : ... .. . ... ... : ... .. . ... ... : ... .. . ... ... : ... .. . ... ...
ROW 57 : ... .. . ... ... ... : ... .. . ... ... ... : --- .. . ... : ... .. . ... : ... .. . ... ... : ... .. 3 ... ... : ... .. . ... ... : --- .. . P89 ...
ROW 58 : D#4 00 F ... ... ... : B-3 00 7 P80 V01 ... : A-2 00 . P80 : 1-# 00 F ... : ... .. . ... ... : B-4 01 5 ... ... : ... .. 3 ... ... : A-1 01 F P80 ...
ROW 59 : ... .. E ... ... ... : ... .. A ... ... ... : ... .. . ... : ... .. C ... : ... .. . ... ... : ... .. 4 ... ... : ... .. . ... ... : ... .. D ... ...
ROW 5A : ... .. D ... ... ... : ... .. 7 ... ... ... : ... .. . ... : ... .. 6 ... : ... .. . ... ... : ... .. . ... ... : ... .. . ... ... : ... .. 8 ... ...
ROW 5B : ... .. A ... ... ... : ... .. 0 ... V00 ... : ... .. . ... : ... .. 3 ... : ... .. . ... ... : ... .. 3 ... ... : ... .. . ... ... : ... .. . ... ...
ROW 5C : ... .. . ... ... ... : B-3 00 5 P80 V01 ... : ... .. . ... : ... .. 2 ... : ... .. . ... ... : A-4 01 5 ... ... : ... .. 1 ... ... : ... .. . ... ...
ROW 5D : ... .. . ... ... ... : ... .. 8 ... ... ... : ... .. . ... : ... .. 0 ... : ... .. . ... ... : ... .. 4 ... ... : ... .. . ... ... : ... .. . ... ...
ROW 5E : ... .. . ... ... ... : ... .. 0 ... V00 ... : ... .. . ... : ... .. . ... : ... .. . ... ... : ... .. . ... ... : ... .. . ... ... : ... .. . ... ...
ROW 5F : ... .. . ... ... ... : ... .. . ... ... ... : ... .. . ... : ... .. . ... : ... .. . ... ... : ... .. 3 ... ... : ... .. . ... ... : ... .. . ... ...
ROW 60 : ... .. . ... ... ... : G#3 00 7 P80 V01 ... : G#3 00 . P85 : C-# 00 8 ... : ... .. . ... ... : G#4 01 5 ... ... : ... .. 3 ... ... : ... .. . ... ...
ROW 61 : ... .. 2 ... ... ... : ... .. A ... ... ... : F-3 00 . P86 : ... .. 6 ... : ... .. . ... ... : ... .. 4 ... ... : ... .. . ... ... : ... .. . ... ...
ROW 62 : ... .. . ... ... ... : ... .. 7 ... ... ... : D#3 00 . P7C : ... .. 3 ... : ... .. . ... ... : ... .. . ... ... : ... .. . ... ... : ... .. . ... ...
ROW 63 : ... .. . ... ... ... : ... .. 0 ... V00 ... : C#3 00 . P76 : ... .. 1 ... : ... .. . ... ... : ... .. 3 ... ... : ... .. . ... ... : ... .. . ... ...
ROW 64 : ... .. 1 ... ... ... : G#3 00 5 P80 V01 ... : B-2 00 . P75 : ... .. . ... : ... .. . ... ... : A-4 01 5 ... ... : ... .. 2 ... ... : ... .. . ... ...
ROW 65 : ... .. . ... ... ... : ... .. 8 ... ... ... : A-2 00 . P7A : ... .. 0 ... : ... .. . ... ... : ... .. 4 ... ... : ... .. . ... ... : ... .. . ... ...
ROW 66 : ... .. . ... ... ... : ... .. 0 ... V00 ... : G-2 00 . P87 : ... .. . ... : ... .. . ... ... : ... .. . ... ... : ... .. . ... ... : ... .. . ... ...
ROW 67 : ... .. 0 ... ... ... : ... .. . ... ... ... : --- .. . ... : ... .. . ... : ... .. . ... ... : ... .. 3 ... ... : ... .. . ... ... : --- .. . P7F ...
ROW 68 : E-4 00 F P80 ... ... : A-3 00 7 P80 V01 ... : G#2 00 . P80 : 1-# 00 F ... : ... .. . ... ... : G#4 01 5 ... ... : ... .. 3 ... ... : G#1 01 F P80 ...
ROW 69 : ... .. E ... ... ... : ... .. A ... ... ... : ... .. . ... : ... .. C ... : ... .. . ... ... : ... .. 4 ... ... : ... .. . ... ... : ... .. D ... ...
ROW 6A : ... .. D ... ... ... : ... .. 7 ... ... ... : ... .. . ... : ... .. 6 ... : ... .. . ... ... : ... .. . ... ... : ... .. . ... ... : ... .. 8 ... ...
ROW 6B : ... .. A ... ... ... : ... .. 0 ... V00 ... : ... .. . ... : ... .. 3 ... : ... .. . ... ... : ... .. 3 ... ... : ... .. . ... ... : ... .. . ... ...
ROW 6C : ... .. . ... ... ... : A-3 00 5 P80 V01 ... : ... .. . ... : ... .. 2 ... : ... .. . ... ... : F#4 01 5 ... ... : ... .. 2 ... ... : ... .. . ... ...
ROW 6D : ... .. . ... ... ... : ... .. 8 ... ... ... : ... .. . ... : ... .. 0 ... : ... .. . ... ... : ... .. 4 ... ... : ... .. . ... ... : ... .. . ... ...
ROW 6E : ... .. . ... ... ... : ... .. 0 ... V00 ... : ... .. . ... : ... .. . ... : ... .. . ... ... : ... .. . ... ... : ... .. . ... ... : ... .. . ... ...
ROW 6F : ... .. . ... ... ... : ... .. . ... ... ... : --- .. . ... : ... .. . ... : ... .. . ... ... : ... .. 3 ... ... : ... .. . ... ... : --- .. . P7E ...
ROW 70 : ... .. . ... ... ... : E-3 00 7 P80 V01 ... : B-3 00 . P7D : 5-# 00 F ... : ... .. . ... ... : G#4 01 5 ... ... : ... .. 3 ... ... : A-1 01 F P80 ...
ROW 71 : ... .. 2 ... ... ... : ... .. A ... ... ... : A#3 00 . P7C : ... .. C ... : ... .. . ... ... : ... .. 4 ... ... : ... .. . ... ... : ... .. D ... ...
ROW 72 : ... .. . ... ... ... : ... .. 7 ... ... ... : A-3 00 . P7B : ... .. 6 ... : ... .. . ... ... : ... .. . ... ... : ... .. . ... ... : ... .. 8 ... ...
ROW 73 : ... .. . ... ... ... : ... .. 0 ... V00 ... : G#3 00 . ... : ... .. 3 ... : ... .. . ... ... : ... .. 3 ... ... : ... .. . ... ... : ... .. . ... ...
ROW 74 : ... .. 1 ... ... ... : E-3 00 5 P80 V01 ... : G-3 00 . P7C : ... .. 2 ... : ... .. . ... ... : A-4 01 5 ... ... : ... .. 2 ... ... : ... .. . ... ...
ROW 75 : ... .. . ... ... ... : ... .. 8 ... ... ... : F#3 00 . P7E : ... .. 0 ... : ... .. . ... ... : ... .. 4 ... ... : ... .. . ... ... : ... .. . ... ...
ROW 76 : ... .. . ... ... ... : ... .. 0 ... V00 ... : F-3 00 . P81 : ... .. . ... : ... .. . ... ... : ... .. . ... ... : ... .. . ... ... : ... .. . ... ...
ROW 77 : ... .. 0 ... ... ... : ... .. . ... ... ... : --- .. . ... : ... .. . ... : ... .. . ... ... : ... .. 3 ... ... : ... .. . ... ... : --- .. . P7F ...
ROW 78 : C#4 00 F P80 ... ... : D#3 00 7 P80 V01 ... : G#3 00 . P80 : 1-# 00 F ... : ... .. . ... ... : G#4 01 5 ... ... : ... .. 3 ... ... : G#2 01 F P80 ...
ROW 79 : ... .. E ... ... ... : ... .. A ... ... ... : ... .. . ... : ... .. C ... : ... .. . ... ... : ... .. 4 ... ... : ... .. . ... ... : ... .. D ... ...
ROW 7A : ... .. D ... ... ... : ... .. 7 ... ... ... : ... .. . ... : ... .. 6 ... : ... .. . ... ... : ... .. . ... ... : ... .. . ... ... : ... .. 8 ... ...
ROW 7B : ... .. A ... ... ... : ... .. 0 ... V00 ... : ... .. . ... : ... .. 3 ... : ... .. . ... ... : ... .. 3 ... ... : ... .. . ... ... : ... .. . ... ...
ROW 7C : ... .. . ... ... ... : D#3 00 5 P80 V01 ... : ... .. . ... : ... .. 2 ... : ... .. . ... ... : F#4 01 5 ... ... : ... .. 2 ... ... : ... .. . ... ...
ROW 7D : ... .. . ... ... ... : ... .. 8 ... ... ... : ... .. . ... : ... .. 0 ... : ... .. . ... ... : ... .. 4 ... ... : ... .. . ... ... : ... .. . ... ...
ROW 7E : ... .. . ... ... ... : ... .. 0 ... V00 ... : ... .. . ... : ... .. . ... : ... .. . ... ... : ... .. . ... ... : ... .. . ... ... : ... .. . ... ...
ROW 7F : ... .. . ... ... ... : ... .. . ... ... ... : --- .. . ... : ... .. . ... : ... .. . ... ... : ... .. 3 ... ... : ... .. . ... ... : --- .. . P7F ...
ROW 80 : ... .. . ... ... ... : E-3 00 7 P80 V01 ... : G#3 00 . P85 : ... .. F ... : ... .. . ... ... : E-4 01 5 ... ... : A-3 01 6 ... ... : A-1 01 F P80 ...
ROW 81 : ... .. . ... ... ... : ... .. A ... ... ... : F-3 00 . P86 : ... .. C ... : ... .. . ... ... : ... .. 4 ... ... : ... .. . ... ... : ... .. D ... ...
ROW 82 : ... .. . ... ... ... : ... .. 7 ... ... ... : D#3 00 . P7C : ... .. 6 ... : ... .. . ... ... : ... .. . ... ... : ... .. 5 ... ... : ... .. 8 ... ...
ROW 83 : ... .. . ... ... ... : ... .. 0 ... V00 ... : C#3 00 . P76 : ... .. 3 ... : ... .. . ... ... : ... .. 3 ... ... : ... .. 4 ... ... : ... .. . ... ...
ROW 84 : ... .. . ... ... ... : E-3 00 5 P80 V01 ... : B-2 00 . P75 : ... .. 2 ... : ... .. . ... ... : F#4 01 5 ... ... : ... .. . ... ... : ... .. . ... ...
ROW 85 : ... .. . ... ... ... : ... .. 8 ... ... ... : A-2 00 . P7A : ... .. 0 ... : ... .. . ... ... : ... .. 4 ... ... : ... .. . ... ... : ... .. . ... ...
ROW 86 : ... .. . ... ... ... : ... .. 0 ... V00 ... : G-2 00 . P87 : ... .. . ... : ... .. . ... ... : ... .. . ... ... : ... .. . ... ... : ... .. . ... ...
ROW 87 : ... .. . ... ... ... : ... .. . ... ... ... : --- .. . ... : ... .. . ... : ... .. . ... ... : ... .. 3 ... ... : ... .. 3 ... ... : --- .. . P7F ...
ROW 88 : C#3 00 F ... ... ... : A-2 00 7 P80 V01 ... : A-2 00 . P80 : ... .. F ... : ... .. . ... ... : E-4 01 5 ... ... : ... .. . ... ... : A-1 01 F P80 ...
ROW 89 : ... .. E ... ... ... : ... .. A ... ... ... : ... .. . ... : ... .. C ... : ... .. . ... ... : ... .. 4 ... ... : ... .. . ... ... : ... .. D ... ...
ROW 8A : ... .. D ... ... ... : ... .. 7 ... ... ... : ... .. . ... : ... .. 6 ... : ... .. . ... ... : ... .. . ... ... : ... .. . ... ... : ... .. 8 ... ...
ROW 8B : ... .. A ... ... ... : ... .. 0 ... V00 ... : ... .. . ... : ... .. 3 ... : ... .. . ... ... : ... .. 3 ... ... : ... .. . ... ... : ... .. . ... ...
ROW 8C : ... .. . ... ... ... : A-2 00 5 P80 V01 ... : ... .. . ... : ... .. 2 ... : ... .. . ... ... : D#4 01 5 ... ... : ... .. . ... ... : ... .. . ... ...
ROW 8D : ... .. . ... ... ... : ... .. 8 ... ... ... : ... .. . ... : ... .. 0 ... : ... .. . ... ... : ... .. 4 ... ... : ... .. . ... ... : ... .. . ... ...
ROW 8E : ... .. . ... ... ... : ... .. 0 ... V00 ... : ... .. . ... : ... .. . ... : ... .. . ... ... : ... .. . ... ... : ... .. . ... ... : ... .. . ... ...
ROW 8F : ... .. . ... ... ... : ... .. . ... ... ... : --- .. . ... : ... .. . ... : ... .. . ... ... : ... .. 3 ... ... : ... .. . ... ... : --- .. . P7F ...
ROW 90 : ... .. . ... ... ... : C#3 00 7 P80 V01 ... : B-3 00 . P7D : 5-# 00 F ... : ... .. . ... ... : E-4 01 5 ... ... : ... .. . ... ... : E-2 01 F P80 ...
ROW 91 : ... .. 2 ... ... ... : ... .. A ... ... ... : A#3 00 . P7C : ... .. C ... : ... .. . ... ... : ... .. 4 ... ... : ... .. . ... ... : ... .. D ... ...
ROW 92 : ... .. . ... ... ... : ... .. 7 ... ... ... : A-3 00 . P7B : ... .. 6 ... : ... .. . ... ... : ... .. . ... ... : ... .. . ... ... : ... .. 8 ... ...
ROW 93 : ... .. . ... ... ... : ... .. 0 ... V00 ... : G#3 00 . ... : ... .. 3 ... : ... .. . ... ... : ... .. 3 ... ... : ... .. . ... ... : ... .. . ... ...
ROW 94 : ... .. 1 ... ... ... : C#3 00 5 P80 V01 ... : G-3 00 . P7C : ... .. 2 ... : ... .. . ... ... : F#4 01 5 ... ... : ... .. . ... ... : ... .. . ... ...
ROW 95 : ... .. . ... ... ... : ... .. 8 ... ... ... : F#3 00 . P7E : ... .. 0 ... : ... .. . ... ... : ... .. 4 ... ... : ... .. . ... ... : ... .. . ... ...
ROW 96 : ... .. . ... ... ... : ... .. 0 ... V00 ... : F-3 00 . P81 : ... .. . ... : ... .. . ... ... : ... .. . ... ... : ... .. . ... ... : ... .. . ... ...
ROW 97 : ... .. 0 ... ... ... : ... .. . ... ... ... : --- .. . ... : ... .. . ... : ... .. . ... ... : ... .. 3 ... ... : ... .. . ... ... : --- .. . P89 ...
ROW 98 : C#3 00 F P80 ... ... : B-3 00 7 P80 V01 ... : A-2 00 . P80 : 1-# 00 F ... : ... .. . ... ... : E-4 01 5 ... ... : ... .. . ... ... : A-1 01 F P80 ...
ROW 99 : ... .. E ... ... ... : ... .. A ... ... ... : ... .. . ... : ... .. C ... : ... .. . ... ... : ... .. 4 ... ... : ... .. . ... ... : ... .. D ... ...
ROW 9A : ... .. D ... ... ... : ... .. 7 ... ... ... : ... .. . ... : ... .. 6 ... : ... .. . ... ... : ... .. . ... ... : ... .. . ... ... : ... .. 8 ... ...
ROW 9B : ... .. A ... ... ... : ... .. 0 ... V00 ... : ... .. . ... : ... .. 3 ... : ... .. . ... ... : ... .. 3 ... ... : ... .. . ... ... : ... .. . ... ...
ROW 9C : ... .. . ... ... ... : B-3 00 5 P80 V01 ... : ... .. . ... : ... .. 2 ... : ... .. . ... ... : D#4 01 5 ... ... : ... .. . ... ... : ... .. . ... ...
ROW 9D : ... .. . ... ... ... : ... .. 8 ... ... ... : ... .. . ... : ... .. 0 ... : ... .. . ... ... : ... .. 4 ... ... : ... .. . ... ... : ... .. . ... ...
ROW 9E : ... .. . ... ... ... : ... .. 0 ... V00 ... : ... .. . ... : ... .. . ... : ... .. . ... ... : ... .. . ... ... : ... .. . ... ... : ... .. . ... ...
ROW 9F : ... .. . ... ... ... : ... .. . ... ... ... : --- .. . ... : ... .. . ... : ... .. . ... ... : ... .. 3 ... ... : ... .. . ... ... : --- .. . P7F ...
ROW A0 : ... .. . ... ... ... : G#3 00 7 P80 V01 ... : G#3 00 . P85 : C-# 00 8 ... : ... .. . ... ... : E-4 01 5 ... ... : F#3 01 6 ... ... : B-1 01 F P80 ...
ROW A1 : ... .. . ... ... ... : ... .. A ... ... ... : F-3 00 . P86 : ... .. 6 ... : ... .. . ... ... : ... .. 4 ... ... : ... .. . ... ... : ... .. D ... ...
ROW A2 : ... .. . ... ... ... : ... .. 7 ... ... ... : D#3 00 . P7C : ... .. 3 ... : ... .. . ... ... : ... .. . ... ... : ... .. 5 ... ... : ... .. 8 ... ...
ROW A3 : ... .. . ... ... ... : ... .. 0 ... V00 ... : C#3 00 . P76 : ... .. 1 ... : ... .. . ... ... : ... .. 3 ... ... : ... .. 4 ... ... : ... .. . ... ...
ROW A4 : ... .. . ... ... ... : G#3 00 5 P80 V01 ... : B-2 00 . P75 : ... .. . ... : ... .. . ... ... : F#4 01 5 ... ... : ... .. . ... ... : ... .. . ... ...
ROW A5 : ... .. . ... ... ... : ... .. 8 ... ... ... : A-2 00 . P7A : ... .. 0 ... : ... .. . ... ... : ... .. 4 ... ... : ... .. . ... ... : ... .. . ... ...
ROW A6 : ... .. . ... ... ... : ... .. 0 ... V00 ... : G-2 00 . P87 : ... .. . ... : ... .. . ... ... : ... .. . ... ... : ... .. . ... ... : ... .. . ... ...
ROW A7 : ... .. . ... ... ... : ... .. . ... ... ... : --- .. . ... : ... .. . ... : ... .. . ... ... : ... .. 3 ... ... : ... .. 3 ... ... : --- .. . P86 ...
ROW A8 : B-2 00 F ... ... ... : A-3 00 7 P80 V01 ... : B-2 00 . P80 : 1-# 00 F ... : ... .. . ... ... : E-4 01 5 ... ... : ... .. . ... ... : B-1 01 F P80 ...
ROW A9 : ... .. E ... ... ... : ... .. A ... ... ... : ... .. . ... : ... .. C ... : ... .. . ... ... : ... .. 4 ... ... : ... .. . ... ... : ... .. D ... ...
ROW AA : ... .. D ... ... ... : ... .. 7 ... ... ... : ... .. . ... : ... .. 6 ... : ... .. . ... ... : ... .. . ... ... : ... .. . ... ... : ... .. 8 ... ...
ROW AB : ... .. A ... ... ... : ... .. 0 ... V00 ... : ... .. . ... : ... .. 3 ... : ... .. . ... ... : ... .. 3 ... ... : ... .. . ... ... : ... .. . ... ...
ROW AC : ... .. . ... ... ... : A-3 00 5 P80 V01 ... : ... .. . ... : ... .. 2 ... : ... .. . ... ... : D#4 01 5 ... ... : ... .. . ... ... : ... .. . ... ...
ROW AD : ... .. 2 ... ... ... : ... .. 8 ... ... ... : ... .. . ... : ... .. 0 ... : ... .. . ... ... : ... .. 4 ... ... : ... .. . ... ... : ... .. . ... ...
ROW AE : ... .. . ... ... ... : ... .. 0 ... V00 ... : ... .. . ... : ... .. . ... : ... .. . ... ... : ... .. . ... ... : ... .. . ... ... : ... .. . ... ...
ROW AF : ... .. . ... ... ... : ... .. . ... ... ... : --- .. . ... : ... .. . ... : ... .. . ... ... : ... .. 3 ... ... : ... .. . ... ... : --- .. . P86 ...
ROW B0 : C#3 00 F ... ... ... : E-3 00 7 P80 V01 ... : B-3 00 . P7D : 5-# 00 F ... : ... .. . ... ... : C#4 01 5 ... ... : ... .. . ... ... : F#2 01 F P80 ...
ROW B1 : ... .. E ... ... ... : ... .. A ... ... ... : A#3 00 . P7C : ... .. C ... : ... .. . ... ... : ... .. 4 ... ... : ... .. . ... ... : ... .. D ... ...
ROW B2 : ... .. D ... ... ... : ... .. 7 ... ... ... : A-3 00 . P7B : ... .. 6 ... : ... .. . ... ... : ... .. . ... ... : ... .. . ... ... : ... .. 8 ... ...
ROW B3 : ... .. A ... ... ... : ... .. 0 ... V00 ... : G#3 00 . ... : ... .. 3 ... : ... .. . ... ... : ... .. 3 ... ... : ... .. . ... ... : ... .. . ... ...
ROW B4 : ... .. . ... ... ... : E-3 00 5 P80 V01 ... : G-3 00 . P7C : ... .. 2 ... : ... .. . ... ... : B-3 01 5 ... ... : ... .. . ... ... : ... .. . ... ...
ROW B5 : ... .. 2 ... ... ... : ... .. 8 ... ... ... : F#3 00 . P7E : ... .. 0 ... : ... .. . ... ... : ... .. 4 ... ... : ... .. . ... ... : ... .. . ... ...
ROW B6 : ... .. . ... ... ... : ... .. 0 ... V00 ... : F-3 00 . P81 : ... .. . ... : ... .. . ... ... : ... .. . ... ... : ... .. . ... ... : ... .. . ... ...
ROW B7 : ... .. . ... ... ... : ... .. . ... ... ... : --- .. . ... : ... .. . ... : ... .. . ... ... : ... .. 3 ... ... : ... .. . ... ... : --- .. . P84 ...
ROW B8 : F#3 00 F ... ... ... : D#3 00 8 P80 V01 ... : G#3 00 . P85 : C-# 00 8 ... : ... .. . ... ... : C#4 01 5 ... ... : D#4 01 6 ... V00 : B-1 01 F P80 ...
ROW B9 : ... .. E ... ... ... : ... .. 7 ... ... ... : F-3 00 . P86 : ... .. 6 ... : ... .. . ... ... : ... .. 4 ... ... : ... .. . ... ... : ... .. D ... ...
ROW BA : ... .. D ... ... ... : ... .. . ... ... ... : D#3 00 . P7C : ... .. 3 ... : ... .. . ... ... : ... .. . ... ... : ... .. . ... ... : ... .. 8 ... ...
ROW BB : ... .. A ... ... ... : ... .. 6 ... ... ... : C#3 00 . P76 : ... .. 1 ... : ... .. . ... ... : ... .. 3 ... ... : ... .. 5 ... ... : ... .. . ... ...
ROW BC : ... .. . ... ... ... : ... .. 5 ... ... ... : B-2 00 . P75 : ... .. . ... : ... .. . ... ... : ... .. . ... ... : ... .. 4 ... ... : ... .. . ... ...
ROW BD : ... .. . ... ... ... : ... .. 4 ... ... ... : A-2 00 . P7A : ... .. 0 ... : ... .. . ... ... : ... .. . ... ... : ... .. . ... ... : ... .. . ... ...
ROW BE : ... .. . ... ... ... : ... .. . ... ... ... : G-2 00 . P87 : ... .. . ... : ... .. . ... ... : ... .. . ... ... : ... .. . ... ... : ... .. . ... ...
ROW BF : ... .. . ... ... ... : ... .. . ... ... ... : F#2 00 . P77 : ... .. . ... : ... .. . ... ... : ... .. 2 ... ... : ... .. . ... ... : ... .. . ... ...
ROW C0 : ... .. . ... ... ... : ... .. 3 ... ... ... : E-2 00 . P8F : 1-# 00 F ... : ... .. . ... ... : --- .. . ... ... : --- .. . ... ... : ... .. . ... ...
ROW C1 : ... .. 2 ... ... ... : ... .. . ... ... ... : D#2 00 . P85 : ... .. C ... : ... .. . ... ... : ... .. . ... ... : ... .. . ... ... : ... .. . ... ...
ROW C2 : ... .. . ... ... ... : ... .. 2 ... ... ... : D-2 00 . P7E : ... .. 6 ... : ... .. . ... ... : ... .. . ... ... : ... .. . ... ... : ... .. . ... ...
ROW C3 : ... .. . ... ... ... : ... .. . ... ... ... : C#2 00 . P79 : ... .. 3 ... : ... .. . ... ... : ... .. . ... ... : ... .. . ... ... : ... .. . ... ...
ROW C4 : ... .. 1 ... ... ... : ... .. . ... ... ... : C-2 00 . P77 : ... .. 2 ... : ... .. . ... ... : ... .. . ... ... : ... .. . ... ... : ... .. . ... ...
ROW C5 : ... .. . ... ... ... : ... .. 1 ... ... ... : B-1 00 . P78 : ... .. 0 ... : ... .. . ... ... : ... .. . ... ... : ... .. . ... ... : ... .. . ... ...
ROW C6 : ... .. . ... ... ... : ... .. . ... ... ... : A#1 00 . P7C : ... .. . ... : ... .. . ... ... : ... .. . ... ... : ... .. . ... ... : ... .. . ... ...
ROW C7 : ... .. 0 ... ... ... : ... .. . ... ... ... : --- .. . ... : ... .. . ... : ... .. . ... ... : ... .. . ... ... : ... .. . ... ... : --- .. . P86 ...
ROW C8 : G#3 00 F P80 ... ... : E-3 00 A ... ... ... : G#3 00 . P85 : ... .. F ... : ... .. . ... ... : C#4 01 5 ... V00 : E-4 01 6 ... ... : C#2 01 F P80 ...
ROW C9 : ... .. E ... ... ... : ... .. 9 ... ... ... : F-3 00 . P86 : ... .. C ... : ... .. . ... ... : ... .. 4 ... ... : ... .. . ... ... : ... .. D ... ...
ROW CA : ... .. D ... ... ... : ... .. 8 ... ... ... : D#3 00 . P7C : ... .. 6 ... : ... .. . ... ... : ... .. . ... ... : ... .. . ... ... : ... .. 8 ... ...
ROW CB : ... .. A ... ... ... : ... .. 6 ... ... ... : C#3 00 . P76 : ... .. 3 ... : ... .. . ... ... : ... .. . ... ... : ... .. 5 ... ... : ... .. . ... ...
ROW CC : ... .. . ... ... ... : ... .. . ... ... ... : B-2 00 . P75 : ... .. 2 ... : ... .. . ... ... : ... .. 3 ... ... : ... .. 4 ... ... : ... .. . ... ...
ROW CD : ... .. . ... ... ... : ... .. . ... ... ... : A-2 00 . P7A : ... .. 0 ... : ... .. . ... ... : ... .. . ... ... : ... .. . ... ... : ... .. . ... ...
ROW CE : ... .. . ... ... ... : ... .. . ... ... ... : G-2 00 . P87 : ... .. . ... : ... .. . ... ... : ... .. . ... ... : ... .. . ... ... : ... .. . ... ...
ROW CF : ... .. . ... ... ... : ... .. . ... ... ... : F#2 00 . P77 : ... .. . ... : ... .. . ... ... : ... .. . ... ... : ... .. . ... ... : ... .. . ... ...
ROW D0 : ... .. . ... ... ... : ... .. . ... ... ... : E-2 00 . P8F : 5-# 00 F ... : ... .. . ... ... : --- .. . ... ... : --- .. . ... ... : ... .. . ... ...
ROW D1 : ... .. 2 ... ... ... : ... .. 1 ... ... ... : D#2 00 . P85 : ... .. C ... : ... .. . ... ... : ... .. . ... ... : ... .. . ... ... : ... .. . ... ...
ROW D2 : ... .. . ... ... ... : ... .. . ... ... ... : D-2 00 . P7E : ... .. 6 ... : ... .. . ... ... : ... .. . ... ... : ... .. . ... ... : ... .. . ... ...
ROW D3 : ... .. . ... ... ... : ... .. . ... ... ... : C#2 00 . P79 : ... .. 3 ... : ... .. . ... ... : ... .. . ... ... : ... .. . ... ... : ... .. . ... ...
ROW D4 : ... .. 1 ... ... ... : ... .. . ... ... ... : C-2 00 . P77 : ... .. 2 ... : ... .. . ... ... : ... .. . ... ... : ... .. . ... ... : ... .. . ... ...
ROW D5 : ... .. . ... ... ... : ... .. . ... ... ... : B-1 00 . P78 : ... .. 0 ... : ... .. . ... ... : ... .. . ... ... : ... .. . ... ... : ... .. . ... ...
ROW D6 : ... .. . ... ... ... : ... .. . ... ... ... : A#1 00 . P7C : ... .. . ... : ... .. . ... ... : ... .. . ... ... : ... .. . ... ... : ... .. . ... ...
ROW D7 : ... .. 0 ... ... ... : ... .. 0 ... V00 ... : A-1 00 . P83 : ... .. . ... : ... .. . ... ... : ... .. . ... ... : ... .. . ... ... : ... .. . ... ...
ROW D8 : C#5 00 F P80 ... ... : E-4 00 A P80 V01 ... : A#4 00 . P7E : D-# 00 A ... : ... .. . ... ... : B-3 01 4 ... V05 : E-4 01 6 ... V05 : C#3 01 F ... ...
ROW D9 : ... .. E ... ... ... : ... .. 9 ... ... ... : G#4 00 . ... : ... .. . ... : ... .. . ... ... : ... .. . ... ... : ... .. 5 ... ... : ... .. D ... ...
ROW DA : ... .. D ... ... ... : ... .. 8 ... ... ... : F#4 00 . P7F : ... .. . ... : ... .. . ... ... : ... .. . ... ... : ... .. . ... ... : ... .. 8 ... ...
ROW DB : ... .. A ... ... ... : ... .. 6 ... ... ... : E-4 00 . P83 : ... .. . ... : ... .. . ... ... : ... .. . ... ... : ... .. . ... ... : ... .. . ... ...
ROW DC : ... .. . ... ... ... : ... .. . ... ... ... : D#4 00 . P7E : ... .. C ... : ... .. . ... ... : ... .. 3 ... ... : ... .. 4 ... ... : ... .. . ... ...
ROW DD : ... .. . ... ... ... : ... .. . ... ... ... : C#4 00 . P85 : ... .. . ... : ... .. . ... ... : ... .. . ... ... : ... .. . ... ... : ... .. . ... ...
ROW DE : ... .. . ... ... ... : ... .. . ... ... ... : C-4 00 . P82 : ... .. . ... : ... .. . ... ... : ... .. . ... ... : ... .. . ... ... : ... .. . ... ...
ROW DF : ... .. . ... ... ... : ... .. . ... ... ... : B-3 00 . P7F : ... .. . ... : ... .. . ... ... : ... .. . ... ... : ... .. . ... ... : ... .. . ... ...
ROW E0 : ... .. . ... ... ... : ... .. . ... ... ... : A#3 00 . P7E : ... .. A ... : ... .. . ... ... : --- .. . ... ... : --- .. . ... ... : C-3 01 8 P8C ...
ROW E1 : ... .. . ... ... ... : ... .. . ... ... ... : A-3 00 . P7D : ... .. . ... : ... .. . ... ... : ... .. . ... ... : ... .. . ... ... : ... .. . P7C ...
ROW E2 : ... .. . ... ... ... : ... .. . ... ... ... : G#3 00 . ... : ... .. . ... : ... .. . ... ... : ... .. . ... ... : ... .. . ... ... : B-2 01 8 P89 ...
ROW E3 : ... .. . ... ... ... : ... .. . ... ... ... : G-3 00 . P7E : ... .. . ... : ... .. . ... ... : ... .. . ... ... : ... .. . ... ... : ... .. . P79 ...
ROW E4 : ... .. . ... ... ... : ... .. . ... ... ... : F#3 00 . P80 : ... .. 7 ... : ... .. . ... ... : ... .. . ... ... : ... .. . ... ... : A#2 01 8 P87 ...
ROW E5 : ... .. 2 ... ... ... : ... .. 1 ... ... ... : F-3 00 . P83 : ... .. . ... : ... .. . ... ... : ... .. . ... ... : ... .. . ... ... : ... .. . P77 ...
ROW E6 : ... .. . ... ... ... : ... .. . ... ... ... : E-3 00 . P87 : ... .. . ... : ... .. . ... ... : ... .. . ... ... : ... .. . ... ... : A-2 01 8 P88 ...
ROW E7 : ... .. . ... ... ... : ... .. . ... ... ... : ... .. . P78 : ... .. . ... : ... .. . ... ... : ... .. . ... ... : ... .. . ... ... : ... .. . P78 ...
ROW E8 : ... .. 8 ... ... ... : ... .. 8 ... ... ... : F-4 00 . P82 : ... .. 5 ... : ... .. . ... ... : B-3 01 2 ... ... : E-4 01 2 ... ... : G#2 01 8 P8B ...
ROW E9 : ... .. 7 ... ... ... : ... .. 7 ... ... ... : E-4 00 . P7D : ... .. . ... : ... .. . ... ... : ... .. . ... ... : ... .. . ... ... : ... .. . P7B ...
ROW EA : ... .. 6 ... ... ... : ... .. 6 ... ... ... : D-4 00 . P82 : ... .. . ... : ... .. . ... ... : ... .. . ... ... : ... .. . ... ... : G-2 01 8 P8F ...
ROW EB : ... .. 5 ... ... ... : ... .. 5 ... ... ... : C#4 00 . P7F : ... .. . ... : ... .. . ... ... : ... .. . ... ... : ... .. . ... ... : ... .. . P7F ...
ROW EC : ... .. . ... ... ... : ... .. . ... ... ... : C-4 00 . P7C : ... .. 3 ... : ... .. . ... ... : ... .. 1 ... ... : ... .. 1 ... ... : ... .. . P6F ...
ROW ED : ... .. . ... ... ... : ... .. 1 ... ... ... : A#3 00 . P87 : ... .. . ... : ... .. . ... ... : ... .. . ... ... : ... .. . ... ... : F#2 01 8 P86 ...
ROW EE : ... .. . ... ... ... : ... .. . ... ... ... : A-3 00 . P86 : ... .. . ... : ... .. . ... ... : ... .. . ... ... : ... .. . ... ... : ... .. . P76 ...
ROW EF : ... .. . ... ... ... : ... .. . ... ... ... : G#3 00 . ... : ... .. . ... : ... .. . ... ... : ... .. . ... ... : ... .. . ... ... : --- .. . P85 ...
ROW F0 : C#3 00 F ... ... ... : G#2 00 7 ... ... ... : D#4 00 . P85 : 5-# 00 F ... : ... .. . ... ... : --- .. . ... ... : --- .. . ... ... : C#2 01 F P80 ...
ROW F1 : ... .. E ... ... ... : ... .. A ... ... ... : D-4 00 . P80 : ... .. C ... : ... .. . ... ... : ... .. . ... ... : ... .. . ... ... : ... .. D ... ...
ROW F2 : ... .. D ... ... ... : ... .. 7 ... ... ... : C#4 00 . P7D : ... .. 6 ... : ... .. . ... ... : ... .. . ... ... : ... .. . ... ... : ... .. 8 ... ...
ROW F3 : ... .. A ... ... ... : ... .. 0 ... V00 ... : B-3 00 . P86 : ... .. 3 ... : ... .. . ... ... : ... .. . ... ... : ... .. . ... ... : ... .. . ... ...
ROW F4 : ... .. . ... ... ... : G#2 00 5 P80 V01 ... : A#3 00 . P85 : ... .. 2 ... : ... .. . ... ... : ... .. . ... ... : ... .. . ... ... : ... .. . ... ...
ROW F5 : ... .. 2 ... ... ... : ... .. 8 ... ... ... : A-3 00 . P84 : ... .. 0 ... : ... .. . ... ... : ... .. . ... ... : ... .. . ... ... : ... .. . ... ...
ROW F6 : ... .. . ... ... ... : ... .. 0 ... V00 ... : G#3 00 . ... : ... .. . ... : ... .. . ... ... : ... .. . ... ... : ... .. . ... ... : ... .. . ... ...
ROW F7 : ... .. . ... ... ... : ... .. . ... ... ... : --- .. . ... : ... .. . ... : ... .. . ... ... : ... .. . ... ... : ... .. . ... ... : --- .. . ... ...
ROW F8 : F#3 00 F ... ... ... : D#3 00 8 P80 V01 ... : G#3 00 . P85 : C-# 00 8 ... : ... .. . ... ... : C#4 01 A ... V00 : D#4 01 A ... V00 : B-1 01 F ... ...
ROW F9 : ... .. E ... ... ... : ... .. 7 ... ... ... : F-3 00 . P86 : ... .. 6 ... : ... .. . ... ... : ... .. 9 ... ... : ... .. 9 ... ... : ... .. D ... ...
ROW FA : ... .. D ... ... ... : ... .. . ... ... ... : D#3 00 . P7C : ... .. 3 ... : ... .. . ... ... : ... .. . ... ... : ... .. . ... ... : ... .. 8 ... ...
ROW FB : ... .. A ... ... ... : ... .. 6 ... ... ... : C#3 00 . P76 : ... .. 1 ... : ... .. . ... ... : ... .. 8 ... ... : ... .. 8 ... ... : ... .. . ... ...
ROW FC : ... .. . ... ... ... : ... .. 5 ... ... ... : B-2 00 . P75 : ... .. . ... : ... .. . ... ... : ... .. 7 ... ... : ... .. 7 ... ... : ... .. . ... ...
ROW FD : ... .. . ... ... ... : ... .. 4 ... ... ... : A-2 00 . P7A : ... .. 0 ... : ... .. . ... ... : ... .. . ... ... : ... .. . ... ... : ... .. . ... ...
ROW FE : ... .. . ... ... ... : ... .. . ... ... ... : G-2 00 . P87 : ... .. . ... : ... .. . ... ... : ... .. 6 ... ... : ... .. 6 ... ... : ... .. . ... ...
ROW FF : ... .. . ... ... ... : ... .. . ... ... ... : F#2 00 . P77 : ... .. . ... : ... .. . ... ... : ... .. . ... ... : ... .. . ... ... : ... .. . ... ...

PATTERN 0F
ROW 00 : ... .. . ... ... ... : ... .. 3 ... ... ... : E-2 00 . P8F : 1-# 00 F ... : ... .. . ... ... : --- .. . ... ... : --- .. . ... ... : ... .. . ... ...
ROW 01 : ... .. . ... ... ... : ... .. . ... ... ... : D#2 00 . P85 : ... .. C ... : ... .. . ... ... : ... .. . ... ... : ... .. . ... ... : ... .. . ... ...
ROW 02 : ... .. . ... ... ... : ... .. 2 ... ... ... : D-2 00 . P7E : ... .. 6 ... : ... .. . ... ... : ... .. . ... ... : ... .. . ... ... : ... .. . ... ...
ROW 03 : ... .. . ... ... ... : ... .. . ... ... ... : C#2 00 . P79 : ... .. 3 ... : ... .. . ... ... : ... .. . ... ... : ... .. . ... ... : ... .. . ... ...
ROW 04 : ... .. . ... ... ... : ... .. . ... ... ... : C-2 00 . P77 : ... .. 2 ... : ... .. . ... ... : ... .. . ... ... : ... .. . ... ... : ... .. . ... ...
ROW 05 : ... .. 2 ... ... ... : ... .. 1 ... ... ... : B-1 00 . P78 : ... .. 0 ... : ... .. . ... ... : ... .. . ... ... : ... .. . ... ... : ... .. . ... ...
ROW 06 : ... .. . ... ... ... : ... .. . ... ... ... : A#1 00 . P7C : ... .. . ... : ... .. . ... ... : ... .. . ... ... : ... .. . ... ... : ... .. . ... ...
ROW 07 : ... .. . ... ... ... : ... .. . ... ... ... : --- .. . ... : ... .. . ... : ... .. . ... ... : ... .. . ... ... : ... .. . ... ... : --- .. . P86 ...
ROW 08 : G#3 00 F ... ... ... : B-2 00 8 ... ... ... : G#3 00 . P85 : ... .. F ... : ... .. . ... ... : C#4 01 A ... ... : E-4 01 A ... ... : C#2 01 F P80 ...
ROW 09 : ... .. E ... ... ... : ... .. 7 ... ... ... : F-3 00 . P86 : ... .. C ... : ... .. . ... ... : ... .. 9 ... ... : ... .. 9 ... ... : ... .. D ... ...
ROW 0A : ... .. D ... ... ... : ... .. . ... ... ... : D#3 00 . P7C : ... .. 6 ... : ... .. . ... ... : ... .. . ... ... : ... .. . ... ... : ... .. 8 ... ...
ROW 0B : ... .. A ... ... ... : ... .. 6 ... ... ... : C#3 00 . P76 : ... .. 3 ... : ... .. . ... ... : ... .. 8 ... ... : ... .. 8 ... ... : ... .. . ... ...
ROW 0C : ... .. . ... ... ... : ... .. 5 ... ... ... : B-2 00 . P75 : ... .. 2 ... : ... .. . ... ... : ... .. 7 ... ... : ... .. 7 ... ... : ... .. . ... ...
ROW 0D : ... .. . ... ... ... : ... .. 4 ... ... ... : A-2 00 . P7A : ... .. 0 ... : ... .. . ... ... : ... .. . ... ... : ... .. . ... ... : ... .. . ... ...
ROW 0E : ... .. . ... ... ... : ... .. . ... ... ... : G-2 00 . P87 : ... .. . ... : ... .. . ... ... : ... .. 6 ... ... : ... .. 6 ... ... : ... .. . ... ...
ROW 0F : ... .. . ... ... ... : ... .. . ... ... ... : F#2 00 . P77 : ... .. . ... : ... .. . ... ... : ... .. . ... ... : ... .. . ... ... : ... .. . ... ...
ROW 10 : ... .. . ... ... ... : ... .. 3 ... ... ... : E-2 00 . P8F : 5-# 00 F ... : ... .. . ... ... : --- .. . ... ... : --- .. . ... ... : ... .. . ... ...
ROW 11 : ... .. . ... ... ... : ... .. . ... ... ... : D#2 00 . P85 : ... .. C ... : ... .. . ... ... : ... .. . ... ... : ... .. . ... ... : ... .. . ... ...
ROW 12 : ... .. . ... ... ... : ... .. 2 ... ... ... : D-2 00 . P7E : ... .. 6 ... : ... .. . ... ... : ... .. . ... ... : ... .. . ... ... : ... .. . ... ...
ROW 13 : ... .. . ... ... ... : ... .. . ... ... ... : C#2 00 . P79 : ... .. 3 ... : ... .. . ... ... : ... .. . ... ... : ... .. . ... ... : ... .. . ... ...
ROW 14 : ... .. . ... ... ... : ... .. . ... ... ... : C-2 00 . P77 : ... .. 2 ... : ... .. . ... ... : ... .. . ... ... : ... .. . ... ... : ... .. . ... ...
ROW 15 : ... .. . ... ... ... : ... .. 1 ... ... ... : B-1 00 . P78 : ... .. 0 ... : ... .. . ... ... : ... .. . ... ... : ... .. . ... ... : ... .. . ... ...
ROW 16 : ... .. . ... ... ... : ... .. . ... ... ... : A#1 00 . P7C : ... .. . ... : ... .. . ... ... : ... .. . ... ... : ... .. . ... ... : ... .. . ... ...
ROW 17 : ... .. . ... ... ... : ... .. . ... ... ... : A-1 00 . P83 : ... .. . ... : ... .. . ... ... : ... .. . ... ... : ... .. . ... ... : ... .. . ... ...
ROW 18 : B-4 00 F ... ... ... : E-4 00 A ... ... ... : A#4 00 . P7E : D-# 00 A ... : ... .. . ... ... : F#3 01 9 ... V05 : D#4 01 9 ... V05 : C#3 01 F ... ...
ROW 19 : ... .. E ... ... ... : ... .. 9 ... ... ... : G#4 00 . ... : ... .. . ... : ... .. . ... ... : ... .. 8 ... ... : ... .. 8 ... ... : ... .. D ... ...
ROW 1A : ... .. D ... ... ... : ... .. 8 ... ... ... : F#4 00 . P7F : ... .. . ... : ... .. . ... ... : ... .. . ... ... : ... .. . ... ... : ... .. 8 ... ...
ROW 1B : ... .. A ... ... ... : ... .. 6 ... ... ... : E-4 00 . P83 : ... .. . ... : ... .. . ... ... : ... .. . ... ... : ... .. . ... ... : ... .. . ... ...
ROW 1C : ... .. . ... ... ... : ... .. . ... ... ... : D#4 00 . P7E : ... .. C ... : ... .. . ... ... : ... .. 7 ... ... : ... .. 7 ... ... : ... .. . ... ...
ROW 1D : ... .. . ... ... ... : ... .. . ... ... ... : C#4 00 . P85 : ... .. . ... : ... .. . ... ... : ... .. . ... ... : ... .. . ... ... : ... .. . ... ...
ROW 1E : ... .. . ... ... ... : ... .. . ... ... ... : C-4 00 . P82 : ... .. . ... : ... .. . ... ... : ... .. . ... ... : ... .. . ... ... : ... .. . ... ...
ROW 1F : ... .. . ... ... ... : ... .. . ... ... ... : B-3 00 . P7F : ... .. . ... : ... .. . ... ... : ... .. 6 ... ... : ... .. 6 ... ... : ... .. . ... ...
ROW 20 : ... .. . ... ... ... : F#2 00 8 ... ... ... : A-3 00 . P7C : ... .. A ... : ... .. . ... ... : --- .. . P7F ... : --- .. . ... ... : C-3 01 8 P8C ...
ROW 21 : ... .. . ... ... ... : ... .. 7 ... ... ... : G-3 00 . ... : ... .. . ... : ... .. . ... ... : ... .. . ... ... : ... .. . ... ... : ... .. . P7C ...
ROW 22 : ... .. . ... ... ... : ... .. . ... ... ... : F-3 00 . P80 : ... .. . ... : ... .. . ... ... : ... .. . ... ... : ... .. . ... ... : B-2 01 8 P89 ...
ROW 23 : ... .. . ... ... ... : ... .. 6 ... ... ... : D#3 00 . P89 : ... .. . ... : ... .. . ... ... : ... .. . ... ... : ... .. . ... ... : ... .. . P79 ...
ROW 24 : ... .. . ... ... ... : G#2 00 8 ... ... ... : D-3 00 . P7F : ... .. 7 ... : ... .. . ... ... : ... .. . ... ... : ... .. . ... ... : A#2 01 8 P87 ...
ROW 25 : ... .. 2 ... ... ... : ... .. 7 ... ... ... : C#3 00 . P77 : ... .. . ... : ... .. . ... ... : ... .. . ... ... : ... .. . ... ... : ... .. . P77 ...
ROW 26 : ... .. . ... ... ... : ... .. . ... ... ... : B-2 00 . P89 : ... .. . ... : ... .. . ... ... : ... .. . ... ... : ... .. . ... ... : A-2 01 8 P88 ...
ROW 27 : ... .. . ... ... ... : ... .. 6 ... ... ... : A#2 00 . P85 : ... .. . ... : ... .. . ... ... : ... .. . ... ... : ... .. . ... ... : ... .. . P78 ...
ROW 28 : ... .. 8 ... ... ... : A-2 00 8 ... ... ... : F-4 00 . P82 : ... .. 5 ... : ... .. . ... ... : F#3 01 2 P80 ... : D#4 01 2 ... ... : G#2 01 8 P8B ...
ROW 29 : ... .. 7 ... ... ... : ... .. 7 ... ... ... : D-4 00 . P81 : ... .. . ... : ... .. . ... ... : ... .. . ... ... : ... .. . ... ... : ... .. . P7B ...
ROW 2A : ... .. 6 ... ... ... : ... .. . ... ... ... : B-3 00 . P86 : ... .. . ... : ... .. . ... ... : ... .. . ... ... : ... .. . ... ... : G-2 01 8 P8F ...
ROW 2B : ... .. 5 ... ... ... : ... .. 6 ... ... ... : A-3 00 . P83 : ... .. . ... : ... .. . ... ... : ... .. . ... ... : ... .. . ... ... : ... .. . P7F ...
ROW 2C : ... .. . ... ... ... : B-2 00 8 ... ... ... : G-3 00 . ... : ... .. 3 ... : ... .. . ... ... : ... .. 1 ... ... : ... .. 1 ... ... : ... .. . P6F ...
ROW 2D : ... .. . ... ... ... : ... .. 7 ... ... ... : F-3 00 . P87 : ... .. . ... : ... .. . ... ... : ... .. . ... ... : ... .. . ... ... : F#2 01 8 P86 ...
ROW 2E : ... .. . ... ... ... : ... .. . ... ... ... : E-3 00 . P7B : ... .. . ... : ... .. . ... ... : ... .. . ... ... : ... .. . ... ... : ... .. . P76 ...
ROW 2F : ... .. . ... ... ... : ... .. 6 ... ... ... : --- .. . ... : ... .. . ... : ... .. . ... ... : ... .. . ... ... : ... .. . ... ... : --- .. . P85 ...
ROW 30 : C#4 00 F ... ... ... : C#3 00 8 ... ... ... : F-4 00 . P82 : 5-# 00 F ... : ... .. . ... ... : ... .. . ... ... : --- .. . ... ... : F#2 01 F P80 ...
ROW 31 : ... .. E ... ... ... : ... .. 7 ... ... ... : E-4 00 . P7D : ... .. C ... : ... .. . ... ... : ... .. . ... ... : ... .. . ... ... : ... .. D ... ...
ROW 32 : ... .. D ... ... ... : ... .. . ... ... ... : D-4 00 . P82 : ... .. 6 ... : ... .. . ... ... : ... .. . ... ... : ... .. . ... ... : ... .. 8 ... ...
ROW 33 : ... .. A ... ... ... : ... .. 6 ... ... ... : C#4 00 . P7F : ... .. 3 ... : ... .. . ... ... : ... .. . ... ... : ... .. . ... ... : ... .. . ... ...
ROW 34 : ... .. . ... ... ... : D#3 00 8 ... ... ... : C-4 00 . P7C : ... .. 2 ... : ... .. . ... ... : ... .. . ... ... : ... .. . ... ... : ... .. . ... ...
ROW 35 : ... .. . ... ... ... : ... .. 7 ... ... ... : A#3 00 . P87 : ... .. 0 ... : ... .. . ... ... : ... .. . ... ... : ... .. . ... ... : ... .. . ... ...
ROW 36 : ... .. . ... ... ... : ... .. . ... ... ... : A-3 00 . P86 : ... .. . ... : ... .. . ... ... : ... .. . ... ... : ... .. . ... ... : ... .. . ... ...
ROW 37 : ... .. . ... ... ... : ... .. 6 ... ... ... : --- .. . ... : ... .. . ... : ... .. . ... ... : ... .. . ... ... : ... .. . ... ... : --- .. . P84 ...
ROW 38 : D#4 00 F ... ... ... : E-3 00 8 ... ... ... : G#3 00 . P80 : 1-# 00 F ... : ... .. . ... ... : D#3 01 F ... V00 : ... .. . ... ... : G#2 01 F P80 ...
ROW 39 : ... .. E ... ... ... : ... .. 7 ... ... ... : ... .. . ... : ... .. C ... : ... .. . ... ... : ... .. D ... ... : ... .. . ... ... : ... .. D ... ...
ROW 3A : ... .. D ... ... ... : ... .. . ... ... ... : ... .. . ... : ... .. 6 ... : ... .. . ... ... : ... .. 8 ... ... : ... .. . ... ... : ... .. 8 ... ...
ROW 3B : ... .. A ... ... ... : ... .. 6 ... ... ... : ... .. . ... : ... .. 3 ... : ... .. . ... ... : ... .. . ... ... : ... .. . ... ... : ... .. . ... ...
ROW 3C : ... .. . ... ... ... : F#3 00 8 ... ... ... : ... .. . ... : ... .. 2 ... : ... .. . ... ... : ... .. . ... ... : ... .. . ... ... : ... .. . ... ...
ROW 3D : ... .. 2 ... ... ... : ... .. 7 ... ... ... : ... .. . ... : ... .. 0 ... : ... .. . ... ... : ... .. . ... ... : ... .. . ... ... : ... .. . ... ...
ROW 3E : ... .. . ... ... ... : ... .. . ... ... ... : ... .. . ... : ... .. . ... : ... .. . ... ... : ... .. . ... ... : ... .. . ... ... : ... .. . ... ...
ROW 3F : ... .. . ... ... ... : ... .. 6 ... ... ... : --- .. . ... : ... .. . ... : ... .. . ... ... : ... .. . ... ... : ... .. . ... ... : --- .. . P7F ...
ROW 40 : E-4 00 F ... ... ... : G#3 00 8 ... ... ... : G#3 00 . P85 : ... .. F ... : ... .. . ... ... : C#3 01 4 ... V05 : E-3 01 4 ... ... : A-2 01 F P80 ...
ROW 41 : ... .. E ... ... ... : ... .. 7 ... ... ... : F-3 00 . P86 : ... .. C ... : ... .. . ... ... : ... .. . ... ... : ... .. . ... ... : ... .. D ... ...
ROW 42 : ... .. D ... ... ... : ... .. . ... ... ... : D#3 00 . P7C : ... .. 6 ... : ... .. . ... ... : ... .. . ... ... : ... .. . ... ... : ... .. 8 ... ...
ROW 43 : ... .. A ... ... ... : ... .. 6 ... ... ... : C#3 00 . P76 : ... .. 3 ... : ... .. . ... ... : ... .. . ... ... : ... .. . ... ... : ... .. . ... ...
ROW 44 : ... .. . ... ... ... : ... .. 5 ... ... ... : B-2 00 . P75 : ... .. 2 ... : ... .. . ... ... : ... .. 3 ... ... : ... .. 3 ... ... : ... .. . ... ...
ROW 45 : ... .. . ... ... ... : ... .. 4 ... ... ... : A-2 00 . P7A : ... .. 0 ... : ... .. . ... ... : ... .. . ... ... : ... .. . ... ... : ... .. . ... ...
ROW 46 : ... .. . ... ... ... : ... .. . ... ... ... : G-2 00 . P87 : ... .. . ... : ... .. . ... ... : ... .. . ... ... : ... .. . ... ... : ... .. . ... ...
ROW 47 : ... .. . ... ... ... : ... .. . ... ... ... : --- .. . ... : ... .. . ... : ... .. . ... ... : ... .. . ... ... : ... .. . ... ... : --- .. . ... ...
ROW 48 : ... .. . ... ... ... : C#3 00 7 ... ... ... : A-2 00 . P80 : ... .. F ... : ... .. . ... ... : ... .. . ... ... : ... .. . ... ... : A-1 01 F ... ...
ROW 49 : ... .. . ... ... ... : ... .. A ... ... ... : ... .. . ... : ... .. C ... : ... .. . ... ... : ... .. . ... ... : ... .. . ... ... : ... .. D ... ...
ROW 4A : ... .. . ... ... ... : ... .. 7 ... ... ... : ... .. . ... : ... .. 6 ... : ... .. . ... ... : ... .. . ... ... : ... .. . ... ... : ... .. 8 ... ...
ROW 4B : ... .. . ... ... ... : ... .. 0 ... V00 ... : ... .. . ... : ... .. 3 ... : ... .. . ... ... : ... .. . ... ... : ... .. . ... ... : ... .. . ... ...
ROW 4C : ... .. . ... ... ... : C#3 00 5 P80 V01 ... : ... .. . ... : ... .. 2 ... : ... .. . ... ... : ... .. . ... ... : ... .. . ... ... : ... .. . ... ...
ROW 4D : ... .. 2 ... ... ... : ... .. 8 ... ... ... : ... .. . ... : ... .. 0 ... : ... .. . ... ... : ... .. . ... ... : ... .. . ... ... : ... .. . ... ...
ROW 4E : ... .. . ... ... ... : ... .. 0 ... V00 ... : ... .. . ... : ... .. . ... : ... .. . ... ... : ... .. . ... ... : ... .. . ... ... : ... .. . ... ...
ROW 4F : ... .. . ... ... ... : ... .. . ... ... ... : --- .. . ... : ... .. . ... : ... .. . ... ... : ... .. . ... ... : ... .. . ... ... : --- .. . P7F ...
ROW 50 : F#4 00 F ... ... ... : E-3 00 7 P80 V01 ... : B-3 00 . P7D : 5-# 00 F ... : ... .. . ... ... : ... .. . ... ... : ... .. . ... ... : G#1 01 F P80 ...
ROW 51 : ... .. E ... ... ... : ... .. A ... ... ... : A#3 00 . P7C : ... .. C ... : ... .. . ... ... : ... .. . ... ... : ... .. . ... ... : ... .. D ... ...
ROW 52 : ... .. D ... ... ... : ... .. 7 ... ... ... : A-3 00 . P7B : ... .. 6 ... : ... .. . ... ... : ... .. . ... ... : ... .. . ... ... : ... .. 8 ... ...
ROW 53 : ... .. A ... ... ... : ... .. 0 ... V00 ... : G#3 00 . ... : ... .. 3 ... : ... .. . ... ... : ... .. . ... ... : ... .. . ... ... : ... .. . ... ...
ROW 54 : ... .. . ... ... ... : E-3 00 5 P80 V01 ... : G-3 00 . P7C : ... .. 2 ... : ... .. . ... ... : ... .. . ... ... : ... .. . ... ... : ... .. . ... ...
ROW 55 : ... .. 2 ... ... ... : ... .. 8 ... ... ... : F#3 00 . P7E : ... .. 0 ... : ... .. . ... ... : ... .. . ... ... : ... .. . ... ... : ... .. . ... ...
ROW 56 : ... .. . ... ... ... : ... .. 0 ... V00 ... : F-3 00 . P81 : ... .. . ... : ... .. . ... ... : ... .. . ... ... : ... .. . ... ... : ... .. . ... ...
ROW 57 : ... .. . ... ... ... : ... .. . ... ... ... : --- .. . ... : ... .. . ... : ... .. . ... ... : ... .. . ... ... : ... .. . ... ... : --- .. . P7E ...
ROW 58 : D#4 00 F ... ... ... : C#4 00 7 P80 V01 ... : A-2 00 . P80 : 1-# 00 F ... : ... .. . ... ... : ... .. . ... ... : ... .. . ... ... : A-1 01 F P80 ...
ROW 59 : ... .. E ... ... ... : ... .. A ... ... ... : ... .. . ... : ... .. C ... : ... .. . ... ... : ... .. . ... ... : ... .. . ... ... : ... .. D ... ...
ROW 5A : ... .. D ... ... ... : ... .. 7 ... ... ... : ... .. . ... : ... .. 6 ... : ... .. . ... ... : ... .. . ... ... : ... .. . ... ... : ... .. 8 ... ...
ROW 5B : ... .. A ... ... ... : ... .. 0 ... V00 ... : ... .. . ... : ... .. 3 ... : ... .. . ... ... : ... .. . ... ... : ... .. . ... ... : ... .. . ... ...
ROW 5C : ... .. . ... ... ... : C#4 00 5 P80 V01 ... : ... .. . ... : ... .. 2 ... : ... .. . ... ... : ... .. . ... ... : ... .. . ... ... : ... .. . ... ...
ROW 5D : ... .. . ... ... ... : ... .. 8 ... ... ... : ... .. . ... : ... .. 0 ... : ... .. . ... ... : ... .. . ... ... : ... .. . ... ... : ... .. . ... ...
ROW 5E : ... .. . ... ... ... : ... .. 0 ... V00 ... : ... .. . ... : ... .. . ... : ... .. . ... ... : ... .. . ... ... : ... .. . ... ... : ... .. . ... ...
ROW 5F : ... .. . ... ... ... : ... .. . ... ... ... : ... .. . ... : ... .. . ... : ... .. . ... ... : ... .. . ... ... : ... .. . ... ... : ... .. . ... ...
ROW 60 : ... .. . ... ... ... : C#3 00 7 P80 V01 ... : G#3 00 . P85 : C-# 00 8 ... : ... .. . ... ... : A-1 01 6 ... ... : ... .. 4 ... ... : ... .. . ... ...
ROW 61 : ... .. . ... ... ... : ... .. A ... ... ... : F-3 00 . P86 : ... .. 6 ... : ... .. . ... ... : ... .. 5 ... ... : ... .. . ... ... : ... .. . ... ...
ROW 62 : ... .. . ... ... ... : ... .. 7 ... ... ... : D#3 00 . P7C : ... .. 3 ... : ... .. . ... ... : ... .. . ... ... : ... .. . ... ... : ... .. . ... ...
ROW 63 : ... .. . ... ... ... : ... .. 0 ... V00 ... : C#3 00 . P76 : ... .. 1 ... : ... .. . ... ... : ... .. . ... ... : ... .. . ... ... : ... .. . ... ...
ROW 64 : ... .. . ... ... ... : C#3 00 5 P80 V01 ... : B-2 00 . P75 : ... .. . ... : ... .. . ... ... : ... .. 4 ... ... : ... .. 3 ... ... : ... .. . ... ...
ROW 65 : ... .. 2 ... ... ... : ... .. 8 ... ... ... : A-2 00 . P7A : ... .. 0 ... : ... .. . ... ... : ... .. . ... ... : ... .. . ... ... : ... .. . ... ...
ROW 66 : ... .. . ... ... ... : ... .. 0 ... V00 ... : G-2 00 . P87 : ... .. . ... : ... .. . ... ... : ... .. . ... ... : ... .. . ... ... : ... .. . ... ...
ROW 67 : ... .. . ... ... ... : ... .. . ... ... ... : --- .. . ... : ... .. . ... : ... .. . ... ... : ... .. . ... ... : ... .. . ... ... : --- .. . P7F ...
ROW 68 : E-4 00 F ... ... ... : D#3 00 7 P80 V01 ... : G#3 00 . P80 : 1-# 00 F ... : ... .. . ... ... : ... .. . ... ... : D#3 01 4 ... ... : G#2 01 F P80 ...
ROW 69 : ... .. E ... ... ... : ... .. A ... ... ... : ... .. . ... : ... .. C ... : ... .. . ... ... : ... .. . ... ... : ... .. . ... ... : ... .. D ... ...
ROW 6A : ... .. D ... ... ... : ... .. 7 ... ... ... : ... .. . ... : ... .. 6 ... : ... .. . ... ... : ... .. . ... ... : ... .. . ... ... : ... .. 8 ... ...
ROW 6B : ... .. A ... ... ... : ... .. 0 ... V00 ... : ... .. . ... : ... .. 3 ... : ... .. . ... ... : ... .. . ... ... : ... .. . ... ... : ... .. . ... ...
ROW 6C : ... .. . ... ... ... : D#3 00 5 P80 V01 ... : ... .. . ... : ... .. 2 ... : ... .. . ... ... : ... .. . ... ... : ... .. 3 ... ... : ... .. . ... ...
ROW 6D : ... .. . ... ... ... : ... .. 8 ... ... ... : ... .. . ... : ... .. 0 ... : ... .. . ... ... : ... .. . ... ... : ... .. . ... ... : ... .. . ... ...
ROW 6E : ... .. . ... ... ... : ... .. 0 ... V00 ... : ... .. . ... : ... .. . ... : ... .. . ... ... : ... .. . ... ... : ... .. . ... ... : ... .. . ... ...
ROW 6F : ... .. . ... ... ... : ... .. . ... ... ... : --- .. . ... : ... .. . ... : ... .. . ... ... : ... .. . ... ... : ... .. . ... ... : --- .. . P7F ...
ROW 70 : ... .. . ... ... ... : E-3 00 7 P80 V01 ... : B-3 00 . P7D : 5-# 00 F ... : ... .. . ... ... : ... .. . ... ... : C#3 01 4 ... ... : E-2 01 F P80 ...
ROW 71 : ... .. . ... ... ... : ... .. A ... ... ... : A#3 00 . P7C : ... .. C ... : ... .. . ... ... : ... .. . ... ... : ... .. . ... ... : ... .. D ... ...
ROW 72 : ... .. . ... ... ... : ... .. 7 ... ... ... : A-3 00 . P7B : ... .. 6 ... : ... .. . ... ... : ... .. . ... ... : ... .. . ... ... : ... .. 8 ... ...
ROW 73 : ... .. . ... ... ... : ... .. 0 ... V00 ... : G#3 00 . ... : ... .. 3 ... : ... .. . ... ... : ... .. . ... ... : ... .. . ... ... : ... .. . ... ...
ROW 74 : ... .. . ... ... ... : E-3 00 5 P80 V01 ... : G-3 00 . P7C : ... .. 2 ... : ... .. . ... ... : ... .. . ... ... : ... .. 3 ... ... : ... .. . ... ...
ROW 75 : ... .. 2 ... ... ... : ... .. 8 ... ... ... : F#3 00 . P7E : ... .. 0 ... : ... .. . ... ... : ... .. . ... ... : ... .. . ... ... : ... .. . ... ...
ROW 76 : ... .. . ... ... ... : ... .. 0 ... V00 ... : F-3 00 . P81 : ... .. . ... : ... .. . ... ... : ... .. . ... ... : ... .. . ... ... : ... .. . ... ...
ROW 77 : ... .. . ... ... ... : ... .. . ... ... ... : --- .. . ... : ... .. . ... : ... .. . ... ... : ... .. . ... ... : ... .. . ... ... : --- .. . P89 ...
ROW 78 : C#4 00 F ... ... ... : D#4 00 7 P80 V01 ... : G#2 00 . P80 : 1-# 00 8 ... : ... .. . ... ... : ... .. . ... ... : B-2 01 4 ... ... : G#1 01 F P80 ...
ROW 79 : ... .. E ... ... ... : ... .. A ... ... ... : ... .. . ... : ... .. 6 ... : ... .. . ... ... : ... .. . ... ... : ... .. . ... ... : ... .. D ... ...
ROW 7A : ... .. D ... ... ... : ... .. 7 ... ... ... : ... .. . ... : ... .. 3 ... : ... .. . ... ... : ... .. . ... ... : ... .. . ... ... : ... .. 8 ... ...
ROW 7B : ... .. A ... ... ... : ... .. 0 ... V00 ... : ... .. . ... : ... .. 1 ... : ... .. . ... ... : ... .. . ... ... : ... .. . ... ... : ... .. . ... ...
ROW 7C : ... .. . ... ... ... : D#4 00 5 P80 V01 ... : ... .. . ... : ... .. . ... : ... .. . ... ... : ... .. . ... ... : ... .. 3 ... ... : ... .. . ... ...
ROW 7D : ... .. . ... ... ... : ... .. 8 ... ... ... : ... .. . ... : ... .. 0 ... : ... .. . ... ... : ... .. . ... ... : ... .. . ... ... : ... .. . ... ...
ROW 7E : ... .. . ... ... ... : ... .. 0 ... V00 ... : ... .. . ... : ... .. . ... : ... .. . ... ... : ... .. . ... ... : ... .. . ... ... : ... .. . ... ...
ROW 7F : ... .. . ... ... ... : ... .. . ... ... ... : --- .. . ... : ... .. . ... : ... .. . ... ... : ... .. . ... ... : ... .. . ... ... : --- .. . P7E ...
ROW 80 : ... .. . ... ... ... : E-3 00 7 P80 V01 ... : G#3 00 . P85 : ... .. F ... : ... .. . ... ... : ... .. . ... ... : C#3 01 4 ... ... : A-1 01 F P80 ...
ROW 81 : ... .. . ... ... ... : ... .. A ... ... ... : F-3 00 . P86 : ... .. C ... : ... .. . ... ... : ... .. . ... ... : ... .. . ... ... : ... .. D ... ...
ROW 82 : ... .. . ... ... ... : ... .. 7 ... ... ... : D#3 00 . P7C : ... .. 6 ... : ... .. . ... ... : ... .. . ... ... : ... .. . ... ... : ... .. 8 ... ...
ROW 83 : ... .. . ... ... ... : ... .. 0 ... V00 ... : C#3 00 . P76 : ... .. 3 ... : ... .. . ... ... : ... .. . ... ... : ... .. . ... ... : ... .. . ... ...
ROW 84 : ... .. . ... ... ... : E-3 00 5 P80 V01 ... : B-2 00 . P75 : ... .. 2 ... : ... .. . ... ... : ... .. . ... ... : ... .. 3 ... ... : ... .. . ... ...
ROW 85 : ... .. 2 ... ... ... : ... .. 8 ... ... ... : A-2 00 . P7A : ... .. 0 ... : ... .. . ... ... : ... .. . ... ... : ... .. . ... ... : ... .. . ... ...
ROW 86 : ... .. . ... ... ... : ... .. 0 ... V00 ... : G-2 00 . P87 : ... .. . ... : ... .. . ... ... : ... .. . ... ... : ... .. . ... ... : ... .. . ... ...
ROW 87 : ... .. . ... ... ... : ... .. . ... ... ... : --- .. . ... : ... .. . ... : ... .. . ... ... : ... .. . ... ... : ... .. . ... ... : --- .. . P7F ...
ROW 88 : B-3 00 F ... ... ... : C#3 00 7 P80 V01 ... : A-2 00 . P80 : ... .. F ... : ... .. . ... ... : ... .. . ... ... : ... .. . ... ... : A-1 01 F P80 ...
ROW 89 : ... .. E ... ... ... : ... .. A ... ... ... : ... .. . ... : ... .. C ... : ... .. . ... ... : ... .. . ... ... : ... .. . ... ... : ... .. D ... ...
ROW 8A : ... .. D ... ... ... : ... .. 7 ... ... ... : ... .. . ... : ... .. 6 ... : ... .. . ... ... : ... .. . ... ... : ... .. . ... ... : ... .. 8 ... ...
ROW 8B : ... .. A ... ... ... : ... .. 0 ... V00 ... : ... .. . ... : ... .. 3 ... : ... .. . ... ... : ... .. . ... ... : ... .. . ... ... : ... .. . ... ...
ROW 8C : ... .. . ... ... ... : C#3 00 5 P80 V01 ... : ... .. . ... : ... .. 2 ... : ... .. . ... ... : ... .. . ... ... : ... .. . ... ... : ... .. . ... ...
ROW 8D : ... .. . ... ... ... : ... .. 8 ... ... ... : ... .. . ... : ... .. 0 ... : ... .. . ... ... : ... .. . ... ... : ... .. . ... ... : ... .. . ... ...
ROW 8E : ... .. . ... ... ... : ... .. 0 ... V00 ... : ... .. . ... : ... .. . ... : ... .. . ... ... : ... .. . ... ... : ... .. . ... ... : ... .. . ... ...
ROW 8F : ... .. . ... ... ... : ... .. . ... ... ... : --- .. . ... : ... .. . ... : ... .. . ... ... : ... .. . ... ... : ... .. . ... ... : --- .. . P7F ...
ROW 90 : ... .. . ... ... ... : D#3 00 7 P80 V01 ... : B-3 00 . P7D : 5-# 00 F ... : ... .. . ... ... : ... .. . ... ... : B-2 01 4 ... ... : G#1 01 F P80 ...
ROW 91 : ... .. . ... ... ... : ... .. A ... ... ... : A#3 00 . P7C : ... .. C ... : ... .. . ... ... : ... .. . ... ... : ... .. . ... ... : ... .. D ... ...
ROW 92 : ... .. . ... ... ... : ... .. 7 ... ... ... : A-3 00 . P7B : ... .. 6 ... : ... .. . ... ... : ... .. . ... ... : ... .. . ... ... : ... .. 8 ... ...
ROW 93 : ... .. . ... ... ... : ... .. 0 ... V00 ... : G#3 00 . ... : ... .. 3 ... : ... .. . ... ... : ... .. . ... ... : ... .. . ... ... : ... .. . ... ...
ROW 94 : ... .. . ... ... ... : D#3 00 5 P80 V01 ... : G-3 00 . P7C : ... .. 2 ... : ... .. . ... ... : ... .. . ... ... : ... .. 3 ... ... : ... .. . ... ...
ROW 95 : ... .. 2 ... ... ... : ... .. 8 ... ... ... : F#3 00 . P7E : ... .. 0 ... : ... .. . ... ... : ... .. . ... ... : ... .. . ... ... : ... .. . ... ...
ROW 96 : ... .. . ... ... ... : ... .. 0 ... V00 ... : F-3 00 . P81 : ... .. . ... : ... .. . ... ... : ... .. . ... ... : ... .. . ... ... : ... .. . ... ...
ROW 97 : ... .. . ... ... ... : ... .. . ... ... ... : --- .. . ... : ... .. . ... : ... .. . ... ... : ... .. . ... ... : ... .. . ... ... : --- .. . P7E ...
ROW 98 : C#4 00 F ... ... ... : B-3 00 7 P80 V01 ... : A-2 00 . P80 : 1-# 00 F ... : ... .. . ... ... : ... .. . ... ... : ... .. . ... ... : A-1 01 F P80 ...
ROW 99 : ... .. E ... ... ... : ... .. A ... ... ... : ... .. . ... : ... .. C ... : ... .. . ... ... : ... .. . ... ... : ... .. . ... ... : ... .. D ... ...
ROW 9A : ... .. D ... ... ... : ... .. 7 ... ... ... : ... .. . ... : ... .. 6 ... : ... .. . ... ... : ... .. . ... ... : ... .. . ... ... : ... .. 8 ... ...
ROW 9B : ... .. A ... ... ... : ... .. 0 ... V00 ... : ... .. . ... : ... .. 3 ... : ... .. . ... ... : ... .. . ... ... : ... .. . ... ... : ... .. . ... ...
ROW 9C : ... .. . ... ... ... : B-3 00 5 P80 V01 ... : ... .. . ... : ... .. 2 ... : ... .. . ... ... : ... .. . ... ... : ... .. . ... ... : ... .. . ... ...
ROW 9D : ... .. . ... ... ... : ... .. 8 ... ... ... : ... .. . ... : ... .. 0 ... : ... .. . ... ... : ... .. . ... ... : ... .. . ... ... : ... .. . ... ...
ROW 9E : ... .. . ... ... ... : ... .. 0 ... V00 ... : ... .. . ... : ... .. . ... : ... .. . ... ... : ... .. . ... ... : ... .. . ... ... : ... .. . ... ...
ROW 9F : ... .. . ... ... ... : ... .. . ... ... ... : ... .. . ... : ... .. . ... : ... .. . ... ... : ... .. . ... ... : ... .. . ... ... : ... .. . ... ...
ROW A0 : ... .. . ... ... ... : D#3 00 7 P80 V01 ... : G#3 00 . P85 : C-# 00 8 ... : ... .. . ... ... : B-1 01 6 ... ... : F#2 01 4 ... ... : ... .. . ... ...
ROW A1 : ... .. . ... ... ... : ... .. A ... ... ... : F-3 00 . P86 : ... .. 6 ... : ... .. . ... ... : ... .. 5 ... ... : ... .. . ... ... : ... .. . ... ...
ROW A2 : ... .. . ... ... ... : ... .. 7 ... ... ... : D#3 00 . P7C : ... .. 3 ... : ... .. . ... ... : ... .. . ... ... : ... .. . ... ... : ... .. . ... ...
ROW A3 : ... .. . ... ... ... : ... .. 0 ... V00 ... : C#3 00 . P76 : ... .. 1 ... : ... .. . ... ... : ... .. . ... ... : ... .. . ... ... : ... .. . ... ...
ROW A4 : ... .. . ... ... ... : D#3 00 5 P80 V01 ... : B-2 00 . P75 : ... .. . ... : ... .. . ... ... : ... .. 4 ... ... : ... .. 3 ... ... : ... .. . ... ...
ROW A5 : ... .. 2 ... ... ... : ... .. 8 ... ... ... : A-2 00 . P7A : ... .. 0 ... : ... .. . ... ... : ... .. . ... ... : ... .. . ... ... : ... .. . ... ...
ROW A6 : ... .. . ... ... ... : ... .. 0 ... V00 ... : G-2 00 . P87 : ... .. . ... : ... .. . ... ... : ... .. . ... ... : ... .. . ... ... : ... .. . ... ...
ROW A7 : ... .. . ... ... ... : ... .. . ... ... ... : F#2 00 . P77 : ... .. . ... : ... .. . ... ... : ... .. . ... ... : ... .. . ... ... : ... .. . ... ...
ROW A8 : ... .. 1 ... ... ... : E-3 00 7 P80 V01 ... : E-2 00 . P8F : 1-# 00 F ... : ... .. . ... ... : G#1 01 6 ... ... : E-2 01 4 ... ... : ... .. . ... ...
ROW A9 : ... .. . ... ... ... : ... .. A ... ... ... : D#2 00 . P85 : ... .. C ... : ... .. . ... ... : ... .. 5 ... ... : ... .. . ... ... : ... .. . ... ...
ROW AA : ... .. . ... ... ... : ... .. 7 ... ... ... : D-2 00 . P7E : ... .. 6 ... : ... .. . ... ... : ... .. . ... ... : ... .. . ... ... : ... .. . ... ...
ROW AB : ... .. 0 ... ... ... : ... .. 0 ... V00 ... : C#2 00 . P79 : ... .. 3 ... : ... .. . ... ... : ... .. . ... ... : ... .. . ... ... : ... .. . ... ...
ROW AC : ... .. . ... ... ... : E-3 00 5 P80 V01 ... : C-2 00 . P77 : ... .. 2 ... : ... .. . ... ... : ... .. 4 ... ... : ... .. 3 ... ... : ... .. . ... ...
ROW AD : ... .. . ... ... ... : ... .. 8 ... ... ... : B-1 00 . P78 : ... .. 0 ... : ... .. . ... ... : ... .. . ... ... : ... .. . ... ... : ... .. . ... ...
ROW AE : ... .. . ... ... ... : ... .. 0 ... V00 ... : A#1 00 . P7C : ... .. . ... : ... .. . ... ... : ... .. . ... ... : ... .. . ... ... : ... .. . ... ...
ROW AF : ... .. . ... ... ... : ... .. . ... ... ... : --- .. . ... : ... .. . ... : ... .. . ... ... : ... .. . ... ... : ... .. . ... ... : --- .. . P7F ...
ROW B0 : F#3 00 F P80 ... ... : F#3 00 7 P80 V01 ... : B-3 00 . P7D : 5-# 00 F ... : ... .. . ... ... : B-1 01 6 ... ... : D#2 01 4 ... ... : B-1 01 F P80 ...
ROW B1 : ... .. E ... ... ... : ... .. A ... ... ... : A#3 00 . P7C : ... .. C ... : ... .. . ... ... : ... .. 5 ... ... : ... .. . ... ... : ... .. D ... ...
ROW B2 : ... .. D ... ... ... : ... .. 7 ... ... ... : A-3 00 . P7B : ... .. 6 ... : ... .. . ... ... : ... .. . ... ... : ... .. . ... ... : ... .. 8 ... ...
ROW B3 : ... .. A ... ... ... : ... .. 0 ... V00 ... : G#3 00 . ... : ... .. 3 ... : ... .. . ... ... : ... .. . ... ... : ... .. . ... ... : ... .. . ... ...
ROW B4 : ... .. . ... ... ... : F#3 00 5 P80 V01 ... : G-3 00 . P7C : ... .. 2 ... : ... .. . ... ... : ... .. 4 ... ... : ... .. 3 ... ... : ... .. . ... ...
ROW B5 : ... .. . ... ... ... : ... .. 8 ... ... ... : F#3 00 . P7E : ... .. 0 ... : ... .. . ... ... : ... .. . ... ... : ... .. . ... ... : ... .. . ... ...
ROW B6 : ... .. . ... ... ... : ... .. 0 ... V00 ... : F-3 00 . P81 : ... .. . ... : ... .. . ... ... : ... .. . ... ... : ... .. . ... ... : ... .. . ... ...
ROW B7 : ... .. . ... ... ... : ... .. . ... ... ... : --- .. . ... : ... .. . ... : ... .. . ... ... : ... .. . ... ... : ... .. . ... ... : --- .. . P86 ...
ROW B8 : E-3 00 F ... ... ... : B-3 00 A P80 V01 ... : C#3 00 . P80 : C-# 00 8 ... : ... .. . ... ... : C#1 01 6 ... ... : C#2 01 4 ... ... : C#2 01 F P80 ...
ROW B9 : ... .. E ... ... ... : ... .. 9 ... ... ... : ... .. . ... : ... .. 6 ... : ... .. . ... ... : ... .. 5 ... ... : ... .. . ... ... : ... .. D ... ...
ROW BA : ... .. D ... ... ... : ... .. 8 ... ... ... : ... .. . ... : ... .. 3 ... : ... .. . ... ... : ... .. . ... ... : ... .. . ... ... : ... .. 8 ... ...
ROW BB : ... .. A ... ... ... : ... .. 6 ... ... ... : ... .. . ... : ... .. 1 ... : ... .. . ... ... : ... .. . ... ... : ... .. . ... ... : ... .. . ... ...
ROW BC : ... .. . ... ... ... : ... .. . ... ... ... : ... .. . ... : ... .. . ... : ... .. . ... ... : ... .. 4 ... ... : ... .. 3 ... ... : ... .. . ... ...
ROW BD : ... .. . ... ... ... : ... .. . ... ... ... : ... .. . ... : ... .. 0 ... : ... .. . ... ... : ... .. . ... ... : ... .. . ... ... : ... .. . ... ...
ROW BE : ... .. . ... ... ... : ... .. . ... ... ... : ... .. . ... : ... .. . ... : ... .. . ... ... : ... .. . ... ... : ... .. . ... ... : ... .. . ... ...
ROW BF : ... .. . ... ... ... : ... .. . ... ... ... : ... .. . ... : ... .. . ... : ... .. . ... ... : ... .. . ... ... : ... .. . ... ... : ... .. . ... ...
ROW C0 : ... .. . ... ... ... : C-4 00 6 P7C ... ... : G#3 00 . P85 : 1-# 00 F ... : ... .. . ... ... : ... .. . ... ... : ... .. . ... ... : ... .. . ... ...
ROW C1 : ... .. . ... ... ... : ... .. . P81 ... ... : F-3 00 . P86 : ... .. C ... : ... .. . ... ... : ... .. . ... ... : ... .. . ... ... : ... .. . ... ...
ROW C2 : ... .. . ... ... ... : ... .. . P7F ... ... : D#3 00 . P7C : ... .. 6 ... : ... .. . ... ... : ... .. . ... ... : ... .. . ... ... : ... .. . ... ...
ROW C3 : ... .. . ... ... ... : B-3 00 6 P84 ... ... : C#3 00 . P76 : ... .. 3 ... : ... .. . ... ... : ... .. . ... ... : ... .. . ... ... : ... .. . ... ...
ROW C4 : ... .. . ... ... ... : ... .. . P7C ... ... : B-2 00 . P75 : ... .. 2 ... : ... .. . ... ... : ... .. . ... ... : ... .. . ... ... : ... .. . ... ...
ROW C5 : ... .. . ... ... ... : A#3 00 6 P83 ... ... : A-2 00 . P7A : ... .. 0 ... : ... .. . ... ... : ... .. . ... ... : ... .. . ... ... : ... .. . ... ...
ROW C6 : ... .. . ... ... ... : ... .. . P81 ... ... : G-2 00 . P87 : ... .. . ... : ... .. . ... ... : ... .. . ... ... : ... .. . ... ... : ... .. . ... ...
ROW C7 : ... .. . ... ... ... : ... .. . P86 ... ... : --- .. . ... : ... .. . ... : ... .. . ... ... : ... .. . ... ... : ... .. . ... ... : --- .. . ... ...
ROW C8 : C#4 00 F ... ... ... : F#4 00 A P80 ... ... : C#2 00 . P80 : ... .. F ... : ... .. . ... ... : B-3 01 4 ... ... : B-2 01 4 ... ... : D#1 01 F ... ...
ROW C9 : ... .. E ... ... ... : ... .. 9 ... ... ... : ... .. . ... : ... .. C ... : ... .. . ... ... : ... .. . ... ... : ... .. . ... ... : ... .. D ... ...
ROW CA : ... .. D ... ... ... : ... .. 8 ... ... ... : ... .. . ... : ... .. 6 ... : ... .. . ... ... : ... .. . ... ... : ... .. . ... ... : ... .. 8 ... ...
ROW CB : ... .. A ... ... ... : ... .. 6 ... ... ... : ... .. . ... : ... .. 3 ... : ... .. . ... ... : ... .. . ... ... : ... .. . ... ... : ... .. . ... ...
ROW CC : ... .. . ... ... ... : ... .. . ... ... ... : ... .. . ... : ... .. 2 ... : ... .. . ... ... : C#4 01 4 ... ... : C#3 01 4 ... ... : ... .. . ... ...
ROW CD : D-4 00 A P7D ... ... : ... .. . ... ... ... : ... .. . ... : ... .. 0 ... : ... .. . ... ... : ... .. . ... ... : ... .. . ... ... : ... .. . ... ...
ROW CE : D#4 00 A P7C ... ... : ... .. . ... ... ... : ... .. . ... : ... .. . ... : ... .. . ... ... : ... .. . ... ... : ... .. . ... ... : ... .. . ... ...
ROW CF : ... .. . P80 ... ... : ... .. . ... ... ... : --- .. . ... : ... .. . ... : ... .. . ... ... : ... .. . ... ... : ... .. . ... ... : --- .. . P81 ...
ROW D0 : ... .. . ... ... ... : B-2 00 7 ... ... ... : B-3 00 . P7D : 5-# 00 F ... : ... .. . ... ... : D#4 01 4 ... ... : D#3 01 4 ... ... : D#1 01 F P80 ...
ROW D1 : ... .. . ... ... ... : ... .. A ... ... ... : A#3 00 . P7C : ... .. C ... : ... .. . ... ... : ... .. . ... ... : ... .. . ... ... : ... .. D ... ...
ROW D2 : ... .. . ... ... ... : ... .. 7 ... ... ... : A-3 00 . P7B : ... .. 6 ... : ... .. . ... ... : ... .. . ... ... : ... .. . ... ... : ... .. 8 ... ...
ROW D3 : ... .. . ... ... ... : ... .. 0 ... V00 ... : G#3 00 . ... : ... .. 3 ... : ... .. . ... ... : ... .. . ... ... : ... .. . ... ... : ... .. . ... ...
ROW D4 : ... .. . ... ... ... : B-2 00 5 P80 V01 ... : G-3 00 . P7C : ... .. 2 ... : ... .. . ... ... : E-4 01 4 ... ... : E-3 01 4 ... ... : ... .. . ... ...
ROW D5 : ... .. . ... ... ... : ... .. 8 ... ... ... : F#3 00 . P7E : ... .. 0 ... : ... .. . ... ... : ... .. . ... ... : ... .. . ... ... : ... .. . ... ...
ROW D6 : ... .. . ... ... ... : ... .. 0 ... V00 ... : F-3 00 . P81 : ... .. . ... : ... .. . ... ... : ... .. . ... ... : ... .. . ... ... : ... .. . ... ...
ROW D7 : ... .. . ... ... ... : ... .. . ... ... ... : --- .. . ... : ... .. . ... : ... .. . ... ... : ... .. . ... ... : ... .. . ... ... : --- .. . P81 ...
ROW D8 : B-3 00 F ... ... ... : D#4 00 A P80 V01 ... : D#2 00 . P80 : 1-# 00 F ... : ... .. . ... ... : F#4 01 4 ... ... : F#3 01 4 ... ... : D#1 01 F P80 ...
ROW D9 : ... .. E ... ... ... : ... .. 9 ... ... ... : ... .. . ... : ... .. C ... : ... .. . ... ... : ... .. . ... ... : ... .. . ... ... : ... .. D ... ...
ROW DA : ... .. D ... ... ... : ... .. 8 ... ... ... : ... .. . ... : ... .. 6 ... : ... .. . ... ... : ... .. . ... ... : ... .. . ... ... : ... .. 8 ... ...
ROW DB : ... .. A ... ... ... : ... .. 6 ... ... ... : ... .. . ... : ... .. 3 ... : ... .. . ... ... : ... .. . ... ... : ... .. . ... ... : ... .. . ... ...
ROW DC : ... .. . ... ... ... : ... .. . ... ... ... : ... .. . ... : ... .. 2 ... : ... .. . ... ... : G#4 01 4 ... ... : G#3 01 4 ... ... : ... .. . ... ...
ROW DD : ... .. . ... ... ... : ... .. . ... ... ... : ... .. . ... : ... .. 0 ... : ... .. . ... ... : ... .. . ... ... : ... .. . ... ... : ... .. . ... ...
ROW DE : ... .. . ... ... ... : ... .. . ... ... ... : ... .. . ... : ... .. . ... : ... .. . ... ... : ... .. . ... ... : ... .. . ... ... : ... .. . ... ...
ROW DF : ... .. . ... ... ... : ... .. . ... ... ... : --- .. . ... : ... .. . ... : ... .. . ... ... : ... .. . ... ... : ... .. . ... ... : --- .. . P81 ...
ROW E0 : ... .. . ... ... ... : ... .. . ... ... ... : G#3 00 . P85 : C-# 00 8 ... : ... .. . ... ... : D#4 01 4 ... ... : D#3 01 4 ... ... : E-1 01 F P80 ...
ROW E1 : ... .. . ... ... ... : ... .. . ... ... ... : F-3 00 . P86 : ... .. 6 ... : ... .. . ... ... : ... .. . ... ... : ... .. . ... ... : ... .. D ... ...
ROW E2 : ... .. . ... ... ... : ... .. . ... ... ... : D#3 00 . P7C : ... .. 3 ... : ... .. . ... ... : ... .. . ... ... : ... .. . ... ... : ... .. 8 ... ...
ROW E3 : ... .. . ... ... ... : ... .. . ... ... ... : C#3 00 . P76 : ... .. 1 ... : ... .. . ... ... : ... .. . ... ... : ... .. . ... ... : ... .. . ... ...
ROW E4 : ... .. . P84 ... ... : ... .. 5 P84 ... ... : B-2 00 . P75 : ... .. . ... : ... .. . ... ... : E-4 01 4 ... ... : E-3 01 4 ... ... : ... .. . ... ...
ROW E5 : ... .. . P86 ... ... : E-4 00 5 P7C ... ... : A-2 00 . P7A : ... .. 0 ... : ... .. . ... ... : ... .. . ... ... : ... .. . ... ... : ... .. . ... ...
ROW E6 : ... .. . P85 ... ... : D#4 00 5 P85 ... ... : G-2 00 . P87 : ... .. . ... : ... .. . ... ... : ... .. . ... ... : ... .. . ... ... : ... .. . ... ...
ROW E7 : ... .. . P82 ... ... : ... .. . P82 ... ... : --- .. . ... : ... .. . ... : ... .. . ... ... : ... .. . ... ... : ... .. . ... ... : --- .. . P82 ...
ROW E8 : ... .. . P7E ... ... : ... .. . P7E ... ... : F#2 00 . P80 : 1-# 00 F ... : ... .. . ... ... : F#4 01 4 ... ... : F#3 01 4 ... ... : F#1 01 F P80 ...
ROW E9 : ... .. . P7B ... ... : D-4 00 5 P85 ... ... : ... .. . ... : ... .. C ... : ... .. . ... ... : ... .. . ... ... : ... .. . ... ... : ... .. D ... ...
ROW EA : ... .. . P7A ... ... : ... .. . P84 ... ... : ... .. . ... : ... .. 6 ... : ... .. . ... ... : ... .. . ... ... : ... .. . ... ... : ... .. 8 ... ...
ROW EB : ... .. . P7C ... ... : D#4 00 5 P7C ... ... : ... .. . ... : ... .. 3 ... : ... .. . ... ... : ... .. . ... ... : ... .. . ... ... : ... .. . ... ...
ROW EC : ... .. . P80 ... ... : ... .. . P80 ... ... : ... .. . ... : ... .. 2 ... : ... .. . ... ... : G#4 01 4 ... ... : G#3 01 4 ... ... : ... .. . ... ...
ROW ED : ... .. . P83 ... ... : ... .. . P83 ... ... : ... .. . ... : ... .. 0 ... : ... .. . ... ... : ... .. . ... ... : ... .. . ... ... : ... .. . ... ...
ROW EE : ... .. . P86 ... ... : E-4 00 5 P7C ... ... : ... .. . ... : ... .. . ... : ... .. . ... ... : ... .. . ... ... : ... .. . ... ... : ... .. . ... ...
ROW EF : ... .. . ... ... ... : ... .. . ... ... ... : --- .. . ... : ... .. . ... : ... .. . ... ... : ... .. . ... ... : ... .. . ... ... : --- .. . P81 ...
ROW F0 : ... .. . P82 ... ... : D#4 00 5 P82 ... ... : B-3 00 . P7D : 5-# 00 F ... : ... .. . ... ... : B-4 01 4 ... ... : B-3 01 4 ... ... : G#1 01 F P80 ...
ROW F1 : ... .. . P7F ... ... : ... .. . P7F ... ... : A#3 00 . P7C : ... .. C ... : ... .. . ... ... : ... .. . ... ... : ... .. . ... ... : ... .. D ... ...
ROW F2 : ... .. . P7B ... ... : D-4 00 5 P85 ... ... : A-3 00 . P7B : ... .. 6 ... : ... .. . ... ... : ... .. . ... ... : ... .. . ... ... : ... .. 8 ... ...
ROW F3 : ... .. . P7A ... ... : ... .. . P84 ... ... : G#3 00 . ... : ... .. 3 ... : ... .. . ... ... : ... .. . ... ... : ... .. . ... ... : ... .. . ... ...
ROW F4 : ... .. . P7C ... ... : D#4 00 5 P7C ... ... : G-3 00 . P7C : ... .. 2 ... : ... .. . ... ... : C#5 01 4 ... ... : C#4 01 4 ... ... : ... .. . ... ...
ROW F5 : ... .. . P80 ... ... : ... .. . P80 ... ... : F#3 00 . P7E : ... .. 0 ... : ... .. . ... ... : ... .. . ... ... : ... .. . ... ... : ... .. . ... ...
ROW F6 : ... .. . P83 ... ... : ... .. . P83 ... ... : F-3 00 . P81 : ... .. . ... : ... .. . ... ... : ... .. . ... ... : ... .. . ... ... : ... .. . ... ...
ROW F7 : ... .. . P86 ... ... : E-4 00 5 P7C ... ... : --- .. . ... : ... .. . ... : ... .. . ... ... : ... .. . ... ... : ... .. . ... ... : --- .. . P7E ...
ROW F8 : ... .. . ... ... ... : ... .. . ... ... ... : C#3 00 . P80 : C-# 00 8 ... : ... .. . ... ... : D#5 01 4 ... ... : D#4 01 4 ... ... : C#2 01 F P80 ...
ROW F9 : ... .. 2 P83 ... ... : D#4 00 1 P83 ... ... : ... .. . ... : ... .. 6 ... : ... .. . ... ... : ... .. . ... ... : ... .. . ... ... : ... .. D ... ...
ROW FA : ... .. . P80 ... ... : ... .. . P80 ... ... : ... .. . ... : ... .. 3 ... : ... .. . ... ... : ... .. . ... ... : ... .. . ... ... : ... .. 8 ... ...
ROW FB : ... .. . P7C ... ... : ... .. . P7C ... ... : ... .. . ... : ... .. 1 ... : ... .. . ... ... : ... .. . ... ... : ... .. . ... ... : ... .. . ... ...
ROW FC : ... .. 1 P7A ... ... : D-4 00 1 P84 ... ... : ... .. . ... : ... .. . ... : ... .. . ... ... : E-5 01 4 ... ... : E-4 01 4 ... ... : ... .. . ... ...
ROW FD : ... .. . P7B ... ... : ... .. . P85 ... ... : ... .. . ... : ... .. 0 ... : ... .. . ... ... : ... .. . ... ... : ... .. . ... ... : ... .. . ... ...
ROW FE : ... .. . P7F ... ... : D#4 00 1 P7F ... ... : ... .. . ... : ... .. . ... : ... .. . ... ... : ... .. . ... ... : ... .. . ... ... : ... .. . ... ...
ROW FF : ... .. 0 ... ... ... : ... .. 0 ... V00 ... : ... .. . ... : ... .. . ... : ... .. . ... ... : ... .. . ... ... : ... .. . ... ... : ... .. . ... ...

PATTERN 10
ROW 00 : C#2 00 F P80 ... ... : D#3 00 7 P80 V01 ... : G#3 00 . P85 : 1-# 00 F ... : ... .. . ... ... : F#5 01 4 ... ... : F#4 01 4 ... ... : ... .. . ... ...
ROW 01 : ... .. E ... ... ... : ... .. A ... ... ... : F-3 00 . P86 : ... .. C ... : ... .. . ... ... : ... .. . ... ... : ... .. . ... ... : ... .. . ... ...
ROW 02 : ... .. D ... ... ... : ... .. 7 ... ... ... : D#3 00 . P7C : ... .. 6 ... : ... .. . ... ... : ... .. . ... ... : ... .. . ... ... : ... .. . ... ...
ROW 03 : ... .. A ... ... ... : ... .. 0 ... V00 ... : C#3 00 . P76 : ... .. 3 ... : ... .. . ... ... : ... .. . ... ... : ... .. . ... ... : ... .. . ... ...
ROW 04 : ... .. . ... ... ... : D#3 00 5 P80 V01 ... : B-2 00 . P75 : ... .. 2 ... : ... .. . ... ... : ... .. 3 ... ... : ... .. 3 ... ... : ... .. . ... ...
ROW 05 : ... .. . ... ... ... : ... .. 8 ... ... ... : A-2 00 . P7A : ... .. 0 ... : ... .. . ... ... : ... .. . ... ... : ... .. . ... ... : ... .. . ... ...
ROW 06 : ... .. . ... ... ... : ... .. 0 ... V00 ... : G-2 00 . P87 : ... .. . ... : ... .. . ... ... : ... .. . ... ... : ... .. . ... ... : ... .. . ... ...
ROW 07 : ... .. . ... ... ... : ... .. . ... ... ... : --- .. . ... : ... .. . ... : ... .. . ... ... : ... .. . ... ... : ... .. . ... ... : --- .. . ... ...
ROW 08 : C#1 00 F ... ... ... : E-3 00 7 P80 V01 ... : C#2 00 . P80 : ... .. F ... : ... .. . ... ... : ... .. . ... ... : ... .. . ... ... : D#1 01 F ... ...
ROW 09 : ... .. E ... ... ... : ... .. A ... ... ... : ... .. . ... : ... .. C ... : ... .. . ... ... : ... .. . ... ... : ... .. . ... ... : ... .. D ... ...
ROW 0A : ... .. D ... ... ... : ... .. 7 ... ... ... : ... .. . ... : ... .. 6 ... : ... .. . ... ... : ... .. . ... ... : ... .. . ... ... : ... .. 8 ... ...
ROW 0B : ... .. A ... ... ... : ... .. 0 ... V00 ... : ... .. . ... : ... .. 3 ... : ... .. . ... ... : ... .. . ... ... : ... .. . ... ... : ... .. . ... ...
ROW 0C : ... .. . ... ... ... : E-3 00 5 P80 V01 ... : ... .. . ... : ... .. 2 ... : ... .. . ... ... : ... .. . ... ... : ... .. . ... ... : ... .. . ... ...
ROW 0D : ... .. . ... ... ... : ... .. 8 ... ... ... : ... .. . ... : ... .. 0 ... : ... .. . ... ... : ... .. . ... ... : ... .. . ... ... : ... .. . ... ...
ROW 0E : ... .. . ... ... ... : ... .. 0 ... V00 ... : ... .. . ... : ... .. . ... : ... .. . ... ... : ... .. . ... ... : ... .. . ... ... : ... .. . ... ...
ROW 0F : ... .. . ... ... ... : ... .. . ... ... ... : --- .. . ... : ... .. . ... : ... .. . ... ... : ... .. . ... ... : ... .. . ... ... : --- .. . P81 ...
ROW 10 : D#2 00 F ... ... ... : G#3 00 7 P80 V01 ... : B-3 00 . P7D : 5-# 00 F ... : ... .. . ... ... : E-5 01 4 ... ... : E-4 01 4 ... ... : D#1 01 F P80 ...
ROW 11 : ... .. E ... ... ... : ... .. A ... ... ... : A#3 00 . P7C : ... .. C ... : ... .. . ... ... : ... .. . ... ... : ... .. . ... ... : ... .. D ... ...
ROW 12 : ... .. D ... ... ... : ... .. 7 ... ... ... : A-3 00 . P7B : ... .. 6 ... : ... .. . ... ... : ... .. . ... ... : ... .. . ... ... : ... .. 8 ... ...
ROW 13 : ... .. A ... ... ... : ... .. 0 ... V00 ... : G#3 00 . ... : ... .. 3 ... : ... .. . ... ... : ... .. . ... ... : ... .. . ... ... : ... .. . ... ...
ROW 14 : ... .. . ... ... ... : G#3 00 5 P80 V01 ... : G-3 00 . P7C : ... .. 2 ... : ... .. . ... ... : ... .. 3 ... ... : ... .. 3 ... ... : ... .. . ... ...
ROW 15 : ... .. . ... ... ... : ... .. 8 ... ... ... : F#3 00 . P7E : ... .. 0 ... : ... .. . ... ... : ... .. . ... ... : ... .. . ... ... : ... .. . ... ...
ROW 16 : ... .. . ... ... ... : ... .. 0 ... V00 ... : F-3 00 . P81 : ... .. . ... : ... .. . ... ... : ... .. . ... ... : ... .. . ... ... : ... .. . ... ...
ROW 17 : ... .. . ... ... ... : ... .. . ... ... ... : --- .. . ... : ... .. . ... : ... .. . ... ... : ... .. . ... ... : ... .. . ... ... : --- .. . P81 ...
ROW 18 : E-2 00 F ... ... ... : D#4 00 7 P80 V01 ... : D#2 00 . P80 : 1-# 00 F ... : ... .. . ... ... : ... .. . ... ... : ... .. . ... ... : D#1 01 F P80 ...
ROW 19 : ... .. E ... ... ... : ... .. A ... ... ... : ... .. . ... : ... .. C ... : ... .. . ... ... : ... .. . ... ... : ... .. . ... ... : ... .. D ... ...
ROW 1A : ... .. D ... ... ... : ... .. 7 ... ... ... : ... .. . ... : ... .. 6 ... : ... .. . ... ... : ... .. . ... ... : ... .. . ... ... : ... .. 8 ... ...
ROW 1B : ... .. A ... ... ... : ... .. 0 ... V00 ... : ... .. . ... : ... .. 3 ... : ... .. . ... ... : ... .. . ... ... : ... .. . ... ... : ... .. . ... ...
ROW 1C : ... .. . ... ... ... : D#4 00 5 P80 V01 ... : ... .. . ... : ... .. 2 ... : ... .. . ... ... : ... .. . ... ... : ... .. . ... ... : ... .. . ... ...
ROW 1D : ... .. . ... ... ... : ... .. 8 ... ... ... : ... .. . ... : ... .. 0 ... : ... .. . ... ... : ... .. . ... ... : ... .. . ... ... : ... .. . ... ...
ROW 1E : ... .. . ... ... ... : ... .. 0 ... V00 ... : ... .. . ... : ... .. . ... : ... .. . ... ... : ... .. . ... ... : ... .. . ... ... : ... .. . ... ...
ROW 1F : ... .. . ... ... ... : ... .. . ... ... ... : --- .. . ... : ... .. . ... : ... .. . ... ... : ... .. . ... ... : ... .. . ... ... : --- .. . P81 ...
ROW 20 : C#1 00 F ... ... ... : B-3 00 7 P80 V01 ... : G#3 00 . P85 : C-# 00 8 ... : ... .. . ... ... : D#5 01 4 ... ... : D#4 01 4 ... ... : E-1 01 F P80 ...
ROW 21 : ... .. E ... ... ... : ... .. A ... ... ... : F-3 00 . P86 : ... .. 6 ... : ... .. . ... ... : ... .. . ... ... : ... .. . ... ... : ... .. D ... ...
ROW 22 : ... .. D ... ... ... : ... .. 7 ... ... ... : D#3 00 . P7C : ... .. 3 ... : ... .. . ... ... : ... .. . ... ... : ... .. . ... ... : ... .. 8 ... ...
ROW 23 : ... .. A ... ... ... : ... .. 0 ... V00 ... : C#3 00 . P76 : ... .. 1 ... : ... .. . ... ... : ... .. . ... ... : ... .. . ... ... : ... .. . ... ...
ROW 24 : ... .. . ... ... ... : B-3 00 5 P80 V01 ... : B-2 00 . P75 : ... .. . ... : ... .. . ... ... : ... .. 3 ... ... : ... .. 3 ... ... : ... .. . ... ...
ROW 25 : ... .. . ... ... ... : ... .. 8 ... ... ... : A-2 00 . P7A : ... .. 0 ... : ... .. . ... ... : ... .. . ... ... : ... .. . ... ... : ... .. . ... ...
ROW 26 : ... .. . ... ... ... : ... .. 0 ... V00 ... : G-2 00 . P87 : ... .. . ... : ... .. . ... ... : ... .. . ... ... : ... .. . ... ... : ... .. . ... ...
ROW 27 : ... .. . ... ... ... : ... .. . ... ... ... : --- .. . ... : ... .. . ... : ... .. . ... ... : ... .. . ... ... : ... .. . ... ... : --- .. . P82 ...
ROW 28 : B-2 00 F ... ... ... : C#4 00 7 P80 V01 ... : F#2 00 . P80 : 1-# 00 F ... : ... .. . ... ... : ... .. . ... ... : ... .. . ... ... : F#1 01 F P80 ...
ROW 29 : ... .. E ... ... ... : ... .. A ... ... ... : ... .. . ... : ... .. C ... : ... .. . ... ... : ... .. . ... ... : ... .. . ... ... : ... .. D ... ...
ROW 2A : ... .. D ... ... ... : ... .. 7 ... ... ... : ... .. . ... : ... .. 6 ... : ... .. . ... ... : ... .. . ... ... : ... .. . ... ... : ... .. 8 ... ...
ROW 2B : ... .. A ... ... ... : ... .. 0 ... V00 ... : ... .. . ... : ... .. 3 ... : ... .. . ... ... : ... .. . ... ... : ... .. . ... ... : ... .. . ... ...
ROW 2C : ... .. . ... ... ... : C#4 00 5 P80 V01 ... : ... .. . ... : ... .. 2 ... : ... .. . ... ... : ... .. . ... ... : ... .. . ... ... : ... .. . ... ...
ROW 2D : ... .. . ... ... ... : ... .. 8 ... ... ... : ... .. . ... : ... .. 0 ... : ... .. . ... ... : ... .. . ... ... : ... .. . ... ... : ... .. . ... ...
ROW 2E : ... .. . ... ... ... : ... .. 0 ... V00 ... : ... .. . ... : ... .. . ... : ... .. . ... ... : ... .. . ... ... : ... .. . ... ... : ... .. . ... ...
ROW 2F : ... .. . ... ... ... : ... .. . ... ... ... : --- .. . ... : ... .. . ... : ... .. . ... ... : ... .. . ... ... : ... .. . ... ... : --- .. . P81 ...
ROW 30 : D#2 00 F ... ... ... : F#4 00 7 P80 V01 ... : B-3 00 . P7D : 5-# 00 F ... : ... .. . ... ... : C#5 01 4 ... ... : C#4 01 4 ... ... : G#1 01 F P80 ...
ROW 31 : ... .. E ... ... ... : ... .. A ... ... ... : A#3 00 . P7C : ... .. C ... : ... .. . ... ... : ... .. . ... ... : ... .. . ... ... : ... .. D ... ...
ROW 32 : ... .. D ... ... ... : ... .. 7 ... ... ... : A-3 00 . P7B : ... .. 6 ... : ... .. . ... ... : ... .. . ... ... : ... .. . ... ... : ... .. 8 ... ...
ROW 33 : ... .. A ... ... ... : ... .. 0 ... V00 ... : G#3 00 . ... : ... .. 3 ... : ... .. . ... ... : ... .. . ... ... : ... .. . ... ... : ... .. . ... ...
ROW 34 : ... .. . ... ... ... : F#4 00 5 P80 V01 ... : G-3 00 . P7C : ... .. 2 ... : ... .. . ... ... : ... .. 3 ... ... : ... .. 3 ... ... : ... .. . ... ...
ROW 35 : ... .. . ... ... ... : ... .. 8 ... ... ... : F#3 00 . P7E : ... .. 0 ... : ... .. . ... ... : ... .. . ... ... : ... .. . ... ... : ... .. . ... ...
ROW 36 : ... .. . ... ... ... : ... .. 0 ... V00 ... : F-3 00 . P81 : ... .. . ... : ... .. . ... ... : ... .. . ... ... : ... .. . ... ... : ... .. . ... ...
ROW 37 : ... .. . ... ... ... : ... .. . ... ... ... : --- .. . ... : ... .. . ... : ... .. . ... ... : ... .. . ... ... : ... .. . ... ... : --- .. . P7E ...
ROW 38 : E-2 00 F ... ... ... : G#4 00 7 P80 V01 ... : E-3 00 . P80 : 1-# 00 F ... : ... .. . ... ... : ... .. . ... ... : ... .. . ... ... : E-2 01 F P80 ...
ROW 39 : ... .. E ... ... ... : ... .. A ... ... ... : ... .. . ... : ... .. C ... : ... .. . ... ... : ... .. . ... ... : ... .. . ... ... : ... .. D ... ...
ROW 3A : ... .. D ... ... ... : ... .. 7 ... ... ... : ... .. . ... : ... .. 6 ... : ... .. . ... ... : ... .. . ... ... : ... .. . ... ... : ... .. 8 ... ...
ROW 3B : ... .. A ... ... ... : ... .. 0 ... V00 ... : ... .. . ... : ... .. 3 ... : ... .. . ... ... : ... .. . ... ... : ... .. . ... ... : ... .. . ... ...
ROW 3C : ... .. . ... ... ... : G#4 00 5 P80 V01 ... : ... .. . ... : ... .. 2 ... : ... .. . ... ... : ... .. . ... ... : ... .. . ... ... : ... .. . ... ...
ROW 3D : ... .. . ... ... ... : ... .. 8 ... ... ... : ... .. . ... : ... .. 0 ... : ... .. . ... ... : ... .. . ... ... : ... .. . ... ... : ... .. . ... ...
ROW 3E : ... .. . ... ... ... : ... .. 0 ... V00 ... : ... .. . ... : ... .. . ... : ... .. . ... ... : ... .. . ... ... : ... .. . ... ... : ... .. . ... ...
ROW 3F : ... .. . ... ... ... : ... .. . ... ... ... : --- .. . ... : ... .. . ... : ... .. . ... ... : ... .. . ... ... : ... .. . ... ... : --- .. . P89 ...
ROW 40 : E-4 00 F ... ... ... : B-4 00 7 P80 V01 ... : G#3 00 . P85 : ... .. F ... : ... .. . ... ... : B-4 01 4 ... ... : E-3 01 4 ... ... : A-1 01 F P80 ...
ROW 41 : ... .. E ... ... ... : ... .. A ... ... ... : F-3 00 . P86 : ... .. C ... : ... .. . ... ... : ... .. . ... ... : ... .. . ... ... : ... .. D ... ...
ROW 42 : ... .. D ... ... ... : ... .. 7 ... ... ... : D#3 00 . P7C : ... .. 6 ... : ... .. . ... ... : ... .. . ... ... : ... .. . ... ... : ... .. 8 ... ...
ROW 43 : ... .. A ... ... ... : ... .. 0 ... V00 ... : C#3 00 . P76 : ... .. 3 ... : ... .. . ... ... : ... .. . ... ... : ... .. . ... ... : ... .. . ... ...
ROW 44 : ... .. . ... ... ... : B-4 00 5 P80 V01 ... : B-2 00 . P75 : ... .. 2 ... : ... .. . ... ... : ... .. 3 ... ... : ... .. 3 ... ... : ... .. . ... ...
ROW 45 : ... .. . ... ... ... : ... .. 8 ... ... ... : A-2 00 . P7A : ... .. 0 ... : ... .. . ... ... : ... .. . ... ... : ... .. . ... ... : ... .. . ... ...
ROW 46 : ... .. . ... ... ... : ... .. 0 ... V00 ... : G-2 00 . P87 : ... .. . ... : ... .. . ... ... : ... .. . ... ... : ... .. . ... ... : ... .. . ... ...
ROW 47 : ... .. . ... ... ... : ... .. . ... ... ... : --- .. . ... : ... .. . ... : ... .. . ... ... : ... .. . ... ... : ... .. . ... ... : --- .. . P7F ...
ROW 48 : ... .. . ... ... ... : E-4 00 7 P80 V01 ... : A-2 00 . P80 : ... .. F ... : ... .. . ... ... : ... .. . ... ... : ... .. . ... ... : A-1 01 F P80 ...
ROW 49 : ... .. . ... ... ... : ... .. A ... ... ... : ... .. . ... : ... .. C ... : ... .. . ... ... : ... .. . ... ... : ... .. . ... ... : ... .. D ... ...
ROW 4A : ... .. . ... ... ... : ... .. 7 ... ... ... : ... .. . ... : ... .. 6 ... : ... .. . ... ... : ... .. . ... ... : ... .. . ... ... : ... .. 8 ... ...
ROW 4B : ... .. . ... ... ... : ... .. 0 ... V00 ... : ... .. . ... : ... .. 3 ... : ... .. . ... ... : ... .. . ... ... : ... .. . ... ... : ... .. . ... ...
ROW 4C : ... .. . ... ... ... : E-4 00 5 P80 V01 ... : ... .. . ... : ... .. 2 ... : ... .. . ... ... : ... .. . ... ... : ... .. . ... ... : ... .. . ... ...
ROW 4D : ... .. . ... ... ... : ... .. 8 ... ... ... : ... .. . ... : ... .. 0 ... : ... .. . ... ... : ... .. . ... ... : ... .. . ... ... : ... .. . ... ...
ROW 4E : ... .. . ... ... ... : ... .. 0 ... V00 ... : ... .. . ... : ... .. . ... : ... .. . ... ... : ... .. . ... ... : ... .. . ... ... : ... .. . ... ...
ROW 4F : ... .. . ... ... ... : ... .. . ... ... ... : --- .. . ... : ... .. . ... : ... .. . ... ... : ... .. . ... ... : ... .. . ... ... : --- .. . P7F ...
ROW 50 : F#4 00 F ... ... ... : D#4 00 7 P80 V01 ... : B-3 00 . P7D : 5-# 00 F ... : ... .. . ... ... : G#4 01 4 ... ... : C#3 01 4 ... ... : E-2 01 F P80 ...
ROW 51 : ... .. E ... ... ... : ... .. A ... ... ... : A#3 00 . P7C : ... .. C ... : ... .. . ... ... : ... .. . ... ... : ... .. . ... ... : ... .. D ... ...
ROW 52 : ... .. D ... ... ... : ... .. 7 ... ... ... : A-3 00 . P7B : ... .. 6 ... : ... .. . ... ... : ... .. . ... ... : ... .. . ... ... : ... .. 8 ... ...
ROW 53 : ... .. A ... ... ... : ... .. 0 ... V00 ... : G#3 00 . ... : ... .. 3 ... : ... .. . ... ... : ... .. . ... ... : ... .. . ... ... : ... .. . ... ...
ROW 54 : ... .. . ... ... ... : D#4 00 5 P80 V01 ... : G-3 00 . P7C : ... .. 2 ... : ... .. . ... ... : ... .. 3 ... ... : ... .. 3 ... ... : ... .. . ... ...
ROW 55 : ... .. 2 ... ... ... : ... .. 8 ... ... ... : F#3 00 . P7E : ... .. 0 ... : ... .. . ... ... : ... .. . ... ... : ... .. . ... ... : ... .. . ... ...
ROW 56 : ... .. . ... ... ... : ... .. 0 ... V00 ... : F-3 00 . P81 : ... .. . ... : ... .. . ... ... : ... .. . ... ... : ... .. . ... ... : ... .. . ... ...
ROW 57 : ... .. . ... ... ... : ... .. . ... ... ... : --- .. . ... : ... .. . ... : ... .. . ... ... : ... .. . ... ... : ... .. . ... ... : --- .. . P89 ...
ROW 58 : D#4 00 F ... ... ... : E-4 00 7 P80 V01 ... : A-2 00 . P80 : 1-# 00 F ... : ... .. . ... ... : ... .. . ... ... : ... .. . ... ... : A-1 01 F P80 ...
ROW 59 : ... .. E ... ... ... : ... .. A ... ... ... : ... .. . ... : ... .. C ... : ... .. . ... ... : ... .. . ... ... : ... .. . ... ... : ... .. D ... ...
ROW 5A : ... .. D ... ... ... : ... .. 7 ... ... ... : ... .. . ... : ... .. 6 ... : ... .. . ... ... : ... .. . ... ... : ... .. . ... ... : ... .. 8 ... ...
ROW 5B : ... .. A ... ... ... : ... .. 0 ... V00 ... : ... .. . ... : ... .. 3 ... : ... .. . ... ... : ... .. . ... ... : ... .. . ... ... : ... .. . ... ...
ROW 5C : ... .. . ... ... ... : E-4 00 5 P80 V01 ... : ... .. . ... : ... .. 2 ... : ... .. . ... ... : ... .. . ... ... : ... .. . ... ... : ... .. . ... ...
ROW 5D : ... .. . ... ... ... : ... .. 8 ... ... ... : ... .. . ... : ... .. 0 ... : ... .. . ... ... : ... .. . ... ... : ... .. . ... ... : ... .. . ... ...
ROW 5E : ... .. . ... ... ... : ... .. 0 ... V00 ... : ... .. . ... : ... .. . ... : ... .. . ... ... : ... .. . ... ... : ... .. . ... ... : ... .. . ... ...
ROW 5F : ... .. . ... ... ... : ... .. . ... ... ... : ... .. . ... : ... .. . ... : ... .. . ... ... : ... .. . ... ... : ... .. . ... ... : ... .. . ... ...
ROW 60 : ... .. . ... ... ... : C#4 00 7 P80 V01 ... : G#3 00 . P85 : C-# 00 8 ... : ... .. . ... ... : F#4 01 4 ... ... : E-3 01 4 ... ... : ... .. . ... ...
ROW 61 : ... .. 2 ... ... ... : ... .. A ... ... ... : F-3 00 . P86 : ... .. 6 ... : ... .. . ... ... : ... .. . ... ... : ... .. . ... ... : ... .. . ... ...
ROW 62 : ... .. . ... ... ... : ... .. 7 ... ... ... : D#3 00 . P7C : ... .. 3 ... : ... .. . ... ... : ... .. . ... ... : ... .. . ... ... : ... .. . ... ...
ROW 63 : ... .. . ... ... ... : ... .. 0 ... V00 ... : C#3 00 . P76 : ... .. 1 ... : ... .. . ... ... : ... .. . ... ... : ... .. . ... ... : ... .. . ... ...
ROW 64 : ... .. 1 ... ... ... : C#4 00 5 P80 V01 ... : B-2 00 . P75 : ... .. . ... : ... .. . ... ... : ... .. 3 ... ... : ... .. 3 ... ... : ... .. . ... ...
ROW 65 : ... .. . ... ... ... : ... .. 8 ... ... ... : A-2 00 . P7A : ... .. 0 ... : ... .. . ... ... : ... .. . ... ... : ... .. . ... ... : ... .. . ... ...
ROW 66 : ... .. . ... ... ... : ... .. 0 ... V00 ... : G-2 00 . P87 : ... .. . ... : ... .. . ... ... : ... .. . ... ... : ... .. . ... ... : ... .. . ... ...
ROW 67 : ... .. 0 ... ... ... : ... .. . ... ... ... : --- .. . ... : ... .. . ... : ... .. . ... ... : ... .. . ... ... : ... .. . ... ... : --- .. . P7F ...
ROW 68 : E-4 00 F P80 ... ... : B-3 00 7 P80 V01 ... : G#2 00 . P80 : 1-# 00 F ... : ... .. . ... ... : ... .. . ... ... : ... .. . ... ... : G#1 01 F P80 ...
ROW 69 : ... .. E ... ... ... : ... .. A ... ... ... : ... .. . ... : ... .. C ... : ... .. . ... ... : ... .. . ... ... : ... .. . ... ... : ... .. D ... ...
ROW 6A : ... .. D ... ... ... : ... .. 7 ... ... ... : ... .. . ... : ... .. 6 ... : ... .. . ... ... : ... .. . ... ... : ... .. . ... ... : ... .. 8 ... ...
ROW 6B : ... .. A ... ... ... : ... .. 0 ... V00 ... : ... .. . ... : ... .. 3 ... : ... .. . ... ... : ... .. . ... ... : ... .. . ... ... : ... .. . ... ...
ROW 6C : ... .. . ... ... ... : B-3 00 5 P80 V01 ... : ... .. . ... : ... .. 2 ... : ... .. . ... ... : ... .. . ... ... : ... .. . ... ... : ... .. . ... ...
ROW 6D : ... .. . ... ... ... : ... .. 8 ... ... ... : ... .. . ... : ... .. 0 ... : ... .. . ... ... : ... .. . ... ... : ... .. . ... ... : ... .. . ... ...
ROW 6E : ... .. . ... ... ... : ... .. 0 ... V00 ... : ... .. . ... : ... .. . ... : ... .. . ... ... : ... .. . ... ... : ... .. . ... ... : ... .. . ... ...
ROW 6F : ... .. . ... ... ... : ... .. . ... ... ... : --- .. . ... : ... .. . ... : ... .. . ... ... : ... .. . ... ... : ... .. . ... ... : --- .. . P7E ...
ROW 70 : ... .. . ... ... ... : C#4 00 7 P80 V01 ... : B-3 00 . P7D : 5-# 00 F ... : ... .. . ... ... : B-4 01 4 ... ... : G#3 01 4 ... ... : A-1 01 F P80 ...
ROW 71 : ... .. 2 ... ... ... : ... .. A ... ... ... : A#3 00 . P7C : ... .. C ... : ... .. . ... ... : ... .. . ... ... : ... .. . ... ... : ... .. D ... ...
ROW 72 : ... .. . ... ... ... : ... .. 7 ... ... ... : A-3 00 . P7B : ... .. 6 ... : ... .. . ... ... : ... .. . ... ... : ... .. . ... ... : ... .. 8 ... ...
ROW 73 : ... .. . ... ... ... : ... .. 0 ... V00 ... : G#3 00 . ... : ... .. 3 ... : ... .. . ... ... : ... .. . ... ... : ... .. . ... ... : ... .. . ... ...
ROW 74 : ... .. 1 ... ... ... : C#4 00 5 P80 V01 ... : G-3 00 . P7C : ... .. 2 ... : ... .. . ... ... : ... .. 3 ... ... : ... .. 3 ... ... : ... .. . ... ...
ROW 75 : ... .. . ... ... ... : ... .. 8 ... ... ... : F#3 00 . P7E : ... .. 0 ... : ... .. . ... ... : ... .. . ... ... : ... .. . ... ... : ... .. . ... ...
ROW 76 : ... .. . ... ... ... : ... .. 0 ... V00 ... : F-3 00 . P81 : ... .. . ... : ... .. . ... ... : ... .. . ... ... : ... .. . ... ... : ... .. . ... ...
ROW 77 : ... .. 0 ... ... ... : ... .. . ... ... ... : --- .. . ... : ... .. . ... : ... .. . ... ... : ... .. . ... ... : ... .. . ... ... : --- .. . P7F ...
ROW 78 : C#4 00 F P80 ... ... : B-4 00 7 P80 V01 ... : G#3 00 . P80 : 1-# 00 F ... : ... .. . ... ... : G#4 01 4 ... ... : ... .. . ... ... : G#2 01 F P80 ...
ROW 79 : ... .. E ... ... ... : ... .. A ... ... ... : ... .. . ... : ... .. C ... : ... .. . ... ... : ... .. . ... ... : ... .. . ... ... : ... .. D ... ...
ROW 7A : ... .. D ... ... ... : ... .. 7 ... ... ... : ... .. . ... : ... .. 6 ... : ... .. . ... ... : ... .. . ... ... : ... .. . ... ... : ... .. 8 ... ...
ROW 7B : ... .. A ... ... ... : ... .. 0 ... V00 ... : ... .. . ... : ... .. 3 ... : ... .. . ... ... : ... .. . ... ... : ... .. . ... ... : ... .. . ... ...
ROW 7C : ... .. . ... ... ... : B-4 00 5 P80 V01 ... : ... .. . ... : ... .. 2 ... : ... .. . ... ... : ... .. 3 ... ... : ... .. . ... ... : ... .. . ... ...
ROW 7D : ... .. . ... ... ... : ... .. 8 ... ... ... : ... .. . ... : ... .. 0 ... : ... .. . ... ... : ... .. . ... ... : ... .. . ... ... : ... .. . ... ...
ROW 7E : ... .. . ... ... ... : ... .. 0 ... V00 ... : ... .. . ... : ... .. . ... : ... .. . ... ... : ... .. . ... ... : ... .. . ... ... : ... .. . ... ...
ROW 7F : ... .. . ... ... ... : ... .. . ... ... ... : --- .. . ... : ... .. . ... : ... .. . ... ... : ... .. . ... ... : ... .. . ... ... : --- .. . P7F ...
ROW 80 : ... .. . ... ... ... : D#4 00 7 P80 V01 ... : G#3 00 . P85 : ... .. F ... : ... .. . ... ... : ... .. . ... ... : C#4 01 4 ... ... : A-1 01 F P80 ...
ROW 81 : ... .. . ... ... ... : ... .. A ... ... ... : F-3 00 . P86 : ... .. C ... : ... .. . ... ... : ... .. . ... ... : ... .. . ... ... : ... .. D ... ...
ROW 82 : ... .. . ... ... ... : ... .. 7 ... ... ... : D#3 00 . P7C : ... .. 6 ... : ... .. . ... ... : ... .. . ... ... : ... .. . ... ... : ... .. 8 ... ...
ROW 83 : ... .. . ... ... ... : ... .. 0 ... V00 ... : C#3 00 . P76 : ... .. 3 ... : ... .. . ... ... : ... .. . ... ... : ... .. . ... ... : ... .. . ... ...
ROW 84 : ... .. . ... ... ... : D#4 00 5 P80 V01 ... : B-2 00 . P75 : ... .. 2 ... : ... .. . ... ... : ... .. . ... ... : ... .. 3 ... ... : ... .. . ... ...
ROW 85 : ... .. . ... ... ... : ... .. 8 ... ... ... : A-2 00 . P7A : ... .. 0 ... : ... .. . ... ... : ... .. . ... ... : ... .. . ... ... : ... .. . ... ...
ROW 86 : ... .. . ... ... ... : ... .. 0 ... V00 ... : G-2 00 . P87 : ... .. . ... : ... .. . ... ... : ... .. . ... ... : ... .. . ... ... : ... .. . ... ...
ROW 87 : ... .. . ... ... ... : ... .. . ... ... ... : --- .. . ... : ... .. . ... : ... .. . ... ... : ... .. . ... ... : ... .. . ... ... : --- .. . P7F ...
ROW 88 : C#3 00 F ... ... ... : E-4 00 7 P80 V01 ... : A-2 00 . P80 : ... .. F ... : ... .. . ... ... : F#4 01 4 ... ... : ... .. . ... ... : A-1 01 F P80 ...
ROW 89 : ... .. E ... ... ... : ... .. A ... ... ... : ... .. . ... : ... .. C ... : ... .. . ... ... : ... .. . ... ... : ... .. . ... ... : ... .. D ... ...
ROW 8A : ... .. D ... ... ... : ... .. 7 ... ... ... : ... .. . ... : ... .. 6 ... : ... .. . ... ... : ... .. . ... ... : ... .. . ... ... : ... .. 8 ... ...
ROW 8B : ... .. A ... ... ... : ... .. 0 ... V00 ... : ... .. . ... : ... .. 3 ... : ... .. . ... ... : ... .. . ... ... : ... .. . ... ... : ... .. . ... ...
ROW 8C : ... .. . ... ... ... : E-4 00 5 P80 V01 ... : ... .. . ... : ... .. 2 ... : ... .. . ... ... : ... .. 3 ... ... : ... .. . ... ... : ... .. . ... ...
ROW 8D : ... .. . ... ... ... : ... .. 8 ... ... ... : ... .. . ... : ... .. 0 ... : ... .. . ... ... : ... .. . ... ... : ... .. . ... ... : ... .. . ... ...
ROW 8E : ... .. . ... ... ... : ... .. 0 ... V00 ... : ... .. . ... : ... .. . ... : ... .. . ... ... : ... .. . ... ... : ... .. . ... ... : ... .. . ... ...
ROW 8F : ... .. . ... ... ... : ... .. . ... ... ... : --- .. . ... : ... .. . ... : ... .. . ... ... : ... .. . ... ... : ... .. . ... ... : --- .. . P7F ...
ROW 90 : ... .. . ... ... ... : G#3 00 7 P80 V01 ... : B-3 00 . P7D : 5-# 00 F ... : ... .. . ... ... : E-4 01 4 ... ... : G#3 01 4 ... ... : E-2 01 F P80 ...
ROW 91 : ... .. 2 ... ... ... : ... .. A ... ... ... : A#3 00 . P7C : ... .. C ... : ... .. . ... ... : ... .. . ... ... : ... .. . ... ... : ... .. D ... ...
ROW 92 : ... .. . ... ... ... : ... .. 7 ... ... ... : A-3 00 . P7B : ... .. 6 ... : ... .. . ... ... : ... .. . ... ... : ... .. . ... ... : ... .. 8 ... ...
ROW 93 : ... .. . ... ... ... : ... .. 0 ... V00 ... : G#3 00 . ... : ... .. 3 ... : ... .. . ... ... : ... .. . ... ... : ... .. . ... ... : ... .. . ... ...
ROW 94 : ... .. 1 ... ... ... : G#3 00 5 P80 V01 ... : G-3 00 . P7C : ... .. 2 ... : ... .. . ... ... : ... .. 3 ... ... : ... .. 3 ... ... : ... .. . ... ...
ROW 95 : ... .. . ... ... ... : ... .. 8 ... ... ... : F#3 00 . P7E : ... .. 0 ... : ... .. . ... ... : ... .. . ... ... : ... .. . ... ... : ... .. . ... ...
ROW 96 : ... .. . ... ... ... : ... .. 0 ... V00 ... : F-3 00 . P81 : ... .. . ... : ... .. . ... ... : ... .. . ... ... : ... .. . ... ... : ... .. . ... ...
ROW 97 : ... .. 0 ... ... ... : ... .. . ... ... ... : --- .. . ... : ... .. . ... : ... .. . ... ... : ... .. . ... ... : ... .. . ... ... : --- .. . P89 ...
ROW 98 : C#3 00 F P80 ... ... : A-3 00 7 P80 V01 ... : A-2 00 . P80 : 1-# 00 F ... : ... .. . ... ... : D#4 01 4 ... ... : ... .. . ... ... : A-1 01 F P80 ...
ROW 99 : ... .. E ... ... ... : ... .. A ... ... ... : ... .. . ... : ... .. C ... : ... .. . ... ... : ... .. . ... ... : ... .. . ... ... : ... .. D ... ...
ROW 9A : ... .. D ... ... ... : ... .. 7 ... ... ... : ... .. . ... : ... .. 6 ... : ... .. . ... ... : ... .. . ... ... : ... .. . ... ... : ... .. 8 ... ...
ROW 9B : ... .. A ... ... ... : ... .. 0 ... V00 ... : ... .. . ... : ... .. 3 ... : ... .. . ... ... : ... .. . ... ... : ... .. . ... ... : ... .. . ... ...
ROW 9C : ... .. . ... ... ... : A-3 00 5 P80 V01 ... : ... .. . ... : ... .. 2 ... : ... .. . ... ... : ... .. 3 ... ... : ... .. . ... ... : ... .. . ... ...
ROW 9D : ... .. . ... ... ... : ... .. 8 ... ... ... : ... .. . ... : ... .. 0 ... : ... .. . ... ... : ... .. . ... ... : ... .. . ... ... : ... .. . ... ...
ROW 9E : ... .. . ... ... ... : ... .. 0 ... V00 ... : ... .. . ... : ... .. . ... : ... .. . ... ... : ... .. . ... ... : ... .. . ... ... : ... .. . ... ...
ROW 9F : ... .. . ... ... ... : ... .. . ... ... ... : --- .. . ... : ... .. . ... : ... .. . ... ... : ... .. . ... ... : ... .. . ... ... : --- .. . P7F ...
ROW A0 : ... .. . ... ... ... : G#4 00 7 P80 V01 ... : G#3 00 . P85 : C-# 00 8 ... : ... .. . ... ... : E-4 01 4 ... ... : E-3 01 4 ... ... : B-1 01 F P80 ...
ROW A1 : ... .. . ... ... ... : ... .. A ... ... ... : F-3 00 . P86 : ... .. 6 ... : ... .. . ... ... : ... .. . ... ... : ... .. . ... ... : ... .. D ... ...
ROW A2 : ... .. . ... ... ... : ... .. 7 ... ... ... : D#3 00 . P7C : ... .. 3 ... : ... .. . ... ... : ... .. . ... ... : ... .. . ... ... : ... .. 8 ... ...
ROW A3 : ... .. . ... ... ... : ... .. 0 ... V00 ... : C#3 00 . P76 : ... .. 1 ... : ... .. . ... ... : ... .. . ... ... : ... .. . ... ... : ... .. . ... ...
ROW A4 : ... .. . ... ... ... : G#4 00 5 P80 V01 ... : B-2 00 . P75 : ... .. . ... : ... .. . ... ... : ... .. 3 ... ... : ... .. 3 ... ... : ... .. . ... ...
ROW A5 : ... .. . ... ... ... : ... .. 8 ... ... ... : A-2 00 . P7A : ... .. 0 ... : ... .. . ... ... : ... .. . ... ... : ... .. . ... ... : ... .. . ... ...
ROW A6 : ... .. . ... ... ... : ... .. 0 ... V00 ... : G-2 00 . P87 : ... .. . ... : ... .. . ... ... : ... .. . ... ... : ... .. . ... ... : ... .. . ... ...
ROW A7 : ... .. . ... ... ... : ... .. . ... ... ... : --- .. . ... : ... .. . ... : ... .. . ... ... : ... .. . ... ... : ... .. . ... ... : --- .. . P86 ...
ROW A8 : B-2 00 F ... ... ... : C#4 00 7 P80 V01 ... : B-2 00 . P80 : 1-# 00 F ... : ... .. . ... ... : D#4 01 4 ... ... : ... .. . ... ... : B-1 01 F P80 ...
ROW A9 : ... .. E ... ... ... : ... .. A ... ... ... : ... .. . ... : ... .. C ... : ... .. . ... ... : ... .. . ... ... : ... .. . ... ... : ... .. D ... ...
ROW AA : ... .. D ... ... ... : ... .. 7 ... ... ... : ... .. . ... : ... .. 6 ... : ... .. . ... ... : ... .. . ... ... : ... .. . ... ... : ... .. 8 ... ...
ROW AB : ... .. A ... ... ... : ... .. 0 ... V00 ... : ... .. . ... : ... .. 3 ... : ... .. . ... ... : ... .. . ... ... : ... .. . ... ... : ... .. . ... ...
ROW AC : ... .. . ... ... ... : C#4 00 5 P80 V01 ... : ... .. . ... : ... .. 2 ... : ... .. . ... ... : ... .. 3 ... ... : ... .. . ... ... : ... .. . ... ...
ROW AD : ... .. 2 ... ... ... : ... .. 8 ... ... ... : ... .. . ... : ... .. 0 ... : ... .. . ... ... : ... .. . ... ... : ... .. . ... ... : ... .. . ... ...
ROW AE : ... .. . ... ... ... : ... .. 0 ... V00 ... : ... .. . ... : ... .. . ... : ... .. . ... ... : ... .. . ... ... : ... .. . ... ... : ... .. . ... ...
ROW AF : ... .. . ... ... ... : ... .. . ... ... ... : --- .. . ... : ... .. . ... : ... .. . ... ... : ... .. . ... ... : ... .. . ... ... : --- .. . P86 ...
ROW B0 : C#3 00 F ... ... ... : G#3 00 7 P80 V01 ... : B-3 00 . P7D : 5-# 00 F ... : ... .. . ... ... : C#4 01 4 ... ... : C#3 01 4 ... ... : F#2 01 F P80 ...
ROW B1 : ... .. E ... ... ... : ... .. A ... ... ... : A#3 00 . P7C : ... .. C ... : ... .. . ... ... : ... .. . ... ... : ... .. . ... ... : ... .. D ... ...
ROW B2 : ... .. D ... ... ... : ... .. 7 ... ... ... : A-3 00 . P7B : ... .. 6 ... : ... .. . ... ... : ... .. . ... ... : ... .. . ... ... : ... .. 8 ... ...
ROW B3 : ... .. A ... ... ... : ... .. 0 ... V00 ... : G#3 00 . ... : ... .. 3 ... : ... .. . ... ... : ... .. . ... ... : ... .. . ... ... : ... .. . ... ...
ROW B4 : ... .. . ... ... ... : G#3 00 5 P80 V01 ... : G-3 00 . P7C : ... .. 2 ... : ... .. . ... ... : ... .. 3 ... ... : ... .. 3 ... ... : ... .. . ... ...
ROW B5 : ... .. 2 ... ... ... : ... .. 8 ... ... ... : F#3 00 . P7E : ... .. 0 ... : ... .. . ... ... : ... .. . ... ... : ... .. . ... ... : ... .. . ... ...
ROW B6 : ... .. . ... ... ... : ... .. 0 ... V00 ... : F-3 00 . P81 : ... .. . ... : ... .. . ... ... : ... .. . ... ... : ... .. . ... ... : ... .. . ... ...
ROW B7 : ... .. . ... ... ... : ... .. . ... ... ... : --- .. . ... : ... .. . ... : ... .. . ... ... : ... .. . ... ... : ... .. . ... ... : --- .. . P84 ...
ROW B8 : F#3 00 F ... ... ... : D#3 00 8 P80 V01 ... : G#3 00 . P85 : C-# 00 8 ... : ... .. . ... ... : ... .. 5 ... V00 : D#4 01 5 ... V00 : B-1 01 F P80 ...
ROW B9 : ... .. E ... ... ... : ... .. 7 ... ... ... : F-3 00 . P86 : ... .. 6 ... : ... .. . ... ... : ... .. 4 ... ... : ... .. 4 ... ... : ... .. D ... ...
ROW BA : ... .. D ... ... ... : ... .. . ... ... ... : D#3 00 . P7C : ... .. 3 ... : ... .. . ... ... : ... .. . ... ... : ... .. . ... ... : ... .. 8 ... ...
ROW BB : ... .. A ... ... ... : ... .. 6 ... ... ... : C#3 00 . P76 : ... .. 1 ... : ... .. . ... ... : ... .. . ... ... : ... .. . ... ... : ... .. . ... ...
ROW BC : ... .. . ... ... ... : ... .. 5 ... ... ... : B-2 00 . P75 : ... .. . ... : ... .. . ... ... : ... .. 3 ... ... : ... .. 3 ... ... : ... .. . ... ...
ROW BD : ... .. . ... ... ... : ... .. 4 ... ... ... : A-2 00 . P7A : ... .. 0 ... : ... .. . ... ... : ... .. . ... ... : ... .. . ... ... : ... .. . ... ...
ROW BE : ... .. . ... ... ... : ... .. . ... ... ... : G-2 00 . P87 : ... .. . ... : ... .. . ... ... : ... .. . ... ... : ... .. . ... ... : ... .. . ... ...
ROW BF : ... .. . ... ... ... : ... .. . ... ... ... : F#2 00 . P77 : ... .. . ... : ... .. . ... ... : ... .. . ... ... : ... .. . ... ... : ... .. . ... ...
ROW C0 : ... .. . ... ... ... : ... .. 3 ... ... ... : E-2 00 . P8F : 1-# 00 F ... : ... .. . ... ... : --- .. . ... ... : --- .. . ... ... : ... .. . ... ...
ROW C1 : ... .. 2 ... ... ... : ... .. . ... ... ... : D#2 00 . P85 : ... .. C ... : ... .. . ... ... : ... .. . ... ... : ... .. . ... ... : ... .. . ... ...
ROW C2 : ... .. . ... ... ... : ... .. 2 ... ... ... : D-2 00 . P7E : ... .. 6 ... : ... .. . ... ... : ... .. . ... ... : ... .. . ... ... : ... .. . ... ...
ROW C3 : ... .. . ... ... ... : ... .. . ... ... ... : C#2 00 . P79 : ... .. 3 ... : ... .. . ... ... : ... .. . ... ... : ... .. . ... ... : ... .. . ... ...
ROW C4 : ... .. 1 ... ... ... : ... .. . ... ... ... : C-2 00 . P77 : ... .. 2 ... : ... .. . ... ... : ... .. . ... ... : ... .. . ... ... : ... .. . ... ...
ROW C5 : ... .. . ... ... ... : ... .. 1 ... ... ... : B-1 00 . P78 : ... .. 0 ... : ... .. . ... ... : ... .. . ... ... : ... .. . ... ... : ... .. . ... ...
ROW C6 : ... .. . ... ... ... : ... .. . ... ... ... : A#1 00 . P7C : ... .. . ... : ... .. . ... ... : ... .. . ... ... : ... .. . ... ... : ... .. . ... ...
ROW C7 : ... .. 0 ... ... ... : ... .. . ... ... ... : --- .. . ... : ... .. . ... : ... .. . ... ... : ... .. . ... ... : ... .. . ... ... : --- .. . P86 ...
ROW C8 : G#3 00 F P80 ... ... : E-3 00 A ... ... ... : G#3 00 . P85 : ... .. F ... : ... .. . ... ... : C#4 01 5 ... ... : E-4 01 5 ... ... : C#2 01 F P80 ...
ROW C9 : ... .. E ... ... ... : ... .. 9 ... ... ... : F-3 00 . P86 : ... .. C ... : ... .. . ... ... : ... .. 4 ... ... : ... .. 4 ... ... : ... .. D ... ...
ROW CA : ... .. D ... ... ... : ... .. 8 ... ... ... : D#3 00 . P7C : ... .. 6 ... : ... .. . ... ... : ... .. . ... ... : ... .. . ... ... : ... .. 8 ... ...
ROW CB : ... .. A ... ... ... : ... .. 6 ... ... ... : C#3 00 . P76 : ... .. 3 ... : ... .. . ... ... : ... .. . ... ... : ... .. . ... ... : ... .. . ... ...
ROW CC : ... .. . ... ... ... : ... .. . ... ... ... : B-2 00 . P75 : ... .. 2 ... : ... .. . ... ... : ... .. 3 ... ... : ... .. 3 ... ... : ... .. . ... ...
ROW CD : ... .. . ... ... ... : ... .. . ... ... ... : A-2 00 . P7A : ... .. 0 ... : ... .. . ... ... : ... .. . ... ... : ... .. . ... ... : ... .. . ... ...
ROW CE : ... .. . ... ... ... : ... .. . ... ... ... : G-2 00 . P87 : ... .. . ... : ... .. . ... ... : ... .. . ... ... : ... .. . ... ... : ... .. . ... ...
ROW CF : ... .. . ... ... ... : ... .. . ... ... ... : F#2 00 . P77 : ... .. . ... : ... .. . ... ... : ... .. . ... ... : ... .. . ... ... : ... .. . ... ...
ROW D0 : ... .. . ... ... ... : ... .. . ... ... ... : E-2 00 . P8F : 5-# 00 F ... : ... .. . ... ... : --- .. . ... ... : --- .. . ... ... : ... .. . ... ...
ROW D1 : ... .. 2 ... ... ... : ... .. 1 ... ... ... : D#2 00 . P85 : ... .. C ... : ... .. . ... ... : ... .. . ... ... : ... .. . ... ... : ... .. . ... ...
ROW D2 : ... .. . ... ... ... : ... .. . ... ... ... : D-2 00 . P7E : ... .. 6 ... : ... .. . ... ... : ... .. . ... ... : ... .. . ... ... : ... .. . ... ...
ROW D3 : ... .. . ... ... ... : ... .. . ... ... ... : C#2 00 . P79 : ... .. 3 ... : ... .. . ... ... : ... .. . ... ... : ... .. . ... ... : ... .. . ... ...
ROW D4 : ... .. 1 ... ... ... : ... .. . ... ... ... : C-2 00 . P77 : ... .. 2 ... : ... .. . ... ... : ... .. . ... ... : ... .. . ... ... : ... .. . ... ...
ROW D5 : ... .. . ... ... ... : ... .. . ... ... ... : B-1 00 . P78 : ... .. 0 ... : ... .. . ... ... : ... .. . ... ... : ... .. . ... ... : ... .. . ... ...
ROW D6 : ... .. . ... ... ... : ... .. . ... ... ... : A#1 00 . P7C : ... .. . ... : ... .. . ... ... : ... .. . ... ... : ... .. . ... ... : ... .. . ... ...
ROW D7 : ... .. 0 ... ... ... : ... .. 0 ... V00 ... : A-1 00 . P83 : ... .. . ... : ... .. . ... ... : ... .. . ... ... : ... .. . ... ... : ... .. . ... ...
ROW D8 : C#5 00 F P80 ... ... : E-4 00 A P80 V01 ... : A#4 00 . P7E : D-# 00 A ... : ... .. . ... ... : B-3 01 4 ... V05 : E-4 01 4 ... V05 : C#3 01 F ... ...
ROW D9 : ... .. E ... ... ... : ... .. 9 ... ... ... : G#4 00 . ... : ... .. . ... : ... .. . ... ... : ... .. . ... ... : ... .. . ... ... : ... .. D ... ...
ROW DA : ... .. D ... ... ... : ... .. 8 ... ... ... : F#4 00 . P7F : ... .. . ... : ... .. . ... ... : ... .. . ... ... : ... .. . ... ... : ... .. 8 ... ...
ROW DB : ... .. A ... ... ... : ... .. 6 ... ... ... : E-4 00 . P83 : ... .. . ... : ... .. . ... ... : ... .. . ... ... : ... .. . ... ... : ... .. . ... ...
ROW DC : ... .. . ... ... ... : ... .. . ... ... ... : D#4 00 . P7E : ... .. C ... : ... .. . ... ... : ... .. 3 ... ... : ... .. 3 ... ... : ... .. . ... ...
ROW DD : ... .. . ... ... ... : ... .. . ... ... ... : C#4 00 . P85 : ... .. . ... : ... .. . ... ... : ... .. . ... ... : ... .. . ... ... : ... .. . ... ...
ROW DE : ... .. . ... ... ... : ... .. . ... ... ... : C-4 00 . P82 : ... .. . ... : ... .. . ... ... : ... .. . ... ... : ... .. . ... ... : ... .. . ... ...
ROW DF : ... .. . ... ... ... : ... .. . ... ... ... : B-3 00 . P7F : ... .. . ... : ... .. . ... ... : ... .. . ... ... : ... .. . ... ... : ... .. . ... ...
ROW E0 : ... .. . ... ... ... : ... .. . ... ... ... : A#3 00 . P7E : ... .. A ... : ... .. . ... ... : --- .. . ... ... : --- .. . ... ... : C-3 01 8 P8C ...
ROW E1 : ... .. . ... ... ... : ... .. . ... ... ... : A-3 00 . P7D : ... .. . ... : ... .. . ... ... : ... .. . ... ... : ... .. . ... ... : ... .. . P7C ...
ROW E2 : ... .. . ... ... ... : ... .. . ... ... ... : G#3 00 . ... : ... .. . ... : ... .. . ... ... : ... .. . ... ... : ... .. . ... ... : B-2 01 8 P89 ...
ROW E3 : ... .. . ... ... ... : ... .. . ... ... ... : G-3 00 . P7E : ... .. . ... : ... .. . ... ... : ... .. . ... ... : ... .. . ... ... : ... .. . P79 ...
ROW E4 : ... .. . ... ... ... : ... .. . ... ... ... : F#3 00 . P80 : ... .. 7 ... : ... .. . ... ... : ... .. . ... ... : ... .. . ... ... : A#2 01 8 P87 ...
ROW E5 : ... .. 2 ... ... ... : ... .. 1 ... ... ... : F-3 00 . P83 : ... .. . ... : ... .. . ... ... : ... .. . ... ... : ... .. . ... ... : ... .. . P77 ...
ROW E6 : ... .. . ... ... ... : ... .. . ... ... ... : E-3 00 . P87 : ... .. . ... : ... .. . ... ... : ... .. . ... ... : ... .. . ... ... : A-2 01 8 P88 ...
ROW E7 : ... .. . ... ... ... : ... .. . ... ... ... : ... .. . P78 : ... .. . ... : ... .. . ... ... : ... .. . ... ... : ... .. . ... ... : ... .. . P78 ...
ROW E8 : ... .. 8 ... ... ... : ... .. 8 ... ... ... : F-4 00 . P82 : ... .. 5 ... : ... .. . ... ... : B-3 01 2 ... ... : E-4 01 2 ... ... : G#2 01 8 P8B ...
ROW E9 : ... .. 7 ... ... ... : ... .. 7 ... ... ... : E-4 00 . P7D : ... .. . ... : ... .. . ... ... : ... .. . ... ... : ... .. . ... ... : ... .. . P7B ...
ROW EA : ... .. 6 ... ... ... : ... .. 6 ... ... ... : D-4 00 . P82 : ... .. . ... : ... .. . ... ... : ... .. . ... ... : ... .. . ... ... : G-2 01 8 P8F ...
ROW EB : ... .. 5 ... ... ... : ... .. 5 ... ... ... : C#4 00 . P7F : ... .. . ... : ... .. . ... ... : ... .. . ... ... : ... .. . ... ... : ... .. . P7F ...
ROW EC : ... .. . ... ... ... : ... .. . ... ... ... : C-4 00 . P7C : ... .. 3 ... : ... .. . ... ... : ... .. 1 ... ... : ... .. 1 ... ... : ... .. . P6F ...
ROW ED : ... .. . ... ... ... : ... .. 1 ... ... ... : A#3 00 . P87 : ... .. . ... : ... .. . ... ... : ... .. . ... ... : ... .. . ... ... : F#2 01 8 P86 ...
ROW EE : ... .. . ... ... ... : ... .. . ... ... ... : A-3 00 . P86 : ... .. . ... : ... .. . ... ... : ... .. . ... ... : ... .. . ... ... : ... .. . P76 ...
ROW EF : ... .. . ... ... ... : ... .. . ... ... ... : G#3 00 . ... : ... .. . ... : ... .. . ... ... : ... .. . ... ... : ... .. . ... ... : --- .. . P85 ...
ROW F0 : C#3 00 F ... ... ... : G#2 00 7 ... ... ... : D#4 00 . P85 : 5-# 00 F ... : ... .. . ... ... : --- .. . ... ... : --- .. . ... ... : C#2 01 F P80 ...
ROW F1 : ... .. E ... ... ... : ... .. A ... ... ... : D-4 00 . P80 : ... .. C ... : ... .. . ... ... : ... .. . ... ... : ... .. . ... ... : ... .. D ... ...
ROW F2 : ... .. D ... ... ... : ... .. 7 ... ... ... : C#4 00 . P7D : ... .. 6 ... : ... .. . ... ... : ... .. . ... ... : ... .. . ... ... : ... .. 8 ... ...
ROW F3 : ... .. A ... ... ... : ... .. 0 ... V00 ... : B-3 00 . P86 : ... .. 3 ... : ... .. . ... ... : ... .. . ... ... : ... .. . ... ... : ... .. . ... ...
ROW F4 : ... .. . ... ... ... : G#2 00 5 P80 V01 ... : A#3 00 . P85 : ... .. 2 ... : ... .. . ... ... : ... .. . ... ... : ... .. . ... ... : ... .. . ... ...
ROW F5 : ... .. 2 ... ... ... : ... .. 8 ... ... ... : A-3 00 . P84 : ... .. 0 ... : ... .. . ... ... : ... .. . ... ... : ... .. . ... ... : ... .. . ... ...
ROW F6 : ... .. . ... ... ... : ... .. 0 ... V00 ... : G#3 00 . ... : ... .. . ... : ... .. . ... ... : ... .. . ... ... : ... .. . ... ... : ... .. . ... ...
ROW F7 : ... .. . ... ... ... : ... .. . ... ... ... : --- .. . ... : ... .. . ... : ... .. . ... ... : ... .. . ... ... : ... .. . ... ... : --- .. . ... ...
ROW F8 : F#3 00 F ... ... ... : D#3 00 8 P80 V01 ... : G#3 00 . P85 : C-# 00 8 ... : ... .. . ... ... : C#4 01 A ... V00 : D#4 01 A ... V00 : B-1 01 F ... ...
ROW F9 : ... .. E ... ... ... : ... .. 7 ... ... ... : F-3 00 . P86 : ... .. 6 ... : ... .. . ... ... : ... .. 9 ... ... : ... .. 9 ... ... : ... .. D ... ...
ROW FA : ... .. D ... ... ... : ... .. . ... ... ... : D#3 00 . P7C : ... .. 3 ... : ... .. . ... ... : ... .. . ... ... : ... .. . ... ... : ... .. 8 ... ...
ROW FB : ... .. A ... ... ... : ... .. 6 ... ... ... : C#3 00 . P76 : ... .. 1 ... : ... .. . ... ... : ... .. 8 ... ... : ... .. 8 ... ... : ... .. . ... ...
ROW FC : ... .. . ... ... ... : ... .. 5 ... ... ... : B-2 00 . P75 : ... .. . ... : ... .. . ... ... : ... .. 7 ... ... : ... .. 7 ... ... : ... .. . ... ...
ROW FD : ... .. . ... ... ... : ... .. 4 ... ... ... : A-2 00 . P7A : ... .. 0 ... : ... .. . ... ... : ... .. . ... ... : ... .. . ... ... : ... .. . ... ...
ROW FE : ... .. . ... ... ... : ... .. . ... ... ... : G-2 00 . P87 : ... .. . ... : ... .. . ... ... : ... .. 6 ... ... : ... .. 6 ... ... : ... .. . ... ...
ROW FF : ... .. . ... ... ... : ... .. . ... ... ... : F#2 00 . P77 : ... .. . ... : ... .. . ... ... : ... .. . ... ... : ... .. . ... ... : ... .. . ... ...

PATTERN 11
ROW 00 : ... .. . ... ... ... : ... .. 3 ... ... ... : E-2 00 . P8F : 1-# 00 F ... : ... .. . ... ... : --- .. . ... ... : --- .. . ... ... : ... .. . ... ...
ROW 01 : ... .. . ... ... ... : ... .. . ... ... ... : D#2 00 . P85 : ... .. C ... : ... .. . ... ... : ... .. . ... ... : ... .. . ... ... : ... .. . ... ...
ROW 02 : ... .. . ... ... ... : ... .. 2 ... ... ... : D-2 00 . P7E : ... .. 6 ... : ... .. . ... ... : ... .. . ... ... : ... .. . ... ... : ... .. . ... ...
ROW 03 : ... .. . ... ... ... : ... .. . ... ... ... : C#2 00 . P79 : ... .. 3 ... : ... .. . ... ... : ... .. . ... ... : ... .. . ... ... : ... .. . ... ...
ROW 04 : ... .. . ... ... ... : ... .. . ... ... ... : C-2 00 . P77 : ... .. 2 ... : ... .. . ... ... : ... .. . ... ... : ... .. . ... ... : ... .. . ... ...
ROW 05 : ... .. 2 ... ... ... : ... .. 1 ... ... ... : B-1 00 . P78 : ... .. 0 ... : ... .. . ... ... : ... .. . ... ... : ... .. . ... ... : ... .. . ... ...
ROW 06 : ... .. . ... ... ... : ... .. . ... ... ... : A#1 00 . P7C : ... .. . ... : ... .. . ... ... : ... .. . ... ... : ... .. . ... ... : ... .. . ... ...
ROW 07 : ... .. . ... ... ... : ... .. . ... ... ... : --- .. . ... : ... .. . ... : ... .. . ... ... : ... .. . ... ... : ... .. . ... ... : --- .. . P86 ...
ROW 08 : G#3 00 F ... ... ... : B-2 00 8 ... ... ... : G#3 00 . P85 : ... .. F ... : ... .. . ... ... : C#4 01 A ... ... : E-4 01 A ... ... : C#2 01 F P80 ...
ROW 09 : ... .. E ... ... ... : ... .. 7 ... ... ... : F-3 00 . P86 : ... .. C ... : ... .. . ... ... : ... .. 9 ... ... : ... .. 9 ... ... : ... .. D ... ...
ROW 0A : ... .. D ... ... ... : ... .. . ... ... ... : D#3 00 . P7C : ... .. 6 ... : ... .. . ... ... : ... .. . ... ... : ... .. . ... ... : ... .. 8 ... ...
ROW 0B : ... .. A ... ... ... : ... .. 6 ... ... ... : C#3 00 . P76 : ... .. 3 ... : ... .. . ... ... : ... .. 8 ... ... : ... .. 8 ... ... : ... .. . ... ...
ROW 0C : ... .. . ... ... ... : ... .. 5 ... ... ... : B-2 00 . P75 : ... .. 2 ... : ... .. . ... ... : ... .. 7 ... ... : ... .. 7 ... ... : ... .. . ... ...
ROW 0D : ... .. . ... ... ... : ... .. 4 ... ... ... : A-2 00 . P7A : ... .. 0 ... : ... .. . ... ... : ... .. . ... ... : ... .. . ... ... : ... .. . ... ...
ROW 0E : ... .. . ... ... ... : ... .. . ... ... ... : G-2 00 . P87 : ... .. . ... : ... .. . ... ... : ... .. 6 ... ... : ... .. 6 ... ... : ... .. . ... ...
ROW 0F : ... .. . ... ... ... : ... .. . ... ... ... : F#2 00 . P77 : ... .. . ... : ... .. . ... ... : ... .. . ... ... : ... .. . ... ... : ... .. . ... ...
ROW 10 : ... .. . ... ... ... : ... .. 3 ... ... ... : E-2 00 . P8F : 5-# 00 F ... : ... .. . ... ... : --- .. . ... ... : --- .. . ... ... : ... .. . ... ...
ROW 11 : ... .. . ... ... ... : ... .. . ... ... ... : D#2 00 . P85 : ... .. C ... : ... .. . ... ... : ... .. . ... ... : ... .. . ... ... : ... .. . ... ...
ROW 12 : ... .. . ... ... ... : ... .. 2 ... ... ... : D-2 00 . P7E : ... .. 6 ... : ... .. . ... ... : ... .. . ... ... : ... .. . ... ... : ... .. . ... ...
ROW 13 : ... .. . ... ... ... : ... .. . ... ... ... : C#2 00 . P79 : ... .. 3 ... : ... .. . ... ... : ... .. . ... ... : ... .. . ... ... : ... .. . ... ...
ROW 14 : ... .. . ... ... ... : ... .. . ... ... ... : C-2 00 . P77 : ... .. 2 ... : ... .. . ... ... : ... .. . ... ... : ... .. . ... ... : ... .. . ... ...
ROW 15 : ... .. . ... ... ... : ... .. 1 ... ... ... : B-1 00 . P78 : ... .. 0 ... : ... .. . ... ... : ... .. . ... ... : ... .. . ... ... : ... .. . ... ...
ROW 16 : ... .. . ... ... ... : ... .. . ... ... ... : A#1 00 . P7C : ... .. . ... : ... .. . ... ... : ... .. . ... ... : ... .. . ... ... : ... .. . ... ...
ROW 17 : ... .. . ... ... ... : ... .. . ... ... ... : A-1 00 . P83 : ... .. . ... : ... .. . ... ... : ... .. . ... ... : ... .. . ... ... : ... .. . ... ...
ROW 18 : B-4 00 F ... ... ... : E-4 00 A ... ... ... : A#4 00 . P7E : D-# 00 A ... : ... .. . ... ... : F#3 01 9 ... V05 : D#4 01 9 ... V05 : C#3 01 F ... ...
ROW 19 : ... .. E ... ... ... : ... .. 9 ... ... ... : G#4 00 . ... : ... .. . ... : ... .. . ... ... : ... .. 8 ... ... : ... .. 8 ... ... : ... .. D ... ...
ROW 1A : ... .. D ... ... ... : ... .. 8 ... ... ... : F#4 00 . P7F : ... .. . ... : ... .. . ... ... : ... .. . ... ... : ... .. . ... ... : ... .. 8 ... ...
ROW 1B : ... .. A ... ... ... : ... .. 6 ... ... ... : E-4 00 . P83 : ... .. . ... : ... .. . ... ... : ... .. . ... ... : ... .. . ... ... : ... .. . ... ...
ROW 1C : ... .. . ... ... ... : ... .. . ... ... ... : D#4 00 . P7E : ... .. C ... : ... .. . ... ... : ... .. 7 ... ... : ... .. 7 ... ... : ... .. . ... ...
ROW 1D : ... .. . ... ... ... : ... .. . ... ... ... : C#4 00 . P85 : ... .. . ... : ... .. . ... ... : ... .. . ... ... : ... .. . ... ... : ... .. . ... ...
ROW 1E : ... .. . ... ... ... : ... .. . ... ... ... : C-4 00 . P82 : ... .. . ... : ... .. . ... ... : ... .. . ... ... : ... .. . ... ... : ... .. . ... ...
ROW 1F : ... .. . ... ... ... : ... .. . ... ... ... : B-3 00 . P7F : ... .. . ... : ... .. . ... ... : ... .. 6 ... ... : ... .. 6 ... ... : ... .. . ... ...
ROW 20 : ... .. . ... ... ... : F#2 00 8 ... ... ... : A-3 00 . P7C : ... .. A ... : ... .. . ... ... : --- .. . P7F ... : --- .. . ... ... : C-3 01 8 P8C ...
ROW 21 : ... .. . ... ... ... : ... .. 7 ... ... ... : G-3 00 . ... : ... .. . ... : ... .. . ... ... : ... .. . ... ... : ... .. . ... ... : ... .. . P7C ...
ROW 22 : ... .. . ... ... ... : ... .. . ... ... ... : F-3 00 . P80 : ... .. . ... : ... .. . ... ... : ... .. . ... ... : ... .. . ... ... : B-2 01 8 P89 ...
ROW 23 : ... .. . ... ... ... : ... .. 6 ... ... ... : D#3 00 . P89 : ... .. . ... : ... .. . ... ... : ... .. . ... ... : ... .. . ... ... : ... .. . P79 ...
ROW 24 : ... .. . ... ... ... : G#2 00 8 ... ... ... : D-3 00 . P7F : ... .. 7 ... : ... .. . ... ... : ... .. . ... ... : ... .. . ... ... : A#2 01 8 P87 ...
ROW 25 : ... .. 2 ... ... ... : ... .. 7 ... ... ... : C#3 00 . P77 : ... .. . ... : ... .. . ... ... : ... .. . ... ... : ... .. . ... ... : ... .. . P77 ...
ROW 26 : ... .. . ... ... ... : ... .. . ... ... ... : B-2 00 . P89 : ... .. . ... : ... .. . ... ... : ... .. . ... ... : ... .. . ... ... : A-2 01 8 P88 ...
ROW 27 : ... .. . ... ... ... : ... .. 6 ... ... ... : A#2 00 . P85 : ... .. . ... : ... .. . ... ... : ... .. . ... ... : ... .. . ... ... : ... .. . P78 ...
ROW 28 : C#3 00 F ... ... ... : A-2 00 8 ... ... ... : F-4 00 . P82 : ... .. 5 ... : ... .. . ... ... : F#3 01 2 P80 ... : D#4 01 2 ... ... : G#2 01 8 P8B ...
ROW 29 : ... .. E ... ... ... : ... .. 7 ... ... ... : D-4 00 . P81 : ... .. . ... : ... .. . ... ... : ... .. . ... ... : ... .. . ... ... : ... .. . P7B ...
ROW 2A : ... .. D ... ... ... : ... .. . ... ... ... : B-3 00 . P86 : ... .. . ... : ... .. . ... ... : ... .. . ... ... : ... .. . ... ... : G-2 01 8 P8F ...
ROW 2B : ... .. A ... ... ... : ... .. 6 ... ... ... : A-3 00 . P83 : ... .. . ... : ... .. . ... ... : ... .. . ... ... : ... .. . ... ... : ... .. . P7F ...
ROW 2C : ... .. . ... ... ... : B-2 00 8 ... ... ... : G-3 00 . ... : ... .. 3 ... : ... .. . ... ... : ... .. 1 ... ... : ... .. 1 ... ... : ... .. . P6F ...
ROW 2D : ... .. . ... ... ... : ... .. 7 ... ... ... : F-3 00 . P87 : ... .. . ... : ... .. . ... ... : ... .. . ... ... : ... .. . ... ... : F#2 01 8 P86 ...
ROW 2E : ... .. . ... ... ... : ... .. . ... ... ... : E-3 00 . P7B : ... .. . ... : ... .. . ... ... : ... .. . ... ... : ... .. . ... ... : ... .. . P76 ...
ROW 2F : ... .. . ... ... ... : ... .. 6 ... ... ... : --- .. . ... : ... .. . ... : ... .. . ... ... : ... .. . ... ... : ... .. . ... ... : --- .. . P85 ...
ROW 30 : E-3 00 F ... ... ... : C#3 00 8 ... ... ... : F#3 00 . P80 : 5-# 00 F ... : ... .. . ... ... : ... .. . ... ... : --- .. . ... ... : F#2 01 F P80 ...
ROW 31 : ... .. E ... ... ... : ... .. 7 ... ... ... : ... .. . ... : ... .. C ... : ... .. . ... ... : ... .. . ... ... : ... .. . ... ... : ... .. D ... ...
ROW 32 : ... .. D ... ... ... : ... .. . ... ... ... : ... .. . ... : ... .. 6 ... : ... .. . ... ... : ... .. . ... ... : ... .. . ... ... : ... .. 8 ... ...
ROW 33 : ... .. A ... ... ... : ... .. 6 ... ... ... : ... .. . ... : ... .. 3 ... : ... .. . ... ... : ... .. . ... ... : ... .. . ... ... : ... .. . ... ...
ROW 34 : ... .. . ... ... ... : D#3 00 8 ... ... ... : ... .. . ... : ... .. 2 ... : ... .. . ... ... : ... .. . ... ... : ... .. . ... ... : ... .. . ... ...
ROW 35 : ... .. . ... ... ... : ... .. 7 ... ... ... : ... .. . ... : ... .. 0 ... : ... .. . ... ... : ... .. . ... ... : ... .. . ... ... : ... .. . ... ...
ROW 36 : ... .. . ... ... ... : ... .. . ... ... ... : ... .. . ... : ... .. . ... : ... .. . ... ... : ... .. . ... ... : ... .. . ... ... : ... .. . ... ...
ROW 37 : ... .. . ... ... ... : ... .. 6 ... ... ... : --- .. . ... : ... .. . ... : ... .. . ... ... : ... .. . ... ... : ... .. . ... ... : --- .. . P84 ...
ROW 38 : G#3 00 F ... ... ... : E-3 00 8 ... ... ... : G#3 00 . ... : 1-# 00 F ... : ... .. . ... ... : ... .. . ... ... : ... .. . ... ... : G#2 01 F P80 ...
ROW 39 : ... .. E ... ... ... : ... .. 7 ... ... ... : ... .. . ... : ... .. C ... : ... .. . ... ... : ... .. . ... ... : ... .. . ... ... : ... .. D ... ...
ROW 3A : ... .. D ... ... ... : ... .. . ... ... ... : ... .. . ... : ... .. 6 ... : ... .. . ... ... : ... .. . ... ... : ... .. . ... ... : ... .. 8 ... ...
ROW 3B : ... .. A ... ... ... : ... .. 6 ... ... ... : ... .. . ... : ... .. 3 ... : ... .. . ... ... : ... .. . ... ... : ... .. . ... ... : ... .. . ... ...
ROW 3C : ... .. . ... ... ... : F#3 00 8 ... ... ... : ... .. . ... : ... .. 2 ... : ... .. . ... ... : ... .. . ... ... : ... .. . ... ... : ... .. . ... ...
ROW 3D : ... .. 2 ... ... ... : ... .. 7 ... ... ... : ... .. . ... : ... .. 0 ... : ... .. . ... ... : ... .. . ... ... : ... .. . ... ... : ... .. . ... ...
ROW 3E : ... .. . ... ... ... : ... .. . ... ... ... : ... .. . ... : ... .. . ... : ... .. . ... ... : ... .. . ... ... : ... .. . ... ... : ... .. . ... ...
ROW 3F : ... .. . ... ... ... : ... .. 6 ... ... ... : --- .. . ... : ... .. . ... : ... .. . ... ... : ... .. . ... ... : ... .. . ... ... : --- .. . P7F ...
ROW 40 : F#3 00 F ... ... ... : A-2 00 7 ... ... ... : G#3 00 . P85 : ... .. F ... : ... .. . ... ... : D-3 01 6 ... ... : A-2 01 6 ... ... : A-2 01 F P80 ...
ROW 41 : ... .. E ... ... ... : ... .. A ... ... ... : F-3 00 . P86 : ... .. C ... : ... .. . ... ... : ... .. 5 ... ... : ... .. 5 ... ... : ... .. D ... ...
ROW 42 : ... .. D ... ... ... : ... .. 7 ... ... ... : D#3 00 . P7C : ... .. 6 ... : ... .. . ... ... : ... .. . ... ... : ... .. . ... ... : ... .. 8 ... ...
ROW 43 : ... .. A ... ... ... : ... .. 0 ... V00 ... : C#3 00 . P76 : ... .. 3 ... : ... .. . ... ... : ... .. . ... ... : ... .. . ... ... : ... .. . ... ...
ROW 44 : ... .. . ... ... ... : A-2 00 5 P80 V01 ... : B-2 00 . P75 : ... .. 2 ... : ... .. . ... ... : ... .. 4 ... ... : ... .. 4 ... ... : ... .. . ... ...
ROW 45 : ... .. . ... ... ... : ... .. 8 ... ... ... : A-2 00 . P7A : ... .. 0 ... : ... .. . ... ... : ... .. . ... ... : ... .. . ... ... : ... .. . ... ...
ROW 46 : ... .. . ... ... ... : ... .. 0 ... V00 ... : G-2 00 . P87 : ... .. . ... : ... .. . ... ... : ... .. . ... ... : ... .. . ... ... : ... .. . ... ...
ROW 47 : ... .. . ... ... ... : ... .. . ... ... ... : --- .. . ... : ... .. . ... : ... .. . ... ... : ... .. . ... ... : ... .. . ... ... : --- .. . ... ...
ROW 48 : ... .. . ... ... ... : G#2 00 7 P80 V01 ... : A-3 00 . P80 : ... .. F ... : ... .. . ... ... : ... .. . ... ... : ... .. . ... ... : A-2 01 F ... ...
ROW 49 : ... .. . ... ... ... : ... .. A ... ... ... : ... .. . ... : ... .. C ... : ... .. . ... ... : ... .. . ... ... : ... .. . ... ... : ... .. D ... ...
ROW 4A : ... .. . ... ... ... : ... .. 7 ... ... ... : ... .. . ... : ... .. 6 ... : ... .. . ... ... : ... .. . ... ... : ... .. . ... ... : ... .. 8 ... ...
ROW 4B : ... .. . ... ... ... : ... .. 0 ... V00 ... : ... .. . ... : ... .. 3 ... : ... .. . ... ... : ... .. . ... ... : ... .. . ... ... : ... .. . ... ...
ROW 4C : ... .. . ... ... ... : G#2 00 5 P80 V01 ... : ... .. . ... : ... .. 2 ... : ... .. . ... ... : ... .. . ... ... : ... .. . ... ... : ... .. . ... ...
ROW 4D : ... .. . ... ... ... : ... .. 8 ... ... ... : ... .. . ... : ... .. 0 ... : ... .. . ... ... : ... .. . ... ... : ... .. . ... ... : ... .. . ... ...
ROW 4E : ... .. . ... ... ... : ... .. 0 ... V00 ... : ... .. . ... : ... .. . ... : ... .. . ... ... : ... .. . ... ... : ... .. . ... ... : ... .. . ... ...
ROW 4F : ... .. . ... ... ... : ... .. . ... ... ... : --- .. . ... : ... .. . ... : ... .. . ... ... : ... .. . ... ... : ... .. . ... ... : --- .. . ... ...
ROW 50 : E-3 00 F ... ... ... : A-2 00 7 P80 V01 ... : B-3 00 . P7D : 5-# 00 F ... : ... .. . ... ... : ... .. . ... ... : ... .. . ... ... : A-2 01 F ... ...
ROW 51 : ... .. E ... ... ... : ... .. A ... ... ... : A#3 00 . P7C : ... .. C ... : ... .. . ... ... : ... .. . ... ... : ... .. . ... ... : ... .. D ... ...
ROW 52 : ... .. D ... ... ... : ... .. 7 ... ... ... : A-3 00 . P7B : ... .. 6 ... : ... .. . ... ... : ... .. . ... ... : ... .. . ... ... : ... .. 8 ... ...
ROW 53 : ... .. A ... ... ... : ... .. 0 ... V00 ... : G#3 00 . ... : ... .. 3 ... : ... .. . ... ... : ... .. . ... ... : ... .. . ... ... : ... .. . ... ...
ROW 54 : ... .. . ... ... ... : A-2 00 5 P80 V01 ... : G-3 00 . P7C : ... .. 2 ... : ... .. . ... ... : ... .. . ... ... : ... .. . ... ... : ... .. . ... ...
ROW 55 : ... .. . ... ... ... : ... .. 8 ... ... ... : F#3 00 . P7E : ... .. 0 ... : ... .. . ... ... : ... .. . ... ... : ... .. . ... ... : ... .. . ... ...
ROW 56 : ... .. . ... ... ... : ... .. 0 ... V00 ... : F-3 00 . P81 : ... .. . ... : ... .. . ... ... : ... .. . ... ... : ... .. . ... ... : ... .. . ... ...
ROW 57 : ... .. . ... ... ... : ... .. . ... ... ... : --- .. . ... : ... .. . ... : ... .. . ... ... : ... .. . ... ... : ... .. . ... ... : --- .. . ... ...
ROW 58 : F#3 00 F ... ... ... : G#3 00 7 P80 V01 ... : A-3 00 . P80 : 1-# 00 F ... : ... .. . ... ... : ... .. . ... ... : ... .. . ... ... : A-2 01 F ... ...
ROW 59 : ... .. E ... ... ... : ... .. A ... ... ... : ... .. . ... : ... .. C ... : ... .. . ... ... : ... .. . ... ... : ... .. . ... ... : ... .. D ... ...
ROW 5A : ... .. D ... ... ... : ... .. 7 ... ... ... : ... .. . ... : ... .. 6 ... : ... .. . ... ... : ... .. . ... ... : ... .. . ... ... : ... .. 8 ... ...
ROW 5B : ... .. A ... ... ... : ... .. 0 ... V00 ... : ... .. . ... : ... .. 3 ... : ... .. . ... ... : ... .. . ... ... : ... .. . ... ... : ... .. . ... ...
ROW 5C : ... .. . ... ... ... : G#3 00 5 P80 V01 ... : ... .. . ... : ... .. 2 ... : ... .. . ... ... : ... .. . ... ... : ... .. . ... ... : ... .. . ... ...
ROW 5D : ... .. . ... ... ... : ... .. 8 ... ... ... : ... .. . ... : ... .. 0 ... : ... .. . ... ... : ... .. . ... ... : ... .. . ... ... : ... .. . ... ...
ROW 5E : ... .. . ... ... ... : ... .. 0 ... V00 ... : ... .. . ... : ... .. . ... : ... .. . ... ... : ... .. . ... ... : ... .. . ... ... : ... .. . ... ...
ROW 5F : ... .. . ... ... ... : ... .. . ... ... ... : --- .. . ... : ... .. . ... : ... .. . ... ... : ... .. . ... ... : ... .. . ... ... : --- .. . ... ...
ROW 60 : ... .. . ... ... ... : G#2 00 7 P80 V01 ... : G#3 00 . P85 : C-# 00 8 ... : ... .. . ... ... : E-3 01 6 ... ... : B-2 01 6 ... ... : A-2 01 F ... ...
ROW 61 : ... .. . ... ... ... : ... .. A ... ... ... : F-3 00 . P86 : ... .. 6 ... : ... .. . ... ... : ... .. 5 ... ... : ... .. 5 ... ... : ... .. D ... ...
ROW 62 : ... .. . ... ... ... : ... .. 7 ... ... ... : D#3 00 . P7C : ... .. 3 ... : ... .. . ... ... : ... .. . ... ... : ... .. . ... ... : ... .. 8 ... ...
ROW 63 : ... .. . ... ... ... : ... .. 0 ... V00 ... : C#3 00 . P76 : ... .. 1 ... : ... .. . ... ... : ... .. . ... ... : ... .. . ... ... : ... .. . ... ...
ROW 64 : ... .. . ... ... ... : G#2 00 5 P80 V01 ... : B-2 00 . P75 : ... .. . ... : ... .. . ... ... : ... .. 4 ... ... : ... .. 4 ... ... : ... .. . ... ...
ROW 65 : ... .. . ... ... ... : ... .. 8 ... ... ... : A-2 00 . P7A : ... .. 0 ... : ... .. . ... ... : ... .. . ... ... : ... .. . ... ... : ... .. . ... ...
ROW 66 : ... .. . ... ... ... : ... .. 0 ... V00 ... : G-2 00 . P87 : ... .. . ... : ... .. . ... ... : ... .. . ... ... : ... .. . ... ... : ... .. . ... ...
ROW 67 : ... .. . ... ... ... : ... .. . ... ... ... : --- .. . ... : ... .. . ... : ... .. . ... ... : ... .. . ... ... : ... .. . ... ... : --- .. . ... ...
ROW 68 : ... .. . ... ... ... : A-2 00 7 P80 V01 ... : A-3 00 . P80 : 1-# 00 F ... : ... .. . ... ... : ... .. . ... ... : ... .. . ... ... : A-2 01 F ... ...
ROW 69 : ... .. . ... ... ... : ... .. A ... ... ... : ... .. . ... : ... .. C ... : ... .. . ... ... : ... .. . ... ... : ... .. . ... ... : ... .. D ... ...
ROW 6A : ... .. . ... ... ... : ... .. 7 ... ... ... : ... .. . ... : ... .. 6 ... : ... .. . ... ... : ... .. . ... ... : ... .. . ... ... : ... .. 8 ... ...
ROW 6B : ... .. . ... ... ... : ... .. 0 ... V00 ... : ... .. . ... : ... .. 3 ... : ... .. . ... ... : ... .. . ... ... : ... .. . ... ... : ... .. . ... ...
ROW 6C : ... .. . ... ... ... : A-2 00 5 P80 V01 ... : ... .. . ... : ... .. 2 ... : ... .. . ... ... : ... .. . ... ... : ... .. . ... ... : ... .. . ... ...
ROW 6D : ... .. . ... ... ... : ... .. 8 ... ... ... : ... .. . ... : ... .. 0 ... : ... .. . ... ... : ... .. . ... ... : ... .. . ... ... : ... .. . ... ...
ROW 6E : ... .. . ... ... ... : ... .. 0 ... V00 ... : ... .. . ... : ... .. . ... : ... .. . ... ... : ... .. . ... ... : ... .. . ... ... : ... .. . ... ...
ROW 6F : ... .. . ... ... ... : ... .. . ... ... ... : --- .. . ... : ... .. . ... : ... .. . ... ... : ... .. . ... ... : ... .. . ... ... : --- .. . ... ...
ROW 70 : ... .. . ... ... ... : E-3 00 7 P80 V01 ... : B-3 00 . P7D : 5-# 00 F ... : ... .. . ... ... : ... .. . ... ... : ... .. . ... ... : A-2 01 F ... ...
ROW 71 : ... .. . ... ... ... : ... .. A ... ... ... : A#3 00 . P7C : ... .. C ... : ... .. . ... ... : ... .. . ... ... : ... .. . ... ... : ... .. D ... ...
ROW 72 : ... .. . ... ... ... : ... .. 7 ... ... ... : A-3 00 . P7B : ... .. 6 ... : ... .. . ... ... : ... .. . ... ... : ... .. . ... ... : ... .. 8 ... ...
ROW 73 : ... .. . ... ... ... : ... .. 0 ... V00 ... : G#3 00 . ... : ... .. 3 ... : ... .. . ... ... : ... .. . ... ... : ... .. . ... ... : ... .. . ... ...
ROW 74 : ... .. . ... ... ... : E-3 00 5 P80 V01 ... : G-3 00 . P7C : ... .. 2 ... : ... .. . ... ... : ... .. . ... ... : ... .. . ... ... : ... .. . ... ...
ROW 75 : ... .. 2 ... ... ... : ... .. 8 ... ... ... : F#3 00 . P7E : ... .. 0 ... : ... .. . ... ... : ... .. . ... ... : ... .. . ... ... : ... .. . ... ...
ROW 76 : ... .. . ... ... ... : ... .. 0 ... V00 ... : F-3 00 . P81 : ... .. . ... : ... .. . ... ... : ... .. . ... ... : ... .. . ... ... : ... .. . ... ...
ROW 77 : ... .. . ... ... ... : ... .. . ... ... ... : --- .. . ... : ... .. . ... : ... .. . ... ... : ... .. . ... ... : ... .. . ... ... : --- .. . ... ...
ROW 78 : ... .. 1 ... ... ... : F#3 00 7 P80 V01 ... : A-3 00 . P80 : 1-# 00 8 ... : ... .. . ... ... : ... .. . ... ... : ... .. . ... ... : A-2 01 F ... ...
ROW 79 : ... .. . ... ... ... : ... .. A ... ... ... : ... .. . ... : ... .. 6 ... : ... .. . ... ... : ... .. . ... ... : ... .. . ... ... : ... .. D ... ...
ROW 7A : ... .. . ... ... ... : ... .. 7 ... ... ... : ... .. . ... : ... .. 3 ... : ... .. . ... ... : ... .. . ... ... : ... .. . ... ... : ... .. 8 ... ...
ROW 7B : ... .. 0 ... ... ... : ... .. 0 ... V00 ... : ... .. . ... : ... .. 1 ... : ... .. . ... ... : ... .. . ... ... : ... .. . ... ... : ... .. . ... ...
ROW 7C : ... .. . ... ... ... : F#3 00 5 P80 V01 ... : ... .. . ... : ... .. . ... : ... .. . ... ... : ... .. . ... ... : ... .. . ... ... : ... .. . ... ...
ROW 7D : ... .. . ... ... ... : ... .. 8 ... ... ... : ... .. . ... : ... .. 0 ... : ... .. . ... ... : ... .. . ... ... : ... .. . ... ... : ... .. . ... ...
ROW 7E : ... .. . ... ... ... : ... .. 0 ... V00 ... : ... .. . ... : ... .. . ... : ... .. . ... ... : ... .. . ... ... : ... .. . ... ... : ... .. . ... ...
ROW 7F : ... .. . ... ... ... : ... .. . ... ... ... : --- .. . ... : ... .. . ... : ... .. . ... ... : ... .. . ... ... : ... .. . ... ... : --- .. . ... ...
ROW 80 : F#3 00 F P80 ... ... : A-2 00 7 P80 V01 ... : G#3 00 . P85 : ... .. F ... : ... .. . ... ... : F#3 01 6 ... ... : D-3 01 6 ... ... : D-2 01 F ... ...
ROW 81 : ... .. E ... ... ... : ... .. A ... ... ... : F-3 00 . P86 : ... .. C ... : ... .. . ... ... : ... .. 5 ... ... : ... .. 5 ... ... : ... .. D ... ...
ROW 82 : ... .. D ... ... ... : ... .. 7 ... ... ... : D#3 00 . P7C : ... .. 6 ... : ... .. . ... ... : ... .. . ... ... : ... .. . ... ... : ... .. 8 ... ...
ROW 83 : ... .. A ... ... ... : ... .. 0 ... V00 ... : C#3 00 . P76 : ... .. 3 ... : ... .. . ... ... : ... .. . ... ... : ... .. . ... ... : ... .. . ... ...
ROW 84 : ... .. . ... ... ... : A-2 00 5 P80 V01 ... : B-2 00 . P75 : ... .. 2 ... : ... .. . ... ... : ... .. 4 ... ... : ... .. 4 ... ... : ... .. . ... ...
ROW 85 : ... .. . ... ... ... : ... .. 8 ... ... ... : A-2 00 . P7A : ... .. 0 ... : ... .. . ... ... : ... .. . ... ... : ... .. . ... ... : ... .. . ... ...
ROW 86 : ... .. . ... ... ... : ... .. 0 ... V00 ... : G-2 00 . P87 : ... .. . ... : ... .. . ... ... : ... .. . ... ... : ... .. . ... ... : ... .. . ... ...
ROW 87 : ... .. . ... ... ... : ... .. . ... ... ... : --- .. . ... : ... .. . ... : ... .. . ... ... : ... .. . ... ... : ... .. . ... ... : --- .. . ... ...
ROW 88 : ... .. . ... ... ... : G#2 00 7 P80 V01 ... : D-3 00 . P80 : ... .. F ... : ... .. . ... ... : ... .. . ... ... : ... .. . ... ... : D-2 01 F ... ...
ROW 89 : ... .. . ... ... ... : ... .. A ... ... ... : ... .. . ... : ... .. C ... : ... .. . ... ... : ... .. . ... ... : ... .. . ... ... : ... .. D ... ...
ROW 8A : ... .. . ... ... ... : ... .. 7 ... ... ... : ... .. . ... : ... .. 6 ... : ... .. . ... ... : ... .. . ... ... : ... .. . ... ... : ... .. 8 ... ...
ROW 8B : ... .. . ... ... ... : ... .. 0 ... V00 ... : ... .. . ... : ... .. 3 ... : ... .. . ... ... : ... .. . ... ... : ... .. . ... ... : ... .. . ... ...
ROW 8C : ... .. . ... ... ... : G#2 00 5 P80 V01 ... : ... .. . ... : ... .. 2 ... : ... .. . ... ... : ... .. . ... ... : ... .. . ... ... : ... .. . ... ...
ROW 8D : ... .. . ... ... ... : ... .. 8 ... ... ... : ... .. . ... : ... .. 0 ... : ... .. . ... ... : ... .. . ... ... : ... .. . ... ... : ... .. . ... ...
ROW 8E : ... .. . ... ... ... : ... .. 0 ... V00 ... : ... .. . ... : ... .. . ... : ... .. . ... ... : ... .. . ... ... : ... .. . ... ... : ... .. . ... ...
ROW 8F : ... .. . ... ... ... : ... .. . ... ... ... : --- .. . ... : ... .. . ... : ... .. . ... ... : ... .. . ... ... : ... .. . ... ... : --- .. . ... ...
ROW 90 : G#3 00 F ... ... ... : A-2 00 7 P80 V01 ... : B-3 00 . P7D : 5-# 00 F ... : ... .. . ... ... : ... .. . ... ... : ... .. . ... ... : D-2 01 F ... ...
ROW 91 : ... .. E ... ... ... : ... .. A ... ... ... : A#3 00 . P7C : ... .. C ... : ... .. . ... ... : ... .. . ... ... : ... .. . ... ... : ... .. D ... ...
ROW 92 : ... .. D ... ... ... : ... .. 7 ... ... ... : A-3 00 . P7B : ... .. 6 ... : ... .. . ... ... : ... .. . ... ... : ... .. . ... ... : ... .. 8 ... ...
ROW 93 : ... .. A ... ... ... : ... .. 0 ... V00 ... : G#3 00 . ... : ... .. 3 ... : ... .. . ... ... : ... .. . ... ... : ... .. . ... ... : ... .. . ... ...
ROW 94 : ... .. . ... ... ... : A-2 00 5 P80 V01 ... : G-3 00 . P7C : ... .. 2 ... : ... .. . ... ... : ... .. . ... ... : ... .. . ... ... : ... .. . ... ...
ROW 95 : ... .. 2 ... ... ... : ... .. 8 ... ... ... : F#3 00 . P7E : ... .. 0 ... : ... .. . ... ... : ... .. . ... ... : ... .. . ... ... : ... .. . ... ...
ROW 96 : ... .. . ... ... ... : ... .. 0 ... V00 ... : F-3 00 . P81 : ... .. . ... : ... .. . ... ... : ... .. . ... ... : ... .. . ... ... : ... .. . ... ...
ROW 97 : ... .. . ... ... ... : ... .. . ... ... ... : --- .. . ... : ... .. . ... : ... .. . ... ... : ... .. . ... ... : ... .. . ... ... : --- .. . ... ...
ROW 98 : A-3 00 F ... ... ... : E-3 00 7 P80 V01 ... : D-3 00 . P80 : 1-# 00 F ... : ... .. . ... ... : ... .. . ... ... : ... .. . ... ... : D-2 01 F ... ...
ROW 99 : ... .. E ... ... ... : ... .. A ... ... ... : ... .. . ... : ... .. C ... : ... .. . ... ... : ... .. . ... ... : ... .. . ... ... : ... .. D ... ...
ROW 9A : ... .. D ... ... ... : ... .. 7 ... ... ... : ... .. . ... : ... .. 6 ... : ... .. . ... ... : ... .. . ... ... : ... .. . ... ... : ... .. 8 ... ...
ROW 9B : ... .. A ... ... ... : ... .. 0 ... V00 ... : ... .. . ... : ... .. 3 ... : ... .. . ... ... : ... .. . ... ... : ... .. . ... ... : ... .. . ... ...
ROW 9C : ... .. . ... ... ... : E-3 00 5 P80 V01 ... : ... .. . ... : ... .. 2 ... : ... .. . ... ... : ... .. . ... ... : ... .. . ... ... : ... .. . ... ...
ROW 9D : ... .. . ... ... ... : ... .. 8 ... ... ... : ... .. . ... : ... .. 0 ... : ... .. . ... ... : ... .. . ... ... : ... .. . ... ... : ... .. . ... ...
ROW 9E : ... .. . ... ... ... : ... .. 0 ... V00 ... : ... .. . ... : ... .. . ... : ... .. . ... ... : ... .. . ... ... : ... .. . ... ... : ... .. . ... ...
ROW 9F : ... .. . ... ... ... : ... .. . ... ... ... : --- .. . ... : ... .. . ... : ... .. . ... ... : ... .. . ... ... : ... .. . ... ... : --- .. . ... ...
ROW A0 : ... .. . ... ... ... : D-3 00 7 P80 V01 ... : G#3 00 . P85 : C-# 00 8 ... : ... .. . ... ... : D-4 01 6 ... ... : F#3 01 6 ... ... : D-2 01 F ... ...
ROW A1 : ... .. . ... ... ... : ... .. A ... ... ... : F-3 00 . P86 : ... .. 6 ... : ... .. . ... ... : ... .. 5 ... ... : ... .. 5 ... ... : ... .. D ... ...
ROW A2 : ... .. . ... ... ... : ... .. 7 ... ... ... : D#3 00 . P7C : ... .. 3 ... : ... .. . ... ... : ... .. . ... ... : ... .. . ... ... : ... .. 8 ... ...
ROW A3 : ... .. . ... ... ... : ... .. 0 ... V00 ... : C#3 00 . P76 : ... .. 1 ... : ... .. . ... ... : ... .. . ... ... : ... .. . ... ... : ... .. . ... ...
ROW A4 : ... .. . ... ... ... : D-3 00 5 P80 V01 ... : B-2 00 . P75 : ... .. . ... : ... .. . ... ... : ... .. 4 ... ... : ... .. 4 ... ... : ... .. . ... ...
ROW A5 : ... .. . ... ... ... : ... .. 8 ... ... ... : A-2 00 . P7A : ... .. 0 ... : ... .. . ... ... : ... .. . ... ... : ... .. . ... ... : ... .. . ... ...
ROW A6 : ... .. . ... ... ... : ... .. 0 ... V00 ... : G-2 00 . P87 : ... .. . ... : ... .. . ... ... : ... .. . ... ... : ... .. . ... ... : ... .. . ... ...
ROW A7 : ... .. . ... ... ... : ... .. . ... ... ... : --- .. . ... : ... .. . ... : ... .. . ... ... : ... .. . ... ... : ... .. . ... ... : --- .. . ... ...
ROW A8 : B-3 00 F ... ... ... : F#3 00 7 P80 V01 ... : D-3 00 . P80 : 1-# 00 F ... : ... .. . ... ... : ... .. . ... ... : ... .. . ... ... : D-2 01 F ... ...
ROW A9 : ... .. E ... ... ... : ... .. A ... ... ... : ... .. . ... : ... .. C ... : ... .. . ... ... : ... .. . ... ... : ... .. . ... ... : ... .. D ... ...
ROW AA : ... .. D ... ... ... : ... .. 7 ... ... ... : ... .. . ... : ... .. 6 ... : ... .. . ... ... : ... .. . ... ... : ... .. . ... ... : ... .. 8 ... ...
ROW AB : ... .. A ... ... ... : ... .. 0 ... V00 ... : ... .. . ... : ... .. 3 ... : ... .. . ... ... : ... .. . ... ... : ... .. . ... ... : ... .. . ... ...
ROW AC : ... .. . ... ... ... : F#3 00 5 P80 V01 ... : ... .. . ... : ... .. 2 ... : ... .. . ... ... : ... .. . ... ... : ... .. . ... ... : ... .. . ... ...
ROW AD : ... .. . ... ... ... : ... .. 8 ... ... ... : ... .. . ... : ... .. 0 ... : ... .. . ... ... : ... .. . ... ... : ... .. . ... ... : ... .. . ... ...
ROW AE : ... .. . ... ... ... : ... .. 0 ... V00 ... : ... .. . ... : ... .. . ... : ... .. . ... ... : ... .. . ... ... : ... .. . ... ... : ... .. . ... ...
ROW AF : ... .. . ... ... ... : ... .. . ... ... ... : --- .. . ... : ... .. . ... : ... .. . ... ... : ... .. . ... ... : ... .. . ... ... : --- .. . ... ...
ROW B0 : A-3 00 F ... ... ... : A-3 00 7 P80 V01 ... : B-3 00 . P7D : 5-# 00 F ... : ... .. . ... ... : ... .. . ... ... : ... .. . ... ... : D-2 01 F ... ...
ROW B1 : ... .. E ... ... ... : ... .. A ... ... ... : A#3 00 . P7C : ... .. C ... : ... .. . ... ... : ... .. . ... ... : ... .. . ... ... : ... .. D ... ...
ROW B2 : ... .. D ... ... ... : ... .. 7 ... ... ... : A-3 00 . P7B : ... .. 6 ... : ... .. . ... ... : ... .. . ... ... : ... .. . ... ... : ... .. 8 ... ...
ROW B3 : ... .. A ... ... ... : ... .. 0 ... V00 ... : G#3 00 . ... : ... .. 3 ... : ... .. . ... ... : ... .. . ... ... : ... .. . ... ... : ... .. . ... ...
ROW B4 : ... .. . ... ... ... : A-3 00 5 P80 V01 ... : G-3 00 . P7C : ... .. 2 ... : ... .. . ... ... : ... .. . ... ... : ... .. . ... ... : ... .. . ... ...
ROW B5 : ... .. . ... ... ... : ... .. 8 ... ... ... : F#3 00 . P7E : ... .. 0 ... : ... .. . ... ... : ... .. . ... ... : ... .. . ... ... : ... .. . ... ...
ROW B6 : ... .. . ... ... ... : ... .. 0 ... V00 ... : F-3 00 . P81 : ... .. . ... : ... .. . ... ... : ... .. . ... ... : ... .. . ... ... : ... .. . ... ...
ROW B7 : ... .. . ... ... ... : ... .. . ... ... ... : --- .. . ... : ... .. . ... : ... .. . ... ... : ... .. . ... ... : ... .. . ... ... : --- .. . ... ...
ROW B8 : ... .. . ... ... ... : G#3 00 7 P80 V01 ... : D-3 00 . P80 : C-# 00 8 ... : ... .. . ... ... : ... .. . ... ... : ... .. . ... ... : D-2 01 F ... ...
ROW B9 : ... .. . ... ... ... : ... .. A ... ... ... : ... .. . ... : ... .. 6 ... : ... .. . ... ... : ... .. . ... ... : ... .. . ... ... : ... .. D ... ...
ROW BA : ... .. . ... ... ... : ... .. 7 ... ... ... : ... .. . ... : ... .. 3 ... : ... .. . ... ... : ... .. . ... ... : ... .. . ... ... : ... .. 8 ... ...
ROW BB : ... .. . ... ... ... : ... .. 0 ... V00 ... : ... .. . ... : ... .. 1 ... : ... .. . ... ... : ... .. . ... ... : ... .. . ... ... : ... .. . ... ...
ROW BC : ... .. . ... ... ... : G#3 00 5 P80 V01 ... : ... .. . ... : ... .. . ... : ... .. . ... ... : ... .. . ... ... : ... .. . ... ... : ... .. . ... ...
ROW BD : ... .. 2 ... ... ... : ... .. 8 ... ... ... : ... .. . ... : ... .. 0 ... : ... .. . ... ... : ... .. . ... ... : ... .. . ... ... : ... .. . ... ...
ROW BE : ... .. . ... ... ... : ... .. 0 ... V00 ... : ... .. . ... : ... .. . ... : ... .. . ... ... : ... .. . ... ... : ... .. . ... ... : ... .. . ... ...
ROW BF : ... .. . ... ... ... : ... .. . ... ... ... : --- .. . ... : ... .. . ... : ... .. . ... ... : ... .. . ... ... : ... .. . ... ... : --- .. . ... ...
ROW C0 : G#3 00 F ... ... ... : C#4 00 8 P80 V01 ... : G#3 00 . P85 : 1-# 00 F ... : ... .. . ... ... : C#4 01 6 ... ... : ... .. 6 ... ... : D#4 01 8 ... ...
ROW C1 : ... .. E ... ... ... : ... .. 7 ... ... ... : F-3 00 . P86 : ... .. C ... : ... .. . ... ... : ... .. 5 ... ... : ... .. 5 ... ... : ... .. 6 ... ...
ROW C2 : ... .. D ... ... ... : ... .. . ... ... ... : D#3 00 . P7C : ... .. 6 ... : ... .. . ... ... : ... .. . ... ... : ... .. . ... ... : ... .. 4 ... ...
ROW C3 : ... .. A ... ... ... : ... .. 6 ... ... ... : C#3 00 . P76 : ... .. 3 ... : ... .. . ... ... : ... .. . ... ... : ... .. . ... ... : ... .. . ... ...
ROW C4 : ... .. . ... ... ... : G#3 00 8 ... ... ... : B-2 00 . P75 : ... .. 2 ... : ... .. . ... ... : ... .. 4 ... ... : ... .. 4 ... ... : ... .. . ... ...
ROW C5 : ... .. . ... ... ... : ... .. 7 ... ... ... : A-2 00 . P7A : ... .. 0 ... : ... .. . ... ... : ... .. . ... ... : ... .. . ... ... : ... .. . ... ...
ROW C6 : ... .. . ... ... ... : ... .. . ... ... ... : G-2 00 . P87 : ... .. . ... : ... .. . ... ... : ... .. . ... ... : ... .. . ... ... : ... .. . ... ...
ROW C7 : ... .. . ... ... ... : ... .. 6 ... ... ... : F#2 00 . P77 : ... .. . ... : ... .. . ... ... : ... .. . ... ... : ... .. . ... ... : ... .. . ... ...
ROW C8 : ... .. . ... ... ... : D#3 00 8 ... ... ... : D#3 00 . P80 : ... .. F ... : ... .. . ... ... : ... .. . ... ... : ... .. . ... ... : ... .. . ... ...
ROW C9 : ... .. . ... ... ... : ... .. 7 ... ... ... : ... .. . ... : ... .. C ... : ... .. . ... ... : ... .. . ... ... : ... .. . ... ... : ... .. . ... ...
ROW CA : ... .. . ... ... ... : ... .. . ... ... ... : ... .. . ... : ... .. 6 ... : ... .. . ... ... : ... .. . ... ... : ... .. . ... ... : ... .. . ... ...
ROW CB : ... .. . ... ... ... : ... .. 6 ... ... ... : ... .. . ... : ... .. 3 ... : ... .. . ... ... : ... .. . ... ... : ... .. . ... ... : ... .. . ... ...
ROW CC : ... .. . ... ... ... : G#2 00 8 ... ... ... : ... .. . ... : ... .. 2 ... : ... .. . ... ... : ... .. . ... ... : ... .. . ... ... : ... .. . ... ...
ROW CD : ... .. . ... ... ... : ... .. 7 ... ... ... : ... .. . ... : ... .. 0 ... : ... .. . ... ... : ... .. . ... ... : ... .. . ... ... : ... .. . ... ...
ROW CE : ... .. . ... ... ... : ... .. . ... ... ... : ... .. . ... : ... .. . ... : ... .. . ... ... : ... .. . ... ... : ... .. . ... ... : ... .. . ... ...
ROW CF : ... .. . ... ... ... : ... .. 6 ... ... ... : ... .. . ... : ... .. . ... : ... .. . ... ... : ... .. . ... ... : ... .. . ... ... : ... .. . ... ...
ROW D0 : ... .. . ... ... ... : D#3 00 8 ... ... ... : ... .. . ... : 5-# 00 F ... : ... .. . ... ... : ... .. . ... ... : ... .. . ... ... : ... .. . ... ...
ROW D1 : ... .. . ... ... ... : ... .. 7 ... ... ... : ... .. . ... : ... .. C ... : ... .. . ... ... : ... .. . ... ... : ... .. . ... ... : ... .. . ... ...
ROW D2 : ... .. . ... ... ... : ... .. . ... ... ... : ... .. . ... : ... .. 6 ... : ... .. . ... ... : ... .. . ... ... : ... .. . ... ... : ... .. . ... ...
ROW D3 : ... .. . ... ... ... : ... .. 6 ... ... ... : ... .. . ... : ... .. 3 ... : ... .. . ... ... : ... .. . ... ... : ... .. . ... ... : ... .. . ... ...
ROW D4 : ... .. . ... ... ... : F#3 00 8 ... ... ... : ... .. . ... : ... .. 2 ... : ... .. . ... ... : ... .. . ... ... : ... .. . ... ... : ... .. . ... ...
ROW D5 : ... .. . ... ... ... : ... .. 7 ... ... ... : ... .. . ... : ... .. 0 ... : ... .. . ... ... : ... .. . ... ... : ... .. . ... ... : ... .. . ... ...
ROW D6 : ... .. . ... ... ... : ... .. . ... ... ... : ... .. . ... : ... .. . ... : ... .. . ... ... : ... .. . ... ... : ... .. . ... ... : ... .. . ... ...
ROW D7 : ... .. . ... ... ... : ... .. 6 ... ... ... : ... .. . ... : ... .. . ... : ... .. . ... ... : ... .. . ... ... : ... .. . ... ... : ... .. . ... ...
ROW D8 : ... .. . ... ... ... : G#3 00 8 ... ... ... : ... .. . ... : 1-# 00 F ... : ... .. . ... ... : ... .. . ... ... : ... .. . ... ... : ... .. . ... ...
ROW D9 : ... .. . ... ... ... : ... .. 7 ... ... ... : ... .. . ... : ... .. C ... : ... .. . ... ... : ... .. . ... ... : ... .. . ... ... : ... .. . ... ...
ROW DA : ... .. . ... ... ... : ... .. . ... ... ... : ... .. . ... : ... .. 6 ... : ... .. . ... ... : ... .. . ... ... : ... .. . ... ... : ... .. . ... ...
ROW DB : ... .. . ... ... ... : ... .. 6 ... ... ... : ... .. . ... : ... .. 3 ... : ... .. . ... ... : ... .. . ... ... : ... .. . ... ... : ... .. . ... ...
ROW DC : ... .. . ... ... ... : C#4 00 8 ... ... ... : ... .. . ... : ... .. 2 ... : ... .. . ... ... : ... .. . ... ... : ... .. . ... ... : ... .. . ... ...
ROW DD : ... .. . ... ... ... : ... .. 7 ... ... ... : ... .. . ... : ... .. 0 ... : ... .. . ... ... : ... .. . ... ... : ... .. . ... ... : ... .. . ... ...
ROW DE : ... .. . ... ... ... : ... .. . ... ... ... : ... .. . ... : ... .. . ... : ... .. . ... ... : ... .. . ... ... : ... .. . ... ... : ... .. . ... ...
ROW DF : ... .. . ... ... ... : ... .. 6 ... ... ... : ... .. . ... : ... .. . ... : ... .. . ... ... : ... .. . ... ... : ... .. . ... ... : ... .. . ... ...
ROW E0 : ... .. . P84 ... ... : A#3 00 8 ... ... ... : ... .. . ... : C-# 00 8 ... : ... .. . ... ... : ... .. . ... ... : ... .. . ... ... : ... .. . ... ...
ROW E1 : ... .. . P86 ... ... : ... .. 7 ... ... ... : ... .. . ... : ... .. 6 ... : ... .. . ... ... : ... .. . ... ... : ... .. . ... ... : ... .. . ... ...
ROW E2 : ... .. . P85 ... ... : ... .. . ... ... ... : ... .. . ... : ... .. 3 ... : ... .. . ... ... : ... .. . ... ... : ... .. . ... ... : ... .. . ... ...
ROW E3 : ... .. . P82 ... ... : ... .. 6 ... ... ... : ... .. . ... : ... .. 1 ... : ... .. . ... ... : ... .. . ... ... : ... .. . ... ... : ... .. . ... ...
ROW E4 : ... .. . P7E ... ... : D#3 00 8 ... ... ... : ... .. . ... : ... .. . ... : ... .. . ... ... : ... .. . ... ... : ... .. . ... ... : ... .. . ... ...
ROW E5 : ... .. . P7B ... ... : ... .. 7 ... ... ... : ... .. . ... : ... .. 0 ... : ... .. . ... ... : ... .. . ... ... : ... .. . ... ... : ... .. . ... ...
ROW E6 : ... .. . P7A ... ... : ... .. . ... ... ... : ... .. . ... : ... .. . ... : ... .. . ... ... : ... .. . ... ... : ... .. . ... ... : ... .. . ... ...
ROW E7 : ... .. . P7C ... ... : ... .. 6 ... ... ... : ... .. . ... : ... .. . ... : ... .. . ... ... : ... .. . ... ... : ... .. . ... ... : ... .. . ... ...
ROW E8 : ... .. . P80 ... ... : C#3 00 8 ... ... ... : ... .. . ... : 1-# 00 F ... : ... .. . ... ... : ... .. . ... ... : ... .. . ... ... : ... .. . ... ...
ROW E9 : ... .. . P83 ... ... : ... .. 7 ... ... ... : ... .. . ... : ... .. C ... : ... .. . ... ... : ... .. . ... ... : ... .. . ... ... : ... .. . ... ...
ROW EA : ... .. . P86 ... ... : ... .. . ... ... ... : ... .. . ... : ... .. 6 ... : ... .. . ... ... : ... .. . ... ... : ... .. . ... ... : ... .. . ... ...
ROW EB : ... .. . ... ... ... : ... .. 6 ... ... ... : ... .. . ... : ... .. 3 ... : ... .. . ... ... : ... .. . ... ... : ... .. . ... ... : ... .. . ... ...
ROW EC : ... .. . P82 ... ... : G#2 00 8 ... ... ... : ... .. . ... : ... .. 2 ... : ... .. . ... ... : ... .. . ... ... : ... .. . ... ... : ... .. . ... ...
ROW ED : ... .. . P7F ... ... : ... .. 7 ... ... ... : ... .. . ... : ... .. 0 ... : ... .. . ... ... : ... .. . ... ... : ... .. . ... ... : ... .. . ... ...
ROW EE : ... .. . P7B ... ... : ... .. . ... ... ... : ... .. . ... : ... .. . ... : ... .. . ... ... : ... .. . ... ... : ... .. . ... ... : ... .. . ... ...
ROW EF : ... .. . P7A ... ... : ... .. 6 ... ... ... : ... .. . ... : ... .. . ... : ... .. . ... ... : ... .. . ... ... : ... .. . ... ... : ... .. . ... ...
ROW F0 : ... .. . P7C ... ... : D#2 00 8 ... ... ... : ... .. . ... : 5-# 00 F ... : ... .. . ... ... : ... .. . ... ... : ... .. . ... ... : ... .. . ... ...
ROW F1 : ... .. . P80 ... ... : ... .. 7 ... ... ... : ... .. . ... : ... .. C ... : ... .. . ... ... : ... .. . ... ... : ... .. . ... ... : ... .. . ... ...
ROW F2 : ... .. . P83 ... ... : ... .. . ... ... ... : ... .. . ... : ... .. 6 ... : ... .. . ... ... : ... .. . ... ... : ... .. . ... ... : ... .. . ... ...
ROW F3 : ... .. . P86 ... ... : ... .. 6 ... ... ... : ... .. . ... : ... .. 3 ... : ... .. . ... ... : ... .. . ... ... : ... .. . ... ... : ... .. . ... ...
ROW F4 : ... .. . P80 ... ... : G#2 00 8 ... ... ... : ... .. . ... : ... .. 2 ... : ... .. . ... ... : ... .. . ... ... : ... .. . ... ... : ... .. . ... ...
ROW F5 : ... .. . ... ... ... : ... .. 7 ... ... ... : ... .. . ... : ... .. 0 ... : ... .. . ... ... : ... .. . ... ... : ... .. . ... ... : ... .. . ... ...
ROW F6 : ... .. . ... ... ... : ... .. . ... ... ... : ... .. . ... : ... .. . ... : ... .. . ... ... : ... .. . ... ... : ... .. . ... ... : ... .. . ... ...
ROW F7 : ... .. . ... ... ... : ... .. 6 ... ... ... : ... .. . ... : ... .. . ... : ... .. . ... ... : ... .. . ... ... : ... .. . ... ... : ... .. . ... ...
ROW F8 : A-3 00 A P7B ... ... : C#3 00 8 ... ... ... : ... .. . ... : C-# 00 8 ... : ... .. . ... ... : ... .. . ... ... : ... .. . ... ... : ... .. . ... ...
ROW F9 : ... .. . P85 ... ... : ... .. 7 ... ... ... : ... .. . ... : ... .. 6 ... : ... .. . ... ... : ... .. . ... ... : ... .. . ... ... : ... .. . ... ...
ROW FA : A#3 00 A P81 ... ... : ... .. . ... ... ... : ... .. . ... : ... .. 3 ... : ... .. . ... ... : ... .. . ... ... : ... .. . ... ... : ... .. . ... ...
ROW FB : B-3 00 A P7D ... ... : ... .. 6 ... ... ... : ... .. . ... : ... .. 1 ... : ... .. . ... ... : ... .. . ... ... : ... .. . ... ... : ... .. . ... ...
ROW FC : C-4 00 A P7B ... ... : D#3 00 8 ... ... ... : ... .. . ... : ... .. . ... : ... .. . ... ... : ... .. . ... ... : ... .. . ... ... : ... .. . ... ...
ROW FD : ... .. . P85 ... ... : ... .. 7 ... ... ... : ... .. . ... : ... .. 0 ... : ... .. . ... ... : ... .. . ... ... : ... .. . ... ... : ... .. . ... ...
ROW FE : C#4 00 A P83 ... ... : ... .. . ... ... ... : ... .. . ... : ... .. . ... : ... .. . ... ... : ... .. . ... ... : ... .. . ... ... : ... .. . ... ...
ROW FF : D-4 00 A P81 ... ... : ... .. 6 ... ... ... : ... .. . ... : ... .. . ... : ... .. . ... ... : ... .. . ... ... : ... .. . ... ... : ... .. . ... ...

PATTERN 12
ROW 00 : G#4 00 F P80 ... ... : C-4 00 8 ... ... ... : G#2 00 . ... : 1-# 00 F ... : ... .. . ... ... : C-4 01 6 ... ... : D#3 01 6 ... ... : G#3 01 8 ... ...
ROW 01 : ... .. E ... ... ... : ... .. 7 ... ... ... : ... .. . ... : ... .. C ... : ... .. . ... ... : ... .. 5 ... ... : ... .. 5 ... ... : ... .. 6 ... ...
ROW 02 : ... .. D ... ... ... : ... .. . ... ... ... : ... .. . ... : ... .. 6 ... : ... .. . ... ... : ... .. . ... ... : ... .. . ... ... : ... .. 4 ... ...
ROW 03 : ... .. A ... ... ... : ... .. 6 ... ... ... : ... .. . ... : ... .. 3 ... : ... .. . ... ... : ... .. . ... ... : ... .. . ... ... : ... .. . ... ...
ROW 04 : ... .. . ... ... ... : G#3 00 8 ... ... ... : ... .. . ... : ... .. 2 ... : ... .. . ... ... : ... .. 4 ... ... : ... .. 4 ... ... : ... .. . ... ...
ROW 05 : ... .. . ... ... ... : ... .. 7 ... ... ... : ... .. . ... : ... .. 0 ... : ... .. . ... ... : ... .. . ... ... : ... .. . ... ... : ... .. . ... ...
ROW 06 : ... .. . ... ... ... : ... .. . ... ... ... : ... .. . ... : ... .. . ... : ... .. . ... ... : ... .. . ... ... : ... .. . ... ... : ... .. . ... ...
ROW 07 : ... .. . ... ... ... : ... .. 6 ... ... ... : ... .. . ... : ... .. . ... : ... .. . ... ... : ... .. . ... ... : ... .. . ... ... : ... .. . ... ...
ROW 08 : ... .. . ... ... ... : D#3 00 8 ... ... ... : ... .. . ... : ... .. . ... : ... .. . ... ... : ... .. . ... ... : ... .. . ... ... : ... .. . ... ...
ROW 09 : ... .. . ... ... ... : ... .. 7 ... ... ... : ... .. . ... : ... .. . ... : ... .. . ... ... : ... .. . ... ... : ... .. . ... ... : ... .. . ... ...
ROW 0A : ... .. . ... ... ... : ... .. . ... ... ... : ... .. . ... : ... .. . ... : ... .. . ... ... : ... .. . ... ... : ... .. . ... ... : ... .. . ... ...
ROW 0B : ... .. . ... ... ... : ... .. 6 ... ... ... : ... .. . ... : ... .. . ... : ... .. . ... ... : ... .. . ... ... : ... .. . ... ... : ... .. . ... ...
ROW 0C : ... .. . ... ... ... : C-3 00 8 ... ... ... : ... .. . ... : ... .. . ... : ... .. . ... ... : ... .. . ... ... : ... .. . ... ... : ... .. . ... ...
ROW 0D : ... .. . ... ... ... : ... .. 7 ... ... ... : ... .. . ... : ... .. . ... : ... .. . ... ... : ... .. . ... ... : ... .. . ... ... : ... .. . ... ...
ROW 0E : ... .. . ... ... ... : ... .. . ... ... ... : ... .. . ... : ... .. . ... : ... .. . ... ... : ... .. . ... ... : ... .. . ... ... : ... .. . ... ...
ROW 0F : ... .. . ... ... ... : ... .. 6 ... ... ... : ... .. . ... : ... .. . ... : ... .. . ... ... : ... .. . ... ... : ... .. . ... ... : ... .. . ... ...
ROW 10 : ... .. . ... ... ... : G#2 00 8 ... ... ... : ... .. . ... : ... .. . ... : ... .. . ... ... : ... .. . ... ... : G#4 01 6 ... ... : ... .. . ... ...
ROW 11 : ... .. 2 ... ... ... : ... .. 7 ... ... ... : ... .. . ... : ... .. . ... : ... .. . ... ... : ... .. . ... ... : ... .. 5 ... ... : ... .. . ... ...
ROW 12 : ... .. . ... ... ... : ... .. . ... ... ... : ... .. . ... : ... .. . ... : ... .. . ... ... : ... .. . ... ... : ... .. . ... ... : ... .. . ... ...
ROW 13 : ... .. . ... ... ... : ... .. 6 ... ... ... : ... .. . ... : ... .. . ... : ... .. . ... ... : ... .. . ... ... : ... .. . ... ... : ... .. . ... ...
ROW 14 : ... .. 1 ... ... ... : C-3 00 8 ... ... ... : ... .. . ... : ... .. . ... : ... .. . ... ... : ... .. . ... ... : F#4 01 6 ... ... : ... .. . ... ...
ROW 15 : ... .. . ... ... ... : ... .. 7 ... ... ... : ... .. . ... : ... .. . ... : ... .. . ... ... : ... .. . ... ... : ... .. 5 ... ... : ... .. . ... ...
ROW 16 : ... .. . ... ... ... : ... .. . ... ... ... : ... .. . ... : ... .. . ... : ... .. . ... ... : ... .. . ... ... : ... .. . ... ... : ... .. . ... ...
ROW 17 : ... .. 0 ... ... ... : ... .. 6 ... ... ... : ... .. . ... : ... .. . ... : ... .. . ... ... : ... .. . ... ... : ... .. . ... ... : ... .. . ... ...
ROW 18 : ... .. . ... ... ... : D#3 00 8 ... ... ... : ... .. . ... : ... .. . ... : ... .. . ... ... : ... .. . ... ... : E-4 01 6 ... ... : ... .. . ... ...
ROW 19 : ... .. . ... ... ... : ... .. 7 ... ... ... : ... .. . ... : ... .. . ... : ... .. . ... ... : ... .. . ... ... : ... .. 5 ... ... : ... .. . ... ...
ROW 1A : ... .. . ... ... ... : ... .. . ... ... ... : ... .. . ... : ... .. . ... : ... .. . ... ... : ... .. . ... ... : ... .. . ... ... : ... .. . ... ...
ROW 1B : ... .. . ... ... ... : ... .. 6 ... ... ... : ... .. . ... : ... .. . ... : ... .. . ... ... : ... .. . ... ... : ... .. . ... ... : ... .. . ... ...
ROW 1C : ... .. . ... ... ... : G#3 00 8 ... ... ... : ... .. . ... : ... .. . ... : ... .. . ... ... : ... .. . ... ... : D#4 01 6 ... ... : ... .. . ... ...
ROW 1D : ... .. . ... ... ... : ... .. 7 ... ... ... : ... .. . ... : ... .. . ... : ... .. . ... ... : ... .. . ... ... : ... .. 5 ... ... : ... .. . ... ...
ROW 1E : ... .. . ... ... ... : ... .. . ... ... ... : ... .. . ... : ... .. . ... : ... .. . ... ... : ... .. . ... ... : ... .. . ... ... : ... .. . ... ...
ROW 1F : ... .. . ... ... ... : ... .. 6 ... ... ... : ... .. . ... : ... .. . ... : ... .. . ... ... : ... .. . ... ... : ... .. . ... ... : ... .. . ... ...
ROW 20 : ... .. . ... ... ... : F#3 00 8 ... ... ... : F#2 00 . ... : ... .. . ... : ... .. . ... ... : ... .. . ... ... : C#4 01 6 ... ... : ... .. . ... ...
ROW 21 : ... .. . ... ... ... : ... .. 7 ... ... ... : ... .. . ... : ... .. . ... : ... .. . ... ... : ... .. . ... ... : ... .. 5 ... ... : ... .. . ... ...
ROW 22 : ... .. . ... ... ... : ... .. . ... ... ... : ... .. . ... : ... .. . ... : ... .. . ... ... : ... .. . ... ... : ... .. . ... ... : ... .. . ... ...
ROW 23 : ... .. . ... ... ... : ... .. 6 ... ... ... : ... .. . ... : ... .. . ... : ... .. . ... ... : ... .. . ... ... : ... .. . ... ... : ... .. . ... ...
ROW 24 : ... .. . ... ... ... : G#3 00 8 ... ... ... : ... .. . ... : ... .. . ... : ... .. . ... ... : ... .. . ... ... : C-4 01 6 ... ... : ... .. . ... ...
ROW 25 : ... .. . ... ... ... : ... .. 7 ... ... ... : ... .. . ... : ... .. . ... : ... .. . ... ... : ... .. . ... ... : ... .. 5 ... ... : ... .. . ... ...
ROW 26 : ... .. . ... ... ... : ... .. . ... ... ... : ... .. . ... : ... .. . ... : ... .. . ... ... : ... .. . ... ... : ... .. . ... ... : ... .. . ... ...
ROW 27 : ... .. . ... ... ... : ... .. 6 ... ... ... : ... .. . ... : ... .. . ... : ... .. . ... ... : ... .. . ... ... : ... .. . ... ... : ... .. . ... ...
ROW 28 : ... .. . ... ... ... : B-3 00 8 ... ... ... : ... .. . ... : ... .. . ... : ... .. . ... ... : ... .. . ... ... : A-3 01 6 ... ... : ... .. . ... ...
ROW 29 : ... .. . ... ... ... : ... .. 7 ... ... ... : ... .. . ... : ... .. . ... : ... .. . ... ... : ... .. . ... ... : ... .. 5 ... ... : ... .. . ... ...
ROW 2A : ... .. . ... ... ... : ... .. . ... ... ... : ... .. . ... : ... .. . ... : ... .. . ... ... : ... .. . ... ... : ... .. . ... ... : ... .. . ... ...
ROW 2B : ... .. . ... ... ... : ... .. 6 ... ... ... : ... .. . ... : ... .. . ... : ... .. . ... ... : ... .. . ... ... : ... .. . ... ... : ... .. . ... ...
ROW 2C : ... .. . ... ... ... : E-4 00 8 ... ... ... : ... .. . ... : ... .. . ... : ... .. . ... ... : ... .. . ... ... : G#3 01 6 ... ... : ... .. . ... ...
ROW 2D : ... .. . ... ... ... : ... .. 7 ... ... ... : ... .. . ... : ... .. . ... : ... .. . ... ... : ... .. . ... ... : ... .. 5 ... ... : ... .. . ... ...
ROW 2E : ... .. . ... ... ... : ... .. . ... ... ... : ... .. . ... : ... .. . ... : ... .. . ... ... : ... .. . ... ... : ... .. . ... ... : ... .. . ... ...
ROW 2F : ... .. . ... ... ... : ... .. 6 ... ... ... : ... .. . ... : ... .. . ... : ... .. . ... ... : ... .. . ... ... : ... .. . ... ... : ... .. . ... ...
ROW 30 : ... .. . ... ... ... : F#4 00 8 ... ... ... : ... .. . ... : ... .. . ... : ... .. . ... ... : ... .. . ... ... : F#3 01 6 ... ... : ... .. . ... ...
ROW 31 : ... .. . ... ... ... : ... .. 7 ... ... ... : ... .. . ... : ... .. . ... : ... .. . ... ... : ... .. . ... ... : ... .. 5 ... ... : ... .. . ... ...
ROW 32 : ... .. . ... ... ... : ... .. . ... ... ... : ... .. . ... : ... .. . ... : ... .. . ... ... : ... .. . ... ... : ... .. . ... ... : ... .. . ... ...
ROW 33 : ... .. . ... ... ... : ... .. 6 ... ... ... : ... .. . ... : ... .. . ... : ... .. . ... ... : ... .. . ... ... : ... .. . ... ... : ... .. . ... ...
ROW 34 : ... .. . ... ... ... : G#4 00 8 ... ... ... : ... .. . ... : ... .. . ... : ... .. . ... ... : ... .. . ... ... : E-3 01 6 ... ... : ... .. . ... ...
ROW 35 : ... .. . ... ... ... : ... .. 7 ... ... ... : ... .. . ... : ... .. . ... : ... .. . ... ... : ... .. . ... ... : ... .. 5 ... ... : ... .. . ... ...
ROW 36 : ... .. . ... ... ... : ... .. . ... ... ... : ... .. . ... : ... .. . ... : ... .. . ... ... : ... .. . ... ... : ... .. . ... ... : ... .. . ... ...
ROW 37 : ... .. . ... ... ... : ... .. 6 ... ... ... : ... .. . ... : ... .. . ... : ... .. . ... ... : ... .. . ... ... : ... .. . ... ... : ... .. . ... ...
ROW 38 : ... .. . ... ... ... : B-4 00 8 ... ... ... : ... .. . ... : ... .. . ... : ... .. . ... ... : ... .. . ... ... : D#3 01 6 ... ... : ... .. . ... ...
ROW 39 : ... .. . ... ... ... : ... .. 7 ... ... ... : ... .. . ... : ... .. . ... : ... .. . ... ... : ... .. . ... ... : ... .. 5 ... ... : ... .. . ... ...
ROW 3A : ... .. . ... ... ... : ... .. . ... ... ... : ... .. . ... : ... .. . ... : ... .. . ... ... : ... .. . ... ... : ... .. . ... ... : ... .. . ... ...
ROW 3B : ... .. . ... ... ... : ... .. 6 ... ... ... : ... .. . ... : ... .. . ... : ... .. . ... ... : ... .. . ... ... : ... .. . ... ... : ... .. . ... ...
ROW 3C : ... .. . ... ... ... : E-5 00 8 ... ... ... : ... .. . ... : ... .. . ... : ... .. . ... ... : ... .. . ... ... : E-3 01 6 ... ... : ... .. . ... ...
ROW 3D : ... .. . ... ... ... : ... .. 7 ... ... ... : ... .. . ... : ... .. . ... : ... .. . ... ... : ... .. . ... ... : ... .. 5 ... ... : ... .. . ... ...
ROW 3E : ... .. . ... ... ... : ... .. . ... ... ... : ... .. . ... : ... .. . ... : ... .. . ... ... : ... .. . ... ... : ... .. . ... ... : ... .. . ... ...
ROW 3F : ... .. . ... ... ... : ... .. 6 ... ... ... : ... .. . ... : ... .. . ... : ... .. . ... ... : ... .. . ... ... : ... .. . ... ... : ... .. . ... ...
ROW 40 : ... .. . ... ... ... : G#3 00 A ... ... ... : A#2 00 . P82 : ... .. F ... : ... .. . ... ... : E-3 01 6 ... V03 : F#5 01 6 ... ... : E-0 01 8 ... ...
ROW 41 : ... .. . ... ... ... : ... .. 8 ... ... ... : G#2 00 . P8B : ... .. C ... : ... .. . ... ... : ... .. . ... ... : ... .. 5 ... ... : ... .. 6 ... ...
ROW 42 : ... .. . ... ... ... : ... .. . ... ... ... : G-2 00 . P79 : ... .. 6 ... : ... .. . ... ... : ... .. 5 ... ... : ... .. . ... ... : ... .. 4 ... ...
ROW 43 : ... .. . ... ... ... : ... .. . ... ... ... : F-2 00 . P8D : ... .. 3 ... : ... .. . ... ... : ... .. 4 ... ... : ... .. . ... ... : ... .. . ... ...
ROW 44 : ... .. . ... ... ... : ... .. 4 ... ... ... : E-2 00 . P81 : ... .. 2 ... : ... .. . ... ... : ... .. . ... ... : E-5 01 5 ... ... : ... .. . ... ...
ROW 45 : ... .. . ... ... ... : ... .. 3 ... ... ... : D#2 00 . P77 : ... .. 0 ... : ... .. . ... ... : ... .. . ... ... : ... .. 4 ... ... : ... .. . ... ...
ROW 46 : ... .. . ... ... ... : ... .. . ... ... ... : D-2 00 . P70 : ... .. . ... : ... .. . ... ... : ... .. . ... ... : ... .. . ... ... : ... .. . ... ...
ROW 47 : ... .. . ... ... ... : ... .. . ... ... ... : --- .. . ... : ... .. . ... : ... .. . ... ... : ... .. 3 ... ... : ... .. . ... ... : --- .. . ... ...
ROW 48 : ... .. . ... ... ... : F#3 00 A ... ... ... : E-3 00 . P80 : E-# 00 A ... : ... .. . ... ... : D#3 01 6 ... ... : D#5 01 4 ... ... : E-1 01 8 ... ...
ROW 49 : ... .. . ... ... ... : ... .. 8 ... ... ... : ... .. . ... : ... .. 8 ... : ... .. . ... ... : ... .. . ... ... : ... .. . ... ... : ... .. 6 ... ...
ROW 4A : ... .. . ... ... ... : ... .. . ... ... ... : ... .. . ... : ... .. 4 ... : ... .. . ... ... : ... .. 5 ... ... : ... .. . ... ... : ... .. 4 ... ...
ROW 4B : ... .. . ... ... ... : ... .. . ... ... ... : ... .. . ... : ... .. 2 ... : ... .. . ... ... : ... .. 4 ... ... : ... .. . ... ... : ... .. . ... ...
ROW 4C : ... .. . ... ... ... : ... .. 4 ... ... ... : ... .. . ... : ... .. 1 ... : ... .. . ... ... : ... .. . ... ... : B-4 01 4 ... ... : ... .. . ... ...
ROW 4D : ... .. . ... ... ... : ... .. 3 ... ... ... : ... .. . ... : ... .. 0 ... : ... .. . ... ... : ... .. . ... ... : ... .. 3 ... ... : ... .. . ... ...
ROW 4E : ... .. . ... ... ... : ... .. . ... ... ... : ... .. . ... : ... .. . ... : ... .. . ... ... : ... .. . ... ... : ... .. . ... ... : ... .. . ... ...
ROW 4F : ... .. . ... ... ... : ... .. . ... ... ... : --- .. . ... : ... .. . ... : ... .. . ... ... : ... .. 3 ... ... : ... .. . ... ... : --- .. . P82 ...
ROW 50 : B-3 00 F P80 ... ... : B-2 00 A ... ... ... : D#3 00 . ... : 1-# 00 F ... : ... .. . ... ... : B-2 01 6 ... ... : G#4 01 3 ... ... : D#1 01 8 P80 ...
ROW 51 : ... .. E ... ... ... : ... .. 8 ... ... ... : ... .. . ... : ... .. C ... : ... .. . ... ... : ... .. . ... ... : ... .. . ... ... : ... .. 6 ... ...
ROW 52 : ... .. D ... ... ... : ... .. . ... ... ... : ... .. . ... : ... .. 6 ... : ... .. . ... ... : ... .. 5 ... ... : ... .. . ... ... : ... .. 4 ... ...
ROW 53 : ... .. A ... ... ... : ... .. . ... ... ... : ... .. . ... : ... .. 3 ... : ... .. . ... ... : ... .. 4 ... ... : ... .. . ... ... : ... .. . ... ...
ROW 54 : ... .. . ... ... ... : ... .. 4 ... ... ... : ... .. . ... : ... .. 2 ... : ... .. . ... ... : ... .. . ... ... : F#4 01 3 ... ... : ... .. . ... ...
ROW 55 : ... .. . ... ... ... : ... .. 3 ... ... ... : ... .. . ... : ... .. 0 ... : ... .. . ... ... : ... .. . ... ... : ... .. 2 ... ... : ... .. . ... ...
ROW 56 : ... .. . ... ... ... : ... .. . ... ... ... : ... .. . ... : ... .. . ... : ... .. . ... ... : ... .. . ... ... : ... .. . ... ... : ... .. . ... ...
ROW 57 : ... .. . ... ... ... : ... .. . ... ... ... : --- .. . ... : ... .. . ... : ... .. . ... ... : ... .. 3 ... ... : ... .. . ... ... : --- .. . P81 ...
ROW 58 : ... .. . ... ... ... : G#3 00 A ... ... ... : E-3 00 . ... : E-# 00 A ... : ... .. . ... ... : G#2 01 6 ... ... : E-4 01 2 ... ... : E-1 01 8 P80 ...
ROW 59 : ... .. . ... ... ... : ... .. 8 ... ... ... : ... .. . ... : ... .. 8 ... : ... .. . ... ... : ... .. . ... ... : ... .. . ... ... : ... .. 6 ... ...
ROW 5A : ... .. . ... ... ... : ... .. . ... ... ... : ... .. . ... : ... .. 4 ... : ... .. . ... ... : ... .. 5 ... ... : ... .. . ... ... : ... .. 4 ... ...
ROW 5B : ... .. . ... ... ... : ... .. . ... ... ... : ... .. . ... : ... .. 2 ... : ... .. . ... ... : ... .. 4 ... ... : ... .. . ... ... : ... .. . ... ...
ROW 5C : ... .. . ... ... ... : ... .. 4 ... ... ... : ... .. . ... : ... .. 1 ... : ... .. . ... ... : ... .. . ... ... : D#4 01 2 ... ... : ... .. . ... ...
ROW 5D : ... .. . ... ... ... : ... .. 3 ... ... ... : ... .. . ... : ... .. 0 ... : ... .. . ... ... : ... .. . ... ... : ... .. . ... ... : ... .. . ... ...
ROW 5E : ... .. . ... ... ... : ... .. . ... ... ... : ... .. . ... : ... .. . ... : ... .. . ... ... : ... .. . ... ... : ... .. . ... ... : ... .. . ... ...
ROW 5F : ... .. . ... ... ... : ... .. . ... ... ... : ... .. . ... : ... .. . ... : ... .. . ... ... : ... .. 3 ... ... : ... .. . ... ... : ... .. . ... ...
ROW 60 : E-4 00 F ... ... ... : F#3 00 A ... ... ... : B-3 00 . P7D : 5-# 00 D ... : ... .. . ... ... : E-3 01 6 ... ... : B-3 01 7 ... V03 : ... .. . ... ...
ROW 61 : ... .. E ... ... ... : ... .. 8 ... ... ... : A#3 00 . P7C : ... .. . ... : ... .. . ... ... : ... .. . ... ... : ... .. 6 ... ... : ... .. . ... ...
ROW 62 : ... .. D ... ... ... : ... .. . ... ... ... : A-3 00 . P7B : 1-# 00 D ... : ... .. . ... ... : ... .. 5 ... ... : ... .. 5 ... ... : ... .. . ... ...
ROW 63 : ... .. A ... ... ... : ... .. . ... ... ... : G#3 00 . ... : F-# 00 6 ... : ... .. . ... ... : ... .. 4 ... ... : ... .. . ... ... : ... .. . ... ...
ROW 64 : ... .. . ... ... ... : ... .. 4 ... ... ... : G-3 00 . P7C : B-# 00 1 ... : ... .. . ... ... : ... .. . ... ... : ... .. . ... ... : ... .. . ... ...
ROW 65 : F-4 00 A P7F ... ... : ... .. 3 ... ... ... : F#3 00 . P7E : ... .. 0 ... : ... .. . ... ... : ... .. . ... ... : ... .. 4 ... ... : ... .. . ... ...
ROW 66 : F#4 00 A ... ... ... : ... .. . ... ... ... : F-3 00 . P81 : ... .. . ... : ... .. . ... ... : ... .. . ... ... : ... .. . ... ... : ... .. . ... ...
ROW 67 : ... .. . P80 ... ... : ... .. . ... ... ... : --- .. . ... : ... .. . ... : ... .. . ... ... : ... .. 3 ... ... : ... .. 3 ... ... : --- .. . P82 ...
ROW 68 : ... .. . ... ... ... : B-2 00 A ... ... ... : B-2 00 . P80 : E-# 00 A ... : ... .. . ... ... : D#3 01 6 ... ... : ... .. . ... ... : B-0 01 8 P80 ...
ROW 69 : ... .. . ... ... ... : ... .. 8 ... ... ... : ... .. . ... : ... .. 8 ... : ... .. . ... ... : ... .. . ... ... : ... .. . ... ... : ... .. 6 ... ...
ROW 6A : ... .. . ... ... ... : ... .. . ... ... ... : ... .. . ... : ... .. 4 ... : ... .. . ... ... : ... .. 5 ... ... : ... .. . ... ... : ... .. 4 ... ...
ROW 6B : ... .. . ... ... ... : ... .. . ... ... ... : ... .. . ... : ... .. 2 ... : ... .. . ... ... : ... .. 4 ... ... : ... .. . ... ... : ... .. . ... ...
ROW 6C : ... .. . ... ... ... : ... .. 4 ... ... ... : ... .. . ... : ... .. 1 ... : ... .. . ... ... : ... .. . ... ... : ... .. . ... ... : ... .. . ... ...
ROW 6D : ... .. . ... ... ... : ... .. 3 ... ... ... : ... .. . ... : ... .. 0 ... : ... .. . ... ... : ... .. . ... ... : ... .. . ... ... : ... .. . ... ...
ROW 6E : ... .. . ... ... ... : ... .. . ... ... ... : ... .. . ... : ... .. . ... : ... .. . ... ... : ... .. . ... ... : ... .. . ... ... : ... .. . ... ...
ROW 6F : ... .. . ... ... ... : ... .. . ... ... ... : ... .. . ... : ... .. . ... : ... .. . ... ... : ... .. 3 ... ... : ... .. . ... ... : ... .. . ... ...
ROW 70 : E-4 00 F ... ... ... : G#3 00 A ... ... ... : ... .. . ... : ... .. F ... : ... .. . ... ... : B-2 01 6 ... ... : E-4 01 7 ... ... : ... .. . ... ...
ROW 71 : ... .. E ... ... ... : ... .. 8 ... ... ... : ... .. . ... : ... .. C ... : ... .. . ... ... : ... .. . ... ... : ... .. 6 ... ... : ... .. . ... ...
ROW 72 : ... .. D ... ... ... : ... .. . ... ... ... : ... .. . ... : ... .. 6 ... : ... .. . ... ... : ... .. 5 ... ... : ... .. 5 ... ... : ... .. . ... ...
ROW 73 : ... .. A ... ... ... : ... .. . ... ... ... : ... .. . ... : ... .. 3 ... : ... .. . ... ... : ... .. 4 ... ... : ... .. . ... ... : ... .. . ... ...
ROW 74 : ... .. . ... ... ... : ... .. 4 ... ... ... : ... .. . ... : ... .. 2 ... : ... .. . ... ... : ... .. . ... ... : ... .. . ... ... : ... .. . ... ...
ROW 75 : ... .. . ... ... ... : ... .. 3 ... ... ... : ... .. . ... : ... .. 0 ... : ... .. . ... ... : ... .. . ... ... : F-4 01 4 P7F ... : ... .. . ... ...
ROW 76 : ... .. . ... ... ... : ... .. . ... ... ... : ... .. . ... : ... .. . ... : ... .. . ... ... : ... .. . ... ... : F#4 01 4 ... ... : ... .. . ... ...
ROW 77 : ... .. . ... ... ... : ... .. . ... ... ... : --- .. . ... : ... .. . ... : ... .. . ... ... : ... .. 3 ... ... : ... .. 3 P80 ... : --- .. . ... ...
ROW 78 : D#4 00 F ... ... ... : F#3 00 A ... ... ... : G#3 00 . ... : D-# 00 A ... : ... .. . ... ... : G#2 01 6 ... ... : ... .. . ... ... : G#1 01 8 ... ...
ROW 79 : ... .. E ... ... ... : ... .. 8 ... ... ... : ... .. . ... : ... .. . ... : ... .. . ... ... : ... .. . ... ... : ... .. . ... ... : ... .. 6 ... ...
ROW 7A : ... .. D ... ... ... : ... .. . ... ... ... : ... .. . ... : ... .. . ... : ... .. . ... ... : ... .. 5 ... ... : ... .. . ... ... : ... .. 4 ... ...
ROW 7B : ... .. A ... ... ... : ... .. . ... ... ... : ... .. . ... : ... .. . ... : ... .. . ... ... : ... .. 4 ... ... : ... .. . ... ... : ... .. . ... ...
ROW 7C : ... .. . ... ... ... : ... .. 4 ... ... ... : ... .. . ... : ... .. . ... : ... .. . ... ... : ... .. . ... ... : ... .. . ... ... : ... .. . ... ...
ROW 7D : ... .. . ... ... ... : ... .. 3 ... ... ... : ... .. . ... : ... .. . ... : ... .. . ... ... : ... .. . ... ... : ... .. . ... ... : ... .. . ... ...
ROW 7E : ... .. . ... ... ... : ... .. . ... ... ... : ... .. . ... : ... .. . ... : ... .. . ... ... : ... .. . ... ... : ... .. . ... ... : ... .. . ... ...
ROW 7F : ... .. . ... ... ... : ... .. . ... ... ... : --- .. . ... : ... .. . ... : ... .. . ... ... : ... .. 3 ... ... : ... .. . ... ... : --- .. . P7E ...
ROW 80 : ... .. . ... ... ... : G#3 00 A ... ... ... : A#2 00 . P82 : 1-# 00 F ... : ... .. . ... ... : F#3 01 6 ... ... : E-4 01 7 ... ... : F#0 01 8 P80 ...
ROW 81 : ... .. 2 ... ... ... : ... .. 8 ... ... ... : G#2 00 . P8B : ... .. C ... : ... .. . ... ... : ... .. . ... ... : ... .. 6 ... ... : ... .. 6 ... ...
ROW 82 : ... .. . ... ... ... : ... .. . ... ... ... : G-2 00 . P79 : ... .. 6 ... : ... .. . ... ... : ... .. 5 ... ... : ... .. 5 ... ... : ... .. 4 ... ...
ROW 83 : ... .. . ... ... ... : ... .. . ... ... ... : F-2 00 . P8D : ... .. 3 ... : ... .. . ... ... : ... .. 4 ... ... : ... .. . ... ... : ... .. . ... ...
ROW 84 : ... .. 1 ... ... ... : ... .. 4 ... ... ... : E-2 00 . P81 : ... .. 2 ... : ... .. . ... ... : ... .. . ... ... : ... .. . ... ... : ... .. . ... ...
ROW 85 : ... .. . ... ... ... : ... .. 3 ... ... ... : D#2 00 . P77 : ... .. 0 ... : ... .. . ... ... : ... .. . ... ... : ... .. 4 ... ... : ... .. . ... ...
ROW 86 : ... .. . ... ... ... : ... .. . ... ... ... : D-2 00 . P70 : ... .. . ... : ... .. . ... ... : ... .. . ... ... : ... .. . ... ... : ... .. . ... ...
ROW 87 : ... .. 0 ... ... ... : ... .. . ... ... ... : --- .. . ... : ... .. . ... : ... .. . ... ... : ... .. 3 ... ... : ... .. 3 ... ... : --- .. . P81 ...
ROW 88 : G#4 00 F P80 ... ... : C#3 00 A ... ... ... : F#3 00 . P80 : E-# 00 A ... : ... .. . ... ... : C#3 01 6 ... ... : D#4 01 7 ... ... : F#1 01 8 P80 ...
ROW 89 : ... .. E ... ... ... : ... .. 8 ... ... ... : ... .. . ... : ... .. 8 ... : ... .. . ... ... : ... .. . ... ... : ... .. 6 ... ... : ... .. 6 ... ...
ROW 8A : ... .. D ... ... ... : ... .. . ... ... ... : ... .. . ... : ... .. 4 ... : ... .. . ... ... : ... .. 5 ... ... : ... .. 5 ... ... : ... .. 4 ... ...
ROW 8B : ... .. A ... ... ... : ... .. . ... ... ... : ... .. . ... : ... .. 2 ... : ... .. . ... ... : ... .. 4 ... ... : ... .. . ... ... : ... .. . ... ...
ROW 8C : ... .. . ... ... ... : ... .. 4 ... ... ... : ... .. . ... : ... .. 1 ... : ... .. . ... ... : ... .. . ... ... : ... .. . ... ... : ... .. . ... ...
ROW 8D : ... .. . ... ... ... : ... .. 3 ... ... ... : ... .. . ... : ... .. 0 ... : ... .. . ... ... : ... .. . ... ... : ... .. 4 ... ... : ... .. . ... ...
ROW 8E : ... .. . ... ... ... : ... .. . ... ... ... : ... .. . ... : ... .. . ... : ... .. . ... ... : ... .. . ... ... : ... .. . ... ... : ... .. . ... ...
ROW 8F : ... .. . ... ... ... : ... .. . ... ... ... : --- .. . ... : ... .. . ... : ... .. . ... ... : ... .. 3 ... ... : ... .. 3 ... ... : --- .. . P81 ...
ROW 90 : ... .. . ... ... ... : A#2 00 A ... ... ... : C#3 00 . ... : ... .. F ... : ... .. . ... ... : A#2 01 6 ... ... : ... .. . ... ... : C#1 01 8 P80 ...
ROW 91 : ... .. 2 ... ... ... : ... .. 8 ... ... ... : ... .. . ... : ... .. C ... : ... .. . ... ... : ... .. . ... ... : ... .. . ... ... : ... .. 6 ... ...
ROW 92 : ... .. . ... ... ... : ... .. . ... ... ... : ... .. . ... : ... .. 6 ... : ... .. . ... ... : ... .. 5 ... ... : ... .. 2 ... ... : ... .. 4 ... ...
ROW 93 : ... .. . ... ... ... : ... .. . ... ... ... : ... .. . ... : ... .. 3 ... : ... .. . ... ... : ... .. 4 ... ... : ... .. . ... ... : ... .. . ... ...
ROW 94 : ... .. 1 ... ... ... : ... .. 4 ... ... ... : ... .. . ... : ... .. 2 ... : ... .. . ... ... : ... .. . ... ... : ... .. . ... ... : ... .. . ... ...
ROW 95 : ... .. . ... ... ... : ... .. 3 ... ... ... : ... .. . ... : ... .. 0 ... : ... .. . ... ... : ... .. . ... ... : ... .. . ... ... : ... .. . ... ...
ROW 96 : ... .. . ... ... ... : ... .. . ... ... ... : ... .. . ... : ... .. . ... : ... .. . ... ... : ... .. . ... ... : ... .. . ... ... : ... .. . ... ...
ROW 97 : ... .. 0 ... ... ... : ... .. . ... ... ... : --- .. . ... : ... .. . ... : ... .. . ... ... : ... .. 3 ... ... : ... .. . ... ... : --- .. . P81 ...
ROW 98 : C#4 00 F P80 ... ... : G#3 00 A ... ... ... : A#3 00 . ... : 1-# 00 F ... : ... .. . ... ... : G#2 01 6 ... ... : G#4 01 7 ... ... : A#1 01 8 P80 ...
ROW 99 : ... .. E ... ... ... : ... .. 8 ... ... ... : ... .. . ... : ... .. C ... : ... .. . ... ... : ... .. . ... ... : ... .. 6 ... ... : ... .. 6 ... ...
ROW 9A : ... .. D ... ... ... : ... .. . ... ... ... : ... .. . ... : ... .. 6 ... : ... .. . ... ... : ... .. 5 ... ... : ... .. 5 ... ... : ... .. 4 ... ...
ROW 9B : ... .. A ... ... ... : ... .. . ... ... ... : ... .. . ... : ... .. 3 ... : ... .. . ... ... : ... .. 4 ... ... : ... .. . ... ... : ... .. . ... ...
ROW 9C : ... .. . ... ... ... : ... .. 4 ... ... ... : ... .. . ... : ... .. 2 ... : ... .. . ... ... : ... .. . ... ... : ... .. . ... ... : ... .. . ... ...
ROW 9D : ... .. . ... ... ... : ... .. 3 ... ... ... : ... .. . ... : ... .. 0 ... : ... .. . ... ... : ... .. . ... ... : ... .. 4 ... ... : ... .. . ... ...
ROW 9E : ... .. . ... ... ... : ... .. . ... ... ... : ... .. . ... : ... .. . ... : ... .. . ... ... : ... .. . ... ... : ... .. . ... ... : ... .. . ... ...
ROW 9F : ... .. . ... ... ... : ... .. . ... ... ... : ... .. . ... : ... .. . ... : ... .. . ... ... : ... .. 3 ... ... : ... .. 3 ... ... : ... .. . ... ...
ROW A0 : ... .. . ... ... ... : C#3 00 A ... ... ... : B-3 00 . P7D : 5-# 00 D ... : ... .. . ... ... : F#3 01 6 ... ... : ... .. . ... ... : ... .. . ... ...
ROW A1 : ... .. . ... ... ... : ... .. 8 ... ... ... : A#3 00 . P7C : ... .. . ... : ... .. . ... ... : ... .. . ... ... : ... .. . ... ... : ... .. . ... ...
ROW A2 : ... .. . ... ... ... : ... .. . ... ... ... : A-3 00 . P7B : 1-# 00 D ... : ... .. . ... ... : ... .. 5 ... ... : ... .. 2 ... ... : ... .. . ... ...
ROW A3 : ... .. . ... ... ... : ... .. . ... ... ... : G#3 00 . ... : F-# 00 6 ... : ... .. . ... ... : ... .. 4 ... ... : ... .. . ... ... : ... .. . ... ...
ROW A4 : ... .. . ... ... ... : ... .. 4 ... ... ... : G-3 00 . P7C : B-# 00 1 ... : ... .. . ... ... : ... .. . ... ... : ... .. . ... ... : ... .. . ... ...
ROW A5 : ... .. . ... ... ... : ... .. 3 ... ... ... : F#3 00 . P7E : ... .. 0 ... : ... .. . ... ... : ... .. . ... ... : ... .. . ... ... : ... .. . ... ...
ROW A6 : ... .. . ... ... ... : ... .. . ... ... ... : F-3 00 . P81 : ... .. . ... : ... .. . ... ... : ... .. . ... ... : ... .. . ... ... : ... .. . ... ...
ROW A7 : ... .. . ... ... ... : ... .. . ... ... ... : --- .. . ... : ... .. . ... : ... .. . ... ... : ... .. 3 ... ... : ... .. . ... ... : --- .. . ... ...
ROW A8 : ... .. . ... ... ... : A#2 00 A ... ... ... : F#2 00 . P80 : E-# 00 A ... : ... .. . ... ... : C#3 01 6 ... ... : C#4 01 7 ... ... : F#0 01 8 ... ...
ROW A9 : ... .. . ... ... ... : ... .. 8 ... ... ... : ... .. . ... : ... .. 8 ... : ... .. . ... ... : ... .. . ... ... : ... .. 6 ... ... : ... .. 6 ... ...
ROW AA : ... .. . ... ... ... : ... .. . ... ... ... : ... .. . ... : ... .. 4 ... : ... .. . ... ... : ... .. 5 ... ... : ... .. 5 ... ... : ... .. 4 ... ...
ROW AB : ... .. . ... ... ... : ... .. . ... ... ... : ... .. . ... : ... .. 2 ... : ... .. . ... ... : ... .. 4 ... ... : ... .. . ... ... : ... .. . ... ...
ROW AC : ... .. . ... ... ... : ... .. 4 ... ... ... : ... .. . ... : ... .. 1 ... : ... .. . ... ... : ... .. . ... ... : ... .. . ... ... : ... .. . ... ...
ROW AD : ... .. . ... ... ... : ... .. 3 ... ... ... : ... .. . ... : ... .. 0 ... : ... .. . ... ... : ... .. . ... ... : ... .. 4 ... ... : ... .. . ... ...
ROW AE : ... .. . ... ... ... : ... .. . ... ... ... : ... .. . ... : ... .. . ... : ... .. . ... ... : ... .. . ... ... : ... .. . ... ... : ... .. . ... ...
ROW AF : ... .. . ... ... ... : ... .. . ... ... ... : ... .. . ... : ... .. . ... : ... .. . ... ... : ... .. 3 ... ... : ... .. 3 ... ... : ... .. . ... ...
ROW B0 : ... .. . ... ... ... : G#3 00 A ... ... ... : ... .. . ... : ... .. F ... : ... .. . ... ... : A#2 01 6 ... ... : ... .. . ... ... : ... .. . ... ...
ROW B1 : ... .. 2 ... ... ... : ... .. 8 ... ... ... : ... .. . ... : ... .. C ... : ... .. . ... ... : ... .. . ... ... : ... .. . ... ... : ... .. . ... ...
ROW B2 : ... .. . ... ... ... : ... .. . ... ... ... : ... .. . ... : ... .. 6 ... : ... .. . ... ... : ... .. 5 ... ... : ... .. . ... ... : ... .. . ... ...
ROW B3 : ... .. . ... ... ... : ... .. . ... ... ... : ... .. . ... : ... .. 3 ... : ... .. . ... ... : ... .. 4 ... ... : ... .. . ... ... : ... .. . ... ...
ROW B4 : ... .. 1 ... ... ... : ... .. 4 ... ... ... : ... .. . ... : ... .. 2 ... : ... .. . ... ... : ... .. . ... ... : ... .. . ... ... : ... .. . ... ...
ROW B5 : ... .. . ... ... ... : ... .. 3 ... ... ... : ... .. . ... : ... .. 0 ... : ... .. . ... ... : ... .. . ... ... : ... .. . ... ... : ... .. . ... ...
ROW B6 : ... .. . ... ... ... : ... .. . ... ... ... : ... .. . ... : ... .. . ... : ... .. . ... ... : ... .. . ... ... : ... .. . ... ... : ... .. . ... ...
ROW B7 : ... .. 0 ... ... ... : ... .. . ... ... ... : --- .. . ... : ... .. . ... : ... .. . ... ... : ... .. 3 ... ... : ... .. . ... ... : --- .. . P81 ...
ROW B8 : ... .. . ... ... ... : C#3 00 A ... ... ... : D#3 00 . ... : F-# 00 F ... : ... .. . ... ... : G#2 01 6 ... ... : ... .. . ... ... : D#1 01 8 P80 ...
ROW B9 : ... .. . ... ... ... : ... .. 8 ... ... ... : ... .. . ... : ... .. C ... : ... .. . ... ... : ... .. . ... ... : ... .. . ... ... : ... .. 6 ... ...
ROW BA : ... .. . ... ... ... : ... .. . ... ... ... : ... .. . ... : ... .. 6 ... : ... .. . ... ... : ... .. 5 ... ... : ... .. . ... ... : ... .. 4 ... ...
ROW BB : ... .. . ... ... ... : ... .. . ... ... ... : ... .. . ... : ... .. 3 ... : ... .. . ... ... : ... .. 4 ... ... : ... .. . ... ... : ... .. . ... ...
ROW BC : ... .. . ... ... ... : ... .. 4 ... ... ... : ... .. . ... : ... .. F ... : ... .. . ... ... : ... .. . ... ... : ... .. . ... ... : ... .. . ... ...
ROW BD : ... .. . ... ... ... : ... .. 3 ... ... ... : ... .. . ... : ... .. C ... : ... .. . ... ... : ... .. . ... ... : ... .. . ... ... : ... .. . ... ...
ROW BE : ... .. . ... ... ... : ... .. . ... ... ... : ... .. . ... : ... .. 6 ... : ... .. . ... ... : ... .. . ... ... : ... .. . ... ... : ... .. . ... ...
ROW BF : ... .. . ... ... ... : ... .. . ... ... ... : --- .. . ... : ... .. 3 ... : ... .. . ... ... : ... .. 3 ... ... : ... .. . ... ... : --- .. . P81 ...
ROW C0 : ... .. . ... ... ... : G#3 00 A ... ... ... : A#2 00 . P82 : 1-# 00 F ... : ... .. . ... ... : A#3 01 6 ... ... : ... .. . ... ... : G#0 01 8 P80 ...
ROW C1 : ... .. . ... ... ... : ... .. 8 ... ... ... : G#2 00 . P8B : ... .. C ... : ... .. . ... ... : ... .. . ... ... : ... .. . ... ... : ... .. 6 ... ...
ROW C2 : ... .. . ... ... ... : ... .. . ... ... ... : G-2 00 . P79 : ... .. 6 ... : ... .. . ... ... : ... .. 5 ... ... : ... .. 2 ... ... : ... .. 4 ... ...
ROW C3 : ... .. . ... ... ... : ... .. . ... ... ... : F-2 00 . P8D : ... .. 3 ... : ... .. . ... ... : ... .. 4 ... ... : ... .. . ... ... : ... .. . ... ...
ROW C4 : ... .. . ... ... ... : ... .. 4 ... ... ... : E-2 00 . P81 : ... .. 2 ... : ... .. . ... ... : ... .. . ... ... : ... .. . ... ... : ... .. . ... ...
ROW C5 : ... .. . ... ... ... : ... .. 3 ... ... ... : D#2 00 . P77 : ... .. 0 ... : ... .. . ... ... : ... .. . ... ... : ... .. . ... ... : ... .. . ... ...
ROW C6 : ... .. . ... ... ... : ... .. . ... ... ... : D-2 00 . P70 : ... .. . ... : ... .. . ... ... : ... .. . ... ... : ... .. . ... ... : ... .. . ... ...
ROW C7 : ... .. . ... ... ... : ... .. . ... ... ... : --- .. . ... : ... .. . ... : ... .. . ... ... : ... .. 3 ... ... : ... .. . ... ... : --- .. . P84 ...
ROW C8 : ... .. . ... ... ... : D#3 00 A ... ... ... : B-3 00 . P80 : E-# 00 A ... : ... .. . ... ... : B-3 01 6 ... ... : ... .. . ... ... : B-1 01 8 P80 ...
ROW C9 : ... .. . ... ... ... : ... .. 8 ... ... ... : ... .. . ... : ... .. 8 ... : ... .. . ... ... : ... .. . ... ... : ... .. . ... ... : ... .. 6 ... ...
ROW CA : ... .. . ... ... ... : ... .. . ... ... ... : ... .. . ... : ... .. 4 ... : ... .. . ... ... : ... .. 5 ... ... : ... .. . ... ... : ... .. 4 ... ...
ROW CB : ... .. . ... ... ... : ... .. . ... ... ... : ... .. . ... : ... .. 2 ... : ... .. . ... ... : ... .. 4 ... ... : ... .. . ... ... : ... .. . ... ...
ROW CC : ... .. . ... ... ... : ... .. 4 ... ... ... : ... .. . ... : ... .. 1 ... : ... .. . ... ... : ... .. . ... ... : ... .. . ... ... : ... .. . ... ...
ROW CD : ... .. . ... ... ... : ... .. 3 ... ... ... : ... .. . ... : ... .. 0 ... : ... .. . ... ... : ... .. . ... ... : ... .. . ... ... : ... .. . ... ...
ROW CE : ... .. . ... ... ... : ... .. . ... ... ... : ... .. . ... : ... .. . ... : ... .. . ... ... : ... .. . ... ... : ... .. . ... ... : ... .. . ... ...
ROW CF : ... .. . ... ... ... : ... .. . ... ... ... : --- .. . ... : ... .. . ... : ... .. . ... ... : ... .. 3 ... ... : ... .. 1 ... ... : --- .. . P86 ...
ROW D0 : D#3 00 F P80 ... ... : B-2 00 A ... ... ... : A#3 00 . ... : 1-# 00 F ... : ... .. . ... ... : A#4 01 6 ... ... : ... .. . ... ... : A#1 01 8 P80 ...
ROW D1 : ... .. E ... ... ... : ... .. 8 ... ... ... : ... .. . ... : ... .. C ... : ... .. . ... ... : ... .. . ... ... : ... .. . ... ... : ... .. 6 ... ...
ROW D2 : ... .. D ... ... ... : ... .. . ... ... ... : ... .. . ... : ... .. 6 ... : ... .. . ... ... : ... .. 5 ... ... : ... .. . ... ... : ... .. 4 ... ...
ROW D3 : ... .. A ... ... ... : ... .. . ... ... ... : ... .. . ... : ... .. 3 ... : ... .. . ... ... : ... .. 4 ... ... : ... .. . ... ... : ... .. . ... ...
ROW D4 : ... .. . ... ... ... : ... .. 4 ... ... ... : ... .. . ... : ... .. 2 ... : ... .. . ... ... : ... .. . ... ... : ... .. . ... ... : ... .. . ... ...
ROW D5 : ... .. . ... ... ... : ... .. 3 ... ... ... : ... .. . ... : ... .. 0 ... : ... .. . ... ... : ... .. . ... ... : ... .. . ... ... : ... .. . ... ...
ROW D6 : ... .. . ... ... ... : ... .. . ... ... ... : ... .. . ... : ... .. . ... : ... .. . ... ... : ... .. . ... ... : ... .. . ... ... : ... .. . ... ...
ROW D7 : ... .. . ... ... ... : ... .. . ... ... ... : --- .. . ... : ... .. . ... : ... .. . ... ... : ... .. 3 ... ... : ... .. . ... ... : --- .. . ... ...
ROW D8 : ... .. . ... ... ... : G#3 00 A ... ... ... : B-3 00 . ... : E-# 00 A ... : ... .. . ... ... : A#3 01 6 ... ... : ... .. . ... ... : B-1 01 8 ... ...
ROW D9 : ... .. . ... ... ... : ... .. 8 ... ... ... : ... .. . ... : ... .. 8 ... : ... .. . ... ... : ... .. . ... ... : ... .. . ... ... : ... .. 6 ... ...
ROW DA : ... .. . ... ... ... : ... .. . ... ... ... : ... .. . ... : ... .. 4 ... : ... .. . ... ... : ... .. 5 ... ... : ... .. . ... ... : ... .. 4 ... ...
ROW DB : ... .. . ... ... ... : ... .. . ... ... ... : ... .. . ... : ... .. 2 ... : ... .. . ... ... : ... .. 4 ... ... : ... .. . ... ... : ... .. . ... ...
ROW DC : ... .. . ... ... ... : ... .. 4 ... ... ... : ... .. . ... : ... .. 1 ... : ... .. . ... ... : ... .. . ... ... : ... .. . ... ... : ... .. . ... ...
ROW DD : ... .. . ... ... ... : ... .. 3 ... ... ... : ... .. . ... : ... .. 0 ... : ... .. . ... ... : ... .. . ... ... : --- .. . ... ... : ... .. . ... ...
ROW DE : ... .. . ... ... ... : ... .. . ... ... ... : ... .. . ... : ... .. . ... : ... .. . ... ... : ... .. . ... ... : ... .. . ... ... : ... .. . ... ...
ROW DF : ... .. . ... ... ... : ... .. . ... ... ... : ... .. . ... : ... .. . ... : ... .. . ... ... : ... .. 3 ... ... : ... .. . ... ... : ... .. . ... ...
ROW E0 : B-3 00 F ... ... ... : D#3 00 A ... ... ... : ... .. . P7D : 5-# 00 D ... : ... .. . ... ... : B-3 01 6 ... ... : D#3 01 7 ... ... : ... .. . ... ...
ROW E1 : ... .. E ... ... ... : ... .. 8 ... ... ... : A#3 00 . P7C : ... .. . ... : ... .. . ... ... : ... .. . ... ... : ... .. 6 ... ... : ... .. . ... ...
ROW E2 : ... .. D ... ... ... : ... .. . ... ... ... : A-3 00 . P7B : 1-# 00 D ... : ... .. . ... ... : ... .. 5 ... ... : ... .. 5 ... ... : ... .. . ... ...
ROW E3 : ... .. A ... ... ... : ... .. . ... ... ... : G#3 00 . ... : F-# 00 6 ... : ... .. . ... ... : ... .. 4 ... ... : ... .. . ... ... : ... .. . ... ...
ROW E4 : ... .. . ... ... ... : ... .. 4 ... ... ... : G-3 00 . P7C : B-# 00 1 ... : ... .. . ... ... : ... .. . ... ... : ... .. . ... ... : ... .. . ... ...
ROW E5 : C-4 00 A P7D ... ... : ... .. 3 ... ... ... : F#3 00 . P7E : ... .. 0 ... : ... .. . ... ... : ... .. . ... ... : ... .. 4 ... ... : ... .. . ... ...
ROW E6 : ... .. . P86 ... ... : ... .. . ... ... ... : F-3 00 . P81 : ... .. . ... : ... .. . ... ... : ... .. . ... ... : ... .. . ... ... : ... .. . ... ...
ROW E7 : C#4 00 A P80 ... ... : ... .. . ... ... ... : --- .. . ... : ... .. . ... : ... .. . ... ... : ... .. 3 ... ... : ... .. 3 ... ... : --- .. . P86 ...
ROW E8 : ... .. . ... ... ... : B-2 00 A ... ... ... : D#3 00 . P80 : E-# 00 A ... : ... .. . ... ... : F#4 01 6 ... ... : ... .. . ... ... : D#1 01 8 P80 ...
ROW E9 : ... .. . ... ... ... : ... .. 8 ... ... ... : ... .. . ... : ... .. 8 ... : ... .. . ... ... : ... .. . ... ... : ... .. . ... ... : ... .. 6 ... ...
ROW EA : ... .. . ... ... ... : ... .. . ... ... ... : ... .. . ... : ... .. 4 ... : ... .. . ... ... : ... .. 5 ... ... : ... .. . ... ... : ... .. 4 ... ...
ROW EB : ... .. . ... ... ... : ... .. . ... ... ... : ... .. . ... : ... .. 2 ... : ... .. . ... ... : ... .. 4 ... ... : ... .. . ... ... : ... .. . ... ...
ROW EC : ... .. . ... ... ... : ... .. 4 ... ... ... : ... .. . ... : ... .. 1 ... : ... .. . ... ... : ... .. . ... ... : ... .. . ... ... : ... .. . ... ...
ROW ED : ... .. . ... ... ... : ... .. 3 ... ... ... : ... .. . ... : ... .. 0 ... : ... .. . ... ... : ... .. . ... ... : ... .. . ... ... : ... .. . ... ...
ROW EE : ... .. . ... ... ... : ... .. . ... ... ... : ... .. . ... : ... .. . ... : ... .. . ... ... : ... .. . ... ... : ... .. . ... ... : ... .. . ... ...
ROW EF : ... .. . ... ... ... : ... .. . ... ... ... : ... .. . ... : ... .. . ... : ... .. . ... ... : ... .. 3 ... ... : ... .. . ... ... : ... .. . ... ...
ROW F0 : F#4 00 F ... ... ... : G#3 00 A ... ... ... : ... .. . ... : ... .. F ... : ... .. . ... ... : A#3 01 6 ... ... : B-3 01 7 ... ... : ... .. . ... ...
ROW F1 : ... .. E ... ... ... : ... .. 8 ... ... ... : ... .. . ... : ... .. C ... : ... .. . ... ... : ... .. . ... ... : ... .. 6 ... ... : ... .. . ... ...
ROW F2 : ... .. D ... ... ... : ... .. . ... ... ... : ... .. . ... : ... .. 6 ... : ... .. . ... ... : ... .. 5 ... ... : ... .. 5 ... ... : ... .. . ... ...
ROW F3 : ... .. A ... ... ... : ... .. . ... ... ... : ... .. . ... : ... .. 3 ... : ... .. . ... ... : ... .. 4 ... ... : ... .. . ... ... : ... .. . ... ...
ROW F4 : ... .. . ... ... ... : ... .. 4 ... ... ... : ... .. . ... : ... .. 2 ... : ... .. . ... ... : ... .. . ... ... : ... .. . ... ... : ... .. . ... ...
ROW F5 : ... .. . ... ... ... : ... .. 3 ... ... ... : ... .. . ... : ... .. 0 ... : ... .. . ... ... : ... .. . ... ... : C-4 01 4 P7D ... : ... .. . ... ...
ROW F6 : ... .. . ... ... ... : ... .. . ... ... ... : ... .. . ... : ... .. . ... : ... .. . ... ... : ... .. . ... ... : ... .. . P86 ... : ... .. . ... ...
ROW F7 : ... .. . ... ... ... : ... .. . ... ... ... : --- .. . ... : ... .. . ... : ... .. . ... ... : ... .. 3 ... ... : C#4 01 3 P80 ... : --- .. . P81 ...
ROW F8 : B-3 00 F ... ... ... : D#3 00 A ... ... ... : F#3 00 . ... : D-# 00 A ... : ... .. . ... ... : B-3 01 6 ... ... : ... .. . ... ... : F#1 01 8 P80 ...
ROW F9 : ... .. E ... ... ... : ... .. 8 ... ... ... : ... .. . ... : ... .. . ... : ... .. . ... ... : ... .. . ... ... : ... .. . ... ... : ... .. 6 ... ...
ROW FA : ... .. D ... ... ... : ... .. . ... ... ... : ... .. . ... : ... .. . ... : ... .. . ... ... : ... .. 5 ... ... : ... .. . ... ... : ... .. 4 ... ...
ROW FB : ... .. A ... ... ... : ... .. . ... ... ... : ... .. . ... : ... .. . ... : ... .. . ... ... : ... .. 4 ... ... : ... .. . ... ... : ... .. . ... ...
ROW FC : ... .. . ... ... ... : ... .. 4 ... ... ... : ... .. . ... : ... .. . ... : ... .. . ... ... : ... .. . ... ... : ... .. . ... ... : ... .. . ... ...
ROW FD : ... .. . ... ... ... : ... .. 3 ... ... ... : ... .. . ... : ... .. . ... : ... .. . ... ... : ... .. . ... ... : ... .. . ... ... : ... .. . ... ...
ROW FE : ... .. . ... ... ... : ... .. . ... ... ... : ... .. . ... : ... .. . ... : ... .. . ... ... : ... .. . ... ... : ... .. . ... ... : ... .. . ... ...
ROW FF : ... .. . ... ... ... : ... .. . ... ... ... : --- .. . ... : ... .. . ... : ... .. . ... ... : ... .. 3 ... ... : ... .. . ... ... : --- .. . P81 ...

PATTERN 13
ROW 00 : ... .. . ... ... ... : F#3 00 A ... ... ... : A#2 00 . P82 : 1-# 00 F ... : ... .. . ... ... : C#4 01 6 ... ... : F#4 01 7 ... ... : G#0 01 8 P80 ...
ROW 01 : ... .. . ... ... ... : ... .. 8 ... ... ... : G#2 00 . P8B : ... .. C ... : ... .. . ... ... : ... .. . ... ... : ... .. 6 ... ... : ... .. 6 ... ...
ROW 02 : ... .. . ... ... ... : ... .. . ... ... ... : G-2 00 . P79 : ... .. 6 ... : ... .. . ... ... : ... .. 5 ... ... : ... .. 5 ... ... : ... .. 4 ... ...
ROW 03 : ... .. . ... ... ... : ... .. . ... ... ... : F-2 00 . P8D : ... .. 3 ... : ... .. . ... ... : ... .. 4 ... ... : ... .. . ... ... : ... .. . ... ...
ROW 04 : ... .. . P84 ... ... : ... .. 4 ... ... ... : E-2 00 . P81 : ... .. 2 ... : ... .. . ... ... : ... .. . ... ... : ... .. . ... ... : ... .. . ... ...
ROW 05 : ... .. . P86 ... ... : ... .. 3 ... ... ... : D#2 00 . P77 : ... .. 0 ... : ... .. . ... ... : ... .. . ... ... : ... .. 4 ... ... : ... .. . ... ...
ROW 06 : ... .. . P85 ... ... : ... .. . ... ... ... : D-2 00 . P70 : ... .. . ... : ... .. . ... ... : ... .. . ... ... : ... .. . ... ... : ... .. . ... ...
ROW 07 : ... .. . P82 ... ... : ... .. . ... ... ... : --- .. . ... : ... .. . ... : ... .. . ... ... : ... .. 3 ... ... : ... .. 3 ... ... : --- .. . P84 ...
ROW 08 : ... .. . P7E ... ... : D#3 00 A ... ... ... : G#2 00 . P80 : E-# 00 A ... : ... .. . ... ... : A#3 01 6 ... ... : B-3 01 7 ... ... : G#0 01 8 P80 ...
ROW 09 : ... .. . P7B ... ... : ... .. 8 ... ... ... : ... .. . ... : ... .. 8 ... : ... .. . ... ... : ... .. . ... ... : ... .. 6 ... ... : ... .. 6 ... ...
ROW 0A : ... .. . P7A ... ... : ... .. . ... ... ... : ... .. . ... : ... .. 4 ... : ... .. . ... ... : ... .. 5 ... ... : ... .. 5 ... ... : ... .. 4 ... ...
ROW 0B : ... .. . P7C ... ... : ... .. . ... ... ... : ... .. . ... : ... .. 2 ... : ... .. . ... ... : ... .. 4 ... ... : ... .. . ... ... : ... .. . ... ...
ROW 0C : ... .. . P80 ... ... : ... .. 4 ... ... ... : ... .. . ... : ... .. 1 ... : ... .. . ... ... : ... .. . ... ... : ... .. . ... ... : ... .. . ... ...
ROW 0D : ... .. . P83 ... ... : ... .. 3 ... ... ... : ... .. . ... : ... .. 0 ... : ... .. . ... ... : ... .. . ... ... : ... .. 4 ... ... : ... .. . ... ...
ROW 0E : ... .. . P86 ... ... : ... .. . ... ... ... : ... .. . ... : ... .. . ... : ... .. . ... ... : ... .. . ... ... : ... .. . ... ... : ... .. . ... ...
ROW 0F : ... .. . ... ... ... : ... .. . ... ... ... : --- .. . ... : ... .. . ... : ... .. . ... ... : ... .. 3 ... ... : ... .. 3 ... ... : --- .. . P84 ...
ROW 10 : ... .. . P82 ... ... : F#2 00 A ... ... ... : G#3 00 . ... : ... .. F ... : ... .. . ... ... : B-3 01 6 ... ... : ... .. . ... ... : G#1 01 8 P80 ...
ROW 11 : ... .. 2 P7F ... ... : ... .. 8 ... ... ... : ... .. . ... : ... .. C ... : ... .. . ... ... : ... .. . ... ... : ... .. . ... ... : ... .. 6 ... ...
ROW 12 : ... .. . P7B ... ... : ... .. . ... ... ... : ... .. . ... : ... .. 6 ... : ... .. . ... ... : ... .. 5 ... ... : ... .. . ... ... : ... .. 4 ... ...
ROW 13 : ... .. . P7A ... ... : ... .. . ... ... ... : ... .. . ... : ... .. 3 ... : ... .. . ... ... : ... .. 4 ... ... : ... .. . ... ... : ... .. . ... ...
ROW 14 : ... .. 1 P7C ... ... : ... .. 4 ... ... ... : ... .. . ... : ... .. 2 ... : ... .. . ... ... : ... .. . ... ... : ... .. . P84 ... : ... .. . ... ...
ROW 15 : ... .. . P80 ... ... : ... .. 3 ... ... ... : ... .. . ... : ... .. 0 ... : ... .. . ... ... : ... .. . ... ... : ... .. . P86 ... : ... .. . ... ...
ROW 16 : ... .. . P83 ... ... : ... .. . ... ... ... : ... .. . ... : ... .. . ... : ... .. . ... ... : ... .. . ... ... : ... .. . P85 ... : ... .. . ... ...
ROW 17 : ... .. 0 ... ... ... : ... .. . ... ... ... : --- .. . ... : ... .. . ... : ... .. . ... ... : ... .. 3 ... ... : ... .. . P82 ... : --- .. . P7E ...
ROW 18 : ... .. . ... ... ... : F#3 00 A ... ... ... : B-3 00 . ... : 1-# 00 F ... : ... .. . ... ... : D#4 01 6 ... ... : ... .. . P7E ... : B-1 01 8 P80 ...
ROW 19 : ... .. . ... ... ... : ... .. 8 ... ... ... : ... .. . ... : ... .. C ... : ... .. . ... ... : ... .. . ... ... : ... .. . P7B ... : ... .. 6 ... ...
ROW 1A : ... .. . ... ... ... : ... .. . ... ... ... : ... .. . ... : ... .. 6 ... : ... .. . ... ... : ... .. 5 ... ... : ... .. . P7A ... : ... .. 4 ... ...
ROW 1B : ... .. . ... ... ... : ... .. . ... ... ... : ... .. . ... : ... .. 3 ... : ... .. . ... ... : ... .. 4 ... ... : ... .. . P7C ... : ... .. . ... ...
ROW 1C : ... .. . ... ... ... : ... .. 4 ... ... ... : ... .. . ... : ... .. 2 ... : ... .. . ... ... : ... .. . ... ... : ... .. . P80 ... : ... .. . ... ...
ROW 1D : ... .. . ... ... ... : ... .. 3 ... ... ... : ... .. . ... : ... .. 0 ... : ... .. . ... ... : ... .. . ... ... : ... .. . P83 ... : ... .. . ... ...
ROW 1E : ... .. . ... ... ... : ... .. . ... ... ... : ... .. . ... : ... .. . ... : ... .. . ... ... : ... .. . ... ... : ... .. . P86 ... : ... .. . ... ...
ROW 1F : ... .. . ... ... ... : ... .. . ... ... ... : --- .. . ... : ... .. . ... : ... .. . ... ... : ... .. 3 ... ... : ... .. . ... ... : --- .. . P86 ...
ROW 20 : ... .. . ... ... ... : D#3 00 A ... ... ... : B-3 00 . P7D : 5-# 00 D ... : ... .. . ... ... : A#3 01 6 ... ... : ... .. . P82 ... : F#0 01 8 P80 ...
ROW 21 : ... .. . ... ... ... : ... .. 8 ... ... ... : A#3 00 . P7C : ... .. . ... : ... .. . ... ... : ... .. . ... ... : ... .. . P7F ... : ... .. 6 ... ...
ROW 22 : ... .. . ... ... ... : ... .. . ... ... ... : A-3 00 . P7B : 1-# 00 D ... : ... .. . ... ... : ... .. 5 ... ... : ... .. 2 P7B ... : ... .. 4 ... ...
ROW 23 : ... .. . ... ... ... : ... .. . ... ... ... : G#3 00 . ... : F-# 00 6 ... : ... .. . ... ... : ... .. 4 ... ... : ... .. . P7A ... : ... .. . ... ...
ROW 24 : ... .. . ... ... ... : ... .. 4 ... ... ... : G-3 00 . P7C : B-# 00 1 ... : ... .. . ... ... : ... .. . ... ... : ... .. . P7C ... : ... .. . ... ...
ROW 25 : ... .. . ... ... ... : ... .. 3 ... ... ... : F#3 00 . P7E : ... .. 0 ... : ... .. . ... ... : ... .. . ... ... : ... .. . P80 ... : ... .. . ... ...
ROW 26 : ... .. . ... ... ... : ... .. . ... ... ... : F-3 00 . P81 : ... .. . ... : ... .. . ... ... : ... .. . ... ... : ... .. . P83 ... : ... .. . ... ...
ROW 27 : ... .. . ... ... ... : ... .. . ... ... ... : --- .. . ... : ... .. . ... : ... .. . ... ... : ... .. 3 ... ... : ... .. . P86 ... : --- .. . P81 ...
ROW 28 : ... .. . ... ... ... : G#2 00 A ... ... ... : F#2 00 . P80 : E-# 00 A ... : ... .. . ... ... : B-3 01 6 ... ... : ... .. . ... ... : F#0 01 8 P80 ...
ROW 29 : ... .. . ... ... ... : ... .. 8 ... ... ... : ... .. . ... : ... .. 8 ... : ... .. . ... ... : ... .. . ... ... : ... .. . P83 ... : ... .. 6 ... ...
ROW 2A : ... .. . ... ... ... : ... .. . ... ... ... : ... .. . ... : ... .. 4 ... : ... .. . ... ... : ... .. 5 ... ... : ... .. . P80 ... : ... .. 4 ... ...
ROW 2B : ... .. . ... ... ... : ... .. . ... ... ... : ... .. . ... : ... .. 2 ... : ... .. . ... ... : ... .. 4 ... ... : ... .. . P7C ... : ... .. . ... ...
ROW 2C : ... .. . ... ... ... : ... .. 4 ... ... ... : ... .. . ... : ... .. 1 ... : ... .. . ... ... : ... .. . ... ... : ... .. . P7A ... : ... .. . ... ...
ROW 2D : ... .. . ... ... ... : ... .. 3 ... ... ... : ... .. . ... : ... .. 0 ... : ... .. . ... ... : ... .. . ... ... : ... .. . P7B ... : ... .. . ... ...
ROW 2E : ... .. . ... ... ... : ... .. . ... ... ... : ... .. . ... : ... .. . ... : ... .. . ... ... : ... .. . ... ... : ... .. . P7F ... : ... .. . ... ...
ROW 2F : ... .. . ... ... ... : ... .. . ... ... ... : --- .. . ... : ... .. . ... : ... .. . ... ... : ... .. 3 ... ... : ... .. 1 P82 ... : --- .. . P81 ...
ROW 30 : G#3 00 F P80 ... ... : F#3 00 A ... ... ... : G#3 00 . ... : ... .. F ... : ... .. . ... ... : G#4 01 6 ... ... : ... .. . P86 ... : G#1 01 8 P80 ...
ROW 31 : ... .. E ... ... ... : ... .. 8 ... ... ... : ... .. . ... : ... .. C ... : ... .. . ... ... : ... .. . ... ... : ... .. . ... ... : ... .. 6 ... ...
ROW 32 : ... .. D ... ... ... : ... .. . ... ... ... : ... .. . ... : ... .. 6 ... : ... .. . ... ... : ... .. 5 ... ... : ... .. . P83 ... : ... .. 4 ... ...
ROW 33 : ... .. A ... ... ... : ... .. . ... ... ... : ... .. . ... : ... .. 3 ... : ... .. . ... ... : ... .. 4 ... ... : ... .. . P80 ... : ... .. . ... ...
ROW 34 : ... .. . ... ... ... : ... .. 4 ... ... ... : ... .. . ... : ... .. 2 ... : ... .. . ... ... : ... .. . ... ... : ... .. . P7C ... : ... .. . ... ...
ROW 35 : ... .. . ... ... ... : ... .. 3 ... ... ... : ... .. . ... : ... .. 0 ... : ... .. . ... ... : ... .. . ... ... : ... .. . P7A ... : ... .. . ... ...
ROW 36 : ... .. . ... ... ... : ... .. . ... ... ... : ... .. . ... : ... .. . ... : ... .. . ... ... : ... .. . ... ... : ... .. . P7B ... : ... .. . ... ...
ROW 37 : ... .. . ... ... ... : ... .. . ... ... ... : --- .. . ... : ... .. . ... : ... .. . ... ... : ... .. 3 ... ... : ... .. . P7E ... : --- .. . P7E ...
ROW 38 : A#3 00 F ... ... ... : B-2 00 A ... ... ... : B-3 00 . ... : F-# 00 F ... : ... .. . ... ... : B-4 01 6 ... ... : ... .. . P82 ... : B-1 01 8 P80 ...
ROW 39 : ... .. E ... ... ... : ... .. 8 ... ... ... : ... .. . ... : ... .. C ... : ... .. . ... ... : ... .. . ... ... : ... .. . P85 ... : ... .. 6 ... ...
ROW 3A : ... .. D ... ... ... : ... .. . ... ... ... : ... .. . ... : ... .. 6 ... : ... .. . ... ... : ... .. 5 ... ... : ... .. . P86 ... : ... .. 4 ... ...
ROW 3B : ... .. A ... ... ... : ... .. . ... ... ... : ... .. . ... : ... .. 3 ... : ... .. . ... ... : ... .. 4 ... ... : ... .. . P84 ... : ... .. . ... ...
ROW 3C : ... .. . ... ... ... : ... .. 4 ... ... ... : ... .. . ... : ... .. F ... : ... .. . ... ... : ... .. . ... ... : ... .. . P80 ... : ... .. . ... ...
ROW 3D : ... .. 2 ... ... ... : ... .. 3 ... ... ... : ... .. . ... : ... .. C ... : ... .. . ... ... : ... .. . ... ... : --- .. . ... ... : ... .. . ... ...
ROW 3E : ... .. . ... ... ... : ... .. . ... ... ... : ... .. . ... : ... .. 6 ... : ... .. . ... ... : ... .. . ... ... : ... .. . ... ... : ... .. . ... ...
ROW 3F : ... .. . ... ... ... : ... .. . ... ... ... : --- .. . ... : ... .. 3 ... : ... .. . ... ... : ... .. 3 ... ... : ... .. . ... ... : --- .. . P86 ...
ROW 40 : B-3 00 F ... ... ... : G#3 00 A ... ... ... : A#2 00 . P82 : 1-# 00 F ... : ... .. . ... ... : E-3 01 6 ... ... : G#3 01 7 ... ... : E-0 01 8 P80 ...
ROW 41 : ... .. E ... ... ... : ... .. 8 ... ... ... : G#2 00 . P8B : ... .. C ... : ... .. . ... ... : ... .. . ... ... : ... .. 6 ... ... : ... .. 6 ... ...
ROW 42 : ... .. D ... ... ... : ... .. . ... ... ... : G-2 00 . P79 : ... .. 6 ... : ... .. . ... ... : ... .. 5 ... ... : ... .. 5 ... ... : ... .. 4 ... ...
ROW 43 : ... .. A ... ... ... : ... .. . ... ... ... : F-2 00 . P8D : ... .. 3 ... : ... .. . ... ... : ... .. 4 ... ... : ... .. . ... ... : ... .. . ... ...
ROW 44 : ... .. . ... ... ... : ... .. 4 ... ... ... : E-2 00 . P81 : ... .. 2 ... : ... .. . ... ... : ... .. . ... ... : ... .. . ... ... : ... .. . ... ...
ROW 45 : ... .. . ... ... ... : ... .. 3 ... ... ... : D#2 00 . P77 : ... .. 0 ... : ... .. . ... ... : ... .. . ... ... : ... .. 4 ... ... : ... .. . ... ...
ROW 46 : ... .. . ... ... ... : ... .. . ... ... ... : D-2 00 . P70 : ... .. . ... : ... .. . ... ... : ... .. . ... ... : ... .. . ... ... : ... .. . ... ...
ROW 47 : ... .. . ... ... ... : ... .. . ... ... ... : --- .. . ... : ... .. . ... : ... .. . ... ... : ... .. 3 ... ... : ... .. 3 ... ... : --- .. . ... ...
ROW 48 : ... .. . ... ... ... : F#3 00 A ... ... ... : G#3 00 . P80 : E-# 00 A ... : ... .. . ... ... : D#3 01 6 ... ... : A#3 01 7 ... ... : G#1 01 8 ... ...
ROW 49 : ... .. . ... ... ... : ... .. 8 ... ... ... : ... .. . ... : ... .. 8 ... : ... .. . ... ... : ... .. . ... ... : ... .. 6 ... ... : ... .. 6 ... ...
ROW 4A : ... .. . ... ... ... : ... .. . ... ... ... : ... .. . ... : ... .. 4 ... : ... .. . ... ... : ... .. 5 ... ... : ... .. 5 ... ... : ... .. 4 ... ...
ROW 4B : ... .. . ... ... ... : ... .. . ... ... ... : ... .. . ... : ... .. 2 ... : ... .. . ... ... : ... .. 4 ... ... : ... .. . ... ... : ... .. . ... ...
ROW 4C : ... .. . ... ... ... : ... .. 4 ... ... ... : ... .. . ... : ... .. 1 ... : ... .. . ... ... : ... .. . ... ... : ... .. 3 ... ... : ... .. . ... ...
ROW 4D : ... .. 2 ... ... ... : ... .. 3 ... ... ... : ... .. . ... : ... .. 0 ... : ... .. . ... ... : ... .. . ... ... : ... .. . ... ... : ... .. . ... ...
ROW 4E : ... .. . ... ... ... : ... .. . ... ... ... : ... .. . ... : ... .. . ... : ... .. . ... ... : ... .. . ... ... : ... .. 2 ... ... : ... .. . ... ...
ROW 4F : ... .. . ... ... ... : ... .. . ... ... ... : --- .. . ... : ... .. . ... : ... .. . ... ... : ... .. 3 ... ... : ... .. . ... ... : --- .. . P7E ...
ROW 50 : A#3 00 F ... ... ... : B-2 00 A ... ... ... : F#3 00 . ... : 1-# 00 F ... : ... .. . ... ... : B-2 01 6 ... ... : B-3 01 7 ... ... : F#1 01 8 P80 ...
ROW 51 : ... .. E ... ... ... : ... .. 8 ... ... ... : ... .. . ... : ... .. C ... : ... .. . ... ... : ... .. . ... ... : ... .. 6 ... ... : ... .. 6 ... ...
ROW 52 : ... .. D ... ... ... : ... .. . ... ... ... : ... .. . ... : ... .. 6 ... : ... .. . ... ... : ... .. 5 ... ... : ... .. 5 ... ... : ... .. 4 ... ...
ROW 53 : ... .. A ... ... ... : ... .. . ... ... ... : ... .. . ... : ... .. 3 ... : ... .. . ... ... : ... .. 4 ... ... : ... .. . ... ... : ... .. . ... ...
ROW 54 : ... .. . ... ... ... : ... .. 4 ... ... ... : ... .. . ... : ... .. 2 ... : ... .. . ... ... : ... .. . ... ... : ... .. . ... ... : ... .. . ... ...
ROW 55 : ... .. 2 ... ... ... : ... .. 3 ... ... ... : ... .. . ... : ... .. 0 ... : ... .. . ... ... : ... .. . ... ... : ... .. 4 ... ... : ... .. . ... ...
ROW 56 : ... .. . ... ... ... : ... .. . ... ... ... : ... .. . ... : ... .. . ... : ... .. . ... ... : ... .. . ... ... : ... .. . ... ... : ... .. . ... ...
ROW 57 : ... .. . ... ... ... : ... .. . ... ... ... : --- .. . ... : ... .. . ... : ... .. . ... ... : ... .. 3 ... ... : ... .. 3 ... ... : --- .. . P81 ...
ROW 58 : B-3 00 F ... ... ... : G#3 00 A ... ... ... : G#3 00 . ... : E-# 00 A ... : ... .. . ... ... : G#2 01 6 ... ... : ... .. . ... ... : G#1 01 8 P80 ...
ROW 59 : ... .. E ... ... ... : ... .. 8 ... ... ... : ... .. . ... : ... .. 8 ... : ... .. . ... ... : ... .. . ... ... : ... .. . ... ... : ... .. 6 ... ...
ROW 5A : ... .. D ... ... ... : ... .. . ... ... ... : ... .. . ... : ... .. 4 ... : ... .. . ... ... : ... .. 5 ... ... : ... .. . ... ... : ... .. 4 ... ...
ROW 5B : ... .. A ... ... ... : ... .. . ... ... ... : ... .. . ... : ... .. 2 ... : ... .. . ... ... : ... .. 4 ... ... : ... .. . ... ... : ... .. . ... ...
ROW 5C : ... .. . ... ... ... : ... .. 4 ... ... ... : ... .. . ... : ... .. 1 ... : ... .. . ... ... : ... .. . ... ... : ... .. . ... ... : ... .. . ... ...
ROW 5D : ... .. . ... ... ... : ... .. 3 ... ... ... : ... .. . ... : ... .. 0 ... : ... .. . ... ... : ... .. . ... ... : ... .. . ... ... : ... .. . ... ...
ROW 5E : ... .. . ... ... ... : ... .. . ... ... ... : ... .. . ... : ... .. . ... : ... .. . ... ... : ... .. . ... ... : ... .. 2 ... ... : ... .. . ... ...
ROW 5F : ... .. . ... ... ... : ... .. . ... ... ... : ... .. . ... : ... .. . ... : ... .. . ... ... : ... .. 3 ... ... : ... .. . ... ... : ... .. . ... ...
ROW 60 : ... .. . ... ... ... : F#3 00 A ... ... ... : B-3 00 . P7D : 5-# 00 D ... : ... .. . ... ... : E-3 01 6 ... ... : A#3 01 7 ... ... : ... .. . ... ...
ROW 61 : ... .. . ... ... ... : ... .. 8 ... ... ... : A#3 00 . P7C : ... .. . ... : ... .. . ... ... : ... .. . ... ... : ... .. 6 ... ... : ... .. . ... ...
ROW 62 : ... .. . ... ... ... : ... .. . ... ... ... : A-3 00 . P7B : 1-# 00 D ... : ... .. . ... ... : ... .. 5 ... ... : ... .. 5 ... ... : ... .. . ... ...
ROW 63 : ... .. . ... ... ... : ... .. . ... ... ... : G#3 00 . ... : F-# 00 6 ... : ... .. . ... ... : ... .. 4 ... ... : ... .. . ... ... : ... .. . ... ...
ROW 64 : ... .. . ... ... ... : ... .. 4 ... ... ... : G-3 00 . P7C : B-# 00 1 ... : ... .. . ... ... : ... .. . ... ... : ... .. 3 ... ... : ... .. . ... ...
ROW 65 : ... .. 2 ... ... ... : ... .. 3 ... ... ... : F#3 00 . P7E : ... .. 0 ... : ... .. . ... ... : ... .. . ... ... : ... .. . ... ... : ... .. . ... ...
ROW 66 : ... .. . ... ... ... : ... .. . ... ... ... : F-3 00 . P81 : ... .. . ... : ... .. . ... ... : ... .. . ... ... : ... .. 2 ... ... : ... .. . ... ...
ROW 67 : ... .. . ... ... ... : ... .. . ... ... ... : --- .. . ... : ... .. . ... : ... .. . ... ... : ... .. 3 ... ... : ... .. . ... ... : --- .. . P7E ...
ROW 68 : E-3 00 F ... ... ... : B-2 00 A ... ... ... : E-2 00 . P80 : E-# 00 A ... : ... .. . ... ... : D#3 01 6 ... ... : B-3 01 7 ... ... : E-0 01 8 P80 ...
ROW 69 : ... .. E ... ... ... : ... .. 8 ... ... ... : ... .. . ... : ... .. 8 ... : ... .. . ... ... : ... .. . ... ... : ... .. 6 ... ... : ... .. 6 ... ...
ROW 6A : ... .. D ... ... ... : ... .. . ... ... ... : ... .. . ... : ... .. 4 ... : ... .. . ... ... : ... .. 5 ... ... : ... .. 5 ... ... : ... .. 4 ... ...
ROW 6B : ... .. A ... ... ... : ... .. . ... ... ... : ... .. . ... : ... .. 2 ... : ... .. . ... ... : ... .. 4 ... ... : ... .. . ... ... : ... .. . ... ...
ROW 6C : ... .. . ... ... ... : ... .. 4 ... ... ... : ... .. . ... : ... .. 1 ... : ... .. . ... ... : ... .. . ... ... : ... .. . ... ... : ... .. . ... ...
ROW 6D : ... .. . ... ... ... : ... .. 3 ... ... ... : ... .. . ... : ... .. 0 ... : ... .. . ... ... : ... .. . ... ... : ... .. 4 ... ... : ... .. . ... ...
ROW 6E : ... .. . ... ... ... : ... .. . ... ... ... : ... .. . ... : ... .. . ... : ... .. . ... ... : ... .. . ... ... : ... .. . ... ... : ... .. . ... ...
ROW 6F : ... .. . ... ... ... : ... .. . ... ... ... : ... .. . ... : ... .. . ... : ... .. . ... ... : ... .. 3 ... ... : ... .. 3 ... ... : ... .. . ... ...
ROW 70 : ... .. . ... ... ... : G#3 00 A ... ... ... : ... .. . ... : ... .. F ... : ... .. . ... ... : B-2 01 6 ... ... : ... .. . ... ... : ... .. . ... ...
ROW 71 : ... .. . ... ... ... : ... .. 8 ... ... ... : ... .. . ... : ... .. C ... : ... .. . ... ... : ... .. . ... ... : ... .. . ... ... : ... .. . ... ...
ROW 72 : ... .. . ... ... ... : ... .. . ... ... ... : ... .. . ... : ... .. 6 ... : ... .. . ... ... : ... .. 5 ... ... : ... .. . ... ... : ... .. . ... ...
ROW 73 : ... .. . ... ... ... : ... .. . ... ... ... : ... .. . ... : ... .. 3 ... : ... .. . ... ... : ... .. 4 ... ... : ... .. . ... ... : ... .. . ... ...
ROW 74 : ... .. . ... ... ... : ... .. 4 ... ... ... : ... .. . ... : ... .. 2 ... : ... .. . ... ... : ... .. . ... ... : ... .. . ... ... : ... .. . ... ...
ROW 75 : ... .. 2 ... ... ... : ... .. 3 ... ... ... : ... .. . ... : ... .. 0 ... : ... .. . ... ... : ... .. . ... ... : ... .. . ... ... : ... .. . ... ...
ROW 76 : ... .. . ... ... ... : ... .. . ... ... ... : ... .. . ... : ... .. . ... : ... .. . ... ... : ... .. . ... ... : ... .. 2 ... ... : ... .. . ... ...
ROW 77 : ... .. . ... ... ... : ... .. . ... ... ... : --- .. . ... : ... .. . ... : ... .. . ... ... : ... .. 3 ... ... : ... .. . ... ... : --- .. . ... ...
ROW 78 : D#3 00 F ... ... ... : F#3 00 A ... ... ... : C#3 00 . ... : D-# 00 A ... : ... .. . ... ... : G#2 01 6 ... ... : E-3 01 7 ... ... : C#1 01 8 ... ...
ROW 79 : ... .. E ... ... ... : ... .. 8 ... ... ... : ... .. . ... : ... .. . ... : ... .. . ... ... : ... .. . ... ... : ... .. 6 ... ... : ... .. 6 ... ...
ROW 7A : ... .. D ... ... ... : ... .. . ... ... ... : ... .. . ... : ... .. . ... : ... .. . ... ... : ... .. 5 ... ... : ... .. 5 ... ... : ... .. 4 ... ...
ROW 7B : ... .. A ... ... ... : ... .. . ... ... ... : ... .. . ... : ... .. . ... : ... .. . ... ... : ... .. 4 ... ... : ... .. . ... ... : ... .. . ... ...
ROW 7C : ... .. . ... ... ... : ... .. 4 ... ... ... : ... .. . ... : ... .. . ... : ... .. . ... ... : ... .. . ... ... : ... .. . ... ... : ... .. . ... ...
ROW 7D : ... .. . ... ... ... : ... .. 3 ... ... ... : ... .. . ... : ... .. . ... : ... .. . ... ... : ... .. . ... ... : ... .. 4 ... ... : ... .. . ... ...
ROW 7E : ... .. . ... ... ... : ... .. . ... ... ... : ... .. . ... : ... .. . ... : ... .. . ... ... : ... .. . ... ... : ... .. . ... ... : ... .. . ... ...
ROW 7F : ... .. . ... ... ... : ... .. . ... ... ... : --- .. . ... : ... .. . ... : ... .. . ... ... : ... .. 3 ... ... : ... .. 3 ... ... : --- .. . P81 ...
ROW 80 : ... .. . ... ... ... : A#3 00 A ... ... ... : A#2 00 . P82 : 1-# 00 F ... : ... .. . ... ... : F#3 01 6 ... ... : ... .. . ... ... : F#0 01 8 P80 ...
ROW 81 : ... .. . ... ... ... : ... .. 8 ... ... ... : G#2 00 . P8B : ... .. C ... : ... .. . ... ... : ... .. . ... ... : ... .. . ... ... : ... .. 6 ... ...
ROW 82 : ... .. . ... ... ... : ... .. . ... ... ... : G-2 00 . P79 : ... .. 6 ... : ... .. . ... ... : ... .. 5 ... ... : ... .. . ... ... : ... .. 4 ... ...
ROW 83 : ... .. . ... ... ... : ... .. . ... ... ... : F-2 00 . P8D : ... .. 3 ... : ... .. . ... ... : ... .. 4 ... ... : ... .. . ... ... : ... .. . ... ...
ROW 84 : ... .. . ... ... ... : ... .. 4 ... ... ... : E-2 00 . P81 : ... .. 2 ... : ... .. . ... ... : ... .. . ... ... : ... .. . ... ... : ... .. . ... ...
ROW 85 : ... .. . ... ... ... : ... .. 3 ... ... ... : D#2 00 . P77 : ... .. 0 ... : ... .. . ... ... : ... .. . ... ... : ... .. . ... ... : ... .. . ... ...
ROW 86 : ... .. . ... ... ... : ... .. . ... ... ... : D-2 00 . P70 : ... .. . ... : ... .. . ... ... : ... .. . ... ... : ... .. 2 ... ... : ... .. . ... ...
ROW 87 : ... .. . ... ... ... : ... .. . ... ... ... : --- .. . ... : ... .. . ... : ... .. . ... ... : ... .. 3 ... ... : ... .. . ... ... : --- .. . P81 ...
ROW 88 : C#3 00 F ... ... ... : F#3 00 A ... ... ... : A#3 00 . P80 : E-# 00 A ... : ... .. . ... ... : C#3 01 6 ... ... : D#3 01 7 ... ... : A#1 01 8 P80 ...
ROW 89 : ... .. E ... ... ... : ... .. 8 ... ... ... : ... .. . ... : ... .. 8 ... : ... .. . ... ... : ... .. . ... ... : ... .. 6 ... ... : ... .. 6 ... ...
ROW 8A : ... .. D ... ... ... : ... .. . ... ... ... : ... .. . ... : ... .. 4 ... : ... .. . ... ... : ... .. 5 ... ... : ... .. 5 ... ... : ... .. 4 ... ...
ROW 8B : ... .. A ... ... ... : ... .. . ... ... ... : ... .. . ... : ... .. 2 ... : ... .. . ... ... : ... .. 4 ... ... : ... .. . ... ... : ... .. . ... ...
ROW 8C : ... .. . ... ... ... : ... .. 4 ... ... ... : ... .. . ... : ... .. 1 ... : ... .. . ... ... : ... .. . ... ... : ... .. . ... ... : ... .. . ... ...
ROW 8D : ... .. . ... ... ... : ... .. 3 ... ... ... : ... .. . ... : ... .. 0 ... : ... .. . ... ... : ... .. . ... ... : ... .. 4 ... ... : ... .. . ... ...
ROW 8E : ... .. . ... ... ... : ... .. . ... ... ... : ... .. . ... : ... .. . ... : ... .. . ... ... : ... .. . ... ... : ... .. . ... ... : ... .. . ... ...
ROW 8F : ... .. . ... ... ... : ... .. . ... ... ... : --- .. . ... : ... .. . ... : ... .. . ... ... : ... .. 3 ... ... : ... .. 3 ... ... : --- .. . ... ...
ROW 90 : ... .. . ... ... ... : C#3 00 A ... ... ... : G#3 00 . ... : ... .. F ... : ... .. . ... ... : A#2 01 6 ... ... : ... .. . ... ... : G#1 01 8 ... ...
ROW 91 : ... .. . ... ... ... : ... .. 8 ... ... ... : ... .. . ... : ... .. C ... : ... .. . ... ... : ... .. . ... ... : ... .. . ... ... : ... .. 6 ... ...
ROW 92 : ... .. . ... ... ... : ... .. . ... ... ... : ... .. . ... : ... .. 6 ... : ... .. . ... ... : ... .. 5 ... ... : ... .. . ... ... : ... .. 4 ... ...
ROW 93 : ... .. . ... ... ... : ... .. . ... ... ... : ... .. . ... : ... .. 3 ... : ... .. . ... ... : ... .. 4 ... ... : ... .. . ... ... : ... .. . ... ...
ROW 94 : ... .. . ... ... ... : ... .. 4 ... ... ... : ... .. . ... : ... .. 2 ... : ... .. . ... ... : ... .. . ... ... : ... .. . ... ... : ... .. . ... ...
ROW 95 : ... .. 2 ... ... ... : ... .. 3 ... ... ... : ... .. . ... : ... .. 0 ... : ... .. . ... ... : ... .. . ... ... : ... .. . ... ... : ... .. . ... ...
ROW 96 : ... .. . ... ... ... : ... .. . ... ... ... : ... .. . ... : ... .. . ... : ... .. . ... ... : ... .. . ... ... : ... .. . ... ... : ... .. . ... ...
ROW 97 : ... .. . ... ... ... : ... .. . ... ... ... : --- .. . ... : ... .. . ... : ... .. . ... ... : ... .. 3 ... ... : ... .. . ... ... : --- .. . P7E ...
ROW 98 : B-2 00 F ... ... ... : A#3 00 A ... ... ... : A#3 00 . ... : 1-# 00 F ... : ... .. . ... ... : G#2 01 6 ... ... : C#3 01 7 ... ... : A#1 01 8 P80 ...
ROW 99 : ... .. E ... ... ... : ... .. 8 ... ... ... : ... .. . ... : ... .. C ... : ... .. . ... ... : ... .. . ... ... : ... .. 6 ... ... : ... .. 6 ... ...
ROW 9A : ... .. D ... ... ... : ... .. . ... ... ... : ... .. . ... : ... .. 6 ... : ... .. . ... ... : ... .. 5 ... ... : ... .. 5 ... ... : ... .. 4 ... ...
ROW 9B : ... .. A ... ... ... : ... .. . ... ... ... : ... .. . ... : ... .. 3 ... : ... .. . ... ... : ... .. 4 ... ... : ... .. . ... ... : ... .. . ... ...
ROW 9C : ... .. . ... ... ... : ... .. 4 ... ... ... : ... .. . ... : ... .. 2 ... : ... .. . ... ... : ... .. . ... ... : ... .. . ... ... : ... .. . ... ...
ROW 9D : ... .. . ... ... ... : ... .. 3 ... ... ... : ... .. . ... : ... .. 0 ... : ... .. . ... ... : ... .. . ... ... : ... .. 4 ... ... : ... .. . ... ...
ROW 9E : ... .. . ... ... ... : ... .. . ... ... ... : ... .. . ... : ... .. . ... : ... .. . ... ... : ... .. . ... ... : ... .. . ... ... : ... .. . ... ...
ROW 9F : ... .. . ... ... ... : ... .. . ... ... ... : ... .. . ... : ... .. . ... : ... .. . ... ... : ... .. 3 ... ... : ... .. 3 ... ... : ... .. . ... ...
ROW A0 : ... .. . ... ... ... : F#3 00 A ... ... ... : B-3 00 . P7D : 5-# 00 D ... : ... .. . ... ... : F#3 01 6 ... ... : ... .. . ... ... : ... .. . ... ...
ROW A1 : ... .. . ... ... ... : ... .. 8 ... ... ... : A#3 00 . P7C : ... .. . ... : ... .. . ... ... : ... .. . ... ... : ... .. . ... ... : ... .. . ... ...
ROW A2 : ... .. . ... ... ... : ... .. . ... ... ... : A-3 00 . P7B : 1-# 00 D ... : ... .. . ... ... : ... .. 5 ... ... : ... .. . ... ... : ... .. . ... ...
ROW A3 : ... .. . ... ... ... : ... .. . ... ... ... : G#3 00 . ... : F-# 00 6 ... : ... .. . ... ... : ... .. 4 ... ... : ... .. . ... ... : ... .. . ... ...
ROW A4 : ... .. . ... ... ... : ... .. 4 ... ... ... : G-3 00 . P7C : B-# 00 1 ... : ... .. . ... ... : ... .. . ... ... : ... .. . ... ... : ... .. . ... ...
ROW A5 : ... .. . ... ... ... : ... .. 3 ... ... ... : F#3 00 . P7E : ... .. 0 ... : ... .. . ... ... : ... .. . ... ... : ... .. . ... ... : ... .. . ... ...
ROW A6 : ... .. . ... ... ... : ... .. . ... ... ... : F-3 00 . P81 : ... .. . ... : ... .. . ... ... : ... .. . ... ... : ... .. 2 ... ... : ... .. . ... ...
ROW A7 : ... .. . ... ... ... : ... .. . ... ... ... : --- .. . ... : ... .. . ... : ... .. . ... ... : ... .. 3 ... ... : ... .. . ... ... : --- .. . ... ...
ROW A8 : A#2 00 F ... ... ... : D#3 00 A ... ... ... : D#4 00 . P80 : E-# 00 A ... : ... .. . ... ... : C#3 01 6 ... ... : B-2 01 7 ... ... : D#2 01 8 ... ...
ROW A9 : ... .. E ... ... ... : ... .. 8 ... ... ... : ... .. . ... : ... .. 8 ... : ... .. . ... ... : ... .. . ... ... : ... .. 6 ... ... : ... .. 6 ... ...
ROW AA : ... .. D ... ... ... : ... .. . ... ... ... : ... .. . ... : ... .. 4 ... : ... .. . ... ... : ... .. 5 ... ... : ... .. 5 ... ... : ... .. 4 ... ...
ROW AB : ... .. A ... ... ... : ... .. . ... ... ... : ... .. . ... : ... .. 2 ... : ... .. . ... ... : ... .. 4 ... ... : ... .. . ... ... : ... .. . ... ...
ROW AC : ... .. . ... ... ... : ... .. 4 ... ... ... : ... .. . ... : ... .. 1 ... : ... .. . ... ... : ... .. . ... ... : ... .. . ... ... : ... .. . ... ...
ROW AD : ... .. . ... ... ... : ... .. 3 ... ... ... : ... .. . ... : ... .. 0 ... : ... .. . ... ... : ... .. . ... ... : ... .. 4 ... ... : ... .. . ... ...
ROW AE : ... .. . ... ... ... : ... .. . ... ... ... : ... .. . ... : ... .. . ... : ... .. . ... ... : ... .. . ... ... : ... .. . ... ... : ... .. . ... ...
ROW AF : ... .. . ... ... ... : ... .. . ... ... ... : ... .. . ... : ... .. . ... : ... .. . ... ... : ... .. 3 ... ... : ... .. 3 ... ... : ... .. . ... ...
ROW B0 : ... .. . ... ... ... : A#3 00 A ... ... ... : ... .. . ... : ... .. F ... : ... .. . ... ... : A#2 01 6 ... ... : ... .. . ... ... : ... .. . ... ...
ROW B1 : ... .. . ... ... ... : ... .. 8 ... ... ... : ... .. . ... : ... .. C ... : ... .. . ... ... : ... .. . ... ... : ... .. . ... ... : ... .. . ... ...
ROW B2 : ... .. . ... ... ... : ... .. . ... ... ... : ... .. . ... : ... .. 6 ... : ... .. . ... ... : ... .. 5 ... ... : ... .. . ... ... : ... .. . ... ...
ROW B3 : ... .. . ... ... ... : ... .. . ... ... ... : ... .. . ... : ... .. 3 ... : ... .. . ... ... : ... .. 4 ... ... : ... .. . ... ... : ... .. . ... ...
ROW B4 : ... .. . ... ... ... : ... .. 4 ... ... ... : ... .. . ... : ... .. 2 ... : ... .. . ... ... : ... .. . ... ... : ... .. . ... ... : ... .. . ... ...
ROW B5 : ... .. 2 ... ... ... : ... .. 3 ... ... ... : ... .. . ... : ... .. 0 ... : ... .. . ... ... : ... .. . ... ... : ... .. . ... ... : ... .. . ... ...
ROW B6 : ... .. . ... ... ... : ... .. . ... ... ... : ... .. . ... : ... .. . ... : ... .. . ... ... : ... .. . ... ... : ... .. . ... ... : ... .. . ... ...
ROW B7 : ... .. . ... ... ... : ... .. . ... ... ... : --- .. . ... : ... .. . ... : ... .. . ... ... : ... .. 3 ... ... : ... .. . ... ... : --- .. . ... ...
ROW B8 : G#3 00 F ... ... ... : F#3 00 A ... ... ... : F#3 00 . ... : F-# 00 F ... : ... .. . ... ... : G#2 01 6 ... ... : A#2 01 7 ... ... : F#1 01 8 ... ...
ROW B9 : ... .. E ... ... ... : ... .. 8 ... ... ... : ... .. . ... : ... .. C ... : ... .. . ... ... : ... .. . ... ... : ... .. 6 ... ... : ... .. 6 ... ...
ROW BA : ... .. D ... ... ... : ... .. . ... ... ... : ... .. . ... : ... .. 6 ... : ... .. . ... ... : ... .. 5 ... ... : ... .. 5 ... ... : ... .. 4 ... ...
ROW BB : ... .. A ... ... ... : ... .. . ... ... ... : ... .. . ... : ... .. 3 ... : ... .. . ... ... : ... .. 4 ... ... : ... .. . ... ... : ... .. . ... ...
ROW BC : ... .. . ... ... ... : ... .. 4 ... ... ... : ... .. . ... : ... .. F ... : ... .. . ... ... : ... .. . ... ... : ... .. . ... ... : ... .. . ... ...
ROW BD : A-3 00 A P7A ... ... : ... .. 3 ... ... ... : ... .. . ... : ... .. C ... : ... .. . ... ... : ... .. . ... ... : ... .. 4 ... ... : ... .. . ... ...
ROW BE : ... .. . P83 ... ... : ... .. . ... ... ... : ... .. . ... : ... .. 6 ... : ... .. . ... ... : ... .. . ... ... : ... .. . ... ... : ... .. . ... ...
ROW BF : A#3 00 A P7E ... ... : ... .. . ... ... ... : --- .. . ... : ... .. 3 ... : ... .. . ... ... : ... .. 3 ... ... : ... .. 3 ... ... : --- .. . P81 ...
ROW C0 : ... .. . P80 ... ... : B-3 00 A ... ... ... : A#2 00 . P82 : 1-# 00 F ... : ... .. . ... ... : A#3 01 6 ... ... : ... .. . ... ... : G#0 01 8 P80 ...
ROW C1 : ... .. . ... ... ... : ... .. 8 ... ... ... : G#2 00 . P8B : ... .. C ... : ... .. . ... ... : ... .. . ... ... : ... .. . ... ... : ... .. 6 ... ...
ROW C2 : ... .. . ... ... ... : ... .. . ... ... ... : G-2 00 . P79 : ... .. 6 ... : ... .. . ... ... : ... .. 5 ... ... : ... .. . ... ... : ... .. 4 ... ...
ROW C3 : ... .. . ... ... ... : ... .. . ... ... ... : F-2 00 . P8D : ... .. 3 ... : ... .. . ... ... : ... .. 4 ... ... : ... .. . ... ... : ... .. . ... ...
ROW C4 : ... .. . ... ... ... : ... .. 4 ... ... ... : E-2 00 . P81 : ... .. 2 ... : ... .. . ... ... : ... .. . ... ... : ... .. . ... ... : ... .. . ... ...
ROW C5 : ... .. . ... ... ... : ... .. 3 ... ... ... : D#2 00 . P77 : ... .. 0 ... : ... .. . ... ... : ... .. . ... ... : ... .. . ... ... : ... .. . ... ...
ROW C6 : ... .. . ... ... ... : ... .. . ... ... ... : D-2 00 . P70 : ... .. . ... : ... .. . ... ... : ... .. . ... ... : ... .. 2 ... ... : ... .. . ... ...
ROW C7 : ... .. . ... ... ... : ... .. . ... ... ... : --- .. . ... : ... .. . ... : ... .. . ... ... : ... .. 3 ... ... : ... .. . ... ... : --- .. . P84 ...
ROW C8 : ... .. . ... ... ... : G#3 00 A ... ... ... : C#4 00 . P80 : E-# 00 A ... : ... .. . ... ... : B-3 01 6 ... ... : G#3 01 7 ... ... : C#2 01 8 P80 ...
ROW C9 : ... .. . ... ... ... : ... .. 8 ... ... ... : ... .. . ... : ... .. 8 ... : ... .. . ... ... : ... .. . ... ... : ... .. 6 ... ... : ... .. 6 ... ...
ROW CA : ... .. . ... ... ... : ... .. . ... ... ... : ... .. . ... : ... .. 4 ... : ... .. . ... ... : ... .. 5 ... ... : ... .. 5 ... ... : ... .. 4 ... ...
ROW CB : ... .. . ... ... ... : ... .. . ... ... ... : ... .. . ... : ... .. 2 ... : ... .. . ... ... : ... .. 4 ... ... : ... .. . ... ... : ... .. . ... ...
ROW CC : ... .. . ... ... ... : ... .. 4 ... ... ... : ... .. . ... : ... .. 1 ... : ... .. . ... ... : ... .. . ... ... : ... .. . ... ... : ... .. . ... ...
ROW CD : ... .. . ... ... ... : ... .. 3 ... ... ... : ... .. . ... : ... .. 0 ... : ... .. . ... ... : ... .. . ... ... : A-3 01 4 P7A ... : ... .. . ... ...
ROW CE : ... .. . ... ... ... : ... .. . ... ... ... : ... .. . ... : ... .. . ... : ... .. . ... ... : ... .. . ... ... : ... .. . P83 ... : ... .. . ... ...
ROW CF : ... .. . ... ... ... : ... .. . ... ... ... : --- .. . ... : ... .. . ... : ... .. . ... ... : ... .. 3 ... ... : A#3 01 3 P7E ... : --- .. . ... ...
ROW D0 : ... .. . ... ... ... : A#3 00 A ... ... ... : A#3 00 . ... : 1-# 00 F ... : ... .. . ... ... : A#4 01 6 ... ... : ... .. . P80 ... : A#1 01 8 ... ...
ROW D1 : ... .. . ... ... ... : ... .. 8 ... ... ... : ... .. . ... : ... .. C ... : ... .. . ... ... : ... .. . ... ... : ... .. . ... ... : ... .. 6 ... ...
ROW D2 : ... .. . ... ... ... : ... .. . ... ... ... : ... .. . ... : ... .. 6 ... : ... .. . ... ... : ... .. 5 ... ... : ... .. . ... ... : ... .. 4 ... ...
ROW D3 : ... .. . ... ... ... : ... .. . ... ... ... : ... .. . ... : ... .. 3 ... : ... .. . ... ... : ... .. 4 ... ... : ... .. . ... ... : ... .. . ... ...
ROW D4 : ... .. . ... ... ... : ... .. 4 ... ... ... : ... .. . ... : ... .. 2 ... : ... .. . ... ... : ... .. . ... ... : ... .. . ... ... : ... .. . ... ...
ROW D5 : ... .. . ... ... ... : ... .. 3 ... ... ... : ... .. . ... : ... .. 0 ... : ... .. . ... ... : ... .. . ... ... : ... .. . ... ... : ... .. . ... ...
ROW D6 : ... .. . ... ... ... : ... .. . ... ... ... : ... .. . ... : ... .. . ... : ... .. . ... ... : ... .. . ... ... : ... .. . ... ... : ... .. . ... ...
ROW D7 : ... .. . ... ... ... : ... .. . ... ... ... : --- .. . ... : ... .. . ... : ... .. . ... ... : ... .. 3 ... ... : ... .. . ... ... : --- .. . ... ...
ROW D8 : ... .. . ... ... ... : F#3 00 A ... ... ... : B-3 00 . ... : E-# 00 A ... : ... .. . ... ... : A#3 01 6 ... ... : ... .. . ... ... : B-1 01 8 ... ...
ROW D9 : ... .. . ... ... ... : ... .. 8 ... ... ... : ... .. . ... : ... .. 8 ... : ... .. . ... ... : ... .. . ... ... : ... .. . ... ... : ... .. 6 ... ...
ROW DA : ... .. . ... ... ... : ... .. . ... ... ... : ... .. . ... : ... .. 4 ... : ... .. . ... ... : ... .. 5 ... ... : ... .. . ... ... : ... .. 4 ... ...
ROW DB : ... .. . ... ... ... : ... .. . ... ... ... : ... .. . ... : ... .. 2 ... : ... .. . ... ... : ... .. 4 ... ... : ... .. . ... ... : ... .. . ... ...
ROW DC : ... .. . ... ... ... : ... .. 4 ... ... ... : ... .. . ... : ... .. 1 ... : ... .. . ... ... : ... .. . ... ... : ... .. . ... ... : ... .. . ... ...
ROW DD : ... .. . ... ... ... : ... .. 3 ... ... ... : ... .. . ... : ... .. 0 ... : ... .. . ... ... : ... .. . ... ... : ... .. . ... ... : ... .. . ... ...
ROW DE : ... .. . ... ... ... : ... .. . ... ... ... : ... .. . ... : ... .. . ... : ... .. . ... ... : ... .. . ... ... : ... .. . ... ... : ... .. . ... ...
ROW DF : ... .. . ... ... ... : ... .. . ... ... ... : ... .. . ... : ... .. . ... : ... .. . ... ... : ... .. 3 ... ... : ... .. . ... ... : ... .. . ... ...
ROW E0 : ... .. . P84 ... ... : C#3 00 A ... ... ... : ... .. . P7D : 5-# 00 D ... : ... .. . ... ... : B-3 01 6 ... ... : ... .. . ... ... : ... .. . ... ...
ROW E1 : ... .. . P86 ... ... : ... .. 8 ... ... ... : A#3 00 . P7C : ... .. . ... : ... .. . ... ... : ... .. . ... ... : ... .. . ... ... : ... .. . ... ...
ROW E2 : ... .. . P85 ... ... : ... .. . ... ... ... : A-3 00 . P7B : 1-# 00 D ... : ... .. . ... ... : ... .. 5 ... ... : ... .. . ... ... : ... .. . ... ...
ROW E3 : ... .. . P82 ... ... : ... .. . ... ... ... : G#3 00 . ... : F-# 00 6 ... : ... .. . ... ... : ... .. 4 ... ... : ... .. . ... ... : ... .. . ... ...
ROW E4 : ... .. . P7E ... ... : ... .. 4 ... ... ... : G-3 00 . P7C : B-# 00 1 ... : ... .. . ... ... : ... .. . ... ... : ... .. . ... ... : ... .. . ... ...
ROW E5 : ... .. . P7B ... ... : ... .. 3 ... ... ... : F#3 00 . P7E : ... .. 0 ... : ... .. . ... ... : ... .. . ... ... : ... .. . ... ... : ... .. . ... ...
ROW E6 : ... .. . P7A ... ... : ... .. . ... ... ... : F-3 00 . P81 : ... .. . ... : ... .. . ... ... : ... .. . ... ... : ... .. . ... ... : ... .. . ... ...
ROW E7 : ... .. . P7C ... ... : ... .. . ... ... ... : --- .. . ... : ... .. . ... : ... .. . ... ... : ... .. 3 ... ... : ... .. . ... ... : --- .. . P86 ...
ROW E8 : ... .. . P80 ... ... : D#3 00 A ... ... ... : D#3 00 . P80 : E-# 00 A ... : ... .. . ... ... : F#4 01 6 ... ... : ... .. . ... ... : D#1 01 8 P80 ...
ROW E9 : ... .. . P83 ... ... : ... .. 8 ... ... ... : ... .. . ... : ... .. 8 ... : ... .. . ... ... : ... .. . ... ... : ... .. . ... ... : ... .. 6 ... ...
ROW EA : ... .. . P86 ... ... : ... .. . ... ... ... : ... .. . ... : ... .. 4 ... : ... .. . ... ... : ... .. 5 ... ... : ... .. . ... ... : ... .. 4 ... ...
ROW EB : ... .. . ... ... ... : ... .. . ... ... ... : ... .. . ... : ... .. 2 ... : ... .. . ... ... : ... .. 4 ... ... : ... .. . ... ... : ... .. . ... ...
ROW EC : ... .. . P82 ... ... : ... .. 4 ... ... ... : ... .. . ... : ... .. 1 ... : ... .. . ... ... : ... .. . ... ... : ... .. . ... ... : ... .. . ... ...
ROW ED : ... .. . P7F ... ... : ... .. 3 ... ... ... : ... .. . ... : ... .. 0 ... : ... .. . ... ... : ... .. . ... ... : ... .. . ... ... : ... .. . ... ...
ROW EE : ... .. . P7B ... ... : ... .. . ... ... ... : ... .. . ... : ... .. . ... : ... .. . ... ... : ... .. . ... ... : ... .. . ... ... : ... .. . ... ...
ROW EF : ... .. . P7A ... ... : ... .. . ... ... ... : --- .. . ... : ... .. . ... : ... .. . ... ... : ... .. 3 ... ... : ... .. . ... ... : --- .. . P81 ...
ROW F0 : ... .. . P7C ... ... : B-2 00 A ... ... ... : F#3 00 . ... : ... .. F ... : ... .. . ... ... : A#3 01 6 ... ... : ... .. . P84 ... : F#1 01 8 P80 ...
ROW F1 : ... .. . P80 ... ... : ... .. 8 ... ... ... : ... .. . ... : ... .. C ... : ... .. . ... ... : ... .. . ... ... : ... .. . P86 ... : ... .. 6 ... ...
ROW F2 : ... .. . P83 ... ... : ... .. . ... ... ... : ... .. . ... : ... .. 6 ... : ... .. . ... ... : ... .. 5 ... ... : ... .. . P85 ... : ... .. 4 ... ...
ROW F3 : ... .. . P86 ... ... : ... .. . ... ... ... : ... .. . ... : ... .. 3 ... : ... .. . ... ... : ... .. 4 ... ... : ... .. . P82 ... : ... .. . ... ...
ROW F4 : ... .. . ... ... ... : ... .. 4 ... ... ... : ... .. . ... : ... .. 2 ... : ... .. . ... ... : ... .. . ... ... : ... .. . P7E ... : ... .. . ... ...
ROW F5 : ... .. . P83 ... ... : ... .. 3 ... ... ... : ... .. . ... : ... .. 0 ... : ... .. . ... ... : ... .. . ... ... : ... .. . P7B ... : ... .. . ... ...
ROW F6 : ... .. . P80 ... ... : ... .. . ... ... ... : ... .. . ... : ... .. . ... : ... .. . ... ... : ... .. . ... ... : ... .. . P7A ... : ... .. . ... ...
ROW F7 : ... .. . P7C ... ... : ... .. . ... ... ... : --- .. . ... : ... .. . ... : ... .. . ... ... : ... .. 3 ... ... : ... .. . P7C ... : --- .. . P81 ...
ROW F8 : ... .. . P7A ... ... : F#3 00 A ... ... ... : F#4 00 . ... : D-# 00 A ... : ... .. . ... ... : B-3 01 6 ... ... : ... .. . P80 ... : F#2 01 8 P80 ...
ROW F9 : ... .. . P7B ... ... : ... .. 8 ... ... ... : ... .. . ... : ... .. . ... : ... .. . ... ... : ... .. . ... ... : ... .. . P83 ... : ... .. 6 ... ...
ROW FA : ... .. . P7F ... ... : ... .. . ... ... ... : ... .. . ... : ... .. . ... : ... .. . ... ... : ... .. 5 ... ... : ... .. . P86 ... : ... .. 4 ... ...
ROW FB : ... .. . P82 ... ... : ... .. . ... ... ... : ... .. . ... : ... .. . ... : ... .. . ... ... : ... .. 4 ... ... : ... .. . ... ... : ... .. . ... ...
ROW FC : ... .. . P86 ... ... : ... .. 4 ... ... ... : ... .. . ... : ... .. . ... : ... .. . ... ... : ... .. . ... ... : ... .. . P82 ... : ... .. . ... ...
ROW FD : ... .. . ... ... ... : ... .. 3 ... ... ... : ... .. . ... : ... .. . ... : ... .. . ... ... : ... .. . ... ... : ... .. . P7F ... : ... .. . ... ...
ROW FE : ... .. . P83 ... ... : ... .. . ... ... ... : ... .. . ... : ... .. . ... : ... .. . ... ... : ... .. . ... ... : ... .. . P7B ... : ... .. . ... ...
ROW FF : ... .. . P80 ... ... : ... .. . ... ... ... : --- .. . ... : ... .. . ... : ... .. . ... ... : ... .. 3 ... ... : ... .. . P7A ... : --- .. . P84 ...

PATTERN 14
ROW 00 : ... .. . P7C ... ... : G#2 00 A ... ... ... : A#2 00 . P82 : 1-# 00 F ... : ... .. . ... ... : C#4 01 6 ... ... : ... .. . P7C ... : G#0 01 8 P80 ...
ROW 01 : ... .. . P7A ... ... : ... .. 8 ... ... ... : G#2 00 . P8B : ... .. C ... : ... .. . ... ... : ... .. . ... ... : ... .. . P80 ... : ... .. 6 ... ...
ROW 02 : ... .. . P7B ... ... : ... .. . ... ... ... : G-2 00 . P79 : ... .. 6 ... : ... .. . ... ... : ... .. 5 ... ... : ... .. . P83 ... : ... .. 4 ... ...
ROW 03 : ... .. . P7E ... ... : ... .. . ... ... ... : F-2 00 . P8D : ... .. 3 ... : ... .. . ... ... : ... .. 4 ... ... : ... .. . P86 ... : ... .. . ... ...
ROW 04 : ... .. . P82 ... ... : ... .. 4 ... ... ... : E-2 00 . P81 : ... .. 2 ... : ... .. . ... ... : ... .. . ... ... : ... .. . ... ... : ... .. . ... ...
ROW 05 : ... .. . P85 ... ... : ... .. 3 ... ... ... : D#2 00 . P77 : ... .. 0 ... : ... .. . ... ... : ... .. . ... ... : ... .. . P83 ... : ... .. . ... ...
ROW 06 : ... .. . P86 ... ... : ... .. . ... ... ... : D-2 00 . P70 : ... .. . ... : ... .. . ... ... : ... .. . ... ... : ... .. . P80 ... : ... .. . ... ...
ROW 07 : ... .. . P84 ... ... : ... .. . ... ... ... : --- .. . ... : ... .. . ... : ... .. . ... ... : ... .. 3 ... ... : ... .. . P7C ... : --- .. . P84 ...
ROW 08 : ... .. . P80 ... ... : B-2 00 A ... ... ... : G#3 00 . P80 : E-# 00 A ... : ... .. . ... ... : A#3 01 6 ... ... : ... .. . P7A ... : G#1 01 8 P80 ...
ROW 09 : ... .. 2 P7D ... ... : ... .. 8 ... ... ... : ... .. . ... : ... .. 8 ... : ... .. . ... ... : ... .. . ... ... : ... .. . P7B ... : ... .. 6 ... ...
ROW 0A : ... .. . P7A ... ... : ... .. . ... ... ... : ... .. . ... : ... .. 4 ... : ... .. . ... ... : ... .. 5 ... ... : ... .. . P7F ... : ... .. 4 ... ...
ROW 0B : ... .. . ... ... ... : ... .. . ... ... ... : ... .. . ... : ... .. 2 ... : ... .. . ... ... : ... .. 4 ... ... : ... .. . P82 ... : ... .. . ... ...
ROW 0C : ... .. 1 P7E ... ... : ... .. 4 ... ... ... : ... .. . ... : ... .. 1 ... : ... .. . ... ... : ... .. . ... ... : ... .. . P86 ... : ... .. . ... ...
ROW 0D : ... .. . P81 ... ... : ... .. 3 ... ... ... : ... .. . ... : ... .. 0 ... : ... .. . ... ... : ... .. . ... ... : ... .. . ... ... : ... .. . ... ...
ROW 0E : ... .. . P85 ... ... : ... .. . ... ... ... : ... .. . ... : ... .. . ... : ... .. . ... ... : ... .. . ... ... : ... .. . P83 ... : ... .. . ... ...
ROW 0F : ... .. 0 ... ... ... : ... .. . ... ... ... : --- .. . ... : ... .. . ... : ... .. . ... ... : ... .. 3 ... ... : ... .. . P80 ... : --- .. . P7E ...
ROW 10 : ... .. . ... ... ... : A#2 00 A ... ... ... : B-3 00 . ... : ... .. F ... : ... .. . ... ... : B-3 01 6 ... ... : ... .. . P7C ... : B-1 01 8 P80 ...
ROW 11 : ... .. . ... ... ... : ... .. 8 ... ... ... : ... .. . ... : ... .. C ... : ... .. . ... ... : ... .. . ... ... : ... .. . P7A ... : ... .. 6 ... ...
ROW 12 : ... .. . ... ... ... : ... .. . ... ... ... : ... .. . ... : ... .. 6 ... : ... .. . ... ... : ... .. 5 ... ... : ... .. . P7B ... : ... .. 4 ... ...
ROW 13 : ... .. . ... ... ... : ... .. . ... ... ... : ... .. . ... : ... .. 3 ... : ... .. . ... ... : ... .. 4 ... ... : ... .. . P7E ... : ... .. . ... ...
ROW 14 : ... .. . ... ... ... : ... .. 4 ... ... ... : ... .. . ... : ... .. 2 ... : ... .. . ... ... : ... .. . ... ... : ... .. . P82 ... : ... .. . ... ...
ROW 15 : ... .. . ... ... ... : ... .. 3 ... ... ... : ... .. . ... : ... .. 0 ... : ... .. . ... ... : ... .. . ... ... : ... .. . P85 ... : ... .. . ... ...
ROW 16 : ... .. . ... ... ... : ... .. . ... ... ... : ... .. . ... : ... .. . ... : ... .. . ... ... : ... .. . ... ... : ... .. . P86 ... : ... .. . ... ...
ROW 17 : ... .. . ... ... ... : ... .. . ... ... ... : --- .. . ... : ... .. . ... : ... .. . ... ... : ... .. 3 ... ... : ... .. . P84 ... : --- .. . P86 ...
ROW 18 : ... .. . ... ... ... : F#2 00 A ... ... ... : G#2 00 . ... : 1-# 00 F ... : ... .. . ... ... : D#4 01 6 ... ... : ... .. . P80 ... : G#0 01 8 P80 ...
ROW 19 : ... .. . ... ... ... : ... .. 8 ... ... ... : ... .. . ... : ... .. C ... : ... .. . ... ... : ... .. . ... ... : ... .. . P7D ... : ... .. 6 ... ...
ROW 1A : ... .. . ... ... ... : ... .. . ... ... ... : ... .. . ... : ... .. 6 ... : ... .. . ... ... : ... .. 5 ... ... : ... .. 2 P7A ... : ... .. 4 ... ...
ROW 1B : ... .. . ... ... ... : ... .. . ... ... ... : ... .. . ... : ... .. 3 ... : ... .. . ... ... : ... .. 4 ... ... : ... .. . ... ... : ... .. . ... ...
ROW 1C : ... .. . ... ... ... : ... .. 4 ... ... ... : ... .. . ... : ... .. 2 ... : ... .. . ... ... : ... .. . ... ... : ... .. . P7E ... : ... .. . ... ...
ROW 1D : ... .. . ... ... ... : ... .. 3 ... ... ... : ... .. . ... : ... .. 0 ... : ... .. . ... ... : ... .. . ... ... : ... .. . P81 ... : ... .. . ... ...
ROW 1E : ... .. . ... ... ... : ... .. . ... ... ... : ... .. . ... : ... .. . ... : ... .. . ... ... : ... .. . ... ... : ... .. . P85 ... : ... .. . ... ...
ROW 1F : ... .. . ... ... ... : ... .. . ... ... ... : --- .. . ... : ... .. . ... : ... .. . ... ... : ... .. 3 ... ... : ... .. . P86 ... : --- .. . P84 ...
ROW 20 : ... .. . ... ... ... : C#2 00 A ... ... ... : B-3 00 . P7D : 5-# 00 D ... : ... .. . ... ... : A#3 01 6 ... ... : ... .. . P84 ... : B-0 01 8 P80 ...
ROW 21 : ... .. . ... ... ... : ... .. 8 ... ... ... : A#3 00 . P7C : ... .. . ... : ... .. . ... ... : ... .. . ... ... : ... .. . P80 ... : ... .. 6 ... ...
ROW 22 : ... .. . ... ... ... : ... .. . ... ... ... : A-3 00 . P7B : 1-# 00 D ... : ... .. . ... ... : ... .. 5 ... ... : ... .. . P7D ... : ... .. 4 ... ...
ROW 23 : ... .. . ... ... ... : ... .. . ... ... ... : G#3 00 . ... : F-# 00 6 ... : ... .. . ... ... : ... .. 4 ... ... : ... .. . P7A ... : ... .. . ... ...
ROW 24 : ... .. . ... ... ... : ... .. 4 ... ... ... : G-3 00 . P7C : B-# 00 1 ... : ... .. . ... ... : ... .. . ... ... : ... .. . ... ... : ... .. . ... ...
ROW 25 : ... .. . ... ... ... : ... .. 3 ... ... ... : F#3 00 . P7E : ... .. 0 ... : ... .. . ... ... : ... .. . ... ... : ... .. . P7D ... : ... .. . ... ...
ROW 26 : ... .. . ... ... ... : ... .. . ... ... ... : F-3 00 . P81 : ... .. . ... : ... .. . ... ... : ... .. . ... ... : ... .. . P80 ... : ... .. . ... ...
ROW 27 : ... .. . ... ... ... : ... .. . ... ... ... : --- .. . ... : ... .. . ... : ... .. . ... ... : ... .. 3 ... ... : ... .. 1 P84 ... : --- .. . ... ...
ROW 28 : G#3 00 F P80 ... ... : D#2 00 A ... ... ... : G#3 00 . P80 : E-# 00 A ... : ... .. . ... ... : B-3 01 6 ... ... : ... .. . P86 ... : G#1 01 8 ... ...
ROW 29 : ... .. E ... ... ... : ... .. 8 ... ... ... : ... .. . ... : ... .. 8 ... : ... .. . ... ... : ... .. . ... ... : ... .. . P85 ... : ... .. 6 ... ...
ROW 2A : ... .. D ... ... ... : ... .. . ... ... ... : ... .. . ... : ... .. 4 ... : ... .. . ... ... : ... .. 5 ... ... : ... .. . P81 ... : ... .. 4 ... ...
ROW 2B : ... .. A ... ... ... : ... .. . ... ... ... : ... .. . ... : ... .. 2 ... : ... .. . ... ... : ... .. 4 ... ... : ... .. . P7E ... : ... .. . ... ...
ROW 2C : ... .. . ... ... ... : ... .. 4 ... ... ... : ... .. . ... : ... .. 1 ... : ... .. . ... ... : ... .. . ... ... : ... .. . P7A ... : ... .. . ... ...
ROW 2D : ... .. . ... ... ... : ... .. 3 ... ... ... : ... .. . ... : ... .. 0 ... : ... .. . ... ... : ... .. . ... ... : ... .. . ... ... : ... .. . ... ...
ROW 2E : ... .. . ... ... ... : ... .. . ... ... ... : ... .. . ... : ... .. . ... : ... .. . ... ... : ... .. . ... ... : ... .. . P7D ... : ... .. . ... ...
ROW 2F : ... .. . ... ... ... : ... .. . ... ... ... : --- .. . ... : ... .. . ... : ... .. . ... ... : ... .. 3 ... ... : ... .. . P80 ... : --- .. . P7E ...
ROW 30 : B-3 00 F ... ... ... : B-2 00 A ... ... ... : E-4 00 . ... : ... .. F ... : ... .. . ... ... : G#4 01 6 ... ... : ... .. . P84 ... : E-2 01 8 P80 ...
ROW 31 : ... .. E ... ... ... : ... .. 8 ... ... ... : ... .. . ... : ... .. C ... : ... .. . ... ... : ... .. . ... ... : ... .. . P86 ... : ... .. 6 ... ...
ROW 32 : ... .. D ... ... ... : ... .. . ... ... ... : ... .. . ... : ... .. 6 ... : ... .. . ... ... : ... .. 5 ... ... : ... .. . P85 ... : ... .. 4 ... ...
ROW 33 : ... .. A ... ... ... : ... .. . ... ... ... : ... .. . ... : ... .. 3 ... : ... .. . ... ... : ... .. 4 ... ... : ... .. . P82 ... : ... .. . ... ...
ROW 34 : ... .. . ... ... ... : ... .. 4 ... ... ... : ... .. . ... : ... .. 2 ... : ... .. . ... ... : ... .. . ... ... : ... .. . P7E ... : ... .. . ... ...
ROW 35 : ... .. . ... ... ... : ... .. 3 ... ... ... : ... .. . ... : ... .. 0 ... : ... .. . ... ... : ... .. . ... ... : --- .. . ... ... : ... .. . ... ...
ROW 36 : ... .. . ... ... ... : ... .. . ... ... ... : ... .. . ... : ... .. . ... : ... .. . ... ... : ... .. . ... ... : ... .. . ... ... : ... .. . ... ...
ROW 37 : ... .. . ... ... ... : ... .. . ... ... ... : --- .. . ... : ... .. . ... : ... .. . ... ... : ... .. 3 ... ... : ... .. . ... ... : --- .. . P89 ...
ROW 38 : F#4 00 F ... ... ... : F#3 00 A ... ... ... : B-2 00 . ... : F-# 00 F ... : ... .. . ... ... : B-4 01 6 ... ... : G#3 01 7 P80 ... : B-0 01 8 P80 ...
ROW 39 : ... .. E ... ... ... : ... .. 8 ... ... ... : ... .. . ... : ... .. C ... : ... .. . ... ... : ... .. . ... ... : ... .. 6 ... ... : ... .. 6 ... ...
ROW 3A : ... .. D ... ... ... : ... .. . ... ... ... : ... .. . ... : ... .. 6 ... : ... .. . ... ... : ... .. 5 ... ... : ... .. 5 ... ... : ... .. 4 ... ...
ROW 3B : ... .. A ... ... ... : ... .. . ... ... ... : ... .. . ... : ... .. 3 ... : ... .. . ... ... : ... .. 4 ... ... : ... .. . ... ... : ... .. . ... ...
ROW 3C : ... .. . ... ... ... : ... .. 4 ... ... ... : ... .. . ... : ... .. F ... : ... .. . ... ... : ... .. . ... ... : ... .. . ... ... : ... .. . ... ...
ROW 3D : ... .. . ... ... ... : ... .. 3 ... ... ... : ... .. . ... : ... .. C ... : ... .. . ... ... : ... .. . ... ... : ... .. 4 ... ... : ... .. . ... ...
ROW 3E : ... .. . ... ... ... : ... .. . ... ... ... : ... .. . ... : ... .. 6 ... : ... .. . ... ... : ... .. . ... ... : ... .. . ... ... : ... .. . ... ...
ROW 3F : ... .. . ... ... ... : ... .. . ... ... ... : --- .. . ... : ... .. 3 ... : ... .. . ... ... : ... .. 3 ... ... : ... .. 3 ... ... : --- .. . ... ...
ROW 40 : D#4 00 F ... ... ... : D#3 00 A ... ... ... : A#2 00 . P82 : 1-# 00 F ... : ... .. . ... ... : --- .. . ... ... : B-3 01 7 ... ... : E-0 01 8 ... ...
ROW 41 : ... .. E ... ... ... : ... .. 8 ... ... ... : G#2 00 . P8B : ... .. C ... : ... .. . ... ... : ... .. . ... ... : ... .. 6 ... ... : ... .. 6 ... ...
ROW 42 : ... .. D ... ... ... : ... .. . ... ... ... : G-2 00 . P79 : ... .. 6 ... : ... .. . ... ... : ... .. . ... ... : ... .. 5 ... ... : ... .. 4 ... ...
ROW 43 : ... .. A ... ... ... : ... .. . ... ... ... : F-2 00 . P8D : ... .. 3 ... : ... .. . ... ... : ... .. . ... ... : ... .. . ... ... : ... .. . ... ...
ROW 44 : ... .. . ... ... ... : ... .. 4 ... ... ... : E-2 00 . P81 : ... .. 2 ... : ... .. . ... ... : ... .. . ... ... : ... .. . ... ... : ... .. . ... ...
ROW 45 : ... .. . ... ... ... : ... .. 3 ... ... ... : D#2 00 . P77 : ... .. 0 ... : ... .. . ... ... : ... .. . ... ... : ... .. 4 ... ... : ... .. . ... ...
ROW 46 : ... .. . ... ... ... : ... .. . ... ... ... : D-2 00 . P70 : ... .. . ... : ... .. . ... ... : ... .. . ... ... : ... .. . ... ... : ... .. . ... ...
ROW 47 : ... .. . ... ... ... : ... .. . ... ... ... : --- .. . ... : ... .. . ... : ... .. . ... ... : ... .. . ... ... : ... .. 3 ... ... : --- .. . ... ...
ROW 48 : ... .. . ... ... ... : B-2 00 A ... ... ... : E-3 00 . P80 : E-# 00 A ... : ... .. . ... ... : ... .. . ... ... : F#4 01 7 ... ... : E-1 01 8 ... ...
ROW 49 : ... .. . ... ... ... : ... .. 8 ... ... ... : ... .. . ... : ... .. 8 ... : ... .. . ... ... : ... .. . ... ... : ... .. 6 ... ... : ... .. 6 ... ...
ROW 4A : ... .. . ... ... ... : ... .. . ... ... ... : ... .. . ... : ... .. 4 ... : ... .. . ... ... : ... .. . ... ... : ... .. 5 ... ... : ... .. 4 ... ...
ROW 4B : ... .. . ... ... ... : ... .. . ... ... ... : ... .. . ... : ... .. 2 ... : ... .. . ... ... : ... .. . ... ... : ... .. . ... ... : ... .. . ... ...
ROW 4C : ... .. . ... ... ... : ... .. 4 ... ... ... : ... .. . ... : ... .. 1 ... : ... .. . ... ... : ... .. . ... ... : ... .. . ... ... : ... .. . ... ...
ROW 4D : ... .. . ... ... ... : ... .. 3 ... ... ... : ... .. . ... : ... .. 0 ... : ... .. . ... ... : ... .. . ... ... : ... .. 4 ... ... : ... .. . ... ...
ROW 4E : ... .. . ... ... ... : ... .. . ... ... ... : ... .. . ... : ... .. . ... : ... .. . ... ... : ... .. . ... ... : ... .. . ... ... : ... .. . ... ...
ROW 4F : ... .. . ... ... ... : ... .. . ... ... ... : --- .. . ... : ... .. . ... : ... .. . ... ... : ... .. . ... ... : ... .. 3 ... ... : --- .. . P82 ...
ROW 50 : B-3 00 F ... ... ... : F#2 00 A ... ... ... : D#3 00 . ... : 1-# 00 F ... : ... .. . ... ... : ... .. . ... ... : D#4 01 7 ... ... : D#1 01 8 P80 ...
ROW 51 : ... .. E ... ... ... : ... .. 8 ... ... ... : ... .. . ... : ... .. C ... : ... .. . ... ... : ... .. . ... ... : ... .. 6 ... ... : ... .. 6 ... ...
ROW 52 : ... .. D ... ... ... : ... .. . ... ... ... : ... .. . ... : ... .. 6 ... : ... .. . ... ... : ... .. . ... ... : ... .. 5 ... ... : ... .. 4 ... ...
ROW 53 : ... .. A ... ... ... : ... .. . ... ... ... : ... .. . ... : ... .. 3 ... : ... .. . ... ... : ... .. . ... ... : ... .. . ... ... : ... .. . ... ...
ROW 54 : ... .. . ... ... ... : ... .. 4 ... ... ... : ... .. . ... : ... .. 2 ... : ... .. . ... ... : ... .. . ... ... : ... .. . ... ... : ... .. . ... ...
ROW 55 : ... .. . ... ... ... : ... .. 3 ... ... ... : ... .. . ... : ... .. 0 ... : ... .. . ... ... : ... .. . ... ... : ... .. 4 ... ... : ... .. . ... ...
ROW 56 : ... .. . ... ... ... : ... .. . ... ... ... : ... .. . ... : ... .. . ... : ... .. . ... ... : ... .. . ... ... : ... .. . ... ... : ... .. . ... ...
ROW 57 : ... .. . ... ... ... : ... .. . ... ... ... : --- .. . ... : ... .. . ... : ... .. . ... ... : ... .. . ... ... : ... .. 3 ... ... : --- .. . P81 ...
ROW 58 : ... .. . ... ... ... : D#3 00 A ... ... ... : E-3 00 . ... : E-# 00 A ... : ... .. . ... ... : ... .. . ... ... : ... .. . ... ... : E-1 01 8 P80 ...
ROW 59 : ... .. . ... ... ... : ... .. 8 ... ... ... : ... .. . ... : ... .. 8 ... : ... .. . ... ... : ... .. . ... ... : ... .. . ... ... : ... .. 6 ... ...
ROW 5A : ... .. . ... ... ... : ... .. . ... ... ... : ... .. . ... : ... .. 4 ... : ... .. . ... ... : ... .. . ... ... : ... .. . ... ... : ... .. 4 ... ...
ROW 5B : ... .. . ... ... ... : ... .. . ... ... ... : ... .. . ... : ... .. 2 ... : ... .. . ... ... : ... .. . ... ... : ... .. . ... ... : ... .. . ... ...
ROW 5C : ... .. . ... ... ... : ... .. 4 ... ... ... : ... .. . ... : ... .. 1 ... : ... .. . ... ... : ... .. . ... ... : ... .. . ... ... : ... .. . ... ...
ROW 5D : ... .. . ... ... ... : ... .. 3 ... ... ... : ... .. . ... : ... .. 0 ... : ... .. . ... ... : ... .. . ... ... : ... .. . ... ... : ... .. . ... ...
ROW 5E : ... .. . ... ... ... : ... .. . ... ... ... : ... .. . ... : ... .. . ... : ... .. . ... ... : ... .. . ... ... : ... .. . ... ... : ... .. . ... ...
ROW 5F : ... .. . ... ... ... : ... .. . ... ... ... : ... .. . ... : ... .. . ... : ... .. . ... ... : ... .. . ... ... : ... .. . ... ... : ... .. . ... ...
ROW 60 : E-4 00 F ... ... ... : B-2 00 A ... ... ... : B-3 00 . P7D : 5-# 00 D ... : ... .. . ... ... : ... .. . ... ... : B-3 01 7 ... ... : ... .. . ... ...
ROW 61 : ... .. E ... ... ... : ... .. 8 ... ... ... : A#3 00 . P7C : ... .. . ... : ... .. . ... ... : ... .. . ... ... : ... .. 6 ... ... : ... .. . ... ...
ROW 62 : ... .. D ... ... ... : ... .. . ... ... ... : A-3 00 . P7B : 1-# 00 D ... : ... .. . ... ... : ... .. . ... ... : ... .. 5 ... ... : ... .. . ... ...
ROW 63 : ... .. A ... ... ... : ... .. . ... ... ... : G#3 00 . ... : F-# 00 6 ... : ... .. . ... ... : ... .. . ... ... : ... .. . ... ... : ... .. . ... ...
ROW 64 : ... .. . ... ... ... : ... .. 4 ... ... ... : G-3 00 . P7C : B-# 00 1 ... : ... .. . ... ... : ... .. . ... ... : ... .. . ... ... : ... .. . ... ...
ROW 65 : F-4 00 A P7F ... ... : ... .. 3 ... ... ... : F#3 00 . P7E : ... .. 0 ... : ... .. . ... ... : ... .. . ... ... : ... .. 4 ... ... : ... .. . ... ...
ROW 66 : F#4 00 A ... ... ... : ... .. . ... ... ... : F-3 00 . P81 : ... .. . ... : ... .. . ... ... : ... .. . ... ... : ... .. . ... ... : ... .. . ... ...
ROW 67 : ... .. . P80 ... ... : ... .. . ... ... ... : --- .. . ... : ... .. . ... : ... .. . ... ... : ... .. . ... ... : ... .. 3 ... ... : --- .. . P82 ...
ROW 68 : ... .. . ... ... ... : F#2 00 A ... ... ... : B-2 00 . P80 : E-# 00 A ... : ... .. . ... ... : ... .. . ... ... : ... .. . ... ... : B-0 01 8 P80 ...
ROW 69 : ... .. . ... ... ... : ... .. 8 ... ... ... : ... .. . ... : ... .. 8 ... : ... .. . ... ... : ... .. . ... ... : ... .. . ... ... : ... .. 6 ... ...
ROW 6A : ... .. . ... ... ... : ... .. . ... ... ... : ... .. . ... : ... .. 4 ... : ... .. . ... ... : ... .. . ... ... : ... .. . ... ... : ... .. 4 ... ...
ROW 6B : ... .. . ... ... ... : ... .. . ... ... ... : ... .. . ... : ... .. 2 ... : ... .. . ... ... : ... .. . ... ... : ... .. . ... ... : ... .. . ... ...
ROW 6C : ... .. . ... ... ... : ... .. 4 ... ... ... : ... .. . ... : ... .. 1 ... : ... .. . ... ... : ... .. . ... ... : ... .. . ... ... : ... .. . ... ...
ROW 6D : ... .. . ... ... ... : ... .. 3 ... ... ... : ... .. . ... : ... .. 0 ... : ... .. . ... ... : ... .. . ... ... : ... .. . ... ... : ... .. . ... ...
ROW 6E : ... .. . ... ... ... : ... .. . ... ... ... : ... .. . ... : ... .. . ... : ... .. . ... ... : ... .. . ... ... : ... .. . ... ... : ... .. . ... ...
ROW 6F : ... .. . ... ... ... : ... .. . ... ... ... : ... .. . ... : ... .. . ... : ... .. . ... ... : ... .. . ... ... : ... .. . ... ... : ... .. . ... ...
ROW 70 : E-4 00 F ... ... ... : D#3 00 A ... ... ... : ... .. . ... : ... .. F ... : ... .. . ... ... : ... .. . ... ... : E-4 01 7 ... ... : ... .. . ... ...
ROW 71 : ... .. E ... ... ... : ... .. 8 ... ... ... : ... .. . ... : ... .. C ... : ... .. . ... ... : ... .. . ... ... : ... .. 6 ... ... : ... .. . ... ...
ROW 72 : ... .. D ... ... ... : ... .. . ... ... ... : ... .. . ... : ... .. 6 ... : ... .. . ... ... : ... .. . ... ... : ... .. 5 ... ... : ... .. . ... ...
ROW 73 : ... .. A ... ... ... : ... .. . ... ... ... : ... .. . ... : ... .. 3 ... : ... .. . ... ... : ... .. . ... ... : ... .. . ... ... : ... .. . ... ...
ROW 74 : ... .. . ... ... ... : ... .. 4 ... ... ... : ... .. . ... : ... .. 2 ... : ... .. . ... ... : ... .. . ... ... : ... .. . ... ... : ... .. . ... ...
ROW 75 : ... .. . ... ... ... : ... .. 3 ... ... ... : ... .. . ... : ... .. 0 ... : ... .. . ... ... : ... .. . ... ... : F-4 01 4 P7F ... : ... .. . ... ...
ROW 76 : ... .. . ... ... ... : ... .. . ... ... ... : ... .. . ... : ... .. . ... : ... .. . ... ... : ... .. . ... ... : F#4 01 4 ... ... : ... .. . ... ...
ROW 77 : ... .. . ... ... ... : ... .. . ... ... ... : --- .. . ... : ... .. . ... : ... .. . ... ... : ... .. . ... ... : ... .. 3 P80 ... : --- .. . ... ...
ROW 78 : D#4 00 F ... ... ... : B-2 00 A ... ... ... : G#3 00 . ... : D-# 00 A ... : ... .. . ... ... : ... .. . ... ... : ... .. . ... ... : G#1 01 8 ... ...
ROW 79 : ... .. E ... ... ... : ... .. 8 ... ... ... : ... .. . ... : ... .. . ... : ... .. . ... ... : ... .. . ... ... : ... .. . ... ... : ... .. 6 ... ...
ROW 7A : ... .. D ... ... ... : ... .. . ... ... ... : ... .. . ... : ... .. . ... : ... .. . ... ... : ... .. . ... ... : ... .. . ... ... : ... .. 4 ... ...
ROW 7B : ... .. A ... ... ... : ... .. . ... ... ... : ... .. . ... : ... .. . ... : ... .. . ... ... : ... .. . ... ... : ... .. . ... ... : ... .. . ... ...
ROW 7C : ... .. . ... ... ... : ... .. 4 ... ... ... : ... .. . ... : ... .. . ... : ... .. . ... ... : ... .. . ... ... : ... .. . ... ... : ... .. . ... ...
ROW 7D : ... .. . ... ... ... : ... .. 3 ... ... ... : ... .. . ... : ... .. . ... : ... .. . ... ... : ... .. . ... ... : ... .. . ... ... : ... .. . ... ...
ROW 7E : ... .. . ... ... ... : ... .. . ... ... ... : ... .. . ... : ... .. . ... : ... .. . ... ... : ... .. . ... ... : ... .. . ... ... : ... .. . ... ...
ROW 7F : ... .. . ... ... ... : ... .. . ... ... ... : --- .. . ... : ... .. . ... : ... .. . ... ... : ... .. . ... ... : ... .. . ... ... : --- .. . P7E ...
ROW 80 : ... .. . ... ... ... : C#3 00 A ... ... ... : A#2 00 . P82 : 1-# 00 F ... : ... .. . ... ... : ... .. . ... ... : E-4 01 7 ... ... : F#0 01 8 P80 ...
ROW 81 : ... .. . ... ... ... : ... .. 8 ... ... ... : G#2 00 . P8B : ... .. C ... : ... .. . ... ... : ... .. . ... ... : ... .. 6 ... ... : ... .. 6 ... ...
ROW 82 : ... .. . ... ... ... : ... .. . ... ... ... : G-2 00 . P79 : ... .. 6 ... : ... .. . ... ... : ... .. . ... ... : ... .. 5 ... ... : ... .. 4 ... ...
ROW 83 : ... .. . ... ... ... : ... .. . ... ... ... : F-2 00 . P8D : ... .. 3 ... : ... .. . ... ... : ... .. . ... ... : ... .. . ... ... : ... .. . ... ...
ROW 84 : ... .. . ... ... ... : ... .. 4 ... ... ... : E-2 00 . P81 : ... .. 2 ... : ... .. . ... ... : ... .. . ... ... : ... .. . ... ... : ... .. . ... ...
ROW 85 : ... .. 2 ... ... ... : ... .. 3 ... ... ... : D#2 00 . P77 : ... .. 0 ... : ... .. . ... ... : ... .. . ... ... : ... .. 4 ... ... : ... .. . ... ...
ROW 86 : ... .. . ... ... ... : ... .. . ... ... ... : D-2 00 . P70 : ... .. . ... : ... .. . ... ... : ... .. . ... ... : ... .. . ... ... : ... .. . ... ...
ROW 87 : ... .. . ... ... ... : ... .. . ... ... ... : --- .. . ... : ... .. . ... : ... .. . ... ... : ... .. . ... ... : ... .. 3 ... ... : --- .. . P81 ...
ROW 88 : C#4 00 F ... ... ... : A#2 00 A ... ... ... : F#3 00 . P80 : E-# 00 A ... : ... .. . ... ... : ... .. . ... ... : D#4 01 7 ... ... : F#1 01 8 P80 ...
ROW 89 : ... .. E ... ... ... : ... .. 8 ... ... ... : ... .. . ... : ... .. 8 ... : ... .. . ... ... : ... .. . ... ... : ... .. 6 ... ... : ... .. 6 ... ...
ROW 8A : ... .. D ... ... ... : ... .. . ... ... ... : ... .. . ... : ... .. 4 ... : ... .. . ... ... : ... .. . ... ... : ... .. 5 ... ... : ... .. 4 ... ...
ROW 8B : ... .. A ... ... ... : ... .. . ... ... ... : ... .. . ... : ... .. 2 ... : ... .. . ... ... : ... .. . ... ... : ... .. . ... ... : ... .. . ... ...
ROW 8C : ... .. . ... ... ... : ... .. 4 ... ... ... : ... .. . ... : ... .. 1 ... : ... .. . ... ... : ... .. . ... ... : ... .. . ... ... : ... .. . ... ...
ROW 8D : ... .. . ... ... ... : ... .. 3 ... ... ... : ... .. . ... : ... .. 0 ... : ... .. . ... ... : ... .. . ... ... : ... .. 4 ... ... : ... .. . ... ...
ROW 8E : ... .. . ... ... ... : ... .. . ... ... ... : ... .. . ... : ... .. . ... : ... .. . ... ... : ... .. . ... ... : ... .. . ... ... : ... .. . ... ...
ROW 8F : ... .. . ... ... ... : ... .. . ... ... ... : --- .. . ... : ... .. . ... : ... .. . ... ... : ... .. . ... ... : ... .. 3 ... ... : --- .. . P81 ...
ROW 90 : ... .. . ... ... ... : C#2 00 A ... ... ... : C#3 00 . ... : ... .. F ... : ... .. . ... ... : ... .. . ... ... : ... .. . ... ... : C#1 01 8 P80 ...
ROW 91 : ... .. . ... ... ... : ... .. 8 ... ... ... : ... .. . ... : ... .. C ... : ... .. . ... ... : ... .. . ... ... : ... .. . ... ... : ... .. 6 ... ...
ROW 92 : ... .. . ... ... ... : ... .. . ... ... ... : ... .. . ... : ... .. 6 ... : ... .. . ... ... : ... .. . ... ... : ... .. . ... ... : ... .. 4 ... ...
ROW 93 : ... .. . ... ... ... : ... .. . ... ... ... : ... .. . ... : ... .. 3 ... : ... .. . ... ... : ... .. . ... ... : ... .. . ... ... : ... .. . ... ...
ROW 94 : ... .. . ... ... ... : ... .. 4 ... ... ... : ... .. . ... : ... .. 2 ... : ... .. . ... ... : ... .. . ... ... : ... .. . ... ... : ... .. . ... ...
ROW 95 : ... .. . ... ... ... : ... .. 3 ... ... ... : ... .. . ... : ... .. 0 ... : ... .. . ... ... : ... .. . ... ... : ... .. . ... ... : ... .. . ... ...
ROW 96 : ... .. . ... ... ... : ... .. . ... ... ... : ... .. . ... : ... .. . ... : ... .. . ... ... : ... .. . ... ... : ... .. 2 ... ... : ... .. . ... ...
ROW 97 : ... .. . ... ... ... : ... .. . ... ... ... : --- .. . ... : ... .. . ... : ... .. . ... ... : ... .. . ... ... : ... .. . ... ... : --- .. . P81 ...
ROW 98 : ... .. . ... ... ... : C#3 00 A ... ... ... : A#3 00 . ... : 1-# 00 F ... : ... .. . ... ... : ... .. . ... ... : C#4 01 7 ... ... : A#1 01 8 P80 ...
ROW 99 : ... .. . ... ... ... : ... .. 8 ... ... ... : ... .. . ... : ... .. C ... : ... .. . ... ... : ... .. . ... ... : ... .. 6 ... ... : ... .. 6 ... ...
ROW 9A : ... .. . ... ... ... : ... .. . ... ... ... : ... .. . ... : ... .. 6 ... : ... .. . ... ... : ... .. . ... ... : ... .. 5 ... ... : ... .. 4 ... ...
ROW 9B : ... .. . ... ... ... : ... .. . ... ... ... : ... .. . ... : ... .. 3 ... : ... .. . ... ... : ... .. . ... ... : ... .. . ... ... : ... .. . ... ...
ROW 9C : ... .. . ... ... ... : ... .. 4 ... ... ... : ... .. . ... : ... .. 2 ... : ... .. . ... ... : ... .. . ... ... : ... .. . ... ... : ... .. . ... ...
ROW 9D : ... .. . ... ... ... : ... .. 3 ... ... ... : ... .. . ... : ... .. 0 ... : ... .. . ... ... : ... .. . ... ... : ... .. 4 ... ... : ... .. . ... ...
ROW 9E : ... .. . ... ... ... : ... .. . ... ... ... : ... .. . ... : ... .. . ... : ... .. . ... ... : ... .. . ... ... : ... .. . ... ... : ... .. . ... ...
ROW 9F : ... .. . ... ... ... : ... .. . ... ... ... : ... .. . ... : ... .. . ... : ... .. . ... ... : ... .. . ... ... : ... .. 3 ... ... : ... .. . ... ...
ROW A0 : ... .. . ... ... ... : A#2 00 A ... ... ... : B-3 00 . P7D : 5-# 00 D ... : ... .. . ... ... : ... .. . ... ... : ... .. . ... ... : ... .. . ... ...
ROW A1 : ... .. 2 ... ... ... : ... .. 8 ... ... ... : A#3 00 . P7C : ... .. . ... : ... .. . ... ... : ... .. . ... ... : ... .. . ... ... : ... .. . ... ...
ROW A2 : ... .. . ... ... ... : ... .. . ... ... ... : A-3 00 . P7B : 1-# 00 D ... : ... .. . ... ... : ... .. . ... ... : ... .. . ... ... : ... .. . ... ...
ROW A3 : ... .. . ... ... ... : ... .. . ... ... ... : G#3 00 . ... : F-# 00 6 ... : ... .. . ... ... : ... .. . ... ... : ... .. . ... ... : ... .. . ... ...
ROW A4 : ... .. 1 ... ... ... : ... .. 4 ... ... ... : G-3 00 . P7C : B-# 00 1 ... : ... .. . ... ... : ... .. . ... ... : ... .. . ... ... : ... .. . ... ...
ROW A5 : ... .. . ... ... ... : ... .. 3 ... ... ... : F#3 00 . P7E : ... .. 0 ... : ... .. . ... ... : ... .. . ... ... : ... .. . ... ... : ... .. . ... ...
ROW A6 : ... .. . ... ... ... : ... .. . ... ... ... : F-3 00 . P81 : ... .. . ... : ... .. . ... ... : ... .. . ... ... : ... .. . ... ... : ... .. . ... ...
ROW A7 : ... .. 0 ... ... ... : ... .. . ... ... ... : --- .. . ... : ... .. . ... : ... .. . ... ... : ... .. . ... ... : ... .. . ... ... : --- .. . ... ...
ROW A8 : D#3 00 F P80 ... ... : C#2 00 A ... ... ... : F#2 00 . P80 : E-# 00 A ... : ... .. . ... ... : ... .. . ... ... : ... .. . ... ... : F#0 01 8 ... ...
ROW A9 : ... .. E ... ... ... : ... .. 8 ... ... ... : ... .. . ... : ... .. 8 ... : ... .. . ... ... : ... .. . ... ... : ... .. . ... ... : ... .. 6 ... ...
ROW AA : ... .. D ... ... ... : ... .. . ... ... ... : ... .. . ... : ... .. 4 ... : ... .. . ... ... : ... .. . ... ... : ... .. . ... ... : ... .. 4 ... ...
ROW AB : ... .. A ... ... ... : ... .. . ... ... ... : ... .. . ... : ... .. 2 ... : ... .. . ... ... : ... .. . ... ... : ... .. . ... ... : ... .. . ... ...
ROW AC : ... .. . ... ... ... : ... .. 4 ... ... ... : ... .. . ... : ... .. 1 ... : ... .. . ... ... : ... .. . ... ... : ... .. . ... ... : ... .. . ... ...
ROW AD : ... .. . ... ... ... : ... .. 3 ... ... ... : ... .. . ... : ... .. 0 ... : ... .. . ... ... : ... .. . ... ... : ... .. . ... ... : ... .. . ... ...
ROW AE : ... .. . ... ... ... : ... .. . ... ... ... : ... .. . ... : ... .. . ... : ... .. . ... ... : ... .. . ... ... : ... .. . ... ... : ... .. . ... ...
ROW AF : ... .. . ... ... ... : ... .. . ... ... ... : ... .. . ... : ... .. . ... : ... .. . ... ... : ... .. . ... ... : ... .. . ... ... : ... .. . ... ...
ROW B0 : F#3 00 F ... ... ... : C#3 00 A ... ... ... : ... .. . ... : ... .. F ... : ... .. . ... ... : ... .. . ... ... : ... .. . ... ... : ... .. . ... ...
ROW B1 : ... .. E ... ... ... : ... .. 8 ... ... ... : ... .. . ... : ... .. C ... : ... .. . ... ... : ... .. . ... ... : ... .. . ... ... : ... .. . ... ...
ROW B2 : ... .. D ... ... ... : ... .. . ... ... ... : ... .. . ... : ... .. 6 ... : ... .. . ... ... : ... .. . ... ... : ... .. 2 ... ... : ... .. . ... ...
ROW B3 : ... .. A ... ... ... : ... .. . ... ... ... : ... .. . ... : ... .. 3 ... : ... .. . ... ... : ... .. . ... ... : ... .. . ... ... : ... .. . ... ...
ROW B4 : ... .. . ... ... ... : ... .. 4 ... ... ... : ... .. . ... : ... .. 2 ... : ... .. . ... ... : ... .. . ... ... : ... .. . ... ... : ... .. . ... ...
ROW B5 : ... .. . ... ... ... : ... .. 3 ... ... ... : ... .. . ... : ... .. 0 ... : ... .. . ... ... : ... .. . ... ... : ... .. . ... ... : ... .. . ... ...
ROW B6 : ... .. . ... ... ... : ... .. . ... ... ... : ... .. . ... : ... .. . ... : ... .. . ... ... : ... .. . ... ... : ... .. . ... ... : ... .. . ... ...
ROW B7 : ... .. . ... ... ... : ... .. . ... ... ... : --- .. . ... : ... .. . ... : ... .. . ... ... : ... .. . ... ... : ... .. . ... ... : --- .. . P81 ...
ROW B8 : B-3 00 F ... ... ... : A#2 00 A ... ... ... : D#3 00 . ... : F-# 00 F ... : ... .. . ... ... : ... .. . ... ... : D#3 01 7 ... ... : D#1 01 8 P80 ...
ROW B9 : ... .. E ... ... ... : ... .. 8 ... ... ... : ... .. . ... : ... .. C ... : ... .. . ... ... : ... .. . ... ... : ... .. 6 ... ... : ... .. 6 ... ...
ROW BA : ... .. D ... ... ... : ... .. . ... ... ... : ... .. . ... : ... .. 6 ... : ... .. . ... ... : ... .. . ... ... : ... .. 5 ... ... : ... .. 4 ... ...
ROW BB : ... .. A ... ... ... : ... .. . ... ... ... : ... .. . ... : ... .. 3 ... : ... .. . ... ... : ... .. . ... ... : ... .. . ... ... : ... .. . ... ...
ROW BC : ... .. . ... ... ... : ... .. 4 ... ... ... : ... .. . ... : ... .. F ... : ... .. . ... ... : ... .. . ... ... : ... .. . ... ... : ... .. . ... ...
ROW BD : ... .. . ... ... ... : ... .. 3 ... ... ... : ... .. . ... : ... .. C ... : ... .. . ... ... : ... .. . ... ... : ... .. 4 ... ... : ... .. . ... ...
ROW BE : ... .. . ... ... ... : ... .. . ... ... ... : ... .. . ... : ... .. 6 ... : ... .. . ... ... : ... .. . ... ... : ... .. . ... ... : ... .. . ... ...
ROW BF : ... .. . ... ... ... : ... .. . ... ... ... : --- .. . ... : ... .. 3 ... : ... .. . ... ... : ... .. . ... ... : ... .. 3 ... ... : --- .. . P81 ...
ROW C0 : A#3 00 F ... ... ... : B-2 00 A ... ... ... : A#2 00 . P82 : 1-# 00 F ... : ... .. . ... ... : ... .. . ... ... : F#3 01 7 ... ... : G#0 01 8 P80 ...
ROW C1 : ... .. E ... ... ... : ... .. 8 ... ... ... : G#2 00 . P8B : ... .. C ... : ... .. . ... ... : ... .. . ... ... : ... .. 6 ... ... : ... .. 6 ... ...
ROW C2 : ... .. D ... ... ... : ... .. . ... ... ... : G-2 00 . P79 : ... .. 6 ... : ... .. . ... ... : ... .. . ... ... : ... .. 5 ... ... : ... .. 4 ... ...
ROW C3 : ... .. A ... ... ... : ... .. . ... ... ... : F-2 00 . P8D : ... .. 3 ... : ... .. . ... ... : ... .. . ... ... : ... .. . ... ... : ... .. . ... ...
ROW C4 : ... .. . ... ... ... : ... .. 4 ... ... ... : E-2 00 . P81 : ... .. 2 ... : ... .. . ... ... : ... .. . ... ... : ... .. . ... ... : ... .. . ... ...
ROW C5 : ... .. . ... ... ... : ... .. 3 ... ... ... : D#2 00 . P77 : ... .. 0 ... : ... .. . ... ... : ... .. . ... ... : ... .. 4 ... ... : ... .. . ... ...
ROW C6 : ... .. . ... ... ... : ... .. . ... ... ... : D-2 00 . P70 : ... .. . ... : ... .. . ... ... : ... .. . ... ... : ... .. . ... ... : ... .. . ... ...
ROW C7 : ... .. . ... ... ... : ... .. . ... ... ... : --- .. . ... : ... .. . ... : ... .. . ... ... : ... .. . ... ... : ... .. 3 ... ... : --- .. . P84 ...
ROW C8 : ... .. . ... ... ... : A#2 00 A ... ... ... : B-3 00 . P80 : E-# 00 A ... : ... .. . ... ... : ... .. . ... ... : B-3 01 7 ... ... : B-1 01 8 P80 ...
ROW C9 : ... .. . ... ... ... : ... .. 8 ... ... ... : ... .. . ... : ... .. 8 ... : ... .. . ... ... : ... .. . ... ... : ... .. 6 ... ... : ... .. 6 ... ...
ROW CA : ... .. . ... ... ... : ... .. . ... ... ... : ... .. . ... : ... .. 4 ... : ... .. . ... ... : ... .. . ... ... : ... .. 5 ... ... : ... .. 4 ... ...
ROW CB : ... .. . ... ... ... : ... .. . ... ... ... : ... .. . ... : ... .. 2 ... : ... .. . ... ... : ... .. . ... ... : ... .. . ... ... : ... .. . ... ...
ROW CC : ... .. . ... ... ... : ... .. 4 ... ... ... : ... .. . ... : ... .. 1 ... : ... .. . ... ... : ... .. . ... ... : ... .. . ... ... : ... .. . ... ...
ROW CD : ... .. . ... ... ... : ... .. 3 ... ... ... : ... .. . ... : ... .. 0 ... : ... .. . ... ... : ... .. . ... ... : ... .. 4 ... ... : ... .. . ... ...
ROW CE : ... .. . ... ... ... : ... .. . ... ... ... : ... .. . ... : ... .. . ... : ... .. . ... ... : ... .. . ... ... : ... .. . ... ... : ... .. . ... ...
ROW CF : ... .. . ... ... ... : ... .. . ... ... ... : --- .. . ... : ... .. . ... : ... .. . ... ... : ... .. . ... ... : ... .. 3 ... ... : --- .. . P86 ...
ROW D0 : F#3 00 F ... ... ... : D#2 00 A ... ... ... : A#3 00 . ... : 1-# 00 F ... : ... .. . ... ... : ... .. . ... ... : A#3 01 7 ... ... : A#1 01 8 P80 ...
ROW D1 : ... .. E ... ... ... : ... .. 8 ... ... ... : ... .. . ... : ... .. C ... : ... .. . ... ... : ... .. . ... ... : ... .. 6 ... ... : ... .. 6 ... ...
ROW D2 : ... .. D ... ... ... : ... .. . ... ... ... : ... .. . ... : ... .. 6 ... : ... .. . ... ... : ... .. . ... ... : ... .. 5 ... ... : ... .. 4 ... ...
ROW D3 : ... .. A ... ... ... : ... .. . ... ... ... : ... .. . ... : ... .. 3 ... : ... .. . ... ... : ... .. . ... ... : ... .. . ... ... : ... .. . ... ...
ROW D4 : ... .. . ... ... ... : ... .. 4 ... ... ... : ... .. . ... : ... .. 2 ... : ... .. . ... ... : ... .. . ... ... : ... .. . ... ... : ... .. . ... ...
ROW D5 : ... .. . ... ... ... : ... .. 3 ... ... ... : ... .. . ... : ... .. 0 ... : ... .. . ... ... : ... .. . ... ... : ... .. 4 ... ... : ... .. . ... ...
ROW D6 : ... .. . ... ... ... : ... .. . ... ... ... : ... .. . ... : ... .. . ... : ... .. . ... ... : ... .. . ... ... : ... .. . ... ... : ... .. . ... ...
ROW D7 : ... .. . ... ... ... : ... .. . ... ... ... : --- .. . ... : ... .. . ... : ... .. . ... ... : ... .. . ... ... : ... .. 3 ... ... : --- .. . ... ...
ROW D8 : ... .. . ... ... ... : B-2 00 A ... ... ... : B-3 00 . ... : E-# 00 A ... : ... .. . ... ... : ... .. . ... ... : ... .. . ... ... : B-1 01 8 ... ...
ROW D9 : ... .. 2 ... ... ... : ... .. 8 ... ... ... : ... .. . ... : ... .. 8 ... : ... .. . ... ... : ... .. . ... ... : ... .. . ... ... : ... .. 6 ... ...
ROW DA : ... .. . ... ... ... : ... .. . ... ... ... : ... .. . ... : ... .. 4 ... : ... .. . ... ... : ... .. . ... ... : ... .. . ... ... : ... .. 4 ... ...
ROW DB : ... .. . ... ... ... : ... .. . ... ... ... : ... .. . ... : ... .. 2 ... : ... .. . ... ... : ... .. . ... ... : ... .. . ... ... : ... .. . ... ...
ROW DC : ... .. 1 ... ... ... : ... .. 4 ... ... ... : ... .. . ... : ... .. 1 ... : ... .. . ... ... : ... .. . ... ... : ... .. . ... ... : ... .. . ... ...
ROW DD : ... .. . ... ... ... : ... .. 3 ... ... ... : ... .. . ... : ... .. 0 ... : ... .. . ... ... : ... .. . ... ... : ... .. . ... ... : ... .. . ... ...
ROW DE : ... .. . ... ... ... : ... .. . ... ... ... : ... .. . ... : ... .. . ... : ... .. . ... ... : ... .. . ... ... : ... .. . ... ... : ... .. . ... ...
ROW DF : ... .. 0 ... ... ... : ... .. . ... ... ... : ... .. . ... : ... .. . ... : ... .. . ... ... : ... .. . ... ... : ... .. . ... ... : ... .. . ... ...
ROW E0 : B-3 00 F P80 ... ... : A#2 00 A ... ... ... : ... .. . P7D : 5-# 00 D ... : ... .. . ... ... : ... .. . ... ... : F#3 01 7 ... ... : ... .. . ... ...
ROW E1 : ... .. E ... ... ... : ... .. 8 ... ... ... : A#3 00 . P7C : ... .. . ... : ... .. . ... ... : ... .. . ... ... : ... .. 6 ... ... : ... .. . ... ...
ROW E2 : ... .. D ... ... ... : ... .. . ... ... ... : A-3 00 . P7B : 1-# 00 D ... : ... .. . ... ... : ... .. . ... ... : ... .. 5 ... ... : ... .. . ... ...
ROW E3 : ... .. A ... ... ... : ... .. . ... ... ... : G#3 00 . ... : F-# 00 6 ... : ... .. . ... ... : ... .. . ... ... : ... .. . ... ... : ... .. . ... ...
ROW E4 : ... .. . ... ... ... : ... .. 4 ... ... ... : G-3 00 . P7C : B-# 00 1 ... : ... .. . ... ... : ... .. . ... ... : ... .. . ... ... : ... .. . ... ...
ROW E5 : C-4 00 A P7D ... ... : ... .. 3 ... ... ... : F#3 00 . P7E : ... .. 0 ... : ... .. . ... ... : ... .. . ... ... : ... .. 4 ... ... : ... .. . ... ...
ROW E6 : ... .. . P86 ... ... : ... .. . ... ... ... : F-3 00 . P81 : ... .. . ... : ... .. . ... ... : ... .. . ... ... : ... .. . ... ... : ... .. . ... ...
ROW E7 : C#4 00 A P80 ... ... : ... .. . ... ... ... : --- .. . ... : ... .. . ... : ... .. . ... ... : ... .. . ... ... : ... .. 3 ... ... : --- .. . P86 ...
ROW E8 : ... .. . ... ... ... : D#2 00 A ... ... ... : D#3 00 . P80 : E-# 00 A ... : ... .. . ... ... : ... .. . ... ... : ... .. . ... ... : D#1 01 8 P80 ...
ROW E9 : ... .. . ... ... ... : ... .. 8 ... ... ... : ... .. . ... : ... .. 8 ... : ... .. . ... ... : ... .. . ... ... : ... .. . ... ... : ... .. 6 ... ...
ROW EA : ... .. . ... ... ... : ... .. . ... ... ... : ... .. . ... : ... .. 4 ... : ... .. . ... ... : ... .. . ... ... : ... .. 2 ... ... : ... .. 4 ... ...
ROW EB : ... .. . ... ... ... : ... .. . ... ... ... : ... .. . ... : ... .. 2 ... : ... .. . ... ... : ... .. . ... ... : ... .. . ... ... : ... .. . ... ...
ROW EC : ... .. . ... ... ... : ... .. 4 ... ... ... : ... .. . ... : ... .. 1 ... : ... .. . ... ... : ... .. . ... ... : ... .. . ... ... : ... .. . ... ...
ROW ED : ... .. . ... ... ... : ... .. 3 ... ... ... : ... .. . ... : ... .. 0 ... : ... .. . ... ... : ... .. . ... ... : ... .. . ... ... : ... .. . ... ...
ROW EE : ... .. . ... ... ... : ... .. . ... ... ... : ... .. . ... : ... .. . ... : ... .. . ... ... : ... .. . ... ... : ... .. . ... ... : ... .. . ... ...
ROW EF : ... .. . ... ... ... : ... .. . ... ... ... : ... .. . ... : ... .. . ... : ... .. . ... ... : ... .. . ... ... : ... .. . ... ... : ... .. . ... ...
ROW F0 : B-3 00 F ... ... ... : B-2 00 A ... ... ... : ... .. . ... : ... .. F ... : ... .. . ... ... : ... .. . ... ... : B-3 01 7 ... ... : ... .. . ... ...
ROW F1 : ... .. E ... ... ... : ... .. 8 ... ... ... : ... .. . ... : ... .. C ... : ... .. . ... ... : ... .. . ... ... : ... .. 6 ... ... : ... .. . ... ...
ROW F2 : ... .. D ... ... ... : ... .. . ... ... ... : ... .. . ... : ... .. 6 ... : ... .. . ... ... : ... .. . ... ... : ... .. 5 ... ... : ... .. . ... ...
ROW F3 : ... .. A ... ... ... : ... .. . ... ... ... : ... .. . ... : ... .. 3 ... : ... .. . ... ... : ... .. . ... ... : ... .. . ... ... : ... .. . ... ...
ROW F4 : ... .. . ... ... ... : ... .. 4 ... ... ... : ... .. . ... : ... .. 2 ... : ... .. . ... ... : ... .. . ... ... : ... .. . ... ... : ... .. . ... ...
ROW F5 : ... .. . ... ... ... : ... .. 3 ... ... ... : ... .. . ... : ... .. 0 ... : ... .. . ... ... : ... .. . ... ... : C-4 01 4 P7D ... : ... .. . ... ...
ROW F6 : ... .. . ... ... ... : ... .. . ... ... ... : ... .. . ... : ... .. . ... : ... .. . ... ... : ... .. . ... ... : ... .. . P86 ... : ... .. . ... ...
ROW F7 : ... .. . ... ... ... : ... .. . ... ... ... : --- .. . ... : ... .. . ... : ... .. . ... ... : ... .. . ... ... : C#4 01 3 P80 ... : --- .. . P81 ...
ROW F8 : A#3 00 F ... ... ... : G#2 00 A ... ... ... : F#3 00 . ... : D-# 00 A ... : ... .. . ... ... : ... .. . ... ... : ... .. . ... ... : F#1 01 8 P80 ...
ROW F9 : ... .. E ... ... ... : ... .. 8 ... ... ... : ... .. . ... : ... .. . ... : ... .. . ... ... : ... .. . ... ... : ... .. . ... ... : ... .. 6 ... ...
ROW FA : ... .. D ... ... ... : ... .. . ... ... ... : ... .. . ... : ... .. . ... : ... .. . ... ... : ... .. . ... ... : ... .. . ... ... : ... .. 4 ... ...
ROW FB : ... .. A ... ... ... : ... .. . ... ... ... : ... .. . ... : ... .. . ... : ... .. . ... ... : ... .. . ... ... : ... .. . ... ... : ... .. . ... ...
ROW FC : ... .. . ... ... ... : ... .. 4 ... ... ... : ... .. . ... : ... .. . ... : ... .. . ... ... : ... .. . ... ... : ... .. . ... ... : ... .. . ... ...
ROW FD : ... .. . ... ... ... : ... .. 3 ... ... ... : ... .. . ... : ... .. . ... : ... .. . ... ... : ... .. . ... ... : ... .. . ... ... : ... .. . ... ...
ROW FE : ... .. . ... ... ... : ... .. . ... ... ... : ... .. . ... : ... .. . ... : ... .. . ... ... : ... .. . ... ... : ... .. . ... ... : ... .. . ... ...
ROW FF : ... .. . ... ... ... : ... .. . ... ... ... : --- .. . ... : ... .. . ... : ... .. . ... ... : ... .. . ... ... : ... .. . ... ... : --- .. . P81 ...

PATTERN 15
ROW 00 : ... .. . ... ... ... : A#2 00 A ... ... ... : A#2 00 . P82 : 1-# 00 F ... : ... .. . ... ... : ... .. . ... ... : B-3 01 7 ... ... : G#0 01 8 P80 ...
ROW 01 : ... .. 2 ... ... ... : ... .. 8 ... ... ... : G#2 00 . P8B : ... .. C ... : ... .. . ... ... : ... .. . ... ... : ... .. 6 ... ... : ... .. 6 ... ...
ROW 02 : ... .. . ... ... ... : ... .. . ... ... ... : G-2 00 . P79 : ... .. 6 ... : ... .. . ... ... : ... .. . ... ... : ... .. 5 ... ... : ... .. 4 ... ...
ROW 03 : ... .. . ... ... ... : ... .. . ... ... ... : F-2 00 . P8D : ... .. 3 ... : ... .. . ... ... : ... .. . ... ... : ... .. . ... ... : ... .. . ... ...
ROW 04 : ... .. 1 ... ... ... : ... .. 4 ... ... ... : E-2 00 . P81 : ... .. 2 ... : ... .. . ... ... : ... .. . ... ... : ... .. . ... ... : ... .. . ... ...
ROW 05 : ... .. . ... ... ... : ... .. 3 ... ... ... : D#2 00 . P77 : ... .. 0 ... : ... .. . ... ... : ... .. . ... ... : ... .. 4 ... ... : ... .. . ... ...
ROW 06 : ... .. . ... ... ... : ... .. . ... ... ... : D-2 00 . P70 : ... .. . ... : ... .. . ... ... : ... .. . ... ... : ... .. . ... ... : ... .. . ... ...
ROW 07 : ... .. 0 ... ... ... : ... .. . ... ... ... : --- .. . ... : ... .. . ... : ... .. . ... ... : ... .. . ... ... : ... .. 3 ... ... : --- .. . P84 ...
ROW 08 : G#3 00 F P80 ... ... : F#2 00 A ... ... ... : G#2 00 . P80 : E-# 00 A ... : ... .. . ... ... : ... .. . ... ... : A#3 01 7 ... ... : G#0 01 8 P80 ...
ROW 09 : ... .. E ... ... ... : ... .. 8 ... ... ... : ... .. . ... : ... .. 8 ... : ... .. . ... ... : ... .. . ... ... : ... .. 6 ... ... : ... .. 6 ... ...
ROW 0A : ... .. D ... ... ... : ... .. . ... ... ... : ... .. . ... : ... .. 4 ... : ... .. . ... ... : ... .. . ... ... : ... .. 5 ... ... : ... .. 4 ... ...
ROW 0B : ... .. A ... ... ... : ... .. . ... ... ... : ... .. . ... : ... .. 2 ... : ... .. . ... ... : ... .. . ... ... : ... .. . ... ... : ... .. . ... ...
ROW 0C : ... .. . ... ... ... : ... .. 4 ... ... ... : ... .. . ... : ... .. 1 ... : ... .. . ... ... : ... .. . ... ... : ... .. . ... ... : ... .. . ... ...
ROW 0D : ... .. . ... ... ... : ... .. 3 ... ... ... : ... .. . ... : ... .. 0 ... : ... .. . ... ... : ... .. . ... ... : ... .. 4 ... ... : ... .. . ... ...
ROW 0E : ... .. . ... ... ... : ... .. . ... ... ... : ... .. . ... : ... .. . ... : ... .. . ... ... : ... .. . ... ... : ... .. . ... ... : ... .. . ... ...
ROW 0F : ... .. . ... ... ... : ... .. . ... ... ... : --- .. . ... : ... .. . ... : ... .. . ... ... : ... .. . ... ... : ... .. 3 ... ... : --- .. . P84 ...
ROW 10 : ... .. . ... ... ... : B-1 00 A ... ... ... : G#3 00 . ... : ... .. F ... : ... .. . ... ... : ... .. . ... ... : ... .. . ... ... : G#1 01 8 P80 ...
ROW 11 : ... .. . ... ... ... : ... .. 8 ... ... ... : ... .. . ... : ... .. C ... : ... .. . ... ... : ... .. . ... ... : ... .. . ... ... : ... .. 6 ... ...
ROW 12 : ... .. . ... ... ... : ... .. . ... ... ... : ... .. . ... : ... .. 6 ... : ... .. . ... ... : ... .. . ... ... : ... .. 2 ... ... : ... .. 4 ... ...
ROW 13 : ... .. . ... ... ... : ... .. . ... ... ... : ... .. . ... : ... .. 3 ... : ... .. . ... ... : ... .. . ... ... : ... .. . ... ... : ... .. . ... ...
ROW 14 : ... .. . ... ... ... : ... .. 4 ... ... ... : ... .. . ... : ... .. 2 ... : ... .. . ... ... : ... .. . ... ... : ... .. . ... ... : ... .. . ... ...
ROW 15 : ... .. . ... ... ... : ... .. 3 ... ... ... : ... .. . ... : ... .. 0 ... : ... .. . ... ... : ... .. . ... ... : ... .. . ... ... : ... .. . ... ...
ROW 16 : ... .. . ... ... ... : ... .. . ... ... ... : ... .. . ... : ... .. . ... : ... .. . ... ... : ... .. . ... ... : ... .. . ... ... : ... .. . ... ...
ROW 17 : ... .. . ... ... ... : ... .. . ... ... ... : --- .. . ... : ... .. . ... : ... .. . ... ... : ... .. . ... ... : ... .. . ... ... : --- .. . P7E ...
ROW 18 : ... .. . ... ... ... : A#2 00 A ... ... ... : B-3 00 . ... : 1-# 00 F ... : ... .. . ... ... : ... .. . ... ... : G#3 01 7 ... ... : B-1 01 8 P80 ...
ROW 19 : ... .. . ... ... ... : ... .. 8 ... ... ... : ... .. . ... : ... .. C ... : ... .. . ... ... : ... .. . ... ... : ... .. 6 ... ... : ... .. 6 ... ...
ROW 1A : ... .. . ... ... ... : ... .. . ... ... ... : ... .. . ... : ... .. 6 ... : ... .. . ... ... : ... .. . ... ... : ... .. 5 ... ... : ... .. 4 ... ...
ROW 1B : ... .. . ... ... ... : ... .. . ... ... ... : ... .. . ... : ... .. 3 ... : ... .. . ... ... : ... .. . ... ... : ... .. . ... ... : ... .. . ... ...
ROW 1C : ... .. . ... ... ... : ... .. 4 ... ... ... : ... .. . ... : ... .. 2 ... : ... .. . ... ... : ... .. . ... ... : ... .. . ... ... : ... .. . ... ...
ROW 1D : ... .. . ... ... ... : ... .. 3 ... ... ... : ... .. . ... : ... .. 0 ... : ... .. . ... ... : ... .. . ... ... : ... .. 4 ... ... : ... .. . ... ...
ROW 1E : ... .. . ... ... ... : ... .. . ... ... ... : ... .. . ... : ... .. . ... : ... .. . ... ... : ... .. . ... ... : ... .. . ... ... : ... .. . ... ...
ROW 1F : ... .. . ... ... ... : ... .. . ... ... ... : --- .. . ... : ... .. . ... : ... .. . ... ... : ... .. . ... ... : ... .. 3 ... ... : --- .. . P86 ...
ROW 20 : ... .. . ... ... ... : F#2 00 A ... ... ... : B-3 00 . P7D : 5-# 00 D ... : ... .. . ... ... : ... .. . ... ... : ... .. . ... ... : G#0 01 8 P80 ...
ROW 21 : ... .. 2 ... ... ... : ... .. 8 ... ... ... : A#3 00 . P7C : ... .. . ... : ... .. . ... ... : ... .. . ... ... : ... .. . ... ... : ... .. 6 ... ...
ROW 22 : ... .. . ... ... ... : ... .. . ... ... ... : A-3 00 . P7B : 1-# 00 D ... : ... .. . ... ... : ... .. . ... ... : ... .. . ... ... : ... .. 4 ... ...
ROW 23 : ... .. . ... ... ... : ... .. . ... ... ... : G#3 00 . ... : F-# 00 6 ... : ... .. . ... ... : ... .. . ... ... : ... .. . ... ... : ... .. . ... ...
ROW 24 : ... .. 1 ... ... ... : ... .. 4 ... ... ... : G-3 00 . P7C : B-# 00 1 ... : ... .. . ... ... : ... .. . ... ... : ... .. . ... ... : ... .. . ... ...
ROW 25 : ... .. . ... ... ... : ... .. 3 ... ... ... : F#3 00 . P7E : ... .. 0 ... : ... .. . ... ... : ... .. . ... ... : ... .. . ... ... : ... .. . ... ...
ROW 26 : ... .. . ... ... ... : ... .. . ... ... ... : F-3 00 . P81 : ... .. . ... : ... .. . ... ... : ... .. . ... ... : ... .. . ... ... : ... .. . ... ...
ROW 27 : ... .. 0 ... ... ... : ... .. . ... ... ... : --- .. . ... : ... .. . ... : ... .. . ... ... : ... .. . ... ... : ... .. . ... ... : --- .. . P84 ...
ROW 28 : ... .. . ... ... ... : B-1 00 A ... ... ... : G#2 00 . P80 : E-# 00 A ... : ... .. . ... ... : ... .. . ... ... : ... .. . ... ... : G#0 01 8 P80 ...
ROW 29 : ... .. . ... ... ... : ... .. 8 ... ... ... : ... .. . ... : ... .. 8 ... : ... .. . ... ... : ... .. . ... ... : ... .. . ... ... : ... .. 6 ... ...
ROW 2A : ... .. . ... ... ... : ... .. . ... ... ... : ... .. . ... : ... .. 4 ... : ... .. . ... ... : ... .. . ... ... : ... .. . ... ... : ... .. 4 ... ...
ROW 2B : ... .. . ... ... ... : ... .. . ... ... ... : ... .. . ... : ... .. 2 ... : ... .. . ... ... : ... .. . ... ... : ... .. . ... ... : ... .. . ... ...
ROW 2C : ... .. . ... ... ... : ... .. 4 ... ... ... : ... .. . ... : ... .. 1 ... : ... .. . ... ... : ... .. . ... ... : ... .. . ... ... : ... .. . ... ...
ROW 2D : ... .. . ... ... ... : ... .. 3 ... ... ... : ... .. . ... : ... .. 0 ... : ... .. . ... ... : ... .. . ... ... : ... .. . ... ... : ... .. . ... ...
ROW 2E : ... .. . ... ... ... : ... .. . ... ... ... : ... .. . ... : ... .. . ... : ... .. . ... ... : ... .. . ... ... : ... .. . ... ... : ... .. . ... ...
ROW 2F : ... .. . ... ... ... : ... .. . ... ... ... : --- .. . ... : ... .. . ... : ... .. . ... ... : ... .. . ... ... : ... .. . ... ... : --- .. . P84 ...
ROW 30 : D#3 00 F P80 ... ... : A#2 00 A ... ... ... : F#3 00 . ... : ... .. F ... : ... .. . ... ... : ... .. . ... ... : ... .. . ... ... : F#1 01 8 P80 ...
ROW 31 : ... .. E ... ... ... : ... .. 8 ... ... ... : ... .. . ... : ... .. C ... : ... .. . ... ... : ... .. . ... ... : ... .. . ... ... : ... .. 6 ... ...
ROW 32 : ... .. D ... ... ... : ... .. . ... ... ... : ... .. . ... : ... .. 6 ... : ... .. . ... ... : ... .. . ... ... : ... .. 2 ... ... : ... .. 4 ... ...
ROW 33 : ... .. A ... ... ... : ... .. . ... ... ... : ... .. . ... : ... .. 3 ... : ... .. . ... ... : ... .. . ... ... : ... .. . ... ... : ... .. . ... ...
ROW 34 : ... .. . ... ... ... : ... .. 4 ... ... ... : ... .. . ... : ... .. 2 ... : ... .. . ... ... : ... .. . ... ... : ... .. . ... ... : ... .. . ... ...
ROW 35 : ... .. . ... ... ... : ... .. 3 ... ... ... : ... .. . ... : ... .. 0 ... : ... .. . ... ... : ... .. . ... ... : ... .. . ... ... : ... .. . ... ...
ROW 36 : ... .. . ... ... ... : ... .. . ... ... ... : ... .. . ... : ... .. . ... : ... .. . ... ... : ... .. . ... ... : ... .. . ... ... : ... .. . ... ...
ROW 37 : ... .. . ... ... ... : ... .. . ... ... ... : --- .. . ... : ... .. . ... : ... .. . ... ... : ... .. . ... ... : ... .. . ... ... : --- .. . P81 ...
ROW 38 : F#3 00 F ... ... ... : F#2 00 A ... ... ... : F#4 00 . ... : F-# 00 F ... : ... .. . ... ... : ... .. . ... ... : ... .. . ... ... : F#2 01 8 P80 ...
ROW 39 : ... .. E ... ... ... : ... .. 8 ... ... ... : ... .. . ... : ... .. C ... : ... .. . ... ... : ... .. . ... ... : ... .. . ... ... : ... .. 6 ... ...
ROW 3A : ... .. D ... ... ... : ... .. . ... ... ... : ... .. . ... : ... .. 6 ... : ... .. . ... ... : ... .. . ... ... : ... .. . ... ... : ... .. 4 ... ...
ROW 3B : ... .. A ... ... ... : ... .. . ... ... ... : ... .. . ... : ... .. 3 ... : ... .. . ... ... : ... .. . ... ... : ... .. . ... ... : ... .. . ... ...
ROW 3C : ... .. . ... ... ... : ... .. 4 ... ... ... : ... .. . ... : ... .. F ... : ... .. . ... ... : ... .. . ... ... : ... .. . ... ... : ... .. . ... ...
ROW 3D : ... .. . ... ... ... : ... .. 3 ... ... ... : ... .. . ... : ... .. C ... : ... .. . ... ... : ... .. . ... ... : ... .. . ... ... : ... .. . ... ...
ROW 3E : ... .. . ... ... ... : ... .. . ... ... ... : ... .. . ... : ... .. 6 ... : ... .. . ... ... : ... .. . ... ... : ... .. . ... ... : ... .. . ... ...
ROW 3F : ... .. . ... ... ... : ... .. . ... ... ... : --- .. . ... : ... .. 3 ... : ... .. . ... ... : ... .. . ... ... : ... .. 1 ... ... : --- .. . P84 ...
ROW 40 : E-3 00 F ... ... ... : G#2 00 A ... ... ... : A#2 00 . P82 : 1-# 00 F ... : ... .. . ... ... : ... .. . ... ... : D#3 01 7 ... ... : A-0 01 8 P80 ...
ROW 41 : ... .. E ... ... ... : ... .. 8 ... ... ... : G#2 00 . P8B : ... .. C ... : ... .. . ... ... : ... .. . ... ... : ... .. 6 ... ... : ... .. 6 ... ...
ROW 42 : ... .. D ... ... ... : ... .. . ... ... ... : G-2 00 . P79 : ... .. 6 ... : ... .. . ... ... : ... .. . ... ... : ... .. 5 ... ... : ... .. 4 ... ...
ROW 43 : ... .. A ... ... ... : ... .. . ... ... ... : F-2 00 . P8D : ... .. 3 ... : ... .. . ... ... : ... .. . ... ... : ... .. . ... ... : ... .. . ... ...
ROW 44 : ... .. . ... ... ... : ... .. 4 ... ... ... : E-2 00 . P81 : ... .. 2 ... : ... .. . ... ... : ... .. . ... ... : ... .. . ... ... : ... .. . ... ...
ROW 45 : ... .. . ... ... ... : ... .. 3 ... ... ... : D#2 00 . P77 : ... .. 0 ... : ... .. . ... ... : ... .. . ... ... : ... .. 4 ... ... : ... .. . ... ...
ROW 46 : ... .. . ... ... ... : ... .. . ... ... ... : D-2 00 . P70 : ... .. . ... : ... .. . ... ... : ... .. . ... ... : ... .. . ... ... : ... .. . ... ...
ROW 47 : ... .. . ... ... ... : ... .. . ... ... ... : --- .. . ... : ... .. . ... : ... .. . ... ... : ... .. . ... ... : ... .. 3 ... ... : --- .. . ... ...
ROW 48 : ... .. . ... ... ... : E-2 00 A ... ... ... : A-2 00 . P80 : E-# 00 A ... : ... .. . ... ... : ... .. . ... ... : F#3 01 7 ... ... : A-0 01 8 ... ...
ROW 49 : ... .. . ... ... ... : ... .. 8 ... ... ... : ... .. . ... : ... .. 8 ... : ... .. . ... ... : ... .. . ... ... : ... .. 6 ... ... : ... .. 6 ... ...
ROW 4A : ... .. . ... ... ... : ... .. . ... ... ... : ... .. . ... : ... .. 4 ... : ... .. . ... ... : ... .. . ... ... : ... .. 5 ... ... : ... .. 4 ... ...
ROW 4B : ... .. . ... ... ... : ... .. . ... ... ... : ... .. . ... : ... .. 2 ... : ... .. . ... ... : ... .. . ... ... : ... .. . ... ... : ... .. . ... ...
ROW 4C : ... .. . ... ... ... : ... .. 4 ... ... ... : ... .. . ... : ... .. 1 ... : ... .. . ... ... : ... .. . ... ... : ... .. . ... ... : ... .. . ... ...
ROW 4D : ... .. . ... ... ... : ... .. 3 ... ... ... : ... .. . ... : ... .. 0 ... : ... .. . ... ... : ... .. . ... ... : ... .. 4 ... ... : ... .. . ... ...
ROW 4E : ... .. . ... ... ... : ... .. . ... ... ... : ... .. . ... : ... .. . ... : ... .. . ... ... : ... .. . ... ... : ... .. . ... ... : ... .. . ... ...
ROW 4F : ... .. . ... ... ... : ... .. . ... ... ... : --- .. . ... : ... .. . ... : ... .. . ... ... : ... .. . ... ... : ... .. 3 ... ... : --- .. . ... ...
ROW 50 : D#3 00 F ... ... ... : A-1 00 A ... ... ... : G#3 00 . ... : 1-# 00 F ... : ... .. . ... ... : ... .. . ... ... : E-3 01 7 ... ... : G#1 01 8 ... ...
ROW 51 : ... .. E ... ... ... : ... .. 8 ... ... ... : ... .. . ... : ... .. C ... : ... .. . ... ... : ... .. . ... ... : ... .. 6 ... ... : ... .. 6 ... ...
ROW 52 : ... .. D ... ... ... : ... .. . ... ... ... : ... .. . ... : ... .. 6 ... : ... .. . ... ... : ... .. . ... ... : ... .. 5 ... ... : ... .. 4 ... ...
ROW 53 : ... .. A ... ... ... : ... .. . ... ... ... : ... .. . ... : ... .. 3 ... : ... .. . ... ... : ... .. . ... ... : ... .. . ... ... : ... .. . ... ...
ROW 54 : ... .. . ... ... ... : ... .. 4 ... ... ... : ... .. . ... : ... .. 2 ... : ... .. . ... ... : ... .. . ... ... : ... .. . ... ... : ... .. . ... ...
ROW 55 : ... .. . ... ... ... : ... .. 3 ... ... ... : ... .. . ... : ... .. 0 ... : ... .. . ... ... : ... .. . ... ... : ... .. 4 ... ... : ... .. . ... ...
ROW 56 : ... .. . ... ... ... : ... .. . ... ... ... : ... .. . ... : ... .. . ... : ... .. . ... ... : ... .. . ... ... : ... .. . ... ... : ... .. . ... ...
ROW 57 : ... .. . ... ... ... : ... .. . ... ... ... : --- .. . ... : ... .. . ... : ... .. . ... ... : ... .. . ... ... : ... .. 3 ... ... : --- .. . P7E ...
ROW 58 : E-3 00 F ... ... ... : G#2 00 A ... ... ... : E-4 00 . ... : E-# 00 A ... : ... .. . ... ... : ... .. . ... ... : ... .. . ... ... : E-2 01 8 P80 ...
ROW 59 : ... .. E ... ... ... : ... .. 8 ... ... ... : ... .. . ... : ... .. 8 ... : ... .. . ... ... : ... .. . ... ... : ... .. . ... ... : ... .. 6 ... ...
ROW 5A : ... .. D ... ... ... : ... .. . ... ... ... : ... .. . ... : ... .. 4 ... : ... .. . ... ... : ... .. . ... ... : ... .. . ... ... : ... .. 4 ... ...
ROW 5B : ... .. A ... ... ... : ... .. . ... ... ... : ... .. . ... : ... .. 2 ... : ... .. . ... ... : ... .. . ... ... : ... .. . ... ... : ... .. . ... ...
ROW 5C : ... .. . ... ... ... : ... .. 4 ... ... ... : ... .. . ... : ... .. 1 ... : ... .. . ... ... : ... .. . ... ... : ... .. . ... ... : ... .. . ... ...
ROW 5D : ... .. . ... ... ... : ... .. 3 ... ... ... : ... .. . ... : ... .. 0 ... : ... .. . ... ... : ... .. . ... ... : ... .. . ... ... : ... .. . ... ...
ROW 5E : ... .. . ... ... ... : ... .. . ... ... ... : ... .. . ... : ... .. . ... : ... .. . ... ... : ... .. . ... ... : ... .. . ... ... : ... .. . ... ...
ROW 5F : ... .. . ... ... ... : ... .. . ... ... ... : ... .. . ... : ... .. . ... : ... .. . ... ... : ... .. . ... ... : ... .. . ... ... : ... .. . ... ...
ROW 60 : ... .. . ... ... ... : E-2 00 A ... ... ... : B-3 00 . P7D : 5-# 00 D ... : ... .. . ... ... : ... .. . ... ... : D#3 01 7 ... ... : ... .. . ... ...
ROW 61 : ... .. . ... ... ... : ... .. 8 ... ... ... : A#3 00 . P7C : ... .. . ... : ... .. . ... ... : ... .. . ... ... : ... .. 6 ... ... : ... .. . ... ...
ROW 62 : ... .. . ... ... ... : ... .. . ... ... ... : A-3 00 . P7B : 1-# 00 D ... : ... .. . ... ... : ... .. . ... ... : ... .. 5 ... ... : ... .. . ... ...
ROW 63 : ... .. . ... ... ... : ... .. . ... ... ... : G#3 00 . ... : F-# 00 6 ... : ... .. . ... ... : ... .. . ... ... : ... .. . ... ... : ... .. . ... ...
ROW 64 : ... .. . ... ... ... : ... .. 4 ... ... ... : G-3 00 . P7C : B-# 00 1 ... : ... .. . ... ... : ... .. . ... ... : ... .. . ... ... : ... .. . ... ...
ROW 65 : ... .. . ... ... ... : ... .. 3 ... ... ... : F#3 00 . P7E : ... .. 0 ... : ... .. . ... ... : ... .. . ... ... : ... .. 4 ... ... : ... .. . ... ...
ROW 66 : ... .. . ... ... ... : ... .. . ... ... ... : F-3 00 . P81 : ... .. . ... : ... .. . ... ... : ... .. . ... ... : ... .. . ... ... : ... .. . ... ...
ROW 67 : ... .. . ... ... ... : ... .. . ... ... ... : --- .. . ... : ... .. . ... : ... .. . ... ... : ... .. . ... ... : ... .. 3 ... ... : --- .. . P89 ...
ROW 68 : ... .. . ... ... ... : A-1 00 A ... ... ... : B-3 00 . P80 : E-# 00 A ... : ... .. . ... ... : ... .. . ... ... : E-3 01 7 ... ... : B-1 01 8 P80 ...
ROW 69 : ... .. . ... ... ... : ... .. 8 ... ... ... : ... .. . ... : ... .. 8 ... : ... .. . ... ... : ... .. . ... ... : ... .. 6 ... ... : ... .. 6 ... ...
ROW 6A : ... .. . ... ... ... : ... .. . ... ... ... : ... .. . ... : ... .. 4 ... : ... .. . ... ... : ... .. . ... ... : ... .. 5 ... ... : ... .. 4 ... ...
ROW 6B : ... .. . ... ... ... : ... .. . ... ... ... : ... .. . ... : ... .. 2 ... : ... .. . ... ... : ... .. . ... ... : ... .. . ... ... : ... .. . ... ...
ROW 6C : ... .. . ... ... ... : ... .. 4 ... ... ... : ... .. . ... : ... .. 1 ... : ... .. . ... ... : ... .. . ... ... : ... .. . ... ... : ... .. . ... ...
ROW 6D : ... .. . ... ... ... : ... .. 3 ... ... ... : ... .. . ... : ... .. 0 ... : ... .. . ... ... : ... .. . ... ... : ... .. 4 ... ... : ... .. . ... ...
ROW 6E : ... .. . ... ... ... : ... .. . ... ... ... : ... .. . ... : ... .. . ... : ... .. . ... ... : ... .. . ... ... : ... .. . ... ... : ... .. . ... ...
ROW 6F : ... .. . ... ... ... : ... .. . ... ... ... : ... .. . ... : ... .. . ... : ... .. . ... ... : ... .. . ... ... : ... .. 3 ... ... : ... .. . ... ...
ROW 70 : ... .. . ... ... ... : G#2 00 A ... ... ... : ... .. . ... : ... .. F ... : ... .. . ... ... : ... .. . ... ... : ... .. . ... ... : ... .. . ... ...
ROW 71 : ... .. . ... ... ... : ... .. 8 ... ... ... : ... .. . ... : ... .. C ... : ... .. . ... ... : ... .. . ... ... : ... .. . ... ... : ... .. . ... ...
ROW 72 : ... .. . ... ... ... : ... .. . ... ... ... : ... .. . ... : ... .. 6 ... : ... .. . ... ... : ... .. . ... ... : ... .. . ... ... : ... .. . ... ...
ROW 73 : ... .. . ... ... ... : ... .. . ... ... ... : ... .. . ... : ... .. 3 ... : ... .. . ... ... : ... .. . ... ... : ... .. . ... ... : ... .. . ... ...
ROW 74 : ... .. . ... ... ... : ... .. 4 ... ... ... : ... .. . ... : ... .. 2 ... : ... .. . ... ... : ... .. . ... ... : ... .. . ... ... : ... .. . ... ...
ROW 75 : ... .. . ... ... ... : ... .. 3 ... ... ... : ... .. . ... : ... .. 0 ... : ... .. . ... ... : ... .. . ... ... : ... .. . ... ... : ... .. . ... ...
ROW 76 : ... .. . ... ... ... : ... .. . ... ... ... : ... .. . ... : ... .. . ... : ... .. . ... ... : ... .. . ... ... : ... .. . ... ... : ... .. . ... ...
ROW 77 : ... .. . ... ... ... : ... .. . ... ... ... : --- .. . ... : ... .. . ... : ... .. . ... ... : ... .. . ... ... : ... .. . ... ... : --- .. . P86 ...
ROW 78 : ... .. . ... ... ... : E-2 00 A ... ... ... : C#4 00 . ... : D-# 00 A ... : ... .. . ... ... : ... .. . ... ... : ... .. . ... ... : C#2 01 8 P80 ...
ROW 79 : ... .. . ... ... ... : ... .. 8 ... ... ... : ... .. . ... : ... .. . ... : ... .. . ... ... : ... .. . ... ... : ... .. . ... ... : ... .. 6 ... ...
ROW 7A : ... .. . ... ... ... : ... .. . ... ... ... : ... .. . ... : ... .. . ... : ... .. . ... ... : ... .. . ... ... : ... .. . ... ... : ... .. 4 ... ...
ROW 7B : ... .. . ... ... ... : ... .. . ... ... ... : ... .. . ... : ... .. . ... : ... .. . ... ... : ... .. . ... ... : ... .. . ... ... : ... .. . ... ...
ROW 7C : ... .. . ... ... ... : ... .. 4 ... ... ... : ... .. . ... : ... .. . ... : ... .. . ... ... : ... .. . ... ... : ... .. . ... ... : ... .. . ... ...
ROW 7D : ... .. . ... ... ... : ... .. 3 ... ... ... : ... .. . ... : ... .. . ... : ... .. . ... ... : ... .. . ... ... : ... .. . ... ... : ... .. . ... ...
ROW 7E : ... .. . ... ... ... : ... .. . ... ... ... : ... .. . ... : ... .. . ... : ... .. . ... ... : ... .. . ... ... : ... .. . ... ... : ... .. . ... ...
ROW 7F : ... .. . ... ... ... : ... .. . ... ... ... : --- .. . ... : ... .. . ... : ... .. . ... ... : ... .. . ... ... : ... .. . ... ... : --- .. . ... ...
ROW 80 : ... .. . ... ... ... : C#3 00 A ... ... ... : A#2 00 . P82 : 1-# 00 F ... : ... .. . ... ... : ... .. . ... ... : ... .. . ... ... : F#0 01 8 ... ...
ROW 81 : ... .. 2 ... ... ... : ... .. 8 ... ... ... : G#2 00 . P8B : ... .. C ... : ... .. . ... ... : ... .. . ... ... : ... .. . ... ... : ... .. 6 ... ...
ROW 82 : ... .. . ... ... ... : ... .. . ... ... ... : G-2 00 . P79 : ... .. 6 ... : ... .. . ... ... : ... .. . ... ... : ... .. . ... ... : ... .. 4 ... ...
ROW 83 : ... .. . ... ... ... : ... .. . ... ... ... : F-2 00 . P8D : ... .. 3 ... : ... .. . ... ... : ... .. . ... ... : ... .. . ... ... : ... .. . ... ...
ROW 84 : ... .. 1 ... ... ... : ... .. 4 ... ... ... : E-2 00 . P81 : ... .. 2 ... : ... .. . ... ... : ... .. . ... ... : ... .. . ... ... : ... .. . ... ...
ROW 85 : ... .. . ... ... ... : ... .. 3 ... ... ... : D#2 00 . P77 : ... .. 0 ... : ... .. . ... ... : ... .. . ... ... : ... .. . ... ... : ... .. . ... ...
ROW 86 : ... .. . ... ... ... : ... .. . ... ... ... : D-2 00 . P70 : ... .. . ... : ... .. . ... ... : ... .. . ... ... : ... .. . ... ... : ... .. . ... ...
ROW 87 : ... .. 0 ... ... ... : ... .. . ... ... ... : --- .. . ... : ... .. . ... : ... .. . ... ... : ... .. . ... ... : ... .. . ... ... : --- .. . P81 ...
ROW 88 : ... .. . ... ... ... : G#2 00 A ... ... ... : F#2 00 . P80 : E-# 00 A ... : ... .. . ... ... : ... .. . ... ... : ... .. . ... ... : F#0 01 8 P80 ...
ROW 89 : ... .. . ... ... ... : ... .. 8 ... ... ... : ... .. . ... : ... .. 8 ... : ... .. . ... ... : ... .. . ... ... : ... .. . ... ... : ... .. 6 ... ...
ROW 8A : ... .. . ... ... ... : ... .. . ... ... ... : ... .. . ... : ... .. 4 ... : ... .. . ... ... : ... .. . ... ... : ... .. . ... ... : ... .. 4 ... ...
ROW 8B : ... .. . ... ... ... : ... .. . ... ... ... : ... .. . ... : ... .. 2 ... : ... .. . ... ... : ... .. . ... ... : ... .. . ... ... : ... .. . ... ...
ROW 8C : ... .. . ... ... ... : ... .. 4 ... ... ... : ... .. . ... : ... .. 1 ... : ... .. . ... ... : ... .. . ... ... : ... .. . ... ... : ... .. . ... ...
ROW 8D : ... .. . ... ... ... : ... .. 3 ... ... ... : ... .. . ... : ... .. 0 ... : ... .. . ... ... : ... .. . ... ... : ... .. . ... ... : ... .. . ... ...
ROW 8E : ... .. . ... ... ... : ... .. . ... ... ... : ... .. . ... : ... .. . ... : ... .. . ... ... : ... .. . ... ... : ... .. . ... ... : ... .. . ... ...
ROW 8F : ... .. . ... ... ... : ... .. . ... ... ... : --- .. . ... : ... .. . ... : ... .. . ... ... : ... .. . ... ... : ... .. . ... ... : --- .. . P81 ...
ROW 90 : C#3 00 F P80 ... ... : A-1 00 A ... ... ... : C#3 00 . ... : ... .. F ... : ... .. . ... ... : ... .. . ... ... : ... .. . ... ... : C#1 01 8 P80 ...
ROW 91 : ... .. E ... ... ... : ... .. 8 ... ... ... : ... .. . ... : ... .. C ... : ... .. . ... ... : ... .. . ... ... : ... .. . ... ... : ... .. 6 ... ...
ROW 92 : ... .. D ... ... ... : ... .. . ... ... ... : ... .. . ... : ... .. 6 ... : ... .. . ... ... : ... .. . ... ... : ... .. 2 ... ... : ... .. 4 ... ...
ROW 93 : ... .. A ... ... ... : ... .. . ... ... ... : ... .. . ... : ... .. 3 ... : ... .. . ... ... : ... .. . ... ... : ... .. . ... ... : ... .. . ... ...
ROW 94 : ... .. . ... ... ... : ... .. 4 ... ... ... : ... .. . ... : ... .. 2 ... : ... .. . ... ... : ... .. . ... ... : ... .. . ... ... : ... .. . ... ...
ROW 95 : ... .. . ... ... ... : ... .. 3 ... ... ... : ... .. . ... : ... .. 0 ... : ... .. . ... ... : ... .. . ... ... : ... .. . ... ... : ... .. . ... ...
ROW 96 : ... .. . ... ... ... : ... .. . ... ... ... : ... .. . ... : ... .. . ... : ... .. . ... ... : ... .. . ... ... : ... .. . ... ... : ... .. . ... ...
ROW 97 : ... .. . ... ... ... : ... .. . ... ... ... : --- .. . ... : ... .. . ... : ... .. . ... ... : ... .. . ... ... : ... .. . ... ... : --- .. . P81 ...
ROW 98 : ... .. . ... ... ... : G#2 00 A ... ... ... : B-3 00 . ... : 1-# 00 F ... : ... .. . ... ... : ... .. . ... ... : ... .. . ... ... : B-1 01 8 P80 ...
ROW 99 : ... .. . ... ... ... : ... .. 8 ... ... ... : ... .. . ... : ... .. C ... : ... .. . ... ... : ... .. . ... ... : ... .. . ... ... : ... .. 6 ... ...
ROW 9A : ... .. . ... ... ... : ... .. . ... ... ... : ... .. . ... : ... .. 6 ... : ... .. . ... ... : ... .. . ... ... : ... .. . ... ... : ... .. 4 ... ...
ROW 9B : ... .. . ... ... ... : ... .. . ... ... ... : ... .. . ... : ... .. 3 ... : ... .. . ... ... : ... .. . ... ... : ... .. . ... ... : ... .. . ... ...
ROW 9C : ... .. . ... ... ... : ... .. 4 ... ... ... : ... .. . ... : ... .. 2 ... : ... .. . ... ... : ... .. . ... ... : ... .. . ... ... : ... .. . ... ...
ROW 9D : ... .. . ... ... ... : ... .. 3 ... ... ... : ... .. . ... : ... .. 0 ... : ... .. . ... ... : ... .. . ... ... : ... .. . ... ... : ... .. . ... ...
ROW 9E : ... .. . ... ... ... : ... .. . ... ... ... : ... .. . ... : ... .. . ... : ... .. . ... ... : ... .. . ... ... : ... .. . ... ... : ... .. . ... ...
ROW 9F : ... .. . ... ... ... : ... .. . ... ... ... : ... .. . ... : ... .. . ... : ... .. . ... ... : ... .. . ... ... : ... .. 1 ... ... : ... .. . ... ...
ROW A0 : E-3 00 F ... ... ... : E-2 00 A ... ... ... : ... .. . P7D : 5-# 00 D ... : ... .. . ... ... : ... .. . ... ... : C#3 01 7 ... ... : ... .. . ... ...
ROW A1 : ... .. E ... ... ... : ... .. 8 ... ... ... : A#3 00 . P7C : ... .. . ... : ... .. . ... ... : ... .. . ... ... : ... .. 6 ... ... : ... .. . ... ...
ROW A2 : ... .. D ... ... ... : ... .. . ... ... ... : A-3 00 . P7B : 1-# 00 D ... : ... .. . ... ... : ... .. . ... ... : ... .. 5 ... ... : ... .. . ... ...
ROW A3 : ... .. A ... ... ... : ... .. . ... ... ... : G#3 00 . ... : F-# 00 6 ... : ... .. . ... ... : ... .. . ... ... : ... .. . ... ... : ... .. . ... ...
ROW A4 : ... .. . ... ... ... : ... .. 4 ... ... ... : G-3 00 . P7C : B-# 00 1 ... : ... .. . ... ... : ... .. . ... ... : ... .. . ... ... : ... .. . ... ...
ROW A5 : ... .. . ... ... ... : ... .. 3 ... ... ... : F#3 00 . P7E : ... .. 0 ... : ... .. . ... ... : ... .. . ... ... : ... .. 4 ... ... : ... .. . ... ...
ROW A6 : ... .. . ... ... ... : ... .. . ... ... ... : F-3 00 . P81 : ... .. . ... : ... .. . ... ... : ... .. . ... ... : ... .. . ... ... : ... .. . ... ...
ROW A7 : ... .. . ... ... ... : ... .. . ... ... ... : --- .. . ... : ... .. . ... : ... .. . ... ... : ... .. . ... ... : ... .. 3 ... ... : --- .. . P86 ...
ROW A8 : ... .. . ... ... ... : A-1 00 A ... ... ... : F#2 00 . P80 : E-# 00 A ... : ... .. . ... ... : ... .. . ... ... : ... .. . ... ... : F#0 01 8 P80 ...
ROW A9 : ... .. . ... ... ... : ... .. 8 ... ... ... : ... .. . ... : ... .. 8 ... : ... .. . ... ... : ... .. . ... ... : ... .. . ... ... : ... .. 6 ... ...
ROW AA : ... .. . ... ... ... : ... .. . ... ... ... : ... .. . ... : ... .. 4 ... : ... .. . ... ... : ... .. . ... ... : ... .. . ... ... : ... .. 4 ... ...
ROW AB : ... .. . ... ... ... : ... .. . ... ... ... : ... .. . ... : ... .. 2 ... : ... .. . ... ... : ... .. . ... ... : ... .. . ... ... : ... .. . ... ...
ROW AC : ... .. . ... ... ... : ... .. 4 ... ... ... : ... .. . ... : ... .. 1 ... : ... .. . ... ... : ... .. . ... ... : ... .. . ... ... : ... .. . ... ...
ROW AD : ... .. . ... ... ... : ... .. 3 ... ... ... : ... .. . ... : ... .. 0 ... : ... .. . ... ... : ... .. . ... ... : ... .. . ... ... : ... .. . ... ...
ROW AE : ... .. . ... ... ... : ... .. . ... ... ... : ... .. . ... : ... .. . ... : ... .. . ... ... : ... .. . ... ... : ... .. . ... ... : ... .. . ... ...
ROW AF : ... .. . ... ... ... : ... .. . ... ... ... : ... .. . ... : ... .. . ... : ... .. . ... ... : ... .. . ... ... : ... .. . ... ... : ... .. . ... ...
ROW B0 : G#3 00 F ... ... ... : G#2 00 A ... ... ... : F#3 00 . ... : ... .. F ... : ... .. . ... ... : ... .. . ... ... : E-3 01 7 ... ... : F#1 01 8 ... ...
ROW B1 : ... .. E ... ... ... : ... .. 8 ... ... ... : ... .. . ... : ... .. C ... : ... .. . ... ... : ... .. . ... ... : ... .. 6 ... ... : ... .. 6 ... ...
ROW B2 : ... .. D ... ... ... : ... .. . ... ... ... : ... .. . ... : ... .. 6 ... : ... .. . ... ... : ... .. . ... ... : ... .. 5 ... ... : ... .. 4 ... ...
ROW B3 : ... .. A ... ... ... : ... .. . ... ... ... : ... .. . ... : ... .. 3 ... : ... .. . ... ... : ... .. . ... ... : ... .. . ... ... : ... .. . ... ...
ROW B4 : ... .. . ... ... ... : ... .. 4 ... ... ... : ... .. . ... : ... .. 2 ... : ... .. . ... ... : ... .. . ... ... : ... .. . ... ... : ... .. . ... ...
ROW B5 : ... .. . ... ... ... : ... .. 3 ... ... ... : ... .. . ... : ... .. 0 ... : ... .. . ... ... : ... .. . ... ... : ... .. 4 ... ... : ... .. . ... ...
ROW B6 : ... .. . ... ... ... : ... .. . ... ... ... : ... .. . ... : ... .. . ... : ... .. . ... ... : ... .. . ... ... : ... .. . ... ... : ... .. . ... ...
ROW B7 : ... .. . ... ... ... : ... .. . ... ... ... : --- .. . ... : ... .. . ... : ... .. . ... ... : ... .. . ... ... : ... .. 3 ... ... : --- .. . P81 ...
ROW B8 : ... .. . ... ... ... : E-2 00 A ... ... ... : D#3 00 . ... : F-# 00 F ... : ... .. . ... ... : ... .. . ... ... : ... .. . ... ... : D#1 01 8 P80 ...
ROW B9 : ... .. . ... ... ... : ... .. 8 ... ... ... : ... .. . ... : ... .. C ... : ... .. . ... ... : ... .. . ... ... : ... .. . ... ... : ... .. 6 ... ...
ROW BA : ... .. . ... ... ... : ... .. . ... ... ... : ... .. . ... : ... .. 6 ... : ... .. . ... ... : ... .. . ... ... : ... .. . ... ... : ... .. 4 ... ...
ROW BB : ... .. . ... ... ... : ... .. . ... ... ... : ... .. . ... : ... .. 3 ... : ... .. . ... ... : ... .. . ... ... : ... .. . ... ... : ... .. . ... ...
ROW BC : ... .. . ... ... ... : ... .. 4 ... ... ... : ... .. . ... : ... .. F ... : ... .. . ... ... : ... .. . ... ... : ... .. . ... ... : ... .. . ... ...
ROW BD : ... .. . ... ... ... : ... .. 3 ... ... ... : ... .. . ... : ... .. C ... : ... .. . ... ... : ... .. . ... ... : ... .. . ... ... : ... .. . ... ...
ROW BE : ... .. . ... ... ... : ... .. . ... ... ... : ... .. . ... : ... .. 6 ... : ... .. . ... ... : ... .. . ... ... : ... .. . ... ... : ... .. . ... ...
ROW BF : ... .. . ... ... ... : ... .. . ... ... ... : --- .. . ... : ... .. 3 ... : ... .. . ... ... : ... .. . ... ... : ... .. . ... ... : --- .. . P81 ...
ROW C0 : E-3 00 F ... ... ... : F#2 00 A ... ... ... : A#2 00 . P82 : 1-# 00 F ... : ... .. . ... ... : ... .. . ... ... : G#3 01 7 ... ... : B-0 01 8 P80 ...
ROW C1 : ... .. E ... ... ... : ... .. 8 ... ... ... : G#2 00 . P8B : ... .. C ... : ... .. . ... ... : ... .. . ... ... : ... .. 6 ... ... : ... .. 6 ... ...
ROW C2 : ... .. D ... ... ... : ... .. . ... ... ... : G-2 00 . P79 : ... .. 6 ... : ... .. . ... ... : ... .. . ... ... : ... .. 5 ... ... : ... .. 4 ... ...
ROW C3 : ... .. A ... ... ... : ... .. . ... ... ... : F-2 00 . P8D : ... .. 3 ... : ... .. . ... ... : ... .. . ... ... : ... .. . ... ... : ... .. . ... ...
ROW C4 : ... .. . ... ... ... : ... .. 4 ... ... ... : E-2 00 . P81 : ... .. 2 ... : ... .. . ... ... : ... .. . ... ... : ... .. . ... ... : ... .. . ... ...
ROW C5 : ... .. . P89 ... ... : ... .. 3 ... ... ... : D#2 00 . P77 : ... .. 0 ... : ... .. . ... ... : ... .. . ... ... : ... .. 4 ... ... : ... .. . ... ...
ROW C6 : F-3 00 A P7F ... ... : ... .. . ... ... ... : D-2 00 . P70 : ... .. . ... : ... .. . ... ... : ... .. . ... ... : ... .. . ... ... : ... .. . ... ...
ROW C7 : ... .. . P88 ... ... : ... .. . ... ... ... : --- .. . ... : ... .. . ... : ... .. . ... ... : ... .. . ... ... : ... .. 3 ... ... : --- .. . ... ...
ROW C8 : F#3 00 A P7F ... ... : B-1 00 A ... ... ... : B-2 00 . P80 : E-# 00 A ... : ... .. . ... ... : ... .. . ... ... : ... .. . ... ... : B-0 01 8 ... ...
ROW C9 : ... .. . P80 ... ... : ... .. 8 ... ... ... : ... .. . ... : ... .. 8 ... : ... .. . ... ... : ... .. . ... ... : ... .. . ... ... : ... .. 6 ... ...
ROW CA : ... .. . ... ... ... : ... .. . ... ... ... : ... .. . ... : ... .. 4 ... : ... .. . ... ... : ... .. . ... ... : ... .. . ... ... : ... .. 4 ... ...
ROW CB : ... .. . ... ... ... : ... .. . ... ... ... : ... .. . ... : ... .. 2 ... : ... .. . ... ... : ... .. . ... ... : ... .. . ... ... : ... .. . ... ...
ROW CC : ... .. . ... ... ... : ... .. 4 ... ... ... : ... .. . ... : ... .. 1 ... : ... .. . ... ... : ... .. . ... ... : ... .. . ... ... : ... .. . ... ...
ROW CD : ... .. . ... ... ... : ... .. 3 ... ... ... : ... .. . ... : ... .. 0 ... : ... .. . ... ... : ... .. . ... ... : ... .. . ... ... : ... .. . ... ...
ROW CE : ... .. . ... ... ... : ... .. . ... ... ... : ... .. . ... : ... .. . ... : ... .. . ... ... : ... .. . ... ... : ... .. . ... ... : ... .. . ... ...
ROW CF : ... .. . ... ... ... : ... .. . ... ... ... : --- .. . ... : ... .. . ... : ... .. . ... ... : ... .. . ... ... : ... .. . ... ... : --- .. . ... ...
ROW D0 : ... .. . ... ... ... : F#1 00 A ... ... ... : F#3 00 . ... : 1-# 00 F ... : ... .. . ... ... : ... .. . ... ... : E-3 01 7 ... ... : F#1 01 8 ... ...
ROW D1 : ... .. . ... ... ... : ... .. 8 ... ... ... : ... .. . ... : ... .. C ... : ... .. . ... ... : ... .. . ... ... : ... .. 6 ... ... : ... .. 6 ... ...
ROW D2 : ... .. . ... ... ... : ... .. . ... ... ... : ... .. . ... : ... .. 6 ... : ... .. . ... ... : ... .. . ... ... : ... .. 5 ... ... : ... .. 4 ... ...
ROW D3 : ... .. . ... ... ... : ... .. . ... ... ... : ... .. . ... : ... .. 3 ... : ... .. . ... ... : ... .. . ... ... : ... .. . ... ... : ... .. . ... ...
ROW D4 : ... .. . ... ... ... : ... .. 4 ... ... ... : ... .. . ... : ... .. 2 ... : ... .. . ... ... : ... .. . ... ... : ... .. . ... ... : ... .. . ... ...
ROW D5 : ... .. . ... ... ... : ... .. 3 ... ... ... : ... .. . ... : ... .. 0 ... : ... .. . ... ... : ... .. . ... ... : ... .. 4 P89 ... : ... .. . ... ...
ROW D6 : ... .. . ... ... ... : ... .. . ... ... ... : ... .. . ... : ... .. . ... : ... .. . ... ... : ... .. . ... ... : F-3 01 4 P7F ... : ... .. . ... ...
ROW D7 : ... .. . ... ... ... : ... .. . ... ... ... : --- .. . ... : ... .. . ... : ... .. . ... ... : ... .. . ... ... : ... .. 3 P88 ... : --- .. . P81 ...
ROW D8 : ... .. . ... ... ... : E-2 00 A ... ... ... : D#4 00 . ... : E-# 00 A ... : ... .. . ... ... : ... .. . ... ... : F#3 01 3 P7F ... : D#2 01 8 P80 ...
ROW D9 : ... .. . ... ... ... : ... .. 8 ... ... ... : ... .. . ... : ... .. 8 ... : ... .. . ... ... : ... .. . ... ... : ... .. . P80 ... : ... .. 6 ... ...
ROW DA : ... .. . ... ... ... : ... .. . ... ... ... : ... .. . ... : ... .. 4 ... : ... .. . ... ... : ... .. . ... ... : ... .. . ... ... : ... .. 4 ... ...
ROW DB : ... .. . ... ... ... : ... .. . ... ... ... : ... .. . ... : ... .. 2 ... : ... .. . ... ... : ... .. . ... ... : ... .. . ... ... : ... .. . ... ...
ROW DC : ... .. . ... ... ... : ... .. 4 ... ... ... : ... .. . ... : ... .. 1 ... : ... .. . ... ... : ... .. . ... ... : ... .. . ... ... : ... .. . ... ...
ROW DD : ... .. . ... ... ... : ... .. 3 ... ... ... : ... .. . ... : ... .. 0 ... : ... .. . ... ... : ... .. . ... ... : ... .. . ... ... : ... .. . ... ...
ROW DE : ... .. . ... ... ... : ... .. . ... ... ... : ... .. . ... : ... .. . ... : ... .. . ... ... : ... .. . ... ... : ... .. . ... ... : ... .. . ... ...
ROW DF : ... .. . ... ... ... : ... .. . ... ... ... : ... .. . ... : ... .. . ... : ... .. . ... ... : ... .. . ... ... : ... .. . ... ... : ... .. . ... ...
ROW E0 : ... .. . P84 ... ... : B-1 00 A ... ... ... : B-3 00 . P7D : 5-# 00 D ... : ... .. . ... ... : ... .. . ... ... : ... .. . ... ... : ... .. . ... ...
ROW E1 : ... .. . P86 ... ... : ... .. 8 ... ... ... : A#3 00 . P7C : ... .. . ... : ... .. . ... ... : ... .. . ... ... : ... .. . ... ... : ... .. . ... ...
ROW E2 : ... .. . P85 ... ... : ... .. . ... ... ... : A-3 00 . P7B : 1-# 00 D ... : ... .. . ... ... : ... .. . ... ... : ... .. . ... ... : ... .. . ... ...
ROW E3 : ... .. . P82 ... ... : ... .. . ... ... ... : G#3 00 . ... : F-# 00 6 ... : ... .. . ... ... : ... .. . ... ... : ... .. . ... ... : ... .. . ... ...
ROW E4 : ... .. . P7E ... ... : ... .. 4 ... ... ... : G-3 00 . P7C : B-# 00 1 ... : ... .. . ... ... : ... .. . ... ... : ... .. . ... ... : ... .. . ... ...
ROW E5 : ... .. . P7B ... ... : ... .. 3 ... ... ... : F#3 00 . P7E : ... .. 0 ... : ... .. . ... ... : ... .. . ... ... : ... .. . ... ... : ... .. . ... ...
ROW E6 : ... .. . P7A ... ... : ... .. . ... ... ... : F-3 00 . P81 : ... .. . ... : ... .. . ... ... : ... .. . ... ... : ... .. . ... ... : ... .. . ... ...
ROW E7 : ... .. . P7C ... ... : ... .. . ... ... ... : --- .. . ... : ... .. . ... : ... .. . ... ... : ... .. . ... ... : ... .. . ... ... : --- .. . ... ...
ROW E8 : ... .. . P80 ... ... : F#1 00 A ... ... ... : F#3 00 . P80 : E-# 00 A ... : ... .. . ... ... : ... .. . ... ... : ... .. . ... ... : F#1 01 8 ... ...
ROW E9 : ... .. . P83 ... ... : ... .. 8 ... ... ... : ... .. . ... : ... .. 8 ... : ... .. . ... ... : ... .. . ... ... : ... .. . ... ... : ... .. 6 ... ...
ROW EA : ... .. . P86 ... ... : ... .. . ... ... ... : ... .. . ... : ... .. 4 ... : ... .. . ... ... : ... .. . ... ... : ... .. . ... ... : ... .. 4 ... ...
ROW EB : ... .. . ... ... ... : ... .. . ... ... ... : ... .. . ... : ... .. 2 ... : ... .. . ... ... : ... .. . ... ... : ... .. . ... ... : ... .. . ... ...
ROW EC : ... .. . P82 ... ... : ... .. 4 ... ... ... : ... .. . ... : ... .. 1 ... : ... .. . ... ... : ... .. . ... ... : ... .. . ... ... : ... .. . ... ...
ROW ED : ... .. . P7F ... ... : ... .. 3 ... ... ... : ... .. . ... : ... .. 0 ... : ... .. . ... ... : ... .. . ... ... : ... .. . ... ... : ... .. . ... ...
ROW EE : ... .. . P7B ... ... : ... .. . ... ... ... : ... .. . ... : ... .. . ... : ... .. . ... ... : ... .. . ... ... : ... .. . ... ... : ... .. . ... ...
ROW EF : ... .. . P7A ... ... : ... .. . ... ... ... : --- .. . ... : ... .. . ... : ... .. . ... ... : ... .. . ... ... : ... .. . ... ... : --- .. . P81 ...
ROW F0 : ... .. . P7C ... ... : D#2 00 A ... ... ... : C#4 00 . ... : ... .. F ... : ... .. . ... ... : ... .. . ... ... : ... .. . P84 ... : C#2 01 8 P80 ...
ROW F1 : ... .. . P80 ... ... : ... .. 8 ... ... ... : ... .. . ... : ... .. C ... : ... .. . ... ... : ... .. . ... ... : ... .. . P86 ... : ... .. 6 ... ...
ROW F2 : ... .. . P83 ... ... : ... .. . ... ... ... : ... .. . ... : ... .. 6 ... : ... .. . ... ... : ... .. . ... ... : ... .. . P85 ... : ... .. 4 ... ...
ROW F3 : ... .. . P86 ... ... : ... .. . ... ... ... : ... .. . ... : ... .. 3 ... : ... .. . ... ... : ... .. . ... ... : ... .. . P82 ... : ... .. . ... ...
ROW F4 : ... .. . ... ... ... : ... .. 4 ... ... ... : ... .. . ... : ... .. 2 ... : ... .. . ... ... : ... .. . ... ... : ... .. . P7E ... : ... .. . ... ...
ROW F5 : ... .. . P83 ... ... : ... .. 3 ... ... ... : ... .. . ... : ... .. 0 ... : ... .. . ... ... : ... .. . ... ... : ... .. . P7B ... : ... .. . ... ...
ROW F6 : ... .. . P80 ... ... : ... .. . ... ... ... : ... .. . ... : ... .. . ... : ... .. . ... ... : ... .. . ... ... : ... .. . P7A ... : ... .. . ... ...
ROW F7 : ... .. . P7C ... ... : ... .. . ... ... ... : --- .. . ... : ... .. . ... : ... .. . ... ... : ... .. . ... ... : ... .. . P7C ... : --- .. . ... ...
ROW F8 : ... .. . P7A ... ... : B-1 00 A ... ... ... : B-3 00 . ... : D-# 00 A ... : ... .. . ... ... : ... .. . ... ... : ... .. . P80 ... : B-1 01 8 ... ...
ROW F9 : ... .. . P7B ... ... : ... .. 8 ... ... ... : ... .. . ... : ... .. . ... : ... .. . ... ... : ... .. . ... ... : ... .. . P83 ... : ... .. 6 ... ...
ROW FA : ... .. . P7F ... ... : ... .. . ... ... ... : ... .. . ... : ... .. . ... : ... .. . ... ... : ... .. . ... ... : ... .. . P86 ... : ... .. 4 ... ...
ROW FB : ... .. . P82 ... ... : ... .. . ... ... ... : ... .. . ... : ... .. . ... : ... .. . ... ... : ... .. . ... ... : ... .. . ... ... : ... .. . ... ...
ROW FC : ... .. . P86 ... ... : ... .. 4 ... ... ... : ... .. . ... : ... .. . ... : ... .. . ... ... : ... .. . ... ... : ... .. . P82 ... : ... .. . ... ...
ROW FD : ... .. . ... ... ... : ... .. 3 ... ... ... : ... .. . ... : ... .. . ... : ... .. . ... ... : ... .. . ... ... : ... .. . P7F ... : ... .. . ... ...
ROW FE : ... .. . P83 ... ... : ... .. . ... ... ... : ... .. . ... : ... .. . ... : ... .. . ... ... : ... .. . ... ... : ... .. . P7B ... : ... .. . ... ...
ROW FF : ... .. . P80 ... ... : ... .. . ... ... ... : --- .. . ... : ... .. . ... : ... .. . ... ... : ... .. . ... ... : ... .. . P7A ... : --- .. . P86 ...

PATTERN 16
ROW 00 : A-3 00 F ... ... ... : A-4 00 A ... ... ... : A#2 00 . P82 : 1-# 00 F ... : ... .. . ... ... : ... .. . ... ... : ... .. . P7C ... : B-0 01 8 P80 ...
ROW 01 : ... .. E ... ... ... : ... .. 8 ... ... ... : G#2 00 . P8B : ... .. C ... : ... .. . ... ... : ... .. . ... ... : ... .. . P80 ... : ... .. 6 ... ...
ROW 02 : ... .. D ... ... ... : ... .. . ... ... ... : G-2 00 . P79 : ... .. 6 ... : ... .. . ... ... : ... .. . ... ... : ... .. . P83 ... : ... .. 4 ... ...
ROW 03 : ... .. A ... ... ... : ... .. . ... ... ... : F-2 00 . P8D : ... .. 3 ... : ... .. . ... ... : ... .. . ... ... : ... .. . P86 ... : ... .. . ... ...
ROW 04 : ... .. . ... ... ... : ... .. 4 ... ... ... : E-2 00 . P81 : ... .. 2 ... : ... .. . ... ... : ... .. . ... ... : ... .. . ... ... : ... .. . ... ...
ROW 05 : ... .. 2 ... ... ... : ... .. 3 ... ... ... : D#2 00 . P77 : ... .. 0 ... : ... .. . ... ... : ... .. . ... ... : ... .. . P83 ... : ... .. . ... ...
ROW 06 : ... .. . ... ... ... : ... .. . ... ... ... : D-2 00 . P70 : ... .. . ... : ... .. . ... ... : ... .. . ... ... : ... .. . P80 ... : ... .. . ... ...
ROW 07 : ... .. . ... ... ... : ... .. . ... ... ... : C#2 00 . P6B : ... .. . ... : ... .. . ... ... : ... .. . ... ... : ... .. . P7C ... : ... .. . ... ...
ROW 08 : G#3 00 F ... ... ... : F#4 00 A ... ... ... : B-2 00 . P80 : E-# 00 A ... : ... .. . ... ... : ... .. . ... ... : ... .. . P7A ... : ... .. . ... ...
ROW 09 : ... .. E ... ... ... : ... .. 8 ... ... ... : ... .. . ... : ... .. 8 ... : ... .. . ... ... : ... .. . ... ... : ... .. . P7B ... : ... .. . ... ...
ROW 0A : ... .. D ... ... ... : ... .. . ... ... ... : ... .. . ... : ... .. 4 ... : ... .. . ... ... : ... .. . ... ... : ... .. . P7F ... : ... .. . ... ...
ROW 0B : ... .. A ... ... ... : ... .. . ... ... ... : ... .. . ... : ... .. 2 ... : ... .. . ... ... : ... .. . ... ... : ... .. . P82 ... : ... .. . ... ...
ROW 0C : ... .. . ... ... ... : ... .. 4 ... ... ... : ... .. . ... : ... .. 1 ... : ... .. . ... ... : ... .. . ... ... : ... .. . P86 ... : ... .. . ... ...
ROW 0D : ... .. 2 ... ... ... : ... .. 3 ... ... ... : ... .. . ... : ... .. 0 ... : ... .. . ... ... : ... .. . ... ... : ... .. . ... ... : ... .. . ... ...
ROW 0E : ... .. . ... ... ... : ... .. . ... ... ... : ... .. . ... : ... .. . ... : ... .. . ... ... : ... .. . ... ... : ... .. . P83 ... : ... .. . ... ...
ROW 0F : ... .. . ... ... ... : ... .. . ... ... ... : ... .. . ... : ... .. . ... : ... .. . ... ... : ... .. . ... ... : ... .. . P80 ... : ... .. . ... ...
ROW 10 : F#3 00 F ... ... ... : D#4 00 A ... ... ... : ... .. . ... : 6-# 00 D ... : ... .. . ... ... : ... .. . ... ... : A-3 01 7 ... ... : ... .. . ... ...
ROW 11 : ... .. E ... ... ... : ... .. 8 ... ... ... : ... .. . ... : ... .. . ... : ... .. . ... ... : ... .. . ... ... : ... .. 6 ... ... : ... .. . ... ...
ROW 12 : ... .. D ... ... ... : ... .. . ... ... ... : ... .. . ... : 2-# 00 D ... : ... .. . ... ... : ... .. . ... ... : ... .. 5 ... ... : ... .. . ... ...
ROW 13 : ... .. A ... ... ... : ... .. . ... ... ... : ... .. . ... : 0-# 00 6 ... : ... .. . ... ... : ... .. . ... ... : ... .. . ... ... : ... .. . ... ...
ROW 14 : ... .. . ... ... ... : ... .. 4 ... ... ... : ... .. . ... : C-# 00 1 ... : ... .. . ... ... : ... .. . ... ... : ... .. 3 ... ... : ... .. . ... ...
ROW 15 : ... .. 2 ... ... ... : ... .. 3 ... ... ... : ... .. . ... : ... .. 0 ... : ... .. . ... ... : ... .. . ... ... : ... .. . ... ... : ... .. . ... ...
ROW 16 : ... .. . ... ... ... : ... .. . ... ... ... : ... .. . ... : ... .. . ... : ... .. . ... ... : ... .. . ... ... : ... .. 2 ... ... : ... .. . ... ...
ROW 17 : ... .. . ... ... ... : ... .. . ... ... ... : ... .. . ... : ... .. . ... : ... .. . ... ... : ... .. . ... ... : ... .. . ... ... : ... .. . ... ...
ROW 18 : G#3 00 F ... ... ... : C-4 00 A ... ... ... : ... .. . ... : 5-# 00 D ... : ... .. . ... ... : ... .. . ... ... : G#3 01 7 ... ... : ... .. . ... ...
ROW 19 : ... .. E ... ... ... : ... .. 8 ... ... ... : ... .. . ... : ... .. . ... : ... .. . ... ... : ... .. . ... ... : ... .. 6 ... ... : ... .. . ... ...
ROW 1A : ... .. D ... ... ... : ... .. . ... ... ... : ... .. . ... : 1-# 00 D ... : ... .. . ... ... : ... .. . ... ... : ... .. 5 ... ... : ... .. . ... ...
ROW 1B : ... .. A ... ... ... : ... .. . ... ... ... : ... .. . ... : F-# 00 6 ... : ... .. . ... ... : ... .. . ... ... : ... .. . ... ... : ... .. . ... ...
ROW 1C : ... .. . ... ... ... : ... .. 4 ... ... ... : ... .. . ... : B-# 00 1 ... : ... .. . ... ... : ... .. . ... ... : ... .. 3 ... ... : ... .. . ... ...
ROW 1D : ... .. 2 ... ... ... : ... .. 3 ... ... ... : ... .. . ... : ... .. 0 ... : ... .. . ... ... : ... .. . ... ... : ... .. . ... ... : ... .. . ... ...
ROW 1E : ... .. . ... ... ... : ... .. . ... ... ... : ... .. . ... : ... .. . ... : ... .. . ... ... : ... .. . ... ... : ... .. 2 ... ... : ... .. . ... ...
ROW 1F : ... .. . ... ... ... : ... .. . ... ... ... : ... .. . ... : ... .. . ... : ... .. . ... ... : ... .. . ... ... : ... .. . ... ... : ... .. . ... ...
ROW 20 : E-3 00 F ... ... ... : A-3 00 A ... ... ... : C-3 00 . ... : 5-# 00 D ... : ... .. . ... ... : ... .. . ... ... : F#3 01 7 ... ... : C-1 01 8 ... ...
ROW 21 : ... .. E ... ... ... : ... .. 8 ... ... ... : ... .. . ... : ... .. . ... : ... .. . ... ... : ... .. . ... ... : ... .. 6 ... ... : ... .. 6 ... ...
ROW 22 : ... .. D ... ... ... : ... .. . ... ... ... : ... .. . ... : 1-# 00 D ... : ... .. . ... ... : ... .. . ... ... : ... .. 5 ... ... : ... .. 4 ... ...
ROW 23 : ... .. A ... ... ... : ... .. . ... ... ... : ... .. . ... : F-# 00 6 ... : ... .. . ... ... : ... .. . ... ... : ... .. . ... ... : ... .. . ... ...
ROW 24 : ... .. . ... ... ... : ... .. 4 ... ... ... : ... .. . ... : B-# 00 1 ... : ... .. . ... ... : ... .. . ... ... : ... .. 3 ... ... : ... .. . ... ...
ROW 25 : ... .. 2 ... ... ... : ... .. 3 ... ... ... : ... .. . ... : ... .. 0 ... : ... .. . ... ... : ... .. . ... ... : ... .. . ... ... : ... .. . ... ...
ROW 26 : ... .. . ... ... ... : ... .. . ... ... ... : ... .. . ... : ... .. . ... : ... .. . ... ... : ... .. . ... ... : ... .. 2 ... ... : ... .. . ... ...
ROW 27 : ... .. . ... ... ... : ... .. . ... ... ... : ... .. . ... : ... .. . ... : ... .. . ... ... : ... .. . ... ... : ... .. . ... ... : ... .. . ... ...
ROW 28 : D#3 00 F ... ... ... : F#3 00 A ... ... ... : ... .. . ... : 4-# 00 D ... : ... .. . ... ... : ... .. . ... ... : G#3 01 7 ... ... : ... .. . ... ...
ROW 29 : ... .. E ... ... ... : ... .. 8 ... ... ... : ... .. . ... : ... .. . ... : ... .. . ... ... : ... .. . ... ... : ... .. 6 ... ... : ... .. . ... ...
ROW 2A : ... .. D ... ... ... : ... .. . ... ... ... : ... .. . ... : 0-# 00 D ... : ... .. . ... ... : ... .. . ... ... : ... .. 5 ... ... : ... .. . ... ...
ROW 2B : ... .. A ... ... ... : ... .. . ... ... ... : ... .. . ... : E-# 00 6 ... : ... .. . ... ... : ... .. . ... ... : ... .. . ... ... : ... .. . ... ...
ROW 2C : ... .. . ... ... ... : ... .. 4 ... ... ... : ... .. . ... : A-# 00 1 ... : ... .. . ... ... : ... .. . ... ... : ... .. 3 ... ... : ... .. . ... ...
ROW 2D : ... .. 2 ... ... ... : ... .. 3 ... ... ... : ... .. . ... : ... .. 0 ... : ... .. . ... ... : ... .. . ... ... : ... .. . ... ... : ... .. . ... ...
ROW 2E : ... .. . ... ... ... : ... .. . ... ... ... : ... .. . ... : ... .. . ... : ... .. . ... ... : ... .. . ... ... : ... .. 2 ... ... : ... .. . ... ...
ROW 2F : ... .. . ... ... ... : ... .. . ... ... ... : ... .. . ... : ... .. . ... : ... .. . ... ... : ... .. . ... ... : ... .. . ... ... : ... .. . ... ...
ROW 30 : C#3 00 F ... ... ... : D#3 00 A ... ... ... : ... .. . ... : 3-# 00 D ... : ... .. . ... ... : ... .. . ... ... : E-3 01 7 ... ... : ... .. . ... ...
ROW 31 : ... .. E ... ... ... : ... .. 8 ... ... ... : ... .. . ... : ... .. . ... : ... .. . ... ... : ... .. . ... ... : ... .. 6 ... ... : ... .. . ... ...
ROW 32 : ... .. D ... ... ... : ... .. . ... ... ... : ... .. . ... : F-# 00 D ... : ... .. . ... ... : ... .. . ... ... : ... .. 5 ... ... : ... .. . ... ...
ROW 33 : ... .. A ... ... ... : ... .. . ... ... ... : ... .. . ... : D-# 00 6 ... : ... .. . ... ... : ... .. . ... ... : ... .. . ... ... : ... .. . ... ...
ROW 34 : ... .. . ... ... ... : ... .. 4 ... ... ... : ... .. . ... : 9-# 00 1 ... : ... .. . ... ... : ... .. . ... ... : ... .. 3 ... ... : ... .. . ... ...
ROW 35 : ... .. 2 ... ... ... : ... .. 3 ... ... ... : ... .. . ... : ... .. 0 ... : ... .. . ... ... : ... .. . ... ... : ... .. . ... ... : ... .. . ... ...
ROW 36 : ... .. . ... ... ... : ... .. . ... ... ... : ... .. . ... : ... .. . ... : ... .. . ... ... : ... .. . ... ... : ... .. 2 ... ... : ... .. . ... ...
ROW 37 : ... .. . ... ... ... : ... .. . ... ... ... : ... .. . ... : ... .. . ... : ... .. . ... ... : ... .. . ... ... : ... .. . ... ... : ... .. . ... ...
ROW 38 : C-3 00 F ... ... ... : C-3 00 A ... ... ... : ... .. . ... : 1-# 00 D ... : ... .. . ... ... : ... .. . ... ... : D#3 01 7 ... ... : ... .. . ... ...
ROW 39 : ... .. E ... ... ... : ... .. 8 ... ... ... : ... .. . ... : ... .. . ... : ... .. . ... ... : ... .. . ... ... : ... .. 6 ... ... : ... .. . ... ...
ROW 3A : ... .. D ... ... ... : ... .. . ... ... ... : ... .. . ... : D-# 00 D ... : ... .. . ... ... : ... .. . ... ... : ... .. 5 ... ... : ... .. . ... ...
ROW 3B : ... .. A ... ... ... : ... .. . ... ... ... : ... .. . ... : B-# 00 6 ... : ... .. . ... ... : ... .. . ... ... : ... .. . ... ... : ... .. . ... ...
ROW 3C : ... .. . ... ... ... : ... .. 4 ... ... ... : ... .. . ... : 7-# 00 1 ... : ... .. . ... ... : ... .. . ... ... : ... .. 3 ... ... : ... .. . ... ...
ROW 3D : ... .. 2 ... ... ... : ... .. 3 ... ... ... : ... .. . ... : ... .. 0 ... : ... .. . ... ... : ... .. . ... ... : ... .. . ... ... : ... .. . ... ...
ROW 3E : ... .. . ... ... ... : ... .. . ... ... ... : ... .. . ... : ... .. . ... : ... .. . ... ... : ... .. . ... ... : ... .. 2 ... ... : ... .. . ... ...
ROW 3F : ... .. . ... ... ... : ... .. . ... ... ... : ... .. . ... : ... .. . ... : ... .. . ... ... : ... .. . ... ... : ... .. . ... ... : ... .. . ... ...
ROW 40 : C#3 00 F ... ... ... : E-3 00 A ... ... ... : A#2 00 . P82 : 1-# 00 F ... : ... .. . ... ... : E-3 01 6 ... V05 : G#2 01 6 ... V05 : C#1 01 F ... ...
ROW 41 : ... .. E ... ... ... : ... .. 8 ... ... ... : G#2 00 . P8B : ... .. C ... : ... .. . ... ... : ... .. 5 ... ... : ... .. 5 ... ... : ... .. D ... ...
ROW 42 : ... .. D ... ... ... : ... .. . ... ... ... : G-2 00 . P79 : ... .. 6 ... : ... .. . ... ... : ... .. . ... ... : ... .. . ... ... : ... .. 8 ... ...
ROW 43 : ... .. A ... ... ... : ... .. . ... ... ... : F-2 00 . P8D : ... .. 3 ... : ... .. . ... ... : ... .. . ... ... : ... .. . ... ... : ... .. . ... ...
ROW 44 : ... .. . ... ... ... : ... .. 4 ... ... ... : E-2 00 . P81 : ... .. 2 ... : ... .. . ... ... : ... .. 2 ... ... : ... .. 2 ... ... : ... .. . ... ...
ROW 45 : ... .. . ... ... ... : ... .. 3 ... ... ... : D#2 00 . P77 : ... .. 0 ... : ... .. . ... ... : ... .. . ... ... : ... .. . ... ... : ... .. . ... ...
ROW 46 : ... .. . ... ... ... : ... .. . ... ... ... : --- .. . ... : ... .. . ... : ... .. . ... ... : ... .. . ... ... : ... .. . ... ... : --- .. . P81 ...
ROW 47 : ... .. . ... ... ... : ... .. . ... ... ... : ... .. . ... : ... .. . ... : ... .. . ... ... : ... .. . ... ... : ... .. . ... ... : ... .. . ... ...
ROW 48 : ... .. . ... ... ... : G#2 00 A ... ... ... : C#3 00 . P80 : ... .. F ... : ... .. . ... ... : ... .. 4 ... ... : ... .. 4 ... ... : C#2 01 F P80 ...
ROW 49 : ... .. . ... ... ... : ... .. 8 ... ... ... : ... .. . ... : ... .. C ... : ... .. . ... ... : ... .. . ... ... : ... .. . ... ... : ... .. D ... ...
ROW 4A : ... .. . ... ... ... : ... .. . ... ... ... : ... .. . ... : ... .. 6 ... : ... .. . ... ... : ... .. . ... ... : ... .. . ... ... : ... .. 8 ... ...
ROW 4B : ... .. . ... ... ... : ... .. . ... ... ... : ... .. . ... : ... .. 3 ... : ... .. . ... ... : ... .. . ... ... : ... .. . ... ... : ... .. . ... ...
ROW 4C : ... .. . ... ... ... : ... .. 4 ... ... ... : ... .. . ... : ... .. 2 ... : ... .. . ... ... : ... .. 2 ... ... : ... .. 2 ... ... : ... .. . ... ...
ROW 4D : ... .. 2 ... ... ... : ... .. 3 ... ... ... : ... .. . ... : ... .. 0 ... : ... .. . ... ... : ... .. . ... ... : ... .. . ... ... : ... .. . ... ...
ROW 4E : ... .. . ... ... ... : ... .. . ... ... ... : --- .. . ... : ... .. . ... : ... .. . ... ... : ... .. . ... ... : ... .. . ... ... : --- .. . ... ...
ROW 4F : ... .. . ... ... ... : ... .. . ... ... ... : ... .. . ... : ... .. . ... : ... .. . ... ... : ... .. . ... ... : ... .. . ... ... : ... .. . ... ...
ROW 50 : G#3 00 F ... ... ... : C#3 00 A ... ... ... : B-3 00 . P7D : 5-# 00 F ... : ... .. . ... ... : ... .. 4 ... ... : ... .. 4 ... ... : C#1 01 F ... ...
ROW 51 : ... .. E ... ... ... : ... .. 8 ... ... ... : A#3 00 . P7C : ... .. C ... : ... .. . ... ... : ... .. . ... ... : ... .. . ... ... : ... .. D ... ...
ROW 52 : ... .. D ... ... ... : ... .. . ... ... ... : A-3 00 . P7B : ... .. 6 ... : ... .. . ... ... : ... .. . ... ... : ... .. . ... ... : ... .. 8 ... ...
ROW 53 : ... .. A ... ... ... : ... .. . ... ... ... : G#3 00 . ... : ... .. 3 ... : ... .. . ... ... : ... .. . ... ... : ... .. . ... ... : ... .. . ... ...
ROW 54 : ... .. . ... ... ... : ... .. 4 ... ... ... : G-3 00 . P7C : ... .. 2 ... : ... .. . ... ... : ... .. 2 ... ... : ... .. 2 ... ... : ... .. . ... ...
ROW 55 : ... .. . ... ... ... : ... .. 3 ... ... ... : F#3 00 . P7E : ... .. 0 ... : ... .. . ... ... : ... .. . ... ... : ... .. . ... ... : ... .. . ... ...
ROW 56 : ... .. . ... ... ... : ... .. . ... ... ... : --- .. . ... : ... .. . ... : ... .. . ... ... : ... .. . ... ... : ... .. . ... ... : --- .. . P81 ...
ROW 57 : ... .. . ... ... ... : ... .. . ... ... ... : ... .. . ... : ... .. . ... : ... .. . ... ... : ... .. . ... ... : ... .. . ... ... : ... .. . ... ...
ROW 58 : ... .. . ... ... ... : E-3 00 A ... ... ... : C#3 00 . P80 : 1-# 00 F ... : ... .. . ... ... : ... .. 4 ... ... : ... .. 4 ... ... : C#2 01 F P80 ...
ROW 59 : ... .. 2 ... ... ... : ... .. 8 ... ... ... : ... .. . ... : ... .. C ... : ... .. . ... ... : ... .. . ... ... : ... .. . ... ... : ... .. D ... ...
ROW 5A : ... .. . ... ... ... : ... .. . ... ... ... : ... .. . ... : ... .. 6 ... : ... .. . ... ... : ... .. . ... ... : ... .. . ... ... : ... .. 8 ... ...
ROW 5B : ... .. . ... ... ... : ... .. . ... ... ... : ... .. . ... : ... .. 3 ... : ... .. . ... ... : ... .. . ... ... : ... .. . ... ... : ... .. . ... ...
ROW 5C : ... .. 1 ... ... ... : ... .. 4 ... ... ... : ... .. . ... : ... .. 2 ... : ... .. . ... ... : ... .. 2 ... ... : ... .. 2 ... ... : ... .. . ... ...
ROW 5D : ... .. . ... ... ... : ... .. 3 ... ... ... : ... .. . ... : ... .. 0 ... : ... .. . ... ... : ... .. . ... ... : ... .. . ... ... : ... .. . ... ...
ROW 5E : ... .. . ... ... ... : ... .. . ... ... ... : --- .. . ... : ... .. . ... : ... .. . ... ... : ... .. . ... ... : ... .. . ... ... : --- .. . ... ...
ROW 5F : ... .. 0 ... ... ... : ... .. . ... ... ... : ... .. . ... : ... .. . ... : ... .. . ... ... : ... .. . ... ... : ... .. . ... ... : ... .. . ... ...
ROW 60 : E-4 00 F P80 ... ... : D#3 00 A ... ... ... : A#2 00 . P82 : C-# 00 8 ... : ... .. . ... ... : ... .. 4 ... ... : ... .. 4 ... ... : C#1 01 F ... ...
ROW 61 : ... .. E ... ... ... : ... .. 8 ... ... ... : G#2 00 . P8B : ... .. 6 ... : ... .. . ... ... : ... .. . ... ... : ... .. . ... ... : ... .. D ... ...
ROW 62 : ... .. D ... ... ... : ... .. . ... ... ... : G-2 00 . P79 : ... .. 3 ... : ... .. . ... ... : ... .. . ... ... : ... .. . ... ... : ... .. 8 ... ...
ROW 63 : ... .. A ... ... ... : ... .. . ... ... ... : F-2 00 . P8D : ... .. 1 ... : ... .. . ... ... : ... .. . ... ... : ... .. . ... ... : ... .. . ... ...
ROW 64 : ... .. . ... ... ... : ... .. 4 ... ... ... : E-2 00 . P81 : ... .. . ... : ... .. . ... ... : ... .. 2 ... ... : ... .. 2 ... ... : ... .. . ... ...
ROW 65 : ... .. . ... ... ... : ... .. 3 ... ... ... : D#2 00 . P77 : ... .. 0 ... : ... .. . ... ... : ... .. . ... ... : ... .. . ... ... : ... .. . ... ...
ROW 66 : ... .. . ... ... ... : ... .. . ... ... ... : --- .. . ... : ... .. . ... : ... .. . ... ... : ... .. . ... ... : ... .. . ... ... : --- .. . P81 ...
ROW 67 : ... .. . ... ... ... : ... .. . ... ... ... : ... .. . ... : ... .. . ... : ... .. . ... ... : ... .. . ... ... : ... .. . ... ... : ... .. . ... ...
ROW 68 : D#4 00 F ... ... ... : G#2 00 A ... ... ... : G#3 00 . P85 : 1-# 00 F ... : ... .. . ... ... : ... .. 4 ... ... : ... .. 4 ... ... : C#2 01 F P80 ...
ROW 69 : ... .. E ... ... ... : ... .. 8 ... ... ... : F-3 00 . P86 : ... .. C ... : ... .. . ... ... : ... .. . ... ... : ... .. . ... ... : ... .. D ... ...
ROW 6A : ... .. D ... ... ... : ... .. . ... ... ... : D#3 00 . P7C : ... .. 6 ... : ... .. . ... ... : ... .. . ... ... : ... .. . ... ... : ... .. 8 ... ...
ROW 6B : ... .. A ... ... ... : ... .. . ... ... ... : C#3 00 . P76 : ... .. 3 ... : ... .. . ... ... : ... .. . ... ... : ... .. . ... ... : ... .. . ... ...
ROW 6C : ... .. . ... ... ... : ... .. 4 ... ... ... : B-2 00 . P75 : ... .. 2 ... : ... .. . ... ... : ... .. 2 ... ... : ... .. 2 ... ... : ... .. . ... ...
ROW 6D : ... .. 2 ... ... ... : ... .. 3 ... ... ... : A-2 00 . P7A : ... .. 0 ... : ... .. . ... ... : ... .. . ... ... : ... .. . ... ... : ... .. . ... ...
ROW 6E : ... .. . ... ... ... : ... .. . ... ... ... : --- .. . ... : ... .. . ... : ... .. . ... ... : ... .. . ... ... : ... .. . ... ... : --- .. . ... ...
ROW 6F : ... .. . ... ... ... : ... .. . ... ... ... : ... .. . ... : ... .. . ... : ... .. . ... ... : ... .. . ... ... : ... .. . ... ... : ... .. . ... ...
ROW 70 : E-4 00 F ... ... ... : E-3 00 A ... ... ... : B-3 00 . P7D : 5-# 00 F ... : ... .. . ... ... : ... .. 4 ... ... : ... .. 4 ... ... : C#1 01 F ... ...
ROW 71 : ... .. E ... ... ... : ... .. 8 ... ... ... : A#3 00 . P7C : ... .. C ... : ... .. . ... ... : ... .. . ... ... : ... .. . ... ... : ... .. D ... ...
ROW 72 : ... .. D ... ... ... : ... .. . ... ... ... : A-3 00 . P7B : ... .. 6 ... : ... .. . ... ... : ... .. . ... ... : ... .. . ... ... : ... .. 8 ... ...
ROW 73 : ... .. A ... ... ... : ... .. . ... ... ... : G#3 00 . ... : ... .. 3 ... : ... .. . ... ... : ... .. . ... ... : ... .. . ... ... : ... .. . ... ...
ROW 74 : ... .. . ... ... ... : ... .. 4 ... ... ... : G-3 00 . P7C : ... .. 2 ... : ... .. . ... ... : ... .. 2 ... ... : ... .. 2 ... ... : ... .. . ... ...
ROW 75 : ... .. 2 ... ... ... : ... .. 3 ... ... ... : F#3 00 . P7E : ... .. 0 ... : ... .. . ... ... : ... .. . ... ... : ... .. . ... ... : ... .. . ... ...
ROW 76 : ... .. . ... ... ... : ... .. . ... ... ... : --- .. . ... : ... .. . ... : ... .. . ... ... : ... .. . ... ... : ... .. . ... ... : --- .. . P81 ...
ROW 77 : ... .. . ... ... ... : ... .. . ... ... ... : ... .. . ... : ... .. . ... : ... .. . ... ... : ... .. . ... ... : ... .. . ... ... : ... .. . ... ...
ROW 78 : G#3 00 F ... ... ... : G#2 00 A ... ... ... : C#3 00 . P80 : 1-# 00 F ... : ... .. . ... ... : ... .. 4 ... ... : ... .. 4 ... ... : C#2 01 F P80 ...
ROW 79 : ... .. E ... ... ... : ... .. 8 ... ... ... : ... .. . ... : ... .. C ... : ... .. . ... ... : ... .. . ... ... : ... .. . ... ... : ... .. D ... ...
ROW 7A : ... .. D ... ... ... : ... .. . ... ... ... : ... .. . ... : ... .. 6 ... : ... .. . ... ... : ... .. . ... ... : ... .. . ... ... : ... .. 8 ... ...
ROW 7B : ... .. A ... ... ... : ... .. . ... ... ... : ... .. . ... : ... .. 3 ... : ... .. . ... ... : ... .. . ... ... : ... .. . ... ... : ... .. . ... ...
ROW 7C : ... .. . ... ... ... : ... .. 4 ... ... ... : ... .. . ... : ... .. 2 ... : ... .. . ... ... : ... .. 2 ... ... : ... .. 2 ... ... : ... .. . ... ...
ROW 7D : ... .. . ... ... ... : ... .. 3 ... ... ... : ... .. . ... : ... .. 0 ... : ... .. . ... ... : ... .. . ... ... : ... .. . ... ... : ... .. . ... ...
ROW 7E : ... .. . ... ... ... : ... .. . ... ... ... : --- .. . ... : ... .. . ... : ... .. . ... ... : ... .. . ... ... : ... .. . ... ... : --- .. . ... ...
ROW 7F : ... .. . ... ... ... : ... .. . ... ... ... : ... .. . ... : ... .. . ... : ... .. . ... ... : ... .. . ... ... : ... .. . ... ... : ... .. . ... ...
ROW 80 : ... .. . ... ... ... : C#3 00 A ... ... ... : A#2 00 . P82 : ... .. F ... : ... .. . ... ... : ... .. 4 ... ... : ... .. 4 ... ... : C#1 01 F ... ...
ROW 81 : ... .. . ... ... ... : ... .. 8 ... ... ... : G#2 00 . P8B : ... .. C ... : ... .. . ... ... : ... .. . ... ... : ... .. . ... ... : ... .. D ... ...
ROW 82 : ... .. . ... ... ... : ... .. . ... ... ... : G-2 00 . P79 : ... .. 6 ... : ... .. . ... ... : ... .. . ... ... : ... .. . ... ... : ... .. 8 ... ...
ROW 83 : ... .. . ... ... ... : ... .. . ... ... ... : F-2 00 . P8D : ... .. 3 ... : ... .. . ... ... : ... .. . ... ... : ... .. . ... ... : ... .. . ... ...
ROW 84 : ... .. . ... ... ... : ... .. 4 ... ... ... : E-2 00 . P81 : ... .. 2 ... : ... .. . ... ... : ... .. 2 ... ... : ... .. 2 ... ... : ... .. . ... ...
ROW 85 : ... .. . ... ... ... : ... .. 3 ... ... ... : D#2 00 . P77 : ... .. 0 ... : ... .. . ... ... : ... .. . ... ... : ... .. . ... ... : ... .. . ... ...
ROW 86 : ... .. . ... ... ... : ... .. . ... ... ... : --- .. . ... : ... .. . ... : ... .. . ... ... : ... .. . ... ... : ... .. . ... ... : --- .. . P81 ...
ROW 87 : ... .. . ... ... ... : ... .. . ... ... ... : ... .. . ... : ... .. . ... : ... .. . ... ... : ... .. . ... ... : ... .. . ... ... : ... .. . ... ...
ROW 88 : ... .. . ... ... ... : E-3 00 A ... ... ... : C#3 00 . P80 : ... .. F ... : ... .. . ... ... : ... .. 4 ... ... : ... .. 4 ... ... : C#2 01 F P80 ...
ROW 89 : ... .. . ... ... ... : ... .. 8 ... ... ... : ... .. . ... : ... .. C ... : ... .. . ... ... : ... .. . ... ... : ... .. . ... ... : ... .. D ... ...
ROW 8A : ... .. . ... ... ... : ... .. . ... ... ... : ... .. . ... : ... .. 6 ... : ... .. . ... ... : ... .. . ... ... : ... .. . ... ... : ... .. 8 ... ...
ROW 8B : ... .. . ... ... ... : ... .. . ... ... ... : ... .. . ... : ... .. 3 ... : ... .. . ... ... : ... .. . ... ... : ... .. . ... ... : ... .. . ... ...
ROW 8C : ... .. . ... ... ... : ... .. 4 ... ... ... : ... .. . ... : ... .. 2 ... : ... .. . ... ... : ... .. 2 ... ... : ... .. 2 ... ... : ... .. . ... ...
ROW 8D : ... .. . ... ... ... : ... .. 3 ... ... ... : ... .. . ... : ... .. 0 ... : ... .. . ... ... : ... .. . ... ... : ... .. . ... ... : ... .. . ... ...
ROW 8E : ... .. . ... ... ... : ... .. . ... ... ... : --- .. . ... : ... .. . ... : ... .. . ... ... : ... .. . ... ... : ... .. . ... ... : --- .. . ... ...
ROW 8F : ... .. . ... ... ... : ... .. . ... ... ... : ... .. . ... : ... .. . ... : ... .. . ... ... : ... .. . ... ... : ... .. . ... ... : ... .. . ... ...
ROW 90 : ... .. . ... ... ... : D#3 00 A ... ... ... : B-3 00 . P7D : 5-# 00 F ... : ... .. . ... ... : ... .. 4 ... ... : ... .. 4 ... ... : C#1 01 F ... ...
ROW 91 : ... .. . ... ... ... : ... .. 8 ... ... ... : A#3 00 . P7C : ... .. C ... : ... .. . ... ... : ... .. . ... ... : ... .. . ... ... : ... .. D ... ...
ROW 92 : ... .. . ... ... ... : ... .. . ... ... ... : A-3 00 . P7B : ... .. 6 ... : ... .. . ... ... : ... .. . ... ... : ... .. . ... ... : ... .. 8 ... ...
ROW 93 : ... .. . ... ... ... : ... .. . ... ... ... : G#3 00 . ... : ... .. 3 ... : ... .. . ... ... : ... .. . ... ... : ... .. . ... ... : ... .. . ... ...
ROW 94 : ... .. . ... ... ... : ... .. 4 ... ... ... : G-3 00 . P7C : ... .. 2 ... : ... .. . ... ... : ... .. 2 ... ... : ... .. 2 ... ... : ... .. . ... ...
ROW 95 : ... .. . ... ... ... : ... .. 3 ... ... ... : F#3 00 . P7E : ... .. 0 ... : ... .. . ... ... : ... .. . ... ... : ... .. . ... ... : ... .. . ... ...
ROW 96 : ... .. . ... ... ... : ... .. . ... ... ... : --- .. . ... : ... .. . ... : ... .. . ... ... : ... .. . ... ... : ... .. . ... ... : --- .. . P81 ...
ROW 97 : ... .. . ... ... ... : ... .. . ... ... ... : ... .. . ... : ... .. . ... : ... .. . ... ... : ... .. . ... ... : ... .. . ... ... : ... .. . ... ...
ROW 98 : ... .. . P84 ... ... : G#2 00 A ... ... ... : G#3 00 . P85 : 1-# 00 F ... : ... .. . ... ... : ... .. 4 ... ... : ... .. 4 ... ... : C#2 01 F P80 ...
ROW 99 : ... .. . P86 ... ... : ... .. 8 ... ... ... : F-3 00 . P86 : ... .. C ... : ... .. . ... ... : ... .. . ... ... : ... .. . ... ... : ... .. D ... ...
ROW 9A : ... .. . P85 ... ... : ... .. . ... ... ... : D#3 00 . P7C : ... .. 6 ... : ... .. . ... ... : ... .. . ... ... : ... .. . ... ... : ... .. 8 ... ...
ROW 9B : ... .. . P82 ... ... : ... .. . ... ... ... : C#3 00 . P76 : ... .. 3 ... : ... .. . ... ... : ... .. . ... ... : ... .. . ... ... : ... .. . ... ...
ROW 9C : ... .. . P7E ... ... : ... .. 4 ... ... ... : B-2 00 . P75 : ... .. 2 ... : ... .. . ... ... : ... .. 2 ... ... : ... .. 2 ... ... : ... .. . ... ...
ROW 9D : ... .. . P7B ... ... : ... .. 3 ... ... ... : A-2 00 . P7A : ... .. 0 ... : ... .. . ... ... : ... .. . ... ... : ... .. . ... ... : ... .. . ... ...
ROW 9E : ... .. . P7A ... ... : ... .. . ... ... ... : --- .. . ... : ... .. . ... : ... .. . ... ... : ... .. . ... ... : ... .. . ... ... : --- .. . ... ...
ROW 9F : ... .. . P7C ... ... : ... .. . ... ... ... : ... .. . ... : ... .. . ... : ... .. . ... ... : ... .. . ... ... : ... .. . ... ... : ... .. . ... ...
ROW A0 : ... .. . P80 ... ... : F#3 00 A ... ... ... : A#2 00 . P82 : C-# 00 8 ... : ... .. . ... ... : F#3 01 6 ... ... : B-2 01 6 ... ... : C#1 01 F ... ...
ROW A1 : ... .. . P83 ... ... : ... .. 8 ... ... ... : G#2 00 . P8B : ... .. 6 ... : ... .. . ... ... : ... .. 5 ... ... : ... .. 5 ... ... : ... .. D ... ...
ROW A2 : ... .. . P86 ... ... : ... .. . ... ... ... : G-2 00 . P79 : ... .. 3 ... : ... .. . ... ... : ... .. . ... ... : ... .. . ... ... : ... .. 8 ... ...
ROW A3 : ... .. . ... ... ... : ... .. . ... ... ... : F-2 00 . P8D : ... .. 1 ... : ... .. . ... ... : ... .. . ... ... : ... .. . ... ... : ... .. . ... ...
ROW A4 : ... .. . P82 ... ... : ... .. 4 ... ... ... : E-2 00 . P81 : ... .. . ... : ... .. . ... ... : ... .. 2 ... ... : ... .. 2 ... ... : ... .. . ... ...
ROW A5 : ... .. . P7F ... ... : ... .. 3 ... ... ... : D#2 00 . P77 : ... .. 0 ... : ... .. . ... ... : ... .. . ... ... : ... .. . ... ... : ... .. . ... ...
ROW A6 : ... .. . P7B ... ... : ... .. . ... ... ... : --- .. . ... : ... .. . ... : ... .. . ... ... : ... .. . ... ... : ... .. . ... ... : --- .. . P81 ...
ROW A7 : ... .. . P7A ... ... : ... .. . ... ... ... : ... .. . ... : ... .. . ... : ... .. . ... ... : ... .. . ... ... : ... .. . ... ... : ... .. . ... ...
ROW A8 : ... .. . P7C ... ... : E-3 00 A ... ... ... : G#3 00 . P85 : 1-# 00 F ... : ... .. . ... ... : ... .. 4 ... ... : ... .. 4 ... ... : C#2 01 F P80 ...
ROW A9 : ... .. . P80 ... ... : ... .. 8 ... ... ... : F-3 00 . P86 : ... .. C ... : ... .. . ... ... : ... .. . ... ... : ... .. . ... ... : ... .. D ... ...
ROW AA : ... .. . P83 ... ... : ... .. . ... ... ... : D#3 00 . P7C : ... .. 6 ... : ... .. . ... ... : ... .. . ... ... : ... .. . ... ... : ... .. 8 ... ...
ROW AB : ... .. . P86 ... ... : ... .. . ... ... ... : C#3 00 . P76 : ... .. 3 ... : ... .. . ... ... : ... .. . ... ... : ... .. . ... ... : ... .. . ... ...
ROW AC : ... .. . ... ... ... : ... .. 4 ... ... ... : B-2 00 . P75 : ... .. 2 ... : ... .. . ... ... : ... .. 2 ... ... : ... .. 2 ... ... : ... .. . ... ...
ROW AD : ... .. . P83 ... ... : ... .. 3 ... ... ... : A-2 00 . P7A : ... .. 0 ... : ... .. . ... ... : ... .. . ... ... : ... .. . ... ... : ... .. . ... ...
ROW AE : ... .. . P80 ... ... : ... .. . ... ... ... : --- .. . ... : ... .. . ... : ... .. . ... ... : ... .. . ... ... : ... .. . ... ... : --- .. . ... ...
ROW AF : ... .. . P7C ... ... : ... .. . ... ... ... : ... .. . ... : ... .. . ... : ... .. . ... ... : ... .. . ... ... : ... .. . ... ... : ... .. . ... ...
ROW B0 : ... .. . P7A ... ... : D#3 00 A ... ... ... : B-3 00 . P7D : 5-# 00 F ... : ... .. . ... ... : ... .. 4 ... ... : ... .. 4 ... ... : D#1 01 F ... ...
ROW B1 : ... .. 2 P7B ... ... : ... .. 8 ... ... ... : A#3 00 . P7C : ... .. C ... : ... .. . ... ... : ... .. . ... ... : ... .. . ... ... : ... .. D ... ...
ROW B2 : ... .. . P7F ... ... : ... .. . ... ... ... : A-3 00 . P7B : ... .. 6 ... : ... .. . ... ... : ... .. . ... ... : ... .. . ... ... : ... .. 8 ... ...
ROW B3 : ... .. . P82 ... ... : ... .. . ... ... ... : G#3 00 . ... : ... .. 3 ... : ... .. . ... ... : ... .. . ... ... : ... .. . ... ... : ... .. . ... ...
ROW B4 : ... .. 1 P86 ... ... : ... .. 4 ... ... ... : G-3 00 . P7C : ... .. 2 ... : ... .. . ... ... : ... .. 2 ... ... : ... .. 2 ... ... : ... .. . ... ...
ROW B5 : ... .. . ... ... ... : ... .. 3 ... ... ... : F#3 00 . P7E : ... .. 0 ... : ... .. . ... ... : ... .. . ... ... : ... .. . ... ... : ... .. . ... ...
ROW B6 : ... .. . P83 ... ... : ... .. . ... ... ... : --- .. . ... : ... .. . ... : ... .. . ... ... : ... .. . ... ... : ... .. . ... ... : --- .. . P81 ...
ROW B7 : ... .. 0 ... ... ... : ... .. . ... ... ... : ... .. . ... : ... .. . ... : ... .. . ... ... : ... .. . ... ... : ... .. . ... ... : ... .. . ... ...
ROW B8 : G#3 00 8 P7C ... ... : F#3 00 A ... ... ... : D#3 00 . P80 : C-# 00 8 ... : ... .. . ... ... : ... .. 4 ... ... : ... .. 4 ... ... : D#2 01 F P80 ...
ROW B9 : ... .. 7 P7A ... ... : ... .. 8 ... ... ... : ... .. . ... : ... .. 6 ... : ... .. . ... ... : ... .. . ... ... : ... .. . ... ... : ... .. D ... ...
ROW BA : ... .. 6 P7B ... ... : ... .. . ... ... ... : ... .. . ... : ... .. 3 ... : ... .. . ... ... : ... .. . ... ... : ... .. . ... ... : ... .. 8 ... ...
ROW BB : ... .. 5 P7E ... ... : ... .. . ... ... ... : ... .. . ... : ... .. 1 ... : ... .. . ... ... : ... .. . ... ... : ... .. . ... ... : ... .. . ... ...
ROW BC : ... .. . P82 ... ... : ... .. 4 ... ... ... : ... .. . ... : ... .. . ... : ... .. . ... ... : ... .. 2 ... ... : ... .. 2 ... ... : ... .. . ... ...
ROW BD : ... .. . P85 ... ... : ... .. 3 ... ... ... : ... .. . ... : ... .. 0 ... : ... .. . ... ... : ... .. . ... ... : ... .. . ... ... : ... .. . ... ...
ROW BE : ... .. . P86 ... ... : ... .. . ... ... ... : --- .. . ... : ... .. . ... : ... .. . ... ... : ... .. . ... ... : ... .. . ... ... : --- .. . ... ...
ROW BF : ... .. . P84 ... ... : ... .. . ... ... ... : ... .. . ... : ... .. . ... : ... .. . ... ... : ... .. . ... ... : ... .. . ... ... : ... .. . ... ...
ROW C0 : ... .. . P80 ... ... : E-3 00 A ... ... ... : A#2 00 . P82 : 1-# 00 F ... : ... .. . ... ... : G#3 01 6 ... ... : ... .. 6 ... ... : E-1 01 F ... ...
ROW C1 : ... .. . P7D ... ... : ... .. 8 ... ... ... : G#2 00 . P8B : ... .. C ... : ... .. . ... ... : ... .. 5 ... ... : ... .. 5 ... ... : ... .. D ... ...
ROW C2 : ... .. . P7A ... ... : ... .. . ... ... ... : G-2 00 . P79 : ... .. 6 ... : ... .. . ... ... : ... .. . ... ... : ... .. . ... ... : ... .. 8 ... ...
ROW C3 : ... .. . ... ... ... : ... .. . ... ... ... : F-2 00 . P8D : ... .. 3 ... : ... .. . ... ... : ... .. . ... ... : ... .. . ... ... : ... .. . ... ...
ROW C4 : ... .. . P7E ... ... : ... .. 4 ... ... ... : E-2 00 . P81 : ... .. 2 ... : ... .. . ... ... : ... .. 2 ... ... : ... .. 2 ... ... : ... .. . ... ...
ROW C5 : ... .. . P81 ... ... : ... .. 3 ... ... ... : D#2 00 . P77 : ... .. 0 ... : ... .. . ... ... : ... .. . ... ... : ... .. . ... ... : ... .. . ... ...
ROW C6 : ... .. . P85 ... ... : ... .. . ... ... ... : --- .. . ... : ... .. . ... : ... .. . ... ... : ... .. . ... ... : ... .. . ... ... : --- .. . P82 ...
ROW C7 : ... .. . P86 ... ... : ... .. . ... ... ... : ... .. . ... : ... .. . ... : ... .. . ... ... : ... .. . ... ... : ... .. . ... ... : ... .. . ... ...
ROW C8 : ... .. . P84 ... ... : G#2 00 A ... ... ... : E-3 00 . P80 : ... .. F ... : ... .. . ... ... : ... .. 4 ... ... : ... .. 4 ... ... : E-2 01 F P80 ...
ROW C9 : ... .. . P80 ... ... : ... .. 8 ... ... ... : ... .. . ... : ... .. C ... : ... .. . ... ... : ... .. . ... ... : ... .. . ... ... : ... .. D ... ...
ROW CA : ... .. . P7D ... ... : ... .. . ... ... ... : ... .. . ... : ... .. 6 ... : ... .. . ... ... : ... .. . ... ... : ... .. . ... ... : ... .. 8 ... ...
ROW CB : ... .. . P7A ... ... : ... .. . ... ... ... : ... .. . ... : ... .. 3 ... : ... .. . ... ... : ... .. . ... ... : ... .. . ... ... : ... .. . ... ...
ROW CC : ... .. . ... ... ... : ... .. 4 ... ... ... : ... .. . ... : ... .. 2 ... : ... .. . ... ... : ... .. 2 ... ... : ... .. 2 ... ... : ... .. . ... ...
ROW CD : ... .. . P7D ... ... : ... .. 3 ... ... ... : ... .. . ... : ... .. 0 ... : ... .. . ... ... : ... .. . ... ... : ... .. . ... ... : ... .. . ... ...
ROW CE : ... .. . P80 ... ... : ... .. . ... ... ... : --- .. . ... : ... .. . ... : ... .. . ... ... : ... .. . ... ... : ... .. . ... ... : --- .. . P89 ...
ROW CF : ... .. . P84 ... ... : ... .. . ... ... ... : ... .. . ... : ... .. . ... : ... .. . ... ... : ... .. . ... ... : ... .. . ... ... : ... .. . ... ...
ROW D0 : B-3 00 F P80 ... ... : B-2 00 A ... ... ... : B-3 00 . P7D : 5-# 00 F ... : ... .. . ... ... : ... .. 4 ... ... : ... .. 4 ... ... : E-1 01 F P80 ...
ROW D1 : ... .. E ... ... ... : ... .. 8 ... ... ... : A#3 00 . P7C : ... .. C ... : ... .. . ... ... : ... .. . ... ... : ... .. . ... ... : ... .. D ... ...
ROW D2 : ... .. D ... ... ... : ... .. . ... ... ... : A-3 00 . P7B : ... .. 6 ... : ... .. . ... ... : ... .. . ... ... : ... .. . ... ... : ... .. 8 ... ...
ROW D3 : ... .. A ... ... ... : ... .. . ... ... ... : G#3 00 . ... : ... .. 3 ... : ... .. . ... ... : ... .. . ... ... : ... .. . ... ... : ... .. . ... ...
ROW D4 : ... .. . ... ... ... : ... .. 4 ... ... ... : G-3 00 . P7C : ... .. 2 ... : ... .. . ... ... : ... .. 2 ... ... : ... .. 2 ... ... : ... .. . ... ...
ROW D5 : ... .. . ... ... ... : ... .. 3 ... ... ... : F#3 00 . P7E : ... .. 0 ... : ... .. . ... ... : ... .. . ... ... : ... .. . ... ... : ... .. . ... ...
ROW D6 : ... .. . ... ... ... : ... .. . ... ... ... : --- .. . ... : ... .. . ... : ... .. . ... ... : ... .. . ... ... : ... .. . ... ... : --- .. . P82 ...
ROW D7 : ... .. . ... ... ... : ... .. . ... ... ... : ... .. . ... : ... .. . ... : ... .. . ... ... : ... .. . ... ... : ... .. . ... ... : ... .. . ... ...
ROW D8 : ... .. . ... ... ... : E-3 00 A ... ... ... : E-3 00 . P80 : 1-# 00 F ... : ... .. . ... ... : ... .. 4 ... ... : ... .. 4 ... ... : E-2 01 F P80 ...
ROW D9 : ... .. . ... ... ... : ... .. 8 ... ... ... : ... .. . ... : ... .. C ... : ... .. . ... ... : ... .. . ... ... : ... .. . ... ... : ... .. D ... ...
ROW DA : ... .. . ... ... ... : ... .. . ... ... ... : ... .. . ... : ... .. 6 ... : ... .. . ... ... : ... .. . ... ... : ... .. . ... ... : ... .. 8 ... ...
ROW DB : ... .. . ... ... ... : ... .. . ... ... ... : ... .. . ... : ... .. 3 ... : ... .. . ... ... : ... .. . ... ... : ... .. . ... ... : ... .. . ... ...
ROW DC : ... .. . ... ... ... : ... .. 4 ... ... ... : ... .. . ... : ... .. 2 ... : ... .. . ... ... : ... .. 2 ... ... : ... .. 2 ... ... : ... .. . ... ...
ROW DD : ... .. 2 ... ... ... : ... .. 3 ... ... ... : ... .. . ... : ... .. 0 ... : ... .. . ... ... : ... .. . ... ... : ... .. . ... ... : ... .. . ... ...
ROW DE : ... .. . ... ... ... : ... .. . ... ... ... : --- .. . ... : ... .. . ... : ... .. . ... ... : ... .. . ... ... : ... .. . ... ... : --- .. . P89 ...
ROW DF : ... .. . ... ... ... : ... .. . ... ... ... : ... .. . ... : ... .. . ... : ... .. . ... ... : ... .. . ... ... : ... .. . ... ... : ... .. . ... ...
ROW E0 : G#4 00 F ... ... ... : D#3 00 A ... ... ... : A#2 00 . P82 : C-# 00 8 ... : ... .. . ... ... : ... .. 4 ... ... : ... .. 4 ... ... : E-1 01 F P80 ...
ROW E1 : ... .. E ... ... ... : ... .. 8 ... ... ... : G#2 00 . P8B : ... .. 6 ... : ... .. . ... ... : ... .. . ... ... : ... .. . ... ... : ... .. D ... ...
ROW E2 : ... .. D ... ... ... : ... .. . ... ... ... : G-2 00 . P79 : ... .. 3 ... : ... .. . ... ... : ... .. . ... ... : ... .. . ... ... : ... .. 8 ... ...
ROW E3 : ... .. A ... ... ... : ... .. . ... ... ... : F-2 00 . P8D : ... .. 1 ... : ... .. . ... ... : ... .. . ... ... : ... .. . ... ... : ... .. . ... ...
ROW E4 : ... .. . ... ... ... : ... .. 4 ... ... ... : E-2 00 . P81 : ... .. . ... : ... .. . ... ... : ... .. 2 ... ... : ... .. 2 ... ... : ... .. . ... ...
ROW E5 : ... .. . ... ... ... : ... .. 3 ... ... ... : D#2 00 . P77 : ... .. 0 ... : ... .. . ... ... : ... .. . ... ... : ... .. . ... ... : ... .. . ... ...
ROW E6 : ... .. . ... ... ... : ... .. . ... ... ... : --- .. . ... : ... .. . ... : ... .. . ... ... : ... .. . ... ... : ... .. . ... ... : --- .. . P82 ...
ROW E7 : ... .. . ... ... ... : ... .. . ... ... ... : ... .. . ... : ... .. . ... : ... .. . ... ... : ... .. . ... ... : ... .. . ... ... : ... .. . ... ...
ROW E8 : F#4 00 F ... ... ... : F#2 00 A ... ... ... : G#3 00 . P85 : 1-# 00 F ... : ... .. . ... ... : ... .. 4 ... ... : ... .. 4 ... ... : E-2 01 F P80 ...
ROW E9 : ... .. E ... ... ... : ... .. 8 ... ... ... : F-3 00 . P86 : ... .. C ... : ... .. . ... ... : ... .. . ... ... : ... .. . ... ... : ... .. D ... ...
ROW EA : ... .. D ... ... ... : ... .. . ... ... ... : D#3 00 . P7C : ... .. 6 ... : ... .. . ... ... : ... .. . ... ... : ... .. . ... ... : ... .. 8 ... ...
ROW EB : ... .. A ... ... ... : ... .. . ... ... ... : C#3 00 . P76 : ... .. 3 ... : ... .. . ... ... : ... .. . ... ... : ... .. . ... ... : ... .. . ... ...
ROW EC : ... .. . ... ... ... : ... .. 4 ... ... ... : B-2 00 . P75 : ... .. 2 ... : ... .. . ... ... : ... .. 2 ... ... : ... .. 2 ... ... : ... .. . ... ...
ROW ED : ... .. 2 ... ... ... : ... .. 3 ... ... ... : A-2 00 . P7A : ... .. 0 ... : ... .. . ... ... : ... .. . ... ... : ... .. . ... ... : ... .. . ... ...
ROW EE : ... .. . ... ... ... : ... .. . ... ... ... : --- .. . ... : ... .. . ... : ... .. . ... ... : ... .. . ... ... : ... .. . ... ... : --- .. . P89 ...
ROW EF : ... .. . ... ... ... : ... .. . ... ... ... : ... .. . ... : ... .. . ... : ... .. . ... ... : ... .. . ... ... : ... .. . ... ... : ... .. . ... ...
ROW F0 : G#4 00 F ... ... ... : E-3 00 A ... ... ... : B-3 00 . P7D : 5-# 00 F ... : ... .. . ... ... : ... .. 4 ... ... : ... .. 4 ... ... : E-1 01 F P80 ...
ROW F1 : ... .. E ... ... ... : ... .. 8 ... ... ... : A#3 00 . P7C : ... .. C ... : ... .. . ... ... : ... .. . ... ... : ... .. . ... ... : ... .. D ... ...
ROW F2 : ... .. D ... ... ... : ... .. . ... ... ... : A-3 00 . P7B : ... .. 6 ... : ... .. . ... ... : ... .. . ... ... : ... .. . ... ... : ... .. 8 ... ...
ROW F3 : ... .. A ... ... ... : ... .. . ... ... ... : G#3 00 . ... : ... .. 3 ... : ... .. . ... ... : ... .. . ... ... : ... .. . ... ... : ... .. . ... ...
ROW F4 : ... .. . ... ... ... : ... .. 4 ... ... ... : G-3 00 . P7C : ... .. 2 ... : ... .. . ... ... : ... .. 2 ... ... : ... .. 2 ... ... : ... .. . ... ...
ROW F5 : ... .. 2 ... ... ... : ... .. 3 ... ... ... : F#3 00 . P7E : ... .. 0 ... : ... .. . ... ... : ... .. . ... ... : ... .. . ... ... : ... .. . ... ...
ROW F6 : ... .. . ... ... ... : ... .. . ... ... ... : --- .. . ... : ... .. . ... : ... .. . ... ... : ... .. . ... ... : ... .. . ... ... : --- .. . P82 ...
ROW F7 : ... .. . ... ... ... : ... .. . ... ... ... : ... .. . ... : ... .. . ... : ... .. . ... ... : ... .. . ... ... : ... .. . ... ... : ... .. . ... ...
ROW F8 : B-3 00 F ... ... ... : G#2 00 A ... ... ... : E-3 00 . P80 : C-# 00 8 ... : ... .. . ... ... : ... .. 4 ... ... : ... .. 4 ... ... : E-2 01 F P80 ...
ROW F9 : ... .. E ... ... ... : ... .. 8 ... ... ... : ... .. . ... : ... .. 6 ... : ... .. . ... ... : ... .. . ... ... : ... .. . ... ... : ... .. D ... ...
ROW FA : ... .. D ... ... ... : ... .. . ... ... ... : ... .. . ... : ... .. 3 ... : ... .. . ... ... : ... .. . ... ... : ... .. . ... ... : ... .. 8 ... ...
ROW FB : ... .. A ... ... ... : ... .. . ... ... ... : ... .. . ... : ... .. 1 ... : ... .. . ... ... : ... .. . ... ... : ... .. . ... ... : ... .. . ... ...
ROW FC : ... .. . ... ... ... : ... .. 4 ... ... ... : ... .. . ... : ... .. . ... : ... .. . ... ... : ... .. 2 ... ... : ... .. 2 ... ... : ... .. . ... ...
ROW FD : ... .. . ... ... ... : ... .. 3 ... ... ... : ... .. . ... : ... .. 0 ... : ... .. . ... ... : ... .. . ... ... : ... .. . ... ... : ... .. . ... ...
ROW FE : ... .. . ... ... ... : ... .. . ... ... ... : --- .. . ... : ... .. . ... : ... .. . ... ... : ... .. . ... ... : ... .. . ... ... : --- .. . P89 ...
ROW FF : ... .. . ... ... ... : ... .. . ... ... ... : ... .. . ... : ... .. . ... : ... .. . ... ... : ... .. . ... ... : ... .. . ... ... : ... .. . ... ...

PATTERN 17
ROW 00 : ... .. . ... ... ... : B-2 00 A ... ... ... : A#2 00 . P82 : 1-# 00 F ... : ... .. . ... ... : ... .. 4 ... ... : ... .. 4 ... ... : E-1 01 F P80 ...
ROW 01 : ... .. . ... ... ... : ... .. 8 ... ... ... : G#2 00 . P8B : ... .. C ... : ... .. . ... ... : ... .. . ... ... : ... .. . ... ... : ... .. D ... ...
ROW 02 : ... .. . ... ... ... : ... .. . ... ... ... : G-2 00 . P79 : ... .. 6 ... : ... .. . ... ... : ... .. . ... ... : ... .. . ... ... : ... .. 8 ... ...
ROW 03 : ... .. . ... ... ... : ... .. . ... ... ... : F-2 00 . P8D : ... .. 3 ... : ... .. . ... ... : ... .. . ... ... : ... .. . ... ... : ... .. . ... ...
ROW 04 : ... .. . ... ... ... : ... .. 4 ... ... ... : E-2 00 . P81 : ... .. 2 ... : ... .. . ... ... : ... .. 2 ... ... : ... .. 2 ... ... : ... .. . ... ...
ROW 05 : ... .. . ... ... ... : ... .. 3 ... ... ... : D#2 00 . P77 : ... .. 0 ... : ... .. . ... ... : ... .. . ... ... : ... .. . ... ... : ... .. . ... ...
ROW 06 : ... .. . ... ... ... : ... .. . ... ... ... : --- .. . ... : ... .. . ... : ... .. . ... ... : ... .. . ... ... : ... .. . ... ... : --- .. . P82 ...
ROW 07 : ... .. . ... ... ... : ... .. . ... ... ... : ... .. . ... : ... .. . ... : ... .. . ... ... : ... .. . ... ... : ... .. . ... ... : ... .. . ... ...
ROW 08 : ... .. . ... ... ... : E-3 00 A ... ... ... : E-3 00 . P80 : ... .. F ... : ... .. . ... ... : ... .. 4 ... ... : ... .. 4 ... ... : E-2 01 F P80 ...
ROW 09 : ... .. . ... ... ... : ... .. 8 ... ... ... : ... .. . ... : ... .. C ... : ... .. . ... ... : ... .. . ... ... : ... .. . ... ... : ... .. D ... ...
ROW 0A : ... .. . ... ... ... : ... .. . ... ... ... : ... .. . ... : ... .. 6 ... : ... .. . ... ... : ... .. . ... ... : ... .. . ... ... : ... .. 8 ... ...
ROW 0B : ... .. . ... ... ... : ... .. . ... ... ... : ... .. . ... : ... .. 3 ... : ... .. . ... ... : ... .. . ... ... : ... .. . ... ... : ... .. . ... ...
ROW 0C : ... .. . P84 ... ... : ... .. 4 ... ... ... : ... .. . ... : ... .. 2 ... : ... .. . ... ... : ... .. 2 ... ... : ... .. 2 ... ... : ... .. . ... ...
ROW 0D : ... .. . P86 ... ... : ... .. 3 ... ... ... : ... .. . ... : ... .. 0 ... : ... .. . ... ... : ... .. . ... ... : ... .. . ... ... : ... .. . ... ...
ROW 0E : ... .. . P85 ... ... : ... .. . ... ... ... : --- .. . ... : ... .. . ... : ... .. . ... ... : ... .. . ... ... : ... .. . ... ... : --- .. . P89 ...
ROW 0F : ... .. . P82 ... ... : ... .. . ... ... ... : ... .. . ... : ... .. . ... : ... .. . ... ... : ... .. . ... ... : ... .. . ... ... : ... .. . ... ...
ROW 10 : ... .. . P7E ... ... : D#3 00 A ... ... ... : B-3 00 . P7D : 5-# 00 F ... : ... .. . ... ... : ... .. 4 ... ... : ... .. 4 ... ... : E-1 01 F P80 ...
ROW 11 : ... .. . P7B ... ... : ... .. 8 ... ... ... : A#3 00 . P7C : ... .. C ... : ... .. . ... ... : ... .. . ... ... : ... .. . ... ... : ... .. D ... ...
ROW 12 : ... .. . P7A ... ... : ... .. . ... ... ... : A-3 00 . P7B : ... .. 6 ... : ... .. . ... ... : ... .. . ... ... : ... .. . ... ... : ... .. 8 ... ...
ROW 13 : ... .. . P7C ... ... : ... .. . ... ... ... : G#3 00 . ... : ... .. 3 ... : ... .. . ... ... : ... .. . ... ... : ... .. . ... ... : ... .. . ... ...
ROW 14 : ... .. . P80 ... ... : ... .. 4 ... ... ... : G-3 00 . P7C : ... .. 2 ... : ... .. . ... ... : ... .. 2 ... ... : ... .. 2 ... ... : ... .. . ... ...
ROW 15 : ... .. . P83 ... ... : ... .. 3 ... ... ... : F#3 00 . P7E : ... .. 0 ... : ... .. . ... ... : ... .. . ... ... : ... .. . ... ... : ... .. . ... ...
ROW 16 : ... .. . P86 ... ... : ... .. . ... ... ... : --- .. . ... : ... .. . ... : ... .. . ... ... : ... .. . ... ... : ... .. . ... ... : --- .. . P82 ...
ROW 17 : ... .. . ... ... ... : ... .. . ... ... ... : ... .. . ... : ... .. . ... : ... .. . ... ... : ... .. . ... ... : ... .. . ... ... : ... .. . ... ...
ROW 18 : ... .. . P82 ... ... : F#2 00 A ... ... ... : G#3 00 . P85 : 1-# 00 F ... : ... .. . ... ... : ... .. 4 ... ... : ... .. 4 ... ... : E-2 01 F P80 ...
ROW 19 : ... .. . P7F ... ... : ... .. 8 ... ... ... : F-3 00 . P86 : ... .. C ... : ... .. . ... ... : ... .. . ... ... : ... .. . ... ... : ... .. D ... ...
ROW 1A : ... .. . P7B ... ... : ... .. . ... ... ... : D#3 00 . P7C : ... .. 6 ... : ... .. . ... ... : ... .. . ... ... : ... .. . ... ... : ... .. 8 ... ...
ROW 1B : ... .. . P7A ... ... : ... .. . ... ... ... : C#3 00 . P76 : ... .. 3 ... : ... .. . ... ... : ... .. . ... ... : ... .. . ... ... : ... .. . ... ...
ROW 1C : ... .. . P7C ... ... : ... .. 4 ... ... ... : B-2 00 . P75 : ... .. 2 ... : ... .. . ... ... : ... .. 2 ... ... : ... .. 2 ... ... : ... .. . ... ...
ROW 1D : ... .. . P80 ... ... : ... .. 3 ... ... ... : A-2 00 . P7A : ... .. 0 ... : ... .. . ... ... : ... .. . ... ... : ... .. . ... ... : ... .. . ... ...
ROW 1E : ... .. . P83 ... ... : ... .. . ... ... ... : --- .. . ... : ... .. . ... : ... .. . ... ... : ... .. . ... ... : ... .. . ... ... : --- .. . P89 ...
ROW 1F : ... .. . P86 ... ... : ... .. . ... ... ... : ... .. . ... : ... .. . ... : ... .. . ... ... : ... .. . ... ... : ... .. . ... ... : ... .. . ... ...
ROW 20 : ... .. . ... ... ... : F#3 00 A ... ... ... : A#2 00 . P82 : C-# 00 8 ... : ... .. . ... ... : C#4 01 6 ... ... : G#3 01 6 ... ... : E-1 01 F P80 ...
ROW 21 : ... .. 2 P83 ... ... : ... .. 8 ... ... ... : G#2 00 . P8B : ... .. 6 ... : ... .. . ... ... : ... .. 5 ... ... : ... .. 5 ... ... : ... .. D ... ...
ROW 22 : ... .. . P80 ... ... : ... .. . ... ... ... : G-2 00 . P79 : ... .. 3 ... : ... .. . ... ... : ... .. . ... ... : ... .. . ... ... : ... .. 8 ... ...
ROW 23 : ... .. . P7C ... ... : ... .. . ... ... ... : F-2 00 . P8D : ... .. 1 ... : ... .. . ... ... : ... .. . ... ... : ... .. . ... ... : ... .. . ... ...
ROW 24 : ... .. 1 P7A ... ... : ... .. 4 ... ... ... : E-2 00 . P81 : ... .. . ... : ... .. . ... ... : ... .. 2 ... ... : ... .. 2 ... ... : ... .. . ... ...
ROW 25 : ... .. . P7B ... ... : ... .. 3 ... ... ... : D#2 00 . P77 : ... .. 0 ... : ... .. . ... ... : ... .. . ... ... : ... .. . ... ... : ... .. . ... ...
ROW 26 : ... .. . P7F ... ... : ... .. . ... ... ... : --- .. . ... : ... .. . ... : ... .. . ... ... : ... .. . ... ... : ... .. . ... ... : --- .. . P82 ...
ROW 27 : ... .. 0 ... ... ... : ... .. . ... ... ... : ... .. . ... : ... .. . ... : ... .. . ... ... : ... .. . ... ... : ... .. . ... ... : ... .. . ... ...
ROW 28 : ... .. . ... ... ... : E-3 00 A ... ... ... : G#3 00 . P85 : 1-# 00 F ... : ... .. . ... ... : ... .. 4 ... ... : ... .. 4 ... ... : E-2 01 F P80 ...
ROW 29 : ... .. . ... ... ... : ... .. 8 ... ... ... : F-3 00 . P86 : ... .. C ... : ... .. . ... ... : ... .. . ... ... : ... .. . ... ... : ... .. D ... ...
ROW 2A : ... .. . ... ... ... : ... .. . ... ... ... : D#3 00 . P7C : ... .. 6 ... : ... .. . ... ... : ... .. . ... ... : ... .. . ... ... : ... .. 8 ... ...
ROW 2B : ... .. . ... ... ... : ... .. . ... ... ... : C#3 00 . P76 : ... .. 3 ... : ... .. . ... ... : ... .. . ... ... : ... .. . ... ... : ... .. . ... ...
ROW 2C : ... .. . ... ... ... : ... .. 4 ... ... ... : B-2 00 . P75 : ... .. 2 ... : ... .. . ... ... : ... .. 2 ... ... : ... .. 2 ... ... : ... .. . ... ...
ROW 2D : ... .. . ... ... ... : ... .. 3 ... ... ... : A-2 00 . P7A : ... .. 0 ... : ... .. . ... ... : ... .. . ... ... : ... .. . ... ... : ... .. . ... ...
ROW 2E : ... .. . ... ... ... : ... .. . ... ... ... : --- .. . ... : ... .. . ... : ... .. . ... ... : ... .. . ... ... : ... .. . ... ... : --- .. . P89 ...
ROW 2F : ... .. . ... ... ... : ... .. . ... ... ... : ... .. . ... : ... .. . ... : ... .. . ... ... : ... .. . ... ... : ... .. . ... ... : ... .. . ... ...
ROW 30 : G#4 00 8 P82 ... ... : G#3 00 A ... ... ... : B-3 00 . P7D : 5-# 00 F ... : ... .. . ... ... : B-3 01 6 ... ... : E-3 01 6 ... ... : G#1 01 F P80 ...
ROW 31 : A-4 00 7 P7D ... ... : ... .. 8 ... ... ... : A#3 00 . P7C : ... .. C ... : ... .. . ... ... : ... .. 5 ... ... : ... .. 5 ... ... : ... .. D ... ...
ROW 32 : ... .. 6 P7E ... ... : ... .. . ... ... ... : A-3 00 . P7B : ... .. 6 ... : ... .. . ... ... : ... .. . ... ... : ... .. . ... ... : ... .. 8 ... ...
ROW 33 : G#4 00 5 P84 ... ... : ... .. . ... ... ... : G#3 00 . ... : ... .. 3 ... : ... .. . ... ... : ... .. . ... ... : ... .. . ... ... : ... .. . ... ...
ROW 34 : ... .. . P80 ... ... : ... .. 4 ... ... ... : G-3 00 . P7C : ... .. 2 ... : ... .. . ... ... : ... .. 2 ... ... : ... .. 2 ... ... : ... .. . ... ...
ROW 35 : ... .. 1 P7D ... ... : ... .. 3 ... ... ... : F#3 00 . P7E : ... .. 0 ... : ... .. . ... ... : ... .. . ... ... : ... .. . ... ... : ... .. . ... ...
ROW 36 : G-4 00 1 P82 ... ... : ... .. . ... ... ... : --- .. . ... : ... .. . ... : ... .. . ... ... : ... .. . ... ... : ... .. . ... ... : --- .. . P7E ...
ROW 37 : ... .. . ... ... ... : ... .. . ... ... ... : ... .. . ... : ... .. . ... : ... .. . ... ... : ... .. . ... ... : ... .. . ... ... : ... .. . ... ...
ROW 38 : B-3 00 8 P7E ... ... : B-3 00 A ... ... ... : G#3 00 . P80 : 1-# 00 F ... : ... .. . ... ... : ... .. 4 ... ... : ... .. 4 ... ... : G#2 01 F P80 ...
ROW 39 : ... .. 7 P81 ... ... : ... .. 8 ... ... ... : ... .. . ... : ... .. C ... : ... .. . ... ... : ... .. . ... ... : ... .. . ... ... : ... .. D ... ...
ROW 3A : ... .. 6 P85 ... ... : ... .. . ... ... ... : ... .. . ... : ... .. 6 ... : ... .. . ... ... : ... .. . ... ... : ... .. . ... ... : ... .. 8 ... ...
ROW 3B : ... .. 5 P86 ... ... : ... .. . ... ... ... : ... .. . ... : ... .. 3 ... : ... .. . ... ... : ... .. . ... ... : ... .. . ... ... : ... .. . ... ...
ROW 3C : ... .. . P84 ... ... : ... .. 4 ... ... ... : ... .. . ... : ... .. 2 ... : ... .. . ... ... : ... .. 2 ... ... : ... .. 2 ... ... : ... .. . ... ...
ROW 3D : ... .. . P80 ... ... : ... .. 3 ... ... ... : ... .. . ... : ... .. 0 ... : ... .. . ... ... : ... .. . ... ... : ... .. . ... ... : ... .. . ... ...
ROW 3E : ... .. . P7D ... ... : ... .. . ... ... ... : --- .. . ... : ... .. . ... : ... .. . ... ... : ... .. . ... ... : ... .. . ... ... : --- .. . P7F ...
ROW 3F : ... .. . P7A ... ... : ... .. . ... ... ... : ... .. . ... : ... .. . ... : ... .. . ... ... : ... .. . ... ... : ... .. . ... ... : ... .. . ... ...
ROW 40 : ... .. . ... ... ... : A-3 00 A ... ... ... : A#2 00 . P82 : ... .. F ... : ... .. . ... ... : A-3 01 6 ... ... : C#3 01 6 ... ... : F#1 01 F P80 ...
ROW 41 : ... .. . P7D ... ... : ... .. 8 ... ... ... : G#2 00 . P8B : ... .. C ... : ... .. . ... ... : ... .. 5 ... ... : ... .. 5 ... ... : ... .. D ... ...
ROW 42 : ... .. . P80 ... ... : ... .. . ... ... ... : G-2 00 . P79 : ... .. 6 ... : ... .. . ... ... : ... .. . ... ... : ... .. . ... ... : ... .. 8 ... ...
ROW 43 : ... .. . P84 ... ... : ... .. . ... ... ... : F-2 00 . P8D : ... .. 3 ... : ... .. . ... ... : ... .. . ... ... : ... .. . ... ... : ... .. . ... ...
ROW 44 : ... .. . P86 ... ... : ... .. 4 ... ... ... : E-2 00 . P81 : ... .. 2 ... : ... .. . ... ... : ... .. 2 ... ... : ... .. 2 ... ... : ... .. . ... ...
ROW 45 : ... .. . P85 ... ... : ... .. 3 ... ... ... : D#2 00 . P77 : ... .. 0 ... : ... .. . ... ... : ... .. . ... ... : ... .. . ... ... : ... .. . ... ...
ROW 46 : ... .. . P81 ... ... : ... .. . ... ... ... : --- .. . ... : ... .. . ... : ... .. . ... ... : ... .. . ... ... : ... .. . ... ... : --- .. . P81 ...
ROW 47 : ... .. . P7E ... ... : ... .. . ... ... ... : ... .. . ... : ... .. . ... : ... .. . ... ... : ... .. . ... ... : ... .. . ... ... : ... .. . ... ...
ROW 48 : ... .. . P7A ... ... : C#3 00 A ... ... ... : F#3 00 . P80 : ... .. F ... : ... .. . ... ... : ... .. 4 ... ... : ... .. 4 ... ... : F#2 01 F P80 ...
ROW 49 : ... .. . ... ... ... : ... .. 8 ... ... ... : ... .. . ... : ... .. C ... : ... .. . ... ... : ... .. . ... ... : ... .. . ... ... : ... .. D ... ...
ROW 4A : ... .. . P7D ... ... : ... .. . ... ... ... : ... .. . ... : ... .. 6 ... : ... .. . ... ... : ... .. . ... ... : ... .. . ... ... : ... .. 8 ... ...
ROW 4B : ... .. . P80 ... ... : ... .. . ... ... ... : ... .. . ... : ... .. 3 ... : ... .. . ... ... : ... .. . ... ... : ... .. . ... ... : ... .. . ... ...
ROW 4C : ... .. . P84 ... ... : ... .. 4 ... ... ... : ... .. . ... : ... .. 2 ... : ... .. . ... ... : ... .. 2 ... ... : ... .. 2 ... ... : ... .. . ... ...
ROW 4D : ... .. . P86 ... ... : ... .. 3 ... ... ... : ... .. . ... : ... .. 0 ... : ... .. . ... ... : ... .. . ... ... : ... .. . ... ... : ... .. . ... ...
ROW 4E : ... .. . P85 ... ... : ... .. . ... ... ... : --- .. . ... : ... .. . ... : ... .. . ... ... : ... .. . ... ... : ... .. . ... ... : --- .. . P84 ...
ROW 4F : ... .. . P82 ... ... : ... .. . ... ... ... : ... .. . ... : ... .. . ... : ... .. . ... ... : ... .. . ... ... : ... .. . ... ... : ... .. . ... ...
ROW 50 : A-3 00 F P80 ... ... : F#3 00 A ... ... ... : B-3 00 . P7D : 5-# 00 F ... : ... .. . ... ... : ... .. 4 ... ... : ... .. 4 ... ... : F#1 01 F P80 ...
ROW 51 : ... .. E ... ... ... : ... .. 8 ... ... ... : A#3 00 . P7C : ... .. C ... : ... .. . ... ... : ... .. . ... ... : ... .. . ... ... : ... .. D ... ...
ROW 52 : ... .. D ... ... ... : ... .. . ... ... ... : A-3 00 . P7B : ... .. 6 ... : ... .. . ... ... : ... .. . ... ... : ... .. . ... ... : ... .. 8 ... ...
ROW 53 : ... .. A ... ... ... : ... .. . ... ... ... : G#3 00 . ... : ... .. 3 ... : ... .. . ... ... : ... .. . ... ... : ... .. . ... ... : ... .. . ... ...
ROW 54 : ... .. . ... ... ... : ... .. 4 ... ... ... : G-3 00 . P7C : ... .. 2 ... : ... .. . ... ... : ... .. 2 ... ... : ... .. 2 ... ... : ... .. . ... ...
ROW 55 : ... .. . ... ... ... : ... .. 3 ... ... ... : F#3 00 . P7E : ... .. 0 ... : ... .. . ... ... : ... .. . ... ... : ... .. . ... ... : ... .. . ... ...
ROW 56 : ... .. . ... ... ... : ... .. . ... ... ... : --- .. . ... : ... .. . ... : ... .. . ... ... : ... .. . ... ... : ... .. . ... ... : --- .. . P81 ...
ROW 57 : ... .. . ... ... ... : ... .. . ... ... ... : ... .. . ... : ... .. . ... : ... .. . ... ... : ... .. . ... ... : ... .. . ... ... : ... .. . ... ...
ROW 58 : ... .. . ... ... ... : A-3 00 A ... ... ... : F#3 00 . P80 : 1-# 00 F ... : ... .. . ... ... : ... .. 4 ... ... : ... .. 4 ... ... : F#2 01 F P80 ...
ROW 59 : ... .. . ... ... ... : ... .. 8 ... ... ... : ... .. . ... : ... .. C ... : ... .. . ... ... : ... .. . ... ... : ... .. . ... ... : ... .. D ... ...
ROW 5A : ... .. . ... ... ... : ... .. . ... ... ... : ... .. . ... : ... .. 6 ... : ... .. . ... ... : ... .. . ... ... : ... .. . ... ... : ... .. 8 ... ...
ROW 5B : ... .. . ... ... ... : ... .. . ... ... ... : ... .. . ... : ... .. 3 ... : ... .. . ... ... : ... .. . ... ... : ... .. . ... ... : ... .. . ... ...
ROW 5C : ... .. . ... ... ... : ... .. 4 ... ... ... : ... .. . ... : ... .. 2 ... : ... .. . ... ... : ... .. 2 ... ... : ... .. 2 ... ... : ... .. . ... ...
ROW 5D : ... .. . ... ... ... : ... .. 3 ... ... ... : ... .. . ... : ... .. 0 ... : ... .. . ... ... : ... .. . ... ... : ... .. . ... ... : ... .. . ... ...
ROW 5E : ... .. . ... ... ... : ... .. . ... ... ... : --- .. . ... : ... .. . ... : ... .. . ... ... : ... .. . ... ... : ... .. . ... ... : --- .. . P84 ...
ROW 5F : ... .. . ... ... ... : ... .. . ... ... ... : ... .. . ... : ... .. . ... : ... .. . ... ... : ... .. . ... ... : ... .. . ... ... : ... .. . ... ...
ROW 60 : A-4 00 F ... ... ... : G#3 00 A ... ... ... : A#2 00 . P82 : C-# 00 8 ... : ... .. . ... ... : ... .. 4 ... ... : ... .. 4 ... ... : F#1 01 F P80 ...
ROW 61 : ... .. E ... ... ... : ... .. 8 ... ... ... : G#2 00 . P8B : ... .. 6 ... : ... .. . ... ... : ... .. . ... ... : ... .. . ... ... : ... .. D ... ...
ROW 62 : ... .. D ... ... ... : ... .. . ... ... ... : G-2 00 . P79 : ... .. 3 ... : ... .. . ... ... : ... .. . ... ... : ... .. . ... ... : ... .. 8 ... ...
ROW 63 : ... .. A ... ... ... : ... .. . ... ... ... : F-2 00 . P8D : ... .. 1 ... : ... .. . ... ... : ... .. . ... ... : ... .. . ... ... : ... .. . ... ...
ROW 64 : ... .. . ... ... ... : ... .. 4 ... ... ... : E-2 00 . P81 : ... .. . ... : ... .. . ... ... : ... .. 2 ... ... : ... .. 2 ... ... : ... .. . ... ...
ROW 65 : ... .. . ... ... ... : ... .. 3 ... ... ... : D#2 00 . P77 : ... .. 0 ... : ... .. . ... ... : ... .. . ... ... : ... .. . ... ... : ... .. . ... ...
ROW 66 : ... .. . ... ... ... : ... .. . ... ... ... : --- .. . ... : ... .. . ... : ... .. . ... ... : ... .. . ... ... : ... .. . ... ... : --- .. . P81 ...
ROW 67 : ... .. . ... ... ... : ... .. . ... ... ... : ... .. . ... : ... .. . ... : ... .. . ... ... : ... .. . ... ... : ... .. . ... ... : ... .. . ... ...
ROW 68 : G#4 00 F ... ... ... : C#3 00 A ... ... ... : G#3 00 . P85 : 1-# 00 F ... : ... .. . ... ... : ... .. 4 ... ... : ... .. 4 ... ... : F#2 01 F P80 ...
ROW 69 : ... .. E ... ... ... : ... .. 8 ... ... ... : F-3 00 . P86 : ... .. C ... : ... .. . ... ... : ... .. . ... ... : ... .. . ... ... : ... .. D ... ...
ROW 6A : ... .. D ... ... ... : ... .. . ... ... ... : D#3 00 . P7C : ... .. 6 ... : ... .. . ... ... : ... .. . ... ... : ... .. . ... ... : ... .. 8 ... ...
ROW 6B : ... .. A ... ... ... : ... .. . ... ... ... : C#3 00 . P76 : ... .. 3 ... : ... .. . ... ... : ... .. . ... ... : ... .. . ... ... : ... .. . ... ...
ROW 6C : ... .. . ... ... ... : ... .. 4 ... ... ... : B-2 00 . P75 : ... .. 2 ... : ... .. . ... ... : ... .. 2 ... ... : ... .. 2 ... ... : ... .. . ... ...
ROW 6D : ... .. . ... ... ... : ... .. 3 ... ... ... : A-2 00 . P7A : ... .. 0 ... : ... .. . ... ... : ... .. . ... ... : ... .. . ... ... : ... .. . ... ...
ROW 6E : ... .. . ... ... ... : ... .. . ... ... ... : --- .. . ... : ... .. . ... : ... .. . ... ... : ... .. . ... ... : ... .. . ... ... : --- .. . P84 ...
ROW 6F : ... .. . ... ... ... : ... .. . ... ... ... : ... .. . ... : ... .. . ... : ... .. . ... ... : ... .. . ... ... : ... .. . ... ... : ... .. . ... ...
ROW 70 : A-4 00 F ... ... ... : F-3 00 A ... ... ... : B-3 00 . P7D : 5-# 00 F ... : ... .. . ... ... : ... .. 4 ... ... : ... .. 4 ... ... : F#1 01 F P80 ...
ROW 71 : ... .. E ... ... ... : ... .. 8 ... ... ... : A#3 00 . P7C : ... .. C ... : ... .. . ... ... : ... .. . ... ... : ... .. . ... ... : ... .. D ... ...
ROW 72 : ... .. D ... ... ... : ... .. . ... ... ... : A-3 00 . P7B : ... .. 6 ... : ... .. . ... ... : ... .. . ... ... : ... .. . ... ... : ... .. 8 ... ...
ROW 73 : ... .. A ... ... ... : ... .. . ... ... ... : G#3 00 . ... : ... .. 3 ... : ... .. . ... ... : ... .. . ... ... : ... .. . ... ... : ... .. . ... ...
ROW 74 : ... .. . ... ... ... : ... .. 4 ... ... ... : G-3 00 . P7C : ... .. 2 ... : ... .. . ... ... : ... .. 2 ... ... : ... .. 2 ... ... : ... .. . ... ...
ROW 75 : ... .. . ... ... ... : ... .. 3 ... ... ... : F#3 00 . P7E : ... .. 0 ... : ... .. . ... ... : ... .. . ... ... : ... .. . ... ... : ... .. . ... ...
ROW 76 : ... .. . ... ... ... : ... .. . ... ... ... : --- .. . ... : ... .. . ... : ... .. . ... ... : ... .. . ... ... : ... .. . ... ... : --- .. . P81 ...
ROW 77 : ... .. . ... ... ... : ... .. . ... ... ... : ... .. . ... : ... .. . ... : ... .. . ... ... : ... .. . ... ... : ... .. . ... ... : ... .. . ... ...
ROW 78 : C#4 00 F ... ... ... : B-3 00 A ... ... ... : F#3 00 . P80 : 1-# 00 8 ... : ... .. . ... ... : ... .. 4 ... ... : ... .. 4 ... ... : F#2 01 F P80 ...
ROW 79 : ... .. E ... ... ... : ... .. 8 ... ... ... : ... .. . ... : ... .. 6 ... : ... .. . ... ... : ... .. . ... ... : ... .. . ... ... : ... .. D ... ...
ROW 7A : ... .. D ... ... ... : ... .. . ... ... ... : ... .. . ... : ... .. 3 ... : ... .. . ... ... : ... .. . ... ... : ... .. . ... ... : ... .. 8 ... ...
ROW 7B : ... .. A ... ... ... : ... .. . ... ... ... : ... .. . ... : ... .. 1 ... : ... .. . ... ... : ... .. . ... ... : ... .. . ... ... : ... .. . ... ...
ROW 7C : ... .. . ... ... ... : ... .. 4 ... ... ... : ... .. . ... : ... .. . ... : ... .. . ... ... : ... .. 2 ... ... : ... .. 2 ... ... : ... .. . ... ...
ROW 7D : ... .. . ... ... ... : ... .. 3 ... ... ... : ... .. . ... : ... .. 0 ... : ... .. . ... ... : ... .. . ... ... : ... .. . ... ... : ... .. . ... ...
ROW 7E : ... .. . ... ... ... : ... .. . ... ... ... : --- .. . ... : ... .. . ... : ... .. . ... ... : ... .. . ... ... : ... .. . ... ... : --- .. . P84 ...
ROW 7F : ... .. . ... ... ... : ... .. . ... ... ... : ... .. . ... : ... .. . ... : ... .. . ... ... : ... .. . ... ... : ... .. . ... ... : ... .. . ... ...
ROW 80 : ... .. . ... ... ... : A-3 00 A ... ... ... : A#2 00 . P82 : ... .. F ... : ... .. . ... ... : C#4 01 6 ... ... : F#3 01 6 ... ... : F#1 01 F P80 ...
ROW 81 : ... .. . ... ... ... : ... .. 8 ... ... ... : G#2 00 . P8B : ... .. C ... : ... .. . ... ... : ... .. 5 ... ... : ... .. 5 ... ... : ... .. D ... ...
ROW 82 : ... .. . ... ... ... : ... .. . ... ... ... : G-2 00 . P79 : ... .. 6 ... : ... .. . ... ... : ... .. . ... ... : ... .. . ... ... : ... .. 8 ... ...
ROW 83 : ... .. . ... ... ... : ... .. . ... ... ... : F-2 00 . P8D : ... .. 3 ... : ... .. . ... ... : ... .. . ... ... : ... .. . ... ... : ... .. . ... ...
ROW 84 : ... .. . ... ... ... : ... .. 4 ... ... ... : E-2 00 . P81 : ... .. 2 ... : ... .. . ... ... : ... .. 2 ... ... : ... .. 2 ... ... : ... .. . ... ...
ROW 85 : ... .. 2 ... ... ... : ... .. 3 ... ... ... : D#2 00 . P77 : ... .. 0 ... : ... .. . ... ... : ... .. . ... ... : ... .. . ... ... : ... .. . ... ...
ROW 86 : ... .. . ... ... ... : ... .. . ... ... ... : --- .. . ... : ... .. . ... : ... .. . ... ... : ... .. . ... ... : ... .. . ... ... : --- .. . P81 ...
ROW 87 : ... .. . ... ... ... : ... .. . ... ... ... : ... .. . ... : ... .. . ... : ... .. . ... ... : ... .. . ... ... : ... .. . ... ... : ... .. . ... ...
ROW 88 : B-3 00 F ... ... ... : C#3 00 A ... ... ... : F#3 00 . P80 : ... .. F ... : ... .. . ... ... : ... .. 4 ... ... : ... .. 4 ... ... : F#2 01 F P80 ...
ROW 89 : ... .. E ... ... ... : ... .. 8 ... ... ... : ... .. . ... : ... .. C ... : ... .. . ... ... : ... .. . ... ... : ... .. . ... ... : ... .. D ... ...
ROW 8A : ... .. D ... ... ... : ... .. . ... ... ... : ... .. . ... : ... .. 6 ... : ... .. . ... ... : ... .. . ... ... : ... .. . ... ... : ... .. 8 ... ...
ROW 8B : ... .. A ... ... ... : ... .. . ... ... ... : ... .. . ... : ... .. 3 ... : ... .. . ... ... : ... .. . ... ... : ... .. . ... ... : ... .. . ... ...
ROW 8C : ... .. . ... ... ... : ... .. 4 ... ... ... : ... .. . ... : ... .. 2 ... : ... .. . ... ... : ... .. 2 ... ... : ... .. 2 ... ... : ... .. . ... ...
ROW 8D : ... .. . ... ... ... : ... .. 3 ... ... ... : ... .. . ... : ... .. 0 ... : ... .. . ... ... : ... .. . ... ... : ... .. . ... ... : ... .. . ... ...
ROW 8E : ... .. . ... ... ... : ... .. . ... ... ... : --- .. . ... : ... .. . ... : ... .. . ... ... : ... .. . ... ... : ... .. . ... ... : --- .. . P84 ...
ROW 8F : ... .. . ... ... ... : ... .. . ... ... ... : ... .. . ... : ... .. . ... : ... .. . ... ... : ... .. . ... ... : ... .. . ... ... : ... .. . ... ...
ROW 90 : C#4 00 F ... ... ... : F#3 00 A ... ... ... : B-3 00 . P7D : 5-# 00 F ... : ... .. . ... ... : ... .. 4 ... ... : ... .. 4 ... ... : F#1 01 F P80 ...
ROW 91 : ... .. E ... ... ... : ... .. 8 ... ... ... : A#3 00 . P7C : ... .. C ... : ... .. . ... ... : ... .. . ... ... : ... .. . ... ... : ... .. D ... ...
ROW 92 : ... .. D ... ... ... : ... .. . ... ... ... : A-3 00 . P7B : ... .. 6 ... : ... .. . ... ... : ... .. . ... ... : ... .. . ... ... : ... .. 8 ... ...
ROW 93 : ... .. A ... ... ... : ... .. . ... ... ... : G#3 00 . ... : ... .. 3 ... : ... .. . ... ... : ... .. . ... ... : ... .. . ... ... : ... .. . ... ...
ROW 94 : ... .. . ... ... ... : ... .. 4 ... ... ... : G-3 00 . P7C : ... .. 2 ... : ... .. . ... ... : ... .. 2 ... ... : ... .. 2 ... ... : ... .. . ... ...
ROW 95 : ... .. . ... ... ... : ... .. 3 ... ... ... : F#3 00 . P7E : ... .. 0 ... : ... .. . ... ... : ... .. . ... ... : ... .. . ... ... : ... .. . ... ...
ROW 96 : ... .. . ... ... ... : ... .. . ... ... ... : --- .. . ... : ... .. . ... : ... .. . ... ... : ... .. . ... ... : ... .. . ... ... : --- .. . P81 ...
ROW 97 : ... .. . ... ... ... : ... .. . ... ... ... : ... .. . ... : ... .. . ... : ... .. . ... ... : ... .. . ... ... : ... .. . ... ... : ... .. . ... ...
ROW 98 : ... .. . ... ... ... : A-3 00 A ... ... ... : G#3 00 . P85 : 1-# 00 F ... : ... .. . ... ... : ... .. 4 ... ... : ... .. 4 ... ... : F#2 01 F P80 ...
ROW 99 : ... .. . ... ... ... : ... .. 8 ... ... ... : F-3 00 . P86 : ... .. C ... : ... .. . ... ... : ... .. . ... ... : ... .. . ... ... : ... .. D ... ...
ROW 9A : ... .. . ... ... ... : ... .. . ... ... ... : D#3 00 . P7C : ... .. 6 ... : ... .. . ... ... : ... .. . ... ... : ... .. . ... ... : ... .. 8 ... ...
ROW 9B : ... .. . ... ... ... : ... .. . ... ... ... : C#3 00 . P76 : ... .. 3 ... : ... .. . ... ... : ... .. . ... ... : ... .. . ... ... : ... .. . ... ...
ROW 9C : ... .. . ... ... ... : ... .. 4 ... ... ... : B-2 00 . P75 : ... .. 2 ... : ... .. . ... ... : ... .. 2 ... ... : ... .. 2 ... ... : ... .. . ... ...
ROW 9D : ... .. . ... ... ... : ... .. 3 ... ... ... : A-2 00 . P7A : ... .. 0 ... : ... .. . ... ... : ... .. . ... ... : ... .. . ... ... : ... .. . ... ...
ROW 9E : ... .. . ... ... ... : ... .. . ... ... ... : --- .. . ... : ... .. . ... : ... .. . ... ... : ... .. . ... ... : ... .. . ... ... : --- .. . P84 ...
ROW 9F : ... .. . ... ... ... : ... .. . ... ... ... : ... .. . ... : ... .. . ... : ... .. . ... ... : ... .. . ... ... : ... .. . ... ... : ... .. . ... ...
ROW A0 : B-3 00 8 ... ... ... : C#4 00 A ... ... ... : A#2 00 . P82 : C-# 00 8 ... : ... .. . ... ... : F#4 01 6 ... ... : A-3 01 6 ... ... : F#1 01 F P80 ...
ROW A1 : ... .. 7 ... ... ... : ... .. 8 ... ... ... : G#2 00 . P8B : ... .. 6 ... : ... .. . ... ... : ... .. 5 ... ... : ... .. 5 ... ... : ... .. D ... ...
ROW A2 : ... .. 6 ... ... ... : ... .. . ... ... ... : G-2 00 . P79 : ... .. 3 ... : ... .. . ... ... : ... .. . ... ... : ... .. . ... ... : ... .. 8 ... ...
ROW A3 : ... .. 5 ... ... ... : ... .. . ... ... ... : F-2 00 . P8D : ... .. 1 ... : ... .. . ... ... : ... .. . ... ... : ... .. . ... ... : ... .. . ... ...
ROW A4 : ... .. . ... ... ... : ... .. 4 ... ... ... : E-2 00 . P81 : ... .. . ... : ... .. . ... ... : ... .. 2 ... ... : ... .. 2 ... ... : ... .. . ... ...
ROW A5 : ... .. . ... ... ... : ... .. 3 ... ... ... : D#2 00 . P77 : ... .. 0 ... : ... .. . ... ... : ... .. . ... ... : ... .. . ... ... : ... .. . ... ...
ROW A6 : ... .. . ... ... ... : ... .. . ... ... ... : --- .. . ... : ... .. . ... : ... .. . ... ... : ... .. . ... ... : ... .. . ... ... : --- .. . P81 ...
ROW A7 : ... .. . ... ... ... : ... .. . ... ... ... : ... .. . ... : ... .. . ... : ... .. . ... ... : ... .. . ... ... : ... .. . ... ... : ... .. . ... ...
ROW A8 : C#4 00 8 ... ... ... : F#3 00 A ... ... ... : G#3 00 . P85 : 1-# 00 F ... : ... .. . ... ... : ... .. 4 ... ... : ... .. 4 ... ... : F#2 01 F P80 ...
ROW A9 : ... .. 7 ... ... ... : ... .. 8 ... ... ... : F-3 00 . P86 : ... .. C ... : ... .. . ... ... : ... .. . ... ... : ... .. . ... ... : ... .. D ... ...
ROW AA : ... .. 6 ... ... ... : ... .. . ... ... ... : D#3 00 . P7C : ... .. 6 ... : ... .. . ... ... : ... .. . ... ... : ... .. . ... ... : ... .. 8 ... ...
ROW AB : ... .. 5 ... ... ... : ... .. . ... ... ... : C#3 00 . P76 : ... .. 3 ... : ... .. . ... ... : ... .. . ... ... : ... .. . ... ... : ... .. . ... ...
ROW AC : ... .. . ... ... ... : ... .. 4 ... ... ... : B-2 00 . P75 : ... .. 2 ... : ... .. . ... ... : ... .. 2 ... ... : ... .. 2 ... ... : ... .. . ... ...
ROW AD : ... .. . ... ... ... : ... .. 3 ... ... ... : A-2 00 . P7A : ... .. 0 ... : ... .. . ... ... : ... .. . ... ... : ... .. . ... ... : ... .. . ... ...
ROW AE : ... .. . ... ... ... : ... .. . ... ... ... : --- .. . ... : ... .. . ... : ... .. . ... ... : ... .. . ... ... : ... .. . ... ... : --- .. . P84 ...
ROW AF : ... .. . ... ... ... : ... .. . ... ... ... : ... .. . ... : ... .. . ... : ... .. . ... ... : ... .. . ... ... : ... .. . ... ... : ... .. . ... ...
ROW B0 : D#4 00 F ... ... ... : A-3 00 A ... ... ... : B-3 00 . P7D : 5-# 00 F ... : ... .. . ... ... : ... .. 4 ... ... : ... .. 4 ... ... : G#1 01 F P80 ...
ROW B1 : ... .. E ... ... ... : ... .. 8 ... ... ... : A#3 00 . P7C : ... .. C ... : ... .. . ... ... : ... .. . ... ... : ... .. . ... ... : ... .. D ... ...
ROW B2 : ... .. D ... ... ... : ... .. . ... ... ... : A-3 00 . P7B : ... .. 6 ... : ... .. . ... ... : ... .. . ... ... : ... .. . ... ... : ... .. 8 ... ...
ROW B3 : ... .. A ... ... ... : ... .. . ... ... ... : G#3 00 . ... : ... .. 3 ... : ... .. . ... ... : ... .. . ... ... : ... .. . ... ... : ... .. . ... ...
ROW B4 : ... .. . ... ... ... : ... .. 4 ... ... ... : G-3 00 . P7C : ... .. 2 ... : ... .. . ... ... : ... .. 2 ... ... : ... .. 2 ... ... : ... .. . ... ...
ROW B5 : ... .. . ... ... ... : ... .. 3 ... ... ... : F#3 00 . P7E : ... .. 0 ... : ... .. . ... ... : ... .. . ... ... : ... .. . ... ... : ... .. . ... ...
ROW B6 : ... .. . ... ... ... : ... .. . ... ... ... : --- .. . ... : ... .. . ... : ... .. . ... ... : ... .. . ... ... : ... .. . ... ... : --- .. . P7E ...
ROW B7 : ... .. . ... ... ... : ... .. . ... ... ... : ... .. . ... : ... .. . ... : ... .. . ... ... : ... .. . ... ... : ... .. . ... ... : ... .. . ... ...
ROW B8 : E-4 00 F ... ... ... : C#4 00 A ... ... ... : G#3 00 . P80 : C-# 00 8 ... : ... .. . ... ... : ... .. 4 ... ... : ... .. 4 ... ... : G#2 01 F P80 ...
ROW B9 : ... .. E ... ... ... : ... .. 8 ... ... ... : ... .. . ... : ... .. 6 ... : ... .. . ... ... : ... .. . ... ... : ... .. . ... ... : ... .. D ... ...
ROW BA : ... .. D ... ... ... : ... .. . ... ... ... : ... .. . ... : ... .. 3 ... : ... .. . ... ... : ... .. . ... ... : ... .. . ... ... : ... .. 8 ... ...
ROW BB : ... .. A ... ... ... : ... .. . ... ... ... : ... .. . ... : ... .. 1 ... : ... .. . ... ... : ... .. . ... ... : ... .. . ... ... : ... .. . ... ...
ROW BC : ... .. . ... ... ... : ... .. 4 ... ... ... : ... .. . ... : ... .. . ... : ... .. . ... ... : ... .. 2 ... ... : ... .. 2 ... ... : ... .. . ... ...
ROW BD : ... .. . ... ... ... : ... .. 3 ... ... ... : ... .. . ... : ... .. 0 ... : ... .. . ... ... : ... .. . ... ... : ... .. . ... ... : ... .. . ... ...
ROW BE : ... .. . ... ... ... : ... .. . ... ... ... : --- .. . ... : ... .. . ... : ... .. . ... ... : ... .. . ... ... : ... .. . ... ... : --- .. . P7F ...
ROW BF : ... .. . ... ... ... : ... .. . ... ... ... : ... .. . ... : ... .. . ... : ... .. . ... ... : ... .. . ... ... : ... .. . ... ... : ... .. . ... ...
ROW C0 : F#4 00 F ... ... ... : F#4 00 A ... ... ... : A#2 00 . P82 : 1-# 00 F ... : ... .. . ... ... : D#4 01 6 ... ... : F#3 01 6 ... ... : A-1 01 F P80 ...
ROW C1 : ... .. E ... ... ... : ... .. 8 ... ... ... : G#2 00 . P8B : ... .. C ... : ... .. . ... ... : ... .. 5 ... ... : ... .. 5 ... ... : ... .. D ... ...
ROW C2 : ... .. D ... ... ... : ... .. . ... ... ... : G-2 00 . P79 : ... .. 6 ... : ... .. . ... ... : ... .. . ... ... : ... .. . ... ... : ... .. 8 ... ...
ROW C3 : ... .. A ... ... ... : ... .. . ... ... ... : F-2 00 . P8D : ... .. 3 ... : ... .. . ... ... : ... .. . ... ... : ... .. . ... ... : ... .. . ... ...
ROW C4 : ... .. . ... ... ... : ... .. 4 ... ... ... : E-2 00 . P81 : ... .. 2 ... : ... .. . ... ... : ... .. 2 ... ... : ... .. 2 ... ... : ... .. . ... ...
ROW C5 : ... .. . ... ... ... : ... .. 3 ... ... ... : D#2 00 . P77 : ... .. 0 ... : ... .. . ... ... : ... .. . ... ... : ... .. . ... ... : ... .. . ... ...
ROW C6 : ... .. . ... ... ... : ... .. . ... ... ... : --- .. . ... : ... .. . ... : ... .. . ... ... : ... .. . ... ... : ... .. . ... ... : --- .. . P7F ...
ROW C7 : ... .. . ... ... ... : ... .. . ... ... ... : ... .. . ... : ... .. . ... : ... .. . ... ... : ... .. . ... ... : ... .. . ... ... : ... .. . ... ...
ROW C8 : ... .. . ... ... ... : C#4 00 A ... ... ... : A-3 00 . P80 : ... .. F ... : ... .. . ... ... : ... .. 4 ... ... : ... .. 4 ... ... : A-2 01 F P80 ...
ROW C9 : ... .. . ... ... ... : ... .. 8 ... ... ... : ... .. . ... : ... .. C ... : ... .. . ... ... : ... .. . ... ... : ... .. . ... ... : ... .. D ... ...
ROW CA : ... .. . ... ... ... : ... .. . ... ... ... : ... .. . ... : ... .. 6 ... : ... .. . ... ... : ... .. . ... ... : ... .. . ... ... : ... .. 8 ... ...
ROW CB : ... .. . ... ... ... : ... .. . ... ... ... : ... .. . ... : ... .. 3 ... : ... .. . ... ... : ... .. . ... ... : ... .. . ... ... : ... .. . ... ...
ROW CC : ... .. . ... ... ... : ... .. 4 ... ... ... : ... .. . ... : ... .. 2 ... : ... .. . ... ... : ... .. 2 ... ... : ... .. 2 ... ... : ... .. . ... ...
ROW CD : ... .. . ... ... ... : ... .. 3 ... ... ... : ... .. . ... : ... .. 0 ... : ... .. . ... ... : ... .. . ... ... : ... .. . ... ... : ... .. . ... ...
ROW CE : ... .. . ... ... ... : ... .. . ... ... ... : --- .. . ... : ... .. . ... : ... .. . ... ... : ... .. . ... ... : ... .. . ... ... : --- .. . ... ...
ROW CF : ... .. . ... ... ... : ... .. . ... ... ... : ... .. . ... : ... .. . ... : ... .. . ... ... : ... .. . ... ... : ... .. . ... ... : ... .. . ... ...
ROW D0 : ... .. . ... ... ... : A-3 00 A ... ... ... : B-3 00 . P7D : 5-# 00 F ... : ... .. . ... ... : ... .. 4 ... ... : ... .. 4 ... ... : A-1 01 F ... ...
ROW D1 : ... .. . ... ... ... : ... .. 8 ... ... ... : A#3 00 . P7C : ... .. C ... : ... .. . ... ... : ... .. . ... ... : ... .. . ... ... : ... .. D ... ...
ROW D2 : ... .. . ... ... ... : ... .. . ... ... ... : A-3 00 . P7B : ... .. 6 ... : ... .. . ... ... : ... .. . ... ... : ... .. . ... ... : ... .. 8 ... ...
ROW D3 : ... .. . ... ... ... : ... .. . ... ... ... : G#3 00 . ... : ... .. 3 ... : ... .. . ... ... : ... .. . ... ... : ... .. . ... ... : ... .. . ... ...
ROW D4 : ... .. . ... ... ... : ... .. 4 ... ... ... : G-3 00 . P7C : ... .. 2 ... : ... .. . ... ... : ... .. 2 ... ... : ... .. 2 ... ... : ... .. . ... ...
ROW D5 : ... .. . ... ... ... : ... .. 3 ... ... ... : F#3 00 . P7E : ... .. 0 ... : ... .. . ... ... : ... .. . ... ... : ... .. . ... ... : ... .. . ... ...
ROW D6 : ... .. . ... ... ... : ... .. . ... ... ... : --- .. . ... : ... .. . ... : ... .. . ... ... : ... .. . ... ... : ... .. . ... ... : --- .. . P7F ...
ROW D7 : ... .. . ... ... ... : ... .. . ... ... ... : ... .. . ... : ... .. . ... : ... .. . ... ... : ... .. . ... ... : ... .. . ... ... : ... .. . ... ...
ROW D8 : ... .. . ... ... ... : F#3 00 A ... ... ... : A-3 00 . P80 : 1-# 00 F ... : ... .. . ... ... : ... .. 4 ... ... : ... .. 4 ... ... : A-2 01 F P80 ...
ROW D9 : ... .. . ... ... ... : ... .. 8 ... ... ... : ... .. . ... : ... .. C ... : ... .. . ... ... : ... .. . ... ... : ... .. . ... ... : ... .. D ... ...
ROW DA : ... .. . ... ... ... : ... .. . ... ... ... : ... .. . ... : ... .. 6 ... : ... .. . ... ... : ... .. . ... ... : ... .. . ... ... : ... .. 8 ... ...
ROW DB : ... .. . ... ... ... : ... .. . ... ... ... : ... .. . ... : ... .. 3 ... : ... .. . ... ... : ... .. . ... ... : ... .. . ... ... : ... .. . ... ...
ROW DC : ... .. . ... ... ... : ... .. 4 ... ... ... : ... .. . ... : ... .. 2 ... : ... .. . ... ... : ... .. 2 ... ... : ... .. 2 ... ... : ... .. . ... ...
ROW DD : ... .. 2 ... ... ... : ... .. 3 ... ... ... : ... .. . ... : ... .. 0 ... : ... .. . ... ... : ... .. . ... ... : ... .. . ... ... : ... .. . ... ...
ROW DE : ... .. . ... ... ... : ... .. . ... ... ... : --- .. . ... : ... .. . ... : ... .. . ... ... : ... .. . ... ... : ... .. . ... ... : --- .. . ... ...
ROW DF : ... .. . ... ... ... : ... .. . ... ... ... : ... .. . ... : ... .. . ... : ... .. . ... ... : ... .. . ... ... : ... .. . ... ... : ... .. . ... ...
ROW E0 : ... .. F ... ... ... : D#3 00 A ... ... ... : A#2 00 . P82 : C-# 00 8 ... : ... .. . ... ... : C#4 01 6 ... ... : ... .. 4 ... ... : A-1 01 F ... ...
ROW E1 : ... .. E ... ... ... : ... .. 8 ... ... ... : G#2 00 . P8B : ... .. 6 ... : ... .. . ... ... : ... .. 5 ... ... : ... .. . ... ... : ... .. D ... ...
ROW E2 : ... .. D ... ... ... : ... .. . ... ... ... : G-2 00 . P79 : ... .. 3 ... : ... .. . ... ... : ... .. . ... ... : ... .. . ... ... : ... .. 8 ... ...
ROW E3 : ... .. A ... ... ... : ... .. . ... ... ... : F-2 00 . P8D : ... .. 1 ... : ... .. . ... ... : ... .. . ... ... : ... .. . ... ... : ... .. . ... ...
ROW E4 : ... .. . ... ... ... : ... .. 4 ... ... ... : E-2 00 . P81 : ... .. . ... : ... .. . ... ... : ... .. 2 ... ... : ... .. 2 ... ... : ... .. . ... ...
ROW E5 : G-4 00 A P81 ... ... : ... .. 3 ... ... ... : D#2 00 . P77 : ... .. 0 ... : ... .. . ... ... : ... .. . ... ... : ... .. . ... ... : ... .. . ... ...
ROW E6 : G#4 00 A P80 ... ... : ... .. . ... ... ... : --- .. . ... : ... .. . ... : ... .. . ... ... : ... .. . ... ... : ... .. . ... ... : --- .. . P7F ...
ROW E7 : ... .. . ... ... ... : ... .. . ... ... ... : ... .. . ... : ... .. . ... : ... .. . ... ... : ... .. . ... ... : ... .. . ... ... : ... .. . ... ...
ROW E8 : ... .. . ... ... ... : F#3 00 A ... ... ... : A-3 00 . P80 : 1-# 00 F ... : ... .. . ... ... : ... .. 4 ... ... : ... .. 4 ... ... : A-2 01 F P80 ...
ROW E9 : ... .. . ... ... ... : ... .. 8 ... ... ... : ... .. . ... : ... .. C ... : ... .. . ... ... : ... .. . ... ... : ... .. . ... ... : ... .. D ... ...
ROW EA : ... .. . ... ... ... : ... .. . ... ... ... : ... .. . ... : ... .. 6 ... : ... .. . ... ... : ... .. . ... ... : ... .. . ... ... : ... .. 8 ... ...
ROW EB : ... .. . ... ... ... : ... .. . ... ... ... : ... .. . ... : ... .. 3 ... : ... .. . ... ... : ... .. . ... ... : ... .. . ... ... : ... .. . ... ...
ROW EC : ... .. . ... ... ... : ... .. 4 ... ... ... : ... .. . ... : ... .. 2 ... : ... .. . ... ... : ... .. 2 ... ... : ... .. 2 ... ... : ... .. . ... ...
ROW ED : ... .. . ... ... ... : ... .. 3 ... ... ... : ... .. . ... : ... .. 0 ... : ... .. . ... ... : ... .. . ... ... : ... .. . ... ... : ... .. . ... ...
ROW EE : ... .. . ... ... ... : ... .. . ... ... ... : --- .. . ... : ... .. . ... : ... .. . ... ... : ... .. . ... ... : ... .. . ... ... : --- .. . ... ...
ROW EF : ... .. . ... ... ... : ... .. . ... ... ... : ... .. . ... : ... .. . ... : ... .. . ... ... : ... .. . ... ... : ... .. . ... ... : ... .. . ... ...
ROW F0 : ... .. . ... ... ... : A-3 00 A ... ... ... : B-3 00 . P7D : 5-# 00 F ... : ... .. . ... ... : ... .. 4 ... ... : ... .. 4 ... ... : A-1 01 F ... ...
ROW F1 : ... .. . ... ... ... : ... .. 8 ... ... ... : A#3 00 . P7C : ... .. C ... : ... .. . ... ... : ... .. . ... ... : ... .. . ... ... : ... .. D ... ...
ROW F2 : ... .. . ... ... ... : ... .. . ... ... ... : A-3 00 . P7B : ... .. 6 ... : ... .. . ... ... : ... .. . ... ... : ... .. . ... ... : ... .. 8 ... ...
ROW F3 : ... .. . ... ... ... : ... .. . ... ... ... : G#3 00 . ... : ... .. 3 ... : ... .. . ... ... : ... .. . ... ... : ... .. . ... ... : ... .. . ... ...
ROW F4 : ... .. . ... ... ... : ... .. 4 ... ... ... : G-3 00 . P7C : ... .. 2 ... : ... .. . ... ... : ... .. 2 ... ... : ... .. 2 ... ... : ... .. . ... ...
ROW F5 : ... .. . ... ... ... : ... .. 3 ... ... ... : F#3 00 . P7E : ... .. 0 ... : ... .. . ... ... : ... .. . ... ... : ... .. . ... ... : ... .. . ... ...
ROW F6 : ... .. . ... ... ... : ... .. . ... ... ... : --- .. . ... : ... .. . ... : ... .. . ... ... : ... .. . ... ... : ... .. . ... ... : --- .. . P7F ...
ROW F7 : ... .. . ... ... ... : ... .. . ... ... ... : ... .. . ... : ... .. . ... : ... .. . ... ... : ... .. . ... ... : ... .. . ... ... : ... .. . ... ...
ROW F8 : ... .. . ... ... ... : C#4 00 A ... ... ... : A-3 00 . P80 : C-# 00 8 ... : ... .. . ... ... : ... .. 4 ... ... : ... .. 4 ... ... : A-2 01 F P80 ...
ROW F9 : ... .. . ... ... ... : ... .. 8 ... ... ... : ... .. . ... : ... .. 6 ... : ... .. . ... ... : ... .. . ... ... : ... .. . ... ... : ... .. D ... ...
ROW FA : ... .. . ... ... ... : ... .. . ... ... ... : ... .. . ... : ... .. 3 ... : ... .. . ... ... : ... .. . ... ... : ... .. . ... ... : ... .. 8 ... ...
ROW FB : ... .. . ... ... ... : ... .. . ... ... ... : ... .. . ... : ... .. 1 ... : ... .. . ... ... : ... .. . ... ... : ... .. . ... ... : ... .. . ... ...
ROW FC : G-4 00 A ... ... ... : ... .. 4 ... ... ... : ... .. . ... : ... .. . ... : ... .. . ... ... : ... .. 2 ... ... : ... .. 2 ... ... : ... .. . ... ...
ROW FD : F#4 00 A ... ... ... : ... .. 3 ... ... ... : ... .. . ... : ... .. 0 ... : ... .. . ... ... : ... .. . ... ... : ... .. . ... ... : ... .. . ... ...
ROW FE : F-4 00 A P81 ... ... : ... .. . ... ... ... : --- .. . ... : ... .. . ... : ... .. . ... ... : ... .. . ... ... : ... .. . ... ... : --- .. . ... ...
ROW FF : E-4 00 A P83 ... ... : ... .. . ... ... ... : ... .. . ... : ... .. . ... : ... .. . ... ... : ... .. . ... ... : ... .. . ... ... : ... .. . ... ...

PATTERN 18
ROW 00 : D#4 00 F P80 ... ... : C-4 00 A ... ... ... : A#2 00 . P82 : 1-# 00 F ... : ... .. . ... ... : ... .. 6 ... ... : ... .. 6 ... ... : G#1 01 F ... ...
ROW 01 : ... .. E ... ... ... : ... .. 8 ... ... ... : G#2 00 . P8B : ... .. C ... : ... .. . ... ... : ... .. 5 ... ... : ... .. 5 ... ... : ... .. D ... ...
ROW 02 : ... .. D ... ... ... : ... .. . ... ... ... : G-2 00 . P79 : ... .. 6 ... : ... .. . ... ... : ... .. . ... ... : ... .. . ... ... : ... .. 8 ... ...
ROW 03 : ... .. A ... ... ... : ... .. . ... ... ... : F-2 00 . P8D : ... .. 3 ... : ... .. . ... ... : ... .. . ... ... : ... .. . ... ... : ... .. . ... ...
ROW 04 : ... .. . ... ... ... : ... .. 4 ... ... ... : E-2 00 . P81 : ... .. 2 ... : ... .. . ... ... : ... .. 2 ... ... : ... .. 2 ... ... : ... .. . ... ...
ROW 05 : ... .. . ... ... ... : ... .. 3 ... ... ... : D#2 00 . P77 : ... .. 0 ... : ... .. . ... ... : ... .. . ... ... : ... .. . ... ... : ... .. . ... ...
ROW 06 : ... .. . ... ... ... : ... .. . ... ... ... : --- .. . ... : ... .. . ... : ... .. . ... ... : ... .. . ... ... : ... .. . ... ... : --- .. . P7E ...
ROW 07 : ... .. . ... ... ... : ... .. . ... ... ... : ... .. . ... : ... .. . ... : ... .. . ... ... : ... .. . ... ... : ... .. . ... ... : ... .. . ... ...
ROW 08 : ... .. . ... ... ... : G#3 00 A ... ... ... : F#3 00 . P80 : ... .. F ... : ... .. . ... ... : ... .. 4 ... ... : ... .. 4 ... ... : F#1 01 F P80 ...
ROW 09 : ... .. . P83 ... ... : ... .. 8 ... ... ... : ... .. . ... : ... .. C ... : ... .. . ... ... : ... .. . ... ... : ... .. . ... ... : ... .. D ... ...
ROW 0A : E-4 00 A P7C ... ... : ... .. . ... ... ... : ... .. . ... : ... .. 6 ... : ... .. . ... ... : ... .. . ... ... : ... .. . ... ... : ... .. 8 ... ...
ROW 0B : ... .. . P7F ... ... : ... .. . ... ... ... : ... .. . ... : ... .. 3 ... : ... .. . ... ... : ... .. . ... ... : ... .. . ... ... : ... .. . ... ...
ROW 0C : ... .. . P80 ... ... : ... .. 4 ... ... ... : ... .. . ... : ... .. 2 ... : ... .. . ... ... : ... .. 2 ... ... : ... .. 2 ... ... : ... .. . ... ...
ROW 0D : ... .. . ... ... ... : ... .. 3 ... ... ... : ... .. . ... : ... .. 0 ... : ... .. . ... ... : ... .. . ... ... : ... .. . ... ... : ... .. . ... ...
ROW 0E : ... .. . ... ... ... : ... .. . ... ... ... : --- .. . ... : ... .. . ... : ... .. . ... ... : ... .. . ... ... : ... .. . ... ... : --- .. . P81 ...
ROW 0F : ... .. . ... ... ... : ... .. . ... ... ... : ... .. . ... : ... .. . ... : ... .. . ... ... : ... .. . ... ... : ... .. . ... ... : ... .. . ... ...
ROW 10 : ... .. . ... ... ... : F#3 00 A ... ... ... : B-3 00 . P7D : 5-# 00 F ... : ... .. . ... ... : ... .. 4 ... ... : ... .. 4 ... ... : E-1 01 F P80 ...
ROW 11 : ... .. . P7D ... ... : ... .. 8 ... ... ... : A#3 00 . P7C : ... .. C ... : ... .. . ... ... : ... .. . ... ... : ... .. . ... ... : ... .. D ... ...
ROW 12 : D#4 00 A P84 ... ... : ... .. . ... ... ... : A-3 00 . P7B : ... .. 6 ... : ... .. . ... ... : ... .. . ... ... : ... .. . ... ... : ... .. 8 ... ...
ROW 13 : ... .. . P81 ... ... : ... .. . ... ... ... : G#3 00 . ... : ... .. 3 ... : ... .. . ... ... : ... .. . ... ... : ... .. . ... ... : ... .. . ... ...
ROW 14 : ... .. . P80 ... ... : ... .. 4 ... ... ... : G-3 00 . P7C : ... .. 2 ... : ... .. . ... ... : ... .. 2 ... ... : ... .. 2 ... ... : ... .. . ... ...
ROW 15 : ... .. . ... ... ... : ... .. 3 ... ... ... : F#3 00 . P7E : ... .. 0 ... : ... .. . ... ... : ... .. . ... ... : ... .. . ... ... : ... .. . ... ...
ROW 16 : ... .. . ... ... ... : ... .. . ... ... ... : --- .. . ... : ... .. . ... : ... .. . ... ... : ... .. . ... ... : ... .. . ... ... : --- .. . P82 ...
ROW 17 : ... .. . ... ... ... : ... .. . ... ... ... : ... .. . ... : ... .. . ... : ... .. . ... ... : ... .. . ... ... : ... .. . ... ... : ... .. . ... ...
ROW 18 : ... .. . ... ... ... : D#3 00 A ... ... ... : D#3 00 . P80 : 1-# 00 F ... : ... .. . ... ... : ... .. 4 ... ... : ... .. 4 ... ... : D#1 01 F P80 ...
ROW 19 : ... .. . ... ... ... : ... .. 8 ... ... ... : ... .. . ... : ... .. C ... : ... .. . ... ... : ... .. . ... ... : ... .. . ... ... : ... .. D ... ...
ROW 1A : ... .. . ... ... ... : ... .. . ... ... ... : ... .. . ... : ... .. 6 ... : ... .. . ... ... : ... .. . ... ... : ... .. . ... ... : ... .. 8 ... ...
ROW 1B : ... .. . ... ... ... : ... .. . ... ... ... : ... .. . ... : ... .. 3 ... : ... .. . ... ... : ... .. . ... ... : ... .. . ... ... : ... .. . ... ...
ROW 1C : ... .. . ... ... ... : ... .. 4 ... ... ... : ... .. . ... : ... .. 2 ... : ... .. . ... ... : ... .. 2 ... ... : ... .. 2 ... ... : ... .. . ... ...
ROW 1D : ... .. . ... ... ... : ... .. 3 ... ... ... : ... .. . ... : ... .. 0 ... : ... .. . ... ... : ... .. . ... ... : ... .. . ... ... : ... .. . ... ...
ROW 1E : ... .. . ... ... ... : ... .. . ... ... ... : --- .. . ... : ... .. . ... : ... .. . ... ... : ... .. . ... ... : ... .. . ... ... : --- .. . P81 ...
ROW 1F : ... .. . ... ... ... : ... .. . ... ... ... : ... .. . ... : ... .. . ... : ... .. . ... ... : ... .. . ... ... : ... .. . ... ... : ... .. . ... ...
ROW 20 : ... .. . ... ... ... : C-3 00 A ... ... ... : A#2 00 . P82 : C-# 00 8 ... : ... .. . ... ... : C-4 01 6 ... ... : G#3 01 6 ... ... : C#1 01 F P80 ...
ROW 21 : ... .. . ... ... ... : ... .. 8 ... ... ... : G#2 00 . P8B : ... .. 6 ... : ... .. . ... ... : ... .. 5 ... ... : ... .. 5 ... ... : ... .. D ... ...
ROW 22 : ... .. . ... ... ... : ... .. . ... ... ... : G-2 00 . P79 : ... .. 3 ... : ... .. . ... ... : ... .. . ... ... : ... .. . ... ... : ... .. 8 ... ...
ROW 23 : ... .. . ... ... ... : ... .. . ... ... ... : F-2 00 . P8D : ... .. 1 ... : ... .. . ... ... : ... .. . ... ... : ... .. . ... ... : ... .. . ... ...
ROW 24 : ... .. . P84 ... ... : ... .. 4 ... ... ... : E-2 00 . P81 : ... .. . ... : ... .. . ... ... : ... .. 2 ... ... : ... .. 2 ... ... : ... .. . ... ...
ROW 25 : E-4 00 A P7C ... ... : ... .. 3 ... ... ... : D#2 00 . P77 : ... .. 0 ... : ... .. . ... ... : ... .. . ... ... : ... .. . ... ... : ... .. . ... ...
ROW 26 : D#4 00 A P85 ... ... : ... .. . ... ... ... : --- .. . ... : ... .. . ... : ... .. . ... ... : ... .. . ... ... : ... .. . ... ... : --- .. . P81 ...
ROW 27 : ... .. . P82 ... ... : ... .. . ... ... ... : ... .. . ... : ... .. . ... : ... .. . ... ... : ... .. . ... ... : ... .. . ... ... : ... .. . ... ...
ROW 28 : ... .. . P7E ... ... : G#2 00 A ... ... ... : C-3 00 . P80 : 1-# 00 F ... : ... .. . ... ... : ... .. 4 ... ... : ... .. 4 ... ... : C-1 01 F P80 ...
ROW 29 : D-4 00 A P85 ... ... : ... .. 8 ... ... ... : ... .. . ... : ... .. C ... : ... .. . ... ... : ... .. . ... ... : ... .. . ... ... : ... .. D ... ...
ROW 2A : ... .. . P84 ... ... : ... .. . ... ... ... : ... .. . ... : ... .. 6 ... : ... .. . ... ... : ... .. . ... ... : ... .. . ... ... : ... .. 8 ... ...
ROW 2B : D#4 00 A P7C ... ... : ... .. . ... ... ... : ... .. . ... : ... .. 3 ... : ... .. . ... ... : ... .. . ... ... : ... .. . ... ... : ... .. . ... ...
ROW 2C : ... .. . P80 ... ... : ... .. 4 ... ... ... : ... .. . ... : ... .. 2 ... : ... .. . ... ... : ... .. 2 ... ... : ... .. 2 ... ... : ... .. . ... ...
ROW 2D : ... .. . P83 ... ... : ... .. 3 ... ... ... : ... .. . ... : ... .. 0 ... : ... .. . ... ... : ... .. . ... ... : ... .. . ... ... : ... .. . ... ...
ROW 2E : E-4 00 A P7C ... ... : ... .. . ... ... ... : --- .. . ... : ... .. . ... : ... .. . ... ... : ... .. . ... ... : ... .. . ... ... : --- .. . ... ...
ROW 2F : ... .. . ... ... ... : ... .. . ... ... ... : ... .. . ... : ... .. . ... : ... .. . ... ... : ... .. . ... ... : ... .. . ... ... : ... .. . ... ...
ROW 30 : D#4 00 A P82 ... ... : F#2 00 A ... ... ... : B-3 00 . P7D : 5-# 00 F ... : ... .. . ... ... : ... .. 4 ... ... : ... .. 4 ... ... : C#1 01 F ... ...
ROW 31 : ... .. . P7F ... ... : ... .. 8 ... ... ... : A#3 00 . P7C : ... .. C ... : ... .. . ... ... : ... .. . ... ... : ... .. . ... ... : ... .. D ... ...
ROW 32 : D-4 00 A P85 ... ... : ... .. . ... ... ... : A-3 00 . P7B : ... .. 6 ... : ... .. . ... ... : ... .. . ... ... : ... .. . ... ... : ... .. 8 ... ...
ROW 33 : ... .. . P84 ... ... : ... .. . ... ... ... : G#3 00 . ... : ... .. 3 ... : ... .. . ... ... : ... .. . ... ... : ... .. . ... ... : ... .. . ... ...
ROW 34 : D#4 00 A P7C ... ... : ... .. 4 ... ... ... : G-3 00 . P7C : ... .. 2 ... : ... .. . ... ... : ... .. 2 ... ... : ... .. 2 ... ... : ... .. . ... ...
ROW 35 : ... .. . P80 ... ... : ... .. 3 ... ... ... : F#3 00 . P7E : ... .. 0 ... : ... .. . ... ... : ... .. . ... ... : ... .. . ... ... : ... .. . ... ...
ROW 36 : ... .. . P83 ... ... : ... .. . ... ... ... : --- .. . ... : ... .. . ... : ... .. . ... ... : ... .. . ... ... : ... .. . ... ... : --- .. . P81 ...
ROW 37 : E-4 00 A P7C ... ... : ... .. . ... ... ... : ... .. . ... : ... .. . ... : ... .. . ... ... : ... .. . ... ... : ... .. . ... ... : ... .. . ... ...
ROW 38 : ... .. . ... ... ... : D#2 00 A ... ... ... : D#3 00 . P80 : 1-# 00 F ... : ... .. . ... ... : ... .. 4 ... ... : ... .. 4 ... ... : D#1 01 F P80 ...
ROW 39 : D#4 00 A P83 ... ... : ... .. 8 ... ... ... : ... .. . ... : ... .. C ... : ... .. . ... ... : ... .. . ... ... : ... .. . ... ... : ... .. D ... ...
ROW 3A : ... .. . P80 ... ... : ... .. . ... ... ... : ... .. . ... : ... .. 6 ... : ... .. . ... ... : ... .. . ... ... : ... .. . ... ... : ... .. 8 ... ...
ROW 3B : ... .. . P7C ... ... : ... .. . ... ... ... : ... .. . ... : ... .. 3 ... : ... .. . ... ... : ... .. . ... ... : ... .. . ... ... : ... .. . ... ...
ROW 3C : D-4 00 A P84 ... ... : ... .. 4 ... ... ... : ... .. . ... : ... .. 2 ... : ... .. . ... ... : ... .. 2 ... ... : ... .. 2 ... ... : ... .. . ... ...
ROW 3D : ... .. . P85 ... ... : ... .. 3 ... ... ... : ... .. . ... : ... .. 0 ... : ... .. . ... ... : ... .. . ... ... : ... .. . ... ... : ... .. . ... ...
ROW 3E : D#4 00 A P7F ... ... : ... .. . ... ... ... : ... .. . ... : ... .. . ... : ... .. . ... ... : ... .. . ... ... : ... .. . ... ... : ... .. . ... ...
ROW 3F : ... .. . P82 ... ... : ... .. . ... ... ... : ... .. . ... : ... .. . ... : ... .. . ... ... : ... .. . ... ... : ... .. . ... ... : ... .. . ... ...
ROW 40 : E-4 00 A P7C ... ... : E-3 00 A ... ... ... : A#2 00 . P82 : ... .. F ... : ... .. . ... ... : E-4 01 6 ... ... : ... .. 6 ... ... : C#1 01 F ... ...
ROW 41 : ... .. 2 ... ... ... : ... .. 8 ... ... ... : G#2 00 . P8B : ... .. C ... : ... .. . ... ... : ... .. 5 ... ... : ... .. 5 ... ... : ... .. D ... ...
ROW 42 : D#4 00 2 P83 ... ... : ... .. . ... ... ... : G-2 00 . P79 : ... .. 6 ... : ... .. . ... ... : ... .. . ... ... : ... .. . ... ... : ... .. 8 ... ...
ROW 43 : ... .. . P80 ... ... : ... .. . ... ... ... : F-2 00 . P8D : ... .. 3 ... : ... .. . ... ... : ... .. . ... ... : ... .. . ... ... : ... .. . ... ...
ROW 44 : ... .. 1 P7C ... ... : ... .. 4 ... ... ... : E-2 00 . P81 : ... .. 2 ... : ... .. . ... ... : ... .. 2 ... ... : ... .. 2 ... ... : ... .. . ... ...
ROW 45 : D-4 00 1 P84 ... ... : ... .. 3 ... ... ... : D#2 00 . P77 : ... .. 0 ... : ... .. . ... ... : ... .. . ... ... : ... .. . ... ... : ... .. . ... ...
ROW 46 : ... .. . P85 ... ... : ... .. . ... ... ... : --- .. . ... : ... .. . ... : ... .. . ... ... : ... .. . ... ... : ... .. . ... ... : --- .. . P81 ...
ROW 47 : ... .. 0 ... ... ... : ... .. . ... ... ... : ... .. . ... : ... .. . ... : ... .. . ... ... : ... .. . ... ... : ... .. . ... ... : ... .. . ... ...
ROW 48 : ... .. . ... ... ... : G#2 00 A ... ... ... : C#3 00 . P80 : ... .. F ... : ... .. . ... ... : ... .. 4 ... ... : ... .. 4 ... ... : C#1 01 F P80 ...
ROW 49 : ... .. . ... ... ... : ... .. 8 ... ... ... : ... .. . ... : ... .. C ... : ... .. . ... ... : ... .. . ... ... : ... .. . ... ... : ... .. D ... ...
ROW 4A : ... .. . ... ... ... : ... .. . ... ... ... : ... .. . ... : ... .. 6 ... : ... .. . ... ... : ... .. . ... ... : ... .. . ... ... : ... .. 8 ... ...
ROW 4B : ... .. . ... ... ... : ... .. . ... ... ... : ... .. . ... : ... .. 3 ... : ... .. . ... ... : ... .. . ... ... : ... .. . ... ... : ... .. . ... ...
ROW 4C : ... .. . ... ... ... : ... .. 4 ... ... ... : ... .. . ... : ... .. 2 ... : ... .. . ... ... : ... .. 2 ... ... : ... .. 2 ... ... : ... .. . ... ...
ROW 4D : ... .. . ... ... ... : ... .. 3 ... ... ... : ... .. . ... : ... .. 0 ... : ... .. . ... ... : ... .. . ... ... : ... .. . ... ... : ... .. . ... ...
ROW 4E : ... .. . ... ... ... : ... .. . ... ... ... : --- .. . ... : ... .. . ... : ... .. . ... ... : ... .. . ... ... : ... .. . ... ... : --- .. . P81 ...
ROW 4F : ... .. . ... ... ... : ... .. . ... ... ... : ... .. . ... : ... .. . ... : ... .. . ... ... : ... .. . ... ... : ... .. . ... ... : ... .. . ... ...
ROW 50 : E-4 00 F P80 ... ... : C#3 00 A ... ... ... : B-3 00 . P7D : 5-# 00 F ... : ... .. . ... ... : ... .. 4 ... ... : ... .. 4 ... ... : C#1 01 F P80 ...
ROW 51 : ... .. E ... ... ... : ... .. 8 ... ... ... : A#3 00 . P7C : ... .. C ... : ... .. . ... ... : ... .. . ... ... : ... .. . ... ... : ... .. D ... ...
ROW 52 : ... .. D ... ... ... : ... .. . ... ... ... : A-3 00 . P7B : ... .. 6 ... : ... .. . ... ... : ... .. . ... ... : ... .. . ... ... : ... .. 8 ... ...
ROW 53 : ... .. A ... ... ... : ... .. . ... ... ... : G#3 00 . ... : ... .. 3 ... : ... .. . ... ... : ... .. . ... ... : ... .. . ... ... : ... .. . ... ...
ROW 54 : ... .. . ... ... ... : ... .. 4 ... ... ... : G-3 00 . P7C : ... .. 2 ... : ... .. . ... ... : ... .. 2 ... ... : ... .. 2 ... ... : ... .. . ... ...
ROW 55 : ... .. . ... ... ... : ... .. 3 ... ... ... : F#3 00 . P7E : ... .. 0 ... : ... .. . ... ... : ... .. . ... ... : ... .. . ... ... : ... .. . ... ...
ROW 56 : ... .. . ... ... ... : ... .. . ... ... ... : --- .. . ... : ... .. . ... : ... .. . ... ... : ... .. . ... ... : ... .. . ... ... : --- .. . P81 ...
ROW 57 : ... .. . ... ... ... : ... .. . ... ... ... : ... .. . ... : ... .. . ... : ... .. . ... ... : ... .. . ... ... : ... .. . ... ... : ... .. . ... ...
ROW 58 : ... .. . ... ... ... : E-3 00 A ... ... ... : C#3 00 . P80 : 1-# 00 F ... : ... .. . ... ... : ... .. 4 ... ... : ... .. 4 ... ... : C#1 01 F P80 ...
ROW 59 : ... .. 2 ... ... ... : ... .. 8 ... ... ... : ... .. . ... : ... .. C ... : ... .. . ... ... : ... .. . ... ... : ... .. . ... ... : ... .. D ... ...
ROW 5A : ... .. . ... ... ... : ... .. . ... ... ... : ... .. . ... : ... .. 6 ... : ... .. . ... ... : ... .. . ... ... : ... .. . ... ... : ... .. 8 ... ...
ROW 5B : ... .. . ... ... ... : ... .. . ... ... ... : ... .. . ... : ... .. 3 ... : ... .. . ... ... : ... .. . ... ... : ... .. . ... ... : ... .. . ... ...
ROW 5C : ... .. 1 ... ... ... : ... .. 4 ... ... ... : ... .. . ... : ... .. 2 ... : ... .. . ... ... : ... .. 2 ... ... : ... .. 2 ... ... : ... .. . ... ...
ROW 5D : ... .. . ... ... ... : ... .. 3 ... ... ... : ... .. . ... : ... .. 0 ... : ... .. . ... ... : ... .. . ... ... : ... .. . ... ... : ... .. . ... ...
ROW 5E : ... .. . ... ... ... : ... .. . ... ... ... : --- .. . ... : ... .. . ... : ... .. . ... ... : ... .. . ... ... : ... .. . ... ... : --- .. . P81 ...
ROW 5F : ... .. 0 ... ... ... : ... .. . ... ... ... : ... .. . ... : ... .. . ... : ... .. . ... ... : ... .. . ... ... : ... .. . ... ... : ... .. . ... ...
ROW 60 : E-4 00 F P80 ... ... : D#3 00 A ... ... ... : A#2 00 . P82 : C-# 00 8 ... : ... .. . ... ... : ... .. 4 ... ... : ... .. 4 ... ... : C#1 01 F P80 ...
ROW 61 : ... .. E ... ... ... : ... .. 8 ... ... ... : G#2 00 . P8B : ... .. 6 ... : ... .. . ... ... : ... .. . ... ... : ... .. . ... ... : ... .. D ... ...
ROW 62 : ... .. D ... ... ... : ... .. . ... ... ... : G-2 00 . P79 : ... .. 3 ... : ... .. . ... ... : ... .. . ... ... : ... .. . ... ... : ... .. 8 ... ...
ROW 63 : ... .. A ... ... ... : ... .. . ... ... ... : F-2 00 . P8D : ... .. 1 ... : ... .. . ... ... : ... .. . ... ... : ... .. . ... ... : ... .. . ... ...
ROW 64 : ... .. . ... ... ... : ... .. 4 ... ... ... : E-2 00 . P81 : ... .. . ... : ... .. . ... ... : ... .. 2 ... ... : ... .. 2 ... ... : ... .. . ... ...
ROW 65 : ... .. . ... ... ... : ... .. 3 ... ... ... : D#2 00 . P77 : ... .. 0 ... : ... .. . ... ... : ... .. . ... ... : ... .. . ... ... : ... .. . ... ...
ROW 66 : ... .. . ... ... ... : ... .. . ... ... ... : --- .. . ... : ... .. . ... : ... .. . ... ... : ... .. . ... ... : ... .. . ... ... : --- .. . P81 ...
ROW 67 : ... .. . ... ... ... : ... .. . ... ... ... : ... .. . ... : ... .. . ... : ... .. . ... ... : ... .. . ... ... : ... .. . ... ... : ... .. . ... ...
ROW 68 : D#4 00 F ... ... ... : G#2 00 A ... ... ... : G#3 00 . P85 : 1-# 00 F ... : ... .. . ... ... : ... .. 4 ... ... : ... .. 4 ... ... : C#1 01 F P80 ...
ROW 69 : ... .. E ... ... ... : ... .. 8 ... ... ... : F-3 00 . P86 : ... .. C ... : ... .. . ... ... : ... .. . ... ... : ... .. . ... ... : ... .. D ... ...
ROW 6A : ... .. D ... ... ... : ... .. . ... ... ... : D#3 00 . P7C : ... .. 6 ... : ... .. . ... ... : ... .. . ... ... : ... .. . ... ... : ... .. 8 ... ...
ROW 6B : ... .. A ... ... ... : ... .. . ... ... ... : C#3 00 . P76 : ... .. 3 ... : ... .. . ... ... : ... .. . ... ... : ... .. . ... ... : ... .. . ... ...
ROW 6C : ... .. . ... ... ... : ... .. 4 ... ... ... : B-2 00 . P75 : ... .. 2 ... : ... .. . ... ... : ... .. 2 ... ... : ... .. 2 ... ... : ... .. . ... ...
ROW 6D : ... .. 2 ... ... ... : ... .. 3 ... ... ... : A-2 00 . P7A : ... .. 0 ... : ... .. . ... ... : ... .. . ... ... : ... .. . ... ... : ... .. . ... ...
ROW 6E : ... .. . ... ... ... : ... .. . ... ... ... : --- .. . ... : ... .. . ... : ... .. . ... ... : ... .. . ... ... : ... .. . ... ... : --- .. . P81 ...
ROW 6F : ... .. . ... ... ... : ... .. . ... ... ... : ... .. . ... : ... .. . ... : ... .. . ... ... : ... .. . ... ... : ... .. . ... ... : ... .. . ... ...
ROW 70 : E-4 00 F ... ... ... : E-3 00 A ... ... ... : B-3 00 . P7D : 5-# 00 F ... : ... .. . ... ... : ... .. 4 ... ... : ... .. 4 ... ... : C#1 01 F P80 ...
ROW 71 : ... .. E ... ... ... : ... .. 8 ... ... ... : A#3 00 . P7C : ... .. C ... : ... .. . ... ... : ... .. . ... ... : ... .. . ... ... : ... .. D ... ...
ROW 72 : ... .. D ... ... ... : ... .. . ... ... ... : A-3 00 . P7B : ... .. 6 ... : ... .. . ... ... : ... .. . ... ... : ... .. . ... ... : ... .. 8 ... ...
ROW 73 : ... .. A ... ... ... : ... .. . ... ... ... : G#3 00 . ... : ... .. 3 ... : ... .. . ... ... : ... .. . ... ... : ... .. . ... ... : ... .. . ... ...
ROW 74 : ... .. . ... ... ... : ... .. 4 ... ... ... : G-3 00 . P7C : ... .. 2 ... : ... .. . ... ... : ... .. 2 ... ... : ... .. 2 ... ... : ... .. . ... ...
ROW 75 : ... .. 2 ... ... ... : ... .. 3 ... ... ... : F#3 00 . P7E : ... .. 0 ... : ... .. . ... ... : ... .. . ... ... : ... .. . ... ... : ... .. . ... ...
ROW 76 : ... .. . ... ... ... : ... .. . ... ... ... : --- .. . ... : ... .. . ... : ... .. . ... ... : ... .. . ... ... : ... .. . ... ... : --- .. . P81 ...
ROW 77 : ... .. . ... ... ... : ... .. . ... ... ... : ... .. . ... : ... .. . ... : ... .. . ... ... : ... .. . ... ... : ... .. . ... ... : ... .. . ... ...
ROW 78 : G#3 00 F ... ... ... : G#2 00 A ... ... ... : C#3 00 . P80 : 1-# 00 F ... : ... .. . ... ... : ... .. 4 ... ... : ... .. 4 ... ... : C#1 01 F P80 ...
ROW 79 : ... .. E ... ... ... : ... .. 8 ... ... ... : ... .. . ... : ... .. C ... : ... .. . ... ... : ... .. . ... ... : ... .. . ... ... : ... .. D ... ...
ROW 7A : ... .. D ... ... ... : ... .. . ... ... ... : ... .. . ... : ... .. 6 ... : ... .. . ... ... : ... .. . ... ... : ... .. . ... ... : ... .. 8 ... ...
ROW 7B : ... .. A ... ... ... : ... .. . ... ... ... : ... .. . ... : ... .. 3 ... : ... .. . ... ... : ... .. . ... ... : ... .. . ... ... : ... .. . ... ...
ROW 7C : ... .. . ... ... ... : ... .. 4 ... ... ... : ... .. . ... : ... .. 2 ... : ... .. . ... ... : ... .. 2 ... ... : ... .. 2 ... ... : ... .. . ... ...
ROW 7D : ... .. . ... ... ... : ... .. 3 ... ... ... : ... .. . ... : ... .. 0 ... : ... .. . ... ... : ... .. . ... ... : ... .. . ... ... : ... .. . ... ...
ROW 7E : ... .. . ... ... ... : ... .. . ... ... ... : --- .. . ... : ... .. . ... : ... .. . ... ... : ... .. . ... ... : ... .. . ... ... : --- .. . P81 ...
ROW 7F : ... .. . ... ... ... : ... .. . ... ... ... : ... .. . ... : ... .. . ... : ... .. . ... ... : ... .. . ... ... : ... .. . ... ... : ... .. . ... ...
ROW 80 : ... .. . ... ... ... : C#3 00 A ... ... ... : A#2 00 . P82 : ... .. F ... : ... .. . ... ... : ... .. 4 ... ... : ... .. 4 ... ... : C#1 01 F P80 ...
ROW 81 : ... .. . ... ... ... : ... .. 8 ... ... ... : G#2 00 . P8B : ... .. C ... : ... .. . ... ... : ... .. . ... ... : ... .. . ... ... : ... .. D ... ...
ROW 82 : ... .. . ... ... ... : ... .. . ... ... ... : G-2 00 . P79 : ... .. 6 ... : ... .. . ... ... : ... .. . ... ... : ... .. . ... ... : ... .. 8 ... ...
ROW 83 : ... .. . ... ... ... : ... .. . ... ... ... : F-2 00 . P8D : ... .. 3 ... : ... .. . ... ... : ... .. . ... ... : ... .. . ... ... : ... .. . ... ...
ROW 84 : ... .. . ... ... ... : ... .. 4 ... ... ... : E-2 00 . P81 : ... .. 2 ... : ... .. . ... ... : ... .. 2 ... ... : ... .. 2 ... ... : ... .. . ... ...
ROW 85 : ... .. 2 ... ... ... : ... .. 3 ... ... ... : D#2 00 . P77 : ... .. 0 ... : ... .. . ... ... : ... .. . ... ... : ... .. . ... ... : ... .. . ... ...
ROW 86 : ... .. . ... ... ... : ... .. . ... ... ... : --- .. . ... : ... .. . ... : ... .. . ... ... : ... .. . ... ... : ... .. . ... ... : --- .. . P81 ...
ROW 87 : ... .. . ... ... ... : ... .. . ... ... ... : ... .. . ... : ... .. . ... : ... .. . ... ... : ... .. . ... ... : ... .. . ... ... : ... .. . ... ...
ROW 88 : F#3 00 F ... ... ... : E-3 00 A ... ... ... : C#3 00 . P80 : ... .. F ... : ... .. . ... ... : ... .. 4 ... ... : ... .. 4 ... ... : C#1 01 F P80 ...
ROW 89 : ... .. E ... ... ... : ... .. 8 ... ... ... : ... .. . ... : ... .. C ... : ... .. . ... ... : ... .. . ... ... : ... .. . ... ... : ... .. D ... ...
ROW 8A : ... .. D ... ... ... : ... .. . ... ... ... : ... .. . ... : ... .. 6 ... : ... .. . ... ... : ... .. . ... ... : ... .. . ... ... : ... .. 8 ... ...
ROW 8B : ... .. A ... ... ... : ... .. . ... ... ... : ... .. . ... : ... .. 3 ... : ... .. . ... ... : ... .. . ... ... : ... .. . ... ... : ... .. . ... ...
ROW 8C : ... .. . ... ... ... : ... .. 4 ... ... ... : ... .. . ... : ... .. 2 ... : ... .. . ... ... : ... .. 2 ... ... : ... .. 2 ... ... : ... .. . ... ...
ROW 8D : ... .. 2 ... ... ... : ... .. 3 ... ... ... : ... .. . ... : ... .. 0 ... : ... .. . ... ... : ... .. . ... ... : ... .. . ... ... : ... .. . ... ...
ROW 8E : ... .. . ... ... ... : ... .. . ... ... ... : --- .. . ... : ... .. . ... : ... .. . ... ... : ... .. . ... ... : ... .. . ... ... : --- .. . P81 ...
ROW 8F : ... .. . ... ... ... : ... .. . ... ... ... : ... .. . ... : ... .. . ... : ... .. . ... ... : ... .. . ... ... : ... .. . ... ... : ... .. . ... ...
ROW 90 : G#3 00 F ... ... ... : D#3 00 A ... ... ... : B-3 00 . P7D : 5-# 00 F ... : ... .. . ... ... : ... .. 4 ... ... : ... .. 4 ... ... : C#1 01 F P80 ...
ROW 91 : ... .. E ... ... ... : ... .. 8 ... ... ... : A#3 00 . P7C : ... .. C ... : ... .. . ... ... : ... .. . ... ... : ... .. . ... ... : ... .. D ... ...
ROW 92 : ... .. D ... ... ... : ... .. . ... ... ... : A-3 00 . P7B : ... .. 6 ... : ... .. . ... ... : ... .. . ... ... : ... .. . ... ... : ... .. 8 ... ...
ROW 93 : ... .. A ... ... ... : ... .. . ... ... ... : G#3 00 . ... : ... .. 3 ... : ... .. . ... ... : ... .. . ... ... : ... .. . ... ... : ... .. . ... ...
ROW 94 : ... .. . ... ... ... : ... .. 4 ... ... ... : G-3 00 . P7C : ... .. 2 ... : ... .. . ... ... : ... .. 2 ... ... : ... .. 2 ... ... : ... .. . ... ...
ROW 95 : ... .. . ... ... ... : ... .. 3 ... ... ... : F#3 00 . P7E : ... .. 0 ... : ... .. . ... ... : ... .. . ... ... : ... .. . ... ... : ... .. . ... ...
ROW 96 : ... .. . ... ... ... : ... .. . ... ... ... : --- .. . ... : ... .. . ... : ... .. . ... ... : ... .. . ... ... : ... .. . ... ... : --- .. . P81 ...
ROW 97 : ... .. . ... ... ... : ... .. . ... ... ... : ... .. . ... : ... .. . ... : ... .. . ... ... : ... .. . ... ... : ... .. . ... ... : ... .. . ... ...
ROW 98 : ... .. . ... ... ... : G#2 00 A ... ... ... : G#3 00 . P85 : 1-# 00 F ... : ... .. . ... ... : ... .. 4 ... ... : ... .. 4 ... ... : C#1 01 F P80 ...
ROW 99 : ... .. . ... ... ... : ... .. 8 ... ... ... : F-3 00 . P86 : ... .. C ... : ... .. . ... ... : ... .. . ... ... : ... .. . ... ... : ... .. D ... ...
ROW 9A : ... .. . ... ... ... : ... .. . ... ... ... : D#3 00 . P7C : ... .. 6 ... : ... .. . ... ... : ... .. . ... ... : ... .. . ... ... : ... .. 8 ... ...
ROW 9B : ... .. . ... ... ... : ... .. . ... ... ... : C#3 00 . P76 : ... .. 3 ... : ... .. . ... ... : ... .. . ... ... : ... .. . ... ... : ... .. . ... ...
ROW 9C : ... .. . ... ... ... : ... .. 4 ... ... ... : B-2 00 . P75 : ... .. 2 ... : ... .. . ... ... : ... .. 2 ... ... : ... .. 2 ... ... : ... .. . ... ...
ROW 9D : ... .. . ... ... ... : ... .. 3 ... ... ... : A-2 00 . P7A : ... .. 0 ... : ... .. . ... ... : ... .. . ... ... : ... .. . ... ... : ... .. . ... ...
ROW 9E : ... .. . ... ... ... : ... .. . ... ... ... : --- .. . ... : ... .. . ... : ... .. . ... ... : ... .. . ... ... : ... .. . ... ... : --- .. . P81 ...
ROW 9F : ... .. . ... ... ... : ... .. . ... ... ... : ... .. . ... : ... .. . ... : ... .. . ... ... : ... .. . ... ... : ... .. . ... ... : ... .. . ... ...
ROW A0 : ... .. . ... ... ... : F#3 00 A ... ... ... : A#2 00 . P82 : C-# 00 8 ... : ... .. . ... ... : F#4 01 6 ... ... : B-3 01 6 ... ... : C#1 01 F P80 ...
ROW A1 : ... .. . ... ... ... : ... .. 8 ... ... ... : G#2 00 . P8B : ... .. 6 ... : ... .. . ... ... : ... .. 5 ... ... : ... .. 5 ... ... : ... .. D ... ...
ROW A2 : ... .. . ... ... ... : ... .. . ... ... ... : G-2 00 . P79 : ... .. 3 ... : ... .. . ... ... : ... .. . ... ... : ... .. . ... ... : ... .. 8 ... ...
ROW A3 : ... .. . ... ... ... : ... .. . ... ... ... : F-2 00 . P8D : ... .. 1 ... : ... .. . ... ... : ... .. . ... ... : ... .. . ... ... : ... .. . ... ...
ROW A4 : ... .. . ... ... ... : ... .. 4 ... ... ... : E-2 00 . P81 : ... .. . ... : ... .. . ... ... : ... .. 2 ... ... : ... .. 2 ... ... : ... .. . ... ...
ROW A5 : ... .. . ... ... ... : ... .. 3 ... ... ... : D#2 00 . P77 : ... .. 0 ... : ... .. . ... ... : ... .. . ... ... : ... .. . ... ... : ... .. . ... ...
ROW A6 : ... .. . ... ... ... : ... .. . ... ... ... : --- .. . ... : ... .. . ... : ... .. . ... ... : ... .. . ... ... : ... .. . ... ... : --- .. . P81 ...
ROW A7 : ... .. . ... ... ... : ... .. . ... ... ... : ... .. . ... : ... .. . ... : ... .. . ... ... : ... .. . ... ... : ... .. . ... ... : ... .. . ... ...
ROW A8 : ... .. . ... ... ... : E-3 00 A ... ... ... : G#3 00 . P85 : 1-# 00 F ... : ... .. . ... ... : ... .. 4 ... ... : ... .. 4 ... ... : C#1 01 F P80 ...
ROW A9 : ... .. . ... ... ... : ... .. 8 ... ... ... : F-3 00 . P86 : ... .. C ... : ... .. . ... ... : ... .. . ... ... : ... .. . ... ... : ... .. D ... ...
ROW AA : ... .. . ... ... ... : ... .. . ... ... ... : D#3 00 . P7C : ... .. 6 ... : ... .. . ... ... : ... .. . ... ... : ... .. . ... ... : ... .. 8 ... ...
ROW AB : ... .. . ... ... ... : ... .. . ... ... ... : C#3 00 . P76 : ... .. 3 ... : ... .. . ... ... : ... .. . ... ... : ... .. . ... ... : ... .. . ... ...
ROW AC : ... .. . ... ... ... : ... .. 4 ... ... ... : B-2 00 . P75 : ... .. 2 ... : ... .. . ... ... : ... .. 2 ... ... : ... .. 2 ... ... : ... .. . ... ...
ROW AD : ... .. . ... ... ... : ... .. 3 ... ... ... : A-2 00 . P7A : ... .. 0 ... : ... .. . ... ... : ... .. . ... ... : ... .. . ... ... : ... .. . ... ...
ROW AE : ... .. . ... ... ... : ... .. . ... ... ... : --- .. . ... : ... .. . ... : ... .. . ... ... : ... .. . ... ... : ... .. . ... ... : --- .. . P81 ...
ROW AF : ... .. . ... ... ... : ... .. . ... ... ... : ... .. . ... : ... .. . ... : ... .. . ... ... : ... .. . ... ... : ... .. . ... ... : ... .. . ... ...
ROW B0 : F#3 00 8 ... ... ... : D#3 00 A ... ... ... : B-3 00 . P7D : 5-# 00 F ... : ... .. . ... ... : ... .. 4 ... ... : ... .. 4 ... ... : D#1 01 F P80 ...
ROW B1 : ... .. 7 ... ... ... : ... .. 8 ... ... ... : A#3 00 . P7C : ... .. C ... : ... .. . ... ... : ... .. . ... ... : ... .. . ... ... : ... .. D ... ...
ROW B2 : ... .. 6 ... ... ... : ... .. . ... ... ... : A-3 00 . P7B : ... .. 6 ... : ... .. . ... ... : ... .. . ... ... : ... .. . ... ... : ... .. 8 ... ...
ROW B3 : ... .. 5 ... ... ... : ... .. . ... ... ... : G#3 00 . ... : ... .. 3 ... : ... .. . ... ... : ... .. . ... ... : ... .. . ... ... : ... .. . ... ...
ROW B4 : ... .. . ... ... ... : ... .. 4 ... ... ... : G-3 00 . P7C : ... .. 2 ... : ... .. . ... ... : ... .. 2 ... ... : ... .. 2 ... ... : ... .. . ... ...
ROW B5 : ... .. 1 ... ... ... : ... .. 3 ... ... ... : F#3 00 . P7E : ... .. 0 ... : ... .. . ... ... : ... .. . ... ... : ... .. . ... ... : ... .. . ... ...
ROW B6 : ... .. . ... ... ... : ... .. . ... ... ... : --- .. . ... : ... .. . ... : ... .. . ... ... : ... .. . ... ... : ... .. . ... ... : --- .. . P81 ...
ROW B7 : ... .. . ... ... ... : ... .. . ... ... ... : ... .. . ... : ... .. . ... : ... .. . ... ... : ... .. . ... ... : ... .. . ... ... : ... .. . ... ...
ROW B8 : G#3 00 8 ... ... ... : F#3 00 A ... ... ... : D#3 00 . P80 : C-# 00 8 ... : ... .. . ... ... : ... .. 4 ... ... : ... .. 4 ... ... : D#1 01 F P80 ...
ROW B9 : ... .. 7 ... ... ... : ... .. 8 ... ... ... : ... .. . ... : ... .. 6 ... : ... .. . ... ... : ... .. . ... ... : ... .. . ... ... : ... .. D ... ...
ROW BA : ... .. 6 ... ... ... : ... .. . ... ... ... : ... .. . ... : ... .. 3 ... : ... .. . ... ... : ... .. . ... ... : ... .. . ... ... : ... .. 8 ... ...
ROW BB : ... .. 5 ... ... ... : ... .. . ... ... ... : ... .. . ... : ... .. 1 ... : ... .. . ... ... : ... .. . ... ... : ... .. . ... ... : ... .. . ... ...
ROW BC : ... .. . ... ... ... : ... .. 4 ... ... ... : ... .. . ... : ... .. . ... : ... .. . ... ... : ... .. 2 ... ... : ... .. 2 ... ... : ... .. . ... ...
ROW BD : ... .. . ... ... ... : ... .. 3 ... ... ... : ... .. . ... : ... .. 0 ... : ... .. . ... ... : ... .. . ... ... : ... .. . ... ... : ... .. . ... ...
ROW BE : ... .. . ... ... ... : ... .. . ... ... ... : --- .. . ... : ... .. . ... : ... .. . ... ... : ... .. . ... ... : ... .. . ... ... : --- .. . P81 ...
ROW BF : ... .. . ... ... ... : ... .. . ... ... ... : ... .. . ... : ... .. . ... : ... .. . ... ... : ... .. . ... ... : ... .. . ... ... : ... .. . ... ...
ROW C0 : ... .. . ... ... ... : E-3 00 A ... ... ... : A#2 00 . P82 : 1-# 00 F ... : ... .. . ... ... : G#4 01 6 ... ... : ... .. 6 ... ... : E-1 01 F P80 ...
ROW C1 : ... .. . ... ... ... : ... .. 8 ... ... ... : G#2 00 . P8B : ... .. C ... : ... .. . ... ... : ... .. 5 ... ... : ... .. 5 ... ... : ... .. D ... ...
ROW C2 : ... .. . ... ... ... : ... .. . ... ... ... : G-2 00 . P79 : ... .. 6 ... : ... .. . ... ... : ... .. . ... ... : ... .. . ... ... : ... .. 8 ... ...
ROW C3 : ... .. . ... ... ... : ... .. . ... ... ... : F-2 00 . P8D : ... .. 3 ... : ... .. . ... ... : ... .. . ... ... : ... .. . ... ... : ... .. . ... ...
ROW C4 : ... .. . ... ... ... : ... .. 4 ... ... ... : E-2 00 . P81 : ... .. 2 ... : ... .. . ... ... : ... .. 2 ... ... : ... .. 2 ... ... : ... .. . ... ...
ROW C5 : ... .. . ... ... ... : ... .. 3 ... ... ... : D#2 00 . P77 : ... .. 0 ... : ... .. . ... ... : ... .. . ... ... : ... .. . ... ... : ... .. . ... ...
ROW C6 : ... .. . ... ... ... : ... .. . ... ... ... : --- .. . ... : ... .. . ... : ... .. . ... ... : ... .. . ... ... : ... .. . ... ... : --- .. . P82 ...
ROW C7 : ... .. . ... ... ... : ... .. . ... ... ... : ... .. . ... : ... .. . ... : ... .. . ... ... : ... .. . ... ... : ... .. . ... ... : ... .. . ... ...
ROW C8 : ... .. . ... ... ... : G#2 00 A ... ... ... : E-3 00 . P80 : ... .. F ... : ... .. . ... ... : ... .. 4 ... ... : ... .. 4 ... ... : E-1 01 F P80 ...
ROW C9 : ... .. . ... ... ... : ... .. 8 ... ... ... : ... .. . ... : ... .. C ... : ... .. . ... ... : ... .. . ... ... : ... .. . ... ... : ... .. D ... ...
ROW CA : ... .. . ... ... ... : ... .. . ... ... ... : ... .. . ... : ... .. 6 ... : ... .. . ... ... : ... .. . ... ... : ... .. . ... ... : ... .. 8 ... ...
ROW CB : ... .. . ... ... ... : ... .. . ... ... ... : ... .. . ... : ... .. 3 ... : ... .. . ... ... : ... .. . ... ... : ... .. . ... ... : ... .. . ... ...
ROW CC : ... .. . ... ... ... : ... .. 4 ... ... ... : ... .. . ... : ... .. 2 ... : ... .. . ... ... : ... .. 2 ... ... : ... .. 2 ... ... : ... .. . ... ...
ROW CD : ... .. . ... ... ... : ... .. 3 ... ... ... : ... .. . ... : ... .. 0 ... : ... .. . ... ... : ... .. . ... ... : ... .. . ... ... : ... .. . ... ...
ROW CE : ... .. . ... ... ... : ... .. . ... ... ... : --- .. . ... : ... .. . ... : ... .. . ... ... : ... .. . ... ... : ... .. . ... ... : --- .. . P82 ...
ROW CF : ... .. . ... ... ... : ... .. . ... ... ... : ... .. . ... : ... .. . ... : ... .. . ... ... : ... .. . ... ... : ... .. . ... ... : ... .. . ... ...
ROW D0 : G#4 00 F ... ... ... : B-2 00 A ... ... ... : B-3 00 . P7D : 5-# 00 F ... : ... .. . ... ... : ... .. 4 ... ... : ... .. 4 ... ... : E-1 01 F P80 ...
ROW D1 : ... .. E ... ... ... : ... .. 8 ... ... ... : A#3 00 . P7C : ... .. C ... : ... .. . ... ... : ... .. . ... ... : ... .. . ... ... : ... .. D ... ...
ROW D2 : ... .. D ... ... ... : ... .. . ... ... ... : A-3 00 . P7B : ... .. 6 ... : ... .. . ... ... : ... .. . ... ... : ... .. . ... ... : ... .. 8 ... ...
ROW D3 : ... .. A ... ... ... : ... .. . ... ... ... : G#3 00 . ... : ... .. 3 ... : ... .. . ... ... : ... .. . ... ... : ... .. . ... ... : ... .. . ... ...
ROW D4 : ... .. . ... ... ... : ... .. 4 ... ... ... : G-3 00 . P7C : ... .. 2 ... : ... .. . ... ... : ... .. 2 ... ... : ... .. 2 ... ... : ... .. . ... ...
ROW D5 : ... .. . ... ... ... : ... .. 3 ... ... ... : F#3 00 . P7E : ... .. 0 ... : ... .. . ... ... : ... .. . ... ... : ... .. . ... ... : ... .. . ... ...
ROW D6 : ... .. . ... ... ... : ... .. . ... ... ... : --- .. . ... : ... .. . ... : ... .. . ... ... : ... .. . ... ... : ... .. . ... ... : --- .. . P82 ...
ROW D7 : ... .. . ... ... ... : ... .. . ... ... ... : ... .. . ... : ... .. . ... : ... .. . ... ... : ... .. . ... ... : ... .. . ... ... : ... .. . ... ...
ROW D8 : ... .. . ... ... ... : E-3 00 A ... ... ... : E-3 00 . P80 : 1-# 00 F ... : ... .. . ... ... : ... .. 4 ... ... : ... .. 4 ... ... : E-1 01 F P80 ...
ROW D9 : ... .. . ... ... ... : ... .. 8 ... ... ... : ... .. . ... : ... .. C ... : ... .. . ... ... : ... .. . ... ... : ... .. . ... ... : ... .. D ... ...
ROW DA : ... .. . ... ... ... : ... .. . ... ... ... : ... .. . ... : ... .. 6 ... : ... .. . ... ... : ... .. . ... ... : ... .. . ... ... : ... .. 8 ... ...
ROW DB : ... .. . ... ... ... : ... .. . ... ... ... : ... .. . ... : ... .. 3 ... : ... .. . ... ... : ... .. . ... ... : ... .. . ... ... : ... .. . ... ...
ROW DC : ... .. . ... ... ... : ... .. 4 ... ... ... : ... .. . ... : ... .. 2 ... : ... .. . ... ... : ... .. 2 ... ... : ... .. 2 ... ... : ... .. . ... ...
ROW DD : ... .. 2 ... ... ... : ... .. 3 ... ... ... : ... .. . ... : ... .. 0 ... : ... .. . ... ... : ... .. . ... ... : ... .. . ... ... : ... .. . ... ...
ROW DE : ... .. . ... ... ... : ... .. . ... ... ... : --- .. . ... : ... .. . ... : ... .. . ... ... : ... .. . ... ... : ... .. . ... ... : --- .. . P82 ...
ROW DF : ... .. . ... ... ... : ... .. . ... ... ... : ... .. . ... : ... .. . ... : ... .. . ... ... : ... .. . ... ... : ... .. . ... ... : ... .. . ... ...
ROW E0 : ... .. F ... ... ... : D#3 00 A ... ... ... : A#2 00 . P82 : C-# 00 8 ... : ... .. . ... ... : ... .. 4 ... ... : ... .. 4 ... ... : E-1 01 F P80 ...
ROW E1 : ... .. E ... ... ... : ... .. 8 ... ... ... : G#2 00 . P8B : ... .. 6 ... : ... .. . ... ... : ... .. . ... ... : ... .. . ... ... : ... .. D ... ...
ROW E2 : ... .. D ... ... ... : ... .. . ... ... ... : G-2 00 . P79 : ... .. 3 ... : ... .. . ... ... : ... .. . ... ... : ... .. . ... ... : ... .. 8 ... ...
ROW E3 : ... .. A ... ... ... : ... .. . ... ... ... : F-2 00 . P8D : ... .. 1 ... : ... .. . ... ... : ... .. . ... ... : ... .. . ... ... : ... .. . ... ...
ROW E4 : ... .. . ... ... ... : ... .. 4 ... ... ... : E-2 00 . P81 : ... .. . ... : ... .. . ... ... : ... .. 2 ... ... : ... .. 2 ... ... : ... .. . ... ...
ROW E5 : ... .. . ... ... ... : ... .. 3 ... ... ... : D#2 00 . P77 : ... .. 0 ... : ... .. . ... ... : ... .. . ... ... : ... .. . ... ... : ... .. . ... ...
ROW E6 : ... .. . ... ... ... : ... .. . ... ... ... : --- .. . ... : ... .. . ... : ... .. . ... ... : ... .. . ... ... : ... .. . ... ... : --- .. . P82 ...
ROW E7 : ... .. . ... ... ... : ... .. . ... ... ... : ... .. . ... : ... .. . ... : ... .. . ... ... : ... .. . ... ... : ... .. . ... ... : ... .. . ... ...
ROW E8 : F#4 00 F ... ... ... : F#2 00 A ... ... ... : G#3 00 . P85 : 1-# 00 F ... : ... .. . ... ... : ... .. 4 ... ... : ... .. 4 ... ... : E-1 01 F P80 ...
ROW E9 : ... .. E ... ... ... : ... .. 8 ... ... ... : F-3 00 . P86 : ... .. C ... : ... .. . ... ... : ... .. . ... ... : ... .. . ... ... : ... .. D ... ...
ROW EA : ... .. D ... ... ... : ... .. . ... ... ... : D#3 00 . P7C : ... .. 6 ... : ... .. . ... ... : ... .. . ... ... : ... .. . ... ... : ... .. 8 ... ...
ROW EB : ... .. A ... ... ... : ... .. . ... ... ... : C#3 00 . P76 : ... .. 3 ... : ... .. . ... ... : ... .. . ... ... : ... .. . ... ... : ... .. . ... ...
ROW EC : ... .. . ... ... ... : ... .. 4 ... ... ... : B-2 00 . P75 : ... .. 2 ... : ... .. . ... ... : ... .. 2 ... ... : ... .. 2 ... ... : ... .. . ... ...
ROW ED : ... .. 2 ... ... ... : ... .. 3 ... ... ... : A-2 00 . P7A : ... .. 0 ... : ... .. . ... ... : ... .. . ... ... : ... .. . ... ... : ... .. . ... ...
ROW EE : ... .. . ... ... ... : ... .. . ... ... ... : --- .. . ... : ... .. . ... : ... .. . ... ... : ... .. . ... ... : ... .. . ... ... : --- .. . P82 ...
ROW EF : ... .. . ... ... ... : ... .. . ... ... ... : ... .. . ... : ... .. . ... : ... .. . ... ... : ... .. . ... ... : ... .. . ... ... : ... .. . ... ...
ROW F0 : G#4 00 F ... ... ... : E-3 00 A ... ... ... : B-3 00 . P7D : 5-# 00 F ... : ... .. . ... ... : ... .. 4 ... ... : ... .. 4 ... ... : E-1 01 F P80 ...
ROW F1 : ... .. E ... ... ... : ... .. 8 ... ... ... : A#3 00 . P7C : ... .. C ... : ... .. . ... ... : ... .. . ... ... : ... .. . ... ... : ... .. D ... ...
ROW F2 : ... .. D ... ... ... : ... .. . ... ... ... : A-3 00 . P7B : ... .. 6 ... : ... .. . ... ... : ... .. . ... ... : ... .. . ... ... : ... .. 8 ... ...
ROW F3 : ... .. A ... ... ... : ... .. . ... ... ... : G#3 00 . ... : ... .. 3 ... : ... .. . ... ... : ... .. . ... ... : ... .. . ... ... : ... .. . ... ...
ROW F4 : ... .. . ... ... ... : ... .. 4 ... ... ... : G-3 00 . P7C : ... .. 2 ... : ... .. . ... ... : ... .. 2 ... ... : ... .. 2 ... ... : ... .. . ... ...
ROW F5 : ... .. 2 ... ... ... : ... .. 3 ... ... ... : F#3 00 . P7E : ... .. 0 ... : ... .. . ... ... : ... .. . ... ... : ... .. . ... ... : ... .. . ... ...
ROW F6 : ... .. . ... ... ... : ... .. . ... ... ... : --- .. . ... : ... .. . ... : ... .. . ... ... : ... .. . ... ... : ... .. . ... ... : --- .. . P82 ...
ROW F7 : ... .. . ... ... ... : ... .. . ... ... ... : ... .. . ... : ... .. . ... : ... .. . ... ... : ... .. . ... ... : ... .. . ... ... : ... .. . ... ...
ROW F8 : B-3 00 F ... ... ... : G#2 00 A ... ... ... : E-3 00 . P80 : C-# 00 8 ... : ... .. . ... ... : ... .. 4 ... ... : ... .. 4 ... ... : E-1 01 F P80 ...
ROW F9 : ... .. E ... ... ... : ... .. 8 ... ... ... : ... .. . ... : ... .. 6 ... : ... .. . ... ... : ... .. . ... ... : ... .. . ... ... : ... .. D ... ...
ROW FA : ... .. D ... ... ... : ... .. . ... ... ... : ... .. . ... : ... .. 3 ... : ... .. . ... ... : ... .. . ... ... : ... .. . ... ... : ... .. 8 ... ...
ROW FB : ... .. A ... ... ... : ... .. . ... ... ... : ... .. . ... : ... .. 1 ... : ... .. . ... ... : ... .. . ... ... : ... .. . ... ... : ... .. . ... ...
ROW FC : ... .. . ... ... ... : ... .. 4 ... ... ... : ... .. . ... : ... .. . ... : ... .. . ... ... : ... .. 2 ... ... : ... .. 2 ... ... : ... .. . ... ...
ROW FD : ... .. . ... ... ... : ... .. 3 ... ... ... : ... .. . ... : ... .. 0 ... : ... .. . ... ... : ... .. . ... ... : ... .. . ... ... : ... .. . ... ...
ROW FE : ... .. . ... ... ... : ... .. . ... ... ... : --- .. . ... : ... .. . ... : ... .. . ... ... : ... .. . ... ... : ... .. . ... ... : --- .. . P82 ...
ROW FF : ... .. . ... ... ... : ... .. . ... ... ... : ... .. . ... : ... .. . ... : ... .. . ... ... : ... .. . ... ... : ... .. . ... ... : ... .. . ... ...

PATTERN 19
ROW 00 : ... .. . ... ... ... : B-2 00 A ... ... ... : A#2 00 . P82 : 1-# 00 F ... : ... .. . ... ... : ... .. 4 ... ... : ... .. 4 ... ... : E-1 01 F P80 ...
ROW 01 : ... .. . ... ... ... : ... .. 8 ... ... ... : G#2 00 . P8B : ... .. C ... : ... .. . ... ... : ... .. . ... ... : ... .. . ... ... : ... .. D ... ...
ROW 02 : ... .. . ... ... ... : ... .. . ... ... ... : G-2 00 . P79 : ... .. 6 ... : ... .. . ... ... : ... .. . ... ... : ... .. . ... ... : ... .. 8 ... ...
ROW 03 : ... .. . ... ... ... : ... .. . ... ... ... : F-2 00 . P8D : ... .. 3 ... : ... .. . ... ... : ... .. . ... ... : ... .. . ... ... : ... .. . ... ...
ROW 04 : ... .. . ... ... ... : ... .. 4 ... ... ... : E-2 00 . P81 : ... .. 2 ... : ... .. . ... ... : ... .. 2 ... ... : ... .. 2 ... ... : ... .. . ... ...
ROW 05 : ... .. . ... ... ... : ... .. 3 ... ... ... : D#2 00 . P77 : ... .. 0 ... : ... .. . ... ... : ... .. . ... ... : ... .. . ... ... : ... .. . ... ...
ROW 06 : ... .. . ... ... ... : ... .. . ... ... ... : --- .. . ... : ... .. . ... : ... .. . ... ... : ... .. . ... ... : ... .. . ... ... : --- .. . P82 ...
ROW 07 : ... .. . ... ... ... : ... .. . ... ... ... : ... .. . ... : ... .. . ... : ... .. . ... ... : ... .. . ... ... : ... .. . ... ... : ... .. . ... ...
ROW 08 : ... .. . ... ... ... : E-3 00 A ... ... ... : E-3 00 . P80 : ... .. F ... : ... .. . ... ... : ... .. 4 ... ... : ... .. 4 ... ... : E-1 01 F P80 ...
ROW 09 : ... .. . ... ... ... : ... .. 8 ... ... ... : ... .. . ... : ... .. C ... : ... .. . ... ... : ... .. . ... ... : ... .. . ... ... : ... .. D ... ...
ROW 0A : ... .. . ... ... ... : ... .. . ... ... ... : ... .. . ... : ... .. 6 ... : ... .. . ... ... : ... .. . ... ... : ... .. . ... ... : ... .. 8 ... ...
ROW 0B : ... .. . ... ... ... : ... .. . ... ... ... : ... .. . ... : ... .. 3 ... : ... .. . ... ... : ... .. . ... ... : ... .. . ... ... : ... .. . ... ...
ROW 0C : ... .. . ... ... ... : ... .. 4 ... ... ... : ... .. . ... : ... .. 2 ... : ... .. . ... ... : ... .. 2 ... ... : ... .. 2 ... ... : ... .. . ... ...
ROW 0D : ... .. . ... ... ... : ... .. 3 ... ... ... : ... .. . ... : ... .. 0 ... : ... .. . ... ... : ... .. . ... ... : ... .. . ... ... : ... .. . ... ...
ROW 0E : ... .. . ... ... ... : ... .. . ... ... ... : --- .. . ... : ... .. . ... : ... .. . ... ... : ... .. . ... ... : ... .. . ... ... : --- .. . P82 ...
ROW 0F : ... .. . ... ... ... : ... .. . ... ... ... : ... .. . ... : ... .. . ... : ... .. . ... ... : ... .. . ... ... : ... .. . ... ... : ... .. . ... ...
ROW 10 : G#4 00 8 ... ... ... : D#3 00 A ... ... ... : B-3 00 . P7D : 5-# 00 F ... : ... .. . ... ... : ... .. 4 ... ... : ... .. 4 ... ... : E-1 01 F P80 ...
ROW 11 : ... .. 7 ... ... ... : ... .. 8 ... ... ... : A#3 00 . P7C : ... .. C ... : ... .. . ... ... : ... .. . ... ... : ... .. . ... ... : ... .. D ... ...
ROW 12 : ... .. 6 ... ... ... : ... .. . ... ... ... : A-3 00 . P7B : ... .. 6 ... : ... .. . ... ... : ... .. . ... ... : ... .. . ... ... : ... .. 8 ... ...
ROW 13 : ... .. 5 ... ... ... : ... .. . ... ... ... : G#3 00 . ... : ... .. 3 ... : ... .. . ... ... : ... .. . ... ... : ... .. . ... ... : ... .. . ... ...
ROW 14 : ... .. . ... ... ... : ... .. 4 ... ... ... : G-3 00 . P7C : ... .. 2 ... : ... .. . ... ... : ... .. 2 ... ... : ... .. 2 ... ... : ... .. . ... ...
ROW 15 : ... .. 1 ... ... ... : ... .. 3 ... ... ... : F#3 00 . P7E : ... .. 0 ... : ... .. . ... ... : ... .. . ... ... : ... .. . ... ... : ... .. . ... ...
ROW 16 : ... .. . ... ... ... : ... .. . ... ... ... : --- .. . ... : ... .. . ... : ... .. . ... ... : ... .. . ... ... : ... .. . ... ... : --- .. . P82 ...
ROW 17 : ... .. . ... ... ... : ... .. . ... ... ... : ... .. . ... : ... .. . ... : ... .. . ... ... : ... .. . ... ... : ... .. . ... ... : ... .. . ... ...
ROW 18 : B-3 00 8 ... ... ... : F#2 00 A ... ... ... : G#3 00 . P85 : 1-# 00 F ... : ... .. . ... ... : ... .. 4 ... ... : ... .. 4 ... ... : E-1 01 F P80 ...
ROW 19 : ... .. 7 ... ... ... : ... .. 8 ... ... ... : F-3 00 . P86 : ... .. C ... : ... .. . ... ... : ... .. . ... ... : ... .. . ... ... : ... .. D ... ...
ROW 1A : ... .. 6 ... ... ... : ... .. . ... ... ... : D#3 00 . P7C : ... .. 6 ... : ... .. . ... ... : ... .. . ... ... : ... .. . ... ... : ... .. 8 ... ...
ROW 1B : ... .. 5 ... ... ... : ... .. . ... ... ... : C#3 00 . P76 : ... .. 3 ... : ... .. . ... ... : ... .. . ... ... : ... .. . ... ... : ... .. . ... ...
ROW 1C : ... .. . ... ... ... : ... .. 4 ... ... ... : B-2 00 . P75 : ... .. 2 ... : ... .. . ... ... : ... .. 2 ... ... : ... .. 2 ... ... : ... .. . ... ...
ROW 1D : ... .. . ... ... ... : ... .. 3 ... ... ... : A-2 00 . P7A : ... .. 0 ... : ... .. . ... ... : ... .. . ... ... : ... .. . ... ... : ... .. . ... ...
ROW 1E : ... .. . ... ... ... : ... .. . ... ... ... : --- .. . ... : ... .. . ... : ... .. . ... ... : ... .. . ... ... : ... .. . ... ... : --- .. . P82 ...
ROW 1F : ... .. . ... ... ... : ... .. . ... ... ... : ... .. . ... : ... .. . ... : ... .. . ... ... : ... .. . ... ... : ... .. . ... ... : ... .. . ... ...
ROW 20 : ... .. . ... ... ... : F#3 00 A ... ... ... : A#2 00 . P82 : C-# 00 8 ... : ... .. . ... ... : C#5 01 6 ... ... : G#4 01 6 ... ... : E-1 01 F P80 ...
ROW 21 : ... .. . ... ... ... : ... .. 8 ... ... ... : G#2 00 . P8B : ... .. 6 ... : ... .. . ... ... : ... .. 5 ... ... : ... .. 5 ... ... : ... .. D ... ...
ROW 22 : ... .. . ... ... ... : ... .. . ... ... ... : G-2 00 . P79 : ... .. 3 ... : ... .. . ... ... : ... .. . ... ... : ... .. . ... ... : ... .. 8 ... ...
ROW 23 : ... .. . ... ... ... : ... .. . ... ... ... : F-2 00 . P8D : ... .. 1 ... : ... .. . ... ... : ... .. . ... ... : ... .. . ... ... : ... .. . ... ...
ROW 24 : ... .. . ... ... ... : ... .. 4 ... ... ... : E-2 00 . P81 : ... .. . ... : ... .. . ... ... : ... .. 2 ... ... : ... .. 2 ... ... : ... .. . ... ...
ROW 25 : ... .. . ... ... ... : ... .. 3 ... ... ... : D#2 00 . P77 : ... .. 0 ... : ... .. . ... ... : ... .. . ... ... : ... .. . ... ... : ... .. . ... ...
ROW 26 : ... .. . ... ... ... : ... .. . ... ... ... : --- .. . ... : ... .. . ... : ... .. . ... ... : ... .. . ... ... : ... .. . ... ... : --- .. . P82 ...
ROW 27 : ... .. . ... ... ... : ... .. . ... ... ... : ... .. . ... : ... .. . ... : ... .. . ... ... : ... .. . ... ... : ... .. . ... ... : ... .. . ... ...
ROW 28 : ... .. . ... ... ... : E-3 00 A ... ... ... : G#3 00 . P85 : 1-# 00 F ... : ... .. . ... ... : ... .. 4 ... ... : ... .. 4 ... ... : E-1 01 F P80 ...
ROW 29 : ... .. . ... ... ... : ... .. 8 ... ... ... : F-3 00 . P86 : ... .. C ... : ... .. . ... ... : ... .. . ... ... : ... .. . ... ... : ... .. D ... ...
ROW 2A : ... .. . ... ... ... : ... .. . ... ... ... : D#3 00 . P7C : ... .. 6 ... : ... .. . ... ... : ... .. . ... ... : ... .. . ... ... : ... .. 8 ... ...
ROW 2B : ... .. . ... ... ... : ... .. . ... ... ... : C#3 00 . P76 : ... .. 3 ... : ... .. . ... ... : ... .. . ... ... : ... .. . ... ... : ... .. . ... ...
ROW 2C : ... .. . ... ... ... : ... .. 4 ... ... ... : B-2 00 . P75 : ... .. 2 ... : ... .. . ... ... : ... .. 2 ... ... : ... .. 2 ... ... : ... .. . ... ...
ROW 2D : ... .. . ... ... ... : ... .. 3 ... ... ... : A-2 00 . P7A : ... .. 0 ... : ... .. . ... ... : ... .. . ... ... : ... .. . ... ... : ... .. . ... ...
ROW 2E : ... .. . ... ... ... : ... .. . ... ... ... : --- .. . ... : ... .. . ... : ... .. . ... ... : ... .. . ... ... : ... .. . ... ... : --- .. . P82 ...
ROW 2F : ... .. . ... ... ... : ... .. . ... ... ... : ... .. . ... : ... .. . ... : ... .. . ... ... : ... .. . ... ... : ... .. . ... ... : ... .. . ... ...
ROW 30 : G#4 00 4 ... ... ... : G#3 00 A ... ... ... : B-3 00 . P7D : 5-# 00 F ... : ... .. . ... ... : B-4 01 6 ... ... : E-4 01 6 ... ... : G#1 01 F P80 ...
ROW 31 : ... .. 3 ... ... ... : ... .. 8 ... ... ... : A#3 00 . P7C : ... .. C ... : ... .. . ... ... : ... .. 5 ... ... : ... .. 5 ... ... : ... .. D ... ...
ROW 32 : ... .. . ... ... ... : ... .. . ... ... ... : A-3 00 . P7B : ... .. 6 ... : ... .. . ... ... : ... .. . ... ... : ... .. . ... ... : ... .. 8 ... ...
ROW 33 : ... .. 2 ... ... ... : ... .. . ... ... ... : G#3 00 . ... : ... .. 3 ... : ... .. . ... ... : ... .. . ... ... : ... .. . ... ... : ... .. . ... ...
ROW 34 : ... .. . ... ... ... : ... .. 4 ... ... ... : G-3 00 . P7C : ... .. 2 ... : ... .. . ... ... : ... .. 2 ... ... : ... .. 2 ... ... : ... .. . ... ...
ROW 35 : ... .. 1 ... ... ... : ... .. 3 ... ... ... : F#3 00 . P7E : ... .. 0 ... : ... .. . ... ... : ... .. . ... ... : ... .. . ... ... : ... .. . ... ...
ROW 36 : ... .. . ... ... ... : ... .. . ... ... ... : --- .. . ... : ... .. . ... : ... .. . ... ... : ... .. . ... ... : ... .. . ... ... : --- .. . P7E ...
ROW 37 : ... .. . ... ... ... : ... .. . ... ... ... : ... .. . ... : ... .. . ... : ... .. . ... ... : ... .. . ... ... : ... .. . ... ... : ... .. . ... ...
ROW 38 : B-3 00 4 ... ... ... : B-3 00 A ... ... ... : G#3 00 . P80 : 1-# 00 F ... : ... .. . ... ... : ... .. 4 ... ... : ... .. 4 ... ... : G#1 01 F P80 ...
ROW 39 : ... .. 3 ... ... ... : ... .. 8 ... ... ... : ... .. . ... : ... .. C ... : ... .. . ... ... : ... .. . ... ... : ... .. . ... ... : ... .. D ... ...
ROW 3A : ... .. . ... ... ... : ... .. . ... ... ... : ... .. . ... : ... .. 6 ... : ... .. . ... ... : ... .. . ... ... : ... .. . ... ... : ... .. 8 ... ...
ROW 3B : ... .. 2 ... ... ... : ... .. . ... ... ... : ... .. . ... : ... .. 3 ... : ... .. . ... ... : ... .. . ... ... : ... .. . ... ... : ... .. . ... ...
ROW 3C : ... .. . ... ... ... : ... .. 4 ... ... ... : ... .. . ... : ... .. 2 ... : ... .. . ... ... : ... .. 2 ... ... : ... .. 2 ... ... : ... .. . ... ...
ROW 3D : ... .. . ... ... ... : ... .. 3 ... ... ... : ... .. . ... : ... .. 0 ... : ... .. . ... ... : ... .. . ... ... : ... .. . ... ... : ... .. . ... ...
ROW 3E : ... .. . ... ... ... : ... .. . ... ... ... : --- .. . ... : ... .. . ... : ... .. . ... ... : ... .. . ... ... : ... .. . ... ... : --- .. . P7E ...
ROW 3F : ... .. . ... ... ... : ... .. . ... ... ... : ... .. . ... : ... .. . ... : ... .. . ... ... : ... .. . ... ... : ... .. . ... ... : ... .. . ... ...
ROW 40 : ... .. . ... ... ... : A-3 00 A ... ... ... : A#2 00 . P82 : ... .. F ... : ... .. . ... ... : A-4 01 6 ... ... : C#4 01 6 ... ... : F#1 01 F P80 ...
ROW 41 : ... .. . ... ... ... : ... .. 8 ... ... ... : G#2 00 . P8B : ... .. C ... : ... .. . ... ... : ... .. 5 ... ... : ... .. 5 ... ... : ... .. D ... ...
ROW 42 : ... .. . ... ... ... : ... .. . ... ... ... : G-2 00 . P79 : ... .. 6 ... : ... .. . ... ... : ... .. . ... ... : ... .. . ... ... : ... .. 8 ... ...
ROW 43 : ... .. . ... ... ... : ... .. . ... ... ... : F-2 00 . P8D : ... .. 3 ... : ... .. . ... ... : ... .. . ... ... : ... .. . ... ... : ... .. . ... ...
ROW 44 : ... .. . ... ... ... : ... .. 4 ... ... ... : E-2 00 . P81 : ... .. 2 ... : ... .. . ... ... : ... .. 2 ... ... : ... .. 2 ... ... : ... .. . ... ...
ROW 45 : ... .. . ... ... ... : ... .. 3 ... ... ... : D#2 00 . P77 : ... .. 0 ... : ... .. . ... ... : ... .. . ... ... : ... .. . ... ... : ... .. . ... ...
ROW 46 : ... .. . ... ... ... : ... .. . ... ... ... : --- .. . ... : ... .. . ... : ... .. . ... ... : ... .. . ... ... : ... .. . ... ... : --- .. . P81 ...
ROW 47 : ... .. . ... ... ... : ... .. . ... ... ... : ... .. . ... : ... .. . ... : ... .. . ... ... : ... .. . ... ... : ... .. . ... ... : ... .. . ... ...
ROW 48 : ... .. . ... ... ... : C#3 00 A ... ... ... : F#3 00 . P80 : ... .. F ... : ... .. . ... ... : ... .. 4 ... ... : ... .. 4 ... ... : F#1 01 F P80 ...
ROW 49 : ... .. . ... ... ... : ... .. 8 ... ... ... : ... .. . ... : ... .. C ... : ... .. . ... ... : ... .. . ... ... : ... .. . ... ... : ... .. D ... ...
ROW 4A : ... .. . ... ... ... : ... .. . ... ... ... : ... .. . ... : ... .. 6 ... : ... .. . ... ... : ... .. . ... ... : ... .. . ... ... : ... .. 8 ... ...
ROW 4B : ... .. . ... ... ... : ... .. . ... ... ... : ... .. . ... : ... .. 3 ... : ... .. . ... ... : ... .. . ... ... : ... .. . ... ... : ... .. . ... ...
ROW 4C : ... .. . ... ... ... : ... .. 4 ... ... ... : ... .. . ... : ... .. 2 ... : ... .. . ... ... : ... .. 2 ... ... : ... .. 2 ... ... : ... .. . ... ...
ROW 4D : ... .. . ... ... ... : ... .. 3 ... ... ... : ... .. . ... : ... .. 0 ... : ... .. . ... ... : ... .. . ... ... : ... .. . ... ... : ... .. . ... ...
ROW 4E : ... .. . ... ... ... : ... .. . ... ... ... : --- .. . ... : ... .. . ... : ... .. . ... ... : ... .. . ... ... : ... .. . ... ... : --- .. . P81 ...
ROW 4F : ... .. . ... ... ... : ... .. . ... ... ... : ... .. . ... : ... .. . ... : ... .. . ... ... : ... .. . ... ... : ... .. . ... ... : ... .. . ... ...
ROW 50 : A-3 00 F ... ... ... : F#3 00 A ... ... ... : B-3 00 . P7D : 5-# 00 F ... : ... .. . ... ... : ... .. 4 ... ... : ... .. 4 ... ... : F#1 01 F P80 ...
ROW 51 : ... .. E ... ... ... : ... .. 8 ... ... ... : A#3 00 . P7C : ... .. C ... : ... .. . ... ... : ... .. . ... ... : ... .. . ... ... : ... .. D ... ...
ROW 52 : ... .. D ... ... ... : ... .. . ... ... ... : A-3 00 . P7B : ... .. 6 ... : ... .. . ... ... : ... .. . ... ... : ... .. . ... ... : ... .. 8 ... ...
ROW 53 : ... .. A ... ... ... : ... .. . ... ... ... : G#3 00 . ... : ... .. 3 ... : ... .. . ... ... : ... .. . ... ... : ... .. . ... ... : ... .. . ... ...
ROW 54 : ... .. . ... ... ... : ... .. 4 ... ... ... : G-3 00 . P7C : ... .. 2 ... : ... .. . ... ... : ... .. 2 ... ... : ... .. 2 ... ... : ... .. . ... ...
ROW 55 : ... .. . ... ... ... : ... .. 3 ... ... ... : F#3 00 . P7E : ... .. 0 ... : ... .. . ... ... : ... .. . ... ... : ... .. . ... ... : ... .. . ... ...
ROW 56 : ... .. . ... ... ... : ... .. . ... ... ... : --- .. . ... : ... .. . ... : ... .. . ... ... : ... .. . ... ... : ... .. . ... ... : --- .. . P81 ...
ROW 57 : ... .. . ... ... ... : ... .. . ... ... ... : ... .. . ... : ... .. . ... : ... .. . ... ... : ... .. . ... ... : ... .. . ... ... : ... .. . ... ...
ROW 58 : ... .. . ... ... ... : A-3 00 A ... ... ... : F#3 00 . P80 : 1-# 00 F ... : ... .. . ... ... : ... .. 4 ... ... : ... .. 4 ... ... : F#1 01 F P80 ...
ROW 59 : ... .. . ... ... ... : ... .. 8 ... ... ... : ... .. . ... : ... .. C ... : ... .. . ... ... : ... .. . ... ... : ... .. . ... ... : ... .. D ... ...
ROW 5A : ... .. . ... ... ... : ... .. . ... ... ... : ... .. . ... : ... .. 6 ... : ... .. . ... ... : ... .. . ... ... : ... .. . ... ... : ... .. 8 ... ...
ROW 5B : ... .. . ... ... ... : ... .. . ... ... ... : ... .. . ... : ... .. 3 ... : ... .. . ... ... : ... .. . ... ... : ... .. . ... ... : ... .. . ... ...
ROW 5C : ... .. . ... ... ... : ... .. 4 ... ... ... : ... .. . ... : ... .. 2 ... : ... .. . ... ... : ... .. 2 ... ... : ... .. 2 ... ... : ... .. . ... ...
ROW 5D : ... .. . ... ... ... : ... .. 3 ... ... ... : ... .. . ... : ... .. 0 ... : ... .. . ... ... : ... .. . ... ... : ... .. . ... ... : ... .. . ... ...
ROW 5E : ... .. . ... ... ... : ... .. . ... ... ... : --- .. . ... : ... .. . ... : ... .. . ... ... : ... .. . ... ... : ... .. . ... ... : --- .. . P81 ...
ROW 5F : ... .. . ... ... ... : ... .. . ... ... ... : ... .. . ... : ... .. . ... : ... .. . ... ... : ... .. . ... ... : ... .. . ... ... : ... .. . ... ...
ROW 60 : A-4 00 F ... ... ... : G#3 00 A ... ... ... : A#2 00 . P82 : C-# 00 8 ... : ... .. . ... ... : ... .. 4 ... ... : ... .. 4 ... ... : F#1 01 F P80 ...
ROW 61 : ... .. E ... ... ... : ... .. 8 ... ... ... : G#2 00 . P8B : ... .. 6 ... : ... .. . ... ... : ... .. . ... ... : ... .. . ... ... : ... .. D ... ...
ROW 62 : ... .. D ... ... ... : ... .. . ... ... ... : G-2 00 . P79 : ... .. 3 ... : ... .. . ... ... : ... .. . ... ... : ... .. . ... ... : ... .. 8 ... ...
ROW 63 : ... .. A ... ... ... : ... .. . ... ... ... : F-2 00 . P8D : ... .. 1 ... : ... .. . ... ... : ... .. . ... ... : ... .. . ... ... : ... .. . ... ...
ROW 64 : ... .. . ... ... ... : ... .. 4 ... ... ... : E-2 00 . P81 : ... .. . ... : ... .. . ... ... : ... .. 2 ... ... : ... .. 2 ... ... : ... .. . ... ...
ROW 65 : ... .. . ... ... ... : ... .. 3 ... ... ... : D#2 00 . P77 : ... .. 0 ... : ... .. . ... ... : ... .. . ... ... : ... .. . ... ... : ... .. . ... ...
ROW 66 : ... .. . ... ... ... : ... .. . ... ... ... : --- .. . ... : ... .. . ... : ... .. . ... ... : ... .. . ... ... : ... .. . ... ... : --- .. . P81 ...
ROW 67 : ... .. . ... ... ... : ... .. . ... ... ... : ... .. . ... : ... .. . ... : ... .. . ... ... : ... .. . ... ... : ... .. . ... ... : ... .. . ... ...
ROW 68 : G#4 00 F ... ... ... : C#3 00 A ... ... ... : G#3 00 . P85 : 1-# 00 F ... : ... .. . ... ... : ... .. 4 ... ... : ... .. 4 ... ... : F#1 01 F P80 ...
ROW 69 : ... .. E ... ... ... : ... .. 8 ... ... ... : F-3 00 . P86 : ... .. C ... : ... .. . ... ... : ... .. . ... ... : ... .. . ... ... : ... .. D ... ...
ROW 6A : ... .. D ... ... ... : ... .. . ... ... ... : D#3 00 . P7C : ... .. 6 ... : ... .. . ... ... : ... .. . ... ... : ... .. . ... ... : ... .. 8 ... ...
ROW 6B : ... .. A ... ... ... : ... .. . ... ... ... : C#3 00 . P76 : ... .. 3 ... : ... .. . ... ... : ... .. . ... ... : ... .. . ... ... : ... .. . ... ...
ROW 6C : ... .. . ... ... ... : ... .. 4 ... ... ... : B-2 00 . P75 : ... .. 2 ... : ... .. . ... ... : ... .. 2 ... ... : ... .. 2 ... ... : ... .. . ... ...
ROW 6D : ... .. 2 ... ... ... : ... .. 3 ... ... ... : A-2 00 . P7A : ... .. 0 ... : ... .. . ... ... : ... .. . ... ... : ... .. . ... ... : ... .. . ... ...
ROW 6E : ... .. . ... ... ... : ... .. . ... ... ... : --- .. . ... : ... .. . ... : ... .. . ... ... : ... .. . ... ... : ... .. . ... ... : --- .. . P81 ...
ROW 6F : ... .. . ... ... ... : ... .. . ... ... ... : ... .. . ... : ... .. . ... : ... .. . ... ... : ... .. . ... ... : ... .. . ... ... : ... .. . ... ...
ROW 70 : A-4 00 F ... ... ... : F-3 00 A ... ... ... : B-3 00 . P7D : 5-# 00 F ... : ... .. . ... ... : ... .. 4 ... ... : ... .. 4 ... ... : F#1 01 F P80 ...
ROW 71 : ... .. E ... ... ... : ... .. 8 ... ... ... : A#3 00 . P7C : ... .. C ... : ... .. . ... ... : ... .. . ... ... : ... .. . ... ... : ... .. D ... ...
ROW 72 : ... .. D ... ... ... : ... .. . ... ... ... : A-3 00 . P7B : ... .. 6 ... : ... .. . ... ... : ... .. . ... ... : ... .. . ... ... : ... .. 8 ... ...
ROW 73 : ... .. A ... ... ... : ... .. . ... ... ... : G#3 00 . ... : ... .. 3 ... : ... .. . ... ... : ... .. . ... ... : ... .. . ... ... : ... .. . ... ...
ROW 74 : ... .. . ... ... ... : ... .. 4 ... ... ... : G-3 00 . P7C : ... .. 2 ... : ... .. . ... ... : ... .. 2 ... ... : ... .. 2 ... ... : ... .. . ... ...
ROW 75 : ... .. 2 ... ... ... : ... .. 3 ... ... ... : F#3 00 . P7E : ... .. 0 ... : ... .. . ... ... : ... .. . ... ... : ... .. . ... ... : ... .. . ... ...
ROW 76 : ... .. . ... ... ... : ... .. . ... ... ... : --- .. . ... : ... .. . ... : ... .. . ... ... : ... .. . ... ... : ... .. . ... ... : --- .. . P81 ...
ROW 77 : ... .. . ... ... ... : ... .. . ... ... ... : ... .. . ... : ... .. . ... : ... .. . ... ... : ... .. . ... ... : ... .. . ... ... : ... .. . ... ...
ROW 78 : C#4 00 F ... ... ... : B-3 00 A ... ... ... : F#3 00 . P80 : 1-# 00 8 ... : ... .. . ... ... : ... .. 4 ... ... : ... .. 4 ... ... : F#1 01 F P80 ...
ROW 79 : ... .. E ... ... ... : ... .. 8 ... ... ... : ... .. . ... : ... .. 6 ... : ... .. . ... ... : ... .. . ... ... : ... .. . ... ... : ... .. D ... ...
ROW 7A : ... .. D ... ... ... : ... .. . ... ... ... : ... .. . ... : ... .. 3 ... : ... .. . ... ... : ... .. . ... ... : ... .. . ... ... : ... .. 8 ... ...
ROW 7B : ... .. A ... ... ... : ... .. . ... ... ... : ... .. . ... : ... .. 1 ... : ... .. . ... ... : ... .. . ... ... : ... .. . ... ... : ... .. . ... ...
ROW 7C : ... .. . ... ... ... : ... .. 4 ... ... ... : ... .. . ... : ... .. . ... : ... .. . ... ... : ... .. 2 ... ... : ... .. 2 ... ... : ... .. . ... ...
ROW 7D : ... .. . ... ... ... : ... .. 3 ... ... ... : ... .. . ... : ... .. 0 ... : ... .. . ... ... : ... .. . ... ... : ... .. . ... ... : ... .. . ... ...
ROW 7E : ... .. . ... ... ... : ... .. . ... ... ... : --- .. . ... : ... .. . ... : ... .. . ... ... : ... .. . ... ... : ... .. . ... ... : --- .. . P81 ...
ROW 7F : ... .. . ... ... ... : ... .. . ... ... ... : ... .. . ... : ... .. . ... : ... .. . ... ... : ... .. . ... ... : ... .. . ... ... : ... .. . ... ...
ROW 80 : ... .. . ... ... ... : A-3 00 A ... ... ... : A#2 00 . P82 : ... .. F ... : ... .. . ... ... : C#5 01 6 ... ... : F#4 01 6 ... ... : F#1 01 F P80 ...
ROW 81 : ... .. . ... ... ... : ... .. 8 ... ... ... : G#2 00 . P8B : ... .. C ... : ... .. . ... ... : ... .. 5 ... ... : ... .. 5 ... ... : ... .. D ... ...
ROW 82 : ... .. . ... ... ... : ... .. . ... ... ... : G-2 00 . P79 : ... .. 6 ... : ... .. . ... ... : ... .. . ... ... : ... .. . ... ... : ... .. 8 ... ...
ROW 83 : ... .. . ... ... ... : ... .. . ... ... ... : F-2 00 . P8D : ... .. 3 ... : ... .. . ... ... : ... .. . ... ... : ... .. . ... ... : ... .. . ... ...
ROW 84 : ... .. . ... ... ... : ... .. 4 ... ... ... : E-2 00 . P81 : ... .. 2 ... : ... .. . ... ... : ... .. 2 ... ... : ... .. 2 ... ... : ... .. . ... ...
ROW 85 : ... .. . ... ... ... : ... .. 3 ... ... ... : D#2 00 . P77 : ... .. 0 ... : ... .. . ... ... : ... .. . ... ... : ... .. . ... ... : ... .. . ... ...
ROW 86 : ... .. . ... ... ... : ... .. . ... ... ... : --- .. . ... : ... .. . ... : ... .. . ... ... : ... .. . ... ... : ... .. . ... ... : --- .. . P81 ...
ROW 87 : ... .. . ... ... ... : ... .. . ... ... ... : ... .. . ... : ... .. . ... : ... .. . ... ... : ... .. . ... ... : ... .. . ... ... : ... .. . ... ...
ROW 88 : B-3 00 F ... ... ... : C#3 00 A ... ... ... : F#3 00 . P80 : ... .. F ... : ... .. . ... ... : ... .. 4 ... ... : ... .. 4 ... ... : F#1 01 F P80 ...
ROW 89 : ... .. E ... ... ... : ... .. 8 ... ... ... : ... .. . ... : ... .. C ... : ... .. . ... ... : ... .. . ... ... : ... .. . ... ... : ... .. D ... ...
ROW 8A : ... .. D ... ... ... : ... .. . ... ... ... : ... .. . ... : ... .. 6 ... : ... .. . ... ... : ... .. . ... ... : ... .. . ... ... : ... .. 8 ... ...
ROW 8B : ... .. A ... ... ... : ... .. . ... ... ... : ... .. . ... : ... .. 3 ... : ... .. . ... ... : ... .. . ... ... : ... .. . ... ... : ... .. . ... ...
ROW 8C : ... .. . ... ... ... : ... .. 4 ... ... ... : ... .. . ... : ... .. 2 ... : ... .. . ... ... : ... .. 2 ... ... : ... .. 2 ... ... : ... .. . ... ...
ROW 8D : ... .. 2 ... ... ... : ... .. 3 ... ... ... : ... .. . ... : ... .. 0 ... : ... .. . ... ... : ... .. . ... ... : ... .. . ... ... : ... .. . ... ...
ROW 8E : ... .. . ... ... ... : ... .. . ... ... ... : --- .. . ... : ... .. . ... : ... .. . ... ... : ... .. . ... ... : ... .. . ... ... : --- .. . P81 ...
ROW 8F : ... .. . ... ... ... : ... .. . ... ... ... : ... .. . ... : ... .. . ... : ... .. . ... ... : ... .. . ... ... : ... .. . ... ... : ... .. . ... ...
ROW 90 : C#4 00 F ... ... ... : F#3 00 A ... ... ... : B-3 00 . P7D : 5-# 00 F ... : ... .. . ... ... : ... .. 4 ... ... : ... .. 4 ... ... : F#1 01 F P80 ...
ROW 91 : ... .. E ... ... ... : ... .. 8 ... ... ... : A#3 00 . P7C : ... .. C ... : ... .. . ... ... : ... .. . ... ... : ... .. . ... ... : ... .. D ... ...
ROW 92 : ... .. D ... ... ... : ... .. . ... ... ... : A-3 00 . P7B : ... .. 6 ... : ... .. . ... ... : ... .. . ... ... : ... .. . ... ... : ... .. 8 ... ...
ROW 93 : ... .. A ... ... ... : ... .. . ... ... ... : G#3 00 . ... : ... .. 3 ... : ... .. . ... ... : ... .. . ... ... : ... .. . ... ... : ... .. . ... ...
ROW 94 : ... .. . ... ... ... : ... .. 4 ... ... ... : G-3 00 . P7C : ... .. 2 ... : ... .. . ... ... : ... .. 2 ... ... : ... .. 2 ... ... : ... .. . ... ...
ROW 95 : ... .. . ... ... ... : ... .. 3 ... ... ... : F#3 00 . P7E : ... .. 0 ... : ... .. . ... ... : ... .. . ... ... : ... .. . ... ... : ... .. . ... ...
ROW 96 : ... .. . ... ... ... : ... .. . ... ... ... : --- .. . ... : ... .. . ... : ... .. . ... ... : ... .. . ... ... : ... .. . ... ... : --- .. . P81 ...
ROW 97 : ... .. . ... ... ... : ... .. . ... ... ... : ... .. . ... : ... .. . ... : ... .. . ... ... : ... .. . ... ... : ... .. . ... ... : ... .. . ... ...
ROW 98 : ... .. . ... ... ... : A-3 00 A ... ... ... : G#3 00 . P85 : 1-# 00 F ... : ... .. . ... ... : ... .. 4 ... ... : ... .. 4 ... ... : F#1 01 F P80 ...
ROW 99 : ... .. . ... ... ... : ... .. 8 ... ... ... : F-3 00 . P86 : ... .. C ... : ... .. . ... ... : ... .. . ... ... : ... .. . ... ... : ... .. D ... ...
ROW 9A : ... .. . ... ... ... : ... .. . ... ... ... : D#3 00 . P7C : ... .. 6 ... : ... .. . ... ... : ... .. . ... ... : ... .. . ... ... : ... .. 8 ... ...
ROW 9B : ... .. . ... ... ... : ... .. . ... ... ... : C#3 00 . P76 : ... .. 3 ... : ... .. . ... ... : ... .. . ... ... : ... .. . ... ... : ... .. . ... ...
ROW 9C : ... .. . ... ... ... : ... .. 4 ... ... ... : B-2 00 . P75 : ... .. 2 ... : ... .. . ... ... : ... .. 2 ... ... : ... .. 2 ... ... : ... .. . ... ...
ROW 9D : ... .. . ... ... ... : ... .. 3 ... ... ... : A-2 00 . P7A : ... .. 0 ... : ... .. . ... ... : ... .. . ... ... : ... .. . ... ... : ... .. . ... ...
ROW 9E : ... .. . ... ... ... : ... .. . ... ... ... : --- .. . ... : ... .. . ... : ... .. . ... ... : ... .. . ... ... : ... .. . ... ... : --- .. . P81 ...
ROW 9F : ... .. . ... ... ... : ... .. . ... ... ... : ... .. . ... : ... .. . ... : ... .. . ... ... : ... .. . ... ... : ... .. . ... ... : ... .. . ... ...
ROW A0 : ... .. . ... ... ... : C#4 00 A ... ... ... : A#2 00 . P82 : C-# 00 8 ... : ... .. . ... ... : F#5 01 6 ... ... : A-4 01 6 ... ... : F#1 01 F P80 ...
ROW A1 : ... .. . ... ... ... : ... .. 8 ... ... ... : G#2 00 . P8B : ... .. 6 ... : ... .. . ... ... : ... .. 5 ... ... : ... .. 5 ... ... : ... .. D ... ...
ROW A2 : ... .. . ... ... ... : ... .. . ... ... ... : G-2 00 . P79 : ... .. 3 ... : ... .. . ... ... : ... .. . ... ... : ... .. . ... ... : ... .. 8 ... ...
ROW A3 : ... .. . ... ... ... : ... .. . ... ... ... : F-2 00 . P8D : ... .. 1 ... : ... .. . ... ... : ... .. . ... ... : ... .. . ... ... : ... .. . ... ...
ROW A4 : ... .. . ... ... ... : ... .. 4 ... ... ... : E-2 00 . P81 : ... .. . ... : ... .. . ... ... : ... .. 2 ... ... : ... .. 2 ... ... : ... .. . ... ...
ROW A5 : ... .. . ... ... ... : ... .. 3 ... ... ... : D#2 00 . P77 : ... .. 0 ... : ... .. . ... ... : ... .. . ... ... : ... .. . ... ... : ... .. . ... ...
ROW A6 : ... .. . ... ... ... : ... .. . ... ... ... : --- .. . ... : ... .. . ... : ... .. . ... ... : ... .. . ... ... : ... .. . ... ... : --- .. . P81 ...
ROW A7 : ... .. . ... ... ... : ... .. . ... ... ... : ... .. . ... : ... .. . ... : ... .. . ... ... : ... .. . ... ... : ... .. . ... ... : ... .. . ... ...
ROW A8 : ... .. . ... ... ... : F#3 00 A ... ... ... : G#3 00 . P85 : 1-# 00 F ... : ... .. . ... ... : ... .. 4 ... ... : ... .. 4 ... ... : F#1 01 F P80 ...
ROW A9 : ... .. 2 ... ... ... : ... .. 8 ... ... ... : F-3 00 . P86 : ... .. C ... : ... .. . ... ... : ... .. . ... ... : ... .. . ... ... : ... .. D ... ...
ROW AA : ... .. . ... ... ... : ... .. . ... ... ... : D#3 00 . P7C : ... .. 6 ... : ... .. . ... ... : ... .. . ... ... : ... .. . ... ... : ... .. 8 ... ...
ROW AB : ... .. . ... ... ... : ... .. . ... ... ... : C#3 00 . P76 : ... .. 3 ... : ... .. . ... ... : ... .. . ... ... : ... .. . ... ... : ... .. . ... ...
ROW AC : ... .. 1 ... ... ... : ... .. 4 ... ... ... : B-2 00 . P75 : ... .. 2 ... : ... .. . ... ... : ... .. 2 ... ... : ... .. 2 ... ... : ... .. . ... ...
ROW AD : ... .. . ... ... ... : ... .. 3 ... ... ... : A-2 00 . P7A : ... .. 0 ... : ... .. . ... ... : ... .. . ... ... : ... .. . ... ... : ... .. . ... ...
ROW AE : ... .. . ... ... ... : ... .. . ... ... ... : --- .. . ... : ... .. . ... : ... .. . ... ... : ... .. . ... ... : ... .. . ... ... : --- .. . P81 ...
ROW AF : ... .. 0 ... ... ... : ... .. . ... ... ... : ... .. . ... : ... .. . ... : ... .. . ... ... : ... .. . ... ... : ... .. . ... ... : ... .. . ... ...
ROW B0 : D#4 00 F P80 ... ... : A-3 00 A ... ... ... : B-3 00 . P7D : 5-# 00 F ... : ... .. . ... ... : ... .. 4 ... ... : ... .. 4 ... ... : G#1 01 F P80 ...
ROW B1 : ... .. E ... ... ... : ... .. 8 ... ... ... : A#3 00 . P7C : ... .. C ... : ... .. . ... ... : ... .. . ... ... : ... .. . ... ... : ... .. D ... ...
ROW B2 : ... .. D ... ... ... : ... .. . ... ... ... : A-3 00 . P7B : ... .. 6 ... : ... .. . ... ... : ... .. . ... ... : ... .. . ... ... : ... .. 8 ... ...
ROW B3 : ... .. A ... ... ... : ... .. . ... ... ... : G#3 00 . ... : ... .. 3 ... : ... .. . ... ... : ... .. . ... ... : ... .. . ... ... : ... .. . ... ...
ROW B4 : ... .. . ... ... ... : ... .. 4 ... ... ... : G-3 00 . P7C : ... .. 2 ... : ... .. . ... ... : ... .. 2 ... ... : ... .. 2 ... ... : ... .. . ... ...
ROW B5 : ... .. . ... ... ... : ... .. 3 ... ... ... : F#3 00 . P7E : ... .. 0 ... : ... .. . ... ... : ... .. . ... ... : ... .. . ... ... : ... .. . ... ...
ROW B6 : ... .. . ... ... ... : ... .. . ... ... ... : --- .. . ... : ... .. . ... : ... .. . ... ... : ... .. . ... ... : ... .. . ... ... : --- .. . P7E ...
ROW B7 : ... .. . ... ... ... : ... .. . ... ... ... : ... .. . ... : ... .. . ... : ... .. . ... ... : ... .. . ... ... : ... .. . ... ... : ... .. . ... ...
ROW B8 : E-4 00 F ... ... ... : C#4 00 A ... ... ... : G#3 00 . P80 : C-# 00 8 ... : ... .. . ... ... : ... .. 4 ... ... : ... .. 4 ... ... : G#1 01 F P80 ...
ROW B9 : ... .. E ... ... ... : ... .. 8 ... ... ... : ... .. . ... : ... .. 6 ... : ... .. . ... ... : ... .. . ... ... : ... .. . ... ... : ... .. D ... ...
ROW BA : ... .. D ... ... ... : ... .. . ... ... ... : ... .. . ... : ... .. 3 ... : ... .. . ... ... : ... .. . ... ... : ... .. . ... ... : ... .. 8 ... ...
ROW BB : ... .. A ... ... ... : ... .. . ... ... ... : ... .. . ... : ... .. 1 ... : ... .. . ... ... : ... .. . ... ... : ... .. . ... ... : ... .. . ... ...
ROW BC : ... .. . ... ... ... : ... .. 4 ... ... ... : ... .. . ... : ... .. . ... : ... .. . ... ... : ... .. 2 ... ... : ... .. 2 ... ... : ... .. . ... ...
ROW BD : ... .. . ... ... ... : ... .. 3 ... ... ... : ... .. . ... : ... .. 0 ... : ... .. . ... ... : ... .. . ... ... : ... .. . ... ... : ... .. . ... ...
ROW BE : ... .. . ... ... ... : ... .. . ... ... ... : --- .. . ... : ... .. . ... : ... .. . ... ... : ... .. . ... ... : ... .. . ... ... : --- .. . P7E ...
ROW BF : ... .. . ... ... ... : ... .. . ... ... ... : ... .. . ... : ... .. . ... : ... .. . ... ... : ... .. . ... ... : ... .. . ... ... : ... .. . ... ...
ROW C0 : F#4 00 F ... ... ... : F#4 00 A ... ... ... : A#2 00 . P82 : 1-# 00 F ... : ... .. . ... ... : D#5 01 6 ... ... : F#4 01 6 ... ... : F#3 01 A P80 ...
ROW C1 : ... .. E ... ... ... : ... .. 8 ... ... ... : G#2 00 . P8B : ... .. C ... : ... .. . ... ... : ... .. 5 ... ... : ... .. 5 ... ... : ... .. 8 ... ...
ROW C2 : ... .. D ... ... ... : ... .. . ... ... ... : G-2 00 . P79 : ... .. 6 ... : ... .. . ... ... : ... .. . ... ... : ... .. . ... ... : ... .. 5 ... ...
ROW C3 : ... .. A ... ... ... : ... .. . ... ... ... : F-2 00 . P8D : ... .. 3 ... : ... .. . ... ... : ... .. . ... ... : ... .. . ... ... : ... .. . ... ...
ROW C4 : ... .. . ... ... ... : ... .. 4 ... ... ... : E-2 00 . P81 : ... .. 2 ... : ... .. . ... ... : ... .. 2 ... ... : ... .. 2 ... ... : ... .. 3 ... ...
ROW C5 : ... .. . ... ... ... : ... .. 3 ... ... ... : D#2 00 . P77 : ... .. 0 ... : ... .. . ... ... : ... .. . ... ... : ... .. . ... ... : ... .. . ... ...
ROW C6 : ... .. . ... ... ... : ... .. . ... ... ... : --- .. . ... : ... .. . ... : ... .. . ... ... : ... .. . ... ... : ... .. . ... ... : ... .. . ... ...
ROW C7 : ... .. . ... ... ... : ... .. . ... ... ... : ... .. . ... : ... .. . ... : ... .. . ... ... : ... .. . ... ... : ... .. . ... ... : ... .. . ... ...
ROW C8 : ... .. . ... ... ... : C#4 00 A ... ... ... : A-3 00 . P80 : ... .. F ... : ... .. . ... ... : ... .. 4 ... ... : ... .. 4 ... ... : ... .. 5 ... ...
ROW C9 : ... .. . ... ... ... : ... .. 8 ... ... ... : ... .. . ... : ... .. C ... : ... .. . ... ... : ... .. . ... ... : ... .. . ... ... : ... .. . ... ...
ROW CA : ... .. . ... ... ... : ... .. . ... ... ... : ... .. . ... : ... .. 6 ... : ... .. . ... ... : ... .. . ... ... : ... .. . ... ... : ... .. . ... ...
ROW CB : ... .. . ... ... ... : ... .. . ... ... ... : ... .. . ... : ... .. 3 ... : ... .. . ... ... : ... .. . ... ... : ... .. . ... ... : ... .. . ... ...
ROW CC : ... .. . ... ... ... : ... .. 4 ... ... ... : ... .. . ... : ... .. 2 ... : ... .. . ... ... : ... .. 2 ... ... : ... .. 2 ... ... : ... .. 3 ... ...
ROW CD : ... .. . ... ... ... : ... .. 3 ... ... ... : ... .. . ... : ... .. 0 ... : ... .. . ... ... : ... .. . ... ... : ... .. . ... ... : ... .. . ... ...
ROW CE : ... .. . ... ... ... : ... .. . ... ... ... : --- .. . ... : ... .. . ... : ... .. . ... ... : ... .. . ... ... : ... .. . ... ... : ... .. . ... ...
ROW CF : ... .. . ... ... ... : ... .. . ... ... ... : ... .. . ... : ... .. . ... : ... .. . ... ... : ... .. . ... ... : ... .. . ... ... : ... .. . ... ...
ROW D0 : ... .. . ... ... ... : A-3 00 A ... ... ... : B-3 00 . P7D : 5-# 00 F ... : ... .. . ... ... : ... .. 4 ... ... : ... .. 4 ... ... : ... .. 5 ... ...
ROW D1 : ... .. . ... ... ... : ... .. 8 ... ... ... : A#3 00 . P7C : ... .. C ... : ... .. . ... ... : ... .. . ... ... : ... .. . ... ... : ... .. . ... ...
ROW D2 : ... .. . ... ... ... : ... .. . ... ... ... : A-3 00 . P7B : ... .. 6 ... : ... .. . ... ... : ... .. . ... ... : ... .. . ... ... : ... .. . ... ...
ROW D3 : ... .. . ... ... ... : ... .. . ... ... ... : G#3 00 . ... : ... .. 3 ... : ... .. . ... ... : ... .. . ... ... : ... .. . ... ... : ... .. . ... ...
ROW D4 : ... .. . ... ... ... : ... .. 4 ... ... ... : G-3 00 . P7C : ... .. 2 ... : ... .. . ... ... : ... .. 2 ... ... : ... .. 2 ... ... : ... .. 3 ... ...
ROW D5 : ... .. . ... ... ... : ... .. 3 ... ... ... : F#3 00 . P7E : ... .. 0 ... : ... .. . ... ... : ... .. . ... ... : ... .. . ... ... : ... .. . ... ...
ROW D6 : ... .. . ... ... ... : ... .. . ... ... ... : --- .. . ... : ... .. . ... : ... .. . ... ... : ... .. . ... ... : ... .. . ... ... : ... .. . ... ...
ROW D7 : ... .. . ... ... ... : ... .. . ... ... ... : ... .. . ... : ... .. . ... : ... .. . ... ... : ... .. . ... ... : ... .. . ... ... : ... .. . ... ...
ROW D8 : ... .. . ... ... ... : F#3 00 A ... ... ... : A-3 00 . P80 : 1-# 00 F ... : ... .. . ... ... : ... .. 4 ... ... : ... .. 4 ... ... : ... .. 5 ... ...
ROW D9 : ... .. . ... ... ... : ... .. 8 ... ... ... : ... .. . ... : ... .. C ... : ... .. . ... ... : ... .. . ... ... : ... .. . ... ... : ... .. . ... ...
ROW DA : ... .. . ... ... ... : ... .. . ... ... ... : ... .. . ... : ... .. 6 ... : ... .. . ... ... : ... .. . ... ... : ... .. . ... ... : ... .. . ... ...
ROW DB : ... .. . ... ... ... : ... .. . ... ... ... : ... .. . ... : ... .. 3 ... : ... .. . ... ... : ... .. . ... ... : ... .. . ... ... : ... .. . ... ...
ROW DC : ... .. . ... ... ... : ... .. 4 ... ... ... : ... .. . ... : ... .. 2 ... : ... .. . ... ... : ... .. 2 ... ... : ... .. 2 ... ... : ... .. 3 ... ...
ROW DD : ... .. . ... ... ... : ... .. 3 ... ... ... : ... .. . ... : ... .. 0 ... : ... .. . ... ... : ... .. . ... ... : ... .. . ... ... : ... .. . ... ...
ROW DE : ... .. . ... ... ... : ... .. . ... ... ... : --- .. . ... : ... .. . ... : ... .. . ... ... : ... .. . ... ... : ... .. . ... ... : ... .. . ... ...
ROW DF : ... .. . ... ... ... : ... .. . ... ... ... : ... .. . ... : ... .. . ... : ... .. . ... ... : ... .. . ... ... : ... .. . ... ... : ... .. . ... ...
ROW E0 : G#4 00 F ... ... ... : D#3 00 A ... ... ... : A#2 00 . P82 : C-# 00 8 ... : ... .. . ... ... : C#5 01 6 ... ... : ... .. 4 ... ... : C#4 01 A ... ...
ROW E1 : ... .. E ... ... ... : ... .. 8 ... ... ... : G#2 00 . P8B : ... .. 6 ... : ... .. . ... ... : ... .. 5 ... ... : ... .. . ... ... : ... .. 8 ... ...
ROW E2 : ... .. D ... ... ... : ... .. . ... ... ... : G-2 00 . P79 : ... .. 3 ... : ... .. . ... ... : ... .. . ... ... : ... .. . ... ... : ... .. 5 ... ...
ROW E3 : ... .. A ... ... ... : ... .. . ... ... ... : F-2 00 . P8D : ... .. 1 ... : ... .. . ... ... : ... .. . ... ... : ... .. . ... ... : ... .. . ... ...
ROW E4 : ... .. . ... ... ... : ... .. 4 ... ... ... : E-2 00 . P81 : ... .. . ... : ... .. . ... ... : ... .. 4 ... ... : ... .. . ... ... : ... .. . ... ...
ROW E5 : ... .. . ... ... ... : ... .. 3 ... ... ... : D#2 00 . P77 : ... .. 0 ... : ... .. . ... ... : ... .. . ... ... : ... .. . ... ... : ... .. . ... ...
ROW E6 : ... .. . ... ... ... : ... .. . ... ... ... : --- .. . ... : ... .. . ... : ... .. . ... ... : ... .. . ... ... : ... .. . ... ... : ... .. . ... ...
ROW E7 : ... .. . ... ... ... : ... .. . ... ... ... : ... .. . ... : ... .. . ... : ... .. . ... ... : ... .. . ... ... : ... .. . ... ... : ... .. . ... ...
ROW E8 : ... .. . ... ... ... : F#3 00 A ... ... ... : A-3 00 . P80 : 1-# 00 F ... : ... .. . ... ... : ... .. . ... ... : ... .. . ... ... : ... .. . ... ...
ROW E9 : ... .. . ... ... ... : ... .. 8 ... ... ... : ... .. . ... : ... .. C ... : ... .. . ... ... : ... .. . ... ... : ... .. . ... ... : ... .. . ... ...
ROW EA : ... .. . ... ... ... : ... .. . ... ... ... : ... .. . ... : ... .. 6 ... : ... .. . ... ... : ... .. . ... ... : ... .. . ... ... : ... .. . ... ...
ROW EB : ... .. . ... ... ... : ... .. . ... ... ... : ... .. . ... : ... .. 3 ... : ... .. . ... ... : ... .. . ... ... : ... .. . ... ... : ... .. . ... ...
ROW EC : ... .. . ... ... ... : ... .. 4 ... ... ... : ... .. . ... : ... .. 2 ... : ... .. . ... ... : ... .. . ... ... : ... .. . ... ... : ... .. . ... ...
ROW ED : ... .. . ... ... ... : ... .. 3 ... ... ... : ... .. . ... : ... .. 0 ... : ... .. . ... ... : ... .. . ... ... : ... .. . ... ... : ... .. . ... ...
ROW EE : ... .. . ... ... ... : ... .. . ... ... ... : --- .. . ... : ... .. . ... : ... .. . ... ... : ... .. . ... ... : ... .. . ... ... : ... .. . ... ...
ROW EF : ... .. . ... ... ... : ... .. . ... ... ... : ... .. . ... : ... .. . ... : ... .. . ... ... : ... .. . ... ... : ... .. . ... ... : ... .. . ... ...
ROW F0 : ... .. . ... ... ... : A-3 00 A ... ... ... : B-3 00 . P7D : 5-# 00 F ... : ... .. . ... ... : ... .. . ... ... : ... .. . ... ... : ... .. . ... ...
ROW F1 : ... .. . ... ... ... : ... .. 8 ... ... ... : A#3 00 . P7C : ... .. C ... : ... .. . ... ... : ... .. . ... ... : ... .. . ... ... : ... .. . ... ...
ROW F2 : ... .. . ... ... ... : ... .. . ... ... ... : A-3 00 . P7B : ... .. 6 ... : ... .. . ... ... : ... .. . ... ... : ... .. . ... ... : ... .. . ... ...
ROW F3 : ... .. . ... ... ... : ... .. . ... ... ... : G#3 00 . ... : ... .. 3 ... : ... .. . ... ... : ... .. . ... ... : ... .. . ... ... : ... .. . ... ...
ROW F4 : ... .. . ... ... ... : ... .. 4 ... ... ... : G-3 00 . P7C : ... .. 2 ... : ... .. . ... ... : ... .. . ... ... : ... .. . ... ... : ... .. . ... ...
ROW F5 : ... .. . ... ... ... : ... .. 3 ... ... ... : F#3 00 . P7E : ... .. 0 ... : ... .. . ... ... : ... .. . ... ... : ... .. . ... ... : ... .. . ... ...
ROW F6 : ... .. . ... ... ... : ... .. . ... ... ... : --- .. . ... : ... .. . ... : ... .. . ... ... : ... .. . ... ... : ... .. . ... ... : ... .. . ... ...
ROW F7 : ... .. . ... ... ... : ... .. . ... ... ... : ... .. . ... : ... .. . ... : ... .. . ... ... : ... .. . ... ... : ... .. . ... ... : ... .. . ... ...
ROW F8 : ... .. . ... ... ... : C#4 00 A ... ... ... : A-3 00 . P80 : C-# 00 8 ... : ... .. . ... ... : ... .. . ... ... : ... .. . ... ... : ... .. . ... ...
ROW F9 : ... .. . ... ... ... : ... .. 8 ... ... ... : ... .. . ... : ... .. 6 ... : ... .. . ... ... : ... .. . ... ... : ... .. . ... ... : ... .. . ... ...
ROW FA : ... .. . ... ... ... : ... .. . ... ... ... : ... .. . ... : ... .. 3 ... : ... .. . ... ... : ... .. . ... ... : ... .. . ... ... : ... .. . ... ...
ROW FB : ... .. . ... ... ... : ... .. . ... ... ... : ... .. . ... : ... .. 1 ... : ... .. . ... ... : ... .. . ... ... : ... .. . ... ... : ... .. . ... ...
ROW FC : ... .. . ... ... ... : ... .. 4 ... ... ... : ... .. . ... : ... .. . ... : ... .. . ... ... : ... .. . ... ... : ... .. . ... ... : ... .. . ... ...
ROW FD : ... .. . ... ... ... : ... .. 3 ... ... ... : ... .. . ... : ... .. 0 ... : ... .. . ... ... : ... .. . ... ... : ... .. . ... ... : ... .. . ... ...
ROW FE : ... .. . ... ... ... : ... .. . ... ... ... : --- .. . ... : ... .. . ... : ... .. . ... ... : ... .. . ... ... : ... .. . ... ... : ... .. . ... ...
ROW FF : ... .. . ... ... ... : ... .. . ... ... ... : ... .. . ... : ... .. . ... : ... .. . ... ... : ... .. . ... ... : ... .. . ... ... : ... .. . ... ...

PATTERN 1A
ROW 00 : F#4 00 F ... ... ... : C-4 00 A ... ... ... : G#3 00 . ... : 1-# 00 F ... : ... .. . ... ... : C-5 01 6 ... ... : G#4 01 6 ... ... : G#3 01 A ... ...
ROW 01 : E-4 00 E P83 ... ... : ... .. 8 ... ... ... : ... .. . ... : ... .. C ... : ... .. . ... ... : ... .. 5 ... ... : ... .. 5 ... ... : ... .. 8 ... ...
ROW 02 : D#4 00 D P80 ... ... : ... .. . ... ... ... : ... .. . ... : ... .. 6 ... : ... .. . ... ... : ... .. . ... ... : ... .. . ... ... : ... .. 5 ... ...
ROW 03 : ... .. A ... ... ... : ... .. . ... ... ... : ... .. . ... : ... .. 3 ... : ... .. . ... ... : ... .. . ... ... : ... .. . ... ... : ... .. . ... ...
ROW 04 : ... .. . ... ... ... : ... .. 4 ... ... ... : ... .. . ... : ... .. 2 ... : ... .. . ... ... : ... .. 4 ... ... : ... .. 4 ... ... : ... .. . ... ...
ROW 05 : ... .. . ... ... ... : ... .. 3 ... ... ... : ... .. . ... : ... .. 0 ... : ... .. . ... ... : ... .. . ... ... : ... .. . ... ... : ... .. . ... ...
ROW 06 : ... .. . ... ... ... : ... .. . ... ... ... : ... .. . ... : ... .. . ... : ... .. . ... ... : ... .. . ... ... : ... .. . ... ... : ... .. . ... ...
ROW 07 : ... .. . ... ... ... : ... .. . ... ... ... : ... .. . ... : ... .. . ... : ... .. . ... ... : ... .. . ... ... : ... .. . ... ... : ... .. . ... ...
ROW 08 : ... .. . ... ... ... : G#3 00 A ... ... ... : ... .. . ... : ... .. . ... : ... .. . ... ... : ... .. . ... ... : ... .. . ... ... : ... .. . ... ...
ROW 09 : ... .. . ... ... ... : ... .. 8 ... ... ... : ... .. . ... : ... .. . ... : ... .. . ... ... : ... .. . ... ... : ... .. . ... ... : ... .. . ... ...
ROW 0A : ... .. . ... ... ... : ... .. . ... ... ... : ... .. . ... : ... .. . ... : ... .. . ... ... : ... .. . ... ... : ... .. . ... ... : ... .. . ... ...
ROW 0B : ... .. . ... ... ... : ... .. . ... ... ... : ... .. . ... : ... .. . ... : ... .. . ... ... : ... .. . ... ... : ... .. . ... ... : ... .. . ... ...
ROW 0C : ... .. . ... ... ... : ... .. 4 ... ... ... : ... .. . ... : ... .. . ... : ... .. . ... ... : ... .. . ... ... : ... .. . ... ... : ... .. . ... ...
ROW 0D : ... .. . ... ... ... : ... .. 3 ... ... ... : ... .. . ... : ... .. . ... : ... .. . ... ... : ... .. . ... ... : ... .. . ... ... : ... .. . ... ...
ROW 0E : ... .. . ... ... ... : ... .. . ... ... ... : ... .. . ... : ... .. . ... : ... .. . ... ... : ... .. . ... ... : ... .. . ... ... : ... .. . ... ...
ROW 0F : ... .. . ... ... ... : ... .. . ... ... ... : ... .. . ... : ... .. . ... : ... .. . ... ... : ... .. . ... ... : ... .. . ... ... : ... .. . ... ...
ROW 10 : ... .. . P84 ... ... : F#3 00 A ... ... ... : ... .. . ... : ... .. . ... : ... .. . ... ... : ... .. . ... ... : ... .. . ... ... : ... .. . ... ...
ROW 11 : E-4 00 A P7C ... ... : ... .. 8 ... ... ... : ... .. . ... : ... .. . ... : ... .. . ... ... : ... .. . ... ... : ... .. . ... ... : ... .. . ... ...
ROW 12 : D#4 00 A P85 ... ... : ... .. . ... ... ... : ... .. . ... : ... .. . ... : ... .. . ... ... : ... .. . ... ... : ... .. . ... ... : ... .. . ... ...
ROW 13 : ... .. . P82 ... ... : ... .. . ... ... ... : ... .. . ... : ... .. . ... : ... .. . ... ... : ... .. . ... ... : ... .. . ... ... : ... .. . ... ...
ROW 14 : ... .. . P7E ... ... : ... .. 4 ... ... ... : ... .. . ... : ... .. . ... : ... .. . ... ... : ... .. . ... ... : ... .. . ... ... : ... .. . ... ...
ROW 15 : D-4 00 A P85 ... ... : ... .. 3 ... ... ... : ... .. . ... : ... .. . ... : ... .. . ... ... : ... .. . ... ... : ... .. . ... ... : ... .. . ... ...
ROW 16 : ... .. . P84 ... ... : ... .. . ... ... ... : ... .. . ... : ... .. . ... : ... .. . ... ... : ... .. . ... ... : ... .. . ... ... : ... .. . ... ...
ROW 17 : D#4 00 A P7C ... ... : ... .. . ... ... ... : ... .. . ... : ... .. . ... : ... .. . ... ... : ... .. . ... ... : ... .. . ... ... : ... .. . ... ...
ROW 18 : ... .. . P80 ... ... : D#3 00 A ... ... ... : ... .. . ... : ... .. . ... : ... .. . ... ... : ... .. . ... ... : ... .. . ... ... : ... .. . ... ...
ROW 19 : ... .. . P83 ... ... : ... .. 8 ... ... ... : ... .. . ... : ... .. . ... : ... .. . ... ... : ... .. . ... ... : ... .. . ... ... : ... .. . ... ...
ROW 1A : E-4 00 A P7C ... ... : ... .. . ... ... ... : ... .. . ... : ... .. . ... : ... .. . ... ... : ... .. . ... ... : ... .. . ... ... : ... .. . ... ...
ROW 1B : ... .. . ... ... ... : ... .. . ... ... ... : ... .. . ... : ... .. . ... : ... .. . ... ... : ... .. . ... ... : ... .. . ... ... : ... .. . ... ...
ROW 1C : D#4 00 A P82 ... ... : ... .. 4 ... ... ... : ... .. . ... : ... .. . ... : ... .. . ... ... : ... .. . ... ... : ... .. . ... ... : ... .. . ... ...
ROW 1D : ... .. . P7F ... ... : ... .. 3 ... ... ... : ... .. . ... : ... .. . ... : ... .. . ... ... : ... .. . ... ... : ... .. . ... ... : ... .. . ... ...
ROW 1E : D-4 00 A P85 ... ... : ... .. . ... ... ... : ... .. . ... : ... .. . ... : ... .. . ... ... : ... .. . ... ... : ... .. . ... ... : ... .. . ... ...
ROW 1F : ... .. . P84 ... ... : ... .. . ... ... ... : ... .. . ... : ... .. . ... : ... .. . ... ... : ... .. . ... ... : ... .. . ... ... : ... .. . ... ...
ROW 20 : C#4 00 F P86 ... ... : C-3 00 A ... ... ... : G-3 00 . ... : ... .. . ... : ... .. . ... ... : ... .. . ... ... : ... .. . ... ... : ... .. . ... ...
ROW 21 : C-4 00 E P82 ... ... : ... .. 8 ... ... ... : F#3 00 . P81 : ... .. . ... : ... .. . ... ... : ... .. 3 ... ... : ... .. 3 ... ... : ... .. 2 ... ...
ROW 22 : B-3 00 D P7E ... ... : ... .. . ... ... ... : F-3 00 . P83 : ... .. . ... : ... .. . ... ... : ... .. . ... ... : ... .. . ... ... : ... .. . ... ...
ROW 23 : A#3 00 A P7C ... ... : ... .. . ... ... ... : E-3 00 . P86 : ... .. . ... : ... .. . ... ... : ... .. 2 ... ... : ... .. 2 ... ... : ... .. 1 ... ...
ROW 24 : A-3 00 A P7A ... ... : ... .. 4 ... ... ... : ... .. . P76 : ... .. . ... : ... .. . ... ... : ... .. . ... ... : ... .. . ... ... : ... .. . ... ...
ROW 25 : G#3 00 A P80 ... ... : ... .. 3 ... ... ... : D#3 00 . P7B : ... .. . ... : ... .. . ... ... : ... .. . ... ... : ... .. . ... ... : ... .. . ... ...
ROW 26 : ... .. . ... ... ... : ... .. . ... ... ... : D-3 00 . P80 : ... .. . ... : ... .. . ... ... : ... .. . ... ... : ... .. . ... ... : ... .. . ... ...
ROW 27 : ... .. . ... ... ... : ... .. . ... ... ... : C#3 00 . P87 : ... .. . ... : ... .. . ... ... : ... .. . ... ... : ... .. . ... ... : ... .. . ... ...
ROW 28 : ... .. . ... ... ... : G#2 00 A ... ... ... : ... .. . P77 : ... .. . ... : ... .. . ... ... : ... .. . ... ... : ... .. . ... ... : ... .. . ... ...
ROW 29 : ... .. . ... ... ... : ... .. 8 ... ... ... : C-3 00 . P7F : ... .. . ... : ... .. . ... ... : ... .. . ... ... : ... .. . ... ... : ... .. . ... ...
ROW 2A : ... .. . ... ... ... : ... .. . ... ... ... : B-2 00 . P88 : ... .. . ... : ... .. . ... ... : ... .. . ... ... : ... .. . ... ... : ... .. 0 ... ...
ROW 2B : ... .. . ... ... ... : ... .. . ... ... ... : ... .. . P78 : ... .. . ... : ... .. . ... ... : ... .. . ... ... : ... .. . ... ... : ... .. . ... ...
ROW 2C : ... .. . ... ... ... : ... .. 4 ... ... ... : A#2 00 . P83 : ... .. . ... : ... .. . ... ... : ... .. . ... ... : ... .. . ... ... : ... .. . ... ...
ROW 2D : ... .. . ... ... ... : ... .. 3 ... ... ... : ... .. . P73 : ... .. . ... : ... .. . ... ... : ... .. . ... ... : ... .. . ... ... : ... .. . ... ...
ROW 2E : ... .. . ... ... ... : ... .. . ... ... ... : A-2 00 . P7F : ... .. . ... : ... .. . ... ... : ... .. . ... ... : ... .. . ... ... : ... .. . ... ...
ROW 2F : ... .. . ... ... ... : ... .. . ... ... ... : G#2 00 . P8E : ... .. . ... : ... .. . ... ... : ... .. 1 ... ... : ... .. 1 ... ... : ... .. . ... ...
ROW 30 : ... .. . ... ... ... : F#2 00 A ... ... ... : ... .. . P7E : ... .. . ... : ... .. . ... ... : ... .. . ... ... : ... .. . ... ... : ... .. . ... ...
ROW 31 : ... .. . ... ... ... : ... .. 8 ... ... ... : G-2 00 . P8E : ... .. . ... : ... .. . ... ... : ... .. . ... ... : ... .. . ... ... : ... .. . ... ...
ROW 32 : ... .. . ... ... ... : ... .. . ... ... ... : ... .. . P7E : ... .. . ... : ... .. . ... ... : ... .. . ... ... : ... .. . ... ... : ... .. . ... ...
ROW 33 : ... .. . ... ... ... : ... .. . ... ... ... : F#2 00 . P90 : ... .. . ... : ... .. . ... ... : ... .. . ... ... : ... .. . ... ... : ... .. . ... ...
ROW 34 : ... .. . ... ... ... : ... .. 4 ... ... ... : ... .. . P80 : ... .. . ... : ... .. . ... ... : ... .. . ... ... : ... .. . ... ... : ... .. . ... ...
ROW 35 : ... .. . ... ... ... : ... .. 3 ... ... ... : ... .. . P70 : ... .. . ... : ... .. . ... ... : ... .. . ... ... : ... .. . ... ... : ... .. . ... ...
ROW 36 : ... .. . ... ... ... : ... .. . ... ... ... : F-2 00 . P84 : ... .. . ... : ... .. . ... ... : ... .. . ... ... : ... .. . ... ... : ... .. . ... ...
ROW 37 : ... .. . ... ... ... : ... .. . ... ... ... : ... .. . P74 : ... .. . ... : ... .. . ... ... : ... .. . ... ... : ... .. . ... ... : ... .. . ... ...
ROW 38 : ... .. . ... ... ... : D#2 00 A ... ... ... : E-2 00 . P8A : ... .. . ... : ... .. . ... ... : ... .. . ... ... : ... .. . ... ... : ... .. . ... ...
ROW 39 : ... .. . ... ... ... : ... .. 8 ... ... ... : ... .. . P7A : ... .. . ... : ... .. . ... ... : ... .. . ... ... : ... .. . ... ... : ... .. . ... ...
ROW 3A : ... .. . ... ... ... : ... .. . ... ... ... : D#2 00 . P92 : ... .. . ... : ... .. . ... ... : ... .. . ... ... : ... .. . ... ... : ... .. . ... ...
ROW 3B : ... .. . ... ... ... : ... .. . ... ... ... : ... .. . P82 : ... .. . ... : ... .. . ... ... : ... .. . ... ... : ... .. . ... ... : ... .. . ... ...
ROW 3C : ... .. . ... ... ... : ... .. 4 ... ... ... : ... .. . P72 : ... .. . ... : ... .. . ... ... : ... .. . ... ... : ... .. . ... ... : ... .. . ... ...
ROW 3D : ... .. 2 ... ... ... : ... .. 3 ... ... ... : D-2 00 . P8D : ... .. . ... : ... .. . ... ... : --- .. . ... ... : --- .. . ... ... : ... .. . ... ...
ROW 3E : ... .. . ... ... ... : ... .. . ... ... ... : ... .. . P7D : ... .. . ... : ... .. . ... ... : ... .. . ... ... : ... .. . ... ... : ... .. . ... ...
ROW 3F : ... .. . ... ... ... : ... .. . ... ... ... : ... .. . P6D : ... .. . ... : ... .. . ... ... : ... .. . ... ... : ... .. . ... ... : ... .. . ... ...
ROW 40 : ... .. 0 ... ... ... : C#1 00 A ... ... ... : A#2 00 . P82 : C-# 00 B ... : ... .. . ... ... : E-3 01 6 ... V03 : G#3 01 6 ... V03 : C#1 01 F ... ...
ROW 41 : ... .. . ... ... ... : ... .. 8 ... ... ... : G#2 00 . P8B : ... .. . ... : ... .. . ... ... : ... .. . ... ... : ... .. . ... ... : ... .. D ... ...
ROW 42 : ... .. . ... ... ... : ... .. . ... ... ... : G-2 00 . P79 : ... .. . ... : ... .. . ... ... : ... .. 5 ... ... : ... .. 5 ... ... : ... .. 8 ... ...
ROW 43 : ... .. . ... ... ... : ... .. . ... ... ... : F-2 00 . P8D : ... .. . ... : ... .. . ... ... : ... .. 4 ... ... : ... .. 4 ... ... : ... .. . ... ...
ROW 44 : ... .. . ... ... ... : ... .. 4 ... ... ... : E-2 00 . P81 : ... .. 9 ... : ... .. . ... ... : ... .. 2 ... ... : ... .. 2 ... ... : ... .. . ... ...
ROW 45 : ... .. . ... ... ... : ... .. 3 ... ... ... : D#2 00 . P77 : ... .. . ... : ... .. . ... ... : ... .. . ... ... : ... .. . ... ... : ... .. . ... ...
ROW 46 : ... .. . ... ... ... : ... .. . ... ... ... : --- .. . ... : ... .. . ... : ... .. . ... ... : ... .. . ... ... : ... .. . ... ... : --- .. . P81 ...
ROW 47 : ... .. . ... ... ... : ... .. . ... ... ... : ... .. . ... : ... .. . ... : ... .. . ... ... : ... .. . ... ... : ... .. . ... ... : ... .. . ... ...
ROW 48 : ... .. . ... ... ... : G#1 00 A ... ... ... : C#2 00 . P80 : ... .. 7 ... : ... .. . ... ... : ... .. 6 ... ... : ... .. 6 ... ... : C#0 01 F P80 ...
ROW 49 : ... .. . ... ... ... : ... .. 8 ... ... ... : ... .. . ... : ... .. . ... : ... .. . ... ... : ... .. . ... ... : ... .. . ... ... : ... .. D ... ...
ROW 4A : ... .. . ... ... ... : ... .. . ... ... ... : ... .. . ... : ... .. . ... : ... .. . ... ... : ... .. 5 ... ... : ... .. 5 ... ... : ... .. 8 ... ...
ROW 4B : ... .. . ... ... ... : ... .. . ... ... ... : ... .. . ... : ... .. . ... : ... .. . ... ... : ... .. 4 ... ... : ... .. 4 ... ... : ... .. . ... ...
ROW 4C : ... .. . ... ... ... : ... .. 4 ... ... ... : ... .. . ... : ... .. 6 ... : ... .. . ... ... : ... .. 2 ... ... : ... .. 2 ... ... : ... .. . ... ...
ROW 4D : ... .. . ... ... ... : ... .. 3 ... ... ... : ... .. . ... : ... .. . ... : ... .. . ... ... : ... .. . ... ... : ... .. . ... ... : ... .. . ... ...
ROW 4E : ... .. . ... ... ... : ... .. . ... ... ... : ... .. . ... : ... .. . ... : ... .. . ... ... : ... .. . ... ... : ... .. . ... ... : ... .. . ... ...
ROW 4F : ... .. . ... ... ... : ... .. . ... ... ... : ... .. . ... : ... .. . ... : ... .. . ... ... : ... .. . ... ... : ... .. . ... ... : ... .. . ... ...
ROW 50 : ... .. . ... ... ... : E-2 00 A ... ... ... : ... .. . ... : ... .. 4 ... : ... .. . ... ... : ... .. 6 ... ... : ... .. 6 ... ... : ... .. . ... ...
ROW 51 : ... .. . ... ... ... : ... .. 8 ... ... ... : ... .. . ... : ... .. . ... : ... .. . ... ... : ... .. . ... ... : ... .. . ... ... : ... .. . ... ...
ROW 52 : ... .. . ... ... ... : ... .. . ... ... ... : ... .. . ... : ... .. . ... : ... .. . ... ... : ... .. 5 ... ... : ... .. 5 ... ... : ... .. . ... ...
ROW 53 : ... .. . ... ... ... : ... .. . ... ... ... : ... .. . ... : ... .. . ... : ... .. . ... ... : ... .. 4 ... ... : ... .. 4 ... ... : ... .. . ... ...
ROW 54 : ... .. . ... ... ... : ... .. 4 ... ... ... : ... .. . ... : ... .. 3 ... : ... .. . ... ... : ... .. 2 ... ... : ... .. 2 ... ... : ... .. . ... ...
ROW 55 : ... .. . ... ... ... : ... .. 3 ... ... ... : ... .. . ... : ... .. . ... : ... .. . ... ... : ... .. . ... ... : ... .. . ... ... : ... .. . ... ...
ROW 56 : ... .. . ... ... ... : ... .. . ... ... ... : --- .. . ... : ... .. . ... : ... .. . ... ... : ... .. . ... ... : ... .. . ... ... : --- .. . P83 ...
ROW 57 : ... .. . ... ... ... : ... .. . ... ... ... : ... .. . ... : ... .. . ... : ... .. . ... ... : ... .. . ... ... : ... .. . ... ... : ... .. . ... ...
ROW 58 : ... .. . ... ... ... : C#2 00 A ... ... ... : C#2 00 . ... : ... .. 1 ... : ... .. . ... ... : ... .. 6 ... ... : ... .. 6 ... ... : C#0 01 F P80 ...
ROW 59 : ... .. . ... ... ... : ... .. 8 ... ... ... : ... .. . ... : ... .. . ... : ... .. . ... ... : ... .. . ... ... : ... .. . ... ... : ... .. D ... ...
ROW 5A : ... .. . ... ... ... : ... .. . ... ... ... : ... .. . ... : ... .. . ... : ... .. . ... ... : ... .. 5 ... ... : ... .. 5 ... ... : ... .. 8 ... ...
ROW 5B : ... .. . ... ... ... : ... .. . ... ... ... : ... .. . ... : ... .. . ... : ... .. . ... ... : ... .. 4 ... ... : ... .. 4 ... ... : ... .. . ... ...
ROW 5C : ... .. . ... ... ... : ... .. 4 ... ... ... : ... .. . ... : ... .. 0 ... : ... .. . ... ... : ... .. 2 ... ... : ... .. 2 ... ... : ... .. . ... ...
ROW 5D : ... .. . ... ... ... : ... .. 3 ... ... ... : ... .. . ... : ... .. . ... : ... .. . ... ... : ... .. . ... ... : ... .. . ... ... : ... .. . ... ...
ROW 5E : ... .. . ... ... ... : ... .. . ... ... ... : ... .. . ... : ... .. . ... : ... .. . ... ... : ... .. . ... ... : ... .. . ... ... : ... .. . ... ...
ROW 5F : ... .. . ... ... ... : ... .. . ... ... ... : ... .. . ... : ... .. . ... : ... .. . ... ... : ... .. . ... ... : ... .. . ... ... : ... .. . ... ...
ROW 60 : G#2 00 F P80 ... ... : G#2 00 A ... ... ... : B-3 00 . P7D : 5-# 00 D ... : ... .. . ... ... : ... .. 6 ... ... : ... .. 6 ... ... : ... .. . ... ...
ROW 61 : ... .. E ... ... ... : ... .. 8 ... ... ... : A#3 00 . P7C : ... .. . ... : ... .. . ... ... : ... .. . ... ... : ... .. . ... ... : ... .. . ... ...
ROW 62 : ... .. D ... ... ... : ... .. . ... ... ... : A-3 00 . P7B : 1-# 00 D ... : ... .. . ... ... : ... .. 5 ... ... : ... .. 5 ... ... : ... .. . ... ...
ROW 63 : ... .. A ... ... ... : ... .. . ... ... ... : G#3 00 . ... : F-# 00 6 ... : ... .. . ... ... : ... .. 4 ... ... : ... .. 4 ... ... : ... .. . ... ...
ROW 64 : ... .. . ... ... ... : ... .. 4 ... ... ... : G-3 00 . P7C : B-# 00 1 ... : ... .. . ... ... : ... .. 2 ... ... : ... .. 2 ... ... : ... .. . ... ...
ROW 65 : ... .. . ... ... ... : ... .. 3 ... ... ... : F#3 00 . P7E : ... .. 0 ... : ... .. . ... ... : ... .. . ... ... : ... .. . ... ... : ... .. . ... ...
ROW 66 : ... .. . ... ... ... : ... .. . ... ... ... : --- .. . ... : ... .. . ... : ... .. . ... ... : ... .. . ... ... : ... .. . ... ... : --- .. . P83 ...
ROW 67 : ... .. . ... ... ... : ... .. . ... ... ... : ... .. . ... : ... .. . ... : ... .. . ... ... : ... .. . ... ... : ... .. . ... ... : ... .. . ... ...
ROW 68 : ... .. . ... ... ... : E-3 00 A ... ... ... : C#2 00 . P80 : E-# 00 A ... : ... .. . ... ... : ... .. 6 ... ... : ... .. 6 ... ... : C#0 01 F P80 ...
ROW 69 : ... .. . ... ... ... : ... .. 8 ... ... ... : ... .. . ... : ... .. 8 ... : ... .. . ... ... : ... .. . ... ... : ... .. . ... ... : ... .. D ... ...
ROW 6A : ... .. . ... ... ... : ... .. . ... ... ... : ... .. . ... : ... .. 4 ... : ... .. . ... ... : ... .. 5 ... ... : ... .. 5 ... ... : ... .. 8 ... ...
ROW 6B : ... .. . ... ... ... : ... .. . ... ... ... : ... .. . ... : ... .. 2 ... : ... .. . ... ... : ... .. 4 ... ... : ... .. 4 ... ... : ... .. . ... ...
ROW 6C : ... .. . ... ... ... : ... .. 4 ... ... ... : ... .. . ... : ... .. 1 ... : ... .. . ... ... : ... .. 2 ... ... : ... .. 2 ... ... : ... .. . ... ...
ROW 6D : ... .. 2 ... ... ... : ... .. 3 ... ... ... : ... .. . ... : ... .. 0 ... : ... .. . ... ... : ... .. . ... ... : ... .. . ... ... : ... .. . ... ...
ROW 6E : ... .. . ... ... ... : ... .. . ... ... ... : --- .. . ... : ... .. . ... : ... .. . ... ... : ... .. . ... ... : ... .. . ... ... : --- .. . P83 ...
ROW 6F : ... .. . ... ... ... : ... .. . ... ... ... : ... .. . ... : ... .. . ... : ... .. . ... ... : ... .. . ... ... : ... .. . ... ... : ... .. . ... ...
ROW 70 : D#3 00 F ... ... ... : B-2 00 A ... ... ... : B-2 00 . ... : ... .. F ... : ... .. . ... ... : ... .. 6 ... ... : ... .. 6 ... ... : B-0 01 F P80 ...
ROW 71 : ... .. E ... ... ... : ... .. 8 ... ... ... : ... .. . ... : ... .. C ... : ... .. . ... ... : ... .. . ... ... : ... .. . ... ... : ... .. D ... ...
ROW 72 : ... .. D ... ... ... : ... .. . ... ... ... : ... .. . ... : ... .. 6 ... : ... .. . ... ... : ... .. 5 ... ... : ... .. 5 ... ... : ... .. 8 ... ...
ROW 73 : ... .. A ... ... ... : ... .. . ... ... ... : ... .. . ... : ... .. 3 ... : ... .. . ... ... : ... .. 4 ... ... : ... .. 4 ... ... : ... .. . ... ...
ROW 74 : ... .. . ... ... ... : ... .. 4 ... ... ... : ... .. . ... : ... .. 2 ... : ... .. . ... ... : ... .. 2 ... ... : ... .. 2 ... ... : ... .. . ... ...
ROW 75 : ... .. . P89 ... ... : ... .. 3 ... ... ... : ... .. . ... : ... .. 0 ... : ... .. . ... ... : ... .. . ... ... : ... .. . ... ... : ... .. . ... ...
ROW 76 : E-3 00 A P7D ... ... : ... .. . ... ... ... : --- .. . ... : ... .. . ... : ... .. . ... ... : ... .. . ... ... : ... .. . ... ... : --- .. . ... ...
ROW 77 : ... .. . P80 ... ... : ... .. . ... ... ... : ... .. . ... : ... .. . ... : ... .. . ... ... : ... .. . ... ... : ... .. . ... ... : ... .. . ... ...
ROW 78 : ... .. . ... ... ... : C#3 00 A ... ... ... : C#3 00 . ... : D-# 00 A ... : ... .. . ... ... : ... .. 6 ... ... : ... .. 6 ... ... : C#1 01 F ... ...
ROW 79 : ... .. 2 ... ... ... : ... .. 8 ... ... ... : ... .. . ... : ... .. . ... : ... .. . ... ... : ... .. . ... ... : ... .. . ... ... : ... .. D ... ...
ROW 7A : ... .. . ... ... ... : ... .. . ... ... ... : ... .. . ... : ... .. . ... : ... .. . ... ... : ... .. 5 ... ... : ... .. 5 ... ... : ... .. 8 ... ...
ROW 7B : ... .. . ... ... ... : ... .. . ... ... ... : ... .. . ... : ... .. . ... : ... .. . ... ... : ... .. 4 ... ... : ... .. 4 ... ... : ... .. . ... ...
ROW 7C : ... .. 1 ... ... ... : ... .. 4 ... ... ... : ... .. . ... : ... .. . ... : ... .. . ... ... : ... .. 2 ... ... : ... .. 2 ... ... : ... .. . ... ...
ROW 7D : ... .. . ... ... ... : ... .. 3 ... ... ... : ... .. . ... : ... .. . ... : ... .. . ... ... : ... .. . ... ... : ... .. . ... ... : ... .. . ... ...
ROW 7E : ... .. . ... ... ... : ... .. . ... ... ... : --- .. . ... : ... .. . ... : ... .. . ... ... : ... .. . ... ... : ... .. . ... ... : --- .. . P81 ...
ROW 7F : ... .. 0 ... ... ... : ... .. . ... ... ... : ... .. . ... : ... .. . ... : ... .. . ... ... : ... .. . ... ... : ... .. . ... ... : ... .. . ... ...
ROW 80 : D#3 00 F P80 ... ... : C#1 00 A ... ... ... : A#2 00 . P82 : 1-# 00 F ... : ... .. . ... ... : ... .. 6 ... ... : ... .. 6 ... ... : B-1 01 F P80 ...
ROW 81 : ... .. E ... ... ... : ... .. 8 ... ... ... : G#2 00 . P8B : ... .. C ... : ... .. . ... ... : ... .. . ... ... : ... .. . ... ... : ... .. D ... ...
ROW 82 : ... .. D ... ... ... : ... .. . ... ... ... : G-2 00 . P79 : ... .. 6 ... : ... .. . ... ... : ... .. 5 ... ... : ... .. 5 ... ... : ... .. 8 ... ...
ROW 83 : ... .. A ... ... ... : ... .. . ... ... ... : F-2 00 . P8D : ... .. 3 ... : ... .. . ... ... : ... .. 4 ... ... : ... .. 4 ... ... : ... .. . ... ...
ROW 84 : ... .. . ... ... ... : ... .. 4 ... ... ... : E-2 00 . P81 : ... .. 2 ... : ... .. . ... ... : ... .. 2 ... ... : ... .. 2 ... ... : ... .. . ... ...
ROW 85 : ... .. . ... ... ... : ... .. 3 ... ... ... : D#2 00 . P77 : ... .. 0 ... : ... .. . ... ... : ... .. . ... ... : ... .. . ... ... : ... .. . ... ...
ROW 86 : ... .. . ... ... ... : ... .. . ... ... ... : --- .. . ... : ... .. . ... : ... .. . ... ... : ... .. . ... ... : ... .. . ... ... : --- .. . P86 ...
ROW 87 : ... .. . ... ... ... : ... .. . ... ... ... : ... .. . ... : ... .. . ... : ... .. . ... ... : ... .. . ... ... : ... .. . ... ... : ... .. . ... ...
ROW 88 : ... .. . ... ... ... : G#1 00 A ... ... ... : C#2 00 . P80 : E-# 00 A ... : ... .. . ... ... : ... .. 6 ... ... : ... .. 6 ... ... : C#0 01 F P80 ...
ROW 89 : ... .. . ... ... ... : ... .. 8 ... ... ... : ... .. . ... : ... .. 8 ... : ... .. . ... ... : ... .. . ... ... : ... .. . ... ... : ... .. D ... ...
ROW 8A : ... .. . ... ... ... : ... .. . ... ... ... : ... .. . ... : ... .. 4 ... : ... .. . ... ... : ... .. 5 ... ... : ... .. 5 ... ... : ... .. 8 ... ...
ROW 8B : ... .. . ... ... ... : ... .. . ... ... ... : ... .. . ... : ... .. 2 ... : ... .. . ... ... : ... .. 4 ... ... : ... .. 4 ... ... : ... .. . ... ...
ROW 8C : ... .. . ... ... ... : ... .. 4 ... ... ... : ... .. . ... : ... .. 1 ... : ... .. . ... ... : ... .. 2 ... ... : ... .. 2 ... ... : ... .. . ... ...
ROW 8D : ... .. . ... ... ... : ... .. 3 ... ... ... : ... .. . ... : ... .. 0 ... : ... .. . ... ... : ... .. . ... ... : ... .. . ... ... : ... .. . ... ...
ROW 8E : ... .. . ... ... ... : ... .. . ... ... ... : ... .. . ... : ... .. . ... : ... .. . ... ... : ... .. . ... ... : ... .. . ... ... : ... .. . ... ...
ROW 8F : ... .. . ... ... ... : ... .. . ... ... ... : ... .. . ... : ... .. . ... : ... .. . ... ... : ... .. . ... ... : ... .. . ... ... : ... .. . ... ...
ROW 90 : ... .. . ... ... ... : E-2 00 A ... ... ... : ... .. . ... : ... .. F ... : ... .. . ... ... : ... .. 6 ... ... : ... .. 6 ... ... : ... .. . ... ...
ROW 91 : ... .. 2 ... ... ... : ... .. 8 ... ... ... : ... .. . ... : ... .. C ... : ... .. . ... ... : ... .. . ... ... : ... .. . ... ... : ... .. . ... ...
ROW 92 : ... .. . ... ... ... : ... .. . ... ... ... : ... .. . ... : ... .. 6 ... : ... .. . ... ... : ... .. 5 ... ... : ... .. 5 ... ... : ... .. . ... ...
ROW 93 : ... .. . ... ... ... : ... .. . ... ... ... : ... .. . ... : ... .. 3 ... : ... .. . ... ... : ... .. 4 ... ... : ... .. 4 ... ... : ... .. . ... ...
ROW 94 : ... .. 1 ... ... ... : ... .. 4 ... ... ... : ... .. . ... : ... .. 2 ... : ... .. . ... ... : ... .. 2 ... ... : ... .. 2 ... ... : ... .. . ... ...
ROW 95 : ... .. . ... ... ... : ... .. 3 ... ... ... : ... .. . ... : ... .. 0 ... : ... .. . ... ... : ... .. . ... ... : ... .. . ... ... : ... .. . ... ...
ROW 96 : ... .. . ... ... ... : ... .. . ... ... ... : --- .. . ... : ... .. . ... : ... .. . ... ... : ... .. . ... ... : ... .. . ... ... : --- .. . P83 ...
ROW 97 : ... .. 0 ... ... ... : ... .. . ... ... ... : ... .. . ... : ... .. . ... : ... .. . ... ... : ... .. . ... ... : ... .. . ... ... : ... .. . ... ...
ROW 98 : C#3 00 F P80 ... ... : C#2 00 A ... ... ... : C#2 00 . ... : 1-# 00 F ... : ... .. . ... ... : ... .. 6 ... ... : ... .. 6 ... ... : C#0 01 F P80 ...
ROW 99 : ... .. E ... ... ... : ... .. 8 ... ... ... : ... .. . ... : ... .. C ... : ... .. . ... ... : ... .. . ... ... : ... .. . ... ... : ... .. D ... ...
ROW 9A : ... .. D ... ... ... : ... .. . ... ... ... : ... .. . ... : ... .. 6 ... : ... .. . ... ... : ... .. 5 ... ... : ... .. 5 ... ... : ... .. 8 ... ...
ROW 9B : ... .. A ... ... ... : ... .. . ... ... ... : ... .. . ... : ... .. 3 ... : ... .. . ... ... : ... .. 4 ... ... : ... .. 4 ... ... : ... .. . ... ...
ROW 9C : ... .. . ... ... ... : ... .. 4 ... ... ... : ... .. . ... : ... .. 2 ... : ... .. . ... ... : ... .. 2 ... ... : ... .. 2 ... ... : ... .. . ... ...
ROW 9D : ... .. . ... ... ... : ... .. 3 ... ... ... : ... .. . ... : ... .. 0 ... : ... .. . ... ... : ... .. . ... ... : ... .. . ... ... : ... .. . ... ...
ROW 9E : ... .. . ... ... ... : ... .. . ... ... ... : ... .. . ... : ... .. . ... : ... .. . ... ... : ... .. . ... ... : ... .. . ... ... : ... .. . ... ...
ROW 9F : ... .. . ... ... ... : ... .. . ... ... ... : ... .. . ... : ... .. . ... : ... .. . ... ... : ... .. . ... ... : ... .. . ... ... : ... .. . ... ...
ROW A0 : ... .. . ... ... ... : G#2 00 A ... ... ... : B-3 00 . P7D : 5-# 00 D ... : ... .. . ... ... : ... .. 6 ... ... : ... .. 6 ... ... : ... .. . ... ...
ROW A1 : ... .. . ... ... ... : ... .. 8 ... ... ... : A#3 00 . P7C : ... .. . ... : ... .. . ... ... : ... .. . ... ... : ... .. . ... ... : ... .. . ... ...
ROW A2 : ... .. . ... ... ... : ... .. . ... ... ... : A-3 00 . P7B : 1-# 00 D ... : ... .. . ... ... : ... .. 5 ... ... : ... .. 5 ... ... : ... .. . ... ...
ROW A3 : ... .. . ... ... ... : ... .. . ... ... ... : G#3 00 . ... : F-# 00 6 ... : ... .. . ... ... : ... .. 4 ... ... : ... .. 4 ... ... : ... .. . ... ...
ROW A4 : ... .. . ... ... ... : ... .. 4 ... ... ... : G-3 00 . P7C : B-# 00 1 ... : ... .. . ... ... : ... .. 2 ... ... : ... .. 2 ... ... : ... .. . ... ...
ROW A5 : ... .. . ... ... ... : ... .. 3 ... ... ... : F#3 00 . P7E : ... .. 0 ... : ... .. . ... ... : ... .. . ... ... : ... .. . ... ... : ... .. . ... ...
ROW A6 : ... .. . ... ... ... : ... .. . ... ... ... : --- .. . ... : ... .. . ... : ... .. . ... ... : ... .. . ... ... : ... .. . ... ... : --- .. . P83 ...
ROW A7 : ... .. . ... ... ... : ... .. . ... ... ... : ... .. . ... : ... .. . ... : ... .. . ... ... : ... .. . ... ... : ... .. . ... ... : ... .. . ... ...
ROW A8 : ... .. . ... ... ... : E-3 00 A ... ... ... : C#2 00 . P80 : E-# 00 A ... : ... .. . ... ... : ... .. 6 ... ... : ... .. 6 ... ... : C#0 01 F P80 ...
ROW A9 : ... .. 2 ... ... ... : ... .. 8 ... ... ... : ... .. . ... : ... .. 8 ... : ... .. . ... ... : ... .. . ... ... : ... .. . ... ... : ... .. D ... ...
ROW AA : ... .. . ... ... ... : ... .. . ... ... ... : ... .. . ... : ... .. 4 ... : ... .. . ... ... : ... .. 5 ... ... : ... .. 5 ... ... : ... .. 8 ... ...
ROW AB : ... .. . ... ... ... : ... .. . ... ... ... : ... .. . ... : ... .. 2 ... : ... .. . ... ... : ... .. 4 ... ... : ... .. 4 ... ... : ... .. . ... ...
ROW AC : ... .. 1 ... ... ... : ... .. 4 ... ... ... : ... .. . ... : ... .. 1 ... : ... .. . ... ... : ... .. 2 ... ... : ... .. 2 ... ... : ... .. . ... ...
ROW AD : ... .. . ... ... ... : ... .. 3 ... ... ... : ... .. . ... : ... .. 0 ... : ... .. . ... ... : ... .. . ... ... : ... .. . ... ... : ... .. . ... ...
ROW AE : ... .. . ... ... ... : ... .. . ... ... ... : --- .. . ... : ... .. . ... : ... .. . ... ... : ... .. . ... ... : ... .. . ... ... : --- .. . P83 ...
ROW AF : ... .. 0 ... ... ... : ... .. . ... ... ... : ... .. . ... : ... .. . ... : ... .. . ... ... : ... .. . ... ... : ... .. . ... ... : ... .. . ... ...
ROW B0 : G#3 00 F P80 ... ... : B-2 00 A ... ... ... : B-2 00 . ... : ... .. F ... : ... .. . ... ... : ... .. 6 ... ... : ... .. 6 ... ... : B-0 01 F P80 ...
ROW B1 : ... .. E ... ... ... : ... .. 8 ... ... ... : ... .. . ... : ... .. C ... : ... .. . ... ... : ... .. . ... ... : ... .. . ... ... : ... .. D ... ...
ROW B2 : ... .. D ... ... ... : ... .. . ... ... ... : ... .. . ... : ... .. 6 ... : ... .. . ... ... : ... .. 5 ... ... : ... .. 5 ... ... : ... .. 8 ... ...
ROW B3 : ... .. A ... ... ... : ... .. . ... ... ... : ... .. . ... : ... .. 3 ... : ... .. . ... ... : ... .. 4 ... ... : ... .. 4 ... ... : ... .. . ... ...
ROW B4 : ... .. . ... ... ... : ... .. 4 ... ... ... : ... .. . ... : ... .. 2 ... : ... .. . ... ... : ... .. 2 ... ... : ... .. 2 ... ... : ... .. . ... ...
ROW B5 : ... .. . ... ... ... : ... .. 3 ... ... ... : ... .. . ... : ... .. 0 ... : ... .. . ... ... : ... .. . ... ... : ... .. . ... ... : ... .. . ... ...
ROW B6 : ... .. . ... ... ... : ... .. . ... ... ... : --- .. . ... : ... .. . ... : ... .. . ... ... : ... .. . ... ... : ... .. . ... ... : --- .. . ... ...
ROW B7 : ... .. . ... ... ... : ... .. . ... ... ... : ... .. . ... : ... .. . ... : ... .. . ... ... : ... .. . ... ... : ... .. . ... ... : ... .. . ... ...
ROW B8 : ... .. . ... ... ... : C#3 00 A ... ... ... : C#3 00 . ... : F-# 00 F ... : ... .. . ... ... : ... .. 6 ... ... : ... .. 6 ... ... : C#1 01 F ... ...
ROW B9 : ... .. . ... ... ... : ... .. 8 ... ... ... : ... .. . ... : ... .. C ... : ... .. . ... ... : ... .. . ... ... : ... .. . ... ... : ... .. D ... ...
ROW BA : ... .. . ... ... ... : ... .. . ... ... ... : ... .. . ... : ... .. 6 ... : ... .. . ... ... : ... .. 5 ... ... : ... .. 5 ... ... : ... .. 8 ... ...
ROW BB : ... .. . ... ... ... : ... .. . ... ... ... : ... .. . ... : ... .. 3 ... : ... .. . ... ... : ... .. 4 ... ... : ... .. 4 ... ... : ... .. . ... ...
ROW BC : ... .. . ... ... ... : ... .. 4 ... ... ... : ... .. . ... : ... .. F ... : ... .. . ... ... : ... .. 2 ... ... : ... .. 2 ... ... : ... .. . ... ...
ROW BD : ... .. . ... ... ... : ... .. 3 ... ... ... : ... .. . ... : ... .. C ... : ... .. . ... ... : ... .. . ... ... : ... .. . ... ... : ... .. . ... ...
ROW BE : ... .. . ... ... ... : ... .. . ... ... ... : --- .. . ... : ... .. 6 ... : ... .. . ... ... : ... .. . ... ... : ... .. . ... ... : --- .. . P81 ...
ROW BF : ... .. . ... ... ... : ... .. . ... ... ... : ... .. . ... : ... .. 3 ... : ... .. . ... ... : ... .. . ... ... : ... .. . ... ... : ... .. . ... ...
ROW C0 : F#3 00 F ... ... ... : C#1 00 A ... ... ... : A#2 00 . P82 : 1-# 00 F ... : ... .. . ... ... : D#3 01 6 ... ... : G-3 01 6 ... ... : A#1 01 F P80 ...
ROW C1 : G-3 00 E P78 ... ... : ... .. 8 ... ... ... : G#2 00 . P8B : ... .. C ... : ... .. . ... ... : ... .. . ... ... : ... .. . ... ... : ... .. D ... ...
ROW C2 : ... .. D P80 ... ... : ... .. . ... ... ... : G-2 00 . P79 : ... .. 6 ... : ... .. . ... ... : ... .. 5 ... ... : ... .. 5 ... ... : ... .. 8 ... ...
ROW C3 : ... .. A ... ... ... : ... .. . ... ... ... : F-2 00 . P8D : ... .. 3 ... : ... .. . ... ... : ... .. 4 ... ... : ... .. 4 ... ... : ... .. . ... ...
ROW C4 : ... .. . ... ... ... : ... .. 4 ... ... ... : E-2 00 . P81 : ... .. 2 ... : ... .. . ... ... : ... .. 2 ... ... : ... .. 2 ... ... : ... .. . ... ...
ROW C5 : ... .. . ... ... ... : ... .. 3 ... ... ... : D#2 00 . P77 : ... .. 0 ... : ... .. . ... ... : ... .. . ... ... : ... .. . ... ... : ... .. . ... ...
ROW C6 : ... .. . ... ... ... : ... .. . ... ... ... : --- .. . ... : ... .. . ... : ... .. . ... ... : ... .. . ... ... : ... .. . ... ... : --- .. . ... ...
ROW C7 : ... .. . ... ... ... : ... .. . ... ... ... : ... .. . ... : ... .. . ... : ... .. . ... ... : ... .. . ... ... : ... .. . ... ... : ... .. . ... ...
ROW C8 : ... .. . ... ... ... : A#1 00 A ... ... ... : D#2 00 . P80 : E-# 00 A ... : ... .. . ... ... : ... .. 6 ... ... : ... .. 6 ... ... : D#0 01 F ... ...
ROW C9 : ... .. . ... ... ... : ... .. 8 ... ... ... : ... .. . ... : ... .. 8 ... : ... .. . ... ... : ... .. . ... ... : ... .. . ... ... : ... .. D ... ...
ROW CA : ... .. . ... ... ... : ... .. . ... ... ... : ... .. . ... : ... .. 4 ... : ... .. . ... ... : ... .. 5 ... ... : ... .. 5 ... ... : ... .. 8 ... ...
ROW CB : ... .. . ... ... ... : ... .. . ... ... ... : ... .. . ... : ... .. 2 ... : ... .. . ... ... : ... .. 4 ... ... : ... .. 4 ... ... : ... .. . ... ...
ROW CC : ... .. . ... ... ... : ... .. 4 ... ... ... : ... .. . ... : ... .. 1 ... : ... .. . ... ... : ... .. 2 ... ... : ... .. 2 ... ... : ... .. . ... ...
ROW CD : ... .. 2 ... ... ... : ... .. 3 ... ... ... : ... .. . ... : ... .. 0 ... : ... .. . ... ... : ... .. . ... ... : ... .. . ... ... : ... .. . ... ...
ROW CE : ... .. . ... ... ... : ... .. . ... ... ... : ... .. . ... : ... .. . ... : ... .. . ... ... : ... .. . ... ... : ... .. . ... ... : ... .. . ... ...
ROW CF : ... .. . ... ... ... : ... .. . ... ... ... : ... .. . ... : ... .. . ... : ... .. . ... ... : ... .. . ... ... : ... .. . ... ... : ... .. . ... ...
ROW D0 : D#3 00 F ... ... ... : G-2 00 A ... ... ... : ... .. . ... : 1-# 00 F ... : ... .. . ... ... : ... .. 6 ... ... : ... .. 6 ... ... : ... .. . ... ...
ROW D1 : ... .. E P89 ... ... : ... .. 8 ... ... ... : ... .. . ... : ... .. C ... : ... .. . ... ... : ... .. . ... ... : ... .. . ... ... : ... .. . ... ...
ROW D2 : E-3 00 D P7D ... ... : ... .. . ... ... ... : ... .. . ... : ... .. 6 ... : ... .. . ... ... : ... .. 5 ... ... : ... .. 5 ... ... : ... .. . ... ...
ROW D3 : ... .. A P80 ... ... : ... .. . ... ... ... : ... .. . ... : ... .. 3 ... : ... .. . ... ... : ... .. 4 ... ... : ... .. 4 ... ... : ... .. . ... ...
ROW D4 : ... .. . ... ... ... : ... .. 4 ... ... ... : ... .. . ... : ... .. 2 ... : ... .. . ... ... : ... .. 2 ... ... : ... .. 2 ... ... : ... .. . ... ...
ROW D5 : ... .. 2 ... ... ... : ... .. 3 ... ... ... : ... .. . ... : ... .. 0 ... : ... .. . ... ... : ... .. . ... ... : ... .. . ... ... : ... .. . ... ...
ROW D6 : ... .. . ... ... ... : ... .. . ... ... ... : --- .. . ... : ... .. . ... : ... .. . ... ... : ... .. . ... ... : ... .. . ... ... : --- .. . P83 ...
ROW D7 : ... .. . ... ... ... : ... .. . ... ... ... : ... .. . ... : ... .. . ... : ... .. . ... ... : ... .. . ... ... : ... .. . ... ... : ... .. . ... ...
ROW D8 : D#3 00 F ... ... ... : D#2 00 A ... ... ... : D#2 00 . ... : E-# 00 A ... : ... .. . ... ... : ... .. 6 ... ... : ... .. 6 ... ... : D#0 01 F P80 ...
ROW D9 : ... .. E ... ... ... : ... .. 8 ... ... ... : ... .. . ... : ... .. 8 ... : ... .. . ... ... : ... .. . ... ... : ... .. . ... ... : ... .. D ... ...
ROW DA : ... .. D ... ... ... : ... .. . ... ... ... : ... .. . ... : ... .. 4 ... : ... .. . ... ... : ... .. 5 ... ... : ... .. 5 ... ... : ... .. 8 ... ...
ROW DB : ... .. A ... ... ... : ... .. . ... ... ... : ... .. . ... : ... .. 2 ... : ... .. . ... ... : ... .. 4 ... ... : ... .. 4 ... ... : ... .. . ... ...
ROW DC : ... .. . ... ... ... : ... .. 4 ... ... ... : ... .. . ... : ... .. 1 ... : ... .. . ... ... : ... .. 2 ... ... : ... .. 2 ... ... : ... .. . ... ...
ROW DD : ... .. . ... ... ... : ... .. 3 ... ... ... : ... .. . ... : ... .. 0 ... : ... .. . ... ... : ... .. . ... ... : ... .. . ... ... : ... .. . ... ...
ROW DE : ... .. . ... ... ... : ... .. . ... ... ... : ... .. . ... : ... .. . ... : ... .. . ... ... : ... .. . ... ... : ... .. . ... ... : ... .. . ... ...
ROW DF : ... .. . ... ... ... : ... .. . ... ... ... : ... .. . ... : ... .. . ... : ... .. . ... ... : ... .. . ... ... : ... .. . ... ... : ... .. . ... ...
ROW E0 : ... .. . ... ... ... : A#2 00 A ... ... ... : B-3 00 . P7D : 5-# 00 D ... : ... .. . ... ... : ... .. 6 ... ... : ... .. 6 ... ... : ... .. . ... ...
ROW E1 : ... .. . ... ... ... : ... .. 8 ... ... ... : A#3 00 . P7C : ... .. . ... : ... .. . ... ... : ... .. . ... ... : ... .. . ... ... : ... .. . ... ...
ROW E2 : ... .. . ... ... ... : ... .. . ... ... ... : A-3 00 . P7B : 1-# 00 D ... : ... .. . ... ... : ... .. 5 ... ... : ... .. 5 ... ... : ... .. . ... ...
ROW E3 : ... .. . ... ... ... : ... .. . ... ... ... : G#3 00 . ... : F-# 00 6 ... : ... .. . ... ... : ... .. 4 ... ... : ... .. 4 ... ... : ... .. . ... ...
ROW E4 : ... .. . ... ... ... : ... .. 4 ... ... ... : G-3 00 . P7C : B-# 00 1 ... : ... .. . ... ... : ... .. 2 ... ... : ... .. 2 ... ... : ... .. . ... ...
ROW E5 : ... .. . ... ... ... : ... .. 3 ... ... ... : F#3 00 . P7E : ... .. 0 ... : ... .. . ... ... : ... .. . ... ... : ... .. . ... ... : ... .. . ... ...
ROW E6 : ... .. . ... ... ... : ... .. . ... ... ... : --- .. . ... : ... .. . ... : ... .. . ... ... : ... .. . ... ... : ... .. . ... ... : --- .. . P83 ...
ROW E7 : ... .. . ... ... ... : ... .. . ... ... ... : ... .. . ... : ... .. . ... : ... .. . ... ... : ... .. . ... ... : ... .. . ... ... : ... .. . ... ...
ROW E8 : ... .. . ... ... ... : G-3 00 A ... ... ... : C#2 00 . P80 : E-# 00 A ... : ... .. . ... ... : ... .. 6 ... ... : ... .. 6 ... ... : C#0 01 F P80 ...
ROW E9 : ... .. . ... ... ... : ... .. 8 ... ... ... : ... .. . ... : ... .. 8 ... : ... .. . ... ... : ... .. . ... ... : ... .. . ... ... : ... .. D ... ...
ROW EA : ... .. . ... ... ... : ... .. . ... ... ... : ... .. . ... : ... .. 4 ... : ... .. . ... ... : ... .. 5 ... ... : ... .. 5 ... ... : ... .. 8 ... ...
ROW EB : ... .. . ... ... ... : ... .. . ... ... ... : ... .. . ... : ... .. 2 ... : ... .. . ... ... : ... .. 4 ... ... : ... .. 4 ... ... : ... .. . ... ...
ROW EC : ... .. . ... ... ... : ... .. 4 ... ... ... : ... .. . ... : ... .. 1 ... : ... .. . ... ... : ... .. 2 ... ... : ... .. 2 ... ... : ... .. . ... ...
ROW ED : ... .. 2 ... ... ... : ... .. 3 ... ... ... : ... .. . ... : ... .. 0 ... : ... .. . ... ... : ... .. . ... ... : ... .. . ... ... : ... .. . ... ...
ROW EE : ... .. . ... ... ... : ... .. . ... ... ... : --- .. . ... : ... .. . ... : ... .. . ... ... : ... .. . ... ... : ... .. . ... ... : --- .. . P83 ...
ROW EF : ... .. . ... ... ... : ... .. . ... ... ... : ... .. . ... : ... .. . ... : ... .. . ... ... : ... .. . ... ... : ... .. . ... ... : ... .. . ... ...
ROW F0 : ... .. 8 ... ... ... : C#3 00 A ... ... ... : C#3 00 . ... : ... .. F ... : ... .. . ... ... : ... .. 6 ... ... : ... .. 6 ... ... : C#1 01 F P80 ...
ROW F1 : ... .. 7 P89 ... ... : ... .. 8 ... ... ... : ... .. . ... : ... .. C ... : ... .. . ... ... : ... .. . ... ... : ... .. . ... ... : ... .. D ... ...
ROW F2 : E-3 00 6 P7D ... ... : ... .. . ... ... ... : ... .. . ... : ... .. 6 ... : ... .. . ... ... : ... .. 5 ... ... : ... .. 5 ... ... : ... .. 8 ... ...
ROW F3 : ... .. 5 P80 ... ... : ... .. . ... ... ... : ... .. . ... : ... .. 3 ... : ... .. . ... ... : ... .. 4 ... ... : ... .. 4 ... ... : ... .. . ... ...
ROW F4 : ... .. . ... ... ... : ... .. 4 ... ... ... : ... .. . ... : ... .. 2 ... : ... .. . ... ... : ... .. 2 ... ... : ... .. 2 ... ... : ... .. . ... ...
ROW F5 : ... .. 1 ... ... ... : ... .. 3 ... ... ... : ... .. . ... : ... .. 0 ... : ... .. . ... ... : ... .. . ... ... : ... .. . ... ... : ... .. . ... ...
ROW F6 : ... .. . ... ... ... : ... .. . ... ... ... : --- .. . ... : ... .. . ... : ... .. . ... ... : ... .. . ... ... : ... .. . ... ... : --- .. . P81 ...
ROW F7 : ... .. . ... ... ... : ... .. . ... ... ... : ... .. . ... : ... .. . ... : ... .. . ... ... : ... .. . ... ... : ... .. . ... ... : ... .. . ... ...
ROW F8 : D#3 00 8 ... ... ... : D#3 00 A ... ... ... : D#3 00 . ... : D-# 00 A ... : ... .. . ... ... : ... .. 6 ... ... : ... .. 6 ... ... : D#1 01 F P80 ...
ROW F9 : ... .. 7 ... ... ... : ... .. 8 ... ... ... : ... .. . ... : ... .. . ... : ... .. . ... ... : ... .. . ... ... : ... .. . ... ... : ... .. D ... ...
ROW FA : ... .. 6 ... ... ... : ... .. . ... ... ... : ... .. . ... : ... .. . ... : ... .. . ... ... : ... .. 5 ... ... : ... .. 5 ... ... : ... .. 8 ... ...
ROW FB : ... .. 5 ... ... ... : ... .. . ... ... ... : ... .. . ... : ... .. . ... : ... .. . ... ... : ... .. 4 ... ... : ... .. 4 ... ... : ... .. . ... ...
ROW FC : ... .. . ... ... ... : ... .. 4 ... ... ... : ... .. . ... : ... .. . ... : ... .. . ... ... : ... .. 2 ... ... : ... .. 2 ... ... : ... .. . ... ...
ROW FD : ... .. . ... ... ... : ... .. 3 ... ... ... : ... .. . ... : ... .. . ... : ... .. . ... ... : ... .. . ... ... : ... .. . ... ... : ... .. . ... ...
ROW FE : ... .. . ... ... ... : ... .. . ... ... ... : --- .. . ... : ... .. . ... : ... .. . ... ... : ... .. . ... ... : ... .. . ... ... : --- .. . P81 ...
ROW FF : ... .. . ... ... ... : ... .. . ... ... ... : ... .. . ... : ... .. . ... : ... .. . ... ... : ... .. . ... ... : ... .. . ... ... : ... .. . ... ...

PATTERN 1B
ROW 00 : F#3 00 6 ... ... ... : C#2 00 A ... ... ... : A#2 00 . P82 : 1-# 00 F ... : ... .. . ... ... : ... .. 6 ... ... : ... .. 6 ... ... : C#2 01 F P80 ...
ROW 01 : G-3 00 5 P78 ... ... : ... .. 8 ... ... ... : G#2 00 . P8B : ... .. C ... : ... .. . ... ... : ... .. . ... ... : ... .. . ... ... : ... .. D ... ...
ROW 02 : ... .. . P80 ... ... : ... .. . ... ... ... : G-2 00 . P79 : ... .. 6 ... : ... .. . ... ... : ... .. 5 ... ... : ... .. 5 ... ... : ... .. 8 ... ...
ROW 03 : ... .. 4 ... ... ... : ... .. . ... ... ... : F-2 00 . P8D : ... .. 3 ... : ... .. . ... ... : ... .. 4 ... ... : ... .. 4 ... ... : ... .. . ... ...
ROW 04 : ... .. . ... ... ... : ... .. 4 ... ... ... : E-2 00 . P81 : ... .. 2 ... : ... .. . ... ... : ... .. 2 ... ... : ... .. 2 ... ... : ... .. . ... ...
ROW 05 : ... .. . ... ... ... : ... .. 3 ... ... ... : D#2 00 . P77 : ... .. 0 ... : ... .. . ... ... : ... .. . ... ... : ... .. . ... ... : ... .. . ... ...
ROW 06 : ... .. . ... ... ... : ... .. . ... ... ... : --- .. . ... : ... .. . ... : ... .. . ... ... : ... .. . ... ... : ... .. . ... ... : --- .. . ... ...
ROW 07 : ... .. . ... ... ... : ... .. . ... ... ... : ... .. . ... : ... .. . ... : ... .. . ... ... : ... .. . ... ... : ... .. . ... ... : ... .. . ... ...
ROW 08 : ... .. . ... ... ... : A#2 00 A ... ... ... : D#2 00 . P80 : E-# 00 A ... : ... .. . ... ... : ... .. 6 ... ... : ... .. 6 ... ... : D#0 01 F ... ...
ROW 09 : ... .. . ... ... ... : ... .. 8 ... ... ... : ... .. . ... : ... .. 8 ... : ... .. . ... ... : ... .. . ... ... : ... .. . ... ... : ... .. D ... ...
ROW 0A : ... .. . ... ... ... : ... .. . ... ... ... : ... .. . ... : ... .. 4 ... : ... .. . ... ... : ... .. 5 ... ... : ... .. 5 ... ... : ... .. 8 ... ...
ROW 0B : ... .. . ... ... ... : ... .. . ... ... ... : ... .. . ... : ... .. 2 ... : ... .. . ... ... : ... .. 4 ... ... : ... .. 4 ... ... : ... .. . ... ...
ROW 0C : ... .. . ... ... ... : ... .. 4 ... ... ... : ... .. . ... : ... .. 1 ... : ... .. . ... ... : ... .. 2 ... ... : ... .. 2 ... ... : ... .. . ... ...
ROW 0D : ... .. 1 ... ... ... : ... .. 3 ... ... ... : ... .. . ... : ... .. 0 ... : ... .. . ... ... : ... .. . ... ... : ... .. . ... ... : ... .. . ... ...
ROW 0E : ... .. . ... ... ... : ... .. . ... ... ... : ... .. . ... : ... .. . ... : ... .. . ... ... : ... .. . ... ... : ... .. . ... ... : ... .. . ... ...
ROW 0F : ... .. . ... ... ... : ... .. . ... ... ... : ... .. . ... : ... .. . ... : ... .. . ... ... : ... .. . ... ... : ... .. . ... ... : ... .. . ... ...
ROW 10 : D#3 00 6 ... ... ... : G-3 00 A ... ... ... : ... .. . ... : ... .. F ... : ... .. . ... ... : ... .. 6 ... ... : ... .. 6 ... ... : ... .. . ... ...
ROW 11 : ... .. 5 P89 ... ... : ... .. 8 ... ... ... : ... .. . ... : ... .. C ... : ... .. . ... ... : ... .. . ... ... : ... .. . ... ... : ... .. . ... ...
ROW 12 : E-3 00 5 P7D ... ... : ... .. . ... ... ... : ... .. . ... : ... .. 6 ... : ... .. . ... ... : ... .. 5 ... ... : ... .. 5 ... ... : ... .. . ... ...
ROW 13 : ... .. 4 P80 ... ... : ... .. . ... ... ... : ... .. . ... : ... .. 3 ... : ... .. . ... ... : ... .. 4 ... ... : ... .. 4 ... ... : ... .. . ... ...
ROW 14 : ... .. . ... ... ... : ... .. 4 ... ... ... : ... .. . ... : ... .. 2 ... : ... .. . ... ... : ... .. 2 ... ... : ... .. 2 ... ... : ... .. . ... ...
ROW 15 : ... .. 1 ... ... ... : ... .. 3 ... ... ... : ... .. . ... : ... .. 0 ... : ... .. . ... ... : ... .. . ... ... : ... .. . ... ... : ... .. . ... ...
ROW 16 : ... .. . ... ... ... : ... .. . ... ... ... : --- .. . ... : ... .. . ... : ... .. . ... ... : ... .. . ... ... : ... .. . ... ... : --- .. . P83 ...
ROW 17 : ... .. . ... ... ... : ... .. . ... ... ... : ... .. . ... : ... .. . ... : ... .. . ... ... : ... .. . ... ... : ... .. . ... ... : ... .. . ... ...
ROW 18 : D#3 00 6 ... ... ... : D#3 00 A ... ... ... : D#2 00 . ... : 1-# 00 F ... : ... .. . ... ... : ... .. 6 ... ... : ... .. 6 ... ... : D#0 01 F P80 ...
ROW 19 : ... .. 5 ... ... ... : ... .. 8 ... ... ... : ... .. . ... : ... .. C ... : ... .. . ... ... : ... .. . ... ... : ... .. . ... ... : ... .. D ... ...
ROW 1A : ... .. . ... ... ... : ... .. . ... ... ... : ... .. . ... : ... .. 6 ... : ... .. . ... ... : ... .. 5 ... ... : ... .. 5 ... ... : ... .. 8 ... ...
ROW 1B : ... .. 4 ... ... ... : ... .. . ... ... ... : ... .. . ... : ... .. 3 ... : ... .. . ... ... : ... .. 4 ... ... : ... .. 4 ... ... : ... .. . ... ...
ROW 1C : ... .. . ... ... ... : ... .. 4 ... ... ... : ... .. . ... : ... .. 2 ... : ... .. . ... ... : ... .. 2 ... ... : ... .. 2 ... ... : ... .. . ... ...
ROW 1D : ... .. . ... ... ... : ... .. 3 ... ... ... : ... .. . ... : ... .. 0 ... : ... .. . ... ... : ... .. . ... ... : ... .. . ... ... : ... .. . ... ...
ROW 1E : ... .. . ... ... ... : ... .. . ... ... ... : ... .. . ... : ... .. . ... : ... .. . ... ... : ... .. . ... ... : ... .. . ... ... : ... .. . ... ...
ROW 1F : ... .. . ... ... ... : ... .. . ... ... ... : ... .. . ... : ... .. . ... : ... .. . ... ... : ... .. . ... ... : ... .. . ... ... : ... .. . ... ...
ROW 20 : F#3 00 4 ... ... ... : C#3 00 A ... ... ... : B-3 00 . P7D : 5-# 00 D ... : ... .. . ... ... : E-3 01 6 ... ... : G#3 01 6 ... ... : ... .. . ... ...
ROW 21 : G-3 00 3 P78 ... ... : ... .. 8 ... ... ... : A#3 00 . P7C : ... .. . ... : ... .. . ... ... : ... .. . ... ... : ... .. . ... ... : ... .. . ... ...
ROW 22 : ... .. . P80 ... ... : ... .. . ... ... ... : A-3 00 . P7B : 1-# 00 D ... : ... .. . ... ... : ... .. 5 ... ... : ... .. 5 ... ... : ... .. . ... ...
ROW 23 : ... .. 2 ... ... ... : ... .. . ... ... ... : G#3 00 . ... : F-# 00 6 ... : ... .. . ... ... : ... .. 4 ... ... : ... .. 4 ... ... : ... .. . ... ...
ROW 24 : ... .. . ... ... ... : ... .. 4 ... ... ... : G-3 00 . P7C : B-# 00 1 ... : ... .. . ... ... : ... .. 2 ... ... : ... .. 2 ... ... : ... .. . ... ...
ROW 25 : ... .. . ... ... ... : ... .. 3 ... ... ... : F#3 00 . P7E : ... .. 0 ... : ... .. . ... ... : ... .. . ... ... : ... .. . ... ... : ... .. . ... ...
ROW 26 : ... .. . ... ... ... : ... .. . ... ... ... : --- .. . ... : ... .. . ... : ... .. . ... ... : ... .. . ... ... : ... .. . ... ... : --- .. . P83 ...
ROW 27 : ... .. . ... ... ... : ... .. . ... ... ... : ... .. . ... : ... .. . ... : ... .. . ... ... : ... .. . ... ... : ... .. . ... ... : ... .. . ... ...
ROW 28 : ... .. . ... ... ... : G#3 00 A ... ... ... : G#2 00 . P80 : E-# 00 A ... : ... .. . ... ... : ... .. 6 ... ... : ... .. 6 ... ... : G#0 01 F P80 ...
ROW 29 : ... .. . ... ... ... : ... .. 8 ... ... ... : ... .. . ... : ... .. 8 ... : ... .. . ... ... : ... .. . ... ... : ... .. . ... ... : ... .. D ... ...
ROW 2A : ... .. . ... ... ... : ... .. . ... ... ... : ... .. . ... : ... .. 4 ... : ... .. . ... ... : ... .. 5 ... ... : ... .. 5 ... ... : ... .. 8 ... ...
ROW 2B : ... .. . ... ... ... : ... .. . ... ... ... : ... .. . ... : ... .. 2 ... : ... .. . ... ... : ... .. 4 ... ... : ... .. 4 ... ... : ... .. . ... ...
ROW 2C : ... .. . ... ... ... : ... .. 4 ... ... ... : ... .. . ... : ... .. 1 ... : ... .. . ... ... : ... .. 2 ... ... : ... .. 2 ... ... : ... .. . ... ...
ROW 2D : ... .. 1 ... ... ... : ... .. 3 ... ... ... : ... .. . ... : ... .. 0 ... : ... .. . ... ... : ... .. . ... ... : ... .. . ... ... : ... .. . ... ...
ROW 2E : ... .. . ... ... ... : ... .. . ... ... ... : --- .. . ... : ... .. . ... : ... .. . ... ... : ... .. . ... ... : ... .. . ... ... : --- .. . P84 ...
ROW 2F : ... .. . ... ... ... : ... .. . ... ... ... : ... .. . ... : ... .. . ... : ... .. . ... ... : ... .. . ... ... : ... .. . ... ... : ... .. . ... ...
ROW 30 : D#3 00 4 ... ... ... : E-3 00 A ... ... ... : C#3 00 . ... : ... .. F ... : ... .. . ... ... : ... .. 6 ... ... : ... .. 6 ... ... : C#1 01 F P80 ...
ROW 31 : ... .. 3 P89 ... ... : ... .. 8 ... ... ... : ... .. . ... : ... .. C ... : ... .. . ... ... : ... .. . ... ... : ... .. . ... ... : ... .. D ... ...
ROW 32 : E-3 00 3 P7D ... ... : ... .. . ... ... ... : ... .. . ... : ... .. 6 ... : ... .. . ... ... : ... .. 5 ... ... : ... .. 5 ... ... : ... .. 8 ... ...
ROW 33 : ... .. 2 P80 ... ... : ... .. . ... ... ... : ... .. . ... : ... .. 3 ... : ... .. . ... ... : ... .. 4 ... ... : ... .. 4 ... ... : ... .. . ... ...
ROW 34 : ... .. . ... ... ... : ... .. 4 ... ... ... : ... .. . ... : ... .. 2 ... : ... .. . ... ... : ... .. 2 ... ... : ... .. 2 ... ... : ... .. . ... ...
ROW 35 : ... .. 1 ... ... ... : ... .. 3 ... ... ... : ... .. . ... : ... .. 0 ... : ... .. . ... ... : ... .. . ... ... : ... .. . ... ... : ... .. . ... ...
ROW 36 : ... .. . ... ... ... : ... .. . ... ... ... : --- .. . ... : ... .. . ... : ... .. . ... ... : ... .. . ... ... : ... .. . ... ... : --- .. . P81 ...
ROW 37 : ... .. . ... ... ... : ... .. . ... ... ... : ... .. . ... : ... .. . ... : ... .. . ... ... : ... .. . ... ... : ... .. . ... ... : ... .. . ... ...
ROW 38 : D#3 00 4 ... ... ... : C#4 00 A ... ... ... : G#3 00 . ... : F-# 00 F ... : ... .. . ... ... : ... .. 6 ... ... : ... .. 6 ... ... : G#1 01 F P80 ...
ROW 39 : ... .. 3 ... ... ... : ... .. 8 ... ... ... : ... .. . ... : ... .. C ... : ... .. . ... ... : ... .. . ... ... : ... .. . ... ... : ... .. D ... ...
ROW 3A : ... .. . ... ... ... : ... .. . ... ... ... : ... .. . ... : ... .. 6 ... : ... .. . ... ... : ... .. 5 ... ... : ... .. 5 ... ... : ... .. 8 ... ...
ROW 3B : ... .. 2 ... ... ... : ... .. . ... ... ... : ... .. . ... : ... .. 3 ... : ... .. . ... ... : ... .. 4 ... ... : ... .. 4 ... ... : ... .. . ... ...
ROW 3C : ... .. . ... ... ... : ... .. 4 ... ... ... : ... .. . ... : ... .. F ... : ... .. . ... ... : ... .. 2 ... ... : ... .. 2 ... ... : ... .. . ... ...
ROW 3D : ... .. . ... ... ... : ... .. 3 ... ... ... : ... .. . ... : ... .. C ... : ... .. . ... ... : ... .. . ... ... : ... .. . ... ... : ... .. . ... ...
ROW 3E : ... .. . ... ... ... : ... .. . ... ... ... : --- .. . ... : ... .. 6 ... : ... .. . ... ... : ... .. . ... ... : ... .. . ... ... : --- .. . P7E ...
ROW 3F : ... .. . ... ... ... : ... .. . ... ... ... : ... .. . ... : ... .. 3 ... : ... .. . ... ... : ... .. . ... ... : ... .. . ... ... : ... .. . ... ...
ROW 40 : ... .. 0 ... ... ... : C#1 00 A ... ... ... : A#2 00 . P82 : 1-# 00 F ... : ... .. . ... ... : F#3 01 6 ... ... : A#3 01 6 ... ... : F#1 01 F P80 ...
ROW 41 : ... .. . ... ... ... : ... .. 8 ... ... ... : G#2 00 . P8B : ... .. C ... : ... .. . ... ... : ... .. . ... ... : ... .. . ... ... : ... .. D ... ...
ROW 42 : ... .. . ... ... ... : ... .. . ... ... ... : G-2 00 . P79 : ... .. 6 ... : ... .. . ... ... : ... .. 5 ... ... : ... .. 5 ... ... : ... .. 8 ... ...
ROW 43 : ... .. . ... ... ... : ... .. . ... ... ... : F-2 00 . P8D : ... .. 3 ... : ... .. . ... ... : ... .. 4 ... ... : ... .. 4 ... ... : ... .. . ... ...
ROW 44 : ... .. . ... ... ... : ... .. 4 ... ... ... : E-2 00 . P81 : ... .. 2 ... : ... .. . ... ... : ... .. 2 ... ... : ... .. 2 ... ... : ... .. . ... ...
ROW 45 : ... .. . ... ... ... : ... .. 3 ... ... ... : D#2 00 . P77 : ... .. 0 ... : ... .. . ... ... : ... .. . ... ... : ... .. . ... ... : ... .. . ... ...
ROW 46 : ... .. . ... ... ... : ... .. . ... ... ... : --- .. . ... : ... .. . ... : ... .. . ... ... : ... .. . ... ... : ... .. . ... ... : --- .. . P81 ...
ROW 47 : ... .. . ... ... ... : ... .. . ... ... ... : ... .. . ... : ... .. . ... : ... .. . ... ... : ... .. . ... ... : ... .. . ... ... : ... .. . ... ...
ROW 48 : ... .. . ... ... ... : A#1 00 A ... ... ... : F#2 00 . P80 : E-# 00 A ... : ... .. . ... ... : ... .. 6 ... ... : ... .. 6 ... ... : F#0 01 F P80 ...
ROW 49 : ... .. . ... ... ... : ... .. 8 ... ... ... : ... .. . ... : ... .. 8 ... : ... .. . ... ... : ... .. . ... ... : ... .. . ... ... : ... .. D ... ...
ROW 4A : ... .. . ... ... ... : ... .. . ... ... ... : ... .. . ... : ... .. 4 ... : ... .. . ... ... : ... .. 5 ... ... : ... .. 5 ... ... : ... .. 8 ... ...
ROW 4B : ... .. . ... ... ... : ... .. . ... ... ... : ... .. . ... : ... .. 2 ... : ... .. . ... ... : ... .. 4 ... ... : ... .. 4 ... ... : ... .. . ... ...
ROW 4C : ... .. . ... ... ... : ... .. 4 ... ... ... : ... .. . ... : ... .. 1 ... : ... .. . ... ... : ... .. 2 ... ... : ... .. 2 ... ... : ... .. . ... ...
ROW 4D : ... .. . ... ... ... : ... .. 3 ... ... ... : ... .. . ... : ... .. 0 ... : ... .. . ... ... : ... .. . ... ... : ... .. . ... ... : ... .. . ... ...
ROW 4E : ... .. . ... ... ... : ... .. . ... ... ... : ... .. . ... : ... .. . ... : ... .. . ... ... : ... .. . ... ... : ... .. . ... ... : ... .. . ... ...
ROW 4F : ... .. . ... ... ... : ... .. . ... ... ... : ... .. . ... : ... .. . ... : ... .. . ... ... : ... .. . ... ... : ... .. . ... ... : ... .. . ... ...
ROW 50 : ... .. . ... ... ... : F#2 00 A ... ... ... : ... .. . ... : 1-# 00 F ... : ... .. . ... ... : ... .. 6 ... ... : ... .. 6 ... ... : ... .. . ... ...
ROW 51 : ... .. . ... ... ... : ... .. 8 ... ... ... : ... .. . ... : ... .. C ... : ... .. . ... ... : ... .. . ... ... : ... .. . ... ... : ... .. . ... ...
ROW 52 : ... .. . ... ... ... : ... .. . ... ... ... : ... .. . ... : ... .. 6 ... : ... .. . ... ... : ... .. 5 ... ... : ... .. 5 ... ... : ... .. . ... ...
ROW 53 : ... .. . ... ... ... : ... .. . ... ... ... : ... .. . ... : ... .. 3 ... : ... .. . ... ... : ... .. 4 ... ... : ... .. 4 ... ... : ... .. . ... ...
ROW 54 : ... .. . ... ... ... : ... .. 4 ... ... ... : ... .. . ... : ... .. 2 ... : ... .. . ... ... : ... .. 2 ... ... : ... .. 2 ... ... : ... .. . ... ...
ROW 55 : ... .. . ... ... ... : ... .. 3 ... ... ... : ... .. . ... : ... .. 0 ... : ... .. . ... ... : ... .. . ... ... : ... .. . ... ... : ... .. . ... ...
ROW 56 : ... .. . ... ... ... : ... .. . ... ... ... : --- .. . ... : ... .. . ... : ... .. . ... ... : ... .. . ... ... : ... .. . ... ... : --- .. . P81 ...
ROW 57 : ... .. . ... ... ... : ... .. . ... ... ... : ... .. . ... : ... .. . ... : ... .. . ... ... : ... .. . ... ... : ... .. . ... ... : ... .. . ... ...
ROW 58 : ... .. . ... ... ... : C#2 00 A ... ... ... : F#2 00 . ... : E-# 00 A ... : ... .. . ... ... : ... .. 6 ... ... : ... .. 6 ... ... : F#0 01 F P80 ...
ROW 59 : ... .. . ... ... ... : ... .. 8 ... ... ... : ... .. . ... : ... .. 8 ... : ... .. . ... ... : ... .. . ... ... : ... .. . ... ... : ... .. D ... ...
ROW 5A : ... .. . ... ... ... : ... .. . ... ... ... : ... .. . ... : ... .. 4 ... : ... .. . ... ... : ... .. 5 ... ... : ... .. 5 ... ... : ... .. 8 ... ...
ROW 5B : ... .. . ... ... ... : ... .. . ... ... ... : ... .. . ... : ... .. 2 ... : ... .. . ... ... : ... .. 4 ... ... : ... .. 4 ... ... : ... .. . ... ...
ROW 5C : ... .. . ... ... ... : ... .. 4 ... ... ... : ... .. . ... : ... .. 1 ... : ... .. . ... ... : ... .. 2 ... ... : ... .. 2 ... ... : ... .. . ... ...
ROW 5D : ... .. . ... ... ... : ... .. 3 ... ... ... : ... .. . ... : ... .. 0 ... : ... .. . ... ... : ... .. . ... ... : ... .. . ... ... : ... .. . ... ...
ROW 5E : ... .. . ... ... ... : ... .. . ... ... ... : ... .. . ... : ... .. . ... : ... .. . ... ... : ... .. . ... ... : ... .. . ... ... : ... .. . ... ...
ROW 5F : ... .. . ... ... ... : ... .. . ... ... ... : ... .. . ... : ... .. . ... : ... .. . ... ... : ... .. . ... ... : ... .. . ... ... : ... .. . ... ...
ROW 60 : C#3 00 F P80 ... ... : A#2 00 A ... ... ... : B-3 00 . P7D : 5-# 00 D ... : ... .. . ... ... : ... .. 6 ... ... : ... .. 6 ... ... : ... .. . ... ...
ROW 61 : ... .. E ... ... ... : ... .. 8 ... ... ... : A#3 00 . P7C : ... .. . ... : ... .. . ... ... : ... .. . ... ... : ... .. . ... ... : ... .. . ... ...
ROW 62 : ... .. D ... ... ... : ... .. . ... ... ... : A-3 00 . P7B : 1-# 00 D ... : ... .. . ... ... : ... .. 5 ... ... : ... .. 5 ... ... : ... .. . ... ...
ROW 63 : ... .. A ... ... ... : ... .. . ... ... ... : G#3 00 . ... : F-# 00 6 ... : ... .. . ... ... : ... .. 4 ... ... : ... .. 4 ... ... : ... .. . ... ...
ROW 64 : ... .. . ... ... ... : ... .. 4 ... ... ... : G-3 00 . P7C : B-# 00 1 ... : ... .. . ... ... : ... .. 2 ... ... : ... .. 2 ... ... : ... .. . ... ...
ROW 65 : ... .. . ... ... ... : ... .. 3 ... ... ... : F#3 00 . P7E : ... .. 0 ... : ... .. . ... ... : ... .. . ... ... : ... .. . ... ... : ... .. . ... ...
ROW 66 : ... .. . ... ... ... : ... .. . ... ... ... : --- .. . ... : ... .. . ... : ... .. . ... ... : ... .. . ... ... : ... .. . ... ... : --- .. . P81 ...
ROW 67 : ... .. . ... ... ... : ... .. . ... ... ... : ... .. . ... : ... .. . ... : ... .. . ... ... : ... .. . ... ... : ... .. . ... ... : ... .. . ... ...
ROW 68 : ... .. . ... ... ... : F#3 00 A ... ... ... : F#2 00 . P80 : E-# 00 A ... : ... .. . ... ... : ... .. 6 ... ... : ... .. 6 ... ... : F#0 01 F P80 ...
ROW 69 : ... .. . ... ... ... : ... .. 8 ... ... ... : ... .. . ... : ... .. 8 ... : ... .. . ... ... : ... .. . ... ... : ... .. . ... ... : ... .. D ... ...
ROW 6A : ... .. . ... ... ... : ... .. . ... ... ... : ... .. . ... : ... .. 4 ... : ... .. . ... ... : ... .. 5 ... ... : ... .. 5 ... ... : ... .. 8 ... ...
ROW 6B : ... .. . ... ... ... : ... .. . ... ... ... : ... .. . ... : ... .. 2 ... : ... .. . ... ... : ... .. 4 ... ... : ... .. 4 ... ... : ... .. . ... ...
ROW 6C : ... .. . ... ... ... : ... .. 4 ... ... ... : ... .. . ... : ... .. 1 ... : ... .. . ... ... : ... .. 2 ... ... : ... .. 2 ... ... : ... .. . ... ...
ROW 6D : ... .. . ... ... ... : ... .. 3 ... ... ... : ... .. . ... : ... .. 0 ... : ... .. . ... ... : ... .. . ... ... : ... .. . ... ... : ... .. . ... ...
ROW 6E : ... .. . ... ... ... : ... .. . ... ... ... : --- .. . ... : ... .. . ... : ... .. . ... ... : ... .. . ... ... : ... .. . ... ... : --- .. . P81 ...
ROW 6F : ... .. . ... ... ... : ... .. . ... ... ... : ... .. . ... : ... .. . ... : ... .. . ... ... : ... .. . ... ... : ... .. . ... ... : ... .. . ... ...
ROW 70 : G#3 00 F ... ... ... : C#3 00 A ... ... ... : C#3 00 . ... : ... .. F ... : ... .. . ... ... : ... .. 6 ... ... : ... .. 6 ... ... : C#1 01 F P80 ...
ROW 71 : A-3 00 E P7A ... ... : ... .. 8 ... ... ... : ... .. . ... : ... .. C ... : ... .. . ... ... : ... .. . ... ... : ... .. . ... ... : ... .. D ... ...
ROW 72 : ... .. D P83 ... ... : ... .. . ... ... ... : ... .. . ... : ... .. 6 ... : ... .. . ... ... : ... .. 5 ... ... : ... .. 5 ... ... : ... .. 8 ... ...
ROW 73 : A#3 00 A P7E ... ... : ... .. . ... ... ... : ... .. . ... : ... .. 3 ... : ... .. . ... ... : ... .. 4 ... ... : ... .. 4 ... ... : ... .. . ... ...
ROW 74 : ... .. . P80 ... ... : ... .. 4 ... ... ... : ... .. . ... : ... .. 2 ... : ... .. . ... ... : ... .. 2 ... ... : ... .. 2 ... ... : ... .. . ... ...
ROW 75 : ... .. . ... ... ... : ... .. 3 ... ... ... : ... .. . ... : ... .. 0 ... : ... .. . ... ... : ... .. . ... ... : ... .. . ... ... : ... .. . ... ...
ROW 76 : ... .. . ... ... ... : ... .. . ... ... ... : --- .. . ... : ... .. . ... : ... .. . ... ... : ... .. . ... ... : ... .. . ... ... : --- .. . P81 ...
ROW 77 : ... .. . ... ... ... : ... .. . ... ... ... : ... .. . ... : ... .. . ... : ... .. . ... ... : ... .. . ... ... : ... .. . ... ... : ... .. . ... ...
ROW 78 : ... .. . ... ... ... : A#3 00 A ... ... ... : E-3 00 . ... : D-# 00 A ... : ... .. . ... ... : ... .. 6 ... ... : ... .. 6 ... ... : E-1 01 F P80 ...
ROW 79 : ... .. . ... ... ... : ... .. 8 ... ... ... : ... .. . ... : ... .. . ... : ... .. . ... ... : ... .. . ... ... : ... .. . ... ... : ... .. D ... ...
ROW 7A : ... .. . ... ... ... : ... .. . ... ... ... : ... .. . ... : ... .. . ... : ... .. . ... ... : ... .. 5 ... ... : ... .. 5 ... ... : ... .. 8 ... ...
ROW 7B : ... .. . ... ... ... : ... .. . ... ... ... : ... .. . ... : ... .. . ... : ... .. . ... ... : ... .. 4 ... ... : ... .. 4 ... ... : ... .. . ... ...
ROW 7C : ... .. . ... ... ... : ... .. 4 ... ... ... : ... .. . ... : ... .. . ... : ... .. . ... ... : ... .. 2 ... ... : ... .. 2 ... ... : ... .. . ... ...
ROW 7D : ... .. . ... ... ... : ... .. 3 ... ... ... : ... .. . ... : ... .. . ... : ... .. . ... ... : ... .. . ... ... : ... .. . ... ... : ... .. . ... ...
ROW 7E : ... .. . ... ... ... : ... .. . ... ... ... : --- .. . ... : ... .. . ... : ... .. . ... ... : ... .. . ... ... : ... .. . ... ... : --- .. . P82 ...
ROW 7F : ... .. . ... ... ... : ... .. . ... ... ... : ... .. . ... : ... .. . ... : ... .. . ... ... : ... .. . ... ... : ... .. . ... ... : ... .. . ... ...
ROW 80 : G#3 00 F ... ... ... : C#2 00 A ... ... ... : A#2 00 . P82 : 1-# 00 F ... : ... .. . ... ... : ... .. 6 ... ... : ... .. 6 ... ... : F#1 01 F P80 ...
ROW 81 : ... .. E ... ... ... : ... .. 8 ... ... ... : G#2 00 . P8B : ... .. C ... : ... .. . ... ... : ... .. . ... ... : ... .. . ... ... : ... .. D ... ...
ROW 82 : ... .. D ... ... ... : ... .. . ... ... ... : G-2 00 . P79 : ... .. 6 ... : ... .. . ... ... : ... .. 5 ... ... : ... .. 5 ... ... : ... .. 8 ... ...
ROW 83 : ... .. A ... ... ... : ... .. . ... ... ... : F-2 00 . P8D : ... .. 3 ... : ... .. . ... ... : ... .. 4 ... ... : ... .. 4 ... ... : ... .. . ... ...
ROW 84 : ... .. . ... ... ... : ... .. 4 ... ... ... : E-2 00 . P81 : ... .. 2 ... : ... .. . ... ... : ... .. 2 ... ... : ... .. 2 ... ... : ... .. . ... ...
ROW 85 : ... .. . ... ... ... : ... .. 3 ... ... ... : D#2 00 . P77 : ... .. 0 ... : ... .. . ... ... : ... .. . ... ... : ... .. . ... ... : ... .. . ... ...
ROW 86 : ... .. . ... ... ... : ... .. . ... ... ... : --- .. . ... : ... .. . ... : ... .. . ... ... : ... .. . ... ... : ... .. . ... ... : --- .. . P81 ...
ROW 87 : ... .. . ... ... ... : ... .. . ... ... ... : ... .. . ... : ... .. . ... : ... .. . ... ... : ... .. . ... ... : ... .. . ... ... : ... .. . ... ...
ROW 88 : ... .. . ... ... ... : F#2 00 A ... ... ... : F#2 00 . P80 : E-# 00 A ... : ... .. . ... ... : ... .. 6 ... ... : ... .. 6 ... ... : F#0 01 F P80 ...
ROW 89 : ... .. . ... ... ... : ... .. 8 ... ... ... : ... .. . ... : ... .. 8 ... : ... .. . ... ... : ... .. . ... ... : ... .. . ... ... : ... .. D ... ...
ROW 8A : ... .. . ... ... ... : ... .. . ... ... ... : ... .. . ... : ... .. 4 ... : ... .. . ... ... : ... .. 5 ... ... : ... .. 5 ... ... : ... .. 8 ... ...
ROW 8B : ... .. . ... ... ... : ... .. . ... ... ... : ... .. . ... : ... .. 2 ... : ... .. . ... ... : ... .. 4 ... ... : ... .. 4 ... ... : ... .. . ... ...
ROW 8C : ... .. . ... ... ... : ... .. 4 ... ... ... : ... .. . ... : ... .. 1 ... : ... .. . ... ... : ... .. 2 ... ... : ... .. 2 ... ... : ... .. . ... ...
ROW 8D : ... .. . ... ... ... : ... .. 3 ... ... ... : ... .. . ... : ... .. 0 ... : ... .. . ... ... : ... .. . ... ... : ... .. . ... ... : ... .. . ... ...
ROW 8E : ... .. . ... ... ... : ... .. . ... ... ... : ... .. . ... : ... .. . ... : ... .. . ... ... : ... .. . ... ... : ... .. . ... ... : ... .. . ... ...
ROW 8F : ... .. . ... ... ... : ... .. . ... ... ... : ... .. . ... : ... .. . ... : ... .. . ... ... : ... .. . ... ... : ... .. . ... ... : ... .. . ... ...
ROW 90 : ... .. . ... ... ... : C#3 00 A ... ... ... : ... .. . ... : ... .. F ... : ... .. . ... ... : ... .. 6 ... ... : ... .. 6 ... ... : ... .. . ... ...
ROW 91 : ... .. . ... ... ... : ... .. 8 ... ... ... : ... .. . ... : ... .. C ... : ... .. . ... ... : ... .. . ... ... : ... .. . ... ... : ... .. . ... ...
ROW 92 : ... .. . ... ... ... : ... .. . ... ... ... : ... .. . ... : ... .. 6 ... : ... .. . ... ... : ... .. 5 ... ... : ... .. 5 ... ... : ... .. . ... ...
ROW 93 : ... .. . ... ... ... : ... .. . ... ... ... : ... .. . ... : ... .. 3 ... : ... .. . ... ... : ... .. 4 ... ... : ... .. 4 ... ... : ... .. . ... ...
ROW 94 : ... .. . ... ... ... : ... .. 4 ... ... ... : ... .. . ... : ... .. 2 ... : ... .. . ... ... : ... .. 2 ... ... : ... .. 2 ... ... : ... .. . ... ...
ROW 95 : ... .. . ... ... ... : ... .. 3 ... ... ... : ... .. . ... : ... .. 0 ... : ... .. . ... ... : ... .. . ... ... : ... .. . ... ... : ... .. . ... ...
ROW 96 : ... .. . ... ... ... : ... .. . ... ... ... : --- .. . ... : ... .. . ... : ... .. . ... ... : ... .. . ... ... : ... .. . ... ... : --- .. . P81 ...
ROW 97 : ... .. . ... ... ... : ... .. . ... ... ... : ... .. . ... : ... .. . ... : ... .. . ... ... : ... .. . ... ... : ... .. . ... ... : ... .. . ... ...
ROW 98 : F#3 00 F ... ... ... : A#2 00 A ... ... ... : F#2 00 . ... : 1-# 00 F ... : ... .. . ... ... : ... .. 6 ... ... : ... .. 6 ... ... : F#0 01 F P80 ...
ROW 99 : ... .. E ... ... ... : ... .. 8 ... ... ... : ... .. . ... : ... .. C ... : ... .. . ... ... : ... .. . ... ... : ... .. . ... ... : ... .. D ... ...
ROW 9A : ... .. D ... ... ... : ... .. . ... ... ... : ... .. . ... : ... .. 6 ... : ... .. . ... ... : ... .. 5 ... ... : ... .. 5 ... ... : ... .. 8 ... ...
ROW 9B : ... .. A ... ... ... : ... .. . ... ... ... : ... .. . ... : ... .. 3 ... : ... .. . ... ... : ... .. 4 ... ... : ... .. 4 ... ... : ... .. . ... ...
ROW 9C : ... .. . ... ... ... : ... .. 4 ... ... ... : ... .. . ... : ... .. 2 ... : ... .. . ... ... : ... .. 2 ... ... : ... .. 2 ... ... : ... .. . ... ...
ROW 9D : ... .. . ... ... ... : ... .. 3 ... ... ... : ... .. . ... : ... .. 0 ... : ... .. . ... ... : ... .. . ... ... : ... .. . ... ... : ... .. . ... ...
ROW 9E : ... .. . ... ... ... : ... .. . ... ... ... : ... .. . ... : ... .. . ... : ... .. . ... ... : ... .. . ... ... : ... .. . ... ... : ... .. . ... ...
ROW 9F : ... .. . ... ... ... : ... .. . ... ... ... : ... .. . ... : ... .. . ... : ... .. . ... ... : ... .. . ... ... : ... .. . ... ... : ... .. . ... ...
ROW A0 : ... .. . ... ... ... : F#3 00 A ... ... ... : B-3 00 . P7D : 5-# 00 D ... : ... .. . ... ... : ... .. 6 ... ... : ... .. 6 ... ... : ... .. . ... ...
ROW A1 : ... .. . ... ... ... : ... .. 8 ... ... ... : A#3 00 . P7C : ... .. . ... : ... .. . ... ... : ... .. . ... ... : ... .. . ... ... : ... .. . ... ...
ROW A2 : ... .. . ... ... ... : ... .. . ... ... ... : A-3 00 . P7B : 1-# 00 D ... : ... .. . ... ... : ... .. 5 ... ... : ... .. 5 ... ... : ... .. . ... ...
ROW A3 : ... .. . ... ... ... : ... .. . ... ... ... : G#3 00 . ... : F-# 00 6 ... : ... .. . ... ... : ... .. 4 ... ... : ... .. 4 ... ... : ... .. . ... ...
ROW A4 : ... .. . ... ... ... : ... .. 4 ... ... ... : G-3 00 . P7C : B-# 00 1 ... : ... .. . ... ... : ... .. 2 ... ... : ... .. 2 ... ... : ... .. . ... ...
ROW A5 : ... .. . ... ... ... : ... .. 3 ... ... ... : F#3 00 . P7E : ... .. 0 ... : ... .. . ... ... : ... .. . ... ... : ... .. . ... ... : ... .. . ... ...
ROW A6 : ... .. . ... ... ... : ... .. . ... ... ... : --- .. . ... : ... .. . ... : ... .. . ... ... : ... .. . ... ... : ... .. . ... ... : --- .. . P81 ...
ROW A7 : ... .. . ... ... ... : ... .. . ... ... ... : ... .. . ... : ... .. . ... : ... .. . ... ... : ... .. . ... ... : ... .. . ... ... : ... .. . ... ...
ROW A8 : ... .. . ... ... ... : C#4 00 A ... ... ... : F#2 00 . P80 : E-# 00 A ... : ... .. . ... ... : ... .. 6 ... ... : ... .. 6 ... ... : F#0 01 F P80 ...
ROW A9 : ... .. . ... ... ... : ... .. 8 ... ... ... : ... .. . ... : ... .. 8 ... : ... .. . ... ... : ... .. . ... ... : ... .. . ... ... : ... .. D ... ...
ROW AA : ... .. . ... ... ... : ... .. . ... ... ... : ... .. . ... : ... .. 4 ... : ... .. . ... ... : ... .. 5 ... ... : ... .. 5 ... ... : ... .. 8 ... ...
ROW AB : ... .. . ... ... ... : ... .. . ... ... ... : ... .. . ... : ... .. 2 ... : ... .. . ... ... : ... .. 4 ... ... : ... .. 4 ... ... : ... .. . ... ...
ROW AC : ... .. . ... ... ... : ... .. 4 ... ... ... : ... .. . ... : ... .. 1 ... : ... .. . ... ... : ... .. 2 ... ... : ... .. 2 ... ... : ... .. . ... ...
ROW AD : ... .. . ... ... ... : ... .. 3 ... ... ... : ... .. . ... : ... .. 0 ... : ... .. . ... ... : ... .. . ... ... : ... .. . ... ... : ... .. . ... ...
ROW AE : ... .. . ... ... ... : ... .. . ... ... ... : --- .. . ... : ... .. . ... : ... .. . ... ... : ... .. . ... ... : ... .. . ... ... : --- .. . P81 ...
ROW AF : ... .. . ... ... ... : ... .. . ... ... ... : ... .. . ... : ... .. . ... : ... .. . ... ... : ... .. . ... ... : ... .. . ... ... : ... .. . ... ...
ROW B0 : G#3 00 F ... ... ... : A#3 00 A ... ... ... : G#2 00 . ... : ... .. F ... : ... .. . ... ... : ... .. 6 ... ... : ... .. 6 ... ... : G#0 01 F P80 ...
ROW B1 : A-3 00 E P7A ... ... : ... .. 8 ... ... ... : ... .. . ... : ... .. C ... : ... .. . ... ... : ... .. . ... ... : ... .. . ... ... : ... .. D ... ...
ROW B2 : ... .. D P83 ... ... : ... .. . ... ... ... : ... .. . ... : ... .. 6 ... : ... .. . ... ... : ... .. 5 ... ... : ... .. 5 ... ... : ... .. 8 ... ...
ROW B3 : A#3 00 A P7E ... ... : ... .. . ... ... ... : ... .. . ... : ... .. 3 ... : ... .. . ... ... : ... .. 4 ... ... : ... .. 4 ... ... : ... .. . ... ...
ROW B4 : ... .. . P80 ... ... : ... .. 4 ... ... ... : ... .. . ... : ... .. 2 ... : ... .. . ... ... : ... .. 2 ... ... : ... .. 2 ... ... : ... .. . ... ...
ROW B5 : ... .. . ... ... ... : ... .. 3 ... ... ... : ... .. . ... : ... .. 0 ... : ... .. . ... ... : ... .. . ... ... : ... .. . ... ... : ... .. . ... ...
ROW B6 : ... .. . ... ... ... : ... .. . ... ... ... : --- .. . ... : ... .. . ... : ... .. . ... ... : ... .. . ... ... : ... .. . ... ... : --- .. . P84 ...
ROW B7 : ... .. . ... ... ... : ... .. . ... ... ... : ... .. . ... : ... .. . ... : ... .. . ... ... : ... .. . ... ... : ... .. . ... ... : ... .. . ... ...
ROW B8 : ... .. . ... ... ... : F#4 00 A ... ... ... : B-2 00 . ... : F-# 00 F ... : ... .. . ... ... : ... .. 6 ... ... : ... .. 6 ... ... : B-0 01 F P80 ...
ROW B9 : ... .. . ... ... ... : ... .. 8 ... ... ... : ... .. . ... : ... .. C ... : ... .. . ... ... : ... .. . ... ... : ... .. . ... ... : ... .. D ... ...
ROW BA : ... .. . ... ... ... : ... .. . ... ... ... : ... .. . ... : ... .. 6 ... : ... .. . ... ... : ... .. 5 ... ... : ... .. 5 ... ... : ... .. 8 ... ...
ROW BB : ... .. . ... ... ... : ... .. . ... ... ... : ... .. . ... : ... .. 3 ... : ... .. . ... ... : ... .. 4 ... ... : ... .. 4 ... ... : ... .. . ... ...
ROW BC : ... .. . ... ... ... : ... .. 4 ... ... ... : ... .. . ... : ... .. F ... : ... .. . ... ... : ... .. 2 ... ... : ... .. 2 ... ... : ... .. . ... ...
ROW BD : ... .. 2 ... ... ... : ... .. 3 ... ... ... : ... .. . ... : ... .. C ... : ... .. . ... ... : ... .. . ... ... : ... .. . ... ... : ... .. . ... ...
ROW BE : ... .. . ... ... ... : ... .. . ... ... ... : --- .. . ... : ... .. 6 ... : ... .. . ... ... : ... .. . ... ... : ... .. . ... ... : --- .. . ... ...
ROW BF : ... .. . ... ... ... : ... .. . ... ... ... : ... .. . ... : ... .. 3 ... : ... .. . ... ... : ... .. . ... ... : ... .. . ... ... : ... .. . ... ...
ROW C0 : ... .. F ... ... ... : C#1 00 A ... ... ... : A#2 00 . P82 : 1-# 00 F ... : ... .. . ... ... : E-3 01 6 ... ... : G#3 01 6 ... ... : C#1 01 F ... ...
ROW C1 : ... .. E ... ... ... : ... .. 8 ... ... ... : G#2 00 . P8B : ... .. C ... : ... .. . ... ... : ... .. . ... ... : ... .. . ... ... : ... .. D ... ...
ROW C2 : ... .. D ... ... ... : ... .. . ... ... ... : G-2 00 . P79 : ... .. 6 ... : ... .. . ... ... : ... .. 5 ... ... : ... .. 5 ... ... : ... .. 8 ... ...
ROW C3 : ... .. A ... ... ... : ... .. . ... ... ... : F-2 00 . P8D : ... .. 3 ... : ... .. . ... ... : ... .. 4 ... ... : ... .. 4 ... ... : ... .. . ... ...
ROW C4 : ... .. . ... ... ... : ... .. 4 ... ... ... : E-2 00 . P81 : ... .. 2 ... : ... .. . ... ... : ... .. 2 ... ... : ... .. 2 ... ... : ... .. . ... ...
ROW C5 : ... .. . ... ... ... : ... .. 3 ... ... ... : D#2 00 . P77 : ... .. 0 ... : ... .. . ... ... : ... .. . ... ... : ... .. . ... ... : ... .. . ... ...
ROW C6 : ... .. . ... ... ... : ... .. . ... ... ... : --- .. . ... : ... .. . ... : ... .. . ... ... : ... .. . ... ... : ... .. . ... ... : --- .. . P81 ...
ROW C7 : ... .. . ... ... ... : ... .. . ... ... ... : ... .. . ... : ... .. . ... : ... .. . ... ... : ... .. . ... ... : ... .. . ... ... : ... .. . ... ...
ROW C8 : ... .. . ... ... ... : C#2 00 A ... ... ... : C#2 00 . P80 : E-# 00 A ... : ... .. . ... ... : ... .. 6 ... ... : ... .. 6 ... ... : C#0 01 F P80 ...
ROW C9 : ... .. . ... ... ... : ... .. 8 ... ... ... : ... .. . ... : ... .. 8 ... : ... .. . ... ... : ... .. . ... ... : ... .. . ... ... : ... .. D ... ...
ROW CA : ... .. . ... ... ... : ... .. . ... ... ... : ... .. . ... : ... .. 4 ... : ... .. . ... ... : ... .. 5 ... ... : ... .. 5 ... ... : ... .. 8 ... ...
ROW CB : ... .. . ... ... ... : ... .. . ... ... ... : ... .. . ... : ... .. 2 ... : ... .. . ... ... : ... .. 4 ... ... : ... .. 4 ... ... : ... .. . ... ...
ROW CC : ... .. . ... ... ... : ... .. 4 ... ... ... : ... .. . ... : ... .. 1 ... : ... .. . ... ... : ... .. 2 ... ... : ... .. 2 ... ... : ... .. . ... ...
ROW CD : ... .. . ... ... ... : ... .. 3 ... ... ... : ... .. . ... : ... .. 0 ... : ... .. . ... ... : ... .. . ... ... : ... .. . ... ... : ... .. . ... ...
ROW CE : ... .. . ... ... ... : ... .. . ... ... ... : ... .. . ... : ... .. . ... : ... .. . ... ... : ... .. . ... ... : ... .. . ... ... : ... .. . ... ...
ROW CF : ... .. . ... ... ... : ... .. . ... ... ... : ... .. . ... : ... .. . ... : ... .. . ... ... : ... .. . ... ... : ... .. . ... ... : ... .. . ... ...
ROW D0 : B-3 00 F ... ... ... : B-2 00 A ... ... ... : ... .. . ... : 1-# 00 F ... : ... .. . ... ... : ... .. 6 ... ... : ... .. 6 ... ... : ... .. . ... ...
ROW D1 : ... .. E ... ... ... : ... .. 8 ... ... ... : ... .. . ... : ... .. C ... : ... .. . ... ... : ... .. . ... ... : ... .. . ... ... : ... .. . ... ...
ROW D2 : ... .. D ... ... ... : ... .. . ... ... ... : ... .. . ... : ... .. 6 ... : ... .. . ... ... : ... .. 5 ... ... : ... .. 5 ... ... : ... .. . ... ...
ROW D3 : ... .. A ... ... ... : ... .. . ... ... ... : ... .. . ... : ... .. 3 ... : ... .. . ... ... : ... .. 4 ... ... : ... .. 4 ... ... : ... .. . ... ...
ROW D4 : ... .. . ... ... ... : ... .. 4 ... ... ... : ... .. . ... : ... .. 2 ... : ... .. . ... ... : ... .. 2 ... ... : ... .. 2 ... ... : ... .. . ... ...
ROW D5 : ... .. 2 ... ... ... : ... .. 3 ... ... ... : ... .. . ... : ... .. 0 ... : ... .. . ... ... : ... .. . ... ... : ... .. . ... ... : ... .. . ... ...
ROW D6 : ... .. . ... ... ... : ... .. . ... ... ... : --- .. . ... : ... .. . ... : ... .. . ... ... : ... .. . ... ... : ... .. . ... ... : --- .. . P83 ...
ROW D7 : ... .. . ... ... ... : ... .. . ... ... ... : ... .. . ... : ... .. . ... : ... .. . ... ... : ... .. . ... ... : ... .. . ... ... : ... .. . ... ...
ROW D8 : G#3 00 F ... ... ... : E-2 00 A ... ... ... : C#2 00 . ... : E-# 00 A ... : ... .. . ... ... : ... .. 6 ... ... : ... .. 6 ... ... : C#0 01 F P80 ...
ROW D9 : ... .. E ... ... ... : ... .. 8 ... ... ... : ... .. . ... : ... .. 8 ... : ... .. . ... ... : ... .. . ... ... : ... .. . ... ... : ... .. D ... ...
ROW DA : ... .. D ... ... ... : ... .. . ... ... ... : ... .. . ... : ... .. 4 ... : ... .. . ... ... : ... .. 5 ... ... : ... .. 5 ... ... : ... .. 8 ... ...
ROW DB : ... .. A ... ... ... : ... .. . ... ... ... : ... .. . ... : ... .. 2 ... : ... .. . ... ... : ... .. 4 ... ... : ... .. 4 ... ... : ... .. . ... ...
ROW DC : ... .. . ... ... ... : ... .. 4 ... ... ... : ... .. . ... : ... .. 1 ... : ... .. . ... ... : ... .. 2 ... ... : ... .. 2 ... ... : ... .. . ... ...
ROW DD : ... .. . ... ... ... : ... .. 3 ... ... ... : ... .. . ... : ... .. 0 ... : ... .. . ... ... : ... .. . ... ... : ... .. . ... ... : ... .. . ... ...
ROW DE : ... .. . ... ... ... : ... .. . ... ... ... : ... .. . ... : ... .. . ... : ... .. . ... ... : ... .. . ... ... : ... .. . ... ... : ... .. . ... ...
ROW DF : ... .. . ... ... ... : ... .. . ... ... ... : ... .. . ... : ... .. . ... : ... .. . ... ... : ... .. . ... ... : ... .. . ... ... : ... .. . ... ...
ROW E0 : ... .. . ... ... ... : G#2 00 A ... ... ... : B-3 00 . P7D : 5-# 00 D ... : ... .. . ... ... : D#3 01 6 ... ... : F#3 01 6 ... ... : ... .. . ... ...
ROW E1 : ... .. . ... ... ... : ... .. 8 ... ... ... : A#3 00 . P7C : ... .. . ... : ... .. . ... ... : ... .. . ... ... : ... .. . ... ... : ... .. . ... ...
ROW E2 : ... .. . ... ... ... : ... .. . ... ... ... : A-3 00 . P7B : 1-# 00 D ... : ... .. . ... ... : ... .. 5 ... ... : ... .. 5 ... ... : ... .. . ... ...
ROW E3 : ... .. . ... ... ... : ... .. . ... ... ... : G#3 00 . ... : F-# 00 6 ... : ... .. . ... ... : ... .. 4 ... ... : ... .. 4 ... ... : ... .. . ... ...
ROW E4 : ... .. . P84 ... ... : ... .. 4 ... ... ... : G-3 00 . P7C : B-# 00 1 ... : ... .. . ... ... : ... .. 2 ... ... : ... .. 2 ... ... : ... .. . ... ...
ROW E5 : ... .. . P86 ... ... : ... .. 3 ... ... ... : F#3 00 . P7E : ... .. 0 ... : ... .. . ... ... : ... .. . ... ... : ... .. . ... ... : ... .. . ... ...
ROW E6 : ... .. . P85 ... ... : ... .. . ... ... ... : --- .. . ... : ... .. . ... : ... .. . ... ... : ... .. . ... ... : ... .. . ... ... : --- .. . P83 ...
ROW E7 : ... .. . P82 ... ... : ... .. . ... ... ... : ... .. . ... : ... .. . ... : ... .. . ... ... : ... .. . ... ... : ... .. . ... ... : ... .. . ... ...
ROW E8 : ... .. . P7E ... ... : E-3 00 A ... ... ... : C#3 00 . P80 : E-# 00 A ... : ... .. . ... ... : ... .. 6 ... ... : ... .. 6 ... ... : C#1 01 F P80 ...
ROW E9 : ... .. . P7B ... ... : ... .. 8 ... ... ... : ... .. . ... : ... .. 8 ... : ... .. . ... ... : ... .. . ... ... : ... .. . ... ... : ... .. D ... ...
ROW EA : ... .. . P7A ... ... : ... .. . ... ... ... : ... .. . ... : ... .. 4 ... : ... .. . ... ... : ... .. 5 ... ... : ... .. 5 ... ... : ... .. 8 ... ...
ROW EB : ... .. . P7C ... ... : ... .. . ... ... ... : ... .. . ... : ... .. 2 ... : ... .. . ... ... : ... .. 4 ... ... : ... .. 4 ... ... : ... .. . ... ...
ROW EC : ... .. . P80 ... ... : ... .. 4 ... ... ... : ... .. . ... : ... .. 1 ... : ... .. . ... ... : ... .. 2 ... ... : ... .. 2 ... ... : ... .. . ... ...
ROW ED : ... .. . P83 ... ... : ... .. 3 ... ... ... : ... .. . ... : ... .. 0 ... : ... .. . ... ... : ... .. . ... ... : ... .. . ... ... : ... .. . ... ...
ROW EE : ... .. . P86 ... ... : ... .. . ... ... ... : --- .. . ... : ... .. . ... : ... .. . ... ... : ... .. . ... ... : ... .. . ... ... : --- .. . P81 ...
ROW EF : ... .. . ... ... ... : ... .. . ... ... ... : ... .. . ... : ... .. . ... : ... .. . ... ... : ... .. . ... ... : ... .. . ... ... : ... .. . ... ...
ROW F0 : B-3 00 8 P80 ... ... : C#3 00 A ... ... ... : B-3 00 . ... : ... .. F ... : ... .. . ... ... : ... .. 6 ... ... : ... .. 6 ... ... : B-1 01 F P80 ...
ROW F1 : ... .. 7 ... ... ... : ... .. 8 ... ... ... : ... .. . ... : ... .. C ... : ... .. . ... ... : ... .. . ... ... : ... .. . ... ... : ... .. D ... ...
ROW F2 : ... .. 6 ... ... ... : ... .. . ... ... ... : ... .. . ... : ... .. 6 ... : ... .. . ... ... : ... .. 5 ... ... : ... .. 5 ... ... : ... .. 8 ... ...
ROW F3 : ... .. 5 ... ... ... : ... .. . ... ... ... : ... .. . ... : ... .. 3 ... : ... .. . ... ... : ... .. 4 ... ... : ... .. 4 ... ... : ... .. . ... ...
ROW F4 : ... .. . ... ... ... : ... .. 4 ... ... ... : ... .. . ... : ... .. 2 ... : ... .. . ... ... : ... .. 2 ... ... : ... .. 2 ... ... : ... .. . ... ...
ROW F5 : ... .. 1 ... ... ... : ... .. 3 ... ... ... : ... .. . ... : ... .. 0 ... : ... .. . ... ... : ... .. . ... ... : ... .. . ... ... : ... .. . ... ...
ROW F6 : ... .. . ... ... ... : ... .. . ... ... ... : --- .. . ... : ... .. . ... : ... .. . ... ... : ... .. . ... ... : ... .. . ... ... : --- .. . P86 ...
ROW F7 : ... .. . ... ... ... : ... .. . ... ... ... : ... .. . ... : ... .. . ... : ... .. . ... ... : ... .. . ... ... : ... .. . ... ... : ... .. . ... ...
ROW F8 : G#3 00 8 ... ... ... : G#3 00 A ... ... ... : C#4 00 . ... : D-# 00 A ... : ... .. . ... ... : ... .. 6 ... ... : ... .. 6 ... ... : C#2 01 F P80 ...
ROW F9 : ... .. 7 ... ... ... : ... .. 8 ... ... ... : ... .. . ... : ... .. . ... : ... .. . ... ... : ... .. . ... ... : ... .. . ... ... : ... .. D ... ...
ROW FA : ... .. 6 ... ... ... : ... .. . ... ... ... : ... .. . ... : ... .. . ... : ... .. . ... ... : ... .. 5 ... ... : ... .. 5 ... ... : ... .. 8 ... ...
ROW FB : ... .. 5 ... ... ... : ... .. . ... ... ... : ... .. . ... : ... .. . ... : ... .. . ... ... : ... .. 4 ... ... : ... .. 4 ... ... : ... .. . ... ...
ROW FC : ... .. . ... ... ... : ... .. 4 ... ... ... : ... .. . ... : ... .. . ... : ... .. . ... ... : ... .. 2 ... ... : ... .. 2 ... ... : ... .. . ... ...
ROW FD : ... .. . ... ... ... : ... .. 3 ... ... ... : ... .. . ... : ... .. . ... : ... .. . ... ... : ... .. . ... ... : ... .. . ... ... : ... .. . ... ...
ROW FE : ... .. . ... ... ... : ... .. . ... ... ... : --- .. . ... : ... .. . ... : ... .. . ... ... : ... .. . ... ... : ... .. . ... ... : --- .. . ... ...
ROW FF : ... .. . ... ... ... : ... .. . ... ... ... : ... .. . ... : ... .. . ... : ... .. . ... ... : ... .. . ... ... : ... .. . ... ... : ... .. . ... ...

PATTERN 1C
ROW 00 : ... .. . ... ... ... : C#1 00 A ... ... ... : A#2 00 . P82 : 1-# 00 F ... : ... .. . ... ... : C#3 01 6 ... ... : E-3 01 6 ... ... : C#1 01 F ... ...
ROW 01 : ... .. . ... ... ... : ... .. 8 ... ... ... : G#2 00 . P8B : ... .. C ... : ... .. . ... ... : ... .. . ... ... : ... .. . ... ... : ... .. D ... ...
ROW 02 : ... .. . ... ... ... : ... .. . ... ... ... : G-2 00 . P79 : ... .. 6 ... : ... .. . ... ... : ... .. 5 ... ... : ... .. 5 ... ... : ... .. 8 ... ...
ROW 03 : ... .. . ... ... ... : ... .. . ... ... ... : F-2 00 . P8D : ... .. 3 ... : ... .. . ... ... : ... .. 4 ... ... : ... .. 4 ... ... : ... .. . ... ...
ROW 04 : ... .. . P84 ... ... : ... .. 4 ... ... ... : E-2 00 . P81 : ... .. 2 ... : ... .. . ... ... : ... .. 2 ... ... : ... .. 2 ... ... : ... .. . ... ...
ROW 05 : ... .. . P86 ... ... : ... .. 3 ... ... ... : D#2 00 . P77 : ... .. 0 ... : ... .. . ... ... : ... .. . ... ... : ... .. . ... ... : ... .. . ... ...
ROW 06 : ... .. . P85 ... ... : ... .. . ... ... ... : --- .. . ... : ... .. . ... : ... .. . ... ... : ... .. . ... ... : ... .. . ... ... : --- .. . P81 ...
ROW 07 : ... .. . P82 ... ... : ... .. . ... ... ... : ... .. . ... : ... .. . ... : ... .. . ... ... : ... .. . ... ... : ... .. . ... ... : ... .. . ... ...
ROW 08 : ... .. . P7E ... ... : G#1 00 A ... ... ... : C#2 00 . P80 : E-# 00 A ... : ... .. . ... ... : ... .. 6 ... ... : ... .. 6 ... ... : C#0 01 F P80 ...
ROW 09 : ... .. . P7B ... ... : ... .. 8 ... ... ... : ... .. . ... : ... .. 8 ... : ... .. . ... ... : ... .. . ... ... : ... .. . ... ... : ... .. D ... ...
ROW 0A : ... .. . P7A ... ... : ... .. . ... ... ... : ... .. . ... : ... .. 4 ... : ... .. . ... ... : ... .. 5 ... ... : ... .. 5 ... ... : ... .. 8 ... ...
ROW 0B : ... .. . P7C ... ... : ... .. . ... ... ... : ... .. . ... : ... .. 2 ... : ... .. . ... ... : ... .. 4 ... ... : ... .. 4 ... ... : ... .. . ... ...
ROW 0C : ... .. . P80 ... ... : ... .. 4 ... ... ... : ... .. . ... : ... .. 1 ... : ... .. . ... ... : ... .. 2 ... ... : ... .. 2 ... ... : ... .. . ... ...
ROW 0D : ... .. . P83 ... ... : ... .. 3 ... ... ... : ... .. . ... : ... .. 0 ... : ... .. . ... ... : ... .. . ... ... : ... .. . ... ... : ... .. . ... ...
ROW 0E : ... .. . P86 ... ... : ... .. . ... ... ... : ... .. . ... : ... .. . ... : ... .. . ... ... : ... .. . ... ... : ... .. . ... ... : ... .. . ... ...
ROW 0F : ... .. . ... ... ... : ... .. . ... ... ... : ... .. . ... : ... .. . ... : ... .. . ... ... : ... .. . ... ... : ... .. . ... ... : ... .. . ... ...
ROW 10 : B-3 00 6 P80 ... ... : G#2 00 A ... ... ... : ... .. . ... : ... .. F ... : ... .. . ... ... : G#2 01 6 ... ... : C#3 01 6 ... ... : ... .. . ... ...
ROW 11 : ... .. 5 ... ... ... : ... .. 8 ... ... ... : ... .. . ... : ... .. C ... : ... .. . ... ... : ... .. . ... ... : ... .. . ... ... : ... .. . ... ...
ROW 12 : ... .. . ... ... ... : ... .. . ... ... ... : ... .. . ... : ... .. 6 ... : ... .. . ... ... : ... .. 5 ... ... : ... .. 5 ... ... : ... .. . ... ...
ROW 13 : ... .. 4 ... ... ... : ... .. . ... ... ... : ... .. . ... : ... .. 3 ... : ... .. . ... ... : ... .. 4 ... ... : ... .. 4 ... ... : ... .. . ... ...
ROW 14 : ... .. . ... ... ... : ... .. 4 ... ... ... : ... .. . ... : ... .. 2 ... : ... .. . ... ... : ... .. 2 ... ... : ... .. 2 ... ... : ... .. . ... ...
ROW 15 : ... .. 1 ... ... ... : ... .. 3 ... ... ... : ... .. . ... : ... .. 0 ... : ... .. . ... ... : ... .. . ... ... : ... .. . ... ... : ... .. . ... ...
ROW 16 : ... .. . ... ... ... : ... .. . ... ... ... : --- .. . ... : ... .. . ... : ... .. . ... ... : ... .. . ... ... : ... .. . ... ... : --- .. . P83 ...
ROW 17 : ... .. . ... ... ... : ... .. . ... ... ... : ... .. . ... : ... .. . ... : ... .. . ... ... : ... .. . ... ... : ... .. . ... ... : ... .. . ... ...
ROW 18 : G#3 00 6 ... ... ... : C#2 00 A ... ... ... : C#2 00 . ... : 1-# 00 F ... : ... .. . ... ... : ... .. 6 ... ... : ... .. 6 ... ... : C#0 01 F P80 ...
ROW 19 : ... .. 5 ... ... ... : ... .. 8 ... ... ... : ... .. . ... : ... .. C ... : ... .. . ... ... : ... .. . ... ... : ... .. . ... ... : ... .. D ... ...
ROW 1A : ... .. . ... ... ... : ... .. . ... ... ... : ... .. . ... : ... .. 6 ... : ... .. . ... ... : ... .. 5 ... ... : ... .. 5 ... ... : ... .. 8 ... ...
ROW 1B : ... .. 4 ... ... ... : ... .. . ... ... ... : ... .. . ... : ... .. 3 ... : ... .. . ... ... : ... .. 4 ... ... : ... .. 4 ... ... : ... .. . ... ...
ROW 1C : ... .. . ... ... ... : ... .. 4 ... ... ... : ... .. . ... : ... .. 2 ... : ... .. . ... ... : ... .. 2 ... ... : ... .. 2 ... ... : ... .. . ... ...
ROW 1D : ... .. . ... ... ... : ... .. 3 ... ... ... : ... .. . ... : ... .. 0 ... : ... .. . ... ... : ... .. . ... ... : ... .. . ... ... : ... .. . ... ...
ROW 1E : ... .. . ... ... ... : ... .. . ... ... ... : ... .. . ... : ... .. . ... : ... .. . ... ... : ... .. . ... ... : ... .. . ... ... : ... .. . ... ...
ROW 1F : ... .. . ... ... ... : ... .. . ... ... ... : ... .. . ... : ... .. . ... : ... .. . ... ... : ... .. . ... ... : ... .. . ... ... : ... .. . ... ...
ROW 20 : ... .. . ... ... ... : ... .. . ... ... ... : ... .. . ... : ... .. . ... : ... .. . ... ... : ... .. . ... ... : ... .. . ... ... : ... .. . ... ...
ROW 21 : ... .. . ... ... ... : ... .. . ... ... ... : ... .. . ... : ... .. . ... : ... .. . ... ... : ... .. . ... ... : ... .. . ... ... : ... .. . ... ...
ROW 22 : ... .. . ... ... ... : ... .. . ... ... ... : ... .. . ... : ... .. . ... : ... .. . ... ... : ... .. . ... ... : ... .. . ... ... : ... .. . ... ...
ROW 23 : ... .. . ... ... ... : ... .. . ... ... ... : ... .. . ... : ... .. . ... : ... .. . ... ... : ... .. . ... ... : ... .. . ... ... : ... .. . ... ...
ROW 24 : ... .. . ... ... ... : ... .. . ... ... ... : ... .. . ... : ... .. . ... : ... .. . ... ... : ... .. . ... ... : ... .. . ... ... : ... .. . ... ...
ROW 25 : ... .. . ... ... ... : ... .. . ... ... ... : ... .. . ... : ... .. . ... : ... .. . ... ... : ... .. . ... ... : ... .. . ... ... : ... .. . ... ...
ROW 26 : ... .. . ... ... ... : ... .. . ... ... ... : ... .. . ... : ... .. . ... : ... .. . ... ... : ... .. . ... ... : ... .. . ... ... : ... .. . ... ...
ROW 27 : ... .. . ... ... ... : ... .. . ... ... ... : ... .. . ... : ... .. . ... : ... .. . ... ... : ... .. . ... ... : ... .. . ... ... : ... .. . ... ...
ROW 28 : ... .. . ... ... ... : ... .. . ... ... ... : ... .. . ... : ... .. . ... : ... .. . ... ... : ... .. . ... ... : ... .. . ... ... : ... .. . ... ...
ROW 29 : ... .. . ... ... ... : ... .. . ... ... ... : ... .. . ... : ... .. . ... : ... .. . ... ... : ... .. . ... ... : ... .. . ... ... : ... .. . ... ...
ROW 2A : ... .. . ... ... ... : ... .. . ... ... ... : ... .. . ... : ... .. . ... : ... .. . ... ... : ... .. . ... ... : ... .. . ... ... : ... .. . ... ...
ROW 2B : ... .. . ... ... ... : ... .. . ... ... ... : ... .. . ... : ... .. . ... : ... .. . ... ... : ... .. . ... ... : ... .. . ... ... : ... .. . ... ...
ROW 2C : ... .. . ... ... ... : ... .. . ... ... ... : ... .. . ... : ... .. . ... : ... .. . ... ... : ... .. . ... ... : ... .. . ... ... : ... .. . ... ...
ROW 2D : ... .. . ... ... ... : ... .. . ... ... ... : ... .. . ... : ... .. . ... : ... .. . ... ... : ... .. . ... ... : ... .. . ... ... : ... .. . ... ...
ROW 2E : ... .. . ... ... ... : ... .. . ... ... ... : ... .. . ... : ... .. . ... : ... .. . ... ... : ... .. . ... ... : ... .. . ... ... : ... .. . ... ...
ROW 2F : ... .. . ... ... ... : ... .. . ... ... ... : ... .. . ... : ... .. . ... : ... .. . ... ... : ... .. . ... ... : ... .. . ... ... : ... .. . ... ...
ROW 30 : ... .. . ... ... ... : ... .. . ... ... ... : ... .. . ... : ... .. . ... : ... .. . ... ... : ... .. . ... ... : ... .. . ... ... : ... .. . ... ...
ROW 31 : ... .. . ... ... ... : ... .. . ... ... ... : ... .. . ... : ... .. . ... : ... .. . ... ... : ... .. . ... ... : ... .. . ... ... : ... .. . ... ...
ROW 32 : ... .. . ... ... ... : ... .. . ... ... ... : ... .. . ... : ... .. . ... : ... .. . ... ... : ... .. . ... ... : ... .. . ... ... : ... .. . ... ...
ROW 33 : ... .. . ... ... ... : ... .. . ... ... ... : ... .. . ... : ... .. . ... : ... .. . ... ... : ... .. . ... ... : ... .. . ... ... : ... .. . ... ...
ROW 34 : ... .. . ... ... ... : ... .. . ... ... ... : ... .. . ... : ... .. . ... : ... .. . ... ... : ... .. . ... ... : ... .. . ... ... : ... .. . ... ...
ROW 35 : ... .. . ... ... ... : ... .. . ... ... ... : ... .. . ... : ... .. . ... : ... .. . ... ... : ... .. . ... ... : ... .. . ... ... : ... .. . ... ...
ROW 36 : ... .. . ... ... ... : ... .. . ... ... ... : ... .. . ... : ... .. . ... : ... .. . ... ... : ... .. . ... ... : ... .. . ... ... : ... .. . ... ...
ROW 37 : ... .. . ... ... ... : ... .. . ... ... ... : ... .. . ... : ... .. . ... : ... .. . ... ... : ... .. . ... ... : ... .. . ... ... : ... .. . ... ...
ROW 38 : ... .. . ... ... ... : ... .. . ... ... ... : ... .. . ... : ... .. . ... : ... .. . ... ... : ... .. . ... ... : ... .. . ... ... : ... .. . ... ...
ROW 39 : ... .. . ... ... ... : ... .. . ... ... ... : ... .. . ... : ... .. . ... : ... .. . ... ... : ... .. . ... ... : ... .. . ... ... : ... .. . ... ...
ROW 3A : ... .. . ... ... ... : ... .. . ... ... ... : ... .. . ... : ... .. . ... : ... .. . ... ... : ... .. . ... ... : ... .. . ... ... : ... .. . ... ...
ROW 3B : ... .. . ... ... ... : ... .. . ... ... ... : ... .. . ... : ... .. . ... : ... .. . ... ... : ... .. . ... ... : ... .. . ... ... : ... .. . ... ...
ROW 3C : ... .. . ... ... ... : ... .. . ... ... ... : ... .. . ... : ... .. . ... : ... .. . ... ... : ... .. . ... ... : ... .. . ... ... : ... .. . ... ...
ROW 3D : ... .. . ... ... ... : ... .. . ... ... ... : ... .. . ... : ... .. . ... : ... .. . ... ... : ... .. . ... ... : ... .. . ... ... : ... .. . ... ...
ROW 3E : ... .. . ... ... ... : ... .. . ... ... ... : ... .. . ... : ... .. . ... : ... .. . ... ... : ... .. . ... ... : ... .. . ... ... : ... .. . ... ...
ROW 3F : ... .. . ... ... ... : ... .. . ... ... ... : ... .. . ... : ... .. . ... : ... .. . ... ... : ... .. . ... ... : ... .. . ... ... : ... .. . ... ...
ROW 40 : ... .. . ... ... ... : ... .. . ... ... ... : ... .. . ... : ... .. . ... : ... .. . ... ... : ... .. . ... ... : ... .. . ... ... : ... .. . ... ...
ROW 41 : ... .. . ... ... ... : ... .. . ... ... ... : ... .. . ... : ... .. . ... : ... .. . ... ... : ... .. . ... ... : ... .. . ... ... : ... .. . ... ...
ROW 42 : ... .. . ... ... ... : ... .. . ... ... ... : ... .. . ... : ... .. . ... : ... .. . ... ... : ... .. . ... ... : ... .. . ... ... : ... .. . ... ...
ROW 43 : ... .. . ... ... ... : ... .. . ... ... ... : ... .. . ... : ... .. . ... : ... .. . ... ... : ... .. . ... ... : ... .. . ... ... : ... .. . ... ...
ROW 44 : ... .. . ... ... ... : ... .. . ... ... ... : ... .. . ... : ... .. . ... : ... .. . ... ... : ... .. . ... ... : ... .. . ... ... : ... .. . ... ...
ROW 45 : ... .. . ... ... ... : ... .. . ... ... ... : ... .. . ... : ... .. . ... : ... .. . ... ... : ... .. . ... ... : ... .. . ... ... : ... .. . ... ...
ROW 46 : ... .. . ... ... ... : ... .. . ... ... ... : ... .. . ... : ... .. . ... : ... .. . ... ... : ... .. . ... ... : ... .. . ... ... : ... .. . ... ...
ROW 47 : ... .. . ... ... ... : ... .. . ... ... ... : ... .. . ... : ... .. . ... : ... .. . ... ... : ... .. . ... ... : ... .. . ... ... : ... .. . ... ...
ROW 48 : ... .. . ... ... ... : ... .. . ... ... ... : ... .. . ... : ... .. . ... : ... .. . ... ... : ... .. . ... ... : ... .. . ... ... : ... .. . ... ...
ROW 49 : ... .. . ... ... ... : ... .. . ... ... ... : ... .. . ... : ... .. . ... : ... .. . ... ... : ... .. . ... ... : ... .. . ... ... : ... .. . ... ...
ROW 4A : ... .. . ... ... ... : ... .. . ... ... ... : ... .. . ... : ... .. . ... : ... .. . ... ... : ... .. . ... ... : ... .. . ... ... : ... .. . ... ...
ROW 4B : ... .. . ... ... ... : ... .. . ... ... ... : ... .. . ... : ... .. . ... : ... .. . ... ... : ... .. . ... ... : ... .. . ... ... : ... .. . ... ...
ROW 4C : ... .. . ... ... ... : ... .. . ... ... ... : ... .. . ... : ... .. . ... : ... .. . ... ... : ... .. . ... ... : ... .. . ... ... : ... .. . ... ...
ROW 4D : ... .. . ... ... ... : ... .. . ... ... ... : ... .. . ... : ... .. . ... : ... .. . ... ... : ... .. . ... ... : ... .. . ... ... : ... .. . ... ...
ROW 4E : ... .. . ... ... ... : ... .. . ... ... ... : ... .. . ... : ... .. . ... : ... .. . ... ... : ... .. . ... ... : ... .. . ... ... : ... .. . ... ...
ROW 4F : ... .. . ... ... ... : ... .. . ... ... ... : ... .. . ... : ... .. . ... : ... .. . ... ... : ... .. . ... ... : ... .. . ... ... : ... .. . ... ...
ROW 50 : ... .. . ... ... ... : ... .. . ... ... ... : ... .. . ... : ... .. . ... : ... .. . ... ... : ... .. . ... ... : ... .. . ... ... : ... .. . ... ...
ROW 51 : ... .. . ... ... ... : ... .. . ... ... ... : ... .. . ... : ... .. . ... : ... .. . ... ... : ... .. . ... ... : ... .. . ... ... : ... .. . ... ...
ROW 52 : ... .. . ... ... ... : ... .. . ... ... ... : ... .. . ... : ... .. . ... : ... .. . ... ... : ... .. . ... ... : ... .. . ... ... : ... .. . ... ...
ROW 53 : ... .. . ... ... ... : ... .. . ... ... ... : ... .. . ... : ... .. . ... : ... .. . ... ... : ... .. . ... ... : ... .. . ... ... : ... .. . ... ...
ROW 54 : ... .. . ... ... ... : ... .. . ... ... ... : ... .. . ... : ... .. . ... : ... .. . ... ... : ... .. . ... ... : ... .. . ... ... : ... .. . ... ...
ROW 55 : ... .. . ... ... ... : ... .. . ... ... ... : ... .. . ... : ... .. . ... : ... .. . ... ... : ... .. . ... ... : ... .. . ... ... : ... .. . ... ...
ROW 56 : ... .. . ... ... ... : ... .. . ... ... ... : ... .. . ... : ... .. . ... : ... .. . ... ... : ... .. . ... ... : ... .. . ... ... : ... .. . ... ...
ROW 57 : ... .. . ... ... ... : ... .. . ... ... ... : ... .. . ... : ... .. . ... : ... .. . ... ... : ... .. . ... ... : ... .. . ... ... : ... .. . ... ...
ROW 58 : ... .. . ... ... ... : ... .. . ... ... ... : ... .. . ... : ... .. . ... : ... .. . ... ... : ... .. . ... ... : ... .. . ... ... : ... .. . ... ...
ROW 59 : ... .. . ... ... ... : ... .. . ... ... ... : ... .. . ... : ... .. . ... : ... .. . ... ... : ... .. . ... ... : ... .. . ... ... : ... .. . ... ...
ROW 5A : ... .. . ... ... ... : ... .. . ... ... ... : ... .. . ... : ... .. . ... : ... .. . ... ... : ... .. . ... ... : ... .. . ... ... : ... .. . ... ...
ROW 5B : ... .. . ... ... ... : ... .. . ... ... ... : ... .. . ... : ... .. . ... : ... .. . ... ... : ... .. . ... ... : ... .. . ... ... : ... .. . ... ...
ROW 5C : ... .. . ... ... ... : ... .. . ... ... ... : ... .. . ... : ... .. . ... : ... .. . ... ... : ... .. . ... ... : ... .. . ... ... : ... .. . ... ...
ROW 5D : ... .. . ... ... ... : ... .. . ... ... ... : ... .. . ... : ... .. . ... : ... .. . ... ... : ... .. . ... ... : ... .. . ... ... : ... .. . ... ...
ROW 5E : ... .. . ... ... ... : ... .. . ... ... ... : ... .. . ... : ... .. . ... : ... .. . ... ... : ... .. . ... ... : ... .. . ... ... : ... .. . ... ...
ROW 5F : ... .. . ... ... ... : ... .. . ... ... ... : ... .. . ... : ... .. . ... : ... .. . ... ... : ... .. . ... ... : ... .. . ... ... : ... .. . ... ...
ROW 60 : ... .. . ... ... ... : ... .. . ... ... ... : ... .. . ... : ... .. . ... : ... .. . ... ... : ... .. . ... ... : ... .. . ... ... : ... .. . ... ...
ROW 61 : ... .. . ... ... ... : ... .. . ... ... ... : ... .. . ... : ... .. . ... : ... .. . ... ... : ... .. . ... ... : ... .. . ... ... : ... .. . ... ...
ROW 62 : ... .. . ... ... ... : ... .. . ... ... ... : ... .. . ... : ... .. . ... : ... .. . ... ... : ... .. . ... ... : ... .. . ... ... : ... .. . ... ...
ROW 63 : ... .. . ... ... ... : ... .. . ... ... ... : ... .. . ... : ... .. . ... : ... .. . ... ... : ... .. . ... ... : ... .. . ... ... : ... .. . ... ...
ROW 64 : ... .. . ... ... ... : ... .. . ... ... ... : ... .. . ... : ... .. . ... : ... .. . ... ... : ... .. . ... ... : ... .. . ... ... : ... .. . ... ...
ROW 65 : ... .. . ... ... ... : ... .. . ... ... ... : ... .. . ... : ... .. . ... : ... .. . ... ... : ... .. . ... ... : ... .. . ... ... : ... .. . ... ...
ROW 66 : ... .. . ... ... ... : ... .. . ... ... ... : ... .. . ... : ... .. . ... : ... .. . ... ... : ... .. . ... ... : ... .. . ... ... : ... .. . ... ...
ROW 67 : ... .. . ... ... ... : ... .. . ... ... ... : ... .. . ... : ... .. . ... : ... .. . ... ... : ... .. . ... ... : ... .. . ... ... : ... .. . ... ...
ROW 68 : ... .. . ... ... ... : ... .. . ... ... ... : ... .. . ... : ... .. . ... : ... .. . ... ... : ... .. . ... ... : ... .. . ... ... : ... .. . ... ...
ROW 69 : ... .. . ... ... ... : ... .. . ... ... ... : ... .. . ... : ... .. . ... : ... .. . ... ... : ... .. . ... ... : ... .. . ... ... : ... .. . ... ...
ROW 6A : ... .. . ... ... ... : ... .. . ... ... ... : ... .. . ... : ... .. . ... : ... .. . ... ... : ... .. . ... ... : ... .. . ... ... : ... .. . ... ...
ROW 6B : ... .. . ... ... ... : ... .. . ... ... ... : ... .. . ... : ... .. . ... : ... .. . ... ... : ... .. . ... ... : ... .. . ... ... : ... .. . ... ...
ROW 6C : ... .. . ... ... ... : ... .. . ... ... ... : ... .. . ... : ... .. . ... : ... .. . ... ... : ... .. . ... ... : ... .. . ... ... : ... .. . ... ...
ROW 6D : ... .. . ... ... ... : ... .. . ... ... ... : ... .. . ... : ... .. . ... : ... .. . ... ... : ... .. . ... ... : ... .. . ... ... : ... .. . ... ...
ROW 6E : ... .. . ... ... ... : ... .. . ... ... ... : ... .. . ... : ... .. . ... : ... .. . ... ... : ... .. . ... ... : ... .. . ... ... : ... .. . ... ...
ROW 6F : ... .. . ... ... ... : ... .. . ... ... ... : ... .. . ... : ... .. . ... : ... .. . ... ... : ... .. . ... ... : ... .. . ... ... : ... .. . ... ...
ROW 70 : ... .. . ... ... ... : ... .. . ... ... ... : ... .. . ... : ... .. . ... : ... .. . ... ... : ... .. . ... ... : ... .. . ... ... : ... .. . ... ...
ROW 71 : ... .. . ... ... ... : ... .. . ... ... ... : ... .. . ... : ... .. . ... : ... .. . ... ... : ... .. . ... ... : ... .. . ... ... : ... .. . ... ...
ROW 72 : ... .. . ... ... ... : ... .. . ... ... ... : ... .. . ... : ... .. . ... : ... .. . ... ... : ... .. . ... ... : ... .. . ... ... : ... .. . ... ...
ROW 73 : ... .. . ... ... ... : ... .. . ... ... ... : ... .. . ... : ... .. . ... : ... .. . ... ... : ... .. . ... ... : ... .. . ... ... : ... .. . ... ...
ROW 74 : ... .. . ... ... ... : ... .. . ... ... ... : ... .. . ... : ... .. . ... : ... .. . ... ... : ... .. . ... ... : ... .. . ... ... : ... .. . ... ...
ROW 75 : ... .. . ... ... ... : ... .. . ... ... ... : ... .. . ... : ... .. . ... : ... .. . ... ... : ... .. . ... ... : ... .. . ... ... : ... .. . ... ...
ROW 76 : ... .. . ... ... ... : ... .. . ... ... ... : ... .. . ... : ... .. . ... : ... .. . ... ... : ... .. . ... ... : ... .. . ... ... : ... .. . ... ...
ROW 77 : ... .. . ... ... ... : ... .. . ... ... ... : ... .. . ... : ... .. . ... : ... .. . ... ... : ... .. . ... ... : ... .. . ... ... : ... .. . ... ...
ROW 78 : ... .. . ... ... ... : ... .. . ... ... ... : ... .. . ... : ... .. . ... : ... .. . ... ... : ... .. . ... ... : ... .. . ... ... : ... .. . ... ...
ROW 79 : ... .. . ... ... ... : ... .. . ... ... ... : ... .. . ... : ... .. . ... : ... .. . ... ... : ... .. . ... ... : ... .. . ... ... : ... .. . ... ...
ROW 7A : ... .. . ... ... ... : ... .. . ... ... ... : ... .. . ... : ... .. . ... : ... .. . ... ... : ... .. . ... ... : ... .. . ... ... : ... .. . ... ...
ROW 7B : ... .. . ... ... ... : ... .. . ... ... ... : ... .. . ... : ... .. . ... : ... .. . ... ... : ... .. . ... ... : ... .. . ... ... : ... .. . ... ...
ROW 7C : ... .. . ... ... ... : ... .. . ... ... ... : ... .. . ... : ... .. . ... : ... .. . ... ... : ... .. . ... ... : ... .. . ... ... : ... .. . ... ...
ROW 7D : ... .. . ... ... ... : ... .. . ... ... ... : ... .. . ... : ... .. . ... : ... .. . ... ... : ... .. . ... ... : ... .. . ... ... : ... .. . ... ...
ROW 7E : ... .. . ... ... ... : ... .. . ... ... ... : ... .. . ... : ... .. . ... : ... .. . ... ... : ... .. . ... ... : ... .. . ... ... : ... .. . ... ...
ROW 7F : ... .. . ... ... ... : ... .. . ... ... ... : ... .. . ... : ... .. . ... : ... .. . ... ... : ... .. . ... ... : ... .. . ... ... : ... .. . ... ...
ROW 80 : ... .. . ... ... ... : ... .. . ... ... ... : ... .. . ... : ... .. . ... : ... .. . ... ... : ... .. . ... ... : ... .. . ... ... : ... .. . ... ...
ROW 81 : ... .. . ... ... ... : ... .. . ... ... ... : ... .. . ... : ... .. . ... : ... .. . ... ... : ... .. . ... ... : ... .. . ... ... : ... .. . ... ...
ROW 82 : ... .. . ... ... ... : ... .. . ... ... ... : ... .. . ... : ... .. . ... : ... .. . ... ... : ... .. . ... ... : ... .. . ... ... : ... .. . ... ...
ROW 83 : ... .. . ... ... ... : ... .. . ... ... ... : ... .. . ... : ... .. . ... : ... .. . ... ... : ... .. . ... ... : ... .. . ... ... : ... .. . ... ...
ROW 84 : ... .. . ... ... ... : ... .. . ... ... ... : ... .. . ... : ... .. . ... : ... .. . ... ... : ... .. . ... ... : ... .. . ... ... : ... .. . ... ...
ROW 85 : ... .. . ... ... ... : ... .. . ... ... ... : ... .. . ... : ... .. . ... : ... .. . ... ... : ... .. . ... ... : ... .. . ... ... : ... .. . ... ...
ROW 86 : ... .. . ... ... ... : ... .. . ... ... ... : ... .. . ... : ... .. . ... : ... .. . ... ... : ... .. . ... ... : ... .. . ... ... : ... .. . ... ...
ROW 87 : ... .. . ... ... ... : ... .. . ... ... ... : ... .. . ... : ... .. . ... : ... .. . ... ... : ... .. . ... ... : ... .. . ... ... : ... .. . ... ...
ROW 88 : ... .. . ... ... ... : ... .. . ... ... ... : ... .. . ... : ... .. . ... : ... .. . ... ... : ... .. . ... ... : ... .. . ... ... : ... .. . ... ...
ROW 89 : ... .. . ... ... ... : ... .. . ... ... ... : ... .. . ... : ... .. . ... : ... .. . ... ... : ... .. . ... ... : ... .. . ... ... : ... .. . ... ...
ROW 8A : ... .. . ... ... ... : ... .. . ... ... ... : ... .. . ... : ... .. . ... : ... .. . ... ... : ... .. . ... ... : ... .. . ... ... : ... .. . ... ...
ROW 8B : ... .. . ... ... ... : ... .. . ... ... ... : ... .. . ... : ... .. . ... : ... .. . ... ... : ... .. . ... ... : ... .. . ... ... : ... .. . ... ...
ROW 8C : ... .. . ... ... ... : ... .. . ... ... ... : ... .. . ... : ... .. . ... : ... .. . ... ... : ... .. . ... ... : ... .. . ... ... : ... .. . ... ...
ROW 8D : ... .. . ... ... ... : ... .. . ... ... ... : ... .. . ... : ... .. . ... : ... .. . ... ... : ... .. . ... ... : ... .. . ... ... : ... .. . ... ...
ROW 8E : ... .. . ... ... ... : ... .. . ... ... ... : ... .. . ... : ... .. . ... : ... .. . ... ... : ... .. . ... ... : ... .. . ... ... : ... .. . ... ...
ROW 8F : ... .. . ... ... ... : ... .. . ... ... ... : ... .. . ... : ... .. . ... : ... .. . ... ... : ... .. . ... ... : ... .. . ... ... : ... .. . ... ...
ROW 90 : ... .. . ... ... ... : ... .. . ... ... ... : ... .. . ... : ... .. . ... : ... .. . ... ... : ... .. . ... ... : ... .. . ... ... : ... .. . ... ...
ROW 91 : ... .. . ... ... ... : ... .. . ... ... ... : ... .. . ... : ... .. . ... : ... .. . ... ... : ... .. . ... ... : ... .. . ... ... : ... .. . ... ...
ROW 92 : ... .. . ... ... ... : ... .. . ... ... ... : ... .. . ... : ... .. . ... : ... .. . ... ... : ... .. . ... ... : ... .. . ... ... : ... .. . ... ...
ROW 93 : ... .. . ... ... ... : ... .. . ... ... ... : ... .. . ... : ... .. . ... : ... .. . ... ... : ... .. . ... ... : ... .. . ... ... : ... .. . ... ...
ROW 94 : ... .. . ... ... ... : ... .. . ... ... ... : ... .. . ... : ... .. . ... : ... .. . ... ... : ... .. . ... ... : ... .. . ... ... : ... .. . ... ...
ROW 95 : ... .. . ... ... ... : ... .. . ... ... ... : ... .. . ... : ... .. . ... : ... .. . ... ... : ... .. . ... ... : ... .. . ... ... : ... .. . ... ...
ROW 96 : ... .. . ... ... ... : ... .. . ... ... ... : ... .. . ... : ... .. . ... : ... .. . ... ... : ... .. . ... ... : ... .. . ... ... : ... .. . ... ...
ROW 97 : ... .. . ... ... ... : ... .. . ... ... ... : ... .. . ... : ... .. . ... : ... .. . ... ... : ... .. . ... ... : ... .. . ... ... : ... .. . ... ...
ROW 98 : ... .. . ... ... ... : ... .. . ... ... ... : ... .. . ... : ... .. . ... : ... .. . ... ... : ... .. . ... ... : ... .. . ... ... : ... .. . ... ...
ROW 99 : ... .. . ... ... ... : ... .. . ... ... ... : ... .. . ... : ... .. . ... : ... .. . ... ... : ... .. . ... ... : ... .. . ... ... : ... .. . ... ...
ROW 9A : ... .. . ... ... ... : ... .. . ... ... ... : ... .. . ... : ... .. . ... : ... .. . ... ... : ... .. . ... ... : ... .. . ... ... : ... .. . ... ...
ROW 9B : ... .. . ... ... ... : ... .. . ... ... ... : ... .. . ... : ... .. . ... : ... .. . ... ... : ... .. . ... ... : ... .. . ... ... : ... .. . ... ...
ROW 9C : ... .. . ... ... ... : ... .. . ... ... ... : ... .. . ... : ... .. . ... : ... .. . ... ... : ... .. . ... ... : ... .. . ... ... : ... .. . ... ...
ROW 9D : ... .. . ... ... ... : ... .. . ... ... ... : ... .. . ... : ... .. . ... : ... .. . ... ... : ... .. . ... ... : ... .. . ... ... : ... .. . ... ...
ROW 9E : ... .. . ... ... ... : ... .. . ... ... ... : ... .. . ... : ... .. . ... : ... .. . ... ... : ... .. . ... ... : ... .. . ... ... : ... .. . ... ...
ROW 9F : ... .. . ... ... ... : ... .. . ... ... ... : ... .. . ... : ... .. . ... : ... .. . ... ... : ... .. . ... ... : ... .. . ... ... : ... .. . ... ...
ROW A0 : ... .. . ... ... ... : ... .. . ... ... ... : ... .. . ... : ... .. . ... : ... .. . ... ... : ... .. . ... ... : ... .. . ... ... : ... .. . ... ...
ROW A1 : ... .. . ... ... ... : ... .. . ... ... ... : ... .. . ... : ... .. . ... : ... .. . ... ... : ... .. . ... ... : ... .. . ... ... : ... .. . ... ...
ROW A2 : ... .. . ... ... ... : ... .. . ... ... ... : ... .. . ... : ... .. . ... : ... .. . ... ... : ... .. . ... ... : ... .. . ... ... : ... .. . ... ...
ROW A3 : ... .. . ... ... ... : ... .. . ... ... ... : ... .. . ... : ... .. . ... : ... .. . ... ... : ... .. . ... ... : ... .. . ... ... : ... .. . ... ...
ROW A4 : ... .. . ... ... ... : ... .. . ... ... ... : ... .. . ... : ... .. . ... : ... .. . ... ... : ... .. . ... ... : ... .. . ... ... : ... .. . ... ...
ROW A5 : ... .. . ... ... ... : ... .. . ... ... ... : ... .. . ... : ... .. . ... : ... .. . ... ... : ... .. . ... ... : ... .. . ... ... : ... .. . ... ...
ROW A6 : ... .. . ... ... ... : ... .. . ... ... ... : ... .. . ... : ... .. . ... : ... .. . ... ... : ... .. . ... ... : ... .. . ... ... : ... .. . ... ...
ROW A7 : ... .. . ... ... ... : ... .. . ... ... ... : ... .. . ... : ... .. . ... : ... .. . ... ... : ... .. . ... ... : ... .. . ... ... : ... .. . ... ...
ROW A8 : ... .. . ... ... ... : ... .. . ... ... ... : ... .. . ... : ... .. . ... : ... .. . ... ... : ... .. . ... ... : ... .. . ... ... : ... .. . ... ...
ROW A9 : ... .. . ... ... ... : ... .. . ... ... ... : ... .. . ... : ... .. . ... : ... .. . ... ... : ... .. . ... ... : ... .. . ... ... : ... .. . ... ...
ROW AA : ... .. . ... ... ... : ... .. . ... ... ... : ... .. . ... : ... .. . ... : ... .. . ... ... : ... .. . ... ... : ... .. . ... ... : ... .. . ... ...
ROW AB : ... .. . ... ... ... : ... .. . ... ... ... : ... .. . ... : ... .. . ... : ... .. . ... ... : ... .. . ... ... : ... .. . ... ... : ... .. . ... ...
ROW AC : ... .. . ... ... ... : ... .. . ... ... ... : ... .. . ... : ... .. . ... : ... .. . ... ... : ... .. . ... ... : ... .. . ... ... : ... .. . ... ...
ROW AD : ... .. . ... ... ... : ... .. . ... ... ... : ... .. . ... : ... .. . ... : ... .. . ... ... : ... .. . ... ... : ... .. . ... ... : ... .. . ... ...
ROW AE : ... .. . ... ... ... : ... .. . ... ... ... : ... .. . ... : ... .. . ... : ... .. . ... ... : ... .. . ... ... : ... .. . ... ... : ... .. . ... ...
ROW AF : ... .. . ... ... ... : ... .. . ... ... ... : ... .. . ... : ... .. . ... : ... .. . ... ... : ... .. . ... ... : ... .. . ... ... : ... .. . ... ...
ROW B0 : ... .. . ... ... ... : ... .. . ... ... ... : ... .. . ... : ... .. . ... : ... .. . ... ... : ... .. . ... ... : ... .. . ... ... : ... .. . ... ...
ROW B1 : ... .. . ... ... ... : ... .. . ... ... ... : ... .. . ... : ... .. . ... : ... .. . ... ... : ... .. . ... ... : ... .. . ... ... : ... .. . ... ...
ROW B2 : ... .. . ... ... ... : ... .. . ... ... ... : ... .. . ... : ... .. . ... : ... .. . ... ... : ... .. . ... ... : ... .. . ... ... : ... .. . ... ...
ROW B3 : ... .. . ... ... ... : ... .. . ... ... ... : ... .. . ... : ... .. . ... : ... .. . ... ... : ... .. . ... ... : ... .. . ... ... : ... .. . ... ...
ROW B4 : ... .. . ... ... ... : ... .. . ... ... ... : ... .. . ... : ... .. . ... : ... .. . ... ... : ... .. . ... ... : ... .. . ... ... : ... .. . ... ...
ROW B5 : ... .. . ... ... ... : ... .. . ... ... ... : ... .. . ... : ... .. . ... : ... .. . ... ... : ... .. . ... ... : ... .. . ... ... : ... .. . ... ...
ROW B6 : ... .. . ... ... ... : ... .. . ... ... ... : ... .. . ... : ... .. . ... : ... .. . ... ... : ... .. . ... ... : ... .. . ... ... : ... .. . ... ...
ROW B7 : ... .. . ... ... ... : ... .. . ... ... ... : ... .. . ... : ... .. . ... : ... .. . ... ... : ... .. . ... ... : ... .. . ... ... : ... .. . ... ...
ROW B8 : ... .. . ... ... ... : ... .. . ... ... ... : ... .. . ... : ... .. . ... : ... .. . ... ... : ... .. . ... ... : ... .. . ... ... : ... .. . ... ...
ROW B9 : ... .. . ... ... ... : ... .. . ... ... ... : ... .. . ... : ... .. . ... : ... .. . ... ... : ... .. . ... ... : ... .. . ... ... : ... .. . ... ...
ROW BA : ... .. . ... ... ... : ... .. . ... ... ... : ... .. . ... : ... .. . ... : ... .. . ... ... : ... .. . ... ... : ... .. . ... ... : ... .. . ... ...
ROW BB : ... .. . ... ... ... : ... .. . ... ... ... : ... .. . ... : ... .. . ... : ... .. . ... ... : ... .. . ... ... : ... .. . ... ... : ... .. . ... ...
ROW BC : ... .. . ... ... ... : ... .. . ... ... ... : ... .. . ... : ... .. . ... : ... .. . ... ... : ... .. . ... ... : ... .. . ... ... : ... .. . ... ...
ROW BD : ... .. . ... ... ... : ... .. . ... ... ... : ... .. . ... : ... .. . ... : ... .. . ... ... : ... .. . ... ... : ... .. . ... ... : ... .. . ... ...
ROW BE : ... .. . ... ... ... : ... .. . ... ... ... : ... .. . ... : ... .. . ... : ... .. . ... ... : ... .. . ... ... : ... .. . ... ... : ... .. . ... ...
ROW BF : ... .. . ... ... ... : ... .. . ... ... ... : ... .. . ... : ... .. . ... : ... .. . ... ... : ... .. . ... ... : ... .. . ... ... : ... .. . ... ...
ROW C0 : ... .. . ... ... ... : ... .. . ... ... ... : ... .. . ... : ... .. . ... : ... .. . ... ... : ... .. . ... ... : ... .. . ... ... : ... .. . ... ...
ROW C1 : ... .. . ... ... ... : ... .. . ... ... ... : ... .. . ... : ... .. . ... : ... .. . ... ... : ... .. . ... ... : ... .. . ... ... : ... .. . ... ...
ROW C2 : ... .. . ... ... ... : ... .. . ... ... ... : ... .. . ... : ... .. . ... : ... .. . ... ... : ... .. . ... ... : ... .. . ... ... : ... .. . ... ...
ROW C3 : ... .. . ... ... ... : ... .. . ... ... ... : ... .. . ... : ... .. . ... : ... .. . ... ... : ... .. . ... ... : ... .. . ... ... : ... .. . ... ...
ROW C4 : ... .. . ... ... ... : ... .. . ... ... ... : ... .. . ... : ... .. . ... : ... .. . ... ... : ... .. . ... ... : ... .. . ... ... : ... .. . ... ...
ROW C5 : ... .. . ... ... ... : ... .. . ... ... ... : ... .. . ... : ... .. . ... : ... .. . ... ... : ... .. . ... ... : ... .. . ... ... : ... .. . ... ...
ROW C6 : ... .. . ... ... ... : ... .. . ... ... ... : ... .. . ... : ... .. . ... : ... .. . ... ... : ... .. . ... ... : ... .. . ... ... : ... .. . ... ...
ROW C7 : ... .. . ... ... ... : ... .. . ... ... ... : ... .. . ... : ... .. . ... : ... .. . ... ... : ... .. . ... ... : ... .. . ... ... : ... .. . ... ...
ROW C8 : ... .. . ... ... ... : ... .. . ... ... ... : ... .. . ... : ... .. . ... : ... .. . ... ... : ... .. . ... ... : ... .. . ... ... : ... .. . ... ...
ROW C9 : ... .. . ... ... ... : ... .. . ... ... ... : ... .. . ... : ... .. . ... : ... .. . ... ... : ... .. . ... ... : ... .. . ... ... : ... .. . ... ...
ROW CA : ... .. . ... ... ... : ... .. . ... ... ... : ... .. . ... : ... .. . ... : ... .. . ... ... : ... .. . ... ... : ... .. . ... ... : ... .. . ... ...
ROW CB : ... .. . ... ... ... : ... .. . ... ... ... : ... .. . ... : ... .. . ... : ... .. . ... ... : ... .. . ... ... : ... .. . ... ... : ... .. . ... ...
ROW CC : ... .. . ... ... ... : ... .. . ... ... ... : ... .. . ... : ... .. . ... : ... .. . ... ... : ... .. . ... ... : ... .. . ... ... : ... .. . ... ...
ROW CD : ... .. . ... ... ... : ... .. . ... ... ... : ... .. . ... : ... .. . ... : ... .. . ... ... : ... .. . ... ... : ... .. . ... ... : ... .. . ... ...
ROW CE : ... .. . ... ... ... : ... .. . ... ... ... : ... .. . ... : ... .. . ... : ... .. . ... ... : ... .. . ... ... : ... .. . ... ... : ... .. . ... ...
ROW CF : ... .. . ... ... ... : ... .. . ... ... ... : ... .. . ... : ... .. . ... : ... .. . ... ... : ... .. . ... ... : ... .. . ... ... : ... .. . ... ...
ROW D0 : ... .. . ... ... ... : ... .. . ... ... ... : ... .. . ... : ... .. . ... : ... .. . ... ... : ... .. . ... ... : ... .. . ... ... : ... .. . ... ...
ROW D1 : ... .. . ... ... ... : ... .. . ... ... ... : ... .. . ... : ... .. . ... : ... .. . ... ... : ... .. . ... ... : ... .. . ... ... : ... .. . ... ...
ROW D2 : ... .. . ... ... ... : ... .. . ... ... ... : ... .. . ... : ... .. . ... : ... .. . ... ... : ... .. . ... ... : ... .. . ... ... : ... .. . ... ...
ROW D3 : ... .. . ... ... ... : ... .. . ... ... ... : ... .. . ... : ... .. . ... : ... .. . ... ... : ... .. . ... ... : ... .. . ... ... : ... .. . ... ...
ROW D4 : ... .. . ... ... ... : ... .. . ... ... ... : ... .. . ... : ... .. . ... : ... .. . ... ... : ... .. . ... ... : ... .. . ... ... : ... .. . ... ...
ROW D5 : ... .. . ... ... ... : ... .. . ... ... ... : ... .. . ... : ... .. . ... : ... .. . ... ... : ... .. . ... ... : ... .. . ... ... : ... .. . ... ...
ROW D6 : ... .. . ... ... ... : ... .. . ... ... ... : ... .. . ... : ... .. . ... : ... .. . ... ... : ... .. . ... ... : ... .. . ... ... : ... .. . ... ...
ROW D7 : ... .. . ... ... ... : ... .. . ... ... ... : ... .. . ... : ... .. . ... : ... .. . ... ... : ... .. . ... ... : ... .. . ... ... : ... .. . ... ...
ROW D8 : ... .. . ... ... ... : ... .. . ... ... ... : ... .. . ... : ... .. . ... : ... .. . ... ... : ... .. . ... ... : ... .. . ... ... : ... .. . ... ...
ROW D9 : ... .. . ... ... ... : ... .. . ... ... ... : ... .. . ... : ... .. . ... : ... .. . ... ... : ... .. . ... ... : ... .. . ... ... : ... .. . ... ...
ROW DA : ... .. . ... ... ... : ... .. . ... ... ... : ... .. . ... : ... .. . ... : ... .. . ... ... : ... .. . ... ... : ... .. . ... ... : ... .. . ... ...
ROW DB : ... .. . ... ... ... : ... .. . ... ... ... : ... .. . ... : ... .. . ... : ... .. . ... ... : ... .. . ... ... : ... .. . ... ... : ... .. . ... ...
ROW DC : ... .. . ... ... ... : ... .. . ... ... ... : ... .. . ... : ... .. . ... : ... .. . ... ... : ... .. . ... ... : ... .. . ... ... : ... .. . ... ...
ROW DD : ... .. . ... ... ... : ... .. . ... ... ... : ... .. . ... : ... .. . ... : ... .. . ... ... : ... .. . ... ... : ... .. . ... ... : ... .. . ... ...
ROW DE : ... .. . ... ... ... : ... .. . ... ... ... : ... .. . ... : ... .. . ... : ... .. . ... ... : ... .. . ... ... : ... .. . ... ... : ... .. . ... ...
ROW DF : ... .. . ... ... ... : ... .. . ... ... ... : ... .. . ... : ... .. . ... : ... .. . ... ... : ... .. . ... ... : ... .. . ... ... : ... .. . ... ...
ROW E0 : ... .. . ... ... ... : ... .. . ... ... ... : ... .. . ... : ... .. . ... : ... .. . ... ... : ... .. . ... ... : ... .. . ... ... : ... .. . ... ...
ROW E1 : ... .. . ... ... ... : ... .. . ... ... ... : ... .. . ... : ... .. . ... : ... .. . ... ... : ... .. . ... ... : ... .. . ... ... : ... .. . ... ...
ROW E2 : ... .. . ... ... ... : ... .. . ... ... ... : ... .. . ... : ... .. . ... : ... .. . ... ... : ... .. . ... ... : ... .. . ... ... : ... .. . ... ...
ROW E3 : ... .. . ... ... ... : ... .. . ... ... ... : ... .. . ... : ... .. . ... : ... .. . ... ... : ... .. . ... ... : ... .. . ... ... : ... .. . ... ...
ROW E4 : ... .. . ... ... ... : ... .. . ... ... ... : ... .. . ... : ... .. . ... : ... .. . ... ... : ... .. . ... ... : ... .. . ... ... : ... .. . ... ...
ROW E5 : ... .. . ... ... ... : ... .. . ... ... ... : ... .. . ... : ... .. . ... : ... .. . ... ... : ... .. . ... ... : ... .. . ... ... : ... .. . ... ...
ROW E6 : ... .. . ... ... ... : ... .. . ... ... ... : ... .. . ... : ... .. . ... : ... .. . ... ... : ... .. . ... ... : ... .. . ... ... : ... .. . ... ...
ROW E7 : ... .. . ... ... ... : ... .. . ... ... ... : ... .. . ... : ... .. . ... : ... .. . ... ... : ... .. . ... ... : ... .. . ... ... : ... .. . ... ...
ROW E8 : ... .. . ... ... ... : ... .. . ... ... ... : ... .. . ... : ... .. . ... : ... .. . ... ... : ... .. . ... ... : ... .. . ... ... : ... .. . ... ...
ROW E9 : ... .. . ... ... ... : ... .. . ... ... ... : ... .. . ... : ... .. . ... : ... .. . ... ... : ... .. . ... ... : ... .. . ... ... : ... .. . ... ...
ROW EA : ... .. . ... ... ... : ... .. . ... ... ... : ... .. . ... : ... .. . ... : ... .. . ... ... : ... .. . ... ... : ... .. . ... ... : ... .. . ... ...
ROW EB : ... .. . ... ... ... : ... .. . ... ... ... : ... .. . ... : ... .. . ... : ... .. . ... ... : ... .. . ... ... : ... .. . ... ... : ... .. . ... ...
ROW EC : ... .. . ... ... ... : ... .. . ... ... ... : ... .. . ... : ... .. . ... : ... .. . ... ... : ... .. . ... ... : ... .. . ... ... : ... .. . ... ...
ROW ED : ... .. . ... ... ... : ... .. . ... ... ... : ... .. . ... : ... .. . ... : ... .. . ... ... : ... .. . ... ... : ... .. . ... ... : ... .. . ... ...
ROW EE : ... .. . ... ... ... : ... .. . ... ... ... : ... .. . ... : ... .. . ... : ... .. . ... ... : ... .. . ... ... : ... .. . ... ... : ... .. . ... ...
ROW EF : ... .. . ... ... ... : ... .. . ... ... ... : ... .. . ... : ... .. . ... : ... .. . ... ... : ... .. . ... ... : ... .. . ... ... : ... .. . ... ...
ROW F0 : ... .. . ... ... ... : ... .. . ... ... ... : ... .. . ... : ... .. . ... : ... .. . ... ... : ... .. . ... ... : ... .. . ... ... : ... .. . ... ...
ROW F1 : ... .. . ... ... ... : ... .. . ... ... ... : ... .. . ... : ... .. . ... : ... .. . ... ... : ... .. . ... ... : ... .. . ... ... : ... .. . ... ...
ROW F2 : ... .. . ... ... ... : ... .. . ... ... ... : ... .. . ... : ... .. . ... : ... .. . ... ... : ... .. . ... ... : ... .. . ... ... : ... .. . ... ...
ROW F3 : ... .. . ... ... ... : ... .. . ... ... ... : ... .. . ... : ... .. . ... : ... .. . ... ... : ... .. . ... ... : ... .. . ... ... : ... .. . ... ...
ROW F4 : ... .. . ... ... ... : ... .. . ... ... ... : ... .. . ... : ... .. . ... : ... .. . ... ... : ... .. . ... ... : ... .. . ... ... : ... .. . ... ...
ROW F5 : ... .. . ... ... ... : ... .. . ... ... ... : ... .. . ... : ... .. . ... : ... .. . ... ... : ... .. . ... ... : ... .. . ... ... : ... .. . ... ...
ROW F6 : ... .. . ... ... ... : ... .. . ... ... ... : ... .. . ... : ... .. . ... : ... .. . ... ... : ... .. . ... ... : ... .. . ... ... : ... .. . ... ...
ROW F7 : ... .. . ... ... ... : ... .. . ... ... ... : ... .. . ... : ... .. . ... : ... .. . ... ... : ... .. . ... ... : ... .. . ... ... : ... .. . ... ...
ROW F8 : ... .. . ... ... ... : ... .. . ... ... ... : ... .. . ... : ... .. . ... : ... .. . ... ... : ... .. . ... ... : ... .. . ... ... : ... .. . ... ...
ROW F9 : ... .. . ... ... ... : ... .. . ... ... ... : ... .. . ... : ... .. . ... : ... .. . ... ... : ... .. . ... ... : ... .. . ... ... : ... .. . ... ...
ROW FA : ... .. . ... ... ... : ... .. . ... ... ... : ... .. . ... : ... .. . ... : ... .. . ... ... : ... .. . ... ... : ... .. . ... ... : ... .. . ... ...
ROW FB : ... .. . ... ... ... : ... .. . ... ... ... : ... .. . ... : ... .. . ... : ... .. . ... ... : ... .. . ... ... : ... .. . ... ... : ... .. . ... ...
ROW FC : ... .. . ... ... ... : ... .. . ... ... ... : ... .. . ... : ... .. . ... : ... .. . ... ... : ... .. . ... ... : ... .. . ... ... : ... .. . ... ...
ROW FD : ... .. . ... ... ... : ... .. . ... ... ... : ... .. . ... : ... .. . ... : ... .. . ... ... : ... .. . ... ... : ... .. . ... ... : ... .. . ... ...
ROW FE : ... .. . ... ... ... : ... .. . ... ... ... : ... .. . ... : ... .. . ... : ... .. . ... ... : ... .. . ... ... : ... .. . ... ... : ... .. . ... ...
ROW FF : ... .. . ... ... ... : ... .. . ... ... ... : ... .. . ... : ... .. . ... : ... .. . ... ... : ... .. . ... ... : ... .. . ... ... : ... .. . ... ...

# End of export
