# FamiTracker text export 0.4.2

# Song information
TITLE           "Shovel Knight OST"
AUTHOR          "Jake Kaufman"
COPYRIGHT       ""

# Song comment
COMMENT ""

# Global settings
MACHINE         0
FRAMERATE       0
EXPANSION       1
VIBRATO         1
SPLIT           21

# Macros

# DPCM samples

# Instruments
INST2A03   0    -1  -1  -1  -1  -1 "blank"
INSTVRC6   1    -1  -1  -1  -1  -1 "blank"

# Tracks

TRACK 256   1 150 "New song"
COLUMNS : 3 3 1 1 2 2 2 2

ORDER 00 : 00 00 00 00 00 00 00 00
ORDER 01 : 01 01 01 01 01 01 01 01
ORDER 02 : 02 02 02 02 02 02 02 02
ORDER 03 : 03 03 03 03 03 03 03 03
ORDER 04 : 04 04 04 04 04 04 04 04
ORDER 05 : 05 05 05 05 05 05 05 05
ORDER 06 : 06 06 06 06 06 06 06 06
ORDER 07 : 07 07 07 07 07 07 07 07
ORDER 08 : 08 08 08 08 08 08 08 08
ORDER 09 : 09 09 09 09 09 09 09 09
ORDER 0A : 0A 0A 0A 0A 0A 0A 0A 0A
ORDER 0B : 0B 0B 0B 0B 0B 0B 0B 0B
ORDER 0C : 0C 0C 0C 0C 0C 0C 0C 0C
ORDER 0D : 0D 0D 0D 0D 0D 0D 0D 0D
ORDER 0E : 0E 0E 0E 0E 0E 0E 0E 0E
ORDER 0F : 0F 0F 0F 0F 0F 0F 0F 0F
ORDER 10 : 10 10 10 10 10 10 10 10
ORDER 11 : 11 11 11 11 11 11 11 11
ORDER 12 : 12 12 12 12 12 12 12 12
ORDER 13 : 13 13 13 13 13 13 13 13
ORDER 14 : 14 14 14 14 14 14 14 14
ORDER 15 : 15 15 15 15 15 15 15 15
ORDER 16 : 16 16 16 16 16 16 16 16
ORDER 17 : 17 17 17 17 17 17 17 17
ORDER 18 : 18 18 18 18 18 18 18 18
ORDER 19 : 19 19 19 19 19 19 19 19
ORDER 1A : 1A 1A 1A 1A 1A 1A 1A 1A
ORDER 1B : 1B 1B 1B 1B 1B 1B 1B 1B
ORDER 1C : 1C 1C 1C 1C 1C 1C 1C 1C

PATTERN 00
ROW 00 : C#3 00 D P80 V00 ... : C#4 00 1 P80 V00 ... : C-5 00 . P80 : F-# 00 0 V00 : === 00 . Z00 ... : G#2 01 2 P80 V03 : G#4 01 1 P80 V05 : C#2 01 F P80 V00
ROW 01 : ... .. A ... ... ... : ... .. . ... ... ... : D-4 00 . ... : ... .. . ... : ... .. . ... ... : ... .. . ... ... : ... .. . ... ... : ... .. D ... ...
ROW 02 : ... .. 7 ... ... ... : ... .. . ... ... ... : G-3 00 . ... : ... .. . ... : ... .. . ... ... : ... .. . ... ... : ... .. . ... ... : ... .. 8 ... ...
ROW 03 : ... .. 6 ... ... ... : ... .. . ... ... ... : F#3 00 . ... : ... .. . ... : ... .. . ... ... : ... .. 1 ... ... : ... .. . P81 ... : ... .. . ... ...
ROW 04 : ... .. 3 ... ... ... : ... .. . ... ... ... : C#3 00 . ... : ... .. . ... : ... .. . ... ... : ... .. . ... ... : ... .. . ... ... : ... .. . ... ...
ROW 05 : ... .. 1 ... ... ... : ... .. . ... ... ... : ... .. . ... : ... .. . ... : ... .. . ... ... : ... .. . ... ... : ... .. . ... ... : ... .. . ... ...
ROW 06 : G#3 00 D ... ... ... : D-4 00 1 ... ... ... : ... .. . ... : ... .. . ... : ... .. . ... ... : A-2 01 2 ... ... : ... .. . P83 ... : ... .. . P75 ...
ROW 07 : ... .. A ... ... ... : ... .. . ... ... ... : ... .. . ... : ... .. . ... : ... .. . ... ... : ... .. . ... ... : ... .. . ... ... : ... .. . P6A ...
ROW 08 : ... .. 7 ... ... ... : ... .. . ... ... ... : ... .. . ... : ... .. . ... : ... .. . ... ... : ... .. . ... ... : ... .. . ... ... : C-2 01 8 P96 ...
ROW 09 : ... .. 6 ... ... ... : ... .. . ... ... ... : ... .. . ... : ... .. . ... : ... .. . ... ... : ... .. . ... ... : A-4 01 1 P7D ... : ... .. . P8B ...
ROW 0A : ... .. 3 ... ... ... : ... .. . ... ... ... : ... .. . ... : ... .. . ... : ... .. . ... ... : ... .. . ... ... : ... .. . ... ... : ... .. . P80 ...
ROW 0B : ... .. 1 ... ... ... : ... .. . ... ... ... : ... .. . ... : ... .. . ... : ... .. . ... ... : ... .. . ... ... : ... .. . ... ... : ... .. . P75 ...
ROW 0C : G-3 00 D ... ... ... : D#4 00 2 ... ... ... : ... .. . ... : ... .. . ... : ... .. . ... ... : G#3 01 3 ... ... : ... .. . P7F ... : ... .. . P6A ...
ROW 0D : ... .. A ... ... ... : ... .. 1 ... ... ... : ... .. . ... : ... .. . ... : ... .. . ... ... : ... .. . ... ... : ... .. . ... ... : B-1 01 8 P99 ...
ROW 0E : ... .. 7 ... ... ... : ... .. . ... ... ... : ... .. . ... : ... .. . ... : ... .. . ... ... : ... .. 2 ... ... : ... .. . ... ... : ... .. . P8E ...
ROW 0F : ... .. 6 ... ... ... : ... .. . ... ... ... : ... .. . ... : ... .. . ... : ... .. . ... ... : ... .. . ... ... : ... .. . P81 ... : ... .. . P83 ...
ROW 10 : ... .. 3 ... ... ... : ... .. . ... ... ... : ... .. . ... : ... .. . ... : ... .. . ... ... : ... .. . ... ... : ... .. . ... ... : ... .. . P78 ...
ROW 11 : ... .. 1 ... ... ... : ... .. . ... ... ... : ... .. . ... : ... .. . ... : ... .. . ... ... : ... .. . ... ... : ... .. . ... ... : ... .. . P6D ...
ROW 12 : D#3 00 D ... ... ... : E-4 00 2 ... ... ... : C-3 00 . P78 : ... .. . ... : ... .. . ... ... : C#3 01 4 ... ... : ... .. . P83 ... : ... .. . P62 ...
ROW 13 : ... .. A ... ... ... : ... .. 1 ... ... ... : A#2 00 . P8C : ... .. . ... : ... .. . ... ... : ... .. 3 ... ... : ... .. . ... ... : A#1 01 8 P95 ...
ROW 14 : ... .. 7 ... ... ... : ... .. . ... ... ... : A-2 00 . P88 : ... .. . ... : ... .. . ... ... : ... .. . ... ... : ... .. . ... ... : ... .. . P8A ...
ROW 15 : ... .. 6 ... ... ... : ... .. 2 ... ... ... : G#2 00 . P87 : ... .. . ... : ... .. . ... ... : ... .. 2 ... ... : A#4 01 1 P7E ... : ... .. . P7F ...
ROW 16 : ... .. 3 ... ... ... : ... .. . ... ... ... : G-2 00 . ... : ... .. . ... : ... .. . ... ... : ... .. . ... ... : ... .. . ... ... : ... .. . P74 ...
ROW 17 : ... .. 1 ... ... ... : ... .. . ... ... ... : F#2 00 . P89 : ... .. . ... : ... .. . ... ... : ... .. . ... ... : ... .. . ... ... : ... .. . P69 ...
ROW 18 : E-3 00 D ... ... ... : F-4 00 3 ... ... ... : F-2 00 . P8D : ... .. . ... : ... .. . ... ... : D-3 01 4 ... ... : ... .. . P80 ... : A-1 01 8 P9F ...
ROW 19 : ... .. A ... ... ... : ... .. 2 ... ... ... : E-2 00 . P93 : ... .. . ... : ... .. . ... ... : ... .. 3 ... ... : ... .. . ... ... : ... .. . P94 ...
ROW 1A : ... .. 7 ... ... ... : ... .. . ... ... ... : ... .. . P73 : ... .. . ... : ... .. . ... ... : ... .. . ... ... : ... .. . ... ... : ... .. . P89 ...
ROW 1B : ... .. 6 ... ... ... : ... .. . ... ... ... : D#2 00 . P7B : ... .. . ... : ... .. . ... ... : ... .. . ... ... : ... .. . P81 ... : ... .. . P7E ...
ROW 1C : ... .. 3 ... ... ... : ... .. . ... ... ... : D-2 00 . P86 : ... .. . ... : ... .. . ... ... : ... .. . ... ... : ... .. . ... ... : ... .. . P73 ...
ROW 1D : ... .. 1 ... ... ... : ... .. . ... ... ... : C#2 00 . P93 : ... .. . ... : ... .. . ... ... : ... .. 2 ... ... : ... .. . ... ... : ... .. . P68 ...
ROW 1E : C-4 00 D ... ... ... : F#4 00 3 ... ... ... : ... .. . P73 : ... .. . ... : ... .. . ... ... : C#4 01 4 ... ... : ... .. . P83 ... : G#1 01 8 PA2 ...
ROW 1F : ... .. A ... ... ... : ... .. 2 ... ... ... : C-2 00 . P83 : ... .. . ... : ... .. . ... ... : ... .. . ... ... : ... .. . ... ... : ... .. . P97 ...
ROW 20 : ... .. 7 ... ... ... : ... .. . ... ... ... : B-1 00 . P96 : ... .. . ... : ... .. . ... ... : ... .. 3 ... ... : ... .. . ... ... : ... .. . P8C ...
ROW 21 : ... .. 6 ... ... ... : ... .. . ... ... ... : ... .. . P76 : ... .. . ... : ... .. . ... ... : ... .. . ... ... : B-4 01 1 P7E ... : ... .. . P81 ...
ROW 22 : ... .. 3 ... ... ... : ... .. . ... ... ... : A#1 00 . P8C : ... .. . ... : ... .. . ... ... : ... .. . ... ... : ... .. . ... ... : ... .. . P76 ...
ROW 23 : ... .. 1 ... ... ... : ... .. . ... ... ... : ... .. . P6C : ... .. . ... : ... .. . ... ... : ... .. 2 ... ... : ... .. . ... ... : ... .. . P6B ...
ROW 24 : C#3 00 D ... ... ... : G-4 00 4 ... ... ... : C-4 00 . P80 : ... .. . ... : ... .. . ... ... : G#3 01 5 ... ... : ... .. . P80 ... : ... .. . P60 ...
ROW 25 : ... .. A ... ... ... : ... .. 3 ... ... ... : D-3 00 . ... : ... .. . ... : ... .. . ... ... : ... .. 4 ... ... : ... .. . ... ... : G-1 01 8 P9F ...
ROW 26 : ... .. 7 ... ... ... : ... .. . ... ... ... : G-2 00 . ... : ... .. . ... : ... .. . ... ... : ... .. . ... ... : ... .. . ... ... : ... .. . P94 ...
ROW 27 : ... .. 6 ... ... ... : ... .. 2 ... ... ... : F#2 00 . ... : ... .. . ... : ... .. . ... ... : ... .. 3 ... ... : ... .. . P82 ... : ... .. . P89 ...
ROW 28 : ... .. 3 ... ... ... : ... .. . ... ... ... : C#2 00 . ... : ... .. . ... : ... .. . ... ... : ... .. . ... ... : ... .. . ... ... : ... .. . P7E ...
ROW 29 : ... .. 1 ... ... ... : ... .. . ... ... ... : ... .. . ... : ... .. . ... : ... .. . ... ... : ... .. . ... ... : ... .. . ... ... : ... .. . P73 ...
ROW 2A : G#3 00 D ... ... ... : F#4 00 5 ... ... ... : ... .. . ... : ... .. . ... : ... .. . ... ... : A-3 01 5 ... ... : C-5 01 1 P7E ... : ... .. . P68 ...
ROW 2B : ... .. A ... ... ... : ... .. 4 ... ... ... : ... .. . ... : ... .. . ... : ... .. . ... ... : ... .. 4 ... ... : ... .. . ... ... : ... .. . P5D ...
ROW 2C : ... .. 7 ... ... ... : ... .. . ... ... ... : ... .. . ... : ... .. . ... : ... .. . ... ... : ... .. . ... ... : ... .. . ... ... : F#1 01 8 P9F ...
ROW 2D : ... .. 6 ... ... ... : ... .. 3 ... ... ... : ... .. . ... : ... .. . ... : ... .. . ... ... : ... .. . ... ... : ... .. . P80 ... : ... .. . P94 ...
ROW 2E : ... .. 3 ... ... ... : ... .. . ... ... ... : ... .. . ... : ... .. . ... : ... .. . ... ... : ... .. . ... ... : ... .. . ... ... : ... .. . P89 ...
ROW 2F : ... .. 1 ... ... ... : ... .. . ... ... ... : ... .. . ... : ... .. . ... : ... .. . ... ... : ... .. 3 ... ... : ... .. . ... ... : ... .. . P7E ...
ROW 30 : G-3 00 D ... ... ... : F-4 00 5 ... ... ... : ... .. . ... : ... .. . ... : ... .. . ... ... : G#4 01 6 ... ... : ... .. . P82 ... : ... .. . P73 ...
ROW 31 : ... .. A ... ... ... : ... .. 4 ... ... ... : ... .. . ... : ... .. . ... : ... .. . ... ... : ... .. 5 ... ... : ... .. . ... ... : ... .. . P68 ...
ROW 32 : ... .. 7 ... ... ... : ... .. . ... ... ... : ... .. . ... : ... .. . ... : ... .. . ... ... : ... .. 4 ... ... : ... .. . ... ... : ... .. . P5D ...
ROW 33 : ... .. 6 ... ... ... : ... .. 3 ... ... ... : ... .. . ... : ... .. . ... : ... .. . ... ... : ... .. . ... ... : ... .. . P83 ... : F-1 01 8 PA4 ...
ROW 34 : ... .. 3 ... ... ... : ... .. . ... ... ... : ... .. . ... : ... .. . ... : ... .. . ... ... : ... .. . ... ... : ... .. . ... ... : ... .. . P99 ...
ROW 35 : ... .. 1 ... ... ... : ... .. . ... ... ... : ... .. . ... : ... .. . ... : ... .. . ... ... : ... .. 3 ... ... : ... .. . ... ... : ... .. . P8E ...
ROW 36 : D#3 00 D ... ... ... : E-4 00 6 ... ... ... : ... .. . ... : ... .. . ... : ... .. . ... ... : C#4 01 6 ... ... : C#5 01 1 P7F ... : ... .. . P83 ...
ROW 37 : ... .. A ... ... ... : ... .. 5 ... ... ... : ... .. . ... : ... .. . ... : ... .. . ... ... : ... .. . ... ... : ... .. . ... ... : ... .. . P78 ...
ROW 38 : ... .. 7 ... ... ... : ... .. . ... ... ... : ... .. . ... : ... .. . ... : ... .. . ... ... : ... .. 5 ... ... : ... .. . ... ... : ... .. . P6D ...
ROW 39 : ... .. 6 ... ... ... : ... .. 4 ... ... ... : ... .. . ... : ... .. . ... : ... .. . ... ... : ... .. 4 ... ... : ... .. . P81 ... : ... .. . P62 ...
ROW 3A : ... .. 3 ... ... ... : ... .. . ... ... ... : ... .. . ... : ... .. . ... : ... .. . ... ... : ... .. . ... ... : ... .. . ... ... : ... .. . P57 ...
ROW 3B : ... .. 1 ... ... ... : ... .. . ... ... ... : ... .. . ... : ... .. . ... : ... .. . ... ... : ... .. . ... ... : ... .. . ... ... : E-1 01 8 PA3 ...
ROW 3C : E-3 00 D ... ... ... : D#4 00 6 ... ... ... : ... .. . ... : ... .. . ... : ... .. . ... ... : G#3 01 6 ... ... : ... .. . P83 ... : ... .. . P98 ...
ROW 3D : ... .. A ... ... ... : ... .. 5 ... ... ... : ... .. . ... : ... .. . ... : ... .. . ... ... : ... .. . ... ... : ... .. . ... ... : ... .. . P8D ...
ROW 3E : ... .. 7 ... ... ... : ... .. . ... ... ... : ... .. . ... : ... .. . ... : ... .. . ... ... : ... .. 5 ... ... : ... .. . ... ... : ... .. . P82 ...
ROW 3F : ... .. 6 ... ... ... : ... .. 4 ... ... ... : ... .. . ... : ... .. . ... : ... .. . ... ... : ... .. . ... ... : D-5 01 1 P7F ... : ... .. . P77 ...
ROW 40 : ... .. 3 ... ... ... : ... .. . ... ... ... : ... .. . ... : ... .. . ... : ... .. . ... ... : ... .. . ... ... : ... .. . ... ... : ... .. . P6C ...
ROW 41 : ... .. 1 ... ... ... : ... .. . ... ... ... : ... .. . ... : ... .. . ... : ... .. . ... ... : ... .. 4 ... ... : ... .. . ... ... : ... .. . P61 ...
ROW 42 : C-4 00 D ... ... ... : D-4 00 7 ... ... ... : ... .. . ... : ... .. . ... : ... .. . ... ... : C#3 01 7 ... ... : ... .. . P81 ... : ... .. . P56 ...
ROW 43 : ... .. A ... ... ... : ... .. 6 ... ... ... : ... .. . ... : ... .. . ... : ... .. . ... ... : ... .. 6 ... ... : ... .. . ... ... : D#1 01 8 PA8 ...
ROW 44 : ... .. 7 ... ... ... : ... .. . ... ... ... : ... .. . ... : ... .. . ... : ... .. . ... ... : ... .. 5 ... ... : ... .. . ... ... : ... .. . P9D ...
ROW 45 : ... .. 6 ... ... ... : ... .. 4 ... ... ... : ... .. . ... : ... .. . ... : ... .. . ... ... : ... .. . ... ... : D#5 01 2 P7E ... : ... .. . P92 ...
ROW 46 : ... .. 3 ... ... ... : ... .. . ... ... ... : ... .. . ... : ... .. . ... : ... .. . ... ... : ... .. . ... ... : ... .. . ... ... : ... .. . P87 ...
ROW 47 : ... .. 1 ... ... ... : ... .. . ... ... ... : ... .. . ... : ... .. . ... : ... .. . ... ... : ... .. 4 ... ... : ... .. . ... ... : ... .. . P7C ...
ROW 48 : C#3 00 D ... ... ... : D#4 00 7 ... ... ... : ... .. . ... : ... .. . ... : ... .. . ... ... : D-3 01 8 ... ... : ... .. . P80 ... : ... .. . P71 ...
ROW 49 : ... .. A ... ... ... : ... .. 6 ... ... ... : ... .. . ... : ... .. . ... : ... .. . ... ... : ... .. 7 ... ... : ... .. . ... ... : ... .. . P66 ...
ROW 4A : ... .. 7 ... ... ... : ... .. . ... ... ... : ... .. . ... : ... .. . ... : ... .. . ... ... : ... .. 6 ... ... : ... .. . ... ... : ... .. . P5B ...
ROW 4B : ... .. 6 ... ... ... : ... .. 5 ... ... ... : ... .. . ... : ... .. . ... : ... .. . ... ... : ... .. 5 ... ... : ... .. . P81 ... : ... .. . P50 ...
ROW 4C : ... .. 3 ... ... ... : ... .. . ... ... ... : ... .. . ... : ... .. . ... : ... .. . ... ... : ... .. . ... ... : ... .. . ... ... : D-1 01 8 PA6 ...
ROW 4D : ... .. 1 ... ... ... : ... .. . ... ... ... : ... .. . ... : ... .. . ... : ... .. . ... ... : ... .. 4 ... ... : ... .. . ... ... : ... .. . P9B ...
ROW 4E : G#3 00 D ... ... ... : E-4 00 8 ... ... ... : ... .. . ... : ... .. . ... : ... .. . ... ... : G#2 01 8 ... ... : E-5 01 2 P7E ... : ... .. . P90 ...
ROW 4F : ... .. A ... ... ... : ... .. 7 ... ... ... : ... .. . ... : ... .. . ... : ... .. . ... ... : ... .. 7 ... ... : ... .. . ... ... : ... .. . P85 ...
ROW 50 : ... .. 7 ... ... ... : ... .. 6 ... ... ... : ... .. . ... : ... .. . ... : ... .. . ... ... : ... .. 6 ... ... : ... .. . ... ... : ... .. . P7A ...
ROW 51 : ... .. 6 ... ... ... : ... .. 5 ... ... ... : ... .. . ... : ... .. . ... : ... .. . ... ... : ... .. . ... ... : ... .. . P80 ... : ... .. . P6F ...
ROW 52 : ... .. 3 ... ... ... : ... .. . ... ... ... : ... .. . ... : ... .. . ... : ... .. . ... ... : ... .. . ... ... : ... .. . ... ... : ... .. . P64 ...
ROW 53 : ... .. 1 ... ... ... : ... .. . ... ... ... : ... .. . ... : ... .. . ... : ... .. . ... ... : ... .. 5 ... ... : ... .. . ... ... : ... .. . P59 ...
ROW 54 : G-3 00 D ... ... ... : F-4 00 9 ... ... ... : ... .. . ... : ... .. . ... : ... .. . ... ... : D-2 01 8 ... ... : ... .. . P82 ... : ... .. . P4E ...
ROW 55 : ... .. A ... ... ... : ... .. 8 ... ... ... : ... .. . ... : ... .. . ... : ... .. . ... ... : ... .. 7 ... ... : ... .. . ... ... : C#1 01 8 PAB ...
ROW 56 : ... .. 7 ... ... ... : ... .. 7 ... ... ... : ... .. . ... : ... .. . ... : ... .. . ... ... : ... .. 6 ... ... : ... .. . ... ... : ... .. . PA0 ...
ROW 57 : ... .. 6 ... ... ... : ... .. 6 ... ... ... : ... .. . ... : ... .. . ... : ... .. . ... ... : ... .. . ... ... : F-5 01 2 P7F ... : ... .. . P95 ...
ROW 58 : ... .. 3 ... ... ... : ... .. . ... ... ... : ... .. . ... : ... .. . ... : ... .. . ... ... : ... .. . ... ... : ... .. . ... ... : ... .. . P8A ...
ROW 59 : ... .. 1 ... ... ... : ... .. . ... ... ... : ... .. . ... : ... .. . ... : ... .. . ... ... : ... .. 5 ... ... : ... .. . ... ... : ... .. . P7F ...
ROW 5A : D#3 00 D ... ... ... : F#4 00 9 ... ... ... : ... .. . ... : ... .. . ... : ... .. . ... ... : C#2 01 9 ... ... : ... .. . P81 ... : ... .. . P74 ...
ROW 5B : ... .. A ... ... ... : ... .. 8 ... ... ... : ... .. . ... : ... .. . ... : ... .. . ... ... : ... .. 8 ... ... : ... .. . ... ... : ... .. . P69 ...
ROW 5C : ... .. 7 ... ... ... : ... .. 7 ... ... ... : ... .. . ... : ... .. . ... : ... .. . ... ... : ... .. 7 ... ... : ... .. . ... ... : ... .. . P5E ...
ROW 5D : ... .. 6 ... ... ... : ... .. 6 ... ... ... : ... .. . ... : ... .. . ... : ... .. . ... ... : ... .. 6 ... ... : F#5 01 2 P7F ... : ... .. . P53 ...
ROW 5E : ... .. 3 ... ... ... : ... .. . ... ... ... : ... .. . ... : ... .. . ... : ... .. . ... ... : ... .. . ... ... : ... .. . ... ... : C-1 01 8 PB6 ...
ROW 5F : ... .. 1 ... ... ... : ... .. . ... ... ... : ... .. . ... : ... .. . ... : ... .. . ... ... : ... .. 5 ... ... : ... .. . ... ... : ... .. . PAB ...
ROW 60 : E-3 00 D ... ... ... : G-4 00 A ... ... ... : ... .. . ... : ... .. . ... : ... .. . ... ... : G#2 01 A ... ... : ... .. . P81 ... : ... .. . PA0 ...
ROW 61 : ... .. A ... ... ... : ... .. 9 ... ... ... : ... .. . ... : ... .. . ... : ... .. . ... ... : ... .. 9 ... ... : ... .. . ... ... : ... .. . P95 ...
ROW 62 : ... .. 7 ... ... ... : ... .. 8 ... ... ... : ... .. . ... : ... .. . ... : ... .. . ... ... : ... .. 8 ... ... : ... .. . ... ... : ... .. . P8A ...
ROW 63 : ... .. 6 ... ... ... : ... .. 6 ... ... ... : ... .. . ... : ... .. . ... : ... .. . ... ... : ... .. 6 ... ... : ... .. . P82 ... : ... .. . P7F ...
ROW 64 : ... .. 3 ... ... ... : ... .. . ... ... ... : ... .. . ... : ... .. . ... : ... .. . ... ... : ... .. . ... ... : ... .. . ... ... : ... .. . P74 ...
ROW 65 : ... .. 1 ... ... ... : ... .. . ... ... ... : ... .. . ... : ... .. . ... : ... .. . ... ... : ... .. 5 ... ... : ... .. . ... ... : ... .. . P69 ...
ROW 66 : C-4 00 D ... ... ... : G#4 00 A ... ... ... : ... .. . ... : ... .. . ... : ... .. . ... ... : A-2 01 9 ... ... : G-5 01 2 P7F ... : ... .. . P5E ...
ROW 67 : ... .. A ... ... ... : ... .. 9 ... ... ... : ... .. . ... : ... .. . ... : ... .. . ... ... : ... .. 8 ... ... : ... .. . ... ... : ... .. . P53 ...
ROW 68 : ... .. 7 ... ... ... : ... .. 8 ... ... ... : ... .. . ... : ... .. . ... : ... .. . ... ... : ... .. 7 ... ... : ... .. . ... ... : ... .. . P48 ...
ROW 69 : ... .. 6 ... ... ... : ... .. 7 ... ... ... : ... .. . ... : ... .. . ... : ... .. . ... ... : ... .. 6 ... ... : ... .. . P81 ... : B-0 01 8 PB1 ...
ROW 6A : ... .. 3 ... ... ... : ... .. . ... ... ... : ... .. . ... : ... .. . ... : ... .. . ... ... : ... .. . ... ... : ... .. . ... ... : ... .. . PA6 ...
ROW 6B : ... .. 1 ... ... ... : ... .. . ... ... ... : ... .. . ... : ... .. . ... : ... .. . ... ... : ... .. 5 ... ... : ... .. . ... ... : ... .. . P9B ...
ROW 6C : A-3 00 D ... ... ... : A-4 00 B ... ... ... : D-4 00 . ... : ... .. . ... : ... .. . ... ... : G#3 01 8 ... ... : G#5 01 2 P7F ... : ... .. . P90 ...
ROW 6D : ... .. A ... ... ... : ... .. A ... ... ... : E-3 00 . ... : ... .. . ... : ... .. . ... ... : ... .. 7 ... ... : ... .. . ... ... : ... .. . P85 ...
ROW 6E : ... .. 7 ... ... ... : ... .. 9 ... ... ... : A-2 00 . ... : ... .. . ... : ... .. . ... ... : ... .. 6 ... ... : ... .. . ... ... : ... .. . P7A ...
ROW 6F : ... .. 6 ... ... ... : ... .. 7 ... ... ... : G#2 00 . ... : ... .. . ... : ... .. . ... ... : ... .. 5 ... ... : ... .. . P81 ... : ... .. . P6F ...
ROW 70 : ... .. 3 ... ... ... : ... .. . ... ... ... : D#2 00 . ... : ... .. . ... : ... .. . ... ... : ... .. . ... ... : ... .. . ... ... : ... .. . P64 ...
ROW 71 : ... .. 1 ... ... ... : ... .. . ... ... ... : ... .. . ... : ... .. . ... : ... .. . ... ... : ... .. 4 ... ... : ... .. . ... ... : ... .. . P59 ...
ROW 72 : E-3 00 D ... ... ... : G#4 00 C ... ... ... : ... .. . ... : ... .. . ... : ... .. . ... ... : C#3 01 8 ... ... : A-5 01 2 P80 ... : ... .. . P4E ...
ROW 73 : ... .. A ... ... ... : ... .. B ... ... ... : ... .. . ... : ... .. . ... : ... .. . ... ... : ... .. 7 ... ... : ... .. . ... ... : ... .. . P43 ...
ROW 74 : ... .. 7 ... ... ... : ... .. A ... ... ... : ... .. . ... : ... .. . ... : ... .. . ... ... : ... .. 6 ... ... : ... .. . ... ... : A#0 01 8 PB3 ...
ROW 75 : ... .. 6 ... ... ... : ... .. 8 ... ... ... : ... .. . ... : ... .. . ... : ... .. . ... ... : ... .. 5 ... ... : ... .. . P82 ... : ... .. . PA8 ...
ROW 76 : ... .. 3 ... ... ... : ... .. . ... ... ... : ... .. . ... : ... .. . ... : ... .. . ... ... : ... .. . ... ... : ... .. . ... ... : ... .. . P9D ...
ROW 77 : ... .. 1 ... ... ... : ... .. . ... ... ... : ... .. . ... : ... .. . ... : ... .. . ... ... : ... .. 4 ... ... : ... .. . ... ... : ... .. . P92 ...
ROW 78 : A-2 00 D ... ... ... : G-4 00 C ... ... ... : D#4 00 . ... : ... .. . ... : ... .. . ... ... : D-3 01 7 ... ... : A#5 01 3 P80 ... : ... .. . P87 ...
ROW 79 : ... .. A ... ... ... : ... .. B ... ... ... : F-3 00 . ... : ... .. . ... : ... .. . ... ... : ... .. 6 ... ... : ... .. . ... ... : ... .. . P7C ...
ROW 7A : ... .. 7 ... ... ... : ... .. A ... ... ... : A#2 00 . ... : ... .. . ... : ... .. . ... ... : ... .. 5 ... ... : ... .. . ... ... : ... .. . P71 ...
ROW 7B : ... .. 6 ... ... ... : ... .. 8 ... ... ... : A-2 00 . ... : ... .. . ... : ... .. . ... ... : ... .. . ... ... : ... .. . P81 ... : ... .. . P66 ...
ROW 7C : ... .. 3 ... ... ... : ... .. . ... ... ... : E-2 00 . ... : ... .. . ... : ... .. . ... ... : ... .. . ... ... : ... .. . ... ... : ... .. . P5B ...
ROW 7D : ... .. 1 ... ... ... : ... .. . ... ... ... : ... .. . ... : ... .. . ... : ... .. . ... ... : ... .. 4 ... ... : ... .. . ... ... : ... .. . P50 ...
ROW 7E : G-3 00 D ... ... ... : F#4 00 D ... ... ... : ... .. . ... : ... .. . ... : ... .. . ... ... : C#4 01 6 ... ... : B-5 01 3 P80 ... : ... .. . P45 ...
ROW 7F : ... .. A ... ... ... : ... .. C ... ... ... : ... .. . ... : ... .. . ... : ... .. . ... ... : ... .. . ... ... : ... .. . ... ... : A-0 01 8 PBC ...
ROW 80 : ... .. 7 ... ... ... : ... .. B ... ... ... : ... .. . ... : ... .. . ... : ... .. . ... ... : ... .. 5 ... ... : ... .. . ... ... : ... .. . PB1 ...
ROW 81 : ... .. 6 ... ... ... : ... .. 8 ... ... ... : ... .. . ... : ... .. . ... : ... .. . ... ... : ... .. 4 ... ... : ... .. . P82 ... : ... .. . PA6 ...
ROW 82 : ... .. 3 ... ... ... : ... .. . ... ... ... : ... .. . ... : ... .. . ... : ... .. . ... ... : ... .. . ... ... : ... .. . ... ... : ... .. . P9B ...
ROW 83 : ... .. 1 ... ... ... : ... .. . ... ... ... : ... .. . ... : ... .. . ... : ... .. . ... ... : ... .. . ... ... : ... .. . ... ... : ... .. . P90 ...
ROW 84 : D-3 00 D ... ... ... : F-4 00 D ... ... ... : F-4 00 . ... : ... .. . ... : ... .. . ... ... : G#3 01 6 ... ... : C-6 01 3 P80 ... : ... .. . P85 ...
ROW 85 : ... .. A ... ... ... : ... .. C ... ... ... : G-3 00 . ... : ... .. . ... : ... .. . ... ... : ... .. 5 ... ... : ... .. . ... ... : ... .. . P7A ...
ROW 86 : ... .. 7 ... ... ... : ... .. B ... ... ... : C-3 00 . ... : ... .. . ... : ... .. . ... ... : ... .. 4 ... ... : ... .. . ... ... : ... .. . P6F ...
ROW 87 : ... .. 6 ... ... ... : ... .. 9 ... ... ... : B-2 00 . ... : ... .. . ... : ... .. . ... ... : ... .. . ... ... : C#6 01 3 P7F ... : ... .. . P64 ...
ROW 88 : ... .. 3 ... ... ... : ... .. . ... ... ... : F#2 00 . ... : ... .. . ... : ... .. . ... ... : ... .. . ... ... : ... .. . ... ... : ... .. . P59 ...
ROW 89 : ... .. 1 ... ... ... : ... .. . ... ... ... : ... .. . ... : ... .. . ... : ... .. . ... ... : ... .. 3 ... ... : ... .. . ... ... : ... .. . P4E ...
ROW 8A : G-2 00 D ... ... ... : E-4 00 E ... ... ... : ... .. . ... : ... .. . ... : ... .. . ... ... : A-3 01 5 ... ... : ... .. . P81 ... : ... .. . P43 ...
ROW 8B : ... .. A ... ... ... : ... .. D ... ... ... : ... .. . ... : ... .. . ... : ... .. . ... ... : ... .. 4 ... ... : ... .. . ... ... : G#0 01 8 PC3 ...
ROW 8C : ... .. 7 ... ... ... : ... .. C ... ... ... : ... .. . ... : ... .. . ... : ... .. . ... ... : ... .. . ... ... : ... .. . ... ... : ... .. . PB8 ...
ROW 8D : ... .. 6 ... ... ... : ... .. 9 ... ... ... : ... .. . ... : ... .. . ... : ... .. . ... ... : ... .. 3 ... ... : D-6 01 3 ... ... : ... .. . PAD ...
ROW 8E : ... .. 3 ... ... ... : ... .. . ... ... ... : ... .. . ... : ... .. . ... : ... .. . ... ... : ... .. . ... ... : ... .. . ... ... : ... .. . PA2 ...
ROW 8F : ... .. 1 ... ... ... : ... .. . ... ... ... : ... .. . ... : ... .. . ... : ... .. . ... ... : ... .. . ... ... : ... .. . ... ... : ... .. . P97 ...
ROW 90 : G#2 00 D ... ... ... : ... .. F ... ... ... : G-5 00 . ... : ... .. . ... : ... .. . ... ... : G#3 01 5 ... ... : D#6 01 3 P80 ... : ... .. F P80 ...
ROW 91 : ... .. A ... ... ... : ... .. E ... ... ... : A-4 00 . ... : ... .. . ... : ... .. . ... ... : ... .. 4 ... ... : ... .. . ... ... : ... .. D ... ...
ROW 92 : ... .. 7 ... ... ... : ... .. D ... ... ... : D-4 00 . ... : ... .. . ... : ... .. . ... ... : ... .. . ... ... : ... .. . ... ... : ... .. 8 ... ...
ROW 93 : ... .. 6 ... ... ... : ... .. 9 ... ... ... : C#4 00 . ... : ... .. . ... : ... .. . ... ... : ... .. 3 ... ... : ... .. . ... ... : ... .. . ... ...
ROW 94 : ... .. 3 ... ... ... : ... .. . ... ... ... : G#3 00 . ... : ... .. . ... : ... .. . ... ... : ... .. . ... ... : ... .. . ... ... : ... .. . ... ...
ROW 95 : ... .. 1 ... ... ... : ... .. . ... ... ... : ... .. . ... : ... .. . ... : ... .. . ... ... : ... .. . ... ... : ... .. . ... ... : ... .. . ... ...
ROW 96 : D#3 00 D ... ... ... : F-4 00 E ... ... ... : ... .. . ... : ... .. . ... : ... .. . ... ... : G-3 01 5 ... ... : ... .. . ... ... : ... .. . ... ...
ROW 97 : ... .. A ... ... ... : ... .. D ... ... ... : ... .. . ... : ... .. . ... : ... .. . ... ... : ... .. 4 ... ... : ... .. . ... ... : ... .. . ... ...
ROW 98 : ... .. 7 ... ... ... : ... .. C ... ... ... : ... .. . ... : ... .. . ... : ... .. . ... ... : ... .. . ... ... : ... .. . ... ... : ... .. . ... ...
ROW 99 : ... .. 6 ... ... ... : ... .. 9 ... ... ... : ... .. . ... : ... .. . ... : ... .. . ... ... : ... .. 3 ... ... : ... .. . ... ... : ... .. . ... ...
ROW 9A : ... .. 3 ... ... ... : ... .. . ... ... ... : ... .. . ... : ... .. . ... : ... .. . ... ... : ... .. . ... ... : ... .. . ... ... : ... .. . ... ...
ROW 9B : ... .. 1 ... ... ... : ... .. . ... ... ... : ... .. . ... : ... .. . ... : ... .. . ... ... : ... .. . ... ... : ... .. . ... ... : ... .. . ... ...
ROW 9C : D-3 00 D ... ... ... : F#4 00 E ... ... ... : ... .. . ... : ... .. . ... : ... .. . ... ... : G#3 01 6 ... ... : ... .. 4 ... ... : ... .. . ... ...
ROW 9D : ... .. A ... ... ... : ... .. D ... ... ... : ... .. . ... : ... .. . ... : ... .. . ... ... : ... .. 5 ... ... : ... .. . ... ... : ... .. . ... ...
ROW 9E : ... .. 7 ... ... ... : ... .. C ... ... ... : ... .. . ... : ... .. . ... : ... .. . ... ... : ... .. 4 ... ... : ... .. . ... ... : ... .. . ... ...
ROW 9F : ... .. 6 ... ... ... : ... .. 8 ... ... ... : ... .. . ... : ... .. . ... : ... .. . ... ... : ... .. . ... ... : ... .. . ... ... : ... .. . ... ...
ROW A0 : ... .. 3 ... ... ... : ... .. . ... ... ... : ... .. . ... : ... .. . ... : ... .. . ... ... : ... .. . ... ... : ... .. . ... ... : ... .. . ... ...
ROW A1 : ... .. 1 ... ... ... : ... .. . ... ... ... : ... .. . ... : ... .. . ... : ... .. . ... ... : ... .. 3 ... ... : ... .. . ... ... : ... .. . ... ...
ROW A2 : A#2 00 D ... ... ... : G-4 00 D ... ... ... : ... .. . ... : ... .. . ... : ... .. . ... ... : F#4 01 6 ... ... : ... .. . ... ... : ... .. . ... ...
ROW A3 : ... .. A ... ... ... : ... .. C ... ... ... : ... .. . ... : ... .. . ... : ... .. . ... ... : ... .. 5 ... ... : ... .. . ... ... : ... .. . ... ...
ROW A4 : ... .. 7 ... ... ... : ... .. B ... ... ... : ... .. . ... : ... .. . ... : ... .. . ... ... : ... .. 4 ... ... : ... .. . ... ... : ... .. . ... ...
ROW A5 : ... .. 6 ... ... ... : ... .. 8 ... ... ... : ... .. . ... : ... .. . ... : ... .. . ... ... : ... .. . ... ... : ... .. . ... ... : ... .. . ... ...
ROW A6 : ... .. 3 ... ... ... : ... .. . ... ... ... : ... .. . ... : ... .. . ... : ... .. . ... ... : ... .. . ... ... : ... .. . ... ... : ... .. . ... ...
ROW A7 : ... .. 1 ... ... ... : ... .. . ... ... ... : ... .. . ... : ... .. . ... : ... .. . ... ... : ... .. . ... ... : ... .. . ... ... : ... .. . ... ...
ROW A8 : B-2 00 D ... ... ... : G#4 00 D ... ... ... : F#3 00 . P81 : ... .. . ... : ... .. . ... ... : B-3 01 6 ... ... : ... .. . ... ... : ... .. . ... ...
ROW A9 : ... .. A ... ... ... : ... .. C ... ... ... : E-3 00 . P86 : ... .. . ... : ... .. . ... ... : ... .. . ... ... : ... .. . ... ... : ... .. . ... ...
ROW AA : ... .. 7 ... ... ... : ... .. B ... ... ... : D#3 00 . P7B : ... .. . ... : ... .. . ... ... : ... .. 5 ... ... : ... .. . ... ... : ... .. . ... ...
ROW AB : ... .. 6 ... ... ... : ... .. 8 ... ... ... : C#3 00 . P87 : ... .. . ... : ... .. . ... ... : ... .. 4 ... ... : ... .. . ... ... : ... .. . ... ...
ROW AC : ... .. 3 ... ... ... : ... .. . ... ... ... : C-3 00 . P7F : ... .. . ... : ... .. . ... ... : ... .. . ... ... : ... .. . ... ... : ... .. . ... ...
ROW AD : ... .. 1 ... ... ... : ... .. . ... ... ... : B-2 00 . P78 : ... .. . ... : ... .. . ... ... : ... .. . ... ... : ... .. . ... ... : ... .. . ... ...
ROW AE : G-3 00 D ... ... ... : A-4 00 C ... ... ... : A#2 00 . P73 : ... .. . ... : ... .. . ... ... : D-4 01 6 ... ... : ... .. . ... ... : ... .. . ... ...
ROW AF : ... .. A ... ... ... : ... .. B ... ... ... : G#2 00 . P8E : ... .. . ... : ... .. . ... ... : ... .. . ... ... : ... .. . ... ... : ... .. . ... ...
ROW B0 : ... .. 7 ... ... ... : ... .. A ... ... ... : G-2 00 . ... : ... .. . ... : ... .. . ... ... : ... .. 5 ... ... : ... .. . ... ... : ... .. . ... ...
ROW B1 : ... .. 6 ... ... ... : ... .. 8 ... ... ... : F#2 00 . P90 : ... .. . ... : ... .. . ... ... : ... .. . ... ... : ... .. . ... ... : ... .. . ... ...
ROW B2 : ... .. 3 ... ... ... : ... .. . ... ... ... : ... .. . P70 : ... .. . ... : ... .. . ... ... : ... .. . ... ... : ... .. . P81 ... : ... .. . ... ...
ROW B3 : ... .. 1 ... ... ... : ... .. . ... ... ... : F-2 00 . P74 : ... .. . ... : ... .. . ... ... : ... .. 4 ... ... : ... .. . ... ... : ... .. . ... ...
ROW B4 : G#2 00 D ... ... ... : A#4 00 C ... ... ... : G-4 00 . P80 : ... .. . ... : ... .. . ... ... : G#3 01 7 ... ... : ... .. . P80 ... : ... .. . ... ...
ROW B5 : ... .. A ... ... ... : ... .. B ... ... ... : A-3 00 . ... : ... .. . ... : ... .. . ... ... : ... .. 6 ... ... : ... .. . ... ... : ... .. . ... ...
ROW B6 : ... .. 7 ... ... ... : ... .. A ... ... ... : D-3 00 . ... : ... .. . ... : ... .. . ... ... : ... .. 5 ... ... : ... .. . P7F ... : ... .. . ... ...
ROW B7 : ... .. 6 ... ... ... : ... .. 8 ... ... ... : C#3 00 . ... : ... .. . ... : ... .. . ... ... : ... .. . ... ... : ... .. . ... ... : ... .. . ... ...
ROW B8 : ... .. 3 ... ... ... : ... .. . ... ... ... : G#2 00 . ... : ... .. . ... : ... .. . ... ... : ... .. . ... ... : ... .. . P80 ... : ... .. . ... ...
ROW B9 : ... .. 1 ... ... ... : ... .. . ... ... ... : ... .. . ... : ... .. . ... : ... .. . ... ... : ... .. 4 ... ... : ... .. . ... ... : ... .. . ... ...
ROW BA : D#3 00 D ... ... ... : A-4 00 B ... ... ... : ... .. . ... : ... .. . ... : ... .. . ... ... : F#3 01 8 ... ... : ... .. . ... ... : ... .. . ... ...
ROW BB : ... .. A ... ... ... : ... .. A ... ... ... : ... .. . ... : ... .. . ... : ... .. . ... ... : ... .. 7 ... ... : ... .. . P81 ... : ... .. . ... ...
ROW BC : ... .. 7 ... ... ... : ... .. 9 ... ... ... : ... .. . ... : ... .. . ... : ... .. . ... ... : ... .. 6 ... ... : ... .. . ... ... : ... .. . ... ...
ROW BD : ... .. 6 ... ... ... : ... .. 7 ... ... ... : ... .. . ... : ... .. . ... : ... .. . ... ... : ... .. 5 ... ... : ... .. . P80 ... : ... .. . ... ...
ROW BE : ... .. 3 ... ... ... : ... .. . ... ... ... : ... .. . ... : ... .. . ... : ... .. . ... ... : ... .. . ... ... : ... .. . ... ... : ... .. . ... ...
ROW BF : ... .. 1 ... ... ... : ... .. . ... ... ... : ... .. . ... : ... .. . ... : ... .. . ... ... : ... .. 4 ... ... : ... .. . P7F ... : ... .. . ... ...
ROW C0 : D-3 00 D ... ... ... : G#4 00 B ... ... ... : ... .. . ... : ... .. . ... : ... .. . ... ... : D-3 01 8 ... ... : ... .. . ... ... : ... .. . ... ...
ROW C1 : ... .. A ... ... ... : ... .. A ... ... ... : ... .. . ... : ... .. . ... : ... .. . ... ... : ... .. 7 ... ... : ... .. . ... ... : ... .. . ... ...
ROW C2 : ... .. 7 ... ... ... : ... .. 9 ... ... ... : ... .. . ... : ... .. . ... : ... .. . ... ... : ... .. 6 ... ... : ... .. . P80 ... : ... .. . ... ...
ROW C3 : ... .. 6 ... ... ... : ... .. 7 ... ... ... : ... .. . ... : ... .. . ... : ... .. . ... ... : ... .. 5 ... ... : ... .. . ... ... : ... .. . ... ...
ROW C4 : ... .. 3 ... ... ... : ... .. . ... ... ... : ... .. . ... : ... .. . ... : ... .. . ... ... : ... .. . ... ... : ... .. . P81 ... : ... .. . ... ...
ROW C5 : ... .. 1 ... ... ... : ... .. . ... ... ... : ... .. . ... : ... .. . ... : ... .. . ... ... : ... .. 4 ... ... : ... .. . ... ... : ... .. . ... ...
ROW C6 : A#2 00 D ... ... ... : G-4 00 A ... ... ... : ... .. . ... : ... .. . ... : ... .. . ... ... : A-3 01 8 ... ... : ... .. . P80 ... : ... .. . ... ...
ROW C7 : ... .. A ... ... ... : ... .. 9 ... ... ... : ... .. . ... : ... .. . ... : ... .. . ... ... : ... .. 7 ... ... : ... .. . ... ... : ... .. . ... ...
ROW C8 : ... .. 7 ... ... ... : ... .. 8 ... ... ... : ... .. . ... : ... .. . ... : ... .. . ... ... : ... .. 6 ... ... : ... .. . P7F ... : ... .. . ... ...
ROW C9 : ... .. 6 ... ... ... : ... .. 6 ... ... ... : ... .. . ... : ... .. . ... : ... .. . ... ... : ... .. . ... ... : ... .. . ... ... : ... .. . ... ...
ROW CA : ... .. 3 ... ... ... : ... .. . ... ... ... : ... .. . ... : ... .. . ... : ... .. . ... ... : ... .. . ... ... : ... .. . ... ... : ... .. . ... ...
ROW CB : ... .. 1 ... ... ... : ... .. . ... ... ... : ... .. . ... : ... .. . ... : ... .. . ... ... : ... .. 5 ... ... : ... .. . P80 ... : ... .. . ... ...
ROW CC : B-2 00 D ... ... ... : F#4 00 A ... ... ... : ... .. . ... : ... .. . ... : ... .. . ... ... : G#3 01 8 ... ... : ... .. . ... ... : ... .. . ... ...
ROW CD : ... .. A ... ... ... : ... .. 9 ... ... ... : ... .. . ... : ... .. . ... : ... .. . ... ... : ... .. 7 ... ... : ... .. . P81 ... : ... .. . ... ...
ROW CE : ... .. 7 ... ... ... : ... .. 8 ... ... ... : ... .. . ... : ... .. . ... : ... .. . ... ... : ... .. 6 ... ... : ... .. . ... ... : ... .. . ... ...
ROW CF : ... .. 6 ... ... ... : ... .. 6 ... ... ... : ... .. . ... : ... .. . ... : ... .. . ... ... : ... .. . ... ... : ... .. 5 P80 ... : ... .. . ... ...
ROW D0 : ... .. 3 ... ... ... : ... .. . ... ... ... : ... .. . ... : ... .. . ... : ... .. . ... ... : ... .. . ... ... : ... .. . ... ... : ... .. . ... ...
ROW D1 : ... .. 1 ... ... ... : ... .. . ... ... ... : ... .. . ... : ... .. . ... : ... .. . ... ... : ... .. 5 ... ... : ... .. . ... ... : ... .. . ... ...
ROW D2 : G-3 00 D ... ... ... : F-4 00 9 ... ... ... : ... .. . ... : ... .. . ... : ... .. . ... ... : G#2 01 9 ... ... : ... .. . P7F ... : ... .. . ... ...
ROW D3 : ... .. A ... ... ... : ... .. 8 ... ... ... : ... .. . ... : ... .. . ... : ... .. . ... ... : ... .. 8 ... ... : ... .. . ... ... : ... .. . ... ...
ROW D4 : ... .. 7 ... ... ... : ... .. 7 ... ... ... : ... .. . ... : ... .. . ... : ... .. . ... ... : ... .. 7 ... ... : ... .. . P80 ... : ... .. . ... ...
ROW D5 : ... .. 6 ... ... ... : ... .. 6 ... ... ... : ... .. . ... : ... .. . ... : ... .. . ... ... : ... .. 6 ... ... : ... .. 4 ... ... : ... .. . ... ...
ROW D6 : ... .. 3 ... ... ... : ... .. . ... ... ... : ... .. . ... : ... .. . ... : ... .. . ... ... : ... .. . ... ... : ... .. . P81 ... : ... .. . ... ...
ROW D7 : ... .. 1 ... ... ... : ... .. . ... ... ... : ... .. . ... : ... .. . ... : ... .. . ... ... : ... .. 5 ... ... : ... .. . ... ... : ... .. . ... ...
ROW D8 : G#2 00 D ... ... ... : E-4 00 9 ... ... ... : ... .. . ... : ... .. . ... : ... .. . ... ... : D#3 01 A ... ... : ... .. . P80 ... : ... .. . ... ...
ROW D9 : ... .. A ... ... ... : ... .. 8 ... ... ... : ... .. . ... : ... .. . ... : ... .. . ... ... : ... .. 9 ... ... : ... .. . ... ... : ... .. . ... ...
ROW DA : ... .. 7 ... ... ... : ... .. 7 ... ... ... : ... .. . ... : ... .. . ... : ... .. . ... ... : ... .. 8 ... ... : ... .. . ... ... : ... .. . ... ...
ROW DB : ... .. 6 ... ... ... : ... .. 6 ... ... ... : ... .. . ... : ... .. . ... : ... .. . ... ... : ... .. 6 ... ... : ... .. . P7F ... : ... .. . ... ...
ROW DC : ... .. 3 ... ... ... : ... .. . ... ... ... : ... .. . ... : ... .. . ... : ... .. . ... ... : ... .. . ... ... : ... .. . ... ... : ... .. . ... ...
ROW DD : ... .. 1 ... ... ... : ... .. . ... ... ... : ... .. . ... : ... .. . ... : ... .. . ... ... : ... .. 5 ... ... : ... .. . P80 ... : ... .. . ... ...
ROW DE : D#3 00 D ... ... ... : F-4 00 9 ... ... ... : ... .. . ... : ... .. . ... : ... .. . ... ... : D-3 01 9 ... ... : ... .. . ... ... : ... .. . ... ...
ROW DF : ... .. A ... ... ... : ... .. 8 ... ... ... : ... .. . ... : ... .. . ... : ... .. . ... ... : ... .. 8 ... ... : ... .. . P81 ... : ... .. . ... ...
ROW E0 : ... .. 7 ... ... ... : ... .. 7 ... ... ... : ... .. . ... : ... .. . ... : ... .. . ... ... : ... .. 7 ... ... : ... .. . ... ... : ... .. . ... ...
ROW E1 : ... .. 6 ... ... ... : ... .. 5 ... ... ... : ... .. . ... : ... .. . ... : ... .. . ... ... : ... .. 6 ... ... : ... .. . ... ... : ... .. . ... ...
ROW E2 : ... .. 3 ... ... ... : ... .. . ... ... ... : ... .. . ... : ... .. . ... : ... .. . ... ... : ... .. . ... ... : ... .. . P80 ... : ... .. . ... ...
ROW E3 : ... .. 1 ... ... ... : ... .. . ... ... ... : ... .. . ... : ... .. . ... : ... .. . ... ... : ... .. 5 ... ... : ... .. . ... ... : ... .. . ... ...
ROW E4 : D-3 00 D ... ... ... : F#4 00 8 ... ... ... : ... .. . ... : ... .. . ... : ... .. . ... ... : G#3 01 8 ... ... : ... .. . P7F ... : ... .. . ... ...
ROW E5 : ... .. A ... ... ... : ... .. 7 ... ... ... : ... .. . ... : ... .. . ... : ... .. . ... ... : ... .. 7 ... ... : ... .. . ... ... : ... .. . ... ...
ROW E6 : ... .. 7 ... ... ... : ... .. 6 ... ... ... : ... .. . ... : ... .. . ... : ... .. . ... ... : ... .. 6 ... ... : ... .. . P80 ... : ... .. . ... ...
ROW E7 : ... .. 6 ... ... ... : ... .. 5 ... ... ... : ... .. . ... : ... .. . ... : ... .. . ... ... : ... .. . ... ... : ... .. 3 ... ... : ... .. . ... ...
ROW E8 : ... .. 3 ... ... ... : ... .. . ... ... ... : ... .. . ... : ... .. . ... : ... .. . ... ... : ... .. . ... ... : ... .. . P81 ... : ... .. . ... ...
ROW E9 : ... .. 1 ... ... ... : ... .. . ... ... ... : ... .. . ... : ... .. . ... : ... .. . ... ... : ... .. 5 ... ... : ... .. . ... ... : ... .. . ... ...
ROW EA : G-3 00 D ... ... ... : G-4 00 8 ... ... ... : ... .. . ... : ... .. . ... : ... .. . ... ... : D#4 01 8 ... ... : ... .. . ... ... : ... .. . ... ...
ROW EB : ... .. A ... ... ... : ... .. 7 ... ... ... : ... .. . ... : ... .. . ... : ... .. . ... ... : ... .. 7 ... ... : ... .. . P80 ... : ... .. . ... ...
ROW EC : ... .. 7 ... ... ... : ... .. 6 ... ... ... : ... .. . ... : ... .. . ... : ... .. . ... ... : ... .. 6 ... ... : ... .. . ... ... : ... .. . ... ...
ROW ED : ... .. 6 ... ... ... : ... .. 4 ... ... ... : ... .. . ... : ... .. . ... : ... .. . ... ... : ... .. 5 ... ... : ... .. . P7F ... : ... .. . ... ...
ROW EE : ... .. 3 ... ... ... : ... .. . ... ... ... : ... .. . ... : ... .. . ... : ... .. . ... ... : ... .. . ... ... : ... .. . ... ... : ... .. . ... ...
ROW EF : ... .. 1 ... ... ... : ... .. . ... ... ... : ... .. . ... : ... .. . ... : ... .. . ... ... : ... .. 4 ... ... : ... .. . P80 ... : ... .. . ... ...
ROW F0 : F#3 00 D ... ... ... : G#4 00 7 ... ... ... : ... .. . ... : ... .. . ... : ... .. . ... ... : D-4 01 8 ... ... : ... .. . ... ... : ... .. . ... ...
ROW F1 : ... .. A ... ... ... : ... .. 6 ... ... ... : ... .. . ... : ... .. . ... : ... .. . ... ... : ... .. 7 ... ... : ... .. . ... ... : ... .. . ... ...
ROW F2 : ... .. 7 ... ... ... : ... .. . ... ... ... : ... .. . ... : ... .. . ... : ... .. . ... ... : ... .. 6 ... ... : ... .. . P81 ... : ... .. . ... ...
ROW F3 : ... .. 6 ... ... ... : ... .. 4 ... ... ... : ... .. . ... : ... .. . ... : ... .. . ... ... : ... .. 5 ... ... : ... .. 2 ... ... : ... .. . ... ...
ROW F4 : ... .. 3 ... ... ... : ... .. . ... ... ... : ... .. . ... : ... .. . ... : ... .. . ... ... : ... .. . ... ... : ... .. . P80 ... : ... .. . ... ...
ROW F5 : ... .. 1 ... ... ... : ... .. . ... ... ... : ... .. . ... : ... .. . ... : ... .. . ... ... : ... .. 4 ... ... : ... .. . ... ... : ... .. . ... ...
ROW F6 : B-3 00 D ... ... ... : A-4 00 7 ... ... ... : G#3 00 . ... : ... .. . ... : ... .. . ... ... : G#4 01 8 ... ... : ... .. . P7F ... : ... .. . ... ...
ROW F7 : ... .. A ... ... ... : ... .. 6 ... ... ... : ... .. . ... : ... .. . ... : ... .. . ... ... : ... .. 7 ... ... : ... .. . ... ... : ... .. . ... ...
ROW F8 : ... .. 7 ... ... ... : ... .. . ... ... ... : ... .. . ... : ... .. . ... : ... .. . ... ... : ... .. 6 ... ... : ... .. . P80 ... : ... .. . ... ...
ROW F9 : ... .. 6 ... ... ... : ... .. 4 ... ... ... : ... .. . ... : ... .. . ... : ... .. . ... ... : ... .. 5 ... ... : ... .. . ... ... : ... .. . ... ...
ROW FA : ... .. 3 ... ... ... : ... .. . ... ... ... : ... .. . ... : ... .. . ... : ... .. . ... ... : ... .. . ... ... : ... .. . ... ... : ... .. . ... ...
ROW FB : ... .. 1 ... ... ... : ... .. . ... ... ... : ... .. . ... : ... .. . ... : ... .. . ... ... : ... .. 4 ... ... : ... .. . P81 ... : ... .. . ... ...
ROW FC : D-4 00 D ... ... ... : A#4 00 6 ... ... ... : A#3 00 . ... : ... .. . ... : ... .. . ... ... : ... .. 8 ... ... : ... .. . ... ... : A#3 01 F ... ...
ROW FD : ... .. A ... ... ... : ... .. 5 ... ... ... : ... .. . ... : ... .. . ... : ... .. . ... ... : ... .. 7 ... ... : ... .. . P80 ... : ... .. D ... ...
ROW FE : ... .. 7 ... ... ... : ... .. . ... ... ... : ... .. . ... : ... .. . ... : ... .. . ... ... : ... .. 6 ... ... : ... .. . ... ... : ... .. 8 ... ...
ROW FF : ... .. 6 ... ... ... : ... .. 4 ... ... ... : ... .. . ... : ... .. . ... : ... .. . ... ... : A#4 01 8 ... ... : ... .. . P7F ... : ... .. . ... ...

PATTERN 01
ROW 00 : ... .. 3 ... ... ... : ... .. . ... ... ... : ... .. . ... : ... .. . ... : ... .. . ... ... : ... .. 7 ... ... : ... .. . ... ... : ... .. . ... ...
ROW 01 : ... .. 1 ... ... ... : ... .. . ... ... ... : ... .. . ... : ... .. . ... : ... .. . ... ... : ... .. 6 ... ... : ... .. . ... ... : ... .. . ... ...
ROW 02 : A-3 00 D ... ... ... : B-4 00 6 ... ... ... : B-3 00 . ... : ... .. . ... : ... .. . ... ... : B-4 01 8 ... ... : ... .. . P80 ... : B-3 01 F ... ...
ROW 03 : ... .. A ... ... ... : ... .. 5 ... ... ... : ... .. . ... : ... .. . ... : ... .. . ... ... : ... .. 7 ... ... : ... .. . ... ... : ... .. D ... ...
ROW 04 : ... .. 7 ... ... ... : ... .. . ... ... ... : ... .. . ... : ... .. . ... : ... .. . ... ... : ... .. 6 ... ... : ... .. . P81 ... : ... .. 8 ... ...
ROW 05 : ... .. 6 ... ... ... : ... .. 4 ... ... ... : ... .. . ... : ... .. . ... : ... .. . ... ... : A#4 01 8 ... ... : ... .. 1 ... ... : ... .. . ... ...
ROW 06 : ... .. 3 ... ... ... : ... .. . ... ... ... : ... .. . ... : ... .. . ... : ... .. . ... ... : ... .. 7 ... ... : ... .. . P80 ... : ... .. . ... ...
ROW 07 : ... .. 1 ... ... ... : ... .. . ... ... ... : ... .. . ... : ... .. . ... : ... .. . ... ... : ... .. 6 ... ... : ... .. . ... ... : ... .. . ... ...
ROW 08 : D-3 00 D ... ... ... : C-5 00 5 ... ... ... : C#4 00 . ... : ... .. . ... : ... .. . ... ... : B-4 01 8 ... ... : ... .. . P7F ... : C#4 01 F ... ...
ROW 09 : ... .. A ... ... ... : ... .. 4 ... ... ... : ... .. . ... : ... .. . ... : ... .. . ... ... : ... .. 7 ... ... : ... .. . ... ... : ... .. D ... ...
ROW 0A : ... .. 7 ... ... ... : ... .. . ... ... ... : ... .. . ... : ... .. . ... : ... .. . ... ... : ... .. 6 ... ... : ... .. . ... ... : ... .. 8 ... ...
ROW 0B : ... .. 6 ... ... ... : ... .. 3 ... ... ... : ... .. . ... : ... .. . ... : ... .. . ... ... : C#5 01 8 ... ... : ... .. . P80 ... : ... .. . ... ...
ROW 0C : ... .. 3 ... ... ... : ... .. . ... ... ... : ... .. . ... : ... .. . ... : ... .. . ... ... : ... .. 7 ... ... : ... .. . ... ... : ... .. . ... ...
ROW 0D : ... .. 1 ... ... ... : ... .. . ... ... ... : ... .. . ... : ... .. . ... : ... .. . ... ... : ... .. 6 ... ... : ... .. . P81 ... : ... .. . ... ...
ROW 0E : F-4 00 D ... ... ... : C#5 00 5 ... ... ... : B-3 00 . ... : ... .. . ... : ... .. . ... ... : D#5 01 8 ... ... : ... .. . ... ... : B-3 01 F ... ...
ROW 0F : ... .. A ... ... ... : ... .. 4 ... ... ... : ... .. . ... : ... .. . ... : ... .. . ... ... : ... .. 7 ... ... : ... .. . P80 ... : ... .. D ... ...
ROW 10 : ... .. 7 ... ... ... : ... .. . ... ... ... : ... .. . ... : ... .. . ... : ... .. . ... ... : ... .. 6 ... ... : ... .. . ... ... : ... .. 8 ... ...
ROW 11 : ... .. 6 ... ... ... : ... .. 3 ... ... ... : ... .. . ... : ... .. . ... : ... .. . ... ... : E-5 01 8 ... ... : ... .. . ... ... : ... .. . ... ...
ROW 12 : ... .. 3 ... ... ... : ... .. . ... ... ... : ... .. . ... : ... .. . ... : ... .. . ... ... : ... .. 7 ... ... : ... .. . P7F ... : ... .. . ... ...
ROW 13 : ... .. 1 ... ... ... : ... .. . ... ... ... : ... .. . ... : ... .. . ... : ... .. . ... ... : ... .. 6 ... ... : ... .. . ... ... : ... .. . ... ...
ROW 14 : C-4 00 D ... ... ... : D-5 00 4 ... ... ... : C#4 00 . ... : ... .. . ... : ... .. . ... ... : F#5 01 8 ... ... : ... .. . P80 ... : C#4 01 F ... ...
ROW 15 : ... .. A ... ... ... : ... .. 3 ... ... ... : ... .. . ... : ... .. . ... : ... .. . ... ... : ... .. 7 ... ... : ... .. . ... ... : ... .. D ... ...
ROW 16 : ... .. 7 ... ... ... : ... .. . ... ... ... : ... .. . ... : ... .. . ... : ... .. . ... ... : ... .. 6 ... ... : ... .. . P81 ... : ... .. 8 ... ...
ROW 17 : ... .. 6 ... ... ... : ... .. 2 ... ... ... : ... .. . ... : ... .. . ... : ... .. . ... ... : G#5 01 8 ... ... : ... .. . ... ... : ... .. . ... ...
ROW 18 : ... .. 3 ... ... ... : ... .. . ... ... ... : ... .. . ... : ... .. . ... : ... .. . ... ... : ... .. 7 ... ... : ... .. . P80 ... : ... .. . ... ...
ROW 19 : ... .. 1 ... ... ... : ... .. . ... ... ... : ... .. . ... : ... .. . ... : ... .. . ... ... : ... .. 6 ... ... : ... .. . ... ... : ... .. . ... ...
ROW 1A : F-3 00 D ... ... ... : D#5 00 4 ... ... ... : D#4 00 . ... : ... .. . ... : ... .. . ... ... : A#5 01 8 ... ... : ... .. . ... ... : D#4 01 F ... ...
ROW 1B : ... .. A ... ... ... : ... .. 3 ... ... ... : ... .. . ... : ... .. . ... : ... .. . ... ... : ... .. 7 ... ... : ... .. . P7F ... : ... .. D ... ...
ROW 1C : ... .. 7 ... ... ... : ... .. . ... ... ... : ... .. . ... : ... .. . ... : ... .. . ... ... : ... .. 6 ... ... : ... .. . ... ... : ... .. 8 ... ...
ROW 1D : ... .. 6 ... ... ... : ... .. 2 ... ... ... : ... .. . ... : ... .. . ... : ... .. . ... ... : B-5 01 8 ... ... : --- .. . ... ... : ... .. . ... ...
ROW 1E : ... .. 3 ... ... ... : ... .. . ... ... ... : ... .. . ... : ... .. . ... : ... .. . ... ... : ... .. 7 ... ... : ... .. . ... ... : ... .. . ... ...
ROW 1F : ... .. 1 ... ... ... : ... .. . ... ... ... : ... .. . ... : ... .. . ... : ... .. . ... ... : ... .. 6 ... ... : ... .. . ... ... : ... .. . ... ...
ROW 20 : E-1 00 F ... ... ... : E-5 00 F ... ... ... : D#6 00 . ... : 9-# 00 D ... : ... .. . ... ... : B-2 01 A ... ... : ... .. . ... ... : G-3 01 F ... ...
ROW 21 : ... .. E ... ... ... : ... .. E ... ... ... : F-5 00 . ... : ... .. B ... : ... .. . ... ... : ... .. 9 ... ... : ... .. . ... ... : ... .. D ... ...
ROW 22 : ... .. D ... ... ... : ... .. D ... ... ... : A#4 00 . ... : ... .. . ... : ... .. . ... ... : ... .. 8 ... ... : ... .. . ... ... : ... .. 8 ... ...
ROW 23 : ... .. A ... ... ... : ... .. A ... ... ... : A-4 00 . ... : ... .. A ... : ... .. . ... ... : ... .. 7 ... ... : ... .. . ... ... : ... .. . ... ...
ROW 24 : ... .. . ... ... ... : ... .. . ... ... ... : E-4 00 . ... : ... .. 8 ... : ... .. . ... ... : ... .. . ... ... : ... .. . ... ... : ... .. . ... ...
ROW 25 : ... .. . ... ... ... : ... .. . ... ... ... : ... .. . ... : ... .. 7 ... : ... .. . ... ... : ... .. 6 ... ... : ... .. . ... ... : ... .. . ... ...
ROW 26 : E-2 00 F ... ... ... : E-4 00 A ... ... ... : ... .. . ... : ... .. 6 ... : ... .. . ... ... : ... .. 5 ... ... : ... .. . ... ... : ... .. . ... ...
ROW 27 : ... .. E ... ... ... : ... .. 9 ... ... ... : ... .. . ... : ... .. . ... : ... .. . ... ... : ... .. . ... ... : ... .. . ... ... : ... .. 4 ... ...
ROW 28 : ... .. D ... ... ... : ... .. 8 ... ... ... : ... .. . ... : ... .. 5 ... : ... .. . ... ... : ... .. 3 ... ... : ... .. . ... ... : ... .. . ... ...
ROW 29 : ... .. A ... ... ... : ... .. 6 ... ... ... : C#4 00 . ... : ... .. . ... : ... .. . ... ... : ... .. . ... ... : ... .. . ... ... : ... .. 1 ... ...
ROW 2A : ... .. 2 ... ... ... : ... .. 1 ... ... ... : A#3 00 . P86 : ... .. 4 ... : ... .. . ... ... : ... .. . ... ... : ... .. . ... ... : ... .. . ... ...
ROW 2B : ... .. . ... ... ... : ... .. . ... ... ... : G#3 00 . P83 : ... .. . ... : ... .. . ... ... : ... .. . ... ... : ... .. . ... ... : ... .. . ... ...
ROW 2C : G-2 00 F ... ... ... : ... .. A ... ... ... : F#3 00 . P84 : C-# 00 8 ... : ... .. . ... ... : ... .. . ... ... : ... .. . ... ... : ... .. . ... ...
ROW 2D : ... .. E ... ... ... : ... .. 9 ... ... ... : E-3 00 . P89 : ... .. 6 ... : ... .. . ... ... : ... .. . ... ... : ... .. . ... ... : ... .. . ... ...
ROW 2E : ... .. D ... ... ... : ... .. 8 ... ... ... : D#3 00 . P7E : ... .. 3 ... : ... .. . ... ... : ... .. . ... ... : ... .. . ... ... : ... .. . ... ...
ROW 2F : ... .. A ... ... ... : ... .. 6 ... ... ... : --- .. . ... : ... .. 1 ... : ... .. . ... ... : ... .. . ... ... : ... .. . ... ... : ... .. . ... ...
ROW 30 : ... .. 2 ... ... ... : ... .. 1 ... ... ... : ... .. . ... : ... .. . ... : ... .. . ... ... : ... .. . ... ... : ... .. . ... ... : ... .. 0 ... ...
ROW 31 : ... .. . ... ... ... : ... .. . ... ... ... : ... .. . ... : ... .. 0 ... : ... .. . ... ... : ... .. . ... ... : ... .. . ... ... : ... .. . ... ...
ROW 32 : B-2 00 F ... ... ... : E-5 00 F ... ... ... : D#5 00 . P80 : 9-# 00 D ... : ... .. . ... ... : ... .. A ... ... : ... .. . ... ... : ... .. F ... ...
ROW 33 : ... .. E ... ... ... : ... .. E ... ... ... : F-4 00 . ... : ... .. B ... : ... .. . ... ... : ... .. 9 ... ... : ... .. . ... ... : ... .. D ... ...
ROW 34 : ... .. D ... ... ... : ... .. D ... ... ... : A#3 00 . ... : ... .. . ... : ... .. . ... ... : ... .. 8 ... ... : ... .. . ... ... : ... .. 8 ... ...
ROW 35 : ... .. A ... ... ... : ... .. A ... ... ... : A-3 00 . ... : ... .. A ... : ... .. . ... ... : ... .. 7 ... ... : ... .. . ... ... : ... .. . ... ...
ROW 36 : ... .. . ... ... ... : ... .. . ... ... ... : E-3 00 . ... : ... .. 8 ... : ... .. . ... ... : ... .. . ... ... : ... .. . ... ... : ... .. . ... ...
ROW 37 : ... .. . ... ... ... : ... .. . ... ... ... : ... .. . ... : ... .. 7 ... : ... .. . ... ... : ... .. 6 ... ... : ... .. . ... ... : ... .. . ... ...
ROW 38 : E-3 00 F ... ... ... : E-4 00 A ... ... ... : ... .. . ... : ... .. 6 ... : ... .. . ... ... : ... .. 5 ... ... : ... .. . ... ... : ... .. . ... ...
ROW 39 : ... .. E ... ... ... : ... .. 9 ... ... ... : ... .. . ... : ... .. . ... : ... .. . ... ... : ... .. . ... ... : ... .. . ... ... : ... .. 4 ... ...
ROW 3A : ... .. D ... ... ... : ... .. 8 ... ... ... : ... .. . ... : ... .. 5 ... : ... .. . ... ... : ... .. 3 ... ... : ... .. . ... ... : ... .. . ... ...
ROW 3B : ... .. A ... ... ... : ... .. 6 ... ... ... : ... .. . ... : ... .. . ... : ... .. . ... ... : ... .. . ... ... : ... .. . ... ... : ... .. 1 ... ...
ROW 3C : ... .. 2 ... ... ... : ... .. 1 ... ... ... : ... .. . ... : ... .. 4 ... : ... .. . ... ... : ... .. . ... ... : ... .. . ... ... : ... .. . ... ...
ROW 3D : ... .. . ... ... ... : ... .. . ... ... ... : ... .. . ... : ... .. . ... : ... .. . ... ... : ... .. . ... ... : ... .. . ... ... : ... .. . ... ...
ROW 3E : G-3 00 F ... ... ... : ... .. A ... ... ... : D-3 00 . P7A : C-# 00 8 ... : ... .. . ... ... : ... .. . ... ... : ... .. . ... ... : ... .. . ... ...
ROW 3F : ... .. E ... ... ... : ... .. 9 ... ... ... : C-3 00 . P79 : ... .. 6 ... : ... .. . ... ... : ... .. . ... ... : ... .. . ... ... : ... .. . ... ...
ROW 40 : ... .. D ... ... ... : ... .. 8 ... ... ... : A#2 00 . P7D : ... .. 3 ... : ... .. . ... ... : ... .. . ... ... : ... .. . ... ... : ... .. . ... ...
ROW 41 : ... .. A ... ... ... : ... .. 6 ... ... ... : --- .. . ... : ... .. 1 ... : ... .. . ... ... : ... .. . ... ... : ... .. . ... ... : ... .. . ... ...
ROW 42 : ... .. 2 ... ... ... : ... .. 1 ... ... ... : ... .. . ... : ... .. . ... : ... .. . ... ... : ... .. . ... ... : ... .. . ... ... : ... .. 0 ... ...
ROW 43 : ... .. . ... ... ... : ... .. . ... ... ... : ... .. . ... : ... .. 0 ... : ... .. . ... ... : ... .. . ... ... : ... .. . ... ... : ... .. . ... ...
ROW 44 : A#1 00 F ... ... ... : D-5 00 F ... ... ... : C#5 00 . P80 : 8-# 00 D ... : ... .. . ... ... : ... .. A ... ... : ... .. . ... ... : ... .. F ... ...
ROW 45 : ... .. E ... ... ... : ... .. E ... ... ... : D#4 00 . ... : ... .. B ... : ... .. . ... ... : ... .. 9 ... ... : ... .. . ... ... : ... .. D ... ...
ROW 46 : ... .. D ... ... ... : ... .. D ... ... ... : G#3 00 . ... : ... .. . ... : ... .. . ... ... : ... .. 8 ... ... : ... .. . ... ... : ... .. 8 ... ...
ROW 47 : ... .. A ... ... ... : ... .. A ... ... ... : G-3 00 . ... : ... .. A ... : ... .. . ... ... : ... .. 7 ... ... : ... .. . ... ... : ... .. . ... ...
ROW 48 : ... .. . ... ... ... : ... .. . ... ... ... : D-3 00 . ... : ... .. 8 ... : ... .. . ... ... : ... .. . ... ... : ... .. . ... ... : ... .. . ... ...
ROW 49 : ... .. . ... ... ... : ... .. . ... ... ... : ... .. . ... : ... .. 7 ... : ... .. . ... ... : ... .. 6 ... ... : ... .. . ... ... : ... .. . ... ...
ROW 4A : D-2 00 F ... ... ... : D-4 00 A ... ... ... : C#3 00 . P77 : ... .. 6 ... : ... .. . ... ... : ... .. 5 ... ... : ... .. . ... ... : ... .. . ... ...
ROW 4B : ... .. E ... ... ... : ... .. 9 ... ... ... : B-2 00 . P88 : ... .. . ... : ... .. . ... ... : ... .. . ... ... : ... .. . ... ... : ... .. 4 ... ...
ROW 4C : ... .. D ... ... ... : ... .. 8 ... ... ... : A#2 00 . P83 : ... .. 5 ... : ... .. . ... ... : ... .. 3 ... ... : ... .. . ... ... : ... .. . ... ...
ROW 4D : ... .. A ... ... ... : ... .. 6 ... ... ... : A-2 00 . P7F : ... .. . ... : ... .. . ... ... : ... .. . ... ... : ... .. . ... ... : ... .. 1 ... ...
ROW 4E : ... .. 2 ... ... ... : ... .. 1 ... ... ... : G#2 00 . P7E : ... .. 4 ... : ... .. . ... ... : ... .. . ... ... : ... .. . ... ... : ... .. . ... ...
ROW 4F : ... .. . ... ... ... : ... .. . ... ... ... : G-2 00 . ... : ... .. . ... : ... .. . ... ... : ... .. . ... ... : ... .. . ... ... : ... .. . ... ...
ROW 50 : G-2 00 F ... ... ... : ... .. A ... ... ... : A-4 00 . P80 : ... .. D ... : ... .. . ... ... : ... .. A ... ... : ... .. . ... ... : ... .. F ... ...
ROW 51 : ... .. E ... ... ... : ... .. 9 ... ... ... : B-3 00 . ... : ... .. B ... : ... .. . ... ... : ... .. 9 ... ... : ... .. . ... ... : ... .. D ... ...
ROW 52 : ... .. D ... ... ... : ... .. 8 ... ... ... : E-3 00 . ... : ... .. . ... : ... .. . ... ... : ... .. 8 ... ... : ... .. . ... ... : ... .. 8 ... ...
ROW 53 : ... .. A ... ... ... : ... .. 6 ... ... ... : D#3 00 . ... : ... .. A ... : ... .. . ... ... : ... .. 7 ... ... : ... .. . ... ... : ... .. . ... ...
ROW 54 : ... .. . ... ... ... : ... .. . ... ... ... : A#2 00 . ... : ... .. 8 ... : ... .. . ... ... : ... .. . ... ... : ... .. . ... ... : ... .. . ... ...
ROW 55 : ... .. . ... ... ... : ... .. . ... ... ... : ... .. . ... : ... .. 7 ... : ... .. . ... ... : ... .. 6 ... ... : ... .. . ... ... : ... .. . ... ...
ROW 56 : A#2 00 F ... ... ... : D-3 00 F ... ... ... : ... .. . ... : ... .. 6 ... : ... .. . ... ... : ... .. 5 ... ... : ... .. . ... ... : ... .. . ... ...
ROW 57 : ... .. E ... ... ... : ... .. E ... ... ... : ... .. . ... : ... .. . ... : ... .. . ... ... : ... .. . ... ... : ... .. . ... ... : ... .. 4 ... ...
ROW 58 : ... .. D ... ... ... : ... .. D ... ... ... : ... .. . ... : ... .. 5 ... : ... .. . ... ... : ... .. 3 ... ... : ... .. . ... ... : ... .. . ... ...
ROW 59 : ... .. A ... ... ... : ... .. A ... ... ... : A-2 00 . P7C : ... .. . ... : ... .. . ... ... : ... .. . ... ... : ... .. . ... ... : ... .. 1 ... ...
ROW 5A : ... .. 2 ... ... ... : ... .. 2 ... ... ... : G#2 00 . P7B : ... .. 4 ... : ... .. . ... ... : ... .. . ... ... : ... .. . ... ... : ... .. . ... ...
ROW 5B : ... .. . ... ... ... : ... .. . ... ... ... : G-2 00 . ... : ... .. . ... : ... .. . ... ... : ... .. . ... ... : ... .. . ... ... : ... .. . ... ...
ROW 5C : D-3 00 F ... ... ... : ... .. F ... ... ... : F#4 00 . P80 : ... .. D ... : ... .. . ... ... : ... .. A ... ... : ... .. . ... ... : ... .. F ... ...
ROW 5D : ... .. E ... ... ... : ... .. E ... ... ... : G#3 00 . ... : ... .. B ... : ... .. . ... ... : ... .. 9 ... ... : ... .. . ... ... : ... .. D ... ...
ROW 5E : ... .. D ... ... ... : ... .. D ... ... ... : C#3 00 . ... : ... .. . ... : ... .. . ... ... : ... .. 8 ... ... : ... .. . ... ... : ... .. 8 ... ...
ROW 5F : ... .. A ... ... ... : ... .. A ... ... ... : C-3 00 . ... : ... .. A ... : ... .. . ... ... : ... .. 7 ... ... : ... .. . ... ... : ... .. . ... ...
ROW 60 : ... .. . ... ... ... : ... .. . ... ... ... : G-2 00 . ... : ... .. 8 ... : ... .. . ... ... : ... .. . ... ... : ... .. . ... ... : ... .. . ... ...
ROW 61 : ... .. . ... ... ... : ... .. . ... ... ... : ... .. . ... : ... .. 7 ... : ... .. . ... ... : ... .. 6 ... ... : ... .. . ... ... : ... .. . ... ...
ROW 62 : G-3 00 F ... ... ... : D-2 00 A ... ... ... : ... .. . ... : ... .. 6 ... : ... .. . ... ... : ... .. 5 ... ... : ... .. . ... ... : ... .. . ... ...
ROW 63 : ... .. E ... ... ... : ... .. 9 ... ... ... : ... .. . ... : ... .. . ... : ... .. . ... ... : ... .. . ... ... : ... .. . ... ... : ... .. 4 ... ...
ROW 64 : ... .. D ... ... ... : ... .. 8 ... ... ... : ... .. . ... : ... .. 5 ... : ... .. . ... ... : ... .. 3 ... ... : ... .. . ... ... : ... .. . ... ...
ROW 65 : ... .. A ... ... ... : ... .. 6 ... ... ... : F#2 00 . P82 : ... .. . ... : ... .. . ... ... : ... .. . ... ... : ... .. . ... ... : ... .. 1 ... ...
ROW 66 : ... .. 2 ... ... ... : ... .. 1 ... ... ... : F-2 00 . P86 : ... .. 4 ... : ... .. . ... ... : ... .. . ... ... : ... .. . ... ... : ... .. . ... ...
ROW 67 : ... .. . ... ... ... : ... .. . ... ... ... : E-2 00 . P8C : ... .. . ... : ... .. . ... ... : ... .. . ... ... : ... .. . ... ... : ... .. . ... ...
ROW 68 : B-1 00 F ... ... ... : E-5 00 F ... ... ... : D#4 00 . P80 : 9-# 00 D ... : ... .. . ... ... : B-3 01 A ... ... : ... .. . ... ... : G-4 01 F ... ...
ROW 69 : ... .. E ... ... ... : ... .. E ... ... ... : F-3 00 . ... : ... .. B ... : ... .. . ... ... : ... .. 9 ... ... : ... .. . ... ... : ... .. D ... ...
ROW 6A : ... .. D ... ... ... : ... .. D ... ... ... : A#2 00 . ... : ... .. . ... : ... .. . ... ... : ... .. 8 ... ... : ... .. . ... ... : ... .. 8 ... ...
ROW 6B : ... .. A ... ... ... : ... .. A ... ... ... : A-2 00 . ... : ... .. A ... : ... .. . ... ... : ... .. 7 ... ... : ... .. . ... ... : ... .. . ... ...
ROW 6C : ... .. . ... ... ... : ... .. . ... ... ... : E-2 00 . ... : ... .. 8 ... : ... .. . ... ... : ... .. . ... ... : ... .. . ... ... : ... .. . ... ...
ROW 6D : ... .. . ... ... ... : ... .. . ... ... ... : ... .. . ... : ... .. 7 ... : ... .. . ... ... : ... .. 6 ... ... : ... .. . ... ... : ... .. . ... ...
ROW 6E : G-2 00 F ... ... ... : E-4 00 A ... ... ... : ... .. . ... : ... .. 6 ... : ... .. . ... ... : ... .. 5 ... ... : ... .. . ... ... : ... .. . ... ...
ROW 6F : ... .. E ... ... ... : ... .. 9 ... ... ... : ... .. . ... : ... .. . ... : ... .. . ... ... : ... .. . ... ... : ... .. . ... ... : ... .. 4 ... ...
ROW 70 : ... .. D ... ... ... : ... .. 8 ... ... ... : ... .. . ... : ... .. 5 ... : ... .. . ... ... : ... .. 3 ... ... : ... .. . ... ... : ... .. . ... ...
ROW 71 : ... .. A ... ... ... : ... .. 6 ... ... ... : ... .. . ... : ... .. . ... : ... .. . ... ... : ... .. . ... ... : ... .. . ... ... : ... .. 1 ... ...
ROW 72 : ... .. 2 ... ... ... : ... .. 1 ... ... ... : ... .. . ... : ... .. 4 ... : ... .. . ... ... : ... .. . ... ... : ... .. . ... ... : ... .. . ... ...
ROW 73 : ... .. . ... ... ... : ... .. . ... ... ... : ... .. . ... : ... .. . ... : ... .. . ... ... : ... .. . ... ... : ... .. . ... ... : ... .. . ... ...
ROW 74 : B-2 00 F ... ... ... : ... .. A ... ... ... : --- .. . ... : C-# 00 8 ... : ... .. . ... ... : ... .. . ... ... : ... .. . ... ... : ... .. . ... ...
ROW 75 : ... .. E ... ... ... : ... .. 9 ... ... ... : ... .. . ... : ... .. 6 ... : ... .. . ... ... : ... .. . ... ... : ... .. . ... ... : ... .. . ... ...
ROW 76 : ... .. D ... ... ... : ... .. 8 ... ... ... : ... .. . ... : ... .. 3 ... : ... .. . ... ... : ... .. . ... ... : ... .. . ... ... : ... .. . ... ...
ROW 77 : ... .. A ... ... ... : ... .. 6 ... ... ... : ... .. . ... : ... .. 1 ... : ... .. . ... ... : ... .. . ... ... : ... .. . ... ... : ... .. . ... ...
ROW 78 : ... .. 2 ... ... ... : ... .. 1 ... ... ... : ... .. . ... : ... .. . ... : ... .. . ... ... : ... .. . ... ... : ... .. . ... ... : ... .. 0 ... ...
ROW 79 : ... .. . ... ... ... : ... .. . ... ... ... : ... .. . ... : ... .. 0 ... : ... .. . ... ... : ... .. . ... ... : ... .. . ... ... : ... .. . ... ...
ROW 7A : E-3 00 F ... ... ... : E-5 00 F ... ... ... : D#4 00 . ... : 9-# 00 D ... : ... .. . ... ... : ... .. A ... ... : ... .. . ... ... : ... .. F ... ...
ROW 7B : ... .. E ... ... ... : ... .. E ... ... ... : F-3 00 . ... : ... .. B ... : ... .. . ... ... : ... .. 9 ... ... : ... .. . ... ... : ... .. D ... ...
ROW 7C : ... .. D ... ... ... : ... .. D ... ... ... : A#2 00 . ... : ... .. . ... : ... .. . ... ... : ... .. 8 ... ... : ... .. . ... ... : ... .. 8 ... ...
ROW 7D : ... .. A ... ... ... : ... .. A ... ... ... : A-2 00 . ... : ... .. A ... : ... .. . ... ... : ... .. 7 ... ... : ... .. . ... ... : ... .. . ... ...
ROW 7E : ... .. . ... ... ... : ... .. . ... ... ... : E-2 00 . ... : ... .. 8 ... : ... .. . ... ... : ... .. . ... ... : ... .. . ... ... : ... .. . ... ...
ROW 7F : ... .. . ... ... ... : ... .. . ... ... ... : ... .. . ... : ... .. 7 ... : ... .. . ... ... : ... .. 6 ... ... : ... .. . ... ... : ... .. . ... ...
ROW 80 : G-3 00 F ... ... ... : E-4 00 A ... ... ... : ... .. . ... : ... .. 6 ... : ... .. . ... ... : ... .. 5 ... ... : ... .. . ... ... : ... .. . ... ...
ROW 81 : ... .. E ... ... ... : ... .. 9 ... ... ... : ... .. . ... : ... .. . ... : ... .. . ... ... : ... .. . ... ... : ... .. . ... ... : ... .. 4 ... ...
ROW 82 : ... .. D ... ... ... : ... .. 8 ... ... ... : ... .. . ... : ... .. 5 ... : ... .. . ... ... : ... .. 3 ... ... : ... .. . ... ... : ... .. . ... ...
ROW 83 : ... .. A ... ... ... : ... .. 6 ... ... ... : ... .. . ... : ... .. . ... : ... .. . ... ... : ... .. . ... ... : ... .. . ... ... : ... .. 1 ... ...
ROW 84 : ... .. 2 ... ... ... : ... .. 1 ... ... ... : ... .. . ... : ... .. 4 ... : ... .. . ... ... : ... .. . ... ... : ... .. . ... ... : ... .. . ... ...
ROW 85 : ... .. . ... ... ... : ... .. . ... ... ... : ... .. . ... : ... .. . ... : ... .. . ... ... : ... .. . ... ... : ... .. . ... ... : ... .. . ... ...
ROW 86 : B-3 00 F ... ... ... : ... .. A ... ... ... : ... .. . ... : C-# 00 8 ... : ... .. . ... ... : ... .. . ... ... : ... .. . ... ... : ... .. . ... ...
ROW 87 : ... .. E ... ... ... : ... .. 9 ... ... ... : ... .. . ... : ... .. 6 ... : ... .. . ... ... : ... .. . ... ... : ... .. . ... ... : ... .. . ... ...
ROW 88 : ... .. D ... ... ... : ... .. 8 ... ... ... : ... .. . ... : ... .. 3 ... : ... .. . ... ... : ... .. . ... ... : ... .. . ... ... : ... .. . ... ...
ROW 89 : ... .. A ... ... ... : ... .. 6 ... ... ... : --- .. . ... : ... .. 1 ... : ... .. . ... ... : ... .. . ... ... : ... .. . ... ... : ... .. . ... ...
ROW 8A : ... .. 2 ... ... ... : ... .. 1 ... ... ... : ... .. . ... : ... .. . ... : ... .. . ... ... : ... .. . ... ... : ... .. . ... ... : ... .. 0 ... ...
ROW 8B : ... .. . ... ... ... : ... .. . ... ... ... : ... .. . ... : ... .. 0 ... : ... .. . ... ... : ... .. . ... ... : ... .. . ... ... : ... .. . ... ...
ROW 8C : D-2 00 F ... ... ... : D-5 00 F ... ... ... : C#4 00 . ... : 8-# 00 D ... : ... .. . ... ... : A#3 01 A ... ... : ... .. . ... ... : ... .. F ... ...
ROW 8D : ... .. E ... ... ... : ... .. E ... ... ... : D#3 00 . ... : ... .. B ... : ... .. . ... ... : ... .. 9 ... ... : ... .. . ... ... : ... .. D ... ...
ROW 8E : ... .. D ... ... ... : ... .. D ... ... ... : G#2 00 . ... : ... .. . ... : ... .. . ... ... : ... .. 8 ... ... : ... .. . ... ... : ... .. 8 ... ...
ROW 8F : ... .. A ... ... ... : ... .. A ... ... ... : G-2 00 . ... : ... .. A ... : ... .. . ... ... : ... .. 7 ... ... : ... .. . ... ... : ... .. . ... ...
ROW 90 : ... .. . ... ... ... : ... .. . ... ... ... : D-2 00 . ... : ... .. 8 ... : ... .. . ... ... : ... .. . ... ... : ... .. . ... ... : ... .. . ... ...
ROW 91 : ... .. . ... ... ... : ... .. . ... ... ... : ... .. . ... : ... .. 7 ... : ... .. . ... ... : ... .. 6 ... ... : ... .. . ... ... : ... .. . ... ...
ROW 92 : G-2 00 F ... ... ... : D-4 00 A ... ... ... : ... .. . ... : ... .. 6 ... : ... .. . ... ... : ... .. 5 ... ... : ... .. . ... ... : ... .. . ... ...
ROW 93 : ... .. E ... ... ... : ... .. 9 ... ... ... : ... .. . ... : ... .. . ... : ... .. . ... ... : ... .. . ... ... : ... .. . ... ... : ... .. 4 ... ...
ROW 94 : ... .. D ... ... ... : ... .. 8 ... ... ... : ... .. . ... : ... .. 5 ... : ... .. . ... ... : ... .. 3 ... ... : ... .. . ... ... : ... .. . ... ...
ROW 95 : ... .. A ... ... ... : ... .. 6 ... ... ... : --- .. . ... : ... .. . ... : ... .. . ... ... : ... .. . ... ... : ... .. . ... ... : ... .. 1 ... ...
ROW 96 : ... .. 2 ... ... ... : ... .. 1 ... ... ... : ... .. . ... : ... .. 4 ... : ... .. . ... ... : ... .. . ... ... : ... .. . ... ... : ... .. . ... ...
ROW 97 : ... .. . ... ... ... : ... .. . ... ... ... : ... .. . ... : ... .. . ... : ... .. . ... ... : ... .. . ... ... : ... .. . ... ... : ... .. . ... ...
ROW 98 : A#2 00 F ... ... ... : ... .. A ... ... ... : C#4 00 . ... : ... .. D ... : ... .. . ... ... : ... .. A ... ... : ... .. . ... ... : ... .. F ... ...
ROW 99 : ... .. E ... ... ... : ... .. 9 ... ... ... : D#3 00 . ... : ... .. B ... : ... .. . ... ... : ... .. 9 ... ... : ... .. . ... ... : ... .. D ... ...
ROW 9A : ... .. D ... ... ... : ... .. 8 ... ... ... : G#2 00 . ... : ... .. . ... : ... .. . ... ... : ... .. 8 ... ... : ... .. . ... ... : ... .. 8 ... ...
ROW 9B : ... .. A ... ... ... : ... .. 6 ... ... ... : G-2 00 . ... : ... .. A ... : ... .. . ... ... : ... .. 7 ... ... : ... .. . ... ... : ... .. . ... ...
ROW 9C : ... .. . ... ... ... : ... .. . ... ... ... : D-2 00 . ... : ... .. 8 ... : ... .. . ... ... : ... .. . ... ... : ... .. . ... ... : ... .. . ... ...
ROW 9D : ... .. . ... ... ... : ... .. . ... ... ... : ... .. . ... : ... .. 7 ... : ... .. . ... ... : ... .. 6 ... ... : ... .. . ... ... : ... .. . ... ...
ROW 9E : D-3 00 F ... ... ... : D-3 00 F ... ... ... : ... .. . ... : ... .. 6 ... : ... .. . ... ... : ... .. 5 ... ... : ... .. . ... ... : ... .. . ... ...
ROW 9F : ... .. E ... ... ... : ... .. E ... ... ... : ... .. . ... : ... .. . ... : ... .. . ... ... : ... .. . ... ... : ... .. . ... ... : ... .. 4 ... ...
ROW A0 : ... .. D ... ... ... : ... .. D ... ... ... : ... .. . ... : ... .. 5 ... : ... .. . ... ... : ... .. 3 ... ... : ... .. . ... ... : ... .. . ... ...
ROW A1 : ... .. A ... ... ... : ... .. A ... ... ... : --- .. . ... : ... .. . ... : ... .. . ... ... : ... .. . ... ... : ... .. . ... ... : ... .. 1 ... ...
ROW A2 : ... .. 2 ... ... ... : ... .. 2 ... ... ... : ... .. . ... : ... .. 4 ... : ... .. . ... ... : ... .. . ... ... : ... .. . ... ... : ... .. . ... ...
ROW A3 : ... .. . ... ... ... : ... .. . ... ... ... : ... .. . ... : ... .. . ... : ... .. . ... ... : ... .. . ... ... : ... .. . ... ... : ... .. . ... ...
ROW A4 : G-3 00 F ... ... ... : ... .. F ... ... ... : C#4 00 . ... : ... .. D ... : ... .. . ... ... : ... .. A ... ... : ... .. . ... ... : ... .. F ... ...
ROW A5 : ... .. E ... ... ... : ... .. E ... ... ... : D#3 00 . ... : ... .. B ... : ... .. . ... ... : ... .. 9 ... ... : ... .. . ... ... : ... .. D ... ...
ROW A6 : ... .. D ... ... ... : ... .. D ... ... ... : G#2 00 . ... : ... .. . ... : ... .. . ... ... : ... .. 8 ... ... : ... .. . ... ... : ... .. 8 ... ...
ROW A7 : ... .. A ... ... ... : ... .. A ... ... ... : G-2 00 . ... : ... .. A ... : ... .. . ... ... : ... .. 7 ... ... : ... .. . ... ... : ... .. . ... ...
ROW A8 : ... .. . ... ... ... : ... .. . ... ... ... : D-2 00 . ... : ... .. 8 ... : ... .. . ... ... : ... .. . ... ... : ... .. . ... ... : ... .. . ... ...
ROW A9 : ... .. . ... ... ... : ... .. . ... ... ... : ... .. . ... : ... .. 7 ... : ... .. . ... ... : ... .. 6 ... ... : ... .. . ... ... : ... .. . ... ...
ROW AA : A#3 00 F ... ... ... : D-2 00 A ... ... ... : ... .. . ... : ... .. 6 ... : ... .. . ... ... : ... .. 5 ... ... : ... .. . ... ... : ... .. . ... ...
ROW AB : ... .. E ... ... ... : ... .. 9 ... ... ... : ... .. . ... : ... .. . ... : ... .. . ... ... : ... .. . ... ... : ... .. . ... ... : ... .. 4 ... ...
ROW AC : ... .. D ... ... ... : ... .. 8 ... ... ... : ... .. . ... : ... .. 5 ... : ... .. . ... ... : ... .. 3 ... ... : ... .. . ... ... : ... .. . ... ...
ROW AD : ... .. A ... ... ... : ... .. 6 ... ... ... : --- .. . ... : ... .. . ... : ... .. . ... ... : ... .. . ... ... : ... .. . ... ... : ... .. 1 ... ...
ROW AE : ... .. 2 ... ... ... : ... .. 1 ... ... ... : ... .. . ... : ... .. 4 ... : ... .. . ... ... : ... .. . ... ... : ... .. . ... ... : ... .. . ... ...
ROW AF : ... .. . ... ... ... : ... .. . ... ... ... : ... .. . ... : ... .. . ... : ... .. . ... ... : ... .. . ... ... : ... .. . ... ... : ... .. . ... ...
ROW B0 : E-3 00 F ... ... ... : G-2 00 F ... ... ... : C-4 00 . ... : 6-# 00 F ... : ... .. . ... ... : B-4 01 6 ... ... : B-3 01 7 P80 ... : C#1 01 F ... ...
ROW B1 : ... .. E ... ... ... : ... .. E ... ... ... : D-3 00 . ... : ... .. . ... : ... .. . ... ... : ... .. . ... ... : ... .. 6 ... ... : ... .. D ... ...
ROW B2 : ... .. D ... ... ... : ... .. D ... ... ... : G-2 00 . ... : ... .. . ... : ... .. . ... ... : ... .. 5 ... ... : ... .. . ... ... : ... .. 8 ... ...
ROW B3 : ... .. 9 ... ... ... : ... .. 9 ... ... ... : F#2 00 . ... : 9-# 00 F ... : ... .. . ... ... : G-4 01 6 ... ... : ... .. 4 ... ... : ... .. . ... ...
ROW B4 : ... .. . ... ... ... : ... .. . ... ... ... : C#2 00 . ... : ... .. . ... : ... .. . ... ... : ... .. . ... ... : ... .. . ... ... : ... .. . ... ...
ROW B5 : ... .. . ... ... ... : ... .. . ... ... ... : ... .. . ... : ... .. . ... : ... .. . ... ... : ... .. 5 ... ... : ... .. . ... ... : ... .. . ... ...
ROW B6 : ... .. 8 ... ... ... : ... .. 8 ... ... ... : ... .. . ... : ... .. . ... : ... .. . ... ... : F#4 01 6 ... ... : ... .. 7 ... ... : ... .. . ... ...
ROW B7 : ... .. . ... ... ... : ... .. . ... ... ... : ... .. . ... : ... .. . ... : ... .. . ... ... : ... .. . ... ... : ... .. 6 ... ... : ... .. . ... ...
ROW B8 : ... .. . ... ... ... : ... .. . ... ... ... : ... .. . ... : ... .. . ... : ... .. . ... ... : ... .. 5 ... ... : ... .. . ... ... : ... .. . ... ...
ROW B9 : ... .. . ... ... ... : ... .. . ... ... ... : ... .. . ... : ... .. C ... : ... .. . ... ... : E-4 01 6 ... ... : ... .. 4 ... ... : ... .. . ... ...
ROW BA : ... .. . ... ... ... : ... .. . ... ... ... : ... .. . ... : ... .. . ... : ... .. . ... ... : ... .. . ... ... : ... .. . ... ... : ... .. . ... ...
ROW BB : ... .. . ... ... ... : ... .. . ... ... ... : ... .. . ... : ... .. . ... : ... .. . ... ... : ... .. 5 ... ... : ... .. . ... ... : ... .. . ... ...
ROW BC : ... .. . ... ... ... : ... .. . ... ... ... : ... .. . ... : ... .. B ... : ... .. . ... ... : B-4 01 6 ... ... : A#3 01 7 ... ... : ... .. . ... ...
ROW BD : ... .. . ... ... ... : ... .. . ... ... ... : ... .. . ... : ... .. . ... : ... .. . ... ... : ... .. . ... ... : ... .. 6 ... ... : ... .. . ... ...
ROW BE : ... .. . ... ... ... : ... .. . ... ... ... : ... .. . ... : ... .. . ... : ... .. . ... ... : ... .. 5 ... ... : ... .. . ... ... : ... .. . ... ...
ROW BF : ... .. . ... ... ... : ... .. . ... ... ... : ... .. . ... : ... .. A ... : ... .. . ... ... : G-4 01 6 ... ... : ... .. 4 ... ... : ... .. . ... ...
ROW C0 : ... .. . ... ... ... : ... .. . ... ... ... : ... .. . ... : ... .. . ... : ... .. . ... ... : ... .. . ... ... : ... .. . ... ... : ... .. . ... ...
ROW C1 : ... .. . ... ... ... : ... .. . ... ... ... : ... .. . ... : ... .. . ... : ... .. . ... ... : ... .. 5 ... ... : ... .. . ... ... : ... .. . ... ...
ROW C2 : ... .. 7 ... ... ... : ... .. 7 ... ... ... : ... .. . ... : ... .. 9 ... : ... .. . ... ... : F#4 01 6 ... ... : ... .. 7 ... ... : ... .. . ... ...
ROW C3 : ... .. . ... ... ... : ... .. . ... ... ... : ... .. . ... : ... .. . ... : ... .. . ... ... : ... .. . ... ... : ... .. 6 ... ... : ... .. . ... ...
ROW C4 : ... .. . ... ... ... : ... .. . ... ... ... : ... .. . ... : ... .. . ... : ... .. . ... ... : ... .. 5 ... ... : ... .. . ... ... : ... .. . ... ...
ROW C5 : ... .. 6 ... ... ... : ... .. 6 ... ... ... : ... .. . ... : ... .. 8 ... : ... .. . ... ... : E-4 01 6 ... ... : ... .. 4 ... ... : ... .. . ... ...
ROW C6 : ... .. . ... ... ... : ... .. . ... ... ... : ... .. . ... : ... .. . ... : ... .. . ... ... : ... .. . ... ... : ... .. . ... ... : ... .. . ... ...
ROW C7 : ... .. . ... ... ... : ... .. . ... ... ... : ... .. . ... : ... .. . ... : ... .. . ... ... : ... .. 5 ... ... : ... .. . ... ... : ... .. . ... ...
ROW C8 : ... .. . ... ... ... : ... .. . ... ... ... : ... .. . ... : ... .. 7 ... : ... .. . ... ... : B-4 01 6 ... ... : B-3 01 7 ... ... : ... .. . ... ...
ROW C9 : ... .. . ... ... ... : ... .. . ... ... ... : ... .. . ... : ... .. . ... : ... .. . ... ... : ... .. . ... ... : ... .. 6 ... ... : ... .. . ... ...
ROW CA : ... .. . ... ... ... : ... .. . ... ... ... : ... .. . ... : ... .. . ... : ... .. . ... ... : ... .. 5 ... ... : ... .. . ... ... : ... .. . ... ...
ROW CB : ... .. . ... ... ... : ... .. . ... ... ... : ... .. . ... : ... .. 6 ... : ... .. . ... ... : G-4 01 6 ... ... : ... .. 4 ... ... : ... .. . ... ...
ROW CC : ... .. . ... ... ... : ... .. . ... ... ... : ... .. . ... : ... .. . ... : ... .. . ... ... : ... .. . ... ... : ... .. . ... ... : ... .. . ... ...
ROW CD : ... .. . ... ... ... : ... .. . ... ... ... : ... .. . ... : ... .. . ... : ... .. . ... ... : ... .. 5 ... ... : ... .. . ... ... : ... .. . ... ...
ROW CE : ... .. . ... ... ... : ... .. . ... ... ... : ... .. . ... : ... .. 5 ... : ... .. . ... ... : F#4 01 6 ... ... : ... .. 7 ... ... : ... .. . ... ...
ROW CF : ... .. . ... ... ... : ... .. . ... ... ... : ... .. . ... : ... .. . ... : ... .. . ... ... : ... .. . ... ... : ... .. 6 ... ... : ... .. . ... ...
ROW D0 : ... .. . ... ... ... : ... .. . ... ... ... : ... .. . ... : ... .. . ... : ... .. . ... ... : ... .. 5 ... ... : ... .. . ... ... : ... .. . ... ...
ROW D1 : F-3 00 5 P77 ... ... : ... .. 5 P8A ... ... : ... .. . ... : ... .. 4 ... : ... .. . ... ... : E-4 01 6 ... ... : ... .. 4 ... ... : ... .. . ... ...
ROW D2 : ... .. . P7D ... ... : ... .. . P90 ... ... : ... .. . ... : ... .. . ... : ... .. . ... ... : ... .. . ... ... : ... .. . ... ... : ... .. . ... ...
ROW D3 : ... .. . P7B ... ... : ... .. . P8E ... ... : ... .. . ... : ... .. . ... : ... .. . ... ... : ... .. 5 ... ... : ... .. . ... ... : ... .. . ... ...
ROW D4 : E-3 00 5 P84 ... ... : ... .. . P84 ... ... : C-5 00 . ... : 7-# 00 F ... : ... .. . ... ... : B-4 01 6 ... ... : C-4 01 7 ... ... : C#2 01 F ... ...
ROW D5 : ... .. . P7C ... ... : ... .. . P7C ... ... : D-4 00 . ... : ... .. C ... : ... .. . ... ... : ... .. . ... ... : ... .. 6 ... ... : ... .. D ... ...
ROW D6 : D#3 00 5 P87 ... ... : ... .. . P72 ... ... : G-3 00 . ... : ... .. 6 ... : ... .. . ... ... : ... .. 5 ... ... : ... .. . ... ... : ... .. 8 ... ...
ROW D7 : ... .. . P85 ... ... : ... .. . P70 ... ... : F#3 00 . ... : ... .. 3 ... : ... .. . ... ... : G-4 01 6 ... ... : ... .. 4 ... ... : ... .. . ... ...
ROW D8 : E-3 00 5 P76 ... ... : ... .. . P76 ... ... : C#3 00 . ... : ... .. 2 ... : ... .. . ... ... : ... .. . ... ... : ... .. . ... ... : ... .. . ... ...
ROW D9 : ... .. . P80 ... ... : ... .. . P80 ... ... : ... .. . ... : ... .. 0 ... : ... .. . ... ... : ... .. 5 ... ... : ... .. . ... ... : ... .. . ... ...
ROW DA : ... .. 6 P89 ... ... : ... .. 6 P89 ... ... : ... .. . ... : 1-# 00 8 ... : ... .. . ... ... : F#4 01 6 ... ... : ... .. 7 ... ... : ... .. . ... ...
ROW DB : F-3 00 6 P7D ... ... : ... .. . P90 ... ... : ... .. . ... : ... .. 6 ... : ... .. . ... ... : ... .. . ... ... : ... .. 6 ... ... : ... .. . ... ...
ROW DC : ... .. . P7B ... ... : ... .. . P8E ... ... : ... .. . ... : ... .. 3 ... : ... .. . ... ... : ... .. 5 ... ... : ... .. . ... ... : ... .. . ... ...
ROW DD : E-3 00 6 P86 ... ... : ... .. . P86 ... ... : ... .. . ... : ... .. 1 ... : ... .. . ... ... : E-4 01 6 ... ... : ... .. 4 ... ... : ... .. . ... ...
ROW DE : ... .. . P7D ... ... : ... .. . P7D ... ... : ... .. . ... : ... .. . ... : ... .. . ... ... : ... .. . ... ... : ... .. . ... ... : ... .. . ... ...
ROW DF : D#3 00 6 P88 ... ... : ... .. . P73 ... ... : ... .. . ... : ... .. 0 ... : ... .. . ... ... : ... .. 5 ... ... : ... .. . ... ... : ... .. . ... ...
ROW E0 : ... .. . P85 ... ... : ... .. . P70 ... ... : ... .. . ... : 7-# 00 F ... : ... .. . ... ... : B-4 01 6 ... ... : B-3 01 7 ... ... : ... .. . ... ...
ROW E1 : ... .. . P89 ... ... : ... .. . P74 ... ... : ... .. . ... : ... .. C ... : ... .. . ... ... : ... .. . ... ... : ... .. 6 ... ... : ... .. . ... ...
ROW E2 : E-3 00 6 P7F ... ... : ... .. . P7F ... ... : ... .. . ... : ... .. 6 ... : ... .. . ... ... : ... .. 5 ... ... : ... .. . ... ... : ... .. . ... ...
ROW E3 : ... .. . P88 ... ... : ... .. . P88 ... ... : ... .. . ... : ... .. 3 ... : ... .. . ... ... : G-4 01 6 ... ... : ... .. 4 ... ... : ... .. . ... ...
ROW E4 : F-3 00 6 P7C ... ... : ... .. . P8F ... ... : ... .. . ... : ... .. 2 ... : ... .. . ... ... : ... .. . ... ... : ... .. . ... ... : ... .. . ... ...
ROW E5 : ... .. . ... ... ... : ... .. . ... ... ... : ... .. . ... : ... .. 0 ... : ... .. . ... ... : ... .. 5 ... ... : ... .. . ... ... : ... .. . ... ...
ROW E6 : E-3 00 7 P88 ... ... : ... .. 7 P88 ... ... : C-3 00 . P78 : 1-# 00 8 ... : ... .. . ... ... : F#4 01 6 ... ... : ... .. 7 ... ... : C-2 01 8 P97 ...
ROW E7 : ... .. . P7F ... ... : ... .. . P7F ... ... : A#2 00 . P8C : ... .. 6 ... : ... .. . ... ... : ... .. . ... ... : ... .. 6 ... ... : ... .. . P77 ...
ROW E8 : D#3 00 7 P89 ... ... : ... .. . P74 ... ... : A-2 00 . P88 : ... .. 3 ... : ... .. . ... ... : ... .. 5 ... ... : ... .. . ... ... : B-1 01 8 P91 ...
ROW E9 : ... .. 8 P85 ... ... : ... .. 8 P70 ... ... : G#2 00 . P87 : ... .. 1 ... : ... .. . ... ... : E-4 01 6 ... ... : ... .. 4 ... ... : ... .. . P71 ...
ROW EA : ... .. . P88 ... ... : ... .. . P73 ... ... : G-2 00 . ... : ... .. . ... : ... .. . ... ... : ... .. . ... ... : ... .. . ... ... : A#1 01 8 P8F ...
ROW EB : E-3 00 8 P7D ... ... : ... .. . P7D ... ... : F#2 00 . P89 : ... .. 0 ... : ... .. . ... ... : ... .. 5 ... ... : ... .. . ... ... : ... .. . P6F ...
ROW EC : ... .. . P86 ... ... : ... .. . P86 ... ... : F-2 00 . P8D : 7-# 00 F ... : ... .. . ... ... : B-4 01 6 ... ... : A#3 01 7 ... ... : A-1 01 8 P90 ...
ROW ED : F-3 00 8 P7B ... ... : ... .. . P8E ... ... : E-2 00 . P93 : ... .. C ... : ... .. . ... ... : ... .. . ... ... : ... .. 6 ... ... : ... .. . P70 ...
ROW EE : ... .. . P7D ... ... : ... .. . P90 ... ... : ... .. . P73 : ... .. 6 ... : ... .. . ... ... : ... .. 5 ... ... : ... .. . ... ... : G#1 01 8 P95 ...
ROW EF : E-3 00 8 P89 ... ... : ... .. . P89 ... ... : D#2 00 . P7B : ... .. 3 ... : ... .. . ... ... : G-4 01 6 ... ... : ... .. 4 ... ... : ... .. . P75 ...
ROW F0 : ... .. . P80 ... ... : ... .. . P80 ... ... : D-2 00 . P86 : ... .. 2 ... : ... .. . ... ... : ... .. . ... ... : ... .. . ... ... : G-1 01 8 P9F ...
ROW F1 : ... .. . P76 ... ... : ... .. . P76 ... ... : C#2 00 . P93 : ... .. 0 ... : ... .. . ... ... : ... .. 5 ... ... : ... .. . ... ... : ... .. . P7F ...
ROW F2 : D#3 00 8 P85 ... ... : ... .. . P70 ... ... : ... .. . P73 : 1-# 00 8 ... : ... .. . ... ... : F#4 01 6 ... ... : ... .. 7 ... ... : ... .. . P5F ...
ROW F3 : ... .. . P87 ... ... : ... .. . P72 ... ... : C-2 00 . P83 : ... .. 6 ... : ... .. . ... ... : ... .. . ... ... : ... .. 6 ... ... : F#1 01 8 P8C ...
ROW F4 : E-3 00 8 P7C ... ... : ... .. . P7C ... ... : B-1 00 . P96 : ... .. 3 ... : ... .. . ... ... : ... .. 5 ... ... : ... .. . ... ... : ... .. . P6C ...
ROW F5 : ... .. 9 P84 ... ... : ... .. 9 P84 ... ... : ... .. . P76 : ... .. 1 ... : ... .. . ... ... : E-4 01 6 ... ... : ... .. 4 ... ... : F-1 01 8 P9E ...
ROW F6 : F-3 00 9 P7B ... ... : ... .. . P8E ... ... : A#1 00 . P8C : ... .. . ... : ... .. . ... ... : ... .. . ... ... : ... .. . ... ... : ... .. . P7E ...
ROW F7 : ... .. . P7D ... ... : ... .. . P90 ... ... : ... .. . P6C : ... .. 0 ... : ... .. . ... ... : ... .. 5 ... ... : ... .. . ... ... : ... .. . P5E ...
ROW F8 : ... .. F P80 ... ... : G#2 00 F P80 ... ... : C-4 00 . P80 : ... .. F ... : ... .. . ... ... : C#5 01 6 ... ... : B-3 01 7 ... ... : C#1 01 F P80 ...
ROW F9 : ... .. E ... ... ... : ... .. E ... ... ... : D-3 00 . ... : ... .. C ... : ... .. . ... ... : ... .. . ... ... : ... .. 6 ... ... : ... .. D ... ...
ROW FA : ... .. D ... ... ... : ... .. D ... ... ... : G-2 00 . ... : ... .. 6 ... : ... .. . ... ... : ... .. 5 ... ... : ... .. . ... ... : ... .. 8 ... ...
ROW FB : ... .. 9 ... ... ... : ... .. 9 ... ... ... : F#2 00 . ... : ... .. 3 ... : ... .. . ... ... : G#4 01 6 ... ... : ... .. 4 ... ... : ... .. . ... ...
ROW FC : ... .. . ... ... ... : ... .. . ... ... ... : C#2 00 . ... : ... .. 2 ... : ... .. . ... ... : ... .. . ... ... : ... .. . ... ... : ... .. . ... ...
ROW FD : ... .. . ... ... ... : ... .. . ... ... ... : ... .. . ... : ... .. 0 ... : ... .. . ... ... : ... .. 5 ... ... : ... .. . ... ... : ... .. . ... ...
ROW FE : ... .. 8 ... ... ... : ... .. 8 ... ... ... : ... .. . ... : C-# 00 8 ... : ... .. . ... ... : G-4 01 6 ... ... : ... .. 7 ... ... : ... .. . ... ...
ROW FF : ... .. . ... ... ... : ... .. . ... ... ... : ... .. . ... : ... .. 6 ... : ... .. . ... ... : ... .. . ... ... : ... .. 6 ... ... : ... .. . ... ...

PATTERN 02
ROW 00 : ... .. . ... ... ... : ... .. . ... ... ... : ... .. . ... : ... .. 3 ... : ... .. . ... ... : ... .. 5 ... ... : ... .. . ... ... : ... .. . ... ...
ROW 01 : ... .. . ... ... ... : ... .. . ... ... ... : ... .. . ... : ... .. 1 ... : ... .. . ... ... : F-4 01 6 ... ... : ... .. 4 ... ... : ... .. . ... ...
ROW 02 : ... .. . ... ... ... : ... .. . ... ... ... : ... .. . ... : ... .. . ... : ... .. . ... ... : ... .. . ... ... : ... .. . ... ... : ... .. . ... ...
ROW 03 : ... .. . ... ... ... : ... .. . ... ... ... : ... .. . ... : ... .. 0 ... : ... .. . ... ... : ... .. 5 ... ... : ... .. . ... ... : ... .. . ... ...
ROW 04 : ... .. . ... ... ... : ... .. . ... ... ... : ... .. . ... : ... .. 8 ... : ... .. . ... ... : C#5 01 6 ... ... : A-3 01 7 ... ... : ... .. . ... ...
ROW 05 : ... .. . ... ... ... : ... .. . ... ... ... : ... .. . ... : ... .. 6 ... : ... .. . ... ... : ... .. . ... ... : ... .. 6 ... ... : ... .. . ... ...
ROW 06 : ... .. . ... ... ... : ... .. . ... ... ... : ... .. . ... : ... .. 3 ... : ... .. . ... ... : ... .. 5 ... ... : ... .. . ... ... : ... .. . ... ...
ROW 07 : ... .. . ... ... ... : ... .. . ... ... ... : ... .. . ... : ... .. 1 ... : ... .. . ... ... : G#4 01 6 ... ... : ... .. 4 ... ... : ... .. . ... ...
ROW 08 : ... .. . ... ... ... : ... .. . ... ... ... : ... .. . ... : ... .. . ... : ... .. . ... ... : ... .. . ... ... : ... .. . ... ... : ... .. . ... ...
ROW 09 : ... .. . ... ... ... : ... .. . ... ... ... : ... .. . ... : ... .. 0 ... : ... .. . ... ... : ... .. 5 ... ... : ... .. . ... ... : ... .. . ... ...
ROW 0A : ... .. 7 ... ... ... : ... .. 7 ... ... ... : ... .. . ... : 1-# 00 F ... : ... .. . ... ... : G-4 01 6 ... ... : ... .. 7 ... ... : ... .. . ... ...
ROW 0B : ... .. . ... ... ... : ... .. . ... ... ... : ... .. . ... : ... .. C ... : ... .. . ... ... : ... .. . ... ... : ... .. 6 ... ... : ... .. . ... ...
ROW 0C : ... .. . ... ... ... : ... .. . ... ... ... : ... .. . ... : ... .. 6 ... : ... .. . ... ... : ... .. 5 ... ... : ... .. . ... ... : ... .. . ... ...
ROW 0D : ... .. 6 ... ... ... : ... .. 6 ... ... ... : ... .. . ... : ... .. 3 ... : ... .. . ... ... : F-4 01 6 ... ... : ... .. 4 ... ... : ... .. . ... ...
ROW 0E : ... .. . ... ... ... : ... .. . ... ... ... : ... .. . ... : ... .. 2 ... : ... .. . ... ... : ... .. . ... ... : ... .. . ... ... : ... .. . ... ...
ROW 0F : ... .. . ... ... ... : ... .. . ... ... ... : ... .. . ... : ... .. 0 ... : ... .. . ... ... : ... .. 5 ... ... : ... .. . ... ... : ... .. . ... ...
ROW 10 : ... .. . ... ... ... : ... .. . ... ... ... : ... .. . ... : C-# 00 8 ... : ... .. . ... ... : C#5 01 6 ... ... : B-3 01 7 ... ... : ... .. . ... ...
ROW 11 : ... .. . ... ... ... : ... .. . ... ... ... : ... .. . ... : ... .. 6 ... : ... .. . ... ... : ... .. . ... ... : ... .. 6 ... ... : ... .. . ... ...
ROW 12 : ... .. . ... ... ... : ... .. . ... ... ... : ... .. . ... : ... .. 3 ... : ... .. . ... ... : ... .. 5 ... ... : ... .. . ... ... : ... .. . ... ...
ROW 13 : ... .. . ... ... ... : ... .. . ... ... ... : ... .. . ... : ... .. 1 ... : ... .. . ... ... : G#4 01 6 ... ... : ... .. 4 ... ... : ... .. . ... ...
ROW 14 : ... .. . ... ... ... : ... .. . ... ... ... : ... .. . ... : ... .. . ... : ... .. . ... ... : ... .. . ... ... : ... .. . ... ... : ... .. . ... ...
ROW 15 : ... .. . ... ... ... : ... .. . ... ... ... : ... .. . ... : ... .. 0 ... : ... .. . ... ... : ... .. 5 ... ... : ... .. . ... ... : ... .. . ... ...
ROW 16 : ... .. . ... ... ... : ... .. . ... ... ... : ... .. . ... : ... .. 8 ... : ... .. . ... ... : G-4 01 6 ... ... : ... .. 7 ... ... : ... .. . ... ...
ROW 17 : ... .. . ... ... ... : ... .. . ... ... ... : ... .. . ... : ... .. 6 ... : ... .. . ... ... : ... .. . ... ... : ... .. 6 ... ... : ... .. . ... ...
ROW 18 : ... .. . ... ... ... : ... .. . ... ... ... : ... .. . ... : ... .. 3 ... : ... .. . ... ... : ... .. 5 ... ... : ... .. . ... ... : ... .. . ... ...
ROW 19 : ... .. 5 ... ... ... : ... .. 5 ... ... ... : ... .. . ... : ... .. 1 ... : ... .. . ... ... : F-4 01 6 ... ... : ... .. 4 ... ... : ... .. . ... ...
ROW 1A : ... .. . ... ... ... : ... .. . ... ... ... : ... .. . ... : ... .. . ... : ... .. . ... ... : ... .. . ... ... : ... .. . ... ... : ... .. . ... ...
ROW 1B : ... .. . ... ... ... : ... .. . ... ... ... : ... .. . ... : ... .. 0 ... : ... .. . ... ... : ... .. 5 ... ... : ... .. . ... ... : ... .. . ... ...
ROW 1C : ... .. . ... ... ... : ... .. . ... ... ... : C-5 00 . ... : 7-# 00 F ... : ... .. . ... ... : C#5 01 6 ... ... : C#4 01 7 ... ... : C#2 01 F ... ...
ROW 1D : ... .. . ... ... ... : ... .. . ... ... ... : D-4 00 . ... : ... .. C ... : ... .. . ... ... : ... .. . ... ... : ... .. 6 ... ... : ... .. D ... ...
ROW 1E : ... .. . ... ... ... : ... .. . ... ... ... : G-3 00 . ... : ... .. 6 ... : ... .. . ... ... : ... .. 5 ... ... : ... .. . ... ... : ... .. 8 ... ...
ROW 1F : F#3 00 5 P78 ... ... : ... .. . P8A ... ... : F#3 00 . ... : ... .. 3 ... : ... .. . ... ... : G#4 01 6 ... ... : ... .. 4 ... ... : ... .. . ... ...
ROW 20 : ... .. . P7E ... ... : A-2 00 5 P71 ... ... : C#3 00 . ... : ... .. 2 ... : ... .. . ... ... : ... .. . ... ... : ... .. . ... ... : ... .. . ... ...
ROW 21 : ... .. . P7C ... ... : G#2 00 5 P8E ... ... : ... .. . ... : ... .. 0 ... : ... .. . ... ... : ... .. 5 ... ... : ... .. . ... ... : ... .. . ... ...
ROW 22 : F-3 00 6 P84 ... ... : ... .. 6 P84 ... ... : ... .. . ... : ... .. 8 ... : ... .. . ... ... : G-4 01 6 ... ... : ... .. 7 ... ... : ... .. . ... ...
ROW 23 : ... .. . P7C ... ... : ... .. . P7C ... ... : ... .. . ... : ... .. 6 ... : ... .. . ... ... : ... .. . ... ... : ... .. 6 ... ... : ... .. . ... ...
ROW 24 : E-3 00 6 P85 ... ... : ... .. . P72 ... ... : ... .. . ... : ... .. 3 ... : ... .. . ... ... : ... .. 5 ... ... : ... .. . ... ... : ... .. . ... ...
ROW 25 : ... .. . P83 ... ... : G-2 00 6 P90 ... ... : ... .. . ... : ... .. 1 ... : ... .. . ... ... : F-4 01 6 ... ... : ... .. 4 ... ... : ... .. . ... ...
ROW 26 : ... .. . P89 ... ... : G#2 00 6 P76 ... ... : ... .. . ... : ... .. . ... : ... .. . ... ... : ... .. . ... ... : ... .. . ... ... : ... .. . ... ...
ROW 27 : F-3 00 6 P80 ... ... : ... .. . P80 ... ... : ... .. . ... : ... .. 0 ... : ... .. . ... ... : ... .. 5 ... ... : ... .. . ... ... : ... .. . ... ...
ROW 28 : ... .. . P89 ... ... : ... .. . P89 ... ... : ... .. . ... : 4-# 00 F ... : ... .. . ... ... : C#5 01 6 ... ... : B-3 01 7 ... ... : ... .. . ... ...
ROW 29 : F#3 00 6 P7E ... ... : A-2 00 6 P71 ... ... : ... .. . ... : ... .. C ... : ... .. . ... ... : ... .. . ... ... : ... .. 6 ... ... : ... .. . ... ...
ROW 2A : ... .. . P7C ... ... : G#2 00 6 P8E ... ... : ... .. . ... : ... .. 6 ... : ... .. . ... ... : ... .. 5 ... ... : ... .. . ... ... : ... .. . ... ...
ROW 2B : F-3 00 6 P86 ... ... : ... .. . P86 ... ... : ... .. . ... : ... .. 3 ... : ... .. . ... ... : G#4 01 6 ... ... : ... .. 4 ... ... : ... .. . ... ...
ROW 2C : ... .. . P7D ... ... : ... .. . P7D ... ... : ... .. . ... : ... .. 2 ... : ... .. . ... ... : ... .. . ... ... : ... .. . ... ... : ... .. . ... ...
ROW 2D : E-3 00 6 P86 ... ... : ... .. . P73 ... ... : ... .. . ... : ... .. 0 ... : ... .. . ... ... : ... .. 5 ... ... : ... .. . ... ... : ... .. . ... ...
ROW 2E : ... .. 7 P83 ... ... : G-2 00 7 P90 ... ... : C-3 00 . P78 : 9-# 00 8 ... : ... .. . ... ... : G-4 01 6 ... ... : ... .. 7 ... ... : C-2 01 8 P97 ...
ROW 2F : ... .. . P87 ... ... : G#2 00 7 P74 ... ... : A#2 00 . P8C : ... .. 6 ... : ... .. . ... ... : ... .. . ... ... : ... .. 6 ... ... : ... .. . P77 ...
ROW 30 : F-3 00 7 P7F ... ... : ... .. . P7F ... ... : A-2 00 . P88 : ... .. 3 ... : ... .. . ... ... : ... .. 5 ... ... : ... .. . ... ... : B-1 01 8 P91 ...
ROW 31 : ... .. 8 P88 ... ... : ... .. 8 P88 ... ... : G#2 00 . P87 : ... .. 1 ... : ... .. . ... ... : F-4 01 6 ... ... : ... .. 4 ... ... : ... .. . P71 ...
ROW 32 : F#3 00 8 P7D ... ... : ... .. . P8F ... ... : G-2 00 . ... : ... .. . ... : ... .. . ... ... : ... .. . ... ... : ... .. . ... ... : A#1 01 8 P8F ...
ROW 33 : ... .. . ... ... ... : ... .. . ... ... ... : F#2 00 . P89 : ... .. 0 ... : ... .. . ... ... : ... .. 5 ... ... : ... .. . ... ... : ... .. . P6F ...
ROW 34 : F-3 00 8 P88 ... ... : ... .. . P88 ... ... : F-2 00 . P8D : 7-# 00 F ... : ... .. . ... ... : C#5 01 6 ... ... : C#4 01 7 ... ... : A-1 01 8 P90 ...
ROW 35 : ... .. . P7F ... ... : ... .. . P7F ... ... : E-2 00 . P93 : ... .. C ... : ... .. . ... ... : ... .. . ... ... : ... .. 6 ... ... : ... .. . P70 ...
ROW 36 : E-3 00 8 P87 ... ... : ... .. . P74 ... ... : ... .. . P73 : ... .. 6 ... : ... .. . ... ... : ... .. 5 ... ... : ... .. . ... ... : G#1 01 8 P95 ...
ROW 37 : ... .. . P83 ... ... : G-2 00 8 P90 ... ... : D#2 00 . P7B : ... .. 3 ... : ... .. . ... ... : G#4 01 6 ... ... : ... .. 4 ... ... : ... .. . P75 ...
ROW 38 : ... .. . P86 ... ... : G#2 00 8 P73 ... ... : D-2 00 . P86 : ... .. 2 ... : ... .. . ... ... : ... .. . ... ... : ... .. . ... ... : G-1 01 8 P9F ...
ROW 39 : F-3 00 8 P7D ... ... : ... .. . P7D ... ... : C#2 00 . P93 : ... .. 0 ... : ... .. . ... ... : ... .. 5 ... ... : ... .. . ... ... : ... .. . P7F ...
ROW 3A : ... .. . P86 ... ... : ... .. . P86 ... ... : ... .. . P73 : 5-# 00 8 ... : ... .. . ... ... : G-4 01 6 ... ... : ... .. 7 ... ... : ... .. . P5F ...
ROW 3B : F#3 00 8 P7C ... ... : ... .. . P8E ... ... : C-2 00 . P83 : ... .. 6 ... : ... .. . ... ... : ... .. . ... ... : ... .. 6 ... ... : F#1 01 8 P8C ...
ROW 3C : ... .. . P7E ... ... : A-2 00 8 P71 ... ... : B-1 00 . P96 : ... .. 3 ... : ... .. . ... ... : ... .. 5 ... ... : ... .. . ... ... : ... .. . P6C ...
ROW 3D : F-3 00 9 P89 ... ... : G#2 00 9 P89 ... ... : ... .. . P76 : ... .. 1 ... : ... .. . ... ... : F-4 01 6 ... ... : ... .. 4 ... ... : F-1 01 8 P9E ...
ROW 3E : ... .. . P80 ... ... : ... .. . P80 ... ... : A#1 00 . P8C : ... .. . ... : ... .. . ... ... : ... .. . ... ... : ... .. . ... ... : ... .. . P7E ...
ROW 3F : E-3 00 9 P89 ... ... : ... .. . P76 ... ... : ... .. . P6C : ... .. 0 ... : ... .. . ... ... : ... .. 5 ... ... : ... .. . ... ... : ... .. . P5E ...
ROW 40 : G-3 00 F P80 ... ... : B-2 00 F P80 ... ... : A#3 00 . P80 : 1-# 00 F ... : ... .. . ... ... : D-5 01 6 ... ... : D-4 01 7 ... ... : B-0 01 F P80 ...
ROW 41 : ... .. E ... ... ... : ... .. E ... ... ... : C-3 00 . ... : ... .. C ... : ... .. . ... ... : ... .. . ... ... : ... .. 6 ... ... : ... .. D ... ...
ROW 42 : ... .. D ... ... ... : ... .. D ... ... ... : F-2 00 . ... : ... .. 6 ... : ... .. . ... ... : ... .. 5 ... ... : ... .. . ... ... : ... .. 8 ... ...
ROW 43 : ... .. 9 ... ... ... : ... .. 9 ... ... ... : E-2 00 . ... : ... .. 3 ... : ... .. . ... ... : B-4 01 6 ... ... : ... .. 4 ... ... : ... .. . ... ...
ROW 44 : ... .. . ... ... ... : ... .. . ... ... ... : B-1 00 . ... : ... .. 2 ... : ... .. . ... ... : ... .. . ... ... : ... .. . ... ... : ... .. . ... ...
ROW 45 : ... .. . ... ... ... : ... .. . ... ... ... : ... .. . ... : ... .. 0 ... : ... .. . ... ... : ... .. 5 ... ... : ... .. . ... ... : ... .. . ... ...
ROW 46 : ... .. 8 ... ... ... : ... .. 8 ... ... ... : ... .. . ... : C-# 00 8 ... : ... .. . ... ... : G-4 01 6 ... ... : ... .. 7 ... ... : ... .. . ... ...
ROW 47 : ... .. . ... ... ... : ... .. . ... ... ... : ... .. . ... : ... .. 6 ... : ... .. . ... ... : ... .. . ... ... : ... .. 6 ... ... : ... .. . ... ...
ROW 48 : ... .. . ... ... ... : ... .. . ... ... ... : ... .. . ... : ... .. 3 ... : ... .. . ... ... : ... .. 5 ... ... : ... .. . ... ... : ... .. . ... ...
ROW 49 : ... .. . ... ... ... : ... .. . ... ... ... : ... .. . ... : ... .. 1 ... : ... .. . ... ... : F-4 01 6 ... ... : ... .. 4 ... ... : ... .. . ... ...
ROW 4A : ... .. . ... ... ... : ... .. . ... ... ... : ... .. . ... : ... .. . ... : ... .. . ... ... : ... .. . ... ... : ... .. . ... ... : ... .. . ... ...
ROW 4B : ... .. . ... ... ... : ... .. . ... ... ... : ... .. . ... : ... .. 0 ... : ... .. . ... ... : ... .. 5 ... ... : ... .. . ... ... : ... .. . ... ...
ROW 4C : ... .. . ... ... ... : ... .. . ... ... ... : ... .. . ... : ... .. 8 ... : ... .. . ... ... : D-5 01 6 ... ... : C#4 01 7 ... ... : ... .. . ... ...
ROW 4D : ... .. . ... ... ... : ... .. . ... ... ... : ... .. . ... : ... .. 6 ... : ... .. . ... ... : ... .. . ... ... : ... .. 6 ... ... : ... .. . ... ...
ROW 4E : ... .. . ... ... ... : ... .. . ... ... ... : ... .. . ... : ... .. 3 ... : ... .. . ... ... : ... .. 5 ... ... : ... .. . ... ... : ... .. . ... ...
ROW 4F : ... .. . ... ... ... : ... .. . ... ... ... : ... .. . ... : ... .. 1 ... : ... .. . ... ... : B-4 01 6 ... ... : ... .. 4 ... ... : ... .. . ... ...
ROW 50 : ... .. . ... ... ... : ... .. . ... ... ... : ... .. . ... : ... .. . ... : ... .. . ... ... : ... .. . ... ... : ... .. . ... ... : ... .. . ... ...
ROW 51 : ... .. . ... ... ... : ... .. . ... ... ... : ... .. . ... : ... .. 0 ... : ... .. . ... ... : ... .. 5 ... ... : ... .. . ... ... : ... .. . ... ...
ROW 52 : ... .. 7 ... ... ... : ... .. 7 ... ... ... : ... .. . ... : 1-# 00 F ... : ... .. . ... ... : G-4 01 6 ... ... : ... .. 7 ... ... : ... .. . ... ...
ROW 53 : ... .. . ... ... ... : ... .. . ... ... ... : ... .. . ... : ... .. C ... : ... .. . ... ... : ... .. . ... ... : ... .. 6 ... ... : ... .. . ... ...
ROW 54 : ... .. . ... ... ... : ... .. . ... ... ... : ... .. . ... : ... .. 6 ... : ... .. . ... ... : ... .. 5 ... ... : ... .. . ... ... : ... .. . ... ...
ROW 55 : ... .. 6 ... ... ... : ... .. 6 ... ... ... : ... .. . ... : ... .. 3 ... : ... .. . ... ... : F-4 01 6 ... ... : ... .. 4 ... ... : ... .. . ... ...
ROW 56 : ... .. . ... ... ... : ... .. . ... ... ... : ... .. . ... : ... .. 2 ... : ... .. . ... ... : ... .. . ... ... : ... .. . ... ... : ... .. . ... ...
ROW 57 : ... .. . ... ... ... : ... .. . ... ... ... : ... .. . ... : ... .. 0 ... : ... .. . ... ... : ... .. 5 ... ... : ... .. . ... ... : ... .. . ... ...
ROW 58 : ... .. . ... ... ... : ... .. . ... ... ... : ... .. . ... : C-# 00 8 ... : ... .. . ... ... : D-5 01 6 ... ... : D-4 01 7 ... ... : ... .. . ... ...
ROW 59 : ... .. . ... ... ... : ... .. . ... ... ... : ... .. . ... : ... .. 6 ... : ... .. . ... ... : ... .. . ... ... : ... .. 6 ... ... : ... .. . ... ...
ROW 5A : ... .. . ... ... ... : ... .. . ... ... ... : ... .. . ... : ... .. 3 ... : ... .. . ... ... : ... .. 5 ... ... : ... .. . ... ... : ... .. . ... ...
ROW 5B : ... .. . ... ... ... : ... .. . ... ... ... : ... .. . ... : ... .. 1 ... : ... .. . ... ... : B-4 01 6 ... ... : ... .. 4 ... ... : ... .. . ... ...
ROW 5C : ... .. . ... ... ... : ... .. . ... ... ... : ... .. . ... : ... .. . ... : ... .. . ... ... : ... .. . ... ... : ... .. . ... ... : ... .. . ... ...
ROW 5D : ... .. . ... ... ... : ... .. . ... ... ... : ... .. . ... : ... .. 0 ... : ... .. . ... ... : ... .. 5 ... ... : ... .. . ... ... : ... .. . ... ...
ROW 5E : ... .. . ... ... ... : ... .. . ... ... ... : ... .. . ... : ... .. 8 ... : ... .. . ... ... : G-4 01 6 ... ... : ... .. 7 ... ... : ... .. . ... ...
ROW 5F : ... .. . ... ... ... : ... .. . ... ... ... : ... .. . ... : ... .. 6 ... : ... .. . ... ... : ... .. . ... ... : ... .. 6 ... ... : ... .. . ... ...
ROW 60 : ... .. . ... ... ... : ... .. . ... ... ... : ... .. . ... : ... .. 3 ... : ... .. . ... ... : ... .. 5 ... ... : ... .. . ... ... : ... .. . ... ...
ROW 61 : ... .. 5 ... ... ... : ... .. 5 ... ... ... : ... .. . ... : ... .. 1 ... : ... .. . ... ... : F-4 01 6 ... ... : ... .. 4 ... ... : ... .. . ... ...
ROW 62 : ... .. . ... ... ... : ... .. . ... ... ... : ... .. . ... : ... .. . ... : ... .. . ... ... : ... .. . ... ... : ... .. . ... ... : ... .. . ... ...
ROW 63 : ... .. . ... ... ... : ... .. . ... ... ... : ... .. . ... : ... .. 0 ... : ... .. . ... ... : ... .. 5 ... ... : ... .. . ... ... : ... .. . ... ...
ROW 64 : ... .. . ... ... ... : ... .. . ... ... ... : A#4 00 . ... : 7-# 00 F ... : ... .. . ... ... : D-5 01 6 ... ... : D#4 01 7 ... ... : B-1 01 F ... ...
ROW 65 : ... .. . ... ... ... : ... .. . ... ... ... : C-4 00 . ... : ... .. C ... : ... .. . ... ... : ... .. . ... ... : ... .. 6 ... ... : ... .. D ... ...
ROW 66 : ... .. . ... ... ... : ... .. . ... ... ... : F-3 00 . ... : ... .. 6 ... : ... .. . ... ... : ... .. 5 ... ... : ... .. . ... ... : ... .. 8 ... ...
ROW 67 : G#3 00 5 P7A ... ... : ... .. . P8A ... ... : E-3 00 . ... : ... .. 3 ... : ... .. . ... ... : B-4 01 6 ... ... : ... .. 4 ... ... : ... .. . ... ...
ROW 68 : ... .. . P80 ... ... : C-3 00 5 P77 ... ... : B-2 00 . ... : ... .. 2 ... : ... .. . ... ... : ... .. . ... ... : ... .. . ... ... : ... .. . ... ...
ROW 69 : ... .. . P7E ... ... : ... .. . P75 ... ... : ... .. . ... : ... .. 0 ... : ... .. . ... ... : ... .. 5 ... ... : ... .. . ... ... : ... .. . ... ...
ROW 6A : G-3 00 6 P84 ... ... : B-2 00 6 P84 ... ... : ... .. . ... : 1-# 00 8 ... : ... .. . ... ... : G-4 01 6 ... ... : ... .. 7 ... ... : ... .. . ... ...
ROW 6B : ... .. . P7C ... ... : ... .. . P7C ... ... : ... .. . ... : ... .. 6 ... : ... .. . ... ... : ... .. . ... ... : ... .. 6 ... ... : ... .. . ... ...
ROW 6C : F#3 00 6 P83 ... ... : A#2 00 6 P8D ... ... : ... .. . ... : ... .. 3 ... : ... .. . ... ... : ... .. 5 ... ... : ... .. . ... ... : ... .. . ... ...
ROW 6D : ... .. . P81 ... ... : ... .. . P8B ... ... : ... .. . ... : ... .. 1 ... : ... .. . ... ... : F-4 01 6 ... ... : ... .. 4 ... ... : ... .. . ... ...
ROW 6E : ... .. . P87 ... ... : B-2 00 6 P76 ... ... : ... .. . ... : ... .. . ... : ... .. . ... ... : ... .. . ... ... : ... .. . ... ... : ... .. . ... ...
ROW 6F : G-3 00 6 P80 ... ... : ... .. . P80 ... ... : ... .. . ... : ... .. 0 ... : ... .. . ... ... : ... .. 5 ... ... : ... .. . ... ... : ... .. . ... ...
ROW 70 : G#3 00 6 P79 ... ... : ... .. . P89 ... ... : ... .. . ... : 7-# 00 F ... : ... .. . ... ... : D-5 01 6 ... ... : D-4 01 7 ... ... : ... .. . ... ...
ROW 71 : ... .. . P80 ... ... : C-3 00 6 P77 ... ... : ... .. . ... : ... .. C ... : ... .. . ... ... : ... .. . ... ... : ... .. 6 ... ... : ... .. . ... ...
ROW 72 : ... .. . P7E ... ... : ... .. . P75 ... ... : ... .. . ... : ... .. 6 ... : ... .. . ... ... : ... .. 5 ... ... : ... .. . ... ... : ... .. . ... ...
ROW 73 : G-3 00 6 P86 ... ... : B-2 00 6 P86 ... ... : ... .. . ... : ... .. 3 ... : ... .. . ... ... : B-4 01 6 ... ... : ... .. 4 ... ... : ... .. . ... ...
ROW 74 : ... .. . P7D ... ... : ... .. . P7D ... ... : ... .. . ... : ... .. 2 ... : ... .. . ... ... : ... .. . ... ... : ... .. . ... ... : ... .. . ... ...
ROW 75 : F#3 00 6 P84 ... ... : ... .. . P73 ... ... : ... .. . ... : ... .. 0 ... : ... .. . ... ... : ... .. 5 ... ... : ... .. . ... ... : ... .. . ... ...
ROW 76 : ... .. 7 P81 ... ... : A#2 00 7 P8B ... ... : A#2 00 . P7B : 1-# 00 8 ... : ... .. . ... ... : G-4 01 6 ... ... : ... .. 7 ... ... : A#1 01 8 P9E ...
ROW 77 : ... .. . P85 ... ... : B-2 00 7 P74 ... ... : A-2 00 . P77 : ... .. 6 ... : ... .. . ... ... : ... .. . ... ... : ... .. 6 ... ... : ... .. . P7E ...
ROW 78 : G-3 00 7 P7F ... ... : ... .. . P7F ... ... : G#2 00 . P76 : ... .. 3 ... : ... .. . ... ... : ... .. 5 ... ... : ... .. . ... ... : A-1 01 8 P9F ...
ROW 79 : ... .. 8 P88 ... ... : ... .. 8 P88 ... ... : G-2 00 . ... : ... .. 1 ... : ... .. . ... ... : F-4 01 6 ... ... : ... .. 4 ... ... : ... .. . P7F ...
ROW 7A : G#3 00 8 P7F ... ... : C-3 00 8 P76 ... ... : F#2 00 . P78 : ... .. . ... : ... .. . ... ... : ... .. . ... ... : ... .. . ... ... : ... .. . P5F ...
ROW 7B : ... .. . ... ... ... : ... .. . ... ... ... : F-2 00 . P7C : ... .. 0 ... : ... .. . ... ... : ... .. 5 ... ... : ... .. . ... ... : G#1 01 8 P84 ...
ROW 7C : G-3 00 8 P88 ... ... : B-2 00 8 P88 ... ... : E-2 00 . P82 : 7-# 00 F ... : ... .. . ... ... : D-5 01 6 ... ... : D#4 01 7 ... ... : ... .. . P64 ...
ROW 7D : ... .. . P7F ... ... : ... .. . P7F ... ... : D#2 00 . P8A : ... .. C ... : ... .. . ... ... : ... .. . ... ... : ... .. 6 ... ... : G-1 01 8 P8E ...
ROW 7E : F#3 00 8 P85 ... ... : ... .. . P74 ... ... : D-2 00 . P95 : ... .. 6 ... : ... .. . ... ... : ... .. 5 ... ... : ... .. . ... ... : ... .. . P6E ...
ROW 7F : ... .. . P81 ... ... : A#2 00 8 P8B ... ... : ... .. . P75 : ... .. 3 ... : ... .. . ... ... : B-4 01 6 ... ... : ... .. 4 ... ... : F#1 01 8 P9B ...
ROW 80 : ... .. . P84 ... ... : B-2 00 8 P73 ... ... : C#2 00 . P82 : ... .. 2 ... : ... .. . ... ... : ... .. . ... ... : ... .. . ... ... : ... .. . P7B ...
ROW 81 : G-3 00 8 P7D ... ... : ... .. . P7D ... ... : C-2 00 . P92 : ... .. 0 ... : ... .. . ... ... : ... .. 5 ... ... : ... .. . ... ... : ... .. . P5B ...
ROW 82 : ... .. . P86 ... ... : ... .. . P86 ... ... : ... .. . P72 : 1-# 00 8 ... : ... .. . ... ... : G-4 01 6 ... ... : ... .. 7 ... ... : F-1 01 8 P8D ...
ROW 83 : G#3 00 8 P7E ... ... : C-3 00 8 P75 ... ... : B-1 00 . P85 : ... .. 6 ... : ... .. . ... ... : ... .. . ... ... : ... .. 6 ... ... : ... .. . P6D ...
ROW 84 : ... .. . P80 ... ... : ... .. . P77 ... ... : A#1 00 . P9B : ... .. 3 ... : ... .. . ... ... : ... .. 5 ... ... : ... .. . ... ... : E-1 01 8 PA4 ...
ROW 85 : G-3 00 9 ... ... ... : B-2 00 9 P80 ... ... : ... .. . P7B : ... .. 1 ... : ... .. . ... ... : F-4 01 6 ... ... : ... .. 4 ... ... : ... .. . P84 ...
ROW 86 : ... .. . ... ... ... : ... .. . ... ... ... : A-1 00 . P94 : ... .. . ... : ... .. . ... ... : ... .. . ... ... : ... .. . ... ... : ... .. . P64 ...
ROW 87 : ... .. . ... ... ... : ... .. . ... ... ... : ... .. . P74 : ... .. 0 ... : ... .. . ... ... : ... .. 5 ... ... : ... .. . ... ... : D#1 01 8 PA1 ...
ROW 88 : G#3 00 F ... ... ... : D-3 00 F ... ... ... : A-3 00 . P80 : ... .. . ... : ... .. . ... ... : F-5 01 9 ... V05 : F-4 01 7 ... ... : A-2 01 F P80 ...
ROW 89 : ... .. E ... ... ... : ... .. E ... ... ... : ... .. . ... : 9-# 00 F ... : ... .. . ... ... : ... .. 8 ... ... : ... .. 6 ... ... : ... .. D ... ...
ROW 8A : ... .. D ... ... ... : ... .. D ... ... ... : ... .. . ... : A-# 00 B ... : ... .. . ... ... : ... .. . ... ... : ... .. . ... ... : ... .. 8 ... ...
ROW 8B : ... .. A ... ... ... : ... .. A ... ... ... : ... .. . ... : B-# 00 B ... : ... .. . ... ... : --- .. . ... ... : ... .. 4 ... ... : ... .. . ... ...
ROW 8C : ... .. . ... ... ... : ... .. . ... ... ... : ... .. . ... : C-# 00 8 ... : ... .. . ... ... : ... .. . ... ... : ... .. . ... ... : ... .. . ... ...
ROW 8D : ... .. 0 ... ... ... : ... .. 0 ... ... ... : --- .. . ... : D-# 00 8 ... : ... .. . ... ... : ... .. . ... ... : ... .. . ... ... : --- .. . ... ...
ROW 8E : G#3 00 F P80 ... ... : D-3 00 F P80 ... ... : A-3 00 . ... : ... .. 0 ... : ... .. . ... ... : F-5 01 9 ... ... : ... .. 7 ... ... : A-2 01 F ... ...
ROW 8F : ... .. E ... ... ... : ... .. E ... ... ... : ... .. . ... : 9-# 00 F ... : ... .. . ... ... : ... .. 8 ... ... : ... .. 6 ... ... : ... .. D ... ...
ROW 90 : ... .. D ... ... ... : ... .. D ... ... ... : ... .. . ... : A-# 00 B ... : ... .. . ... ... : ... .. . ... ... : ... .. . ... ... : ... .. 8 ... ...
ROW 91 : ... .. A ... ... ... : ... .. A ... ... ... : ... .. . ... : B-# 00 B ... : ... .. . ... ... : --- .. . ... ... : ... .. 4 ... ... : ... .. . ... ...
ROW 92 : ... .. . ... ... ... : ... .. . ... ... ... : ... .. . ... : C-# 00 8 ... : ... .. . ... ... : ... .. . ... ... : ... .. . ... ... : ... .. . ... ...
ROW 93 : ... .. . ... ... ... : ... .. . ... ... ... : ... .. . ... : D-# 00 8 ... : ... .. . ... ... : ... .. . ... ... : ... .. . ... ... : ... .. . ... ...
ROW 94 : F-3 00 A P83 ... ... : C-3 00 A P7F ... ... : F#3 00 . ... : C-# 00 8 ... : ... .. . ... ... : F-5 01 4 ... ... : E-4 01 7 ... ... : G#2 01 8 P73 ...
ROW 95 : D#3 00 A P7B ... ... : A#2 00 A P83 ... ... : D#3 00 . P8A : ... .. 6 ... : ... .. . ... ... : ... .. . ... ... : ... .. 6 ... ... : F#2 01 8 P8E ...
ROW 96 : C#3 00 A P77 ... ... : G#2 00 A P8E ... ... : C#3 00 . P86 : ... .. 3 ... : ... .. . ... ... : ... .. . ... ... : ... .. . ... ... : F-2 01 8 P87 ...
ROW 97 : B-2 00 A P78 ... ... : G-2 00 A P7E ... ... : B-2 00 . P87 : ... .. 1 ... : ... .. . ... ... : --- .. . ... ... : ... .. 4 ... ... : E-2 01 8 P83 ...
ROW 98 : A-2 00 A P7F ... ... : F#2 00 A P70 ... ... : A-2 00 . P8E : ... .. . ... : ... .. . ... ... : ... .. . ... ... : ... .. . ... ... : D#2 01 8 P81 ...
ROW 99 : G-2 00 A P8E ... ... : E-2 00 A P8A ... ... : G#2 00 . P7D : ... .. 0 ... : ... .. . ... ... : ... .. . ... ... : ... .. . ... ... : D-2 01 8 P82 ...
ROW 9A : G#3 00 F P80 ... ... : D-3 00 F P80 ... ... : A-3 00 . P80 : ... .. . ... : ... .. . ... ... : F-5 01 9 ... ... : ... .. 7 ... ... : A-2 01 F P80 ...
ROW 9B : ... .. E ... ... ... : ... .. E ... ... ... : ... .. . ... : 7-# 00 F ... : ... .. . ... ... : ... .. 8 ... ... : ... .. 6 ... ... : ... .. D ... ...
ROW 9C : ... .. D ... ... ... : ... .. D ... ... ... : ... .. . ... : 8-# 00 B ... : ... .. . ... ... : ... .. . ... ... : ... .. . ... ... : ... .. 8 ... ...
ROW 9D : ... .. A ... ... ... : ... .. A ... ... ... : ... .. . ... : 9-# 00 B ... : ... .. . ... ... : --- .. . ... ... : ... .. 4 ... ... : ... .. . ... ...
ROW 9E : ... .. . ... ... ... : ... .. . ... ... ... : ... .. . ... : A-# 00 8 ... : ... .. . ... ... : ... .. . ... ... : ... .. . ... ... : ... .. . ... ...
ROW 9F : ... .. . ... ... ... : ... .. . ... ... ... : ... .. . ... : B-# 00 8 ... : ... .. . ... ... : ... .. . ... ... : ... .. . ... ... : ... .. . ... ...
ROW A0 : F#3 00 A P81 ... ... : C#3 00 A P77 ... ... : G-3 00 . P7F : C-# 00 8 ... : ... .. . ... ... : F-5 01 4 ... ... : F-4 01 7 ... ... : G#2 01 8 P83 ...
ROW A1 : E-3 00 A P86 ... ... : B-2 00 A P88 ... ... : F-3 00 . P82 : ... .. 6 ... : ... .. . ... ... : ... .. . ... ... : ... .. 6 ... ... : G-2 01 8 P87 ...
ROW A2 : D#3 00 A P7B ... ... : A#2 00 A P83 ... ... : D#3 00 . P8A : ... .. 3 ... : ... .. . ... ... : ... .. . ... ... : ... .. . ... ... : F#2 01 8 P8E ...
ROW A3 : C#3 00 A P87 ... ... : A-2 00 A P7F ... ... : D-3 00 . P7F : ... .. 1 ... : ... .. . ... ... : --- .. . ... ... : ... .. 4 ... ... : ... .. . P6E ...
ROW A4 : C-3 00 A P7F ... ... : G#2 00 A P7E ... ... : C#3 00 . P76 : ... .. . ... : ... .. . ... ... : ... .. . ... ... : ... .. . ... ... : F-2 01 8 P77 ...
ROW A5 : B-2 00 A P78 ... ... : G-2 00 A ... ... ... : B-2 00 . P87 : ... .. 0 ... : ... .. . ... ... : ... .. . ... ... : ... .. . ... ... : E-2 01 8 P83 ...
ROW A6 : G#2 00 F P80 ... ... : D-2 00 F P80 ... ... : A-2 00 . P80 : D-# 00 D ... : ... .. . ... ... : F-5 01 4 ... ... : ... .. 7 ... ... : A-1 01 F P80 ...
ROW A7 : ... .. E ... ... ... : ... .. E ... ... ... : ... .. . ... : ... .. . ... : ... .. . ... ... : ... .. . ... ... : ... .. 6 ... ... : ... .. D ... ...
ROW A8 : ... .. D ... ... ... : ... .. D ... ... ... : ... .. . ... : 9-# 00 D ... : ... .. . ... ... : ... .. . ... ... : ... .. . ... ... : ... .. 8 ... ...
ROW A9 : ... .. A ... ... ... : ... .. A ... ... ... : ... .. . ... : 7-# 00 6 ... : ... .. . ... ... : --- .. . ... ... : ... .. 4 ... ... : ... .. . ... ...
ROW AA : ... .. . ... ... ... : ... .. . ... ... ... : ... .. . ... : 3-# 00 1 ... : ... .. . ... ... : ... .. . ... ... : ... .. . ... ... : ... .. . ... ...
ROW AB : ... .. 0 ... ... ... : ... .. 0 ... ... ... : --- .. . ... : ... .. 0 ... : ... .. . ... ... : ... .. . ... ... : ... .. . ... ... : --- .. . P7F ...
ROW AC : G#3 00 F P80 ... ... : D-3 00 F P80 ... ... : A-3 00 . ... : D-# 00 D ... : ... .. . ... ... : G-5 01 9 ... ... : G-4 01 7 ... ... : A-2 01 F P80 ...
ROW AD : ... .. E ... ... ... : ... .. E ... ... ... : ... .. . ... : ... .. . ... : ... .. . ... ... : ... .. 8 ... ... : ... .. 6 ... ... : ... .. D ... ...
ROW AE : ... .. D ... ... ... : ... .. D ... ... ... : ... .. . ... : 9-# 00 D ... : ... .. . ... ... : ... .. . ... ... : ... .. . ... ... : ... .. 8 ... ...
ROW AF : ... .. A ... ... ... : ... .. A ... ... ... : ... .. . ... : 7-# 00 6 ... : ... .. . ... ... : --- .. . ... ... : ... .. 4 ... ... : ... .. . ... ...
ROW B0 : ... .. . ... ... ... : ... .. . ... ... ... : ... .. . ... : 3-# 00 1 ... : ... .. . ... ... : ... .. . ... ... : ... .. . ... ... : ... .. . ... ...
ROW B1 : ... .. 0 ... ... ... : ... .. 0 ... ... ... : --- .. . ... : ... .. 0 ... : ... .. . ... ... : ... .. . ... ... : ... .. . ... ... : --- .. . ... ...
ROW B2 : G#3 00 F P80 ... ... : D-3 00 F P80 ... ... : A-3 00 . ... : 7-# 00 8 ... : ... .. . ... ... : G-5 01 9 ... ... : ... .. 7 ... ... : A-2 01 F ... ...
ROW B3 : ... .. E ... ... ... : ... .. E ... ... ... : ... .. . ... : ... .. 6 ... : ... .. . ... ... : ... .. 8 ... ... : ... .. 6 ... ... : ... .. D ... ...
ROW B4 : ... .. D ... ... ... : ... .. D ... ... ... : ... .. . ... : ... .. 3 ... : ... .. . ... ... : ... .. . ... ... : ... .. . ... ... : ... .. 8 ... ...
ROW B5 : ... .. A ... ... ... : ... .. A ... ... ... : ... .. . ... : ... .. 1 ... : ... .. . ... ... : --- .. . ... ... : ... .. 4 ... ... : ... .. . ... ...
ROW B6 : ... .. . ... ... ... : ... .. . ... ... ... : ... .. . ... : ... .. . ... : ... .. . ... ... : ... .. . ... ... : ... .. . ... ... : ... .. . ... ...
ROW B7 : ... .. . ... ... ... : ... .. . ... ... ... : ... .. . ... : ... .. 0 ... : ... .. . ... ... : ... .. . ... ... : ... .. . ... ... : ... .. . ... ...
ROW B8 : F#3 00 A P81 ... ... : C#3 00 A P77 ... ... : G-3 00 . P7F : 8-# 00 D ... : ... .. . ... ... : G-5 01 4 ... ... : F-4 01 7 ... ... : G#2 01 8 P83 ...
ROW B9 : E-3 00 A P86 ... ... : B-2 00 A P88 ... ... : F-3 00 . P82 : ... .. . ... : ... .. . ... ... : ... .. . ... ... : ... .. 6 ... ... : G-2 01 8 P87 ...
ROW BA : D#3 00 A P7B ... ... : A#2 00 A P83 ... ... : D#3 00 . P8A : 4-# 00 D ... : ... .. . ... ... : ... .. . ... ... : ... .. . ... ... : F#2 01 8 P8E ...
ROW BB : C#3 00 A P87 ... ... : A-2 00 A P7F ... ... : D-3 00 . P7F : 2-# 00 6 ... : ... .. . ... ... : --- .. . ... ... : ... .. 4 ... ... : ... .. . P6E ...
ROW BC : C-3 00 A P7F ... ... : G#2 00 A P7E ... ... : C#3 00 . P76 : E-# 00 1 ... : ... .. . ... ... : ... .. . ... ... : ... .. . ... ... : F-2 01 8 P77 ...
ROW BD : B-2 00 A P78 ... ... : G-2 00 A ... ... ... : B-2 00 . P87 : ... .. 0 ... : ... .. . ... ... : ... .. . ... ... : ... .. . ... ... : E-2 01 8 P83 ...
ROW BE : G#3 00 F P80 ... ... : D-3 00 F P80 ... ... : A-3 00 . P80 : 9-# 00 8 ... : ... .. . ... ... : G-5 01 9 ... ... : ... .. 7 ... ... : A-2 01 F P80 ...
ROW BF : ... .. E ... ... ... : ... .. E ... ... ... : ... .. . ... : ... .. 6 ... : ... .. . ... ... : ... .. 8 ... ... : ... .. 6 ... ... : ... .. D ... ...
ROW C0 : ... .. D ... ... ... : ... .. D ... ... ... : ... .. . ... : ... .. 3 ... : ... .. . ... ... : ... .. . ... ... : ... .. . ... ... : ... .. 8 ... ...
ROW C1 : ... .. A ... ... ... : ... .. A ... ... ... : ... .. . ... : ... .. 1 ... : ... .. . ... ... : --- .. . ... ... : ... .. 4 ... ... : ... .. . ... ...
ROW C2 : ... .. . ... ... ... : ... .. . ... ... ... : ... .. . ... : ... .. . ... : ... .. . ... ... : ... .. . ... ... : ... .. . ... ... : ... .. . ... ...
ROW C3 : ... .. . ... ... ... : ... .. . ... ... ... : ... .. . ... : ... .. 0 ... : ... .. . ... ... : ... .. . ... ... : ... .. . ... ... : ... .. . ... ...
ROW C4 : ... .. . ... ... ... : ... .. . ... ... ... : ... .. . ... : 7-# 00 F ... : ... .. . ... ... : G-5 01 4 ... ... : G-4 01 7 ... ... : ... .. . ... ...
ROW C5 : ... .. . ... ... ... : ... .. . ... ... ... : ... .. . ... : ... .. C ... : ... .. . ... ... : ... .. . ... ... : ... .. 6 ... ... : ... .. . ... ...
ROW C6 : ... .. . ... ... ... : ... .. . ... ... ... : ... .. . ... : ... .. 6 ... : ... .. . ... ... : ... .. . ... ... : ... .. . ... ... : ... .. . ... ...
ROW C7 : ... .. . ... ... ... : ... .. . ... ... ... : G-3 00 . P7F : ... .. 3 ... : ... .. . ... ... : --- .. . ... ... : ... .. 4 ... ... : G#2 01 8 P83 ...
ROW C8 : ... .. 2 ... ... ... : ... .. 2 ... ... ... : F-3 00 . P82 : ... .. 2 ... : ... .. . ... ... : ... .. . ... ... : ... .. . ... ... : G-2 01 8 P87 ...
ROW C9 : ... .. . ... ... ... : ... .. . ... ... ... : D#3 00 . P8A : ... .. 0 ... : ... .. . ... ... : ... .. . ... ... : ... .. . ... ... : F#2 01 8 P8E ...
ROW CA : ... .. . ... ... ... : ... .. . ... ... ... : D-3 00 . P7F : 5-# 00 8 ... : ... .. . ... ... : G-5 01 4 ... ... : ... .. 7 ... ... : ... .. . P6E ...
ROW CB : ... .. 1 ... ... ... : ... .. 1 ... ... ... : C#3 00 . P76 : ... .. 6 ... : ... .. . ... ... : ... .. . ... ... : ... .. 6 ... ... : F-2 01 8 P77 ...
ROW CC : ... .. . ... ... ... : ... .. . ... ... ... : B-2 00 . P87 : ... .. 3 ... : ... .. . ... ... : ... .. . ... ... : ... .. . ... ... : E-2 01 8 P83 ...
ROW CD : ... .. . ... ... ... : ... .. . ... ... ... : A#2 00 . P82 : ... .. 1 ... : ... .. . ... ... : --- .. . ... ... : ... .. 4 ... ... : D#2 01 8 P91 ...
ROW CE : ... .. 0 ... ... ... : ... .. 0 ... ... ... : A-2 00 . P7E : ... .. . ... : ... .. . ... ... : ... .. . ... ... : ... .. . ... ... : ... .. . P71 ...
ROW CF : ... .. . ... ... ... : ... .. . ... ... ... : G#2 00 . P7D : ... .. 0 ... : ... .. . ... ... : ... .. . ... ... : ... .. . ... ... : D-2 01 8 P82 ...
ROW D0 : G#1 00 C P80 V01 ... : D#3 00 F P80 ... ... : G-4 00 . P80 : 8-# 00 D ... : ... .. . ... ... : G#4 01 8 ... V03 : D#4 01 8 ... V03 : G#1 01 F P80 ...
ROW D1 : ... .. B ... ... ... : ... .. E ... ... ... : A-3 00 . ... : ... .. . ... : ... .. . ... ... : ... .. 7 ... ... : ... .. 7 ... ... : ... .. D ... ...
ROW D2 : ... .. A ... ... ... : ... .. D ... ... ... : D-3 00 . ... : ... .. . ... : ... .. . ... ... : ... .. 6 ... ... : ... .. 6 ... ... : ... .. 8 ... ...
ROW D3 : ... .. 8 ... ... ... : ... .. A ... ... ... : C#3 00 . ... : B-# 00 D ... : ... .. . ... ... : ... .. 5 ... ... : ... .. 5 ... ... : ... .. . ... ...
ROW D4 : ... .. 1 ... ... ... : ... .. . ... ... ... : G#2 00 . ... : ... .. . ... : ... .. . ... ... : ... .. . ... ... : ... .. . ... ... : ... .. . ... ...
ROW D5 : ... .. . ... ... ... : ... .. . ... ... ... : ... .. . ... : ... .. . ... : ... .. . ... ... : ... .. 4 ... ... : ... .. 4 ... ... : ... .. . ... ...
ROW D6 : ... .. C ... ... ... : ... .. . ... ... ... : ... .. . ... : ... .. . ... : ... .. . ... ... : ... .. . ... ... : ... .. . ... ... : ... .. . ... ...
ROW D7 : ... .. B ... ... ... : ... .. . ... ... ... : ... .. . ... : ... .. . ... : ... .. . ... ... : ... .. . ... ... : ... .. . ... ... : ... .. . ... ...
ROW D8 : ... .. A ... ... ... : ... .. . ... ... ... : ... .. . ... : ... .. . ... : ... .. . ... ... : ... .. . ... ... : ... .. . ... ... : ... .. . ... ...
ROW D9 : ... .. 8 ... ... ... : ... .. 0 ... ... ... : G-2 00 . ... : ... .. A ... : ... .. . ... ... : E-4 01 4 P83 ... : C-4 01 4 P82 ... : ... .. . P60 ...
ROW DA : ... .. 1 ... ... ... : ... .. . ... ... ... : F#2 00 . P82 : ... .. . ... : ... .. . ... ... : C#4 01 4 ... ... : A#3 01 4 P7C ... : G-1 01 8 P8A ...
ROW DB : ... .. . ... ... ... : ... .. . ... ... ... : F-2 00 . P86 : ... .. . ... : ... .. . ... ... : B-3 01 4 P7B ... : G#3 01 4 P79 ... : ... .. . P6A ...
ROW DC : D#2 00 C ... ... ... : E-3 00 F P80 ... ... : E-2 00 . P8C : ... .. 9 ... : ... .. . ... ... : G#3 01 4 P86 ... : F#3 01 4 P7A ... : F#1 01 8 P97 ...
ROW DD : ... .. B ... ... ... : ... .. E ... ... ... : D#2 00 . P94 : ... .. . ... : ... .. . ... ... : F#3 01 4 P87 ... : E-3 01 4 P7F ... : ... .. . P77 ...
ROW DE : ... .. A ... ... ... : ... .. D ... ... ... : ... .. . P74 : ... .. . ... : ... .. . ... ... : F-3 01 4 P79 ... : D-3 01 4 P89 ... : F-1 01 8 PA9 ...
ROW DF : ... .. 8 ... ... ... : ... .. 0 ... ... ... : D-2 00 . P7F : ... .. 8 ... : ... .. . ... ... : D#3 01 4 P81 ... : C#3 01 4 P80 ... : ... .. . P89 ...
ROW E0 : ... .. . ... ... ... : ... .. . ... ... ... : C#2 00 . P8C : ... .. . ... : ... .. . ... ... : D-3 01 4 P76 ... : C-3 01 4 P78 ... : ... .. . P69 ...
ROW E1 : ... .. . ... ... ... : ... .. . ... ... ... : ... .. . P6C : ... .. . ... : ... .. . ... ... : C-3 01 4 P85 ... : A#2 01 4 P8C ... : E-1 01 8 PA0 ...
ROW E2 : D-2 00 C ... ... ... : E-3 00 F P80 ... ... : G-5 00 . P80 : ... .. 7 ... : ... .. . ... ... : G#4 01 8 P80 ... : D#4 01 8 P80 ... : G#2 01 F P80 ...
ROW E3 : ... .. B ... ... ... : ... .. E ... ... ... : A-4 00 . ... : ... .. . ... : ... .. . ... ... : ... .. 7 ... ... : ... .. 7 ... ... : ... .. D ... ...
ROW E4 : ... .. A ... ... ... : ... .. D ... ... ... : D-4 00 . ... : ... .. . ... : ... .. . ... ... : ... .. 6 ... ... : ... .. 6 ... ... : ... .. 8 ... ...
ROW E5 : ... .. 8 ... ... ... : ... .. A ... ... ... : C#4 00 . ... : ... .. 6 ... : ... .. . ... ... : ... .. 5 ... ... : ... .. 5 ... ... : ... .. . ... ...
ROW E6 : ... .. 1 ... ... ... : ... .. . ... ... ... : G#3 00 . ... : ... .. . ... : ... .. . ... ... : ... .. . ... ... : ... .. . ... ... : ... .. . ... ...
ROW E7 : ... .. . ... ... ... : ... .. . ... ... ... : --- .. . ... : ... .. . ... : ... .. . ... ... : ... .. 4 ... ... : ... .. 4 ... ... : --- .. . P7F ...
ROW E8 : D#2 00 C ... ... ... : ... .. . ... ... ... : F#3 00 . ... : ... .. 5 ... : ... .. . ... ... : ... .. . ... ... : ... .. . ... ... : F#2 01 F P80 ...
ROW E9 : ... .. B ... ... ... : ... .. . ... ... ... : ... .. . ... : ... .. . ... : ... .. . ... ... : ... .. . ... ... : ... .. . ... ... : ... .. D ... ...
ROW EA : ... .. A ... ... ... : ... .. . ... ... ... : ... .. . ... : ... .. . ... : ... .. . ... ... : ... .. . ... ... : ... .. . ... ... : ... .. 8 ... ...
ROW EB : ... .. 8 ... ... ... : ... .. . ... ... ... : ... .. . ... : ... .. 4 ... : ... .. . ... ... : E-4 01 4 P83 ... : C-4 01 4 P82 ... : ... .. . ... ...
ROW EC : ... .. . ... ... ... : ... .. . ... ... ... : ... .. . ... : ... .. . ... : ... .. . ... ... : C#4 01 4 ... ... : A#3 01 4 P7C ... : ... .. . ... ...
ROW ED : ... .. . ... ... ... : ... .. . ... ... ... : --- .. . ... : ... .. . ... : ... .. . ... ... : B-3 01 4 P7B ... : G#3 01 4 P79 ... : --- .. . P84 ...
ROW EE : B-1 00 C ... ... ... : ... .. . ... ... ... : G#3 00 . ... : ... .. 3 ... : ... .. . ... ... : G#3 01 4 P86 ... : F#3 01 4 P7A ... : G#2 01 F P80 ...
ROW EF : ... .. B ... ... ... : ... .. . ... ... ... : ... .. . ... : ... .. . ... : ... .. . ... ... : F#3 01 4 P87 ... : E-3 01 4 P7F ... : ... .. D ... ...
ROW F0 : ... .. A ... ... ... : ... .. . ... ... ... : ... .. . ... : ... .. . ... : ... .. . ... ... : F-3 01 4 P79 ... : D-3 01 4 P89 ... : ... .. 8 ... ...
ROW F1 : ... .. 8 ... ... ... : F-3 00 A P77 ... ... : --- .. . ... : ... .. 2 ... : ... .. . ... ... : D#3 01 4 P81 ... : C#3 01 4 P80 ... : --- .. . P7F ...
ROW F2 : ... .. 1 ... ... ... : ... .. . P7D ... ... : ... .. . ... : ... .. . ... : ... .. . ... ... : D-3 01 4 P76 ... : C-3 01 4 P78 ... : ... .. . ... ...
ROW F3 : ... .. . ... ... ... : ... .. . P7B ... ... : ... .. . ... : ... .. . ... : ... .. . ... ... : C-3 01 4 P85 ... : A#2 01 4 P8C ... : ... .. . ... ...
ROW F4 : G-2 00 C ... ... ... : E-3 00 A P84 ... ... : D#6 00 . ... : 7-# 00 F ... : ... .. . ... ... : G#4 01 8 P80 ... : D#4 01 8 P80 ... : E-3 01 F P80 ...
ROW F5 : ... .. B ... ... ... : ... .. . P7C ... ... : F-5 00 . ... : ... .. C ... : ... .. . ... ... : ... .. 7 ... ... : ... .. 7 ... ... : ... .. D ... ...
ROW F6 : ... .. A ... ... ... : D#3 00 A P87 ... ... : A#4 00 . ... : ... .. 6 ... : ... .. . ... ... : ... .. 6 ... ... : ... .. 6 ... ... : ... .. 8 ... ...
ROW F7 : ... .. 8 ... ... ... : ... .. . P85 ... ... : A-4 00 . ... : ... .. 3 ... : ... .. . ... ... : ... .. 5 ... ... : ... .. 5 ... ... : ... .. . ... ...
ROW F8 : ... .. . ... ... ... : E-3 00 A P76 ... ... : E-4 00 . ... : ... .. 2 ... : ... .. . ... ... : ... .. . ... ... : ... .. . ... ... : ... .. . ... ...
ROW F9 : ... .. . ... ... ... : ... .. . P80 ... ... : ... .. . ... : ... .. 0 ... : ... .. . ... ... : ... .. 4 ... ... : ... .. 4 ... ... : ... .. . ... ...
ROW FA : ... .. C ... ... ... : ... .. . P89 ... ... : ... .. . ... : 1-# 00 8 ... : ... .. . ... ... : ... .. . ... ... : ... .. . ... ... : ... .. . ... ...
ROW FB : ... .. B ... ... ... : F-3 00 A P7D ... ... : ... .. . ... : ... .. 6 ... : ... .. . ... ... : ... .. . ... ... : ... .. . ... ... : ... .. . ... ...
ROW FC : ... .. A ... ... ... : ... .. . P7B ... ... : ... .. . ... : ... .. 3 ... : ... .. . ... ... : ... .. . ... ... : ... .. . ... ... : ... .. . ... ...
ROW FD : ... .. 8 ... ... ... : E-3 00 A P86 ... ... : ... .. . ... : ... .. 1 ... : ... .. . ... ... : E-4 01 4 P83 ... : C-4 01 4 P82 ... : ... .. . ... ...
ROW FE : ... .. 1 ... ... ... : ... .. . P7D ... ... : ... .. . ... : ... .. . ... : ... .. . ... ... : C#4 01 4 ... ... : A#3 01 4 P7C ... : ... .. . ... ...
ROW FF : ... .. . ... ... ... : D#3 00 A P88 ... ... : ... .. . ... : ... .. 0 ... : ... .. . ... ... : B-3 01 4 P7B ... : G#3 01 4 P79 ... : ... .. . ... ...

PATTERN 03
ROW 00 : G#1 00 C ... ... ... : ... .. . P85 ... ... : D#4 00 . ... : 7-# 00 F ... : ... .. . ... ... : G#3 01 4 P86 ... : F#3 01 4 P7A ... : D#3 01 F ... ...
ROW 01 : ... .. B ... ... ... : ... .. . P89 ... ... : ... .. . ... : ... .. C ... : ... .. . ... ... : F#3 01 4 P87 ... : E-3 01 4 P7F ... : ... .. D ... ...
ROW 02 : ... .. A ... ... ... : E-3 00 A P7F ... ... : ... .. . ... : ... .. 6 ... : ... .. . ... ... : F-3 01 4 P79 ... : D-3 01 4 P89 ... : ... .. 8 ... ...
ROW 03 : ... .. 8 ... ... ... : ... .. . P88 ... ... : ... .. . ... : ... .. 3 ... : ... .. . ... ... : D#3 01 4 P81 ... : C#3 01 4 P80 ... : ... .. . ... ...
ROW 04 : ... .. 1 ... ... ... : F-3 00 A P7C ... ... : ... .. . ... : ... .. 2 ... : ... .. . ... ... : D-3 01 4 P76 ... : C-3 01 4 P78 ... : ... .. . ... ...
ROW 05 : ... .. . ... ... ... : ... .. . ... ... ... : ... .. . ... : ... .. 0 ... : ... .. . ... ... : C-3 01 4 P85 ... : A#2 01 4 P8C ... : ... .. . ... ...
ROW 06 : F#2 00 C ... ... ... : D#3 00 F P80 ... ... : ... .. . ... : 1-# 00 8 ... : ... .. . ... ... : G#4 01 8 P80 ... : D#4 01 8 P80 ... : ... .. . ... ...
ROW 07 : ... .. B ... ... ... : ... .. E ... ... ... : ... .. . ... : ... .. 6 ... : ... .. . ... ... : ... .. 7 ... ... : ... .. 7 ... ... : ... .. . ... ...
ROW 08 : ... .. A ... ... ... : ... .. D ... ... ... : ... .. . ... : ... .. 3 ... : ... .. . ... ... : ... .. 6 ... ... : ... .. 6 ... ... : ... .. . ... ...
ROW 09 : ... .. 8 ... ... ... : ... .. A ... ... ... : ... .. . ... : ... .. 1 ... : ... .. . ... ... : ... .. 5 ... ... : ... .. 5 ... ... : ... .. . ... ...
ROW 0A : ... .. . ... ... ... : ... .. 2 ... ... ... : ... .. . ... : ... .. . ... : ... .. . ... ... : ... .. . ... ... : ... .. . ... ... : ... .. . ... ...
ROW 0B : ... .. . ... ... ... : ... .. . ... ... ... : --- .. . ... : ... .. 0 ... : ... .. . ... ... : ... .. 4 ... ... : ... .. 4 ... ... : --- .. . P7F ...
ROW 0C : ... .. C ... ... ... : ... .. F ... ... ... : G#3 00 . ... : 7-# 00 F ... : ... .. . ... ... : ... .. . ... ... : ... .. . ... ... : G#2 01 F P80 ...
ROW 0D : ... .. B ... ... ... : ... .. E ... ... ... : ... .. . ... : ... .. C ... : ... .. . ... ... : ... .. . ... ... : ... .. . ... ... : ... .. D ... ...
ROW 0E : ... .. A ... ... ... : ... .. D ... ... ... : ... .. . ... : ... .. 6 ... : ... .. . ... ... : ... .. . ... ... : ... .. . ... ... : ... .. 8 ... ...
ROW 0F : ... .. 8 ... ... ... : ... .. A ... ... ... : ... .. . ... : ... .. 3 ... : ... .. . ... ... : E-4 01 4 P83 ... : C-4 01 4 P82 ... : ... .. . ... ...
ROW 10 : ... .. 1 ... ... ... : ... .. 2 ... ... ... : ... .. . ... : ... .. 2 ... : ... .. . ... ... : C#4 01 4 ... ... : A#3 01 4 P7C ... : ... .. . ... ...
ROW 11 : ... .. . ... ... ... : ... .. . ... ... ... : ... .. . ... : ... .. 0 ... : ... .. . ... ... : B-3 01 4 P7B ... : G#3 01 4 P79 ... : ... .. . ... ...
ROW 12 : G#1 00 C ... ... ... : D#4 00 F ... ... ... : ... .. . ... : 1-# 00 8 ... : ... .. . ... ... : G#3 01 4 P86 ... : F#3 01 4 P7A ... : ... .. . ... ...
ROW 13 : ... .. B ... ... ... : ... .. E ... ... ... : ... .. . ... : ... .. 6 ... : ... .. . ... ... : F#3 01 4 P87 ... : E-3 01 4 P7F ... : ... .. . ... ...
ROW 14 : ... .. A ... ... ... : ... .. D ... ... ... : ... .. . ... : ... .. 3 ... : ... .. . ... ... : F-3 01 4 P79 ... : D-3 01 4 P89 ... : ... .. . ... ...
ROW 15 : ... .. 8 ... ... ... : ... .. A ... ... ... : ... .. . ... : ... .. 1 ... : ... .. . ... ... : D#3 01 4 P81 ... : C#3 01 4 P80 ... : ... .. . ... ...
ROW 16 : ... .. 1 ... ... ... : ... .. . ... ... ... : ... .. . ... : ... .. . ... : ... .. . ... ... : D-3 01 4 P76 ... : C-3 01 4 P78 ... : ... .. . ... ...
ROW 17 : ... .. . ... ... ... : ... .. . ... ... ... : --- .. . ... : ... .. 0 ... : ... .. . ... ... : C-3 01 4 P85 ... : A#2 01 4 P8C ... : --- .. . P7F ...
ROW 18 : F-2 00 C ... ... ... : ... .. F ... ... ... : G-3 00 . ... : ... .. F ... : ... .. . ... ... : G-4 01 8 P80 ... : D-4 01 8 P80 ... : G#0 01 F P80 ...
ROW 19 : ... .. B ... ... ... : ... .. E ... ... ... : A-2 00 . ... : ... .. C ... : ... .. . ... ... : ... .. 7 ... ... : ... .. 7 ... ... : ... .. D ... ...
ROW 1A : ... .. A ... ... ... : ... .. D ... ... ... : D-2 00 . ... : ... .. 6 ... : ... .. . ... ... : ... .. 6 ... ... : ... .. 6 ... ... : ... .. 8 ... ...
ROW 1B : ... .. 8 ... ... ... : ... .. A ... ... ... : C#2 00 . ... : ... .. 3 ... : ... .. . ... ... : ... .. 5 ... ... : ... .. 5 ... ... : ... .. . ... ...
ROW 1C : ... .. . ... ... ... : ... .. 2 ... ... ... : G#1 00 . ... : ... .. 2 ... : ... .. . ... ... : ... .. . ... ... : ... .. . ... ... : ... .. . ... ...
ROW 1D : ... .. . ... ... ... : ... .. . ... ... ... : ... .. . ... : ... .. 0 ... : ... .. . ... ... : ... .. 4 ... ... : ... .. 4 ... ... : ... .. . ... ...
ROW 1E : ... .. C ... ... ... : D-4 00 F ... ... ... : ... .. . ... : C-# 00 8 ... : ... .. . ... ... : ... .. . ... ... : ... .. . ... ... : ... .. . ... ...
ROW 1F : ... .. B ... ... ... : ... .. E ... ... ... : ... .. . ... : ... .. 6 ... : ... .. . ... ... : ... .. . ... ... : ... .. . ... ... : ... .. . ... ...
ROW 20 : ... .. A ... ... ... : ... .. D ... ... ... : ... .. . ... : ... .. 3 ... : ... .. . ... ... : ... .. . ... ... : ... .. . ... ... : ... .. . ... ...
ROW 21 : ... .. 8 ... ... ... : ... .. A ... ... ... : G-1 00 . PA0 : ... .. 1 ... : ... .. . ... ... : D#4 01 4 P85 ... : B-3 01 4 P84 ... : ... .. . P60 ...
ROW 22 : ... .. 1 ... ... ... : ... .. 2 ... ... ... : ... .. . P80 : ... .. . ... : ... .. . ... ... : C#4 01 4 P7B ... : A-3 01 4 P80 ... : ... .. . P40 ...
ROW 23 : ... .. . ... ... ... : ... .. . ... ... ... : ... .. . P60 : ... .. 0 ... : ... .. . ... ... : A#3 01 4 P81 ... : G-3 01 4 P7F ... : G-0 01 8 PB2 ...
ROW 24 : B-1 00 C ... ... ... : ... .. F ... ... ... : F#1 00 . P84 : ... .. 8 ... : ... .. . ... ... : G#3 01 4 P7E ... : F-3 01 4 P82 ... : ... .. . P92 ...
ROW 25 : ... .. B ... ... ... : ... .. E ... ... ... : ... .. . P64 : ... .. 6 ... : ... .. . ... ... : F#3 01 4 P7F ... : D#3 01 4 P8A ... : ... .. . P72 ...
ROW 26 : ... .. A ... ... ... : ... .. D ... ... ... : F-1 00 . P8C : ... .. 3 ... : ... .. . ... ... : E-3 01 4 P84 ... : D-3 01 4 P7F ... : ... .. . P52 ...
ROW 27 : ... .. 8 ... ... ... : ... .. A ... ... ... : ... .. . P6C : ... .. 1 ... : ... .. . ... ... : D#3 01 4 P79 ... : C#3 01 4 P76 ... : F#0 01 8 PCD ...
ROW 28 : ... .. 1 ... ... ... : ... .. 2 ... ... ... : E-1 00 . P98 : ... .. . ... : ... .. . ... ... : C#3 01 4 P85 ... : B-2 01 4 P87 ... : ... .. . PAD ...
ROW 29 : ... .. . ... ... ... : ... .. . ... ... ... : ... .. . P78 : ... .. 0 ... : ... .. . ... ... : C-3 01 4 P7D ... : A#2 01 4 P82 ... : ... .. . P8D ...
ROW 2A : ... .. C ... ... ... : ... .. F ... ... ... : G#2 00 . P80 : 1-# 00 F ... : ... .. . ... ... : G-4 01 8 P80 ... : D-4 01 8 P80 ... : G#1 01 F P80 ...
ROW 2B : ... .. B ... ... ... : ... .. E ... ... ... : ... .. . ... : ... .. C ... : ... .. . ... ... : ... .. 7 ... ... : ... .. 7 ... ... : ... .. D ... ...
ROW 2C : ... .. A ... ... ... : ... .. D ... ... ... : ... .. . ... : ... .. 6 ... : ... .. . ... ... : ... .. 6 ... ... : ... .. 6 ... ... : ... .. 8 ... ...
ROW 2D : ... .. 8 ... ... ... : ... .. A ... ... ... : ... .. . ... : ... .. 3 ... : ... .. . ... ... : ... .. 5 ... ... : ... .. 5 ... ... : ... .. . ... ...
ROW 2E : ... .. 1 ... ... ... : ... .. . ... ... ... : ... .. . ... : ... .. 2 ... : ... .. . ... ... : ... .. . ... ... : ... .. . ... ... : ... .. . ... ...
ROW 2F : ... .. . ... ... ... : ... .. . ... ... ... : ... .. . ... : ... .. 0 ... : ... .. . ... ... : ... .. 4 ... ... : ... .. 4 ... ... : ... .. . ... ...
ROW 30 : D-2 00 C ... ... ... : ... .. . ... ... ... : F#2 00 . ... : C-# 00 8 ... : ... .. . ... ... : ... .. . ... ... : ... .. . ... ... : F#1 01 F ... ...
ROW 31 : ... .. B ... ... ... : ... .. . ... ... ... : ... .. . ... : ... .. 6 ... : ... .. . ... ... : ... .. . ... ... : ... .. . ... ... : ... .. D ... ...
ROW 32 : ... .. A ... ... ... : ... .. . ... ... ... : ... .. . ... : ... .. 3 ... : ... .. . ... ... : ... .. . ... ... : ... .. . ... ... : ... .. 8 ... ...
ROW 33 : ... .. 8 ... ... ... : ... .. . ... ... ... : ... .. . ... : ... .. 1 ... : ... .. . ... ... : D#4 01 4 P85 ... : B-3 01 4 P84 ... : ... .. . ... ...
ROW 34 : ... .. 1 ... ... ... : ... .. . ... ... ... : ... .. . ... : ... .. . ... : ... .. . ... ... : C#4 01 4 P7B ... : A-3 01 4 P80 ... : ... .. . ... ...
ROW 35 : ... .. . ... ... ... : ... .. . ... ... ... : --- .. . ... : ... .. 0 ... : ... .. . ... ... : A#3 01 4 P81 ... : G-3 01 4 P7F ... : --- .. . P81 ...
ROW 36 : ... .. C ... ... ... : ... .. . ... ... ... : G#2 00 . ... : ... .. 8 ... : ... .. . ... ... : G#3 01 4 P7E ... : F-3 01 4 P82 ... : G#1 01 F P80 ...
ROW 37 : ... .. B ... ... ... : ... .. . ... ... ... : ... .. . ... : ... .. 6 ... : ... .. . ... ... : F#3 01 4 P7F ... : D#3 01 4 P8A ... : ... .. D ... ...
ROW 38 : ... .. A ... ... ... : ... .. . ... ... ... : ... .. . ... : ... .. 3 ... : ... .. . ... ... : E-3 01 4 P84 ... : D-3 01 4 P7F ... : ... .. 8 ... ...
ROW 39 : ... .. 8 ... ... ... : ... .. . ... ... ... : ... .. . ... : ... .. 1 ... : ... .. . ... ... : D#3 01 4 P79 ... : C#3 01 4 P76 ... : ... .. . ... ...
ROW 3A : ... .. 1 ... ... ... : ... .. . ... ... ... : ... .. . ... : ... .. . ... : ... .. . ... ... : C#3 01 4 P85 ... : B-2 01 4 P87 ... : ... .. . ... ...
ROW 3B : ... .. . ... ... ... : ... .. . ... ... ... : ... .. . ... : ... .. 0 ... : ... .. . ... ... : C-3 01 4 P7D ... : A#2 01 4 P82 ... : ... .. . ... ...
ROW 3C : C#2 00 C ... ... ... : ... .. . ... ... ... : G-5 00 . ... : 7-# 00 F ... : ... .. . ... ... : G-4 01 8 P80 ... : D-4 01 8 P80 ... : G#2 01 F ... ...
ROW 3D : ... .. B ... ... ... : ... .. . ... ... ... : A-4 00 . ... : ... .. C ... : ... .. . ... ... : ... .. 7 ... ... : ... .. 7 ... ... : ... .. D ... ...
ROW 3E : ... .. A ... ... ... : ... .. . ... ... ... : D-4 00 . ... : ... .. 6 ... : ... .. . ... ... : ... .. 6 ... ... : ... .. 6 ... ... : ... .. 8 ... ...
ROW 3F : ... .. 8 ... ... ... : ... .. . ... ... ... : C#4 00 . ... : ... .. 3 ... : ... .. . ... ... : ... .. 5 ... ... : ... .. 5 ... ... : ... .. . ... ...
ROW 40 : ... .. . ... ... ... : ... .. . ... ... ... : G#3 00 . ... : ... .. 2 ... : ... .. . ... ... : ... .. . ... ... : ... .. . ... ... : ... .. . ... ...
ROW 41 : ... .. . ... ... ... : ... .. . ... ... ... : --- .. . ... : ... .. 0 ... : ... .. . ... ... : ... .. 4 ... ... : ... .. 4 ... ... : --- .. . P7F ...
ROW 42 : ... .. C ... ... ... : D#4 00 A ... ... ... : F#3 00 . ... : ... .. 8 ... : ... .. . ... ... : ... .. . ... ... : ... .. . ... ... : F#2 01 F P80 ...
ROW 43 : ... .. B ... ... ... : E-4 00 A P7C ... ... : ... .. . ... : ... .. 6 ... : ... .. . ... ... : ... .. . ... ... : ... .. . ... ... : ... .. D ... ...
ROW 44 : ... .. A ... ... ... : D#4 00 A P84 ... ... : ... .. . ... : ... .. 3 ... : ... .. . ... ... : ... .. . ... ... : ... .. . ... ... : ... .. 8 ... ...
ROW 45 : ... .. 8 ... ... ... : D-4 00 A ... ... ... : ... .. . ... : ... .. 1 ... : ... .. . ... ... : ... .. . ... ... : ... .. . ... ... : ... .. . ... ...
ROW 46 : ... .. 1 ... ... ... : ... .. . P7C ... ... : ... .. . ... : ... .. . ... : ... .. . ... ... : ... .. . ... ... : ... .. . ... ... : ... .. . ... ...
ROW 47 : ... .. . ... ... ... : C#4 00 A P7E ... ... : --- .. . ... : ... .. 0 ... : ... .. . ... ... : ... .. . ... ... : ... .. . ... ... : --- .. . P84 ...
ROW 48 : G#1 00 C ... ... ... : ... .. . P7C ... ... : B-3 00 . ... : 4-# 00 F ... : ... .. . ... ... : ... .. 8 ... ... : ... .. 8 ... ... : B-2 01 F P80 ...
ROW 49 : ... .. B ... ... ... : ... .. . P82 ... ... : ... .. . ... : ... .. C ... : ... .. . ... ... : ... .. 7 ... ... : ... .. 7 ... ... : ... .. D ... ...
ROW 4A : ... .. A ... ... ... : D-4 00 A P80 ... ... : ... .. . ... : ... .. 6 ... : ... .. . ... ... : ... .. 6 ... ... : ... .. 6 ... ... : ... .. 8 ... ...
ROW 4B : ... .. 8 ... ... ... : D#4 00 A P7F ... ... : ... .. . ... : ... .. 3 ... : ... .. . ... ... : ... .. 5 ... ... : ... .. 5 ... ... : ... .. . ... ...
ROW 4C : ... .. 1 ... ... ... : E-4 00 A P7C ... ... : ... .. . ... : ... .. 2 ... : ... .. . ... ... : ... .. . ... ... : ... .. . ... ... : ... .. . ... ...
ROW 4D : ... .. . ... ... ... : D#4 00 A P84 ... ... : ... .. . ... : ... .. 0 ... : ... .. . ... ... : ... .. 4 ... ... : ... .. 4 ... ... : ... .. . ... ...
ROW 4E : ... .. C ... ... ... : ... .. . P7C ... ... : A-3 00 . ... : 9-# 00 8 ... : ... .. . ... ... : ... .. . ... ... : ... .. . ... ... : A-2 01 F ... ...
ROW 4F : ... .. B ... ... ... : D-4 00 A P7D ... ... : ... .. . ... : ... .. 6 ... : ... .. . ... ... : ... .. . ... ... : ... .. . ... ... : ... .. D ... ...
ROW 50 : ... .. A ... ... ... : C#4 00 A P7F ... ... : ... .. . ... : ... .. 3 ... : ... .. . ... ... : ... .. . ... ... : ... .. . ... ... : ... .. 8 ... ...
ROW 51 : ... .. 8 ... ... ... : ... .. . P7C ... ... : ... .. . ... : ... .. 1 ... : ... .. . ... ... : ... .. . ... ... : ... .. . ... ... : ... .. . ... ...
ROW 52 : ... .. . ... ... ... : ... .. 2 P80 ... ... : ... .. . ... : ... .. . ... : ... .. . ... ... : ... .. . ... ... : ... .. . ... ... : ... .. . ... ...
ROW 53 : ... .. . ... ... ... : D-4 00 2 P7F ... ... : --- .. . ... : ... .. 0 ... : ... .. . ... ... : ... .. . ... ... : ... .. . ... ... : --- .. . ... ...
ROW 54 : F#1 00 C ... ... ... : D#4 00 2 P7E ... ... : G#3 00 . ... : 7-# 00 F ... : ... .. . ... ... : ... .. 8 ... ... : ... .. 8 ... ... : G#2 01 F ... ...
ROW 55 : ... .. B ... ... ... : ... .. 1 P85 ... ... : ... .. . ... : ... .. C ... : ... .. . ... ... : ... .. 7 ... ... : ... .. 7 ... ... : ... .. D ... ...
ROW 56 : ... .. A ... ... ... : ... .. . ... ... ... : ... .. . ... : ... .. 6 ... : ... .. . ... ... : ... .. 6 ... ... : ... .. 6 ... ... : ... .. 8 ... ...
ROW 57 : ... .. 8 ... ... ... : ... .. . P7E ... ... : ... .. . ... : ... .. 3 ... : ... .. . ... ... : ... .. 5 ... ... : ... .. 5 ... ... : ... .. . ... ...
ROW 58 : ... .. 1 ... ... ... : ... .. 0 ... ... ... : ... .. . ... : ... .. 2 ... : ... .. . ... ... : ... .. . ... ... : ... .. . ... ... : ... .. . ... ...
ROW 59 : ... .. . ... ... ... : ... .. . ... ... ... : --- .. . ... : ... .. 0 ... : ... .. . ... ... : ... .. 4 ... ... : ... .. 4 ... ... : --- .. . P7F ...
ROW 5A : ... .. C ... ... ... : ... .. . ... ... ... : G#2 00 . ... : 5-# 00 8 ... : ... .. . ... ... : ... .. . ... ... : ... .. . ... ... : G#1 01 F P80 ...
ROW 5B : ... .. B ... ... ... : ... .. . ... ... ... : ... .. . ... : ... .. 6 ... : ... .. . ... ... : ... .. . ... ... : ... .. . ... ... : ... .. D ... ...
ROW 5C : ... .. A ... ... ... : ... .. . ... ... ... : ... .. . ... : ... .. 3 ... : ... .. . ... ... : ... .. . ... ... : ... .. . ... ... : ... .. 8 ... ...
ROW 5D : ... .. 8 ... ... ... : ... .. . ... ... ... : ... .. . ... : ... .. 1 ... : ... .. . ... ... : ... .. . ... ... : ... .. . ... ... : ... .. . ... ...
ROW 5E : ... .. 1 ... ... ... : ... .. . ... ... ... : ... .. . ... : ... .. . ... : ... .. . ... ... : ... .. . ... ... : ... .. . ... ... : ... .. . ... ...
ROW 5F : ... .. . ... ... ... : ... .. . ... ... ... : --- .. . ... : ... .. 0 ... : ... .. . ... ... : ... .. . ... ... : ... .. . ... ... : --- .. . P7E ...
ROW 60 : G#1 00 C ... ... ... : ... .. . ... ... ... : G-4 00 . ... : 1-# 00 F ... : ... .. . ... ... : F#4 01 8 ... ... : C#4 01 8 ... ... : G#1 01 F P80 ...
ROW 61 : ... .. B ... ... ... : ... .. . ... ... ... : A-3 00 . ... : ... .. C ... : ... .. . ... ... : ... .. 7 ... ... : ... .. 7 ... ... : ... .. D ... ...
ROW 62 : ... .. A ... ... ... : ... .. . ... ... ... : D-3 00 . ... : ... .. 6 ... : ... .. . ... ... : ... .. 6 ... ... : ... .. 6 ... ... : ... .. 8 ... ...
ROW 63 : ... .. 8 ... ... ... : ... .. . ... ... ... : C#3 00 . ... : ... .. 3 ... : ... .. . ... ... : ... .. 5 ... ... : ... .. 5 ... ... : ... .. . ... ...
ROW 64 : ... .. . ... ... ... : ... .. . ... ... ... : G#2 00 . ... : ... .. 2 ... : ... .. . ... ... : ... .. . ... ... : ... .. . ... ... : ... .. . ... ...
ROW 65 : ... .. . ... ... ... : ... .. . ... ... ... : ... .. . ... : ... .. 0 ... : ... .. . ... ... : ... .. 4 ... ... : ... .. 4 ... ... : ... .. . ... ...
ROW 66 : ... .. C ... ... ... : G#3 00 F P80 ... ... : ... .. . ... : C-# 00 8 ... : ... .. . ... ... : ... .. . ... ... : ... .. . ... ... : ... .. . ... ...
ROW 67 : ... .. B ... ... ... : ... .. E ... ... ... : ... .. . ... : ... .. 6 ... : ... .. . ... ... : ... .. . ... ... : ... .. . ... ... : ... .. . ... ...
ROW 68 : ... .. A ... ... ... : ... .. D ... ... ... : ... .. . ... : ... .. 3 ... : ... .. . ... ... : ... .. . ... ... : ... .. . ... ... : ... .. . ... ...
ROW 69 : ... .. 8 ... ... ... : ... .. A ... ... ... : G-2 00 . ... : ... .. 1 ... : ... .. . ... ... : D#4 01 4 P7D ... : A#3 01 4 P86 ... : ... .. . P60 ...
ROW 6A : ... .. 1 ... ... ... : ... .. 2 ... ... ... : F#2 00 . P82 : ... .. . ... : ... .. . ... ... : C-4 01 4 P7F ... : G#3 01 4 P83 ... : G-1 01 8 P8A ...
ROW 6B : ... .. . ... ... ... : ... .. . ... ... ... : F-2 00 . P86 : ... .. 0 ... : ... .. . ... ... : A-3 01 4 P87 ... : F#3 01 4 P84 ... : ... .. . P6A ...
ROW 6C : D#2 00 C ... ... ... : ... .. F ... ... ... : E-2 00 . P8C : ... .. 8 ... : ... .. . ... ... : G-3 01 4 P86 ... : E-3 01 4 P89 ... : F#1 01 8 P97 ...
ROW 6D : ... .. B ... ... ... : ... .. E ... ... ... : D#2 00 . P94 : ... .. 6 ... : ... .. . ... ... : F-3 01 4 P89 ... : D#3 01 4 P7E ... : ... .. . P77 ...
ROW 6E : ... .. A ... ... ... : ... .. D ... ... ... : ... .. . P74 : ... .. 3 ... : ... .. . ... ... : E-3 01 4 P7C ... : C#3 01 4 P8A ... : F-1 01 8 PA9 ...
ROW 6F : ... .. 8 ... ... ... : ... .. A ... ... ... : D-2 00 . P7F : ... .. 1 ... : ... .. . ... ... : D-3 01 4 P86 ... : C-3 01 4 P82 ... : ... .. . P89 ...
ROW 70 : ... .. 1 ... ... ... : ... .. 2 ... ... ... : C#2 00 . P8C : ... .. . ... : ... .. . ... ... : C#3 01 4 P7D ... : B-2 01 4 P7B ... : ... .. . P69 ...
ROW 71 : ... .. . ... ... ... : ... .. . ... ... ... : ... .. . P6C : ... .. 0 ... : ... .. . ... ... : C-3 01 4 P75 ... : A#2 01 4 P76 ... : E-1 01 8 PA0 ...
ROW 72 : D-2 00 C ... ... ... : ... .. F ... ... ... : G-5 00 . P80 : 1-# 00 F ... : ... .. . ... ... : F#4 01 8 P80 ... : C#4 01 8 P80 ... : G#2 01 F P80 ...
ROW 73 : ... .. B ... ... ... : ... .. E ... ... ... : A-4 00 . ... : ... .. C ... : ... .. . ... ... : ... .. 7 ... ... : ... .. 7 ... ... : ... .. D ... ...
ROW 74 : ... .. A ... ... ... : ... .. D ... ... ... : D-4 00 . ... : ... .. 6 ... : ... .. . ... ... : ... .. 6 ... ... : ... .. 6 ... ... : ... .. 8 ... ...
ROW 75 : ... .. 8 ... ... ... : ... .. A ... ... ... : C#4 00 . ... : ... .. 3 ... : ... .. . ... ... : ... .. 5 ... ... : ... .. 5 ... ... : ... .. . ... ...
ROW 76 : ... .. . ... ... ... : ... .. . ... ... ... : G#3 00 . ... : ... .. 2 ... : ... .. . ... ... : ... .. . ... ... : ... .. . ... ... : ... .. . ... ...
ROW 77 : ... .. . ... ... ... : ... .. . ... ... ... : --- .. . ... : ... .. 0 ... : ... .. . ... ... : ... .. 4 ... ... : ... .. 4 ... ... : --- .. . P7F ...
ROW 78 : D#2 00 C ... ... ... : ... .. F ... ... ... : F#3 00 . ... : C-# 00 8 ... : ... .. . ... ... : ... .. . ... ... : ... .. . ... ... : F#2 01 F P80 ...
ROW 79 : ... .. B ... ... ... : ... .. E ... ... ... : ... .. . ... : ... .. 6 ... : ... .. . ... ... : ... .. . ... ... : ... .. . ... ... : ... .. D ... ...
ROW 7A : ... .. A ... ... ... : ... .. D ... ... ... : ... .. . ... : ... .. 3 ... : ... .. . ... ... : ... .. . ... ... : ... .. . ... ... : ... .. 8 ... ...
ROW 7B : ... .. 8 ... ... ... : ... .. A ... ... ... : ... .. . ... : ... .. 1 ... : ... .. . ... ... : D#4 01 4 P7D ... : A#3 01 4 P86 ... : ... .. . ... ...
ROW 7C : ... .. 1 ... ... ... : ... .. 2 ... ... ... : ... .. . ... : ... .. . ... : ... .. . ... ... : C-4 01 4 P7F ... : G#3 01 4 P83 ... : ... .. . ... ...
ROW 7D : ... .. . ... ... ... : ... .. . ... ... ... : --- .. . ... : ... .. 0 ... : ... .. . ... ... : A-3 01 4 P87 ... : F#3 01 4 P84 ... : --- .. . P84 ...
ROW 7E : B-1 00 C ... ... ... : G#4 00 F ... ... ... : G#3 00 . ... : ... .. 8 ... : ... .. . ... ... : G-3 01 4 P86 ... : E-3 01 4 P89 ... : G#2 01 F P80 ...
ROW 7F : ... .. B ... ... ... : ... .. E ... ... ... : ... .. . ... : ... .. 6 ... : ... .. . ... ... : F-3 01 4 P89 ... : D#3 01 4 P7E ... : ... .. D ... ...
ROW 80 : ... .. A ... ... ... : ... .. D ... ... ... : ... .. . ... : ... .. 3 ... : ... .. . ... ... : E-3 01 4 P7C ... : C#3 01 4 P8A ... : ... .. 8 ... ...
ROW 81 : ... .. 8 ... ... ... : ... .. A ... ... ... : --- .. . ... : ... .. 1 ... : ... .. . ... ... : D-3 01 4 P86 ... : C-3 01 4 P82 ... : --- .. . P7F ...
ROW 82 : ... .. . ... ... ... : ... .. 2 ... ... ... : ... .. . ... : ... .. . ... : ... .. . ... ... : C#3 01 4 P7D ... : B-2 01 4 P7B ... : ... .. . ... ...
ROW 83 : ... .. . ... ... ... : ... .. . ... ... ... : ... .. . ... : ... .. 0 ... : ... .. . ... ... : C-3 01 4 P75 ... : A#2 01 4 P76 ... : ... .. . ... ...
ROW 84 : B-2 00 C ... ... ... : ... .. F ... ... ... : D-6 00 . ... : 7-# 00 F ... : ... .. . ... ... : F#4 01 8 P80 ... : C#4 01 8 P80 ... : D#3 01 F P80 ...
ROW 85 : ... .. B ... ... ... : ... .. E ... ... ... : E-5 00 . ... : ... .. C ... : ... .. . ... ... : ... .. 7 ... ... : ... .. 7 ... ... : ... .. D ... ...
ROW 86 : ... .. A ... ... ... : ... .. D ... ... ... : A-4 00 . ... : ... .. 6 ... : ... .. . ... ... : ... .. 6 ... ... : ... .. 6 ... ... : ... .. 8 ... ...
ROW 87 : ... .. 8 ... ... ... : ... .. A ... ... ... : G#4 00 . ... : ... .. 3 ... : ... .. . ... ... : ... .. 5 ... ... : ... .. 5 ... ... : ... .. . ... ...
ROW 88 : ... .. 1 ... ... ... : ... .. . ... ... ... : D#4 00 . ... : ... .. 2 ... : ... .. . ... ... : ... .. . ... ... : ... .. . ... ... : ... .. . ... ...
ROW 89 : ... .. . ... ... ... : ... .. . ... ... ... : ... .. . ... : ... .. 0 ... : ... .. . ... ... : ... .. 4 ... ... : ... .. 4 ... ... : ... .. . ... ...
ROW 8A : ... .. C ... ... ... : ... .. . ... ... ... : ... .. . ... : 1-# 00 8 ... : ... .. . ... ... : ... .. . ... ... : ... .. . ... ... : ... .. . ... ...
ROW 8B : ... .. B ... ... ... : ... .. . ... ... ... : ... .. . ... : ... .. 6 ... : ... .. . ... ... : ... .. . ... ... : ... .. . ... ... : ... .. . ... ...
ROW 8C : ... .. A ... ... ... : ... .. . ... ... ... : ... .. . ... : ... .. 3 ... : ... .. . ... ... : ... .. . ... ... : ... .. . ... ... : ... .. . ... ...
ROW 8D : ... .. 8 ... ... ... : ... .. . ... ... ... : ... .. . ... : ... .. 1 ... : ... .. . ... ... : D#4 01 4 P7D ... : A#3 01 4 P86 ... : ... .. . ... ...
ROW 8E : ... .. 1 ... ... ... : ... .. . ... ... ... : ... .. . ... : ... .. . ... : ... .. . ... ... : C-4 01 4 P7F ... : G#3 01 4 P83 ... : ... .. . ... ...
ROW 8F : ... .. . ... ... ... : ... .. . ... ... ... : ... .. . ... : ... .. 0 ... : ... .. . ... ... : A-3 01 4 P87 ... : F#3 01 4 P84 ... : ... .. . ... ...
ROW 90 : D-2 00 C ... ... ... : ... .. . ... ... ... : D-4 00 . ... : 7-# 00 F ... : ... .. . ... ... : G-3 01 4 P86 ... : E-3 01 4 P89 ... : D-3 01 F ... ...
ROW 91 : ... .. B ... ... ... : ... .. . ... ... ... : ... .. . ... : ... .. C ... : ... .. . ... ... : F-3 01 4 P89 ... : D#3 01 4 P7E ... : ... .. D ... ...
ROW 92 : ... .. A ... ... ... : ... .. . ... ... ... : ... .. . ... : ... .. 6 ... : ... .. . ... ... : E-3 01 4 P7C ... : C#3 01 4 P8A ... : ... .. 8 ... ...
ROW 93 : ... .. 8 ... ... ... : ... .. . P84 ... ... : ... .. . ... : ... .. 3 ... : ... .. . ... ... : D-3 01 4 P86 ... : C-3 01 4 P82 ... : ... .. . ... ...
ROW 94 : ... .. . ... ... ... : A-4 00 A P7E ... ... : ... .. . ... : ... .. 2 ... : ... .. . ... ... : C#3 01 4 P7D ... : B-2 01 4 P7B ... : ... .. . ... ...
ROW 95 : ... .. . ... ... ... : ... .. . P7D ... ... : ... .. . ... : ... .. 0 ... : ... .. . ... ... : C-3 01 4 P75 ... : A#2 01 4 P76 ... : ... .. . ... ...
ROW 96 : D-3 00 C ... ... ... : G#4 00 A P82 ... ... : ... .. . ... : 1-# 00 8 ... : ... .. . ... ... : F#4 01 8 P80 ... : C#4 01 8 P80 ... : ... .. . ... ...
ROW 97 : ... .. B ... ... ... : ... .. . P7E ... ... : ... .. . ... : ... .. 6 ... : ... .. . ... ... : ... .. 7 ... ... : ... .. 7 ... ... : ... .. . ... ...
ROW 98 : ... .. A ... ... ... : G-4 00 A P83 ... ... : ... .. . ... : ... .. 3 ... : ... .. . ... ... : ... .. 6 ... ... : ... .. 6 ... ... : ... .. . ... ...
ROW 99 : ... .. 8 ... ... ... : ... .. . P82 ... ... : ... .. . ... : ... .. 1 ... : ... .. . ... ... : ... .. 5 ... ... : ... .. 5 ... ... : ... .. . ... ...
ROW 9A : ... .. 1 ... ... ... : ... .. . P84 ... ... : ... .. . ... : ... .. . ... : ... .. . ... ... : ... .. . ... ... : ... .. . ... ... : ... .. . ... ...
ROW 9B : ... .. . ... ... ... : G#4 00 A P80 ... ... : --- .. . ... : ... .. 0 ... : ... .. . ... ... : ... .. 4 ... ... : ... .. 4 ... ... : --- .. . P84 ...
ROW 9C : ... .. C ... ... ... : ... .. . P83 ... ... : G#3 00 . ... : 7-# 00 F ... : ... .. . ... ... : ... .. . ... ... : ... .. . ... ... : G#2 01 F P80 ...
ROW 9D : ... .. B ... ... ... : A-4 00 A P7E ... ... : ... .. . ... : ... .. C ... : ... .. . ... ... : ... .. . ... ... : ... .. . ... ... : ... .. D ... ...
ROW 9E : ... .. A ... ... ... : ... .. . ... ... ... : ... .. . ... : ... .. 6 ... : ... .. . ... ... : ... .. . ... ... : ... .. . ... ... : ... .. 8 ... ...
ROW 9F : ... .. 8 ... ... ... : G#4 00 F P80 ... ... : ... .. . ... : ... .. 3 ... : ... .. . ... ... : D#4 01 4 P7D ... : A#3 01 4 P86 ... : ... .. . ... ...
ROW A0 : ... .. 1 ... ... ... : ... .. E ... ... ... : ... .. . ... : ... .. 2 ... : ... .. . ... ... : C-4 01 4 P7F ... : G#3 01 4 P83 ... : ... .. . ... ...
ROW A1 : ... .. . ... ... ... : ... .. D ... ... ... : ... .. . ... : ... .. 0 ... : ... .. . ... ... : A-3 01 4 P87 ... : F#3 01 4 P84 ... : ... .. . ... ...
ROW A2 : G#2 00 C ... ... ... : A-4 00 F ... ... ... : ... .. . ... : 1-# 00 8 ... : ... .. . ... ... : G-3 01 4 P86 ... : E-3 01 4 P89 ... : ... .. . ... ...
ROW A3 : ... .. B ... ... ... : ... .. E ... ... ... : ... .. . ... : ... .. 6 ... : ... .. . ... ... : F-3 01 4 P89 ... : D#3 01 4 P7E ... : ... .. . ... ...
ROW A4 : ... .. A ... ... ... : ... .. D ... ... ... : ... .. . ... : ... .. 3 ... : ... .. . ... ... : E-3 01 4 P7C ... : C#3 01 4 P8A ... : ... .. . ... ...
ROW A5 : ... .. 8 ... ... ... : A#4 00 F ... ... ... : ... .. . ... : ... .. 1 ... : ... .. . ... ... : D-3 01 4 P86 ... : C-3 01 4 P82 ... : ... .. . ... ...
ROW A6 : ... .. . ... ... ... : ... .. E ... ... ... : ... .. . ... : ... .. . ... : ... .. . ... ... : C#3 01 4 P7D ... : B-2 01 4 P7B ... : ... .. . ... ...
ROW A7 : ... .. . ... ... ... : ... .. D ... ... ... : --- .. . ... : ... .. 0 ... : ... .. . ... ... : C-3 01 4 P75 ... : A#2 01 4 P76 ... : --- .. . P7F ...
ROW A8 : G-3 00 C ... ... ... : B-4 00 F ... ... ... : G-3 00 . ... : ... .. F ... : ... .. . ... ... : G-4 01 8 P80 ... : B-3 01 8 P80 ... : G#0 01 F P80 ...
ROW A9 : ... .. B ... ... ... : ... .. E ... ... ... : A-2 00 . ... : ... .. C ... : ... .. . ... ... : ... .. 7 ... ... : ... .. 7 ... ... : ... .. D ... ...
ROW AA : ... .. A ... ... ... : ... .. D ... ... ... : D-2 00 . ... : ... .. 6 ... : ... .. . ... ... : ... .. 6 ... ... : ... .. 6 ... ... : ... .. 8 ... ...
ROW AB : ... .. 8 ... ... ... : ... .. A ... ... ... : C#2 00 . ... : ... .. 3 ... : ... .. . ... ... : ... .. 5 ... ... : ... .. 5 ... ... : ... .. . ... ...
ROW AC : ... .. 1 ... ... ... : ... .. . ... ... ... : G#1 00 . ... : ... .. 2 ... : ... .. . ... ... : ... .. . ... ... : ... .. . ... ... : ... .. . ... ...
ROW AD : ... .. . ... ... ... : ... .. . ... ... ... : ... .. . ... : ... .. 0 ... : ... .. . ... ... : ... .. 4 ... ... : ... .. 4 ... ... : ... .. . ... ...
ROW AE : G#1 00 C ... ... ... : F#4 00 F ... ... ... : ... .. . ... : C-# 00 8 ... : ... .. . ... ... : B-3 01 8 ... ... : D#3 01 8 ... ... : ... .. . ... ...
ROW AF : ... .. B ... ... ... : ... .. E ... ... ... : ... .. . ... : ... .. 6 ... : ... .. . ... ... : ... .. 7 ... ... : ... .. 7 ... ... : ... .. . ... ...
ROW B0 : ... .. A ... ... ... : ... .. D ... ... ... : ... .. . ... : ... .. 3 ... : ... .. . ... ... : ... .. 6 ... ... : ... .. 6 ... ... : ... .. . ... ...
ROW B1 : ... .. 8 ... ... ... : ... .. A ... ... ... : G-1 00 . PA0 : ... .. 1 ... : ... .. . ... ... : ... .. 5 ... ... : ... .. 5 ... ... : ... .. . P60 ...
ROW B2 : ... .. 1 ... ... ... : ... .. . ... ... ... : ... .. . P80 : ... .. . ... : ... .. . ... ... : ... .. . ... ... : ... .. . ... ... : ... .. . P40 ...
ROW B3 : ... .. . ... ... ... : ... .. . ... ... ... : ... .. . P60 : ... .. 0 ... : ... .. . ... ... : ... .. 4 ... ... : ... .. 4 ... ... : G-0 01 8 PB2 ...
ROW B4 : ... .. C ... ... ... : B-3 00 F ... ... ... : F#1 00 . P84 : ... .. 8 ... : ... .. . ... ... : F#3 01 8 ... ... : G#2 01 8 ... ... : ... .. . P92 ...
ROW B5 : ... .. B ... ... ... : ... .. E ... ... ... : ... .. . P64 : ... .. 6 ... : ... .. . ... ... : ... .. 7 ... ... : ... .. 7 ... ... : ... .. . P72 ...
ROW B6 : ... .. A ... ... ... : ... .. D ... ... ... : F-1 00 . P8C : ... .. 3 ... : ... .. . ... ... : ... .. 6 ... ... : ... .. 6 ... ... : ... .. . P52 ...
ROW B7 : ... .. 8 ... ... ... : ... .. A ... ... ... : ... .. . P6C : ... .. 1 ... : ... .. . ... ... : ... .. 5 ... ... : ... .. 5 ... ... : F#0 01 8 PCD ...
ROW B8 : ... .. 1 ... ... ... : ... .. . ... ... ... : E-1 00 . P98 : ... .. . ... : ... .. . ... ... : ... .. . ... ... : ... .. . ... ... : ... .. . PAD ...
ROW B9 : ... .. . ... ... ... : ... .. . ... ... ... : ... .. . P78 : ... .. 0 ... : ... .. . ... ... : ... .. 4 ... ... : ... .. 4 ... ... : ... .. . P8D ...
ROW BA : G-3 00 C ... ... ... : B-4 00 F ... ... ... : G#2 00 . P80 : 1-# 00 F ... : ... .. . ... ... : G-4 01 8 ... ... : B-3 01 8 ... ... : G#1 01 F P80 ...
ROW BB : ... .. B ... ... ... : ... .. E ... ... ... : ... .. . ... : ... .. C ... : ... .. . ... ... : ... .. 7 ... ... : ... .. 7 ... ... : ... .. D ... ...
ROW BC : ... .. A ... ... ... : ... .. D ... ... ... : ... .. . ... : ... .. 6 ... : ... .. . ... ... : ... .. 6 ... ... : ... .. 6 ... ... : ... .. 8 ... ...
ROW BD : ... .. 8 ... ... ... : ... .. A ... ... ... : ... .. . ... : ... .. 3 ... : ... .. . ... ... : ... .. 5 ... ... : ... .. 5 ... ... : ... .. . ... ...
ROW BE : ... .. 1 ... ... ... : ... .. . ... ... ... : ... .. . ... : ... .. 2 ... : ... .. . ... ... : ... .. . ... ... : ... .. . ... ... : ... .. . ... ...
ROW BF : ... .. . ... ... ... : ... .. . ... ... ... : ... .. . ... : ... .. 0 ... : ... .. . ... ... : ... .. 4 ... ... : ... .. 4 ... ... : ... .. . ... ...
ROW C0 : G#1 00 C ... ... ... : F#4 00 F ... ... ... : F#2 00 . ... : C-# 00 8 ... : ... .. . ... ... : B-3 01 8 ... ... : D#3 01 8 ... ... : F#1 01 F ... ...
ROW C1 : ... .. B ... ... ... : ... .. E ... ... ... : ... .. . ... : ... .. 6 ... : ... .. . ... ... : ... .. 7 ... ... : ... .. 7 ... ... : ... .. D ... ...
ROW C2 : ... .. A ... ... ... : ... .. D ... ... ... : ... .. . ... : ... .. 3 ... : ... .. . ... ... : ... .. 6 ... ... : ... .. 6 ... ... : ... .. 8 ... ...
ROW C3 : ... .. 8 ... ... ... : ... .. A ... ... ... : ... .. . ... : ... .. 1 ... : ... .. . ... ... : ... .. 5 ... ... : ... .. 5 ... ... : ... .. . ... ...
ROW C4 : ... .. 1 ... ... ... : ... .. . ... ... ... : ... .. . ... : ... .. . ... : ... .. . ... ... : ... .. . ... ... : ... .. . ... ... : ... .. . ... ...
ROW C5 : ... .. . ... ... ... : ... .. . ... ... ... : --- .. . ... : ... .. 0 ... : ... .. . ... ... : ... .. 4 ... ... : ... .. 4 ... ... : --- .. . P81 ...
ROW C6 : ... .. C ... ... ... : B-3 00 F ... ... ... : G#2 00 . ... : ... .. 8 ... : ... .. . ... ... : F#3 01 8 ... ... : G#2 01 8 ... ... : G#1 01 F P80 ...
ROW C7 : ... .. B ... ... ... : ... .. E ... ... ... : ... .. . ... : ... .. 6 ... : ... .. . ... ... : ... .. 7 ... ... : ... .. 7 ... ... : ... .. D ... ...
ROW C8 : ... .. A ... ... ... : ... .. D ... ... ... : ... .. . ... : ... .. 3 ... : ... .. . ... ... : ... .. 6 ... ... : ... .. 6 ... ... : ... .. 8 ... ...
ROW C9 : ... .. 8 ... ... ... : ... .. A ... ... ... : ... .. . ... : ... .. 1 ... : ... .. . ... ... : ... .. 5 ... ... : ... .. 5 ... ... : ... .. . ... ...
ROW CA : ... .. . ... ... ... : ... .. . ... ... ... : ... .. . ... : ... .. . ... : ... .. . ... ... : ... .. . ... ... : ... .. . ... ... : ... .. . ... ...
ROW CB : ... .. . ... ... ... : ... .. . ... ... ... : ... .. . ... : ... .. 0 ... : ... .. . ... ... : ... .. 4 ... ... : ... .. 4 ... ... : ... .. . ... ...
ROW CC : F#3 00 C ... ... ... : ... .. . ... ... ... : G-5 00 . ... : 7-# 00 F ... : ... .. . ... ... : F#4 01 8 ... ... : B-3 01 8 ... ... : G#2 01 F ... ...
ROW CD : ... .. B ... ... ... : ... .. . ... ... ... : A-4 00 . ... : ... .. C ... : ... .. . ... ... : ... .. 7 ... ... : ... .. 7 ... ... : ... .. D ... ...
ROW CE : ... .. A ... ... ... : ... .. . ... ... ... : D-4 00 . ... : ... .. 6 ... : ... .. . ... ... : ... .. 6 ... ... : ... .. 6 ... ... : ... .. 8 ... ...
ROW CF : ... .. 8 ... ... ... : ... .. . ... ... ... : C#4 00 . ... : ... .. 3 ... : ... .. . ... ... : ... .. 5 ... ... : ... .. 5 ... ... : ... .. . ... ...
ROW D0 : ... .. 1 ... ... ... : ... .. . ... ... ... : G#3 00 . ... : ... .. 2 ... : ... .. . ... ... : ... .. . ... ... : ... .. . ... ... : ... .. . ... ...
ROW D1 : ... .. . ... ... ... : ... .. . ... ... ... : ... .. . ... : ... .. 0 ... : ... .. . ... ... : ... .. 4 ... ... : ... .. 4 ... ... : ... .. . ... ...
ROW D2 : G#1 00 C ... ... ... : ... .. . ... ... ... : ... .. . ... : ... .. 8 ... : ... .. . ... ... : G#3 01 8 ... ... : D-3 01 8 ... ... : ... .. . ... ...
ROW D3 : ... .. B ... ... ... : ... .. . ... ... ... : ... .. . ... : ... .. 6 ... : ... .. . ... ... : ... .. 7 ... ... : ... .. 7 ... ... : ... .. . ... ...
ROW D4 : ... .. A ... ... ... : ... .. . ... ... ... : ... .. . ... : ... .. 3 ... : ... .. . ... ... : ... .. 6 ... ... : ... .. 6 ... ... : ... .. . ... ...
ROW D5 : ... .. 8 ... ... ... : ... .. . P84 ... ... : F#3 00 . P81 : ... .. 1 ... : ... .. . ... ... : ... .. 5 ... ... : ... .. 5 ... ... : G-2 01 8 P84 ...
ROW D6 : ... .. 1 ... ... ... : ... .. . P86 ... ... : E-3 00 . P86 : ... .. . ... : ... .. . ... ... : ... .. . ... ... : ... .. . ... ... : F#2 01 8 P8B ...
ROW D7 : ... .. . ... ... ... : ... .. . P85 ... ... : D#3 00 . P7B : ... .. 0 ... : ... .. . ... ... : ... .. 4 ... ... : ... .. 4 ... ... : F-2 01 8 P94 ...
ROW D8 : ... .. C ... ... ... : ... .. . P82 ... ... : C#3 00 . P87 : 4-# 00 F ... : ... .. . ... ... : D-3 01 8 ... ... : G#2 01 8 ... ... : ... .. . P74 ...
ROW D9 : ... .. B ... ... ... : ... .. . P7E ... ... : C-3 00 . P7F : ... .. C ... : ... .. . ... ... : ... .. 7 ... ... : ... .. 7 ... ... : E-2 01 8 P80 ...
ROW DA : ... .. A ... ... ... : ... .. . P7B ... ... : B-2 00 . P78 : ... .. 6 ... : ... .. . ... ... : ... .. 6 ... ... : ... .. 6 ... ... : D#2 01 8 P8E ...
ROW DB : ... .. 8 ... ... ... : ... .. . P7A ... ... : A#2 00 . P73 : ... .. 3 ... : ... .. . ... ... : ... .. 5 ... ... : ... .. 5 ... ... : ... .. . P6E ...
ROW DC : ... .. . ... ... ... : ... .. . P7C ... ... : G#2 00 . P8E : ... .. 2 ... : ... .. . ... ... : ... .. . ... ... : ... .. . ... ... : D-2 01 8 P7F ...
ROW DD : ... .. . ... ... ... : ... .. . P80 ... ... : G-2 00 . ... : ... .. 0 ... : ... .. . ... ... : ... .. 4 ... ... : ... .. 4 ... ... : C#2 01 8 P92 ...
ROW DE : F#3 00 C ... ... ... : ... .. . P83 ... ... : G-5 00 . P80 : 9-# 00 8 ... : ... .. . ... ... : F-4 01 8 ... ... : B-3 01 8 ... ... : G#2 01 F P80 ...
ROW DF : ... .. B ... ... ... : ... .. . P86 ... ... : A-4 00 . ... : ... .. 6 ... : ... .. . ... ... : ... .. 7 ... ... : ... .. 7 ... ... : ... .. D ... ...
ROW E0 : ... .. A ... ... ... : ... .. . ... ... ... : D-4 00 . ... : ... .. 3 ... : ... .. . ... ... : ... .. 6 ... ... : ... .. 6 ... ... : ... .. 8 ... ...
ROW E1 : ... .. 8 ... ... ... : ... .. . P82 ... ... : C#4 00 . ... : ... .. 1 ... : ... .. . ... ... : ... .. 5 ... ... : ... .. 5 ... ... : ... .. . ... ...
ROW E2 : ... .. 1 ... ... ... : ... .. . P7F ... ... : G#3 00 . ... : ... .. . ... : ... .. . ... ... : ... .. . ... ... : ... .. . ... ... : ... .. . ... ...
ROW E3 : ... .. . ... ... ... : ... .. . P7B ... ... : ... .. . ... : ... .. 0 ... : ... .. . ... ... : ... .. 4 ... ... : ... .. 4 ... ... : ... .. . ... ...
ROW E4 : G#1 00 C ... ... ... : ... .. . P7A ... ... : ... .. . ... : 7-# 00 F ... : ... .. . ... ... : G#3 01 8 ... ... : D-3 01 8 ... ... : ... .. . ... ...
ROW E5 : ... .. B ... ... ... : ... .. . P7C ... ... : ... .. . ... : ... .. C ... : ... .. . ... ... : ... .. 7 ... ... : ... .. 7 ... ... : ... .. . ... ...
ROW E6 : ... .. A ... ... ... : ... .. . P80 ... ... : ... .. . ... : ... .. 6 ... : ... .. . ... ... : ... .. 6 ... ... : ... .. 6 ... ... : ... .. . ... ...
ROW E7 : ... .. 8 ... ... ... : ... .. . P83 ... ... : ... .. . ... : ... .. 3 ... : ... .. . ... ... : ... .. 5 ... ... : ... .. 5 ... ... : ... .. . ... ...
ROW E8 : ... .. 1 ... ... ... : ... .. . P86 ... ... : ... .. . ... : ... .. 2 ... : ... .. . ... ... : ... .. . ... ... : ... .. . ... ... : ... .. . ... ...
ROW E9 : ... .. . ... ... ... : ... .. . ... ... ... : ... .. . ... : ... .. 0 ... : ... .. . ... ... : ... .. 4 ... ... : ... .. 4 ... ... : ... .. . ... ...
ROW EA : ... .. C ... ... ... : ... .. . P83 ... ... : F-3 00 . P83 : 5-# 00 8 ... : ... .. . ... ... : D-3 01 8 ... ... : G#2 01 8 ... ... : G-2 01 8 P74 ...
ROW EB : ... .. B ... ... ... : ... .. 2 P80 ... ... : D#3 00 . P7B : ... .. 6 ... : ... .. . ... ... : ... .. 7 ... ... : ... .. 7 ... ... : F-2 01 8 P94 ...
ROW EC : ... .. A ... ... ... : ... .. . P7C ... ... : C#3 00 . P77 : ... .. 3 ... : ... .. . ... ... : ... .. 6 ... ... : ... .. 6 ... ... : E-2 01 8 P90 ...
ROW ED : A-0 00 F P72 ... ... : ... .. . P7A ... ... : B-2 00 . P78 : ... .. 1 ... : ... .. . ... ... : ... .. 5 ... ... : ... .. 5 ... ... : D#2 01 8 P8E ...
ROW EE : ... .. E ... ... ... : ... .. 1 P7B ... ... : A-2 00 . P7F : ... .. . ... : ... .. . ... ... : ... .. . ... ... : ... .. . ... ... : D-2 01 8 P8F ...
ROW EF : ... .. D ... ... ... : ... .. . P7F ... ... : G-2 00 . P8E : ... .. 0 ... : ... .. . ... ... : ... .. 4 ... ... : ... .. 4 ... ... : C#2 01 8 P92 ...
ROW F0 : G-1 00 C P80 ... ... : ... .. . P80 ... ... : F#4 00 . P80 : 1-# 00 F ... : ... .. . ... ... : A#2 01 8 ... ... : D-3 01 8 ... ... : G-1 01 F P80 ...
ROW F1 : ... .. B ... ... ... : ... .. 0 ... ... ... : G#3 00 . ... : ... .. C ... : ... .. . ... ... : ... .. 7 ... ... : ... .. 7 ... ... : ... .. D ... ...
ROW F2 : ... .. A ... ... ... : ... .. . ... ... ... : C#3 00 . ... : ... .. 6 ... : ... .. . ... ... : ... .. 6 ... ... : ... .. 6 ... ... : ... .. 8 ... ...
ROW F3 : ... .. 8 ... ... ... : ... .. . ... ... ... : C-3 00 . ... : ... .. 3 ... : ... .. . ... ... : ... .. 5 ... ... : ... .. 5 ... ... : ... .. . ... ...
ROW F4 : ... .. 1 ... ... ... : ... .. . ... ... ... : G-2 00 . ... : ... .. 2 ... : ... .. . ... ... : ... .. . ... ... : ... .. . ... ... : ... .. . ... ...
ROW F5 : ... .. . ... ... ... : ... .. . ... ... ... : ... .. . ... : ... .. 0 ... : ... .. . ... ... : ... .. 4 ... ... : ... .. 4 ... ... : ... .. . ... ...
ROW F6 : ... .. C ... ... ... : A#3 00 F P80 ... ... : ... .. . ... : C-# 00 8 ... : ... .. . ... ... : ... .. . ... ... : ... .. . ... ... : ... .. . ... ...
ROW F7 : ... .. B ... ... ... : ... .. E ... ... ... : ... .. . ... : ... .. 6 ... : ... .. . ... ... : ... .. . ... ... : ... .. . ... ... : ... .. . ... ...
ROW F8 : ... .. A ... ... ... : ... .. D ... ... ... : ... .. . ... : ... .. 3 ... : ... .. . ... ... : ... .. . ... ... : ... .. . ... ... : ... .. . ... ...
ROW F9 : ... .. 8 ... ... ... : ... .. A ... ... ... : F#2 00 . P82 : ... .. 1 ... : ... .. . ... ... : ... .. . ... ... : ... .. . ... ... : ... .. . P60 ...
ROW FA : ... .. 1 ... ... ... : ... .. 2 ... ... ... : F-2 00 . P86 : ... .. . ... : ... .. . ... ... : ... .. . ... ... : ... .. . ... ... : F#1 01 8 P8D ...
ROW FB : ... .. . ... ... ... : ... .. . ... ... ... : E-2 00 . P8C : ... .. 0 ... : ... .. . ... ... : ... .. . ... ... : ... .. . ... ... : ... .. . P6D ...
ROW FC : D-2 00 C ... ... ... : ... .. F ... ... ... : D#2 00 . P94 : ... .. 8 ... : ... .. . ... ... : ... .. . ... ... : ... .. . ... ... : F-1 01 8 P9F ...
ROW FD : ... .. B ... ... ... : ... .. E ... ... ... : ... .. . P74 : ... .. 6 ... : ... .. . ... ... : ... .. . ... ... : ... .. . ... ... : ... .. . P7F ...
ROW FE : ... .. A ... ... ... : ... .. D ... ... ... : D-2 00 . P7F : ... .. 3 ... : ... .. . ... ... : ... .. . ... ... : ... .. . ... ... : ... .. . P5F ...
ROW FF : ... .. 8 ... ... ... : ... .. A ... ... ... : C#2 00 . P8C : ... .. 1 ... : ... .. . ... ... : ... .. . ... ... : ... .. . ... ... : E-1 01 8 P96 ...

PATTERN 04
ROW 00 : ... .. . ... ... ... : ... .. 2 ... ... ... : ... .. . P6C : ... .. . ... : ... .. . ... ... : ... .. . ... ... : ... .. . ... ... : ... .. . P76 ...
ROW 01 : ... .. . ... ... ... : ... .. . ... ... ... : C-2 00 . P7C : ... .. 0 ... : ... .. . ... ... : ... .. . ... ... : ... .. . ... ... : ... .. . P56 ...
ROW 02 : C#2 00 C ... ... ... : B-3 00 F ... ... ... : F#5 00 . P80 : 1-# 00 F ... : ... .. . ... ... : ... .. 8 ... ... : D#3 01 8 ... ... : G-2 01 F P80 ...
ROW 03 : ... .. B ... ... ... : ... .. E ... ... ... : G#4 00 . ... : ... .. C ... : ... .. . ... ... : ... .. 7 ... ... : ... .. 7 ... ... : ... .. D ... ...
ROW 04 : ... .. A ... ... ... : ... .. D ... ... ... : C#4 00 . ... : ... .. 6 ... : ... .. . ... ... : ... .. 6 ... ... : ... .. 6 ... ... : ... .. 8 ... ...
ROW 05 : ... .. 8 ... ... ... : ... .. A ... ... ... : C-4 00 . ... : ... .. 3 ... : ... .. . ... ... : ... .. 5 ... ... : ... .. 5 ... ... : ... .. . ... ...
ROW 06 : ... .. 1 ... ... ... : ... .. . ... ... ... : G-3 00 . ... : ... .. 2 ... : ... .. . ... ... : ... .. . ... ... : ... .. . ... ... : ... .. . ... ...
ROW 07 : ... .. . ... ... ... : ... .. . ... ... ... : --- .. . ... : ... .. 0 ... : ... .. . ... ... : ... .. 4 ... ... : ... .. 4 ... ... : --- .. . P7D ...
ROW 08 : D-2 00 C ... ... ... : A#3 00 F ... ... ... : F-3 00 . ... : C-# 00 8 ... : ... .. . ... ... : ... .. . ... ... : ... .. . ... ... : F-2 01 F P80 ...
ROW 09 : ... .. B ... ... ... : ... .. E ... ... ... : ... .. . ... : ... .. 6 ... : ... .. . ... ... : ... .. . ... ... : ... .. . ... ... : ... .. D ... ...
ROW 0A : ... .. A ... ... ... : ... .. D ... ... ... : ... .. . ... : ... .. 3 ... : ... .. . ... ... : ... .. . ... ... : ... .. . ... ... : ... .. 8 ... ...
ROW 0B : ... .. 8 ... ... ... : ... .. A ... ... ... : ... .. . ... : ... .. 1 ... : ... .. . ... ... : ... .. . ... ... : ... .. . ... ... : ... .. . ... ...
ROW 0C : ... .. . ... ... ... : ... .. 2 ... ... ... : ... .. . ... : ... .. . ... : ... .. . ... ... : ... .. . ... ... : ... .. . ... ... : ... .. . ... ...
ROW 0D : ... .. . ... ... ... : ... .. . ... ... ... : --- .. . ... : ... .. 0 ... : ... .. . ... ... : ... .. . ... ... : ... .. . ... ... : --- .. . P7E ...
ROW 0E : A#1 00 C ... ... ... : A#4 00 F ... ... ... : G-3 00 . ... : ... .. 8 ... : ... .. . ... ... : ... .. . ... ... : ... .. . ... ... : G-2 01 F P80 ...
ROW 0F : ... .. B ... ... ... : ... .. E ... ... ... : ... .. . ... : ... .. 6 ... : ... .. . ... ... : ... .. . ... ... : ... .. . ... ... : ... .. D ... ...
ROW 10 : ... .. A ... ... ... : ... .. D ... ... ... : ... .. . ... : ... .. 3 ... : ... .. . ... ... : ... .. . ... ... : ... .. . ... ... : ... .. 8 ... ...
ROW 11 : ... .. 8 ... ... ... : ... .. A ... ... ... : --- .. . ... : ... .. 1 ... : ... .. . ... ... : ... .. . ... ... : ... .. . ... ... : --- .. . P7D ...
ROW 12 : ... .. 1 ... ... ... : ... .. 2 ... ... ... : ... .. . ... : ... .. . ... : ... .. . ... ... : ... .. . ... ... : ... .. . ... ... : ... .. . ... ...
ROW 13 : ... .. . ... ... ... : ... .. . ... ... ... : ... .. . ... : ... .. 0 ... : ... .. . ... ... : ... .. . ... ... : ... .. . ... ... : ... .. . ... ...
ROW 14 : F#2 00 C ... ... ... : ... .. F ... ... ... : D-6 00 . ... : 7-# 00 F ... : ... .. . ... ... : ... .. . ... ... : ... .. . ... ... : D#3 01 F P80 ...
ROW 15 : ... .. B ... ... ... : ... .. E ... ... ... : E-5 00 . ... : ... .. C ... : ... .. . ... ... : ... .. . ... ... : ... .. . ... ... : ... .. D ... ...
ROW 16 : ... .. A ... ... ... : ... .. D ... ... ... : A-4 00 . ... : ... .. 6 ... : ... .. . ... ... : ... .. . ... ... : ... .. . ... ... : ... .. 8 ... ...
ROW 17 : ... .. 8 ... ... ... : ... .. A ... ... ... : G#4 00 . ... : ... .. 3 ... : ... .. . ... ... : ... .. . ... ... : ... .. . ... ... : ... .. . ... ...
ROW 18 : ... .. . ... ... ... : ... .. . ... ... ... : D#4 00 . ... : ... .. 2 ... : ... .. . ... ... : ... .. . ... ... : ... .. . ... ... : ... .. . ... ...
ROW 19 : ... .. . ... ... ... : ... .. . ... ... ... : ... .. . ... : ... .. 0 ... : ... .. . ... ... : ... .. . ... ... : ... .. . ... ... : ... .. . ... ...
ROW 1A : ... .. C ... ... ... : ... .. . ... ... ... : ... .. . ... : 1-# 00 8 ... : ... .. . ... ... : ... .. . ... ... : ... .. . ... ... : ... .. . ... ...
ROW 1B : ... .. B ... ... ... : ... .. . ... ... ... : ... .. . ... : ... .. 6 ... : ... .. . ... ... : ... .. . ... ... : ... .. . ... ... : ... .. . ... ...
ROW 1C : ... .. A ... ... ... : ... .. . ... ... ... : ... .. . ... : ... .. 3 ... : ... .. . ... ... : ... .. . ... ... : ... .. . ... ... : ... .. . ... ...
ROW 1D : ... .. 8 ... ... ... : ... .. . ... ... ... : ... .. . ... : ... .. 1 ... : ... .. . ... ... : ... .. . ... ... : ... .. . ... ... : ... .. . ... ...
ROW 1E : ... .. 1 ... ... ... : ... .. . ... ... ... : ... .. . ... : ... .. . ... : ... .. . ... ... : ... .. . ... ... : ... .. . ... ... : ... .. . ... ...
ROW 1F : ... .. . ... ... ... : ... .. . ... ... ... : ... .. . ... : ... .. 0 ... : ... .. . ... ... : ... .. . ... ... : ... .. . ... ... : ... .. . ... ...
ROW 20 : G-1 00 C ... ... ... : ... .. . ... ... ... : D-4 00 . ... : 7-# 00 F ... : ... .. . ... ... : ... .. . ... ... : ... .. . ... ... : D-3 01 F ... ...
ROW 21 : ... .. B ... ... ... : ... .. . ... ... ... : ... .. . ... : ... .. C ... : ... .. . ... ... : ... .. . ... ... : ... .. . ... ... : ... .. D ... ...
ROW 22 : ... .. A ... ... ... : ... .. . ... ... ... : ... .. . ... : ... .. 6 ... : ... .. . ... ... : ... .. . ... ... : ... .. . ... ... : ... .. 8 ... ...
ROW 23 : ... .. 8 ... ... ... : ... .. . ... ... ... : ... .. . ... : ... .. 3 ... : ... .. . ... ... : ... .. . ... ... : ... .. . ... ... : ... .. . ... ...
ROW 24 : ... .. 1 ... ... ... : ... .. . ... ... ... : ... .. . ... : ... .. 2 ... : ... .. . ... ... : ... .. . ... ... : ... .. . ... ... : ... .. . ... ...
ROW 25 : ... .. . ... ... ... : ... .. . ... ... ... : ... .. . ... : ... .. 0 ... : ... .. . ... ... : ... .. . ... ... : ... .. . ... ... : ... .. . ... ...
ROW 26 : F-2 00 C ... ... ... : B-4 00 A P7D ... ... : ... .. . ... : 1-# 00 8 ... : ... .. . ... ... : ... .. . ... ... : ... .. . ... ... : ... .. . ... ...
ROW 27 : ... .. B ... ... ... : ... .. . P7F ... ... : ... .. . ... : ... .. 6 ... : ... .. . ... ... : ... .. . ... ... : ... .. . ... ... : ... .. . ... ...
ROW 28 : ... .. A ... ... ... : ... .. . P7E ... ... : ... .. . ... : ... .. 3 ... : ... .. . ... ... : ... .. . ... ... : ... .. . ... ... : ... .. . ... ...
ROW 29 : ... .. 8 ... ... ... : A#4 00 A P82 ... ... : ... .. . ... : ... .. 1 ... : ... .. . ... ... : ... .. . ... ... : ... .. . ... ... : ... .. . ... ...
ROW 2A : ... .. . ... ... ... : ... .. . P7E ... ... : ... .. . ... : ... .. . ... : ... .. . ... ... : ... .. . ... ... : ... .. . ... ... : ... .. . ... ...
ROW 2B : ... .. . ... ... ... : A-4 00 A P82 ... ... : --- .. . ... : ... .. 0 ... : ... .. . ... ... : ... .. . ... ... : ... .. . ... ... : --- .. . P84 ...
ROW 2C : ... .. C ... ... ... : ... .. . P81 ... ... : G-3 00 . ... : 7-# 00 F ... : ... .. . ... ... : ... .. . ... ... : ... .. . ... ... : G-2 01 F P80 ...
ROW 2D : ... .. B ... ... ... : ... .. . P83 ... ... : ... .. . ... : ... .. C ... : ... .. . ... ... : ... .. . ... ... : ... .. . ... ... : ... .. D ... ...
ROW 2E : ... .. A ... ... ... : A#4 00 A P80 ... ... : ... .. . ... : ... .. 6 ... : ... .. . ... ... : ... .. . ... ... : ... .. . ... ... : ... .. 8 ... ...
ROW 2F : ... .. 8 ... ... ... : ... .. . P83 ... ... : ... .. . ... : ... .. 3 ... : ... .. . ... ... : ... .. . ... ... : ... .. . ... ... : ... .. . ... ...
ROW 30 : ... .. 1 ... ... ... : B-4 00 A P7F ... ... : ... .. . ... : ... .. 2 ... : ... .. . ... ... : ... .. . ... ... : ... .. . ... ... : ... .. . ... ...
ROW 31 : ... .. . ... ... ... : ... .. . ... ... ... : ... .. . ... : ... .. 0 ... : ... .. . ... ... : ... .. . ... ... : ... .. . ... ... : ... .. . ... ...
ROW 32 : G-1 00 C ... ... ... : A#4 00 A P82 ... ... : ... .. . ... : 1-# 00 8 ... : ... .. . ... ... : ... .. . ... ... : ... .. . ... ... : ... .. . ... ...
ROW 33 : ... .. B ... ... ... : ... .. . P7F ... ... : ... .. . ... : ... .. 6 ... : ... .. . ... ... : ... .. . ... ... : ... .. . ... ... : ... .. . ... ...
ROW 34 : ... .. A ... ... ... : A-4 00 A P82 ... ... : ... .. . ... : ... .. 3 ... : ... .. . ... ... : ... .. . ... ... : ... .. . ... ... : ... .. . ... ...
ROW 35 : ... .. 8 ... ... ... : ... .. . P81 ... ... : ... .. . ... : ... .. 1 ... : ... .. . ... ... : ... .. . ... ... : ... .. . ... ... : ... .. . ... ...
ROW 36 : ... .. 1 ... ... ... : ... .. 2 P83 ... ... : ... .. . ... : ... .. . ... : ... .. . ... ... : ... .. . ... ... : ... .. . ... ... : ... .. . ... ...
ROW 37 : ... .. . ... ... ... : A#4 00 2 P80 ... ... : --- .. . ... : ... .. 0 ... : ... .. . ... ... : ... .. . ... ... : ... .. . ... ... : --- .. . P7D ...
ROW 38 : E-2 00 C ... ... ... : ... .. . ... ... ... : F#3 00 . ... : ... .. F ... : ... .. . ... ... : A#3 01 8 ... ... : D-4 01 8 ... ... : G-0 01 F P80 ...
ROW 39 : ... .. B ... ... ... : ... .. 1 ... ... ... : G#2 00 . ... : ... .. C ... : ... .. . ... ... : ... .. 7 ... ... : ... .. 7 ... ... : ... .. D ... ...
ROW 3A : ... .. A ... ... ... : ... .. . ... ... ... : C#2 00 . ... : ... .. 6 ... : ... .. . ... ... : ... .. 6 ... ... : ... .. 6 ... ... : ... .. 8 ... ...
ROW 3B : ... .. 8 ... ... ... : ... .. . ... ... ... : C-2 00 . ... : ... .. 3 ... : ... .. . ... ... : ... .. 5 ... ... : ... .. 5 ... ... : ... .. . ... ...
ROW 3C : ... .. . ... ... ... : ... .. 0 ... ... ... : G-1 00 . ... : ... .. 2 ... : ... .. . ... ... : ... .. . ... ... : ... .. . ... ... : ... .. . ... ...
ROW 3D : ... .. . ... ... ... : ... .. . ... ... ... : ... .. . ... : ... .. 0 ... : ... .. . ... ... : ... .. 4 ... ... : ... .. 4 ... ... : ... .. . ... ...
ROW 3E : ... .. C ... ... ... : D-4 00 F P80 ... ... : ... .. . ... : C-# 00 8 ... : ... .. . ... ... : ... .. . ... ... : ... .. . ... ... : ... .. . ... ...
ROW 3F : ... .. B ... ... ... : ... .. E ... ... ... : ... .. . ... : ... .. 6 ... : ... .. . ... ... : ... .. . ... ... : ... .. . ... ... : ... .. . ... ...
ROW 40 : ... .. A ... ... ... : ... .. D ... ... ... : ... .. . ... : ... .. 3 ... : ... .. . ... ... : ... .. . ... ... : ... .. . ... ... : ... .. . ... ...
ROW 41 : ... .. 8 ... ... ... : ... .. A ... ... ... : ... .. . P60 : ... .. 1 ... : ... .. . ... ... : ... .. . ... ... : ... .. . ... ... : ... .. . P60 ...
ROW 42 : ... .. 1 ... ... ... : ... .. 2 ... ... ... : F#1 00 . P84 : ... .. . ... : ... .. . ... ... : ... .. . ... ... : ... .. . ... ... : ... .. . P40 ...
ROW 43 : ... .. . ... ... ... : ... .. . ... ... ... : ... .. . P64 : ... .. 0 ... : ... .. . ... ... : ... .. . ... ... : ... .. . ... ... : F#0 01 8 PBB ...
ROW 44 : A#1 00 C ... ... ... : ... .. F ... ... ... : F-1 00 . P8C : ... .. 8 ... : ... .. . ... ... : ... .. . ... ... : ... .. . ... ... : ... .. . P9B ...
ROW 45 : ... .. B ... ... ... : ... .. E ... ... ... : ... .. . P6C : ... .. 6 ... : ... .. . ... ... : ... .. . ... ... : ... .. . ... ... : ... .. . P7B ...
ROW 46 : ... .. A ... ... ... : ... .. D ... ... ... : E-1 00 . P98 : ... .. 3 ... : ... .. . ... ... : ... .. . ... ... : ... .. . ... ... : ... .. . P5B ...
ROW 47 : ... .. 8 ... ... ... : ... .. A ... ... ... : ... .. . P78 : ... .. 1 ... : ... .. . ... ... : ... .. . ... ... : ... .. . ... ... : ... .. . P3B ...
ROW 48 : ... .. 1 ... ... ... : ... .. 2 ... ... ... : ... .. . P58 : ... .. . ... : ... .. . ... ... : ... .. . ... ... : ... .. . ... ... : F-0 01 8 PC0 ...
ROW 49 : ... .. . ... ... ... : ... .. . ... ... ... : D#1 00 . P89 : ... .. 0 ... : ... .. . ... ... : ... .. . ... ... : ... .. . ... ... : ... .. . PA0 ...
ROW 4A : ... .. C ... ... ... : D#4 00 F ... ... ... : G-2 00 . P80 : 1-# 00 F ... : ... .. . ... ... : ... .. 8 ... ... : D#4 01 8 ... ... : G-1 01 F P80 ...
ROW 4B : ... .. B ... ... ... : ... .. E ... ... ... : ... .. . ... : ... .. C ... : ... .. . ... ... : ... .. 7 ... ... : ... .. 7 ... ... : ... .. D ... ...
ROW 4C : ... .. A ... ... ... : ... .. D ... ... ... : ... .. . ... : ... .. 6 ... : ... .. . ... ... : ... .. 6 ... ... : ... .. 6 ... ... : ... .. 8 ... ...
ROW 4D : ... .. 8 ... ... ... : ... .. A ... ... ... : ... .. . ... : ... .. 3 ... : ... .. . ... ... : ... .. 5 ... ... : ... .. 5 ... ... : ... .. . ... ...
ROW 4E : ... .. . ... ... ... : ... .. . ... ... ... : ... .. . ... : ... .. 2 ... : ... .. . ... ... : ... .. . ... ... : ... .. . ... ... : ... .. . ... ...
ROW 4F : ... .. . ... ... ... : ... .. . ... ... ... : ... .. . ... : ... .. 0 ... : ... .. . ... ... : ... .. 4 ... ... : ... .. 4 ... ... : ... .. . ... ...
ROW 50 : D-2 00 C ... ... ... : D-4 00 F ... ... ... : F-2 00 . ... : C-# 00 8 ... : ... .. . ... ... : ... .. . ... ... : ... .. . ... ... : F-1 01 F ... ...
ROW 51 : ... .. B ... ... ... : ... .. E ... ... ... : ... .. . ... : ... .. 6 ... : ... .. . ... ... : ... .. . ... ... : ... .. . ... ... : ... .. D ... ...
ROW 52 : ... .. A ... ... ... : ... .. D ... ... ... : ... .. . ... : ... .. 3 ... : ... .. . ... ... : ... .. . ... ... : ... .. . ... ... : ... .. 8 ... ...
ROW 53 : ... .. 8 ... ... ... : ... .. A ... ... ... : ... .. . ... : ... .. 1 ... : ... .. . ... ... : ... .. . ... ... : ... .. . ... ... : ... .. . ... ...
ROW 54 : ... .. 1 ... ... ... : ... .. 2 ... ... ... : ... .. . ... : ... .. . ... : ... .. . ... ... : ... .. . ... ... : ... .. . ... ... : ... .. . ... ...
ROW 55 : ... .. . ... ... ... : ... .. . ... ... ... : --- .. . ... : ... .. 0 ... : ... .. . ... ... : ... .. . ... ... : ... .. . ... ... : --- .. . P7F ...
ROW 56 : ... .. C ... ... ... : D-5 00 F ... ... ... : G-2 00 . ... : ... .. 8 ... : ... .. . ... ... : ... .. . ... ... : ... .. . ... ... : G-1 01 F P80 ...
ROW 57 : ... .. B ... ... ... : ... .. E ... ... ... : ... .. . ... : ... .. 6 ... : ... .. . ... ... : ... .. . ... ... : ... .. . ... ... : ... .. D ... ...
ROW 58 : ... .. A ... ... ... : ... .. D ... ... ... : ... .. . ... : ... .. 3 ... : ... .. . ... ... : ... .. . ... ... : ... .. . ... ... : ... .. 8 ... ...
ROW 59 : ... .. 8 ... ... ... : ... .. A ... ... ... : ... .. . ... : ... .. 1 ... : ... .. . ... ... : ... .. . ... ... : ... .. . ... ... : ... .. . ... ...
ROW 5A : ... .. 1 ... ... ... : ... .. 2 ... ... ... : ... .. . ... : ... .. . ... : ... .. . ... ... : ... .. . ... ... : ... .. . ... ... : ... .. . ... ...
ROW 5B : ... .. . ... ... ... : ... .. . ... ... ... : ... .. . ... : ... .. 0 ... : ... .. . ... ... : ... .. . ... ... : ... .. . ... ... : ... .. . ... ...
ROW 5C : C-2 00 C ... ... ... : ... .. F ... ... ... : F#5 00 . ... : 7-# 00 F ... : ... .. . ... ... : ... .. . ... ... : ... .. . ... ... : G-2 01 F ... ...
ROW 5D : ... .. B ... ... ... : ... .. E ... ... ... : G#4 00 . ... : ... .. C ... : ... .. . ... ... : ... .. . ... ... : ... .. . ... ... : ... .. D ... ...
ROW 5E : ... .. A ... ... ... : ... .. D ... ... ... : C#4 00 . ... : ... .. 6 ... : ... .. . ... ... : ... .. . ... ... : ... .. . ... ... : ... .. 8 ... ...
ROW 5F : ... .. 8 ... ... ... : ... .. A ... ... ... : C-4 00 . ... : ... .. 3 ... : ... .. . ... ... : ... .. . ... ... : ... .. . ... ... : ... .. . ... ...
ROW 60 : ... .. . ... ... ... : ... .. . ... ... ... : G-3 00 . ... : ... .. 2 ... : ... .. . ... ... : ... .. . ... ... : ... .. . ... ... : ... .. . ... ...
ROW 61 : ... .. . ... ... ... : ... .. . ... ... ... : --- .. . ... : ... .. 0 ... : ... .. . ... ... : ... .. . ... ... : ... .. . ... ... : --- .. . P7D ...
ROW 62 : ... .. C ... ... ... : ... .. . ... ... ... : F-3 00 . ... : ... .. 8 ... : ... .. . ... ... : ... .. . ... ... : ... .. . ... ... : F-2 01 F P80 ...
ROW 63 : ... .. B ... ... ... : ... .. . ... ... ... : ... .. . ... : ... .. 6 ... : ... .. . ... ... : ... .. . ... ... : ... .. . ... ... : ... .. D ... ...
ROW 64 : ... .. A ... ... ... : ... .. . ... ... ... : ... .. . ... : ... .. 3 ... : ... .. . ... ... : ... .. . ... ... : ... .. . ... ... : ... .. 8 ... ...
ROW 65 : ... .. 8 ... ... ... : ... .. . ... ... ... : ... .. . ... : ... .. 1 ... : ... .. . ... ... : ... .. . ... ... : ... .. . ... ... : ... .. . ... ...
ROW 66 : ... .. 1 ... ... ... : ... .. . ... ... ... : ... .. . ... : ... .. . ... : ... .. . ... ... : ... .. . ... ... : ... .. . ... ... : ... .. . ... ...
ROW 67 : ... .. . ... ... ... : ... .. . ... ... ... : --- .. . ... : ... .. 0 ... : ... .. . ... ... : ... .. . ... ... : ... .. . ... ... : --- .. . P7E ...
ROW 68 : G#1 00 C ... ... ... : ... .. . ... ... ... : A#3 00 . ... : 4-# 00 F ... : ... .. . ... ... : ... .. . ... ... : ... .. . ... ... : A#2 01 F P80 ...
ROW 69 : ... .. B ... ... ... : ... .. . ... ... ... : ... .. . ... : ... .. C ... : ... .. . ... ... : ... .. . ... ... : ... .. . ... ... : ... .. D ... ...
ROW 6A : ... .. A ... ... ... : ... .. . ... ... ... : ... .. . ... : ... .. 6 ... : ... .. . ... ... : ... .. . ... ... : ... .. . ... ... : ... .. 8 ... ...
ROW 6B : ... .. 8 ... ... ... : ... .. . ... ... ... : ... .. . ... : ... .. 3 ... : ... .. . ... ... : ... .. . ... ... : ... .. . ... ... : ... .. . ... ...
ROW 6C : ... .. 1 ... ... ... : ... .. . ... ... ... : ... .. . ... : ... .. 2 ... : ... .. . ... ... : ... .. . ... ... : ... .. . ... ... : ... .. . ... ...
ROW 6D : ... .. . ... ... ... : ... .. . ... ... ... : ... .. . ... : ... .. 0 ... : ... .. . ... ... : ... .. . ... ... : ... .. . ... ... : ... .. . ... ...
ROW 6E : ... .. C ... ... ... : D#5 00 A P7F ... ... : G#3 00 . ... : 9-# 00 8 ... : ... .. . ... ... : ... .. . ... ... : ... .. . ... ... : G#2 01 F ... ...
ROW 6F : ... .. B ... ... ... : ... .. . P81 ... ... : ... .. . ... : ... .. 6 ... : ... .. . ... ... : ... .. . ... ... : ... .. . ... ... : ... .. D ... ...
ROW 70 : ... .. A ... ... ... : ... .. . P80 ... ... : ... .. . ... : ... .. 3 ... : ... .. . ... ... : ... .. . ... ... : ... .. . ... ... : ... .. 8 ... ...
ROW 71 : ... .. 8 ... ... ... : D-5 00 A P82 ... ... : ... .. . ... : ... .. 1 ... : ... .. . ... ... : ... .. . ... ... : ... .. . ... ... : ... .. . ... ...
ROW 72 : ... .. 1 ... ... ... : ... .. . P7E ... ... : ... .. . ... : ... .. . ... : ... .. . ... ... : ... .. . ... ... : ... .. . ... ... : ... .. . ... ...
ROW 73 : ... .. . ... ... ... : C#5 00 A P81 ... ... : --- .. . ... : ... .. 0 ... : ... .. . ... ... : ... .. . ... ... : ... .. . ... ... : --- .. . P7F ...
ROW 74 : G-1 00 C ... ... ... : ... .. . P80 ... ... : G-3 00 . ... : 7-# 00 F ... : ... .. . ... ... : ... .. . ... ... : ... .. . ... ... : G-2 01 F P80 ...
ROW 75 : ... .. B ... ... ... : ... .. . P82 ... ... : ... .. . ... : ... .. C ... : ... .. . ... ... : ... .. . ... ... : ... .. . ... ... : ... .. D ... ...
ROW 76 : ... .. A ... ... ... : D-5 00 A P80 ... ... : ... .. . ... : ... .. 6 ... : ... .. . ... ... : ... .. . ... ... : ... .. . ... ... : ... .. 8 ... ...
ROW 77 : ... .. 8 ... ... ... : D#5 00 A P7E ... ... : ... .. . ... : ... .. 3 ... : ... .. . ... ... : ... .. . ... ... : ... .. . ... ... : ... .. . ... ...
ROW 78 : ... .. 1 ... ... ... : ... .. . P81 ... ... : ... .. . ... : ... .. 2 ... : ... .. . ... ... : ... .. . ... ... : ... .. . ... ... : ... .. . ... ...
ROW 79 : ... .. . ... ... ... : ... .. . ... ... ... : --- .. . ... : ... .. 0 ... : ... .. . ... ... : ... .. . ... ... : ... .. . ... ... : --- .. . P7D ...
ROW 7A : ... .. C ... ... ... : D-5 00 A P82 ... ... : G-2 00 . ... : 5-# 00 8 ... : ... .. . ... ... : ... .. . ... ... : ... .. . ... ... : G-1 01 F P80 ...
ROW 7B : ... .. B ... ... ... : ... .. . P7F ... ... : ... .. . ... : ... .. 6 ... : ... .. . ... ... : ... .. . ... ... : ... .. . ... ... : ... .. D ... ...
ROW 7C : ... .. A ... ... ... : C#5 00 A P81 ... ... : ... .. . ... : ... .. 3 ... : ... .. . ... ... : ... .. . ... ... : ... .. . ... ... : ... .. 8 ... ...
ROW 7D : ... .. 8 ... ... ... : ... .. . P80 ... ... : ... .. . ... : ... .. 1 ... : ... .. . ... ... : ... .. . ... ... : ... .. . ... ... : ... .. . ... ...
ROW 7E : ... .. 1 ... ... ... : ... .. . P82 ... ... : ... .. . ... : ... .. . ... : ... .. . ... ... : ... .. . ... ... : ... .. . ... ... : ... .. . ... ...
ROW 7F : ... .. . ... ... ... : D-5 00 A P80 ... ... : --- .. . ... : ... .. 0 ... : ... .. . ... ... : ... .. . ... ... : ... .. . ... ... : --- .. . P81 ...
ROW 80 : ... .. C ... ... ... : D#5 00 A P7E ... ... : F#4 00 . ... : 1-# 00 F ... : ... .. . ... ... : A#4 01 8 ... ... : D-5 01 8 ... ... : G-1 01 F P80 ...
ROW 81 : ... .. B ... ... ... : ... .. 2 P81 ... ... : G#3 00 . ... : ... .. C ... : ... .. . ... ... : ... .. 7 ... ... : ... .. 7 ... ... : ... .. D ... ...
ROW 82 : ... .. A ... ... ... : ... .. . ... ... ... : C#3 00 . ... : ... .. 6 ... : ... .. . ... ... : ... .. 6 ... ... : ... .. 6 ... ... : ... .. 8 ... ...
ROW 83 : ... .. 8 ... ... ... : ... .. . P7E ... ... : C-3 00 . ... : ... .. 3 ... : ... .. . ... ... : ... .. 5 ... ... : ... .. 5 ... ... : ... .. . ... ...
ROW 84 : ... .. 1 ... ... ... : D-5 00 1 P80 ... ... : G-2 00 . ... : ... .. 2 ... : ... .. . ... ... : ... .. . ... ... : ... .. . ... ... : ... .. . ... ...
ROW 85 : ... .. . ... ... ... : C#5 00 1 P82 ... ... : ... .. . ... : ... .. 0 ... : ... .. . ... ... : ... .. 4 ... ... : ... .. 4 ... ... : ... .. . ... ...
ROW 86 : ... .. C ... ... ... : F#4 00 F P80 ... ... : ... .. . ... : C-# 00 8 ... : ... .. . ... ... : ... .. . ... ... : ... .. . ... ... : ... .. . ... ...
ROW 87 : ... .. B ... ... ... : ... .. E ... ... ... : ... .. . ... : ... .. 6 ... : ... .. . ... ... : ... .. . ... ... : ... .. . ... ... : ... .. . ... ...
ROW 88 : ... .. A ... ... ... : ... .. D ... ... ... : ... .. . ... : ... .. 3 ... : ... .. . ... ... : ... .. . ... ... : ... .. . ... ... : ... .. . ... ...
ROW 89 : ... .. 8 ... ... ... : ... .. A ... ... ... : F#2 00 . P82 : ... .. 1 ... : ... .. . ... ... : ... .. . ... ... : ... .. . ... ... : ... .. . P60 ...
ROW 8A : ... .. 1 ... ... ... : ... .. . ... ... ... : F-2 00 . P86 : ... .. . ... : ... .. . ... ... : ... .. . ... ... : ... .. . ... ... : F#1 01 8 P8D ...
ROW 8B : ... .. . ... ... ... : ... .. . ... ... ... : E-2 00 . P8C : ... .. 0 ... : ... .. . ... ... : ... .. . ... ... : ... .. . ... ... : ... .. . P6D ...
ROW 8C : D-2 00 C ... ... ... : G-4 00 F ... ... ... : D#2 00 . P94 : ... .. 8 ... : ... .. . ... ... : ... .. . ... ... : ... .. . ... ... : F-1 01 8 P9F ...
ROW 8D : ... .. B ... ... ... : ... .. E ... ... ... : ... .. . P74 : ... .. 6 ... : ... .. . ... ... : ... .. . ... ... : ... .. . ... ... : ... .. . P7F ...
ROW 8E : ... .. A ... ... ... : ... .. D ... ... ... : D-2 00 . P7F : ... .. 3 ... : ... .. . ... ... : ... .. . ... ... : ... .. . ... ... : ... .. . P5F ...
ROW 8F : ... .. 8 ... ... ... : ... .. A ... ... ... : C#2 00 . P8C : ... .. 1 ... : ... .. . ... ... : ... .. . ... ... : ... .. . ... ... : E-1 01 8 P96 ...
ROW 90 : ... .. . ... ... ... : ... .. . ... ... ... : ... .. . P6C : ... .. . ... : ... .. . ... ... : ... .. . ... ... : ... .. . ... ... : ... .. . P76 ...
ROW 91 : ... .. . ... ... ... : ... .. . ... ... ... : C-2 00 . P7C : ... .. 0 ... : ... .. . ... ... : ... .. . ... ... : ... .. . ... ... : ... .. . P56 ...
ROW 92 : C#2 00 C ... ... ... : C-5 00 F ... ... ... : F#5 00 . P80 : 1-# 00 F ... : ... .. . ... ... : ... .. 8 ... ... : D#5 01 8 ... ... : G-2 01 F P80 ...
ROW 93 : ... .. B ... ... ... : ... .. E ... ... ... : G#4 00 . ... : ... .. C ... : ... .. . ... ... : ... .. 7 ... ... : ... .. 7 ... ... : ... .. D ... ...
ROW 94 : ... .. A ... ... ... : ... .. D ... ... ... : C#4 00 . ... : ... .. 6 ... : ... .. . ... ... : ... .. 6 ... ... : ... .. 6 ... ... : ... .. 8 ... ...
ROW 95 : ... .. 8 ... ... ... : ... .. A ... ... ... : C-4 00 . ... : ... .. 3 ... : ... .. . ... ... : ... .. 5 ... ... : ... .. 5 ... ... : ... .. . ... ...
ROW 96 : ... .. 1 ... ... ... : ... .. . ... ... ... : G-3 00 . ... : ... .. 2 ... : ... .. . ... ... : ... .. . ... ... : ... .. . ... ... : ... .. . ... ...
ROW 97 : ... .. . ... ... ... : ... .. . ... ... ... : --- .. . ... : ... .. 0 ... : ... .. . ... ... : ... .. 4 ... ... : ... .. 4 ... ... : --- .. . P7D ...
ROW 98 : D-2 00 C ... ... ... : ... .. . ... ... ... : F-3 00 . ... : C-# 00 8 ... : ... .. . ... ... : ... .. . ... ... : ... .. . ... ... : F-2 01 F P80 ...
ROW 99 : ... .. B ... ... ... : ... .. . ... ... ... : ... .. . ... : ... .. 6 ... : ... .. . ... ... : ... .. . ... ... : ... .. . ... ... : ... .. D ... ...
ROW 9A : ... .. A ... ... ... : ... .. . ... ... ... : ... .. . ... : ... .. 3 ... : ... .. . ... ... : ... .. . ... ... : ... .. . ... ... : ... .. 8 ... ...
ROW 9B : ... .. 8 ... ... ... : ... .. . ... ... ... : ... .. . ... : ... .. 1 ... : ... .. . ... ... : ... .. . ... ... : ... .. . ... ... : ... .. . ... ...
ROW 9C : ... .. 1 ... ... ... : ... .. . ... ... ... : ... .. . ... : ... .. . ... : ... .. . ... ... : ... .. . ... ... : ... .. . ... ... : ... .. . ... ...
ROW 9D : ... .. . ... ... ... : ... .. . ... ... ... : --- .. . ... : ... .. 0 ... : ... .. . ... ... : ... .. . ... ... : ... .. . ... ... : --- .. . P7E ...
ROW 9E : A#1 00 C ... ... ... : ... .. . ... ... ... : G-3 00 . ... : ... .. 8 ... : ... .. . ... ... : ... .. . ... ... : ... .. . ... ... : G-2 01 F P80 ...
ROW 9F : ... .. B ... ... ... : ... .. . ... ... ... : ... .. . ... : ... .. 6 ... : ... .. . ... ... : ... .. . ... ... : ... .. . ... ... : ... .. D ... ...
ROW A0 : ... .. A ... ... ... : ... .. . ... ... ... : ... .. . ... : ... .. 3 ... : ... .. . ... ... : ... .. . ... ... : ... .. . ... ... : ... .. 8 ... ...
ROW A1 : ... .. 8 ... ... ... : ... .. . ... ... ... : --- .. . ... : ... .. 1 ... : ... .. . ... ... : ... .. . ... ... : ... .. . ... ... : --- .. . P7D ...
ROW A2 : ... .. . ... ... ... : ... .. . ... ... ... : ... .. . ... : ... .. . ... : ... .. . ... ... : ... .. . ... ... : ... .. . ... ... : ... .. . ... ...
ROW A3 : ... .. . ... ... ... : ... .. . ... ... ... : ... .. . ... : ... .. 0 ... : ... .. . ... ... : ... .. . ... ... : ... .. . ... ... : ... .. . ... ...
ROW A4 : A#2 00 C ... ... ... : C#5 00 A P7E ... ... : C#6 00 . ... : 7-# 00 F ... : ... .. . ... ... : ... .. . ... ... : ... .. . ... ... : D-3 01 F P80 ...
ROW A5 : ... .. B ... ... ... : ... .. . P80 ... ... : D#5 00 . ... : ... .. C ... : ... .. . ... ... : ... .. . ... ... : ... .. . ... ... : ... .. D ... ...
ROW A6 : ... .. A ... ... ... : ... .. . P7F ... ... : G#4 00 . ... : ... .. 6 ... : ... .. . ... ... : ... .. . ... ... : ... .. . ... ... : ... .. 8 ... ...
ROW A7 : ... .. 8 ... ... ... : C-5 00 A P82 ... ... : G-4 00 . ... : ... .. 3 ... : ... .. . ... ... : ... .. . ... ... : ... .. . ... ... : ... .. . ... ...
ROW A8 : ... .. 1 ... ... ... : ... .. . P7E ... ... : D-4 00 . ... : ... .. 2 ... : ... .. . ... ... : ... .. . ... ... : ... .. . ... ... : ... .. . ... ...
ROW A9 : ... .. . ... ... ... : B-4 00 A P81 ... ... : ... .. . ... : ... .. 0 ... : ... .. . ... ... : ... .. . ... ... : ... .. . ... ... : ... .. . ... ...
ROW AA : ... .. C ... ... ... : ... .. . P80 ... ... : ... .. . ... : 1-# 00 8 ... : ... .. . ... ... : ... .. . ... ... : ... .. . ... ... : ... .. . ... ...
ROW AB : ... .. B ... ... ... : ... .. . P82 ... ... : ... .. . ... : ... .. 6 ... : ... .. . ... ... : ... .. . ... ... : ... .. . ... ... : ... .. . ... ...
ROW AC : ... .. A ... ... ... : C-5 00 A P80 ... ... : ... .. . ... : ... .. 3 ... : ... .. . ... ... : ... .. . ... ... : ... .. . ... ... : ... .. . ... ...
ROW AD : ... .. 8 ... ... ... : ... .. . P83 ... ... : ... .. . ... : ... .. 1 ... : ... .. . ... ... : ... .. . ... ... : ... .. . ... ... : ... .. . ... ...
ROW AE : ... .. 1 ... ... ... : C#5 00 A P80 ... ... : ... .. . ... : ... .. . ... : ... .. . ... ... : ... .. . ... ... : ... .. . ... ... : ... .. . ... ...
ROW AF : ... .. . ... ... ... : ... .. . ... ... ... : ... .. . ... : ... .. 0 ... : ... .. . ... ... : ... .. . ... ... : ... .. . ... ... : ... .. . ... ...
ROW B0 : C#2 00 C ... ... ... : D-5 00 F ... ... ... : C#4 00 . ... : 7-# 00 F ... : ... .. . ... ... : ... .. . ... ... : ... .. . ... ... : C#3 01 F ... ...
ROW B1 : ... .. B ... ... ... : ... .. E ... ... ... : ... .. . ... : ... .. C ... : ... .. . ... ... : ... .. . ... ... : ... .. . ... ... : ... .. D ... ...
ROW B2 : ... .. A ... ... ... : ... .. D ... ... ... : ... .. . ... : ... .. 6 ... : ... .. . ... ... : ... .. . ... ... : ... .. . ... ... : ... .. 8 ... ...
ROW B3 : ... .. 8 ... ... ... : C-5 00 F ... ... ... : ... .. . ... : ... .. 3 ... : ... .. . ... ... : ... .. . ... ... : ... .. . ... ... : ... .. . ... ...
ROW B4 : ... .. 1 ... ... ... : ... .. E ... ... ... : ... .. . ... : ... .. 2 ... : ... .. . ... ... : ... .. . ... ... : ... .. . ... ... : ... .. . ... ...
ROW B5 : ... .. . ... ... ... : ... .. D ... ... ... : ... .. . ... : ... .. 0 ... : ... .. . ... ... : ... .. . ... ... : ... .. . ... ... : ... .. . ... ...
ROW B6 : C#3 00 C ... ... ... : A#4 00 F ... ... ... : ... .. . ... : 1-# 00 8 ... : ... .. . ... ... : ... .. . ... ... : ... .. . ... ... : ... .. . ... ...
ROW B7 : ... .. B ... ... ... : ... .. E ... ... ... : ... .. . ... : ... .. 6 ... : ... .. . ... ... : ... .. . ... ... : ... .. . ... ... : ... .. . ... ...
ROW B8 : ... .. A ... ... ... : ... .. D ... ... ... : ... .. . ... : ... .. 3 ... : ... .. . ... ... : ... .. . ... ... : ... .. . ... ... : ... .. . ... ...
ROW B9 : ... .. 8 ... ... ... : ... .. A ... ... ... : ... .. . ... : ... .. 1 ... : ... .. . ... ... : ... .. . ... ... : ... .. . ... ... : ... .. . ... ...
ROW BA : ... .. 1 ... ... ... : ... .. . ... ... ... : ... .. . ... : ... .. . ... : ... .. . ... ... : ... .. . ... ... : ... .. . ... ... : ... .. . ... ...
ROW BB : ... .. . ... ... ... : ... .. . ... ... ... : --- .. . ... : ... .. 0 ... : ... .. . ... ... : ... .. . ... ... : ... .. . ... ... : --- .. . ... ...
ROW BC : ... .. C ... ... ... : A-4 00 F ... ... ... : G-3 00 . ... : 7-# 00 F ... : ... .. . ... ... : ... .. . ... ... : ... .. . ... ... : G-2 01 F ... ...
ROW BD : ... .. B ... ... ... : ... .. E ... ... ... : ... .. . ... : ... .. C ... : ... .. . ... ... : ... .. . ... ... : ... .. . ... ... : ... .. D ... ...
ROW BE : ... .. A ... ... ... : ... .. D ... ... ... : ... .. . ... : ... .. 6 ... : ... .. . ... ... : ... .. . ... ... : ... .. . ... ... : ... .. 8 ... ...
ROW BF : ... .. 8 ... ... ... : ... .. A ... ... ... : ... .. . ... : ... .. 3 ... : ... .. . ... ... : ... .. . ... ... : ... .. . ... ... : ... .. . ... ...
ROW C0 : ... .. 1 ... ... ... : ... .. . ... ... ... : ... .. . ... : ... .. 2 ... : ... .. . ... ... : ... .. . ... ... : ... .. . ... ... : ... .. . ... ...
ROW C1 : ... .. . ... ... ... : ... .. . ... ... ... : ... .. . ... : ... .. 0 ... : ... .. . ... ... : ... .. . ... ... : ... .. . ... ... : ... .. . ... ...
ROW C2 : G-2 00 C ... ... ... : G-4 00 F ... ... ... : ... .. . ... : 1-# 00 8 ... : ... .. . ... ... : ... .. . ... ... : ... .. . ... ... : ... .. . ... ...
ROW C3 : ... .. B ... ... ... : ... .. E ... ... ... : ... .. . ... : ... .. 6 ... : ... .. . ... ... : ... .. . ... ... : ... .. . ... ... : ... .. . ... ...
ROW C4 : ... .. A ... ... ... : ... .. D ... ... ... : ... .. . ... : ... .. 3 ... : ... .. . ... ... : ... .. . ... ... : ... .. . ... ... : ... .. . ... ...
ROW C5 : ... .. 8 ... ... ... : ... .. A ... ... ... : ... .. . ... : ... .. 1 ... : ... .. . ... ... : ... .. . ... ... : ... .. . ... ... : ... .. . ... ...
ROW C6 : ... .. 1 ... ... ... : ... .. . ... ... ... : ... .. . ... : ... .. . ... : ... .. . ... ... : ... .. . ... ... : ... .. . ... ... : ... .. . ... ...
ROW C7 : ... .. . ... ... ... : ... .. . ... ... ... : --- .. . ... : ... .. 0 ... : ... .. . ... ... : ... .. . ... ... : ... .. . ... ... : --- .. . P7D ...
ROW C8 : F#3 00 C ... ... ... : F#4 00 F ... ... ... : F#5 00 . ... : ... .. F ... : ... .. . ... ... : ... .. 8 ... ... : D-4 01 8 ... ... : G-2 01 F P80 ...
ROW C9 : ... .. B ... ... ... : ... .. E ... ... ... : G#4 00 . ... : ... .. C ... : ... .. . ... ... : ... .. 7 ... ... : ... .. 7 ... ... : ... .. D ... ...
ROW CA : ... .. A ... ... ... : ... .. D ... ... ... : C#4 00 . ... : ... .. 6 ... : ... .. . ... ... : ... .. 6 ... ... : ... .. 6 ... ... : ... .. 8 ... ...
ROW CB : ... .. 8 ... ... ... : ... .. A ... ... ... : C-4 00 . ... : ... .. 3 ... : ... .. . ... ... : ... .. 5 ... ... : ... .. 5 ... ... : ... .. . ... ...
ROW CC : ... .. . ... ... ... : ... .. . ... ... ... : G-3 00 . ... : ... .. 2 ... : ... .. . ... ... : ... .. . ... ... : ... .. . ... ... : ... .. . ... ...
ROW CD : ... .. . ... ... ... : ... .. . ... ... ... : ... .. . ... : ... .. 0 ... : ... .. . ... ... : ... .. 4 ... ... : ... .. 4 ... ... : ... .. . ... ...
ROW CE : G-1 00 C ... ... ... : G-4 00 F ... ... ... : ... .. . ... : C-# 00 8 ... : ... .. . ... ... : A#3 01 8 ... ... : A#3 01 8 ... ... : ... .. . ... ...
ROW CF : ... .. B ... ... ... : ... .. E ... ... ... : ... .. . ... : ... .. 6 ... : ... .. . ... ... : ... .. 7 ... ... : ... .. 7 ... ... : ... .. . ... ...
ROW D0 : ... .. A ... ... ... : ... .. D ... ... ... : ... .. . ... : ... .. 3 ... : ... .. . ... ... : ... .. 6 ... ... : ... .. 6 ... ... : ... .. . ... ...
ROW D1 : ... .. 8 ... ... ... : ... .. A ... ... ... : F-3 00 . P83 : ... .. 1 ... : ... .. . ... ... : ... .. 5 ... ... : ... .. 5 ... ... : F#2 01 8 P87 ...
ROW D2 : ... .. 1 ... ... ... : ... .. . ... ... ... : E-3 00 . P76 : ... .. . ... : ... .. . ... ... : ... .. . ... ... : ... .. . ... ... : F-2 01 8 P90 ...
ROW D3 : ... .. . ... ... ... : ... .. . ... ... ... : D-3 00 . P80 : ... .. 0 ... : ... .. . ... ... : ... .. 4 ... ... : ... .. 4 ... ... : ... .. . P70 ...
ROW D4 : ... .. C ... ... ... : D-4 00 F ... ... ... : C#3 00 . P77 : ... .. 8 ... : ... .. . ... ... : G-3 01 8 ... ... : G-3 01 8 ... ... : E-2 01 8 P7C ...
ROW D5 : ... .. B ... ... ... : ... .. E ... ... ... : B-2 00 . P88 : ... .. 6 ... : ... .. . ... ... : ... .. 7 ... ... : ... .. 7 ... ... : D#2 01 8 P8A ...
ROW D6 : ... .. A ... ... ... : ... .. D ... ... ... : A#2 00 . P83 : ... .. 3 ... : ... .. . ... ... : ... .. 6 ... ... : ... .. 6 ... ... : ... .. . P6A ...
ROW D7 : ... .. 8 ... ... ... : ... .. A ... ... ... : A-2 00 . P7F : ... .. 1 ... : ... .. . ... ... : ... .. 5 ... ... : ... .. 5 ... ... : D-2 01 8 P7B ...
ROW D8 : ... .. 1 ... ... ... : ... .. . ... ... ... : G#2 00 . P7E : ... .. . ... : ... .. . ... ... : ... .. . ... ... : ... .. . ... ... : C#2 01 8 P8E ...
ROW D9 : ... .. . ... ... ... : ... .. . ... ... ... : G-2 00 . ... : ... .. 0 ... : ... .. . ... ... : ... .. 4 ... ... : ... .. 4 ... ... : ... .. . P6E ...
ROW DA : F#3 00 C ... ... ... : A#3 00 F ... ... ... : F#5 00 . P80 : 1-# 00 F ... : ... .. . ... ... : A#4 01 8 ... ... : D-4 01 8 ... ... : G-2 01 F P80 ...
ROW DB : ... .. B ... ... ... : ... .. E ... ... ... : G#4 00 . ... : ... .. C ... : ... .. . ... ... : ... .. 7 ... ... : ... .. 7 ... ... : ... .. D ... ...
ROW DC : ... .. A ... ... ... : ... .. D ... ... ... : C#4 00 . ... : ... .. 6 ... : ... .. . ... ... : ... .. 6 ... ... : ... .. 6 ... ... : ... .. 8 ... ...
ROW DD : ... .. 8 ... ... ... : ... .. A ... ... ... : C-4 00 . ... : ... .. 3 ... : ... .. . ... ... : ... .. 5 ... ... : ... .. 5 ... ... : ... .. . ... ...
ROW DE : ... .. . ... ... ... : ... .. . ... ... ... : G-3 00 . ... : ... .. 2 ... : ... .. . ... ... : ... .. . ... ... : ... .. . ... ... : ... .. . ... ...
ROW DF : ... .. . ... ... ... : ... .. . ... ... ... : ... .. . ... : ... .. 0 ... : ... .. . ... ... : ... .. 4 ... ... : ... .. 4 ... ... : ... .. . ... ...
ROW E0 : G-1 00 C ... ... ... : A-3 00 F ... ... ... : ... .. . ... : C-# 00 8 ... : ... .. . ... ... : A#3 01 8 ... ... : A#3 01 8 ... ... : ... .. . ... ...
ROW E1 : ... .. B ... ... ... : ... .. E ... ... ... : ... .. . ... : ... .. 6 ... : ... .. . ... ... : ... .. 7 ... ... : ... .. 7 ... ... : ... .. . ... ...
ROW E2 : ... .. A ... ... ... : ... .. D ... ... ... : ... .. . ... : ... .. 3 ... : ... .. . ... ... : ... .. 6 ... ... : ... .. 6 ... ... : ... .. . ... ...
ROW E3 : ... .. 8 ... ... ... : ... .. A ... ... ... : F-3 00 . P83 : ... .. 1 ... : ... .. . ... ... : ... .. 5 ... ... : ... .. 5 ... ... : F#2 01 8 P87 ...
ROW E4 : ... .. 1 ... ... ... : ... .. . ... ... ... : E-3 00 . P76 : ... .. . ... : ... .. . ... ... : ... .. . ... ... : ... .. . ... ... : F-2 01 8 P90 ...
ROW E5 : ... .. . ... ... ... : ... .. . ... ... ... : D-3 00 . P80 : ... .. 0 ... : ... .. . ... ... : ... .. 4 ... ... : ... .. 4 ... ... : ... .. . P70 ...
ROW E6 : ... .. C ... ... ... : G-3 00 F ... ... ... : C#3 00 . P77 : ... .. 8 ... : ... .. . ... ... : G-3 01 8 ... ... : G-3 01 8 ... ... : E-2 01 8 P7C ...
ROW E7 : ... .. B ... ... ... : ... .. E ... ... ... : B-2 00 . P88 : ... .. 6 ... : ... .. . ... ... : ... .. 7 ... ... : ... .. 7 ... ... : D#2 01 8 P8A ...
ROW E8 : ... .. A ... ... ... : ... .. D ... ... ... : A#2 00 . P83 : ... .. 3 ... : ... .. . ... ... : ... .. 6 ... ... : ... .. 6 ... ... : ... .. . P6A ...
ROW E9 : ... .. 8 ... ... ... : ... .. A ... ... ... : A-2 00 . P7F : ... .. 1 ... : ... .. . ... ... : ... .. 5 ... ... : ... .. 5 ... ... : D-2 01 8 P7B ...
ROW EA : ... .. 1 ... ... ... : ... .. . ... ... ... : G#2 00 . P7E : ... .. . ... : ... .. . ... ... : ... .. . ... ... : ... .. . ... ... : C#2 01 8 P8E ...
ROW EB : ... .. . ... ... ... : ... .. . ... ... ... : G-2 00 . ... : ... .. 0 ... : ... .. . ... ... : ... .. 4 ... ... : ... .. 4 ... ... : ... .. . P6E ...
ROW EC : F-3 00 C ... ... ... : D-3 00 F ... ... ... : F#4 00 . P80 : 7-# 00 F ... : ... .. . ... ... : A#4 01 8 ... ... : D-4 01 8 ... ... : G-1 01 F P80 ...
ROW ED : ... .. B ... ... ... : ... .. E ... ... ... : G#3 00 . ... : ... .. C ... : ... .. . ... ... : ... .. 7 ... ... : ... .. 7 ... ... : ... .. D ... ...
ROW EE : ... .. A ... ... ... : ... .. D ... ... ... : C#3 00 . ... : ... .. 6 ... : ... .. . ... ... : ... .. 6 ... ... : ... .. 6 ... ... : ... .. 8 ... ...
ROW EF : ... .. 8 ... ... ... : ... .. A ... ... ... : C-3 00 . ... : ... .. 3 ... : ... .. . ... ... : ... .. 5 ... ... : ... .. 5 ... ... : ... .. . ... ...
ROW F0 : ... .. . ... ... ... : ... .. . ... ... ... : G-2 00 . ... : ... .. 2 ... : ... .. . ... ... : ... .. . ... ... : ... .. . ... ... : ... .. . ... ...
ROW F1 : ... .. . ... ... ... : ... .. . ... ... ... : ... .. . ... : ... .. 0 ... : ... .. . ... ... : ... .. 4 ... ... : ... .. 4 ... ... : ... .. . ... ...
ROW F2 : G-1 00 C ... ... ... : A#2 00 F ... ... ... : ... .. . ... : ... .. 8 ... : ... .. . ... ... : A#3 01 8 ... ... : A#3 01 8 ... ... : ... .. . ... ...
ROW F3 : ... .. B ... ... ... : ... .. E ... ... ... : ... .. . ... : ... .. 6 ... : ... .. . ... ... : ... .. 7 ... ... : ... .. 7 ... ... : ... .. . ... ...
ROW F4 : ... .. A ... ... ... : ... .. D ... ... ... : ... .. . ... : ... .. 3 ... : ... .. . ... ... : ... .. 6 ... ... : ... .. 6 ... ... : ... .. . ... ...
ROW F5 : ... .. 8 ... ... ... : ... .. A ... ... ... : F#2 00 . P82 : ... .. 1 ... : ... .. . ... ... : ... .. 5 ... ... : ... .. 5 ... ... : ... .. . P60 ...
ROW F6 : ... .. 1 ... ... ... : ... .. . ... ... ... : F-2 00 . P86 : ... .. . ... : ... .. . ... ... : ... .. . ... ... : ... .. . ... ... : F#1 01 8 P8D ...
ROW F7 : ... .. . ... ... ... : ... .. . ... ... ... : E-2 00 . P8C : ... .. 0 ... : ... .. . ... ... : ... .. 4 ... ... : ... .. 4 ... ... : ... .. . P6D ...
ROW F8 : ... .. C ... ... ... : A-2 00 F ... ... ... : D#2 00 . P94 : 4-# 00 F ... : ... .. . ... ... : C#3 01 8 ... ... : F-3 01 8 ... ... : F-1 01 8 P9F ...
ROW F9 : ... .. B ... ... ... : ... .. E ... ... ... : ... .. . P74 : ... .. C ... : ... .. . ... ... : ... .. 7 ... ... : ... .. 7 ... ... : ... .. . P7F ...
ROW FA : ... .. A ... ... ... : ... .. D ... ... ... : D-2 00 . P7F : ... .. 6 ... : ... .. . ... ... : ... .. 6 ... ... : ... .. 6 ... ... : ... .. . P5F ...
ROW FB : ... .. 8 ... ... ... : ... .. A ... ... ... : C#2 00 . P8C : ... .. 3 ... : ... .. . ... ... : ... .. 5 ... ... : ... .. 5 ... ... : E-1 01 8 P96 ...
ROW FC : ... .. 1 ... ... ... : ... .. . ... ... ... : ... .. . P6C : ... .. 2 ... : ... .. . ... ... : ... .. . ... ... : ... .. . ... ... : ... .. . P76 ...
ROW FD : ... .. . ... ... ... : ... .. . ... ... ... : C-2 00 . P7C : ... .. 0 ... : ... .. . ... ... : ... .. 4 ... ... : ... .. 4 ... ... : ... .. . P56 ...
ROW FE : F-3 00 C ... ... ... : A#2 00 F ... ... ... : F#4 00 . P80 : 9-# 00 8 ... : ... .. . ... ... : A#4 01 8 ... ... : D-4 01 8 ... ... : G-1 01 F P80 ...
ROW FF : ... .. B ... ... ... : ... .. E ... ... ... : G#3 00 . ... : ... .. 6 ... : ... .. . ... ... : ... .. 7 ... ... : ... .. 7 ... ... : ... .. D ... ...

PATTERN 05
ROW 00 : ... .. A ... ... ... : ... .. D ... ... ... : C#3 00 . ... : ... .. 3 ... : ... .. . ... ... : ... .. 6 ... ... : ... .. 6 ... ... : ... .. 8 ... ...
ROW 01 : ... .. 8 ... ... ... : ... .. A ... ... ... : C-3 00 . ... : ... .. 1 ... : ... .. . ... ... : ... .. 5 ... ... : ... .. 5 ... ... : ... .. . ... ...
ROW 02 : ... .. . ... ... ... : ... .. . ... ... ... : G-2 00 . ... : ... .. . ... : ... .. . ... ... : ... .. . ... ... : ... .. . ... ... : ... .. . ... ...
ROW 03 : ... .. . ... ... ... : ... .. . ... ... ... : ... .. . ... : ... .. 0 ... : ... .. . ... ... : ... .. 4 ... ... : ... .. 4 ... ... : ... .. . ... ...
ROW 04 : G-1 00 C ... ... ... : A-2 00 F ... ... ... : ... .. . ... : 7-# 00 F ... : ... .. . ... ... : A#3 01 8 ... ... : A#3 01 8 ... ... : ... .. . ... ...
ROW 05 : ... .. B ... ... ... : ... .. E ... ... ... : ... .. . ... : ... .. C ... : ... .. . ... ... : ... .. 7 ... ... : ... .. 7 ... ... : ... .. . ... ...
ROW 06 : ... .. A ... ... ... : ... .. D ... ... ... : ... .. . ... : ... .. 6 ... : ... .. . ... ... : ... .. 6 ... ... : ... .. 6 ... ... : ... .. . ... ...
ROW 07 : ... .. 8 ... ... ... : ... .. A ... ... ... : F#2 00 . P82 : ... .. 3 ... : ... .. . ... ... : ... .. 5 ... ... : ... .. 5 ... ... : ... .. . P60 ...
ROW 08 : ... .. 1 ... ... ... : ... .. . ... ... ... : F-2 00 . P86 : ... .. 2 ... : ... .. . ... ... : ... .. . ... ... : ... .. . ... ... : F#1 01 8 P8D ...
ROW 09 : ... .. . ... ... ... : ... .. . ... ... ... : E-2 00 . P8C : ... .. 0 ... : ... .. . ... ... : ... .. 4 ... ... : ... .. 4 ... ... : ... .. . P6D ...
ROW 0A : ... .. C ... ... ... : G-2 00 F ... ... ... : D#2 00 . P94 : 5-# 00 8 ... : ... .. . ... ... : C#3 01 8 ... ... : F-3 01 8 ... ... : F-1 01 8 P9F ...
ROW 0B : ... .. B ... ... ... : ... .. E ... ... ... : ... .. . P74 : ... .. 6 ... : ... .. . ... ... : ... .. 7 ... ... : ... .. 7 ... ... : ... .. . P7F ...
ROW 0C : ... .. A ... ... ... : ... .. D ... ... ... : D-2 00 . P7F : ... .. 3 ... : ... .. . ... ... : ... .. 6 ... ... : ... .. 6 ... ... : ... .. . P5F ...
ROW 0D : ... .. 8 ... ... ... : ... .. A ... ... ... : C#2 00 . P8C : ... .. 1 ... : ... .. . ... ... : ... .. 5 ... ... : ... .. 5 ... ... : E-1 01 8 P96 ...
ROW 0E : ... .. 1 ... ... ... : ... .. . ... ... ... : ... .. . P6C : ... .. . ... : ... .. . ... ... : ... .. . ... ... : ... .. . ... ... : ... .. . P76 ...
ROW 0F : ... .. . ... ... ... : ... .. . ... ... ... : C-2 00 . P7C : ... .. 0 ... : ... .. . ... ... : ... .. 4 ... ... : ... .. 4 ... ... : ... .. . P56 ...
ROW 10 : F#1 00 C ... ... ... : F#2 00 A P72 ... ... : F-4 00 . P80 : 8-# 00 D ... : ... .. . ... ... : F#4 01 A ... ... : C#4 01 A ... ... : F#1 01 F P80 ...
ROW 11 : ... .. B ... ... ... : E-2 00 A P8C ... ... : G-3 00 . ... : ... .. . ... : ... .. . ... ... : ... .. 9 ... ... : ... .. 9 ... ... : ... .. D ... ...
ROW 12 : ... .. A ... ... ... : D#2 00 A P84 ... ... : C-3 00 . ... : ... .. . ... : ... .. . ... ... : ... .. 8 ... ... : ... .. 8 ... ... : ... .. 8 ... ...
ROW 13 : ... .. 8 ... ... ... : E-2 00 A P8C ... ... : B-2 00 . ... : B-# 00 D ... : ... .. . ... ... : ... .. 7 ... ... : ... .. 7 ... ... : ... .. . ... ...
ROW 14 : ... .. 1 ... ... ... : F#2 00 A P72 ... ... : F#2 00 . ... : ... .. . ... : ... .. . ... ... : ... .. . ... ... : ... .. . ... ... : ... .. . ... ...
ROW 15 : ... .. . ... ... ... : G-2 00 A P80 ... ... : ... .. . ... : ... .. . ... : ... .. . ... ... : ... .. 6 ... ... : ... .. 6 ... ... : ... .. . ... ...
ROW 16 : ... .. C ... ... ... : A-2 00 F ... ... ... : ... .. . ... : ... .. . ... : ... .. . ... ... : ... .. . ... ... : ... .. . ... ... : ... .. . ... ...
ROW 17 : ... .. B ... ... ... : ... .. E ... ... ... : ... .. . ... : ... .. . ... : ... .. . ... ... : ... .. 5 ... ... : ... .. 5 ... ... : ... .. . ... ...
ROW 18 : ... .. A ... ... ... : ... .. D ... ... ... : ... .. . ... : ... .. . ... : ... .. . ... ... : ... .. . ... ... : ... .. . ... ... : ... .. . ... ...
ROW 19 : ... .. 8 ... ... ... : ... .. A ... ... ... : F-2 00 . P84 : ... .. A ... : ... .. . ... ... : ... .. . ... ... : ... .. . ... ... : ... .. . P60 ...
ROW 1A : ... .. 1 ... ... ... : ... .. 2 ... ... ... : E-2 00 . P8A : ... .. . ... : ... .. . ... ... : ... .. . ... ... : ... .. . ... ... : F-1 01 8 P92 ...
ROW 1B : ... .. . ... ... ... : ... .. . ... ... ... : D#2 00 . P92 : ... .. . ... : ... .. . ... ... : ... .. . ... ... : ... .. . ... ... : ... .. . P72 ...
ROW 1C : C#2 00 C ... ... ... : A#2 00 F ... ... ... : ... .. . P72 : ... .. 9 ... : ... .. . ... ... : D#4 01 5 P7D ... : A#3 01 5 P86 ... : E-1 01 8 PA9 ...
ROW 1D : ... .. B ... ... ... : ... .. E ... ... ... : D-2 00 . P7D : ... .. . ... : ... .. . ... ... : C-4 01 5 P7F ... : G#3 01 5 P83 ... : ... .. . P89 ...
ROW 1E : ... .. A ... ... ... : ... .. D ... ... ... : C#2 00 . P8A : ... .. . ... : ... .. . ... ... : A-3 01 5 P87 ... : F#3 01 5 P84 ... : ... .. . P69 ...
ROW 1F : ... .. 8 ... ... ... : ... .. A ... ... ... : ... .. . P6A : ... .. 8 ... : ... .. . ... ... : G-3 01 5 P86 ... : E-3 01 5 P89 ... : D#1 01 8 PA6 ...
ROW 20 : ... .. . ... ... ... : ... .. 2 ... ... ... : C-2 00 . P7A : ... .. . ... : ... .. . ... ... : F-3 01 5 P89 ... : D#3 01 5 P7E ... : ... .. . P86 ...
ROW 21 : ... .. . ... ... ... : ... .. . ... ... ... : B-1 00 . P8D : ... .. . ... : ... .. . ... ... : E-3 01 5 P7C ... : C#3 01 5 P8A ... : ... .. . P66 ...
ROW 22 : C-2 00 C ... ... ... : A#4 00 F ... ... ... : F-5 00 . P80 : ... .. 7 ... : ... .. . ... ... : F#4 01 A P80 ... : C#4 01 A P80 ... : F#2 01 F P80 ...
ROW 23 : ... .. B ... ... ... : ... .. E ... ... ... : G-4 00 . ... : ... .. . ... : ... .. . ... ... : ... .. 9 ... ... : ... .. 9 ... ... : ... .. D ... ...
ROW 24 : ... .. A ... ... ... : ... .. D ... ... ... : C-4 00 . ... : ... .. . ... : ... .. . ... ... : ... .. 8 ... ... : ... .. 8 ... ... : ... .. 8 ... ...
ROW 25 : ... .. 8 ... ... ... : ... .. A ... ... ... : B-3 00 . ... : ... .. 6 ... : ... .. . ... ... : ... .. 7 ... ... : ... .. 7 ... ... : ... .. . ... ...
ROW 26 : ... .. 1 ... ... ... : ... .. . ... ... ... : F#3 00 . ... : ... .. . ... : ... .. . ... ... : ... .. . ... ... : ... .. . ... ... : ... .. . ... ...
ROW 27 : ... .. . ... ... ... : ... .. . ... ... ... : --- .. . ... : ... .. . ... : ... .. . ... ... : ... .. 6 ... ... : ... .. 6 ... ... : --- .. . P84 ...
ROW 28 : C#2 00 C ... ... ... : A-4 00 F ... ... ... : E-3 00 . ... : ... .. 5 ... : ... .. . ... ... : ... .. . ... ... : ... .. . ... ... : E-2 01 F P80 ...
ROW 29 : ... .. B ... ... ... : ... .. E ... ... ... : ... .. . ... : ... .. . ... : ... .. . ... ... : ... .. 5 ... ... : ... .. 5 ... ... : ... .. D ... ...
ROW 2A : ... .. A ... ... ... : ... .. D ... ... ... : ... .. . ... : ... .. . ... : ... .. . ... ... : ... .. . ... ... : ... .. . ... ... : ... .. 8 ... ...
ROW 2B : ... .. 8 ... ... ... : ... .. A ... ... ... : ... .. . ... : ... .. 4 ... : ... .. . ... ... : ... .. . ... ... : ... .. . ... ... : ... .. . ... ...
ROW 2C : ... .. . ... ... ... : ... .. 2 ... ... ... : ... .. . ... : ... .. . ... : ... .. . ... ... : ... .. . ... ... : ... .. . ... ... : ... .. . ... ...
ROW 2D : ... .. . ... ... ... : ... .. . ... ... ... : --- .. . ... : ... .. . ... : ... .. . ... ... : ... .. . ... ... : ... .. . ... ... : --- .. . P89 ...
ROW 2E : A-1 00 C ... ... ... : ... .. F ... ... ... : F#3 00 . ... : ... .. 3 ... : ... .. . ... ... : D#4 01 5 P7D ... : A#3 01 5 P86 ... : F#2 01 F P80 ...
ROW 2F : ... .. B ... ... ... : ... .. E ... ... ... : ... .. . ... : ... .. . ... : ... .. . ... ... : C-4 01 5 P7F ... : G#3 01 5 P83 ... : ... .. D ... ...
ROW 30 : ... .. A ... ... ... : ... .. D ... ... ... : ... .. . ... : ... .. . ... : ... .. . ... ... : A-3 01 5 P87 ... : F#3 01 5 P84 ... : ... .. 8 ... ...
ROW 31 : ... .. 8 ... ... ... : ... .. A ... ... ... : --- .. . ... : ... .. 2 ... : ... .. . ... ... : G-3 01 5 P86 ... : E-3 01 5 P89 ... : --- .. . P84 ...
ROW 32 : ... .. 1 ... ... ... : ... .. . ... ... ... : ... .. . ... : ... .. . ... : ... .. . ... ... : F-3 01 5 P89 ... : D#3 01 5 P7E ... : ... .. . ... ...
ROW 33 : ... .. . ... ... ... : ... .. . ... ... ... : ... .. . ... : ... .. . ... : ... .. . ... ... : E-3 01 5 P7C ... : C#3 01 5 P8A ... : ... .. . ... ...
ROW 34 : F-2 00 C ... ... ... : ... .. . ... ... ... : C#6 00 . ... : 7-# 00 F ... : ... .. . ... ... : F#4 01 A P80 ... : C#4 01 A P80 ... : D-3 01 F P80 ...
ROW 35 : ... .. B ... ... ... : ... .. . ... ... ... : D#5 00 . ... : ... .. C ... : ... .. . ... ... : ... .. 9 ... ... : ... .. 9 ... ... : ... .. D ... ...
ROW 36 : ... .. A ... ... ... : ... .. . ... ... ... : G#4 00 . ... : ... .. 6 ... : ... .. . ... ... : ... .. 8 ... ... : ... .. 8 ... ... : ... .. 8 ... ...
ROW 37 : ... .. 8 ... ... ... : ... .. . ... ... ... : G-4 00 . ... : ... .. 3 ... : ... .. . ... ... : ... .. 7 ... ... : ... .. 7 ... ... : ... .. . ... ...
ROW 38 : ... .. . ... ... ... : ... .. . ... ... ... : D-4 00 . ... : ... .. 2 ... : ... .. . ... ... : ... .. . ... ... : ... .. . ... ... : ... .. . ... ...
ROW 39 : ... .. . ... ... ... : ... .. . ... ... ... : ... .. . ... : ... .. 0 ... : ... .. . ... ... : ... .. 6 ... ... : ... .. 6 ... ... : ... .. . ... ...
ROW 3A : ... .. C ... ... ... : ... .. . ... ... ... : ... .. . ... : 1-# 00 8 ... : ... .. . ... ... : ... .. . ... ... : ... .. . ... ... : ... .. . ... ...
ROW 3B : ... .. B ... ... ... : ... .. . ... ... ... : ... .. . ... : ... .. 6 ... : ... .. . ... ... : ... .. 5 ... ... : ... .. 5 ... ... : ... .. . ... ...
ROW 3C : ... .. A ... ... ... : ... .. . ... ... ... : ... .. . ... : ... .. 3 ... : ... .. . ... ... : ... .. . ... ... : ... .. . ... ... : ... .. . ... ...
ROW 3D : ... .. 8 ... ... ... : ... .. . ... ... ... : ... .. . ... : ... .. 1 ... : ... .. . ... ... : ... .. . ... ... : ... .. . ... ... : ... .. . ... ...
ROW 3E : ... .. 1 ... ... ... : ... .. . ... ... ... : ... .. . ... : ... .. . ... : ... .. . ... ... : ... .. . ... ... : ... .. . ... ... : ... .. . ... ...
ROW 3F : ... .. . ... ... ... : ... .. . ... ... ... : ... .. . ... : ... .. 0 ... : ... .. . ... ... : ... .. . ... ... : ... .. . ... ... : ... .. . ... ...
ROW 40 : F#1 00 C ... ... ... : ... .. . ... ... ... : C#4 00 . ... : 7-# 00 F ... : ... .. . ... ... : D#4 01 5 P7D ... : A#3 01 5 P86 ... : C#3 01 F ... ...
ROW 41 : ... .. B ... ... ... : ... .. . ... ... ... : ... .. . ... : ... .. C ... : ... .. . ... ... : C-4 01 5 P7F ... : G#3 01 5 P83 ... : ... .. D ... ...
ROW 42 : ... .. A ... ... ... : ... .. . ... ... ... : ... .. . ... : ... .. 6 ... : ... .. . ... ... : A-3 01 5 P87 ... : F#3 01 5 P84 ... : ... .. 8 ... ...
ROW 43 : ... .. 8 ... ... ... : A#4 00 A P7D ... ... : ... .. . ... : ... .. 3 ... : ... .. . ... ... : G-3 01 5 P86 ... : E-3 01 5 P89 ... : ... .. . ... ...
ROW 44 : ... .. 1 ... ... ... : ... .. . P7F ... ... : ... .. . ... : ... .. 2 ... : ... .. . ... ... : F-3 01 5 P89 ... : D#3 01 5 P7E ... : ... .. . ... ...
ROW 45 : ... .. . ... ... ... : ... .. . P7E ... ... : ... .. . ... : ... .. 0 ... : ... .. . ... ... : E-3 01 5 P7C ... : C#3 01 5 P8A ... : ... .. . ... ...
ROW 46 : E-2 00 C ... ... ... : A-4 00 A P82 ... ... : ... .. . ... : 1-# 00 8 ... : ... .. . ... ... : F#4 01 A P80 ... : C#4 01 A P80 ... : ... .. . ... ...
ROW 47 : ... .. B ... ... ... : ... .. . P7E ... ... : ... .. . ... : ... .. 6 ... : ... .. . ... ... : ... .. 9 ... ... : ... .. 9 ... ... : ... .. . ... ...
ROW 48 : ... .. A ... ... ... : G#4 00 A P83 ... ... : ... .. . ... : ... .. 3 ... : ... .. . ... ... : ... .. 8 ... ... : ... .. 8 ... ... : ... .. . ... ...
ROW 49 : ... .. 8 ... ... ... : ... .. . P82 ... ... : ... .. . ... : ... .. 1 ... : ... .. . ... ... : ... .. 7 ... ... : ... .. 7 ... ... : ... .. . ... ...
ROW 4A : ... .. . ... ... ... : ... .. . P84 ... ... : ... .. . ... : ... .. . ... : ... .. . ... ... : ... .. . ... ... : ... .. . ... ... : ... .. . ... ...
ROW 4B : ... .. . ... ... ... : A-4 00 A P80 ... ... : --- .. . ... : ... .. 0 ... : ... .. . ... ... : ... .. 6 ... ... : ... .. 6 ... ... : --- .. . ... ...
ROW 4C : ... .. C ... ... ... : ... .. . P83 ... ... : F#3 00 . ... : 7-# 00 F ... : ... .. . ... ... : ... .. . ... ... : ... .. . ... ... : F#2 01 F ... ...
ROW 4D : ... .. B ... ... ... : A#4 00 A P7F ... ... : ... .. . ... : ... .. C ... : ... .. . ... ... : ... .. 5 ... ... : ... .. 5 ... ... : ... .. D ... ...
ROW 4E : ... .. A ... ... ... : ... .. . ... ... ... : ... .. . ... : ... .. 6 ... : ... .. . ... ... : ... .. . ... ... : ... .. . ... ... : ... .. 8 ... ...
ROW 4F : ... .. 8 ... ... ... : A-4 00 A P82 ... ... : ... .. . ... : ... .. 3 ... : ... .. . ... ... : ... .. . ... ... : ... .. . ... ... : ... .. . ... ...
ROW 50 : ... .. 1 ... ... ... : ... .. . P7F ... ... : ... .. . ... : ... .. 2 ... : ... .. . ... ... : ... .. . ... ... : ... .. . ... ... : ... .. . ... ...
ROW 51 : ... .. . ... ... ... : G#4 00 A P83 ... ... : ... .. . ... : ... .. 0 ... : ... .. . ... ... : ... .. . ... ... : ... .. . ... ... : ... .. . ... ...
ROW 52 : F#1 00 C ... ... ... : ... .. . P82 ... ... : ... .. . ... : 1-# 00 8 ... : ... .. . ... ... : D#4 01 5 P7D ... : A#3 01 5 P86 ... : ... .. . ... ...
ROW 53 : ... .. B ... ... ... : ... .. 2 P84 ... ... : ... .. . ... : ... .. 6 ... : ... .. . ... ... : C-4 01 5 P7F ... : G#3 01 5 P83 ... : ... .. . ... ...
ROW 54 : ... .. A ... ... ... : A-4 00 2 P80 ... ... : ... .. . ... : ... .. 3 ... : ... .. . ... ... : A-3 01 5 P87 ... : F#3 01 5 P84 ... : ... .. . ... ...
ROW 55 : ... .. 8 ... ... ... : ... .. . P83 ... ... : ... .. . ... : ... .. 1 ... : ... .. . ... ... : G-3 01 5 P86 ... : E-3 01 5 P89 ... : ... .. . ... ...
ROW 56 : ... .. 1 ... ... ... : A#4 00 1 P7F ... ... : ... .. . ... : ... .. . ... : ... .. . ... ... : F-3 01 5 P89 ... : D#3 01 5 P7E ... : ... .. . ... ...
ROW 57 : ... .. . ... ... ... : ... .. . ... ... ... : --- .. . ... : ... .. 0 ... : ... .. . ... ... : E-3 01 5 P7C ... : C#3 01 5 P8A ... : --- .. . P84 ...
ROW 58 : D#2 00 C ... ... ... : A-4 00 1 P83 ... ... : F-3 00 . ... : ... .. F ... : ... .. . ... ... : F-4 01 A P80 ... : C-4 01 A P80 ... : F#0 01 F P80 ...
ROW 59 : ... .. B ... ... ... : ... .. 0 ... ... ... : G-2 00 . ... : ... .. C ... : ... .. . ... ... : ... .. 9 ... ... : ... .. 9 ... ... : ... .. D ... ...
ROW 5A : ... .. A ... ... ... : ... .. . ... ... ... : C-2 00 . ... : ... .. 6 ... : ... .. . ... ... : ... .. 8 ... ... : ... .. 8 ... ... : ... .. 8 ... ...
ROW 5B : ... .. 8 ... ... ... : ... .. . ... ... ... : B-1 00 . ... : ... .. 3 ... : ... .. . ... ... : ... .. 7 ... ... : ... .. 7 ... ... : ... .. . ... ...
ROW 5C : ... .. . ... ... ... : ... .. . ... ... ... : F#1 00 . ... : ... .. 2 ... : ... .. . ... ... : ... .. . ... ... : ... .. . ... ... : ... .. . ... ...
ROW 5D : ... .. . ... ... ... : ... .. . ... ... ... : ... .. . ... : ... .. 0 ... : ... .. . ... ... : ... .. 6 ... ... : ... .. 6 ... ... : ... .. . ... ...
ROW 5E : ... .. C ... ... ... : A-2 00 F P80 ... ... : ... .. . ... : C-# 00 8 ... : ... .. . ... ... : ... .. . ... ... : ... .. . ... ... : ... .. . ... ...
ROW 5F : ... .. B ... ... ... : ... .. E ... ... ... : ... .. . ... : ... .. 6 ... : ... .. . ... ... : ... .. 5 ... ... : ... .. 5 ... ... : ... .. . ... ...
ROW 60 : ... .. A ... ... ... : ... .. D ... ... ... : ... .. . ... : ... .. 3 ... : ... .. . ... ... : ... .. . ... ... : ... .. . ... ... : ... .. . ... ...
ROW 61 : ... .. 8 ... ... ... : ... .. A ... ... ... : ... .. . P60 : ... .. 1 ... : ... .. . ... ... : ... .. . ... ... : ... .. . ... ... : ... .. . P60 ...
ROW 62 : ... .. 1 ... ... ... : ... .. 2 ... ... ... : F-1 00 . P88 : ... .. . ... : ... .. . ... ... : ... .. . ... ... : ... .. . ... ... : ... .. . P40 ...
ROW 63 : ... .. . ... ... ... : ... .. . ... ... ... : ... .. . P68 : ... .. 0 ... : ... .. . ... ... : ... .. . ... ... : ... .. . ... ... : F-0 01 8 PC5 ...
ROW 64 : A-1 00 C ... ... ... : A#2 00 F ... ... ... : E-1 00 . P94 : ... .. 8 ... : ... .. . ... ... : D-4 01 5 P7E ... : A#3 01 5 P7A ... : ... .. . PA5 ...
ROW 65 : ... .. B ... ... ... : ... .. E ... ... ... : ... .. . P74 : ... .. 6 ... : ... .. . ... ... : B-3 01 5 P82 ... : G-3 01 5 P87 ... : ... .. . P85 ...
ROW 66 : ... .. A ... ... ... : ... .. D ... ... ... : D#1 00 . PA5 : ... .. 3 ... : ... .. . ... ... : A-3 01 5 P7E ... : F#3 01 5 P78 ... : ... .. . P65 ...
ROW 67 : ... .. 8 ... ... ... : ... .. A ... ... ... : ... .. . P85 : ... .. 1 ... : ... .. . ... ... : G-3 01 5 P7D ... : E-3 01 5 P7D ... : ... .. . P45 ...
ROW 68 : ... .. 1 ... ... ... : ... .. 2 ... ... ... : ... .. . P65 : ... .. . ... : ... .. . ... ... : F-3 01 5 P80 ... : D-3 01 5 P87 ... : E-0 01 8 PD3 ...
ROW 69 : ... .. . ... ... ... : ... .. . ... ... ... : D-1 00 . P9B : ... .. 0 ... : ... .. . ... ... : D#3 01 5 P88 ... : C#3 01 5 P7E ... : ... .. . PB3 ...
ROW 6A : ... .. C ... ... ... : A#3 00 F ... ... ... : F#2 00 . P80 : 1-# 00 F ... : ... .. . ... ... : F-4 01 A P80 ... : C-4 01 A P80 ... : F#1 01 F P80 ...
ROW 6B : ... .. B ... ... ... : ... .. E ... ... ... : ... .. . ... : ... .. C ... : ... .. . ... ... : ... .. 9 ... ... : ... .. 9 ... ... : ... .. D ... ...
ROW 6C : ... .. A ... ... ... : ... .. D ... ... ... : ... .. . ... : ... .. 6 ... : ... .. . ... ... : ... .. 8 ... ... : ... .. 8 ... ... : ... .. 8 ... ...
ROW 6D : ... .. 8 ... ... ... : ... .. A ... ... ... : ... .. . ... : ... .. 3 ... : ... .. . ... ... : ... .. 7 ... ... : ... .. 7 ... ... : ... .. . ... ...
ROW 6E : ... .. 1 ... ... ... : ... .. . ... ... ... : ... .. . ... : ... .. 2 ... : ... .. . ... ... : ... .. . ... ... : ... .. . ... ... : ... .. . ... ...
ROW 6F : ... .. . ... ... ... : ... .. . ... ... ... : ... .. . ... : ... .. 0 ... : ... .. . ... ... : ... .. 6 ... ... : ... .. 6 ... ... : ... .. . ... ...
ROW 70 : C-2 00 C ... ... ... : A-3 00 F ... ... ... : E-2 00 . ... : C-# 00 8 ... : ... .. . ... ... : ... .. . ... ... : ... .. . ... ... : E-1 01 F ... ...
ROW 71 : ... .. B ... ... ... : ... .. E ... ... ... : ... .. . ... : ... .. 6 ... : ... .. . ... ... : ... .. 5 ... ... : ... .. 5 ... ... : ... .. D ... ...
ROW 72 : ... .. A ... ... ... : ... .. D ... ... ... : ... .. . ... : ... .. 3 ... : ... .. . ... ... : ... .. . ... ... : ... .. . ... ... : ... .. 8 ... ...
ROW 73 : ... .. 8 ... ... ... : ... .. A ... ... ... : ... .. . ... : ... .. 1 ... : ... .. . ... ... : ... .. . ... ... : ... .. . ... ... : ... .. . ... ...
ROW 74 : ... .. 1 ... ... ... : ... .. 2 ... ... ... : ... .. . ... : ... .. . ... : ... .. . ... ... : ... .. . ... ... : ... .. . ... ... : ... .. . ... ...
ROW 75 : ... .. . ... ... ... : ... .. . ... ... ... : --- .. . ... : ... .. 0 ... : ... .. . ... ... : ... .. . ... ... : ... .. . ... ... : --- .. . P82 ...
ROW 76 : ... .. C ... ... ... : ... .. F ... ... ... : F#2 00 . ... : ... .. 8 ... : ... .. . ... ... : D-4 01 5 P7E ... : A#3 01 5 P7A ... : F#1 01 F P80 ...
ROW 77 : ... .. B ... ... ... : ... .. E ... ... ... : ... .. . ... : ... .. 6 ... : ... .. . ... ... : B-3 01 5 P82 ... : G-3 01 5 P87 ... : ... .. D ... ...
ROW 78 : ... .. A ... ... ... : ... .. D ... ... ... : ... .. . ... : ... .. 3 ... : ... .. . ... ... : A-3 01 5 P7E ... : F#3 01 5 P78 ... : ... .. 8 ... ...
ROW 79 : ... .. 8 ... ... ... : ... .. A ... ... ... : ... .. . ... : ... .. 1 ... : ... .. . ... ... : G-3 01 5 P7D ... : E-3 01 5 P7D ... : ... .. . ... ...
ROW 7A : ... .. 1 ... ... ... : ... .. . ... ... ... : ... .. . ... : ... .. . ... : ... .. . ... ... : F-3 01 5 P80 ... : D-3 01 5 P87 ... : ... .. . ... ...
ROW 7B : ... .. . ... ... ... : ... .. . ... ... ... : ... .. . ... : ... .. 0 ... : ... .. . ... ... : D#3 01 5 P88 ... : C#3 01 5 P7E ... : ... .. . ... ...
ROW 7C : B-1 00 C ... ... ... : ... .. . ... ... ... : F-5 00 . ... : 7-# 00 F ... : ... .. . ... ... : F-4 01 A P80 ... : C-4 01 A P80 ... : F#2 01 F ... ...
ROW 7D : ... .. B ... ... ... : ... .. . ... ... ... : G-4 00 . ... : ... .. C ... : ... .. . ... ... : ... .. 9 ... ... : ... .. 9 ... ... : ... .. D ... ...
ROW 7E : ... .. A ... ... ... : ... .. . ... ... ... : C-4 00 . ... : ... .. 6 ... : ... .. . ... ... : ... .. 8 ... ... : ... .. 8 ... ... : ... .. 8 ... ...
ROW 7F : ... .. 8 ... ... ... : ... .. . ... ... ... : B-3 00 . ... : ... .. 3 ... : ... .. . ... ... : ... .. 7 ... ... : ... .. 7 ... ... : ... .. . ... ...
ROW 80 : ... .. . ... ... ... : ... .. . ... ... ... : F#3 00 . ... : ... .. 2 ... : ... .. . ... ... : ... .. . ... ... : ... .. . ... ... : ... .. . ... ...
ROW 81 : ... .. . ... ... ... : ... .. . ... ... ... : --- .. . ... : ... .. 0 ... : ... .. . ... ... : ... .. 6 ... ... : ... .. 6 ... ... : --- .. . P84 ...
ROW 82 : ... .. C ... ... ... : ... .. . ... ... ... : E-3 00 . ... : ... .. 8 ... : ... .. . ... ... : ... .. . ... ... : ... .. . ... ... : E-2 01 F P80 ...
ROW 83 : ... .. B ... ... ... : ... .. . ... ... ... : ... .. . ... : ... .. 6 ... : ... .. . ... ... : ... .. 5 ... ... : ... .. 5 ... ... : ... .. D ... ...
ROW 84 : ... .. A ... ... ... : ... .. . ... ... ... : ... .. . ... : ... .. 3 ... : ... .. . ... ... : ... .. . ... ... : ... .. . ... ... : ... .. 8 ... ...
ROW 85 : ... .. 8 ... ... ... : ... .. . ... ... ... : ... .. . ... : ... .. 1 ... : ... .. . ... ... : ... .. . ... ... : ... .. . ... ... : ... .. . ... ...
ROW 86 : ... .. 1 ... ... ... : ... .. . ... ... ... : ... .. . ... : ... .. . ... : ... .. . ... ... : ... .. . ... ... : ... .. . ... ... : ... .. . ... ...
ROW 87 : ... .. . ... ... ... : ... .. . ... ... ... : --- .. . ... : ... .. 0 ... : ... .. . ... ... : ... .. . ... ... : ... .. . ... ... : --- .. . P89 ...
ROW 88 : F#1 00 C ... ... ... : ... .. . ... ... ... : A-3 00 . ... : 4-# 00 F ... : ... .. . ... ... : ... .. A ... ... : ... .. A ... ... : A-2 01 F P80 ...
ROW 89 : ... .. B ... ... ... : ... .. . ... ... ... : ... .. . ... : ... .. C ... : ... .. . ... ... : ... .. 9 ... ... : ... .. 9 ... ... : ... .. D ... ...
ROW 8A : ... .. A ... ... ... : ... .. . ... ... ... : ... .. . ... : ... .. 6 ... : ... .. . ... ... : ... .. 8 ... ... : ... .. 8 ... ... : ... .. 8 ... ...
ROW 8B : ... .. 8 ... ... ... : ... .. . P84 ... ... : ... .. . ... : ... .. 3 ... : ... .. . ... ... : ... .. 7 ... ... : ... .. 7 ... ... : ... .. . ... ...
ROW 8C : ... .. 1 ... ... ... : ... .. . P86 ... ... : ... .. . ... : ... .. 2 ... : ... .. . ... ... : ... .. . ... ... : ... .. . ... ... : ... .. . ... ...
ROW 8D : ... .. . ... ... ... : ... .. . P85 ... ... : ... .. . ... : ... .. 0 ... : ... .. . ... ... : ... .. 6 ... ... : ... .. 6 ... ... : ... .. . ... ...
ROW 8E : ... .. C ... ... ... : ... .. . P82 ... ... : G-3 00 . ... : 9-# 00 8 ... : ... .. . ... ... : ... .. . ... ... : ... .. . ... ... : G-2 01 F ... ...
ROW 8F : ... .. B ... ... ... : ... .. . P7E ... ... : ... .. . ... : ... .. 6 ... : ... .. . ... ... : ... .. 5 ... ... : ... .. 5 ... ... : ... .. D ... ...
ROW 90 : ... .. A ... ... ... : ... .. . P7B ... ... : ... .. . ... : ... .. 3 ... : ... .. . ... ... : ... .. . ... ... : ... .. . ... ... : ... .. 8 ... ...
ROW 91 : ... .. 8 ... ... ... : ... .. . P7A ... ... : ... .. . ... : ... .. 1 ... : ... .. . ... ... : ... .. . ... ... : ... .. . ... ... : ... .. . ... ...
ROW 92 : ... .. . ... ... ... : ... .. . P7C ... ... : ... .. . ... : ... .. . ... : ... .. . ... ... : ... .. . ... ... : ... .. . ... ... : ... .. . ... ...
ROW 93 : ... .. . ... ... ... : ... .. . P80 ... ... : --- .. . ... : ... .. 0 ... : ... .. . ... ... : ... .. . ... ... : ... .. . ... ... : --- .. . P7D ...
ROW 94 : E-1 00 C ... ... ... : ... .. . P83 ... ... : F#3 00 . ... : 7-# 00 F ... : ... .. . ... ... : ... .. A ... ... : ... .. A ... ... : F#2 01 F P80 ...
ROW 95 : ... .. B ... ... ... : ... .. . P86 ... ... : ... .. . ... : ... .. C ... : ... .. . ... ... : ... .. 9 ... ... : ... .. 9 ... ... : ... .. D ... ...
ROW 96 : ... .. A ... ... ... : ... .. . ... ... ... : ... .. . ... : ... .. 6 ... : ... .. . ... ... : ... .. 8 ... ... : ... .. 8 ... ... : ... .. 8 ... ...
ROW 97 : ... .. 8 ... ... ... : ... .. . P82 ... ... : ... .. . ... : ... .. 3 ... : ... .. . ... ... : ... .. 7 ... ... : ... .. 7 ... ... : ... .. . ... ...
ROW 98 : ... .. 1 ... ... ... : ... .. . P7F ... ... : ... .. . ... : ... .. 2 ... : ... .. . ... ... : ... .. . ... ... : ... .. . ... ... : ... .. . ... ...
ROW 99 : ... .. . ... ... ... : ... .. . P7B ... ... : --- .. . ... : ... .. 0 ... : ... .. . ... ... : ... .. 6 ... ... : ... .. 6 ... ... : --- .. . P84 ...
ROW 9A : ... .. C ... ... ... : ... .. . P7A ... ... : F#2 00 . ... : 5-# 00 8 ... : ... .. . ... ... : ... .. . ... ... : ... .. . ... ... : F#1 01 F P80 ...
ROW 9B : ... .. B ... ... ... : ... .. . P7C ... ... : ... .. . ... : ... .. 6 ... : ... .. . ... ... : ... .. 5 ... ... : ... .. 5 ... ... : ... .. D ... ...
ROW 9C : ... .. A ... ... ... : ... .. . P80 ... ... : ... .. . ... : ... .. 3 ... : ... .. . ... ... : ... .. . ... ... : ... .. . ... ... : ... .. 8 ... ...
ROW 9D : ... .. 8 ... ... ... : ... .. . P83 ... ... : ... .. . ... : ... .. 1 ... : ... .. . ... ... : ... .. . ... ... : ... .. . ... ... : ... .. . ... ...
ROW 9E : ... .. 1 ... ... ... : ... .. 2 P86 ... ... : ... .. . ... : ... .. . ... : ... .. . ... ... : ... .. . ... ... : ... .. . ... ... : ... .. . ... ...
ROW 9F : ... .. . ... ... ... : ... .. . ... ... ... : --- .. . ... : ... .. 0 ... : ... .. . ... ... : ... .. . ... ... : ... .. . ... ... : --- .. . P81 ...
ROW A0 : F#1 00 C ... ... ... : ... .. . P83 ... ... : F-4 00 . ... : 1-# 00 F ... : ... .. . ... ... : E-4 01 A ... ... : B-3 01 A ... ... : F#1 01 F P80 ...
ROW A1 : ... .. B ... ... ... : ... .. 1 P80 ... ... : G-3 00 . ... : ... .. C ... : ... .. . ... ... : ... .. 9 ... ... : ... .. 9 ... ... : ... .. D ... ...
ROW A2 : ... .. A ... ... ... : ... .. . P7C ... ... : C-3 00 . ... : ... .. 6 ... : ... .. . ... ... : ... .. 8 ... ... : ... .. 8 ... ... : ... .. 8 ... ...
ROW A3 : ... .. 8 ... ... ... : ... .. . P7A ... ... : B-2 00 . ... : ... .. 3 ... : ... .. . ... ... : ... .. 7 ... ... : ... .. 7 ... ... : ... .. . ... ...
ROW A4 : ... .. . ... ... ... : ... .. 0 ... ... ... : F#2 00 . ... : ... .. 2 ... : ... .. . ... ... : ... .. . ... ... : ... .. . ... ... : ... .. . ... ...
ROW A5 : ... .. . ... ... ... : ... .. . ... ... ... : ... .. . ... : ... .. 0 ... : ... .. . ... ... : ... .. 6 ... ... : ... .. 6 ... ... : ... .. . ... ...
ROW A6 : ... .. C ... ... ... : A-2 00 F P80 ... ... : ... .. . ... : C-# 00 8 ... : ... .. . ... ... : ... .. . ... ... : ... .. . ... ... : ... .. . ... ...
ROW A7 : ... .. B ... ... ... : ... .. E ... ... ... : ... .. . ... : ... .. 6 ... : ... .. . ... ... : ... .. 5 ... ... : ... .. 5 ... ... : ... .. . ... ...
ROW A8 : ... .. A ... ... ... : ... .. D ... ... ... : ... .. . ... : ... .. 3 ... : ... .. . ... ... : ... .. . ... ... : ... .. . ... ... : ... .. . ... ...
ROW A9 : ... .. 8 ... ... ... : ... .. A ... ... ... : F-2 00 . P84 : ... .. 1 ... : ... .. . ... ... : ... .. . ... ... : ... .. . ... ... : ... .. . P60 ...
ROW AA : ... .. 1 ... ... ... : ... .. 2 ... ... ... : E-2 00 . P8A : ... .. . ... : ... .. . ... ... : ... .. . ... ... : ... .. . ... ... : F-1 01 8 P92 ...
ROW AB : ... .. . ... ... ... : ... .. . ... ... ... : D#2 00 . P92 : ... .. 0 ... : ... .. . ... ... : ... .. . ... ... : ... .. . ... ... : ... .. . P72 ...
ROW AC : C#2 00 C ... ... ... : A#2 00 F ... ... ... : ... .. . P72 : ... .. 8 ... : ... .. . ... ... : C#4 01 5 ... ... : A-3 01 5 P7C ... : E-1 01 8 PA9 ...
ROW AD : ... .. B ... ... ... : ... .. E ... ... ... : D-2 00 . P7D : ... .. 6 ... : ... .. . ... ... : A#3 01 5 P86 ... : G-3 01 5 P7B ... : ... .. . P89 ...
ROW AE : ... .. A ... ... ... : ... .. D ... ... ... : C#2 00 . P8A : ... .. 3 ... : ... .. . ... ... : G#3 01 5 P83 ... : F-3 01 5 P7E ... : ... .. . P69 ...
ROW AF : ... .. 8 ... ... ... : ... .. A ... ... ... : ... .. . P6A : ... .. 1 ... : ... .. . ... ... : F#3 01 5 P84 ... : D#3 01 5 P86 ... : D#1 01 8 PA6 ...
ROW B0 : ... .. 1 ... ... ... : ... .. 2 ... ... ... : C-2 00 . P7A : ... .. . ... : ... .. . ... ... : E-3 01 5 P89 ... : D-3 01 5 P7B ... : ... .. . P86 ...
ROW B1 : ... .. . ... ... ... : ... .. . ... ... ... : B-1 00 . P8D : ... .. 0 ... : ... .. . ... ... : D#3 01 5 P7E ... : C-3 01 5 P8A ... : ... .. . P66 ...
ROW B2 : C-2 00 C ... ... ... : A#4 00 F ... ... ... : F-5 00 . P80 : 1-# 00 F ... : ... .. . ... ... : E-4 01 A P80 ... : B-3 01 A P80 ... : F#2 01 F P80 ...
ROW B3 : ... .. B ... ... ... : ... .. E ... ... ... : G-4 00 . ... : ... .. C ... : ... .. . ... ... : ... .. 9 ... ... : ... .. 9 ... ... : ... .. D ... ...
ROW B4 : ... .. A ... ... ... : ... .. D ... ... ... : C-4 00 . ... : ... .. 6 ... : ... .. . ... ... : ... .. 8 ... ... : ... .. 8 ... ... : ... .. 8 ... ...
ROW B5 : ... .. 8 ... ... ... : ... .. A ... ... ... : B-3 00 . ... : ... .. 3 ... : ... .. . ... ... : ... .. 7 ... ... : ... .. 7 ... ... : ... .. . ... ...
ROW B6 : ... .. . ... ... ... : ... .. . ... ... ... : F#3 00 . ... : ... .. 2 ... : ... .. . ... ... : ... .. . ... ... : ... .. . ... ... : ... .. . ... ...
ROW B7 : ... .. . ... ... ... : ... .. . ... ... ... : --- .. . ... : ... .. 0 ... : ... .. . ... ... : ... .. 6 ... ... : ... .. 6 ... ... : --- .. . P84 ...
ROW B8 : C#2 00 C ... ... ... : A-4 00 F ... ... ... : E-3 00 . ... : C-# 00 8 ... : ... .. . ... ... : ... .. . ... ... : ... .. . ... ... : E-2 01 F P80 ...
ROW B9 : ... .. B ... ... ... : ... .. E ... ... ... : ... .. . ... : ... .. 6 ... : ... .. . ... ... : ... .. 5 ... ... : ... .. 5 ... ... : ... .. D ... ...
ROW BA : ... .. A ... ... ... : ... .. D ... ... ... : ... .. . ... : ... .. 3 ... : ... .. . ... ... : ... .. . ... ... : ... .. . ... ... : ... .. 8 ... ...
ROW BB : ... .. 8 ... ... ... : ... .. A ... ... ... : ... .. . ... : ... .. 1 ... : ... .. . ... ... : ... .. . ... ... : ... .. . ... ... : ... .. . ... ...
ROW BC : ... .. 1 ... ... ... : ... .. 2 ... ... ... : ... .. . ... : ... .. . ... : ... .. . ... ... : ... .. . ... ... : ... .. . ... ... : ... .. . ... ...
ROW BD : ... .. . ... ... ... : ... .. . ... ... ... : --- .. . ... : ... .. 0 ... : ... .. . ... ... : ... .. . ... ... : ... .. . ... ... : --- .. . P89 ...
ROW BE : A-1 00 C ... ... ... : ... .. F ... ... ... : F#3 00 . ... : ... .. 8 ... : ... .. . ... ... : C#4 01 5 ... ... : A-3 01 5 P7C ... : F#2 01 F P80 ...
ROW BF : ... .. B ... ... ... : ... .. E ... ... ... : ... .. . ... : ... .. 6 ... : ... .. . ... ... : A#3 01 5 P86 ... : G-3 01 5 P7B ... : ... .. D ... ...
ROW C0 : ... .. A ... ... ... : ... .. D ... ... ... : ... .. . ... : ... .. 3 ... : ... .. . ... ... : G#3 01 5 P83 ... : F-3 01 5 P7E ... : ... .. 8 ... ...
ROW C1 : ... .. 8 ... ... ... : ... .. A ... ... ... : --- .. . ... : ... .. 1 ... : ... .. . ... ... : F#3 01 5 P84 ... : D#3 01 5 P86 ... : --- .. . P84 ...
ROW C2 : ... .. . ... ... ... : ... .. . ... ... ... : ... .. . ... : ... .. . ... : ... .. . ... ... : E-3 01 5 P89 ... : D-3 01 5 P7B ... : ... .. . ... ...
ROW C3 : ... .. . ... ... ... : ... .. . ... ... ... : ... .. . ... : ... .. 0 ... : ... .. . ... ... : D#3 01 5 P7E ... : C-3 01 5 P8A ... : ... .. . ... ...
ROW C4 : A-2 00 C ... ... ... : ... .. . ... ... ... : C-6 00 . ... : 7-# 00 F ... : ... .. . ... ... : E-4 01 A P80 ... : B-3 01 A P80 ... : C#3 01 F P80 ...
ROW C5 : ... .. B ... ... ... : ... .. . ... ... ... : D-5 00 . ... : ... .. C ... : ... .. . ... ... : ... .. 9 ... ... : ... .. 9 ... ... : ... .. D ... ...
ROW C6 : ... .. A ... ... ... : ... .. . ... ... ... : G-4 00 . ... : ... .. 6 ... : ... .. . ... ... : ... .. 8 ... ... : ... .. 8 ... ... : ... .. 8 ... ...
ROW C7 : ... .. 8 ... ... ... : ... .. . ... ... ... : F#4 00 . ... : ... .. 3 ... : ... .. . ... ... : ... .. 7 ... ... : ... .. 7 ... ... : ... .. . ... ...
ROW C8 : ... .. 1 ... ... ... : ... .. . ... ... ... : C#4 00 . ... : ... .. 2 ... : ... .. . ... ... : ... .. . ... ... : ... .. . ... ... : ... .. . ... ...
ROW C9 : ... .. . ... ... ... : ... .. . ... ... ... : ... .. . ... : ... .. 0 ... : ... .. . ... ... : ... .. 6 ... ... : ... .. 6 ... ... : ... .. . ... ...
ROW CA : ... .. C ... ... ... : ... .. . ... ... ... : ... .. . ... : 1-# 00 8 ... : ... .. . ... ... : ... .. . ... ... : ... .. . ... ... : ... .. . ... ...
ROW CB : ... .. B ... ... ... : ... .. . ... ... ... : ... .. . ... : ... .. 6 ... : ... .. . ... ... : ... .. 5 ... ... : ... .. 5 ... ... : ... .. . ... ...
ROW CC : ... .. A ... ... ... : ... .. . ... ... ... : ... .. . ... : ... .. 3 ... : ... .. . ... ... : ... .. . ... ... : ... .. . ... ... : ... .. . ... ...
ROW CD : ... .. 8 ... ... ... : ... .. . ... ... ... : ... .. . ... : ... .. 1 ... : ... .. . ... ... : ... .. . ... ... : ... .. . ... ... : ... .. . ... ...
ROW CE : ... .. 1 ... ... ... : ... .. . ... ... ... : ... .. . ... : ... .. . ... : ... .. . ... ... : ... .. . ... ... : ... .. . ... ... : ... .. . ... ...
ROW CF : ... .. . ... ... ... : ... .. . ... ... ... : ... .. . ... : ... .. 0 ... : ... .. . ... ... : ... .. . ... ... : ... .. . ... ... : ... .. . ... ...
ROW D0 : C-2 00 C ... ... ... : ... .. . ... ... ... : C-4 00 . ... : 7-# 00 F ... : ... .. . ... ... : C#4 01 5 ... ... : A-3 01 5 P7C ... : C-3 01 F ... ...
ROW D1 : ... .. B ... ... ... : ... .. . ... ... ... : ... .. . ... : ... .. C ... : ... .. . ... ... : A#3 01 5 P86 ... : G-3 01 5 P7B ... : ... .. D ... ...
ROW D2 : ... .. A ... ... ... : ... .. . ... ... ... : ... .. . ... : ... .. 6 ... : ... .. . ... ... : G#3 01 5 P83 ... : F-3 01 5 P7E ... : ... .. 8 ... ...
ROW D3 : ... .. 8 ... ... ... : A#4 00 A P7D ... ... : ... .. . ... : ... .. 3 ... : ... .. . ... ... : F#3 01 5 P84 ... : D#3 01 5 P86 ... : ... .. . ... ...
ROW D4 : ... .. . ... ... ... : ... .. . P7F ... ... : ... .. . ... : ... .. 2 ... : ... .. . ... ... : E-3 01 5 P89 ... : D-3 01 5 P7B ... : ... .. . ... ...
ROW D5 : ... .. . ... ... ... : ... .. . P7E ... ... : ... .. . ... : ... .. 0 ... : ... .. . ... ... : D#3 01 5 P7E ... : C-3 01 5 P8A ... : ... .. . ... ...
ROW D6 : C-3 00 C ... ... ... : A-4 00 A P82 ... ... : ... .. . ... : 1-# 00 8 ... : ... .. . ... ... : E-4 01 A P80 ... : B-3 01 A P80 ... : ... .. . ... ...
ROW D7 : ... .. B ... ... ... : ... .. . P7E ... ... : ... .. . ... : ... .. 6 ... : ... .. . ... ... : ... .. 9 ... ... : ... .. 9 ... ... : ... .. . ... ...
ROW D8 : ... .. A ... ... ... : G#4 00 A P83 ... ... : ... .. . ... : ... .. 3 ... : ... .. . ... ... : ... .. 8 ... ... : ... .. 8 ... ... : ... .. . ... ...
ROW D9 : ... .. 8 ... ... ... : ... .. . P82 ... ... : ... .. . ... : ... .. 1 ... : ... .. . ... ... : ... .. 7 ... ... : ... .. 7 ... ... : ... .. . ... ...
ROW DA : ... .. 1 ... ... ... : ... .. . P84 ... ... : ... .. . ... : ... .. . ... : ... .. . ... ... : ... .. . ... ... : ... .. . ... ... : ... .. . ... ...
ROW DB : ... .. . ... ... ... : A-4 00 A P80 ... ... : --- .. . ... : ... .. 0 ... : ... .. . ... ... : ... .. 6 ... ... : ... .. 6 ... ... : --- .. . P7E ...
ROW DC : ... .. C ... ... ... : ... .. . P83 ... ... : F#3 00 . ... : 7-# 00 F ... : ... .. . ... ... : ... .. . ... ... : ... .. . ... ... : F#2 01 F P80 ...
ROW DD : ... .. B ... ... ... : A#4 00 A P7F ... ... : ... .. . ... : ... .. C ... : ... .. . ... ... : ... .. 5 ... ... : ... .. 5 ... ... : ... .. D ... ...
ROW DE : ... .. A ... ... ... : ... .. . ... ... ... : ... .. . ... : ... .. 6 ... : ... .. . ... ... : ... .. . ... ... : ... .. . ... ... : ... .. 8 ... ...
ROW DF : ... .. 8 ... ... ... : A-4 00 A P82 ... ... : ... .. . ... : ... .. 3 ... : ... .. . ... ... : ... .. . ... ... : ... .. . ... ... : ... .. . ... ...
ROW E0 : ... .. 1 ... ... ... : ... .. . P7F ... ... : ... .. . ... : ... .. 2 ... : ... .. . ... ... : ... .. . ... ... : ... .. . ... ... : ... .. . ... ...
ROW E1 : ... .. . ... ... ... : G#4 00 A P83 ... ... : ... .. . ... : ... .. 0 ... : ... .. . ... ... : ... .. . ... ... : ... .. . ... ... : ... .. . ... ...
ROW E2 : F#2 00 C ... ... ... : ... .. . P82 ... ... : ... .. . ... : 1-# 00 8 ... : ... .. . ... ... : C#4 01 5 ... ... : A-3 01 5 P7C ... : ... .. . ... ...
ROW E3 : ... .. B ... ... ... : ... .. . P84 ... ... : ... .. . ... : ... .. 6 ... : ... .. . ... ... : A#3 01 5 P86 ... : G-3 01 5 P7B ... : ... .. . ... ...
ROW E4 : ... .. A ... ... ... : A-4 00 A P80 ... ... : ... .. . ... : ... .. 3 ... : ... .. . ... ... : G#3 01 5 P83 ... : F-3 01 5 P7E ... : ... .. . ... ...
ROW E5 : ... .. 8 ... ... ... : ... .. . P83 ... ... : ... .. . ... : ... .. 1 ... : ... .. . ... ... : F#3 01 5 P84 ... : D#3 01 5 P86 ... : ... .. . ... ...
ROW E6 : ... .. . ... ... ... : A#4 00 A P7F ... ... : ... .. . ... : ... .. . ... : ... .. . ... ... : E-3 01 5 P89 ... : D-3 01 5 P7B ... : ... .. . ... ...
ROW E7 : ... .. . ... ... ... : ... .. . ... ... ... : --- .. . ... : ... .. 0 ... : ... .. . ... ... : D#3 01 5 P7E ... : C-3 01 5 P8A ... : --- .. . P84 ...
ROW E8 : F-3 00 C ... ... ... : A-4 00 A P83 ... ... : F-3 00 . ... : ... .. F ... : ... .. . ... ... : F-4 01 A P80 ... : A-3 01 A P80 ... : F#0 01 F P80 ...
ROW E9 : ... .. B ... ... ... : ... .. . P80 ... ... : G-2 00 . ... : ... .. C ... : ... .. . ... ... : ... .. 9 ... ... : ... .. 9 ... ... : ... .. D ... ...
ROW EA : ... .. A ... ... ... : G#4 00 A P84 ... ... : C-2 00 . ... : ... .. 6 ... : ... .. . ... ... : ... .. 8 ... ... : ... .. 8 ... ... : ... .. 8 ... ...
ROW EB : ... .. 8 ... ... ... : ... .. . P82 ... ... : B-1 00 . ... : ... .. 3 ... : ... .. . ... ... : ... .. 7 ... ... : ... .. 7 ... ... : ... .. . ... ...
ROW EC : ... .. 1 ... ... ... : ... .. . P83 ... ... : F#1 00 . ... : ... .. 2 ... : ... .. . ... ... : ... .. . ... ... : ... .. . ... ... : ... .. . ... ...
ROW ED : ... .. . ... ... ... : A-4 00 A P7F ... ... : ... .. . ... : ... .. 0 ... : ... .. . ... ... : ... .. 6 ... ... : ... .. 6 ... ... : ... .. . ... ...
ROW EE : F#1 00 C ... ... ... : ... .. . P82 ... ... : ... .. . ... : C-# 00 8 ... : ... .. . ... ... : A-3 01 A ... ... : C#3 01 A ... ... : ... .. . ... ...
ROW EF : ... .. B ... ... ... : A#4 00 A P7F ... ... : ... .. . ... : ... .. 6 ... : ... .. . ... ... : ... .. 9 ... ... : ... .. 9 ... ... : ... .. . ... ...
ROW F0 : ... .. A ... ... ... : ... .. . ... ... ... : ... .. . ... : ... .. 3 ... : ... .. . ... ... : ... .. 8 ... ... : ... .. 8 ... ... : ... .. . ... ...
ROW F1 : ... .. 8 ... ... ... : A-4 00 A P83 ... ... : ... .. . P60 : ... .. 1 ... : ... .. . ... ... : ... .. 7 ... ... : ... .. 7 ... ... : ... .. . P60 ...
ROW F2 : ... .. 1 ... ... ... : ... .. . P80 ... ... : F-1 00 . P88 : ... .. . ... : ... .. . ... ... : ... .. . ... ... : ... .. . ... ... : ... .. . P40 ...
ROW F3 : ... .. . ... ... ... : G#4 00 A P84 ... ... : ... .. . P68 : ... .. 0 ... : ... .. . ... ... : ... .. 6 ... ... : ... .. 6 ... ... : F-0 01 8 PC5 ...
ROW F4 : ... .. C ... ... ... : ... .. . P82 ... ... : E-1 00 . P94 : ... .. 8 ... : ... .. . ... ... : E-3 01 A ... ... : F#2 01 A ... ... : ... .. . PA5 ...
ROW F5 : ... .. B ... ... ... : ... .. . P83 ... ... : ... .. . P74 : ... .. 6 ... : ... .. . ... ... : ... .. 9 ... ... : ... .. 9 ... ... : ... .. . P85 ...
ROW F6 : ... .. A ... ... ... : A-4 00 A P7E ... ... : D#1 00 . PA5 : ... .. 3 ... : ... .. . ... ... : ... .. 8 ... ... : ... .. 8 ... ... : ... .. . P65 ...
ROW F7 : ... .. 8 ... ... ... : ... .. . P82 ... ... : ... .. . P85 : ... .. 1 ... : ... .. . ... ... : ... .. 7 ... ... : ... .. 7 ... ... : ... .. . P45 ...
ROW F8 : ... .. 1 ... ... ... : A#4 00 A P7E ... ... : ... .. . P65 : ... .. . ... : ... .. . ... ... : ... .. . ... ... : ... .. . ... ... : E-0 01 8 PD3 ...
ROW F9 : ... .. . ... ... ... : ... .. . P7F ... ... : D-1 00 . P9B : ... .. 0 ... : ... .. . ... ... : ... .. 6 ... ... : ... .. 6 ... ... : ... .. . PB3 ...
ROW FA : F-3 00 C ... ... ... : ... .. . P7D ... ... : F#2 00 . P80 : 1-# 00 F ... : ... .. . ... ... : F-4 01 A ... ... : A-3 01 A ... ... : F#1 01 F P80 ...
ROW FB : ... .. B ... ... ... : A-4 00 A P80 ... ... : ... .. . ... : ... .. C ... : ... .. . ... ... : ... .. 9 ... ... : ... .. 9 ... ... : ... .. D ... ...
ROW FC : ... .. A ... ... ... : ... .. . P7D ... ... : ... .. . ... : ... .. 6 ... : ... .. . ... ... : ... .. 8 ... ... : ... .. 8 ... ... : ... .. 8 ... ...
ROW FD : ... .. 8 ... ... ... : G#4 00 A P82 ... ... : ... .. . ... : ... .. 3 ... : ... .. . ... ... : ... .. 7 ... ... : ... .. 7 ... ... : ... .. . ... ...
ROW FE : ... .. 1 ... ... ... : ... .. . ... ... ... : ... .. . ... : ... .. 2 ... : ... .. . ... ... : ... .. . ... ... : ... .. . ... ... : ... .. . ... ...
ROW FF : ... .. . ... ... ... : A-4 00 A P7E ... ... : ... .. . ... : ... .. 0 ... : ... .. . ... ... : ... .. 6 ... ... : ... .. 6 ... ... : ... .. . ... ...

PATTERN 06
ROW 00 : F#1 00 C ... ... ... : ... .. . P81 ... ... : E-2 00 . ... : C-# 00 8 ... : ... .. . ... ... : A-3 01 A ... ... : C#3 01 A ... ... : E-1 01 F ... ...
ROW 01 : ... .. B ... ... ... : A#4 00 A P7E ... ... : ... .. . ... : ... .. 6 ... : ... .. . ... ... : ... .. 9 ... ... : ... .. 9 ... ... : ... .. D ... ...
ROW 02 : ... .. A ... ... ... : ... .. . P7F ... ... : ... .. . ... : ... .. 3 ... : ... .. . ... ... : ... .. 8 ... ... : ... .. 8 ... ... : ... .. 8 ... ...
ROW 03 : ... .. 8 ... ... ... : ... .. . P7D ... ... : ... .. . ... : ... .. 1 ... : ... .. . ... ... : ... .. 7 ... ... : ... .. 7 ... ... : ... .. . ... ...
ROW 04 : ... .. 1 ... ... ... : A-4 00 A P80 ... ... : ... .. . ... : ... .. . ... : ... .. . ... ... : ... .. . ... ... : ... .. . ... ... : ... .. . ... ...
ROW 05 : ... .. . ... ... ... : ... .. . P7D ... ... : --- .. . ... : ... .. 0 ... : ... .. . ... ... : ... .. 6 ... ... : ... .. 6 ... ... : --- .. . P82 ...
ROW 06 : ... .. C ... ... ... : G#4 00 A P82 ... ... : F#2 00 . ... : ... .. 8 ... : ... .. . ... ... : E-3 01 A ... ... : F#2 01 A ... ... : F#1 01 F P80 ...
ROW 07 : ... .. B ... ... ... : ... .. . ... ... ... : ... .. . ... : ... .. 6 ... : ... .. . ... ... : ... .. 9 ... ... : ... .. 9 ... ... : ... .. D ... ...
ROW 08 : ... .. A ... ... ... : A-4 00 A P7D ... ... : ... .. . ... : ... .. 3 ... : ... .. . ... ... : ... .. 8 ... ... : ... .. 8 ... ... : ... .. 8 ... ...
ROW 09 : ... .. 8 ... ... ... : ... .. . P80 ... ... : ... .. . ... : ... .. 1 ... : ... .. . ... ... : ... .. 7 ... ... : ... .. 7 ... ... : ... .. . ... ...
ROW 0A : ... .. . ... ... ... : A#4 00 A P7D ... ... : ... .. . ... : ... .. . ... : ... .. . ... ... : ... .. . ... ... : ... .. . ... ... : ... .. . ... ...
ROW 0B : ... .. . ... ... ... : ... .. . P7F ... ... : ... .. . ... : ... .. 0 ... : ... .. . ... ... : ... .. 6 ... ... : ... .. 6 ... ... : ... .. . ... ...
ROW 0C : E-3 00 C ... ... ... : ... .. . P7E ... ... : F-5 00 . ... : 7-# 00 F ... : ... .. . ... ... : E-4 01 A ... ... : A-3 01 A ... ... : F#2 01 F ... ...
ROW 0D : ... .. B ... ... ... : A-4 00 2 P81 ... ... : G-4 00 . ... : ... .. C ... : ... .. . ... ... : ... .. 9 ... ... : ... .. 9 ... ... : ... .. D ... ...
ROW 0E : ... .. A ... ... ... : ... .. . P7E ... ... : C-4 00 . ... : ... .. 6 ... : ... .. . ... ... : ... .. 8 ... ... : ... .. 8 ... ... : ... .. 8 ... ...
ROW 0F : ... .. 8 ... ... ... : G#4 00 2 P82 ... ... : B-3 00 . ... : ... .. 3 ... : ... .. . ... ... : ... .. 7 ... ... : ... .. 7 ... ... : ... .. . ... ...
ROW 10 : ... .. 1 ... ... ... : ... .. 1 ... ... ... : F#3 00 . ... : ... .. 2 ... : ... .. . ... ... : ... .. . ... ... : ... .. . ... ... : ... .. . ... ...
ROW 11 : ... .. . ... ... ... : A-4 00 1 P7D ... ... : ... .. . ... : ... .. 0 ... : ... .. . ... ... : ... .. 6 ... ... : ... .. 6 ... ... : ... .. . ... ...
ROW 12 : F#1 00 C ... ... ... : ... .. . P80 ... ... : ... .. . ... : ... .. 8 ... : ... .. . ... ... : F#3 01 A ... ... : C-3 01 A ... ... : ... .. . ... ...
ROW 13 : ... .. B ... ... ... : ... .. 0 ... ... ... : ... .. . ... : ... .. 6 ... : ... .. . ... ... : ... .. 9 ... ... : ... .. 9 ... ... : ... .. . ... ...
ROW 14 : ... .. A ... ... ... : ... .. . ... ... ... : ... .. . ... : ... .. 3 ... : ... .. . ... ... : ... .. 8 ... ... : ... .. 8 ... ... : ... .. . ... ...
ROW 15 : ... .. 8 ... ... ... : ... .. . ... ... ... : E-3 00 . P85 : ... .. 1 ... : ... .. . ... ... : ... .. 7 ... ... : ... .. 7 ... ... : F-2 01 8 P89 ...
ROW 16 : ... .. 1 ... ... ... : ... .. . ... ... ... : D#3 00 . P7A : ... .. . ... : ... .. . ... ... : ... .. . ... ... : ... .. . ... ... : E-2 01 8 P95 ...
ROW 17 : ... .. . ... ... ... : ... .. . ... ... ... : C#3 00 . P86 : ... .. 0 ... : ... .. . ... ... : ... .. 6 ... ... : ... .. 6 ... ... : ... .. . P75 ...
ROW 18 : ... .. C ... ... ... : ... .. . ... ... ... : C-3 00 . P7E : 4-# 00 F ... : ... .. . ... ... : C-3 01 A ... ... : F#2 01 A ... ... : D#2 01 8 P83 ...
ROW 19 : ... .. B ... ... ... : ... .. . ... ... ... : B-2 00 . P77 : ... .. C ... : ... .. . ... ... : ... .. 9 ... ... : ... .. 9 ... ... : D-2 01 8 P94 ...
ROW 1A : ... .. A ... ... ... : ... .. . ... ... ... : A-2 00 . P8E : ... .. 6 ... : ... .. . ... ... : ... .. 8 ... ... : ... .. 8 ... ... : ... .. . P74 ...
ROW 1B : ... .. 8 ... ... ... : ... .. . ... ... ... : G#2 00 . P8D : ... .. 3 ... : ... .. . ... ... : ... .. 7 ... ... : ... .. 7 ... ... : C#2 01 8 P87 ...
ROW 1C : ... .. . ... ... ... : ... .. . ... ... ... : G-2 00 . ... : ... .. 2 ... : ... .. . ... ... : ... .. . ... ... : ... .. . ... ... : ... .. . P67 ...
ROW 1D : ... .. . ... ... ... : ... .. . ... ... ... : F#2 00 . P8F : ... .. 0 ... : ... .. . ... ... : ... .. 6 ... ... : ... .. 6 ... ... : C-2 01 8 P7E ...
ROW 1E : E-3 00 C ... ... ... : ... .. . ... ... ... : F-5 00 . P80 : 9-# 00 8 ... : ... .. . ... ... : D#4 01 A ... ... : A-3 01 A ... ... : F#2 01 F P80 ...
ROW 1F : ... .. B ... ... ... : ... .. . ... ... ... : G-4 00 . ... : ... .. 6 ... : ... .. . ... ... : ... .. 9 ... ... : ... .. 9 ... ... : ... .. D ... ...
ROW 20 : ... .. A ... ... ... : ... .. . ... ... ... : C-4 00 . ... : ... .. 3 ... : ... .. . ... ... : ... .. 8 ... ... : ... .. 8 ... ... : ... .. 8 ... ...
ROW 21 : ... .. 8 ... ... ... : ... .. . ... ... ... : B-3 00 . ... : ... .. 1 ... : ... .. . ... ... : ... .. 7 ... ... : ... .. 7 ... ... : ... .. . ... ...
ROW 22 : ... .. 1 ... ... ... : ... .. . ... ... ... : F#3 00 . ... : ... .. . ... : ... .. . ... ... : ... .. . ... ... : ... .. . ... ... : ... .. . ... ...
ROW 23 : ... .. . ... ... ... : ... .. . ... ... ... : ... .. . ... : ... .. 0 ... : ... .. . ... ... : ... .. 6 ... ... : ... .. 6 ... ... : ... .. . ... ...
ROW 24 : F#1 00 C ... ... ... : F#2 00 F P80 ... ... : ... .. . ... : 7-# 00 F ... : ... .. . ... ... : F#3 01 A ... ... : C-3 01 A ... ... : ... .. . ... ...
ROW 25 : ... .. B ... ... ... : ... .. E ... ... ... : ... .. . ... : ... .. C ... : ... .. . ... ... : ... .. 9 ... ... : ... .. 9 ... ... : ... .. . ... ...
ROW 26 : ... .. A ... ... ... : ... .. D ... ... ... : ... .. . ... : ... .. 6 ... : ... .. . ... ... : ... .. 8 ... ... : ... .. 8 ... ... : ... .. . ... ...
ROW 27 : ... .. 8 ... ... ... : G#2 00 F ... ... ... : ... .. . ... : ... .. 3 ... : ... .. . ... ... : ... .. 7 ... ... : ... .. 7 ... ... : ... .. . ... ...
ROW 28 : ... .. 1 ... ... ... : ... .. E ... ... ... : ... .. . ... : ... .. 2 ... : ... .. . ... ... : ... .. . ... ... : ... .. . ... ... : ... .. . ... ...
ROW 29 : ... .. . ... ... ... : ... .. D ... ... ... : ... .. . ... : ... .. 0 ... : ... .. . ... ... : ... .. 6 ... ... : ... .. 6 ... ... : ... .. . ... ...
ROW 2A : ... .. C ... ... ... : A-2 00 F ... ... ... : D#3 00 . P8A : 5-# 00 8 ... : ... .. . ... ... : C-3 01 A ... ... : F#2 01 A ... ... : F-2 01 8 P79 ...
ROW 2B : ... .. B ... ... ... : ... .. E ... ... ... : C#3 00 . P86 : ... .. 6 ... : ... .. . ... ... : ... .. 9 ... ... : ... .. 9 ... ... : E-2 01 8 P75 ...
ROW 2C : ... .. A ... ... ... : ... .. D ... ... ... : B-2 00 . P87 : ... .. 3 ... : ... .. . ... ... : ... .. 8 ... ... : ... .. 8 ... ... : D#2 01 8 P73 ...
ROW 2D : ... .. 8 ... ... ... : B-2 00 F ... ... ... : A-2 00 . P8E : ... .. 1 ... : ... .. . ... ... : ... .. 7 ... ... : ... .. 7 ... ... : D-2 01 8 P74 ...
ROW 2E : ... .. . ... ... ... : ... .. E ... ... ... : G#2 00 . P7D : ... .. . ... : ... .. . ... ... : ... .. . ... ... : ... .. . ... ... : C#2 01 8 P77 ...
ROW 2F : ... .. . ... ... ... : ... .. D ... ... ... : F#2 00 . P8F : ... .. 0 ... : ... .. . ... ... : ... .. 6 ... ... : ... .. 6 ... ... : C-2 01 8 P7E ...
ROW 30 : F-1 00 C ... ... ... : C-3 00 F ... ... ... : E-4 00 . P80 : 1-# 00 F ... : ... .. . ... ... : G#2 01 A ... ... : C-3 01 A ... ... : F-1 01 F P80 ...
ROW 31 : ... .. B ... ... ... : ... .. E ... ... ... : F#3 00 . ... : ... .. C ... : ... .. . ... ... : ... .. 9 ... ... : ... .. 9 ... ... : ... .. D ... ...
ROW 32 : ... .. A ... ... ... : ... .. D ... ... ... : B-2 00 . ... : ... .. 6 ... : ... .. . ... ... : ... .. 8 ... ... : ... .. 8 ... ... : ... .. 8 ... ...
ROW 33 : ... .. 8 ... ... ... : ... .. A ... ... ... : A#2 00 . ... : ... .. 3 ... : ... .. . ... ... : ... .. 7 ... ... : ... .. 7 ... ... : ... .. . ... ...
ROW 34 : ... .. 1 ... ... ... : ... .. . ... ... ... : F-2 00 . ... : ... .. 2 ... : ... .. . ... ... : ... .. . ... ... : ... .. . ... ... : ... .. . ... ...
ROW 35 : ... .. . ... ... ... : ... .. . ... ... ... : ... .. . ... : ... .. 0 ... : ... .. . ... ... : ... .. 6 ... ... : ... .. 6 ... ... : ... .. . ... ...
ROW 36 : ... .. C ... ... ... : ... .. . ... ... ... : ... .. . ... : C-# 00 8 ... : ... .. . ... ... : ... .. . ... ... : ... .. . ... ... : ... .. . ... ...
ROW 37 : ... .. B ... ... ... : ... .. . ... ... ... : ... .. . ... : ... .. 6 ... : ... .. . ... ... : ... .. 5 ... ... : ... .. 5 ... ... : ... .. . ... ...
ROW 38 : ... .. A ... ... ... : ... .. . ... ... ... : ... .. . ... : ... .. 3 ... : ... .. . ... ... : ... .. . ... ... : ... .. . ... ... : ... .. . ... ...
ROW 39 : ... .. 8 ... ... ... : ... .. . ... ... ... : E-2 00 . P86 : ... .. 1 ... : ... .. . ... ... : ... .. . ... ... : ... .. . ... ... : ... .. . P60 ...
ROW 3A : ... .. 1 ... ... ... : ... .. . ... ... ... : D#2 00 . P8E : ... .. . ... : ... .. . ... ... : ... .. . ... ... : ... .. . ... ... : E-1 01 8 P97 ...
ROW 3B : ... .. . ... ... ... : ... .. . ... ... ... : ... .. . P6E : ... .. 0 ... : ... .. . ... ... : ... .. . ... ... : ... .. . ... ... : ... .. . P77 ...
ROW 3C : C-2 00 C ... ... ... : ... .. . ... ... ... : D-2 00 . P79 : ... .. 8 ... : ... .. . ... ... : ... .. . ... ... : ... .. . ... ... : ... .. . P57 ...
ROW 3D : ... .. B ... ... ... : ... .. . ... ... ... : C#2 00 . P86 : ... .. 6 ... : ... .. . ... ... : ... .. . ... ... : ... .. . ... ... : D#1 01 8 P94 ...
ROW 3E : ... .. A ... ... ... : ... .. . ... ... ... : C-2 00 . P96 : ... .. 3 ... : ... .. . ... ... : ... .. . ... ... : ... .. . ... ... : ... .. . P74 ...
ROW 3F : ... .. 8 ... ... ... : ... .. . ... ... ... : ... .. . P76 : ... .. 1 ... : ... .. . ... ... : ... .. . ... ... : ... .. . ... ... : ... .. . P54 ...
ROW 40 : ... .. . ... ... ... : ... .. . ... ... ... : B-1 00 . P89 : ... .. . ... : ... .. . ... ... : ... .. . ... ... : ... .. . ... ... : D-1 01 8 P95 ...
ROW 41 : ... .. . ... ... ... : ... .. . ... ... ... : ... .. . P69 : ... .. 0 ... : ... .. . ... ... : ... .. . ... ... : ... .. . ... ... : ... .. . P75 ...
ROW 42 : B-1 00 C ... ... ... : ... .. . ... ... ... : E-5 00 . P80 : 1-# 00 F ... : ... .. . ... ... : ... .. A ... ... : C#3 01 A ... ... : F-2 01 F P80 ...
ROW 43 : ... .. B ... ... ... : ... .. . ... ... ... : F#4 00 . ... : ... .. C ... : ... .. . ... ... : ... .. 9 ... ... : ... .. 9 ... ... : ... .. D ... ...
ROW 44 : ... .. A ... ... ... : ... .. . ... ... ... : B-3 00 . ... : ... .. 6 ... : ... .. . ... ... : ... .. 8 ... ... : ... .. 8 ... ... : ... .. 8 ... ...
ROW 45 : ... .. 8 ... ... ... : ... .. . ... ... ... : A#3 00 . ... : ... .. 3 ... : ... .. . ... ... : ... .. 7 ... ... : ... .. 7 ... ... : ... .. . ... ...
ROW 46 : ... .. 1 ... ... ... : ... .. . ... ... ... : F-3 00 . ... : ... .. 2 ... : ... .. . ... ... : ... .. . ... ... : ... .. . ... ... : ... .. . ... ...
ROW 47 : ... .. . ... ... ... : ... .. . ... ... ... : --- .. . ... : ... .. 0 ... : ... .. . ... ... : ... .. 6 ... ... : ... .. 6 ... ... : --- .. . P7E ...
ROW 48 : C-2 00 C ... ... ... : ... .. . ... ... ... : D#3 00 . ... : C-# 00 8 ... : ... .. . ... ... : ... .. . ... ... : ... .. . ... ... : D#2 01 F P80 ...
ROW 49 : ... .. B ... ... ... : ... .. . ... ... ... : ... .. . ... : ... .. 6 ... : ... .. . ... ... : ... .. 5 ... ... : ... .. 5 ... ... : ... .. D ... ...
ROW 4A : ... .. A ... ... ... : ... .. . ... ... ... : ... .. . ... : ... .. 3 ... : ... .. . ... ... : ... .. . ... ... : ... .. . ... ... : ... .. 8 ... ...
ROW 4B : ... .. 8 ... ... ... : ... .. . P84 ... ... : ... .. . ... : ... .. 1 ... : ... .. . ... ... : ... .. . ... ... : ... .. . ... ... : ... .. . ... ...
ROW 4C : ... .. . ... ... ... : ... .. . P86 ... ... : ... .. . ... : ... .. . ... : ... .. . ... ... : ... .. . ... ... : ... .. . ... ... : ... .. . ... ...
ROW 4D : ... .. . ... ... ... : ... .. . P85 ... ... : --- .. . ... : ... .. 0 ... : ... .. . ... ... : ... .. . ... ... : ... .. . ... ... : --- .. . ... ...
ROW 4E : G#1 00 C ... ... ... : ... .. . P82 ... ... : F-3 00 . ... : ... .. 8 ... : ... .. . ... ... : ... .. . ... ... : ... .. . ... ... : F-2 01 F ... ...
ROW 4F : ... .. B ... ... ... : ... .. . P7E ... ... : ... .. . ... : ... .. 6 ... : ... .. . ... ... : ... .. . ... ... : ... .. . ... ... : ... .. D ... ...
ROW 50 : ... .. A ... ... ... : ... .. . P7B ... ... : ... .. . ... : ... .. 3 ... : ... .. . ... ... : ... .. . ... ... : ... .. . ... ... : ... .. 8 ... ...
ROW 51 : ... .. 8 ... ... ... : ... .. . P7A ... ... : --- .. . ... : ... .. 1 ... : ... .. . ... ... : ... .. . ... ... : ... .. . ... ... : --- .. . P7E ...
ROW 52 : ... .. 1 ... ... ... : ... .. . P7C ... ... : ... .. . ... : ... .. . ... : ... .. . ... ... : ... .. . ... ... : ... .. . ... ... : ... .. . ... ...
ROW 53 : ... .. . ... ... ... : ... .. . P80 ... ... : ... .. . ... : ... .. 0 ... : ... .. . ... ... : ... .. . ... ... : ... .. . ... ... : ... .. . ... ...
ROW 54 : E-2 00 C ... ... ... : ... .. . P83 ... ... : C-6 00 . ... : 7-# 00 F ... : ... .. . ... ... : ... .. . ... ... : ... .. . ... ... : C#3 01 F P80 ...
ROW 55 : ... .. B ... ... ... : ... .. . P86 ... ... : D-5 00 . ... : ... .. C ... : ... .. . ... ... : ... .. . ... ... : ... .. . ... ... : ... .. D ... ...
ROW 56 : ... .. A ... ... ... : ... .. . ... ... ... : G-4 00 . ... : ... .. 6 ... : ... .. . ... ... : ... .. . ... ... : ... .. . ... ... : ... .. 8 ... ...
ROW 57 : ... .. 8 ... ... ... : ... .. . P82 ... ... : F#4 00 . ... : ... .. 3 ... : ... .. . ... ... : ... .. . ... ... : ... .. . ... ... : ... .. . ... ...
ROW 58 : ... .. . ... ... ... : ... .. . P7F ... ... : C#4 00 . ... : ... .. 2 ... : ... .. . ... ... : ... .. . ... ... : ... .. . ... ... : ... .. . ... ...
ROW 59 : ... .. . ... ... ... : ... .. . P7B ... ... : ... .. . ... : ... .. 0 ... : ... .. . ... ... : ... .. . ... ... : ... .. . ... ... : ... .. . ... ...
ROW 5A : ... .. C ... ... ... : ... .. . P7A ... ... : ... .. . ... : 1-# 00 8 ... : ... .. . ... ... : ... .. . ... ... : ... .. . ... ... : ... .. . ... ...
ROW 5B : ... .. B ... ... ... : ... .. . P7C ... ... : ... .. . ... : ... .. 6 ... : ... .. . ... ... : ... .. . ... ... : ... .. . ... ... : ... .. . ... ...
ROW 5C : ... .. A ... ... ... : ... .. . P80 ... ... : ... .. . ... : ... .. 3 ... : ... .. . ... ... : ... .. . ... ... : ... .. . ... ... : ... .. . ... ...
ROW 5D : ... .. 8 ... ... ... : ... .. . P83 ... ... : ... .. . ... : ... .. 1 ... : ... .. . ... ... : ... .. . ... ... : ... .. . ... ... : ... .. . ... ...
ROW 5E : ... .. 1 ... ... ... : ... .. . P86 ... ... : ... .. . ... : ... .. . ... : ... .. . ... ... : ... .. . ... ... : ... .. . ... ... : ... .. . ... ...
ROW 5F : ... .. . ... ... ... : ... .. . ... ... ... : ... .. . ... : ... .. 0 ... : ... .. . ... ... : ... .. . ... ... : ... .. . ... ... : ... .. . ... ...
ROW 60 : F-1 00 C ... ... ... : ... .. . P83 ... ... : C-4 00 . ... : 7-# 00 F ... : ... .. . ... ... : ... .. . ... ... : ... .. . ... ... : C-3 01 F ... ...
ROW 61 : ... .. B ... ... ... : ... .. . P80 ... ... : ... .. . ... : ... .. C ... : ... .. . ... ... : ... .. . ... ... : ... .. . ... ... : ... .. D ... ...
ROW 62 : ... .. A ... ... ... : ... .. . P7C ... ... : ... .. . ... : ... .. 6 ... : ... .. . ... ... : ... .. . ... ... : ... .. . ... ... : ... .. 8 ... ...
ROW 63 : ... .. 8 ... ... ... : ... .. . P7A ... ... : ... .. . ... : ... .. 3 ... : ... .. . ... ... : ... .. . ... ... : ... .. . ... ... : ... .. . ... ...
ROW 64 : ... .. 1 ... ... ... : ... .. . P7B ... ... : ... .. . ... : ... .. 2 ... : ... .. . ... ... : ... .. . ... ... : ... .. . ... ... : ... .. . ... ...
ROW 65 : ... .. . ... ... ... : ... .. . P7F ... ... : ... .. . ... : ... .. 0 ... : ... .. . ... ... : ... .. . ... ... : ... .. . ... ... : ... .. . ... ...
ROW 66 : D#2 00 C ... ... ... : ... .. . P82 ... ... : ... .. . ... : 1-# 00 8 ... : ... .. . ... ... : ... .. . ... ... : ... .. . ... ... : ... .. . ... ...
ROW 67 : ... .. B ... ... ... : ... .. . P86 ... ... : ... .. . ... : ... .. 6 ... : ... .. . ... ... : ... .. . ... ... : ... .. . ... ... : ... .. . ... ...
ROW 68 : ... .. A ... ... ... : ... .. . ... ... ... : ... .. . ... : ... .. 3 ... : ... .. . ... ... : ... .. . ... ... : ... .. . ... ... : ... .. . ... ...
ROW 69 : ... .. 8 ... ... ... : ... .. . P83 ... ... : ... .. . ... : ... .. 1 ... : ... .. . ... ... : ... .. . ... ... : ... .. . ... ... : ... .. . ... ...
ROW 6A : ... .. . ... ... ... : ... .. . P80 ... ... : ... .. . ... : ... .. . ... : ... .. . ... ... : ... .. . ... ... : ... .. . ... ... : ... .. . ... ...
ROW 6B : ... .. . ... ... ... : ... .. . P7C ... ... : --- .. . ... : ... .. 0 ... : ... .. . ... ... : ... .. . ... ... : ... .. . ... ... : --- .. . P7E ...
ROW 6C : ... .. C ... ... ... : ... .. . P7A ... ... : F-3 00 . ... : 7-# 00 F ... : ... .. . ... ... : ... .. . ... ... : ... .. . ... ... : F-2 01 F P80 ...
ROW 6D : ... .. B ... ... ... : ... .. . P7B ... ... : ... .. . ... : ... .. C ... : ... .. . ... ... : ... .. . ... ... : ... .. . ... ... : ... .. D ... ...
ROW 6E : ... .. A ... ... ... : ... .. . P7E ... ... : ... .. . ... : ... .. 6 ... : ... .. . ... ... : ... .. . ... ... : ... .. . ... ... : ... .. 8 ... ...
ROW 6F : ... .. 8 ... ... ... : ... .. . P82 ... ... : ... .. . ... : ... .. 3 ... : ... .. . ... ... : ... .. . ... ... : ... .. . ... ... : ... .. . ... ...
ROW 70 : ... .. 1 ... ... ... : ... .. . P85 ... ... : ... .. . ... : ... .. 2 ... : ... .. . ... ... : ... .. . ... ... : ... .. . ... ... : ... .. . ... ...
ROW 71 : ... .. . ... ... ... : ... .. . P86 ... ... : ... .. . ... : ... .. 0 ... : ... .. . ... ... : ... .. . ... ... : ... .. . ... ... : ... .. . ... ...
ROW 72 : F-1 00 C ... ... ... : ... .. . P84 ... ... : ... .. . ... : 1-# 00 8 ... : ... .. . ... ... : ... .. . ... ... : ... .. . ... ... : ... .. . ... ...
ROW 73 : ... .. B ... ... ... : ... .. . P80 ... ... : ... .. . ... : ... .. 6 ... : ... .. . ... ... : ... .. . ... ... : ... .. . ... ... : ... .. . ... ...
ROW 74 : ... .. A ... ... ... : ... .. . P7D ... ... : ... .. . ... : ... .. 3 ... : ... .. . ... ... : ... .. . ... ... : ... .. . ... ... : ... .. . ... ...
ROW 75 : ... .. 8 ... ... ... : ... .. . P7A ... ... : ... .. . ... : ... .. 1 ... : ... .. . ... ... : ... .. . ... ... : ... .. . ... ... : ... .. . ... ...
ROW 76 : ... .. 1 ... ... ... : ... .. . ... ... ... : ... .. . ... : ... .. . ... : ... .. . ... ... : ... .. . ... ... : ... .. . ... ... : ... .. . ... ...
ROW 77 : ... .. . ... ... ... : ... .. . P7E ... ... : --- .. . ... : ... .. 0 ... : ... .. . ... ... : ... .. . ... ... : ... .. . ... ... : --- .. . P7E ...
ROW 78 : C#2 00 C ... ... ... : C#3 00 F P80 ... ... : E-3 00 . ... : ... .. F ... : ... .. . ... ... : G#3 01 A ... ... : C-4 01 A ... ... : F-0 01 F P80 ...
ROW 79 : ... .. B ... ... ... : ... .. E ... ... ... : F#2 00 . ... : ... .. C ... : ... .. . ... ... : ... .. 9 ... ... : ... .. 9 ... ... : ... .. D ... ...
ROW 7A : ... .. A ... ... ... : ... .. D ... ... ... : B-1 00 . ... : ... .. 6 ... : ... .. . ... ... : ... .. 8 ... ... : ... .. 8 ... ... : ... .. 8 ... ...
ROW 7B : ... .. 8 ... ... ... : ... .. A ... ... ... : A#1 00 . ... : ... .. 3 ... : ... .. . ... ... : ... .. 7 ... ... : ... .. 7 ... ... : ... .. . ... ...
ROW 7C : ... .. . ... ... ... : ... .. . ... ... ... : F-1 00 . ... : ... .. 2 ... : ... .. . ... ... : ... .. . ... ... : ... .. . ... ... : ... .. . ... ...
ROW 7D : ... .. . ... ... ... : ... .. . ... ... ... : ... .. . ... : ... .. 0 ... : ... .. . ... ... : ... .. 6 ... ... : ... .. 6 ... ... : ... .. . ... ...
ROW 7E : ... .. C ... ... ... : ... .. . ... ... ... : ... .. . ... : C-# 00 8 ... : ... .. . ... ... : ... .. . ... ... : ... .. . ... ... : ... .. . ... ...
ROW 7F : ... .. B ... ... ... : ... .. . ... ... ... : ... .. . ... : ... .. 6 ... : ... .. . ... ... : ... .. 5 ... ... : ... .. 5 ... ... : ... .. . ... ...
ROW 80 : ... .. A ... ... ... : ... .. . ... ... ... : ... .. . ... : ... .. 3 ... : ... .. . ... ... : ... .. . ... ... : ... .. . ... ... : ... .. . ... ...
ROW 81 : ... .. 8 ... ... ... : ... .. . ... ... ... : ... .. . P60 : ... .. 1 ... : ... .. . ... ... : ... .. . ... ... : ... .. . ... ... : ... .. . P60 ...
ROW 82 : ... .. 1 ... ... ... : ... .. . ... ... ... : E-1 00 . P8C : ... .. . ... : ... .. . ... ... : ... .. . ... ... : ... .. . ... ... : ... .. . P40 ...
ROW 83 : ... .. . ... ... ... : ... .. . ... ... ... : ... .. . P6C : ... .. 0 ... : ... .. . ... ... : ... .. . ... ... : ... .. . ... ... : E-0 01 8 PCE ...
ROW 84 : G#1 00 C ... ... ... : ... .. . ... ... ... : D#1 00 . P9D : ... .. 8 ... : ... .. . ... ... : ... .. . ... ... : ... .. . ... ... : ... .. . PAE ...
ROW 85 : ... .. B ... ... ... : ... .. . ... ... ... : ... .. . P7D : ... .. 6 ... : ... .. . ... ... : ... .. . ... ... : ... .. . ... ... : ... .. . P8E ...
ROW 86 : ... .. A ... ... ... : ... .. . ... ... ... : ... .. . P5D : ... .. 3 ... : ... .. . ... ... : ... .. . ... ... : ... .. . ... ... : ... .. . P6E ...
ROW 87 : ... .. 8 ... ... ... : ... .. . ... ... ... : D-1 00 . P93 : ... .. 1 ... : ... .. . ... ... : ... .. . ... ... : ... .. . ... ... : ... .. . P4E ...
ROW 88 : ... .. 1 ... ... ... : ... .. . ... ... ... : ... .. . P73 : ... .. . ... : ... .. . ... ... : ... .. . ... ... : ... .. . ... ... : ... .. . P2E ...
ROW 89 : ... .. . ... ... ... : ... .. . ... ... ... : C#1 00 . PAD : ... .. 0 ... : ... .. . ... ... : ... .. . ... ... : ... .. . ... ... : D#0 01 8 PC6 ...
ROW 8A : ... .. C ... ... ... : ... .. . ... ... ... : F-2 00 . P80 : 1-# 00 F ... : ... .. . ... ... : ... .. A ... ... : C#4 01 A ... ... : F-1 01 F P80 ...
ROW 8B : ... .. B ... ... ... : ... .. . ... ... ... : ... .. . ... : ... .. C ... : ... .. . ... ... : ... .. 9 ... ... : ... .. 9 ... ... : ... .. D ... ...
ROW 8C : ... .. A ... ... ... : ... .. . ... ... ... : ... .. . ... : ... .. 6 ... : ... .. . ... ... : ... .. 8 ... ... : ... .. 8 ... ... : ... .. 8 ... ...
ROW 8D : ... .. 8 ... ... ... : ... .. . ... ... ... : ... .. . ... : ... .. 3 ... : ... .. . ... ... : ... .. 7 ... ... : ... .. 7 ... ... : ... .. . ... ...
ROW 8E : ... .. . ... ... ... : ... .. . ... ... ... : ... .. . ... : ... .. 2 ... : ... .. . ... ... : ... .. . ... ... : ... .. . ... ... : ... .. . ... ...
ROW 8F : ... .. . ... ... ... : ... .. . ... ... ... : ... .. . ... : ... .. 0 ... : ... .. . ... ... : ... .. 6 ... ... : ... .. 6 ... ... : ... .. . ... ...
ROW 90 : C-2 00 C ... ... ... : ... .. . ... ... ... : D#2 00 . ... : C-# 00 8 ... : ... .. . ... ... : ... .. . ... ... : ... .. . ... ... : D#1 01 F ... ...
ROW 91 : ... .. B ... ... ... : ... .. . ... ... ... : ... .. . ... : ... .. 6 ... : ... .. . ... ... : ... .. 5 ... ... : ... .. 5 ... ... : ... .. D ... ...
ROW 92 : ... .. A ... ... ... : ... .. . ... ... ... : ... .. . ... : ... .. 3 ... : ... .. . ... ... : ... .. . ... ... : ... .. . ... ... : ... .. 8 ... ...
ROW 93 : ... .. 8 ... ... ... : ... .. . ... ... ... : ... .. . ... : ... .. 1 ... : ... .. . ... ... : ... .. . ... ... : ... .. . ... ... : ... .. . ... ...
ROW 94 : ... .. 1 ... ... ... : ... .. . ... ... ... : ... .. . ... : ... .. . ... : ... .. . ... ... : ... .. . ... ... : ... .. . ... ... : ... .. . ... ...
ROW 95 : ... .. . ... ... ... : ... .. . ... ... ... : --- .. . ... : ... .. 0 ... : ... .. . ... ... : ... .. . ... ... : ... .. . ... ... : --- .. . P81 ...
ROW 96 : ... .. C ... ... ... : ... .. . ... ... ... : F-2 00 . ... : ... .. 8 ... : ... .. . ... ... : ... .. . ... ... : ... .. . ... ... : F-1 01 F P80 ...
ROW 97 : ... .. B ... ... ... : ... .. . ... ... ... : ... .. . ... : ... .. 6 ... : ... .. . ... ... : ... .. . ... ... : ... .. . ... ... : ... .. D ... ...
ROW 98 : ... .. A ... ... ... : ... .. . ... ... ... : ... .. . ... : ... .. 3 ... : ... .. . ... ... : ... .. . ... ... : ... .. . ... ... : ... .. 8 ... ...
ROW 99 : ... .. 8 ... ... ... : ... .. . ... ... ... : ... .. . ... : ... .. 1 ... : ... .. . ... ... : ... .. . ... ... : ... .. . ... ... : ... .. . ... ...
ROW 9A : ... .. 1 ... ... ... : ... .. . ... ... ... : ... .. . ... : ... .. . ... : ... .. . ... ... : ... .. . ... ... : ... .. . ... ... : ... .. . ... ...
ROW 9B : ... .. . ... ... ... : ... .. . ... ... ... : ... .. . ... : ... .. 0 ... : ... .. . ... ... : ... .. . ... ... : ... .. . ... ... : ... .. . ... ...
ROW 9C : A#1 00 C ... ... ... : ... .. . ... ... ... : E-5 00 . ... : 7-# 00 F ... : ... .. . ... ... : ... .. . ... ... : ... .. . ... ... : F-2 01 F ... ...
ROW 9D : ... .. B ... ... ... : ... .. . ... ... ... : F#4 00 . ... : ... .. C ... : ... .. . ... ... : ... .. . ... ... : ... .. . ... ... : ... .. D ... ...
ROW 9E : ... .. A ... ... ... : ... .. . ... ... ... : B-3 00 . ... : ... .. 6 ... : ... .. . ... ... : ... .. . ... ... : ... .. . ... ... : ... .. 8 ... ...
ROW 9F : ... .. 8 ... ... ... : ... .. . P8A ... ... : A#3 00 . ... : ... .. 3 ... : ... .. . ... ... : ... .. . ... ... : ... .. . ... ... : ... .. . ... ...
ROW A0 : ... .. . ... ... ... : D-3 00 A P79 ... ... : F-3 00 . ... : ... .. 2 ... : ... .. . ... ... : ... .. . ... ... : ... .. . ... ... : ... .. . ... ...
ROW A1 : ... .. . ... ... ... : ... .. . P77 ... ... : --- .. . ... : ... .. 0 ... : ... .. . ... ... : ... .. . ... ... : ... .. . ... ... : --- .. . P7E ...
ROW A2 : ... .. C ... ... ... : C#3 00 A P84 ... ... : D#3 00 . ... : ... .. 8 ... : ... .. . ... ... : ... .. . ... ... : ... .. . ... ... : D#2 01 F P80 ...
ROW A3 : ... .. B ... ... ... : ... .. . P7C ... ... : ... .. . ... : ... .. 6 ... : ... .. . ... ... : ... .. . ... ... : ... .. . ... ... : ... .. D ... ...
ROW A4 : ... .. A ... ... ... : C-3 00 A P8A ... ... : ... .. . ... : ... .. 3 ... : ... .. . ... ... : ... .. . ... ... : ... .. . ... ... : ... .. 8 ... ...
ROW A5 : ... .. 8 ... ... ... : ... .. . P88 ... ... : ... .. . ... : ... .. 1 ... : ... .. . ... ... : ... .. . ... ... : ... .. . ... ... : ... .. . ... ...
ROW A6 : ... .. 1 ... ... ... : C#3 00 A P76 ... ... : ... .. . ... : ... .. . ... : ... .. . ... ... : ... .. . ... ... : ... .. . ... ... : ... .. . ... ...
ROW A7 : ... .. . ... ... ... : ... .. . P80 ... ... : --- .. . ... : ... .. 0 ... : ... .. . ... ... : ... .. . ... ... : ... .. . ... ... : --- .. . ... ...
ROW A8 : F-1 00 C ... ... ... : ... .. . P89 ... ... : G#3 00 . ... : 4-# 00 F ... : ... .. . ... ... : ... .. . ... ... : ... .. . ... ... : G#2 01 F ... ...
ROW A9 : ... .. B ... ... ... : D-3 00 A P79 ... ... : ... .. . ... : ... .. C ... : ... .. . ... ... : ... .. . ... ... : ... .. . ... ... : ... .. D ... ...
ROW AA : ... .. A ... ... ... : ... .. . P77 ... ... : ... .. . ... : ... .. 6 ... : ... .. . ... ... : ... .. . ... ... : ... .. . ... ... : ... .. 8 ... ...
ROW AB : ... .. 8 ... ... ... : C#3 00 A P86 ... ... : ... .. . ... : ... .. 3 ... : ... .. . ... ... : ... .. . ... ... : ... .. . ... ... : ... .. . ... ...
ROW AC : ... .. 1 ... ... ... : ... .. . P7D ... ... : ... .. . ... : ... .. 2 ... : ... .. . ... ... : ... .. . ... ... : ... .. . ... ... : ... .. . ... ...
ROW AD : ... .. . ... ... ... : C-3 00 A P8B ... ... : ... .. . ... : ... .. 0 ... : ... .. . ... ... : ... .. . ... ... : ... .. . ... ... : ... .. . ... ...
ROW AE : ... .. C ... ... ... : ... .. . P88 ... ... : F#3 00 . ... : 9-# 00 8 ... : ... .. . ... ... : ... .. . ... ... : ... .. . ... ... : F#2 01 F ... ...
ROW AF : ... .. B ... ... ... : ... .. . P8C ... ... : ... .. . ... : ... .. 6 ... : ... .. . ... ... : ... .. . ... ... : ... .. . ... ... : ... .. D ... ...
ROW B0 : ... .. A ... ... ... : C#3 00 A P7F ... ... : ... .. . ... : ... .. 3 ... : ... .. . ... ... : ... .. . ... ... : ... .. . ... ... : ... .. 8 ... ...
ROW B1 : ... .. 8 ... ... ... : ... .. . P88 ... ... : ... .. . ... : ... .. 1 ... : ... .. . ... ... : ... .. . ... ... : ... .. . ... ... : ... .. . ... ...
ROW B2 : ... .. 1 ... ... ... : D-3 00 A P78 ... ... : ... .. . ... : ... .. . ... : ... .. . ... ... : ... .. . ... ... : ... .. . ... ... : ... .. . ... ...
ROW B3 : ... .. . ... ... ... : ... .. . ... ... ... : --- .. . ... : ... .. 0 ... : ... .. . ... ... : ... .. . ... ... : ... .. . ... ... : --- .. . P84 ...
ROW B4 : E-1 00 C ... ... ... : C#3 00 A P88 ... ... : F-3 00 . ... : 7-# 00 F ... : ... .. . ... ... : ... .. . ... ... : ... .. . ... ... : F-2 01 F P80 ...
ROW B5 : ... .. B ... ... ... : ... .. . P7F ... ... : ... .. . ... : ... .. C ... : ... .. . ... ... : ... .. . ... ... : ... .. . ... ... : ... .. D ... ...
ROW B6 : ... .. A ... ... ... : C-3 00 A P8C ... ... : ... .. . ... : ... .. 6 ... : ... .. . ... ... : ... .. . ... ... : ... .. . ... ... : ... .. 8 ... ...
ROW B7 : ... .. 8 ... ... ... : ... .. . P88 ... ... : ... .. . ... : ... .. 3 ... : ... .. . ... ... : ... .. . ... ... : ... .. . ... ... : ... .. . ... ...
ROW B8 : ... .. 1 ... ... ... : ... .. . P8B ... ... : ... .. . ... : ... .. 2 ... : ... .. . ... ... : ... .. . ... ... : ... .. . ... ... : ... .. . ... ...
ROW B9 : ... .. . ... ... ... : C#3 00 A P7D ... ... : --- .. . ... : ... .. 0 ... : ... .. . ... ... : ... .. . ... ... : ... .. . ... ... : --- .. . P7E ...
ROW BA : ... .. C ... ... ... : ... .. . P86 ... ... : F-2 00 . ... : 5-# 00 8 ... : ... .. . ... ... : ... .. . ... ... : ... .. . ... ... : F-1 01 F P80 ...
ROW BB : ... .. B ... ... ... : D-3 00 A P77 ... ... : ... .. . ... : ... .. 6 ... : ... .. . ... ... : ... .. . ... ... : ... .. . ... ... : ... .. D ... ...
ROW BC : ... .. A ... ... ... : ... .. . P79 ... ... : ... .. . ... : ... .. 3 ... : ... .. . ... ... : ... .. . ... ... : ... .. . ... ... : ... .. 8 ... ...
ROW BD : ... .. 8 ... ... ... : C#3 00 A P89 ... ... : ... .. . ... : ... .. 1 ... : ... .. . ... ... : ... .. . ... ... : ... .. . ... ... : ... .. . ... ...
ROW BE : ... .. 1 ... ... ... : ... .. . P80 ... ... : ... .. . ... : ... .. . ... : ... .. . ... ... : ... .. . ... ... : ... .. . ... ... : ... .. . ... ...
ROW BF : ... .. . ... ... ... : ... .. . P76 ... ... : --- .. . ... : ... .. 0 ... : ... .. . ... ... : ... .. . ... ... : ... .. . ... ... : --- .. . P7F ...
ROW C0 : F-1 00 C ... ... ... : F-3 00 F P80 ... ... : E-4 00 . ... : 1-# 00 F ... : ... .. . ... ... : G#4 01 A ... ... : C-5 01 A ... ... : F-1 01 F P80 ...
ROW C1 : ... .. B ... ... ... : ... .. E ... ... ... : F#3 00 . ... : ... .. C ... : ... .. . ... ... : ... .. 9 ... ... : ... .. 9 ... ... : ... .. D ... ...
ROW C2 : ... .. A ... ... ... : ... .. D ... ... ... : B-2 00 . ... : ... .. 6 ... : ... .. . ... ... : ... .. 8 ... ... : ... .. 8 ... ... : ... .. 8 ... ...
ROW C3 : ... .. 8 ... ... ... : ... .. A ... ... ... : A#2 00 . ... : ... .. 3 ... : ... .. . ... ... : ... .. 7 ... ... : ... .. 7 ... ... : ... .. . ... ...
ROW C4 : ... .. 1 ... ... ... : ... .. . ... ... ... : F-2 00 . ... : ... .. 2 ... : ... .. . ... ... : ... .. . ... ... : ... .. . ... ... : ... .. . ... ...
ROW C5 : ... .. . ... ... ... : ... .. . ... ... ... : ... .. . ... : ... .. 0 ... : ... .. . ... ... : ... .. 6 ... ... : ... .. 6 ... ... : ... .. . ... ...
ROW C6 : ... .. C ... ... ... : ... .. . ... ... ... : ... .. . ... : C-# 00 8 ... : ... .. . ... ... : ... .. . ... ... : ... .. . ... ... : ... .. . ... ...
ROW C7 : ... .. B ... ... ... : ... .. . ... ... ... : ... .. . ... : ... .. 6 ... : ... .. . ... ... : ... .. 5 ... ... : ... .. 5 ... ... : ... .. . ... ...
ROW C8 : ... .. A ... ... ... : ... .. . ... ... ... : ... .. . ... : ... .. 3 ... : ... .. . ... ... : ... .. . ... ... : ... .. . ... ... : ... .. . ... ...
ROW C9 : ... .. 8 ... ... ... : ... .. . ... ... ... : E-2 00 . P86 : ... .. 1 ... : ... .. . ... ... : ... .. . ... ... : ... .. . ... ... : ... .. . P60 ...
ROW CA : ... .. 1 ... ... ... : ... .. . ... ... ... : D#2 00 . P8E : ... .. . ... : ... .. . ... ... : ... .. . ... ... : ... .. . ... ... : E-1 01 8 P97 ...
ROW CB : ... .. . ... ... ... : ... .. . ... ... ... : ... .. . P6E : ... .. 0 ... : ... .. . ... ... : ... .. . ... ... : ... .. . ... ... : ... .. . P77 ...
ROW CC : C-2 00 C ... ... ... : ... .. . ... ... ... : D-2 00 . P79 : ... .. 8 ... : ... .. . ... ... : ... .. . ... ... : ... .. . ... ... : ... .. . P57 ...
ROW CD : ... .. B ... ... ... : ... .. . ... ... ... : C#2 00 . P86 : ... .. 6 ... : ... .. . ... ... : ... .. . ... ... : ... .. . ... ... : D#1 01 8 P94 ...
ROW CE : ... .. A ... ... ... : ... .. . ... ... ... : C-2 00 . P96 : ... .. 3 ... : ... .. . ... ... : ... .. . ... ... : ... .. . ... ... : ... .. . P74 ...
ROW CF : ... .. 8 ... ... ... : ... .. . ... ... ... : ... .. . P76 : ... .. 1 ... : ... .. . ... ... : ... .. . ... ... : ... .. . ... ... : ... .. . P54 ...
ROW D0 : ... .. . ... ... ... : ... .. . ... ... ... : B-1 00 . P89 : ... .. . ... : ... .. . ... ... : ... .. . ... ... : ... .. . ... ... : D-1 01 8 P95 ...
ROW D1 : ... .. . ... ... ... : ... .. . ... ... ... : ... .. . P69 : ... .. 0 ... : ... .. . ... ... : ... .. . ... ... : ... .. . ... ... : ... .. . P75 ...
ROW D2 : B-1 00 C ... ... ... : G#2 00 F ... ... ... : E-5 00 . P80 : 1-# 00 F ... : ... .. . ... ... : ... .. A ... ... : C#5 01 A ... ... : F-2 01 F P80 ...
ROW D3 : ... .. B ... ... ... : ... .. E ... ... ... : F#4 00 . ... : ... .. C ... : ... .. . ... ... : ... .. 9 ... ... : ... .. 9 ... ... : ... .. D ... ...
ROW D4 : ... .. A ... ... ... : ... .. D ... ... ... : B-3 00 . ... : ... .. 6 ... : ... .. . ... ... : ... .. 8 ... ... : ... .. 8 ... ... : ... .. 8 ... ...
ROW D5 : ... .. 8 ... ... ... : ... .. A ... ... ... : A#3 00 . ... : ... .. 3 ... : ... .. . ... ... : ... .. 7 ... ... : ... .. 7 ... ... : ... .. . ... ...
ROW D6 : ... .. 1 ... ... ... : ... .. . ... ... ... : F-3 00 . ... : ... .. 2 ... : ... .. . ... ... : ... .. . ... ... : ... .. . ... ... : ... .. . ... ...
ROW D7 : ... .. . ... ... ... : ... .. . ... ... ... : --- .. . ... : ... .. 0 ... : ... .. . ... ... : ... .. 6 ... ... : ... .. 6 ... ... : --- .. . P7E ...
ROW D8 : C-2 00 C ... ... ... : C-3 00 F ... ... ... : D#3 00 . ... : C-# 00 8 ... : ... .. . ... ... : ... .. . ... ... : ... .. . ... ... : D#2 01 F P80 ...
ROW D9 : ... .. B ... ... ... : ... .. E ... ... ... : ... .. . ... : ... .. 6 ... : ... .. . ... ... : ... .. 5 ... ... : ... .. 5 ... ... : ... .. D ... ...
ROW DA : ... .. A ... ... ... : ... .. D ... ... ... : ... .. . ... : ... .. 3 ... : ... .. . ... ... : ... .. . ... ... : ... .. . ... ... : ... .. 8 ... ...
ROW DB : ... .. 8 ... ... ... : ... .. A ... ... ... : ... .. . ... : ... .. 1 ... : ... .. . ... ... : ... .. . ... ... : ... .. . ... ... : ... .. . ... ...
ROW DC : ... .. 1 ... ... ... : ... .. 2 ... ... ... : ... .. . ... : ... .. . ... : ... .. . ... ... : ... .. . ... ... : ... .. . ... ... : ... .. . ... ...
ROW DD : ... .. . ... ... ... : ... .. . ... ... ... : --- .. . ... : ... .. 0 ... : ... .. . ... ... : ... .. . ... ... : ... .. . ... ... : --- .. . ... ...
ROW DE : G#1 00 C ... ... ... : F-3 00 F ... ... ... : F-3 00 . ... : ... .. 8 ... : ... .. . ... ... : ... .. . ... ... : ... .. . ... ... : F-2 01 F ... ...
ROW DF : ... .. B ... ... ... : ... .. E ... ... ... : ... .. . ... : ... .. 6 ... : ... .. . ... ... : ... .. . ... ... : ... .. . ... ... : ... .. D ... ...
ROW E0 : ... .. A ... ... ... : ... .. D ... ... ... : ... .. . ... : ... .. 3 ... : ... .. . ... ... : ... .. . ... ... : ... .. . ... ... : ... .. 8 ... ...
ROW E1 : ... .. 8 ... ... ... : ... .. A ... ... ... : --- .. . ... : ... .. 1 ... : ... .. . ... ... : ... .. . ... ... : ... .. . ... ... : --- .. . P7E ...
ROW E2 : ... .. . ... ... ... : ... .. 2 ... ... ... : ... .. . ... : ... .. . ... : ... .. . ... ... : ... .. . ... ... : ... .. . ... ... : ... .. . ... ...
ROW E3 : ... .. . ... ... ... : ... .. . ... ... ... : ... .. . ... : ... .. 0 ... : ... .. . ... ... : ... .. . ... ... : ... .. . ... ... : ... .. . ... ...
ROW E4 : G#2 00 C ... ... ... : G-3 00 F ... ... ... : B-5 00 . ... : 7-# 00 F ... : ... .. . ... ... : ... .. . ... ... : ... .. . ... ... : C-3 01 F P80 ...
ROW E5 : ... .. B ... ... ... : ... .. E ... ... ... : C#5 00 . ... : ... .. C ... : ... .. . ... ... : ... .. . ... ... : ... .. . ... ... : ... .. D ... ...
ROW E6 : ... .. A ... ... ... : ... .. D ... ... ... : F#4 00 . ... : ... .. 6 ... : ... .. . ... ... : ... .. . ... ... : ... .. . ... ... : ... .. 8 ... ...
ROW E7 : ... .. 8 ... ... ... : ... .. A ... ... ... : F-4 00 . ... : ... .. 3 ... : ... .. . ... ... : ... .. . ... ... : ... .. . ... ... : ... .. . ... ...
ROW E8 : ... .. 1 ... ... ... : ... .. . ... ... ... : C-4 00 . ... : ... .. 2 ... : ... .. . ... ... : ... .. . ... ... : ... .. . ... ... : ... .. . ... ...
ROW E9 : ... .. . ... ... ... : ... .. . ... ... ... : ... .. . ... : ... .. 0 ... : ... .. . ... ... : ... .. . ... ... : ... .. . ... ... : ... .. . ... ...
ROW EA : ... .. C ... ... ... : ... .. . ... ... ... : ... .. . ... : 1-# 00 8 ... : ... .. . ... ... : ... .. . ... ... : ... .. . ... ... : ... .. . ... ...
ROW EB : ... .. B ... ... ... : ... .. . ... ... ... : ... .. . ... : ... .. 6 ... : ... .. . ... ... : ... .. . ... ... : ... .. . ... ... : ... .. . ... ...
ROW EC : ... .. A ... ... ... : ... .. . ... ... ... : ... .. . ... : ... .. 3 ... : ... .. . ... ... : ... .. . ... ... : ... .. . ... ... : ... .. . ... ...
ROW ED : ... .. 8 ... ... ... : ... .. . ... ... ... : ... .. . ... : ... .. 1 ... : ... .. . ... ... : ... .. . ... ... : ... .. . ... ... : ... .. . ... ...
ROW EE : ... .. 1 ... ... ... : ... .. . ... ... ... : ... .. . ... : ... .. . ... : ... .. . ... ... : ... .. . ... ... : ... .. . ... ... : ... .. . ... ...
ROW EF : ... .. . ... ... ... : ... .. . ... ... ... : ... .. . ... : ... .. 0 ... : ... .. . ... ... : ... .. . ... ... : ... .. . ... ... : ... .. . ... ...
ROW F0 : B-1 00 C ... ... ... : ... .. . ... ... ... : B-3 00 . ... : 7-# 00 F ... : ... .. . ... ... : ... .. . ... ... : ... .. . ... ... : B-2 01 F ... ...
ROW F1 : ... .. B ... ... ... : ... .. . ... ... ... : ... .. . ... : ... .. C ... : ... .. . ... ... : ... .. . ... ... : ... .. . ... ... : ... .. D ... ...
ROW F2 : ... .. A ... ... ... : ... .. . ... ... ... : ... .. . ... : ... .. 6 ... : ... .. . ... ... : ... .. . ... ... : ... .. . ... ... : ... .. 8 ... ...
ROW F3 : ... .. 8 ... ... ... : ... .. . ... ... ... : ... .. . ... : ... .. 3 ... : ... .. . ... ... : ... .. . ... ... : ... .. . ... ... : ... .. . ... ...
ROW F4 : ... .. 1 ... ... ... : ... .. 2 ... ... ... : ... .. . ... : ... .. 2 ... : ... .. . ... ... : ... .. . ... ... : ... .. . ... ... : ... .. . ... ...
ROW F5 : ... .. . ... ... ... : ... .. . ... ... ... : ... .. . ... : ... .. 0 ... : ... .. . ... ... : ... .. . ... ... : ... .. . ... ... : ... .. . ... ...
ROW F6 : B-2 00 C ... ... ... : C-3 00 F ... ... ... : ... .. . ... : 1-# 00 8 ... : ... .. . ... ... : ... .. . ... ... : ... .. . ... ... : ... .. . ... ...
ROW F7 : ... .. B ... ... ... : ... .. E ... ... ... : ... .. . ... : ... .. 6 ... : ... .. . ... ... : ... .. . ... ... : ... .. . ... ... : ... .. . ... ...
ROW F8 : ... .. A ... ... ... : ... .. D ... ... ... : ... .. . ... : ... .. 3 ... : ... .. . ... ... : ... .. . ... ... : ... .. . ... ... : ... .. . ... ...
ROW F9 : ... .. 8 ... ... ... : ... .. A ... ... ... : ... .. . ... : ... .. 1 ... : ... .. . ... ... : ... .. . ... ... : ... .. . ... ... : ... .. . ... ...
ROW FA : ... .. 1 ... ... ... : ... .. . ... ... ... : ... .. . ... : ... .. . ... : ... .. . ... ... : ... .. . ... ... : ... .. . ... ... : ... .. . ... ...
ROW FB : ... .. . ... ... ... : ... .. . ... ... ... : --- .. . ... : ... .. 0 ... : ... .. . ... ... : ... .. . ... ... : ... .. . ... ... : --- .. . P8B ...
ROW FC : ... .. C ... ... ... : F-3 00 F ... ... ... : F-3 00 . ... : 7-# 00 F ... : ... .. . ... ... : ... .. . ... ... : ... .. . ... ... : F-2 01 F P80 ...
ROW FD : ... .. B ... ... ... : ... .. E ... ... ... : ... .. . ... : ... .. C ... : ... .. . ... ... : ... .. . ... ... : ... .. . ... ... : ... .. D ... ...
ROW FE : ... .. A ... ... ... : ... .. D ... ... ... : ... .. . ... : ... .. 6 ... : ... .. . ... ... : ... .. . ... ... : ... .. . ... ... : ... .. 8 ... ...
ROW FF : ... .. 8 ... ... ... : ... .. A ... ... ... : ... .. . ... : ... .. 3 ... : ... .. . ... ... : ... .. . ... ... : ... .. . ... ... : ... .. . ... ...

PATTERN 07
ROW 00 : ... .. 1 ... ... ... : ... .. 2 ... ... ... : ... .. . ... : ... .. 2 ... : ... .. . ... ... : ... .. . ... ... : ... .. . ... ... : ... .. . ... ...
ROW 01 : ... .. . ... ... ... : ... .. . ... ... ... : ... .. . ... : ... .. 0 ... : ... .. . ... ... : ... .. . ... ... : ... .. . ... ... : ... .. . ... ...
ROW 02 : F-2 00 C ... ... ... : G-3 00 F ... ... ... : ... .. . ... : 1-# 00 8 ... : ... .. . ... ... : ... .. . ... ... : ... .. . ... ... : ... .. . ... ...
ROW 03 : ... .. B ... ... ... : ... .. E ... ... ... : ... .. . ... : ... .. 6 ... : ... .. . ... ... : ... .. . ... ... : ... .. . ... ... : ... .. . ... ...
ROW 04 : ... .. A ... ... ... : ... .. D ... ... ... : ... .. . ... : ... .. 3 ... : ... .. . ... ... : ... .. . ... ... : ... .. . ... ... : ... .. . ... ...
ROW 05 : ... .. 8 ... ... ... : ... .. A ... ... ... : ... .. . ... : ... .. 1 ... : ... .. . ... ... : ... .. . ... ... : ... .. . ... ... : ... .. . ... ...
ROW 06 : ... .. 1 ... ... ... : ... .. 2 ... ... ... : ... .. . ... : ... .. . ... : ... .. . ... ... : ... .. . ... ... : ... .. . ... ... : ... .. . ... ...
ROW 07 : ... .. . ... ... ... : ... .. . ... ... ... : --- .. . ... : ... .. 0 ... : ... .. . ... ... : ... .. . ... ... : ... .. . ... ... : --- .. . P7E ...
ROW 08 : E-3 00 C ... ... ... : A#3 00 F ... ... ... : E-5 00 . ... : ... .. F ... : ... .. . ... ... : ... .. A ... ... : C-4 01 A ... ... : F-2 01 F P80 ...
ROW 09 : ... .. B ... ... ... : ... .. E ... ... ... : F#4 00 . ... : ... .. C ... : ... .. . ... ... : ... .. 9 ... ... : ... .. 9 ... ... : ... .. D ... ...
ROW 0A : ... .. A ... ... ... : ... .. D ... ... ... : B-3 00 . ... : ... .. 6 ... : ... .. . ... ... : ... .. 8 ... ... : ... .. 8 ... ... : ... .. 8 ... ...
ROW 0B : ... .. 8 ... ... ... : ... .. A ... ... ... : A#3 00 . ... : ... .. 3 ... : ... .. . ... ... : ... .. 7 ... ... : ... .. 7 ... ... : ... .. . ... ...
ROW 0C : ... .. . ... ... ... : ... .. . ... ... ... : F-3 00 . ... : ... .. 2 ... : ... .. . ... ... : ... .. . ... ... : ... .. . ... ... : ... .. . ... ...
ROW 0D : ... .. . ... ... ... : ... .. . ... ... ... : ... .. . ... : ... .. 0 ... : ... .. . ... ... : ... .. 6 ... ... : ... .. 6 ... ... : ... .. . ... ...
ROW 0E : F-1 00 C ... ... ... : ... .. . ... ... ... : ... .. . ... : C-# 00 8 ... : ... .. . ... ... : G#3 01 A ... ... : G#3 01 A ... ... : ... .. . ... ...
ROW 0F : ... .. B ... ... ... : ... .. . ... ... ... : ... .. . ... : ... .. 6 ... : ... .. . ... ... : ... .. 9 ... ... : ... .. 9 ... ... : ... .. . ... ...
ROW 10 : ... .. A ... ... ... : ... .. . ... ... ... : ... .. . ... : ... .. 3 ... : ... .. . ... ... : ... .. 8 ... ... : ... .. 8 ... ... : ... .. . ... ...
ROW 11 : ... .. 8 ... ... ... : ... .. . ... ... ... : D#3 00 . P88 : ... .. 1 ... : ... .. . ... ... : ... .. 7 ... ... : ... .. 7 ... ... : E-2 01 8 P8C ...
ROW 12 : ... .. 1 ... ... ... : ... .. . ... ... ... : D-3 00 . P7D : ... .. . ... : ... .. . ... ... : ... .. . ... ... : ... .. . ... ... : ... .. . P6C ...
ROW 13 : ... .. . ... ... ... : ... .. . ... ... ... : C-3 00 . P8C : ... .. 0 ... : ... .. . ... ... : ... .. 6 ... ... : ... .. 6 ... ... : D#2 01 8 P7A ...
ROW 14 : ... .. C ... ... ... : ... .. . ... ... ... : B-2 00 . P85 : ... .. 8 ... : ... .. . ... ... : F-3 01 A ... ... : F-3 01 A ... ... : D-2 01 8 P8B ...
ROW 15 : ... .. B ... ... ... : ... .. . ... ... ... : A#2 00 . P80 : ... .. 6 ... : ... .. . ... ... : ... .. 9 ... ... : ... .. 9 ... ... : ... .. . P6B ...
ROW 16 : ... .. A ... ... ... : ... .. . ... ... ... : A-2 00 . P7C : ... .. 3 ... : ... .. . ... ... : ... .. 8 ... ... : ... .. 8 ... ... : C#2 01 8 P7E ...
ROW 17 : ... .. 8 ... ... ... : ... .. . ... ... ... : G#2 00 . P7B : ... .. 1 ... : ... .. . ... ... : ... .. 7 ... ... : ... .. 7 ... ... : C-2 01 8 P95 ...
ROW 18 : ... .. 1 ... ... ... : ... .. . ... ... ... : G-2 00 . ... : ... .. . ... : ... .. . ... ... : ... .. . ... ... : ... .. . ... ... : ... .. . P75 ...
ROW 19 : ... .. . ... ... ... : ... .. . ... ... ... : F#2 00 . P7D : ... .. 0 ... : ... .. . ... ... : ... .. 6 ... ... : ... .. 6 ... ... : B-1 01 8 P8F ...
ROW 1A : E-3 00 C ... ... ... : ... .. . ... ... ... : E-5 00 . P80 : 1-# 00 F ... : ... .. . ... ... : G#4 01 A ... ... : C-4 01 A ... ... : F-2 01 F P80 ...
ROW 1B : ... .. B ... ... ... : ... .. 2 ... ... ... : F#4 00 . ... : ... .. C ... : ... .. . ... ... : ... .. 9 ... ... : ... .. 9 ... ... : ... .. D ... ...
ROW 1C : ... .. A ... ... ... : ... .. . ... ... ... : B-3 00 . ... : ... .. 6 ... : ... .. . ... ... : ... .. 8 ... ... : ... .. 8 ... ... : ... .. 8 ... ...
ROW 1D : ... .. 8 ... ... ... : ... .. . ... ... ... : A#3 00 . ... : ... .. 3 ... : ... .. . ... ... : ... .. 7 ... ... : ... .. 7 ... ... : ... .. . ... ...
ROW 1E : ... .. . ... ... ... : ... .. 1 ... ... ... : F-3 00 . ... : ... .. 2 ... : ... .. . ... ... : ... .. . ... ... : ... .. . ... ... : ... .. . ... ...
ROW 1F : ... .. . ... ... ... : ... .. . ... ... ... : ... .. . ... : ... .. 0 ... : ... .. . ... ... : ... .. 6 ... ... : ... .. 6 ... ... : ... .. . ... ...
ROW 20 : F-1 00 C ... ... ... : G#3 00 F ... ... ... : ... .. . ... : C-# 00 8 ... : ... .. . ... ... : G#3 01 A ... ... : G#3 01 A ... ... : ... .. . ... ...
ROW 21 : ... .. B ... ... ... : ... .. E ... ... ... : ... .. . ... : ... .. 6 ... : ... .. . ... ... : ... .. 9 ... ... : ... .. 9 ... ... : ... .. . ... ...
ROW 22 : ... .. A ... ... ... : ... .. D ... ... ... : ... .. . ... : ... .. 3 ... : ... .. . ... ... : ... .. 8 ... ... : ... .. 8 ... ... : ... .. . ... ...
ROW 23 : ... .. 8 ... ... ... : ... .. A ... ... ... : D#3 00 . P88 : ... .. 1 ... : ... .. . ... ... : ... .. 7 ... ... : ... .. 7 ... ... : E-2 01 8 P8C ...
ROW 24 : ... .. 1 ... ... ... : ... .. 2 ... ... ... : D-3 00 . P7D : ... .. . ... : ... .. . ... ... : ... .. . ... ... : ... .. . ... ... : ... .. . P6C ...
ROW 25 : ... .. . ... ... ... : ... .. . ... ... ... : C-3 00 . P8C : ... .. 0 ... : ... .. . ... ... : ... .. 6 ... ... : ... .. 6 ... ... : D#2 01 8 P7A ...
ROW 26 : ... .. C ... ... ... : G-3 00 F ... ... ... : B-2 00 . P85 : ... .. 8 ... : ... .. . ... ... : F-3 01 A ... ... : F-3 01 A ... ... : D-2 01 8 P8B ...
ROW 27 : ... .. B ... ... ... : ... .. E ... ... ... : A#2 00 . P80 : ... .. 6 ... : ... .. . ... ... : ... .. 9 ... ... : ... .. 9 ... ... : ... .. . P6B ...
ROW 28 : ... .. A ... ... ... : ... .. D ... ... ... : A-2 00 . P7C : ... .. 3 ... : ... .. . ... ... : ... .. 8 ... ... : ... .. 8 ... ... : C#2 01 8 P7E ...
ROW 29 : ... .. 8 ... ... ... : ... .. A ... ... ... : G#2 00 . P7B : ... .. 1 ... : ... .. . ... ... : ... .. 7 ... ... : ... .. 7 ... ... : C-2 01 8 P95 ...
ROW 2A : ... .. 1 ... ... ... : ... .. 2 ... ... ... : G-2 00 . ... : ... .. . ... : ... .. . ... ... : ... .. . ... ... : ... .. . ... ... : ... .. . P75 ...
ROW 2B : ... .. . ... ... ... : ... .. . ... ... ... : F#2 00 . P7D : ... .. 0 ... : ... .. . ... ... : ... .. 6 ... ... : ... .. 6 ... ... : B-1 01 8 P8F ...
ROW 2C : D#3 00 C ... ... ... : G#3 00 F ... ... ... : E-4 00 . P80 : 7-# 00 F ... : ... .. . ... ... : G#4 01 A ... ... : C-4 01 A ... ... : F-1 01 F P80 ...
ROW 2D : ... .. B ... ... ... : ... .. E ... ... ... : F#3 00 . ... : ... .. C ... : ... .. . ... ... : ... .. 9 ... ... : ... .. 9 ... ... : ... .. D ... ...
ROW 2E : ... .. A ... ... ... : ... .. D ... ... ... : B-2 00 . ... : ... .. 6 ... : ... .. . ... ... : ... .. 8 ... ... : ... .. 8 ... ... : ... .. 8 ... ...
ROW 2F : ... .. 8 ... ... ... : ... .. A ... ... ... : A#2 00 . ... : ... .. 3 ... : ... .. . ... ... : ... .. 7 ... ... : ... .. 7 ... ... : ... .. . ... ...
ROW 30 : ... .. . ... ... ... : ... .. . ... ... ... : F-2 00 . ... : ... .. 2 ... : ... .. . ... ... : ... .. . ... ... : ... .. . ... ... : ... .. . ... ...
ROW 31 : ... .. . ... ... ... : ... .. . ... ... ... : ... .. . ... : ... .. 0 ... : ... .. . ... ... : ... .. 6 ... ... : ... .. 6 ... ... : ... .. . ... ...
ROW 32 : F-1 00 C ... ... ... : ... .. . ... ... ... : ... .. . ... : ... .. 8 ... : ... .. . ... ... : G#3 01 A ... ... : G#3 01 A ... ... : ... .. . ... ...
ROW 33 : ... .. B ... ... ... : ... .. . ... ... ... : ... .. . ... : ... .. 6 ... : ... .. . ... ... : ... .. 9 ... ... : ... .. 9 ... ... : ... .. . ... ...
ROW 34 : ... .. A ... ... ... : ... .. . ... ... ... : ... .. . ... : ... .. 3 ... : ... .. . ... ... : ... .. 8 ... ... : ... .. 8 ... ... : ... .. . ... ...
ROW 35 : ... .. 8 ... ... ... : ... .. . ... ... ... : E-2 00 . P86 : ... .. 1 ... : ... .. . ... ... : ... .. 7 ... ... : ... .. 7 ... ... : ... .. . P60 ...
ROW 36 : ... .. 1 ... ... ... : ... .. . ... ... ... : D#2 00 . P8E : ... .. . ... : ... .. . ... ... : ... .. . ... ... : ... .. . ... ... : E-1 01 8 P97 ...
ROW 37 : ... .. . ... ... ... : ... .. . ... ... ... : ... .. . P6E : ... .. 0 ... : ... .. . ... ... : ... .. 6 ... ... : ... .. 6 ... ... : ... .. . P77 ...
ROW 38 : ... .. C ... ... ... : ... .. . ... ... ... : D-2 00 . P79 : 4-# 00 F ... : ... .. . ... ... : B-2 01 A ... ... : D#3 01 A ... ... : ... .. . P57 ...
ROW 39 : ... .. B ... ... ... : ... .. . ... ... ... : C#2 00 . P86 : ... .. C ... : ... .. . ... ... : ... .. 9 ... ... : ... .. 9 ... ... : D#1 01 8 P94 ...
ROW 3A : ... .. A ... ... ... : ... .. . ... ... ... : C-2 00 . P96 : ... .. 6 ... : ... .. . ... ... : ... .. 8 ... ... : ... .. 8 ... ... : ... .. . P74 ...
ROW 3B : ... .. 8 ... ... ... : ... .. . ... ... ... : ... .. . P76 : ... .. 3 ... : ... .. . ... ... : ... .. 7 ... ... : ... .. 7 ... ... : ... .. . P54 ...
ROW 3C : ... .. 1 ... ... ... : ... .. . ... ... ... : B-1 00 . P89 : ... .. 2 ... : ... .. . ... ... : ... .. . ... ... : ... .. . ... ... : D-1 01 8 P95 ...
ROW 3D : ... .. . ... ... ... : ... .. . ... ... ... : ... .. . P69 : ... .. 0 ... : ... .. . ... ... : ... .. 6 ... ... : ... .. 6 ... ... : ... .. . P75 ...
ROW 3E : D#3 00 C ... ... ... : ... .. . ... ... ... : E-4 00 . P80 : 9-# 00 8 ... : ... .. . ... ... : G#4 01 A ... ... : C-4 01 A ... ... : F-1 01 F P80 ...
ROW 3F : ... .. B ... ... ... : ... .. 2 ... ... ... : F#3 00 . ... : ... .. 6 ... : ... .. . ... ... : ... .. 9 ... ... : ... .. 9 ... ... : ... .. D ... ...
ROW 40 : ... .. A ... ... ... : ... .. . ... ... ... : B-2 00 . ... : ... .. 3 ... : ... .. . ... ... : ... .. 8 ... ... : ... .. 8 ... ... : ... .. 8 ... ...
ROW 41 : ... .. 8 ... ... ... : ... .. . ... ... ... : A#2 00 . ... : ... .. 1 ... : ... .. . ... ... : ... .. 7 ... ... : ... .. 7 ... ... : ... .. . ... ...
ROW 42 : ... .. . ... ... ... : ... .. 1 ... ... ... : F-2 00 . ... : ... .. . ... : ... .. . ... ... : ... .. . ... ... : ... .. . ... ... : ... .. . ... ...
ROW 43 : ... .. . ... ... ... : ... .. . ... ... ... : ... .. . ... : ... .. 0 ... : ... .. . ... ... : ... .. 6 ... ... : ... .. 6 ... ... : ... .. . ... ...
ROW 44 : F-1 00 C ... ... ... : ... .. F ... ... ... : ... .. . ... : 7-# 00 F ... : ... .. . ... ... : G#3 01 A ... ... : G#3 01 A ... ... : ... .. . ... ...
ROW 45 : ... .. B ... ... ... : ... .. E ... ... ... : ... .. . ... : ... .. C ... : ... .. . ... ... : ... .. 9 ... ... : ... .. 9 ... ... : ... .. . ... ...
ROW 46 : ... .. A ... ... ... : ... .. D ... ... ... : ... .. . ... : ... .. 6 ... : ... .. . ... ... : ... .. 8 ... ... : ... .. 8 ... ... : ... .. . ... ...
ROW 47 : ... .. 8 ... ... ... : ... .. A ... ... ... : E-2 00 . P86 : ... .. 3 ... : ... .. . ... ... : ... .. 7 ... ... : ... .. 7 ... ... : ... .. . P60 ...
ROW 48 : ... .. 1 ... ... ... : ... .. 2 ... ... ... : D#2 00 . P8E : ... .. 2 ... : ... .. . ... ... : ... .. . ... ... : ... .. . ... ... : E-1 01 8 P97 ...
ROW 49 : ... .. . ... ... ... : ... .. . ... ... ... : ... .. . P6E : ... .. 0 ... : ... .. . ... ... : ... .. 6 ... ... : ... .. 6 ... ... : ... .. . P77 ...
ROW 4A : ... .. C ... ... ... : A#3 00 F ... ... ... : D-2 00 . P79 : 5-# 00 8 ... : ... .. . ... ... : B-2 01 A ... ... : D#3 01 A ... ... : ... .. . P57 ...
ROW 4B : ... .. B ... ... ... : ... .. E ... ... ... : C#2 00 . P86 : ... .. 6 ... : ... .. . ... ... : ... .. 9 ... ... : ... .. 9 ... ... : D#1 01 8 P94 ...
ROW 4C : ... .. A ... ... ... : ... .. D ... ... ... : C-2 00 . P96 : ... .. 3 ... : ... .. . ... ... : ... .. 8 ... ... : ... .. 8 ... ... : ... .. . P74 ...
ROW 4D : ... .. 8 ... ... ... : ... .. A ... ... ... : ... .. . P76 : ... .. 1 ... : ... .. . ... ... : ... .. 7 ... ... : ... .. 7 ... ... : ... .. . P54 ...
ROW 4E : ... .. 1 ... ... ... : ... .. 2 ... ... ... : B-1 00 . P89 : ... .. . ... : ... .. . ... ... : ... .. . ... ... : ... .. . ... ... : D-1 01 8 P95 ...
ROW 4F : ... .. . ... ... ... : ... .. . ... ... ... : ... .. . P69 : ... .. 0 ... : ... .. . ... ... : ... .. 6 ... ... : ... .. 6 ... ... : ... .. . P75 ...
ROW 50 : B-3 00 F ... V02 ... : E-2 00 B ... ... ... : D#4 00 . P80 : 1-# 00 F ... : ... .. . ... ... : B-3 01 6 ... ... : G#3 01 6 ... ... : E-4 01 A P80 ...
ROW 51 : ... .. E ... ... ... : ... .. F ... ... ... : F-3 00 . ... : ... .. C ... : ... .. . ... ... : ... .. . ... ... : ... .. . ... ... : ... .. 8 ... ...
ROW 52 : ... .. D ... ... ... : ... .. B ... ... ... : A#2 00 . ... : ... .. 6 ... : ... .. . ... ... : ... .. 5 ... ... : ... .. 5 ... ... : ... .. 5 ... ...
ROW 53 : ... .. A ... ... ... : ... .. 0 ... ... ... : A-2 00 . ... : ... .. 3 ... : ... .. . ... ... : ... .. 4 ... ... : ... .. 4 ... ... : ... .. . ... ...
ROW 54 : ... .. . ... ... ... : E-2 00 8 P80 ... ... : E-2 00 . ... : ... .. 2 ... : ... .. . ... ... : ... .. . ... ... : ... .. . ... ... : ... .. . ... ...
ROW 55 : ... .. . ... ... ... : ... .. C ... ... ... : ... .. . ... : ... .. 0 ... : ... .. . ... ... : ... .. . ... ... : ... .. . ... ... : ... .. . ... ...
ROW 56 : ... .. . ... ... ... : B-1 00 B ... ... ... : ... .. . ... : C-# 00 8 ... : ... .. . ... ... : ... .. . ... ... : ... .. . ... ... : ... .. . ... ...
ROW 57 : ... .. . ... ... ... : ... .. F ... ... ... : ... .. . ... : ... .. 6 ... : ... .. . ... ... : ... .. 3 ... ... : ... .. 3 ... ... : ... .. . ... ...
ROW 58 : ... .. . ... ... ... : ... .. B ... ... ... : ... .. . ... : ... .. 3 ... : ... .. . ... ... : ... .. . ... ... : ... .. . ... ... : ... .. . ... ...
ROW 59 : ... .. . ... ... ... : ... .. 0 ... ... ... : ... .. . ... : ... .. 1 ... : ... .. . ... ... : ... .. . ... ... : ... .. . ... ... : ... .. . ... ...
ROW 5A : ... .. . ... ... ... : B-1 00 8 P80 ... ... : ... .. . ... : ... .. . ... : ... .. . ... ... : ... .. . ... ... : ... .. . ... ... : ... .. . ... ...
ROW 5B : ... .. . ... ... ... : ... .. C ... ... ... : ... .. . ... : ... .. 0 ... : ... .. . ... ... : ... .. . ... ... : ... .. . ... ... : ... .. . ... ...
ROW 5C : ... .. . ... ... ... : G#2 00 B ... ... ... : F-2 00 . P7A : ... .. 8 ... : ... .. . ... ... : ... .. . ... ... : ... .. . ... ... : ... .. . ... ...
ROW 5D : ... .. . ... ... ... : ... .. F ... ... ... : F#2 00 . P76 : ... .. 6 ... : ... .. . ... ... : ... .. . ... ... : ... .. . ... ... : ... .. . ... ...
ROW 5E : ... .. . ... ... ... : ... .. B ... ... ... : G-2 00 . P74 : ... .. 3 ... : ... .. . ... ... : ... .. . ... ... : ... .. . ... ... : ... .. . ... ...
ROW 5F : ... .. . ... ... ... : ... .. 0 ... ... ... : G#2 00 . ... : ... .. 1 ... : ... .. . ... ... : ... .. . ... ... : ... .. . ... ... : ... .. . ... ...
ROW 60 : ... .. . ... ... ... : G#2 00 8 P80 ... ... : A-2 00 . P75 : ... .. . ... : ... .. . ... ... : ... .. . ... ... : ... .. . ... ... : ... .. . ... ...
ROW 61 : ... .. . ... ... ... : ... .. C ... ... ... : A#2 00 . P79 : ... .. 0 ... : ... .. . ... ... : ... .. . ... ... : ... .. . ... ... : ... .. . ... ...
ROW 62 : ... .. . P84 ... ... : B-2 00 B ... ... ... : G-5 00 . P80 : 1-# 00 F ... : ... .. . ... ... : C#4 01 6 ... ... : A#3 01 6 ... ... : F#4 01 A ... ...
ROW 63 : ... .. . P86 ... ... : ... .. F ... ... ... : A-4 00 . ... : ... .. C ... : ... .. . ... ... : ... .. . ... ... : ... .. . ... ... : ... .. 8 ... ...
ROW 64 : ... .. . P85 ... ... : ... .. B ... ... ... : D-4 00 . ... : ... .. 6 ... : ... .. . ... ... : ... .. 5 ... ... : ... .. 5 ... ... : ... .. 5 ... ...
ROW 65 : ... .. . P82 ... ... : ... .. 0 ... ... ... : C#4 00 . ... : ... .. 3 ... : ... .. . ... ... : ... .. 4 ... ... : ... .. 4 ... ... : ... .. . ... ...
ROW 66 : ... .. . P7E ... ... : B-2 00 8 P80 ... ... : G#3 00 . ... : ... .. 2 ... : ... .. . ... ... : ... .. . ... ... : ... .. . ... ... : ... .. . ... ...
ROW 67 : ... .. . P7B ... ... : ... .. C ... ... ... : --- .. . ... : ... .. 0 ... : ... .. . ... ... : ... .. . ... ... : ... .. . ... ... : ... .. . ... ...
ROW 68 : ... .. . P7A ... ... : E-2 00 B ... ... ... : F#3 00 . ... : C-# 00 8 ... : ... .. . ... ... : ... .. . ... ... : ... .. . ... ... : ... .. . ... ...
ROW 69 : ... .. . P7C ... ... : ... .. F ... ... ... : ... .. . ... : ... .. 6 ... : ... .. . ... ... : ... .. 3 ... ... : ... .. 3 ... ... : ... .. . ... ...
ROW 6A : ... .. . P80 ... ... : ... .. B ... ... ... : ... .. . ... : ... .. 3 ... : ... .. . ... ... : ... .. . ... ... : ... .. . ... ... : ... .. . ... ...
ROW 6B : ... .. . P83 ... ... : ... .. 0 ... ... ... : ... .. . ... : ... .. 1 ... : ... .. . ... ... : ... .. . ... ... : ... .. . ... ... : ... .. . ... ...
ROW 6C : ... .. . P86 ... ... : E-2 00 8 P80 ... ... : ... .. . ... : ... .. . ... : ... .. . ... ... : ... .. . ... ... : ... .. . ... ... : ... .. . ... ...
ROW 6D : ... .. . ... ... ... : ... .. C ... ... ... : --- .. . ... : ... .. 0 ... : ... .. . ... ... : ... .. . ... ... : ... .. . ... ... : ... .. . ... ...
ROW 6E : ... .. . P82 ... ... : E-3 00 B ... ... ... : G#3 00 . ... : ... .. 8 ... : ... .. . ... ... : ... .. . ... ... : ... .. . ... ... : ... .. . ... ...
ROW 6F : ... .. . P7F ... ... : ... .. F ... ... ... : ... .. . ... : ... .. 6 ... : ... .. . ... ... : ... .. . ... ... : ... .. . ... ... : ... .. . ... ...
ROW 70 : ... .. . P7B ... ... : ... .. B ... ... ... : ... .. . ... : ... .. 3 ... : ... .. . ... ... : ... .. . ... ... : ... .. . ... ... : ... .. . ... ...
ROW 71 : ... .. . P7A ... ... : ... .. 0 ... ... ... : --- .. . ... : ... .. 1 ... : ... .. . ... ... : ... .. . ... ... : ... .. . ... ... : ... .. . ... ...
ROW 72 : ... .. . P7C ... ... : E-3 00 8 P80 ... ... : ... .. . ... : ... .. . ... : ... .. . ... ... : ... .. . ... ... : ... .. . ... ... : ... .. . ... ...
ROW 73 : ... .. . P80 ... ... : ... .. C ... ... ... : ... .. . ... : ... .. 0 ... : ... .. . ... ... : ... .. . ... ... : ... .. . ... ... : ... .. . ... ...
ROW 74 : C#4 00 F ... ... ... : G#3 00 B ... ... ... : D#6 00 . ... : 7-# 00 F ... : ... .. . ... ... : A#3 01 6 ... ... : F#3 01 6 ... ... : D#4 01 A ... ...
ROW 75 : ... .. E ... ... ... : ... .. F ... ... ... : F-5 00 . ... : ... .. C ... : ... .. . ... ... : ... .. . ... ... : ... .. . ... ... : ... .. 8 ... ...
ROW 76 : ... .. D ... ... ... : ... .. B ... ... ... : A#4 00 . ... : ... .. 6 ... : ... .. . ... ... : ... .. 5 ... ... : ... .. 5 ... ... : ... .. 5 ... ...
ROW 77 : ... .. A ... ... ... : ... .. 0 ... ... ... : A-4 00 . ... : ... .. 3 ... : ... .. . ... ... : ... .. 4 ... ... : ... .. 4 ... ... : ... .. . ... ...
ROW 78 : ... .. . ... ... ... : G#3 00 8 P80 ... ... : E-4 00 . ... : ... .. 2 ... : ... .. . ... ... : ... .. . ... ... : ... .. . ... ... : ... .. . ... ...
ROW 79 : ... .. . ... ... ... : ... .. C ... ... ... : ... .. . ... : ... .. 0 ... : ... .. . ... ... : ... .. . ... ... : ... .. . ... ... : ... .. . ... ...
ROW 7A : ... .. . ... ... ... : B-2 00 B ... ... ... : ... .. . ... : 1-# 00 8 ... : ... .. . ... ... : ... .. . ... ... : ... .. . ... ... : ... .. . ... ...
ROW 7B : ... .. . ... ... ... : ... .. F ... ... ... : ... .. . ... : ... .. 6 ... : ... .. . ... ... : ... .. 3 ... ... : ... .. 3 ... ... : ... .. . ... ...
ROW 7C : ... .. . ... ... ... : ... .. B ... ... ... : ... .. . ... : ... .. 3 ... : ... .. . ... ... : ... .. . ... ... : ... .. . ... ... : ... .. . ... ...
ROW 7D : ... .. . ... ... ... : ... .. 0 ... ... ... : ... .. . ... : ... .. 1 ... : ... .. . ... ... : ... .. . ... ... : ... .. . ... ... : ... .. . ... ...
ROW 7E : ... .. . ... ... ... : B-2 00 8 P80 ... ... : ... .. . ... : ... .. . ... : ... .. . ... ... : ... .. . ... ... : ... .. . ... ... : ... .. . ... ...
ROW 7F : ... .. . ... ... ... : ... .. C ... ... ... : ... .. . ... : ... .. 0 ... : ... .. . ... ... : ... .. . ... ... : ... .. . ... ... : ... .. . ... ...
ROW 80 : B-3 00 F ... ... ... : E-3 00 B ... ... ... : D#4 00 . ... : 7-# 00 F ... : ... .. . ... ... : ... .. . ... ... : ... .. . ... ... : ... .. . ... ...
ROW 81 : ... .. E ... ... ... : ... .. F ... ... ... : ... .. . ... : ... .. C ... : ... .. . ... ... : ... .. . ... ... : ... .. . ... ... : ... .. . ... ...
ROW 82 : ... .. D ... ... ... : ... .. B ... ... ... : ... .. . ... : ... .. 6 ... : ... .. . ... ... : ... .. . ... ... : ... .. . ... ... : ... .. . ... ...
ROW 83 : ... .. A ... ... ... : ... .. 0 ... ... ... : ... .. . ... : ... .. 3 ... : ... .. . ... ... : ... .. . ... ... : ... .. . ... ... : ... .. . ... ...
ROW 84 : ... .. . ... ... ... : E-3 00 8 P80 ... ... : ... .. . ... : ... .. 2 ... : ... .. . ... ... : ... .. . ... ... : ... .. . ... ... : ... .. . ... ...
ROW 85 : ... .. . ... ... ... : ... .. C ... ... ... : ... .. . ... : ... .. 0 ... : ... .. . ... ... : ... .. . ... ... : ... .. . ... ... : ... .. . ... ...
ROW 86 : ... .. . ... ... ... : G#3 00 B ... ... ... : ... .. . ... : 1-# 00 8 ... : ... .. . ... ... : B-3 01 6 ... ... : G#3 01 6 ... ... : E-4 01 A ... ...
ROW 87 : ... .. . ... ... ... : ... .. F ... ... ... : ... .. . ... : ... .. 6 ... : ... .. . ... ... : ... .. . ... ... : ... .. . ... ... : ... .. 8 ... ...
ROW 88 : ... .. . ... ... ... : ... .. B ... ... ... : ... .. . ... : ... .. 3 ... : ... .. . ... ... : ... .. 5 ... ... : ... .. 5 ... ... : ... .. 5 ... ...
ROW 89 : ... .. . ... ... ... : ... .. 0 ... ... ... : ... .. . ... : ... .. 1 ... : ... .. . ... ... : ... .. 4 ... ... : ... .. 4 ... ... : ... .. . ... ...
ROW 8A : ... .. . ... ... ... : G#3 00 8 P80 ... ... : ... .. . ... : ... .. . ... : ... .. . ... ... : ... .. . ... ... : ... .. . ... ... : ... .. . ... ...
ROW 8B : ... .. . ... ... ... : ... .. C ... ... ... : --- .. . ... : ... .. 0 ... : ... .. . ... ... : ... .. . ... ... : ... .. . ... ... : ... .. . ... ...
ROW 8C : A#3 00 F ... ... ... : E-3 00 B ... ... ... : G#3 00 . ... : 7-# 00 F ... : ... .. . ... ... : ... .. . ... ... : ... .. . ... ... : ... .. . ... ...
ROW 8D : ... .. E ... ... ... : ... .. F ... ... ... : ... .. . ... : ... .. C ... : ... .. . ... ... : ... .. 3 ... ... : ... .. 3 ... ... : ... .. . ... ...
ROW 8E : ... .. D ... ... ... : ... .. B ... ... ... : ... .. . ... : ... .. 6 ... : ... .. . ... ... : ... .. . ... ... : ... .. . ... ... : ... .. . ... ...
ROW 8F : ... .. A ... ... ... : ... .. 0 ... ... ... : ... .. . ... : ... .. 3 ... : ... .. . ... ... : ... .. . ... ... : ... .. . ... ... : ... .. . ... ...
ROW 90 : ... .. . ... ... ... : E-3 00 8 P80 ... ... : ... .. . ... : ... .. 2 ... : ... .. . ... ... : ... .. . ... ... : ... .. . ... ... : ... .. . ... ...
ROW 91 : ... .. . ... ... ... : ... .. C ... ... ... : ... .. . ... : ... .. 0 ... : ... .. . ... ... : ... .. . ... ... : ... .. . ... ... : ... .. . ... ...
ROW 92 : ... .. . ... ... ... : G#3 00 B ... ... ... : ... .. . ... : 1-# 00 8 ... : ... .. . ... ... : ... .. . ... ... : ... .. . ... ... : ... .. . ... ...
ROW 93 : ... .. . ... ... ... : ... .. F ... ... ... : ... .. . ... : ... .. 6 ... : ... .. . ... ... : ... .. . ... ... : ... .. . ... ... : ... .. . ... ...
ROW 94 : ... .. . ... ... ... : ... .. B ... ... ... : ... .. . ... : ... .. 3 ... : ... .. . ... ... : ... .. . ... ... : ... .. . ... ... : ... .. . ... ...
ROW 95 : ... .. . ... ... ... : ... .. 0 ... ... ... : ... .. . ... : ... .. 1 ... : ... .. . ... ... : ... .. . ... ... : ... .. . ... ... : ... .. . ... ...
ROW 96 : ... .. . ... ... ... : G#3 00 8 P80 ... ... : ... .. . ... : ... .. . ... : ... .. . ... ... : ... .. . ... ... : ... .. . ... ... : ... .. . ... ...
ROW 97 : ... .. . ... ... ... : ... .. C ... ... ... : --- .. . ... : ... .. 0 ... : ... .. . ... ... : ... .. . ... ... : ... .. . ... ... : ... .. . ... ...
ROW 98 : G#3 00 F ... ... ... : C#4 00 B ... ... ... : C-4 00 . ... : ... .. F ... : ... .. . ... ... : G#3 01 6 ... ... : E-3 01 6 ... ... : C#4 01 A ... ...
ROW 99 : ... .. E ... ... ... : ... .. F ... ... ... : D-3 00 . ... : ... .. C ... : ... .. . ... ... : ... .. . ... ... : ... .. . ... ... : ... .. 8 ... ...
ROW 9A : ... .. D ... ... ... : ... .. B ... ... ... : G-2 00 . ... : ... .. 6 ... : ... .. . ... ... : ... .. 5 ... ... : ... .. 5 ... ... : ... .. 5 ... ...
ROW 9B : ... .. A ... ... ... : ... .. 0 ... ... ... : F#2 00 . ... : ... .. 3 ... : ... .. . ... ... : ... .. 4 ... ... : ... .. 4 ... ... : ... .. . ... ...
ROW 9C : ... .. . ... ... ... : C#4 00 8 P80 ... ... : C#2 00 . ... : ... .. 2 ... : ... .. . ... ... : ... .. . ... ... : ... .. . ... ... : ... .. . ... ...
ROW 9D : ... .. . ... ... ... : ... .. C ... ... ... : ... .. . ... : ... .. 0 ... : ... .. . ... ... : ... .. . ... ... : ... .. . ... ... : ... .. . ... ...
ROW 9E : ... .. . ... ... ... : E-3 00 B ... ... ... : ... .. . ... : C-# 00 8 ... : ... .. . ... ... : ... .. . ... ... : ... .. . ... ... : ... .. . ... ...
ROW 9F : ... .. . ... ... ... : ... .. F ... ... ... : ... .. . ... : ... .. 6 ... : ... .. . ... ... : ... .. 3 ... ... : ... .. 3 ... ... : ... .. . ... ...
ROW A0 : ... .. . ... ... ... : ... .. B ... ... ... : ... .. . ... : ... .. 3 ... : ... .. . ... ... : ... .. . ... ... : ... .. . ... ... : ... .. . ... ...
ROW A1 : ... .. . ... ... ... : ... .. 0 ... ... ... : ... .. . ... : ... .. 1 ... : ... .. . ... ... : ... .. . ... ... : ... .. . ... ... : ... .. . ... ...
ROW A2 : ... .. . ... ... ... : E-3 00 8 P80 ... ... : ... .. . ... : ... .. . ... : ... .. . ... ... : ... .. . ... ... : ... .. . ... ... : ... .. . ... ...
ROW A3 : ... .. . ... ... ... : ... .. C ... ... ... : ... .. . ... : ... .. 0 ... : ... .. . ... ... : ... .. . ... ... : ... .. . ... ... : ... .. . ... ...
ROW A4 : ... .. . ... ... ... : G#3 00 B ... ... ... : ... .. . ... : ... .. 8 ... : ... .. . ... ... : ... .. . ... ... : ... .. . ... ... : ... .. . ... ...
ROW A5 : ... .. . ... ... ... : ... .. F ... ... ... : ... .. . ... : ... .. 6 ... : ... .. . ... ... : ... .. . ... ... : ... .. . ... ... : ... .. . ... ...
ROW A6 : ... .. . ... ... ... : ... .. B ... ... ... : ... .. . ... : ... .. 3 ... : ... .. . ... ... : ... .. . ... ... : ... .. . ... ... : ... .. . ... ...
ROW A7 : ... .. . ... ... ... : ... .. 0 ... ... ... : ... .. . ... : ... .. 1 ... : ... .. . ... ... : ... .. . ... ... : ... .. . ... ... : ... .. . ... ...
ROW A8 : ... .. . ... ... ... : G#3 00 8 P80 ... ... : ... .. . ... : ... .. . ... : ... .. . ... ... : ... .. . ... ... : ... .. . ... ... : ... .. . ... ...
ROW A9 : ... .. . ... ... ... : ... .. C ... ... ... : ... .. . ... : ... .. 0 ... : ... .. . ... ... : ... .. . ... ... : ... .. . ... ... : ... .. . ... ...
ROW AA : G#2 00 F ... ... ... : C#4 00 B ... ... ... : C-5 00 . ... : 1-# 00 F ... : ... .. . ... ... : B-2 01 6 ... ... : G#2 01 6 ... ... : C#2 01 A ... ...
ROW AB : ... .. E ... ... ... : ... .. F ... ... ... : D-4 00 . ... : ... .. C ... : ... .. . ... ... : ... .. . ... ... : ... .. . ... ... : ... .. 8 ... ...
ROW AC : ... .. D ... ... ... : ... .. B ... ... ... : G-3 00 . ... : ... .. 6 ... : ... .. . ... ... : ... .. 5 ... ... : ... .. 5 ... ... : ... .. 5 ... ...
ROW AD : ... .. A ... ... ... : ... .. 0 ... ... ... : F#3 00 . ... : ... .. 3 ... : ... .. . ... ... : ... .. 4 ... ... : ... .. 4 ... ... : ... .. . ... ...
ROW AE : ... .. . ... ... ... : C#4 00 8 P80 ... ... : C#3 00 . ... : ... .. 2 ... : ... .. . ... ... : ... .. . ... ... : ... .. . ... ... : ... .. . ... ...
ROW AF : ... .. . ... ... ... : ... .. C ... ... ... : --- .. . ... : ... .. 0 ... : ... .. . ... ... : ... .. . ... ... : ... .. . ... ... : ... .. . ... ...
ROW B0 : ... .. . ... ... ... : G#3 00 B ... ... ... : D#3 00 . ... : C-# 00 8 ... : ... .. . ... ... : ... .. . ... ... : ... .. . ... ... : E-2 01 A ... ...
ROW B1 : ... .. . ... ... ... : ... .. F ... ... ... : ... .. . ... : ... .. 6 ... : ... .. . ... ... : ... .. 3 ... ... : ... .. 3 ... ... : ... .. 8 ... ...
ROW B2 : ... .. . ... ... ... : ... .. B ... ... ... : ... .. . ... : ... .. 3 ... : ... .. . ... ... : ... .. . ... ... : ... .. . ... ... : ... .. 5 ... ...
ROW B3 : ... .. . ... ... ... : ... .. 0 ... ... ... : ... .. . ... : ... .. 1 ... : ... .. . ... ... : ... .. . ... ... : ... .. . ... ... : ... .. . ... ...
ROW B4 : ... .. . ... ... ... : G#3 00 8 P80 ... ... : ... .. . ... : ... .. . ... : ... .. . ... ... : ... .. . ... ... : ... .. . ... ... : ... .. . ... ...
ROW B5 : ... .. . ... ... ... : ... .. C ... ... ... : --- .. . ... : ... .. 0 ... : ... .. . ... ... : ... .. . ... ... : ... .. . ... ... : ... .. . ... ...
ROW B6 : ... .. . ... ... ... : E-3 00 B ... ... ... : E-3 00 . ... : ... .. 8 ... : ... .. . ... ... : ... .. . ... ... : ... .. . ... ... : G#2 01 A ... ...
ROW B7 : ... .. . ... ... ... : ... .. F ... ... ... : ... .. . ... : ... .. 6 ... : ... .. . ... ... : ... .. . ... ... : ... .. . ... ... : ... .. 8 ... ...
ROW B8 : ... .. . ... ... ... : ... .. B ... ... ... : ... .. . ... : ... .. 3 ... : ... .. . ... ... : ... .. . ... ... : ... .. . ... ... : ... .. 5 ... ...
ROW B9 : ... .. . ... ... ... : ... .. 0 ... ... ... : ... .. . ... : ... .. 1 ... : ... .. . ... ... : ... .. . ... ... : ... .. . ... ... : ... .. . ... ...
ROW BA : ... .. . ... ... ... : E-3 00 8 P80 ... ... : ... .. . ... : ... .. . ... : ... .. . ... ... : ... .. . ... ... : ... .. . ... ... : ... .. . ... ...
ROW BB : ... .. . ... ... ... : ... .. C ... ... ... : --- .. . ... : ... .. 0 ... : ... .. . ... ... : ... .. . ... ... : ... .. . ... ... : ... .. . ... ...
ROW BC : F#2 00 F ... ... ... : G#3 00 B ... ... ... : E-3 00 . ... : 7-# 00 F ... : ... .. . ... ... : A#2 01 6 ... ... : B-2 01 6 ... ... : C#3 01 A ... ...
ROW BD : ... .. E ... ... ... : ... .. F ... ... ... : ... .. . ... : ... .. C ... : ... .. . ... ... : ... .. . ... ... : ... .. . ... ... : ... .. 8 ... ...
ROW BE : ... .. D ... ... ... : ... .. B ... ... ... : ... .. . ... : ... .. 6 ... : ... .. . ... ... : ... .. 5 ... ... : ... .. 5 ... ... : ... .. 5 ... ...
ROW BF : ... .. A ... ... ... : ... .. 0 ... ... ... : ... .. . ... : ... .. 3 ... : ... .. . ... ... : ... .. 4 ... ... : ... .. 4 ... ... : ... .. . ... ...
ROW C0 : ... .. . ... ... ... : G#3 00 8 P80 ... ... : ... .. . ... : ... .. 2 ... : ... .. . ... ... : ... .. . ... ... : ... .. . ... ... : ... .. . ... ...
ROW C1 : ... .. . ... ... ... : ... .. C ... ... ... : --- .. . ... : ... .. 0 ... : ... .. . ... ... : ... .. . ... ... : ... .. . ... ... : ... .. . ... ...
ROW C2 : ... .. . ... ... ... : G#2 00 B ... ... ... : D#3 00 . ... : ... .. 8 ... : ... .. . ... ... : ... .. . ... ... : ... .. . ... ... : E-3 01 A ... ...
ROW C3 : ... .. . ... ... ... : ... .. F ... ... ... : ... .. . ... : ... .. 6 ... : ... .. . ... ... : ... .. 3 ... ... : ... .. 3 ... ... : ... .. 8 ... ...
ROW C4 : ... .. . ... ... ... : ... .. B ... ... ... : ... .. . ... : ... .. 3 ... : ... .. . ... ... : ... .. . ... ... : ... .. . ... ... : ... .. 5 ... ...
ROW C5 : ... .. . ... ... ... : ... .. 0 ... ... ... : ... .. . ... : ... .. 1 ... : ... .. . ... ... : ... .. . ... ... : ... .. . ... ... : ... .. . ... ...
ROW C6 : ... .. . ... ... ... : G#2 00 8 P80 ... ... : ... .. . ... : ... .. . ... : ... .. . ... ... : ... .. . ... ... : ... .. . ... ... : ... .. . ... ...
ROW C7 : ... .. . ... ... ... : ... .. C ... ... ... : --- .. . ... : ... .. 0 ... : ... .. . ... ... : ... .. . ... ... : ... .. . ... ... : ... .. . ... ...
ROW C8 : ... .. . ... ... ... : C#3 00 B ... ... ... : C#3 00 . ... : 4-# 00 F ... : ... .. . ... ... : ... .. . ... ... : ... .. . ... ... : G#3 01 A ... ...
ROW C9 : ... .. . ... ... ... : ... .. F ... ... ... : ... .. . ... : ... .. C ... : ... .. . ... ... : ... .. . ... ... : ... .. . ... ... : ... .. 8 ... ...
ROW CA : ... .. . ... ... ... : ... .. B ... ... ... : ... .. . ... : ... .. 6 ... : ... .. . ... ... : ... .. . ... ... : ... .. . ... ... : ... .. 5 ... ...
ROW CB : ... .. . ... ... ... : ... .. 0 ... ... ... : ... .. . ... : ... .. 3 ... : ... .. . ... ... : ... .. . ... ... : ... .. . ... ... : ... .. . ... ...
ROW CC : ... .. . ... ... ... : C#3 00 8 P80 ... ... : ... .. . ... : ... .. 2 ... : ... .. . ... ... : ... .. . ... ... : ... .. . ... ... : ... .. . ... ...
ROW CD : ... .. . ... ... ... : ... .. C ... ... ... : --- .. . ... : ... .. 0 ... : ... .. . ... ... : ... .. . ... ... : ... .. . ... ... : ... .. . ... ...
ROW CE : G#2 00 F ... ... ... : E-3 00 B ... ... ... : G#3 00 . ... : 9-# 00 8 ... : ... .. . ... ... : B-2 01 6 ... ... : E-3 01 6 ... ... : C#4 01 A ... ...
ROW CF : ... .. E ... ... ... : ... .. F ... ... ... : ... .. . ... : ... .. 6 ... : ... .. . ... ... : ... .. . ... ... : ... .. . ... ... : ... .. 8 ... ...
ROW D0 : ... .. D ... ... ... : ... .. B ... ... ... : ... .. . ... : ... .. 3 ... : ... .. . ... ... : ... .. 5 ... ... : ... .. 5 ... ... : ... .. 5 ... ...
ROW D1 : ... .. A ... ... ... : ... .. 0 ... ... ... : ... .. . ... : ... .. 1 ... : ... .. . ... ... : ... .. 4 ... ... : ... .. 4 ... ... : ... .. . ... ...
ROW D2 : ... .. . ... ... ... : E-3 00 8 P80 ... ... : ... .. . ... : ... .. . ... : ... .. . ... ... : ... .. . ... ... : ... .. . ... ... : ... .. . ... ...
ROW D3 : ... .. . ... ... ... : ... .. C ... ... ... : --- .. . ... : ... .. 0 ... : ... .. . ... ... : ... .. . ... ... : ... .. . ... ... : ... .. . ... ...
ROW D4 : ... .. . ... ... ... : C#3 00 B ... ... ... : E-3 00 . ... : 7-# 00 F ... : ... .. . ... ... : ... .. . ... ... : ... .. . ... ... : E-4 01 A ... ...
ROW D5 : ... .. . ... ... ... : ... .. F ... ... ... : ... .. . ... : ... .. C ... : ... .. . ... ... : ... .. 3 ... ... : ... .. 3 ... ... : ... .. 8 ... ...
ROW D6 : ... .. . ... ... ... : ... .. B ... ... ... : ... .. . ... : ... .. 6 ... : ... .. . ... ... : ... .. . ... ... : ... .. . ... ... : ... .. 5 ... ...
ROW D7 : ... .. . ... ... ... : ... .. 0 ... ... ... : ... .. . ... : ... .. 3 ... : ... .. . ... ... : ... .. . ... ... : ... .. . ... ... : ... .. . ... ...
ROW D8 : ... .. . ... ... ... : C#3 00 8 P80 ... ... : ... .. . ... : ... .. 2 ... : ... .. . ... ... : ... .. . ... ... : ... .. . ... ... : ... .. . ... ...
ROW D9 : ... .. . ... ... ... : ... .. C ... ... ... : --- .. . ... : ... .. 0 ... : ... .. . ... ... : ... .. . ... ... : ... .. . ... ... : ... .. . ... ...
ROW DA : ... .. . ... ... ... : G#2 00 B ... ... ... : C#3 00 . ... : 5-# 00 8 ... : ... .. . ... ... : ... .. . ... ... : ... .. . ... ... : G#4 01 A ... ...
ROW DB : ... .. . ... ... ... : ... .. F ... ... ... : ... .. . ... : ... .. 6 ... : ... .. . ... ... : ... .. . ... ... : ... .. . ... ... : ... .. 8 ... ...
ROW DC : ... .. . ... ... ... : ... .. B ... ... ... : ... .. . ... : ... .. 3 ... : ... .. . ... ... : ... .. . ... ... : ... .. . ... ... : ... .. 5 ... ...
ROW DD : ... .. . ... ... ... : ... .. 0 ... ... ... : ... .. . ... : ... .. 1 ... : ... .. . ... ... : ... .. . ... ... : ... .. . ... ... : ... .. . ... ...
ROW DE : ... .. . ... ... ... : G#2 00 8 P80 ... ... : ... .. . ... : ... .. . ... : ... .. . ... ... : ... .. . ... ... : ... .. . ... ... : ... .. . ... ...
ROW DF : ... .. . ... ... ... : ... .. C ... ... ... : --- .. . ... : ... .. 0 ... : ... .. . ... ... : ... .. . ... ... : ... .. . ... ... : ... .. . ... ...
ROW E0 : C#5 00 F ... ... ... : A#3 00 F ... ... ... : F-4 00 . ... : 1-# 00 F ... : ... .. . ... ... : F#3 01 A ... ... : D#3 01 A ... ... : A#4 01 F ... ...
ROW E1 : ... .. E ... ... ... : ... .. E ... ... ... : G-3 00 . ... : ... .. C ... : ... .. . ... ... : ... .. 9 ... ... : ... .. 9 ... ... : ... .. D ... ...
ROW E2 : ... .. D ... ... ... : ... .. D ... ... ... : C-3 00 . ... : ... .. 6 ... : ... .. . ... ... : ... .. 8 ... ... : ... .. 8 ... ... : ... .. 8 ... ...
ROW E3 : ... .. A ... ... ... : ... .. A ... ... ... : B-2 00 . ... : ... .. 3 ... : ... .. . ... ... : ... .. 7 ... ... : ... .. 7 ... ... : ... .. . ... ...
ROW E4 : ... .. . ... ... ... : ... .. . ... ... ... : F#2 00 . ... : ... .. 2 ... : ... .. . ... ... : ... .. . ... ... : ... .. . ... ... : ... .. . ... ...
ROW E5 : ... .. . ... ... ... : ... .. . ... ... ... : ... .. . ... : ... .. 0 ... : ... .. . ... ... : ... .. 6 ... ... : ... .. 6 ... ... : ... .. . ... ...
ROW E6 : ... .. . ... ... ... : ... .. . ... ... ... : ... .. . ... : C-# 00 8 ... : ... .. . ... ... : ... .. 5 ... ... : ... .. 5 ... ... : ... .. . ... ...
ROW E7 : ... .. 2 ... ... ... : ... .. 2 ... ... ... : ... .. . ... : ... .. 6 ... : ... .. . ... ... : ... .. . ... ... : ... .. . ... ... : ... .. 4 ... ...
ROW E8 : ... .. . ... ... ... : ... .. . ... ... ... : ... .. . ... : ... .. 3 ... : ... .. . ... ... : ... .. 3 ... ... : ... .. 3 ... ... : ... .. . ... ...
ROW E9 : ... .. . ... ... ... : ... .. . ... ... ... : F-2 00 . P84 : ... .. 1 ... : ... .. . ... ... : ... .. . ... ... : ... .. . ... ... : ... .. 1 ... ...
ROW EA : ... .. 1 ... ... ... : ... .. 1 ... ... ... : E-2 00 . P8A : ... .. . ... : ... .. . ... ... : ... .. . ... ... : ... .. . ... ... : ... .. . ... ...
ROW EB : ... .. . ... ... ... : ... .. . ... ... ... : D#2 00 . P92 : ... .. 0 ... : ... .. . ... ... : ... .. . ... ... : ... .. . ... ... : ... .. . ... ...
ROW EC : D#5 00 F ... ... ... : B-3 00 F ... ... ... : G-4 00 . P80 : ... .. 8 ... : ... .. . ... ... : G#3 01 A ... ... : ... .. A ... ... : B-4 01 F ... ...
ROW ED : ... .. E ... ... ... : ... .. E ... ... ... : A-3 00 . ... : ... .. 6 ... : ... .. . ... ... : ... .. 9 ... ... : ... .. 9 ... ... : ... .. D ... ...
ROW EE : ... .. D ... ... ... : ... .. D ... ... ... : D-3 00 . ... : ... .. 3 ... : ... .. . ... ... : ... .. 8 ... ... : ... .. 8 ... ... : ... .. 8 ... ...
ROW EF : ... .. A ... ... ... : ... .. A ... ... ... : C#3 00 . ... : ... .. 1 ... : ... .. . ... ... : ... .. 7 ... ... : ... .. 7 ... ... : ... .. . ... ...
ROW F0 : ... .. . ... ... ... : ... .. . ... ... ... : G#2 00 . ... : ... .. . ... : ... .. . ... ... : ... .. . ... ... : ... .. . ... ... : ... .. . ... ...
ROW F1 : ... .. . ... ... ... : ... .. . ... ... ... : ... .. . ... : ... .. 0 ... : ... .. . ... ... : ... .. 6 ... ... : ... .. 6 ... ... : ... .. . ... ...
ROW F2 : ... .. . ... ... ... : ... .. . ... ... ... : ... .. . ... : ... .. . ... : ... .. . ... ... : ... .. . ... ... : ... .. . ... ... : ... .. . ... ...
ROW F3 : ... .. . ... ... ... : ... .. . ... ... ... : ... .. . ... : ... .. . ... : ... .. . ... ... : ... .. 5 ... ... : ... .. 5 ... ... : ... .. . ... ...
ROW F4 : ... .. . ... ... ... : ... .. . ... ... ... : ... .. . ... : ... .. . ... : ... .. . ... ... : ... .. . ... ... : ... .. . ... ... : ... .. . ... ...
ROW F5 : ... .. . ... ... ... : ... .. . ... ... ... : ... .. . ... : ... .. . ... : ... .. . ... ... : ... .. . ... ... : ... .. . ... ... : ... .. . ... ...
ROW F6 : ... .. . ... ... ... : ... .. . ... ... ... : ... .. . ... : ... .. . ... : ... .. . ... ... : ... .. . ... ... : ... .. . ... ... : ... .. . ... ...
ROW F7 : ... .. . ... ... ... : ... .. . ... ... ... : ... .. . ... : ... .. . ... : ... .. . ... ... : ... .. . ... ... : ... .. . ... ... : ... .. . ... ...
ROW F8 : E-5 00 A P7F ... ... : C-4 00 A P7E ... ... : ... .. . ... : ... .. 8 ... : ... .. . ... ... : ... .. . ... ... : ... .. . ... ... : ... .. . ... ...
ROW F9 : ... .. . P81 ... ... : ... .. . P84 ... ... : ... .. . ... : ... .. 6 ... : ... .. . ... ... : ... .. . ... ... : ... .. . ... ... : ... .. . ... ...
ROW FA : ... .. . P80 ... ... : ... .. . P82 ... ... : ... .. . ... : ... .. 3 ... : ... .. . ... ... : ... .. . ... ... : ... .. . ... ... : ... .. . ... ...
ROW FB : D#5 00 A P82 ... ... : B-3 00 A P84 ... ... : A-2 00 . P71 : ... .. 1 ... : ... .. . ... ... : ... .. . ... ... : ... .. . ... ... : ... .. . ... ...
ROW FC : ... .. . P7E ... ... : ... .. . P7C ... ... : ... .. . P81 : ... .. . ... : ... .. . ... ... : ... .. . ... ... : ... .. . ... ... : ... .. . ... ...
ROW FD : D-5 00 A P80 ... ... : A#3 00 A P80 ... ... : A#2 00 . P75 : ... .. 0 ... : ... .. . ... ... : ... .. . ... ... : ... .. . ... ... : ... .. . ... ...
ROW FE : ... .. . P7F ... ... : ... .. . P7E ... ... : ... .. . P85 : ... .. 8 ... : ... .. . ... ... : ... .. . ... ... : ... .. . ... ... : ... .. . ... ...
ROW FF : ... .. 2 P81 ... ... : ... .. 2 P84 ... ... : B-2 00 . P7A : ... .. 6 ... : ... .. . ... ... : ... .. . ... ... : ... .. . ... ... : ... .. 4 ... ...

PATTERN 08
ROW 00 : D#5 00 2 P80 ... ... : B-3 00 2 P80 ... ... : ... .. . P8A : ... .. 3 ... : ... .. . ... ... : ... .. 3 ... ... : ... .. 3 ... ... : ... .. . ... ...
ROW 01 : E-5 00 2 P7E ... ... : C-4 00 2 P7D ... ... : C-3 00 . P81 : ... .. 1 ... : ... .. . ... ... : ... .. . ... ... : ... .. . ... ... : ... .. 1 ... ...
ROW 02 : ... .. 1 P81 ... ... : ... .. 1 P84 ... ... : C#3 00 . P79 : ... .. . ... : ... .. . ... ... : ... .. . ... ... : ... .. . ... ... : ... .. . ... ...
ROW 03 : ... .. . ... ... ... : ... .. . P82 ... ... : ... .. . P89 : ... .. 0 ... : ... .. . ... ... : ... .. . ... ... : ... .. . ... ... : ... .. . ... ...
ROW 04 : G#1 00 F P80 ... ... : D#2 00 B P80 ... ... : G-5 00 . P80 : 8-# 00 D ... : ... .. . ... ... : G#1 01 A ... ... : G#0 01 A ... ... : G#0 01 F ... ...
ROW 05 : ... .. E ... ... ... : ... .. F ... ... ... : A-4 00 . ... : ... .. . ... : ... .. . ... ... : ... .. 9 ... ... : ... .. 9 ... ... : ... .. D ... ...
ROW 06 : ... .. D ... ... ... : ... .. B ... ... ... : D-4 00 . ... : ... .. . ... : ... .. . ... ... : ... .. 8 ... ... : ... .. 8 ... ... : ... .. 8 ... ...
ROW 07 : ... .. A ... ... ... : ... .. 0 ... ... ... : C#4 00 . ... : B-# 00 D ... : ... .. . ... ... : ... .. 7 ... ... : ... .. 7 ... ... : ... .. . ... ...
ROW 08 : ... .. . ... ... ... : D#2 00 8 P80 ... ... : G#3 00 . ... : ... .. . ... : ... .. . ... ... : ... .. . ... ... : ... .. . ... ... : ... .. . ... ...
ROW 09 : ... .. . ... ... ... : ... .. C ... ... ... : --- .. . ... : ... .. . ... : ... .. . ... ... : ... .. 6 ... ... : ... .. 6 ... ... : ... .. . ... ...
ROW 0A : F#1 00 F ... ... ... : C#2 00 B ... ... ... : F#3 00 . ... : ... .. . ... : ... .. . ... ... : ... .. . ... ... : ... .. . ... ... : ... .. . ... ...
ROW 0B : ... .. E ... ... ... : ... .. F ... ... ... : ... .. . ... : ... .. . ... : ... .. . ... ... : ... .. 5 ... ... : ... .. 5 ... ... : ... .. . ... ...
ROW 0C : ... .. D ... ... ... : ... .. B ... ... ... : ... .. . ... : ... .. . ... : ... .. . ... ... : ... .. . ... ... : ... .. . ... ... : ... .. . ... ...
ROW 0D : ... .. A ... ... ... : ... .. 0 ... ... ... : ... .. . ... : ... .. A ... : ... .. . ... ... : ... .. . ... ... : ... .. . ... ... : ... .. . ... ...
ROW 0E : ... .. 2 ... ... ... : C#2 00 8 P80 ... ... : ... .. . ... : ... .. . ... : ... .. . ... ... : ... .. . ... ... : ... .. . ... ... : ... .. . ... ...
ROW 0F : ... .. . ... ... ... : ... .. C ... ... ... : --- .. . ... : ... .. . ... : ... .. . ... ... : ... .. . ... ... : ... .. . ... ... : ... .. . ... ...
ROW 10 : G#1 00 F ... ... ... : D#2 00 B ... ... ... : G#3 00 . ... : ... .. 9 ... : ... .. . ... ... : ... .. . ... ... : ... .. . ... ... : ... .. . ... ...
ROW 11 : ... .. E ... ... ... : ... .. F ... ... ... : ... .. . ... : ... .. . ... : ... .. . ... ... : ... .. . ... ... : ... .. . ... ... : ... .. . ... ...
ROW 12 : ... .. D ... ... ... : ... .. B ... ... ... : ... .. . ... : ... .. . ... : ... .. . ... ... : ... .. . ... ... : ... .. . ... ... : ... .. . ... ...
ROW 13 : ... .. A ... ... ... : ... .. 0 ... ... ... : ... .. . ... : ... .. 8 ... : ... .. . ... ... : ... .. . ... ... : ... .. . ... ... : ... .. . ... ...
ROW 14 : ... .. 2 ... ... ... : D#2 00 8 P80 ... ... : ... .. . ... : ... .. . ... : ... .. . ... ... : ... .. . ... ... : ... .. . ... ... : ... .. . ... ...
ROW 15 : ... .. . ... ... ... : ... .. C ... ... ... : --- .. . ... : ... .. . ... : ... .. . ... ... : ... .. . ... ... : ... .. . ... ... : ... .. . ... ...
ROW 16 : G#2 00 F ... ... ... : D#3 00 B ... ... ... : G#4 00 . ... : ... .. 7 ... : ... .. . ... ... : ... .. . ... ... : ... .. . ... ... : ... .. . ... ...
ROW 17 : ... .. E ... ... ... : ... .. F ... ... ... : ... .. . ... : ... .. . ... : ... .. . ... ... : ... .. . ... ... : ... .. . ... ... : ... .. . ... ...
ROW 18 : ... .. D ... ... ... : ... .. B ... ... ... : ... .. . ... : ... .. . ... : ... .. . ... ... : ... .. . ... ... : ... .. . ... ... : ... .. . ... ...
ROW 19 : ... .. A ... ... ... : ... .. 0 ... ... ... : ... .. . ... : ... .. 6 ... : ... .. . ... ... : ... .. . ... ... : ... .. . ... ... : ... .. . ... ...
ROW 1A : ... .. . ... ... ... : D#3 00 8 P80 ... ... : ... .. . ... : ... .. . ... : ... .. . ... ... : ... .. . ... ... : ... .. . ... ... : ... .. . ... ...
ROW 1B : ... .. . ... ... ... : ... .. C ... ... ... : --- .. . ... : ... .. . ... : ... .. . ... ... : ... .. . ... ... : ... .. . ... ... : ... .. . ... ...
ROW 1C : G#1 00 F ... ... ... : D#2 00 B ... ... ... : G#3 00 . ... : ... .. 5 ... : ... .. . ... ... : ... .. . ... ... : ... .. . ... ... : ... .. . ... ...
ROW 1D : ... .. E ... ... ... : ... .. F ... ... ... : ... .. . ... : ... .. . ... : ... .. . ... ... : ... .. . ... ... : ... .. . ... ... : ... .. . ... ...
ROW 1E : ... .. D ... ... ... : ... .. B ... ... ... : ... .. . ... : ... .. . ... : ... .. . ... ... : ... .. . ... ... : ... .. . ... ... : ... .. . ... ...
ROW 1F : ... .. A ... ... ... : ... .. 0 ... ... ... : ... .. . ... : ... .. 4 ... : ... .. . ... ... : ... .. . ... ... : ... .. . ... ... : ... .. . ... ...
ROW 20 : ... .. 2 ... ... ... : D#2 00 8 P80 ... ... : ... .. . ... : ... .. . ... : ... .. . ... ... : ... .. . ... ... : ... .. . ... ... : ... .. . ... ...
ROW 21 : ... .. . ... ... ... : ... .. C ... ... ... : --- .. . ... : ... .. . ... : ... .. . ... ... : ... .. . ... ... : ... .. . ... ... : ... .. . ... ...
ROW 22 : ... .. F ... ... ... : G#2 00 B ... ... ... : G#2 00 . ... : ... .. 3 ... : ... .. . ... ... : ... .. . ... ... : ... .. . ... ... : ... .. . ... ...
ROW 23 : ... .. E ... ... ... : ... .. F ... ... ... : ... .. . ... : ... .. . ... : ... .. . ... ... : ... .. . ... ... : ... .. . ... ... : ... .. . ... ...
ROW 24 : ... .. D ... ... ... : ... .. B ... ... ... : ... .. . ... : ... .. . ... : ... .. . ... ... : ... .. . ... ... : ... .. . ... ... : ... .. . ... ...
ROW 25 : ... .. A ... ... ... : ... .. 0 ... ... ... : ... .. . ... : ... .. 2 ... : ... .. . ... ... : ... .. . ... ... : ... .. . ... ... : ... .. . ... ...
ROW 26 : ... .. 2 ... ... ... : G#2 00 8 P80 ... ... : ... .. . ... : ... .. . ... : ... .. . ... ... : ... .. . ... ... : ... .. . ... ... : ... .. . ... ...
ROW 27 : ... .. . ... ... ... : ... .. C ... ... ... : --- .. . ... : ... .. . ... : ... .. . ... ... : ... .. . ... ... : ... .. . ... ... : ... .. . ... ...
ROW 28 : C#4 00 F ... ... ... : A#3 00 F ... ... ... : F-4 00 . ... : 1-# 00 F ... : ... .. . ... ... : A#3 01 A ... ... : F-3 01 A ... ... : A#4 01 F ... ...
ROW 29 : ... .. E ... ... ... : ... .. E ... ... ... : G-3 00 . ... : ... .. C ... : ... .. . ... ... : ... .. 9 ... ... : ... .. 9 ... ... : ... .. D ... ...
ROW 2A : ... .. D ... ... ... : ... .. D ... ... ... : C-3 00 . ... : ... .. 6 ... : ... .. . ... ... : ... .. 8 ... ... : ... .. 8 ... ... : ... .. 8 ... ...
ROW 2B : ... .. A ... ... ... : ... .. A ... ... ... : B-2 00 . ... : ... .. 3 ... : ... .. . ... ... : ... .. 7 ... ... : ... .. 7 ... ... : ... .. . ... ...
ROW 2C : ... .. . ... ... ... : ... .. . ... ... ... : F#2 00 . ... : ... .. 2 ... : ... .. . ... ... : ... .. . ... ... : ... .. . ... ... : ... .. . ... ...
ROW 2D : ... .. . ... ... ... : ... .. . ... ... ... : ... .. . ... : ... .. 0 ... : ... .. . ... ... : ... .. 6 ... ... : ... .. 6 ... ... : ... .. . ... ...
ROW 2E : ... .. . ... ... ... : ... .. . ... ... ... : ... .. . ... : C-# 00 8 ... : ... .. . ... ... : ... .. 5 ... ... : ... .. 5 ... ... : ... .. . ... ...
ROW 2F : ... .. . ... ... ... : ... .. 2 ... ... ... : ... .. . ... : ... .. 6 ... : ... .. . ... ... : ... .. . ... ... : ... .. . ... ... : ... .. 4 ... ...
ROW 30 : ... .. . ... ... ... : ... .. . ... ... ... : ... .. . ... : ... .. 3 ... : ... .. . ... ... : ... .. 3 ... ... : ... .. 3 ... ... : ... .. . ... ...
ROW 31 : ... .. . ... ... ... : ... .. . ... ... ... : --- .. . ... : ... .. 1 ... : ... .. . ... ... : ... .. . ... ... : ... .. . ... ... : ... .. 1 ... ...
ROW 32 : ... .. 2 ... ... ... : ... .. 1 ... ... ... : ... .. . ... : ... .. . ... : ... .. . ... ... : ... .. . ... ... : ... .. . ... ... : ... .. . ... ...
ROW 33 : ... .. . ... ... ... : ... .. . ... ... ... : ... .. . ... : ... .. 0 ... : ... .. . ... ... : ... .. . ... ... : ... .. . ... ... : ... .. . ... ...
ROW 34 : D#4 00 F ... ... ... : B-3 00 F ... ... ... : G-4 00 . ... : ... .. 8 ... : ... .. . ... ... : B-3 01 A ... ... : F#3 01 A ... ... : B-4 01 F ... ...
ROW 35 : ... .. E ... ... ... : ... .. E ... ... ... : A-3 00 . ... : ... .. 6 ... : ... .. . ... ... : ... .. 9 ... ... : ... .. 9 ... ... : ... .. D ... ...
ROW 36 : ... .. D ... ... ... : ... .. D ... ... ... : D-3 00 . ... : ... .. 3 ... : ... .. . ... ... : ... .. 8 ... ... : ... .. 8 ... ... : ... .. 8 ... ...
ROW 37 : ... .. A ... ... ... : ... .. A ... ... ... : C#3 00 . ... : ... .. 1 ... : ... .. . ... ... : ... .. 7 ... ... : ... .. 7 ... ... : ... .. . ... ...
ROW 38 : ... .. . ... ... ... : ... .. . ... ... ... : G#2 00 . ... : ... .. . ... : ... .. . ... ... : ... .. . ... ... : ... .. . ... ... : ... .. . ... ...
ROW 39 : ... .. . ... ... ... : ... .. . ... ... ... : ... .. . ... : ... .. 0 ... : ... .. . ... ... : ... .. 6 ... ... : ... .. 6 ... ... : ... .. . ... ...
ROW 3A : ... .. . ... ... ... : ... .. . ... ... ... : ... .. . ... : 1-# 00 F ... : ... .. . ... ... : ... .. . ... ... : ... .. . ... ... : ... .. . ... ...
ROW 3B : ... .. . ... ... ... : ... .. . ... ... ... : ... .. . ... : ... .. C ... : ... .. . ... ... : ... .. 5 ... ... : ... .. 5 ... ... : ... .. . ... ...
ROW 3C : ... .. . ... ... ... : ... .. . ... ... ... : ... .. . ... : ... .. 6 ... : ... .. . ... ... : ... .. . ... ... : ... .. . ... ... : ... .. . ... ...
ROW 3D : ... .. . ... ... ... : ... .. . ... ... ... : ... .. . ... : ... .. 3 ... : ... .. . ... ... : ... .. . ... ... : ... .. . ... ... : ... .. . ... ...
ROW 3E : ... .. . ... ... ... : ... .. . ... ... ... : ... .. . ... : ... .. 2 ... : ... .. . ... ... : ... .. . ... ... : ... .. . ... ... : ... .. . ... ...
ROW 3F : ... .. . ... ... ... : ... .. . ... ... ... : ... .. . ... : ... .. 0 ... : ... .. . ... ... : ... .. . ... ... : ... .. . ... ... : ... .. . ... ...
ROW 40 : E-4 00 A ... ... ... : C-4 00 A P7E ... ... : ... .. . ... : C-# 00 8 ... : ... .. . ... ... : ... .. . ... ... : ... .. . ... ... : ... .. . ... ...
ROW 41 : F-4 00 A P7C ... ... : ... .. . P84 ... ... : ... .. . ... : ... .. 6 ... : ... .. . ... ... : ... .. . ... ... : ... .. . ... ... : ... .. . ... ...
ROW 42 : E-4 00 A P84 ... ... : ... .. . P82 ... ... : ... .. . ... : ... .. 3 ... : ... .. . ... ... : ... .. . ... ... : ... .. . ... ... : ... .. . ... ...
ROW 43 : D#4 00 A ... ... ... : B-3 00 A P84 ... ... : ... .. . ... : ... .. 1 ... : ... .. . ... ... : ... .. . ... ... : ... .. . ... ... : ... .. . ... ...
ROW 44 : ... .. . P7C ... ... : ... .. . P7C ... ... : ... .. . ... : ... .. . ... : ... .. . ... ... : ... .. . ... ... : ... .. . ... ... : ... .. . ... ...
ROW 45 : D-4 00 A ... ... ... : A#3 00 A P80 ... ... : ... .. . ... : ... .. 0 ... : ... .. . ... ... : ... .. . ... ... : ... .. . ... ... : ... .. . ... ...
ROW 46 : C#4 00 A P86 ... ... : ... .. . P7E ... ... : A#2 00 . ... : ... .. 8 ... : ... .. . ... ... : ... .. . ... ... : ... .. . ... ... : ... .. . ... ...
ROW 47 : D-4 00 2 P80 ... ... : ... .. 2 P84 ... ... : ... .. . ... : ... .. 6 ... : ... .. . ... ... : ... .. . ... ... : ... .. . ... ... : ... .. 4 ... ...
ROW 48 : D#4 00 2 ... ... ... : B-3 00 2 P80 ... ... : ... .. . ... : ... .. 3 ... : ... .. . ... ... : ... .. 3 ... ... : ... .. 3 ... ... : ... .. . ... ...
ROW 49 : E-4 00 2 P7F ... ... : C-4 00 2 P7D ... ... : ... .. . ... : ... .. 1 ... : ... .. . ... ... : ... .. . ... ... : ... .. . ... ... : ... .. 1 ... ...
ROW 4A : F-4 00 1 P7C ... ... : ... .. 1 P84 ... ... : ... .. . ... : ... .. . ... : ... .. . ... ... : ... .. . ... ... : ... .. . ... ... : ... .. . ... ...
ROW 4B : E-4 00 1 P84 ... ... : ... .. . P82 ... ... : ... .. . ... : ... .. 0 ... : ... .. . ... ... : ... .. . ... ... : ... .. . ... ... : ... .. . ... ...
ROW 4C : G#1 00 F P80 ... ... : D#2 00 B P80 ... ... : B-2 00 . ... : 8-# 00 D ... : ... .. . ... ... : G#1 01 A ... ... : G#0 01 A ... ... : G#0 01 F ... ...
ROW 4D : ... .. E ... ... ... : ... .. F ... ... ... : ... .. . ... : ... .. . ... : ... .. . ... ... : ... .. 9 ... ... : ... .. 9 ... ... : ... .. D ... ...
ROW 4E : ... .. D ... ... ... : ... .. B ... ... ... : ... .. . ... : ... .. . ... : ... .. . ... ... : ... .. 8 ... ... : ... .. 8 ... ... : ... .. 8 ... ...
ROW 4F : ... .. A ... ... ... : ... .. 0 ... ... ... : ... .. . ... : B-# 00 D ... : ... .. . ... ... : ... .. 7 ... ... : ... .. 7 ... ... : ... .. . ... ...
ROW 50 : ... .. . ... ... ... : D#2 00 8 P80 ... ... : ... .. . ... : ... .. . ... : ... .. . ... ... : ... .. . ... ... : ... .. . ... ... : ... .. . ... ...
ROW 51 : ... .. . ... ... ... : ... .. C ... ... ... : --- .. . ... : ... .. . ... : ... .. . ... ... : ... .. 6 ... ... : ... .. 6 ... ... : ... .. . ... ...
ROW 52 : G#2 00 F ... ... ... : C#2 00 B ... ... ... : A#2 00 . ... : ... .. . ... : ... .. . ... ... : ... .. . ... ... : ... .. . ... ... : ... .. . ... ...
ROW 53 : ... .. E ... ... ... : ... .. F ... ... ... : ... .. . ... : ... .. . ... : ... .. . ... ... : ... .. 5 ... ... : ... .. 5 ... ... : ... .. . ... ...
ROW 54 : ... .. D ... ... ... : ... .. B ... ... ... : ... .. . ... : ... .. . ... : ... .. . ... ... : ... .. . ... ... : ... .. . ... ... : ... .. . ... ...
ROW 55 : ... .. A ... ... ... : ... .. 0 ... ... ... : ... .. . ... : ... .. A ... : ... .. . ... ... : ... .. . ... ... : ... .. . ... ... : ... .. . ... ...
ROW 56 : ... .. 2 ... ... ... : C#2 00 8 P80 ... ... : ... .. . ... : ... .. . ... : ... .. . ... ... : ... .. . ... ... : ... .. . ... ... : ... .. . ... ...
ROW 57 : ... .. . ... ... ... : ... .. C ... ... ... : --- .. . ... : ... .. . ... : ... .. . ... ... : ... .. . ... ... : ... .. . ... ... : ... .. . ... ...
ROW 58 : ... .. . ... ... ... : D#2 00 B ... ... ... : B-2 00 . ... : ... .. 9 ... : ... .. . ... ... : ... .. . ... ... : ... .. . ... ... : ... .. . ... ...
ROW 59 : ... .. 1 ... ... ... : ... .. F ... ... ... : ... .. . ... : ... .. . ... : ... .. . ... ... : ... .. . ... ... : ... .. . ... ... : ... .. . ... ...
ROW 5A : ... .. . ... ... ... : ... .. B ... ... ... : ... .. . ... : ... .. . ... : ... .. . ... ... : ... .. . ... ... : ... .. . ... ... : ... .. . ... ...
ROW 5B : ... .. . ... ... ... : ... .. 0 ... ... ... : ... .. . ... : ... .. 8 ... : ... .. . ... ... : ... .. . ... ... : ... .. . ... ... : ... .. . ... ...
ROW 5C : ... .. 0 ... V00 ... : D#2 00 8 P80 ... ... : ... .. . ... : ... .. . ... : ... .. . ... ... : ... .. . ... ... : ... .. . ... ... : ... .. . ... ...
ROW 5D : ... .. . ... ... ... : ... .. C ... ... ... : --- .. . ... : ... .. . ... : ... .. . ... ... : ... .. . ... ... : ... .. . ... ... : ... .. . ... ...
ROW 5E : G#3 00 F P80 V02 ... : D#3 00 B ... ... ... : C#3 00 . ... : ... .. 7 ... : ... .. . ... ... : ... .. . ... ... : ... .. . ... ... : ... .. . ... ...
ROW 5F : ... .. E ... ... ... : ... .. F ... ... ... : ... .. . ... : ... .. . ... : ... .. . ... ... : ... .. . ... ... : ... .. . ... ... : ... .. . ... ...
ROW 60 : ... .. D ... ... ... : ... .. B ... ... ... : ... .. . ... : ... .. . ... : ... .. . ... ... : ... .. . ... ... : ... .. . ... ... : ... .. . ... ...
ROW 61 : ... .. A ... ... ... : ... .. 0 ... ... ... : ... .. . ... : ... .. 6 ... : ... .. . ... ... : ... .. . ... ... : ... .. . ... ... : ... .. . ... ...
ROW 62 : ... .. . ... ... ... : D#3 00 8 P80 ... ... : ... .. . ... : ... .. . ... : ... .. . ... ... : ... .. . ... ... : ... .. . ... ... : ... .. . ... ...
ROW 63 : ... .. . ... ... ... : ... .. C ... ... ... : --- .. . ... : ... .. . ... : ... .. . ... ... : ... .. . ... ... : ... .. . ... ... : ... .. . ... ...
ROW 64 : ... .. . ... ... ... : D#2 00 B ... ... ... : D#3 00 . ... : ... .. 5 ... : ... .. . ... ... : ... .. . ... ... : ... .. . ... ... : ... .. . ... ...
ROW 65 : ... .. 2 ... ... ... : ... .. F ... ... ... : ... .. . ... : ... .. . ... : ... .. . ... ... : ... .. . ... ... : ... .. . ... ... : ... .. . ... ...
ROW 66 : ... .. . ... ... ... : ... .. B ... ... ... : ... .. . ... : ... .. . ... : ... .. . ... ... : ... .. . ... ... : ... .. . ... ... : ... .. . ... ...
ROW 67 : A#3 00 F ... ... ... : ... .. 0 ... ... ... : ... .. . ... : ... .. 4 ... : ... .. . ... ... : ... .. . ... ... : ... .. . ... ... : ... .. . ... ...
ROW 68 : ... .. E ... ... ... : D#2 00 8 P80 ... ... : ... .. . ... : ... .. . ... : ... .. . ... ... : ... .. . ... ... : ... .. . ... ... : ... .. . ... ...
ROW 69 : ... .. D ... ... ... : ... .. C ... ... ... : --- .. . ... : ... .. . ... : ... .. . ... ... : ... .. . ... ... : ... .. . ... ... : ... .. . ... ...
ROW 6A : ... .. A ... ... ... : G#2 00 B ... ... ... : F#3 00 . ... : ... .. 3 ... : ... .. . ... ... : ... .. . ... ... : ... .. . ... ... : ... .. . ... ...
ROW 6B : ... .. . ... ... ... : ... .. F ... ... ... : ... .. . ... : ... .. . ... : ... .. . ... ... : ... .. . ... ... : ... .. . ... ... : ... .. . ... ...
ROW 6C : ... .. . ... ... ... : ... .. B ... ... ... : ... .. . ... : ... .. . ... : ... .. . ... ... : ... .. . ... ... : ... .. . ... ... : ... .. . ... ...
ROW 6D : ... .. . ... ... ... : ... .. 0 ... ... ... : ... .. . ... : ... .. 2 ... : ... .. . ... ... : ... .. . ... ... : ... .. . ... ... : ... .. . ... ...
ROW 6E : ... .. 2 ... ... ... : G#2 00 8 P80 ... ... : ... .. . ... : ... .. . ... : ... .. . ... ... : ... .. . ... ... : ... .. . ... ... : ... .. . ... ...
ROW 6F : ... .. . ... ... ... : ... .. C ... ... ... : --- .. . ... : ... .. . ... : ... .. . ... ... : ... .. . ... ... : ... .. . ... ... : ... .. . ... ...
ROW 70 : B-3 00 F ... ... ... : E-2 00 B ... ... ... : D#5 00 . ... : 1-# 00 F ... : ... .. . ... ... : F#4 01 6 ... ... : B-3 01 6 ... ... : E-1 01 A ... ...
ROW 71 : ... .. E ... ... ... : ... .. F ... ... ... : F-4 00 . ... : ... .. C ... : ... .. . ... ... : ... .. . ... ... : ... .. . ... ... : ... .. 8 ... ...
ROW 72 : ... .. D ... ... ... : ... .. B ... ... ... : A#3 00 . ... : ... .. 6 ... : ... .. . ... ... : ... .. 5 ... ... : ... .. 5 ... ... : ... .. 5 ... ...
ROW 73 : ... .. A ... ... ... : ... .. 0 ... ... ... : A-3 00 . ... : ... .. 3 ... : ... .. . ... ... : ... .. 4 ... ... : ... .. 4 ... ... : ... .. . ... ...
ROW 74 : ... .. . ... ... ... : E-2 00 8 P80 ... ... : E-3 00 . ... : ... .. 2 ... : ... .. . ... ... : ... .. . ... ... : ... .. . ... ... : ... .. . ... ...
ROW 75 : ... .. . ... ... ... : ... .. C ... ... ... : ... .. . ... : ... .. 0 ... : ... .. . ... ... : ... .. . ... ... : ... .. . ... ... : ... .. . ... ...
ROW 76 : ... .. . ... ... ... : B-1 00 B ... ... ... : ... .. . ... : C-# 00 8 ... : ... .. . ... ... : ... .. . ... ... : ... .. . ... ... : ... .. . ... ...
ROW 77 : ... .. . ... ... ... : ... .. F ... ... ... : ... .. . ... : ... .. 6 ... : ... .. . ... ... : ... .. 3 ... ... : ... .. 3 ... ... : ... .. . ... ...
ROW 78 : ... .. . ... ... ... : ... .. B ... ... ... : ... .. . ... : ... .. 3 ... : ... .. . ... ... : ... .. . ... ... : ... .. . ... ... : ... .. . ... ...
ROW 79 : ... .. . ... ... ... : ... .. 0 ... ... ... : ... .. . ... : ... .. 1 ... : ... .. . ... ... : ... .. . ... ... : ... .. . ... ... : ... .. . ... ...
ROW 7A : ... .. . ... ... ... : B-1 00 8 P80 ... ... : ... .. . ... : ... .. . ... : ... .. . ... ... : ... .. . ... ... : ... .. . ... ... : ... .. . ... ...
ROW 7B : ... .. . ... ... ... : ... .. C ... ... ... : ... .. . ... : ... .. 0 ... : ... .. . ... ... : ... .. . ... ... : ... .. . ... ... : ... .. . ... ...
ROW 7C : ... .. . ... ... ... : G#2 00 B ... ... ... : D-3 00 . P8A : ... .. 8 ... : ... .. . ... ... : ... .. . ... ... : ... .. . ... ... : ... .. . ... ...
ROW 7D : ... .. . ... ... ... : ... .. F ... ... ... : C#3 00 . P81 : ... .. 6 ... : ... .. . ... ... : ... .. . ... ... : ... .. . ... ... : ... .. . ... ...
ROW 7E : ... .. . ... ... ... : ... .. B ... ... ... : C-3 00 . P79 : ... .. 3 ... : ... .. . ... ... : ... .. . ... ... : ... .. . ... ... : ... .. . ... ...
ROW 7F : ... .. . ... ... ... : ... .. 0 ... ... ... : A#2 00 . P8D : ... .. 1 ... : ... .. . ... ... : ... .. . ... ... : ... .. . ... ... : ... .. . ... ...
ROW 80 : ... .. . ... ... ... : G#2 00 8 P80 ... ... : A-2 00 . P89 : ... .. . ... : ... .. . ... ... : ... .. . ... ... : ... .. . ... ... : ... .. . ... ...
ROW 81 : ... .. . ... ... ... : ... .. C ... ... ... : G#2 00 . P88 : ... .. 0 ... : ... .. . ... ... : ... .. . ... ... : ... .. . ... ... : ... .. . ... ...
ROW 82 : ... .. . P84 ... ... : B-2 00 B ... ... ... : G-5 00 . P80 : 1-# 00 F ... : ... .. . ... ... : E-4 01 6 ... ... : A#3 01 6 ... ... : ... .. . ... ...
ROW 83 : ... .. . P86 ... ... : ... .. F ... ... ... : A-4 00 . ... : ... .. C ... : ... .. . ... ... : ... .. . ... ... : ... .. . ... ... : ... .. . ... ...
ROW 84 : ... .. . P85 ... ... : ... .. B ... ... ... : D-4 00 . ... : ... .. 6 ... : ... .. . ... ... : ... .. 5 ... ... : ... .. 5 ... ... : ... .. . ... ...
ROW 85 : ... .. . P82 ... ... : ... .. 0 ... ... ... : C#4 00 . ... : ... .. 3 ... : ... .. . ... ... : ... .. 4 ... ... : ... .. 4 ... ... : ... .. . ... ...
ROW 86 : ... .. . P7E ... ... : B-2 00 8 P80 ... ... : G#3 00 . ... : ... .. 2 ... : ... .. . ... ... : ... .. . ... ... : ... .. . ... ... : ... .. . ... ...
ROW 87 : ... .. . P7B ... ... : ... .. C ... ... ... : --- .. . ... : ... .. 0 ... : ... .. . ... ... : ... .. . ... ... : ... .. . ... ... : ... .. . ... ...
ROW 88 : ... .. . P7A ... ... : E-2 00 B ... ... ... : F#3 00 . ... : C-# 00 8 ... : ... .. . ... ... : ... .. . ... ... : ... .. . ... ... : ... .. . ... ...
ROW 89 : ... .. . P7C ... ... : ... .. F ... ... ... : ... .. . ... : ... .. 6 ... : ... .. . ... ... : ... .. 3 ... ... : ... .. 3 ... ... : ... .. . ... ...
ROW 8A : ... .. . P80 ... ... : ... .. B ... ... ... : ... .. . ... : ... .. 3 ... : ... .. . ... ... : ... .. . ... ... : ... .. . ... ... : ... .. . ... ...
ROW 8B : ... .. . P83 ... ... : ... .. 0 ... ... ... : ... .. . ... : ... .. 1 ... : ... .. . ... ... : ... .. . ... ... : ... .. . ... ... : ... .. . ... ...
ROW 8C : ... .. . P86 ... ... : E-2 00 8 P80 ... ... : ... .. . ... : ... .. . ... : ... .. . ... ... : ... .. . ... ... : ... .. . ... ... : ... .. . ... ...
ROW 8D : ... .. . ... ... ... : ... .. C ... ... ... : --- .. . ... : ... .. 0 ... : ... .. . ... ... : ... .. . ... ... : ... .. . ... ... : ... .. . ... ...
ROW 8E : ... .. . P82 ... ... : E-3 00 B ... ... ... : G#3 00 . ... : ... .. 8 ... : ... .. . ... ... : ... .. . ... ... : ... .. . ... ... : ... .. . ... ...
ROW 8F : ... .. 2 P7F ... ... : ... .. F ... ... ... : ... .. . ... : ... .. 6 ... : ... .. . ... ... : ... .. . ... ... : ... .. . ... ... : ... .. . ... ...
ROW 90 : ... .. . P7B ... ... : ... .. B ... ... ... : ... .. . ... : ... .. 3 ... : ... .. . ... ... : ... .. . ... ... : ... .. . ... ... : ... .. . ... ...
ROW 91 : ... .. . P7A ... ... : ... .. 0 ... ... ... : --- .. . ... : ... .. 1 ... : ... .. . ... ... : ... .. . ... ... : ... .. . ... ... : ... .. . ... ...
ROW 92 : ... .. 1 P7C ... ... : E-3 00 8 P80 ... ... : ... .. . ... : ... .. . ... : ... .. . ... ... : ... .. . ... ... : ... .. . ... ... : ... .. . ... ...
ROW 93 : ... .. . P80 ... ... : ... .. C ... ... ... : ... .. . ... : ... .. 0 ... : ... .. . ... ... : ... .. . ... ... : ... .. . ... ... : ... .. . ... ...
ROW 94 : ... .. F ... ... ... : G#3 00 B ... ... ... : D#6 00 . ... : 7-# 00 F ... : ... .. . ... ... : D#4 01 6 ... ... : B-3 01 6 ... ... : E-2 01 A ... ...
ROW 95 : ... .. E ... ... ... : ... .. F ... ... ... : F-5 00 . ... : ... .. C ... : ... .. . ... ... : ... .. . ... ... : ... .. . ... ... : ... .. 8 ... ...
ROW 96 : ... .. D ... ... ... : ... .. B ... ... ... : A#4 00 . ... : ... .. 6 ... : ... .. . ... ... : ... .. 5 ... ... : ... .. 5 ... ... : ... .. 5 ... ...
ROW 97 : ... .. A ... ... ... : ... .. 0 ... ... ... : A-4 00 . ... : ... .. 3 ... : ... .. . ... ... : ... .. 4 ... ... : ... .. 4 ... ... : ... .. . ... ...
ROW 98 : ... .. . P85 ... ... : G#3 00 8 P80 ... ... : E-4 00 . ... : ... .. 2 ... : ... .. . ... ... : ... .. . ... ... : ... .. . ... ... : ... .. . ... ...
ROW 99 : C-4 00 A P7E ... ... : ... .. C ... ... ... : ... .. . ... : ... .. 0 ... : ... .. . ... ... : ... .. . ... ... : ... .. . ... ... : ... .. . ... ...
ROW 9A : ... .. . P83 ... ... : B-2 00 B ... ... ... : ... .. . ... : 1-# 00 8 ... : ... .. . ... ... : ... .. . ... ... : ... .. . ... ... : ... .. . ... ...
ROW 9B : C#4 00 A P7C ... ... : ... .. F ... ... ... : ... .. . ... : ... .. 6 ... : ... .. . ... ... : ... .. 3 ... ... : ... .. 3 ... ... : ... .. . ... ...
ROW 9C : ... .. . P80 ... ... : ... .. B ... ... ... : ... .. . ... : ... .. 3 ... : ... .. . ... ... : ... .. . ... ... : ... .. . ... ... : ... .. . ... ...
ROW 9D : ... .. . ... ... ... : ... .. 0 ... ... ... : ... .. . ... : ... .. 1 ... : ... .. . ... ... : ... .. . ... ... : ... .. . ... ... : ... .. . ... ...
ROW 9E : ... .. . ... ... ... : B-2 00 8 P80 ... ... : ... .. . ... : ... .. . ... : ... .. . ... ... : ... .. . ... ... : ... .. . ... ... : ... .. . ... ...
ROW 9F : ... .. . ... ... ... : ... .. C ... ... ... : ... .. . ... : ... .. 0 ... : ... .. . ... ... : ... .. . ... ... : ... .. . ... ... : ... .. . ... ...
ROW A0 : B-3 00 F ... ... ... : E-3 00 B ... ... ... : D#4 00 . ... : 7-# 00 F ... : ... .. . ... ... : ... .. . ... ... : ... .. . ... ... : D#2 01 A ... ...
ROW A1 : ... .. E ... ... ... : ... .. F ... ... ... : ... .. . ... : ... .. C ... : ... .. . ... ... : ... .. . ... ... : ... .. . ... ... : ... .. 8 ... ...
ROW A2 : ... .. D ... ... ... : ... .. B ... ... ... : ... .. . ... : ... .. 6 ... : ... .. . ... ... : ... .. . ... ... : ... .. . ... ... : ... .. 5 ... ...
ROW A3 : ... .. A ... ... ... : ... .. 0 ... ... ... : ... .. . ... : ... .. 3 ... : ... .. . ... ... : ... .. . ... ... : ... .. . ... ... : ... .. . ... ...
ROW A4 : ... .. . ... ... ... : E-3 00 8 P80 ... ... : ... .. . ... : ... .. 2 ... : ... .. . ... ... : ... .. . ... ... : ... .. . ... ... : ... .. . ... ...
ROW A5 : ... .. . ... ... ... : ... .. C ... ... ... : ... .. . ... : ... .. 0 ... : ... .. . ... ... : ... .. . ... ... : ... .. . ... ... : ... .. . ... ...
ROW A6 : ... .. . ... ... ... : G#3 00 B ... ... ... : ... .. . ... : 1-# 00 8 ... : ... .. . ... ... : E-4 01 6 ... ... : G#3 01 6 ... ... : ... .. . ... ...
ROW A7 : ... .. . ... ... ... : ... .. F ... ... ... : ... .. . ... : ... .. 6 ... : ... .. . ... ... : ... .. . ... ... : ... .. . ... ... : ... .. . ... ...
ROW A8 : ... .. . ... ... ... : ... .. B ... ... ... : ... .. . ... : ... .. 3 ... : ... .. . ... ... : ... .. 5 ... ... : ... .. 5 ... ... : ... .. . ... ...
ROW A9 : ... .. . ... ... ... : ... .. 0 ... ... ... : ... .. . ... : ... .. 1 ... : ... .. . ... ... : ... .. 4 ... ... : ... .. 4 ... ... : ... .. . ... ...
ROW AA : ... .. 2 ... ... ... : G#3 00 8 P80 ... ... : ... .. . ... : ... .. . ... : ... .. . ... ... : ... .. . ... ... : ... .. . ... ... : ... .. . ... ...
ROW AB : ... .. . ... ... ... : ... .. C ... ... ... : --- .. . ... : ... .. 0 ... : ... .. . ... ... : ... .. . ... ... : ... .. . ... ... : ... .. . ... ...
ROW AC : A#3 00 F ... ... ... : E-3 00 B ... ... ... : G#3 00 . ... : 7-# 00 F ... : ... .. . ... ... : ... .. . ... ... : ... .. . ... ... : G#1 01 A ... ...
ROW AD : ... .. E ... ... ... : ... .. F ... ... ... : ... .. . ... : ... .. C ... : ... .. . ... ... : ... .. 3 ... ... : ... .. 3 ... ... : ... .. 8 ... ...
ROW AE : ... .. D ... ... ... : ... .. B ... ... ... : ... .. . ... : ... .. 6 ... : ... .. . ... ... : ... .. . ... ... : ... .. . ... ... : ... .. 5 ... ...
ROW AF : ... .. A ... ... ... : ... .. 0 ... ... ... : ... .. . ... : ... .. 3 ... : ... .. . ... ... : ... .. . ... ... : ... .. . ... ... : ... .. . ... ...
ROW B0 : ... .. . ... ... ... : E-3 00 8 P80 ... ... : ... .. . ... : ... .. 2 ... : ... .. . ... ... : ... .. . ... ... : ... .. . ... ... : ... .. . ... ...
ROW B1 : ... .. . ... ... ... : ... .. C ... ... ... : ... .. . ... : ... .. 0 ... : ... .. . ... ... : ... .. . ... ... : ... .. . ... ... : ... .. . ... ...
ROW B2 : B-3 00 F ... ... ... : G#3 00 B ... ... ... : ... .. . ... : 1-# 00 8 ... : ... .. . ... ... : ... .. . ... ... : ... .. . ... ... : ... .. . ... ...
ROW B3 : ... .. E ... ... ... : ... .. F ... ... ... : ... .. . ... : ... .. 6 ... : ... .. . ... ... : ... .. . ... ... : ... .. . ... ... : ... .. . ... ...
ROW B4 : ... .. 0 ... V00 ... : ... .. B ... ... ... : ... .. . ... : ... .. 3 ... : ... .. . ... ... : ... .. . ... ... : ... .. . ... ... : ... .. . ... ...
ROW B5 : A#3 00 F P80 V02 ... : ... .. 0 ... ... ... : ... .. . ... : ... .. 1 ... : ... .. . ... ... : ... .. . ... ... : ... .. . ... ... : ... .. . ... ...
ROW B6 : ... .. E ... ... ... : G#3 00 8 P80 ... ... : ... .. . ... : ... .. . ... : ... .. . ... ... : ... .. . ... ... : ... .. . ... ... : ... .. . ... ...
ROW B7 : ... .. 0 ... V00 ... : ... .. C ... ... ... : --- .. . ... : ... .. 0 ... : ... .. . ... ... : ... .. . ... ... : ... .. . ... ... : ... .. . ... ...
ROW B8 : G#3 00 F P80 V02 ... : C#4 00 B ... ... ... : C-4 00 . ... : ... .. F ... : ... .. . ... ... : G#4 01 6 ... ... : E-3 01 6 ... ... : C#1 01 A ... ...
ROW B9 : ... .. E ... ... ... : ... .. F ... ... ... : D-3 00 . ... : ... .. C ... : ... .. . ... ... : ... .. . ... ... : ... .. . ... ... : ... .. 8 ... ...
ROW BA : ... .. D ... ... ... : ... .. B ... ... ... : G-2 00 . ... : ... .. 6 ... : ... .. . ... ... : ... .. 5 ... ... : ... .. 5 ... ... : ... .. 5 ... ...
ROW BB : ... .. A ... ... ... : ... .. 0 ... ... ... : F#2 00 . ... : ... .. 3 ... : ... .. . ... ... : ... .. 4 ... ... : ... .. 4 ... ... : ... .. . ... ...
ROW BC : ... .. . ... ... ... : C#4 00 8 P80 ... ... : C#2 00 . ... : ... .. 2 ... : ... .. . ... ... : ... .. . ... ... : ... .. . ... ... : ... .. . ... ...
ROW BD : ... .. . ... ... ... : ... .. C ... ... ... : ... .. . ... : ... .. 0 ... : ... .. . ... ... : ... .. . ... ... : ... .. . ... ... : ... .. . ... ...
ROW BE : ... .. . ... ... ... : E-3 00 B ... ... ... : ... .. . ... : C-# 00 8 ... : ... .. . ... ... : ... .. . ... ... : ... .. . ... ... : ... .. . ... ...
ROW BF : ... .. . ... ... ... : ... .. F ... ... ... : ... .. . ... : ... .. 6 ... : ... .. . ... ... : ... .. 3 ... ... : ... .. 3 ... ... : ... .. . ... ...
ROW C0 : ... .. . ... ... ... : ... .. B ... ... ... : ... .. . ... : ... .. 3 ... : ... .. . ... ... : ... .. . ... ... : ... .. . ... ... : ... .. . ... ...
ROW C1 : ... .. . P84 ... ... : ... .. 0 ... ... ... : ... .. . ... : ... .. 1 ... : ... .. . ... ... : ... .. . ... ... : ... .. . ... ... : ... .. . ... ...
ROW C2 : ... .. . P86 ... ... : E-3 00 8 P80 ... ... : ... .. . ... : ... .. . ... : ... .. . ... ... : ... .. . ... ... : ... .. . ... ... : ... .. . ... ...
ROW C3 : ... .. . P85 ... ... : ... .. C ... ... ... : ... .. . ... : ... .. 0 ... : ... .. . ... ... : ... .. . ... ... : ... .. . ... ... : ... .. . ... ...
ROW C4 : ... .. . P82 ... ... : G#3 00 B ... ... ... : ... .. . ... : ... .. 8 ... : ... .. . ... ... : ... .. . ... ... : ... .. . ... ... : ... .. . ... ...
ROW C5 : ... .. . P7E ... ... : ... .. F ... ... ... : ... .. . ... : ... .. 6 ... : ... .. . ... ... : ... .. . ... ... : ... .. . ... ... : ... .. . ... ...
ROW C6 : ... .. . P7B ... ... : ... .. B ... ... ... : ... .. . ... : ... .. 3 ... : ... .. . ... ... : ... .. . ... ... : ... .. . ... ... : ... .. . ... ...
ROW C7 : ... .. . P7A ... ... : ... .. 0 ... ... ... : ... .. . ... : ... .. 1 ... : ... .. . ... ... : ... .. . ... ... : ... .. . ... ... : ... .. . ... ...
ROW C8 : ... .. . P7C ... ... : G#3 00 8 P80 ... ... : ... .. . ... : ... .. . ... : ... .. . ... ... : ... .. . ... ... : ... .. . ... ... : ... .. . ... ...
ROW C9 : ... .. . P80 ... ... : ... .. C ... ... ... : ... .. . ... : ... .. 0 ... : ... .. . ... ... : ... .. . ... ... : ... .. . ... ... : ... .. . ... ...
ROW CA : G#2 00 F ... ... ... : C#4 00 B ... ... ... : C-5 00 . ... : 1-# 00 F ... : ... .. . ... ... : C#4 01 6 ... ... : G#3 01 6 ... ... : ... .. . ... ...
ROW CB : ... .. E ... ... ... : ... .. F ... ... ... : D-4 00 . ... : ... .. C ... : ... .. . ... ... : ... .. . ... ... : ... .. . ... ... : ... .. . ... ...
ROW CC : ... .. D ... ... ... : ... .. B ... ... ... : G-3 00 . ... : ... .. 6 ... : ... .. . ... ... : ... .. 5 ... ... : ... .. 5 ... ... : ... .. . ... ...
ROW CD : ... .. A ... ... ... : ... .. 0 ... ... ... : F#3 00 . ... : ... .. 3 ... : ... .. . ... ... : ... .. 4 ... ... : ... .. 4 ... ... : ... .. . ... ...
ROW CE : ... .. . ... ... ... : C#4 00 8 P80 ... ... : C#3 00 . ... : ... .. 2 ... : ... .. . ... ... : ... .. . ... ... : ... .. . ... ... : ... .. . ... ...
ROW CF : ... .. . ... ... ... : ... .. C ... ... ... : --- .. . ... : ... .. 0 ... : ... .. . ... ... : ... .. . ... ... : ... .. . ... ... : ... .. . ... ...
ROW D0 : ... .. . ... ... ... : G#3 00 B ... ... ... : D#3 00 . ... : C-# 00 8 ... : ... .. . ... ... : ... .. . ... ... : ... .. . ... ... : ... .. . ... ...
ROW D1 : ... .. . ... ... ... : ... .. F ... ... ... : ... .. . ... : ... .. 6 ... : ... .. . ... ... : ... .. 3 ... ... : ... .. 3 ... ... : ... .. . ... ...
ROW D2 : ... .. . ... ... ... : ... .. B ... ... ... : ... .. . ... : ... .. 3 ... : ... .. . ... ... : ... .. . ... ... : ... .. . ... ... : ... .. . ... ...
ROW D3 : ... .. . ... ... ... : ... .. 0 ... ... ... : ... .. . ... : ... .. 1 ... : ... .. . ... ... : ... .. . ... ... : ... .. . ... ... : ... .. . ... ...
ROW D4 : ... .. . ... ... ... : G#3 00 8 P80 ... ... : ... .. . ... : ... .. . ... : ... .. . ... ... : ... .. . ... ... : ... .. . ... ... : ... .. . ... ...
ROW D5 : ... .. . ... ... ... : ... .. C ... ... ... : --- .. . ... : ... .. 0 ... : ... .. . ... ... : ... .. . ... ... : ... .. . ... ... : ... .. . ... ...
ROW D6 : ... .. . ... ... ... : E-3 00 B ... ... ... : E-3 00 . ... : ... .. 8 ... : ... .. . ... ... : ... .. . ... ... : ... .. . ... ... : ... .. . ... ...
ROW D7 : ... .. . ... ... ... : ... .. F ... ... ... : ... .. . ... : ... .. 6 ... : ... .. . ... ... : ... .. . ... ... : ... .. . ... ... : ... .. . ... ...
ROW D8 : ... .. . ... ... ... : ... .. B ... ... ... : ... .. . ... : ... .. 3 ... : ... .. . ... ... : ... .. . ... ... : ... .. . ... ... : ... .. . ... ...
ROW D9 : ... .. . ... ... ... : ... .. 0 ... ... ... : ... .. . ... : ... .. 1 ... : ... .. . ... ... : ... .. . ... ... : ... .. . ... ... : ... .. . ... ...
ROW DA : ... .. . ... ... ... : E-3 00 8 P80 ... ... : ... .. . ... : ... .. . ... : ... .. . ... ... : ... .. . ... ... : ... .. . ... ... : ... .. . ... ...
ROW DB : ... .. . ... ... ... : ... .. C ... ... ... : --- .. . ... : ... .. 0 ... : ... .. . ... ... : ... .. . ... ... : ... .. . ... ... : ... .. . ... ...
ROW DC : F#2 00 F ... ... ... : G#3 00 B ... ... ... : E-3 00 . ... : 7-# 00 F ... : ... .. . ... ... : E-4 01 6 ... ... : C#4 01 6 ... ... : E-3 01 A ... ...
ROW DD : ... .. E ... ... ... : ... .. F ... ... ... : ... .. . ... : ... .. C ... : ... .. . ... ... : ... .. . ... ... : ... .. . ... ... : ... .. 8 ... ...
ROW DE : ... .. D ... ... ... : ... .. B ... ... ... : ... .. . ... : ... .. 6 ... : ... .. . ... ... : ... .. 5 ... ... : ... .. 5 ... ... : ... .. 5 ... ...
ROW DF : ... .. A ... ... ... : ... .. 0 ... ... ... : ... .. . ... : ... .. 3 ... : ... .. . ... ... : ... .. 4 ... ... : ... .. 4 ... ... : ... .. . ... ...
ROW E0 : ... .. . ... ... ... : G#3 00 8 P80 ... ... : ... .. . ... : ... .. 2 ... : ... .. . ... ... : ... .. . ... ... : ... .. . ... ... : ... .. . ... ...
ROW E1 : ... .. . ... ... ... : ... .. C ... ... ... : --- .. . ... : ... .. 0 ... : ... .. . ... ... : ... .. . ... ... : ... .. . ... ... : --- .. . P7D ...
ROW E2 : ... .. . ... ... ... : G#2 00 B ... ... ... : D#3 00 . ... : ... .. 8 ... : ... .. . ... ... : ... .. . ... ... : ... .. . ... ... : D#3 01 A P80 ...
ROW E3 : ... .. . ... ... ... : ... .. F ... ... ... : ... .. . ... : ... .. 6 ... : ... .. . ... ... : ... .. 3 ... ... : ... .. 3 ... ... : ... .. 8 ... ...
ROW E4 : ... .. . ... ... ... : ... .. B ... ... ... : ... .. . ... : ... .. 3 ... : ... .. . ... ... : ... .. . ... ... : ... .. . ... ... : ... .. 5 ... ...
ROW E5 : ... .. . ... ... ... : ... .. 0 ... ... ... : ... .. . ... : ... .. 1 ... : ... .. . ... ... : ... .. . ... ... : ... .. . ... ... : ... .. . ... ...
ROW E6 : ... .. . ... ... ... : G#2 00 8 P80 ... ... : ... .. . ... : ... .. . ... : ... .. . ... ... : ... .. . ... ... : ... .. . ... ... : ... .. . ... ...
ROW E7 : ... .. . ... ... ... : ... .. C ... ... ... : --- .. . ... : ... .. 0 ... : ... .. . ... ... : ... .. . ... ... : ... .. . ... ... : --- .. . P7F ...
ROW E8 : ... .. . ... ... ... : C#3 00 B ... ... ... : C#3 00 . ... : 4-# 00 F ... : ... .. . ... ... : ... .. . ... ... : ... .. . ... ... : C#3 01 A P80 ...
ROW E9 : ... .. . ... ... ... : ... .. F ... ... ... : ... .. . ... : ... .. C ... : ... .. . ... ... : ... .. . ... ... : ... .. . ... ... : ... .. 8 ... ...
ROW EA : ... .. . ... ... ... : ... .. B ... ... ... : ... .. . ... : ... .. 6 ... : ... .. . ... ... : ... .. . ... ... : ... .. . ... ... : ... .. 5 ... ...
ROW EB : ... .. . ... ... ... : ... .. 0 ... ... ... : ... .. . ... : ... .. 3 ... : ... .. . ... ... : ... .. . ... ... : ... .. . ... ... : ... .. . ... ...
ROW EC : ... .. 2 ... ... ... : C#3 00 8 P80 ... ... : ... .. . ... : ... .. 2 ... : ... .. . ... ... : ... .. . ... ... : ... .. . ... ... : ... .. . ... ...
ROW ED : ... .. . ... ... ... : ... .. C ... ... ... : --- .. . ... : ... .. 0 ... : ... .. . ... ... : ... .. . ... ... : ... .. . ... ... : --- .. . ... ...
ROW EE : G#2 00 F ... ... ... : E-3 00 B ... ... ... : G#3 00 . ... : 9-# 00 8 ... : ... .. . ... ... : G#4 01 6 ... ... : A#3 01 6 ... ... : G#3 01 A ... ...
ROW EF : ... .. E ... ... ... : ... .. F ... ... ... : ... .. . ... : ... .. 6 ... : ... .. . ... ... : ... .. . ... ... : ... .. . ... ... : ... .. 8 ... ...
ROW F0 : ... .. D ... ... ... : ... .. B ... ... ... : ... .. . ... : ... .. 3 ... : ... .. . ... ... : ... .. 5 ... ... : ... .. 5 ... ... : ... .. 5 ... ...
ROW F1 : ... .. A ... ... ... : ... .. 0 ... ... ... : ... .. . ... : ... .. 1 ... : ... .. . ... ... : ... .. 4 ... ... : ... .. 4 ... ... : ... .. . ... ...
ROW F2 : ... .. . ... ... ... : E-3 00 8 P80 ... ... : ... .. . ... : ... .. . ... : ... .. . ... ... : ... .. . ... ... : ... .. . ... ... : ... .. . ... ...
ROW F3 : ... .. . ... ... ... : ... .. C ... ... ... : --- .. . ... : ... .. 0 ... : ... .. . ... ... : ... .. . ... ... : ... .. . ... ... : --- .. . P7F ...
ROW F4 : ... .. . ... ... ... : C#3 00 B ... ... ... : E-3 00 . ... : 7-# 00 F ... : ... .. . ... ... : ... .. . ... ... : ... .. . ... ... : E-3 01 A P80 ...
ROW F5 : ... .. . ... ... ... : ... .. F ... ... ... : ... .. . ... : ... .. C ... : ... .. . ... ... : ... .. 3 ... ... : ... .. 3 ... ... : ... .. 8 ... ...
ROW F6 : ... .. . ... ... ... : ... .. B ... ... ... : ... .. . ... : ... .. 6 ... : ... .. . ... ... : ... .. . ... ... : ... .. . ... ... : ... .. 5 ... ...
ROW F7 : A-2 00 A P81 ... ... : ... .. 0 ... ... ... : ... .. . ... : ... .. 3 ... : ... .. . ... ... : ... .. . ... ... : ... .. . ... ... : ... .. . ... ...
ROW F8 : A#2 00 A P85 ... ... : C#3 00 8 P80 ... ... : ... .. . ... : ... .. 2 ... : ... .. . ... ... : ... .. . ... ... : ... .. . ... ... : ... .. . ... ...
ROW F9 : B-2 00 A P8A ... ... : ... .. C ... ... ... : --- .. . ... : ... .. 0 ... : ... .. . ... ... : ... .. . ... ... : ... .. . ... ... : --- .. . P7D ...
ROW FA : C#3 00 A P79 ... ... : G#2 00 B ... ... ... : C#3 00 . ... : 5-# 00 8 ... : ... .. . ... ... : ... .. . ... ... : ... .. . ... ... : C#3 01 A P80 ...
ROW FB : D-3 00 A P82 ... ... : ... .. F ... ... ... : ... .. . ... : ... .. 6 ... : ... .. . ... ... : ... .. . ... ... : ... .. . ... ... : ... .. 8 ... ...
ROW FC : E-3 00 A P78 ... ... : ... .. B ... ... ... : ... .. . ... : ... .. 3 ... : ... .. . ... ... : ... .. . ... ... : ... .. . ... ... : ... .. 5 ... ...
ROW FD : F-3 00 A P85 ... ... : ... .. 0 ... ... ... : ... .. . ... : ... .. 1 ... : ... .. . ... ... : ... .. . ... ... : ... .. . ... ... : ... .. . ... ...
ROW FE : G-3 00 A P82 ... ... : G#2 00 8 P80 ... ... : ... .. . ... : ... .. . ... : ... .. . ... ... : ... .. . ... ... : ... .. . ... ... : ... .. . ... ...
ROW FF : A-3 00 A P83 ... ... : ... .. C ... ... ... : --- .. . ... : ... .. 0 ... : ... .. . ... ... : ... .. . ... ... : ... .. . ... ... : --- .. . ... ...

PATTERN 09
ROW 00 : C#5 00 F P80 ... ... : A#3 00 F ... ... ... : F-4 00 . ... : B-# 00 D ... : ... .. . ... ... : F#3 01 A ... ... : D#3 01 A ... ... : F#3 01 F ... ...
ROW 01 : ... .. E ... ... ... : ... .. E ... ... ... : G-3 00 . ... : ... .. B ... : ... .. . ... ... : ... .. 9 ... ... : ... .. 9 ... ... : ... .. D ... ...
ROW 02 : ... .. D ... ... ... : ... .. D ... ... ... : C-3 00 . ... : ... .. . ... : ... .. . ... ... : ... .. 8 ... ... : ... .. 8 ... ... : ... .. 8 ... ...
ROW 03 : ... .. A ... ... ... : ... .. A ... ... ... : B-2 00 . ... : ... .. A ... : ... .. . ... ... : ... .. 7 ... ... : ... .. 7 ... ... : ... .. . ... ...
ROW 04 : ... .. . ... ... ... : ... .. . ... ... ... : F#2 00 . ... : ... .. 8 ... : ... .. . ... ... : ... .. . ... ... : ... .. . ... ... : ... .. . ... ...
ROW 05 : ... .. . ... ... ... : ... .. . ... ... ... : ... .. . ... : ... .. 7 ... : ... .. . ... ... : ... .. 6 ... ... : ... .. 6 ... ... : ... .. . ... ...
ROW 06 : ... .. . ... ... ... : ... .. . ... ... ... : ... .. . ... : C-# 00 8 ... : ... .. . ... ... : ... .. 5 ... ... : ... .. 5 ... ... : ... .. . ... ...
ROW 07 : ... .. 2 ... ... ... : ... .. 2 ... ... ... : ... .. . ... : ... .. 6 ... : ... .. . ... ... : ... .. . ... ... : ... .. . ... ... : ... .. 4 ... ...
ROW 08 : ... .. . ... ... ... : ... .. . ... ... ... : ... .. . ... : ... .. 3 ... : ... .. . ... ... : ... .. 3 ... ... : ... .. 3 ... ... : ... .. . ... ...
ROW 09 : ... .. . ... ... ... : ... .. . ... ... ... : F-2 00 . P84 : ... .. 1 ... : ... .. . ... ... : ... .. . ... ... : ... .. . ... ... : ... .. 1 ... ...
ROW 0A : ... .. 1 ... ... ... : ... .. 1 ... ... ... : E-2 00 . P8A : ... .. . ... : ... .. . ... ... : ... .. . ... ... : ... .. . ... ... : ... .. . ... ...
ROW 0B : ... .. . ... ... ... : ... .. . ... ... ... : D#2 00 . P92 : ... .. 0 ... : ... .. . ... ... : ... .. . ... ... : ... .. . ... ... : ... .. . ... ...
ROW 0C : F#5 00 F ... ... ... : C#4 00 F ... ... ... : G-4 00 . P80 : B-# 00 D ... : ... .. . ... ... : A#3 01 A ... ... : G#3 01 A ... ... : A#3 01 F ... ...
ROW 0D : ... .. E ... ... ... : ... .. E ... ... ... : A-3 00 . ... : ... .. B ... : ... .. . ... ... : ... .. 9 ... ... : ... .. 9 ... ... : ... .. D ... ...
ROW 0E : ... .. D ... ... ... : ... .. D ... ... ... : D-3 00 . ... : ... .. . ... : ... .. . ... ... : ... .. 8 ... ... : ... .. 8 ... ... : ... .. 8 ... ...
ROW 0F : ... .. A ... ... ... : ... .. A ... ... ... : C#3 00 . ... : ... .. A ... : ... .. . ... ... : ... .. 7 ... ... : ... .. 7 ... ... : ... .. . ... ...
ROW 10 : ... .. . ... ... ... : ... .. . ... ... ... : G#2 00 . ... : ... .. 8 ... : ... .. . ... ... : ... .. . ... ... : ... .. . ... ... : ... .. . ... ...
ROW 11 : ... .. . ... ... ... : ... .. . ... ... ... : ... .. . ... : ... .. 7 ... : ... .. . ... ... : ... .. 6 ... ... : ... .. 6 ... ... : ... .. . ... ...
ROW 12 : ... .. . ... ... ... : ... .. . ... ... ... : ... .. . ... : 1-# 00 F ... : ... .. . ... ... : ... .. 5 ... ... : ... .. 5 ... ... : ... .. . ... ...
ROW 13 : ... .. 2 ... ... ... : ... .. 2 ... ... ... : ... .. . ... : ... .. C ... : ... .. . ... ... : ... .. . ... ... : ... .. . ... ... : ... .. 4 ... ...
ROW 14 : ... .. . ... ... ... : ... .. . ... ... ... : ... .. . ... : ... .. 6 ... : ... .. . ... ... : ... .. 3 ... ... : ... .. 3 ... ... : ... .. . ... ...
ROW 15 : ... .. . ... ... ... : ... .. . ... ... ... : ... .. . ... : ... .. 3 ... : ... .. . ... ... : ... .. . ... ... : ... .. . ... ... : ... .. 1 ... ...
ROW 16 : ... .. 1 ... ... ... : ... .. 1 ... ... ... : ... .. . ... : ... .. 2 ... : ... .. . ... ... : ... .. . ... ... : ... .. . ... ... : ... .. . ... ...
ROW 17 : ... .. . ... ... ... : ... .. . ... ... ... : ... .. . ... : ... .. 0 ... : ... .. . ... ... : ... .. . ... ... : ... .. . ... ... : ... .. . ... ...
ROW 18 : C#5 00 F ... ... ... : A#3 00 F ... ... ... : C#3 00 . ... : B-# 00 D ... : ... .. . ... ... : F#3 01 A ... ... : C#3 01 A ... ... : F#3 01 F ... ...
ROW 19 : ... .. E ... ... ... : ... .. E ... ... ... : ... .. . ... : ... .. B ... : ... .. . ... ... : ... .. 9 ... ... : ... .. 9 ... ... : ... .. D ... ...
ROW 1A : ... .. D ... ... ... : ... .. D ... ... ... : ... .. . ... : ... .. . ... : ... .. . ... ... : ... .. 8 ... ... : ... .. 8 ... ... : ... .. 8 ... ...
ROW 1B : ... .. A ... ... ... : ... .. A ... ... ... : ... .. . ... : ... .. A ... : ... .. . ... ... : ... .. 7 ... ... : ... .. 7 ... ... : ... .. . ... ...
ROW 1C : ... .. . ... ... ... : ... .. . ... ... ... : ... .. . ... : ... .. 8 ... : ... .. . ... ... : ... .. . ... ... : ... .. . ... ... : ... .. . ... ...
ROW 1D : ... .. . ... ... ... : ... .. . ... ... ... : ... .. . ... : ... .. 7 ... : ... .. . ... ... : ... .. 6 ... ... : ... .. 6 ... ... : ... .. . ... ...
ROW 1E : ... .. . ... ... ... : ... .. . ... ... ... : D#3 00 . ... : C-# 00 8 ... : ... .. . ... ... : ... .. 5 ... ... : ... .. 5 ... ... : ... .. . ... ...
ROW 1F : ... .. 2 ... ... ... : ... .. 2 ... ... ... : ... .. . ... : ... .. 6 ... : ... .. . ... ... : ... .. . ... ... : ... .. . ... ... : ... .. 4 ... ...
ROW 20 : ... .. . ... ... ... : ... .. . ... ... ... : ... .. . ... : ... .. 3 ... : ... .. . ... ... : ... .. 3 ... ... : ... .. 3 ... ... : ... .. . ... ...
ROW 21 : ... .. . ... ... ... : ... .. . ... ... ... : ... .. . ... : ... .. 1 ... : ... .. . ... ... : ... .. . ... ... : ... .. . ... ... : ... .. 1 ... ...
ROW 22 : ... .. 1 ... ... ... : ... .. 1 ... ... ... : ... .. . ... : ... .. . ... : ... .. . ... ... : ... .. . ... ... : ... .. . ... ... : ... .. . ... ...
ROW 23 : ... .. . ... ... ... : ... .. . ... ... ... : ... .. . ... : ... .. 0 ... : ... .. . ... ... : ... .. . ... ... : ... .. . ... ... : ... .. . ... ...
ROW 24 : D#5 00 F ... ... ... : B-3 00 F ... ... ... : G-5 00 . ... : B-# 00 D ... : ... .. . ... ... : G#3 01 A ... ... : ... .. A ... ... : D#3 01 F ... ...
ROW 25 : ... .. E ... ... ... : ... .. E ... ... ... : A-4 00 . ... : ... .. B ... : ... .. . ... ... : ... .. 9 ... ... : ... .. 9 ... ... : ... .. D ... ...
ROW 26 : ... .. D ... ... ... : ... .. D ... ... ... : D-4 00 . ... : ... .. . ... : ... .. . ... ... : ... .. 8 ... ... : ... .. 8 ... ... : ... .. 8 ... ...
ROW 27 : ... .. A ... ... ... : ... .. A ... ... ... : C#4 00 . ... : ... .. A ... : ... .. . ... ... : ... .. 7 ... ... : ... .. 7 ... ... : ... .. . ... ...
ROW 28 : ... .. . ... ... ... : ... .. . ... ... ... : G#3 00 . ... : ... .. 8 ... : ... .. . ... ... : ... .. . ... ... : ... .. . ... ... : ... .. . ... ...
ROW 29 : ... .. . ... ... ... : ... .. . ... ... ... : --- .. . ... : ... .. 7 ... : ... .. . ... ... : ... .. 6 ... ... : ... .. 6 ... ... : ... .. . ... ...
ROW 2A : ... .. . ... ... ... : ... .. . ... ... ... : F#3 00 . ... : ... .. 6 ... : ... .. . ... ... : ... .. . ... ... : B-2 01 A ... ... : ... .. . ... ...
ROW 2B : ... .. . ... ... ... : ... .. . ... ... ... : ... .. . ... : ... .. . ... : ... .. . ... ... : ... .. 5 ... ... : ... .. 9 ... ... : ... .. . ... ...
ROW 2C : ... .. . ... ... ... : ... .. . ... ... ... : ... .. . ... : ... .. 5 ... : ... .. . ... ... : ... .. . ... ... : ... .. 8 ... ... : ... .. . ... ...
ROW 2D : ... .. . ... ... ... : ... .. . ... ... ... : ... .. . ... : ... .. . ... : ... .. . ... ... : ... .. . ... ... : ... .. 5 ... ... : ... .. . ... ...
ROW 2E : ... .. . ... ... ... : ... .. . ... ... ... : ... .. . ... : ... .. 4 ... : ... .. . ... ... : ... .. . ... ... : ... .. . ... ... : ... .. . ... ...
ROW 2F : ... .. . ... ... ... : ... .. . ... ... ... : --- .. . ... : ... .. . ... : ... .. . ... ... : ... .. . ... ... : ... .. 3 ... ... : ... .. . ... ...
ROW 30 : E-5 00 A P7F ... ... : C-4 00 A P7E ... ... : G#3 00 . ... : 7-# 00 F ... : ... .. . ... ... : ... .. . ... ... : A#2 01 A ... ... : ... .. . ... ...
ROW 31 : ... .. . P81 ... ... : ... .. . P84 ... ... : ... .. . ... : ... .. C ... : ... .. . ... ... : ... .. . ... ... : ... .. 9 ... ... : ... .. . ... ...
ROW 32 : ... .. . P80 ... ... : ... .. . P82 ... ... : ... .. . ... : ... .. 6 ... : ... .. . ... ... : ... .. . ... ... : ... .. 8 ... ... : ... .. . ... ...
ROW 33 : D#5 00 A P82 ... ... : B-3 00 A P84 ... ... : ... .. . ... : ... .. 3 ... : ... .. . ... ... : ... .. . ... ... : ... .. 5 ... ... : ... .. . ... ...
ROW 34 : ... .. 2 P7E ... ... : ... .. 2 P7C ... ... : ... .. . ... : ... .. 2 ... : ... .. . ... ... : ... .. . ... ... : ... .. . ... ... : ... .. . ... ...
ROW 35 : D-5 00 2 P80 ... ... : A#3 00 2 P80 ... ... : --- .. . ... : ... .. 0 ... : ... .. . ... ... : ... .. . ... ... : ... .. 3 ... ... : ... .. . ... ...
ROW 36 : G#2 00 F ... ... ... : D#3 00 B ... ... ... : G#4 00 . ... : 1-# 00 8 ... : ... .. . ... ... : ... .. . ... ... : B-2 01 A ... ... : B-2 01 F ... ...
ROW 37 : ... .. E ... ... ... : ... .. F ... ... ... : ... .. . ... : ... .. 6 ... : ... .. . ... ... : ... .. . ... ... : ... .. 9 ... ... : ... .. D ... ...
ROW 38 : ... .. D ... ... ... : ... .. B ... ... ... : ... .. . ... : ... .. 3 ... : ... .. . ... ... : ... .. . ... ... : ... .. 8 ... ... : ... .. 8 ... ...
ROW 39 : ... .. A ... ... ... : ... .. 0 ... ... ... : ... .. . ... : ... .. 1 ... : ... .. . ... ... : ... .. . ... ... : ... .. 7 ... ... : ... .. . ... ...
ROW 3A : ... .. . ... ... ... : D#3 00 8 P80 ... ... : ... .. . ... : ... .. . ... : ... .. . ... ... : ... .. . ... ... : ... .. . ... ... : ... .. . ... ...
ROW 3B : ... .. . ... ... ... : ... .. C ... ... ... : --- .. . ... : ... .. 0 ... : ... .. . ... ... : ... .. . ... ... : ... .. 6 ... ... : ... .. . ... ...
ROW 3C : G#1 00 F ... ... ... : D#2 00 B ... ... ... : G#3 00 . ... : 7-# 00 F ... : ... .. . ... ... : ... .. . ... ... : A#2 01 A ... ... : ... .. . ... ...
ROW 3D : ... .. E ... ... ... : ... .. F ... ... ... : ... .. . ... : ... .. C ... : ... .. . ... ... : ... .. . ... ... : ... .. 9 ... ... : ... .. . ... ...
ROW 3E : ... .. D ... ... ... : ... .. B ... ... ... : ... .. . ... : ... .. 6 ... : ... .. . ... ... : ... .. . ... ... : ... .. 8 ... ... : ... .. . ... ...
ROW 3F : ... .. A ... ... ... : ... .. 0 ... ... ... : ... .. . ... : ... .. 3 ... : ... .. . ... ... : ... .. . ... ... : ... .. 5 ... ... : ... .. . ... ...
ROW 40 : ... .. 2 ... ... ... : D#2 00 8 P80 ... ... : ... .. . ... : ... .. 2 ... : ... .. . ... ... : ... .. . ... ... : ... .. . ... ... : ... .. . ... ...
ROW 41 : ... .. . ... ... ... : ... .. C ... ... ... : --- .. . ... : ... .. 0 ... : ... .. . ... ... : ... .. . ... ... : ... .. 3 ... ... : ... .. . ... ...
ROW 42 : ... .. F ... ... ... : G#2 00 B ... ... ... : G#2 00 . ... : 1-# 00 8 ... : ... .. . ... ... : ... .. . ... ... : G#2 01 A ... ... : ... .. . ... ...
ROW 43 : ... .. E ... ... ... : ... .. F ... ... ... : ... .. . ... : ... .. 6 ... : ... .. . ... ... : ... .. . ... ... : ... .. 9 ... ... : ... .. . ... ...
ROW 44 : ... .. D ... ... ... : ... .. B ... ... ... : ... .. . ... : ... .. 3 ... : ... .. . ... ... : ... .. . ... ... : ... .. 8 ... ... : ... .. . ... ...
ROW 45 : ... .. A ... ... ... : ... .. 0 ... ... ... : ... .. . ... : ... .. 1 ... : ... .. . ... ... : ... .. . ... ... : ... .. 5 ... ... : ... .. . ... ...
ROW 46 : ... .. 2 ... ... ... : G#2 00 8 P80 ... ... : ... .. . ... : ... .. . ... : ... .. . ... ... : ... .. . ... ... : ... .. . ... ... : ... .. . ... ...
ROW 47 : ... .. . ... ... ... : ... .. C ... ... ... : --- .. . ... : ... .. 0 ... : ... .. . ... ... : ... .. . ... ... : ... .. 3 ... ... : ... .. . ... ...
ROW 48 : C#4 00 F ... ... ... : A#2 00 F ... ... ... : F-4 00 . ... : B-# 00 D ... : ... .. . ... ... : F#2 01 A ... ... : D#2 01 A ... ... : A#2 01 F ... ...
ROW 49 : ... .. E ... ... ... : ... .. E ... ... ... : G-3 00 . ... : ... .. B ... : ... .. . ... ... : ... .. 9 ... ... : ... .. 9 ... ... : ... .. D ... ...
ROW 4A : ... .. D ... ... ... : ... .. D ... ... ... : C-3 00 . ... : ... .. . ... : ... .. . ... ... : ... .. 8 ... ... : ... .. 8 ... ... : ... .. 8 ... ...
ROW 4B : ... .. A ... ... ... : ... .. A ... ... ... : B-2 00 . ... : ... .. A ... : ... .. . ... ... : ... .. 7 ... ... : ... .. 7 ... ... : ... .. . ... ...
ROW 4C : ... .. . ... ... ... : ... .. . ... ... ... : F#2 00 . ... : ... .. 8 ... : ... .. . ... ... : ... .. . ... ... : ... .. . ... ... : ... .. . ... ...
ROW 4D : ... .. . ... ... ... : ... .. . ... ... ... : ... .. . ... : ... .. 7 ... : ... .. . ... ... : ... .. 6 ... ... : ... .. 6 ... ... : ... .. . ... ...
ROW 4E : ... .. . ... ... ... : ... .. . ... ... ... : ... .. . ... : C-# 00 8 ... : ... .. . ... ... : ... .. 5 ... ... : ... .. 5 ... ... : ... .. . ... ...
ROW 4F : ... .. 2 ... ... ... : ... .. 2 ... ... ... : ... .. . ... : ... .. 6 ... : ... .. . ... ... : ... .. . ... ... : ... .. . ... ... : ... .. . ... ...
ROW 50 : ... .. . ... ... ... : ... .. . ... ... ... : ... .. . ... : ... .. 3 ... : ... .. . ... ... : ... .. 3 ... ... : ... .. 3 ... ... : ... .. . ... ...
ROW 51 : ... .. . ... ... ... : ... .. . ... ... ... : --- .. . ... : ... .. 1 ... : ... .. . ... ... : ... .. . ... ... : ... .. . ... ... : ... .. . ... ...
ROW 52 : ... .. 1 ... ... ... : ... .. 1 ... ... ... : ... .. . ... : ... .. . ... : ... .. . ... ... : ... .. . ... ... : ... .. . ... ... : ... .. . ... ...
ROW 53 : ... .. . ... ... ... : ... .. . ... ... ... : ... .. . ... : ... .. 0 ... : ... .. . ... ... : ... .. . ... ... : ... .. . ... ... : ... .. . ... ...
ROW 54 : F#4 00 F ... ... ... : C#3 00 F ... ... ... : G-4 00 . ... : B-# 00 D ... : ... .. . ... ... : A#2 01 A ... ... : G#2 01 A ... ... : B-2 01 F ... ...
ROW 55 : ... .. E ... ... ... : ... .. E ... ... ... : A-3 00 . ... : ... .. B ... : ... .. . ... ... : ... .. 9 ... ... : ... .. 9 ... ... : ... .. D ... ...
ROW 56 : ... .. D ... ... ... : ... .. D ... ... ... : D-3 00 . ... : ... .. . ... : ... .. . ... ... : ... .. 8 ... ... : ... .. 8 ... ... : ... .. 8 ... ...
ROW 57 : ... .. A ... ... ... : ... .. A ... ... ... : C#3 00 . ... : ... .. A ... : ... .. . ... ... : ... .. 7 ... ... : ... .. 7 ... ... : ... .. . ... ...
ROW 58 : ... .. . ... ... ... : ... .. . ... ... ... : G#2 00 . ... : ... .. 8 ... : ... .. . ... ... : ... .. . ... ... : ... .. . ... ... : ... .. . ... ...
ROW 59 : ... .. . ... ... ... : ... .. . ... ... ... : ... .. . ... : ... .. 7 ... : ... .. . ... ... : ... .. 6 ... ... : ... .. 6 ... ... : ... .. . ... ...
ROW 5A : ... .. . ... ... ... : ... .. . ... ... ... : ... .. . ... : 1-# 00 F ... : ... .. . ... ... : ... .. 5 ... ... : ... .. 5 ... ... : ... .. . ... ...
ROW 5B : ... .. 2 ... ... ... : ... .. 2 ... ... ... : ... .. . ... : ... .. C ... : ... .. . ... ... : ... .. . ... ... : ... .. . ... ... : ... .. . ... ...
ROW 5C : ... .. . ... ... ... : ... .. . ... ... ... : ... .. . ... : ... .. 6 ... : ... .. . ... ... : ... .. 3 ... ... : ... .. 3 ... ... : ... .. . ... ...
ROW 5D : ... .. . ... ... ... : ... .. . ... ... ... : ... .. . ... : ... .. 3 ... : ... .. . ... ... : ... .. . ... ... : ... .. . ... ... : ... .. . ... ...
ROW 5E : ... .. 1 ... ... ... : ... .. 1 ... ... ... : ... .. . ... : ... .. 2 ... : ... .. . ... ... : ... .. . ... ... : ... .. . ... ... : ... .. . ... ...
ROW 5F : ... .. . ... ... ... : ... .. . ... ... ... : ... .. . ... : ... .. 0 ... : ... .. . ... ... : ... .. . ... ... : ... .. . ... ... : ... .. . ... ...
ROW 60 : A#4 00 F ... ... ... : F#4 00 F ... ... ... : ... .. . ... : B-# 00 D ... : ... .. . ... ... : F#2 01 A ... ... : C#2 01 A ... ... : A#3 01 F ... ...
ROW 61 : ... .. E ... ... ... : ... .. E ... ... ... : ... .. . ... : ... .. B ... : ... .. . ... ... : ... .. 9 ... ... : ... .. 9 ... ... : ... .. D ... ...
ROW 62 : ... .. D ... ... ... : ... .. D ... ... ... : ... .. . ... : ... .. . ... : ... .. . ... ... : ... .. 8 ... ... : ... .. 8 ... ... : ... .. 8 ... ...
ROW 63 : ... .. A ... ... ... : ... .. A ... ... ... : ... .. . ... : ... .. A ... : ... .. . ... ... : ... .. 7 ... ... : ... .. 7 ... ... : ... .. . ... ...
ROW 64 : ... .. . ... ... ... : ... .. . ... ... ... : ... .. . ... : ... .. 8 ... : ... .. . ... ... : ... .. . ... ... : ... .. . ... ... : ... .. . ... ...
ROW 65 : ... .. . ... ... ... : ... .. . ... ... ... : ... .. . ... : ... .. 7 ... : ... .. . ... ... : ... .. 6 ... ... : ... .. 6 ... ... : ... .. . ... ...
ROW 66 : ... .. . ... ... ... : ... .. . ... ... ... : A#2 00 . ... : C-# 00 8 ... : ... .. . ... ... : ... .. 5 ... ... : ... .. 5 ... ... : ... .. . ... ...
ROW 67 : ... .. 2 ... ... ... : ... .. 2 ... ... ... : ... .. . ... : ... .. 6 ... : ... .. . ... ... : ... .. . ... ... : ... .. . ... ... : ... .. . ... ...
ROW 68 : ... .. . ... ... ... : ... .. . ... ... ... : ... .. . ... : ... .. 3 ... : ... .. . ... ... : ... .. 3 ... ... : ... .. 3 ... ... : ... .. . ... ...
ROW 69 : ... .. . ... ... ... : ... .. . ... ... ... : ... .. . ... : ... .. 1 ... : ... .. . ... ... : ... .. . ... ... : ... .. . ... ... : ... .. . ... ...
ROW 6A : ... .. 1 ... ... ... : ... .. 1 ... ... ... : ... .. . ... : ... .. . ... : ... .. . ... ... : ... .. . ... ... : ... .. . ... ... : ... .. . ... ...
ROW 6B : ... .. . ... ... ... : ... .. . ... ... ... : ... .. . ... : ... .. 0 ... : ... .. . ... ... : ... .. . ... ... : ... .. . ... ... : ... .. . ... ...
ROW 6C : B-4 00 F ... ... ... : F#3 00 F ... ... ... : B-2 00 . ... : B-# 00 D ... : ... .. . ... ... : G#2 01 6 ... ... : D#2 01 6 ... ... : F#3 01 A ... ...
ROW 6D : ... .. E ... ... ... : ... .. E ... ... ... : ... .. . ... : ... .. B ... : ... .. . ... ... : ... .. . ... ... : ... .. . ... ... : ... .. 8 ... ...
ROW 6E : ... .. D ... ... ... : ... .. D ... ... ... : ... .. . ... : ... .. . ... : ... .. . ... ... : ... .. 5 ... ... : ... .. 5 ... ... : ... .. 5 ... ...
ROW 6F : ... .. A ... ... ... : ... .. A ... ... ... : ... .. . ... : ... .. A ... : ... .. . ... ... : ... .. 4 ... ... : ... .. 4 ... ... : ... .. . ... ...
ROW 70 : ... .. . ... ... ... : ... .. . ... ... ... : ... .. . ... : ... .. 8 ... : ... .. . ... ... : ... .. . ... ... : ... .. . ... ... : ... .. . ... ...
ROW 71 : ... .. . ... ... ... : ... .. . ... ... ... : --- .. . ... : ... .. 7 ... : ... .. . ... ... : ... .. . ... ... : ... .. . ... ... : ... .. . ... ...
ROW 72 : ... .. . ... ... ... : E-3 00 F ... ... ... : A#2 00 . ... : ... .. 6 ... : ... .. . ... ... : A#2 01 6 ... ... : C#2 01 6 ... ... : ... .. . ... ...
ROW 73 : ... .. . ... ... ... : ... .. E ... ... ... : ... .. . ... : ... .. . ... : ... .. . ... ... : ... .. . ... ... : ... .. . ... ... : ... .. . ... ...
ROW 74 : ... .. . ... ... ... : ... .. D ... ... ... : ... .. . ... : ... .. 5 ... : ... .. . ... ... : ... .. 5 ... ... : ... .. 5 ... ... : ... .. . ... ...
ROW 75 : C-5 00 A P7E ... ... : ... .. A ... ... ... : ... .. . ... : ... .. . ... : ... .. . ... ... : ... .. 4 ... ... : ... .. 3 ... ... : ... .. . ... ...
ROW 76 : ... .. . P80 ... ... : ... .. . ... ... ... : ... .. . ... : ... .. 4 ... : ... .. . ... ... : ... .. . ... ... : ... .. . ... ... : ... .. . ... ...
ROW 77 : ... .. . P7F ... ... : ... .. . ... ... ... : --- .. . ... : ... .. . ... : ... .. . ... ... : ... .. . ... ... : ... .. 2 ... ... : ... .. . ... ...
ROW 78 : B-4 00 A P82 ... ... : D#3 00 F ... ... ... : B-2 00 . ... : 0-# 00 D ... : ... .. . ... ... : B-2 01 6 ... ... : B-1 01 6 ... ... : G#3 01 A ... ...
ROW 79 : ... .. . P7E ... ... : ... .. E ... ... ... : ... .. . ... : ... .. . ... : ... .. . ... ... : ... .. . ... ... : ... .. . ... ... : ... .. 8 ... ...
ROW 7A : A#4 00 A P82 ... ... : ... .. D ... ... ... : ... .. . ... : C-# 00 D ... : ... .. . ... ... : ... .. 5 ... ... : ... .. 5 ... ... : ... .. 5 ... ...
ROW 7B : ... .. . P81 ... ... : ... .. A ... ... ... : ... .. . ... : A-# 00 6 ... : ... .. . ... ... : ... .. 4 ... ... : ... .. 4 ... ... : ... .. . ... ...
ROW 7C : ... .. . P83 ... ... : ... .. . ... ... ... : ... .. . ... : 6-# 00 1 ... : ... .. . ... ... : ... .. . ... ... : ... .. . ... ... : ... .. . ... ...
ROW 7D : B-4 00 A P80 ... ... : ... .. . ... ... ... : --- .. . ... : ... .. 0 ... : ... .. . ... ... : ... .. . ... ... : ... .. . ... ... : ... .. . ... ...
ROW 7E : C#5 00 F ... ... ... : ... .. F ... ... ... : C#3 00 . ... : 9-# 00 D ... : ... .. . ... ... : ... .. 6 ... ... : ... .. 6 ... ... : ... .. . ... ...
ROW 7F : ... .. E ... ... ... : ... .. E ... ... ... : ... .. . ... : ... .. . ... : ... .. . ... ... : ... .. . ... ... : ... .. . ... ... : ... .. . ... ...
ROW 80 : ... .. D ... ... ... : ... .. D ... ... ... : ... .. . ... : 5-# 00 D ... : ... .. . ... ... : ... .. 5 ... ... : ... .. 5 ... ... : ... .. . ... ...
ROW 81 : ... .. A ... ... ... : ... .. A ... ... ... : ... .. . ... : 3-# 00 6 ... : ... .. . ... ... : ... .. 4 ... ... : ... .. 4 ... ... : ... .. . ... ...
ROW 82 : ... .. . ... ... ... : ... .. . ... ... ... : ... .. . ... : F-# 00 1 ... : ... .. . ... ... : ... .. . ... ... : ... .. . ... ... : ... .. . ... ...
ROW 83 : ... .. . ... ... ... : ... .. . ... ... ... : --- .. . ... : ... .. 0 ... : ... .. . ... ... : ... .. . ... ... : ... .. . ... ... : ... .. . ... ...
ROW 84 : ... .. . ... ... ... : C#3 00 F ... ... ... : D#3 00 . ... : 9-# 00 D ... : ... .. . ... ... : C#3 01 6 ... ... : A#1 01 6 ... ... : D#4 01 A ... ...
ROW 85 : ... .. . ... ... ... : ... .. E ... ... ... : ... .. . ... : ... .. . ... : ... .. . ... ... : ... .. . ... ... : ... .. . ... ... : ... .. 8 ... ...
ROW 86 : ... .. . ... ... ... : ... .. D ... ... ... : ... .. . ... : 5-# 00 D ... : ... .. . ... ... : ... .. 5 ... ... : ... .. 5 ... ... : ... .. 5 ... ...
ROW 87 : ... .. . ... ... ... : ... .. A ... ... ... : ... .. . ... : 3-# 00 6 ... : ... .. . ... ... : ... .. 4 ... ... : ... .. 4 ... ... : ... .. . ... ...
ROW 88 : ... .. . ... ... ... : ... .. . ... ... ... : ... .. . ... : F-# 00 1 ... : ... .. . ... ... : ... .. . ... ... : ... .. . ... ... : ... .. . ... ...
ROW 89 : ... .. . ... ... ... : ... .. . ... ... ... : --- .. . ... : ... .. 0 ... : ... .. . ... ... : ... .. . ... ... : ... .. . ... ... : ... .. . ... ...
ROW 8A : ... .. 5 ... ... ... : B-2 00 F ... ... ... : F#3 00 . ... : 8-# 00 D ... : ... .. . ... ... : D#3 01 6 ... ... : G#1 01 6 ... ... : ... .. . ... ...
ROW 8B : ... .. . ... ... ... : ... .. E ... ... ... : ... .. . ... : ... .. . ... : ... .. . ... ... : ... .. . ... ... : ... .. . ... ... : ... .. . ... ...
ROW 8C : ... .. . ... ... ... : ... .. D ... ... ... : ... .. . ... : 4-# 00 D ... : ... .. . ... ... : ... .. 5 ... ... : ... .. 5 ... ... : ... .. . ... ...
ROW 8D : ... .. . ... ... ... : ... .. A ... ... ... : ... .. . ... : 2-# 00 6 ... : ... .. . ... ... : ... .. 4 ... ... : ... .. 4 ... ... : ... .. . ... ...
ROW 8E : ... .. . ... ... ... : ... .. . ... ... ... : ... .. . ... : E-# 00 1 ... : ... .. . ... ... : ... .. . ... ... : ... .. . ... ... : ... .. . ... ...
ROW 8F : ... .. . ... ... ... : ... .. . ... ... ... : --- .. . ... : ... .. 0 ... : ... .. . ... ... : ... .. . ... ... : ... .. . ... ... : ... .. . ... ...
ROW 90 : D#5 00 F ... ... ... : E-2 00 8 ... ... ... : D#5 00 . ... : 1-# 00 F ... : ... .. . ... ... : B-3 01 6 ... ... : G#3 01 6 ... ... : E-4 01 A ... ...
ROW 91 : ... .. E ... ... ... : ... .. B ... ... ... : F-4 00 . ... : ... .. C ... : ... .. . ... ... : ... .. . ... ... : ... .. . ... ... : ... .. 8 ... ...
ROW 92 : ... .. D ... ... ... : ... .. 8 ... ... ... : A#3 00 . ... : ... .. 6 ... : ... .. . ... ... : ... .. 5 ... ... : ... .. 5 ... ... : ... .. 5 ... ...
ROW 93 : ... .. A ... ... ... : ... .. 0 ... ... ... : A-3 00 . ... : ... .. 3 ... : ... .. . ... ... : ... .. 4 ... ... : ... .. 4 ... ... : ... .. . ... ...
ROW 94 : ... .. . ... ... ... : E-2 00 5 P80 ... ... : E-3 00 . ... : ... .. 2 ... : ... .. . ... ... : ... .. . ... ... : ... .. . ... ... : ... .. . ... ...
ROW 95 : ... .. . ... ... ... : ... .. 8 ... ... ... : ... .. . ... : ... .. 0 ... : ... .. . ... ... : ... .. . ... ... : ... .. . ... ... : ... .. . ... ...
ROW 96 : ... .. . ... ... ... : B-1 00 8 ... ... ... : ... .. . ... : C-# 00 8 ... : ... .. . ... ... : ... .. . ... ... : ... .. . ... ... : F#4 01 A ... ...
ROW 97 : ... .. . ... ... ... : ... .. B ... ... ... : ... .. . ... : ... .. 6 ... : ... .. . ... ... : ... .. 3 ... ... : ... .. 3 ... ... : ... .. 8 ... ...
ROW 98 : ... .. . ... ... ... : ... .. 8 ... ... ... : ... .. . ... : ... .. 3 ... : ... .. . ... ... : ... .. . ... ... : ... .. . ... ... : ... .. 5 ... ...
ROW 99 : ... .. . ... ... ... : ... .. 0 ... ... ... : ... .. . ... : ... .. 1 ... : ... .. . ... ... : ... .. . ... ... : ... .. . ... ... : ... .. . ... ...
ROW 9A : ... .. . ... ... ... : B-1 00 5 P80 ... ... : ... .. . ... : ... .. . ... : ... .. . ... ... : ... .. . ... ... : ... .. . ... ... : ... .. . ... ...
ROW 9B : ... .. . ... ... ... : ... .. 8 ... ... ... : ... .. . ... : ... .. 0 ... : ... .. . ... ... : ... .. . ... ... : ... .. . ... ... : ... .. . ... ...
ROW 9C : ... .. . ... ... ... : G#2 00 8 ... ... ... : D-3 00 . P8A : ... .. 8 ... : ... .. . ... ... : ... .. . ... ... : ... .. . ... ... : D#4 01 A ... ...
ROW 9D : ... .. . ... ... ... : ... .. B ... ... ... : C#3 00 . P81 : ... .. 6 ... : ... .. . ... ... : ... .. . ... ... : ... .. . ... ... : ... .. 8 ... ...
ROW 9E : ... .. . ... ... ... : ... .. 8 ... ... ... : C-3 00 . P79 : ... .. 3 ... : ... .. . ... ... : ... .. . ... ... : ... .. . ... ... : ... .. 5 ... ...
ROW 9F : ... .. . ... ... ... : ... .. 0 ... ... ... : A#2 00 . P8D : ... .. 1 ... : ... .. . ... ... : ... .. . ... ... : ... .. . ... ... : ... .. . ... ...
ROW A0 : ... .. . ... ... ... : G#2 00 5 P80 ... ... : A-2 00 . P89 : ... .. . ... : ... .. . ... ... : ... .. . ... ... : ... .. . ... ... : ... .. . ... ...
ROW A1 : ... .. . ... ... ... : ... .. 8 ... ... ... : G#2 00 . P88 : ... .. 0 ... : ... .. . ... ... : ... .. . ... ... : ... .. . ... ... : ... .. . ... ...
ROW A2 : E-5 00 A P7F ... ... : B-2 00 8 ... ... ... : G-5 00 . P80 : 1-# 00 F ... : ... .. . ... ... : C#4 01 6 ... ... : A#3 01 6 ... ... : E-4 01 A ... ...
ROW A3 : ... .. . P81 ... ... : ... .. B ... ... ... : A-4 00 . ... : ... .. C ... : ... .. . ... ... : ... .. . ... ... : ... .. . ... ... : ... .. 8 ... ...
ROW A4 : ... .. . P80 ... ... : ... .. 8 ... ... ... : D-4 00 . ... : ... .. 6 ... : ... .. . ... ... : ... .. 5 ... ... : ... .. 5 ... ... : ... .. 5 ... ...
ROW A5 : D#5 00 A P82 ... ... : ... .. 0 ... ... ... : C#4 00 . ... : ... .. 3 ... : ... .. . ... ... : ... .. 4 ... ... : ... .. 4 ... ... : ... .. . ... ...
ROW A6 : ... .. . P7E ... ... : B-2 00 5 P80 ... ... : G#3 00 . ... : ... .. 2 ... : ... .. . ... ... : ... .. . ... ... : ... .. . ... ... : ... .. . ... ...
ROW A7 : D-5 00 A P80 ... ... : ... .. 8 ... ... ... : --- .. . ... : ... .. 0 ... : ... .. . ... ... : ... .. . ... ... : ... .. . ... ... : ... .. . ... ...
ROW A8 : ... .. . P7F ... ... : E-2 00 8 ... ... ... : F#3 00 . ... : C-# 00 8 ... : ... .. . ... ... : ... .. . ... ... : ... .. . ... ... : C#4 01 A ... ...
ROW A9 : ... .. . P81 ... ... : ... .. B ... ... ... : ... .. . ... : ... .. 6 ... : ... .. . ... ... : ... .. 3 ... ... : ... .. 3 ... ... : ... .. 8 ... ...
ROW AA : D#5 00 A P80 ... ... : ... .. 8 ... ... ... : ... .. . ... : ... .. 3 ... : ... .. . ... ... : ... .. . ... ... : ... .. . ... ... : ... .. 5 ... ...
ROW AB : E-5 00 A P7E ... ... : ... .. 0 ... ... ... : ... .. . ... : ... .. 1 ... : ... .. . ... ... : ... .. . ... ... : ... .. . ... ... : ... .. . ... ...
ROW AC : ... .. . P81 ... ... : E-2 00 5 P80 ... ... : ... .. . ... : ... .. . ... : ... .. . ... ... : ... .. . ... ... : ... .. . ... ... : ... .. . ... ...
ROW AD : ... .. . ... ... ... : ... .. 8 ... ... ... : --- .. . ... : ... .. 0 ... : ... .. . ... ... : ... .. . ... ... : ... .. . ... ... : ... .. . ... ...
ROW AE : D#5 00 A P82 ... ... : E-3 00 8 ... ... ... : G#3 00 . ... : ... .. 8 ... : ... .. . ... ... : ... .. . ... ... : ... .. . ... ... : D#4 01 A ... ...
ROW AF : C#5 00 A P81 ... ... : ... .. B ... ... ... : ... .. . ... : ... .. 6 ... : ... .. . ... ... : ... .. . ... ... : ... .. . ... ... : ... .. 8 ... ...
ROW B0 : B-4 00 A P80 ... ... : ... .. 8 ... ... ... : ... .. . ... : ... .. 3 ... : ... .. . ... ... : ... .. . ... ... : ... .. . ... ... : ... .. 5 ... ...
ROW B1 : A#4 00 A P7D ... ... : ... .. 0 ... ... ... : --- .. . ... : ... .. 1 ... : ... .. . ... ... : ... .. . ... ... : ... .. . ... ... : ... .. . ... ...
ROW B2 : A-4 00 A ... ... ... : E-3 00 5 P80 ... ... : ... .. . ... : ... .. . ... : ... .. . ... ... : ... .. . ... ... : ... .. . ... ... : ... .. . ... ...
ROW B3 : G#4 00 A P80 ... ... : ... .. 8 ... ... ... : ... .. . ... : ... .. 0 ... : ... .. . ... ... : ... .. . ... ... : ... .. . ... ... : ... .. . ... ...
ROW B4 : ... .. F ... ... ... : G#3 00 8 ... ... ... : D#6 00 . ... : 7-# 00 F ... : ... .. . ... ... : A#3 01 6 ... ... : F#3 01 6 ... ... : B-3 01 A ... ...
ROW B5 : ... .. E ... ... ... : ... .. B ... ... ... : F-5 00 . ... : ... .. C ... : ... .. . ... ... : ... .. . ... ... : ... .. . ... ... : ... .. 8 ... ...
ROW B6 : ... .. D ... ... ... : ... .. 8 ... ... ... : A#4 00 . ... : ... .. 6 ... : ... .. . ... ... : ... .. 5 ... ... : ... .. 5 ... ... : ... .. 5 ... ...
ROW B7 : ... .. A ... ... ... : ... .. 0 ... ... ... : A-4 00 . ... : ... .. 3 ... : ... .. . ... ... : ... .. 4 ... ... : ... .. 4 ... ... : ... .. . ... ...
ROW B8 : ... .. . ... ... ... : G#3 00 5 P80 ... ... : E-4 00 . ... : ... .. 2 ... : ... .. . ... ... : ... .. . ... ... : ... .. . ... ... : ... .. . ... ...
ROW B9 : ... .. . ... ... ... : ... .. 8 ... ... ... : ... .. . ... : ... .. 0 ... : ... .. . ... ... : ... .. . ... ... : ... .. . ... ... : ... .. . ... ...
ROW BA : ... .. . ... ... ... : B-2 00 8 ... ... ... : ... .. . ... : 1-# 00 8 ... : ... .. . ... ... : ... .. . ... ... : ... .. . ... ... : C#4 01 A ... ...
ROW BB : ... .. . ... ... ... : ... .. B ... ... ... : ... .. . ... : ... .. 6 ... : ... .. . ... ... : ... .. 3 ... ... : ... .. 3 ... ... : ... .. 8 ... ...
ROW BC : ... .. . ... ... ... : ... .. 8 ... ... ... : ... .. . ... : ... .. 3 ... : ... .. . ... ... : ... .. . ... ... : ... .. . ... ... : ... .. 5 ... ...
ROW BD : ... .. . ... ... ... : ... .. 0 ... ... ... : ... .. . ... : ... .. 1 ... : ... .. . ... ... : ... .. . ... ... : ... .. . ... ... : ... .. . ... ...
ROW BE : ... .. . ... ... ... : B-2 00 5 P80 ... ... : ... .. . ... : ... .. . ... : ... .. . ... ... : ... .. . ... ... : ... .. . ... ... : ... .. . ... ...
ROW BF : ... .. . ... ... ... : ... .. 8 ... ... ... : ... .. . ... : ... .. 0 ... : ... .. . ... ... : ... .. . ... ... : ... .. . ... ... : ... .. . ... ...
ROW C0 : C#5 00 F ... ... ... : E-3 00 8 ... ... ... : D#4 00 . ... : 7-# 00 F ... : ... .. . ... ... : ... .. . ... ... : ... .. . ... ... : A#3 01 A ... ...
ROW C1 : ... .. E ... ... ... : ... .. B ... ... ... : ... .. . ... : ... .. C ... : ... .. . ... ... : ... .. . ... ... : ... .. . ... ... : ... .. 8 ... ...
ROW C2 : ... .. D ... ... ... : ... .. 8 ... ... ... : ... .. . ... : ... .. 6 ... : ... .. . ... ... : ... .. . ... ... : ... .. . ... ... : ... .. 5 ... ...
ROW C3 : ... .. A ... ... ... : ... .. 0 ... ... ... : ... .. . ... : ... .. 3 ... : ... .. . ... ... : ... .. . ... ... : ... .. . ... ... : ... .. . ... ...
ROW C4 : D-5 00 A P7F ... ... : E-3 00 5 P80 ... ... : ... .. . ... : ... .. 2 ... : ... .. . ... ... : ... .. . ... ... : ... .. . ... ... : ... .. . ... ...
ROW C5 : D#5 00 A ... ... ... : ... .. 8 ... ... ... : ... .. . ... : ... .. 0 ... : ... .. . ... ... : ... .. . ... ... : ... .. . ... ... : ... .. . ... ...
ROW C6 : ... .. . P80 ... ... : G#3 00 8 ... ... ... : ... .. . ... : 1-# 00 8 ... : ... .. . ... ... : B-3 01 6 ... ... : G#3 01 6 ... ... : B-3 01 A ... ...
ROW C7 : ... .. . ... ... ... : ... .. B ... ... ... : ... .. . ... : ... .. 6 ... : ... .. . ... ... : ... .. . ... ... : ... .. . ... ... : ... .. 8 ... ...
ROW C8 : ... .. . ... ... ... : ... .. 8 ... ... ... : ... .. . ... : ... .. 3 ... : ... .. . ... ... : ... .. 5 ... ... : ... .. 5 ... ... : ... .. 5 ... ...
ROW C9 : ... .. . ... ... ... : ... .. 0 ... ... ... : ... .. . ... : ... .. 1 ... : ... .. . ... ... : ... .. 4 ... ... : ... .. 4 ... ... : ... .. . ... ...
ROW CA : ... .. . ... ... ... : G#3 00 5 P80 ... ... : ... .. . ... : ... .. . ... : ... .. . ... ... : ... .. . ... ... : ... .. . ... ... : ... .. . ... ...
ROW CB : ... .. . ... ... ... : ... .. 8 ... ... ... : --- .. . ... : ... .. 0 ... : ... .. . ... ... : ... .. . ... ... : ... .. . ... ... : ... .. . ... ...
ROW CC : G#4 00 F ... ... ... : E-3 00 8 ... ... ... : G#3 00 . ... : 7-# 00 F ... : ... .. . ... ... : ... .. . ... ... : ... .. . ... ... : G#3 01 A ... ...
ROW CD : ... .. E ... ... ... : ... .. B ... ... ... : ... .. . ... : ... .. C ... : ... .. . ... ... : ... .. 3 ... ... : ... .. 3 ... ... : ... .. 8 ... ...
ROW CE : ... .. D ... ... ... : ... .. 8 ... ... ... : ... .. . ... : ... .. 6 ... : ... .. . ... ... : ... .. . ... ... : ... .. . ... ... : ... .. 5 ... ...
ROW CF : ... .. A ... ... ... : ... .. 0 ... ... ... : ... .. . ... : ... .. 3 ... : ... .. . ... ... : ... .. . ... ... : ... .. . ... ... : ... .. . ... ...
ROW D0 : ... .. . ... ... ... : E-3 00 5 P80 ... ... : ... .. . ... : ... .. 2 ... : ... .. . ... ... : ... .. . ... ... : ... .. . ... ... : ... .. . ... ...
ROW D1 : ... .. . ... ... ... : ... .. 8 ... ... ... : ... .. . ... : ... .. 0 ... : ... .. . ... ... : ... .. . ... ... : ... .. . ... ... : ... .. . ... ...
ROW D2 : ... .. . ... ... ... : G#3 00 8 ... ... ... : ... .. . ... : 1-# 00 8 ... : ... .. . ... ... : ... .. . ... ... : ... .. . ... ... : A#3 01 A ... ...
ROW D3 : ... .. . ... ... ... : ... .. B ... ... ... : ... .. . ... : ... .. 6 ... : ... .. . ... ... : ... .. . ... ... : ... .. . ... ... : ... .. 8 ... ...
ROW D4 : ... .. . ... ... ... : ... .. 8 ... ... ... : ... .. . ... : ... .. 3 ... : ... .. . ... ... : ... .. . ... ... : ... .. . ... ... : ... .. 5 ... ...
ROW D5 : ... .. . ... ... ... : ... .. 0 ... ... ... : ... .. . ... : ... .. 1 ... : ... .. . ... ... : ... .. . ... ... : ... .. . ... ... : ... .. . ... ...
ROW D6 : ... .. . ... ... ... : G#3 00 5 P80 ... ... : ... .. . ... : ... .. . ... : ... .. . ... ... : ... .. . ... ... : ... .. . ... ... : ... .. . ... ...
ROW D7 : ... .. . ... ... ... : ... .. 8 ... ... ... : --- .. . ... : ... .. 0 ... : ... .. . ... ... : ... .. . ... ... : ... .. . ... ... : ... .. . ... ...
ROW D8 : B-4 00 F ... ... ... : C#4 00 8 ... ... ... : C-4 00 . ... : ... .. F ... : ... .. . ... ... : G#3 01 6 ... ... : E-3 01 6 ... ... : F#3 01 A ... ...
ROW D9 : ... .. E ... ... ... : ... .. B ... ... ... : D-3 00 . ... : ... .. C ... : ... .. . ... ... : ... .. . ... ... : ... .. . ... ... : ... .. 8 ... ...
ROW DA : ... .. D ... ... ... : ... .. 8 ... ... ... : G-2 00 . ... : ... .. 6 ... : ... .. . ... ... : ... .. 5 ... ... : ... .. 5 ... ... : ... .. 5 ... ...
ROW DB : ... .. A ... ... ... : ... .. 0 ... ... ... : F#2 00 . ... : ... .. 3 ... : ... .. . ... ... : ... .. 4 ... ... : ... .. 4 ... ... : ... .. . ... ...
ROW DC : C-5 00 A P7F ... ... : C#4 00 5 P80 ... ... : C#2 00 . ... : ... .. 2 ... : ... .. . ... ... : ... .. . ... ... : ... .. . ... ... : ... .. . ... ...
ROW DD : C#5 00 A P7E ... ... : ... .. 8 ... ... ... : ... .. . ... : ... .. 0 ... : ... .. . ... ... : ... .. . ... ... : ... .. . ... ... : ... .. . ... ...
ROW DE : ... .. . P80 ... ... : E-3 00 8 ... ... ... : ... .. . ... : C-# 00 8 ... : ... .. . ... ... : ... .. . ... ... : ... .. . ... ... : G#3 01 A ... ...
ROW DF : ... .. . ... ... ... : ... .. B ... ... ... : ... .. . ... : ... .. 6 ... : ... .. . ... ... : ... .. 3 ... ... : ... .. 3 ... ... : ... .. 8 ... ...
ROW E0 : ... .. . ... ... ... : ... .. 8 ... ... ... : ... .. . ... : ... .. 3 ... : ... .. . ... ... : ... .. . ... ... : ... .. . ... ... : ... .. 5 ... ...
ROW E1 : ... .. . ... ... ... : ... .. 0 ... ... ... : ... .. . ... : ... .. 1 ... : ... .. . ... ... : ... .. . ... ... : ... .. . ... ... : ... .. . ... ...
ROW E2 : ... .. . ... ... ... : E-3 00 5 P80 ... ... : ... .. . ... : ... .. . ... : ... .. . ... ... : ... .. . ... ... : ... .. . ... ... : ... .. . ... ...
ROW E3 : ... .. . ... ... ... : ... .. 8 ... ... ... : ... .. . ... : ... .. 0 ... : ... .. . ... ... : ... .. . ... ... : ... .. . ... ... : ... .. . ... ...
ROW E4 : ... .. . ... ... ... : G#3 00 8 ... ... ... : D-2 00 . P73 : ... .. 8 ... : ... .. . ... ... : ... .. . ... ... : ... .. . ... ... : E-3 01 A ... ...
ROW E5 : ... .. . ... ... ... : ... .. B ... ... ... : ... .. . P93 : ... .. 6 ... : ... .. . ... ... : ... .. . ... ... : ... .. . ... ... : ... .. 8 ... ...
ROW E6 : ... .. . ... ... ... : ... .. 8 ... ... ... : D#2 00 . P88 : ... .. 3 ... : ... .. . ... ... : ... .. . ... ... : ... .. . ... ... : ... .. 5 ... ...
ROW E7 : ... .. . ... ... ... : ... .. 0 ... ... ... : E-2 00 . P80 : ... .. 1 ... : ... .. . ... ... : ... .. . ... ... : ... .. . ... ... : ... .. . ... ...
ROW E8 : ... .. . ... ... ... : G#3 00 5 P80 ... ... : F-2 00 . P7A : ... .. . ... : ... .. . ... ... : ... .. . ... ... : ... .. . ... ... : ... .. . ... ...
ROW E9 : ... .. . ... ... ... : ... .. 8 ... ... ... : F#2 00 . P76 : ... .. 0 ... : ... .. . ... ... : ... .. . ... ... : ... .. . ... ... : ... .. . ... ...
ROW EA : G#4 00 F ... ... ... : C#4 00 8 ... ... ... : C-5 00 . P80 : 1-# 00 F ... : ... .. . ... ... : B-2 01 6 ... ... : G#2 01 6 ... ... : F#3 01 A ... ...
ROW EB : ... .. E ... ... ... : ... .. B ... ... ... : D-4 00 . ... : ... .. C ... : ... .. . ... ... : ... .. . ... ... : ... .. . ... ... : ... .. 8 ... ...
ROW EC : ... .. D ... ... ... : ... .. 8 ... ... ... : G-3 00 . ... : ... .. 6 ... : ... .. . ... ... : ... .. 5 ... ... : ... .. 5 ... ... : ... .. 5 ... ...
ROW ED : ... .. A ... ... ... : ... .. 0 ... ... ... : F#3 00 . ... : ... .. 3 ... : ... .. . ... ... : ... .. 4 ... ... : ... .. 4 ... ... : ... .. . ... ...
ROW EE : ... .. . ... ... ... : C#4 00 5 P80 ... ... : C#3 00 . ... : ... .. 2 ... : ... .. . ... ... : ... .. . ... ... : ... .. . ... ... : ... .. . ... ...
ROW EF : ... .. . ... ... ... : ... .. 8 ... ... ... : --- .. . ... : ... .. 0 ... : ... .. . ... ... : ... .. . ... ... : ... .. . ... ... : ... .. . ... ...
ROW F0 : ... .. . P84 ... ... : G#3 00 8 ... ... ... : D#3 00 . ... : C-# 00 8 ... : ... .. . ... ... : ... .. . ... ... : ... .. . ... ... : D#3 01 A ... ...
ROW F1 : A-4 00 A P7E ... ... : ... .. B ... ... ... : ... .. . ... : ... .. 6 ... : ... .. . ... ... : ... .. 3 ... ... : ... .. 3 ... ... : ... .. 8 ... ...
ROW F2 : ... .. . P7D ... ... : ... .. 8 ... ... ... : ... .. . ... : ... .. 3 ... : ... .. . ... ... : ... .. . ... ... : ... .. . ... ... : ... .. 5 ... ...
ROW F3 : G#4 00 A P82 ... ... : ... .. 0 ... ... ... : ... .. . ... : ... .. 1 ... : ... .. . ... ... : ... .. . ... ... : ... .. . ... ... : ... .. . ... ...
ROW F4 : ... .. . P7E ... ... : G#3 00 5 P80 ... ... : ... .. . ... : ... .. . ... : ... .. . ... ... : ... .. . ... ... : ... .. . ... ... : ... .. . ... ...
ROW F5 : G-4 00 A P83 ... ... : ... .. 8 ... ... ... : --- .. . ... : ... .. 0 ... : ... .. . ... ... : ... .. . ... ... : ... .. . ... ... : ... .. . ... ...
ROW F6 : ... .. . P82 ... ... : E-3 00 8 ... ... ... : E-3 00 . ... : ... .. 8 ... : ... .. . ... ... : ... .. . ... ... : ... .. . ... ... : E-3 01 A ... ...
ROW F7 : ... .. . P84 ... ... : ... .. B ... ... ... : ... .. . ... : ... .. 6 ... : ... .. . ... ... : ... .. . ... ... : ... .. . ... ... : ... .. 8 ... ...
ROW F8 : G#4 00 A P80 ... ... : ... .. 8 ... ... ... : ... .. . ... : ... .. 3 ... : ... .. . ... ... : ... .. . ... ... : ... .. . ... ... : ... .. 5 ... ...
ROW F9 : ... .. . P83 ... ... : ... .. 0 ... ... ... : ... .. . ... : ... .. 1 ... : ... .. . ... ... : ... .. . ... ... : ... .. . ... ... : ... .. . ... ...
ROW FA : A-4 00 A P7E ... ... : E-3 00 5 P80 ... ... : ... .. . ... : ... .. . ... : ... .. . ... ... : ... .. . ... ... : ... .. . ... ... : ... .. . ... ...
ROW FB : ... .. . ... ... ... : ... .. 8 ... ... ... : --- .. . ... : ... .. 0 ... : ... .. . ... ... : ... .. . ... ... : ... .. . ... ... : ... .. . ... ...
ROW FC : G#3 00 F P80 ... ... : G#3 00 8 ... ... ... : E-3 00 . ... : 7-# 00 F ... : ... .. . ... ... : A#2 01 6 ... ... : B-2 01 6 ... ... : C#3 01 A ... ...
ROW FD : ... .. E ... ... ... : ... .. B ... ... ... : ... .. . ... : ... .. C ... : ... .. . ... ... : ... .. . ... ... : ... .. . ... ... : ... .. 8 ... ...
ROW FE : ... .. D ... ... ... : ... .. 8 ... ... ... : ... .. . ... : ... .. 6 ... : ... .. . ... ... : ... .. 5 ... ... : ... .. 5 ... ... : ... .. 5 ... ...
ROW FF : ... .. A ... ... ... : ... .. 0 ... ... ... : ... .. . ... : ... .. 3 ... : ... .. . ... ... : ... .. 4 ... ... : ... .. 4 ... ... : ... .. . ... ...

PATTERN 0A
ROW 00 : ... .. . ... ... ... : G#3 00 5 P80 ... ... : ... .. . ... : ... .. 2 ... : ... .. . ... ... : ... .. . ... ... : ... .. . ... ... : ... .. . ... ...
ROW 01 : ... .. . ... ... ... : ... .. 8 ... ... ... : --- .. . ... : ... .. 0 ... : ... .. . ... ... : ... .. . ... ... : ... .. . ... ... : ... .. . ... ...
ROW 02 : ... .. . ... ... ... : G#2 00 8 ... ... ... : D#3 00 . ... : ... .. 8 ... : ... .. . ... ... : ... .. . ... ... : ... .. . ... ... : D#3 01 A ... ...
ROW 03 : ... .. . ... ... ... : ... .. B ... ... ... : ... .. . ... : ... .. 6 ... : ... .. . ... ... : ... .. 3 ... ... : ... .. 3 ... ... : ... .. 8 ... ...
ROW 04 : ... .. . ... ... ... : ... .. 8 ... ... ... : ... .. . ... : ... .. 3 ... : ... .. . ... ... : ... .. . ... ... : ... .. . ... ... : ... .. 5 ... ...
ROW 05 : ... .. . ... ... ... : ... .. 0 ... ... ... : ... .. . ... : ... .. 1 ... : ... .. . ... ... : ... .. . ... ... : ... .. . ... ... : ... .. . ... ...
ROW 06 : ... .. . ... ... ... : G#2 00 5 P80 ... ... : ... .. . ... : ... .. . ... : ... .. . ... ... : ... .. . ... ... : ... .. . ... ... : ... .. . ... ...
ROW 07 : ... .. . ... ... ... : ... .. 8 ... ... ... : --- .. . ... : ... .. 0 ... : ... .. . ... ... : ... .. . ... ... : ... .. . ... ... : ... .. . ... ...
ROW 08 : ... .. 5 ... ... ... : C#3 00 8 ... ... ... : C#3 00 . ... : 4-# 00 F ... : ... .. . ... ... : ... .. . ... ... : ... .. . ... ... : B-2 01 A ... ...
ROW 09 : ... .. . ... ... ... : ... .. B ... ... ... : ... .. . ... : ... .. C ... : ... .. . ... ... : ... .. . ... ... : ... .. . ... ... : ... .. 8 ... ...
ROW 0A : ... .. . ... ... ... : ... .. 8 ... ... ... : ... .. . ... : ... .. 6 ... : ... .. . ... ... : ... .. . ... ... : ... .. . ... ... : ... .. 5 ... ...
ROW 0B : ... .. . ... ... ... : ... .. 0 ... ... ... : ... .. . ... : ... .. 3 ... : ... .. . ... ... : ... .. . ... ... : ... .. . ... ... : ... .. . ... ...
ROW 0C : ... .. . ... ... ... : C#3 00 5 P80 ... ... : ... .. . ... : ... .. 2 ... : ... .. . ... ... : ... .. . ... ... : ... .. . ... ... : ... .. . ... ...
ROW 0D : ... .. . ... ... ... : ... .. 8 ... ... ... : --- .. . ... : ... .. 0 ... : ... .. . ... ... : ... .. . ... ... : ... .. . ... ... : ... .. . ... ...
ROW 0E : C#4 00 F ... ... ... : E-3 00 8 ... ... ... : G#3 00 . ... : 9-# 00 8 ... : ... .. . ... ... : B-2 01 6 ... ... : E-3 01 6 ... ... : C#3 01 A ... ...
ROW 0F : ... .. E ... ... ... : ... .. B ... ... ... : ... .. . ... : ... .. 6 ... : ... .. . ... ... : ... .. . ... ... : ... .. . ... ... : ... .. 8 ... ...
ROW 10 : ... .. D ... ... ... : ... .. 8 ... ... ... : ... .. . ... : ... .. 3 ... : ... .. . ... ... : ... .. 5 ... ... : ... .. 5 ... ... : ... .. 5 ... ...
ROW 11 : ... .. A ... ... ... : ... .. 0 ... ... ... : ... .. . ... : ... .. 1 ... : ... .. . ... ... : ... .. 4 ... ... : ... .. 4 ... ... : ... .. . ... ...
ROW 12 : ... .. . ... ... ... : E-3 00 5 P80 ... ... : ... .. . ... : ... .. . ... : ... .. . ... ... : ... .. . ... ... : ... .. . ... ... : ... .. . ... ...
ROW 13 : ... .. . ... ... ... : ... .. 8 ... ... ... : --- .. . ... : ... .. 0 ... : ... .. . ... ... : ... .. . ... ... : ... .. . ... ... : ... .. . ... ...
ROW 14 : ... .. . ... ... ... : C#3 00 8 ... ... ... : E-3 00 . ... : 7-# 00 F ... : ... .. . ... ... : ... .. . ... ... : ... .. . ... ... : A#2 01 A ... ...
ROW 15 : ... .. . ... ... ... : ... .. B ... ... ... : ... .. . ... : ... .. C ... : ... .. . ... ... : ... .. 3 ... ... : ... .. 3 ... ... : ... .. 8 ... ...
ROW 16 : ... .. . ... ... ... : ... .. 8 ... ... ... : ... .. . ... : ... .. 6 ... : ... .. . ... ... : ... .. . ... ... : ... .. . ... ... : ... .. 5 ... ...
ROW 17 : ... .. . ... ... ... : ... .. 0 ... ... ... : ... .. . ... : ... .. 3 ... : ... .. . ... ... : ... .. . ... ... : ... .. . ... ... : ... .. . ... ...
ROW 18 : ... .. . ... ... ... : C#3 00 5 P80 ... ... : ... .. . ... : ... .. 2 ... : ... .. . ... ... : ... .. . ... ... : ... .. . ... ... : ... .. . ... ...
ROW 19 : ... .. . ... ... ... : ... .. 8 ... ... ... : --- .. . ... : ... .. 0 ... : ... .. . ... ... : ... .. . ... ... : ... .. . ... ... : ... .. . ... ...
ROW 1A : ... .. 1 ... ... ... : G#2 00 8 ... ... ... : C#3 00 . ... : 5-# 00 8 ... : ... .. . ... ... : ... .. . ... ... : ... .. . ... ... : B-2 01 A ... ...
ROW 1B : ... .. . ... ... ... : ... .. B ... ... ... : ... .. . ... : ... .. 6 ... : ... .. . ... ... : ... .. . ... ... : ... .. . ... ... : ... .. 8 ... ...
ROW 1C : ... .. . ... ... ... : ... .. 8 ... ... ... : ... .. . ... : ... .. 3 ... : ... .. . ... ... : ... .. . ... ... : ... .. . ... ... : ... .. 5 ... ...
ROW 1D : ... .. . ... ... ... : ... .. 0 ... ... ... : ... .. . ... : ... .. 1 ... : ... .. . ... ... : ... .. . ... ... : ... .. . ... ... : ... .. . ... ...
ROW 1E : ... .. . ... ... ... : G#2 00 5 P80 ... ... : ... .. . ... : ... .. . ... : ... .. . ... ... : ... .. . ... ... : ... .. . ... ... : ... .. . ... ...
ROW 1F : ... .. . ... ... ... : ... .. 8 ... ... ... : --- .. . ... : ... .. 0 ... : ... .. . ... ... : ... .. . ... ... : ... .. . ... ... : ... .. . ... ...
ROW 20 : ... .. F ... ... ... : A#2 00 F ... ... ... : F-4 00 . ... : 1-# 00 F ... : ... .. . ... ... : F#2 01 A ... ... : D#2 01 A ... ... : C#3 01 F ... ...
ROW 21 : ... .. E ... ... ... : ... .. E ... ... ... : G-3 00 . ... : ... .. C ... : ... .. . ... ... : ... .. 9 ... ... : ... .. 9 ... ... : ... .. D ... ...
ROW 22 : ... .. D ... ... ... : ... .. D ... ... ... : C-3 00 . ... : ... .. 6 ... : ... .. . ... ... : ... .. 8 ... ... : ... .. 8 ... ... : ... .. 8 ... ...
ROW 23 : ... .. A ... ... ... : ... .. A ... ... ... : B-2 00 . ... : ... .. 3 ... : ... .. . ... ... : ... .. 7 ... ... : ... .. 7 ... ... : ... .. . ... ...
ROW 24 : ... .. . ... ... ... : ... .. . ... ... ... : F#2 00 . ... : ... .. 2 ... : ... .. . ... ... : ... .. . ... ... : ... .. . ... ... : ... .. . ... ...
ROW 25 : ... .. . ... ... ... : ... .. . ... ... ... : ... .. . ... : ... .. 0 ... : ... .. . ... ... : ... .. 6 ... ... : ... .. 6 ... ... : ... .. . ... ...
ROW 26 : ... .. . ... ... ... : ... .. . ... ... ... : ... .. . ... : C-# 00 8 ... : ... .. . ... ... : ... .. 5 ... ... : ... .. 5 ... ... : ... .. . ... ...
ROW 27 : ... .. 2 ... ... ... : ... .. 2 ... ... ... : ... .. . ... : ... .. 6 ... : ... .. . ... ... : ... .. . ... ... : ... .. . ... ... : ... .. 4 ... ...
ROW 28 : ... .. . ... ... ... : ... .. . ... ... ... : ... .. . ... : ... .. 3 ... : ... .. . ... ... : ... .. 3 ... ... : ... .. 3 ... ... : ... .. . ... ...
ROW 29 : ... .. . ... ... ... : ... .. . ... ... ... : F-2 00 . P84 : ... .. 1 ... : ... .. . ... ... : ... .. . ... ... : ... .. . ... ... : ... .. 1 ... ...
ROW 2A : ... .. 1 ... ... ... : ... .. 1 ... ... ... : E-2 00 . P8A : ... .. . ... : ... .. . ... ... : ... .. . ... ... : ... .. . ... ... : ... .. . ... ...
ROW 2B : ... .. . ... ... ... : ... .. . ... ... ... : D#2 00 . P92 : ... .. 0 ... : ... .. . ... ... : ... .. . ... ... : ... .. . ... ... : ... .. . ... ...
ROW 2C : D#4 00 F ... ... ... : B-2 00 F ... ... ... : G-4 00 . P80 : ... .. 8 ... : ... .. . ... ... : G#2 01 A ... ... : ... .. A ... ... : D#3 01 F ... ...
ROW 2D : ... .. E ... ... ... : ... .. E ... ... ... : A-3 00 . ... : ... .. 6 ... : ... .. . ... ... : ... .. 9 ... ... : ... .. 9 ... ... : ... .. D ... ...
ROW 2E : ... .. D ... ... ... : ... .. D ... ... ... : D-3 00 . ... : ... .. 3 ... : ... .. . ... ... : ... .. 8 ... ... : ... .. 8 ... ... : ... .. 8 ... ...
ROW 2F : ... .. A ... ... ... : ... .. A ... ... ... : C#3 00 . ... : ... .. 1 ... : ... .. . ... ... : ... .. 7 ... ... : ... .. 7 ... ... : ... .. . ... ...
ROW 30 : ... .. . ... ... ... : ... .. . ... ... ... : G#2 00 . ... : ... .. . ... : ... .. . ... ... : ... .. . ... ... : ... .. . ... ... : ... .. . ... ...
ROW 31 : ... .. . ... ... ... : ... .. . ... ... ... : ... .. . ... : ... .. 0 ... : ... .. . ... ... : ... .. 6 ... ... : ... .. 6 ... ... : ... .. . ... ...
ROW 32 : ... .. . ... ... ... : ... .. . ... ... ... : ... .. . ... : ... .. . ... : ... .. . ... ... : ... .. . ... ... : ... .. . ... ... : ... .. . ... ...
ROW 33 : ... .. . ... ... ... : ... .. . ... ... ... : ... .. . ... : ... .. . ... : ... .. . ... ... : ... .. 5 ... ... : ... .. 5 ... ... : ... .. . ... ...
ROW 34 : ... .. . ... ... ... : ... .. . ... ... ... : ... .. . ... : ... .. . ... : ... .. . ... ... : ... .. . ... ... : ... .. . ... ... : ... .. . ... ...
ROW 35 : ... .. . ... ... ... : ... .. . ... ... ... : ... .. . ... : ... .. . ... : ... .. . ... ... : ... .. . ... ... : ... .. . ... ... : ... .. . ... ...
ROW 36 : ... .. . ... ... ... : ... .. . ... ... ... : ... .. . ... : ... .. . ... : ... .. . ... ... : ... .. . ... ... : ... .. . ... ... : ... .. . ... ...
ROW 37 : ... .. . ... ... ... : ... .. . ... ... ... : ... .. . ... : ... .. . ... : ... .. . ... ... : ... .. . ... ... : ... .. . ... ... : ... .. . ... ...
ROW 38 : E-4 00 A ... ... ... : ... .. . P8A ... ... : ... .. . ... : ... .. 8 ... : ... .. . ... ... : ... .. . ... ... : ... .. . ... ... : ... .. . ... ...
ROW 39 : F-4 00 A P7C ... ... : C-3 00 A P77 ... ... : ... .. . ... : ... .. 6 ... : ... .. . ... ... : ... .. . ... ... : ... .. . ... ... : ... .. . ... ...
ROW 3A : E-4 00 A P84 ... ... : ... .. . P75 ... ... : ... .. . ... : ... .. 3 ... : ... .. . ... ... : ... .. . ... ... : ... .. . ... ... : ... .. . ... ...
ROW 3B : D#4 00 A ... ... ... : B-2 00 A P84 ... ... : A-2 00 . P71 : ... .. 1 ... : ... .. . ... ... : ... .. . ... ... : ... .. . ... ... : ... .. . ... ...
ROW 3C : ... .. . P7C ... ... : ... .. . P7C ... ... : ... .. . P81 : ... .. . ... : ... .. . ... ... : ... .. . ... ... : ... .. . ... ... : ... .. . ... ...
ROW 3D : D-4 00 A ... ... ... : A#2 00 A P8D ... ... : A#2 00 . P75 : ... .. 0 ... : ... .. . ... ... : ... .. . ... ... : ... .. . ... ... : ... .. . ... ...
ROW 3E : C#4 00 A P86 ... ... : ... .. . P8B ... ... : ... .. . P85 : ... .. 8 ... : ... .. . ... ... : ... .. . ... ... : ... .. . ... ... : ... .. . ... ...
ROW 3F : D-4 00 2 P80 ... ... : B-2 00 2 P76 ... ... : B-2 00 . P7A : ... .. 6 ... : ... .. . ... ... : ... .. . ... ... : ... .. . ... ... : ... .. 4 ... ...
ROW 40 : D#4 00 2 ... ... ... : ... .. . P80 ... ... : ... .. . P8A : ... .. 3 ... : ... .. . ... ... : ... .. 3 ... ... : ... .. 3 ... ... : ... .. . ... ...
ROW 41 : E-4 00 2 P7F ... ... : ... .. . P89 ... ... : C-3 00 . P81 : ... .. 1 ... : ... .. . ... ... : ... .. . ... ... : ... .. . ... ... : ... .. 1 ... ...
ROW 42 : F-4 00 1 P7C ... ... : C-3 00 1 P77 ... ... : C#3 00 . P79 : ... .. . ... : ... .. . ... ... : ... .. . ... ... : ... .. . ... ... : ... .. . ... ...
ROW 43 : E-4 00 1 P84 ... ... : ... .. . P75 ... ... : ... .. . P89 : ... .. 0 ... : ... .. . ... ... : ... .. . ... ... : ... .. . ... ... : ... .. . ... ...
ROW 44 : G#1 00 F P80 ... ... : D#2 00 B P80 ... ... : G-5 00 . P80 : 8-# 00 D ... : ... .. . ... ... : ... .. . ... ... : ... .. . ... ... : ... .. . ... ...
ROW 45 : ... .. E ... ... ... : ... .. F ... ... ... : A-4 00 . ... : ... .. . ... : ... .. . ... ... : ... .. . ... ... : ... .. . ... ... : ... .. . ... ...
ROW 46 : ... .. D ... ... ... : ... .. B ... ... ... : D-4 00 . ... : ... .. . ... : ... .. . ... ... : ... .. . ... ... : ... .. . ... ... : ... .. . ... ...
ROW 47 : ... .. A ... ... ... : ... .. 0 ... ... ... : C#4 00 . ... : B-# 00 D ... : ... .. . ... ... : ... .. . ... ... : ... .. . ... ... : ... .. . ... ...
ROW 48 : ... .. . ... ... ... : D#2 00 8 P80 ... ... : G#3 00 . ... : ... .. . ... : ... .. . ... ... : ... .. . ... ... : ... .. . ... ... : ... .. 0 ... ...
ROW 49 : ... .. . ... ... ... : ... .. C ... ... ... : --- .. . ... : ... .. . ... : ... .. . ... ... : ... .. . ... ... : ... .. . ... ... : ... .. . ... ...
ROW 4A : F#1 00 F ... ... ... : C#2 00 B ... ... ... : F#3 00 . ... : ... .. . ... : ... .. . ... ... : ... .. . ... ... : ... .. . ... ... : ... .. . ... ...
ROW 4B : ... .. E ... ... ... : ... .. F ... ... ... : ... .. . ... : ... .. . ... : ... .. . ... ... : ... .. . ... ... : ... .. . ... ... : ... .. . ... ...
ROW 4C : ... .. D ... ... ... : ... .. B ... ... ... : ... .. . ... : ... .. . ... : ... .. . ... ... : ... .. . ... ... : ... .. . ... ... : ... .. . ... ...
ROW 4D : ... .. A ... ... ... : ... .. 0 ... ... ... : ... .. . ... : ... .. A ... : ... .. . ... ... : ... .. 1 ... ... : ... .. 1 ... ... : ... .. . ... ...
ROW 4E : ... .. 2 ... ... ... : C#2 00 8 P80 ... ... : ... .. . ... : ... .. . ... : ... .. . ... ... : ... .. . ... ... : ... .. . ... ... : ... .. . ... ...
ROW 4F : ... .. . ... ... ... : ... .. C ... ... ... : --- .. . ... : ... .. . ... : ... .. . ... ... : ... .. . ... ... : ... .. . ... ... : ... .. . ... ...
ROW 50 : G#1 00 F ... ... ... : D#2 00 B ... ... ... : G#3 00 . ... : ... .. 9 ... : ... .. . ... ... : ... .. . ... ... : ... .. . ... ... : ... .. . ... ...
ROW 51 : ... .. E ... ... ... : ... .. F ... ... ... : ... .. . ... : ... .. . ... : ... .. . ... ... : ... .. . ... ... : ... .. . ... ... : ... .. . ... ...
ROW 52 : ... .. D ... ... ... : ... .. B ... ... ... : ... .. . ... : ... .. . ... : ... .. . ... ... : ... .. . ... ... : ... .. . ... ... : ... .. . ... ...
ROW 53 : ... .. A ... ... ... : ... .. 0 ... ... ... : ... .. . ... : ... .. 8 ... : ... .. . ... ... : ... .. . ... ... : ... .. . ... ... : ... .. . ... ...
ROW 54 : ... .. 2 ... ... ... : D#2 00 8 P80 ... ... : ... .. . ... : ... .. . ... : ... .. . ... ... : ... .. . ... ... : ... .. . ... ... : ... .. . ... ...
ROW 55 : ... .. . ... ... ... : ... .. C ... ... ... : --- .. . ... : ... .. . ... : ... .. . ... ... : ... .. . ... ... : ... .. . ... ... : ... .. . ... ...
ROW 56 : G#2 00 F ... ... ... : D#3 00 B ... ... ... : G#4 00 . ... : ... .. 7 ... : ... .. . ... ... : ... .. . ... ... : ... .. . ... ... : ... .. . ... ...
ROW 57 : ... .. E ... ... ... : ... .. F ... ... ... : ... .. . ... : ... .. . ... : ... .. . ... ... : ... .. . ... ... : ... .. . ... ... : ... .. . ... ...
ROW 58 : ... .. D ... ... ... : ... .. B ... ... ... : ... .. . ... : ... .. . ... : ... .. . ... ... : ... .. . ... ... : ... .. . ... ... : ... .. . ... ...
ROW 59 : ... .. A ... ... ... : ... .. 0 ... ... ... : ... .. . ... : ... .. 6 ... : ... .. . ... ... : ... .. . ... ... : ... .. . ... ... : ... .. . ... ...
ROW 5A : ... .. . ... ... ... : D#3 00 8 P80 ... ... : ... .. . ... : ... .. . ... : ... .. . ... ... : ... .. . ... ... : ... .. . ... ... : ... .. . ... ...
ROW 5B : ... .. . ... ... ... : ... .. C ... ... ... : --- .. . ... : ... .. . ... : ... .. . ... ... : --- .. . ... ... : --- .. . P7B ... : ... .. . ... ...
ROW 5C : G#1 00 F ... ... ... : D#2 00 B ... ... ... : G#3 00 . ... : ... .. 5 ... : ... .. . ... ... : ... .. . ... ... : ... .. . ... ... : ... .. . ... ...
ROW 5D : ... .. E ... ... ... : ... .. F ... ... ... : ... .. . ... : ... .. . ... : ... .. . ... ... : ... .. . ... ... : ... .. . ... ... : ... .. . ... ...
ROW 5E : ... .. D ... ... ... : ... .. B ... ... ... : ... .. . ... : ... .. . ... : ... .. . ... ... : ... .. . ... ... : ... .. . ... ... : ... .. . ... ...
ROW 5F : ... .. A ... ... ... : ... .. 0 ... ... ... : ... .. . ... : ... .. 4 ... : ... .. . ... ... : ... .. . ... ... : ... .. . ... ... : ... .. . ... ...
ROW 60 : ... .. 2 ... ... ... : D#2 00 8 P80 ... ... : ... .. . ... : ... .. . ... : ... .. . ... ... : ... .. . ... ... : ... .. . ... ... : ... .. . ... ...
ROW 61 : ... .. . ... ... ... : ... .. C ... ... ... : --- .. . ... : ... .. . ... : ... .. . ... ... : ... .. . ... ... : ... .. . ... ... : ... .. . ... ...
ROW 62 : ... .. F ... ... ... : G#2 00 B ... ... ... : G#2 00 . ... : ... .. 3 ... : ... .. . ... ... : ... .. . ... ... : ... .. . ... ... : ... .. . ... ...
ROW 63 : ... .. E ... ... ... : ... .. F ... ... ... : ... .. . ... : ... .. . ... : ... .. . ... ... : ... .. . ... ... : ... .. . ... ... : ... .. . ... ...
ROW 64 : ... .. D ... ... ... : ... .. B ... ... ... : ... .. . ... : ... .. . ... : ... .. . ... ... : ... .. . ... ... : ... .. . ... ... : ... .. . ... ...
ROW 65 : ... .. A ... ... ... : ... .. 0 ... ... ... : ... .. . ... : ... .. 2 ... : ... .. . ... ... : ... .. . ... ... : ... .. . ... ... : ... .. . ... ...
ROW 66 : ... .. 2 ... ... ... : G#2 00 8 P80 ... ... : ... .. . ... : ... .. . ... : ... .. . ... ... : ... .. . ... ... : ... .. . ... ... : ... .. . ... ...
ROW 67 : ... .. . ... ... ... : ... .. C ... ... ... : --- .. . ... : ... .. . ... : ... .. . ... ... : ... .. . ... ... : ... .. . ... ... : ... .. . ... ...
ROW 68 : C#4 00 F ... ... ... : A#3 00 F ... ... ... : F-4 00 . ... : 1-# 00 F ... : ... .. . ... ... : A#3 01 A ... ... : F-3 01 A P80 ... : F-2 01 F ... ...
ROW 69 : ... .. E ... ... ... : ... .. E ... ... ... : G-3 00 . ... : ... .. C ... : ... .. . ... ... : ... .. 9 ... ... : ... .. 9 ... ... : ... .. D ... ...
ROW 6A : ... .. D ... ... ... : ... .. D ... ... ... : C-3 00 . ... : ... .. 6 ... : ... .. . ... ... : ... .. 8 ... ... : ... .. 8 ... ... : ... .. 8 ... ...
ROW 6B : ... .. A ... ... ... : ... .. A ... ... ... : B-2 00 . ... : ... .. 3 ... : ... .. . ... ... : ... .. 7 ... ... : ... .. 7 ... ... : ... .. . ... ...
ROW 6C : ... .. . ... ... ... : ... .. . ... ... ... : F#2 00 . ... : ... .. 2 ... : ... .. . ... ... : ... .. . ... ... : ... .. . ... ... : ... .. . ... ...
ROW 6D : ... .. . ... ... ... : ... .. . ... ... ... : ... .. . ... : ... .. 0 ... : ... .. . ... ... : ... .. 6 ... ... : ... .. 6 ... ... : ... .. . ... ...
ROW 6E : ... .. . ... ... ... : ... .. . ... ... ... : ... .. . ... : C-# 00 8 ... : ... .. . ... ... : ... .. 5 ... ... : ... .. 5 ... ... : ... .. . ... ...
ROW 6F : ... .. . ... ... ... : ... .. 2 ... ... ... : ... .. . ... : ... .. 6 ... : ... .. . ... ... : ... .. . ... ... : ... .. . ... ... : ... .. 4 ... ...
ROW 70 : ... .. . ... ... ... : ... .. . ... ... ... : ... .. . ... : ... .. 3 ... : ... .. . ... ... : ... .. 3 ... ... : ... .. 3 ... ... : ... .. . ... ...
ROW 71 : ... .. . ... ... ... : ... .. . ... ... ... : --- .. . ... : ... .. 1 ... : ... .. . ... ... : ... .. . ... ... : ... .. . ... ... : ... .. 1 ... ...
ROW 72 : ... .. 2 ... ... ... : ... .. 1 ... ... ... : ... .. . ... : ... .. . ... : ... .. . ... ... : ... .. . ... ... : ... .. . ... ... : ... .. . ... ...
ROW 73 : ... .. . ... ... ... : ... .. . ... ... ... : ... .. . ... : ... .. 0 ... : ... .. . ... ... : ... .. . ... ... : ... .. . ... ... : ... .. . ... ...
ROW 74 : D#4 00 F ... ... ... : B-3 00 F ... ... ... : G-4 00 . ... : ... .. 8 ... : ... .. . ... ... : B-3 01 A ... ... : F#3 01 A ... ... : F#2 01 F ... ...
ROW 75 : ... .. E ... ... ... : ... .. E ... ... ... : A-3 00 . ... : ... .. 6 ... : ... .. . ... ... : ... .. 9 ... ... : ... .. 9 ... ... : ... .. D ... ...
ROW 76 : ... .. D ... ... ... : ... .. D ... ... ... : D-3 00 . ... : ... .. 3 ... : ... .. . ... ... : ... .. 8 ... ... : ... .. 8 ... ... : ... .. 8 ... ...
ROW 77 : ... .. A ... ... ... : ... .. A ... ... ... : C#3 00 . ... : ... .. 1 ... : ... .. . ... ... : ... .. 7 ... ... : ... .. 7 ... ... : ... .. . ... ...
ROW 78 : ... .. . ... ... ... : ... .. . ... ... ... : G#2 00 . ... : ... .. . ... : ... .. . ... ... : ... .. . ... ... : ... .. . ... ... : ... .. . ... ...
ROW 79 : ... .. . ... ... ... : ... .. . ... ... ... : ... .. . ... : ... .. 0 ... : ... .. . ... ... : ... .. 6 ... ... : ... .. 6 ... ... : ... .. . ... ...
ROW 7A : ... .. . ... ... ... : ... .. . ... ... ... : ... .. . ... : 1-# 00 F ... : ... .. . ... ... : ... .. . ... ... : ... .. . ... ... : ... .. . ... ...
ROW 7B : ... .. . ... ... ... : ... .. . ... ... ... : ... .. . ... : ... .. C ... : ... .. . ... ... : ... .. 5 ... ... : ... .. 5 ... ... : ... .. . ... ...
ROW 7C : ... .. . ... ... ... : ... .. . ... ... ... : ... .. . ... : ... .. 6 ... : ... .. . ... ... : ... .. . ... ... : ... .. . ... ... : ... .. . ... ...
ROW 7D : ... .. . ... ... ... : ... .. . ... ... ... : ... .. . ... : ... .. 3 ... : ... .. . ... ... : ... .. . ... ... : ... .. . ... ... : ... .. . ... ...
ROW 7E : ... .. . ... ... ... : ... .. . ... ... ... : ... .. . ... : ... .. 2 ... : ... .. . ... ... : ... .. . ... ... : ... .. . ... ... : ... .. . ... ...
ROW 7F : ... .. . ... ... ... : ... .. . ... ... ... : ... .. . ... : ... .. 0 ... : ... .. . ... ... : ... .. . ... ... : ... .. . ... ... : ... .. . ... ...
ROW 80 : E-4 00 A ... ... ... : C-4 00 A P7E ... ... : ... .. . ... : C-# 00 8 ... : ... .. . ... ... : ... .. . ... ... : ... .. . ... ... : ... .. . ... ...
ROW 81 : F-4 00 A P7C ... ... : ... .. . P84 ... ... : ... .. . ... : ... .. 6 ... : ... .. . ... ... : ... .. . ... ... : ... .. . ... ... : ... .. . ... ...
ROW 82 : E-4 00 A P84 ... ... : ... .. . P82 ... ... : ... .. . ... : ... .. 3 ... : ... .. . ... ... : ... .. . ... ... : ... .. . ... ... : ... .. . ... ...
ROW 83 : D#4 00 A ... ... ... : B-3 00 A P84 ... ... : ... .. . ... : ... .. 1 ... : ... .. . ... ... : ... .. . ... ... : ... .. . ... ... : ... .. . ... ...
ROW 84 : ... .. . P7C ... ... : ... .. . P7C ... ... : ... .. . ... : ... .. . ... : ... .. . ... ... : ... .. . ... ... : ... .. . ... ... : ... .. . ... ...
ROW 85 : D-4 00 A ... ... ... : A#3 00 A P80 ... ... : ... .. . ... : ... .. 0 ... : ... .. . ... ... : ... .. . ... ... : ... .. . ... ... : ... .. . ... ...
ROW 86 : C#4 00 A P86 ... ... : ... .. . P7E ... ... : A#2 00 . ... : ... .. 8 ... : ... .. . ... ... : ... .. . ... ... : ... .. . ... ... : ... .. . ... ...
ROW 87 : D-4 00 2 P80 ... ... : ... .. 2 P84 ... ... : ... .. . ... : ... .. 6 ... : ... .. . ... ... : ... .. . ... ... : ... .. . ... ... : ... .. . ... ...
ROW 88 : D#4 00 2 ... ... ... : B-3 00 2 P80 ... ... : ... .. . ... : ... .. 3 ... : ... .. . ... ... : ... .. 3 ... ... : ... .. 3 ... ... : ... .. . ... ...
ROW 89 : E-4 00 2 P7F ... ... : C-4 00 2 P7D ... ... : ... .. . ... : ... .. 1 ... : ... .. . ... ... : ... .. . ... ... : ... .. . ... ... : ... .. . ... ...
ROW 8A : F-4 00 1 P7C ... ... : ... .. 1 P84 ... ... : ... .. . ... : ... .. . ... : ... .. . ... ... : ... .. . ... ... : ... .. . ... ... : ... .. . ... ...
ROW 8B : E-4 00 1 P84 ... ... : ... .. . P82 ... ... : ... .. . ... : ... .. 0 ... : ... .. . ... ... : ... .. . ... ... : ... .. . ... ... : ... .. . ... ...
ROW 8C : G#1 00 F P80 ... ... : D#2 00 B P80 ... ... : B-2 00 . ... : 8-# 00 D ... : ... .. . ... ... : ... .. . ... ... : ... .. . ... ... : G#2 01 A ... ...
ROW 8D : ... .. E ... ... ... : ... .. F ... ... ... : ... .. . ... : ... .. . ... : ... .. . ... ... : ... .. . ... ... : ... .. . ... ... : ... .. 8 ... ...
ROW 8E : ... .. D ... ... ... : ... .. B ... ... ... : ... .. . ... : ... .. . ... : ... .. . ... ... : ... .. . ... ... : ... .. . ... ... : ... .. 5 ... ...
ROW 8F : ... .. A ... ... ... : ... .. 0 ... ... ... : ... .. . ... : B-# 00 D ... : ... .. . ... ... : ... .. . ... ... : ... .. . ... ... : ... .. . ... ...
ROW 90 : ... .. . ... ... ... : D#2 00 8 P80 ... ... : ... .. . ... : ... .. . ... : ... .. . ... ... : ... .. . ... ... : ... .. . ... ... : ... .. . ... ...
ROW 91 : ... .. . ... ... ... : ... .. C ... ... ... : --- .. . ... : ... .. . ... : ... .. . ... ... : ... .. . ... ... : ... .. . ... ... : ... .. . ... ...
ROW 92 : ... .. . ... ... ... : C#2 00 B ... ... ... : A#2 00 . ... : ... .. . ... : ... .. . ... ... : ... .. . ... ... : ... .. . ... ... : A#2 01 A ... ...
ROW 93 : ... .. . ... ... ... : ... .. F ... ... ... : ... .. . ... : ... .. . ... : ... .. . ... ... : ... .. . ... ... : ... .. . ... ... : ... .. 8 ... ...
ROW 94 : ... .. . ... ... ... : ... .. B ... ... ... : ... .. . ... : ... .. . ... : ... .. . ... ... : ... .. . ... ... : ... .. . ... ... : ... .. 5 ... ...
ROW 95 : G#3 00 D ... ... ... : ... .. 0 ... ... ... : ... .. . ... : ... .. A ... : ... .. . ... ... : ... .. 1 ... ... : ... .. 1 ... ... : ... .. . ... ...
ROW 96 : ... .. B ... ... ... : C#2 00 8 P80 ... ... : ... .. . ... : ... .. . ... : ... .. . ... ... : ... .. . ... ... : ... .. . ... ... : ... .. . ... ...
ROW 97 : ... .. . ... ... ... : ... .. C ... ... ... : --- .. . ... : ... .. . ... : ... .. . ... ... : ... .. . ... ... : ... .. . ... ... : ... .. . ... ...
ROW 98 : ... .. A ... ... ... : D#2 00 B ... ... ... : B-2 00 . ... : ... .. 9 ... : ... .. . ... ... : ... .. . ... ... : ... .. . ... ... : B-2 01 A ... ...
ROW 99 : ... .. 8 ... ... ... : ... .. F ... ... ... : ... .. . ... : ... .. . ... : ... .. . ... ... : ... .. . ... ... : ... .. . ... ... : ... .. 8 ... ...
ROW 9A : ... .. 7 ... ... ... : ... .. B ... ... ... : ... .. . ... : ... .. . ... : ... .. . ... ... : ... .. . ... ... : ... .. . ... ... : ... .. 5 ... ...
ROW 9B : ... .. 6 ... ... ... : ... .. 0 ... ... ... : ... .. . ... : ... .. 8 ... : ... .. . ... ... : ... .. . ... ... : ... .. . ... ... : ... .. . ... ...
ROW 9C : ... .. . ... ... ... : D#2 00 8 P80 ... ... : ... .. . ... : ... .. . ... : ... .. . ... ... : ... .. . ... ... : ... .. . ... ... : ... .. . ... ...
ROW 9D : ... .. 5 ... ... ... : ... .. C ... ... ... : --- .. . ... : ... .. . ... : ... .. . ... ... : ... .. . ... ... : ... .. . ... ... : ... .. . ... ...
ROW 9E : B-3 00 D ... ... ... : D#3 00 B ... ... ... : C#3 00 . ... : ... .. 7 ... : ... .. . ... ... : ... .. . ... ... : ... .. . ... ... : ... .. A ... ...
ROW 9F : ... .. B ... ... ... : ... .. F ... ... ... : ... .. . ... : ... .. . ... : ... .. . ... ... : ... .. . ... ... : ... .. . ... ... : ... .. 8 ... ...
ROW A0 : ... .. . ... ... ... : ... .. B ... ... ... : ... .. . ... : ... .. . ... : ... .. . ... ... : ... .. . ... ... : ... .. . ... ... : ... .. 5 ... ...
ROW A1 : ... .. A ... ... ... : ... .. 0 ... ... ... : ... .. . ... : ... .. 6 ... : ... .. . ... ... : ... .. . ... ... : ... .. . ... ... : ... .. . ... ...
ROW A2 : ... .. 8 ... ... ... : D#3 00 8 P80 ... ... : ... .. . ... : ... .. . ... : ... .. . ... ... : ... .. . ... ... : ... .. . ... ... : ... .. . ... ...
ROW A3 : ... .. 7 ... ... ... : ... .. C ... ... ... : --- .. . ... : ... .. . ... : ... .. . ... ... : --- .. . ... ... : --- .. . P7F ... : ... .. . ... ...
ROW A4 : ... .. 6 ... ... ... : D#2 00 B ... ... ... : D#3 00 . ... : ... .. 5 ... : ... .. . ... ... : ... .. . ... ... : ... .. . ... ... : C#3 01 A ... ...
ROW A5 : ... .. . ... ... ... : ... .. F ... ... ... : ... .. . ... : ... .. . ... : ... .. . ... ... : ... .. . ... ... : ... .. . ... ... : ... .. 8 ... ...
ROW A6 : ... .. 5 ... ... ... : ... .. B ... ... ... : ... .. . ... : ... .. . ... : ... .. . ... ... : ... .. . ... ... : ... .. . ... ... : ... .. 5 ... ...
ROW A7 : D#4 00 D ... ... ... : ... .. 0 ... ... ... : ... .. . ... : ... .. 4 ... : ... .. . ... ... : ... .. . ... ... : ... .. . ... ... : ... .. . ... ...
ROW A8 : ... .. B ... ... ... : D#2 00 8 P80 ... ... : ... .. . ... : ... .. . ... : ... .. . ... ... : ... .. . ... ... : ... .. . ... ... : ... .. . ... ...
ROW A9 : ... .. . ... ... ... : ... .. C ... ... ... : --- .. . ... : ... .. . ... : ... .. . ... ... : ... .. . ... ... : ... .. . ... ... : ... .. . ... ...
ROW AA : ... .. A ... ... ... : G#2 00 B ... ... ... : F#3 00 . ... : ... .. 3 ... : ... .. . ... ... : ... .. . ... ... : ... .. . ... ... : D#3 01 A ... ...
ROW AB : ... .. 8 ... ... ... : ... .. F ... ... ... : ... .. . ... : ... .. . ... : ... .. . ... ... : ... .. . ... ... : ... .. . ... ... : ... .. 8 ... ...
ROW AC : ... .. 7 ... ... ... : ... .. B ... ... ... : ... .. . ... : ... .. . ... : ... .. . ... ... : ... .. . ... ... : ... .. . ... ... : ... .. 5 ... ...
ROW AD : ... .. 6 ... ... ... : ... .. 0 ... ... ... : ... .. . ... : ... .. 2 ... : ... .. . ... ... : ... .. . ... ... : ... .. . ... ... : ... .. . ... ...
ROW AE : ... .. . ... ... ... : G#2 00 8 P80 ... ... : ... .. . ... : ... .. . ... : ... .. . ... ... : ... .. . ... ... : ... .. . ... ... : ... .. . ... ...
ROW AF : ... .. 5 ... ... ... : ... .. C ... ... ... : --- .. . ... : ... .. . ... : ... .. . ... ... : ... .. . ... ... : ... .. . ... ... : ... .. . ... ...
ROW B0 : C#4 00 F ... ... ... : A-2 00 B ... ... ... : D#5 00 . ... : 1-# 00 F ... : ... .. . ... ... : B-4 01 6 ... ... : E-4 01 6 P80 ... : E-3 01 A ... ...
ROW B1 : ... .. E ... ... ... : ... .. F ... ... ... : F-4 00 . ... : ... .. C ... : ... .. . ... ... : ... .. . ... ... : ... .. . ... ... : ... .. 8 ... ...
ROW B2 : ... .. D ... ... ... : ... .. B ... ... ... : A#3 00 . ... : ... .. 6 ... : ... .. . ... ... : ... .. 5 ... ... : ... .. 5 ... ... : ... .. 5 ... ...
ROW B3 : ... .. A ... ... ... : ... .. 0 ... ... ... : A-3 00 . ... : ... .. 3 ... : ... .. . ... ... : ... .. 4 ... ... : ... .. 4 ... ... : ... .. . ... ...
ROW B4 : ... .. . ... ... ... : A-2 00 8 P80 ... ... : E-3 00 . ... : ... .. 2 ... : ... .. . ... ... : ... .. . ... ... : ... .. . ... ... : ... .. . ... ...
ROW B5 : ... .. . ... ... ... : ... .. C ... ... ... : ... .. . ... : ... .. 0 ... : ... .. . ... ... : ... .. . ... ... : ... .. . ... ... : ... .. . ... ...
ROW B6 : ... .. . ... ... ... : E-2 00 B ... ... ... : ... .. . ... : C-# 00 8 ... : ... .. . ... ... : ... .. . ... ... : ... .. . ... ... : ... .. . ... ...
ROW B7 : ... .. . ... ... ... : ... .. F ... ... ... : ... .. . ... : ... .. 6 ... : ... .. . ... ... : ... .. 3 ... ... : ... .. 3 ... ... : ... .. . ... ...
ROW B8 : ... .. . ... ... ... : ... .. B ... ... ... : ... .. . ... : ... .. 3 ... : ... .. . ... ... : ... .. . ... ... : ... .. . ... ... : ... .. . ... ...
ROW B9 : ... .. . ... ... ... : ... .. 0 ... ... ... : ... .. . ... : ... .. 1 ... : ... .. . ... ... : ... .. . ... ... : ... .. . ... ... : D#3 01 A ... ...
ROW BA : ... .. . ... ... ... : E-2 00 8 P80 ... ... : ... .. . ... : ... .. . ... : ... .. . ... ... : ... .. . ... ... : ... .. . ... ... : ... .. 8 ... ...
ROW BB : ... .. . ... ... ... : ... .. C ... ... ... : ... .. . ... : ... .. 0 ... : ... .. . ... ... : ... .. . ... ... : ... .. . ... ... : ... .. 5 ... ...
ROW BC : ... .. . ... ... ... : C#3 00 B ... ... ... : D-3 00 . P8A : ... .. 8 ... : ... .. . ... ... : ... .. . ... ... : ... .. . ... ... : ... .. . ... ...
ROW BD : ... .. . ... ... ... : ... .. F ... ... ... : C#3 00 . P81 : ... .. 6 ... : ... .. . ... ... : ... .. . ... ... : ... .. . ... ... : ... .. . ... ...
ROW BE : ... .. . ... ... ... : ... .. B ... ... ... : C-3 00 . P79 : ... .. 3 ... : ... .. . ... ... : ... .. . ... ... : ... .. . ... ... : ... .. . ... ...
ROW BF : ... .. . P84 ... ... : ... .. 0 ... ... ... : A#2 00 . P8D : ... .. 1 ... : ... .. . ... ... : ... .. . ... ... : ... .. . ... ... : ... .. . ... ...
ROW C0 : ... .. . P86 ... ... : C#3 00 8 P80 ... ... : A-2 00 . P89 : ... .. . ... : ... .. . ... ... : ... .. . ... ... : ... .. . ... ... : ... .. . ... ...
ROW C1 : ... .. . P85 ... ... : ... .. C ... ... ... : G#2 00 . P88 : ... .. 0 ... : ... .. . ... ... : ... .. . ... ... : ... .. . ... ... : ... .. . ... ...
ROW C2 : ... .. . P82 ... ... : E-3 00 B ... ... ... : G-5 00 . P80 : 1-# 00 F ... : ... .. . ... ... : A-4 01 6 ... ... : D#4 01 6 ... ... : C#3 01 A ... ...
ROW C3 : ... .. . P7E ... ... : ... .. F ... ... ... : A-4 00 . ... : ... .. C ... : ... .. . ... ... : ... .. . ... ... : ... .. . ... ... : ... .. 8 ... ...
ROW C4 : ... .. . P7B ... ... : ... .. B ... ... ... : D-4 00 . ... : ... .. 6 ... : ... .. . ... ... : ... .. 5 ... ... : ... .. 5 ... ... : ... .. 5 ... ...
ROW C5 : C-4 00 A P86 ... ... : ... .. 0 ... ... ... : C#4 00 . ... : ... .. 3 ... : ... .. . ... ... : ... .. 4 ... ... : ... .. 4 ... ... : ... .. . ... ...
ROW C6 : C#4 00 2 P7C ... ... : E-3 00 8 P80 ... ... : G#3 00 . ... : ... .. 2 ... : ... .. . ... ... : ... .. . ... ... : ... .. . ... ... : ... .. . ... ...
ROW C7 : ... .. . P80 ... ... : ... .. C ... ... ... : --- .. . ... : ... .. 0 ... : ... .. . ... ... : ... .. . ... ... : ... .. . ... ... : ... .. . ... ...
ROW C8 : ... .. . P83 ... ... : A-2 00 B ... ... ... : F#3 00 . ... : C-# 00 8 ... : ... .. . ... ... : ... .. . ... ... : ... .. . ... ... : ... .. . ... ...
ROW C9 : ... .. 1 P86 ... ... : ... .. F ... ... ... : ... .. . ... : ... .. 6 ... : ... .. . ... ... : ... .. 3 ... ... : ... .. 3 ... ... : ... .. . ... ...
ROW CA : ... .. . ... ... ... : ... .. B ... ... ... : ... .. . ... : ... .. 3 ... : ... .. . ... ... : ... .. . ... ... : ... .. . ... ... : ... .. . ... ...
ROW CB : B-3 00 F P80 ... ... : ... .. 0 ... ... ... : ... .. . ... : ... .. 1 ... : ... .. . ... ... : ... .. . ... ... : ... .. . ... ... : B-2 01 A ... ...
ROW CC : ... .. E ... ... ... : A-2 00 8 P80 ... ... : ... .. . ... : ... .. . ... : ... .. . ... ... : ... .. . ... ... : ... .. . ... ... : ... .. 8 ... ...
ROW CD : ... .. D ... ... ... : ... .. C ... ... ... : --- .. . ... : ... .. 0 ... : ... .. . ... ... : ... .. . ... ... : ... .. . ... ... : ... .. 5 ... ...
ROW CE : ... .. A ... ... ... : A-3 00 B ... ... ... : G#3 00 . ... : ... .. 8 ... : ... .. . ... ... : ... .. . ... ... : ... .. . ... ... : ... .. . ... ...
ROW CF : ... .. . ... ... ... : ... .. F ... ... ... : ... .. . ... : ... .. 6 ... : ... .. . ... ... : ... .. . ... ... : ... .. . ... ... : ... .. . ... ...
ROW D0 : ... .. . ... ... ... : ... .. B ... ... ... : ... .. . ... : ... .. 3 ... : ... .. . ... ... : ... .. . ... ... : ... .. . ... ... : ... .. . ... ...
ROW D1 : ... .. . ... ... ... : ... .. 0 ... ... ... : --- .. . ... : ... .. 1 ... : ... .. . ... ... : ... .. . ... ... : ... .. . ... ... : ... .. . ... ...
ROW D2 : ... .. 2 ... ... ... : A-3 00 8 P80 ... ... : ... .. . ... : ... .. . ... : ... .. . ... ... : ... .. . ... ... : ... .. . ... ... : ... .. . ... ...
ROW D3 : ... .. . ... ... ... : ... .. C ... ... ... : ... .. . ... : ... .. 0 ... : ... .. . ... ... : ... .. . ... ... : ... .. . ... ... : ... .. . ... ...
ROW D4 : C#4 00 F ... ... ... : C#4 00 B ... ... ... : D#6 00 . ... : 7-# 00 F ... : ... .. . ... ... : G#4 01 6 ... ... : E-4 01 6 ... ... : A-2 01 A ... ...
ROW D5 : ... .. E ... ... ... : ... .. F ... ... ... : F-5 00 . ... : ... .. C ... : ... .. . ... ... : ... .. . ... ... : ... .. . ... ... : ... .. 8 ... ...
ROW D6 : ... .. D ... ... ... : ... .. B ... ... ... : A#4 00 . ... : ... .. 6 ... : ... .. . ... ... : ... .. 5 ... ... : ... .. 5 ... ... : ... .. 5 ... ...
ROW D7 : ... .. A ... ... ... : ... .. 0 ... ... ... : A-4 00 . ... : ... .. 3 ... : ... .. . ... ... : ... .. 4 ... ... : ... .. 4 ... ... : ... .. . ... ...
ROW D8 : ... .. . ... ... ... : C#4 00 8 P80 ... ... : E-4 00 . ... : ... .. 2 ... : ... .. . ... ... : ... .. . ... ... : ... .. . ... ... : ... .. . ... ...
ROW D9 : ... .. . ... ... ... : ... .. C ... ... ... : ... .. . ... : ... .. 0 ... : ... .. . ... ... : ... .. . ... ... : ... .. . ... ... : ... .. . ... ...
ROW DA : ... .. . ... ... ... : E-3 00 B ... ... ... : ... .. . ... : 1-# 00 8 ... : ... .. . ... ... : ... .. . ... ... : ... .. . ... ... : ... .. . ... ...
ROW DB : ... .. . ... ... ... : ... .. F ... ... ... : ... .. . ... : ... .. 6 ... : ... .. . ... ... : ... .. 3 ... ... : ... .. 3 ... ... : ... .. . ... ...
ROW DC : ... .. . ... ... ... : ... .. B ... ... ... : ... .. . ... : ... .. 3 ... : ... .. . ... ... : ... .. . ... ... : ... .. . ... ... : ... .. . ... ...
ROW DD : ... .. . ... ... ... : ... .. 0 ... ... ... : ... .. . ... : ... .. 1 ... : ... .. . ... ... : ... .. . ... ... : ... .. . ... ... : G#2 01 A ... ...
ROW DE : ... .. . ... ... ... : E-3 00 8 P80 ... ... : ... .. . ... : ... .. . ... : ... .. . ... ... : ... .. . ... ... : ... .. . ... ... : ... .. 8 ... ...
ROW DF : ... .. . ... ... ... : ... .. C ... ... ... : ... .. . ... : ... .. 0 ... : ... .. . ... ... : ... .. . ... ... : ... .. . ... ... : ... .. 5 ... ...
ROW E0 : ... .. . ... ... ... : A-3 00 B ... ... ... : D#4 00 . ... : 7-# 00 F ... : ... .. . ... ... : ... .. . ... ... : ... .. . ... ... : ... .. . ... ...
ROW E1 : ... .. . ... ... ... : ... .. F ... ... ... : ... .. . ... : ... .. C ... : ... .. . ... ... : ... .. . ... ... : ... .. . ... ... : ... .. . ... ...
ROW E2 : ... .. . ... ... ... : ... .. B ... ... ... : ... .. . ... : ... .. 6 ... : ... .. . ... ... : ... .. . ... ... : ... .. . ... ... : ... .. . ... ...
ROW E3 : ... .. . ... ... ... : ... .. 0 ... ... ... : ... .. . ... : ... .. 3 ... : ... .. . ... ... : ... .. . ... ... : ... .. . ... ... : ... .. . ... ...
ROW E4 : ... .. . ... ... ... : A-3 00 8 P80 ... ... : ... .. . ... : ... .. 2 ... : ... .. . ... ... : ... .. . ... ... : ... .. . ... ... : ... .. . ... ...
ROW E5 : ... .. . ... ... ... : ... .. C ... ... ... : ... .. . ... : ... .. 0 ... : ... .. . ... ... : ... .. . ... ... : ... .. . ... ... : ... .. . ... ...
ROW E6 : ... .. . ... ... ... : C#4 00 B ... ... ... : ... .. . ... : 1-# 00 8 ... : ... .. . ... ... : A-4 01 6 ... ... : C#4 01 6 ... ... : F#2 01 A ... ...
ROW E7 : ... .. . ... ... ... : ... .. F ... ... ... : ... .. . ... : ... .. 6 ... : ... .. . ... ... : ... .. . ... ... : ... .. . ... ... : ... .. 8 ... ...
ROW E8 : ... .. . ... ... ... : ... .. B ... ... ... : ... .. . ... : ... .. 3 ... : ... .. . ... ... : ... .. 5 ... ... : ... .. 5 ... ... : ... .. 5 ... ...
ROW E9 : ... .. . ... ... ... : ... .. 0 ... ... ... : ... .. . ... : ... .. 1 ... : ... .. . ... ... : ... .. 4 ... ... : ... .. 4 ... ... : ... .. . ... ...
ROW EA : ... .. . ... ... ... : C#4 00 8 P80 ... ... : ... .. . ... : ... .. . ... : ... .. . ... ... : ... .. . ... ... : ... .. . ... ... : ... .. . ... ...
ROW EB : ... .. . ... ... ... : ... .. C ... ... ... : --- .. . ... : ... .. 0 ... : ... .. . ... ... : ... .. . ... ... : ... .. . ... ... : ... .. . ... ...
ROW EC : ... .. . P84 ... ... : A-3 00 B ... ... ... : G#3 00 . ... : 7-# 00 F ... : ... .. . ... ... : ... .. . ... ... : ... .. . ... ... : ... .. . ... ...
ROW ED : ... .. . P86 ... ... : ... .. F ... ... ... : ... .. . ... : ... .. C ... : ... .. . ... ... : ... .. 3 ... ... : ... .. 3 ... ... : ... .. . ... ...
ROW EE : ... .. . P85 ... ... : ... .. B ... ... ... : ... .. . ... : ... .. 6 ... : ... .. . ... ... : ... .. . ... ... : ... .. . ... ... : ... .. . ... ...
ROW EF : ... .. . P82 ... ... : ... .. 0 ... ... ... : ... .. . ... : ... .. 3 ... : ... .. . ... ... : ... .. . ... ... : ... .. . ... ... : E-2 01 A ... ...
ROW F0 : ... .. . P7E ... ... : A-3 00 8 P80 ... ... : ... .. . ... : ... .. 2 ... : ... .. . ... ... : ... .. . ... ... : ... .. . ... ... : ... .. 8 ... ...
ROW F1 : ... .. . P7B ... ... : ... .. C ... ... ... : ... .. . ... : ... .. 0 ... : ... .. . ... ... : ... .. . ... ... : ... .. . ... ... : ... .. 5 ... ...
ROW F2 : C-4 00 A P86 ... ... : C#4 00 B ... ... ... : ... .. . ... : 1-# 00 8 ... : ... .. . ... ... : ... .. . ... ... : ... .. . ... ... : ... .. . ... ...
ROW F3 : C#4 00 A P7C ... ... : ... .. F ... ... ... : ... .. . ... : ... .. 6 ... : ... .. . ... ... : ... .. . ... ... : ... .. . ... ... : ... .. . ... ...
ROW F4 : ... .. . P80 ... ... : ... .. B ... ... ... : ... .. . ... : ... .. 3 ... : ... .. . ... ... : ... .. . ... ... : ... .. . ... ... : ... .. . ... ...
ROW F5 : ... .. . P83 ... ... : ... .. 0 ... ... ... : ... .. . ... : ... .. 1 ... : ... .. . ... ... : ... .. . ... ... : ... .. . ... ... : ... .. . ... ...
ROW F6 : ... .. . P86 ... ... : C#4 00 8 P80 ... ... : ... .. . ... : ... .. . ... : ... .. . ... ... : ... .. . ... ... : ... .. . ... ... : ... .. . ... ...
ROW F7 : ... .. . ... ... ... : ... .. C ... ... ... : --- .. . ... : ... .. 0 ... : ... .. . ... ... : ... .. . ... ... : ... .. . ... ... : ... .. . ... ...
ROW F8 : ... .. . P82 ... ... : F#4 00 B ... ... ... : G#3 00 . ... : ... .. F ... : ... .. . ... ... : C#5 01 6 ... ... : A-3 01 6 ... ... : D#2 01 A ... ...
ROW F9 : ... .. . P7F ... ... : ... .. F ... ... ... : A#2 00 . ... : ... .. C ... : ... .. . ... ... : ... .. . ... ... : ... .. . ... ... : ... .. 8 ... ...
ROW FA : ... .. . P7B ... ... : ... .. B ... ... ... : D#2 00 . ... : ... .. 6 ... : ... .. . ... ... : ... .. 5 ... ... : ... .. 5 ... ... : ... .. 5 ... ...
ROW FB : C-4 00 A P86 ... ... : ... .. 0 ... ... ... : D-2 00 . ... : ... .. 3 ... : ... .. . ... ... : ... .. 4 ... ... : ... .. 4 ... ... : ... .. . ... ...
ROW FC : C#4 00 A P7C ... ... : F#4 00 8 P80 ... ... : A-1 00 . ... : ... .. 2 ... : ... .. . ... ... : ... .. . ... ... : ... .. . ... ... : ... .. . ... ...
ROW FD : ... .. . P80 ... ... : ... .. C ... ... ... : ... .. . ... : ... .. 0 ... : ... .. . ... ... : ... .. . ... ... : ... .. . ... ... : ... .. . ... ...
ROW FE : ... .. . P83 ... ... : A-3 00 B ... ... ... : ... .. . ... : C-# 00 8 ... : ... .. . ... ... : ... .. . ... ... : ... .. . ... ... : ... .. . ... ...
ROW FF : ... .. . P86 ... ... : ... .. F ... ... ... : ... .. . ... : ... .. 6 ... : ... .. . ... ... : ... .. 3 ... ... : ... .. 3 ... ... : ... .. . ... ...

PATTERN 0B
ROW 00 : ... .. . ... ... ... : ... .. B ... ... ... : ... .. . ... : ... .. 3 ... : ... .. . ... ... : ... .. . ... ... : ... .. . ... ... : ... .. . ... ...
ROW 01 : ... .. . P83 ... ... : ... .. 0 ... ... ... : ... .. . ... : ... .. 1 ... : ... .. . ... ... : ... .. . ... ... : ... .. . ... ... : C#2 01 A ... ...
ROW 02 : ... .. . P80 ... ... : A-3 00 8 P80 ... ... : ... .. . ... : ... .. . ... : ... .. . ... ... : ... .. . ... ... : ... .. . ... ... : ... .. 8 ... ...
ROW 03 : ... .. . P7C ... ... : ... .. C ... ... ... : ... .. . ... : ... .. 0 ... : ... .. . ... ... : ... .. . ... ... : ... .. . ... ... : ... .. 5 ... ...
ROW 04 : C-4 00 A P86 ... ... : C#4 00 B ... ... ... : ... .. . ... : ... .. 8 ... : ... .. . ... ... : ... .. . ... ... : ... .. . ... ... : ... .. . ... ...
ROW 05 : C#4 00 2 P7B ... ... : ... .. F ... ... ... : ... .. . ... : ... .. 6 ... : ... .. . ... ... : ... .. . ... ... : ... .. . ... ... : ... .. . ... ...
ROW 06 : ... .. . P7F ... ... : ... .. B ... ... ... : ... .. . ... : ... .. 3 ... : ... .. . ... ... : ... .. . ... ... : ... .. . ... ... : ... .. . ... ...
ROW 07 : ... .. . P82 ... ... : ... .. 0 ... ... ... : ... .. . ... : ... .. 1 ... : ... .. . ... ... : ... .. . ... ... : ... .. . ... ... : ... .. . ... ...
ROW 08 : ... .. 1 P86 ... ... : C#4 00 8 P80 ... ... : ... .. . ... : ... .. . ... : ... .. . ... ... : ... .. . ... ... : ... .. . ... ... : ... .. . ... ...
ROW 09 : ... .. . ... ... ... : ... .. C ... ... ... : ... .. . ... : ... .. 0 ... : ... .. . ... ... : ... .. . ... ... : ... .. . ... ... : ... .. . ... ...
ROW 0A : ... .. F P80 ... ... : F#4 00 B ... ... ... : C-5 00 . ... : 1-# 00 F ... : ... .. . ... ... : F#4 01 6 ... ... : C#4 01 6 ... ... : B-1 01 A ... ...
ROW 0B : ... .. E ... ... ... : ... .. F ... ... ... : D-4 00 . ... : ... .. C ... : ... .. . ... ... : ... .. . ... ... : ... .. . ... ... : ... .. 8 ... ...
ROW 0C : ... .. D ... ... ... : ... .. B ... ... ... : G-3 00 . ... : ... .. 6 ... : ... .. . ... ... : ... .. 5 ... ... : ... .. 5 ... ... : ... .. 5 ... ...
ROW 0D : ... .. A ... ... ... : ... .. 0 ... ... ... : F#3 00 . ... : ... .. 3 ... : ... .. . ... ... : ... .. 4 ... ... : ... .. 4 ... ... : ... .. . ... ...
ROW 0E : ... .. . P85 ... ... : F#4 00 8 P80 ... ... : C#3 00 . ... : ... .. 2 ... : ... .. . ... ... : ... .. . ... ... : ... .. . ... ... : ... .. . ... ...
ROW 0F : D-4 00 A P7E ... ... : ... .. C ... ... ... : --- .. . ... : ... .. 0 ... : ... .. . ... ... : ... .. . ... ... : ... .. . ... ... : ... .. . ... ...
ROW 10 : ... .. . P83 ... ... : C#4 00 B ... ... ... : D#3 00 . ... : C-# 00 8 ... : ... .. . ... ... : ... .. . ... ... : ... .. . ... ... : ... .. . ... ...
ROW 11 : D#4 00 A P7E ... ... : ... .. F ... ... ... : ... .. . ... : ... .. 6 ... : ... .. . ... ... : ... .. 3 ... ... : ... .. 3 ... ... : ... .. . ... ...
ROW 12 : ... .. . P80 ... ... : ... .. B ... ... ... : ... .. . ... : ... .. 3 ... : ... .. . ... ... : ... .. . ... ... : ... .. . ... ... : ... .. . ... ...
ROW 13 : ... .. . ... ... ... : ... .. 0 ... ... ... : ... .. . ... : ... .. 1 ... : ... .. . ... ... : ... .. . ... ... : ... .. . ... ... : A-1 01 A ... ...
ROW 14 : ... .. . ... ... ... : C#4 00 8 P80 ... ... : ... .. . ... : ... .. . ... : ... .. . ... ... : ... .. . ... ... : ... .. . ... ... : ... .. 8 ... ...
ROW 15 : ... .. . ... ... ... : ... .. C ... ... ... : --- .. . ... : ... .. 0 ... : ... .. . ... ... : ... .. . ... ... : ... .. . ... ... : ... .. 5 ... ...
ROW 16 : ... .. . ... ... ... : A-3 00 B ... ... ... : E-3 00 . ... : ... .. 8 ... : ... .. . ... ... : ... .. . ... ... : ... .. . ... ... : ... .. . ... ...
ROW 17 : ... .. . ... ... ... : ... .. F ... ... ... : ... .. . ... : ... .. 6 ... : ... .. . ... ... : ... .. . ... ... : ... .. . ... ... : ... .. . ... ...
ROW 18 : ... .. . ... ... ... : ... .. B ... ... ... : ... .. . ... : ... .. 3 ... : ... .. . ... ... : ... .. . ... ... : ... .. . ... ... : ... .. . ... ...
ROW 19 : ... .. . ... ... ... : ... .. 0 ... ... ... : ... .. . ... : ... .. 1 ... : ... .. . ... ... : ... .. . ... ... : ... .. . ... ... : ... .. . ... ...
ROW 1A : ... .. . ... ... ... : A-3 00 8 P80 ... ... : ... .. . ... : ... .. . ... : ... .. . ... ... : ... .. . ... ... : ... .. . ... ... : ... .. . ... ...
ROW 1B : ... .. . ... ... ... : ... .. C ... ... ... : --- .. . ... : ... .. 0 ... : ... .. . ... ... : ... .. . ... ... : ... .. . ... ... : ... .. . ... ...
ROW 1C : E-4 00 F ... ... ... : C#4 00 B ... ... ... : E-3 00 . ... : 7-# 00 F ... : ... .. . ... ... : A-4 01 6 ... ... : F#4 01 6 ... ... : G#1 01 A ... ...
ROW 1D : ... .. E ... ... ... : ... .. F ... ... ... : ... .. . ... : ... .. C ... : ... .. . ... ... : ... .. . ... ... : ... .. . ... ... : ... .. 8 ... ...
ROW 1E : ... .. D ... ... ... : ... .. B ... ... ... : ... .. . ... : ... .. 6 ... : ... .. . ... ... : ... .. 5 ... ... : ... .. 5 ... ... : ... .. 5 ... ...
ROW 1F : ... .. A ... ... ... : ... .. 0 ... ... ... : ... .. . ... : ... .. 3 ... : ... .. . ... ... : ... .. 4 ... ... : ... .. 4 ... ... : ... .. . ... ...
ROW 20 : ... .. . ... ... ... : C#4 00 8 P80 ... ... : ... .. . ... : ... .. 2 ... : ... .. . ... ... : ... .. . ... ... : ... .. . ... ... : ... .. . ... ...
ROW 21 : ... .. . ... ... ... : ... .. C ... ... ... : --- .. . ... : ... .. 0 ... : ... .. . ... ... : ... .. . ... ... : ... .. . ... ... : ... .. . ... ...
ROW 22 : ... .. . ... ... ... : C#3 00 B ... ... ... : D#3 00 . ... : ... .. 8 ... : ... .. . ... ... : ... .. . ... ... : ... .. . ... ... : ... .. . ... ...
ROW 23 : ... .. . ... ... ... : ... .. F ... ... ... : ... .. . ... : ... .. 6 ... : ... .. . ... ... : ... .. 3 ... ... : ... .. 3 ... ... : ... .. . ... ...
ROW 24 : ... .. . ... ... ... : ... .. B ... ... ... : ... .. . ... : ... .. 3 ... : ... .. . ... ... : ... .. . ... ... : ... .. . ... ... : ... .. . ... ...
ROW 25 : ... .. . ... ... ... : ... .. 0 ... ... ... : ... .. . ... : ... .. 1 ... : ... .. . ... ... : ... .. . ... ... : ... .. . ... ... : F#1 01 A ... ...
ROW 26 : ... .. . ... ... ... : C#3 00 8 P80 ... ... : ... .. . ... : ... .. . ... : ... .. . ... ... : ... .. . ... ... : ... .. . ... ... : ... .. 8 ... ...
ROW 27 : ... .. . ... ... ... : ... .. C ... ... ... : --- .. . ... : ... .. 0 ... : ... .. . ... ... : ... .. . ... ... : ... .. . ... ... : ... .. 5 ... ...
ROW 28 : F#4 00 F ... ... ... : F#3 00 B ... ... ... : C#3 00 . ... : 4-# 00 F ... : ... .. . ... ... : ... .. . ... ... : ... .. . ... ... : ... .. . ... ...
ROW 29 : ... .. E ... ... ... : ... .. F ... ... ... : ... .. . ... : ... .. C ... : ... .. . ... ... : ... .. . ... ... : ... .. . ... ... : ... .. . ... ...
ROW 2A : ... .. D ... ... ... : ... .. B ... ... ... : ... .. . ... : ... .. 6 ... : ... .. . ... ... : ... .. . ... ... : ... .. . ... ... : ... .. . ... ...
ROW 2B : ... .. A ... ... ... : ... .. 0 ... ... ... : ... .. . ... : ... .. 3 ... : ... .. . ... ... : ... .. . ... ... : ... .. . ... ... : ... .. . ... ...
ROW 2C : ... .. . ... ... ... : F#3 00 8 P80 ... ... : ... .. . ... : ... .. 2 ... : ... .. . ... ... : ... .. . ... ... : ... .. . ... ... : ... .. . ... ...
ROW 2D : ... .. . ... ... ... : ... .. C ... ... ... : --- .. . ... : ... .. 0 ... : ... .. . ... ... : ... .. . ... ... : ... .. . ... ... : ... .. . ... ...
ROW 2E : ... .. . ... ... ... : A-3 00 B ... ... ... : G#3 00 . ... : 9-# 00 8 ... : ... .. . ... ... : C#5 01 6 ... ... : D#4 01 6 ... ... : E-1 01 A ... ...
ROW 2F : ... .. . ... ... ... : ... .. F ... ... ... : ... .. . ... : ... .. 6 ... : ... .. . ... ... : ... .. . ... ... : ... .. . ... ... : ... .. 8 ... ...
ROW 30 : ... .. . ... ... ... : ... .. B ... ... ... : ... .. . ... : ... .. 3 ... : ... .. . ... ... : ... .. 5 ... ... : ... .. 5 ... ... : ... .. 5 ... ...
ROW 31 : ... .. . ... ... ... : ... .. 0 ... ... ... : ... .. . ... : ... .. 1 ... : ... .. . ... ... : ... .. 4 ... ... : ... .. 4 ... ... : ... .. . ... ...
ROW 32 : ... .. 2 ... ... ... : A-3 00 8 P80 ... ... : ... .. . ... : ... .. . ... : ... .. . ... ... : ... .. . ... ... : ... .. . ... ... : ... .. . ... ...
ROW 33 : ... .. . ... ... ... : ... .. C ... ... ... : --- .. . ... : ... .. 0 ... : ... .. . ... ... : ... .. . ... ... : ... .. . ... ... : ... .. . ... ...
ROW 34 : E-4 00 F ... ... ... : F#3 00 B ... ... ... : E-3 00 . ... : 7-# 00 F ... : ... .. . ... ... : ... .. . ... ... : ... .. . ... ... : ... .. . ... ...
ROW 35 : ... .. E ... ... ... : ... .. F ... ... ... : ... .. . ... : ... .. C ... : ... .. . ... ... : ... .. 3 ... ... : ... .. 3 ... ... : ... .. . ... ...
ROW 36 : ... .. D ... ... ... : ... .. B ... ... ... : ... .. . ... : ... .. 6 ... : ... .. . ... ... : ... .. . ... ... : ... .. . ... ... : ... .. . ... ...
ROW 37 : ... .. A ... ... ... : ... .. 0 ... ... ... : ... .. . ... : ... .. 3 ... : ... .. . ... ... : ... .. . ... ... : ... .. . ... ... : D#1 01 A ... ...
ROW 38 : ... .. . ... ... ... : F#3 00 8 P80 ... ... : ... .. . ... : ... .. 2 ... : ... .. . ... ... : ... .. . ... ... : ... .. . ... ... : ... .. 8 ... ...
ROW 39 : ... .. . ... ... ... : ... .. C ... ... ... : --- .. . ... : ... .. 0 ... : ... .. . ... ... : ... .. . ... ... : ... .. . ... ... : ... .. 5 ... ...
ROW 3A : ... .. . ... ... ... : C#3 00 B ... ... ... : C#3 00 . ... : 5-# 00 8 ... : ... .. . ... ... : ... .. . ... ... : ... .. . ... ... : ... .. . ... ...
ROW 3B : ... .. . ... ... ... : ... .. F ... ... ... : ... .. . ... : ... .. 6 ... : ... .. . ... ... : ... .. . ... ... : ... .. . ... ... : ... .. . ... ...
ROW 3C : ... .. . ... ... ... : ... .. B ... ... ... : ... .. . ... : ... .. 3 ... : ... .. . ... ... : ... .. . ... ... : ... .. . ... ... : ... .. . ... ...
ROW 3D : ... .. . ... ... ... : ... .. 0 ... ... ... : ... .. . ... : ... .. 1 ... : ... .. . ... ... : ... .. . ... ... : ... .. . ... ... : ... .. . ... ...
ROW 3E : ... .. 2 ... ... ... : C#3 00 8 P80 ... ... : ... .. . ... : ... .. . ... : ... .. . ... ... : ... .. . ... ... : ... .. . ... ... : ... .. . ... ...
ROW 3F : ... .. . ... ... ... : ... .. C ... ... ... : --- .. . ... : ... .. 0 ... : ... .. . ... ... : ... .. . ... ... : ... .. . ... ... : ... .. . ... ...
ROW 40 : C#4 00 F ... ... ... : D#4 00 F ... ... ... : D-4 00 . ... : B-# 00 D ... : ... .. . ... ... : B-3 01 6 ... ... : G#3 01 6 ... ... : D#2 01 A ... ...
ROW 41 : ... .. E ... ... ... : ... .. E ... ... ... : E-3 00 . ... : ... .. B ... : ... .. . ... ... : ... .. . ... ... : ... .. . ... ... : ... .. 8 ... ...
ROW 42 : ... .. D ... ... ... : ... .. D ... ... ... : A-2 00 . ... : ... .. . ... : ... .. . ... ... : ... .. 5 ... ... : ... .. 5 ... ... : ... .. 5 ... ...
ROW 43 : ... .. A ... ... ... : ... .. A ... ... ... : G#2 00 . ... : ... .. A ... : ... .. . ... ... : ... .. 4 ... ... : ... .. 4 ... ... : ... .. . ... ...
ROW 44 : ... .. . P85 ... ... : ... .. . ... ... ... : D#2 00 . ... : ... .. 8 ... : ... .. . ... ... : ... .. . ... ... : ... .. . ... ... : ... .. . ... ...
ROW 45 : D-4 00 A P7E ... ... : ... .. . ... ... ... : ... .. . ... : ... .. 7 ... : ... .. . ... ... : ... .. . ... ... : ... .. . ... ... : ... .. . ... ...
ROW 46 : ... .. . P83 ... ... : ... .. . ... ... ... : ... .. . ... : C-# 00 8 ... : ... .. . ... ... : ... .. 3 ... ... : ... .. 3 ... ... : ... .. . ... ...
ROW 47 : D#4 00 A P7E ... ... : ... .. 2 ... ... ... : ... .. . ... : ... .. 6 ... : ... .. . ... ... : ... .. . ... ... : ... .. . ... ... : ... .. . ... ...
ROW 48 : ... .. . P80 ... ... : ... .. . ... ... ... : ... .. . ... : ... .. 3 ... : ... .. . ... ... : ... .. 2 ... ... : ... .. 2 ... ... : ... .. . ... ...
ROW 49 : ... .. . ... ... ... : ... .. . ... ... ... : ... .. . ... : ... .. 1 ... : ... .. . ... ... : ... .. . ... ... : ... .. . ... ... : ... .. . ... ...
ROW 4A : ... .. . ... ... ... : ... .. 1 ... ... ... : ... .. . ... : ... .. . ... : ... .. . ... ... : ... .. . ... ... : ... .. . ... ... : ... .. . ... ...
ROW 4B : ... .. . ... ... ... : ... .. . ... ... ... : ... .. . ... : ... .. 0 ... : ... .. . ... ... : ... .. . ... ... : ... .. . ... ... : ... .. . ... ...
ROW 4C : ... .. . ... ... ... : F#4 00 F ... ... ... : C-5 00 . ... : B-# 00 D ... : ... .. . ... ... : D#4 01 6 ... ... : C#4 01 6 ... ... : ... .. . ... ...
ROW 4D : ... .. . ... ... ... : ... .. E ... ... ... : D-4 00 . ... : ... .. B ... : ... .. . ... ... : ... .. . ... ... : ... .. . ... ... : ... .. . ... ...
ROW 4E : ... .. . ... ... ... : ... .. D ... ... ... : G-3 00 . ... : ... .. . ... : ... .. . ... ... : ... .. 5 ... ... : ... .. 5 ... ... : ... .. . ... ...
ROW 4F : ... .. . ... ... ... : ... .. A ... ... ... : F#3 00 . ... : ... .. A ... : ... .. . ... ... : ... .. 4 ... ... : ... .. 4 ... ... : ... .. . ... ...
ROW 50 : ... .. . ... ... ... : ... .. . ... ... ... : C#3 00 . ... : ... .. 8 ... : ... .. . ... ... : ... .. . ... ... : ... .. . ... ... : ... .. . ... ...
ROW 51 : ... .. . ... ... ... : ... .. . ... ... ... : ... .. . ... : ... .. 7 ... : ... .. . ... ... : ... .. . ... ... : ... .. . ... ... : ... .. . ... ...
ROW 52 : ... .. . ... ... ... : ... .. . ... ... ... : ... .. . ... : 1-# 00 F ... : ... .. . ... ... : ... .. 3 ... ... : ... .. 3 ... ... : E-2 01 A ... ...
ROW 53 : ... .. . ... ... ... : ... .. 2 ... ... ... : ... .. . ... : ... .. C ... : ... .. . ... ... : ... .. . ... ... : ... .. . ... ... : ... .. 8 ... ...
ROW 54 : ... .. . ... ... ... : ... .. . ... ... ... : ... .. . ... : ... .. 6 ... : ... .. . ... ... : ... .. 2 ... ... : ... .. 2 ... ... : ... .. 5 ... ...
ROW 55 : ... .. . ... ... ... : ... .. . ... ... ... : ... .. . ... : ... .. 3 ... : ... .. . ... ... : ... .. . ... ... : ... .. . ... ... : ... .. . ... ...
ROW 56 : ... .. . ... ... ... : ... .. 1 ... ... ... : ... .. . ... : ... .. 2 ... : ... .. . ... ... : ... .. . ... ... : ... .. . ... ... : ... .. . ... ...
ROW 57 : ... .. . ... ... ... : ... .. . ... ... ... : ... .. . ... : ... .. 0 ... : ... .. . ... ... : ... .. . ... ... : ... .. . ... ... : ... .. . ... ...
ROW 58 : ... .. . ... ... ... : D#4 00 F ... ... ... : D-5 00 . ... : B-# 00 D ... : ... .. . ... ... : B-3 01 6 ... ... : F#3 01 6 ... ... : ... .. . ... ...
ROW 59 : ... .. . ... ... ... : ... .. E ... ... ... : E-4 00 . ... : ... .. B ... : ... .. . ... ... : ... .. . ... ... : ... .. . ... ... : ... .. . ... ...
ROW 5A : ... .. . ... ... ... : ... .. D ... ... ... : A-3 00 . ... : ... .. . ... : ... .. . ... ... : ... .. 5 ... ... : ... .. 5 ... ... : ... .. . ... ...
ROW 5B : ... .. . ... ... ... : ... .. A ... ... ... : G#3 00 . ... : ... .. A ... : ... .. . ... ... : ... .. 4 ... ... : ... .. 4 ... ... : ... .. . ... ...
ROW 5C : ... .. . ... ... ... : ... .. . ... ... ... : D#3 00 . ... : ... .. 8 ... : ... .. . ... ... : ... .. . ... ... : ... .. . ... ... : ... .. . ... ...
ROW 5D : ... .. . ... ... ... : ... .. . ... ... ... : ... .. . ... : ... .. 7 ... : ... .. . ... ... : ... .. . ... ... : ... .. . ... ... : ... .. . ... ...
ROW 5E : ... .. . ... ... ... : ... .. . ... ... ... : ... .. . ... : C-# 00 8 ... : ... .. . ... ... : ... .. 3 ... ... : ... .. 3 ... ... : ... .. . ... ...
ROW 5F : ... .. . ... ... ... : ... .. 2 ... ... ... : ... .. . ... : ... .. 6 ... : ... .. . ... ... : ... .. . ... ... : ... .. . ... ... : ... .. . ... ...
ROW 60 : ... .. . ... ... ... : ... .. . ... ... ... : ... .. . ... : ... .. 3 ... : ... .. . ... ... : ... .. 2 ... ... : ... .. 2 ... ... : ... .. . ... ...
ROW 61 : ... .. . ... ... ... : ... .. . ... ... ... : ... .. . ... : ... .. 1 ... : ... .. . ... ... : ... .. . ... ... : ... .. . ... ... : ... .. . ... ...
ROW 62 : ... .. . ... ... ... : ... .. 1 ... ... ... : ... .. . ... : ... .. . ... : ... .. . ... ... : ... .. . ... ... : ... .. . ... ... : ... .. . ... ...
ROW 63 : ... .. . ... ... ... : ... .. . ... ... ... : ... .. . ... : ... .. 0 ... : ... .. . ... ... : ... .. . ... ... : ... .. . ... ... : ... .. . ... ...
ROW 64 : ... .. . ... ... ... : E-4 00 F ... ... ... : D-3 00 . ... : B-# 00 D ... : ... .. . ... ... : C#4 01 6 ... ... : ... .. 6 ... ... : A-2 01 A ... ...
ROW 65 : ... .. . ... ... ... : ... .. E ... ... ... : E-2 00 . ... : ... .. B ... : ... .. . ... ... : ... .. . ... ... : ... .. . ... ... : ... .. 8 ... ...
ROW 66 : ... .. . ... ... ... : ... .. D ... ... ... : A-1 00 . ... : ... .. . ... : ... .. . ... ... : ... .. 5 ... ... : ... .. 5 ... ... : ... .. 5 ... ...
ROW 67 : ... .. . ... ... ... : ... .. A ... ... ... : G#1 00 . ... : ... .. A ... : ... .. . ... ... : ... .. 4 ... ... : ... .. 4 ... ... : ... .. . ... ...
ROW 68 : ... .. . ... ... ... : ... .. . ... ... ... : D#1 00 . ... : ... .. 8 ... : ... .. . ... ... : ... .. . ... ... : ... .. . ... ... : ... .. . ... ...
ROW 69 : ... .. . ... ... ... : ... .. . ... ... ... : ... .. . ... : ... .. 7 ... : ... .. . ... ... : ... .. . ... ... : ... .. . ... ... : ... .. . ... ...
ROW 6A : E-4 00 A P7C ... ... : ... .. . ... ... ... : ... .. . ... : ... .. 6 ... : ... .. . ... ... : ... .. . ... ... : E-3 01 6 ... ... : ... .. . ... ...
ROW 6B : ... .. . P7F ... ... : ... .. . ... ... ... : ... .. . ... : ... .. . ... : ... .. . ... ... : ... .. 3 ... ... : ... .. . ... ... : ... .. . ... ...
ROW 6C : ... .. . P7E ... ... : ... .. . ... ... ... : ... .. . ... : ... .. 5 ... : ... .. . ... ... : ... .. . ... ... : ... .. 5 ... ... : ... .. . ... ...
ROW 6D : D#4 00 A P82 ... ... : ... .. . ... ... ... : ... .. . ... : ... .. . ... : ... .. . ... ... : ... .. . ... ... : ... .. 3 ... ... : ... .. . ... ...
ROW 6E : ... .. . P7E ... ... : ... .. . ... ... ... : ... .. . ... : ... .. 4 ... : ... .. . ... ... : ... .. . ... ... : ... .. . ... ... : ... .. . ... ...
ROW 6F : D-4 00 A P82 ... ... : ... .. . ... ... ... : ... .. . ... : ... .. . ... : ... .. . ... ... : ... .. . ... ... : ... .. 2 ... ... : ... .. . ... ...
ROW 70 : ... .. . P81 ... ... : ... .. . ... ... ... : ... .. . ... : 7-# 00 F ... : ... .. . ... ... : ... .. . ... ... : D#3 01 6 ... ... : ... .. . ... ...
ROW 71 : ... .. . P84 ... ... : ... .. . ... ... ... : ... .. . ... : ... .. C ... : ... .. . ... ... : ... .. . ... ... : ... .. . ... ... : ... .. . ... ...
ROW 72 : D#4 00 A P80 ... ... : ... .. . ... ... ... : ... .. . ... : ... .. 6 ... : ... .. . ... ... : ... .. . ... ... : ... .. 5 ... ... : ... .. . ... ...
ROW 73 : ... .. . P85 ... ... : ... .. . ... ... ... : ... .. . ... : ... .. 3 ... : ... .. . ... ... : ... .. . ... ... : ... .. 3 ... ... : ... .. . ... ...
ROW 74 : E-4 00 A P7F ... ... : ... .. 2 ... ... ... : ... .. . ... : ... .. 2 ... : ... .. . ... ... : ... .. . ... ... : ... .. . ... ... : ... .. . ... ...
ROW 75 : ... .. . P7E ... ... : ... .. . ... ... ... : ... .. . ... : ... .. 0 ... : ... .. . ... ... : ... .. . ... ... : ... .. 2 ... ... : ... .. . ... ...
ROW 76 : D#4 00 A P83 ... ... : G#3 00 B ... ... ... : ... .. . ... : 1-# 00 8 ... : ... .. . ... ... : ... .. . ... ... : E-3 01 6 ... ... : C#3 01 A ... ...
ROW 77 : ... .. . P7F ... ... : ... .. F ... ... ... : ... .. . ... : ... .. 6 ... : ... .. . ... ... : ... .. . ... ... : ... .. . ... ... : ... .. 8 ... ...
ROW 78 : D-4 00 A P83 ... ... : ... .. B ... ... ... : ... .. . ... : ... .. 3 ... : ... .. . ... ... : ... .. . ... ... : ... .. 5 ... ... : ... .. 5 ... ...
ROW 79 : ... .. . P81 ... ... : ... .. 0 ... ... ... : ... .. . ... : ... .. 1 ... : ... .. . ... ... : ... .. . ... ... : ... .. 4 ... ... : ... .. . ... ...
ROW 7A : ... .. . P83 ... ... : G#3 00 8 P80 ... ... : ... .. . ... : ... .. . ... : ... .. . ... ... : ... .. . ... ... : ... .. . ... ... : ... .. . ... ...
ROW 7B : D#4 00 A P80 ... ... : ... .. C ... ... ... : ... .. . ... : ... .. 0 ... : ... .. . ... ... : ... .. . ... ... : ... .. . ... ... : ... .. . ... ...
ROW 7C : ... .. . P84 ... ... : G#2 00 B ... ... ... : ... .. . ... : 7-# 00 F ... : ... .. . ... ... : ... .. . ... ... : D#3 01 6 ... ... : ... .. . ... ...
ROW 7D : E-4 00 A P7F ... ... : ... .. F ... ... ... : ... .. . ... : ... .. C ... : ... .. . ... ... : ... .. . ... ... : ... .. . ... ... : ... .. . ... ...
ROW 7E : ... .. . ... ... ... : ... .. B ... ... ... : ... .. . ... : ... .. 6 ... : ... .. . ... ... : ... .. . ... ... : ... .. 5 ... ... : ... .. . ... ...
ROW 7F : D#4 00 A P84 ... ... : ... .. 0 ... ... ... : ... .. . ... : ... .. 3 ... : ... .. . ... ... : ... .. . ... ... : ... .. 3 ... ... : ... .. . ... ...
ROW 80 : ... .. 2 P80 ... ... : G#2 00 8 P80 ... ... : ... .. . ... : ... .. 2 ... : ... .. . ... ... : ... .. . ... ... : ... .. . ... ... : ... .. . ... ...
ROW 81 : D-4 00 2 P83 ... ... : ... .. C ... ... ... : ... .. . ... : ... .. 0 ... : ... .. . ... ... : ... .. . ... ... : ... .. 2 ... ... : ... .. . ... ...
ROW 82 : ... .. . P81 ... ... : C#3 00 B ... ... ... : ... .. . ... : 1-# 00 8 ... : ... .. . ... ... : ... .. . ... ... : C#3 01 6 ... ... : ... .. . ... ...
ROW 83 : ... .. 1 P83 ... ... : ... .. F ... ... ... : ... .. . ... : ... .. 6 ... : ... .. . ... ... : ... .. . ... ... : ... .. . ... ... : ... .. . ... ...
ROW 84 : D#4 00 1 P7F ... ... : ... .. B ... ... ... : ... .. . ... : ... .. 3 ... : ... .. . ... ... : ... .. . ... ... : ... .. 5 ... ... : ... .. . ... ...
ROW 85 : ... .. . P83 ... ... : ... .. 0 ... ... ... : ... .. . ... : ... .. 1 ... : ... .. . ... ... : ... .. . ... ... : ... .. 3 ... ... : ... .. . ... ...
ROW 86 : ... .. 0 ... V00 ... : C#3 00 8 P80 ... ... : ... .. . ... : ... .. . ... : ... .. . ... ... : ... .. . ... ... : ... .. . ... ... : ... .. . ... ...
ROW 87 : ... .. . ... ... ... : ... .. C ... ... ... : ... .. . ... : ... .. 0 ... : ... .. . ... ... : ... .. . ... ... : ... .. 2 ... ... : ... .. . ... ...
ROW 88 : E-4 00 F P80 V02 ... : D#3 00 F ... ... ... : D-4 00 . ... : 5-# 00 D ... : ... .. . ... ... : B-2 01 6 ... ... : A-3 01 6 ... ... : F#3 01 A ... ...
ROW 89 : ... .. E ... ... ... : ... .. E ... ... ... : E-3 00 . ... : ... .. B ... : ... .. . ... ... : ... .. . ... ... : ... .. . ... ... : ... .. 8 ... ...
ROW 8A : ... .. D ... ... ... : ... .. D ... ... ... : A-2 00 . ... : ... .. . ... : ... .. . ... ... : ... .. 5 ... ... : ... .. 5 ... ... : ... .. 5 ... ...
ROW 8B : ... .. A ... ... ... : ... .. A ... ... ... : G#2 00 . ... : ... .. A ... : ... .. . ... ... : ... .. 4 ... ... : ... .. 4 ... ... : ... .. . ... ...
ROW 8C : ... .. . ... ... ... : ... .. . ... ... ... : D#2 00 . ... : ... .. 8 ... : ... .. . ... ... : ... .. . ... ... : ... .. . ... ... : ... .. . ... ...
ROW 8D : ... .. . ... ... ... : ... .. . ... ... ... : ... .. . ... : ... .. 7 ... : ... .. . ... ... : ... .. . ... ... : ... .. . ... ... : ... .. . ... ...
ROW 8E : ... .. . ... ... ... : ... .. . ... ... ... : ... .. . ... : ... .. D ... : ... .. . ... ... : ... .. 3 ... ... : E-3 01 6 ... ... : ... .. . ... ...
ROW 8F : ... .. . ... ... ... : ... .. 2 ... ... ... : ... .. . ... : ... .. B ... : ... .. . ... ... : ... .. . ... ... : ... .. . ... ... : ... .. 2 ... ...
ROW 90 : ... .. . ... ... ... : ... .. . ... ... ... : ... .. . ... : ... .. . ... : ... .. . ... ... : ... .. 2 ... ... : ... .. 5 ... ... : ... .. . ... ...
ROW 91 : D-4 00 A P84 ... ... : ... .. . ... ... ... : ... .. . ... : ... .. A ... : ... .. . ... ... : ... .. . ... ... : ... .. 4 ... ... : ... .. 1 ... ...
ROW 92 : C#4 00 A P80 ... ... : ... .. 1 ... ... ... : ... .. . ... : ... .. 8 ... : ... .. . ... ... : ... .. . ... ... : ... .. . ... ... : ... .. . ... ...
ROW 93 : C-4 00 A P7C ... ... : ... .. . ... ... ... : ... .. . ... : ... .. 7 ... : ... .. . ... ... : ... .. . ... ... : ... .. . ... ... : ... .. . ... ...
ROW 94 : A#3 00 A P86 ... ... : F#3 00 F ... ... ... : ... .. . ... : ... .. D ... : ... .. . ... ... : E-4 01 6 ... ... : C#3 01 6 ... ... : ... .. A ... ...
ROW 95 : A-3 00 A P84 ... ... : ... .. E ... ... ... : ... .. . ... : ... .. B ... : ... .. . ... ... : ... .. . ... ... : ... .. . ... ... : ... .. 8 ... ...
ROW 96 : G#3 00 A P83 ... ... : ... .. D ... ... ... : ... .. . ... : ... .. . ... : ... .. . ... ... : ... .. 5 ... ... : ... .. 5 ... ... : ... .. 5 ... ...
ROW 97 : G-3 00 A ... V01 ... : ... .. A ... ... ... : ... .. . ... : ... .. A ... : ... .. . ... ... : ... .. 4 ... ... : ... .. 4 ... ... : ... .. . ... ...
ROW 98 : F#3 00 2 P84 ... ... : ... .. . ... ... ... : ... .. . ... : ... .. 8 ... : ... .. . ... ... : ... .. . ... ... : ... .. . ... ... : ... .. . ... ...
ROW 99 : F-3 00 2 P86 ... ... : ... .. . ... ... ... : ... .. . ... : ... .. 7 ... : ... .. . ... ... : ... .. . ... ... : ... .. . ... ... : ... .. . ... ...
ROW 9A : E-4 00 F P80 ... ... : ... .. . ... ... ... : D#3 00 . ... : B-# 00 D ... : ... .. . ... ... : C#4 01 6 ... ... : D#2 01 6 ... ... : ... .. . ... ...
ROW 9B : ... .. E ... ... ... : ... .. 2 ... ... ... : ... .. . ... : ... .. B ... : ... .. . ... ... : ... .. . ... ... : ... .. . ... ... : ... .. 2 ... ...
ROW 9C : ... .. D ... ... ... : ... .. . ... ... ... : ... .. . ... : ... .. . ... : ... .. . ... ... : ... .. 5 ... ... : ... .. 5 ... ... : ... .. . ... ...
ROW 9D : ... .. A ... ... ... : ... .. . ... ... ... : ... .. . ... : ... .. A ... : ... .. . ... ... : ... .. 4 ... ... : ... .. 4 ... ... : ... .. 1 ... ...
ROW 9E : ... .. 2 ... ... ... : ... .. 1 ... ... ... : ... .. . ... : ... .. 8 ... : ... .. . ... ... : ... .. . ... ... : ... .. . ... ... : ... .. . ... ...
ROW 9F : ... .. . ... ... ... : ... .. . ... ... ... : --- .. . ... : ... .. 7 ... : ... .. . ... ... : ... .. . ... ... : ... .. . ... ... : ... .. . ... ...
ROW A0 : ... .. F ... ... ... : B-4 00 F ... ... ... : D#3 00 . ... : ... .. D ... : ... .. . ... ... : A-3 01 6 ... ... : C#3 01 6 ... ... : ... .. A ... ...
ROW A1 : ... .. E ... ... ... : ... .. E ... ... ... : ... .. . ... : ... .. B ... : ... .. . ... ... : ... .. . ... ... : ... .. . ... ... : ... .. 8 ... ...
ROW A2 : ... .. D ... ... ... : ... .. D ... ... ... : ... .. . ... : ... .. . ... : ... .. . ... ... : ... .. 5 ... ... : ... .. 5 ... ... : ... .. 5 ... ...
ROW A3 : ... .. A ... ... ... : ... .. A ... ... ... : ... .. . ... : ... .. A ... : ... .. . ... ... : ... .. 4 ... ... : ... .. 4 ... ... : ... .. . ... ...
ROW A4 : ... .. 2 ... ... ... : ... .. . ... ... ... : ... .. . ... : ... .. 8 ... : ... .. . ... ... : ... .. . ... ... : ... .. . ... ... : ... .. . ... ...
ROW A5 : ... .. . ... ... ... : ... .. . ... ... ... : --- .. . ... : ... .. 7 ... : ... .. . ... ... : ... .. . ... ... : ... .. . ... ... : ... .. . ... ...
ROW A6 : ... .. F ... ... ... : ... .. . ... ... ... : D#3 00 . ... : ... .. D ... : ... .. . ... ... : E-3 01 6 ... ... : E-3 01 6 ... ... : ... .. . ... ...
ROW A7 : ... .. E ... ... ... : ... .. 2 ... ... ... : ... .. . ... : ... .. B ... : ... .. . ... ... : ... .. . ... ... : ... .. . ... ... : ... .. 2 ... ...
ROW A8 : ... .. D ... ... ... : ... .. . ... ... ... : ... .. . ... : ... .. . ... : ... .. . ... ... : ... .. 5 ... ... : ... .. 5 ... ... : ... .. . ... ...
ROW A9 : ... .. A ... ... ... : ... .. . ... ... ... : ... .. . ... : ... .. A ... : ... .. . ... ... : ... .. 4 ... ... : ... .. 4 ... ... : ... .. 1 ... ...
ROW AA : ... .. 2 ... ... ... : ... .. 1 ... ... ... : ... .. . ... : ... .. 8 ... : ... .. . ... ... : ... .. . ... ... : ... .. . ... ... : ... .. . ... ...
ROW AB : ... .. . ... ... ... : ... .. . ... ... ... : --- .. . ... : ... .. 7 ... : ... .. . ... ... : ... .. . ... ... : ... .. . ... ... : ... .. . ... ...
ROW AC : F#4 00 F ... ... ... : A-3 00 F ... ... ... : C#4 00 . ... : 7-# 00 D ... : ... .. . ... ... : A-3 01 6 ... ... : D#4 01 6 ... ... : A-3 01 A ... ...
ROW AD : ... .. E ... ... ... : ... .. E ... ... ... : ... .. . ... : ... .. B ... : ... .. . ... ... : ... .. . ... ... : ... .. . ... ... : ... .. 8 ... ...
ROW AE : ... .. D ... ... ... : ... .. D ... ... ... : ... .. . ... : ... .. . ... : ... .. . ... ... : ... .. 5 ... ... : ... .. 5 ... ... : ... .. 5 ... ...
ROW AF : ... .. A ... ... ... : ... .. A ... ... ... : ... .. . ... : ... .. A ... : ... .. . ... ... : ... .. 4 ... ... : ... .. 4 ... ... : ... .. . ... ...
ROW B0 : ... .. . ... ... ... : ... .. . ... ... ... : ... .. . ... : ... .. 8 ... : ... .. . ... ... : ... .. . ... ... : ... .. . ... ... : ... .. . ... ...
ROW B1 : ... .. . ... ... ... : ... .. . ... ... ... : --- .. . ... : ... .. 7 ... : ... .. . ... ... : ... .. . ... ... : ... .. . ... ... : ... .. . ... ...
ROW B2 : ... .. F ... ... ... : ... .. F ... ... ... : C#4 00 . ... : ... .. D ... : ... .. . ... ... : C#4 01 6 ... ... : G-3 01 6 ... ... : ... .. . ... ...
ROW B3 : ... .. E ... ... ... : ... .. E ... ... ... : ... .. . ... : ... .. B ... : ... .. . ... ... : ... .. . ... ... : ... .. . ... ... : ... .. 2 ... ...
ROW B4 : ... .. D ... ... ... : ... .. D ... ... ... : ... .. . ... : ... .. . ... : ... .. . ... ... : ... .. 5 ... ... : ... .. 5 ... ... : ... .. . ... ...
ROW B5 : ... .. A ... ... ... : ... .. A ... ... ... : ... .. . ... : ... .. A ... : ... .. . ... ... : ... .. 4 ... ... : ... .. 3 ... ... : ... .. 1 ... ...
ROW B6 : ... .. 2 ... ... ... : ... .. . ... ... ... : ... .. . ... : ... .. 8 ... : ... .. . ... ... : ... .. . ... ... : ... .. . ... ... : ... .. . ... ...
ROW B7 : ... .. . ... ... ... : ... .. . ... ... ... : --- .. . ... : ... .. 7 ... : ... .. . ... ... : ... .. . ... ... : ... .. 2 ... ... : ... .. . ... ...
ROW B8 : ... .. F ... ... ... : ... .. F ... ... ... : C#4 00 . ... : ... .. D ... : ... .. . ... ... : F#4 01 6 ... ... : D#3 01 6 ... ... : ... .. A ... ...
ROW B9 : ... .. E ... ... ... : ... .. E ... ... ... : ... .. . ... : ... .. B ... : ... .. . ... ... : ... .. . ... ... : ... .. . ... ... : ... .. 8 ... ...
ROW BA : ... .. D ... ... ... : ... .. D ... ... ... : ... .. . ... : ... .. . ... : ... .. . ... ... : ... .. 5 ... ... : ... .. 5 ... ... : ... .. 5 ... ...
ROW BB : ... .. A ... ... ... : ... .. A ... ... ... : ... .. . ... : ... .. A ... : ... .. . ... ... : ... .. 4 ... ... : ... .. 4 ... ... : ... .. . ... ...
ROW BC : ... .. 2 ... ... ... : ... .. . ... ... ... : ... .. . ... : ... .. 8 ... : ... .. . ... ... : ... .. . ... ... : ... .. . ... ... : ... .. . ... ...
ROW BD : ... .. . ... ... ... : ... .. . ... ... ... : --- .. . ... : ... .. 7 ... : ... .. . ... ... : ... .. . ... ... : ... .. . ... ... : ... .. . ... ...
ROW BE : ... .. F ... ... ... : ... .. F ... ... ... : D#3 00 . ... : 5-# 00 D ... : ... .. . ... ... : C#4 01 6 ... ... : D#2 01 6 ... ... : ... .. . ... ...
ROW BF : ... .. E ... ... ... : ... .. E ... ... ... : ... .. . ... : ... .. B ... : ... .. . ... ... : ... .. . ... ... : ... .. . ... ... : ... .. 2 ... ...
ROW C0 : ... .. D ... ... ... : ... .. D ... ... ... : ... .. . ... : ... .. . ... : ... .. . ... ... : ... .. 5 ... ... : ... .. 5 ... ... : ... .. . ... ...
ROW C1 : ... .. A ... ... ... : ... .. A ... ... ... : ... .. . ... : ... .. A ... : ... .. . ... ... : ... .. 4 ... ... : ... .. 4 ... ... : ... .. 1 ... ...
ROW C2 : ... .. 2 ... ... ... : ... .. . ... ... ... : ... .. . ... : ... .. 8 ... : ... .. . ... ... : ... .. . ... ... : ... .. . ... ... : ... .. . ... ...
ROW C3 : ... .. . ... ... ... : ... .. . ... ... ... : --- .. . ... : ... .. 7 ... : ... .. . ... ... : ... .. . ... ... : ... .. . ... ... : ... .. . ... ...
ROW C4 : ... .. F ... ... ... : F#3 00 F ... ... ... : D#3 00 . ... : ... .. D ... : ... .. . ... ... : A-3 01 6 ... ... : D#3 01 6 ... ... : ... .. A ... ...
ROW C5 : ... .. E ... ... ... : ... .. E ... ... ... : ... .. . ... : ... .. B ... : ... .. . ... ... : ... .. . ... ... : ... .. . ... ... : ... .. 8 ... ...
ROW C6 : ... .. D ... ... ... : ... .. D ... ... ... : ... .. . ... : ... .. . ... : ... .. . ... ... : ... .. 5 ... ... : ... .. 5 ... ... : ... .. 5 ... ...
ROW C7 : ... .. A ... ... ... : ... .. A ... ... ... : ... .. . ... : ... .. A ... : ... .. . ... ... : ... .. 4 ... ... : ... .. 4 ... ... : ... .. . ... ...
ROW C8 : ... .. 2 ... ... ... : ... .. . ... ... ... : ... .. . ... : ... .. 8 ... : ... .. . ... ... : ... .. . ... ... : ... .. . ... ... : ... .. . ... ...
ROW C9 : ... .. . ... ... ... : ... .. . ... ... ... : --- .. . ... : ... .. 7 ... : ... .. . ... ... : ... .. . ... ... : ... .. . ... ... : ... .. . ... ...
ROW CA : ... .. F ... ... ... : E-3 00 F ... ... ... : D#3 00 . ... : ... .. D ... : ... .. . ... ... : C#4 01 6 ... ... : D#4 01 6 ... ... : ... .. . ... ...
ROW CB : ... .. E ... ... ... : ... .. E ... ... ... : ... .. . ... : ... .. B ... : ... .. . ... ... : ... .. . ... ... : ... .. . ... ... : ... .. 2 ... ...
ROW CC : ... .. D ... ... ... : ... .. D ... ... ... : ... .. . ... : ... .. . ... : ... .. . ... ... : ... .. 5 ... ... : ... .. 5 ... ... : ... .. . ... ...
ROW CD : ... .. A ... ... ... : ... .. A ... ... ... : ... .. . ... : ... .. A ... : ... .. . ... ... : ... .. 4 ... ... : ... .. 4 ... ... : ... .. 1 ... ...
ROW CE : ... .. 2 ... ... ... : ... .. . ... ... ... : ... .. . ... : ... .. 8 ... : ... .. . ... ... : ... .. . ... ... : ... .. . ... ... : ... .. . ... ...
ROW CF : ... .. . ... ... ... : ... .. . ... ... ... : --- .. . ... : ... .. 7 ... : ... .. . ... ... : ... .. . ... ... : ... .. . ... ... : ... .. . ... ...
ROW D0 : G#1 00 C ... ... ... : D#3 00 F ... ... ... : G-4 00 . ... : 8-# 00 D ... : ... .. . ... ... : G#4 01 8 ... ... : ... .. 8 ... ... : G#1 01 F ... ...
ROW D1 : ... .. B ... ... ... : ... .. E ... ... ... : A-3 00 . ... : ... .. . ... : ... .. . ... ... : ... .. 7 ... ... : ... .. 7 ... ... : ... .. D ... ...
ROW D2 : ... .. A ... ... ... : ... .. D ... ... ... : D-3 00 . ... : ... .. . ... : ... .. . ... ... : ... .. 6 ... ... : ... .. 6 ... ... : ... .. 8 ... ...
ROW D3 : ... .. 8 ... ... ... : ... .. A ... ... ... : C#3 00 . ... : B-# 00 D ... : ... .. . ... ... : ... .. 5 ... ... : ... .. 5 ... ... : ... .. . ... ...
ROW D4 : ... .. 1 ... ... ... : ... .. . ... ... ... : G#2 00 . ... : ... .. . ... : ... .. . ... ... : ... .. . ... ... : ... .. . ... ... : ... .. . ... ...
ROW D5 : ... .. . ... ... ... : ... .. . ... ... ... : ... .. . ... : ... .. . ... : ... .. . ... ... : ... .. 4 ... ... : ... .. 4 ... ... : ... .. . ... ...
ROW D6 : ... .. C ... ... ... : ... .. . ... ... ... : ... .. . ... : ... .. . ... : ... .. . ... ... : ... .. . ... ... : ... .. . ... ... : ... .. . ... ...
ROW D7 : ... .. B ... ... ... : ... .. . ... ... ... : ... .. . ... : ... .. . ... : ... .. . ... ... : ... .. . ... ... : ... .. . ... ... : ... .. . ... ...
ROW D8 : ... .. A ... ... ... : ... .. . ... ... ... : ... .. . ... : ... .. . ... : ... .. . ... ... : ... .. . ... ... : ... .. . ... ... : ... .. . ... ...
ROW D9 : ... .. 8 ... ... ... : ... .. 0 ... ... ... : G-2 00 . ... : ... .. A ... : ... .. . ... ... : E-4 01 4 P83 ... : C-4 01 4 P82 ... : ... .. . P60 ...
ROW DA : ... .. 1 ... ... ... : ... .. . ... ... ... : F#2 00 . P82 : ... .. . ... : ... .. . ... ... : C#4 01 4 ... ... : A#3 01 4 P7C ... : G-1 01 8 P8A ...
ROW DB : ... .. . ... ... ... : ... .. . ... ... ... : F-2 00 . P86 : ... .. . ... : ... .. . ... ... : B-3 01 4 P7B ... : G#3 01 4 P79 ... : ... .. . P6A ...
ROW DC : D#2 00 C ... ... ... : E-3 00 F P80 ... ... : E-2 00 . P8C : ... .. 9 ... : ... .. . ... ... : G#3 01 4 P86 ... : F#3 01 4 P7A ... : F#1 01 8 P97 ...
ROW DD : ... .. B ... ... ... : ... .. E ... ... ... : D#2 00 . P94 : ... .. . ... : ... .. . ... ... : F#3 01 4 P87 ... : E-3 01 4 P7F ... : ... .. . P77 ...
ROW DE : ... .. A ... ... ... : ... .. D ... ... ... : ... .. . P74 : ... .. . ... : ... .. . ... ... : F-3 01 4 P79 ... : D-3 01 4 P89 ... : F-1 01 8 PA9 ...
ROW DF : ... .. 8 ... ... ... : ... .. 0 ... ... ... : D-2 00 . P7F : ... .. 8 ... : ... .. . ... ... : D#3 01 4 P81 ... : C#3 01 4 P80 ... : ... .. . P89 ...
ROW E0 : ... .. . ... ... ... : ... .. . ... ... ... : C#2 00 . P8C : ... .. . ... : ... .. . ... ... : D-3 01 4 P76 ... : C-3 01 4 P78 ... : ... .. . P69 ...
ROW E1 : ... .. . ... ... ... : ... .. . ... ... ... : ... .. . P6C : ... .. . ... : ... .. . ... ... : C-3 01 4 P85 ... : A#2 01 4 P8C ... : E-1 01 8 PA0 ...
ROW E2 : D-2 00 C ... ... ... : E-3 00 F P80 ... ... : G-5 00 . P80 : ... .. 7 ... : ... .. . ... ... : G#4 01 8 P80 ... : D#4 01 8 P80 ... : G#2 01 F P80 ...
ROW E3 : ... .. B ... ... ... : ... .. E ... ... ... : A-4 00 . ... : ... .. . ... : ... .. . ... ... : ... .. 7 ... ... : ... .. 7 ... ... : ... .. D ... ...
ROW E4 : ... .. A ... ... ... : ... .. D ... ... ... : D-4 00 . ... : ... .. . ... : ... .. . ... ... : ... .. 6 ... ... : ... .. 6 ... ... : ... .. 8 ... ...
ROW E5 : ... .. 8 ... ... ... : ... .. A ... ... ... : C#4 00 . ... : ... .. 6 ... : ... .. . ... ... : ... .. 5 ... ... : ... .. 5 ... ... : ... .. . ... ...
ROW E6 : ... .. 1 ... ... ... : ... .. . ... ... ... : G#3 00 . ... : ... .. . ... : ... .. . ... ... : ... .. . ... ... : ... .. . ... ... : ... .. . ... ...
ROW E7 : ... .. . ... ... ... : ... .. . ... ... ... : --- .. . ... : ... .. . ... : ... .. . ... ... : ... .. 4 ... ... : ... .. 4 ... ... : --- .. . P7F ...
ROW E8 : D#2 00 C ... ... ... : ... .. . ... ... ... : F#3 00 . ... : ... .. 5 ... : ... .. . ... ... : ... .. . ... ... : ... .. . ... ... : F#2 01 F P80 ...
ROW E9 : ... .. B ... ... ... : ... .. . ... ... ... : ... .. . ... : ... .. . ... : ... .. . ... ... : ... .. . ... ... : ... .. . ... ... : ... .. D ... ...
ROW EA : ... .. A ... ... ... : ... .. . ... ... ... : ... .. . ... : ... .. . ... : ... .. . ... ... : ... .. . ... ... : ... .. . ... ... : ... .. 8 ... ...
ROW EB : ... .. 8 ... ... ... : ... .. . ... ... ... : ... .. . ... : ... .. 4 ... : ... .. . ... ... : E-4 01 4 P83 ... : C-4 01 4 P82 ... : ... .. . ... ...
ROW EC : ... .. . ... ... ... : ... .. . ... ... ... : ... .. . ... : ... .. . ... : ... .. . ... ... : C#4 01 4 ... ... : A#3 01 4 P7C ... : ... .. . ... ...
ROW ED : ... .. . ... ... ... : ... .. . ... ... ... : --- .. . ... : ... .. . ... : ... .. . ... ... : B-3 01 4 P7B ... : G#3 01 4 P79 ... : --- .. . P84 ...
ROW EE : B-1 00 C ... ... ... : ... .. . ... ... ... : G#3 00 . ... : ... .. 3 ... : ... .. . ... ... : G#3 01 4 P86 ... : F#3 01 4 P7A ... : G#2 01 F P80 ...
ROW EF : ... .. B ... ... ... : ... .. . ... ... ... : ... .. . ... : ... .. . ... : ... .. . ... ... : F#3 01 4 P87 ... : E-3 01 4 P7F ... : ... .. D ... ...
ROW F0 : ... .. A ... ... ... : ... .. . ... ... ... : ... .. . ... : ... .. . ... : ... .. . ... ... : F-3 01 4 P79 ... : D-3 01 4 P89 ... : ... .. 8 ... ...
ROW F1 : ... .. 8 ... ... ... : F-3 00 A P77 ... ... : --- .. . ... : ... .. 2 ... : ... .. . ... ... : D#3 01 4 P81 ... : C#3 01 4 P80 ... : --- .. . P7F ...
ROW F2 : ... .. 1 ... ... ... : ... .. . P7D ... ... : ... .. . ... : ... .. . ... : ... .. . ... ... : D-3 01 4 P76 ... : C-3 01 4 P78 ... : ... .. . ... ...
ROW F3 : ... .. . ... ... ... : ... .. . P7B ... ... : ... .. . ... : ... .. . ... : ... .. . ... ... : C-3 01 4 P85 ... : A#2 01 4 P8C ... : ... .. . ... ...
ROW F4 : G-2 00 C ... ... ... : E-3 00 A P84 ... ... : D#6 00 . ... : 7-# 00 F ... : ... .. . ... ... : G#4 01 8 P80 ... : D#4 01 8 P80 ... : E-3 01 F P80 ...
ROW F5 : ... .. B ... ... ... : ... .. . P7C ... ... : F-5 00 . ... : ... .. C ... : ... .. . ... ... : ... .. 7 ... ... : ... .. 7 ... ... : ... .. D ... ...
ROW F6 : ... .. A ... ... ... : D#3 00 A P87 ... ... : A#4 00 . ... : ... .. 6 ... : ... .. . ... ... : ... .. 6 ... ... : ... .. 6 ... ... : ... .. 8 ... ...
ROW F7 : ... .. 8 ... ... ... : ... .. . P85 ... ... : A-4 00 . ... : ... .. 3 ... : ... .. . ... ... : ... .. 5 ... ... : ... .. 5 ... ... : ... .. . ... ...
ROW F8 : ... .. . ... ... ... : E-3 00 A P76 ... ... : E-4 00 . ... : ... .. 2 ... : ... .. . ... ... : ... .. . ... ... : ... .. . ... ... : ... .. . ... ...
ROW F9 : ... .. . ... ... ... : ... .. . P80 ... ... : ... .. . ... : ... .. 0 ... : ... .. . ... ... : ... .. 4 ... ... : ... .. 4 ... ... : ... .. . ... ...
ROW FA : ... .. C ... ... ... : ... .. . P89 ... ... : ... .. . ... : 1-# 00 8 ... : ... .. . ... ... : ... .. . ... ... : ... .. . ... ... : ... .. . ... ...
ROW FB : ... .. B ... ... ... : F-3 00 A P7D ... ... : ... .. . ... : ... .. 6 ... : ... .. . ... ... : ... .. . ... ... : ... .. . ... ... : ... .. . ... ...
ROW FC : ... .. A ... ... ... : ... .. . P7B ... ... : ... .. . ... : ... .. 3 ... : ... .. . ... ... : ... .. . ... ... : ... .. . ... ... : ... .. . ... ...
ROW FD : ... .. 8 ... ... ... : E-3 00 A P86 ... ... : ... .. . ... : ... .. 1 ... : ... .. . ... ... : E-4 01 4 P83 ... : C-4 01 4 P82 ... : ... .. . ... ...
ROW FE : ... .. 1 ... ... ... : ... .. . P7D ... ... : ... .. . ... : ... .. . ... : ... .. . ... ... : C#4 01 4 ... ... : A#3 01 4 P7C ... : ... .. . ... ...
ROW FF : ... .. . ... ... ... : D#3 00 A P88 ... ... : ... .. . ... : ... .. 0 ... : ... .. . ... ... : B-3 01 4 P7B ... : G#3 01 4 P79 ... : ... .. . ... ...

PATTERN 0C
ROW 00 : G#1 00 C ... ... ... : ... .. . P85 ... ... : D#4 00 . ... : 7-# 00 F ... : ... .. . ... ... : G#3 01 4 P86 ... : F#3 01 4 P7A ... : D#3 01 F ... ...
ROW 01 : ... .. B ... ... ... : ... .. . P89 ... ... : ... .. . ... : ... .. C ... : ... .. . ... ... : F#3 01 4 P87 ... : E-3 01 4 P7F ... : ... .. D ... ...
ROW 02 : ... .. A ... ... ... : E-3 00 A P7F ... ... : ... .. . ... : ... .. 6 ... : ... .. . ... ... : F-3 01 4 P79 ... : D-3 01 4 P89 ... : ... .. 8 ... ...
ROW 03 : ... .. 8 ... ... ... : ... .. . P88 ... ... : ... .. . ... : ... .. 3 ... : ... .. . ... ... : D#3 01 4 P81 ... : C#3 01 4 P80 ... : ... .. . ... ...
ROW 04 : ... .. 1 ... ... ... : F-3 00 A P7C ... ... : ... .. . ... : ... .. 2 ... : ... .. . ... ... : D-3 01 4 P76 ... : C-3 01 4 P78 ... : ... .. . ... ...
ROW 05 : ... .. . ... ... ... : ... .. . ... ... ... : ... .. . ... : ... .. 0 ... : ... .. . ... ... : C-3 01 4 P85 ... : A#2 01 4 P8C ... : ... .. . ... ...
ROW 06 : F#2 00 C ... ... ... : D#3 00 F P80 ... ... : ... .. . ... : 1-# 00 8 ... : ... .. . ... ... : G#4 01 8 P80 ... : D#4 01 8 P80 ... : ... .. . ... ...
ROW 07 : ... .. B ... ... ... : ... .. E ... ... ... : ... .. . ... : ... .. 6 ... : ... .. . ... ... : ... .. 7 ... ... : ... .. 7 ... ... : ... .. . ... ...
ROW 08 : ... .. A ... ... ... : ... .. D ... ... ... : ... .. . ... : ... .. 3 ... : ... .. . ... ... : ... .. 6 ... ... : ... .. 6 ... ... : ... .. . ... ...
ROW 09 : ... .. 8 ... ... ... : ... .. A ... ... ... : ... .. . ... : ... .. 1 ... : ... .. . ... ... : ... .. 5 ... ... : ... .. 5 ... ... : ... .. . ... ...
ROW 0A : ... .. . ... ... ... : ... .. 2 ... ... ... : ... .. . ... : ... .. . ... : ... .. . ... ... : ... .. . ... ... : ... .. . ... ... : ... .. . ... ...
ROW 0B : ... .. . ... ... ... : ... .. . ... ... ... : --- .. . ... : ... .. 0 ... : ... .. . ... ... : ... .. 4 ... ... : ... .. 4 ... ... : --- .. . P7F ...
ROW 0C : ... .. C ... ... ... : ... .. F ... ... ... : G#3 00 . ... : 7-# 00 F ... : ... .. . ... ... : ... .. . ... ... : ... .. . ... ... : G#2 01 F P80 ...
ROW 0D : ... .. B ... ... ... : ... .. E ... ... ... : ... .. . ... : ... .. C ... : ... .. . ... ... : ... .. . ... ... : ... .. . ... ... : ... .. D ... ...
ROW 0E : ... .. A ... ... ... : ... .. D ... ... ... : ... .. . ... : ... .. 6 ... : ... .. . ... ... : ... .. . ... ... : ... .. . ... ... : ... .. 8 ... ...
ROW 0F : ... .. 8 ... ... ... : ... .. A ... ... ... : ... .. . ... : ... .. 3 ... : ... .. . ... ... : E-4 01 4 P83 ... : C-4 01 4 P82 ... : ... .. . ... ...
ROW 10 : ... .. 1 ... ... ... : ... .. 2 ... ... ... : ... .. . ... : ... .. 2 ... : ... .. . ... ... : C#4 01 4 ... ... : A#3 01 4 P7C ... : ... .. . ... ...
ROW 11 : ... .. . ... ... ... : ... .. . ... ... ... : ... .. . ... : ... .. 0 ... : ... .. . ... ... : B-3 01 4 P7B ... : G#3 01 4 P79 ... : ... .. . ... ...
ROW 12 : G#1 00 C ... ... ... : D#4 00 F ... ... ... : ... .. . ... : 1-# 00 8 ... : ... .. . ... ... : G#3 01 4 P86 ... : F#3 01 4 P7A ... : ... .. . ... ...
ROW 13 : ... .. B ... ... ... : ... .. E ... ... ... : ... .. . ... : ... .. 6 ... : ... .. . ... ... : F#3 01 4 P87 ... : E-3 01 4 P7F ... : ... .. . ... ...
ROW 14 : ... .. A ... ... ... : ... .. D ... ... ... : ... .. . ... : ... .. 3 ... : ... .. . ... ... : F-3 01 4 P79 ... : D-3 01 4 P89 ... : ... .. . ... ...
ROW 15 : ... .. 8 ... ... ... : ... .. A ... ... ... : ... .. . ... : ... .. 1 ... : ... .. . ... ... : D#3 01 4 P81 ... : C#3 01 4 P80 ... : ... .. . ... ...
ROW 16 : ... .. 1 ... ... ... : ... .. . ... ... ... : ... .. . ... : ... .. . ... : ... .. . ... ... : D-3 01 4 P76 ... : C-3 01 4 P78 ... : ... .. . ... ...
ROW 17 : ... .. . ... ... ... : ... .. . ... ... ... : --- .. . ... : ... .. 0 ... : ... .. . ... ... : C-3 01 4 P85 ... : A#2 01 4 P8C ... : --- .. . P7F ...
ROW 18 : F-2 00 C ... ... ... : ... .. F ... ... ... : G-3 00 . ... : ... .. F ... : ... .. . ... ... : G-4 01 8 P80 ... : D-4 01 8 P80 ... : G#0 01 F P80 ...
ROW 19 : ... .. B ... ... ... : ... .. E ... ... ... : A-2 00 . ... : ... .. C ... : ... .. . ... ... : ... .. 7 ... ... : ... .. 7 ... ... : ... .. D ... ...
ROW 1A : ... .. A ... ... ... : ... .. D ... ... ... : D-2 00 . ... : ... .. 6 ... : ... .. . ... ... : ... .. 6 ... ... : ... .. 6 ... ... : ... .. 8 ... ...
ROW 1B : ... .. 8 ... ... ... : ... .. A ... ... ... : C#2 00 . ... : ... .. 3 ... : ... .. . ... ... : ... .. 5 ... ... : ... .. 5 ... ... : ... .. . ... ...
ROW 1C : ... .. . ... ... ... : ... .. 2 ... ... ... : G#1 00 . ... : ... .. 2 ... : ... .. . ... ... : ... .. . ... ... : ... .. . ... ... : ... .. . ... ...
ROW 1D : ... .. . ... ... ... : ... .. . ... ... ... : ... .. . ... : ... .. 0 ... : ... .. . ... ... : ... .. 4 ... ... : ... .. 4 ... ... : ... .. . ... ...
ROW 1E : ... .. C ... ... ... : D-4 00 F ... ... ... : ... .. . ... : C-# 00 8 ... : ... .. . ... ... : ... .. . ... ... : ... .. . ... ... : ... .. . ... ...
ROW 1F : ... .. B ... ... ... : ... .. E ... ... ... : ... .. . ... : ... .. 6 ... : ... .. . ... ... : ... .. . ... ... : ... .. . ... ... : ... .. . ... ...
ROW 20 : ... .. A ... ... ... : ... .. D ... ... ... : ... .. . ... : ... .. 3 ... : ... .. . ... ... : ... .. . ... ... : ... .. . ... ... : ... .. . ... ...
ROW 21 : ... .. 8 ... ... ... : ... .. A ... ... ... : G-1 00 . PA0 : ... .. 1 ... : ... .. . ... ... : D#4 01 4 P85 ... : B-3 01 4 P84 ... : ... .. . P60 ...
ROW 22 : ... .. 1 ... ... ... : ... .. 2 ... ... ... : ... .. . P80 : ... .. . ... : ... .. . ... ... : C#4 01 4 P7B ... : A-3 01 4 P80 ... : ... .. . P40 ...
ROW 23 : ... .. . ... ... ... : ... .. . ... ... ... : ... .. . P60 : ... .. 0 ... : ... .. . ... ... : A#3 01 4 P81 ... : G-3 01 4 P7F ... : G-0 01 8 PB2 ...
ROW 24 : B-1 00 C ... ... ... : ... .. F ... ... ... : F#1 00 . P84 : ... .. 8 ... : ... .. . ... ... : G#3 01 4 P7E ... : F-3 01 4 P82 ... : ... .. . P92 ...
ROW 25 : ... .. B ... ... ... : ... .. E ... ... ... : ... .. . P64 : ... .. 6 ... : ... .. . ... ... : F#3 01 4 P7F ... : D#3 01 4 P8A ... : ... .. . P72 ...
ROW 26 : ... .. A ... ... ... : ... .. D ... ... ... : F-1 00 . P8C : ... .. 3 ... : ... .. . ... ... : E-3 01 4 P84 ... : D-3 01 4 P7F ... : ... .. . P52 ...
ROW 27 : ... .. 8 ... ... ... : ... .. A ... ... ... : ... .. . P6C : ... .. 1 ... : ... .. . ... ... : D#3 01 4 P79 ... : C#3 01 4 P76 ... : F#0 01 8 PCD ...
ROW 28 : ... .. 1 ... ... ... : ... .. 2 ... ... ... : E-1 00 . P98 : ... .. . ... : ... .. . ... ... : C#3 01 4 P85 ... : B-2 01 4 P87 ... : ... .. . PAD ...
ROW 29 : ... .. . ... ... ... : ... .. . ... ... ... : ... .. . P78 : ... .. 0 ... : ... .. . ... ... : C-3 01 4 P7D ... : A#2 01 4 P82 ... : ... .. . P8D ...
ROW 2A : ... .. C ... ... ... : ... .. F ... ... ... : G#2 00 . P80 : 1-# 00 F ... : ... .. . ... ... : G-4 01 8 P80 ... : D-4 01 8 P80 ... : G#1 01 F P80 ...
ROW 2B : ... .. B ... ... ... : ... .. E ... ... ... : ... .. . ... : ... .. C ... : ... .. . ... ... : ... .. 7 ... ... : ... .. 7 ... ... : ... .. D ... ...
ROW 2C : ... .. A ... ... ... : ... .. D ... ... ... : ... .. . ... : ... .. 6 ... : ... .. . ... ... : ... .. 6 ... ... : ... .. 6 ... ... : ... .. 8 ... ...
ROW 2D : ... .. 8 ... ... ... : ... .. A ... ... ... : ... .. . ... : ... .. 3 ... : ... .. . ... ... : ... .. 5 ... ... : ... .. 5 ... ... : ... .. . ... ...
ROW 2E : ... .. 1 ... ... ... : ... .. . ... ... ... : ... .. . ... : ... .. 2 ... : ... .. . ... ... : ... .. . ... ... : ... .. . ... ... : ... .. . ... ...
ROW 2F : ... .. . ... ... ... : ... .. . ... ... ... : ... .. . ... : ... .. 0 ... : ... .. . ... ... : ... .. 4 ... ... : ... .. 4 ... ... : ... .. . ... ...
ROW 30 : D-2 00 C ... ... ... : ... .. . ... ... ... : F#2 00 . ... : C-# 00 8 ... : ... .. . ... ... : ... .. . ... ... : ... .. . ... ... : F#1 01 F ... ...
ROW 31 : ... .. B ... ... ... : ... .. . ... ... ... : ... .. . ... : ... .. 6 ... : ... .. . ... ... : ... .. . ... ... : ... .. . ... ... : ... .. D ... ...
ROW 32 : ... .. A ... ... ... : ... .. . ... ... ... : ... .. . ... : ... .. 3 ... : ... .. . ... ... : ... .. . ... ... : ... .. . ... ... : ... .. 8 ... ...
ROW 33 : ... .. 8 ... ... ... : ... .. . ... ... ... : ... .. . ... : ... .. 1 ... : ... .. . ... ... : D#4 01 4 P85 ... : B-3 01 4 P84 ... : ... .. . ... ...
ROW 34 : ... .. 1 ... ... ... : ... .. . ... ... ... : ... .. . ... : ... .. . ... : ... .. . ... ... : C#4 01 4 P7B ... : A-3 01 4 P80 ... : ... .. . ... ...
ROW 35 : ... .. . ... ... ... : ... .. . ... ... ... : --- .. . ... : ... .. 0 ... : ... .. . ... ... : A#3 01 4 P81 ... : G-3 01 4 P7F ... : --- .. . P81 ...
ROW 36 : ... .. C ... ... ... : ... .. . ... ... ... : G#2 00 . ... : ... .. 8 ... : ... .. . ... ... : G#3 01 4 P7E ... : F-3 01 4 P82 ... : G#1 01 F P80 ...
ROW 37 : ... .. B ... ... ... : ... .. . ... ... ... : ... .. . ... : ... .. 6 ... : ... .. . ... ... : F#3 01 4 P7F ... : D#3 01 4 P8A ... : ... .. D ... ...
ROW 38 : ... .. A ... ... ... : ... .. . ... ... ... : ... .. . ... : ... .. 3 ... : ... .. . ... ... : E-3 01 4 P84 ... : D-3 01 4 P7F ... : ... .. 8 ... ...
ROW 39 : ... .. 8 ... ... ... : ... .. . ... ... ... : ... .. . ... : ... .. 1 ... : ... .. . ... ... : D#3 01 4 P79 ... : C#3 01 4 P76 ... : ... .. . ... ...
ROW 3A : ... .. 1 ... ... ... : ... .. . ... ... ... : ... .. . ... : ... .. . ... : ... .. . ... ... : C#3 01 4 P85 ... : B-2 01 4 P87 ... : ... .. . ... ...
ROW 3B : ... .. . ... ... ... : ... .. . ... ... ... : ... .. . ... : ... .. 0 ... : ... .. . ... ... : C-3 01 4 P7D ... : A#2 01 4 P82 ... : ... .. . ... ...
ROW 3C : C#2 00 C ... ... ... : ... .. . ... ... ... : G-5 00 . ... : 7-# 00 F ... : ... .. . ... ... : G-4 01 8 P80 ... : D-4 01 8 P80 ... : G#2 01 F ... ...
ROW 3D : ... .. B ... ... ... : ... .. . ... ... ... : A-4 00 . ... : ... .. C ... : ... .. . ... ... : ... .. 7 ... ... : ... .. 7 ... ... : ... .. D ... ...
ROW 3E : ... .. A ... ... ... : ... .. . ... ... ... : D-4 00 . ... : ... .. 6 ... : ... .. . ... ... : ... .. 6 ... ... : ... .. 6 ... ... : ... .. 8 ... ...
ROW 3F : ... .. 8 ... ... ... : ... .. . ... ... ... : C#4 00 . ... : ... .. 3 ... : ... .. . ... ... : ... .. 5 ... ... : ... .. 5 ... ... : ... .. . ... ...
ROW 40 : ... .. . ... ... ... : ... .. . ... ... ... : G#3 00 . ... : ... .. 2 ... : ... .. . ... ... : ... .. . ... ... : ... .. . ... ... : ... .. . ... ...
ROW 41 : ... .. . ... ... ... : ... .. . ... ... ... : --- .. . ... : ... .. 0 ... : ... .. . ... ... : ... .. 4 ... ... : ... .. 4 ... ... : --- .. . P7F ...
ROW 42 : ... .. C ... ... ... : D#4 00 A ... ... ... : F#3 00 . ... : ... .. 8 ... : ... .. . ... ... : ... .. . ... ... : ... .. . ... ... : F#2 01 F P80 ...
ROW 43 : ... .. B ... ... ... : E-4 00 A P7C ... ... : ... .. . ... : ... .. 6 ... : ... .. . ... ... : ... .. . ... ... : ... .. . ... ... : ... .. D ... ...
ROW 44 : ... .. A ... ... ... : D#4 00 A P84 ... ... : ... .. . ... : ... .. 3 ... : ... .. . ... ... : ... .. . ... ... : ... .. . ... ... : ... .. 8 ... ...
ROW 45 : ... .. 8 ... ... ... : D-4 00 A ... ... ... : ... .. . ... : ... .. 1 ... : ... .. . ... ... : ... .. . ... ... : ... .. . ... ... : ... .. . ... ...
ROW 46 : ... .. 1 ... ... ... : ... .. . P7C ... ... : ... .. . ... : ... .. . ... : ... .. . ... ... : ... .. . ... ... : ... .. . ... ... : ... .. . ... ...
ROW 47 : ... .. . ... ... ... : C#4 00 A P7E ... ... : --- .. . ... : ... .. 0 ... : ... .. . ... ... : ... .. . ... ... : ... .. . ... ... : --- .. . P84 ...
ROW 48 : G#1 00 C ... ... ... : ... .. . P7C ... ... : B-3 00 . ... : 4-# 00 F ... : ... .. . ... ... : ... .. 8 ... ... : ... .. 8 ... ... : B-2 01 F P80 ...
ROW 49 : ... .. B ... ... ... : ... .. . P82 ... ... : ... .. . ... : ... .. C ... : ... .. . ... ... : ... .. 7 ... ... : ... .. 7 ... ... : ... .. D ... ...
ROW 4A : ... .. A ... ... ... : D-4 00 A P80 ... ... : ... .. . ... : ... .. 6 ... : ... .. . ... ... : ... .. 6 ... ... : ... .. 6 ... ... : ... .. 8 ... ...
ROW 4B : ... .. 8 ... ... ... : D#4 00 A P7F ... ... : ... .. . ... : ... .. 3 ... : ... .. . ... ... : ... .. 5 ... ... : ... .. 5 ... ... : ... .. . ... ...
ROW 4C : ... .. 1 ... ... ... : E-4 00 A P7C ... ... : ... .. . ... : ... .. 2 ... : ... .. . ... ... : ... .. . ... ... : ... .. . ... ... : ... .. . ... ...
ROW 4D : ... .. . ... ... ... : D#4 00 A P84 ... ... : ... .. . ... : ... .. 0 ... : ... .. . ... ... : ... .. 4 ... ... : ... .. 4 ... ... : ... .. . ... ...
ROW 4E : ... .. C ... ... ... : ... .. . P7C ... ... : A-3 00 . ... : 9-# 00 8 ... : ... .. . ... ... : ... .. . ... ... : ... .. . ... ... : A-2 01 F ... ...
ROW 4F : ... .. B ... ... ... : D-4 00 A P7D ... ... : ... .. . ... : ... .. 6 ... : ... .. . ... ... : ... .. . ... ... : ... .. . ... ... : ... .. D ... ...
ROW 50 : ... .. A ... ... ... : C#4 00 A P7F ... ... : ... .. . ... : ... .. 3 ... : ... .. . ... ... : ... .. . ... ... : ... .. . ... ... : ... .. 8 ... ...
ROW 51 : ... .. 8 ... ... ... : ... .. . P7C ... ... : ... .. . ... : ... .. 1 ... : ... .. . ... ... : ... .. . ... ... : ... .. . ... ... : ... .. . ... ...
ROW 52 : ... .. . ... ... ... : ... .. 2 P80 ... ... : ... .. . ... : ... .. . ... : ... .. . ... ... : ... .. . ... ... : ... .. . ... ... : ... .. . ... ...
ROW 53 : ... .. . ... ... ... : D-4 00 2 P7F ... ... : --- .. . ... : ... .. 0 ... : ... .. . ... ... : ... .. . ... ... : ... .. . ... ... : --- .. . ... ...
ROW 54 : F#1 00 C ... ... ... : D#4 00 2 P7E ... ... : G#3 00 . ... : 7-# 00 F ... : ... .. . ... ... : ... .. 8 ... ... : ... .. 8 ... ... : G#2 01 F ... ...
ROW 55 : ... .. B ... ... ... : ... .. 1 P85 ... ... : ... .. . ... : ... .. C ... : ... .. . ... ... : ... .. 7 ... ... : ... .. 7 ... ... : ... .. D ... ...
ROW 56 : ... .. A ... ... ... : ... .. . ... ... ... : ... .. . ... : ... .. 6 ... : ... .. . ... ... : ... .. 6 ... ... : ... .. 6 ... ... : ... .. 8 ... ...
ROW 57 : ... .. 8 ... ... ... : ... .. . P7E ... ... : ... .. . ... : ... .. 3 ... : ... .. . ... ... : ... .. 5 ... ... : ... .. 5 ... ... : ... .. . ... ...
ROW 58 : ... .. 1 ... ... ... : ... .. 0 ... ... ... : ... .. . ... : ... .. 2 ... : ... .. . ... ... : ... .. . ... ... : ... .. . ... ... : ... .. . ... ...
ROW 59 : ... .. . ... ... ... : ... .. . ... ... ... : --- .. . ... : ... .. 0 ... : ... .. . ... ... : ... .. 4 ... ... : ... .. 4 ... ... : --- .. . P7F ...
ROW 5A : ... .. C ... ... ... : ... .. . ... ... ... : G#2 00 . ... : 5-# 00 8 ... : ... .. . ... ... : ... .. . ... ... : ... .. . ... ... : G#1 01 F P80 ...
ROW 5B : ... .. B ... ... ... : ... .. . ... ... ... : ... .. . ... : ... .. 6 ... : ... .. . ... ... : ... .. . ... ... : ... .. . ... ... : ... .. D ... ...
ROW 5C : ... .. A ... ... ... : ... .. . ... ... ... : ... .. . ... : ... .. 3 ... : ... .. . ... ... : ... .. . ... ... : ... .. . ... ... : ... .. 8 ... ...
ROW 5D : ... .. 8 ... ... ... : ... .. . ... ... ... : ... .. . ... : ... .. 1 ... : ... .. . ... ... : ... .. . ... ... : ... .. . ... ... : ... .. . ... ...
ROW 5E : ... .. 1 ... ... ... : ... .. . ... ... ... : ... .. . ... : ... .. . ... : ... .. . ... ... : ... .. . ... ... : ... .. . ... ... : ... .. . ... ...
ROW 5F : ... .. . ... ... ... : ... .. . ... ... ... : --- .. . ... : ... .. 0 ... : ... .. . ... ... : ... .. . ... ... : ... .. . ... ... : --- .. . P7E ...
ROW 60 : G#1 00 C ... ... ... : ... .. . ... ... ... : G-4 00 . ... : 1-# 00 F ... : ... .. . ... ... : F#4 01 8 ... ... : C#4 01 8 ... ... : G#1 01 F P80 ...
ROW 61 : ... .. B ... ... ... : ... .. . ... ... ... : A-3 00 . ... : ... .. C ... : ... .. . ... ... : ... .. 7 ... ... : ... .. 7 ... ... : ... .. D ... ...
ROW 62 : ... .. A ... ... ... : ... .. . ... ... ... : D-3 00 . ... : ... .. 6 ... : ... .. . ... ... : ... .. 6 ... ... : ... .. 6 ... ... : ... .. 8 ... ...
ROW 63 : ... .. 8 ... ... ... : ... .. . ... ... ... : C#3 00 . ... : ... .. 3 ... : ... .. . ... ... : ... .. 5 ... ... : ... .. 5 ... ... : ... .. . ... ...
ROW 64 : ... .. . ... ... ... : ... .. . ... ... ... : G#2 00 . ... : ... .. 2 ... : ... .. . ... ... : ... .. . ... ... : ... .. . ... ... : ... .. . ... ...
ROW 65 : ... .. . ... ... ... : ... .. . ... ... ... : ... .. . ... : ... .. 0 ... : ... .. . ... ... : ... .. 4 ... ... : ... .. 4 ... ... : ... .. . ... ...
ROW 66 : ... .. C ... ... ... : G#3 00 F P80 ... ... : ... .. . ... : C-# 00 8 ... : ... .. . ... ... : ... .. . ... ... : ... .. . ... ... : ... .. . ... ...
ROW 67 : ... .. B ... ... ... : ... .. E ... ... ... : ... .. . ... : ... .. 6 ... : ... .. . ... ... : ... .. . ... ... : ... .. . ... ... : ... .. . ... ...
ROW 68 : ... .. A ... ... ... : ... .. D ... ... ... : ... .. . ... : ... .. 3 ... : ... .. . ... ... : ... .. . ... ... : ... .. . ... ... : ... .. . ... ...
ROW 69 : ... .. 8 ... ... ... : ... .. A ... ... ... : G-2 00 . ... : ... .. 1 ... : ... .. . ... ... : D#4 01 4 P7D ... : A#3 01 4 P86 ... : ... .. . P60 ...
ROW 6A : ... .. 1 ... ... ... : ... .. 2 ... ... ... : F#2 00 . P82 : ... .. . ... : ... .. . ... ... : C-4 01 4 P7F ... : G#3 01 4 P83 ... : G-1 01 8 P8A ...
ROW 6B : ... .. . ... ... ... : ... .. . ... ... ... : F-2 00 . P86 : ... .. 0 ... : ... .. . ... ... : A-3 01 4 P87 ... : F#3 01 4 P84 ... : ... .. . P6A ...
ROW 6C : D#2 00 C ... ... ... : ... .. F ... ... ... : E-2 00 . P8C : ... .. 8 ... : ... .. . ... ... : G-3 01 4 P86 ... : E-3 01 4 P89 ... : F#1 01 8 P97 ...
ROW 6D : ... .. B ... ... ... : ... .. E ... ... ... : D#2 00 . P94 : ... .. 6 ... : ... .. . ... ... : F-3 01 4 P89 ... : D#3 01 4 P7E ... : ... .. . P77 ...
ROW 6E : ... .. A ... ... ... : ... .. D ... ... ... : ... .. . P74 : ... .. 3 ... : ... .. . ... ... : E-3 01 4 P7C ... : C#3 01 4 P8A ... : F-1 01 8 PA9 ...
ROW 6F : ... .. 8 ... ... ... : ... .. A ... ... ... : D-2 00 . P7F : ... .. 1 ... : ... .. . ... ... : D-3 01 4 P86 ... : C-3 01 4 P82 ... : ... .. . P89 ...
ROW 70 : ... .. 1 ... ... ... : ... .. 2 ... ... ... : C#2 00 . P8C : ... .. . ... : ... .. . ... ... : C#3 01 4 P7D ... : B-2 01 4 P7B ... : ... .. . P69 ...
ROW 71 : ... .. . ... ... ... : ... .. . ... ... ... : ... .. . P6C : ... .. 0 ... : ... .. . ... ... : C-3 01 4 P75 ... : A#2 01 4 P76 ... : E-1 01 8 PA0 ...
ROW 72 : D-2 00 C ... ... ... : ... .. F ... ... ... : G-5 00 . P80 : 1-# 00 F ... : ... .. . ... ... : F#4 01 8 P80 ... : C#4 01 8 P80 ... : G#2 01 F P80 ...
ROW 73 : ... .. B ... ... ... : ... .. E ... ... ... : A-4 00 . ... : ... .. C ... : ... .. . ... ... : ... .. 7 ... ... : ... .. 7 ... ... : ... .. D ... ...
ROW 74 : ... .. A ... ... ... : ... .. D ... ... ... : D-4 00 . ... : ... .. 6 ... : ... .. . ... ... : ... .. 6 ... ... : ... .. 6 ... ... : ... .. 8 ... ...
ROW 75 : ... .. 8 ... ... ... : ... .. A ... ... ... : C#4 00 . ... : ... .. 3 ... : ... .. . ... ... : ... .. 5 ... ... : ... .. 5 ... ... : ... .. . ... ...
ROW 76 : ... .. . ... ... ... : ... .. . ... ... ... : G#3 00 . ... : ... .. 2 ... : ... .. . ... ... : ... .. . ... ... : ... .. . ... ... : ... .. . ... ...
ROW 77 : ... .. . ... ... ... : ... .. . ... ... ... : --- .. . ... : ... .. 0 ... : ... .. . ... ... : ... .. 4 ... ... : ... .. 4 ... ... : --- .. . P7F ...
ROW 78 : D#2 00 C ... ... ... : ... .. F ... ... ... : F#3 00 . ... : C-# 00 8 ... : ... .. . ... ... : ... .. . ... ... : ... .. . ... ... : F#2 01 F P80 ...
ROW 79 : ... .. B ... ... ... : ... .. E ... ... ... : ... .. . ... : ... .. 6 ... : ... .. . ... ... : ... .. . ... ... : ... .. . ... ... : ... .. D ... ...
ROW 7A : ... .. A ... ... ... : ... .. D ... ... ... : ... .. . ... : ... .. 3 ... : ... .. . ... ... : ... .. . ... ... : ... .. . ... ... : ... .. 8 ... ...
ROW 7B : ... .. 8 ... ... ... : ... .. A ... ... ... : ... .. . ... : ... .. 1 ... : ... .. . ... ... : D#4 01 4 P7D ... : A#3 01 4 P86 ... : ... .. . ... ...
ROW 7C : ... .. 1 ... ... ... : ... .. 2 ... ... ... : ... .. . ... : ... .. . ... : ... .. . ... ... : C-4 01 4 P7F ... : G#3 01 4 P83 ... : ... .. . ... ...
ROW 7D : ... .. . ... ... ... : ... .. . ... ... ... : --- .. . ... : ... .. 0 ... : ... .. . ... ... : A-3 01 4 P87 ... : F#3 01 4 P84 ... : --- .. . P84 ...
ROW 7E : B-1 00 C ... ... ... : G#4 00 F ... ... ... : G#3 00 . ... : ... .. 8 ... : ... .. . ... ... : G-3 01 4 P86 ... : E-3 01 4 P89 ... : G#2 01 F P80 ...
ROW 7F : ... .. B ... ... ... : ... .. E ... ... ... : ... .. . ... : ... .. 6 ... : ... .. . ... ... : F-3 01 4 P89 ... : D#3 01 4 P7E ... : ... .. D ... ...
ROW 80 : ... .. A ... ... ... : ... .. D ... ... ... : ... .. . ... : ... .. 3 ... : ... .. . ... ... : E-3 01 4 P7C ... : C#3 01 4 P8A ... : ... .. 8 ... ...
ROW 81 : ... .. 8 ... ... ... : ... .. A ... ... ... : --- .. . ... : ... .. 1 ... : ... .. . ... ... : D-3 01 4 P86 ... : C-3 01 4 P82 ... : --- .. . P7F ...
ROW 82 : ... .. . ... ... ... : ... .. 2 ... ... ... : ... .. . ... : ... .. . ... : ... .. . ... ... : C#3 01 4 P7D ... : B-2 01 4 P7B ... : ... .. . ... ...
ROW 83 : ... .. . ... ... ... : ... .. . ... ... ... : ... .. . ... : ... .. 0 ... : ... .. . ... ... : C-3 01 4 P75 ... : A#2 01 4 P76 ... : ... .. . ... ...
ROW 84 : B-2 00 C ... ... ... : ... .. F ... ... ... : D-6 00 . ... : 7-# 00 F ... : ... .. . ... ... : F#4 01 8 P80 ... : C#4 01 8 P80 ... : D#3 01 F P80 ...
ROW 85 : ... .. B ... ... ... : ... .. E ... ... ... : E-5 00 . ... : ... .. C ... : ... .. . ... ... : ... .. 7 ... ... : ... .. 7 ... ... : ... .. D ... ...
ROW 86 : ... .. A ... ... ... : ... .. D ... ... ... : A-4 00 . ... : ... .. 6 ... : ... .. . ... ... : ... .. 6 ... ... : ... .. 6 ... ... : ... .. 8 ... ...
ROW 87 : ... .. 8 ... ... ... : ... .. A ... ... ... : G#4 00 . ... : ... .. 3 ... : ... .. . ... ... : ... .. 5 ... ... : ... .. 5 ... ... : ... .. . ... ...
ROW 88 : ... .. 1 ... ... ... : ... .. . ... ... ... : D#4 00 . ... : ... .. 2 ... : ... .. . ... ... : ... .. . ... ... : ... .. . ... ... : ... .. . ... ...
ROW 89 : ... .. . ... ... ... : ... .. . ... ... ... : ... .. . ... : ... .. 0 ... : ... .. . ... ... : ... .. 4 ... ... : ... .. 4 ... ... : ... .. . ... ...
ROW 8A : ... .. C ... ... ... : ... .. . ... ... ... : ... .. . ... : 1-# 00 8 ... : ... .. . ... ... : ... .. . ... ... : ... .. . ... ... : ... .. . ... ...
ROW 8B : ... .. B ... ... ... : ... .. . ... ... ... : ... .. . ... : ... .. 6 ... : ... .. . ... ... : ... .. . ... ... : ... .. . ... ... : ... .. . ... ...
ROW 8C : ... .. A ... ... ... : ... .. . ... ... ... : ... .. . ... : ... .. 3 ... : ... .. . ... ... : ... .. . ... ... : ... .. . ... ... : ... .. . ... ...
ROW 8D : ... .. 8 ... ... ... : ... .. . ... ... ... : ... .. . ... : ... .. 1 ... : ... .. . ... ... : D#4 01 4 P7D ... : A#3 01 4 P86 ... : ... .. . ... ...
ROW 8E : ... .. 1 ... ... ... : ... .. . ... ... ... : ... .. . ... : ... .. . ... : ... .. . ... ... : C-4 01 4 P7F ... : G#3 01 4 P83 ... : ... .. . ... ...
ROW 8F : ... .. . ... ... ... : ... .. . ... ... ... : ... .. . ... : ... .. 0 ... : ... .. . ... ... : A-3 01 4 P87 ... : F#3 01 4 P84 ... : ... .. . ... ...
ROW 90 : D-2 00 C ... ... ... : ... .. . ... ... ... : D-4 00 . ... : 7-# 00 F ... : ... .. . ... ... : G-3 01 4 P86 ... : E-3 01 4 P89 ... : D-3 01 F ... ...
ROW 91 : ... .. B ... ... ... : ... .. . ... ... ... : ... .. . ... : ... .. C ... : ... .. . ... ... : F-3 01 4 P89 ... : D#3 01 4 P7E ... : ... .. D ... ...
ROW 92 : ... .. A ... ... ... : ... .. . ... ... ... : ... .. . ... : ... .. 6 ... : ... .. . ... ... : E-3 01 4 P7C ... : C#3 01 4 P8A ... : ... .. 8 ... ...
ROW 93 : ... .. 8 ... ... ... : ... .. . P84 ... ... : ... .. . ... : ... .. 3 ... : ... .. . ... ... : D-3 01 4 P86 ... : C-3 01 4 P82 ... : ... .. . ... ...
ROW 94 : ... .. . ... ... ... : A-4 00 A P7E ... ... : ... .. . ... : ... .. 2 ... : ... .. . ... ... : C#3 01 4 P7D ... : B-2 01 4 P7B ... : ... .. . ... ...
ROW 95 : ... .. . ... ... ... : ... .. . P7D ... ... : ... .. . ... : ... .. 0 ... : ... .. . ... ... : C-3 01 4 P75 ... : A#2 01 4 P76 ... : ... .. . ... ...
ROW 96 : D-3 00 C ... ... ... : G#4 00 A P82 ... ... : ... .. . ... : 1-# 00 8 ... : ... .. . ... ... : F#4 01 8 P80 ... : C#4 01 8 P80 ... : ... .. . ... ...
ROW 97 : ... .. B ... ... ... : ... .. . P7E ... ... : ... .. . ... : ... .. 6 ... : ... .. . ... ... : ... .. 7 ... ... : ... .. 7 ... ... : ... .. . ... ...
ROW 98 : ... .. A ... ... ... : G-4 00 A P83 ... ... : ... .. . ... : ... .. 3 ... : ... .. . ... ... : ... .. 6 ... ... : ... .. 6 ... ... : ... .. . ... ...
ROW 99 : ... .. 8 ... ... ... : ... .. . P82 ... ... : ... .. . ... : ... .. 1 ... : ... .. . ... ... : ... .. 5 ... ... : ... .. 5 ... ... : ... .. . ... ...
ROW 9A : ... .. 1 ... ... ... : ... .. . P84 ... ... : ... .. . ... : ... .. . ... : ... .. . ... ... : ... .. . ... ... : ... .. . ... ... : ... .. . ... ...
ROW 9B : ... .. . ... ... ... : G#4 00 A P80 ... ... : --- .. . ... : ... .. 0 ... : ... .. . ... ... : ... .. 4 ... ... : ... .. 4 ... ... : --- .. . P84 ...
ROW 9C : ... .. C ... ... ... : ... .. . P83 ... ... : G#3 00 . ... : 7-# 00 F ... : ... .. . ... ... : ... .. . ... ... : ... .. . ... ... : G#2 01 F P80 ...
ROW 9D : ... .. B ... ... ... : A-4 00 A P7E ... ... : ... .. . ... : ... .. C ... : ... .. . ... ... : ... .. . ... ... : ... .. . ... ... : ... .. D ... ...
ROW 9E : ... .. A ... ... ... : ... .. . ... ... ... : ... .. . ... : ... .. 6 ... : ... .. . ... ... : ... .. . ... ... : ... .. . ... ... : ... .. 8 ... ...
ROW 9F : ... .. 8 ... ... ... : G#4 00 F P80 ... ... : ... .. . ... : ... .. 3 ... : ... .. . ... ... : D#4 01 4 P7D ... : A#3 01 4 P86 ... : ... .. . ... ...
ROW A0 : ... .. 1 ... ... ... : ... .. E ... ... ... : ... .. . ... : ... .. 2 ... : ... .. . ... ... : C-4 01 4 P7F ... : G#3 01 4 P83 ... : ... .. . ... ...
ROW A1 : ... .. . ... ... ... : ... .. D ... ... ... : ... .. . ... : ... .. 0 ... : ... .. . ... ... : A-3 01 4 P87 ... : F#3 01 4 P84 ... : ... .. . ... ...
ROW A2 : G#2 00 C ... ... ... : A-4 00 F ... ... ... : ... .. . ... : 1-# 00 8 ... : ... .. . ... ... : G-3 01 4 P86 ... : E-3 01 4 P89 ... : ... .. . ... ...
ROW A3 : ... .. B ... ... ... : ... .. E ... ... ... : ... .. . ... : ... .. 6 ... : ... .. . ... ... : F-3 01 4 P89 ... : D#3 01 4 P7E ... : ... .. . ... ...
ROW A4 : ... .. A ... ... ... : ... .. D ... ... ... : ... .. . ... : ... .. 3 ... : ... .. . ... ... : E-3 01 4 P7C ... : C#3 01 4 P8A ... : ... .. . ... ...
ROW A5 : ... .. 8 ... ... ... : A#4 00 F ... ... ... : ... .. . ... : ... .. 1 ... : ... .. . ... ... : D-3 01 4 P86 ... : C-3 01 4 P82 ... : ... .. . ... ...
ROW A6 : ... .. . ... ... ... : ... .. E ... ... ... : ... .. . ... : ... .. . ... : ... .. . ... ... : C#3 01 4 P7D ... : B-2 01 4 P7B ... : ... .. . ... ...
ROW A7 : ... .. . ... ... ... : ... .. D ... ... ... : --- .. . ... : ... .. 0 ... : ... .. . ... ... : C-3 01 4 P75 ... : A#2 01 4 P76 ... : --- .. . P7F ...
ROW A8 : G-3 00 C ... ... ... : B-4 00 F ... ... ... : G-3 00 . ... : ... .. F ... : ... .. . ... ... : G-4 01 8 P80 ... : B-3 01 8 P80 ... : G#0 01 F P80 ...
ROW A9 : ... .. B ... ... ... : ... .. E ... ... ... : A-2 00 . ... : ... .. C ... : ... .. . ... ... : ... .. 7 ... ... : ... .. 7 ... ... : ... .. D ... ...
ROW AA : ... .. A ... ... ... : ... .. D ... ... ... : D-2 00 . ... : ... .. 6 ... : ... .. . ... ... : ... .. 6 ... ... : ... .. 6 ... ... : ... .. 8 ... ...
ROW AB : ... .. 8 ... ... ... : ... .. A ... ... ... : C#2 00 . ... : ... .. 3 ... : ... .. . ... ... : ... .. 5 ... ... : ... .. 5 ... ... : ... .. . ... ...
ROW AC : ... .. 1 ... ... ... : ... .. . ... ... ... : G#1 00 . ... : ... .. 2 ... : ... .. . ... ... : ... .. . ... ... : ... .. . ... ... : ... .. . ... ...
ROW AD : ... .. . ... ... ... : ... .. . ... ... ... : ... .. . ... : ... .. 0 ... : ... .. . ... ... : ... .. 4 ... ... : ... .. 4 ... ... : ... .. . ... ...
ROW AE : G#1 00 C ... ... ... : F#4 00 F ... ... ... : ... .. . ... : C-# 00 8 ... : ... .. . ... ... : B-3 01 8 ... ... : D#3 01 8 ... ... : ... .. . ... ...
ROW AF : ... .. B ... ... ... : ... .. E ... ... ... : ... .. . ... : ... .. 6 ... : ... .. . ... ... : ... .. 7 ... ... : ... .. 7 ... ... : ... .. . ... ...
ROW B0 : ... .. A ... ... ... : ... .. D ... ... ... : ... .. . ... : ... .. 3 ... : ... .. . ... ... : ... .. 6 ... ... : ... .. 6 ... ... : ... .. . ... ...
ROW B1 : ... .. 8 ... ... ... : ... .. A ... ... ... : G-1 00 . PA0 : ... .. 1 ... : ... .. . ... ... : ... .. 5 ... ... : ... .. 5 ... ... : ... .. . P60 ...
ROW B2 : ... .. 1 ... ... ... : ... .. . ... ... ... : ... .. . P80 : ... .. . ... : ... .. . ... ... : ... .. . ... ... : ... .. . ... ... : ... .. . P40 ...
ROW B3 : ... .. . ... ... ... : ... .. . ... ... ... : ... .. . P60 : ... .. 0 ... : ... .. . ... ... : ... .. 4 ... ... : ... .. 4 ... ... : G-0 01 8 PB2 ...
ROW B4 : ... .. C ... ... ... : B-3 00 F ... ... ... : F#1 00 . P84 : ... .. 8 ... : ... .. . ... ... : F#3 01 8 ... ... : G#2 01 8 ... ... : ... .. . P92 ...
ROW B5 : ... .. B ... ... ... : ... .. E ... ... ... : ... .. . P64 : ... .. 6 ... : ... .. . ... ... : ... .. 7 ... ... : ... .. 7 ... ... : ... .. . P72 ...
ROW B6 : ... .. A ... ... ... : ... .. D ... ... ... : F-1 00 . P8C : ... .. 3 ... : ... .. . ... ... : ... .. 6 ... ... : ... .. 6 ... ... : ... .. . P52 ...
ROW B7 : ... .. 8 ... ... ... : ... .. A ... ... ... : ... .. . P6C : ... .. 1 ... : ... .. . ... ... : ... .. 5 ... ... : ... .. 5 ... ... : F#0 01 8 PCD ...
ROW B8 : ... .. 1 ... ... ... : ... .. . ... ... ... : E-1 00 . P98 : ... .. . ... : ... .. . ... ... : ... .. . ... ... : ... .. . ... ... : ... .. . PAD ...
ROW B9 : ... .. . ... ... ... : ... .. . ... ... ... : ... .. . P78 : ... .. 0 ... : ... .. . ... ... : ... .. 4 ... ... : ... .. 4 ... ... : ... .. . P8D ...
ROW BA : G-3 00 C ... ... ... : B-4 00 F ... ... ... : G#2 00 . P80 : 1-# 00 F ... : ... .. . ... ... : G-4 01 8 ... ... : B-3 01 8 ... ... : G#1 01 F P80 ...
ROW BB : ... .. B ... ... ... : ... .. E ... ... ... : ... .. . ... : ... .. C ... : ... .. . ... ... : ... .. 7 ... ... : ... .. 7 ... ... : ... .. D ... ...
ROW BC : ... .. A ... ... ... : ... .. D ... ... ... : ... .. . ... : ... .. 6 ... : ... .. . ... ... : ... .. 6 ... ... : ... .. 6 ... ... : ... .. 8 ... ...
ROW BD : ... .. 8 ... ... ... : ... .. A ... ... ... : ... .. . ... : ... .. 3 ... : ... .. . ... ... : ... .. 5 ... ... : ... .. 5 ... ... : ... .. . ... ...
ROW BE : ... .. 1 ... ... ... : ... .. . ... ... ... : ... .. . ... : ... .. 2 ... : ... .. . ... ... : ... .. . ... ... : ... .. . ... ... : ... .. . ... ...
ROW BF : ... .. . ... ... ... : ... .. . ... ... ... : ... .. . ... : ... .. 0 ... : ... .. . ... ... : ... .. 4 ... ... : ... .. 4 ... ... : ... .. . ... ...
ROW C0 : G#1 00 C ... ... ... : F#4 00 F ... ... ... : F#2 00 . ... : C-# 00 8 ... : ... .. . ... ... : B-3 01 8 ... ... : D#3 01 8 ... ... : F#1 01 F ... ...
ROW C1 : ... .. B ... ... ... : ... .. E ... ... ... : ... .. . ... : ... .. 6 ... : ... .. . ... ... : ... .. 7 ... ... : ... .. 7 ... ... : ... .. D ... ...
ROW C2 : ... .. A ... ... ... : ... .. D ... ... ... : ... .. . ... : ... .. 3 ... : ... .. . ... ... : ... .. 6 ... ... : ... .. 6 ... ... : ... .. 8 ... ...
ROW C3 : ... .. 8 ... ... ... : ... .. A ... ... ... : ... .. . ... : ... .. 1 ... : ... .. . ... ... : ... .. 5 ... ... : ... .. 5 ... ... : ... .. . ... ...
ROW C4 : ... .. 1 ... ... ... : ... .. . ... ... ... : ... .. . ... : ... .. . ... : ... .. . ... ... : ... .. . ... ... : ... .. . ... ... : ... .. . ... ...
ROW C5 : ... .. . ... ... ... : ... .. . ... ... ... : --- .. . ... : ... .. 0 ... : ... .. . ... ... : ... .. 4 ... ... : ... .. 4 ... ... : --- .. . P81 ...
ROW C6 : ... .. C ... ... ... : B-3 00 F ... ... ... : G#2 00 . ... : ... .. 8 ... : ... .. . ... ... : F#3 01 8 ... ... : G#2 01 8 ... ... : G#1 01 F P80 ...
ROW C7 : ... .. B ... ... ... : ... .. E ... ... ... : ... .. . ... : ... .. 6 ... : ... .. . ... ... : ... .. 7 ... ... : ... .. 7 ... ... : ... .. D ... ...
ROW C8 : ... .. A ... ... ... : ... .. D ... ... ... : ... .. . ... : ... .. 3 ... : ... .. . ... ... : ... .. 6 ... ... : ... .. 6 ... ... : ... .. 8 ... ...
ROW C9 : ... .. 8 ... ... ... : ... .. A ... ... ... : ... .. . ... : ... .. 1 ... : ... .. . ... ... : ... .. 5 ... ... : ... .. 5 ... ... : ... .. . ... ...
ROW CA : ... .. . ... ... ... : ... .. . ... ... ... : ... .. . ... : ... .. . ... : ... .. . ... ... : ... .. . ... ... : ... .. . ... ... : ... .. . ... ...
ROW CB : ... .. . ... ... ... : ... .. . ... ... ... : ... .. . ... : ... .. 0 ... : ... .. . ... ... : ... .. 4 ... ... : ... .. 4 ... ... : ... .. . ... ...
ROW CC : F#3 00 C ... ... ... : ... .. . ... ... ... : G-5 00 . ... : 7-# 00 F ... : ... .. . ... ... : F#4 01 8 ... ... : B-3 01 8 ... ... : G#2 01 F ... ...
ROW CD : ... .. B ... ... ... : ... .. . ... ... ... : A-4 00 . ... : ... .. C ... : ... .. . ... ... : ... .. 7 ... ... : ... .. 7 ... ... : ... .. D ... ...
ROW CE : ... .. A ... ... ... : ... .. . ... ... ... : D-4 00 . ... : ... .. 6 ... : ... .. . ... ... : ... .. 6 ... ... : ... .. 6 ... ... : ... .. 8 ... ...
ROW CF : ... .. 8 ... ... ... : ... .. . ... ... ... : C#4 00 . ... : ... .. 3 ... : ... .. . ... ... : ... .. 5 ... ... : ... .. 5 ... ... : ... .. . ... ...
ROW D0 : ... .. 1 ... ... ... : ... .. . ... ... ... : G#3 00 . ... : ... .. 2 ... : ... .. . ... ... : ... .. . ... ... : ... .. . ... ... : ... .. . ... ...
ROW D1 : ... .. . ... ... ... : ... .. . ... ... ... : ... .. . ... : ... .. 0 ... : ... .. . ... ... : ... .. 4 ... ... : ... .. 4 ... ... : ... .. . ... ...
ROW D2 : G#1 00 C ... ... ... : ... .. . ... ... ... : ... .. . ... : ... .. 8 ... : ... .. . ... ... : G#3 01 8 ... ... : D-3 01 8 ... ... : ... .. . ... ...
ROW D3 : ... .. B ... ... ... : ... .. . ... ... ... : ... .. . ... : ... .. 6 ... : ... .. . ... ... : ... .. 7 ... ... : ... .. 7 ... ... : ... .. . ... ...
ROW D4 : ... .. A ... ... ... : ... .. . ... ... ... : ... .. . ... : ... .. 3 ... : ... .. . ... ... : ... .. 6 ... ... : ... .. 6 ... ... : ... .. . ... ...
ROW D5 : ... .. 8 ... ... ... : ... .. . P84 ... ... : F#3 00 . P81 : ... .. 1 ... : ... .. . ... ... : ... .. 5 ... ... : ... .. 5 ... ... : G-2 01 8 P84 ...
ROW D6 : ... .. 1 ... ... ... : ... .. . P86 ... ... : E-3 00 . P86 : ... .. . ... : ... .. . ... ... : ... .. . ... ... : ... .. . ... ... : F#2 01 8 P8B ...
ROW D7 : ... .. . ... ... ... : ... .. . P85 ... ... : D#3 00 . P7B : ... .. 0 ... : ... .. . ... ... : ... .. 4 ... ... : ... .. 4 ... ... : F-2 01 8 P94 ...
ROW D8 : ... .. C ... ... ... : ... .. . P82 ... ... : C#3 00 . P87 : 4-# 00 F ... : ... .. . ... ... : D-3 01 8 ... ... : G#2 01 8 ... ... : ... .. . P74 ...
ROW D9 : ... .. B ... ... ... : ... .. . P7E ... ... : C-3 00 . P7F : ... .. C ... : ... .. . ... ... : ... .. 7 ... ... : ... .. 7 ... ... : E-2 01 8 P80 ...
ROW DA : ... .. A ... ... ... : ... .. . P7B ... ... : B-2 00 . P78 : ... .. 6 ... : ... .. . ... ... : ... .. 6 ... ... : ... .. 6 ... ... : D#2 01 8 P8E ...
ROW DB : ... .. 8 ... ... ... : ... .. . P7A ... ... : A#2 00 . P73 : ... .. 3 ... : ... .. . ... ... : ... .. 5 ... ... : ... .. 5 ... ... : ... .. . P6E ...
ROW DC : ... .. . ... ... ... : ... .. . P7C ... ... : G#2 00 . P8E : ... .. 2 ... : ... .. . ... ... : ... .. . ... ... : ... .. . ... ... : D-2 01 8 P7F ...
ROW DD : ... .. . ... ... ... : ... .. . P80 ... ... : G-2 00 . ... : ... .. 0 ... : ... .. . ... ... : ... .. 4 ... ... : ... .. 4 ... ... : C#2 01 8 P92 ...
ROW DE : F#3 00 C ... ... ... : ... .. . P83 ... ... : G-5 00 . P80 : 9-# 00 8 ... : ... .. . ... ... : F-4 01 8 ... ... : B-3 01 8 ... ... : G#2 01 F P80 ...
ROW DF : ... .. B ... ... ... : ... .. . P86 ... ... : A-4 00 . ... : ... .. 6 ... : ... .. . ... ... : ... .. 7 ... ... : ... .. 7 ... ... : ... .. D ... ...
ROW E0 : ... .. A ... ... ... : ... .. . ... ... ... : D-4 00 . ... : ... .. 3 ... : ... .. . ... ... : ... .. 6 ... ... : ... .. 6 ... ... : ... .. 8 ... ...
ROW E1 : ... .. 8 ... ... ... : ... .. . P82 ... ... : C#4 00 . ... : ... .. 1 ... : ... .. . ... ... : ... .. 5 ... ... : ... .. 5 ... ... : ... .. . ... ...
ROW E2 : ... .. 1 ... ... ... : ... .. . P7F ... ... : G#3 00 . ... : ... .. . ... : ... .. . ... ... : ... .. . ... ... : ... .. . ... ... : ... .. . ... ...
ROW E3 : ... .. . ... ... ... : ... .. . P7B ... ... : ... .. . ... : ... .. 0 ... : ... .. . ... ... : ... .. 4 ... ... : ... .. 4 ... ... : ... .. . ... ...
ROW E4 : G#1 00 C ... ... ... : ... .. . P7A ... ... : ... .. . ... : 7-# 00 F ... : ... .. . ... ... : G#3 01 8 ... ... : D-3 01 8 ... ... : ... .. . ... ...
ROW E5 : ... .. B ... ... ... : ... .. . P7C ... ... : ... .. . ... : ... .. C ... : ... .. . ... ... : ... .. 7 ... ... : ... .. 7 ... ... : ... .. . ... ...
ROW E6 : ... .. A ... ... ... : ... .. . P80 ... ... : ... .. . ... : ... .. 6 ... : ... .. . ... ... : ... .. 6 ... ... : ... .. 6 ... ... : ... .. . ... ...
ROW E7 : ... .. 8 ... ... ... : ... .. . P83 ... ... : ... .. . ... : ... .. 3 ... : ... .. . ... ... : ... .. 5 ... ... : ... .. 5 ... ... : ... .. . ... ...
ROW E8 : ... .. 1 ... ... ... : ... .. . P86 ... ... : ... .. . ... : ... .. 2 ... : ... .. . ... ... : ... .. . ... ... : ... .. . ... ... : ... .. . ... ...
ROW E9 : ... .. . ... ... ... : ... .. . ... ... ... : ... .. . ... : ... .. 0 ... : ... .. . ... ... : ... .. 4 ... ... : ... .. 4 ... ... : ... .. . ... ...
ROW EA : ... .. C ... ... ... : ... .. . P83 ... ... : F-3 00 . P83 : 5-# 00 8 ... : ... .. . ... ... : D-3 01 8 ... ... : G#2 01 8 ... ... : G-2 01 8 P74 ...
ROW EB : ... .. B ... ... ... : ... .. 2 P80 ... ... : D#3 00 . P7B : ... .. 6 ... : ... .. . ... ... : ... .. 7 ... ... : ... .. 7 ... ... : F-2 01 8 P94 ...
ROW EC : ... .. A ... ... ... : ... .. . P7C ... ... : C#3 00 . P77 : ... .. 3 ... : ... .. . ... ... : ... .. 6 ... ... : ... .. 6 ... ... : E-2 01 8 P90 ...
ROW ED : A-0 00 F P72 ... ... : ... .. . P7A ... ... : B-2 00 . P78 : ... .. 1 ... : ... .. . ... ... : ... .. 5 ... ... : ... .. 5 ... ... : D#2 01 8 P8E ...
ROW EE : ... .. E ... ... ... : ... .. 1 P7B ... ... : A-2 00 . P7F : ... .. . ... : ... .. . ... ... : ... .. . ... ... : ... .. . ... ... : D-2 01 8 P8F ...
ROW EF : ... .. D ... ... ... : ... .. . P7F ... ... : G-2 00 . P8E : ... .. 0 ... : ... .. . ... ... : ... .. 4 ... ... : ... .. 4 ... ... : C#2 01 8 P92 ...
ROW F0 : G-1 00 C P80 ... ... : ... .. . P80 ... ... : F#4 00 . P80 : 1-# 00 F ... : ... .. . ... ... : A#2 01 8 ... ... : D-3 01 8 ... ... : G-1 01 F P80 ...
ROW F1 : ... .. B ... ... ... : ... .. 0 ... ... ... : G#3 00 . ... : ... .. C ... : ... .. . ... ... : ... .. 7 ... ... : ... .. 7 ... ... : ... .. D ... ...
ROW F2 : ... .. A ... ... ... : ... .. . ... ... ... : C#3 00 . ... : ... .. 6 ... : ... .. . ... ... : ... .. 6 ... ... : ... .. 6 ... ... : ... .. 8 ... ...
ROW F3 : ... .. 8 ... ... ... : ... .. . ... ... ... : C-3 00 . ... : ... .. 3 ... : ... .. . ... ... : ... .. 5 ... ... : ... .. 5 ... ... : ... .. . ... ...
ROW F4 : ... .. 1 ... ... ... : ... .. . ... ... ... : G-2 00 . ... : ... .. 2 ... : ... .. . ... ... : ... .. . ... ... : ... .. . ... ... : ... .. . ... ...
ROW F5 : ... .. . ... ... ... : ... .. . ... ... ... : ... .. . ... : ... .. 0 ... : ... .. . ... ... : ... .. 4 ... ... : ... .. 4 ... ... : ... .. . ... ...
ROW F6 : ... .. C ... ... ... : A#3 00 F P80 ... ... : ... .. . ... : C-# 00 8 ... : ... .. . ... ... : ... .. . ... ... : ... .. . ... ... : ... .. . ... ...
ROW F7 : ... .. B ... ... ... : ... .. E ... ... ... : ... .. . ... : ... .. 6 ... : ... .. . ... ... : ... .. . ... ... : ... .. . ... ... : ... .. . ... ...
ROW F8 : ... .. A ... ... ... : ... .. D ... ... ... : ... .. . ... : ... .. 3 ... : ... .. . ... ... : ... .. . ... ... : ... .. . ... ... : ... .. . ... ...
ROW F9 : ... .. 8 ... ... ... : ... .. A ... ... ... : F#2 00 . P82 : ... .. 1 ... : ... .. . ... ... : ... .. . ... ... : ... .. . ... ... : ... .. . P60 ...
ROW FA : ... .. 1 ... ... ... : ... .. 2 ... ... ... : F-2 00 . P86 : ... .. . ... : ... .. . ... ... : ... .. . ... ... : ... .. . ... ... : F#1 01 8 P8D ...
ROW FB : ... .. . ... ... ... : ... .. . ... ... ... : E-2 00 . P8C : ... .. 0 ... : ... .. . ... ... : ... .. . ... ... : ... .. . ... ... : ... .. . P6D ...
ROW FC : D-2 00 C ... ... ... : ... .. F ... ... ... : D#2 00 . P94 : ... .. 8 ... : ... .. . ... ... : ... .. . ... ... : ... .. . ... ... : F-1 01 8 P9F ...
ROW FD : ... .. B ... ... ... : ... .. E ... ... ... : ... .. . P74 : ... .. 6 ... : ... .. . ... ... : ... .. . ... ... : ... .. . ... ... : ... .. . P7F ...
ROW FE : ... .. A ... ... ... : ... .. D ... ... ... : D-2 00 . P7F : ... .. 3 ... : ... .. . ... ... : ... .. . ... ... : ... .. . ... ... : ... .. . P5F ...
ROW FF : ... .. 8 ... ... ... : ... .. A ... ... ... : C#2 00 . P8C : ... .. 1 ... : ... .. . ... ... : ... .. . ... ... : ... .. . ... ... : E-1 01 8 P96 ...

PATTERN 0D
ROW 00 : ... .. . ... ... ... : ... .. 2 ... ... ... : ... .. . P6C : ... .. . ... : ... .. . ... ... : ... .. . ... ... : ... .. . ... ... : ... .. . P76 ...
ROW 01 : ... .. . ... ... ... : ... .. . ... ... ... : C-2 00 . P7C : ... .. 0 ... : ... .. . ... ... : ... .. . ... ... : ... .. . ... ... : ... .. . P56 ...
ROW 02 : C#2 00 C ... ... ... : B-3 00 F ... ... ... : F#5 00 . P80 : 1-# 00 F ... : ... .. . ... ... : ... .. 8 ... ... : D#3 01 8 ... ... : G-2 01 F P80 ...
ROW 03 : ... .. B ... ... ... : ... .. E ... ... ... : G#4 00 . ... : ... .. C ... : ... .. . ... ... : ... .. 7 ... ... : ... .. 7 ... ... : ... .. D ... ...
ROW 04 : ... .. A ... ... ... : ... .. D ... ... ... : C#4 00 . ... : ... .. 6 ... : ... .. . ... ... : ... .. 6 ... ... : ... .. 6 ... ... : ... .. 8 ... ...
ROW 05 : ... .. 8 ... ... ... : ... .. A ... ... ... : C-4 00 . ... : ... .. 3 ... : ... .. . ... ... : ... .. 5 ... ... : ... .. 5 ... ... : ... .. . ... ...
ROW 06 : ... .. 1 ... ... ... : ... .. . ... ... ... : G-3 00 . ... : ... .. 2 ... : ... .. . ... ... : ... .. . ... ... : ... .. . ... ... : ... .. . ... ...
ROW 07 : ... .. . ... ... ... : ... .. . ... ... ... : --- .. . ... : ... .. 0 ... : ... .. . ... ... : ... .. 4 ... ... : ... .. 4 ... ... : --- .. . P7D ...
ROW 08 : D-2 00 C ... ... ... : A#3 00 F ... ... ... : F-3 00 . ... : C-# 00 8 ... : ... .. . ... ... : ... .. . ... ... : ... .. . ... ... : F-2 01 F P80 ...
ROW 09 : ... .. B ... ... ... : ... .. E ... ... ... : ... .. . ... : ... .. 6 ... : ... .. . ... ... : ... .. . ... ... : ... .. . ... ... : ... .. D ... ...
ROW 0A : ... .. A ... ... ... : ... .. D ... ... ... : ... .. . ... : ... .. 3 ... : ... .. . ... ... : ... .. . ... ... : ... .. . ... ... : ... .. 8 ... ...
ROW 0B : ... .. 8 ... ... ... : ... .. A ... ... ... : ... .. . ... : ... .. 1 ... : ... .. . ... ... : ... .. . ... ... : ... .. . ... ... : ... .. . ... ...
ROW 0C : ... .. . ... ... ... : ... .. 2 ... ... ... : ... .. . ... : ... .. . ... : ... .. . ... ... : ... .. . ... ... : ... .. . ... ... : ... .. . ... ...
ROW 0D : ... .. . ... ... ... : ... .. . ... ... ... : --- .. . ... : ... .. 0 ... : ... .. . ... ... : ... .. . ... ... : ... .. . ... ... : --- .. . P7E ...
ROW 0E : A#1 00 C ... ... ... : A#4 00 F ... ... ... : G-3 00 . ... : ... .. 8 ... : ... .. . ... ... : ... .. . ... ... : ... .. . ... ... : G-2 01 F P80 ...
ROW 0F : ... .. B ... ... ... : ... .. E ... ... ... : ... .. . ... : ... .. 6 ... : ... .. . ... ... : ... .. . ... ... : ... .. . ... ... : ... .. D ... ...
ROW 10 : ... .. A ... ... ... : ... .. D ... ... ... : ... .. . ... : ... .. 3 ... : ... .. . ... ... : ... .. . ... ... : ... .. . ... ... : ... .. 8 ... ...
ROW 11 : ... .. 8 ... ... ... : ... .. A ... ... ... : --- .. . ... : ... .. 1 ... : ... .. . ... ... : ... .. . ... ... : ... .. . ... ... : --- .. . P7D ...
ROW 12 : ... .. 1 ... ... ... : ... .. 2 ... ... ... : ... .. . ... : ... .. . ... : ... .. . ... ... : ... .. . ... ... : ... .. . ... ... : ... .. . ... ...
ROW 13 : ... .. . ... ... ... : ... .. . ... ... ... : ... .. . ... : ... .. 0 ... : ... .. . ... ... : ... .. . ... ... : ... .. . ... ... : ... .. . ... ...
ROW 14 : F#2 00 C ... ... ... : ... .. F ... ... ... : D-6 00 . ... : 7-# 00 F ... : ... .. . ... ... : ... .. . ... ... : ... .. . ... ... : D#3 01 F P80 ...
ROW 15 : ... .. B ... ... ... : ... .. E ... ... ... : E-5 00 . ... : ... .. C ... : ... .. . ... ... : ... .. . ... ... : ... .. . ... ... : ... .. D ... ...
ROW 16 : ... .. A ... ... ... : ... .. D ... ... ... : A-4 00 . ... : ... .. 6 ... : ... .. . ... ... : ... .. . ... ... : ... .. . ... ... : ... .. 8 ... ...
ROW 17 : ... .. 8 ... ... ... : ... .. A ... ... ... : G#4 00 . ... : ... .. 3 ... : ... .. . ... ... : ... .. . ... ... : ... .. . ... ... : ... .. . ... ...
ROW 18 : ... .. . ... ... ... : ... .. . ... ... ... : D#4 00 . ... : ... .. 2 ... : ... .. . ... ... : ... .. . ... ... : ... .. . ... ... : ... .. . ... ...
ROW 19 : ... .. . ... ... ... : ... .. . ... ... ... : ... .. . ... : ... .. 0 ... : ... .. . ... ... : ... .. . ... ... : ... .. . ... ... : ... .. . ... ...
ROW 1A : ... .. C ... ... ... : ... .. . ... ... ... : ... .. . ... : 1-# 00 8 ... : ... .. . ... ... : ... .. . ... ... : ... .. . ... ... : ... .. . ... ...
ROW 1B : ... .. B ... ... ... : ... .. . ... ... ... : ... .. . ... : ... .. 6 ... : ... .. . ... ... : ... .. . ... ... : ... .. . ... ... : ... .. . ... ...
ROW 1C : ... .. A ... ... ... : ... .. . ... ... ... : ... .. . ... : ... .. 3 ... : ... .. . ... ... : ... .. . ... ... : ... .. . ... ... : ... .. . ... ...
ROW 1D : ... .. 8 ... ... ... : ... .. . ... ... ... : ... .. . ... : ... .. 1 ... : ... .. . ... ... : ... .. . ... ... : ... .. . ... ... : ... .. . ... ...
ROW 1E : ... .. 1 ... ... ... : ... .. . ... ... ... : ... .. . ... : ... .. . ... : ... .. . ... ... : ... .. . ... ... : ... .. . ... ... : ... .. . ... ...
ROW 1F : ... .. . ... ... ... : ... .. . ... ... ... : ... .. . ... : ... .. 0 ... : ... .. . ... ... : ... .. . ... ... : ... .. . ... ... : ... .. . ... ...
ROW 20 : G-1 00 C ... ... ... : ... .. . ... ... ... : D-4 00 . ... : 7-# 00 F ... : ... .. . ... ... : ... .. . ... ... : ... .. . ... ... : D-3 01 F ... ...
ROW 21 : ... .. B ... ... ... : ... .. . ... ... ... : ... .. . ... : ... .. C ... : ... .. . ... ... : ... .. . ... ... : ... .. . ... ... : ... .. D ... ...
ROW 22 : ... .. A ... ... ... : ... .. . ... ... ... : ... .. . ... : ... .. 6 ... : ... .. . ... ... : ... .. . ... ... : ... .. . ... ... : ... .. 8 ... ...
ROW 23 : ... .. 8 ... ... ... : ... .. . ... ... ... : ... .. . ... : ... .. 3 ... : ... .. . ... ... : ... .. . ... ... : ... .. . ... ... : ... .. . ... ...
ROW 24 : ... .. 1 ... ... ... : ... .. . ... ... ... : ... .. . ... : ... .. 2 ... : ... .. . ... ... : ... .. . ... ... : ... .. . ... ... : ... .. . ... ...
ROW 25 : ... .. . ... ... ... : ... .. . ... ... ... : ... .. . ... : ... .. 0 ... : ... .. . ... ... : ... .. . ... ... : ... .. . ... ... : ... .. . ... ...
ROW 26 : F-2 00 C ... ... ... : B-4 00 A P7D ... ... : ... .. . ... : 1-# 00 8 ... : ... .. . ... ... : ... .. . ... ... : ... .. . ... ... : ... .. . ... ...
ROW 27 : ... .. B ... ... ... : ... .. . P7F ... ... : ... .. . ... : ... .. 6 ... : ... .. . ... ... : ... .. . ... ... : ... .. . ... ... : ... .. . ... ...
ROW 28 : ... .. A ... ... ... : ... .. . P7E ... ... : ... .. . ... : ... .. 3 ... : ... .. . ... ... : ... .. . ... ... : ... .. . ... ... : ... .. . ... ...
ROW 29 : ... .. 8 ... ... ... : A#4 00 A P82 ... ... : ... .. . ... : ... .. 1 ... : ... .. . ... ... : ... .. . ... ... : ... .. . ... ... : ... .. . ... ...
ROW 2A : ... .. . ... ... ... : ... .. . P7E ... ... : ... .. . ... : ... .. . ... : ... .. . ... ... : ... .. . ... ... : ... .. . ... ... : ... .. . ... ...
ROW 2B : ... .. . ... ... ... : A-4 00 A P82 ... ... : --- .. . ... : ... .. 0 ... : ... .. . ... ... : ... .. . ... ... : ... .. . ... ... : --- .. . P84 ...
ROW 2C : ... .. C ... ... ... : ... .. . P81 ... ... : G-3 00 . ... : 7-# 00 F ... : ... .. . ... ... : ... .. . ... ... : ... .. . ... ... : G-2 01 F P80 ...
ROW 2D : ... .. B ... ... ... : ... .. . P83 ... ... : ... .. . ... : ... .. C ... : ... .. . ... ... : ... .. . ... ... : ... .. . ... ... : ... .. D ... ...
ROW 2E : ... .. A ... ... ... : A#4 00 A P80 ... ... : ... .. . ... : ... .. 6 ... : ... .. . ... ... : ... .. . ... ... : ... .. . ... ... : ... .. 8 ... ...
ROW 2F : ... .. 8 ... ... ... : ... .. . P83 ... ... : ... .. . ... : ... .. 3 ... : ... .. . ... ... : ... .. . ... ... : ... .. . ... ... : ... .. . ... ...
ROW 30 : ... .. 1 ... ... ... : B-4 00 A P7F ... ... : ... .. . ... : ... .. 2 ... : ... .. . ... ... : ... .. . ... ... : ... .. . ... ... : ... .. . ... ...
ROW 31 : ... .. . ... ... ... : ... .. . ... ... ... : ... .. . ... : ... .. 0 ... : ... .. . ... ... : ... .. . ... ... : ... .. . ... ... : ... .. . ... ...
ROW 32 : G-1 00 C ... ... ... : A#4 00 A P82 ... ... : ... .. . ... : 1-# 00 8 ... : ... .. . ... ... : ... .. . ... ... : ... .. . ... ... : ... .. . ... ...
ROW 33 : ... .. B ... ... ... : ... .. . P7F ... ... : ... .. . ... : ... .. 6 ... : ... .. . ... ... : ... .. . ... ... : ... .. . ... ... : ... .. . ... ...
ROW 34 : ... .. A ... ... ... : A-4 00 A P82 ... ... : ... .. . ... : ... .. 3 ... : ... .. . ... ... : ... .. . ... ... : ... .. . ... ... : ... .. . ... ...
ROW 35 : ... .. 8 ... ... ... : ... .. . P81 ... ... : ... .. . ... : ... .. 1 ... : ... .. . ... ... : ... .. . ... ... : ... .. . ... ... : ... .. . ... ...
ROW 36 : ... .. 1 ... ... ... : ... .. 2 P83 ... ... : ... .. . ... : ... .. . ... : ... .. . ... ... : ... .. . ... ... : ... .. . ... ... : ... .. . ... ...
ROW 37 : ... .. . ... ... ... : A#4 00 2 P80 ... ... : --- .. . ... : ... .. 0 ... : ... .. . ... ... : ... .. . ... ... : ... .. . ... ... : --- .. . P7D ...
ROW 38 : E-2 00 C ... ... ... : ... .. . ... ... ... : F#3 00 . ... : ... .. F ... : ... .. . ... ... : A#3 01 8 ... ... : D-4 01 8 ... ... : G-0 01 F P80 ...
ROW 39 : ... .. B ... ... ... : ... .. 1 ... ... ... : G#2 00 . ... : ... .. C ... : ... .. . ... ... : ... .. 7 ... ... : ... .. 7 ... ... : ... .. D ... ...
ROW 3A : ... .. A ... ... ... : ... .. . ... ... ... : C#2 00 . ... : ... .. 6 ... : ... .. . ... ... : ... .. 6 ... ... : ... .. 6 ... ... : ... .. 8 ... ...
ROW 3B : ... .. 8 ... ... ... : ... .. . ... ... ... : C-2 00 . ... : ... .. 3 ... : ... .. . ... ... : ... .. 5 ... ... : ... .. 5 ... ... : ... .. . ... ...
ROW 3C : ... .. . ... ... ... : ... .. 0 ... ... ... : G-1 00 . ... : ... .. 2 ... : ... .. . ... ... : ... .. . ... ... : ... .. . ... ... : ... .. . ... ...
ROW 3D : ... .. . ... ... ... : ... .. . ... ... ... : ... .. . ... : ... .. 0 ... : ... .. . ... ... : ... .. 4 ... ... : ... .. 4 ... ... : ... .. . ... ...
ROW 3E : ... .. C ... ... ... : D-4 00 F P80 ... ... : ... .. . ... : C-# 00 8 ... : ... .. . ... ... : ... .. . ... ... : ... .. . ... ... : ... .. . ... ...
ROW 3F : ... .. B ... ... ... : ... .. E ... ... ... : ... .. . ... : ... .. 6 ... : ... .. . ... ... : ... .. . ... ... : ... .. . ... ... : ... .. . ... ...
ROW 40 : ... .. A ... ... ... : ... .. D ... ... ... : ... .. . ... : ... .. 3 ... : ... .. . ... ... : ... .. . ... ... : ... .. . ... ... : ... .. . ... ...
ROW 41 : ... .. 8 ... ... ... : ... .. A ... ... ... : ... .. . P60 : ... .. 1 ... : ... .. . ... ... : ... .. . ... ... : ... .. . ... ... : ... .. . P60 ...
ROW 42 : ... .. 1 ... ... ... : ... .. 2 ... ... ... : F#1 00 . P84 : ... .. . ... : ... .. . ... ... : ... .. . ... ... : ... .. . ... ... : ... .. . P40 ...
ROW 43 : ... .. . ... ... ... : ... .. . ... ... ... : ... .. . P64 : ... .. 0 ... : ... .. . ... ... : ... .. . ... ... : ... .. . ... ... : F#0 01 8 PBB ...
ROW 44 : A#1 00 C ... ... ... : ... .. F ... ... ... : F-1 00 . P8C : ... .. 8 ... : ... .. . ... ... : ... .. . ... ... : ... .. . ... ... : ... .. . P9B ...
ROW 45 : ... .. B ... ... ... : ... .. E ... ... ... : ... .. . P6C : ... .. 6 ... : ... .. . ... ... : ... .. . ... ... : ... .. . ... ... : ... .. . P7B ...
ROW 46 : ... .. A ... ... ... : ... .. D ... ... ... : E-1 00 . P98 : ... .. 3 ... : ... .. . ... ... : ... .. . ... ... : ... .. . ... ... : ... .. . P5B ...
ROW 47 : ... .. 8 ... ... ... : ... .. A ... ... ... : ... .. . P78 : ... .. 1 ... : ... .. . ... ... : ... .. . ... ... : ... .. . ... ... : ... .. . P3B ...
ROW 48 : ... .. 1 ... ... ... : ... .. 2 ... ... ... : ... .. . P58 : ... .. . ... : ... .. . ... ... : ... .. . ... ... : ... .. . ... ... : F-0 01 8 PC0 ...
ROW 49 : ... .. . ... ... ... : ... .. . ... ... ... : D#1 00 . P89 : ... .. 0 ... : ... .. . ... ... : ... .. . ... ... : ... .. . ... ... : ... .. . PA0 ...
ROW 4A : ... .. C ... ... ... : D#4 00 F ... ... ... : G-2 00 . P80 : 1-# 00 F ... : ... .. . ... ... : ... .. 8 ... ... : D#4 01 8 ... ... : G-1 01 F P80 ...
ROW 4B : ... .. B ... ... ... : ... .. E ... ... ... : ... .. . ... : ... .. C ... : ... .. . ... ... : ... .. 7 ... ... : ... .. 7 ... ... : ... .. D ... ...
ROW 4C : ... .. A ... ... ... : ... .. D ... ... ... : ... .. . ... : ... .. 6 ... : ... .. . ... ... : ... .. 6 ... ... : ... .. 6 ... ... : ... .. 8 ... ...
ROW 4D : ... .. 8 ... ... ... : ... .. A ... ... ... : ... .. . ... : ... .. 3 ... : ... .. . ... ... : ... .. 5 ... ... : ... .. 5 ... ... : ... .. . ... ...
ROW 4E : ... .. . ... ... ... : ... .. . ... ... ... : ... .. . ... : ... .. 2 ... : ... .. . ... ... : ... .. . ... ... : ... .. . ... ... : ... .. . ... ...
ROW 4F : ... .. . ... ... ... : ... .. . ... ... ... : ... .. . ... : ... .. 0 ... : ... .. . ... ... : ... .. 4 ... ... : ... .. 4 ... ... : ... .. . ... ...
ROW 50 : D-2 00 C ... ... ... : D-4 00 F ... ... ... : F-2 00 . ... : C-# 00 8 ... : ... .. . ... ... : ... .. . ... ... : ... .. . ... ... : F-1 01 F ... ...
ROW 51 : ... .. B ... ... ... : ... .. E ... ... ... : ... .. . ... : ... .. 6 ... : ... .. . ... ... : ... .. . ... ... : ... .. . ... ... : ... .. D ... ...
ROW 52 : ... .. A ... ... ... : ... .. D ... ... ... : ... .. . ... : ... .. 3 ... : ... .. . ... ... : ... .. . ... ... : ... .. . ... ... : ... .. 8 ... ...
ROW 53 : ... .. 8 ... ... ... : ... .. A ... ... ... : ... .. . ... : ... .. 1 ... : ... .. . ... ... : ... .. . ... ... : ... .. . ... ... : ... .. . ... ...
ROW 54 : ... .. 1 ... ... ... : ... .. 2 ... ... ... : ... .. . ... : ... .. . ... : ... .. . ... ... : ... .. . ... ... : ... .. . ... ... : ... .. . ... ...
ROW 55 : ... .. . ... ... ... : ... .. . ... ... ... : --- .. . ... : ... .. 0 ... : ... .. . ... ... : ... .. . ... ... : ... .. . ... ... : --- .. . P7F ...
ROW 56 : ... .. C ... ... ... : D-5 00 F ... ... ... : G-2 00 . ... : ... .. 8 ... : ... .. . ... ... : ... .. . ... ... : ... .. . ... ... : G-1 01 F P80 ...
ROW 57 : ... .. B ... ... ... : ... .. E ... ... ... : ... .. . ... : ... .. 6 ... : ... .. . ... ... : ... .. . ... ... : ... .. . ... ... : ... .. D ... ...
ROW 58 : ... .. A ... ... ... : ... .. D ... ... ... : ... .. . ... : ... .. 3 ... : ... .. . ... ... : ... .. . ... ... : ... .. . ... ... : ... .. 8 ... ...
ROW 59 : ... .. 8 ... ... ... : ... .. A ... ... ... : ... .. . ... : ... .. 1 ... : ... .. . ... ... : ... .. . ... ... : ... .. . ... ... : ... .. . ... ...
ROW 5A : ... .. 1 ... ... ... : ... .. 2 ... ... ... : ... .. . ... : ... .. . ... : ... .. . ... ... : ... .. . ... ... : ... .. . ... ... : ... .. . ... ...
ROW 5B : ... .. . ... ... ... : ... .. . ... ... ... : ... .. . ... : ... .. 0 ... : ... .. . ... ... : ... .. . ... ... : ... .. . ... ... : ... .. . ... ...
ROW 5C : C-2 00 C ... ... ... : ... .. F ... ... ... : F#5 00 . ... : 7-# 00 F ... : ... .. . ... ... : ... .. . ... ... : ... .. . ... ... : G-2 01 F ... ...
ROW 5D : ... .. B ... ... ... : ... .. E ... ... ... : G#4 00 . ... : ... .. C ... : ... .. . ... ... : ... .. . ... ... : ... .. . ... ... : ... .. D ... ...
ROW 5E : ... .. A ... ... ... : ... .. D ... ... ... : C#4 00 . ... : ... .. 6 ... : ... .. . ... ... : ... .. . ... ... : ... .. . ... ... : ... .. 8 ... ...
ROW 5F : ... .. 8 ... ... ... : ... .. A ... ... ... : C-4 00 . ... : ... .. 3 ... : ... .. . ... ... : ... .. . ... ... : ... .. . ... ... : ... .. . ... ...
ROW 60 : ... .. . ... ... ... : ... .. . ... ... ... : G-3 00 . ... : ... .. 2 ... : ... .. . ... ... : ... .. . ... ... : ... .. . ... ... : ... .. . ... ...
ROW 61 : ... .. . ... ... ... : ... .. . ... ... ... : --- .. . ... : ... .. 0 ... : ... .. . ... ... : ... .. . ... ... : ... .. . ... ... : --- .. . P7D ...
ROW 62 : ... .. C ... ... ... : ... .. . ... ... ... : F-3 00 . ... : ... .. 8 ... : ... .. . ... ... : ... .. . ... ... : ... .. . ... ... : F-2 01 F P80 ...
ROW 63 : ... .. B ... ... ... : ... .. . ... ... ... : ... .. . ... : ... .. 6 ... : ... .. . ... ... : ... .. . ... ... : ... .. . ... ... : ... .. D ... ...
ROW 64 : ... .. A ... ... ... : ... .. . ... ... ... : ... .. . ... : ... .. 3 ... : ... .. . ... ... : ... .. . ... ... : ... .. . ... ... : ... .. 8 ... ...
ROW 65 : ... .. 8 ... ... ... : ... .. . ... ... ... : ... .. . ... : ... .. 1 ... : ... .. . ... ... : ... .. . ... ... : ... .. . ... ... : ... .. . ... ...
ROW 66 : ... .. 1 ... ... ... : ... .. . ... ... ... : ... .. . ... : ... .. . ... : ... .. . ... ... : ... .. . ... ... : ... .. . ... ... : ... .. . ... ...
ROW 67 : ... .. . ... ... ... : ... .. . ... ... ... : --- .. . ... : ... .. 0 ... : ... .. . ... ... : ... .. . ... ... : ... .. . ... ... : --- .. . P7E ...
ROW 68 : G#1 00 C ... ... ... : ... .. . ... ... ... : A#3 00 . ... : 4-# 00 F ... : ... .. . ... ... : ... .. . ... ... : ... .. . ... ... : A#2 01 F P80 ...
ROW 69 : ... .. B ... ... ... : ... .. . ... ... ... : ... .. . ... : ... .. C ... : ... .. . ... ... : ... .. . ... ... : ... .. . ... ... : ... .. D ... ...
ROW 6A : ... .. A ... ... ... : ... .. . ... ... ... : ... .. . ... : ... .. 6 ... : ... .. . ... ... : ... .. . ... ... : ... .. . ... ... : ... .. 8 ... ...
ROW 6B : ... .. 8 ... ... ... : ... .. . ... ... ... : ... .. . ... : ... .. 3 ... : ... .. . ... ... : ... .. . ... ... : ... .. . ... ... : ... .. . ... ...
ROW 6C : ... .. 1 ... ... ... : ... .. . ... ... ... : ... .. . ... : ... .. 2 ... : ... .. . ... ... : ... .. . ... ... : ... .. . ... ... : ... .. . ... ...
ROW 6D : ... .. . ... ... ... : ... .. . ... ... ... : ... .. . ... : ... .. 0 ... : ... .. . ... ... : ... .. . ... ... : ... .. . ... ... : ... .. . ... ...
ROW 6E : ... .. C ... ... ... : D#5 00 A P7F ... ... : G#3 00 . ... : 9-# 00 8 ... : ... .. . ... ... : ... .. . ... ... : ... .. . ... ... : G#2 01 F ... ...
ROW 6F : ... .. B ... ... ... : ... .. . P81 ... ... : ... .. . ... : ... .. 6 ... : ... .. . ... ... : ... .. . ... ... : ... .. . ... ... : ... .. D ... ...
ROW 70 : ... .. A ... ... ... : ... .. . P80 ... ... : ... .. . ... : ... .. 3 ... : ... .. . ... ... : ... .. . ... ... : ... .. . ... ... : ... .. 8 ... ...
ROW 71 : ... .. 8 ... ... ... : D-5 00 A P82 ... ... : ... .. . ... : ... .. 1 ... : ... .. . ... ... : ... .. . ... ... : ... .. . ... ... : ... .. . ... ...
ROW 72 : ... .. 1 ... ... ... : ... .. . P7E ... ... : ... .. . ... : ... .. . ... : ... .. . ... ... : ... .. . ... ... : ... .. . ... ... : ... .. . ... ...
ROW 73 : ... .. . ... ... ... : C#5 00 A P81 ... ... : --- .. . ... : ... .. 0 ... : ... .. . ... ... : ... .. . ... ... : ... .. . ... ... : --- .. . P7F ...
ROW 74 : G-1 00 C ... ... ... : ... .. . P80 ... ... : G-3 00 . ... : 7-# 00 F ... : ... .. . ... ... : ... .. . ... ... : ... .. . ... ... : G-2 01 F P80 ...
ROW 75 : ... .. B ... ... ... : ... .. . P82 ... ... : ... .. . ... : ... .. C ... : ... .. . ... ... : ... .. . ... ... : ... .. . ... ... : ... .. D ... ...
ROW 76 : ... .. A ... ... ... : D-5 00 A P80 ... ... : ... .. . ... : ... .. 6 ... : ... .. . ... ... : ... .. . ... ... : ... .. . ... ... : ... .. 8 ... ...
ROW 77 : ... .. 8 ... ... ... : D#5 00 A P7E ... ... : ... .. . ... : ... .. 3 ... : ... .. . ... ... : ... .. . ... ... : ... .. . ... ... : ... .. . ... ...
ROW 78 : ... .. 1 ... ... ... : ... .. . P81 ... ... : ... .. . ... : ... .. 2 ... : ... .. . ... ... : ... .. . ... ... : ... .. . ... ... : ... .. . ... ...
ROW 79 : ... .. . ... ... ... : ... .. . ... ... ... : --- .. . ... : ... .. 0 ... : ... .. . ... ... : ... .. . ... ... : ... .. . ... ... : --- .. . P7D ...
ROW 7A : ... .. C ... ... ... : D-5 00 A P82 ... ... : G-2 00 . ... : 5-# 00 8 ... : ... .. . ... ... : ... .. . ... ... : ... .. . ... ... : G-1 01 F P80 ...
ROW 7B : ... .. B ... ... ... : ... .. . P7F ... ... : ... .. . ... : ... .. 6 ... : ... .. . ... ... : ... .. . ... ... : ... .. . ... ... : ... .. D ... ...
ROW 7C : ... .. A ... ... ... : C#5 00 A P81 ... ... : ... .. . ... : ... .. 3 ... : ... .. . ... ... : ... .. . ... ... : ... .. . ... ... : ... .. 8 ... ...
ROW 7D : ... .. 8 ... ... ... : ... .. . P80 ... ... : ... .. . ... : ... .. 1 ... : ... .. . ... ... : ... .. . ... ... : ... .. . ... ... : ... .. . ... ...
ROW 7E : ... .. 1 ... ... ... : ... .. . P82 ... ... : ... .. . ... : ... .. . ... : ... .. . ... ... : ... .. . ... ... : ... .. . ... ... : ... .. . ... ...
ROW 7F : ... .. . ... ... ... : D-5 00 A P80 ... ... : --- .. . ... : ... .. 0 ... : ... .. . ... ... : ... .. . ... ... : ... .. . ... ... : --- .. . P81 ...
ROW 80 : ... .. C ... ... ... : D#5 00 A P7E ... ... : F#4 00 . ... : 1-# 00 F ... : ... .. . ... ... : A#4 01 8 ... ... : D-5 01 8 ... ... : G-1 01 F P80 ...
ROW 81 : ... .. B ... ... ... : ... .. 2 P81 ... ... : G#3 00 . ... : ... .. C ... : ... .. . ... ... : ... .. 7 ... ... : ... .. 7 ... ... : ... .. D ... ...
ROW 82 : ... .. A ... ... ... : ... .. . ... ... ... : C#3 00 . ... : ... .. 6 ... : ... .. . ... ... : ... .. 6 ... ... : ... .. 6 ... ... : ... .. 8 ... ...
ROW 83 : ... .. 8 ... ... ... : ... .. . P7E ... ... : C-3 00 . ... : ... .. 3 ... : ... .. . ... ... : ... .. 5 ... ... : ... .. 5 ... ... : ... .. . ... ...
ROW 84 : ... .. 1 ... ... ... : D-5 00 1 P80 ... ... : G-2 00 . ... : ... .. 2 ... : ... .. . ... ... : ... .. . ... ... : ... .. . ... ... : ... .. . ... ...
ROW 85 : ... .. . ... ... ... : C#5 00 1 P82 ... ... : ... .. . ... : ... .. 0 ... : ... .. . ... ... : ... .. 4 ... ... : ... .. 4 ... ... : ... .. . ... ...
ROW 86 : ... .. C ... ... ... : F#4 00 F P80 ... ... : ... .. . ... : C-# 00 8 ... : ... .. . ... ... : ... .. . ... ... : ... .. . ... ... : ... .. . ... ...
ROW 87 : ... .. B ... ... ... : ... .. E ... ... ... : ... .. . ... : ... .. 6 ... : ... .. . ... ... : ... .. . ... ... : ... .. . ... ... : ... .. . ... ...
ROW 88 : ... .. A ... ... ... : ... .. D ... ... ... : ... .. . ... : ... .. 3 ... : ... .. . ... ... : ... .. . ... ... : ... .. . ... ... : ... .. . ... ...
ROW 89 : ... .. 8 ... ... ... : ... .. A ... ... ... : F#2 00 . P82 : ... .. 1 ... : ... .. . ... ... : ... .. . ... ... : ... .. . ... ... : ... .. . P60 ...
ROW 8A : ... .. 1 ... ... ... : ... .. . ... ... ... : F-2 00 . P86 : ... .. . ... : ... .. . ... ... : ... .. . ... ... : ... .. . ... ... : F#1 01 8 P8D ...
ROW 8B : ... .. . ... ... ... : ... .. . ... ... ... : E-2 00 . P8C : ... .. 0 ... : ... .. . ... ... : ... .. . ... ... : ... .. . ... ... : ... .. . P6D ...
ROW 8C : D-2 00 C ... ... ... : G-4 00 F ... ... ... : D#2 00 . P94 : ... .. 8 ... : ... .. . ... ... : ... .. . ... ... : ... .. . ... ... : F-1 01 8 P9F ...
ROW 8D : ... .. B ... ... ... : ... .. E ... ... ... : ... .. . P74 : ... .. 6 ... : ... .. . ... ... : ... .. . ... ... : ... .. . ... ... : ... .. . P7F ...
ROW 8E : ... .. A ... ... ... : ... .. D ... ... ... : D-2 00 . P7F : ... .. 3 ... : ... .. . ... ... : ... .. . ... ... : ... .. . ... ... : ... .. . P5F ...
ROW 8F : ... .. 8 ... ... ... : ... .. A ... ... ... : C#2 00 . P8C : ... .. 1 ... : ... .. . ... ... : ... .. . ... ... : ... .. . ... ... : E-1 01 8 P96 ...
ROW 90 : ... .. . ... ... ... : ... .. . ... ... ... : ... .. . P6C : ... .. . ... : ... .. . ... ... : ... .. . ... ... : ... .. . ... ... : ... .. . P76 ...
ROW 91 : ... .. . ... ... ... : ... .. . ... ... ... : C-2 00 . P7C : ... .. 0 ... : ... .. . ... ... : ... .. . ... ... : ... .. . ... ... : ... .. . P56 ...
ROW 92 : C#2 00 C ... ... ... : C-5 00 F ... ... ... : F#5 00 . P80 : 1-# 00 F ... : ... .. . ... ... : ... .. 8 ... ... : D#5 01 8 ... ... : G-2 01 F P80 ...
ROW 93 : ... .. B ... ... ... : ... .. E ... ... ... : G#4 00 . ... : ... .. C ... : ... .. . ... ... : ... .. 7 ... ... : ... .. 7 ... ... : ... .. D ... ...
ROW 94 : ... .. A ... ... ... : ... .. D ... ... ... : C#4 00 . ... : ... .. 6 ... : ... .. . ... ... : ... .. 6 ... ... : ... .. 6 ... ... : ... .. 8 ... ...
ROW 95 : ... .. 8 ... ... ... : ... .. A ... ... ... : C-4 00 . ... : ... .. 3 ... : ... .. . ... ... : ... .. 5 ... ... : ... .. 5 ... ... : ... .. . ... ...
ROW 96 : ... .. 1 ... ... ... : ... .. . ... ... ... : G-3 00 . ... : ... .. 2 ... : ... .. . ... ... : ... .. . ... ... : ... .. . ... ... : ... .. . ... ...
ROW 97 : ... .. . ... ... ... : ... .. . ... ... ... : --- .. . ... : ... .. 0 ... : ... .. . ... ... : ... .. 4 ... ... : ... .. 4 ... ... : --- .. . P7D ...
ROW 98 : D-2 00 C ... ... ... : ... .. . ... ... ... : F-3 00 . ... : C-# 00 8 ... : ... .. . ... ... : ... .. . ... ... : ... .. . ... ... : F-2 01 F P80 ...
ROW 99 : ... .. B ... ... ... : ... .. . ... ... ... : ... .. . ... : ... .. 6 ... : ... .. . ... ... : ... .. . ... ... : ... .. . ... ... : ... .. D ... ...
ROW 9A : ... .. A ... ... ... : ... .. . ... ... ... : ... .. . ... : ... .. 3 ... : ... .. . ... ... : ... .. . ... ... : ... .. . ... ... : ... .. 8 ... ...
ROW 9B : ... .. 8 ... ... ... : ... .. . ... ... ... : ... .. . ... : ... .. 1 ... : ... .. . ... ... : ... .. . ... ... : ... .. . ... ... : ... .. . ... ...
ROW 9C : ... .. 1 ... ... ... : ... .. . ... ... ... : ... .. . ... : ... .. . ... : ... .. . ... ... : ... .. . ... ... : ... .. . ... ... : ... .. . ... ...
ROW 9D : ... .. . ... ... ... : ... .. . ... ... ... : --- .. . ... : ... .. 0 ... : ... .. . ... ... : ... .. . ... ... : ... .. . ... ... : --- .. . P7E ...
ROW 9E : A#1 00 C ... ... ... : ... .. . ... ... ... : G-3 00 . ... : ... .. 8 ... : ... .. . ... ... : ... .. . ... ... : ... .. . ... ... : G-2 01 F P80 ...
ROW 9F : ... .. B ... ... ... : ... .. . ... ... ... : ... .. . ... : ... .. 6 ... : ... .. . ... ... : ... .. . ... ... : ... .. . ... ... : ... .. D ... ...
ROW A0 : ... .. A ... ... ... : ... .. . ... ... ... : ... .. . ... : ... .. 3 ... : ... .. . ... ... : ... .. . ... ... : ... .. . ... ... : ... .. 8 ... ...
ROW A1 : ... .. 8 ... ... ... : ... .. . ... ... ... : --- .. . ... : ... .. 1 ... : ... .. . ... ... : ... .. . ... ... : ... .. . ... ... : --- .. . P7D ...
ROW A2 : ... .. . ... ... ... : ... .. . ... ... ... : ... .. . ... : ... .. . ... : ... .. . ... ... : ... .. . ... ... : ... .. . ... ... : ... .. . ... ...
ROW A3 : ... .. . ... ... ... : ... .. . ... ... ... : ... .. . ... : ... .. 0 ... : ... .. . ... ... : ... .. . ... ... : ... .. . ... ... : ... .. . ... ...
ROW A4 : A#2 00 C ... ... ... : C#5 00 A P7E ... ... : C#6 00 . ... : 7-# 00 F ... : ... .. . ... ... : ... .. . ... ... : ... .. . ... ... : D-3 01 F P80 ...
ROW A5 : ... .. B ... ... ... : ... .. . P80 ... ... : D#5 00 . ... : ... .. C ... : ... .. . ... ... : ... .. . ... ... : ... .. . ... ... : ... .. D ... ...
ROW A6 : ... .. A ... ... ... : ... .. . P7F ... ... : G#4 00 . ... : ... .. 6 ... : ... .. . ... ... : ... .. . ... ... : ... .. . ... ... : ... .. 8 ... ...
ROW A7 : ... .. 8 ... ... ... : C-5 00 A P82 ... ... : G-4 00 . ... : ... .. 3 ... : ... .. . ... ... : ... .. . ... ... : ... .. . ... ... : ... .. . ... ...
ROW A8 : ... .. 1 ... ... ... : ... .. . P7E ... ... : D-4 00 . ... : ... .. 2 ... : ... .. . ... ... : ... .. . ... ... : ... .. . ... ... : ... .. . ... ...
ROW A9 : ... .. . ... ... ... : B-4 00 A P81 ... ... : ... .. . ... : ... .. 0 ... : ... .. . ... ... : ... .. . ... ... : ... .. . ... ... : ... .. . ... ...
ROW AA : ... .. C ... ... ... : ... .. . P80 ... ... : ... .. . ... : 1-# 00 8 ... : ... .. . ... ... : ... .. . ... ... : ... .. . ... ... : ... .. . ... ...
ROW AB : ... .. B ... ... ... : ... .. . P82 ... ... : ... .. . ... : ... .. 6 ... : ... .. . ... ... : ... .. . ... ... : ... .. . ... ... : ... .. . ... ...
ROW AC : ... .. A ... ... ... : C-5 00 A P80 ... ... : ... .. . ... : ... .. 3 ... : ... .. . ... ... : ... .. . ... ... : ... .. . ... ... : ... .. . ... ...
ROW AD : ... .. 8 ... ... ... : ... .. . P83 ... ... : ... .. . ... : ... .. 1 ... : ... .. . ... ... : ... .. . ... ... : ... .. . ... ... : ... .. . ... ...
ROW AE : ... .. 1 ... ... ... : C#5 00 A P80 ... ... : ... .. . ... : ... .. . ... : ... .. . ... ... : ... .. . ... ... : ... .. . ... ... : ... .. . ... ...
ROW AF : ... .. . ... ... ... : ... .. . ... ... ... : ... .. . ... : ... .. 0 ... : ... .. . ... ... : ... .. . ... ... : ... .. . ... ... : ... .. . ... ...
ROW B0 : C#2 00 C ... ... ... : D-5 00 F ... ... ... : C#4 00 . ... : 7-# 00 F ... : ... .. . ... ... : ... .. . ... ... : ... .. . ... ... : C#3 01 F ... ...
ROW B1 : ... .. B ... ... ... : ... .. E ... ... ... : ... .. . ... : ... .. C ... : ... .. . ... ... : ... .. . ... ... : ... .. . ... ... : ... .. D ... ...
ROW B2 : ... .. A ... ... ... : ... .. D ... ... ... : ... .. . ... : ... .. 6 ... : ... .. . ... ... : ... .. . ... ... : ... .. . ... ... : ... .. 8 ... ...
ROW B3 : ... .. 8 ... ... ... : C-5 00 F ... ... ... : ... .. . ... : ... .. 3 ... : ... .. . ... ... : ... .. . ... ... : ... .. . ... ... : ... .. . ... ...
ROW B4 : ... .. 1 ... ... ... : ... .. E ... ... ... : ... .. . ... : ... .. 2 ... : ... .. . ... ... : ... .. . ... ... : ... .. . ... ... : ... .. . ... ...
ROW B5 : ... .. . ... ... ... : ... .. D ... ... ... : ... .. . ... : ... .. 0 ... : ... .. . ... ... : ... .. . ... ... : ... .. . ... ... : ... .. . ... ...
ROW B6 : C#3 00 C ... ... ... : A#4 00 F ... ... ... : ... .. . ... : 1-# 00 8 ... : ... .. . ... ... : ... .. . ... ... : ... .. . ... ... : ... .. . ... ...
ROW B7 : ... .. B ... ... ... : ... .. E ... ... ... : ... .. . ... : ... .. 6 ... : ... .. . ... ... : ... .. . ... ... : ... .. . ... ... : ... .. . ... ...
ROW B8 : ... .. A ... ... ... : ... .. D ... ... ... : ... .. . ... : ... .. 3 ... : ... .. . ... ... : ... .. . ... ... : ... .. . ... ... : ... .. . ... ...
ROW B9 : ... .. 8 ... ... ... : ... .. A ... ... ... : ... .. . ... : ... .. 1 ... : ... .. . ... ... : ... .. . ... ... : ... .. . ... ... : ... .. . ... ...
ROW BA : ... .. 1 ... ... ... : ... .. . ... ... ... : ... .. . ... : ... .. . ... : ... .. . ... ... : ... .. . ... ... : ... .. . ... ... : ... .. . ... ...
ROW BB : ... .. . ... ... ... : ... .. . ... ... ... : --- .. . ... : ... .. 0 ... : ... .. . ... ... : ... .. . ... ... : ... .. . ... ... : --- .. . ... ...
ROW BC : ... .. C ... ... ... : A-4 00 F ... ... ... : G-3 00 . ... : 7-# 00 F ... : ... .. . ... ... : ... .. . ... ... : ... .. . ... ... : G-2 01 F ... ...
ROW BD : ... .. B ... ... ... : ... .. E ... ... ... : ... .. . ... : ... .. C ... : ... .. . ... ... : ... .. . ... ... : ... .. . ... ... : ... .. D ... ...
ROW BE : ... .. A ... ... ... : ... .. D ... ... ... : ... .. . ... : ... .. 6 ... : ... .. . ... ... : ... .. . ... ... : ... .. . ... ... : ... .. 8 ... ...
ROW BF : ... .. 8 ... ... ... : ... .. A ... ... ... : ... .. . ... : ... .. 3 ... : ... .. . ... ... : ... .. . ... ... : ... .. . ... ... : ... .. . ... ...
ROW C0 : ... .. 1 ... ... ... : ... .. . ... ... ... : ... .. . ... : ... .. 2 ... : ... .. . ... ... : ... .. . ... ... : ... .. . ... ... : ... .. . ... ...
ROW C1 : ... .. . ... ... ... : ... .. . ... ... ... : ... .. . ... : ... .. 0 ... : ... .. . ... ... : ... .. . ... ... : ... .. . ... ... : ... .. . ... ...
ROW C2 : G-2 00 C ... ... ... : G-4 00 F ... ... ... : ... .. . ... : 1-# 00 8 ... : ... .. . ... ... : ... .. . ... ... : ... .. . ... ... : ... .. . ... ...
ROW C3 : ... .. B ... ... ... : ... .. E ... ... ... : ... .. . ... : ... .. 6 ... : ... .. . ... ... : ... .. . ... ... : ... .. . ... ... : ... .. . ... ...
ROW C4 : ... .. A ... ... ... : ... .. D ... ... ... : ... .. . ... : ... .. 3 ... : ... .. . ... ... : ... .. . ... ... : ... .. . ... ... : ... .. . ... ...
ROW C5 : ... .. 8 ... ... ... : ... .. A ... ... ... : ... .. . ... : ... .. 1 ... : ... .. . ... ... : ... .. . ... ... : ... .. . ... ... : ... .. . ... ...
ROW C6 : ... .. 1 ... ... ... : ... .. . ... ... ... : ... .. . ... : ... .. . ... : ... .. . ... ... : ... .. . ... ... : ... .. . ... ... : ... .. . ... ...
ROW C7 : ... .. . ... ... ... : ... .. . ... ... ... : --- .. . ... : ... .. 0 ... : ... .. . ... ... : ... .. . ... ... : ... .. . ... ... : --- .. . P7D ...
ROW C8 : F#3 00 C ... ... ... : F#4 00 F ... ... ... : F#5 00 . ... : ... .. F ... : ... .. . ... ... : ... .. 8 ... ... : D-4 01 8 ... ... : G-2 01 F P80 ...
ROW C9 : ... .. B ... ... ... : ... .. E ... ... ... : G#4 00 . ... : ... .. C ... : ... .. . ... ... : ... .. 7 ... ... : ... .. 7 ... ... : ... .. D ... ...
ROW CA : ... .. A ... ... ... : ... .. D ... ... ... : C#4 00 . ... : ... .. 6 ... : ... .. . ... ... : ... .. 6 ... ... : ... .. 6 ... ... : ... .. 8 ... ...
ROW CB : ... .. 8 ... ... ... : ... .. A ... ... ... : C-4 00 . ... : ... .. 3 ... : ... .. . ... ... : ... .. 5 ... ... : ... .. 5 ... ... : ... .. . ... ...
ROW CC : ... .. . ... ... ... : ... .. . ... ... ... : G-3 00 . ... : ... .. 2 ... : ... .. . ... ... : ... .. . ... ... : ... .. . ... ... : ... .. . ... ...
ROW CD : ... .. . ... ... ... : ... .. . ... ... ... : ... .. . ... : ... .. 0 ... : ... .. . ... ... : ... .. 4 ... ... : ... .. 4 ... ... : ... .. . ... ...
ROW CE : G-1 00 C ... ... ... : G-4 00 F ... ... ... : ... .. . ... : C-# 00 8 ... : ... .. . ... ... : A#3 01 8 ... ... : A#3 01 8 ... ... : ... .. . ... ...
ROW CF : ... .. B ... ... ... : ... .. E ... ... ... : ... .. . ... : ... .. 6 ... : ... .. . ... ... : ... .. 7 ... ... : ... .. 7 ... ... : ... .. . ... ...
ROW D0 : ... .. A ... ... ... : ... .. D ... ... ... : ... .. . ... : ... .. 3 ... : ... .. . ... ... : ... .. 6 ... ... : ... .. 6 ... ... : ... .. . ... ...
ROW D1 : ... .. 8 ... ... ... : ... .. A ... ... ... : F-3 00 . P83 : ... .. 1 ... : ... .. . ... ... : ... .. 5 ... ... : ... .. 5 ... ... : F#2 01 8 P87 ...
ROW D2 : ... .. 1 ... ... ... : ... .. . ... ... ... : E-3 00 . P76 : ... .. . ... : ... .. . ... ... : ... .. . ... ... : ... .. . ... ... : F-2 01 8 P90 ...
ROW D3 : ... .. . ... ... ... : ... .. . ... ... ... : D-3 00 . P80 : ... .. 0 ... : ... .. . ... ... : ... .. 4 ... ... : ... .. 4 ... ... : ... .. . P70 ...
ROW D4 : ... .. C ... ... ... : D-4 00 F ... ... ... : C#3 00 . P77 : ... .. 8 ... : ... .. . ... ... : G-3 01 8 ... ... : G-3 01 8 ... ... : E-2 01 8 P7C ...
ROW D5 : ... .. B ... ... ... : ... .. E ... ... ... : B-2 00 . P88 : ... .. 6 ... : ... .. . ... ... : ... .. 7 ... ... : ... .. 7 ... ... : D#2 01 8 P8A ...
ROW D6 : ... .. A ... ... ... : ... .. D ... ... ... : A#2 00 . P83 : ... .. 3 ... : ... .. . ... ... : ... .. 6 ... ... : ... .. 6 ... ... : ... .. . P6A ...
ROW D7 : ... .. 8 ... ... ... : ... .. A ... ... ... : A-2 00 . P7F : ... .. 1 ... : ... .. . ... ... : ... .. 5 ... ... : ... .. 5 ... ... : D-2 01 8 P7B ...
ROW D8 : ... .. 1 ... ... ... : ... .. . ... ... ... : G#2 00 . P7E : ... .. . ... : ... .. . ... ... : ... .. . ... ... : ... .. . ... ... : C#2 01 8 P8E ...
ROW D9 : ... .. . ... ... ... : ... .. . ... ... ... : G-2 00 . ... : ... .. 0 ... : ... .. . ... ... : ... .. 4 ... ... : ... .. 4 ... ... : ... .. . P6E ...
ROW DA : F#3 00 C ... ... ... : A#3 00 F ... ... ... : F#5 00 . P80 : 1-# 00 F ... : ... .. . ... ... : A#4 01 8 ... ... : D-4 01 8 ... ... : G-2 01 F P80 ...
ROW DB : ... .. B ... ... ... : ... .. E ... ... ... : G#4 00 . ... : ... .. C ... : ... .. . ... ... : ... .. 7 ... ... : ... .. 7 ... ... : ... .. D ... ...
ROW DC : ... .. A ... ... ... : ... .. D ... ... ... : C#4 00 . ... : ... .. 6 ... : ... .. . ... ... : ... .. 6 ... ... : ... .. 6 ... ... : ... .. 8 ... ...
ROW DD : ... .. 8 ... ... ... : ... .. A ... ... ... : C-4 00 . ... : ... .. 3 ... : ... .. . ... ... : ... .. 5 ... ... : ... .. 5 ... ... : ... .. . ... ...
ROW DE : ... .. . ... ... ... : ... .. . ... ... ... : G-3 00 . ... : ... .. 2 ... : ... .. . ... ... : ... .. . ... ... : ... .. . ... ... : ... .. . ... ...
ROW DF : ... .. . ... ... ... : ... .. . ... ... ... : ... .. . ... : ... .. 0 ... : ... .. . ... ... : ... .. 4 ... ... : ... .. 4 ... ... : ... .. . ... ...
ROW E0 : G-1 00 C ... ... ... : A-3 00 F ... ... ... : ... .. . ... : C-# 00 8 ... : ... .. . ... ... : A#3 01 8 ... ... : A#3 01 8 ... ... : ... .. . ... ...
ROW E1 : ... .. B ... ... ... : ... .. E ... ... ... : ... .. . ... : ... .. 6 ... : ... .. . ... ... : ... .. 7 ... ... : ... .. 7 ... ... : ... .. . ... ...
ROW E2 : ... .. A ... ... ... : ... .. D ... ... ... : ... .. . ... : ... .. 3 ... : ... .. . ... ... : ... .. 6 ... ... : ... .. 6 ... ... : ... .. . ... ...
ROW E3 : ... .. 8 ... ... ... : ... .. A ... ... ... : F-3 00 . P83 : ... .. 1 ... : ... .. . ... ... : ... .. 5 ... ... : ... .. 5 ... ... : F#2 01 8 P87 ...
ROW E4 : ... .. 1 ... ... ... : ... .. . ... ... ... : E-3 00 . P76 : ... .. . ... : ... .. . ... ... : ... .. . ... ... : ... .. . ... ... : F-2 01 8 P90 ...
ROW E5 : ... .. . ... ... ... : ... .. . ... ... ... : D-3 00 . P80 : ... .. 0 ... : ... .. . ... ... : ... .. 4 ... ... : ... .. 4 ... ... : ... .. . P70 ...
ROW E6 : ... .. C ... ... ... : G-3 00 F ... ... ... : C#3 00 . P77 : ... .. 8 ... : ... .. . ... ... : G-3 01 8 ... ... : G-3 01 8 ... ... : E-2 01 8 P7C ...
ROW E7 : ... .. B ... ... ... : ... .. E ... ... ... : B-2 00 . P88 : ... .. 6 ... : ... .. . ... ... : ... .. 7 ... ... : ... .. 7 ... ... : D#2 01 8 P8A ...
ROW E8 : ... .. A ... ... ... : ... .. D ... ... ... : A#2 00 . P83 : ... .. 3 ... : ... .. . ... ... : ... .. 6 ... ... : ... .. 6 ... ... : ... .. . P6A ...
ROW E9 : ... .. 8 ... ... ... : ... .. A ... ... ... : A-2 00 . P7F : ... .. 1 ... : ... .. . ... ... : ... .. 5 ... ... : ... .. 5 ... ... : D-2 01 8 P7B ...
ROW EA : ... .. 1 ... ... ... : ... .. . ... ... ... : G#2 00 . P7E : ... .. . ... : ... .. . ... ... : ... .. . ... ... : ... .. . ... ... : C#2 01 8 P8E ...
ROW EB : ... .. . ... ... ... : ... .. . ... ... ... : G-2 00 . ... : ... .. 0 ... : ... .. . ... ... : ... .. 4 ... ... : ... .. 4 ... ... : ... .. . P6E ...
ROW EC : F-3 00 C ... ... ... : D-3 00 F ... ... ... : F#4 00 . P80 : 7-# 00 F ... : ... .. . ... ... : A#4 01 8 ... ... : D-4 01 8 ... ... : G-1 01 F P80 ...
ROW ED : ... .. B ... ... ... : ... .. E ... ... ... : G#3 00 . ... : ... .. C ... : ... .. . ... ... : ... .. 7 ... ... : ... .. 7 ... ... : ... .. D ... ...
ROW EE : ... .. A ... ... ... : ... .. D ... ... ... : C#3 00 . ... : ... .. 6 ... : ... .. . ... ... : ... .. 6 ... ... : ... .. 6 ... ... : ... .. 8 ... ...
ROW EF : ... .. 8 ... ... ... : ... .. A ... ... ... : C-3 00 . ... : ... .. 3 ... : ... .. . ... ... : ... .. 5 ... ... : ... .. 5 ... ... : ... .. . ... ...
ROW F0 : ... .. . ... ... ... : ... .. . ... ... ... : G-2 00 . ... : ... .. 2 ... : ... .. . ... ... : ... .. . ... ... : ... .. . ... ... : ... .. . ... ...
ROW F1 : ... .. . ... ... ... : ... .. . ... ... ... : ... .. . ... : ... .. 0 ... : ... .. . ... ... : ... .. 4 ... ... : ... .. 4 ... ... : ... .. . ... ...
ROW F2 : G-1 00 C ... ... ... : A#2 00 F ... ... ... : ... .. . ... : ... .. 8 ... : ... .. . ... ... : A#3 01 8 ... ... : A#3 01 8 ... ... : ... .. . ... ...
ROW F3 : ... .. B ... ... ... : ... .. E ... ... ... : ... .. . ... : ... .. 6 ... : ... .. . ... ... : ... .. 7 ... ... : ... .. 7 ... ... : ... .. . ... ...
ROW F4 : ... .. A ... ... ... : ... .. D ... ... ... : ... .. . ... : ... .. 3 ... : ... .. . ... ... : ... .. 6 ... ... : ... .. 6 ... ... : ... .. . ... ...
ROW F5 : ... .. 8 ... ... ... : ... .. A ... ... ... : F#2 00 . P82 : ... .. 1 ... : ... .. . ... ... : ... .. 5 ... ... : ... .. 5 ... ... : ... .. . P60 ...
ROW F6 : ... .. 1 ... ... ... : ... .. . ... ... ... : F-2 00 . P86 : ... .. . ... : ... .. . ... ... : ... .. . ... ... : ... .. . ... ... : F#1 01 8 P8D ...
ROW F7 : ... .. . ... ... ... : ... .. . ... ... ... : E-2 00 . P8C : ... .. 0 ... : ... .. . ... ... : ... .. 4 ... ... : ... .. 4 ... ... : ... .. . P6D ...
ROW F8 : ... .. C ... ... ... : A-2 00 F ... ... ... : D#2 00 . P94 : 4-# 00 F ... : ... .. . ... ... : C#3 01 8 ... ... : F-3 01 8 ... ... : F-1 01 8 P9F ...
ROW F9 : ... .. B ... ... ... : ... .. E ... ... ... : ... .. . P74 : ... .. C ... : ... .. . ... ... : ... .. 7 ... ... : ... .. 7 ... ... : ... .. . P7F ...
ROW FA : ... .. A ... ... ... : ... .. D ... ... ... : D-2 00 . P7F : ... .. 6 ... : ... .. . ... ... : ... .. 6 ... ... : ... .. 6 ... ... : ... .. . P5F ...
ROW FB : ... .. 8 ... ... ... : ... .. A ... ... ... : C#2 00 . P8C : ... .. 3 ... : ... .. . ... ... : ... .. 5 ... ... : ... .. 5 ... ... : E-1 01 8 P96 ...
ROW FC : ... .. 1 ... ... ... : ... .. . ... ... ... : ... .. . P6C : ... .. 2 ... : ... .. . ... ... : ... .. . ... ... : ... .. . ... ... : ... .. . P76 ...
ROW FD : ... .. . ... ... ... : ... .. . ... ... ... : C-2 00 . P7C : ... .. 0 ... : ... .. . ... ... : ... .. 4 ... ... : ... .. 4 ... ... : ... .. . P56 ...
ROW FE : F-3 00 C ... ... ... : A#2 00 F ... ... ... : F#4 00 . P80 : 9-# 00 8 ... : ... .. . ... ... : A#4 01 8 ... ... : D-4 01 8 ... ... : G-1 01 F P80 ...
ROW FF : ... .. B ... ... ... : ... .. E ... ... ... : G#3 00 . ... : ... .. 6 ... : ... .. . ... ... : ... .. 7 ... ... : ... .. 7 ... ... : ... .. D ... ...

PATTERN 0E
ROW 00 : ... .. A ... ... ... : ... .. D ... ... ... : C#3 00 . ... : ... .. 3 ... : ... .. . ... ... : ... .. 6 ... ... : ... .. 6 ... ... : ... .. 8 ... ...
ROW 01 : ... .. 8 ... ... ... : ... .. A ... ... ... : C-3 00 . ... : ... .. 1 ... : ... .. . ... ... : ... .. 5 ... ... : ... .. 5 ... ... : ... .. . ... ...
ROW 02 : ... .. . ... ... ... : ... .. . ... ... ... : G-2 00 . ... : ... .. . ... : ... .. . ... ... : ... .. . ... ... : ... .. . ... ... : ... .. . ... ...
ROW 03 : ... .. . ... ... ... : ... .. . ... ... ... : ... .. . ... : ... .. 0 ... : ... .. . ... ... : ... .. 4 ... ... : ... .. 4 ... ... : ... .. . ... ...
ROW 04 : G-1 00 C ... ... ... : A-2 00 F ... ... ... : ... .. . ... : 7-# 00 F ... : ... .. . ... ... : A#3 01 8 ... ... : A#3 01 8 ... ... : ... .. . ... ...
ROW 05 : ... .. B ... ... ... : ... .. E ... ... ... : ... .. . ... : ... .. C ... : ... .. . ... ... : ... .. 7 ... ... : ... .. 7 ... ... : ... .. . ... ...
ROW 06 : ... .. A ... ... ... : ... .. D ... ... ... : ... .. . ... : ... .. 6 ... : ... .. . ... ... : ... .. 6 ... ... : ... .. 6 ... ... : ... .. . ... ...
ROW 07 : ... .. 8 ... ... ... : ... .. A ... ... ... : F#2 00 . P82 : ... .. 3 ... : ... .. . ... ... : ... .. 5 ... ... : ... .. 5 ... ... : ... .. . P60 ...
ROW 08 : ... .. 1 ... ... ... : ... .. . ... ... ... : F-2 00 . P86 : ... .. 2 ... : ... .. . ... ... : ... .. . ... ... : ... .. . ... ... : F#1 01 8 P8D ...
ROW 09 : ... .. . ... ... ... : ... .. . ... ... ... : E-2 00 . P8C : ... .. 0 ... : ... .. . ... ... : ... .. 4 ... ... : ... .. 4 ... ... : ... .. . P6D ...
ROW 0A : ... .. C ... ... ... : G-2 00 F ... ... ... : D#2 00 . P94 : 5-# 00 8 ... : ... .. . ... ... : C#3 01 8 ... ... : F-3 01 8 ... ... : F-1 01 8 P9F ...
ROW 0B : ... .. B ... ... ... : ... .. E ... ... ... : ... .. . P74 : ... .. 6 ... : ... .. . ... ... : ... .. 7 ... ... : ... .. 7 ... ... : ... .. . P7F ...
ROW 0C : ... .. A ... ... ... : ... .. D ... ... ... : D-2 00 . P7F : ... .. 3 ... : ... .. . ... ... : ... .. 6 ... ... : ... .. 6 ... ... : ... .. . P5F ...
ROW 0D : ... .. 8 ... ... ... : ... .. A ... ... ... : C#2 00 . P8C : ... .. 1 ... : ... .. . ... ... : ... .. 5 ... ... : ... .. 5 ... ... : E-1 01 8 P96 ...
ROW 0E : ... .. 1 ... ... ... : ... .. . ... ... ... : ... .. . P6C : ... .. . ... : ... .. . ... ... : ... .. . ... ... : ... .. . ... ... : ... .. . P76 ...
ROW 0F : ... .. . ... ... ... : ... .. . ... ... ... : C-2 00 . P7C : ... .. 0 ... : ... .. . ... ... : ... .. 4 ... ... : ... .. 4 ... ... : ... .. . P56 ...
ROW 10 : F#1 00 C ... ... ... : F#2 00 A P72 ... ... : F-4 00 . P80 : 8-# 00 D ... : ... .. . ... ... : F#4 01 A ... ... : C#4 01 A ... ... : F#1 01 F P80 ...
ROW 11 : ... .. B ... ... ... : E-2 00 A P8C ... ... : G-3 00 . ... : ... .. . ... : ... .. . ... ... : ... .. 9 ... ... : ... .. 9 ... ... : ... .. D ... ...
ROW 12 : ... .. A ... ... ... : D#2 00 A P84 ... ... : C-3 00 . ... : ... .. . ... : ... .. . ... ... : ... .. 8 ... ... : ... .. 8 ... ... : ... .. 8 ... ...
ROW 13 : ... .. 8 ... ... ... : E-2 00 A P8C ... ... : B-2 00 . ... : B-# 00 D ... : ... .. . ... ... : ... .. 7 ... ... : ... .. 7 ... ... : ... .. . ... ...
ROW 14 : ... .. 1 ... ... ... : F#2 00 A P72 ... ... : F#2 00 . ... : ... .. . ... : ... .. . ... ... : ... .. . ... ... : ... .. . ... ... : ... .. . ... ...
ROW 15 : ... .. . ... ... ... : G-2 00 A P80 ... ... : ... .. . ... : ... .. . ... : ... .. . ... ... : ... .. 6 ... ... : ... .. 6 ... ... : ... .. . ... ...
ROW 16 : ... .. C ... ... ... : A-2 00 F ... ... ... : ... .. . ... : ... .. . ... : ... .. . ... ... : ... .. . ... ... : ... .. . ... ... : ... .. . ... ...
ROW 17 : ... .. B ... ... ... : ... .. E ... ... ... : ... .. . ... : ... .. . ... : ... .. . ... ... : ... .. 5 ... ... : ... .. 5 ... ... : ... .. . ... ...
ROW 18 : ... .. A ... ... ... : ... .. D ... ... ... : ... .. . ... : ... .. . ... : ... .. . ... ... : ... .. . ... ... : ... .. . ... ... : ... .. . ... ...
ROW 19 : ... .. 8 ... ... ... : ... .. A ... ... ... : F-2 00 . P84 : ... .. A ... : ... .. . ... ... : ... .. . ... ... : ... .. . ... ... : ... .. . P60 ...
ROW 1A : ... .. 1 ... ... ... : ... .. 2 ... ... ... : E-2 00 . P8A : ... .. . ... : ... .. . ... ... : ... .. . ... ... : ... .. . ... ... : F-1 01 8 P92 ...
ROW 1B : ... .. . ... ... ... : ... .. . ... ... ... : D#2 00 . P92 : ... .. . ... : ... .. . ... ... : ... .. . ... ... : ... .. . ... ... : ... .. . P72 ...
ROW 1C : C#2 00 C ... ... ... : A#2 00 F ... ... ... : ... .. . P72 : ... .. 9 ... : ... .. . ... ... : D#4 01 5 P7D ... : A#3 01 5 P86 ... : E-1 01 8 PA9 ...
ROW 1D : ... .. B ... ... ... : ... .. E ... ... ... : D-2 00 . P7D : ... .. . ... : ... .. . ... ... : C-4 01 5 P7F ... : G#3 01 5 P83 ... : ... .. . P89 ...
ROW 1E : ... .. A ... ... ... : ... .. D ... ... ... : C#2 00 . P8A : ... .. . ... : ... .. . ... ... : A-3 01 5 P87 ... : F#3 01 5 P84 ... : ... .. . P69 ...
ROW 1F : ... .. 8 ... ... ... : ... .. A ... ... ... : ... .. . P6A : ... .. 8 ... : ... .. . ... ... : G-3 01 5 P86 ... : E-3 01 5 P89 ... : D#1 01 8 PA6 ...
ROW 20 : ... .. . ... ... ... : ... .. 2 ... ... ... : C-2 00 . P7A : ... .. . ... : ... .. . ... ... : F-3 01 5 P89 ... : D#3 01 5 P7E ... : ... .. . P86 ...
ROW 21 : ... .. . ... ... ... : ... .. . ... ... ... : B-1 00 . P8D : ... .. . ... : ... .. . ... ... : E-3 01 5 P7C ... : C#3 01 5 P8A ... : ... .. . P66 ...
ROW 22 : C-2 00 C ... ... ... : A#4 00 F ... ... ... : F-5 00 . P80 : ... .. 7 ... : ... .. . ... ... : F#4 01 A P80 ... : C#4 01 A P80 ... : F#2 01 F P80 ...
ROW 23 : ... .. B ... ... ... : ... .. E ... ... ... : G-4 00 . ... : ... .. . ... : ... .. . ... ... : ... .. 9 ... ... : ... .. 9 ... ... : ... .. D ... ...
ROW 24 : ... .. A ... ... ... : ... .. D ... ... ... : C-4 00 . ... : ... .. . ... : ... .. . ... ... : ... .. 8 ... ... : ... .. 8 ... ... : ... .. 8 ... ...
ROW 25 : ... .. 8 ... ... ... : ... .. A ... ... ... : B-3 00 . ... : ... .. 6 ... : ... .. . ... ... : ... .. 7 ... ... : ... .. 7 ... ... : ... .. . ... ...
ROW 26 : ... .. 1 ... ... ... : ... .. . ... ... ... : F#3 00 . ... : ... .. . ... : ... .. . ... ... : ... .. . ... ... : ... .. . ... ... : ... .. . ... ...
ROW 27 : ... .. . ... ... ... : ... .. . ... ... ... : --- .. . ... : ... .. . ... : ... .. . ... ... : ... .. 6 ... ... : ... .. 6 ... ... : --- .. . P84 ...
ROW 28 : C#2 00 C ... ... ... : A-4 00 F ... ... ... : E-3 00 . ... : ... .. 5 ... : ... .. . ... ... : ... .. . ... ... : ... .. . ... ... : E-2 01 F P80 ...
ROW 29 : ... .. B ... ... ... : ... .. E ... ... ... : ... .. . ... : ... .. . ... : ... .. . ... ... : ... .. 5 ... ... : ... .. 5 ... ... : ... .. D ... ...
ROW 2A : ... .. A ... ... ... : ... .. D ... ... ... : ... .. . ... : ... .. . ... : ... .. . ... ... : ... .. . ... ... : ... .. . ... ... : ... .. 8 ... ...
ROW 2B : ... .. 8 ... ... ... : ... .. A ... ... ... : ... .. . ... : ... .. 4 ... : ... .. . ... ... : ... .. . ... ... : ... .. . ... ... : ... .. . ... ...
ROW 2C : ... .. . ... ... ... : ... .. 2 ... ... ... : ... .. . ... : ... .. . ... : ... .. . ... ... : ... .. . ... ... : ... .. . ... ... : ... .. . ... ...
ROW 2D : ... .. . ... ... ... : ... .. . ... ... ... : --- .. . ... : ... .. . ... : ... .. . ... ... : ... .. . ... ... : ... .. . ... ... : --- .. . P89 ...
ROW 2E : A-1 00 C ... ... ... : ... .. F ... ... ... : F#3 00 . ... : ... .. 3 ... : ... .. . ... ... : D#4 01 5 P7D ... : A#3 01 5 P86 ... : F#2 01 F P80 ...
ROW 2F : ... .. B ... ... ... : ... .. E ... ... ... : ... .. . ... : ... .. . ... : ... .. . ... ... : C-4 01 5 P7F ... : G#3 01 5 P83 ... : ... .. D ... ...
ROW 30 : ... .. A ... ... ... : ... .. D ... ... ... : ... .. . ... : ... .. . ... : ... .. . ... ... : A-3 01 5 P87 ... : F#3 01 5 P84 ... : ... .. 8 ... ...
ROW 31 : ... .. 8 ... ... ... : ... .. A ... ... ... : --- .. . ... : ... .. 2 ... : ... .. . ... ... : G-3 01 5 P86 ... : E-3 01 5 P89 ... : --- .. . P84 ...
ROW 32 : ... .. 1 ... ... ... : ... .. . ... ... ... : ... .. . ... : ... .. . ... : ... .. . ... ... : F-3 01 5 P89 ... : D#3 01 5 P7E ... : ... .. . ... ...
ROW 33 : ... .. . ... ... ... : ... .. . ... ... ... : ... .. . ... : ... .. . ... : ... .. . ... ... : E-3 01 5 P7C ... : C#3 01 5 P8A ... : ... .. . ... ...
ROW 34 : F-2 00 C ... ... ... : ... .. . ... ... ... : C#6 00 . ... : 7-# 00 F ... : ... .. . ... ... : F#4 01 A P80 ... : C#4 01 A P80 ... : D-3 01 F P80 ...
ROW 35 : ... .. B ... ... ... : ... .. . ... ... ... : D#5 00 . ... : ... .. C ... : ... .. . ... ... : ... .. 9 ... ... : ... .. 9 ... ... : ... .. D ... ...
ROW 36 : ... .. A ... ... ... : ... .. . ... ... ... : G#4 00 . ... : ... .. 6 ... : ... .. . ... ... : ... .. 8 ... ... : ... .. 8 ... ... : ... .. 8 ... ...
ROW 37 : ... .. 8 ... ... ... : ... .. . ... ... ... : G-4 00 . ... : ... .. 3 ... : ... .. . ... ... : ... .. 7 ... ... : ... .. 7 ... ... : ... .. . ... ...
ROW 38 : ... .. . ... ... ... : ... .. . ... ... ... : D-4 00 . ... : ... .. 2 ... : ... .. . ... ... : ... .. . ... ... : ... .. . ... ... : ... .. . ... ...
ROW 39 : ... .. . ... ... ... : ... .. . ... ... ... : ... .. . ... : ... .. 0 ... : ... .. . ... ... : ... .. 6 ... ... : ... .. 6 ... ... : ... .. . ... ...
ROW 3A : ... .. C ... ... ... : ... .. . ... ... ... : ... .. . ... : 1-# 00 8 ... : ... .. . ... ... : ... .. . ... ... : ... .. . ... ... : ... .. . ... ...
ROW 3B : ... .. B ... ... ... : ... .. . ... ... ... : ... .. . ... : ... .. 6 ... : ... .. . ... ... : ... .. 5 ... ... : ... .. 5 ... ... : ... .. . ... ...
ROW 3C : ... .. A ... ... ... : ... .. . ... ... ... : ... .. . ... : ... .. 3 ... : ... .. . ... ... : ... .. . ... ... : ... .. . ... ... : ... .. . ... ...
ROW 3D : ... .. 8 ... ... ... : ... .. . ... ... ... : ... .. . ... : ... .. 1 ... : ... .. . ... ... : ... .. . ... ... : ... .. . ... ... : ... .. . ... ...
ROW 3E : ... .. 1 ... ... ... : ... .. . ... ... ... : ... .. . ... : ... .. . ... : ... .. . ... ... : ... .. . ... ... : ... .. . ... ... : ... .. . ... ...
ROW 3F : ... .. . ... ... ... : ... .. . ... ... ... : ... .. . ... : ... .. 0 ... : ... .. . ... ... : ... .. . ... ... : ... .. . ... ... : ... .. . ... ...
ROW 40 : F#1 00 C ... ... ... : ... .. . ... ... ... : C#4 00 . ... : 7-# 00 F ... : ... .. . ... ... : D#4 01 5 P7D ... : A#3 01 5 P86 ... : C#3 01 F ... ...
ROW 41 : ... .. B ... ... ... : ... .. . ... ... ... : ... .. . ... : ... .. C ... : ... .. . ... ... : C-4 01 5 P7F ... : G#3 01 5 P83 ... : ... .. D ... ...
ROW 42 : ... .. A ... ... ... : ... .. . ... ... ... : ... .. . ... : ... .. 6 ... : ... .. . ... ... : A-3 01 5 P87 ... : F#3 01 5 P84 ... : ... .. 8 ... ...
ROW 43 : ... .. 8 ... ... ... : A#4 00 A P7D ... ... : ... .. . ... : ... .. 3 ... : ... .. . ... ... : G-3 01 5 P86 ... : E-3 01 5 P89 ... : ... .. . ... ...
ROW 44 : ... .. 1 ... ... ... : ... .. . P7F ... ... : ... .. . ... : ... .. 2 ... : ... .. . ... ... : F-3 01 5 P89 ... : D#3 01 5 P7E ... : ... .. . ... ...
ROW 45 : ... .. . ... ... ... : ... .. . P7E ... ... : ... .. . ... : ... .. 0 ... : ... .. . ... ... : E-3 01 5 P7C ... : C#3 01 5 P8A ... : ... .. . ... ...
ROW 46 : E-2 00 C ... ... ... : A-4 00 A P82 ... ... : ... .. . ... : 1-# 00 8 ... : ... .. . ... ... : F#4 01 A P80 ... : C#4 01 A P80 ... : ... .. . ... ...
ROW 47 : ... .. B ... ... ... : ... .. . P7E ... ... : ... .. . ... : ... .. 6 ... : ... .. . ... ... : ... .. 9 ... ... : ... .. 9 ... ... : ... .. . ... ...
ROW 48 : ... .. A ... ... ... : G#4 00 A P83 ... ... : ... .. . ... : ... .. 3 ... : ... .. . ... ... : ... .. 8 ... ... : ... .. 8 ... ... : ... .. . ... ...
ROW 49 : ... .. 8 ... ... ... : ... .. . P82 ... ... : ... .. . ... : ... .. 1 ... : ... .. . ... ... : ... .. 7 ... ... : ... .. 7 ... ... : ... .. . ... ...
ROW 4A : ... .. . ... ... ... : ... .. . P84 ... ... : ... .. . ... : ... .. . ... : ... .. . ... ... : ... .. . ... ... : ... .. . ... ... : ... .. . ... ...
ROW 4B : ... .. . ... ... ... : A-4 00 A P80 ... ... : --- .. . ... : ... .. 0 ... : ... .. . ... ... : ... .. 6 ... ... : ... .. 6 ... ... : --- .. . ... ...
ROW 4C : ... .. C ... ... ... : ... .. . P83 ... ... : F#3 00 . ... : 7-# 00 F ... : ... .. . ... ... : ... .. . ... ... : ... .. . ... ... : F#2 01 F ... ...
ROW 4D : ... .. B ... ... ... : A#4 00 A P7F ... ... : ... .. . ... : ... .. C ... : ... .. . ... ... : ... .. 5 ... ... : ... .. 5 ... ... : ... .. D ... ...
ROW 4E : ... .. A ... ... ... : ... .. . ... ... ... : ... .. . ... : ... .. 6 ... : ... .. . ... ... : ... .. . ... ... : ... .. . ... ... : ... .. 8 ... ...
ROW 4F : ... .. 8 ... ... ... : A-4 00 A P82 ... ... : ... .. . ... : ... .. 3 ... : ... .. . ... ... : ... .. . ... ... : ... .. . ... ... : ... .. . ... ...
ROW 50 : ... .. 1 ... ... ... : ... .. . P7F ... ... : ... .. . ... : ... .. 2 ... : ... .. . ... ... : ... .. . ... ... : ... .. . ... ... : ... .. . ... ...
ROW 51 : ... .. . ... ... ... : G#4 00 A P83 ... ... : ... .. . ... : ... .. 0 ... : ... .. . ... ... : ... .. . ... ... : ... .. . ... ... : ... .. . ... ...
ROW 52 : F#1 00 C ... ... ... : ... .. . P82 ... ... : ... .. . ... : 1-# 00 8 ... : ... .. . ... ... : D#4 01 5 P7D ... : A#3 01 5 P86 ... : ... .. . ... ...
ROW 53 : ... .. B ... ... ... : ... .. 2 P84 ... ... : ... .. . ... : ... .. 6 ... : ... .. . ... ... : C-4 01 5 P7F ... : G#3 01 5 P83 ... : ... .. . ... ...
ROW 54 : ... .. A ... ... ... : A-4 00 2 P80 ... ... : ... .. . ... : ... .. 3 ... : ... .. . ... ... : A-3 01 5 P87 ... : F#3 01 5 P84 ... : ... .. . ... ...
ROW 55 : ... .. 8 ... ... ... : ... .. . P83 ... ... : ... .. . ... : ... .. 1 ... : ... .. . ... ... : G-3 01 5 P86 ... : E-3 01 5 P89 ... : ... .. . ... ...
ROW 56 : ... .. 1 ... ... ... : A#4 00 1 P7F ... ... : ... .. . ... : ... .. . ... : ... .. . ... ... : F-3 01 5 P89 ... : D#3 01 5 P7E ... : ... .. . ... ...
ROW 57 : ... .. . ... ... ... : ... .. . ... ... ... : --- .. . ... : ... .. 0 ... : ... .. . ... ... : E-3 01 5 P7C ... : C#3 01 5 P8A ... : --- .. . P84 ...
ROW 58 : D#2 00 C ... ... ... : A-4 00 1 P83 ... ... : F-3 00 . ... : ... .. F ... : ... .. . ... ... : F-4 01 A P80 ... : C-4 01 A P80 ... : F#0 01 F P80 ...
ROW 59 : ... .. B ... ... ... : ... .. 0 ... ... ... : G-2 00 . ... : ... .. C ... : ... .. . ... ... : ... .. 9 ... ... : ... .. 9 ... ... : ... .. D ... ...
ROW 5A : ... .. A ... ... ... : ... .. . ... ... ... : C-2 00 . ... : ... .. 6 ... : ... .. . ... ... : ... .. 8 ... ... : ... .. 8 ... ... : ... .. 8 ... ...
ROW 5B : ... .. 8 ... ... ... : ... .. . ... ... ... : B-1 00 . ... : ... .. 3 ... : ... .. . ... ... : ... .. 7 ... ... : ... .. 7 ... ... : ... .. . ... ...
ROW 5C : ... .. . ... ... ... : ... .. . ... ... ... : F#1 00 . ... : ... .. 2 ... : ... .. . ... ... : ... .. . ... ... : ... .. . ... ... : ... .. . ... ...
ROW 5D : ... .. . ... ... ... : ... .. . ... ... ... : ... .. . ... : ... .. 0 ... : ... .. . ... ... : ... .. 6 ... ... : ... .. 6 ... ... : ... .. . ... ...
ROW 5E : ... .. C ... ... ... : A-2 00 F P80 ... ... : ... .. . ... : C-# 00 8 ... : ... .. . ... ... : ... .. . ... ... : ... .. . ... ... : ... .. . ... ...
ROW 5F : ... .. B ... ... ... : ... .. E ... ... ... : ... .. . ... : ... .. 6 ... : ... .. . ... ... : ... .. 5 ... ... : ... .. 5 ... ... : ... .. . ... ...
ROW 60 : ... .. A ... ... ... : ... .. D ... ... ... : ... .. . ... : ... .. 3 ... : ... .. . ... ... : ... .. . ... ... : ... .. . ... ... : ... .. . ... ...
ROW 61 : ... .. 8 ... ... ... : ... .. A ... ... ... : ... .. . P60 : ... .. 1 ... : ... .. . ... ... : ... .. . ... ... : ... .. . ... ... : ... .. . P60 ...
ROW 62 : ... .. 1 ... ... ... : ... .. 2 ... ... ... : F-1 00 . P88 : ... .. . ... : ... .. . ... ... : ... .. . ... ... : ... .. . ... ... : ... .. . P40 ...
ROW 63 : ... .. . ... ... ... : ... .. . ... ... ... : ... .. . P68 : ... .. 0 ... : ... .. . ... ... : ... .. . ... ... : ... .. . ... ... : F-0 01 8 PC5 ...
ROW 64 : A-1 00 C ... ... ... : A#2 00 F ... ... ... : E-1 00 . P94 : ... .. 8 ... : ... .. . ... ... : D-4 01 5 P7E ... : A#3 01 5 P7A ... : ... .. . PA5 ...
ROW 65 : ... .. B ... ... ... : ... .. E ... ... ... : ... .. . P74 : ... .. 6 ... : ... .. . ... ... : B-3 01 5 P82 ... : G-3 01 5 P87 ... : ... .. . P85 ...
ROW 66 : ... .. A ... ... ... : ... .. D ... ... ... : D#1 00 . PA5 : ... .. 3 ... : ... .. . ... ... : A-3 01 5 P7E ... : F#3 01 5 P78 ... : ... .. . P65 ...
ROW 67 : ... .. 8 ... ... ... : ... .. A ... ... ... : ... .. . P85 : ... .. 1 ... : ... .. . ... ... : G-3 01 5 P7D ... : E-3 01 5 P7D ... : ... .. . P45 ...
ROW 68 : ... .. 1 ... ... ... : ... .. 2 ... ... ... : ... .. . P65 : ... .. . ... : ... .. . ... ... : F-3 01 5 P80 ... : D-3 01 5 P87 ... : E-0 01 8 PD3 ...
ROW 69 : ... .. . ... ... ... : ... .. . ... ... ... : D-1 00 . P9B : ... .. 0 ... : ... .. . ... ... : D#3 01 5 P88 ... : C#3 01 5 P7E ... : ... .. . PB3 ...
ROW 6A : ... .. C ... ... ... : A#3 00 F ... ... ... : F#2 00 . P80 : 1-# 00 F ... : ... .. . ... ... : F-4 01 A P80 ... : C-4 01 A P80 ... : F#1 01 F P80 ...
ROW 6B : ... .. B ... ... ... : ... .. E ... ... ... : ... .. . ... : ... .. C ... : ... .. . ... ... : ... .. 9 ... ... : ... .. 9 ... ... : ... .. D ... ...
ROW 6C : ... .. A ... ... ... : ... .. D ... ... ... : ... .. . ... : ... .. 6 ... : ... .. . ... ... : ... .. 8 ... ... : ... .. 8 ... ... : ... .. 8 ... ...
ROW 6D : ... .. 8 ... ... ... : ... .. A ... ... ... : ... .. . ... : ... .. 3 ... : ... .. . ... ... : ... .. 7 ... ... : ... .. 7 ... ... : ... .. . ... ...
ROW 6E : ... .. 1 ... ... ... : ... .. . ... ... ... : ... .. . ... : ... .. 2 ... : ... .. . ... ... : ... .. . ... ... : ... .. . ... ... : ... .. . ... ...
ROW 6F : ... .. . ... ... ... : ... .. . ... ... ... : ... .. . ... : ... .. 0 ... : ... .. . ... ... : ... .. 6 ... ... : ... .. 6 ... ... : ... .. . ... ...
ROW 70 : C-2 00 C ... ... ... : A-3 00 F ... ... ... : E-2 00 . ... : C-# 00 8 ... : ... .. . ... ... : ... .. . ... ... : ... .. . ... ... : E-1 01 F ... ...
ROW 71 : ... .. B ... ... ... : ... .. E ... ... ... : ... .. . ... : ... .. 6 ... : ... .. . ... ... : ... .. 5 ... ... : ... .. 5 ... ... : ... .. D ... ...
ROW 72 : ... .. A ... ... ... : ... .. D ... ... ... : ... .. . ... : ... .. 3 ... : ... .. . ... ... : ... .. . ... ... : ... .. . ... ... : ... .. 8 ... ...
ROW 73 : ... .. 8 ... ... ... : ... .. A ... ... ... : ... .. . ... : ... .. 1 ... : ... .. . ... ... : ... .. . ... ... : ... .. . ... ... : ... .. . ... ...
ROW 74 : ... .. 1 ... ... ... : ... .. 2 ... ... ... : ... .. . ... : ... .. . ... : ... .. . ... ... : ... .. . ... ... : ... .. . ... ... : ... .. . ... ...
ROW 75 : ... .. . ... ... ... : ... .. . ... ... ... : --- .. . ... : ... .. 0 ... : ... .. . ... ... : ... .. . ... ... : ... .. . ... ... : --- .. . P82 ...
ROW 76 : ... .. C ... ... ... : ... .. F ... ... ... : F#2 00 . ... : ... .. 8 ... : ... .. . ... ... : D-4 01 5 P7E ... : A#3 01 5 P7A ... : F#1 01 F P80 ...
ROW 77 : ... .. B ... ... ... : ... .. E ... ... ... : ... .. . ... : ... .. 6 ... : ... .. . ... ... : B-3 01 5 P82 ... : G-3 01 5 P87 ... : ... .. D ... ...
ROW 78 : ... .. A ... ... ... : ... .. D ... ... ... : ... .. . ... : ... .. 3 ... : ... .. . ... ... : A-3 01 5 P7E ... : F#3 01 5 P78 ... : ... .. 8 ... ...
ROW 79 : ... .. 8 ... ... ... : ... .. A ... ... ... : ... .. . ... : ... .. 1 ... : ... .. . ... ... : G-3 01 5 P7D ... : E-3 01 5 P7D ... : ... .. . ... ...
ROW 7A : ... .. 1 ... ... ... : ... .. . ... ... ... : ... .. . ... : ... .. . ... : ... .. . ... ... : F-3 01 5 P80 ... : D-3 01 5 P87 ... : ... .. . ... ...
ROW 7B : ... .. . ... ... ... : ... .. . ... ... ... : ... .. . ... : ... .. 0 ... : ... .. . ... ... : D#3 01 5 P88 ... : C#3 01 5 P7E ... : ... .. . ... ...
ROW 7C : B-1 00 C ... ... ... : ... .. . ... ... ... : F-5 00 . ... : 7-# 00 F ... : ... .. . ... ... : F-4 01 A P80 ... : C-4 01 A P80 ... : F#2 01 F ... ...
ROW 7D : ... .. B ... ... ... : ... .. . ... ... ... : G-4 00 . ... : ... .. C ... : ... .. . ... ... : ... .. 9 ... ... : ... .. 9 ... ... : ... .. D ... ...
ROW 7E : ... .. A ... ... ... : ... .. . ... ... ... : C-4 00 . ... : ... .. 6 ... : ... .. . ... ... : ... .. 8 ... ... : ... .. 8 ... ... : ... .. 8 ... ...
ROW 7F : ... .. 8 ... ... ... : ... .. . ... ... ... : B-3 00 . ... : ... .. 3 ... : ... .. . ... ... : ... .. 7 ... ... : ... .. 7 ... ... : ... .. . ... ...
ROW 80 : ... .. . ... ... ... : ... .. . ... ... ... : F#3 00 . ... : ... .. 2 ... : ... .. . ... ... : ... .. . ... ... : ... .. . ... ... : ... .. . ... ...
ROW 81 : ... .. . ... ... ... : ... .. . ... ... ... : --- .. . ... : ... .. 0 ... : ... .. . ... ... : ... .. 6 ... ... : ... .. 6 ... ... : --- .. . P84 ...
ROW 82 : ... .. C ... ... ... : ... .. . ... ... ... : E-3 00 . ... : ... .. 8 ... : ... .. . ... ... : ... .. . ... ... : ... .. . ... ... : E-2 01 F P80 ...
ROW 83 : ... .. B ... ... ... : ... .. . ... ... ... : ... .. . ... : ... .. 6 ... : ... .. . ... ... : ... .. 5 ... ... : ... .. 5 ... ... : ... .. D ... ...
ROW 84 : ... .. A ... ... ... : ... .. . ... ... ... : ... .. . ... : ... .. 3 ... : ... .. . ... ... : ... .. . ... ... : ... .. . ... ... : ... .. 8 ... ...
ROW 85 : ... .. 8 ... ... ... : ... .. . ... ... ... : ... .. . ... : ... .. 1 ... : ... .. . ... ... : ... .. . ... ... : ... .. . ... ... : ... .. . ... ...
ROW 86 : ... .. 1 ... ... ... : ... .. . ... ... ... : ... .. . ... : ... .. . ... : ... .. . ... ... : ... .. . ... ... : ... .. . ... ... : ... .. . ... ...
ROW 87 : ... .. . ... ... ... : ... .. . ... ... ... : --- .. . ... : ... .. 0 ... : ... .. . ... ... : ... .. . ... ... : ... .. . ... ... : --- .. . P89 ...
ROW 88 : F#1 00 C ... ... ... : ... .. . ... ... ... : A-3 00 . ... : 4-# 00 F ... : ... .. . ... ... : ... .. A ... ... : ... .. A ... ... : A-2 01 F P80 ...
ROW 89 : ... .. B ... ... ... : ... .. . ... ... ... : ... .. . ... : ... .. C ... : ... .. . ... ... : ... .. 9 ... ... : ... .. 9 ... ... : ... .. D ... ...
ROW 8A : ... .. A ... ... ... : ... .. . ... ... ... : ... .. . ... : ... .. 6 ... : ... .. . ... ... : ... .. 8 ... ... : ... .. 8 ... ... : ... .. 8 ... ...
ROW 8B : ... .. 8 ... ... ... : ... .. . P84 ... ... : ... .. . ... : ... .. 3 ... : ... .. . ... ... : ... .. 7 ... ... : ... .. 7 ... ... : ... .. . ... ...
ROW 8C : ... .. 1 ... ... ... : ... .. . P86 ... ... : ... .. . ... : ... .. 2 ... : ... .. . ... ... : ... .. . ... ... : ... .. . ... ... : ... .. . ... ...
ROW 8D : ... .. . ... ... ... : ... .. . P85 ... ... : ... .. . ... : ... .. 0 ... : ... .. . ... ... : ... .. 6 ... ... : ... .. 6 ... ... : ... .. . ... ...
ROW 8E : ... .. C ... ... ... : ... .. . P82 ... ... : G-3 00 . ... : 9-# 00 8 ... : ... .. . ... ... : ... .. . ... ... : ... .. . ... ... : G-2 01 F ... ...
ROW 8F : ... .. B ... ... ... : ... .. . P7E ... ... : ... .. . ... : ... .. 6 ... : ... .. . ... ... : ... .. 5 ... ... : ... .. 5 ... ... : ... .. D ... ...
ROW 90 : ... .. A ... ... ... : ... .. . P7B ... ... : ... .. . ... : ... .. 3 ... : ... .. . ... ... : ... .. . ... ... : ... .. . ... ... : ... .. 8 ... ...
ROW 91 : ... .. 8 ... ... ... : ... .. . P7A ... ... : ... .. . ... : ... .. 1 ... : ... .. . ... ... : ... .. . ... ... : ... .. . ... ... : ... .. . ... ...
ROW 92 : ... .. . ... ... ... : ... .. . P7C ... ... : ... .. . ... : ... .. . ... : ... .. . ... ... : ... .. . ... ... : ... .. . ... ... : ... .. . ... ...
ROW 93 : ... .. . ... ... ... : ... .. . P80 ... ... : --- .. . ... : ... .. 0 ... : ... .. . ... ... : ... .. . ... ... : ... .. . ... ... : --- .. . P7D ...
ROW 94 : E-1 00 C ... ... ... : ... .. . P83 ... ... : F#3 00 . ... : 7-# 00 F ... : ... .. . ... ... : ... .. A ... ... : ... .. A ... ... : F#2 01 F P80 ...
ROW 95 : ... .. B ... ... ... : ... .. . P86 ... ... : ... .. . ... : ... .. C ... : ... .. . ... ... : ... .. 9 ... ... : ... .. 9 ... ... : ... .. D ... ...
ROW 96 : ... .. A ... ... ... : ... .. . ... ... ... : ... .. . ... : ... .. 6 ... : ... .. . ... ... : ... .. 8 ... ... : ... .. 8 ... ... : ... .. 8 ... ...
ROW 97 : ... .. 8 ... ... ... : ... .. . P82 ... ... : ... .. . ... : ... .. 3 ... : ... .. . ... ... : ... .. 7 ... ... : ... .. 7 ... ... : ... .. . ... ...
ROW 98 : ... .. 1 ... ... ... : ... .. . P7F ... ... : ... .. . ... : ... .. 2 ... : ... .. . ... ... : ... .. . ... ... : ... .. . ... ... : ... .. . ... ...
ROW 99 : ... .. . ... ... ... : ... .. . P7B ... ... : --- .. . ... : ... .. 0 ... : ... .. . ... ... : ... .. 6 ... ... : ... .. 6 ... ... : --- .. . P84 ...
ROW 9A : ... .. C ... ... ... : ... .. . P7A ... ... : F#2 00 . ... : 5-# 00 8 ... : ... .. . ... ... : ... .. . ... ... : ... .. . ... ... : F#1 01 F P80 ...
ROW 9B : ... .. B ... ... ... : ... .. . P7C ... ... : ... .. . ... : ... .. 6 ... : ... .. . ... ... : ... .. 5 ... ... : ... .. 5 ... ... : ... .. D ... ...
ROW 9C : ... .. A ... ... ... : ... .. . P80 ... ... : ... .. . ... : ... .. 3 ... : ... .. . ... ... : ... .. . ... ... : ... .. . ... ... : ... .. 8 ... ...
ROW 9D : ... .. 8 ... ... ... : ... .. . P83 ... ... : ... .. . ... : ... .. 1 ... : ... .. . ... ... : ... .. . ... ... : ... .. . ... ... : ... .. . ... ...
ROW 9E : ... .. 1 ... ... ... : ... .. 2 P86 ... ... : ... .. . ... : ... .. . ... : ... .. . ... ... : ... .. . ... ... : ... .. . ... ... : ... .. . ... ...
ROW 9F : ... .. . ... ... ... : ... .. . ... ... ... : --- .. . ... : ... .. 0 ... : ... .. . ... ... : ... .. . ... ... : ... .. . ... ... : --- .. . P81 ...
ROW A0 : F#1 00 C ... ... ... : ... .. . P83 ... ... : F-4 00 . ... : 1-# 00 F ... : ... .. . ... ... : E-4 01 A ... ... : B-3 01 A ... ... : F#1 01 F P80 ...
ROW A1 : ... .. B ... ... ... : ... .. 1 P80 ... ... : G-3 00 . ... : ... .. C ... : ... .. . ... ... : ... .. 9 ... ... : ... .. 9 ... ... : ... .. D ... ...
ROW A2 : ... .. A ... ... ... : ... .. . P7C ... ... : C-3 00 . ... : ... .. 6 ... : ... .. . ... ... : ... .. 8 ... ... : ... .. 8 ... ... : ... .. 8 ... ...
ROW A3 : ... .. 8 ... ... ... : ... .. . P7A ... ... : B-2 00 . ... : ... .. 3 ... : ... .. . ... ... : ... .. 7 ... ... : ... .. 7 ... ... : ... .. . ... ...
ROW A4 : ... .. . ... ... ... : ... .. 0 ... ... ... : F#2 00 . ... : ... .. 2 ... : ... .. . ... ... : ... .. . ... ... : ... .. . ... ... : ... .. . ... ...
ROW A5 : ... .. . ... ... ... : ... .. . ... ... ... : ... .. . ... : ... .. 0 ... : ... .. . ... ... : ... .. 6 ... ... : ... .. 6 ... ... : ... .. . ... ...
ROW A6 : ... .. C ... ... ... : A-2 00 F P80 ... ... : ... .. . ... : C-# 00 8 ... : ... .. . ... ... : ... .. . ... ... : ... .. . ... ... : ... .. . ... ...
ROW A7 : ... .. B ... ... ... : ... .. E ... ... ... : ... .. . ... : ... .. 6 ... : ... .. . ... ... : ... .. 5 ... ... : ... .. 5 ... ... : ... .. . ... ...
ROW A8 : ... .. A ... ... ... : ... .. D ... ... ... : ... .. . ... : ... .. 3 ... : ... .. . ... ... : ... .. . ... ... : ... .. . ... ... : ... .. . ... ...
ROW A9 : ... .. 8 ... ... ... : ... .. A ... ... ... : F-2 00 . P84 : ... .. 1 ... : ... .. . ... ... : ... .. . ... ... : ... .. . ... ... : ... .. . P60 ...
ROW AA : ... .. 1 ... ... ... : ... .. 2 ... ... ... : E-2 00 . P8A : ... .. . ... : ... .. . ... ... : ... .. . ... ... : ... .. . ... ... : F-1 01 8 P92 ...
ROW AB : ... .. . ... ... ... : ... .. . ... ... ... : D#2 00 . P92 : ... .. 0 ... : ... .. . ... ... : ... .. . ... ... : ... .. . ... ... : ... .. . P72 ...
ROW AC : C#2 00 C ... ... ... : A#2 00 F ... ... ... : ... .. . P72 : ... .. 8 ... : ... .. . ... ... : C#4 01 5 ... ... : A-3 01 5 P7C ... : E-1 01 8 PA9 ...
ROW AD : ... .. B ... ... ... : ... .. E ... ... ... : D-2 00 . P7D : ... .. 6 ... : ... .. . ... ... : A#3 01 5 P86 ... : G-3 01 5 P7B ... : ... .. . P89 ...
ROW AE : ... .. A ... ... ... : ... .. D ... ... ... : C#2 00 . P8A : ... .. 3 ... : ... .. . ... ... : G#3 01 5 P83 ... : F-3 01 5 P7E ... : ... .. . P69 ...
ROW AF : ... .. 8 ... ... ... : ... .. A ... ... ... : ... .. . P6A : ... .. 1 ... : ... .. . ... ... : F#3 01 5 P84 ... : D#3 01 5 P86 ... : D#1 01 8 PA6 ...
ROW B0 : ... .. 1 ... ... ... : ... .. 2 ... ... ... : C-2 00 . P7A : ... .. . ... : ... .. . ... ... : E-3 01 5 P89 ... : D-3 01 5 P7B ... : ... .. . P86 ...
ROW B1 : ... .. . ... ... ... : ... .. . ... ... ... : B-1 00 . P8D : ... .. 0 ... : ... .. . ... ... : D#3 01 5 P7E ... : C-3 01 5 P8A ... : ... .. . P66 ...
ROW B2 : C-2 00 C ... ... ... : A#4 00 F ... ... ... : F-5 00 . P80 : 1-# 00 F ... : ... .. . ... ... : E-4 01 A P80 ... : B-3 01 A P80 ... : F#2 01 F P80 ...
ROW B3 : ... .. B ... ... ... : ... .. E ... ... ... : G-4 00 . ... : ... .. C ... : ... .. . ... ... : ... .. 9 ... ... : ... .. 9 ... ... : ... .. D ... ...
ROW B4 : ... .. A ... ... ... : ... .. D ... ... ... : C-4 00 . ... : ... .. 6 ... : ... .. . ... ... : ... .. 8 ... ... : ... .. 8 ... ... : ... .. 8 ... ...
ROW B5 : ... .. 8 ... ... ... : ... .. A ... ... ... : B-3 00 . ... : ... .. 3 ... : ... .. . ... ... : ... .. 7 ... ... : ... .. 7 ... ... : ... .. . ... ...
ROW B6 : ... .. . ... ... ... : ... .. . ... ... ... : F#3 00 . ... : ... .. 2 ... : ... .. . ... ... : ... .. . ... ... : ... .. . ... ... : ... .. . ... ...
ROW B7 : ... .. . ... ... ... : ... .. . ... ... ... : --- .. . ... : ... .. 0 ... : ... .. . ... ... : ... .. 6 ... ... : ... .. 6 ... ... : --- .. . P84 ...
ROW B8 : C#2 00 C ... ... ... : A-4 00 F ... ... ... : E-3 00 . ... : C-# 00 8 ... : ... .. . ... ... : ... .. . ... ... : ... .. . ... ... : E-2 01 F P80 ...
ROW B9 : ... .. B ... ... ... : ... .. E ... ... ... : ... .. . ... : ... .. 6 ... : ... .. . ... ... : ... .. 5 ... ... : ... .. 5 ... ... : ... .. D ... ...
ROW BA : ... .. A ... ... ... : ... .. D ... ... ... : ... .. . ... : ... .. 3 ... : ... .. . ... ... : ... .. . ... ... : ... .. . ... ... : ... .. 8 ... ...
ROW BB : ... .. 8 ... ... ... : ... .. A ... ... ... : ... .. . ... : ... .. 1 ... : ... .. . ... ... : ... .. . ... ... : ... .. . ... ... : ... .. . ... ...
ROW BC : ... .. 1 ... ... ... : ... .. 2 ... ... ... : ... .. . ... : ... .. . ... : ... .. . ... ... : ... .. . ... ... : ... .. . ... ... : ... .. . ... ...
ROW BD : ... .. . ... ... ... : ... .. . ... ... ... : --- .. . ... : ... .. 0 ... : ... .. . ... ... : ... .. . ... ... : ... .. . ... ... : --- .. . P89 ...
ROW BE : A-1 00 C ... ... ... : ... .. F ... ... ... : F#3 00 . ... : ... .. 8 ... : ... .. . ... ... : C#4 01 5 ... ... : A-3 01 5 P7C ... : F#2 01 F P80 ...
ROW BF : ... .. B ... ... ... : ... .. E ... ... ... : ... .. . ... : ... .. 6 ... : ... .. . ... ... : A#3 01 5 P86 ... : G-3 01 5 P7B ... : ... .. D ... ...
ROW C0 : ... .. A ... ... ... : ... .. D ... ... ... : ... .. . ... : ... .. 3 ... : ... .. . ... ... : G#3 01 5 P83 ... : F-3 01 5 P7E ... : ... .. 8 ... ...
ROW C1 : ... .. 8 ... ... ... : ... .. A ... ... ... : --- .. . ... : ... .. 1 ... : ... .. . ... ... : F#3 01 5 P84 ... : D#3 01 5 P86 ... : --- .. . P84 ...
ROW C2 : ... .. . ... ... ... : ... .. . ... ... ... : ... .. . ... : ... .. . ... : ... .. . ... ... : E-3 01 5 P89 ... : D-3 01 5 P7B ... : ... .. . ... ...
ROW C3 : ... .. . ... ... ... : ... .. . ... ... ... : ... .. . ... : ... .. 0 ... : ... .. . ... ... : D#3 01 5 P7E ... : C-3 01 5 P8A ... : ... .. . ... ...
ROW C4 : A-2 00 C ... ... ... : ... .. . ... ... ... : C-6 00 . ... : 7-# 00 F ... : ... .. . ... ... : E-4 01 A P80 ... : B-3 01 A P80 ... : C#3 01 F P80 ...
ROW C5 : ... .. B ... ... ... : ... .. . ... ... ... : D-5 00 . ... : ... .. C ... : ... .. . ... ... : ... .. 9 ... ... : ... .. 9 ... ... : ... .. D ... ...
ROW C6 : ... .. A ... ... ... : ... .. . ... ... ... : G-4 00 . ... : ... .. 6 ... : ... .. . ... ... : ... .. 8 ... ... : ... .. 8 ... ... : ... .. 8 ... ...
ROW C7 : ... .. 8 ... ... ... : ... .. . ... ... ... : F#4 00 . ... : ... .. 3 ... : ... .. . ... ... : ... .. 7 ... ... : ... .. 7 ... ... : ... .. . ... ...
ROW C8 : ... .. 1 ... ... ... : ... .. . ... ... ... : C#4 00 . ... : ... .. 2 ... : ... .. . ... ... : ... .. . ... ... : ... .. . ... ... : ... .. . ... ...
ROW C9 : ... .. . ... ... ... : ... .. . ... ... ... : ... .. . ... : ... .. 0 ... : ... .. . ... ... : ... .. 6 ... ... : ... .. 6 ... ... : ... .. . ... ...
ROW CA : ... .. C ... ... ... : ... .. . ... ... ... : ... .. . ... : 1-# 00 8 ... : ... .. . ... ... : ... .. . ... ... : ... .. . ... ... : ... .. . ... ...
ROW CB : ... .. B ... ... ... : ... .. . ... ... ... : ... .. . ... : ... .. 6 ... : ... .. . ... ... : ... .. 5 ... ... : ... .. 5 ... ... : ... .. . ... ...
ROW CC : ... .. A ... ... ... : ... .. . ... ... ... : ... .. . ... : ... .. 3 ... : ... .. . ... ... : ... .. . ... ... : ... .. . ... ... : ... .. . ... ...
ROW CD : ... .. 8 ... ... ... : ... .. . ... ... ... : ... .. . ... : ... .. 1 ... : ... .. . ... ... : ... .. . ... ... : ... .. . ... ... : ... .. . ... ...
ROW CE : ... .. 1 ... ... ... : ... .. . ... ... ... : ... .. . ... : ... .. . ... : ... .. . ... ... : ... .. . ... ... : ... .. . ... ... : ... .. . ... ...
ROW CF : ... .. . ... ... ... : ... .. . ... ... ... : ... .. . ... : ... .. 0 ... : ... .. . ... ... : ... .. . ... ... : ... .. . ... ... : ... .. . ... ...
ROW D0 : C-2 00 C ... ... ... : ... .. . ... ... ... : C-4 00 . ... : 7-# 00 F ... : ... .. . ... ... : C#4 01 5 ... ... : A-3 01 5 P7C ... : C-3 01 F ... ...
ROW D1 : ... .. B ... ... ... : ... .. . ... ... ... : ... .. . ... : ... .. C ... : ... .. . ... ... : A#3 01 5 P86 ... : G-3 01 5 P7B ... : ... .. D ... ...
ROW D2 : ... .. A ... ... ... : ... .. . ... ... ... : ... .. . ... : ... .. 6 ... : ... .. . ... ... : G#3 01 5 P83 ... : F-3 01 5 P7E ... : ... .. 8 ... ...
ROW D3 : ... .. 8 ... ... ... : A#4 00 A P7D ... ... : ... .. . ... : ... .. 3 ... : ... .. . ... ... : F#3 01 5 P84 ... : D#3 01 5 P86 ... : ... .. . ... ...
ROW D4 : ... .. . ... ... ... : ... .. . P7F ... ... : ... .. . ... : ... .. 2 ... : ... .. . ... ... : E-3 01 5 P89 ... : D-3 01 5 P7B ... : ... .. . ... ...
ROW D5 : ... .. . ... ... ... : ... .. . P7E ... ... : ... .. . ... : ... .. 0 ... : ... .. . ... ... : D#3 01 5 P7E ... : C-3 01 5 P8A ... : ... .. . ... ...
ROW D6 : C-3 00 C ... ... ... : A-4 00 A P82 ... ... : ... .. . ... : 1-# 00 8 ... : ... .. . ... ... : E-4 01 A P80 ... : B-3 01 A P80 ... : ... .. . ... ...
ROW D7 : ... .. B ... ... ... : ... .. . P7E ... ... : ... .. . ... : ... .. 6 ... : ... .. . ... ... : ... .. 9 ... ... : ... .. 9 ... ... : ... .. . ... ...
ROW D8 : ... .. A ... ... ... : G#4 00 A P83 ... ... : ... .. . ... : ... .. 3 ... : ... .. . ... ... : ... .. 8 ... ... : ... .. 8 ... ... : ... .. . ... ...
ROW D9 : ... .. 8 ... ... ... : ... .. . P82 ... ... : ... .. . ... : ... .. 1 ... : ... .. . ... ... : ... .. 7 ... ... : ... .. 7 ... ... : ... .. . ... ...
ROW DA : ... .. 1 ... ... ... : ... .. . P84 ... ... : ... .. . ... : ... .. . ... : ... .. . ... ... : ... .. . ... ... : ... .. . ... ... : ... .. . ... ...
ROW DB : ... .. . ... ... ... : A-4 00 A P80 ... ... : --- .. . ... : ... .. 0 ... : ... .. . ... ... : ... .. 6 ... ... : ... .. 6 ... ... : --- .. . P7E ...
ROW DC : ... .. C ... ... ... : ... .. . P83 ... ... : F#3 00 . ... : 7-# 00 F ... : ... .. . ... ... : ... .. . ... ... : ... .. . ... ... : F#2 01 F P80 ...
ROW DD : ... .. B ... ... ... : A#4 00 A P7F ... ... : ... .. . ... : ... .. C ... : ... .. . ... ... : ... .. 5 ... ... : ... .. 5 ... ... : ... .. D ... ...
ROW DE : ... .. A ... ... ... : ... .. . ... ... ... : ... .. . ... : ... .. 6 ... : ... .. . ... ... : ... .. . ... ... : ... .. . ... ... : ... .. 8 ... ...
ROW DF : ... .. 8 ... ... ... : A-4 00 A P82 ... ... : ... .. . ... : ... .. 3 ... : ... .. . ... ... : ... .. . ... ... : ... .. . ... ... : ... .. . ... ...
ROW E0 : ... .. 1 ... ... ... : ... .. . P7F ... ... : ... .. . ... : ... .. 2 ... : ... .. . ... ... : ... .. . ... ... : ... .. . ... ... : ... .. . ... ...
ROW E1 : ... .. . ... ... ... : G#4 00 A P83 ... ... : ... .. . ... : ... .. 0 ... : ... .. . ... ... : ... .. . ... ... : ... .. . ... ... : ... .. . ... ...
ROW E2 : F#2 00 C ... ... ... : ... .. . P82 ... ... : ... .. . ... : 1-# 00 8 ... : ... .. . ... ... : C#4 01 5 ... ... : A-3 01 5 P7C ... : ... .. . ... ...
ROW E3 : ... .. B ... ... ... : ... .. . P84 ... ... : ... .. . ... : ... .. 6 ... : ... .. . ... ... : A#3 01 5 P86 ... : G-3 01 5 P7B ... : ... .. . ... ...
ROW E4 : ... .. A ... ... ... : A-4 00 A P80 ... ... : ... .. . ... : ... .. 3 ... : ... .. . ... ... : G#3 01 5 P83 ... : F-3 01 5 P7E ... : ... .. . ... ...
ROW E5 : ... .. 8 ... ... ... : ... .. . P83 ... ... : ... .. . ... : ... .. 1 ... : ... .. . ... ... : F#3 01 5 P84 ... : D#3 01 5 P86 ... : ... .. . ... ...
ROW E6 : ... .. . ... ... ... : A#4 00 A P7F ... ... : ... .. . ... : ... .. . ... : ... .. . ... ... : E-3 01 5 P89 ... : D-3 01 5 P7B ... : ... .. . ... ...
ROW E7 : ... .. . ... ... ... : ... .. . ... ... ... : --- .. . ... : ... .. 0 ... : ... .. . ... ... : D#3 01 5 P7E ... : C-3 01 5 P8A ... : --- .. . P84 ...
ROW E8 : F-3 00 C ... ... ... : A-4 00 A P83 ... ... : F-3 00 . ... : ... .. F ... : ... .. . ... ... : F-4 01 A P80 ... : A-3 01 A P80 ... : F#0 01 F P80 ...
ROW E9 : ... .. B ... ... ... : ... .. . P80 ... ... : G-2 00 . ... : ... .. C ... : ... .. . ... ... : ... .. 9 ... ... : ... .. 9 ... ... : ... .. D ... ...
ROW EA : ... .. A ... ... ... : G#4 00 A P84 ... ... : C-2 00 . ... : ... .. 6 ... : ... .. . ... ... : ... .. 8 ... ... : ... .. 8 ... ... : ... .. 8 ... ...
ROW EB : ... .. 8 ... ... ... : ... .. . P82 ... ... : B-1 00 . ... : ... .. 3 ... : ... .. . ... ... : ... .. 7 ... ... : ... .. 7 ... ... : ... .. . ... ...
ROW EC : ... .. 1 ... ... ... : ... .. . P83 ... ... : F#1 00 . ... : ... .. 2 ... : ... .. . ... ... : ... .. . ... ... : ... .. . ... ... : ... .. . ... ...
ROW ED : ... .. . ... ... ... : A-4 00 A P7F ... ... : ... .. . ... : ... .. 0 ... : ... .. . ... ... : ... .. 6 ... ... : ... .. 6 ... ... : ... .. . ... ...
ROW EE : F#1 00 C ... ... ... : ... .. . P82 ... ... : ... .. . ... : C-# 00 8 ... : ... .. . ... ... : A-3 01 A ... ... : C#3 01 A ... ... : ... .. . ... ...
ROW EF : ... .. B ... ... ... : A#4 00 A P7F ... ... : ... .. . ... : ... .. 6 ... : ... .. . ... ... : ... .. 9 ... ... : ... .. 9 ... ... : ... .. . ... ...
ROW F0 : ... .. A ... ... ... : ... .. . ... ... ... : ... .. . ... : ... .. 3 ... : ... .. . ... ... : ... .. 8 ... ... : ... .. 8 ... ... : ... .. . ... ...
ROW F1 : ... .. 8 ... ... ... : A-4 00 A P83 ... ... : ... .. . P60 : ... .. 1 ... : ... .. . ... ... : ... .. 7 ... ... : ... .. 7 ... ... : ... .. . P60 ...
ROW F2 : ... .. 1 ... ... ... : ... .. . P80 ... ... : F-1 00 . P88 : ... .. . ... : ... .. . ... ... : ... .. . ... ... : ... .. . ... ... : ... .. . P40 ...
ROW F3 : ... .. . ... ... ... : G#4 00 A P84 ... ... : ... .. . P68 : ... .. 0 ... : ... .. . ... ... : ... .. 6 ... ... : ... .. 6 ... ... : F-0 01 8 PC5 ...
ROW F4 : ... .. C ... ... ... : ... .. . P82 ... ... : E-1 00 . P94 : ... .. 8 ... : ... .. . ... ... : E-3 01 A ... ... : F#2 01 A ... ... : ... .. . PA5 ...
ROW F5 : ... .. B ... ... ... : ... .. . P83 ... ... : ... .. . P74 : ... .. 6 ... : ... .. . ... ... : ... .. 9 ... ... : ... .. 9 ... ... : ... .. . P85 ...
ROW F6 : ... .. A ... ... ... : A-4 00 A P7E ... ... : D#1 00 . PA5 : ... .. 3 ... : ... .. . ... ... : ... .. 8 ... ... : ... .. 8 ... ... : ... .. . P65 ...
ROW F7 : ... .. 8 ... ... ... : ... .. . P82 ... ... : ... .. . P85 : ... .. 1 ... : ... .. . ... ... : ... .. 7 ... ... : ... .. 7 ... ... : ... .. . P45 ...
ROW F8 : ... .. 1 ... ... ... : A#4 00 A P7E ... ... : ... .. . P65 : ... .. . ... : ... .. . ... ... : ... .. . ... ... : ... .. . ... ... : E-0 01 8 PD3 ...
ROW F9 : ... .. . ... ... ... : ... .. . P7F ... ... : D-1 00 . P9B : ... .. 0 ... : ... .. . ... ... : ... .. 6 ... ... : ... .. 6 ... ... : ... .. . PB3 ...
ROW FA : F-3 00 C ... ... ... : ... .. . P7D ... ... : F#2 00 . P80 : 1-# 00 F ... : ... .. . ... ... : F-4 01 A ... ... : A-3 01 A ... ... : F#1 01 F P80 ...
ROW FB : ... .. B ... ... ... : A-4 00 A P80 ... ... : ... .. . ... : ... .. C ... : ... .. . ... ... : ... .. 9 ... ... : ... .. 9 ... ... : ... .. D ... ...
ROW FC : ... .. A ... ... ... : ... .. . P7D ... ... : ... .. . ... : ... .. 6 ... : ... .. . ... ... : ... .. 8 ... ... : ... .. 8 ... ... : ... .. 8 ... ...
ROW FD : ... .. 8 ... ... ... : G#4 00 A P82 ... ... : ... .. . ... : ... .. 3 ... : ... .. . ... ... : ... .. 7 ... ... : ... .. 7 ... ... : ... .. . ... ...
ROW FE : ... .. 1 ... ... ... : ... .. . ... ... ... : ... .. . ... : ... .. 2 ... : ... .. . ... ... : ... .. . ... ... : ... .. . ... ... : ... .. . ... ...
ROW FF : ... .. . ... ... ... : A-4 00 A P7E ... ... : ... .. . ... : ... .. 0 ... : ... .. . ... ... : ... .. 6 ... ... : ... .. 6 ... ... : ... .. . ... ...

PATTERN 0F
ROW 00 : F#1 00 C ... ... ... : ... .. . P81 ... ... : E-2 00 . ... : C-# 00 8 ... : ... .. . ... ... : A-3 01 A ... ... : C#3 01 A ... ... : E-1 01 F ... ...
ROW 01 : ... .. B ... ... ... : A#4 00 A P7E ... ... : ... .. . ... : ... .. 6 ... : ... .. . ... ... : ... .. 9 ... ... : ... .. 9 ... ... : ... .. D ... ...
ROW 02 : ... .. A ... ... ... : ... .. . P7F ... ... : ... .. . ... : ... .. 3 ... : ... .. . ... ... : ... .. 8 ... ... : ... .. 8 ... ... : ... .. 8 ... ...
ROW 03 : ... .. 8 ... ... ... : ... .. . P7D ... ... : ... .. . ... : ... .. 1 ... : ... .. . ... ... : ... .. 7 ... ... : ... .. 7 ... ... : ... .. . ... ...
ROW 04 : ... .. 1 ... ... ... : A-4 00 A P80 ... ... : ... .. . ... : ... .. . ... : ... .. . ... ... : ... .. . ... ... : ... .. . ... ... : ... .. . ... ...
ROW 05 : ... .. . ... ... ... : ... .. . P7D ... ... : --- .. . ... : ... .. 0 ... : ... .. . ... ... : ... .. 6 ... ... : ... .. 6 ... ... : --- .. . P82 ...
ROW 06 : ... .. C ... ... ... : G#4 00 A P82 ... ... : F#2 00 . ... : ... .. 8 ... : ... .. . ... ... : E-3 01 A ... ... : F#2 01 A ... ... : F#1 01 F P80 ...
ROW 07 : ... .. B ... ... ... : ... .. . ... ... ... : ... .. . ... : ... .. 6 ... : ... .. . ... ... : ... .. 9 ... ... : ... .. 9 ... ... : ... .. D ... ...
ROW 08 : ... .. A ... ... ... : A-4 00 A P7D ... ... : ... .. . ... : ... .. 3 ... : ... .. . ... ... : ... .. 8 ... ... : ... .. 8 ... ... : ... .. 8 ... ...
ROW 09 : ... .. 8 ... ... ... : ... .. . P80 ... ... : ... .. . ... : ... .. 1 ... : ... .. . ... ... : ... .. 7 ... ... : ... .. 7 ... ... : ... .. . ... ...
ROW 0A : ... .. . ... ... ... : A#4 00 A P7D ... ... : ... .. . ... : ... .. . ... : ... .. . ... ... : ... .. . ... ... : ... .. . ... ... : ... .. . ... ...
ROW 0B : ... .. . ... ... ... : ... .. . P7F ... ... : ... .. . ... : ... .. 0 ... : ... .. . ... ... : ... .. 6 ... ... : ... .. 6 ... ... : ... .. . ... ...
ROW 0C : E-3 00 C ... ... ... : ... .. . P7E ... ... : F-5 00 . ... : 7-# 00 F ... : ... .. . ... ... : E-4 01 A ... ... : A-3 01 A ... ... : F#2 01 F ... ...
ROW 0D : ... .. B ... ... ... : A-4 00 2 P81 ... ... : G-4 00 . ... : ... .. C ... : ... .. . ... ... : ... .. 9 ... ... : ... .. 9 ... ... : ... .. D ... ...
ROW 0E : ... .. A ... ... ... : ... .. . P7E ... ... : C-4 00 . ... : ... .. 6 ... : ... .. . ... ... : ... .. 8 ... ... : ... .. 8 ... ... : ... .. 8 ... ...
ROW 0F : ... .. 8 ... ... ... : G#4 00 2 P82 ... ... : B-3 00 . ... : ... .. 3 ... : ... .. . ... ... : ... .. 7 ... ... : ... .. 7 ... ... : ... .. . ... ...
ROW 10 : ... .. 1 ... ... ... : ... .. 1 ... ... ... : F#3 00 . ... : ... .. 2 ... : ... .. . ... ... : ... .. . ... ... : ... .. . ... ... : ... .. . ... ...
ROW 11 : ... .. . ... ... ... : A-4 00 1 P7D ... ... : ... .. . ... : ... .. 0 ... : ... .. . ... ... : ... .. 6 ... ... : ... .. 6 ... ... : ... .. . ... ...
ROW 12 : F#1 00 C ... ... ... : ... .. . P80 ... ... : ... .. . ... : ... .. 8 ... : ... .. . ... ... : F#3 01 A ... ... : C-3 01 A ... ... : ... .. . ... ...
ROW 13 : ... .. B ... ... ... : ... .. 0 ... ... ... : ... .. . ... : ... .. 6 ... : ... .. . ... ... : ... .. 9 ... ... : ... .. 9 ... ... : ... .. . ... ...
ROW 14 : ... .. A ... ... ... : ... .. . ... ... ... : ... .. . ... : ... .. 3 ... : ... .. . ... ... : ... .. 8 ... ... : ... .. 8 ... ... : ... .. . ... ...
ROW 15 : ... .. 8 ... ... ... : ... .. . ... ... ... : E-3 00 . P85 : ... .. 1 ... : ... .. . ... ... : ... .. 7 ... ... : ... .. 7 ... ... : F-2 01 8 P89 ...
ROW 16 : ... .. 1 ... ... ... : ... .. . ... ... ... : D#3 00 . P7A : ... .. . ... : ... .. . ... ... : ... .. . ... ... : ... .. . ... ... : E-2 01 8 P95 ...
ROW 17 : ... .. . ... ... ... : ... .. . ... ... ... : C#3 00 . P86 : ... .. 0 ... : ... .. . ... ... : ... .. 6 ... ... : ... .. 6 ... ... : ... .. . P75 ...
ROW 18 : ... .. C ... ... ... : ... .. . ... ... ... : C-3 00 . P7E : 4-# 00 F ... : ... .. . ... ... : C-3 01 A ... ... : F#2 01 A ... ... : D#2 01 8 P83 ...
ROW 19 : ... .. B ... ... ... : ... .. . ... ... ... : B-2 00 . P77 : ... .. C ... : ... .. . ... ... : ... .. 9 ... ... : ... .. 9 ... ... : D-2 01 8 P94 ...
ROW 1A : ... .. A ... ... ... : ... .. . ... ... ... : A-2 00 . P8E : ... .. 6 ... : ... .. . ... ... : ... .. 8 ... ... : ... .. 8 ... ... : ... .. . P74 ...
ROW 1B : ... .. 8 ... ... ... : ... .. . ... ... ... : G#2 00 . P8D : ... .. 3 ... : ... .. . ... ... : ... .. 7 ... ... : ... .. 7 ... ... : C#2 01 8 P87 ...
ROW 1C : ... .. . ... ... ... : ... .. . ... ... ... : G-2 00 . ... : ... .. 2 ... : ... .. . ... ... : ... .. . ... ... : ... .. . ... ... : ... .. . P67 ...
ROW 1D : ... .. . ... ... ... : ... .. . ... ... ... : F#2 00 . P8F : ... .. 0 ... : ... .. . ... ... : ... .. 6 ... ... : ... .. 6 ... ... : C-2 01 8 P7E ...
ROW 1E : E-3 00 C ... ... ... : ... .. . ... ... ... : F-5 00 . P80 : 9-# 00 8 ... : ... .. . ... ... : D#4 01 A ... ... : A-3 01 A ... ... : F#2 01 F P80 ...
ROW 1F : ... .. B ... ... ... : ... .. . ... ... ... : G-4 00 . ... : ... .. 6 ... : ... .. . ... ... : ... .. 9 ... ... : ... .. 9 ... ... : ... .. D ... ...
ROW 20 : ... .. A ... ... ... : ... .. . ... ... ... : C-4 00 . ... : ... .. 3 ... : ... .. . ... ... : ... .. 8 ... ... : ... .. 8 ... ... : ... .. 8 ... ...
ROW 21 : ... .. 8 ... ... ... : ... .. . ... ... ... : B-3 00 . ... : ... .. 1 ... : ... .. . ... ... : ... .. 7 ... ... : ... .. 7 ... ... : ... .. . ... ...
ROW 22 : ... .. 1 ... ... ... : ... .. . ... ... ... : F#3 00 . ... : ... .. . ... : ... .. . ... ... : ... .. . ... ... : ... .. . ... ... : ... .. . ... ...
ROW 23 : ... .. . ... ... ... : ... .. . ... ... ... : ... .. . ... : ... .. 0 ... : ... .. . ... ... : ... .. 6 ... ... : ... .. 6 ... ... : ... .. . ... ...
ROW 24 : F#1 00 C ... ... ... : F#2 00 F P80 ... ... : ... .. . ... : 7-# 00 F ... : ... .. . ... ... : F#3 01 A ... ... : C-3 01 A ... ... : ... .. . ... ...
ROW 25 : ... .. B ... ... ... : ... .. E ... ... ... : ... .. . ... : ... .. C ... : ... .. . ... ... : ... .. 9 ... ... : ... .. 9 ... ... : ... .. . ... ...
ROW 26 : ... .. A ... ... ... : ... .. D ... ... ... : ... .. . ... : ... .. 6 ... : ... .. . ... ... : ... .. 8 ... ... : ... .. 8 ... ... : ... .. . ... ...
ROW 27 : ... .. 8 ... ... ... : G#2 00 F ... ... ... : ... .. . ... : ... .. 3 ... : ... .. . ... ... : ... .. 7 ... ... : ... .. 7 ... ... : ... .. . ... ...
ROW 28 : ... .. 1 ... ... ... : ... .. E ... ... ... : ... .. . ... : ... .. 2 ... : ... .. . ... ... : ... .. . ... ... : ... .. . ... ... : ... .. . ... ...
ROW 29 : ... .. . ... ... ... : ... .. D ... ... ... : ... .. . ... : ... .. 0 ... : ... .. . ... ... : ... .. 6 ... ... : ... .. 6 ... ... : ... .. . ... ...
ROW 2A : ... .. C ... ... ... : A-2 00 F ... ... ... : D#3 00 . P8A : 5-# 00 8 ... : ... .. . ... ... : C-3 01 A ... ... : F#2 01 A ... ... : F-2 01 8 P79 ...
ROW 2B : ... .. B ... ... ... : ... .. E ... ... ... : C#3 00 . P86 : ... .. 6 ... : ... .. . ... ... : ... .. 9 ... ... : ... .. 9 ... ... : E-2 01 8 P75 ...
ROW 2C : ... .. A ... ... ... : ... .. D ... ... ... : B-2 00 . P87 : ... .. 3 ... : ... .. . ... ... : ... .. 8 ... ... : ... .. 8 ... ... : D#2 01 8 P73 ...
ROW 2D : ... .. 8 ... ... ... : B-2 00 F ... ... ... : A-2 00 . P8E : ... .. 1 ... : ... .. . ... ... : ... .. 7 ... ... : ... .. 7 ... ... : D-2 01 8 P74 ...
ROW 2E : ... .. . ... ... ... : ... .. E ... ... ... : G#2 00 . P7D : ... .. . ... : ... .. . ... ... : ... .. . ... ... : ... .. . ... ... : C#2 01 8 P77 ...
ROW 2F : ... .. . ... ... ... : ... .. D ... ... ... : F#2 00 . P8F : ... .. 0 ... : ... .. . ... ... : ... .. 6 ... ... : ... .. 6 ... ... : C-2 01 8 P7E ...
ROW 30 : F-1 00 C ... ... ... : C-3 00 F ... ... ... : E-4 00 . P80 : 1-# 00 F ... : ... .. . ... ... : G#2 01 A ... ... : C-3 01 A ... ... : F-1 01 F P80 ...
ROW 31 : ... .. B ... ... ... : ... .. E ... ... ... : F#3 00 . ... : ... .. C ... : ... .. . ... ... : ... .. 9 ... ... : ... .. 9 ... ... : ... .. D ... ...
ROW 32 : ... .. A ... ... ... : ... .. D ... ... ... : B-2 00 . ... : ... .. 6 ... : ... .. . ... ... : ... .. 8 ... ... : ... .. 8 ... ... : ... .. 8 ... ...
ROW 33 : ... .. 8 ... ... ... : ... .. A ... ... ... : A#2 00 . ... : ... .. 3 ... : ... .. . ... ... : ... .. 7 ... ... : ... .. 7 ... ... : ... .. . ... ...
ROW 34 : ... .. 1 ... ... ... : ... .. . ... ... ... : F-2 00 . ... : ... .. 2 ... : ... .. . ... ... : ... .. . ... ... : ... .. . ... ... : ... .. . ... ...
ROW 35 : ... .. . ... ... ... : ... .. . ... ... ... : ... .. . ... : ... .. 0 ... : ... .. . ... ... : ... .. 6 ... ... : ... .. 6 ... ... : ... .. . ... ...
ROW 36 : ... .. C ... ... ... : ... .. . ... ... ... : ... .. . ... : C-# 00 8 ... : ... .. . ... ... : ... .. . ... ... : ... .. . ... ... : ... .. . ... ...
ROW 37 : ... .. B ... ... ... : ... .. . ... ... ... : ... .. . ... : ... .. 6 ... : ... .. . ... ... : ... .. 5 ... ... : ... .. 5 ... ... : ... .. . ... ...
ROW 38 : ... .. A ... ... ... : ... .. . ... ... ... : ... .. . ... : ... .. 3 ... : ... .. . ... ... : ... .. . ... ... : ... .. . ... ... : ... .. . ... ...
ROW 39 : ... .. 8 ... ... ... : ... .. . ... ... ... : E-2 00 . P86 : ... .. 1 ... : ... .. . ... ... : ... .. . ... ... : ... .. . ... ... : ... .. . P60 ...
ROW 3A : ... .. 1 ... ... ... : ... .. . ... ... ... : D#2 00 . P8E : ... .. . ... : ... .. . ... ... : ... .. . ... ... : ... .. . ... ... : E-1 01 8 P97 ...
ROW 3B : ... .. . ... ... ... : ... .. . ... ... ... : ... .. . P6E : ... .. 0 ... : ... .. . ... ... : ... .. . ... ... : ... .. . ... ... : ... .. . P77 ...
ROW 3C : C-2 00 C ... ... ... : ... .. . ... ... ... : D-2 00 . P79 : ... .. 8 ... : ... .. . ... ... : ... .. . ... ... : ... .. . ... ... : ... .. . P57 ...
ROW 3D : ... .. B ... ... ... : ... .. . ... ... ... : C#2 00 . P86 : ... .. 6 ... : ... .. . ... ... : ... .. . ... ... : ... .. . ... ... : D#1 01 8 P94 ...
ROW 3E : ... .. A ... ... ... : ... .. . ... ... ... : C-2 00 . P96 : ... .. 3 ... : ... .. . ... ... : ... .. . ... ... : ... .. . ... ... : ... .. . P74 ...
ROW 3F : ... .. 8 ... ... ... : ... .. . ... ... ... : ... .. . P76 : ... .. 1 ... : ... .. . ... ... : ... .. . ... ... : ... .. . ... ... : ... .. . P54 ...
ROW 40 : ... .. . ... ... ... : ... .. . ... ... ... : B-1 00 . P89 : ... .. . ... : ... .. . ... ... : ... .. . ... ... : ... .. . ... ... : D-1 01 8 P95 ...
ROW 41 : ... .. . ... ... ... : ... .. . ... ... ... : ... .. . P69 : ... .. 0 ... : ... .. . ... ... : ... .. . ... ... : ... .. . ... ... : ... .. . P75 ...
ROW 42 : B-1 00 C ... ... ... : ... .. . ... ... ... : E-5 00 . P80 : 1-# 00 F ... : ... .. . ... ... : ... .. A ... ... : C#3 01 A ... ... : F-2 01 F P80 ...
ROW 43 : ... .. B ... ... ... : ... .. . ... ... ... : F#4 00 . ... : ... .. C ... : ... .. . ... ... : ... .. 9 ... ... : ... .. 9 ... ... : ... .. D ... ...
ROW 44 : ... .. A ... ... ... : ... .. . ... ... ... : B-3 00 . ... : ... .. 6 ... : ... .. . ... ... : ... .. 8 ... ... : ... .. 8 ... ... : ... .. 8 ... ...
ROW 45 : ... .. 8 ... ... ... : ... .. . ... ... ... : A#3 00 . ... : ... .. 3 ... : ... .. . ... ... : ... .. 7 ... ... : ... .. 7 ... ... : ... .. . ... ...
ROW 46 : ... .. 1 ... ... ... : ... .. . ... ... ... : F-3 00 . ... : ... .. 2 ... : ... .. . ... ... : ... .. . ... ... : ... .. . ... ... : ... .. . ... ...
ROW 47 : ... .. . ... ... ... : ... .. . ... ... ... : --- .. . ... : ... .. 0 ... : ... .. . ... ... : ... .. 6 ... ... : ... .. 6 ... ... : --- .. . P7E ...
ROW 48 : C-2 00 C ... ... ... : ... .. . ... ... ... : D#3 00 . ... : C-# 00 8 ... : ... .. . ... ... : ... .. . ... ... : ... .. . ... ... : D#2 01 F P80 ...
ROW 49 : ... .. B ... ... ... : ... .. . ... ... ... : ... .. . ... : ... .. 6 ... : ... .. . ... ... : ... .. 5 ... ... : ... .. 5 ... ... : ... .. D ... ...
ROW 4A : ... .. A ... ... ... : ... .. . ... ... ... : ... .. . ... : ... .. 3 ... : ... .. . ... ... : ... .. . ... ... : ... .. . ... ... : ... .. 8 ... ...
ROW 4B : ... .. 8 ... ... ... : ... .. . P84 ... ... : ... .. . ... : ... .. 1 ... : ... .. . ... ... : ... .. . ... ... : ... .. . ... ... : ... .. . ... ...
ROW 4C : ... .. . ... ... ... : ... .. . P86 ... ... : ... .. . ... : ... .. . ... : ... .. . ... ... : ... .. . ... ... : ... .. . ... ... : ... .. . ... ...
ROW 4D : ... .. . ... ... ... : ... .. . P85 ... ... : --- .. . ... : ... .. 0 ... : ... .. . ... ... : ... .. . ... ... : ... .. . ... ... : --- .. . ... ...
ROW 4E : G#1 00 C ... ... ... : ... .. . P82 ... ... : F-3 00 . ... : ... .. 8 ... : ... .. . ... ... : ... .. . ... ... : ... .. . ... ... : F-2 01 F ... ...
ROW 4F : ... .. B ... ... ... : ... .. . P7E ... ... : ... .. . ... : ... .. 6 ... : ... .. . ... ... : ... .. . ... ... : ... .. . ... ... : ... .. D ... ...
ROW 50 : ... .. A ... ... ... : ... .. . P7B ... ... : ... .. . ... : ... .. 3 ... : ... .. . ... ... : ... .. . ... ... : ... .. . ... ... : ... .. 8 ... ...
ROW 51 : ... .. 8 ... ... ... : ... .. . P7A ... ... : --- .. . ... : ... .. 1 ... : ... .. . ... ... : ... .. . ... ... : ... .. . ... ... : --- .. . P7E ...
ROW 52 : ... .. 1 ... ... ... : ... .. . P7C ... ... : ... .. . ... : ... .. . ... : ... .. . ... ... : ... .. . ... ... : ... .. . ... ... : ... .. . ... ...
ROW 53 : ... .. . ... ... ... : ... .. . P80 ... ... : ... .. . ... : ... .. 0 ... : ... .. . ... ... : ... .. . ... ... : ... .. . ... ... : ... .. . ... ...
ROW 54 : E-2 00 C ... ... ... : ... .. . P83 ... ... : C-6 00 . ... : 7-# 00 F ... : ... .. . ... ... : ... .. . ... ... : ... .. . ... ... : C#3 01 F P80 ...
ROW 55 : ... .. B ... ... ... : ... .. . P86 ... ... : D-5 00 . ... : ... .. C ... : ... .. . ... ... : ... .. . ... ... : ... .. . ... ... : ... .. D ... ...
ROW 56 : ... .. A ... ... ... : ... .. . ... ... ... : G-4 00 . ... : ... .. 6 ... : ... .. . ... ... : ... .. . ... ... : ... .. . ... ... : ... .. 8 ... ...
ROW 57 : ... .. 8 ... ... ... : ... .. . P82 ... ... : F#4 00 . ... : ... .. 3 ... : ... .. . ... ... : ... .. . ... ... : ... .. . ... ... : ... .. . ... ...
ROW 58 : ... .. . ... ... ... : ... .. . P7F ... ... : C#4 00 . ... : ... .. 2 ... : ... .. . ... ... : ... .. . ... ... : ... .. . ... ... : ... .. . ... ...
ROW 59 : ... .. . ... ... ... : ... .. . P7B ... ... : ... .. . ... : ... .. 0 ... : ... .. . ... ... : ... .. . ... ... : ... .. . ... ... : ... .. . ... ...
ROW 5A : ... .. C ... ... ... : ... .. . P7A ... ... : ... .. . ... : 1-# 00 8 ... : ... .. . ... ... : ... .. . ... ... : ... .. . ... ... : ... .. . ... ...
ROW 5B : ... .. B ... ... ... : ... .. . P7C ... ... : ... .. . ... : ... .. 6 ... : ... .. . ... ... : ... .. . ... ... : ... .. . ... ... : ... .. . ... ...
ROW 5C : ... .. A ... ... ... : ... .. . P80 ... ... : ... .. . ... : ... .. 3 ... : ... .. . ... ... : ... .. . ... ... : ... .. . ... ... : ... .. . ... ...
ROW 5D : ... .. 8 ... ... ... : ... .. . P83 ... ... : ... .. . ... : ... .. 1 ... : ... .. . ... ... : ... .. . ... ... : ... .. . ... ... : ... .. . ... ...
ROW 5E : ... .. 1 ... ... ... : ... .. . P86 ... ... : ... .. . ... : ... .. . ... : ... .. . ... ... : ... .. . ... ... : ... .. . ... ... : ... .. . ... ...
ROW 5F : ... .. . ... ... ... : ... .. . ... ... ... : ... .. . ... : ... .. 0 ... : ... .. . ... ... : ... .. . ... ... : ... .. . ... ... : ... .. . ... ...
ROW 60 : F-1 00 C ... ... ... : ... .. . P83 ... ... : C-4 00 . ... : 7-# 00 F ... : ... .. . ... ... : ... .. . ... ... : ... .. . ... ... : C-3 01 F ... ...
ROW 61 : ... .. B ... ... ... : ... .. . P80 ... ... : ... .. . ... : ... .. C ... : ... .. . ... ... : ... .. . ... ... : ... .. . ... ... : ... .. D ... ...
ROW 62 : ... .. A ... ... ... : ... .. . P7C ... ... : ... .. . ... : ... .. 6 ... : ... .. . ... ... : ... .. . ... ... : ... .. . ... ... : ... .. 8 ... ...
ROW 63 : ... .. 8 ... ... ... : ... .. . P7A ... ... : ... .. . ... : ... .. 3 ... : ... .. . ... ... : ... .. . ... ... : ... .. . ... ... : ... .. . ... ...
ROW 64 : ... .. 1 ... ... ... : ... .. . P7B ... ... : ... .. . ... : ... .. 2 ... : ... .. . ... ... : ... .. . ... ... : ... .. . ... ... : ... .. . ... ...
ROW 65 : ... .. . ... ... ... : ... .. . P7F ... ... : ... .. . ... : ... .. 0 ... : ... .. . ... ... : ... .. . ... ... : ... .. . ... ... : ... .. . ... ...
ROW 66 : D#2 00 C ... ... ... : ... .. . P82 ... ... : ... .. . ... : 1-# 00 8 ... : ... .. . ... ... : ... .. . ... ... : ... .. . ... ... : ... .. . ... ...
ROW 67 : ... .. B ... ... ... : ... .. . P86 ... ... : ... .. . ... : ... .. 6 ... : ... .. . ... ... : ... .. . ... ... : ... .. . ... ... : ... .. . ... ...
ROW 68 : ... .. A ... ... ... : ... .. . ... ... ... : ... .. . ... : ... .. 3 ... : ... .. . ... ... : ... .. . ... ... : ... .. . ... ... : ... .. . ... ...
ROW 69 : ... .. 8 ... ... ... : ... .. . P83 ... ... : ... .. . ... : ... .. 1 ... : ... .. . ... ... : ... .. . ... ... : ... .. . ... ... : ... .. . ... ...
ROW 6A : ... .. . ... ... ... : ... .. . P80 ... ... : ... .. . ... : ... .. . ... : ... .. . ... ... : ... .. . ... ... : ... .. . ... ... : ... .. . ... ...
ROW 6B : ... .. . ... ... ... : ... .. . P7C ... ... : --- .. . ... : ... .. 0 ... : ... .. . ... ... : ... .. . ... ... : ... .. . ... ... : --- .. . P7E ...
ROW 6C : ... .. C ... ... ... : ... .. . P7A ... ... : F-3 00 . ... : 7-# 00 F ... : ... .. . ... ... : ... .. . ... ... : ... .. . ... ... : F-2 01 F P80 ...
ROW 6D : ... .. B ... ... ... : ... .. . P7B ... ... : ... .. . ... : ... .. C ... : ... .. . ... ... : ... .. . ... ... : ... .. . ... ... : ... .. D ... ...
ROW 6E : ... .. A ... ... ... : ... .. . P7E ... ... : ... .. . ... : ... .. 6 ... : ... .. . ... ... : ... .. . ... ... : ... .. . ... ... : ... .. 8 ... ...
ROW 6F : ... .. 8 ... ... ... : ... .. . P82 ... ... : ... .. . ... : ... .. 3 ... : ... .. . ... ... : ... .. . ... ... : ... .. . ... ... : ... .. . ... ...
ROW 70 : ... .. 1 ... ... ... : ... .. . P85 ... ... : ... .. . ... : ... .. 2 ... : ... .. . ... ... : ... .. . ... ... : ... .. . ... ... : ... .. . ... ...
ROW 71 : ... .. . ... ... ... : ... .. . P86 ... ... : ... .. . ... : ... .. 0 ... : ... .. . ... ... : ... .. . ... ... : ... .. . ... ... : ... .. . ... ...
ROW 72 : F-1 00 C ... ... ... : ... .. . P84 ... ... : ... .. . ... : 1-# 00 8 ... : ... .. . ... ... : ... .. . ... ... : ... .. . ... ... : ... .. . ... ...
ROW 73 : ... .. B ... ... ... : ... .. . P80 ... ... : ... .. . ... : ... .. 6 ... : ... .. . ... ... : ... .. . ... ... : ... .. . ... ... : ... .. . ... ...
ROW 74 : ... .. A ... ... ... : ... .. . P7D ... ... : ... .. . ... : ... .. 3 ... : ... .. . ... ... : ... .. . ... ... : ... .. . ... ... : ... .. . ... ...
ROW 75 : ... .. 8 ... ... ... : ... .. . P7A ... ... : ... .. . ... : ... .. 1 ... : ... .. . ... ... : ... .. . ... ... : ... .. . ... ... : ... .. . ... ...
ROW 76 : ... .. 1 ... ... ... : ... .. . ... ... ... : ... .. . ... : ... .. . ... : ... .. . ... ... : ... .. . ... ... : ... .. . ... ... : ... .. . ... ...
ROW 77 : ... .. . ... ... ... : ... .. . P7E ... ... : --- .. . ... : ... .. 0 ... : ... .. . ... ... : ... .. . ... ... : ... .. . ... ... : --- .. . P7E ...
ROW 78 : C#2 00 C ... ... ... : C#3 00 F P80 ... ... : E-3 00 . ... : ... .. F ... : ... .. . ... ... : G#3 01 A ... ... : C-4 01 A ... ... : F-0 01 F P80 ...
ROW 79 : ... .. B ... ... ... : ... .. E ... ... ... : F#2 00 . ... : ... .. C ... : ... .. . ... ... : ... .. 9 ... ... : ... .. 9 ... ... : ... .. D ... ...
ROW 7A : ... .. A ... ... ... : ... .. D ... ... ... : B-1 00 . ... : ... .. 6 ... : ... .. . ... ... : ... .. 8 ... ... : ... .. 8 ... ... : ... .. 8 ... ...
ROW 7B : ... .. 8 ... ... ... : ... .. A ... ... ... : A#1 00 . ... : ... .. 3 ... : ... .. . ... ... : ... .. 7 ... ... : ... .. 7 ... ... : ... .. . ... ...
ROW 7C : ... .. . ... ... ... : ... .. . ... ... ... : F-1 00 . ... : ... .. 2 ... : ... .. . ... ... : ... .. . ... ... : ... .. . ... ... : ... .. . ... ...
ROW 7D : ... .. . ... ... ... : ... .. . ... ... ... : ... .. . ... : ... .. 0 ... : ... .. . ... ... : ... .. 6 ... ... : ... .. 6 ... ... : ... .. . ... ...
ROW 7E : ... .. C ... ... ... : ... .. . ... ... ... : ... .. . ... : C-# 00 8 ... : ... .. . ... ... : ... .. . ... ... : ... .. . ... ... : ... .. . ... ...
ROW 7F : ... .. B ... ... ... : ... .. . ... ... ... : ... .. . ... : ... .. 6 ... : ... .. . ... ... : ... .. 5 ... ... : ... .. 5 ... ... : ... .. . ... ...
ROW 80 : ... .. A ... ... ... : ... .. . ... ... ... : ... .. . ... : ... .. 3 ... : ... .. . ... ... : ... .. . ... ... : ... .. . ... ... : ... .. . ... ...
ROW 81 : ... .. 8 ... ... ... : ... .. . ... ... ... : ... .. . P60 : ... .. 1 ... : ... .. . ... ... : ... .. . ... ... : ... .. . ... ... : ... .. . P60 ...
ROW 82 : ... .. 1 ... ... ... : ... .. . ... ... ... : E-1 00 . P8C : ... .. . ... : ... .. . ... ... : ... .. . ... ... : ... .. . ... ... : ... .. . P40 ...
ROW 83 : ... .. . ... ... ... : ... .. . ... ... ... : ... .. . P6C : ... .. 0 ... : ... .. . ... ... : ... .. . ... ... : ... .. . ... ... : E-0 01 8 PCE ...
ROW 84 : G#1 00 C ... ... ... : ... .. . ... ... ... : D#1 00 . P9D : ... .. 8 ... : ... .. . ... ... : ... .. . ... ... : ... .. . ... ... : ... .. . PAE ...
ROW 85 : ... .. B ... ... ... : ... .. . ... ... ... : ... .. . P7D : ... .. 6 ... : ... .. . ... ... : ... .. . ... ... : ... .. . ... ... : ... .. . P8E ...
ROW 86 : ... .. A ... ... ... : ... .. . ... ... ... : ... .. . P5D : ... .. 3 ... : ... .. . ... ... : ... .. . ... ... : ... .. . ... ... : ... .. . P6E ...
ROW 87 : ... .. 8 ... ... ... : ... .. . ... ... ... : D-1 00 . P93 : ... .. 1 ... : ... .. . ... ... : ... .. . ... ... : ... .. . ... ... : ... .. . P4E ...
ROW 88 : ... .. 1 ... ... ... : ... .. . ... ... ... : ... .. . P73 : ... .. . ... : ... .. . ... ... : ... .. . ... ... : ... .. . ... ... : ... .. . P2E ...
ROW 89 : ... .. . ... ... ... : ... .. . ... ... ... : C#1 00 . PAD : ... .. 0 ... : ... .. . ... ... : ... .. . ... ... : ... .. . ... ... : D#0 01 8 PC6 ...
ROW 8A : ... .. C ... ... ... : ... .. . ... ... ... : F-2 00 . P80 : 1-# 00 F ... : ... .. . ... ... : ... .. A ... ... : C#4 01 A ... ... : F-1 01 F P80 ...
ROW 8B : ... .. B ... ... ... : ... .. . ... ... ... : ... .. . ... : ... .. C ... : ... .. . ... ... : ... .. 9 ... ... : ... .. 9 ... ... : ... .. D ... ...
ROW 8C : ... .. A ... ... ... : ... .. . ... ... ... : ... .. . ... : ... .. 6 ... : ... .. . ... ... : ... .. 8 ... ... : ... .. 8 ... ... : ... .. 8 ... ...
ROW 8D : ... .. 8 ... ... ... : ... .. . ... ... ... : ... .. . ... : ... .. 3 ... : ... .. . ... ... : ... .. 7 ... ... : ... .. 7 ... ... : ... .. . ... ...
ROW 8E : ... .. . ... ... ... : ... .. . ... ... ... : ... .. . ... : ... .. 2 ... : ... .. . ... ... : ... .. . ... ... : ... .. . ... ... : ... .. . ... ...
ROW 8F : ... .. . ... ... ... : ... .. . ... ... ... : ... .. . ... : ... .. 0 ... : ... .. . ... ... : ... .. 6 ... ... : ... .. 6 ... ... : ... .. . ... ...
ROW 90 : C-2 00 C ... ... ... : ... .. . ... ... ... : D#2 00 . ... : C-# 00 8 ... : ... .. . ... ... : ... .. . ... ... : ... .. . ... ... : D#1 01 F ... ...
ROW 91 : ... .. B ... ... ... : ... .. . ... ... ... : ... .. . ... : ... .. 6 ... : ... .. . ... ... : ... .. 5 ... ... : ... .. 5 ... ... : ... .. D ... ...
ROW 92 : ... .. A ... ... ... : ... .. . ... ... ... : ... .. . ... : ... .. 3 ... : ... .. . ... ... : ... .. . ... ... : ... .. . ... ... : ... .. 8 ... ...
ROW 93 : ... .. 8 ... ... ... : ... .. . ... ... ... : ... .. . ... : ... .. 1 ... : ... .. . ... ... : ... .. . ... ... : ... .. . ... ... : ... .. . ... ...
ROW 94 : ... .. 1 ... ... ... : ... .. . ... ... ... : ... .. . ... : ... .. . ... : ... .. . ... ... : ... .. . ... ... : ... .. . ... ... : ... .. . ... ...
ROW 95 : ... .. . ... ... ... : ... .. . ... ... ... : --- .. . ... : ... .. 0 ... : ... .. . ... ... : ... .. . ... ... : ... .. . ... ... : --- .. . P81 ...
ROW 96 : ... .. C ... ... ... : ... .. . ... ... ... : F-2 00 . ... : ... .. 8 ... : ... .. . ... ... : ... .. . ... ... : ... .. . ... ... : F-1 01 F P80 ...
ROW 97 : ... .. B ... ... ... : ... .. . ... ... ... : ... .. . ... : ... .. 6 ... : ... .. . ... ... : ... .. . ... ... : ... .. . ... ... : ... .. D ... ...
ROW 98 : ... .. A ... ... ... : ... .. . ... ... ... : ... .. . ... : ... .. 3 ... : ... .. . ... ... : ... .. . ... ... : ... .. . ... ... : ... .. 8 ... ...
ROW 99 : ... .. 8 ... ... ... : ... .. . ... ... ... : ... .. . ... : ... .. 1 ... : ... .. . ... ... : ... .. . ... ... : ... .. . ... ... : ... .. . ... ...
ROW 9A : ... .. 1 ... ... ... : ... .. . ... ... ... : ... .. . ... : ... .. . ... : ... .. . ... ... : ... .. . ... ... : ... .. . ... ... : ... .. . ... ...
ROW 9B : ... .. . ... ... ... : ... .. . ... ... ... : ... .. . ... : ... .. 0 ... : ... .. . ... ... : ... .. . ... ... : ... .. . ... ... : ... .. . ... ...
ROW 9C : A#1 00 C ... ... ... : ... .. . ... ... ... : E-5 00 . ... : 7-# 00 F ... : ... .. . ... ... : ... .. . ... ... : ... .. . ... ... : F-2 01 F ... ...
ROW 9D : ... .. B ... ... ... : ... .. . ... ... ... : F#4 00 . ... : ... .. C ... : ... .. . ... ... : ... .. . ... ... : ... .. . ... ... : ... .. D ... ...
ROW 9E : ... .. A ... ... ... : ... .. . ... ... ... : B-3 00 . ... : ... .. 6 ... : ... .. . ... ... : ... .. . ... ... : ... .. . ... ... : ... .. 8 ... ...
ROW 9F : ... .. 8 ... ... ... : ... .. . P8A ... ... : A#3 00 . ... : ... .. 3 ... : ... .. . ... ... : ... .. . ... ... : ... .. . ... ... : ... .. . ... ...
ROW A0 : ... .. . ... ... ... : D-3 00 A P79 ... ... : F-3 00 . ... : ... .. 2 ... : ... .. . ... ... : ... .. . ... ... : ... .. . ... ... : ... .. . ... ...
ROW A1 : ... .. . ... ... ... : ... .. . P77 ... ... : --- .. . ... : ... .. 0 ... : ... .. . ... ... : ... .. . ... ... : ... .. . ... ... : --- .. . P7E ...
ROW A2 : ... .. C ... ... ... : C#3 00 A P84 ... ... : D#3 00 . ... : ... .. 8 ... : ... .. . ... ... : ... .. . ... ... : ... .. . ... ... : D#2 01 F P80 ...
ROW A3 : ... .. B ... ... ... : ... .. . P7C ... ... : ... .. . ... : ... .. 6 ... : ... .. . ... ... : ... .. . ... ... : ... .. . ... ... : ... .. D ... ...
ROW A4 : ... .. A ... ... ... : C-3 00 A P8A ... ... : ... .. . ... : ... .. 3 ... : ... .. . ... ... : ... .. . ... ... : ... .. . ... ... : ... .. 8 ... ...
ROW A5 : ... .. 8 ... ... ... : ... .. . P88 ... ... : ... .. . ... : ... .. 1 ... : ... .. . ... ... : ... .. . ... ... : ... .. . ... ... : ... .. . ... ...
ROW A6 : ... .. 1 ... ... ... : C#3 00 A P76 ... ... : ... .. . ... : ... .. . ... : ... .. . ... ... : ... .. . ... ... : ... .. . ... ... : ... .. . ... ...
ROW A7 : ... .. . ... ... ... : ... .. . P80 ... ... : --- .. . ... : ... .. 0 ... : ... .. . ... ... : ... .. . ... ... : ... .. . ... ... : --- .. . ... ...
ROW A8 : F-1 00 C ... ... ... : ... .. . P89 ... ... : G#3 00 . ... : 4-# 00 F ... : ... .. . ... ... : ... .. . ... ... : ... .. . ... ... : G#2 01 F ... ...
ROW A9 : ... .. B ... ... ... : D-3 00 A P79 ... ... : ... .. . ... : ... .. C ... : ... .. . ... ... : ... .. . ... ... : ... .. . ... ... : ... .. D ... ...
ROW AA : ... .. A ... ... ... : ... .. . P77 ... ... : ... .. . ... : ... .. 6 ... : ... .. . ... ... : ... .. . ... ... : ... .. . ... ... : ... .. 8 ... ...
ROW AB : ... .. 8 ... ... ... : C#3 00 A P86 ... ... : ... .. . ... : ... .. 3 ... : ... .. . ... ... : ... .. . ... ... : ... .. . ... ... : ... .. . ... ...
ROW AC : ... .. 1 ... ... ... : ... .. . P7D ... ... : ... .. . ... : ... .. 2 ... : ... .. . ... ... : ... .. . ... ... : ... .. . ... ... : ... .. . ... ...
ROW AD : ... .. . ... ... ... : C-3 00 A P8B ... ... : ... .. . ... : ... .. 0 ... : ... .. . ... ... : ... .. . ... ... : ... .. . ... ... : ... .. . ... ...
ROW AE : ... .. C ... ... ... : ... .. . P88 ... ... : F#3 00 . ... : 9-# 00 8 ... : ... .. . ... ... : ... .. . ... ... : ... .. . ... ... : F#2 01 F ... ...
ROW AF : ... .. B ... ... ... : ... .. . P8C ... ... : ... .. . ... : ... .. 6 ... : ... .. . ... ... : ... .. . ... ... : ... .. . ... ... : ... .. D ... ...
ROW B0 : ... .. A ... ... ... : C#3 00 A P7F ... ... : ... .. . ... : ... .. 3 ... : ... .. . ... ... : ... .. . ... ... : ... .. . ... ... : ... .. 8 ... ...
ROW B1 : ... .. 8 ... ... ... : ... .. . P88 ... ... : ... .. . ... : ... .. 1 ... : ... .. . ... ... : ... .. . ... ... : ... .. . ... ... : ... .. . ... ...
ROW B2 : ... .. 1 ... ... ... : D-3 00 A P78 ... ... : ... .. . ... : ... .. . ... : ... .. . ... ... : ... .. . ... ... : ... .. . ... ... : ... .. . ... ...
ROW B3 : ... .. . ... ... ... : ... .. . ... ... ... : --- .. . ... : ... .. 0 ... : ... .. . ... ... : ... .. . ... ... : ... .. . ... ... : --- .. . P84 ...
ROW B4 : E-1 00 C ... ... ... : C#3 00 A P88 ... ... : F-3 00 . ... : 7-# 00 F ... : ... .. . ... ... : ... .. . ... ... : ... .. . ... ... : F-2 01 F P80 ...
ROW B5 : ... .. B ... ... ... : ... .. . P7F ... ... : ... .. . ... : ... .. C ... : ... .. . ... ... : ... .. . ... ... : ... .. . ... ... : ... .. D ... ...
ROW B6 : ... .. A ... ... ... : C-3 00 A P8C ... ... : ... .. . ... : ... .. 6 ... : ... .. . ... ... : ... .. . ... ... : ... .. . ... ... : ... .. 8 ... ...
ROW B7 : ... .. 8 ... ... ... : ... .. . P88 ... ... : ... .. . ... : ... .. 3 ... : ... .. . ... ... : ... .. . ... ... : ... .. . ... ... : ... .. . ... ...
ROW B8 : ... .. 1 ... ... ... : ... .. . P8B ... ... : ... .. . ... : ... .. 2 ... : ... .. . ... ... : ... .. . ... ... : ... .. . ... ... : ... .. . ... ...
ROW B9 : ... .. . ... ... ... : C#3 00 A P7D ... ... : --- .. . ... : ... .. 0 ... : ... .. . ... ... : ... .. . ... ... : ... .. . ... ... : --- .. . P7E ...
ROW BA : ... .. C ... ... ... : ... .. . P86 ... ... : F-2 00 . ... : 5-# 00 8 ... : ... .. . ... ... : ... .. . ... ... : ... .. . ... ... : F-1 01 F P80 ...
ROW BB : ... .. B ... ... ... : D-3 00 A P77 ... ... : ... .. . ... : ... .. 6 ... : ... .. . ... ... : ... .. . ... ... : ... .. . ... ... : ... .. D ... ...
ROW BC : ... .. A ... ... ... : ... .. . P79 ... ... : ... .. . ... : ... .. 3 ... : ... .. . ... ... : ... .. . ... ... : ... .. . ... ... : ... .. 8 ... ...
ROW BD : ... .. 8 ... ... ... : C#3 00 A P89 ... ... : ... .. . ... : ... .. 1 ... : ... .. . ... ... : ... .. . ... ... : ... .. . ... ... : ... .. . ... ...
ROW BE : ... .. 1 ... ... ... : ... .. . P80 ... ... : ... .. . ... : ... .. . ... : ... .. . ... ... : ... .. . ... ... : ... .. . ... ... : ... .. . ... ...
ROW BF : ... .. . ... ... ... : ... .. . P76 ... ... : --- .. . ... : ... .. 0 ... : ... .. . ... ... : ... .. . ... ... : ... .. . ... ... : --- .. . P7F ...
ROW C0 : F-1 00 C ... ... ... : F-3 00 F P80 ... ... : E-4 00 . ... : 1-# 00 F ... : ... .. . ... ... : G#4 01 A ... ... : C-5 01 A ... ... : F-1 01 F P80 ...
ROW C1 : ... .. B ... ... ... : ... .. E ... ... ... : F#3 00 . ... : ... .. C ... : ... .. . ... ... : ... .. 9 ... ... : ... .. 9 ... ... : ... .. D ... ...
ROW C2 : ... .. A ... ... ... : ... .. D ... ... ... : B-2 00 . ... : ... .. 6 ... : ... .. . ... ... : ... .. 8 ... ... : ... .. 8 ... ... : ... .. 8 ... ...
ROW C3 : ... .. 8 ... ... ... : ... .. A ... ... ... : A#2 00 . ... : ... .. 3 ... : ... .. . ... ... : ... .. 7 ... ... : ... .. 7 ... ... : ... .. . ... ...
ROW C4 : ... .. 1 ... ... ... : ... .. . ... ... ... : F-2 00 . ... : ... .. 2 ... : ... .. . ... ... : ... .. . ... ... : ... .. . ... ... : ... .. . ... ...
ROW C5 : ... .. . ... ... ... : ... .. . ... ... ... : ... .. . ... : ... .. 0 ... : ... .. . ... ... : ... .. 6 ... ... : ... .. 6 ... ... : ... .. . ... ...
ROW C6 : ... .. C ... ... ... : ... .. . ... ... ... : ... .. . ... : C-# 00 8 ... : ... .. . ... ... : ... .. . ... ... : ... .. . ... ... : ... .. . ... ...
ROW C7 : ... .. B ... ... ... : ... .. . ... ... ... : ... .. . ... : ... .. 6 ... : ... .. . ... ... : ... .. 5 ... ... : ... .. 5 ... ... : ... .. . ... ...
ROW C8 : ... .. A ... ... ... : ... .. . ... ... ... : ... .. . ... : ... .. 3 ... : ... .. . ... ... : ... .. . ... ... : ... .. . ... ... : ... .. . ... ...
ROW C9 : ... .. 8 ... ... ... : ... .. . ... ... ... : E-2 00 . P86 : ... .. 1 ... : ... .. . ... ... : ... .. . ... ... : ... .. . ... ... : ... .. . P60 ...
ROW CA : ... .. 1 ... ... ... : ... .. . ... ... ... : D#2 00 . P8E : ... .. . ... : ... .. . ... ... : ... .. . ... ... : ... .. . ... ... : E-1 01 8 P97 ...
ROW CB : ... .. . ... ... ... : ... .. . ... ... ... : ... .. . P6E : ... .. 0 ... : ... .. . ... ... : ... .. . ... ... : ... .. . ... ... : ... .. . P77 ...
ROW CC : C-2 00 C ... ... ... : ... .. . ... ... ... : D-2 00 . P79 : ... .. 8 ... : ... .. . ... ... : ... .. . ... ... : ... .. . ... ... : ... .. . P57 ...
ROW CD : ... .. B ... ... ... : ... .. . ... ... ... : C#2 00 . P86 : ... .. 6 ... : ... .. . ... ... : ... .. . ... ... : ... .. . ... ... : D#1 01 8 P94 ...
ROW CE : ... .. A ... ... ... : ... .. . ... ... ... : C-2 00 . P96 : ... .. 3 ... : ... .. . ... ... : ... .. . ... ... : ... .. . ... ... : ... .. . P74 ...
ROW CF : ... .. 8 ... ... ... : ... .. . ... ... ... : ... .. . P76 : ... .. 1 ... : ... .. . ... ... : ... .. . ... ... : ... .. . ... ... : ... .. . P54 ...
ROW D0 : ... .. . ... ... ... : ... .. . ... ... ... : B-1 00 . P89 : ... .. . ... : ... .. . ... ... : ... .. . ... ... : ... .. . ... ... : D-1 01 8 P95 ...
ROW D1 : ... .. . ... ... ... : ... .. . ... ... ... : ... .. . P69 : ... .. 0 ... : ... .. . ... ... : ... .. . ... ... : ... .. . ... ... : ... .. . P75 ...
ROW D2 : B-1 00 C ... ... ... : G#2 00 F ... ... ... : E-5 00 . P80 : 1-# 00 F ... : ... .. . ... ... : ... .. A ... ... : C#5 01 A ... ... : F-2 01 F P80 ...
ROW D3 : ... .. B ... ... ... : ... .. E ... ... ... : F#4 00 . ... : ... .. C ... : ... .. . ... ... : ... .. 9 ... ... : ... .. 9 ... ... : ... .. D ... ...
ROW D4 : ... .. A ... ... ... : ... .. D ... ... ... : B-3 00 . ... : ... .. 6 ... : ... .. . ... ... : ... .. 8 ... ... : ... .. 8 ... ... : ... .. 8 ... ...
ROW D5 : ... .. 8 ... ... ... : ... .. A ... ... ... : A#3 00 . ... : ... .. 3 ... : ... .. . ... ... : ... .. 7 ... ... : ... .. 7 ... ... : ... .. . ... ...
ROW D6 : ... .. 1 ... ... ... : ... .. . ... ... ... : F-3 00 . ... : ... .. 2 ... : ... .. . ... ... : ... .. . ... ... : ... .. . ... ... : ... .. . ... ...
ROW D7 : ... .. . ... ... ... : ... .. . ... ... ... : --- .. . ... : ... .. 0 ... : ... .. . ... ... : ... .. 6 ... ... : ... .. 6 ... ... : --- .. . P7E ...
ROW D8 : C-2 00 C ... ... ... : C-3 00 F ... ... ... : D#3 00 . ... : C-# 00 8 ... : ... .. . ... ... : ... .. . ... ... : ... .. . ... ... : D#2 01 F P80 ...
ROW D9 : ... .. B ... ... ... : ... .. E ... ... ... : ... .. . ... : ... .. 6 ... : ... .. . ... ... : ... .. 5 ... ... : ... .. 5 ... ... : ... .. D ... ...
ROW DA : ... .. A ... ... ... : ... .. D ... ... ... : ... .. . ... : ... .. 3 ... : ... .. . ... ... : ... .. . ... ... : ... .. . ... ... : ... .. 8 ... ...
ROW DB : ... .. 8 ... ... ... : ... .. A ... ... ... : ... .. . ... : ... .. 1 ... : ... .. . ... ... : ... .. . ... ... : ... .. . ... ... : ... .. . ... ...
ROW DC : ... .. 1 ... ... ... : ... .. 2 ... ... ... : ... .. . ... : ... .. . ... : ... .. . ... ... : ... .. . ... ... : ... .. . ... ... : ... .. . ... ...
ROW DD : ... .. . ... ... ... : ... .. . ... ... ... : --- .. . ... : ... .. 0 ... : ... .. . ... ... : ... .. . ... ... : ... .. . ... ... : --- .. . ... ...
ROW DE : G#1 00 C ... ... ... : F-3 00 F ... ... ... : F-3 00 . ... : ... .. 8 ... : ... .. . ... ... : ... .. . ... ... : ... .. . ... ... : F-2 01 F ... ...
ROW DF : ... .. B ... ... ... : ... .. E ... ... ... : ... .. . ... : ... .. 6 ... : ... .. . ... ... : ... .. . ... ... : ... .. . ... ... : ... .. D ... ...
ROW E0 : ... .. A ... ... ... : ... .. D ... ... ... : ... .. . ... : ... .. 3 ... : ... .. . ... ... : ... .. . ... ... : ... .. . ... ... : ... .. 8 ... ...
ROW E1 : ... .. 8 ... ... ... : ... .. A ... ... ... : --- .. . ... : ... .. 1 ... : ... .. . ... ... : ... .. . ... ... : ... .. . ... ... : --- .. . P7E ...
ROW E2 : ... .. . ... ... ... : ... .. 2 ... ... ... : ... .. . ... : ... .. . ... : ... .. . ... ... : ... .. . ... ... : ... .. . ... ... : ... .. . ... ...
ROW E3 : ... .. . ... ... ... : ... .. . ... ... ... : ... .. . ... : ... .. 0 ... : ... .. . ... ... : ... .. . ... ... : ... .. . ... ... : ... .. . ... ...
ROW E4 : G#2 00 C ... ... ... : G-3 00 F ... ... ... : B-5 00 . ... : 7-# 00 F ... : ... .. . ... ... : ... .. . ... ... : ... .. . ... ... : C-3 01 F P80 ...
ROW E5 : ... .. B ... ... ... : ... .. E ... ... ... : C#5 00 . ... : ... .. C ... : ... .. . ... ... : ... .. . ... ... : ... .. . ... ... : ... .. D ... ...
ROW E6 : ... .. A ... ... ... : ... .. D ... ... ... : F#4 00 . ... : ... .. 6 ... : ... .. . ... ... : ... .. . ... ... : ... .. . ... ... : ... .. 8 ... ...
ROW E7 : ... .. 8 ... ... ... : ... .. A ... ... ... : F-4 00 . ... : ... .. 3 ... : ... .. . ... ... : ... .. . ... ... : ... .. . ... ... : ... .. . ... ...
ROW E8 : ... .. 1 ... ... ... : ... .. . ... ... ... : C-4 00 . ... : ... .. 2 ... : ... .. . ... ... : ... .. . ... ... : ... .. . ... ... : ... .. . ... ...
ROW E9 : ... .. . ... ... ... : ... .. . ... ... ... : ... .. . ... : ... .. 0 ... : ... .. . ... ... : ... .. . ... ... : ... .. . ... ... : ... .. . ... ...
ROW EA : ... .. C ... ... ... : ... .. . ... ... ... : ... .. . ... : 1-# 00 8 ... : ... .. . ... ... : ... .. . ... ... : ... .. . ... ... : ... .. . ... ...
ROW EB : ... .. B ... ... ... : ... .. . ... ... ... : ... .. . ... : ... .. 6 ... : ... .. . ... ... : ... .. . ... ... : ... .. . ... ... : ... .. . ... ...
ROW EC : ... .. A ... ... ... : ... .. . ... ... ... : ... .. . ... : ... .. 3 ... : ... .. . ... ... : ... .. . ... ... : ... .. . ... ... : ... .. . ... ...
ROW ED : ... .. 8 ... ... ... : ... .. . ... ... ... : ... .. . ... : ... .. 1 ... : ... .. . ... ... : ... .. . ... ... : ... .. . ... ... : ... .. . ... ...
ROW EE : ... .. 1 ... ... ... : ... .. . ... ... ... : ... .. . ... : ... .. . ... : ... .. . ... ... : ... .. . ... ... : ... .. . ... ... : ... .. . ... ...
ROW EF : ... .. . ... ... ... : ... .. . ... ... ... : ... .. . ... : ... .. 0 ... : ... .. . ... ... : ... .. . ... ... : ... .. . ... ... : ... .. . ... ...
ROW F0 : B-1 00 C ... ... ... : ... .. . ... ... ... : B-3 00 . ... : 7-# 00 F ... : ... .. . ... ... : ... .. . ... ... : ... .. . ... ... : B-2 01 F ... ...
ROW F1 : ... .. B ... ... ... : ... .. . ... ... ... : ... .. . ... : ... .. C ... : ... .. . ... ... : ... .. . ... ... : ... .. . ... ... : ... .. D ... ...
ROW F2 : ... .. A ... ... ... : ... .. . ... ... ... : ... .. . ... : ... .. 6 ... : ... .. . ... ... : ... .. . ... ... : ... .. . ... ... : ... .. 8 ... ...
ROW F3 : ... .. 8 ... ... ... : ... .. . ... ... ... : ... .. . ... : ... .. 3 ... : ... .. . ... ... : ... .. . ... ... : ... .. . ... ... : ... .. . ... ...
ROW F4 : ... .. 1 ... ... ... : ... .. 2 ... ... ... : ... .. . ... : ... .. 2 ... : ... .. . ... ... : ... .. . ... ... : ... .. . ... ... : ... .. . ... ...
ROW F5 : ... .. . ... ... ... : ... .. . ... ... ... : ... .. . ... : ... .. 0 ... : ... .. . ... ... : ... .. . ... ... : ... .. . ... ... : ... .. . ... ...
ROW F6 : B-2 00 C ... ... ... : C-3 00 F ... ... ... : ... .. . ... : 1-# 00 8 ... : ... .. . ... ... : ... .. . ... ... : ... .. . ... ... : ... .. . ... ...
ROW F7 : ... .. B ... ... ... : ... .. E ... ... ... : ... .. . ... : ... .. 6 ... : ... .. . ... ... : ... .. . ... ... : ... .. . ... ... : ... .. . ... ...
ROW F8 : ... .. A ... ... ... : ... .. D ... ... ... : ... .. . ... : ... .. 3 ... : ... .. . ... ... : ... .. . ... ... : ... .. . ... ... : ... .. . ... ...
ROW F9 : ... .. 8 ... ... ... : ... .. A ... ... ... : ... .. . ... : ... .. 1 ... : ... .. . ... ... : ... .. . ... ... : ... .. . ... ... : ... .. . ... ...
ROW FA : ... .. 1 ... ... ... : ... .. . ... ... ... : ... .. . ... : ... .. . ... : ... .. . ... ... : ... .. . ... ... : ... .. . ... ... : ... .. . ... ...
ROW FB : ... .. . ... ... ... : ... .. . ... ... ... : --- .. . ... : ... .. 0 ... : ... .. . ... ... : ... .. . ... ... : ... .. . ... ... : --- .. . P8B ...
ROW FC : ... .. C ... ... ... : F-3 00 F ... ... ... : F-3 00 . ... : 7-# 00 F ... : ... .. . ... ... : ... .. . ... ... : ... .. . ... ... : F-2 01 F P80 ...
ROW FD : ... .. B ... ... ... : ... .. E ... ... ... : ... .. . ... : ... .. C ... : ... .. . ... ... : ... .. . ... ... : ... .. . ... ... : ... .. D ... ...
ROW FE : ... .. A ... ... ... : ... .. D ... ... ... : ... .. . ... : ... .. 6 ... : ... .. . ... ... : ... .. . ... ... : ... .. . ... ... : ... .. 8 ... ...
ROW FF : ... .. 8 ... ... ... : ... .. A ... ... ... : ... .. . ... : ... .. 3 ... : ... .. . ... ... : ... .. . ... ... : ... .. . ... ... : ... .. . ... ...

PATTERN 10
ROW 00 : ... .. 1 ... ... ... : ... .. 2 ... ... ... : ... .. . ... : ... .. 2 ... : ... .. . ... ... : ... .. . ... ... : ... .. . ... ... : ... .. . ... ...
ROW 01 : ... .. . ... ... ... : ... .. . ... ... ... : ... .. . ... : ... .. 0 ... : ... .. . ... ... : ... .. . ... ... : ... .. . ... ... : ... .. . ... ...
ROW 02 : F-2 00 C ... ... ... : G-3 00 F ... ... ... : ... .. . ... : 1-# 00 8 ... : ... .. . ... ... : ... .. . ... ... : ... .. . ... ... : ... .. . ... ...
ROW 03 : ... .. B ... ... ... : ... .. E ... ... ... : ... .. . ... : ... .. 6 ... : ... .. . ... ... : ... .. . ... ... : ... .. . ... ... : ... .. . ... ...
ROW 04 : ... .. A ... ... ... : ... .. D ... ... ... : ... .. . ... : ... .. 3 ... : ... .. . ... ... : ... .. . ... ... : ... .. . ... ... : ... .. . ... ...
ROW 05 : ... .. 8 ... ... ... : ... .. A ... ... ... : ... .. . ... : ... .. 1 ... : ... .. . ... ... : ... .. . ... ... : ... .. . ... ... : ... .. . ... ...
ROW 06 : ... .. 1 ... ... ... : ... .. 2 ... ... ... : ... .. . ... : ... .. . ... : ... .. . ... ... : ... .. . ... ... : ... .. . ... ... : ... .. . ... ...
ROW 07 : ... .. . ... ... ... : ... .. . ... ... ... : --- .. . ... : ... .. 0 ... : ... .. . ... ... : ... .. . ... ... : ... .. . ... ... : --- .. . P7E ...
ROW 08 : E-3 00 C ... ... ... : A#3 00 F ... ... ... : E-5 00 . ... : ... .. F ... : ... .. . ... ... : ... .. A ... ... : C-4 01 A ... ... : F-2 01 F P80 ...
ROW 09 : ... .. B ... ... ... : ... .. E ... ... ... : F#4 00 . ... : ... .. C ... : ... .. . ... ... : ... .. 9 ... ... : ... .. 9 ... ... : ... .. D ... ...
ROW 0A : ... .. A ... ... ... : ... .. D ... ... ... : B-3 00 . ... : ... .. 6 ... : ... .. . ... ... : ... .. 8 ... ... : ... .. 8 ... ... : ... .. 8 ... ...
ROW 0B : ... .. 8 ... ... ... : ... .. A ... ... ... : A#3 00 . ... : ... .. 3 ... : ... .. . ... ... : ... .. 7 ... ... : ... .. 7 ... ... : ... .. . ... ...
ROW 0C : ... .. . ... ... ... : ... .. . ... ... ... : F-3 00 . ... : ... .. 2 ... : ... .. . ... ... : ... .. . ... ... : ... .. . ... ... : ... .. . ... ...
ROW 0D : ... .. . ... ... ... : ... .. . ... ... ... : ... .. . ... : ... .. 0 ... : ... .. . ... ... : ... .. 6 ... ... : ... .. 6 ... ... : ... .. . ... ...
ROW 0E : F-1 00 C ... ... ... : ... .. . ... ... ... : ... .. . ... : C-# 00 8 ... : ... .. . ... ... : G#3 01 A ... ... : G#3 01 A ... ... : ... .. . ... ...
ROW 0F : ... .. B ... ... ... : ... .. . ... ... ... : ... .. . ... : ... .. 6 ... : ... .. . ... ... : ... .. 9 ... ... : ... .. 9 ... ... : ... .. . ... ...
ROW 10 : ... .. A ... ... ... : ... .. . ... ... ... : ... .. . ... : ... .. 3 ... : ... .. . ... ... : ... .. 8 ... ... : ... .. 8 ... ... : ... .. . ... ...
ROW 11 : ... .. 8 ... ... ... : ... .. . ... ... ... : D#3 00 . P88 : ... .. 1 ... : ... .. . ... ... : ... .. 7 ... ... : ... .. 7 ... ... : E-2 01 8 P8C ...
ROW 12 : ... .. 1 ... ... ... : ... .. . ... ... ... : D-3 00 . P7D : ... .. . ... : ... .. . ... ... : ... .. . ... ... : ... .. . ... ... : ... .. . P6C ...
ROW 13 : ... .. . ... ... ... : ... .. . ... ... ... : C-3 00 . P8C : ... .. 0 ... : ... .. . ... ... : ... .. 6 ... ... : ... .. 6 ... ... : D#2 01 8 P7A ...
ROW 14 : ... .. C ... ... ... : ... .. . ... ... ... : B-2 00 . P85 : ... .. 8 ... : ... .. . ... ... : F-3 01 A ... ... : F-3 01 A ... ... : D-2 01 8 P8B ...
ROW 15 : ... .. B ... ... ... : ... .. . ... ... ... : A#2 00 . P80 : ... .. 6 ... : ... .. . ... ... : ... .. 9 ... ... : ... .. 9 ... ... : ... .. . P6B ...
ROW 16 : ... .. A ... ... ... : ... .. . ... ... ... : A-2 00 . P7C : ... .. 3 ... : ... .. . ... ... : ... .. 8 ... ... : ... .. 8 ... ... : C#2 01 8 P7E ...
ROW 17 : ... .. 8 ... ... ... : ... .. . ... ... ... : G#2 00 . P7B : ... .. 1 ... : ... .. . ... ... : ... .. 7 ... ... : ... .. 7 ... ... : C-2 01 8 P95 ...
ROW 18 : ... .. 1 ... ... ... : ... .. . ... ... ... : G-2 00 . ... : ... .. . ... : ... .. . ... ... : ... .. . ... ... : ... .. . ... ... : ... .. . P75 ...
ROW 19 : ... .. . ... ... ... : ... .. . ... ... ... : F#2 00 . P7D : ... .. 0 ... : ... .. . ... ... : ... .. 6 ... ... : ... .. 6 ... ... : B-1 01 8 P8F ...
ROW 1A : E-3 00 C ... ... ... : ... .. . ... ... ... : E-5 00 . P80 : 1-# 00 F ... : ... .. . ... ... : G#4 01 A ... ... : C-4 01 A ... ... : F-2 01 F P80 ...
ROW 1B : ... .. B ... ... ... : ... .. 2 ... ... ... : F#4 00 . ... : ... .. C ... : ... .. . ... ... : ... .. 9 ... ... : ... .. 9 ... ... : ... .. D ... ...
ROW 1C : ... .. A ... ... ... : ... .. . ... ... ... : B-3 00 . ... : ... .. 6 ... : ... .. . ... ... : ... .. 8 ... ... : ... .. 8 ... ... : ... .. 8 ... ...
ROW 1D : ... .. 8 ... ... ... : ... .. . ... ... ... : A#3 00 . ... : ... .. 3 ... : ... .. . ... ... : ... .. 7 ... ... : ... .. 7 ... ... : ... .. . ... ...
ROW 1E : ... .. . ... ... ... : ... .. 1 ... ... ... : F-3 00 . ... : ... .. 2 ... : ... .. . ... ... : ... .. . ... ... : ... .. . ... ... : ... .. . ... ...
ROW 1F : ... .. . ... ... ... : ... .. . ... ... ... : ... .. . ... : ... .. 0 ... : ... .. . ... ... : ... .. 6 ... ... : ... .. 6 ... ... : ... .. . ... ...
ROW 20 : F-1 00 C ... ... ... : G#3 00 F ... ... ... : ... .. . ... : C-# 00 8 ... : ... .. . ... ... : G#3 01 A ... ... : G#3 01 A ... ... : ... .. . ... ...
ROW 21 : ... .. B ... ... ... : ... .. E ... ... ... : ... .. . ... : ... .. 6 ... : ... .. . ... ... : ... .. 9 ... ... : ... .. 9 ... ... : ... .. . ... ...
ROW 22 : ... .. A ... ... ... : ... .. D ... ... ... : ... .. . ... : ... .. 3 ... : ... .. . ... ... : ... .. 8 ... ... : ... .. 8 ... ... : ... .. . ... ...
ROW 23 : ... .. 8 ... ... ... : ... .. A ... ... ... : D#3 00 . P88 : ... .. 1 ... : ... .. . ... ... : ... .. 7 ... ... : ... .. 7 ... ... : E-2 01 8 P8C ...
ROW 24 : ... .. 1 ... ... ... : ... .. 2 ... ... ... : D-3 00 . P7D : ... .. . ... : ... .. . ... ... : ... .. . ... ... : ... .. . ... ... : ... .. . P6C ...
ROW 25 : ... .. . ... ... ... : ... .. . ... ... ... : C-3 00 . P8C : ... .. 0 ... : ... .. . ... ... : ... .. 6 ... ... : ... .. 6 ... ... : D#2 01 8 P7A ...
ROW 26 : ... .. C ... ... ... : G-3 00 F ... ... ... : B-2 00 . P85 : ... .. 8 ... : ... .. . ... ... : F-3 01 A ... ... : F-3 01 A ... ... : D-2 01 8 P8B ...
ROW 27 : ... .. B ... ... ... : ... .. E ... ... ... : A#2 00 . P80 : ... .. 6 ... : ... .. . ... ... : ... .. 9 ... ... : ... .. 9 ... ... : ... .. . P6B ...
ROW 28 : ... .. A ... ... ... : ... .. D ... ... ... : A-2 00 . P7C : ... .. 3 ... : ... .. . ... ... : ... .. 8 ... ... : ... .. 8 ... ... : C#2 01 8 P7E ...
ROW 29 : ... .. 8 ... ... ... : ... .. A ... ... ... : G#2 00 . P7B : ... .. 1 ... : ... .. . ... ... : ... .. 7 ... ... : ... .. 7 ... ... : C-2 01 8 P95 ...
ROW 2A : ... .. 1 ... ... ... : ... .. 2 ... ... ... : G-2 00 . ... : ... .. . ... : ... .. . ... ... : ... .. . ... ... : ... .. . ... ... : ... .. . P75 ...
ROW 2B : ... .. . ... ... ... : ... .. . ... ... ... : F#2 00 . P7D : ... .. 0 ... : ... .. . ... ... : ... .. 6 ... ... : ... .. 6 ... ... : B-1 01 8 P8F ...
ROW 2C : D#3 00 C ... ... ... : G#3 00 F ... ... ... : E-4 00 . P80 : 7-# 00 F ... : ... .. . ... ... : G#4 01 A ... ... : C-4 01 A ... ... : F-1 01 F P80 ...
ROW 2D : ... .. B ... ... ... : ... .. E ... ... ... : F#3 00 . ... : ... .. C ... : ... .. . ... ... : ... .. 9 ... ... : ... .. 9 ... ... : ... .. D ... ...
ROW 2E : ... .. A ... ... ... : ... .. D ... ... ... : B-2 00 . ... : ... .. 6 ... : ... .. . ... ... : ... .. 8 ... ... : ... .. 8 ... ... : ... .. 8 ... ...
ROW 2F : ... .. 8 ... ... ... : ... .. A ... ... ... : A#2 00 . ... : ... .. 3 ... : ... .. . ... ... : ... .. 7 ... ... : ... .. 7 ... ... : ... .. . ... ...
ROW 30 : ... .. . ... ... ... : ... .. . ... ... ... : F-2 00 . ... : ... .. 2 ... : ... .. . ... ... : ... .. . ... ... : ... .. . ... ... : ... .. . ... ...
ROW 31 : ... .. . ... ... ... : ... .. . ... ... ... : ... .. . ... : ... .. 0 ... : ... .. . ... ... : ... .. 6 ... ... : ... .. 6 ... ... : ... .. . ... ...
ROW 32 : F-1 00 C ... ... ... : ... .. . ... ... ... : ... .. . ... : ... .. 8 ... : ... .. . ... ... : G#3 01 A ... ... : G#3 01 A ... ... : ... .. . ... ...
ROW 33 : ... .. B ... ... ... : ... .. . ... ... ... : ... .. . ... : ... .. 6 ... : ... .. . ... ... : ... .. 9 ... ... : ... .. 9 ... ... : ... .. . ... ...
ROW 34 : ... .. A ... ... ... : ... .. . ... ... ... : ... .. . ... : ... .. 3 ... : ... .. . ... ... : ... .. 8 ... ... : ... .. 8 ... ... : ... .. . ... ...
ROW 35 : ... .. 8 ... ... ... : ... .. . ... ... ... : E-2 00 . P86 : ... .. 1 ... : ... .. . ... ... : ... .. 7 ... ... : ... .. 7 ... ... : ... .. . P60 ...
ROW 36 : ... .. 1 ... ... ... : ... .. . ... ... ... : D#2 00 . P8E : ... .. . ... : ... .. . ... ... : ... .. . ... ... : ... .. . ... ... : E-1 01 8 P97 ...
ROW 37 : ... .. . ... ... ... : ... .. . ... ... ... : ... .. . P6E : ... .. 0 ... : ... .. . ... ... : ... .. 6 ... ... : ... .. 6 ... ... : ... .. . P77 ...
ROW 38 : ... .. C ... ... ... : ... .. . ... ... ... : D-2 00 . P79 : 4-# 00 F ... : ... .. . ... ... : B-2 01 A ... ... : D#3 01 A ... ... : ... .. . P57 ...
ROW 39 : ... .. B ... ... ... : ... .. . ... ... ... : C#2 00 . P86 : ... .. C ... : ... .. . ... ... : ... .. 9 ... ... : ... .. 9 ... ... : D#1 01 8 P94 ...
ROW 3A : ... .. A ... ... ... : ... .. . ... ... ... : C-2 00 . P96 : ... .. 6 ... : ... .. . ... ... : ... .. 8 ... ... : ... .. 8 ... ... : ... .. . P74 ...
ROW 3B : ... .. 8 ... ... ... : ... .. . ... ... ... : ... .. . P76 : ... .. 3 ... : ... .. . ... ... : ... .. 7 ... ... : ... .. 7 ... ... : ... .. . P54 ...
ROW 3C : ... .. 1 ... ... ... : ... .. . ... ... ... : B-1 00 . P89 : ... .. 2 ... : ... .. . ... ... : ... .. . ... ... : ... .. . ... ... : D-1 01 8 P95 ...
ROW 3D : ... .. . ... ... ... : ... .. . ... ... ... : ... .. . P69 : ... .. 0 ... : ... .. . ... ... : ... .. 6 ... ... : ... .. 6 ... ... : ... .. . P75 ...
ROW 3E : D#3 00 C ... ... ... : ... .. . ... ... ... : E-4 00 . P80 : 9-# 00 8 ... : ... .. . ... ... : G#4 01 A ... ... : C-4 01 A ... ... : F-1 01 F P80 ...
ROW 3F : ... .. B ... ... ... : ... .. 2 ... ... ... : F#3 00 . ... : ... .. 6 ... : ... .. . ... ... : ... .. 9 ... ... : ... .. 9 ... ... : ... .. D ... ...
ROW 40 : ... .. A ... ... ... : ... .. . ... ... ... : B-2 00 . ... : ... .. 3 ... : ... .. . ... ... : ... .. 8 ... ... : ... .. 8 ... ... : ... .. 8 ... ...
ROW 41 : ... .. 8 ... ... ... : ... .. . ... ... ... : A#2 00 . ... : ... .. 1 ... : ... .. . ... ... : ... .. 7 ... ... : ... .. 7 ... ... : ... .. . ... ...
ROW 42 : ... .. . ... ... ... : ... .. 1 ... ... ... : F-2 00 . ... : ... .. . ... : ... .. . ... ... : ... .. . ... ... : ... .. . ... ... : ... .. . ... ...
ROW 43 : ... .. . ... ... ... : ... .. . ... ... ... : ... .. . ... : ... .. 0 ... : ... .. . ... ... : ... .. 6 ... ... : ... .. 6 ... ... : ... .. . ... ...
ROW 44 : F-1 00 C ... ... ... : ... .. F ... ... ... : ... .. . ... : 7-# 00 F ... : ... .. . ... ... : G#3 01 A ... ... : G#3 01 A ... ... : ... .. . ... ...
ROW 45 : ... .. B ... ... ... : ... .. E ... ... ... : ... .. . ... : ... .. C ... : ... .. . ... ... : ... .. 9 ... ... : ... .. 9 ... ... : ... .. . ... ...
ROW 46 : ... .. A ... ... ... : ... .. D ... ... ... : ... .. . ... : ... .. 6 ... : ... .. . ... ... : ... .. 8 ... ... : ... .. 8 ... ... : ... .. . ... ...
ROW 47 : ... .. 8 ... ... ... : ... .. A ... ... ... : E-2 00 . P86 : ... .. 3 ... : ... .. . ... ... : ... .. 7 ... ... : ... .. 7 ... ... : ... .. . P60 ...
ROW 48 : ... .. 1 ... ... ... : ... .. 2 ... ... ... : D#2 00 . P8E : ... .. 2 ... : ... .. . ... ... : ... .. . ... ... : ... .. . ... ... : E-1 01 8 P97 ...
ROW 49 : ... .. . ... ... ... : ... .. . ... ... ... : ... .. . P6E : ... .. 0 ... : ... .. . ... ... : ... .. 6 ... ... : ... .. 6 ... ... : ... .. . P77 ...
ROW 4A : ... .. C ... ... ... : A#3 00 F ... ... ... : D-2 00 . P79 : 5-# 00 8 ... : ... .. . ... ... : B-2 01 A ... ... : D#3 01 A ... ... : ... .. . P57 ...
ROW 4B : ... .. B ... ... ... : ... .. E ... ... ... : C#2 00 . P86 : ... .. 6 ... : ... .. . ... ... : ... .. 9 ... ... : ... .. 9 ... ... : D#1 01 8 P94 ...
ROW 4C : ... .. A ... ... ... : ... .. D ... ... ... : C-2 00 . P96 : ... .. 3 ... : ... .. . ... ... : ... .. 8 ... ... : ... .. 8 ... ... : ... .. . P74 ...
ROW 4D : ... .. 8 ... ... ... : ... .. A ... ... ... : ... .. . P76 : ... .. 1 ... : ... .. . ... ... : ... .. 7 ... ... : ... .. 7 ... ... : ... .. . P54 ...
ROW 4E : ... .. 1 ... ... ... : ... .. 2 ... ... ... : B-1 00 . P89 : ... .. . ... : ... .. . ... ... : ... .. . ... ... : ... .. . ... ... : D-1 01 8 P95 ...
ROW 4F : ... .. . ... ... ... : ... .. . ... ... ... : ... .. . P69 : ... .. 0 ... : ... .. . ... ... : ... .. 6 ... ... : ... .. 6 ... ... : ... .. . P75 ...
ROW 50 : B-3 00 F ... V02 ... : E-2 00 B ... ... ... : D#4 00 . P80 : 1-# 00 F ... : ... .. . ... ... : B-3 01 6 ... ... : G#3 01 6 ... ... : E-4 01 A P80 ...
ROW 51 : ... .. E ... ... ... : ... .. F ... ... ... : F-3 00 . ... : ... .. C ... : ... .. . ... ... : ... .. . ... ... : ... .. . ... ... : ... .. 8 ... ...
ROW 52 : ... .. D ... ... ... : ... .. B ... ... ... : A#2 00 . ... : ... .. 6 ... : ... .. . ... ... : ... .. 5 ... ... : ... .. 5 ... ... : ... .. 5 ... ...
ROW 53 : ... .. A ... ... ... : ... .. 0 ... ... ... : A-2 00 . ... : ... .. 3 ... : ... .. . ... ... : ... .. 4 ... ... : ... .. 4 ... ... : ... .. . ... ...
ROW 54 : ... .. . ... ... ... : E-2 00 8 P80 ... ... : E-2 00 . ... : ... .. 2 ... : ... .. . ... ... : ... .. . ... ... : ... .. . ... ... : ... .. . ... ...
ROW 55 : ... .. . ... ... ... : ... .. C ... ... ... : ... .. . ... : ... .. 0 ... : ... .. . ... ... : ... .. . ... ... : ... .. . ... ... : ... .. . ... ...
ROW 56 : ... .. . ... ... ... : B-1 00 B ... ... ... : ... .. . ... : C-# 00 8 ... : ... .. . ... ... : ... .. . ... ... : ... .. . ... ... : ... .. . ... ...
ROW 57 : ... .. . ... ... ... : ... .. F ... ... ... : ... .. . ... : ... .. 6 ... : ... .. . ... ... : ... .. 3 ... ... : ... .. 3 ... ... : ... .. . ... ...
ROW 58 : ... .. . ... ... ... : ... .. B ... ... ... : ... .. . ... : ... .. 3 ... : ... .. . ... ... : ... .. . ... ... : ... .. . ... ... : ... .. . ... ...
ROW 59 : ... .. . ... ... ... : ... .. 0 ... ... ... : ... .. . ... : ... .. 1 ... : ... .. . ... ... : ... .. . ... ... : ... .. . ... ... : ... .. . ... ...
ROW 5A : ... .. . ... ... ... : B-1 00 8 P80 ... ... : ... .. . ... : ... .. . ... : ... .. . ... ... : ... .. . ... ... : ... .. . ... ... : ... .. . ... ...
ROW 5B : ... .. . ... ... ... : ... .. C ... ... ... : ... .. . ... : ... .. 0 ... : ... .. . ... ... : ... .. . ... ... : ... .. . ... ... : ... .. . ... ...
ROW 5C : ... .. . ... ... ... : G#2 00 B ... ... ... : F-2 00 . P7A : ... .. 8 ... : ... .. . ... ... : ... .. . ... ... : ... .. . ... ... : ... .. . ... ...
ROW 5D : ... .. . ... ... ... : ... .. F ... ... ... : F#2 00 . P76 : ... .. 6 ... : ... .. . ... ... : ... .. . ... ... : ... .. . ... ... : ... .. . ... ...
ROW 5E : ... .. . ... ... ... : ... .. B ... ... ... : G-2 00 . P74 : ... .. 3 ... : ... .. . ... ... : ... .. . ... ... : ... .. . ... ... : ... .. . ... ...
ROW 5F : ... .. . ... ... ... : ... .. 0 ... ... ... : G#2 00 . ... : ... .. 1 ... : ... .. . ... ... : ... .. . ... ... : ... .. . ... ... : ... .. . ... ...
ROW 60 : ... .. . ... ... ... : G#2 00 8 P80 ... ... : A-2 00 . P75 : ... .. . ... : ... .. . ... ... : ... .. . ... ... : ... .. . ... ... : ... .. . ... ...
ROW 61 : ... .. . ... ... ... : ... .. C ... ... ... : A#2 00 . P79 : ... .. 0 ... : ... .. . ... ... : ... .. . ... ... : ... .. . ... ... : ... .. . ... ...
ROW 62 : ... .. . P84 ... ... : B-2 00 B ... ... ... : G-5 00 . P80 : 1-# 00 F ... : ... .. . ... ... : C#4 01 6 ... ... : A#3 01 6 ... ... : F#4 01 A ... ...
ROW 63 : ... .. . P86 ... ... : ... .. F ... ... ... : A-4 00 . ... : ... .. C ... : ... .. . ... ... : ... .. . ... ... : ... .. . ... ... : ... .. 8 ... ...
ROW 64 : ... .. . P85 ... ... : ... .. B ... ... ... : D-4 00 . ... : ... .. 6 ... : ... .. . ... ... : ... .. 5 ... ... : ... .. 5 ... ... : ... .. 5 ... ...
ROW 65 : ... .. . P82 ... ... : ... .. 0 ... ... ... : C#4 00 . ... : ... .. 3 ... : ... .. . ... ... : ... .. 4 ... ... : ... .. 4 ... ... : ... .. . ... ...
ROW 66 : ... .. . P7E ... ... : B-2 00 8 P80 ... ... : G#3 00 . ... : ... .. 2 ... : ... .. . ... ... : ... .. . ... ... : ... .. . ... ... : ... .. . ... ...
ROW 67 : ... .. . P7B ... ... : ... .. C ... ... ... : --- .. . ... : ... .. 0 ... : ... .. . ... ... : ... .. . ... ... : ... .. . ... ... : ... .. . ... ...
ROW 68 : ... .. . P7A ... ... : E-2 00 B ... ... ... : F#3 00 . ... : C-# 00 8 ... : ... .. . ... ... : ... .. . ... ... : ... .. . ... ... : ... .. . ... ...
ROW 69 : ... .. . P7C ... ... : ... .. F ... ... ... : ... .. . ... : ... .. 6 ... : ... .. . ... ... : ... .. 3 ... ... : ... .. 3 ... ... : ... .. . ... ...
ROW 6A : ... .. . P80 ... ... : ... .. B ... ... ... : ... .. . ... : ... .. 3 ... : ... .. . ... ... : ... .. . ... ... : ... .. . ... ... : ... .. . ... ...
ROW 6B : ... .. . P83 ... ... : ... .. 0 ... ... ... : ... .. . ... : ... .. 1 ... : ... .. . ... ... : ... .. . ... ... : ... .. . ... ... : ... .. . ... ...
ROW 6C : ... .. . P86 ... ... : E-2 00 8 P80 ... ... : ... .. . ... : ... .. . ... : ... .. . ... ... : ... .. . ... ... : ... .. . ... ... : ... .. . ... ...
ROW 6D : ... .. . ... ... ... : ... .. C ... ... ... : --- .. . ... : ... .. 0 ... : ... .. . ... ... : ... .. . ... ... : ... .. . ... ... : ... .. . ... ...
ROW 6E : ... .. . P82 ... ... : E-3 00 B ... ... ... : G#3 00 . ... : ... .. 8 ... : ... .. . ... ... : ... .. . ... ... : ... .. . ... ... : ... .. . ... ...
ROW 6F : ... .. . P7F ... ... : ... .. F ... ... ... : ... .. . ... : ... .. 6 ... : ... .. . ... ... : ... .. . ... ... : ... .. . ... ... : ... .. . ... ...
ROW 70 : ... .. . P7B ... ... : ... .. B ... ... ... : ... .. . ... : ... .. 3 ... : ... .. . ... ... : ... .. . ... ... : ... .. . ... ... : ... .. . ... ...
ROW 71 : ... .. . P7A ... ... : ... .. 0 ... ... ... : --- .. . ... : ... .. 1 ... : ... .. . ... ... : ... .. . ... ... : ... .. . ... ... : ... .. . ... ...
ROW 72 : ... .. . P7C ... ... : E-3 00 8 P80 ... ... : ... .. . ... : ... .. . ... : ... .. . ... ... : ... .. . ... ... : ... .. . ... ... : ... .. . ... ...
ROW 73 : ... .. . P80 ... ... : ... .. C ... ... ... : ... .. . ... : ... .. 0 ... : ... .. . ... ... : ... .. . ... ... : ... .. . ... ... : ... .. . ... ...
ROW 74 : C#4 00 F ... ... ... : G#3 00 B ... ... ... : D#6 00 . ... : 7-# 00 F ... : ... .. . ... ... : A#3 01 6 ... ... : F#3 01 6 ... ... : D#4 01 A ... ...
ROW 75 : ... .. E ... ... ... : ... .. F ... ... ... : F-5 00 . ... : ... .. C ... : ... .. . ... ... : ... .. . ... ... : ... .. . ... ... : ... .. 8 ... ...
ROW 76 : ... .. D ... ... ... : ... .. B ... ... ... : A#4 00 . ... : ... .. 6 ... : ... .. . ... ... : ... .. 5 ... ... : ... .. 5 ... ... : ... .. 5 ... ...
ROW 77 : ... .. A ... ... ... : ... .. 0 ... ... ... : A-4 00 . ... : ... .. 3 ... : ... .. . ... ... : ... .. 4 ... ... : ... .. 4 ... ... : ... .. . ... ...
ROW 78 : ... .. . ... ... ... : G#3 00 8 P80 ... ... : E-4 00 . ... : ... .. 2 ... : ... .. . ... ... : ... .. . ... ... : ... .. . ... ... : ... .. . ... ...
ROW 79 : ... .. . ... ... ... : ... .. C ... ... ... : ... .. . ... : ... .. 0 ... : ... .. . ... ... : ... .. . ... ... : ... .. . ... ... : ... .. . ... ...
ROW 7A : ... .. . ... ... ... : B-2 00 B ... ... ... : ... .. . ... : 1-# 00 8 ... : ... .. . ... ... : ... .. . ... ... : ... .. . ... ... : ... .. . ... ...
ROW 7B : ... .. . ... ... ... : ... .. F ... ... ... : ... .. . ... : ... .. 6 ... : ... .. . ... ... : ... .. 3 ... ... : ... .. 3 ... ... : ... .. . ... ...
ROW 7C : ... .. . ... ... ... : ... .. B ... ... ... : ... .. . ... : ... .. 3 ... : ... .. . ... ... : ... .. . ... ... : ... .. . ... ... : ... .. . ... ...
ROW 7D : ... .. . ... ... ... : ... .. 0 ... ... ... : ... .. . ... : ... .. 1 ... : ... .. . ... ... : ... .. . ... ... : ... .. . ... ... : ... .. . ... ...
ROW 7E : ... .. . ... ... ... : B-2 00 8 P80 ... ... : ... .. . ... : ... .. . ... : ... .. . ... ... : ... .. . ... ... : ... .. . ... ... : ... .. . ... ...
ROW 7F : ... .. . ... ... ... : ... .. C ... ... ... : ... .. . ... : ... .. 0 ... : ... .. . ... ... : ... .. . ... ... : ... .. . ... ... : ... .. . ... ...
ROW 80 : B-3 00 F ... ... ... : E-3 00 B ... ... ... : D#4 00 . ... : 7-# 00 F ... : ... .. . ... ... : ... .. . ... ... : ... .. . ... ... : ... .. . ... ...
ROW 81 : ... .. E ... ... ... : ... .. F ... ... ... : ... .. . ... : ... .. C ... : ... .. . ... ... : ... .. . ... ... : ... .. . ... ... : ... .. . ... ...
ROW 82 : ... .. D ... ... ... : ... .. B ... ... ... : ... .. . ... : ... .. 6 ... : ... .. . ... ... : ... .. . ... ... : ... .. . ... ... : ... .. . ... ...
ROW 83 : ... .. A ... ... ... : ... .. 0 ... ... ... : ... .. . ... : ... .. 3 ... : ... .. . ... ... : ... .. . ... ... : ... .. . ... ... : ... .. . ... ...
ROW 84 : ... .. . ... ... ... : E-3 00 8 P80 ... ... : ... .. . ... : ... .. 2 ... : ... .. . ... ... : ... .. . ... ... : ... .. . ... ... : ... .. . ... ...
ROW 85 : ... .. . ... ... ... : ... .. C ... ... ... : ... .. . ... : ... .. 0 ... : ... .. . ... ... : ... .. . ... ... : ... .. . ... ... : ... .. . ... ...
ROW 86 : ... .. . ... ... ... : G#3 00 B ... ... ... : ... .. . ... : 1-# 00 8 ... : ... .. . ... ... : B-3 01 6 ... ... : G#3 01 6 ... ... : E-4 01 A ... ...
ROW 87 : ... .. . ... ... ... : ... .. F ... ... ... : ... .. . ... : ... .. 6 ... : ... .. . ... ... : ... .. . ... ... : ... .. . ... ... : ... .. 8 ... ...
ROW 88 : ... .. . ... ... ... : ... .. B ... ... ... : ... .. . ... : ... .. 3 ... : ... .. . ... ... : ... .. 5 ... ... : ... .. 5 ... ... : ... .. 5 ... ...
ROW 89 : ... .. . ... ... ... : ... .. 0 ... ... ... : ... .. . ... : ... .. 1 ... : ... .. . ... ... : ... .. 4 ... ... : ... .. 4 ... ... : ... .. . ... ...
ROW 8A : ... .. . ... ... ... : G#3 00 8 P80 ... ... : ... .. . ... : ... .. . ... : ... .. . ... ... : ... .. . ... ... : ... .. . ... ... : ... .. . ... ...
ROW 8B : ... .. . ... ... ... : ... .. C ... ... ... : --- .. . ... : ... .. 0 ... : ... .. . ... ... : ... .. . ... ... : ... .. . ... ... : ... .. . ... ...
ROW 8C : A#3 00 F ... ... ... : E-3 00 B ... ... ... : G#3 00 . ... : 7-# 00 F ... : ... .. . ... ... : ... .. . ... ... : ... .. . ... ... : ... .. . ... ...
ROW 8D : ... .. E ... ... ... : ... .. F ... ... ... : ... .. . ... : ... .. C ... : ... .. . ... ... : ... .. 3 ... ... : ... .. 3 ... ... : ... .. . ... ...
ROW 8E : ... .. D ... ... ... : ... .. B ... ... ... : ... .. . ... : ... .. 6 ... : ... .. . ... ... : ... .. . ... ... : ... .. . ... ... : ... .. . ... ...
ROW 8F : ... .. A ... ... ... : ... .. 0 ... ... ... : ... .. . ... : ... .. 3 ... : ... .. . ... ... : ... .. . ... ... : ... .. . ... ... : ... .. . ... ...
ROW 90 : ... .. . ... ... ... : E-3 00 8 P80 ... ... : ... .. . ... : ... .. 2 ... : ... .. . ... ... : ... .. . ... ... : ... .. . ... ... : ... .. . ... ...
ROW 91 : ... .. . ... ... ... : ... .. C ... ... ... : ... .. . ... : ... .. 0 ... : ... .. . ... ... : ... .. . ... ... : ... .. . ... ... : ... .. . ... ...
ROW 92 : ... .. . ... ... ... : G#3 00 B ... ... ... : ... .. . ... : 1-# 00 8 ... : ... .. . ... ... : ... .. . ... ... : ... .. . ... ... : ... .. . ... ...
ROW 93 : ... .. . ... ... ... : ... .. F ... ... ... : ... .. . ... : ... .. 6 ... : ... .. . ... ... : ... .. . ... ... : ... .. . ... ... : ... .. . ... ...
ROW 94 : ... .. . ... ... ... : ... .. B ... ... ... : ... .. . ... : ... .. 3 ... : ... .. . ... ... : ... .. . ... ... : ... .. . ... ... : ... .. . ... ...
ROW 95 : ... .. . ... ... ... : ... .. 0 ... ... ... : ... .. . ... : ... .. 1 ... : ... .. . ... ... : ... .. . ... ... : ... .. . ... ... : ... .. . ... ...
ROW 96 : ... .. . ... ... ... : G#3 00 8 P80 ... ... : ... .. . ... : ... .. . ... : ... .. . ... ... : ... .. . ... ... : ... .. . ... ... : ... .. . ... ...
ROW 97 : ... .. . ... ... ... : ... .. C ... ... ... : --- .. . ... : ... .. 0 ... : ... .. . ... ... : ... .. . ... ... : ... .. . ... ... : ... .. . ... ...
ROW 98 : G#3 00 F ... ... ... : C#4 00 B ... ... ... : C-4 00 . ... : ... .. F ... : ... .. . ... ... : G#3 01 6 ... ... : E-3 01 6 ... ... : C#4 01 A ... ...
ROW 99 : ... .. E ... ... ... : ... .. F ... ... ... : D-3 00 . ... : ... .. C ... : ... .. . ... ... : ... .. . ... ... : ... .. . ... ... : ... .. 8 ... ...
ROW 9A : ... .. D ... ... ... : ... .. B ... ... ... : G-2 00 . ... : ... .. 6 ... : ... .. . ... ... : ... .. 5 ... ... : ... .. 5 ... ... : ... .. 5 ... ...
ROW 9B : ... .. A ... ... ... : ... .. 0 ... ... ... : F#2 00 . ... : ... .. 3 ... : ... .. . ... ... : ... .. 4 ... ... : ... .. 4 ... ... : ... .. . ... ...
ROW 9C : ... .. . ... ... ... : C#4 00 8 P80 ... ... : C#2 00 . ... : ... .. 2 ... : ... .. . ... ... : ... .. . ... ... : ... .. . ... ... : ... .. . ... ...
ROW 9D : ... .. . ... ... ... : ... .. C ... ... ... : ... .. . ... : ... .. 0 ... : ... .. . ... ... : ... .. . ... ... : ... .. . ... ... : ... .. . ... ...
ROW 9E : ... .. . ... ... ... : E-3 00 B ... ... ... : ... .. . ... : C-# 00 8 ... : ... .. . ... ... : ... .. . ... ... : ... .. . ... ... : ... .. . ... ...
ROW 9F : ... .. . ... ... ... : ... .. F ... ... ... : ... .. . ... : ... .. 6 ... : ... .. . ... ... : ... .. 3 ... ... : ... .. 3 ... ... : ... .. . ... ...
ROW A0 : ... .. . ... ... ... : ... .. B ... ... ... : ... .. . ... : ... .. 3 ... : ... .. . ... ... : ... .. . ... ... : ... .. . ... ... : ... .. . ... ...
ROW A1 : ... .. . ... ... ... : ... .. 0 ... ... ... : ... .. . ... : ... .. 1 ... : ... .. . ... ... : ... .. . ... ... : ... .. . ... ... : ... .. . ... ...
ROW A2 : ... .. . ... ... ... : E-3 00 8 P80 ... ... : ... .. . ... : ... .. . ... : ... .. . ... ... : ... .. . ... ... : ... .. . ... ... : ... .. . ... ...
ROW A3 : ... .. . ... ... ... : ... .. C ... ... ... : ... .. . ... : ... .. 0 ... : ... .. . ... ... : ... .. . ... ... : ... .. . ... ... : ... .. . ... ...
ROW A4 : ... .. . ... ... ... : G#3 00 B ... ... ... : ... .. . ... : ... .. 8 ... : ... .. . ... ... : ... .. . ... ... : ... .. . ... ... : ... .. . ... ...
ROW A5 : ... .. . ... ... ... : ... .. F ... ... ... : ... .. . ... : ... .. 6 ... : ... .. . ... ... : ... .. . ... ... : ... .. . ... ... : ... .. . ... ...
ROW A6 : ... .. . ... ... ... : ... .. B ... ... ... : ... .. . ... : ... .. 3 ... : ... .. . ... ... : ... .. . ... ... : ... .. . ... ... : ... .. . ... ...
ROW A7 : ... .. . ... ... ... : ... .. 0 ... ... ... : ... .. . ... : ... .. 1 ... : ... .. . ... ... : ... .. . ... ... : ... .. . ... ... : ... .. . ... ...
ROW A8 : ... .. . ... ... ... : G#3 00 8 P80 ... ... : ... .. . ... : ... .. . ... : ... .. . ... ... : ... .. . ... ... : ... .. . ... ... : ... .. . ... ...
ROW A9 : ... .. . ... ... ... : ... .. C ... ... ... : ... .. . ... : ... .. 0 ... : ... .. . ... ... : ... .. . ... ... : ... .. . ... ... : ... .. . ... ...
ROW AA : G#2 00 F ... ... ... : C#4 00 B ... ... ... : C-5 00 . ... : 1-# 00 F ... : ... .. . ... ... : B-2 01 6 ... ... : G#2 01 6 ... ... : C#2 01 A ... ...
ROW AB : ... .. E ... ... ... : ... .. F ... ... ... : D-4 00 . ... : ... .. C ... : ... .. . ... ... : ... .. . ... ... : ... .. . ... ... : ... .. 8 ... ...
ROW AC : ... .. D ... ... ... : ... .. B ... ... ... : G-3 00 . ... : ... .. 6 ... : ... .. . ... ... : ... .. 5 ... ... : ... .. 5 ... ... : ... .. 5 ... ...
ROW AD : ... .. A ... ... ... : ... .. 0 ... ... ... : F#3 00 . ... : ... .. 3 ... : ... .. . ... ... : ... .. 4 ... ... : ... .. 4 ... ... : ... .. . ... ...
ROW AE : ... .. . ... ... ... : C#4 00 8 P80 ... ... : C#3 00 . ... : ... .. 2 ... : ... .. . ... ... : ... .. . ... ... : ... .. . ... ... : ... .. . ... ...
ROW AF : ... .. . ... ... ... : ... .. C ... ... ... : --- .. . ... : ... .. 0 ... : ... .. . ... ... : ... .. . ... ... : ... .. . ... ... : ... .. . ... ...
ROW B0 : ... .. . ... ... ... : G#3 00 B ... ... ... : D#3 00 . ... : C-# 00 8 ... : ... .. . ... ... : ... .. . ... ... : ... .. . ... ... : E-2 01 A ... ...
ROW B1 : ... .. . ... ... ... : ... .. F ... ... ... : ... .. . ... : ... .. 6 ... : ... .. . ... ... : ... .. 3 ... ... : ... .. 3 ... ... : ... .. 8 ... ...
ROW B2 : ... .. . ... ... ... : ... .. B ... ... ... : ... .. . ... : ... .. 3 ... : ... .. . ... ... : ... .. . ... ... : ... .. . ... ... : ... .. 5 ... ...
ROW B3 : ... .. . ... ... ... : ... .. 0 ... ... ... : ... .. . ... : ... .. 1 ... : ... .. . ... ... : ... .. . ... ... : ... .. . ... ... : ... .. . ... ...
ROW B4 : ... .. . ... ... ... : G#3 00 8 P80 ... ... : ... .. . ... : ... .. . ... : ... .. . ... ... : ... .. . ... ... : ... .. . ... ... : ... .. . ... ...
ROW B5 : ... .. . ... ... ... : ... .. C ... ... ... : --- .. . ... : ... .. 0 ... : ... .. . ... ... : ... .. . ... ... : ... .. . ... ... : ... .. . ... ...
ROW B6 : ... .. . ... ... ... : E-3 00 B ... ... ... : E-3 00 . ... : ... .. 8 ... : ... .. . ... ... : ... .. . ... ... : ... .. . ... ... : G#2 01 A ... ...
ROW B7 : ... .. . ... ... ... : ... .. F ... ... ... : ... .. . ... : ... .. 6 ... : ... .. . ... ... : ... .. . ... ... : ... .. . ... ... : ... .. 8 ... ...
ROW B8 : ... .. . ... ... ... : ... .. B ... ... ... : ... .. . ... : ... .. 3 ... : ... .. . ... ... : ... .. . ... ... : ... .. . ... ... : ... .. 5 ... ...
ROW B9 : ... .. . ... ... ... : ... .. 0 ... ... ... : ... .. . ... : ... .. 1 ... : ... .. . ... ... : ... .. . ... ... : ... .. . ... ... : ... .. . ... ...
ROW BA : ... .. . ... ... ... : E-3 00 8 P80 ... ... : ... .. . ... : ... .. . ... : ... .. . ... ... : ... .. . ... ... : ... .. . ... ... : ... .. . ... ...
ROW BB : ... .. . ... ... ... : ... .. C ... ... ... : --- .. . ... : ... .. 0 ... : ... .. . ... ... : ... .. . ... ... : ... .. . ... ... : ... .. . ... ...
ROW BC : F#2 00 F ... ... ... : G#3 00 B ... ... ... : E-3 00 . ... : 7-# 00 F ... : ... .. . ... ... : A#2 01 6 ... ... : B-2 01 6 ... ... : C#3 01 A ... ...
ROW BD : ... .. E ... ... ... : ... .. F ... ... ... : ... .. . ... : ... .. C ... : ... .. . ... ... : ... .. . ... ... : ... .. . ... ... : ... .. 8 ... ...
ROW BE : ... .. D ... ... ... : ... .. B ... ... ... : ... .. . ... : ... .. 6 ... : ... .. . ... ... : ... .. 5 ... ... : ... .. 5 ... ... : ... .. 5 ... ...
ROW BF : ... .. A ... ... ... : ... .. 0 ... ... ... : ... .. . ... : ... .. 3 ... : ... .. . ... ... : ... .. 4 ... ... : ... .. 4 ... ... : ... .. . ... ...
ROW C0 : ... .. . ... ... ... : G#3 00 8 P80 ... ... : ... .. . ... : ... .. 2 ... : ... .. . ... ... : ... .. . ... ... : ... .. . ... ... : ... .. . ... ...
ROW C1 : ... .. . ... ... ... : ... .. C ... ... ... : --- .. . ... : ... .. 0 ... : ... .. . ... ... : ... .. . ... ... : ... .. . ... ... : ... .. . ... ...
ROW C2 : ... .. . ... ... ... : G#2 00 B ... ... ... : D#3 00 . ... : ... .. 8 ... : ... .. . ... ... : ... .. . ... ... : ... .. . ... ... : E-3 01 A ... ...
ROW C3 : ... .. . ... ... ... : ... .. F ... ... ... : ... .. . ... : ... .. 6 ... : ... .. . ... ... : ... .. 3 ... ... : ... .. 3 ... ... : ... .. 8 ... ...
ROW C4 : ... .. . ... ... ... : ... .. B ... ... ... : ... .. . ... : ... .. 3 ... : ... .. . ... ... : ... .. . ... ... : ... .. . ... ... : ... .. 5 ... ...
ROW C5 : ... .. . ... ... ... : ... .. 0 ... ... ... : ... .. . ... : ... .. 1 ... : ... .. . ... ... : ... .. . ... ... : ... .. . ... ... : ... .. . ... ...
ROW C6 : ... .. . ... ... ... : G#2 00 8 P80 ... ... : ... .. . ... : ... .. . ... : ... .. . ... ... : ... .. . ... ... : ... .. . ... ... : ... .. . ... ...
ROW C7 : ... .. . ... ... ... : ... .. C ... ... ... : --- .. . ... : ... .. 0 ... : ... .. . ... ... : ... .. . ... ... : ... .. . ... ... : ... .. . ... ...
ROW C8 : ... .. . ... ... ... : C#3 00 B ... ... ... : C#3 00 . ... : 4-# 00 F ... : ... .. . ... ... : ... .. . ... ... : ... .. . ... ... : G#3 01 A ... ...
ROW C9 : ... .. . ... ... ... : ... .. F ... ... ... : ... .. . ... : ... .. C ... : ... .. . ... ... : ... .. . ... ... : ... .. . ... ... : ... .. 8 ... ...
ROW CA : ... .. . ... ... ... : ... .. B ... ... ... : ... .. . ... : ... .. 6 ... : ... .. . ... ... : ... .. . ... ... : ... .. . ... ... : ... .. 5 ... ...
ROW CB : ... .. . ... ... ... : ... .. 0 ... ... ... : ... .. . ... : ... .. 3 ... : ... .. . ... ... : ... .. . ... ... : ... .. . ... ... : ... .. . ... ...
ROW CC : ... .. . ... ... ... : C#3 00 8 P80 ... ... : ... .. . ... : ... .. 2 ... : ... .. . ... ... : ... .. . ... ... : ... .. . ... ... : ... .. . ... ...
ROW CD : ... .. . ... ... ... : ... .. C ... ... ... : --- .. . ... : ... .. 0 ... : ... .. . ... ... : ... .. . ... ... : ... .. . ... ... : ... .. . ... ...
ROW CE : G#2 00 F ... ... ... : E-3 00 B ... ... ... : G#3 00 . ... : 9-# 00 8 ... : ... .. . ... ... : B-2 01 6 ... ... : E-3 01 6 ... ... : C#4 01 A ... ...
ROW CF : ... .. E ... ... ... : ... .. F ... ... ... : ... .. . ... : ... .. 6 ... : ... .. . ... ... : ... .. . ... ... : ... .. . ... ... : ... .. 8 ... ...
ROW D0 : ... .. D ... ... ... : ... .. B ... ... ... : ... .. . ... : ... .. 3 ... : ... .. . ... ... : ... .. 5 ... ... : ... .. 5 ... ... : ... .. 5 ... ...
ROW D1 : ... .. A ... ... ... : ... .. 0 ... ... ... : ... .. . ... : ... .. 1 ... : ... .. . ... ... : ... .. 4 ... ... : ... .. 4 ... ... : ... .. . ... ...
ROW D2 : ... .. . ... ... ... : E-3 00 8 P80 ... ... : ... .. . ... : ... .. . ... : ... .. . ... ... : ... .. . ... ... : ... .. . ... ... : ... .. . ... ...
ROW D3 : ... .. . ... ... ... : ... .. C ... ... ... : --- .. . ... : ... .. 0 ... : ... .. . ... ... : ... .. . ... ... : ... .. . ... ... : ... .. . ... ...
ROW D4 : ... .. . ... ... ... : C#3 00 B ... ... ... : E-3 00 . ... : 7-# 00 F ... : ... .. . ... ... : ... .. . ... ... : ... .. . ... ... : E-4 01 A ... ...
ROW D5 : ... .. . ... ... ... : ... .. F ... ... ... : ... .. . ... : ... .. C ... : ... .. . ... ... : ... .. 3 ... ... : ... .. 3 ... ... : ... .. 8 ... ...
ROW D6 : ... .. . ... ... ... : ... .. B ... ... ... : ... .. . ... : ... .. 6 ... : ... .. . ... ... : ... .. . ... ... : ... .. . ... ... : ... .. 5 ... ...
ROW D7 : ... .. . ... ... ... : ... .. 0 ... ... ... : ... .. . ... : ... .. 3 ... : ... .. . ... ... : ... .. . ... ... : ... .. . ... ... : ... .. . ... ...
ROW D8 : ... .. . ... ... ... : C#3 00 8 P80 ... ... : ... .. . ... : ... .. 2 ... : ... .. . ... ... : ... .. . ... ... : ... .. . ... ... : ... .. . ... ...
ROW D9 : ... .. . ... ... ... : ... .. C ... ... ... : --- .. . ... : ... .. 0 ... : ... .. . ... ... : ... .. . ... ... : ... .. . ... ... : ... .. . ... ...
ROW DA : ... .. . ... ... ... : G#2 00 B ... ... ... : C#3 00 . ... : 5-# 00 8 ... : ... .. . ... ... : ... .. . ... ... : ... .. . ... ... : G#4 01 A ... ...
ROW DB : ... .. . ... ... ... : ... .. F ... ... ... : ... .. . ... : ... .. 6 ... : ... .. . ... ... : ... .. . ... ... : ... .. . ... ... : ... .. 8 ... ...
ROW DC : ... .. . ... ... ... : ... .. B ... ... ... : ... .. . ... : ... .. 3 ... : ... .. . ... ... : ... .. . ... ... : ... .. . ... ... : ... .. 5 ... ...
ROW DD : ... .. . ... ... ... : ... .. 0 ... ... ... : ... .. . ... : ... .. 1 ... : ... .. . ... ... : ... .. . ... ... : ... .. . ... ... : ... .. . ... ...
ROW DE : ... .. . ... ... ... : G#2 00 8 P80 ... ... : ... .. . ... : ... .. . ... : ... .. . ... ... : ... .. . ... ... : ... .. . ... ... : ... .. . ... ...
ROW DF : ... .. . ... ... ... : ... .. C ... ... ... : --- .. . ... : ... .. 0 ... : ... .. . ... ... : ... .. . ... ... : ... .. . ... ... : ... .. . ... ...
ROW E0 : C#5 00 F ... ... ... : A#3 00 F ... ... ... : F-4 00 . ... : 1-# 00 F ... : ... .. . ... ... : F#3 01 A ... ... : D#3 01 A ... ... : A#4 01 F ... ...
ROW E1 : ... .. E ... ... ... : ... .. E ... ... ... : G-3 00 . ... : ... .. C ... : ... .. . ... ... : ... .. 9 ... ... : ... .. 9 ... ... : ... .. D ... ...
ROW E2 : ... .. D ... ... ... : ... .. D ... ... ... : C-3 00 . ... : ... .. 6 ... : ... .. . ... ... : ... .. 8 ... ... : ... .. 8 ... ... : ... .. 8 ... ...
ROW E3 : ... .. A ... ... ... : ... .. A ... ... ... : B-2 00 . ... : ... .. 3 ... : ... .. . ... ... : ... .. 7 ... ... : ... .. 7 ... ... : ... .. . ... ...
ROW E4 : ... .. . ... ... ... : ... .. . ... ... ... : F#2 00 . ... : ... .. 2 ... : ... .. . ... ... : ... .. . ... ... : ... .. . ... ... : ... .. . ... ...
ROW E5 : ... .. . ... ... ... : ... .. . ... ... ... : ... .. . ... : ... .. 0 ... : ... .. . ... ... : ... .. 6 ... ... : ... .. 6 ... ... : ... .. . ... ...
ROW E6 : ... .. . ... ... ... : ... .. . ... ... ... : ... .. . ... : C-# 00 8 ... : ... .. . ... ... : ... .. 5 ... ... : ... .. 5 ... ... : ... .. . ... ...
ROW E7 : ... .. 2 ... ... ... : ... .. 2 ... ... ... : ... .. . ... : ... .. 6 ... : ... .. . ... ... : ... .. . ... ... : ... .. . ... ... : ... .. 4 ... ...
ROW E8 : ... .. . ... ... ... : ... .. . ... ... ... : ... .. . ... : ... .. 3 ... : ... .. . ... ... : ... .. 3 ... ... : ... .. 3 ... ... : ... .. . ... ...
ROW E9 : ... .. . ... ... ... : ... .. . ... ... ... : F-2 00 . P84 : ... .. 1 ... : ... .. . ... ... : ... .. . ... ... : ... .. . ... ... : ... .. 1 ... ...
ROW EA : ... .. 1 ... ... ... : ... .. 1 ... ... ... : E-2 00 . P8A : ... .. . ... : ... .. . ... ... : ... .. . ... ... : ... .. . ... ... : ... .. . ... ...
ROW EB : ... .. . ... ... ... : ... .. . ... ... ... : D#2 00 . P92 : ... .. 0 ... : ... .. . ... ... : ... .. . ... ... : ... .. . ... ... : ... .. . ... ...
ROW EC : D#5 00 F ... ... ... : B-3 00 F ... ... ... : G-4 00 . P80 : ... .. 8 ... : ... .. . ... ... : G#3 01 A ... ... : ... .. A ... ... : B-4 01 F ... ...
ROW ED : ... .. E ... ... ... : ... .. E ... ... ... : A-3 00 . ... : ... .. 6 ... : ... .. . ... ... : ... .. 9 ... ... : ... .. 9 ... ... : ... .. D ... ...
ROW EE : ... .. D ... ... ... : ... .. D ... ... ... : D-3 00 . ... : ... .. 3 ... : ... .. . ... ... : ... .. 8 ... ... : ... .. 8 ... ... : ... .. 8 ... ...
ROW EF : ... .. A ... ... ... : ... .. A ... ... ... : C#3 00 . ... : ... .. 1 ... : ... .. . ... ... : ... .. 7 ... ... : ... .. 7 ... ... : ... .. . ... ...
ROW F0 : ... .. . ... ... ... : ... .. . ... ... ... : G#2 00 . ... : ... .. . ... : ... .. . ... ... : ... .. . ... ... : ... .. . ... ... : ... .. . ... ...
ROW F1 : ... .. . ... ... ... : ... .. . ... ... ... : ... .. . ... : ... .. 0 ... : ... .. . ... ... : ... .. 6 ... ... : ... .. 6 ... ... : ... .. . ... ...
ROW F2 : ... .. . ... ... ... : ... .. . ... ... ... : ... .. . ... : ... .. . ... : ... .. . ... ... : ... .. . ... ... : ... .. . ... ... : ... .. . ... ...
ROW F3 : ... .. . ... ... ... : ... .. . ... ... ... : ... .. . ... : ... .. . ... : ... .. . ... ... : ... .. 5 ... ... : ... .. 5 ... ... : ... .. . ... ...
ROW F4 : ... .. . ... ... ... : ... .. . ... ... ... : ... .. . ... : ... .. . ... : ... .. . ... ... : ... .. . ... ... : ... .. . ... ... : ... .. . ... ...
ROW F5 : ... .. . ... ... ... : ... .. . ... ... ... : ... .. . ... : ... .. . ... : ... .. . ... ... : ... .. . ... ... : ... .. . ... ... : ... .. . ... ...
ROW F6 : ... .. . ... ... ... : ... .. . ... ... ... : ... .. . ... : ... .. . ... : ... .. . ... ... : ... .. . ... ... : ... .. . ... ... : ... .. . ... ...
ROW F7 : ... .. . ... ... ... : ... .. . ... ... ... : ... .. . ... : ... .. . ... : ... .. . ... ... : ... .. . ... ... : ... .. . ... ... : ... .. . ... ...
ROW F8 : E-5 00 A P7F ... ... : C-4 00 A P7E ... ... : ... .. . ... : ... .. 8 ... : ... .. . ... ... : ... .. . ... ... : ... .. . ... ... : ... .. . ... ...
ROW F9 : ... .. . P81 ... ... : ... .. . P84 ... ... : ... .. . ... : ... .. 6 ... : ... .. . ... ... : ... .. . ... ... : ... .. . ... ... : ... .. . ... ...
ROW FA : ... .. . P80 ... ... : ... .. . P82 ... ... : ... .. . ... : ... .. 3 ... : ... .. . ... ... : ... .. . ... ... : ... .. . ... ... : ... .. . ... ...
ROW FB : D#5 00 A P82 ... ... : B-3 00 A P84 ... ... : A-2 00 . P71 : ... .. 1 ... : ... .. . ... ... : ... .. . ... ... : ... .. . ... ... : ... .. . ... ...
ROW FC : ... .. . P7E ... ... : ... .. . P7C ... ... : ... .. . P81 : ... .. . ... : ... .. . ... ... : ... .. . ... ... : ... .. . ... ... : ... .. . ... ...
ROW FD : D-5 00 A P80 ... ... : A#3 00 A P80 ... ... : A#2 00 . P75 : ... .. 0 ... : ... .. . ... ... : ... .. . ... ... : ... .. . ... ... : ... .. . ... ...
ROW FE : ... .. . P7F ... ... : ... .. . P7E ... ... : ... .. . P85 : ... .. 8 ... : ... .. . ... ... : ... .. . ... ... : ... .. . ... ... : ... .. . ... ...
ROW FF : ... .. 2 P81 ... ... : ... .. 2 P84 ... ... : B-2 00 . P7A : ... .. 6 ... : ... .. . ... ... : ... .. . ... ... : ... .. . ... ... : ... .. 4 ... ...

PATTERN 11
ROW 00 : D#5 00 2 P80 ... ... : B-3 00 2 P80 ... ... : ... .. . P8A : ... .. 3 ... : ... .. . ... ... : ... .. 3 ... ... : ... .. 3 ... ... : ... .. . ... ...
ROW 01 : E-5 00 2 P7E ... ... : C-4 00 2 P7D ... ... : C-3 00 . P81 : ... .. 1 ... : ... .. . ... ... : ... .. . ... ... : ... .. . ... ... : ... .. 1 ... ...
ROW 02 : ... .. 1 P81 ... ... : ... .. 1 P84 ... ... : C#3 00 . P79 : ... .. . ... : ... .. . ... ... : ... .. . ... ... : ... .. . ... ... : ... .. . ... ...
ROW 03 : ... .. . ... ... ... : ... .. . P82 ... ... : ... .. . P89 : ... .. 0 ... : ... .. . ... ... : ... .. . ... ... : ... .. . ... ... : ... .. . ... ...
ROW 04 : G#1 00 F P80 ... ... : D#2 00 B P80 ... ... : G-5 00 . P80 : 8-# 00 D ... : ... .. . ... ... : G#1 01 A ... ... : G#0 01 A ... ... : G#0 01 F ... ...
ROW 05 : ... .. E ... ... ... : ... .. F ... ... ... : A-4 00 . ... : ... .. . ... : ... .. . ... ... : ... .. 9 ... ... : ... .. 9 ... ... : ... .. D ... ...
ROW 06 : ... .. D ... ... ... : ... .. B ... ... ... : D-4 00 . ... : ... .. . ... : ... .. . ... ... : ... .. 8 ... ... : ... .. 8 ... ... : ... .. 8 ... ...
ROW 07 : ... .. A ... ... ... : ... .. 0 ... ... ... : C#4 00 . ... : B-# 00 D ... : ... .. . ... ... : ... .. 7 ... ... : ... .. 7 ... ... : ... .. . ... ...
ROW 08 : ... .. . ... ... ... : D#2 00 8 P80 ... ... : G#3 00 . ... : ... .. . ... : ... .. . ... ... : ... .. . ... ... : ... .. . ... ... : ... .. . ... ...
ROW 09 : ... .. . ... ... ... : ... .. C ... ... ... : --- .. . ... : ... .. . ... : ... .. . ... ... : ... .. 6 ... ... : ... .. 6 ... ... : ... .. . ... ...
ROW 0A : F#1 00 F ... ... ... : C#2 00 B ... ... ... : F#3 00 . ... : ... .. . ... : ... .. . ... ... : ... .. . ... ... : ... .. . ... ... : ... .. . ... ...
ROW 0B : ... .. E ... ... ... : ... .. F ... ... ... : ... .. . ... : ... .. . ... : ... .. . ... ... : ... .. 5 ... ... : ... .. 5 ... ... : ... .. . ... ...
ROW 0C : ... .. D ... ... ... : ... .. B ... ... ... : ... .. . ... : ... .. . ... : ... .. . ... ... : ... .. . ... ... : ... .. . ... ... : ... .. . ... ...
ROW 0D : ... .. A ... ... ... : ... .. 0 ... ... ... : ... .. . ... : ... .. A ... : ... .. . ... ... : ... .. . ... ... : ... .. . ... ... : ... .. . ... ...
ROW 0E : ... .. 2 ... ... ... : C#2 00 8 P80 ... ... : ... .. . ... : ... .. . ... : ... .. . ... ... : ... .. . ... ... : ... .. . ... ... : ... .. . ... ...
ROW 0F : ... .. . ... ... ... : ... .. C ... ... ... : --- .. . ... : ... .. . ... : ... .. . ... ... : ... .. . ... ... : ... .. . ... ... : ... .. . ... ...
ROW 10 : G#1 00 F ... ... ... : D#2 00 B ... ... ... : G#3 00 . ... : ... .. 9 ... : ... .. . ... ... : ... .. . ... ... : ... .. . ... ... : ... .. . ... ...
ROW 11 : ... .. E ... ... ... : ... .. F ... ... ... : ... .. . ... : ... .. . ... : ... .. . ... ... : ... .. . ... ... : ... .. . ... ... : ... .. . ... ...
ROW 12 : ... .. D ... ... ... : ... .. B ... ... ... : ... .. . ... : ... .. . ... : ... .. . ... ... : ... .. . ... ... : ... .. . ... ... : ... .. . ... ...
ROW 13 : ... .. A ... ... ... : ... .. 0 ... ... ... : ... .. . ... : ... .. 8 ... : ... .. . ... ... : ... .. . ... ... : ... .. . ... ... : ... .. . ... ...
ROW 14 : ... .. 2 ... ... ... : D#2 00 8 P80 ... ... : ... .. . ... : ... .. . ... : ... .. . ... ... : ... .. . ... ... : ... .. . ... ... : ... .. . ... ...
ROW 15 : ... .. . ... ... ... : ... .. C ... ... ... : --- .. . ... : ... .. . ... : ... .. . ... ... : ... .. . ... ... : ... .. . ... ... : ... .. . ... ...
ROW 16 : G#2 00 F ... ... ... : D#3 00 B ... ... ... : G#4 00 . ... : ... .. 7 ... : ... .. . ... ... : ... .. . ... ... : ... .. . ... ... : ... .. . ... ...
ROW 17 : ... .. E ... ... ... : ... .. F ... ... ... : ... .. . ... : ... .. . ... : ... .. . ... ... : ... .. . ... ... : ... .. . ... ... : ... .. . ... ...
ROW 18 : ... .. D ... ... ... : ... .. B ... ... ... : ... .. . ... : ... .. . ... : ... .. . ... ... : ... .. . ... ... : ... .. . ... ... : ... .. . ... ...
ROW 19 : ... .. A ... ... ... : ... .. 0 ... ... ... : ... .. . ... : ... .. 6 ... : ... .. . ... ... : ... .. . ... ... : ... .. . ... ... : ... .. . ... ...
ROW 1A : ... .. . ... ... ... : D#3 00 8 P80 ... ... : ... .. . ... : ... .. . ... : ... .. . ... ... : ... .. . ... ... : ... .. . ... ... : ... .. . ... ...
ROW 1B : ... .. . ... ... ... : ... .. C ... ... ... : --- .. . ... : ... .. . ... : ... .. . ... ... : ... .. . ... ... : ... .. . ... ... : ... .. . ... ...
ROW 1C : G#1 00 F ... ... ... : D#2 00 B ... ... ... : G#3 00 . ... : ... .. 5 ... : ... .. . ... ... : ... .. . ... ... : ... .. . ... ... : ... .. . ... ...
ROW 1D : ... .. E ... ... ... : ... .. F ... ... ... : ... .. . ... : ... .. . ... : ... .. . ... ... : ... .. . ... ... : ... .. . ... ... : ... .. . ... ...
ROW 1E : ... .. D ... ... ... : ... .. B ... ... ... : ... .. . ... : ... .. . ... : ... .. . ... ... : ... .. . ... ... : ... .. . ... ... : ... .. . ... ...
ROW 1F : ... .. A ... ... ... : ... .. 0 ... ... ... : ... .. . ... : ... .. 4 ... : ... .. . ... ... : ... .. . ... ... : ... .. . ... ... : ... .. . ... ...
ROW 20 : ... .. 2 ... ... ... : D#2 00 8 P80 ... ... : ... .. . ... : ... .. . ... : ... .. . ... ... : ... .. . ... ... : ... .. . ... ... : ... .. . ... ...
ROW 21 : ... .. . ... ... ... : ... .. C ... ... ... : --- .. . ... : ... .. . ... : ... .. . ... ... : ... .. . ... ... : ... .. . ... ... : ... .. . ... ...
ROW 22 : ... .. F ... ... ... : G#2 00 B ... ... ... : G#2 00 . ... : ... .. 3 ... : ... .. . ... ... : ... .. . ... ... : ... .. . ... ... : ... .. . ... ...
ROW 23 : ... .. E ... ... ... : ... .. F ... ... ... : ... .. . ... : ... .. . ... : ... .. . ... ... : ... .. . ... ... : ... .. . ... ... : ... .. . ... ...
ROW 24 : ... .. D ... ... ... : ... .. B ... ... ... : ... .. . ... : ... .. . ... : ... .. . ... ... : ... .. . ... ... : ... .. . ... ... : ... .. . ... ...
ROW 25 : ... .. A ... ... ... : ... .. 0 ... ... ... : ... .. . ... : ... .. 2 ... : ... .. . ... ... : ... .. . ... ... : ... .. . ... ... : ... .. . ... ...
ROW 26 : ... .. 2 ... ... ... : G#2 00 8 P80 ... ... : ... .. . ... : ... .. . ... : ... .. . ... ... : ... .. . ... ... : ... .. . ... ... : ... .. . ... ...
ROW 27 : ... .. . ... ... ... : ... .. C ... ... ... : --- .. . ... : ... .. . ... : ... .. . ... ... : ... .. . ... ... : ... .. . ... ... : ... .. . ... ...
ROW 28 : C#4 00 F ... ... ... : A#3 00 F ... ... ... : F-4 00 . ... : 1-# 00 F ... : ... .. . ... ... : A#3 01 A ... ... : F-3 01 A ... ... : A#4 01 F ... ...
ROW 29 : ... .. E ... ... ... : ... .. E ... ... ... : G-3 00 . ... : ... .. C ... : ... .. . ... ... : ... .. 9 ... ... : ... .. 9 ... ... : ... .. D ... ...
ROW 2A : ... .. D ... ... ... : ... .. D ... ... ... : C-3 00 . ... : ... .. 6 ... : ... .. . ... ... : ... .. 8 ... ... : ... .. 8 ... ... : ... .. 8 ... ...
ROW 2B : ... .. A ... ... ... : ... .. A ... ... ... : B-2 00 . ... : ... .. 3 ... : ... .. . ... ... : ... .. 7 ... ... : ... .. 7 ... ... : ... .. . ... ...
ROW 2C : ... .. . ... ... ... : ... .. . ... ... ... : F#2 00 . ... : ... .. 2 ... : ... .. . ... ... : ... .. . ... ... : ... .. . ... ... : ... .. . ... ...
ROW 2D : ... .. . ... ... ... : ... .. . ... ... ... : ... .. . ... : ... .. 0 ... : ... .. . ... ... : ... .. 6 ... ... : ... .. 6 ... ... : ... .. . ... ...
ROW 2E : ... .. . ... ... ... : ... .. . ... ... ... : ... .. . ... : C-# 00 8 ... : ... .. . ... ... : ... .. 5 ... ... : ... .. 5 ... ... : ... .. . ... ...
ROW 2F : ... .. . ... ... ... : ... .. 2 ... ... ... : ... .. . ... : ... .. 6 ... : ... .. . ... ... : ... .. . ... ... : ... .. . ... ... : ... .. 4 ... ...
ROW 30 : ... .. . ... ... ... : ... .. . ... ... ... : ... .. . ... : ... .. 3 ... : ... .. . ... ... : ... .. 3 ... ... : ... .. 3 ... ... : ... .. . ... ...
ROW 31 : ... .. . ... ... ... : ... .. . ... ... ... : --- .. . ... : ... .. 1 ... : ... .. . ... ... : ... .. . ... ... : ... .. . ... ... : ... .. 1 ... ...
ROW 32 : ... .. 2 ... ... ... : ... .. 1 ... ... ... : ... .. . ... : ... .. . ... : ... .. . ... ... : ... .. . ... ... : ... .. . ... ... : ... .. . ... ...
ROW 33 : ... .. . ... ... ... : ... .. . ... ... ... : ... .. . ... : ... .. 0 ... : ... .. . ... ... : ... .. . ... ... : ... .. . ... ... : ... .. . ... ...
ROW 34 : D#4 00 F ... ... ... : B-3 00 F ... ... ... : G-4 00 . ... : ... .. 8 ... : ... .. . ... ... : B-3 01 A ... ... : F#3 01 A ... ... : B-4 01 F ... ...
ROW 35 : ... .. E ... ... ... : ... .. E ... ... ... : A-3 00 . ... : ... .. 6 ... : ... .. . ... ... : ... .. 9 ... ... : ... .. 9 ... ... : ... .. D ... ...
ROW 36 : ... .. D ... ... ... : ... .. D ... ... ... : D-3 00 . ... : ... .. 3 ... : ... .. . ... ... : ... .. 8 ... ... : ... .. 8 ... ... : ... .. 8 ... ...
ROW 37 : ... .. A ... ... ... : ... .. A ... ... ... : C#3 00 . ... : ... .. 1 ... : ... .. . ... ... : ... .. 7 ... ... : ... .. 7 ... ... : ... .. . ... ...
ROW 38 : ... .. . ... ... ... : ... .. . ... ... ... : G#2 00 . ... : ... .. . ... : ... .. . ... ... : ... .. . ... ... : ... .. . ... ... : ... .. . ... ...
ROW 39 : ... .. . ... ... ... : ... .. . ... ... ... : ... .. . ... : ... .. 0 ... : ... .. . ... ... : ... .. 6 ... ... : ... .. 6 ... ... : ... .. . ... ...
ROW 3A : ... .. . ... ... ... : ... .. . ... ... ... : ... .. . ... : 1-# 00 F ... : ... .. . ... ... : ... .. . ... ... : ... .. . ... ... : ... .. . ... ...
ROW 3B : ... .. . ... ... ... : ... .. . ... ... ... : ... .. . ... : ... .. C ... : ... .. . ... ... : ... .. 5 ... ... : ... .. 5 ... ... : ... .. . ... ...
ROW 3C : ... .. . ... ... ... : ... .. . ... ... ... : ... .. . ... : ... .. 6 ... : ... .. . ... ... : ... .. . ... ... : ... .. . ... ... : ... .. . ... ...
ROW 3D : ... .. . ... ... ... : ... .. . ... ... ... : ... .. . ... : ... .. 3 ... : ... .. . ... ... : ... .. . ... ... : ... .. . ... ... : ... .. . ... ...
ROW 3E : ... .. . ... ... ... : ... .. . ... ... ... : ... .. . ... : ... .. 2 ... : ... .. . ... ... : ... .. . ... ... : ... .. . ... ... : ... .. . ... ...
ROW 3F : ... .. . ... ... ... : ... .. . ... ... ... : ... .. . ... : ... .. 0 ... : ... .. . ... ... : ... .. . ... ... : ... .. . ... ... : ... .. . ... ...
ROW 40 : E-4 00 A ... ... ... : C-4 00 A P7E ... ... : ... .. . ... : C-# 00 8 ... : ... .. . ... ... : ... .. . ... ... : ... .. . ... ... : ... .. . ... ...
ROW 41 : F-4 00 A P7C ... ... : ... .. . P84 ... ... : ... .. . ... : ... .. 6 ... : ... .. . ... ... : ... .. . ... ... : ... .. . ... ... : ... .. . ... ...
ROW 42 : E-4 00 A P84 ... ... : ... .. . P82 ... ... : ... .. . ... : ... .. 3 ... : ... .. . ... ... : ... .. . ... ... : ... .. . ... ... : ... .. . ... ...
ROW 43 : D#4 00 A ... ... ... : B-3 00 A P84 ... ... : ... .. . ... : ... .. 1 ... : ... .. . ... ... : ... .. . ... ... : ... .. . ... ... : ... .. . ... ...
ROW 44 : ... .. . P7C ... ... : ... .. . P7C ... ... : ... .. . ... : ... .. . ... : ... .. . ... ... : ... .. . ... ... : ... .. . ... ... : ... .. . ... ...
ROW 45 : D-4 00 A ... ... ... : A#3 00 A P80 ... ... : ... .. . ... : ... .. 0 ... : ... .. . ... ... : ... .. . ... ... : ... .. . ... ... : ... .. . ... ...
ROW 46 : C#4 00 A P86 ... ... : ... .. . P7E ... ... : A#2 00 . ... : ... .. 8 ... : ... .. . ... ... : ... .. . ... ... : ... .. . ... ... : ... .. . ... ...
ROW 47 : D-4 00 2 P80 ... ... : ... .. 2 P84 ... ... : ... .. . ... : ... .. 6 ... : ... .. . ... ... : ... .. . ... ... : ... .. . ... ... : ... .. 4 ... ...
ROW 48 : D#4 00 2 ... ... ... : B-3 00 2 P80 ... ... : ... .. . ... : ... .. 3 ... : ... .. . ... ... : ... .. 3 ... ... : ... .. 3 ... ... : ... .. . ... ...
ROW 49 : E-4 00 2 P7F ... ... : C-4 00 2 P7D ... ... : ... .. . ... : ... .. 1 ... : ... .. . ... ... : ... .. . ... ... : ... .. . ... ... : ... .. 1 ... ...
ROW 4A : F-4 00 1 P7C ... ... : ... .. 1 P84 ... ... : ... .. . ... : ... .. . ... : ... .. . ... ... : ... .. . ... ... : ... .. . ... ... : ... .. . ... ...
ROW 4B : E-4 00 1 P84 ... ... : ... .. . P82 ... ... : ... .. . ... : ... .. 0 ... : ... .. . ... ... : ... .. . ... ... : ... .. . ... ... : ... .. . ... ...
ROW 4C : G#1 00 F P80 ... ... : D#2 00 B P80 ... ... : B-2 00 . ... : 8-# 00 D ... : ... .. . ... ... : G#1 01 A ... ... : G#0 01 A ... ... : G#0 01 F ... ...
ROW 4D : ... .. E ... ... ... : ... .. F ... ... ... : ... .. . ... : ... .. . ... : ... .. . ... ... : ... .. 9 ... ... : ... .. 9 ... ... : ... .. D ... ...
ROW 4E : ... .. D ... ... ... : ... .. B ... ... ... : ... .. . ... : ... .. . ... : ... .. . ... ... : ... .. 8 ... ... : ... .. 8 ... ... : ... .. 8 ... ...
ROW 4F : ... .. A ... ... ... : ... .. 0 ... ... ... : ... .. . ... : B-# 00 D ... : ... .. . ... ... : ... .. 7 ... ... : ... .. 7 ... ... : ... .. . ... ...
ROW 50 : ... .. . ... ... ... : D#2 00 8 P80 ... ... : ... .. . ... : ... .. . ... : ... .. . ... ... : ... .. . ... ... : ... .. . ... ... : ... .. . ... ...
ROW 51 : ... .. . ... ... ... : ... .. C ... ... ... : --- .. . ... : ... .. . ... : ... .. . ... ... : ... .. 6 ... ... : ... .. 6 ... ... : ... .. . ... ...
ROW 52 : G#2 00 F ... ... ... : C#2 00 B ... ... ... : A#2 00 . ... : ... .. . ... : ... .. . ... ... : ... .. . ... ... : ... .. . ... ... : ... .. . ... ...
ROW 53 : ... .. E ... ... ... : ... .. F ... ... ... : ... .. . ... : ... .. . ... : ... .. . ... ... : ... .. 5 ... ... : ... .. 5 ... ... : ... .. . ... ...
ROW 54 : ... .. D ... ... ... : ... .. B ... ... ... : ... .. . ... : ... .. . ... : ... .. . ... ... : ... .. . ... ... : ... .. . ... ... : ... .. . ... ...
ROW 55 : ... .. A ... ... ... : ... .. 0 ... ... ... : ... .. . ... : ... .. A ... : ... .. . ... ... : ... .. . ... ... : ... .. . ... ... : ... .. . ... ...
ROW 56 : ... .. 2 ... ... ... : C#2 00 8 P80 ... ... : ... .. . ... : ... .. . ... : ... .. . ... ... : ... .. . ... ... : ... .. . ... ... : ... .. . ... ...
ROW 57 : ... .. . ... ... ... : ... .. C ... ... ... : --- .. . ... : ... .. . ... : ... .. . ... ... : ... .. . ... ... : ... .. . ... ... : ... .. . ... ...
ROW 58 : ... .. . ... ... ... : D#2 00 B ... ... ... : B-2 00 . ... : ... .. 9 ... : ... .. . ... ... : ... .. . ... ... : ... .. . ... ... : ... .. . ... ...
ROW 59 : ... .. 1 ... ... ... : ... .. F ... ... ... : ... .. . ... : ... .. . ... : ... .. . ... ... : ... .. . ... ... : ... .. . ... ... : ... .. . ... ...
ROW 5A : ... .. . ... ... ... : ... .. B ... ... ... : ... .. . ... : ... .. . ... : ... .. . ... ... : ... .. . ... ... : ... .. . ... ... : ... .. . ... ...
ROW 5B : ... .. . ... ... ... : ... .. 0 ... ... ... : ... .. . ... : ... .. 8 ... : ... .. . ... ... : ... .. . ... ... : ... .. . ... ... : ... .. . ... ...
ROW 5C : ... .. 0 ... V00 ... : D#2 00 8 P80 ... ... : ... .. . ... : ... .. . ... : ... .. . ... ... : ... .. . ... ... : ... .. . ... ... : ... .. . ... ...
ROW 5D : ... .. . ... ... ... : ... .. C ... ... ... : --- .. . ... : ... .. . ... : ... .. . ... ... : ... .. . ... ... : ... .. . ... ... : ... .. . ... ...
ROW 5E : G#3 00 F P80 V02 ... : D#3 00 B ... ... ... : C#3 00 . ... : ... .. 7 ... : ... .. . ... ... : ... .. . ... ... : ... .. . ... ... : ... .. . ... ...
ROW 5F : ... .. E ... ... ... : ... .. F ... ... ... : ... .. . ... : ... .. . ... : ... .. . ... ... : ... .. . ... ... : ... .. . ... ... : ... .. . ... ...
ROW 60 : ... .. D ... ... ... : ... .. B ... ... ... : ... .. . ... : ... .. . ... : ... .. . ... ... : ... .. . ... ... : ... .. . ... ... : ... .. . ... ...
ROW 61 : ... .. A ... ... ... : ... .. 0 ... ... ... : ... .. . ... : ... .. 6 ... : ... .. . ... ... : ... .. . ... ... : ... .. . ... ... : ... .. . ... ...
ROW 62 : ... .. . ... ... ... : D#3 00 8 P80 ... ... : ... .. . ... : ... .. . ... : ... .. . ... ... : ... .. . ... ... : ... .. . ... ... : ... .. . ... ...
ROW 63 : ... .. . ... ... ... : ... .. C ... ... ... : --- .. . ... : ... .. . ... : ... .. . ... ... : ... .. . ... ... : ... .. . ... ... : ... .. . ... ...
ROW 64 : ... .. . ... ... ... : D#2 00 B ... ... ... : D#3 00 . ... : ... .. 5 ... : ... .. . ... ... : ... .. . ... ... : ... .. . ... ... : ... .. . ... ...
ROW 65 : ... .. 2 ... ... ... : ... .. F ... ... ... : ... .. . ... : ... .. . ... : ... .. . ... ... : ... .. . ... ... : ... .. . ... ... : ... .. . ... ...
ROW 66 : ... .. . ... ... ... : ... .. B ... ... ... : ... .. . ... : ... .. . ... : ... .. . ... ... : ... .. . ... ... : ... .. . ... ... : ... .. . ... ...
ROW 67 : A#3 00 F ... ... ... : ... .. 0 ... ... ... : ... .. . ... : ... .. 4 ... : ... .. . ... ... : ... .. . ... ... : ... .. . ... ... : ... .. . ... ...
ROW 68 : ... .. E ... ... ... : D#2 00 8 P80 ... ... : ... .. . ... : ... .. . ... : ... .. . ... ... : ... .. . ... ... : ... .. . ... ... : ... .. . ... ...
ROW 69 : ... .. D ... ... ... : ... .. C ... ... ... : --- .. . ... : ... .. . ... : ... .. . ... ... : ... .. . ... ... : ... .. . ... ... : ... .. . ... ...
ROW 6A : ... .. A ... ... ... : G#2 00 B ... ... ... : F#3 00 . ... : ... .. 3 ... : ... .. . ... ... : ... .. . ... ... : ... .. . ... ... : ... .. . ... ...
ROW 6B : ... .. . ... ... ... : ... .. F ... ... ... : ... .. . ... : ... .. . ... : ... .. . ... ... : ... .. . ... ... : ... .. . ... ... : ... .. . ... ...
ROW 6C : ... .. . ... ... ... : ... .. B ... ... ... : ... .. . ... : ... .. . ... : ... .. . ... ... : ... .. . ... ... : ... .. . ... ... : ... .. . ... ...
ROW 6D : ... .. . ... ... ... : ... .. 0 ... ... ... : ... .. . ... : ... .. 2 ... : ... .. . ... ... : ... .. . ... ... : ... .. . ... ... : ... .. . ... ...
ROW 6E : ... .. 2 ... ... ... : G#2 00 8 P80 ... ... : ... .. . ... : ... .. . ... : ... .. . ... ... : ... .. . ... ... : ... .. . ... ... : ... .. . ... ...
ROW 6F : ... .. . ... ... ... : ... .. C ... ... ... : --- .. . ... : ... .. . ... : ... .. . ... ... : ... .. . ... ... : ... .. . ... ... : ... .. . ... ...
ROW 70 : B-3 00 F ... ... ... : E-2 00 B ... ... ... : D#5 00 . ... : 1-# 00 F ... : ... .. . ... ... : F#4 01 6 ... ... : B-3 01 6 ... ... : E-1 01 A ... ...
ROW 71 : ... .. E ... ... ... : ... .. F ... ... ... : F-4 00 . ... : ... .. C ... : ... .. . ... ... : ... .. . ... ... : ... .. . ... ... : ... .. 8 ... ...
ROW 72 : ... .. D ... ... ... : ... .. B ... ... ... : A#3 00 . ... : ... .. 6 ... : ... .. . ... ... : ... .. 5 ... ... : ... .. 5 ... ... : ... .. 5 ... ...
ROW 73 : ... .. A ... ... ... : ... .. 0 ... ... ... : A-3 00 . ... : ... .. 3 ... : ... .. . ... ... : ... .. 4 ... ... : ... .. 4 ... ... : ... .. . ... ...
ROW 74 : ... .. . ... ... ... : E-2 00 8 P80 ... ... : E-3 00 . ... : ... .. 2 ... : ... .. . ... ... : ... .. . ... ... : ... .. . ... ... : ... .. . ... ...
ROW 75 : ... .. . ... ... ... : ... .. C ... ... ... : ... .. . ... : ... .. 0 ... : ... .. . ... ... : ... .. . ... ... : ... .. . ... ... : ... .. . ... ...
ROW 76 : ... .. . ... ... ... : B-1 00 B ... ... ... : ... .. . ... : C-# 00 8 ... : ... .. . ... ... : ... .. . ... ... : ... .. . ... ... : ... .. . ... ...
ROW 77 : ... .. . ... ... ... : ... .. F ... ... ... : ... .. . ... : ... .. 6 ... : ... .. . ... ... : ... .. 3 ... ... : ... .. 3 ... ... : ... .. . ... ...
ROW 78 : ... .. . ... ... ... : ... .. B ... ... ... : ... .. . ... : ... .. 3 ... : ... .. . ... ... : ... .. . ... ... : ... .. . ... ... : ... .. . ... ...
ROW 79 : ... .. . ... ... ... : ... .. 0 ... ... ... : ... .. . ... : ... .. 1 ... : ... .. . ... ... : ... .. . ... ... : ... .. . ... ... : ... .. . ... ...
ROW 7A : ... .. . ... ... ... : B-1 00 8 P80 ... ... : ... .. . ... : ... .. . ... : ... .. . ... ... : ... .. . ... ... : ... .. . ... ... : ... .. . ... ...
ROW 7B : ... .. . ... ... ... : ... .. C ... ... ... : ... .. . ... : ... .. 0 ... : ... .. . ... ... : ... .. . ... ... : ... .. . ... ... : ... .. . ... ...
ROW 7C : ... .. . ... ... ... : G#2 00 B ... ... ... : D-3 00 . P8A : ... .. 8 ... : ... .. . ... ... : ... .. . ... ... : ... .. . ... ... : ... .. . ... ...
ROW 7D : ... .. . ... ... ... : ... .. F ... ... ... : C#3 00 . P81 : ... .. 6 ... : ... .. . ... ... : ... .. . ... ... : ... .. . ... ... : ... .. . ... ...
ROW 7E : ... .. . ... ... ... : ... .. B ... ... ... : C-3 00 . P79 : ... .. 3 ... : ... .. . ... ... : ... .. . ... ... : ... .. . ... ... : ... .. . ... ...
ROW 7F : ... .. . ... ... ... : ... .. 0 ... ... ... : A#2 00 . P8D : ... .. 1 ... : ... .. . ... ... : ... .. . ... ... : ... .. . ... ... : ... .. . ... ...
ROW 80 : ... .. . ... ... ... : G#2 00 8 P80 ... ... : A-2 00 . P89 : ... .. . ... : ... .. . ... ... : ... .. . ... ... : ... .. . ... ... : ... .. . ... ...
ROW 81 : ... .. . ... ... ... : ... .. C ... ... ... : G#2 00 . P88 : ... .. 0 ... : ... .. . ... ... : ... .. . ... ... : ... .. . ... ... : ... .. . ... ...
ROW 82 : ... .. . P84 ... ... : B-2 00 B ... ... ... : G-5 00 . P80 : 1-# 00 F ... : ... .. . ... ... : E-4 01 6 ... ... : A#3 01 6 ... ... : ... .. . ... ...
ROW 83 : ... .. . P86 ... ... : ... .. F ... ... ... : A-4 00 . ... : ... .. C ... : ... .. . ... ... : ... .. . ... ... : ... .. . ... ... : ... .. . ... ...
ROW 84 : ... .. . P85 ... ... : ... .. B ... ... ... : D-4 00 . ... : ... .. 6 ... : ... .. . ... ... : ... .. 5 ... ... : ... .. 5 ... ... : ... .. . ... ...
ROW 85 : ... .. . P82 ... ... : ... .. 0 ... ... ... : C#4 00 . ... : ... .. 3 ... : ... .. . ... ... : ... .. 4 ... ... : ... .. 4 ... ... : ... .. . ... ...
ROW 86 : ... .. . P7E ... ... : B-2 00 8 P80 ... ... : G#3 00 . ... : ... .. 2 ... : ... .. . ... ... : ... .. . ... ... : ... .. . ... ... : ... .. . ... ...
ROW 87 : ... .. . P7B ... ... : ... .. C ... ... ... : --- .. . ... : ... .. 0 ... : ... .. . ... ... : ... .. . ... ... : ... .. . ... ... : ... .. . ... ...
ROW 88 : ... .. . P7A ... ... : E-2 00 B ... ... ... : F#3 00 . ... : C-# 00 8 ... : ... .. . ... ... : ... .. . ... ... : ... .. . ... ... : ... .. . ... ...
ROW 89 : ... .. . P7C ... ... : ... .. F ... ... ... : ... .. . ... : ... .. 6 ... : ... .. . ... ... : ... .. 3 ... ... : ... .. 3 ... ... : ... .. . ... ...
ROW 8A : ... .. . P80 ... ... : ... .. B ... ... ... : ... .. . ... : ... .. 3 ... : ... .. . ... ... : ... .. . ... ... : ... .. . ... ... : ... .. . ... ...
ROW 8B : ... .. . P83 ... ... : ... .. 0 ... ... ... : ... .. . ... : ... .. 1 ... : ... .. . ... ... : ... .. . ... ... : ... .. . ... ... : ... .. . ... ...
ROW 8C : ... .. . P86 ... ... : E-2 00 8 P80 ... ... : ... .. . ... : ... .. . ... : ... .. . ... ... : ... .. . ... ... : ... .. . ... ... : ... .. . ... ...
ROW 8D : ... .. . ... ... ... : ... .. C ... ... ... : --- .. . ... : ... .. 0 ... : ... .. . ... ... : ... .. . ... ... : ... .. . ... ... : ... .. . ... ...
ROW 8E : ... .. . P82 ... ... : E-3 00 B ... ... ... : G#3 00 . ... : ... .. 8 ... : ... .. . ... ... : ... .. . ... ... : ... .. . ... ... : ... .. . ... ...
ROW 8F : ... .. 2 P7F ... ... : ... .. F ... ... ... : ... .. . ... : ... .. 6 ... : ... .. . ... ... : ... .. . ... ... : ... .. . ... ... : ... .. . ... ...
ROW 90 : ... .. . P7B ... ... : ... .. B ... ... ... : ... .. . ... : ... .. 3 ... : ... .. . ... ... : ... .. . ... ... : ... .. . ... ... : ... .. . ... ...
ROW 91 : ... .. . P7A ... ... : ... .. 0 ... ... ... : --- .. . ... : ... .. 1 ... : ... .. . ... ... : ... .. . ... ... : ... .. . ... ... : ... .. . ... ...
ROW 92 : ... .. 1 P7C ... ... : E-3 00 8 P80 ... ... : ... .. . ... : ... .. . ... : ... .. . ... ... : ... .. . ... ... : ... .. . ... ... : ... .. . ... ...
ROW 93 : ... .. . P80 ... ... : ... .. C ... ... ... : ... .. . ... : ... .. 0 ... : ... .. . ... ... : ... .. . ... ... : ... .. . ... ... : ... .. . ... ...
ROW 94 : ... .. F ... ... ... : G#3 00 B ... ... ... : D#6 00 . ... : 7-# 00 F ... : ... .. . ... ... : D#4 01 6 ... ... : B-3 01 6 ... ... : E-2 01 A ... ...
ROW 95 : ... .. E ... ... ... : ... .. F ... ... ... : F-5 00 . ... : ... .. C ... : ... .. . ... ... : ... .. . ... ... : ... .. . ... ... : ... .. 8 ... ...
ROW 96 : ... .. D ... ... ... : ... .. B ... ... ... : A#4 00 . ... : ... .. 6 ... : ... .. . ... ... : ... .. 5 ... ... : ... .. 5 ... ... : ... .. 5 ... ...
ROW 97 : ... .. A ... ... ... : ... .. 0 ... ... ... : A-4 00 . ... : ... .. 3 ... : ... .. . ... ... : ... .. 4 ... ... : ... .. 4 ... ... : ... .. . ... ...
ROW 98 : ... .. . P85 ... ... : G#3 00 8 P80 ... ... : E-4 00 . ... : ... .. 2 ... : ... .. . ... ... : ... .. . ... ... : ... .. . ... ... : ... .. . ... ...
ROW 99 : C-4 00 A P7E ... ... : ... .. C ... ... ... : ... .. . ... : ... .. 0 ... : ... .. . ... ... : ... .. . ... ... : ... .. . ... ... : ... .. . ... ...
ROW 9A : ... .. . P83 ... ... : B-2 00 B ... ... ... : ... .. . ... : 1-# 00 8 ... : ... .. . ... ... : ... .. . ... ... : ... .. . ... ... : ... .. . ... ...
ROW 9B : C#4 00 A P7C ... ... : ... .. F ... ... ... : ... .. . ... : ... .. 6 ... : ... .. . ... ... : ... .. 3 ... ... : ... .. 3 ... ... : ... .. . ... ...
ROW 9C : ... .. . P80 ... ... : ... .. B ... ... ... : ... .. . ... : ... .. 3 ... : ... .. . ... ... : ... .. . ... ... : ... .. . ... ... : ... .. . ... ...
ROW 9D : ... .. . ... ... ... : ... .. 0 ... ... ... : ... .. . ... : ... .. 1 ... : ... .. . ... ... : ... .. . ... ... : ... .. . ... ... : ... .. . ... ...
ROW 9E : ... .. . ... ... ... : B-2 00 8 P80 ... ... : ... .. . ... : ... .. . ... : ... .. . ... ... : ... .. . ... ... : ... .. . ... ... : ... .. . ... ...
ROW 9F : ... .. . ... ... ... : ... .. C ... ... ... : ... .. . ... : ... .. 0 ... : ... .. . ... ... : ... .. . ... ... : ... .. . ... ... : ... .. . ... ...
ROW A0 : B-3 00 F ... ... ... : E-3 00 B ... ... ... : D#4 00 . ... : 7-# 00 F ... : ... .. . ... ... : ... .. . ... ... : ... .. . ... ... : D#2 01 A ... ...
ROW A1 : ... .. E ... ... ... : ... .. F ... ... ... : ... .. . ... : ... .. C ... : ... .. . ... ... : ... .. . ... ... : ... .. . ... ... : ... .. 8 ... ...
ROW A2 : ... .. D ... ... ... : ... .. B ... ... ... : ... .. . ... : ... .. 6 ... : ... .. . ... ... : ... .. . ... ... : ... .. . ... ... : ... .. 5 ... ...
ROW A3 : ... .. A ... ... ... : ... .. 0 ... ... ... : ... .. . ... : ... .. 3 ... : ... .. . ... ... : ... .. . ... ... : ... .. . ... ... : ... .. . ... ...
ROW A4 : ... .. . ... ... ... : E-3 00 8 P80 ... ... : ... .. . ... : ... .. 2 ... : ... .. . ... ... : ... .. . ... ... : ... .. . ... ... : ... .. . ... ...
ROW A5 : ... .. . ... ... ... : ... .. C ... ... ... : ... .. . ... : ... .. 0 ... : ... .. . ... ... : ... .. . ... ... : ... .. . ... ... : ... .. . ... ...
ROW A6 : ... .. . ... ... ... : G#3 00 B ... ... ... : ... .. . ... : 1-# 00 8 ... : ... .. . ... ... : E-4 01 6 ... ... : G#3 01 6 ... ... : ... .. . ... ...
ROW A7 : ... .. . ... ... ... : ... .. F ... ... ... : ... .. . ... : ... .. 6 ... : ... .. . ... ... : ... .. . ... ... : ... .. . ... ... : ... .. . ... ...
ROW A8 : ... .. . ... ... ... : ... .. B ... ... ... : ... .. . ... : ... .. 3 ... : ... .. . ... ... : ... .. 5 ... ... : ... .. 5 ... ... : ... .. . ... ...
ROW A9 : ... .. . ... ... ... : ... .. 0 ... ... ... : ... .. . ... : ... .. 1 ... : ... .. . ... ... : ... .. 4 ... ... : ... .. 4 ... ... : ... .. . ... ...
ROW AA : ... .. 2 ... ... ... : G#3 00 8 P80 ... ... : ... .. . ... : ... .. . ... : ... .. . ... ... : ... .. . ... ... : ... .. . ... ... : ... .. . ... ...
ROW AB : ... .. . ... ... ... : ... .. C ... ... ... : --- .. . ... : ... .. 0 ... : ... .. . ... ... : ... .. . ... ... : ... .. . ... ... : ... .. . ... ...
ROW AC : A#3 00 F ... ... ... : E-3 00 B ... ... ... : G#3 00 . ... : 7-# 00 F ... : ... .. . ... ... : ... .. . ... ... : ... .. . ... ... : G#1 01 A ... ...
ROW AD : ... .. E ... ... ... : ... .. F ... ... ... : ... .. . ... : ... .. C ... : ... .. . ... ... : ... .. 3 ... ... : ... .. 3 ... ... : ... .. 8 ... ...
ROW AE : ... .. D ... ... ... : ... .. B ... ... ... : ... .. . ... : ... .. 6 ... : ... .. . ... ... : ... .. . ... ... : ... .. . ... ... : ... .. 5 ... ...
ROW AF : ... .. A ... ... ... : ... .. 0 ... ... ... : ... .. . ... : ... .. 3 ... : ... .. . ... ... : ... .. . ... ... : ... .. . ... ... : ... .. . ... ...
ROW B0 : ... .. . ... ... ... : E-3 00 8 P80 ... ... : ... .. . ... : ... .. 2 ... : ... .. . ... ... : ... .. . ... ... : ... .. . ... ... : ... .. . ... ...
ROW B1 : ... .. . ... ... ... : ... .. C ... ... ... : ... .. . ... : ... .. 0 ... : ... .. . ... ... : ... .. . ... ... : ... .. . ... ... : ... .. . ... ...
ROW B2 : B-3 00 F ... ... ... : G#3 00 B ... ... ... : ... .. . ... : 1-# 00 8 ... : ... .. . ... ... : ... .. . ... ... : ... .. . ... ... : ... .. . ... ...
ROW B3 : ... .. E ... ... ... : ... .. F ... ... ... : ... .. . ... : ... .. 6 ... : ... .. . ... ... : ... .. . ... ... : ... .. . ... ... : ... .. . ... ...
ROW B4 : ... .. 0 ... V00 ... : ... .. B ... ... ... : ... .. . ... : ... .. 3 ... : ... .. . ... ... : ... .. . ... ... : ... .. . ... ... : ... .. . ... ...
ROW B5 : A#3 00 F P80 V02 ... : ... .. 0 ... ... ... : ... .. . ... : ... .. 1 ... : ... .. . ... ... : ... .. . ... ... : ... .. . ... ... : ... .. . ... ...
ROW B6 : ... .. E ... ... ... : G#3 00 8 P80 ... ... : ... .. . ... : ... .. . ... : ... .. . ... ... : ... .. . ... ... : ... .. . ... ... : ... .. . ... ...
ROW B7 : ... .. 0 ... V00 ... : ... .. C ... ... ... : --- .. . ... : ... .. 0 ... : ... .. . ... ... : ... .. . ... ... : ... .. . ... ... : ... .. . ... ...
ROW B8 : G#3 00 F P80 V02 ... : C#4 00 B ... ... ... : C-4 00 . ... : ... .. F ... : ... .. . ... ... : G#4 01 6 ... ... : E-3 01 6 ... ... : C#1 01 A ... ...
ROW B9 : ... .. E ... ... ... : ... .. F ... ... ... : D-3 00 . ... : ... .. C ... : ... .. . ... ... : ... .. . ... ... : ... .. . ... ... : ... .. 8 ... ...
ROW BA : ... .. D ... ... ... : ... .. B ... ... ... : G-2 00 . ... : ... .. 6 ... : ... .. . ... ... : ... .. 5 ... ... : ... .. 5 ... ... : ... .. 5 ... ...
ROW BB : ... .. A ... ... ... : ... .. 0 ... ... ... : F#2 00 . ... : ... .. 3 ... : ... .. . ... ... : ... .. 4 ... ... : ... .. 4 ... ... : ... .. . ... ...
ROW BC : ... .. . ... ... ... : C#4 00 8 P80 ... ... : C#2 00 . ... : ... .. 2 ... : ... .. . ... ... : ... .. . ... ... : ... .. . ... ... : ... .. . ... ...
ROW BD : ... .. . ... ... ... : ... .. C ... ... ... : ... .. . ... : ... .. 0 ... : ... .. . ... ... : ... .. . ... ... : ... .. . ... ... : ... .. . ... ...
ROW BE : ... .. . ... ... ... : E-3 00 B ... ... ... : ... .. . ... : C-# 00 8 ... : ... .. . ... ... : ... .. . ... ... : ... .. . ... ... : ... .. . ... ...
ROW BF : ... .. . ... ... ... : ... .. F ... ... ... : ... .. . ... : ... .. 6 ... : ... .. . ... ... : ... .. 3 ... ... : ... .. 3 ... ... : ... .. . ... ...
ROW C0 : ... .. . ... ... ... : ... .. B ... ... ... : ... .. . ... : ... .. 3 ... : ... .. . ... ... : ... .. . ... ... : ... .. . ... ... : ... .. . ... ...
ROW C1 : ... .. . P84 ... ... : ... .. 0 ... ... ... : ... .. . ... : ... .. 1 ... : ... .. . ... ... : ... .. . ... ... : ... .. . ... ... : ... .. . ... ...
ROW C2 : ... .. . P86 ... ... : E-3 00 8 P80 ... ... : ... .. . ... : ... .. . ... : ... .. . ... ... : ... .. . ... ... : ... .. . ... ... : ... .. . ... ...
ROW C3 : ... .. . P85 ... ... : ... .. C ... ... ... : ... .. . ... : ... .. 0 ... : ... .. . ... ... : ... .. . ... ... : ... .. . ... ... : ... .. . ... ...
ROW C4 : ... .. . P82 ... ... : G#3 00 B ... ... ... : ... .. . ... : ... .. 8 ... : ... .. . ... ... : ... .. . ... ... : ... .. . ... ... : ... .. . ... ...
ROW C5 : ... .. . P7E ... ... : ... .. F ... ... ... : ... .. . ... : ... .. 6 ... : ... .. . ... ... : ... .. . ... ... : ... .. . ... ... : ... .. . ... ...
ROW C6 : ... .. . P7B ... ... : ... .. B ... ... ... : ... .. . ... : ... .. 3 ... : ... .. . ... ... : ... .. . ... ... : ... .. . ... ... : ... .. . ... ...
ROW C7 : ... .. . P7A ... ... : ... .. 0 ... ... ... : ... .. . ... : ... .. 1 ... : ... .. . ... ... : ... .. . ... ... : ... .. . ... ... : ... .. . ... ...
ROW C8 : ... .. . P7C ... ... : G#3 00 8 P80 ... ... : ... .. . ... : ... .. . ... : ... .. . ... ... : ... .. . ... ... : ... .. . ... ... : ... .. . ... ...
ROW C9 : ... .. . P80 ... ... : ... .. C ... ... ... : ... .. . ... : ... .. 0 ... : ... .. . ... ... : ... .. . ... ... : ... .. . ... ... : ... .. . ... ...
ROW CA : G#2 00 F ... ... ... : C#4 00 B ... ... ... : C-5 00 . ... : 1-# 00 F ... : ... .. . ... ... : C#4 01 6 ... ... : G#3 01 6 ... ... : ... .. . ... ...
ROW CB : ... .. E ... ... ... : ... .. F ... ... ... : D-4 00 . ... : ... .. C ... : ... .. . ... ... : ... .. . ... ... : ... .. . ... ... : ... .. . ... ...
ROW CC : ... .. D ... ... ... : ... .. B ... ... ... : G-3 00 . ... : ... .. 6 ... : ... .. . ... ... : ... .. 5 ... ... : ... .. 5 ... ... : ... .. . ... ...
ROW CD : ... .. A ... ... ... : ... .. 0 ... ... ... : F#3 00 . ... : ... .. 3 ... : ... .. . ... ... : ... .. 4 ... ... : ... .. 4 ... ... : ... .. . ... ...
ROW CE : ... .. . ... ... ... : C#4 00 8 P80 ... ... : C#3 00 . ... : ... .. 2 ... : ... .. . ... ... : ... .. . ... ... : ... .. . ... ... : ... .. . ... ...
ROW CF : ... .. . ... ... ... : ... .. C ... ... ... : --- .. . ... : ... .. 0 ... : ... .. . ... ... : ... .. . ... ... : ... .. . ... ... : ... .. . ... ...
ROW D0 : ... .. . ... ... ... : G#3 00 B ... ... ... : D#3 00 . ... : C-# 00 8 ... : ... .. . ... ... : ... .. . ... ... : ... .. . ... ... : ... .. . ... ...
ROW D1 : ... .. . ... ... ... : ... .. F ... ... ... : ... .. . ... : ... .. 6 ... : ... .. . ... ... : ... .. 3 ... ... : ... .. 3 ... ... : ... .. . ... ...
ROW D2 : ... .. . ... ... ... : ... .. B ... ... ... : ... .. . ... : ... .. 3 ... : ... .. . ... ... : ... .. . ... ... : ... .. . ... ... : ... .. . ... ...
ROW D3 : ... .. . ... ... ... : ... .. 0 ... ... ... : ... .. . ... : ... .. 1 ... : ... .. . ... ... : ... .. . ... ... : ... .. . ... ... : ... .. . ... ...
ROW D4 : ... .. . ... ... ... : G#3 00 8 P80 ... ... : ... .. . ... : ... .. . ... : ... .. . ... ... : ... .. . ... ... : ... .. . ... ... : ... .. . ... ...
ROW D5 : ... .. . ... ... ... : ... .. C ... ... ... : --- .. . ... : ... .. 0 ... : ... .. . ... ... : ... .. . ... ... : ... .. . ... ... : ... .. . ... ...
ROW D6 : ... .. . ... ... ... : E-3 00 B ... ... ... : E-3 00 . ... : ... .. 8 ... : ... .. . ... ... : ... .. . ... ... : ... .. . ... ... : ... .. . ... ...
ROW D7 : ... .. . ... ... ... : ... .. F ... ... ... : ... .. . ... : ... .. 6 ... : ... .. . ... ... : ... .. . ... ... : ... .. . ... ... : ... .. . ... ...
ROW D8 : ... .. . ... ... ... : ... .. B ... ... ... : ... .. . ... : ... .. 3 ... : ... .. . ... ... : ... .. . ... ... : ... .. . ... ... : ... .. . ... ...
ROW D9 : ... .. . ... ... ... : ... .. 0 ... ... ... : ... .. . ... : ... .. 1 ... : ... .. . ... ... : ... .. . ... ... : ... .. . ... ... : ... .. . ... ...
ROW DA : ... .. . ... ... ... : E-3 00 8 P80 ... ... : ... .. . ... : ... .. . ... : ... .. . ... ... : ... .. . ... ... : ... .. . ... ... : ... .. . ... ...
ROW DB : ... .. . ... ... ... : ... .. C ... ... ... : --- .. . ... : ... .. 0 ... : ... .. . ... ... : ... .. . ... ... : ... .. . ... ... : ... .. . ... ...
ROW DC : F#2 00 F ... ... ... : G#3 00 B ... ... ... : E-3 00 . ... : 7-# 00 F ... : ... .. . ... ... : E-4 01 6 ... ... : C#4 01 6 ... ... : E-3 01 A ... ...
ROW DD : ... .. E ... ... ... : ... .. F ... ... ... : ... .. . ... : ... .. C ... : ... .. . ... ... : ... .. . ... ... : ... .. . ... ... : ... .. 8 ... ...
ROW DE : ... .. D ... ... ... : ... .. B ... ... ... : ... .. . ... : ... .. 6 ... : ... .. . ... ... : ... .. 5 ... ... : ... .. 5 ... ... : ... .. 5 ... ...
ROW DF : ... .. A ... ... ... : ... .. 0 ... ... ... : ... .. . ... : ... .. 3 ... : ... .. . ... ... : ... .. 4 ... ... : ... .. 4 ... ... : ... .. . ... ...
ROW E0 : ... .. . ... ... ... : G#3 00 8 P80 ... ... : ... .. . ... : ... .. 2 ... : ... .. . ... ... : ... .. . ... ... : ... .. . ... ... : ... .. . ... ...
ROW E1 : ... .. . ... ... ... : ... .. C ... ... ... : --- .. . ... : ... .. 0 ... : ... .. . ... ... : ... .. . ... ... : ... .. . ... ... : --- .. . P7D ...
ROW E2 : ... .. . ... ... ... : G#2 00 B ... ... ... : D#3 00 . ... : ... .. 8 ... : ... .. . ... ... : ... .. . ... ... : ... .. . ... ... : D#3 01 A P80 ...
ROW E3 : ... .. . ... ... ... : ... .. F ... ... ... : ... .. . ... : ... .. 6 ... : ... .. . ... ... : ... .. 3 ... ... : ... .. 3 ... ... : ... .. 8 ... ...
ROW E4 : ... .. . ... ... ... : ... .. B ... ... ... : ... .. . ... : ... .. 3 ... : ... .. . ... ... : ... .. . ... ... : ... .. . ... ... : ... .. 5 ... ...
ROW E5 : ... .. . ... ... ... : ... .. 0 ... ... ... : ... .. . ... : ... .. 1 ... : ... .. . ... ... : ... .. . ... ... : ... .. . ... ... : ... .. . ... ...
ROW E6 : ... .. . ... ... ... : G#2 00 8 P80 ... ... : ... .. . ... : ... .. . ... : ... .. . ... ... : ... .. . ... ... : ... .. . ... ... : ... .. . ... ...
ROW E7 : ... .. . ... ... ... : ... .. C ... ... ... : --- .. . ... : ... .. 0 ... : ... .. . ... ... : ... .. . ... ... : ... .. . ... ... : --- .. . P7F ...
ROW E8 : ... .. . ... ... ... : C#3 00 B ... ... ... : C#3 00 . ... : 4-# 00 F ... : ... .. . ... ... : ... .. . ... ... : ... .. . ... ... : C#3 01 A P80 ...
ROW E9 : ... .. . ... ... ... : ... .. F ... ... ... : ... .. . ... : ... .. C ... : ... .. . ... ... : ... .. . ... ... : ... .. . ... ... : ... .. 8 ... ...
ROW EA : ... .. . ... ... ... : ... .. B ... ... ... : ... .. . ... : ... .. 6 ... : ... .. . ... ... : ... .. . ... ... : ... .. . ... ... : ... .. 5 ... ...
ROW EB : ... .. . ... ... ... : ... .. 0 ... ... ... : ... .. . ... : ... .. 3 ... : ... .. . ... ... : ... .. . ... ... : ... .. . ... ... : ... .. . ... ...
ROW EC : ... .. 2 ... ... ... : C#3 00 8 P80 ... ... : ... .. . ... : ... .. 2 ... : ... .. . ... ... : ... .. . ... ... : ... .. . ... ... : ... .. . ... ...
ROW ED : ... .. . ... ... ... : ... .. C ... ... ... : --- .. . ... : ... .. 0 ... : ... .. . ... ... : ... .. . ... ... : ... .. . ... ... : --- .. . ... ...
ROW EE : G#2 00 F ... ... ... : E-3 00 B ... ... ... : G#3 00 . ... : 9-# 00 8 ... : ... .. . ... ... : G#4 01 6 ... ... : A#3 01 6 ... ... : G#3 01 A ... ...
ROW EF : ... .. E ... ... ... : ... .. F ... ... ... : ... .. . ... : ... .. 6 ... : ... .. . ... ... : ... .. . ... ... : ... .. . ... ... : ... .. 8 ... ...
ROW F0 : ... .. D ... ... ... : ... .. B ... ... ... : ... .. . ... : ... .. 3 ... : ... .. . ... ... : ... .. 5 ... ... : ... .. 5 ... ... : ... .. 5 ... ...
ROW F1 : ... .. A ... ... ... : ... .. 0 ... ... ... : ... .. . ... : ... .. 1 ... : ... .. . ... ... : ... .. 4 ... ... : ... .. 4 ... ... : ... .. . ... ...
ROW F2 : ... .. . ... ... ... : E-3 00 8 P80 ... ... : ... .. . ... : ... .. . ... : ... .. . ... ... : ... .. . ... ... : ... .. . ... ... : ... .. . ... ...
ROW F3 : ... .. . ... ... ... : ... .. C ... ... ... : --- .. . ... : ... .. 0 ... : ... .. . ... ... : ... .. . ... ... : ... .. . ... ... : --- .. . P7F ...
ROW F4 : ... .. . ... ... ... : C#3 00 B ... ... ... : E-3 00 . ... : 7-# 00 F ... : ... .. . ... ... : ... .. . ... ... : ... .. . ... ... : E-3 01 A P80 ...
ROW F5 : ... .. . ... ... ... : ... .. F ... ... ... : ... .. . ... : ... .. C ... : ... .. . ... ... : ... .. 3 ... ... : ... .. 3 ... ... : ... .. 8 ... ...
ROW F6 : ... .. . ... ... ... : ... .. B ... ... ... : ... .. . ... : ... .. 6 ... : ... .. . ... ... : ... .. . ... ... : ... .. . ... ... : ... .. 5 ... ...
ROW F7 : A-2 00 A P81 ... ... : ... .. 0 ... ... ... : ... .. . ... : ... .. 3 ... : ... .. . ... ... : ... .. . ... ... : ... .. . ... ... : ... .. . ... ...
ROW F8 : A#2 00 A P85 ... ... : C#3 00 8 P80 ... ... : ... .. . ... : ... .. 2 ... : ... .. . ... ... : ... .. . ... ... : ... .. . ... ... : ... .. . ... ...
ROW F9 : B-2 00 A P8A ... ... : ... .. C ... ... ... : --- .. . ... : ... .. 0 ... : ... .. . ... ... : ... .. . ... ... : ... .. . ... ... : --- .. . P7D ...
ROW FA : C#3 00 A P79 ... ... : G#2 00 B ... ... ... : C#3 00 . ... : 5-# 00 8 ... : ... .. . ... ... : ... .. . ... ... : ... .. . ... ... : C#3 01 A P80 ...
ROW FB : D-3 00 A P82 ... ... : ... .. F ... ... ... : ... .. . ... : ... .. 6 ... : ... .. . ... ... : ... .. . ... ... : ... .. . ... ... : ... .. 8 ... ...
ROW FC : E-3 00 A P78 ... ... : ... .. B ... ... ... : ... .. . ... : ... .. 3 ... : ... .. . ... ... : ... .. . ... ... : ... .. . ... ... : ... .. 5 ... ...
ROW FD : F-3 00 A P85 ... ... : ... .. 0 ... ... ... : ... .. . ... : ... .. 1 ... : ... .. . ... ... : ... .. . ... ... : ... .. . ... ... : ... .. . ... ...
ROW FE : G-3 00 A P82 ... ... : G#2 00 8 P80 ... ... : ... .. . ... : ... .. . ... : ... .. . ... ... : ... .. . ... ... : ... .. . ... ... : ... .. . ... ...
ROW FF : A-3 00 A P83 ... ... : ... .. C ... ... ... : --- .. . ... : ... .. 0 ... : ... .. . ... ... : ... .. . ... ... : ... .. . ... ... : --- .. . ... ...

PATTERN 12
ROW 00 : C#5 00 F P80 ... ... : A#3 00 F ... ... ... : F-4 00 . ... : B-# 00 D ... : ... .. . ... ... : F#3 01 A ... ... : D#3 01 A ... ... : F#3 01 F ... ...
ROW 01 : ... .. E ... ... ... : ... .. E ... ... ... : G-3 00 . ... : ... .. B ... : ... .. . ... ... : ... .. 9 ... ... : ... .. 9 ... ... : ... .. D ... ...
ROW 02 : ... .. D ... ... ... : ... .. D ... ... ... : C-3 00 . ... : ... .. . ... : ... .. . ... ... : ... .. 8 ... ... : ... .. 8 ... ... : ... .. 8 ... ...
ROW 03 : ... .. A ... ... ... : ... .. A ... ... ... : B-2 00 . ... : ... .. A ... : ... .. . ... ... : ... .. 7 ... ... : ... .. 7 ... ... : ... .. . ... ...
ROW 04 : ... .. . ... ... ... : ... .. . ... ... ... : F#2 00 . ... : ... .. 8 ... : ... .. . ... ... : ... .. . ... ... : ... .. . ... ... : ... .. . ... ...
ROW 05 : ... .. . ... ... ... : ... .. . ... ... ... : ... .. . ... : ... .. 7 ... : ... .. . ... ... : ... .. 6 ... ... : ... .. 6 ... ... : ... .. . ... ...
ROW 06 : ... .. . ... ... ... : ... .. . ... ... ... : ... .. . ... : C-# 00 8 ... : ... .. . ... ... : ... .. 5 ... ... : ... .. 5 ... ... : ... .. . ... ...
ROW 07 : ... .. 2 ... ... ... : ... .. 2 ... ... ... : ... .. . ... : ... .. 6 ... : ... .. . ... ... : ... .. . ... ... : ... .. . ... ... : ... .. 4 ... ...
ROW 08 : ... .. . ... ... ... : ... .. . ... ... ... : ... .. . ... : ... .. 3 ... : ... .. . ... ... : ... .. 3 ... ... : ... .. 3 ... ... : ... .. . ... ...
ROW 09 : ... .. . ... ... ... : ... .. . ... ... ... : F-2 00 . P84 : ... .. 1 ... : ... .. . ... ... : ... .. . ... ... : ... .. . ... ... : ... .. 1 ... ...
ROW 0A : ... .. 1 ... ... ... : ... .. 1 ... ... ... : E-2 00 . P8A : ... .. . ... : ... .. . ... ... : ... .. . ... ... : ... .. . ... ... : ... .. . ... ...
ROW 0B : ... .. . ... ... ... : ... .. . ... ... ... : D#2 00 . P92 : ... .. 0 ... : ... .. . ... ... : ... .. . ... ... : ... .. . ... ... : ... .. . ... ...
ROW 0C : F#5 00 F ... ... ... : C#4 00 F ... ... ... : G-4 00 . P80 : B-# 00 D ... : ... .. . ... ... : A#3 01 A ... ... : G#3 01 A ... ... : A#3 01 F ... ...
ROW 0D : ... .. E ... ... ... : ... .. E ... ... ... : A-3 00 . ... : ... .. B ... : ... .. . ... ... : ... .. 9 ... ... : ... .. 9 ... ... : ... .. D ... ...
ROW 0E : ... .. D ... ... ... : ... .. D ... ... ... : D-3 00 . ... : ... .. . ... : ... .. . ... ... : ... .. 8 ... ... : ... .. 8 ... ... : ... .. 8 ... ...
ROW 0F : ... .. A ... ... ... : ... .. A ... ... ... : C#3 00 . ... : ... .. A ... : ... .. . ... ... : ... .. 7 ... ... : ... .. 7 ... ... : ... .. . ... ...
ROW 10 : ... .. . ... ... ... : ... .. . ... ... ... : G#2 00 . ... : ... .. 8 ... : ... .. . ... ... : ... .. . ... ... : ... .. . ... ... : ... .. . ... ...
ROW 11 : ... .. . ... ... ... : ... .. . ... ... ... : ... .. . ... : ... .. 7 ... : ... .. . ... ... : ... .. 6 ... ... : ... .. 6 ... ... : ... .. . ... ...
ROW 12 : ... .. . ... ... ... : ... .. . ... ... ... : ... .. . ... : 1-# 00 F ... : ... .. . ... ... : ... .. 5 ... ... : ... .. 5 ... ... : ... .. . ... ...
ROW 13 : ... .. 2 ... ... ... : ... .. 2 ... ... ... : ... .. . ... : ... .. C ... : ... .. . ... ... : ... .. . ... ... : ... .. . ... ... : ... .. 4 ... ...
ROW 14 : ... .. . ... ... ... : ... .. . ... ... ... : ... .. . ... : ... .. 6 ... : ... .. . ... ... : ... .. 3 ... ... : ... .. 3 ... ... : ... .. . ... ...
ROW 15 : ... .. . ... ... ... : ... .. . ... ... ... : ... .. . ... : ... .. 3 ... : ... .. . ... ... : ... .. . ... ... : ... .. . ... ... : ... .. 1 ... ...
ROW 16 : ... .. 1 ... ... ... : ... .. 1 ... ... ... : ... .. . ... : ... .. 2 ... : ... .. . ... ... : ... .. . ... ... : ... .. . ... ... : ... .. . ... ...
ROW 17 : ... .. . ... ... ... : ... .. . ... ... ... : ... .. . ... : ... .. 0 ... : ... .. . ... ... : ... .. . ... ... : ... .. . ... ... : ... .. . ... ...
ROW 18 : C#5 00 F ... ... ... : A#3 00 F ... ... ... : C#3 00 . ... : B-# 00 D ... : ... .. . ... ... : F#3 01 A ... ... : C#3 01 A ... ... : F#3 01 F ... ...
ROW 19 : ... .. E ... ... ... : ... .. E ... ... ... : ... .. . ... : ... .. B ... : ... .. . ... ... : ... .. 9 ... ... : ... .. 9 ... ... : ... .. D ... ...
ROW 1A : ... .. D ... ... ... : ... .. D ... ... ... : ... .. . ... : ... .. . ... : ... .. . ... ... : ... .. 8 ... ... : ... .. 8 ... ... : ... .. 8 ... ...
ROW 1B : ... .. A ... ... ... : ... .. A ... ... ... : ... .. . ... : ... .. A ... : ... .. . ... ... : ... .. 7 ... ... : ... .. 7 ... ... : ... .. . ... ...
ROW 1C : ... .. . ... ... ... : ... .. . ... ... ... : ... .. . ... : ... .. 8 ... : ... .. . ... ... : ... .. . ... ... : ... .. . ... ... : ... .. . ... ...
ROW 1D : ... .. . ... ... ... : ... .. . ... ... ... : ... .. . ... : ... .. 7 ... : ... .. . ... ... : ... .. 6 ... ... : ... .. 6 ... ... : ... .. . ... ...
ROW 1E : ... .. . ... ... ... : ... .. . ... ... ... : D#3 00 . ... : C-# 00 8 ... : ... .. . ... ... : ... .. 5 ... ... : ... .. 5 ... ... : ... .. . ... ...
ROW 1F : ... .. 2 ... ... ... : ... .. 2 ... ... ... : ... .. . ... : ... .. 6 ... : ... .. . ... ... : ... .. . ... ... : ... .. . ... ... : ... .. 4 ... ...
ROW 20 : ... .. . ... ... ... : ... .. . ... ... ... : ... .. . ... : ... .. 3 ... : ... .. . ... ... : ... .. 3 ... ... : ... .. 3 ... ... : ... .. . ... ...
ROW 21 : ... .. . ... ... ... : ... .. . ... ... ... : ... .. . ... : ... .. 1 ... : ... .. . ... ... : ... .. . ... ... : ... .. . ... ... : ... .. 1 ... ...
ROW 22 : ... .. 1 ... ... ... : ... .. 1 ... ... ... : ... .. . ... : ... .. . ... : ... .. . ... ... : ... .. . ... ... : ... .. . ... ... : ... .. . ... ...
ROW 23 : ... .. . ... ... ... : ... .. . ... ... ... : ... .. . ... : ... .. 0 ... : ... .. . ... ... : ... .. . ... ... : ... .. . ... ... : ... .. . ... ...
ROW 24 : D#5 00 F ... ... ... : B-3 00 F ... ... ... : G-5 00 . ... : B-# 00 D ... : ... .. . ... ... : G#3 01 A ... ... : ... .. A ... ... : D#3 01 F ... ...
ROW 25 : ... .. E ... ... ... : ... .. E ... ... ... : A-4 00 . ... : ... .. B ... : ... .. . ... ... : ... .. 9 ... ... : ... .. 9 ... ... : ... .. D ... ...
ROW 26 : ... .. D ... ... ... : ... .. D ... ... ... : D-4 00 . ... : ... .. . ... : ... .. . ... ... : ... .. 8 ... ... : ... .. 8 ... ... : ... .. 8 ... ...
ROW 27 : ... .. A ... ... ... : ... .. A ... ... ... : C#4 00 . ... : ... .. A ... : ... .. . ... ... : ... .. 7 ... ... : ... .. 7 ... ... : ... .. . ... ...
ROW 28 : ... .. . ... ... ... : ... .. . ... ... ... : G#3 00 . ... : ... .. 8 ... : ... .. . ... ... : ... .. . ... ... : ... .. . ... ... : ... .. . ... ...
ROW 29 : ... .. . ... ... ... : ... .. . ... ... ... : --- .. . ... : ... .. 7 ... : ... .. . ... ... : ... .. 6 ... ... : ... .. 6 ... ... : ... .. . ... ...
ROW 2A : ... .. . ... ... ... : ... .. . ... ... ... : F#3 00 . ... : ... .. 6 ... : ... .. . ... ... : ... .. . ... ... : B-2 01 A ... ... : ... .. . ... ...
ROW 2B : ... .. . ... ... ... : ... .. . ... ... ... : ... .. . ... : ... .. . ... : ... .. . ... ... : ... .. 5 ... ... : ... .. 9 ... ... : ... .. . ... ...
ROW 2C : ... .. . ... ... ... : ... .. . ... ... ... : ... .. . ... : ... .. 5 ... : ... .. . ... ... : ... .. . ... ... : ... .. 8 ... ... : ... .. . ... ...
ROW 2D : ... .. . ... ... ... : ... .. . ... ... ... : ... .. . ... : ... .. . ... : ... .. . ... ... : ... .. . ... ... : ... .. 5 ... ... : ... .. . ... ...
ROW 2E : ... .. . ... ... ... : ... .. . ... ... ... : ... .. . ... : ... .. 4 ... : ... .. . ... ... : ... .. . ... ... : ... .. . ... ... : ... .. . ... ...
ROW 2F : ... .. . ... ... ... : ... .. . ... ... ... : --- .. . ... : ... .. . ... : ... .. . ... ... : ... .. . ... ... : ... .. 3 ... ... : ... .. . ... ...
ROW 30 : E-5 00 A P7F ... ... : C-4 00 A P7E ... ... : G#3 00 . ... : 7-# 00 F ... : ... .. . ... ... : ... .. . ... ... : A#2 01 A ... ... : ... .. . ... ...
ROW 31 : ... .. . P81 ... ... : ... .. . P84 ... ... : ... .. . ... : ... .. C ... : ... .. . ... ... : ... .. . ... ... : ... .. 9 ... ... : ... .. . ... ...
ROW 32 : ... .. . P80 ... ... : ... .. . P82 ... ... : ... .. . ... : ... .. 6 ... : ... .. . ... ... : ... .. . ... ... : ... .. 8 ... ... : ... .. . ... ...
ROW 33 : D#5 00 A P82 ... ... : B-3 00 A P84 ... ... : ... .. . ... : ... .. 3 ... : ... .. . ... ... : ... .. . ... ... : ... .. 5 ... ... : ... .. . ... ...
ROW 34 : ... .. 2 P7E ... ... : ... .. 2 P7C ... ... : ... .. . ... : ... .. 2 ... : ... .. . ... ... : ... .. . ... ... : ... .. . ... ... : ... .. . ... ...
ROW 35 : D-5 00 2 P80 ... ... : A#3 00 2 P80 ... ... : --- .. . ... : ... .. 0 ... : ... .. . ... ... : ... .. . ... ... : ... .. 3 ... ... : ... .. . ... ...
ROW 36 : G#2 00 F ... ... ... : D#3 00 B ... ... ... : G#4 00 . ... : 1-# 00 8 ... : ... .. . ... ... : ... .. . ... ... : B-2 01 A ... ... : B-2 01 F ... ...
ROW 37 : ... .. E ... ... ... : ... .. F ... ... ... : ... .. . ... : ... .. 6 ... : ... .. . ... ... : ... .. . ... ... : ... .. 9 ... ... : ... .. D ... ...
ROW 38 : ... .. D ... ... ... : ... .. B ... ... ... : ... .. . ... : ... .. 3 ... : ... .. . ... ... : ... .. . ... ... : ... .. 8 ... ... : ... .. 8 ... ...
ROW 39 : ... .. A ... ... ... : ... .. 0 ... ... ... : ... .. . ... : ... .. 1 ... : ... .. . ... ... : ... .. . ... ... : ... .. 7 ... ... : ... .. . ... ...
ROW 3A : ... .. . ... ... ... : D#3 00 8 P80 ... ... : ... .. . ... : ... .. . ... : ... .. . ... ... : ... .. . ... ... : ... .. . ... ... : ... .. . ... ...
ROW 3B : ... .. . ... ... ... : ... .. C ... ... ... : --- .. . ... : ... .. 0 ... : ... .. . ... ... : ... .. . ... ... : ... .. 6 ... ... : ... .. . ... ...
ROW 3C : G#1 00 F ... ... ... : D#2 00 B ... ... ... : G#3 00 . ... : 7-# 00 F ... : ... .. . ... ... : ... .. . ... ... : A#2 01 A ... ... : ... .. . ... ...
ROW 3D : ... .. E ... ... ... : ... .. F ... ... ... : ... .. . ... : ... .. C ... : ... .. . ... ... : ... .. . ... ... : ... .. 9 ... ... : ... .. . ... ...
ROW 3E : ... .. D ... ... ... : ... .. B ... ... ... : ... .. . ... : ... .. 6 ... : ... .. . ... ... : ... .. . ... ... : ... .. 8 ... ... : ... .. . ... ...
ROW 3F : ... .. A ... ... ... : ... .. 0 ... ... ... : ... .. . ... : ... .. 3 ... : ... .. . ... ... : ... .. . ... ... : ... .. 5 ... ... : ... .. . ... ...
ROW 40 : ... .. 2 ... ... ... : D#2 00 8 P80 ... ... : ... .. . ... : ... .. 2 ... : ... .. . ... ... : ... .. . ... ... : ... .. . ... ... : ... .. . ... ...
ROW 41 : ... .. . ... ... ... : ... .. C ... ... ... : --- .. . ... : ... .. 0 ... : ... .. . ... ... : ... .. . ... ... : ... .. 3 ... ... : ... .. . ... ...
ROW 42 : ... .. F ... ... ... : G#2 00 B ... ... ... : G#2 00 . ... : 1-# 00 8 ... : ... .. . ... ... : ... .. . ... ... : G#2 01 A ... ... : ... .. . ... ...
ROW 43 : ... .. E ... ... ... : ... .. F ... ... ... : ... .. . ... : ... .. 6 ... : ... .. . ... ... : ... .. . ... ... : ... .. 9 ... ... : ... .. . ... ...
ROW 44 : ... .. D ... ... ... : ... .. B ... ... ... : ... .. . ... : ... .. 3 ... : ... .. . ... ... : ... .. . ... ... : ... .. 8 ... ... : ... .. . ... ...
ROW 45 : ... .. A ... ... ... : ... .. 0 ... ... ... : ... .. . ... : ... .. 1 ... : ... .. . ... ... : ... .. . ... ... : ... .. 5 ... ... : ... .. . ... ...
ROW 46 : ... .. 2 ... ... ... : G#2 00 8 P80 ... ... : ... .. . ... : ... .. . ... : ... .. . ... ... : ... .. . ... ... : ... .. . ... ... : ... .. . ... ...
ROW 47 : ... .. . ... ... ... : ... .. C ... ... ... : --- .. . ... : ... .. 0 ... : ... .. . ... ... : ... .. . ... ... : ... .. 3 ... ... : ... .. . ... ...
ROW 48 : C#4 00 F ... ... ... : A#2 00 F ... ... ... : F-4 00 . ... : B-# 00 D ... : ... .. . ... ... : F#2 01 A ... ... : D#2 01 A ... ... : A#2 01 F ... ...
ROW 49 : ... .. E ... ... ... : ... .. E ... ... ... : G-3 00 . ... : ... .. B ... : ... .. . ... ... : ... .. 9 ... ... : ... .. 9 ... ... : ... .. D ... ...
ROW 4A : ... .. D ... ... ... : ... .. D ... ... ... : C-3 00 . ... : ... .. . ... : ... .. . ... ... : ... .. 8 ... ... : ... .. 8 ... ... : ... .. 8 ... ...
ROW 4B : ... .. A ... ... ... : ... .. A ... ... ... : B-2 00 . ... : ... .. A ... : ... .. . ... ... : ... .. 7 ... ... : ... .. 7 ... ... : ... .. . ... ...
ROW 4C : ... .. . ... ... ... : ... .. . ... ... ... : F#2 00 . ... : ... .. 8 ... : ... .. . ... ... : ... .. . ... ... : ... .. . ... ... : ... .. . ... ...
ROW 4D : ... .. . ... ... ... : ... .. . ... ... ... : ... .. . ... : ... .. 7 ... : ... .. . ... ... : ... .. 6 ... ... : ... .. 6 ... ... : ... .. . ... ...
ROW 4E : ... .. . ... ... ... : ... .. . ... ... ... : ... .. . ... : C-# 00 8 ... : ... .. . ... ... : ... .. 5 ... ... : ... .. 5 ... ... : ... .. . ... ...
ROW 4F : ... .. 2 ... ... ... : ... .. 2 ... ... ... : ... .. . ... : ... .. 6 ... : ... .. . ... ... : ... .. . ... ... : ... .. . ... ... : ... .. . ... ...
ROW 50 : ... .. . ... ... ... : ... .. . ... ... ... : ... .. . ... : ... .. 3 ... : ... .. . ... ... : ... .. 3 ... ... : ... .. 3 ... ... : ... .. . ... ...
ROW 51 : ... .. . ... ... ... : ... .. . ... ... ... : --- .. . ... : ... .. 1 ... : ... .. . ... ... : ... .. . ... ... : ... .. . ... ... : ... .. . ... ...
ROW 52 : ... .. 1 ... ... ... : ... .. 1 ... ... ... : ... .. . ... : ... .. . ... : ... .. . ... ... : ... .. . ... ... : ... .. . ... ... : ... .. . ... ...
ROW 53 : ... .. . ... ... ... : ... .. . ... ... ... : ... .. . ... : ... .. 0 ... : ... .. . ... ... : ... .. . ... ... : ... .. . ... ... : ... .. . ... ...
ROW 54 : F#4 00 F ... ... ... : C#3 00 F ... ... ... : G-4 00 . ... : B-# 00 D ... : ... .. . ... ... : A#2 01 A ... ... : G#2 01 A ... ... : B-2 01 F ... ...
ROW 55 : ... .. E ... ... ... : ... .. E ... ... ... : A-3 00 . ... : ... .. B ... : ... .. . ... ... : ... .. 9 ... ... : ... .. 9 ... ... : ... .. D ... ...
ROW 56 : ... .. D ... ... ... : ... .. D ... ... ... : D-3 00 . ... : ... .. . ... : ... .. . ... ... : ... .. 8 ... ... : ... .. 8 ... ... : ... .. 8 ... ...
ROW 57 : ... .. A ... ... ... : ... .. A ... ... ... : C#3 00 . ... : ... .. A ... : ... .. . ... ... : ... .. 7 ... ... : ... .. 7 ... ... : ... .. . ... ...
ROW 58 : ... .. . ... ... ... : ... .. . ... ... ... : G#2 00 . ... : ... .. 8 ... : ... .. . ... ... : ... .. . ... ... : ... .. . ... ... : ... .. . ... ...
ROW 59 : ... .. . ... ... ... : ... .. . ... ... ... : ... .. . ... : ... .. 7 ... : ... .. . ... ... : ... .. 6 ... ... : ... .. 6 ... ... : ... .. . ... ...
ROW 5A : ... .. . ... ... ... : ... .. . ... ... ... : ... .. . ... : 1-# 00 F ... : ... .. . ... ... : ... .. 5 ... ... : ... .. 5 ... ... : ... .. . ... ...
ROW 5B : ... .. 2 ... ... ... : ... .. 2 ... ... ... : ... .. . ... : ... .. C ... : ... .. . ... ... : ... .. . ... ... : ... .. . ... ... : ... .. . ... ...
ROW 5C : ... .. . ... ... ... : ... .. . ... ... ... : ... .. . ... : ... .. 6 ... : ... .. . ... ... : ... .. 3 ... ... : ... .. 3 ... ... : ... .. . ... ...
ROW 5D : ... .. . ... ... ... : ... .. . ... ... ... : ... .. . ... : ... .. 3 ... : ... .. . ... ... : ... .. . ... ... : ... .. . ... ... : ... .. . ... ...
ROW 5E : ... .. 1 ... ... ... : ... .. 1 ... ... ... : ... .. . ... : ... .. 2 ... : ... .. . ... ... : ... .. . ... ... : ... .. . ... ... : ... .. . ... ...
ROW 5F : ... .. . ... ... ... : ... .. . ... ... ... : ... .. . ... : ... .. 0 ... : ... .. . ... ... : ... .. . ... ... : ... .. . ... ... : ... .. . ... ...
ROW 60 : A#4 00 F ... ... ... : F#4 00 F ... ... ... : ... .. . ... : B-# 00 D ... : ... .. . ... ... : F#2 01 A ... ... : C#2 01 A ... ... : A#3 01 F ... ...
ROW 61 : ... .. E ... ... ... : ... .. E ... ... ... : ... .. . ... : ... .. B ... : ... .. . ... ... : ... .. 9 ... ... : ... .. 9 ... ... : ... .. D ... ...
ROW 62 : ... .. D ... ... ... : ... .. D ... ... ... : ... .. . ... : ... .. . ... : ... .. . ... ... : ... .. 8 ... ... : ... .. 8 ... ... : ... .. 8 ... ...
ROW 63 : ... .. A ... ... ... : ... .. A ... ... ... : ... .. . ... : ... .. A ... : ... .. . ... ... : ... .. 7 ... ... : ... .. 7 ... ... : ... .. . ... ...
ROW 64 : ... .. . ... ... ... : ... .. . ... ... ... : ... .. . ... : ... .. 8 ... : ... .. . ... ... : ... .. . ... ... : ... .. . ... ... : ... .. . ... ...
ROW 65 : ... .. . ... ... ... : ... .. . ... ... ... : ... .. . ... : ... .. 7 ... : ... .. . ... ... : ... .. 6 ... ... : ... .. 6 ... ... : ... .. . ... ...
ROW 66 : ... .. . ... ... ... : ... .. . ... ... ... : A#2 00 . ... : C-# 00 8 ... : ... .. . ... ... : ... .. 5 ... ... : ... .. 5 ... ... : ... .. . ... ...
ROW 67 : ... .. 2 ... ... ... : ... .. 2 ... ... ... : ... .. . ... : ... .. 6 ... : ... .. . ... ... : ... .. . ... ... : ... .. . ... ... : ... .. . ... ...
ROW 68 : ... .. . ... ... ... : ... .. . ... ... ... : ... .. . ... : ... .. 3 ... : ... .. . ... ... : ... .. 3 ... ... : ... .. 3 ... ... : ... .. . ... ...
ROW 69 : ... .. . ... ... ... : ... .. . ... ... ... : ... .. . ... : ... .. 1 ... : ... .. . ... ... : ... .. . ... ... : ... .. . ... ... : ... .. . ... ...
ROW 6A : ... .. 1 ... ... ... : ... .. 1 ... ... ... : ... .. . ... : ... .. . ... : ... .. . ... ... : ... .. . ... ... : ... .. . ... ... : ... .. . ... ...
ROW 6B : ... .. . ... ... ... : ... .. . ... ... ... : ... .. . ... : ... .. 0 ... : ... .. . ... ... : ... .. . ... ... : ... .. . ... ... : ... .. . ... ...
ROW 6C : B-4 00 F ... ... ... : F#3 00 F ... ... ... : B-2 00 . ... : B-# 00 D ... : ... .. . ... ... : G#2 01 6 ... ... : D#2 01 6 ... ... : F#3 01 A ... ...
ROW 6D : ... .. E ... ... ... : ... .. E ... ... ... : ... .. . ... : ... .. B ... : ... .. . ... ... : ... .. . ... ... : ... .. . ... ... : ... .. 8 ... ...
ROW 6E : ... .. D ... ... ... : ... .. D ... ... ... : ... .. . ... : ... .. . ... : ... .. . ... ... : ... .. 5 ... ... : ... .. 5 ... ... : ... .. 5 ... ...
ROW 6F : ... .. A ... ... ... : ... .. A ... ... ... : ... .. . ... : ... .. A ... : ... .. . ... ... : ... .. 4 ... ... : ... .. 4 ... ... : ... .. . ... ...
ROW 70 : ... .. . ... ... ... : ... .. . ... ... ... : ... .. . ... : ... .. 8 ... : ... .. . ... ... : ... .. . ... ... : ... .. . ... ... : ... .. . ... ...
ROW 71 : ... .. . ... ... ... : ... .. . ... ... ... : --- .. . ... : ... .. 7 ... : ... .. . ... ... : ... .. . ... ... : ... .. . ... ... : ... .. . ... ...
ROW 72 : ... .. . ... ... ... : E-3 00 F ... ... ... : A#2 00 . ... : ... .. 6 ... : ... .. . ... ... : A#2 01 6 ... ... : C#2 01 6 ... ... : ... .. . ... ...
ROW 73 : ... .. . ... ... ... : ... .. E ... ... ... : ... .. . ... : ... .. . ... : ... .. . ... ... : ... .. . ... ... : ... .. . ... ... : ... .. . ... ...
ROW 74 : ... .. . ... ... ... : ... .. D ... ... ... : ... .. . ... : ... .. 5 ... : ... .. . ... ... : ... .. 5 ... ... : ... .. 5 ... ... : ... .. . ... ...
ROW 75 : C-5 00 A P7E ... ... : ... .. A ... ... ... : ... .. . ... : ... .. . ... : ... .. . ... ... : ... .. 4 ... ... : ... .. 3 ... ... : ... .. . ... ...
ROW 76 : ... .. . P80 ... ... : ... .. . ... ... ... : ... .. . ... : ... .. 4 ... : ... .. . ... ... : ... .. . ... ... : ... .. . ... ... : ... .. . ... ...
ROW 77 : ... .. . P7F ... ... : ... .. . ... ... ... : --- .. . ... : ... .. . ... : ... .. . ... ... : ... .. . ... ... : ... .. 2 ... ... : ... .. . ... ...
ROW 78 : B-4 00 A P82 ... ... : D#3 00 F ... ... ... : B-2 00 . ... : 0-# 00 D ... : ... .. . ... ... : B-2 01 6 ... ... : B-1 01 6 ... ... : G#3 01 A ... ...
ROW 79 : ... .. . P7E ... ... : ... .. E ... ... ... : ... .. . ... : ... .. . ... : ... .. . ... ... : ... .. . ... ... : ... .. . ... ... : ... .. 8 ... ...
ROW 7A : A#4 00 A P82 ... ... : ... .. D ... ... ... : ... .. . ... : C-# 00 D ... : ... .. . ... ... : ... .. 5 ... ... : ... .. 5 ... ... : ... .. 5 ... ...
ROW 7B : ... .. . P81 ... ... : ... .. A ... ... ... : ... .. . ... : A-# 00 6 ... : ... .. . ... ... : ... .. 4 ... ... : ... .. 4 ... ... : ... .. . ... ...
ROW 7C : ... .. . P83 ... ... : ... .. . ... ... ... : ... .. . ... : 6-# 00 1 ... : ... .. . ... ... : ... .. . ... ... : ... .. . ... ... : ... .. . ... ...
ROW 7D : B-4 00 A P80 ... ... : ... .. . ... ... ... : --- .. . ... : ... .. 0 ... : ... .. . ... ... : ... .. . ... ... : ... .. . ... ... : ... .. . ... ...
ROW 7E : C#5 00 F ... ... ... : ... .. F ... ... ... : C#3 00 . ... : 9-# 00 D ... : ... .. . ... ... : ... .. 6 ... ... : ... .. 6 ... ... : ... .. . ... ...
ROW 7F : ... .. E ... ... ... : ... .. E ... ... ... : ... .. . ... : ... .. . ... : ... .. . ... ... : ... .. . ... ... : ... .. . ... ... : ... .. . ... ...
ROW 80 : ... .. D ... ... ... : ... .. D ... ... ... : ... .. . ... : 5-# 00 D ... : ... .. . ... ... : ... .. 5 ... ... : ... .. 5 ... ... : ... .. . ... ...
ROW 81 : ... .. A ... ... ... : ... .. A ... ... ... : ... .. . ... : 3-# 00 6 ... : ... .. . ... ... : ... .. 4 ... ... : ... .. 4 ... ... : ... .. . ... ...
ROW 82 : ... .. . ... ... ... : ... .. . ... ... ... : ... .. . ... : F-# 00 1 ... : ... .. . ... ... : ... .. . ... ... : ... .. . ... ... : ... .. . ... ...
ROW 83 : ... .. . ... ... ... : ... .. . ... ... ... : --- .. . ... : ... .. 0 ... : ... .. . ... ... : ... .. . ... ... : ... .. . ... ... : ... .. . ... ...
ROW 84 : ... .. . ... ... ... : C#3 00 F ... ... ... : D#3 00 . ... : 9-# 00 D ... : ... .. . ... ... : C#3 01 6 ... ... : A#1 01 6 ... ... : D#4 01 A ... ...
ROW 85 : ... .. . ... ... ... : ... .. E ... ... ... : ... .. . ... : ... .. . ... : ... .. . ... ... : ... .. . ... ... : ... .. . ... ... : ... .. 8 ... ...
ROW 86 : ... .. . ... ... ... : ... .. D ... ... ... : ... .. . ... : 5-# 00 D ... : ... .. . ... ... : ... .. 5 ... ... : ... .. 5 ... ... : ... .. 5 ... ...
ROW 87 : ... .. . ... ... ... : ... .. A ... ... ... : ... .. . ... : 3-# 00 6 ... : ... .. . ... ... : ... .. 4 ... ... : ... .. 4 ... ... : ... .. . ... ...
ROW 88 : ... .. . ... ... ... : ... .. . ... ... ... : ... .. . ... : F-# 00 1 ... : ... .. . ... ... : ... .. . ... ... : ... .. . ... ... : ... .. . ... ...
ROW 89 : ... .. . ... ... ... : ... .. . ... ... ... : --- .. . ... : ... .. 0 ... : ... .. . ... ... : ... .. . ... ... : ... .. . ... ... : ... .. . ... ...
ROW 8A : ... .. 5 ... ... ... : B-2 00 F ... ... ... : F#3 00 . ... : 8-# 00 D ... : ... .. . ... ... : D#3 01 6 ... ... : G#1 01 6 ... ... : ... .. . ... ...
ROW 8B : ... .. . ... ... ... : ... .. E ... ... ... : ... .. . ... : ... .. . ... : ... .. . ... ... : ... .. . ... ... : ... .. . ... ... : ... .. . ... ...
ROW 8C : ... .. . ... ... ... : ... .. D ... ... ... : ... .. . ... : 4-# 00 D ... : ... .. . ... ... : ... .. 5 ... ... : ... .. 5 ... ... : ... .. . ... ...
ROW 8D : ... .. . ... ... ... : ... .. A ... ... ... : ... .. . ... : 2-# 00 6 ... : ... .. . ... ... : ... .. 4 ... ... : ... .. 4 ... ... : ... .. . ... ...
ROW 8E : ... .. . ... ... ... : ... .. . ... ... ... : ... .. . ... : E-# 00 1 ... : ... .. . ... ... : ... .. . ... ... : ... .. . ... ... : ... .. . ... ...
ROW 8F : ... .. . ... ... ... : ... .. . ... ... ... : --- .. . ... : ... .. 0 ... : ... .. . ... ... : ... .. . ... ... : ... .. . ... ... : ... .. . ... ...
ROW 90 : D#5 00 F ... ... ... : E-2 00 8 ... ... ... : D#5 00 . ... : 1-# 00 F ... : ... .. . ... ... : B-3 01 6 ... ... : G#3 01 6 ... ... : E-4 01 A ... ...
ROW 91 : ... .. E ... ... ... : ... .. B ... ... ... : F-4 00 . ... : ... .. C ... : ... .. . ... ... : ... .. . ... ... : ... .. . ... ... : ... .. 8 ... ...
ROW 92 : ... .. D ... ... ... : ... .. 8 ... ... ... : A#3 00 . ... : ... .. 6 ... : ... .. . ... ... : ... .. 5 ... ... : ... .. 5 ... ... : ... .. 5 ... ...
ROW 93 : ... .. A ... ... ... : ... .. 0 ... ... ... : A-3 00 . ... : ... .. 3 ... : ... .. . ... ... : ... .. 4 ... ... : ... .. 4 ... ... : ... .. . ... ...
ROW 94 : ... .. . ... ... ... : E-2 00 5 P80 ... ... : E-3 00 . ... : ... .. 2 ... : ... .. . ... ... : ... .. . ... ... : ... .. . ... ... : ... .. . ... ...
ROW 95 : ... .. . ... ... ... : ... .. 8 ... ... ... : ... .. . ... : ... .. 0 ... : ... .. . ... ... : ... .. . ... ... : ... .. . ... ... : ... .. . ... ...
ROW 96 : ... .. . ... ... ... : B-1 00 8 ... ... ... : ... .. . ... : C-# 00 8 ... : ... .. . ... ... : ... .. . ... ... : ... .. . ... ... : F#4 01 A ... ...
ROW 97 : ... .. . ... ... ... : ... .. B ... ... ... : ... .. . ... : ... .. 6 ... : ... .. . ... ... : ... .. 3 ... ... : ... .. 3 ... ... : ... .. 8 ... ...
ROW 98 : ... .. . ... ... ... : ... .. 8 ... ... ... : ... .. . ... : ... .. 3 ... : ... .. . ... ... : ... .. . ... ... : ... .. . ... ... : ... .. 5 ... ...
ROW 99 : ... .. . ... ... ... : ... .. 0 ... ... ... : ... .. . ... : ... .. 1 ... : ... .. . ... ... : ... .. . ... ... : ... .. . ... ... : ... .. . ... ...
ROW 9A : ... .. . ... ... ... : B-1 00 5 P80 ... ... : ... .. . ... : ... .. . ... : ... .. . ... ... : ... .. . ... ... : ... .. . ... ... : ... .. . ... ...
ROW 9B : ... .. . ... ... ... : ... .. 8 ... ... ... : ... .. . ... : ... .. 0 ... : ... .. . ... ... : ... .. . ... ... : ... .. . ... ... : ... .. . ... ...
ROW 9C : ... .. . ... ... ... : G#2 00 8 ... ... ... : D-3 00 . P8A : ... .. 8 ... : ... .. . ... ... : ... .. . ... ... : ... .. . ... ... : D#4 01 A ... ...
ROW 9D : ... .. . ... ... ... : ... .. B ... ... ... : C#3 00 . P81 : ... .. 6 ... : ... .. . ... ... : ... .. . ... ... : ... .. . ... ... : ... .. 8 ... ...
ROW 9E : ... .. . ... ... ... : ... .. 8 ... ... ... : C-3 00 . P79 : ... .. 3 ... : ... .. . ... ... : ... .. . ... ... : ... .. . ... ... : ... .. 5 ... ...
ROW 9F : ... .. . ... ... ... : ... .. 0 ... ... ... : A#2 00 . P8D : ... .. 1 ... : ... .. . ... ... : ... .. . ... ... : ... .. . ... ... : ... .. . ... ...
ROW A0 : ... .. . ... ... ... : G#2 00 5 P80 ... ... : A-2 00 . P89 : ... .. . ... : ... .. . ... ... : ... .. . ... ... : ... .. . ... ... : ... .. . ... ...
ROW A1 : ... .. . ... ... ... : ... .. 8 ... ... ... : G#2 00 . P88 : ... .. 0 ... : ... .. . ... ... : ... .. . ... ... : ... .. . ... ... : ... .. . ... ...
ROW A2 : E-5 00 A P7F ... ... : B-2 00 8 ... ... ... : G-5 00 . P80 : 1-# 00 F ... : ... .. . ... ... : C#4 01 6 ... ... : A#3 01 6 ... ... : E-4 01 A ... ...
ROW A3 : ... .. . P81 ... ... : ... .. B ... ... ... : A-4 00 . ... : ... .. C ... : ... .. . ... ... : ... .. . ... ... : ... .. . ... ... : ... .. 8 ... ...
ROW A4 : ... .. . P80 ... ... : ... .. 8 ... ... ... : D-4 00 . ... : ... .. 6 ... : ... .. . ... ... : ... .. 5 ... ... : ... .. 5 ... ... : ... .. 5 ... ...
ROW A5 : D#5 00 A P82 ... ... : ... .. 0 ... ... ... : C#4 00 . ... : ... .. 3 ... : ... .. . ... ... : ... .. 4 ... ... : ... .. 4 ... ... : ... .. . ... ...
ROW A6 : ... .. . P7E ... ... : B-2 00 5 P80 ... ... : G#3 00 . ... : ... .. 2 ... : ... .. . ... ... : ... .. . ... ... : ... .. . ... ... : ... .. . ... ...
ROW A7 : D-5 00 A P80 ... ... : ... .. 8 ... ... ... : --- .. . ... : ... .. 0 ... : ... .. . ... ... : ... .. . ... ... : ... .. . ... ... : ... .. . ... ...
ROW A8 : ... .. . P7F ... ... : E-2 00 8 ... ... ... : F#3 00 . ... : C-# 00 8 ... : ... .. . ... ... : ... .. . ... ... : ... .. . ... ... : C#4 01 A ... ...
ROW A9 : ... .. . P81 ... ... : ... .. B ... ... ... : ... .. . ... : ... .. 6 ... : ... .. . ... ... : ... .. 3 ... ... : ... .. 3 ... ... : ... .. 8 ... ...
ROW AA : D#5 00 A P80 ... ... : ... .. 8 ... ... ... : ... .. . ... : ... .. 3 ... : ... .. . ... ... : ... .. . ... ... : ... .. . ... ... : ... .. 5 ... ...
ROW AB : E-5 00 A P7E ... ... : ... .. 0 ... ... ... : ... .. . ... : ... .. 1 ... : ... .. . ... ... : ... .. . ... ... : ... .. . ... ... : ... .. . ... ...
ROW AC : ... .. . P81 ... ... : E-2 00 5 P80 ... ... : ... .. . ... : ... .. . ... : ... .. . ... ... : ... .. . ... ... : ... .. . ... ... : ... .. . ... ...
ROW AD : ... .. . ... ... ... : ... .. 8 ... ... ... : --- .. . ... : ... .. 0 ... : ... .. . ... ... : ... .. . ... ... : ... .. . ... ... : ... .. . ... ...
ROW AE : D#5 00 A P82 ... ... : E-3 00 8 ... ... ... : G#3 00 . ... : ... .. 8 ... : ... .. . ... ... : ... .. . ... ... : ... .. . ... ... : D#4 01 A ... ...
ROW AF : C#5 00 A P81 ... ... : ... .. B ... ... ... : ... .. . ... : ... .. 6 ... : ... .. . ... ... : ... .. . ... ... : ... .. . ... ... : ... .. 8 ... ...
ROW B0 : B-4 00 A P80 ... ... : ... .. 8 ... ... ... : ... .. . ... : ... .. 3 ... : ... .. . ... ... : ... .. . ... ... : ... .. . ... ... : ... .. 5 ... ...
ROW B1 : A#4 00 A P7D ... ... : ... .. 0 ... ... ... : --- .. . ... : ... .. 1 ... : ... .. . ... ... : ... .. . ... ... : ... .. . ... ... : ... .. . ... ...
ROW B2 : A-4 00 A ... ... ... : E-3 00 5 P80 ... ... : ... .. . ... : ... .. . ... : ... .. . ... ... : ... .. . ... ... : ... .. . ... ... : ... .. . ... ...
ROW B3 : G#4 00 A P80 ... ... : ... .. 8 ... ... ... : ... .. . ... : ... .. 0 ... : ... .. . ... ... : ... .. . ... ... : ... .. . ... ... : ... .. . ... ...
ROW B4 : ... .. F ... ... ... : G#3 00 8 ... ... ... : D#6 00 . ... : 7-# 00 F ... : ... .. . ... ... : A#3 01 6 ... ... : F#3 01 6 ... ... : B-3 01 A ... ...
ROW B5 : ... .. E ... ... ... : ... .. B ... ... ... : F-5 00 . ... : ... .. C ... : ... .. . ... ... : ... .. . ... ... : ... .. . ... ... : ... .. 8 ... ...
ROW B6 : ... .. D ... ... ... : ... .. 8 ... ... ... : A#4 00 . ... : ... .. 6 ... : ... .. . ... ... : ... .. 5 ... ... : ... .. 5 ... ... : ... .. 5 ... ...
ROW B7 : ... .. A ... ... ... : ... .. 0 ... ... ... : A-4 00 . ... : ... .. 3 ... : ... .. . ... ... : ... .. 4 ... ... : ... .. 4 ... ... : ... .. . ... ...
ROW B8 : ... .. . ... ... ... : G#3 00 5 P80 ... ... : E-4 00 . ... : ... .. 2 ... : ... .. . ... ... : ... .. . ... ... : ... .. . ... ... : ... .. . ... ...
ROW B9 : ... .. . ... ... ... : ... .. 8 ... ... ... : ... .. . ... : ... .. 0 ... : ... .. . ... ... : ... .. . ... ... : ... .. . ... ... : ... .. . ... ...
ROW BA : ... .. . ... ... ... : B-2 00 8 ... ... ... : ... .. . ... : 1-# 00 8 ... : ... .. . ... ... : ... .. . ... ... : ... .. . ... ... : C#4 01 A ... ...
ROW BB : ... .. . ... ... ... : ... .. B ... ... ... : ... .. . ... : ... .. 6 ... : ... .. . ... ... : ... .. 3 ... ... : ... .. 3 ... ... : ... .. 8 ... ...
ROW BC : ... .. . ... ... ... : ... .. 8 ... ... ... : ... .. . ... : ... .. 3 ... : ... .. . ... ... : ... .. . ... ... : ... .. . ... ... : ... .. 5 ... ...
ROW BD : ... .. . ... ... ... : ... .. 0 ... ... ... : ... .. . ... : ... .. 1 ... : ... .. . ... ... : ... .. . ... ... : ... .. . ... ... : ... .. . ... ...
ROW BE : ... .. . ... ... ... : B-2 00 5 P80 ... ... : ... .. . ... : ... .. . ... : ... .. . ... ... : ... .. . ... ... : ... .. . ... ... : ... .. . ... ...
ROW BF : ... .. . ... ... ... : ... .. 8 ... ... ... : ... .. . ... : ... .. 0 ... : ... .. . ... ... : ... .. . ... ... : ... .. . ... ... : ... .. . ... ...
ROW C0 : C#5 00 F ... ... ... : E-3 00 8 ... ... ... : D#4 00 . ... : 7-# 00 F ... : ... .. . ... ... : ... .. . ... ... : ... .. . ... ... : A#3 01 A ... ...
ROW C1 : ... .. E ... ... ... : ... .. B ... ... ... : ... .. . ... : ... .. C ... : ... .. . ... ... : ... .. . ... ... : ... .. . ... ... : ... .. 8 ... ...
ROW C2 : ... .. D ... ... ... : ... .. 8 ... ... ... : ... .. . ... : ... .. 6 ... : ... .. . ... ... : ... .. . ... ... : ... .. . ... ... : ... .. 5 ... ...
ROW C3 : ... .. A ... ... ... : ... .. 0 ... ... ... : ... .. . ... : ... .. 3 ... : ... .. . ... ... : ... .. . ... ... : ... .. . ... ... : ... .. . ... ...
ROW C4 : D-5 00 A P7F ... ... : E-3 00 5 P80 ... ... : ... .. . ... : ... .. 2 ... : ... .. . ... ... : ... .. . ... ... : ... .. . ... ... : ... .. . ... ...
ROW C5 : D#5 00 A ... ... ... : ... .. 8 ... ... ... : ... .. . ... : ... .. 0 ... : ... .. . ... ... : ... .. . ... ... : ... .. . ... ... : ... .. . ... ...
ROW C6 : ... .. . P80 ... ... : G#3 00 8 ... ... ... : ... .. . ... : 1-# 00 8 ... : ... .. . ... ... : B-3 01 6 ... ... : G#3 01 6 ... ... : B-3 01 A ... ...
ROW C7 : ... .. . ... ... ... : ... .. B ... ... ... : ... .. . ... : ... .. 6 ... : ... .. . ... ... : ... .. . ... ... : ... .. . ... ... : ... .. 8 ... ...
ROW C8 : ... .. . ... ... ... : ... .. 8 ... ... ... : ... .. . ... : ... .. 3 ... : ... .. . ... ... : ... .. 5 ... ... : ... .. 5 ... ... : ... .. 5 ... ...
ROW C9 : ... .. . ... ... ... : ... .. 0 ... ... ... : ... .. . ... : ... .. 1 ... : ... .. . ... ... : ... .. 4 ... ... : ... .. 4 ... ... : ... .. . ... ...
ROW CA : ... .. . ... ... ... : G#3 00 5 P80 ... ... : ... .. . ... : ... .. . ... : ... .. . ... ... : ... .. . ... ... : ... .. . ... ... : ... .. . ... ...
ROW CB : ... .. . ... ... ... : ... .. 8 ... ... ... : --- .. . ... : ... .. 0 ... : ... .. . ... ... : ... .. . ... ... : ... .. . ... ... : ... .. . ... ...
ROW CC : G#4 00 F ... ... ... : E-3 00 8 ... ... ... : G#3 00 . ... : 7-# 00 F ... : ... .. . ... ... : ... .. . ... ... : ... .. . ... ... : G#3 01 A ... ...
ROW CD : ... .. E ... ... ... : ... .. B ... ... ... : ... .. . ... : ... .. C ... : ... .. . ... ... : ... .. 3 ... ... : ... .. 3 ... ... : ... .. 8 ... ...
ROW CE : ... .. D ... ... ... : ... .. 8 ... ... ... : ... .. . ... : ... .. 6 ... : ... .. . ... ... : ... .. . ... ... : ... .. . ... ... : ... .. 5 ... ...
ROW CF : ... .. A ... ... ... : ... .. 0 ... ... ... : ... .. . ... : ... .. 3 ... : ... .. . ... ... : ... .. . ... ... : ... .. . ... ... : ... .. . ... ...
ROW D0 : ... .. . ... ... ... : E-3 00 5 P80 ... ... : ... .. . ... : ... .. 2 ... : ... .. . ... ... : ... .. . ... ... : ... .. . ... ... : ... .. . ... ...
ROW D1 : ... .. . ... ... ... : ... .. 8 ... ... ... : ... .. . ... : ... .. 0 ... : ... .. . ... ... : ... .. . ... ... : ... .. . ... ... : ... .. . ... ...
ROW D2 : ... .. . ... ... ... : G#3 00 8 ... ... ... : ... .. . ... : 1-# 00 8 ... : ... .. . ... ... : ... .. . ... ... : ... .. . ... ... : A#3 01 A ... ...
ROW D3 : ... .. . ... ... ... : ... .. B ... ... ... : ... .. . ... : ... .. 6 ... : ... .. . ... ... : ... .. . ... ... : ... .. . ... ... : ... .. 8 ... ...
ROW D4 : ... .. . ... ... ... : ... .. 8 ... ... ... : ... .. . ... : ... .. 3 ... : ... .. . ... ... : ... .. . ... ... : ... .. . ... ... : ... .. 5 ... ...
ROW D5 : ... .. . ... ... ... : ... .. 0 ... ... ... : ... .. . ... : ... .. 1 ... : ... .. . ... ... : ... .. . ... ... : ... .. . ... ... : ... .. . ... ...
ROW D6 : ... .. . ... ... ... : G#3 00 5 P80 ... ... : ... .. . ... : ... .. . ... : ... .. . ... ... : ... .. . ... ... : ... .. . ... ... : ... .. . ... ...
ROW D7 : ... .. . ... ... ... : ... .. 8 ... ... ... : --- .. . ... : ... .. 0 ... : ... .. . ... ... : ... .. . ... ... : ... .. . ... ... : ... .. . ... ...
ROW D8 : B-4 00 F ... ... ... : C#4 00 8 ... ... ... : C-4 00 . ... : ... .. F ... : ... .. . ... ... : G#3 01 6 ... ... : E-3 01 6 ... ... : F#3 01 A ... ...
ROW D9 : ... .. E ... ... ... : ... .. B ... ... ... : D-3 00 . ... : ... .. C ... : ... .. . ... ... : ... .. . ... ... : ... .. . ... ... : ... .. 8 ... ...
ROW DA : ... .. D ... ... ... : ... .. 8 ... ... ... : G-2 00 . ... : ... .. 6 ... : ... .. . ... ... : ... .. 5 ... ... : ... .. 5 ... ... : ... .. 5 ... ...
ROW DB : ... .. A ... ... ... : ... .. 0 ... ... ... : F#2 00 . ... : ... .. 3 ... : ... .. . ... ... : ... .. 4 ... ... : ... .. 4 ... ... : ... .. . ... ...
ROW DC : C-5 00 A P7F ... ... : C#4 00 5 P80 ... ... : C#2 00 . ... : ... .. 2 ... : ... .. . ... ... : ... .. . ... ... : ... .. . ... ... : ... .. . ... ...
ROW DD : C#5 00 A P7E ... ... : ... .. 8 ... ... ... : ... .. . ... : ... .. 0 ... : ... .. . ... ... : ... .. . ... ... : ... .. . ... ... : ... .. . ... ...
ROW DE : ... .. . P80 ... ... : E-3 00 8 ... ... ... : ... .. . ... : C-# 00 8 ... : ... .. . ... ... : ... .. . ... ... : ... .. . ... ... : G#3 01 A ... ...
ROW DF : ... .. . ... ... ... : ... .. B ... ... ... : ... .. . ... : ... .. 6 ... : ... .. . ... ... : ... .. 3 ... ... : ... .. 3 ... ... : ... .. 8 ... ...
ROW E0 : ... .. . ... ... ... : ... .. 8 ... ... ... : ... .. . ... : ... .. 3 ... : ... .. . ... ... : ... .. . ... ... : ... .. . ... ... : ... .. 5 ... ...
ROW E1 : ... .. . ... ... ... : ... .. 0 ... ... ... : ... .. . ... : ... .. 1 ... : ... .. . ... ... : ... .. . ... ... : ... .. . ... ... : ... .. . ... ...
ROW E2 : ... .. . ... ... ... : E-3 00 5 P80 ... ... : ... .. . ... : ... .. . ... : ... .. . ... ... : ... .. . ... ... : ... .. . ... ... : ... .. . ... ...
ROW E3 : ... .. . ... ... ... : ... .. 8 ... ... ... : ... .. . ... : ... .. 0 ... : ... .. . ... ... : ... .. . ... ... : ... .. . ... ... : ... .. . ... ...
ROW E4 : ... .. . ... ... ... : G#3 00 8 ... ... ... : D-2 00 . P73 : ... .. 8 ... : ... .. . ... ... : ... .. . ... ... : ... .. . ... ... : E-3 01 A ... ...
ROW E5 : ... .. . ... ... ... : ... .. B ... ... ... : ... .. . P93 : ... .. 6 ... : ... .. . ... ... : ... .. . ... ... : ... .. . ... ... : ... .. 8 ... ...
ROW E6 : ... .. . ... ... ... : ... .. 8 ... ... ... : D#2 00 . P88 : ... .. 3 ... : ... .. . ... ... : ... .. . ... ... : ... .. . ... ... : ... .. 5 ... ...
ROW E7 : ... .. . ... ... ... : ... .. 0 ... ... ... : E-2 00 . P80 : ... .. 1 ... : ... .. . ... ... : ... .. . ... ... : ... .. . ... ... : ... .. . ... ...
ROW E8 : ... .. . ... ... ... : G#3 00 5 P80 ... ... : F-2 00 . P7A : ... .. . ... : ... .. . ... ... : ... .. . ... ... : ... .. . ... ... : ... .. . ... ...
ROW E9 : ... .. . ... ... ... : ... .. 8 ... ... ... : F#2 00 . P76 : ... .. 0 ... : ... .. . ... ... : ... .. . ... ... : ... .. . ... ... : ... .. . ... ...
ROW EA : G#4 00 F ... ... ... : C#4 00 8 ... ... ... : C-5 00 . P80 : 1-# 00 F ... : ... .. . ... ... : B-2 01 6 ... ... : G#2 01 6 ... ... : F#3 01 A ... ...
ROW EB : ... .. E ... ... ... : ... .. B ... ... ... : D-4 00 . ... : ... .. C ... : ... .. . ... ... : ... .. . ... ... : ... .. . ... ... : ... .. 8 ... ...
ROW EC : ... .. D ... ... ... : ... .. 8 ... ... ... : G-3 00 . ... : ... .. 6 ... : ... .. . ... ... : ... .. 5 ... ... : ... .. 5 ... ... : ... .. 5 ... ...
ROW ED : ... .. A ... ... ... : ... .. 0 ... ... ... : F#3 00 . ... : ... .. 3 ... : ... .. . ... ... : ... .. 4 ... ... : ... .. 4 ... ... : ... .. . ... ...
ROW EE : ... .. . ... ... ... : C#4 00 5 P80 ... ... : C#3 00 . ... : ... .. 2 ... : ... .. . ... ... : ... .. . ... ... : ... .. . ... ... : ... .. . ... ...
ROW EF : ... .. . ... ... ... : ... .. 8 ... ... ... : --- .. . ... : ... .. 0 ... : ... .. . ... ... : ... .. . ... ... : ... .. . ... ... : ... .. . ... ...
ROW F0 : ... .. . P84 ... ... : G#3 00 8 ... ... ... : D#3 00 . ... : C-# 00 8 ... : ... .. . ... ... : ... .. . ... ... : ... .. . ... ... : D#3 01 A ... ...
ROW F1 : A-4 00 A P7E ... ... : ... .. B ... ... ... : ... .. . ... : ... .. 6 ... : ... .. . ... ... : ... .. 3 ... ... : ... .. 3 ... ... : ... .. 8 ... ...
ROW F2 : ... .. . P7D ... ... : ... .. 8 ... ... ... : ... .. . ... : ... .. 3 ... : ... .. . ... ... : ... .. . ... ... : ... .. . ... ... : ... .. 5 ... ...
ROW F3 : G#4 00 A P82 ... ... : ... .. 0 ... ... ... : ... .. . ... : ... .. 1 ... : ... .. . ... ... : ... .. . ... ... : ... .. . ... ... : ... .. . ... ...
ROW F4 : ... .. . P7E ... ... : G#3 00 5 P80 ... ... : ... .. . ... : ... .. . ... : ... .. . ... ... : ... .. . ... ... : ... .. . ... ... : ... .. . ... ...
ROW F5 : G-4 00 A P83 ... ... : ... .. 8 ... ... ... : --- .. . ... : ... .. 0 ... : ... .. . ... ... : ... .. . ... ... : ... .. . ... ... : ... .. . ... ...
ROW F6 : ... .. . P82 ... ... : E-3 00 8 ... ... ... : E-3 00 . ... : ... .. 8 ... : ... .. . ... ... : ... .. . ... ... : ... .. . ... ... : E-3 01 A ... ...
ROW F7 : ... .. . P84 ... ... : ... .. B ... ... ... : ... .. . ... : ... .. 6 ... : ... .. . ... ... : ... .. . ... ... : ... .. . ... ... : ... .. 8 ... ...
ROW F8 : G#4 00 A P80 ... ... : ... .. 8 ... ... ... : ... .. . ... : ... .. 3 ... : ... .. . ... ... : ... .. . ... ... : ... .. . ... ... : ... .. 5 ... ...
ROW F9 : ... .. . P83 ... ... : ... .. 0 ... ... ... : ... .. . ... : ... .. 1 ... : ... .. . ... ... : ... .. . ... ... : ... .. . ... ... : ... .. . ... ...
ROW FA : A-4 00 A P7E ... ... : E-3 00 5 P80 ... ... : ... .. . ... : ... .. . ... : ... .. . ... ... : ... .. . ... ... : ... .. . ... ... : ... .. . ... ...
ROW FB : ... .. . ... ... ... : ... .. 8 ... ... ... : --- .. . ... : ... .. 0 ... : ... .. . ... ... : ... .. . ... ... : ... .. . ... ... : ... .. . ... ...
ROW FC : G#3 00 F P80 ... ... : G#3 00 8 ... ... ... : E-3 00 . ... : 7-# 00 F ... : ... .. . ... ... : A#2 01 6 ... ... : B-2 01 6 ... ... : C#3 01 A ... ...
ROW FD : ... .. E ... ... ... : ... .. B ... ... ... : ... .. . ... : ... .. C ... : ... .. . ... ... : ... .. . ... ... : ... .. . ... ... : ... .. 8 ... ...
ROW FE : ... .. D ... ... ... : ... .. 8 ... ... ... : ... .. . ... : ... .. 6 ... : ... .. . ... ... : ... .. 5 ... ... : ... .. 5 ... ... : ... .. 5 ... ...
ROW FF : ... .. A ... ... ... : ... .. 0 ... ... ... : ... .. . ... : ... .. 3 ... : ... .. . ... ... : ... .. 4 ... ... : ... .. 4 ... ... : ... .. . ... ...

PATTERN 13
ROW 00 : ... .. . ... ... ... : G#3 00 5 P80 ... ... : ... .. . ... : ... .. 2 ... : ... .. . ... ... : ... .. . ... ... : ... .. . ... ... : ... .. . ... ...
ROW 01 : ... .. . ... ... ... : ... .. 8 ... ... ... : --- .. . ... : ... .. 0 ... : ... .. . ... ... : ... .. . ... ... : ... .. . ... ... : ... .. . ... ...
ROW 02 : ... .. . ... ... ... : G#2 00 8 ... ... ... : D#3 00 . ... : ... .. 8 ... : ... .. . ... ... : ... .. . ... ... : ... .. . ... ... : D#3 01 A ... ...
ROW 03 : ... .. . ... ... ... : ... .. B ... ... ... : ... .. . ... : ... .. 6 ... : ... .. . ... ... : ... .. 3 ... ... : ... .. 3 ... ... : ... .. 8 ... ...
ROW 04 : ... .. . ... ... ... : ... .. 8 ... ... ... : ... .. . ... : ... .. 3 ... : ... .. . ... ... : ... .. . ... ... : ... .. . ... ... : ... .. 5 ... ...
ROW 05 : ... .. . ... ... ... : ... .. 0 ... ... ... : ... .. . ... : ... .. 1 ... : ... .. . ... ... : ... .. . ... ... : ... .. . ... ... : ... .. . ... ...
ROW 06 : ... .. . ... ... ... : G#2 00 5 P80 ... ... : ... .. . ... : ... .. . ... : ... .. . ... ... : ... .. . ... ... : ... .. . ... ... : ... .. . ... ...
ROW 07 : ... .. . ... ... ... : ... .. 8 ... ... ... : --- .. . ... : ... .. 0 ... : ... .. . ... ... : ... .. . ... ... : ... .. . ... ... : ... .. . ... ...
ROW 08 : ... .. 5 ... ... ... : C#3 00 8 ... ... ... : C#3 00 . ... : 4-# 00 F ... : ... .. . ... ... : ... .. . ... ... : ... .. . ... ... : B-2 01 A ... ...
ROW 09 : ... .. . ... ... ... : ... .. B ... ... ... : ... .. . ... : ... .. C ... : ... .. . ... ... : ... .. . ... ... : ... .. . ... ... : ... .. 8 ... ...
ROW 0A : ... .. . ... ... ... : ... .. 8 ... ... ... : ... .. . ... : ... .. 6 ... : ... .. . ... ... : ... .. . ... ... : ... .. . ... ... : ... .. 5 ... ...
ROW 0B : ... .. . ... ... ... : ... .. 0 ... ... ... : ... .. . ... : ... .. 3 ... : ... .. . ... ... : ... .. . ... ... : ... .. . ... ... : ... .. . ... ...
ROW 0C : ... .. . ... ... ... : C#3 00 5 P80 ... ... : ... .. . ... : ... .. 2 ... : ... .. . ... ... : ... .. . ... ... : ... .. . ... ... : ... .. . ... ...
ROW 0D : ... .. . ... ... ... : ... .. 8 ... ... ... : --- .. . ... : ... .. 0 ... : ... .. . ... ... : ... .. . ... ... : ... .. . ... ... : ... .. . ... ...
ROW 0E : C#4 00 F ... ... ... : E-3 00 8 ... ... ... : G#3 00 . ... : 9-# 00 8 ... : ... .. . ... ... : B-2 01 6 ... ... : E-3 01 6 ... ... : C#3 01 A ... ...
ROW 0F : ... .. E ... ... ... : ... .. B ... ... ... : ... .. . ... : ... .. 6 ... : ... .. . ... ... : ... .. . ... ... : ... .. . ... ... : ... .. 8 ... ...
ROW 10 : ... .. D ... ... ... : ... .. 8 ... ... ... : ... .. . ... : ... .. 3 ... : ... .. . ... ... : ... .. 5 ... ... : ... .. 5 ... ... : ... .. 5 ... ...
ROW 11 : ... .. A ... ... ... : ... .. 0 ... ... ... : ... .. . ... : ... .. 1 ... : ... .. . ... ... : ... .. 4 ... ... : ... .. 4 ... ... : ... .. . ... ...
ROW 12 : ... .. . ... ... ... : E-3 00 5 P80 ... ... : ... .. . ... : ... .. . ... : ... .. . ... ... : ... .. . ... ... : ... .. . ... ... : ... .. . ... ...
ROW 13 : ... .. . ... ... ... : ... .. 8 ... ... ... : --- .. . ... : ... .. 0 ... : ... .. . ... ... : ... .. . ... ... : ... .. . ... ... : ... .. . ... ...
ROW 14 : ... .. . ... ... ... : C#3 00 8 ... ... ... : E-3 00 . ... : 7-# 00 F ... : ... .. . ... ... : ... .. . ... ... : ... .. . ... ... : A#2 01 A ... ...
ROW 15 : ... .. . ... ... ... : ... .. B ... ... ... : ... .. . ... : ... .. C ... : ... .. . ... ... : ... .. 3 ... ... : ... .. 3 ... ... : ... .. 8 ... ...
ROW 16 : ... .. . ... ... ... : ... .. 8 ... ... ... : ... .. . ... : ... .. 6 ... : ... .. . ... ... : ... .. . ... ... : ... .. . ... ... : ... .. 5 ... ...
ROW 17 : ... .. . ... ... ... : ... .. 0 ... ... ... : ... .. . ... : ... .. 3 ... : ... .. . ... ... : ... .. . ... ... : ... .. . ... ... : ... .. . ... ...
ROW 18 : ... .. . ... ... ... : C#3 00 5 P80 ... ... : ... .. . ... : ... .. 2 ... : ... .. . ... ... : ... .. . ... ... : ... .. . ... ... : ... .. . ... ...
ROW 19 : ... .. . ... ... ... : ... .. 8 ... ... ... : --- .. . ... : ... .. 0 ... : ... .. . ... ... : ... .. . ... ... : ... .. . ... ... : ... .. . ... ...
ROW 1A : ... .. 1 ... ... ... : G#2 00 8 ... ... ... : C#3 00 . ... : 5-# 00 8 ... : ... .. . ... ... : ... .. . ... ... : ... .. . ... ... : B-2 01 A ... ...
ROW 1B : ... .. . ... ... ... : ... .. B ... ... ... : ... .. . ... : ... .. 6 ... : ... .. . ... ... : ... .. . ... ... : ... .. . ... ... : ... .. 8 ... ...
ROW 1C : ... .. . ... ... ... : ... .. 8 ... ... ... : ... .. . ... : ... .. 3 ... : ... .. . ... ... : ... .. . ... ... : ... .. . ... ... : ... .. 5 ... ...
ROW 1D : ... .. . ... ... ... : ... .. 0 ... ... ... : ... .. . ... : ... .. 1 ... : ... .. . ... ... : ... .. . ... ... : ... .. . ... ... : ... .. . ... ...
ROW 1E : ... .. . ... ... ... : G#2 00 5 P80 ... ... : ... .. . ... : ... .. . ... : ... .. . ... ... : ... .. . ... ... : ... .. . ... ... : ... .. . ... ...
ROW 1F : ... .. . ... ... ... : ... .. 8 ... ... ... : --- .. . ... : ... .. 0 ... : ... .. . ... ... : ... .. . ... ... : ... .. . ... ... : ... .. . ... ...
ROW 20 : ... .. F ... ... ... : A#2 00 F ... ... ... : F-4 00 . ... : 1-# 00 F ... : ... .. . ... ... : F#2 01 A ... ... : D#2 01 A ... ... : C#3 01 F ... ...
ROW 21 : ... .. E ... ... ... : ... .. E ... ... ... : G-3 00 . ... : ... .. C ... : ... .. . ... ... : ... .. 9 ... ... : ... .. 9 ... ... : ... .. D ... ...
ROW 22 : ... .. D ... ... ... : ... .. D ... ... ... : C-3 00 . ... : ... .. 6 ... : ... .. . ... ... : ... .. 8 ... ... : ... .. 8 ... ... : ... .. 8 ... ...
ROW 23 : ... .. A ... ... ... : ... .. A ... ... ... : B-2 00 . ... : ... .. 3 ... : ... .. . ... ... : ... .. 7 ... ... : ... .. 7 ... ... : ... .. . ... ...
ROW 24 : ... .. . ... ... ... : ... .. . ... ... ... : F#2 00 . ... : ... .. 2 ... : ... .. . ... ... : ... .. . ... ... : ... .. . ... ... : ... .. . ... ...
ROW 25 : ... .. . ... ... ... : ... .. . ... ... ... : ... .. . ... : ... .. 0 ... : ... .. . ... ... : ... .. 6 ... ... : ... .. 6 ... ... : ... .. . ... ...
ROW 26 : ... .. . ... ... ... : ... .. . ... ... ... : ... .. . ... : C-# 00 8 ... : ... .. . ... ... : ... .. 5 ... ... : ... .. 5 ... ... : ... .. . ... ...
ROW 27 : ... .. 2 ... ... ... : ... .. 2 ... ... ... : ... .. . ... : ... .. 6 ... : ... .. . ... ... : ... .. . ... ... : ... .. . ... ... : ... .. 4 ... ...
ROW 28 : ... .. . ... ... ... : ... .. . ... ... ... : ... .. . ... : ... .. 3 ... : ... .. . ... ... : ... .. 3 ... ... : ... .. 3 ... ... : ... .. . ... ...
ROW 29 : ... .. . ... ... ... : ... .. . ... ... ... : F-2 00 . P84 : ... .. 1 ... : ... .. . ... ... : ... .. . ... ... : ... .. . ... ... : ... .. 1 ... ...
ROW 2A : ... .. 1 ... ... ... : ... .. 1 ... ... ... : E-2 00 . P8A : ... .. . ... : ... .. . ... ... : ... .. . ... ... : ... .. . ... ... : ... .. . ... ...
ROW 2B : ... .. . ... ... ... : ... .. . ... ... ... : D#2 00 . P92 : ... .. 0 ... : ... .. . ... ... : ... .. . ... ... : ... .. . ... ... : ... .. . ... ...
ROW 2C : D#4 00 F ... ... ... : B-2 00 F ... ... ... : G-4 00 . P80 : ... .. 8 ... : ... .. . ... ... : G#2 01 A ... ... : ... .. A ... ... : D#3 01 F ... ...
ROW 2D : ... .. E ... ... ... : ... .. E ... ... ... : A-3 00 . ... : ... .. 6 ... : ... .. . ... ... : ... .. 9 ... ... : ... .. 9 ... ... : ... .. D ... ...
ROW 2E : ... .. D ... ... ... : ... .. D ... ... ... : D-3 00 . ... : ... .. 3 ... : ... .. . ... ... : ... .. 8 ... ... : ... .. 8 ... ... : ... .. 8 ... ...
ROW 2F : ... .. A ... ... ... : ... .. A ... ... ... : C#3 00 . ... : ... .. 1 ... : ... .. . ... ... : ... .. 7 ... ... : ... .. 7 ... ... : ... .. . ... ...
ROW 30 : ... .. . ... ... ... : ... .. . ... ... ... : G#2 00 . ... : ... .. . ... : ... .. . ... ... : ... .. . ... ... : ... .. . ... ... : ... .. . ... ...
ROW 31 : ... .. . ... ... ... : ... .. . ... ... ... : ... .. . ... : ... .. 0 ... : ... .. . ... ... : ... .. 6 ... ... : ... .. 6 ... ... : ... .. . ... ...
ROW 32 : ... .. . ... ... ... : ... .. . ... ... ... : ... .. . ... : ... .. . ... : ... .. . ... ... : ... .. . ... ... : ... .. . ... ... : ... .. . ... ...
ROW 33 : ... .. . ... ... ... : ... .. . ... ... ... : ... .. . ... : ... .. . ... : ... .. . ... ... : ... .. 5 ... ... : ... .. 5 ... ... : ... .. . ... ...
ROW 34 : ... .. . ... ... ... : ... .. . ... ... ... : ... .. . ... : ... .. . ... : ... .. . ... ... : ... .. . ... ... : ... .. . ... ... : ... .. . ... ...
ROW 35 : ... .. . ... ... ... : ... .. . ... ... ... : ... .. . ... : ... .. . ... : ... .. . ... ... : ... .. . ... ... : ... .. . ... ... : ... .. . ... ...
ROW 36 : ... .. . ... ... ... : ... .. . ... ... ... : ... .. . ... : ... .. . ... : ... .. . ... ... : ... .. . ... ... : ... .. . ... ... : ... .. . ... ...
ROW 37 : ... .. . ... ... ... : ... .. . ... ... ... : ... .. . ... : ... .. . ... : ... .. . ... ... : ... .. . ... ... : ... .. . ... ... : ... .. . ... ...
ROW 38 : E-4 00 A ... ... ... : ... .. . P8A ... ... : ... .. . ... : ... .. 8 ... : ... .. . ... ... : ... .. . ... ... : ... .. . ... ... : ... .. . ... ...
ROW 39 : F-4 00 A P7C ... ... : C-3 00 A P77 ... ... : ... .. . ... : ... .. 6 ... : ... .. . ... ... : ... .. . ... ... : ... .. . ... ... : ... .. . ... ...
ROW 3A : E-4 00 A P84 ... ... : ... .. . P75 ... ... : ... .. . ... : ... .. 3 ... : ... .. . ... ... : ... .. . ... ... : ... .. . ... ... : ... .. . ... ...
ROW 3B : D#4 00 A ... ... ... : B-2 00 A P84 ... ... : A-2 00 . P71 : ... .. 1 ... : ... .. . ... ... : ... .. . ... ... : ... .. . ... ... : ... .. . ... ...
ROW 3C : ... .. . P7C ... ... : ... .. . P7C ... ... : ... .. . P81 : ... .. . ... : ... .. . ... ... : ... .. . ... ... : ... .. . ... ... : ... .. . ... ...
ROW 3D : D-4 00 A ... ... ... : A#2 00 A P8D ... ... : A#2 00 . P75 : ... .. 0 ... : ... .. . ... ... : ... .. . ... ... : ... .. . ... ... : ... .. . ... ...
ROW 3E : C#4 00 A P86 ... ... : ... .. . P8B ... ... : ... .. . P85 : ... .. 8 ... : ... .. . ... ... : ... .. . ... ... : ... .. . ... ... : ... .. . ... ...
ROW 3F : D-4 00 2 P80 ... ... : B-2 00 2 P76 ... ... : B-2 00 . P7A : ... .. 6 ... : ... .. . ... ... : ... .. . ... ... : ... .. . ... ... : ... .. 4 ... ...
ROW 40 : D#4 00 2 ... ... ... : ... .. . P80 ... ... : ... .. . P8A : ... .. 3 ... : ... .. . ... ... : ... .. 3 ... ... : ... .. 3 ... ... : ... .. . ... ...
ROW 41 : E-4 00 2 P7F ... ... : ... .. . P89 ... ... : C-3 00 . P81 : ... .. 1 ... : ... .. . ... ... : ... .. . ... ... : ... .. . ... ... : ... .. 1 ... ...
ROW 42 : F-4 00 1 P7C ... ... : C-3 00 1 P77 ... ... : C#3 00 . P79 : ... .. . ... : ... .. . ... ... : ... .. . ... ... : ... .. . ... ... : ... .. . ... ...
ROW 43 : E-4 00 1 P84 ... ... : ... .. . P75 ... ... : ... .. . P89 : ... .. 0 ... : ... .. . ... ... : ... .. . ... ... : ... .. . ... ... : ... .. . ... ...
ROW 44 : G#1 00 F P80 ... ... : D#2 00 B P80 ... ... : G-5 00 . P80 : 8-# 00 D ... : ... .. . ... ... : ... .. . ... ... : ... .. . ... ... : ... .. . ... ...
ROW 45 : ... .. E ... ... ... : ... .. F ... ... ... : A-4 00 . ... : ... .. . ... : ... .. . ... ... : ... .. . ... ... : ... .. . ... ... : ... .. . ... ...
ROW 46 : ... .. D ... ... ... : ... .. B ... ... ... : D-4 00 . ... : ... .. . ... : ... .. . ... ... : ... .. . ... ... : ... .. . ... ... : ... .. . ... ...
ROW 47 : ... .. A ... ... ... : ... .. 0 ... ... ... : C#4 00 . ... : B-# 00 D ... : ... .. . ... ... : ... .. . ... ... : ... .. . ... ... : ... .. . ... ...
ROW 48 : ... .. . ... ... ... : D#2 00 8 P80 ... ... : G#3 00 . ... : ... .. . ... : ... .. . ... ... : ... .. . ... ... : ... .. . ... ... : ... .. 0 ... ...
ROW 49 : ... .. . ... ... ... : ... .. C ... ... ... : --- .. . ... : ... .. . ... : ... .. . ... ... : ... .. . ... ... : ... .. . ... ... : ... .. . ... ...
ROW 4A : F#1 00 F ... ... ... : C#2 00 B ... ... ... : F#3 00 . ... : ... .. . ... : ... .. . ... ... : ... .. . ... ... : ... .. . ... ... : ... .. . ... ...
ROW 4B : ... .. E ... ... ... : ... .. F ... ... ... : ... .. . ... : ... .. . ... : ... .. . ... ... : ... .. . ... ... : ... .. . ... ... : ... .. . ... ...
ROW 4C : ... .. D ... ... ... : ... .. B ... ... ... : ... .. . ... : ... .. . ... : ... .. . ... ... : ... .. . ... ... : ... .. . ... ... : ... .. . ... ...
ROW 4D : ... .. A ... ... ... : ... .. 0 ... ... ... : ... .. . ... : ... .. A ... : ... .. . ... ... : ... .. 1 ... ... : ... .. 1 ... ... : ... .. . ... ...
ROW 4E : ... .. 2 ... ... ... : C#2 00 8 P80 ... ... : ... .. . ... : ... .. . ... : ... .. . ... ... : ... .. . ... ... : ... .. . ... ... : ... .. . ... ...
ROW 4F : ... .. . ... ... ... : ... .. C ... ... ... : --- .. . ... : ... .. . ... : ... .. . ... ... : ... .. . ... ... : ... .. . ... ... : ... .. . ... ...
ROW 50 : G#1 00 F ... ... ... : D#2 00 B ... ... ... : G#3 00 . ... : ... .. 9 ... : ... .. . ... ... : ... .. . ... ... : ... .. . ... ... : ... .. . ... ...
ROW 51 : ... .. E ... ... ... : ... .. F ... ... ... : ... .. . ... : ... .. . ... : ... .. . ... ... : ... .. . ... ... : ... .. . ... ... : ... .. . ... ...
ROW 52 : ... .. D ... ... ... : ... .. B ... ... ... : ... .. . ... : ... .. . ... : ... .. . ... ... : ... .. . ... ... : ... .. . ... ... : ... .. . ... ...
ROW 53 : ... .. A ... ... ... : ... .. 0 ... ... ... : ... .. . ... : ... .. 8 ... : ... .. . ... ... : ... .. . ... ... : ... .. . ... ... : ... .. . ... ...
ROW 54 : ... .. 2 ... ... ... : D#2 00 8 P80 ... ... : ... .. . ... : ... .. . ... : ... .. . ... ... : ... .. . ... ... : ... .. . ... ... : ... .. . ... ...
ROW 55 : ... .. . ... ... ... : ... .. C ... ... ... : --- .. . ... : ... .. . ... : ... .. . ... ... : ... .. . ... ... : ... .. . ... ... : ... .. . ... ...
ROW 56 : G#2 00 F ... ... ... : D#3 00 B ... ... ... : G#4 00 . ... : ... .. 7 ... : ... .. . ... ... : ... .. . ... ... : ... .. . ... ... : ... .. . ... ...
ROW 57 : ... .. E ... ... ... : ... .. F ... ... ... : ... .. . ... : ... .. . ... : ... .. . ... ... : ... .. . ... ... : ... .. . ... ... : ... .. . ... ...
ROW 58 : ... .. D ... ... ... : ... .. B ... ... ... : ... .. . ... : ... .. . ... : ... .. . ... ... : ... .. . ... ... : ... .. . ... ... : ... .. . ... ...
ROW 59 : ... .. A ... ... ... : ... .. 0 ... ... ... : ... .. . ... : ... .. 6 ... : ... .. . ... ... : ... .. . ... ... : ... .. . ... ... : ... .. . ... ...
ROW 5A : ... .. . ... ... ... : D#3 00 8 P80 ... ... : ... .. . ... : ... .. . ... : ... .. . ... ... : ... .. . ... ... : ... .. . ... ... : ... .. . ... ...
ROW 5B : ... .. . ... ... ... : ... .. C ... ... ... : --- .. . ... : ... .. . ... : ... .. . ... ... : --- .. . ... ... : --- .. . P7B ... : ... .. . ... ...
ROW 5C : G#1 00 F ... ... ... : D#2 00 B ... ... ... : G#3 00 . ... : ... .. 5 ... : ... .. . ... ... : ... .. . ... ... : ... .. . ... ... : ... .. . ... ...
ROW 5D : ... .. E ... ... ... : ... .. F ... ... ... : ... .. . ... : ... .. . ... : ... .. . ... ... : ... .. . ... ... : ... .. . ... ... : ... .. . ... ...
ROW 5E : ... .. D ... ... ... : ... .. B ... ... ... : ... .. . ... : ... .. . ... : ... .. . ... ... : ... .. . ... ... : ... .. . ... ... : ... .. . ... ...
ROW 5F : ... .. A ... ... ... : ... .. 0 ... ... ... : ... .. . ... : ... .. 4 ... : ... .. . ... ... : ... .. . ... ... : ... .. . ... ... : ... .. . ... ...
ROW 60 : ... .. 2 ... ... ... : D#2 00 8 P80 ... ... : ... .. . ... : ... .. . ... : ... .. . ... ... : ... .. . ... ... : ... .. . ... ... : ... .. . ... ...
ROW 61 : ... .. . ... ... ... : ... .. C ... ... ... : --- .. . ... : ... .. . ... : ... .. . ... ... : ... .. . ... ... : ... .. . ... ... : ... .. . ... ...
ROW 62 : ... .. F ... ... ... : G#2 00 B ... ... ... : G#2 00 . ... : ... .. 3 ... : ... .. . ... ... : ... .. . ... ... : ... .. . ... ... : ... .. . ... ...
ROW 63 : ... .. E ... ... ... : ... .. F ... ... ... : ... .. . ... : ... .. . ... : ... .. . ... ... : ... .. . ... ... : ... .. . ... ... : ... .. . ... ...
ROW 64 : ... .. D ... ... ... : ... .. B ... ... ... : ... .. . ... : ... .. . ... : ... .. . ... ... : ... .. . ... ... : ... .. . ... ... : ... .. . ... ...
ROW 65 : ... .. A ... ... ... : ... .. 0 ... ... ... : ... .. . ... : ... .. 2 ... : ... .. . ... ... : ... .. . ... ... : ... .. . ... ... : ... .. . ... ...
ROW 66 : ... .. 2 ... ... ... : G#2 00 8 P80 ... ... : ... .. . ... : ... .. . ... : ... .. . ... ... : ... .. . ... ... : ... .. . ... ... : ... .. . ... ...
ROW 67 : ... .. . ... ... ... : ... .. C ... ... ... : --- .. . ... : ... .. . ... : ... .. . ... ... : ... .. . ... ... : ... .. . ... ... : ... .. . ... ...
ROW 68 : C#4 00 F ... ... ... : A#3 00 F ... ... ... : F-4 00 . ... : 1-# 00 F ... : ... .. . ... ... : A#3 01 A ... ... : F-3 01 A P80 ... : F-2 01 F ... ...
ROW 69 : ... .. E ... ... ... : ... .. E ... ... ... : G-3 00 . ... : ... .. C ... : ... .. . ... ... : ... .. 9 ... ... : ... .. 9 ... ... : ... .. D ... ...
ROW 6A : ... .. D ... ... ... : ... .. D ... ... ... : C-3 00 . ... : ... .. 6 ... : ... .. . ... ... : ... .. 8 ... ... : ... .. 8 ... ... : ... .. 8 ... ...
ROW 6B : ... .. A ... ... ... : ... .. A ... ... ... : B-2 00 . ... : ... .. 3 ... : ... .. . ... ... : ... .. 7 ... ... : ... .. 7 ... ... : ... .. . ... ...
ROW 6C : ... .. . ... ... ... : ... .. . ... ... ... : F#2 00 . ... : ... .. 2 ... : ... .. . ... ... : ... .. . ... ... : ... .. . ... ... : ... .. . ... ...
ROW 6D : ... .. . ... ... ... : ... .. . ... ... ... : ... .. . ... : ... .. 0 ... : ... .. . ... ... : ... .. 6 ... ... : ... .. 6 ... ... : ... .. . ... ...
ROW 6E : ... .. . ... ... ... : ... .. . ... ... ... : ... .. . ... : C-# 00 8 ... : ... .. . ... ... : ... .. 5 ... ... : ... .. 5 ... ... : ... .. . ... ...
ROW 6F : ... .. . ... ... ... : ... .. 2 ... ... ... : ... .. . ... : ... .. 6 ... : ... .. . ... ... : ... .. . ... ... : ... .. . ... ... : ... .. 4 ... ...
ROW 70 : ... .. . ... ... ... : ... .. . ... ... ... : ... .. . ... : ... .. 3 ... : ... .. . ... ... : ... .. 3 ... ... : ... .. 3 ... ... : ... .. . ... ...
ROW 71 : ... .. . ... ... ... : ... .. . ... ... ... : --- .. . ... : ... .. 1 ... : ... .. . ... ... : ... .. . ... ... : ... .. . ... ... : ... .. 1 ... ...
ROW 72 : ... .. 2 ... ... ... : ... .. 1 ... ... ... : ... .. . ... : ... .. . ... : ... .. . ... ... : ... .. . ... ... : ... .. . ... ... : ... .. . ... ...
ROW 73 : ... .. . ... ... ... : ... .. . ... ... ... : ... .. . ... : ... .. 0 ... : ... .. . ... ... : ... .. . ... ... : ... .. . ... ... : ... .. . ... ...
ROW 74 : D#4 00 F ... ... ... : B-3 00 F ... ... ... : G-4 00 . ... : ... .. 8 ... : ... .. . ... ... : B-3 01 A ... ... : F#3 01 A ... ... : F#2 01 F ... ...
ROW 75 : ... .. E ... ... ... : ... .. E ... ... ... : A-3 00 . ... : ... .. 6 ... : ... .. . ... ... : ... .. 9 ... ... : ... .. 9 ... ... : ... .. D ... ...
ROW 76 : ... .. D ... ... ... : ... .. D ... ... ... : D-3 00 . ... : ... .. 3 ... : ... .. . ... ... : ... .. 8 ... ... : ... .. 8 ... ... : ... .. 8 ... ...
ROW 77 : ... .. A ... ... ... : ... .. A ... ... ... : C#3 00 . ... : ... .. 1 ... : ... .. . ... ... : ... .. 7 ... ... : ... .. 7 ... ... : ... .. . ... ...
ROW 78 : ... .. . ... ... ... : ... .. . ... ... ... : G#2 00 . ... : ... .. . ... : ... .. . ... ... : ... .. . ... ... : ... .. . ... ... : ... .. . ... ...
ROW 79 : ... .. . ... ... ... : ... .. . ... ... ... : ... .. . ... : ... .. 0 ... : ... .. . ... ... : ... .. 6 ... ... : ... .. 6 ... ... : ... .. . ... ...
ROW 7A : ... .. . ... ... ... : ... .. . ... ... ... : ... .. . ... : 1-# 00 F ... : ... .. . ... ... : ... .. . ... ... : ... .. . ... ... : ... .. . ... ...
ROW 7B : ... .. . ... ... ... : ... .. . ... ... ... : ... .. . ... : ... .. C ... : ... .. . ... ... : ... .. 5 ... ... : ... .. 5 ... ... : ... .. . ... ...
ROW 7C : ... .. . ... ... ... : ... .. . ... ... ... : ... .. . ... : ... .. 6 ... : ... .. . ... ... : ... .. . ... ... : ... .. . ... ... : ... .. . ... ...
ROW 7D : ... .. . ... ... ... : ... .. . ... ... ... : ... .. . ... : ... .. 3 ... : ... .. . ... ... : ... .. . ... ... : ... .. . ... ... : ... .. . ... ...
ROW 7E : ... .. . ... ... ... : ... .. . ... ... ... : ... .. . ... : ... .. 2 ... : ... .. . ... ... : ... .. . ... ... : ... .. . ... ... : ... .. . ... ...
ROW 7F : ... .. . ... ... ... : ... .. . ... ... ... : ... .. . ... : ... .. 0 ... : ... .. . ... ... : ... .. . ... ... : ... .. . ... ... : ... .. . ... ...
ROW 80 : E-4 00 A ... ... ... : C-4 00 A P7E ... ... : ... .. . ... : C-# 00 8 ... : ... .. . ... ... : ... .. . ... ... : ... .. . ... ... : ... .. . ... ...
ROW 81 : F-4 00 A P7C ... ... : ... .. . P84 ... ... : ... .. . ... : ... .. 6 ... : ... .. . ... ... : ... .. . ... ... : ... .. . ... ... : ... .. . ... ...
ROW 82 : E-4 00 A P84 ... ... : ... .. . P82 ... ... : ... .. . ... : ... .. 3 ... : ... .. . ... ... : ... .. . ... ... : ... .. . ... ... : ... .. . ... ...
ROW 83 : D#4 00 A ... ... ... : B-3 00 A P84 ... ... : ... .. . ... : ... .. 1 ... : ... .. . ... ... : ... .. . ... ... : ... .. . ... ... : ... .. . ... ...
ROW 84 : ... .. . P7C ... ... : ... .. . P7C ... ... : ... .. . ... : ... .. . ... : ... .. . ... ... : ... .. . ... ... : ... .. . ... ... : ... .. . ... ...
ROW 85 : D-4 00 A ... ... ... : A#3 00 A P80 ... ... : ... .. . ... : ... .. 0 ... : ... .. . ... ... : ... .. . ... ... : ... .. . ... ... : ... .. . ... ...
ROW 86 : C#4 00 A P86 ... ... : ... .. . P7E ... ... : A#2 00 . ... : ... .. 8 ... : ... .. . ... ... : ... .. . ... ... : ... .. . ... ... : ... .. . ... ...
ROW 87 : D-4 00 2 P80 ... ... : ... .. 2 P84 ... ... : ... .. . ... : ... .. 6 ... : ... .. . ... ... : ... .. . ... ... : ... .. . ... ... : ... .. . ... ...
ROW 88 : D#4 00 2 ... ... ... : B-3 00 2 P80 ... ... : ... .. . ... : ... .. 3 ... : ... .. . ... ... : ... .. 3 ... ... : ... .. 3 ... ... : ... .. . ... ...
ROW 89 : E-4 00 2 P7F ... ... : C-4 00 2 P7D ... ... : ... .. . ... : ... .. 1 ... : ... .. . ... ... : ... .. . ... ... : ... .. . ... ... : ... .. . ... ...
ROW 8A : F-4 00 1 P7C ... ... : ... .. 1 P84 ... ... : ... .. . ... : ... .. . ... : ... .. . ... ... : ... .. . ... ... : ... .. . ... ... : ... .. . ... ...
ROW 8B : E-4 00 1 P84 ... ... : ... .. . P82 ... ... : ... .. . ... : ... .. 0 ... : ... .. . ... ... : ... .. . ... ... : ... .. . ... ... : ... .. . ... ...
ROW 8C : G#1 00 F P80 ... ... : D#2 00 B P80 ... ... : B-2 00 . ... : 8-# 00 D ... : ... .. . ... ... : ... .. . ... ... : ... .. . ... ... : G#2 01 A ... ...
ROW 8D : ... .. E ... ... ... : ... .. F ... ... ... : ... .. . ... : ... .. . ... : ... .. . ... ... : ... .. . ... ... : ... .. . ... ... : ... .. 8 ... ...
ROW 8E : ... .. D ... ... ... : ... .. B ... ... ... : ... .. . ... : ... .. . ... : ... .. . ... ... : ... .. . ... ... : ... .. . ... ... : ... .. 5 ... ...
ROW 8F : ... .. A ... ... ... : ... .. 0 ... ... ... : ... .. . ... : B-# 00 D ... : ... .. . ... ... : ... .. . ... ... : ... .. . ... ... : ... .. . ... ...
ROW 90 : ... .. . ... ... ... : D#2 00 8 P80 ... ... : ... .. . ... : ... .. . ... : ... .. . ... ... : ... .. . ... ... : ... .. . ... ... : ... .. . ... ...
ROW 91 : ... .. . ... ... ... : ... .. C ... ... ... : --- .. . ... : ... .. . ... : ... .. . ... ... : ... .. . ... ... : ... .. . ... ... : ... .. . ... ...
ROW 92 : ... .. . ... ... ... : C#2 00 B ... ... ... : A#2 00 . ... : ... .. . ... : ... .. . ... ... : ... .. . ... ... : ... .. . ... ... : A#2 01 A ... ...
ROW 93 : ... .. . ... ... ... : ... .. F ... ... ... : ... .. . ... : ... .. . ... : ... .. . ... ... : ... .. . ... ... : ... .. . ... ... : ... .. 8 ... ...
ROW 94 : ... .. . ... ... ... : ... .. B ... ... ... : ... .. . ... : ... .. . ... : ... .. . ... ... : ... .. . ... ... : ... .. . ... ... : ... .. 5 ... ...
ROW 95 : G#3 00 D ... ... ... : ... .. 0 ... ... ... : ... .. . ... : ... .. A ... : ... .. . ... ... : ... .. 1 ... ... : ... .. 1 ... ... : ... .. . ... ...
ROW 96 : ... .. B ... ... ... : C#2 00 8 P80 ... ... : ... .. . ... : ... .. . ... : ... .. . ... ... : ... .. . ... ... : ... .. . ... ... : ... .. . ... ...
ROW 97 : ... .. . ... ... ... : ... .. C ... ... ... : --- .. . ... : ... .. . ... : ... .. . ... ... : ... .. . ... ... : ... .. . ... ... : ... .. . ... ...
ROW 98 : ... .. A ... ... ... : D#2 00 B ... ... ... : B-2 00 . ... : ... .. 9 ... : ... .. . ... ... : ... .. . ... ... : ... .. . ... ... : B-2 01 A ... ...
ROW 99 : ... .. 8 ... ... ... : ... .. F ... ... ... : ... .. . ... : ... .. . ... : ... .. . ... ... : ... .. . ... ... : ... .. . ... ... : ... .. 8 ... ...
ROW 9A : ... .. 7 ... ... ... : ... .. B ... ... ... : ... .. . ... : ... .. . ... : ... .. . ... ... : ... .. . ... ... : ... .. . ... ... : ... .. 5 ... ...
ROW 9B : ... .. 6 ... ... ... : ... .. 0 ... ... ... : ... .. . ... : ... .. 8 ... : ... .. . ... ... : ... .. . ... ... : ... .. . ... ... : ... .. . ... ...
ROW 9C : ... .. . ... ... ... : D#2 00 8 P80 ... ... : ... .. . ... : ... .. . ... : ... .. . ... ... : ... .. . ... ... : ... .. . ... ... : ... .. . ... ...
ROW 9D : ... .. 5 ... ... ... : ... .. C ... ... ... : --- .. . ... : ... .. . ... : ... .. . ... ... : ... .. . ... ... : ... .. . ... ... : ... .. . ... ...
ROW 9E : B-3 00 D ... ... ... : D#3 00 B ... ... ... : C#3 00 . ... : ... .. 7 ... : ... .. . ... ... : ... .. . ... ... : ... .. . ... ... : ... .. A ... ...
ROW 9F : ... .. B ... ... ... : ... .. F ... ... ... : ... .. . ... : ... .. . ... : ... .. . ... ... : ... .. . ... ... : ... .. . ... ... : ... .. 8 ... ...
ROW A0 : ... .. . ... ... ... : ... .. B ... ... ... : ... .. . ... : ... .. . ... : ... .. . ... ... : ... .. . ... ... : ... .. . ... ... : ... .. 5 ... ...
ROW A1 : ... .. A ... ... ... : ... .. 0 ... ... ... : ... .. . ... : ... .. 6 ... : ... .. . ... ... : ... .. . ... ... : ... .. . ... ... : ... .. . ... ...
ROW A2 : ... .. 8 ... ... ... : D#3 00 8 P80 ... ... : ... .. . ... : ... .. . ... : ... .. . ... ... : ... .. . ... ... : ... .. . ... ... : ... .. . ... ...
ROW A3 : ... .. 7 ... ... ... : ... .. C ... ... ... : --- .. . ... : ... .. . ... : ... .. . ... ... : --- .. . ... ... : --- .. . P7F ... : ... .. . ... ...
ROW A4 : ... .. 6 ... ... ... : D#2 00 B ... ... ... : D#3 00 . ... : ... .. 5 ... : ... .. . ... ... : ... .. . ... ... : ... .. . ... ... : C#3 01 A ... ...
ROW A5 : ... .. . ... ... ... : ... .. F ... ... ... : ... .. . ... : ... .. . ... : ... .. . ... ... : ... .. . ... ... : ... .. . ... ... : ... .. 8 ... ...
ROW A6 : ... .. 5 ... ... ... : ... .. B ... ... ... : ... .. . ... : ... .. . ... : ... .. . ... ... : ... .. . ... ... : ... .. . ... ... : ... .. 5 ... ...
ROW A7 : D#4 00 D ... ... ... : ... .. 0 ... ... ... : ... .. . ... : ... .. 4 ... : ... .. . ... ... : ... .. . ... ... : ... .. . ... ... : ... .. . ... ...
ROW A8 : ... .. B ... ... ... : D#2 00 8 P80 ... ... : ... .. . ... : ... .. . ... : ... .. . ... ... : ... .. . ... ... : ... .. . ... ... : ... .. . ... ...
ROW A9 : ... .. . ... ... ... : ... .. C ... ... ... : --- .. . ... : ... .. . ... : ... .. . ... ... : ... .. . ... ... : ... .. . ... ... : ... .. . ... ...
ROW AA : ... .. A ... ... ... : G#2 00 B ... ... ... : F#3 00 . ... : ... .. 3 ... : ... .. . ... ... : ... .. . ... ... : ... .. . ... ... : D#3 01 A ... ...
ROW AB : ... .. 8 ... ... ... : ... .. F ... ... ... : ... .. . ... : ... .. . ... : ... .. . ... ... : ... .. . ... ... : ... .. . ... ... : ... .. 8 ... ...
ROW AC : ... .. 7 ... ... ... : ... .. B ... ... ... : ... .. . ... : ... .. . ... : ... .. . ... ... : ... .. . ... ... : ... .. . ... ... : ... .. 5 ... ...
ROW AD : ... .. 6 ... ... ... : ... .. 0 ... ... ... : ... .. . ... : ... .. 2 ... : ... .. . ... ... : ... .. . ... ... : ... .. . ... ... : ... .. . ... ...
ROW AE : ... .. . ... ... ... : G#2 00 8 P80 ... ... : ... .. . ... : ... .. . ... : ... .. . ... ... : ... .. . ... ... : ... .. . ... ... : ... .. . ... ...
ROW AF : ... .. 5 ... ... ... : ... .. C ... ... ... : --- .. . ... : ... .. . ... : ... .. . ... ... : ... .. . ... ... : ... .. . ... ... : ... .. . ... ...
ROW B0 : C#4 00 F ... ... ... : A-2 00 B ... ... ... : D#5 00 . ... : 1-# 00 F ... : ... .. . ... ... : B-4 01 6 ... ... : E-4 01 6 P80 ... : E-3 01 A ... ...
ROW B1 : ... .. E ... ... ... : ... .. F ... ... ... : F-4 00 . ... : ... .. C ... : ... .. . ... ... : ... .. . ... ... : ... .. . ... ... : ... .. 8 ... ...
ROW B2 : ... .. D ... ... ... : ... .. B ... ... ... : A#3 00 . ... : ... .. 6 ... : ... .. . ... ... : ... .. 5 ... ... : ... .. 5 ... ... : ... .. 5 ... ...
ROW B3 : ... .. A ... ... ... : ... .. 0 ... ... ... : A-3 00 . ... : ... .. 3 ... : ... .. . ... ... : ... .. 4 ... ... : ... .. 4 ... ... : ... .. . ... ...
ROW B4 : ... .. . ... ... ... : A-2 00 8 P80 ... ... : E-3 00 . ... : ... .. 2 ... : ... .. . ... ... : ... .. . ... ... : ... .. . ... ... : ... .. . ... ...
ROW B5 : ... .. . ... ... ... : ... .. C ... ... ... : ... .. . ... : ... .. 0 ... : ... .. . ... ... : ... .. . ... ... : ... .. . ... ... : ... .. . ... ...
ROW B6 : ... .. . ... ... ... : E-2 00 B ... ... ... : ... .. . ... : C-# 00 8 ... : ... .. . ... ... : ... .. . ... ... : ... .. . ... ... : ... .. . ... ...
ROW B7 : ... .. . ... ... ... : ... .. F ... ... ... : ... .. . ... : ... .. 6 ... : ... .. . ... ... : ... .. 3 ... ... : ... .. 3 ... ... : ... .. . ... ...
ROW B8 : ... .. . ... ... ... : ... .. B ... ... ... : ... .. . ... : ... .. 3 ... : ... .. . ... ... : ... .. . ... ... : ... .. . ... ... : ... .. . ... ...
ROW B9 : ... .. . ... ... ... : ... .. 0 ... ... ... : ... .. . ... : ... .. 1 ... : ... .. . ... ... : ... .. . ... ... : ... .. . ... ... : D#3 01 A ... ...
ROW BA : ... .. . ... ... ... : E-2 00 8 P80 ... ... : ... .. . ... : ... .. . ... : ... .. . ... ... : ... .. . ... ... : ... .. . ... ... : ... .. 8 ... ...
ROW BB : ... .. . ... ... ... : ... .. C ... ... ... : ... .. . ... : ... .. 0 ... : ... .. . ... ... : ... .. . ... ... : ... .. . ... ... : ... .. 5 ... ...
ROW BC : ... .. . ... ... ... : C#3 00 B ... ... ... : D-3 00 . P8A : ... .. 8 ... : ... .. . ... ... : ... .. . ... ... : ... .. . ... ... : ... .. . ... ...
ROW BD : ... .. . ... ... ... : ... .. F ... ... ... : C#3 00 . P81 : ... .. 6 ... : ... .. . ... ... : ... .. . ... ... : ... .. . ... ... : ... .. . ... ...
ROW BE : ... .. . ... ... ... : ... .. B ... ... ... : C-3 00 . P79 : ... .. 3 ... : ... .. . ... ... : ... .. . ... ... : ... .. . ... ... : ... .. . ... ...
ROW BF : ... .. . P84 ... ... : ... .. 0 ... ... ... : A#2 00 . P8D : ... .. 1 ... : ... .. . ... ... : ... .. . ... ... : ... .. . ... ... : ... .. . ... ...
ROW C0 : ... .. . P86 ... ... : C#3 00 8 P80 ... ... : A-2 00 . P89 : ... .. . ... : ... .. . ... ... : ... .. . ... ... : ... .. . ... ... : ... .. . ... ...
ROW C1 : ... .. . P85 ... ... : ... .. C ... ... ... : G#2 00 . P88 : ... .. 0 ... : ... .. . ... ... : ... .. . ... ... : ... .. . ... ... : ... .. . ... ...
ROW C2 : ... .. . P82 ... ... : E-3 00 B ... ... ... : G-5 00 . P80 : 1-# 00 F ... : ... .. . ... ... : A-4 01 6 ... ... : D#4 01 6 ... ... : C#3 01 A ... ...
ROW C3 : ... .. . P7E ... ... : ... .. F ... ... ... : A-4 00 . ... : ... .. C ... : ... .. . ... ... : ... .. . ... ... : ... .. . ... ... : ... .. 8 ... ...
ROW C4 : ... .. . P7B ... ... : ... .. B ... ... ... : D-4 00 . ... : ... .. 6 ... : ... .. . ... ... : ... .. 5 ... ... : ... .. 5 ... ... : ... .. 5 ... ...
ROW C5 : C-4 00 A P86 ... ... : ... .. 0 ... ... ... : C#4 00 . ... : ... .. 3 ... : ... .. . ... ... : ... .. 4 ... ... : ... .. 4 ... ... : ... .. . ... ...
ROW C6 : C#4 00 2 P7C ... ... : E-3 00 8 P80 ... ... : G#3 00 . ... : ... .. 2 ... : ... .. . ... ... : ... .. . ... ... : ... .. . ... ... : ... .. . ... ...
ROW C7 : ... .. . P80 ... ... : ... .. C ... ... ... : --- .. . ... : ... .. 0 ... : ... .. . ... ... : ... .. . ... ... : ... .. . ... ... : ... .. . ... ...
ROW C8 : ... .. . P83 ... ... : A-2 00 B ... ... ... : F#3 00 . ... : C-# 00 8 ... : ... .. . ... ... : ... .. . ... ... : ... .. . ... ... : ... .. . ... ...
ROW C9 : ... .. 1 P86 ... ... : ... .. F ... ... ... : ... .. . ... : ... .. 6 ... : ... .. . ... ... : ... .. 3 ... ... : ... .. 3 ... ... : ... .. . ... ...
ROW CA : ... .. . ... ... ... : ... .. B ... ... ... : ... .. . ... : ... .. 3 ... : ... .. . ... ... : ... .. . ... ... : ... .. . ... ... : ... .. . ... ...
ROW CB : B-3 00 F P80 ... ... : ... .. 0 ... ... ... : ... .. . ... : ... .. 1 ... : ... .. . ... ... : ... .. . ... ... : ... .. . ... ... : B-2 01 A ... ...
ROW CC : ... .. E ... ... ... : A-2 00 8 P80 ... ... : ... .. . ... : ... .. . ... : ... .. . ... ... : ... .. . ... ... : ... .. . ... ... : ... .. 8 ... ...
ROW CD : ... .. D ... ... ... : ... .. C ... ... ... : --- .. . ... : ... .. 0 ... : ... .. . ... ... : ... .. . ... ... : ... .. . ... ... : ... .. 5 ... ...
ROW CE : ... .. A ... ... ... : A-3 00 B ... ... ... : G#3 00 . ... : ... .. 8 ... : ... .. . ... ... : ... .. . ... ... : ... .. . ... ... : ... .. . ... ...
ROW CF : ... .. . ... ... ... : ... .. F ... ... ... : ... .. . ... : ... .. 6 ... : ... .. . ... ... : ... .. . ... ... : ... .. . ... ... : ... .. . ... ...
ROW D0 : ... .. . ... ... ... : ... .. B ... ... ... : ... .. . ... : ... .. 3 ... : ... .. . ... ... : ... .. . ... ... : ... .. . ... ... : ... .. . ... ...
ROW D1 : ... .. . ... ... ... : ... .. 0 ... ... ... : --- .. . ... : ... .. 1 ... : ... .. . ... ... : ... .. . ... ... : ... .. . ... ... : ... .. . ... ...
ROW D2 : ... .. 2 ... ... ... : A-3 00 8 P80 ... ... : ... .. . ... : ... .. . ... : ... .. . ... ... : ... .. . ... ... : ... .. . ... ... : ... .. . ... ...
ROW D3 : ... .. . ... ... ... : ... .. C ... ... ... : ... .. . ... : ... .. 0 ... : ... .. . ... ... : ... .. . ... ... : ... .. . ... ... : ... .. . ... ...
ROW D4 : C#4 00 F ... ... ... : C#4 00 B ... ... ... : D#6 00 . ... : 7-# 00 F ... : ... .. . ... ... : G#4 01 6 ... ... : E-4 01 6 ... ... : A-2 01 A ... ...
ROW D5 : ... .. E ... ... ... : ... .. F ... ... ... : F-5 00 . ... : ... .. C ... : ... .. . ... ... : ... .. . ... ... : ... .. . ... ... : ... .. 8 ... ...
ROW D6 : ... .. D ... ... ... : ... .. B ... ... ... : A#4 00 . ... : ... .. 6 ... : ... .. . ... ... : ... .. 5 ... ... : ... .. 5 ... ... : ... .. 5 ... ...
ROW D7 : ... .. A ... ... ... : ... .. 0 ... ... ... : A-4 00 . ... : ... .. 3 ... : ... .. . ... ... : ... .. 4 ... ... : ... .. 4 ... ... : ... .. . ... ...
ROW D8 : ... .. . ... ... ... : C#4 00 8 P80 ... ... : E-4 00 . ... : ... .. 2 ... : ... .. . ... ... : ... .. . ... ... : ... .. . ... ... : ... .. . ... ...
ROW D9 : ... .. . ... ... ... : ... .. C ... ... ... : ... .. . ... : ... .. 0 ... : ... .. . ... ... : ... .. . ... ... : ... .. . ... ... : ... .. . ... ...
ROW DA : ... .. . ... ... ... : E-3 00 B ... ... ... : ... .. . ... : 1-# 00 8 ... : ... .. . ... ... : ... .. . ... ... : ... .. . ... ... : ... .. . ... ...
ROW DB : ... .. . ... ... ... : ... .. F ... ... ... : ... .. . ... : ... .. 6 ... : ... .. . ... ... : ... .. 3 ... ... : ... .. 3 ... ... : ... .. . ... ...
ROW DC : ... .. . ... ... ... : ... .. B ... ... ... : ... .. . ... : ... .. 3 ... : ... .. . ... ... : ... .. . ... ... : ... .. . ... ... : ... .. . ... ...
ROW DD : ... .. . ... ... ... : ... .. 0 ... ... ... : ... .. . ... : ... .. 1 ... : ... .. . ... ... : ... .. . ... ... : ... .. . ... ... : G#2 01 A ... ...
ROW DE : ... .. . ... ... ... : E-3 00 8 P80 ... ... : ... .. . ... : ... .. . ... : ... .. . ... ... : ... .. . ... ... : ... .. . ... ... : ... .. 8 ... ...
ROW DF : ... .. . ... ... ... : ... .. C ... ... ... : ... .. . ... : ... .. 0 ... : ... .. . ... ... : ... .. . ... ... : ... .. . ... ... : ... .. 5 ... ...
ROW E0 : ... .. . ... ... ... : A-3 00 B ... ... ... : D#4 00 . ... : 7-# 00 F ... : ... .. . ... ... : ... .. . ... ... : ... .. . ... ... : ... .. . ... ...
ROW E1 : ... .. . ... ... ... : ... .. F ... ... ... : ... .. . ... : ... .. C ... : ... .. . ... ... : ... .. . ... ... : ... .. . ... ... : ... .. . ... ...
ROW E2 : ... .. . ... ... ... : ... .. B ... ... ... : ... .. . ... : ... .. 6 ... : ... .. . ... ... : ... .. . ... ... : ... .. . ... ... : ... .. . ... ...
ROW E3 : ... .. . ... ... ... : ... .. 0 ... ... ... : ... .. . ... : ... .. 3 ... : ... .. . ... ... : ... .. . ... ... : ... .. . ... ... : ... .. . ... ...
ROW E4 : ... .. . ... ... ... : A-3 00 8 P80 ... ... : ... .. . ... : ... .. 2 ... : ... .. . ... ... : ... .. . ... ... : ... .. . ... ... : ... .. . ... ...
ROW E5 : ... .. . ... ... ... : ... .. C ... ... ... : ... .. . ... : ... .. 0 ... : ... .. . ... ... : ... .. . ... ... : ... .. . ... ... : ... .. . ... ...
ROW E6 : ... .. . ... ... ... : C#4 00 B ... ... ... : ... .. . ... : 1-# 00 8 ... : ... .. . ... ... : A-4 01 6 ... ... : C#4 01 6 ... ... : F#2 01 A ... ...
ROW E7 : ... .. . ... ... ... : ... .. F ... ... ... : ... .. . ... : ... .. 6 ... : ... .. . ... ... : ... .. . ... ... : ... .. . ... ... : ... .. 8 ... ...
ROW E8 : ... .. . ... ... ... : ... .. B ... ... ... : ... .. . ... : ... .. 3 ... : ... .. . ... ... : ... .. 5 ... ... : ... .. 5 ... ... : ... .. 5 ... ...
ROW E9 : ... .. . ... ... ... : ... .. 0 ... ... ... : ... .. . ... : ... .. 1 ... : ... .. . ... ... : ... .. 4 ... ... : ... .. 4 ... ... : ... .. . ... ...
ROW EA : ... .. . ... ... ... : C#4 00 8 P80 ... ... : ... .. . ... : ... .. . ... : ... .. . ... ... : ... .. . ... ... : ... .. . ... ... : ... .. . ... ...
ROW EB : ... .. . ... ... ... : ... .. C ... ... ... : --- .. . ... : ... .. 0 ... : ... .. . ... ... : ... .. . ... ... : ... .. . ... ... : ... .. . ... ...
ROW EC : ... .. . P84 ... ... : A-3 00 B ... ... ... : G#3 00 . ... : 7-# 00 F ... : ... .. . ... ... : ... .. . ... ... : ... .. . ... ... : ... .. . ... ...
ROW ED : ... .. . P86 ... ... : ... .. F ... ... ... : ... .. . ... : ... .. C ... : ... .. . ... ... : ... .. 3 ... ... : ... .. 3 ... ... : ... .. . ... ...
ROW EE : ... .. . P85 ... ... : ... .. B ... ... ... : ... .. . ... : ... .. 6 ... : ... .. . ... ... : ... .. . ... ... : ... .. . ... ... : ... .. . ... ...
ROW EF : ... .. . P82 ... ... : ... .. 0 ... ... ... : ... .. . ... : ... .. 3 ... : ... .. . ... ... : ... .. . ... ... : ... .. . ... ... : E-2 01 A ... ...
ROW F0 : ... .. . P7E ... ... : A-3 00 8 P80 ... ... : ... .. . ... : ... .. 2 ... : ... .. . ... ... : ... .. . ... ... : ... .. . ... ... : ... .. 8 ... ...
ROW F1 : ... .. . P7B ... ... : ... .. C ... ... ... : ... .. . ... : ... .. 0 ... : ... .. . ... ... : ... .. . ... ... : ... .. . ... ... : ... .. 5 ... ...
ROW F2 : C-4 00 A P86 ... ... : C#4 00 B ... ... ... : ... .. . ... : 1-# 00 8 ... : ... .. . ... ... : ... .. . ... ... : ... .. . ... ... : ... .. . ... ...
ROW F3 : C#4 00 A P7C ... ... : ... .. F ... ... ... : ... .. . ... : ... .. 6 ... : ... .. . ... ... : ... .. . ... ... : ... .. . ... ... : ... .. . ... ...
ROW F4 : ... .. . P80 ... ... : ... .. B ... ... ... : ... .. . ... : ... .. 3 ... : ... .. . ... ... : ... .. . ... ... : ... .. . ... ... : ... .. . ... ...
ROW F5 : ... .. . P83 ... ... : ... .. 0 ... ... ... : ... .. . ... : ... .. 1 ... : ... .. . ... ... : ... .. . ... ... : ... .. . ... ... : ... .. . ... ...
ROW F6 : ... .. . P86 ... ... : C#4 00 8 P80 ... ... : ... .. . ... : ... .. . ... : ... .. . ... ... : ... .. . ... ... : ... .. . ... ... : ... .. . ... ...
ROW F7 : ... .. . ... ... ... : ... .. C ... ... ... : --- .. . ... : ... .. 0 ... : ... .. . ... ... : ... .. . ... ... : ... .. . ... ... : ... .. . ... ...
ROW F8 : ... .. . P82 ... ... : F#4 00 B ... ... ... : G#3 00 . ... : ... .. F ... : ... .. . ... ... : C#5 01 6 ... ... : A-3 01 6 ... ... : D#2 01 A ... ...
ROW F9 : ... .. . P7F ... ... : ... .. F ... ... ... : A#2 00 . ... : ... .. C ... : ... .. . ... ... : ... .. . ... ... : ... .. . ... ... : ... .. 8 ... ...
ROW FA : ... .. . P7B ... ... : ... .. B ... ... ... : D#2 00 . ... : ... .. 6 ... : ... .. . ... ... : ... .. 5 ... ... : ... .. 5 ... ... : ... .. 5 ... ...
ROW FB : C-4 00 A P86 ... ... : ... .. 0 ... ... ... : D-2 00 . ... : ... .. 3 ... : ... .. . ... ... : ... .. 4 ... ... : ... .. 4 ... ... : ... .. . ... ...
ROW FC : C#4 00 A P7C ... ... : F#4 00 8 P80 ... ... : A-1 00 . ... : ... .. 2 ... : ... .. . ... ... : ... .. . ... ... : ... .. . ... ... : ... .. . ... ...
ROW FD : ... .. . P80 ... ... : ... .. C ... ... ... : ... .. . ... : ... .. 0 ... : ... .. . ... ... : ... .. . ... ... : ... .. . ... ... : ... .. . ... ...
ROW FE : ... .. . P83 ... ... : A-3 00 B ... ... ... : ... .. . ... : C-# 00 8 ... : ... .. . ... ... : ... .. . ... ... : ... .. . ... ... : ... .. . ... ...
ROW FF : ... .. . P86 ... ... : ... .. F ... ... ... : ... .. . ... : ... .. 6 ... : ... .. . ... ... : ... .. 3 ... ... : ... .. 3 ... ... : ... .. . ... ...

PATTERN 14
ROW 00 : ... .. . ... ... ... : ... .. B ... ... ... : ... .. . ... : ... .. 3 ... : ... .. . ... ... : ... .. . ... ... : ... .. . ... ... : ... .. . ... ...
ROW 01 : ... .. . P83 ... ... : ... .. 0 ... ... ... : ... .. . ... : ... .. 1 ... : ... .. . ... ... : ... .. . ... ... : ... .. . ... ... : C#2 01 A ... ...
ROW 02 : ... .. . P80 ... ... : A-3 00 8 P80 ... ... : ... .. . ... : ... .. . ... : ... .. . ... ... : ... .. . ... ... : ... .. . ... ... : ... .. 8 ... ...
ROW 03 : ... .. . P7C ... ... : ... .. C ... ... ... : ... .. . ... : ... .. 0 ... : ... .. . ... ... : ... .. . ... ... : ... .. . ... ... : ... .. 5 ... ...
ROW 04 : C-4 00 A P86 ... ... : C#4 00 B ... ... ... : ... .. . ... : ... .. 8 ... : ... .. . ... ... : ... .. . ... ... : ... .. . ... ... : ... .. . ... ...
ROW 05 : C#4 00 2 P7B ... ... : ... .. F ... ... ... : ... .. . ... : ... .. 6 ... : ... .. . ... ... : ... .. . ... ... : ... .. . ... ... : ... .. . ... ...
ROW 06 : ... .. . P7F ... ... : ... .. B ... ... ... : ... .. . ... : ... .. 3 ... : ... .. . ... ... : ... .. . ... ... : ... .. . ... ... : ... .. . ... ...
ROW 07 : ... .. . P82 ... ... : ... .. 0 ... ... ... : ... .. . ... : ... .. 1 ... : ... .. . ... ... : ... .. . ... ... : ... .. . ... ... : ... .. . ... ...
ROW 08 : ... .. 1 P86 ... ... : C#4 00 8 P80 ... ... : ... .. . ... : ... .. . ... : ... .. . ... ... : ... .. . ... ... : ... .. . ... ... : ... .. . ... ...
ROW 09 : ... .. . ... ... ... : ... .. C ... ... ... : ... .. . ... : ... .. 0 ... : ... .. . ... ... : ... .. . ... ... : ... .. . ... ... : ... .. . ... ...
ROW 0A : ... .. F P80 ... ... : F#4 00 B ... ... ... : C-5 00 . ... : 1-# 00 F ... : ... .. . ... ... : F#4 01 6 ... ... : C#4 01 6 ... ... : B-1 01 A ... ...
ROW 0B : ... .. E ... ... ... : ... .. F ... ... ... : D-4 00 . ... : ... .. C ... : ... .. . ... ... : ... .. . ... ... : ... .. . ... ... : ... .. 8 ... ...
ROW 0C : ... .. D ... ... ... : ... .. B ... ... ... : G-3 00 . ... : ... .. 6 ... : ... .. . ... ... : ... .. 5 ... ... : ... .. 5 ... ... : ... .. 5 ... ...
ROW 0D : ... .. A ... ... ... : ... .. 0 ... ... ... : F#3 00 . ... : ... .. 3 ... : ... .. . ... ... : ... .. 4 ... ... : ... .. 4 ... ... : ... .. . ... ...
ROW 0E : ... .. . P85 ... ... : F#4 00 8 P80 ... ... : C#3 00 . ... : ... .. 2 ... : ... .. . ... ... : ... .. . ... ... : ... .. . ... ... : ... .. . ... ...
ROW 0F : D-4 00 A P7E ... ... : ... .. C ... ... ... : --- .. . ... : ... .. 0 ... : ... .. . ... ... : ... .. . ... ... : ... .. . ... ... : ... .. . ... ...
ROW 10 : ... .. . P83 ... ... : C#4 00 B ... ... ... : D#3 00 . ... : C-# 00 8 ... : ... .. . ... ... : ... .. . ... ... : ... .. . ... ... : ... .. . ... ...
ROW 11 : D#4 00 A P7E ... ... : ... .. F ... ... ... : ... .. . ... : ... .. 6 ... : ... .. . ... ... : ... .. 3 ... ... : ... .. 3 ... ... : ... .. . ... ...
ROW 12 : ... .. . P80 ... ... : ... .. B ... ... ... : ... .. . ... : ... .. 3 ... : ... .. . ... ... : ... .. . ... ... : ... .. . ... ... : ... .. . ... ...
ROW 13 : ... .. . ... ... ... : ... .. 0 ... ... ... : ... .. . ... : ... .. 1 ... : ... .. . ... ... : ... .. . ... ... : ... .. . ... ... : A-1 01 A ... ...
ROW 14 : ... .. . ... ... ... : C#4 00 8 P80 ... ... : ... .. . ... : ... .. . ... : ... .. . ... ... : ... .. . ... ... : ... .. . ... ... : ... .. 8 ... ...
ROW 15 : ... .. . ... ... ... : ... .. C ... ... ... : --- .. . ... : ... .. 0 ... : ... .. . ... ... : ... .. . ... ... : ... .. . ... ... : ... .. 5 ... ...
ROW 16 : ... .. . ... ... ... : A-3 00 B ... ... ... : E-3 00 . ... : ... .. 8 ... : ... .. . ... ... : ... .. . ... ... : ... .. . ... ... : ... .. . ... ...
ROW 17 : ... .. . ... ... ... : ... .. F ... ... ... : ... .. . ... : ... .. 6 ... : ... .. . ... ... : ... .. . ... ... : ... .. . ... ... : ... .. . ... ...
ROW 18 : ... .. . ... ... ... : ... .. B ... ... ... : ... .. . ... : ... .. 3 ... : ... .. . ... ... : ... .. . ... ... : ... .. . ... ... : ... .. . ... ...
ROW 19 : ... .. . ... ... ... : ... .. 0 ... ... ... : ... .. . ... : ... .. 1 ... : ... .. . ... ... : ... .. . ... ... : ... .. . ... ... : ... .. . ... ...
ROW 1A : ... .. . ... ... ... : A-3 00 8 P80 ... ... : ... .. . ... : ... .. . ... : ... .. . ... ... : ... .. . ... ... : ... .. . ... ... : ... .. . ... ...
ROW 1B : ... .. . ... ... ... : ... .. C ... ... ... : --- .. . ... : ... .. 0 ... : ... .. . ... ... : ... .. . ... ... : ... .. . ... ... : ... .. . ... ...
ROW 1C : E-4 00 F ... ... ... : C#4 00 B ... ... ... : E-3 00 . ... : 7-# 00 F ... : ... .. . ... ... : A-4 01 6 ... ... : F#4 01 6 ... ... : G#1 01 A ... ...
ROW 1D : ... .. E ... ... ... : ... .. F ... ... ... : ... .. . ... : ... .. C ... : ... .. . ... ... : ... .. . ... ... : ... .. . ... ... : ... .. 8 ... ...
ROW 1E : ... .. D ... ... ... : ... .. B ... ... ... : ... .. . ... : ... .. 6 ... : ... .. . ... ... : ... .. 5 ... ... : ... .. 5 ... ... : ... .. 5 ... ...
ROW 1F : ... .. A ... ... ... : ... .. 0 ... ... ... : ... .. . ... : ... .. 3 ... : ... .. . ... ... : ... .. 4 ... ... : ... .. 4 ... ... : ... .. . ... ...
ROW 20 : ... .. . ... ... ... : C#4 00 8 P80 ... ... : ... .. . ... : ... .. 2 ... : ... .. . ... ... : ... .. . ... ... : ... .. . ... ... : ... .. . ... ...
ROW 21 : ... .. . ... ... ... : ... .. C ... ... ... : --- .. . ... : ... .. 0 ... : ... .. . ... ... : ... .. . ... ... : ... .. . ... ... : ... .. . ... ...
ROW 22 : ... .. . ... ... ... : C#3 00 B ... ... ... : D#3 00 . ... : ... .. 8 ... : ... .. . ... ... : ... .. . ... ... : ... .. . ... ... : ... .. . ... ...
ROW 23 : ... .. . ... ... ... : ... .. F ... ... ... : ... .. . ... : ... .. 6 ... : ... .. . ... ... : ... .. 3 ... ... : ... .. 3 ... ... : ... .. . ... ...
ROW 24 : ... .. . ... ... ... : ... .. B ... ... ... : ... .. . ... : ... .. 3 ... : ... .. . ... ... : ... .. . ... ... : ... .. . ... ... : ... .. . ... ...
ROW 25 : ... .. . ... ... ... : ... .. 0 ... ... ... : ... .. . ... : ... .. 1 ... : ... .. . ... ... : ... .. . ... ... : ... .. . ... ... : F#1 01 A ... ...
ROW 26 : ... .. . ... ... ... : C#3 00 8 P80 ... ... : ... .. . ... : ... .. . ... : ... .. . ... ... : ... .. . ... ... : ... .. . ... ... : ... .. 8 ... ...
ROW 27 : ... .. . ... ... ... : ... .. C ... ... ... : --- .. . ... : ... .. 0 ... : ... .. . ... ... : ... .. . ... ... : ... .. . ... ... : ... .. 5 ... ...
ROW 28 : F#4 00 F ... ... ... : F#3 00 B ... ... ... : C#3 00 . ... : 4-# 00 F ... : ... .. . ... ... : ... .. . ... ... : ... .. . ... ... : ... .. . ... ...
ROW 29 : ... .. E ... ... ... : ... .. F ... ... ... : ... .. . ... : ... .. C ... : ... .. . ... ... : ... .. . ... ... : ... .. . ... ... : ... .. . ... ...
ROW 2A : ... .. D ... ... ... : ... .. B ... ... ... : ... .. . ... : ... .. 6 ... : ... .. . ... ... : ... .. . ... ... : ... .. . ... ... : ... .. . ... ...
ROW 2B : ... .. A ... ... ... : ... .. 0 ... ... ... : ... .. . ... : ... .. 3 ... : ... .. . ... ... : ... .. . ... ... : ... .. . ... ... : ... .. . ... ...
ROW 2C : ... .. . ... ... ... : F#3 00 8 P80 ... ... : ... .. . ... : ... .. 2 ... : ... .. . ... ... : ... .. . ... ... : ... .. . ... ... : ... .. . ... ...
ROW 2D : ... .. . ... ... ... : ... .. C ... ... ... : --- .. . ... : ... .. 0 ... : ... .. . ... ... : ... .. . ... ... : ... .. . ... ... : ... .. . ... ...
ROW 2E : ... .. . ... ... ... : A-3 00 B ... ... ... : G#3 00 . ... : 9-# 00 8 ... : ... .. . ... ... : C#5 01 6 ... ... : D#4 01 6 ... ... : E-1 01 A ... ...
ROW 2F : ... .. . ... ... ... : ... .. F ... ... ... : ... .. . ... : ... .. 6 ... : ... .. . ... ... : ... .. . ... ... : ... .. . ... ... : ... .. 8 ... ...
ROW 30 : ... .. . ... ... ... : ... .. B ... ... ... : ... .. . ... : ... .. 3 ... : ... .. . ... ... : ... .. 5 ... ... : ... .. 5 ... ... : ... .. 5 ... ...
ROW 31 : ... .. . ... ... ... : ... .. 0 ... ... ... : ... .. . ... : ... .. 1 ... : ... .. . ... ... : ... .. 4 ... ... : ... .. 4 ... ... : ... .. . ... ...
ROW 32 : ... .. 2 ... ... ... : A-3 00 8 P80 ... ... : ... .. . ... : ... .. . ... : ... .. . ... ... : ... .. . ... ... : ... .. . ... ... : ... .. . ... ...
ROW 33 : ... .. . ... ... ... : ... .. C ... ... ... : --- .. . ... : ... .. 0 ... : ... .. . ... ... : ... .. . ... ... : ... .. . ... ... : ... .. . ... ...
ROW 34 : E-4 00 F ... ... ... : F#3 00 B ... ... ... : E-3 00 . ... : 7-# 00 F ... : ... .. . ... ... : ... .. . ... ... : ... .. . ... ... : ... .. . ... ...
ROW 35 : ... .. E ... ... ... : ... .. F ... ... ... : ... .. . ... : ... .. C ... : ... .. . ... ... : ... .. 3 ... ... : ... .. 3 ... ... : ... .. . ... ...
ROW 36 : ... .. D ... ... ... : ... .. B ... ... ... : ... .. . ... : ... .. 6 ... : ... .. . ... ... : ... .. . ... ... : ... .. . ... ... : ... .. . ... ...
ROW 37 : ... .. A ... ... ... : ... .. 0 ... ... ... : ... .. . ... : ... .. 3 ... : ... .. . ... ... : ... .. . ... ... : ... .. . ... ... : D#1 01 A ... ...
ROW 38 : ... .. . ... ... ... : F#3 00 8 P80 ... ... : ... .. . ... : ... .. 2 ... : ... .. . ... ... : ... .. . ... ... : ... .. . ... ... : ... .. 8 ... ...
ROW 39 : ... .. . ... ... ... : ... .. C ... ... ... : --- .. . ... : ... .. 0 ... : ... .. . ... ... : ... .. . ... ... : ... .. . ... ... : ... .. 5 ... ...
ROW 3A : ... .. . ... ... ... : C#3 00 B ... ... ... : C#3 00 . ... : 5-# 00 8 ... : ... .. . ... ... : ... .. . ... ... : ... .. . ... ... : ... .. . ... ...
ROW 3B : ... .. . ... ... ... : ... .. F ... ... ... : ... .. . ... : ... .. 6 ... : ... .. . ... ... : ... .. . ... ... : ... .. . ... ... : ... .. . ... ...
ROW 3C : ... .. . ... ... ... : ... .. B ... ... ... : ... .. . ... : ... .. 3 ... : ... .. . ... ... : ... .. . ... ... : ... .. . ... ... : ... .. . ... ...
ROW 3D : ... .. . ... ... ... : ... .. 0 ... ... ... : ... .. . ... : ... .. 1 ... : ... .. . ... ... : ... .. . ... ... : ... .. . ... ... : ... .. . ... ...
ROW 3E : ... .. 2 ... ... ... : C#3 00 8 P80 ... ... : ... .. . ... : ... .. . ... : ... .. . ... ... : ... .. . ... ... : ... .. . ... ... : ... .. . ... ...
ROW 3F : ... .. . ... ... ... : ... .. C ... ... ... : --- .. . ... : ... .. 0 ... : ... .. . ... ... : ... .. . ... ... : ... .. . ... ... : ... .. . ... ...
ROW 40 : C#4 00 F ... ... ... : D#4 00 F ... ... ... : D-4 00 . ... : B-# 00 D ... : ... .. . ... ... : B-3 01 6 ... ... : G#3 01 6 ... ... : D#2 01 A ... ...
ROW 41 : ... .. E ... ... ... : ... .. E ... ... ... : E-3 00 . ... : ... .. B ... : ... .. . ... ... : ... .. . ... ... : ... .. . ... ... : ... .. 8 ... ...
ROW 42 : ... .. D ... ... ... : ... .. D ... ... ... : A-2 00 . ... : ... .. . ... : ... .. . ... ... : ... .. 5 ... ... : ... .. 5 ... ... : ... .. 5 ... ...
ROW 43 : ... .. A ... ... ... : ... .. A ... ... ... : G#2 00 . ... : ... .. A ... : ... .. . ... ... : ... .. 4 ... ... : ... .. 4 ... ... : ... .. . ... ...
ROW 44 : ... .. . P85 ... ... : ... .. . ... ... ... : D#2 00 . ... : ... .. 8 ... : ... .. . ... ... : ... .. . ... ... : ... .. . ... ... : ... .. . ... ...
ROW 45 : D-4 00 A P7E ... ... : ... .. . ... ... ... : ... .. . ... : ... .. 7 ... : ... .. . ... ... : ... .. . ... ... : ... .. . ... ... : ... .. . ... ...
ROW 46 : ... .. . P83 ... ... : ... .. . ... ... ... : ... .. . ... : C-# 00 8 ... : ... .. . ... ... : ... .. 3 ... ... : ... .. 3 ... ... : ... .. . ... ...
ROW 47 : D#4 00 A P7E ... ... : ... .. 2 ... ... ... : ... .. . ... : ... .. 6 ... : ... .. . ... ... : ... .. . ... ... : ... .. . ... ... : ... .. . ... ...
ROW 48 : ... .. . P80 ... ... : ... .. . ... ... ... : ... .. . ... : ... .. 3 ... : ... .. . ... ... : ... .. 2 ... ... : ... .. 2 ... ... : ... .. . ... ...
ROW 49 : ... .. . ... ... ... : ... .. . ... ... ... : ... .. . ... : ... .. 1 ... : ... .. . ... ... : ... .. . ... ... : ... .. . ... ... : ... .. . ... ...
ROW 4A : ... .. . ... ... ... : ... .. 1 ... ... ... : ... .. . ... : ... .. . ... : ... .. . ... ... : ... .. . ... ... : ... .. . ... ... : ... .. . ... ...
ROW 4B : ... .. . ... ... ... : ... .. . ... ... ... : ... .. . ... : ... .. 0 ... : ... .. . ... ... : ... .. . ... ... : ... .. . ... ... : ... .. . ... ...
ROW 4C : ... .. . ... ... ... : F#4 00 F ... ... ... : C-5 00 . ... : B-# 00 D ... : ... .. . ... ... : D#4 01 6 ... ... : C#4 01 6 ... ... : ... .. . ... ...
ROW 4D : ... .. . ... ... ... : ... .. E ... ... ... : D-4 00 . ... : ... .. B ... : ... .. . ... ... : ... .. . ... ... : ... .. . ... ... : ... .. . ... ...
ROW 4E : ... .. . ... ... ... : ... .. D ... ... ... : G-3 00 . ... : ... .. . ... : ... .. . ... ... : ... .. 5 ... ... : ... .. 5 ... ... : ... .. . ... ...
ROW 4F : ... .. . ... ... ... : ... .. A ... ... ... : F#3 00 . ... : ... .. A ... : ... .. . ... ... : ... .. 4 ... ... : ... .. 4 ... ... : ... .. . ... ...
ROW 50 : ... .. . ... ... ... : ... .. . ... ... ... : C#3 00 . ... : ... .. 8 ... : ... .. . ... ... : ... .. . ... ... : ... .. . ... ... : ... .. . ... ...
ROW 51 : ... .. . ... ... ... : ... .. . ... ... ... : ... .. . ... : ... .. 7 ... : ... .. . ... ... : ... .. . ... ... : ... .. . ... ... : ... .. . ... ...
ROW 52 : ... .. . ... ... ... : ... .. . ... ... ... : ... .. . ... : 1-# 00 F ... : ... .. . ... ... : ... .. 3 ... ... : ... .. 3 ... ... : E-2 01 A ... ...
ROW 53 : ... .. . ... ... ... : ... .. 2 ... ... ... : ... .. . ... : ... .. C ... : ... .. . ... ... : ... .. . ... ... : ... .. . ... ... : ... .. 8 ... ...
ROW 54 : ... .. . ... ... ... : ... .. . ... ... ... : ... .. . ... : ... .. 6 ... : ... .. . ... ... : ... .. 2 ... ... : ... .. 2 ... ... : ... .. 5 ... ...
ROW 55 : ... .. . ... ... ... : ... .. . ... ... ... : ... .. . ... : ... .. 3 ... : ... .. . ... ... : ... .. . ... ... : ... .. . ... ... : ... .. . ... ...
ROW 56 : ... .. . ... ... ... : ... .. 1 ... ... ... : ... .. . ... : ... .. 2 ... : ... .. . ... ... : ... .. . ... ... : ... .. . ... ... : ... .. . ... ...
ROW 57 : ... .. . ... ... ... : ... .. . ... ... ... : ... .. . ... : ... .. 0 ... : ... .. . ... ... : ... .. . ... ... : ... .. . ... ... : ... .. . ... ...
ROW 58 : ... .. . ... ... ... : D#4 00 F ... ... ... : D-5 00 . ... : B-# 00 D ... : ... .. . ... ... : B-3 01 6 ... ... : F#3 01 6 ... ... : ... .. . ... ...
ROW 59 : ... .. . ... ... ... : ... .. E ... ... ... : E-4 00 . ... : ... .. B ... : ... .. . ... ... : ... .. . ... ... : ... .. . ... ... : ... .. . ... ...
ROW 5A : ... .. . ... ... ... : ... .. D ... ... ... : A-3 00 . ... : ... .. . ... : ... .. . ... ... : ... .. 5 ... ... : ... .. 5 ... ... : ... .. . ... ...
ROW 5B : ... .. . ... ... ... : ... .. A ... ... ... : G#3 00 . ... : ... .. A ... : ... .. . ... ... : ... .. 4 ... ... : ... .. 4 ... ... : ... .. . ... ...
ROW 5C : ... .. . ... ... ... : ... .. . ... ... ... : D#3 00 . ... : ... .. 8 ... : ... .. . ... ... : ... .. . ... ... : ... .. . ... ... : ... .. . ... ...
ROW 5D : ... .. . ... ... ... : ... .. . ... ... ... : ... .. . ... : ... .. 7 ... : ... .. . ... ... : ... .. . ... ... : ... .. . ... ... : ... .. . ... ...
ROW 5E : ... .. . ... ... ... : ... .. . ... ... ... : ... .. . ... : C-# 00 8 ... : ... .. . ... ... : ... .. 3 ... ... : ... .. 3 ... ... : ... .. . ... ...
ROW 5F : ... .. . ... ... ... : ... .. 2 ... ... ... : ... .. . ... : ... .. 6 ... : ... .. . ... ... : ... .. . ... ... : ... .. . ... ... : ... .. . ... ...
ROW 60 : ... .. . ... ... ... : ... .. . ... ... ... : ... .. . ... : ... .. 3 ... : ... .. . ... ... : ... .. 2 ... ... : ... .. 2 ... ... : ... .. . ... ...
ROW 61 : ... .. . ... ... ... : ... .. . ... ... ... : ... .. . ... : ... .. 1 ... : ... .. . ... ... : ... .. . ... ... : ... .. . ... ... : ... .. . ... ...
ROW 62 : ... .. . ... ... ... : ... .. 1 ... ... ... : ... .. . ... : ... .. . ... : ... .. . ... ... : ... .. . ... ... : ... .. . ... ... : ... .. . ... ...
ROW 63 : ... .. . ... ... ... : ... .. . ... ... ... : ... .. . ... : ... .. 0 ... : ... .. . ... ... : ... .. . ... ... : ... .. . ... ... : ... .. . ... ...
ROW 64 : ... .. . ... ... ... : E-4 00 F ... ... ... : D-3 00 . ... : B-# 00 D ... : ... .. . ... ... : C#4 01 6 ... ... : ... .. 6 ... ... : A-2 01 A ... ...
ROW 65 : ... .. . ... ... ... : ... .. E ... ... ... : E-2 00 . ... : ... .. B ... : ... .. . ... ... : ... .. . ... ... : ... .. . ... ... : ... .. 8 ... ...
ROW 66 : ... .. . ... ... ... : ... .. D ... ... ... : A-1 00 . ... : ... .. . ... : ... .. . ... ... : ... .. 5 ... ... : ... .. 5 ... ... : ... .. 5 ... ...
ROW 67 : ... .. . ... ... ... : ... .. A ... ... ... : G#1 00 . ... : ... .. A ... : ... .. . ... ... : ... .. 4 ... ... : ... .. 4 ... ... : ... .. . ... ...
ROW 68 : ... .. . ... ... ... : ... .. . ... ... ... : D#1 00 . ... : ... .. 8 ... : ... .. . ... ... : ... .. . ... ... : ... .. . ... ... : ... .. . ... ...
ROW 69 : ... .. . ... ... ... : ... .. . ... ... ... : ... .. . ... : ... .. 7 ... : ... .. . ... ... : ... .. . ... ... : ... .. . ... ... : ... .. . ... ...
ROW 6A : E-4 00 A P7C ... ... : ... .. . ... ... ... : ... .. . ... : ... .. 6 ... : ... .. . ... ... : ... .. . ... ... : E-3 01 6 ... ... : ... .. . ... ...
ROW 6B : ... .. . P7F ... ... : ... .. . ... ... ... : ... .. . ... : ... .. . ... : ... .. . ... ... : ... .. 3 ... ... : ... .. . ... ... : ... .. . ... ...
ROW 6C : ... .. . P7E ... ... : ... .. . ... ... ... : ... .. . ... : ... .. 5 ... : ... .. . ... ... : ... .. . ... ... : ... .. 5 ... ... : ... .. . ... ...
ROW 6D : D#4 00 A P82 ... ... : ... .. . ... ... ... : ... .. . ... : ... .. . ... : ... .. . ... ... : ... .. . ... ... : ... .. 3 ... ... : ... .. . ... ...
ROW 6E : ... .. . P7E ... ... : ... .. . ... ... ... : ... .. . ... : ... .. 4 ... : ... .. . ... ... : ... .. . ... ... : ... .. . ... ... : ... .. . ... ...
ROW 6F : D-4 00 A P82 ... ... : ... .. . ... ... ... : ... .. . ... : ... .. . ... : ... .. . ... ... : ... .. . ... ... : ... .. 2 ... ... : ... .. . ... ...
ROW 70 : ... .. . P81 ... ... : ... .. . ... ... ... : ... .. . ... : 7-# 00 F ... : ... .. . ... ... : ... .. . ... ... : D#3 01 6 ... ... : ... .. . ... ...
ROW 71 : ... .. . P84 ... ... : ... .. . ... ... ... : ... .. . ... : ... .. C ... : ... .. . ... ... : ... .. . ... ... : ... .. . ... ... : ... .. . ... ...
ROW 72 : D#4 00 A P80 ... ... : ... .. . ... ... ... : ... .. . ... : ... .. 6 ... : ... .. . ... ... : ... .. . ... ... : ... .. 5 ... ... : ... .. . ... ...
ROW 73 : ... .. . P85 ... ... : ... .. . ... ... ... : ... .. . ... : ... .. 3 ... : ... .. . ... ... : ... .. . ... ... : ... .. 3 ... ... : ... .. . ... ...
ROW 74 : E-4 00 A P7F ... ... : ... .. 2 ... ... ... : ... .. . ... : ... .. 2 ... : ... .. . ... ... : ... .. . ... ... : ... .. . ... ... : ... .. . ... ...
ROW 75 : ... .. . P7E ... ... : ... .. . ... ... ... : ... .. . ... : ... .. 0 ... : ... .. . ... ... : ... .. . ... ... : ... .. 2 ... ... : ... .. . ... ...
ROW 76 : D#4 00 A P83 ... ... : G#3 00 B ... ... ... : ... .. . ... : 1-# 00 8 ... : ... .. . ... ... : ... .. . ... ... : E-3 01 6 ... ... : C#3 01 A ... ...
ROW 77 : ... .. . P7F ... ... : ... .. F ... ... ... : ... .. . ... : ... .. 6 ... : ... .. . ... ... : ... .. . ... ... : ... .. . ... ... : ... .. 8 ... ...
ROW 78 : D-4 00 A P83 ... ... : ... .. B ... ... ... : ... .. . ... : ... .. 3 ... : ... .. . ... ... : ... .. . ... ... : ... .. 5 ... ... : ... .. 5 ... ...
ROW 79 : ... .. . P81 ... ... : ... .. 0 ... ... ... : ... .. . ... : ... .. 1 ... : ... .. . ... ... : ... .. . ... ... : ... .. 4 ... ... : ... .. . ... ...
ROW 7A : ... .. . P83 ... ... : G#3 00 8 P80 ... ... : ... .. . ... : ... .. . ... : ... .. . ... ... : ... .. . ... ... : ... .. . ... ... : ... .. . ... ...
ROW 7B : D#4 00 A P80 ... ... : ... .. C ... ... ... : ... .. . ... : ... .. 0 ... : ... .. . ... ... : ... .. . ... ... : ... .. . ... ... : ... .. . ... ...
ROW 7C : ... .. . P84 ... ... : G#2 00 B ... ... ... : ... .. . ... : 7-# 00 F ... : ... .. . ... ... : ... .. . ... ... : D#3 01 6 ... ... : ... .. . ... ...
ROW 7D : E-4 00 A P7F ... ... : ... .. F ... ... ... : ... .. . ... : ... .. C ... : ... .. . ... ... : ... .. . ... ... : ... .. . ... ... : ... .. . ... ...
ROW 7E : ... .. . ... ... ... : ... .. B ... ... ... : ... .. . ... : ... .. 6 ... : ... .. . ... ... : ... .. . ... ... : ... .. 5 ... ... : ... .. . ... ...
ROW 7F : D#4 00 A P84 ... ... : ... .. 0 ... ... ... : ... .. . ... : ... .. 3 ... : ... .. . ... ... : ... .. . ... ... : ... .. 3 ... ... : ... .. . ... ...
ROW 80 : ... .. 2 P80 ... ... : G#2 00 8 P80 ... ... : ... .. . ... : ... .. 2 ... : ... .. . ... ... : ... .. . ... ... : ... .. . ... ... : ... .. . ... ...
ROW 81 : D-4 00 2 P83 ... ... : ... .. C ... ... ... : ... .. . ... : ... .. 0 ... : ... .. . ... ... : ... .. . ... ... : ... .. 2 ... ... : ... .. . ... ...
ROW 82 : ... .. . P81 ... ... : C#3 00 B ... ... ... : ... .. . ... : 1-# 00 8 ... : ... .. . ... ... : ... .. . ... ... : C#3 01 6 ... ... : ... .. . ... ...
ROW 83 : ... .. 1 P83 ... ... : ... .. F ... ... ... : ... .. . ... : ... .. 6 ... : ... .. . ... ... : ... .. . ... ... : ... .. . ... ... : ... .. . ... ...
ROW 84 : D#4 00 1 P7F ... ... : ... .. B ... ... ... : ... .. . ... : ... .. 3 ... : ... .. . ... ... : ... .. . ... ... : ... .. 5 ... ... : ... .. . ... ...
ROW 85 : ... .. . P83 ... ... : ... .. 0 ... ... ... : ... .. . ... : ... .. 1 ... : ... .. . ... ... : ... .. . ... ... : ... .. 3 ... ... : ... .. . ... ...
ROW 86 : ... .. 0 ... V00 ... : C#3 00 8 P80 ... ... : ... .. . ... : ... .. . ... : ... .. . ... ... : ... .. . ... ... : ... .. . ... ... : ... .. . ... ...
ROW 87 : ... .. . ... ... ... : ... .. C ... ... ... : ... .. . ... : ... .. 0 ... : ... .. . ... ... : ... .. . ... ... : ... .. 2 ... ... : ... .. . ... ...
ROW 88 : E-4 00 F P80 V02 ... : D#3 00 F ... ... ... : D-4 00 . ... : 5-# 00 D ... : ... .. . ... ... : B-2 01 6 ... ... : A-3 01 6 ... ... : F#3 01 A ... ...
ROW 89 : ... .. E ... ... ... : ... .. E ... ... ... : E-3 00 . ... : ... .. B ... : ... .. . ... ... : ... .. . ... ... : ... .. . ... ... : ... .. 8 ... ...
ROW 8A : ... .. D ... ... ... : ... .. D ... ... ... : A-2 00 . ... : ... .. . ... : ... .. . ... ... : ... .. 5 ... ... : ... .. 5 ... ... : ... .. 5 ... ...
ROW 8B : ... .. A ... ... ... : ... .. A ... ... ... : G#2 00 . ... : ... .. A ... : ... .. . ... ... : ... .. 4 ... ... : ... .. 4 ... ... : ... .. . ... ...
ROW 8C : ... .. . ... ... ... : ... .. . ... ... ... : D#2 00 . ... : ... .. 8 ... : ... .. . ... ... : ... .. . ... ... : ... .. . ... ... : ... .. . ... ...
ROW 8D : ... .. . ... ... ... : ... .. . ... ... ... : ... .. . ... : ... .. 7 ... : ... .. . ... ... : ... .. . ... ... : ... .. . ... ... : ... .. . ... ...
ROW 8E : ... .. . ... ... ... : ... .. . ... ... ... : ... .. . ... : ... .. D ... : ... .. . ... ... : ... .. 3 ... ... : E-3 01 6 ... ... : ... .. . ... ...
ROW 8F : ... .. . ... ... ... : ... .. 2 ... ... ... : ... .. . ... : ... .. B ... : ... .. . ... ... : ... .. . ... ... : ... .. . ... ... : ... .. 2 ... ...
ROW 90 : ... .. . ... ... ... : ... .. . ... ... ... : ... .. . ... : ... .. . ... : ... .. . ... ... : ... .. 2 ... ... : ... .. 5 ... ... : ... .. . ... ...
ROW 91 : D-4 00 A P84 ... ... : ... .. . ... ... ... : ... .. . ... : ... .. A ... : ... .. . ... ... : ... .. . ... ... : ... .. 4 ... ... : ... .. 1 ... ...
ROW 92 : C#4 00 A P80 ... ... : ... .. 1 ... ... ... : ... .. . ... : ... .. 8 ... : ... .. . ... ... : ... .. . ... ... : ... .. . ... ... : ... .. . ... ...
ROW 93 : C-4 00 A P7C ... ... : ... .. . ... ... ... : ... .. . ... : ... .. 7 ... : ... .. . ... ... : ... .. . ... ... : ... .. . ... ... : ... .. . ... ...
ROW 94 : A#3 00 A P86 ... ... : F#3 00 F ... ... ... : ... .. . ... : ... .. D ... : ... .. . ... ... : E-4 01 6 ... ... : C#3 01 6 ... ... : ... .. A ... ...
ROW 95 : A-3 00 A P84 ... ... : ... .. E ... ... ... : ... .. . ... : ... .. B ... : ... .. . ... ... : ... .. . ... ... : ... .. . ... ... : ... .. 8 ... ...
ROW 96 : G#3 00 A P83 ... ... : ... .. D ... ... ... : ... .. . ... : ... .. . ... : ... .. . ... ... : ... .. 5 ... ... : ... .. 5 ... ... : ... .. 5 ... ...
ROW 97 : G-3 00 A ... V01 ... : ... .. A ... ... ... : ... .. . ... : ... .. A ... : ... .. . ... ... : ... .. 4 ... ... : ... .. 4 ... ... : ... .. . ... ...
ROW 98 : F#3 00 2 P84 ... ... : ... .. . ... ... ... : ... .. . ... : ... .. 8 ... : ... .. . ... ... : ... .. . ... ... : ... .. . ... ... : ... .. . ... ...
ROW 99 : F-3 00 2 P86 ... ... : ... .. . ... ... ... : ... .. . ... : ... .. 7 ... : ... .. . ... ... : ... .. . ... ... : ... .. . ... ... : ... .. . ... ...
ROW 9A : E-4 00 F P80 ... ... : ... .. . ... ... ... : D#3 00 . ... : B-# 00 D ... : ... .. . ... ... : C#4 01 6 ... ... : D#2 01 6 ... ... : ... .. . ... ...
ROW 9B : ... .. E ... ... ... : ... .. 2 ... ... ... : ... .. . ... : ... .. B ... : ... .. . ... ... : ... .. . ... ... : ... .. . ... ... : ... .. 2 ... ...
ROW 9C : ... .. D ... ... ... : ... .. . ... ... ... : ... .. . ... : ... .. . ... : ... .. . ... ... : ... .. 5 ... ... : ... .. 5 ... ... : ... .. . ... ...
ROW 9D : ... .. A ... ... ... : ... .. . ... ... ... : ... .. . ... : ... .. A ... : ... .. . ... ... : ... .. 4 ... ... : ... .. 4 ... ... : ... .. 1 ... ...
ROW 9E : ... .. 2 ... ... ... : ... .. 1 ... ... ... : ... .. . ... : ... .. 8 ... : ... .. . ... ... : ... .. . ... ... : ... .. . ... ... : ... .. . ... ...
ROW 9F : ... .. . ... ... ... : ... .. . ... ... ... : --- .. . ... : ... .. 7 ... : ... .. . ... ... : ... .. . ... ... : ... .. . ... ... : ... .. . ... ...
ROW A0 : ... .. F ... ... ... : B-4 00 F ... ... ... : D#3 00 . ... : ... .. D ... : ... .. . ... ... : A-3 01 6 ... ... : C#3 01 6 ... ... : ... .. A ... ...
ROW A1 : ... .. E ... ... ... : ... .. E ... ... ... : ... .. . ... : ... .. B ... : ... .. . ... ... : ... .. . ... ... : ... .. . ... ... : ... .. 8 ... ...
ROW A2 : ... .. D ... ... ... : ... .. D ... ... ... : ... .. . ... : ... .. . ... : ... .. . ... ... : ... .. 5 ... ... : ... .. 5 ... ... : ... .. 5 ... ...
ROW A3 : ... .. A ... ... ... : ... .. A ... ... ... : ... .. . ... : ... .. A ... : ... .. . ... ... : ... .. 4 ... ... : ... .. 4 ... ... : ... .. . ... ...
ROW A4 : ... .. 2 ... ... ... : ... .. . ... ... ... : ... .. . ... : ... .. 8 ... : ... .. . ... ... : ... .. . ... ... : ... .. . ... ... : ... .. . ... ...
ROW A5 : ... .. . ... ... ... : ... .. . ... ... ... : --- .. . ... : ... .. 7 ... : ... .. . ... ... : ... .. . ... ... : ... .. . ... ... : ... .. . ... ...
ROW A6 : ... .. F ... ... ... : ... .. . ... ... ... : D#3 00 . ... : ... .. D ... : ... .. . ... ... : E-3 01 6 ... ... : E-3 01 6 ... ... : ... .. . ... ...
ROW A7 : ... .. E ... ... ... : ... .. 2 ... ... ... : ... .. . ... : ... .. B ... : ... .. . ... ... : ... .. . ... ... : ... .. . ... ... : ... .. 2 ... ...
ROW A8 : ... .. D ... ... ... : ... .. . ... ... ... : ... .. . ... : ... .. . ... : ... .. . ... ... : ... .. 5 ... ... : ... .. 5 ... ... : ... .. . ... ...
ROW A9 : ... .. A ... ... ... : ... .. . ... ... ... : ... .. . ... : ... .. A ... : ... .. . ... ... : ... .. 4 ... ... : ... .. 4 ... ... : ... .. 1 ... ...
ROW AA : ... .. 2 ... ... ... : ... .. 1 ... ... ... : ... .. . ... : ... .. 8 ... : ... .. . ... ... : ... .. . ... ... : ... .. . ... ... : ... .. . ... ...
ROW AB : ... .. . ... ... ... : ... .. . ... ... ... : --- .. . ... : ... .. 7 ... : ... .. . ... ... : ... .. . ... ... : ... .. . ... ... : ... .. . ... ...
ROW AC : F#4 00 F ... ... ... : A-3 00 F ... ... ... : C#4 00 . ... : 7-# 00 D ... : ... .. . ... ... : A-3 01 6 ... ... : D#4 01 6 ... ... : A-3 01 A ... ...
ROW AD : ... .. E ... ... ... : ... .. E ... ... ... : ... .. . ... : ... .. B ... : ... .. . ... ... : ... .. . ... ... : ... .. . ... ... : ... .. 8 ... ...
ROW AE : ... .. D ... ... ... : ... .. D ... ... ... : ... .. . ... : ... .. . ... : ... .. . ... ... : ... .. 5 ... ... : ... .. 5 ... ... : ... .. 5 ... ...
ROW AF : ... .. A ... ... ... : ... .. A ... ... ... : ... .. . ... : ... .. A ... : ... .. . ... ... : ... .. 4 ... ... : ... .. 4 ... ... : ... .. . ... ...
ROW B0 : ... .. . ... ... ... : ... .. . ... ... ... : ... .. . ... : ... .. 8 ... : ... .. . ... ... : ... .. . ... ... : ... .. . ... ... : ... .. . ... ...
ROW B1 : ... .. . ... ... ... : ... .. . ... ... ... : --- .. . ... : ... .. 7 ... : ... .. . ... ... : ... .. . ... ... : ... .. . ... ... : ... .. . ... ...
ROW B2 : ... .. F ... ... ... : ... .. F ... ... ... : C#4 00 . ... : ... .. D ... : ... .. . ... ... : C#4 01 6 ... ... : G-3 01 6 ... ... : ... .. . ... ...
ROW B3 : ... .. E ... ... ... : ... .. E ... ... ... : ... .. . ... : ... .. B ... : ... .. . ... ... : ... .. . ... ... : ... .. . ... ... : ... .. 2 ... ...
ROW B4 : ... .. D ... ... ... : ... .. D ... ... ... : ... .. . ... : ... .. . ... : ... .. . ... ... : ... .. 5 ... ... : ... .. 5 ... ... : ... .. . ... ...
ROW B5 : ... .. A ... ... ... : ... .. A ... ... ... : ... .. . ... : ... .. A ... : ... .. . ... ... : ... .. 4 ... ... : ... .. 3 ... ... : ... .. 1 ... ...
ROW B6 : ... .. 2 ... ... ... : ... .. . ... ... ... : ... .. . ... : ... .. 8 ... : ... .. . ... ... : ... .. . ... ... : ... .. . ... ... : ... .. . ... ...
ROW B7 : ... .. . ... ... ... : ... .. . ... ... ... : --- .. . ... : ... .. 7 ... : ... .. . ... ... : ... .. . ... ... : ... .. 2 ... ... : ... .. . ... ...
ROW B8 : ... .. F ... ... ... : ... .. F ... ... ... : C#4 00 . ... : ... .. D ... : ... .. . ... ... : F#4 01 6 ... ... : D#3 01 6 ... ... : ... .. A ... ...
ROW B9 : ... .. E ... ... ... : ... .. E ... ... ... : ... .. . ... : ... .. B ... : ... .. . ... ... : ... .. . ... ... : ... .. . ... ... : ... .. 8 ... ...
ROW BA : ... .. D ... ... ... : ... .. D ... ... ... : ... .. . ... : ... .. . ... : ... .. . ... ... : ... .. 5 ... ... : ... .. 5 ... ... : ... .. 5 ... ...
ROW BB : ... .. A ... ... ... : ... .. A ... ... ... : ... .. . ... : ... .. A ... : ... .. . ... ... : ... .. 4 ... ... : ... .. 4 ... ... : ... .. . ... ...
ROW BC : ... .. 2 ... ... ... : ... .. . ... ... ... : ... .. . ... : ... .. 8 ... : ... .. . ... ... : ... .. . ... ... : ... .. . ... ... : ... .. . ... ...
ROW BD : ... .. . ... ... ... : ... .. . ... ... ... : --- .. . ... : ... .. 7 ... : ... .. . ... ... : ... .. . ... ... : ... .. . ... ... : ... .. . ... ...
ROW BE : ... .. F ... ... ... : ... .. F ... ... ... : D#3 00 . ... : 5-# 00 D ... : ... .. . ... ... : C#4 01 6 ... ... : D#2 01 6 ... ... : ... .. . ... ...
ROW BF : ... .. E ... ... ... : ... .. E ... ... ... : ... .. . ... : ... .. B ... : ... .. . ... ... : ... .. . ... ... : ... .. . ... ... : ... .. 2 ... ...
ROW C0 : ... .. D ... ... ... : ... .. D ... ... ... : ... .. . ... : ... .. . ... : ... .. . ... ... : ... .. 5 ... ... : ... .. 5 ... ... : ... .. . ... ...
ROW C1 : ... .. A ... ... ... : ... .. A ... ... ... : ... .. . ... : ... .. A ... : ... .. . ... ... : ... .. 4 ... ... : ... .. 4 ... ... : ... .. 1 ... ...
ROW C2 : ... .. 2 ... ... ... : ... .. . ... ... ... : ... .. . ... : ... .. 8 ... : ... .. . ... ... : ... .. . ... ... : ... .. . ... ... : ... .. . ... ...
ROW C3 : ... .. . ... ... ... : ... .. . ... ... ... : --- .. . ... : ... .. 7 ... : ... .. . ... ... : ... .. . ... ... : ... .. . ... ... : ... .. . ... ...
ROW C4 : ... .. F ... ... ... : F#3 00 F ... ... ... : D#3 00 . ... : ... .. D ... : ... .. . ... ... : A-3 01 6 ... ... : D#3 01 6 ... ... : ... .. A ... ...
ROW C5 : ... .. E ... ... ... : ... .. E ... ... ... : ... .. . ... : ... .. B ... : ... .. . ... ... : ... .. . ... ... : ... .. . ... ... : ... .. 8 ... ...
ROW C6 : ... .. D ... ... ... : ... .. D ... ... ... : ... .. . ... : ... .. . ... : ... .. . ... ... : ... .. 5 ... ... : ... .. 5 ... ... : ... .. 5 ... ...
ROW C7 : ... .. A ... ... ... : ... .. A ... ... ... : ... .. . ... : ... .. A ... : ... .. . ... ... : ... .. 4 ... ... : ... .. 4 ... ... : ... .. . ... ...
ROW C8 : ... .. 2 ... ... ... : ... .. . ... ... ... : ... .. . ... : ... .. 8 ... : ... .. . ... ... : ... .. . ... ... : ... .. . ... ... : ... .. . ... ...
ROW C9 : ... .. . ... ... ... : ... .. . ... ... ... : --- .. . ... : ... .. 7 ... : ... .. . ... ... : ... .. . ... ... : ... .. . ... ... : ... .. . ... ...
ROW CA : ... .. F ... ... ... : E-3 00 F ... ... ... : D#3 00 . ... : ... .. D ... : ... .. . ... ... : C#4 01 6 ... ... : D#4 01 6 ... ... : ... .. . ... ...
ROW CB : ... .. E ... ... ... : ... .. E ... ... ... : ... .. . ... : ... .. B ... : ... .. . ... ... : ... .. . ... ... : ... .. . ... ... : ... .. 2 ... ...
ROW CC : ... .. D ... ... ... : ... .. D ... ... ... : ... .. . ... : ... .. . ... : ... .. . ... ... : ... .. 5 ... ... : ... .. 5 ... ... : ... .. . ... ...
ROW CD : ... .. A ... ... ... : ... .. A ... ... ... : ... .. . ... : ... .. A ... : ... .. . ... ... : ... .. 4 ... ... : ... .. 4 ... ... : ... .. 1 ... ...
ROW CE : ... .. 2 ... ... ... : ... .. . ... ... ... : ... .. . ... : ... .. 8 ... : ... .. . ... ... : ... .. . ... ... : ... .. . ... ... : ... .. . ... ...
ROW CF : ... .. . ... ... ... : ... .. . ... ... ... : --- .. . ... : ... .. 7 ... : ... .. . ... ... : ... .. . ... ... : ... .. . ... ... : ... .. . ... ...
ROW D0 : G#1 00 C ... ... ... : D#3 00 F ... ... ... : G-4 00 . ... : 8-# 00 D ... : ... .. . ... ... : G#4 01 8 ... ... : ... .. 8 ... ... : G#1 01 F ... ...
ROW D1 : ... .. B ... ... ... : ... .. E ... ... ... : A-3 00 . ... : ... .. . ... : ... .. . ... ... : ... .. 7 ... ... : ... .. 7 ... ... : ... .. D ... ...
ROW D2 : ... .. A ... ... ... : ... .. D ... ... ... : D-3 00 . ... : ... .. . ... : ... .. . ... ... : ... .. 6 ... ... : ... .. 6 ... ... : ... .. 8 ... ...
ROW D3 : ... .. 8 ... ... ... : ... .. A ... ... ... : C#3 00 . ... : B-# 00 D ... : ... .. . ... ... : ... .. 5 ... ... : ... .. 5 ... ... : ... .. . ... ...
ROW D4 : ... .. 1 ... ... ... : ... .. . ... ... ... : G#2 00 . ... : ... .. . ... : ... .. . ... ... : ... .. . ... ... : ... .. . ... ... : ... .. . ... ...
ROW D5 : ... .. . ... ... ... : ... .. . ... ... ... : ... .. . ... : ... .. . ... : ... .. . ... ... : ... .. 4 ... ... : ... .. 4 ... ... : ... .. . ... ...
ROW D6 : ... .. C ... ... ... : ... .. . ... ... ... : ... .. . ... : ... .. . ... : ... .. . ... ... : ... .. . ... ... : ... .. . ... ... : ... .. . ... ...
ROW D7 : ... .. B ... ... ... : ... .. . ... ... ... : ... .. . ... : ... .. . ... : ... .. . ... ... : ... .. . ... ... : ... .. . ... ... : ... .. . ... ...
ROW D8 : ... .. A ... ... ... : ... .. . ... ... ... : ... .. . ... : ... .. . ... : ... .. . ... ... : ... .. . ... ... : ... .. . ... ... : ... .. . ... ...
ROW D9 : ... .. 8 ... ... ... : ... .. 0 ... ... ... : G-2 00 . ... : ... .. A ... : ... .. . ... ... : E-4 01 4 P83 ... : C-4 01 4 P82 ... : ... .. . P60 ...
ROW DA : ... .. 1 ... ... ... : ... .. . ... ... ... : F#2 00 . P82 : ... .. . ... : ... .. . ... ... : C#4 01 4 ... ... : A#3 01 4 P7C ... : G-1 01 8 P8A ...
ROW DB : ... .. . ... ... ... : ... .. . ... ... ... : F-2 00 . P86 : ... .. . ... : ... .. . ... ... : B-3 01 4 P7B ... : G#3 01 4 P79 ... : ... .. . P6A ...
ROW DC : D#2 00 C ... ... ... : E-3 00 F P80 ... ... : E-2 00 . P8C : ... .. 9 ... : ... .. . ... ... : G#3 01 4 P86 ... : F#3 01 4 P7A ... : F#1 01 8 P97 ...
ROW DD : ... .. B ... ... ... : ... .. E ... ... ... : D#2 00 . P94 : ... .. . ... : ... .. . ... ... : F#3 01 4 P87 ... : E-3 01 4 P7F ... : ... .. . P77 ...
ROW DE : ... .. A ... ... ... : ... .. D ... ... ... : ... .. . P74 : ... .. . ... : ... .. . ... ... : F-3 01 4 P79 ... : D-3 01 4 P89 ... : F-1 01 8 PA9 ...
ROW DF : ... .. 8 ... ... ... : ... .. 0 ... ... ... : D-2 00 . P7F : ... .. 8 ... : ... .. . ... ... : D#3 01 4 P81 ... : C#3 01 4 P80 ... : ... .. . P89 ...
ROW E0 : ... .. . ... ... ... : ... .. . ... ... ... : C#2 00 . P8C : ... .. . ... : ... .. . ... ... : D-3 01 4 P76 ... : C-3 01 4 P78 ... : ... .. . P69 ...
ROW E1 : ... .. . ... ... ... : ... .. . ... ... ... : ... .. . P6C : ... .. . ... : ... .. . ... ... : C-3 01 4 P85 ... : A#2 01 4 P8C ... : E-1 01 8 PA0 ...
ROW E2 : D-2 00 C ... ... ... : E-3 00 F P80 ... ... : G-5 00 . P80 : ... .. 7 ... : ... .. . ... ... : G#4 01 8 P80 ... : D#4 01 8 P80 ... : G#2 01 F P80 ...
ROW E3 : ... .. B ... ... ... : ... .. E ... ... ... : A-4 00 . ... : ... .. . ... : ... .. . ... ... : ... .. 7 ... ... : ... .. 7 ... ... : ... .. D ... ...
ROW E4 : ... .. A ... ... ... : ... .. D ... ... ... : D-4 00 . ... : ... .. . ... : ... .. . ... ... : ... .. 6 ... ... : ... .. 6 ... ... : ... .. 8 ... ...
ROW E5 : ... .. 8 ... ... ... : ... .. A ... ... ... : C#4 00 . ... : ... .. 6 ... : ... .. . ... ... : ... .. 5 ... ... : ... .. 5 ... ... : ... .. . ... ...
ROW E6 : ... .. 1 ... ... ... : ... .. . ... ... ... : G#3 00 . ... : ... .. . ... : ... .. . ... ... : ... .. . ... ... : ... .. . ... ... : ... .. . ... ...
ROW E7 : ... .. . ... ... ... : ... .. . ... ... ... : --- .. . ... : ... .. . ... : ... .. . ... ... : ... .. 4 ... ... : ... .. 4 ... ... : --- .. . P7F ...
ROW E8 : D#2 00 C ... ... ... : ... .. . ... ... ... : F#3 00 . ... : ... .. 5 ... : ... .. . ... ... : ... .. . ... ... : ... .. . ... ... : F#2 01 F P80 ...
ROW E9 : ... .. B ... ... ... : ... .. . ... ... ... : ... .. . ... : ... .. . ... : ... .. . ... ... : ... .. . ... ... : ... .. . ... ... : ... .. D ... ...
ROW EA : ... .. A ... ... ... : ... .. . ... ... ... : ... .. . ... : ... .. . ... : ... .. . ... ... : ... .. . ... ... : ... .. . ... ... : ... .. 8 ... ...
ROW EB : ... .. 8 ... ... ... : ... .. . ... ... ... : ... .. . ... : ... .. 4 ... : ... .. . ... ... : E-4 01 4 P83 ... : C-4 01 4 P82 ... : ... .. . ... ...
ROW EC : ... .. . ... ... ... : ... .. . ... ... ... : ... .. . ... : ... .. . ... : ... .. . ... ... : C#4 01 4 ... ... : A#3 01 4 P7C ... : ... .. . ... ...
ROW ED : ... .. . ... ... ... : ... .. . ... ... ... : --- .. . ... : ... .. . ... : ... .. . ... ... : B-3 01 4 P7B ... : G#3 01 4 P79 ... : --- .. . P84 ...
ROW EE : B-1 00 C ... ... ... : ... .. . ... ... ... : G#3 00 . ... : ... .. 3 ... : ... .. . ... ... : G#3 01 4 P86 ... : F#3 01 4 P7A ... : G#2 01 F P80 ...
ROW EF : ... .. B ... ... ... : ... .. . ... ... ... : ... .. . ... : ... .. . ... : ... .. . ... ... : F#3 01 4 P87 ... : E-3 01 4 P7F ... : ... .. D ... ...
ROW F0 : ... .. A ... ... ... : ... .. . ... ... ... : ... .. . ... : ... .. . ... : ... .. . ... ... : F-3 01 4 P79 ... : D-3 01 4 P89 ... : ... .. 8 ... ...
ROW F1 : ... .. 8 ... ... ... : F-3 00 A P77 ... ... : --- .. . ... : ... .. 2 ... : ... .. . ... ... : D#3 01 4 P81 ... : C#3 01 4 P80 ... : --- .. . P7F ...
ROW F2 : ... .. 1 ... ... ... : ... .. . P7D ... ... : ... .. . ... : ... .. . ... : ... .. . ... ... : D-3 01 4 P76 ... : C-3 01 4 P78 ... : ... .. . ... ...
ROW F3 : ... .. . ... ... ... : ... .. . P7B ... ... : ... .. . ... : ... .. . ... : ... .. . ... ... : C-3 01 4 P85 ... : A#2 01 4 P8C ... : ... .. . ... ...
ROW F4 : G-2 00 C ... ... ... : E-3 00 A P84 ... ... : D#6 00 . ... : 7-# 00 F ... : ... .. . ... ... : G#4 01 8 P80 ... : D#4 01 8 P80 ... : E-3 01 F P80 ...
ROW F5 : ... .. B ... ... ... : ... .. . P7C ... ... : F-5 00 . ... : ... .. C ... : ... .. . ... ... : ... .. 7 ... ... : ... .. 7 ... ... : ... .. D ... ...
ROW F6 : ... .. A ... ... ... : D#3 00 A P87 ... ... : A#4 00 . ... : ... .. 6 ... : ... .. . ... ... : ... .. 6 ... ... : ... .. 6 ... ... : ... .. 8 ... ...
ROW F7 : ... .. 8 ... ... ... : ... .. . P85 ... ... : A-4 00 . ... : ... .. 3 ... : ... .. . ... ... : ... .. 5 ... ... : ... .. 5 ... ... : ... .. . ... ...
ROW F8 : ... .. . ... ... ... : E-3 00 A P76 ... ... : E-4 00 . ... : ... .. 2 ... : ... .. . ... ... : ... .. . ... ... : ... .. . ... ... : ... .. . ... ...
ROW F9 : ... .. . ... ... ... : ... .. . P80 ... ... : ... .. . ... : ... .. 0 ... : ... .. . ... ... : ... .. 4 ... ... : ... .. 4 ... ... : ... .. . ... ...
ROW FA : ... .. C ... ... ... : ... .. . P89 ... ... : ... .. . ... : 1-# 00 8 ... : ... .. . ... ... : ... .. . ... ... : ... .. . ... ... : ... .. . ... ...
ROW FB : ... .. B ... ... ... : F-3 00 A P7D ... ... : ... .. . ... : ... .. 6 ... : ... .. . ... ... : ... .. . ... ... : ... .. . ... ... : ... .. . ... ...
ROW FC : ... .. A ... ... ... : ... .. . P7B ... ... : ... .. . ... : ... .. 3 ... : ... .. . ... ... : ... .. . ... ... : ... .. . ... ... : ... .. . ... ...
ROW FD : ... .. 8 ... ... ... : E-3 00 A P86 ... ... : ... .. . ... : ... .. 1 ... : ... .. . ... ... : E-4 01 4 P83 ... : C-4 01 4 P82 ... : ... .. . ... ...
ROW FE : ... .. 1 ... ... ... : ... .. . P7D ... ... : ... .. . ... : ... .. . ... : ... .. . ... ... : C#4 01 4 ... ... : A#3 01 4 P7C ... : ... .. . ... ...
ROW FF : ... .. . ... ... ... : D#3 00 A P88 ... ... : ... .. . ... : ... .. 0 ... : ... .. . ... ... : B-3 01 4 P7B ... : G#3 01 4 P79 ... : ... .. . ... ...

PATTERN 15
ROW 00 : G#1 00 C ... ... ... : ... .. . P85 ... ... : D#4 00 . ... : 7-# 00 F ... : ... .. . ... ... : G#3 01 4 P86 ... : F#3 01 4 P7A ... : D#3 01 F ... ...
ROW 01 : ... .. B ... ... ... : ... .. . P89 ... ... : ... .. . ... : ... .. C ... : ... .. . ... ... : F#3 01 4 P87 ... : E-3 01 4 P7F ... : ... .. D ... ...
ROW 02 : ... .. A ... ... ... : E-3 00 A P7F ... ... : ... .. . ... : ... .. 6 ... : ... .. . ... ... : F-3 01 4 P79 ... : D-3 01 4 P89 ... : ... .. 8 ... ...
ROW 03 : ... .. 8 ... ... ... : ... .. . P88 ... ... : ... .. . ... : ... .. 3 ... : ... .. . ... ... : D#3 01 4 P81 ... : C#3 01 4 P80 ... : ... .. . ... ...
ROW 04 : ... .. 1 ... ... ... : F-3 00 A P7C ... ... : ... .. . ... : ... .. 2 ... : ... .. . ... ... : D-3 01 4 P76 ... : C-3 01 4 P78 ... : ... .. . ... ...
ROW 05 : ... .. . ... ... ... : ... .. . ... ... ... : ... .. . ... : ... .. 0 ... : ... .. . ... ... : C-3 01 4 P85 ... : A#2 01 4 P8C ... : ... .. . ... ...
ROW 06 : F#2 00 C ... ... ... : D#3 00 F P80 ... ... : ... .. . ... : 1-# 00 8 ... : ... .. . ... ... : G#4 01 8 P80 ... : D#4 01 8 P80 ... : ... .. . ... ...
ROW 07 : ... .. B ... ... ... : ... .. E ... ... ... : ... .. . ... : ... .. 6 ... : ... .. . ... ... : ... .. 7 ... ... : ... .. 7 ... ... : ... .. . ... ...
ROW 08 : ... .. A ... ... ... : ... .. D ... ... ... : ... .. . ... : ... .. 3 ... : ... .. . ... ... : ... .. 6 ... ... : ... .. 6 ... ... : ... .. . ... ...
ROW 09 : ... .. 8 ... ... ... : ... .. A ... ... ... : ... .. . ... : ... .. 1 ... : ... .. . ... ... : ... .. 5 ... ... : ... .. 5 ... ... : ... .. . ... ...
ROW 0A : ... .. . ... ... ... : ... .. 2 ... ... ... : ... .. . ... : ... .. . ... : ... .. . ... ... : ... .. . ... ... : ... .. . ... ... : ... .. . ... ...
ROW 0B : ... .. . ... ... ... : ... .. . ... ... ... : --- .. . ... : ... .. 0 ... : ... .. . ... ... : ... .. 4 ... ... : ... .. 4 ... ... : --- .. . P7F ...
ROW 0C : ... .. C ... ... ... : ... .. F ... ... ... : G#3 00 . ... : 7-# 00 F ... : ... .. . ... ... : ... .. . ... ... : ... .. . ... ... : G#2 01 F P80 ...
ROW 0D : ... .. B ... ... ... : ... .. E ... ... ... : ... .. . ... : ... .. C ... : ... .. . ... ... : ... .. . ... ... : ... .. . ... ... : ... .. D ... ...
ROW 0E : ... .. A ... ... ... : ... .. D ... ... ... : ... .. . ... : ... .. 6 ... : ... .. . ... ... : ... .. . ... ... : ... .. . ... ... : ... .. 8 ... ...
ROW 0F : ... .. 8 ... ... ... : ... .. A ... ... ... : ... .. . ... : ... .. 3 ... : ... .. . ... ... : E-4 01 4 P83 ... : C-4 01 4 P82 ... : ... .. . ... ...
ROW 10 : ... .. 1 ... ... ... : ... .. 2 ... ... ... : ... .. . ... : ... .. 2 ... : ... .. . ... ... : C#4 01 4 ... ... : A#3 01 4 P7C ... : ... .. . ... ...
ROW 11 : ... .. . ... ... ... : ... .. . ... ... ... : ... .. . ... : ... .. 0 ... : ... .. . ... ... : B-3 01 4 P7B ... : G#3 01 4 P79 ... : ... .. . ... ...
ROW 12 : G#1 00 C ... ... ... : D#4 00 F ... ... ... : ... .. . ... : 1-# 00 8 ... : ... .. . ... ... : G#3 01 4 P86 ... : F#3 01 4 P7A ... : ... .. . ... ...
ROW 13 : ... .. B ... ... ... : ... .. E ... ... ... : ... .. . ... : ... .. 6 ... : ... .. . ... ... : F#3 01 4 P87 ... : E-3 01 4 P7F ... : ... .. . ... ...
ROW 14 : ... .. A ... ... ... : ... .. D ... ... ... : ... .. . ... : ... .. 3 ... : ... .. . ... ... : F-3 01 4 P79 ... : D-3 01 4 P89 ... : ... .. . ... ...
ROW 15 : ... .. 8 ... ... ... : ... .. A ... ... ... : ... .. . ... : ... .. 1 ... : ... .. . ... ... : D#3 01 4 P81 ... : C#3 01 4 P80 ... : ... .. . ... ...
ROW 16 : ... .. 1 ... ... ... : ... .. . ... ... ... : ... .. . ... : ... .. . ... : ... .. . ... ... : D-3 01 4 P76 ... : C-3 01 4 P78 ... : ... .. . ... ...
ROW 17 : ... .. . ... ... ... : ... .. . ... ... ... : --- .. . ... : ... .. 0 ... : ... .. . ... ... : C-3 01 4 P85 ... : A#2 01 4 P8C ... : --- .. . P7F ...
ROW 18 : F-2 00 C ... ... ... : ... .. F ... ... ... : G-3 00 . ... : ... .. F ... : ... .. . ... ... : G-4 01 8 P80 ... : D-4 01 8 P80 ... : G#0 01 F P80 ...
ROW 19 : ... .. B ... ... ... : ... .. E ... ... ... : A-2 00 . ... : ... .. C ... : ... .. . ... ... : ... .. 7 ... ... : ... .. 7 ... ... : ... .. D ... ...
ROW 1A : ... .. A ... ... ... : ... .. D ... ... ... : D-2 00 . ... : ... .. 6 ... : ... .. . ... ... : ... .. 6 ... ... : ... .. 6 ... ... : ... .. 8 ... ...
ROW 1B : ... .. 8 ... ... ... : ... .. A ... ... ... : C#2 00 . ... : ... .. 3 ... : ... .. . ... ... : ... .. 5 ... ... : ... .. 5 ... ... : ... .. . ... ...
ROW 1C : ... .. . ... ... ... : ... .. 2 ... ... ... : G#1 00 . ... : ... .. 2 ... : ... .. . ... ... : ... .. . ... ... : ... .. . ... ... : ... .. . ... ...
ROW 1D : ... .. . ... ... ... : ... .. . ... ... ... : ... .. . ... : ... .. 0 ... : ... .. . ... ... : ... .. 4 ... ... : ... .. 4 ... ... : ... .. . ... ...
ROW 1E : ... .. C ... ... ... : D-4 00 F ... ... ... : ... .. . ... : C-# 00 8 ... : ... .. . ... ... : ... .. . ... ... : ... .. . ... ... : ... .. . ... ...
ROW 1F : ... .. B ... ... ... : ... .. E ... ... ... : ... .. . ... : ... .. 6 ... : ... .. . ... ... : ... .. . ... ... : ... .. . ... ... : ... .. . ... ...
ROW 20 : ... .. A ... ... ... : ... .. D ... ... ... : ... .. . ... : ... .. 3 ... : ... .. . ... ... : ... .. . ... ... : ... .. . ... ... : ... .. . ... ...
ROW 21 : ... .. 8 ... ... ... : ... .. A ... ... ... : G-1 00 . PA0 : ... .. 1 ... : ... .. . ... ... : D#4 01 4 P85 ... : B-3 01 4 P84 ... : ... .. . P60 ...
ROW 22 : ... .. 1 ... ... ... : ... .. 2 ... ... ... : ... .. . P80 : ... .. . ... : ... .. . ... ... : C#4 01 4 P7B ... : A-3 01 4 P80 ... : ... .. . P40 ...
ROW 23 : ... .. . ... ... ... : ... .. . ... ... ... : ... .. . P60 : ... .. 0 ... : ... .. . ... ... : A#3 01 4 P81 ... : G-3 01 4 P7F ... : G-0 01 8 PB2 ...
ROW 24 : B-1 00 C ... ... ... : ... .. F ... ... ... : F#1 00 . P84 : ... .. 8 ... : ... .. . ... ... : G#3 01 4 P7E ... : F-3 01 4 P82 ... : ... .. . P92 ...
ROW 25 : ... .. B ... ... ... : ... .. E ... ... ... : ... .. . P64 : ... .. 6 ... : ... .. . ... ... : F#3 01 4 P7F ... : D#3 01 4 P8A ... : ... .. . P72 ...
ROW 26 : ... .. A ... ... ... : ... .. D ... ... ... : F-1 00 . P8C : ... .. 3 ... : ... .. . ... ... : E-3 01 4 P84 ... : D-3 01 4 P7F ... : ... .. . P52 ...
ROW 27 : ... .. 8 ... ... ... : ... .. A ... ... ... : ... .. . P6C : ... .. 1 ... : ... .. . ... ... : D#3 01 4 P79 ... : C#3 01 4 P76 ... : F#0 01 8 PCD ...
ROW 28 : ... .. 1 ... ... ... : ... .. 2 ... ... ... : E-1 00 . P98 : ... .. . ... : ... .. . ... ... : C#3 01 4 P85 ... : B-2 01 4 P87 ... : ... .. . PAD ...
ROW 29 : ... .. . ... ... ... : ... .. . ... ... ... : ... .. . P78 : ... .. 0 ... : ... .. . ... ... : C-3 01 4 P7D ... : A#2 01 4 P82 ... : ... .. . P8D ...
ROW 2A : ... .. C ... ... ... : ... .. F ... ... ... : G#2 00 . P80 : 1-# 00 F ... : ... .. . ... ... : G-4 01 8 P80 ... : D-4 01 8 P80 ... : G#1 01 F P80 ...
ROW 2B : ... .. B ... ... ... : ... .. E ... ... ... : ... .. . ... : ... .. C ... : ... .. . ... ... : ... .. 7 ... ... : ... .. 7 ... ... : ... .. D ... ...
ROW 2C : ... .. A ... ... ... : ... .. D ... ... ... : ... .. . ... : ... .. 6 ... : ... .. . ... ... : ... .. 6 ... ... : ... .. 6 ... ... : ... .. 8 ... ...
ROW 2D : ... .. 8 ... ... ... : ... .. A ... ... ... : ... .. . ... : ... .. 3 ... : ... .. . ... ... : ... .. 5 ... ... : ... .. 5 ... ... : ... .. . ... ...
ROW 2E : ... .. 1 ... ... ... : ... .. . ... ... ... : ... .. . ... : ... .. 2 ... : ... .. . ... ... : ... .. . ... ... : ... .. . ... ... : ... .. . ... ...
ROW 2F : ... .. . ... ... ... : ... .. . ... ... ... : ... .. . ... : ... .. 0 ... : ... .. . ... ... : ... .. 4 ... ... : ... .. 4 ... ... : ... .. . ... ...
ROW 30 : D-2 00 C ... ... ... : ... .. . ... ... ... : F#2 00 . ... : C-# 00 8 ... : ... .. . ... ... : ... .. . ... ... : ... .. . ... ... : F#1 01 F ... ...
ROW 31 : ... .. B ... ... ... : ... .. . ... ... ... : ... .. . ... : ... .. 6 ... : ... .. . ... ... : ... .. . ... ... : ... .. . ... ... : ... .. D ... ...
ROW 32 : ... .. A ... ... ... : ... .. . ... ... ... : ... .. . ... : ... .. 3 ... : ... .. . ... ... : ... .. . ... ... : ... .. . ... ... : ... .. 8 ... ...
ROW 33 : ... .. 8 ... ... ... : ... .. . ... ... ... : ... .. . ... : ... .. 1 ... : ... .. . ... ... : D#4 01 4 P85 ... : B-3 01 4 P84 ... : ... .. . ... ...
ROW 34 : ... .. 1 ... ... ... : ... .. . ... ... ... : ... .. . ... : ... .. . ... : ... .. . ... ... : C#4 01 4 P7B ... : A-3 01 4 P80 ... : ... .. . ... ...
ROW 35 : ... .. . ... ... ... : ... .. . ... ... ... : --- .. . ... : ... .. 0 ... : ... .. . ... ... : A#3 01 4 P81 ... : G-3 01 4 P7F ... : --- .. . P81 ...
ROW 36 : ... .. C ... ... ... : ... .. . ... ... ... : G#2 00 . ... : ... .. 8 ... : ... .. . ... ... : G#3 01 4 P7E ... : F-3 01 4 P82 ... : G#1 01 F P80 ...
ROW 37 : ... .. B ... ... ... : ... .. . ... ... ... : ... .. . ... : ... .. 6 ... : ... .. . ... ... : F#3 01 4 P7F ... : D#3 01 4 P8A ... : ... .. D ... ...
ROW 38 : ... .. A ... ... ... : ... .. . ... ... ... : ... .. . ... : ... .. 3 ... : ... .. . ... ... : E-3 01 4 P84 ... : D-3 01 4 P7F ... : ... .. 8 ... ...
ROW 39 : ... .. 8 ... ... ... : ... .. . ... ... ... : ... .. . ... : ... .. 1 ... : ... .. . ... ... : D#3 01 4 P79 ... : C#3 01 4 P76 ... : ... .. . ... ...
ROW 3A : ... .. 1 ... ... ... : ... .. . ... ... ... : ... .. . ... : ... .. . ... : ... .. . ... ... : C#3 01 4 P85 ... : B-2 01 4 P87 ... : ... .. . ... ...
ROW 3B : ... .. . ... ... ... : ... .. . ... ... ... : ... .. . ... : ... .. 0 ... : ... .. . ... ... : C-3 01 4 P7D ... : A#2 01 4 P82 ... : ... .. . ... ...
ROW 3C : C#2 00 C ... ... ... : ... .. . ... ... ... : G-5 00 . ... : 7-# 00 F ... : ... .. . ... ... : G-4 01 8 P80 ... : D-4 01 8 P80 ... : G#2 01 F ... ...
ROW 3D : ... .. B ... ... ... : ... .. . ... ... ... : A-4 00 . ... : ... .. C ... : ... .. . ... ... : ... .. 7 ... ... : ... .. 7 ... ... : ... .. D ... ...
ROW 3E : ... .. A ... ... ... : ... .. . ... ... ... : D-4 00 . ... : ... .. 6 ... : ... .. . ... ... : ... .. 6 ... ... : ... .. 6 ... ... : ... .. 8 ... ...
ROW 3F : ... .. 8 ... ... ... : ... .. . ... ... ... : C#4 00 . ... : ... .. 3 ... : ... .. . ... ... : ... .. 5 ... ... : ... .. 5 ... ... : ... .. . ... ...
ROW 40 : ... .. . ... ... ... : ... .. . ... ... ... : G#3 00 . ... : ... .. 2 ... : ... .. . ... ... : ... .. . ... ... : ... .. . ... ... : ... .. . ... ...
ROW 41 : ... .. . ... ... ... : ... .. . ... ... ... : --- .. . ... : ... .. 0 ... : ... .. . ... ... : ... .. 4 ... ... : ... .. 4 ... ... : --- .. . P7F ...
ROW 42 : ... .. C ... ... ... : D#4 00 A ... ... ... : F#3 00 . ... : ... .. 8 ... : ... .. . ... ... : ... .. . ... ... : ... .. . ... ... : F#2 01 F P80 ...
ROW 43 : ... .. B ... ... ... : E-4 00 A P7C ... ... : ... .. . ... : ... .. 6 ... : ... .. . ... ... : ... .. . ... ... : ... .. . ... ... : ... .. D ... ...
ROW 44 : ... .. A ... ... ... : D#4 00 A P84 ... ... : ... .. . ... : ... .. 3 ... : ... .. . ... ... : ... .. . ... ... : ... .. . ... ... : ... .. 8 ... ...
ROW 45 : ... .. 8 ... ... ... : D-4 00 A ... ... ... : ... .. . ... : ... .. 1 ... : ... .. . ... ... : ... .. . ... ... : ... .. . ... ... : ... .. . ... ...
ROW 46 : ... .. 1 ... ... ... : ... .. . P7C ... ... : ... .. . ... : ... .. . ... : ... .. . ... ... : ... .. . ... ... : ... .. . ... ... : ... .. . ... ...
ROW 47 : ... .. . ... ... ... : C#4 00 A P7E ... ... : --- .. . ... : ... .. 0 ... : ... .. . ... ... : ... .. . ... ... : ... .. . ... ... : --- .. . P84 ...
ROW 48 : G#1 00 C ... ... ... : ... .. . P7C ... ... : B-3 00 . ... : 4-# 00 F ... : ... .. . ... ... : ... .. 8 ... ... : ... .. 8 ... ... : B-2 01 F P80 ...
ROW 49 : ... .. B ... ... ... : ... .. . P82 ... ... : ... .. . ... : ... .. C ... : ... .. . ... ... : ... .. 7 ... ... : ... .. 7 ... ... : ... .. D ... ...
ROW 4A : ... .. A ... ... ... : D-4 00 A P80 ... ... : ... .. . ... : ... .. 6 ... : ... .. . ... ... : ... .. 6 ... ... : ... .. 6 ... ... : ... .. 8 ... ...
ROW 4B : ... .. 8 ... ... ... : D#4 00 A P7F ... ... : ... .. . ... : ... .. 3 ... : ... .. . ... ... : ... .. 5 ... ... : ... .. 5 ... ... : ... .. . ... ...
ROW 4C : ... .. 1 ... ... ... : E-4 00 A P7C ... ... : ... .. . ... : ... .. 2 ... : ... .. . ... ... : ... .. . ... ... : ... .. . ... ... : ... .. . ... ...
ROW 4D : ... .. . ... ... ... : D#4 00 A P84 ... ... : ... .. . ... : ... .. 0 ... : ... .. . ... ... : ... .. 4 ... ... : ... .. 4 ... ... : ... .. . ... ...
ROW 4E : ... .. C ... ... ... : ... .. . P7C ... ... : A-3 00 . ... : 9-# 00 8 ... : ... .. . ... ... : ... .. . ... ... : ... .. . ... ... : A-2 01 F ... ...
ROW 4F : ... .. B ... ... ... : D-4 00 A P7D ... ... : ... .. . ... : ... .. 6 ... : ... .. . ... ... : ... .. . ... ... : ... .. . ... ... : ... .. D ... ...
ROW 50 : ... .. A ... ... ... : C#4 00 A P7F ... ... : ... .. . ... : ... .. 3 ... : ... .. . ... ... : ... .. . ... ... : ... .. . ... ... : ... .. 8 ... ...
ROW 51 : ... .. 8 ... ... ... : ... .. . P7C ... ... : ... .. . ... : ... .. 1 ... : ... .. . ... ... : ... .. . ... ... : ... .. . ... ... : ... .. . ... ...
ROW 52 : ... .. . ... ... ... : ... .. 2 P80 ... ... : ... .. . ... : ... .. . ... : ... .. . ... ... : ... .. . ... ... : ... .. . ... ... : ... .. . ... ...
ROW 53 : ... .. . ... ... ... : D-4 00 2 P7F ... ... : --- .. . ... : ... .. 0 ... : ... .. . ... ... : ... .. . ... ... : ... .. . ... ... : --- .. . ... ...
ROW 54 : F#1 00 C ... ... ... : D#4 00 2 P7E ... ... : G#3 00 . ... : 7-# 00 F ... : ... .. . ... ... : ... .. 8 ... ... : ... .. 8 ... ... : G#2 01 F ... ...
ROW 55 : ... .. B ... ... ... : ... .. 1 P85 ... ... : ... .. . ... : ... .. C ... : ... .. . ... ... : ... .. 7 ... ... : ... .. 7 ... ... : ... .. D ... ...
ROW 56 : ... .. A ... ... ... : ... .. . ... ... ... : ... .. . ... : ... .. 6 ... : ... .. . ... ... : ... .. 6 ... ... : ... .. 6 ... ... : ... .. 8 ... ...
ROW 57 : ... .. 8 ... ... ... : ... .. . P7E ... ... : ... .. . ... : ... .. 3 ... : ... .. . ... ... : ... .. 5 ... ... : ... .. 5 ... ... : ... .. . ... ...
ROW 58 : ... .. 1 ... ... ... : ... .. 0 ... ... ... : ... .. . ... : ... .. 2 ... : ... .. . ... ... : ... .. . ... ... : ... .. . ... ... : ... .. . ... ...
ROW 59 : ... .. . ... ... ... : ... .. . ... ... ... : --- .. . ... : ... .. 0 ... : ... .. . ... ... : ... .. 4 ... ... : ... .. 4 ... ... : --- .. . P7F ...
ROW 5A : ... .. C ... ... ... : ... .. . ... ... ... : G#2 00 . ... : 5-# 00 8 ... : ... .. . ... ... : ... .. . ... ... : ... .. . ... ... : G#1 01 F P80 ...
ROW 5B : ... .. B ... ... ... : ... .. . ... ... ... : ... .. . ... : ... .. 6 ... : ... .. . ... ... : ... .. . ... ... : ... .. . ... ... : ... .. D ... ...
ROW 5C : ... .. A ... ... ... : ... .. . ... ... ... : ... .. . ... : ... .. 3 ... : ... .. . ... ... : ... .. . ... ... : ... .. . ... ... : ... .. 8 ... ...
ROW 5D : ... .. 8 ... ... ... : ... .. . ... ... ... : ... .. . ... : ... .. 1 ... : ... .. . ... ... : ... .. . ... ... : ... .. . ... ... : ... .. . ... ...
ROW 5E : ... .. 1 ... ... ... : ... .. . ... ... ... : ... .. . ... : ... .. . ... : ... .. . ... ... : ... .. . ... ... : ... .. . ... ... : ... .. . ... ...
ROW 5F : ... .. . ... ... ... : ... .. . ... ... ... : --- .. . ... : ... .. 0 ... : ... .. . ... ... : ... .. . ... ... : ... .. . ... ... : --- .. . P7E ...
ROW 60 : G#1 00 C ... ... ... : ... .. . ... ... ... : G-4 00 . ... : 1-# 00 F ... : ... .. . ... ... : F#4 01 8 ... ... : C#4 01 8 ... ... : G#1 01 F P80 ...
ROW 61 : ... .. B ... ... ... : ... .. . ... ... ... : A-3 00 . ... : ... .. C ... : ... .. . ... ... : ... .. 7 ... ... : ... .. 7 ... ... : ... .. D ... ...
ROW 62 : ... .. A ... ... ... : ... .. . ... ... ... : D-3 00 . ... : ... .. 6 ... : ... .. . ... ... : ... .. 6 ... ... : ... .. 6 ... ... : ... .. 8 ... ...
ROW 63 : ... .. 8 ... ... ... : ... .. . ... ... ... : C#3 00 . ... : ... .. 3 ... : ... .. . ... ... : ... .. 5 ... ... : ... .. 5 ... ... : ... .. . ... ...
ROW 64 : ... .. . ... ... ... : ... .. . ... ... ... : G#2 00 . ... : ... .. 2 ... : ... .. . ... ... : ... .. . ... ... : ... .. . ... ... : ... .. . ... ...
ROW 65 : ... .. . ... ... ... : ... .. . ... ... ... : ... .. . ... : ... .. 0 ... : ... .. . ... ... : ... .. 4 ... ... : ... .. 4 ... ... : ... .. . ... ...
ROW 66 : ... .. C ... ... ... : G#3 00 F P80 ... ... : ... .. . ... : C-# 00 8 ... : ... .. . ... ... : ... .. . ... ... : ... .. . ... ... : ... .. . ... ...
ROW 67 : ... .. B ... ... ... : ... .. E ... ... ... : ... .. . ... : ... .. 6 ... : ... .. . ... ... : ... .. . ... ... : ... .. . ... ... : ... .. . ... ...
ROW 68 : ... .. A ... ... ... : ... .. D ... ... ... : ... .. . ... : ... .. 3 ... : ... .. . ... ... : ... .. . ... ... : ... .. . ... ... : ... .. . ... ...
ROW 69 : ... .. 8 ... ... ... : ... .. A ... ... ... : G-2 00 . ... : ... .. 1 ... : ... .. . ... ... : D#4 01 4 P7D ... : A#3 01 4 P86 ... : ... .. . P60 ...
ROW 6A : ... .. 1 ... ... ... : ... .. 2 ... ... ... : F#2 00 . P82 : ... .. . ... : ... .. . ... ... : C-4 01 4 P7F ... : G#3 01 4 P83 ... : G-1 01 8 P8A ...
ROW 6B : ... .. . ... ... ... : ... .. . ... ... ... : F-2 00 . P86 : ... .. 0 ... : ... .. . ... ... : A-3 01 4 P87 ... : F#3 01 4 P84 ... : ... .. . P6A ...
ROW 6C : D#2 00 C ... ... ... : ... .. F ... ... ... : E-2 00 . P8C : ... .. 8 ... : ... .. . ... ... : G-3 01 4 P86 ... : E-3 01 4 P89 ... : F#1 01 8 P97 ...
ROW 6D : ... .. B ... ... ... : ... .. E ... ... ... : D#2 00 . P94 : ... .. 6 ... : ... .. . ... ... : F-3 01 4 P89 ... : D#3 01 4 P7E ... : ... .. . P77 ...
ROW 6E : ... .. A ... ... ... : ... .. D ... ... ... : ... .. . P74 : ... .. 3 ... : ... .. . ... ... : E-3 01 4 P7C ... : C#3 01 4 P8A ... : F-1 01 8 PA9 ...
ROW 6F : ... .. 8 ... ... ... : ... .. A ... ... ... : D-2 00 . P7F : ... .. 1 ... : ... .. . ... ... : D-3 01 4 P86 ... : C-3 01 4 P82 ... : ... .. . P89 ...
ROW 70 : ... .. 1 ... ... ... : ... .. 2 ... ... ... : C#2 00 . P8C : ... .. . ... : ... .. . ... ... : C#3 01 4 P7D ... : B-2 01 4 P7B ... : ... .. . P69 ...
ROW 71 : ... .. . ... ... ... : ... .. . ... ... ... : ... .. . P6C : ... .. 0 ... : ... .. . ... ... : C-3 01 4 P75 ... : A#2 01 4 P76 ... : E-1 01 8 PA0 ...
ROW 72 : D-2 00 C ... ... ... : ... .. F ... ... ... : G-5 00 . P80 : 1-# 00 F ... : ... .. . ... ... : F#4 01 8 P80 ... : C#4 01 8 P80 ... : G#2 01 F P80 ...
ROW 73 : ... .. B ... ... ... : ... .. E ... ... ... : A-4 00 . ... : ... .. C ... : ... .. . ... ... : ... .. 7 ... ... : ... .. 7 ... ... : ... .. D ... ...
ROW 74 : ... .. A ... ... ... : ... .. D ... ... ... : D-4 00 . ... : ... .. 6 ... : ... .. . ... ... : ... .. 6 ... ... : ... .. 6 ... ... : ... .. 8 ... ...
ROW 75 : ... .. 8 ... ... ... : ... .. A ... ... ... : C#4 00 . ... : ... .. 3 ... : ... .. . ... ... : ... .. 5 ... ... : ... .. 5 ... ... : ... .. . ... ...
ROW 76 : ... .. . ... ... ... : ... .. . ... ... ... : G#3 00 . ... : ... .. 2 ... : ... .. . ... ... : ... .. . ... ... : ... .. . ... ... : ... .. . ... ...
ROW 77 : ... .. . ... ... ... : ... .. . ... ... ... : --- .. . ... : ... .. 0 ... : ... .. . ... ... : ... .. 4 ... ... : ... .. 4 ... ... : --- .. . P7F ...
ROW 78 : D#2 00 C ... ... ... : ... .. F ... ... ... : F#3 00 . ... : C-# 00 8 ... : ... .. . ... ... : ... .. . ... ... : ... .. . ... ... : F#2 01 F P80 ...
ROW 79 : ... .. B ... ... ... : ... .. E ... ... ... : ... .. . ... : ... .. 6 ... : ... .. . ... ... : ... .. . ... ... : ... .. . ... ... : ... .. D ... ...
ROW 7A : ... .. A ... ... ... : ... .. D ... ... ... : ... .. . ... : ... .. 3 ... : ... .. . ... ... : ... .. . ... ... : ... .. . ... ... : ... .. 8 ... ...
ROW 7B : ... .. 8 ... ... ... : ... .. A ... ... ... : ... .. . ... : ... .. 1 ... : ... .. . ... ... : D#4 01 4 P7D ... : A#3 01 4 P86 ... : ... .. . ... ...
ROW 7C : ... .. 1 ... ... ... : ... .. 2 ... ... ... : ... .. . ... : ... .. . ... : ... .. . ... ... : C-4 01 4 P7F ... : G#3 01 4 P83 ... : ... .. . ... ...
ROW 7D : ... .. . ... ... ... : ... .. . ... ... ... : --- .. . ... : ... .. 0 ... : ... .. . ... ... : A-3 01 4 P87 ... : F#3 01 4 P84 ... : --- .. . P84 ...
ROW 7E : B-1 00 C ... ... ... : G#4 00 F ... ... ... : G#3 00 . ... : ... .. 8 ... : ... .. . ... ... : G-3 01 4 P86 ... : E-3 01 4 P89 ... : G#2 01 F P80 ...
ROW 7F : ... .. B ... ... ... : ... .. E ... ... ... : ... .. . ... : ... .. 6 ... : ... .. . ... ... : F-3 01 4 P89 ... : D#3 01 4 P7E ... : ... .. D ... ...
ROW 80 : ... .. A ... ... ... : ... .. D ... ... ... : ... .. . ... : ... .. 3 ... : ... .. . ... ... : E-3 01 4 P7C ... : C#3 01 4 P8A ... : ... .. 8 ... ...
ROW 81 : ... .. 8 ... ... ... : ... .. A ... ... ... : --- .. . ... : ... .. 1 ... : ... .. . ... ... : D-3 01 4 P86 ... : C-3 01 4 P82 ... : --- .. . P7F ...
ROW 82 : ... .. . ... ... ... : ... .. 2 ... ... ... : ... .. . ... : ... .. . ... : ... .. . ... ... : C#3 01 4 P7D ... : B-2 01 4 P7B ... : ... .. . ... ...
ROW 83 : ... .. . ... ... ... : ... .. . ... ... ... : ... .. . ... : ... .. 0 ... : ... .. . ... ... : C-3 01 4 P75 ... : A#2 01 4 P76 ... : ... .. . ... ...
ROW 84 : B-2 00 C ... ... ... : ... .. F ... ... ... : D-6 00 . ... : 7-# 00 F ... : ... .. . ... ... : F#4 01 8 P80 ... : C#4 01 8 P80 ... : D#3 01 F P80 ...
ROW 85 : ... .. B ... ... ... : ... .. E ... ... ... : E-5 00 . ... : ... .. C ... : ... .. . ... ... : ... .. 7 ... ... : ... .. 7 ... ... : ... .. D ... ...
ROW 86 : ... .. A ... ... ... : ... .. D ... ... ... : A-4 00 . ... : ... .. 6 ... : ... .. . ... ... : ... .. 6 ... ... : ... .. 6 ... ... : ... .. 8 ... ...
ROW 87 : ... .. 8 ... ... ... : ... .. A ... ... ... : G#4 00 . ... : ... .. 3 ... : ... .. . ... ... : ... .. 5 ... ... : ... .. 5 ... ... : ... .. . ... ...
ROW 88 : ... .. 1 ... ... ... : ... .. . ... ... ... : D#4 00 . ... : ... .. 2 ... : ... .. . ... ... : ... .. . ... ... : ... .. . ... ... : ... .. . ... ...
ROW 89 : ... .. . ... ... ... : ... .. . ... ... ... : ... .. . ... : ... .. 0 ... : ... .. . ... ... : ... .. 4 ... ... : ... .. 4 ... ... : ... .. . ... ...
ROW 8A : ... .. C ... ... ... : ... .. . ... ... ... : ... .. . ... : 1-# 00 8 ... : ... .. . ... ... : ... .. . ... ... : ... .. . ... ... : ... .. . ... ...
ROW 8B : ... .. B ... ... ... : ... .. . ... ... ... : ... .. . ... : ... .. 6 ... : ... .. . ... ... : ... .. . ... ... : ... .. . ... ... : ... .. . ... ...
ROW 8C : ... .. A ... ... ... : ... .. . ... ... ... : ... .. . ... : ... .. 3 ... : ... .. . ... ... : ... .. . ... ... : ... .. . ... ... : ... .. . ... ...
ROW 8D : ... .. 8 ... ... ... : ... .. . ... ... ... : ... .. . ... : ... .. 1 ... : ... .. . ... ... : D#4 01 4 P7D ... : A#3 01 4 P86 ... : ... .. . ... ...
ROW 8E : ... .. 1 ... ... ... : ... .. . ... ... ... : ... .. . ... : ... .. . ... : ... .. . ... ... : C-4 01 4 P7F ... : G#3 01 4 P83 ... : ... .. . ... ...
ROW 8F : ... .. . ... ... ... : ... .. . ... ... ... : ... .. . ... : ... .. 0 ... : ... .. . ... ... : A-3 01 4 P87 ... : F#3 01 4 P84 ... : ... .. . ... ...
ROW 90 : D-2 00 C ... ... ... : ... .. . ... ... ... : D-4 00 . ... : 7-# 00 F ... : ... .. . ... ... : G-3 01 4 P86 ... : E-3 01 4 P89 ... : D-3 01 F ... ...
ROW 91 : ... .. B ... ... ... : ... .. . ... ... ... : ... .. . ... : ... .. C ... : ... .. . ... ... : F-3 01 4 P89 ... : D#3 01 4 P7E ... : ... .. D ... ...
ROW 92 : ... .. A ... ... ... : ... .. . ... ... ... : ... .. . ... : ... .. 6 ... : ... .. . ... ... : E-3 01 4 P7C ... : C#3 01 4 P8A ... : ... .. 8 ... ...
ROW 93 : ... .. 8 ... ... ... : ... .. . P84 ... ... : ... .. . ... : ... .. 3 ... : ... .. . ... ... : D-3 01 4 P86 ... : C-3 01 4 P82 ... : ... .. . ... ...
ROW 94 : ... .. . ... ... ... : A-4 00 A P7E ... ... : ... .. . ... : ... .. 2 ... : ... .. . ... ... : C#3 01 4 P7D ... : B-2 01 4 P7B ... : ... .. . ... ...
ROW 95 : ... .. . ... ... ... : ... .. . P7D ... ... : ... .. . ... : ... .. 0 ... : ... .. . ... ... : C-3 01 4 P75 ... : A#2 01 4 P76 ... : ... .. . ... ...
ROW 96 : D-3 00 C ... ... ... : G#4 00 A P82 ... ... : ... .. . ... : 1-# 00 8 ... : ... .. . ... ... : F#4 01 8 P80 ... : C#4 01 8 P80 ... : ... .. . ... ...
ROW 97 : ... .. B ... ... ... : ... .. . P7E ... ... : ... .. . ... : ... .. 6 ... : ... .. . ... ... : ... .. 7 ... ... : ... .. 7 ... ... : ... .. . ... ...
ROW 98 : ... .. A ... ... ... : G-4 00 A P83 ... ... : ... .. . ... : ... .. 3 ... : ... .. . ... ... : ... .. 6 ... ... : ... .. 6 ... ... : ... .. . ... ...
ROW 99 : ... .. 8 ... ... ... : ... .. . P82 ... ... : ... .. . ... : ... .. 1 ... : ... .. . ... ... : ... .. 5 ... ... : ... .. 5 ... ... : ... .. . ... ...
ROW 9A : ... .. 1 ... ... ... : ... .. . P84 ... ... : ... .. . ... : ... .. . ... : ... .. . ... ... : ... .. . ... ... : ... .. . ... ... : ... .. . ... ...
ROW 9B : ... .. . ... ... ... : G#4 00 A P80 ... ... : --- .. . ... : ... .. 0 ... : ... .. . ... ... : ... .. 4 ... ... : ... .. 4 ... ... : --- .. . P84 ...
ROW 9C : ... .. C ... ... ... : ... .. . P83 ... ... : G#3 00 . ... : 7-# 00 F ... : ... .. . ... ... : ... .. . ... ... : ... .. . ... ... : G#2 01 F P80 ...
ROW 9D : ... .. B ... ... ... : A-4 00 A P7E ... ... : ... .. . ... : ... .. C ... : ... .. . ... ... : ... .. . ... ... : ... .. . ... ... : ... .. D ... ...
ROW 9E : ... .. A ... ... ... : ... .. . ... ... ... : ... .. . ... : ... .. 6 ... : ... .. . ... ... : ... .. . ... ... : ... .. . ... ... : ... .. 8 ... ...
ROW 9F : ... .. 8 ... ... ... : G#4 00 F P80 ... ... : ... .. . ... : ... .. 3 ... : ... .. . ... ... : D#4 01 4 P7D ... : A#3 01 4 P86 ... : ... .. . ... ...
ROW A0 : ... .. 1 ... ... ... : ... .. E ... ... ... : ... .. . ... : ... .. 2 ... : ... .. . ... ... : C-4 01 4 P7F ... : G#3 01 4 P83 ... : ... .. . ... ...
ROW A1 : ... .. . ... ... ... : ... .. D ... ... ... : ... .. . ... : ... .. 0 ... : ... .. . ... ... : A-3 01 4 P87 ... : F#3 01 4 P84 ... : ... .. . ... ...
ROW A2 : G#2 00 C ... ... ... : A-4 00 F ... ... ... : ... .. . ... : 1-# 00 8 ... : ... .. . ... ... : G-3 01 4 P86 ... : E-3 01 4 P89 ... : ... .. . ... ...
ROW A3 : ... .. B ... ... ... : ... .. E ... ... ... : ... .. . ... : ... .. 6 ... : ... .. . ... ... : F-3 01 4 P89 ... : D#3 01 4 P7E ... : ... .. . ... ...
ROW A4 : ... .. A ... ... ... : ... .. D ... ... ... : ... .. . ... : ... .. 3 ... : ... .. . ... ... : E-3 01 4 P7C ... : C#3 01 4 P8A ... : ... .. . ... ...
ROW A5 : ... .. 8 ... ... ... : A#4 00 F ... ... ... : ... .. . ... : ... .. 1 ... : ... .. . ... ... : D-3 01 4 P86 ... : C-3 01 4 P82 ... : ... .. . ... ...
ROW A6 : ... .. . ... ... ... : ... .. E ... ... ... : ... .. . ... : ... .. . ... : ... .. . ... ... : C#3 01 4 P7D ... : B-2 01 4 P7B ... : ... .. . ... ...
ROW A7 : ... .. . ... ... ... : ... .. D ... ... ... : --- .. . ... : ... .. 0 ... : ... .. . ... ... : C-3 01 4 P75 ... : A#2 01 4 P76 ... : --- .. . P7F ...
ROW A8 : G-3 00 C ... ... ... : B-4 00 F ... ... ... : G-3 00 . ... : ... .. F ... : ... .. . ... ... : G-4 01 8 P80 ... : B-3 01 8 P80 ... : G#0 01 F P80 ...
ROW A9 : ... .. B ... ... ... : ... .. E ... ... ... : A-2 00 . ... : ... .. C ... : ... .. . ... ... : ... .. 7 ... ... : ... .. 7 ... ... : ... .. D ... ...
ROW AA : ... .. A ... ... ... : ... .. D ... ... ... : D-2 00 . ... : ... .. 6 ... : ... .. . ... ... : ... .. 6 ... ... : ... .. 6 ... ... : ... .. 8 ... ...
ROW AB : ... .. 8 ... ... ... : ... .. A ... ... ... : C#2 00 . ... : ... .. 3 ... : ... .. . ... ... : ... .. 5 ... ... : ... .. 5 ... ... : ... .. . ... ...
ROW AC : ... .. 1 ... ... ... : ... .. . ... ... ... : G#1 00 . ... : ... .. 2 ... : ... .. . ... ... : ... .. . ... ... : ... .. . ... ... : ... .. . ... ...
ROW AD : ... .. . ... ... ... : ... .. . ... ... ... : ... .. . ... : ... .. 0 ... : ... .. . ... ... : ... .. 4 ... ... : ... .. 4 ... ... : ... .. . ... ...
ROW AE : G#1 00 C ... ... ... : F#4 00 F ... ... ... : ... .. . ... : C-# 00 8 ... : ... .. . ... ... : B-3 01 8 ... ... : D#3 01 8 ... ... : ... .. . ... ...
ROW AF : ... .. B ... ... ... : ... .. E ... ... ... : ... .. . ... : ... .. 6 ... : ... .. . ... ... : ... .. 7 ... ... : ... .. 7 ... ... : ... .. . ... ...
ROW B0 : ... .. A ... ... ... : ... .. D ... ... ... : ... .. . ... : ... .. 3 ... : ... .. . ... ... : ... .. 6 ... ... : ... .. 6 ... ... : ... .. . ... ...
ROW B1 : ... .. 8 ... ... ... : ... .. A ... ... ... : G-1 00 . PA0 : ... .. 1 ... : ... .. . ... ... : ... .. 5 ... ... : ... .. 5 ... ... : ... .. . P60 ...
ROW B2 : ... .. 1 ... ... ... : ... .. . ... ... ... : ... .. . P80 : ... .. . ... : ... .. . ... ... : ... .. . ... ... : ... .. . ... ... : ... .. . P40 ...
ROW B3 : ... .. . ... ... ... : ... .. . ... ... ... : ... .. . P60 : ... .. 0 ... : ... .. . ... ... : ... .. 4 ... ... : ... .. 4 ... ... : G-0 01 8 PB2 ...
ROW B4 : ... .. C ... ... ... : B-3 00 F ... ... ... : F#1 00 . P84 : ... .. 8 ... : ... .. . ... ... : F#3 01 8 ... ... : G#2 01 8 ... ... : ... .. . P92 ...
ROW B5 : ... .. B ... ... ... : ... .. E ... ... ... : ... .. . P64 : ... .. 6 ... : ... .. . ... ... : ... .. 7 ... ... : ... .. 7 ... ... : ... .. . P72 ...
ROW B6 : ... .. A ... ... ... : ... .. D ... ... ... : F-1 00 . P8C : ... .. 3 ... : ... .. . ... ... : ... .. 6 ... ... : ... .. 6 ... ... : ... .. . P52 ...
ROW B7 : ... .. 8 ... ... ... : ... .. A ... ... ... : ... .. . P6C : ... .. 1 ... : ... .. . ... ... : ... .. 5 ... ... : ... .. 5 ... ... : F#0 01 8 PCD ...
ROW B8 : ... .. 1 ... ... ... : ... .. . ... ... ... : E-1 00 . P98 : ... .. . ... : ... .. . ... ... : ... .. . ... ... : ... .. . ... ... : ... .. . PAD ...
ROW B9 : ... .. . ... ... ... : ... .. . ... ... ... : ... .. . P78 : ... .. 0 ... : ... .. . ... ... : ... .. 4 ... ... : ... .. 4 ... ... : ... .. . P8D ...
ROW BA : G-3 00 C ... ... ... : B-4 00 F ... ... ... : G#2 00 . P80 : 1-# 00 F ... : ... .. . ... ... : G-4 01 8 ... ... : B-3 01 8 ... ... : G#1 01 F P80 ...
ROW BB : ... .. B ... ... ... : ... .. E ... ... ... : ... .. . ... : ... .. C ... : ... .. . ... ... : ... .. 7 ... ... : ... .. 7 ... ... : ... .. D ... ...
ROW BC : ... .. A ... ... ... : ... .. D ... ... ... : ... .. . ... : ... .. 6 ... : ... .. . ... ... : ... .. 6 ... ... : ... .. 6 ... ... : ... .. 8 ... ...
ROW BD : ... .. 8 ... ... ... : ... .. A ... ... ... : ... .. . ... : ... .. 3 ... : ... .. . ... ... : ... .. 5 ... ... : ... .. 5 ... ... : ... .. . ... ...
ROW BE : ... .. 1 ... ... ... : ... .. . ... ... ... : ... .. . ... : ... .. 2 ... : ... .. . ... ... : ... .. . ... ... : ... .. . ... ... : ... .. . ... ...
ROW BF : ... .. . ... ... ... : ... .. . ... ... ... : ... .. . ... : ... .. 0 ... : ... .. . ... ... : ... .. 4 ... ... : ... .. 4 ... ... : ... .. . ... ...
ROW C0 : G#1 00 C ... ... ... : F#4 00 F ... ... ... : F#2 00 . ... : C-# 00 8 ... : ... .. . ... ... : B-3 01 8 ... ... : D#3 01 8 ... ... : F#1 01 F ... ...
ROW C1 : ... .. B ... ... ... : ... .. E ... ... ... : ... .. . ... : ... .. 6 ... : ... .. . ... ... : ... .. 7 ... ... : ... .. 7 ... ... : ... .. D ... ...
ROW C2 : ... .. A ... ... ... : ... .. D ... ... ... : ... .. . ... : ... .. 3 ... : ... .. . ... ... : ... .. 6 ... ... : ... .. 6 ... ... : ... .. 8 ... ...
ROW C3 : ... .. 8 ... ... ... : ... .. A ... ... ... : ... .. . ... : ... .. 1 ... : ... .. . ... ... : ... .. 5 ... ... : ... .. 5 ... ... : ... .. . ... ...
ROW C4 : ... .. 1 ... ... ... : ... .. . ... ... ... : ... .. . ... : ... .. . ... : ... .. . ... ... : ... .. . ... ... : ... .. . ... ... : ... .. . ... ...
ROW C5 : ... .. . ... ... ... : ... .. . ... ... ... : --- .. . ... : ... .. 0 ... : ... .. . ... ... : ... .. 4 ... ... : ... .. 4 ... ... : --- .. . P81 ...
ROW C6 : ... .. C ... ... ... : B-3 00 F ... ... ... : G#2 00 . ... : ... .. 8 ... : ... .. . ... ... : F#3 01 8 ... ... : G#2 01 8 ... ... : G#1 01 F P80 ...
ROW C7 : ... .. B ... ... ... : ... .. E ... ... ... : ... .. . ... : ... .. 6 ... : ... .. . ... ... : ... .. 7 ... ... : ... .. 7 ... ... : ... .. D ... ...
ROW C8 : ... .. A ... ... ... : ... .. D ... ... ... : ... .. . ... : ... .. 3 ... : ... .. . ... ... : ... .. 6 ... ... : ... .. 6 ... ... : ... .. 8 ... ...
ROW C9 : ... .. 8 ... ... ... : ... .. A ... ... ... : ... .. . ... : ... .. 1 ... : ... .. . ... ... : ... .. 5 ... ... : ... .. 5 ... ... : ... .. . ... ...
ROW CA : ... .. . ... ... ... : ... .. . ... ... ... : ... .. . ... : ... .. . ... : ... .. . ... ... : ... .. . ... ... : ... .. . ... ... : ... .. . ... ...
ROW CB : ... .. . ... ... ... : ... .. . ... ... ... : ... .. . ... : ... .. 0 ... : ... .. . ... ... : ... .. 4 ... ... : ... .. 4 ... ... : ... .. . ... ...
ROW CC : F#3 00 C ... ... ... : ... .. . ... ... ... : G-5 00 . ... : 7-# 00 F ... : ... .. . ... ... : F#4 01 8 ... ... : B-3 01 8 ... ... : G#2 01 F ... ...
ROW CD : ... .. B ... ... ... : ... .. . ... ... ... : A-4 00 . ... : ... .. C ... : ... .. . ... ... : ... .. 7 ... ... : ... .. 7 ... ... : ... .. D ... ...
ROW CE : ... .. A ... ... ... : ... .. . ... ... ... : D-4 00 . ... : ... .. 6 ... : ... .. . ... ... : ... .. 6 ... ... : ... .. 6 ... ... : ... .. 8 ... ...
ROW CF : ... .. 8 ... ... ... : ... .. . ... ... ... : C#4 00 . ... : ... .. 3 ... : ... .. . ... ... : ... .. 5 ... ... : ... .. 5 ... ... : ... .. . ... ...
ROW D0 : ... .. 1 ... ... ... : ... .. . ... ... ... : G#3 00 . ... : ... .. 2 ... : ... .. . ... ... : ... .. . ... ... : ... .. . ... ... : ... .. . ... ...
ROW D1 : ... .. . ... ... ... : ... .. . ... ... ... : ... .. . ... : ... .. 0 ... : ... .. . ... ... : ... .. 4 ... ... : ... .. 4 ... ... : ... .. . ... ...
ROW D2 : G#1 00 C ... ... ... : ... .. . ... ... ... : ... .. . ... : ... .. 8 ... : ... .. . ... ... : G#3 01 8 ... ... : D-3 01 8 ... ... : ... .. . ... ...
ROW D3 : ... .. B ... ... ... : ... .. . ... ... ... : ... .. . ... : ... .. 6 ... : ... .. . ... ... : ... .. 7 ... ... : ... .. 7 ... ... : ... .. . ... ...
ROW D4 : ... .. A ... ... ... : ... .. . ... ... ... : ... .. . ... : ... .. 3 ... : ... .. . ... ... : ... .. 6 ... ... : ... .. 6 ... ... : ... .. . ... ...
ROW D5 : ... .. 8 ... ... ... : ... .. . P84 ... ... : F#3 00 . P81 : ... .. 1 ... : ... .. . ... ... : ... .. 5 ... ... : ... .. 5 ... ... : G-2 01 8 P84 ...
ROW D6 : ... .. 1 ... ... ... : ... .. . P86 ... ... : E-3 00 . P86 : ... .. . ... : ... .. . ... ... : ... .. . ... ... : ... .. . ... ... : F#2 01 8 P8B ...
ROW D7 : ... .. . ... ... ... : ... .. . P85 ... ... : D#3 00 . P7B : ... .. 0 ... : ... .. . ... ... : ... .. 4 ... ... : ... .. 4 ... ... : F-2 01 8 P94 ...
ROW D8 : ... .. C ... ... ... : ... .. . P82 ... ... : C#3 00 . P87 : 4-# 00 F ... : ... .. . ... ... : D-3 01 8 ... ... : G#2 01 8 ... ... : ... .. . P74 ...
ROW D9 : ... .. B ... ... ... : ... .. . P7E ... ... : C-3 00 . P7F : ... .. C ... : ... .. . ... ... : ... .. 7 ... ... : ... .. 7 ... ... : E-2 01 8 P80 ...
ROW DA : ... .. A ... ... ... : ... .. . P7B ... ... : B-2 00 . P78 : ... .. 6 ... : ... .. . ... ... : ... .. 6 ... ... : ... .. 6 ... ... : D#2 01 8 P8E ...
ROW DB : ... .. 8 ... ... ... : ... .. . P7A ... ... : A#2 00 . P73 : ... .. 3 ... : ... .. . ... ... : ... .. 5 ... ... : ... .. 5 ... ... : ... .. . P6E ...
ROW DC : ... .. . ... ... ... : ... .. . P7C ... ... : G#2 00 . P8E : ... .. 2 ... : ... .. . ... ... : ... .. . ... ... : ... .. . ... ... : D-2 01 8 P7F ...
ROW DD : ... .. . ... ... ... : ... .. . P80 ... ... : G-2 00 . ... : ... .. 0 ... : ... .. . ... ... : ... .. 4 ... ... : ... .. 4 ... ... : C#2 01 8 P92 ...
ROW DE : F#3 00 C ... ... ... : ... .. . P83 ... ... : G-5 00 . P80 : 9-# 00 8 ... : ... .. . ... ... : F-4 01 8 ... ... : B-3 01 8 ... ... : G#2 01 F P80 ...
ROW DF : ... .. B ... ... ... : ... .. . P86 ... ... : A-4 00 . ... : ... .. 6 ... : ... .. . ... ... : ... .. 7 ... ... : ... .. 7 ... ... : ... .. D ... ...
ROW E0 : ... .. A ... ... ... : ... .. . ... ... ... : D-4 00 . ... : ... .. 3 ... : ... .. . ... ... : ... .. 6 ... ... : ... .. 6 ... ... : ... .. 8 ... ...
ROW E1 : ... .. 8 ... ... ... : ... .. . P82 ... ... : C#4 00 . ... : ... .. 1 ... : ... .. . ... ... : ... .. 5 ... ... : ... .. 5 ... ... : ... .. . ... ...
ROW E2 : ... .. 1 ... ... ... : ... .. . P7F ... ... : G#3 00 . ... : ... .. . ... : ... .. . ... ... : ... .. . ... ... : ... .. . ... ... : ... .. . ... ...
ROW E3 : ... .. . ... ... ... : ... .. . P7B ... ... : ... .. . ... : ... .. 0 ... : ... .. . ... ... : ... .. 4 ... ... : ... .. 4 ... ... : ... .. . ... ...
ROW E4 : G#1 00 C ... ... ... : ... .. . P7A ... ... : ... .. . ... : 7-# 00 F ... : ... .. . ... ... : G#3 01 8 ... ... : D-3 01 8 ... ... : ... .. . ... ...
ROW E5 : ... .. B ... ... ... : ... .. . P7C ... ... : ... .. . ... : ... .. C ... : ... .. . ... ... : ... .. 7 ... ... : ... .. 7 ... ... : ... .. . ... ...
ROW E6 : ... .. A ... ... ... : ... .. . P80 ... ... : ... .. . ... : ... .. 6 ... : ... .. . ... ... : ... .. 6 ... ... : ... .. 6 ... ... : ... .. . ... ...
ROW E7 : ... .. 8 ... ... ... : ... .. . P83 ... ... : ... .. . ... : ... .. 3 ... : ... .. . ... ... : ... .. 5 ... ... : ... .. 5 ... ... : ... .. . ... ...
ROW E8 : ... .. 1 ... ... ... : ... .. . P86 ... ... : ... .. . ... : ... .. 2 ... : ... .. . ... ... : ... .. . ... ... : ... .. . ... ... : ... .. . ... ...
ROW E9 : ... .. . ... ... ... : ... .. . ... ... ... : ... .. . ... : ... .. 0 ... : ... .. . ... ... : ... .. 4 ... ... : ... .. 4 ... ... : ... .. . ... ...
ROW EA : ... .. C ... ... ... : ... .. . P83 ... ... : F-3 00 . P83 : 5-# 00 8 ... : ... .. . ... ... : D-3 01 8 ... ... : G#2 01 8 ... ... : G-2 01 8 P74 ...
ROW EB : ... .. B ... ... ... : ... .. 2 P80 ... ... : D#3 00 . P7B : ... .. 6 ... : ... .. . ... ... : ... .. 7 ... ... : ... .. 7 ... ... : F-2 01 8 P94 ...
ROW EC : ... .. A ... ... ... : ... .. . P7C ... ... : C#3 00 . P77 : ... .. 3 ... : ... .. . ... ... : ... .. 6 ... ... : ... .. 6 ... ... : E-2 01 8 P90 ...
ROW ED : A-0 00 F P72 ... ... : ... .. . P7A ... ... : B-2 00 . P78 : ... .. 1 ... : ... .. . ... ... : ... .. 5 ... ... : ... .. 5 ... ... : D#2 01 8 P8E ...
ROW EE : ... .. E ... ... ... : ... .. 1 P7B ... ... : A-2 00 . P7F : ... .. . ... : ... .. . ... ... : ... .. . ... ... : ... .. . ... ... : D-2 01 8 P8F ...
ROW EF : ... .. D ... ... ... : ... .. . P7F ... ... : G-2 00 . P8E : ... .. 0 ... : ... .. . ... ... : ... .. 4 ... ... : ... .. 4 ... ... : C#2 01 8 P92 ...
ROW F0 : G-1 00 C P80 ... ... : ... .. . P80 ... ... : F#4 00 . P80 : 1-# 00 F ... : ... .. . ... ... : A#2 01 8 ... ... : D-3 01 8 ... ... : G-1 01 F P80 ...
ROW F1 : ... .. B ... ... ... : ... .. 0 ... ... ... : G#3 00 . ... : ... .. C ... : ... .. . ... ... : ... .. 7 ... ... : ... .. 7 ... ... : ... .. D ... ...
ROW F2 : ... .. A ... ... ... : ... .. . ... ... ... : C#3 00 . ... : ... .. 6 ... : ... .. . ... ... : ... .. 6 ... ... : ... .. 6 ... ... : ... .. 8 ... ...
ROW F3 : ... .. 8 ... ... ... : ... .. . ... ... ... : C-3 00 . ... : ... .. 3 ... : ... .. . ... ... : ... .. 5 ... ... : ... .. 5 ... ... : ... .. . ... ...
ROW F4 : ... .. 1 ... ... ... : ... .. . ... ... ... : G-2 00 . ... : ... .. 2 ... : ... .. . ... ... : ... .. . ... ... : ... .. . ... ... : ... .. . ... ...
ROW F5 : ... .. . ... ... ... : ... .. . ... ... ... : ... .. . ... : ... .. 0 ... : ... .. . ... ... : ... .. 4 ... ... : ... .. 4 ... ... : ... .. . ... ...
ROW F6 : ... .. C ... ... ... : A#3 00 F P80 ... ... : ... .. . ... : C-# 00 8 ... : ... .. . ... ... : ... .. . ... ... : ... .. . ... ... : ... .. . ... ...
ROW F7 : ... .. B ... ... ... : ... .. E ... ... ... : ... .. . ... : ... .. 6 ... : ... .. . ... ... : ... .. . ... ... : ... .. . ... ... : ... .. . ... ...
ROW F8 : ... .. A ... ... ... : ... .. D ... ... ... : ... .. . ... : ... .. 3 ... : ... .. . ... ... : ... .. . ... ... : ... .. . ... ... : ... .. . ... ...
ROW F9 : ... .. 8 ... ... ... : ... .. A ... ... ... : F#2 00 . P82 : ... .. 1 ... : ... .. . ... ... : ... .. . ... ... : ... .. . ... ... : ... .. . P60 ...
ROW FA : ... .. 1 ... ... ... : ... .. 2 ... ... ... : F-2 00 . P86 : ... .. . ... : ... .. . ... ... : ... .. . ... ... : ... .. . ... ... : F#1 01 8 P8D ...
ROW FB : ... .. . ... ... ... : ... .. . ... ... ... : E-2 00 . P8C : ... .. 0 ... : ... .. . ... ... : ... .. . ... ... : ... .. . ... ... : ... .. . P6D ...
ROW FC : D-2 00 C ... ... ... : ... .. F ... ... ... : D#2 00 . P94 : ... .. 8 ... : ... .. . ... ... : ... .. . ... ... : ... .. . ... ... : F-1 01 8 P9F ...
ROW FD : ... .. B ... ... ... : ... .. E ... ... ... : ... .. . P74 : ... .. 6 ... : ... .. . ... ... : ... .. . ... ... : ... .. . ... ... : ... .. . P7F ...
ROW FE : ... .. A ... ... ... : ... .. D ... ... ... : D-2 00 . P7F : ... .. 3 ... : ... .. . ... ... : ... .. . ... ... : ... .. . ... ... : ... .. . P5F ...
ROW FF : ... .. 8 ... ... ... : ... .. A ... ... ... : C#2 00 . P8C : ... .. 1 ... : ... .. . ... ... : ... .. . ... ... : ... .. . ... ... : E-1 01 8 P96 ...

PATTERN 16
ROW 00 : ... .. . ... ... ... : ... .. 2 ... ... ... : ... .. . P6C : ... .. . ... : ... .. . ... ... : ... .. . ... ... : ... .. . ... ... : ... .. . P76 ...
ROW 01 : ... .. . ... ... ... : ... .. . ... ... ... : C-2 00 . P7C : ... .. 0 ... : ... .. . ... ... : ... .. . ... ... : ... .. . ... ... : ... .. . P56 ...
ROW 02 : C#2 00 C ... ... ... : B-3 00 F ... ... ... : F#5 00 . P80 : 1-# 00 F ... : ... .. . ... ... : ... .. 8 ... ... : D#3 01 8 ... ... : G-2 01 F P80 ...
ROW 03 : ... .. B ... ... ... : ... .. E ... ... ... : G#4 00 . ... : ... .. C ... : ... .. . ... ... : ... .. 7 ... ... : ... .. 7 ... ... : ... .. D ... ...
ROW 04 : ... .. A ... ... ... : ... .. D ... ... ... : C#4 00 . ... : ... .. 6 ... : ... .. . ... ... : ... .. 6 ... ... : ... .. 6 ... ... : ... .. 8 ... ...
ROW 05 : ... .. 8 ... ... ... : ... .. A ... ... ... : C-4 00 . ... : ... .. 3 ... : ... .. . ... ... : ... .. 5 ... ... : ... .. 5 ... ... : ... .. . ... ...
ROW 06 : ... .. 1 ... ... ... : ... .. . ... ... ... : G-3 00 . ... : ... .. 2 ... : ... .. . ... ... : ... .. . ... ... : ... .. . ... ... : ... .. . ... ...
ROW 07 : ... .. . ... ... ... : ... .. . ... ... ... : --- .. . ... : ... .. 0 ... : ... .. . ... ... : ... .. 4 ... ... : ... .. 4 ... ... : --- .. . P7D ...
ROW 08 : D-2 00 C ... ... ... : A#3 00 F ... ... ... : F-3 00 . ... : C-# 00 8 ... : ... .. . ... ... : ... .. . ... ... : ... .. . ... ... : F-2 01 F P80 ...
ROW 09 : ... .. B ... ... ... : ... .. E ... ... ... : ... .. . ... : ... .. 6 ... : ... .. . ... ... : ... .. . ... ... : ... .. . ... ... : ... .. D ... ...
ROW 0A : ... .. A ... ... ... : ... .. D ... ... ... : ... .. . ... : ... .. 3 ... : ... .. . ... ... : ... .. . ... ... : ... .. . ... ... : ... .. 8 ... ...
ROW 0B : ... .. 8 ... ... ... : ... .. A ... ... ... : ... .. . ... : ... .. 1 ... : ... .. . ... ... : ... .. . ... ... : ... .. . ... ... : ... .. . ... ...
ROW 0C : ... .. . ... ... ... : ... .. 2 ... ... ... : ... .. . ... : ... .. . ... : ... .. . ... ... : ... .. . ... ... : ... .. . ... ... : ... .. . ... ...
ROW 0D : ... .. . ... ... ... : ... .. . ... ... ... : --- .. . ... : ... .. 0 ... : ... .. . ... ... : ... .. . ... ... : ... .. . ... ... : --- .. . P7E ...
ROW 0E : A#1 00 C ... ... ... : A#4 00 F ... ... ... : G-3 00 . ... : ... .. 8 ... : ... .. . ... ... : ... .. . ... ... : ... .. . ... ... : G-2 01 F P80 ...
ROW 0F : ... .. B ... ... ... : ... .. E ... ... ... : ... .. . ... : ... .. 6 ... : ... .. . ... ... : ... .. . ... ... : ... .. . ... ... : ... .. D ... ...
ROW 10 : ... .. A ... ... ... : ... .. D ... ... ... : ... .. . ... : ... .. 3 ... : ... .. . ... ... : ... .. . ... ... : ... .. . ... ... : ... .. 8 ... ...
ROW 11 : ... .. 8 ... ... ... : ... .. A ... ... ... : --- .. . ... : ... .. 1 ... : ... .. . ... ... : ... .. . ... ... : ... .. . ... ... : --- .. . P7D ...
ROW 12 : ... .. 1 ... ... ... : ... .. 2 ... ... ... : ... .. . ... : ... .. . ... : ... .. . ... ... : ... .. . ... ... : ... .. . ... ... : ... .. . ... ...
ROW 13 : ... .. . ... ... ... : ... .. . ... ... ... : ... .. . ... : ... .. 0 ... : ... .. . ... ... : ... .. . ... ... : ... .. . ... ... : ... .. . ... ...
ROW 14 : F#2 00 C ... ... ... : ... .. F ... ... ... : D-6 00 . ... : 7-# 00 F ... : ... .. . ... ... : ... .. . ... ... : ... .. . ... ... : D#3 01 F P80 ...
ROW 15 : ... .. B ... ... ... : ... .. E ... ... ... : E-5 00 . ... : ... .. C ... : ... .. . ... ... : ... .. . ... ... : ... .. . ... ... : ... .. D ... ...
ROW 16 : ... .. A ... ... ... : ... .. D ... ... ... : A-4 00 . ... : ... .. 6 ... : ... .. . ... ... : ... .. . ... ... : ... .. . ... ... : ... .. 8 ... ...
ROW 17 : ... .. 8 ... ... ... : ... .. A ... ... ... : G#4 00 . ... : ... .. 3 ... : ... .. . ... ... : ... .. . ... ... : ... .. . ... ... : ... .. . ... ...
ROW 18 : ... .. . ... ... ... : ... .. . ... ... ... : D#4 00 . ... : ... .. 2 ... : ... .. . ... ... : ... .. . ... ... : ... .. . ... ... : ... .. . ... ...
ROW 19 : ... .. . ... ... ... : ... .. . ... ... ... : ... .. . ... : ... .. 0 ... : ... .. . ... ... : ... .. . ... ... : ... .. . ... ... : ... .. . ... ...
ROW 1A : ... .. C ... ... ... : ... .. . ... ... ... : ... .. . ... : 1-# 00 8 ... : ... .. . ... ... : ... .. . ... ... : ... .. . ... ... : ... .. . ... ...
ROW 1B : ... .. B ... ... ... : ... .. . ... ... ... : ... .. . ... : ... .. 6 ... : ... .. . ... ... : ... .. . ... ... : ... .. . ... ... : ... .. . ... ...
ROW 1C : ... .. A ... ... ... : ... .. . ... ... ... : ... .. . ... : ... .. 3 ... : ... .. . ... ... : ... .. . ... ... : ... .. . ... ... : ... .. . ... ...
ROW 1D : ... .. 8 ... ... ... : ... .. . ... ... ... : ... .. . ... : ... .. 1 ... : ... .. . ... ... : ... .. . ... ... : ... .. . ... ... : ... .. . ... ...
ROW 1E : ... .. 1 ... ... ... : ... .. . ... ... ... : ... .. . ... : ... .. . ... : ... .. . ... ... : ... .. . ... ... : ... .. . ... ... : ... .. . ... ...
ROW 1F : ... .. . ... ... ... : ... .. . ... ... ... : ... .. . ... : ... .. 0 ... : ... .. . ... ... : ... .. . ... ... : ... .. . ... ... : ... .. . ... ...
ROW 20 : G-1 00 C ... ... ... : ... .. . ... ... ... : D-4 00 . ... : 7-# 00 F ... : ... .. . ... ... : ... .. . ... ... : ... .. . ... ... : D-3 01 F ... ...
ROW 21 : ... .. B ... ... ... : ... .. . ... ... ... : ... .. . ... : ... .. C ... : ... .. . ... ... : ... .. . ... ... : ... .. . ... ... : ... .. D ... ...
ROW 22 : ... .. A ... ... ... : ... .. . ... ... ... : ... .. . ... : ... .. 6 ... : ... .. . ... ... : ... .. . ... ... : ... .. . ... ... : ... .. 8 ... ...
ROW 23 : ... .. 8 ... ... ... : ... .. . ... ... ... : ... .. . ... : ... .. 3 ... : ... .. . ... ... : ... .. . ... ... : ... .. . ... ... : ... .. . ... ...
ROW 24 : ... .. 1 ... ... ... : ... .. . ... ... ... : ... .. . ... : ... .. 2 ... : ... .. . ... ... : ... .. . ... ... : ... .. . ... ... : ... .. . ... ...
ROW 25 : ... .. . ... ... ... : ... .. . ... ... ... : ... .. . ... : ... .. 0 ... : ... .. . ... ... : ... .. . ... ... : ... .. . ... ... : ... .. . ... ...
ROW 26 : F-2 00 C ... ... ... : B-4 00 A P7D ... ... : ... .. . ... : 1-# 00 8 ... : ... .. . ... ... : ... .. . ... ... : ... .. . ... ... : ... .. . ... ...
ROW 27 : ... .. B ... ... ... : ... .. . P7F ... ... : ... .. . ... : ... .. 6 ... : ... .. . ... ... : ... .. . ... ... : ... .. . ... ... : ... .. . ... ...
ROW 28 : ... .. A ... ... ... : ... .. . P7E ... ... : ... .. . ... : ... .. 3 ... : ... .. . ... ... : ... .. . ... ... : ... .. . ... ... : ... .. . ... ...
ROW 29 : ... .. 8 ... ... ... : A#4 00 A P82 ... ... : ... .. . ... : ... .. 1 ... : ... .. . ... ... : ... .. . ... ... : ... .. . ... ... : ... .. . ... ...
ROW 2A : ... .. . ... ... ... : ... .. . P7E ... ... : ... .. . ... : ... .. . ... : ... .. . ... ... : ... .. . ... ... : ... .. . ... ... : ... .. . ... ...
ROW 2B : ... .. . ... ... ... : A-4 00 A P82 ... ... : --- .. . ... : ... .. 0 ... : ... .. . ... ... : ... .. . ... ... : ... .. . ... ... : --- .. . P84 ...
ROW 2C : ... .. C ... ... ... : ... .. . P81 ... ... : G-3 00 . ... : 7-# 00 F ... : ... .. . ... ... : ... .. . ... ... : ... .. . ... ... : G-2 01 F P80 ...
ROW 2D : ... .. B ... ... ... : ... .. . P83 ... ... : ... .. . ... : ... .. C ... : ... .. . ... ... : ... .. . ... ... : ... .. . ... ... : ... .. D ... ...
ROW 2E : ... .. A ... ... ... : A#4 00 A P80 ... ... : ... .. . ... : ... .. 6 ... : ... .. . ... ... : ... .. . ... ... : ... .. . ... ... : ... .. 8 ... ...
ROW 2F : ... .. 8 ... ... ... : ... .. . P83 ... ... : ... .. . ... : ... .. 3 ... : ... .. . ... ... : ... .. . ... ... : ... .. . ... ... : ... .. . ... ...
ROW 30 : ... .. 1 ... ... ... : B-4 00 A P7F ... ... : ... .. . ... : ... .. 2 ... : ... .. . ... ... : ... .. . ... ... : ... .. . ... ... : ... .. . ... ...
ROW 31 : ... .. . ... ... ... : ... .. . ... ... ... : ... .. . ... : ... .. 0 ... : ... .. . ... ... : ... .. . ... ... : ... .. . ... ... : ... .. . ... ...
ROW 32 : G-1 00 C ... ... ... : A#4 00 A P82 ... ... : ... .. . ... : 1-# 00 8 ... : ... .. . ... ... : ... .. . ... ... : ... .. . ... ... : ... .. . ... ...
ROW 33 : ... .. B ... ... ... : ... .. . P7F ... ... : ... .. . ... : ... .. 6 ... : ... .. . ... ... : ... .. . ... ... : ... .. . ... ... : ... .. . ... ...
ROW 34 : ... .. A ... ... ... : A-4 00 A P82 ... ... : ... .. . ... : ... .. 3 ... : ... .. . ... ... : ... .. . ... ... : ... .. . ... ... : ... .. . ... ...
ROW 35 : ... .. 8 ... ... ... : ... .. . P81 ... ... : ... .. . ... : ... .. 1 ... : ... .. . ... ... : ... .. . ... ... : ... .. . ... ... : ... .. . ... ...
ROW 36 : ... .. 1 ... ... ... : ... .. 2 P83 ... ... : ... .. . ... : ... .. . ... : ... .. . ... ... : ... .. . ... ... : ... .. . ... ... : ... .. . ... ...
ROW 37 : ... .. . ... ... ... : A#4 00 2 P80 ... ... : --- .. . ... : ... .. 0 ... : ... .. . ... ... : ... .. . ... ... : ... .. . ... ... : --- .. . P7D ...
ROW 38 : E-2 00 C ... ... ... : ... .. . ... ... ... : F#3 00 . ... : ... .. F ... : ... .. . ... ... : A#3 01 8 ... ... : D-4 01 8 ... ... : G-0 01 F P80 ...
ROW 39 : ... .. B ... ... ... : ... .. 1 ... ... ... : G#2 00 . ... : ... .. C ... : ... .. . ... ... : ... .. 7 ... ... : ... .. 7 ... ... : ... .. D ... ...
ROW 3A : ... .. A ... ... ... : ... .. . ... ... ... : C#2 00 . ... : ... .. 6 ... : ... .. . ... ... : ... .. 6 ... ... : ... .. 6 ... ... : ... .. 8 ... ...
ROW 3B : ... .. 8 ... ... ... : ... .. . ... ... ... : C-2 00 . ... : ... .. 3 ... : ... .. . ... ... : ... .. 5 ... ... : ... .. 5 ... ... : ... .. . ... ...
ROW 3C : ... .. . ... ... ... : ... .. 0 ... ... ... : G-1 00 . ... : ... .. 2 ... : ... .. . ... ... : ... .. . ... ... : ... .. . ... ... : ... .. . ... ...
ROW 3D : ... .. . ... ... ... : ... .. . ... ... ... : ... .. . ... : ... .. 0 ... : ... .. . ... ... : ... .. 4 ... ... : ... .. 4 ... ... : ... .. . ... ...
ROW 3E : ... .. C ... ... ... : D-4 00 F P80 ... ... : ... .. . ... : C-# 00 8 ... : ... .. . ... ... : ... .. . ... ... : ... .. . ... ... : ... .. . ... ...
ROW 3F : ... .. B ... ... ... : ... .. E ... ... ... : ... .. . ... : ... .. 6 ... : ... .. . ... ... : ... .. . ... ... : ... .. . ... ... : ... .. . ... ...
ROW 40 : ... .. A ... ... ... : ... .. D ... ... ... : ... .. . ... : ... .. 3 ... : ... .. . ... ... : ... .. . ... ... : ... .. . ... ... : ... .. . ... ...
ROW 41 : ... .. 8 ... ... ... : ... .. A ... ... ... : ... .. . P60 : ... .. 1 ... : ... .. . ... ... : ... .. . ... ... : ... .. . ... ... : ... .. . P60 ...
ROW 42 : ... .. 1 ... ... ... : ... .. 2 ... ... ... : F#1 00 . P84 : ... .. . ... : ... .. . ... ... : ... .. . ... ... : ... .. . ... ... : ... .. . P40 ...
ROW 43 : ... .. . ... ... ... : ... .. . ... ... ... : ... .. . P64 : ... .. 0 ... : ... .. . ... ... : ... .. . ... ... : ... .. . ... ... : F#0 01 8 PBB ...
ROW 44 : A#1 00 C ... ... ... : ... .. F ... ... ... : F-1 00 . P8C : ... .. 8 ... : ... .. . ... ... : ... .. . ... ... : ... .. . ... ... : ... .. . P9B ...
ROW 45 : ... .. B ... ... ... : ... .. E ... ... ... : ... .. . P6C : ... .. 6 ... : ... .. . ... ... : ... .. . ... ... : ... .. . ... ... : ... .. . P7B ...
ROW 46 : ... .. A ... ... ... : ... .. D ... ... ... : E-1 00 . P98 : ... .. 3 ... : ... .. . ... ... : ... .. . ... ... : ... .. . ... ... : ... .. . P5B ...
ROW 47 : ... .. 8 ... ... ... : ... .. A ... ... ... : ... .. . P78 : ... .. 1 ... : ... .. . ... ... : ... .. . ... ... : ... .. . ... ... : ... .. . P3B ...
ROW 48 : ... .. 1 ... ... ... : ... .. 2 ... ... ... : ... .. . P58 : ... .. . ... : ... .. . ... ... : ... .. . ... ... : ... .. . ... ... : F-0 01 8 PC0 ...
ROW 49 : ... .. . ... ... ... : ... .. . ... ... ... : D#1 00 . P89 : ... .. 0 ... : ... .. . ... ... : ... .. . ... ... : ... .. . ... ... : ... .. . PA0 ...
ROW 4A : ... .. C ... ... ... : D#4 00 F ... ... ... : G-2 00 . P80 : 1-# 00 F ... : ... .. . ... ... : ... .. 8 ... ... : D#4 01 8 ... ... : G-1 01 F P80 ...
ROW 4B : ... .. B ... ... ... : ... .. E ... ... ... : ... .. . ... : ... .. C ... : ... .. . ... ... : ... .. 7 ... ... : ... .. 7 ... ... : ... .. D ... ...
ROW 4C : ... .. A ... ... ... : ... .. D ... ... ... : ... .. . ... : ... .. 6 ... : ... .. . ... ... : ... .. 6 ... ... : ... .. 6 ... ... : ... .. 8 ... ...
ROW 4D : ... .. 8 ... ... ... : ... .. A ... ... ... : ... .. . ... : ... .. 3 ... : ... .. . ... ... : ... .. 5 ... ... : ... .. 5 ... ... : ... .. . ... ...
ROW 4E : ... .. . ... ... ... : ... .. . ... ... ... : ... .. . ... : ... .. 2 ... : ... .. . ... ... : ... .. . ... ... : ... .. . ... ... : ... .. . ... ...
ROW 4F : ... .. . ... ... ... : ... .. . ... ... ... : ... .. . ... : ... .. 0 ... : ... .. . ... ... : ... .. 4 ... ... : ... .. 4 ... ... : ... .. . ... ...
ROW 50 : D-2 00 C ... ... ... : D-4 00 F ... ... ... : F-2 00 . ... : C-# 00 8 ... : ... .. . ... ... : ... .. . ... ... : ... .. . ... ... : F-1 01 F ... ...
ROW 51 : ... .. B ... ... ... : ... .. E ... ... ... : ... .. . ... : ... .. 6 ... : ... .. . ... ... : ... .. . ... ... : ... .. . ... ... : ... .. D ... ...
ROW 52 : ... .. A ... ... ... : ... .. D ... ... ... : ... .. . ... : ... .. 3 ... : ... .. . ... ... : ... .. . ... ... : ... .. . ... ... : ... .. 8 ... ...
ROW 53 : ... .. 8 ... ... ... : ... .. A ... ... ... : ... .. . ... : ... .. 1 ... : ... .. . ... ... : ... .. . ... ... : ... .. . ... ... : ... .. . ... ...
ROW 54 : ... .. 1 ... ... ... : ... .. 2 ... ... ... : ... .. . ... : ... .. . ... : ... .. . ... ... : ... .. . ... ... : ... .. . ... ... : ... .. . ... ...
ROW 55 : ... .. . ... ... ... : ... .. . ... ... ... : --- .. . ... : ... .. 0 ... : ... .. . ... ... : ... .. . ... ... : ... .. . ... ... : --- .. . P7F ...
ROW 56 : ... .. C ... ... ... : D-5 00 F ... ... ... : G-2 00 . ... : ... .. 8 ... : ... .. . ... ... : ... .. . ... ... : ... .. . ... ... : G-1 01 F P80 ...
ROW 57 : ... .. B ... ... ... : ... .. E ... ... ... : ... .. . ... : ... .. 6 ... : ... .. . ... ... : ... .. . ... ... : ... .. . ... ... : ... .. D ... ...
ROW 58 : ... .. A ... ... ... : ... .. D ... ... ... : ... .. . ... : ... .. 3 ... : ... .. . ... ... : ... .. . ... ... : ... .. . ... ... : ... .. 8 ... ...
ROW 59 : ... .. 8 ... ... ... : ... .. A ... ... ... : ... .. . ... : ... .. 1 ... : ... .. . ... ... : ... .. . ... ... : ... .. . ... ... : ... .. . ... ...
ROW 5A : ... .. 1 ... ... ... : ... .. 2 ... ... ... : ... .. . ... : ... .. . ... : ... .. . ... ... : ... .. . ... ... : ... .. . ... ... : ... .. . ... ...
ROW 5B : ... .. . ... ... ... : ... .. . ... ... ... : ... .. . ... : ... .. 0 ... : ... .. . ... ... : ... .. . ... ... : ... .. . ... ... : ... .. . ... ...
ROW 5C : C-2 00 C ... ... ... : ... .. F ... ... ... : F#5 00 . ... : 7-# 00 F ... : ... .. . ... ... : ... .. . ... ... : ... .. . ... ... : G-2 01 F ... ...
ROW 5D : ... .. B ... ... ... : ... .. E ... ... ... : G#4 00 . ... : ... .. C ... : ... .. . ... ... : ... .. . ... ... : ... .. . ... ... : ... .. D ... ...
ROW 5E : ... .. A ... ... ... : ... .. D ... ... ... : C#4 00 . ... : ... .. 6 ... : ... .. . ... ... : ... .. . ... ... : ... .. . ... ... : ... .. 8 ... ...
ROW 5F : ... .. 8 ... ... ... : ... .. A ... ... ... : C-4 00 . ... : ... .. 3 ... : ... .. . ... ... : ... .. . ... ... : ... .. . ... ... : ... .. . ... ...
ROW 60 : ... .. . ... ... ... : ... .. . ... ... ... : G-3 00 . ... : ... .. 2 ... : ... .. . ... ... : ... .. . ... ... : ... .. . ... ... : ... .. . ... ...
ROW 61 : ... .. . ... ... ... : ... .. . ... ... ... : --- .. . ... : ... .. 0 ... : ... .. . ... ... : ... .. . ... ... : ... .. . ... ... : --- .. . P7D ...
ROW 62 : ... .. C ... ... ... : ... .. . ... ... ... : F-3 00 . ... : ... .. 8 ... : ... .. . ... ... : ... .. . ... ... : ... .. . ... ... : F-2 01 F P80 ...
ROW 63 : ... .. B ... ... ... : ... .. . ... ... ... : ... .. . ... : ... .. 6 ... : ... .. . ... ... : ... .. . ... ... : ... .. . ... ... : ... .. D ... ...
ROW 64 : ... .. A ... ... ... : ... .. . ... ... ... : ... .. . ... : ... .. 3 ... : ... .. . ... ... : ... .. . ... ... : ... .. . ... ... : ... .. 8 ... ...
ROW 65 : ... .. 8 ... ... ... : ... .. . ... ... ... : ... .. . ... : ... .. 1 ... : ... .. . ... ... : ... .. . ... ... : ... .. . ... ... : ... .. . ... ...
ROW 66 : ... .. 1 ... ... ... : ... .. . ... ... ... : ... .. . ... : ... .. . ... : ... .. . ... ... : ... .. . ... ... : ... .. . ... ... : ... .. . ... ...
ROW 67 : ... .. . ... ... ... : ... .. . ... ... ... : --- .. . ... : ... .. 0 ... : ... .. . ... ... : ... .. . ... ... : ... .. . ... ... : --- .. . P7E ...
ROW 68 : G#1 00 C ... ... ... : ... .. . ... ... ... : A#3 00 . ... : 4-# 00 F ... : ... .. . ... ... : ... .. . ... ... : ... .. . ... ... : A#2 01 F P80 ...
ROW 69 : ... .. B ... ... ... : ... .. . ... ... ... : ... .. . ... : ... .. C ... : ... .. . ... ... : ... .. . ... ... : ... .. . ... ... : ... .. D ... ...
ROW 6A : ... .. A ... ... ... : ... .. . ... ... ... : ... .. . ... : ... .. 6 ... : ... .. . ... ... : ... .. . ... ... : ... .. . ... ... : ... .. 8 ... ...
ROW 6B : ... .. 8 ... ... ... : ... .. . ... ... ... : ... .. . ... : ... .. 3 ... : ... .. . ... ... : ... .. . ... ... : ... .. . ... ... : ... .. . ... ...
ROW 6C : ... .. 1 ... ... ... : ... .. . ... ... ... : ... .. . ... : ... .. 2 ... : ... .. . ... ... : ... .. . ... ... : ... .. . ... ... : ... .. . ... ...
ROW 6D : ... .. . ... ... ... : ... .. . ... ... ... : ... .. . ... : ... .. 0 ... : ... .. . ... ... : ... .. . ... ... : ... .. . ... ... : ... .. . ... ...
ROW 6E : ... .. C ... ... ... : D#5 00 A P7F ... ... : G#3 00 . ... : 9-# 00 8 ... : ... .. . ... ... : ... .. . ... ... : ... .. . ... ... : G#2 01 F ... ...
ROW 6F : ... .. B ... ... ... : ... .. . P81 ... ... : ... .. . ... : ... .. 6 ... : ... .. . ... ... : ... .. . ... ... : ... .. . ... ... : ... .. D ... ...
ROW 70 : ... .. A ... ... ... : ... .. . P80 ... ... : ... .. . ... : ... .. 3 ... : ... .. . ... ... : ... .. . ... ... : ... .. . ... ... : ... .. 8 ... ...
ROW 71 : ... .. 8 ... ... ... : D-5 00 A P82 ... ... : ... .. . ... : ... .. 1 ... : ... .. . ... ... : ... .. . ... ... : ... .. . ... ... : ... .. . ... ...
ROW 72 : ... .. 1 ... ... ... : ... .. . P7E ... ... : ... .. . ... : ... .. . ... : ... .. . ... ... : ... .. . ... ... : ... .. . ... ... : ... .. . ... ...
ROW 73 : ... .. . ... ... ... : C#5 00 A P81 ... ... : --- .. . ... : ... .. 0 ... : ... .. . ... ... : ... .. . ... ... : ... .. . ... ... : --- .. . P7F ...
ROW 74 : G-1 00 C ... ... ... : ... .. . P80 ... ... : G-3 00 . ... : 7-# 00 F ... : ... .. . ... ... : ... .. . ... ... : ... .. . ... ... : G-2 01 F P80 ...
ROW 75 : ... .. B ... ... ... : ... .. . P82 ... ... : ... .. . ... : ... .. C ... : ... .. . ... ... : ... .. . ... ... : ... .. . ... ... : ... .. D ... ...
ROW 76 : ... .. A ... ... ... : D-5 00 A P80 ... ... : ... .. . ... : ... .. 6 ... : ... .. . ... ... : ... .. . ... ... : ... .. . ... ... : ... .. 8 ... ...
ROW 77 : ... .. 8 ... ... ... : D#5 00 A P7E ... ... : ... .. . ... : ... .. 3 ... : ... .. . ... ... : ... .. . ... ... : ... .. . ... ... : ... .. . ... ...
ROW 78 : ... .. 1 ... ... ... : ... .. . P81 ... ... : ... .. . ... : ... .. 2 ... : ... .. . ... ... : ... .. . ... ... : ... .. . ... ... : ... .. . ... ...
ROW 79 : ... .. . ... ... ... : ... .. . ... ... ... : --- .. . ... : ... .. 0 ... : ... .. . ... ... : ... .. . ... ... : ... .. . ... ... : --- .. . P7D ...
ROW 7A : ... .. C ... ... ... : D-5 00 A P82 ... ... : G-2 00 . ... : 5-# 00 8 ... : ... .. . ... ... : ... .. . ... ... : ... .. . ... ... : G-1 01 F P80 ...
ROW 7B : ... .. B ... ... ... : ... .. . P7F ... ... : ... .. . ... : ... .. 6 ... : ... .. . ... ... : ... .. . ... ... : ... .. . ... ... : ... .. D ... ...
ROW 7C : ... .. A ... ... ... : C#5 00 A P81 ... ... : ... .. . ... : ... .. 3 ... : ... .. . ... ... : ... .. . ... ... : ... .. . ... ... : ... .. 8 ... ...
ROW 7D : ... .. 8 ... ... ... : ... .. . P80 ... ... : ... .. . ... : ... .. 1 ... : ... .. . ... ... : ... .. . ... ... : ... .. . ... ... : ... .. . ... ...
ROW 7E : ... .. 1 ... ... ... : ... .. . P82 ... ... : ... .. . ... : ... .. . ... : ... .. . ... ... : ... .. . ... ... : ... .. . ... ... : ... .. . ... ...
ROW 7F : ... .. . ... ... ... : D-5 00 A P80 ... ... : --- .. . ... : ... .. 0 ... : ... .. . ... ... : ... .. . ... ... : ... .. . ... ... : --- .. . P81 ...
ROW 80 : ... .. C ... ... ... : D#5 00 A P7E ... ... : F#4 00 . ... : 1-# 00 F ... : ... .. . ... ... : A#4 01 8 ... ... : D-5 01 8 ... ... : G-1 01 F P80 ...
ROW 81 : ... .. B ... ... ... : ... .. 2 P81 ... ... : G#3 00 . ... : ... .. C ... : ... .. . ... ... : ... .. 7 ... ... : ... .. 7 ... ... : ... .. D ... ...
ROW 82 : ... .. A ... ... ... : ... .. . ... ... ... : C#3 00 . ... : ... .. 6 ... : ... .. . ... ... : ... .. 6 ... ... : ... .. 6 ... ... : ... .. 8 ... ...
ROW 83 : ... .. 8 ... ... ... : ... .. . P7E ... ... : C-3 00 . ... : ... .. 3 ... : ... .. . ... ... : ... .. 5 ... ... : ... .. 5 ... ... : ... .. . ... ...
ROW 84 : ... .. 1 ... ... ... : D-5 00 1 P80 ... ... : G-2 00 . ... : ... .. 2 ... : ... .. . ... ... : ... .. . ... ... : ... .. . ... ... : ... .. . ... ...
ROW 85 : ... .. . ... ... ... : C#5 00 1 P82 ... ... : ... .. . ... : ... .. 0 ... : ... .. . ... ... : ... .. 4 ... ... : ... .. 4 ... ... : ... .. . ... ...
ROW 86 : ... .. C ... ... ... : F#4 00 F P80 ... ... : ... .. . ... : C-# 00 8 ... : ... .. . ... ... : ... .. . ... ... : ... .. . ... ... : ... .. . ... ...
ROW 87 : ... .. B ... ... ... : ... .. E ... ... ... : ... .. . ... : ... .. 6 ... : ... .. . ... ... : ... .. . ... ... : ... .. . ... ... : ... .. . ... ...
ROW 88 : ... .. A ... ... ... : ... .. D ... ... ... : ... .. . ... : ... .. 3 ... : ... .. . ... ... : ... .. . ... ... : ... .. . ... ... : ... .. . ... ...
ROW 89 : ... .. 8 ... ... ... : ... .. A ... ... ... : F#2 00 . P82 : ... .. 1 ... : ... .. . ... ... : ... .. . ... ... : ... .. . ... ... : ... .. . P60 ...
ROW 8A : ... .. 1 ... ... ... : ... .. . ... ... ... : F-2 00 . P86 : ... .. . ... : ... .. . ... ... : ... .. . ... ... : ... .. . ... ... : F#1 01 8 P8D ...
ROW 8B : ... .. . ... ... ... : ... .. . ... ... ... : E-2 00 . P8C : ... .. 0 ... : ... .. . ... ... : ... .. . ... ... : ... .. . ... ... : ... .. . P6D ...
ROW 8C : D-2 00 C ... ... ... : G-4 00 F ... ... ... : D#2 00 . P94 : ... .. 8 ... : ... .. . ... ... : ... .. . ... ... : ... .. . ... ... : F-1 01 8 P9F ...
ROW 8D : ... .. B ... ... ... : ... .. E ... ... ... : ... .. . P74 : ... .. 6 ... : ... .. . ... ... : ... .. . ... ... : ... .. . ... ... : ... .. . P7F ...
ROW 8E : ... .. A ... ... ... : ... .. D ... ... ... : D-2 00 . P7F : ... .. 3 ... : ... .. . ... ... : ... .. . ... ... : ... .. . ... ... : ... .. . P5F ...
ROW 8F : ... .. 8 ... ... ... : ... .. A ... ... ... : C#2 00 . P8C : ... .. 1 ... : ... .. . ... ... : ... .. . ... ... : ... .. . ... ... : E-1 01 8 P96 ...
ROW 90 : ... .. . ... ... ... : ... .. . ... ... ... : ... .. . P6C : ... .. . ... : ... .. . ... ... : ... .. . ... ... : ... .. . ... ... : ... .. . P76 ...
ROW 91 : ... .. . ... ... ... : ... .. . ... ... ... : C-2 00 . P7C : ... .. 0 ... : ... .. . ... ... : ... .. . ... ... : ... .. . ... ... : ... .. . P56 ...
ROW 92 : C#2 00 C ... ... ... : C-5 00 F ... ... ... : F#5 00 . P80 : 1-# 00 F ... : ... .. . ... ... : ... .. 8 ... ... : D#5 01 8 ... ... : G-2 01 F P80 ...
ROW 93 : ... .. B ... ... ... : ... .. E ... ... ... : G#4 00 . ... : ... .. C ... : ... .. . ... ... : ... .. 7 ... ... : ... .. 7 ... ... : ... .. D ... ...
ROW 94 : ... .. A ... ... ... : ... .. D ... ... ... : C#4 00 . ... : ... .. 6 ... : ... .. . ... ... : ... .. 6 ... ... : ... .. 6 ... ... : ... .. 8 ... ...
ROW 95 : ... .. 8 ... ... ... : ... .. A ... ... ... : C-4 00 . ... : ... .. 3 ... : ... .. . ... ... : ... .. 5 ... ... : ... .. 5 ... ... : ... .. . ... ...
ROW 96 : ... .. 1 ... ... ... : ... .. . ... ... ... : G-3 00 . ... : ... .. 2 ... : ... .. . ... ... : ... .. . ... ... : ... .. . ... ... : ... .. . ... ...
ROW 97 : ... .. . ... ... ... : ... .. . ... ... ... : --- .. . ... : ... .. 0 ... : ... .. . ... ... : ... .. 4 ... ... : ... .. 4 ... ... : --- .. . P7D ...
ROW 98 : D-2 00 C ... ... ... : ... .. . ... ... ... : F-3 00 . ... : C-# 00 8 ... : ... .. . ... ... : ... .. . ... ... : ... .. . ... ... : F-2 01 F P80 ...
ROW 99 : ... .. B ... ... ... : ... .. . ... ... ... : ... .. . ... : ... .. 6 ... : ... .. . ... ... : ... .. . ... ... : ... .. . ... ... : ... .. D ... ...
ROW 9A : ... .. A ... ... ... : ... .. . ... ... ... : ... .. . ... : ... .. 3 ... : ... .. . ... ... : ... .. . ... ... : ... .. . ... ... : ... .. 8 ... ...
ROW 9B : ... .. 8 ... ... ... : ... .. . ... ... ... : ... .. . ... : ... .. 1 ... : ... .. . ... ... : ... .. . ... ... : ... .. . ... ... : ... .. . ... ...
ROW 9C : ... .. 1 ... ... ... : ... .. . ... ... ... : ... .. . ... : ... .. . ... : ... .. . ... ... : ... .. . ... ... : ... .. . ... ... : ... .. . ... ...
ROW 9D : ... .. . ... ... ... : ... .. . ... ... ... : --- .. . ... : ... .. 0 ... : ... .. . ... ... : ... .. . ... ... : ... .. . ... ... : --- .. . P7E ...
ROW 9E : A#1 00 C ... ... ... : ... .. . ... ... ... : G-3 00 . ... : ... .. 8 ... : ... .. . ... ... : ... .. . ... ... : ... .. . ... ... : G-2 01 F P80 ...
ROW 9F : ... .. B ... ... ... : ... .. . ... ... ... : ... .. . ... : ... .. 6 ... : ... .. . ... ... : ... .. . ... ... : ... .. . ... ... : ... .. D ... ...
ROW A0 : ... .. A ... ... ... : ... .. . ... ... ... : ... .. . ... : ... .. 3 ... : ... .. . ... ... : ... .. . ... ... : ... .. . ... ... : ... .. 8 ... ...
ROW A1 : ... .. 8 ... ... ... : ... .. . ... ... ... : --- .. . ... : ... .. 1 ... : ... .. . ... ... : ... .. . ... ... : ... .. . ... ... : --- .. . P7D ...
ROW A2 : ... .. . ... ... ... : ... .. . ... ... ... : ... .. . ... : ... .. . ... : ... .. . ... ... : ... .. . ... ... : ... .. . ... ... : ... .. . ... ...
ROW A3 : ... .. . ... ... ... : ... .. . ... ... ... : ... .. . ... : ... .. 0 ... : ... .. . ... ... : ... .. . ... ... : ... .. . ... ... : ... .. . ... ...
ROW A4 : A#2 00 C ... ... ... : C#5 00 A P7E ... ... : C#6 00 . ... : 7-# 00 F ... : ... .. . ... ... : ... .. . ... ... : ... .. . ... ... : D-3 01 F P80 ...
ROW A5 : ... .. B ... ... ... : ... .. . P80 ... ... : D#5 00 . ... : ... .. C ... : ... .. . ... ... : ... .. . ... ... : ... .. . ... ... : ... .. D ... ...
ROW A6 : ... .. A ... ... ... : ... .. . P7F ... ... : G#4 00 . ... : ... .. 6 ... : ... .. . ... ... : ... .. . ... ... : ... .. . ... ... : ... .. 8 ... ...
ROW A7 : ... .. 8 ... ... ... : C-5 00 A P82 ... ... : G-4 00 . ... : ... .. 3 ... : ... .. . ... ... : ... .. . ... ... : ... .. . ... ... : ... .. . ... ...
ROW A8 : ... .. 1 ... ... ... : ... .. . P7E ... ... : D-4 00 . ... : ... .. 2 ... : ... .. . ... ... : ... .. . ... ... : ... .. . ... ... : ... .. . ... ...
ROW A9 : ... .. . ... ... ... : B-4 00 A P81 ... ... : ... .. . ... : ... .. 0 ... : ... .. . ... ... : ... .. . ... ... : ... .. . ... ... : ... .. . ... ...
ROW AA : ... .. C ... ... ... : ... .. . P80 ... ... : ... .. . ... : 1-# 00 8 ... : ... .. . ... ... : ... .. . ... ... : ... .. . ... ... : ... .. . ... ...
ROW AB : ... .. B ... ... ... : ... .. . P82 ... ... : ... .. . ... : ... .. 6 ... : ... .. . ... ... : ... .. . ... ... : ... .. . ... ... : ... .. . ... ...
ROW AC : ... .. A ... ... ... : C-5 00 A P80 ... ... : ... .. . ... : ... .. 3 ... : ... .. . ... ... : ... .. . ... ... : ... .. . ... ... : ... .. . ... ...
ROW AD : ... .. 8 ... ... ... : ... .. . P83 ... ... : ... .. . ... : ... .. 1 ... : ... .. . ... ... : ... .. . ... ... : ... .. . ... ... : ... .. . ... ...
ROW AE : ... .. 1 ... ... ... : C#5 00 A P80 ... ... : ... .. . ... : ... .. . ... : ... .. . ... ... : ... .. . ... ... : ... .. . ... ... : ... .. . ... ...
ROW AF : ... .. . ... ... ... : ... .. . ... ... ... : ... .. . ... : ... .. 0 ... : ... .. . ... ... : ... .. . ... ... : ... .. . ... ... : ... .. . ... ...
ROW B0 : C#2 00 C ... ... ... : D-5 00 F ... ... ... : C#4 00 . ... : 7-# 00 F ... : ... .. . ... ... : ... .. . ... ... : ... .. . ... ... : C#3 01 F ... ...
ROW B1 : ... .. B ... ... ... : ... .. E ... ... ... : ... .. . ... : ... .. C ... : ... .. . ... ... : ... .. . ... ... : ... .. . ... ... : ... .. D ... ...
ROW B2 : ... .. A ... ... ... : ... .. D ... ... ... : ... .. . ... : ... .. 6 ... : ... .. . ... ... : ... .. . ... ... : ... .. . ... ... : ... .. 8 ... ...
ROW B3 : ... .. 8 ... ... ... : C-5 00 F ... ... ... : ... .. . ... : ... .. 3 ... : ... .. . ... ... : ... .. . ... ... : ... .. . ... ... : ... .. . ... ...
ROW B4 : ... .. 1 ... ... ... : ... .. E ... ... ... : ... .. . ... : ... .. 2 ... : ... .. . ... ... : ... .. . ... ... : ... .. . ... ... : ... .. . ... ...
ROW B5 : ... .. . ... ... ... : ... .. D ... ... ... : ... .. . ... : ... .. 0 ... : ... .. . ... ... : ... .. . ... ... : ... .. . ... ... : ... .. . ... ...
ROW B6 : C#3 00 C ... ... ... : A#4 00 F ... ... ... : ... .. . ... : 1-# 00 8 ... : ... .. . ... ... : ... .. . ... ... : ... .. . ... ... : ... .. . ... ...
ROW B7 : ... .. B ... ... ... : ... .. E ... ... ... : ... .. . ... : ... .. 6 ... : ... .. . ... ... : ... .. . ... ... : ... .. . ... ... : ... .. . ... ...
ROW B8 : ... .. A ... ... ... : ... .. D ... ... ... : ... .. . ... : ... .. 3 ... : ... .. . ... ... : ... .. . ... ... : ... .. . ... ... : ... .. . ... ...
ROW B9 : ... .. 8 ... ... ... : ... .. A ... ... ... : ... .. . ... : ... .. 1 ... : ... .. . ... ... : ... .. . ... ... : ... .. . ... ... : ... .. . ... ...
ROW BA : ... .. 1 ... ... ... : ... .. . ... ... ... : ... .. . ... : ... .. . ... : ... .. . ... ... : ... .. . ... ... : ... .. . ... ... : ... .. . ... ...
ROW BB : ... .. . ... ... ... : ... .. . ... ... ... : --- .. . ... : ... .. 0 ... : ... .. . ... ... : ... .. . ... ... : ... .. . ... ... : --- .. . ... ...
ROW BC : ... .. C ... ... ... : A-4 00 F ... ... ... : G-3 00 . ... : 7-# 00 F ... : ... .. . ... ... : ... .. . ... ... : ... .. . ... ... : G-2 01 F ... ...
ROW BD : ... .. B ... ... ... : ... .. E ... ... ... : ... .. . ... : ... .. C ... : ... .. . ... ... : ... .. . ... ... : ... .. . ... ... : ... .. D ... ...
ROW BE : ... .. A ... ... ... : ... .. D ... ... ... : ... .. . ... : ... .. 6 ... : ... .. . ... ... : ... .. . ... ... : ... .. . ... ... : ... .. 8 ... ...
ROW BF : ... .. 8 ... ... ... : ... .. A ... ... ... : ... .. . ... : ... .. 3 ... : ... .. . ... ... : ... .. . ... ... : ... .. . ... ... : ... .. . ... ...
ROW C0 : ... .. 1 ... ... ... : ... .. . ... ... ... : ... .. . ... : ... .. 2 ... : ... .. . ... ... : ... .. . ... ... : ... .. . ... ... : ... .. . ... ...
ROW C1 : ... .. . ... ... ... : ... .. . ... ... ... : ... .. . ... : ... .. 0 ... : ... .. . ... ... : ... .. . ... ... : ... .. . ... ... : ... .. . ... ...
ROW C2 : G-2 00 C ... ... ... : G-4 00 F ... ... ... : ... .. . ... : 1-# 00 8 ... : ... .. . ... ... : ... .. . ... ... : ... .. . ... ... : ... .. . ... ...
ROW C3 : ... .. B ... ... ... : ... .. E ... ... ... : ... .. . ... : ... .. 6 ... : ... .. . ... ... : ... .. . ... ... : ... .. . ... ... : ... .. . ... ...
ROW C4 : ... .. A ... ... ... : ... .. D ... ... ... : ... .. . ... : ... .. 3 ... : ... .. . ... ... : ... .. . ... ... : ... .. . ... ... : ... .. . ... ...
ROW C5 : ... .. 8 ... ... ... : ... .. A ... ... ... : ... .. . ... : ... .. 1 ... : ... .. . ... ... : ... .. . ... ... : ... .. . ... ... : ... .. . ... ...
ROW C6 : ... .. 1 ... ... ... : ... .. . ... ... ... : ... .. . ... : ... .. . ... : ... .. . ... ... : ... .. . ... ... : ... .. . ... ... : ... .. . ... ...
ROW C7 : ... .. . ... ... ... : ... .. . ... ... ... : --- .. . ... : ... .. 0 ... : ... .. . ... ... : ... .. . ... ... : ... .. . ... ... : --- .. . P7D ...
ROW C8 : F#3 00 C ... ... ... : F#4 00 F ... ... ... : F#5 00 . ... : ... .. F ... : ... .. . ... ... : ... .. 8 ... ... : D-4 01 8 ... ... : G-2 01 F P80 ...
ROW C9 : ... .. B ... ... ... : ... .. E ... ... ... : G#4 00 . ... : ... .. C ... : ... .. . ... ... : ... .. 7 ... ... : ... .. 7 ... ... : ... .. D ... ...
ROW CA : ... .. A ... ... ... : ... .. D ... ... ... : C#4 00 . ... : ... .. 6 ... : ... .. . ... ... : ... .. 6 ... ... : ... .. 6 ... ... : ... .. 8 ... ...
ROW CB : ... .. 8 ... ... ... : ... .. A ... ... ... : C-4 00 . ... : ... .. 3 ... : ... .. . ... ... : ... .. 5 ... ... : ... .. 5 ... ... : ... .. . ... ...
ROW CC : ... .. . ... ... ... : ... .. . ... ... ... : G-3 00 . ... : ... .. 2 ... : ... .. . ... ... : ... .. . ... ... : ... .. . ... ... : ... .. . ... ...
ROW CD : ... .. . ... ... ... : ... .. . ... ... ... : ... .. . ... : ... .. 0 ... : ... .. . ... ... : ... .. 4 ... ... : ... .. 4 ... ... : ... .. . ... ...
ROW CE : G-1 00 C ... ... ... : G-4 00 F ... ... ... : ... .. . ... : C-# 00 8 ... : ... .. . ... ... : A#3 01 8 ... ... : A#3 01 8 ... ... : ... .. . ... ...
ROW CF : ... .. B ... ... ... : ... .. E ... ... ... : ... .. . ... : ... .. 6 ... : ... .. . ... ... : ... .. 7 ... ... : ... .. 7 ... ... : ... .. . ... ...
ROW D0 : ... .. A ... ... ... : ... .. D ... ... ... : ... .. . ... : ... .. 3 ... : ... .. . ... ... : ... .. 6 ... ... : ... .. 6 ... ... : ... .. . ... ...
ROW D1 : ... .. 8 ... ... ... : ... .. A ... ... ... : F-3 00 . P83 : ... .. 1 ... : ... .. . ... ... : ... .. 5 ... ... : ... .. 5 ... ... : F#2 01 8 P87 ...
ROW D2 : ... .. 1 ... ... ... : ... .. . ... ... ... : E-3 00 . P76 : ... .. . ... : ... .. . ... ... : ... .. . ... ... : ... .. . ... ... : F-2 01 8 P90 ...
ROW D3 : ... .. . ... ... ... : ... .. . ... ... ... : D-3 00 . P80 : ... .. 0 ... : ... .. . ... ... : ... .. 4 ... ... : ... .. 4 ... ... : ... .. . P70 ...
ROW D4 : ... .. C ... ... ... : D-4 00 F ... ... ... : C#3 00 . P77 : ... .. 8 ... : ... .. . ... ... : G-3 01 8 ... ... : G-3 01 8 ... ... : E-2 01 8 P7C ...
ROW D5 : ... .. B ... ... ... : ... .. E ... ... ... : B-2 00 . P88 : ... .. 6 ... : ... .. . ... ... : ... .. 7 ... ... : ... .. 7 ... ... : D#2 01 8 P8A ...
ROW D6 : ... .. A ... ... ... : ... .. D ... ... ... : A#2 00 . P83 : ... .. 3 ... : ... .. . ... ... : ... .. 6 ... ... : ... .. 6 ... ... : ... .. . P6A ...
ROW D7 : ... .. 8 ... ... ... : ... .. A ... ... ... : A-2 00 . P7F : ... .. 1 ... : ... .. . ... ... : ... .. 5 ... ... : ... .. 5 ... ... : D-2 01 8 P7B ...
ROW D8 : ... .. 1 ... ... ... : ... .. . ... ... ... : G#2 00 . P7E : ... .. . ... : ... .. . ... ... : ... .. . ... ... : ... .. . ... ... : C#2 01 8 P8E ...
ROW D9 : ... .. . ... ... ... : ... .. . ... ... ... : G-2 00 . ... : ... .. 0 ... : ... .. . ... ... : ... .. 4 ... ... : ... .. 4 ... ... : ... .. . P6E ...
ROW DA : F#3 00 C ... ... ... : A#3 00 F ... ... ... : F#5 00 . P80 : 1-# 00 F ... : ... .. . ... ... : A#4 01 8 ... ... : D-4 01 8 ... ... : G-2 01 F P80 ...
ROW DB : ... .. B ... ... ... : ... .. E ... ... ... : G#4 00 . ... : ... .. C ... : ... .. . ... ... : ... .. 7 ... ... : ... .. 7 ... ... : ... .. D ... ...
ROW DC : ... .. A ... ... ... : ... .. D ... ... ... : C#4 00 . ... : ... .. 6 ... : ... .. . ... ... : ... .. 6 ... ... : ... .. 6 ... ... : ... .. 8 ... ...
ROW DD : ... .. 8 ... ... ... : ... .. A ... ... ... : C-4 00 . ... : ... .. 3 ... : ... .. . ... ... : ... .. 5 ... ... : ... .. 5 ... ... : ... .. . ... ...
ROW DE : ... .. . ... ... ... : ... .. . ... ... ... : G-3 00 . ... : ... .. 2 ... : ... .. . ... ... : ... .. . ... ... : ... .. . ... ... : ... .. . ... ...
ROW DF : ... .. . ... ... ... : ... .. . ... ... ... : ... .. . ... : ... .. 0 ... : ... .. . ... ... : ... .. 4 ... ... : ... .. 4 ... ... : ... .. . ... ...
ROW E0 : G-1 00 C ... ... ... : A-3 00 F ... ... ... : ... .. . ... : C-# 00 8 ... : ... .. . ... ... : A#3 01 8 ... ... : A#3 01 8 ... ... : ... .. . ... ...
ROW E1 : ... .. B ... ... ... : ... .. E ... ... ... : ... .. . ... : ... .. 6 ... : ... .. . ... ... : ... .. 7 ... ... : ... .. 7 ... ... : ... .. . ... ...
ROW E2 : ... .. A ... ... ... : ... .. D ... ... ... : ... .. . ... : ... .. 3 ... : ... .. . ... ... : ... .. 6 ... ... : ... .. 6 ... ... : ... .. . ... ...
ROW E3 : ... .. 8 ... ... ... : ... .. A ... ... ... : F-3 00 . P83 : ... .. 1 ... : ... .. . ... ... : ... .. 5 ... ... : ... .. 5 ... ... : F#2 01 8 P87 ...
ROW E4 : ... .. 1 ... ... ... : ... .. . ... ... ... : E-3 00 . P76 : ... .. . ... : ... .. . ... ... : ... .. . ... ... : ... .. . ... ... : F-2 01 8 P90 ...
ROW E5 : ... .. . ... ... ... : ... .. . ... ... ... : D-3 00 . P80 : ... .. 0 ... : ... .. . ... ... : ... .. 4 ... ... : ... .. 4 ... ... : ... .. . P70 ...
ROW E6 : ... .. C ... ... ... : G-3 00 F ... ... ... : C#3 00 . P77 : ... .. 8 ... : ... .. . ... ... : G-3 01 8 ... ... : G-3 01 8 ... ... : E-2 01 8 P7C ...
ROW E7 : ... .. B ... ... ... : ... .. E ... ... ... : B-2 00 . P88 : ... .. 6 ... : ... .. . ... ... : ... .. 7 ... ... : ... .. 7 ... ... : D#2 01 8 P8A ...
ROW E8 : ... .. A ... ... ... : ... .. D ... ... ... : A#2 00 . P83 : ... .. 3 ... : ... .. . ... ... : ... .. 6 ... ... : ... .. 6 ... ... : ... .. . P6A ...
ROW E9 : ... .. 8 ... ... ... : ... .. A ... ... ... : A-2 00 . P7F : ... .. 1 ... : ... .. . ... ... : ... .. 5 ... ... : ... .. 5 ... ... : D-2 01 8 P7B ...
ROW EA : ... .. 1 ... ... ... : ... .. . ... ... ... : G#2 00 . P7E : ... .. . ... : ... .. . ... ... : ... .. . ... ... : ... .. . ... ... : C#2 01 8 P8E ...
ROW EB : ... .. . ... ... ... : ... .. . ... ... ... : G-2 00 . ... : ... .. 0 ... : ... .. . ... ... : ... .. 4 ... ... : ... .. 4 ... ... : ... .. . P6E ...
ROW EC : F-3 00 C ... ... ... : D-3 00 F ... ... ... : F#4 00 . P80 : 7-# 00 F ... : ... .. . ... ... : A#4 01 8 ... ... : D-4 01 8 ... ... : G-1 01 F P80 ...
ROW ED : ... .. B ... ... ... : ... .. E ... ... ... : G#3 00 . ... : ... .. C ... : ... .. . ... ... : ... .. 7 ... ... : ... .. 7 ... ... : ... .. D ... ...
ROW EE : ... .. A ... ... ... : ... .. D ... ... ... : C#3 00 . ... : ... .. 6 ... : ... .. . ... ... : ... .. 6 ... ... : ... .. 6 ... ... : ... .. 8 ... ...
ROW EF : ... .. 8 ... ... ... : ... .. A ... ... ... : C-3 00 . ... : ... .. 3 ... : ... .. . ... ... : ... .. 5 ... ... : ... .. 5 ... ... : ... .. . ... ...
ROW F0 : ... .. . ... ... ... : ... .. . ... ... ... : G-2 00 . ... : ... .. 2 ... : ... .. . ... ... : ... .. . ... ... : ... .. . ... ... : ... .. . ... ...
ROW F1 : ... .. . ... ... ... : ... .. . ... ... ... : ... .. . ... : ... .. 0 ... : ... .. . ... ... : ... .. 4 ... ... : ... .. 4 ... ... : ... .. . ... ...
ROW F2 : G-1 00 C ... ... ... : A#2 00 F ... ... ... : ... .. . ... : ... .. 8 ... : ... .. . ... ... : A#3 01 8 ... ... : A#3 01 8 ... ... : ... .. . ... ...
ROW F3 : ... .. B ... ... ... : ... .. E ... ... ... : ... .. . ... : ... .. 6 ... : ... .. . ... ... : ... .. 7 ... ... : ... .. 7 ... ... : ... .. . ... ...
ROW F4 : ... .. A ... ... ... : ... .. D ... ... ... : ... .. . ... : ... .. 3 ... : ... .. . ... ... : ... .. 6 ... ... : ... .. 6 ... ... : ... .. . ... ...
ROW F5 : ... .. 8 ... ... ... : ... .. A ... ... ... : F#2 00 . P82 : ... .. 1 ... : ... .. . ... ... : ... .. 5 ... ... : ... .. 5 ... ... : ... .. . P60 ...
ROW F6 : ... .. 1 ... ... ... : ... .. . ... ... ... : F-2 00 . P86 : ... .. . ... : ... .. . ... ... : ... .. . ... ... : ... .. . ... ... : F#1 01 8 P8D ...
ROW F7 : ... .. . ... ... ... : ... .. . ... ... ... : E-2 00 . P8C : ... .. 0 ... : ... .. . ... ... : ... .. 4 ... ... : ... .. 4 ... ... : ... .. . P6D ...
ROW F8 : ... .. C ... ... ... : A-2 00 F ... ... ... : D#2 00 . P94 : 4-# 00 F ... : ... .. . ... ... : C#3 01 8 ... ... : F-3 01 8 ... ... : F-1 01 8 P9F ...
ROW F9 : ... .. B ... ... ... : ... .. E ... ... ... : ... .. . P74 : ... .. C ... : ... .. . ... ... : ... .. 7 ... ... : ... .. 7 ... ... : ... .. . P7F ...
ROW FA : ... .. A ... ... ... : ... .. D ... ... ... : D-2 00 . P7F : ... .. 6 ... : ... .. . ... ... : ... .. 6 ... ... : ... .. 6 ... ... : ... .. . P5F ...
ROW FB : ... .. 8 ... ... ... : ... .. A ... ... ... : C#2 00 . P8C : ... .. 3 ... : ... .. . ... ... : ... .. 5 ... ... : ... .. 5 ... ... : E-1 01 8 P96 ...
ROW FC : ... .. 1 ... ... ... : ... .. . ... ... ... : ... .. . P6C : ... .. 2 ... : ... .. . ... ... : ... .. . ... ... : ... .. . ... ... : ... .. . P76 ...
ROW FD : ... .. . ... ... ... : ... .. . ... ... ... : C-2 00 . P7C : ... .. 0 ... : ... .. . ... ... : ... .. 4 ... ... : ... .. 4 ... ... : ... .. . P56 ...
ROW FE : F-3 00 C ... ... ... : A#2 00 F ... ... ... : F#4 00 . P80 : 9-# 00 8 ... : ... .. . ... ... : A#4 01 8 ... ... : D-4 01 8 ... ... : G-1 01 F P80 ...
ROW FF : ... .. B ... ... ... : ... .. E ... ... ... : G#3 00 . ... : ... .. 6 ... : ... .. . ... ... : ... .. 7 ... ... : ... .. 7 ... ... : ... .. D ... ...

PATTERN 17
ROW 00 : ... .. A ... ... ... : ... .. D ... ... ... : C#3 00 . ... : ... .. 3 ... : ... .. . ... ... : ... .. 6 ... ... : ... .. 6 ... ... : ... .. 8 ... ...
ROW 01 : ... .. 8 ... ... ... : ... .. A ... ... ... : C-3 00 . ... : ... .. 1 ... : ... .. . ... ... : ... .. 5 ... ... : ... .. 5 ... ... : ... .. . ... ...
ROW 02 : ... .. . ... ... ... : ... .. . ... ... ... : G-2 00 . ... : ... .. . ... : ... .. . ... ... : ... .. . ... ... : ... .. . ... ... : ... .. . ... ...
ROW 03 : ... .. . ... ... ... : ... .. . ... ... ... : ... .. . ... : ... .. 0 ... : ... .. . ... ... : ... .. 4 ... ... : ... .. 4 ... ... : ... .. . ... ...
ROW 04 : G-1 00 C ... ... ... : A-2 00 F ... ... ... : ... .. . ... : 7-# 00 F ... : ... .. . ... ... : A#3 01 8 ... ... : A#3 01 8 ... ... : ... .. . ... ...
ROW 05 : ... .. B ... ... ... : ... .. E ... ... ... : ... .. . ... : ... .. C ... : ... .. . ... ... : ... .. 7 ... ... : ... .. 7 ... ... : ... .. . ... ...
ROW 06 : ... .. A ... ... ... : ... .. D ... ... ... : ... .. . ... : ... .. 6 ... : ... .. . ... ... : ... .. 6 ... ... : ... .. 6 ... ... : ... .. . ... ...
ROW 07 : ... .. 8 ... ... ... : ... .. A ... ... ... : F#2 00 . P82 : ... .. 3 ... : ... .. . ... ... : ... .. 5 ... ... : ... .. 5 ... ... : ... .. . P60 ...
ROW 08 : ... .. 1 ... ... ... : ... .. . ... ... ... : F-2 00 . P86 : ... .. 2 ... : ... .. . ... ... : ... .. . ... ... : ... .. . ... ... : F#1 01 8 P8D ...
ROW 09 : ... .. . ... ... ... : ... .. . ... ... ... : E-2 00 . P8C : ... .. 0 ... : ... .. . ... ... : ... .. 4 ... ... : ... .. 4 ... ... : ... .. . P6D ...
ROW 0A : ... .. C ... ... ... : G-2 00 F ... ... ... : D#2 00 . P94 : 5-# 00 8 ... : ... .. . ... ... : C#3 01 8 ... ... : F-3 01 8 ... ... : F-1 01 8 P9F ...
ROW 0B : ... .. B ... ... ... : ... .. E ... ... ... : ... .. . P74 : ... .. 6 ... : ... .. . ... ... : ... .. 7 ... ... : ... .. 7 ... ... : ... .. . P7F ...
ROW 0C : ... .. A ... ... ... : ... .. D ... ... ... : D-2 00 . P7F : ... .. 3 ... : ... .. . ... ... : ... .. 6 ... ... : ... .. 6 ... ... : ... .. . P5F ...
ROW 0D : ... .. 8 ... ... ... : ... .. A ... ... ... : C#2 00 . P8C : ... .. 1 ... : ... .. . ... ... : ... .. 5 ... ... : ... .. 5 ... ... : E-1 01 8 P96 ...
ROW 0E : ... .. 1 ... ... ... : ... .. . ... ... ... : ... .. . P6C : ... .. . ... : ... .. . ... ... : ... .. . ... ... : ... .. . ... ... : ... .. . P76 ...
ROW 0F : ... .. . ... ... ... : ... .. . ... ... ... : C-2 00 . P7C : ... .. 0 ... : ... .. . ... ... : ... .. 4 ... ... : ... .. 4 ... ... : ... .. . P56 ...
ROW 10 : F#1 00 C ... ... ... : F#2 00 A P72 ... ... : F-4 00 . P80 : 8-# 00 D ... : ... .. . ... ... : F#4 01 A ... ... : C#4 01 A ... ... : F#1 01 F P80 ...
ROW 11 : ... .. B ... ... ... : E-2 00 A P8C ... ... : G-3 00 . ... : ... .. . ... : ... .. . ... ... : ... .. 9 ... ... : ... .. 9 ... ... : ... .. D ... ...
ROW 12 : ... .. A ... ... ... : D#2 00 A P84 ... ... : C-3 00 . ... : ... .. . ... : ... .. . ... ... : ... .. 8 ... ... : ... .. 8 ... ... : ... .. 8 ... ...
ROW 13 : ... .. 8 ... ... ... : E-2 00 A P8C ... ... : B-2 00 . ... : B-# 00 D ... : ... .. . ... ... : ... .. 7 ... ... : ... .. 7 ... ... : ... .. . ... ...
ROW 14 : ... .. 1 ... ... ... : F#2 00 A P72 ... ... : F#2 00 . ... : ... .. . ... : ... .. . ... ... : ... .. . ... ... : ... .. . ... ... : ... .. . ... ...
ROW 15 : ... .. . ... ... ... : G-2 00 A P80 ... ... : ... .. . ... : ... .. . ... : ... .. . ... ... : ... .. 6 ... ... : ... .. 6 ... ... : ... .. . ... ...
ROW 16 : ... .. C ... ... ... : A-2 00 F ... ... ... : ... .. . ... : ... .. . ... : ... .. . ... ... : ... .. . ... ... : ... .. . ... ... : ... .. . ... ...
ROW 17 : ... .. B ... ... ... : ... .. E ... ... ... : ... .. . ... : ... .. . ... : ... .. . ... ... : ... .. 5 ... ... : ... .. 5 ... ... : ... .. . ... ...
ROW 18 : ... .. A ... ... ... : ... .. D ... ... ... : ... .. . ... : ... .. . ... : ... .. . ... ... : ... .. . ... ... : ... .. . ... ... : ... .. . ... ...
ROW 19 : ... .. 8 ... ... ... : ... .. A ... ... ... : F-2 00 . P84 : ... .. A ... : ... .. . ... ... : ... .. . ... ... : ... .. . ... ... : ... .. . P60 ...
ROW 1A : ... .. 1 ... ... ... : ... .. 2 ... ... ... : E-2 00 . P8A : ... .. . ... : ... .. . ... ... : ... .. . ... ... : ... .. . ... ... : F-1 01 8 P92 ...
ROW 1B : ... .. . ... ... ... : ... .. . ... ... ... : D#2 00 . P92 : ... .. . ... : ... .. . ... ... : ... .. . ... ... : ... .. . ... ... : ... .. . P72 ...
ROW 1C : C#2 00 C ... ... ... : A#2 00 F ... ... ... : ... .. . P72 : ... .. 9 ... : ... .. . ... ... : D#4 01 5 P7D ... : A#3 01 5 P86 ... : E-1 01 8 PA9 ...
ROW 1D : ... .. B ... ... ... : ... .. E ... ... ... : D-2 00 . P7D : ... .. . ... : ... .. . ... ... : C-4 01 5 P7F ... : G#3 01 5 P83 ... : ... .. . P89 ...
ROW 1E : ... .. A ... ... ... : ... .. D ... ... ... : C#2 00 . P8A : ... .. . ... : ... .. . ... ... : A-3 01 5 P87 ... : F#3 01 5 P84 ... : ... .. . P69 ...
ROW 1F : ... .. 8 ... ... ... : ... .. A ... ... ... : ... .. . P6A : ... .. 8 ... : ... .. . ... ... : G-3 01 5 P86 ... : E-3 01 5 P89 ... : D#1 01 8 PA6 ...
ROW 20 : ... .. . ... ... ... : ... .. 2 ... ... ... : C-2 00 . P7A : ... .. . ... : ... .. . ... ... : F-3 01 5 P89 ... : D#3 01 5 P7E ... : ... .. . P86 ...
ROW 21 : ... .. . ... ... ... : ... .. . ... ... ... : B-1 00 . P8D : ... .. . ... : ... .. . ... ... : E-3 01 5 P7C ... : C#3 01 5 P8A ... : ... .. . P66 ...
ROW 22 : C-2 00 C ... ... ... : A#4 00 F ... ... ... : F-5 00 . P80 : ... .. 7 ... : ... .. . ... ... : F#4 01 A P80 ... : C#4 01 A P80 ... : F#2 01 F P80 ...
ROW 23 : ... .. B ... ... ... : ... .. E ... ... ... : G-4 00 . ... : ... .. . ... : ... .. . ... ... : ... .. 9 ... ... : ... .. 9 ... ... : ... .. D ... ...
ROW 24 : ... .. A ... ... ... : ... .. D ... ... ... : C-4 00 . ... : ... .. . ... : ... .. . ... ... : ... .. 8 ... ... : ... .. 8 ... ... : ... .. 8 ... ...
ROW 25 : ... .. 8 ... ... ... : ... .. A ... ... ... : B-3 00 . ... : ... .. 6 ... : ... .. . ... ... : ... .. 7 ... ... : ... .. 7 ... ... : ... .. . ... ...
ROW 26 : ... .. 1 ... ... ... : ... .. . ... ... ... : F#3 00 . ... : ... .. . ... : ... .. . ... ... : ... .. . ... ... : ... .. . ... ... : ... .. . ... ...
ROW 27 : ... .. . ... ... ... : ... .. . ... ... ... : --- .. . ... : ... .. . ... : ... .. . ... ... : ... .. 6 ... ... : ... .. 6 ... ... : --- .. . P84 ...
ROW 28 : C#2 00 C ... ... ... : A-4 00 F ... ... ... : E-3 00 . ... : ... .. 5 ... : ... .. . ... ... : ... .. . ... ... : ... .. . ... ... : E-2 01 F P80 ...
ROW 29 : ... .. B ... ... ... : ... .. E ... ... ... : ... .. . ... : ... .. . ... : ... .. . ... ... : ... .. 5 ... ... : ... .. 5 ... ... : ... .. D ... ...
ROW 2A : ... .. A ... ... ... : ... .. D ... ... ... : ... .. . ... : ... .. . ... : ... .. . ... ... : ... .. . ... ... : ... .. . ... ... : ... .. 8 ... ...
ROW 2B : ... .. 8 ... ... ... : ... .. A ... ... ... : ... .. . ... : ... .. 4 ... : ... .. . ... ... : ... .. . ... ... : ... .. . ... ... : ... .. . ... ...
ROW 2C : ... .. . ... ... ... : ... .. 2 ... ... ... : ... .. . ... : ... .. . ... : ... .. . ... ... : ... .. . ... ... : ... .. . ... ... : ... .. . ... ...
ROW 2D : ... .. . ... ... ... : ... .. . ... ... ... : --- .. . ... : ... .. . ... : ... .. . ... ... : ... .. . ... ... : ... .. . ... ... : --- .. . P89 ...
ROW 2E : A-1 00 C ... ... ... : ... .. F ... ... ... : F#3 00 . ... : ... .. 3 ... : ... .. . ... ... : D#4 01 5 P7D ... : A#3 01 5 P86 ... : F#2 01 F P80 ...
ROW 2F : ... .. B ... ... ... : ... .. E ... ... ... : ... .. . ... : ... .. . ... : ... .. . ... ... : C-4 01 5 P7F ... : G#3 01 5 P83 ... : ... .. D ... ...
ROW 30 : ... .. A ... ... ... : ... .. D ... ... ... : ... .. . ... : ... .. . ... : ... .. . ... ... : A-3 01 5 P87 ... : F#3 01 5 P84 ... : ... .. 8 ... ...
ROW 31 : ... .. 8 ... ... ... : ... .. A ... ... ... : --- .. . ... : ... .. 2 ... : ... .. . ... ... : G-3 01 5 P86 ... : E-3 01 5 P89 ... : --- .. . P84 ...
ROW 32 : ... .. 1 ... ... ... : ... .. . ... ... ... : ... .. . ... : ... .. . ... : ... .. . ... ... : F-3 01 5 P89 ... : D#3 01 5 P7E ... : ... .. . ... ...
ROW 33 : ... .. . ... ... ... : ... .. . ... ... ... : ... .. . ... : ... .. . ... : ... .. . ... ... : E-3 01 5 P7C ... : C#3 01 5 P8A ... : ... .. . ... ...
ROW 34 : F-2 00 C ... ... ... : ... .. . ... ... ... : C#6 00 . ... : 7-# 00 F ... : ... .. . ... ... : F#4 01 A P80 ... : C#4 01 A P80 ... : D-3 01 F P80 ...
ROW 35 : ... .. B ... ... ... : ... .. . ... ... ... : D#5 00 . ... : ... .. C ... : ... .. . ... ... : ... .. 9 ... ... : ... .. 9 ... ... : ... .. D ... ...
ROW 36 : ... .. A ... ... ... : ... .. . ... ... ... : G#4 00 . ... : ... .. 6 ... : ... .. . ... ... : ... .. 8 ... ... : ... .. 8 ... ... : ... .. 8 ... ...
ROW 37 : ... .. 8 ... ... ... : ... .. . ... ... ... : G-4 00 . ... : ... .. 3 ... : ... .. . ... ... : ... .. 7 ... ... : ... .. 7 ... ... : ... .. . ... ...
ROW 38 : ... .. . ... ... ... : ... .. . ... ... ... : D-4 00 . ... : ... .. 2 ... : ... .. . ... ... : ... .. . ... ... : ... .. . ... ... : ... .. . ... ...
ROW 39 : ... .. . ... ... ... : ... .. . ... ... ... : ... .. . ... : ... .. 0 ... : ... .. . ... ... : ... .. 6 ... ... : ... .. 6 ... ... : ... .. . ... ...
ROW 3A : ... .. C ... ... ... : ... .. . ... ... ... : ... .. . ... : 1-# 00 8 ... : ... .. . ... ... : ... .. . ... ... : ... .. . ... ... : ... .. . ... ...
ROW 3B : ... .. B ... ... ... : ... .. . ... ... ... : ... .. . ... : ... .. 6 ... : ... .. . ... ... : ... .. 5 ... ... : ... .. 5 ... ... : ... .. . ... ...
ROW 3C : ... .. A ... ... ... : ... .. . ... ... ... : ... .. . ... : ... .. 3 ... : ... .. . ... ... : ... .. . ... ... : ... .. . ... ... : ... .. . ... ...
ROW 3D : ... .. 8 ... ... ... : ... .. . ... ... ... : ... .. . ... : ... .. 1 ... : ... .. . ... ... : ... .. . ... ... : ... .. . ... ... : ... .. . ... ...
ROW 3E : ... .. 1 ... ... ... : ... .. . ... ... ... : ... .. . ... : ... .. . ... : ... .. . ... ... : ... .. . ... ... : ... .. . ... ... : ... .. . ... ...
ROW 3F : ... .. . ... ... ... : ... .. . ... ... ... : ... .. . ... : ... .. 0 ... : ... .. . ... ... : ... .. . ... ... : ... .. . ... ... : ... .. . ... ...
ROW 40 : F#1 00 C ... ... ... : ... .. . ... ... ... : C#4 00 . ... : 7-# 00 F ... : ... .. . ... ... : D#4 01 5 P7D ... : A#3 01 5 P86 ... : C#3 01 F ... ...
ROW 41 : ... .. B ... ... ... : ... .. . ... ... ... : ... .. . ... : ... .. C ... : ... .. . ... ... : C-4 01 5 P7F ... : G#3 01 5 P83 ... : ... .. D ... ...
ROW 42 : ... .. A ... ... ... : ... .. . ... ... ... : ... .. . ... : ... .. 6 ... : ... .. . ... ... : A-3 01 5 P87 ... : F#3 01 5 P84 ... : ... .. 8 ... ...
ROW 43 : ... .. 8 ... ... ... : A#4 00 A P7D ... ... : ... .. . ... : ... .. 3 ... : ... .. . ... ... : G-3 01 5 P86 ... : E-3 01 5 P89 ... : ... .. . ... ...
ROW 44 : ... .. 1 ... ... ... : ... .. . P7F ... ... : ... .. . ... : ... .. 2 ... : ... .. . ... ... : F-3 01 5 P89 ... : D#3 01 5 P7E ... : ... .. . ... ...
ROW 45 : ... .. . ... ... ... : ... .. . P7E ... ... : ... .. . ... : ... .. 0 ... : ... .. . ... ... : E-3 01 5 P7C ... : C#3 01 5 P8A ... : ... .. . ... ...
ROW 46 : E-2 00 C ... ... ... : A-4 00 A P82 ... ... : ... .. . ... : 1-# 00 8 ... : ... .. . ... ... : F#4 01 A P80 ... : C#4 01 A P80 ... : ... .. . ... ...
ROW 47 : ... .. B ... ... ... : ... .. . P7E ... ... : ... .. . ... : ... .. 6 ... : ... .. . ... ... : ... .. 9 ... ... : ... .. 9 ... ... : ... .. . ... ...
ROW 48 : ... .. A ... ... ... : G#4 00 A P83 ... ... : ... .. . ... : ... .. 3 ... : ... .. . ... ... : ... .. 8 ... ... : ... .. 8 ... ... : ... .. . ... ...
ROW 49 : ... .. 8 ... ... ... : ... .. . P82 ... ... : ... .. . ... : ... .. 1 ... : ... .. . ... ... : ... .. 7 ... ... : ... .. 7 ... ... : ... .. . ... ...
ROW 4A : ... .. . ... ... ... : ... .. . P84 ... ... : ... .. . ... : ... .. . ... : ... .. . ... ... : ... .. . ... ... : ... .. . ... ... : ... .. . ... ...
ROW 4B : ... .. . ... ... ... : A-4 00 A P80 ... ... : --- .. . ... : ... .. 0 ... : ... .. . ... ... : ... .. 6 ... ... : ... .. 6 ... ... : --- .. . ... ...
ROW 4C : ... .. C ... ... ... : ... .. . P83 ... ... : F#3 00 . ... : 7-# 00 F ... : ... .. . ... ... : ... .. . ... ... : ... .. . ... ... : F#2 01 F ... ...
ROW 4D : ... .. B ... ... ... : A#4 00 A P7F ... ... : ... .. . ... : ... .. C ... : ... .. . ... ... : ... .. 5 ... ... : ... .. 5 ... ... : ... .. D ... ...
ROW 4E : ... .. A ... ... ... : ... .. . ... ... ... : ... .. . ... : ... .. 6 ... : ... .. . ... ... : ... .. . ... ... : ... .. . ... ... : ... .. 8 ... ...
ROW 4F : ... .. 8 ... ... ... : A-4 00 A P82 ... ... : ... .. . ... : ... .. 3 ... : ... .. . ... ... : ... .. . ... ... : ... .. . ... ... : ... .. . ... ...
ROW 50 : ... .. 1 ... ... ... : ... .. . P7F ... ... : ... .. . ... : ... .. 2 ... : ... .. . ... ... : ... .. . ... ... : ... .. . ... ... : ... .. . ... ...
ROW 51 : ... .. . ... ... ... : G#4 00 A P83 ... ... : ... .. . ... : ... .. 0 ... : ... .. . ... ... : ... .. . ... ... : ... .. . ... ... : ... .. . ... ...
ROW 52 : F#1 00 C ... ... ... : ... .. . P82 ... ... : ... .. . ... : 1-# 00 8 ... : ... .. . ... ... : D#4 01 5 P7D ... : A#3 01 5 P86 ... : ... .. . ... ...
ROW 53 : ... .. B ... ... ... : ... .. 2 P84 ... ... : ... .. . ... : ... .. 6 ... : ... .. . ... ... : C-4 01 5 P7F ... : G#3 01 5 P83 ... : ... .. . ... ...
ROW 54 : ... .. A ... ... ... : A-4 00 2 P80 ... ... : ... .. . ... : ... .. 3 ... : ... .. . ... ... : A-3 01 5 P87 ... : F#3 01 5 P84 ... : ... .. . ... ...
ROW 55 : ... .. 8 ... ... ... : ... .. . P83 ... ... : ... .. . ... : ... .. 1 ... : ... .. . ... ... : G-3 01 5 P86 ... : E-3 01 5 P89 ... : ... .. . ... ...
ROW 56 : ... .. 1 ... ... ... : A#4 00 1 P7F ... ... : ... .. . ... : ... .. . ... : ... .. . ... ... : F-3 01 5 P89 ... : D#3 01 5 P7E ... : ... .. . ... ...
ROW 57 : ... .. . ... ... ... : ... .. . ... ... ... : --- .. . ... : ... .. 0 ... : ... .. . ... ... : E-3 01 5 P7C ... : C#3 01 5 P8A ... : --- .. . P84 ...
ROW 58 : D#2 00 C ... ... ... : A-4 00 1 P83 ... ... : F-3 00 . ... : ... .. F ... : ... .. . ... ... : F-4 01 A P80 ... : C-4 01 A P80 ... : F#0 01 F P80 ...
ROW 59 : ... .. B ... ... ... : ... .. 0 ... ... ... : G-2 00 . ... : ... .. C ... : ... .. . ... ... : ... .. 9 ... ... : ... .. 9 ... ... : ... .. D ... ...
ROW 5A : ... .. A ... ... ... : ... .. . ... ... ... : C-2 00 . ... : ... .. 6 ... : ... .. . ... ... : ... .. 8 ... ... : ... .. 8 ... ... : ... .. 8 ... ...
ROW 5B : ... .. 8 ... ... ... : ... .. . ... ... ... : B-1 00 . ... : ... .. 3 ... : ... .. . ... ... : ... .. 7 ... ... : ... .. 7 ... ... : ... .. . ... ...
ROW 5C : ... .. . ... ... ... : ... .. . ... ... ... : F#1 00 . ... : ... .. 2 ... : ... .. . ... ... : ... .. . ... ... : ... .. . ... ... : ... .. . ... ...
ROW 5D : ... .. . ... ... ... : ... .. . ... ... ... : ... .. . ... : ... .. 0 ... : ... .. . ... ... : ... .. 6 ... ... : ... .. 6 ... ... : ... .. . ... ...
ROW 5E : ... .. C ... ... ... : A-2 00 F P80 ... ... : ... .. . ... : C-# 00 8 ... : ... .. . ... ... : ... .. . ... ... : ... .. . ... ... : ... .. . ... ...
ROW 5F : ... .. B ... ... ... : ... .. E ... ... ... : ... .. . ... : ... .. 6 ... : ... .. . ... ... : ... .. 5 ... ... : ... .. 5 ... ... : ... .. . ... ...
ROW 60 : ... .. A ... ... ... : ... .. D ... ... ... : ... .. . ... : ... .. 3 ... : ... .. . ... ... : ... .. . ... ... : ... .. . ... ... : ... .. . ... ...
ROW 61 : ... .. 8 ... ... ... : ... .. A ... ... ... : ... .. . P60 : ... .. 1 ... : ... .. . ... ... : ... .. . ... ... : ... .. . ... ... : ... .. . P60 ...
ROW 62 : ... .. 1 ... ... ... : ... .. 2 ... ... ... : F-1 00 . P88 : ... .. . ... : ... .. . ... ... : ... .. . ... ... : ... .. . ... ... : ... .. . P40 ...
ROW 63 : ... .. . ... ... ... : ... .. . ... ... ... : ... .. . P68 : ... .. 0 ... : ... .. . ... ... : ... .. . ... ... : ... .. . ... ... : F-0 01 8 PC5 ...
ROW 64 : A-1 00 C ... ... ... : A#2 00 F ... ... ... : E-1 00 . P94 : ... .. 8 ... : ... .. . ... ... : D-4 01 5 P7E ... : A#3 01 5 P7A ... : ... .. . PA5 ...
ROW 65 : ... .. B ... ... ... : ... .. E ... ... ... : ... .. . P74 : ... .. 6 ... : ... .. . ... ... : B-3 01 5 P82 ... : G-3 01 5 P87 ... : ... .. . P85 ...
ROW 66 : ... .. A ... ... ... : ... .. D ... ... ... : D#1 00 . PA5 : ... .. 3 ... : ... .. . ... ... : A-3 01 5 P7E ... : F#3 01 5 P78 ... : ... .. . P65 ...
ROW 67 : ... .. 8 ... ... ... : ... .. A ... ... ... : ... .. . P85 : ... .. 1 ... : ... .. . ... ... : G-3 01 5 P7D ... : E-3 01 5 P7D ... : ... .. . P45 ...
ROW 68 : ... .. 1 ... ... ... : ... .. 2 ... ... ... : ... .. . P65 : ... .. . ... : ... .. . ... ... : F-3 01 5 P80 ... : D-3 01 5 P87 ... : E-0 01 8 PD3 ...
ROW 69 : ... .. . ... ... ... : ... .. . ... ... ... : D-1 00 . P9B : ... .. 0 ... : ... .. . ... ... : D#3 01 5 P88 ... : C#3 01 5 P7E ... : ... .. . PB3 ...
ROW 6A : ... .. C ... ... ... : A#3 00 F ... ... ... : F#2 00 . P80 : 1-# 00 F ... : ... .. . ... ... : F-4 01 A P80 ... : C-4 01 A P80 ... : F#1 01 F P80 ...
ROW 6B : ... .. B ... ... ... : ... .. E ... ... ... : ... .. . ... : ... .. C ... : ... .. . ... ... : ... .. 9 ... ... : ... .. 9 ... ... : ... .. D ... ...
ROW 6C : ... .. A ... ... ... : ... .. D ... ... ... : ... .. . ... : ... .. 6 ... : ... .. . ... ... : ... .. 8 ... ... : ... .. 8 ... ... : ... .. 8 ... ...
ROW 6D : ... .. 8 ... ... ... : ... .. A ... ... ... : ... .. . ... : ... .. 3 ... : ... .. . ... ... : ... .. 7 ... ... : ... .. 7 ... ... : ... .. . ... ...
ROW 6E : ... .. 1 ... ... ... : ... .. . ... ... ... : ... .. . ... : ... .. 2 ... : ... .. . ... ... : ... .. . ... ... : ... .. . ... ... : ... .. . ... ...
ROW 6F : ... .. . ... ... ... : ... .. . ... ... ... : ... .. . ... : ... .. 0 ... : ... .. . ... ... : ... .. 6 ... ... : ... .. 6 ... ... : ... .. . ... ...
ROW 70 : C-2 00 C ... ... ... : A-3 00 F ... ... ... : E-2 00 . ... : C-# 00 8 ... : ... .. . ... ... : ... .. . ... ... : ... .. . ... ... : E-1 01 F ... ...
ROW 71 : ... .. B ... ... ... : ... .. E ... ... ... : ... .. . ... : ... .. 6 ... : ... .. . ... ... : ... .. 5 ... ... : ... .. 5 ... ... : ... .. D ... ...
ROW 72 : ... .. A ... ... ... : ... .. D ... ... ... : ... .. . ... : ... .. 3 ... : ... .. . ... ... : ... .. . ... ... : ... .. . ... ... : ... .. 8 ... ...
ROW 73 : ... .. 8 ... ... ... : ... .. A ... ... ... : ... .. . ... : ... .. 1 ... : ... .. . ... ... : ... .. . ... ... : ... .. . ... ... : ... .. . ... ...
ROW 74 : ... .. 1 ... ... ... : ... .. 2 ... ... ... : ... .. . ... : ... .. . ... : ... .. . ... ... : ... .. . ... ... : ... .. . ... ... : ... .. . ... ...
ROW 75 : ... .. . ... ... ... : ... .. . ... ... ... : --- .. . ... : ... .. 0 ... : ... .. . ... ... : ... .. . ... ... : ... .. . ... ... : --- .. . P82 ...
ROW 76 : ... .. C ... ... ... : ... .. F ... ... ... : F#2 00 . ... : ... .. 8 ... : ... .. . ... ... : D-4 01 5 P7E ... : A#3 01 5 P7A ... : F#1 01 F P80 ...
ROW 77 : ... .. B ... ... ... : ... .. E ... ... ... : ... .. . ... : ... .. 6 ... : ... .. . ... ... : B-3 01 5 P82 ... : G-3 01 5 P87 ... : ... .. D ... ...
ROW 78 : ... .. A ... ... ... : ... .. D ... ... ... : ... .. . ... : ... .. 3 ... : ... .. . ... ... : A-3 01 5 P7E ... : F#3 01 5 P78 ... : ... .. 8 ... ...
ROW 79 : ... .. 8 ... ... ... : ... .. A ... ... ... : ... .. . ... : ... .. 1 ... : ... .. . ... ... : G-3 01 5 P7D ... : E-3 01 5 P7D ... : ... .. . ... ...
ROW 7A : ... .. 1 ... ... ... : ... .. . ... ... ... : ... .. . ... : ... .. . ... : ... .. . ... ... : F-3 01 5 P80 ... : D-3 01 5 P87 ... : ... .. . ... ...
ROW 7B : ... .. . ... ... ... : ... .. . ... ... ... : ... .. . ... : ... .. 0 ... : ... .. . ... ... : D#3 01 5 P88 ... : C#3 01 5 P7E ... : ... .. . ... ...
ROW 7C : B-1 00 C ... ... ... : ... .. . ... ... ... : F-5 00 . ... : 7-# 00 F ... : ... .. . ... ... : F-4 01 A P80 ... : C-4 01 A P80 ... : F#2 01 F ... ...
ROW 7D : ... .. B ... ... ... : ... .. . ... ... ... : G-4 00 . ... : ... .. C ... : ... .. . ... ... : ... .. 9 ... ... : ... .. 9 ... ... : ... .. D ... ...
ROW 7E : ... .. A ... ... ... : ... .. . ... ... ... : C-4 00 . ... : ... .. 6 ... : ... .. . ... ... : ... .. 8 ... ... : ... .. 8 ... ... : ... .. 8 ... ...
ROW 7F : ... .. 8 ... ... ... : ... .. . ... ... ... : B-3 00 . ... : ... .. 3 ... : ... .. . ... ... : ... .. 7 ... ... : ... .. 7 ... ... : ... .. . ... ...
ROW 80 : ... .. . ... ... ... : ... .. . ... ... ... : F#3 00 . ... : ... .. 2 ... : ... .. . ... ... : ... .. . ... ... : ... .. . ... ... : ... .. . ... ...
ROW 81 : ... .. . ... ... ... : ... .. . ... ... ... : --- .. . ... : ... .. 0 ... : ... .. . ... ... : ... .. 6 ... ... : ... .. 6 ... ... : --- .. . P84 ...
ROW 82 : ... .. C ... ... ... : ... .. . ... ... ... : E-3 00 . ... : ... .. 8 ... : ... .. . ... ... : ... .. . ... ... : ... .. . ... ... : E-2 01 F P80 ...
ROW 83 : ... .. B ... ... ... : ... .. . ... ... ... : ... .. . ... : ... .. 6 ... : ... .. . ... ... : ... .. 5 ... ... : ... .. 5 ... ... : ... .. D ... ...
ROW 84 : ... .. A ... ... ... : ... .. . ... ... ... : ... .. . ... : ... .. 3 ... : ... .. . ... ... : ... .. . ... ... : ... .. . ... ... : ... .. 8 ... ...
ROW 85 : ... .. 8 ... ... ... : ... .. . ... ... ... : ... .. . ... : ... .. 1 ... : ... .. . ... ... : ... .. . ... ... : ... .. . ... ... : ... .. . ... ...
ROW 86 : ... .. 1 ... ... ... : ... .. . ... ... ... : ... .. . ... : ... .. . ... : ... .. . ... ... : ... .. . ... ... : ... .. . ... ... : ... .. . ... ...
ROW 87 : ... .. . ... ... ... : ... .. . ... ... ... : --- .. . ... : ... .. 0 ... : ... .. . ... ... : ... .. . ... ... : ... .. . ... ... : --- .. . P89 ...
ROW 88 : F#1 00 C ... ... ... : ... .. . ... ... ... : A-3 00 . ... : 4-# 00 F ... : ... .. . ... ... : ... .. A ... ... : ... .. A ... ... : A-2 01 F P80 ...
ROW 89 : ... .. B ... ... ... : ... .. . ... ... ... : ... .. . ... : ... .. C ... : ... .. . ... ... : ... .. 9 ... ... : ... .. 9 ... ... : ... .. D ... ...
ROW 8A : ... .. A ... ... ... : ... .. . ... ... ... : ... .. . ... : ... .. 6 ... : ... .. . ... ... : ... .. 8 ... ... : ... .. 8 ... ... : ... .. 8 ... ...
ROW 8B : ... .. 8 ... ... ... : ... .. . P84 ... ... : ... .. . ... : ... .. 3 ... : ... .. . ... ... : ... .. 7 ... ... : ... .. 7 ... ... : ... .. . ... ...
ROW 8C : ... .. 1 ... ... ... : ... .. . P86 ... ... : ... .. . ... : ... .. 2 ... : ... .. . ... ... : ... .. . ... ... : ... .. . ... ... : ... .. . ... ...
ROW 8D : ... .. . ... ... ... : ... .. . P85 ... ... : ... .. . ... : ... .. 0 ... : ... .. . ... ... : ... .. 6 ... ... : ... .. 6 ... ... : ... .. . ... ...
ROW 8E : ... .. C ... ... ... : ... .. . P82 ... ... : G-3 00 . ... : 9-# 00 8 ... : ... .. . ... ... : ... .. . ... ... : ... .. . ... ... : G-2 01 F ... ...
ROW 8F : ... .. B ... ... ... : ... .. . P7E ... ... : ... .. . ... : ... .. 6 ... : ... .. . ... ... : ... .. 5 ... ... : ... .. 5 ... ... : ... .. D ... ...
ROW 90 : ... .. A ... ... ... : ... .. . P7B ... ... : ... .. . ... : ... .. 3 ... : ... .. . ... ... : ... .. . ... ... : ... .. . ... ... : ... .. 8 ... ...
ROW 91 : ... .. 8 ... ... ... : ... .. . P7A ... ... : ... .. . ... : ... .. 1 ... : ... .. . ... ... : ... .. . ... ... : ... .. . ... ... : ... .. . ... ...
ROW 92 : ... .. . ... ... ... : ... .. . P7C ... ... : ... .. . ... : ... .. . ... : ... .. . ... ... : ... .. . ... ... : ... .. . ... ... : ... .. . ... ...
ROW 93 : ... .. . ... ... ... : ... .. . P80 ... ... : --- .. . ... : ... .. 0 ... : ... .. . ... ... : ... .. . ... ... : ... .. . ... ... : --- .. . P7D ...
ROW 94 : E-1 00 C ... ... ... : ... .. . P83 ... ... : F#3 00 . ... : 7-# 00 F ... : ... .. . ... ... : ... .. A ... ... : ... .. A ... ... : F#2 01 F P80 ...
ROW 95 : ... .. B ... ... ... : ... .. . P86 ... ... : ... .. . ... : ... .. C ... : ... .. . ... ... : ... .. 9 ... ... : ... .. 9 ... ... : ... .. D ... ...
ROW 96 : ... .. A ... ... ... : ... .. . ... ... ... : ... .. . ... : ... .. 6 ... : ... .. . ... ... : ... .. 8 ... ... : ... .. 8 ... ... : ... .. 8 ... ...
ROW 97 : ... .. 8 ... ... ... : ... .. . P82 ... ... : ... .. . ... : ... .. 3 ... : ... .. . ... ... : ... .. 7 ... ... : ... .. 7 ... ... : ... .. . ... ...
ROW 98 : ... .. 1 ... ... ... : ... .. . P7F ... ... : ... .. . ... : ... .. 2 ... : ... .. . ... ... : ... .. . ... ... : ... .. . ... ... : ... .. . ... ...
ROW 99 : ... .. . ... ... ... : ... .. . P7B ... ... : --- .. . ... : ... .. 0 ... : ... .. . ... ... : ... .. 6 ... ... : ... .. 6 ... ... : --- .. . P84 ...
ROW 9A : ... .. C ... ... ... : ... .. . P7A ... ... : F#2 00 . ... : 5-# 00 8 ... : ... .. . ... ... : ... .. . ... ... : ... .. . ... ... : F#1 01 F P80 ...
ROW 9B : ... .. B ... ... ... : ... .. . P7C ... ... : ... .. . ... : ... .. 6 ... : ... .. . ... ... : ... .. 5 ... ... : ... .. 5 ... ... : ... .. D ... ...
ROW 9C : ... .. A ... ... ... : ... .. . P80 ... ... : ... .. . ... : ... .. 3 ... : ... .. . ... ... : ... .. . ... ... : ... .. . ... ... : ... .. 8 ... ...
ROW 9D : ... .. 8 ... ... ... : ... .. . P83 ... ... : ... .. . ... : ... .. 1 ... : ... .. . ... ... : ... .. . ... ... : ... .. . ... ... : ... .. . ... ...
ROW 9E : ... .. 1 ... ... ... : ... .. 2 P86 ... ... : ... .. . ... : ... .. . ... : ... .. . ... ... : ... .. . ... ... : ... .. . ... ... : ... .. . ... ...
ROW 9F : ... .. . ... ... ... : ... .. . ... ... ... : --- .. . ... : ... .. 0 ... : ... .. . ... ... : ... .. . ... ... : ... .. . ... ... : --- .. . P81 ...
ROW A0 : F#1 00 C ... ... ... : ... .. . P83 ... ... : F-4 00 . ... : 1-# 00 F ... : ... .. . ... ... : E-4 01 A ... ... : B-3 01 A ... ... : F#1 01 F P80 ...
ROW A1 : ... .. B ... ... ... : ... .. 1 P80 ... ... : G-3 00 . ... : ... .. C ... : ... .. . ... ... : ... .. 9 ... ... : ... .. 9 ... ... : ... .. D ... ...
ROW A2 : ... .. A ... ... ... : ... .. . P7C ... ... : C-3 00 . ... : ... .. 6 ... : ... .. . ... ... : ... .. 8 ... ... : ... .. 8 ... ... : ... .. 8 ... ...
ROW A3 : ... .. 8 ... ... ... : ... .. . P7A ... ... : B-2 00 . ... : ... .. 3 ... : ... .. . ... ... : ... .. 7 ... ... : ... .. 7 ... ... : ... .. . ... ...
ROW A4 : ... .. . ... ... ... : ... .. 0 ... ... ... : F#2 00 . ... : ... .. 2 ... : ... .. . ... ... : ... .. . ... ... : ... .. . ... ... : ... .. . ... ...
ROW A5 : ... .. . ... ... ... : ... .. . ... ... ... : ... .. . ... : ... .. 0 ... : ... .. . ... ... : ... .. 6 ... ... : ... .. 6 ... ... : ... .. . ... ...
ROW A6 : ... .. C ... ... ... : A-2 00 F P80 ... ... : ... .. . ... : C-# 00 8 ... : ... .. . ... ... : ... .. . ... ... : ... .. . ... ... : ... .. . ... ...
ROW A7 : ... .. B ... ... ... : ... .. E ... ... ... : ... .. . ... : ... .. 6 ... : ... .. . ... ... : ... .. 5 ... ... : ... .. 5 ... ... : ... .. . ... ...
ROW A8 : ... .. A ... ... ... : ... .. D ... ... ... : ... .. . ... : ... .. 3 ... : ... .. . ... ... : ... .. . ... ... : ... .. . ... ... : ... .. . ... ...
ROW A9 : ... .. 8 ... ... ... : ... .. A ... ... ... : F-2 00 . P84 : ... .. 1 ... : ... .. . ... ... : ... .. . ... ... : ... .. . ... ... : ... .. . P60 ...
ROW AA : ... .. 1 ... ... ... : ... .. 2 ... ... ... : E-2 00 . P8A : ... .. . ... : ... .. . ... ... : ... .. . ... ... : ... .. . ... ... : F-1 01 8 P92 ...
ROW AB : ... .. . ... ... ... : ... .. . ... ... ... : D#2 00 . P92 : ... .. 0 ... : ... .. . ... ... : ... .. . ... ... : ... .. . ... ... : ... .. . P72 ...
ROW AC : C#2 00 C ... ... ... : A#2 00 F ... ... ... : ... .. . P72 : ... .. 8 ... : ... .. . ... ... : C#4 01 5 ... ... : A-3 01 5 P7C ... : E-1 01 8 PA9 ...
ROW AD : ... .. B ... ... ... : ... .. E ... ... ... : D-2 00 . P7D : ... .. 6 ... : ... .. . ... ... : A#3 01 5 P86 ... : G-3 01 5 P7B ... : ... .. . P89 ...
ROW AE : ... .. A ... ... ... : ... .. D ... ... ... : C#2 00 . P8A : ... .. 3 ... : ... .. . ... ... : G#3 01 5 P83 ... : F-3 01 5 P7E ... : ... .. . P69 ...
ROW AF : ... .. 8 ... ... ... : ... .. A ... ... ... : ... .. . P6A : ... .. 1 ... : ... .. . ... ... : F#3 01 5 P84 ... : D#3 01 5 P86 ... : D#1 01 8 PA6 ...
ROW B0 : ... .. 1 ... ... ... : ... .. 2 ... ... ... : C-2 00 . P7A : ... .. . ... : ... .. . ... ... : E-3 01 5 P89 ... : D-3 01 5 P7B ... : ... .. . P86 ...
ROW B1 : ... .. . ... ... ... : ... .. . ... ... ... : B-1 00 . P8D : ... .. 0 ... : ... .. . ... ... : D#3 01 5 P7E ... : C-3 01 5 P8A ... : ... .. . P66 ...
ROW B2 : C-2 00 C ... ... ... : A#4 00 F ... ... ... : F-5 00 . P80 : 1-# 00 F ... : ... .. . ... ... : E-4 01 A P80 ... : B-3 01 A P80 ... : F#2 01 F P80 ...
ROW B3 : ... .. B ... ... ... : ... .. E ... ... ... : G-4 00 . ... : ... .. C ... : ... .. . ... ... : ... .. 9 ... ... : ... .. 9 ... ... : ... .. D ... ...
ROW B4 : ... .. A ... ... ... : ... .. D ... ... ... : C-4 00 . ... : ... .. 6 ... : ... .. . ... ... : ... .. 8 ... ... : ... .. 8 ... ... : ... .. 8 ... ...
ROW B5 : ... .. 8 ... ... ... : ... .. A ... ... ... : B-3 00 . ... : ... .. 3 ... : ... .. . ... ... : ... .. 7 ... ... : ... .. 7 ... ... : ... .. . ... ...
ROW B6 : ... .. . ... ... ... : ... .. . ... ... ... : F#3 00 . ... : ... .. 2 ... : ... .. . ... ... : ... .. . ... ... : ... .. . ... ... : ... .. . ... ...
ROW B7 : ... .. . ... ... ... : ... .. . ... ... ... : --- .. . ... : ... .. 0 ... : ... .. . ... ... : ... .. 6 ... ... : ... .. 6 ... ... : --- .. . P84 ...
ROW B8 : C#2 00 C ... ... ... : A-4 00 F ... ... ... : E-3 00 . ... : C-# 00 8 ... : ... .. . ... ... : ... .. . ... ... : ... .. . ... ... : E-2 01 F P80 ...
ROW B9 : ... .. B ... ... ... : ... .. E ... ... ... : ... .. . ... : ... .. 6 ... : ... .. . ... ... : ... .. 5 ... ... : ... .. 5 ... ... : ... .. D ... ...
ROW BA : ... .. A ... ... ... : ... .. D ... ... ... : ... .. . ... : ... .. 3 ... : ... .. . ... ... : ... .. . ... ... : ... .. . ... ... : ... .. 8 ... ...
ROW BB : ... .. 8 ... ... ... : ... .. A ... ... ... : ... .. . ... : ... .. 1 ... : ... .. . ... ... : ... .. . ... ... : ... .. . ... ... : ... .. . ... ...
ROW BC : ... .. 1 ... ... ... : ... .. 2 ... ... ... : ... .. . ... : ... .. . ... : ... .. . ... ... : ... .. . ... ... : ... .. . ... ... : ... .. . ... ...
ROW BD : ... .. . ... ... ... : ... .. . ... ... ... : --- .. . ... : ... .. 0 ... : ... .. . ... ... : ... .. . ... ... : ... .. . ... ... : --- .. . P89 ...
ROW BE : A-1 00 C ... ... ... : ... .. F ... ... ... : F#3 00 . ... : ... .. 8 ... : ... .. . ... ... : C#4 01 5 ... ... : A-3 01 5 P7C ... : F#2 01 F P80 ...
ROW BF : ... .. B ... ... ... : ... .. E ... ... ... : ... .. . ... : ... .. 6 ... : ... .. . ... ... : A#3 01 5 P86 ... : G-3 01 5 P7B ... : ... .. D ... ...
ROW C0 : ... .. A ... ... ... : ... .. D ... ... ... : ... .. . ... : ... .. 3 ... : ... .. . ... ... : G#3 01 5 P83 ... : F-3 01 5 P7E ... : ... .. 8 ... ...
ROW C1 : ... .. 8 ... ... ... : ... .. A ... ... ... : --- .. . ... : ... .. 1 ... : ... .. . ... ... : F#3 01 5 P84 ... : D#3 01 5 P86 ... : --- .. . P84 ...
ROW C2 : ... .. . ... ... ... : ... .. . ... ... ... : ... .. . ... : ... .. . ... : ... .. . ... ... : E-3 01 5 P89 ... : D-3 01 5 P7B ... : ... .. . ... ...
ROW C3 : ... .. . ... ... ... : ... .. . ... ... ... : ... .. . ... : ... .. 0 ... : ... .. . ... ... : D#3 01 5 P7E ... : C-3 01 5 P8A ... : ... .. . ... ...
ROW C4 : A-2 00 C ... ... ... : ... .. . ... ... ... : C-6 00 . ... : 7-# 00 F ... : ... .. . ... ... : E-4 01 A P80 ... : B-3 01 A P80 ... : C#3 01 F P80 ...
ROW C5 : ... .. B ... ... ... : ... .. . ... ... ... : D-5 00 . ... : ... .. C ... : ... .. . ... ... : ... .. 9 ... ... : ... .. 9 ... ... : ... .. D ... ...
ROW C6 : ... .. A ... ... ... : ... .. . ... ... ... : G-4 00 . ... : ... .. 6 ... : ... .. . ... ... : ... .. 8 ... ... : ... .. 8 ... ... : ... .. 8 ... ...
ROW C7 : ... .. 8 ... ... ... : ... .. . ... ... ... : F#4 00 . ... : ... .. 3 ... : ... .. . ... ... : ... .. 7 ... ... : ... .. 7 ... ... : ... .. . ... ...
ROW C8 : ... .. 1 ... ... ... : ... .. . ... ... ... : C#4 00 . ... : ... .. 2 ... : ... .. . ... ... : ... .. . ... ... : ... .. . ... ... : ... .. . ... ...
ROW C9 : ... .. . ... ... ... : ... .. . ... ... ... : ... .. . ... : ... .. 0 ... : ... .. . ... ... : ... .. 6 ... ... : ... .. 6 ... ... : ... .. . ... ...
ROW CA : ... .. C ... ... ... : ... .. . ... ... ... : ... .. . ... : 1-# 00 8 ... : ... .. . ... ... : ... .. . ... ... : ... .. . ... ... : ... .. . ... ...
ROW CB : ... .. B ... ... ... : ... .. . ... ... ... : ... .. . ... : ... .. 6 ... : ... .. . ... ... : ... .. 5 ... ... : ... .. 5 ... ... : ... .. . ... ...
ROW CC : ... .. A ... ... ... : ... .. . ... ... ... : ... .. . ... : ... .. 3 ... : ... .. . ... ... : ... .. . ... ... : ... .. . ... ... : ... .. . ... ...
ROW CD : ... .. 8 ... ... ... : ... .. . ... ... ... : ... .. . ... : ... .. 1 ... : ... .. . ... ... : ... .. . ... ... : ... .. . ... ... : ... .. . ... ...
ROW CE : ... .. 1 ... ... ... : ... .. . ... ... ... : ... .. . ... : ... .. . ... : ... .. . ... ... : ... .. . ... ... : ... .. . ... ... : ... .. . ... ...
ROW CF : ... .. . ... ... ... : ... .. . ... ... ... : ... .. . ... : ... .. 0 ... : ... .. . ... ... : ... .. . ... ... : ... .. . ... ... : ... .. . ... ...
ROW D0 : C-2 00 C ... ... ... : ... .. . ... ... ... : C-4 00 . ... : 7-# 00 F ... : ... .. . ... ... : C#4 01 5 ... ... : A-3 01 5 P7C ... : C-3 01 F ... ...
ROW D1 : ... .. B ... ... ... : ... .. . ... ... ... : ... .. . ... : ... .. C ... : ... .. . ... ... : A#3 01 5 P86 ... : G-3 01 5 P7B ... : ... .. D ... ...
ROW D2 : ... .. A ... ... ... : ... .. . ... ... ... : ... .. . ... : ... .. 6 ... : ... .. . ... ... : G#3 01 5 P83 ... : F-3 01 5 P7E ... : ... .. 8 ... ...
ROW D3 : ... .. 8 ... ... ... : A#4 00 A P7D ... ... : ... .. . ... : ... .. 3 ... : ... .. . ... ... : F#3 01 5 P84 ... : D#3 01 5 P86 ... : ... .. . ... ...
ROW D4 : ... .. . ... ... ... : ... .. . P7F ... ... : ... .. . ... : ... .. 2 ... : ... .. . ... ... : E-3 01 5 P89 ... : D-3 01 5 P7B ... : ... .. . ... ...
ROW D5 : ... .. . ... ... ... : ... .. . P7E ... ... : ... .. . ... : ... .. 0 ... : ... .. . ... ... : D#3 01 5 P7E ... : C-3 01 5 P8A ... : ... .. . ... ...
ROW D6 : C-3 00 C ... ... ... : A-4 00 A P82 ... ... : ... .. . ... : 1-# 00 8 ... : ... .. . ... ... : E-4 01 A P80 ... : B-3 01 A P80 ... : ... .. . ... ...
ROW D7 : ... .. B ... ... ... : ... .. . P7E ... ... : ... .. . ... : ... .. 6 ... : ... .. . ... ... : ... .. 9 ... ... : ... .. 9 ... ... : ... .. . ... ...
ROW D8 : ... .. A ... ... ... : G#4 00 A P83 ... ... : ... .. . ... : ... .. 3 ... : ... .. . ... ... : ... .. 8 ... ... : ... .. 8 ... ... : ... .. . ... ...
ROW D9 : ... .. 8 ... ... ... : ... .. . P82 ... ... : ... .. . ... : ... .. 1 ... : ... .. . ... ... : ... .. 7 ... ... : ... .. 7 ... ... : ... .. . ... ...
ROW DA : ... .. 1 ... ... ... : ... .. . P84 ... ... : ... .. . ... : ... .. . ... : ... .. . ... ... : ... .. . ... ... : ... .. . ... ... : ... .. . ... ...
ROW DB : ... .. . ... ... ... : A-4 00 A P80 ... ... : --- .. . ... : ... .. 0 ... : ... .. . ... ... : ... .. 6 ... ... : ... .. 6 ... ... : --- .. . P7E ...
ROW DC : ... .. C ... ... ... : ... .. . P83 ... ... : F#3 00 . ... : 7-# 00 F ... : ... .. . ... ... : ... .. . ... ... : ... .. . ... ... : F#2 01 F P80 ...
ROW DD : ... .. B ... ... ... : A#4 00 A P7F ... ... : ... .. . ... : ... .. C ... : ... .. . ... ... : ... .. 5 ... ... : ... .. 5 ... ... : ... .. D ... ...
ROW DE : ... .. A ... ... ... : ... .. . ... ... ... : ... .. . ... : ... .. 6 ... : ... .. . ... ... : ... .. . ... ... : ... .. . ... ... : ... .. 8 ... ...
ROW DF : ... .. 8 ... ... ... : A-4 00 A P82 ... ... : ... .. . ... : ... .. 3 ... : ... .. . ... ... : ... .. . ... ... : ... .. . ... ... : ... .. . ... ...
ROW E0 : ... .. 1 ... ... ... : ... .. . P7F ... ... : ... .. . ... : ... .. 2 ... : ... .. . ... ... : ... .. . ... ... : ... .. . ... ... : ... .. . ... ...
ROW E1 : ... .. . ... ... ... : G#4 00 A P83 ... ... : ... .. . ... : ... .. 0 ... : ... .. . ... ... : ... .. . ... ... : ... .. . ... ... : ... .. . ... ...
ROW E2 : F#2 00 C ... ... ... : ... .. . P82 ... ... : ... .. . ... : 1-# 00 8 ... : ... .. . ... ... : C#4 01 5 ... ... : A-3 01 5 P7C ... : ... .. . ... ...
ROW E3 : ... .. B ... ... ... : ... .. . P84 ... ... : ... .. . ... : ... .. 6 ... : ... .. . ... ... : A#3 01 5 P86 ... : G-3 01 5 P7B ... : ... .. . ... ...
ROW E4 : ... .. A ... ... ... : A-4 00 A P80 ... ... : ... .. . ... : ... .. 3 ... : ... .. . ... ... : G#3 01 5 P83 ... : F-3 01 5 P7E ... : ... .. . ... ...
ROW E5 : ... .. 8 ... ... ... : ... .. . P83 ... ... : ... .. . ... : ... .. 1 ... : ... .. . ... ... : F#3 01 5 P84 ... : D#3 01 5 P86 ... : ... .. . ... ...
ROW E6 : ... .. . ... ... ... : A#4 00 A P7F ... ... : ... .. . ... : ... .. . ... : ... .. . ... ... : E-3 01 5 P89 ... : D-3 01 5 P7B ... : ... .. . ... ...
ROW E7 : ... .. . ... ... ... : ... .. . ... ... ... : --- .. . ... : ... .. 0 ... : ... .. . ... ... : D#3 01 5 P7E ... : C-3 01 5 P8A ... : --- .. . P84 ...
ROW E8 : F-3 00 C ... ... ... : A-4 00 A P83 ... ... : F-3 00 . ... : ... .. F ... : ... .. . ... ... : F-4 01 A P80 ... : A-3 01 A P80 ... : F#0 01 F P80 ...
ROW E9 : ... .. B ... ... ... : ... .. . P80 ... ... : G-2 00 . ... : ... .. C ... : ... .. . ... ... : ... .. 9 ... ... : ... .. 9 ... ... : ... .. D ... ...
ROW EA : ... .. A ... ... ... : G#4 00 A P84 ... ... : C-2 00 . ... : ... .. 6 ... : ... .. . ... ... : ... .. 8 ... ... : ... .. 8 ... ... : ... .. 8 ... ...
ROW EB : ... .. 8 ... ... ... : ... .. . P82 ... ... : B-1 00 . ... : ... .. 3 ... : ... .. . ... ... : ... .. 7 ... ... : ... .. 7 ... ... : ... .. . ... ...
ROW EC : ... .. 1 ... ... ... : ... .. . P83 ... ... : F#1 00 . ... : ... .. 2 ... : ... .. . ... ... : ... .. . ... ... : ... .. . ... ... : ... .. . ... ...
ROW ED : ... .. . ... ... ... : A-4 00 A P7F ... ... : ... .. . ... : ... .. 0 ... : ... .. . ... ... : ... .. 6 ... ... : ... .. 6 ... ... : ... .. . ... ...
ROW EE : F#1 00 C ... ... ... : ... .. . P82 ... ... : ... .. . ... : C-# 00 8 ... : ... .. . ... ... : A-3 01 A ... ... : C#3 01 A ... ... : ... .. . ... ...
ROW EF : ... .. B ... ... ... : A#4 00 A P7F ... ... : ... .. . ... : ... .. 6 ... : ... .. . ... ... : ... .. 9 ... ... : ... .. 9 ... ... : ... .. . ... ...
ROW F0 : ... .. A ... ... ... : ... .. . ... ... ... : ... .. . ... : ... .. 3 ... : ... .. . ... ... : ... .. 8 ... ... : ... .. 8 ... ... : ... .. . ... ...
ROW F1 : ... .. 8 ... ... ... : A-4 00 A P83 ... ... : ... .. . P60 : ... .. 1 ... : ... .. . ... ... : ... .. 7 ... ... : ... .. 7 ... ... : ... .. . P60 ...
ROW F2 : ... .. 1 ... ... ... : ... .. . P80 ... ... : F-1 00 . P88 : ... .. . ... : ... .. . ... ... : ... .. . ... ... : ... .. . ... ... : ... .. . P40 ...
ROW F3 : ... .. . ... ... ... : G#4 00 A P84 ... ... : ... .. . P68 : ... .. 0 ... : ... .. . ... ... : ... .. 6 ... ... : ... .. 6 ... ... : F-0 01 8 PC5 ...
ROW F4 : ... .. C ... ... ... : ... .. . P82 ... ... : E-1 00 . P94 : ... .. 8 ... : ... .. . ... ... : E-3 01 A ... ... : F#2 01 A ... ... : ... .. . PA5 ...
ROW F5 : ... .. B ... ... ... : ... .. . P83 ... ... : ... .. . P74 : ... .. 6 ... : ... .. . ... ... : ... .. 9 ... ... : ... .. 9 ... ... : ... .. . P85 ...
ROW F6 : ... .. A ... ... ... : A-4 00 A P7E ... ... : D#1 00 . PA5 : ... .. 3 ... : ... .. . ... ... : ... .. 8 ... ... : ... .. 8 ... ... : ... .. . P65 ...
ROW F7 : ... .. 8 ... ... ... : ... .. . P82 ... ... : ... .. . P85 : ... .. 1 ... : ... .. . ... ... : ... .. 7 ... ... : ... .. 7 ... ... : ... .. . P45 ...
ROW F8 : ... .. 1 ... ... ... : A#4 00 A P7E ... ... : ... .. . P65 : ... .. . ... : ... .. . ... ... : ... .. . ... ... : ... .. . ... ... : E-0 01 8 PD3 ...
ROW F9 : ... .. . ... ... ... : ... .. . P7F ... ... : D-1 00 . P9B : ... .. 0 ... : ... .. . ... ... : ... .. 6 ... ... : ... .. 6 ... ... : ... .. . PB3 ...
ROW FA : F-3 00 C ... ... ... : ... .. . P7D ... ... : F#2 00 . P80 : 1-# 00 F ... : ... .. . ... ... : F-4 01 A ... ... : A-3 01 A ... ... : F#1 01 F P80 ...
ROW FB : ... .. B ... ... ... : A-4 00 A P80 ... ... : ... .. . ... : ... .. C ... : ... .. . ... ... : ... .. 9 ... ... : ... .. 9 ... ... : ... .. D ... ...
ROW FC : ... .. A ... ... ... : ... .. . P7D ... ... : ... .. . ... : ... .. 6 ... : ... .. . ... ... : ... .. 8 ... ... : ... .. 8 ... ... : ... .. 8 ... ...
ROW FD : ... .. 8 ... ... ... : G#4 00 A P82 ... ... : ... .. . ... : ... .. 3 ... : ... .. . ... ... : ... .. 7 ... ... : ... .. 7 ... ... : ... .. . ... ...
ROW FE : ... .. 1 ... ... ... : ... .. . ... ... ... : ... .. . ... : ... .. 2 ... : ... .. . ... ... : ... .. . ... ... : ... .. . ... ... : ... .. . ... ...
ROW FF : ... .. . ... ... ... : A-4 00 A P7E ... ... : ... .. . ... : ... .. 0 ... : ... .. . ... ... : ... .. 6 ... ... : ... .. 6 ... ... : ... .. . ... ...

PATTERN 18
ROW 00 : F#1 00 C ... ... ... : ... .. . P81 ... ... : E-2 00 . ... : C-# 00 8 ... : ... .. . ... ... : A-3 01 A ... ... : C#3 01 A ... ... : E-1 01 F ... ...
ROW 01 : ... .. B ... ... ... : A#4 00 A P7E ... ... : ... .. . ... : ... .. 6 ... : ... .. . ... ... : ... .. 9 ... ... : ... .. 9 ... ... : ... .. D ... ...
ROW 02 : ... .. A ... ... ... : ... .. . P7F ... ... : ... .. . ... : ... .. 3 ... : ... .. . ... ... : ... .. 8 ... ... : ... .. 8 ... ... : ... .. 8 ... ...
ROW 03 : ... .. 8 ... ... ... : ... .. . P7D ... ... : ... .. . ... : ... .. 1 ... : ... .. . ... ... : ... .. 7 ... ... : ... .. 7 ... ... : ... .. . ... ...
ROW 04 : ... .. 1 ... ... ... : A-4 00 A P80 ... ... : ... .. . ... : ... .. . ... : ... .. . ... ... : ... .. . ... ... : ... .. . ... ... : ... .. . ... ...
ROW 05 : ... .. . ... ... ... : ... .. . P7D ... ... : --- .. . ... : ... .. 0 ... : ... .. . ... ... : ... .. 6 ... ... : ... .. 6 ... ... : --- .. . P82 ...
ROW 06 : ... .. C ... ... ... : G#4 00 A P82 ... ... : F#2 00 . ... : ... .. 8 ... : ... .. . ... ... : E-3 01 A ... ... : F#2 01 A ... ... : F#1 01 F P80 ...
ROW 07 : ... .. B ... ... ... : ... .. . ... ... ... : ... .. . ... : ... .. 6 ... : ... .. . ... ... : ... .. 9 ... ... : ... .. 9 ... ... : ... .. D ... ...
ROW 08 : ... .. A ... ... ... : A-4 00 A P7D ... ... : ... .. . ... : ... .. 3 ... : ... .. . ... ... : ... .. 8 ... ... : ... .. 8 ... ... : ... .. 8 ... ...
ROW 09 : ... .. 8 ... ... ... : ... .. . P80 ... ... : ... .. . ... : ... .. 1 ... : ... .. . ... ... : ... .. 7 ... ... : ... .. 7 ... ... : ... .. . ... ...
ROW 0A : ... .. . ... ... ... : A#4 00 A P7D ... ... : ... .. . ... : ... .. . ... : ... .. . ... ... : ... .. . ... ... : ... .. . ... ... : ... .. . ... ...
ROW 0B : ... .. . ... ... ... : ... .. . P7F ... ... : ... .. . ... : ... .. 0 ... : ... .. . ... ... : ... .. 6 ... ... : ... .. 6 ... ... : ... .. . ... ...
ROW 0C : E-3 00 C ... ... ... : ... .. . P7E ... ... : F-5 00 . ... : 7-# 00 F ... : ... .. . ... ... : E-4 01 A ... ... : A-3 01 A ... ... : F#2 01 F ... ...
ROW 0D : ... .. B ... ... ... : A-4 00 2 P81 ... ... : G-4 00 . ... : ... .. C ... : ... .. . ... ... : ... .. 9 ... ... : ... .. 9 ... ... : ... .. D ... ...
ROW 0E : ... .. A ... ... ... : ... .. . P7E ... ... : C-4 00 . ... : ... .. 6 ... : ... .. . ... ... : ... .. 8 ... ... : ... .. 8 ... ... : ... .. 8 ... ...
ROW 0F : ... .. 8 ... ... ... : G#4 00 2 P82 ... ... : B-3 00 . ... : ... .. 3 ... : ... .. . ... ... : ... .. 7 ... ... : ... .. 7 ... ... : ... .. . ... ...
ROW 10 : ... .. 1 ... ... ... : ... .. 1 ... ... ... : F#3 00 . ... : ... .. 2 ... : ... .. . ... ... : ... .. . ... ... : ... .. . ... ... : ... .. . ... ...
ROW 11 : ... .. . ... ... ... : A-4 00 1 P7D ... ... : ... .. . ... : ... .. 0 ... : ... .. . ... ... : ... .. 6 ... ... : ... .. 6 ... ... : ... .. . ... ...
ROW 12 : F#1 00 C ... ... ... : ... .. . P80 ... ... : ... .. . ... : ... .. 8 ... : ... .. . ... ... : F#3 01 A ... ... : C-3 01 A ... ... : ... .. . ... ...
ROW 13 : ... .. B ... ... ... : ... .. 0 ... ... ... : ... .. . ... : ... .. 6 ... : ... .. . ... ... : ... .. 9 ... ... : ... .. 9 ... ... : ... .. . ... ...
ROW 14 : ... .. A ... ... ... : ... .. . ... ... ... : ... .. . ... : ... .. 3 ... : ... .. . ... ... : ... .. 8 ... ... : ... .. 8 ... ... : ... .. . ... ...
ROW 15 : ... .. 8 ... ... ... : ... .. . ... ... ... : E-3 00 . P85 : ... .. 1 ... : ... .. . ... ... : ... .. 7 ... ... : ... .. 7 ... ... : F-2 01 8 P89 ...
ROW 16 : ... .. 1 ... ... ... : ... .. . ... ... ... : D#3 00 . P7A : ... .. . ... : ... .. . ... ... : ... .. . ... ... : ... .. . ... ... : E-2 01 8 P95 ...
ROW 17 : ... .. . ... ... ... : ... .. . ... ... ... : C#3 00 . P86 : ... .. 0 ... : ... .. . ... ... : ... .. 6 ... ... : ... .. 6 ... ... : ... .. . P75 ...
ROW 18 : ... .. C ... ... ... : ... .. . ... ... ... : C-3 00 . P7E : 4-# 00 F ... : ... .. . ... ... : C-3 01 A ... ... : F#2 01 A ... ... : D#2 01 8 P83 ...
ROW 19 : ... .. B ... ... ... : ... .. . ... ... ... : B-2 00 . P77 : ... .. C ... : ... .. . ... ... : ... .. 9 ... ... : ... .. 9 ... ... : D-2 01 8 P94 ...
ROW 1A : ... .. A ... ... ... : ... .. . ... ... ... : A-2 00 . P8E : ... .. 6 ... : ... .. . ... ... : ... .. 8 ... ... : ... .. 8 ... ... : ... .. . P74 ...
ROW 1B : ... .. 8 ... ... ... : ... .. . ... ... ... : G#2 00 . P8D : ... .. 3 ... : ... .. . ... ... : ... .. 7 ... ... : ... .. 7 ... ... : C#2 01 8 P87 ...
ROW 1C : ... .. . ... ... ... : ... .. . ... ... ... : G-2 00 . ... : ... .. 2 ... : ... .. . ... ... : ... .. . ... ... : ... .. . ... ... : ... .. . P67 ...
ROW 1D : ... .. . ... ... ... : ... .. . ... ... ... : F#2 00 . P8F : ... .. 0 ... : ... .. . ... ... : ... .. 6 ... ... : ... .. 6 ... ... : C-2 01 8 P7E ...
ROW 1E : E-3 00 C ... ... ... : ... .. . ... ... ... : F-5 00 . P80 : 9-# 00 8 ... : ... .. . ... ... : D#4 01 A ... ... : A-3 01 A ... ... : F#2 01 F P80 ...
ROW 1F : ... .. B ... ... ... : ... .. . ... ... ... : G-4 00 . ... : ... .. 6 ... : ... .. . ... ... : ... .. 9 ... ... : ... .. 9 ... ... : ... .. D ... ...
ROW 20 : ... .. A ... ... ... : ... .. . ... ... ... : C-4 00 . ... : ... .. 3 ... : ... .. . ... ... : ... .. 8 ... ... : ... .. 8 ... ... : ... .. 8 ... ...
ROW 21 : ... .. 8 ... ... ... : ... .. . ... ... ... : B-3 00 . ... : ... .. 1 ... : ... .. . ... ... : ... .. 7 ... ... : ... .. 7 ... ... : ... .. . ... ...
ROW 22 : ... .. 1 ... ... ... : ... .. . ... ... ... : F#3 00 . ... : ... .. . ... : ... .. . ... ... : ... .. . ... ... : ... .. . ... ... : ... .. . ... ...
ROW 23 : ... .. . ... ... ... : ... .. . ... ... ... : ... .. . ... : ... .. 0 ... : ... .. . ... ... : ... .. 6 ... ... : ... .. 6 ... ... : ... .. . ... ...
ROW 24 : F#1 00 C ... ... ... : F#2 00 F P80 ... ... : ... .. . ... : 7-# 00 F ... : ... .. . ... ... : F#3 01 A ... ... : C-3 01 A ... ... : ... .. . ... ...
ROW 25 : ... .. B ... ... ... : ... .. E ... ... ... : ... .. . ... : ... .. C ... : ... .. . ... ... : ... .. 9 ... ... : ... .. 9 ... ... : ... .. . ... ...
ROW 26 : ... .. A ... ... ... : ... .. D ... ... ... : ... .. . ... : ... .. 6 ... : ... .. . ... ... : ... .. 8 ... ... : ... .. 8 ... ... : ... .. . ... ...
ROW 27 : ... .. 8 ... ... ... : G#2 00 F ... ... ... : ... .. . ... : ... .. 3 ... : ... .. . ... ... : ... .. 7 ... ... : ... .. 7 ... ... : ... .. . ... ...
ROW 28 : ... .. 1 ... ... ... : ... .. E ... ... ... : ... .. . ... : ... .. 2 ... : ... .. . ... ... : ... .. . ... ... : ... .. . ... ... : ... .. . ... ...
ROW 29 : ... .. . ... ... ... : ... .. D ... ... ... : ... .. . ... : ... .. 0 ... : ... .. . ... ... : ... .. 6 ... ... : ... .. 6 ... ... : ... .. . ... ...
ROW 2A : ... .. C ... ... ... : A-2 00 F ... ... ... : D#3 00 . P8A : 5-# 00 8 ... : ... .. . ... ... : C-3 01 A ... ... : F#2 01 A ... ... : F-2 01 8 P79 ...
ROW 2B : ... .. B ... ... ... : ... .. E ... ... ... : C#3 00 . P86 : ... .. 6 ... : ... .. . ... ... : ... .. 9 ... ... : ... .. 9 ... ... : E-2 01 8 P75 ...
ROW 2C : ... .. A ... ... ... : ... .. D ... ... ... : B-2 00 . P87 : ... .. 3 ... : ... .. . ... ... : ... .. 8 ... ... : ... .. 8 ... ... : D#2 01 8 P73 ...
ROW 2D : ... .. 8 ... ... ... : B-2 00 F ... ... ... : A-2 00 . P8E : ... .. 1 ... : ... .. . ... ... : ... .. 7 ... ... : ... .. 7 ... ... : D-2 01 8 P74 ...
ROW 2E : ... .. . ... ... ... : ... .. E ... ... ... : G#2 00 . P7D : ... .. . ... : ... .. . ... ... : ... .. . ... ... : ... .. . ... ... : C#2 01 8 P77 ...
ROW 2F : ... .. . ... ... ... : ... .. D ... ... ... : F#2 00 . P8F : ... .. 0 ... : ... .. . ... ... : ... .. 6 ... ... : ... .. 6 ... ... : C-2 01 8 P7E ...
ROW 30 : F-1 00 C ... ... ... : C-3 00 F ... ... ... : E-4 00 . P80 : 1-# 00 F ... : ... .. . ... ... : G#2 01 A ... ... : C-3 01 A ... ... : F-1 01 F P80 ...
ROW 31 : ... .. B ... ... ... : ... .. E ... ... ... : F#3 00 . ... : ... .. C ... : ... .. . ... ... : ... .. 9 ... ... : ... .. 9 ... ... : ... .. D ... ...
ROW 32 : ... .. A ... ... ... : ... .. D ... ... ... : B-2 00 . ... : ... .. 6 ... : ... .. . ... ... : ... .. 8 ... ... : ... .. 8 ... ... : ... .. 8 ... ...
ROW 33 : ... .. 8 ... ... ... : ... .. A ... ... ... : A#2 00 . ... : ... .. 3 ... : ... .. . ... ... : ... .. 7 ... ... : ... .. 7 ... ... : ... .. . ... ...
ROW 34 : ... .. 1 ... ... ... : ... .. . ... ... ... : F-2 00 . ... : ... .. 2 ... : ... .. . ... ... : ... .. . ... ... : ... .. . ... ... : ... .. . ... ...
ROW 35 : ... .. . ... ... ... : ... .. . ... ... ... : ... .. . ... : ... .. 0 ... : ... .. . ... ... : ... .. 6 ... ... : ... .. 6 ... ... : ... .. . ... ...
ROW 36 : ... .. C ... ... ... : ... .. . ... ... ... : ... .. . ... : C-# 00 8 ... : ... .. . ... ... : ... .. . ... ... : ... .. . ... ... : ... .. . ... ...
ROW 37 : ... .. B ... ... ... : ... .. . ... ... ... : ... .. . ... : ... .. 6 ... : ... .. . ... ... : ... .. 5 ... ... : ... .. 5 ... ... : ... .. . ... ...
ROW 38 : ... .. A ... ... ... : ... .. . ... ... ... : ... .. . ... : ... .. 3 ... : ... .. . ... ... : ... .. . ... ... : ... .. . ... ... : ... .. . ... ...
ROW 39 : ... .. 8 ... ... ... : ... .. . ... ... ... : E-2 00 . P86 : ... .. 1 ... : ... .. . ... ... : ... .. . ... ... : ... .. . ... ... : ... .. . P60 ...
ROW 3A : ... .. 1 ... ... ... : ... .. . ... ... ... : D#2 00 . P8E : ... .. . ... : ... .. . ... ... : ... .. . ... ... : ... .. . ... ... : E-1 01 8 P97 ...
ROW 3B : ... .. . ... ... ... : ... .. . ... ... ... : ... .. . P6E : ... .. 0 ... : ... .. . ... ... : ... .. . ... ... : ... .. . ... ... : ... .. . P77 ...
ROW 3C : C-2 00 C ... ... ... : ... .. . ... ... ... : D-2 00 . P79 : ... .. 8 ... : ... .. . ... ... : ... .. . ... ... : ... .. . ... ... : ... .. . P57 ...
ROW 3D : ... .. B ... ... ... : ... .. . ... ... ... : C#2 00 . P86 : ... .. 6 ... : ... .. . ... ... : ... .. . ... ... : ... .. . ... ... : D#1 01 8 P94 ...
ROW 3E : ... .. A ... ... ... : ... .. . ... ... ... : C-2 00 . P96 : ... .. 3 ... : ... .. . ... ... : ... .. . ... ... : ... .. . ... ... : ... .. . P74 ...
ROW 3F : ... .. 8 ... ... ... : ... .. . ... ... ... : ... .. . P76 : ... .. 1 ... : ... .. . ... ... : ... .. . ... ... : ... .. . ... ... : ... .. . P54 ...
ROW 40 : ... .. . ... ... ... : ... .. . ... ... ... : B-1 00 . P89 : ... .. . ... : ... .. . ... ... : ... .. . ... ... : ... .. . ... ... : D-1 01 8 P95 ...
ROW 41 : ... .. . ... ... ... : ... .. . ... ... ... : ... .. . P69 : ... .. 0 ... : ... .. . ... ... : ... .. . ... ... : ... .. . ... ... : ... .. . P75 ...
ROW 42 : B-1 00 C ... ... ... : ... .. . ... ... ... : E-5 00 . P80 : 1-# 00 F ... : ... .. . ... ... : ... .. A ... ... : C#3 01 A ... ... : F-2 01 F P80 ...
ROW 43 : ... .. B ... ... ... : ... .. . ... ... ... : F#4 00 . ... : ... .. C ... : ... .. . ... ... : ... .. 9 ... ... : ... .. 9 ... ... : ... .. D ... ...
ROW 44 : ... .. A ... ... ... : ... .. . ... ... ... : B-3 00 . ... : ... .. 6 ... : ... .. . ... ... : ... .. 8 ... ... : ... .. 8 ... ... : ... .. 8 ... ...
ROW 45 : ... .. 8 ... ... ... : ... .. . ... ... ... : A#3 00 . ... : ... .. 3 ... : ... .. . ... ... : ... .. 7 ... ... : ... .. 7 ... ... : ... .. . ... ...
ROW 46 : ... .. 1 ... ... ... : ... .. . ... ... ... : F-3 00 . ... : ... .. 2 ... : ... .. . ... ... : ... .. . ... ... : ... .. . ... ... : ... .. . ... ...
ROW 47 : ... .. . ... ... ... : ... .. . ... ... ... : --- .. . ... : ... .. 0 ... : ... .. . ... ... : ... .. 6 ... ... : ... .. 6 ... ... : --- .. . P7E ...
ROW 48 : C-2 00 C ... ... ... : ... .. . ... ... ... : D#3 00 . ... : C-# 00 8 ... : ... .. . ... ... : ... .. . ... ... : ... .. . ... ... : D#2 01 F P80 ...
ROW 49 : ... .. B ... ... ... : ... .. . ... ... ... : ... .. . ... : ... .. 6 ... : ... .. . ... ... : ... .. 5 ... ... : ... .. 5 ... ... : ... .. D ... ...
ROW 4A : ... .. A ... ... ... : ... .. . ... ... ... : ... .. . ... : ... .. 3 ... : ... .. . ... ... : ... .. . ... ... : ... .. . ... ... : ... .. 8 ... ...
ROW 4B : ... .. 8 ... ... ... : ... .. . P84 ... ... : ... .. . ... : ... .. 1 ... : ... .. . ... ... : ... .. . ... ... : ... .. . ... ... : ... .. . ... ...
ROW 4C : ... .. . ... ... ... : ... .. . P86 ... ... : ... .. . ... : ... .. . ... : ... .. . ... ... : ... .. . ... ... : ... .. . ... ... : ... .. . ... ...
ROW 4D : ... .. . ... ... ... : ... .. . P85 ... ... : --- .. . ... : ... .. 0 ... : ... .. . ... ... : ... .. . ... ... : ... .. . ... ... : --- .. . ... ...
ROW 4E : G#1 00 C ... ... ... : ... .. . P82 ... ... : F-3 00 . ... : ... .. 8 ... : ... .. . ... ... : ... .. . ... ... : ... .. . ... ... : F-2 01 F ... ...
ROW 4F : ... .. B ... ... ... : ... .. . P7E ... ... : ... .. . ... : ... .. 6 ... : ... .. . ... ... : ... .. . ... ... : ... .. . ... ... : ... .. D ... ...
ROW 50 : ... .. A ... ... ... : ... .. . P7B ... ... : ... .. . ... : ... .. 3 ... : ... .. . ... ... : ... .. . ... ... : ... .. . ... ... : ... .. 8 ... ...
ROW 51 : ... .. 8 ... ... ... : ... .. . P7A ... ... : --- .. . ... : ... .. 1 ... : ... .. . ... ... : ... .. . ... ... : ... .. . ... ... : --- .. . P7E ...
ROW 52 : ... .. 1 ... ... ... : ... .. . P7C ... ... : ... .. . ... : ... .. . ... : ... .. . ... ... : ... .. . ... ... : ... .. . ... ... : ... .. . ... ...
ROW 53 : ... .. . ... ... ... : ... .. . P80 ... ... : ... .. . ... : ... .. 0 ... : ... .. . ... ... : ... .. . ... ... : ... .. . ... ... : ... .. . ... ...
ROW 54 : E-2 00 C ... ... ... : ... .. . P83 ... ... : C-6 00 . ... : 7-# 00 F ... : ... .. . ... ... : ... .. . ... ... : ... .. . ... ... : C#3 01 F P80 ...
ROW 55 : ... .. B ... ... ... : ... .. . P86 ... ... : D-5 00 . ... : ... .. C ... : ... .. . ... ... : ... .. . ... ... : ... .. . ... ... : ... .. D ... ...
ROW 56 : ... .. A ... ... ... : ... .. . ... ... ... : G-4 00 . ... : ... .. 6 ... : ... .. . ... ... : ... .. . ... ... : ... .. . ... ... : ... .. 8 ... ...
ROW 57 : ... .. 8 ... ... ... : ... .. . P82 ... ... : F#4 00 . ... : ... .. 3 ... : ... .. . ... ... : ... .. . ... ... : ... .. . ... ... : ... .. . ... ...
ROW 58 : ... .. . ... ... ... : ... .. . P7F ... ... : C#4 00 . ... : ... .. 2 ... : ... .. . ... ... : ... .. . ... ... : ... .. . ... ... : ... .. . ... ...
ROW 59 : ... .. . ... ... ... : ... .. . P7B ... ... : ... .. . ... : ... .. 0 ... : ... .. . ... ... : ... .. . ... ... : ... .. . ... ... : ... .. . ... ...
ROW 5A : ... .. C ... ... ... : ... .. . P7A ... ... : ... .. . ... : 1-# 00 8 ... : ... .. . ... ... : ... .. . ... ... : ... .. . ... ... : ... .. . ... ...
ROW 5B : ... .. B ... ... ... : ... .. . P7C ... ... : ... .. . ... : ... .. 6 ... : ... .. . ... ... : ... .. . ... ... : ... .. . ... ... : ... .. . ... ...
ROW 5C : ... .. A ... ... ... : ... .. . P80 ... ... : ... .. . ... : ... .. 3 ... : ... .. . ... ... : ... .. . ... ... : ... .. . ... ... : ... .. . ... ...
ROW 5D : ... .. 8 ... ... ... : ... .. . P83 ... ... : ... .. . ... : ... .. 1 ... : ... .. . ... ... : ... .. . ... ... : ... .. . ... ... : ... .. . ... ...
ROW 5E : ... .. 1 ... ... ... : ... .. . P86 ... ... : ... .. . ... : ... .. . ... : ... .. . ... ... : ... .. . ... ... : ... .. . ... ... : ... .. . ... ...
ROW 5F : ... .. . ... ... ... : ... .. . ... ... ... : ... .. . ... : ... .. 0 ... : ... .. . ... ... : ... .. . ... ... : ... .. . ... ... : ... .. . ... ...
ROW 60 : F-1 00 C ... ... ... : ... .. . P83 ... ... : C-4 00 . ... : 7-# 00 F ... : ... .. . ... ... : ... .. . ... ... : ... .. . ... ... : C-3 01 F ... ...
ROW 61 : ... .. B ... ... ... : ... .. . P80 ... ... : ... .. . ... : ... .. C ... : ... .. . ... ... : ... .. . ... ... : ... .. . ... ... : ... .. D ... ...
ROW 62 : ... .. A ... ... ... : ... .. . P7C ... ... : ... .. . ... : ... .. 6 ... : ... .. . ... ... : ... .. . ... ... : ... .. . ... ... : ... .. 8 ... ...
ROW 63 : ... .. 8 ... ... ... : ... .. . P7A ... ... : ... .. . ... : ... .. 3 ... : ... .. . ... ... : ... .. . ... ... : ... .. . ... ... : ... .. . ... ...
ROW 64 : ... .. 1 ... ... ... : ... .. . P7B ... ... : ... .. . ... : ... .. 2 ... : ... .. . ... ... : ... .. . ... ... : ... .. . ... ... : ... .. . ... ...
ROW 65 : ... .. . ... ... ... : ... .. . P7F ... ... : ... .. . ... : ... .. 0 ... : ... .. . ... ... : ... .. . ... ... : ... .. . ... ... : ... .. . ... ...
ROW 66 : D#2 00 C ... ... ... : ... .. . P82 ... ... : ... .. . ... : 1-# 00 8 ... : ... .. . ... ... : ... .. . ... ... : ... .. . ... ... : ... .. . ... ...
ROW 67 : ... .. B ... ... ... : ... .. . P86 ... ... : ... .. . ... : ... .. 6 ... : ... .. . ... ... : ... .. . ... ... : ... .. . ... ... : ... .. . ... ...
ROW 68 : ... .. A ... ... ... : ... .. . ... ... ... : ... .. . ... : ... .. 3 ... : ... .. . ... ... : ... .. . ... ... : ... .. . ... ... : ... .. . ... ...
ROW 69 : ... .. 8 ... ... ... : ... .. . P83 ... ... : ... .. . ... : ... .. 1 ... : ... .. . ... ... : ... .. . ... ... : ... .. . ... ... : ... .. . ... ...
ROW 6A : ... .. . ... ... ... : ... .. . P80 ... ... : ... .. . ... : ... .. . ... : ... .. . ... ... : ... .. . ... ... : ... .. . ... ... : ... .. . ... ...
ROW 6B : ... .. . ... ... ... : ... .. . P7C ... ... : --- .. . ... : ... .. 0 ... : ... .. . ... ... : ... .. . ... ... : ... .. . ... ... : --- .. . P7E ...
ROW 6C : ... .. C ... ... ... : ... .. . P7A ... ... : F-3 00 . ... : 7-# 00 F ... : ... .. . ... ... : ... .. . ... ... : ... .. . ... ... : F-2 01 F P80 ...
ROW 6D : ... .. B ... ... ... : ... .. . P7B ... ... : ... .. . ... : ... .. C ... : ... .. . ... ... : ... .. . ... ... : ... .. . ... ... : ... .. D ... ...
ROW 6E : ... .. A ... ... ... : ... .. . P7E ... ... : ... .. . ... : ... .. 6 ... : ... .. . ... ... : ... .. . ... ... : ... .. . ... ... : ... .. 8 ... ...
ROW 6F : ... .. 8 ... ... ... : ... .. . P82 ... ... : ... .. . ... : ... .. 3 ... : ... .. . ... ... : ... .. . ... ... : ... .. . ... ... : ... .. . ... ...
ROW 70 : ... .. 1 ... ... ... : ... .. . P85 ... ... : ... .. . ... : ... .. 2 ... : ... .. . ... ... : ... .. . ... ... : ... .. . ... ... : ... .. . ... ...
ROW 71 : ... .. . ... ... ... : ... .. . P86 ... ... : ... .. . ... : ... .. 0 ... : ... .. . ... ... : ... .. . ... ... : ... .. . ... ... : ... .. . ... ...
ROW 72 : F-1 00 C ... ... ... : ... .. . P84 ... ... : ... .. . ... : 1-# 00 8 ... : ... .. . ... ... : ... .. . ... ... : ... .. . ... ... : ... .. . ... ...
ROW 73 : ... .. B ... ... ... : ... .. . P80 ... ... : ... .. . ... : ... .. 6 ... : ... .. . ... ... : ... .. . ... ... : ... .. . ... ... : ... .. . ... ...
ROW 74 : ... .. A ... ... ... : ... .. . P7D ... ... : ... .. . ... : ... .. 3 ... : ... .. . ... ... : ... .. . ... ... : ... .. . ... ... : ... .. . ... ...
ROW 75 : ... .. 8 ... ... ... : ... .. . P7A ... ... : ... .. . ... : ... .. 1 ... : ... .. . ... ... : ... .. . ... ... : ... .. . ... ... : ... .. . ... ...
ROW 76 : ... .. 1 ... ... ... : ... .. . ... ... ... : ... .. . ... : ... .. . ... : ... .. . ... ... : ... .. . ... ... : ... .. . ... ... : ... .. . ... ...
ROW 77 : ... .. . ... ... ... : ... .. . P7E ... ... : --- .. . ... : ... .. 0 ... : ... .. . ... ... : ... .. . ... ... : ... .. . ... ... : --- .. . P7E ...
ROW 78 : C#2 00 C ... ... ... : C#3 00 F P80 ... ... : E-3 00 . ... : ... .. F ... : ... .. . ... ... : G#3 01 A ... ... : C-4 01 A ... ... : F-0 01 F P80 ...
ROW 79 : ... .. B ... ... ... : ... .. E ... ... ... : F#2 00 . ... : ... .. C ... : ... .. . ... ... : ... .. 9 ... ... : ... .. 9 ... ... : ... .. D ... ...
ROW 7A : ... .. A ... ... ... : ... .. D ... ... ... : B-1 00 . ... : ... .. 6 ... : ... .. . ... ... : ... .. 8 ... ... : ... .. 8 ... ... : ... .. 8 ... ...
ROW 7B : ... .. 8 ... ... ... : ... .. A ... ... ... : A#1 00 . ... : ... .. 3 ... : ... .. . ... ... : ... .. 7 ... ... : ... .. 7 ... ... : ... .. . ... ...
ROW 7C : ... .. . ... ... ... : ... .. . ... ... ... : F-1 00 . ... : ... .. 2 ... : ... .. . ... ... : ... .. . ... ... : ... .. . ... ... : ... .. . ... ...
ROW 7D : ... .. . ... ... ... : ... .. . ... ... ... : ... .. . ... : ... .. 0 ... : ... .. . ... ... : ... .. 6 ... ... : ... .. 6 ... ... : ... .. . ... ...
ROW 7E : ... .. C ... ... ... : ... .. . ... ... ... : ... .. . ... : C-# 00 8 ... : ... .. . ... ... : ... .. . ... ... : ... .. . ... ... : ... .. . ... ...
ROW 7F : ... .. B ... ... ... : ... .. . ... ... ... : ... .. . ... : ... .. 6 ... : ... .. . ... ... : ... .. 5 ... ... : ... .. 5 ... ... : ... .. . ... ...
ROW 80 : ... .. A ... ... ... : ... .. . ... ... ... : ... .. . ... : ... .. 3 ... : ... .. . ... ... : ... .. . ... ... : ... .. . ... ... : ... .. . ... ...
ROW 81 : ... .. 8 ... ... ... : ... .. . ... ... ... : ... .. . P60 : ... .. 1 ... : ... .. . ... ... : ... .. . ... ... : ... .. . ... ... : ... .. . P60 ...
ROW 82 : ... .. 1 ... ... ... : ... .. . ... ... ... : E-1 00 . P8C : ... .. . ... : ... .. . ... ... : ... .. . ... ... : ... .. . ... ... : ... .. . P40 ...
ROW 83 : ... .. . ... ... ... : ... .. . ... ... ... : ... .. . P6C : ... .. 0 ... : ... .. . ... ... : ... .. . ... ... : ... .. . ... ... : E-0 01 8 PCE ...
ROW 84 : G#1 00 C ... ... ... : ... .. . ... ... ... : D#1 00 . P9D : ... .. 8 ... : ... .. . ... ... : ... .. . ... ... : ... .. . ... ... : ... .. . PAE ...
ROW 85 : ... .. B ... ... ... : ... .. . ... ... ... : ... .. . P7D : ... .. 6 ... : ... .. . ... ... : ... .. . ... ... : ... .. . ... ... : ... .. . P8E ...
ROW 86 : ... .. A ... ... ... : ... .. . ... ... ... : ... .. . P5D : ... .. 3 ... : ... .. . ... ... : ... .. . ... ... : ... .. . ... ... : ... .. . P6E ...
ROW 87 : ... .. 8 ... ... ... : ... .. . ... ... ... : D-1 00 . P93 : ... .. 1 ... : ... .. . ... ... : ... .. . ... ... : ... .. . ... ... : ... .. . P4E ...
ROW 88 : ... .. 1 ... ... ... : ... .. . ... ... ... : ... .. . P73 : ... .. . ... : ... .. . ... ... : ... .. . ... ... : ... .. . ... ... : ... .. . P2E ...
ROW 89 : ... .. . ... ... ... : ... .. . ... ... ... : C#1 00 . PAD : ... .. 0 ... : ... .. . ... ... : ... .. . ... ... : ... .. . ... ... : D#0 01 8 PC6 ...
ROW 8A : ... .. C ... ... ... : ... .. . ... ... ... : F-2 00 . P80 : 1-# 00 F ... : ... .. . ... ... : ... .. A ... ... : C#4 01 A ... ... : F-1 01 F P80 ...
ROW 8B : ... .. B ... ... ... : ... .. . ... ... ... : ... .. . ... : ... .. C ... : ... .. . ... ... : ... .. 9 ... ... : ... .. 9 ... ... : ... .. D ... ...
ROW 8C : ... .. A ... ... ... : ... .. . ... ... ... : ... .. . ... : ... .. 6 ... : ... .. . ... ... : ... .. 8 ... ... : ... .. 8 ... ... : ... .. 8 ... ...
ROW 8D : ... .. 8 ... ... ... : ... .. . ... ... ... : ... .. . ... : ... .. 3 ... : ... .. . ... ... : ... .. 7 ... ... : ... .. 7 ... ... : ... .. . ... ...
ROW 8E : ... .. . ... ... ... : ... .. . ... ... ... : ... .. . ... : ... .. 2 ... : ... .. . ... ... : ... .. . ... ... : ... .. . ... ... : ... .. . ... ...
ROW 8F : ... .. . ... ... ... : ... .. . ... ... ... : ... .. . ... : ... .. 0 ... : ... .. . ... ... : ... .. 6 ... ... : ... .. 6 ... ... : ... .. . ... ...
ROW 90 : C-2 00 C ... ... ... : ... .. . ... ... ... : D#2 00 . ... : C-# 00 8 ... : ... .. . ... ... : ... .. . ... ... : ... .. . ... ... : D#1 01 F ... ...
ROW 91 : ... .. B ... ... ... : ... .. . ... ... ... : ... .. . ... : ... .. 6 ... : ... .. . ... ... : ... .. 5 ... ... : ... .. 5 ... ... : ... .. D ... ...
ROW 92 : ... .. A ... ... ... : ... .. . ... ... ... : ... .. . ... : ... .. 3 ... : ... .. . ... ... : ... .. . ... ... : ... .. . ... ... : ... .. 8 ... ...
ROW 93 : ... .. 8 ... ... ... : ... .. . ... ... ... : ... .. . ... : ... .. 1 ... : ... .. . ... ... : ... .. . ... ... : ... .. . ... ... : ... .. . ... ...
ROW 94 : ... .. 1 ... ... ... : ... .. . ... ... ... : ... .. . ... : ... .. . ... : ... .. . ... ... : ... .. . ... ... : ... .. . ... ... : ... .. . ... ...
ROW 95 : ... .. . ... ... ... : ... .. . ... ... ... : --- .. . ... : ... .. 0 ... : ... .. . ... ... : ... .. . ... ... : ... .. . ... ... : --- .. . P81 ...
ROW 96 : ... .. C ... ... ... : ... .. . ... ... ... : F-2 00 . ... : ... .. 8 ... : ... .. . ... ... : ... .. . ... ... : ... .. . ... ... : F-1 01 F P80 ...
ROW 97 : ... .. B ... ... ... : ... .. . ... ... ... : ... .. . ... : ... .. 6 ... : ... .. . ... ... : ... .. . ... ... : ... .. . ... ... : ... .. D ... ...
ROW 98 : ... .. A ... ... ... : ... .. . ... ... ... : ... .. . ... : ... .. 3 ... : ... .. . ... ... : ... .. . ... ... : ... .. . ... ... : ... .. 8 ... ...
ROW 99 : ... .. 8 ... ... ... : ... .. . ... ... ... : ... .. . ... : ... .. 1 ... : ... .. . ... ... : ... .. . ... ... : ... .. . ... ... : ... .. . ... ...
ROW 9A : ... .. 1 ... ... ... : ... .. . ... ... ... : ... .. . ... : ... .. . ... : ... .. . ... ... : ... .. . ... ... : ... .. . ... ... : ... .. . ... ...
ROW 9B : ... .. . ... ... ... : ... .. . ... ... ... : ... .. . ... : ... .. 0 ... : ... .. . ... ... : ... .. . ... ... : ... .. . ... ... : ... .. . ... ...
ROW 9C : A#1 00 C ... ... ... : ... .. . ... ... ... : E-5 00 . ... : 7-# 00 F ... : ... .. . ... ... : ... .. . ... ... : ... .. . ... ... : F-2 01 F ... ...
ROW 9D : ... .. B ... ... ... : ... .. . ... ... ... : F#4 00 . ... : ... .. C ... : ... .. . ... ... : ... .. . ... ... : ... .. . ... ... : ... .. D ... ...
ROW 9E : ... .. A ... ... ... : ... .. . ... ... ... : B-3 00 . ... : ... .. 6 ... : ... .. . ... ... : ... .. . ... ... : ... .. . ... ... : ... .. 8 ... ...
ROW 9F : ... .. 8 ... ... ... : ... .. . P8A ... ... : A#3 00 . ... : ... .. 3 ... : ... .. . ... ... : ... .. . ... ... : ... .. . ... ... : ... .. . ... ...
ROW A0 : ... .. . ... ... ... : D-3 00 A P79 ... ... : F-3 00 . ... : ... .. 2 ... : ... .. . ... ... : ... .. . ... ... : ... .. . ... ... : ... .. . ... ...
ROW A1 : ... .. . ... ... ... : ... .. . P77 ... ... : --- .. . ... : ... .. 0 ... : ... .. . ... ... : ... .. . ... ... : ... .. . ... ... : --- .. . P7E ...
ROW A2 : ... .. C ... ... ... : C#3 00 A P84 ... ... : D#3 00 . ... : ... .. 8 ... : ... .. . ... ... : ... .. . ... ... : ... .. . ... ... : D#2 01 F P80 ...
ROW A3 : ... .. B ... ... ... : ... .. . P7C ... ... : ... .. . ... : ... .. 6 ... : ... .. . ... ... : ... .. . ... ... : ... .. . ... ... : ... .. D ... ...
ROW A4 : ... .. A ... ... ... : C-3 00 A P8A ... ... : ... .. . ... : ... .. 3 ... : ... .. . ... ... : ... .. . ... ... : ... .. . ... ... : ... .. 8 ... ...
ROW A5 : ... .. 8 ... ... ... : ... .. . P88 ... ... : ... .. . ... : ... .. 1 ... : ... .. . ... ... : ... .. . ... ... : ... .. . ... ... : ... .. . ... ...
ROW A6 : ... .. 1 ... ... ... : C#3 00 A P76 ... ... : ... .. . ... : ... .. . ... : ... .. . ... ... : ... .. . ... ... : ... .. . ... ... : ... .. . ... ...
ROW A7 : ... .. . ... ... ... : ... .. . P80 ... ... : --- .. . ... : ... .. 0 ... : ... .. . ... ... : ... .. . ... ... : ... .. . ... ... : --- .. . ... ...
ROW A8 : F-1 00 C ... ... ... : ... .. . P89 ... ... : G#3 00 . ... : 4-# 00 F ... : ... .. . ... ... : ... .. . ... ... : ... .. . ... ... : G#2 01 F ... ...
ROW A9 : ... .. B ... ... ... : D-3 00 A P79 ... ... : ... .. . ... : ... .. C ... : ... .. . ... ... : ... .. . ... ... : ... .. . ... ... : ... .. D ... ...
ROW AA : ... .. A ... ... ... : ... .. . P77 ... ... : ... .. . ... : ... .. 6 ... : ... .. . ... ... : ... .. . ... ... : ... .. . ... ... : ... .. 8 ... ...
ROW AB : ... .. 8 ... ... ... : C#3 00 A P86 ... ... : ... .. . ... : ... .. 3 ... : ... .. . ... ... : ... .. . ... ... : ... .. . ... ... : ... .. . ... ...
ROW AC : ... .. 1 ... ... ... : ... .. . P7D ... ... : ... .. . ... : ... .. 2 ... : ... .. . ... ... : ... .. . ... ... : ... .. . ... ... : ... .. . ... ...
ROW AD : ... .. . ... ... ... : C-3 00 A P8B ... ... : ... .. . ... : ... .. 0 ... : ... .. . ... ... : ... .. . ... ... : ... .. . ... ... : ... .. . ... ...
ROW AE : ... .. C ... ... ... : ... .. . P88 ... ... : F#3 00 . ... : 9-# 00 8 ... : ... .. . ... ... : ... .. . ... ... : ... .. . ... ... : F#2 01 F ... ...
ROW AF : ... .. B ... ... ... : ... .. . P8C ... ... : ... .. . ... : ... .. 6 ... : ... .. . ... ... : ... .. . ... ... : ... .. . ... ... : ... .. D ... ...
ROW B0 : ... .. A ... ... ... : C#3 00 A P7F ... ... : ... .. . ... : ... .. 3 ... : ... .. . ... ... : ... .. . ... ... : ... .. . ... ... : ... .. 8 ... ...
ROW B1 : ... .. 8 ... ... ... : ... .. . P88 ... ... : ... .. . ... : ... .. 1 ... : ... .. . ... ... : ... .. . ... ... : ... .. . ... ... : ... .. . ... ...
ROW B2 : ... .. 1 ... ... ... : D-3 00 A P78 ... ... : ... .. . ... : ... .. . ... : ... .. . ... ... : ... .. . ... ... : ... .. . ... ... : ... .. . ... ...
ROW B3 : ... .. . ... ... ... : ... .. . ... ... ... : --- .. . ... : ... .. 0 ... : ... .. . ... ... : ... .. . ... ... : ... .. . ... ... : --- .. . P84 ...
ROW B4 : E-1 00 C ... ... ... : C#3 00 A P88 ... ... : F-3 00 . ... : 7-# 00 F ... : ... .. . ... ... : ... .. . ... ... : ... .. . ... ... : F-2 01 F P80 ...
ROW B5 : ... .. B ... ... ... : ... .. . P7F ... ... : ... .. . ... : ... .. C ... : ... .. . ... ... : ... .. . ... ... : ... .. . ... ... : ... .. D ... ...
ROW B6 : ... .. A ... ... ... : C-3 00 A P8C ... ... : ... .. . ... : ... .. 6 ... : ... .. . ... ... : ... .. . ... ... : ... .. . ... ... : ... .. 8 ... ...
ROW B7 : ... .. 8 ... ... ... : ... .. . P88 ... ... : ... .. . ... : ... .. 3 ... : ... .. . ... ... : ... .. . ... ... : ... .. . ... ... : ... .. . ... ...
ROW B8 : ... .. 1 ... ... ... : ... .. . P8B ... ... : ... .. . ... : ... .. 2 ... : ... .. . ... ... : ... .. . ... ... : ... .. . ... ... : ... .. . ... ...
ROW B9 : ... .. . ... ... ... : C#3 00 A P7D ... ... : --- .. . ... : ... .. 0 ... : ... .. . ... ... : ... .. . ... ... : ... .. . ... ... : --- .. . P7E ...
ROW BA : ... .. C ... ... ... : ... .. . P86 ... ... : F-2 00 . ... : 5-# 00 8 ... : ... .. . ... ... : ... .. . ... ... : ... .. . ... ... : F-1 01 F P80 ...
ROW BB : ... .. B ... ... ... : D-3 00 A P77 ... ... : ... .. . ... : ... .. 6 ... : ... .. . ... ... : ... .. . ... ... : ... .. . ... ... : ... .. D ... ...
ROW BC : ... .. A ... ... ... : ... .. . P79 ... ... : ... .. . ... : ... .. 3 ... : ... .. . ... ... : ... .. . ... ... : ... .. . ... ... : ... .. 8 ... ...
ROW BD : ... .. 8 ... ... ... : C#3 00 A P89 ... ... : ... .. . ... : ... .. 1 ... : ... .. . ... ... : ... .. . ... ... : ... .. . ... ... : ... .. . ... ...
ROW BE : ... .. 1 ... ... ... : ... .. . P80 ... ... : ... .. . ... : ... .. . ... : ... .. . ... ... : ... .. . ... ... : ... .. . ... ... : ... .. . ... ...
ROW BF : ... .. . ... ... ... : ... .. . P76 ... ... : --- .. . ... : ... .. 0 ... : ... .. . ... ... : ... .. . ... ... : ... .. . ... ... : --- .. . P7F ...
ROW C0 : F-1 00 C ... ... ... : F-3 00 F P80 ... ... : E-4 00 . ... : 1-# 00 F ... : ... .. . ... ... : G#4 01 A ... ... : C-5 01 A ... ... : F-1 01 F P80 ...
ROW C1 : ... .. B ... ... ... : ... .. E ... ... ... : F#3 00 . ... : ... .. C ... : ... .. . ... ... : ... .. 9 ... ... : ... .. 9 ... ... : ... .. D ... ...
ROW C2 : ... .. A ... ... ... : ... .. D ... ... ... : B-2 00 . ... : ... .. 6 ... : ... .. . ... ... : ... .. 8 ... ... : ... .. 8 ... ... : ... .. 8 ... ...
ROW C3 : ... .. 8 ... ... ... : ... .. A ... ... ... : A#2 00 . ... : ... .. 3 ... : ... .. . ... ... : ... .. 7 ... ... : ... .. 7 ... ... : ... .. . ... ...
ROW C4 : ... .. 1 ... ... ... : ... .. . ... ... ... : F-2 00 . ... : ... .. 2 ... : ... .. . ... ... : ... .. . ... ... : ... .. . ... ... : ... .. . ... ...
ROW C5 : ... .. . ... ... ... : ... .. . ... ... ... : ... .. . ... : ... .. 0 ... : ... .. . ... ... : ... .. 6 ... ... : ... .. 6 ... ... : ... .. . ... ...
ROW C6 : ... .. C ... ... ... : ... .. . ... ... ... : ... .. . ... : C-# 00 8 ... : ... .. . ... ... : ... .. . ... ... : ... .. . ... ... : ... .. . ... ...
ROW C7 : ... .. B ... ... ... : ... .. . ... ... ... : ... .. . ... : ... .. 6 ... : ... .. . ... ... : ... .. 5 ... ... : ... .. 5 ... ... : ... .. . ... ...
ROW C8 : ... .. A ... ... ... : ... .. . ... ... ... : ... .. . ... : ... .. 3 ... : ... .. . ... ... : ... .. . ... ... : ... .. . ... ... : ... .. . ... ...
ROW C9 : ... .. 8 ... ... ... : ... .. . ... ... ... : E-2 00 . P86 : ... .. 1 ... : ... .. . ... ... : ... .. . ... ... : ... .. . ... ... : ... .. . P60 ...
ROW CA : ... .. 1 ... ... ... : ... .. . ... ... ... : D#2 00 . P8E : ... .. . ... : ... .. . ... ... : ... .. . ... ... : ... .. . ... ... : E-1 01 8 P97 ...
ROW CB : ... .. . ... ... ... : ... .. . ... ... ... : ... .. . P6E : ... .. 0 ... : ... .. . ... ... : ... .. . ... ... : ... .. . ... ... : ... .. . P77 ...
ROW CC : C-2 00 C ... ... ... : ... .. . ... ... ... : D-2 00 . P79 : ... .. 8 ... : ... .. . ... ... : ... .. . ... ... : ... .. . ... ... : ... .. . P57 ...
ROW CD : ... .. B ... ... ... : ... .. . ... ... ... : C#2 00 . P86 : ... .. 6 ... : ... .. . ... ... : ... .. . ... ... : ... .. . ... ... : D#1 01 8 P94 ...
ROW CE : ... .. A ... ... ... : ... .. . ... ... ... : C-2 00 . P96 : ... .. 3 ... : ... .. . ... ... : ... .. . ... ... : ... .. . ... ... : ... .. . P74 ...
ROW CF : ... .. 8 ... ... ... : ... .. . ... ... ... : ... .. . P76 : ... .. 1 ... : ... .. . ... ... : ... .. . ... ... : ... .. . ... ... : ... .. . P54 ...
ROW D0 : ... .. . ... ... ... : ... .. . ... ... ... : B-1 00 . P89 : ... .. . ... : ... .. . ... ... : ... .. . ... ... : ... .. . ... ... : D-1 01 8 P95 ...
ROW D1 : ... .. . ... ... ... : ... .. . ... ... ... : ... .. . P69 : ... .. 0 ... : ... .. . ... ... : ... .. . ... ... : ... .. . ... ... : ... .. . P75 ...
ROW D2 : B-1 00 C ... ... ... : G#2 00 F ... ... ... : E-5 00 . P80 : 1-# 00 F ... : ... .. . ... ... : ... .. A ... ... : C#5 01 A ... ... : F-2 01 F P80 ...
ROW D3 : ... .. B ... ... ... : ... .. E ... ... ... : F#4 00 . ... : ... .. C ... : ... .. . ... ... : ... .. 9 ... ... : ... .. 9 ... ... : ... .. D ... ...
ROW D4 : ... .. A ... ... ... : ... .. D ... ... ... : B-3 00 . ... : ... .. 6 ... : ... .. . ... ... : ... .. 8 ... ... : ... .. 8 ... ... : ... .. 8 ... ...
ROW D5 : ... .. 8 ... ... ... : ... .. A ... ... ... : A#3 00 . ... : ... .. 3 ... : ... .. . ... ... : ... .. 7 ... ... : ... .. 7 ... ... : ... .. . ... ...
ROW D6 : ... .. 1 ... ... ... : ... .. . ... ... ... : F-3 00 . ... : ... .. 2 ... : ... .. . ... ... : ... .. . ... ... : ... .. . ... ... : ... .. . ... ...
ROW D7 : ... .. . ... ... ... : ... .. . ... ... ... : --- .. . ... : ... .. 0 ... : ... .. . ... ... : ... .. 6 ... ... : ... .. 6 ... ... : --- .. . P7E ...
ROW D8 : C-2 00 C ... ... ... : C-3 00 F ... ... ... : D#3 00 . ... : C-# 00 8 ... : ... .. . ... ... : ... .. . ... ... : ... .. . ... ... : D#2 01 F P80 ...
ROW D9 : ... .. B ... ... ... : ... .. E ... ... ... : ... .. . ... : ... .. 6 ... : ... .. . ... ... : ... .. 5 ... ... : ... .. 5 ... ... : ... .. D ... ...
ROW DA : ... .. A ... ... ... : ... .. D ... ... ... : ... .. . ... : ... .. 3 ... : ... .. . ... ... : ... .. . ... ... : ... .. . ... ... : ... .. 8 ... ...
ROW DB : ... .. 8 ... ... ... : ... .. A ... ... ... : ... .. . ... : ... .. 1 ... : ... .. . ... ... : ... .. . ... ... : ... .. . ... ... : ... .. . ... ...
ROW DC : ... .. 1 ... ... ... : ... .. 2 ... ... ... : ... .. . ... : ... .. . ... : ... .. . ... ... : ... .. . ... ... : ... .. . ... ... : ... .. . ... ...
ROW DD : ... .. . ... ... ... : ... .. . ... ... ... : --- .. . ... : ... .. 0 ... : ... .. . ... ... : ... .. . ... ... : ... .. . ... ... : --- .. . ... ...
ROW DE : G#1 00 C ... ... ... : F-3 00 F ... ... ... : F-3 00 . ... : ... .. 8 ... : ... .. . ... ... : ... .. . ... ... : ... .. . ... ... : F-2 01 F ... ...
ROW DF : ... .. B ... ... ... : ... .. E ... ... ... : ... .. . ... : ... .. 6 ... : ... .. . ... ... : ... .. . ... ... : ... .. . ... ... : ... .. D ... ...
ROW E0 : ... .. A ... ... ... : ... .. D ... ... ... : ... .. . ... : ... .. 3 ... : ... .. . ... ... : ... .. . ... ... : ... .. . ... ... : ... .. 8 ... ...
ROW E1 : ... .. 8 ... ... ... : ... .. A ... ... ... : --- .. . ... : ... .. 1 ... : ... .. . ... ... : ... .. . ... ... : ... .. . ... ... : --- .. . P7E ...
ROW E2 : ... .. . ... ... ... : ... .. 2 ... ... ... : ... .. . ... : ... .. . ... : ... .. . ... ... : ... .. . ... ... : ... .. . ... ... : ... .. . ... ...
ROW E3 : ... .. . ... ... ... : ... .. . ... ... ... : ... .. . ... : ... .. 0 ... : ... .. . ... ... : ... .. . ... ... : ... .. . ... ... : ... .. . ... ...
ROW E4 : G#2 00 C ... ... ... : G-3 00 F ... ... ... : B-5 00 . ... : 7-# 00 F ... : ... .. . ... ... : ... .. . ... ... : ... .. . ... ... : C-3 01 F P80 ...
ROW E5 : ... .. B ... ... ... : ... .. E ... ... ... : C#5 00 . ... : ... .. C ... : ... .. . ... ... : ... .. . ... ... : ... .. . ... ... : ... .. D ... ...
ROW E6 : ... .. A ... ... ... : ... .. D ... ... ... : F#4 00 . ... : ... .. 6 ... : ... .. . ... ... : ... .. . ... ... : ... .. . ... ... : ... .. 8 ... ...
ROW E7 : ... .. 8 ... ... ... : ... .. A ... ... ... : F-4 00 . ... : ... .. 3 ... : ... .. . ... ... : ... .. . ... ... : ... .. . ... ... : ... .. . ... ...
ROW E8 : ... .. 1 ... ... ... : ... .. . ... ... ... : C-4 00 . ... : ... .. 2 ... : ... .. . ... ... : ... .. . ... ... : ... .. . ... ... : ... .. . ... ...
ROW E9 : ... .. . ... ... ... : ... .. . ... ... ... : ... .. . ... : ... .. 0 ... : ... .. . ... ... : ... .. . ... ... : ... .. . ... ... : ... .. . ... ...
ROW EA : ... .. C ... ... ... : ... .. . ... ... ... : ... .. . ... : 1-# 00 8 ... : ... .. . ... ... : ... .. . ... ... : ... .. . ... ... : ... .. . ... ...
ROW EB : ... .. B ... ... ... : ... .. . ... ... ... : ... .. . ... : ... .. 6 ... : ... .. . ... ... : ... .. . ... ... : ... .. . ... ... : ... .. . ... ...
ROW EC : ... .. A ... ... ... : ... .. . ... ... ... : ... .. . ... : ... .. 3 ... : ... .. . ... ... : ... .. . ... ... : ... .. . ... ... : ... .. . ... ...
ROW ED : ... .. 8 ... ... ... : ... .. . ... ... ... : ... .. . ... : ... .. 1 ... : ... .. . ... ... : ... .. . ... ... : ... .. . ... ... : ... .. . ... ...
ROW EE : ... .. 1 ... ... ... : ... .. . ... ... ... : ... .. . ... : ... .. . ... : ... .. . ... ... : ... .. . ... ... : ... .. . ... ... : ... .. . ... ...
ROW EF : ... .. . ... ... ... : ... .. . ... ... ... : ... .. . ... : ... .. 0 ... : ... .. . ... ... : ... .. . ... ... : ... .. . ... ... : ... .. . ... ...
ROW F0 : B-1 00 C ... ... ... : ... .. . ... ... ... : B-3 00 . ... : 7-# 00 F ... : ... .. . ... ... : ... .. . ... ... : ... .. . ... ... : B-2 01 F ... ...
ROW F1 : ... .. B ... ... ... : ... .. . ... ... ... : ... .. . ... : ... .. C ... : ... .. . ... ... : ... .. . ... ... : ... .. . ... ... : ... .. D ... ...
ROW F2 : ... .. A ... ... ... : ... .. . ... ... ... : ... .. . ... : ... .. 6 ... : ... .. . ... ... : ... .. . ... ... : ... .. . ... ... : ... .. 8 ... ...
ROW F3 : ... .. 8 ... ... ... : ... .. . ... ... ... : ... .. . ... : ... .. 3 ... : ... .. . ... ... : ... .. . ... ... : ... .. . ... ... : ... .. . ... ...
ROW F4 : ... .. 1 ... ... ... : ... .. 2 ... ... ... : ... .. . ... : ... .. 2 ... : ... .. . ... ... : ... .. . ... ... : ... .. . ... ... : ... .. . ... ...
ROW F5 : ... .. . ... ... ... : ... .. . ... ... ... : ... .. . ... : ... .. 0 ... : ... .. . ... ... : ... .. . ... ... : ... .. . ... ... : ... .. . ... ...
ROW F6 : B-2 00 C ... ... ... : C-3 00 F ... ... ... : ... .. . ... : 1-# 00 8 ... : ... .. . ... ... : ... .. . ... ... : ... .. . ... ... : ... .. . ... ...
ROW F7 : ... .. B ... ... ... : ... .. E ... ... ... : ... .. . ... : ... .. 6 ... : ... .. . ... ... : ... .. . ... ... : ... .. . ... ... : ... .. . ... ...
ROW F8 : ... .. A ... ... ... : ... .. D ... ... ... : ... .. . ... : ... .. 3 ... : ... .. . ... ... : ... .. . ... ... : ... .. . ... ... : ... .. . ... ...
ROW F9 : ... .. 8 ... ... ... : ... .. A ... ... ... : ... .. . ... : ... .. 1 ... : ... .. . ... ... : ... .. . ... ... : ... .. . ... ... : ... .. . ... ...
ROW FA : ... .. 1 ... ... ... : ... .. . ... ... ... : ... .. . ... : ... .. . ... : ... .. . ... ... : ... .. . ... ... : ... .. . ... ... : ... .. . ... ...
ROW FB : ... .. . ... ... ... : ... .. . ... ... ... : --- .. . ... : ... .. 0 ... : ... .. . ... ... : ... .. . ... ... : ... .. . ... ... : --- .. . P8B ...
ROW FC : ... .. C ... ... ... : F-3 00 F ... ... ... : F-3 00 . ... : 7-# 00 F ... : ... .. . ... ... : ... .. . ... ... : ... .. . ... ... : F-2 01 F P80 ...
ROW FD : ... .. B ... ... ... : ... .. E ... ... ... : ... .. . ... : ... .. C ... : ... .. . ... ... : ... .. . ... ... : ... .. . ... ... : ... .. D ... ...
ROW FE : ... .. A ... ... ... : ... .. D ... ... ... : ... .. . ... : ... .. 6 ... : ... .. . ... ... : ... .. . ... ... : ... .. . ... ... : ... .. 8 ... ...
ROW FF : ... .. 8 ... ... ... : ... .. A ... ... ... : ... .. . ... : ... .. 3 ... : ... .. . ... ... : ... .. . ... ... : ... .. . ... ... : ... .. . ... ...

PATTERN 19
ROW 00 : ... .. 1 ... ... ... : ... .. 2 ... ... ... : ... .. . ... : ... .. 2 ... : ... .. . ... ... : ... .. . ... ... : ... .. . ... ... : ... .. . ... ...
ROW 01 : ... .. . ... ... ... : ... .. . ... ... ... : ... .. . ... : ... .. 0 ... : ... .. . ... ... : ... .. . ... ... : ... .. . ... ... : ... .. . ... ...
ROW 02 : F-2 00 C ... ... ... : G-3 00 F ... ... ... : ... .. . ... : 1-# 00 8 ... : ... .. . ... ... : ... .. . ... ... : ... .. . ... ... : ... .. . ... ...
ROW 03 : ... .. B ... ... ... : ... .. E ... ... ... : ... .. . ... : ... .. 6 ... : ... .. . ... ... : ... .. . ... ... : ... .. . ... ... : ... .. . ... ...
ROW 04 : ... .. A ... ... ... : ... .. D ... ... ... : ... .. . ... : ... .. 3 ... : ... .. . ... ... : ... .. . ... ... : ... .. . ... ... : ... .. . ... ...
ROW 05 : ... .. 8 ... ... ... : ... .. A ... ... ... : ... .. . ... : ... .. 1 ... : ... .. . ... ... : ... .. . ... ... : ... .. . ... ... : ... .. . ... ...
ROW 06 : ... .. 1 ... ... ... : ... .. 2 ... ... ... : ... .. . ... : ... .. . ... : ... .. . ... ... : ... .. . ... ... : ... .. . ... ... : ... .. . ... ...
ROW 07 : ... .. . ... ... ... : ... .. . ... ... ... : --- .. . ... : ... .. 0 ... : ... .. . ... ... : ... .. . ... ... : ... .. . ... ... : --- .. . P7E ...
ROW 08 : E-3 00 C ... ... ... : A#3 00 F ... ... ... : E-5 00 . ... : ... .. F ... : ... .. . ... ... : ... .. A ... ... : C-4 01 A ... ... : F-2 01 F P80 ...
ROW 09 : ... .. B ... ... ... : ... .. E ... ... ... : F#4 00 . ... : ... .. C ... : ... .. . ... ... : ... .. 9 ... ... : ... .. 9 ... ... : ... .. D ... ...
ROW 0A : ... .. A ... ... ... : ... .. D ... ... ... : B-3 00 . ... : ... .. 6 ... : ... .. . ... ... : ... .. 8 ... ... : ... .. 8 ... ... : ... .. 8 ... ...
ROW 0B : ... .. 8 ... ... ... : ... .. A ... ... ... : A#3 00 . ... : ... .. 3 ... : ... .. . ... ... : ... .. 7 ... ... : ... .. 7 ... ... : ... .. . ... ...
ROW 0C : ... .. . ... ... ... : ... .. . ... ... ... : F-3 00 . ... : ... .. 2 ... : ... .. . ... ... : ... .. . ... ... : ... .. . ... ... : ... .. . ... ...
ROW 0D : ... .. . ... ... ... : ... .. . ... ... ... : ... .. . ... : ... .. 0 ... : ... .. . ... ... : ... .. 6 ... ... : ... .. 6 ... ... : ... .. . ... ...
ROW 0E : F-1 00 C ... ... ... : ... .. . ... ... ... : ... .. . ... : C-# 00 8 ... : ... .. . ... ... : G#3 01 A ... ... : G#3 01 A ... ... : ... .. . ... ...
ROW 0F : ... .. B ... ... ... : ... .. . ... ... ... : ... .. . ... : ... .. 6 ... : ... .. . ... ... : ... .. 9 ... ... : ... .. 9 ... ... : ... .. . ... ...
ROW 10 : ... .. A ... ... ... : ... .. . ... ... ... : ... .. . ... : ... .. 3 ... : ... .. . ... ... : ... .. 8 ... ... : ... .. 8 ... ... : ... .. . ... ...
ROW 11 : ... .. 8 ... ... ... : ... .. . ... ... ... : D#3 00 . P88 : ... .. 1 ... : ... .. . ... ... : ... .. 7 ... ... : ... .. 7 ... ... : E-2 01 8 P8C ...
ROW 12 : ... .. 1 ... ... ... : ... .. . ... ... ... : D-3 00 . P7D : ... .. . ... : ... .. . ... ... : ... .. . ... ... : ... .. . ... ... : ... .. . P6C ...
ROW 13 : ... .. . ... ... ... : ... .. . ... ... ... : C-3 00 . P8C : ... .. 0 ... : ... .. . ... ... : ... .. 6 ... ... : ... .. 6 ... ... : D#2 01 8 P7A ...
ROW 14 : ... .. C ... ... ... : ... .. . ... ... ... : B-2 00 . P85 : ... .. 8 ... : ... .. . ... ... : F-3 01 A ... ... : F-3 01 A ... ... : D-2 01 8 P8B ...
ROW 15 : ... .. B ... ... ... : ... .. . ... ... ... : A#2 00 . P80 : ... .. 6 ... : ... .. . ... ... : ... .. 9 ... ... : ... .. 9 ... ... : ... .. . P6B ...
ROW 16 : ... .. A ... ... ... : ... .. . ... ... ... : A-2 00 . P7C : ... .. 3 ... : ... .. . ... ... : ... .. 8 ... ... : ... .. 8 ... ... : C#2 01 8 P7E ...
ROW 17 : ... .. 8 ... ... ... : ... .. . ... ... ... : G#2 00 . P7B : ... .. 1 ... : ... .. . ... ... : ... .. 7 ... ... : ... .. 7 ... ... : C-2 01 8 P95 ...
ROW 18 : ... .. 1 ... ... ... : ... .. . ... ... ... : G-2 00 . ... : ... .. . ... : ... .. . ... ... : ... .. . ... ... : ... .. . ... ... : ... .. . P75 ...
ROW 19 : ... .. . ... ... ... : ... .. . ... ... ... : F#2 00 . P7D : ... .. 0 ... : ... .. . ... ... : ... .. 6 ... ... : ... .. 6 ... ... : B-1 01 8 P8F ...
ROW 1A : E-3 00 C ... ... ... : ... .. . ... ... ... : E-5 00 . P80 : 1-# 00 F ... : ... .. . ... ... : G#4 01 A ... ... : C-4 01 A ... ... : F-2 01 F P80 ...
ROW 1B : ... .. B ... ... ... : ... .. 2 ... ... ... : F#4 00 . ... : ... .. C ... : ... .. . ... ... : ... .. 9 ... ... : ... .. 9 ... ... : ... .. D ... ...
ROW 1C : ... .. A ... ... ... : ... .. . ... ... ... : B-3 00 . ... : ... .. 6 ... : ... .. . ... ... : ... .. 8 ... ... : ... .. 8 ... ... : ... .. 8 ... ...
ROW 1D : ... .. 8 ... ... ... : ... .. . ... ... ... : A#3 00 . ... : ... .. 3 ... : ... .. . ... ... : ... .. 7 ... ... : ... .. 7 ... ... : ... .. . ... ...
ROW 1E : ... .. . ... ... ... : ... .. 1 ... ... ... : F-3 00 . ... : ... .. 2 ... : ... .. . ... ... : ... .. . ... ... : ... .. . ... ... : ... .. . ... ...
ROW 1F : ... .. . ... ... ... : ... .. . ... ... ... : ... .. . ... : ... .. 0 ... : ... .. . ... ... : ... .. 6 ... ... : ... .. 6 ... ... : ... .. . ... ...
ROW 20 : F-1 00 C ... ... ... : G#3 00 F ... ... ... : ... .. . ... : C-# 00 8 ... : ... .. . ... ... : G#3 01 A ... ... : G#3 01 A ... ... : ... .. . ... ...
ROW 21 : ... .. B ... ... ... : ... .. E ... ... ... : ... .. . ... : ... .. 6 ... : ... .. . ... ... : ... .. 9 ... ... : ... .. 9 ... ... : ... .. . ... ...
ROW 22 : ... .. A ... ... ... : ... .. D ... ... ... : ... .. . ... : ... .. 3 ... : ... .. . ... ... : ... .. 8 ... ... : ... .. 8 ... ... : ... .. . ... ...
ROW 23 : ... .. 8 ... ... ... : ... .. A ... ... ... : D#3 00 . P88 : ... .. 1 ... : ... .. . ... ... : ... .. 7 ... ... : ... .. 7 ... ... : E-2 01 8 P8C ...
ROW 24 : ... .. 1 ... ... ... : ... .. 2 ... ... ... : D-3 00 . P7D : ... .. . ... : ... .. . ... ... : ... .. . ... ... : ... .. . ... ... : ... .. . P6C ...
ROW 25 : ... .. . ... ... ... : ... .. . ... ... ... : C-3 00 . P8C : ... .. 0 ... : ... .. . ... ... : ... .. 6 ... ... : ... .. 6 ... ... : D#2 01 8 P7A ...
ROW 26 : ... .. C ... ... ... : G-3 00 F ... ... ... : B-2 00 . P85 : ... .. 8 ... : ... .. . ... ... : F-3 01 A ... ... : F-3 01 A ... ... : D-2 01 8 P8B ...
ROW 27 : ... .. B ... ... ... : ... .. E ... ... ... : A#2 00 . P80 : ... .. 6 ... : ... .. . ... ... : ... .. 9 ... ... : ... .. 9 ... ... : ... .. . P6B ...
ROW 28 : ... .. A ... ... ... : ... .. D ... ... ... : A-2 00 . P7C : ... .. 3 ... : ... .. . ... ... : ... .. 8 ... ... : ... .. 8 ... ... : C#2 01 8 P7E ...
ROW 29 : ... .. 8 ... ... ... : ... .. A ... ... ... : G#2 00 . P7B : ... .. 1 ... : ... .. . ... ... : ... .. 7 ... ... : ... .. 7 ... ... : C-2 01 8 P95 ...
ROW 2A : ... .. 1 ... ... ... : ... .. 2 ... ... ... : G-2 00 . ... : ... .. . ... : ... .. . ... ... : ... .. . ... ... : ... .. . ... ... : ... .. . P75 ...
ROW 2B : ... .. . ... ... ... : ... .. . ... ... ... : F#2 00 . P7D : ... .. 0 ... : ... .. . ... ... : ... .. 6 ... ... : ... .. 6 ... ... : B-1 01 8 P8F ...
ROW 2C : D#3 00 C ... ... ... : G#3 00 F ... ... ... : E-4 00 . P80 : 7-# 00 F ... : ... .. . ... ... : G#4 01 A ... ... : C-4 01 A ... ... : F-1 01 F P80 ...
ROW 2D : ... .. B ... ... ... : ... .. E ... ... ... : F#3 00 . ... : ... .. C ... : ... .. . ... ... : ... .. 9 ... ... : ... .. 9 ... ... : ... .. D ... ...
ROW 2E : ... .. A ... ... ... : ... .. D ... ... ... : B-2 00 . ... : ... .. 6 ... : ... .. . ... ... : ... .. 8 ... ... : ... .. 8 ... ... : ... .. 8 ... ...
ROW 2F : ... .. 8 ... ... ... : ... .. A ... ... ... : A#2 00 . ... : ... .. 3 ... : ... .. . ... ... : ... .. 7 ... ... : ... .. 7 ... ... : ... .. . ... ...
ROW 30 : ... .. . ... ... ... : ... .. . ... ... ... : F-2 00 . ... : ... .. 2 ... : ... .. . ... ... : ... .. . ... ... : ... .. . ... ... : ... .. . ... ...
ROW 31 : ... .. . ... ... ... : ... .. . ... ... ... : ... .. . ... : ... .. 0 ... : ... .. . ... ... : ... .. 6 ... ... : ... .. 6 ... ... : ... .. . ... ...
ROW 32 : F-1 00 C ... ... ... : ... .. . ... ... ... : ... .. . ... : ... .. 8 ... : ... .. . ... ... : G#3 01 A ... ... : G#3 01 A ... ... : ... .. . ... ...
ROW 33 : ... .. B ... ... ... : ... .. . ... ... ... : ... .. . ... : ... .. 6 ... : ... .. . ... ... : ... .. 9 ... ... : ... .. 9 ... ... : ... .. . ... ...
ROW 34 : ... .. A ... ... ... : ... .. . ... ... ... : ... .. . ... : ... .. 3 ... : ... .. . ... ... : ... .. 8 ... ... : ... .. 8 ... ... : ... .. . ... ...
ROW 35 : ... .. 8 ... ... ... : ... .. . ... ... ... : E-2 00 . P86 : ... .. 1 ... : ... .. . ... ... : ... .. 7 ... ... : ... .. 7 ... ... : ... .. . P60 ...
ROW 36 : ... .. 1 ... ... ... : ... .. . ... ... ... : D#2 00 . P8E : ... .. . ... : ... .. . ... ... : ... .. . ... ... : ... .. . ... ... : E-1 01 8 P97 ...
ROW 37 : ... .. . ... ... ... : ... .. . ... ... ... : ... .. . P6E : ... .. 0 ... : ... .. . ... ... : ... .. 6 ... ... : ... .. 6 ... ... : ... .. . P77 ...
ROW 38 : ... .. C ... ... ... : ... .. . ... ... ... : D-2 00 . P79 : 4-# 00 F ... : ... .. . ... ... : B-2 01 A ... ... : D#3 01 A ... ... : ... .. . P57 ...
ROW 39 : ... .. B ... ... ... : ... .. . ... ... ... : C#2 00 . P86 : ... .. C ... : ... .. . ... ... : ... .. 9 ... ... : ... .. 9 ... ... : D#1 01 8 P94 ...
ROW 3A : ... .. A ... ... ... : ... .. . ... ... ... : C-2 00 . P96 : ... .. 6 ... : ... .. . ... ... : ... .. 8 ... ... : ... .. 8 ... ... : ... .. . P74 ...
ROW 3B : ... .. 8 ... ... ... : ... .. . ... ... ... : ... .. . P76 : ... .. 3 ... : ... .. . ... ... : ... .. 7 ... ... : ... .. 7 ... ... : ... .. . P54 ...
ROW 3C : ... .. 1 ... ... ... : ... .. . ... ... ... : B-1 00 . P89 : ... .. 2 ... : ... .. . ... ... : ... .. . ... ... : ... .. . ... ... : D-1 01 8 P95 ...
ROW 3D : ... .. . ... ... ... : ... .. . ... ... ... : ... .. . P69 : ... .. 0 ... : ... .. . ... ... : ... .. 6 ... ... : ... .. 6 ... ... : ... .. . P75 ...
ROW 3E : D#3 00 C ... ... ... : ... .. . ... ... ... : E-4 00 . P80 : 9-# 00 8 ... : ... .. . ... ... : G#4 01 A ... ... : C-4 01 A ... ... : F-1 01 F P80 ...
ROW 3F : ... .. B ... ... ... : ... .. 2 ... ... ... : F#3 00 . ... : ... .. 6 ... : ... .. . ... ... : ... .. 9 ... ... : ... .. 9 ... ... : ... .. D ... ...
ROW 40 : ... .. A ... ... ... : ... .. . ... ... ... : B-2 00 . ... : ... .. 3 ... : ... .. . ... ... : ... .. 8 ... ... : ... .. 8 ... ... : ... .. 8 ... ...
ROW 41 : ... .. 8 ... ... ... : ... .. . ... ... ... : A#2 00 . ... : ... .. 1 ... : ... .. . ... ... : ... .. 7 ... ... : ... .. 7 ... ... : ... .. . ... ...
ROW 42 : ... .. . ... ... ... : ... .. 1 ... ... ... : F-2 00 . ... : ... .. . ... : ... .. . ... ... : ... .. . ... ... : ... .. . ... ... : ... .. . ... ...
ROW 43 : ... .. . ... ... ... : ... .. . ... ... ... : ... .. . ... : ... .. 0 ... : ... .. . ... ... : ... .. 6 ... ... : ... .. 6 ... ... : ... .. . ... ...
ROW 44 : F-1 00 C ... ... ... : ... .. F ... ... ... : ... .. . ... : 7-# 00 F ... : ... .. . ... ... : G#3 01 A ... ... : G#3 01 A ... ... : ... .. . ... ...
ROW 45 : ... .. B ... ... ... : ... .. E ... ... ... : ... .. . ... : ... .. C ... : ... .. . ... ... : ... .. 9 ... ... : ... .. 9 ... ... : ... .. . ... ...
ROW 46 : ... .. A ... ... ... : ... .. D ... ... ... : ... .. . ... : ... .. 6 ... : ... .. . ... ... : ... .. 8 ... ... : ... .. 8 ... ... : ... .. . ... ...
ROW 47 : ... .. 8 ... ... ... : ... .. A ... ... ... : E-2 00 . P86 : ... .. 3 ... : ... .. . ... ... : ... .. 7 ... ... : ... .. 7 ... ... : ... .. . P60 ...
ROW 48 : ... .. 1 ... ... ... : ... .. 2 ... ... ... : D#2 00 . P8E : ... .. 2 ... : ... .. . ... ... : ... .. . ... ... : ... .. . ... ... : E-1 01 8 P97 ...
ROW 49 : ... .. . ... ... ... : ... .. . ... ... ... : ... .. . P6E : ... .. 0 ... : ... .. . ... ... : ... .. 6 ... ... : ... .. 6 ... ... : ... .. . P77 ...
ROW 4A : ... .. C ... ... ... : A#3 00 F ... ... ... : D-2 00 . P79 : 5-# 00 8 ... : ... .. . ... ... : B-2 01 A ... ... : D#3 01 A ... ... : ... .. . P57 ...
ROW 4B : ... .. B ... ... ... : ... .. E ... ... ... : C#2 00 . P86 : ... .. 6 ... : ... .. . ... ... : ... .. 9 ... ... : ... .. 9 ... ... : D#1 01 8 P94 ...
ROW 4C : ... .. A ... ... ... : ... .. D ... ... ... : C-2 00 . P96 : ... .. 3 ... : ... .. . ... ... : ... .. 8 ... ... : ... .. 8 ... ... : ... .. . P74 ...
ROW 4D : ... .. 8 ... ... ... : ... .. A ... ... ... : ... .. . P76 : ... .. 1 ... : ... .. . ... ... : ... .. 7 ... ... : ... .. 7 ... ... : ... .. . P54 ...
ROW 4E : ... .. 1 ... ... ... : ... .. 2 ... ... ... : B-1 00 . P89 : ... .. . ... : ... .. . ... ... : ... .. . ... ... : ... .. . ... ... : D-1 01 8 P95 ...
ROW 4F : ... .. . ... ... ... : ... .. . ... ... ... : ... .. . P69 : ... .. 0 ... : ... .. . ... ... : ... .. 6 ... ... : ... .. 6 ... ... : ... .. . P75 ...
ROW 50 : B-3 00 F ... V02 ... : E-2 00 B ... ... ... : D#4 00 . P80 : 1-# 00 F ... : ... .. . ... ... : B-3 01 6 ... ... : G#3 01 6 ... ... : E-4 01 A P80 ...
ROW 51 : ... .. E ... ... ... : ... .. F ... ... ... : F-3 00 . ... : ... .. C ... : ... .. . ... ... : ... .. . ... ... : ... .. . ... ... : ... .. 8 ... ...
ROW 52 : ... .. D ... ... ... : ... .. B ... ... ... : A#2 00 . ... : ... .. 6 ... : ... .. . ... ... : ... .. 5 ... ... : ... .. 5 ... ... : ... .. 5 ... ...
ROW 53 : ... .. A ... ... ... : ... .. 0 ... ... ... : A-2 00 . ... : ... .. 3 ... : ... .. . ... ... : ... .. 4 ... ... : ... .. 4 ... ... : ... .. . ... ...
ROW 54 : ... .. . ... ... ... : E-2 00 8 P80 ... ... : E-2 00 . ... : ... .. 2 ... : ... .. . ... ... : ... .. . ... ... : ... .. . ... ... : ... .. . ... ...
ROW 55 : ... .. . ... ... ... : ... .. C ... ... ... : ... .. . ... : ... .. 0 ... : ... .. . ... ... : ... .. . ... ... : ... .. . ... ... : ... .. . ... ...
ROW 56 : ... .. . ... ... ... : B-1 00 B ... ... ... : ... .. . ... : C-# 00 8 ... : ... .. . ... ... : ... .. . ... ... : ... .. . ... ... : ... .. . ... ...
ROW 57 : ... .. . ... ... ... : ... .. F ... ... ... : ... .. . ... : ... .. 6 ... : ... .. . ... ... : ... .. 3 ... ... : ... .. 3 ... ... : ... .. . ... ...
ROW 58 : ... .. . ... ... ... : ... .. B ... ... ... : ... .. . ... : ... .. 3 ... : ... .. . ... ... : ... .. . ... ... : ... .. . ... ... : ... .. . ... ...
ROW 59 : ... .. . ... ... ... : ... .. 0 ... ... ... : ... .. . ... : ... .. 1 ... : ... .. . ... ... : ... .. . ... ... : ... .. . ... ... : ... .. . ... ...
ROW 5A : ... .. . ... ... ... : B-1 00 8 P80 ... ... : ... .. . ... : ... .. . ... : ... .. . ... ... : ... .. . ... ... : ... .. . ... ... : ... .. . ... ...
ROW 5B : ... .. . ... ... ... : ... .. C ... ... ... : ... .. . ... : ... .. 0 ... : ... .. . ... ... : ... .. . ... ... : ... .. . ... ... : ... .. . ... ...
ROW 5C : ... .. . ... ... ... : G#2 00 B ... ... ... : F-2 00 . P7A : ... .. 8 ... : ... .. . ... ... : ... .. . ... ... : ... .. . ... ... : ... .. . ... ...
ROW 5D : ... .. . ... ... ... : ... .. F ... ... ... : F#2 00 . P76 : ... .. 6 ... : ... .. . ... ... : ... .. . ... ... : ... .. . ... ... : ... .. . ... ...
ROW 5E : ... .. . ... ... ... : ... .. B ... ... ... : G-2 00 . P74 : ... .. 3 ... : ... .. . ... ... : ... .. . ... ... : ... .. . ... ... : ... .. . ... ...
ROW 5F : ... .. . ... ... ... : ... .. 0 ... ... ... : G#2 00 . ... : ... .. 1 ... : ... .. . ... ... : ... .. . ... ... : ... .. . ... ... : ... .. . ... ...
ROW 60 : ... .. . ... ... ... : G#2 00 8 P80 ... ... : A-2 00 . P75 : ... .. . ... : ... .. . ... ... : ... .. . ... ... : ... .. . ... ... : ... .. . ... ...
ROW 61 : ... .. . ... ... ... : ... .. C ... ... ... : A#2 00 . P79 : ... .. 0 ... : ... .. . ... ... : ... .. . ... ... : ... .. . ... ... : ... .. . ... ...
ROW 62 : ... .. . P84 ... ... : B-2 00 B ... ... ... : G-5 00 . P80 : 1-# 00 F ... : ... .. . ... ... : C#4 01 6 ... ... : A#3 01 6 ... ... : F#4 01 A ... ...
ROW 63 : ... .. . P86 ... ... : ... .. F ... ... ... : A-4 00 . ... : ... .. C ... : ... .. . ... ... : ... .. . ... ... : ... .. . ... ... : ... .. 8 ... ...
ROW 64 : ... .. . P85 ... ... : ... .. B ... ... ... : D-4 00 . ... : ... .. 6 ... : ... .. . ... ... : ... .. 5 ... ... : ... .. 5 ... ... : ... .. 5 ... ...
ROW 65 : ... .. . P82 ... ... : ... .. 0 ... ... ... : C#4 00 . ... : ... .. 3 ... : ... .. . ... ... : ... .. 4 ... ... : ... .. 4 ... ... : ... .. . ... ...
ROW 66 : ... .. . P7E ... ... : B-2 00 8 P80 ... ... : G#3 00 . ... : ... .. 2 ... : ... .. . ... ... : ... .. . ... ... : ... .. . ... ... : ... .. . ... ...
ROW 67 : ... .. . P7B ... ... : ... .. C ... ... ... : --- .. . ... : ... .. 0 ... : ... .. . ... ... : ... .. . ... ... : ... .. . ... ... : ... .. . ... ...
ROW 68 : ... .. . P7A ... ... : E-2 00 B ... ... ... : F#3 00 . ... : C-# 00 8 ... : ... .. . ... ... : ... .. . ... ... : ... .. . ... ... : ... .. . ... ...
ROW 69 : ... .. . P7C ... ... : ... .. F ... ... ... : ... .. . ... : ... .. 6 ... : ... .. . ... ... : ... .. 3 ... ... : ... .. 3 ... ... : ... .. . ... ...
ROW 6A : ... .. . P80 ... ... : ... .. B ... ... ... : ... .. . ... : ... .. 3 ... : ... .. . ... ... : ... .. . ... ... : ... .. . ... ... : ... .. . ... ...
ROW 6B : ... .. . P83 ... ... : ... .. 0 ... ... ... : ... .. . ... : ... .. 1 ... : ... .. . ... ... : ... .. . ... ... : ... .. . ... ... : ... .. . ... ...
ROW 6C : ... .. . P86 ... ... : E-2 00 8 P80 ... ... : ... .. . ... : ... .. . ... : ... .. . ... ... : ... .. . ... ... : ... .. . ... ... : ... .. . ... ...
ROW 6D : ... .. . ... ... ... : ... .. C ... ... ... : --- .. . ... : ... .. 0 ... : ... .. . ... ... : ... .. . ... ... : ... .. . ... ... : ... .. . ... ...
ROW 6E : ... .. . P82 ... ... : E-3 00 B ... ... ... : G#3 00 . ... : ... .. 8 ... : ... .. . ... ... : ... .. . ... ... : ... .. . ... ... : ... .. . ... ...
ROW 6F : ... .. . P7F ... ... : ... .. F ... ... ... : ... .. . ... : ... .. 6 ... : ... .. . ... ... : ... .. . ... ... : ... .. . ... ... : ... .. . ... ...
ROW 70 : ... .. . P7B ... ... : ... .. B ... ... ... : ... .. . ... : ... .. 3 ... : ... .. . ... ... : ... .. . ... ... : ... .. . ... ... : ... .. . ... ...
ROW 71 : ... .. . P7A ... ... : ... .. 0 ... ... ... : --- .. . ... : ... .. 1 ... : ... .. . ... ... : ... .. . ... ... : ... .. . ... ... : ... .. . ... ...
ROW 72 : ... .. . P7C ... ... : E-3 00 8 P80 ... ... : ... .. . ... : ... .. . ... : ... .. . ... ... : ... .. . ... ... : ... .. . ... ... : ... .. . ... ...
ROW 73 : ... .. . P80 ... ... : ... .. C ... ... ... : ... .. . ... : ... .. 0 ... : ... .. . ... ... : ... .. . ... ... : ... .. . ... ... : ... .. . ... ...
ROW 74 : C#4 00 F ... ... ... : G#3 00 B ... ... ... : D#6 00 . ... : 7-# 00 F ... : ... .. . ... ... : A#3 01 6 ... ... : F#3 01 6 ... ... : D#4 01 A ... ...
ROW 75 : ... .. E ... ... ... : ... .. F ... ... ... : F-5 00 . ... : ... .. C ... : ... .. . ... ... : ... .. . ... ... : ... .. . ... ... : ... .. 8 ... ...
ROW 76 : ... .. D ... ... ... : ... .. B ... ... ... : A#4 00 . ... : ... .. 6 ... : ... .. . ... ... : ... .. 5 ... ... : ... .. 5 ... ... : ... .. 5 ... ...
ROW 77 : ... .. A ... ... ... : ... .. 0 ... ... ... : A-4 00 . ... : ... .. 3 ... : ... .. . ... ... : ... .. 4 ... ... : ... .. 4 ... ... : ... .. . ... ...
ROW 78 : ... .. . ... ... ... : G#3 00 8 P80 ... ... : E-4 00 . ... : ... .. 2 ... : ... .. . ... ... : ... .. . ... ... : ... .. . ... ... : ... .. . ... ...
ROW 79 : ... .. . ... ... ... : ... .. C ... ... ... : ... .. . ... : ... .. 0 ... : ... .. . ... ... : ... .. . ... ... : ... .. . ... ... : ... .. . ... ...
ROW 7A : ... .. . ... ... ... : B-2 00 B ... ... ... : ... .. . ... : 1-# 00 8 ... : ... .. . ... ... : ... .. . ... ... : ... .. . ... ... : ... .. . ... ...
ROW 7B : ... .. . ... ... ... : ... .. F ... ... ... : ... .. . ... : ... .. 6 ... : ... .. . ... ... : ... .. 3 ... ... : ... .. 3 ... ... : ... .. . ... ...
ROW 7C : ... .. . ... ... ... : ... .. B ... ... ... : ... .. . ... : ... .. 3 ... : ... .. . ... ... : ... .. . ... ... : ... .. . ... ... : ... .. . ... ...
ROW 7D : ... .. . ... ... ... : ... .. 0 ... ... ... : ... .. . ... : ... .. 1 ... : ... .. . ... ... : ... .. . ... ... : ... .. . ... ... : ... .. . ... ...
ROW 7E : ... .. . ... ... ... : B-2 00 8 P80 ... ... : ... .. . ... : ... .. . ... : ... .. . ... ... : ... .. . ... ... : ... .. . ... ... : ... .. . ... ...
ROW 7F : ... .. . ... ... ... : ... .. C ... ... ... : ... .. . ... : ... .. 0 ... : ... .. . ... ... : ... .. . ... ... : ... .. . ... ... : ... .. . ... ...
ROW 80 : B-3 00 F ... ... ... : E-3 00 B ... ... ... : D#4 00 . ... : 7-# 00 F ... : ... .. . ... ... : ... .. . ... ... : ... .. . ... ... : ... .. . ... ...
ROW 81 : ... .. E ... ... ... : ... .. F ... ... ... : ... .. . ... : ... .. C ... : ... .. . ... ... : ... .. . ... ... : ... .. . ... ... : ... .. . ... ...
ROW 82 : ... .. D ... ... ... : ... .. B ... ... ... : ... .. . ... : ... .. 6 ... : ... .. . ... ... : ... .. . ... ... : ... .. . ... ... : ... .. . ... ...
ROW 83 : ... .. A ... ... ... : ... .. 0 ... ... ... : ... .. . ... : ... .. 3 ... : ... .. . ... ... : ... .. . ... ... : ... .. . ... ... : ... .. . ... ...
ROW 84 : ... .. . ... ... ... : E-3 00 8 P80 ... ... : ... .. . ... : ... .. 2 ... : ... .. . ... ... : ... .. . ... ... : ... .. . ... ... : ... .. . ... ...
ROW 85 : ... .. . ... ... ... : ... .. C ... ... ... : ... .. . ... : ... .. 0 ... : ... .. . ... ... : ... .. . ... ... : ... .. . ... ... : ... .. . ... ...
ROW 86 : ... .. . ... ... ... : G#3 00 B ... ... ... : ... .. . ... : 1-# 00 8 ... : ... .. . ... ... : B-3 01 6 ... ... : G#3 01 6 ... ... : E-4 01 A ... ...
ROW 87 : ... .. . ... ... ... : ... .. F ... ... ... : ... .. . ... : ... .. 6 ... : ... .. . ... ... : ... .. . ... ... : ... .. . ... ... : ... .. 8 ... ...
ROW 88 : ... .. . ... ... ... : ... .. B ... ... ... : ... .. . ... : ... .. 3 ... : ... .. . ... ... : ... .. 5 ... ... : ... .. 5 ... ... : ... .. 5 ... ...
ROW 89 : ... .. . ... ... ... : ... .. 0 ... ... ... : ... .. . ... : ... .. 1 ... : ... .. . ... ... : ... .. 4 ... ... : ... .. 4 ... ... : ... .. . ... ...
ROW 8A : ... .. . ... ... ... : G#3 00 8 P80 ... ... : ... .. . ... : ... .. . ... : ... .. . ... ... : ... .. . ... ... : ... .. . ... ... : ... .. . ... ...
ROW 8B : ... .. . ... ... ... : ... .. C ... ... ... : --- .. . ... : ... .. 0 ... : ... .. . ... ... : ... .. . ... ... : ... .. . ... ... : ... .. . ... ...
ROW 8C : A#3 00 F ... ... ... : E-3 00 B ... ... ... : G#3 00 . ... : 7-# 00 F ... : ... .. . ... ... : ... .. . ... ... : ... .. . ... ... : ... .. . ... ...
ROW 8D : ... .. E ... ... ... : ... .. F ... ... ... : ... .. . ... : ... .. C ... : ... .. . ... ... : ... .. 3 ... ... : ... .. 3 ... ... : ... .. . ... ...
ROW 8E : ... .. D ... ... ... : ... .. B ... ... ... : ... .. . ... : ... .. 6 ... : ... .. . ... ... : ... .. . ... ... : ... .. . ... ... : ... .. . ... ...
ROW 8F : ... .. A ... ... ... : ... .. 0 ... ... ... : ... .. . ... : ... .. 3 ... : ... .. . ... ... : ... .. . ... ... : ... .. . ... ... : ... .. . ... ...
ROW 90 : ... .. . ... ... ... : E-3 00 8 P80 ... ... : ... .. . ... : ... .. 2 ... : ... .. . ... ... : ... .. . ... ... : ... .. . ... ... : ... .. . ... ...
ROW 91 : ... .. . ... ... ... : ... .. C ... ... ... : ... .. . ... : ... .. 0 ... : ... .. . ... ... : ... .. . ... ... : ... .. . ... ... : ... .. . ... ...
ROW 92 : ... .. . ... ... ... : G#3 00 B ... ... ... : ... .. . ... : 1-# 00 8 ... : ... .. . ... ... : ... .. . ... ... : ... .. . ... ... : ... .. . ... ...
ROW 93 : ... .. . ... ... ... : ... .. F ... ... ... : ... .. . ... : ... .. 6 ... : ... .. . ... ... : ... .. . ... ... : ... .. . ... ... : ... .. . ... ...
ROW 94 : ... .. . ... ... ... : ... .. B ... ... ... : ... .. . ... : ... .. 3 ... : ... .. . ... ... : ... .. . ... ... : ... .. . ... ... : ... .. . ... ...
ROW 95 : ... .. . ... ... ... : ... .. 0 ... ... ... : ... .. . ... : ... .. 1 ... : ... .. . ... ... : ... .. . ... ... : ... .. . ... ... : ... .. . ... ...
ROW 96 : ... .. . ... ... ... : G#3 00 8 P80 ... ... : ... .. . ... : ... .. . ... : ... .. . ... ... : ... .. . ... ... : ... .. . ... ... : ... .. . ... ...
ROW 97 : ... .. . ... ... ... : ... .. C ... ... ... : --- .. . ... : ... .. 0 ... : ... .. . ... ... : ... .. . ... ... : ... .. . ... ... : ... .. . ... ...
ROW 98 : G#3 00 F ... ... ... : C#4 00 B ... ... ... : C-4 00 . ... : ... .. F ... : ... .. . ... ... : G#3 01 6 ... ... : E-3 01 6 ... ... : C#4 01 A ... ...
ROW 99 : ... .. E ... ... ... : ... .. F ... ... ... : D-3 00 . ... : ... .. C ... : ... .. . ... ... : ... .. . ... ... : ... .. . ... ... : ... .. 8 ... ...
ROW 9A : ... .. D ... ... ... : ... .. B ... ... ... : G-2 00 . ... : ... .. 6 ... : ... .. . ... ... : ... .. 5 ... ... : ... .. 5 ... ... : ... .. 5 ... ...
ROW 9B : ... .. A ... ... ... : ... .. 0 ... ... ... : F#2 00 . ... : ... .. 3 ... : ... .. . ... ... : ... .. 4 ... ... : ... .. 4 ... ... : ... .. . ... ...
ROW 9C : ... .. . ... ... ... : C#4 00 8 P80 ... ... : C#2 00 . ... : ... .. 2 ... : ... .. . ... ... : ... .. . ... ... : ... .. . ... ... : ... .. . ... ...
ROW 9D : ... .. . ... ... ... : ... .. C ... ... ... : ... .. . ... : ... .. 0 ... : ... .. . ... ... : ... .. . ... ... : ... .. . ... ... : ... .. . ... ...
ROW 9E : ... .. . ... ... ... : E-3 00 B ... ... ... : ... .. . ... : C-# 00 8 ... : ... .. . ... ... : ... .. . ... ... : ... .. . ... ... : ... .. . ... ...
ROW 9F : ... .. . ... ... ... : ... .. F ... ... ... : ... .. . ... : ... .. 6 ... : ... .. . ... ... : ... .. 3 ... ... : ... .. 3 ... ... : ... .. . ... ...
ROW A0 : ... .. . ... ... ... : ... .. B ... ... ... : ... .. . ... : ... .. 3 ... : ... .. . ... ... : ... .. . ... ... : ... .. . ... ... : ... .. . ... ...
ROW A1 : ... .. . ... ... ... : ... .. 0 ... ... ... : ... .. . ... : ... .. 1 ... : ... .. . ... ... : ... .. . ... ... : ... .. . ... ... : ... .. . ... ...
ROW A2 : ... .. . ... ... ... : E-3 00 8 P80 ... ... : ... .. . ... : ... .. . ... : ... .. . ... ... : ... .. . ... ... : ... .. . ... ... : ... .. . ... ...
ROW A3 : ... .. . ... ... ... : ... .. C ... ... ... : ... .. . ... : ... .. 0 ... : ... .. . ... ... : ... .. . ... ... : ... .. . ... ... : ... .. . ... ...
ROW A4 : ... .. . ... ... ... : G#3 00 B ... ... ... : ... .. . ... : ... .. 8 ... : ... .. . ... ... : ... .. . ... ... : ... .. . ... ... : ... .. . ... ...
ROW A5 : ... .. . ... ... ... : ... .. F ... ... ... : ... .. . ... : ... .. 6 ... : ... .. . ... ... : ... .. . ... ... : ... .. . ... ... : ... .. . ... ...
ROW A6 : ... .. . ... ... ... : ... .. B ... ... ... : ... .. . ... : ... .. 3 ... : ... .. . ... ... : ... .. . ... ... : ... .. . ... ... : ... .. . ... ...
ROW A7 : ... .. . ... ... ... : ... .. 0 ... ... ... : ... .. . ... : ... .. 1 ... : ... .. . ... ... : ... .. . ... ... : ... .. . ... ... : ... .. . ... ...
ROW A8 : ... .. . ... ... ... : G#3 00 8 P80 ... ... : ... .. . ... : ... .. . ... : ... .. . ... ... : ... .. . ... ... : ... .. . ... ... : ... .. . ... ...
ROW A9 : ... .. . ... ... ... : ... .. C ... ... ... : ... .. . ... : ... .. 0 ... : ... .. . ... ... : ... .. . ... ... : ... .. . ... ... : ... .. . ... ...
ROW AA : G#2 00 F ... ... ... : C#4 00 B ... ... ... : C-5 00 . ... : 1-# 00 F ... : ... .. . ... ... : B-2 01 6 ... ... : G#2 01 6 ... ... : C#2 01 A ... ...
ROW AB : ... .. E ... ... ... : ... .. F ... ... ... : D-4 00 . ... : ... .. C ... : ... .. . ... ... : ... .. . ... ... : ... .. . ... ... : ... .. 8 ... ...
ROW AC : ... .. D ... ... ... : ... .. B ... ... ... : G-3 00 . ... : ... .. 6 ... : ... .. . ... ... : ... .. 5 ... ... : ... .. 5 ... ... : ... .. 5 ... ...
ROW AD : ... .. A ... ... ... : ... .. 0 ... ... ... : F#3 00 . ... : ... .. 3 ... : ... .. . ... ... : ... .. 4 ... ... : ... .. 4 ... ... : ... .. . ... ...
ROW AE : ... .. . ... ... ... : C#4 00 8 P80 ... ... : C#3 00 . ... : ... .. 2 ... : ... .. . ... ... : ... .. . ... ... : ... .. . ... ... : ... .. . ... ...
ROW AF : ... .. . ... ... ... : ... .. C ... ... ... : --- .. . ... : ... .. 0 ... : ... .. . ... ... : ... .. . ... ... : ... .. . ... ... : ... .. . ... ...
ROW B0 : ... .. . ... ... ... : G#3 00 B ... ... ... : D#3 00 . ... : C-# 00 8 ... : ... .. . ... ... : ... .. . ... ... : ... .. . ... ... : E-2 01 A ... ...
ROW B1 : ... .. . ... ... ... : ... .. F ... ... ... : ... .. . ... : ... .. 6 ... : ... .. . ... ... : ... .. 3 ... ... : ... .. 3 ... ... : ... .. 8 ... ...
ROW B2 : ... .. . ... ... ... : ... .. B ... ... ... : ... .. . ... : ... .. 3 ... : ... .. . ... ... : ... .. . ... ... : ... .. . ... ... : ... .. 5 ... ...
ROW B3 : ... .. . ... ... ... : ... .. 0 ... ... ... : ... .. . ... : ... .. 1 ... : ... .. . ... ... : ... .. . ... ... : ... .. . ... ... : ... .. . ... ...
ROW B4 : ... .. . ... ... ... : G#3 00 8 P80 ... ... : ... .. . ... : ... .. . ... : ... .. . ... ... : ... .. . ... ... : ... .. . ... ... : ... .. . ... ...
ROW B5 : ... .. . ... ... ... : ... .. C ... ... ... : --- .. . ... : ... .. 0 ... : ... .. . ... ... : ... .. . ... ... : ... .. . ... ... : ... .. . ... ...
ROW B6 : ... .. . ... ... ... : E-3 00 B ... ... ... : E-3 00 . ... : ... .. 8 ... : ... .. . ... ... : ... .. . ... ... : ... .. . ... ... : G#2 01 A ... ...
ROW B7 : ... .. . ... ... ... : ... .. F ... ... ... : ... .. . ... : ... .. 6 ... : ... .. . ... ... : ... .. . ... ... : ... .. . ... ... : ... .. 8 ... ...
ROW B8 : ... .. . ... ... ... : ... .. B ... ... ... : ... .. . ... : ... .. 3 ... : ... .. . ... ... : ... .. . ... ... : ... .. . ... ... : ... .. 5 ... ...
ROW B9 : ... .. . ... ... ... : ... .. 0 ... ... ... : ... .. . ... : ... .. 1 ... : ... .. . ... ... : ... .. . ... ... : ... .. . ... ... : ... .. . ... ...
ROW BA : ... .. . ... ... ... : E-3 00 8 P80 ... ... : ... .. . ... : ... .. . ... : ... .. . ... ... : ... .. . ... ... : ... .. . ... ... : ... .. . ... ...
ROW BB : ... .. . ... ... ... : ... .. C ... ... ... : --- .. . ... : ... .. 0 ... : ... .. . ... ... : ... .. . ... ... : ... .. . ... ... : ... .. . ... ...
ROW BC : F#2 00 F ... ... ... : G#3 00 B ... ... ... : E-3 00 . ... : 7-# 00 F ... : ... .. . ... ... : A#2 01 6 ... ... : B-2 01 6 ... ... : C#3 01 A ... ...
ROW BD : ... .. E ... ... ... : ... .. F ... ... ... : ... .. . ... : ... .. C ... : ... .. . ... ... : ... .. . ... ... : ... .. . ... ... : ... .. 8 ... ...
ROW BE : ... .. D ... ... ... : ... .. B ... ... ... : ... .. . ... : ... .. 6 ... : ... .. . ... ... : ... .. 5 ... ... : ... .. 5 ... ... : ... .. 5 ... ...
ROW BF : ... .. A ... ... ... : ... .. 0 ... ... ... : ... .. . ... : ... .. 3 ... : ... .. . ... ... : ... .. 4 ... ... : ... .. 4 ... ... : ... .. . ... ...
ROW C0 : ... .. . ... ... ... : G#3 00 8 P80 ... ... : ... .. . ... : ... .. 2 ... : ... .. . ... ... : ... .. . ... ... : ... .. . ... ... : ... .. . ... ...
ROW C1 : ... .. . ... ... ... : ... .. C ... ... ... : --- .. . ... : ... .. 0 ... : ... .. . ... ... : ... .. . ... ... : ... .. . ... ... : ... .. . ... ...
ROW C2 : ... .. . ... ... ... : G#2 00 B ... ... ... : D#3 00 . ... : ... .. 8 ... : ... .. . ... ... : ... .. . ... ... : ... .. . ... ... : E-3 01 A ... ...
ROW C3 : ... .. . ... ... ... : ... .. F ... ... ... : ... .. . ... : ... .. 6 ... : ... .. . ... ... : ... .. 3 ... ... : ... .. 3 ... ... : ... .. 8 ... ...
ROW C4 : ... .. . ... ... ... : ... .. B ... ... ... : ... .. . ... : ... .. 3 ... : ... .. . ... ... : ... .. . ... ... : ... .. . ... ... : ... .. 5 ... ...
ROW C5 : ... .. . ... ... ... : ... .. 0 ... ... ... : ... .. . ... : ... .. 1 ... : ... .. . ... ... : ... .. . ... ... : ... .. . ... ... : ... .. . ... ...
ROW C6 : ... .. . ... ... ... : G#2 00 8 P80 ... ... : ... .. . ... : ... .. . ... : ... .. . ... ... : ... .. . ... ... : ... .. . ... ... : ... .. . ... ...
ROW C7 : ... .. . ... ... ... : ... .. C ... ... ... : --- .. . ... : ... .. 0 ... : ... .. . ... ... : ... .. . ... ... : ... .. . ... ... : ... .. . ... ...
ROW C8 : ... .. . ... ... ... : C#3 00 B ... ... ... : C#3 00 . ... : 4-# 00 F ... : ... .. . ... ... : ... .. . ... ... : ... .. . ... ... : G#3 01 A ... ...
ROW C9 : ... .. . ... ... ... : ... .. F ... ... ... : ... .. . ... : ... .. C ... : ... .. . ... ... : ... .. . ... ... : ... .. . ... ... : ... .. 8 ... ...
ROW CA : ... .. . ... ... ... : ... .. B ... ... ... : ... .. . ... : ... .. 6 ... : ... .. . ... ... : ... .. . ... ... : ... .. . ... ... : ... .. 5 ... ...
ROW CB : ... .. . ... ... ... : ... .. 0 ... ... ... : ... .. . ... : ... .. 3 ... : ... .. . ... ... : ... .. . ... ... : ... .. . ... ... : ... .. . ... ...
ROW CC : ... .. . ... ... ... : C#3 00 8 P80 ... ... : ... .. . ... : ... .. 2 ... : ... .. . ... ... : ... .. . ... ... : ... .. . ... ... : ... .. . ... ...
ROW CD : ... .. . ... ... ... : ... .. C ... ... ... : --- .. . ... : ... .. 0 ... : ... .. . ... ... : ... .. . ... ... : ... .. . ... ... : ... .. . ... ...
ROW CE : G#2 00 F ... ... ... : E-3 00 B ... ... ... : G#3 00 . ... : 9-# 00 8 ... : ... .. . ... ... : B-2 01 6 ... ... : E-3 01 6 ... ... : C#4 01 A ... ...
ROW CF : ... .. E ... ... ... : ... .. F ... ... ... : ... .. . ... : ... .. 6 ... : ... .. . ... ... : ... .. . ... ... : ... .. . ... ... : ... .. 8 ... ...
ROW D0 : ... .. D ... ... ... : ... .. B ... ... ... : ... .. . ... : ... .. 3 ... : ... .. . ... ... : ... .. 5 ... ... : ... .. 5 ... ... : ... .. 5 ... ...
ROW D1 : ... .. A ... ... ... : ... .. 0 ... ... ... : ... .. . ... : ... .. 1 ... : ... .. . ... ... : ... .. 4 ... ... : ... .. 4 ... ... : ... .. . ... ...
ROW D2 : ... .. . ... ... ... : E-3 00 8 P80 ... ... : ... .. . ... : ... .. . ... : ... .. . ... ... : ... .. . ... ... : ... .. . ... ... : ... .. . ... ...
ROW D3 : ... .. . ... ... ... : ... .. C ... ... ... : --- .. . ... : ... .. 0 ... : ... .. . ... ... : ... .. . ... ... : ... .. . ... ... : ... .. . ... ...
ROW D4 : ... .. . ... ... ... : C#3 00 B ... ... ... : E-3 00 . ... : 7-# 00 F ... : ... .. . ... ... : ... .. . ... ... : ... .. . ... ... : E-4 01 A ... ...
ROW D5 : ... .. . ... ... ... : ... .. F ... ... ... : ... .. . ... : ... .. C ... : ... .. . ... ... : ... .. 3 ... ... : ... .. 3 ... ... : ... .. 8 ... ...
ROW D6 : ... .. . ... ... ... : ... .. B ... ... ... : ... .. . ... : ... .. 6 ... : ... .. . ... ... : ... .. . ... ... : ... .. . ... ... : ... .. 5 ... ...
ROW D7 : ... .. . ... ... ... : ... .. 0 ... ... ... : ... .. . ... : ... .. 3 ... : ... .. . ... ... : ... .. . ... ... : ... .. . ... ... : ... .. . ... ...
ROW D8 : ... .. . ... ... ... : C#3 00 8 P80 ... ... : ... .. . ... : ... .. 2 ... : ... .. . ... ... : ... .. . ... ... : ... .. . ... ... : ... .. . ... ...
ROW D9 : ... .. . ... ... ... : ... .. C ... ... ... : --- .. . ... : ... .. 0 ... : ... .. . ... ... : ... .. . ... ... : ... .. . ... ... : ... .. . ... ...
ROW DA : ... .. . ... ... ... : G#2 00 B ... ... ... : C#3 00 . ... : 5-# 00 8 ... : ... .. . ... ... : ... .. . ... ... : ... .. . ... ... : G#4 01 A ... ...
ROW DB : ... .. . ... ... ... : ... .. F ... ... ... : ... .. . ... : ... .. 6 ... : ... .. . ... ... : ... .. . ... ... : ... .. . ... ... : ... .. 8 ... ...
ROW DC : ... .. . ... ... ... : ... .. B ... ... ... : ... .. . ... : ... .. 3 ... : ... .. . ... ... : ... .. . ... ... : ... .. . ... ... : ... .. 5 ... ...
ROW DD : ... .. . ... ... ... : ... .. 0 ... ... ... : ... .. . ... : ... .. 1 ... : ... .. . ... ... : ... .. . ... ... : ... .. . ... ... : ... .. . ... ...
ROW DE : ... .. . ... ... ... : G#2 00 8 P80 ... ... : ... .. . ... : ... .. . ... : ... .. . ... ... : ... .. . ... ... : ... .. . ... ... : ... .. . ... ...
ROW DF : ... .. . ... ... ... : ... .. C ... ... ... : --- .. . ... : ... .. 0 ... : ... .. . ... ... : ... .. . ... ... : ... .. . ... ... : ... .. . ... ...
ROW E0 : C#5 00 F ... ... ... : A#3 00 F ... ... ... : F-4 00 . ... : 1-# 00 F ... : ... .. . ... ... : F#3 01 A ... ... : D#3 01 A ... ... : A#4 01 F ... ...
ROW E1 : ... .. E ... ... ... : ... .. E ... ... ... : G-3 00 . ... : ... .. C ... : ... .. . ... ... : ... .. 9 ... ... : ... .. 9 ... ... : ... .. D ... ...
ROW E2 : ... .. D ... ... ... : ... .. D ... ... ... : C-3 00 . ... : ... .. 6 ... : ... .. . ... ... : ... .. 8 ... ... : ... .. 8 ... ... : ... .. 8 ... ...
ROW E3 : ... .. A ... ... ... : ... .. A ... ... ... : B-2 00 . ... : ... .. 3 ... : ... .. . ... ... : ... .. 7 ... ... : ... .. 7 ... ... : ... .. . ... ...
ROW E4 : ... .. . ... ... ... : ... .. . ... ... ... : F#2 00 . ... : ... .. 2 ... : ... .. . ... ... : ... .. . ... ... : ... .. . ... ... : ... .. . ... ...
ROW E5 : ... .. . ... ... ... : ... .. . ... ... ... : ... .. . ... : ... .. 0 ... : ... .. . ... ... : ... .. 6 ... ... : ... .. 6 ... ... : ... .. . ... ...
ROW E6 : ... .. . ... ... ... : ... .. . ... ... ... : ... .. . ... : C-# 00 8 ... : ... .. . ... ... : ... .. 5 ... ... : ... .. 5 ... ... : ... .. . ... ...
ROW E7 : ... .. 2 ... ... ... : ... .. 2 ... ... ... : ... .. . ... : ... .. 6 ... : ... .. . ... ... : ... .. . ... ... : ... .. . ... ... : ... .. 4 ... ...
ROW E8 : ... .. . ... ... ... : ... .. . ... ... ... : ... .. . ... : ... .. 3 ... : ... .. . ... ... : ... .. 3 ... ... : ... .. 3 ... ... : ... .. . ... ...
ROW E9 : ... .. . ... ... ... : ... .. . ... ... ... : F-2 00 . P84 : ... .. 1 ... : ... .. . ... ... : ... .. . ... ... : ... .. . ... ... : ... .. 1 ... ...
ROW EA : ... .. 1 ... ... ... : ... .. 1 ... ... ... : E-2 00 . P8A : ... .. . ... : ... .. . ... ... : ... .. . ... ... : ... .. . ... ... : ... .. . ... ...
ROW EB : ... .. . ... ... ... : ... .. . ... ... ... : D#2 00 . P92 : ... .. 0 ... : ... .. . ... ... : ... .. . ... ... : ... .. . ... ... : ... .. . ... ...
ROW EC : D#5 00 F ... ... ... : B-3 00 F ... ... ... : G-4 00 . P80 : ... .. 8 ... : ... .. . ... ... : G#3 01 A ... ... : ... .. A ... ... : B-4 01 F ... ...
ROW ED : ... .. E ... ... ... : ... .. E ... ... ... : A-3 00 . ... : ... .. 6 ... : ... .. . ... ... : ... .. 9 ... ... : ... .. 9 ... ... : ... .. D ... ...
ROW EE : ... .. D ... ... ... : ... .. D ... ... ... : D-3 00 . ... : ... .. 3 ... : ... .. . ... ... : ... .. 8 ... ... : ... .. 8 ... ... : ... .. 8 ... ...
ROW EF : ... .. A ... ... ... : ... .. A ... ... ... : C#3 00 . ... : ... .. 1 ... : ... .. . ... ... : ... .. 7 ... ... : ... .. 7 ... ... : ... .. . ... ...
ROW F0 : ... .. . ... ... ... : ... .. . ... ... ... : G#2 00 . ... : ... .. . ... : ... .. . ... ... : ... .. . ... ... : ... .. . ... ... : ... .. . ... ...
ROW F1 : ... .. . ... ... ... : ... .. . ... ... ... : ... .. . ... : ... .. 0 ... : ... .. . ... ... : ... .. 6 ... ... : ... .. 6 ... ... : ... .. . ... ...
ROW F2 : ... .. . ... ... ... : ... .. . ... ... ... : ... .. . ... : ... .. . ... : ... .. . ... ... : ... .. . ... ... : ... .. . ... ... : ... .. . ... ...
ROW F3 : ... .. . ... ... ... : ... .. . ... ... ... : ... .. . ... : ... .. . ... : ... .. . ... ... : ... .. 5 ... ... : ... .. 5 ... ... : ... .. . ... ...
ROW F4 : ... .. . ... ... ... : ... .. . ... ... ... : ... .. . ... : ... .. . ... : ... .. . ... ... : ... .. . ... ... : ... .. . ... ... : ... .. . ... ...
ROW F5 : ... .. . ... ... ... : ... .. . ... ... ... : ... .. . ... : ... .. . ... : ... .. . ... ... : ... .. . ... ... : ... .. . ... ... : ... .. . ... ...
ROW F6 : ... .. . ... ... ... : ... .. . ... ... ... : ... .. . ... : ... .. . ... : ... .. . ... ... : ... .. . ... ... : ... .. . ... ... : ... .. . ... ...
ROW F7 : ... .. . ... ... ... : ... .. . ... ... ... : ... .. . ... : ... .. . ... : ... .. . ... ... : ... .. . ... ... : ... .. . ... ... : ... .. . ... ...
ROW F8 : E-5 00 A P7F ... ... : C-4 00 A P7E ... ... : ... .. . ... : ... .. 8 ... : ... .. . ... ... : ... .. . ... ... : ... .. . ... ... : ... .. . ... ...
ROW F9 : ... .. . P81 ... ... : ... .. . P84 ... ... : ... .. . ... : ... .. 6 ... : ... .. . ... ... : ... .. . ... ... : ... .. . ... ... : ... .. . ... ...
ROW FA : ... .. . P80 ... ... : ... .. . P82 ... ... : ... .. . ... : ... .. 3 ... : ... .. . ... ... : ... .. . ... ... : ... .. . ... ... : ... .. . ... ...
ROW FB : D#5 00 A P82 ... ... : B-3 00 A P84 ... ... : A-2 00 . P71 : ... .. 1 ... : ... .. . ... ... : ... .. . ... ... : ... .. . ... ... : ... .. . ... ...
ROW FC : ... .. . P7E ... ... : ... .. . P7C ... ... : ... .. . P81 : ... .. . ... : ... .. . ... ... : ... .. . ... ... : ... .. . ... ... : ... .. . ... ...
ROW FD : D-5 00 A P80 ... ... : A#3 00 A P80 ... ... : A#2 00 . P75 : ... .. 0 ... : ... .. . ... ... : ... .. . ... ... : ... .. . ... ... : ... .. . ... ...
ROW FE : ... .. . P7F ... ... : ... .. . P7E ... ... : ... .. . P85 : ... .. 8 ... : ... .. . ... ... : ... .. . ... ... : ... .. . ... ... : ... .. . ... ...
ROW FF : ... .. 2 P81 ... ... : ... .. 2 P84 ... ... : B-2 00 . P7A : ... .. 6 ... : ... .. . ... ... : ... .. . ... ... : ... .. . ... ... : ... .. 4 ... ...

PATTERN 1A
ROW 00 : D#5 00 2 P80 ... ... : B-3 00 2 P80 ... ... : ... .. . P8A : ... .. 3 ... : ... .. . ... ... : ... .. 3 ... ... : ... .. 3 ... ... : ... .. . ... ...
ROW 01 : E-5 00 2 P7E ... ... : C-4 00 2 P7D ... ... : C-3 00 . P81 : ... .. 1 ... : ... .. . ... ... : ... .. . ... ... : ... .. . ... ... : ... .. 1 ... ...
ROW 02 : ... .. 1 P81 ... ... : ... .. 1 P84 ... ... : C#3 00 . P79 : ... .. . ... : ... .. . ... ... : ... .. . ... ... : ... .. . ... ... : ... .. . ... ...
ROW 03 : ... .. . ... ... ... : ... .. . P82 ... ... : ... .. . P89 : ... .. 0 ... : ... .. . ... ... : ... .. . ... ... : ... .. . ... ... : ... .. . ... ...
ROW 04 : G#1 00 F P80 ... ... : D#2 00 B P80 ... ... : G-5 00 . P80 : 8-# 00 D ... : ... .. . ... ... : G#1 01 A ... ... : G#0 01 A ... ... : G#0 01 F ... ...
ROW 05 : ... .. E ... ... ... : ... .. F ... ... ... : A-4 00 . ... : ... .. . ... : ... .. . ... ... : ... .. 9 ... ... : ... .. 9 ... ... : ... .. D ... ...
ROW 06 : ... .. D ... ... ... : ... .. B ... ... ... : D-4 00 . ... : ... .. . ... : ... .. . ... ... : ... .. 8 ... ... : ... .. 8 ... ... : ... .. 8 ... ...
ROW 07 : ... .. A ... ... ... : ... .. 0 ... ... ... : C#4 00 . ... : B-# 00 D ... : ... .. . ... ... : ... .. 7 ... ... : ... .. 7 ... ... : ... .. . ... ...
ROW 08 : ... .. . ... ... ... : D#2 00 8 P80 ... ... : G#3 00 . ... : ... .. . ... : ... .. . ... ... : ... .. . ... ... : ... .. . ... ... : ... .. . ... ...
ROW 09 : ... .. . ... ... ... : ... .. C ... ... ... : --- .. . ... : ... .. . ... : ... .. . ... ... : ... .. 6 ... ... : ... .. 6 ... ... : ... .. . ... ...
ROW 0A : F#1 00 F ... ... ... : C#2 00 B ... ... ... : F#3 00 . ... : ... .. . ... : ... .. . ... ... : ... .. . ... ... : ... .. . ... ... : ... .. . ... ...
ROW 0B : ... .. E ... ... ... : ... .. F ... ... ... : ... .. . ... : ... .. . ... : ... .. . ... ... : ... .. 5 ... ... : ... .. 5 ... ... : ... .. . ... ...
ROW 0C : ... .. D ... ... ... : ... .. B ... ... ... : ... .. . ... : ... .. . ... : ... .. . ... ... : ... .. . ... ... : ... .. . ... ... : ... .. . ... ...
ROW 0D : ... .. A ... ... ... : ... .. 0 ... ... ... : ... .. . ... : ... .. A ... : ... .. . ... ... : ... .. . ... ... : ... .. . ... ... : ... .. . ... ...
ROW 0E : ... .. 2 ... ... ... : C#2 00 8 P80 ... ... : ... .. . ... : ... .. . ... : ... .. . ... ... : ... .. . ... ... : ... .. . ... ... : ... .. . ... ...
ROW 0F : ... .. . ... ... ... : ... .. C ... ... ... : --- .. . ... : ... .. . ... : ... .. . ... ... : ... .. . ... ... : ... .. . ... ... : ... .. . ... ...
ROW 10 : G#1 00 F ... ... ... : D#2 00 B ... ... ... : G#3 00 . ... : ... .. 9 ... : ... .. . ... ... : ... .. . ... ... : ... .. . ... ... : ... .. . ... ...
ROW 11 : ... .. E ... ... ... : ... .. F ... ... ... : ... .. . ... : ... .. . ... : ... .. . ... ... : ... .. . ... ... : ... .. . ... ... : ... .. . ... ...
ROW 12 : ... .. D ... ... ... : ... .. B ... ... ... : ... .. . ... : ... .. . ... : ... .. . ... ... : ... .. . ... ... : ... .. . ... ... : ... .. . ... ...
ROW 13 : ... .. A ... ... ... : ... .. 0 ... ... ... : ... .. . ... : ... .. 8 ... : ... .. . ... ... : ... .. . ... ... : ... .. . ... ... : ... .. . ... ...
ROW 14 : ... .. 2 ... ... ... : D#2 00 8 P80 ... ... : ... .. . ... : ... .. . ... : ... .. . ... ... : ... .. . ... ... : ... .. . ... ... : ... .. . ... ...
ROW 15 : ... .. . ... ... ... : ... .. C ... ... ... : --- .. . ... : ... .. . ... : ... .. . ... ... : ... .. . ... ... : ... .. . ... ... : ... .. . ... ...
ROW 16 : G#2 00 F ... ... ... : D#3 00 B ... ... ... : G#4 00 . ... : ... .. 7 ... : ... .. . ... ... : ... .. . ... ... : ... .. . ... ... : ... .. . ... ...
ROW 17 : ... .. E ... ... ... : ... .. F ... ... ... : ... .. . ... : ... .. . ... : ... .. . ... ... : ... .. . ... ... : ... .. . ... ... : ... .. . ... ...
ROW 18 : ... .. D ... ... ... : ... .. B ... ... ... : ... .. . ... : ... .. . ... : ... .. . ... ... : ... .. . ... ... : ... .. . ... ... : ... .. . ... ...
ROW 19 : ... .. A ... ... ... : ... .. 0 ... ... ... : ... .. . ... : ... .. 6 ... : ... .. . ... ... : ... .. . ... ... : ... .. . ... ... : ... .. . ... ...
ROW 1A : ... .. . ... ... ... : D#3 00 8 P80 ... ... : ... .. . ... : ... .. . ... : ... .. . ... ... : ... .. . ... ... : ... .. . ... ... : ... .. . ... ...
ROW 1B : ... .. . ... ... ... : ... .. C ... ... ... : --- .. . ... : ... .. . ... : ... .. . ... ... : ... .. . ... ... : ... .. . ... ... : ... .. . ... ...
ROW 1C : G#1 00 F ... ... ... : D#2 00 B ... ... ... : G#3 00 . ... : ... .. 5 ... : ... .. . ... ... : ... .. . ... ... : ... .. . ... ... : ... .. . ... ...
ROW 1D : ... .. E ... ... ... : ... .. F ... ... ... : ... .. . ... : ... .. . ... : ... .. . ... ... : ... .. . ... ... : ... .. . ... ... : ... .. . ... ...
ROW 1E : ... .. D ... ... ... : ... .. B ... ... ... : ... .. . ... : ... .. . ... : ... .. . ... ... : ... .. . ... ... : ... .. . ... ... : ... .. . ... ...
ROW 1F : ... .. A ... ... ... : ... .. 0 ... ... ... : ... .. . ... : ... .. 4 ... : ... .. . ... ... : ... .. . ... ... : ... .. . ... ... : ... .. . ... ...
ROW 20 : ... .. 2 ... ... ... : D#2 00 8 P80 ... ... : ... .. . ... : ... .. . ... : ... .. . ... ... : ... .. . ... ... : ... .. . ... ... : ... .. . ... ...
ROW 21 : ... .. . ... ... ... : ... .. C ... ... ... : --- .. . ... : ... .. . ... : ... .. . ... ... : ... .. . ... ... : ... .. . ... ... : ... .. . ... ...
ROW 22 : ... .. F ... ... ... : G#2 00 B ... ... ... : G#2 00 . ... : ... .. 3 ... : ... .. . ... ... : ... .. . ... ... : ... .. . ... ... : ... .. . ... ...
ROW 23 : ... .. E ... ... ... : ... .. F ... ... ... : ... .. . ... : ... .. . ... : ... .. . ... ... : ... .. . ... ... : ... .. . ... ... : ... .. . ... ...
ROW 24 : ... .. D ... ... ... : ... .. B ... ... ... : ... .. . ... : ... .. . ... : ... .. . ... ... : ... .. . ... ... : ... .. . ... ... : ... .. . ... ...
ROW 25 : ... .. A ... ... ... : ... .. 0 ... ... ... : ... .. . ... : ... .. 2 ... : ... .. . ... ... : ... .. . ... ... : ... .. . ... ... : ... .. . ... ...
ROW 26 : ... .. 2 ... ... ... : G#2 00 8 P80 ... ... : ... .. . ... : ... .. . ... : ... .. . ... ... : ... .. . ... ... : ... .. . ... ... : ... .. . ... ...
ROW 27 : ... .. . ... ... ... : ... .. C ... ... ... : --- .. . ... : ... .. . ... : ... .. . ... ... : ... .. . ... ... : ... .. . ... ... : ... .. . ... ...
ROW 28 : C#4 00 F ... ... ... : A#3 00 F ... ... ... : F-4 00 . ... : 1-# 00 F ... : ... .. . ... ... : A#3 01 A ... ... : F-3 01 A ... ... : A#4 01 F ... ...
ROW 29 : ... .. E ... ... ... : ... .. E ... ... ... : G-3 00 . ... : ... .. C ... : ... .. . ... ... : ... .. 9 ... ... : ... .. 9 ... ... : ... .. D ... ...
ROW 2A : ... .. D ... ... ... : ... .. D ... ... ... : C-3 00 . ... : ... .. 6 ... : ... .. . ... ... : ... .. 8 ... ... : ... .. 8 ... ... : ... .. 8 ... ...
ROW 2B : ... .. A ... ... ... : ... .. A ... ... ... : B-2 00 . ... : ... .. 3 ... : ... .. . ... ... : ... .. 7 ... ... : ... .. 7 ... ... : ... .. . ... ...
ROW 2C : ... .. . ... ... ... : ... .. . ... ... ... : F#2 00 . ... : ... .. 2 ... : ... .. . ... ... : ... .. . ... ... : ... .. . ... ... : ... .. . ... ...
ROW 2D : ... .. . ... ... ... : ... .. . ... ... ... : ... .. . ... : ... .. 0 ... : ... .. . ... ... : ... .. 6 ... ... : ... .. 6 ... ... : ... .. . ... ...
ROW 2E : ... .. . ... ... ... : ... .. . ... ... ... : ... .. . ... : C-# 00 8 ... : ... .. . ... ... : ... .. 5 ... ... : ... .. 5 ... ... : ... .. . ... ...
ROW 2F : ... .. . ... ... ... : ... .. 2 ... ... ... : ... .. . ... : ... .. 6 ... : ... .. . ... ... : ... .. . ... ... : ... .. . ... ... : ... .. 4 ... ...
ROW 30 : ... .. . ... ... ... : ... .. . ... ... ... : ... .. . ... : ... .. 3 ... : ... .. . ... ... : ... .. 3 ... ... : ... .. 3 ... ... : ... .. . ... ...
ROW 31 : ... .. . ... ... ... : ... .. . ... ... ... : --- .. . ... : ... .. 1 ... : ... .. . ... ... : ... .. . ... ... : ... .. . ... ... : ... .. 1 ... ...
ROW 32 : ... .. 2 ... ... ... : ... .. 1 ... ... ... : ... .. . ... : ... .. . ... : ... .. . ... ... : ... .. . ... ... : ... .. . ... ... : ... .. . ... ...
ROW 33 : ... .. . ... ... ... : ... .. . ... ... ... : ... .. . ... : ... .. 0 ... : ... .. . ... ... : ... .. . ... ... : ... .. . ... ... : ... .. . ... ...
ROW 34 : D#4 00 F ... ... ... : B-3 00 F ... ... ... : G-4 00 . ... : ... .. 8 ... : ... .. . ... ... : B-3 01 A ... ... : F#3 01 A ... ... : B-4 01 F ... ...
ROW 35 : ... .. E ... ... ... : ... .. E ... ... ... : A-3 00 . ... : ... .. 6 ... : ... .. . ... ... : ... .. 9 ... ... : ... .. 9 ... ... : ... .. D ... ...
ROW 36 : ... .. D ... ... ... : ... .. D ... ... ... : D-3 00 . ... : ... .. 3 ... : ... .. . ... ... : ... .. 8 ... ... : ... .. 8 ... ... : ... .. 8 ... ...
ROW 37 : ... .. A ... ... ... : ... .. A ... ... ... : C#3 00 . ... : ... .. 1 ... : ... .. . ... ... : ... .. 7 ... ... : ... .. 7 ... ... : ... .. . ... ...
ROW 38 : ... .. . ... ... ... : ... .. . ... ... ... : G#2 00 . ... : ... .. . ... : ... .. . ... ... : ... .. . ... ... : ... .. . ... ... : ... .. . ... ...
ROW 39 : ... .. . ... ... ... : ... .. . ... ... ... : ... .. . ... : ... .. 0 ... : ... .. . ... ... : ... .. 6 ... ... : ... .. 6 ... ... : ... .. . ... ...
ROW 3A : ... .. . ... ... ... : ... .. . ... ... ... : ... .. . ... : 1-# 00 F ... : ... .. . ... ... : ... .. . ... ... : ... .. . ... ... : ... .. . ... ...
ROW 3B : ... .. . ... ... ... : ... .. . ... ... ... : ... .. . ... : ... .. C ... : ... .. . ... ... : ... .. 5 ... ... : ... .. 5 ... ... : ... .. . ... ...
ROW 3C : ... .. . ... ... ... : ... .. . ... ... ... : ... .. . ... : ... .. 6 ... : ... .. . ... ... : ... .. . ... ... : ... .. . ... ... : ... .. . ... ...
ROW 3D : ... .. . ... ... ... : ... .. . ... ... ... : ... .. . ... : ... .. 3 ... : ... .. . ... ... : ... .. . ... ... : ... .. . ... ... : ... .. . ... ...
ROW 3E : ... .. . ... ... ... : ... .. . ... ... ... : ... .. . ... : ... .. 2 ... : ... .. . ... ... : ... .. . ... ... : ... .. . ... ... : ... .. . ... ...
ROW 3F : ... .. . ... ... ... : ... .. . ... ... ... : ... .. . ... : ... .. 0 ... : ... .. . ... ... : ... .. . ... ... : ... .. . ... ... : ... .. . ... ...
ROW 40 : E-4 00 A ... ... ... : C-4 00 A P7E ... ... : ... .. . ... : C-# 00 8 ... : ... .. . ... ... : ... .. . ... ... : ... .. . ... ... : ... .. . ... ...
ROW 41 : F-4 00 A P7C ... ... : ... .. . P84 ... ... : ... .. . ... : ... .. 6 ... : ... .. . ... ... : ... .. . ... ... : ... .. . ... ... : ... .. . ... ...
ROW 42 : E-4 00 A P84 ... ... : ... .. . P82 ... ... : ... .. . ... : ... .. 3 ... : ... .. . ... ... : ... .. . ... ... : ... .. . ... ... : ... .. . ... ...
ROW 43 : D#4 00 A ... ... ... : B-3 00 A P84 ... ... : ... .. . ... : ... .. 1 ... : ... .. . ... ... : ... .. . ... ... : ... .. . ... ... : ... .. . ... ...
ROW 44 : ... .. . P7C ... ... : ... .. . P7C ... ... : ... .. . ... : ... .. . ... : ... .. . ... ... : ... .. . ... ... : ... .. . ... ... : ... .. . ... ...
ROW 45 : D-4 00 A ... ... ... : A#3 00 A P80 ... ... : ... .. . ... : ... .. 0 ... : ... .. . ... ... : ... .. . ... ... : ... .. . ... ... : ... .. . ... ...
ROW 46 : C#4 00 A P86 ... ... : ... .. . P7E ... ... : A#2 00 . ... : ... .. 8 ... : ... .. . ... ... : ... .. . ... ... : ... .. . ... ... : ... .. . ... ...
ROW 47 : D-4 00 2 P80 ... ... : ... .. 2 P84 ... ... : ... .. . ... : ... .. 6 ... : ... .. . ... ... : ... .. . ... ... : ... .. . ... ... : ... .. 4 ... ...
ROW 48 : D#4 00 2 ... ... ... : B-3 00 2 P80 ... ... : ... .. . ... : ... .. 3 ... : ... .. . ... ... : ... .. 3 ... ... : ... .. 3 ... ... : ... .. . ... ...
ROW 49 : E-4 00 2 P7F ... ... : C-4 00 2 P7D ... ... : ... .. . ... : ... .. 1 ... : ... .. . ... ... : ... .. . ... ... : ... .. . ... ... : ... .. 1 ... ...
ROW 4A : F-4 00 1 P7C ... ... : ... .. 1 P84 ... ... : ... .. . ... : ... .. . ... : ... .. . ... ... : ... .. . ... ... : ... .. . ... ... : ... .. . ... ...
ROW 4B : E-4 00 1 P84 ... ... : ... .. . P82 ... ... : ... .. . ... : ... .. 0 ... : ... .. . ... ... : ... .. . ... ... : ... .. . ... ... : ... .. . ... ...
ROW 4C : G#1 00 F P80 ... ... : D#2 00 B P80 ... ... : B-2 00 . ... : 8-# 00 D ... : ... .. . ... ... : G#1 01 A ... ... : G#0 01 A ... ... : G#0 01 F ... ...
ROW 4D : ... .. E ... ... ... : ... .. F ... ... ... : ... .. . ... : ... .. . ... : ... .. . ... ... : ... .. 9 ... ... : ... .. 9 ... ... : ... .. D ... ...
ROW 4E : ... .. D ... ... ... : ... .. B ... ... ... : ... .. . ... : ... .. . ... : ... .. . ... ... : ... .. 8 ... ... : ... .. 8 ... ... : ... .. 8 ... ...
ROW 4F : ... .. A ... ... ... : ... .. 0 ... ... ... : ... .. . ... : B-# 00 D ... : ... .. . ... ... : ... .. 7 ... ... : ... .. 7 ... ... : ... .. . ... ...
ROW 50 : ... .. . ... ... ... : D#2 00 8 P80 ... ... : ... .. . ... : ... .. . ... : ... .. . ... ... : ... .. . ... ... : ... .. . ... ... : ... .. . ... ...
ROW 51 : ... .. . ... ... ... : ... .. C ... ... ... : --- .. . ... : ... .. . ... : ... .. . ... ... : ... .. 6 ... ... : ... .. 6 ... ... : ... .. . ... ...
ROW 52 : G#2 00 F ... ... ... : C#2 00 B ... ... ... : A#2 00 . ... : ... .. . ... : ... .. . ... ... : ... .. . ... ... : ... .. . ... ... : ... .. . ... ...
ROW 53 : ... .. E ... ... ... : ... .. F ... ... ... : ... .. . ... : ... .. . ... : ... .. . ... ... : ... .. 5 ... ... : ... .. 5 ... ... : ... .. . ... ...
ROW 54 : ... .. D ... ... ... : ... .. B ... ... ... : ... .. . ... : ... .. . ... : ... .. . ... ... : ... .. . ... ... : ... .. . ... ... : ... .. . ... ...
ROW 55 : ... .. A ... ... ... : ... .. 0 ... ... ... : ... .. . ... : ... .. A ... : ... .. . ... ... : ... .. . ... ... : ... .. . ... ... : ... .. . ... ...
ROW 56 : ... .. 2 ... ... ... : C#2 00 8 P80 ... ... : ... .. . ... : ... .. . ... : ... .. . ... ... : ... .. . ... ... : ... .. . ... ... : ... .. . ... ...
ROW 57 : ... .. . ... ... ... : ... .. C ... ... ... : --- .. . ... : ... .. . ... : ... .. . ... ... : ... .. . ... ... : ... .. . ... ... : ... .. . ... ...
ROW 58 : ... .. . ... ... ... : D#2 00 B ... ... ... : B-2 00 . ... : ... .. 9 ... : ... .. . ... ... : ... .. . ... ... : ... .. . ... ... : ... .. . ... ...
ROW 59 : ... .. 1 ... ... ... : ... .. F ... ... ... : ... .. . ... : ... .. . ... : ... .. . ... ... : ... .. . ... ... : ... .. . ... ... : ... .. . ... ...
ROW 5A : ... .. . ... ... ... : ... .. B ... ... ... : ... .. . ... : ... .. . ... : ... .. . ... ... : ... .. . ... ... : ... .. . ... ... : ... .. . ... ...
ROW 5B : ... .. . ... ... ... : ... .. 0 ... ... ... : ... .. . ... : ... .. 8 ... : ... .. . ... ... : ... .. . ... ... : ... .. . ... ... : ... .. . ... ...
ROW 5C : ... .. 0 ... V00 ... : D#2 00 8 P80 ... ... : ... .. . ... : ... .. . ... : ... .. . ... ... : ... .. . ... ... : ... .. . ... ... : ... .. . ... ...
ROW 5D : ... .. . ... ... ... : ... .. C ... ... ... : --- .. . ... : ... .. . ... : ... .. . ... ... : ... .. . ... ... : ... .. . ... ... : ... .. . ... ...
ROW 5E : G#3 00 F P80 V02 ... : D#3 00 B ... ... ... : C#3 00 . ... : ... .. 7 ... : ... .. . ... ... : ... .. . ... ... : ... .. . ... ... : ... .. . ... ...
ROW 5F : ... .. E ... ... ... : ... .. F ... ... ... : ... .. . ... : ... .. . ... : ... .. . ... ... : ... .. . ... ... : ... .. . ... ... : ... .. . ... ...
ROW 60 : ... .. D ... ... ... : ... .. B ... ... ... : ... .. . ... : ... .. . ... : ... .. . ... ... : ... .. . ... ... : ... .. . ... ... : ... .. . ... ...
ROW 61 : ... .. A ... ... ... : ... .. 0 ... ... ... : ... .. . ... : ... .. 6 ... : ... .. . ... ... : ... .. . ... ... : ... .. . ... ... : ... .. . ... ...
ROW 62 : ... .. . ... ... ... : D#3 00 8 P80 ... ... : ... .. . ... : ... .. . ... : ... .. . ... ... : ... .. . ... ... : ... .. . ... ... : ... .. . ... ...
ROW 63 : ... .. . ... ... ... : ... .. C ... ... ... : --- .. . ... : ... .. . ... : ... .. . ... ... : ... .. . ... ... : ... .. . ... ... : ... .. . ... ...
ROW 64 : ... .. . ... ... ... : D#2 00 B ... ... ... : D#3 00 . ... : ... .. 5 ... : ... .. . ... ... : ... .. . ... ... : ... .. . ... ... : ... .. . ... ...
ROW 65 : ... .. 2 ... ... ... : ... .. F ... ... ... : ... .. . ... : ... .. . ... : ... .. . ... ... : ... .. . ... ... : ... .. . ... ... : ... .. . ... ...
ROW 66 : ... .. . ... ... ... : ... .. B ... ... ... : ... .. . ... : ... .. . ... : ... .. . ... ... : ... .. . ... ... : ... .. . ... ... : ... .. . ... ...
ROW 67 : A#3 00 F ... ... ... : ... .. 0 ... ... ... : ... .. . ... : ... .. 4 ... : ... .. . ... ... : ... .. . ... ... : ... .. . ... ... : ... .. . ... ...
ROW 68 : ... .. E ... ... ... : D#2 00 8 P80 ... ... : ... .. . ... : ... .. . ... : ... .. . ... ... : ... .. . ... ... : ... .. . ... ... : ... .. . ... ...
ROW 69 : ... .. D ... ... ... : ... .. C ... ... ... : --- .. . ... : ... .. . ... : ... .. . ... ... : ... .. . ... ... : ... .. . ... ... : ... .. . ... ...
ROW 6A : ... .. A ... ... ... : G#2 00 B ... ... ... : F#3 00 . ... : ... .. 3 ... : ... .. . ... ... : ... .. . ... ... : ... .. . ... ... : ... .. . ... ...
ROW 6B : ... .. . ... ... ... : ... .. F ... ... ... : ... .. . ... : ... .. . ... : ... .. . ... ... : ... .. . ... ... : ... .. . ... ... : ... .. . ... ...
ROW 6C : ... .. . ... ... ... : ... .. B ... ... ... : ... .. . ... : ... .. . ... : ... .. . ... ... : ... .. . ... ... : ... .. . ... ... : ... .. . ... ...
ROW 6D : ... .. . ... ... ... : ... .. 0 ... ... ... : ... .. . ... : ... .. 2 ... : ... .. . ... ... : ... .. . ... ... : ... .. . ... ... : ... .. . ... ...
ROW 6E : ... .. 2 ... ... ... : G#2 00 8 P80 ... ... : ... .. . ... : ... .. . ... : ... .. . ... ... : ... .. . ... ... : ... .. . ... ... : ... .. . ... ...
ROW 6F : ... .. . ... ... ... : ... .. C ... ... ... : --- .. . ... : ... .. . ... : ... .. . ... ... : ... .. . ... ... : ... .. . ... ... : ... .. . ... ...
ROW 70 : B-3 00 F ... ... ... : E-2 00 B ... ... ... : D#5 00 . ... : 1-# 00 F ... : ... .. . ... ... : F#4 01 6 ... ... : B-3 01 6 ... ... : E-1 01 A ... ...
ROW 71 : ... .. E ... ... ... : ... .. F ... ... ... : F-4 00 . ... : ... .. C ... : ... .. . ... ... : ... .. . ... ... : ... .. . ... ... : ... .. 8 ... ...
ROW 72 : ... .. D ... ... ... : ... .. B ... ... ... : A#3 00 . ... : ... .. 6 ... : ... .. . ... ... : ... .. 5 ... ... : ... .. 5 ... ... : ... .. 5 ... ...
ROW 73 : ... .. A ... ... ... : ... .. 0 ... ... ... : A-3 00 . ... : ... .. 3 ... : ... .. . ... ... : ... .. 4 ... ... : ... .. 4 ... ... : ... .. . ... ...
ROW 74 : ... .. . ... ... ... : E-2 00 8 P80 ... ... : E-3 00 . ... : ... .. 2 ... : ... .. . ... ... : ... .. . ... ... : ... .. . ... ... : ... .. . ... ...
ROW 75 : ... .. . ... ... ... : ... .. C ... ... ... : ... .. . ... : ... .. 0 ... : ... .. . ... ... : ... .. . ... ... : ... .. . ... ... : ... .. . ... ...
ROW 76 : ... .. . ... ... ... : B-1 00 B ... ... ... : ... .. . ... : C-# 00 8 ... : ... .. . ... ... : ... .. . ... ... : ... .. . ... ... : ... .. . ... ...
ROW 77 : ... .. . ... ... ... : ... .. F ... ... ... : ... .. . ... : ... .. 6 ... : ... .. . ... ... : ... .. 3 ... ... : ... .. 3 ... ... : ... .. . ... ...
ROW 78 : ... .. . ... ... ... : ... .. B ... ... ... : ... .. . ... : ... .. 3 ... : ... .. . ... ... : ... .. . ... ... : ... .. . ... ... : ... .. . ... ...
ROW 79 : ... .. . ... ... ... : ... .. 0 ... ... ... : ... .. . ... : ... .. 1 ... : ... .. . ... ... : ... .. . ... ... : ... .. . ... ... : ... .. . ... ...
ROW 7A : ... .. . ... ... ... : B-1 00 8 P80 ... ... : ... .. . ... : ... .. . ... : ... .. . ... ... : ... .. . ... ... : ... .. . ... ... : ... .. . ... ...
ROW 7B : ... .. . ... ... ... : ... .. C ... ... ... : ... .. . ... : ... .. 0 ... : ... .. . ... ... : ... .. . ... ... : ... .. . ... ... : ... .. . ... ...
ROW 7C : ... .. . ... ... ... : G#2 00 B ... ... ... : D-3 00 . P8A : ... .. 8 ... : ... .. . ... ... : ... .. . ... ... : ... .. . ... ... : ... .. . ... ...
ROW 7D : ... .. . ... ... ... : ... .. F ... ... ... : C#3 00 . P81 : ... .. 6 ... : ... .. . ... ... : ... .. . ... ... : ... .. . ... ... : ... .. . ... ...
ROW 7E : ... .. . ... ... ... : ... .. B ... ... ... : C-3 00 . P79 : ... .. 3 ... : ... .. . ... ... : ... .. . ... ... : ... .. . ... ... : ... .. . ... ...
ROW 7F : ... .. . ... ... ... : ... .. 0 ... ... ... : A#2 00 . P8D : ... .. 1 ... : ... .. . ... ... : ... .. . ... ... : ... .. . ... ... : ... .. . ... ...
ROW 80 : ... .. . ... ... ... : G#2 00 8 P80 ... ... : A-2 00 . P89 : ... .. . ... : ... .. . ... ... : ... .. . ... ... : ... .. . ... ... : ... .. . ... ...
ROW 81 : ... .. . ... ... ... : ... .. C ... ... ... : G#2 00 . P88 : ... .. 0 ... : ... .. . ... ... : ... .. . ... ... : ... .. . ... ... : ... .. . ... ...
ROW 82 : ... .. . P84 ... ... : B-2 00 B ... ... ... : G-5 00 . P80 : 1-# 00 F ... : ... .. . ... ... : E-4 01 6 ... ... : A#3 01 6 ... ... : ... .. . ... ...
ROW 83 : ... .. . P86 ... ... : ... .. F ... ... ... : A-4 00 . ... : ... .. C ... : ... .. . ... ... : ... .. . ... ... : ... .. . ... ... : ... .. . ... ...
ROW 84 : ... .. . P85 ... ... : ... .. B ... ... ... : D-4 00 . ... : ... .. 6 ... : ... .. . ... ... : ... .. 5 ... ... : ... .. 5 ... ... : ... .. . ... ...
ROW 85 : ... .. . P82 ... ... : ... .. 0 ... ... ... : C#4 00 . ... : ... .. 3 ... : ... .. . ... ... : ... .. 4 ... ... : ... .. 4 ... ... : ... .. . ... ...
ROW 86 : ... .. . P7E ... ... : B-2 00 8 P80 ... ... : G#3 00 . ... : ... .. 2 ... : ... .. . ... ... : ... .. . ... ... : ... .. . ... ... : ... .. . ... ...
ROW 87 : ... .. . P7B ... ... : ... .. C ... ... ... : --- .. . ... : ... .. 0 ... : ... .. . ... ... : ... .. . ... ... : ... .. . ... ... : ... .. . ... ...
ROW 88 : ... .. . P7A ... ... : E-2 00 B ... ... ... : F#3 00 . ... : C-# 00 8 ... : ... .. . ... ... : ... .. . ... ... : ... .. . ... ... : ... .. . ... ...
ROW 89 : ... .. . P7C ... ... : ... .. F ... ... ... : ... .. . ... : ... .. 6 ... : ... .. . ... ... : ... .. 3 ... ... : ... .. 3 ... ... : ... .. . ... ...
ROW 8A : ... .. . P80 ... ... : ... .. B ... ... ... : ... .. . ... : ... .. 3 ... : ... .. . ... ... : ... .. . ... ... : ... .. . ... ... : ... .. . ... ...
ROW 8B : ... .. . P83 ... ... : ... .. 0 ... ... ... : ... .. . ... : ... .. 1 ... : ... .. . ... ... : ... .. . ... ... : ... .. . ... ... : ... .. . ... ...
ROW 8C : ... .. . P86 ... ... : E-2 00 8 P80 ... ... : ... .. . ... : ... .. . ... : ... .. . ... ... : ... .. . ... ... : ... .. . ... ... : ... .. . ... ...
ROW 8D : ... .. . ... ... ... : ... .. C ... ... ... : --- .. . ... : ... .. 0 ... : ... .. . ... ... : ... .. . ... ... : ... .. . ... ... : ... .. . ... ...
ROW 8E : ... .. . P82 ... ... : E-3 00 B ... ... ... : G#3 00 . ... : ... .. 8 ... : ... .. . ... ... : ... .. . ... ... : ... .. . ... ... : ... .. . ... ...
ROW 8F : ... .. 2 P7F ... ... : ... .. F ... ... ... : ... .. . ... : ... .. 6 ... : ... .. . ... ... : ... .. . ... ... : ... .. . ... ... : ... .. . ... ...
ROW 90 : ... .. . P7B ... ... : ... .. B ... ... ... : ... .. . ... : ... .. 3 ... : ... .. . ... ... : ... .. . ... ... : ... .. . ... ... : ... .. . ... ...
ROW 91 : ... .. . P7A ... ... : ... .. 0 ... ... ... : --- .. . ... : ... .. 1 ... : ... .. . ... ... : ... .. . ... ... : ... .. . ... ... : ... .. . ... ...
ROW 92 : ... .. 1 P7C ... ... : E-3 00 8 P80 ... ... : ... .. . ... : ... .. . ... : ... .. . ... ... : ... .. . ... ... : ... .. . ... ... : ... .. . ... ...
ROW 93 : ... .. . P80 ... ... : ... .. C ... ... ... : ... .. . ... : ... .. 0 ... : ... .. . ... ... : ... .. . ... ... : ... .. . ... ... : ... .. . ... ...
ROW 94 : ... .. F ... ... ... : G#3 00 B ... ... ... : D#6 00 . ... : 7-# 00 F ... : ... .. . ... ... : D#4 01 6 ... ... : B-3 01 6 ... ... : E-2 01 A ... ...
ROW 95 : ... .. E ... ... ... : ... .. F ... ... ... : F-5 00 . ... : ... .. C ... : ... .. . ... ... : ... .. . ... ... : ... .. . ... ... : ... .. 8 ... ...
ROW 96 : ... .. D ... ... ... : ... .. B ... ... ... : A#4 00 . ... : ... .. 6 ... : ... .. . ... ... : ... .. 5 ... ... : ... .. 5 ... ... : ... .. 5 ... ...
ROW 97 : ... .. A ... ... ... : ... .. 0 ... ... ... : A-4 00 . ... : ... .. 3 ... : ... .. . ... ... : ... .. 4 ... ... : ... .. 4 ... ... : ... .. . ... ...
ROW 98 : ... .. . P85 ... ... : G#3 00 8 P80 ... ... : E-4 00 . ... : ... .. 2 ... : ... .. . ... ... : ... .. . ... ... : ... .. . ... ... : ... .. . ... ...
ROW 99 : C-4 00 A P7E ... ... : ... .. C ... ... ... : ... .. . ... : ... .. 0 ... : ... .. . ... ... : ... .. . ... ... : ... .. . ... ... : ... .. . ... ...
ROW 9A : ... .. . P83 ... ... : B-2 00 B ... ... ... : ... .. . ... : 1-# 00 8 ... : ... .. . ... ... : ... .. . ... ... : ... .. . ... ... : ... .. . ... ...
ROW 9B : C#4 00 A P7C ... ... : ... .. F ... ... ... : ... .. . ... : ... .. 6 ... : ... .. . ... ... : ... .. 3 ... ... : ... .. 3 ... ... : ... .. . ... ...
ROW 9C : ... .. . P80 ... ... : ... .. B ... ... ... : ... .. . ... : ... .. 3 ... : ... .. . ... ... : ... .. . ... ... : ... .. . ... ... : ... .. . ... ...
ROW 9D : ... .. . ... ... ... : ... .. 0 ... ... ... : ... .. . ... : ... .. 1 ... : ... .. . ... ... : ... .. . ... ... : ... .. . ... ... : ... .. . ... ...
ROW 9E : ... .. . ... ... ... : B-2 00 8 P80 ... ... : ... .. . ... : ... .. . ... : ... .. . ... ... : ... .. . ... ... : ... .. . ... ... : ... .. . ... ...
ROW 9F : ... .. . ... ... ... : ... .. C ... ... ... : ... .. . ... : ... .. 0 ... : ... .. . ... ... : ... .. . ... ... : ... .. . ... ... : ... .. . ... ...
ROW A0 : B-3 00 F ... ... ... : E-3 00 B ... ... ... : D#4 00 . ... : 7-# 00 F ... : ... .. . ... ... : ... .. . ... ... : ... .. . ... ... : D#2 01 A ... ...
ROW A1 : ... .. E ... ... ... : ... .. F ... ... ... : ... .. . ... : ... .. C ... : ... .. . ... ... : ... .. . ... ... : ... .. . ... ... : ... .. 8 ... ...
ROW A2 : ... .. D ... ... ... : ... .. B ... ... ... : ... .. . ... : ... .. 6 ... : ... .. . ... ... : ... .. . ... ... : ... .. . ... ... : ... .. 5 ... ...
ROW A3 : ... .. A ... ... ... : ... .. 0 ... ... ... : ... .. . ... : ... .. 3 ... : ... .. . ... ... : ... .. . ... ... : ... .. . ... ... : ... .. . ... ...
ROW A4 : ... .. . ... ... ... : E-3 00 8 P80 ... ... : ... .. . ... : ... .. 2 ... : ... .. . ... ... : ... .. . ... ... : ... .. . ... ... : ... .. . ... ...
ROW A5 : ... .. . ... ... ... : ... .. C ... ... ... : ... .. . ... : ... .. 0 ... : ... .. . ... ... : ... .. . ... ... : ... .. . ... ... : ... .. . ... ...
ROW A6 : ... .. . ... ... ... : G#3 00 B ... ... ... : ... .. . ... : 1-# 00 8 ... : ... .. . ... ... : E-4 01 6 ... ... : G#3 01 6 ... ... : ... .. . ... ...
ROW A7 : ... .. . ... ... ... : ... .. F ... ... ... : ... .. . ... : ... .. 6 ... : ... .. . ... ... : ... .. . ... ... : ... .. . ... ... : ... .. . ... ...
ROW A8 : ... .. . ... ... ... : ... .. B ... ... ... : ... .. . ... : ... .. 3 ... : ... .. . ... ... : ... .. 5 ... ... : ... .. 5 ... ... : ... .. . ... ...
ROW A9 : ... .. . ... ... ... : ... .. 0 ... ... ... : ... .. . ... : ... .. 1 ... : ... .. . ... ... : ... .. 4 ... ... : ... .. 4 ... ... : ... .. . ... ...
ROW AA : ... .. 2 ... ... ... : G#3 00 8 P80 ... ... : ... .. . ... : ... .. . ... : ... .. . ... ... : ... .. . ... ... : ... .. . ... ... : ... .. . ... ...
ROW AB : ... .. . ... ... ... : ... .. C ... ... ... : --- .. . ... : ... .. 0 ... : ... .. . ... ... : ... .. . ... ... : ... .. . ... ... : ... .. . ... ...
ROW AC : A#3 00 F ... ... ... : E-3 00 B ... ... ... : G#3 00 . ... : 7-# 00 F ... : ... .. . ... ... : ... .. . ... ... : ... .. . ... ... : G#1 01 A ... ...
ROW AD : ... .. E ... ... ... : ... .. F ... ... ... : ... .. . ... : ... .. C ... : ... .. . ... ... : ... .. 3 ... ... : ... .. 3 ... ... : ... .. 8 ... ...
ROW AE : ... .. D ... ... ... : ... .. B ... ... ... : ... .. . ... : ... .. 6 ... : ... .. . ... ... : ... .. . ... ... : ... .. . ... ... : ... .. 5 ... ...
ROW AF : ... .. A ... ... ... : ... .. 0 ... ... ... : ... .. . ... : ... .. 3 ... : ... .. . ... ... : ... .. . ... ... : ... .. . ... ... : ... .. . ... ...
ROW B0 : ... .. . ... ... ... : E-3 00 8 P80 ... ... : ... .. . ... : ... .. 2 ... : ... .. . ... ... : ... .. . ... ... : ... .. . ... ... : ... .. . ... ...
ROW B1 : ... .. . ... ... ... : ... .. C ... ... ... : ... .. . ... : ... .. 0 ... : ... .. . ... ... : ... .. . ... ... : ... .. . ... ... : ... .. . ... ...
ROW B2 : B-3 00 F ... ... ... : G#3 00 B ... ... ... : ... .. . ... : 1-# 00 8 ... : ... .. . ... ... : ... .. . ... ... : ... .. . ... ... : ... .. . ... ...
ROW B3 : ... .. E ... ... ... : ... .. F ... ... ... : ... .. . ... : ... .. 6 ... : ... .. . ... ... : ... .. . ... ... : ... .. . ... ... : ... .. . ... ...
ROW B4 : ... .. 0 ... V00 ... : ... .. B ... ... ... : ... .. . ... : ... .. 3 ... : ... .. . ... ... : ... .. . ... ... : ... .. . ... ... : ... .. . ... ...
ROW B5 : A#3 00 F P80 V02 ... : ... .. 0 ... ... ... : ... .. . ... : ... .. 1 ... : ... .. . ... ... : ... .. . ... ... : ... .. . ... ... : ... .. . ... ...
ROW B6 : ... .. E ... ... ... : G#3 00 8 P80 ... ... : ... .. . ... : ... .. . ... : ... .. . ... ... : ... .. . ... ... : ... .. . ... ... : ... .. . ... ...
ROW B7 : ... .. 0 ... V00 ... : ... .. C ... ... ... : --- .. . ... : ... .. 0 ... : ... .. . ... ... : ... .. . ... ... : ... .. . ... ... : ... .. . ... ...
ROW B8 : G#3 00 F P80 V02 ... : C#4 00 B ... ... ... : C-4 00 . ... : ... .. F ... : ... .. . ... ... : G#4 01 6 ... ... : E-3 01 6 ... ... : C#1 01 A ... ...
ROW B9 : ... .. E ... ... ... : ... .. F ... ... ... : D-3 00 . ... : ... .. C ... : ... .. . ... ... : ... .. . ... ... : ... .. . ... ... : ... .. 8 ... ...
ROW BA : ... .. D ... ... ... : ... .. B ... ... ... : G-2 00 . ... : ... .. 6 ... : ... .. . ... ... : ... .. 5 ... ... : ... .. 5 ... ... : ... .. 5 ... ...
ROW BB : ... .. A ... ... ... : ... .. 0 ... ... ... : F#2 00 . ... : ... .. 3 ... : ... .. . ... ... : ... .. 4 ... ... : ... .. 4 ... ... : ... .. . ... ...
ROW BC : ... .. . ... ... ... : C#4 00 8 P80 ... ... : C#2 00 . ... : ... .. 2 ... : ... .. . ... ... : ... .. . ... ... : ... .. . ... ... : ... .. . ... ...
ROW BD : ... .. . ... ... ... : ... .. C ... ... ... : ... .. . ... : ... .. 0 ... : ... .. . ... ... : ... .. . ... ... : ... .. . ... ... : ... .. . ... ...
ROW BE : ... .. . ... ... ... : E-3 00 B ... ... ... : ... .. . ... : C-# 00 8 ... : ... .. . ... ... : ... .. . ... ... : ... .. . ... ... : ... .. . ... ...
ROW BF : ... .. . ... ... ... : ... .. F ... ... ... : ... .. . ... : ... .. 6 ... : ... .. . ... ... : ... .. 3 ... ... : ... .. 3 ... ... : ... .. . ... ...
ROW C0 : ... .. . ... ... ... : ... .. B ... ... ... : ... .. . ... : ... .. 3 ... : ... .. . ... ... : ... .. . ... ... : ... .. . ... ... : ... .. . ... ...
ROW C1 : ... .. . P84 ... ... : ... .. 0 ... ... ... : ... .. . ... : ... .. 1 ... : ... .. . ... ... : ... .. . ... ... : ... .. . ... ... : ... .. . ... ...
ROW C2 : ... .. . P86 ... ... : E-3 00 8 P80 ... ... : ... .. . ... : ... .. . ... : ... .. . ... ... : ... .. . ... ... : ... .. . ... ... : ... .. . ... ...
ROW C3 : ... .. . P85 ... ... : ... .. C ... ... ... : ... .. . ... : ... .. 0 ... : ... .. . ... ... : ... .. . ... ... : ... .. . ... ... : ... .. . ... ...
ROW C4 : ... .. . P82 ... ... : G#3 00 B ... ... ... : ... .. . ... : ... .. 8 ... : ... .. . ... ... : ... .. . ... ... : ... .. . ... ... : ... .. . ... ...
ROW C5 : ... .. . P7E ... ... : ... .. F ... ... ... : ... .. . ... : ... .. 6 ... : ... .. . ... ... : ... .. . ... ... : ... .. . ... ... : ... .. . ... ...
ROW C6 : ... .. . P7B ... ... : ... .. B ... ... ... : ... .. . ... : ... .. 3 ... : ... .. . ... ... : ... .. . ... ... : ... .. . ... ... : ... .. . ... ...
ROW C7 : ... .. . P7A ... ... : ... .. 0 ... ... ... : ... .. . ... : ... .. 1 ... : ... .. . ... ... : ... .. . ... ... : ... .. . ... ... : ... .. . ... ...
ROW C8 : ... .. . P7C ... ... : G#3 00 8 P80 ... ... : ... .. . ... : ... .. . ... : ... .. . ... ... : ... .. . ... ... : ... .. . ... ... : ... .. . ... ...
ROW C9 : ... .. . P80 ... ... : ... .. C ... ... ... : ... .. . ... : ... .. 0 ... : ... .. . ... ... : ... .. . ... ... : ... .. . ... ... : ... .. . ... ...
ROW CA : G#2 00 F ... ... ... : C#4 00 B ... ... ... : C-5 00 . ... : 1-# 00 F ... : ... .. . ... ... : C#4 01 6 ... ... : G#3 01 6 ... ... : ... .. . ... ...
ROW CB : ... .. E ... ... ... : ... .. F ... ... ... : D-4 00 . ... : ... .. C ... : ... .. . ... ... : ... .. . ... ... : ... .. . ... ... : ... .. . ... ...
ROW CC : ... .. D ... ... ... : ... .. B ... ... ... : G-3 00 . ... : ... .. 6 ... : ... .. . ... ... : ... .. 5 ... ... : ... .. 5 ... ... : ... .. . ... ...
ROW CD : ... .. A ... ... ... : ... .. 0 ... ... ... : F#3 00 . ... : ... .. 3 ... : ... .. . ... ... : ... .. 4 ... ... : ... .. 4 ... ... : ... .. . ... ...
ROW CE : ... .. . ... ... ... : C#4 00 8 P80 ... ... : C#3 00 . ... : ... .. 2 ... : ... .. . ... ... : ... .. . ... ... : ... .. . ... ... : ... .. . ... ...
ROW CF : ... .. . ... ... ... : ... .. C ... ... ... : --- .. . ... : ... .. 0 ... : ... .. . ... ... : ... .. . ... ... : ... .. . ... ... : ... .. . ... ...
ROW D0 : ... .. . ... ... ... : G#3 00 B ... ... ... : D#3 00 . ... : C-# 00 8 ... : ... .. . ... ... : ... .. . ... ... : ... .. . ... ... : ... .. . ... ...
ROW D1 : ... .. . ... ... ... : ... .. F ... ... ... : ... .. . ... : ... .. 6 ... : ... .. . ... ... : ... .. 3 ... ... : ... .. 3 ... ... : ... .. . ... ...
ROW D2 : ... .. . ... ... ... : ... .. B ... ... ... : ... .. . ... : ... .. 3 ... : ... .. . ... ... : ... .. . ... ... : ... .. . ... ... : ... .. . ... ...
ROW D3 : ... .. . ... ... ... : ... .. 0 ... ... ... : ... .. . ... : ... .. 1 ... : ... .. . ... ... : ... .. . ... ... : ... .. . ... ... : ... .. . ... ...
ROW D4 : ... .. . ... ... ... : G#3 00 8 P80 ... ... : ... .. . ... : ... .. . ... : ... .. . ... ... : ... .. . ... ... : ... .. . ... ... : ... .. . ... ...
ROW D5 : ... .. . ... ... ... : ... .. C ... ... ... : --- .. . ... : ... .. 0 ... : ... .. . ... ... : ... .. . ... ... : ... .. . ... ... : ... .. . ... ...
ROW D6 : ... .. . ... ... ... : E-3 00 B ... ... ... : E-3 00 . ... : ... .. 8 ... : ... .. . ... ... : ... .. . ... ... : ... .. . ... ... : ... .. . ... ...
ROW D7 : ... .. . ... ... ... : ... .. F ... ... ... : ... .. . ... : ... .. 6 ... : ... .. . ... ... : ... .. . ... ... : ... .. . ... ... : ... .. . ... ...
ROW D8 : ... .. . ... ... ... : ... .. B ... ... ... : ... .. . ... : ... .. 3 ... : ... .. . ... ... : ... .. . ... ... : ... .. . ... ... : ... .. . ... ...
ROW D9 : ... .. . ... ... ... : ... .. 0 ... ... ... : ... .. . ... : ... .. 1 ... : ... .. . ... ... : ... .. . ... ... : ... .. . ... ... : ... .. . ... ...
ROW DA : ... .. . ... ... ... : E-3 00 8 P80 ... ... : ... .. . ... : ... .. . ... : ... .. . ... ... : ... .. . ... ... : ... .. . ... ... : ... .. . ... ...
ROW DB : ... .. . ... ... ... : ... .. C ... ... ... : --- .. . ... : ... .. 0 ... : ... .. . ... ... : ... .. . ... ... : ... .. . ... ... : ... .. . ... ...
ROW DC : F#2 00 F ... ... ... : G#3 00 B ... ... ... : E-3 00 . ... : 7-# 00 F ... : ... .. . ... ... : E-4 01 6 ... ... : C#4 01 6 ... ... : E-3 01 A ... ...
ROW DD : ... .. E ... ... ... : ... .. F ... ... ... : ... .. . ... : ... .. C ... : ... .. . ... ... : ... .. . ... ... : ... .. . ... ... : ... .. 8 ... ...
ROW DE : ... .. D ... ... ... : ... .. B ... ... ... : ... .. . ... : ... .. 6 ... : ... .. . ... ... : ... .. 5 ... ... : ... .. 5 ... ... : ... .. 5 ... ...
ROW DF : ... .. A ... ... ... : ... .. 0 ... ... ... : ... .. . ... : ... .. 3 ... : ... .. . ... ... : ... .. 4 ... ... : ... .. 4 ... ... : ... .. . ... ...
ROW E0 : ... .. . ... ... ... : G#3 00 8 P80 ... ... : ... .. . ... : ... .. 2 ... : ... .. . ... ... : ... .. . ... ... : ... .. . ... ... : ... .. . ... ...
ROW E1 : ... .. . ... ... ... : ... .. C ... ... ... : --- .. . ... : ... .. 0 ... : ... .. . ... ... : ... .. . ... ... : ... .. . ... ... : --- .. . P7D ...
ROW E2 : ... .. . ... ... ... : G#2 00 B ... ... ... : D#3 00 . ... : ... .. 8 ... : ... .. . ... ... : ... .. . ... ... : ... .. . ... ... : D#3 01 A P80 ...
ROW E3 : ... .. . ... ... ... : ... .. F ... ... ... : ... .. . ... : ... .. 6 ... : ... .. . ... ... : ... .. 3 ... ... : ... .. 3 ... ... : ... .. 8 ... ...
ROW E4 : ... .. . ... ... ... : ... .. B ... ... ... : ... .. . ... : ... .. 3 ... : ... .. . ... ... : ... .. . ... ... : ... .. . ... ... : ... .. 5 ... ...
ROW E5 : ... .. . ... ... ... : ... .. 0 ... ... ... : ... .. . ... : ... .. 1 ... : ... .. . ... ... : ... .. . ... ... : ... .. . ... ... : ... .. . ... ...
ROW E6 : ... .. . ... ... ... : G#2 00 8 P80 ... ... : ... .. . ... : ... .. . ... : ... .. . ... ... : ... .. . ... ... : ... .. . ... ... : ... .. . ... ...
ROW E7 : ... .. . ... ... ... : ... .. C ... ... ... : --- .. . ... : ... .. 0 ... : ... .. . ... ... : ... .. . ... ... : ... .. . ... ... : --- .. . P7F ...
ROW E8 : ... .. . ... ... ... : C#3 00 B ... ... ... : C#3 00 . ... : 4-# 00 F ... : ... .. . ... ... : ... .. . ... ... : ... .. . ... ... : C#3 01 A P80 ...
ROW E9 : ... .. . ... ... ... : ... .. F ... ... ... : ... .. . ... : ... .. C ... : ... .. . ... ... : ... .. . ... ... : ... .. . ... ... : ... .. 8 ... ...
ROW EA : ... .. . ... ... ... : ... .. B ... ... ... : ... .. . ... : ... .. 6 ... : ... .. . ... ... : ... .. . ... ... : ... .. . ... ... : ... .. 5 ... ...
ROW EB : ... .. . ... ... ... : ... .. 0 ... ... ... : ... .. . ... : ... .. 3 ... : ... .. . ... ... : ... .. . ... ... : ... .. . ... ... : ... .. . ... ...
ROW EC : ... .. 2 ... ... ... : C#3 00 8 P80 ... ... : ... .. . ... : ... .. 2 ... : ... .. . ... ... : ... .. . ... ... : ... .. . ... ... : ... .. . ... ...
ROW ED : ... .. . ... ... ... : ... .. C ... ... ... : --- .. . ... : ... .. 0 ... : ... .. . ... ... : ... .. . ... ... : ... .. . ... ... : --- .. . ... ...
ROW EE : G#2 00 F ... ... ... : E-3 00 B ... ... ... : G#3 00 . ... : 9-# 00 8 ... : ... .. . ... ... : G#4 01 6 ... ... : A#3 01 6 ... ... : G#3 01 A ... ...
ROW EF : ... .. E ... ... ... : ... .. F ... ... ... : ... .. . ... : ... .. 6 ... : ... .. . ... ... : ... .. . ... ... : ... .. . ... ... : ... .. 8 ... ...
ROW F0 : ... .. D ... ... ... : ... .. B ... ... ... : ... .. . ... : ... .. 3 ... : ... .. . ... ... : ... .. 5 ... ... : ... .. 5 ... ... : ... .. 5 ... ...
ROW F1 : ... .. A ... ... ... : ... .. 0 ... ... ... : ... .. . ... : ... .. 1 ... : ... .. . ... ... : ... .. 4 ... ... : ... .. 4 ... ... : ... .. . ... ...
ROW F2 : ... .. . ... ... ... : E-3 00 8 P80 ... ... : ... .. . ... : ... .. . ... : ... .. . ... ... : ... .. . ... ... : ... .. . ... ... : ... .. . ... ...
ROW F3 : ... .. . ... ... ... : ... .. C ... ... ... : --- .. . ... : ... .. 0 ... : ... .. . ... ... : ... .. . ... ... : ... .. . ... ... : --- .. . P7F ...
ROW F4 : ... .. . ... ... ... : C#3 00 B ... ... ... : E-3 00 . ... : 7-# 00 F ... : ... .. . ... ... : ... .. . ... ... : ... .. . ... ... : E-3 01 A P80 ...
ROW F5 : ... .. . ... ... ... : ... .. F ... ... ... : ... .. . ... : ... .. C ... : ... .. . ... ... : ... .. 3 ... ... : ... .. 3 ... ... : ... .. 8 ... ...
ROW F6 : ... .. . ... ... ... : ... .. B ... ... ... : ... .. . ... : ... .. 6 ... : ... .. . ... ... : ... .. . ... ... : ... .. . ... ... : ... .. 5 ... ...
ROW F7 : A-2 00 A P81 ... ... : ... .. 0 ... ... ... : ... .. . ... : ... .. 3 ... : ... .. . ... ... : ... .. . ... ... : ... .. . ... ... : ... .. . ... ...
ROW F8 : A#2 00 A P85 ... ... : C#3 00 8 P80 ... ... : ... .. . ... : ... .. 2 ... : ... .. . ... ... : ... .. . ... ... : ... .. . ... ... : ... .. . ... ...
ROW F9 : B-2 00 A P8A ... ... : ... .. C ... ... ... : --- .. . ... : ... .. 0 ... : ... .. . ... ... : ... .. . ... ... : ... .. . ... ... : --- .. . P7D ...
ROW FA : C#3 00 A P79 ... ... : G#2 00 B ... ... ... : C#3 00 . ... : 5-# 00 8 ... : ... .. . ... ... : ... .. . ... ... : ... .. . ... ... : C#3 01 A P80 ...
ROW FB : D-3 00 A P82 ... ... : ... .. F ... ... ... : ... .. . ... : ... .. 6 ... : ... .. . ... ... : ... .. . ... ... : ... .. . ... ... : ... .. 8 ... ...
ROW FC : E-3 00 A P78 ... ... : ... .. B ... ... ... : ... .. . ... : ... .. 3 ... : ... .. . ... ... : ... .. . ... ... : ... .. . ... ... : ... .. 5 ... ...
ROW FD : F-3 00 A P85 ... ... : ... .. 0 ... ... ... : ... .. . ... : ... .. 1 ... : ... .. . ... ... : ... .. . ... ... : ... .. . ... ... : ... .. . ... ...
ROW FE : G-3 00 A P82 ... ... : G#2 00 8 P80 ... ... : ... .. . ... : ... .. . ... : ... .. . ... ... : ... .. . ... ... : ... .. . ... ... : ... .. . ... ...
ROW FF : A-3 00 A P83 ... ... : ... .. C ... ... ... : --- .. . ... : ... .. 0 ... : ... .. . ... ... : ... .. . ... ... : ... .. . ... ... : --- .. . ... ...

PATTERN 1B
ROW 00 : C#5 00 F P80 ... ... : A#3 00 F ... ... ... : F-4 00 . ... : B-# 00 D ... : ... .. . ... ... : F#3 01 A ... ... : D#3 01 A ... ... : F#3 01 F ... ...
ROW 01 : ... .. E ... ... ... : ... .. E ... ... ... : G-3 00 . ... : ... .. B ... : ... .. . ... ... : ... .. 9 ... ... : ... .. 9 ... ... : ... .. D ... ...
ROW 02 : ... .. D ... ... ... : ... .. D ... ... ... : C-3 00 . ... : ... .. . ... : ... .. . ... ... : ... .. 8 ... ... : ... .. 8 ... ... : ... .. 8 ... ...
ROW 03 : ... .. A ... ... ... : ... .. A ... ... ... : B-2 00 . ... : ... .. A ... : ... .. . ... ... : ... .. 7 ... ... : ... .. 7 ... ... : ... .. . ... ...
ROW 04 : ... .. . ... ... ... : ... .. . ... ... ... : F#2 00 . ... : ... .. 8 ... : ... .. . ... ... : ... .. . ... ... : ... .. . ... ... : ... .. . ... ...
ROW 05 : ... .. . ... ... ... : ... .. . ... ... ... : ... .. . ... : ... .. 7 ... : ... .. . ... ... : ... .. 6 ... ... : ... .. 6 ... ... : ... .. . ... ...
ROW 06 : ... .. . ... ... ... : ... .. . ... ... ... : ... .. . ... : C-# 00 8 ... : ... .. . ... ... : ... .. 5 ... ... : ... .. 5 ... ... : ... .. . ... ...
ROW 07 : ... .. 2 ... ... ... : ... .. 2 ... ... ... : ... .. . ... : ... .. 6 ... : ... .. . ... ... : ... .. . ... ... : ... .. . ... ... : ... .. 4 ... ...
ROW 08 : ... .. . ... ... ... : ... .. . ... ... ... : ... .. . ... : ... .. 3 ... : ... .. . ... ... : ... .. 3 ... ... : ... .. 3 ... ... : ... .. . ... ...
ROW 09 : ... .. . ... ... ... : ... .. . ... ... ... : F-2 00 . P84 : ... .. 1 ... : ... .. . ... ... : ... .. . ... ... : ... .. . ... ... : ... .. 1 ... ...
ROW 0A : ... .. 1 ... ... ... : ... .. 1 ... ... ... : E-2 00 . P8A : ... .. . ... : ... .. . ... ... : ... .. . ... ... : ... .. . ... ... : ... .. . ... ...
ROW 0B : ... .. . ... ... ... : ... .. . ... ... ... : D#2 00 . P92 : ... .. 0 ... : ... .. . ... ... : ... .. . ... ... : ... .. . ... ... : ... .. . ... ...
ROW 0C : F#5 00 F ... ... ... : C#4 00 F ... ... ... : G-4 00 . P80 : B-# 00 D ... : ... .. . ... ... : A#3 01 A ... ... : G#3 01 A ... ... : A#3 01 F ... ...
ROW 0D : ... .. E ... ... ... : ... .. E ... ... ... : A-3 00 . ... : ... .. B ... : ... .. . ... ... : ... .. 9 ... ... : ... .. 9 ... ... : ... .. D ... ...
ROW 0E : ... .. D ... ... ... : ... .. D ... ... ... : D-3 00 . ... : ... .. . ... : ... .. . ... ... : ... .. 8 ... ... : ... .. 8 ... ... : ... .. 8 ... ...
ROW 0F : ... .. A ... ... ... : ... .. A ... ... ... : C#3 00 . ... : ... .. A ... : ... .. . ... ... : ... .. 7 ... ... : ... .. 7 ... ... : ... .. . ... ...
ROW 10 : ... .. . ... ... ... : ... .. . ... ... ... : G#2 00 . ... : ... .. 8 ... : ... .. . ... ... : ... .. . ... ... : ... .. . ... ... : ... .. . ... ...
ROW 11 : ... .. . ... ... ... : ... .. . ... ... ... : ... .. . ... : ... .. 7 ... : ... .. . ... ... : ... .. 6 ... ... : ... .. 6 ... ... : ... .. . ... ...
ROW 12 : ... .. . ... ... ... : ... .. . ... ... ... : ... .. . ... : 1-# 00 F ... : ... .. . ... ... : ... .. 5 ... ... : ... .. 5 ... ... : ... .. . ... ...
ROW 13 : ... .. 2 ... ... ... : ... .. 2 ... ... ... : ... .. . ... : ... .. C ... : ... .. . ... ... : ... .. . ... ... : ... .. . ... ... : ... .. 4 ... ...
ROW 14 : ... .. . ... ... ... : ... .. . ... ... ... : ... .. . ... : ... .. 6 ... : ... .. . ... ... : ... .. 3 ... ... : ... .. 3 ... ... : ... .. . ... ...
ROW 15 : ... .. . ... ... ... : ... .. . ... ... ... : ... .. . ... : ... .. 3 ... : ... .. . ... ... : ... .. . ... ... : ... .. . ... ... : ... .. 1 ... ...
ROW 16 : ... .. 1 ... ... ... : ... .. 1 ... ... ... : ... .. . ... : ... .. 2 ... : ... .. . ... ... : ... .. . ... ... : ... .. . ... ... : ... .. . ... ...
ROW 17 : ... .. . ... ... ... : ... .. . ... ... ... : ... .. . ... : ... .. 0 ... : ... .. . ... ... : ... .. . ... ... : ... .. . ... ... : ... .. . ... ...
ROW 18 : C#5 00 F ... ... ... : A#3 00 F ... ... ... : C#3 00 . ... : B-# 00 D ... : ... .. . ... ... : F#3 01 A ... ... : C#3 01 A ... ... : F#3 01 F ... ...
ROW 19 : ... .. E ... ... ... : ... .. E ... ... ... : ... .. . ... : ... .. B ... : ... .. . ... ... : ... .. 9 ... ... : ... .. 9 ... ... : ... .. D ... ...
ROW 1A : ... .. D ... ... ... : ... .. D ... ... ... : ... .. . ... : ... .. . ... : ... .. . ... ... : ... .. 8 ... ... : ... .. 8 ... ... : ... .. 8 ... ...
ROW 1B : ... .. A ... ... ... : ... .. A ... ... ... : ... .. . ... : ... .. A ... : ... .. . ... ... : ... .. 7 ... ... : ... .. 7 ... ... : ... .. . ... ...
ROW 1C : ... .. . ... ... ... : ... .. . ... ... ... : ... .. . ... : ... .. 8 ... : ... .. . ... ... : ... .. . ... ... : ... .. . ... ... : ... .. . ... ...
ROW 1D : ... .. . ... ... ... : ... .. . ... ... ... : ... .. . ... : ... .. 7 ... : ... .. . ... ... : ... .. 6 ... ... : ... .. 6 ... ... : ... .. . ... ...
ROW 1E : ... .. . ... ... ... : ... .. . ... ... ... : D#3 00 . ... : C-# 00 8 ... : ... .. . ... ... : ... .. 5 ... ... : ... .. 5 ... ... : ... .. . ... ...
ROW 1F : ... .. 2 ... ... ... : ... .. 2 ... ... ... : ... .. . ... : ... .. 6 ... : ... .. . ... ... : ... .. . ... ... : ... .. . ... ... : ... .. 4 ... ...
ROW 20 : ... .. . ... ... ... : ... .. . ... ... ... : ... .. . ... : ... .. 3 ... : ... .. . ... ... : ... .. 3 ... ... : ... .. 3 ... ... : ... .. . ... ...
ROW 21 : ... .. . ... ... ... : ... .. . ... ... ... : ... .. . ... : ... .. 1 ... : ... .. . ... ... : ... .. . ... ... : ... .. . ... ... : ... .. 1 ... ...
ROW 22 : ... .. 1 ... ... ... : ... .. 1 ... ... ... : ... .. . ... : ... .. . ... : ... .. . ... ... : ... .. . ... ... : ... .. . ... ... : ... .. . ... ...
ROW 23 : ... .. . ... ... ... : ... .. . ... ... ... : ... .. . ... : ... .. 0 ... : ... .. . ... ... : ... .. . ... ... : ... .. . ... ... : ... .. . ... ...
ROW 24 : D#5 00 F ... ... ... : B-3 00 F ... ... ... : G-5 00 . ... : B-# 00 D ... : ... .. . ... ... : G#3 01 A ... ... : ... .. A ... ... : D#3 01 F ... ...
ROW 25 : ... .. E ... ... ... : ... .. E ... ... ... : A-4 00 . ... : ... .. B ... : ... .. . ... ... : ... .. 9 ... ... : ... .. 9 ... ... : ... .. D ... ...
ROW 26 : ... .. D ... ... ... : ... .. D ... ... ... : D-4 00 . ... : ... .. . ... : ... .. . ... ... : ... .. 8 ... ... : ... .. 8 ... ... : ... .. 8 ... ...
ROW 27 : ... .. A ... ... ... : ... .. A ... ... ... : C#4 00 . ... : ... .. A ... : ... .. . ... ... : ... .. 7 ... ... : ... .. 7 ... ... : ... .. . ... ...
ROW 28 : ... .. . ... ... ... : ... .. . ... ... ... : G#3 00 . ... : ... .. 8 ... : ... .. . ... ... : ... .. . ... ... : ... .. . ... ... : ... .. . ... ...
ROW 29 : ... .. . ... ... ... : ... .. . ... ... ... : --- .. . ... : ... .. 7 ... : ... .. . ... ... : ... .. 6 ... ... : ... .. 6 ... ... : ... .. . ... ...
ROW 2A : ... .. . ... ... ... : ... .. . ... ... ... : F#3 00 . ... : ... .. 6 ... : ... .. . ... ... : ... .. . ... ... : B-2 01 A ... ... : ... .. . ... ...
ROW 2B : ... .. . ... ... ... : ... .. . ... ... ... : ... .. . ... : ... .. . ... : ... .. . ... ... : ... .. 5 ... ... : ... .. 9 ... ... : ... .. . ... ...
ROW 2C : ... .. . ... ... ... : ... .. . ... ... ... : ... .. . ... : ... .. 5 ... : ... .. . ... ... : ... .. . ... ... : ... .. 8 ... ... : ... .. . ... ...
ROW 2D : ... .. . ... ... ... : ... .. . ... ... ... : ... .. . ... : ... .. . ... : ... .. . ... ... : ... .. . ... ... : ... .. 5 ... ... : ... .. . ... ...
ROW 2E : ... .. . ... ... ... : ... .. . ... ... ... : ... .. . ... : ... .. 4 ... : ... .. . ... ... : ... .. . ... ... : ... .. . ... ... : ... .. . ... ...
ROW 2F : ... .. . ... ... ... : ... .. . ... ... ... : --- .. . ... : ... .. . ... : ... .. . ... ... : ... .. . ... ... : ... .. 3 ... ... : ... .. . ... ...
ROW 30 : E-5 00 A P7F ... ... : C-4 00 A P7E ... ... : G#3 00 . ... : 7-# 00 F ... : ... .. . ... ... : ... .. . ... ... : A#2 01 A ... ... : ... .. . ... ...
ROW 31 : ... .. . P81 ... ... : ... .. . P84 ... ... : ... .. . ... : ... .. C ... : ... .. . ... ... : ... .. . ... ... : ... .. 9 ... ... : ... .. . ... ...
ROW 32 : ... .. . P80 ... ... : ... .. . P82 ... ... : ... .. . ... : ... .. 6 ... : ... .. . ... ... : ... .. . ... ... : ... .. 8 ... ... : ... .. . ... ...
ROW 33 : D#5 00 A P82 ... ... : B-3 00 A P84 ... ... : ... .. . ... : ... .. 3 ... : ... .. . ... ... : ... .. . ... ... : ... .. 5 ... ... : ... .. . ... ...
ROW 34 : ... .. 2 P7E ... ... : ... .. 2 P7C ... ... : ... .. . ... : ... .. 2 ... : ... .. . ... ... : ... .. . ... ... : ... .. . ... ... : ... .. . ... ...
ROW 35 : D-5 00 2 P80 ... ... : A#3 00 2 P80 ... ... : --- .. . ... : ... .. 0 ... : ... .. . ... ... : ... .. . ... ... : ... .. 3 ... ... : ... .. . ... ...
ROW 36 : G#2 00 F ... ... ... : D#3 00 B ... ... ... : G#4 00 . ... : 1-# 00 8 ... : ... .. . ... ... : ... .. . ... ... : B-2 01 A ... ... : B-2 01 F ... ...
ROW 37 : ... .. E ... ... ... : ... .. F ... ... ... : ... .. . ... : ... .. 6 ... : ... .. . ... ... : ... .. . ... ... : ... .. 9 ... ... : ... .. D ... ...
ROW 38 : ... .. D ... ... ... : ... .. B ... ... ... : ... .. . ... : ... .. 3 ... : ... .. . ... ... : ... .. . ... ... : ... .. 8 ... ... : ... .. 8 ... ...
ROW 39 : ... .. A ... ... ... : ... .. 0 ... ... ... : ... .. . ... : ... .. 1 ... : ... .. . ... ... : ... .. . ... ... : ... .. 7 ... ... : ... .. . ... ...
ROW 3A : ... .. . ... ... ... : D#3 00 8 P80 ... ... : ... .. . ... : ... .. . ... : ... .. . ... ... : ... .. . ... ... : ... .. . ... ... : ... .. . ... ...
ROW 3B : ... .. . ... ... ... : ... .. C ... ... ... : --- .. . ... : ... .. 0 ... : ... .. . ... ... : ... .. . ... ... : ... .. 6 ... ... : ... .. . ... ...
ROW 3C : G#1 00 F ... ... ... : D#2 00 B ... ... ... : G#3 00 . ... : 7-# 00 F ... : ... .. . ... ... : ... .. . ... ... : A#2 01 A ... ... : ... .. . ... ...
ROW 3D : ... .. E ... ... ... : ... .. F ... ... ... : ... .. . ... : ... .. C ... : ... .. . ... ... : ... .. . ... ... : ... .. 9 ... ... : ... .. . ... ...
ROW 3E : ... .. D ... ... ... : ... .. B ... ... ... : ... .. . ... : ... .. 6 ... : ... .. . ... ... : ... .. . ... ... : ... .. 8 ... ... : ... .. . ... ...
ROW 3F : ... .. A ... ... ... : ... .. 0 ... ... ... : ... .. . ... : ... .. 3 ... : ... .. . ... ... : ... .. . ... ... : ... .. 5 ... ... : ... .. . ... ...
ROW 40 : ... .. 2 ... ... ... : D#2 00 8 P80 ... ... : ... .. . ... : ... .. 2 ... : ... .. . ... ... : ... .. . ... ... : ... .. . ... ... : ... .. . ... ...
ROW 41 : ... .. . ... ... ... : ... .. C ... ... ... : --- .. . ... : ... .. 0 ... : ... .. . ... ... : ... .. . ... ... : ... .. 3 ... ... : ... .. . ... ...
ROW 42 : ... .. F ... ... ... : G#2 00 B ... ... ... : G#2 00 . ... : 1-# 00 8 ... : ... .. . ... ... : ... .. . ... ... : G#2 01 A ... ... : ... .. . ... ...
ROW 43 : ... .. E ... ... ... : ... .. F ... ... ... : ... .. . ... : ... .. 6 ... : ... .. . ... ... : ... .. . ... ... : ... .. 9 ... ... : ... .. . ... ...
ROW 44 : ... .. D ... ... ... : ... .. B ... ... ... : ... .. . ... : ... .. 3 ... : ... .. . ... ... : ... .. . ... ... : ... .. 8 ... ... : ... .. . ... ...
ROW 45 : ... .. A ... ... ... : ... .. 0 ... ... ... : ... .. . ... : ... .. 1 ... : ... .. . ... ... : ... .. . ... ... : ... .. 5 ... ... : ... .. . ... ...
ROW 46 : ... .. 2 ... ... ... : G#2 00 8 P80 ... ... : ... .. . ... : ... .. . ... : ... .. . ... ... : ... .. . ... ... : ... .. . ... ... : ... .. . ... ...
ROW 47 : ... .. . ... ... ... : ... .. C ... ... ... : --- .. . ... : ... .. 0 ... : ... .. . ... ... : ... .. . ... ... : ... .. 3 ... ... : ... .. . ... ...
ROW 48 : C#4 00 F ... ... ... : A#2 00 F ... ... ... : F-4 00 . ... : B-# 00 D ... : ... .. . ... ... : F#2 01 A ... ... : D#2 01 A ... ... : A#2 01 F ... ...
ROW 49 : ... .. E ... ... ... : ... .. E ... ... ... : G-3 00 . ... : ... .. B ... : ... .. . ... ... : ... .. 9 ... ... : ... .. 9 ... ... : ... .. D ... ...
ROW 4A : ... .. D ... ... ... : ... .. D ... ... ... : C-3 00 . ... : ... .. . ... : ... .. . ... ... : ... .. 8 ... ... : ... .. 8 ... ... : ... .. 8 ... ...
ROW 4B : ... .. A ... ... ... : ... .. A ... ... ... : B-2 00 . ... : ... .. A ... : ... .. . ... ... : ... .. 7 ... ... : ... .. 7 ... ... : ... .. . ... ...
ROW 4C : ... .. . ... ... ... : ... .. . ... ... ... : F#2 00 . ... : ... .. 8 ... : ... .. . ... ... : ... .. . ... ... : ... .. . ... ... : ... .. . ... ...
ROW 4D : ... .. . ... ... ... : ... .. . ... ... ... : ... .. . ... : ... .. 7 ... : ... .. . ... ... : ... .. 6 ... ... : ... .. 6 ... ... : ... .. . ... ...
ROW 4E : ... .. . ... ... ... : ... .. . ... ... ... : ... .. . ... : C-# 00 8 ... : ... .. . ... ... : ... .. 5 ... ... : ... .. 5 ... ... : ... .. . ... ...
ROW 4F : ... .. 2 ... ... ... : ... .. 2 ... ... ... : ... .. . ... : ... .. 6 ... : ... .. . ... ... : ... .. . ... ... : ... .. . ... ... : ... .. . ... ...
ROW 50 : ... .. . ... ... ... : ... .. . ... ... ... : ... .. . ... : ... .. 3 ... : ... .. . ... ... : ... .. 3 ... ... : ... .. 3 ... ... : ... .. . ... ...
ROW 51 : ... .. . ... ... ... : ... .. . ... ... ... : --- .. . ... : ... .. 1 ... : ... .. . ... ... : ... .. . ... ... : ... .. . ... ... : ... .. . ... ...
ROW 52 : ... .. 1 ... ... ... : ... .. 1 ... ... ... : ... .. . ... : ... .. . ... : ... .. . ... ... : ... .. . ... ... : ... .. . ... ... : ... .. . ... ...
ROW 53 : ... .. . ... ... ... : ... .. . ... ... ... : ... .. . ... : ... .. 0 ... : ... .. . ... ... : ... .. . ... ... : ... .. . ... ... : ... .. . ... ...
ROW 54 : F#4 00 F ... ... ... : C#3 00 F ... ... ... : G-4 00 . ... : B-# 00 D ... : ... .. . ... ... : A#2 01 A ... ... : G#2 01 A ... ... : B-2 01 F ... ...
ROW 55 : ... .. E ... ... ... : ... .. E ... ... ... : A-3 00 . ... : ... .. B ... : ... .. . ... ... : ... .. 9 ... ... : ... .. 9 ... ... : ... .. D ... ...
ROW 56 : ... .. D ... ... ... : ... .. D ... ... ... : D-3 00 . ... : ... .. . ... : ... .. . ... ... : ... .. 8 ... ... : ... .. 8 ... ... : ... .. 8 ... ...
ROW 57 : ... .. A ... ... ... : ... .. A ... ... ... : C#3 00 . ... : ... .. A ... : ... .. . ... ... : ... .. 7 ... ... : ... .. 7 ... ... : ... .. . ... ...
ROW 58 : ... .. . ... ... ... : ... .. . ... ... ... : G#2 00 . ... : ... .. 8 ... : ... .. . ... ... : ... .. . ... ... : ... .. . ... ... : ... .. . ... ...
ROW 59 : ... .. . ... ... ... : ... .. . ... ... ... : ... .. . ... : ... .. 7 ... : ... .. . ... ... : ... .. 6 ... ... : ... .. 6 ... ... : ... .. . ... ...
ROW 5A : ... .. . ... ... ... : ... .. . ... ... ... : ... .. . ... : 1-# 00 F ... : ... .. . ... ... : ... .. 5 ... ... : ... .. 5 ... ... : ... .. . ... ...
ROW 5B : ... .. 2 ... ... ... : ... .. 2 ... ... ... : ... .. . ... : ... .. C ... : ... .. . ... ... : ... .. . ... ... : ... .. . ... ... : ... .. . ... ...
ROW 5C : ... .. . ... ... ... : ... .. . ... ... ... : ... .. . ... : ... .. 6 ... : ... .. . ... ... : ... .. 3 ... ... : ... .. 3 ... ... : ... .. . ... ...
ROW 5D : ... .. . ... ... ... : ... .. . ... ... ... : ... .. . ... : ... .. 3 ... : ... .. . ... ... : ... .. . ... ... : ... .. . ... ... : ... .. . ... ...
ROW 5E : ... .. 1 ... ... ... : ... .. 1 ... ... ... : ... .. . ... : ... .. 2 ... : ... .. . ... ... : ... .. . ... ... : ... .. . ... ... : ... .. . ... ...
ROW 5F : ... .. . ... ... ... : ... .. . ... ... ... : ... .. . ... : ... .. 0 ... : ... .. . ... ... : ... .. . ... ... : ... .. . ... ... : ... .. . ... ...
ROW 60 : A#4 00 F ... ... ... : F#4 00 F ... ... ... : ... .. . ... : B-# 00 D ... : ... .. . ... ... : F#2 01 A ... ... : C#2 01 A ... ... : A#3 01 F ... ...
ROW 61 : ... .. E ... ... ... : ... .. E ... ... ... : ... .. . ... : ... .. B ... : ... .. . ... ... : ... .. 9 ... ... : ... .. 9 ... ... : ... .. D ... ...
ROW 62 : ... .. D ... ... ... : ... .. D ... ... ... : ... .. . ... : ... .. . ... : ... .. . ... ... : ... .. 8 ... ... : ... .. 8 ... ... : ... .. 8 ... ...
ROW 63 : ... .. A ... ... ... : ... .. A ... ... ... : ... .. . ... : ... .. A ... : ... .. . ... ... : ... .. 7 ... ... : ... .. 7 ... ... : ... .. . ... ...
ROW 64 : ... .. . ... ... ... : ... .. . ... ... ... : ... .. . ... : ... .. 8 ... : ... .. . ... ... : ... .. . ... ... : ... .. . ... ... : ... .. . ... ...
ROW 65 : ... .. . ... ... ... : ... .. . ... ... ... : ... .. . ... : ... .. 7 ... : ... .. . ... ... : ... .. 6 ... ... : ... .. 6 ... ... : ... .. . ... ...
ROW 66 : ... .. . ... ... ... : ... .. . ... ... ... : A#2 00 . ... : C-# 00 8 ... : ... .. . ... ... : ... .. 5 ... ... : ... .. 5 ... ... : ... .. . ... ...
ROW 67 : ... .. 2 ... ... ... : ... .. 2 ... ... ... : ... .. . ... : ... .. 6 ... : ... .. . ... ... : ... .. . ... ... : ... .. . ... ... : ... .. . ... ...
ROW 68 : ... .. . ... ... ... : ... .. . ... ... ... : ... .. . ... : ... .. 3 ... : ... .. . ... ... : ... .. 3 ... ... : ... .. 3 ... ... : ... .. . ... ...
ROW 69 : ... .. . ... ... ... : ... .. . ... ... ... : ... .. . ... : ... .. 1 ... : ... .. . ... ... : ... .. . ... ... : ... .. . ... ... : ... .. . ... ...
ROW 6A : ... .. 1 ... ... ... : ... .. 1 ... ... ... : ... .. . ... : ... .. . ... : ... .. . ... ... : ... .. . ... ... : ... .. . ... ... : ... .. . ... ...
ROW 6B : ... .. . ... ... ... : ... .. . ... ... ... : ... .. . ... : ... .. 0 ... : ... .. . ... ... : ... .. . ... ... : ... .. . ... ... : ... .. . ... ...
ROW 6C : B-4 00 F ... ... ... : F#3 00 F ... ... ... : B-2 00 . ... : B-# 00 D ... : ... .. . ... ... : G#2 01 6 ... ... : D#2 01 6 ... ... : F#3 01 A ... ...
ROW 6D : ... .. E ... ... ... : ... .. E ... ... ... : ... .. . ... : ... .. B ... : ... .. . ... ... : ... .. . ... ... : ... .. . ... ... : ... .. 8 ... ...
ROW 6E : ... .. D ... ... ... : ... .. D ... ... ... : ... .. . ... : ... .. . ... : ... .. . ... ... : ... .. 5 ... ... : ... .. 5 ... ... : ... .. 5 ... ...
ROW 6F : ... .. A ... ... ... : ... .. A ... ... ... : ... .. . ... : ... .. A ... : ... .. . ... ... : ... .. 4 ... ... : ... .. 4 ... ... : ... .. . ... ...
ROW 70 : ... .. . ... ... ... : ... .. . ... ... ... : ... .. . ... : ... .. 8 ... : ... .. . ... ... : ... .. . ... ... : ... .. . ... ... : ... .. . ... ...
ROW 71 : ... .. . ... ... ... : ... .. . ... ... ... : --- .. . ... : ... .. 7 ... : ... .. . ... ... : ... .. . ... ... : ... .. . ... ... : ... .. . ... ...
ROW 72 : ... .. . ... ... ... : E-3 00 F ... ... ... : A#2 00 . ... : ... .. 6 ... : ... .. . ... ... : A#2 01 6 ... ... : C#2 01 6 ... ... : ... .. . ... ...
ROW 73 : ... .. . ... ... ... : ... .. E ... ... ... : ... .. . ... : ... .. . ... : ... .. . ... ... : ... .. . ... ... : ... .. . ... ... : ... .. . ... ...
ROW 74 : ... .. . ... ... ... : ... .. D ... ... ... : ... .. . ... : ... .. 5 ... : ... .. . ... ... : ... .. 5 ... ... : ... .. 5 ... ... : ... .. . ... ...
ROW 75 : C-5 00 A P7E ... ... : ... .. A ... ... ... : ... .. . ... : ... .. . ... : ... .. . ... ... : ... .. 4 ... ... : ... .. 3 ... ... : ... .. . ... ...
ROW 76 : ... .. . P80 ... ... : ... .. . ... ... ... : ... .. . ... : ... .. 4 ... : ... .. . ... ... : ... .. . ... ... : ... .. . ... ... : ... .. . ... ...
ROW 77 : ... .. . P7F ... ... : ... .. . ... ... ... : --- .. . ... : ... .. . ... : ... .. . ... ... : ... .. . ... ... : ... .. 2 ... ... : ... .. . ... ...
ROW 78 : B-4 00 A P82 ... ... : D#3 00 F ... ... ... : B-2 00 . ... : 0-# 00 D ... : ... .. . ... ... : B-2 01 6 ... ... : B-1 01 6 ... ... : G#3 01 A ... ...
ROW 79 : ... .. . P7E ... ... : ... .. E ... ... ... : ... .. . ... : ... .. . ... : ... .. . ... ... : ... .. . ... ... : ... .. . ... ... : ... .. 8 ... ...
ROW 7A : A#4 00 A P82 ... ... : ... .. D ... ... ... : ... .. . ... : C-# 00 D ... : ... .. . ... ... : ... .. 5 ... ... : ... .. 5 ... ... : ... .. 5 ... ...
ROW 7B : ... .. . P81 ... ... : ... .. A ... ... ... : ... .. . ... : A-# 00 6 ... : ... .. . ... ... : ... .. 4 ... ... : ... .. 4 ... ... : ... .. . ... ...
ROW 7C : ... .. . P83 ... ... : ... .. . ... ... ... : ... .. . ... : 6-# 00 1 ... : ... .. . ... ... : ... .. . ... ... : ... .. . ... ... : ... .. . ... ...
ROW 7D : B-4 00 A P80 ... ... : ... .. . ... ... ... : --- .. . ... : ... .. 0 ... : ... .. . ... ... : ... .. . ... ... : ... .. . ... ... : ... .. . ... ...
ROW 7E : C#5 00 F ... ... ... : ... .. F ... ... ... : C#3 00 . ... : 9-# 00 D ... : ... .. . ... ... : ... .. 6 ... ... : ... .. 6 ... ... : ... .. . ... ...
ROW 7F : ... .. E ... ... ... : ... .. E ... ... ... : ... .. . ... : ... .. . ... : ... .. . ... ... : ... .. . ... ... : ... .. . ... ... : ... .. . ... ...
ROW 80 : ... .. D ... ... ... : ... .. D ... ... ... : ... .. . ... : 5-# 00 D ... : ... .. . ... ... : ... .. 5 ... ... : ... .. 5 ... ... : ... .. . ... ...
ROW 81 : ... .. A ... ... ... : ... .. A ... ... ... : ... .. . ... : 3-# 00 6 ... : ... .. . ... ... : ... .. 4 ... ... : ... .. 4 ... ... : ... .. . ... ...
ROW 82 : ... .. . ... ... ... : ... .. . ... ... ... : ... .. . ... : F-# 00 1 ... : ... .. . ... ... : ... .. . ... ... : ... .. . ... ... : ... .. . ... ...
ROW 83 : ... .. . ... ... ... : ... .. . ... ... ... : --- .. . ... : ... .. 0 ... : ... .. . ... ... : ... .. . ... ... : ... .. . ... ... : ... .. . ... ...
ROW 84 : ... .. . ... ... ... : C#3 00 F ... ... ... : D#3 00 . ... : 9-# 00 D ... : ... .. . ... ... : C#3 01 6 ... ... : A#1 01 6 ... ... : D#4 01 A ... ...
ROW 85 : ... .. . ... ... ... : ... .. E ... ... ... : ... .. . ... : ... .. . ... : ... .. . ... ... : ... .. . ... ... : ... .. . ... ... : ... .. 8 ... ...
ROW 86 : ... .. . ... ... ... : ... .. D ... ... ... : ... .. . ... : 5-# 00 D ... : ... .. . ... ... : ... .. 5 ... ... : ... .. 5 ... ... : ... .. 5 ... ...
ROW 87 : ... .. . ... ... ... : ... .. A ... ... ... : ... .. . ... : 3-# 00 6 ... : ... .. . ... ... : ... .. 4 ... ... : ... .. 4 ... ... : ... .. . ... ...
ROW 88 : ... .. . ... ... ... : ... .. . ... ... ... : ... .. . ... : F-# 00 1 ... : ... .. . ... ... : ... .. . ... ... : ... .. . ... ... : ... .. . ... ...
ROW 89 : ... .. . ... ... ... : ... .. . ... ... ... : --- .. . ... : ... .. 0 ... : ... .. . ... ... : ... .. . ... ... : ... .. . ... ... : ... .. . ... ...
ROW 8A : ... .. 5 ... ... ... : B-2 00 F ... ... ... : F#3 00 . ... : 8-# 00 D ... : ... .. . ... ... : D#3 01 6 ... ... : G#1 01 6 ... ... : ... .. . ... ...
ROW 8B : ... .. . ... ... ... : ... .. E ... ... ... : ... .. . ... : ... .. . ... : ... .. . ... ... : ... .. . ... ... : ... .. . ... ... : ... .. . ... ...
ROW 8C : ... .. . ... ... ... : ... .. D ... ... ... : ... .. . ... : 4-# 00 D ... : ... .. . ... ... : ... .. 5 ... ... : ... .. 5 ... ... : ... .. . ... ...
ROW 8D : ... .. . ... ... ... : ... .. A ... ... ... : ... .. . ... : 2-# 00 6 ... : ... .. . ... ... : ... .. 4 ... ... : ... .. 4 ... ... : ... .. . ... ...
ROW 8E : ... .. . ... ... ... : ... .. . ... ... ... : ... .. . ... : E-# 00 1 ... : ... .. . ... ... : ... .. . ... ... : ... .. . ... ... : ... .. . ... ...
ROW 8F : ... .. . ... ... ... : ... .. . ... ... ... : --- .. . ... : ... .. 0 ... : ... .. . ... ... : ... .. . ... ... : ... .. . ... ... : ... .. . ... ...
ROW 90 : D#5 00 F ... ... ... : E-2 00 8 ... ... ... : D#5 00 . ... : 1-# 00 F ... : ... .. . ... ... : B-3 01 6 ... ... : G#3 01 6 ... ... : E-4 01 A ... ...
ROW 91 : ... .. E ... ... ... : ... .. B ... ... ... : F-4 00 . ... : ... .. C ... : ... .. . ... ... : ... .. . ... ... : ... .. . ... ... : ... .. 8 ... ...
ROW 92 : ... .. D ... ... ... : ... .. 8 ... ... ... : A#3 00 . ... : ... .. 6 ... : ... .. . ... ... : ... .. 5 ... ... : ... .. 5 ... ... : ... .. 5 ... ...
ROW 93 : ... .. A ... ... ... : ... .. 0 ... ... ... : A-3 00 . ... : ... .. 3 ... : ... .. . ... ... : ... .. 4 ... ... : ... .. 4 ... ... : ... .. . ... ...
ROW 94 : ... .. . ... ... ... : E-2 00 5 P80 ... ... : E-3 00 . ... : ... .. 2 ... : ... .. . ... ... : ... .. . ... ... : ... .. . ... ... : ... .. . ... ...
ROW 95 : ... .. . ... ... ... : ... .. 8 ... ... ... : ... .. . ... : ... .. 0 ... : ... .. . ... ... : ... .. . ... ... : ... .. . ... ... : ... .. . ... ...
ROW 96 : ... .. . ... ... ... : B-1 00 8 ... ... ... : ... .. . ... : C-# 00 8 ... : ... .. . ... ... : ... .. . ... ... : ... .. . ... ... : F#4 01 A ... ...
ROW 97 : ... .. . ... ... ... : ... .. B ... ... ... : ... .. . ... : ... .. 6 ... : ... .. . ... ... : ... .. 3 ... ... : ... .. 3 ... ... : ... .. 8 ... ...
ROW 98 : ... .. . ... ... ... : ... .. 8 ... ... ... : ... .. . ... : ... .. 3 ... : ... .. . ... ... : ... .. . ... ... : ... .. . ... ... : ... .. 5 ... ...
ROW 99 : ... .. . ... ... ... : ... .. 0 ... ... ... : ... .. . ... : ... .. 1 ... : ... .. . ... ... : ... .. . ... ... : ... .. . ... ... : ... .. . ... ...
ROW 9A : ... .. . ... ... ... : B-1 00 5 P80 ... ... : ... .. . ... : ... .. . ... : ... .. . ... ... : ... .. . ... ... : ... .. . ... ... : ... .. . ... ...
ROW 9B : ... .. . ... ... ... : ... .. 8 ... ... ... : ... .. . ... : ... .. 0 ... : ... .. . ... ... : ... .. . ... ... : ... .. . ... ... : ... .. . ... ...
ROW 9C : ... .. . ... ... ... : G#2 00 8 ... ... ... : D-3 00 . P8A : ... .. 8 ... : ... .. . ... ... : ... .. . ... ... : ... .. . ... ... : D#4 01 A ... ...
ROW 9D : ... .. . ... ... ... : ... .. B ... ... ... : C#3 00 . P81 : ... .. 6 ... : ... .. . ... ... : ... .. . ... ... : ... .. . ... ... : ... .. 8 ... ...
ROW 9E : ... .. . ... ... ... : ... .. 8 ... ... ... : C-3 00 . P79 : ... .. 3 ... : ... .. . ... ... : ... .. . ... ... : ... .. . ... ... : ... .. 5 ... ...
ROW 9F : ... .. . ... ... ... : ... .. 0 ... ... ... : A#2 00 . P8D : ... .. 1 ... : ... .. . ... ... : ... .. . ... ... : ... .. . ... ... : ... .. . ... ...
ROW A0 : ... .. . ... ... ... : G#2 00 5 P80 ... ... : A-2 00 . P89 : ... .. . ... : ... .. . ... ... : ... .. . ... ... : ... .. . ... ... : ... .. . ... ...
ROW A1 : ... .. . ... ... ... : ... .. 8 ... ... ... : G#2 00 . P88 : ... .. 0 ... : ... .. . ... ... : ... .. . ... ... : ... .. . ... ... : ... .. . ... ...
ROW A2 : E-5 00 A P7F ... ... : B-2 00 8 ... ... ... : G-5 00 . P80 : 1-# 00 F ... : ... .. . ... ... : C#4 01 6 ... ... : A#3 01 6 ... ... : E-4 01 A ... ...
ROW A3 : ... .. . P81 ... ... : ... .. B ... ... ... : A-4 00 . ... : ... .. C ... : ... .. . ... ... : ... .. . ... ... : ... .. . ... ... : ... .. 8 ... ...
ROW A4 : ... .. . P80 ... ... : ... .. 8 ... ... ... : D-4 00 . ... : ... .. 6 ... : ... .. . ... ... : ... .. 5 ... ... : ... .. 5 ... ... : ... .. 5 ... ...
ROW A5 : D#5 00 A P82 ... ... : ... .. 0 ... ... ... : C#4 00 . ... : ... .. 3 ... : ... .. . ... ... : ... .. 4 ... ... : ... .. 4 ... ... : ... .. . ... ...
ROW A6 : ... .. . P7E ... ... : B-2 00 5 P80 ... ... : G#3 00 . ... : ... .. 2 ... : ... .. . ... ... : ... .. . ... ... : ... .. . ... ... : ... .. . ... ...
ROW A7 : D-5 00 A P80 ... ... : ... .. 8 ... ... ... : --- .. . ... : ... .. 0 ... : ... .. . ... ... : ... .. . ... ... : ... .. . ... ... : ... .. . ... ...
ROW A8 : ... .. . P7F ... ... : E-2 00 8 ... ... ... : F#3 00 . ... : C-# 00 8 ... : ... .. . ... ... : ... .. . ... ... : ... .. . ... ... : C#4 01 A ... ...
ROW A9 : ... .. . P81 ... ... : ... .. B ... ... ... : ... .. . ... : ... .. 6 ... : ... .. . ... ... : ... .. 3 ... ... : ... .. 3 ... ... : ... .. 8 ... ...
ROW AA : D#5 00 A P80 ... ... : ... .. 8 ... ... ... : ... .. . ... : ... .. 3 ... : ... .. . ... ... : ... .. . ... ... : ... .. . ... ... : ... .. 5 ... ...
ROW AB : E-5 00 A P7E ... ... : ... .. 0 ... ... ... : ... .. . ... : ... .. 1 ... : ... .. . ... ... : ... .. . ... ... : ... .. . ... ... : ... .. . ... ...
ROW AC : ... .. . P81 ... ... : E-2 00 5 P80 ... ... : ... .. . ... : ... .. . ... : ... .. . ... ... : ... .. . ... ... : ... .. . ... ... : ... .. . ... ...
ROW AD : ... .. . ... ... ... : ... .. 8 ... ... ... : --- .. . ... : ... .. 0 ... : ... .. . ... ... : ... .. . ... ... : ... .. . ... ... : ... .. . ... ...
ROW AE : D#5 00 A P82 ... ... : E-3 00 8 ... ... ... : G#3 00 . ... : ... .. 8 ... : ... .. . ... ... : ... .. . ... ... : ... .. . ... ... : D#4 01 A ... ...
ROW AF : C#5 00 A P81 ... ... : ... .. B ... ... ... : ... .. . ... : ... .. 6 ... : ... .. . ... ... : ... .. . ... ... : ... .. . ... ... : ... .. 8 ... ...
ROW B0 : B-4 00 A P80 ... ... : ... .. 8 ... ... ... : ... .. . ... : ... .. 3 ... : ... .. . ... ... : ... .. . ... ... : ... .. . ... ... : ... .. 5 ... ...
ROW B1 : A#4 00 A P7D ... ... : ... .. 0 ... ... ... : --- .. . ... : ... .. 1 ... : ... .. . ... ... : ... .. . ... ... : ... .. . ... ... : ... .. . ... ...
ROW B2 : A-4 00 A ... ... ... : E-3 00 5 P80 ... ... : ... .. . ... : ... .. . ... : ... .. . ... ... : ... .. . ... ... : ... .. . ... ... : ... .. . ... ...
ROW B3 : G#4 00 A P80 ... ... : ... .. 8 ... ... ... : ... .. . ... : ... .. 0 ... : ... .. . ... ... : ... .. . ... ... : ... .. . ... ... : ... .. . ... ...
ROW B4 : ... .. F ... ... ... : G#3 00 8 ... ... ... : D#6 00 . ... : 7-# 00 F ... : ... .. . ... ... : A#3 01 6 ... ... : F#3 01 6 ... ... : B-3 01 A ... ...
ROW B5 : ... .. E ... ... ... : ... .. B ... ... ... : F-5 00 . ... : ... .. C ... : ... .. . ... ... : ... .. . ... ... : ... .. . ... ... : ... .. 8 ... ...
ROW B6 : ... .. D ... ... ... : ... .. 8 ... ... ... : A#4 00 . ... : ... .. 6 ... : ... .. . ... ... : ... .. 5 ... ... : ... .. 5 ... ... : ... .. 5 ... ...
ROW B7 : ... .. A ... ... ... : ... .. 0 ... ... ... : A-4 00 . ... : ... .. 3 ... : ... .. . ... ... : ... .. 4 ... ... : ... .. 4 ... ... : ... .. . ... ...
ROW B8 : ... .. . ... ... ... : G#3 00 5 P80 ... ... : E-4 00 . ... : ... .. 2 ... : ... .. . ... ... : ... .. . ... ... : ... .. . ... ... : ... .. . ... ...
ROW B9 : ... .. . ... ... ... : ... .. 8 ... ... ... : ... .. . ... : ... .. 0 ... : ... .. . ... ... : ... .. . ... ... : ... .. . ... ... : ... .. . ... ...
ROW BA : ... .. . ... ... ... : B-2 00 8 ... ... ... : ... .. . ... : 1-# 00 8 ... : ... .. . ... ... : ... .. . ... ... : ... .. . ... ... : C#4 01 A ... ...
ROW BB : ... .. . ... ... ... : ... .. B ... ... ... : ... .. . ... : ... .. 6 ... : ... .. . ... ... : ... .. 3 ... ... : ... .. 3 ... ... : ... .. 8 ... ...
ROW BC : ... .. . ... ... ... : ... .. 8 ... ... ... : ... .. . ... : ... .. 3 ... : ... .. . ... ... : ... .. . ... ... : ... .. . ... ... : ... .. 5 ... ...
ROW BD : ... .. . ... ... ... : ... .. 0 ... ... ... : ... .. . ... : ... .. 1 ... : ... .. . ... ... : ... .. . ... ... : ... .. . ... ... : ... .. . ... ...
ROW BE : ... .. . ... ... ... : B-2 00 5 P80 ... ... : ... .. . ... : ... .. . ... : ... .. . ... ... : ... .. . ... ... : ... .. . ... ... : ... .. . ... ...
ROW BF : ... .. . ... ... ... : ... .. 8 ... ... ... : ... .. . ... : ... .. 0 ... : ... .. . ... ... : ... .. . ... ... : ... .. . ... ... : ... .. . ... ...
ROW C0 : C#5 00 F ... ... ... : E-3 00 8 ... ... ... : D#4 00 . ... : 7-# 00 F ... : ... .. . ... ... : ... .. . ... ... : ... .. . ... ... : A#3 01 A ... ...
ROW C1 : ... .. E ... ... ... : ... .. B ... ... ... : ... .. . ... : ... .. C ... : ... .. . ... ... : ... .. . ... ... : ... .. . ... ... : ... .. 8 ... ...
ROW C2 : ... .. D ... ... ... : ... .. 8 ... ... ... : ... .. . ... : ... .. 6 ... : ... .. . ... ... : ... .. . ... ... : ... .. . ... ... : ... .. 5 ... ...
ROW C3 : ... .. A ... ... ... : ... .. 0 ... ... ... : ... .. . ... : ... .. 3 ... : ... .. . ... ... : ... .. . ... ... : ... .. . ... ... : ... .. . ... ...
ROW C4 : D-5 00 A P7F ... ... : E-3 00 5 P80 ... ... : ... .. . ... : ... .. 2 ... : ... .. . ... ... : ... .. . ... ... : ... .. . ... ... : ... .. . ... ...
ROW C5 : D#5 00 A ... ... ... : ... .. 8 ... ... ... : ... .. . ... : ... .. 0 ... : ... .. . ... ... : ... .. . ... ... : ... .. . ... ... : ... .. . ... ...
ROW C6 : ... .. . P80 ... ... : G#3 00 8 ... ... ... : ... .. . ... : 1-# 00 8 ... : ... .. . ... ... : B-3 01 6 ... ... : G#3 01 6 ... ... : B-3 01 A ... ...
ROW C7 : ... .. . ... ... ... : ... .. B ... ... ... : ... .. . ... : ... .. 6 ... : ... .. . ... ... : ... .. . ... ... : ... .. . ... ... : ... .. 8 ... ...
ROW C8 : ... .. . ... ... ... : ... .. 8 ... ... ... : ... .. . ... : ... .. 3 ... : ... .. . ... ... : ... .. 5 ... ... : ... .. 5 ... ... : ... .. 5 ... ...
ROW C9 : ... .. . ... ... ... : ... .. 0 ... ... ... : ... .. . ... : ... .. 1 ... : ... .. . ... ... : ... .. 4 ... ... : ... .. 4 ... ... : ... .. . ... ...
ROW CA : ... .. . ... ... ... : G#3 00 5 P80 ... ... : ... .. . ... : ... .. . ... : ... .. . ... ... : ... .. . ... ... : ... .. . ... ... : ... .. . ... ...
ROW CB : ... .. . ... ... ... : ... .. 8 ... ... ... : --- .. . ... : ... .. 0 ... : ... .. . ... ... : ... .. . ... ... : ... .. . ... ... : ... .. . ... ...
ROW CC : G#4 00 F ... ... ... : E-3 00 8 ... ... ... : G#3 00 . ... : 7-# 00 F ... : ... .. . ... ... : ... .. . ... ... : ... .. . ... ... : G#3 01 A ... ...
ROW CD : ... .. E ... ... ... : ... .. B ... ... ... : ... .. . ... : ... .. C ... : ... .. . ... ... : ... .. 3 ... ... : ... .. 3 ... ... : ... .. 8 ... ...
ROW CE : ... .. D ... ... ... : ... .. 8 ... ... ... : ... .. . ... : ... .. 6 ... : ... .. . ... ... : ... .. . ... ... : ... .. . ... ... : ... .. 5 ... ...
ROW CF : ... .. A ... ... ... : ... .. 0 ... ... ... : ... .. . ... : ... .. 3 ... : ... .. . ... ... : ... .. . ... ... : ... .. . ... ... : ... .. . ... ...
ROW D0 : ... .. . ... ... ... : E-3 00 5 P80 ... ... : ... .. . ... : ... .. 2 ... : ... .. . ... ... : ... .. . ... ... : ... .. . ... ... : ... .. . ... ...
ROW D1 : ... .. . ... ... ... : ... .. 8 ... ... ... : ... .. . ... : ... .. 0 ... : ... .. . ... ... : ... .. . ... ... : ... .. . ... ... : ... .. . ... ...
ROW D2 : ... .. . ... ... ... : G#3 00 8 ... ... ... : ... .. . ... : 1-# 00 8 ... : ... .. . ... ... : ... .. . ... ... : ... .. . ... ... : A#3 01 A ... ...
ROW D3 : ... .. . ... ... ... : ... .. B ... ... ... : ... .. . ... : ... .. 6 ... : ... .. . ... ... : ... .. . ... ... : ... .. . ... ... : ... .. 8 ... ...
ROW D4 : ... .. . ... ... ... : ... .. 8 ... ... ... : ... .. . ... : ... .. 3 ... : ... .. . ... ... : ... .. . ... ... : ... .. . ... ... : ... .. 5 ... ...
ROW D5 : ... .. . ... ... ... : ... .. 0 ... ... ... : ... .. . ... : ... .. 1 ... : ... .. . ... ... : ... .. . ... ... : ... .. . ... ... : ... .. . ... ...
ROW D6 : ... .. . ... ... ... : G#3 00 5 P80 ... ... : ... .. . ... : ... .. . ... : ... .. . ... ... : ... .. . ... ... : ... .. . ... ... : ... .. . ... ...
ROW D7 : ... .. . ... ... ... : ... .. 8 ... ... ... : --- .. . ... : ... .. 0 ... : ... .. . ... ... : ... .. . ... ... : ... .. . ... ... : ... .. . ... ...
ROW D8 : B-4 00 F ... ... ... : C#4 00 8 ... ... ... : C-4 00 . ... : ... .. F ... : ... .. . ... ... : G#3 01 6 ... ... : E-3 01 6 ... ... : F#3 01 A ... ...
ROW D9 : ... .. E ... ... ... : ... .. B ... ... ... : D-3 00 . ... : ... .. C ... : ... .. . ... ... : ... .. . ... ... : ... .. . ... ... : ... .. 8 ... ...
ROW DA : ... .. D ... ... ... : ... .. 8 ... ... ... : G-2 00 . ... : ... .. 6 ... : ... .. . ... ... : ... .. 5 ... ... : ... .. 5 ... ... : ... .. 5 ... ...
ROW DB : ... .. A ... ... ... : ... .. 0 ... ... ... : F#2 00 . ... : ... .. 3 ... : ... .. . ... ... : ... .. 4 ... ... : ... .. 4 ... ... : ... .. . ... ...
ROW DC : C-5 00 A P7F ... ... : C#4 00 5 P80 ... ... : C#2 00 . ... : ... .. 2 ... : ... .. . ... ... : ... .. . ... ... : ... .. . ... ... : ... .. . ... ...
ROW DD : C#5 00 A P7E ... ... : ... .. 8 ... ... ... : ... .. . ... : ... .. 0 ... : ... .. . ... ... : ... .. . ... ... : ... .. . ... ... : ... .. . ... ...
ROW DE : ... .. . P80 ... ... : E-3 00 8 ... ... ... : ... .. . ... : C-# 00 8 ... : ... .. . ... ... : ... .. . ... ... : ... .. . ... ... : G#3 01 A ... ...
ROW DF : ... .. . ... ... ... : ... .. B ... ... ... : ... .. . ... : ... .. 6 ... : ... .. . ... ... : ... .. 3 ... ... : ... .. 3 ... ... : ... .. 8 ... ...
ROW E0 : ... .. . ... ... ... : ... .. 8 ... ... ... : ... .. . ... : ... .. 3 ... : ... .. . ... ... : ... .. . ... ... : ... .. . ... ... : ... .. 5 ... ...
ROW E1 : ... .. . ... ... ... : ... .. 0 ... ... ... : ... .. . ... : ... .. 1 ... : ... .. . ... ... : ... .. . ... ... : ... .. . ... ... : ... .. . ... ...
ROW E2 : ... .. . ... ... ... : E-3 00 5 P80 ... ... : ... .. . ... : ... .. . ... : ... .. . ... ... : ... .. . ... ... : ... .. . ... ... : ... .. . ... ...
ROW E3 : ... .. . ... ... ... : ... .. 8 ... ... ... : ... .. . ... : ... .. 0 ... : ... .. . ... ... : ... .. . ... ... : ... .. . ... ... : ... .. . ... ...
ROW E4 : ... .. . ... ... ... : G#3 00 8 ... ... ... : D-2 00 . P73 : ... .. 8 ... : ... .. . ... ... : ... .. . ... ... : ... .. . ... ... : E-3 01 A ... ...
ROW E5 : ... .. . ... ... ... : ... .. B ... ... ... : ... .. . P93 : ... .. 6 ... : ... .. . ... ... : ... .. . ... ... : ... .. . ... ... : ... .. 8 ... ...
ROW E6 : ... .. . ... ... ... : ... .. 8 ... ... ... : D#2 00 . P88 : ... .. 3 ... : ... .. . ... ... : ... .. . ... ... : ... .. . ... ... : ... .. 5 ... ...
ROW E7 : ... .. . ... ... ... : ... .. 0 ... ... ... : E-2 00 . P80 : ... .. 1 ... : ... .. . ... ... : ... .. . ... ... : ... .. . ... ... : ... .. . ... ...
ROW E8 : ... .. . ... ... ... : G#3 00 5 P80 ... ... : F-2 00 . P7A : ... .. . ... : ... .. . ... ... : ... .. . ... ... : ... .. . ... ... : ... .. . ... ...
ROW E9 : ... .. . ... ... ... : ... .. 8 ... ... ... : F#2 00 . P76 : ... .. 0 ... : ... .. . ... ... : ... .. . ... ... : ... .. . ... ... : ... .. . ... ...
ROW EA : G#4 00 F ... ... ... : C#4 00 8 ... ... ... : C-5 00 . P80 : 1-# 00 F ... : ... .. . ... ... : B-2 01 6 ... ... : G#2 01 6 ... ... : F#3 01 A ... ...
ROW EB : ... .. E ... ... ... : ... .. B ... ... ... : D-4 00 . ... : ... .. C ... : ... .. . ... ... : ... .. . ... ... : ... .. . ... ... : ... .. 8 ... ...
ROW EC : ... .. D ... ... ... : ... .. 8 ... ... ... : G-3 00 . ... : ... .. 6 ... : ... .. . ... ... : ... .. 5 ... ... : ... .. 5 ... ... : ... .. 5 ... ...
ROW ED : ... .. A ... ... ... : ... .. 0 ... ... ... : F#3 00 . ... : ... .. 3 ... : ... .. . ... ... : ... .. 4 ... ... : ... .. 4 ... ... : ... .. . ... ...
ROW EE : ... .. . ... ... ... : C#4 00 5 P80 ... ... : C#3 00 . ... : ... .. 2 ... : ... .. . ... ... : ... .. . ... ... : ... .. . ... ... : ... .. . ... ...
ROW EF : ... .. . ... ... ... : ... .. 8 ... ... ... : --- .. . ... : ... .. 0 ... : ... .. . ... ... : ... .. . ... ... : ... .. . ... ... : ... .. . ... ...
ROW F0 : ... .. . P84 ... ... : G#3 00 8 ... ... ... : D#3 00 . ... : C-# 00 8 ... : ... .. . ... ... : ... .. . ... ... : ... .. . ... ... : D#3 01 A ... ...
ROW F1 : A-4 00 A P7E ... ... : ... .. B ... ... ... : ... .. . ... : ... .. 6 ... : ... .. . ... ... : ... .. 3 ... ... : ... .. 3 ... ... : ... .. 8 ... ...
ROW F2 : ... .. . P7D ... ... : ... .. 8 ... ... ... : ... .. . ... : ... .. 3 ... : ... .. . ... ... : ... .. . ... ... : ... .. . ... ... : ... .. 5 ... ...
ROW F3 : G#4 00 A P82 ... ... : ... .. 0 ... ... ... : ... .. . ... : ... .. 1 ... : ... .. . ... ... : ... .. . ... ... : ... .. . ... ... : ... .. . ... ...
ROW F4 : ... .. . P7E ... ... : G#3 00 5 P80 ... ... : ... .. . ... : ... .. . ... : ... .. . ... ... : ... .. . ... ... : ... .. . ... ... : ... .. . ... ...
ROW F5 : G-4 00 A P83 ... ... : ... .. 8 ... ... ... : --- .. . ... : ... .. 0 ... : ... .. . ... ... : ... .. . ... ... : ... .. . ... ... : ... .. . ... ...
ROW F6 : ... .. . P82 ... ... : E-3 00 8 ... ... ... : E-3 00 . ... : ... .. 8 ... : ... .. . ... ... : ... .. . ... ... : ... .. . ... ... : E-3 01 A ... ...
ROW F7 : ... .. . P84 ... ... : ... .. B ... ... ... : ... .. . ... : ... .. 6 ... : ... .. . ... ... : ... .. . ... ... : ... .. . ... ... : ... .. 8 ... ...
ROW F8 : G#4 00 A P80 ... ... : ... .. 8 ... ... ... : ... .. . ... : ... .. 3 ... : ... .. . ... ... : ... .. . ... ... : ... .. . ... ... : ... .. 5 ... ...
ROW F9 : ... .. . P83 ... ... : ... .. 0 ... ... ... : ... .. . ... : ... .. 1 ... : ... .. . ... ... : ... .. . ... ... : ... .. . ... ... : ... .. . ... ...
ROW FA : A-4 00 A P7E ... ... : E-3 00 5 P80 ... ... : ... .. . ... : ... .. . ... : ... .. . ... ... : ... .. . ... ... : ... .. . ... ... : ... .. . ... ...
ROW FB : ... .. . ... ... ... : ... .. 8 ... ... ... : --- .. . ... : ... .. 0 ... : ... .. . ... ... : ... .. . ... ... : ... .. . ... ... : ... .. . ... ...
ROW FC : G#3 00 F P80 ... ... : G#3 00 8 ... ... ... : E-3 00 . ... : 7-# 00 F ... : ... .. . ... ... : A#2 01 6 ... ... : B-2 01 6 ... ... : C#3 01 A ... ...
ROW FD : ... .. E ... ... ... : ... .. B ... ... ... : ... .. . ... : ... .. C ... : ... .. . ... ... : ... .. . ... ... : ... .. . ... ... : ... .. 8 ... ...
ROW FE : ... .. D ... ... ... : ... .. 8 ... ... ... : ... .. . ... : ... .. 6 ... : ... .. . ... ... : ... .. 5 ... ... : ... .. 5 ... ... : ... .. 5 ... ...
ROW FF : ... .. A ... ... ... : ... .. 0 ... ... ... : ... .. . ... : ... .. 3 ... : ... .. . ... ... : ... .. 4 ... ... : ... .. 4 ... ... : ... .. . ... ...

PATTERN 1C
ROW 00 : ... .. . ... ... ... : G#3 00 5 P80 ... ... : ... .. . ... : ... .. 2 ... : ... .. . ... ... : ... .. . ... ... : ... .. . ... ... : ... .. . ... ...
ROW 01 : ... .. . ... ... ... : ... .. 8 ... ... ... : --- .. . ... : ... .. 0 ... : ... .. . ... ... : ... .. . ... ... : ... .. . ... ... : ... .. . ... ...
ROW 02 : ... .. . ... ... ... : G#2 00 8 ... ... ... : D#3 00 . ... : ... .. 8 ... : ... .. . ... ... : ... .. . ... ... : ... .. . ... ... : D#3 01 A ... ...
ROW 03 : ... .. . ... ... ... : ... .. B ... ... ... : ... .. . ... : ... .. 6 ... : ... .. . ... ... : ... .. 3 ... ... : ... .. 3 ... ... : ... .. 8 ... ...
ROW 04 : ... .. . ... ... ... : ... .. 8 ... ... ... : ... .. . ... : ... .. 3 ... : ... .. . ... ... : ... .. . ... ... : ... .. . ... ... : ... .. 5 ... ...
ROW 05 : ... .. . ... ... ... : ... .. 0 ... ... ... : ... .. . ... : ... .. 1 ... : ... .. . ... ... : ... .. . ... ... : ... .. . ... ... : ... .. . ... ...
ROW 06 : ... .. . ... ... ... : G#2 00 5 P80 ... ... : ... .. . ... : ... .. . ... : ... .. . ... ... : ... .. . ... ... : ... .. . ... ... : ... .. . ... ...
ROW 07 : ... .. . ... ... ... : ... .. 8 ... ... ... : --- .. . ... : ... .. 0 ... : ... .. . ... ... : ... .. . ... ... : ... .. . ... ... : ... .. . ... ...
ROW 08 : ... .. 5 ... ... ... : C#3 00 8 ... ... ... : C#3 00 . ... : 4-# 00 F ... : ... .. . ... ... : ... .. . ... ... : ... .. . ... ... : B-2 01 A ... ...
ROW 09 : ... .. . ... ... ... : ... .. B ... ... ... : ... .. . ... : ... .. C ... : ... .. . ... ... : ... .. . ... ... : ... .. . ... ... : ... .. 8 ... ...
ROW 0A : ... .. . ... ... ... : ... .. 8 ... ... ... : ... .. . ... : ... .. 6 ... : ... .. . ... ... : ... .. . ... ... : ... .. . ... ... : ... .. 5 ... ...
ROW 0B : ... .. . ... ... ... : ... .. 0 ... ... ... : ... .. . ... : ... .. 3 ... : ... .. . ... ... : ... .. . ... ... : ... .. . ... ... : ... .. . ... ...
ROW 0C : ... .. . ... ... ... : C#3 00 5 P80 ... ... : ... .. . ... : ... .. 2 ... : ... .. . ... ... : ... .. . ... ... : ... .. . ... ... : ... .. . ... ...
ROW 0D : ... .. . ... ... ... : ... .. 8 ... ... ... : --- .. . ... : ... .. 0 ... : ... .. . ... ... : ... .. . ... ... : ... .. . ... ... : ... .. . ... ...
ROW 0E : C#4 00 F ... ... ... : E-3 00 8 ... ... ... : G#3 00 . ... : 9-# 00 8 ... : ... .. . ... ... : B-2 01 6 ... ... : E-3 01 6 ... ... : C#3 01 A ... ...
ROW 0F : ... .. E ... ... ... : ... .. B ... ... ... : ... .. . ... : ... .. 6 ... : ... .. . ... ... : ... .. . ... ... : ... .. . ... ... : ... .. 8 ... ...
ROW 10 : ... .. D ... ... ... : ... .. 8 ... ... ... : ... .. . ... : ... .. 3 ... : ... .. . ... ... : ... .. 5 ... ... : ... .. 5 ... ... : ... .. 5 ... ...
ROW 11 : ... .. A ... ... ... : ... .. 0 ... ... ... : ... .. . ... : ... .. 1 ... : ... .. . ... ... : ... .. 4 ... ... : ... .. 4 ... ... : ... .. . ... ...
ROW 12 : ... .. . ... ... ... : E-3 00 5 P80 ... ... : ... .. . ... : ... .. . ... : ... .. . ... ... : ... .. . ... ... : ... .. . ... ... : ... .. . ... ...
ROW 13 : ... .. . ... ... ... : ... .. 8 ... ... ... : --- .. . ... : ... .. 0 ... : ... .. . ... ... : ... .. . ... ... : ... .. . ... ... : ... .. . ... ...
ROW 14 : ... .. . ... ... ... : C#3 00 8 ... ... ... : E-3 00 . ... : 7-# 00 F ... : ... .. . ... ... : ... .. . ... ... : ... .. . ... ... : A#2 01 A ... ...
ROW 15 : ... .. . ... ... ... : ... .. B ... ... ... : ... .. . ... : ... .. C ... : ... .. . ... ... : ... .. 3 ... ... : ... .. 3 ... ... : ... .. 8 ... ...
ROW 16 : ... .. . ... ... ... : ... .. 8 ... ... ... : ... .. . ... : ... .. 6 ... : ... .. . ... ... : ... .. . ... ... : ... .. . ... ... : ... .. 5 ... ...
ROW 17 : ... .. . ... ... ... : ... .. 0 ... ... ... : ... .. . ... : ... .. 3 ... : ... .. . ... ... : ... .. . ... ... : ... .. . ... ... : ... .. . ... ...
ROW 18 : ... .. . ... ... ... : C#3 00 5 P80 ... ... : ... .. . ... : ... .. 2 ... : ... .. . ... ... : ... .. . ... ... : ... .. . ... ... : ... .. . ... ...
ROW 19 : ... .. . ... ... ... : ... .. 8 ... ... ... : --- .. . ... : ... .. 0 ... : ... .. . ... ... : ... .. . ... ... : ... .. . ... ... : ... .. . ... ...
ROW 1A : ... .. 1 ... ... ... : G#2 00 8 ... ... ... : C#3 00 . ... : 5-# 00 8 ... : ... .. . ... ... : ... .. . ... ... : ... .. . ... ... : B-2 01 A ... ...
ROW 1B : ... .. . ... ... ... : ... .. B ... ... ... : ... .. . ... : ... .. 6 ... : ... .. . ... ... : ... .. . ... ... : ... .. . ... ... : ... .. 8 ... ...
ROW 1C : ... .. . ... ... ... : ... .. 8 ... ... ... : ... .. . ... : ... .. 3 ... : ... .. . ... ... : ... .. . ... ... : ... .. . ... ... : ... .. 5 ... ...
ROW 1D : ... .. . ... ... ... : ... .. 0 ... ... ... : ... .. . ... : ... .. 1 ... : ... .. . ... ... : ... .. . ... ... : ... .. . ... ... : ... .. . ... ...
ROW 1E : ... .. . ... ... ... : G#2 00 5 P80 ... ... : ... .. . ... : ... .. . ... : ... .. . ... ... : ... .. . ... ... : ... .. . ... ... : ... .. . ... ...
ROW 1F : ... .. . ... ... ... : ... .. . ... ... ... : ... .. . ... : ... .. . ... : ... .. . ... ... : ... .. . ... ... : ... .. . ... ... : ... .. . ... ...
ROW 20 : ... .. . ... ... ... : ... .. . ... ... ... : ... .. . ... : ... .. . ... : ... .. . ... ... : ... .. . ... ... : ... .. . ... ... : ... .. . ... ...
ROW 21 : ... .. . ... ... ... : ... .. . ... ... ... : ... .. . ... : ... .. . ... : ... .. . ... ... : ... .. . ... ... : ... .. . ... ... : ... .. . ... ...
ROW 22 : ... .. . ... ... ... : ... .. . ... ... ... : ... .. . ... : ... .. . ... : ... .. . ... ... : ... .. . ... ... : ... .. . ... ... : ... .. . ... ...
ROW 23 : ... .. . ... ... ... : ... .. . ... ... ... : ... .. . ... : ... .. . ... : ... .. . ... ... : ... .. . ... ... : ... .. . ... ... : ... .. . ... ...
ROW 24 : ... .. . ... ... ... : ... .. . ... ... ... : ... .. . ... : ... .. . ... : ... .. . ... ... : ... .. . ... ... : ... .. . ... ... : ... .. . ... ...
ROW 25 : ... .. . ... ... ... : ... .. . ... ... ... : ... .. . ... : ... .. . ... : ... .. . ... ... : ... .. . ... ... : ... .. . ... ... : ... .. . ... ...
ROW 26 : ... .. . ... ... ... : ... .. . ... ... ... : ... .. . ... : ... .. . ... : ... .. . ... ... : ... .. . ... ... : ... .. . ... ... : ... .. . ... ...
ROW 27 : ... .. . ... ... ... : ... .. . ... ... ... : ... .. . ... : ... .. . ... : ... .. . ... ... : ... .. . ... ... : ... .. . ... ... : ... .. . ... ...
ROW 28 : ... .. . ... ... ... : ... .. . ... ... ... : ... .. . ... : ... .. . ... : ... .. . ... ... : ... .. . ... ... : ... .. . ... ... : ... .. . ... ...
ROW 29 : ... .. . ... ... ... : ... .. . ... ... ... : ... .. . ... : ... .. . ... : ... .. . ... ... : ... .. . ... ... : ... .. . ... ... : ... .. . ... ...
ROW 2A : ... .. . ... ... ... : ... .. . ... ... ... : ... .. . ... : ... .. . ... : ... .. . ... ... : ... .. . ... ... : ... .. . ... ... : ... .. . ... ...
ROW 2B : ... .. . ... ... ... : ... .. . ... ... ... : ... .. . ... : ... .. . ... : ... .. . ... ... : ... .. . ... ... : ... .. . ... ... : ... .. . ... ...
ROW 2C : ... .. . ... ... ... : ... .. . ... ... ... : ... .. . ... : ... .. . ... : ... .. . ... ... : ... .. . ... ... : ... .. . ... ... : ... .. . ... ...
ROW 2D : ... .. . ... ... ... : ... .. . ... ... ... : ... .. . ... : ... .. . ... : ... .. . ... ... : ... .. . ... ... : ... .. . ... ... : ... .. . ... ...
ROW 2E : ... .. . ... ... ... : ... .. . ... ... ... : ... .. . ... : ... .. . ... : ... .. . ... ... : ... .. . ... ... : ... .. . ... ... : ... .. . ... ...
ROW 2F : ... .. . ... ... ... : ... .. . ... ... ... : ... .. . ... : ... .. . ... : ... .. . ... ... : ... .. . ... ... : ... .. . ... ... : ... .. . ... ...
ROW 30 : ... .. . ... ... ... : ... .. . ... ... ... : ... .. . ... : ... .. . ... : ... .. . ... ... : ... .. . ... ... : ... .. . ... ... : ... .. . ... ...
ROW 31 : ... .. . ... ... ... : ... .. . ... ... ... : ... .. . ... : ... .. . ... : ... .. . ... ... : ... .. . ... ... : ... .. . ... ... : ... .. . ... ...
ROW 32 : ... .. . ... ... ... : ... .. . ... ... ... : ... .. . ... : ... .. . ... : ... .. . ... ... : ... .. . ... ... : ... .. . ... ... : ... .. . ... ...
ROW 33 : ... .. . ... ... ... : ... .. . ... ... ... : ... .. . ... : ... .. . ... : ... .. . ... ... : ... .. . ... ... : ... .. . ... ... : ... .. . ... ...
ROW 34 : ... .. . ... ... ... : ... .. . ... ... ... : ... .. . ... : ... .. . ... : ... .. . ... ... : ... .. . ... ... : ... .. . ... ... : ... .. . ... ...
ROW 35 : ... .. . ... ... ... : ... .. . ... ... ... : ... .. . ... : ... .. . ... : ... .. . ... ... : ... .. . ... ... : ... .. . ... ... : ... .. . ... ...
ROW 36 : ... .. . ... ... ... : ... .. . ... ... ... : ... .. . ... : ... .. . ... : ... .. . ... ... : ... .. . ... ... : ... .. . ... ... : ... .. . ... ...
ROW 37 : ... .. . ... ... ... : ... .. . ... ... ... : ... .. . ... : ... .. . ... : ... .. . ... ... : ... .. . ... ... : ... .. . ... ... : ... .. . ... ...
ROW 38 : ... .. . ... ... ... : ... .. . ... ... ... : ... .. . ... : ... .. . ... : ... .. . ... ... : ... .. . ... ... : ... .. . ... ... : ... .. . ... ...
ROW 39 : ... .. . ... ... ... : ... .. . ... ... ... : ... .. . ... : ... .. . ... : ... .. . ... ... : ... .. . ... ... : ... .. . ... ... : ... .. . ... ...
ROW 3A : ... .. . ... ... ... : ... .. . ... ... ... : ... .. . ... : ... .. . ... : ... .. . ... ... : ... .. . ... ... : ... .. . ... ... : ... .. . ... ...
ROW 3B : ... .. . ... ... ... : ... .. . ... ... ... : ... .. . ... : ... .. . ... : ... .. . ... ... : ... .. . ... ... : ... .. . ... ... : ... .. . ... ...
ROW 3C : ... .. . ... ... ... : ... .. . ... ... ... : ... .. . ... : ... .. . ... : ... .. . ... ... : ... .. . ... ... : ... .. . ... ... : ... .. . ... ...
ROW 3D : ... .. . ... ... ... : ... .. . ... ... ... : ... .. . ... : ... .. . ... : ... .. . ... ... : ... .. . ... ... : ... .. . ... ... : ... .. . ... ...
ROW 3E : ... .. . ... ... ... : ... .. . ... ... ... : ... .. . ... : ... .. . ... : ... .. . ... ... : ... .. . ... ... : ... .. . ... ... : ... .. . ... ...
ROW 3F : ... .. . ... ... ... : ... .. . ... ... ... : ... .. . ... : ... .. . ... : ... .. . ... ... : ... .. . ... ... : ... .. . ... ... : ... .. . ... ...
ROW 40 : ... .. . ... ... ... : ... .. . ... ... ... : ... .. . ... : ... .. . ... : ... .. . ... ... : ... .. . ... ... : ... .. . ... ... : ... .. . ... ...
ROW 41 : ... .. . ... ... ... : ... .. . ... ... ... : ... .. . ... : ... .. . ... : ... .. . ... ... : ... .. . ... ... : ... .. . ... ... : ... .. . ... ...
ROW 42 : ... .. . ... ... ... : ... .. . ... ... ... : ... .. . ... : ... .. . ... : ... .. . ... ... : ... .. . ... ... : ... .. . ... ... : ... .. . ... ...
ROW 43 : ... .. . ... ... ... : ... .. . ... ... ... : ... .. . ... : ... .. . ... : ... .. . ... ... : ... .. . ... ... : ... .. . ... ... : ... .. . ... ...
ROW 44 : ... .. . ... ... ... : ... .. . ... ... ... : ... .. . ... : ... .. . ... : ... .. . ... ... : ... .. . ... ... : ... .. . ... ... : ... .. . ... ...
ROW 45 : ... .. . ... ... ... : ... .. . ... ... ... : ... .. . ... : ... .. . ... : ... .. . ... ... : ... .. . ... ... : ... .. . ... ... : ... .. . ... ...
ROW 46 : ... .. . ... ... ... : ... .. . ... ... ... : ... .. . ... : ... .. . ... : ... .. . ... ... : ... .. . ... ... : ... .. . ... ... : ... .. . ... ...
ROW 47 : ... .. . ... ... ... : ... .. . ... ... ... : ... .. . ... : ... .. . ... : ... .. . ... ... : ... .. . ... ... : ... .. . ... ... : ... .. . ... ...
ROW 48 : ... .. . ... ... ... : ... .. . ... ... ... : ... .. . ... : ... .. . ... : ... .. . ... ... : ... .. . ... ... : ... .. . ... ... : ... .. . ... ...
ROW 49 : ... .. . ... ... ... : ... .. . ... ... ... : ... .. . ... : ... .. . ... : ... .. . ... ... : ... .. . ... ... : ... .. . ... ... : ... .. . ... ...
ROW 4A : ... .. . ... ... ... : ... .. . ... ... ... : ... .. . ... : ... .. . ... : ... .. . ... ... : ... .. . ... ... : ... .. . ... ... : ... .. . ... ...
ROW 4B : ... .. . ... ... ... : ... .. . ... ... ... : ... .. . ... : ... .. . ... : ... .. . ... ... : ... .. . ... ... : ... .. . ... ... : ... .. . ... ...
ROW 4C : ... .. . ... ... ... : ... .. . ... ... ... : ... .. . ... : ... .. . ... : ... .. . ... ... : ... .. . ... ... : ... .. . ... ... : ... .. . ... ...
ROW 4D : ... .. . ... ... ... : ... .. . ... ... ... : ... .. . ... : ... .. . ... : ... .. . ... ... : ... .. . ... ... : ... .. . ... ... : ... .. . ... ...
ROW 4E : ... .. . ... ... ... : ... .. . ... ... ... : ... .. . ... : ... .. . ... : ... .. . ... ... : ... .. . ... ... : ... .. . ... ... : ... .. . ... ...
ROW 4F : ... .. . ... ... ... : ... .. . ... ... ... : ... .. . ... : ... .. . ... : ... .. . ... ... : ... .. . ... ... : ... .. . ... ... : ... .. . ... ...
ROW 50 : ... .. . ... ... ... : ... .. . ... ... ... : ... .. . ... : ... .. . ... : ... .. . ... ... : ... .. . ... ... : ... .. . ... ... : ... .. . ... ...
ROW 51 : ... .. . ... ... ... : ... .. . ... ... ... : ... .. . ... : ... .. . ... : ... .. . ... ... : ... .. . ... ... : ... .. . ... ... : ... .. . ... ...
ROW 52 : ... .. . ... ... ... : ... .. . ... ... ... : ... .. . ... : ... .. . ... : ... .. . ... ... : ... .. . ... ... : ... .. . ... ... : ... .. . ... ...
ROW 53 : ... .. . ... ... ... : ... .. . ... ... ... : ... .. . ... : ... .. . ... : ... .. . ... ... : ... .. . ... ... : ... .. . ... ... : ... .. . ... ...
ROW 54 : ... .. . ... ... ... : ... .. . ... ... ... : ... .. . ... : ... .. . ... : ... .. . ... ... : ... .. . ... ... : ... .. . ... ... : ... .. . ... ...
ROW 55 : ... .. . ... ... ... : ... .. . ... ... ... : ... .. . ... : ... .. . ... : ... .. . ... ... : ... .. . ... ... : ... .. . ... ... : ... .. . ... ...
ROW 56 : ... .. . ... ... ... : ... .. . ... ... ... : ... .. . ... : ... .. . ... : ... .. . ... ... : ... .. . ... ... : ... .. . ... ... : ... .. . ... ...
ROW 57 : ... .. . ... ... ... : ... .. . ... ... ... : ... .. . ... : ... .. . ... : ... .. . ... ... : ... .. . ... ... : ... .. . ... ... : ... .. . ... ...
ROW 58 : ... .. . ... ... ... : ... .. . ... ... ... : ... .. . ... : ... .. . ... : ... .. . ... ... : ... .. . ... ... : ... .. . ... ... : ... .. . ... ...
ROW 59 : ... .. . ... ... ... : ... .. . ... ... ... : ... .. . ... : ... .. . ... : ... .. . ... ... : ... .. . ... ... : ... .. . ... ... : ... .. . ... ...
ROW 5A : ... .. . ... ... ... : ... .. . ... ... ... : ... .. . ... : ... .. . ... : ... .. . ... ... : ... .. . ... ... : ... .. . ... ... : ... .. . ... ...
ROW 5B : ... .. . ... ... ... : ... .. . ... ... ... : ... .. . ... : ... .. . ... : ... .. . ... ... : ... .. . ... ... : ... .. . ... ... : ... .. . ... ...
ROW 5C : ... .. . ... ... ... : ... .. . ... ... ... : ... .. . ... : ... .. . ... : ... .. . ... ... : ... .. . ... ... : ... .. . ... ... : ... .. . ... ...
ROW 5D : ... .. . ... ... ... : ... .. . ... ... ... : ... .. . ... : ... .. . ... : ... .. . ... ... : ... .. . ... ... : ... .. . ... ... : ... .. . ... ...
ROW 5E : ... .. . ... ... ... : ... .. . ... ... ... : ... .. . ... : ... .. . ... : ... .. . ... ... : ... .. . ... ... : ... .. . ... ... : ... .. . ... ...
ROW 5F : ... .. . ... ... ... : ... .. . ... ... ... : ... .. . ... : ... .. . ... : ... .. . ... ... : ... .. . ... ... : ... .. . ... ... : ... .. . ... ...
ROW 60 : ... .. . ... ... ... : ... .. . ... ... ... : ... .. . ... : ... .. . ... : ... .. . ... ... : ... .. . ... ... : ... .. . ... ... : ... .. . ... ...
ROW 61 : ... .. . ... ... ... : ... .. . ... ... ... : ... .. . ... : ... .. . ... : ... .. . ... ... : ... .. . ... ... : ... .. . ... ... : ... .. . ... ...
ROW 62 : ... .. . ... ... ... : ... .. . ... ... ... : ... .. . ... : ... .. . ... : ... .. . ... ... : ... .. . ... ... : ... .. . ... ... : ... .. . ... ...
ROW 63 : ... .. . ... ... ... : ... .. . ... ... ... : ... .. . ... : ... .. . ... : ... .. . ... ... : ... .. . ... ... : ... .. . ... ... : ... .. . ... ...
ROW 64 : ... .. . ... ... ... : ... .. . ... ... ... : ... .. . ... : ... .. . ... : ... .. . ... ... : ... .. . ... ... : ... .. . ... ... : ... .. . ... ...
ROW 65 : ... .. . ... ... ... : ... .. . ... ... ... : ... .. . ... : ... .. . ... : ... .. . ... ... : ... .. . ... ... : ... .. . ... ... : ... .. . ... ...
ROW 66 : ... .. . ... ... ... : ... .. . ... ... ... : ... .. . ... : ... .. . ... : ... .. . ... ... : ... .. . ... ... : ... .. . ... ... : ... .. . ... ...
ROW 67 : ... .. . ... ... ... : ... .. . ... ... ... : ... .. . ... : ... .. . ... : ... .. . ... ... : ... .. . ... ... : ... .. . ... ... : ... .. . ... ...
ROW 68 : ... .. . ... ... ... : ... .. . ... ... ... : ... .. . ... : ... .. . ... : ... .. . ... ... : ... .. . ... ... : ... .. . ... ... : ... .. . ... ...
ROW 69 : ... .. . ... ... ... : ... .. . ... ... ... : ... .. . ... : ... .. . ... : ... .. . ... ... : ... .. . ... ... : ... .. . ... ... : ... .. . ... ...
ROW 6A : ... .. . ... ... ... : ... .. . ... ... ... : ... .. . ... : ... .. . ... : ... .. . ... ... : ... .. . ... ... : ... .. . ... ... : ... .. . ... ...
ROW 6B : ... .. . ... ... ... : ... .. . ... ... ... : ... .. . ... : ... .. . ... : ... .. . ... ... : ... .. . ... ... : ... .. . ... ... : ... .. . ... ...
ROW 6C : ... .. . ... ... ... : ... .. . ... ... ... : ... .. . ... : ... .. . ... : ... .. . ... ... : ... .. . ... ... : ... .. . ... ... : ... .. . ... ...
ROW 6D : ... .. . ... ... ... : ... .. . ... ... ... : ... .. . ... : ... .. . ... : ... .. . ... ... : ... .. . ... ... : ... .. . ... ... : ... .. . ... ...
ROW 6E : ... .. . ... ... ... : ... .. . ... ... ... : ... .. . ... : ... .. . ... : ... .. . ... ... : ... .. . ... ... : ... .. . ... ... : ... .. . ... ...
ROW 6F : ... .. . ... ... ... : ... .. . ... ... ... : ... .. . ... : ... .. . ... : ... .. . ... ... : ... .. . ... ... : ... .. . ... ... : ... .. . ... ...
ROW 70 : ... .. . ... ... ... : ... .. . ... ... ... : ... .. . ... : ... .. . ... : ... .. . ... ... : ... .. . ... ... : ... .. . ... ... : ... .. . ... ...
ROW 71 : ... .. . ... ... ... : ... .. . ... ... ... : ... .. . ... : ... .. . ... : ... .. . ... ... : ... .. . ... ... : ... .. . ... ... : ... .. . ... ...
ROW 72 : ... .. . ... ... ... : ... .. . ... ... ... : ... .. . ... : ... .. . ... : ... .. . ... ... : ... .. . ... ... : ... .. . ... ... : ... .. . ... ...
ROW 73 : ... .. . ... ... ... : ... .. . ... ... ... : ... .. . ... : ... .. . ... : ... .. . ... ... : ... .. . ... ... : ... .. . ... ... : ... .. . ... ...
ROW 74 : ... .. . ... ... ... : ... .. . ... ... ... : ... .. . ... : ... .. . ... : ... .. . ... ... : ... .. . ... ... : ... .. . ... ... : ... .. . ... ...
ROW 75 : ... .. . ... ... ... : ... .. . ... ... ... : ... .. . ... : ... .. . ... : ... .. . ... ... : ... .. . ... ... : ... .. . ... ... : ... .. . ... ...
ROW 76 : ... .. . ... ... ... : ... .. . ... ... ... : ... .. . ... : ... .. . ... : ... .. . ... ... : ... .. . ... ... : ... .. . ... ... : ... .. . ... ...
ROW 77 : ... .. . ... ... ... : ... .. . ... ... ... : ... .. . ... : ... .. . ... : ... .. . ... ... : ... .. . ... ... : ... .. . ... ... : ... .. . ... ...
ROW 78 : ... .. . ... ... ... : ... .. . ... ... ... : ... .. . ... : ... .. . ... : ... .. . ... ... : ... .. . ... ... : ... .. . ... ... : ... .. . ... ...
ROW 79 : ... .. . ... ... ... : ... .. . ... ... ... : ... .. . ... : ... .. . ... : ... .. . ... ... : ... .. . ... ... : ... .. . ... ... : ... .. . ... ...
ROW 7A : ... .. . ... ... ... : ... .. . ... ... ... : ... .. . ... : ... .. . ... : ... .. . ... ... : ... .. . ... ... : ... .. . ... ... : ... .. . ... ...
ROW 7B : ... .. . ... ... ... : ... .. . ... ... ... : ... .. . ... : ... .. . ... : ... .. . ... ... : ... .. . ... ... : ... .. . ... ... : ... .. . ... ...
ROW 7C : ... .. . ... ... ... : ... .. . ... ... ... : ... .. . ... : ... .. . ... : ... .. . ... ... : ... .. . ... ... : ... .. . ... ... : ... .. . ... ...
ROW 7D : ... .. . ... ... ... : ... .. . ... ... ... : ... .. . ... : ... .. . ... : ... .. . ... ... : ... .. . ... ... : ... .. . ... ... : ... .. . ... ...
ROW 7E : ... .. . ... ... ... : ... .. . ... ... ... : ... .. . ... : ... .. . ... : ... .. . ... ... : ... .. . ... ... : ... .. . ... ... : ... .. . ... ...
ROW 7F : ... .. . ... ... ... : ... .. . ... ... ... : ... .. . ... : ... .. . ... : ... .. . ... ... : ... .. . ... ... : ... .. . ... ... : ... .. . ... ...
ROW 80 : ... .. . ... ... ... : ... .. . ... ... ... : ... .. . ... : ... .. . ... : ... .. . ... ... : ... .. . ... ... : ... .. . ... ... : ... .. . ... ...
ROW 81 : ... .. . ... ... ... : ... .. . ... ... ... : ... .. . ... : ... .. . ... : ... .. . ... ... : ... .. . ... ... : ... .. . ... ... : ... .. . ... ...
ROW 82 : ... .. . ... ... ... : ... .. . ... ... ... : ... .. . ... : ... .. . ... : ... .. . ... ... : ... .. . ... ... : ... .. . ... ... : ... .. . ... ...
ROW 83 : ... .. . ... ... ... : ... .. . ... ... ... : ... .. . ... : ... .. . ... : ... .. . ... ... : ... .. . ... ... : ... .. . ... ... : ... .. . ... ...
ROW 84 : ... .. . ... ... ... : ... .. . ... ... ... : ... .. . ... : ... .. . ... : ... .. . ... ... : ... .. . ... ... : ... .. . ... ... : ... .. . ... ...
ROW 85 : ... .. . ... ... ... : ... .. . ... ... ... : ... .. . ... : ... .. . ... : ... .. . ... ... : ... .. . ... ... : ... .. . ... ... : ... .. . ... ...
ROW 86 : ... .. . ... ... ... : ... .. . ... ... ... : ... .. . ... : ... .. . ... : ... .. . ... ... : ... .. . ... ... : ... .. . ... ... : ... .. . ... ...
ROW 87 : ... .. . ... ... ... : ... .. . ... ... ... : ... .. . ... : ... .. . ... : ... .. . ... ... : ... .. . ... ... : ... .. . ... ... : ... .. . ... ...
ROW 88 : ... .. . ... ... ... : ... .. . ... ... ... : ... .. . ... : ... .. . ... : ... .. . ... ... : ... .. . ... ... : ... .. . ... ... : ... .. . ... ...
ROW 89 : ... .. . ... ... ... : ... .. . ... ... ... : ... .. . ... : ... .. . ... : ... .. . ... ... : ... .. . ... ... : ... .. . ... ... : ... .. . ... ...
ROW 8A : ... .. . ... ... ... : ... .. . ... ... ... : ... .. . ... : ... .. . ... : ... .. . ... ... : ... .. . ... ... : ... .. . ... ... : ... .. . ... ...
ROW 8B : ... .. . ... ... ... : ... .. . ... ... ... : ... .. . ... : ... .. . ... : ... .. . ... ... : ... .. . ... ... : ... .. . ... ... : ... .. . ... ...
ROW 8C : ... .. . ... ... ... : ... .. . ... ... ... : ... .. . ... : ... .. . ... : ... .. . ... ... : ... .. . ... ... : ... .. . ... ... : ... .. . ... ...
ROW 8D : ... .. . ... ... ... : ... .. . ... ... ... : ... .. . ... : ... .. . ... : ... .. . ... ... : ... .. . ... ... : ... .. . ... ... : ... .. . ... ...
ROW 8E : ... .. . ... ... ... : ... .. . ... ... ... : ... .. . ... : ... .. . ... : ... .. . ... ... : ... .. . ... ... : ... .. . ... ... : ... .. . ... ...
ROW 8F : ... .. . ... ... ... : ... .. . ... ... ... : ... .. . ... : ... .. . ... : ... .. . ... ... : ... .. . ... ... : ... .. . ... ... : ... .. . ... ...
ROW 90 : ... .. . ... ... ... : ... .. . ... ... ... : ... .. . ... : ... .. . ... : ... .. . ... ... : ... .. . ... ... : ... .. . ... ... : ... .. . ... ...
ROW 91 : ... .. . ... ... ... : ... .. . ... ... ... : ... .. . ... : ... .. . ... : ... .. . ... ... : ... .. . ... ... : ... .. . ... ... : ... .. . ... ...
ROW 92 : ... .. . ... ... ... : ... .. . ... ... ... : ... .. . ... : ... .. . ... : ... .. . ... ... : ... .. . ... ... : ... .. . ... ... : ... .. . ... ...
ROW 93 : ... .. . ... ... ... : ... .. . ... ... ... : ... .. . ... : ... .. . ... : ... .. . ... ... : ... .. . ... ... : ... .. . ... ... : ... .. . ... ...
ROW 94 : ... .. . ... ... ... : ... .. . ... ... ... : ... .. . ... : ... .. . ... : ... .. . ... ... : ... .. . ... ... : ... .. . ... ... : ... .. . ... ...
ROW 95 : ... .. . ... ... ... : ... .. . ... ... ... : ... .. . ... : ... .. . ... : ... .. . ... ... : ... .. . ... ... : ... .. . ... ... : ... .. . ... ...
ROW 96 : ... .. . ... ... ... : ... .. . ... ... ... : ... .. . ... : ... .. . ... : ... .. . ... ... : ... .. . ... ... : ... .. . ... ... : ... .. . ... ...
ROW 97 : ... .. . ... ... ... : ... .. . ... ... ... : ... .. . ... : ... .. . ... : ... .. . ... ... : ... .. . ... ... : ... .. . ... ... : ... .. . ... ...
ROW 98 : ... .. . ... ... ... : ... .. . ... ... ... : ... .. . ... : ... .. . ... : ... .. . ... ... : ... .. . ... ... : ... .. . ... ... : ... .. . ... ...
ROW 99 : ... .. . ... ... ... : ... .. . ... ... ... : ... .. . ... : ... .. . ... : ... .. . ... ... : ... .. . ... ... : ... .. . ... ... : ... .. . ... ...
ROW 9A : ... .. . ... ... ... : ... .. . ... ... ... : ... .. . ... : ... .. . ... : ... .. . ... ... : ... .. . ... ... : ... .. . ... ... : ... .. . ... ...
ROW 9B : ... .. . ... ... ... : ... .. . ... ... ... : ... .. . ... : ... .. . ... : ... .. . ... ... : ... .. . ... ... : ... .. . ... ... : ... .. . ... ...
ROW 9C : ... .. . ... ... ... : ... .. . ... ... ... : ... .. . ... : ... .. . ... : ... .. . ... ... : ... .. . ... ... : ... .. . ... ... : ... .. . ... ...
ROW 9D : ... .. . ... ... ... : ... .. . ... ... ... : ... .. . ... : ... .. . ... : ... .. . ... ... : ... .. . ... ... : ... .. . ... ... : ... .. . ... ...
ROW 9E : ... .. . ... ... ... : ... .. . ... ... ... : ... .. . ... : ... .. . ... : ... .. . ... ... : ... .. . ... ... : ... .. . ... ... : ... .. . ... ...
ROW 9F : ... .. . ... ... ... : ... .. . ... ... ... : ... .. . ... : ... .. . ... : ... .. . ... ... : ... .. . ... ... : ... .. . ... ... : ... .. . ... ...
ROW A0 : ... .. . ... ... ... : ... .. . ... ... ... : ... .. . ... : ... .. . ... : ... .. . ... ... : ... .. . ... ... : ... .. . ... ... : ... .. . ... ...
ROW A1 : ... .. . ... ... ... : ... .. . ... ... ... : ... .. . ... : ... .. . ... : ... .. . ... ... : ... .. . ... ... : ... .. . ... ... : ... .. . ... ...
ROW A2 : ... .. . ... ... ... : ... .. . ... ... ... : ... .. . ... : ... .. . ... : ... .. . ... ... : ... .. . ... ... : ... .. . ... ... : ... .. . ... ...
ROW A3 : ... .. . ... ... ... : ... .. . ... ... ... : ... .. . ... : ... .. . ... : ... .. . ... ... : ... .. . ... ... : ... .. . ... ... : ... .. . ... ...
ROW A4 : ... .. . ... ... ... : ... .. . ... ... ... : ... .. . ... : ... .. . ... : ... .. . ... ... : ... .. . ... ... : ... .. . ... ... : ... .. . ... ...
ROW A5 : ... .. . ... ... ... : ... .. . ... ... ... : ... .. . ... : ... .. . ... : ... .. . ... ... : ... .. . ... ... : ... .. . ... ... : ... .. . ... ...
ROW A6 : ... .. . ... ... ... : ... .. . ... ... ... : ... .. . ... : ... .. . ... : ... .. . ... ... : ... .. . ... ... : ... .. . ... ... : ... .. . ... ...
ROW A7 : ... .. . ... ... ... : ... .. . ... ... ... : ... .. . ... : ... .. . ... : ... .. . ... ... : ... .. . ... ... : ... .. . ... ... : ... .. . ... ...
ROW A8 : ... .. . ... ... ... : ... .. . ... ... ... : ... .. . ... : ... .. . ... : ... .. . ... ... : ... .. . ... ... : ... .. . ... ... : ... .. . ... ...
ROW A9 : ... .. . ... ... ... : ... .. . ... ... ... : ... .. . ... : ... .. . ... : ... .. . ... ... : ... .. . ... ... : ... .. . ... ... : ... .. . ... ...
ROW AA : ... .. . ... ... ... : ... .. . ... ... ... : ... .. . ... : ... .. . ... : ... .. . ... ... : ... .. . ... ... : ... .. . ... ... : ... .. . ... ...
ROW AB : ... .. . ... ... ... : ... .. . ... ... ... : ... .. . ... : ... .. . ... : ... .. . ... ... : ... .. . ... ... : ... .. . ... ... : ... .. . ... ...
ROW AC : ... .. . ... ... ... : ... .. . ... ... ... : ... .. . ... : ... .. . ... : ... .. . ... ... : ... .. . ... ... : ... .. . ... ... : ... .. . ... ...
ROW AD : ... .. . ... ... ... : ... .. . ... ... ... : ... .. . ... : ... .. . ... : ... .. . ... ... : ... .. . ... ... : ... .. . ... ... : ... .. . ... ...
ROW AE : ... .. . ... ... ... : ... .. . ... ... ... : ... .. . ... : ... .. . ... : ... .. . ... ... : ... .. . ... ... : ... .. . ... ... : ... .. . ... ...
ROW AF : ... .. . ... ... ... : ... .. . ... ... ... : ... .. . ... : ... .. . ... : ... .. . ... ... : ... .. . ... ... : ... .. . ... ... : ... .. . ... ...
ROW B0 : ... .. . ... ... ... : ... .. . ... ... ... : ... .. . ... : ... .. . ... : ... .. . ... ... : ... .. . ... ... : ... .. . ... ... : ... .. . ... ...
ROW B1 : ... .. . ... ... ... : ... .. . ... ... ... : ... .. . ... : ... .. . ... : ... .. . ... ... : ... .. . ... ... : ... .. . ... ... : ... .. . ... ...
ROW B2 : ... .. . ... ... ... : ... .. . ... ... ... : ... .. . ... : ... .. . ... : ... .. . ... ... : ... .. . ... ... : ... .. . ... ... : ... .. . ... ...
ROW B3 : ... .. . ... ... ... : ... .. . ... ... ... : ... .. . ... : ... .. . ... : ... .. . ... ... : ... .. . ... ... : ... .. . ... ... : ... .. . ... ...
ROW B4 : ... .. . ... ... ... : ... .. . ... ... ... : ... .. . ... : ... .. . ... : ... .. . ... ... : ... .. . ... ... : ... .. . ... ... : ... .. . ... ...
ROW B5 : ... .. . ... ... ... : ... .. . ... ... ... : ... .. . ... : ... .. . ... : ... .. . ... ... : ... .. . ... ... : ... .. . ... ... : ... .. . ... ...
ROW B6 : ... .. . ... ... ... : ... .. . ... ... ... : ... .. . ... : ... .. . ... : ... .. . ... ... : ... .. . ... ... : ... .. . ... ... : ... .. . ... ...
ROW B7 : ... .. . ... ... ... : ... .. . ... ... ... : ... .. . ... : ... .. . ... : ... .. . ... ... : ... .. . ... ... : ... .. . ... ... : ... .. . ... ...
ROW B8 : ... .. . ... ... ... : ... .. . ... ... ... : ... .. . ... : ... .. . ... : ... .. . ... ... : ... .. . ... ... : ... .. . ... ... : ... .. . ... ...
ROW B9 : ... .. . ... ... ... : ... .. . ... ... ... : ... .. . ... : ... .. . ... : ... .. . ... ... : ... .. . ... ... : ... .. . ... ... : ... .. . ... ...
ROW BA : ... .. . ... ... ... : ... .. . ... ... ... : ... .. . ... : ... .. . ... : ... .. . ... ... : ... .. . ... ... : ... .. . ... ... : ... .. . ... ...
ROW BB : ... .. . ... ... ... : ... .. . ... ... ... : ... .. . ... : ... .. . ... : ... .. . ... ... : ... .. . ... ... : ... .. . ... ... : ... .. . ... ...
ROW BC : ... .. . ... ... ... : ... .. . ... ... ... : ... .. . ... : ... .. . ... : ... .. . ... ... : ... .. . ... ... : ... .. . ... ... : ... .. . ... ...
ROW BD : ... .. . ... ... ... : ... .. . ... ... ... : ... .. . ... : ... .. . ... : ... .. . ... ... : ... .. . ... ... : ... .. . ... ... : ... .. . ... ...
ROW BE : ... .. . ... ... ... : ... .. . ... ... ... : ... .. . ... : ... .. . ... : ... .. . ... ... : ... .. . ... ... : ... .. . ... ... : ... .. . ... ...
ROW BF : ... .. . ... ... ... : ... .. . ... ... ... : ... .. . ... : ... .. . ... : ... .. . ... ... : ... .. . ... ... : ... .. . ... ... : ... .. . ... ...
ROW C0 : ... .. . ... ... ... : ... .. . ... ... ... : ... .. . ... : ... .. . ... : ... .. . ... ... : ... .. . ... ... : ... .. . ... ... : ... .. . ... ...
ROW C1 : ... .. . ... ... ... : ... .. . ... ... ... : ... .. . ... : ... .. . ... : ... .. . ... ... : ... .. . ... ... : ... .. . ... ... : ... .. . ... ...
ROW C2 : ... .. . ... ... ... : ... .. . ... ... ... : ... .. . ... : ... .. . ... : ... .. . ... ... : ... .. . ... ... : ... .. . ... ... : ... .. . ... ...
ROW C3 : ... .. . ... ... ... : ... .. . ... ... ... : ... .. . ... : ... .. . ... : ... .. . ... ... : ... .. . ... ... : ... .. . ... ... : ... .. . ... ...
ROW C4 : ... .. . ... ... ... : ... .. . ... ... ... : ... .. . ... : ... .. . ... : ... .. . ... ... : ... .. . ... ... : ... .. . ... ... : ... .. . ... ...
ROW C5 : ... .. . ... ... ... : ... .. . ... ... ... : ... .. . ... : ... .. . ... : ... .. . ... ... : ... .. . ... ... : ... .. . ... ... : ... .. . ... ...
ROW C6 : ... .. . ... ... ... : ... .. . ... ... ... : ... .. . ... : ... .. . ... : ... .. . ... ... : ... .. . ... ... : ... .. . ... ... : ... .. . ... ...
ROW C7 : ... .. . ... ... ... : ... .. . ... ... ... : ... .. . ... : ... .. . ... : ... .. . ... ... : ... .. . ... ... : ... .. . ... ... : ... .. . ... ...
ROW C8 : ... .. . ... ... ... : ... .. . ... ... ... : ... .. . ... : ... .. . ... : ... .. . ... ... : ... .. . ... ... : ... .. . ... ... : ... .. . ... ...
ROW C9 : ... .. . ... ... ... : ... .. . ... ... ... : ... .. . ... : ... .. . ... : ... .. . ... ... : ... .. . ... ... : ... .. . ... ... : ... .. . ... ...
ROW CA : ... .. . ... ... ... : ... .. . ... ... ... : ... .. . ... : ... .. . ... : ... .. . ... ... : ... .. . ... ... : ... .. . ... ... : ... .. . ... ...
ROW CB : ... .. . ... ... ... : ... .. . ... ... ... : ... .. . ... : ... .. . ... : ... .. . ... ... : ... .. . ... ... : ... .. . ... ... : ... .. . ... ...
ROW CC : ... .. . ... ... ... : ... .. . ... ... ... : ... .. . ... : ... .. . ... : ... .. . ... ... : ... .. . ... ... : ... .. . ... ... : ... .. . ... ...
ROW CD : ... .. . ... ... ... : ... .. . ... ... ... : ... .. . ... : ... .. . ... : ... .. . ... ... : ... .. . ... ... : ... .. . ... ... : ... .. . ... ...
ROW CE : ... .. . ... ... ... : ... .. . ... ... ... : ... .. . ... : ... .. . ... : ... .. . ... ... : ... .. . ... ... : ... .. . ... ... : ... .. . ... ...
ROW CF : ... .. . ... ... ... : ... .. . ... ... ... : ... .. . ... : ... .. . ... : ... .. . ... ... : ... .. . ... ... : ... .. . ... ... : ... .. . ... ...
ROW D0 : ... .. . ... ... ... : ... .. . ... ... ... : ... .. . ... : ... .. . ... : ... .. . ... ... : ... .. . ... ... : ... .. . ... ... : ... .. . ... ...
ROW D1 : ... .. . ... ... ... : ... .. . ... ... ... : ... .. . ... : ... .. . ... : ... .. . ... ... : ... .. . ... ... : ... .. . ... ... : ... .. . ... ...
ROW D2 : ... .. . ... ... ... : ... .. . ... ... ... : ... .. . ... : ... .. . ... : ... .. . ... ... : ... .. . ... ... : ... .. . ... ... : ... .. . ... ...
ROW D3 : ... .. . ... ... ... : ... .. . ... ... ... : ... .. . ... : ... .. . ... : ... .. . ... ... : ... .. . ... ... : ... .. . ... ... : ... .. . ... ...
ROW D4 : ... .. . ... ... ... : ... .. . ... ... ... : ... .. . ... : ... .. . ... : ... .. . ... ... : ... .. . ... ... : ... .. . ... ... : ... .. . ... ...
ROW D5 : ... .. . ... ... ... : ... .. . ... ... ... : ... .. . ... : ... .. . ... : ... .. . ... ... : ... .. . ... ... : ... .. . ... ... : ... .. . ... ...
ROW D6 : ... .. . ... ... ... : ... .. . ... ... ... : ... .. . ... : ... .. . ... : ... .. . ... ... : ... .. . ... ... : ... .. . ... ... : ... .. . ... ...
ROW D7 : ... .. . ... ... ... : ... .. . ... ... ... : ... .. . ... : ... .. . ... : ... .. . ... ... : ... .. . ... ... : ... .. . ... ... : ... .. . ... ...
ROW D8 : ... .. . ... ... ... : ... .. . ... ... ... : ... .. . ... : ... .. . ... : ... .. . ... ... : ... .. . ... ... : ... .. . ... ... : ... .. . ... ...
ROW D9 : ... .. . ... ... ... : ... .. . ... ... ... : ... .. . ... : ... .. . ... : ... .. . ... ... : ... .. . ... ... : ... .. . ... ... : ... .. . ... ...
ROW DA : ... .. . ... ... ... : ... .. . ... ... ... : ... .. . ... : ... .. . ... : ... .. . ... ... : ... .. . ... ... : ... .. . ... ... : ... .. . ... ...
ROW DB : ... .. . ... ... ... : ... .. . ... ... ... : ... .. . ... : ... .. . ... : ... .. . ... ... : ... .. . ... ... : ... .. . ... ... : ... .. . ... ...
ROW DC : ... .. . ... ... ... : ... .. . ... ... ... : ... .. . ... : ... .. . ... : ... .. . ... ... : ... .. . ... ... : ... .. . ... ... : ... .. . ... ...
ROW DD : ... .. . ... ... ... : ... .. . ... ... ... : ... .. . ... : ... .. . ... : ... .. . ... ... : ... .. . ... ... : ... .. . ... ... : ... .. . ... ...
ROW DE : ... .. . ... ... ... : ... .. . ... ... ... : ... .. . ... : ... .. . ... : ... .. . ... ... : ... .. . ... ... : ... .. . ... ... : ... .. . ... ...
ROW DF : ... .. . ... ... ... : ... .. . ... ... ... : ... .. . ... : ... .. . ... : ... .. . ... ... : ... .. . ... ... : ... .. . ... ... : ... .. . ... ...
ROW E0 : ... .. . ... ... ... : ... .. . ... ... ... : ... .. . ... : ... .. . ... : ... .. . ... ... : ... .. . ... ... : ... .. . ... ... : ... .. . ... ...
ROW E1 : ... .. . ... ... ... : ... .. . ... ... ... : ... .. . ... : ... .. . ... : ... .. . ... ... : ... .. . ... ... : ... .. . ... ... : ... .. . ... ...
ROW E2 : ... .. . ... ... ... : ... .. . ... ... ... : ... .. . ... : ... .. . ... : ... .. . ... ... : ... .. . ... ... : ... .. . ... ... : ... .. . ... ...
ROW E3 : ... .. . ... ... ... : ... .. . ... ... ... : ... .. . ... : ... .. . ... : ... .. . ... ... : ... .. . ... ... : ... .. . ... ... : ... .. . ... ...
ROW E4 : ... .. . ... ... ... : ... .. . ... ... ... : ... .. . ... : ... .. . ... : ... .. . ... ... : ... .. . ... ... : ... .. . ... ... : ... .. . ... ...
ROW E5 : ... .. . ... ... ... : ... .. . ... ... ... : ... .. . ... : ... .. . ... : ... .. . ... ... : ... .. . ... ... : ... .. . ... ... : ... .. . ... ...
ROW E6 : ... .. . ... ... ... : ... .. . ... ... ... : ... .. . ... : ... .. . ... : ... .. . ... ... : ... .. . ... ... : ... .. . ... ... : ... .. . ... ...
ROW E7 : ... .. . ... ... ... : ... .. . ... ... ... : ... .. . ... : ... .. . ... : ... .. . ... ... : ... .. . ... ... : ... .. . ... ... : ... .. . ... ...
ROW E8 : ... .. . ... ... ... : ... .. . ... ... ... : ... .. . ... : ... .. . ... : ... .. . ... ... : ... .. . ... ... : ... .. . ... ... : ... .. . ... ...
ROW E9 : ... .. . ... ... ... : ... .. . ... ... ... : ... .. . ... : ... .. . ... : ... .. . ... ... : ... .. . ... ... : ... .. . ... ... : ... .. . ... ...
ROW EA : ... .. . ... ... ... : ... .. . ... ... ... : ... .. . ... : ... .. . ... : ... .. . ... ... : ... .. . ... ... : ... .. . ... ... : ... .. . ... ...
ROW EB : ... .. . ... ... ... : ... .. . ... ... ... : ... .. . ... : ... .. . ... : ... .. . ... ... : ... .. . ... ... : ... .. . ... ... : ... .. . ... ...
ROW EC : ... .. . ... ... ... : ... .. . ... ... ... : ... .. . ... : ... .. . ... : ... .. . ... ... : ... .. . ... ... : ... .. . ... ... : ... .. . ... ...
ROW ED : ... .. . ... ... ... : ... .. . ... ... ... : ... .. . ... : ... .. . ... : ... .. . ... ... : ... .. . ... ... : ... .. . ... ... : ... .. . ... ...
ROW EE : ... .. . ... ... ... : ... .. . ... ... ... : ... .. . ... : ... .. . ... : ... .. . ... ... : ... .. . ... ... : ... .. . ... ... : ... .. . ... ...
ROW EF : ... .. . ... ... ... : ... .. . ... ... ... : ... .. . ... : ... .. . ... : ... .. . ... ... : ... .. . ... ... : ... .. . ... ... : ... .. . ... ...
ROW F0 : ... .. . ... ... ... : ... .. . ... ... ... : ... .. . ... : ... .. . ... : ... .. . ... ... : ... .. . ... ... : ... .. . ... ... : ... .. . ... ...
ROW F1 : ... .. . ... ... ... : ... .. . ... ... ... : ... .. . ... : ... .. . ... : ... .. . ... ... : ... .. . ... ... : ... .. . ... ... : ... .. . ... ...
ROW F2 : ... .. . ... ... ... : ... .. . ... ... ... : ... .. . ... : ... .. . ... : ... .. . ... ... : ... .. . ... ... : ... .. . ... ... : ... .. . ... ...
ROW F3 : ... .. . ... ... ... : ... .. . ... ... ... : ... .. . ... : ... .. . ... : ... .. . ... ... : ... .. . ... ... : ... .. . ... ... : ... .. . ... ...
ROW F4 : ... .. . ... ... ... : ... .. . ... ... ... : ... .. . ... : ... .. . ... : ... .. . ... ... : ... .. . ... ... : ... .. . ... ... : ... .. . ... ...
ROW F5 : ... .. . ... ... ... : ... .. . ... ... ... : ... .. . ... : ... .. . ... : ... .. . ... ... : ... .. . ... ... : ... .. . ... ... : ... .. . ... ...
ROW F6 : ... .. . ... ... ... : ... .. . ... ... ... : ... .. . ... : ... .. . ... : ... .. . ... ... : ... .. . ... ... : ... .. . ... ... : ... .. . ... ...
ROW F7 : ... .. . ... ... ... : ... .. . ... ... ... : ... .. . ... : ... .. . ... : ... .. . ... ... : ... .. . ... ... : ... .. . ... ... : ... .. . ... ...
ROW F8 : ... .. . ... ... ... : ... .. . ... ... ... : ... .. . ... : ... .. . ... : ... .. . ... ... : ... .. . ... ... : ... .. . ... ... : ... .. . ... ...
ROW F9 : ... .. . ... ... ... : ... .. . ... ... ... : ... .. . ... : ... .. . ... : ... .. . ... ... : ... .. . ... ... : ... .. . ... ... : ... .. . ... ...
ROW FA : ... .. . ... ... ... : ... .. . ... ... ... : ... .. . ... : ... .. . ... : ... .. . ... ... : ... .. . ... ... : ... .. . ... ... : ... .. . ... ...
ROW FB : ... .. . ... ... ... : ... .. . ... ... ... : ... .. . ... : ... .. . ... : ... .. . ... ... : ... .. . ... ... : ... .. . ... ... : ... .. . ... ...
ROW FC : ... .. . ... ... ... : ... .. . ... ... ... : ... .. . ... : ... .. . ... : ... .. . ... ... : ... .. . ... ... : ... .. . ... ... : ... .. . ... ...
ROW FD : ... .. . ... ... ... : ... .. . ... ... ... : ... .. . ... : ... .. . ... : ... .. . ... ... : ... .. . ... ... : ... .. . ... ... : ... .. . ... ...
ROW FE : ... .. . ... ... ... : ... .. . ... ... ... : ... .. . ... : ... .. . ... : ... .. . ... ... : ... .. . ... ... : ... .. . ... ... : ... .. . ... ...
ROW FF : ... .. . ... ... ... : ... .. . ... ... ... : ... .. . ... : ... .. . ... : ... .. . ... ... : ... .. . ... ... : ... .. . ... ... : ... .. . ... ...

# End of export
