# FamiTracker text export 0.4.2

# Song information
TITLE           "Shovel Knight OST"
AUTHOR          "Jake Kaufman"
COPYRIGHT       ""

# Song comment
COMMENT ""

# Global settings
MACHINE         0
FRAMERATE       0
EXPANSION       1
VIBRATO         1
SPLIT           21

# Macros

# DPCM samples

# Instruments
INST2A03   0    -1  -1  -1  -1  -1 "blank"
INSTVRC6   1    -1  -1  -1  -1  -1 "blank"

# Tracks

TRACK 256   1 150 "New song"
COLUMNS : 3 3 1 1 2 2 2 2

ORDER 00 : 00 00 00 00 00 00 00 00
ORDER 01 : 01 01 01 01 01 01 01 01
ORDER 02 : 02 02 02 02 02 02 02 02
ORDER 03 : 03 03 03 03 03 03 03 03
ORDER 04 : 04 04 04 04 04 04 04 04
ORDER 05 : 05 05 05 05 05 05 05 05
ORDER 06 : 06 06 06 06 06 06 06 06
ORDER 07 : 07 07 07 07 07 07 07 07
ORDER 08 : 08 08 08 08 08 08 08 08
ORDER 09 : 09 09 09 09 09 09 09 09
ORDER 0A : 0A 0A 0A 0A 0A 0A 0A 0A
ORDER 0B : 0B 0B 0B 0B 0B 0B 0B 0B
ORDER 0C : 0C 0C 0C 0C 0C 0C 0C 0C
ORDER 0D : 0D 0D 0D 0D 0D 0D 0D 0D
ORDER 0E : 0E 0E 0E 0E 0E 0E 0E 0E
ORDER 0F : 0F 0F 0F 0F 0F 0F 0F 0F
ORDER 10 : 10 10 10 10 10 10 10 10
ORDER 11 : 11 11 11 11 11 11 11 11
ORDER 12 : 12 12 12 12 12 12 12 12
ORDER 13 : 13 13 13 13 13 13 13 13
ORDER 14 : 14 14 14 14 14 14 14 14
ORDER 15 : 15 15 15 15 15 15 15 15
ORDER 16 : 16 16 16 16 16 16 16 16
ORDER 17 : 17 17 17 17 17 17 17 17
ORDER 18 : 18 18 18 18 18 18 18 18
ORDER 19 : 19 19 19 19 19 19 19 19
ORDER 1A : 1A 1A 1A 1A 1A 1A 1A 1A
ORDER 1B : 1B 1B 1B 1B 1B 1B 1B 1B
ORDER 1C : 1C 1C 1C 1C 1C 1C 1C 1C

PATTERN 00
ROW 00 : F-2 00 F P80 V00 ... : F-2 00 F P80 V00 ... : E-5 00 . P80 : C-# 00 E V00 : === 00 . Z00 ... : G#3 01 9 P80 V05 : C-4 01 9 P80 V05 : F-1 01 F P80 V00
ROW 01 : ... .. E ... ... ... : ... .. E ... ... ... : F#4 00 . ... : ... .. D ... : ... .. . ... ... : ... .. 8 ... ... : ... .. 8 ... ... : ... .. D ... ...
ROW 02 : ... .. D ... ... ... : ... .. D ... ... ... : B-3 00 . ... : ... .. . ... : ... .. . ... ... : ... .. . ... ... : ... .. . ... ... : ... .. 8 ... ...
ROW 03 : ... .. A ... ... ... : ... .. A ... ... ... : A#3 00 . ... : ... .. C ... : ... .. . ... ... : ... .. 2 ... ... : ... .. 2 ... ... : ... .. . ... ...
ROW 04 : ... .. . ... ... ... : ... .. 2 ... ... ... : F-3 00 . ... : ... .. B ... : ... .. . ... ... : ... .. 1 ... ... : ... .. 1 ... ... : ... .. . ... ...
ROW 05 : ... .. . ... ... ... : ... .. . ... ... ... : ... .. . ... : ... .. . ... : ... .. . ... ... : ... .. . ... ... : ... .. . ... ... : ... .. . ... ...
ROW 06 : C-2 00 F ... ... ... : G#2 00 F ... ... ... : ... .. . ... : ... .. A ... : ... .. . ... ... : ... .. 9 ... ... : ... .. 9 ... ... : ... .. . ... ...
ROW 07 : ... .. E ... ... ... : ... .. E ... ... ... : ... .. . ... : ... .. . ... : ... .. . ... ... : ... .. 8 ... ... : ... .. 8 ... ... : ... .. . ... ...
ROW 08 : ... .. D ... ... ... : ... .. D ... ... ... : ... .. . ... : ... .. 9 ... : ... .. . ... ... : ... .. . ... ... : ... .. . ... ... : ... .. . ... ...
ROW 09 : ... .. A ... ... ... : ... .. A ... ... ... : ... .. . ... : ... .. 8 ... : ... .. . ... ... : ... .. 2 ... ... : ... .. 2 ... ... : ... .. . ... ...
ROW 0A : ... .. . ... ... ... : ... .. 2 ... ... ... : ... .. . ... : ... .. . ... : ... .. . ... ... : ... .. 1 ... ... : ... .. 1 ... ... : ... .. . ... ...
ROW 0B : ... .. . ... ... ... : ... .. . ... ... ... : ... .. . ... : ... .. 7 ... : ... .. . ... ... : ... .. . ... ... : ... .. . ... ... : ... .. . ... ...
ROW 0C : F-1 00 F ... ... ... : C-3 00 F ... ... ... : ... .. . ... : ... .. 6 ... : ... .. . ... ... : ... .. 9 ... ... : ... .. 9 ... ... : ... .. . ... ...
ROW 0D : ... .. E ... ... ... : ... .. E ... ... ... : ... .. . ... : ... .. . ... : ... .. . ... ... : ... .. 8 ... ... : ... .. 8 ... ... : ... .. . ... ...
ROW 0E : ... .. D ... ... ... : ... .. D ... ... ... : ... .. . ... : ... .. 5 ... : ... .. . ... ... : ... .. . ... ... : ... .. . ... ... : ... .. . ... ...
ROW 0F : ... .. A ... ... ... : ... .. A ... ... ... : ... .. . ... : ... .. . ... : ... .. . ... ... : ... .. 2 ... ... : ... .. 2 ... ... : ... .. . ... ...
ROW 10 : ... .. . ... ... ... : ... .. 2 ... ... ... : ... .. . ... : ... .. 4 ... : ... .. . ... ... : ... .. 1 ... ... : ... .. 1 ... ... : ... .. . ... ...
ROW 11 : ... .. . ... ... ... : ... .. . ... ... ... : ... .. . ... : ... .. 3 ... : ... .. . ... ... : ... .. . ... ... : ... .. . ... ... : ... .. . ... ...
ROW 12 : D#2 00 F ... ... ... : F-3 00 F ... ... ... : D-5 00 . ... : ... .. E ... : ... .. . ... ... : C-4 01 9 ... ... : F-4 01 9 ... ... : D#1 01 F ... ...
ROW 13 : ... .. E ... ... ... : ... .. E ... ... ... : E-4 00 . ... : ... .. D ... : ... .. . ... ... : ... .. 8 ... ... : ... .. 8 ... ... : ... .. D ... ...
ROW 14 : ... .. D ... ... ... : ... .. D ... ... ... : A-3 00 . ... : ... .. . ... : ... .. . ... ... : ... .. . ... ... : ... .. . ... ... : ... .. 8 ... ...
ROW 15 : ... .. A ... ... ... : ... .. A ... ... ... : G#3 00 . ... : ... .. C ... : ... .. . ... ... : ... .. 2 ... ... : ... .. 2 ... ... : ... .. . ... ...
ROW 16 : ... .. . ... ... ... : ... .. 2 ... ... ... : D#3 00 . ... : ... .. B ... : ... .. . ... ... : ... .. 1 ... ... : ... .. 1 ... ... : ... .. . ... ...
ROW 17 : ... .. . ... ... ... : ... .. . ... ... ... : ... .. . ... : ... .. . ... : ... .. . ... ... : ... .. . ... ... : ... .. . ... ... : ... .. . ... ...
ROW 18 : B-1 00 F ... ... ... : G#3 00 F ... ... ... : ... .. . ... : ... .. A ... : ... .. . ... ... : ... .. 9 ... ... : ... .. 9 ... ... : ... .. . ... ...
ROW 19 : ... .. E ... ... ... : ... .. E ... ... ... : ... .. . ... : ... .. . ... : ... .. . ... ... : ... .. 8 ... ... : ... .. 8 ... ... : ... .. . ... ...
ROW 1A : ... .. D ... ... ... : ... .. D ... ... ... : ... .. . ... : ... .. 9 ... : ... .. . ... ... : ... .. . ... ... : ... .. . ... ... : ... .. . ... ...
ROW 1B : ... .. A ... ... ... : ... .. A ... ... ... : ... .. . ... : ... .. 8 ... : ... .. . ... ... : ... .. 2 ... ... : ... .. 2 ... ... : ... .. . ... ...
ROW 1C : ... .. . ... ... ... : ... .. 2 ... ... ... : ... .. . ... : ... .. . ... : ... .. . ... ... : ... .. 1 ... ... : ... .. 1 ... ... : ... .. . ... ...
ROW 1D : ... .. . ... ... ... : ... .. . ... ... ... : ... .. . ... : ... .. 7 ... : ... .. . ... ... : ... .. . ... ... : ... .. . ... ... : ... .. . ... ...
ROW 1E : D#1 00 F ... ... ... : C-4 00 F ... ... ... : ... .. . ... : ... .. 6 ... : ... .. . ... ... : ... .. 9 ... ... : ... .. 9 ... ... : ... .. . ... ...
ROW 1F : ... .. E ... ... ... : ... .. E ... ... ... : ... .. . ... : ... .. . ... : ... .. . ... ... : ... .. 8 ... ... : ... .. 8 ... ... : ... .. . ... ...
ROW 20 : ... .. D ... ... ... : ... .. D ... ... ... : ... .. . ... : ... .. 5 ... : ... .. . ... ... : ... .. . ... ... : ... .. . ... ... : ... .. . ... ...
ROW 21 : ... .. A ... ... ... : ... .. A ... ... ... : ... .. . ... : ... .. . ... : ... .. . ... ... : ... .. 2 ... ... : ... .. 2 ... ... : ... .. . ... ...
ROW 22 : ... .. . ... ... ... : ... .. 2 ... ... ... : ... .. . ... : ... .. 4 ... : ... .. . ... ... : ... .. 1 ... ... : ... .. 1 ... ... : ... .. . ... ...
ROW 23 : ... .. . ... ... ... : ... .. . ... ... ... : ... .. . ... : ... .. 3 ... : ... .. . ... ... : ... .. . ... ... : ... .. . ... ... : ... .. . ... ...
ROW 24 : D-2 00 F ... ... ... : D-3 00 F ... ... ... : C#5 00 . ... : ... .. E ... : ... .. . ... ... : D-4 01 9 ... ... : ... .. 9 ... ... : D-1 01 F ... ...
ROW 25 : ... .. E ... ... ... : ... .. E ... ... ... : D#4 00 . ... : ... .. D ... : ... .. . ... ... : ... .. 8 ... ... : ... .. 8 ... ... : ... .. D ... ...
ROW 26 : ... .. D ... ... ... : ... .. D ... ... ... : G#3 00 . ... : ... .. . ... : ... .. . ... ... : ... .. . ... ... : ... .. . ... ... : ... .. 8 ... ...
ROW 27 : ... .. A ... ... ... : ... .. A ... ... ... : G-3 00 . ... : ... .. C ... : ... .. . ... ... : ... .. 2 ... ... : ... .. 2 ... ... : ... .. . ... ...
ROW 28 : ... .. . ... ... ... : ... .. 2 ... ... ... : D-3 00 . ... : ... .. B ... : ... .. . ... ... : ... .. 1 ... ... : ... .. 1 ... ... : ... .. . ... ...
ROW 29 : ... .. . ... ... ... : ... .. . ... ... ... : ... .. . ... : ... .. . ... : ... .. . ... ... : ... .. . ... ... : ... .. . ... ... : ... .. . ... ...
ROW 2A : A-1 00 F ... ... ... : F-3 00 F ... ... ... : ... .. . ... : ... .. A ... : ... .. . ... ... : ... .. 9 ... ... : ... .. 9 ... ... : ... .. . ... ...
ROW 2B : ... .. E ... ... ... : ... .. E ... ... ... : ... .. . ... : ... .. . ... : ... .. . ... ... : ... .. 8 ... ... : ... .. 8 ... ... : ... .. . ... ...
ROW 2C : ... .. D ... ... ... : ... .. D ... ... ... : ... .. . ... : ... .. 9 ... : ... .. . ... ... : ... .. . ... ... : ... .. . ... ... : ... .. . ... ...
ROW 2D : ... .. A ... ... ... : ... .. A ... ... ... : ... .. . ... : ... .. 8 ... : ... .. . ... ... : ... .. 2 ... ... : ... .. 2 ... ... : ... .. . ... ...
ROW 2E : ... .. . ... ... ... : ... .. 2 ... ... ... : ... .. . ... : ... .. . ... : ... .. . ... ... : ... .. 1 ... ... : ... .. 1 ... ... : ... .. . ... ...
ROW 2F : ... .. . ... ... ... : ... .. . ... ... ... : ... .. . ... : ... .. 7 ... : ... .. . ... ... : ... .. . ... ... : ... .. . ... ... : ... .. . ... ...
ROW 30 : D-1 00 F ... ... ... : A-3 00 F ... ... ... : ... .. . ... : 3-# 00 D ... : ... .. . ... ... : ... .. 9 ... ... : ... .. 9 ... ... : ... .. . ... ...
ROW 31 : ... .. E ... ... ... : ... .. E ... ... ... : ... .. . ... : ... .. . ... : ... .. . ... ... : ... .. 8 ... ... : ... .. 8 ... ... : ... .. . ... ...
ROW 32 : ... .. D ... ... ... : ... .. D ... ... ... : ... .. . ... : F-# 00 D ... : ... .. . ... ... : ... .. . ... ... : ... .. . ... ... : ... .. . ... ...
ROW 33 : ... .. A ... ... ... : ... .. A ... ... ... : ... .. . ... : 3-# 00 D ... : ... .. . ... ... : ... .. 2 ... ... : ... .. 2 ... ... : ... .. . ... ...
ROW 34 : ... .. . ... ... ... : ... .. 2 ... ... ... : ... .. . ... : ... .. . ... : ... .. . ... ... : ... .. 1 ... ... : ... .. 1 ... ... : ... .. . ... ...
ROW 35 : ... .. . ... ... ... : ... .. . ... ... ... : ... .. . ... : F-# 00 D ... : ... .. . ... ... : ... .. . ... ... : ... .. . ... ... : ... .. . ... ...
ROW 36 : D-2 00 F ... ... ... : D-4 00 F ... ... ... : ... .. . ... : 3-# 00 D ... : ... .. . ... ... : F-4 01 9 ... ... : A-4 01 9 ... ... : ... .. . ... ...
ROW 37 : ... .. E ... ... ... : ... .. E ... ... ... : ... .. . ... : ... .. . ... : ... .. . ... ... : ... .. 8 ... ... : ... .. 8 ... ... : ... .. . ... ...
ROW 38 : ... .. D ... ... ... : ... .. D ... ... ... : ... .. . ... : F-# 00 D ... : ... .. . ... ... : ... .. . ... ... : ... .. . ... ... : ... .. . ... ...
ROW 39 : ... .. A ... ... ... : ... .. A ... ... ... : ... .. . ... : D-# 00 6 ... : ... .. . ... ... : ... .. 2 ... ... : ... .. 2 ... ... : ... .. . ... ...
ROW 3A : ... .. . ... ... ... : ... .. 2 ... ... ... : ... .. . ... : 9-# 00 1 ... : ... .. . ... ... : ... .. 1 ... ... : ... .. 1 ... ... : ... .. . ... ...
ROW 3B : ... .. . ... ... ... : ... .. . ... ... ... : ... .. . ... : ... .. 0 ... : ... .. . ... ... : ... .. . ... ... : ... .. . ... ... : ... .. . ... ...
ROW 3C : A-1 00 F ... ... ... : F-4 00 F ... ... ... : C#3 00 . P77 : 1-# 00 D ... : ... .. . ... ... : ... .. 9 ... ... : ... .. 9 ... ... : ... .. . ... ...
ROW 3D : ... .. E ... ... ... : ... .. E ... ... ... : B-2 00 . P88 : ... .. . ... : ... .. . ... ... : ... .. 8 ... ... : ... .. 8 ... ... : ... .. . ... ...
ROW 3E : ... .. D ... ... ... : ... .. D ... ... ... : A#2 00 . P83 : D-# 00 D ... : ... .. . ... ... : ... .. . ... ... : ... .. . ... ... : ... .. . ... ...
ROW 3F : ... .. A ... ... ... : ... .. A ... ... ... : A-2 00 . P7F : B-# 00 6 ... : ... .. . ... ... : ... .. 2 ... ... : ... .. 2 ... ... : ... .. . ... ...
ROW 40 : ... .. . ... ... ... : ... .. 2 ... ... ... : G#2 00 . P7E : 7-# 00 1 ... : ... .. . ... ... : ... .. 1 ... ... : ... .. 1 ... ... : ... .. . ... ...
ROW 41 : ... .. . ... ... ... : ... .. . ... ... ... : G-2 00 . ... : ... .. 0 ... : ... .. . ... ... : ... .. . ... ... : ... .. . ... ... : ... .. . ... ...
ROW 42 : D-1 00 F ... ... ... : A-4 00 F ... ... ... : F#2 00 . P80 : 0-# 00 D ... : ... .. . ... ... : ... .. 9 ... ... : ... .. 9 ... ... : ... .. . ... ...
ROW 43 : ... .. E ... ... ... : ... .. E ... ... ... : F-2 00 . P84 : ... .. . ... : ... .. . ... ... : ... .. 8 ... ... : ... .. 8 ... ... : ... .. . ... ...
ROW 44 : ... .. D ... ... ... : ... .. D ... ... ... : E-2 00 . P8A : C-# 00 D ... : ... .. . ... ... : ... .. . ... ... : ... .. . ... ... : ... .. . ... ...
ROW 45 : ... .. A ... ... ... : ... .. A ... ... ... : D#2 00 . P92 : A-# 00 6 ... : ... .. . ... ... : ... .. 2 ... ... : ... .. 2 ... ... : ... .. . ... ...
ROW 46 : ... .. . ... ... ... : ... .. 2 ... ... ... : ... .. . P72 : 6-# 00 1 ... : ... .. . ... ... : ... .. 1 ... ... : ... .. 1 ... ... : ... .. . ... ...
ROW 47 : ... .. . ... ... ... : ... .. . ... ... ... : D-2 00 . P7D : ... .. 0 ... : ... .. . ... ... : ... .. . ... ... : ... .. . ... ... : ... .. . ... ...
ROW 48 : D-3 00 F ... ... ... : D-5 00 F ... ... ... : C#4 00 . P80 : C-# 00 E ... : ... .. . ... ... : D-4 01 9 ... ... : F-4 01 9 ... ... : ... .. F ... ...
ROW 49 : ... .. E ... ... ... : ... .. E ... ... ... : D#3 00 . ... : ... .. D ... : ... .. . ... ... : ... .. 8 ... ... : ... .. 8 ... ... : ... .. D ... ...
ROW 4A : ... .. D ... ... ... : ... .. D ... ... ... : G#2 00 . ... : ... .. . ... : ... .. . ... ... : ... .. . ... ... : ... .. . ... ... : ... .. 8 ... ...
ROW 4B : ... .. A ... ... ... : ... .. A ... ... ... : G-2 00 . ... : ... .. C ... : ... .. . ... ... : ... .. 2 ... ... : ... .. 2 ... ... : ... .. . ... ...
ROW 4C : ... .. . ... ... ... : ... .. 2 ... ... ... : D-2 00 . ... : ... .. B ... : ... .. . ... ... : ... .. 1 ... ... : ... .. 1 ... ... : ... .. . ... ...
ROW 4D : ... .. . ... ... ... : ... .. . ... ... ... : ... .. . ... : ... .. . ... : ... .. . ... ... : ... .. . ... ... : ... .. . ... ... : ... .. . ... ...
ROW 4E : A-2 00 F ... ... ... : D-4 00 F ... ... ... : ... .. . ... : 2-# 00 F ... : ... .. . ... ... : ... .. 9 ... ... : ... .. 9 ... ... : ... .. . ... ...
ROW 4F : ... .. E ... ... ... : ... .. E ... ... ... : ... .. . ... : ... .. C ... : ... .. . ... ... : ... .. 8 ... ... : ... .. 8 ... ... : ... .. . ... ...
ROW 50 : ... .. D ... ... ... : ... .. D ... ... ... : ... .. . ... : ... .. 6 ... : ... .. . ... ... : ... .. . ... ... : ... .. . ... ... : ... .. . ... ...
ROW 51 : ... .. A ... ... ... : ... .. A ... ... ... : ... .. . ... : ... .. 3 ... : ... .. . ... ... : ... .. 2 ... ... : ... .. 2 ... ... : ... .. . ... ...
ROW 52 : ... .. . ... ... ... : ... .. 2 ... ... ... : ... .. . ... : ... .. 2 ... : ... .. . ... ... : ... .. 1 ... ... : ... .. 1 ... ... : ... .. . ... ...
ROW 53 : ... .. . ... ... ... : ... .. . ... ... ... : ... .. . ... : ... .. 0 ... : ... .. . ... ... : ... .. . ... ... : ... .. . ... ... : ... .. . ... ...
ROW 54 : D-2 00 F ... ... ... : ... .. F ... ... ... : ... .. . ... : ... .. F ... : ... .. . ... ... : ... .. 9 ... ... : ... .. 9 ... ... : ... .. . ... ...
ROW 55 : ... .. E ... ... ... : ... .. E ... ... ... : ... .. . ... : ... .. C ... : ... .. . ... ... : ... .. 8 ... ... : ... .. 8 ... ... : ... .. . ... ...
ROW 56 : ... .. D ... ... ... : ... .. D ... ... ... : ... .. . ... : ... .. 6 ... : ... .. . ... ... : ... .. . ... ... : ... .. . ... ... : ... .. . ... ...
ROW 57 : ... .. A ... ... ... : ... .. A ... ... ... : ... .. . ... : ... .. 3 ... : ... .. . ... ... : ... .. 2 ... ... : ... .. 2 ... ... : ... .. . ... ...
ROW 58 : ... .. . ... ... ... : ... .. 2 ... ... ... : ... .. . ... : ... .. 2 ... : ... .. . ... ... : ... .. 1 ... ... : ... .. 1 ... ... : ... .. . ... ...
ROW 59 : ... .. . ... ... ... : ... .. . ... ... ... : ... .. . ... : ... .. 0 ... : ... .. . ... ... : ... .. . ... ... : ... .. . ... ... : ... .. . ... ...
ROW 5A : C-3 00 F ... ... ... : C-5 00 F ... ... ... : B-3 00 . ... : C-# 00 E ... : ... .. . ... ... : F-4 01 9 ... ... : A-4 01 9 ... ... : C-1 01 F ... ...
ROW 5B : ... .. E ... ... ... : ... .. E ... ... ... : C#3 00 . ... : ... .. D ... : ... .. . ... ... : ... .. 8 ... ... : ... .. 8 ... ... : ... .. D ... ...
ROW 5C : ... .. D ... ... ... : ... .. D ... ... ... : F#2 00 . ... : ... .. . ... : ... .. . ... ... : ... .. . ... ... : ... .. . ... ... : ... .. 8 ... ...
ROW 5D : ... .. A ... ... ... : ... .. A ... ... ... : F-2 00 . ... : ... .. C ... : ... .. . ... ... : ... .. 2 ... ... : ... .. 2 ... ... : ... .. . ... ...
ROW 5E : ... .. . ... ... ... : ... .. 2 ... ... ... : C-2 00 . ... : ... .. B ... : ... .. . ... ... : ... .. 1 ... ... : ... .. 1 ... ... : ... .. . ... ...
ROW 5F : ... .. . ... ... ... : ... .. . ... ... ... : ... .. . ... : ... .. . ... : ... .. . ... ... : ... .. . ... ... : ... .. . ... ... : ... .. . ... ...
ROW 60 : G#2 00 F ... ... ... : C-4 00 F ... ... ... : ... .. . ... : 2-# 00 F ... : ... .. . ... ... : ... .. 9 ... ... : ... .. 9 ... ... : ... .. . ... ...
ROW 61 : ... .. E ... ... ... : ... .. E ... ... ... : ... .. . ... : ... .. C ... : ... .. . ... ... : ... .. 8 ... ... : ... .. 8 ... ... : ... .. . ... ...
ROW 62 : ... .. D ... ... ... : ... .. D ... ... ... : ... .. . ... : ... .. 6 ... : ... .. . ... ... : ... .. . ... ... : ... .. . ... ... : ... .. . ... ...
ROW 63 : ... .. A ... ... ... : ... .. 9 ... ... ... : ... .. . ... : ... .. 3 ... : ... .. . ... ... : ... .. 2 ... ... : ... .. 2 ... ... : ... .. . ... ...
ROW 64 : ... .. . ... ... ... : ... .. 1 ... ... ... : ... .. . ... : ... .. 2 ... : ... .. . ... ... : ... .. 1 ... ... : ... .. 1 ... ... : ... .. . ... ...
ROW 65 : ... .. . ... ... ... : ... .. . ... ... ... : ... .. . ... : ... .. 0 ... : ... .. . ... ... : ... .. . ... ... : ... .. . ... ... : ... .. . ... ...
ROW 66 : C-2 00 F ... ... ... : ... .. E ... ... ... : ... .. . ... : ... .. F ... : ... .. . ... ... : ... .. 9 ... ... : ... .. 9 ... ... : ... .. . ... ...
ROW 67 : ... .. E ... ... ... : ... .. D ... ... ... : ... .. . ... : ... .. C ... : ... .. . ... ... : ... .. 8 ... ... : ... .. 8 ... ... : ... .. . ... ...
ROW 68 : ... .. D ... ... ... : ... .. C ... ... ... : ... .. . ... : ... .. 6 ... : ... .. . ... ... : ... .. . ... ... : ... .. . ... ... : ... .. . ... ...
ROW 69 : ... .. A ... ... ... : ... .. 8 ... ... ... : ... .. . ... : ... .. 3 ... : ... .. . ... ... : ... .. 2 ... ... : ... .. 2 ... ... : ... .. . ... ...
ROW 6A : ... .. . ... ... ... : ... .. 1 ... ... ... : ... .. . ... : ... .. 2 ... : ... .. . ... ... : ... .. 1 ... ... : ... .. 1 ... ... : ... .. . ... ...
ROW 6B : ... .. . ... ... ... : ... .. . ... ... ... : ... .. . ... : ... .. 0 ... : ... .. . ... ... : ... .. . ... ... : ... .. . ... ... : ... .. . ... ...
ROW 6C : B-2 00 F ... ... ... : B-4 00 D ... ... ... : A#3 00 . ... : C-# 00 E ... : ... .. . ... ... : F#4 01 9 ... ... : B-4 01 9 ... ... : B-0 01 F ... ...
ROW 6D : ... .. E ... ... ... : ... .. C ... ... ... : C-3 00 . ... : ... .. D ... : ... .. . ... ... : ... .. 8 ... ... : ... .. 8 ... ... : ... .. D ... ...
ROW 6E : ... .. D ... ... ... : ... .. B ... ... ... : F-2 00 . ... : ... .. . ... : ... .. . ... ... : ... .. . ... ... : ... .. . ... ... : ... .. 8 ... ...
ROW 6F : ... .. A ... ... ... : ... .. 8 ... ... ... : E-2 00 . ... : ... .. C ... : ... .. . ... ... : ... .. 2 ... ... : ... .. 2 ... ... : ... .. . ... ...
ROW 70 : ... .. . ... ... ... : ... .. 1 ... ... ... : B-1 00 . ... : ... .. B ... : ... .. . ... ... : ... .. 1 ... ... : ... .. 1 ... ... : ... .. . ... ...
ROW 71 : ... .. . ... ... ... : ... .. . ... ... ... : ... .. . ... : ... .. . ... : ... .. . ... ... : ... .. . ... ... : ... .. . ... ... : ... .. . ... ...
ROW 72 : F#2 00 F ... ... ... : B-3 00 C ... ... ... : ... .. . ... : 2-# 00 F ... : ... .. . ... ... : ... .. 9 ... ... : ... .. 9 ... ... : ... .. . ... ...
ROW 73 : ... .. E ... ... ... : ... .. B ... ... ... : ... .. . ... : ... .. C ... : ... .. . ... ... : ... .. 8 ... ... : ... .. 8 ... ... : ... .. . ... ...
ROW 74 : ... .. D ... ... ... : ... .. A ... ... ... : ... .. . ... : ... .. 6 ... : ... .. . ... ... : ... .. . ... ... : ... .. . ... ... : ... .. . ... ...
ROW 75 : ... .. A ... ... ... : ... .. 7 ... ... ... : ... .. . ... : ... .. 3 ... : ... .. . ... ... : ... .. 2 ... ... : ... .. 2 ... ... : ... .. . ... ...
ROW 76 : ... .. . ... ... ... : ... .. 1 ... ... ... : ... .. . ... : ... .. 2 ... : ... .. . ... ... : ... .. 1 ... ... : ... .. 1 ... ... : ... .. . ... ...
ROW 77 : ... .. . ... ... ... : ... .. . ... ... ... : ... .. . ... : ... .. 0 ... : ... .. . ... ... : ... .. . ... ... : ... .. . ... ... : ... .. . ... ...
ROW 78 : B-1 00 F ... ... ... : ... .. B ... ... ... : ... .. . ... : 1-# 00 F ... : ... .. . ... ... : ... .. 9 ... ... : ... .. 9 ... ... : ... .. . ... ...
ROW 79 : ... .. E ... ... ... : ... .. A ... ... ... : ... .. . ... : ... .. C ... : ... .. . ... ... : ... .. 8 ... ... : ... .. 8 ... ... : ... .. . ... ...
ROW 7A : ... .. D ... ... ... : ... .. 9 ... ... ... : ... .. . ... : ... .. 6 ... : ... .. . ... ... : ... .. . ... ... : ... .. . ... ... : ... .. . ... ...
ROW 7B : ... .. A ... ... ... : ... .. 6 ... ... ... : ... .. . ... : ... .. F ... : ... .. . ... ... : ... .. 2 ... ... : ... .. 2 ... ... : ... .. . ... ...
ROW 7C : ... .. . ... ... ... : ... .. 1 ... ... ... : ... .. . ... : ... .. C ... : ... .. . ... ... : ... .. 1 ... ... : ... .. 1 ... ... : ... .. . ... ...
ROW 7D : ... .. . ... ... ... : ... .. . ... ... ... : ... .. . ... : ... .. 6 ... : ... .. . ... ... : ... .. . ... ... : ... .. . ... ... : ... .. . ... ...
ROW 7E : D-3 00 F ... ... ... : ... .. A ... ... ... : ... .. . ... : ... .. F ... : ... .. . ... ... : B-4 01 9 ... ... : D-5 01 9 ... ... : ... .. . ... ...
ROW 7F : ... .. E ... ... ... : ... .. 9 ... ... ... : ... .. . ... : ... .. C ... : ... .. . ... ... : ... .. 8 ... ... : ... .. 8 ... ... : ... .. . ... ...
ROW 80 : ... .. D ... ... ... : ... .. 8 ... ... ... : ... .. . ... : ... .. 6 ... : ... .. . ... ... : ... .. . ... ... : ... .. . ... ... : ... .. . ... ...
ROW 81 : ... .. A ... ... ... : ... .. 6 ... ... ... : ... .. . ... : ... .. 3 ... : ... .. . ... ... : ... .. 2 ... ... : ... .. 2 ... ... : ... .. . ... ...
ROW 82 : ... .. . ... ... ... : ... .. 1 ... ... ... : ... .. . ... : ... .. 2 ... : ... .. . ... ... : ... .. 1 ... ... : ... .. 1 ... ... : ... .. . ... ...
ROW 83 : ... .. . ... ... ... : ... .. . ... ... ... : ... .. . ... : ... .. 0 ... : ... .. . ... ... : ... .. . ... ... : ... .. . ... ... : ... .. . ... ...
ROW 84 : F#2 00 F ... ... ... : ... .. 9 ... ... ... : ... .. . ... : 5-# 00 F ... : ... .. . ... ... : ... .. 9 ... ... : ... .. 9 ... ... : ... .. . ... ...
ROW 85 : ... .. E ... ... ... : ... .. 8 ... ... ... : ... .. . ... : ... .. C ... : ... .. . ... ... : ... .. 8 ... ... : ... .. 8 ... ... : ... .. . ... ...
ROW 86 : ... .. D ... ... ... : ... .. 7 ... ... ... : ... .. . ... : ... .. 6 ... : ... .. . ... ... : ... .. . ... ... : ... .. . ... ... : ... .. . ... ...
ROW 87 : ... .. A ... ... ... : ... .. 5 ... ... ... : ... .. . ... : ... .. 3 ... : ... .. . ... ... : ... .. 2 ... ... : ... .. 2 ... ... : ... .. . ... ...
ROW 88 : ... .. . ... ... ... : ... .. 1 ... ... ... : ... .. . ... : ... .. 2 ... : ... .. . ... ... : ... .. 1 ... ... : ... .. 1 ... ... : ... .. . ... ...
ROW 89 : ... .. . ... ... ... : ... .. . ... ... ... : ... .. . ... : ... .. 0 ... : ... .. . ... ... : ... .. . ... ... : ... .. . ... ... : ... .. . ... ...
ROW 8A : B-1 00 F ... ... ... : ... .. 8 ... ... ... : ... .. . ... : A-# 00 F ... : ... .. . ... ... : ... .. 9 ... ... : ... .. 9 ... ... : ... .. . ... ...
ROW 8B : ... .. E ... ... ... : ... .. 7 ... ... ... : ... .. . ... : ... .. C ... : ... .. . ... ... : ... .. 8 ... ... : ... .. 8 ... ... : ... .. . ... ...
ROW 8C : ... .. D ... ... ... : ... .. 6 ... ... ... : ... .. . ... : ... .. 6 ... : ... .. . ... ... : ... .. . ... ... : ... .. . ... ... : ... .. . ... ...
ROW 8D : ... .. A ... ... ... : ... .. 4 ... ... ... : ... .. . ... : ... .. 3 ... : ... .. . ... ... : ... .. 2 ... ... : ... .. 2 ... ... : ... .. . ... ...
ROW 8E : ... .. . ... ... ... : ... .. 1 ... ... ... : ... .. . ... : ... .. 2 ... : ... .. . ... ... : ... .. 1 ... ... : ... .. 1 ... ... : ... .. . ... ...
ROW 8F : ... .. . ... ... ... : ... .. . ... ... ... : ... .. . ... : ... .. 0 ... : ... .. . ... ... : ... .. . ... ... : ... .. . ... ... : ... .. . ... ...
ROW 90 : F#3 00 F ... ... ... : ... .. 7 ... ... ... : --- .. . ... : 8-# 00 F ... : ... .. . ... ... : ... .. 9 ... ... : F#3 01 9 ... ... : ... .. . ... ...
ROW 91 : ... .. E ... ... ... : ... .. 6 ... ... ... : ... .. . ... : ... .. C ... : ... .. . ... ... : ... .. 8 ... ... : ... .. 8 ... ... : ... .. . ... ...
ROW 92 : ... .. D ... ... ... : ... .. . ... ... ... : ... .. . ... : ... .. 6 ... : ... .. . ... ... : ... .. . ... ... : ... .. . ... ... : ... .. . ... ...
ROW 93 : ... .. A ... ... ... : ... .. 4 ... ... ... : ... .. . ... : ... .. 3 ... : ... .. . ... ... : ... .. . ... ... : ... .. . ... ... : ... .. . ... ...
ROW 94 : ... .. . ... ... ... : ... .. 1 ... ... ... : ... .. . ... : ... .. 2 ... : ... .. . ... ... : ... .. 7 ... ... : ... .. 7 ... ... : ... .. . ... ...
ROW 95 : ... .. . ... ... ... : ... .. . ... ... ... : ... .. . ... : ... .. 0 ... : ... .. . ... ... : ... .. . ... ... : ... .. . ... ... : ... .. . ... ...
ROW 96 : B-3 00 F ... ... ... : ... .. 6 ... ... ... : ... .. . ... : ... .. F ... : ... .. . ... ... : D-5 01 9 ... ... : B-3 01 9 ... ... : ... .. . ... ...
ROW 97 : ... .. E ... ... ... : ... .. 5 ... ... ... : ... .. . ... : ... .. C ... : ... .. . ... ... : ... .. 8 ... ... : ... .. 8 ... ... : ... .. . ... ...
ROW 98 : ... .. D ... ... ... : ... .. . ... ... ... : ... .. . ... : ... .. 6 ... : ... .. . ... ... : ... .. . ... ... : ... .. . ... ... : ... .. . ... ...
ROW 99 : ... .. A ... ... ... : ... .. 3 ... ... ... : ... .. . ... : ... .. 3 ... : ... .. . ... ... : ... .. . ... ... : ... .. . ... ... : --- .. . ... ...
ROW 9A : ... .. . ... ... ... : ... .. 1 ... ... ... : ... .. . ... : ... .. 2 ... : ... .. . ... ... : ... .. 7 ... ... : ... .. 7 ... ... : ... .. . ... ...
ROW 9B : ... .. . ... ... ... : ... .. . ... ... ... : ... .. . ... : ... .. 0 ... : ... .. . ... ... : ... .. . ... ... : ... .. . ... ... : ... .. . ... ...
ROW 9C : D-4 00 F ... ... ... : ... .. 5 ... ... ... : ... .. . ... : 7-# 00 F ... : ... .. . ... ... : F#5 01 9 ... ... : D-4 01 9 ... ... : ... .. . ... ...
ROW 9D : ... .. E ... ... ... : ... .. 4 ... ... ... : ... .. . ... : ... .. C ... : ... .. . ... ... : ... .. 8 ... ... : ... .. 8 ... ... : ... .. . ... ...
ROW 9E : ... .. D ... ... ... : ... .. . ... ... ... : ... .. . ... : ... .. 6 ... : ... .. . ... ... : ... .. . ... ... : ... .. . ... ... : ... .. . ... ...
ROW 9F : ... .. A ... ... ... : ... .. 2 ... ... ... : ... .. . ... : ... .. 3 ... : ... .. . ... ... : ... .. . ... ... : ... .. . ... ... : ... .. . ... ...
ROW A0 : ... .. . ... ... ... : ... .. 1 ... ... ... : ... .. . ... : ... .. 2 ... : ... .. . ... ... : ... .. 7 ... ... : ... .. 7 ... ... : ... .. . ... ...
ROW A1 : ... .. . ... ... ... : ... .. . ... ... ... : ... .. . ... : ... .. 0 ... : ... .. . ... ... : ... .. . ... ... : ... .. . ... ... : ... .. . ... ...
ROW A2 : F#4 00 F ... ... ... : ... .. 4 ... ... ... : ... .. . ... : 5-# 00 F ... : ... .. . ... ... : B-5 01 9 ... ... : F#4 01 9 ... ... : ... .. . ... ...
ROW A3 : ... .. E ... ... ... : ... .. 3 ... ... ... : ... .. . ... : ... .. C ... : ... .. . ... ... : ... .. 8 ... ... : ... .. 8 ... ... : ... .. . ... ...
ROW A4 : ... .. D ... ... ... : ... .. . ... ... ... : ... .. . ... : ... .. 6 ... : ... .. . ... ... : ... .. . ... ... : ... .. . ... ... : ... .. . ... ...
ROW A5 : ... .. A ... ... ... : ... .. 2 ... ... ... : ... .. . ... : ... .. 3 ... : ... .. . ... ... : ... .. . ... ... : ... .. . ... ... : ... .. . ... ...
ROW A6 : ... .. . ... ... ... : ... .. 1 ... ... ... : ... .. . ... : ... .. 2 ... : ... .. . ... ... : ... .. 7 ... ... : ... .. 7 ... ... : ... .. . ... ...
ROW A7 : ... .. . ... ... ... : ... .. . ... ... ... : ... .. . ... : ... .. 0 ... : ... .. . ... ... : ... .. . ... ... : ... .. . ... ... : ... .. . ... ...
ROW A8 : A-4 00 F ... ... ... : A-1 00 F ... ... ... : G#4 00 . ... : C-# 00 E ... : ... .. . ... ... : A-5 01 4 ... ... : C-5 01 4 ... ... : A-2 01 F ... ...
ROW A9 : ... .. E ... ... ... : ... .. E ... ... ... : A#3 00 . ... : ... .. D ... : ... .. . ... ... : ... .. . ... ... : ... .. . ... ... : ... .. D ... ...
ROW AA : ... .. D ... ... ... : ... .. D ... ... ... : D#3 00 . ... : ... .. . ... : ... .. . ... ... : ... .. . ... ... : ... .. . ... ... : ... .. 8 ... ...
ROW AB : ... .. A ... ... ... : ... .. A ... ... ... : D-3 00 . ... : ... .. C ... : ... .. . ... ... : ... .. . ... ... : ... .. . ... ... : ... .. . ... ...
ROW AC : ... .. . ... ... ... : ... .. . ... ... ... : A-2 00 . ... : ... .. B ... : ... .. . ... ... : ... .. 3 ... ... : ... .. 3 ... ... : ... .. . ... ...
ROW AD : ... .. . ... ... ... : ... .. . ... ... ... : ... .. . ... : ... .. . ... : ... .. . ... ... : ... .. . ... ... : ... .. . ... ... : ... .. . ... ...
ROW AE : E-4 00 F ... ... ... : ... .. . ... ... ... : ... .. . ... : ... .. A ... : ... .. . ... ... : A-4 01 4 ... ... : A-4 01 4 ... ... : ... .. . ... ...
ROW AF : ... .. E ... ... ... : ... .. . ... ... ... : ... .. . ... : ... .. . ... : ... .. . ... ... : ... .. . ... ... : ... .. . ... ... : ... .. . ... ...
ROW B0 : ... .. D ... ... ... : ... .. . ... ... ... : ... .. . ... : ... .. 9 ... : ... .. . ... ... : ... .. . ... ... : ... .. . ... ... : ... .. . ... ...
ROW B1 : A-4 00 8 ... ... ... : ... .. . ... ... ... : G#2 00 . P7F : ... .. 8 ... : ... .. . ... ... : ... .. . ... ... : ... .. . ... ... : ... .. . ... ...
ROW B2 : ... .. 7 ... ... ... : ... .. . ... ... ... : G-2 00 . ... : ... .. . ... : ... .. . ... ... : ... .. 3 ... ... : ... .. 3 ... ... : ... .. . ... ...
ROW B3 : ... .. 6 ... ... ... : ... .. . ... ... ... : F#2 00 . P81 : ... .. 7 ... : ... .. . ... ... : ... .. . ... ... : ... .. . ... ... : ... .. . ... ...
ROW B4 : A-3 00 F ... ... ... : ... .. . ... ... ... : F-2 00 . P85 : ... .. 6 ... : ... .. . ... ... : A-5 01 4 ... ... : C-5 01 4 ... ... : ... .. . ... ...
ROW B5 : ... .. E ... ... ... : ... .. . ... ... ... : E-2 00 . P8B : ... .. . ... : ... .. . ... ... : ... .. . ... ... : ... .. . ... ... : ... .. . ... ...
ROW B6 : ... .. D ... ... ... : ... .. . ... ... ... : D#2 00 . P93 : ... .. 5 ... : ... .. . ... ... : ... .. . ... ... : ... .. . ... ... : ... .. . ... ...
ROW B7 : E-4 00 8 ... ... ... : ... .. . ... ... ... : ... .. . P73 : ... .. . ... : ... .. . ... ... : ... .. . ... ... : ... .. . ... ... : ... .. . ... ...
ROW B8 : ... .. 7 ... ... ... : ... .. . ... ... ... : D-2 00 . P7E : ... .. 4 ... : ... .. . ... ... : ... .. 3 ... ... : ... .. 3 ... ... : ... .. . ... ...
ROW B9 : ... .. 6 ... ... ... : ... .. . ... ... ... : C#2 00 . P8B : ... .. 3 ... : ... .. . ... ... : ... .. . ... ... : ... .. . ... ... : ... .. . ... ...
ROW BA : A-4 00 F ... ... ... : ... .. . ... ... ... : G#3 00 . P80 : 1-# 00 F ... : ... .. . ... ... : A-4 01 4 ... ... : A-4 01 4 ... ... : ... .. . ... ...
ROW BB : ... .. E ... ... ... : ... .. . ... ... ... : A#2 00 . ... : ... .. C ... : ... .. . ... ... : ... .. . ... ... : ... .. . ... ... : ... .. . ... ...
ROW BC : ... .. D ... ... ... : ... .. . ... ... ... : D#2 00 . ... : ... .. 6 ... : ... .. . ... ... : ... .. . ... ... : ... .. . ... ... : ... .. . ... ...
ROW BD : A-3 00 8 ... ... ... : ... .. . ... ... ... : D-2 00 . ... : ... .. 3 ... : ... .. . ... ... : ... .. . ... ... : ... .. . ... ... : ... .. . ... ...
ROW BE : ... .. 7 ... ... ... : ... .. . ... ... ... : A-1 00 . ... : ... .. 2 ... : ... .. . ... ... : ... .. 3 ... ... : ... .. 3 ... ... : ... .. . ... ...
ROW BF : ... .. 6 ... ... ... : ... .. . ... ... ... : ... .. . ... : ... .. 0 ... : ... .. . ... ... : ... .. . ... ... : ... .. . ... ... : ... .. . ... ...
ROW C0 : E-4 00 F ... ... ... : ... .. . ... ... ... : ... .. . ... : 5-# 00 F ... : ... .. . ... ... : A-5 01 4 ... ... : C-5 01 4 ... ... : ... .. . ... ...
ROW C1 : ... .. E ... ... ... : ... .. . ... ... ... : ... .. . ... : ... .. C ... : ... .. . ... ... : ... .. . ... ... : ... .. . ... ... : ... .. . ... ...
ROW C2 : ... .. D ... ... ... : ... .. . ... ... ... : ... .. . ... : ... .. 6 ... : ... .. . ... ... : ... .. . ... ... : ... .. . ... ... : ... .. . ... ...
ROW C3 : A-4 00 8 ... ... ... : ... .. . ... ... ... : ... .. . ... : ... .. 3 ... : ... .. . ... ... : ... .. . ... ... : ... .. . ... ... : ... .. . ... ...
ROW C4 : ... .. 7 ... ... ... : ... .. . ... ... ... : ... .. . ... : ... .. 2 ... : ... .. . ... ... : ... .. 3 ... ... : ... .. 3 ... ... : ... .. . ... ...
ROW C5 : ... .. 6 ... ... ... : ... .. . ... ... ... : ... .. . ... : ... .. 0 ... : ... .. . ... ... : ... .. . ... ... : ... .. . ... ... : ... .. . ... ...
ROW C6 : A-3 00 F ... ... ... : ... .. . ... ... ... : ... .. . ... : B-# 00 F ... : ... .. . ... ... : A-4 01 4 ... ... : A-4 01 4 ... ... : ... .. . ... ...
ROW C7 : ... .. E ... ... ... : ... .. . ... ... ... : ... .. . ... : ... .. C ... : ... .. . ... ... : ... .. . ... ... : ... .. . ... ... : ... .. . ... ...
ROW C8 : ... .. D ... ... ... : ... .. . ... ... ... : ... .. . ... : ... .. 6 ... : ... .. . ... ... : ... .. . ... ... : ... .. . ... ... : ... .. . ... ...
ROW C9 : E-4 00 8 ... ... ... : ... .. . ... ... ... : ... .. . ... : ... .. 3 ... : ... .. . ... ... : ... .. . ... ... : ... .. . ... ... : ... .. . ... ...
ROW CA : ... .. 7 ... ... ... : ... .. . ... ... ... : ... .. . ... : ... .. 2 ... : ... .. . ... ... : ... .. 3 ... ... : ... .. 3 ... ... : ... .. . ... ...
ROW CB : ... .. 6 ... ... ... : ... .. . ... ... ... : ... .. . ... : ... .. 0 ... : ... .. . ... ... : ... .. . ... ... : ... .. . ... ... : ... .. . ... ...
ROW CC : A-4 00 F ... ... ... : D#1 00 F ... ... ... : D-4 00 . ... : 1-# 00 F ... : ... .. . ... ... : A-5 01 4 ... ... : C-5 01 4 ... ... : ... .. . ... ...
ROW CD : ... .. E ... ... ... : ... .. E ... ... ... : E-3 00 . ... : ... .. C ... : ... .. . ... ... : ... .. . ... ... : ... .. . ... ... : ... .. . ... ...
ROW CE : ... .. D ... ... ... : ... .. D ... ... ... : A-2 00 . ... : ... .. 6 ... : ... .. . ... ... : ... .. . ... ... : ... .. . ... ... : ... .. . ... ...
ROW CF : A-3 00 8 ... ... ... : ... .. A ... ... ... : G#2 00 . ... : ... .. 3 ... : ... .. . ... ... : ... .. . ... ... : ... .. . ... ... : ... .. . ... ...
ROW D0 : ... .. 7 ... ... ... : ... .. . ... ... ... : D#2 00 . ... : ... .. 2 ... : ... .. . ... ... : ... .. 3 ... ... : ... .. 3 ... ... : ... .. . ... ...
ROW D1 : ... .. 6 ... ... ... : ... .. . ... ... ... : ... .. . ... : ... .. 0 ... : ... .. . ... ... : ... .. . ... ... : ... .. . ... ... : ... .. . ... ...
ROW D2 : D#4 00 F ... ... ... : ... .. . ... ... ... : D-4 00 . ... : B-# 00 F ... : ... .. . ... ... : A-4 01 4 ... ... : A-4 01 4 ... ... : ... .. . ... ...
ROW D3 : ... .. E ... ... ... : ... .. . ... ... ... : E-3 00 . ... : ... .. C ... : ... .. . ... ... : ... .. . ... ... : ... .. . ... ... : ... .. . ... ...
ROW D4 : ... .. D ... ... ... : ... .. . ... ... ... : A-2 00 . ... : ... .. 6 ... : ... .. . ... ... : ... .. . ... ... : ... .. . ... ... : ... .. . ... ...
ROW D5 : A-4 00 8 ... ... ... : ... .. . ... ... ... : G#2 00 . ... : ... .. 3 ... : ... .. . ... ... : ... .. . ... ... : ... .. . ... ... : ... .. . ... ...
ROW D6 : ... .. 7 ... ... ... : ... .. . ... ... ... : D#2 00 . ... : ... .. 2 ... : ... .. . ... ... : ... .. 3 ... ... : ... .. 3 ... ... : ... .. . ... ...
ROW D7 : ... .. 6 ... ... ... : ... .. . ... ... ... : ... .. . ... : ... .. 0 ... : ... .. . ... ... : ... .. . ... ... : ... .. . ... ... : ... .. . ... ...
ROW D8 : A-3 00 F ... ... ... : ... .. . ... ... ... : ... .. . ... : ... .. F ... : ... .. . ... ... : A-5 01 4 ... ... : C-5 01 4 ... ... : ... .. . P84 ...
ROW D9 : ... .. E ... ... ... : ... .. . ... ... ... : ... .. . ... : ... .. C ... : ... .. . ... ... : ... .. . ... ... : ... .. . ... ... : ... .. . P88 ...
ROW DA : ... .. D ... ... ... : ... .. . ... ... ... : ... .. . ... : ... .. 6 ... : ... .. . ... ... : ... .. . ... ... : ... .. . ... ... : ... .. . P8C ...
ROW DB : D#4 00 8 ... ... ... : ... .. . ... ... ... : ... .. . ... : ... .. 3 ... : ... .. . ... ... : ... .. . ... ... : ... .. . ... ... : ... .. . P90 ...
ROW DC : ... .. 7 ... ... ... : ... .. . ... ... ... : ... .. . ... : ... .. 2 ... : ... .. . ... ... : ... .. 3 ... ... : ... .. 3 ... ... : A#2 01 8 P73 ...
ROW DD : ... .. 6 ... ... ... : ... .. . ... ... ... : ... .. . ... : ... .. 0 ... : ... .. . ... ... : ... .. . ... ... : ... .. . ... ... : ... .. . P77 ...
ROW DE : A-4 00 F ... ... ... : ... .. . ... ... ... : D-4 00 . ... : ... .. F ... : ... .. . ... ... : A-4 01 4 ... ... : A-4 01 4 ... ... : ... .. . P7B ...
ROW DF : ... .. E ... ... ... : ... .. . ... ... ... : E-3 00 . ... : ... .. C ... : ... .. . ... ... : ... .. . ... ... : ... .. . ... ... : ... .. . P7F ...
ROW E0 : ... .. D ... ... ... : ... .. . ... ... ... : A-2 00 . ... : ... .. 6 ... : ... .. . ... ... : ... .. . ... ... : ... .. . ... ... : ... .. . P83 ...
ROW E1 : A-3 00 8 ... ... ... : ... .. . ... ... ... : G#2 00 . ... : ... .. 3 ... : ... .. . ... ... : ... .. . ... ... : ... .. . ... ... : ... .. . P87 ...
ROW E2 : ... .. 7 ... ... ... : ... .. . ... ... ... : D#2 00 . ... : ... .. 2 ... : ... .. . ... ... : ... .. 3 ... ... : ... .. 3 ... ... : ... .. . P8B ...
ROW E3 : ... .. 6 ... ... ... : ... .. . ... ... ... : ... .. . ... : ... .. 0 ... : ... .. . ... ... : ... .. . ... ... : ... .. . ... ... : ... .. . P8F ...
ROW E4 : D#4 00 F ... ... ... : ... .. . ... ... ... : D-4 00 . ... : 5-# 00 F ... : ... .. . ... ... : A-5 01 4 ... ... : C-5 01 4 ... ... : B-2 01 8 P75 ...
ROW E5 : ... .. E ... ... ... : ... .. . ... ... ... : E-3 00 . ... : ... .. C ... : ... .. . ... ... : ... .. . ... ... : ... .. . ... ... : ... .. . P79 ...
ROW E6 : ... .. D ... ... ... : ... .. . ... ... ... : A-2 00 . ... : ... .. 6 ... : ... .. . ... ... : ... .. . ... ... : ... .. . ... ... : ... .. . P7D ...
ROW E7 : A-4 00 8 ... ... ... : ... .. . ... ... ... : G#2 00 . ... : ... .. 3 ... : ... .. . ... ... : ... .. . ... ... : ... .. . ... ... : ... .. . P81 ...
ROW E8 : ... .. 7 ... ... ... : ... .. . ... ... ... : D#2 00 . ... : ... .. 2 ... : ... .. . ... ... : ... .. 3 ... ... : ... .. 3 ... ... : ... .. . P85 ...
ROW E9 : ... .. 6 ... ... ... : ... .. . ... ... ... : ... .. . ... : ... .. 0 ... : ... .. . ... ... : ... .. . ... ... : ... .. . ... ... : ... .. . P89 ...
ROW EA : A-3 00 F ... ... ... : ... .. . ... ... ... : ... .. . ... : ... .. F ... : ... .. . ... ... : A-4 01 4 ... ... : A-4 01 4 ... ... : ... .. . P8D ...
ROW EB : ... .. E ... ... ... : ... .. . ... ... ... : ... .. . ... : ... .. C ... : ... .. . ... ... : ... .. . ... ... : ... .. . ... ... : C-3 01 8 P74 ...
ROW EC : ... .. D ... ... ... : ... .. . ... ... ... : ... .. . ... : ... .. 6 ... : ... .. . ... ... : ... .. . ... ... : ... .. . ... ... : ... .. . P78 ...
ROW ED : D#4 00 8 ... ... ... : ... .. . ... ... ... : ... .. . ... : ... .. 3 ... : ... .. . ... ... : ... .. . ... ... : ... .. . ... ... : ... .. . P7C ...
ROW EE : ... .. 7 ... ... ... : ... .. . ... ... ... : ... .. . ... : ... .. 2 ... : ... .. . ... ... : ... .. 3 ... ... : ... .. 3 ... ... : ... .. . P80 ...
ROW EF : ... .. 6 ... ... ... : ... .. . ... ... ... : ... .. . ... : ... .. 0 ... : ... .. . ... ... : ... .. . ... ... : ... .. . ... ... : ... .. . P84 ...
ROW F0 : A-4 00 F ... ... ... : C-1 00 F ... ... ... : B-3 00 . ... : 1-# 00 F ... : ... .. . ... ... : A-5 01 4 ... ... : C-5 01 4 ... ... : ... .. . P88 ...
ROW F1 : ... .. E ... ... ... : ... .. E ... ... ... : C#3 00 . ... : ... .. C ... : ... .. . ... ... : ... .. . ... ... : ... .. . ... ... : ... .. . P8C ...
ROW F2 : ... .. D ... ... ... : ... .. D ... ... ... : F#2 00 . ... : ... .. 6 ... : ... .. . ... ... : ... .. . ... ... : ... .. . ... ... : C#3 01 8 P74 ...
ROW F3 : A-3 00 8 ... ... ... : ... .. A ... ... ... : F-2 00 . ... : ... .. 3 ... : ... .. . ... ... : ... .. . ... ... : ... .. . ... ... : ... .. . P78 ...
ROW F4 : ... .. 7 ... ... ... : ... .. . ... ... ... : C-2 00 . ... : ... .. 2 ... : ... .. . ... ... : ... .. 3 ... ... : ... .. 3 ... ... : ... .. . P7C ...
ROW F5 : ... .. 6 ... ... ... : ... .. . ... ... ... : ... .. . ... : ... .. 0 ... : ... .. . ... ... : ... .. . ... ... : ... .. . ... ... : ... .. . P80 ...
ROW F6 : E-4 00 F ... ... ... : ... .. . ... ... ... : ... .. . ... : B-# 00 F ... : ... .. . ... ... : A-4 01 4 ... ... : A-4 01 4 ... ... : ... .. . P84 ...
ROW F7 : ... .. E ... ... ... : ... .. . ... ... ... : ... .. . ... : ... .. C ... : ... .. . ... ... : ... .. . ... ... : ... .. . ... ... : ... .. . P88 ...
ROW F8 : ... .. D ... ... ... : ... .. . ... ... ... : ... .. . ... : ... .. 6 ... : ... .. . ... ... : ... .. . ... ... : ... .. . ... ... : ... .. . P8C ...
ROW F9 : A-4 00 8 ... ... ... : ... .. . ... ... ... : ... .. . ... : ... .. 3 ... : ... .. . ... ... : ... .. . ... ... : ... .. . ... ... : D-3 01 8 P76 ...
ROW FA : ... .. 7 ... ... ... : ... .. . ... ... ... : ... .. . ... : ... .. 2 ... : ... .. . ... ... : ... .. 3 ... ... : ... .. 3 ... ... : ... .. . P7A ...
ROW FB : ... .. 6 ... ... ... : ... .. . ... ... ... : ... .. . ... : ... .. 0 ... : ... .. . ... ... : ... .. . ... ... : ... .. . ... ... : ... .. . P7E ...
ROW FC : A-3 00 F ... ... ... : ... .. . ... ... ... : ... .. . ... : ... .. F ... : ... .. . ... ... : A-5 01 4 ... ... : C-5 01 4 ... ... : ... .. . P82 ...
ROW FD : ... .. E ... ... ... : ... .. . ... ... ... : ... .. . ... : ... .. C ... : ... .. . ... ... : ... .. . ... ... : ... .. . ... ... : ... .. . P86 ...
ROW FE : ... .. D ... ... ... : ... .. . ... ... ... : ... .. . ... : ... .. 6 ... : ... .. . ... ... : ... .. . ... ... : ... .. . ... ... : ... .. . P8A ...
ROW FF : E-4 00 8 ... ... ... : ... .. . ... ... ... : ... .. . ... : ... .. 3 ... : ... .. . ... ... : ... .. . ... ... : ... .. . ... ... : D#3 01 8 P76 ...

PATTERN 01
ROW 00 : ... .. 7 ... ... ... : ... .. . ... ... ... : ... .. . ... : ... .. 2 ... : ... .. . ... ... : ... .. 3 ... ... : ... .. 3 ... ... : ... .. . P7A ...
ROW 01 : ... .. 6 ... ... ... : ... .. . ... ... ... : ... .. . ... : ... .. 0 ... : ... .. . ... ... : ... .. . ... ... : ... .. . ... ... : ... .. . P7E ...
ROW 02 : A-4 00 F ... ... ... : ... .. . ... ... ... : B-4 00 . ... : 1-# 00 F ... : ... .. . ... ... : A-4 01 4 ... ... : A-4 01 4 ... ... : ... .. . P82 ...
ROW 03 : ... .. E ... ... ... : ... .. . ... ... ... : C#4 00 . ... : ... .. C ... : ... .. . ... ... : ... .. . ... ... : ... .. . ... ... : ... .. . P86 ...
ROW 04 : ... .. D ... ... ... : ... .. . ... ... ... : F#3 00 . ... : ... .. 6 ... : ... .. . ... ... : ... .. . ... ... : ... .. . ... ... : ... .. . P8A ...
ROW 05 : A-3 00 8 ... ... ... : ... .. . ... ... ... : F-3 00 . ... : ... .. 3 ... : ... .. . ... ... : ... .. . ... ... : ... .. . ... ... : E-3 01 8 P77 ...
ROW 06 : ... .. 7 ... ... ... : ... .. . ... ... ... : C-3 00 . ... : ... .. 2 ... : ... .. . ... ... : ... .. 3 ... ... : ... .. 3 ... ... : ... .. . P7B ...
ROW 07 : ... .. 6 ... ... ... : ... .. . ... ... ... : ... .. . ... : ... .. 0 ... : ... .. . ... ... : ... .. . ... ... : ... .. . ... ... : ... .. . P7F ...
ROW 08 : E-4 00 F ... ... ... : ... .. . ... ... ... : ... .. . ... : 5-# 00 F ... : ... .. . ... ... : A-5 01 4 ... ... : C-5 01 4 ... ... : ... .. . P83 ...
ROW 09 : ... .. E ... ... ... : ... .. . ... ... ... : ... .. . ... : ... .. C ... : ... .. . ... ... : ... .. . ... ... : ... .. . ... ... : ... .. . P87 ...
ROW 0A : ... .. D ... ... ... : ... .. . ... ... ... : ... .. . ... : ... .. 6 ... : ... .. . ... ... : ... .. . ... ... : ... .. . ... ... : ... .. . P8B ...
ROW 0B : A-4 00 8 ... ... ... : ... .. . ... ... ... : ... .. . ... : ... .. 3 ... : ... .. . ... ... : ... .. . ... ... : ... .. . ... ... : F-3 01 8 P79 ...
ROW 0C : ... .. 7 ... ... ... : ... .. . ... ... ... : ... .. . ... : ... .. 2 ... : ... .. . ... ... : ... .. 3 ... ... : ... .. 3 ... ... : ... .. . P7D ...
ROW 0D : ... .. 6 ... ... ... : ... .. . ... ... ... : ... .. . ... : ... .. 0 ... : ... .. . ... ... : ... .. . ... ... : ... .. . ... ... : ... .. . P81 ...
ROW 0E : A-3 00 F ... ... ... : ... .. . ... ... ... : ... .. . ... : B-# 00 F ... : ... .. . ... ... : A-4 01 4 ... ... : A-4 01 4 ... ... : ... .. . P85 ...
ROW 0F : ... .. E ... ... ... : ... .. . ... ... ... : ... .. . ... : ... .. C ... : ... .. . ... ... : ... .. . ... ... : ... .. . ... ... : ... .. . P89 ...
ROW 10 : ... .. D ... ... ... : ... .. . ... ... ... : ... .. . ... : ... .. 6 ... : ... .. . ... ... : ... .. . ... ... : ... .. . ... ... : F#3 01 8 P79 ...
ROW 11 : E-4 00 8 ... ... ... : ... .. . ... ... ... : ... .. . ... : ... .. 3 ... : ... .. . ... ... : ... .. . ... ... : ... .. . ... ... : ... .. . P7D ...
ROW 12 : ... .. 7 ... ... ... : ... .. . ... ... ... : ... .. . ... : ... .. 2 ... : ... .. . ... ... : ... .. 3 ... ... : ... .. 3 ... ... : ... .. . P81 ...
ROW 13 : ... .. 6 ... ... ... : ... .. . ... ... ... : ... .. . ... : ... .. 0 ... : ... .. . ... ... : ... .. . ... ... : ... .. . ... ... : ... .. . P85 ...
ROW 14 : A-4 00 F ... ... ... : A#0 00 F ... ... ... : A-4 00 . ... : 1-# 00 F ... : ... .. . ... ... : --- .. . ... ... : C-5 01 4 ... ... : ... .. . P89 ...
ROW 15 : ... .. E ... ... ... : ... .. E ... ... ... : B-3 00 . ... : ... .. C ... : ... .. . ... ... : ... .. . ... ... : ... .. . ... ... : G-3 01 8 P79 ...
ROW 16 : ... .. D ... ... ... : ... .. D ... ... ... : E-3 00 . ... : ... .. 6 ... : ... .. . ... ... : ... .. . ... ... : ... .. . ... ... : ... .. . P7D ...
ROW 17 : A-3 00 8 ... ... ... : ... .. A ... ... ... : D#3 00 . ... : ... .. 3 ... : ... .. . ... ... : ... .. . ... ... : ... .. . ... ... : ... .. . P81 ...
ROW 18 : ... .. 7 ... ... ... : ... .. . ... ... ... : A#2 00 . ... : ... .. 2 ... : ... .. . ... ... : ... .. . ... ... : ... .. 3 ... ... : ... .. . P85 ...
ROW 19 : ... .. 6 ... ... ... : ... .. . ... ... ... : ... .. . ... : ... .. 0 ... : ... .. . ... ... : ... .. . ... ... : ... .. . ... ... : ... .. . P89 ...
ROW 1A : D#4 00 F ... ... ... : ... .. . ... ... ... : A-4 00 . ... : B-# 00 F ... : ... .. . ... ... : ... .. . ... ... : A-4 01 4 ... ... : G#3 01 8 P7B ...
ROW 1B : ... .. E ... ... ... : ... .. . ... ... ... : B-3 00 . ... : ... .. C ... : ... .. . ... ... : ... .. . ... ... : ... .. . ... ... : ... .. . P7F ...
ROW 1C : ... .. D ... ... ... : ... .. . ... ... ... : E-3 00 . ... : ... .. 6 ... : ... .. . ... ... : ... .. . ... ... : ... .. . ... ... : ... .. . P83 ...
ROW 1D : A-4 00 8 ... ... ... : ... .. . ... ... ... : D#3 00 . ... : ... .. 3 ... : ... .. . ... ... : ... .. . ... ... : ... .. . ... ... : ... .. . P87 ...
ROW 1E : ... .. 7 ... ... ... : ... .. . ... ... ... : A#2 00 . ... : ... .. 2 ... : ... .. . ... ... : ... .. . ... ... : ... .. 3 ... ... : A-3 01 8 P7A ...
ROW 1F : ... .. 6 ... ... ... : ... .. . ... ... ... : ... .. . ... : ... .. 0 ... : ... .. . ... ... : ... .. . ... ... : ... .. . ... ... : ... .. . P7E ...
ROW 20 : A-3 00 F ... ... ... : ... .. . ... ... ... : ... .. . ... : ... .. F ... : ... .. . ... ... : ... .. . ... ... : C-5 01 4 ... ... : ... .. . P82 ...
ROW 21 : ... .. E ... ... ... : ... .. . ... ... ... : ... .. . ... : ... .. C ... : ... .. . ... ... : ... .. . ... ... : ... .. . ... ... : ... .. . P86 ...
ROW 22 : ... .. D ... ... ... : ... .. . ... ... ... : ... .. . ... : ... .. 6 ... : ... .. . ... ... : ... .. . ... ... : ... .. . ... ... : A#3 01 8 P79 ...
ROW 23 : D#4 00 8 ... ... ... : ... .. . ... ... ... : ... .. . ... : ... .. 3 ... : ... .. . ... ... : ... .. . ... ... : ... .. . ... ... : ... .. . P7D ...
ROW 24 : ... .. 7 ... ... ... : ... .. . ... ... ... : ... .. . ... : ... .. 2 ... : ... .. . ... ... : ... .. . ... ... : ... .. 3 ... ... : ... .. . P81 ...
ROW 25 : ... .. 6 ... ... ... : ... .. . ... ... ... : ... .. . ... : ... .. 0 ... : ... .. . ... ... : ... .. . ... ... : ... .. . ... ... : ... .. . P85 ...
ROW 26 : A-4 00 F ... ... ... : ... .. . ... ... ... : A-3 00 . ... : 9-# 00 F ... : ... .. . ... ... : ... .. . ... ... : A-4 01 4 ... ... : B-3 01 8 P7A ...
ROW 27 : ... .. E ... ... ... : ... .. . ... ... ... : B-2 00 . ... : ... .. C ... : ... .. . ... ... : ... .. . ... ... : ... .. . ... ... : ... .. . P7E ...
ROW 28 : ... .. D ... ... ... : ... .. . ... ... ... : E-2 00 . ... : ... .. 6 ... : ... .. . ... ... : ... .. . ... ... : ... .. . ... ... : ... .. . P82 ...
ROW 29 : A-3 00 8 ... ... ... : ... .. . ... ... ... : D#2 00 . ... : ... .. 3 ... : ... .. . ... ... : ... .. . ... ... : ... .. . ... ... : ... .. . P86 ...
ROW 2A : ... .. 7 ... ... ... : ... .. . ... ... ... : A#1 00 . ... : ... .. 2 ... : ... .. . ... ... : ... .. . ... ... : ... .. 3 ... ... : C-4 01 8 P7B ...
ROW 2B : ... .. 6 ... ... ... : ... .. . ... ... ... : ... .. . ... : ... .. 0 ... : ... .. . ... ... : ... .. . ... ... : ... .. . ... ... : ... .. . P7F ...
ROW 2C : D#4 00 F ... ... ... : ... .. . ... ... ... : A-3 00 . ... : 7-# 00 F ... : ... .. . ... ... : ... .. . ... ... : C-5 01 4 ... ... : ... .. . P83 ...
ROW 2D : ... .. E ... ... ... : ... .. . ... ... ... : B-2 00 . ... : ... .. C ... : ... .. . ... ... : ... .. . ... ... : ... .. . ... ... : C#4 01 8 P7A ...
ROW 2E : ... .. D ... ... ... : ... .. . ... ... ... : E-2 00 . ... : ... .. 6 ... : ... .. . ... ... : ... .. . ... ... : ... .. . ... ... : ... .. . P7E ...
ROW 2F : A-4 00 8 ... ... ... : ... .. . ... ... ... : D#2 00 . ... : ... .. 3 ... : ... .. . ... ... : ... .. . ... ... : ... .. . ... ... : ... .. . P82 ...
ROW 30 : ... .. 7 ... ... ... : ... .. . ... ... ... : A#1 00 . ... : ... .. 2 ... : ... .. . ... ... : ... .. . ... ... : ... .. 3 ... ... : ... .. . P86 ...
ROW 31 : ... .. 6 ... ... ... : ... .. . ... ... ... : ... .. . ... : ... .. 0 ... : ... .. . ... ... : ... .. . ... ... : ... .. . ... ... : D-4 01 8 P7D ...
ROW 32 : A-3 00 F ... ... ... : ... .. . ... ... ... : ... .. . ... : 5-# 00 F ... : ... .. . ... ... : ... .. . ... ... : A-4 01 4 ... ... : ... .. . P81 ...
ROW 33 : ... .. E ... ... ... : ... .. . ... ... ... : ... .. . ... : ... .. C ... : ... .. . ... ... : ... .. . ... ... : ... .. . ... ... : ... .. . P85 ...
ROW 34 : ... .. D ... ... ... : ... .. . ... ... ... : ... .. . ... : ... .. 6 ... : ... .. . ... ... : ... .. . ... ... : ... .. . ... ... : D#4 01 8 P7C ...
ROW 35 : D#4 00 8 ... ... ... : ... .. . ... ... ... : ... .. . ... : ... .. 3 ... : ... .. . ... ... : ... .. . ... ... : ... .. . ... ... : ... .. . P80 ...
ROW 36 : ... .. 7 ... ... ... : ... .. . ... ... ... : ... .. . ... : ... .. 2 ... : ... .. . ... ... : ... .. . ... ... : ... .. 3 ... ... : ... .. . P84 ...
ROW 37 : ... .. 6 ... ... ... : ... .. . ... ... ... : ... .. . ... : ... .. 0 ... : ... .. . ... ... : ... .. . ... ... : ... .. . ... ... : E-4 01 8 P7D ...
ROW 38 : A-4 00 F ... ... ... : A-1 00 F ... ... ... : G#4 00 . ... : 1-# 00 F ... : ... .. . ... ... : ... .. . ... ... : E-5 01 4 ... ... : ... .. F P80 ...
ROW 39 : ... .. E ... ... ... : ... .. E ... ... ... : A#3 00 . ... : ... .. C ... : ... .. . ... ... : ... .. . ... ... : ... .. . ... ... : ... .. D ... ...
ROW 3A : ... .. D ... ... ... : ... .. D ... ... ... : D#3 00 . ... : ... .. 6 ... : ... .. . ... ... : ... .. . ... ... : ... .. . ... ... : ... .. 8 ... ...
ROW 3B : A-3 00 8 ... ... ... : ... .. A ... ... ... : D-3 00 . ... : ... .. 3 ... : ... .. . ... ... : ... .. . ... ... : ... .. . ... ... : ... .. . ... ...
ROW 3C : ... .. 7 ... ... ... : ... .. . ... ... ... : A-2 00 . ... : ... .. 2 ... : ... .. . ... ... : ... .. . ... ... : ... .. 3 ... ... : ... .. . ... ...
ROW 3D : ... .. 6 ... ... ... : ... .. . ... ... ... : ... .. . ... : ... .. 0 ... : ... .. . ... ... : ... .. . ... ... : ... .. . ... ... : ... .. . ... ...
ROW 3E : E-5 00 F ... ... ... : ... .. . ... ... ... : ... .. . ... : B-# 00 F ... : ... .. . ... ... : ... .. . ... ... : C-5 01 4 ... ... : ... .. . ... ...
ROW 3F : ... .. E ... ... ... : ... .. . ... ... ... : ... .. . ... : ... .. C ... : ... .. . ... ... : ... .. . ... ... : ... .. . ... ... : ... .. . ... ...
ROW 40 : ... .. D ... ... ... : ... .. . ... ... ... : ... .. . ... : ... .. 6 ... : ... .. . ... ... : ... .. . ... ... : ... .. . ... ... : ... .. . ... ...
ROW 41 : A-4 00 8 ... ... ... : ... .. . ... ... ... : ... .. . ... : ... .. 3 ... : ... .. . ... ... : ... .. . ... ... : ... .. . ... ... : ... .. . ... ...
ROW 42 : ... .. 7 ... ... ... : ... .. . ... ... ... : ... .. . ... : ... .. 2 ... : ... .. . ... ... : ... .. . ... ... : ... .. 3 ... ... : ... .. . ... ...
ROW 43 : ... .. 6 ... ... ... : ... .. . ... ... ... : ... .. . ... : ... .. 0 ... : ... .. . ... ... : ... .. . ... ... : ... .. . ... ... : ... .. . ... ...
ROW 44 : ... .. F ... ... ... : ... .. . ... ... ... : ... .. . ... : 1-# 00 F ... : ... .. . ... ... : ... .. . ... ... : E-5 01 4 ... ... : ... .. . ... ...
ROW 45 : ... .. E ... ... ... : ... .. . ... ... ... : ... .. . ... : ... .. C ... : ... .. . ... ... : ... .. . ... ... : ... .. . ... ... : ... .. . ... ...
ROW 46 : ... .. D ... ... ... : ... .. . ... ... ... : ... .. . ... : ... .. 6 ... : ... .. . ... ... : ... .. . ... ... : ... .. . ... ... : ... .. . ... ...
ROW 47 : E-5 00 8 ... ... ... : ... .. . ... ... ... : ... .. . ... : ... .. 3 ... : ... .. . ... ... : ... .. . ... ... : ... .. . ... ... : ... .. . ... ...
ROW 48 : ... .. 7 ... ... ... : ... .. . ... ... ... : ... .. . ... : ... .. 2 ... : ... .. . ... ... : ... .. . ... ... : ... .. 3 ... ... : ... .. . ... ...
ROW 49 : ... .. 6 ... ... ... : ... .. . ... ... ... : ... .. . ... : ... .. 0 ... : ... .. . ... ... : ... .. . ... ... : ... .. . ... ... : ... .. . ... ...
ROW 4A : A-5 00 F ... ... ... : ... .. . ... ... ... : G#3 00 . ... : 7-# 00 F ... : ... .. . ... ... : ... .. . ... ... : C-5 01 4 ... ... : ... .. . P84 ...
ROW 4B : ... .. E ... ... ... : ... .. . ... ... ... : A#2 00 . ... : ... .. C ... : ... .. . ... ... : ... .. . ... ... : ... .. . ... ... : F-4 01 8 P7B ...
ROW 4C : ... .. D ... ... ... : ... .. . ... ... ... : D#2 00 . ... : ... .. 6 ... : ... .. . ... ... : ... .. . ... ... : ... .. . ... ... : E-4 01 8 P85 ...
ROW 4D : A-4 00 8 ... ... ... : ... .. . ... ... ... : D-2 00 . ... : ... .. 3 ... : ... .. . ... ... : ... .. . ... ... : ... .. . ... ... : ... .. . P82 ...
ROW 4E : ... .. 7 ... ... ... : ... .. . ... ... ... : A-1 00 . ... : ... .. 2 ... : ... .. . ... ... : ... .. . ... ... : ... .. 3 ... ... : ... .. . P7E ...
ROW 4F : ... .. 6 ... ... ... : ... .. . ... ... ... : ... .. . ... : ... .. 0 ... : ... .. . ... ... : ... .. . ... ... : ... .. . ... ... : ... .. . P7B ...
ROW 50 : E-5 00 F ... ... ... : ... .. . ... ... ... : ... .. . ... : B-# 00 F ... : ... .. . ... ... : ... .. . ... ... : E-5 01 4 ... ... : D#4 01 8 P85 ...
ROW 51 : ... .. E ... ... ... : ... .. . ... ... ... : ... .. . ... : ... .. C ... : ... .. . ... ... : ... .. . ... ... : ... .. . ... ... : E-4 01 8 P7C ...
ROW 52 : ... .. D ... ... ... : ... .. . ... ... ... : ... .. . ... : ... .. 6 ... : ... .. . ... ... : ... .. . ... ... : ... .. . ... ... : ... .. . P80 ...
ROW 53 : A-5 00 8 ... ... ... : ... .. . ... ... ... : ... .. . ... : ... .. 3 ... : ... .. . ... ... : ... .. . ... ... : ... .. . ... ... : ... .. . P83 ...
ROW 54 : ... .. 7 ... ... ... : ... .. . ... ... ... : ... .. . ... : ... .. 2 ... : ... .. . ... ... : ... .. . ... ... : ... .. 3 ... ... : F-4 01 8 P7B ...
ROW 55 : ... .. 6 ... ... ... : ... .. . ... ... ... : ... .. . ... : ... .. 0 ... : ... .. . ... ... : ... .. . ... ... : ... .. . ... ... : ... .. . ... ...
ROW 56 : A-4 00 F ... ... ... : ... .. . ... ... ... : ... .. . ... : 7-# 00 F ... : ... .. . ... ... : ... .. . ... ... : C-5 01 4 ... ... : E-4 01 8 P82 ...
ROW 57 : ... .. E ... ... ... : ... .. . ... ... ... : ... .. . ... : ... .. C ... : ... .. . ... ... : ... .. . ... ... : ... .. . ... ... : ... .. . P7F ...
ROW 58 : ... .. D ... ... ... : ... .. . ... ... ... : ... .. . ... : ... .. 6 ... : ... .. . ... ... : ... .. . ... ... : ... .. . ... ... : ... .. . P7B ...
ROW 59 : E-5 00 8 ... ... ... : ... .. . ... ... ... : ... .. . ... : ... .. 3 ... : ... .. . ... ... : ... .. . ... ... : ... .. . ... ... : ... .. . P80 ...
ROW 5A : ... .. 7 ... ... ... : ... .. . ... ... ... : ... .. . ... : ... .. 2 ... : ... .. . ... ... : ... .. . ... ... : ... .. 3 ... ... : ... .. . ... ...
ROW 5B : ... .. 6 ... ... ... : ... .. . ... ... ... : ... .. . ... : ... .. 0 ... : ... .. . ... ... : ... .. . ... ... : ... .. . ... ... : ... .. . ... ...
ROW 5C : A-5 00 F ... ... ... : D#1 00 F ... ... ... : D-4 00 . ... : 1-# 00 F ... : ... .. . ... ... : ... .. . ... ... : D#5 01 4 ... ... : ... .. . ... ...
ROW 5D : ... .. E ... ... ... : ... .. E ... ... ... : E-3 00 . ... : ... .. C ... : ... .. . ... ... : ... .. . ... ... : ... .. . ... ... : ... .. . P7D ...
ROW 5E : ... .. D ... ... ... : ... .. D ... ... ... : A-2 00 . ... : ... .. 6 ... : ... .. . ... ... : ... .. . ... ... : ... .. . ... ... : D#4 01 8 P85 ...
ROW 5F : A-4 00 8 ... ... ... : ... .. A ... ... ... : G#2 00 . ... : ... .. 3 ... : ... .. . ... ... : ... .. . ... ... : ... .. . ... ... : ... .. . P82 ...
ROW 60 : ... .. 7 ... ... ... : ... .. . ... ... ... : D#2 00 . ... : ... .. 2 ... : ... .. . ... ... : ... .. . ... ... : ... .. 3 ... ... : ... .. . P80 ...
ROW 61 : ... .. 6 ... ... ... : ... .. . ... ... ... : ... .. . ... : ... .. 0 ... : ... .. . ... ... : ... .. . ... ... : ... .. . ... ... : ... .. . ... ...
ROW 62 : D#5 00 F ... ... ... : ... .. . ... ... ... : D-4 00 . ... : B-# 00 F ... : ... .. . ... ... : ... .. . ... ... : C-5 01 4 ... ... : ... .. . ... ...
ROW 63 : ... .. E ... ... ... : ... .. . ... ... ... : E-3 00 . ... : ... .. C ... : ... .. . ... ... : ... .. . ... ... : ... .. . ... ... : ... .. . ... ...
ROW 64 : ... .. D ... ... ... : ... .. . ... ... ... : A-2 00 . ... : ... .. 6 ... : ... .. . ... ... : ... .. . ... ... : ... .. . ... ... : ... .. . ... ...
ROW 65 : A-5 00 8 ... ... ... : ... .. . ... ... ... : G#2 00 . ... : ... .. 3 ... : ... .. . ... ... : ... .. . ... ... : ... .. . ... ... : ... .. . ... ...
ROW 66 : ... .. 7 ... ... ... : ... .. . ... ... ... : D#2 00 . ... : ... .. 2 ... : ... .. . ... ... : ... .. . ... ... : ... .. 3 ... ... : ... .. . ... ...
ROW 67 : ... .. 6 ... ... ... : ... .. . ... ... ... : ... .. . ... : ... .. 0 ... : ... .. . ... ... : ... .. . ... ... : ... .. . ... ... : ... .. . ... ...
ROW 68 : A-4 00 F ... ... ... : ... .. . ... ... ... : ... .. . ... : 1-# 00 F ... : ... .. . ... ... : ... .. . ... ... : D#5 01 4 ... ... : ... .. . ... ...
ROW 69 : ... .. E ... ... ... : ... .. . ... ... ... : ... .. . ... : ... .. C ... : ... .. . ... ... : ... .. . ... ... : ... .. . ... ... : ... .. . ... ...
ROW 6A : ... .. D ... ... ... : ... .. . ... ... ... : ... .. . ... : ... .. 6 ... : ... .. . ... ... : ... .. . ... ... : ... .. . ... ... : ... .. . ... ...
ROW 6B : D#5 00 8 ... ... ... : ... .. . ... ... ... : ... .. . ... : ... .. 3 ... : ... .. . ... ... : ... .. . ... ... : ... .. . ... ... : ... .. . ... ...
ROW 6C : ... .. 7 ... ... ... : ... .. . ... ... ... : ... .. . ... : ... .. 2 ... : ... .. . ... ... : ... .. . ... ... : ... .. 3 ... ... : ... .. . ... ...
ROW 6D : ... .. 6 ... ... ... : ... .. . ... ... ... : ... .. . ... : ... .. 0 ... : ... .. . ... ... : ... .. . ... ... : ... .. . ... ... : ... .. . ... ...
ROW 6E : A-5 00 F ... ... ... : ... .. . ... ... ... : D-4 00 . ... : 7-# 00 F ... : ... .. . ... ... : ... .. . ... ... : C-5 01 4 ... ... : ... .. . ... ...
ROW 6F : ... .. E ... ... ... : ... .. . ... ... ... : E-3 00 . ... : ... .. C ... : ... .. . ... ... : ... .. . ... ... : ... .. . ... ... : ... .. . ... ...
ROW 70 : ... .. D ... ... ... : ... .. . ... ... ... : A-2 00 . ... : ... .. 6 ... : ... .. . ... ... : ... .. . ... ... : ... .. . ... ... : ... .. . ... ...
ROW 71 : A-4 00 8 ... ... ... : ... .. . ... ... ... : G#2 00 . ... : ... .. 3 ... : ... .. . ... ... : ... .. . ... ... : ... .. . ... ... : ... .. . ... ...
ROW 72 : ... .. 7 ... ... ... : ... .. . ... ... ... : D#2 00 . ... : ... .. 2 ... : ... .. . ... ... : ... .. . ... ... : ... .. 3 ... ... : ... .. . ... ...
ROW 73 : ... .. 6 ... ... ... : ... .. . ... ... ... : ... .. . ... : ... .. 0 ... : ... .. . ... ... : ... .. . ... ... : ... .. . ... ... : ... .. . ... ...
ROW 74 : D#5 00 F ... ... ... : ... .. . ... ... ... : D-4 00 . ... : B-# 00 F ... : ... .. . ... ... : ... .. . ... ... : D#5 01 4 ... ... : ... .. . ... ...
ROW 75 : ... .. E ... ... ... : ... .. . ... ... ... : E-3 00 . ... : ... .. C ... : ... .. . ... ... : ... .. . ... ... : ... .. . ... ... : ... .. . ... ...
ROW 76 : ... .. D ... ... ... : ... .. . ... ... ... : A-2 00 . ... : ... .. 6 ... : ... .. . ... ... : ... .. . ... ... : ... .. . ... ... : ... .. . ... ...
ROW 77 : A-5 00 8 ... ... ... : ... .. . ... ... ... : G#2 00 . ... : ... .. 3 ... : ... .. . ... ... : ... .. . ... ... : ... .. . ... ... : ... .. . ... ...
ROW 78 : ... .. 7 ... ... ... : ... .. . ... ... ... : D#2 00 . ... : ... .. 2 ... : ... .. . ... ... : ... .. . ... ... : ... .. 3 ... ... : ... .. . ... ...
ROW 79 : ... .. 6 ... ... ... : ... .. . ... ... ... : ... .. . ... : ... .. 0 ... : ... .. . ... ... : ... .. . ... ... : ... .. . ... ... : ... .. . ... ...
ROW 7A : A-4 00 F ... ... ... : ... .. . ... ... ... : ... .. . ... : 1-# 00 F ... : ... .. . ... ... : ... .. . ... ... : C-5 01 4 ... ... : E-4 01 8 P85 ...
ROW 7B : ... .. E ... ... ... : ... .. . ... ... ... : ... .. . ... : ... .. C ... : ... .. . ... ... : ... .. . ... ... : ... .. . ... ... : F#4 01 8 P80 ...
ROW 7C : ... .. D ... ... ... : ... .. . ... ... ... : ... .. . ... : ... .. 6 ... : ... .. . ... ... : ... .. . ... ... : ... .. . ... ... : G#4 01 8 P7D ...
ROW 7D : D#5 00 8 ... ... ... : ... .. . ... ... ... : ... .. . ... : ... .. 3 ... : ... .. . ... ... : ... .. . ... ... : ... .. . ... ... : A-4 01 8 P84 ...
ROW 7E : ... .. 7 ... ... ... : ... .. . ... ... ... : ... .. . ... : ... .. 2 ... : ... .. . ... ... : ... .. . ... ... : ... .. 3 ... ... : C-5 01 8 P7D ...
ROW 7F : ... .. 6 ... ... ... : ... .. . ... ... ... : ... .. . ... : ... .. 0 ... : ... .. . ... ... : ... .. . ... ... : ... .. . ... ... : D-5 01 8 P80 ...
ROW 80 : A-5 00 F ... ... ... : C-1 00 F ... ... ... : B-3 00 . ... : ... .. F ... : ... .. . ... ... : ... .. . ... ... : E-5 01 4 ... ... : E-5 01 F ... ...
ROW 81 : ... .. E ... ... ... : ... .. E ... ... ... : C#3 00 . ... : ... .. C ... : ... .. . ... ... : ... .. . ... ... : ... .. . ... ... : ... .. D ... ...
ROW 82 : ... .. D ... ... ... : ... .. D ... ... ... : F#2 00 . ... : ... .. 6 ... : ... .. . ... ... : ... .. . ... ... : ... .. . ... ... : ... .. 8 ... ...
ROW 83 : A-4 00 8 ... ... ... : ... .. A ... ... ... : F-2 00 . ... : ... .. 3 ... : ... .. . ... ... : ... .. . ... ... : ... .. . ... ... : ... .. . ... ...
ROW 84 : ... .. 7 ... ... ... : ... .. . ... ... ... : C-2 00 . ... : ... .. 2 ... : ... .. . ... ... : ... .. . ... ... : ... .. 3 ... ... : ... .. . ... ...
ROW 85 : ... .. 6 ... ... ... : ... .. . ... ... ... : ... .. . ... : ... .. 0 ... : ... .. . ... ... : ... .. . ... ... : ... .. . ... ... : ... .. . ... ...
ROW 86 : E-5 00 F ... ... ... : ... .. . ... ... ... : ... .. . ... : B-# 00 F ... : ... .. . ... ... : ... .. . ... ... : C-5 01 4 ... ... : ... .. . ... ...
ROW 87 : ... .. E ... ... ... : ... .. . ... ... ... : ... .. . ... : ... .. C ... : ... .. . ... ... : ... .. . ... ... : ... .. . ... ... : ... .. . ... ...
ROW 88 : ... .. D ... ... ... : ... .. . ... ... ... : ... .. . ... : ... .. 6 ... : ... .. . ... ... : ... .. . ... ... : ... .. . ... ... : ... .. . ... ...
ROW 89 : A-5 00 8 ... ... ... : ... .. . ... ... ... : ... .. . ... : ... .. 3 ... : ... .. . ... ... : ... .. . ... ... : ... .. . ... ... : ... .. . ... ...
ROW 8A : ... .. 7 ... ... ... : ... .. . ... ... ... : ... .. . ... : ... .. 2 ... : ... .. . ... ... : ... .. . ... ... : ... .. 3 ... ... : ... .. . ... ...
ROW 8B : ... .. 6 ... ... ... : ... .. . ... ... ... : ... .. . ... : ... .. 0 ... : ... .. . ... ... : ... .. . ... ... : ... .. . ... ... : ... .. . ... ...
ROW 8C : A-4 00 F ... ... ... : ... .. . ... ... ... : ... .. . ... : 1-# 00 F ... : ... .. . ... ... : ... .. . ... ... : E-5 01 4 ... ... : ... .. . ... ...
ROW 8D : ... .. E ... ... ... : ... .. . ... ... ... : ... .. . ... : ... .. C ... : ... .. . ... ... : ... .. . ... ... : ... .. . ... ... : ... .. . ... ...
ROW 8E : ... .. D ... ... ... : ... .. . ... ... ... : ... .. . ... : ... .. 6 ... : ... .. . ... ... : ... .. . ... ... : ... .. . ... ... : ... .. . ... ...
ROW 8F : E-5 00 8 ... ... ... : ... .. . ... ... ... : ... .. . ... : ... .. 3 ... : ... .. . ... ... : ... .. . ... ... : ... .. . ... ... : ... .. . ... ...
ROW 90 : ... .. 7 ... ... ... : ... .. . ... ... ... : ... .. . ... : ... .. 2 ... : ... .. . ... ... : ... .. . ... ... : ... .. 3 ... ... : ... .. . ... ...
ROW 91 : ... .. 6 ... ... ... : ... .. . ... ... ... : ... .. . ... : ... .. 0 ... : ... .. . ... ... : ... .. . ... ... : ... .. . ... ... : ... .. . ... ...
ROW 92 : A-5 00 F ... ... ... : ... .. . ... ... ... : B-4 00 . ... : 7-# 00 F ... : ... .. . ... ... : ... .. . ... ... : C-5 01 4 ... ... : ... .. . ... ...
ROW 93 : ... .. E ... ... ... : ... .. . ... ... ... : C#4 00 . ... : ... .. C ... : ... .. . ... ... : ... .. . ... ... : ... .. . ... ... : ... .. . ... ...
ROW 94 : ... .. D ... ... ... : ... .. . ... ... ... : F#3 00 . ... : ... .. 6 ... : ... .. . ... ... : ... .. . ... ... : ... .. . ... ... : ... .. . ... ...
ROW 95 : A-4 00 8 ... ... ... : ... .. . ... ... ... : F-3 00 . ... : ... .. 3 ... : ... .. . ... ... : ... .. . ... ... : ... .. . ... ... : ... .. . P82 ...
ROW 96 : ... .. 7 ... ... ... : ... .. . ... ... ... : C-3 00 . ... : ... .. 2 ... : ... .. . ... ... : ... .. . ... ... : ... .. 3 ... ... : F-5 01 8 P7E ...
ROW 97 : ... .. 6 ... ... ... : ... .. . ... ... ... : ... .. . ... : ... .. 0 ... : ... .. . ... ... : ... .. . ... ... : ... .. . ... ... : ... .. . ... ...
ROW 98 : E-5 00 F ... ... ... : ... .. . ... ... ... : ... .. . ... : B-# 00 F ... : ... .. . ... ... : ... .. . ... ... : E-5 01 4 ... ... : E-5 01 8 P81 ...
ROW 99 : ... .. E ... ... ... : ... .. . ... ... ... : ... .. . ... : ... .. C ... : ... .. . ... ... : ... .. . ... ... : ... .. . ... ... : ... .. . P7F ...
ROW 9A : ... .. D ... ... ... : ... .. . ... ... ... : ... .. . ... : ... .. 6 ... : ... .. . ... ... : ... .. . ... ... : ... .. . ... ... : D#5 01 8 P83 ...
ROW 9B : A-5 00 8 ... ... ... : ... .. . ... ... ... : ... .. . ... : ... .. 3 ... : ... .. . ... ... : ... .. . ... ... : ... .. . ... ... : ... .. . ... ...
ROW 9C : ... .. 7 ... ... ... : ... .. . ... ... ... : ... .. . ... : ... .. 2 ... : ... .. . ... ... : ... .. . ... ... : ... .. 3 ... ... : E-5 01 8 P7E ...
ROW 9D : ... .. 6 ... ... ... : ... .. . ... ... ... : ... .. . ... : ... .. 0 ... : ... .. . ... ... : ... .. . ... ... : ... .. . ... ... : ... .. . P80 ...
ROW 9E : A-4 00 F ... ... ... : ... .. . ... ... ... : ... .. . ... : 7-# 00 F ... : ... .. . ... ... : ... .. . ... ... : C-5 01 4 ... ... : ... .. . P82 ...
ROW 9F : ... .. E ... ... ... : ... .. . ... ... ... : ... .. . ... : ... .. C ... : ... .. . ... ... : ... .. . ... ... : ... .. . ... ... : F-5 01 8 P7E ...
ROW A0 : ... .. D ... ... ... : ... .. . ... ... ... : ... .. . ... : ... .. 6 ... : ... .. . ... ... : ... .. . ... ... : ... .. . ... ... : ... .. . ... ...
ROW A1 : E-5 00 8 ... ... ... : ... .. . ... ... ... : ... .. . ... : ... .. 3 ... : ... .. . ... ... : ... .. . ... ... : ... .. . ... ... : E-5 01 8 P81 ...
ROW A2 : ... .. 7 ... ... ... : ... .. . ... ... ... : ... .. . ... : ... .. 2 ... : ... .. . ... ... : ... .. . ... ... : ... .. 3 ... ... : ... .. . P80 ...
ROW A3 : ... .. 6 ... ... ... : ... .. . ... ... ... : ... .. . ... : ... .. 0 ... : ... .. . ... ... : ... .. . ... ... : ... .. . ... ... : D#5 01 8 P83 ...
ROW A4 : A-5 00 F ... ... ... : A#0 00 F ... ... ... : A-4 00 . ... : B-# 00 F ... : ... .. . ... ... : ... .. . ... ... : D-5 01 4 ... ... : ... .. . ... ...
ROW A5 : ... .. E ... ... ... : ... .. E ... ... ... : B-3 00 . ... : ... .. C ... : ... .. . ... ... : ... .. . ... ... : ... .. . ... ... : E-5 01 8 P7E ...
ROW A6 : ... .. D ... ... ... : ... .. D ... ... ... : E-3 00 . ... : ... .. 6 ... : ... .. . ... ... : ... .. . ... ... : ... .. . ... ... : ... .. . P80 ...
ROW A7 : A-4 00 8 ... ... ... : ... .. A ... ... ... : D#3 00 . ... : ... .. 3 ... : ... .. . ... ... : ... .. . ... ... : ... .. . ... ... : ... .. . P81 ...
ROW A8 : ... .. 7 ... ... ... : ... .. . ... ... ... : A#2 00 . ... : ... .. 2 ... : ... .. . ... ... : ... .. . ... ... : ... .. 3 ... ... : F-5 01 8 P7E ...
ROW A9 : ... .. 6 ... ... ... : ... .. . ... ... ... : ... .. . ... : ... .. 0 ... : ... .. . ... ... : ... .. . ... ... : ... .. . ... ... : ... .. . ... ...
ROW AA : D#5 00 F ... ... ... : ... .. . ... ... ... : A-4 00 . ... : 9-# 00 F ... : ... .. . ... ... : ... .. . ... ... : D#5 01 4 ... ... : E-5 01 8 P81 ...
ROW AB : ... .. E ... ... ... : ... .. . ... ... ... : B-3 00 . ... : ... .. C ... : ... .. . ... ... : ... .. . ... ... : ... .. . ... ... : ... .. . P80 ...
ROW AC : ... .. D ... ... ... : ... .. . ... ... ... : E-3 00 . ... : ... .. 6 ... : ... .. . ... ... : ... .. . ... ... : ... .. . ... ... : ... .. . P7E ...
ROW AD : A-5 00 8 ... ... ... : ... .. . ... ... ... : D#3 00 . ... : ... .. 3 ... : ... .. . ... ... : ... .. . ... ... : ... .. . ... ... : D#5 01 8 P83 ...
ROW AE : ... .. 7 ... ... ... : ... .. . ... ... ... : A#2 00 . ... : ... .. 2 ... : ... .. . ... ... : ... .. . ... ... : ... .. 3 ... ... : ... .. . ... ...
ROW AF : ... .. 6 ... ... ... : ... .. . ... ... ... : ... .. . ... : ... .. 0 ... : ... .. . ... ... : ... .. . ... ... : ... .. . ... ... : E-5 01 8 P80 ...
ROW B0 : A-4 00 F ... ... ... : ... .. . ... ... ... : ... .. . ... : 7-# 00 F ... : ... .. . ... ... : ... .. . ... ... : F-5 01 4 ... ... : ... .. . P81 ...
ROW B1 : ... .. E ... ... ... : ... .. . ... ... ... : ... .. . ... : ... .. C ... : ... .. . ... ... : ... .. . ... ... : ... .. . ... ... : F-5 01 8 P7E ...
ROW B2 : ... .. D ... ... ... : ... .. . ... ... ... : ... .. . ... : ... .. 6 ... : ... .. . ... ... : ... .. . ... ... : ... .. . ... ... : ... .. . ... ...
ROW B3 : D#5 00 8 ... ... ... : ... .. . ... ... ... : ... .. . ... : ... .. 3 ... : ... .. . ... ... : ... .. . ... ... : ... .. . ... ... : E-5 01 7 P82 ...
ROW B4 : ... .. 7 ... ... ... : ... .. . ... ... ... : ... .. . ... : ... .. 2 ... : ... .. . ... ... : ... .. . ... ... : ... .. 3 ... ... : ... .. . P80 ...
ROW B5 : ... .. 6 ... ... ... : ... .. . ... ... ... : ... .. . ... : ... .. 0 ... : ... .. . ... ... : ... .. . ... ... : ... .. . ... ... : ... .. . P7E ...
ROW B6 : A-5 00 F ... ... ... : ... .. . ... ... ... : A-3 00 . ... : 5-# 00 F ... : ... .. . ... ... : ... .. . ... ... : G-5 01 4 ... ... : D#5 01 7 P83 ...
ROW B7 : ... .. E ... ... ... : ... .. . ... ... ... : B-2 00 . ... : ... .. C ... : ... .. . ... ... : ... .. . ... ... : ... .. . ... ... : ... .. . ... ...
ROW B8 : ... .. D ... ... ... : ... .. . ... ... ... : E-2 00 . ... : ... .. 6 ... : ... .. . ... ... : ... .. . ... ... : ... .. . ... ... : E-5 01 7 P7F ...
ROW B9 : A-4 00 8 ... ... ... : ... .. . ... ... ... : D#2 00 . ... : ... .. 3 ... : ... .. . ... ... : ... .. . ... ... : ... .. . ... ... : ... .. 6 P81 ...
ROW BA : ... .. 7 ... ... ... : ... .. . ... ... ... : A#1 00 . ... : ... .. 2 ... : ... .. . ... ... : ... .. . ... ... : ... .. 3 ... ... : F-5 01 6 P7E ...
ROW BB : ... .. 6 ... ... ... : ... .. . ... ... ... : ... .. . ... : ... .. 0 ... : ... .. . ... ... : ... .. . ... ... : ... .. . ... ... : ... .. . ... ...
ROW BC : D#5 00 F ... ... ... : ... .. . ... ... ... : A-3 00 . ... : 4-# 00 F ... : ... .. . ... ... : ... .. . ... ... : F-5 01 4 ... ... : E-5 01 6 P82 ...
ROW BD : ... .. E ... ... ... : ... .. . ... ... ... : B-2 00 . ... : ... .. C ... : ... .. . ... ... : ... .. . ... ... : ... .. . ... ... : ... .. . P80 ...
ROW BE : ... .. D ... ... ... : ... .. . ... ... ... : E-2 00 . ... : ... .. 6 ... : ... .. . ... ... : ... .. . ... ... : ... .. . ... ... : ... .. . P7E ...
ROW BF : A-5 00 8 ... ... ... : ... .. . ... ... ... : D#2 00 . ... : ... .. 3 ... : ... .. . ... ... : ... .. . ... ... : ... .. . ... ... : D#5 01 6 P83 ...
ROW C0 : ... .. 7 ... ... ... : ... .. . ... ... ... : A#1 00 . ... : ... .. 2 ... : ... .. . ... ... : ... .. . ... ... : ... .. 3 ... ... : ... .. . ... ...
ROW C1 : ... .. 6 ... ... ... : ... .. . ... ... ... : ... .. . ... : ... .. 0 ... : ... .. . ... ... : ... .. . ... ... : ... .. . ... ... : E-5 01 6 P7F ...
ROW C2 : A-4 00 F ... ... ... : ... .. . ... ... ... : ... .. . ... : 2-# 00 F ... : ... .. . ... ... : ... .. . ... ... : G-5 01 4 ... ... : ... .. . P80 ...
ROW C3 : ... .. E ... ... ... : ... .. . ... ... ... : ... .. . ... : ... .. C ... : ... .. . ... ... : ... .. . ... ... : ... .. . ... ... : F-5 01 6 P7E ...
ROW C4 : ... .. D ... ... ... : ... .. . ... ... ... : ... .. . ... : ... .. 6 ... : ... .. . ... ... : ... .. . ... ... : ... .. . ... ... : ... .. . ... ...
ROW C5 : D#5 00 8 ... ... ... : ... .. . ... ... ... : ... .. . ... : ... .. 3 ... : ... .. . ... ... : ... .. . ... ... : ... .. . ... ... : E-5 01 5 P82 ...
ROW C6 : ... .. 7 ... ... ... : ... .. . ... ... ... : ... .. . ... : ... .. 2 ... : ... .. . ... ... : ... .. . ... ... : ... .. 3 ... ... : ... .. . P80 ...
ROW C7 : ... .. 6 ... ... ... : ... .. . ... ... ... : ... .. . ... : ... .. 0 ... : ... .. . ... ... : ... .. . ... ... : ... .. . ... ... : ... .. . P7F ...
ROW C8 : D-3 00 F ... ... ... : G#2 00 F ... ... ... : G#4 00 . ... : 7-# 00 F ... : ... .. . ... ... : ... .. . ... ... : A-5 01 4 ... ... : --- .. . ... ...
ROW C9 : ... .. E ... ... ... : ... .. E ... ... ... : A#3 00 . ... : ... .. C ... : ... .. . ... ... : ... .. . ... ... : ... .. . ... ... : ... .. . ... ...
ROW CA : ... .. D ... ... ... : ... .. D ... ... ... : D#3 00 . ... : ... .. A ... : ... .. . ... ... : ... .. . ... ... : ... .. . ... ... : ... .. . ... ...
ROW CB : A-4 00 8 ... ... ... : ... .. 1 ... ... ... : D-3 00 . ... : ... .. 8 ... : ... .. . ... ... : ... .. . ... ... : ... .. . ... ... : ... .. . ... ...
ROW CC : ... .. 7 ... ... ... : ... .. . ... ... ... : A-2 00 . ... : ... .. 7 ... : ... .. . ... ... : ... .. . ... ... : A#5 01 4 ... ... : ... .. . ... ...
ROW CD : ... .. 6 ... ... ... : ... .. . ... ... ... : --- .. . ... : ... .. 4 ... : ... .. . ... ... : ... .. . ... ... : ... .. . ... ... : ... .. . ... ...
ROW CE : D-3 00 F ... ... ... : ... .. F ... ... ... : G#4 00 . ... : ... .. F ... : ... .. . ... ... : ... .. . ... ... : ... .. . ... ... : ... .. . ... ...
ROW CF : ... .. E ... ... ... : ... .. E ... ... ... : A#3 00 . ... : ... .. C ... : ... .. . ... ... : ... .. . ... ... : ... .. . ... ... : ... .. . ... ...
ROW D0 : ... .. D ... ... ... : ... .. D ... ... ... : D#3 00 . ... : ... .. A ... : ... .. . ... ... : ... .. . ... ... : A-5 01 4 ... ... : ... .. . ... ...
ROW D1 : ... .. 8 ... ... ... : ... .. 1 ... ... ... : D-3 00 . ... : ... .. 8 ... : ... .. . ... ... : ... .. . ... ... : ... .. . ... ... : ... .. . ... ...
ROW D2 : ... .. 7 ... ... ... : ... .. . ... ... ... : A-2 00 . ... : ... .. 7 ... : ... .. . ... ... : ... .. . ... ... : ... .. . ... ... : ... .. . ... ...
ROW D3 : ... .. 6 ... ... ... : ... .. . ... ... ... : --- .. . ... : ... .. 4 ... : ... .. . ... ... : ... .. . ... ... : ... .. . ... ... : ... .. . ... ...
ROW D4 : A-0 00 F ... ... ... : A-0 00 F P72 ... ... : C-5 00 . P82 : 4-# 00 F ... : ... .. . ... ... : ... .. . ... ... : E-5 01 4 ... ... : ... .. . ... ...
ROW D5 : ... .. E ... ... ... : ... .. E ... ... ... : A#4 00 . P80 : ... .. C ... : ... .. . ... ... : ... .. . ... ... : ... .. . ... ... : ... .. . ... ...
ROW D6 : ... .. D ... ... ... : ... .. D ... ... ... : G#4 00 . ... : ... .. A ... : ... .. . ... ... : ... .. . ... ... : ... .. . ... ... : ... .. . ... ...
ROW D7 : D-3 00 8 ... ... ... : ... .. A ... ... ... : F#4 00 . P81 : ... .. 8 ... : ... .. . ... ... : ... .. . ... ... : ... .. . ... ... : ... .. . ... ...
ROW D8 : ... .. 7 ... ... ... : ... .. . ... ... ... : E-4 00 . P85 : ... .. 7 ... : ... .. . ... ... : ... .. . ... ... : D#5 01 4 ... ... : ... .. . ... ...
ROW D9 : ... .. 6 ... ... ... : ... .. . ... ... ... : --- .. . ... : ... .. 4 ... : ... .. . ... ... : ... .. . ... ... : ... .. . ... ... : ... .. . ... ...
ROW DA : D#3 00 F ... ... ... : A-2 00 F P80 ... ... : F#4 00 . P81 : E-# 00 F ... : ... .. . ... ... : ... .. . ... ... : ... .. . ... ... : ... .. . ... ...
ROW DB : ... .. E ... ... ... : ... .. E ... ... ... : E-4 00 . P85 : ... .. C ... : ... .. . ... ... : ... .. . ... ... : ... .. . ... ... : ... .. . ... ...
ROW DC : ... .. D ... ... ... : ... .. D ... ... ... : D#4 00 . P80 : ... .. A ... : ... .. . ... ... : ... .. . ... ... : A-4 01 4 ... ... : ... .. . ... ...
ROW DD : A-0 00 8 ... ... ... : ... .. 1 ... ... ... : D-4 00 . P7B : ... .. 8 ... : ... .. . ... ... : ... .. . ... ... : ... .. . ... ... : ... .. . ... ...
ROW DE : ... .. 7 ... ... ... : ... .. . ... ... ... : C-4 00 . P84 : ... .. 7 ... : ... .. . ... ... : ... .. . ... ... : ... .. . ... ... : ... .. . ... ...
ROW DF : ... .. 6 ... ... ... : ... .. . ... ... ... : --- .. . ... : ... .. 4 ... : ... .. . ... ... : ... .. . ... ... : ... .. . ... ... : ... .. . ... ...
ROW E0 : D#3 00 F ... ... ... : ... .. F ... ... ... : F#4 00 . P81 : ... .. F ... : ... .. . ... ... : ... .. . ... ... : E-4 01 4 ... ... : ... .. . ... ...
ROW E1 : ... .. E ... ... ... : ... .. E ... ... ... : E-4 00 . P85 : ... .. C ... : ... .. . ... ... : ... .. . ... ... : ... .. . ... ... : ... .. . ... ...
ROW E2 : ... .. D ... ... ... : ... .. D ... ... ... : D#4 00 . P80 : ... .. A ... : ... .. . ... ... : ... .. . ... ... : ... .. . ... ... : ... .. . ... ...
ROW E3 : ... .. 8 ... ... ... : ... .. 1 ... ... ... : D-4 00 . P7B : ... .. 8 ... : ... .. . ... ... : ... .. . ... ... : ... .. . ... ... : ... .. . ... ...
ROW E4 : ... .. 7 ... ... ... : ... .. . ... ... ... : C-4 00 . P84 : ... .. 7 ... : ... .. . ... ... : ... .. . ... ... : D#4 01 4 ... ... : ... .. . ... ...
ROW E5 : ... .. 6 ... ... ... : ... .. . ... ... ... : --- .. . ... : ... .. 4 ... : ... .. . ... ... : ... .. . ... ... : ... .. . ... ... : ... .. . ... ...
ROW E6 : A-0 00 F ... ... ... : A-0 00 F P72 ... ... : F#3 00 . P82 : 5-# 00 F ... : ... .. . ... ... : ... .. . ... ... : ... .. . ... ... : ... .. . ... ...
ROW E7 : ... .. E ... ... ... : ... .. E ... ... ... : F-3 00 . P85 : ... .. C ... : ... .. . ... ... : ... .. . ... ... : ... .. . ... ... : ... .. . ... ...
ROW E8 : ... .. D ... ... ... : ... .. D ... ... ... : E-3 00 . P89 : ... .. A ... : ... .. . ... ... : ... .. . ... ... : A-3 01 4 ... ... : ... .. . ... ...
ROW E9 : D#3 00 8 ... ... ... : ... .. A ... ... ... : ... .. . P7A : ... .. 8 ... : ... .. . ... ... : ... .. . ... ... : ... .. . ... ... : ... .. . ... ...
ROW EA : ... .. 7 ... ... ... : ... .. . ... ... ... : D#3 00 . P80 : ... .. 7 ... : ... .. . ... ... : ... .. . ... ... : ... .. . ... ... : ... .. . ... ...
ROW EB : ... .. 6 ... ... ... : ... .. . ... ... ... : --- .. . ... : ... .. 4 ... : ... .. . ... ... : ... .. . ... ... : ... .. . ... ... : ... .. . ... ...
ROW EC : E-3 00 F ... ... ... : A#2 00 F P80 ... ... : F#3 00 . P82 : B-# 00 F ... : ... .. . ... ... : ... .. . ... ... : C-3 01 4 ... ... : ... .. . ... ...
ROW ED : ... .. E ... ... ... : ... .. E ... ... ... : F-3 00 . P85 : ... .. C ... : ... .. . ... ... : ... .. . ... ... : ... .. . ... ... : ... .. . ... ...
ROW EE : ... .. D ... ... ... : ... .. D ... ... ... : E-3 00 . P89 : ... .. A ... : ... .. . ... ... : ... .. . ... ... : ... .. . ... ... : ... .. . ... ...
ROW EF : A-0 00 8 ... ... ... : ... .. 1 ... ... ... : ... .. . P7A : ... .. 8 ... : ... .. . ... ... : ... .. . ... ... : ... .. . ... ... : ... .. . ... ...
ROW F0 : ... .. 7 ... ... ... : ... .. . ... ... ... : D#3 00 . P80 : ... .. 7 ... : ... .. . ... ... : ... .. . ... ... : B-2 01 4 ... ... : ... .. . ... ...
ROW F1 : ... .. 6 ... ... ... : ... .. . ... ... ... : --- .. . ... : ... .. 4 ... : ... .. . ... ... : ... .. . ... ... : ... .. . ... ... : ... .. . ... ...
ROW F2 : E-3 00 F ... ... ... : ... .. F ... ... ... : A#2 00 . P8C : ... .. F ... : ... .. . ... ... : ... .. . ... ... : ... .. . ... ... : ... .. . ... ...
ROW F3 : ... .. E ... ... ... : ... .. E ... ... ... : ... .. . P7D : ... .. C ... : ... .. . ... ... : ... .. . ... ... : ... .. . ... ... : ... .. . ... ...
ROW F4 : ... .. D ... ... ... : ... .. D ... ... ... : A-2 00 . P8A : ... .. A ... : ... .. . ... ... : ... .. . ... ... : F-2 01 4 ... ... : ... .. . ... ...
ROW F5 : ... .. 8 ... ... ... : ... .. 1 ... ... ... : ... .. . P7B : ... .. 8 ... : ... .. . ... ... : ... .. . ... ... : ... .. . ... ... : ... .. . ... ...
ROW F6 : ... .. 7 ... ... ... : ... .. . ... ... ... : G#2 00 . P8B : ... .. 7 ... : ... .. . ... ... : ... .. . ... ... : ... .. . ... ... : ... .. . ... ...
ROW F7 : ... .. 6 ... ... ... : ... .. . ... ... ... : --- .. . ... : ... .. 4 ... : ... .. . ... ... : ... .. . ... ... : ... .. . ... ... : ... .. . ... ...
ROW F8 : A-0 00 F ... ... ... : A-0 00 F P72 ... ... : A#2 00 . P8C : 9-# 00 F ... : ... .. . ... ... : ... .. . ... ... : D-2 01 4 ... ... : ... .. . ... ...
ROW F9 : ... .. E ... ... ... : ... .. E ... ... ... : ... .. . P7D : ... .. C ... : ... .. . ... ... : ... .. . ... ... : ... .. . ... ... : ... .. . ... ...
ROW FA : ... .. D ... ... ... : ... .. D ... ... ... : A-2 00 . P8A : ... .. A ... : ... .. . ... ... : ... .. . ... ... : ... .. . ... ... : ... .. . ... ...
ROW FB : E-3 00 8 ... ... ... : ... .. A ... ... ... : ... .. . P7B : ... .. 8 ... : ... .. . ... ... : ... .. . ... ... : ... .. . ... ... : ... .. . ... ...
ROW FC : ... .. 7 ... ... ... : ... .. . ... ... ... : G#2 00 . P8B : ... .. 7 ... : ... .. . ... ... : ... .. . ... ... : C#2 01 4 ... ... : ... .. . ... ...
ROW FD : ... .. 6 ... ... ... : ... .. . ... ... ... : --- .. . ... : ... .. 4 ... : ... .. . ... ... : ... .. . ... ... : ... .. . ... ... : ... .. . ... ...
ROW FE : F-3 00 F ... ... ... : B-2 00 F P80 ... ... : F-2 00 . P71 : ... .. F ... : ... .. . ... ... : ... .. . ... ... : ... .. . ... ... : ... .. . ... ...
ROW FF : ... .. E ... ... ... : ... .. E ... ... ... : E-2 00 . P88 : ... .. C ... : ... .. . ... ... : ... .. . ... ... : ... .. . ... ... : ... .. . ... ...

PATTERN 02
ROW 00 : ... .. D ... ... ... : ... .. D ... ... ... : ... .. . P79 : ... .. A ... : ... .. . ... ... : ... .. . ... ... : G-1 01 4 ... ... : ... .. . ... ...
ROW 01 : A-0 00 8 ... ... ... : ... .. 1 ... ... ... : D#2 00 . P92 : ... .. 8 ... : ... .. . ... ... : ... .. . ... ... : ... .. . ... ... : ... .. . ... ...
ROW 02 : ... .. 7 ... ... ... : ... .. . ... ... ... : ... .. . P83 : ... .. 7 ... : ... .. . ... ... : ... .. . ... ... : ... .. . ... ... : ... .. . ... ...
ROW 03 : ... .. 6 ... ... ... : ... .. . ... ... ... : --- .. . ... : ... .. 4 ... : ... .. . ... ... : ... .. . ... ... : ... .. . ... ... : ... .. . ... ...
ROW 04 : F-3 00 F ... ... ... : ... .. F ... ... ... : F-2 00 . P71 : 7-# 00 F ... : ... .. . ... ... : ... .. . ... ... : --- .. . P83 ... : ... .. . ... ...
ROW 05 : ... .. E ... ... ... : ... .. E ... ... ... : E-2 00 . P88 : ... .. C ... : ... .. . ... ... : ... .. . ... ... : ... .. . ... ... : ... .. . ... ...
ROW 06 : ... .. D ... ... ... : ... .. D ... ... ... : ... .. . P79 : ... .. A ... : ... .. . ... ... : ... .. . ... ... : ... .. . ... ... : ... .. . ... ...
ROW 07 : ... .. 8 ... ... ... : ... .. 1 ... ... ... : D#2 00 . P92 : ... .. 8 ... : ... .. . ... ... : ... .. . ... ... : ... .. . ... ... : ... .. . ... ...
ROW 08 : ... .. 7 ... ... ... : ... .. . ... ... ... : ... .. . P83 : ... .. 7 ... : ... .. . ... ... : ... .. . ... ... : ... .. . ... ... : ... .. . ... ...
ROW 09 : ... .. 6 ... ... ... : ... .. . ... ... ... : --- .. . ... : ... .. 4 ... : ... .. . ... ... : ... .. . ... ... : ... .. . ... ... : ... .. . ... ...
ROW 0A : A-0 00 F ... ... ... : A-0 00 F P72 ... ... : A#1 00 . P71 : ... .. F ... : ... .. . ... ... : ... .. . ... ... : ... .. . ... ... : ... .. . ... ...
ROW 0B : ... .. E ... ... ... : ... .. E ... ... ... : A-1 00 . P9B : ... .. C ... : ... .. . ... ... : ... .. . ... ... : ... .. . ... ... : ... .. . ... ...
ROW 0C : ... .. D ... ... ... : ... .. D ... ... ... : ... .. . P8C : ... .. A ... : ... .. . ... ... : ... .. . ... ... : ... .. . ... ... : ... .. . ... ...
ROW 0D : F-3 00 8 ... ... ... : ... .. A ... ... ... : ... .. . P7D : ... .. 8 ... : ... .. . ... ... : ... .. . ... ... : ... .. . ... ... : ... .. . ... ...
ROW 0E : ... .. 7 ... ... ... : ... .. . ... ... ... : ... .. . P6E : ... .. 7 ... : ... .. . ... ... : ... .. . ... ... : ... .. . ... ... : ... .. . ... ...
ROW 0F : ... .. 6 ... ... ... : ... .. . ... ... ... : --- .. . ... : ... .. 4 ... : ... .. . ... ... : ... .. . ... ... : ... .. . ... ... : ... .. . ... ...
ROW 10 : E-3 00 F ... ... ... : ... .. 0 ... ... ... : G#4 00 . P80 : B-# 00 D ... : ... .. . ... ... : C-4 01 A ... V03 : E-4 01 A P80 V03 : A-3 01 A ... ...
ROW 11 : ... .. E ... ... ... : ... .. . ... ... ... : A#3 00 . ... : ... .. B ... : ... .. . ... ... : ... .. 9 ... ... : ... .. 9 ... ... : ... .. 8 P7D ...
ROW 12 : ... .. D ... ... ... : ... .. . ... ... ... : D#3 00 . ... : ... .. . ... : ... .. . ... ... : ... .. 8 ... ... : ... .. 8 ... ... : ... .. 5 ... ...
ROW 13 : ... .. A ... ... ... : ... .. . ... ... ... : D-3 00 . ... : ... .. A ... : ... .. . ... ... : ... .. 1 ... ... : ... .. 1 ... ... : ... .. 2 P7E ...
ROW 14 : ... .. . ... ... ... : ... .. . ... ... ... : A-2 00 . ... : ... .. 8 ... : ... .. . ... ... : ... .. . ... ... : ... .. . ... ... : ... .. . P80 ...
ROW 15 : ... .. . ... ... ... : ... .. . ... ... ... : ... .. . ... : ... .. 7 ... : ... .. . ... ... : ... .. . ... ... : ... .. . ... ... : ... .. . P82 ...
ROW 16 : ... .. . ... ... ... : ... .. . ... ... ... : ... .. . ... : ... .. 6 ... : ... .. . ... ... : ... .. A ... ... : ... .. A ... ... : ... .. A P83 ...
ROW 17 : ... .. . ... ... ... : ... .. . ... ... ... : ... .. . ... : ... .. . ... : ... .. . ... ... : ... .. 9 ... ... : ... .. 9 ... ... : ... .. 8 ... ...
ROW 18 : ... .. . ... ... ... : ... .. . ... ... ... : ... .. . ... : ... .. 5 ... : ... .. . ... ... : ... .. 8 ... ... : ... .. 8 ... ... : ... .. 5 P81 ...
ROW 19 : ... .. . ... ... ... : ... .. . ... ... ... : ... .. . ... : ... .. . ... : ... .. . ... ... : ... .. 1 ... ... : ... .. 1 ... ... : ... .. 2 P7F ...
ROW 1A : ... .. . ... ... ... : ... .. . ... ... ... : ... .. . ... : ... .. 4 ... : ... .. . ... ... : ... .. . ... ... : ... .. . ... ... : ... .. . P7D ...
ROW 1B : ... .. . ... ... ... : ... .. . ... ... ... : --- .. . ... : ... .. . ... : ... .. . ... ... : ... .. . ... ... : ... .. . ... ... : ... .. . ... ...
ROW 1C : ... .. . ... ... ... : E-3 00 6 P80 ... ... : A-3 00 . ... : ... .. 3 ... : ... .. . ... ... : ... .. A ... ... : ... .. A ... ... : ... .. A P7E ...
ROW 1D : ... .. . ... ... ... : ... .. 5 ... ... ... : ... .. . ... : ... .. 2 ... : ... .. . ... ... : ... .. 9 ... ... : ... .. 9 ... ... : ... .. 8 P80 ...
ROW 1E : ... .. . ... ... ... : ... .. . ... ... ... : ... .. . ... : ... .. . ... : ... .. . ... ... : ... .. 8 ... ... : ... .. 8 ... ... : ... .. 5 P82 ...
ROW 1F : ... .. . ... ... ... : ... .. 4 ... ... ... : ... .. . ... : ... .. 1 ... : ... .. . ... ... : ... .. 1 ... ... : ... .. 1 ... ... : ... .. 2 P83 ...
ROW 20 : ... .. . ... ... ... : ... .. . ... ... ... : ... .. . ... : ... .. 0 ... : ... .. . ... ... : ... .. . ... ... : ... .. . ... ... : ... .. . ... ...
ROW 21 : ... .. . ... ... ... : ... .. . ... ... ... : --- .. . ... : ... .. . ... : ... .. . ... ... : ... .. . ... ... : ... .. . ... ... : ... .. . P81 ...
ROW 22 : ... .. . ... ... ... : ... .. . ... ... ... : G#3 00 . ... : 9-# 00 8 ... : ... .. . ... ... : ... .. A ... ... : ... .. A ... ... : ... .. A P80 ...
ROW 23 : ... .. . ... ... ... : ... .. . ... ... ... : ... .. . ... : ... .. 6 ... : ... .. . ... ... : ... .. 9 ... ... : ... .. 9 ... ... : ... .. 8 P7D ...
ROW 24 : ... .. . ... ... ... : ... .. . ... ... ... : ... .. . ... : ... .. 3 ... : ... .. . ... ... : ... .. 8 ... ... : ... .. 8 ... ... : ... .. 5 ... ...
ROW 25 : ... .. . ... ... ... : ... .. . ... ... ... : ... .. . ... : ... .. 1 ... : ... .. . ... ... : ... .. 1 ... ... : ... .. 1 ... ... : ... .. 2 P7E ...
ROW 26 : ... .. . ... ... ... : ... .. . ... ... ... : ... .. . ... : ... .. . ... : ... .. . ... ... : ... .. . ... ... : ... .. . ... ... : ... .. . P80 ...
ROW 27 : ... .. . ... ... ... : ... .. . ... ... ... : --- .. . ... : ... .. 0 ... : ... .. . ... ... : ... .. . ... ... : ... .. . ... ... : ... .. . P81 ...
ROW 28 : ... .. . ... ... ... : ... .. . ... ... ... : G-4 00 . ... : ... .. D ... : ... .. . ... ... : B-3 01 A ... ... : D#4 01 A ... ... : G#3 01 A P83 ...
ROW 29 : F-3 00 A P86 ... ... : ... .. . ... ... ... : A-3 00 . ... : ... .. B ... : ... .. . ... ... : ... .. 9 ... ... : ... .. 9 ... ... : ... .. 8 ... ...
ROW 2A : G-3 00 A P7C ... ... : ... .. . ... ... ... : D-3 00 . ... : ... .. . ... : ... .. . ... ... : ... .. 8 ... ... : ... .. 8 ... ... : ... .. 5 P81 ...
ROW 2B : G#3 00 A P85 ... ... : ... .. . ... ... ... : C#3 00 . ... : ... .. A ... : ... .. . ... ... : ... .. 1 ... ... : ... .. 1 ... ... : ... .. 2 P80 ...
ROW 2C : A#3 00 A P81 ... ... : ... .. . ... ... ... : G#2 00 . ... : ... .. 8 ... : ... .. . ... ... : ... .. . ... ... : ... .. . ... ... : ... .. . P7E ...
ROW 2D : C-4 00 A P80 ... ... : ... .. . ... ... ... : ... .. . ... : ... .. 7 ... : ... .. . ... ... : ... .. . ... ... : ... .. . ... ... : ... .. . P7D ...
ROW 2E : D-4 00 A P81 ... ... : ... .. . ... ... ... : A-2 00 . ... : 7-# 00 8 ... : ... .. . ... ... : ... .. A ... ... : ... .. A ... ... : ... .. A ... ...
ROW 2F : D#4 00 A P80 ... ... : ... .. . ... ... ... : ... .. . ... : ... .. 6 ... : ... .. . ... ... : ... .. 9 ... ... : ... .. 9 ... ... : ... .. 8 P80 ...
ROW 30 : ... .. . ... ... ... : ... .. . ... ... ... : ... .. . ... : ... .. 3 ... : ... .. . ... ... : ... .. 8 ... ... : ... .. 8 ... ... : ... .. 5 P81 ...
ROW 31 : ... .. . ... ... ... : ... .. . ... ... ... : ... .. . ... : ... .. 1 ... : ... .. . ... ... : ... .. 1 ... ... : ... .. 1 ... ... : ... .. 2 P83 ...
ROW 32 : ... .. . ... ... ... : ... .. . ... ... ... : ... .. . ... : ... .. . ... : ... .. . ... ... : ... .. . ... ... : ... .. . ... ... : ... .. . ... ...
ROW 33 : ... .. . ... ... ... : ... .. . ... ... ... : --- .. . ... : ... .. 0 ... : ... .. . ... ... : ... .. . ... ... : ... .. . ... ... : ... .. . P82 ...
ROW 34 : ... .. . ... ... ... : ... .. . ... ... ... : C-4 00 . ... : A-# 00 F ... : ... .. . ... ... : ... .. A ... ... : ... .. A ... ... : ... .. A P80 ...
ROW 35 : ... .. . ... ... ... : F-3 00 4 P86 ... ... : ... .. . ... : ... .. C ... : ... .. . ... ... : ... .. 9 ... ... : ... .. 9 ... ... : ... .. 8 P7E ...
ROW 36 : ... .. . ... ... ... : G-3 00 4 P7C ... ... : ... .. . ... : ... .. 6 ... : ... .. . ... ... : ... .. 8 ... ... : ... .. 8 ... ... : ... .. 5 P7D ...
ROW 37 : ... .. . ... ... ... : G#3 00 4 P85 ... ... : ... .. . ... : ... .. 3 ... : ... .. . ... ... : ... .. 1 ... ... : ... .. 1 ... ... : ... .. 2 ... ...
ROW 38 : ... .. . ... ... ... : A#3 00 4 P81 ... ... : ... .. . ... : ... .. 2 ... : ... .. . ... ... : ... .. . ... ... : ... .. . ... ... : ... .. . P7F ...
ROW 39 : ... .. . ... ... ... : C-4 00 4 P80 ... ... : --- .. . ... : ... .. 0 ... : ... .. . ... ... : ... .. . ... ... : ... .. . ... ... : ... .. . P81 ...
ROW 3A : ... .. . ... ... ... : D-4 00 4 P81 ... ... : D#2 00 . ... : E-# 00 8 ... : ... .. . ... ... : ... .. A ... ... : ... .. A ... ... : ... .. A P83 ...
ROW 3B : ... .. . ... ... ... : D#4 00 4 P80 ... ... : ... .. . ... : ... .. 6 ... : ... .. . ... ... : ... .. 9 ... ... : ... .. 9 ... ... : ... .. 8 ... ...
ROW 3C : ... .. . ... ... ... : ... .. . ... ... ... : ... .. . ... : ... .. 3 ... : ... .. . ... ... : ... .. 8 ... ... : ... .. 8 ... ... : ... .. 5 P82 ...
ROW 3D : ... .. . ... ... ... : ... .. . ... ... ... : ... .. . ... : ... .. 1 ... : ... .. . ... ... : ... .. 1 ... ... : ... .. 1 ... ... : ... .. 2 P80 ...
ROW 3E : ... .. . ... ... ... : ... .. . ... ... ... : ... .. . ... : ... .. . ... : ... .. . ... ... : ... .. . ... ... : ... .. . ... ... : ... .. . P7E ...
ROW 3F : ... .. . ... ... ... : ... .. . ... ... ... : --- .. . ... : ... .. 0 ... : ... .. . ... ... : ... .. . ... ... : ... .. . ... ... : ... .. . P7D ...
ROW 40 : ... .. . ... ... ... : ... .. . ... ... ... : G#3 00 . ... : 1-# 00 F ... : ... .. . ... ... : C-4 01 A ... ... : E-4 01 A ... ... : A-3 01 A ... ...
ROW 41 : ... .. . ... ... ... : ... .. . ... ... ... : A#2 00 . ... : ... .. C ... : ... .. . ... ... : ... .. 9 ... ... : ... .. 9 ... ... : ... .. 8 P7F ...
ROW 42 : ... .. . ... ... ... : ... .. . ... ... ... : D#2 00 . ... : ... .. 6 ... : ... .. . ... ... : ... .. 8 ... ... : ... .. 8 ... ... : ... .. 5 P80 ...
ROW 43 : ... .. . ... ... ... : ... .. . ... ... ... : D-2 00 . ... : ... .. 3 ... : ... .. . ... ... : ... .. 1 ... ... : ... .. 1 ... ... : ... .. 2 P83 ...
ROW 44 : ... .. . ... ... ... : ... .. . ... ... ... : A-1 00 . ... : ... .. 2 ... : ... .. . ... ... : ... .. . ... ... : ... .. . ... ... : ... .. . ... ...
ROW 45 : ... .. . ... ... ... : ... .. . ... ... ... : ... .. . ... : ... .. 0 ... : ... .. . ... ... : ... .. . ... ... : ... .. . ... ... : ... .. . P82 ...
ROW 46 : ... .. . ... ... ... : ... .. . ... ... ... : A-2 00 . ... : 9-# 00 8 ... : ... .. . ... ... : ... .. A ... ... : ... .. A ... ... : ... .. A P80 ...
ROW 47 : ... .. . ... ... ... : ... .. . ... ... ... : ... .. . ... : ... .. 6 ... : ... .. . ... ... : ... .. 9 ... ... : ... .. 9 ... ... : ... .. 8 P7F ...
ROW 48 : ... .. . ... ... ... : ... .. . ... ... ... : ... .. . ... : ... .. 3 ... : ... .. . ... ... : ... .. 8 ... ... : ... .. 8 ... ... : ... .. 5 P7D ...
ROW 49 : ... .. . P84 ... ... : ... .. . ... ... ... : ... .. . ... : ... .. 1 ... : ... .. . ... ... : ... .. 1 ... ... : ... .. 1 ... ... : ... .. 2 ... ...
ROW 4A : E-4 00 A P7C ... ... : ... .. . ... ... ... : ... .. . ... : ... .. . ... : ... .. . ... ... : ... .. . ... ... : ... .. . ... ... : ... .. . P7F ...
ROW 4B : D#4 00 A P85 ... ... : ... .. . ... ... ... : --- .. . ... : ... .. 0 ... : ... .. . ... ... : ... .. . ... ... : ... .. . ... ... : ... .. . P80 ...
ROW 4C : ... .. . P82 ... ... : ... .. . ... ... ... : A-3 00 . ... : 1-# 00 F ... : ... .. . ... ... : ... .. A ... ... : ... .. A ... ... : ... .. A P82 ...
ROW 4D : ... .. . P7E ... ... : ... .. . ... ... ... : ... .. . ... : ... .. C ... : ... .. . ... ... : ... .. 9 ... ... : ... .. 9 ... ... : ... .. 8 P83 ...
ROW 4E : D-4 00 A P85 ... ... : ... .. . ... ... ... : ... .. . ... : ... .. 6 ... : ... .. . ... ... : ... .. 8 ... ... : ... .. 8 ... ... : ... .. 5 ... ...
ROW 4F : ... .. 9 P84 ... ... : ... .. . ... ... ... : ... .. . ... : ... .. 3 ... : ... .. . ... ... : ... .. 1 ... ... : ... .. 1 ... ... : ... .. 2 P80 ...
ROW 50 : D#4 00 9 P7C ... ... : ... .. . ... ... ... : ... .. . ... : ... .. 2 ... : ... .. . ... ... : ... .. . ... ... : ... .. . ... ... : ... .. . P7F ...
ROW 51 : ... .. . P80 ... ... : ... .. . ... ... ... : --- .. . ... : ... .. 0 ... : ... .. . ... ... : ... .. . ... ... : ... .. . ... ... : ... .. . P7D ...
ROW 52 : ... .. 8 P83 ... ... : ... .. . ... ... ... : A-2 00 . ... : 9-# 00 8 ... : ... .. . ... ... : ... .. A ... ... : ... .. A ... ... : ... .. A ... ...
ROW 53 : E-4 00 8 P7C ... ... : ... .. . ... ... ... : ... .. . ... : ... .. 6 ... : ... .. . ... ... : ... .. 9 ... ... : ... .. 9 ... ... : ... .. 8 P7E ...
ROW 54 : ... .. . ... ... ... : ... .. . ... ... ... : ... .. . ... : ... .. 3 ... : ... .. . ... ... : ... .. 8 ... ... : ... .. 8 ... ... : ... .. 5 P80 ...
ROW 55 : D#4 00 8 P82 ... ... : ... .. . P84 ... ... : ... .. . ... : ... .. 1 ... : ... .. . ... ... : ... .. 1 ... ... : ... .. 1 ... ... : ... .. 2 P82 ...
ROW 56 : ... .. . P7F ... ... : E-4 00 4 P7C ... ... : ... .. . ... : ... .. . ... : ... .. . ... ... : ... .. . ... ... : ... .. . ... ... : ... .. . P83 ...
ROW 57 : D-4 00 8 P85 ... ... : D#4 00 4 P85 ... ... : --- .. . ... : ... .. 0 ... : ... .. . ... ... : ... .. . ... ... : ... .. . ... ... : ... .. . ... ...
ROW 58 : ... .. . P84 ... ... : ... .. . P82 ... ... : A-4 00 . ... : ... .. D ... : ... .. . ... ... : C#4 01 A ... ... : F-4 01 A ... ... : A#3 01 A P81 ...
ROW 59 : D#4 00 8 P7C ... ... : ... .. . P7E ... ... : B-3 00 . ... : ... .. B ... : ... .. . ... ... : ... .. 9 ... ... : ... .. 9 ... ... : ... .. 8 P7F ...
ROW 5A : ... .. . P80 ... ... : D-4 00 4 P85 ... ... : E-3 00 . ... : ... .. . ... : ... .. . ... ... : ... .. 8 ... ... : ... .. 8 ... ... : ... .. 5 P7D ...
ROW 5B : ... .. . P83 ... ... : ... .. 3 P84 ... ... : D#3 00 . ... : ... .. A ... : ... .. . ... ... : ... .. 1 ... ... : ... .. 1 ... ... : ... .. 2 ... ...
ROW 5C : E-4 00 8 P7C ... ... : D#4 00 3 P7C ... ... : A#2 00 . ... : ... .. 8 ... : ... .. . ... ... : ... .. . ... ... : ... .. . ... ... : ... .. . P7E ...
ROW 5D : ... .. . ... ... ... : ... .. . P80 ... ... : ... .. . ... : ... .. 7 ... : ... .. . ... ... : ... .. . ... ... : ... .. . ... ... : ... .. . P80 ...
ROW 5E : D#4 00 7 P83 ... ... : ... .. 2 P83 ... ... : A-2 00 . ... : 7-# 00 8 ... : ... .. . ... ... : ... .. A ... ... : ... .. A ... ... : ... .. A P82 ...
ROW 5F : ... .. . P80 ... ... : E-4 00 2 P7C ... ... : ... .. . ... : ... .. 6 ... : ... .. . ... ... : ... .. 9 ... ... : ... .. 9 ... ... : ... .. 8 P83 ...
ROW 60 : ... .. . P7C ... ... : ... .. . ... ... ... : ... .. . ... : ... .. 3 ... : ... .. . ... ... : ... .. 8 ... ... : ... .. 8 ... ... : ... .. 5 ... ...
ROW 61 : D-4 00 6 P84 ... ... : D#4 00 2 P82 ... ... : ... .. . ... : ... .. 1 ... : ... .. . ... ... : ... .. 1 ... ... : ... .. 1 ... ... : ... .. 2 P81 ...
ROW 62 : ... .. . P85 ... ... : ... .. . P7F ... ... : ... .. . ... : ... .. . ... : ... .. . ... ... : ... .. . ... ... : ... .. . ... ... : ... .. . P80 ...
ROW 63 : D#4 00 6 P7F ... ... : D-4 00 2 P85 ... ... : --- .. . ... : ... .. 0 ... : ... .. . ... ... : ... .. . ... ... : ... .. . ... ... : ... .. . P7D ...
ROW 64 : ... .. . P82 ... ... : ... .. . P84 ... ... : G-3 00 . ... : A-# 00 F ... : ... .. . ... ... : ... .. A ... ... : ... .. A ... ... : ... .. A ... ...
ROW 65 : E-4 00 6 P7C ... ... : D#4 00 2 P7C ... ... : ... .. . ... : ... .. C ... : ... .. . ... ... : ... .. 9 ... ... : ... .. 9 ... ... : ... .. 8 P7E ...
ROW 66 : ... .. . ... ... ... : ... .. . P80 ... ... : ... .. . ... : ... .. 6 ... : ... .. . ... ... : ... .. 8 ... ... : ... .. 8 ... ... : ... .. 5 P80 ...
ROW 67 : D#4 00 6 P83 ... ... : ... .. . P83 ... ... : ... .. . ... : ... .. 3 ... : ... .. . ... ... : ... .. 1 ... ... : ... .. 1 ... ... : ... .. 2 P81 ...
ROW 68 : ... .. . P80 ... ... : E-4 00 2 P7C ... ... : ... .. . ... : ... .. 2 ... : ... .. . ... ... : ... .. . ... ... : ... .. . ... ... : ... .. . P83 ...
ROW 69 : ... .. . P7C ... ... : ... .. . ... ... ... : --- .. . ... : ... .. 0 ... : ... .. . ... ... : ... .. . ... ... : ... .. . ... ... : ... .. . ... ...
ROW 6A : D-4 00 6 P84 ... ... : D#4 00 1 P83 ... ... : A-2 00 . ... : E-# 00 8 ... : ... .. . ... ... : ... .. A ... ... : ... .. A ... ... : ... .. A P81 ...
ROW 6B : ... .. . P85 ... ... : ... .. . P80 ... ... : ... .. . ... : ... .. 6 ... : ... .. . ... ... : ... .. 9 ... ... : ... .. 9 ... ... : ... .. 8 P80 ...
ROW 6C : D#4 00 6 P7E ... ... : ... .. . P7C ... ... : ... .. . ... : ... .. 3 ... : ... .. . ... ... : ... .. 8 ... ... : ... .. 8 ... ... : ... .. 5 P7E ...
ROW 6D : ... .. 5 P82 ... ... : D-4 00 1 P84 ... ... : ... .. . ... : ... .. 1 ... : ... .. . ... ... : ... .. 1 ... ... : ... .. 1 ... ... : ... .. 2 P7D ...
ROW 6E : ... .. . P85 ... ... : ... .. . P85 ... ... : ... .. . ... : ... .. . ... : ... .. . ... ... : ... .. . ... ... : ... .. . ... ... : ... .. . ... ...
ROW 6F : E-4 00 5 P7C ... ... : D#4 00 1 P7F ... ... : --- .. . ... : ... .. 0 ... : ... .. . ... ... : ... .. . ... ... : ... .. . ... ... : ... .. . P80 ...
ROW 70 : C-4 00 8 P80 ... ... : ... .. . P82 ... ... : G#4 00 . ... : 1-# 00 F ... : ... .. . ... ... : C-4 01 A ... ... : E-4 01 A ... ... : A-3 01 A P81 ...
ROW 71 : ... .. 7 ... ... ... : E-4 00 1 P7C ... ... : A#3 00 . ... : ... .. C ... : ... .. . ... ... : ... .. 9 ... ... : ... .. 9 ... ... : ... .. 8 P83 ...
ROW 72 : ... .. 6 ... ... ... : ... .. . ... ... ... : D#3 00 . ... : ... .. 6 ... : ... .. . ... ... : ... .. 8 ... ... : ... .. 8 ... ... : ... .. 5 ... ...
ROW 73 : ... .. 5 ... ... ... : D#4 00 1 P83 ... ... : D-3 00 . ... : ... .. 3 ... : ... .. . ... ... : ... .. 1 ... ... : ... .. 1 ... ... : ... .. 2 P82 ...
ROW 74 : ... .. . ... ... ... : ... .. . P80 ... ... : A-2 00 . ... : ... .. 2 ... : ... .. . ... ... : ... .. . ... ... : ... .. . ... ... : ... .. . P80 ...
ROW 75 : ... .. . ... ... ... : ... .. . P7C ... ... : ... .. . ... : ... .. 0 ... : ... .. . ... ... : ... .. . ... ... : ... .. . ... ... : ... .. . P7E ...
ROW 76 : ... .. 6 ... ... ... : D-4 00 1 P84 ... ... : ... .. . ... : 9-# 00 8 ... : ... .. . ... ... : ... .. A ... ... : ... .. A ... ... : ... .. A P7D ...
ROW 77 : ... .. . ... ... ... : ... .. . P85 ... ... : ... .. . ... : ... .. 6 ... : ... .. . ... ... : ... .. 9 ... ... : ... .. 9 ... ... : ... .. 8 ... ...
ROW 78 : ... .. . ... ... ... : D#4 00 1 P7E ... ... : ... .. . ... : ... .. 3 ... : ... .. . ... ... : ... .. 8 ... ... : ... .. 8 ... ... : ... .. 5 P7F ...
ROW 79 : ... .. . ... ... ... : ... .. . P82 ... ... : ... .. . ... : ... .. 1 ... : ... .. . ... ... : ... .. 1 ... ... : ... .. 1 ... ... : ... .. 2 P81 ...
ROW 7A : ... .. . ... ... ... : ... .. . P85 ... ... : ... .. . ... : ... .. . ... : ... .. . ... ... : ... .. . ... ... : ... .. . ... ... : ... .. . P83 ...
ROW 7B : ... .. . ... ... ... : E-4 00 1 P7C ... ... : --- .. . ... : ... .. 0 ... : ... .. . ... ... : ... .. . ... ... : ... .. . ... ... : ... .. . ... ...
ROW 7C : ... .. 7 ... ... ... : C-4 00 1 P80 ... ... : A-3 00 . ... : B-# 00 F ... : ... .. . ... ... : ... .. A ... ... : ... .. A ... ... : ... .. A P82 ...
ROW 7D : ... .. . ... ... ... : ... .. . ... ... ... : ... .. . ... : ... .. C ... : ... .. . ... ... : ... .. 9 ... ... : ... .. 9 ... ... : ... .. 8 P80 ...
ROW 7E : ... .. . ... ... ... : ... .. . ... ... ... : ... .. . ... : ... .. 6 ... : ... .. . ... ... : ... .. 8 ... ... : ... .. 8 ... ... : ... .. 5 P7E ...
ROW 7F : ... .. 8 ... ... ... : ... .. . ... ... ... : ... .. . ... : ... .. 3 ... : ... .. . ... ... : ... .. 1 ... ... : ... .. 1 ... ... : ... .. 2 P7D ...
ROW 80 : ... .. . ... ... ... : ... .. . ... ... ... : ... .. . ... : ... .. 2 ... : ... .. . ... ... : ... .. . ... ... : ... .. . ... ... : ... .. . ... ...
ROW 81 : ... .. . ... ... ... : ... .. . ... ... ... : --- .. . ... : ... .. 0 ... : ... .. . ... ... : ... .. . ... ... : ... .. . ... ... : ... .. . P7F ...
ROW 82 : ... .. . ... ... ... : ... .. . ... ... ... : G#3 00 . ... : 9-# 00 8 ... : ... .. . ... ... : ... .. A ... ... : ... .. A ... ... : ... .. A P80 ...
ROW 83 : ... .. . ... ... ... : ... .. . ... ... ... : ... .. . ... : ... .. 6 ... : ... .. . ... ... : ... .. 9 ... ... : ... .. 9 ... ... : ... .. 8 P83 ...
ROW 84 : ... .. . ... ... ... : ... .. . ... ... ... : ... .. . ... : ... .. 3 ... : ... .. . ... ... : ... .. 8 ... ... : ... .. 8 ... ... : ... .. 5 ... ...
ROW 85 : ... .. 9 ... ... ... : ... .. . ... ... ... : ... .. . ... : ... .. 1 ... : ... .. . ... ... : ... .. 1 ... ... : ... .. 1 ... ... : ... .. 2 P82 ...
ROW 86 : ... .. . ... ... ... : ... .. . ... ... ... : ... .. . ... : ... .. . ... : ... .. . ... ... : ... .. . ... ... : ... .. . ... ... : ... .. . P80 ...
ROW 87 : ... .. . ... ... ... : ... .. . ... ... ... : --- .. . ... : ... .. 0 ... : ... .. . ... ... : ... .. . ... ... : ... .. . ... ... : ... .. . P7F ...
ROW 88 : ... .. A ... ... ... : ... .. . ... ... ... : G-4 00 . ... : ... .. D ... : ... .. . ... ... : B-3 01 A ... ... : D#4 01 A ... ... : G#3 01 A P7D ...
ROW 89 : C#4 00 A P83 ... ... : ... .. . ... ... ... : A-3 00 . ... : ... .. B ... : ... .. . ... ... : ... .. 9 ... ... : ... .. 9 ... ... : ... .. 8 ... ...
ROW 8A : D#4 00 A P7C ... ... : ... .. . ... ... ... : D-3 00 . ... : ... .. . ... : ... .. . ... ... : ... .. 8 ... ... : ... .. 8 ... ... : ... .. 5 P7F ...
ROW 8B : E-4 00 A P81 ... ... : ... .. 2 ... ... ... : C#3 00 . ... : ... .. A ... : ... .. . ... ... : ... .. 1 ... ... : ... .. 1 ... ... : ... .. 2 P80 ...
ROW 8C : F#4 00 A P7D ... ... : ... .. . ... ... ... : G#2 00 . ... : ... .. 8 ... : ... .. . ... ... : ... .. . ... ... : ... .. . ... ... : ... .. . P82 ...
ROW 8D : G-4 00 A P84 ... ... : ... .. . ... ... ... : ... .. . ... : ... .. 7 ... : ... .. . ... ... : ... .. . ... ... : ... .. . ... ... : ... .. . P83 ...
ROW 8E : A-4 00 5 P83 ... ... : ... .. . ... ... ... : A-2 00 . ... : 7-# 00 8 ... : ... .. . ... ... : ... .. A ... ... : ... .. A ... ... : ... .. A ... ...
ROW 8F : C-5 00 5 P7E ... ... : ... .. . ... ... ... : ... .. . ... : ... .. 6 ... : ... .. . ... ... : ... .. 9 ... ... : ... .. 9 ... ... : ... .. 8 P80 ...
ROW 90 : ... .. . P80 ... ... : ... .. . ... ... ... : ... .. . ... : ... .. 3 ... : ... .. . ... ... : ... .. 8 ... ... : ... .. 8 ... ... : ... .. 5 P7F ...
ROW 91 : ... .. 6 ... ... ... : ... .. 3 ... ... ... : ... .. . ... : ... .. 1 ... : ... .. . ... ... : ... .. 1 ... ... : ... .. 1 ... ... : ... .. 2 P7D ...
ROW 92 : ... .. . ... ... ... : ... .. . ... ... ... : ... .. . ... : ... .. . ... : ... .. . ... ... : ... .. . ... ... : ... .. . ... ... : ... .. . ... ...
ROW 93 : ... .. . ... ... ... : ... .. . ... ... ... : --- .. . ... : ... .. 0 ... : ... .. . ... ... : ... .. . ... ... : ... .. . ... ... : ... .. . P7E ...
ROW 94 : ... .. . ... ... ... : ... .. 4 ... ... ... : C-4 00 . ... : A-# 00 F ... : ... .. . ... ... : ... .. A ... ... : ... .. A ... ... : ... .. A P80 ...
ROW 95 : ... .. . ... ... ... : C#4 00 4 P83 ... ... : ... .. . ... : ... .. C ... : ... .. . ... ... : ... .. 9 ... ... : ... .. 9 ... ... : ... .. 8 P82 ...
ROW 96 : ... .. . ... ... ... : D#4 00 4 P7C ... ... : ... .. . ... : ... .. 6 ... : ... .. . ... ... : ... .. 8 ... ... : ... .. 8 ... ... : ... .. 5 P83 ...
ROW 97 : ... .. 7 ... ... ... : E-4 00 4 P81 ... ... : ... .. . ... : ... .. 3 ... : ... .. . ... ... : ... .. 1 ... ... : ... .. 1 ... ... : ... .. 2 ... ...
ROW 98 : ... .. . ... ... ... : F#4 00 4 P7D ... ... : ... .. . ... : ... .. 2 ... : ... .. . ... ... : ... .. . ... ... : ... .. . ... ... : ... .. . P81 ...
ROW 99 : ... .. . ... ... ... : G-4 00 4 P84 ... ... : --- .. . ... : ... .. 0 ... : ... .. . ... ... : ... .. . ... ... : ... .. . ... ... : ... .. . P7F ...
ROW 9A : ... .. 8 ... ... ... : ... .. 0 ... ... ... : D#2 00 . ... : E-# 00 8 ... : ... .. . ... ... : ... .. A ... ... : ... .. A ... ... : ... .. A P7D ...
ROW 9B : ... .. . ... ... ... : ... .. . ... ... ... : ... .. . ... : ... .. 6 ... : ... .. . ... ... : ... .. 9 ... ... : ... .. 9 ... ... : ... .. 8 ... ...
ROW 9C : ... .. . ... ... ... : ... .. . ... ... ... : ... .. . ... : ... .. 3 ... : ... .. . ... ... : ... .. 8 ... ... : ... .. 8 ... ... : ... .. 5 P7E ...
ROW 9D : ... .. . ... ... ... : ... .. . ... ... ... : ... .. . ... : ... .. 1 ... : ... .. . ... ... : ... .. 1 ... ... : ... .. 1 ... ... : ... .. 2 P80 ...
ROW 9E : ... .. . ... ... ... : ... .. . ... ... ... : ... .. . ... : ... .. . ... : ... .. . ... ... : ... .. . ... ... : ... .. . ... ... : ... .. . P82 ...
ROW 9F : ... .. . ... ... ... : ... .. . ... ... ... : --- .. . ... : ... .. 0 ... : ... .. . ... ... : ... .. . ... ... : ... .. . ... ... : ... .. . P83 ...
ROW A0 : C#5 00 A P7E ... ... : C-5 00 1 P80 ... ... : G#3 00 . ... : 1-# 00 F ... : ... .. . ... ... : A#3 01 A ... ... : D-4 01 A ... ... : G-3 01 A ... ...
ROW A1 : ... .. . P80 ... ... : ... .. . ... ... ... : A#2 00 . ... : ... .. C ... : ... .. . ... ... : ... .. 9 ... ... : ... .. 9 ... ... : ... .. 8 P81 ...
ROW A2 : ... .. . P7F ... ... : ... .. . ... ... ... : D#2 00 . ... : ... .. 6 ... : ... .. . ... ... : ... .. 8 ... ... : ... .. 8 ... ... : ... .. 5 P80 ...
ROW A3 : C-5 00 A P82 ... ... : ... .. . ... ... ... : D-2 00 . ... : ... .. 3 ... : ... .. . ... ... : ... .. 1 ... ... : ... .. 1 ... ... : ... .. 2 P7D ...
ROW A4 : ... .. . P7E ... ... : ... .. . ... ... ... : A-1 00 . ... : ... .. 2 ... : ... .. . ... ... : ... .. . ... ... : ... .. . ... ... : ... .. . ... ...
ROW A5 : B-4 00 A P81 ... ... : ... .. . ... ... ... : ... .. . ... : ... .. 0 ... : ... .. . ... ... : ... .. . ... ... : ... .. . ... ... : ... .. . P7E ...
ROW A6 : ... .. . P80 ... ... : ... .. 2 ... ... ... : A-2 00 . ... : 9-# 00 8 ... : ... .. . ... ... : ... .. A ... ... : ... .. A ... ... : ... .. A P80 ...
ROW A7 : ... .. . P82 ... ... : ... .. . ... ... ... : ... .. . ... : ... .. 6 ... : ... .. . ... ... : ... .. 9 ... ... : ... .. 9 ... ... : ... .. 8 P81 ...
ROW A8 : C-5 00 A P80 ... ... : ... .. . ... ... ... : ... .. . ... : ... .. 3 ... : ... .. . ... ... : ... .. 8 ... ... : ... .. 8 ... ... : ... .. 5 P83 ...
ROW A9 : ... .. . P83 ... ... : ... .. . ... ... ... : ... .. . ... : ... .. 1 ... : ... .. . ... ... : ... .. 1 ... ... : ... .. 1 ... ... : ... .. 2 ... ...
ROW AA : C#5 00 A P80 ... ... : ... .. . ... ... ... : ... .. . ... : ... .. . ... : ... .. . ... ... : ... .. . ... ... : ... .. . ... ... : ... .. . P81 ...
ROW AB : ... .. . ... ... ... : ... .. . ... ... ... : --- .. . ... : ... .. 0 ... : ... .. . ... ... : ... .. . ... ... : ... .. . ... ... : ... .. . P80 ...
ROW AC : C-5 00 A P82 ... ... : C#5 00 4 P7E ... ... : A-3 00 . ... : 1-# 00 F ... : ... .. . ... ... : ... .. A ... ... : ... .. A ... ... : ... .. A P7E ...
ROW AD : ... .. . P7F ... ... : ... .. . P80 ... ... : ... .. . ... : ... .. C ... : ... .. . ... ... : ... .. 9 ... ... : ... .. 9 ... ... : ... .. 8 P7D ...
ROW AE : B-4 00 A P81 ... ... : ... .. . P7F ... ... : ... .. . ... : ... .. 6 ... : ... .. . ... ... : ... .. 8 ... ... : ... .. 8 ... ... : ... .. 5 ... ...
ROW AF : ... .. . P80 ... ... : C-5 00 4 P82 ... ... : ... .. . ... : ... .. 3 ... : ... .. . ... ... : ... .. 1 ... ... : ... .. 1 ... ... : ... .. 2 P80 ...
ROW B0 : ... .. . P82 ... ... : ... .. . P7E ... ... : ... .. . ... : ... .. 2 ... : ... .. . ... ... : ... .. . ... ... : ... .. . ... ... : ... .. . P81 ...
ROW B1 : C-5 00 A P80 ... ... : B-4 00 4 P81 ... ... : --- .. . ... : ... .. 0 ... : ... .. . ... ... : ... .. . ... ... : ... .. . ... ... : ... .. . P83 ...
ROW B2 : ... .. 5 P83 ... ... : ... .. . P80 ... ... : A-2 00 . ... : 9-# 00 8 ... : ... .. . ... ... : ... .. A ... ... : ... .. A ... ... : ... .. A ... ...
ROW B3 : C#5 00 5 P80 ... ... : ... .. . P82 ... ... : ... .. . ... : ... .. 6 ... : ... .. . ... ... : ... .. 9 ... ... : ... .. 9 ... ... : ... .. 8 P82 ...
ROW B4 : ... .. . ... ... ... : C-5 00 4 P80 ... ... : ... .. . ... : ... .. 3 ... : ... .. . ... ... : ... .. 8 ... ... : ... .. 8 ... ... : ... .. 5 P80 ...
ROW B5 : C-5 00 5 P83 ... ... : ... .. . P83 ... ... : ... .. . ... : ... .. 1 ... : ... .. . ... ... : ... .. 1 ... ... : ... .. 1 ... ... : ... .. 2 P7E ...
ROW B6 : ... .. . P80 ... ... : C#5 00 4 P80 ... ... : ... .. . ... : ... .. . ... : ... .. . ... ... : ... .. . ... ... : ... .. . ... ... : ... .. . P7D ...
ROW B7 : B-4 00 5 P82 ... ... : ... .. . ... ... ... : --- .. . ... : ... .. 0 ... : ... .. . ... ... : ... .. . ... ... : ... .. . ... ... : ... .. . ... ...
ROW B8 : ... .. . P80 ... ... : C-5 00 4 P82 ... ... : A-4 00 . ... : ... .. D ... : ... .. . ... ... : A-3 01 A ... ... : C#4 01 A ... ... : F#3 01 A P7F ...
ROW B9 : ... .. . P81 ... ... : ... .. . P7F ... ... : B-3 00 . ... : ... .. B ... : ... .. . ... ... : ... .. 9 ... ... : ... .. 9 ... ... : ... .. 8 P81 ...
ROW BA : C-5 00 5 P7F ... ... : B-4 00 4 P81 ... ... : E-3 00 . ... : ... .. . ... : ... .. . ... ... : ... .. 8 ... ... : ... .. 8 ... ... : ... .. 5 P83 ...
ROW BB : A#4 00 5 ... ... ... : ... .. . P80 ... ... : D#3 00 . ... : ... .. A ... : ... .. . ... ... : ... .. 1 ... ... : ... .. 1 ... ... : ... .. 2 ... ...
ROW BC : G#4 00 5 P82 ... ... : ... .. . P82 ... ... : A#2 00 . ... : ... .. 8 ... : ... .. . ... ... : ... .. . ... ... : ... .. . ... ... : ... .. . P82 ...
ROW BD : F#4 00 5 ... ... ... : C-5 00 4 P80 ... ... : ... .. . ... : ... .. 7 ... : ... .. . ... ... : ... .. . ... ... : ... .. . ... ... : ... .. . P80 ...
ROW BE : E-4 00 3 ... ... ... : ... .. 1 P83 ... ... : A-2 00 . ... : 7-# 00 8 ... : ... .. . ... ... : ... .. A ... ... : ... .. A ... ... : ... .. A P7E ...
ROW BF : D-4 00 3 P83 ... ... : C#5 00 1 P80 ... ... : ... .. . ... : ... .. 6 ... : ... .. . ... ... : ... .. 9 ... ... : ... .. 9 ... ... : ... .. 8 P7D ...
ROW C0 : C#4 00 3 P7B ... ... : ... .. . ... ... ... : ... .. . ... : ... .. 3 ... : ... .. . ... ... : ... .. 8 ... ... : ... .. 8 ... ... : ... .. 5 ... ...
ROW C1 : C-4 00 3 ... ... ... : C-5 00 1 P83 ... ... : ... .. . ... : ... .. 1 ... : ... .. . ... ... : ... .. 1 ... ... : ... .. 1 ... ... : ... .. 2 P7F ...
ROW C2 : A#3 00 3 P85 ... ... : ... .. . P80 ... ... : ... .. . ... : ... .. . ... : ... .. . ... ... : ... .. . ... ... : ... .. . ... ... : ... .. . P80 ...
ROW C3 : A-3 00 3 P83 ... ... : B-4 00 1 P82 ... ... : --- .. . ... : ... .. 0 ... : ... .. . ... ... : ... .. . ... ... : ... .. . ... ... : ... .. . P83 ...
ROW C4 : B-4 00 4 P80 ... ... : ... .. . P80 ... ... : G-3 00 . ... : A-# 00 F ... : ... .. . ... ... : ... .. A ... ... : ... .. A ... ... : ... .. A ... ...
ROW C5 : ... .. 3 ... ... ... : ... .. . P81 ... ... : ... .. . ... : ... .. C ... : ... .. . ... ... : ... .. 9 ... ... : ... .. 9 ... ... : ... .. 8 P82 ...
ROW C6 : ... .. . ... ... ... : C-5 00 1 P7F ... ... : ... .. . ... : ... .. 6 ... : ... .. . ... ... : ... .. 8 ... ... : ... .. 8 ... ... : ... .. 5 P80 ...
ROW C7 : C-5 00 6 ... ... ... : A#4 00 1 ... ... ... : ... .. . ... : ... .. 3 ... : ... .. . ... ... : ... .. 1 ... ... : ... .. 1 ... ... : ... .. 2 P7F ...
ROW C8 : ... .. 5 ... ... ... : G#4 00 1 P82 ... ... : ... .. . ... : ... .. 2 ... : ... .. . ... ... : ... .. . ... ... : ... .. . ... ... : ... .. . P7D ...
ROW C9 : ... .. . ... ... ... : F#4 00 1 ... ... ... : --- .. . ... : ... .. 0 ... : ... .. . ... ... : ... .. . ... ... : ... .. . ... ... : ... .. . ... ...
ROW CA : D-5 00 8 ... ... ... : E-4 00 1 ... ... ... : A-2 00 . ... : E-# 00 8 ... : ... .. . ... ... : ... .. A ... ... : ... .. A ... ... : ... .. A P7F ...
ROW CB : ... .. 7 ... ... ... : D-4 00 1 P83 ... ... : ... .. . ... : ... .. 6 ... : ... .. . ... ... : ... .. 9 ... ... : ... .. 9 ... ... : ... .. 8 P80 ...
ROW CC : ... .. 6 ... ... ... : C#4 00 1 P7B ... ... : ... .. . ... : ... .. 3 ... : ... .. . ... ... : ... .. 8 ... ... : ... .. 8 ... ... : ... .. 5 P82 ...
ROW CD : E-5 00 F ... ... ... : C-4 00 1 ... ... ... : ... .. . ... : ... .. 1 ... : ... .. . ... ... : ... .. 1 ... ... : ... .. 1 ... ... : ... .. 2 P83 ...
ROW CE : ... .. E ... ... ... : A#3 00 1 P85 ... ... : ... .. . ... : ... .. . ... : ... .. . ... ... : ... .. . ... ... : ... .. . ... ... : ... .. . ... ...
ROW CF : ... .. D ... ... ... : A-3 00 1 P83 ... ... : --- .. . ... : ... .. 0 ... : ... .. . ... ... : ... .. . ... ... : ... .. . ... ... : ... .. . P80 ...
ROW D0 : F-5 00 F ... ... ... : B-4 00 2 P80 ... ... : E-4 00 . ... : 1-# 00 F ... : ... .. . ... ... : G#3 01 A ... ... : C-4 01 A ... ... : F-3 01 A P7F ...
ROW D1 : ... .. E ... ... ... : ... .. 1 ... ... ... : F#3 00 . ... : ... .. C ... : ... .. . ... ... : ... .. 9 ... ... : ... .. 9 ... ... : ... .. 8 P7D ...
ROW D2 : ... .. D ... ... ... : ... .. . ... ... ... : B-2 00 . ... : ... .. 6 ... : ... .. . ... ... : ... .. 8 ... ... : ... .. 8 ... ... : ... .. 5 ... ...
ROW D3 : ... .. A ... ... ... : C-5 00 3 ... ... ... : A#2 00 . ... : ... .. 3 ... : ... .. . ... ... : ... .. 1 ... ... : ... .. 1 ... ... : ... .. 2 P7E ...
ROW D4 : ... .. . ... ... ... : ... .. 2 ... ... ... : F-2 00 . ... : ... .. 2 ... : ... .. . ... ... : ... .. . ... ... : ... .. . ... ... : ... .. . P80 ...
ROW D5 : ... .. . ... ... ... : ... .. . ... ... ... : ... .. . ... : ... .. 0 ... : ... .. . ... ... : ... .. . ... ... : ... .. . ... ... : ... .. . P82 ...
ROW D6 : ... .. . ... ... ... : D-5 00 4 ... ... ... : ... .. . ... : 9-# 00 8 ... : ... .. . ... ... : ... .. A ... ... : ... .. A ... ... : ... .. A P83 ...
ROW D7 : ... .. . ... ... ... : ... .. 3 ... ... ... : ... .. . ... : ... .. 6 ... : ... .. . ... ... : ... .. 9 ... ... : ... .. 9 ... ... : ... .. 8 ... ...
ROW D8 : ... .. . ... ... ... : ... .. . ... ... ... : ... .. . ... : ... .. 3 ... : ... .. . ... ... : ... .. 8 ... ... : ... .. 8 ... ... : ... .. 5 P81 ...
ROW D9 : ... .. . ... ... ... : E-5 00 6 ... ... ... : ... .. . ... : ... .. 1 ... : ... .. . ... ... : ... .. 1 ... ... : ... .. 1 ... ... : ... .. 2 P7F ...
ROW DA : ... .. . ... ... ... : ... .. 5 ... ... ... : ... .. . ... : ... .. . ... : ... .. . ... ... : ... .. . ... ... : ... .. . ... ... : ... .. . P7D ...
ROW DB : ... .. . ... ... ... : ... .. . ... ... ... : --- .. . ... : ... .. 0 ... : ... .. . ... ... : ... .. . ... ... : ... .. . ... ... : ... .. . ... ...
ROW DC : ... .. . ... ... ... : F-5 00 6 ... ... ... : F-3 00 . ... : B-# 00 F ... : ... .. . ... ... : ... .. A ... ... : ... .. A ... ... : ... .. A P7E ...
ROW DD : ... .. . ... ... ... : ... .. 5 ... ... ... : ... .. . ... : ... .. C ... : ... .. . ... ... : ... .. 9 ... ... : ... .. 9 ... ... : ... .. 8 P80 ...
ROW DE : ... .. . ... ... ... : ... .. . ... ... ... : ... .. . ... : ... .. 6 ... : ... .. . ... ... : ... .. 8 ... ... : ... .. 8 ... ... : ... .. 5 P82 ...
ROW DF : ... .. . ... ... ... : ... .. 4 ... ... ... : ... .. . ... : ... .. 3 ... : ... .. . ... ... : ... .. 1 ... ... : ... .. 1 ... ... : ... .. 2 P83 ...
ROW E0 : ... .. . ... ... ... : ... .. . ... ... ... : ... .. . ... : ... .. 2 ... : ... .. . ... ... : ... .. . ... ... : ... .. . ... ... : ... .. . ... ...
ROW E1 : ... .. . ... ... ... : ... .. . ... ... ... : --- .. . ... : ... .. 0 ... : ... .. . ... ... : ... .. . ... ... : ... .. . ... ... : ... .. . P81 ...
ROW E2 : ... .. . ... ... ... : ... .. . ... ... ... : E-3 00 . ... : 9-# 00 8 ... : ... .. . ... ... : ... .. A ... ... : ... .. A ... ... : ... .. A P80 ...
ROW E3 : ... .. . ... ... ... : ... .. . ... ... ... : ... .. . ... : ... .. 6 ... : ... .. . ... ... : ... .. 9 ... ... : ... .. 9 ... ... : ... .. 8 P7D ...
ROW E4 : ... .. . ... ... ... : ... .. . ... ... ... : ... .. . ... : ... .. 3 ... : ... .. . ... ... : ... .. 8 ... ... : ... .. 8 ... ... : ... .. 5 ... ...
ROW E5 : ... .. . ... ... ... : ... .. . ... ... ... : ... .. . ... : ... .. 1 ... : ... .. . ... ... : ... .. 1 ... ... : ... .. 1 ... ... : ... .. 2 P7E ...
ROW E6 : ... .. . ... ... ... : ... .. . ... ... ... : ... .. . ... : ... .. . ... : ... .. . ... ... : ... .. . ... ... : ... .. . ... ... : ... .. . P80 ...
ROW E7 : ... .. . ... ... ... : ... .. . ... ... ... : --- .. . ... : ... .. 0 ... : ... .. . ... ... : ... .. . ... ... : ... .. . ... ... : ... .. . P81 ...
ROW E8 : ... .. . ... ... ... : ... .. . ... ... ... : D#4 00 . ... : ... .. D ... : ... .. . ... ... : G-3 01 A ... ... : B-3 01 A ... ... : E-3 01 A P83 ...
ROW E9 : D-5 00 A ... ... ... : ... .. . ... ... ... : F-3 00 . ... : ... .. B ... : ... .. . ... ... : ... .. 9 ... ... : ... .. 9 ... ... : ... .. 8 ... ...
ROW EA : C-5 00 A ... ... ... : ... .. . ... ... ... : A#2 00 . ... : ... .. . ... : ... .. . ... ... : ... .. 8 ... ... : ... .. 8 ... ... : ... .. 5 P81 ...
ROW EB : ... .. . ... ... ... : ... .. . ... ... ... : A-2 00 . ... : ... .. A ... : ... .. . ... ... : ... .. 1 ... ... : ... .. 1 ... ... : ... .. 2 P80 ...
ROW EC : ... .. . ... ... ... : ... .. . ... ... ... : E-2 00 . ... : ... .. 8 ... : ... .. . ... ... : ... .. . ... ... : ... .. . ... ... : ... .. . P7E ...
ROW ED : ... .. . ... ... ... : ... .. . ... ... ... : ... .. . ... : ... .. 7 ... : ... .. . ... ... : ... .. . ... ... : ... .. . ... ... : ... .. . P7D ...
ROW EE : ... .. . ... ... ... : ... .. . ... ... ... : F-2 00 . ... : 7-# 00 8 ... : ... .. . ... ... : ... .. A ... ... : ... .. A ... ... : ... .. A ... ...
ROW EF : ... .. . ... ... ... : ... .. . ... ... ... : ... .. . ... : ... .. 6 ... : ... .. . ... ... : ... .. 9 ... ... : ... .. 9 ... ... : ... .. 8 P80 ...
ROW F0 : ... .. . ... ... ... : ... .. . ... ... ... : ... .. . ... : ... .. 3 ... : ... .. . ... ... : ... .. 8 ... ... : ... .. 8 ... ... : ... .. 5 P81 ...
ROW F1 : ... .. . ... ... ... : ... .. . ... ... ... : ... .. . ... : ... .. 1 ... : ... .. . ... ... : ... .. 1 ... ... : ... .. 1 ... ... : ... .. 2 P83 ...
ROW F2 : ... .. . ... ... ... : ... .. . ... ... ... : ... .. . ... : ... .. . ... : ... .. . ... ... : ... .. . ... ... : ... .. . ... ... : ... .. . ... ...
ROW F3 : ... .. . ... ... ... : ... .. . ... ... ... : --- .. . ... : ... .. 0 ... : ... .. . ... ... : ... .. . ... ... : ... .. . ... ... : ... .. . P82 ...
ROW F4 : ... .. . ... ... ... : ... .. . ... ... ... : G#3 00 . ... : A-# 00 F ... : ... .. . ... ... : ... .. A ... ... : ... .. A ... ... : ... .. A P80 ...
ROW F5 : ... .. . ... ... ... : D-5 00 4 ... ... ... : ... .. . ... : ... .. C ... : ... .. . ... ... : ... .. 9 ... ... : ... .. 9 ... ... : ... .. 8 P7E ...
ROW F6 : ... .. . ... ... ... : C-5 00 4 ... ... ... : ... .. . ... : ... .. 6 ... : ... .. . ... ... : ... .. 8 ... ... : ... .. 8 ... ... : ... .. 5 P7D ...
ROW F7 : ... .. . ... ... ... : ... .. . ... ... ... : ... .. . ... : ... .. 3 ... : ... .. . ... ... : ... .. 1 ... ... : ... .. 1 ... ... : ... .. 2 ... ...
ROW F8 : ... .. . ... ... ... : ... .. . ... ... ... : ... .. . ... : ... .. 2 ... : ... .. . ... ... : ... .. . ... ... : ... .. . ... ... : ... .. . P7F ...
ROW F9 : ... .. . ... ... ... : ... .. . ... ... ... : --- .. . ... : ... .. 0 ... : ... .. . ... ... : ... .. . ... ... : ... .. . ... ... : ... .. . P81 ...
ROW FA : ... .. . ... ... ... : ... .. . ... ... ... : B-1 00 . ... : E-# 00 8 ... : ... .. . ... ... : ... .. A ... ... : ... .. A ... ... : ... .. A P83 ...
ROW FB : ... .. . ... ... ... : ... .. . ... ... ... : ... .. . ... : ... .. 6 ... : ... .. . ... ... : ... .. 9 ... ... : ... .. 9 ... ... : ... .. 8 ... ...
ROW FC : ... .. . ... ... ... : ... .. . ... ... ... : ... .. . ... : ... .. 3 ... : ... .. . ... ... : ... .. 8 ... ... : ... .. 8 ... ... : ... .. 5 P82 ...
ROW FD : ... .. . ... ... ... : ... .. . ... ... ... : ... .. . ... : ... .. 1 ... : ... .. . ... ... : ... .. 1 ... ... : ... .. 1 ... ... : ... .. 2 P80 ...
ROW FE : ... .. . ... ... ... : ... .. . ... ... ... : ... .. . ... : ... .. . ... : ... .. . ... ... : ... .. . ... ... : ... .. . ... ... : ... .. . P7E ...
ROW FF : ... .. . ... ... ... : ... .. . ... ... ... : --- .. . ... : ... .. 0 ... : ... .. . ... ... : ... .. . ... ... : ... .. . ... ... : ... .. . P7D ...

PATTERN 03
ROW 00 : ... .. . ... ... ... : ... .. . ... ... ... : E-3 00 . ... : 1-# 00 F ... : ... .. . ... ... : G#3 01 A ... ... : C-4 01 A ... ... : F-3 01 A ... ...
ROW 01 : ... .. . ... ... ... : ... .. . ... ... ... : F#2 00 . ... : ... .. C ... : ... .. . ... ... : ... .. 9 ... ... : ... .. 9 ... ... : ... .. 8 P7F ...
ROW 02 : ... .. . ... ... ... : ... .. . ... ... ... : B-1 00 . ... : ... .. 6 ... : ... .. . ... ... : ... .. 8 ... ... : ... .. 8 ... ... : ... .. 5 P80 ...
ROW 03 : ... .. . ... ... ... : ... .. . ... ... ... : A#1 00 . ... : ... .. 3 ... : ... .. . ... ... : ... .. 1 ... ... : ... .. 1 ... ... : ... .. 2 P83 ...
ROW 04 : ... .. . ... ... ... : ... .. . ... ... ... : F-1 00 . ... : ... .. 2 ... : ... .. . ... ... : ... .. . ... ... : ... .. . ... ... : ... .. . ... ...
ROW 05 : ... .. . ... ... ... : ... .. . ... ... ... : ... .. . ... : ... .. 0 ... : ... .. . ... ... : ... .. . ... ... : ... .. . ... ... : ... .. . P82 ...
ROW 06 : C#5 00 A P7E ... ... : ... .. . ... ... ... : F-2 00 . ... : 9-# 00 8 ... : ... .. . ... ... : ... .. A ... ... : ... .. A ... ... : ... .. A P80 ...
ROW 07 : ... .. . P80 ... ... : ... .. . ... ... ... : ... .. . ... : ... .. 6 ... : ... .. . ... ... : ... .. 9 ... ... : ... .. 9 ... ... : ... .. 8 P7F ...
ROW 08 : ... .. . P7F ... ... : ... .. . ... ... ... : ... .. . ... : ... .. 3 ... : ... .. . ... ... : ... .. 8 ... ... : ... .. 8 ... ... : ... .. 5 P7D ...
ROW 09 : C-5 00 A P82 ... ... : ... .. . ... ... ... : ... .. . ... : ... .. 1 ... : ... .. . ... ... : ... .. 1 ... ... : ... .. 1 ... ... : ... .. 2 ... ...
ROW 0A : ... .. . P7E ... ... : ... .. . ... ... ... : ... .. . ... : ... .. . ... : ... .. . ... ... : ... .. . ... ... : ... .. . ... ... : ... .. . P7F ...
ROW 0B : B-4 00 A P81 ... ... : ... .. . ... ... ... : --- .. . ... : ... .. 0 ... : ... .. . ... ... : ... .. . ... ... : ... .. . ... ... : ... .. . P80 ...
ROW 0C : ... .. . P80 ... ... : ... .. . ... ... ... : F-3 00 . ... : 1-# 00 F ... : ... .. . ... ... : ... .. A ... ... : ... .. A ... ... : ... .. A P82 ...
ROW 0D : ... .. . P82 ... ... : ... .. . ... ... ... : ... .. . ... : ... .. C ... : ... .. . ... ... : ... .. 9 ... ... : ... .. 9 ... ... : ... .. 8 P83 ...
ROW 0E : C-5 00 A P80 ... ... : ... .. . ... ... ... : ... .. . ... : ... .. 6 ... : ... .. . ... ... : ... .. 8 ... ... : ... .. 8 ... ... : ... .. 5 ... ...
ROW 0F : ... .. . P83 ... ... : ... .. . ... ... ... : ... .. . ... : ... .. 3 ... : ... .. . ... ... : ... .. 1 ... ... : ... .. 1 ... ... : ... .. 2 P80 ...
ROW 10 : C#5 00 A P80 ... ... : ... .. . ... ... ... : ... .. . ... : ... .. 2 ... : ... .. . ... ... : ... .. . ... ... : ... .. . ... ... : ... .. . P7F ...
ROW 11 : ... .. . ... ... ... : ... .. . ... ... ... : --- .. . ... : ... .. 0 ... : ... .. . ... ... : ... .. . ... ... : ... .. . ... ... : ... .. . P7D ...
ROW 12 : C-5 00 A P82 ... ... : C#5 00 4 P7E ... ... : F-2 00 . ... : 9-# 00 8 ... : ... .. . ... ... : ... .. A ... ... : ... .. A ... ... : ... .. A ... ...
ROW 13 : ... .. . P7F ... ... : ... .. . P80 ... ... : ... .. . ... : ... .. 6 ... : ... .. . ... ... : ... .. 9 ... ... : ... .. 9 ... ... : ... .. 8 P7E ...
ROW 14 : B-4 00 A P81 ... ... : ... .. . P7F ... ... : ... .. . ... : ... .. 3 ... : ... .. . ... ... : ... .. 8 ... ... : ... .. 8 ... ... : ... .. 5 P80 ...
ROW 15 : ... .. . P80 ... ... : C-5 00 4 P82 ... ... : ... .. . ... : ... .. 1 ... : ... .. . ... ... : ... .. 1 ... ... : ... .. 1 ... ... : ... .. 2 P82 ...
ROW 16 : ... .. . P82 ... ... : ... .. . P7E ... ... : ... .. . ... : ... .. . ... : ... .. . ... ... : ... .. . ... ... : ... .. . ... ... : ... .. . P83 ...
ROW 17 : C-5 00 A P80 ... ... : B-4 00 4 P81 ... ... : --- .. . ... : ... .. 0 ... : ... .. . ... ... : ... .. . ... ... : ... .. . ... ... : ... .. . ... ...
ROW 18 : G#4 00 F ... ... ... : ... .. . P80 ... ... : F-4 00 . ... : ... .. D ... : ... .. . ... ... : A-3 01 A ... ... : C#4 01 A ... ... : F#3 01 A P81 ...
ROW 19 : ... .. E ... ... ... : ... .. . P82 ... ... : G-3 00 . ... : ... .. B ... : ... .. . ... ... : ... .. 9 ... ... : ... .. 9 ... ... : ... .. 8 P7F ...
ROW 1A : ... .. D ... ... ... : C-5 00 4 P80 ... ... : C-3 00 . ... : ... .. . ... : ... .. . ... ... : ... .. 8 ... ... : ... .. 8 ... ... : ... .. 5 P7D ...
ROW 1B : ... .. A ... ... ... : ... .. . P83 ... ... : B-2 00 . ... : ... .. A ... : ... .. . ... ... : ... .. 1 ... ... : ... .. 1 ... ... : ... .. 2 ... ...
ROW 1C : ... .. . ... ... ... : C#5 00 4 P80 ... ... : F#2 00 . ... : ... .. 8 ... : ... .. . ... ... : ... .. . ... ... : ... .. . ... ... : ... .. . P7E ...
ROW 1D : ... .. . ... ... ... : ... .. . ... ... ... : ... .. . ... : ... .. 7 ... : ... .. . ... ... : ... .. . ... ... : ... .. . ... ... : ... .. . P80 ...
ROW 1E : ... .. . ... ... ... : C-5 00 4 P82 ... ... : F-2 00 . ... : 7-# 00 8 ... : ... .. . ... ... : ... .. A ... ... : ... .. A ... ... : ... .. A P82 ...
ROW 1F : ... .. . ... ... ... : ... .. . P7F ... ... : ... .. . ... : ... .. 6 ... : ... .. . ... ... : ... .. 9 ... ... : ... .. 9 ... ... : ... .. 8 P83 ...
ROW 20 : ... .. . ... ... ... : B-4 00 4 P81 ... ... : ... .. . ... : ... .. 3 ... : ... .. . ... ... : ... .. 8 ... ... : ... .. 8 ... ... : ... .. 5 ... ...
ROW 21 : ... .. . ... ... ... : ... .. . P80 ... ... : ... .. . ... : ... .. 1 ... : ... .. . ... ... : ... .. 1 ... ... : ... .. 1 ... ... : ... .. 2 P81 ...
ROW 22 : ... .. . ... ... ... : ... .. . P82 ... ... : ... .. . ... : ... .. . ... : ... .. . ... ... : ... .. . ... ... : ... .. . ... ... : ... .. . P80 ...
ROW 23 : ... .. . ... ... ... : C-5 00 4 P80 ... ... : --- .. . ... : ... .. 0 ... : ... .. . ... ... : ... .. . ... ... : ... .. . ... ... : ... .. . P7D ...
ROW 24 : ... .. . ... ... ... : G#4 00 6 ... ... ... : D#3 00 . ... : A-# 00 F ... : ... .. . ... ... : ... .. A ... ... : ... .. A ... ... : ... .. A ... ...
ROW 25 : ... .. . ... ... ... : ... .. 5 ... ... ... : ... .. . ... : ... .. C ... : ... .. . ... ... : ... .. 9 ... ... : ... .. 9 ... ... : ... .. 8 P7E ...
ROW 26 : ... .. . ... ... ... : ... .. . ... ... ... : ... .. . ... : ... .. 6 ... : ... .. . ... ... : ... .. 8 ... ... : ... .. 8 ... ... : ... .. 5 P80 ...
ROW 27 : ... .. . ... ... ... : ... .. 4 ... ... ... : ... .. . ... : ... .. 3 ... : ... .. . ... ... : ... .. 1 ... ... : ... .. 1 ... ... : ... .. 2 P81 ...
ROW 28 : ... .. . ... ... ... : ... .. . ... ... ... : ... .. . ... : ... .. 2 ... : ... .. . ... ... : ... .. . ... ... : ... .. . ... ... : ... .. . P83 ...
ROW 29 : ... .. . ... ... ... : ... .. . ... ... ... : --- .. . ... : ... .. 0 ... : ... .. . ... ... : ... .. . ... ... : ... .. . ... ... : ... .. . ... ...
ROW 2A : ... .. . ... ... ... : ... .. . ... ... ... : F-2 00 . ... : E-# 00 8 ... : ... .. . ... ... : ... .. A ... ... : ... .. A ... ... : ... .. A P81 ...
ROW 2B : ... .. . ... ... ... : ... .. . ... ... ... : ... .. . ... : ... .. 6 ... : ... .. . ... ... : ... .. 9 ... ... : ... .. 9 ... ... : ... .. 8 P80 ...
ROW 2C : ... .. . ... ... ... : ... .. . ... ... ... : ... .. . ... : ... .. 3 ... : ... .. . ... ... : ... .. 8 ... ... : ... .. 8 ... ... : ... .. 5 P7E ...
ROW 2D : ... .. . ... ... ... : ... .. . ... ... ... : ... .. . ... : ... .. 1 ... : ... .. . ... ... : ... .. 1 ... ... : ... .. 1 ... ... : ... .. 2 P7D ...
ROW 2E : ... .. . ... ... ... : ... .. . ... ... ... : ... .. . ... : ... .. . ... : ... .. . ... ... : ... .. . ... ... : ... .. . ... ... : ... .. . ... ...
ROW 2F : ... .. . ... ... ... : ... .. . ... ... ... : --- .. . ... : ... .. 0 ... : ... .. . ... ... : ... .. . ... ... : ... .. . ... ... : ... .. . P80 ...
ROW 30 : C-5 00 F ... ... ... : ... .. . ... ... ... : E-4 00 . ... : 1-# 00 F ... : ... .. . ... ... : G#3 01 A ... ... : C-4 01 A ... ... : F-3 01 A P81 ...
ROW 31 : ... .. E ... ... ... : ... .. . ... ... ... : F#3 00 . ... : ... .. C ... : ... .. . ... ... : ... .. 9 ... ... : ... .. 9 ... ... : ... .. 8 P83 ...
ROW 32 : ... .. D ... ... ... : ... .. . ... ... ... : B-2 00 . ... : ... .. 6 ... : ... .. . ... ... : ... .. 8 ... ... : ... .. 8 ... ... : ... .. 5 ... ...
ROW 33 : ... .. A ... ... ... : ... .. . ... ... ... : A#2 00 . ... : ... .. 3 ... : ... .. . ... ... : ... .. 1 ... ... : ... .. 1 ... ... : ... .. 2 P82 ...
ROW 34 : ... .. . ... ... ... : ... .. . ... ... ... : F-2 00 . ... : ... .. 2 ... : ... .. . ... ... : ... .. . ... ... : ... .. . ... ... : ... .. . P80 ...
ROW 35 : ... .. . ... ... ... : ... .. . ... ... ... : ... .. . ... : ... .. 0 ... : ... .. . ... ... : ... .. . ... ... : ... .. . ... ... : ... .. . P7E ...
ROW 36 : ... .. . ... ... ... : ... .. . ... ... ... : ... .. . ... : 9-# 00 8 ... : ... .. . ... ... : ... .. A ... ... : ... .. A ... ... : ... .. A P7D ...
ROW 37 : ... .. . ... ... ... : ... .. . ... ... ... : ... .. . ... : ... .. 6 ... : ... .. . ... ... : ... .. 9 ... ... : ... .. 9 ... ... : ... .. 8 ... ...
ROW 38 : ... .. . ... ... ... : ... .. . ... ... ... : ... .. . ... : ... .. 3 ... : ... .. . ... ... : ... .. 8 ... ... : ... .. 8 ... ... : ... .. 5 P7F ...
ROW 39 : ... .. . ... ... ... : ... .. . ... ... ... : ... .. . ... : ... .. 1 ... : ... .. . ... ... : ... .. 1 ... ... : ... .. 1 ... ... : ... .. 2 P81 ...
ROW 3A : ... .. . P83 ... ... : ... .. . ... ... ... : ... .. . ... : ... .. . ... : ... .. . ... ... : ... .. . ... ... : ... .. . ... ... : ... .. . P83 ...
ROW 3B : C#5 00 A P80 ... ... : ... .. . ... ... ... : --- .. . ... : ... .. 0 ... : ... .. . ... ... : ... .. . ... ... : ... .. . ... ... : ... .. . ... ...
ROW 3C : ... .. . P83 ... ... : C-5 00 6 ... ... ... : F-3 00 . ... : B-# 00 F ... : ... .. . ... ... : ... .. A ... ... : ... .. A ... ... : ... .. A P82 ...
ROW 3D : D-5 00 A P80 ... ... : ... .. 5 ... ... ... : ... .. . ... : ... .. C ... : ... .. . ... ... : ... .. 9 ... ... : ... .. 9 ... ... : ... .. 8 P80 ...
ROW 3E : ... .. . ... ... ... : ... .. . ... ... ... : ... .. . ... : ... .. 6 ... : ... .. . ... ... : ... .. 8 ... ... : ... .. 8 ... ... : ... .. 5 P7E ...
ROW 3F : ... .. . ... ... ... : ... .. 4 ... ... ... : ... .. . ... : ... .. 3 ... : ... .. . ... ... : ... .. 1 ... ... : ... .. 1 ... ... : ... .. 2 P7D ...
ROW 40 : ... .. . ... ... ... : ... .. . ... ... ... : ... .. . ... : ... .. 2 ... : ... .. . ... ... : ... .. . ... ... : ... .. . ... ... : ... .. . ... ...
ROW 41 : ... .. . ... ... ... : ... .. . ... ... ... : --- .. . ... : ... .. 0 ... : ... .. . ... ... : ... .. . ... ... : ... .. . ... ... : ... .. . P7F ...
ROW 42 : ... .. . ... ... ... : ... .. . ... ... ... : E-3 00 . ... : 9-# 00 8 ... : ... .. . ... ... : ... .. A ... ... : ... .. A ... ... : ... .. A P80 ...
ROW 43 : ... .. . ... ... ... : ... .. . ... ... ... : ... .. . ... : ... .. 6 ... : ... .. . ... ... : ... .. 9 ... ... : ... .. 9 ... ... : ... .. 8 P83 ...
ROW 44 : ... .. . ... ... ... : ... .. . ... ... ... : ... .. . ... : ... .. 3 ... : ... .. . ... ... : ... .. 8 ... ... : ... .. 8 ... ... : ... .. 5 ... ...
ROW 45 : ... .. . ... ... ... : ... .. . ... ... ... : ... .. . ... : ... .. 1 ... : ... .. . ... ... : ... .. 1 ... ... : ... .. 1 ... ... : ... .. 2 P82 ...
ROW 46 : ... .. . ... ... ... : ... .. . P83 ... ... : ... .. . ... : ... .. . ... : ... .. . ... ... : ... .. . ... ... : ... .. . ... ... : ... .. . P80 ...
ROW 47 : ... .. . ... ... ... : C#5 00 4 P80 ... ... : --- .. . ... : ... .. 0 ... : ... .. . ... ... : ... .. . ... ... : ... .. . ... ... : ... .. . P7F ...
ROW 48 : ... .. . ... ... ... : ... .. . P83 ... ... : D#4 00 . ... : ... .. D ... : ... .. . ... ... : G-3 01 A ... ... : B-3 01 A ... ... : E-3 01 A P7D ...
ROW 49 : ... .. . ... ... ... : D-5 00 4 P80 ... ... : F-3 00 . ... : ... .. B ... : ... .. . ... ... : ... .. 9 ... ... : ... .. 9 ... ... : ... .. 8 ... ...
ROW 4A : ... .. . ... ... ... : ... .. . ... ... ... : A#2 00 . ... : ... .. . ... : ... .. . ... ... : ... .. 8 ... ... : ... .. 8 ... ... : ... .. 5 P7F ...
ROW 4B : ... .. . ... ... ... : ... .. . ... ... ... : A-2 00 . ... : ... .. A ... : ... .. . ... ... : ... .. 1 ... ... : ... .. 1 ... ... : ... .. 2 P80 ...
ROW 4C : ... .. . ... ... ... : ... .. . ... ... ... : E-2 00 . ... : ... .. 8 ... : ... .. . ... ... : ... .. . ... ... : ... .. . ... ... : ... .. . P82 ...
ROW 4D : ... .. . ... ... ... : ... .. . ... ... ... : ... .. . ... : ... .. 7 ... : ... .. . ... ... : ... .. . ... ... : ... .. . ... ... : ... .. . P83 ...
ROW 4E : ... .. . ... ... ... : ... .. . ... ... ... : F-2 00 . ... : 7-# 00 8 ... : ... .. . ... ... : ... .. A ... ... : ... .. A ... ... : ... .. A ... ...
ROW 4F : ... .. . ... ... ... : ... .. . ... ... ... : ... .. . ... : ... .. 6 ... : ... .. . ... ... : ... .. 9 ... ... : ... .. 9 ... ... : ... .. 8 P80 ...
ROW 50 : ... .. . ... ... ... : ... .. . ... ... ... : ... .. . ... : ... .. 3 ... : ... .. . ... ... : ... .. 8 ... ... : ... .. 8 ... ... : ... .. 5 P7F ...
ROW 51 : ... .. . ... ... ... : ... .. . ... ... ... : ... .. . ... : ... .. 1 ... : ... .. . ... ... : ... .. 1 ... ... : ... .. 1 ... ... : ... .. 2 P7D ...
ROW 52 : ... .. . ... ... ... : ... .. . ... ... ... : ... .. . ... : ... .. . ... : ... .. . ... ... : ... .. . ... ... : ... .. . ... ... : ... .. . ... ...
ROW 53 : ... .. . ... ... ... : ... .. . ... ... ... : --- .. . ... : ... .. 0 ... : ... .. . ... ... : ... .. . ... ... : ... .. . ... ... : ... .. . P7E ...
ROW 54 : ... .. . ... ... ... : ... .. . ... ... ... : G#3 00 . ... : A-# 00 F ... : ... .. . ... ... : ... .. A ... ... : ... .. A ... ... : ... .. A P80 ...
ROW 55 : ... .. . ... ... ... : ... .. . ... ... ... : ... .. . ... : ... .. C ... : ... .. . ... ... : ... .. 9 ... ... : ... .. 9 ... ... : ... .. 8 P82 ...
ROW 56 : ... .. . ... ... ... : ... .. . ... ... ... : ... .. . ... : ... .. 6 ... : ... .. . ... ... : ... .. 8 ... ... : ... .. 8 ... ... : ... .. 5 P83 ...
ROW 57 : ... .. . ... ... ... : ... .. . ... ... ... : ... .. . ... : ... .. 3 ... : ... .. . ... ... : ... .. 1 ... ... : ... .. 1 ... ... : ... .. 2 ... ...
ROW 58 : ... .. . ... ... ... : ... .. . ... ... ... : ... .. . ... : ... .. 2 ... : ... .. . ... ... : ... .. . ... ... : ... .. . ... ... : ... .. . P81 ...
ROW 59 : ... .. . ... ... ... : ... .. . ... ... ... : --- .. . ... : ... .. 0 ... : ... .. . ... ... : ... .. . ... ... : ... .. . ... ... : ... .. . P7F ...
ROW 5A : D#5 00 A P7F ... ... : ... .. . ... ... ... : B-1 00 . ... : E-# 00 8 ... : ... .. . ... ... : ... .. A ... ... : ... .. A ... ... : ... .. A P7D ...
ROW 5B : ... .. . P81 ... ... : ... .. . ... ... ... : ... .. . ... : ... .. 6 ... : ... .. . ... ... : ... .. 9 ... ... : ... .. 9 ... ... : ... .. 8 ... ...
ROW 5C : ... .. . P80 ... ... : ... .. . ... ... ... : ... .. . ... : ... .. 3 ... : ... .. . ... ... : ... .. 8 ... ... : ... .. 8 ... ... : ... .. 5 P7E ...
ROW 5D : D-5 00 A P82 ... ... : ... .. . ... ... ... : ... .. . ... : ... .. 1 ... : ... .. . ... ... : ... .. 1 ... ... : ... .. 1 ... ... : ... .. 2 P80 ...
ROW 5E : ... .. . P7E ... ... : ... .. . ... ... ... : ... .. . ... : ... .. . ... : ... .. . ... ... : ... .. . ... ... : ... .. . ... ... : ... .. . P82 ...
ROW 5F : C#5 00 A P81 ... ... : ... .. . ... ... ... : --- .. . ... : ... .. 0 ... : ... .. . ... ... : ... .. . ... ... : ... .. . ... ... : ... .. . P83 ...
ROW 60 : ... .. . P80 ... ... : ... .. . ... ... ... : E-3 00 . ... : 1-# 00 F ... : ... .. . ... ... : F#3 01 A ... ... : A#3 01 A ... ... : D#3 01 A ... ...
ROW 61 : ... .. . P82 ... ... : ... .. . ... ... ... : F#2 00 . ... : ... .. C ... : ... .. . ... ... : ... .. 9 ... ... : ... .. 9 ... ... : ... .. 8 P81 ...
ROW 62 : D-5 00 A P80 ... ... : ... .. . ... ... ... : B-1 00 . ... : ... .. 6 ... : ... .. . ... ... : ... .. 8 ... ... : ... .. 8 ... ... : ... .. 5 P80 ...
ROW 63 : D#5 00 A P7E ... ... : ... .. . ... ... ... : A#1 00 . ... : ... .. 3 ... : ... .. . ... ... : ... .. 1 ... ... : ... .. 1 ... ... : ... .. 2 P7D ...
ROW 64 : ... .. . P81 ... ... : ... .. . ... ... ... : F-1 00 . ... : ... .. 2 ... : ... .. . ... ... : ... .. . ... ... : ... .. . ... ... : ... .. . ... ...
ROW 65 : ... .. . ... ... ... : ... .. . ... ... ... : ... .. . ... : ... .. 0 ... : ... .. . ... ... : ... .. . ... ... : ... .. . ... ... : ... .. . P7E ...
ROW 66 : D-5 00 A P82 ... ... : D#5 00 4 P7F ... ... : F-2 00 . ... : 9-# 00 8 ... : ... .. . ... ... : ... .. A ... ... : ... .. A ... ... : ... .. A P80 ...
ROW 67 : ... .. . P7F ... ... : ... .. . P81 ... ... : ... .. . ... : ... .. 6 ... : ... .. . ... ... : ... .. 9 ... ... : ... .. 9 ... ... : ... .. 8 P81 ...
ROW 68 : C#5 00 A P81 ... ... : ... .. . P80 ... ... : ... .. . ... : ... .. 3 ... : ... .. . ... ... : ... .. 8 ... ... : ... .. 8 ... ... : ... .. 5 P83 ...
ROW 69 : ... .. . P80 ... ... : D-5 00 4 P82 ... ... : ... .. . ... : ... .. 1 ... : ... .. . ... ... : ... .. 1 ... ... : ... .. 1 ... ... : ... .. 2 ... ...
ROW 6A : ... .. . P82 ... ... : ... .. . P7E ... ... : ... .. . ... : ... .. . ... : ... .. . ... ... : ... .. . ... ... : ... .. . ... ... : ... .. . P81 ...
ROW 6B : D-5 00 A P80 ... ... : C#5 00 4 P81 ... ... : --- .. . ... : ... .. 0 ... : ... .. . ... ... : ... .. . ... ... : ... .. . ... ... : ... .. . P80 ...
ROW 6C : D#5 00 A P7E ... ... : ... .. . P80 ... ... : F-3 00 . ... : 1-# 00 F ... : ... .. . ... ... : ... .. A ... ... : ... .. A ... ... : ... .. A P7E ...
ROW 6D : ... .. . P81 ... ... : ... .. . P82 ... ... : ... .. . ... : ... .. C ... : ... .. . ... ... : ... .. 9 ... ... : ... .. 9 ... ... : ... .. 8 P7D ...
ROW 6E : ... .. . ... ... ... : D-5 00 4 P80 ... ... : ... .. . ... : ... .. 6 ... : ... .. . ... ... : ... .. 8 ... ... : ... .. 8 ... ... : ... .. 5 ... ...
ROW 6F : ... .. . P7E ... ... : D#5 00 4 P7E ... ... : ... .. . ... : ... .. 3 ... : ... .. . ... ... : ... .. 1 ... ... : ... .. 1 ... ... : ... .. 2 P80 ...
ROW 70 : D-5 00 A P80 ... ... : ... .. . P81 ... ... : ... .. . ... : ... .. 2 ... : ... .. . ... ... : ... .. . ... ... : ... .. . ... ... : ... .. . P81 ...
ROW 71 : C#5 00 A P82 ... ... : ... .. . ... ... ... : --- .. . ... : ... .. 0 ... : ... .. . ... ... : ... .. . ... ... : ... .. . ... ... : ... .. . P83 ...
ROW 72 : ... .. . P80 ... ... : D-5 00 4 P82 ... ... : F-2 00 . ... : 9-# 00 8 ... : ... .. . ... ... : ... .. A ... ... : ... .. A ... ... : ... .. A ... ...
ROW 73 : ... .. . P81 ... ... : ... .. . P7F ... ... : ... .. . ... : ... .. 6 ... : ... .. . ... ... : ... .. 9 ... ... : ... .. 9 ... ... : ... .. 8 P82 ...
ROW 74 : D-5 00 A P7F ... ... : C#5 00 4 P81 ... ... : ... .. . ... : ... .. 3 ... : ... .. . ... ... : ... .. 8 ... ... : ... .. 8 ... ... : ... .. 5 P80 ...
ROW 75 : ... .. . P82 ... ... : ... .. . P80 ... ... : ... .. . ... : ... .. 1 ... : ... .. . ... ... : ... .. 1 ... ... : ... .. 1 ... ... : ... .. 2 P7E ...
ROW 76 : D#5 00 A P81 ... ... : ... .. . P82 ... ... : ... .. . ... : ... .. . ... : ... .. . ... ... : ... .. . ... ... : ... .. . ... ... : ... .. . P7D ...
ROW 77 : ... .. . ... ... ... : D-5 00 4 P80 ... ... : --- .. . ... : ... .. 0 ... : ... .. . ... ... : ... .. . ... ... : ... .. . ... ... : ... .. . ... ...
ROW 78 : ... .. . P7E ... ... : D#5 00 4 P7E ... ... : F-4 00 . ... : ... .. D ... : ... .. . ... ... : F-3 01 A ... ... : A-3 01 A ... ... : D-3 01 A P7F ...
ROW 79 : D-5 00 A P80 ... ... : ... .. . P81 ... ... : G-3 00 . ... : ... .. B ... : ... .. . ... ... : ... .. 9 ... ... : ... .. 9 ... ... : ... .. 8 P81 ...
ROW 7A : C#5 00 A P82 ... ... : ... .. . ... ... ... : C-3 00 . ... : ... .. . ... : ... .. . ... ... : ... .. 8 ... ... : ... .. 8 ... ... : ... .. 5 P83 ...
ROW 7B : ... .. . P80 ... ... : ... .. . P7E ... ... : B-2 00 . ... : ... .. A ... : ... .. . ... ... : ... .. 1 ... ... : ... .. 1 ... ... : ... .. 2 ... ...
ROW 7C : ... .. . P81 ... ... : D-5 00 4 P80 ... ... : F#2 00 . ... : ... .. 8 ... : ... .. . ... ... : ... .. . ... ... : ... .. . ... ... : ... .. . P82 ...
ROW 7D : D-5 00 A P7E ... ... : C#5 00 4 P82 ... ... : ... .. . ... : ... .. 7 ... : ... .. . ... ... : ... .. . ... ... : ... .. . ... ... : ... .. . P80 ...
ROW 7E : ... .. . P82 ... ... : ... .. . P80 ... ... : F-2 00 . ... : 7-# 00 8 ... : ... .. . ... ... : ... .. A ... ... : ... .. A ... ... : ... .. A P7E ...
ROW 7F : D#5 00 A P80 ... ... : ... .. . P81 ... ... : ... .. . ... : ... .. 6 ... : ... .. . ... ... : ... .. 9 ... ... : ... .. 9 ... ... : ... .. 8 P7D ...
ROW 80 : ... .. . P81 ... ... : D-5 00 4 P7F ... ... : ... .. . ... : ... .. 3 ... : ... .. . ... ... : ... .. 8 ... ... : ... .. 8 ... ... : ... .. 5 ... ...
ROW 81 : C#5 00 A P82 ... ... : ... .. . P82 ... ... : ... .. . ... : ... .. 1 ... : ... .. . ... ... : ... .. 1 ... ... : ... .. 1 ... ... : ... .. 2 P7F ...
ROW 82 : B-4 00 A ... ... ... : D#5 00 4 P81 ... ... : ... .. . ... : ... .. . ... : ... .. . ... ... : ... .. . ... ... : ... .. . ... ... : ... .. . P80 ...
ROW 83 : A#4 00 A P7E ... ... : ... .. . ... ... ... : --- .. . ... : ... .. 0 ... : ... .. . ... ... : ... .. . ... ... : ... .. . ... ... : ... .. . P83 ...
ROW 84 : G#4 00 A P82 ... ... : ... .. . P7E ... ... : D#3 00 . ... : A-# 00 F ... : ... .. . ... ... : ... .. 6 ... ... : ... .. 6 ... ... : ... .. A ... ...
ROW 85 : G-4 00 A ... ... ... : D-5 00 4 P80 ... ... : ... .. . ... : ... .. C ... : ... .. . ... ... : ... .. . ... ... : ... .. . ... ... : ... .. 8 P82 ...
ROW 86 : ... .. . P7E ... ... : C#5 00 4 P82 ... ... : ... .. . ... : ... .. 6 ... : ... .. . ... ... : ... .. 5 ... ... : ... .. 5 ... ... : ... .. 5 P80 ...
ROW 87 : F#4 00 A P81 ... ... : ... .. . P80 ... ... : ... .. . ... : ... .. 3 ... : ... .. . ... ... : ... .. 1 ... ... : ... .. 1 ... ... : ... .. 2 P7F ...
ROW 88 : ... .. . P7D ... ... : ... .. . P81 ... ... : ... .. . ... : ... .. 2 ... : ... .. . ... ... : ... .. . ... ... : ... .. . ... ... : ... .. . P7D ...
ROW 89 : F-4 00 A P7F ... ... : D-5 00 4 P7E ... ... : --- .. . ... : ... .. 0 ... : ... .. . ... ... : ... .. . ... ... : ... .. . ... ... : ... .. . ... ...
ROW 8A : E-4 00 A ... ... ... : C#5 00 4 P80 ... ... : F-2 00 . ... : E-# 00 8 ... : ... .. . ... ... : ... .. 6 ... ... : ... .. 6 ... ... : ... .. A P7F ...
ROW 8B : D#4 00 A P7D ... ... : C-5 00 4 P81 ... ... : ... .. . ... : ... .. 6 ... : ... .. . ... ... : ... .. . ... ... : ... .. . ... ... : ... .. 8 P80 ...
ROW 8C : D-4 00 A P7C ... ... : B-4 00 4 P80 ... ... : ... .. . ... : ... .. 3 ... : ... .. . ... ... : ... .. 5 ... ... : ... .. 5 ... ... : ... .. 5 P82 ...
ROW 8D : C#4 00 A P7D ... ... : A#4 00 4 P7D ... ... : ... .. . ... : ... .. 1 ... : ... .. . ... ... : ... .. 1 ... ... : ... .. 1 ... ... : ... .. 2 P83 ...
ROW 8E : C-4 00 A P81 ... ... : G#4 00 4 P80 ... ... : ... .. . ... : ... .. . ... : ... .. . ... ... : ... .. . ... ... : ... .. . ... ... : ... .. . ... ...
ROW 8F : ... .. . P7C ... ... : G-4 00 4 P7D ... ... : --- .. . ... : ... .. 0 ... : ... .. . ... ... : ... .. . ... ... : ... .. . ... ... : ... .. . P80 ...
ROW 90 : G-4 00 F P80 ... ... : D#5 00 8 P80 ... ... : C-5 00 . ... : 1-# 00 F ... : ... .. . ... ... : B-3 01 A ... ... : D-3 01 A ... ... : C#2 01 F P7F ...
ROW 91 : ... .. E ... ... ... : ... .. 7 ... ... ... : D-4 00 . ... : ... .. C ... : ... .. . ... ... : ... .. 9 ... ... : ... .. 9 ... ... : ... .. D P7D ...
ROW 92 : ... .. D ... ... ... : ... .. . ... ... ... : G-3 00 . ... : ... .. 6 ... : ... .. . ... ... : ... .. 8 ... ... : ... .. 8 ... ... : ... .. 8 ... ...
ROW 93 : ... .. A ... ... ... : ... .. 6 ... ... ... : F#3 00 . ... : ... .. 3 ... : ... .. . ... ... : ... .. 7 ... ... : ... .. 7 ... ... : ... .. . P7E ...
ROW 94 : ... .. . ... ... ... : ... .. 5 ... ... ... : C#3 00 . ... : ... .. 2 ... : ... .. . ... ... : ... .. . ... ... : ... .. . ... ... : ... .. . P80 ...
ROW 95 : ... .. . ... ... ... : ... .. 4 ... ... ... : ... .. . ... : ... .. 0 ... : ... .. . ... ... : ... .. 6 ... ... : ... .. 6 ... ... : ... .. 1 P82 ...
ROW 96 : C#4 00 8 ... ... ... : F-5 00 8 ... ... ... : D-3 00 . ... : 9-# 00 8 ... : ... .. . ... ... : C#1 01 A ... ... : C#1 01 A ... ... : B-1 01 F P83 ...
ROW 97 : ... .. 7 ... ... ... : ... .. 7 ... ... ... : ... .. . ... : ... .. 6 ... : ... .. . ... ... : ... .. 9 ... ... : ... .. 9 ... ... : ... .. D ... ...
ROW 98 : ... .. 6 ... ... ... : ... .. . ... ... ... : ... .. . ... : ... .. 3 ... : ... .. . ... ... : ... .. 8 ... ... : ... .. 8 ... ... : ... .. 8 P81 ...
ROW 99 : ... .. 5 ... ... ... : ... .. 6 ... ... ... : ... .. . ... : ... .. 1 ... : ... .. . ... ... : ... .. 1 ... ... : ... .. 1 ... ... : ... .. . P7F ...
ROW 9A : ... .. . ... ... ... : ... .. 5 ... ... ... : ... .. . ... : ... .. . ... : ... .. . ... ... : ... .. . ... ... : ... .. . ... ... : ... .. . P7D ...
ROW 9B : ... .. . ... ... ... : ... .. 4 ... ... ... : --- .. . ... : ... .. 0 ... : ... .. . ... ... : ... .. . ... ... : ... .. . ... ... : ... .. 1 ... ...
ROW 9C : B-3 00 8 ... ... ... : D#5 00 8 ... ... ... : C#3 00 . ... : B-# 00 F ... : ... .. . ... ... : ... .. A ... ... : ... .. A ... ... : C#2 01 F P7E ...
ROW 9D : ... .. 7 ... ... ... : ... .. 7 ... ... ... : ... .. . ... : ... .. C ... : ... .. . ... ... : ... .. 9 ... ... : ... .. 9 ... ... : ... .. D P80 ...
ROW 9E : ... .. 6 ... ... ... : ... .. . ... ... ... : ... .. . ... : ... .. 6 ... : ... .. . ... ... : ... .. 8 ... ... : ... .. 8 ... ... : ... .. 8 P82 ...
ROW 9F : ... .. 5 ... ... ... : ... .. 6 ... ... ... : ... .. . ... : ... .. 3 ... : ... .. . ... ... : ... .. 1 ... ... : ... .. 1 ... ... : ... .. . P83 ...
ROW A0 : ... .. . ... ... ... : ... .. 5 ... ... ... : ... .. . ... : ... .. 2 ... : ... .. . ... ... : ... .. . ... ... : ... .. . ... ... : ... .. . ... ...
ROW A1 : ... .. . ... ... ... : ... .. 4 ... ... ... : --- .. . ... : ... .. 0 ... : ... .. . ... ... : ... .. . ... ... : ... .. . ... ... : ... .. 1 P81 ...
ROW A2 : G-4 00 F ... ... ... : B-4 00 8 ... ... ... : C#2 00 . ... : 1-# 00 F ... : ... .. . ... ... : B-3 01 A ... ... : D-3 01 A ... ... : C#1 01 F P80 ...
ROW A3 : ... .. E ... ... ... : ... .. 7 ... ... ... : ... .. . ... : ... .. C ... : ... .. . ... ... : ... .. 9 ... ... : ... .. 9 ... ... : ... .. D P7D ...
ROW A4 : ... .. D ... ... ... : ... .. . ... ... ... : ... .. . ... : ... .. 6 ... : ... .. . ... ... : ... .. 8 ... ... : ... .. 8 ... ... : ... .. 8 ... ...
ROW A5 : ... .. A ... ... ... : ... .. 6 ... ... ... : ... .. . ... : ... .. 3 ... : ... .. . ... ... : ... .. 7 ... ... : ... .. 7 ... ... : ... .. . P7E ...
ROW A6 : ... .. . ... ... ... : ... .. 5 ... ... ... : ... .. . ... : ... .. 2 ... : ... .. . ... ... : ... .. . ... ... : ... .. . ... ... : ... .. . P80 ...
ROW A7 : ... .. . ... ... ... : ... .. 4 ... ... ... : --- .. . ... : ... .. 0 ... : ... .. . ... ... : ... .. 6 ... ... : ... .. 6 ... ... : ... .. 1 P81 ...
ROW A8 : C#4 00 8 ... ... ... : A-4 00 8 ... ... ... : A#3 00 . ... : 9-# 00 8 ... : ... .. . ... ... : C#1 01 A ... ... : C#1 01 A ... ... : B-0 01 F P83 ...
ROW A9 : ... .. 7 ... ... ... : ... .. 7 ... ... ... : C-3 00 . ... : ... .. 6 ... : ... .. . ... ... : ... .. 9 ... ... : ... .. 9 ... ... : ... .. D ... ...
ROW AA : ... .. 6 ... ... ... : ... .. . ... ... ... : F-2 00 . ... : ... .. 3 ... : ... .. . ... ... : ... .. 8 ... ... : ... .. 8 ... ... : ... .. 8 P81 ...
ROW AB : ... .. 5 ... ... ... : ... .. 6 ... ... ... : E-2 00 . ... : ... .. 1 ... : ... .. . ... ... : ... .. 1 ... ... : ... .. 1 ... ... : ... .. . P80 ...
ROW AC : ... .. . ... ... ... : ... .. 5 ... ... ... : B-1 00 . ... : ... .. . ... : ... .. . ... ... : ... .. . ... ... : ... .. . ... ... : ... .. . P7E ...
ROW AD : ... .. . ... ... ... : ... .. 4 ... ... ... : ... .. . ... : ... .. 0 ... : ... .. . ... ... : ... .. . ... ... : ... .. . ... ... : ... .. 1 P7D ...
ROW AE : B-3 00 8 ... ... ... : F-4 00 8 ... ... ... : C#2 00 . ... : B-# 00 F ... : ... .. . ... ... : ... .. A ... ... : ... .. A ... ... : C#1 01 F ... ...
ROW AF : ... .. 7 ... ... ... : ... .. 7 ... ... ... : ... .. . ... : ... .. C ... : ... .. . ... ... : ... .. 9 ... ... : ... .. 9 ... ... : ... .. D P80 ...
ROW B0 : ... .. 6 ... ... ... : ... .. . ... ... ... : ... .. . ... : ... .. 6 ... : ... .. . ... ... : ... .. 8 ... ... : ... .. 8 ... ... : ... .. 8 P81 ...
ROW B1 : ... .. 5 ... ... ... : ... .. 6 ... ... ... : ... .. . ... : ... .. 3 ... : ... .. . ... ... : ... .. 1 ... ... : ... .. 1 ... ... : ... .. . P83 ...
ROW B2 : ... .. . ... ... ... : ... .. 5 ... ... ... : ... .. . ... : ... .. 2 ... : ... .. . ... ... : ... .. . ... ... : ... .. . ... ... : ... .. . ... ...
ROW B3 : ... .. . ... ... ... : ... .. 4 ... ... ... : --- .. . ... : ... .. 0 ... : ... .. . ... ... : ... .. . ... ... : ... .. . ... ... : ... .. 1 P82 ...
ROW B4 : G-4 00 F ... ... ... : D#5 00 8 ... ... ... : C#3 00 . ... : 1-# 00 F ... : ... .. . ... ... : B-3 01 A ... ... : D-3 01 A ... ... : C#2 01 F P80 ...
ROW B5 : ... .. E ... ... ... : ... .. 7 ... ... ... : ... .. . ... : ... .. C ... : ... .. . ... ... : ... .. 9 ... ... : ... .. 9 ... ... : ... .. D P7E ...
ROW B6 : ... .. D ... ... ... : ... .. . ... ... ... : ... .. . ... : ... .. 6 ... : ... .. . ... ... : ... .. 8 ... ... : ... .. 8 ... ... : ... .. 8 P7D ...
ROW B7 : ... .. A ... ... ... : ... .. 6 ... ... ... : ... .. . ... : ... .. 3 ... : ... .. . ... ... : ... .. 7 ... ... : ... .. 7 ... ... : ... .. . ... ...
ROW B8 : ... .. . ... ... ... : ... .. 5 ... ... ... : ... .. . ... : ... .. 2 ... : ... .. . ... ... : ... .. . ... ... : ... .. . ... ... : ... .. . P7F ...
ROW B9 : ... .. . ... ... ... : ... .. 4 ... ... ... : --- .. . ... : ... .. 0 ... : ... .. . ... ... : ... .. 6 ... ... : ... .. 6 ... ... : ... .. 1 P81 ...
ROW BA : B-3 00 8 ... ... ... : F-5 00 8 ... ... ... : D-3 00 . ... : 9-# 00 8 ... : ... .. . ... ... : C#1 01 A ... ... : C#1 01 A ... ... : B-1 01 F P83 ...
ROW BB : ... .. 7 ... ... ... : ... .. 7 ... ... ... : ... .. . ... : ... .. 6 ... : ... .. . ... ... : ... .. 9 ... ... : ... .. 9 ... ... : ... .. D ... ...
ROW BC : ... .. 6 ... ... ... : ... .. . ... ... ... : ... .. . ... : ... .. 3 ... : ... .. . ... ... : ... .. 8 ... ... : ... .. 8 ... ... : ... .. 8 P82 ...
ROW BD : ... .. 5 ... ... ... : ... .. 6 ... ... ... : ... .. . ... : ... .. 1 ... : ... .. . ... ... : ... .. 1 ... ... : ... .. 1 ... ... : ... .. . P80 ...
ROW BE : ... .. . ... ... ... : ... .. 5 ... ... ... : ... .. . ... : ... .. . ... : ... .. . ... ... : ... .. . ... ... : ... .. . ... ... : ... .. . P7E ...
ROW BF : ... .. . ... ... ... : ... .. 4 ... ... ... : --- .. . ... : ... .. 0 ... : ... .. . ... ... : ... .. . ... ... : ... .. . ... ... : ... .. 1 P7D ...
ROW C0 : A-3 00 8 ... ... ... : D#5 00 8 ... ... ... : C-5 00 . ... : B-# 00 F ... : ... .. . ... ... : ... .. A ... ... : ... .. A ... ... : C#2 01 F ... ...
ROW C1 : ... .. 7 ... ... ... : ... .. 7 ... ... ... : D-4 00 . ... : ... .. C ... : ... .. . ... ... : ... .. 9 ... ... : ... .. 9 ... ... : ... .. D P7F ...
ROW C2 : ... .. 6 ... ... ... : ... .. . ... ... ... : G-3 00 . ... : ... .. 6 ... : ... .. . ... ... : ... .. 8 ... ... : ... .. 8 ... ... : ... .. 8 P80 ...
ROW C3 : ... .. 5 ... ... ... : ... .. 6 ... ... ... : F#3 00 . ... : ... .. 3 ... : ... .. . ... ... : ... .. 1 ... ... : ... .. 1 ... ... : ... .. . P83 ...
ROW C4 : ... .. . ... ... ... : ... .. 5 ... ... ... : C#3 00 . ... : ... .. 2 ... : ... .. . ... ... : ... .. . ... ... : ... .. . ... ... : ... .. . ... ...
ROW C5 : ... .. . ... ... ... : ... .. 4 ... ... ... : ... .. . ... : ... .. 0 ... : ... .. . ... ... : ... .. . ... ... : ... .. . ... ... : ... .. 1 P82 ...
ROW C6 : F-3 00 8 ... ... ... : B-4 00 8 ... ... ... : C#2 00 . ... : 9-# 00 8 ... : ... .. . ... ... : ... .. A ... ... : ... .. A ... ... : C#1 01 F P80 ...
ROW C7 : ... .. 7 ... ... ... : ... .. 7 ... ... ... : ... .. . ... : ... .. 6 ... : ... .. . ... ... : ... .. 9 ... ... : ... .. 9 ... ... : ... .. D P7F ...
ROW C8 : ... .. 6 ... ... ... : ... .. . ... ... ... : ... .. . ... : ... .. 3 ... : ... .. . ... ... : ... .. 8 ... ... : ... .. 8 ... ... : ... .. 8 P7D ...
ROW C9 : ... .. 5 ... ... ... : ... .. 6 ... ... ... : ... .. . ... : ... .. 1 ... : ... .. . ... ... : ... .. 1 ... ... : ... .. 1 ... ... : ... .. . ... ...
ROW CA : ... .. . ... ... ... : ... .. 5 ... ... ... : ... .. . ... : ... .. . ... : ... .. . ... ... : ... .. . ... ... : ... .. . ... ... : ... .. . P7F ...
ROW CB : ... .. . ... ... ... : ... .. 4 ... ... ... : --- .. . ... : ... .. 0 ... : ... .. . ... ... : ... .. . ... ... : ... .. . ... ... : ... .. 1 P80 ...
ROW CC : C#3 00 F ... ... ... : A-4 00 8 ... ... ... : B-1 00 . ... : ... .. D ... : ... .. . ... ... : ... .. A ... ... : ... .. A ... ... : B-0 01 F P82 ...
ROW CD : ... .. E ... ... ... : ... .. 7 ... ... ... : ... .. . ... : ... .. B ... : ... .. . ... ... : ... .. 9 ... ... : ... .. 9 ... ... : ... .. D P83 ...
ROW CE : ... .. D ... ... ... : ... .. . ... ... ... : ... .. . ... : ... .. . ... : ... .. . ... ... : ... .. 8 ... ... : ... .. 8 ... ... : ... .. 8 ... ...
ROW CF : ... .. A ... ... ... : ... .. 6 ... ... ... : ... .. . ... : ... .. A ... : ... .. . ... ... : ... .. 1 ... ... : ... .. 1 ... ... : ... .. . P80 ...
ROW D0 : ... .. . ... ... ... : ... .. 5 ... ... ... : ... .. . ... : ... .. 8 ... : ... .. . ... ... : ... .. . ... ... : ... .. . ... ... : ... .. . P7F ...
ROW D1 : ... .. . ... ... ... : ... .. 4 ... ... ... : --- .. . ... : ... .. 7 ... : ... .. . ... ... : ... .. . ... ... : ... .. . ... ... : ... .. 1 P7D ...
ROW D2 : B-2 00 8 ... ... ... : F-4 00 8 ... ... ... : C#2 00 . ... : 7-# 00 8 ... : ... .. . ... ... : ... .. A ... ... : ... .. A ... ... : C#1 01 F ... ...
ROW D3 : ... .. 7 ... ... ... : ... .. 7 ... ... ... : ... .. . ... : ... .. 6 ... : ... .. . ... ... : ... .. 9 ... ... : ... .. 9 ... ... : ... .. D P7E ...
ROW D4 : ... .. 6 ... ... ... : ... .. . ... ... ... : ... .. . ... : ... .. 3 ... : ... .. . ... ... : ... .. 8 ... ... : ... .. 8 ... ... : ... .. 8 P80 ...
ROW D5 : ... .. 5 ... ... ... : ... .. 6 ... ... ... : ... .. . ... : ... .. 1 ... : ... .. . ... ... : ... .. 1 ... ... : ... .. 1 ... ... : ... .. . P82 ...
ROW D6 : ... .. . ... ... ... : ... .. 5 ... ... ... : ... .. . ... : ... .. . ... : ... .. . ... ... : ... .. . ... ... : ... .. . ... ... : ... .. . P83 ...
ROW D7 : ... .. . ... ... ... : ... .. 4 ... ... ... : --- .. . ... : ... .. 0 ... : ... .. . ... ... : ... .. . ... ... : ... .. . ... ... : ... .. 1 ... ...
ROW D8 : G#4 00 F ... ... ... : B-4 00 8 ... ... ... : C-5 00 . ... : 1-# 00 F ... : ... .. . ... ... : C#4 01 A ... ... : F-3 01 A ... ... : C#2 01 F P81 ...
ROW D9 : ... .. E ... ... ... : ... .. 7 ... ... ... : D-4 00 . ... : ... .. C ... : ... .. . ... ... : ... .. 9 ... ... : ... .. 9 ... ... : ... .. D P7F ...
ROW DA : ... .. D ... ... ... : ... .. . ... ... ... : G-3 00 . ... : ... .. 6 ... : ... .. . ... ... : ... .. 8 ... ... : ... .. 8 ... ... : ... .. 8 P7D ...
ROW DB : ... .. A ... ... ... : ... .. 6 ... ... ... : F#3 00 . ... : ... .. 3 ... : ... .. . ... ... : ... .. 7 ... ... : ... .. 7 ... ... : ... .. . ... ...
ROW DC : ... .. . ... ... ... : ... .. 5 ... ... ... : C#3 00 . ... : ... .. 2 ... : ... .. . ... ... : ... .. . ... ... : ... .. . ... ... : ... .. . P7E ...
ROW DD : ... .. . ... ... ... : ... .. 4 ... ... ... : ... .. . ... : ... .. 0 ... : ... .. . ... ... : ... .. 6 ... ... : ... .. 6 ... ... : ... .. 1 P80 ...
ROW DE : C#4 00 8 ... ... ... : C#5 00 8 ... ... ... : D-3 00 . ... : 9-# 00 8 ... : ... .. . ... ... : C#1 01 A ... ... : C#1 01 A ... ... : B-1 01 F P82 ...
ROW DF : ... .. 7 ... ... ... : ... .. 7 ... ... ... : ... .. . ... : ... .. 6 ... : ... .. . ... ... : ... .. 9 ... ... : ... .. 9 ... ... : ... .. D P83 ...
ROW E0 : ... .. 6 ... ... ... : ... .. . ... ... ... : ... .. . ... : ... .. 3 ... : ... .. . ... ... : ... .. 8 ... ... : ... .. 8 ... ... : ... .. 8 ... ...
ROW E1 : ... .. 5 ... ... ... : ... .. 6 ... ... ... : ... .. . ... : ... .. 1 ... : ... .. . ... ... : ... .. 1 ... ... : ... .. 1 ... ... : ... .. . P81 ...
ROW E2 : ... .. . ... ... ... : ... .. 5 ... ... ... : ... .. . ... : ... .. . ... : ... .. . ... ... : ... .. . ... ... : ... .. . ... ... : ... .. . P80 ...
ROW E3 : ... .. . ... ... ... : ... .. 4 ... ... ... : --- .. . ... : ... .. 0 ... : ... .. . ... ... : ... .. . ... ... : ... .. . ... ... : ... .. 1 P7D ...
ROW E4 : B-3 00 8 ... ... ... : B-4 00 8 ... ... ... : C#3 00 . ... : B-# 00 F ... : ... .. . ... ... : ... .. A ... ... : ... .. A ... ... : C#2 01 F ... ...
ROW E5 : ... .. 7 ... ... ... : ... .. 7 ... ... ... : ... .. . ... : ... .. C ... : ... .. . ... ... : ... .. 9 ... ... : ... .. 9 ... ... : ... .. D P7E ...
ROW E6 : ... .. 6 ... ... ... : ... .. . ... ... ... : ... .. . ... : ... .. 6 ... : ... .. . ... ... : ... .. 8 ... ... : ... .. 8 ... ... : ... .. 8 P80 ...
ROW E7 : ... .. 5 ... ... ... : ... .. 6 ... ... ... : ... .. . ... : ... .. 3 ... : ... .. . ... ... : ... .. 1 ... ... : ... .. 1 ... ... : ... .. . P81 ...
ROW E8 : ... .. . ... ... ... : ... .. 5 ... ... ... : ... .. . ... : ... .. 2 ... : ... .. . ... ... : ... .. . ... ... : ... .. . ... ... : ... .. . P83 ...
ROW E9 : ... .. . ... ... ... : ... .. 4 ... ... ... : --- .. . ... : ... .. 0 ... : ... .. . ... ... : ... .. . ... ... : ... .. . ... ... : ... .. 1 ... ...
ROW EA : G#4 00 F ... ... ... : G-4 00 8 ... ... ... : C#2 00 . ... : 1-# 00 F ... : ... .. . ... ... : C#4 01 A ... ... : F-3 01 A ... ... : C#1 01 F P81 ...
ROW EB : ... .. E ... ... ... : ... .. 7 ... ... ... : ... .. . ... : ... .. C ... : ... .. . ... ... : ... .. 9 ... ... : ... .. 9 ... ... : ... .. D P80 ...
ROW EC : ... .. D ... ... ... : ... .. . ... ... ... : ... .. . ... : ... .. 6 ... : ... .. . ... ... : ... .. 8 ... ... : ... .. 8 ... ... : ... .. 8 P7E ...
ROW ED : ... .. A ... ... ... : ... .. 6 ... ... ... : ... .. . ... : ... .. 3 ... : ... .. . ... ... : ... .. 7 ... ... : ... .. 7 ... ... : ... .. . P7D ...
ROW EE : ... .. . ... ... ... : ... .. 5 ... ... ... : ... .. . ... : ... .. 2 ... : ... .. . ... ... : ... .. . ... ... : ... .. . ... ... : ... .. . ... ...
ROW EF : ... .. . ... ... ... : ... .. 4 ... ... ... : --- .. . ... : ... .. 0 ... : ... .. . ... ... : ... .. 6 ... ... : ... .. 6 ... ... : ... .. 1 P80 ...
ROW F0 : C#4 00 8 ... ... ... : C#4 00 8 ... ... ... : A#3 00 . ... : 9-# 00 8 ... : ... .. . ... ... : C#1 01 A ... ... : C#1 01 A ... ... : B-0 01 F P81 ...
ROW F1 : ... .. 7 ... ... ... : ... .. 7 ... ... ... : C-3 00 . ... : ... .. 6 ... : ... .. . ... ... : ... .. 9 ... ... : ... .. 9 ... ... : ... .. D P83 ...
ROW F2 : ... .. 6 ... ... ... : ... .. . ... ... ... : F-2 00 . ... : ... .. 3 ... : ... .. . ... ... : ... .. 8 ... ... : ... .. 8 ... ... : ... .. 8 ... ...
ROW F3 : ... .. 5 ... ... ... : ... .. 6 ... ... ... : E-2 00 . ... : ... .. 1 ... : ... .. . ... ... : ... .. 1 ... ... : ... .. 1 ... ... : ... .. . P82 ...
ROW F4 : ... .. . ... ... ... : ... .. 5 ... ... ... : B-1 00 . ... : ... .. . ... : ... .. . ... ... : ... .. . ... ... : ... .. . ... ... : ... .. . P80 ...
ROW F5 : ... .. . ... ... ... : ... .. 4 ... ... ... : ... .. . ... : ... .. 0 ... : ... .. . ... ... : ... .. . ... ... : ... .. . ... ... : ... .. 1 P7E ...
ROW F6 : B-3 00 8 ... ... ... : B-3 00 8 ... ... ... : C#2 00 . ... : B-# 00 F ... : ... .. . ... ... : ... .. A ... ... : ... .. A ... ... : C#1 01 F P7D ...
ROW F7 : ... .. 7 ... ... ... : ... .. 7 ... ... ... : ... .. . ... : ... .. C ... : ... .. . ... ... : ... .. 9 ... ... : ... .. 9 ... ... : ... .. D ... ...
ROW F8 : ... .. 6 ... ... ... : ... .. . ... ... ... : ... .. . ... : ... .. 6 ... : ... .. . ... ... : ... .. 8 ... ... : ... .. 8 ... ... : ... .. 8 P7F ...
ROW F9 : ... .. 5 ... ... ... : ... .. 6 ... ... ... : ... .. . ... : ... .. 3 ... : ... .. . ... ... : ... .. 1 ... ... : ... .. 1 ... ... : ... .. . P81 ...
ROW FA : ... .. . ... ... ... : ... .. 5 ... ... ... : ... .. . ... : ... .. 2 ... : ... .. . ... ... : ... .. . ... ... : ... .. . ... ... : ... .. . P83 ...
ROW FB : ... .. . ... ... ... : ... .. 4 ... ... ... : --- .. . ... : ... .. 0 ... : ... .. . ... ... : ... .. . ... ... : ... .. . ... ... : ... .. 1 ... ...
ROW FC : G#4 00 F ... ... ... : B-4 00 8 ... ... ... : C#3 00 . ... : 1-# 00 F ... : ... .. . ... ... : C#4 01 A ... ... : F-3 01 A ... ... : C#2 01 F P82 ...
ROW FD : ... .. E ... ... ... : ... .. 7 ... ... ... : ... .. . ... : ... .. C ... : ... .. . ... ... : ... .. 9 ... ... : ... .. 9 ... ... : ... .. D P80 ...
ROW FE : ... .. D ... ... ... : ... .. . ... ... ... : ... .. . ... : ... .. 6 ... : ... .. . ... ... : ... .. 8 ... ... : ... .. 8 ... ... : ... .. 8 P7E ...
ROW FF : ... .. A ... ... ... : ... .. 6 ... ... ... : ... .. . ... : ... .. 3 ... : ... .. . ... ... : ... .. 7 ... ... : ... .. 7 ... ... : ... .. . P7D ...

PATTERN 04
ROW 00 : ... .. . ... ... ... : ... .. 5 ... ... ... : ... .. . ... : ... .. 2 ... : ... .. . ... ... : ... .. . ... ... : ... .. . ... ... : ... .. . ... ...
ROW 01 : ... .. . ... ... ... : ... .. 4 ... ... ... : --- .. . ... : ... .. 0 ... : ... .. . ... ... : ... .. 6 ... ... : ... .. 6 ... ... : ... .. 1 P7F ...
ROW 02 : B-3 00 8 ... ... ... : C#5 00 8 ... ... ... : D-3 00 . ... : 9-# 00 8 ... : ... .. . ... ... : C#1 01 A ... ... : C#1 01 A ... ... : B-1 01 F P80 ...
ROW 03 : ... .. 7 ... ... ... : ... .. 7 ... ... ... : ... .. . ... : ... .. 6 ... : ... .. . ... ... : ... .. 9 ... ... : ... .. 9 ... ... : ... .. D P83 ...
ROW 04 : ... .. 6 ... ... ... : ... .. . ... ... ... : ... .. . ... : ... .. 3 ... : ... .. . ... ... : ... .. 8 ... ... : ... .. 8 ... ... : ... .. 8 ... ...
ROW 05 : ... .. 5 ... ... ... : ... .. 6 ... ... ... : ... .. . ... : ... .. 1 ... : ... .. . ... ... : ... .. 1 ... ... : ... .. 1 ... ... : ... .. . P82 ...
ROW 06 : ... .. . ... ... ... : ... .. 5 ... ... ... : ... .. . ... : ... .. . ... : ... .. . ... ... : ... .. . ... ... : ... .. . ... ... : ... .. . P80 ...
ROW 07 : ... .. . ... ... ... : ... .. 4 ... ... ... : --- .. . ... : ... .. 0 ... : ... .. . ... ... : ... .. . ... ... : ... .. . ... ... : ... .. 1 P7F ...
ROW 08 : A-3 00 8 ... ... ... : B-4 00 8 ... ... ... : C-5 00 . ... : B-# 00 F ... : ... .. . ... ... : ... .. A ... ... : ... .. A ... ... : A-1 01 F P7D ...
ROW 09 : ... .. 7 ... ... ... : ... .. 7 ... ... ... : D-4 00 . ... : ... .. C ... : ... .. . ... ... : ... .. 9 ... ... : ... .. 9 ... ... : ... .. D ... ...
ROW 0A : ... .. 6 ... ... ... : ... .. . ... ... ... : G-3 00 . ... : ... .. 6 ... : ... .. . ... ... : ... .. 8 ... ... : ... .. 8 ... ... : ... .. 8 P7F ...
ROW 0B : ... .. 5 ... ... ... : ... .. 6 ... ... ... : F#3 00 . ... : ... .. 3 ... : ... .. . ... ... : ... .. 1 ... ... : ... .. 1 ... ... : ... .. . P80 ...
ROW 0C : ... .. . ... ... ... : ... .. 5 ... ... ... : C#3 00 . ... : ... .. 2 ... : ... .. . ... ... : ... .. . ... ... : ... .. . ... ... : ... .. . P82 ...
ROW 0D : ... .. . ... ... ... : ... .. 4 ... ... ... : ... .. . ... : ... .. 0 ... : ... .. . ... ... : ... .. . ... ... : ... .. . ... ... : ... .. 1 P83 ...
ROW 0E : F-3 00 8 ... ... ... : G-4 00 8 ... ... ... : C#2 00 . ... : 9-# 00 8 ... : ... .. . ... ... : ... .. A ... ... : ... .. A ... ... : G#1 01 F ... ...
ROW 0F : ... .. 7 ... ... ... : ... .. 7 ... ... ... : ... .. . ... : ... .. 6 ... : ... .. . ... ... : ... .. 9 ... ... : ... .. 9 ... ... : ... .. D P80 ...
ROW 10 : ... .. 6 ... ... ... : ... .. . ... ... ... : ... .. . ... : ... .. 3 ... : ... .. . ... ... : ... .. 8 ... ... : ... .. 8 ... ... : ... .. 8 P7F ...
ROW 11 : ... .. 5 ... ... ... : ... .. 6 ... ... ... : ... .. . ... : ... .. 1 ... : ... .. . ... ... : ... .. 1 ... ... : ... .. 1 ... ... : ... .. . P7D ...
ROW 12 : ... .. . ... ... ... : ... .. 5 ... ... ... : ... .. . ... : ... .. . ... : ... .. . ... ... : ... .. . ... ... : ... .. . ... ... : ... .. . ... ...
ROW 13 : ... .. . ... ... ... : ... .. 4 ... ... ... : --- .. . ... : ... .. 0 ... : ... .. . ... ... : ... .. . ... ... : ... .. . ... ... : ... .. 1 P7E ...
ROW 14 : C#3 00 F ... ... ... : C#4 00 8 ... ... ... : B-1 00 . ... : ... .. D ... : ... .. . ... ... : ... .. A ... ... : ... .. A ... ... : G-1 01 F P80 ...
ROW 15 : ... .. E ... ... ... : ... .. 7 ... ... ... : ... .. . ... : ... .. B ... : ... .. . ... ... : ... .. 9 ... ... : ... .. 9 ... ... : ... .. D P82 ...
ROW 16 : ... .. D ... ... ... : ... .. . ... ... ... : ... .. . ... : ... .. . ... : ... .. . ... ... : ... .. 8 ... ... : ... .. 8 ... ... : ... .. 8 P83 ...
ROW 17 : ... .. A ... ... ... : ... .. 6 ... ... ... : ... .. . ... : ... .. A ... : ... .. . ... ... : ... .. 1 ... ... : ... .. 1 ... ... : ... .. . ... ...
ROW 18 : ... .. . ... ... ... : ... .. 5 ... ... ... : ... .. . ... : ... .. 8 ... : ... .. . ... ... : ... .. . ... ... : ... .. . ... ... : ... .. . P81 ...
ROW 19 : ... .. . ... ... ... : ... .. 4 ... ... ... : --- .. . ... : ... .. 7 ... : ... .. . ... ... : ... .. . ... ... : ... .. . ... ... : ... .. 1 P7F ...
ROW 1A : B-2 00 8 ... ... ... : B-3 00 8 ... ... ... : C#2 00 . ... : 7-# 00 8 ... : ... .. . ... ... : ... .. A ... ... : ... .. A ... ... : F-1 01 F P7D ...
ROW 1B : ... .. 7 ... ... ... : ... .. 7 ... ... ... : ... .. . ... : ... .. 6 ... : ... .. . ... ... : ... .. 9 ... ... : ... .. 9 ... ... : ... .. D ... ...
ROW 1C : ... .. 6 ... ... ... : ... .. . ... ... ... : ... .. . ... : ... .. 3 ... : ... .. . ... ... : ... .. 8 ... ... : ... .. 8 ... ... : ... .. 8 P7E ...
ROW 1D : ... .. 5 ... ... ... : ... .. 6 ... ... ... : ... .. . ... : ... .. 1 ... : ... .. . ... ... : ... .. 1 ... ... : ... .. 1 ... ... : ... .. . P80 ...
ROW 1E : ... .. . ... ... ... : ... .. 5 ... ... ... : ... .. . ... : ... .. . ... : ... .. . ... ... : ... .. . ... ... : ... .. . ... ... : ... .. . P82 ...
ROW 1F : ... .. . ... ... ... : ... .. 4 ... ... ... : --- .. . ... : ... .. 0 ... : ... .. . ... ... : ... .. . ... ... : ... .. . ... ... : ... .. 1 P83 ...
ROW 20 : G-4 00 F ... ... ... : D#5 00 8 ... ... ... : C-5 00 . ... : 1-# 00 F ... : ... .. . ... ... : B-3 01 A ... ... : D-3 01 A ... ... : C#2 01 F ... ...
ROW 21 : ... .. E ... ... ... : ... .. 7 ... ... ... : D-4 00 . ... : ... .. C ... : ... .. . ... ... : ... .. 9 ... ... : ... .. 9 ... ... : ... .. D P81 ...
ROW 22 : ... .. D ... ... ... : ... .. . ... ... ... : G-3 00 . ... : ... .. 6 ... : ... .. . ... ... : ... .. 8 ... ... : ... .. 8 ... ... : ... .. 8 P80 ...
ROW 23 : ... .. A ... ... ... : ... .. 6 ... ... ... : F#3 00 . ... : ... .. 3 ... : ... .. . ... ... : ... .. 7 ... ... : ... .. 7 ... ... : ... .. . P7D ...
ROW 24 : ... .. . ... ... ... : ... .. 5 ... ... ... : C#3 00 . ... : ... .. 2 ... : ... .. . ... ... : ... .. . ... ... : ... .. . ... ... : ... .. . ... ...
ROW 25 : ... .. . ... ... ... : ... .. 4 ... ... ... : ... .. . ... : ... .. 0 ... : ... .. . ... ... : ... .. 6 ... ... : ... .. 6 ... ... : ... .. 1 P7E ...
ROW 26 : C#4 00 8 ... ... ... : F-5 00 8 ... ... ... : D-3 00 . ... : 9-# 00 8 ... : ... .. . ... ... : C#1 01 A ... ... : C#1 01 A ... ... : B-1 01 F P80 ...
ROW 27 : ... .. 7 ... ... ... : ... .. 7 ... ... ... : ... .. . ... : ... .. 6 ... : ... .. . ... ... : ... .. 9 ... ... : ... .. 9 ... ... : ... .. D P81 ...
ROW 28 : ... .. 6 ... ... ... : ... .. . ... ... ... : ... .. . ... : ... .. 3 ... : ... .. . ... ... : ... .. 8 ... ... : ... .. 8 ... ... : ... .. 8 P83 ...
ROW 29 : ... .. 5 ... ... ... : ... .. 6 ... ... ... : ... .. . ... : ... .. 1 ... : ... .. . ... ... : ... .. 1 ... ... : ... .. 1 ... ... : ... .. . ... ...
ROW 2A : ... .. . ... ... ... : ... .. 5 ... ... ... : ... .. . ... : ... .. . ... : ... .. . ... ... : ... .. . ... ... : ... .. . ... ... : ... .. . P81 ...
ROW 2B : ... .. . ... ... ... : ... .. 4 ... ... ... : --- .. . ... : ... .. 0 ... : ... .. . ... ... : ... .. . ... ... : ... .. . ... ... : ... .. 1 P80 ...
ROW 2C : B-3 00 8 ... ... ... : D#5 00 8 ... ... ... : C#3 00 . ... : B-# 00 F ... : ... .. . ... ... : ... .. A ... ... : ... .. A ... ... : C#2 01 F P7E ...
ROW 2D : ... .. 7 ... ... ... : ... .. 7 ... ... ... : ... .. . ... : ... .. C ... : ... .. . ... ... : ... .. 9 ... ... : ... .. 9 ... ... : ... .. D P7D ...
ROW 2E : ... .. 6 ... ... ... : ... .. . ... ... ... : ... .. . ... : ... .. 6 ... : ... .. . ... ... : ... .. 8 ... ... : ... .. 8 ... ... : ... .. 8 ... ...
ROW 2F : ... .. 5 ... ... ... : ... .. 6 ... ... ... : ... .. . ... : ... .. 3 ... : ... .. . ... ... : ... .. 1 ... ... : ... .. 1 ... ... : ... .. . P80 ...
ROW 30 : ... .. . ... ... ... : ... .. 5 ... ... ... : ... .. . ... : ... .. 2 ... : ... .. . ... ... : ... .. . ... ... : ... .. . ... ... : ... .. . P81 ...
ROW 31 : ... .. . ... ... ... : ... .. 4 ... ... ... : --- .. . ... : ... .. 0 ... : ... .. . ... ... : ... .. . ... ... : ... .. . ... ... : ... .. 1 P83 ...
ROW 32 : G-4 00 F ... ... ... : B-4 00 8 ... ... ... : C#2 00 . ... : 1-# 00 F ... : ... .. . ... ... : B-3 01 A ... ... : D-3 01 A ... ... : C#1 01 F ... ...
ROW 33 : ... .. E ... ... ... : ... .. 7 ... ... ... : ... .. . ... : ... .. C ... : ... .. . ... ... : ... .. 9 ... ... : ... .. 9 ... ... : ... .. D P82 ...
ROW 34 : ... .. D ... ... ... : ... .. . ... ... ... : ... .. . ... : ... .. 6 ... : ... .. . ... ... : ... .. 8 ... ... : ... .. 8 ... ... : ... .. 8 P80 ...
ROW 35 : ... .. A ... ... ... : ... .. 6 ... ... ... : ... .. . ... : ... .. 3 ... : ... .. . ... ... : ... .. 7 ... ... : ... .. 7 ... ... : ... .. . P7E ...
ROW 36 : ... .. . ... ... ... : ... .. 5 ... ... ... : ... .. . ... : ... .. 2 ... : ... .. . ... ... : ... .. . ... ... : ... .. . ... ... : ... .. . P7D ...
ROW 37 : ... .. . ... ... ... : ... .. 4 ... ... ... : --- .. . ... : ... .. 0 ... : ... .. . ... ... : ... .. 6 ... ... : ... .. 6 ... ... : ... .. 1 ... ...
ROW 38 : C#4 00 8 ... ... ... : A-4 00 8 ... ... ... : A#3 00 . ... : 9-# 00 8 ... : ... .. . ... ... : C#1 01 A ... ... : C#1 01 A ... ... : B-0 01 F P7F ...
ROW 39 : ... .. 7 ... ... ... : ... .. 7 ... ... ... : C-3 00 . ... : ... .. 6 ... : ... .. . ... ... : ... .. 9 ... ... : ... .. 9 ... ... : ... .. D P81 ...
ROW 3A : ... .. 6 ... ... ... : ... .. . ... ... ... : F-2 00 . ... : ... .. 3 ... : ... .. . ... ... : ... .. 8 ... ... : ... .. 8 ... ... : ... .. 8 P83 ...
ROW 3B : ... .. 5 ... ... ... : ... .. 6 ... ... ... : E-2 00 . ... : ... .. 1 ... : ... .. . ... ... : ... .. 1 ... ... : ... .. 1 ... ... : ... .. . ... ...
ROW 3C : ... .. . ... ... ... : ... .. 5 ... ... ... : B-1 00 . ... : ... .. . ... : ... .. . ... ... : ... .. . ... ... : ... .. . ... ... : ... .. . P82 ...
ROW 3D : ... .. . ... ... ... : ... .. 4 ... ... ... : ... .. . ... : ... .. 0 ... : ... .. . ... ... : ... .. . ... ... : ... .. . ... ... : ... .. 1 P80 ...
ROW 3E : B-3 00 8 ... ... ... : F-4 00 8 ... ... ... : C#2 00 . ... : B-# 00 F ... : ... .. . ... ... : ... .. A ... ... : ... .. A ... ... : C#1 01 F P7E ...
ROW 3F : ... .. 7 ... ... ... : ... .. 7 ... ... ... : ... .. . ... : ... .. C ... : ... .. . ... ... : ... .. 9 ... ... : ... .. 9 ... ... : ... .. D P7D ...
ROW 40 : ... .. 6 ... ... ... : ... .. . ... ... ... : ... .. . ... : ... .. 6 ... : ... .. . ... ... : ... .. 8 ... ... : ... .. 8 ... ... : ... .. 8 ... ...
ROW 41 : ... .. 5 ... ... ... : ... .. 6 ... ... ... : ... .. . ... : ... .. 3 ... : ... .. . ... ... : ... .. 1 ... ... : ... .. 1 ... ... : ... .. . P7F ...
ROW 42 : ... .. . ... ... ... : ... .. 5 ... ... ... : ... .. . ... : ... .. 2 ... : ... .. . ... ... : ... .. . ... ... : ... .. . ... ... : ... .. . P80 ...
ROW 43 : ... .. . ... ... ... : ... .. 4 ... ... ... : --- .. . ... : ... .. 0 ... : ... .. . ... ... : ... .. . ... ... : ... .. . ... ... : ... .. 1 P83 ...
ROW 44 : G-4 00 F ... ... ... : D#5 00 8 ... ... ... : C#3 00 . ... : 1-# 00 F ... : ... .. . ... ... : B-3 01 A ... ... : D-3 01 A ... ... : C#2 01 F ... ...
ROW 45 : ... .. E ... ... ... : ... .. 7 ... ... ... : ... .. . ... : ... .. C ... : ... .. . ... ... : ... .. 9 ... ... : ... .. 9 ... ... : ... .. D P82 ...
ROW 46 : ... .. D ... ... ... : ... .. . ... ... ... : ... .. . ... : ... .. 6 ... : ... .. . ... ... : ... .. 8 ... ... : ... .. 8 ... ... : ... .. 8 P80 ...
ROW 47 : ... .. A ... ... ... : ... .. 6 ... ... ... : ... .. . ... : ... .. 3 ... : ... .. . ... ... : ... .. 7 ... ... : ... .. 7 ... ... : ... .. . P7F ...
ROW 48 : ... .. . ... ... ... : ... .. 5 ... ... ... : ... .. . ... : ... .. 2 ... : ... .. . ... ... : ... .. . ... ... : ... .. . ... ... : ... .. . P7D ...
ROW 49 : ... .. . ... ... ... : ... .. 4 ... ... ... : --- .. . ... : ... .. 0 ... : ... .. . ... ... : ... .. 6 ... ... : ... .. 6 ... ... : ... .. 1 ... ...
ROW 4A : B-3 00 8 ... ... ... : F-5 00 8 ... ... ... : D-3 00 . ... : 9-# 00 8 ... : ... .. . ... ... : C#1 01 A ... ... : C#1 01 A ... ... : B-1 01 F P7F ...
ROW 4B : ... .. 7 ... ... ... : ... .. 7 ... ... ... : ... .. . ... : ... .. 6 ... : ... .. . ... ... : ... .. 9 ... ... : ... .. 9 ... ... : ... .. D P80 ...
ROW 4C : ... .. 6 ... ... ... : ... .. . ... ... ... : ... .. . ... : ... .. 3 ... : ... .. . ... ... : ... .. 8 ... ... : ... .. 8 ... ... : ... .. 8 P82 ...
ROW 4D : ... .. 5 ... ... ... : ... .. 6 ... ... ... : ... .. . ... : ... .. 1 ... : ... .. . ... ... : ... .. 1 ... ... : ... .. 1 ... ... : ... .. . P83 ...
ROW 4E : ... .. . ... ... ... : ... .. 5 ... ... ... : ... .. . ... : ... .. . ... : ... .. . ... ... : ... .. . ... ... : ... .. . ... ... : ... .. . ... ...
ROW 4F : ... .. . ... ... ... : ... .. 4 ... ... ... : --- .. . ... : ... .. 0 ... : ... .. . ... ... : ... .. . ... ... : ... .. . ... ... : ... .. 1 P80 ...
ROW 50 : A-3 00 8 ... ... ... : D#5 00 8 ... ... ... : C-5 00 . ... : B-# 00 F ... : ... .. . ... ... : ... .. A ... ... : ... .. A ... ... : C#2 01 F P7F ...
ROW 51 : ... .. 7 ... ... ... : ... .. 7 ... ... ... : D-4 00 . ... : ... .. C ... : ... .. . ... ... : ... .. 9 ... ... : ... .. 9 ... ... : ... .. D P7D ...
ROW 52 : ... .. 6 ... ... ... : ... .. . ... ... ... : G-3 00 . ... : ... .. 6 ... : ... .. . ... ... : ... .. 8 ... ... : ... .. 8 ... ... : ... .. 8 ... ...
ROW 53 : ... .. 5 ... ... ... : ... .. 6 ... ... ... : F#3 00 . ... : ... .. 3 ... : ... .. . ... ... : ... .. 1 ... ... : ... .. 1 ... ... : ... .. . P7E ...
ROW 54 : ... .. . ... ... ... : ... .. 5 ... ... ... : C#3 00 . ... : ... .. 2 ... : ... .. . ... ... : ... .. . ... ... : ... .. . ... ... : ... .. . P80 ...
ROW 55 : ... .. . ... ... ... : ... .. 4 ... ... ... : ... .. . ... : ... .. 0 ... : ... .. . ... ... : ... .. . ... ... : ... .. . ... ... : ... .. 1 P82 ...
ROW 56 : F-3 00 8 ... ... ... : B-4 00 8 ... ... ... : C#2 00 . ... : 9-# 00 8 ... : ... .. . ... ... : ... .. A ... ... : ... .. A ... ... : C#1 01 F P83 ...
ROW 57 : ... .. 7 ... ... ... : ... .. 7 ... ... ... : ... .. . ... : ... .. 6 ... : ... .. . ... ... : ... .. 9 ... ... : ... .. 9 ... ... : ... .. D ... ...
ROW 58 : ... .. 6 ... ... ... : ... .. . ... ... ... : ... .. . ... : ... .. 3 ... : ... .. . ... ... : ... .. 8 ... ... : ... .. 8 ... ... : ... .. 8 P81 ...
ROW 59 : ... .. 5 ... ... ... : ... .. 6 ... ... ... : ... .. . ... : ... .. 1 ... : ... .. . ... ... : ... .. 1 ... ... : ... .. 1 ... ... : ... .. . P7F ...
ROW 5A : ... .. . ... ... ... : ... .. 5 ... ... ... : ... .. . ... : ... .. . ... : ... .. . ... ... : ... .. . ... ... : ... .. . ... ... : ... .. . P7D ...
ROW 5B : ... .. . ... ... ... : ... .. 4 ... ... ... : --- .. . ... : ... .. 0 ... : ... .. . ... ... : ... .. . ... ... : ... .. . ... ... : ... .. 1 ... ...
ROW 5C : C#3 00 F ... ... ... : A-4 00 8 ... ... ... : B-1 00 . ... : ... .. D ... : ... .. . ... ... : ... .. A ... ... : ... .. A ... ... : B-0 01 F P7E ...
ROW 5D : ... .. E ... ... ... : ... .. 7 ... ... ... : ... .. . ... : ... .. B ... : ... .. . ... ... : ... .. 9 ... ... : ... .. 9 ... ... : ... .. D P80 ...
ROW 5E : ... .. D ... ... ... : ... .. . ... ... ... : ... .. . ... : ... .. . ... : ... .. . ... ... : ... .. 8 ... ... : ... .. 8 ... ... : ... .. 8 P82 ...
ROW 5F : ... .. A ... ... ... : ... .. 6 ... ... ... : ... .. . ... : ... .. A ... : ... .. . ... ... : ... .. 1 ... ... : ... .. 1 ... ... : ... .. . P83 ...
ROW 60 : ... .. . ... ... ... : ... .. 5 ... ... ... : ... .. . ... : ... .. 8 ... : ... .. . ... ... : ... .. . ... ... : ... .. . ... ... : ... .. . ... ...
ROW 61 : ... .. . ... ... ... : ... .. 4 ... ... ... : --- .. . ... : ... .. 7 ... : ... .. . ... ... : ... .. . ... ... : ... .. . ... ... : ... .. 1 P81 ...
ROW 62 : B-2 00 8 ... ... ... : F-4 00 8 ... ... ... : C#2 00 . ... : 7-# 00 8 ... : ... .. . ... ... : ... .. A ... ... : ... .. A ... ... : C#1 01 F P80 ...
ROW 63 : ... .. 7 ... ... ... : ... .. 7 ... ... ... : ... .. . ... : ... .. 6 ... : ... .. . ... ... : ... .. 9 ... ... : ... .. 9 ... ... : ... .. D P7D ...
ROW 64 : ... .. 6 ... ... ... : ... .. . ... ... ... : ... .. . ... : ... .. 3 ... : ... .. . ... ... : ... .. 8 ... ... : ... .. 8 ... ... : ... .. 8 ... ...
ROW 65 : ... .. 5 ... ... ... : ... .. 6 ... ... ... : ... .. . ... : ... .. 1 ... : ... .. . ... ... : ... .. 1 ... ... : ... .. 1 ... ... : ... .. . P7E ...
ROW 66 : ... .. . ... ... ... : ... .. 5 ... ... ... : ... .. . ... : ... .. . ... : ... .. . ... ... : ... .. . ... ... : ... .. . ... ... : ... .. . P80 ...
ROW 67 : ... .. . ... ... ... : ... .. 4 ... ... ... : --- .. . ... : ... .. 0 ... : ... .. . ... ... : ... .. . ... ... : ... .. . ... ... : ... .. 1 P81 ...
ROW 68 : G#4 00 F ... ... ... : B-4 00 8 ... ... ... : C-5 00 . ... : 1-# 00 F ... : ... .. . ... ... : C#4 01 A ... ... : F-3 01 A ... ... : C#2 01 F P83 ...
ROW 69 : ... .. E ... ... ... : ... .. 7 ... ... ... : D-4 00 . ... : ... .. C ... : ... .. . ... ... : ... .. 9 ... ... : ... .. 9 ... ... : ... .. D ... ...
ROW 6A : ... .. D ... ... ... : ... .. . ... ... ... : G-3 00 . ... : ... .. 6 ... : ... .. . ... ... : ... .. 8 ... ... : ... .. 8 ... ... : ... .. 8 P81 ...
ROW 6B : ... .. A ... ... ... : ... .. 6 ... ... ... : F#3 00 . ... : ... .. 3 ... : ... .. . ... ... : ... .. 7 ... ... : ... .. 7 ... ... : ... .. . P80 ...
ROW 6C : ... .. . ... ... ... : ... .. 5 ... ... ... : C#3 00 . ... : ... .. 2 ... : ... .. . ... ... : ... .. . ... ... : ... .. . ... ... : ... .. . P7E ...
ROW 6D : ... .. . ... ... ... : ... .. 4 ... ... ... : ... .. . ... : ... .. 0 ... : ... .. . ... ... : ... .. 6 ... ... : ... .. 6 ... ... : ... .. 1 P7D ...
ROW 6E : C#4 00 8 ... ... ... : C#5 00 8 ... ... ... : D-3 00 . ... : 9-# 00 8 ... : ... .. . ... ... : C#1 01 A ... ... : C#1 01 A ... ... : B-1 01 F ... ...
ROW 6F : ... .. 7 ... ... ... : ... .. 7 ... ... ... : ... .. . ... : ... .. 6 ... : ... .. . ... ... : ... .. 9 ... ... : ... .. 9 ... ... : ... .. D P80 ...
ROW 70 : ... .. 6 ... ... ... : ... .. . ... ... ... : ... .. . ... : ... .. 3 ... : ... .. . ... ... : ... .. 8 ... ... : ... .. 8 ... ... : ... .. 8 P81 ...
ROW 71 : ... .. 5 ... ... ... : ... .. 6 ... ... ... : ... .. . ... : ... .. 1 ... : ... .. . ... ... : ... .. 1 ... ... : ... .. 1 ... ... : ... .. . P83 ...
ROW 72 : ... .. . ... ... ... : ... .. 5 ... ... ... : ... .. . ... : ... .. . ... : ... .. . ... ... : ... .. . ... ... : ... .. . ... ... : ... .. . ... ...
ROW 73 : ... .. . ... ... ... : ... .. 4 ... ... ... : --- .. . ... : ... .. 0 ... : ... .. . ... ... : ... .. . ... ... : ... .. . ... ... : ... .. 1 P82 ...
ROW 74 : B-3 00 8 ... ... ... : B-4 00 8 ... ... ... : C#3 00 . ... : B-# 00 F ... : ... .. . ... ... : ... .. A ... ... : ... .. A ... ... : C#2 01 F P80 ...
ROW 75 : ... .. 7 ... ... ... : ... .. 7 ... ... ... : ... .. . ... : ... .. C ... : ... .. . ... ... : ... .. 9 ... ... : ... .. 9 ... ... : ... .. D P7E ...
ROW 76 : ... .. 6 ... ... ... : ... .. . ... ... ... : ... .. . ... : ... .. 6 ... : ... .. . ... ... : ... .. 8 ... ... : ... .. 8 ... ... : ... .. 8 P7D ...
ROW 77 : ... .. 5 ... ... ... : ... .. 6 ... ... ... : ... .. . ... : ... .. 3 ... : ... .. . ... ... : ... .. 1 ... ... : ... .. 1 ... ... : ... .. . ... ...
ROW 78 : ... .. . ... ... ... : ... .. 5 ... ... ... : ... .. . ... : ... .. 2 ... : ... .. . ... ... : ... .. . ... ... : ... .. . ... ... : ... .. . P7F ...
ROW 79 : ... .. . ... ... ... : ... .. 4 ... ... ... : --- .. . ... : ... .. 0 ... : ... .. . ... ... : ... .. . ... ... : ... .. . ... ... : ... .. 1 P81 ...
ROW 7A : G#4 00 F ... ... ... : G-4 00 8 ... ... ... : C#2 00 . ... : 1-# 00 F ... : ... .. . ... ... : C#4 01 A ... ... : F-3 01 A ... ... : C#1 01 F P83 ...
ROW 7B : ... .. E ... ... ... : ... .. 7 ... ... ... : ... .. . ... : ... .. C ... : ... .. . ... ... : ... .. 9 ... ... : ... .. 9 ... ... : ... .. D ... ...
ROW 7C : ... .. D ... ... ... : ... .. . ... ... ... : ... .. . ... : ... .. 6 ... : ... .. . ... ... : ... .. 8 ... ... : ... .. 8 ... ... : ... .. 8 P82 ...
ROW 7D : ... .. A ... ... ... : ... .. 6 ... ... ... : ... .. . ... : ... .. 3 ... : ... .. . ... ... : ... .. 7 ... ... : ... .. 7 ... ... : ... .. . P80 ...
ROW 7E : ... .. . ... ... ... : ... .. 5 ... ... ... : ... .. . ... : ... .. 2 ... : ... .. . ... ... : ... .. . ... ... : ... .. . ... ... : ... .. . P7E ...
ROW 7F : ... .. . ... ... ... : ... .. 4 ... ... ... : --- .. . ... : ... .. 0 ... : ... .. . ... ... : ... .. 6 ... ... : ... .. 6 ... ... : ... .. 1 P7D ...
ROW 80 : C#4 00 8 ... ... ... : C#4 00 8 ... ... ... : A#3 00 . ... : 9-# 00 8 ... : ... .. . ... ... : C#1 01 A ... ... : C#1 01 A ... ... : B-0 01 F ... ...
ROW 81 : ... .. 7 ... ... ... : ... .. 7 ... ... ... : C-3 00 . ... : ... .. 6 ... : ... .. . ... ... : ... .. 9 ... ... : ... .. 9 ... ... : ... .. D P7F ...
ROW 82 : ... .. 6 ... ... ... : ... .. . ... ... ... : F-2 00 . ... : ... .. 3 ... : ... .. . ... ... : ... .. 8 ... ... : ... .. 8 ... ... : ... .. 8 P80 ...
ROW 83 : ... .. 5 ... ... ... : ... .. 6 ... ... ... : E-2 00 . ... : ... .. 1 ... : ... .. . ... ... : ... .. 1 ... ... : ... .. 1 ... ... : ... .. . P83 ...
ROW 84 : ... .. . ... ... ... : ... .. 5 ... ... ... : B-1 00 . ... : ... .. . ... : ... .. . ... ... : ... .. . ... ... : ... .. . ... ... : ... .. . ... ...
ROW 85 : ... .. . ... ... ... : ... .. 4 ... ... ... : ... .. . ... : ... .. 0 ... : ... .. . ... ... : ... .. . ... ... : ... .. . ... ... : ... .. 1 P82 ...
ROW 86 : B-3 00 8 ... ... ... : B-3 00 8 ... ... ... : C#2 00 . ... : B-# 00 F ... : ... .. . ... ... : ... .. A ... ... : ... .. A ... ... : C#1 01 F P80 ...
ROW 87 : ... .. 7 ... ... ... : ... .. 7 ... ... ... : ... .. . ... : ... .. C ... : ... .. . ... ... : ... .. 9 ... ... : ... .. 9 ... ... : ... .. D P7F ...
ROW 88 : ... .. 6 ... ... ... : ... .. . ... ... ... : ... .. . ... : ... .. 6 ... : ... .. . ... ... : ... .. 8 ... ... : ... .. 8 ... ... : ... .. 8 P7D ...
ROW 89 : ... .. 5 ... ... ... : ... .. 6 ... ... ... : ... .. . ... : ... .. 3 ... : ... .. . ... ... : ... .. 1 ... ... : ... .. 1 ... ... : ... .. . ... ...
ROW 8A : ... .. . ... ... ... : ... .. 5 ... ... ... : ... .. . ... : ... .. 2 ... : ... .. . ... ... : ... .. . ... ... : ... .. . ... ... : ... .. . P7F ...
ROW 8B : ... .. . ... ... ... : ... .. 4 ... ... ... : --- .. . ... : ... .. 0 ... : ... .. . ... ... : ... .. . ... ... : ... .. . ... ... : ... .. 1 P80 ...
ROW 8C : G#4 00 F ... ... ... : B-4 00 8 ... ... ... : C#3 00 . ... : 9-# 00 D ... : ... .. . ... ... : C#4 01 A ... ... : F-3 01 A ... ... : C#2 01 F P82 ...
ROW 8D : ... .. E ... ... ... : ... .. 7 ... ... ... : ... .. . ... : ... .. B ... : ... .. . ... ... : ... .. 9 ... ... : ... .. 9 ... ... : ... .. D P83 ...
ROW 8E : ... .. D ... ... ... : ... .. . ... ... ... : ... .. . ... : ... .. . ... : ... .. . ... ... : ... .. 8 ... ... : ... .. 8 ... ... : ... .. 8 ... ...
ROW 8F : ... .. A ... ... ... : ... .. 6 ... ... ... : ... .. . ... : ... .. A ... : ... .. . ... ... : ... .. 7 ... ... : ... .. 7 ... ... : ... .. . P80 ...
ROW 90 : ... .. . ... ... ... : ... .. 5 ... ... ... : ... .. . ... : ... .. 8 ... : ... .. . ... ... : ... .. . ... ... : ... .. . ... ... : ... .. . P7F ...
ROW 91 : ... .. . ... ... ... : ... .. 4 ... ... ... : --- .. . ... : ... .. 7 ... : ... .. . ... ... : ... .. 6 ... ... : ... .. 6 ... ... : ... .. 1 P7D ...
ROW 92 : B-3 00 8 ... ... ... : C#5 00 8 ... ... ... : D-3 00 . ... : ... .. D ... : ... .. . ... ... : C#1 01 A ... ... : C#1 01 A ... ... : B-1 01 F ... ...
ROW 93 : ... .. 7 ... ... ... : ... .. 7 ... ... ... : ... .. . ... : ... .. B ... : ... .. . ... ... : ... .. 9 ... ... : ... .. 9 ... ... : ... .. D P7E ...
ROW 94 : ... .. 6 ... ... ... : ... .. . ... ... ... : ... .. . ... : ... .. . ... : ... .. . ... ... : ... .. 8 ... ... : ... .. 8 ... ... : ... .. 8 P80 ...
ROW 95 : ... .. 5 ... ... ... : ... .. 6 ... ... ... : ... .. . ... : ... .. A ... : ... .. . ... ... : ... .. 1 ... ... : ... .. 1 ... ... : ... .. . P82 ...
ROW 96 : ... .. . ... ... ... : ... .. 5 ... ... ... : ... .. . ... : ... .. 8 ... : ... .. . ... ... : ... .. . ... ... : ... .. . ... ... : ... .. . P83 ...
ROW 97 : ... .. . ... ... ... : ... .. 4 ... ... ... : --- .. . ... : ... .. 7 ... : ... .. . ... ... : ... .. . ... ... : ... .. . ... ... : ... .. 1 ... ...
ROW 98 : ... .. F ... ... ... : B-4 00 8 ... ... ... : C-5 00 . ... : 8-# 00 D ... : ... .. . ... ... : ... .. A ... ... : ... .. A ... ... : A-1 01 F P81 ...
ROW 99 : ... .. E ... ... ... : ... .. 7 ... ... ... : D-4 00 . ... : ... .. B ... : ... .. . ... ... : ... .. 9 ... ... : ... .. 9 ... ... : ... .. D P7F ...
ROW 9A : ... .. D ... ... ... : ... .. . ... ... ... : G-3 00 . ... : ... .. . ... : ... .. . ... ... : ... .. 8 ... ... : ... .. 8 ... ... : ... .. 8 P7D ...
ROW 9B : ... .. A ... ... ... : ... .. 6 ... ... ... : F#3 00 . ... : ... .. A ... : ... .. . ... ... : ... .. 1 ... ... : ... .. 1 ... ... : ... .. . ... ...
ROW 9C : ... .. . ... ... ... : ... .. 5 ... ... ... : C#3 00 . ... : ... .. 8 ... : ... .. . ... ... : ... .. . ... ... : ... .. . ... ... : ... .. . P7E ...
ROW 9D : ... .. . ... ... ... : ... .. 4 ... ... ... : ... .. . ... : ... .. 7 ... : ... .. . ... ... : ... .. . ... ... : ... .. . ... ... : ... .. 1 P80 ...
ROW 9E : ... .. . ... ... ... : G-4 00 8 ... ... ... : C#2 00 . ... : ... .. D ... : ... .. . ... ... : ... .. A ... ... : ... .. A ... ... : G#1 01 F P82 ...
ROW 9F : ... .. . ... ... ... : ... .. 7 ... ... ... : ... .. . ... : ... .. B ... : ... .. . ... ... : ... .. 9 ... ... : ... .. 9 ... ... : ... .. D P83 ...
ROW A0 : ... .. . ... ... ... : ... .. . ... ... ... : ... .. . ... : ... .. . ... : ... .. . ... ... : ... .. 8 ... ... : ... .. 8 ... ... : ... .. 8 ... ...
ROW A1 : ... .. . ... ... ... : ... .. 6 ... ... ... : ... .. . ... : ... .. A ... : ... .. . ... ... : ... .. 1 ... ... : ... .. 1 ... ... : ... .. . P81 ...
ROW A2 : ... .. . ... ... ... : ... .. 5 ... ... ... : ... .. . ... : ... .. 8 ... : ... .. . ... ... : ... .. . ... ... : ... .. . ... ... : ... .. . P80 ...
ROW A3 : ... .. . ... ... ... : ... .. 4 ... ... ... : --- .. . ... : ... .. 7 ... : ... .. . ... ... : ... .. . ... ... : ... .. . ... ... : ... .. 1 P7D ...
ROW A4 : B-4 00 F ... ... ... : C#4 00 8 ... ... ... : B-1 00 . ... : 6-# 00 D ... : ... .. . ... ... : ... .. A ... ... : ... .. A ... ... : G-1 01 F ... ...
ROW A5 : ... .. E ... ... ... : ... .. 7 ... ... ... : ... .. . ... : ... .. B ... : ... .. . ... ... : ... .. 9 ... ... : ... .. 9 ... ... : ... .. D P7E ...
ROW A6 : ... .. D ... ... ... : ... .. . ... ... ... : ... .. . ... : ... .. . ... : ... .. . ... ... : ... .. 8 ... ... : ... .. 8 ... ... : ... .. 8 P80 ...
ROW A7 : ... .. A ... ... ... : ... .. 6 ... ... ... : ... .. . ... : ... .. A ... : ... .. . ... ... : ... .. 1 ... ... : ... .. 1 ... ... : ... .. . P81 ...
ROW A8 : ... .. . ... ... ... : ... .. 5 ... ... ... : ... .. . ... : ... .. 8 ... : ... .. . ... ... : ... .. . ... ... : ... .. . ... ... : ... .. . P83 ...
ROW A9 : ... .. . ... ... ... : ... .. 4 ... ... ... : --- .. . ... : ... .. 7 ... : ... .. . ... ... : ... .. . ... ... : ... .. . ... ... : ... .. 1 ... ...
ROW AA : ... .. . ... ... ... : B-3 00 8 ... ... ... : C#3 00 . ... : 3-# 00 D ... : ... .. . ... ... : ... .. A ... ... : ... .. A ... ... : F-1 01 F P81 ...
ROW AB : ... .. . ... ... ... : ... .. 7 ... ... ... : ... .. . ... : ... .. B ... : ... .. . ... ... : ... .. 9 ... ... : ... .. 9 ... ... : ... .. D P80 ...
ROW AC : ... .. . ... ... ... : ... .. . ... ... ... : ... .. . ... : ... .. . ... : ... .. . ... ... : ... .. 8 ... ... : ... .. 8 ... ... : ... .. 8 P7E ...
ROW AD : ... .. . ... ... ... : ... .. 6 ... ... ... : ... .. . ... : ... .. A ... : ... .. . ... ... : ... .. 1 ... ... : ... .. 1 ... ... : ... .. . P7D ...
ROW AE : ... .. . ... ... ... : ... .. 5 ... ... ... : ... .. . ... : ... .. 8 ... : ... .. . ... ... : ... .. . ... ... : ... .. . ... ... : ... .. . ... ...
ROW AF : ... .. . ... ... ... : ... .. 4 ... ... ... : ... .. . ... : ... .. 7 ... : ... .. . ... ... : ... .. . ... ... : ... .. . ... ... : ... .. 1 P80 ...
ROW B0 : A#4 00 F ... ... ... : ... .. 0 ... ... ... : D#4 00 . ... : B-# 00 D ... : ... .. . ... ... : G-3 01 A ... ... : B-3 01 A ... ... : E-3 01 A P81 ...
ROW B1 : ... .. E ... ... ... : ... .. . ... ... ... : F-3 00 . ... : ... .. B ... : ... .. . ... ... : ... .. 9 ... ... : ... .. 9 ... ... : ... .. 8 P83 ...
ROW B2 : ... .. D ... ... ... : ... .. . ... ... ... : A#2 00 . ... : ... .. . ... : ... .. . ... ... : ... .. 8 ... ... : ... .. 8 ... ... : ... .. 5 ... ...
ROW B3 : ... .. A ... ... ... : ... .. . ... ... ... : A-2 00 . ... : ... .. A ... : ... .. . ... ... : ... .. 1 ... ... : ... .. 1 ... ... : ... .. 2 P82 ...
ROW B4 : ... .. . ... ... ... : ... .. . ... ... ... : E-2 00 . ... : ... .. 8 ... : ... .. . ... ... : ... .. . ... ... : ... .. . ... ... : ... .. . P80 ...
ROW B5 : ... .. . ... ... ... : ... .. . ... ... ... : ... .. . ... : ... .. 7 ... : ... .. . ... ... : ... .. . ... ... : ... .. . ... ... : ... .. . P7E ...
ROW B6 : ... .. . ... ... ... : ... .. . ... ... ... : ... .. . ... : ... .. 6 ... : ... .. . ... ... : ... .. A ... ... : ... .. A ... ... : ... .. A P7D ...
ROW B7 : ... .. . ... ... ... : ... .. . ... ... ... : ... .. . ... : ... .. . ... : ... .. . ... ... : ... .. 9 ... ... : ... .. 9 ... ... : ... .. 8 ... ...
ROW B8 : ... .. . ... ... ... : ... .. . ... ... ... : ... .. . ... : ... .. 5 ... : ... .. . ... ... : ... .. 8 ... ... : ... .. 8 ... ... : ... .. 5 P7F ...
ROW B9 : ... .. . ... ... ... : ... .. . ... ... ... : ... .. . ... : ... .. . ... : ... .. . ... ... : ... .. 1 ... ... : ... .. 1 ... ... : ... .. 2 P81 ...
ROW BA : ... .. . ... ... ... : ... .. . ... ... ... : ... .. . ... : ... .. 4 ... : ... .. . ... ... : ... .. . ... ... : ... .. . ... ... : ... .. . P83 ...
ROW BB : ... .. . ... ... ... : ... .. . ... ... ... : --- .. . ... : ... .. . ... : ... .. . ... ... : ... .. . ... ... : ... .. . ... ... : ... .. . ... ...
ROW BC : ... .. . ... ... ... : A#4 00 6 P80 ... ... : E-3 00 . ... : ... .. 3 ... : ... .. . ... ... : ... .. A ... ... : ... .. A ... ... : ... .. A P82 ...
ROW BD : ... .. . ... ... ... : ... .. 5 ... ... ... : ... .. . ... : ... .. 2 ... : ... .. . ... ... : ... .. 9 ... ... : ... .. 9 ... ... : ... .. 8 P80 ...
ROW BE : ... .. . ... ... ... : ... .. . ... ... ... : ... .. . ... : ... .. . ... : ... .. . ... ... : ... .. 8 ... ... : ... .. 8 ... ... : ... .. 5 P7E ...
ROW BF : ... .. . ... ... ... : ... .. 4 ... ... ... : ... .. . ... : ... .. 1 ... : ... .. . ... ... : ... .. 1 ... ... : ... .. 1 ... ... : ... .. 2 P7D ...
ROW C0 : ... .. . ... ... ... : ... .. . ... ... ... : ... .. . ... : ... .. 0 ... : ... .. . ... ... : ... .. . ... ... : ... .. . ... ... : ... .. . ... ...
ROW C1 : ... .. . ... ... ... : ... .. . ... ... ... : --- .. . ... : ... .. . ... : ... .. . ... ... : ... .. . ... ... : ... .. . ... ... : ... .. . P7F ...
ROW C2 : B-4 00 A P7D ... ... : ... .. . ... ... ... : D#3 00 . ... : 9-# 00 8 ... : ... .. . ... ... : ... .. A ... ... : ... .. A ... ... : ... .. A P80 ...
ROW C3 : ... .. . P7F ... ... : ... .. . ... ... ... : ... .. . ... : ... .. 6 ... : ... .. . ... ... : ... .. 9 ... ... : ... .. 9 ... ... : ... .. 8 P83 ...
ROW C4 : ... .. . P7E ... ... : ... .. . ... ... ... : ... .. . ... : ... .. 3 ... : ... .. . ... ... : ... .. 8 ... ... : ... .. 8 ... ... : ... .. 5 ... ...
ROW C5 : A#4 00 A P82 ... ... : ... .. . ... ... ... : ... .. . ... : ... .. 1 ... : ... .. . ... ... : ... .. 1 ... ... : ... .. 1 ... ... : ... .. 2 P82 ...
ROW C6 : ... .. . P7E ... ... : ... .. . ... ... ... : ... .. . ... : ... .. . ... : ... .. . ... ... : ... .. . ... ... : ... .. . ... ... : ... .. . P80 ...
ROW C7 : A-4 00 A P82 ... ... : ... .. . ... ... ... : --- .. . ... : ... .. 0 ... : ... .. . ... ... : ... .. . ... ... : ... .. . ... ... : ... .. . P7F ...
ROW C8 : ... .. . P81 ... ... : ... .. . ... ... ... : D-4 00 . ... : ... .. D ... : ... .. . ... ... : F#3 01 A ... ... : A#3 01 A ... ... : D#3 01 A P7D ...
ROW C9 : ... .. . P83 ... ... : ... .. . ... ... ... : E-3 00 . ... : ... .. B ... : ... .. . ... ... : ... .. 9 ... ... : ... .. 9 ... ... : ... .. 8 ... ...
ROW CA : A#4 00 A P80 ... ... : ... .. . ... ... ... : A-2 00 . ... : ... .. . ... : ... .. . ... ... : ... .. 8 ... ... : ... .. 8 ... ... : ... .. 5 P7F ...
ROW CB : ... .. . P83 ... ... : ... .. . ... ... ... : G#2 00 . ... : ... .. A ... : ... .. . ... ... : ... .. 1 ... ... : ... .. 1 ... ... : ... .. 2 P80 ...
ROW CC : B-4 00 A P7F ... ... : ... .. . ... ... ... : D#2 00 . ... : ... .. 8 ... : ... .. . ... ... : ... .. . ... ... : ... .. . ... ... : ... .. . P82 ...
ROW CD : ... .. . ... ... ... : ... .. . ... ... ... : ... .. . ... : ... .. 7 ... : ... .. . ... ... : ... .. . ... ... : ... .. . ... ... : ... .. . P83 ...
ROW CE : A#4 00 A P82 ... ... : B-4 00 4 P7D ... ... : E-2 00 . ... : 7-# 00 8 ... : ... .. . ... ... : ... .. A ... ... : ... .. A ... ... : ... .. A ... ...
ROW CF : ... .. . P7F ... ... : ... .. . P7F ... ... : ... .. . ... : ... .. 6 ... : ... .. . ... ... : ... .. 9 ... ... : ... .. 9 ... ... : ... .. 8 P80 ...
ROW D0 : A-4 00 A P82 ... ... : ... .. . P7E ... ... : ... .. . ... : ... .. 3 ... : ... .. . ... ... : ... .. 8 ... ... : ... .. 8 ... ... : ... .. 5 P7F ...
ROW D1 : ... .. . P81 ... ... : A#4 00 4 P82 ... ... : ... .. . ... : ... .. 1 ... : ... .. . ... ... : ... .. 1 ... ... : ... .. 1 ... ... : ... .. 2 P7D ...
ROW D2 : ... .. . P83 ... ... : ... .. . P7E ... ... : ... .. . ... : ... .. . ... : ... .. . ... ... : ... .. . ... ... : ... .. . ... ... : ... .. . ... ...
ROW D3 : A#4 00 A P80 ... ... : A-4 00 4 P82 ... ... : --- .. . ... : ... .. 0 ... : ... .. . ... ... : ... .. . ... ... : ... .. . ... ... : ... .. . P7E ...
ROW D4 : F#4 00 F ... ... ... : ... .. . P81 ... ... : G-3 00 . ... : A-# 00 F ... : ... .. . ... ... : ... .. A ... ... : ... .. A ... ... : ... .. A P80 ...
ROW D5 : ... .. E ... ... ... : ... .. . P83 ... ... : ... .. . ... : ... .. C ... : ... .. . ... ... : ... .. 9 ... ... : ... .. 9 ... ... : ... .. 8 P82 ...
ROW D6 : ... .. D ... ... ... : A#4 00 4 P80 ... ... : ... .. . ... : ... .. 6 ... : ... .. . ... ... : ... .. 8 ... ... : ... .. 8 ... ... : ... .. 5 P83 ...
ROW D7 : ... .. A ... ... ... : ... .. . P83 ... ... : ... .. . ... : ... .. 3 ... : ... .. . ... ... : ... .. 1 ... ... : ... .. 1 ... ... : ... .. 2 ... ...
ROW D8 : ... .. . ... ... ... : B-4 00 4 P7F ... ... : ... .. . ... : ... .. 2 ... : ... .. . ... ... : ... .. . ... ... : ... .. . ... ... : ... .. . P81 ...
ROW D9 : ... .. . ... ... ... : ... .. . ... ... ... : --- .. . ... : ... .. 0 ... : ... .. . ... ... : ... .. . ... ... : ... .. . ... ... : ... .. . P7F ...
ROW DA : ... .. . ... ... ... : A#4 00 4 P82 ... ... : A#1 00 . ... : E-# 00 8 ... : ... .. . ... ... : ... .. A ... ... : ... .. A ... ... : ... .. A P7D ...
ROW DB : ... .. . ... ... ... : ... .. . P7F ... ... : ... .. . ... : ... .. 6 ... : ... .. . ... ... : ... .. 9 ... ... : ... .. 9 ... ... : ... .. 8 ... ...
ROW DC : ... .. . ... ... ... : A-4 00 4 P82 ... ... : ... .. . ... : ... .. 3 ... : ... .. . ... ... : ... .. 8 ... ... : ... .. 8 ... ... : ... .. 5 P7E ...
ROW DD : ... .. . ... ... ... : ... .. . P81 ... ... : ... .. . ... : ... .. 1 ... : ... .. . ... ... : ... .. 1 ... ... : ... .. 1 ... ... : ... .. 2 P80 ...
ROW DE : ... .. . ... ... ... : ... .. . P83 ... ... : ... .. . ... : ... .. . ... : ... .. . ... ... : ... .. . ... ... : ... .. . ... ... : ... .. . P82 ...
ROW DF : ... .. . ... ... ... : A#4 00 4 P80 ... ... : --- .. . ... : ... .. 0 ... : ... .. . ... ... : ... .. . ... ... : ... .. . ... ... : ... .. . P83 ...
ROW E0 : G-4 00 F ... ... ... : F#4 00 6 ... ... ... : D#3 00 . ... : 1-# 00 F ... : ... .. . ... ... : G-3 01 A ... ... : B-3 01 A ... ... : E-3 01 A ... ...
ROW E1 : ... .. E ... ... ... : ... .. 5 ... ... ... : F-2 00 . ... : ... .. C ... : ... .. . ... ... : ... .. 9 ... ... : ... .. 9 ... ... : ... .. 8 P81 ...
ROW E2 : ... .. D ... ... ... : ... .. . ... ... ... : A#1 00 . ... : ... .. 6 ... : ... .. . ... ... : ... .. 8 ... ... : ... .. 8 ... ... : ... .. 5 P80 ...
ROW E3 : ... .. A ... ... ... : ... .. 4 ... ... ... : A-1 00 . ... : ... .. 3 ... : ... .. . ... ... : ... .. 1 ... ... : ... .. 1 ... ... : ... .. 2 P7D ...
ROW E4 : ... .. . ... ... ... : ... .. . ... ... ... : E-1 00 . ... : ... .. 2 ... : ... .. . ... ... : ... .. . ... ... : ... .. . ... ... : ... .. . ... ...
ROW E5 : ... .. . ... ... ... : ... .. . ... ... ... : ... .. . ... : ... .. 0 ... : ... .. . ... ... : ... .. . ... ... : ... .. . ... ... : ... .. . P7E ...
ROW E6 : ... .. . ... ... ... : ... .. . ... ... ... : E-2 00 . ... : 9-# 00 8 ... : ... .. . ... ... : ... .. A ... ... : ... .. A ... ... : ... .. A P80 ...
ROW E7 : ... .. . ... ... ... : ... .. . ... ... ... : ... .. . ... : ... .. 6 ... : ... .. . ... ... : ... .. 9 ... ... : ... .. 9 ... ... : ... .. 8 P81 ...
ROW E8 : ... .. . ... ... ... : ... .. . ... ... ... : ... .. . ... : ... .. 3 ... : ... .. . ... ... : ... .. 8 ... ... : ... .. 8 ... ... : ... .. 5 P83 ...
ROW E9 : ... .. . ... ... ... : ... .. . ... ... ... : ... .. . ... : ... .. 1 ... : ... .. . ... ... : ... .. 1 ... ... : ... .. 1 ... ... : ... .. 2 ... ...
ROW EA : ... .. . ... ... ... : ... .. . ... ... ... : ... .. . ... : ... .. . ... : ... .. . ... ... : ... .. . ... ... : ... .. . ... ... : ... .. . P81 ...
ROW EB : ... .. . ... ... ... : ... .. . ... ... ... : --- .. . ... : ... .. 0 ... : ... .. . ... ... : ... .. . ... ... : ... .. . ... ... : ... .. . P80 ...
ROW EC : ... .. . ... ... ... : G-4 00 6 ... ... ... : E-3 00 . ... : 1-# 00 F ... : ... .. . ... ... : ... .. A ... ... : ... .. A ... ... : ... .. A P7E ...
ROW ED : ... .. . ... ... ... : ... .. 5 ... ... ... : ... .. . ... : ... .. C ... : ... .. . ... ... : ... .. 9 ... ... : ... .. 9 ... ... : ... .. 8 P7D ...
ROW EE : ... .. . ... ... ... : ... .. . ... ... ... : ... .. . ... : ... .. 6 ... : ... .. . ... ... : ... .. 8 ... ... : ... .. 8 ... ... : ... .. 5 ... ...
ROW EF : ... .. . ... ... ... : ... .. 4 ... ... ... : ... .. . ... : ... .. 3 ... : ... .. . ... ... : ... .. 1 ... ... : ... .. 1 ... ... : ... .. 2 P80 ...
ROW F0 : ... .. . ... ... ... : ... .. . ... ... ... : ... .. . ... : ... .. 2 ... : ... .. . ... ... : ... .. . ... ... : ... .. . ... ... : ... .. . P81 ...
ROW F1 : ... .. . ... ... ... : ... .. . ... ... ... : --- .. . ... : ... .. 0 ... : ... .. . ... ... : ... .. . ... ... : ... .. . ... ... : ... .. . P83 ...
ROW F2 : ... .. . ... ... ... : ... .. . ... ... ... : E-2 00 . ... : 9-# 00 8 ... : ... .. . ... ... : ... .. A ... ... : ... .. A ... ... : ... .. A ... ...
ROW F3 : ... .. . ... ... ... : ... .. . ... ... ... : ... .. . ... : ... .. 6 ... : ... .. . ... ... : ... .. 9 ... ... : ... .. 9 ... ... : ... .. 8 P82 ...
ROW F4 : ... .. . ... ... ... : ... .. . ... ... ... : ... .. . ... : ... .. 3 ... : ... .. . ... ... : ... .. 8 ... ... : ... .. 8 ... ... : ... .. 5 P80 ...
ROW F5 : ... .. . ... ... ... : ... .. . ... ... ... : ... .. . ... : ... .. 1 ... : ... .. . ... ... : ... .. 1 ... ... : ... .. 1 ... ... : ... .. 2 P7E ...
ROW F6 : ... .. . ... ... ... : ... .. . ... ... ... : ... .. . ... : ... .. . ... : ... .. . ... ... : ... .. . ... ... : ... .. . ... ... : ... .. . P7D ...
ROW F7 : ... .. . ... ... ... : ... .. . ... ... ... : --- .. . ... : ... .. 0 ... : ... .. . ... ... : ... .. . ... ... : ... .. . ... ... : ... .. . ... ...
ROW F8 : ... .. . ... ... ... : ... .. . ... ... ... : E-4 00 . ... : ... .. D ... : ... .. . ... ... : G#3 01 A ... ... : C-4 01 A ... ... : F-3 01 A P7F ...
ROW F9 : A-4 00 A P83 ... ... : ... .. . ... ... ... : F#3 00 . ... : ... .. B ... : ... .. . ... ... : ... .. 9 ... ... : ... .. 9 ... ... : ... .. 8 P81 ...
ROW FA : C-5 00 A P82 ... ... : ... .. . ... ... ... : B-2 00 . ... : ... .. . ... : ... .. . ... ... : ... .. 8 ... ... : ... .. 8 ... ... : ... .. 5 P83 ...
ROW FB : E-5 00 5 P7F ... ... : ... .. . ... ... ... : A#2 00 . ... : ... .. A ... : ... .. . ... ... : ... .. 1 ... ... : ... .. 1 ... ... : ... .. 2 ... ...
ROW FC : F-5 00 5 P80 ... ... : ... .. . ... ... ... : F-2 00 . ... : ... .. 8 ... : ... .. . ... ... : ... .. . ... ... : ... .. . ... ... : ... .. . P82 ...
ROW FD : ... .. . ... ... ... : ... .. . ... ... ... : ... .. . ... : ... .. 7 ... : ... .. . ... ... : ... .. . ... ... : ... .. . ... ... : ... .. . P80 ...
ROW FE : ... .. 6 ... ... ... : ... .. . ... ... ... : E-2 00 . ... : 7-# 00 8 ... : ... .. . ... ... : ... .. A ... ... : ... .. A ... ... : ... .. A P7E ...
ROW FF : ... .. . ... ... ... : ... .. . ... ... ... : ... .. . ... : ... .. 6 ... : ... .. . ... ... : ... .. 9 ... ... : ... .. 9 ... ... : ... .. 8 P7D ...

PATTERN 05
ROW 00 : ... .. . ... ... ... : ... .. . ... ... ... : ... .. . ... : ... .. 3 ... : ... .. . ... ... : ... .. 8 ... ... : ... .. 8 ... ... : ... .. 5 ... ...
ROW 01 : ... .. . ... ... ... : ... .. . ... ... ... : ... .. . ... : ... .. 1 ... : ... .. . ... ... : ... .. 1 ... ... : ... .. 1 ... ... : ... .. 2 P7F ...
ROW 02 : ... .. . ... ... ... : ... .. . ... ... ... : ... .. . ... : ... .. . ... : ... .. . ... ... : ... .. . ... ... : ... .. . ... ... : ... .. . P80 ...
ROW 03 : ... .. . ... ... ... : ... .. . ... ... ... : --- .. . ... : ... .. 0 ... : ... .. . ... ... : ... .. . ... ... : ... .. . ... ... : ... .. . P83 ...
ROW 04 : ... .. 7 ... ... ... : ... .. . ... ... ... : D-3 00 . ... : A-# 00 F ... : ... .. . ... ... : ... .. A ... ... : ... .. A ... ... : ... .. A ... ...
ROW 05 : ... .. . ... ... ... : A-4 00 4 P83 ... ... : ... .. . ... : ... .. C ... : ... .. . ... ... : ... .. 9 ... ... : ... .. 9 ... ... : ... .. 8 P82 ...
ROW 06 : ... .. . ... ... ... : C-5 00 4 P82 ... ... : ... .. . ... : ... .. 6 ... : ... .. . ... ... : ... .. 8 ... ... : ... .. 8 ... ... : ... .. 5 P80 ...
ROW 07 : ... .. 8 ... ... ... : ... .. 0 ... ... ... : ... .. . ... : ... .. 3 ... : ... .. . ... ... : ... .. 1 ... ... : ... .. 1 ... ... : ... .. 2 P7F ...
ROW 08 : ... .. . ... ... ... : ... .. . ... ... ... : ... .. . ... : ... .. 2 ... : ... .. . ... ... : ... .. . ... ... : ... .. . ... ... : ... .. . P7D ...
ROW 09 : ... .. . ... ... ... : ... .. . ... ... ... : --- .. . ... : ... .. 0 ... : ... .. . ... ... : ... .. . ... ... : ... .. . ... ... : ... .. . ... ...
ROW 0A : ... .. . ... ... ... : ... .. . ... ... ... : E-2 00 . ... : E-# 00 8 ... : ... .. . ... ... : ... .. A ... ... : ... .. A ... ... : ... .. A P7F ...
ROW 0B : ... .. . ... ... ... : ... .. . ... ... ... : ... .. . ... : ... .. 6 ... : ... .. . ... ... : ... .. 9 ... ... : ... .. 9 ... ... : ... .. 8 P80 ...
ROW 0C : ... .. . ... ... ... : ... .. . ... ... ... : ... .. . ... : ... .. 3 ... : ... .. . ... ... : ... .. 8 ... ... : ... .. 8 ... ... : ... .. 5 P82 ...
ROW 0D : ... .. 9 ... ... ... : F-5 00 1 P80 ... ... : ... .. . ... : ... .. 1 ... : ... .. . ... ... : ... .. 1 ... ... : ... .. 1 ... ... : ... .. 2 P83 ...
ROW 0E : ... .. . ... ... ... : ... .. . ... ... ... : ... .. . ... : ... .. . ... : ... .. . ... ... : ... .. . ... ... : ... .. . ... ... : ... .. . ... ...
ROW 0F : ... .. . ... ... ... : ... .. . ... ... ... : --- .. . ... : ... .. 0 ... : ... .. . ... ... : ... .. . ... ... : ... .. . ... ... : ... .. . P80 ...
ROW 10 : F#5 00 A ... ... ... : ... .. . ... ... ... : D#4 00 . ... : 1-# 00 F ... : ... .. . ... ... : G-3 01 A ... ... : B-3 01 A ... ... : E-3 01 A P7F ...
ROW 11 : ... .. . P82 ... ... : ... .. . ... ... ... : F-3 00 . ... : ... .. C ... : ... .. . ... ... : ... .. 9 ... ... : ... .. 9 ... ... : ... .. 8 P7D ...
ROW 12 : ... .. . P81 ... ... : ... .. . ... ... ... : A#2 00 . ... : ... .. 6 ... : ... .. . ... ... : ... .. 8 ... ... : ... .. 8 ... ... : ... .. 5 ... ...
ROW 13 : F-5 00 A P82 ... ... : ... .. 2 ... ... ... : A-2 00 . ... : ... .. 3 ... : ... .. . ... ... : ... .. 1 ... ... : ... .. 1 ... ... : ... .. 2 P7E ...
ROW 14 : ... .. . P7E ... ... : ... .. . ... ... ... : E-2 00 . ... : ... .. 2 ... : ... .. . ... ... : ... .. . ... ... : ... .. . ... ... : ... .. . P80 ...
ROW 15 : E-5 00 A P80 ... ... : ... .. . ... ... ... : ... .. . ... : ... .. 0 ... : ... .. . ... ... : ... .. . ... ... : ... .. . ... ... : ... .. . P82 ...
ROW 16 : ... .. . P7F ... ... : ... .. . ... ... ... : ... .. . ... : 9-# 00 8 ... : ... .. . ... ... : ... .. A ... ... : ... .. A ... ... : ... .. A P83 ...
ROW 17 : ... .. . P81 ... ... : ... .. . ... ... ... : ... .. . ... : ... .. 6 ... : ... .. . ... ... : ... .. 9 ... ... : ... .. 9 ... ... : ... .. 8 ... ...
ROW 18 : F-5 00 A P80 ... ... : ... .. . ... ... ... : ... .. . ... : ... .. 3 ... : ... .. . ... ... : ... .. 8 ... ... : ... .. 8 ... ... : ... .. 5 P81 ...
ROW 19 : F#5 00 A P7F ... ... : ... .. 3 ... ... ... : ... .. . ... : ... .. 1 ... : ... .. . ... ... : ... .. 1 ... ... : ... .. 1 ... ... : ... .. 2 P7F ...
ROW 1A : ... .. . P82 ... ... : ... .. . ... ... ... : ... .. . ... : ... .. . ... : ... .. . ... ... : ... .. . ... ... : ... .. . ... ... : ... .. . P7D ...
ROW 1B : ... .. . ... ... ... : ... .. . ... ... ... : --- .. . ... : ... .. 0 ... : ... .. . ... ... : ... .. . ... ... : ... .. . ... ... : ... .. . ... ...
ROW 1C : A#4 00 F P80 ... ... : F#5 00 4 ... ... ... : E-3 00 . ... : B-# 00 F ... : ... .. . ... ... : ... .. A ... ... : ... .. A ... ... : ... .. A P7E ...
ROW 1D : ... .. E ... ... ... : ... .. . P82 ... ... : ... .. . ... : ... .. C ... : ... .. . ... ... : ... .. 9 ... ... : ... .. 9 ... ... : ... .. 8 P80 ...
ROW 1E : ... .. D ... ... ... : ... .. . P81 ... ... : ... .. . ... : ... .. 6 ... : ... .. . ... ... : ... .. 8 ... ... : ... .. 8 ... ... : ... .. 5 P82 ...
ROW 1F : ... .. A ... ... ... : F-5 00 4 P82 ... ... : ... .. . ... : ... .. 3 ... : ... .. . ... ... : ... .. 1 ... ... : ... .. 1 ... ... : ... .. 2 P83 ...
ROW 20 : ... .. . ... ... ... : ... .. . P7E ... ... : ... .. . ... : ... .. 2 ... : ... .. . ... ... : ... .. . ... ... : ... .. . ... ... : ... .. . ... ...
ROW 21 : ... .. . ... ... ... : E-5 00 4 P80 ... ... : --- .. . ... : ... .. 0 ... : ... .. . ... ... : ... .. . ... ... : ... .. . ... ... : ... .. . P81 ...
ROW 22 : G#4 00 A P7F ... ... : ... .. . P7F ... ... : D#3 00 . ... : 9-# 00 8 ... : ... .. . ... ... : ... .. A ... ... : ... .. A ... ... : ... .. A P80 ...
ROW 23 : F#4 00 A ... ... ... : ... .. . P81 ... ... : ... .. . ... : ... .. 6 ... : ... .. . ... ... : ... .. 9 ... ... : ... .. 9 ... ... : ... .. 8 P7D ...
ROW 24 : E-4 00 A P82 ... ... : F-5 00 4 P80 ... ... : ... .. . ... : ... .. 3 ... : ... .. . ... ... : ... .. 8 ... ... : ... .. 8 ... ... : ... .. 5 ... ...
ROW 25 : D#4 00 A P7C ... ... : F#5 00 4 P7F ... ... : ... .. . ... : ... .. 1 ... : ... .. . ... ... : ... .. 1 ... ... : ... .. 1 ... ... : ... .. 2 P7E ...
ROW 26 : C#4 00 A P82 ... ... : ... .. . P82 ... ... : ... .. . ... : ... .. . ... : ... .. . ... ... : ... .. . ... ... : ... .. . ... ... : ... .. . P80 ...
ROW 27 : C-4 00 A P7E ... ... : ... .. . ... ... ... : --- .. . ... : ... .. 0 ... : ... .. . ... ... : ... .. . ... ... : ... .. . ... ... : ... .. . P81 ...
ROW 28 : E-4 00 F P80 ... ... : A#4 00 6 P80 ... ... : D-4 00 . ... : ... .. D ... : ... .. . ... ... : F#3 01 A ... ... : A#3 01 A ... ... : D#3 01 A P83 ...
ROW 29 : ... .. E ... ... ... : ... .. 5 ... ... ... : E-3 00 . ... : ... .. B ... : ... .. . ... ... : ... .. 9 ... ... : ... .. 9 ... ... : ... .. 8 ... ...
ROW 2A : ... .. D ... ... ... : ... .. . ... ... ... : A-2 00 . ... : ... .. . ... : ... .. . ... ... : ... .. 8 ... ... : ... .. 8 ... ... : ... .. 5 P81 ...
ROW 2B : ... .. A ... ... ... : ... .. 4 ... ... ... : G#2 00 . ... : ... .. A ... : ... .. . ... ... : ... .. 1 ... ... : ... .. 1 ... ... : ... .. 2 P80 ...
ROW 2C : ... .. . ... ... ... : ... .. . ... ... ... : D#2 00 . ... : ... .. 8 ... : ... .. . ... ... : ... .. . ... ... : ... .. . ... ... : ... .. . P7E ...
ROW 2D : ... .. . ... ... ... : ... .. . ... ... ... : ... .. . ... : ... .. 7 ... : ... .. . ... ... : ... .. . ... ... : ... .. . ... ... : ... .. . P7D ...
ROW 2E : ... .. 5 ... ... ... : G#4 00 4 P7F ... ... : E-2 00 . ... : 7-# 00 8 ... : ... .. . ... ... : ... .. A ... ... : ... .. A ... ... : ... .. A ... ...
ROW 2F : ... .. . ... ... ... : F#4 00 4 ... ... ... : ... .. . ... : ... .. 6 ... : ... .. . ... ... : ... .. 9 ... ... : ... .. 9 ... ... : ... .. 8 P80 ...
ROW 30 : ... .. . ... ... ... : E-4 00 4 P82 ... ... : ... .. . ... : ... .. 3 ... : ... .. . ... ... : ... .. 8 ... ... : ... .. 8 ... ... : ... .. 5 P81 ...
ROW 31 : ... .. 6 ... ... ... : D#4 00 4 P7C ... ... : ... .. . ... : ... .. 1 ... : ... .. . ... ... : ... .. 1 ... ... : ... .. 1 ... ... : ... .. 2 P83 ...
ROW 32 : ... .. . ... ... ... : C#4 00 4 P82 ... ... : ... .. . ... : ... .. . ... : ... .. . ... ... : ... .. . ... ... : ... .. . ... ... : ... .. . ... ...
ROW 33 : ... .. . ... ... ... : C-4 00 4 P7E ... ... : --- .. . ... : ... .. 0 ... : ... .. . ... ... : ... .. . ... ... : ... .. . ... ... : ... .. . P82 ...
ROW 34 : ... .. . ... ... ... : E-4 00 6 P80 ... ... : G-3 00 . ... : A-# 00 F ... : ... .. . ... ... : ... .. A ... ... : ... .. A ... ... : ... .. A P80 ...
ROW 35 : ... .. . ... ... ... : ... .. 5 ... ... ... : ... .. . ... : ... .. C ... : ... .. . ... ... : ... .. 9 ... ... : ... .. 9 ... ... : ... .. 8 P7E ...
ROW 36 : ... .. . ... ... ... : ... .. . ... ... ... : ... .. . ... : ... .. 6 ... : ... .. . ... ... : ... .. 8 ... ... : ... .. 8 ... ... : ... .. 5 P7D ...
ROW 37 : ... .. 7 ... ... ... : ... .. 4 ... ... ... : ... .. . ... : ... .. 3 ... : ... .. . ... ... : ... .. 1 ... ... : ... .. 1 ... ... : ... .. 2 ... ...
ROW 38 : ... .. . ... ... ... : ... .. . ... ... ... : ... .. . ... : ... .. 2 ... : ... .. . ... ... : ... .. . ... ... : ... .. . ... ... : ... .. . P7F ...
ROW 39 : ... .. . ... ... ... : ... .. . ... ... ... : --- .. . ... : ... .. 0 ... : ... .. . ... ... : ... .. . ... ... : ... .. . ... ... : ... .. . P81 ...
ROW 3A : ... .. 8 ... ... ... : ... .. 0 ... ... ... : A#1 00 . ... : E-# 00 8 ... : ... .. . ... ... : ... .. A ... ... : ... .. A ... ... : ... .. A P83 ...
ROW 3B : ... .. . ... ... ... : ... .. . ... ... ... : ... .. . ... : ... .. 6 ... : ... .. . ... ... : ... .. 9 ... ... : ... .. 9 ... ... : ... .. 8 ... ...
ROW 3C : ... .. . ... ... ... : ... .. . ... ... ... : ... .. . ... : ... .. 3 ... : ... .. . ... ... : ... .. 8 ... ... : ... .. 8 ... ... : ... .. 5 P82 ...
ROW 3D : ... .. . ... ... ... : ... .. . ... ... ... : ... .. . ... : ... .. 1 ... : ... .. . ... ... : ... .. 1 ... ... : ... .. 1 ... ... : ... .. 2 P80 ...
ROW 3E : ... .. . ... ... ... : ... .. . ... ... ... : ... .. . ... : ... .. . ... : ... .. . ... ... : ... .. . ... ... : ... .. . ... ... : ... .. . P7E ...
ROW 3F : ... .. . ... ... ... : ... .. . ... ... ... : --- .. . ... : ... .. 0 ... : ... .. . ... ... : ... .. . ... ... : ... .. . ... ... : ... .. . P7D ...
ROW 40 : ... .. A P84 ... ... : E-4 00 1 P80 ... ... : D#3 00 . ... : 1-# 00 F ... : ... .. . ... ... : F-3 01 A ... ... : A-3 01 A ... ... : D-3 01 A ... ...
ROW 41 : F-4 00 A P7C ... ... : ... .. . ... ... ... : F-2 00 . ... : ... .. C ... : ... .. . ... ... : ... .. 9 ... ... : ... .. 9 ... ... : ... .. 8 P7F ...
ROW 42 : E-4 00 A P85 ... ... : ... .. . ... ... ... : A#1 00 . ... : ... .. 6 ... : ... .. . ... ... : ... .. 8 ... ... : ... .. 8 ... ... : ... .. 5 P80 ...
ROW 43 : ... .. . P82 ... ... : ... .. . ... ... ... : A-1 00 . ... : ... .. 3 ... : ... .. . ... ... : ... .. 1 ... ... : ... .. 1 ... ... : ... .. 2 P83 ...
ROW 44 : ... .. . P7E ... ... : ... .. . ... ... ... : E-1 00 . ... : ... .. 2 ... : ... .. . ... ... : ... .. . ... ... : ... .. . ... ... : ... .. . ... ...
ROW 45 : D#4 00 A P85 ... ... : ... .. . ... ... ... : ... .. . ... : ... .. 0 ... : ... .. . ... ... : ... .. . ... ... : ... .. . ... ... : ... .. . P82 ...
ROW 46 : ... .. . P84 ... ... : ... .. 2 ... ... ... : E-2 00 . ... : 9-# 00 8 ... : ... .. . ... ... : ... .. A ... ... : ... .. A ... ... : ... .. A P80 ...
ROW 47 : E-4 00 A P7C ... ... : ... .. . ... ... ... : ... .. . ... : ... .. 6 ... : ... .. . ... ... : ... .. 9 ... ... : ... .. 9 ... ... : ... .. 8 P7F ...
ROW 48 : ... .. . P80 ... ... : ... .. . ... ... ... : ... .. . ... : ... .. 3 ... : ... .. . ... ... : ... .. 8 ... ... : ... .. 8 ... ... : ... .. 5 P7D ...
ROW 49 : ... .. . P83 ... ... : ... .. . ... ... ... : ... .. . ... : ... .. 1 ... : ... .. . ... ... : ... .. 1 ... ... : ... .. 1 ... ... : ... .. 2 ... ...
ROW 4A : F-4 00 A P7C ... ... : ... .. . ... ... ... : ... .. . ... : ... .. . ... : ... .. . ... ... : ... .. . ... ... : ... .. . ... ... : ... .. . P7F ...
ROW 4B : ... .. . ... ... ... : ... .. . ... ... ... : --- .. . ... : ... .. 0 ... : ... .. . ... ... : ... .. . ... ... : ... .. . ... ... : ... .. . P80 ...
ROW 4C : E-4 00 A P82 ... ... : ... .. 4 P84 ... ... : E-3 00 . ... : 1-# 00 F ... : ... .. . ... ... : ... .. A ... ... : ... .. A ... ... : ... .. A P82 ...
ROW 4D : ... .. . P7F ... ... : F-4 00 4 P7C ... ... : ... .. . ... : ... .. C ... : ... .. . ... ... : ... .. 9 ... ... : ... .. 9 ... ... : ... .. 8 P83 ...
ROW 4E : D#4 00 A P85 ... ... : E-4 00 4 P85 ... ... : ... .. . ... : ... .. 6 ... : ... .. . ... ... : ... .. 8 ... ... : ... .. 8 ... ... : ... .. 5 ... ...
ROW 4F : ... .. . P84 ... ... : ... .. . P82 ... ... : ... .. . ... : ... .. 3 ... : ... .. . ... ... : ... .. 1 ... ... : ... .. 1 ... ... : ... .. 2 P80 ...
ROW 50 : E-4 00 A P7C ... ... : ... .. . P7E ... ... : ... .. . ... : ... .. 2 ... : ... .. . ... ... : ... .. . ... ... : ... .. . ... ... : ... .. . P7F ...
ROW 51 : ... .. . P80 ... ... : D#4 00 4 P85 ... ... : --- .. . ... : ... .. 0 ... : ... .. . ... ... : ... .. . ... ... : ... .. . ... ... : ... .. . P7D ...
ROW 52 : ... .. 5 P83 ... ... : ... .. . P84 ... ... : E-2 00 . ... : 9-# 00 8 ... : ... .. . ... ... : ... .. A ... ... : ... .. A ... ... : ... .. A ... ...
ROW 53 : F-4 00 5 P7C ... ... : E-4 00 4 P7C ... ... : ... .. . ... : ... .. 6 ... : ... .. . ... ... : ... .. 9 ... ... : ... .. 9 ... ... : ... .. 8 P7E ...
ROW 54 : ... .. . ... ... ... : ... .. . P80 ... ... : ... .. . ... : ... .. 3 ... : ... .. . ... ... : ... .. 8 ... ... : ... .. 8 ... ... : ... .. 5 P80 ...
ROW 55 : E-4 00 5 P83 ... ... : ... .. . P83 ... ... : ... .. . ... : ... .. 1 ... : ... .. . ... ... : ... .. 1 ... ... : ... .. 1 ... ... : ... .. 2 P82 ...
ROW 56 : ... .. . P80 ... ... : F-4 00 4 P7C ... ... : ... .. . ... : ... .. . ... : ... .. . ... ... : ... .. . ... ... : ... .. . ... ... : ... .. . P83 ...
ROW 57 : ... .. . P7C ... ... : ... .. . ... ... ... : --- .. . ... : ... .. 0 ... : ... .. . ... ... : ... .. . ... ... : ... .. . ... ... : ... .. . ... ...
ROW 58 : E-5 00 F P80 ... ... : E-4 00 4 P82 ... ... : E-4 00 . ... : ... .. D ... : ... .. . ... ... : E-3 01 A ... ... : G#3 01 A ... ... : C#3 01 A P81 ...
ROW 59 : ... .. E ... ... ... : ... .. . P7F ... ... : F#3 00 . ... : ... .. B ... : ... .. . ... ... : ... .. 9 ... ... : ... .. 9 ... ... : ... .. 8 P7F ...
ROW 5A : ... .. D ... ... ... : D#4 00 4 P85 ... ... : B-2 00 . ... : ... .. . ... : ... .. . ... ... : ... .. 8 ... ... : ... .. 8 ... ... : ... .. 5 P7D ...
ROW 5B : ... .. A ... ... ... : ... .. . P84 ... ... : A#2 00 . ... : ... .. A ... : ... .. . ... ... : ... .. 1 ... ... : ... .. 1 ... ... : ... .. 2 ... ...
ROW 5C : ... .. . ... ... ... : E-4 00 4 P7C ... ... : F-2 00 . ... : ... .. 8 ... : ... .. . ... ... : ... .. . ... ... : ... .. . ... ... : ... .. . P7E ...
ROW 5D : ... .. . ... ... ... : ... .. . P80 ... ... : ... .. . ... : ... .. 7 ... : ... .. . ... ... : ... .. . ... ... : ... .. . ... ... : ... .. . P80 ...
ROW 5E : A#4 00 F ... ... ... : ... .. 0 ... ... ... : E-2 00 . ... : 7-# 00 8 ... : ... .. . ... ... : ... .. A ... ... : ... .. A ... ... : ... .. A P82 ...
ROW 5F : ... .. E ... ... ... : ... .. . ... ... ... : ... .. . ... : ... .. 6 ... : ... .. . ... ... : ... .. 9 ... ... : ... .. 9 ... ... : ... .. 8 P83 ...
ROW 60 : ... .. D ... ... ... : ... .. . ... ... ... : ... .. . ... : ... .. 3 ... : ... .. . ... ... : ... .. 8 ... ... : ... .. 8 ... ... : ... .. 5 ... ...
ROW 61 : ... .. A ... ... ... : ... .. . ... ... ... : ... .. . ... : ... .. 1 ... : ... .. . ... ... : ... .. 1 ... ... : ... .. 1 ... ... : ... .. 2 P81 ...
ROW 62 : ... .. . ... ... ... : ... .. . ... ... ... : ... .. . ... : ... .. . ... : ... .. . ... ... : ... .. . ... ... : ... .. . ... ... : ... .. . P80 ...
ROW 63 : ... .. . ... ... ... : ... .. . ... ... ... : --- .. . ... : ... .. 0 ... : ... .. . ... ... : ... .. . ... ... : ... .. . ... ... : ... .. . P7D ...
ROW 64 : E-4 00 F ... ... ... : E-5 00 6 P80 ... ... : D-3 00 . ... : A-# 00 F ... : ... .. . ... ... : ... .. A ... ... : ... .. A ... ... : ... .. A ... ...
ROW 65 : ... .. E ... ... ... : ... .. 5 ... ... ... : ... .. . ... : ... .. C ... : ... .. . ... ... : ... .. 9 ... ... : ... .. 9 ... ... : ... .. 8 P7E ...
ROW 66 : ... .. D ... ... ... : ... .. . ... ... ... : ... .. . ... : ... .. 6 ... : ... .. . ... ... : ... .. 8 ... ... : ... .. 8 ... ... : ... .. 5 P80 ...
ROW 67 : ... .. A ... ... ... : ... .. 4 ... ... ... : ... .. . ... : ... .. 3 ... : ... .. . ... ... : ... .. 1 ... ... : ... .. 1 ... ... : ... .. 2 P81 ...
ROW 68 : ... .. . ... ... ... : ... .. . ... ... ... : ... .. . ... : ... .. 2 ... : ... .. . ... ... : ... .. . ... ... : ... .. . ... ... : ... .. . P83 ...
ROW 69 : ... .. . ... ... ... : ... .. . ... ... ... : --- .. . ... : ... .. 0 ... : ... .. . ... ... : ... .. . ... ... : ... .. . ... ... : ... .. . ... ...
ROW 6A : D-4 00 F ... ... ... : A#4 00 6 ... ... ... : E-2 00 . ... : E-# 00 8 ... : ... .. . ... ... : ... .. A ... ... : ... .. A ... ... : ... .. A P81 ...
ROW 6B : ... .. E ... ... ... : ... .. 5 ... ... ... : ... .. . ... : ... .. 6 ... : ... .. . ... ... : ... .. 9 ... ... : ... .. 9 ... ... : ... .. 8 P80 ...
ROW 6C : ... .. D ... ... ... : ... .. . ... ... ... : ... .. . ... : ... .. 3 ... : ... .. . ... ... : ... .. 8 ... ... : ... .. 8 ... ... : ... .. 5 P7E ...
ROW 6D : ... .. A ... ... ... : ... .. 4 ... ... ... : ... .. . ... : ... .. 1 ... : ... .. . ... ... : ... .. 1 ... ... : ... .. 1 ... ... : ... .. 2 P7D ...
ROW 6E : ... .. . ... ... ... : ... .. . ... ... ... : ... .. . ... : ... .. . ... : ... .. . ... ... : ... .. . ... ... : ... .. . ... ... : ... .. . ... ...
ROW 6F : ... .. . ... ... ... : ... .. . ... ... ... : --- .. . ... : ... .. 0 ... : ... .. . ... ... : ... .. . ... ... : ... .. . ... ... : ... .. . P80 ...
ROW 70 : C#4 00 F ... ... ... : E-4 00 6 ... ... ... : C-4 00 . ... : 1-# 00 F ... : ... .. . ... ... : ... .. A ... ... : ... .. A ... ... : ... .. A P81 ...
ROW 71 : ... .. E ... ... ... : ... .. 5 ... ... ... : D-3 00 . ... : ... .. C ... : ... .. . ... ... : ... .. 9 ... ... : ... .. 9 ... ... : ... .. 8 P83 ...
ROW 72 : ... .. D ... ... ... : ... .. . ... ... ... : G-2 00 . ... : ... .. 6 ... : ... .. . ... ... : ... .. 8 ... ... : ... .. 8 ... ... : ... .. 5 ... ...
ROW 73 : ... .. A ... ... ... : ... .. 4 ... ... ... : F#2 00 . ... : ... .. 3 ... : ... .. . ... ... : ... .. 1 ... ... : ... .. 1 ... ... : ... .. 2 P82 ...
ROW 74 : ... .. . ... ... ... : ... .. . ... ... ... : C#2 00 . ... : ... .. 2 ... : ... .. . ... ... : ... .. . ... ... : ... .. . ... ... : ... .. . P80 ...
ROW 75 : ... .. . ... ... ... : ... .. . ... ... ... : ... .. . ... : ... .. 0 ... : ... .. . ... ... : ... .. . ... ... : ... .. . ... ... : ... .. . P7E ...
ROW 76 : ... .. . ... ... ... : D-4 00 6 ... ... ... : ... .. . ... : 9-# 00 8 ... : ... .. . ... ... : ... .. A ... ... : ... .. A ... ... : ... .. A P7D ...
ROW 77 : ... .. . ... ... ... : ... .. 5 ... ... ... : ... .. . ... : ... .. 6 ... : ... .. . ... ... : ... .. 9 ... ... : ... .. 9 ... ... : ... .. 8 ... ...
ROW 78 : ... .. . ... ... ... : ... .. . ... ... ... : ... .. . ... : ... .. 3 ... : ... .. . ... ... : ... .. 8 ... ... : ... .. 8 ... ... : ... .. 5 P7F ...
ROW 79 : ... .. . ... ... ... : ... .. 4 ... ... ... : ... .. . ... : ... .. 1 ... : ... .. . ... ... : ... .. 1 ... ... : ... .. 1 ... ... : ... .. 2 P81 ...
ROW 7A : ... .. . ... ... ... : ... .. . ... ... ... : ... .. . ... : ... .. . ... : ... .. . ... ... : ... .. . ... ... : ... .. . ... ... : ... .. . P83 ...
ROW 7B : ... .. . ... ... ... : ... .. . ... ... ... : --- .. . ... : ... .. 0 ... : ... .. . ... ... : ... .. . ... ... : ... .. . ... ... : ... .. . ... ...
ROW 7C : ... .. . ... ... ... : C#4 00 6 ... ... ... : C#3 00 . ... : B-# 00 F ... : ... .. . ... ... : ... .. A ... ... : ... .. A ... ... : ... .. A P82 ...
ROW 7D : ... .. . ... ... ... : ... .. 5 ... ... ... : ... .. . ... : ... .. C ... : ... .. . ... ... : ... .. 9 ... ... : ... .. 9 ... ... : ... .. 8 P80 ...
ROW 7E : ... .. . ... ... ... : ... .. . ... ... ... : ... .. . ... : ... .. 6 ... : ... .. . ... ... : ... .. 8 ... ... : ... .. 8 ... ... : ... .. 5 P7E ...
ROW 7F : ... .. . ... ... ... : ... .. 4 ... ... ... : ... .. . ... : ... .. 3 ... : ... .. . ... ... : ... .. 1 ... ... : ... .. 1 ... ... : ... .. 2 P7D ...
ROW 80 : ... .. . ... ... ... : ... .. . ... ... ... : ... .. . ... : ... .. 2 ... : ... .. . ... ... : ... .. . ... ... : ... .. . ... ... : ... .. . ... ...
ROW 81 : ... .. . ... ... ... : ... .. . ... ... ... : --- .. . ... : ... .. 0 ... : ... .. . ... ... : ... .. . ... ... : ... .. . ... ... : ... .. . P7F ...
ROW 82 : ... .. . ... ... ... : ... .. . ... ... ... : C-3 00 . ... : 9-# 00 8 ... : ... .. . ... ... : ... .. A ... ... : ... .. A ... ... : ... .. A P80 ...
ROW 83 : ... .. . ... ... ... : ... .. . ... ... ... : ... .. . ... : ... .. 6 ... : ... .. . ... ... : ... .. 9 ... ... : ... .. 9 ... ... : ... .. 8 P83 ...
ROW 84 : ... .. . ... ... ... : ... .. . ... ... ... : ... .. . ... : ... .. 3 ... : ... .. . ... ... : ... .. 8 ... ... : ... .. 8 ... ... : ... .. 5 ... ...
ROW 85 : ... .. . ... ... ... : ... .. . ... ... ... : ... .. . ... : ... .. 1 ... : ... .. . ... ... : ... .. 1 ... ... : ... .. 1 ... ... : ... .. 2 P82 ...
ROW 86 : ... .. . ... ... ... : ... .. . ... ... ... : ... .. . ... : ... .. . ... : ... .. . ... ... : ... .. . ... ... : ... .. . ... ... : ... .. . P80 ...
ROW 87 : ... .. . ... ... ... : ... .. . ... ... ... : --- .. . ... : ... .. 0 ... : ... .. . ... ... : ... .. . ... ... : ... .. . ... ... : ... .. . P7F ...
ROW 88 : ... .. . ... ... ... : ... .. . ... ... ... : B-3 00 . ... : ... .. D ... : ... .. . ... ... : D#3 01 A ... ... : G-3 01 A ... ... : C-3 01 A P7D ...
ROW 89 : D-4 00 A P7D ... ... : ... .. . ... ... ... : C#3 00 . ... : ... .. B ... : ... .. . ... ... : ... .. 9 ... ... : ... .. 9 ... ... : ... .. 8 ... ...
ROW 8A : D#4 00 A P7C ... ... : ... .. . ... ... ... : F#2 00 . ... : ... .. . ... : ... .. . ... ... : ... .. 8 ... ... : ... .. 8 ... ... : ... .. 5 P7F ...
ROW 8B : ... .. . P85 ... ... : ... .. . ... ... ... : F-2 00 . ... : ... .. A ... : ... .. . ... ... : ... .. 1 ... ... : ... .. 1 ... ... : ... .. 2 P80 ...
ROW 8C : E-4 00 A P84 ... ... : ... .. . ... ... ... : C-2 00 . ... : ... .. 8 ... : ... .. . ... ... : ... .. . ... ... : ... .. . ... ... : ... .. . P82 ...
ROW 8D : F-4 00 A P83 ... ... : ... .. . ... ... ... : ... .. . ... : ... .. 7 ... : ... .. . ... ... : ... .. . ... ... : ... .. . ... ... : ... .. . P83 ...
ROW 8E : F#4 00 A ... ... ... : ... .. . ... ... ... : C#2 00 . ... : 7-# 00 8 ... : ... .. . ... ... : ... .. A ... ... : ... .. A ... ... : ... .. A ... ...
ROW 8F : G-4 00 A P84 ... ... : ... .. . ... ... ... : ... .. . ... : ... .. 6 ... : ... .. . ... ... : ... .. 9 ... ... : ... .. 9 ... ... : ... .. 8 P80 ...
ROW 90 : G#4 00 A P80 ... ... : ... .. . ... ... ... : ... .. . ... : ... .. 3 ... : ... .. . ... ... : ... .. 8 ... ... : ... .. 8 ... ... : ... .. 5 P7F ...
ROW 91 : ... .. . ... ... ... : ... .. . ... ... ... : ... .. . ... : ... .. 1 ... : ... .. . ... ... : ... .. 1 ... ... : ... .. 1 ... ... : ... .. 2 P7D ...
ROW 92 : ... .. . ... ... ... : ... .. . ... ... ... : ... .. . ... : ... .. . ... : ... .. . ... ... : ... .. . ... ... : ... .. . ... ... : ... .. . ... ...
ROW 93 : ... .. . ... ... ... : ... .. . ... ... ... : --- .. . ... : ... .. 0 ... : ... .. . ... ... : ... .. . ... ... : ... .. . ... ... : ... .. . P7E ...
ROW 94 : ... .. . P84 ... ... : ... .. . ... ... ... : E-3 00 . ... : A-# 00 F ... : ... .. . ... ... : ... .. A ... ... : ... .. A ... ... : ... .. A P80 ...
ROW 95 : A-4 00 A P7E ... ... : D-4 00 4 P7D ... ... : ... .. . ... : ... .. C ... : ... .. . ... ... : ... .. 9 ... ... : ... .. 9 ... ... : ... .. 8 P82 ...
ROW 96 : ... .. . P7D ... ... : D#4 00 4 P7C ... ... : ... .. . ... : ... .. 6 ... : ... .. . ... ... : ... .. 8 ... ... : ... .. 8 ... ... : ... .. 5 P83 ...
ROW 97 : G#4 00 A P82 ... ... : ... .. . P85 ... ... : ... .. . ... : ... .. 3 ... : ... .. . ... ... : ... .. 1 ... ... : ... .. 1 ... ... : ... .. 2 ... ...
ROW 98 : ... .. . P7E ... ... : E-4 00 4 P84 ... ... : ... .. . ... : ... .. 2 ... : ... .. . ... ... : ... .. . ... ... : ... .. . ... ... : ... .. . P81 ...
ROW 99 : G-4 00 A P83 ... ... : F-4 00 4 P83 ... ... : --- .. . ... : ... .. 0 ... : ... .. . ... ... : ... .. . ... ... : ... .. . ... ... : ... .. . P7F ...
ROW 9A : ... .. . P82 ... ... : F#4 00 4 ... ... ... : G-1 00 . ... : E-# 00 8 ... : ... .. . ... ... : ... .. A ... ... : ... .. A ... ... : ... .. A P7D ...
ROW 9B : ... .. . P84 ... ... : G-4 00 4 P84 ... ... : ... .. . ... : ... .. 6 ... : ... .. . ... ... : ... .. 9 ... ... : ... .. 9 ... ... : ... .. 8 ... ...
ROW 9C : G#4 00 A P80 ... ... : G#4 00 4 P80 ... ... : ... .. . ... : ... .. 3 ... : ... .. . ... ... : ... .. 8 ... ... : ... .. 8 ... ... : ... .. 5 P7E ...
ROW 9D : ... .. . P83 ... ... : ... .. . ... ... ... : ... .. . ... : ... .. 1 ... : ... .. . ... ... : ... .. 1 ... ... : ... .. 1 ... ... : ... .. 2 P80 ...
ROW 9E : A-4 00 A P7E ... ... : ... .. . ... ... ... : ... .. . ... : ... .. . ... : ... .. . ... ... : ... .. . ... ... : ... .. . ... ... : ... .. . P82 ...
ROW 9F : ... .. . ... ... ... : ... .. . ... ... ... : --- .. . ... : ... .. 0 ... : ... .. . ... ... : ... .. . ... ... : ... .. . ... ... : ... .. . P83 ...
ROW A0 : G#4 00 A P82 ... ... : ... .. . P84 ... ... : C-3 00 . ... : 1-# 00 F ... : ... .. . ... ... : E-3 01 A ... ... : G#3 01 A ... ... : C#3 01 A ... ...
ROW A1 : ... .. . P7F ... ... : A-4 00 4 P7E ... ... : D-2 00 . ... : ... .. C ... : ... .. . ... ... : ... .. 9 ... ... : ... .. 9 ... ... : ... .. 8 P81 ...
ROW A2 : G-4 00 A P83 ... ... : ... .. . P7D ... ... : G-1 00 . ... : ... .. 6 ... : ... .. . ... ... : ... .. 8 ... ... : ... .. 8 ... ... : ... .. 5 P80 ...
ROW A3 : ... .. . P82 ... ... : G#4 00 4 P82 ... ... : F#1 00 . ... : ... .. 3 ... : ... .. . ... ... : ... .. 1 ... ... : ... .. 1 ... ... : ... .. 2 P7D ...
ROW A4 : ... .. . P84 ... ... : ... .. . P7E ... ... : C#1 00 . ... : ... .. 2 ... : ... .. . ... ... : ... .. . ... ... : ... .. . ... ... : ... .. . ... ...
ROW A5 : G#4 00 A P80 ... ... : G-4 00 4 P83 ... ... : ... .. . ... : ... .. 0 ... : ... .. . ... ... : ... .. . ... ... : ... .. . ... ... : ... .. . P7E ...
ROW A6 : ... .. . P83 ... ... : ... .. . P82 ... ... : C#2 00 . ... : 9-# 00 8 ... : ... .. . ... ... : ... .. A ... ... : ... .. A ... ... : ... .. A P80 ...
ROW A7 : A-4 00 A P7E ... ... : ... .. . P84 ... ... : ... .. . ... : ... .. 6 ... : ... .. . ... ... : ... .. 9 ... ... : ... .. 9 ... ... : ... .. 8 P81 ...
ROW A8 : ... .. . ... ... ... : G#4 00 4 P80 ... ... : ... .. . ... : ... .. 3 ... : ... .. . ... ... : ... .. 8 ... ... : ... .. 8 ... ... : ... .. 5 P83 ...
ROW A9 : G#4 00 A P83 ... ... : ... .. . P83 ... ... : ... .. . ... : ... .. 1 ... : ... .. . ... ... : ... .. 1 ... ... : ... .. 1 ... ... : ... .. 2 ... ...
ROW AA : ... .. . P80 ... ... : A-4 00 4 P7E ... ... : ... .. . ... : ... .. . ... : ... .. . ... ... : ... .. . ... ... : ... .. . ... ... : ... .. . P81 ...
ROW AB : G-4 00 A P84 ... ... : ... .. . ... ... ... : --- .. . ... : ... .. 0 ... : ... .. . ... ... : ... .. . ... ... : ... .. . ... ... : ... .. . P80 ...
ROW AC : ... .. . P82 ... ... : G#4 00 4 P82 ... ... : C#3 00 . ... : 1-# 00 F ... : ... .. . ... ... : ... .. A ... ... : ... .. A ... ... : ... .. A P7E ...
ROW AD : ... .. . P83 ... ... : ... .. . P7F ... ... : ... .. . ... : ... .. C ... : ... .. . ... ... : ... .. 9 ... ... : ... .. 9 ... ... : ... .. 8 P7D ...
ROW AE : G#4 00 A P7F ... ... : G-4 00 4 P83 ... ... : ... .. . ... : ... .. 6 ... : ... .. . ... ... : ... .. 8 ... ... : ... .. 8 ... ... : ... .. 5 ... ...
ROW AF : ... .. . P82 ... ... : ... .. . P82 ... ... : ... .. . ... : ... .. 3 ... : ... .. . ... ... : ... .. 1 ... ... : ... .. 1 ... ... : ... .. 2 P80 ...
ROW B0 : A-4 00 A P7E ... ... : ... .. . P84 ... ... : ... .. . ... : ... .. 2 ... : ... .. . ... ... : ... .. . ... ... : ... .. . ... ... : ... .. . P81 ...
ROW B1 : ... .. . ... ... ... : G#4 00 4 P80 ... ... : --- .. . ... : ... .. 0 ... : ... .. . ... ... : ... .. . ... ... : ... .. . ... ... : ... .. . P83 ...
ROW B2 : G#4 00 A P83 ... ... : ... .. . P83 ... ... : C#2 00 . ... : 9-# 00 8 ... : ... .. . ... ... : ... .. A ... ... : ... .. A ... ... : ... .. A ... ...
ROW B3 : ... .. . P80 ... ... : A-4 00 4 P7E ... ... : ... .. . ... : ... .. 6 ... : ... .. . ... ... : ... .. 9 ... ... : ... .. 9 ... ... : ... .. 8 P82 ...
ROW B4 : G-4 00 A P84 ... ... : ... .. . ... ... ... : ... .. . ... : ... .. 3 ... : ... .. . ... ... : ... .. 8 ... ... : ... .. 8 ... ... : ... .. 5 P80 ...
ROW B5 : ... .. . P82 ... ... : G#4 00 4 P83 ... ... : ... .. . ... : ... .. 1 ... : ... .. . ... ... : ... .. 1 ... ... : ... .. 1 ... ... : ... .. 2 P7E ...
ROW B6 : ... .. . P83 ... ... : ... .. . P80 ... ... : ... .. . ... : ... .. . ... : ... .. . ... ... : ... .. . ... ... : ... .. . ... ... : ... .. . P7D ...
ROW B7 : G#4 00 A P7E ... ... : G-4 00 4 P84 ... ... : --- .. . ... : ... .. 0 ... : ... .. . ... ... : ... .. . ... ... : ... .. . ... ... : ... .. . ... ...
ROW B8 : ... .. . P82 ... ... : ... .. . P82 ... ... : C#4 00 . ... : ... .. D ... : ... .. . ... ... : F-3 01 A ... ... : A-3 01 A ... ... : D-3 01 A P7F ...
ROW B9 : A-4 00 A P7D ... ... : ... .. . P83 ... ... : D#3 00 . ... : ... .. B ... : ... .. . ... ... : ... .. 9 ... ... : ... .. 9 ... ... : ... .. 8 P81 ...
ROW BA : ... .. . P7E ... ... : G#4 00 4 P7F ... ... : G#2 00 . ... : ... .. . ... : ... .. . ... ... : ... .. 8 ... ... : ... .. 8 ... ... : ... .. 5 P83 ...
ROW BB : G#4 00 A P84 ... ... : ... .. . P82 ... ... : G-2 00 . ... : ... .. A ... : ... .. . ... ... : ... .. 1 ... ... : ... .. 1 ... ... : ... .. 2 ... ...
ROW BC : ... .. . P80 ... ... : A-4 00 4 P7E ... ... : D-2 00 . ... : ... .. 8 ... : ... .. . ... ... : ... .. . ... ... : ... .. . ... ... : ... .. . P82 ...
ROW BD : ... .. . P7D ... ... : ... .. . ... ... ... : ... .. . ... : ... .. 7 ... : ... .. . ... ... : ... .. . ... ... : ... .. . ... ... : ... .. . P80 ...
ROW BE : G-4 00 A P82 ... ... : G#4 00 4 P83 ... ... : C#2 00 . ... : 7-# 00 8 ... : ... .. . ... ... : ... .. A ... ... : ... .. A ... ... : ... .. A P7E ...
ROW BF : ... .. . ... ... ... : ... .. . P80 ... ... : ... .. . ... : ... .. 6 ... : ... .. . ... ... : ... .. 9 ... ... : ... .. 9 ... ... : ... .. 8 P7D ...
ROW C0 : G#4 00 A P7E ... ... : G-4 00 4 P84 ... ... : ... .. . ... : ... .. 3 ... : ... .. . ... ... : ... .. 8 ... ... : ... .. 8 ... ... : ... .. 5 ... ...
ROW C1 : ... .. . P81 ... ... : ... .. . P82 ... ... : ... .. . ... : ... .. 1 ... : ... .. . ... ... : ... .. 1 ... ... : ... .. 1 ... ... : ... .. 2 P7F ...
ROW C2 : A-4 00 A P7D ... ... : ... .. . P83 ... ... : ... .. . ... : ... .. . ... : ... .. . ... ... : ... .. . ... ... : ... .. . ... ... : ... .. . P80 ...
ROW C3 : ... .. . P7E ... ... : G#4 00 4 P7E ... ... : --- .. . ... : ... .. 0 ... : ... .. . ... ... : ... .. . ... ... : ... .. . ... ... : ... .. . P83 ...
ROW C4 : G#4 00 A P84 ... ... : ... .. . P82 ... ... : B-2 00 . ... : A-# 00 F ... : ... .. . ... ... : ... .. A ... ... : ... .. A ... ... : ... .. A ... ...
ROW C5 : ... .. . P80 ... ... : A-4 00 4 P7D ... ... : ... .. . ... : ... .. C ... : ... .. . ... ... : ... .. 9 ... ... : ... .. 9 ... ... : ... .. 8 P82 ...
ROW C6 : ... .. . P7D ... ... : ... .. . P7E ... ... : ... .. . ... : ... .. 6 ... : ... .. . ... ... : ... .. 8 ... ... : ... .. 8 ... ... : ... .. 5 P80 ...
ROW C7 : G-4 00 A P82 ... ... : G#4 00 4 P84 ... ... : ... .. . ... : ... .. 3 ... : ... .. . ... ... : ... .. 1 ... ... : ... .. 1 ... ... : ... .. 2 P7F ...
ROW C8 : ... .. . ... ... ... : ... .. . P80 ... ... : ... .. . ... : ... .. 2 ... : ... .. . ... ... : ... .. . ... ... : ... .. . ... ... : ... .. . P7D ...
ROW C9 : G#4 00 A P7D ... ... : ... .. . P7D ... ... : --- .. . ... : ... .. 0 ... : ... .. . ... ... : ... .. . ... ... : ... .. . ... ... : ... .. . ... ...
ROW CA : ... .. . P80 ... ... : G-4 00 4 P82 ... ... : C#2 00 . ... : E-# 00 8 ... : ... .. . ... ... : ... .. A ... ... : ... .. A ... ... : ... .. A P7F ...
ROW CB : ... .. . P84 ... ... : ... .. . ... ... ... : ... .. . ... : ... .. 6 ... : ... .. . ... ... : ... .. 9 ... ... : ... .. 9 ... ... : ... .. 8 P80 ...
ROW CC : A-4 00 A P7E ... ... : G#4 00 4 P7E ... ... : ... .. . ... : ... .. 3 ... : ... .. . ... ... : ... .. 8 ... ... : ... .. 8 ... ... : ... .. 5 P82 ...
ROW CD : ... .. . P7D ... ... : ... .. . P81 ... ... : ... .. . ... : ... .. 1 ... : ... .. . ... ... : ... .. 1 ... ... : ... .. 1 ... ... : ... .. 2 P83 ...
ROW CE : G#4 00 A P81 ... ... : A-4 00 4 P7D ... ... : ... .. . ... : ... .. . ... : ... .. . ... ... : ... .. . ... ... : ... .. . ... ... : ... .. . ... ...
ROW CF : ... .. . P7E ... ... : ... .. . P7E ... ... : --- .. . ... : ... .. 0 ... : ... .. . ... ... : ... .. . ... ... : ... .. . ... ... : ... .. . P80 ...
ROW D0 : C#5 00 F P80 ... ... : G#4 00 4 P84 ... ... : C-4 00 . ... : 1-# 00 F ... : ... .. . ... ... : E-3 01 A ... ... : G#3 01 A ... ... : C#3 01 A P7F ...
ROW D1 : ... .. E ... ... ... : ... .. . P80 ... ... : D-3 00 . ... : ... .. C ... : ... .. . ... ... : ... .. 9 ... ... : ... .. 9 ... ... : ... .. 8 P7D ...
ROW D2 : ... .. D ... ... ... : ... .. . P7D ... ... : G-2 00 . ... : ... .. 6 ... : ... .. . ... ... : ... .. 8 ... ... : ... .. 8 ... ... : ... .. 5 ... ...
ROW D3 : ... .. A ... ... ... : G-4 00 4 P82 ... ... : F#2 00 . ... : ... .. 3 ... : ... .. . ... ... : ... .. 1 ... ... : ... .. 1 ... ... : ... .. 2 P7E ...
ROW D4 : ... .. . ... ... ... : ... .. . ... ... ... : C#2 00 . ... : ... .. 2 ... : ... .. . ... ... : ... .. . ... ... : ... .. . ... ... : ... .. . P80 ...
ROW D5 : ... .. . ... ... ... : G#4 00 4 P7D ... ... : ... .. . ... : ... .. 0 ... : ... .. . ... ... : ... .. . ... ... : ... .. . ... ... : ... .. . P82 ...
ROW D6 : ... .. . ... ... ... : ... .. . P80 ... ... : ... .. . ... : 9-# 00 8 ... : ... .. . ... ... : ... .. A ... ... : ... .. A ... ... : ... .. A P83 ...
ROW D7 : ... .. . ... ... ... : ... .. . P84 ... ... : ... .. . ... : ... .. 6 ... : ... .. . ... ... : ... .. 9 ... ... : ... .. 9 ... ... : ... .. 8 ... ...
ROW D8 : ... .. . ... ... ... : A-4 00 4 P7E ... ... : ... .. . ... : ... .. 3 ... : ... .. . ... ... : ... .. 8 ... ... : ... .. 8 ... ... : ... .. 5 P81 ...
ROW D9 : ... .. . ... ... ... : ... .. . P7D ... ... : ... .. . ... : ... .. 1 ... : ... .. . ... ... : ... .. 1 ... ... : ... .. 1 ... ... : ... .. 2 P7F ...
ROW DA : ... .. . ... ... ... : G#4 00 4 P81 ... ... : ... .. . ... : ... .. . ... : ... .. . ... ... : ... .. . ... ... : ... .. . ... ... : ... .. . P7D ...
ROW DB : ... .. . ... ... ... : ... .. . P7E ... ... : --- .. . ... : ... .. 0 ... : ... .. . ... ... : ... .. . ... ... : ... .. . ... ... : ... .. . ... ...
ROW DC : ... .. . ... ... ... : C#5 00 6 P80 ... ... : C#3 00 . ... : B-# 00 F ... : ... .. . ... ... : ... .. A ... ... : ... .. A ... ... : ... .. A P7E ...
ROW DD : ... .. . ... ... ... : ... .. 5 ... ... ... : ... .. . ... : ... .. C ... : ... .. . ... ... : ... .. 9 ... ... : ... .. 9 ... ... : ... .. 8 P80 ...
ROW DE : ... .. . ... ... ... : ... .. . ... ... ... : ... .. . ... : ... .. 6 ... : ... .. . ... ... : ... .. 8 ... ... : ... .. 8 ... ... : ... .. 5 P82 ...
ROW DF : ... .. . ... ... ... : ... .. 4 ... ... ... : ... .. . ... : ... .. 3 ... : ... .. . ... ... : ... .. 1 ... ... : ... .. 1 ... ... : ... .. 2 P83 ...
ROW E0 : ... .. . ... ... ... : ... .. . ... ... ... : ... .. . ... : ... .. 2 ... : ... .. . ... ... : ... .. . ... ... : ... .. . ... ... : ... .. . ... ...
ROW E1 : ... .. . ... ... ... : ... .. . ... ... ... : --- .. . ... : ... .. 0 ... : ... .. . ... ... : ... .. . ... ... : ... .. . ... ... : ... .. . P81 ...
ROW E2 : ... .. . ... ... ... : ... .. . ... ... ... : C-3 00 . ... : 9-# 00 8 ... : ... .. . ... ... : ... .. A ... ... : ... .. A ... ... : ... .. A P80 ...
ROW E3 : ... .. . ... ... ... : ... .. . ... ... ... : ... .. . ... : ... .. 6 ... : ... .. . ... ... : ... .. 9 ... ... : ... .. 9 ... ... : ... .. 8 P7D ...
ROW E4 : ... .. . ... ... ... : ... .. . ... ... ... : ... .. . ... : ... .. 3 ... : ... .. . ... ... : ... .. 8 ... ... : ... .. 8 ... ... : ... .. 5 ... ...
ROW E5 : ... .. . ... ... ... : ... .. . ... ... ... : ... .. . ... : ... .. 1 ... : ... .. . ... ... : ... .. 1 ... ... : ... .. 1 ... ... : ... .. 2 P7E ...
ROW E6 : ... .. . ... ... ... : ... .. . ... ... ... : ... .. . ... : ... .. . ... : ... .. . ... ... : ... .. . ... ... : ... .. . ... ... : ... .. . P80 ...
ROW E7 : ... .. . ... ... ... : ... .. . ... ... ... : --- .. . ... : ... .. 0 ... : ... .. . ... ... : ... .. . ... ... : ... .. . ... ... : ... .. . P81 ...
ROW E8 : ... .. . ... ... ... : ... .. . ... ... ... : B-3 00 . ... : ... .. D ... : ... .. . ... ... : D#3 01 A ... ... : G-3 01 A ... ... : C-3 01 A P83 ...
ROW E9 : D#5 00 A P7E ... ... : ... .. . ... ... ... : C#3 00 . ... : ... .. B ... : ... .. . ... ... : ... .. 9 ... ... : ... .. 9 ... ... : ... .. 8 ... ...
ROW EA : E-5 00 A P82 ... ... : ... .. . ... ... ... : F#2 00 . ... : ... .. . ... : ... .. . ... ... : ... .. 8 ... ... : ... .. 8 ... ... : ... .. 5 P81 ...
ROW EB : F#5 00 A ... ... ... : ... .. . ... ... ... : F-2 00 . ... : ... .. A ... : ... .. . ... ... : ... .. 1 ... ... : ... .. 1 ... ... : ... .. 2 P80 ...
ROW EC : G#5 00 A P80 ... ... : ... .. . ... ... ... : C-2 00 . ... : ... .. 8 ... : ... .. . ... ... : ... .. . ... ... : ... .. . ... ... : ... .. . P7E ...
ROW ED : ... .. . ... ... ... : ... .. . ... ... ... : ... .. . ... : ... .. 7 ... : ... .. . ... ... : ... .. . ... ... : ... .. . ... ... : ... .. . P7D ...
ROW EE : ... .. . ... ... ... : ... .. . ... ... ... : C#2 00 . ... : 7-# 00 8 ... : ... .. . ... ... : ... .. A ... ... : ... .. A ... ... : ... .. A ... ...
ROW EF : ... .. . ... ... ... : ... .. . ... ... ... : ... .. . ... : ... .. 6 ... : ... .. . ... ... : ... .. 9 ... ... : ... .. 9 ... ... : ... .. 8 P80 ...
ROW F0 : ... .. . ... ... ... : ... .. . ... ... ... : ... .. . ... : ... .. 3 ... : ... .. . ... ... : ... .. 8 ... ... : ... .. 8 ... ... : ... .. 5 P81 ...
ROW F1 : ... .. . ... ... ... : ... .. . ... ... ... : ... .. . ... : ... .. 1 ... : ... .. . ... ... : ... .. 1 ... ... : ... .. 1 ... ... : ... .. 2 P83 ...
ROW F2 : ... .. . ... ... ... : ... .. . ... ... ... : ... .. . ... : ... .. . ... : ... .. . ... ... : ... .. . ... ... : ... .. . ... ... : ... .. . ... ...
ROW F3 : ... .. . ... ... ... : ... .. . ... ... ... : --- .. . ... : ... .. 0 ... : ... .. . ... ... : ... .. . ... ... : ... .. . ... ... : ... .. . P82 ...
ROW F4 : ... .. . ... ... ... : ... .. . ... ... ... : E-3 00 . ... : A-# 00 F ... : ... .. . ... ... : ... .. A ... ... : ... .. A ... ... : ... .. A P80 ...
ROW F5 : ... .. . ... ... ... : D#5 00 4 P7E ... ... : ... .. . ... : ... .. C ... : ... .. . ... ... : ... .. 9 ... ... : ... .. 9 ... ... : ... .. 8 P7E ...
ROW F6 : ... .. . ... ... ... : E-5 00 4 P82 ... ... : ... .. . ... : ... .. 6 ... : ... .. . ... ... : ... .. 8 ... ... : ... .. 8 ... ... : ... .. 5 P7D ...
ROW F7 : ... .. . ... ... ... : F#5 00 4 ... ... ... : ... .. . ... : ... .. 3 ... : ... .. . ... ... : ... .. 1 ... ... : ... .. 1 ... ... : ... .. 2 ... ...
ROW F8 : ... .. . ... ... ... : G#5 00 4 P80 ... ... : ... .. . ... : ... .. 2 ... : ... .. . ... ... : ... .. . ... ... : ... .. . ... ... : ... .. . P7F ...
ROW F9 : ... .. . ... ... ... : ... .. . ... ... ... : --- .. . ... : ... .. 0 ... : ... .. . ... ... : ... .. . ... ... : ... .. . ... ... : ... .. . P81 ...
ROW FA : ... .. . ... ... ... : ... .. . ... ... ... : G-1 00 . ... : E-# 00 8 ... : ... .. . ... ... : ... .. A ... ... : ... .. A ... ... : ... .. A P83 ...
ROW FB : ... .. . ... ... ... : ... .. . ... ... ... : ... .. . ... : ... .. 6 ... : ... .. . ... ... : ... .. 9 ... ... : ... .. 9 ... ... : ... .. 8 ... ...
ROW FC : ... .. . ... ... ... : ... .. . ... ... ... : ... .. . ... : ... .. 3 ... : ... .. . ... ... : ... .. 8 ... ... : ... .. 8 ... ... : ... .. 5 P82 ...
ROW FD : A-5 00 A P7F ... ... : ... .. . ... ... ... : ... .. . ... : ... .. 1 ... : ... .. . ... ... : ... .. 1 ... ... : ... .. 1 ... ... : ... .. 2 P80 ...
ROW FE : ... .. . P80 ... ... : ... .. . ... ... ... : ... .. . ... : ... .. . ... : ... .. . ... ... : ... .. . ... ... : ... .. . ... ... : ... .. . P7E ...
ROW FF : ... .. . ... ... ... : ... .. . ... ... ... : --- .. . ... : ... .. 0 ... : ... .. . ... ... : ... .. . ... ... : ... .. . ... ... : ... .. . P7D ...

PATTERN 06
ROW 00 : G#5 00 A P81 ... ... : ... .. . ... ... ... : C-3 00 . ... : 1-# 00 F ... : ... .. . ... ... : D-3 01 A ... ... : F#3 01 A ... ... : B-2 01 A ... ...
ROW 01 : ... .. . P7F ... ... : ... .. . ... ... ... : D-2 00 . ... : ... .. C ... : ... .. . ... ... : ... .. 9 ... ... : ... .. 9 ... ... : ... .. 8 P7F ...
ROW 02 : G-5 00 A P81 ... ... : ... .. . ... ... ... : G-1 00 . ... : ... .. 6 ... : ... .. . ... ... : ... .. 8 ... ... : ... .. 8 ... ... : ... .. 5 P80 ...
ROW 03 : ... .. . ... ... ... : ... .. . ... ... ... : F#1 00 . ... : ... .. 3 ... : ... .. . ... ... : ... .. 1 ... ... : ... .. 1 ... ... : ... .. 2 P83 ...
ROW 04 : ... .. . P82 ... ... : ... .. . ... ... ... : C#1 00 . ... : ... .. 2 ... : ... .. . ... ... : ... .. . ... ... : ... .. . ... ... : ... .. . ... ...
ROW 05 : G#5 00 A P80 ... ... : ... .. . ... ... ... : ... .. . ... : ... .. 0 ... : ... .. . ... ... : ... .. . ... ... : ... .. . ... ... : ... .. . P82 ...
ROW 06 : A-5 00 A P7F ... ... : ... .. . ... ... ... : C#2 00 . ... : 9-# 00 8 ... : ... .. . ... ... : ... .. A ... ... : ... .. A ... ... : ... .. A P80 ...
ROW 07 : ... .. . P80 ... ... : ... .. . ... ... ... : ... .. . ... : ... .. 6 ... : ... .. . ... ... : ... .. 9 ... ... : ... .. 9 ... ... : ... .. 8 P7F ...
ROW 08 : ... .. . ... ... ... : ... .. . ... ... ... : ... .. . ... : ... .. 3 ... : ... .. . ... ... : ... .. 8 ... ... : ... .. 8 ... ... : ... .. 5 P7D ...
ROW 09 : G#5 00 A P81 ... ... : A-5 00 4 P7F ... ... : ... .. . ... : ... .. 1 ... : ... .. . ... ... : ... .. 1 ... ... : ... .. 1 ... ... : ... .. 2 ... ...
ROW 0A : ... .. . P80 ... ... : ... .. . P80 ... ... : ... .. . ... : ... .. . ... : ... .. . ... ... : ... .. . ... ... : ... .. . ... ... : ... .. . P7F ...
ROW 0B : G-5 00 A P81 ... ... : ... .. . ... ... ... : --- .. . ... : ... .. 0 ... : ... .. . ... ... : ... .. . ... ... : ... .. . ... ... : ... .. . P80 ...
ROW 0C : ... .. . ... ... ... : G#5 00 4 P81 ... ... : C#3 00 . ... : 1-# 00 F ... : ... .. . ... ... : ... .. A ... ... : ... .. A ... ... : ... .. A P82 ...
ROW 0D : ... .. . P82 ... ... : ... .. . P7F ... ... : ... .. . ... : ... .. C ... : ... .. . ... ... : ... .. 9 ... ... : ... .. 9 ... ... : ... .. 8 P83 ...
ROW 0E : G#5 00 A P80 ... ... : G-5 00 4 P81 ... ... : ... .. . ... : ... .. 6 ... : ... .. . ... ... : ... .. 8 ... ... : ... .. 8 ... ... : ... .. 5 ... ...
ROW 0F : ... .. . P81 ... ... : ... .. . ... ... ... : ... .. . ... : ... .. 3 ... : ... .. . ... ... : ... .. 1 ... ... : ... .. 1 ... ... : ... .. 2 P80 ...
ROW 10 : A-5 00 A P80 ... ... : ... .. . P82 ... ... : ... .. . ... : ... .. 2 ... : ... .. . ... ... : ... .. . ... ... : ... .. . ... ... : ... .. . P7F ...
ROW 11 : ... .. . ... ... ... : G#5 00 4 P80 ... ... : --- .. . ... : ... .. 0 ... : ... .. . ... ... : ... .. . ... ... : ... .. . ... ... : ... .. . P7D ...
ROW 12 : G#5 00 A P81 ... ... : A-5 00 4 P7F ... ... : C#2 00 . ... : 9-# 00 8 ... : ... .. . ... ... : ... .. A ... ... : ... .. A ... ... : ... .. A ... ...
ROW 13 : ... .. . P80 ... ... : ... .. . P80 ... ... : ... .. . ... : ... .. 6 ... : ... .. . ... ... : ... .. 9 ... ... : ... .. 9 ... ... : ... .. 8 P7E ...
ROW 14 : G-5 00 A P82 ... ... : ... .. . ... ... ... : ... .. . ... : ... .. 3 ... : ... .. . ... ... : ... .. 8 ... ... : ... .. 8 ... ... : ... .. 5 P80 ...
ROW 15 : ... .. . P81 ... ... : G#5 00 4 P81 ... ... : ... .. . ... : ... .. 1 ... : ... .. . ... ... : ... .. 1 ... ... : ... .. 1 ... ... : ... .. 2 P82 ...
ROW 16 : ... .. . ... ... ... : ... .. . P80 ... ... : ... .. . ... : ... .. . ... : ... .. . ... ... : ... .. . ... ... : ... .. . ... ... : ... .. . P83 ...
ROW 17 : G#5 00 A P80 ... ... : G-5 00 4 P81 ... ... : --- .. . ... : ... .. 0 ... : ... .. . ... ... : ... .. . ... ... : ... .. . ... ... : ... .. . ... ...
ROW 18 : ... .. . P81 ... ... : ... .. . ... ... ... : C#4 00 . ... : ... .. D ... : ... .. . ... ... : C#3 01 A ... ... : F-3 01 A ... ... : A#2 01 A P81 ...
ROW 19 : A-5 00 A P80 ... ... : ... .. . P82 ... ... : D#3 00 . ... : ... .. B ... : ... .. . ... ... : ... .. 9 ... ... : ... .. 9 ... ... : ... .. 8 P7F ...
ROW 1A : ... .. . ... ... ... : G#5 00 4 P80 ... ... : G#2 00 . ... : ... .. . ... : ... .. . ... ... : ... .. 8 ... ... : ... .. 8 ... ... : ... .. 5 P7D ...
ROW 1B : ... .. . P7F ... ... : ... .. . P81 ... ... : G-2 00 . ... : ... .. A ... : ... .. . ... ... : ... .. 1 ... ... : ... .. 1 ... ... : ... .. 2 ... ...
ROW 1C : G#5 00 2 P80 ... ... : A-5 00 4 P80 ... ... : D-2 00 . ... : ... .. 8 ... : ... .. . ... ... : ... .. . ... ... : ... .. . ... ... : ... .. . P7E ...
ROW 1D : G-5 00 2 P82 ... ... : ... .. . ... ... ... : ... .. . ... : ... .. 7 ... : ... .. . ... ... : ... .. . ... ... : ... .. . ... ... : ... .. . P80 ...
ROW 1E : ... .. . P81 ... ... : G#5 00 4 P81 ... ... : C#2 00 . ... : 7-# 00 8 ... : ... .. . ... ... : ... .. A ... ... : ... .. A ... ... : ... .. A P82 ...
ROW 1F : ... .. 1 ... ... ... : ... .. . P80 ... ... : ... .. . ... : ... .. 6 ... : ... .. . ... ... : ... .. 9 ... ... : ... .. 9 ... ... : ... .. 8 P83 ...
ROW 20 : G#5 00 1 P7F ... ... : G-5 00 4 P82 ... ... : ... .. . ... : ... .. 3 ... : ... .. . ... ... : ... .. 8 ... ... : ... .. 8 ... ... : ... .. 5 ... ...
ROW 21 : ... .. . P81 ... ... : ... .. . P81 ... ... : ... .. . ... : ... .. 1 ... : ... .. . ... ... : ... .. 1 ... ... : ... .. 1 ... ... : ... .. 2 P81 ...
ROW 22 : ... .. 0 ... ... ... : ... .. . ... ... ... : ... .. . ... : ... .. . ... : ... .. . ... ... : ... .. . ... ... : ... .. . ... ... : ... .. . P80 ...
ROW 23 : ... .. . ... ... ... : G#5 00 4 P80 ... ... : --- .. . ... : ... .. 0 ... : ... .. . ... ... : ... .. . ... ... : ... .. . ... ... : ... .. . P7D ...
ROW 24 : ... .. . ... ... ... : ... .. . P81 ... ... : B-2 00 . ... : A-# 00 F ... : ... .. . ... ... : ... .. 6 ... ... : ... .. A ... ... : ... .. A ... ...
ROW 25 : ... .. . ... ... ... : A-5 00 4 P80 ... ... : ... .. . ... : ... .. C ... : ... .. . ... ... : ... .. . ... ... : ... .. 9 ... ... : ... .. 8 P7E ...
ROW 26 : ... .. . ... ... ... : ... .. . ... ... ... : ... .. . ... : ... .. 6 ... : ... .. . ... ... : ... .. 5 ... ... : ... .. 8 ... ... : ... .. 5 P80 ...
ROW 27 : ... .. . ... ... ... : ... .. . P7F ... ... : ... .. . ... : ... .. 3 ... : ... .. . ... ... : ... .. 1 ... ... : ... .. 1 ... ... : ... .. 2 P81 ...
ROW 28 : ... .. . ... ... ... : G#5 00 4 P80 ... ... : ... .. . ... : ... .. 2 ... : ... .. . ... ... : ... .. . ... ... : ... .. . ... ... : ... .. . P83 ...
ROW 29 : ... .. . ... ... ... : G-5 00 4 P82 ... ... : --- .. . ... : ... .. 0 ... : ... .. . ... ... : ... .. . ... ... : ... .. . ... ... : ... .. . ... ...
ROW 2A : ... .. . ... ... ... : ... .. . P81 ... ... : C#2 00 . ... : E-# 00 8 ... : ... .. . ... ... : ... .. 6 ... ... : ... .. A ... ... : ... .. A P81 ...
ROW 2B : ... .. . ... ... ... : ... .. . ... ... ... : ... .. . ... : ... .. 6 ... : ... .. . ... ... : ... .. . ... ... : ... .. 9 ... ... : ... .. 8 P80 ...
ROW 2C : ... .. . ... ... ... : G#5 00 4 P7F ... ... : ... .. . ... : ... .. 3 ... : ... .. . ... ... : ... .. 5 ... ... : ... .. 8 ... ... : ... .. 5 P7E ...
ROW 2D : ... .. . ... ... ... : ... .. . P81 V01 ... : ... .. . ... : ... .. 1 ... : ... .. . ... ... : ... .. 1 ... ... : ... .. 1 ... ... : ... .. 2 P7D ...
ROW 2E : ... .. . ... ... ... : A-5 00 4 P80 ... ... : ... .. . ... : ... .. . ... : ... .. . ... ... : ... .. . ... ... : ... .. . ... ... : ... .. . ... ...
ROW 2F : ... .. . ... ... ... : ... .. . ... ... ... : --- .. . ... : ... .. 0 ... : ... .. . ... ... : ... .. . ... ... : ... .. . ... ... : ... .. . P80 ...
ROW 30 : A-4 00 F P80 ... ... : C#5 00 F ... ... ... : G#4 00 . ... : 1-# 00 F ... : ... .. . ... ... : C#4 01 A ... ... : E-3 01 A ... ... : A-2 01 F P81 ...
ROW 31 : ... .. E ... ... ... : ... .. E ... ... ... : A#3 00 . ... : ... .. C ... : ... .. . ... ... : ... .. 9 ... ... : ... .. 9 ... ... : ... .. D P83 ...
ROW 32 : ... .. D ... ... ... : ... .. D ... ... ... : D#3 00 . ... : ... .. 6 ... : ... .. . ... ... : ... .. 8 ... ... : ... .. 8 ... ... : ... .. 8 ... ...
ROW 33 : ... .. A ... ... ... : ... .. A ... ... ... : D-3 00 . ... : ... .. 3 ... : ... .. . ... ... : ... .. 7 ... ... : ... .. 7 ... ... : ... .. . P82 ...
ROW 34 : ... .. . ... ... ... : ... .. 2 ... ... ... : A-2 00 . ... : ... .. 2 ... : ... .. . ... ... : ... .. . ... ... : ... .. . ... ... : ... .. . P80 ...
ROW 35 : ... .. . ... ... ... : ... .. . ... ... ... : ... .. . ... : ... .. 0 ... : ... .. . ... ... : ... .. 6 ... ... : ... .. 6 ... ... : ... .. . P7E ...
ROW 36 : D#4 00 8 ... ... ... : ... .. 8 ... ... ... : A#2 00 . ... : 9-# 00 8 ... : ... .. . ... ... : D#1 01 A ... ... : D#1 01 A ... ... : G-2 01 F P7D ...
ROW 37 : ... .. 7 ... ... ... : ... .. 7 ... ... ... : ... .. . ... : ... .. 6 ... : ... .. . ... ... : ... .. 9 ... ... : ... .. 9 ... ... : ... .. D ... ...
ROW 38 : ... .. 6 ... ... ... : ... .. 6 ... ... ... : ... .. . ... : ... .. 3 ... : ... .. . ... ... : ... .. 8 ... ... : ... .. 8 ... ... : ... .. 8 P7F ...
ROW 39 : ... .. 5 ... ... ... : ... .. 5 ... ... ... : ... .. . ... : ... .. 1 ... : ... .. . ... ... : ... .. 1 ... ... : ... .. 1 ... ... : ... .. 2 P81 ...
ROW 3A : ... .. . ... ... ... : ... .. 1 ... ... ... : ... .. . ... : ... .. . ... : ... .. . ... ... : ... .. . ... ... : ... .. . ... ... : ... .. . P83 ...
ROW 3B : ... .. . ... ... ... : ... .. . ... ... ... : --- .. . ... : ... .. 0 ... : ... .. . ... ... : ... .. . ... ... : ... .. . ... ... : ... .. . ... ...
ROW 3C : C#4 00 8 ... ... ... : C#4 00 4 ... ... ... : A-2 00 . ... : B-# 00 F ... : ... .. . ... ... : ... .. A ... ... : ... .. A ... ... : A-2 01 F P82 ...
ROW 3D : ... .. 7 ... ... ... : ... .. 3 ... ... ... : ... .. . ... : ... .. C ... : ... .. . ... ... : ... .. 9 ... ... : ... .. 9 ... ... : ... .. D P80 ...
ROW 3E : ... .. 6 ... ... ... : ... .. . ... ... ... : ... .. . ... : ... .. 6 ... : ... .. . ... ... : ... .. 8 ... ... : ... .. 8 ... ... : ... .. 8 P7E ...
ROW 3F : ... .. 5 ... ... ... : ... .. 2 ... ... ... : ... .. . ... : ... .. 3 ... : ... .. . ... ... : ... .. 1 ... ... : ... .. 1 ... ... : ... .. 2 P7D ...
ROW 40 : ... .. . ... ... ... : ... .. 1 ... ... ... : ... .. . ... : ... .. 2 ... : ... .. . ... ... : ... .. . ... ... : ... .. . ... ... : ... .. . ... ...
ROW 41 : ... .. . ... ... ... : ... .. . ... ... ... : --- .. . ... : ... .. 0 ... : ... .. . ... ... : ... .. . ... ... : ... .. . ... ... : ... .. . P7F ...
ROW 42 : A-4 00 F ... ... ... : C#5 00 F ... ... ... : A-1 00 . ... : 1-# 00 F ... : ... .. . ... ... : C#4 01 A ... ... : E-3 01 A ... ... : A-1 01 F P80 ...
ROW 43 : ... .. E ... ... ... : ... .. E ... ... ... : ... .. . ... : ... .. C ... : ... .. . ... ... : ... .. 9 ... ... : ... .. 9 ... ... : ... .. D P83 ...
ROW 44 : ... .. D ... ... ... : ... .. D ... ... ... : ... .. . ... : ... .. 6 ... : ... .. . ... ... : ... .. 8 ... ... : ... .. 8 ... ... : ... .. 8 ... ...
ROW 45 : ... .. A ... ... ... : ... .. A ... ... ... : ... .. . ... : ... .. 3 ... : ... .. . ... ... : ... .. 7 ... ... : ... .. 7 ... ... : ... .. . P82 ...
ROW 46 : ... .. . ... ... ... : ... .. 2 ... ... ... : ... .. . ... : ... .. 2 ... : ... .. . ... ... : ... .. . ... ... : ... .. . ... ... : ... .. . P80 ...
ROW 47 : ... .. . ... ... ... : ... .. . ... ... ... : --- .. . ... : ... .. 0 ... : ... .. . ... ... : ... .. 6 ... ... : ... .. 6 ... ... : ... .. . P7F ...
ROW 48 : D#4 00 8 ... ... ... : ... .. 8 ... ... ... : F#3 00 . ... : 9-# 00 8 ... : ... .. . ... ... : D#1 01 A ... ... : D#1 01 A ... ... : G-1 01 F P7D ...
ROW 49 : ... .. 7 ... ... ... : ... .. 7 ... ... ... : G#2 00 . ... : ... .. 6 ... : ... .. . ... ... : ... .. 9 ... ... : ... .. 9 ... ... : ... .. D ... ...
ROW 4A : ... .. 6 ... ... ... : ... .. 6 ... ... ... : C#2 00 . ... : ... .. 3 ... : ... .. . ... ... : ... .. 8 ... ... : ... .. 8 ... ... : ... .. 8 P7F ...
ROW 4B : ... .. 5 ... ... ... : ... .. 5 ... ... ... : C-2 00 . ... : ... .. 1 ... : ... .. . ... ... : ... .. 1 ... ... : ... .. 1 ... ... : ... .. 2 P80 ...
ROW 4C : ... .. . ... ... ... : ... .. 1 ... ... ... : G-1 00 . ... : ... .. . ... : ... .. . ... ... : ... .. . ... ... : ... .. . ... ... : ... .. . P82 ...
ROW 4D : ... .. . ... ... ... : ... .. . ... ... ... : ... .. . ... : ... .. 0 ... : ... .. . ... ... : ... .. . ... ... : ... .. . ... ... : ... .. . P83 ...
ROW 4E : C#4 00 8 ... ... ... : C#4 00 4 ... ... ... : A-1 00 . ... : B-# 00 F ... : ... .. . ... ... : ... .. A ... ... : ... .. A ... ... : A-1 01 F ... ...
ROW 4F : ... .. 7 ... ... ... : ... .. 3 ... ... ... : ... .. . ... : ... .. C ... : ... .. . ... ... : ... .. 9 ... ... : ... .. 9 ... ... : ... .. D P80 ...
ROW 50 : ... .. 6 ... ... ... : ... .. . ... ... ... : ... .. . ... : ... .. 6 ... : ... .. . ... ... : ... .. 8 ... ... : ... .. 8 ... ... : ... .. 8 P7F ...
ROW 51 : ... .. 5 ... ... ... : ... .. 2 ... ... ... : ... .. . ... : ... .. 3 ... : ... .. . ... ... : ... .. 1 ... ... : ... .. 1 ... ... : ... .. 2 P7D ...
ROW 52 : ... .. . ... ... ... : ... .. 1 ... ... ... : ... .. . ... : ... .. 2 ... : ... .. . ... ... : ... .. . ... ... : ... .. . ... ... : ... .. . ... ...
ROW 53 : ... .. . ... ... ... : ... .. . ... ... ... : --- .. . ... : ... .. 0 ... : ... .. . ... ... : ... .. . ... ... : ... .. . ... ... : ... .. . P7E ...
ROW 54 : A-4 00 F ... ... ... : C#5 00 F ... ... ... : A-2 00 . ... : 1-# 00 F ... : ... .. . ... ... : C#4 01 A ... ... : E-3 01 A ... ... : A-2 01 F P80 ...
ROW 55 : ... .. E ... ... ... : ... .. E ... ... ... : ... .. . ... : ... .. C ... : ... .. . ... ... : ... .. 9 ... ... : ... .. 9 ... ... : ... .. D P82 ...
ROW 56 : ... .. D ... ... ... : ... .. D ... ... ... : ... .. . ... : ... .. 6 ... : ... .. . ... ... : ... .. 8 ... ... : ... .. 8 ... ... : ... .. 8 P83 ...
ROW 57 : ... .. A ... ... ... : ... .. A ... ... ... : ... .. . ... : ... .. 3 ... : ... .. . ... ... : ... .. 7 ... ... : ... .. 7 ... ... : ... .. . ... ...
ROW 58 : ... .. . ... ... ... : ... .. 2 ... ... ... : ... .. . ... : ... .. 2 ... : ... .. . ... ... : ... .. . ... ... : ... .. . ... ... : ... .. . P81 ...
ROW 59 : ... .. . ... ... ... : ... .. . ... ... ... : --- .. . ... : ... .. 0 ... : ... .. . ... ... : ... .. 6 ... ... : ... .. 6 ... ... : ... .. . P7F ...
ROW 5A : C#4 00 8 ... ... ... : ... .. 8 ... ... ... : A#2 00 . ... : 9-# 00 8 ... : ... .. . ... ... : D#1 01 A ... ... : D#1 01 A ... ... : G-2 01 F P7D ...
ROW 5B : ... .. 7 ... ... ... : ... .. 7 ... ... ... : ... .. . ... : ... .. 6 ... : ... .. . ... ... : ... .. 9 ... ... : ... .. 9 ... ... : ... .. D ... ...
ROW 5C : ... .. 6 ... ... ... : ... .. 6 ... ... ... : ... .. . ... : ... .. 3 ... : ... .. . ... ... : ... .. 8 ... ... : ... .. 8 ... ... : ... .. 8 P7E ...
ROW 5D : ... .. 5 ... ... ... : ... .. 5 ... ... ... : ... .. . ... : ... .. 1 ... : ... .. . ... ... : ... .. 1 ... ... : ... .. 1 ... ... : ... .. 2 P80 ...
ROW 5E : ... .. . ... ... ... : ... .. 1 ... ... ... : ... .. . ... : ... .. . ... : ... .. . ... ... : ... .. . ... ... : ... .. . ... ... : ... .. . P82 ...
ROW 5F : ... .. . ... ... ... : ... .. . ... ... ... : --- .. . ... : ... .. 0 ... : ... .. . ... ... : ... .. . ... ... : ... .. . ... ... : ... .. . P83 ...
ROW 60 : B-3 00 8 ... ... ... : C#4 00 4 ... ... ... : G#4 00 . ... : B-# 00 F ... : ... .. . ... ... : ... .. A ... ... : ... .. A ... ... : A-2 01 F ... ...
ROW 61 : ... .. 7 ... ... ... : ... .. 3 ... ... ... : A#3 00 . ... : ... .. C ... : ... .. . ... ... : ... .. 9 ... ... : ... .. 9 ... ... : ... .. D P81 ...
ROW 62 : ... .. 6 ... ... ... : ... .. . ... ... ... : D#3 00 . ... : ... .. 6 ... : ... .. . ... ... : ... .. 8 ... ... : ... .. 8 ... ... : ... .. 8 P80 ...
ROW 63 : ... .. 5 ... ... ... : ... .. 2 ... ... ... : D-3 00 . ... : ... .. 3 ... : ... .. . ... ... : ... .. 1 ... ... : ... .. 1 ... ... : ... .. 2 P7D ...
ROW 64 : ... .. . ... ... ... : ... .. 1 ... ... ... : A-2 00 . ... : ... .. 2 ... : ... .. . ... ... : ... .. . ... ... : ... .. . ... ... : ... .. . ... ...
ROW 65 : ... .. . ... ... ... : ... .. . ... ... ... : ... .. . ... : ... .. 0 ... : ... .. . ... ... : ... .. . ... ... : ... .. . ... ... : ... .. . P7E ...
ROW 66 : G-3 00 8 ... ... ... : ... .. 8 ... ... ... : A-1 00 . ... : 9-# 00 8 ... : ... .. . ... ... : ... .. A ... ... : ... .. A ... ... : A-1 01 F P80 ...
ROW 67 : ... .. 7 ... ... ... : ... .. 7 ... ... ... : ... .. . ... : ... .. 6 ... : ... .. . ... ... : ... .. 9 ... ... : ... .. 9 ... ... : ... .. D P81 ...
ROW 68 : ... .. 6 ... ... ... : ... .. 6 ... ... ... : ... .. . ... : ... .. 3 ... : ... .. . ... ... : ... .. 8 ... ... : ... .. 8 ... ... : ... .. 8 P83 ...
ROW 69 : ... .. 5 ... ... ... : ... .. 5 ... ... ... : ... .. . ... : ... .. 1 ... : ... .. . ... ... : ... .. 1 ... ... : ... .. 1 ... ... : ... .. 2 ... ...
ROW 6A : ... .. . ... ... ... : ... .. 1 ... ... ... : ... .. . ... : ... .. . ... : ... .. . ... ... : ... .. . ... ... : ... .. . ... ... : ... .. . P81 ...
ROW 6B : ... .. . ... ... ... : ... .. . ... ... ... : --- .. . ... : ... .. 0 ... : ... .. . ... ... : ... .. . ... ... : ... .. . ... ... : ... .. . P80 ...
ROW 6C : D#3 00 F ... ... ... : C#5 00 4 ... ... ... : G-1 00 . ... : ... .. D ... : ... .. . ... ... : ... .. A ... ... : ... .. A ... ... : G-1 01 F P7E ...
ROW 6D : ... .. E ... ... ... : ... .. 3 ... ... ... : ... .. . ... : ... .. B ... : ... .. . ... ... : ... .. 9 ... ... : ... .. 9 ... ... : ... .. D P7D ...
ROW 6E : ... .. D ... ... ... : ... .. . ... ... ... : ... .. . ... : ... .. . ... : ... .. . ... ... : ... .. 8 ... ... : ... .. 8 ... ... : ... .. 8 ... ...
ROW 6F : ... .. A ... ... ... : ... .. 2 ... ... ... : ... .. . ... : ... .. A ... : ... .. . ... ... : ... .. 1 ... ... : ... .. 1 ... ... : ... .. 2 P80 ...
ROW 70 : ... .. . ... ... ... : ... .. 1 ... ... ... : ... .. . ... : ... .. 8 ... : ... .. . ... ... : ... .. . ... ... : ... .. . ... ... : ... .. . P81 ...
ROW 71 : ... .. . ... ... ... : ... .. . ... ... ... : --- .. . ... : ... .. 7 ... : ... .. . ... ... : ... .. . ... ... : ... .. . ... ... : ... .. . P83 ...
ROW 72 : C#3 00 8 ... ... ... : ... .. 8 ... ... ... : A-1 00 . ... : 7-# 00 8 ... : ... .. . ... ... : ... .. A ... ... : ... .. A ... ... : A-1 01 F ... ...
ROW 73 : ... .. 7 ... ... ... : ... .. 7 ... ... ... : ... .. . ... : ... .. 6 ... : ... .. . ... ... : ... .. 9 ... ... : ... .. 9 ... ... : ... .. D P82 ...
ROW 74 : ... .. 6 ... ... ... : ... .. 6 ... ... ... : ... .. . ... : ... .. 3 ... : ... .. . ... ... : ... .. 8 ... ... : ... .. 8 ... ... : ... .. 8 P80 ...
ROW 75 : ... .. 5 ... ... ... : ... .. 5 ... ... ... : ... .. . ... : ... .. 1 ... : ... .. . ... ... : ... .. 1 ... ... : ... .. 1 ... ... : ... .. 2 P7E ...
ROW 76 : ... .. . ... ... ... : ... .. 1 ... ... ... : ... .. . ... : ... .. . ... : ... .. . ... ... : ... .. . ... ... : ... .. . ... ... : ... .. . P7D ...
ROW 77 : ... .. . ... ... ... : ... .. . ... ... ... : --- .. . ... : ... .. 0 ... : ... .. . ... ... : ... .. . ... ... : ... .. . ... ... : ... .. . ... ...
ROW 78 : A#4 00 F ... ... ... : D#5 00 4 ... ... ... : G#4 00 . ... : 1-# 00 F ... : ... .. . ... ... : D#4 01 A ... ... : G-3 01 A ... ... : A-2 01 F P7F ...
ROW 79 : ... .. E ... ... ... : ... .. 3 ... ... ... : A#3 00 . ... : ... .. C ... : ... .. . ... ... : ... .. 9 ... ... : ... .. 9 ... ... : ... .. D P81 ...
ROW 7A : ... .. D ... ... ... : ... .. . ... ... ... : D#3 00 . ... : ... .. 6 ... : ... .. . ... ... : ... .. 8 ... ... : ... .. 8 ... ... : ... .. 8 P83 ...
ROW 7B : ... .. A ... ... ... : ... .. 2 ... ... ... : D-3 00 . ... : ... .. 3 ... : ... .. . ... ... : ... .. 7 ... ... : ... .. 7 ... ... : ... .. . ... ...
ROW 7C : ... .. . ... ... ... : ... .. 1 ... ... ... : A-2 00 . ... : ... .. 2 ... : ... .. . ... ... : ... .. . ... ... : ... .. . ... ... : ... .. . P82 ...
ROW 7D : ... .. . ... ... ... : ... .. . ... ... ... : ... .. . ... : ... .. 0 ... : ... .. . ... ... : ... .. 6 ... ... : ... .. 6 ... ... : ... .. . P80 ...
ROW 7E : D#4 00 8 ... ... ... : ... .. 8 ... ... ... : A#2 00 . ... : 9-# 00 8 ... : ... .. . ... ... : D#1 01 A ... ... : D#1 01 A ... ... : G-2 01 F P7E ...
ROW 7F : ... .. 7 ... ... ... : ... .. 7 ... ... ... : ... .. . ... : ... .. 6 ... : ... .. . ... ... : ... .. 9 ... ... : ... .. 9 ... ... : ... .. D P7D ...
ROW 80 : ... .. 6 ... ... ... : ... .. 6 ... ... ... : ... .. . ... : ... .. 3 ... : ... .. . ... ... : ... .. 8 ... ... : ... .. 8 ... ... : ... .. 8 ... ...
ROW 81 : ... .. 5 ... ... ... : ... .. 5 ... ... ... : ... .. . ... : ... .. 1 ... : ... .. . ... ... : ... .. 1 ... ... : ... .. 1 ... ... : ... .. 2 P7F ...
ROW 82 : ... .. . ... ... ... : ... .. 1 ... ... ... : ... .. . ... : ... .. . ... : ... .. . ... ... : ... .. . ... ... : ... .. . ... ... : ... .. . P80 ...
ROW 83 : ... .. . ... ... ... : ... .. . ... ... ... : --- .. . ... : ... .. 0 ... : ... .. . ... ... : ... .. . ... ... : ... .. . ... ... : ... .. . P83 ...
ROW 84 : C#4 00 8 ... ... ... : D#4 00 4 ... ... ... : A-2 00 . ... : B-# 00 F ... : ... .. . ... ... : ... .. A ... ... : ... .. A ... ... : A-2 01 F ... ...
ROW 85 : ... .. 7 ... ... ... : ... .. 3 ... ... ... : ... .. . ... : ... .. C ... : ... .. . ... ... : ... .. 9 ... ... : ... .. 9 ... ... : ... .. D P82 ...
ROW 86 : ... .. 6 ... ... ... : ... .. . ... ... ... : ... .. . ... : ... .. 6 ... : ... .. . ... ... : ... .. 8 ... ... : ... .. 8 ... ... : ... .. 8 P80 ...
ROW 87 : ... .. 5 ... ... ... : ... .. 2 ... ... ... : ... .. . ... : ... .. 3 ... : ... .. . ... ... : ... .. 1 ... ... : ... .. 1 ... ... : ... .. 2 P7F ...
ROW 88 : ... .. . ... ... ... : ... .. 1 ... ... ... : ... .. . ... : ... .. 2 ... : ... .. . ... ... : ... .. . ... ... : ... .. . ... ... : ... .. . P7D ...
ROW 89 : ... .. . ... ... ... : ... .. . ... ... ... : --- .. . ... : ... .. 0 ... : ... .. . ... ... : ... .. . ... ... : ... .. . ... ... : ... .. . ... ...
ROW 8A : A#4 00 F ... ... ... : D#5 00 4 ... ... ... : A-1 00 . ... : 1-# 00 F ... : ... .. . ... ... : D#4 01 A ... ... : G-3 01 A ... ... : A-1 01 F P7F ...
ROW 8B : ... .. E ... ... ... : ... .. 3 ... ... ... : ... .. . ... : ... .. C ... : ... .. . ... ... : ... .. 9 ... ... : ... .. 9 ... ... : ... .. D P80 ...
ROW 8C : ... .. D ... ... ... : ... .. . ... ... ... : ... .. . ... : ... .. 6 ... : ... .. . ... ... : ... .. 8 ... ... : ... .. 8 ... ... : ... .. 8 P82 ...
ROW 8D : ... .. A ... ... ... : ... .. 2 ... ... ... : ... .. . ... : ... .. 3 ... : ... .. . ... ... : ... .. 7 ... ... : ... .. 7 ... ... : ... .. . P83 ...
ROW 8E : ... .. . ... ... ... : ... .. 1 ... ... ... : ... .. . ... : ... .. 2 ... : ... .. . ... ... : ... .. . ... ... : ... .. . ... ... : ... .. . ... ...
ROW 8F : ... .. . ... ... ... : ... .. . ... ... ... : --- .. . ... : ... .. 0 ... : ... .. . ... ... : ... .. 6 ... ... : ... .. 6 ... ... : ... .. . P80 ...
ROW 90 : D#4 00 8 ... ... ... : ... .. 8 ... ... ... : F#3 00 . ... : 9-# 00 8 ... : ... .. . ... ... : D#1 01 A ... ... : D#1 01 A ... ... : G-1 01 F P7F ...
ROW 91 : ... .. 7 ... ... ... : ... .. 7 ... ... ... : G#2 00 . ... : ... .. 6 ... : ... .. . ... ... : ... .. 9 ... ... : ... .. 9 ... ... : ... .. D P7D ...
ROW 92 : ... .. 6 ... ... ... : ... .. 6 ... ... ... : C#2 00 . ... : ... .. 3 ... : ... .. . ... ... : ... .. 8 ... ... : ... .. 8 ... ... : ... .. 8 ... ...
ROW 93 : ... .. 5 ... ... ... : ... .. 5 ... ... ... : C-2 00 . ... : ... .. 1 ... : ... .. . ... ... : ... .. 1 ... ... : ... .. 1 ... ... : ... .. 2 P7E ...
ROW 94 : ... .. . ... ... ... : ... .. 1 ... ... ... : G-1 00 . ... : ... .. . ... : ... .. . ... ... : ... .. . ... ... : ... .. . ... ... : ... .. . P80 ...
ROW 95 : ... .. . ... ... ... : ... .. . ... ... ... : ... .. . ... : ... .. 0 ... : ... .. . ... ... : ... .. . ... ... : ... .. . ... ... : ... .. . P82 ...
ROW 96 : C#4 00 8 ... ... ... : D#4 00 4 ... ... ... : A-1 00 . ... : B-# 00 F ... : ... .. . ... ... : ... .. A ... ... : ... .. A ... ... : A-1 01 F P83 ...
ROW 97 : ... .. 7 ... ... ... : ... .. 3 ... ... ... : ... .. . ... : ... .. C ... : ... .. . ... ... : ... .. 9 ... ... : ... .. 9 ... ... : ... .. D ... ...
ROW 98 : ... .. 6 ... ... ... : ... .. . ... ... ... : ... .. . ... : ... .. 6 ... : ... .. . ... ... : ... .. 8 ... ... : ... .. 8 ... ... : ... .. 8 P81 ...
ROW 99 : ... .. 5 ... ... ... : ... .. 2 ... ... ... : ... .. . ... : ... .. 3 ... : ... .. . ... ... : ... .. 1 ... ... : ... .. 1 ... ... : ... .. 2 P7F ...
ROW 9A : ... .. . ... ... ... : ... .. 1 ... ... ... : ... .. . ... : ... .. 2 ... : ... .. . ... ... : ... .. . ... ... : ... .. . ... ... : ... .. . P7D ...
ROW 9B : ... .. . ... ... ... : ... .. . ... ... ... : --- .. . ... : ... .. 0 ... : ... .. . ... ... : ... .. . ... ... : ... .. . ... ... : ... .. . ... ...
ROW 9C : A#4 00 F ... ... ... : D#5 00 F ... ... ... : A-2 00 . ... : 1-# 00 F ... : ... .. . ... ... : D#4 01 A ... ... : G-3 01 A ... ... : A-2 01 F P7E ...
ROW 9D : ... .. E ... ... ... : ... .. E ... ... ... : ... .. . ... : ... .. C ... : ... .. . ... ... : ... .. 9 ... ... : ... .. 9 ... ... : ... .. D P80 ...
ROW 9E : ... .. D ... ... ... : ... .. D ... ... ... : ... .. . ... : ... .. 6 ... : ... .. . ... ... : ... .. 8 ... ... : ... .. 8 ... ... : ... .. 8 P82 ...
ROW 9F : ... .. A ... ... ... : ... .. A ... ... ... : ... .. . ... : ... .. 3 ... : ... .. . ... ... : ... .. 7 ... ... : ... .. 7 ... ... : ... .. . P83 ...
ROW A0 : ... .. . ... ... ... : ... .. 2 ... ... ... : ... .. . ... : ... .. 2 ... : ... .. . ... ... : ... .. . ... ... : ... .. . ... ... : ... .. . ... ...
ROW A1 : ... .. . ... ... ... : ... .. . ... ... ... : --- .. . ... : ... .. 0 ... : ... .. . ... ... : ... .. 6 ... ... : ... .. 6 ... ... : ... .. . P81 ...
ROW A2 : C#4 00 8 ... ... ... : ... .. 8 ... ... ... : A#2 00 . ... : 9-# 00 8 ... : ... .. . ... ... : D#1 01 A ... ... : D#1 01 A ... ... : G-2 01 F P80 ...
ROW A3 : ... .. 7 ... ... ... : ... .. 7 ... ... ... : ... .. . ... : ... .. 6 ... : ... .. . ... ... : ... .. 9 ... ... : ... .. 9 ... ... : ... .. D P7D ...
ROW A4 : ... .. 6 ... ... ... : ... .. 6 ... ... ... : ... .. . ... : ... .. 3 ... : ... .. . ... ... : ... .. 8 ... ... : ... .. 8 ... ... : ... .. 8 ... ...
ROW A5 : ... .. 5 ... ... ... : ... .. 5 ... ... ... : ... .. . ... : ... .. 1 ... : ... .. . ... ... : ... .. 1 ... ... : ... .. 1 ... ... : ... .. 2 P7E ...
ROW A6 : ... .. . ... ... ... : ... .. 1 ... ... ... : ... .. . ... : ... .. . ... : ... .. . ... ... : ... .. . ... ... : ... .. . ... ... : ... .. . P80 ...
ROW A7 : ... .. . ... ... ... : ... .. . ... ... ... : --- .. . ... : ... .. 0 ... : ... .. . ... ... : ... .. . ... ... : ... .. . ... ... : ... .. . P81 ...
ROW A8 : B-3 00 8 ... ... ... : D#4 00 4 ... ... ... : G#4 00 . ... : B-# 00 F ... : ... .. . ... ... : ... .. A ... ... : ... .. A ... ... : F-2 01 F P83 ...
ROW A9 : ... .. 7 ... ... ... : ... .. 3 ... ... ... : A#3 00 . ... : ... .. C ... : ... .. . ... ... : ... .. 9 ... ... : ... .. 9 ... ... : ... .. D ... ...
ROW AA : ... .. 6 ... ... ... : ... .. . ... ... ... : D#3 00 . ... : ... .. 6 ... : ... .. . ... ... : ... .. 8 ... ... : ... .. 8 ... ... : ... .. 8 P81 ...
ROW AB : ... .. 5 ... ... ... : ... .. 2 ... ... ... : D-3 00 . ... : ... .. 3 ... : ... .. . ... ... : ... .. 1 ... ... : ... .. 1 ... ... : ... .. 2 P80 ...
ROW AC : ... .. . ... ... ... : ... .. 1 ... ... ... : A-2 00 . ... : ... .. 2 ... : ... .. . ... ... : ... .. . ... ... : ... .. . ... ... : ... .. . P7E ...
ROW AD : ... .. . ... ... ... : ... .. . ... ... ... : ... .. . ... : ... .. 0 ... : ... .. . ... ... : ... .. . ... ... : ... .. . ... ... : ... .. . P7D ...
ROW AE : G-3 00 8 ... ... ... : ... .. 8 ... ... ... : A-1 00 . ... : 9-# 00 8 ... : ... .. . ... ... : ... .. A ... ... : ... .. A ... ... : E-2 01 F ... ...
ROW AF : ... .. 7 ... ... ... : ... .. 7 ... ... ... : ... .. . ... : ... .. 6 ... : ... .. . ... ... : ... .. 9 ... ... : ... .. 9 ... ... : ... .. D P80 ...
ROW B0 : ... .. 6 ... ... ... : ... .. 6 ... ... ... : ... .. . ... : ... .. 3 ... : ... .. . ... ... : ... .. 8 ... ... : ... .. 8 ... ... : ... .. 8 P81 ...
ROW B1 : ... .. 5 ... ... ... : ... .. 5 ... ... ... : ... .. . ... : ... .. 1 ... : ... .. . ... ... : ... .. 1 ... ... : ... .. 1 ... ... : ... .. 2 P83 ...
ROW B2 : ... .. . ... ... ... : ... .. 1 ... ... ... : ... .. . ... : ... .. . ... : ... .. . ... ... : ... .. . ... ... : ... .. . ... ... : ... .. . ... ...
ROW B3 : ... .. . ... ... ... : ... .. . ... ... ... : --- .. . ... : ... .. 0 ... : ... .. . ... ... : ... .. . ... ... : ... .. . ... ... : ... .. . P82 ...
ROW B4 : D#3 00 F ... ... ... : D#5 00 4 ... ... ... : G-1 00 . ... : ... .. D ... : ... .. . ... ... : ... .. A ... ... : ... .. A ... ... : D#2 01 F P80 ...
ROW B5 : ... .. E ... ... ... : ... .. 3 ... ... ... : ... .. . ... : ... .. B ... : ... .. . ... ... : ... .. 9 ... ... : ... .. 9 ... ... : ... .. D P7E ...
ROW B6 : ... .. D ... ... ... : ... .. . ... ... ... : ... .. . ... : ... .. . ... : ... .. . ... ... : ... .. 8 ... ... : ... .. 8 ... ... : ... .. 8 P7D ...
ROW B7 : ... .. A ... ... ... : ... .. 2 ... ... ... : ... .. . ... : ... .. A ... : ... .. . ... ... : ... .. 1 ... ... : ... .. 1 ... ... : ... .. 2 ... ...
ROW B8 : ... .. . ... ... ... : ... .. 1 ... ... ... : ... .. . ... : ... .. 8 ... : ... .. . ... ... : ... .. . ... ... : ... .. . ... ... : ... .. . P7F ...
ROW B9 : ... .. . ... ... ... : ... .. . ... ... ... : --- .. . ... : ... .. 7 ... : ... .. . ... ... : ... .. . ... ... : ... .. . ... ... : ... .. . P81 ...
ROW BA : C#3 00 8 ... ... ... : ... .. 8 ... ... ... : A-1 00 . ... : 7-# 00 8 ... : ... .. . ... ... : ... .. A ... ... : ... .. A ... ... : C#2 01 F P83 ...
ROW BB : ... .. 7 ... ... ... : ... .. 7 ... ... ... : ... .. . ... : ... .. 6 ... : ... .. . ... ... : ... .. 9 ... ... : ... .. 9 ... ... : ... .. D ... ...
ROW BC : ... .. 6 ... ... ... : ... .. 6 ... ... ... : ... .. . ... : ... .. 3 ... : ... .. . ... ... : ... .. 8 ... ... : ... .. 8 ... ... : ... .. 8 P82 ...
ROW BD : ... .. 5 ... ... ... : ... .. 5 ... ... ... : ... .. . ... : ... .. 1 ... : ... .. . ... ... : ... .. 1 ... ... : ... .. 1 ... ... : ... .. 2 P80 ...
ROW BE : ... .. . ... ... ... : ... .. 1 ... ... ... : ... .. . ... : ... .. . ... : ... .. . ... ... : ... .. . ... ... : ... .. . ... ... : ... .. . P7E ...
ROW BF : ... .. . ... ... ... : ... .. . ... ... ... : --- .. . ... : ... .. 0 ... : ... .. . ... ... : ... .. . ... ... : ... .. . ... ... : ... .. . P7D ...
ROW C0 : A-4 00 F ... ... ... : C#5 00 F ... ... ... : G#4 00 . ... : 1-# 00 F ... : ... .. . ... ... : C#4 01 A ... ... : E-3 01 A ... ... : A-2 01 F ... ...
ROW C1 : ... .. E ... ... ... : ... .. E ... ... ... : A#3 00 . ... : ... .. C ... : ... .. . ... ... : ... .. 9 ... ... : ... .. 9 ... ... : ... .. D P7F ...
ROW C2 : ... .. D ... ... ... : ... .. D ... ... ... : D#3 00 . ... : ... .. 6 ... : ... .. . ... ... : ... .. 8 ... ... : ... .. 8 ... ... : ... .. 8 P80 ...
ROW C3 : ... .. A ... ... ... : ... .. A ... ... ... : D-3 00 . ... : ... .. 3 ... : ... .. . ... ... : ... .. 7 ... ... : ... .. 7 ... ... : ... .. . P83 ...
ROW C4 : ... .. . ... ... ... : ... .. 2 ... ... ... : A-2 00 . ... : ... .. 2 ... : ... .. . ... ... : ... .. . ... ... : ... .. . ... ... : ... .. . ... ...
ROW C5 : ... .. . ... ... ... : ... .. . ... ... ... : ... .. . ... : ... .. 0 ... : ... .. . ... ... : ... .. 6 ... ... : ... .. 6 ... ... : ... .. . P82 ...
ROW C6 : D#4 00 8 ... ... ... : ... .. 8 ... ... ... : A#2 00 . ... : 9-# 00 8 ... : ... .. . ... ... : D#1 01 A ... ... : D#1 01 A ... ... : G-2 01 F P80 ...
ROW C7 : ... .. 7 ... ... ... : ... .. 7 ... ... ... : ... .. . ... : ... .. 6 ... : ... .. . ... ... : ... .. 9 ... ... : ... .. 9 ... ... : ... .. D P7F ...
ROW C8 : ... .. 6 ... ... ... : ... .. 6 ... ... ... : ... .. . ... : ... .. 3 ... : ... .. . ... ... : ... .. 8 ... ... : ... .. 8 ... ... : ... .. 8 P7D ...
ROW C9 : ... .. 5 ... ... ... : ... .. 5 ... ... ... : ... .. . ... : ... .. 1 ... : ... .. . ... ... : ... .. 1 ... ... : ... .. 1 ... ... : ... .. 2 ... ...
ROW CA : ... .. . ... ... ... : ... .. 1 ... ... ... : ... .. . ... : ... .. . ... : ... .. . ... ... : ... .. . ... ... : ... .. . ... ... : ... .. . P7F ...
ROW CB : ... .. . ... ... ... : ... .. . ... ... ... : --- .. . ... : ... .. 0 ... : ... .. . ... ... : ... .. . ... ... : ... .. . ... ... : ... .. . P80 ...
ROW CC : C#4 00 8 ... ... ... : C#4 00 4 ... ... ... : A-2 00 . ... : B-# 00 F ... : ... .. . ... ... : ... .. A ... ... : ... .. A ... ... : A-2 01 F P82 ...
ROW CD : ... .. 7 ... ... ... : ... .. 3 ... ... ... : ... .. . ... : ... .. C ... : ... .. . ... ... : ... .. 9 ... ... : ... .. 9 ... ... : ... .. D P83 ...
ROW CE : ... .. 6 ... ... ... : ... .. . ... ... ... : ... .. . ... : ... .. 6 ... : ... .. . ... ... : ... .. 8 ... ... : ... .. 8 ... ... : ... .. 8 ... ...
ROW CF : ... .. 5 ... ... ... : ... .. 2 ... ... ... : ... .. . ... : ... .. 3 ... : ... .. . ... ... : ... .. 1 ... ... : ... .. 1 ... ... : ... .. 2 P80 ...
ROW D0 : ... .. . ... ... ... : ... .. 1 ... ... ... : ... .. . ... : ... .. 2 ... : ... .. . ... ... : ... .. . ... ... : ... .. . ... ... : ... .. . P7F ...
ROW D1 : ... .. . ... ... ... : ... .. . ... ... ... : --- .. . ... : ... .. 0 ... : ... .. . ... ... : ... .. . ... ... : ... .. . ... ... : ... .. . P7D ...
ROW D2 : A-4 00 F ... ... ... : C#5 00 F ... ... ... : A-1 00 . ... : 1-# 00 F ... : ... .. . ... ... : C#4 01 A ... ... : E-3 01 A ... ... : A-1 01 F ... ...
ROW D3 : ... .. E ... ... ... : ... .. E ... ... ... : ... .. . ... : ... .. C ... : ... .. . ... ... : ... .. 9 ... ... : ... .. 9 ... ... : ... .. D P7E ...
ROW D4 : ... .. D ... ... ... : ... .. D ... ... ... : ... .. . ... : ... .. 6 ... : ... .. . ... ... : ... .. 8 ... ... : ... .. 8 ... ... : ... .. 8 P80 ...
ROW D5 : ... .. A ... ... ... : ... .. A ... ... ... : ... .. . ... : ... .. 3 ... : ... .. . ... ... : ... .. 7 ... ... : ... .. 7 ... ... : ... .. . P82 ...
ROW D6 : ... .. . ... ... ... : ... .. 2 ... ... ... : ... .. . ... : ... .. 2 ... : ... .. . ... ... : ... .. . ... ... : ... .. . ... ... : ... .. . P83 ...
ROW D7 : ... .. . ... ... ... : ... .. . ... ... ... : --- .. . ... : ... .. 0 ... : ... .. . ... ... : ... .. 6 ... ... : ... .. 6 ... ... : ... .. . ... ...
ROW D8 : D#4 00 8 ... ... ... : ... .. 8 ... ... ... : F#3 00 . ... : 9-# 00 8 ... : ... .. . ... ... : D#1 01 A ... ... : D#1 01 A ... ... : G-1 01 F P81 ...
ROW D9 : ... .. 7 ... ... ... : ... .. 7 ... ... ... : G#2 00 . ... : ... .. 6 ... : ... .. . ... ... : ... .. 9 ... ... : ... .. 9 ... ... : ... .. D P7F ...
ROW DA : ... .. 6 ... ... ... : ... .. 6 ... ... ... : C#2 00 . ... : ... .. 3 ... : ... .. . ... ... : ... .. 8 ... ... : ... .. 8 ... ... : ... .. 8 P7D ...
ROW DB : ... .. 5 ... ... ... : ... .. 5 ... ... ... : C-2 00 . ... : ... .. 1 ... : ... .. . ... ... : ... .. 1 ... ... : ... .. 1 ... ... : ... .. 2 ... ...
ROW DC : ... .. . ... ... ... : ... .. 1 ... ... ... : G-1 00 . ... : ... .. . ... : ... .. . ... ... : ... .. . ... ... : ... .. . ... ... : ... .. . P7E ...
ROW DD : ... .. . ... ... ... : ... .. . ... ... ... : ... .. . ... : ... .. 0 ... : ... .. . ... ... : ... .. . ... ... : ... .. . ... ... : ... .. . P80 ...
ROW DE : C#4 00 8 ... ... ... : C#4 00 4 ... ... ... : A-1 00 . ... : B-# 00 F ... : ... .. . ... ... : ... .. A ... ... : ... .. A ... ... : A-1 01 F P82 ...
ROW DF : ... .. 7 ... ... ... : ... .. 3 ... ... ... : ... .. . ... : ... .. C ... : ... .. . ... ... : ... .. 9 ... ... : ... .. 9 ... ... : ... .. D P83 ...
ROW E0 : ... .. 6 ... ... ... : ... .. . ... ... ... : ... .. . ... : ... .. 6 ... : ... .. . ... ... : ... .. 8 ... ... : ... .. 8 ... ... : ... .. 8 ... ...
ROW E1 : ... .. 5 ... ... ... : ... .. 2 ... ... ... : ... .. . ... : ... .. 3 ... : ... .. . ... ... : ... .. 1 ... ... : ... .. 1 ... ... : ... .. 2 P81 ...
ROW E2 : ... .. . ... ... ... : ... .. 1 ... ... ... : ... .. . ... : ... .. 2 ... : ... .. . ... ... : ... .. . ... ... : ... .. . ... ... : ... .. . P80 ...
ROW E3 : ... .. . ... ... ... : ... .. . ... ... ... : --- .. . ... : ... .. 0 ... : ... .. . ... ... : ... .. . ... ... : ... .. . ... ... : ... .. . P7D ...
ROW E4 : A-4 00 F ... ... ... : C#5 00 F ... ... ... : A-2 00 . ... : 1-# 00 F ... : ... .. . ... ... : C#4 01 A ... ... : E-3 01 A ... ... : A-2 01 F ... ...
ROW E5 : ... .. E ... ... ... : ... .. E ... ... ... : ... .. . ... : ... .. C ... : ... .. . ... ... : ... .. 9 ... ... : ... .. 9 ... ... : ... .. D P7E ...
ROW E6 : ... .. D ... ... ... : ... .. D ... ... ... : ... .. . ... : ... .. 6 ... : ... .. . ... ... : ... .. 8 ... ... : ... .. 8 ... ... : ... .. 8 P80 ...
ROW E7 : ... .. A ... ... ... : ... .. A ... ... ... : ... .. . ... : ... .. 3 ... : ... .. . ... ... : ... .. 7 ... ... : ... .. 7 ... ... : ... .. . P81 ...
ROW E8 : ... .. . ... ... ... : ... .. 2 ... ... ... : ... .. . ... : ... .. 2 ... : ... .. . ... ... : ... .. . ... ... : ... .. . ... ... : ... .. . P83 ...
ROW E9 : ... .. . ... ... ... : ... .. . ... ... ... : --- .. . ... : ... .. 0 ... : ... .. . ... ... : ... .. 6 ... ... : ... .. 6 ... ... : ... .. . ... ...
ROW EA : C#4 00 8 ... ... ... : ... .. 8 ... ... ... : A#2 00 . ... : 9-# 00 8 ... : ... .. . ... ... : D#1 01 A ... ... : D#1 01 A ... ... : G-2 01 F P81 ...
ROW EB : ... .. 7 ... ... ... : ... .. 7 ... ... ... : ... .. . ... : ... .. 6 ... : ... .. . ... ... : ... .. 9 ... ... : ... .. 9 ... ... : ... .. D P80 ...
ROW EC : ... .. 6 ... ... ... : ... .. 6 ... ... ... : ... .. . ... : ... .. 3 ... : ... .. . ... ... : ... .. 8 ... ... : ... .. 8 ... ... : ... .. 8 P7E ...
ROW ED : ... .. 5 ... ... ... : ... .. 5 ... ... ... : ... .. . ... : ... .. 1 ... : ... .. . ... ... : ... .. 1 ... ... : ... .. 1 ... ... : ... .. 2 P7D ...
ROW EE : ... .. . ... ... ... : ... .. 1 ... ... ... : ... .. . ... : ... .. . ... : ... .. . ... ... : ... .. . ... ... : ... .. . ... ... : ... .. . ... ...
ROW EF : ... .. . ... ... ... : ... .. . ... ... ... : --- .. . ... : ... .. 0 ... : ... .. . ... ... : ... .. . ... ... : ... .. . ... ... : ... .. . P80 ...
ROW F0 : B-3 00 8 ... ... ... : C#4 00 4 ... ... ... : G#4 00 . ... : B-# 00 F ... : ... .. . ... ... : ... .. A ... ... : ... .. A ... ... : A-2 01 F P81 ...
ROW F1 : ... .. 7 ... ... ... : ... .. 3 ... ... ... : A#3 00 . ... : ... .. C ... : ... .. . ... ... : ... .. 9 ... ... : ... .. 9 ... ... : ... .. D P83 ...
ROW F2 : ... .. 6 ... ... ... : ... .. . ... ... ... : D#3 00 . ... : ... .. 6 ... : ... .. . ... ... : ... .. 8 ... ... : ... .. 8 ... ... : ... .. 8 ... ...
ROW F3 : ... .. 5 ... ... ... : ... .. 2 ... ... ... : D-3 00 . ... : ... .. 3 ... : ... .. . ... ... : ... .. 1 ... ... : ... .. 1 ... ... : ... .. 2 P82 ...
ROW F4 : ... .. . ... ... ... : ... .. 1 ... ... ... : A-2 00 . ... : ... .. 2 ... : ... .. . ... ... : ... .. . ... ... : ... .. . ... ... : ... .. . P80 ...
ROW F5 : ... .. . ... ... ... : ... .. . ... ... ... : ... .. . ... : ... .. 0 ... : ... .. . ... ... : ... .. . ... ... : ... .. . ... ... : ... .. . P7E ...
ROW F6 : G-3 00 8 ... ... ... : ... .. 8 ... ... ... : A-1 00 . ... : 9-# 00 8 ... : ... .. . ... ... : ... .. A ... ... : ... .. A ... ... : A-1 01 F P7D ...
ROW F7 : ... .. 7 ... ... ... : ... .. 7 ... ... ... : ... .. . ... : ... .. 6 ... : ... .. . ... ... : ... .. 9 ... ... : ... .. 9 ... ... : ... .. D ... ...
ROW F8 : ... .. 6 ... ... ... : ... .. 6 ... ... ... : ... .. . ... : ... .. 3 ... : ... .. . ... ... : ... .. 8 ... ... : ... .. 8 ... ... : ... .. 8 P7F ...
ROW F9 : ... .. 5 ... ... ... : ... .. 5 ... ... ... : ... .. . ... : ... .. 1 ... : ... .. . ... ... : ... .. 1 ... ... : ... .. 1 ... ... : ... .. 2 P81 ...
ROW FA : ... .. . ... ... ... : ... .. 1 ... ... ... : ... .. . ... : ... .. . ... : ... .. . ... ... : ... .. . ... ... : ... .. . ... ... : ... .. . P83 ...
ROW FB : ... .. . ... ... ... : ... .. . ... ... ... : --- .. . ... : ... .. 0 ... : ... .. . ... ... : ... .. . ... ... : ... .. . ... ... : ... .. . ... ...
ROW FC : D#3 00 F ... ... ... : ... .. 4 ... ... ... : G-1 00 . ... : ... .. D ... : ... .. . ... ... : ... .. A ... ... : ... .. A ... ... : G-1 01 F P82 ...
ROW FD : ... .. E ... ... ... : ... .. 3 ... ... ... : ... .. . ... : ... .. B ... : ... .. . ... ... : ... .. 9 ... ... : ... .. 9 ... ... : ... .. D P80 ...
ROW FE : ... .. D ... ... ... : ... .. . ... ... ... : ... .. . ... : ... .. . ... : ... .. . ... ... : ... .. 8 ... ... : ... .. 8 ... ... : ... .. 8 P7E ...
ROW FF : ... .. A ... ... ... : ... .. 2 ... ... ... : ... .. . ... : ... .. A ... : ... .. . ... ... : ... .. 1 ... ... : ... .. 1 ... ... : ... .. 2 P7D ...

PATTERN 07
ROW 00 : ... .. . ... ... ... : ... .. 1 ... ... ... : ... .. . ... : ... .. 8 ... : ... .. . ... ... : ... .. . ... ... : ... .. . ... ... : ... .. . ... ...
ROW 01 : ... .. . ... ... ... : ... .. . ... ... ... : --- .. . ... : ... .. 7 ... : ... .. . ... ... : ... .. . ... ... : ... .. . ... ... : ... .. . P7F ...
ROW 02 : C#3 00 8 ... ... ... : ... .. F ... V00 ... : A-1 00 . ... : 7-# 00 8 ... : ... .. . ... ... : ... .. A ... ... : ... .. A ... ... : A-1 01 F P80 ...
ROW 03 : ... .. 7 ... ... ... : ... .. E ... ... ... : ... .. . ... : ... .. 6 ... : ... .. . ... ... : ... .. 9 ... ... : ... .. 9 ... ... : ... .. D P83 ...
ROW 04 : ... .. 6 ... ... ... : ... .. D ... ... ... : ... .. . ... : ... .. 3 ... : ... .. . ... ... : ... .. 8 ... ... : ... .. 8 ... ... : ... .. 8 ... ...
ROW 05 : ... .. 5 ... ... ... : ... .. A ... ... ... : ... .. . ... : ... .. 1 ... : ... .. . ... ... : ... .. 1 ... ... : ... .. 1 ... ... : ... .. 2 P82 ...
ROW 06 : ... .. . ... ... ... : ... .. 2 ... ... ... : ... .. . ... : ... .. . ... : ... .. . ... ... : ... .. . ... ... : ... .. . ... ... : ... .. . P80 ...
ROW 07 : ... .. . ... ... ... : ... .. . ... ... ... : --- .. . ... : ... .. 0 ... : ... .. . ... ... : ... .. . ... ... : ... .. . ... ... : ... .. . P7F ...
ROW 08 : A#4 00 F ... ... ... : A#5 00 F P81 ... ... : G#4 00 . ... : 1-# 00 F ... : ... .. . ... ... : D#4 01 A ... ... : G-3 01 A ... ... : A-2 01 F P7D ...
ROW 09 : ... .. E ... ... ... : ... .. E ... ... ... : A#3 00 . ... : ... .. C ... : ... .. . ... ... : ... .. 9 ... ... : ... .. 9 ... ... : ... .. D ... ...
ROW 0A : ... .. D ... ... ... : ... .. D ... ... ... : D#3 00 . ... : ... .. 6 ... : ... .. . ... ... : ... .. 8 ... ... : ... .. 8 ... ... : ... .. 8 P7F ...
ROW 0B : ... .. A ... ... ... : ... .. 0 ... ... ... : D-3 00 . ... : ... .. 3 ... : ... .. . ... ... : ... .. 7 ... ... : ... .. 7 ... ... : ... .. . P80 ...
ROW 0C : ... .. . ... ... ... : ... .. . ... ... ... : A-2 00 . ... : ... .. 2 ... : ... .. . ... ... : ... .. . ... ... : ... .. . ... ... : ... .. . P82 ...
ROW 0D : ... .. . ... ... ... : ... .. . ... ... ... : ... .. . ... : ... .. 0 ... : ... .. . ... ... : ... .. 6 ... ... : ... .. 6 ... ... : ... .. . P83 ...
ROW 0E : D#4 00 8 ... ... ... : A-3 00 F P81 ... ... : A#2 00 . ... : 9-# 00 8 ... : ... .. . ... ... : D#1 01 A ... ... : D#1 01 A ... ... : G-2 01 F ... ...
ROW 0F : ... .. 7 ... ... ... : ... .. E ... ... ... : ... .. . ... : ... .. 6 ... : ... .. . ... ... : ... .. 9 ... ... : ... .. 9 ... ... : ... .. D P80 ...
ROW 10 : ... .. 6 ... ... ... : ... .. D ... ... ... : ... .. . ... : ... .. 3 ... : ... .. . ... ... : ... .. 8 ... ... : ... .. 8 ... ... : ... .. 8 P7F ...
ROW 11 : ... .. 5 ... ... ... : ... .. 0 ... ... ... : ... .. . ... : ... .. 1 ... : ... .. . ... ... : ... .. 1 ... ... : ... .. 1 ... ... : ... .. 2 P7D ...
ROW 12 : ... .. . ... ... ... : ... .. . ... ... ... : ... .. . ... : ... .. . ... : ... .. . ... ... : ... .. . ... ... : ... .. . ... ... : ... .. . ... ...
ROW 13 : ... .. . ... ... ... : ... .. . ... ... ... : --- .. . ... : ... .. 0 ... : ... .. . ... ... : ... .. . ... ... : ... .. . ... ... : ... .. . P7E ...
ROW 14 : C#4 00 8 ... ... ... : A-3 00 F P81 ... ... : A-2 00 . ... : B-# 00 F ... : ... .. . ... ... : ... .. A ... ... : ... .. A ... ... : A-2 01 F P80 ...
ROW 15 : ... .. 7 ... ... ... : ... .. E ... ... ... : ... .. . ... : ... .. C ... : ... .. . ... ... : ... .. 9 ... ... : ... .. 9 ... ... : ... .. D P82 ...
ROW 16 : ... .. 6 ... ... ... : ... .. D ... ... ... : ... .. . ... : ... .. 6 ... : ... .. . ... ... : ... .. 8 ... ... : ... .. 8 ... ... : ... .. 8 P83 ...
ROW 17 : ... .. 5 ... ... ... : ... .. A ... ... ... : ... .. . ... : ... .. 3 ... : ... .. . ... ... : ... .. 1 ... ... : ... .. 1 ... ... : ... .. 2 ... ...
ROW 18 : ... .. . ... ... ... : ... .. . ... ... ... : ... .. . ... : ... .. 2 ... : ... .. . ... ... : ... .. . ... ... : ... .. . ... ... : ... .. . P81 ...
ROW 19 : ... .. . ... ... ... : ... .. . ... ... ... : --- .. . ... : ... .. 0 ... : ... .. . ... ... : ... .. . ... ... : ... .. . ... ... : ... .. . P7F ...
ROW 1A : A#4 00 F ... ... ... : A#4 00 F ... ... ... : A-1 00 . ... : 1-# 00 F ... : ... .. . ... ... : D#4 01 A ... ... : G-3 01 A ... ... : A-1 01 F P7D ...
ROW 1B : ... .. E ... ... ... : ... .. E ... ... ... : ... .. . ... : ... .. C ... : ... .. . ... ... : ... .. 9 ... ... : ... .. 9 ... ... : ... .. D ... ...
ROW 1C : ... .. D ... ... ... : ... .. D ... ... ... : ... .. . ... : ... .. 6 ... : ... .. . ... ... : ... .. 8 ... ... : ... .. 8 ... ... : ... .. 8 P7E ...
ROW 1D : ... .. A ... ... ... : ... .. 0 ... ... ... : ... .. . ... : ... .. 3 ... : ... .. . ... ... : ... .. 7 ... ... : ... .. 7 ... ... : ... .. . P80 ...
ROW 1E : ... .. . ... ... ... : ... .. . ... ... ... : ... .. . ... : ... .. 2 ... : ... .. . ... ... : ... .. . ... ... : ... .. . ... ... : ... .. . P82 ...
ROW 1F : ... .. . ... ... ... : ... .. . ... ... ... : --- .. . ... : ... .. 0 ... : ... .. . ... ... : ... .. 6 ... ... : ... .. 6 ... ... : ... .. . P83 ...
ROW 20 : D#4 00 8 ... ... ... : A-3 00 F P81 ... ... : F#3 00 . ... : 9-# 00 8 ... : ... .. . ... ... : D#1 01 A ... ... : D#1 01 A ... ... : G-1 01 F ... ...
ROW 21 : ... .. 7 ... ... ... : ... .. E ... ... ... : G#2 00 . ... : ... .. 6 ... : ... .. . ... ... : ... .. 9 ... ... : ... .. 9 ... ... : ... .. D P81 ...
ROW 22 : ... .. 6 ... ... ... : ... .. D ... ... ... : C#2 00 . ... : ... .. 3 ... : ... .. . ... ... : ... .. 8 ... ... : ... .. 8 ... ... : ... .. 8 P80 ...
ROW 23 : ... .. 5 ... ... ... : ... .. 0 ... ... ... : C-2 00 . ... : ... .. 1 ... : ... .. . ... ... : ... .. 1 ... ... : ... .. 1 ... ... : ... .. 2 P7D ...
ROW 24 : ... .. . ... ... ... : ... .. . ... ... ... : G-1 00 . ... : ... .. . ... : ... .. . ... ... : ... .. . ... ... : ... .. . ... ... : ... .. . ... ...
ROW 25 : ... .. . ... ... ... : ... .. . ... ... ... : ... .. . ... : ... .. 0 ... : ... .. . ... ... : ... .. . ... ... : ... .. . ... ... : ... .. . P7E ...
ROW 26 : C#4 00 8 ... ... ... : A-3 00 F P81 ... ... : A-1 00 . ... : B-# 00 F ... : ... .. . ... ... : ... .. A ... ... : ... .. A ... ... : A-1 01 F P80 ...
ROW 27 : ... .. 7 ... ... ... : ... .. E ... ... ... : ... .. . ... : ... .. C ... : ... .. . ... ... : ... .. 9 ... ... : ... .. 9 ... ... : ... .. D P81 ...
ROW 28 : ... .. 6 ... ... ... : ... .. D ... ... ... : ... .. . ... : ... .. 6 ... : ... .. . ... ... : ... .. 8 ... ... : ... .. 8 ... ... : ... .. 8 P83 ...
ROW 29 : ... .. 5 ... ... ... : ... .. A ... ... ... : ... .. . ... : ... .. 3 ... : ... .. . ... ... : ... .. 1 ... ... : ... .. 1 ... ... : ... .. 2 ... ...
ROW 2A : ... .. . ... ... ... : ... .. . ... ... ... : ... .. . ... : ... .. 2 ... : ... .. . ... ... : ... .. . ... ... : ... .. . ... ... : ... .. . P81 ...
ROW 2B : ... .. . ... ... ... : ... .. . ... ... ... : --- .. . ... : ... .. 0 ... : ... .. . ... ... : ... .. . ... ... : ... .. . ... ... : ... .. . P80 ...
ROW 2C : A#4 00 F ... ... ... : A#5 00 F ... ... ... : G#4 00 . ... : 9-# 00 D ... : ... .. . ... ... : D#4 01 A ... ... : G-3 01 A ... ... : A-2 01 F P7E ...
ROW 2D : ... .. E ... ... ... : ... .. E ... ... ... : A#3 00 . ... : ... .. B ... : ... .. . ... ... : ... .. 9 ... ... : ... .. 9 ... ... : ... .. D P7D ...
ROW 2E : ... .. D ... ... ... : ... .. D ... ... ... : D#3 00 . ... : ... .. . ... : ... .. . ... ... : ... .. 8 ... ... : ... .. 8 ... ... : ... .. 8 ... ...
ROW 2F : ... .. A ... ... ... : ... .. 0 ... ... ... : D-3 00 . ... : ... .. A ... : ... .. . ... ... : ... .. 7 ... ... : ... .. 7 ... ... : ... .. . P80 ...
ROW 30 : ... .. . ... ... ... : ... .. . ... ... ... : A-2 00 . ... : ... .. 8 ... : ... .. . ... ... : ... .. . ... ... : ... .. . ... ... : ... .. . P81 ...
ROW 31 : ... .. . ... ... ... : ... .. . ... ... ... : ... .. . ... : ... .. 7 ... : ... .. . ... ... : ... .. 6 ... ... : ... .. 6 ... ... : ... .. . P83 ...
ROW 32 : C#4 00 8 ... ... ... : A-3 00 F P81 ... ... : ... .. . ... : ... .. D ... : ... .. . ... ... : D#1 01 A ... ... : D#1 01 A ... ... : G-2 01 F ... ...
ROW 33 : ... .. 7 ... ... ... : ... .. E ... ... ... : ... .. . ... : ... .. B ... : ... .. . ... ... : ... .. 9 ... ... : ... .. 9 ... ... : ... .. D P82 ...
ROW 34 : ... .. 6 ... ... ... : ... .. D ... ... ... : ... .. . ... : ... .. . ... : ... .. . ... ... : ... .. 8 ... ... : ... .. 8 ... ... : ... .. 8 P80 ...
ROW 35 : ... .. 5 ... ... ... : ... .. 0 ... ... ... : ... .. . ... : ... .. A ... : ... .. . ... ... : ... .. 1 ... ... : ... .. 1 ... ... : ... .. 2 P7E ...
ROW 36 : ... .. . ... ... ... : ... .. . ... ... ... : ... .. . ... : ... .. 8 ... : ... .. . ... ... : ... .. . ... ... : ... .. . ... ... : ... .. . P7D ...
ROW 37 : ... .. . ... ... ... : ... .. . ... ... ... : ... .. . ... : ... .. 7 ... : ... .. . ... ... : ... .. . ... ... : ... .. . ... ... : ... .. . ... ...
ROW 38 : B-3 00 8 ... ... ... : A-3 00 D P81 ... ... : G#2 00 . P7F : 8-# 00 D ... : ... .. . ... ... : ... .. A ... ... : ... .. A ... ... : F-2 01 F P7F ...
ROW 39 : ... .. 7 ... ... ... : ... .. C ... ... ... : G-2 00 . ... : ... .. B ... : ... .. . ... ... : ... .. 9 ... ... : ... .. 9 ... ... : ... .. D P81 ...
ROW 3A : ... .. 6 ... ... ... : ... .. B ... ... ... : F#2 00 . P81 : ... .. . ... : ... .. . ... ... : ... .. 8 ... ... : ... .. 8 ... ... : ... .. 8 P83 ...
ROW 3B : ... .. 5 ... ... ... : ... .. 8 ... ... ... : F-2 00 . P85 : ... .. A ... : ... .. . ... ... : ... .. 1 ... ... : ... .. 1 ... ... : ... .. 2 ... ...
ROW 3C : ... .. . ... ... ... : ... .. . ... ... ... : E-2 00 . P8B : ... .. 8 ... : ... .. . ... ... : ... .. . ... ... : ... .. . ... ... : ... .. . P82 ...
ROW 3D : ... .. . ... ... ... : ... .. . ... ... ... : D#2 00 . P93 : ... .. 7 ... : ... .. . ... ... : ... .. . ... ... : ... .. . ... ... : ... .. . P80 ...
ROW 3E : G-3 00 8 ... ... ... : A-2 00 B ... ... ... : ... .. . P73 : ... .. D ... : ... .. . ... ... : ... .. A ... ... : ... .. A ... ... : E-2 01 F P7E ...
ROW 3F : ... .. 7 ... ... ... : ... .. A ... ... ... : D-2 00 . P7E : ... .. B ... : ... .. . ... ... : ... .. 9 ... ... : ... .. 9 ... ... : ... .. D P7D ...
ROW 40 : ... .. 6 ... ... ... : ... .. 9 ... ... ... : C#2 00 . P8B : ... .. . ... : ... .. . ... ... : ... .. 8 ... ... : ... .. 8 ... ... : ... .. 8 ... ...
ROW 41 : ... .. 5 ... ... ... : ... .. 7 ... ... ... : ... .. . P6B : ... .. A ... : ... .. . ... ... : ... .. 1 ... ... : ... .. 1 ... ... : ... .. 2 P7F ...
ROW 42 : ... .. . ... ... ... : ... .. . ... ... ... : C-2 00 . P7B : ... .. 8 ... : ... .. . ... ... : ... .. . ... ... : ... .. . ... ... : ... .. . P80 ...
ROW 43 : ... .. . ... ... ... : ... .. . ... ... ... : B-1 00 . P8E : ... .. 7 ... : ... .. . ... ... : ... .. . ... ... : ... .. . ... ... : ... .. . P83 ...
ROW 44 : D#3 00 F ... ... ... : ... .. A ... ... ... : ... .. . P6E : 6-# 00 D ... : ... .. . ... ... : ... .. A ... ... : ... .. A ... ... : D#2 01 F ... ...
ROW 45 : ... .. E ... ... ... : ... .. 9 ... ... ... : A#1 00 . P84 : ... .. B ... : ... .. . ... ... : ... .. 9 ... ... : ... .. 9 ... ... : ... .. D P82 ...
ROW 46 : ... .. D ... ... ... : ... .. 8 ... ... ... : ... .. . P64 : ... .. . ... : ... .. . ... ... : ... .. 8 ... ... : ... .. 8 ... ... : ... .. 8 P80 ...
ROW 47 : ... .. A ... ... ... : ... .. 6 ... ... ... : A-1 00 . P7D : ... .. A ... : ... .. . ... ... : ... .. 1 ... ... : ... .. 1 ... ... : ... .. 2 P7F ...
ROW 48 : ... .. . ... ... ... : ... .. . ... ... ... : G#1 00 . P99 : ... .. 8 ... : ... .. . ... ... : ... .. . ... ... : ... .. . ... ... : ... .. . P7D ...
ROW 49 : ... .. . ... ... ... : ... .. . ... ... ... : ... .. . P79 : ... .. 7 ... : ... .. . ... ... : ... .. . ... ... : ... .. . ... ... : ... .. . ... ...
ROW 4A : C#3 00 8 ... ... ... : A-1 00 8 ... ... ... : G-1 00 . P99 : 3-# 00 D ... : ... .. . ... ... : ... .. A ... ... : ... .. A ... ... : C#2 01 F P7F ...
ROW 4B : ... .. 7 ... ... ... : ... .. 7 ... ... ... : ... .. . P79 : ... .. B ... : ... .. . ... ... : ... .. 9 ... ... : ... .. 9 ... ... : ... .. D P80 ...
ROW 4C : ... .. 6 ... ... ... : ... .. 6 ... ... ... : F#1 00 . P9D : ... .. . ... : ... .. . ... ... : ... .. 8 ... ... : ... .. 8 ... ... : ... .. 8 P82 ...
ROW 4D : ... .. 5 ... ... ... : ... .. 5 ... ... ... : ... .. . P7D : ... .. A ... : ... .. . ... ... : ... .. 1 ... ... : ... .. 1 ... ... : ... .. 2 P83 ...
ROW 4E : ... .. . ... ... ... : ... .. . ... ... ... : ... .. . P5D : ... .. 8 ... : ... .. . ... ... : ... .. . ... ... : ... .. . ... ... : ... .. . ... ...
ROW 4F : ... .. . ... ... ... : ... .. . ... ... ... : F-1 00 . P85 : ... .. 7 ... : ... .. . ... ... : ... .. . ... ... : ... .. . ... ... : ... .. . P80 ...
ROW 50 : A-2 00 F ... ... ... : E-3 00 F ... ... ... : G#3 00 . P80 : C-# 00 E ... : ... .. . ... ... : A-3 01 6 ... ... : A-4 01 6 P81 ... : A-1 01 F P7F ...
ROW 51 : ... .. E ... ... ... : ... .. E ... ... ... : A#2 00 . ... : ... .. D ... : ... .. . ... ... : ... .. . ... ... : ... .. . ... ... : ... .. D P7D ...
ROW 52 : ... .. D ... ... ... : ... .. D ... ... ... : D#2 00 . ... : ... .. . ... : ... .. . ... ... : ... .. 5 ... ... : ... .. 5 ... ... : ... .. 8 ... ...
ROW 53 : ... .. 2 ... ... ... : ... .. 2 ... ... ... : D-2 00 . ... : ... .. C ... : ... .. . ... ... : ... .. 4 ... ... : ... .. 4 ... ... : ... .. . P7E ...
ROW 54 : ... .. . ... ... ... : ... .. . ... ... ... : A-1 00 . ... : ... .. B ... : ... .. . ... ... : ... .. . ... ... : ... .. . ... ... : ... .. . P80 ...
ROW 55 : ... .. . ... ... ... : ... .. . ... ... ... : ... .. . ... : ... .. . ... : ... .. . ... ... : ... .. . ... ... : ... .. . ... ... : --- .. . P7F ...
ROW 56 : ... .. F ... ... ... : ... .. F ... ... ... : ... .. . ... : ... .. A ... : ... .. . ... ... : A#3 01 6 ... ... : A#4 01 6 ... ... : A-1 01 F P83 ...
ROW 57 : ... .. E ... ... ... : ... .. E ... ... ... : ... .. . ... : ... .. . ... : ... .. . ... ... : ... .. . ... ... : ... .. . ... ... : ... .. D ... ...
ROW 58 : ... .. D ... ... ... : ... .. D ... ... ... : ... .. . ... : ... .. 9 ... : ... .. . ... ... : ... .. 5 ... ... : ... .. 5 ... ... : ... .. 8 P81 ...
ROW 59 : ... .. 2 ... ... ... : ... .. 2 ... ... ... : ... .. . ... : ... .. 8 ... : ... .. . ... ... : ... .. 4 ... ... : ... .. 4 ... ... : ... .. . P7F ...
ROW 5A : ... .. . ... ... ... : ... .. . ... ... ... : ... .. . ... : ... .. . ... : ... .. . ... ... : ... .. . ... ... : ... .. . ... ... : ... .. . P7D ...
ROW 5B : ... .. . ... ... ... : ... .. . ... ... ... : --- .. . ... : ... .. 7 ... : ... .. . ... ... : ... .. . ... ... : ... .. . ... ... : --- .. . P84 ...
ROW 5C : G-2 00 F ... ... ... : D-3 00 F ... ... ... : A-1 00 . ... : ... .. 6 ... : ... .. . ... ... : A-3 01 6 ... ... : A-4 01 6 ... ... : A-1 01 F P7E ...
ROW 5D : ... .. E ... ... ... : ... .. E ... ... ... : ... .. . ... : ... .. . ... : ... .. . ... ... : ... .. . ... ... : ... .. . ... ... : ... .. D P80 ...
ROW 5E : ... .. D ... ... ... : ... .. D ... ... ... : ... .. . ... : ... .. 5 ... : ... .. . ... ... : ... .. 5 ... ... : ... .. 5 ... ... : ... .. 8 P82 ...
ROW 5F : ... .. A ... ... ... : ... .. A ... ... ... : ... .. . ... : ... .. . ... : ... .. . ... ... : ... .. 4 ... ... : ... .. 4 ... ... : ... .. . P83 ...
ROW 60 : ... .. . ... ... ... : ... .. . ... ... ... : ... .. . ... : ... .. 4 ... : ... .. . ... ... : ... .. . ... ... : ... .. . ... ... : ... .. . ... ...
ROW 61 : ... .. . ... ... ... : ... .. . ... ... ... : --- .. . ... : ... .. 3 ... : ... .. . ... ... : ... .. . ... ... : ... .. . ... ... : --- .. . P82 ...
ROW 62 : A-2 00 F ... ... ... : E-3 00 F ... ... ... : A-1 00 . ... : 1-# 00 F ... : ... .. . ... ... : E-3 01 6 ... ... : E-4 01 6 ... ... : A-1 01 F P80 ...
ROW 63 : ... .. E ... ... ... : ... .. E ... ... ... : ... .. . ... : ... .. C ... : ... .. . ... ... : ... .. . ... ... : ... .. . ... ... : ... .. D P7D ...
ROW 64 : ... .. D ... ... ... : ... .. D ... ... ... : ... .. . ... : ... .. 6 ... : ... .. . ... ... : ... .. 5 ... ... : ... .. 5 ... ... : ... .. 8 ... ...
ROW 65 : ... .. 2 ... ... ... : ... .. 2 ... ... ... : ... .. . ... : ... .. 3 ... : ... .. . ... ... : ... .. 4 ... ... : ... .. 4 ... ... : ... .. . P7E ...
ROW 66 : ... .. . ... ... ... : ... .. . ... ... ... : ... .. . ... : ... .. 2 ... : ... .. . ... ... : ... .. . ... ... : ... .. . ... ... : ... .. . P80 ...
ROW 67 : ... .. . ... ... ... : ... .. . ... ... ... : --- .. . ... : ... .. 0 ... : ... .. . ... ... : ... .. . ... ... : ... .. . ... ... : --- .. . P7F ...
ROW 68 : A#2 00 F ... ... ... : F-3 00 F ... ... ... : F#4 00 . ... : 5-# 00 F ... : ... .. . ... ... : D#3 01 6 ... ... : D#4 01 6 ... ... : G-2 01 F P83 ...
ROW 69 : ... .. E ... ... ... : ... .. E ... ... ... : G#3 00 . ... : ... .. C ... : ... .. . ... ... : ... .. . ... ... : ... .. . ... ... : ... .. D ... ...
ROW 6A : ... .. D ... ... ... : ... .. D ... ... ... : C#3 00 . ... : ... .. 6 ... : ... .. . ... ... : ... .. 5 ... ... : ... .. 5 ... ... : ... .. 8 P81 ...
ROW 6B : ... .. A ... ... ... : ... .. A ... ... ... : C-3 00 . ... : ... .. 3 ... : ... .. . ... ... : ... .. 4 ... ... : ... .. 4 ... ... : ... .. . P80 ...
ROW 6C : ... .. . ... ... ... : ... .. . ... ... ... : G-2 00 . ... : ... .. 2 ... : ... .. . ... ... : ... .. . ... ... : ... .. . ... ... : ... .. . P7E ...
ROW 6D : ... .. . ... ... ... : ... .. . ... ... ... : ... .. . ... : ... .. 0 ... : ... .. . ... ... : ... .. . ... ... : ... .. . ... ... : --- .. . P83 ...
ROW 6E : A-2 00 F ... ... ... : E-3 00 F ... ... ... : A-2 00 . ... : B-# 00 F ... : ... .. . ... ... : A-2 01 6 ... ... : A-3 01 6 ... ... : A-2 01 F P7D ...
ROW 6F : ... .. E ... ... ... : ... .. E ... ... ... : ... .. . ... : ... .. C ... : ... .. . ... ... : ... .. . ... ... : ... .. . ... ... : ... .. D P80 ...
ROW 70 : ... .. D ... ... ... : ... .. D ... ... ... : ... .. . ... : ... .. 6 ... : ... .. . ... ... : ... .. 5 ... ... : ... .. 5 ... ... : ... .. 8 P81 ...
ROW 71 : ... .. 2 ... ... ... : ... .. 2 ... ... ... : ... .. . ... : ... .. 3 ... : ... .. . ... ... : ... .. 4 ... ... : ... .. 4 ... ... : ... .. . P83 ...
ROW 72 : ... .. . ... ... ... : ... .. . ... ... ... : ... .. . ... : ... .. 2 ... : ... .. . ... ... : ... .. . ... ... : ... .. . ... ... : ... .. . ... ...
ROW 73 : ... .. . ... ... ... : ... .. . ... ... ... : --- .. . ... : ... .. 0 ... : ... .. . ... ... : ... .. . ... ... : ... .. . ... ... : --- .. . P7F ...
ROW 74 : C#3 00 F ... ... ... : G#3 00 F ... ... ... : D#3 00 . ... : 1-# 00 F ... : ... .. . ... ... : E-2 01 6 ... ... : E-3 01 6 ... ... : D#3 01 F P80 ...
ROW 75 : ... .. E P89 ... ... : A-3 00 E P7B ... ... : ... .. . ... : ... .. C ... : ... .. . ... ... : ... .. . ... ... : ... .. . ... ... : ... .. D P7E ...
ROW 76 : D-3 00 D P7B ... ... : ... .. D P84 ... ... : ... .. . ... : ... .. 6 ... : ... .. . ... ... : ... .. 5 ... ... : ... .. 5 ... ... : ... .. 8 P7D ...
ROW 77 : ... .. A P84 ... ... : A#3 00 A P7F ... ... : ... .. . ... : ... .. 3 ... : ... .. . ... ... : ... .. 4 ... ... : ... .. 4 ... ... : ... .. . ... ...
ROW 78 : D#3 00 A P78 ... ... : ... .. . P81 ... ... : ... .. . ... : ... .. 2 ... : ... .. . ... ... : ... .. . ... ... : ... .. . ... ... : ... .. . P7F ...
ROW 79 : ... .. . P80 ... ... : ... .. . ... ... ... : ... .. . ... : ... .. 0 ... : ... .. . ... ... : ... .. . ... ... : ... .. . ... ... : ... .. . P81 ...
ROW 7A : ... .. . ... ... ... : ... .. . ... ... ... : ... .. . ... : B-# 00 F ... : ... .. . ... ... : D#2 01 6 ... ... : D#3 01 6 ... ... : ... .. . P83 ...
ROW 7B : ... .. . ... ... ... : ... .. . ... ... ... : ... .. . ... : ... .. C ... : ... .. . ... ... : ... .. . ... ... : ... .. . ... ... : ... .. . ... ...
ROW 7C : ... .. . ... ... ... : ... .. . ... ... ... : ... .. . ... : ... .. 6 ... : ... .. . ... ... : ... .. 5 ... ... : ... .. 5 ... ... : ... .. . P82 ...
ROW 7D : ... .. . ... ... ... : ... .. . ... ... ... : ... .. . ... : ... .. 3 ... : ... .. . ... ... : ... .. 4 ... ... : ... .. 4 ... ... : ... .. . P80 ...
ROW 7E : ... .. . ... ... ... : ... .. . ... ... ... : ... .. . ... : ... .. 2 ... : ... .. . ... ... : ... .. . ... ... : ... .. . ... ... : ... .. . P7E ...
ROW 7F : ... .. . ... ... ... : ... .. . ... ... ... : ... .. . ... : ... .. 0 ... : ... .. . ... ... : ... .. . ... ... : ... .. . ... ... : ... .. . P7D ...
ROW 80 : E-3 00 A P78 ... ... : B-3 00 A P80 ... ... : D-5 00 . ... : ... .. F ... : ... .. . ... ... : E-2 01 6 ... ... : E-3 01 6 ... ... : D-3 01 8 P75 ...
ROW 81 : ... .. . P80 ... ... : C-4 00 A P7C ... ... : E-4 00 . ... : ... .. C ... : ... .. . ... ... : ... .. . ... ... : ... .. . ... ... : C-3 01 8 P8D ...
ROW 82 : ... .. . P7D ... ... : B-3 00 A P85 ... ... : A-3 00 . ... : ... .. 6 ... : ... .. . ... ... : ... .. 5 ... ... : ... .. 5 ... ... : B-2 01 8 P8B ...
ROW 83 : D#3 00 A P86 ... ... : A#3 00 A P87 ... ... : G#3 00 . ... : ... .. 3 ... : ... .. . ... ... : ... .. 4 ... ... : ... .. 4 ... ... : A#2 01 8 P8C ...
ROW 84 : ... .. . P7A ... ... : ... .. . P7B ... ... : D#3 00 . ... : ... .. 2 ... : ... .. . ... ... : ... .. . ... ... : ... .. . ... ... : A-2 01 8 P8D ...
ROW 85 : D-3 00 A P83 ... ... : A-3 00 A P7D ... ... : ... .. . ... : ... .. 0 ... : ... .. . ... ... : ... .. . ... ... : ... .. . ... ... : G#2 01 8 P8F ...
ROW 86 : ... .. 1 P80 ... ... : ... .. 1 P7A ... ... : D-3 00 . P75 : ... .. F ... : ... .. . ... ... : A-2 01 6 ... ... : A-3 01 6 ... ... : G-2 01 8 P91 ...
ROW 87 : ... .. . P88 ... ... : ... .. . P82 ... ... : C-3 00 . P84 : ... .. C ... : ... .. . ... ... : ... .. . ... ... : ... .. . ... ... : ... .. . P70 ...
ROW 88 : D#3 00 1 P80 ... ... : A#3 00 1 P81 ... ... : B-2 00 . P7D : ... .. 6 ... : ... .. . ... ... : ... .. 5 ... ... : ... .. 5 ... ... : F#2 01 8 P75 ...
ROW 89 : E-3 00 1 P77 ... ... : B-3 00 1 P7F ... ... : A#2 00 . P78 : ... .. 3 ... : ... .. . ... ... : ... .. 4 ... ... : ... .. 4 ... ... : F-2 01 8 P7E ...
ROW 8A : ... .. . P80 ... ... : C-4 00 1 P7C ... ... : A-2 00 . P74 : ... .. 2 ... : ... .. . ... ... : ... .. . ... ... : ... .. . ... ... : E-2 01 8 P8C ...
ROW 8B : ... .. . P7E ... ... : B-3 00 1 P86 ... ... : G#2 00 . P73 : ... .. 0 ... : ... .. . ... ... : ... .. . ... ... : ... .. . ... ... : ... .. . P6D ...
ROW 8C : C-3 00 F P80 ... ... : G-3 00 F P81 ... ... : D-3 00 . P80 : 5-# 00 F ... : ... .. . ... ... : E-3 01 6 ... ... : E-4 01 6 ... ... : D-3 01 F P82 ...
ROW 8D : ... .. E P89 ... ... : G#3 00 E P7A ... ... : ... .. . ... : ... .. C ... : ... .. . ... ... : ... .. . ... ... : ... .. . ... ... : ... .. D P83 ...
ROW 8E : C#3 00 D P7A ... ... : ... .. D P83 ... ... : ... .. . ... : ... .. 6 ... : ... .. . ... ... : ... .. 5 ... ... : ... .. 5 ... ... : ... .. 8 ... ...
ROW 8F : ... .. A P83 ... ... : A-3 00 A P7D ... ... : ... .. . ... : ... .. 3 ... : ... .. . ... ... : ... .. 4 ... ... : ... .. 4 ... ... : ... .. . P80 ...
ROW 90 : D-3 00 A P75 ... ... : ... .. . P81 ... ... : ... .. . ... : ... .. 2 ... : ... .. . ... ... : ... .. . ... ... : ... .. . ... ... : ... .. . P7F ...
ROW 91 : ... .. . P7E ... ... : ... .. . ... ... ... : ... .. . ... : ... .. 0 ... : ... .. . ... ... : ... .. . ... ... : ... .. . ... ... : ... .. . P7D ...
ROW 92 : ... .. . P80 ... ... : ... .. . ... ... ... : ... .. . ... : ... .. F ... : ... .. . ... ... : F-3 01 6 ... ... : F-4 01 6 ... ... : ... .. . ... ...
ROW 93 : ... .. . ... ... ... : ... .. . ... ... ... : ... .. . ... : ... .. C ... : ... .. . ... ... : ... .. . ... ... : ... .. . ... ... : ... .. . P7E ...
ROW 94 : ... .. . ... ... ... : ... .. . ... ... ... : ... .. . ... : ... .. 6 ... : ... .. . ... ... : ... .. 5 ... ... : ... .. 5 ... ... : ... .. . P80 ...
ROW 95 : ... .. . ... ... ... : ... .. . ... ... ... : ... .. . ... : ... .. 3 ... : ... .. . ... ... : ... .. 4 ... ... : ... .. 4 ... ... : ... .. . P82 ...
ROW 96 : ... .. . ... ... ... : ... .. . ... ... ... : ... .. . ... : ... .. 2 ... : ... .. . ... ... : ... .. . ... ... : ... .. . ... ... : ... .. . P83 ...
ROW 97 : ... .. . ... ... ... : ... .. . ... ... ... : ... .. . ... : ... .. 0 ... : ... .. . ... ... : ... .. . ... ... : ... .. . ... ... : ... .. . ... ...
ROW 98 : D#3 00 A P78 ... ... : A#3 00 A P80 ... ... : C#5 00 . ... : 1-# 00 F ... : ... .. . ... ... : A-3 01 6 ... ... : A-4 01 6 ... ... : C#3 01 8 P7B ...
ROW 99 : ... .. . P80 ... ... : B-3 00 A P7A ... ... : D#4 00 . ... : ... .. C ... : ... .. . ... ... : ... .. . ... ... : ... .. . ... ... : C-3 01 8 P75 ...
ROW 9A : ... .. . P7D ... ... : A#3 00 A P85 ... ... : G#3 00 . ... : ... .. 6 ... : ... .. . ... ... : ... .. 5 ... ... : ... .. 5 ... ... : A#2 01 8 P8E ...
ROW 9B : D-3 00 A P86 ... ... : A-3 00 A P87 ... ... : G-3 00 . ... : ... .. 3 ... : ... .. . ... ... : ... .. 4 ... ... : ... .. 4 ... ... : A-2 01 8 P8F ...
ROW 9C : ... .. . P7A ... ... : ... .. . P7B ... ... : D-3 00 . ... : ... .. 2 ... : ... .. . ... ... : ... .. . ... ... : ... .. . ... ... : ... .. . P70 ...
ROW 9D : C#3 00 A P85 ... ... : G#3 00 A P7E ... ... : ... .. . ... : ... .. 0 ... : ... .. . ... ... : ... .. . ... ... : ... .. . ... ... : G#2 01 8 P75 ...
ROW 9E : ... .. 1 P82 ... ... : ... .. 1 P7B ... ... : C#3 00 . P77 : B-# 00 F ... : ... .. . ... ... : A#3 01 6 ... ... : A#4 01 6 ... ... : G-2 01 8 P7B ...
ROW 9F : ... .. . P8A ... ... : ... .. . P83 ... ... : B-2 00 . P88 : ... .. C ... : ... .. . ... ... : ... .. . ... ... : ... .. . ... ... : F#2 01 8 P83 ...
ROW A0 : D-3 00 1 P80 ... ... : A-3 00 1 P81 ... ... : A#2 00 . P83 : ... .. 6 ... : ... .. . ... ... : ... .. 5 ... ... : ... .. 5 ... ... : F-2 01 8 P8C ...
ROW A1 : D#3 00 1 P77 ... ... : A#3 00 1 P7F ... ... : A-2 00 . P7F : ... .. 3 ... : ... .. . ... ... : ... .. 4 ... ... : ... .. 4 ... ... : E-2 01 8 P96 ...
ROW A2 : ... .. . P80 ... ... : B-3 00 1 P7A ... ... : G#2 00 . P7E : ... .. 2 ... : ... .. . ... ... : ... .. . ... ... : ... .. . ... ... : ... .. . P75 ...
ROW A3 : ... .. . P7E ... ... : A#3 00 1 P86 ... ... : G-2 00 . ... : ... .. 0 ... : ... .. . ... ... : ... .. . ... ... : ... .. . ... ... : D#2 01 8 P80 ...
ROW A4 : C-3 00 F P80 ... ... : G-3 00 F P81 ... ... : A-2 00 . P80 : ... .. F ... : ... .. . ... ... : E-4 01 6 ... ... : E-5 01 6 ... ... : A-2 01 F P7D ...
ROW A5 : ... .. E ... ... ... : ... .. E ... ... ... : ... .. . ... : ... .. C ... : ... .. . ... ... : ... .. . ... ... : ... .. . ... ... : ... .. D P7E ...
ROW A6 : ... .. D ... ... ... : ... .. D ... ... ... : ... .. . ... : ... .. 6 ... : ... .. . ... ... : ... .. 5 ... ... : ... .. 5 ... ... : ... .. 8 P80 ...
ROW A7 : ... .. 2 ... ... ... : ... .. 2 ... ... ... : ... .. . ... : ... .. 3 ... : ... .. . ... ... : ... .. 4 ... ... : ... .. 4 ... ... : ... .. . P81 ...
ROW A8 : ... .. . ... ... ... : ... .. . ... ... ... : ... .. . ... : ... .. 2 ... : ... .. . ... ... : ... .. . ... ... : ... .. . ... ... : ... .. . P83 ...
ROW A9 : ... .. . ... ... ... : ... .. . ... ... ... : --- .. . ... : ... .. 0 ... : ... .. . ... ... : ... .. . ... ... : ... .. . ... ... : --- .. . P7F ...
ROW AA : D-3 00 F ... ... ... : A-3 00 F ... ... ... : A-2 00 . ... : 1-# 00 F ... : ... .. . ... ... : F-4 01 6 ... ... : F-5 01 6 ... ... : A-2 01 F P81 ...
ROW AB : ... .. E ... ... ... : ... .. E ... ... ... : ... .. . ... : ... .. C ... : ... .. . ... ... : ... .. . ... ... : ... .. . ... ... : ... .. D P80 ...
ROW AC : ... .. D ... ... ... : ... .. D ... ... ... : ... .. . ... : ... .. 6 ... : ... .. . ... ... : ... .. 5 ... ... : ... .. 5 ... ... : ... .. 8 P7E ...
ROW AD : ... .. 2 ... ... ... : ... .. 2 ... ... ... : ... .. . ... : ... .. 3 ... : ... .. . ... ... : ... .. 4 ... ... : ... .. 4 ... ... : ... .. . P7D ...
ROW AE : ... .. . ... ... ... : ... .. . ... ... ... : ... .. . ... : ... .. 2 ... : ... .. . ... ... : ... .. . ... ... : ... .. . ... ... : ... .. . ... ...
ROW AF : ... .. . ... ... ... : ... .. . ... ... ... : --- .. . ... : ... .. 0 ... : ... .. . ... ... : ... .. . ... ... : ... .. . ... ... : --- .. . P81 ...
ROW B0 : C-3 00 F ... ... ... : G-3 00 F ... ... ... : G#3 00 . ... : 5-# 00 F ... : ... .. . ... ... : E-4 01 6 ... ... : E-5 01 6 ... ... : A-1 01 F ... ...
ROW B1 : ... .. E ... ... ... : ... .. E ... ... ... : A#2 00 . ... : ... .. C ... : ... .. . ... ... : ... .. . ... ... : ... .. . ... ... : ... .. D P83 ...
ROW B2 : ... .. D ... ... ... : ... .. D ... ... ... : D#2 00 . ... : ... .. 6 ... : ... .. . ... ... : ... .. 5 ... ... : ... .. 5 ... ... : ... .. 8 ... ...
ROW B3 : ... .. A ... ... ... : ... .. A ... ... ... : D-2 00 . ... : ... .. 3 ... : ... .. . ... ... : ... .. 4 ... ... : ... .. 4 ... ... : ... .. . P82 ...
ROW B4 : ... .. . ... ... ... : ... .. . ... ... ... : A-1 00 . ... : ... .. 2 ... : ... .. . ... ... : ... .. . ... ... : ... .. . ... ... : ... .. . P80 ...
ROW B5 : ... .. . ... ... ... : ... .. . ... ... ... : ... .. . ... : ... .. 0 ... : ... .. . ... ... : ... .. . ... ... : ... .. . ... ... : --- .. . P7F ...
ROW B6 : F#2 00 F ... ... ... : C#3 00 F ... ... ... : ... .. . ... : B-# 00 F ... : ... .. . ... ... : F-4 01 6 ... ... : F-5 01 6 ... ... : A-1 01 F P7D ...
ROW B7 : ... .. E ... ... ... : ... .. E ... ... ... : ... .. . ... : ... .. C ... : ... .. . ... ... : ... .. . ... ... : ... .. . ... ... : ... .. D ... ...
ROW B8 : ... .. D ... ... ... : ... .. D ... ... ... : ... .. . ... : ... .. 6 ... : ... .. . ... ... : ... .. 5 ... ... : ... .. 5 ... ... : ... .. 8 P7F ...
ROW B9 : ... .. A ... ... ... : ... .. A ... ... ... : ... .. . ... : ... .. 3 ... : ... .. . ... ... : ... .. 4 ... ... : ... .. 4 ... ... : ... .. . P81 ...
ROW BA : ... .. . ... ... ... : ... .. . ... ... ... : ... .. . ... : ... .. 2 ... : ... .. . ... ... : ... .. . ... ... : ... .. . ... ... : ... .. . P83 ...
ROW BB : ... .. . ... ... ... : ... .. . ... ... ... : --- .. . ... : ... .. 0 ... : ... .. . ... ... : ... .. . ... ... : ... .. . ... ... : --- .. . P82 ...
ROW BC : F-2 00 A P84 ... ... : C-3 00 A P79 ... ... : A-1 00 . ... : 1-# 00 F ... : ... .. . ... ... : E-4 01 6 ... ... : E-5 01 6 ... ... : A-1 01 F ... ...
ROW BD : E-2 00 A P8A ... ... : A#2 00 A P8D ... ... : ... .. . ... : ... .. C ... : ... .. . ... ... : ... .. . ... ... : ... .. . ... ... : ... .. D P80 ...
ROW BE : D#2 00 A P92 ... ... : A-2 00 A P89 ... ... : ... .. . ... : ... .. 6 ... : ... .. . ... ... : ... .. 5 ... ... : ... .. 5 ... ... : ... .. 8 P7E ...
ROW BF : ... .. . P72 ... ... : G#2 00 A P88 ... ... : ... .. . ... : ... .. 3 ... : ... .. . ... ... : ... .. 4 ... ... : ... .. 4 ... ... : ... .. . P7D ...
ROW C0 : D-2 00 A P7D ... ... : G-2 00 A ... ... ... : ... .. . ... : ... .. 2 ... : ... .. . ... ... : ... .. . ... ... : ... .. . ... ... : ... .. . ... ...
ROW C1 : C#2 00 A P8A ... ... : F#2 00 A P8A ... ... : --- .. . ... : ... .. 0 ... : ... .. . ... ... : ... .. . ... ... : ... .. . ... ... : --- .. . P84 ...
ROW C2 : F#2 00 F P80 ... ... : C#3 00 F P81 ... ... : A-1 00 . ... : B-# 00 F ... : ... .. . ... ... : A-3 01 6 ... ... : A-4 01 6 ... ... : A-1 01 F P80 ...
ROW C3 : ... .. E ... ... ... : ... .. E ... ... ... : ... .. . ... : ... .. C ... : ... .. . ... ... : ... .. . ... ... : ... .. . ... ... : ... .. D P83 ...
ROW C4 : ... .. D ... ... ... : ... .. D ... ... ... : ... .. . ... : ... .. 6 ... : ... .. . ... ... : ... .. 5 ... ... : ... .. 5 ... ... : ... .. 8 ... ...
ROW C5 : ... .. 2 ... ... ... : ... .. 2 ... ... ... : ... .. . ... : ... .. 3 ... : ... .. . ... ... : ... .. 4 ... ... : ... .. 4 ... ... : ... .. . P82 ...
ROW C6 : ... .. . ... ... ... : ... .. . ... ... ... : ... .. . ... : ... .. 2 ... : ... .. . ... ... : ... .. . ... ... : ... .. . ... ... : ... .. . P80 ...
ROW C7 : ... .. . ... ... ... : ... .. . ... ... ... : --- .. . ... : ... .. 0 ... : ... .. . ... ... : ... .. . ... ... : ... .. . ... ... : --- .. . P7F ...
ROW C8 : G-2 00 F ... ... ... : D-3 00 F ... ... ... : F#4 00 . ... : ... .. F ... : ... .. . ... ... : E-3 01 6 ... ... : E-4 01 6 ... ... : G-2 01 F P7D ...
ROW C9 : ... .. E ... ... ... : ... .. E ... ... ... : G#3 00 . ... : ... .. C ... : ... .. . ... ... : ... .. . ... ... : ... .. . ... ... : ... .. D ... ...
ROW CA : ... .. D ... ... ... : ... .. D ... ... ... : C#3 00 . ... : ... .. 6 ... : ... .. . ... ... : ... .. 5 ... ... : ... .. 5 ... ... : ... .. 8 P7F ...
ROW CB : ... .. 2 ... ... ... : ... .. 2 ... ... ... : C-3 00 . ... : ... .. 3 ... : ... .. . ... ... : ... .. 4 ... ... : ... .. 4 ... ... : ... .. . P80 ...
ROW CC : ... .. . ... ... ... : ... .. . ... ... ... : G-2 00 . ... : ... .. 2 ... : ... .. . ... ... : ... .. . ... ... : ... .. . ... ... : ... .. . P82 ...
ROW CD : ... .. . ... ... ... : ... .. . ... ... ... : ... .. . ... : ... .. 0 ... : ... .. . ... ... : ... .. . ... ... : ... .. . ... ... : --- .. . P7F ...
ROW CE : C-2 00 F ... ... ... : G-2 00 F ... ... ... : A-2 00 . ... : 9-# 00 F ... : ... .. . ... ... : D#3 01 6 ... ... : D#4 01 6 ... ... : A-2 01 F P83 ...
ROW CF : ... .. E ... ... ... : ... .. E ... ... ... : ... .. . ... : ... .. C ... : ... .. . ... ... : ... .. . ... ... : ... .. . ... ... : ... .. D P80 ...
ROW D0 : ... .. D ... ... ... : ... .. D ... ... ... : ... .. . ... : ... .. 6 ... : ... .. . ... ... : ... .. 5 ... ... : ... .. 5 ... ... : ... .. 8 P7F ...
ROW D1 : ... .. 8 ... ... ... : ... .. 8 ... ... ... : ... .. . ... : ... .. 3 ... : ... .. . ... ... : ... .. 4 ... ... : ... .. 4 ... ... : ... .. . P7D ...
ROW D2 : ... .. . ... ... ... : ... .. . ... ... ... : ... .. . ... : ... .. 2 ... : ... .. . ... ... : ... .. . ... ... : ... .. . ... ... : ... .. . ... ...
ROW D3 : ... .. . ... ... ... : ... .. . ... ... ... : --- .. . ... : ... .. 0 ... : ... .. . ... ... : ... .. . ... ... : ... .. . ... ... : --- .. . P81 ...
ROW D4 : ... .. 7 ... ... ... : ... .. 7 ... ... ... : A-2 00 . ... : 7-# 00 F ... : ... .. . ... ... : A-2 01 6 ... ... : A-3 01 6 ... ... : A-2 01 F P80 ...
ROW D5 : ... .. . ... ... ... : ... .. . ... ... ... : ... .. . ... : ... .. C ... : ... .. . ... ... : ... .. . ... ... : ... .. . ... ... : ... .. D P82 ...
ROW D6 : ... .. . ... ... ... : ... .. . ... ... ... : ... .. . ... : ... .. 6 ... : ... .. . ... ... : ... .. 5 ... ... : ... .. 5 ... ... : ... .. 8 P83 ...
ROW D7 : ... .. 6 ... ... ... : ... .. 6 ... ... ... : ... .. . ... : ... .. 3 ... : ... .. . ... ... : ... .. 4 ... ... : ... .. 4 ... ... : ... .. . ... ...
ROW D8 : ... .. . ... ... ... : ... .. . ... ... ... : ... .. . ... : ... .. 2 ... : ... .. . ... ... : ... .. . ... ... : ... .. . ... ... : ... .. . P81 ...
ROW D9 : ... .. . ... ... ... : ... .. . ... ... ... : --- .. . ... : ... .. 0 ... : ... .. . ... ... : ... .. . ... ... : ... .. . ... ... : --- .. . ... ...
ROW DA : ... .. 5 P8D ... ... : ... .. 5 P8E ... ... : A-2 00 . ... : 5-# 00 F ... : ... .. . ... ... : E-2 01 6 ... ... : E-3 01 6 ... ... : A-2 01 F P7D ...
ROW DB : ... .. . P95 ... ... : G#2 00 5 P76 ... ... : ... .. . ... : ... .. C ... : ... .. . ... ... : ... .. . ... ... : ... .. . ... ... : ... .. D ... ...
ROW DC : ... .. . P92 ... ... : ... .. . P73 ... ... : ... .. . ... : ... .. 6 ... : ... .. . ... ... : ... .. 5 ... ... : ... .. 5 ... ... : ... .. 8 P7E ...
ROW DD : ... .. . P86 ... ... : G-2 00 5 P87 ... ... : ... .. . ... : ... .. 3 ... : ... .. . ... ... : ... .. 4 ... ... : ... .. 4 ... ... : ... .. . P80 ...
ROW DE : ... .. . P7A ... ... : ... .. . P7B ... ... : ... .. . ... : ... .. 2 ... : ... .. . ... ... : ... .. . ... ... : ... .. . ... ... : ... .. . P82 ...
ROW DF : ... .. . P6E ... ... : F#2 00 5 P91 ... ... : --- .. . ... : ... .. 0 ... : ... .. . ... ... : ... .. . ... ... : ... .. . ... ... : --- .. . ... ...
ROW E0 : ... .. 6 P6B ... ... : ... .. 6 P8E ... ... : A-4 00 . ... : 1-# 00 F ... : ... .. . ... ... : D#2 01 6 ... ... : D#3 01 6 ... ... : A#2 01 F P83 ...
ROW E1 : ... .. . P73 ... ... : G-2 00 6 P74 ... ... : B-3 00 . ... : ... .. C ... : ... .. . ... ... : ... .. . ... ... : ... .. . ... ... : ... .. D P81 ...
ROW E2 : ... .. . P80 ... ... : ... .. . P81 ... ... : E-3 00 . ... : ... .. 6 ... : ... .. . ... ... : ... .. 5 ... ... : ... .. 5 ... ... : ... .. 8 P80 ...
ROW E3 : ... .. . P8C ... ... : ... .. . P8D ... ... : D#3 00 . ... : ... .. 3 ... : ... .. . ... ... : ... .. 4 ... ... : ... .. 4 ... ... : ... .. . P7D ...
ROW E4 : ... .. . P95 ... ... : G#2 00 6 P76 ... ... : A#2 00 . ... : ... .. 2 ... : ... .. . ... ... : ... .. . ... ... : ... .. . ... ... : ... .. . ... ...
ROW E5 : ... .. . P93 ... ... : ... .. . P74 ... ... : ... .. . ... : ... .. 0 ... : ... .. . ... ... : ... .. . ... ... : ... .. . ... ... : --- .. . P7F ...
ROW E6 : ... .. 7 P88 ... ... : G-2 00 7 P89 ... ... : ... .. . ... : B-# 00 F ... : ... .. . ... ... : E-2 01 6 ... ... : E-3 01 6 ... ... : A#2 01 F P80 ...
ROW E7 : ... .. . P7C ... ... : ... .. . P7D ... ... : ... .. . ... : ... .. C ... : ... .. . ... ... : ... .. . ... ... : ... .. . ... ... : ... .. D P81 ...
ROW E8 : ... .. . P6F ... ... : ... .. . P70 ... ... : ... .. . ... : ... .. 6 ... : ... .. . ... ... : ... .. 5 ... ... : ... .. 5 ... ... : ... .. 8 P83 ...
ROW E9 : ... .. 8 P6B ... ... : F#2 00 8 P8E ... ... : ... .. . ... : ... .. 3 ... : ... .. . ... ... : ... .. 4 ... ... : ... .. 4 ... ... : ... .. . ... ...
ROW EA : ... .. . P71 ... ... : G-2 00 8 P72 ... ... : ... .. . ... : ... .. 2 ... : ... .. . ... ... : ... .. . ... ... : ... .. . ... ... : ... .. . P81 ...
ROW EB : ... .. . P7E ... ... : ... .. . P7F ... ... : --- .. . ... : ... .. 0 ... : ... .. . ... ... : ... .. . ... ... : ... .. . ... ... : --- .. . ... ...
ROW EC : ... .. . P8A ... ... : ... .. . P8B ... ... : A#2 00 . ... : 1-# 00 F ... : ... .. . ... ... : A-2 01 6 ... ... : A-3 01 6 ... ... : A#2 01 F P7E ...
ROW ED : ... .. . P94 ... ... : G#2 00 8 P75 ... ... : ... .. . ... : ... .. C ... : ... .. . ... ... : ... .. . ... ... : ... .. . ... ... : ... .. D P7D ...
ROW EE : ... .. . ... ... ... : ... .. . ... ... ... : ... .. . ... : ... .. 6 ... : ... .. . ... ... : ... .. 5 ... ... : ... .. 5 ... ... : ... .. 8 ... ...
ROW EF : ... .. 9 P8A ... ... : G-2 00 9 P8B ... ... : ... .. . ... : ... .. 3 ... : ... .. . ... ... : ... .. 4 ... ... : ... .. 4 ... ... : ... .. . P80 ...
ROW F0 : ... .. . P7E ... ... : ... .. . P7F ... ... : ... .. . ... : ... .. 2 ... : ... .. . ... ... : ... .. . ... ... : ... .. . ... ... : ... .. . P81 ...
ROW F1 : ... .. . P71 ... ... : ... .. . P72 ... ... : --- .. . ... : ... .. 0 ... : ... .. . ... ... : ... .. . ... ... : ... .. . ... ... : --- .. . ... ...
ROW F2 : ... .. A P6B ... ... : F#2 00 A P8E ... ... : C-3 00 . ... : 7-# 00 F ... : ... .. . ... ... : A#2 01 6 ... ... : A#3 01 6 ... ... : C-3 01 F P83 ...
ROW F3 : ... .. . P6F ... ... : G-2 00 A P70 ... ... : ... .. . ... : ... .. C ... : ... .. . ... ... : ... .. . ... ... : ... .. . ... ... : ... .. D P82 ...
ROW F4 : ... .. . P7C ... ... : ... .. . P7D ... ... : ... .. . ... : ... .. 6 ... : ... .. . ... ... : ... .. 5 ... ... : ... .. 5 ... ... : ... .. 8 P80 ...
ROW F5 : ... .. . P88 ... ... : ... .. . P89 ... ... : ... .. . ... : ... .. 3 ... : ... .. . ... ... : ... .. 4 ... ... : ... .. 4 ... ... : ... .. . P7E ...
ROW F6 : ... .. . P93 ... ... : G#2 00 A P74 ... ... : ... .. . ... : ... .. 2 ... : ... .. . ... ... : ... .. . ... ... : ... .. . ... ... : ... .. . P7D ...
ROW F7 : ... .. . P95 ... ... : ... .. . P76 ... ... : --- .. . ... : ... .. 0 ... : ... .. . ... ... : ... .. . ... ... : ... .. . ... ... : --- .. . P7B ...
ROW F8 : D#2 00 F P80 ... ... : A#2 00 F P81 ... ... : C-5 00 . ... : B-# 00 F ... : ... .. . ... ... : E-3 01 6 ... ... : E-4 01 6 ... ... : C#3 01 F P7F ...
ROW F9 : ... .. E ... ... ... : ... .. E ... ... ... : D-4 00 . ... : ... .. C ... : ... .. . ... ... : ... .. . ... ... : ... .. . ... ... : ... .. D P81 ...
ROW FA : ... .. D ... ... ... : ... .. D ... ... ... : G-3 00 . ... : ... .. 6 ... : ... .. . ... ... : ... .. 5 ... ... : ... .. 5 ... ... : ... .. 8 P83 ...
ROW FB : ... .. A ... ... ... : ... .. A ... ... ... : F#3 00 . ... : ... .. 3 ... : ... .. . ... ... : ... .. 4 ... ... : ... .. 4 ... ... : ... .. . ... ...
ROW FC : ... .. . ... ... ... : ... .. . ... ... ... : C#3 00 . ... : ... .. 2 ... : ... .. . ... ... : ... .. . ... ... : ... .. . ... ... : ... .. . P82 ...
ROW FD : ... .. . ... ... ... : ... .. . ... ... ... : ... .. . ... : ... .. 0 ... : ... .. . ... ... : ... .. . ... ... : ... .. . ... ... : --- .. . ... ...
ROW FE : D#3 00 F ... ... ... : A#3 00 F ... ... ... : ... .. . ... : 7-# 00 F ... : ... .. . ... ... : F-3 01 6 ... ... : F-4 01 6 ... ... : C#3 01 F P7E ...
ROW FF : ... .. E ... ... ... : ... .. E ... ... ... : ... .. . ... : ... .. C ... : ... .. . ... ... : ... .. . ... ... : ... .. . ... ... : ... .. D P7D ...

PATTERN 08
ROW 00 : ... .. D ... ... ... : ... .. D ... ... ... : ... .. . ... : ... .. 6 ... : ... .. . ... ... : ... .. 5 ... ... : ... .. 5 ... ... : ... .. 8 ... ...
ROW 01 : ... .. 2 ... ... ... : ... .. 2 ... ... ... : ... .. . ... : ... .. 3 ... : ... .. . ... ... : ... .. 4 ... ... : ... .. 4 ... ... : ... .. . P7F ...
ROW 02 : ... .. . ... ... ... : ... .. . ... ... ... : ... .. . ... : ... .. 2 ... : ... .. . ... ... : ... .. . ... ... : ... .. . ... ... : ... .. . P80 ...
ROW 03 : ... .. . ... ... ... : ... .. . ... ... ... : --- .. . ... : ... .. 0 ... : ... .. . ... ... : ... .. . ... ... : ... .. . ... ... : --- .. . ... ...
ROW 04 : D-3 00 F ... ... ... : A-3 00 F ... ... ... : D#3 00 . ... : 1-# 00 F ... : ... .. . ... ... : A-3 01 6 ... ... : A-4 01 6 ... ... : D#3 01 F P83 ...
ROW 05 : ... .. E ... ... ... : ... .. E ... ... ... : ... .. . ... : ... .. C ... : ... .. . ... ... : ... .. . ... ... : ... .. . ... ... : ... .. D P82 ...
ROW 06 : ... .. D ... ... ... : ... .. D ... ... ... : ... .. . ... : ... .. 6 ... : ... .. . ... ... : ... .. 5 ... ... : ... .. 5 ... ... : ... .. 8 P80 ...
ROW 07 : ... .. 2 ... ... ... : ... .. 2 ... ... ... : ... .. . ... : ... .. 3 ... : ... .. . ... ... : ... .. 4 ... ... : ... .. 4 ... ... : ... .. . P7F ...
ROW 08 : ... .. . ... ... ... : ... .. . ... ... ... : ... .. . ... : ... .. 2 ... : ... .. . ... ... : ... .. . ... ... : ... .. . ... ... : ... .. . P7D ...
ROW 09 : ... .. . ... ... ... : ... .. . ... ... ... : --- .. . ... : ... .. 0 ... : ... .. . ... ... : ... .. . ... ... : ... .. . ... ... : --- .. . P7C ...
ROW 0A : A-2 00 F ... ... ... : E-3 00 F ... ... ... : D#3 00 . ... : B-# 00 F ... : ... .. . ... ... : A#3 01 6 ... ... : A#4 01 6 ... ... : D#3 01 F P7F ...
ROW 0B : ... .. E ... ... ... : ... .. E ... ... ... : ... .. . ... : ... .. C ... : ... .. . ... ... : ... .. . ... ... : ... .. . ... ... : ... .. D P80 ...
ROW 0C : ... .. D ... ... ... : ... .. D ... ... ... : ... .. . ... : ... .. 6 ... : ... .. . ... ... : ... .. 5 ... ... : ... .. 5 ... ... : ... .. 8 P82 ...
ROW 0D : ... .. A ... ... ... : ... .. A ... ... ... : ... .. . ... : ... .. 3 ... : ... .. . ... ... : ... .. 4 ... ... : ... .. 4 ... ... : ... .. . P83 ...
ROW 0E : ... .. . ... ... ... : ... .. . ... ... ... : ... .. . ... : ... .. 2 ... : ... .. . ... ... : ... .. . ... ... : ... .. . ... ... : ... .. . ... ...
ROW 0F : ... .. . ... ... ... : ... .. . ... ... ... : --- .. . ... : ... .. 0 ... : ... .. . ... ... : ... .. . ... ... : ... .. . ... ... : --- .. . P82 ...
ROW 10 : G#2 00 A P7F ... ... : D#3 00 A P76 ... ... : G#4 00 . ... : 1-# 00 F ... : ... .. . ... ... : A-3 01 6 ... ... : A-4 01 6 ... ... : A-2 01 F P7F ...
ROW 11 : G-2 00 A ... ... ... : C#3 00 A P82 ... ... : A#3 00 . ... : ... .. C ... : ... .. . ... ... : ... .. . ... ... : ... .. . ... ... : ... .. D P7D ...
ROW 12 : F#2 00 A P81 ... ... : C-3 00 A P7A ... ... : D#3 00 . ... : ... .. 6 ... : ... .. . ... ... : ... .. 5 ... ... : ... .. 5 ... ... : ... .. 8 ... ...
ROW 13 : F-2 00 A P85 ... ... : B-2 00 A P73 ... ... : D-3 00 . ... : ... .. 3 ... : ... .. . ... ... : ... .. 4 ... ... : ... .. 4 ... ... : ... .. . P7E ...
ROW 14 : E-2 00 A P8B ... ... : A-2 00 A P8A ... ... : A-2 00 . ... : ... .. 2 ... : ... .. . ... ... : ... .. . ... ... : ... .. . ... ... : ... .. . P80 ...
ROW 15 : D#2 00 A P93 ... ... : G#2 00 A P89 ... ... : ... .. . ... : ... .. 0 ... : ... .. . ... ... : ... .. . ... ... : ... .. . ... ... : --- .. . ... ...
ROW 16 : ... .. . P73 ... ... : G-2 00 A ... ... ... : ... .. . ... : 7-# 00 F ... : ... .. . ... ... : A#3 01 6 ... ... : A#4 01 6 ... ... : A-2 01 F P83 ...
ROW 17 : D-2 00 A P7E ... ... : F#2 00 A P8B ... ... : ... .. . ... : ... .. C ... : ... .. . ... ... : ... .. . ... ... : ... .. . ... ... : ... .. D ... ...
ROW 18 : C#2 00 A P8B ... ... : F-2 00 A P8F ... ... : ... .. . ... : ... .. 6 ... : ... .. . ... ... : ... .. 5 ... ... : ... .. 5 ... ... : ... .. 8 P81 ...
ROW 19 : ... .. . P6B ... ... : ... .. . P6F ... ... : ... .. . ... : ... .. 3 ... : ... .. . ... ... : ... .. 4 ... ... : ... .. 4 ... ... : ... .. . P7F ...
ROW 1A : C-2 00 A P7B ... ... : E-2 00 A P75 ... ... : ... .. . ... : ... .. 2 ... : ... .. . ... ... : ... .. . ... ... : ... .. . ... ... : ... .. . P7D ...
ROW 1B : B-1 00 A P8E ... ... : D#2 00 A P7D ... ... : --- .. . ... : ... .. 0 ... : ... .. . ... ... : ... .. . ... ... : ... .. . ... ... : --- .. . P81 ...
ROW 1C : G-2 00 F P80 ... ... : D-3 00 F P81 ... ... : A-2 00 . ... : B-# 00 F ... : ... .. . ... ... : A-3 01 6 ... ... : A-4 01 6 ... ... : A-2 01 F P7E ...
ROW 1D : ... .. E ... ... ... : ... .. E ... ... ... : ... .. . ... : ... .. C ... : ... .. . ... ... : ... .. . ... ... : ... .. . ... ... : ... .. D P80 ...
ROW 1E : ... .. D ... ... ... : ... .. D ... ... ... : ... .. . ... : ... .. 6 ... : ... .. . ... ... : ... .. 5 ... ... : ... .. 5 ... ... : ... .. 8 P82 ...
ROW 1F : ... .. A ... ... ... : ... .. A ... ... ... : ... .. . ... : ... .. 3 ... : ... .. . ... ... : ... .. 4 ... ... : ... .. 4 ... ... : ... .. . P83 ...
ROW 20 : ... .. . ... ... ... : ... .. . ... ... ... : ... .. . ... : ... .. 2 ... : ... .. . ... ... : ... .. . ... ... : ... .. . ... ... : ... .. . ... ...
ROW 21 : ... .. . ... ... ... : ... .. . ... ... ... : --- .. . ... : ... .. 0 ... : ... .. . ... ... : ... .. . ... ... : ... .. . ... ... : --- .. . P7F ...
ROW 22 : A-2 00 F ... ... ... : E-3 00 F ... ... ... : A-2 00 . ... : 1-# 00 F ... : ... .. . ... ... : E-3 01 6 ... ... : E-4 01 6 ... ... : A-2 01 F P80 ...
ROW 23 : ... .. E ... ... ... : ... .. E ... ... ... : ... .. . ... : ... .. C ... : ... .. . ... ... : ... .. . ... ... : ... .. . ... ... : ... .. D P7D ...
ROW 24 : ... .. D ... ... ... : ... .. D ... ... ... : ... .. . ... : ... .. 6 ... : ... .. . ... ... : ... .. 5 ... ... : ... .. 5 ... ... : ... .. 8 ... ...
ROW 25 : ... .. 2 ... ... ... : ... .. 2 ... ... ... : ... .. . ... : ... .. 3 ... : ... .. . ... ... : ... .. 4 ... ... : ... .. 4 ... ... : ... .. . P7E ...
ROW 26 : ... .. . ... ... ... : ... .. . ... ... ... : ... .. . ... : ... .. 2 ... : ... .. . ... ... : ... .. . ... ... : ... .. . ... ... : ... .. . P80 ...
ROW 27 : ... .. . ... ... ... : ... .. . ... ... ... : --- .. . ... : ... .. 0 ... : ... .. . ... ... : ... .. . ... ... : ... .. . ... ... : --- .. . ... ...
ROW 28 : A#2 00 F ... ... ... : F-3 00 F ... ... ... : F#5 00 . ... : ... .. F ... : ... .. . ... ... : D#3 01 6 ... ... : D#4 01 6 ... ... : G-3 01 F P83 ...
ROW 29 : ... .. E ... ... ... : ... .. E ... ... ... : G#4 00 . ... : ... .. C ... : ... .. . ... ... : ... .. . ... ... : ... .. . ... ... : ... .. D ... ...
ROW 2A : ... .. D ... ... ... : ... .. D ... ... ... : C#4 00 . ... : ... .. 6 ... : ... .. . ... ... : ... .. 5 ... ... : ... .. 5 ... ... : ... .. 8 P81 ...
ROW 2B : ... .. A ... ... ... : ... .. A ... ... ... : C-4 00 . ... : ... .. 3 ... : ... .. . ... ... : ... .. 4 ... ... : ... .. 4 ... ... : ... .. . P80 ...
ROW 2C : ... .. . ... ... ... : ... .. . ... ... ... : G-3 00 . ... : ... .. 2 ... : ... .. . ... ... : ... .. . ... ... : ... .. . ... ... : ... .. . P7E ...
ROW 2D : ... .. . ... ... ... : ... .. . ... ... ... : ... .. . ... : ... .. 0 ... : ... .. . ... ... : ... .. . ... ... : ... .. . ... ... : --- .. . P81 ...
ROW 2E : A-2 00 F ... ... ... : E-3 00 F ... ... ... : A-3 00 . ... : B-# 00 F ... : ... .. . ... ... : A-2 01 6 ... ... : A-3 01 6 ... ... : A-3 01 F P7D ...
ROW 2F : ... .. E ... ... ... : ... .. E ... ... ... : ... .. . ... : ... .. C ... : ... .. . ... ... : ... .. . ... ... : ... .. . ... ... : ... .. D P80 ...
ROW 30 : ... .. D ... ... ... : ... .. D ... ... ... : ... .. . ... : ... .. 6 ... : ... .. . ... ... : ... .. 5 ... ... : ... .. 5 ... ... : ... .. 8 P81 ...
ROW 31 : ... .. 2 ... ... ... : ... .. 2 ... ... ... : ... .. . ... : ... .. 3 ... : ... .. . ... ... : ... .. 4 ... ... : ... .. 4 ... ... : ... .. . P83 ...
ROW 32 : ... .. . ... ... ... : ... .. . ... ... ... : ... .. . ... : ... .. 2 ... : ... .. . ... ... : ... .. . ... ... : ... .. . ... ... : ... .. . ... ...
ROW 33 : ... .. . ... ... ... : ... .. . ... ... ... : --- .. . ... : ... .. 0 ... : ... .. . ... ... : ... .. . ... ... : ... .. . ... ... : --- .. . P80 ...
ROW 34 : C#3 00 F ... ... ... : G#3 00 F ... ... ... : D#4 00 . ... : 1-# 00 F ... : ... .. . ... ... : E-2 01 6 ... ... : E-3 01 6 ... ... : D#4 01 F ... ...
ROW 35 : ... .. E P89 ... ... : A-3 00 E P7B ... ... : ... .. . ... : ... .. C ... : ... .. . ... ... : ... .. . ... ... : ... .. . ... ... : ... .. D P7E ...
ROW 36 : D-3 00 D P7B ... ... : ... .. D P84 ... ... : ... .. . ... : ... .. 6 ... : ... .. . ... ... : ... .. 5 ... ... : ... .. 5 ... ... : ... .. 8 P7D ...
ROW 37 : ... .. A P84 ... ... : A#3 00 A P7F ... ... : ... .. . ... : ... .. 3 ... : ... .. . ... ... : ... .. 4 ... ... : ... .. 4 ... ... : ... .. . ... ...
ROW 38 : D#3 00 A P78 ... ... : ... .. . P81 ... ... : ... .. . ... : ... .. 2 ... : ... .. . ... ... : ... .. . ... ... : ... .. . ... ... : ... .. . P7F ...
ROW 39 : ... .. . P80 ... ... : ... .. . ... ... ... : ... .. . ... : ... .. 0 ... : ... .. . ... ... : ... .. . ... ... : ... .. . ... ... : ... .. . P81 ...
ROW 3A : ... .. . ... ... ... : ... .. . ... ... ... : ... .. . ... : 7-# 00 F ... : ... .. . ... ... : D#2 01 6 ... ... : D#3 01 6 ... ... : ... .. . P83 ...
ROW 3B : ... .. . ... ... ... : ... .. . ... ... ... : ... .. . ... : ... .. C ... : ... .. . ... ... : ... .. . ... ... : ... .. . ... ... : ... .. . ... ...
ROW 3C : ... .. . ... ... ... : ... .. . ... ... ... : ... .. . ... : ... .. 6 ... : ... .. . ... ... : ... .. 5 ... ... : ... .. 5 ... ... : ... .. . P82 ...
ROW 3D : ... .. . ... ... ... : ... .. . ... ... ... : ... .. . ... : ... .. 3 ... : ... .. . ... ... : ... .. 4 ... ... : ... .. 4 ... ... : ... .. . P80 ...
ROW 3E : ... .. . ... ... ... : ... .. . ... ... ... : ... .. . ... : ... .. 2 ... : ... .. . ... ... : ... .. . ... ... : ... .. . ... ... : ... .. . P7E ...
ROW 3F : ... .. . ... ... ... : ... .. . ... ... ... : ... .. . ... : ... .. 0 ... : ... .. . ... ... : ... .. . ... ... : ... .. . ... ... : ... .. . P7D ...
ROW 40 : E-3 00 A P78 ... ... : B-3 00 A P80 ... ... : D-6 00 . ... : B-# 00 F ... : ... .. . ... ... : E-2 01 6 ... ... : E-3 01 6 ... ... : C-4 01 8 P84 ...
ROW 41 : ... .. . P80 ... ... : C-4 00 A P7C ... ... : E-5 00 . ... : ... .. C ... : ... .. . ... ... : ... .. . ... ... : ... .. . ... ... : A#3 01 8 ... ...
ROW 42 : ... .. . P7D ... ... : B-3 00 A P85 ... ... : A-4 00 . ... : ... .. 6 ... : ... .. . ... ... : ... .. 5 ... ... : ... .. 5 ... ... : G#3 01 8 P87 ...
ROW 43 : D#3 00 A P86 ... ... : A#3 00 A P87 ... ... : G#4 00 . ... : ... .. 3 ... : ... .. . ... ... : ... .. 4 ... ... : ... .. 4 ... ... : G-3 01 8 P7C ...
ROW 44 : ... .. . P7A ... ... : ... .. . P7B ... ... : D#4 00 . ... : ... .. 2 ... : ... .. . ... ... : ... .. . ... ... : ... .. . ... ... : F-3 01 8 P84 ...
ROW 45 : D-3 00 A P83 ... ... : A-3 00 A P7D ... ... : ... .. . ... : ... .. 0 ... : ... .. . ... ... : ... .. . ... ... : ... .. . ... ... : E-3 01 8 P79 ...
ROW 46 : ... .. 1 P80 ... ... : ... .. 1 P7A ... ... : C-4 00 . P82 : 7-# 00 F ... : ... .. . ... ... : A-2 01 6 ... ... : A-3 01 6 ... ... : D-3 01 8 P86 ...
ROW 47 : ... .. . P88 ... ... : ... .. . P82 ... ... : A#3 00 . P7C : ... .. C ... : ... .. . ... ... : ... .. . ... ... : ... .. . ... ... : C#3 01 8 P7F ...
ROW 48 : D#3 00 1 P80 ... ... : A#3 00 1 P81 ... ... : G#3 00 . P79 : ... .. 6 ... : ... .. . ... ... : ... .. 5 ... ... : ... .. 5 ... ... : C-3 01 8 P79 ...
ROW 49 : E-3 00 1 P77 ... ... : B-3 00 1 P7F ... ... : F#3 00 . P7A : ... .. 3 ... : ... .. . ... ... : ... .. 4 ... ... : ... .. 4 ... ... : B-2 01 8 P76 ...
ROW 4A : ... .. . P80 ... ... : C-4 00 1 P7C ... ... : E-3 00 . P7F : ... .. 2 ... : ... .. . ... ... : ... .. . ... ... : ... .. . ... ... : A#2 01 8 ... ...
ROW 4B : ... .. . P7E ... ... : B-3 00 1 P86 ... ... : D-3 00 . P89 : ... .. 0 ... : ... .. . ... ... : ... .. . ... ... : ... .. . ... ... : A-2 01 8 P78 ...
ROW 4C : C-3 00 F P80 ... ... : G-3 00 F P81 ... ... : D-4 00 . P80 : B-# 00 F ... : ... .. . ... ... : E-3 01 6 ... ... : E-4 01 6 ... ... : D-4 01 F P82 ...
ROW 4D : ... .. E P89 ... ... : G#3 00 E P7A ... ... : ... .. . ... : ... .. C ... : ... .. . ... ... : ... .. . ... ... : ... .. . ... ... : ... .. D P83 ...
ROW 4E : C#3 00 D P7A ... ... : ... .. D P83 ... ... : ... .. . ... : ... .. 6 ... : ... .. . ... ... : ... .. 5 ... ... : ... .. 5 ... ... : ... .. 8 ... ...
ROW 4F : ... .. A P83 ... ... : A-3 00 A P7D ... ... : ... .. . ... : ... .. 3 ... : ... .. . ... ... : ... .. 4 ... ... : ... .. 4 ... ... : ... .. . P80 ...
ROW 50 : D-3 00 A P75 ... ... : ... .. . P81 ... ... : ... .. . ... : ... .. 2 ... : ... .. . ... ... : ... .. . ... ... : ... .. . ... ... : ... .. . P7F ...
ROW 51 : ... .. . P7E ... ... : ... .. . ... ... ... : ... .. . ... : ... .. 0 ... : ... .. . ... ... : ... .. . ... ... : ... .. . ... ... : ... .. . P7D ...
ROW 52 : ... .. . P80 ... ... : ... .. . ... ... ... : ... .. . ... : 9-# 00 F ... : ... .. . ... ... : F-3 01 6 ... ... : F-4 01 6 ... ... : ... .. . ... ...
ROW 53 : ... .. . ... ... ... : ... .. . ... ... ... : ... .. . ... : ... .. C ... : ... .. . ... ... : ... .. . ... ... : ... .. . ... ... : ... .. . P7E ...
ROW 54 : ... .. . ... ... ... : ... .. . ... ... ... : ... .. . ... : ... .. 6 ... : ... .. . ... ... : ... .. 5 ... ... : ... .. 5 ... ... : ... .. . P80 ...
ROW 55 : ... .. . ... ... ... : ... .. . ... ... ... : ... .. . ... : ... .. 3 ... : ... .. . ... ... : ... .. 4 ... ... : ... .. 4 ... ... : ... .. . P82 ...
ROW 56 : ... .. . ... ... ... : ... .. . ... ... ... : ... .. . ... : ... .. 2 ... : ... .. . ... ... : ... .. . ... ... : ... .. . ... ... : ... .. . P83 ...
ROW 57 : ... .. . ... ... ... : ... .. . ... ... ... : ... .. . ... : ... .. 0 ... : ... .. . ... ... : ... .. . ... ... : ... .. . ... ... : ... .. . ... ...
ROW 58 : D#3 00 A P78 ... ... : A#3 00 A P80 ... ... : C#6 00 . ... : 7-# 00 F ... : ... .. . ... ... : A-3 01 6 ... ... : A-4 01 6 ... ... : C-4 01 8 P7B ...
ROW 59 : ... .. . P80 ... ... : B-3 00 A P7A ... ... : D#5 00 . ... : ... .. C ... : ... .. . ... ... : ... .. . ... ... : ... .. . ... ... : A-3 01 8 P88 ...
ROW 5A : ... .. . P7D ... ... : A#3 00 A P85 ... ... : G#4 00 . ... : ... .. 6 ... : ... .. . ... ... : ... .. 5 ... ... : ... .. 5 ... ... : G-3 01 8 P89 ...
ROW 5B : D-3 00 A P86 ... ... : A-3 00 A P87 ... ... : G-4 00 . ... : ... .. 3 ... : ... .. . ... ... : ... .. 4 ... ... : ... .. 4 ... ... : F#3 01 8 P7D ...
ROW 5C : ... .. . P7A ... ... : ... .. . P7B ... ... : D-4 00 . ... : ... .. 2 ... : ... .. . ... ... : ... .. . ... ... : ... .. . ... ... : E-3 01 8 P88 ...
ROW 5D : C#3 00 A P85 ... ... : G#3 00 A P7E ... ... : ... .. . ... : ... .. 0 ... : ... .. . ... ... : ... .. . ... ... : ... .. . ... ... : D#3 01 8 P81 ...
ROW 5E : ... .. 1 P82 ... ... : ... .. 1 P7B ... ... : B-3 00 . P84 : 5-# 00 F ... : ... .. . ... ... : A#3 01 6 ... ... : A#4 01 6 ... ... : D-3 01 8 P7B ...
ROW 5F : ... .. . P8A ... ... : ... .. . P83 ... ... : A-3 00 . P80 : ... .. C ... : ... .. . ... ... : ... .. . ... ... : ... .. . ... ... : C#3 01 8 P76 ...
ROW 60 : D-3 00 1 P80 ... ... : A-3 00 1 P81 ... ... : G-3 00 . P7F : ... .. 6 ... : ... .. . ... ... : ... .. 5 ... ... : ... .. 5 ... ... : C-3 01 8 P72 ...
ROW 61 : D#3 00 1 P77 ... ... : A#3 00 1 P7F ... ... : F-3 00 . P82 : ... .. 3 ... : ... .. . ... ... : ... .. 4 ... ... : ... .. 4 ... ... : A#2 01 8 P8B ...
ROW 62 : ... .. . P80 ... ... : B-3 00 1 P7A ... ... : D#3 00 . P8A : ... .. 2 ... : ... .. . ... ... : ... .. . ... ... : ... .. . ... ... : A-2 01 8 ... ...
ROW 63 : ... .. . P7E ... ... : A#3 00 1 P86 ... ... : D-3 00 . P7F : ... .. 0 ... : ... .. . ... ... : ... .. . ... ... : ... .. . ... ... : G#2 01 8 ... ...
ROW 64 : C-3 00 F P80 ... ... : G-3 00 F P81 ... ... : A-2 00 . P80 : 4-# 00 F ... : ... .. . ... ... : E-4 01 6 ... ... : E-5 01 6 ... ... : A-2 01 F P7D ...
ROW 65 : ... .. E ... ... ... : ... .. E ... ... ... : ... .. . ... : ... .. C ... : ... .. . ... ... : ... .. . ... ... : ... .. . ... ... : ... .. D P7E ...
ROW 66 : ... .. D ... ... ... : ... .. D ... ... ... : ... .. . ... : ... .. 6 ... : ... .. . ... ... : ... .. 5 ... ... : ... .. 5 ... ... : ... .. 8 P80 ...
ROW 67 : ... .. 2 ... ... ... : ... .. 2 ... ... ... : ... .. . ... : ... .. 3 ... : ... .. . ... ... : ... .. 4 ... ... : ... .. 4 ... ... : ... .. . P81 ...
ROW 68 : ... .. . ... ... ... : ... .. . ... ... ... : ... .. . ... : ... .. 2 ... : ... .. . ... ... : ... .. . ... ... : ... .. . ... ... : ... .. . P83 ...
ROW 69 : ... .. . ... ... ... : ... .. . ... ... ... : --- .. . ... : ... .. 0 ... : ... .. . ... ... : ... .. . ... ... : ... .. . ... ... : --- .. . P7F ...
ROW 6A : D-3 00 F ... ... ... : A-3 00 F ... ... ... : A-2 00 . ... : 2-# 00 F ... : ... .. . ... ... : F-4 01 6 ... ... : F-5 01 6 ... ... : A-2 01 F P81 ...
ROW 6B : ... .. E ... ... ... : ... .. E ... ... ... : ... .. . ... : ... .. C ... : ... .. . ... ... : ... .. . ... ... : ... .. . ... ... : ... .. D P80 ...
ROW 6C : ... .. D ... ... ... : ... .. D ... ... ... : ... .. . ... : ... .. 6 ... : ... .. . ... ... : ... .. 5 ... ... : ... .. 5 ... ... : ... .. 8 P7E ...
ROW 6D : ... .. 2 ... ... ... : ... .. 2 ... ... ... : ... .. . ... : ... .. 3 ... : ... .. . ... ... : ... .. 4 ... ... : ... .. 4 ... ... : ... .. . P7D ...
ROW 6E : ... .. . ... ... ... : ... .. . ... ... ... : ... .. . ... : ... .. 2 ... : ... .. . ... ... : ... .. . ... ... : ... .. . ... ... : ... .. . ... ...
ROW 6F : ... .. . ... ... ... : ... .. . ... ... ... : --- .. . ... : ... .. 0 ... : ... .. . ... ... : ... .. . ... ... : ... .. . ... ... : --- .. . P81 ...
ROW 70 : G-3 00 F ... ... ... : D-4 00 F ... ... ... : F#5 00 . ... : 5-# 00 D ... : ... .. . ... ... : E-4 01 6 ... ... : E-5 01 6 ... ... : G-3 01 F ... ...
ROW 71 : ... .. E ... ... ... : ... .. E ... ... ... : G#4 00 . ... : ... .. . ... : ... .. . ... ... : ... .. . ... ... : ... .. . ... ... : ... .. D P83 ...
ROW 72 : ... .. D ... ... ... : ... .. D ... ... ... : C#4 00 . ... : 1-# 00 D ... : ... .. . ... ... : ... .. 5 ... ... : ... .. 5 ... ... : ... .. 8 ... ...
ROW 73 : ... .. A ... ... ... : ... .. A ... ... ... : C-4 00 . ... : F-# 00 6 ... : ... .. . ... ... : ... .. 4 ... ... : ... .. 4 ... ... : ... .. . P82 ...
ROW 74 : ... .. . ... ... ... : ... .. . ... ... ... : G-3 00 . ... : B-# 00 1 ... : ... .. . ... ... : ... .. . ... ... : ... .. . ... ... : ... .. . P80 ...
ROW 75 : ... .. . ... ... ... : ... .. . ... ... ... : ... .. . ... : ... .. 0 ... : ... .. . ... ... : ... .. . ... ... : ... .. . ... ... : --- .. . P7F ...
ROW 76 : A-3 00 F ... ... ... : E-4 00 F ... ... ... : A-3 00 . ... : 5-# 00 D ... : ... .. . ... ... : F-4 01 6 ... ... : F-5 01 6 ... ... : A-3 01 F P7D ...
ROW 77 : ... .. E ... ... ... : ... .. E ... ... ... : ... .. . ... : ... .. . ... : ... .. . ... ... : ... .. . ... ... : ... .. . ... ... : ... .. D ... ...
ROW 78 : ... .. D ... ... ... : ... .. D ... ... ... : ... .. . ... : 1-# 00 D ... : ... .. . ... ... : ... .. 5 ... ... : ... .. 5 ... ... : ... .. 8 P7F ...
ROW 79 : ... .. A ... ... ... : ... .. A ... ... ... : ... .. . ... : F-# 00 6 ... : ... .. . ... ... : ... .. 4 ... ... : ... .. 4 ... ... : ... .. . P81 ...
ROW 7A : ... .. . ... ... ... : ... .. . ... ... ... : ... .. . ... : B-# 00 1 ... : ... .. . ... ... : ... .. . ... ... : ... .. . ... ... : ... .. . P83 ...
ROW 7B : ... .. . ... ... ... : ... .. . ... ... ... : --- .. . ... : ... .. 0 ... : ... .. . ... ... : ... .. . ... ... : ... .. . ... ... : --- .. . P80 ...
ROW 7C : A#3 00 F ... ... ... : F-4 00 F ... ... ... : A#3 00 . ... : F-# 00 D ... : ... .. . ... ... : E-4 01 6 ... ... : E-5 01 6 ... ... : A#3 01 F P82 ...
ROW 7D : ... .. E ... ... ... : ... .. E ... ... ... : ... .. . ... : ... .. . ... : ... .. . ... ... : ... .. . ... ... : ... .. . ... ... : ... .. D P80 ...
ROW 7E : ... .. D ... ... ... : ... .. D ... ... ... : ... .. . ... : B-# 00 D ... : ... .. . ... ... : ... .. 5 ... ... : ... .. 5 ... ... : ... .. 8 P7E ...
ROW 7F : ... .. 2 ... ... ... : ... .. 2 ... ... ... : ... .. . ... : 9-# 00 6 ... : ... .. . ... ... : ... .. 4 ... ... : ... .. 4 ... ... : ... .. . P7D ...
ROW 80 : ... .. . ... ... ... : ... .. . ... ... ... : ... .. . ... : 5-# 00 1 ... : ... .. . ... ... : ... .. . ... ... : ... .. . ... ... : ... .. . ... ...
ROW 81 : ... .. . ... ... ... : ... .. . ... ... ... : --- .. . ... : ... .. 0 ... : ... .. . ... ... : ... .. . ... ... : ... .. . ... ... : --- .. . P81 ...
ROW 82 : D#4 00 F ... ... ... : A#4 00 F ... ... ... : D#4 00 . ... : C-# 00 D ... : ... .. . ... ... : A-3 01 6 ... ... : A-4 01 6 ... ... : D#4 01 F P80 ...
ROW 83 : ... .. E ... ... ... : ... .. E ... ... ... : ... .. . ... : ... .. . ... : ... .. . ... ... : ... .. . ... ... : ... .. . ... ... : ... .. D P83 ...
ROW 84 : ... .. D ... ... ... : ... .. D ... ... ... : ... .. . ... : 8-# 00 D ... : ... .. . ... ... : ... .. 5 ... ... : ... .. 5 ... ... : ... .. 8 ... ...
ROW 85 : ... .. A ... ... ... : ... .. A ... ... ... : ... .. . ... : 6-# 00 6 ... : ... .. . ... ... : ... .. 4 ... ... : ... .. 4 ... ... : ... .. . P82 ...
ROW 86 : ... .. . ... ... ... : ... .. . ... ... ... : ... .. . ... : 2-# 00 1 ... : ... .. . ... ... : ... .. . ... ... : ... .. . ... ... : ... .. . P80 ...
ROW 87 : ... .. . ... ... ... : ... .. . ... ... ... : --- .. . ... : ... .. 0 ... : ... .. . ... ... : ... .. . ... ... : ... .. . ... ... : --- .. . ... ...
ROW 88 : C#4 00 F ... ... ... : G#4 00 F ... ... ... : C-6 00 . ... : C-# 00 D ... : ... .. . ... ... : E-3 01 6 ... ... : E-4 01 6 ... ... : C#4 01 F P7D ...
ROW 89 : ... .. E ... ... ... : ... .. E ... ... ... : D-5 00 . ... : ... .. . ... : ... .. . ... ... : ... .. . ... ... : ... .. . ... ... : ... .. D ... ...
ROW 8A : ... .. D ... ... ... : ... .. D ... ... ... : G-4 00 . ... : 8-# 00 D ... : ... .. . ... ... : ... .. 5 ... ... : ... .. 5 ... ... : ... .. 8 P7F ...
ROW 8B : ... .. A ... ... ... : ... .. A ... ... ... : F#4 00 . ... : 6-# 00 6 ... : ... .. . ... ... : ... .. 4 ... ... : ... .. 4 ... ... : ... .. . P80 ...
ROW 8C : ... .. . ... ... ... : ... .. . ... ... ... : C#4 00 . ... : 2-# 00 1 ... : ... .. . ... ... : ... .. . ... ... : ... .. . ... ... : ... .. . P82 ...
ROW 8D : ... .. . ... ... ... : ... .. . ... ... ... : ... .. . ... : ... .. 0 ... : ... .. . ... ... : ... .. . ... ... : ... .. . ... ... : --- .. . ... ...
ROW 8E : A-3 00 F ... ... ... : E-4 00 F ... ... ... : A-3 00 . ... : 5-# 00 D ... : ... .. . ... ... : D#3 01 6 ... ... : D#4 01 6 ... ... : A-3 01 F P83 ...
ROW 8F : ... .. E ... ... ... : ... .. E ... ... ... : ... .. . ... : ... .. . ... : ... .. . ... ... : ... .. . ... ... : ... .. . ... ... : ... .. D P80 ...
ROW 90 : ... .. D ... ... ... : ... .. D ... ... ... : ... .. . ... : 1-# 00 D ... : ... .. . ... ... : ... .. 5 ... ... : ... .. 5 ... ... : ... .. 8 P7F ...
ROW 91 : ... .. A ... ... ... : ... .. A ... ... ... : ... .. . ... : F-# 00 6 ... : ... .. . ... ... : ... .. 4 ... ... : ... .. 4 ... ... : ... .. . P7D ...
ROW 92 : ... .. . ... ... ... : ... .. . ... ... ... : ... .. . ... : B-# 00 1 ... : ... .. . ... ... : ... .. . ... ... : ... .. . ... ... : ... .. . ... ...
ROW 93 : ... .. . ... ... ... : ... .. . ... ... ... : --- .. . ... : ... .. 0 ... : ... .. . ... ... : ... .. . ... ... : ... .. . ... ... : --- .. . P80 ...
ROW 94 : G-3 00 F ... ... ... : D-4 00 F ... ... ... : G-3 00 . ... : 5-# 00 D ... : ... .. . ... ... : A-2 01 6 ... ... : A-3 01 6 ... ... : G-3 01 F ... ...
ROW 95 : ... .. E ... ... ... : ... .. E ... ... ... : ... .. . ... : ... .. . ... : ... .. . ... ... : ... .. . ... ... : ... .. . ... ... : ... .. D P82 ...
ROW 96 : ... .. D ... ... ... : ... .. D ... ... ... : ... .. . ... : 1-# 00 D ... : ... .. . ... ... : ... .. 5 ... ... : ... .. 5 ... ... : ... .. 8 P83 ...
ROW 97 : ... .. 2 ... ... ... : ... .. 2 ... ... ... : ... .. . ... : F-# 00 6 ... : ... .. . ... ... : ... .. 4 ... ... : ... .. 4 ... ... : ... .. . ... ...
ROW 98 : ... .. . ... ... ... : ... .. . ... ... ... : ... .. . ... : B-# 00 1 ... : ... .. . ... ... : ... .. . ... ... : ... .. . ... ... : ... .. . P81 ...
ROW 99 : ... .. . ... ... ... : ... .. . ... ... ... : --- .. . ... : ... .. 0 ... : ... .. . ... ... : ... .. . ... ... : ... .. . ... ... : --- .. . P80 ...
ROW 9A : D#3 00 F ... ... ... : A#3 00 F ... ... ... : D#3 00 . ... : 2-# 00 D ... : ... .. . ... ... : E-2 01 6 ... ... : E-3 01 6 ... ... : D#3 01 F P7D ...
ROW 9B : ... .. E ... ... ... : ... .. E ... ... ... : ... .. . ... : ... .. . ... : ... .. . ... ... : ... .. . ... ... : ... .. . ... ... : ... .. D ... ...
ROW 9C : ... .. D ... ... ... : ... .. D ... ... ... : ... .. . ... : E-# 00 D ... : ... .. . ... ... : ... .. 5 ... ... : ... .. 5 ... ... : ... .. 8 P7E ...
ROW 9D : ... .. A ... ... ... : ... .. A ... ... ... : ... .. . ... : C-# 00 6 ... : ... .. . ... ... : ... .. 4 ... ... : ... .. 4 ... ... : ... .. . P80 ...
ROW 9E : ... .. . ... ... ... : ... .. . ... ... ... : ... .. . ... : 8-# 00 1 ... : ... .. . ... ... : ... .. . ... ... : ... .. . ... ... : ... .. . P82 ...
ROW 9F : ... .. . ... ... ... : ... .. . ... ... ... : --- .. . ... : ... .. 0 ... : ... .. . ... ... : ... .. . ... ... : ... .. . ... ... : --- .. . P81 ...
ROW A0 : C#3 00 F ... ... ... : G#3 00 F ... ... ... : C-5 00 . ... : 6-# 00 D ... : ... .. . ... ... : D#2 01 6 ... ... : D#3 01 6 ... ... : C#3 01 F P83 ...
ROW A1 : ... .. E ... ... ... : ... .. E ... ... ... : D-4 00 . ... : ... .. . ... : ... .. . ... ... : ... .. . ... ... : ... .. . ... ... : ... .. D P81 ...
ROW A2 : ... .. D ... ... ... : ... .. D ... ... ... : G-3 00 . ... : 2-# 00 D ... : ... .. . ... ... : ... .. 5 ... ... : ... .. 5 ... ... : ... .. 8 P80 ...
ROW A3 : ... .. 2 ... ... ... : ... .. 2 ... ... ... : F#3 00 . ... : 0-# 00 6 ... : ... .. . ... ... : ... .. 4 ... ... : ... .. 4 ... ... : ... .. . P7D ...
ROW A4 : ... .. . ... ... ... : ... .. . ... ... ... : C#3 00 . ... : C-# 00 1 ... : ... .. . ... ... : ... .. . ... ... : ... .. . ... ... : ... .. . ... ...
ROW A5 : ... .. . ... ... ... : ... .. . ... ... ... : ... .. . ... : ... .. 0 ... : ... .. . ... ... : ... .. . ... ... : ... .. . ... ... : --- .. . ... ...
ROW A6 : A-2 00 F ... ... ... : E-3 00 F ... ... ... : A-2 00 . ... : 6-# 00 D ... : ... .. . ... ... : E-2 01 6 ... ... : E-3 01 6 ... ... : A-2 01 F P80 ...
ROW A7 : ... .. E ... ... ... : ... .. E ... ... ... : ... .. . ... : ... .. . ... : ... .. . ... ... : ... .. . ... ... : ... .. . ... ... : ... .. D P81 ...
ROW A8 : ... .. D ... ... ... : ... .. D ... ... ... : ... .. . ... : 2-# 00 D ... : ... .. . ... ... : ... .. 5 ... ... : ... .. 5 ... ... : ... .. 8 P83 ...
ROW A9 : ... .. A ... ... ... : ... .. A ... ... ... : ... .. . ... : 0-# 00 6 ... : ... .. . ... ... : ... .. 4 ... ... : ... .. 4 ... ... : ... .. . ... ...
ROW AA : ... .. . ... ... ... : ... .. . ... ... ... : ... .. . ... : C-# 00 1 ... : ... .. . ... ... : ... .. . ... ... : ... .. . ... ... : ... .. . P81 ...
ROW AB : ... .. . ... ... ... : ... .. . ... ... ... : --- .. . ... : ... .. 0 ... : ... .. . ... ... : ... .. . ... ... : ... .. . ... ... : --- .. . ... ...
ROW AC : G-2 00 F ... ... ... : D-3 00 F ... ... ... : G-2 00 . ... : 4-# 00 D ... : ... .. . ... ... : A-2 01 6 ... ... : A-3 01 6 ... ... : G-2 01 F P7E ...
ROW AD : ... .. E ... ... ... : ... .. E ... ... ... : ... .. . ... : ... .. . ... : ... .. . ... ... : ... .. . ... ... : ... .. . ... ... : ... .. D P7D ...
ROW AE : ... .. D ... ... ... : ... .. D ... ... ... : ... .. . ... : 0-# 00 D ... : ... .. . ... ... : ... .. 5 ... ... : ... .. 5 ... ... : ... .. 8 ... ...
ROW AF : ... .. A ... ... ... : ... .. A ... ... ... : ... .. . ... : E-# 00 6 ... : ... .. . ... ... : ... .. 4 ... ... : ... .. 4 ... ... : ... .. . P80 ...
ROW B0 : ... .. . ... ... ... : ... .. . ... ... ... : ... .. . ... : A-# 00 1 ... : ... .. . ... ... : ... .. . ... ... : ... .. . ... ... : ... .. . P81 ...
ROW B1 : ... .. . ... ... ... : ... .. . ... ... ... : --- .. . ... : ... .. 0 ... : ... .. . ... ... : ... .. . ... ... : ... .. . ... ... : --- .. . P7E ...
ROW B2 : D#2 00 F ... ... ... : A#2 00 F ... ... ... : D#2 00 . ... : 4-# 00 D ... : ... .. . ... ... : A#2 01 6 ... ... : A#3 01 6 ... ... : D#2 01 F P83 ...
ROW B3 : ... .. E ... ... ... : ... .. E ... ... ... : ... .. . ... : ... .. . ... : ... .. . ... ... : ... .. . ... ... : ... .. . ... ... : ... .. D P82 ...
ROW B4 : ... .. D ... ... ... : ... .. D ... ... ... : ... .. . ... : 0-# 00 D ... : ... .. . ... ... : ... .. 5 ... ... : ... .. 5 ... ... : ... .. 8 P80 ...
ROW B5 : ... .. 2 ... ... ... : ... .. 2 ... ... ... : ... .. . ... : E-# 00 6 ... : ... .. . ... ... : ... .. 4 ... ... : ... .. 4 ... ... : ... .. . P7E ...
ROW B6 : ... .. . ... ... ... : ... .. . ... ... ... : ... .. . ... : A-# 00 1 ... : ... .. . ... ... : ... .. . ... ... : ... .. . ... ... : ... .. . P7D ...
ROW B7 : ... .. . ... ... ... : ... .. . ... ... ... : --- .. . ... : ... .. 0 ... : ... .. . ... ... : ... .. . ... ... : ... .. . ... ... : --- .. . P81 ...
ROW B8 : C#2 00 F ... ... ... : G#2 00 F ... ... ... : C-4 00 . ... : 9-# 00 D ... : ... .. . ... ... : E-3 01 6 ... ... : E-4 01 6 ... ... : C#2 01 F P7F ...
ROW B9 : ... .. E ... ... ... : ... .. E ... ... ... : D-3 00 . ... : ... .. B ... : ... .. . ... ... : ... .. . ... ... : ... .. . ... ... : ... .. D P81 ...
ROW BA : ... .. D ... ... ... : ... .. D ... ... ... : G-2 00 . ... : ... .. . ... : ... .. . ... ... : ... .. 5 ... ... : ... .. 5 ... ... : ... .. 8 P83 ...
ROW BB : ... .. A ... ... ... : ... .. A ... ... ... : F#2 00 . ... : ... .. A ... : ... .. . ... ... : ... .. 4 ... ... : ... .. 4 ... ... : ... .. . ... ...
ROW BC : ... .. . ... ... ... : ... .. . ... ... ... : C#2 00 . ... : ... .. 8 ... : ... .. . ... ... : ... .. . ... ... : ... .. . ... ... : ... .. . P82 ...
ROW BD : ... .. . ... ... ... : ... .. . ... ... ... : ... .. . ... : ... .. 7 ... : ... .. . ... ... : ... .. . ... ... : ... .. . ... ... : --- .. . ... ...
ROW BE : D#2 00 F ... ... ... : A#2 00 F ... ... ... : D#2 00 . ... : 7-# 00 8 ... : ... .. . ... ... : F-3 01 6 ... ... : F-4 01 6 ... ... : D#2 01 F P7E ...
ROW BF : ... .. E ... ... ... : ... .. E ... ... ... : ... .. . ... : ... .. 6 ... : ... .. . ... ... : ... .. . ... ... : ... .. . ... ... : ... .. D P7D ...
ROW C0 : ... .. D ... ... ... : ... .. D ... ... ... : ... .. . ... : ... .. 3 ... : ... .. . ... ... : ... .. 5 ... ... : ... .. 5 ... ... : ... .. 8 ... ...
ROW C1 : ... .. 2 ... ... ... : ... .. 2 ... ... ... : ... .. . ... : ... .. 1 ... : ... .. . ... ... : ... .. 4 ... ... : ... .. 4 ... ... : ... .. . P7F ...
ROW C2 : ... .. . ... ... ... : ... .. . ... ... ... : ... .. . ... : ... .. . ... : ... .. . ... ... : ... .. . ... ... : ... .. . ... ... : ... .. . P80 ...
ROW C3 : ... .. . ... ... ... : ... .. . ... ... ... : --- .. . ... : ... .. 0 ... : ... .. . ... ... : ... .. . ... ... : ... .. . ... ... : --- .. . ... ...
ROW C4 : G-2 00 F ... ... ... : D-3 00 F ... ... ... : G-2 00 . ... : A-# 00 F ... : ... .. . ... ... : A-3 01 6 ... ... : A-4 01 6 ... ... : G-2 01 F P83 ...
ROW C5 : ... .. E ... ... ... : ... .. E ... ... ... : ... .. . ... : ... .. C ... : ... .. . ... ... : ... .. . ... ... : ... .. . ... ... : ... .. D P82 ...
ROW C6 : ... .. D ... ... ... : ... .. D ... ... ... : ... .. . ... : ... .. 6 ... : ... .. . ... ... : ... .. 5 ... ... : ... .. 5 ... ... : ... .. 8 P80 ...
ROW C7 : ... .. 2 ... ... ... : ... .. 2 ... ... ... : ... .. . ... : ... .. 3 ... : ... .. . ... ... : ... .. 4 ... ... : ... .. 4 ... ... : ... .. . P7F ...
ROW C8 : ... .. . ... ... ... : ... .. . ... ... ... : ... .. . ... : ... .. 2 ... : ... .. . ... ... : ... .. . ... ... : ... .. . ... ... : ... .. . P7D ...
ROW C9 : ... .. . ... ... ... : ... .. . ... ... ... : --- .. . ... : ... .. 0 ... : ... .. . ... ... : ... .. . ... ... : ... .. . ... ... : --- .. . P82 ...
ROW CA : A#2 00 F ... ... ... : F-3 00 F ... ... ... : A#2 00 . ... : E-# 00 8 ... : ... .. . ... ... : A#3 01 6 ... ... : A#4 01 6 ... ... : A#2 01 F P7F ...
ROW CB : ... .. E ... ... ... : ... .. E ... ... ... : ... .. . ... : ... .. 6 ... : ... .. . ... ... : ... .. . ... ... : ... .. . ... ... : ... .. D P80 ...
ROW CC : ... .. D ... ... ... : ... .. D ... ... ... : ... .. . ... : ... .. 3 ... : ... .. . ... ... : ... .. 5 ... ... : ... .. 5 ... ... : ... .. 8 P82 ...
ROW CD : ... .. 2 ... ... ... : ... .. 2 ... ... ... : ... .. . ... : ... .. 1 ... : ... .. . ... ... : ... .. 4 ... ... : ... .. 4 ... ... : ... .. . P83 ...
ROW CE : ... .. . ... ... ... : ... .. . ... ... ... : ... .. . ... : ... .. . ... : ... .. . ... ... : ... .. . ... ... : ... .. . ... ... : ... .. . ... ...
ROW CF : ... .. . ... ... ... : ... .. . ... ... ... : --- .. . ... : ... .. 0 ... : ... .. . ... ... : ... .. . ... ... : ... .. . ... ... : --- .. . P81 ...
ROW D0 : A-2 00 F ... ... ... : E-3 00 F ... ... ... : G#3 00 . ... : 1-# 00 F ... : ... .. . ... ... : A-3 01 6 ... ... : A-4 01 6 ... ... : A-1 01 F P7F ...
ROW D1 : ... .. E ... ... ... : ... .. E ... ... ... : A#2 00 . ... : ... .. C ... : ... .. . ... ... : ... .. . ... ... : ... .. . ... ... : ... .. D P7D ...
ROW D2 : ... .. D ... ... ... : ... .. D ... ... ... : D#2 00 . ... : ... .. 6 ... : ... .. . ... ... : ... .. 5 ... ... : ... .. 5 ... ... : ... .. 8 ... ...
ROW D3 : ... .. 2 ... ... ... : ... .. 2 ... ... ... : D-2 00 . ... : ... .. 3 ... : ... .. . ... ... : ... .. 4 ... ... : ... .. 4 ... ... : ... .. . P7E ...
ROW D4 : ... .. . ... ... ... : ... .. . ... ... ... : A-1 00 . ... : ... .. 2 ... : ... .. . ... ... : ... .. . ... ... : ... .. . ... ... : ... .. . P80 ...
ROW D5 : ... .. . ... ... ... : ... .. . ... ... ... : ... .. . ... : ... .. 0 ... : ... .. . ... ... : ... .. . ... ... : ... .. . ... ... : --- .. . P7F ...
ROW D6 : ... .. F ... ... ... : ... .. F ... ... ... : ... .. . ... : 9-# 00 8 ... : ... .. . ... ... : A#3 01 6 ... ... : A#4 01 6 ... ... : A-1 01 F P83 ...
ROW D7 : ... .. E ... ... ... : ... .. E ... ... ... : ... .. . ... : ... .. 6 ... : ... .. . ... ... : ... .. . ... ... : ... .. . ... ... : ... .. D ... ...
ROW D8 : ... .. D ... ... ... : ... .. D ... ... ... : ... .. . ... : ... .. 3 ... : ... .. . ... ... : ... .. 5 ... ... : ... .. 5 ... ... : ... .. 8 P81 ...
ROW D9 : ... .. 2 ... ... ... : ... .. 2 ... ... ... : ... .. . ... : ... .. 1 ... : ... .. . ... ... : ... .. 4 ... ... : ... .. 4 ... ... : ... .. . P7F ...
ROW DA : ... .. . ... ... ... : ... .. . ... ... ... : ... .. . ... : ... .. . ... : ... .. . ... ... : ... .. . ... ... : ... .. . ... ... : ... .. . P7D ...
ROW DB : ... .. . ... ... ... : ... .. . ... ... ... : --- .. . ... : ... .. 0 ... : ... .. . ... ... : ... .. . ... ... : ... .. . ... ... : --- .. . P84 ...
ROW DC : G-2 00 F ... ... ... : D-3 00 F ... ... ... : A-1 00 . ... : B-# 00 F ... : ... .. . ... ... : A-3 01 6 ... ... : A-4 01 6 ... ... : A-1 01 F P7E ...
ROW DD : ... .. E ... ... ... : ... .. E ... ... ... : ... .. . ... : ... .. C ... : ... .. . ... ... : ... .. . ... ... : ... .. . ... ... : ... .. D P80 ...
ROW DE : ... .. D ... ... ... : ... .. D ... ... ... : ... .. . ... : ... .. 6 ... : ... .. . ... ... : ... .. 5 ... ... : ... .. 5 ... ... : ... .. 8 P82 ...
ROW DF : ... .. A ... ... ... : ... .. A ... ... ... : ... .. . ... : ... .. 3 ... : ... .. . ... ... : ... .. 4 ... ... : ... .. 4 ... ... : ... .. . P83 ...
ROW E0 : ... .. . ... ... ... : ... .. . ... ... ... : ... .. . ... : ... .. 2 ... : ... .. . ... ... : ... .. . ... ... : ... .. . ... ... : ... .. . ... ...
ROW E1 : ... .. . ... ... ... : ... .. . ... ... ... : --- .. . ... : ... .. 0 ... : ... .. . ... ... : ... .. . ... ... : ... .. . ... ... : --- .. . P82 ...
ROW E2 : A-2 00 F ... ... ... : E-3 00 F ... ... ... : A-1 00 . ... : 9-# 00 8 ... : ... .. . ... ... : E-3 01 6 ... ... : E-4 01 6 ... ... : A-1 01 F P80 ...
ROW E3 : ... .. E ... ... ... : ... .. E ... ... ... : ... .. . ... : ... .. 6 ... : ... .. . ... ... : ... .. . ... ... : ... .. . ... ... : ... .. D P7D ...
ROW E4 : ... .. D ... ... ... : ... .. D ... ... ... : ... .. . ... : ... .. 3 ... : ... .. . ... ... : ... .. 5 ... ... : ... .. 5 ... ... : ... .. 8 ... ...
ROW E5 : ... .. 2 ... ... ... : ... .. 2 ... ... ... : ... .. . ... : ... .. 1 ... : ... .. . ... ... : ... .. 4 ... ... : ... .. 4 ... ... : ... .. . P7E ...
ROW E6 : ... .. . ... ... ... : ... .. . ... ... ... : ... .. . ... : ... .. . ... : ... .. . ... ... : ... .. . ... ... : ... .. . ... ... : ... .. . P80 ...
ROW E7 : ... .. . ... ... ... : ... .. . ... ... ... : --- .. . ... : ... .. 0 ... : ... .. . ... ... : ... .. . ... ... : ... .. . ... ... : --- .. . P7F ...
ROW E8 : A#2 00 F ... ... ... : F-3 00 F ... ... ... : F#4 00 . ... : ... .. D ... : ... .. . ... ... : D#3 01 6 ... ... : D#4 01 6 ... ... : G-2 01 F P83 ...
ROW E9 : ... .. E ... ... ... : ... .. E ... ... ... : G#3 00 . ... : ... .. B ... : ... .. . ... ... : ... .. . ... ... : ... .. . ... ... : ... .. D ... ...
ROW EA : ... .. D ... ... ... : ... .. D ... ... ... : C#3 00 . ... : ... .. . ... : ... .. . ... ... : ... .. 5 ... ... : ... .. 5 ... ... : ... .. 8 P81 ...
ROW EB : ... .. A ... ... ... : ... .. A ... ... ... : C-3 00 . ... : ... .. A ... : ... .. . ... ... : ... .. 4 ... ... : ... .. 4 ... ... : ... .. . P80 ...
ROW EC : ... .. . ... ... ... : ... .. . ... ... ... : G-2 00 . ... : ... .. 8 ... : ... .. . ... ... : ... .. . ... ... : ... .. . ... ... : ... .. . P7E ...
ROW ED : ... .. . ... ... ... : ... .. . ... ... ... : ... .. . ... : ... .. 7 ... : ... .. . ... ... : ... .. . ... ... : ... .. . ... ... : --- .. . P83 ...
ROW EE : A-2 00 F ... ... ... : E-3 00 F ... ... ... : A-2 00 . ... : 7-# 00 8 ... : ... .. . ... ... : A-2 01 6 ... ... : A-3 01 6 ... ... : A-2 01 F P7D ...
ROW EF : ... .. E ... ... ... : ... .. E ... ... ... : ... .. . ... : ... .. 6 ... : ... .. . ... ... : ... .. . ... ... : ... .. . ... ... : ... .. D P80 ...
ROW F0 : ... .. D ... ... ... : ... .. D ... ... ... : ... .. . ... : ... .. 3 ... : ... .. . ... ... : ... .. 5 ... ... : ... .. 5 ... ... : ... .. 8 P81 ...
ROW F1 : ... .. 2 ... ... ... : ... .. 2 ... ... ... : ... .. . ... : ... .. 1 ... : ... .. . ... ... : ... .. 4 ... ... : ... .. 4 ... ... : ... .. . P83 ...
ROW F2 : ... .. . ... ... ... : ... .. . ... ... ... : ... .. . ... : ... .. . ... : ... .. . ... ... : ... .. . ... ... : ... .. . ... ... : ... .. . ... ...
ROW F3 : ... .. . ... ... ... : ... .. . ... ... ... : --- .. . ... : ... .. 0 ... : ... .. . ... ... : ... .. . ... ... : ... .. . ... ... : --- .. . P7F ...
ROW F4 : C#3 00 F ... ... ... : G#3 00 F ... ... ... : D#3 00 . ... : A-# 00 F ... : ... .. . ... ... : E-2 01 6 ... ... : E-3 01 6 ... ... : D#3 01 F P80 ...
ROW F5 : ... .. E P89 ... ... : A-3 00 E P7B ... ... : ... .. . ... : ... .. C ... : ... .. . ... ... : ... .. . ... ... : ... .. . ... ... : ... .. D P7E ...
ROW F6 : D-3 00 D P7B ... ... : ... .. D P84 ... ... : ... .. . ... : ... .. 6 ... : ... .. . ... ... : ... .. 5 ... ... : ... .. 5 ... ... : ... .. 8 P7D ...
ROW F7 : ... .. A P84 ... ... : A#3 00 A P7F ... ... : ... .. . ... : ... .. 3 ... : ... .. . ... ... : ... .. 4 ... ... : ... .. 4 ... ... : ... .. . ... ...
ROW F8 : D#3 00 A P78 ... ... : ... .. . P81 ... ... : ... .. . ... : ... .. 2 ... : ... .. . ... ... : ... .. . ... ... : ... .. . ... ... : ... .. . P7F ...
ROW F9 : ... .. . P80 ... ... : ... .. . ... ... ... : ... .. . ... : ... .. 0 ... : ... .. . ... ... : ... .. . ... ... : ... .. . ... ... : ... .. . P81 ...
ROW FA : ... .. . ... ... ... : ... .. . ... ... ... : ... .. . ... : E-# 00 8 ... : ... .. . ... ... : D#2 01 6 ... ... : D#3 01 6 ... ... : ... .. . P83 ...
ROW FB : ... .. . ... ... ... : ... .. . ... ... ... : ... .. . ... : ... .. 6 ... : ... .. . ... ... : ... .. . ... ... : ... .. . ... ... : ... .. . ... ...
ROW FC : ... .. . ... ... ... : ... .. . ... ... ... : ... .. . ... : ... .. 3 ... : ... .. . ... ... : ... .. 5 ... ... : ... .. 5 ... ... : ... .. . P82 ...
ROW FD : ... .. . ... ... ... : ... .. . ... ... ... : ... .. . ... : ... .. 1 ... : ... .. . ... ... : ... .. 4 ... ... : ... .. 4 ... ... : ... .. . P80 ...
ROW FE : ... .. . ... ... ... : ... .. . ... ... ... : ... .. . ... : ... .. . ... : ... .. . ... ... : ... .. . ... ... : ... .. . ... ... : ... .. . P7E ...
ROW FF : ... .. . ... ... ... : ... .. . ... ... ... : ... .. . ... : ... .. 0 ... : ... .. . ... ... : ... .. . ... ... : ... .. . ... ... : ... .. . P7D ...

PATTERN 09
ROW 00 : E-3 00 A P78 ... ... : B-3 00 A P80 ... ... : D-5 00 . ... : 1-# 00 F ... : ... .. . ... ... : E-2 01 6 ... ... : E-3 01 6 ... ... : D-3 01 8 P75 ...
ROW 01 : ... .. . P80 ... ... : C-4 00 A P7C ... ... : E-4 00 . ... : ... .. C ... : ... .. . ... ... : ... .. . ... ... : ... .. . ... ... : C-3 01 8 P8D ...
ROW 02 : ... .. . P7D ... ... : B-3 00 A P85 ... ... : A-3 00 . ... : ... .. 6 ... : ... .. . ... ... : ... .. 5 ... ... : ... .. 5 ... ... : B-2 01 8 P8B ...
ROW 03 : D#3 00 A P86 ... ... : A#3 00 A P87 ... ... : G#3 00 . ... : ... .. 3 ... : ... .. . ... ... : ... .. 4 ... ... : ... .. 4 ... ... : A#2 01 8 P8C ...
ROW 04 : ... .. . P7A ... ... : ... .. . P7B ... ... : D#3 00 . ... : ... .. 2 ... : ... .. . ... ... : ... .. . ... ... : ... .. . ... ... : A-2 01 8 P8D ...
ROW 05 : D-3 00 A P83 ... ... : A-3 00 A P7D ... ... : ... .. . ... : ... .. 0 ... : ... .. . ... ... : ... .. . ... ... : ... .. . ... ... : G#2 01 8 P8F ...
ROW 06 : ... .. 1 P80 ... ... : ... .. 1 P7A ... ... : D-3 00 . P75 : 9-# 00 8 ... : ... .. . ... ... : A-2 01 6 ... ... : A-3 01 6 ... ... : G-2 01 8 P91 ...
ROW 07 : ... .. . P88 ... ... : ... .. . P82 ... ... : C-3 00 . P84 : ... .. 6 ... : ... .. . ... ... : ... .. . ... ... : ... .. . ... ... : ... .. . P70 ...
ROW 08 : D#3 00 1 P80 ... ... : A#3 00 1 P81 ... ... : B-2 00 . P7D : ... .. 3 ... : ... .. . ... ... : ... .. 5 ... ... : ... .. 5 ... ... : F#2 01 8 P75 ...
ROW 09 : E-3 00 1 P77 ... ... : B-3 00 1 P7F ... ... : A#2 00 . P78 : ... .. 1 ... : ... .. . ... ... : ... .. 4 ... ... : ... .. 4 ... ... : F-2 01 8 P7E ...
ROW 0A : ... .. . P80 ... ... : C-4 00 1 P7C ... ... : A-2 00 . P74 : ... .. . ... : ... .. . ... ... : ... .. . ... ... : ... .. . ... ... : E-2 01 8 P8C ...
ROW 0B : ... .. . P7E ... ... : B-3 00 1 P86 ... ... : G#2 00 . P73 : ... .. 0 ... : ... .. . ... ... : ... .. . ... ... : ... .. . ... ... : ... .. . P6D ...
ROW 0C : C-3 00 F P80 ... ... : G-3 00 F P81 ... ... : D-3 00 . P80 : 1-# 00 F ... : ... .. . ... ... : E-3 01 6 ... ... : E-4 01 6 ... ... : D-3 01 F P82 ...
ROW 0D : ... .. E P89 ... ... : G#3 00 E P7A ... ... : ... .. . ... : ... .. C ... : ... .. . ... ... : ... .. . ... ... : ... .. . ... ... : ... .. D P83 ...
ROW 0E : C#3 00 D P7A ... ... : ... .. D P83 ... ... : ... .. . ... : ... .. 6 ... : ... .. . ... ... : ... .. 5 ... ... : ... .. 5 ... ... : ... .. 8 ... ...
ROW 0F : ... .. A P83 ... ... : A-3 00 A P7D ... ... : ... .. . ... : ... .. 3 ... : ... .. . ... ... : ... .. 4 ... ... : ... .. 4 ... ... : ... .. . P80 ...
ROW 10 : D-3 00 A P75 ... ... : ... .. . P81 ... ... : ... .. . ... : ... .. 2 ... : ... .. . ... ... : ... .. . ... ... : ... .. . ... ... : ... .. . P7F ...
ROW 11 : ... .. . P7E ... ... : ... .. . ... ... ... : ... .. . ... : ... .. 0 ... : ... .. . ... ... : ... .. . ... ... : ... .. . ... ... : ... .. . P7D ...
ROW 12 : ... .. . P80 ... ... : ... .. . ... ... ... : ... .. . ... : 9-# 00 8 ... : ... .. . ... ... : F-3 01 6 ... ... : F-4 01 6 ... ... : ... .. . ... ...
ROW 13 : ... .. . ... ... ... : ... .. . ... ... ... : ... .. . ... : ... .. 6 ... : ... .. . ... ... : ... .. . ... ... : ... .. . ... ... : ... .. . P7E ...
ROW 14 : ... .. . ... ... ... : ... .. . ... ... ... : ... .. . ... : ... .. 3 ... : ... .. . ... ... : ... .. 5 ... ... : ... .. 5 ... ... : ... .. . P80 ...
ROW 15 : ... .. . ... ... ... : ... .. . ... ... ... : ... .. . ... : ... .. 1 ... : ... .. . ... ... : ... .. 4 ... ... : ... .. 4 ... ... : ... .. . P82 ...
ROW 16 : ... .. . ... ... ... : ... .. . ... ... ... : ... .. . ... : ... .. . ... : ... .. . ... ... : ... .. . ... ... : ... .. . ... ... : ... .. . P83 ...
ROW 17 : ... .. . ... ... ... : ... .. . ... ... ... : ... .. . ... : ... .. 0 ... : ... .. . ... ... : ... .. . ... ... : ... .. . ... ... : ... .. . ... ...
ROW 18 : D#3 00 A P78 ... ... : A#3 00 A P80 ... ... : C#5 00 . ... : ... .. D ... : ... .. . ... ... : A-3 01 6 ... ... : A-4 01 6 ... ... : C#3 01 8 P7B ...
ROW 19 : ... .. . P80 ... ... : B-3 00 A P7A ... ... : D#4 00 . ... : ... .. B ... : ... .. . ... ... : ... .. . ... ... : ... .. . ... ... : C-3 01 8 P75 ...
ROW 1A : ... .. . P7D ... ... : A#3 00 A P85 ... ... : G#3 00 . ... : ... .. . ... : ... .. . ... ... : ... .. 5 ... ... : ... .. 5 ... ... : A#2 01 8 P8E ...
ROW 1B : D-3 00 A P86 ... ... : A-3 00 A P87 ... ... : G-3 00 . ... : ... .. A ... : ... .. . ... ... : ... .. 4 ... ... : ... .. 4 ... ... : A-2 01 8 P8F ...
ROW 1C : ... .. . P7A ... ... : ... .. . P7B ... ... : D-3 00 . ... : ... .. 8 ... : ... .. . ... ... : ... .. . ... ... : ... .. . ... ... : ... .. . P70 ...
ROW 1D : C#3 00 A P85 ... ... : G#3 00 A P7E ... ... : ... .. . ... : ... .. 7 ... : ... .. . ... ... : ... .. . ... ... : ... .. . ... ... : G#2 01 8 P75 ...
ROW 1E : ... .. 1 P82 ... ... : ... .. 1 P7B ... ... : C#3 00 . P77 : 7-# 00 8 ... : ... .. . ... ... : A#3 01 6 ... ... : A#4 01 6 ... ... : G-2 01 8 P7B ...
ROW 1F : ... .. . P8A ... ... : ... .. . P83 ... ... : B-2 00 . P88 : ... .. 6 ... : ... .. . ... ... : ... .. . ... ... : ... .. . ... ... : F#2 01 8 P83 ...
ROW 20 : D-3 00 1 P80 ... ... : A-3 00 1 P81 ... ... : A#2 00 . P83 : ... .. 3 ... : ... .. . ... ... : ... .. 5 ... ... : ... .. 5 ... ... : F-2 01 8 P8C ...
ROW 21 : D#3 00 1 P77 ... ... : A#3 00 1 P7F ... ... : A-2 00 . P7F : ... .. 1 ... : ... .. . ... ... : ... .. 4 ... ... : ... .. 4 ... ... : E-2 01 8 P96 ...
ROW 22 : ... .. . P80 ... ... : B-3 00 1 P7A ... ... : G#2 00 . P7E : ... .. . ... : ... .. . ... ... : ... .. . ... ... : ... .. . ... ... : ... .. . P75 ...
ROW 23 : ... .. . P7E ... ... : A#3 00 1 P86 ... ... : G-2 00 . ... : ... .. 0 ... : ... .. . ... ... : ... .. . ... ... : ... .. . ... ... : D#2 01 8 P80 ...
ROW 24 : C-3 00 F P80 ... ... : G-3 00 F P81 ... ... : A-2 00 . P80 : A-# 00 F ... : ... .. . ... ... : E-4 01 6 ... ... : E-5 01 6 ... ... : A-2 01 F P7D ...
ROW 25 : ... .. E ... ... ... : ... .. E ... ... ... : ... .. . ... : ... .. C ... : ... .. . ... ... : ... .. . ... ... : ... .. . ... ... : ... .. D P7E ...
ROW 26 : ... .. D ... ... ... : ... .. D ... ... ... : ... .. . ... : ... .. 6 ... : ... .. . ... ... : ... .. 5 ... ... : ... .. 5 ... ... : ... .. 8 P80 ...
ROW 27 : ... .. 2 ... ... ... : ... .. 2 ... ... ... : ... .. . ... : ... .. 3 ... : ... .. . ... ... : ... .. 4 ... ... : ... .. 4 ... ... : ... .. . P81 ...
ROW 28 : ... .. . ... ... ... : ... .. . ... ... ... : ... .. . ... : ... .. 2 ... : ... .. . ... ... : ... .. . ... ... : ... .. . ... ... : ... .. . P83 ...
ROW 29 : ... .. . ... ... ... : ... .. . ... ... ... : --- .. . ... : ... .. 0 ... : ... .. . ... ... : ... .. . ... ... : ... .. . ... ... : --- .. . P7F ...
ROW 2A : D-3 00 F ... ... ... : A-3 00 F ... ... ... : A-2 00 . ... : E-# 00 8 ... : ... .. . ... ... : F-4 01 6 ... ... : F-5 01 6 ... ... : A-2 01 F P81 ...
ROW 2B : ... .. E ... ... ... : ... .. E ... ... ... : ... .. . ... : ... .. 6 ... : ... .. . ... ... : ... .. . ... ... : ... .. . ... ... : ... .. D P80 ...
ROW 2C : ... .. D ... ... ... : ... .. D ... ... ... : ... .. . ... : ... .. 3 ... : ... .. . ... ... : ... .. 5 ... ... : ... .. 5 ... ... : ... .. 8 P7E ...
ROW 2D : ... .. 2 ... ... ... : ... .. 2 ... ... ... : ... .. . ... : ... .. 1 ... : ... .. . ... ... : ... .. 4 ... ... : ... .. 4 ... ... : ... .. . P7D ...
ROW 2E : ... .. . ... ... ... : ... .. . ... ... ... : ... .. . ... : ... .. . ... : ... .. . ... ... : ... .. . ... ... : ... .. . ... ... : ... .. . ... ...
ROW 2F : ... .. . ... ... ... : ... .. . ... ... ... : --- .. . ... : ... .. 0 ... : ... .. . ... ... : ... .. . ... ... : ... .. . ... ... : --- .. . P81 ...
ROW 30 : C-3 00 F ... ... ... : G-3 00 F ... ... ... : G#3 00 . ... : 1-# 00 F ... : ... .. . ... ... : E-4 01 6 ... ... : E-5 01 6 ... ... : A-1 01 F ... ...
ROW 31 : ... .. E ... ... ... : ... .. E ... ... ... : A#2 00 . ... : ... .. C ... : ... .. . ... ... : ... .. . ... ... : ... .. . ... ... : ... .. D P83 ...
ROW 32 : ... .. D ... ... ... : ... .. D ... ... ... : D#2 00 . ... : ... .. 6 ... : ... .. . ... ... : ... .. 5 ... ... : ... .. 5 ... ... : ... .. 8 ... ...
ROW 33 : ... .. A ... ... ... : ... .. A ... ... ... : D-2 00 . ... : ... .. 3 ... : ... .. . ... ... : ... .. 4 ... ... : ... .. 4 ... ... : ... .. . P82 ...
ROW 34 : ... .. . ... ... ... : ... .. . ... ... ... : A-1 00 . ... : ... .. 2 ... : ... .. . ... ... : ... .. . ... ... : ... .. . ... ... : ... .. . P80 ...
ROW 35 : ... .. . ... ... ... : ... .. . ... ... ... : ... .. . ... : ... .. 0 ... : ... .. . ... ... : ... .. . ... ... : ... .. . ... ... : --- .. . P7F ...
ROW 36 : F#2 00 F ... ... ... : C#3 00 F ... ... ... : ... .. . ... : 9-# 00 8 ... : ... .. . ... ... : F-4 01 6 ... ... : F-5 01 6 ... ... : A-1 01 F P7D ...
ROW 37 : ... .. E ... ... ... : ... .. E ... ... ... : ... .. . ... : ... .. 6 ... : ... .. . ... ... : ... .. . ... ... : ... .. . ... ... : ... .. D ... ...
ROW 38 : ... .. D ... ... ... : ... .. D ... ... ... : ... .. . ... : ... .. 3 ... : ... .. . ... ... : ... .. 5 ... ... : ... .. 5 ... ... : ... .. 8 P7F ...
ROW 39 : ... .. A ... ... ... : ... .. A ... ... ... : ... .. . ... : ... .. 1 ... : ... .. . ... ... : ... .. 4 ... ... : ... .. 4 ... ... : ... .. . P81 ...
ROW 3A : ... .. . ... ... ... : ... .. . ... ... ... : ... .. . ... : ... .. . ... : ... .. . ... ... : ... .. . ... ... : ... .. . ... ... : ... .. . P83 ...
ROW 3B : ... .. . ... ... ... : ... .. . ... ... ... : --- .. . ... : ... .. 0 ... : ... .. . ... ... : ... .. . ... ... : ... .. . ... ... : --- .. . P82 ...
ROW 3C : F-2 00 A P84 ... ... : C-3 00 A P79 ... ... : A-1 00 . ... : B-# 00 F ... : ... .. . ... ... : E-4 01 6 ... ... : E-5 01 6 ... ... : A-1 01 F ... ...
ROW 3D : E-2 00 A P8A ... ... : A#2 00 A P8D ... ... : ... .. . ... : ... .. C ... : ... .. . ... ... : ... .. . ... ... : ... .. . ... ... : ... .. D P80 ...
ROW 3E : D#2 00 A P92 ... ... : A-2 00 A P89 ... ... : ... .. . ... : ... .. 6 ... : ... .. . ... ... : ... .. 5 ... ... : ... .. 5 ... ... : ... .. 8 P7E ...
ROW 3F : ... .. . P72 ... ... : G#2 00 A P88 ... ... : ... .. . ... : ... .. 3 ... : ... .. . ... ... : ... .. 4 ... ... : ... .. 4 ... ... : ... .. . P7D ...
ROW 40 : D-2 00 A P7D ... ... : G-2 00 A ... ... ... : ... .. . ... : ... .. 2 ... : ... .. . ... ... : ... .. . ... ... : ... .. . ... ... : ... .. . ... ...
ROW 41 : C#2 00 A P8A ... ... : F#2 00 A P8A ... ... : --- .. . ... : ... .. 0 ... : ... .. . ... ... : ... .. . ... ... : ... .. . ... ... : --- .. . P84 ...
ROW 42 : F#2 00 F P80 ... ... : C#3 00 F P81 ... ... : A-1 00 . ... : 9-# 00 8 ... : ... .. . ... ... : A-3 01 6 ... ... : A-4 01 6 ... ... : A-1 01 F P80 ...
ROW 43 : ... .. E ... ... ... : ... .. E ... ... ... : ... .. . ... : ... .. 6 ... : ... .. . ... ... : ... .. . ... ... : ... .. . ... ... : ... .. D P83 ...
ROW 44 : ... .. D ... ... ... : ... .. D ... ... ... : ... .. . ... : ... .. 3 ... : ... .. . ... ... : ... .. 5 ... ... : ... .. 5 ... ... : ... .. 8 ... ...
ROW 45 : ... .. 2 ... ... ... : ... .. 2 ... ... ... : ... .. . ... : ... .. 1 ... : ... .. . ... ... : ... .. 4 ... ... : ... .. 4 ... ... : ... .. . P82 ...
ROW 46 : ... .. . ... ... ... : ... .. . ... ... ... : ... .. . ... : ... .. . ... : ... .. . ... ... : ... .. . ... ... : ... .. . ... ... : ... .. . P80 ...
ROW 47 : ... .. . ... ... ... : ... .. . ... ... ... : --- .. . ... : ... .. 0 ... : ... .. . ... ... : ... .. . ... ... : ... .. . ... ... : --- .. . P7F ...
ROW 48 : G-2 00 F ... ... ... : D-3 00 F ... ... ... : F#4 00 . ... : ... .. D ... : ... .. . ... ... : E-3 01 6 ... ... : E-4 01 6 ... ... : G-2 01 F P7D ...
ROW 49 : ... .. E ... ... ... : ... .. E ... ... ... : G#3 00 . ... : ... .. B ... : ... .. . ... ... : ... .. . ... ... : ... .. . ... ... : ... .. D ... ...
ROW 4A : ... .. D ... ... ... : ... .. D ... ... ... : C#3 00 . ... : ... .. . ... : ... .. . ... ... : ... .. 5 ... ... : ... .. 5 ... ... : ... .. 8 P7F ...
ROW 4B : ... .. 2 ... ... ... : ... .. 2 ... ... ... : C-3 00 . ... : ... .. A ... : ... .. . ... ... : ... .. 4 ... ... : ... .. 4 ... ... : ... .. . P80 ...
ROW 4C : ... .. . ... ... ... : ... .. . ... ... ... : G-2 00 . ... : ... .. 8 ... : ... .. . ... ... : ... .. . ... ... : ... .. . ... ... : ... .. . P82 ...
ROW 4D : ... .. . ... ... ... : ... .. . ... ... ... : ... .. . ... : ... .. 7 ... : ... .. . ... ... : ... .. . ... ... : ... .. . ... ... : --- .. . P7F ...
ROW 4E : C-2 00 F ... ... ... : G-2 00 F ... ... ... : A-2 00 . ... : 7-# 00 8 ... : ... .. . ... ... : D#3 01 6 ... ... : D#4 01 6 ... ... : A-2 01 F P83 ...
ROW 4F : ... .. E ... ... ... : ... .. E ... ... ... : ... .. . ... : ... .. 6 ... : ... .. . ... ... : ... .. . ... ... : ... .. . ... ... : ... .. D P80 ...
ROW 50 : ... .. D ... ... ... : ... .. D ... ... ... : ... .. . ... : ... .. 3 ... : ... .. . ... ... : ... .. 5 ... ... : ... .. 5 ... ... : ... .. 8 P7F ...
ROW 51 : ... .. 8 ... ... ... : ... .. 8 ... ... ... : ... .. . ... : ... .. 1 ... : ... .. . ... ... : ... .. 4 ... ... : ... .. 4 ... ... : ... .. . P7D ...
ROW 52 : ... .. . ... ... ... : ... .. . ... ... ... : ... .. . ... : ... .. . ... : ... .. . ... ... : ... .. . ... ... : ... .. . ... ... : ... .. . ... ...
ROW 53 : ... .. . ... ... ... : ... .. . ... ... ... : --- .. . ... : ... .. 0 ... : ... .. . ... ... : ... .. . ... ... : ... .. . ... ... : --- .. . P81 ...
ROW 54 : ... .. 7 ... ... ... : ... .. 7 ... ... ... : A-2 00 . ... : A-# 00 F ... : ... .. . ... ... : A-2 01 6 ... ... : A-3 01 6 ... ... : A-2 01 F P80 ...
ROW 55 : ... .. . ... ... ... : ... .. . ... ... ... : ... .. . ... : ... .. C ... : ... .. . ... ... : ... .. . ... ... : ... .. . ... ... : ... .. D P82 ...
ROW 56 : ... .. . ... ... ... : ... .. . ... ... ... : ... .. . ... : ... .. 6 ... : ... .. . ... ... : ... .. 5 ... ... : ... .. 5 ... ... : ... .. 8 P83 ...
ROW 57 : ... .. 6 ... ... ... : ... .. 6 ... ... ... : ... .. . ... : ... .. 3 ... : ... .. . ... ... : ... .. 4 ... ... : ... .. 4 ... ... : ... .. . ... ...
ROW 58 : ... .. . ... ... ... : ... .. . ... ... ... : ... .. . ... : ... .. 2 ... : ... .. . ... ... : ... .. . ... ... : ... .. . ... ... : ... .. . P81 ...
ROW 59 : ... .. . ... ... ... : ... .. . ... ... ... : --- .. . ... : ... .. 0 ... : ... .. . ... ... : ... .. . ... ... : ... .. . ... ... : --- .. . ... ...
ROW 5A : ... .. 5 ... ... ... : ... .. 5 ... ... ... : A-2 00 . ... : E-# 00 8 ... : ... .. . ... ... : E-2 01 6 ... ... : E-3 01 6 ... ... : A-2 01 F P7D ...
ROW 5B : ... .. . ... ... ... : ... .. . ... ... ... : ... .. . ... : ... .. 6 ... : ... .. . ... ... : ... .. . ... ... : ... .. . ... ... : ... .. D ... ...
ROW 5C : ... .. . ... ... ... : ... .. . ... ... ... : ... .. . ... : ... .. 3 ... : ... .. . ... ... : ... .. 5 ... ... : ... .. 5 ... ... : ... .. 8 P7E ...
ROW 5D : ... .. . ... ... ... : ... .. . ... ... ... : ... .. . ... : ... .. 1 ... : ... .. . ... ... : ... .. 4 ... ... : ... .. 4 ... ... : ... .. . P80 ...
ROW 5E : ... .. . ... ... ... : ... .. . ... ... ... : ... .. . ... : ... .. . ... : ... .. . ... ... : ... .. . ... ... : ... .. . ... ... : ... .. . P82 ...
ROW 5F : ... .. . ... ... ... : ... .. . ... ... ... : --- .. . ... : ... .. 0 ... : ... .. . ... ... : ... .. . ... ... : ... .. . ... ... : --- .. . ... ...
ROW 60 : C#2 00 6 P6B ... ... : G#2 00 6 P7C ... ... : A-4 00 . ... : 1-# 00 F ... : ... .. . ... ... : D#2 01 6 ... ... : D#3 01 6 ... ... : A#2 01 F P83 ...
ROW 61 : ... .. . P7B ... ... : ... .. . P8C ... ... : B-3 00 . ... : ... .. C ... : ... .. . ... ... : ... .. . ... ... : ... .. . ... ... : ... .. D P81 ...
ROW 62 : ... .. . P74 ... ... : ... .. . P85 ... ... : E-3 00 . ... : ... .. 6 ... : ... .. . ... ... : ... .. 5 ... ... : ... .. 5 ... ... : ... .. 8 P80 ...
ROW 63 : C-2 00 6 P8C ... ... : G-2 00 6 P8D ... ... : D#3 00 . ... : ... .. 3 ... : ... .. . ... ... : ... .. 4 ... ... : ... .. 4 ... ... : ... .. . P7D ...
ROW 64 : ... .. . P74 ... ... : ... .. . P75 ... ... : A#2 00 . ... : ... .. 2 ... : ... .. . ... ... : ... .. . ... ... : ... .. . ... ... : ... .. . ... ...
ROW 65 : B-1 00 6 P8F ... ... : F#2 00 6 P7F ... ... : ... .. . ... : ... .. 0 ... : ... .. . ... ... : ... .. . ... ... : ... .. . ... ... : --- .. . P7F ...
ROW 66 : ... .. 7 P88 ... ... : ... .. 7 P78 ... ... : ... .. . ... : 9-# 00 8 ... : ... .. . ... ... : E-2 01 6 ... ... : E-3 01 6 ... ... : A#2 01 F P80 ...
ROW 67 : ... .. . P98 ... ... : ... .. . P88 ... ... : ... .. . ... : ... .. 6 ... : ... .. . ... ... : ... .. . ... ... : ... .. . ... ... : ... .. D P81 ...
ROW 68 : C-2 00 7 P80 ... ... : G-2 00 7 P81 ... ... : ... .. . ... : ... .. 3 ... : ... .. . ... ... : ... .. 5 ... ... : ... .. 5 ... ... : ... .. 8 P83 ...
ROW 69 : ... .. 8 P98 ... ... : G#2 00 8 P79 ... ... : ... .. . ... : ... .. 1 ... : ... .. . ... ... : ... .. 4 ... ... : ... .. 4 ... ... : ... .. . ... ...
ROW 6A : C#2 00 8 P7A ... ... : ... .. . P8B ... ... : ... .. . ... : ... .. . ... : ... .. . ... ... : ... .. . ... ... : ... .. . ... ... : ... .. . P81 ...
ROW 6B : ... .. . P76 ... ... : ... .. . P87 ... ... : --- .. . ... : ... .. 0 ... : ... .. . ... ... : ... .. . ... ... : ... .. . ... ... : --- .. . ... ...
ROW 6C : C-2 00 8 P90 ... ... : ... .. . P71 ... ... : A#2 00 . ... : 1-# 00 F ... : ... .. . ... ... : A-2 01 6 ... ... : A-3 01 6 ... ... : A#2 01 F P7E ...
ROW 6D : ... .. . P78 ... ... : G-2 00 8 P79 ... ... : ... .. . ... : ... .. C ... : ... .. . ... ... : ... .. . ... ... : ... .. . ... ... : ... .. D P7D ...
ROW 6E : B-1 00 8 P91 ... ... : F#2 00 8 P81 ... ... : ... .. . ... : ... .. 6 ... : ... .. . ... ... : ... .. 5 ... ... : ... .. 5 ... ... : ... .. 8 ... ...
ROW 6F : ... .. 9 P88 ... ... : ... .. 9 P78 ... ... : ... .. . ... : ... .. 3 ... : ... .. . ... ... : ... .. 4 ... ... : ... .. 4 ... ... : ... .. . P80 ...
ROW 70 : ... .. . P94 ... ... : ... .. . P84 ... ... : ... .. . ... : ... .. 2 ... : ... .. . ... ... : ... .. . ... ... : ... .. . ... ... : ... .. . P81 ...
ROW 71 : C-2 00 9 P7C ... ... : G-2 00 9 P7D ... ... : --- .. . ... : ... .. 0 ... : ... .. . ... ... : ... .. . ... ... : ... .. . ... ... : --- .. . ... ...
ROW 72 : ... .. A P94 ... ... : G#2 00 A P75 ... ... : C-3 00 . ... : 9-# 00 8 ... : ... .. . ... ... : A#2 01 6 ... ... : A#3 01 6 ... ... : C-3 01 F P83 ...
ROW 73 : C#2 00 A P78 ... ... : ... .. . P89 ... ... : ... .. . ... : ... .. 6 ... : ... .. . ... ... : ... .. . ... ... : ... .. . ... ... : ... .. D P82 ...
ROW 74 : ... .. . ... ... ... : ... .. . ... ... ... : ... .. . ... : ... .. 3 ... : ... .. . ... ... : ... .. 5 ... ... : ... .. 5 ... ... : ... .. 8 P80 ...
ROW 75 : C-2 00 A P94 ... ... : ... .. . P75 ... ... : ... .. . ... : ... .. 1 ... : ... .. . ... ... : ... .. 4 ... ... : ... .. 4 ... ... : ... .. . P7E ...
ROW 76 : ... .. . P7C ... ... : G-2 00 A P7D ... ... : ... .. . ... : ... .. . ... : ... .. . ... ... : ... .. . ... ... : ... .. . ... ... : ... .. . P7D ...
ROW 77 : B-1 00 A P94 ... ... : F#2 00 A P84 ... ... : --- .. . ... : ... .. 0 ... : ... .. . ... ... : ... .. . ... ... : ... .. . ... ... : --- .. . P7B ...
ROW 78 : D#2 00 F P80 ... ... : A#2 00 F P81 ... ... : C-5 00 . ... : ... .. D ... : ... .. . ... ... : E-3 01 6 ... ... : E-4 01 6 ... ... : C#3 01 F P7F ...
ROW 79 : ... .. E ... ... ... : ... .. E ... ... ... : D-4 00 . ... : ... .. B ... : ... .. . ... ... : ... .. . ... ... : ... .. . ... ... : ... .. D P81 ...
ROW 7A : ... .. D ... ... ... : ... .. D ... ... ... : G-3 00 . ... : ... .. . ... : ... .. . ... ... : ... .. 5 ... ... : ... .. 5 ... ... : ... .. 8 P83 ...
ROW 7B : ... .. A ... ... ... : ... .. A ... ... ... : F#3 00 . ... : ... .. A ... : ... .. . ... ... : ... .. 4 ... ... : ... .. 4 ... ... : ... .. . ... ...
ROW 7C : ... .. . ... ... ... : ... .. . ... ... ... : C#3 00 . ... : ... .. 8 ... : ... .. . ... ... : ... .. . ... ... : ... .. . ... ... : ... .. . P82 ...
ROW 7D : ... .. . ... ... ... : ... .. . ... ... ... : ... .. . ... : ... .. 7 ... : ... .. . ... ... : ... .. . ... ... : ... .. . ... ... : --- .. . ... ...
ROW 7E : D#3 00 F ... ... ... : A#3 00 F ... ... ... : ... .. . ... : 7-# 00 8 ... : ... .. . ... ... : F-3 01 6 ... ... : F-4 01 6 ... ... : C#3 01 F P7E ...
ROW 7F : ... .. E ... ... ... : ... .. E ... ... ... : ... .. . ... : ... .. 6 ... : ... .. . ... ... : ... .. . ... ... : ... .. . ... ... : ... .. D P7D ...
ROW 80 : ... .. D ... ... ... : ... .. D ... ... ... : ... .. . ... : ... .. 3 ... : ... .. . ... ... : ... .. 5 ... ... : ... .. 5 ... ... : ... .. 8 ... ...
ROW 81 : ... .. 2 ... ... ... : ... .. 2 ... ... ... : ... .. . ... : ... .. 1 ... : ... .. . ... ... : ... .. 4 ... ... : ... .. 4 ... ... : ... .. . P7F ...
ROW 82 : ... .. . ... ... ... : ... .. . ... ... ... : ... .. . ... : ... .. . ... : ... .. . ... ... : ... .. . ... ... : ... .. . ... ... : ... .. . P80 ...
ROW 83 : ... .. . ... ... ... : ... .. . ... ... ... : --- .. . ... : ... .. 0 ... : ... .. . ... ... : ... .. . ... ... : ... .. . ... ... : --- .. . ... ...
ROW 84 : D-3 00 F ... ... ... : A-3 00 F ... ... ... : D#3 00 . ... : A-# 00 F ... : ... .. . ... ... : A-3 01 6 ... ... : A-4 01 6 ... ... : D#3 01 F P83 ...
ROW 85 : ... .. E ... ... ... : ... .. E ... ... ... : ... .. . ... : ... .. C ... : ... .. . ... ... : ... .. . ... ... : ... .. . ... ... : ... .. D P82 ...
ROW 86 : ... .. D ... ... ... : ... .. D ... ... ... : ... .. . ... : ... .. 6 ... : ... .. . ... ... : ... .. 5 ... ... : ... .. 5 ... ... : ... .. 8 P80 ...
ROW 87 : ... .. 2 ... ... ... : ... .. 2 ... ... ... : ... .. . ... : ... .. 3 ... : ... .. . ... ... : ... .. 4 ... ... : ... .. 4 ... ... : ... .. . P7F ...
ROW 88 : ... .. . ... ... ... : ... .. . ... ... ... : ... .. . ... : ... .. 2 ... : ... .. . ... ... : ... .. . ... ... : ... .. . ... ... : ... .. . P7D ...
ROW 89 : ... .. . ... ... ... : ... .. . ... ... ... : --- .. . ... : ... .. 0 ... : ... .. . ... ... : ... .. . ... ... : ... .. . ... ... : --- .. . P7C ...
ROW 8A : A-2 00 F ... ... ... : E-3 00 F ... ... ... : D#3 00 . ... : E-# 00 8 ... : ... .. . ... ... : A#3 01 6 ... ... : A#4 01 6 ... ... : D#3 01 F P7F ...
ROW 8B : ... .. E ... ... ... : ... .. E ... ... ... : ... .. . ... : ... .. 6 ... : ... .. . ... ... : ... .. . ... ... : ... .. . ... ... : ... .. D P80 ...
ROW 8C : ... .. D ... ... ... : ... .. D ... ... ... : ... .. . ... : ... .. 3 ... : ... .. . ... ... : ... .. 5 ... ... : ... .. 5 ... ... : ... .. 8 P82 ...
ROW 8D : ... .. A ... ... ... : ... .. A ... ... ... : ... .. . ... : ... .. 1 ... : ... .. . ... ... : ... .. 4 ... ... : ... .. 4 ... ... : ... .. . P83 ...
ROW 8E : ... .. . ... ... ... : ... .. . ... ... ... : ... .. . ... : ... .. . ... : ... .. . ... ... : ... .. . ... ... : ... .. . ... ... : ... .. . ... ...
ROW 8F : ... .. . ... ... ... : ... .. . ... ... ... : --- .. . ... : ... .. 0 ... : ... .. . ... ... : ... .. . ... ... : ... .. . ... ... : --- .. . P82 ...
ROW 90 : G#2 00 A P7F ... ... : D#3 00 A P76 ... ... : G#4 00 . ... : 1-# 00 F ... : ... .. . ... ... : A-3 01 6 ... ... : A-4 01 6 ... ... : A-2 01 F P7F ...
ROW 91 : G-2 00 A ... ... ... : C#3 00 A P82 ... ... : A#3 00 . ... : ... .. C ... : ... .. . ... ... : ... .. . ... ... : ... .. . ... ... : ... .. D P7D ...
ROW 92 : F#2 00 A P81 ... ... : C-3 00 A P7A ... ... : D#3 00 . ... : ... .. 6 ... : ... .. . ... ... : ... .. 5 ... ... : ... .. 5 ... ... : ... .. 8 ... ...
ROW 93 : F-2 00 A P85 ... ... : B-2 00 A P73 ... ... : D-3 00 . ... : ... .. 3 ... : ... .. . ... ... : ... .. 4 ... ... : ... .. 4 ... ... : ... .. . P7E ...
ROW 94 : E-2 00 A P8B ... ... : A-2 00 A P8A ... ... : A-2 00 . ... : ... .. 2 ... : ... .. . ... ... : ... .. . ... ... : ... .. . ... ... : ... .. . P80 ...
ROW 95 : D#2 00 A P93 ... ... : G#2 00 A P89 ... ... : ... .. . ... : ... .. 0 ... : ... .. . ... ... : ... .. . ... ... : ... .. . ... ... : --- .. . ... ...
ROW 96 : ... .. . P73 ... ... : G-2 00 A ... ... ... : ... .. . ... : 9-# 00 8 ... : ... .. . ... ... : A#3 01 6 ... ... : A#4 01 6 ... ... : A-2 01 F P83 ...
ROW 97 : D-2 00 A P7E ... ... : F#2 00 A P8B ... ... : ... .. . ... : ... .. 6 ... : ... .. . ... ... : ... .. . ... ... : ... .. . ... ... : ... .. D ... ...
ROW 98 : C#2 00 A P8B ... ... : F-2 00 A P8F ... ... : ... .. . ... : ... .. 3 ... : ... .. . ... ... : ... .. 5 ... ... : ... .. 5 ... ... : ... .. 8 P81 ...
ROW 99 : ... .. . P6B ... ... : ... .. . P6F ... ... : ... .. . ... : ... .. 1 ... : ... .. . ... ... : ... .. 4 ... ... : ... .. 4 ... ... : ... .. . P7F ...
ROW 9A : C-2 00 A P7B ... ... : E-2 00 A P75 ... ... : ... .. . ... : ... .. . ... : ... .. . ... ... : ... .. . ... ... : ... .. . ... ... : ... .. . P7D ...
ROW 9B : B-1 00 A P8E ... ... : D#2 00 A P7D ... ... : --- .. . ... : ... .. 0 ... : ... .. . ... ... : ... .. . ... ... : ... .. . ... ... : --- .. . P81 ...
ROW 9C : G-2 00 F P80 ... ... : D-3 00 F P81 ... ... : A-2 00 . ... : B-# 00 F ... : ... .. . ... ... : A-3 01 6 ... ... : A-4 01 6 ... ... : A-2 01 F P7E ...
ROW 9D : ... .. E ... ... ... : ... .. E ... ... ... : ... .. . ... : ... .. C ... : ... .. . ... ... : ... .. . ... ... : ... .. . ... ... : ... .. D P80 ...
ROW 9E : ... .. D ... ... ... : ... .. D ... ... ... : ... .. . ... : ... .. 6 ... : ... .. . ... ... : ... .. 5 ... ... : ... .. 5 ... ... : ... .. 8 P82 ...
ROW 9F : ... .. A ... ... ... : ... .. A ... ... ... : ... .. . ... : ... .. 3 ... : ... .. . ... ... : ... .. 4 ... ... : ... .. 4 ... ... : ... .. . P83 ...
ROW A0 : ... .. . ... ... ... : ... .. . ... ... ... : ... .. . ... : ... .. 2 ... : ... .. . ... ... : ... .. . ... ... : ... .. . ... ... : ... .. . ... ...
ROW A1 : ... .. . ... ... ... : ... .. . ... ... ... : --- .. . ... : ... .. 0 ... : ... .. . ... ... : ... .. . ... ... : ... .. . ... ... : --- .. . P7F ...
ROW A2 : A-2 00 F ... ... ... : E-3 00 F ... ... ... : A-2 00 . ... : 9-# 00 8 ... : ... .. . ... ... : E-3 01 6 ... ... : E-4 01 6 ... ... : A-2 01 F P80 ...
ROW A3 : ... .. E ... ... ... : ... .. E ... ... ... : ... .. . ... : ... .. 6 ... : ... .. . ... ... : ... .. . ... ... : ... .. . ... ... : ... .. D P7D ...
ROW A4 : ... .. D ... ... ... : ... .. D ... ... ... : ... .. . ... : ... .. 3 ... : ... .. . ... ... : ... .. 5 ... ... : ... .. 5 ... ... : ... .. 8 ... ...
ROW A5 : ... .. 2 ... ... ... : ... .. 2 ... ... ... : ... .. . ... : ... .. 1 ... : ... .. . ... ... : ... .. 4 ... ... : ... .. 4 ... ... : ... .. . P7E ...
ROW A6 : ... .. . ... ... ... : ... .. . ... ... ... : ... .. . ... : ... .. . ... : ... .. . ... ... : ... .. . ... ... : ... .. . ... ... : ... .. . P80 ...
ROW A7 : ... .. . ... ... ... : ... .. . ... ... ... : --- .. . ... : ... .. 0 ... : ... .. . ... ... : ... .. . ... ... : ... .. . ... ... : --- .. . ... ...
ROW A8 : A#2 00 F ... ... ... : F-3 00 F ... ... ... : F#5 00 . ... : ... .. D ... : ... .. . ... ... : D#3 01 6 ... ... : D#4 01 6 ... ... : G-3 01 F P83 ...
ROW A9 : ... .. E ... ... ... : ... .. E ... ... ... : G#4 00 . ... : ... .. B ... : ... .. . ... ... : ... .. . ... ... : ... .. . ... ... : ... .. D ... ...
ROW AA : ... .. D ... ... ... : ... .. D ... ... ... : C#4 00 . ... : ... .. . ... : ... .. . ... ... : ... .. 5 ... ... : ... .. 5 ... ... : ... .. 8 P81 ...
ROW AB : ... .. A ... ... ... : ... .. A ... ... ... : C-4 00 . ... : ... .. A ... : ... .. . ... ... : ... .. 4 ... ... : ... .. 4 ... ... : ... .. . P80 ...
ROW AC : ... .. . ... ... ... : ... .. . ... ... ... : G-3 00 . ... : ... .. 8 ... : ... .. . ... ... : ... .. . ... ... : ... .. . ... ... : ... .. . P7E ...
ROW AD : ... .. . ... ... ... : ... .. . ... ... ... : ... .. . ... : ... .. 7 ... : ... .. . ... ... : ... .. . ... ... : ... .. . ... ... : --- .. . P81 ...
ROW AE : A-2 00 F ... ... ... : E-3 00 F ... ... ... : A-3 00 . ... : 7-# 00 8 ... : ... .. . ... ... : A-2 01 6 ... ... : A-3 01 6 ... ... : A-3 01 F P7D ...
ROW AF : ... .. E ... ... ... : ... .. E ... ... ... : ... .. . ... : ... .. 6 ... : ... .. . ... ... : ... .. . ... ... : ... .. . ... ... : ... .. D P80 ...
ROW B0 : ... .. D ... ... ... : ... .. D ... ... ... : ... .. . ... : ... .. 3 ... : ... .. . ... ... : ... .. 5 ... ... : ... .. 5 ... ... : ... .. 8 P81 ...
ROW B1 : ... .. 2 ... ... ... : ... .. 2 ... ... ... : ... .. . ... : ... .. 1 ... : ... .. . ... ... : ... .. 4 ... ... : ... .. 4 ... ... : ... .. . P83 ...
ROW B2 : ... .. . ... ... ... : ... .. . ... ... ... : ... .. . ... : ... .. . ... : ... .. . ... ... : ... .. . ... ... : ... .. . ... ... : ... .. . ... ...
ROW B3 : ... .. . ... ... ... : ... .. . ... ... ... : --- .. . ... : ... .. 0 ... : ... .. . ... ... : ... .. . ... ... : ... .. . ... ... : --- .. . P80 ...
ROW B4 : C#3 00 F ... ... ... : G#3 00 F ... ... ... : D#4 00 . ... : A-# 00 F ... : ... .. . ... ... : E-2 01 6 ... ... : E-3 01 6 ... ... : D#4 01 F ... ...
ROW B5 : ... .. E P89 ... ... : A-3 00 E P7B ... ... : ... .. . ... : ... .. C ... : ... .. . ... ... : ... .. . ... ... : ... .. . ... ... : ... .. D P7E ...
ROW B6 : D-3 00 D P7B ... ... : ... .. D P84 ... ... : ... .. . ... : ... .. 6 ... : ... .. . ... ... : ... .. 5 ... ... : ... .. 5 ... ... : ... .. 8 P7D ...
ROW B7 : ... .. A P84 ... ... : A#3 00 A P7F ... ... : ... .. . ... : ... .. 3 ... : ... .. . ... ... : ... .. 4 ... ... : ... .. 4 ... ... : ... .. . ... ...
ROW B8 : D#3 00 A P78 ... ... : ... .. . P81 ... ... : ... .. . ... : ... .. 2 ... : ... .. . ... ... : ... .. . ... ... : ... .. . ... ... : ... .. . P7F ...
ROW B9 : ... .. . P80 ... ... : ... .. . ... ... ... : ... .. . ... : ... .. 0 ... : ... .. . ... ... : ... .. . ... ... : ... .. . ... ... : ... .. . P81 ...
ROW BA : ... .. . ... ... ... : ... .. . ... ... ... : ... .. . ... : E-# 00 8 ... : ... .. . ... ... : D#2 01 6 ... ... : D#3 01 6 ... ... : ... .. . P83 ...
ROW BB : ... .. . ... ... ... : ... .. . ... ... ... : ... .. . ... : ... .. 6 ... : ... .. . ... ... : ... .. . ... ... : ... .. . ... ... : ... .. . ... ...
ROW BC : ... .. . ... ... ... : ... .. . ... ... ... : ... .. . ... : ... .. 3 ... : ... .. . ... ... : ... .. 5 ... ... : ... .. 5 ... ... : ... .. . P82 ...
ROW BD : ... .. . ... ... ... : ... .. . ... ... ... : ... .. . ... : ... .. 1 ... : ... .. . ... ... : ... .. 4 ... ... : ... .. 4 ... ... : ... .. . P80 ...
ROW BE : ... .. . ... ... ... : ... .. . ... ... ... : ... .. . ... : ... .. . ... : ... .. . ... ... : ... .. . ... ... : ... .. . ... ... : ... .. . P7E ...
ROW BF : ... .. . ... ... ... : ... .. . ... ... ... : ... .. . ... : ... .. 0 ... : ... .. . ... ... : ... .. . ... ... : ... .. . ... ... : ... .. . P7D ...
ROW C0 : E-3 00 A P78 ... ... : B-3 00 A P80 ... ... : D-6 00 . ... : 1-# 00 F ... : ... .. . ... ... : E-2 01 6 ... ... : E-3 01 6 ... ... : C-4 01 8 P84 ...
ROW C1 : ... .. . P80 ... ... : C-4 00 A P7C ... ... : E-5 00 . ... : ... .. C ... : ... .. . ... ... : ... .. . ... ... : ... .. . ... ... : A#3 01 8 ... ...
ROW C2 : ... .. . P7D ... ... : B-3 00 A P85 ... ... : A-4 00 . ... : ... .. 6 ... : ... .. . ... ... : ... .. 5 ... ... : ... .. 5 ... ... : G#3 01 8 P87 ...
ROW C3 : D#3 00 A P86 ... ... : A#3 00 A P87 ... ... : G#4 00 . ... : ... .. 3 ... : ... .. . ... ... : ... .. 4 ... ... : ... .. 4 ... ... : G-3 01 8 P7C ...
ROW C4 : ... .. . P7A ... ... : ... .. . P7B ... ... : D#4 00 . ... : ... .. 2 ... : ... .. . ... ... : ... .. . ... ... : ... .. . ... ... : F-3 01 8 P84 ...
ROW C5 : D-3 00 A P83 ... ... : A-3 00 A P7D ... ... : ... .. . ... : ... .. 0 ... : ... .. . ... ... : ... .. . ... ... : ... .. . ... ... : E-3 01 8 P79 ...
ROW C6 : ... .. 1 P80 ... ... : ... .. 1 P7A ... ... : C-4 00 . P82 : 9-# 00 8 ... : ... .. . ... ... : A-2 01 6 ... ... : A-3 01 6 ... ... : D-3 01 8 P86 ...
ROW C7 : ... .. . P88 ... ... : ... .. . P82 ... ... : A#3 00 . P7C : ... .. 6 ... : ... .. . ... ... : ... .. . ... ... : ... .. . ... ... : C#3 01 8 P7F ...
ROW C8 : D#3 00 1 P80 ... ... : A#3 00 1 P81 ... ... : G#3 00 . P79 : ... .. 3 ... : ... .. . ... ... : ... .. 5 ... ... : ... .. 5 ... ... : C-3 01 8 P79 ...
ROW C9 : E-3 00 1 P77 ... ... : B-3 00 1 P7F ... ... : F#3 00 . P7A : ... .. 1 ... : ... .. . ... ... : ... .. 4 ... ... : ... .. 4 ... ... : B-2 01 8 P76 ...
ROW CA : ... .. . P80 ... ... : C-4 00 1 P7C ... ... : E-3 00 . P7F : ... .. . ... : ... .. . ... ... : ... .. . ... ... : ... .. . ... ... : A#2 01 8 ... ...
ROW CB : ... .. . P7E ... ... : B-3 00 1 P86 ... ... : D-3 00 . P89 : ... .. 0 ... : ... .. . ... ... : ... .. . ... ... : ... .. . ... ... : A-2 01 8 P78 ...
ROW CC : C-3 00 F P80 ... ... : G-3 00 F P81 ... ... : D-4 00 . P80 : 1-# 00 F ... : ... .. . ... ... : E-3 01 6 ... ... : E-4 01 6 ... ... : D-4 01 F P82 ...
ROW CD : ... .. E P89 ... ... : G#3 00 E P7A ... ... : ... .. . ... : ... .. C ... : ... .. . ... ... : ... .. . ... ... : ... .. . ... ... : ... .. D P83 ...
ROW CE : C#3 00 D P7A ... ... : ... .. D P83 ... ... : ... .. . ... : ... .. 6 ... : ... .. . ... ... : ... .. 5 ... ... : ... .. 5 ... ... : ... .. 8 ... ...
ROW CF : ... .. A P83 ... ... : A-3 00 A P7D ... ... : ... .. . ... : ... .. 3 ... : ... .. . ... ... : ... .. 4 ... ... : ... .. 4 ... ... : ... .. . P80 ...
ROW D0 : D-3 00 A P75 ... ... : ... .. . P81 ... ... : ... .. . ... : ... .. 2 ... : ... .. . ... ... : ... .. . ... ... : ... .. . ... ... : ... .. . P7F ...
ROW D1 : ... .. . P7E ... ... : ... .. . ... ... ... : ... .. . ... : ... .. 0 ... : ... .. . ... ... : ... .. . ... ... : ... .. . ... ... : ... .. . P7D ...
ROW D2 : ... .. . P80 ... ... : ... .. . ... ... ... : ... .. . ... : 9-# 00 8 ... : ... .. . ... ... : F-3 01 6 ... ... : F-4 01 6 ... ... : ... .. . ... ...
ROW D3 : ... .. . ... ... ... : ... .. . ... ... ... : ... .. . ... : ... .. 6 ... : ... .. . ... ... : ... .. . ... ... : ... .. . ... ... : ... .. . P7E ...
ROW D4 : ... .. . ... ... ... : ... .. . ... ... ... : ... .. . ... : ... .. 3 ... : ... .. . ... ... : ... .. 5 ... ... : ... .. 5 ... ... : ... .. . P80 ...
ROW D5 : ... .. . ... ... ... : ... .. . ... ... ... : ... .. . ... : ... .. 1 ... : ... .. . ... ... : ... .. 4 ... ... : ... .. 4 ... ... : ... .. . P82 ...
ROW D6 : ... .. . ... ... ... : ... .. . ... ... ... : ... .. . ... : ... .. . ... : ... .. . ... ... : ... .. . ... ... : ... .. . ... ... : ... .. . P83 ...
ROW D7 : ... .. . ... ... ... : ... .. . ... ... ... : ... .. . ... : ... .. 0 ... : ... .. . ... ... : ... .. . ... ... : ... .. . ... ... : ... .. . ... ...
ROW D8 : D#3 00 A P78 ... ... : A#3 00 A P80 ... ... : C#6 00 . ... : ... .. D ... : ... .. . ... ... : A-3 01 6 ... ... : A-4 01 6 ... ... : C-4 01 8 P7B ...
ROW D9 : ... .. . P80 ... ... : B-3 00 A P7A ... ... : D#5 00 . ... : ... .. B ... : ... .. . ... ... : ... .. . ... ... : ... .. . ... ... : A-3 01 8 P88 ...
ROW DA : ... .. . P7D ... ... : A#3 00 A P85 ... ... : G#4 00 . ... : ... .. . ... : ... .. . ... ... : ... .. 5 ... ... : ... .. 5 ... ... : G-3 01 8 P89 ...
ROW DB : D-3 00 A P86 ... ... : A-3 00 A P87 ... ... : G-4 00 . ... : ... .. A ... : ... .. . ... ... : ... .. 4 ... ... : ... .. 4 ... ... : F#3 01 8 P7D ...
ROW DC : ... .. . P7A ... ... : ... .. . P7B ... ... : D-4 00 . ... : ... .. 8 ... : ... .. . ... ... : ... .. . ... ... : ... .. . ... ... : E-3 01 8 P88 ...
ROW DD : C#3 00 A P85 ... ... : G#3 00 A P7E ... ... : ... .. . ... : ... .. 7 ... : ... .. . ... ... : ... .. . ... ... : ... .. . ... ... : D#3 01 8 P81 ...
ROW DE : ... .. 1 P82 ... ... : ... .. 1 P7B ... ... : B-3 00 . P84 : 7-# 00 8 ... : ... .. . ... ... : A#3 01 6 ... ... : A#4 01 6 ... ... : D-3 01 8 P7B ...
ROW DF : ... .. . P8A ... ... : ... .. . P83 ... ... : A-3 00 . P80 : ... .. 6 ... : ... .. . ... ... : ... .. . ... ... : ... .. . ... ... : C#3 01 8 P76 ...
ROW E0 : D-3 00 1 P80 ... ... : A-3 00 1 P81 ... ... : G-3 00 . P7F : ... .. 3 ... : ... .. . ... ... : ... .. 5 ... ... : ... .. 5 ... ... : C-3 01 8 P72 ...
ROW E1 : D#3 00 1 P77 ... ... : A#3 00 1 P7F ... ... : F-3 00 . P82 : ... .. 1 ... : ... .. . ... ... : ... .. 4 ... ... : ... .. 4 ... ... : A#2 01 8 P8B ...
ROW E2 : ... .. . P80 ... ... : B-3 00 1 P7A ... ... : D#3 00 . P8A : ... .. . ... : ... .. . ... ... : ... .. . ... ... : ... .. . ... ... : A-2 01 8 ... ...
ROW E3 : ... .. . P7E ... ... : A#3 00 1 P86 ... ... : D-3 00 . P7F : ... .. 0 ... : ... .. . ... ... : ... .. . ... ... : ... .. . ... ... : G#2 01 8 ... ...
ROW E4 : C-3 00 F P80 V01 ... : G-3 00 F P81 V01 ... : A-2 00 . P80 : A-# 00 F ... : ... .. . ... ... : E-4 01 6 ... ... : E-5 01 6 ... ... : A-2 01 F P7D ...
ROW E5 : ... .. E ... ... ... : ... .. E ... ... ... : ... .. . ... : ... .. C ... : ... .. . ... ... : ... .. . ... ... : ... .. . ... ... : ... .. D P7E ...
ROW E6 : ... .. D ... ... ... : ... .. D ... ... ... : ... .. . ... : ... .. 6 ... : ... .. . ... ... : ... .. 5 ... ... : ... .. 5 ... ... : ... .. 8 P80 ...
ROW E7 : ... .. 2 ... ... ... : ... .. 2 ... ... ... : ... .. . ... : ... .. 3 ... : ... .. . ... ... : ... .. 4 ... ... : ... .. 4 ... ... : ... .. . P81 ...
ROW E8 : ... .. . ... ... ... : ... .. . ... ... ... : ... .. . ... : ... .. 2 ... : ... .. . ... ... : ... .. . ... ... : ... .. . ... ... : ... .. . P83 ...
ROW E9 : ... .. . ... ... ... : ... .. . ... ... ... : --- .. . ... : ... .. 0 ... : ... .. . ... ... : ... .. . ... ... : ... .. . ... ... : --- .. . P7F ...
ROW EA : D-3 00 F ... ... ... : A-3 00 F ... ... ... : A-2 00 . ... : E-# 00 8 ... : ... .. . ... ... : F-4 01 6 ... ... : F-5 01 6 ... ... : A-2 01 F P81 ...
ROW EB : ... .. E ... ... ... : ... .. E ... ... ... : ... .. . ... : ... .. 6 ... : ... .. . ... ... : ... .. . ... ... : ... .. . ... ... : ... .. D P80 ...
ROW EC : ... .. D ... ... ... : ... .. D ... ... ... : ... .. . ... : ... .. 3 ... : ... .. . ... ... : ... .. 5 ... ... : ... .. 5 ... ... : ... .. 8 P7E ...
ROW ED : ... .. 2 ... ... ... : ... .. 2 ... ... ... : ... .. . ... : ... .. 1 ... : ... .. . ... ... : ... .. 4 ... ... : ... .. 4 ... ... : ... .. . P7D ...
ROW EE : ... .. . ... ... ... : ... .. . ... ... ... : ... .. . ... : ... .. . ... : ... .. . ... ... : ... .. . ... ... : ... .. . ... ... : ... .. . ... ...
ROW EF : ... .. . ... ... ... : ... .. . ... ... ... : --- .. . ... : ... .. 0 ... : ... .. . ... ... : ... .. . ... ... : ... .. . ... ... : --- .. . P81 ...
ROW F0 : G-3 00 F ... ... ... : D-4 00 F ... ... ... : F#5 00 . ... : C-# 00 E ... : ... .. . ... ... : E-4 01 6 ... ... : E-5 01 6 ... ... : G-3 01 F ... ...
ROW F1 : ... .. E ... ... ... : ... .. E ... ... ... : G#4 00 . ... : ... .. D ... : ... .. . ... ... : ... .. . ... ... : ... .. . ... ... : ... .. D P83 ...
ROW F2 : ... .. D ... ... ... : ... .. D ... ... ... : C#4 00 . ... : ... .. . ... : ... .. . ... ... : ... .. 5 ... ... : ... .. 5 ... ... : ... .. 8 ... ...
ROW F3 : ... .. A ... ... ... : ... .. A ... ... ... : C-4 00 . ... : ... .. C ... : ... .. . ... ... : ... .. 4 ... ... : ... .. 4 ... ... : ... .. . P82 ...
ROW F4 : ... .. . ... ... ... : ... .. . ... ... ... : G-3 00 . ... : ... .. B ... : ... .. . ... ... : ... .. . ... ... : ... .. . ... ... : ... .. . P80 ...
ROW F5 : ... .. . ... ... ... : ... .. . ... ... ... : ... .. . ... : ... .. . ... : ... .. . ... ... : ... .. . ... ... : ... .. . ... ... : --- .. . P7F ...
ROW F6 : A-3 00 F ... ... ... : E-4 00 F ... ... ... : A-3 00 . ... : ... .. A ... : ... .. . ... ... : F-4 01 6 ... ... : F-5 01 6 ... ... : A-3 01 F P7D ...
ROW F7 : ... .. E ... ... ... : ... .. E ... ... ... : ... .. . ... : ... .. . ... : ... .. . ... ... : ... .. . ... ... : ... .. . ... ... : ... .. D ... ...
ROW F8 : ... .. D ... ... ... : ... .. D ... ... ... : ... .. . ... : ... .. 9 ... : ... .. . ... ... : ... .. 5 ... ... : ... .. 5 ... ... : ... .. 8 P7F ...
ROW F9 : ... .. A ... ... ... : ... .. A ... ... ... : ... .. . ... : ... .. 8 ... : ... .. . ... ... : ... .. 4 ... ... : ... .. 4 ... ... : ... .. . P81 ...
ROW FA : ... .. . ... ... ... : ... .. . ... ... ... : ... .. . ... : ... .. . ... : ... .. . ... ... : ... .. . ... ... : ... .. . ... ... : ... .. . P83 ...
ROW FB : ... .. . ... ... ... : ... .. . ... ... ... : --- .. . ... : ... .. 7 ... : ... .. . ... ... : ... .. . ... ... : ... .. . ... ... : --- .. . P80 ...
ROW FC : A#3 00 F ... ... ... : F-4 00 F ... ... ... : A#3 00 . ... : ... .. 6 ... : ... .. . ... ... : E-4 01 6 ... ... : E-5 01 6 ... ... : A#3 01 F P82 ...
ROW FD : ... .. E ... ... ... : ... .. E ... ... ... : ... .. . ... : ... .. . ... : ... .. . ... ... : ... .. . ... ... : ... .. . ... ... : ... .. D P80 ...
ROW FE : ... .. D ... ... ... : ... .. D ... ... ... : ... .. . ... : ... .. 5 ... : ... .. . ... ... : ... .. 5 ... ... : ... .. 5 ... ... : ... .. 8 P7E ...
ROW FF : ... .. 2 ... ... ... : ... .. 2 ... ... ... : ... .. . ... : ... .. . ... : ... .. . ... ... : ... .. 4 ... ... : ... .. 4 ... ... : ... .. . P7D ...

PATTERN 0A
ROW 00 : ... .. . ... ... ... : ... .. . ... ... ... : ... .. . ... : ... .. 4 ... : ... .. . ... ... : ... .. . ... ... : ... .. . ... ... : ... .. . ... ...
ROW 01 : ... .. . ... ... ... : ... .. . ... ... ... : --- .. . ... : ... .. 3 ... : ... .. . ... ... : ... .. . ... ... : ... .. . ... ... : --- .. . P81 ...
ROW 02 : D#4 00 F ... ... ... : A#4 00 F ... ... ... : D#4 00 . ... : 1-# 00 F ... : ... .. . ... ... : A-3 01 6 ... ... : A-4 01 6 ... ... : D#4 01 F P80 ...
ROW 03 : ... .. E ... ... ... : ... .. E ... ... ... : ... .. . ... : ... .. C ... : ... .. . ... ... : ... .. . ... ... : ... .. . ... ... : ... .. D P83 ...
ROW 04 : ... .. D ... ... ... : ... .. D ... ... ... : ... .. . ... : ... .. 6 ... : ... .. . ... ... : ... .. 5 ... ... : ... .. 5 ... ... : ... .. 8 ... ...
ROW 05 : ... .. A ... ... ... : ... .. A ... ... ... : ... .. . ... : ... .. 3 ... : ... .. . ... ... : ... .. 4 ... ... : ... .. 4 ... ... : ... .. . P82 ...
ROW 06 : ... .. . ... ... ... : ... .. . ... ... ... : ... .. . ... : ... .. 2 ... : ... .. . ... ... : ... .. . ... ... : ... .. . ... ... : ... .. . P80 ...
ROW 07 : ... .. . ... ... ... : ... .. . ... ... ... : --- .. . ... : ... .. 0 ... : ... .. . ... ... : ... .. . ... ... : ... .. . ... ... : --- .. . ... ...
ROW 08 : C#4 00 F ... ... ... : G#4 00 F ... ... ... : C-6 00 . ... : 5-# 00 F ... : ... .. . ... ... : E-3 01 6 ... ... : E-4 01 6 ... ... : C#4 01 F P7D ...
ROW 09 : ... .. E ... ... ... : ... .. E ... ... ... : D-5 00 . ... : ... .. C ... : ... .. . ... ... : ... .. . ... ... : ... .. . ... ... : ... .. D ... ...
ROW 0A : ... .. D ... ... ... : ... .. D ... ... ... : G-4 00 . ... : ... .. 6 ... : ... .. . ... ... : ... .. 5 ... ... : ... .. 5 ... ... : ... .. 8 P7F ...
ROW 0B : ... .. A ... ... ... : ... .. A ... ... ... : F#4 00 . ... : ... .. 3 ... : ... .. . ... ... : ... .. 4 ... ... : ... .. 4 ... ... : ... .. . P80 ...
ROW 0C : ... .. . ... ... ... : ... .. . ... ... ... : C#4 00 . ... : ... .. 2 ... : ... .. . ... ... : ... .. . ... ... : ... .. . ... ... : ... .. . P82 ...
ROW 0D : ... .. . ... ... ... : ... .. . ... ... ... : ... .. . ... : ... .. 0 ... : ... .. . ... ... : ... .. . ... ... : ... .. . ... ... : --- .. . ... ...
ROW 0E : A-3 00 F ... ... ... : E-4 00 F ... ... ... : A-3 00 . ... : B-# 00 F ... : ... .. . ... ... : D#3 01 6 ... ... : D#4 01 6 ... ... : A-3 01 F P83 ...
ROW 0F : ... .. E ... ... ... : ... .. E ... ... ... : ... .. . ... : ... .. C ... : ... .. . ... ... : ... .. . ... ... : ... .. . ... ... : ... .. D P80 ...
ROW 10 : ... .. D ... ... ... : ... .. D ... ... ... : ... .. . ... : ... .. 6 ... : ... .. . ... ... : ... .. 5 ... ... : ... .. 5 ... ... : ... .. 8 P7F ...
ROW 11 : ... .. A ... ... ... : ... .. A ... ... ... : ... .. . ... : ... .. 3 ... : ... .. . ... ... : ... .. 4 ... ... : ... .. 4 ... ... : ... .. . P7D ...
ROW 12 : ... .. . ... ... ... : ... .. . ... ... ... : ... .. . ... : ... .. 2 ... : ... .. . ... ... : ... .. . ... ... : ... .. . ... ... : ... .. . ... ...
ROW 13 : ... .. . ... ... ... : ... .. . ... ... ... : --- .. . ... : ... .. 0 ... : ... .. . ... ... : ... .. . ... ... : ... .. . ... ... : --- .. . P80 ...
ROW 14 : G-3 00 F ... ... ... : D-4 00 F ... ... ... : G-3 00 . ... : 1-# 00 F ... : ... .. . ... ... : A-2 01 6 ... ... : A-3 01 6 ... ... : G-3 01 F ... ...
ROW 15 : ... .. E ... ... ... : ... .. E ... ... ... : ... .. . ... : ... .. C ... : ... .. . ... ... : ... .. . ... ... : ... .. . ... ... : ... .. D P82 ...
ROW 16 : ... .. D ... ... ... : ... .. D ... ... ... : ... .. . ... : ... .. 6 ... : ... .. . ... ... : ... .. 5 ... ... : ... .. 5 ... ... : ... .. 8 P83 ...
ROW 17 : ... .. 2 ... ... ... : ... .. 2 ... ... ... : ... .. . ... : ... .. 3 ... : ... .. . ... ... : ... .. 4 ... ... : ... .. 4 ... ... : ... .. . ... ...
ROW 18 : ... .. . ... ... ... : ... .. . ... ... ... : ... .. . ... : ... .. 2 ... : ... .. . ... ... : ... .. . ... ... : ... .. . ... ... : ... .. . P81 ...
ROW 19 : ... .. . ... ... ... : ... .. . ... ... ... : --- .. . ... : ... .. 0 ... : ... .. . ... ... : ... .. . ... ... : ... .. . ... ... : --- .. . P80 ...
ROW 1A : D#3 00 F ... ... ... : A#3 00 F ... ... ... : D#3 00 . ... : B-# 00 F ... : ... .. . ... ... : E-2 01 6 ... ... : E-3 01 6 ... ... : D#3 01 F P7D ...
ROW 1B : ... .. E ... ... ... : ... .. E ... ... ... : ... .. . ... : ... .. C ... : ... .. . ... ... : ... .. . ... ... : ... .. . ... ... : ... .. D ... ...
ROW 1C : ... .. D ... ... ... : ... .. D ... ... ... : ... .. . ... : ... .. 6 ... : ... .. . ... ... : ... .. 5 ... ... : ... .. 5 ... ... : ... .. 8 P7E ...
ROW 1D : ... .. A ... ... ... : ... .. A ... ... ... : ... .. . ... : ... .. 3 ... : ... .. . ... ... : ... .. 4 ... ... : ... .. 4 ... ... : ... .. . P80 ...
ROW 1E : ... .. . ... ... ... : ... .. . ... ... ... : ... .. . ... : ... .. 2 ... : ... .. . ... ... : ... .. . ... ... : ... .. . ... ... : ... .. . P82 ...
ROW 1F : ... .. . ... ... ... : ... .. . ... ... ... : --- .. . ... : ... .. 0 ... : ... .. . ... ... : ... .. . ... ... : ... .. . ... ... : --- .. . P81 ...
ROW 20 : C#3 00 F ... ... ... : G#3 00 F ... ... ... : C-5 00 . ... : ... .. F ... : ... .. . ... ... : D#2 01 6 ... ... : D#3 01 6 ... ... : C#3 01 F P83 ...
ROW 21 : ... .. E ... ... ... : ... .. E ... ... ... : D-4 00 . ... : ... .. C ... : ... .. . ... ... : ... .. . ... ... : ... .. . ... ... : ... .. D P81 ...
ROW 22 : ... .. D ... ... ... : ... .. D ... ... ... : G-3 00 . ... : ... .. 6 ... : ... .. . ... ... : ... .. 5 ... ... : ... .. 5 ... ... : ... .. 8 P80 ...
ROW 23 : ... .. 2 ... ... ... : ... .. 2 ... ... ... : F#3 00 . ... : ... .. 3 ... : ... .. . ... ... : ... .. 4 ... ... : ... .. 4 ... ... : ... .. . P7D ...
ROW 24 : ... .. . ... ... ... : ... .. . ... ... ... : C#3 00 . ... : ... .. 2 ... : ... .. . ... ... : ... .. . ... ... : ... .. . ... ... : ... .. . ... ...
ROW 25 : ... .. . ... ... ... : ... .. . ... ... ... : ... .. . ... : ... .. 0 ... : ... .. . ... ... : ... .. . ... ... : ... .. . ... ... : --- .. . ... ...
ROW 26 : A-2 00 F ... ... ... : E-3 00 F ... ... ... : A-2 00 . ... : ... .. F ... : ... .. . ... ... : E-2 01 6 ... ... : E-3 01 6 ... ... : A-2 01 F P80 ...
ROW 27 : ... .. E ... ... ... : ... .. E ... ... ... : ... .. . ... : ... .. C ... : ... .. . ... ... : ... .. . ... ... : ... .. . ... ... : ... .. D P81 ...
ROW 28 : ... .. D ... ... ... : ... .. D ... ... ... : ... .. . ... : ... .. 6 ... : ... .. . ... ... : ... .. 5 ... ... : ... .. 5 ... ... : ... .. 8 P83 ...
ROW 29 : ... .. A ... ... ... : ... .. A ... ... ... : ... .. . ... : ... .. 3 ... : ... .. . ... ... : ... .. 4 ... ... : ... .. 4 ... ... : ... .. . ... ...
ROW 2A : ... .. . ... ... ... : ... .. . ... ... ... : ... .. . ... : ... .. 2 ... : ... .. . ... ... : ... .. . ... ... : ... .. . ... ... : ... .. . P81 ...
ROW 2B : ... .. . ... ... ... : ... .. . ... ... ... : --- .. . ... : ... .. 0 ... : ... .. . ... ... : ... .. . ... ... : ... .. . ... ... : --- .. . ... ...
ROW 2C : G-2 00 F ... ... ... : D-3 00 F ... ... ... : G-2 00 . ... : 5-# 00 F ... : ... .. . ... ... : A-2 01 6 ... ... : A-3 01 6 ... ... : G-2 01 F P7E ...
ROW 2D : ... .. E ... ... ... : ... .. E ... ... ... : ... .. . ... : ... .. C ... : ... .. . ... ... : ... .. . ... ... : ... .. . ... ... : ... .. D P7D ...
ROW 2E : ... .. D ... ... ... : ... .. D ... ... ... : ... .. . ... : ... .. 6 ... : ... .. . ... ... : ... .. 5 ... ... : ... .. 5 ... ... : ... .. 8 ... ...
ROW 2F : ... .. A ... ... ... : ... .. A ... ... ... : ... .. . ... : ... .. 3 ... : ... .. . ... ... : ... .. 4 ... ... : ... .. 4 ... ... : ... .. . P80 ...
ROW 30 : ... .. . ... ... ... : ... .. . ... ... ... : ... .. . ... : ... .. 2 ... : ... .. . ... ... : ... .. . ... ... : ... .. . ... ... : ... .. . P81 ...
ROW 31 : ... .. . ... ... ... : ... .. . ... ... ... : --- .. . ... : ... .. 0 ... : ... .. . ... ... : ... .. . ... ... : ... .. . ... ... : --- .. . P7E ...
ROW 32 : D#2 00 F ... ... ... : F-2 00 F ... ... ... : D#2 00 . ... : ... .. F ... : ... .. . ... ... : A#2 01 6 ... ... : A#3 01 6 ... ... : D#2 01 F P83 ...
ROW 33 : ... .. E ... ... ... : ... .. E ... ... ... : ... .. . ... : ... .. C ... : ... .. . ... ... : ... .. . ... ... : ... .. . ... ... : ... .. D P82 ...
ROW 34 : ... .. D ... ... ... : ... .. D ... ... ... : ... .. . ... : ... .. 6 ... : ... .. . ... ... : ... .. 5 ... ... : ... .. 5 ... ... : ... .. 8 P80 ...
ROW 35 : ... .. 2 ... ... ... : ... .. 2 ... ... ... : ... .. . ... : ... .. 3 ... : ... .. . ... ... : ... .. 4 ... ... : ... .. 4 ... ... : ... .. . P7E ...
ROW 36 : ... .. . ... ... ... : ... .. . ... ... ... : ... .. . ... : ... .. 2 ... : ... .. . ... ... : ... .. . ... ... : ... .. . ... ... : ... .. . P7D ...
ROW 37 : ... .. . ... ... ... : ... .. . ... ... ... : --- .. . ... : ... .. 0 ... : ... .. . ... ... : ... .. . ... ... : ... .. . ... ... : --- .. . P81 ...
ROW 38 : D-3 00 F ... ... ... : D-2 00 F ... ... ... : C-4 00 . ... : 1-# 00 F ... : ... .. . ... ... : E-3 01 6 ... ... : E-4 01 6 ... ... : C#2 01 F P7F ...
ROW 39 : ... .. E ... ... ... : ... .. E ... ... ... : D-3 00 . ... : ... .. C ... : ... .. . ... ... : ... .. . ... ... : ... .. . ... ... : ... .. D P81 ...
ROW 3A : ... .. D ... ... ... : ... .. D ... ... ... : G-2 00 . ... : ... .. 6 ... : ... .. . ... ... : ... .. 5 ... ... : ... .. 5 ... ... : ... .. 8 P83 ...
ROW 3B : ... .. A ... ... ... : ... .. A ... ... ... : F#2 00 . ... : ... .. 3 ... : ... .. . ... ... : ... .. 4 ... ... : ... .. 4 ... ... : ... .. . ... ...
ROW 3C : ... .. . ... ... ... : ... .. . ... ... ... : C#2 00 . ... : ... .. 2 ... : ... .. . ... ... : ... .. . ... ... : ... .. . ... ... : ... .. . P82 ...
ROW 3D : ... .. . ... ... ... : ... .. . ... ... ... : ... .. . ... : ... .. 0 ... : ... .. . ... ... : ... .. . ... ... : ... .. . ... ... : --- .. . ... ...
ROW 3E : ... .. F ... ... ... : ... .. F ... ... ... : D#2 00 . ... : B-# 00 F ... : ... .. . ... ... : F-3 01 6 ... ... : F-4 01 6 ... ... : D#2 01 F P7E ...
ROW 3F : ... .. E ... ... ... : ... .. E ... ... ... : ... .. . ... : ... .. C ... : ... .. . ... ... : ... .. . ... ... : ... .. . ... ... : ... .. D P7D ...
ROW 40 : ... .. D ... ... ... : ... .. D ... ... ... : ... .. . ... : ... .. 6 ... : ... .. . ... ... : ... .. 5 ... ... : ... .. 5 ... ... : ... .. 8 ... ...
ROW 41 : ... .. 2 ... ... ... : ... .. 2 ... ... ... : ... .. . ... : ... .. 3 ... : ... .. . ... ... : ... .. 4 ... ... : ... .. 4 ... ... : ... .. . P7F ...
ROW 42 : ... .. . ... ... ... : ... .. . ... ... ... : ... .. . ... : ... .. 2 ... : ... .. . ... ... : ... .. . ... ... : ... .. . ... ... : ... .. . P80 ...
ROW 43 : ... .. . ... ... ... : ... .. . ... ... ... : --- .. . ... : ... .. 0 ... : ... .. . ... ... : ... .. . ... ... : ... .. . ... ... : --- .. . ... ...
ROW 44 : D#3 00 F ... ... ... : D#2 00 F ... ... ... : G-2 00 . ... : ... .. F ... : ... .. . ... ... : A-3 01 6 ... ... : A-4 01 6 ... ... : G-2 01 F P83 ...
ROW 45 : ... .. E ... ... ... : ... .. E ... ... ... : ... .. . ... : ... .. C ... : ... .. . ... ... : ... .. . ... ... : ... .. . ... ... : ... .. D P82 ...
ROW 46 : ... .. D ... ... ... : ... .. D ... ... ... : ... .. . ... : ... .. 6 ... : ... .. . ... ... : ... .. 5 ... ... : ... .. 5 ... ... : ... .. 8 P80 ...
ROW 47 : ... .. 2 ... ... ... : ... .. 2 ... ... ... : ... .. . ... : ... .. 3 ... : ... .. . ... ... : ... .. 4 ... ... : ... .. 4 ... ... : ... .. . P7F ...
ROW 48 : ... .. . ... ... ... : ... .. . ... ... ... : ... .. . ... : ... .. 2 ... : ... .. . ... ... : ... .. . ... ... : ... .. . ... ... : ... .. . P7D ...
ROW 49 : ... .. . ... ... ... : ... .. . ... ... ... : --- .. . ... : ... .. 0 ... : ... .. . ... ... : ... .. . ... ... : ... .. . ... ... : --- .. . P82 ...
ROW 4A : E-3 00 F ... ... ... : E-2 00 F ... ... ... : A#2 00 . ... : 1-# 00 F ... : ... .. . ... ... : ... .. 6 ... ... : ... .. 6 ... ... : A-2 01 F P7F ...
ROW 4B : ... .. E ... ... ... : ... .. E ... ... ... : ... .. . ... : ... .. C ... : ... .. . ... ... : ... .. . ... ... : ... .. . ... ... : ... .. D P80 ...
ROW 4C : ... .. D ... ... ... : ... .. D ... ... ... : ... .. . ... : ... .. 6 ... : ... .. . ... ... : ... .. 5 ... ... : ... .. 5 ... ... : ... .. 8 P82 ...
ROW 4D : ... .. 2 ... ... ... : ... .. 2 ... ... ... : A-4 00 . ... : ... .. 3 ... : ... .. . ... ... : ... .. 4 ... ... : ... .. 4 ... ... : ... .. . P83 ...
ROW 4E : ... .. . ... ... ... : ... .. . ... ... ... : B-3 00 . ... : ... .. 2 ... : ... .. . ... ... : ... .. . ... ... : ... .. . ... ... : ... .. . ... ...
ROW 4F : ... .. . ... ... ... : ... .. . ... ... ... : E-3 00 . ... : ... .. 0 ... : ... .. . ... ... : ... .. . ... ... : ... .. . ... ... : --- .. . P7F ...
ROW 50 : F-2 00 F ... ... ... : F-3 00 F ... ... ... : E-5 00 . ... : 9-# 00 D ... : === 00 . Z80 ... : F-4 01 6 ... ... : F-5 01 6 ... ... : F-1 01 F ... ...
ROW 51 : ... .. E ... ... ... : ... .. E ... ... ... : F#4 00 . ... : ... .. B ... : ... .. . ... ... : ... .. . ... ... : ... .. . ... ... : ... .. D P7D ...
ROW 52 : ... .. D ... ... ... : ... .. D ... ... ... : B-3 00 . ... : ... .. . ... : ... .. . ... ... : ... .. 5 ... ... : ... .. 5 ... ... : ... .. 8 ... ...
ROW 53 : ... .. A ... ... ... : ... .. A ... ... ... : A#3 00 . ... : ... .. A ... : ... .. . ... ... : ... .. 4 ... ... : ... .. 4 ... ... : ... .. . P7E ...
ROW 54 : ... .. . ... ... ... : ... .. . ... ... ... : F-3 00 . ... : ... .. 8 ... : ... .. . ... ... : ... .. . ... ... : ... .. . ... ... : ... .. . P80 ...
ROW 55 : ... .. . ... ... ... : ... .. . ... ... ... : ... .. . ... : ... .. 7 ... : ... .. . ... ... : ... .. . ... ... : ... .. . ... ... : ... .. . P82 ...
ROW 56 : C-2 00 F ... ... ... : C-3 00 F ... ... ... : C-3 00 . ... : ... .. 8 ... : ... .. . ... ... : F#4 01 6 ... ... : F#5 01 6 ... ... : C-1 01 F P83 ...
ROW 57 : ... .. E ... ... ... : ... .. E ... ... ... : ... .. . ... : ... .. 6 ... : ... .. . ... ... : ... .. . ... ... : ... .. . ... ... : ... .. D ... ...
ROW 58 : ... .. D ... ... ... : ... .. D ... ... ... : ... .. . ... : ... .. 3 ... : ... .. . ... ... : ... .. 5 ... ... : ... .. 5 ... ... : ... .. 8 P81 ...
ROW 59 : ... .. A ... ... ... : ... .. A ... ... ... : ... .. . ... : ... .. 1 ... : ... .. . ... ... : ... .. 4 ... ... : ... .. 4 ... ... : ... .. . P7F ...
ROW 5A : ... .. . ... ... ... : ... .. . ... ... ... : ... .. . ... : ... .. . ... : ... .. . ... ... : ... .. . ... ... : ... .. . ... ... : ... .. . P7D ...
ROW 5B : ... .. . ... ... ... : ... .. . ... ... ... : ... .. . ... : ... .. 0 ... : ... .. . ... ... : ... .. . ... ... : ... .. . ... ... : ... .. . ... ...
ROW 5C : F-1 00 F ... ... ... : F-2 00 F ... ... ... : F-2 00 . ... : B-# 00 F ... : ... .. . ... ... : F-4 01 6 ... ... : F-5 01 6 ... ... : F-0 01 F P7E ...
ROW 5D : ... .. E ... ... ... : ... .. E ... ... ... : ... .. . ... : ... .. C ... : ... .. . ... ... : ... .. . ... ... : ... .. . ... ... : ... .. D P80 ...
ROW 5E : ... .. D ... ... ... : ... .. D ... ... ... : ... .. . ... : ... .. 6 ... : ... .. . ... ... : ... .. 5 ... ... : ... .. 5 ... ... : ... .. 8 P82 ...
ROW 5F : ... .. A ... ... ... : ... .. A ... ... ... : ... .. . ... : ... .. 3 ... : ... .. . ... ... : ... .. 4 ... ... : ... .. 4 ... ... : ... .. . P83 ...
ROW 60 : ... .. . ... ... ... : ... .. . ... ... ... : ... .. . ... : ... .. 2 ... : ... .. . ... ... : ... .. . ... ... : ... .. . ... ... : ... .. . ... ...
ROW 61 : ... .. . ... ... ... : ... .. . ... ... ... : ... .. . ... : ... .. 0 ... : ... .. . ... ... : ... .. . ... ... : ... .. . ... ... : ... .. . P81 ...
ROW 62 : ... .. . P60 ... ... : E-2 00 A P87 ... ... : E-2 00 . P86 : 9-# 00 8 ... : ... .. . ... ... : C-4 01 6 ... ... : C-5 01 6 ... ... : ... .. . P80 ...
ROW 63 : E-1 00 A P8C ... ... : D#2 00 A P8F ... ... : D#2 00 . P8E : ... .. 6 ... : ... .. . ... ... : ... .. . ... ... : ... .. . ... ... : ... .. . P7D ...
ROW 64 : ... .. . P6C ... ... : ... .. . P6F ... ... : ... .. . P6E : ... .. 3 ... : ... .. . ... ... : ... .. 5 ... ... : ... .. 5 ... ... : ... .. . ... ...
ROW 65 : D#1 00 A P9D ... ... : D-2 00 A P7A ... ... : D-2 00 . P79 : ... .. 1 ... : ... .. . ... ... : ... .. 4 ... ... : ... .. 4 ... ... : ... .. . P7E ...
ROW 66 : ... .. . P7D ... ... : C#2 00 A P87 ... ... : C#2 00 . P86 : ... .. . ... : ... .. . ... ... : ... .. . ... ... : ... .. . ... ... : ... .. . P80 ...
ROW 67 : ... .. . P5D ... ... : C-2 00 A P97 ... ... : C-2 00 . P96 : ... .. 0 ... : ... .. . ... ... : ... .. . ... ... : ... .. . ... ... : ... .. . P81 ...
ROW 68 : D#2 00 F P80 ... ... : D#3 00 F P81 ... ... : D-5 00 . P80 : ... .. D ... : ... .. . ... ... : B-3 01 6 ... ... : B-4 01 6 ... ... : D#1 01 F P83 ...
ROW 69 : ... .. E ... ... ... : ... .. E ... ... ... : E-4 00 . ... : ... .. B ... : ... .. . ... ... : ... .. . ... ... : ... .. . ... ... : ... .. D ... ...
ROW 6A : ... .. D ... ... ... : ... .. D ... ... ... : A-3 00 . ... : ... .. . ... : ... .. . ... ... : ... .. 5 ... ... : ... .. 5 ... ... : ... .. 8 P81 ...
ROW 6B : ... .. A ... ... ... : ... .. A ... ... ... : G#3 00 . ... : ... .. A ... : ... .. . ... ... : ... .. 4 ... ... : ... .. 4 ... ... : ... .. . P80 ...
ROW 6C : ... .. . ... ... ... : ... .. . ... ... ... : D#3 00 . ... : ... .. 8 ... : ... .. . ... ... : ... .. . ... ... : ... .. . ... ... : ... .. . P7E ...
ROW 6D : ... .. . ... ... ... : ... .. . ... ... ... : ... .. . ... : ... .. 7 ... : ... .. . ... ... : ... .. . ... ... : ... .. . ... ... : ... .. . P7D ...
ROW 6E : B-1 00 F ... ... ... : B-2 00 F ... ... ... : B-2 00 . ... : ... .. 8 ... : ... .. . ... ... : F-3 01 6 ... ... : F-4 01 6 ... ... : B-0 01 F ... ...
ROW 6F : ... .. E ... ... ... : ... .. E ... ... ... : ... .. . ... : ... .. 6 ... : ... .. . ... ... : ... .. . ... ... : ... .. . ... ... : ... .. D P80 ...
ROW 70 : ... .. D ... ... ... : ... .. D ... ... ... : ... .. . ... : ... .. 3 ... : ... .. . ... ... : ... .. 5 ... ... : ... .. 5 ... ... : ... .. 8 P81 ...
ROW 71 : ... .. A ... ... ... : ... .. A ... ... ... : ... .. . ... : ... .. 1 ... : ... .. . ... ... : ... .. 4 ... ... : ... .. 4 ... ... : ... .. . P83 ...
ROW 72 : ... .. . ... ... ... : ... .. . ... ... ... : ... .. . ... : ... .. . ... : ... .. . ... ... : ... .. . ... ... : ... .. . ... ... : ... .. . ... ...
ROW 73 : ... .. . ... ... ... : ... .. . ... ... ... : ... .. . ... : ... .. 0 ... : ... .. . ... ... : ... .. . ... ... : ... .. . ... ... : ... .. . P82 ...
ROW 74 : D#1 00 F ... ... ... : D#2 00 F ... ... ... : D#2 00 . ... : B-# 00 F ... : ... .. . ... ... : C-3 01 6 ... ... : C-4 01 6 ... ... : D#0 01 F P80 ...
ROW 75 : ... .. E ... ... ... : ... .. E ... ... ... : ... .. . ... : ... .. C ... : ... .. . ... ... : ... .. . ... ... : ... .. . ... ... : ... .. D P7E ...
ROW 76 : ... .. D ... ... ... : ... .. D ... ... ... : ... .. . ... : ... .. 6 ... : ... .. . ... ... : ... .. 5 ... ... : ... .. 5 ... ... : ... .. 8 P7D ...
ROW 77 : ... .. A ... ... ... : ... .. A ... ... ... : ... .. . ... : ... .. 3 ... : ... .. . ... ... : ... .. 4 ... ... : ... .. 4 ... ... : ... .. . ... ...
ROW 78 : ... .. . ... ... ... : ... .. . ... ... ... : ... .. . ... : ... .. 2 ... : ... .. . ... ... : ... .. . ... ... : ... .. . ... ... : ... .. . P7F ...
ROW 79 : ... .. . ... ... ... : ... .. . ... ... ... : ... .. . ... : ... .. 0 ... : ... .. . ... ... : ... .. . ... ... : ... .. . ... ... : ... .. . P81 ...
ROW 7A : D-2 00 F ... ... ... : D-3 00 F ... ... ... : C#5 00 . ... : 9-# 00 D ... : ... .. . ... ... : B-2 01 6 ... ... : B-3 01 6 ... ... : D-1 01 F P83 ...
ROW 7B : ... .. E ... ... ... : ... .. E ... ... ... : D#4 00 . ... : ... .. B ... : ... .. . ... ... : ... .. . ... ... : ... .. . ... ... : ... .. D ... ...
ROW 7C : ... .. D ... ... ... : ... .. D ... ... ... : G#3 00 . ... : ... .. . ... : ... .. . ... ... : ... .. 5 ... ... : ... .. 5 ... ... : ... .. 8 P82 ...
ROW 7D : ... .. A ... ... ... : ... .. A ... ... ... : G-3 00 . ... : ... .. A ... : ... .. . ... ... : ... .. 4 ... ... : ... .. 4 ... ... : ... .. . P80 ...
ROW 7E : ... .. . ... ... ... : ... .. . ... ... ... : D-3 00 . ... : ... .. 8 ... : ... .. . ... ... : ... .. . ... ... : ... .. . ... ... : ... .. . P7E ...
ROW 7F : ... .. . ... ... ... : ... .. . ... ... ... : ... .. . ... : ... .. 7 ... : ... .. . ... ... : ... .. . ... ... : ... .. . ... ... : ... .. . P7D ...
ROW 80 : A-1 00 F ... ... ... : A-2 00 F ... ... ... : A-2 00 . ... : ... .. 8 ... : ... .. . ... ... : C-3 01 6 ... ... : C-4 01 6 ... ... : A-0 01 F ... ...
ROW 81 : ... .. E ... ... ... : ... .. E ... ... ... : ... .. . ... : ... .. 6 ... : ... .. . ... ... : ... .. . ... ... : ... .. . ... ... : ... .. D P7F ...
ROW 82 : ... .. D ... ... ... : ... .. D ... ... ... : ... .. . ... : ... .. 3 ... : ... .. . ... ... : ... .. 5 ... ... : ... .. 5 ... ... : ... .. 8 P80 ...
ROW 83 : ... .. A ... ... ... : ... .. A ... ... ... : ... .. . ... : ... .. 1 ... : ... .. . ... ... : ... .. 4 ... ... : ... .. 4 ... ... : ... .. . P83 ...
ROW 84 : ... .. . ... ... ... : ... .. . ... ... ... : ... .. . ... : ... .. . ... : ... .. . ... ... : ... .. . ... ... : ... .. . ... ... : ... .. . ... ...
ROW 85 : ... .. . ... ... ... : ... .. . ... ... ... : ... .. . ... : ... .. 0 ... : ... .. . ... ... : ... .. . ... ... : ... .. . ... ... : ... .. . P82 ...
ROW 86 : D-1 00 F ... ... ... : D-2 00 F ... ... ... : D-2 00 . ... : B-# 00 F ... : ... .. . ... ... : F-3 01 6 ... ... : F-4 01 6 ... ... : D-0 01 F P80 ...
ROW 87 : ... .. E ... ... ... : ... .. E ... ... ... : ... .. . ... : ... .. C ... : ... .. . ... ... : ... .. . ... ... : ... .. . ... ... : ... .. D P7F ...
ROW 88 : ... .. D ... ... ... : ... .. D ... ... ... : ... .. . ... : ... .. 6 ... : ... .. . ... ... : ... .. 5 ... ... : ... .. 5 ... ... : ... .. 8 P7D ...
ROW 89 : ... .. A ... ... ... : ... .. A ... ... ... : ... .. . ... : ... .. 3 ... : ... .. . ... ... : ... .. 4 ... ... : ... .. 4 ... ... : ... .. . ... ...
ROW 8A : ... .. . ... ... ... : ... .. . ... ... ... : ... .. . ... : ... .. 2 ... : ... .. . ... ... : ... .. . ... ... : ... .. . ... ... : ... .. . P7F ...
ROW 8B : ... .. . ... ... ... : ... .. . ... ... ... : ... .. . ... : ... .. 0 ... : ... .. . ... ... : ... .. . ... ... : ... .. . ... ... : ... .. . P80 ...
ROW 8C : ... .. . ... ... ... : ... .. . ... ... ... : ... .. . ... : 9-# 00 8 ... : ... .. . ... ... : C-4 01 6 ... ... : C-5 01 6 ... ... : ... .. . P82 ...
ROW 8D : ... .. . ... ... ... : ... .. . ... ... ... : ... .. . ... : ... .. 6 ... : ... .. . ... ... : ... .. . ... ... : ... .. . ... ... : ... .. . P83 ...
ROW 8E : ... .. . ... ... ... : ... .. . ... ... ... : ... .. . ... : ... .. 3 ... : ... .. . ... ... : ... .. 5 ... ... : ... .. 5 ... ... : ... .. . ... ...
ROW 8F : ... .. . ... ... ... : ... .. . ... ... ... : ... .. . ... : ... .. 1 ... : ... .. . ... ... : ... .. 4 ... ... : ... .. 4 ... ... : ... .. . P80 ...
ROW 90 : ... .. . ... ... ... : ... .. . ... ... ... : ... .. . ... : ... .. . ... : ... .. . ... ... : ... .. . ... ... : ... .. . ... ... : ... .. . P7F ...
ROW 91 : ... .. . ... ... ... : ... .. . ... ... ... : ... .. . ... : ... .. 0 ... : ... .. . ... ... : ... .. . ... ... : ... .. . ... ... : ... .. . P7D ...
ROW 92 : ... .. . P60 ... ... : C#2 00 A P8E ... ... : C#2 00 . P8D : ... .. 8 ... : ... .. . ... ... : C#4 01 6 ... ... : C#5 01 6 ... ... : ... .. . ... ...
ROW 93 : C#1 00 A P9A ... ... : ... .. . P6E ... ... : ... .. . P6D : ... .. 6 ... : ... .. . ... ... : ... .. . ... ... : ... .. . ... ... : ... .. . P7E ...
ROW 94 : ... .. . P7A ... ... : C-2 00 A P7E ... ... : C-2 00 . P7D : ... .. 3 ... : ... .. . ... ... : ... .. 5 ... ... : ... .. 5 ... ... : ... .. . P80 ...
ROW 95 : ... .. . P5A ... ... : B-1 00 A P91 ... ... : B-1 00 . P90 : ... .. 1 ... : ... .. . ... ... : ... .. 4 ... ... : ... .. 4 ... ... : ... .. . P82 ...
ROW 96 : C-1 00 A P9A ... ... : ... .. . P71 ... ... : ... .. . P70 : ... .. . ... : ... .. . ... ... : ... .. . ... ... : ... .. . ... ... : ... .. . P83 ...
ROW 97 : ... .. . P7A ... ... : A#1 00 A P87 ... ... : A#1 00 . P86 : ... .. 0 ... : ... .. . ... ... : ... .. . ... ... : ... .. . ... ... : ... .. . ... ...
ROW 98 : D-4 00 4 P80 ... ... : G#3 00 4 P81 ... ... : B-3 00 . P80 : ... .. D ... : ... .. . ... ... : A-3 01 2 ... ... : D-4 01 2 ... ... : C#0 01 F PA6 ...
ROW 99 : ... .. 3 ... ... ... : ... .. 3 ... ... ... : C#3 00 . ... : ... .. B ... : ... .. . ... ... : ... .. . ... ... : ... .. . ... ... : ... .. D PA4 ...
ROW 9A : ... .. . ... ... ... : ... .. . ... ... ... : F#2 00 . ... : ... .. . ... : ... .. . ... ... : ... .. . ... ... : ... .. . ... ... : ... .. 8 PA2 ...
ROW 9B : ... .. . ... ... ... : ... .. . ... ... ... : F-2 00 . ... : ... .. A ... : ... .. . ... ... : ... .. . ... ... : ... .. . ... ... : ... .. . ... ...
ROW 9C : ... .. . ... ... ... : ... .. . ... ... ... : C-2 00 . ... : ... .. 8 ... : ... .. . ... ... : ... .. . ... ... : ... .. . ... ... : ... .. . PA3 ...
ROW 9D : ... .. . ... ... ... : ... .. . ... ... ... : ... .. . ... : ... .. 7 ... : ... .. . ... ... : ... .. . ... ... : ... .. . ... ... : ... .. . PA5 ...
ROW 9E : ... .. 4 ... ... ... : ... .. 4 ... ... ... : D-2 00 . ... : 7-# 00 8 ... : ... .. . ... ... : ... .. . ... ... : ... .. . ... ... : D-0 01 F P82 ...
ROW 9F : ... .. . ... ... ... : ... .. . ... ... ... : ... .. . ... : ... .. 6 ... : ... .. . ... ... : ... .. . ... ... : ... .. . ... ... : ... .. D P83 ...
ROW A0 : ... .. . ... ... ... : ... .. . ... ... ... : ... .. . ... : ... .. 3 ... : ... .. . ... ... : ... .. . ... ... : ... .. . ... ... : ... .. 8 ... ...
ROW A1 : D#4 00 5 ... ... ... : A-3 00 5 P7C ... ... : ... .. . ... : ... .. 1 ... : ... .. . ... ... : ... .. . ... ... : ... .. . ... ... : ... .. . P81 ...
ROW A2 : E-4 00 5 P7C ... ... : ... .. . P82 ... ... : ... .. . ... : ... .. . ... : ... .. . ... ... : ... .. . ... ... : ... .. . ... ... : ... .. . P80 ...
ROW A3 : D#4 00 5 P84 ... ... : ... .. . P80 ... ... : ... .. . ... : ... .. 0 ... : ... .. . ... ... : ... .. . ... ... : ... .. . ... ... : ... .. . P7D ...
ROW A4 : D-4 00 6 ... ... ... : G#3 00 6 P85 ... ... : C-3 00 . ... : A-# 00 F ... : ... .. . ... ... : ... .. 3 ... ... : ... .. 3 ... ... : C-1 01 F ... ...
ROW A5 : ... .. . P7C ... ... : ... .. . P7D ... ... : ... .. . ... : ... .. C ... : ... .. . ... ... : ... .. . ... ... : ... .. . ... ... : ... .. D P7E ...
ROW A6 : C#4 00 6 P7E ... ... : G-3 00 6 P83 ... ... : ... .. . ... : ... .. 6 ... : ... .. . ... ... : ... .. . ... ... : ... .. . ... ... : ... .. 8 P80 ...
ROW A7 : ... .. 7 P7C ... ... : ... .. 7 P81 ... ... : ... .. . ... : ... .. 3 ... : ... .. . ... ... : ... .. . ... ... : ... .. . ... ... : ... .. . P81 ...
ROW A8 : ... .. . P82 ... ... : ... .. . P87 ... ... : ... .. . ... : ... .. 2 ... : ... .. . ... ... : ... .. . ... ... : ... .. . ... ... : ... .. . P83 ...
ROW A9 : D-4 00 7 P80 ... ... : G#3 00 7 P81 ... ... : ... .. . ... : ... .. 0 ... : ... .. . ... ... : ... .. . ... ... : ... .. . ... ... : ... .. . ... ...
ROW AA : D#4 00 8 P7F ... ... : A-3 00 8 P7B ... ... : D-3 00 . ... : E-# 00 8 ... : ... .. . ... ... : ... .. 4 ... ... : ... .. 4 ... ... : D-1 01 F P81 ...
ROW AB : E-4 00 8 P7C ... ... : ... .. . P82 ... ... : ... .. . ... : ... .. 6 ... : ... .. . ... ... : ... .. . ... ... : ... .. . ... ... : ... .. D P80 ...
ROW AC : D#4 00 8 P84 ... ... : ... .. . P80 ... ... : ... .. . ... : ... .. 3 ... : ... .. . ... ... : ... .. . ... ... : ... .. . ... ... : ... .. 8 P7E ...
ROW AD : ... .. A P7C ... ... : G#3 00 A P87 ... ... : ... .. . ... : ... .. 1 ... : ... .. . ... ... : ... .. 5 ... ... : ... .. 5 ... ... : ... .. . P7D ...
ROW AE : D-4 00 A P7D ... ... : ... .. . P7E ... ... : ... .. . ... : ... .. . ... : ... .. . ... ... : ... .. . ... ... : ... .. . ... ... : ... .. . ... ...
ROW AF : C#4 00 A P7F ... ... : G-3 00 A P84 ... ... : ... .. . ... : ... .. 0 ... : ... .. . ... ... : ... .. . ... ... : ... .. . ... ... : ... .. . P80 ...
ROW B0 : D#4 00 F P80 ... ... : D#3 00 F P81 ... ... : D-5 00 . ... : 1-# 00 F ... : ... .. . ... ... : C-5 01 6 ... ... : C-6 01 6 ... ... : D#1 01 F P81 ...
ROW B1 : ... .. E ... ... ... : ... .. E ... ... ... : E-4 00 . ... : ... .. C ... : ... .. . ... ... : ... .. . ... ... : ... .. . ... ... : ... .. D P83 ...
ROW B2 : ... .. D ... ... ... : ... .. D ... ... ... : A-3 00 . ... : ... .. 6 ... : ... .. . ... ... : ... .. 5 ... ... : ... .. 5 ... ... : ... .. 8 ... ...
ROW B3 : ... .. A ... ... ... : ... .. A ... ... ... : G#3 00 . ... : ... .. 3 ... : ... .. . ... ... : ... .. 4 ... ... : ... .. 4 ... ... : ... .. . P82 ...
ROW B4 : ... .. 2 ... ... ... : ... .. . ... ... ... : D#3 00 . ... : ... .. 2 ... : ... .. . ... ... : ... .. . ... ... : ... .. . ... ... : ... .. . P80 ...
ROW B5 : ... .. . ... ... ... : ... .. . ... ... ... : ... .. . ... : ... .. 0 ... : ... .. . ... ... : ... .. . ... ... : ... .. . ... ... : ... .. . P7E ...
ROW B6 : D-4 00 F ... ... ... : D-3 00 F ... ... ... : D-3 00 . ... : 9-# 00 8 ... : ... .. . ... ... : C#5 01 6 ... ... : C#6 01 6 ... ... : D-1 01 F P7D ...
ROW B7 : ... .. E ... ... ... : ... .. E ... ... ... : ... .. . ... : ... .. 6 ... : ... .. . ... ... : ... .. . ... ... : ... .. . ... ... : ... .. D ... ...
ROW B8 : ... .. D ... ... ... : ... .. D ... ... ... : ... .. . ... : ... .. 3 ... : ... .. . ... ... : ... .. 5 ... ... : ... .. 5 ... ... : ... .. 8 P7F ...
ROW B9 : ... .. A ... ... ... : ... .. A ... ... ... : ... .. . ... : ... .. 1 ... : ... .. . ... ... : ... .. 4 ... ... : ... .. 4 ... ... : ... .. . P81 ...
ROW BA : ... .. 2 ... ... ... : ... .. . ... ... ... : ... .. . ... : ... .. . ... : ... .. . ... ... : ... .. . ... ... : ... .. . ... ... : ... .. . P83 ...
ROW BB : ... .. . ... ... ... : ... .. . ... ... ... : ... .. . ... : ... .. 0 ... : ... .. . ... ... : ... .. . ... ... : ... .. . ... ... : ... .. . ... ...
ROW BC : D-3 00 F ... ... ... : D-2 00 F ... ... ... : D-2 00 . ... : B-# 00 F ... : ... .. . ... ... : C-5 01 6 ... ... : C-6 01 6 ... ... : D-0 01 F P82 ...
ROW BD : ... .. E ... ... ... : ... .. E ... ... ... : ... .. . ... : ... .. C ... : ... .. . ... ... : ... .. . ... ... : ... .. . ... ... : ... .. D P80 ...
ROW BE : ... .. D ... ... ... : ... .. D ... ... ... : ... .. . ... : ... .. 6 ... : ... .. . ... ... : ... .. 5 ... ... : ... .. 5 ... ... : ... .. 8 P7E ...
ROW BF : ... .. A ... ... ... : ... .. A ... ... ... : ... .. . ... : ... .. 3 ... : ... .. . ... ... : ... .. 4 ... ... : ... .. 4 ... ... : ... .. . P7D ...
ROW C0 : ... .. 2 ... ... ... : ... .. . ... ... ... : ... .. . ... : ... .. 2 ... : ... .. . ... ... : ... .. . ... ... : ... .. . ... ... : ... .. . ... ...
ROW C1 : ... .. . ... ... ... : ... .. . ... ... ... : ... .. . ... : ... .. 0 ... : ... .. . ... ... : ... .. . ... ... : ... .. . ... ... : ... .. . P7F ...
ROW C2 : ... .. F ... ... ... : ... .. F ... ... ... : ... .. . ... : 9-# 00 8 ... : ... .. . ... ... : F-4 01 6 ... ... : F-5 01 6 ... ... : ... .. F P80 ...
ROW C3 : ... .. E ... ... ... : ... .. E ... ... ... : ... .. . ... : ... .. 6 ... : ... .. . ... ... : ... .. . ... ... : ... .. . ... ... : ... .. D P83 ...
ROW C4 : ... .. D ... ... ... : ... .. D ... ... ... : ... .. . ... : ... .. 3 ... : ... .. . ... ... : ... .. 5 ... ... : ... .. 5 ... ... : ... .. 8 ... ...
ROW C5 : ... .. A ... ... ... : ... .. A ... ... ... : ... .. . ... : ... .. 1 ... : ... .. . ... ... : ... .. 4 ... ... : ... .. 4 ... ... : ... .. . P82 ...
ROW C6 : ... .. 2 ... ... ... : ... .. . ... ... ... : ... .. . ... : ... .. . ... : ... .. . ... ... : ... .. . ... ... : ... .. . ... ... : ... .. . P80 ...
ROW C7 : ... .. . ... ... ... : ... .. . ... ... ... : ... .. . ... : ... .. 0 ... : ... .. . ... ... : ... .. . ... ... : ... .. . ... ... : ... .. . P7F ...
ROW C8 : C-3 00 F ... ... ... : C-2 00 F ... ... ... : B-3 00 . ... : ... .. D ... : ... .. . ... ... : C-4 01 6 ... ... : C-5 01 6 ... ... : C#0 01 F PA2 ...
ROW C9 : ... .. E ... ... ... : ... .. E ... ... ... : C#3 00 . ... : ... .. B ... : ... .. . ... ... : ... .. . ... ... : ... .. . ... ... : ... .. D ... ...
ROW CA : ... .. D ... ... ... : ... .. D ... ... ... : F#2 00 . ... : ... .. . ... : ... .. . ... ... : ... .. 5 ... ... : ... .. 5 ... ... : ... .. 8 PA4 ...
ROW CB : ... .. A ... ... ... : ... .. A ... ... ... : F-2 00 . ... : ... .. A ... : ... .. . ... ... : ... .. 4 ... ... : ... .. 4 ... ... : ... .. . PA5 ...
ROW CC : ... .. 2 ... ... ... : ... .. . ... ... ... : C-2 00 . ... : ... .. 8 ... : ... .. . ... ... : ... .. . ... ... : ... .. . ... ... : ... .. . PA7 ...
ROW CD : ... .. . ... ... ... : ... .. . ... ... ... : ... .. . ... : ... .. 7 ... : ... .. . ... ... : ... .. . ... ... : ... .. . ... ... : ... .. . PA8 ...
ROW CE : D-3 00 F ... ... ... : D-2 00 F ... ... ... : D-2 00 . ... : 7-# 00 8 ... : ... .. . ... ... : B-3 01 6 ... ... : B-4 01 6 ... ... : D-0 01 F P83 ...
ROW CF : ... .. E ... ... ... : ... .. E ... ... ... : ... .. . ... : ... .. 6 ... : ... .. . ... ... : ... .. . ... ... : ... .. . ... ... : ... .. D P80 ...
ROW D0 : ... .. D ... ... ... : ... .. D ... ... ... : ... .. . ... : ... .. 3 ... : ... .. . ... ... : ... .. 5 ... ... : ... .. 5 ... ... : ... .. 8 P7F ...
ROW D1 : ... .. A ... ... ... : ... .. A ... ... ... : ... .. . ... : ... .. 1 ... : ... .. . ... ... : ... .. 4 ... ... : ... .. 4 ... ... : ... .. . P7D ...
ROW D2 : ... .. 2 ... ... ... : ... .. . ... ... ... : ... .. . ... : ... .. . ... : ... .. . ... ... : ... .. . ... ... : ... .. . ... ... : ... .. . ... ...
ROW D3 : ... .. . ... ... ... : ... .. . ... ... ... : ... .. . ... : ... .. 0 ... : ... .. . ... ... : ... .. . ... ... : ... .. . ... ... : ... .. . P7E ...
ROW D4 : D#4 00 F ... ... ... : D#3 00 F ... ... ... : D#3 00 . ... : A-# 00 F ... : ... .. . ... ... : F-3 01 6 ... ... : F-4 01 6 ... ... : D#1 01 F P80 ...
ROW D5 : ... .. E ... ... ... : ... .. E ... ... ... : ... .. . ... : ... .. C ... : ... .. . ... ... : ... .. . ... ... : ... .. . ... ... : ... .. D P82 ...
ROW D6 : ... .. D ... ... ... : ... .. D ... ... ... : ... .. . ... : ... .. 6 ... : ... .. . ... ... : ... .. 5 ... ... : ... .. 5 ... ... : ... .. 8 P83 ...
ROW D7 : ... .. A ... ... ... : ... .. A ... ... ... : ... .. . ... : ... .. 3 ... : ... .. . ... ... : ... .. 4 ... ... : ... .. 4 ... ... : ... .. . ... ...
ROW D8 : ... .. 2 ... ... ... : ... .. . ... ... ... : ... .. . ... : ... .. 2 ... : ... .. . ... ... : ... .. . ... ... : ... .. . ... ... : ... .. . P81 ...
ROW D9 : ... .. . ... ... ... : ... .. . ... ... ... : ... .. . ... : ... .. 0 ... : ... .. . ... ... : ... .. . ... ... : ... .. . ... ... : ... .. . P7F ...
ROW DA : D-4 00 F ... ... ... : D-3 00 F ... ... ... : D-3 00 . ... : E-# 00 8 ... : ... .. . ... ... : C-3 01 6 ... ... : C-4 01 6 ... ... : D-1 01 F P7D ...
ROW DB : ... .. E ... ... ... : ... .. E ... ... ... : ... .. . ... : ... .. 6 ... : ... .. . ... ... : ... .. . ... ... : ... .. . ... ... : ... .. D ... ...
ROW DC : ... .. D ... ... ... : ... .. D ... ... ... : ... .. . ... : ... .. 3 ... : ... .. . ... ... : ... .. 5 ... ... : ... .. 5 ... ... : ... .. 8 P7E ...
ROW DD : ... .. A ... ... ... : ... .. A ... ... ... : ... .. . ... : ... .. 1 ... : ... .. . ... ... : ... .. 4 ... ... : ... .. 4 ... ... : ... .. . P80 ...
ROW DE : ... .. 2 ... ... ... : ... .. . ... ... ... : ... .. . ... : ... .. . ... : ... .. . ... ... : ... .. . ... ... : ... .. . ... ... : ... .. . P82 ...
ROW DF : ... .. . ... ... ... : ... .. . ... ... ... : ... .. . ... : ... .. 0 ... : ... .. . ... ... : ... .. . ... ... : ... .. . ... ... : ... .. . P83 ...
ROW E0 : D-3 00 F ... ... ... : D-2 00 F ... ... ... : C#4 00 . ... : 1-# 00 F ... : ... .. . ... ... : B-2 01 6 ... ... : B-3 01 6 ... ... : D-0 01 F ... ...
ROW E1 : ... .. E ... ... ... : ... .. E ... ... ... : D#3 00 . ... : ... .. C ... : ... .. . ... ... : ... .. . ... ... : ... .. . ... ... : ... .. D P81 ...
ROW E2 : ... .. D ... ... ... : ... .. D ... ... ... : G#2 00 . ... : ... .. 6 ... : ... .. . ... ... : ... .. 5 ... ... : ... .. 5 ... ... : ... .. 8 P80 ...
ROW E3 : ... .. A ... ... ... : ... .. A ... ... ... : G-2 00 . ... : ... .. 3 ... : ... .. . ... ... : ... .. 4 ... ... : ... .. 4 ... ... : ... .. . P7D ...
ROW E4 : ... .. 2 ... ... ... : ... .. . ... ... ... : D-2 00 . ... : ... .. 2 ... : ... .. . ... ... : ... .. . ... ... : ... .. . ... ... : ... .. . ... ...
ROW E5 : ... .. . ... ... ... : ... .. . ... ... ... : ... .. . ... : ... .. 0 ... : ... .. . ... ... : ... .. . ... ... : ... .. . ... ... : ... .. . P7E ...
ROW E6 : ... .. F ... ... ... : ... .. F ... ... ... : ... .. . ... : 9-# 00 8 ... : ... .. . ... ... : C-3 01 6 ... ... : C-4 01 6 ... ... : ... .. F P80 ...
ROW E7 : ... .. E ... ... ... : ... .. E ... ... ... : ... .. . ... : ... .. 6 ... : ... .. . ... ... : ... .. . ... ... : ... .. . ... ... : ... .. D P81 ...
ROW E8 : ... .. D ... ... ... : ... .. D ... ... ... : ... .. . ... : ... .. 3 ... : ... .. . ... ... : ... .. 5 ... ... : ... .. 5 ... ... : ... .. 8 P83 ...
ROW E9 : ... .. A ... ... ... : ... .. A ... ... ... : ... .. . ... : ... .. 1 ... : ... .. . ... ... : ... .. 4 ... ... : ... .. 4 ... ... : ... .. . ... ...
ROW EA : ... .. 2 ... ... ... : ... .. . ... ... ... : ... .. . ... : ... .. . ... : ... .. . ... ... : ... .. . ... ... : ... .. . ... ... : ... .. . P81 ...
ROW EB : ... .. . ... ... ... : ... .. . ... ... ... : ... .. . ... : ... .. 0 ... : ... .. . ... ... : ... .. . ... ... : ... .. . ... ... : ... .. . P80 ...
ROW EC : C-3 00 F ... ... ... : C-2 00 F ... ... ... : C-2 00 . ... : 1-# 00 F ... : ... .. . ... ... : F-3 01 6 ... ... : F-4 01 6 ... ... : C#0 01 F PA3 ...
ROW ED : ... .. E ... ... ... : ... .. E ... ... ... : ... .. . ... : ... .. C ... : ... .. . ... ... : ... .. . ... ... : ... .. . ... ... : ... .. D PA2 ...
ROW EE : ... .. D ... ... ... : ... .. D ... ... ... : ... .. . ... : ... .. 6 ... : ... .. . ... ... : ... .. 5 ... ... : ... .. 5 ... ... : ... .. 8 ... ...
ROW EF : ... .. A ... ... ... : ... .. A ... ... ... : ... .. . ... : ... .. 3 ... : ... .. . ... ... : ... .. 4 ... ... : ... .. 4 ... ... : ... .. . PA5 ...
ROW F0 : ... .. 2 ... ... ... : ... .. . ... ... ... : ... .. . ... : ... .. 2 ... : ... .. . ... ... : ... .. . ... ... : ... .. . ... ... : ... .. . PA6 ...
ROW F1 : ... .. . ... ... ... : ... .. . ... ... ... : ... .. . ... : ... .. 0 ... : ... .. . ... ... : ... .. . ... ... : ... .. . ... ... : ... .. . PA8 ...
ROW F2 : D-3 00 F ... ... ... : D-2 00 F ... ... ... : D-2 00 . ... : 9-# 00 8 ... : ... .. . ... ... : F#3 01 6 ... ... : F#4 01 6 ... ... : D-0 01 F P83 ...
ROW F3 : ... .. E ... ... ... : ... .. E ... ... ... : ... .. . ... : ... .. 6 ... : ... .. . ... ... : ... .. . ... ... : ... .. . ... ... : ... .. D P82 ...
ROW F4 : ... .. D ... ... ... : ... .. D ... ... ... : ... .. . ... : ... .. 3 ... : ... .. . ... ... : ... .. 5 ... ... : ... .. 5 ... ... : ... .. 8 P80 ...
ROW F5 : ... .. A ... ... ... : ... .. A ... ... ... : ... .. . ... : ... .. 1 ... : ... .. . ... ... : ... .. 4 ... ... : ... .. 4 ... ... : ... .. . P7E ...
ROW F6 : ... .. 2 ... ... ... : ... .. . ... ... ... : ... .. . ... : ... .. . ... : ... .. . ... ... : ... .. . ... ... : ... .. . ... ... : ... .. . P7D ...
ROW F7 : ... .. . ... ... ... : ... .. . ... ... ... : ... .. . ... : ... .. 0 ... : ... .. . ... ... : ... .. . ... ... : ... .. . ... ... : ... .. . ... ...
ROW F8 : G#4 00 F ... ... ... : G#3 00 F ... ... ... : G-5 00 . ... : ... .. D ... : ... .. . ... ... : C-4 01 6 ... ... : C-5 01 6 ... ... : G#1 01 F P7F ...
ROW F9 : ... .. E ... ... ... : ... .. E ... ... ... : A-4 00 . ... : ... .. B ... : ... .. . ... ... : ... .. . ... ... : ... .. . ... ... : ... .. D P81 ...
ROW FA : ... .. D ... ... ... : ... .. D ... ... ... : D-4 00 . ... : ... .. . ... : ... .. . ... ... : ... .. 5 ... ... : ... .. 5 ... ... : ... .. 8 P83 ...
ROW FB : ... .. A ... ... ... : ... .. A ... ... ... : C#4 00 . ... : ... .. A ... : ... .. . ... ... : ... .. 4 ... ... : ... .. 4 ... ... : ... .. . ... ...
ROW FC : ... .. 2 ... ... ... : ... .. . ... ... ... : G#3 00 . ... : ... .. 8 ... : ... .. . ... ... : ... .. . ... ... : ... .. . ... ... : ... .. . P82 ...
ROW FD : ... .. . ... ... ... : ... .. . ... ... ... : ... .. . ... : ... .. 7 ... : ... .. . ... ... : ... .. . ... ... : ... .. . ... ... : ... .. . P80 ...
ROW FE : ... .. F ... ... ... : ... .. F ... ... ... : ... .. . ... : 7-# 00 8 ... : ... .. . ... ... : C#4 01 6 ... ... : C#5 01 6 ... ... : ... .. F P7E ...
ROW FF : ... .. E ... ... ... : ... .. E ... ... ... : ... .. . ... : ... .. 6 ... : ... .. . ... ... : ... .. . ... ... : ... .. . ... ... : ... .. D P7D ...

PATTERN 0B
ROW 00 : ... .. D ... ... ... : ... .. D ... ... ... : ... .. . ... : ... .. 3 ... : ... .. . ... ... : ... .. 5 ... ... : ... .. 5 ... ... : ... .. 8 ... ...
ROW 01 : ... .. A ... ... ... : ... .. A ... ... ... : ... .. . ... : ... .. 1 ... : ... .. . ... ... : ... .. 4 ... ... : ... .. 4 ... ... : ... .. . P7F ...
ROW 02 : ... .. 2 ... ... ... : ... .. . ... ... ... : ... .. . ... : ... .. . ... : ... .. . ... ... : ... .. . ... ... : ... .. . ... ... : ... .. . P80 ...
ROW 03 : ... .. . ... ... ... : ... .. . ... ... ... : ... .. . ... : ... .. 0 ... : ... .. . ... ... : ... .. . ... ... : ... .. . ... ... : ... .. . P83 ...
ROW 04 : E-4 00 F ... ... ... : E-3 00 F ... ... ... : E-3 00 . ... : A-# 00 F ... : ... .. . ... ... : F-4 01 6 ... ... : F-5 01 6 ... ... : E-1 01 F ... ...
ROW 05 : ... .. E ... ... ... : ... .. E ... ... ... : ... .. . ... : ... .. C ... : ... .. . ... ... : ... .. . ... ... : ... .. . ... ... : ... .. D P82 ...
ROW 06 : ... .. D ... ... ... : ... .. D ... ... ... : ... .. . ... : ... .. 6 ... : ... .. . ... ... : ... .. 5 ... ... : ... .. 5 ... ... : ... .. 8 P80 ...
ROW 07 : ... .. A ... ... ... : ... .. A ... ... ... : ... .. . ... : ... .. 3 ... : ... .. . ... ... : ... .. 4 ... ... : ... .. 4 ... ... : ... .. . P7F ...
ROW 08 : ... .. 2 ... ... ... : ... .. . ... ... ... : ... .. . ... : ... .. 2 ... : ... .. . ... ... : ... .. . ... ... : ... .. . ... ... : ... .. . P7D ...
ROW 09 : ... .. . ... ... ... : ... .. . ... ... ... : ... .. . ... : ... .. 0 ... : ... .. . ... ... : ... .. . ... ... : ... .. . ... ... : ... .. . ... ...
ROW 0A : ... .. F ... ... ... : ... .. F ... ... ... : ... .. . ... : E-# 00 8 ... : ... .. . ... ... : F#4 01 6 ... ... : F#5 01 6 ... ... : ... .. F P7F ...
ROW 0B : ... .. E ... ... ... : ... .. E ... ... ... : ... .. . ... : ... .. 6 ... : ... .. . ... ... : ... .. . ... ... : ... .. . ... ... : ... .. D P80 ...
ROW 0C : ... .. D ... ... ... : ... .. D ... ... ... : ... .. . ... : ... .. 3 ... : ... .. . ... ... : ... .. 5 ... ... : ... .. 5 ... ... : ... .. 8 P82 ...
ROW 0D : ... .. A ... ... ... : ... .. A ... ... ... : ... .. . ... : ... .. 1 ... : ... .. . ... ... : ... .. 4 ... ... : ... .. 4 ... ... : ... .. . P83 ...
ROW 0E : ... .. 2 ... ... ... : ... .. . ... ... ... : ... .. . ... : ... .. . ... : ... .. . ... ... : ... .. . ... ... : ... .. . ... ... : ... .. . ... ...
ROW 0F : ... .. . ... ... ... : ... .. . ... ... ... : ... .. . ... : ... .. 0 ... : ... .. . ... ... : ... .. . ... ... : ... .. . ... ... : ... .. . P80 ...
ROW 10 : F-2 00 F ... ... ... : F-3 00 F ... ... ... : E-5 00 . ... : 9-# 00 D ... : ... .. . ... ... : F-4 01 6 ... ... : F-5 01 6 ... ... : F-1 01 F P7F ...
ROW 11 : ... .. E ... ... ... : ... .. E ... ... ... : F#4 00 . ... : ... .. B ... : ... .. . ... ... : ... .. . ... ... : ... .. . ... ... : ... .. D P7D ...
ROW 12 : ... .. D ... ... ... : ... .. D ... ... ... : B-3 00 . ... : ... .. . ... : ... .. . ... ... : ... .. 5 ... ... : ... .. 5 ... ... : ... .. 8 ... ...
ROW 13 : ... .. A ... ... ... : ... .. A ... ... ... : A#3 00 . ... : ... .. A ... : ... .. . ... ... : ... .. 4 ... ... : ... .. 4 ... ... : ... .. . P7E ...
ROW 14 : ... .. 2 ... ... ... : ... .. . ... ... ... : F-3 00 . ... : ... .. 8 ... : ... .. . ... ... : ... .. . ... ... : ... .. . ... ... : ... .. . P80 ...
ROW 15 : ... .. . ... ... ... : ... .. . ... ... ... : ... .. . ... : ... .. 7 ... : ... .. . ... ... : ... .. . ... ... : ... .. . ... ... : ... .. . P82 ...
ROW 16 : C-2 00 F ... ... ... : C-3 00 F ... ... ... : C-3 00 . ... : ... .. 8 ... : ... .. . ... ... : F#4 01 6 ... ... : F#5 01 6 ... ... : C-1 01 F P83 ...
ROW 17 : ... .. E ... ... ... : ... .. E ... ... ... : ... .. . ... : ... .. 6 ... : ... .. . ... ... : ... .. . ... ... : ... .. . ... ... : ... .. D ... ...
ROW 18 : ... .. D ... ... ... : ... .. D ... ... ... : ... .. . ... : ... .. 3 ... : ... .. . ... ... : ... .. 5 ... ... : ... .. 5 ... ... : ... .. 8 P81 ...
ROW 19 : ... .. A ... ... ... : ... .. A ... ... ... : ... .. . ... : ... .. 1 ... : ... .. . ... ... : ... .. 4 ... ... : ... .. 4 ... ... : ... .. . P7F ...
ROW 1A : ... .. 2 ... ... ... : ... .. . ... ... ... : ... .. . ... : ... .. . ... : ... .. . ... ... : ... .. . ... ... : ... .. . ... ... : ... .. . P7D ...
ROW 1B : ... .. . ... ... ... : ... .. . ... ... ... : ... .. . ... : ... .. 0 ... : ... .. . ... ... : ... .. . ... ... : ... .. . ... ... : ... .. . ... ...
ROW 1C : F-1 00 F ... ... ... : F-2 00 F ... ... ... : F-2 00 . ... : B-# 00 F ... : ... .. . ... ... : F-4 01 6 ... ... : F-5 01 6 ... ... : F-0 01 F P7E ...
ROW 1D : ... .. E ... ... ... : ... .. E ... ... ... : ... .. . ... : ... .. C ... : ... .. . ... ... : ... .. . ... ... : ... .. . ... ... : ... .. D P80 ...
ROW 1E : ... .. D ... ... ... : ... .. D ... ... ... : ... .. . ... : ... .. 6 ... : ... .. . ... ... : ... .. 5 ... ... : ... .. 5 ... ... : ... .. 8 P82 ...
ROW 1F : ... .. A ... ... ... : ... .. A ... ... ... : ... .. . ... : ... .. 3 ... : ... .. . ... ... : ... .. 4 ... ... : ... .. 4 ... ... : ... .. . P83 ...
ROW 20 : ... .. . ... ... ... : ... .. . ... ... ... : ... .. . ... : ... .. 2 ... : ... .. . ... ... : ... .. . ... ... : ... .. . ... ... : ... .. . ... ...
ROW 21 : ... .. . ... ... ... : ... .. . ... ... ... : ... .. . ... : ... .. 0 ... : ... .. . ... ... : ... .. . ... ... : ... .. . ... ... : ... .. . P81 ...
ROW 22 : ... .. . P60 ... ... : E-2 00 A P87 ... ... : E-2 00 . P86 : 9-# 00 8 ... : ... .. . ... ... : C-4 01 6 ... ... : C-5 01 6 ... ... : ... .. . P80 ...
ROW 23 : E-1 00 A P8C ... ... : D#2 00 A P8F ... ... : D#2 00 . P8E : ... .. 6 ... : ... .. . ... ... : ... .. . ... ... : ... .. . ... ... : ... .. . P7D ...
ROW 24 : ... .. . P6C ... ... : ... .. . P6F ... ... : ... .. . P6E : ... .. 3 ... : ... .. . ... ... : ... .. 5 ... ... : ... .. 5 ... ... : ... .. . ... ...
ROW 25 : D#1 00 A P9D ... ... : D-2 00 A P7A ... ... : D-2 00 . P79 : ... .. 1 ... : ... .. . ... ... : ... .. 4 ... ... : ... .. 4 ... ... : ... .. . P7E ...
ROW 26 : ... .. . P7D ... ... : C#2 00 A P87 ... ... : C#2 00 . P86 : ... .. . ... : ... .. . ... ... : ... .. . ... ... : ... .. . ... ... : ... .. . P80 ...
ROW 27 : ... .. . P5D ... ... : C-2 00 A P97 ... ... : C-2 00 . P96 : ... .. 0 ... : ... .. . ... ... : ... .. . ... ... : ... .. . ... ... : ... .. . P81 ...
ROW 28 : D#2 00 F P80 ... ... : D#3 00 F P81 ... ... : D-5 00 . P80 : ... .. D ... : ... .. . ... ... : B-3 01 6 ... ... : B-4 01 6 ... ... : D#1 01 F P83 ...
ROW 29 : ... .. E ... ... ... : ... .. E ... ... ... : E-4 00 . ... : ... .. B ... : ... .. . ... ... : ... .. . ... ... : ... .. . ... ... : ... .. D ... ...
ROW 2A : ... .. D ... ... ... : ... .. D ... ... ... : A-3 00 . ... : ... .. . ... : ... .. . ... ... : ... .. 5 ... ... : ... .. 5 ... ... : ... .. 8 P81 ...
ROW 2B : ... .. A ... ... ... : ... .. A ... ... ... : G#3 00 . ... : ... .. A ... : ... .. . ... ... : ... .. 4 ... ... : ... .. 4 ... ... : ... .. . P80 ...
ROW 2C : ... .. . ... ... ... : ... .. . ... ... ... : D#3 00 . ... : ... .. 8 ... : ... .. . ... ... : ... .. . ... ... : ... .. . ... ... : ... .. . P7E ...
ROW 2D : ... .. . ... ... ... : ... .. . ... ... ... : ... .. . ... : ... .. 7 ... : ... .. . ... ... : ... .. . ... ... : ... .. . ... ... : ... .. . P7D ...
ROW 2E : B-1 00 F ... ... ... : B-2 00 F ... ... ... : B-2 00 . ... : ... .. 8 ... : ... .. . ... ... : F-3 01 6 ... ... : F-4 01 6 ... ... : B-0 01 F ... ...
ROW 2F : ... .. E ... ... ... : ... .. E ... ... ... : ... .. . ... : ... .. 6 ... : ... .. . ... ... : ... .. . ... ... : ... .. . ... ... : ... .. D P80 ...
ROW 30 : ... .. D ... ... ... : ... .. D ... ... ... : ... .. . ... : ... .. 3 ... : ... .. . ... ... : ... .. 5 ... ... : ... .. 5 ... ... : ... .. 8 P81 ...
ROW 31 : ... .. A ... ... ... : ... .. A ... ... ... : ... .. . ... : ... .. 1 ... : ... .. . ... ... : ... .. 4 ... ... : ... .. 4 ... ... : ... .. . P83 ...
ROW 32 : ... .. . ... ... ... : ... .. . ... ... ... : ... .. . ... : ... .. . ... : ... .. . ... ... : ... .. . ... ... : ... .. . ... ... : ... .. . ... ...
ROW 33 : ... .. . ... ... ... : ... .. . ... ... ... : ... .. . ... : ... .. 0 ... : ... .. . ... ... : ... .. . ... ... : ... .. . ... ... : ... .. . P82 ...
ROW 34 : D#1 00 F ... ... ... : D#2 00 F ... ... ... : D#2 00 . ... : B-# 00 F ... : ... .. . ... ... : C-3 01 6 ... ... : C-4 01 6 ... ... : D#0 01 F P80 ...
ROW 35 : ... .. E ... ... ... : ... .. E ... ... ... : ... .. . ... : ... .. C ... : ... .. . ... ... : ... .. . ... ... : ... .. . ... ... : ... .. D P7E ...
ROW 36 : ... .. D ... ... ... : ... .. D ... ... ... : ... .. . ... : ... .. 6 ... : ... .. . ... ... : ... .. 5 ... ... : ... .. 5 ... ... : ... .. 8 P7D ...
ROW 37 : ... .. A ... ... ... : ... .. A ... ... ... : ... .. . ... : ... .. 3 ... : ... .. . ... ... : ... .. 4 ... ... : ... .. 4 ... ... : ... .. . ... ...
ROW 38 : ... .. . ... ... ... : ... .. . ... ... ... : ... .. . ... : ... .. 2 ... : ... .. . ... ... : ... .. . ... ... : ... .. . ... ... : ... .. . P7F ...
ROW 39 : ... .. . ... ... ... : ... .. . ... ... ... : ... .. . ... : ... .. 0 ... : ... .. . ... ... : ... .. . ... ... : ... .. . ... ... : ... .. . P81 ...
ROW 3A : D-2 00 F ... ... ... : D-3 00 F ... ... ... : C#5 00 . ... : 9-# 00 D ... : ... .. . ... ... : B-2 01 6 ... ... : B-3 01 6 ... ... : D-1 01 F P83 ...
ROW 3B : ... .. E ... ... ... : ... .. E ... ... ... : D#4 00 . ... : ... .. B ... : ... .. . ... ... : ... .. . ... ... : ... .. . ... ... : ... .. D ... ...
ROW 3C : ... .. D ... ... ... : ... .. D ... ... ... : G#3 00 . ... : ... .. . ... : ... .. . ... ... : ... .. 5 ... ... : ... .. 5 ... ... : ... .. 8 P82 ...
ROW 3D : ... .. A ... ... ... : ... .. A ... ... ... : G-3 00 . ... : ... .. A ... : ... .. . ... ... : ... .. 4 ... ... : ... .. 4 ... ... : ... .. . P80 ...
ROW 3E : ... .. . ... ... ... : ... .. . ... ... ... : D-3 00 . ... : ... .. 8 ... : ... .. . ... ... : ... .. . ... ... : ... .. . ... ... : ... .. . P7E ...
ROW 3F : ... .. . ... ... ... : ... .. . ... ... ... : ... .. . ... : ... .. 7 ... : ... .. . ... ... : ... .. . ... ... : ... .. . ... ... : ... .. . P7D ...
ROW 40 : A-1 00 F ... ... ... : A-2 00 F ... ... ... : A-2 00 . ... : ... .. 8 ... : ... .. . ... ... : C-3 01 6 ... ... : C-4 01 6 ... ... : A-0 01 F ... ...
ROW 41 : ... .. E ... ... ... : ... .. E ... ... ... : ... .. . ... : ... .. 6 ... : ... .. . ... ... : ... .. . ... ... : ... .. . ... ... : ... .. D P7F ...
ROW 42 : ... .. D ... ... ... : ... .. D ... ... ... : ... .. . ... : ... .. 3 ... : ... .. . ... ... : ... .. 5 ... ... : ... .. 5 ... ... : ... .. 8 P80 ...
ROW 43 : ... .. A ... ... ... : ... .. A ... ... ... : ... .. . ... : ... .. 1 ... : ... .. . ... ... : ... .. 4 ... ... : ... .. 4 ... ... : ... .. . P83 ...
ROW 44 : ... .. . ... ... ... : ... .. . ... ... ... : ... .. . ... : ... .. . ... : ... .. . ... ... : ... .. . ... ... : ... .. . ... ... : ... .. . ... ...
ROW 45 : ... .. . ... ... ... : ... .. . ... ... ... : ... .. . ... : ... .. 0 ... : ... .. . ... ... : ... .. . ... ... : ... .. . ... ... : ... .. . P82 ...
ROW 46 : D-1 00 F ... ... ... : D-2 00 F ... ... ... : D-2 00 . ... : B-# 00 F ... : ... .. . ... ... : F-3 01 6 ... ... : F-4 01 6 ... ... : D-0 01 F P80 ...
ROW 47 : ... .. E ... ... ... : ... .. E ... ... ... : ... .. . ... : ... .. C ... : ... .. . ... ... : ... .. . ... ... : ... .. . ... ... : ... .. D P7F ...
ROW 48 : ... .. D ... ... ... : ... .. D ... ... ... : ... .. . ... : ... .. 6 ... : ... .. . ... ... : ... .. 5 ... ... : ... .. 5 ... ... : ... .. 8 P7D ...
ROW 49 : ... .. A ... ... ... : ... .. A ... ... ... : ... .. . ... : ... .. 3 ... : ... .. . ... ... : ... .. 4 ... ... : ... .. 4 ... ... : ... .. . ... ...
ROW 4A : ... .. . ... ... ... : ... .. . ... ... ... : ... .. . ... : ... .. 2 ... : ... .. . ... ... : ... .. . ... ... : ... .. . ... ... : ... .. . P7F ...
ROW 4B : ... .. . ... ... ... : ... .. . ... ... ... : ... .. . ... : ... .. 0 ... : ... .. . ... ... : ... .. . ... ... : ... .. . ... ... : ... .. . P80 ...
ROW 4C : ... .. . ... ... ... : ... .. . ... ... ... : ... .. . ... : 9-# 00 8 ... : ... .. . ... ... : C-4 01 6 ... ... : C-5 01 6 ... ... : ... .. . P82 ...
ROW 4D : ... .. . ... ... ... : ... .. . ... ... ... : ... .. . ... : ... .. 6 ... : ... .. . ... ... : ... .. . ... ... : ... .. . ... ... : ... .. . P83 ...
ROW 4E : ... .. . ... ... ... : ... .. . ... ... ... : ... .. . ... : ... .. 3 ... : ... .. . ... ... : ... .. 5 ... ... : ... .. 5 ... ... : ... .. . ... ...
ROW 4F : ... .. . ... ... ... : ... .. . ... ... ... : ... .. . ... : ... .. 1 ... : ... .. . ... ... : ... .. 4 ... ... : ... .. 4 ... ... : ... .. . P80 ...
ROW 50 : ... .. . ... ... ... : ... .. . ... ... ... : ... .. . ... : ... .. . ... : ... .. . ... ... : ... .. . ... ... : ... .. . ... ... : ... .. . P7F ...
ROW 51 : ... .. . ... ... ... : ... .. . ... ... ... : ... .. . ... : ... .. 0 ... : ... .. . ... ... : ... .. . ... ... : ... .. . ... ... : ... .. . P7D ...
ROW 52 : ... .. . P60 ... ... : C#2 00 A P8E ... ... : C#2 00 . P8D : ... .. 8 ... : ... .. . ... ... : C#4 01 6 ... ... : C#5 01 6 ... ... : ... .. . ... ...
ROW 53 : C#1 00 A P9A ... ... : ... .. . P6E ... ... : ... .. . P6D : ... .. 6 ... : ... .. . ... ... : ... .. . ... ... : ... .. . ... ... : ... .. . P7E ...
ROW 54 : ... .. . P7A ... ... : C-2 00 A P7E ... ... : C-2 00 . P7D : ... .. 3 ... : ... .. . ... ... : ... .. 5 ... ... : ... .. 5 ... ... : ... .. . P80 ...
ROW 55 : ... .. . P5A ... ... : B-1 00 A P91 ... ... : B-1 00 . P90 : ... .. 1 ... : ... .. . ... ... : ... .. 4 ... ... : ... .. 4 ... ... : ... .. . P82 ...
ROW 56 : C-1 00 A P9A ... ... : ... .. . P71 ... ... : ... .. . P70 : ... .. . ... : ... .. . ... ... : ... .. . ... ... : ... .. . ... ... : ... .. . P83 ...
ROW 57 : ... .. . P7A ... ... : A#1 00 A P87 ... ... : A#1 00 . P86 : ... .. 0 ... : ... .. . ... ... : ... .. . ... ... : ... .. . ... ... : ... .. . ... ...
ROW 58 : ... .. F P80 ... ... : C-2 00 F P81 ... ... : B-3 00 . P80 : ... .. D ... : ... .. . ... ... : F-4 01 6 ... ... : F-5 01 6 ... ... : C#0 01 F PA6 ...
ROW 59 : ... .. E ... ... ... : ... .. E ... ... ... : C#3 00 . ... : ... .. B ... : ... .. . ... ... : ... .. . ... ... : ... .. . ... ... : ... .. D PA4 ...
ROW 5A : ... .. D ... ... ... : ... .. D ... ... ... : F#2 00 . ... : ... .. . ... : ... .. . ... ... : ... .. 5 ... ... : ... .. 5 ... ... : ... .. 8 PA2 ...
ROW 5B : ... .. A ... ... ... : ... .. A ... ... ... : F-2 00 . ... : ... .. A ... : ... .. . ... ... : ... .. 4 ... ... : ... .. 4 ... ... : ... .. . ... ...
ROW 5C : ... .. . ... ... ... : ... .. . ... ... ... : C-2 00 . ... : ... .. 8 ... : ... .. . ... ... : ... .. . ... ... : ... .. . ... ... : ... .. . PA3 ...
ROW 5D : ... .. . ... ... ... : ... .. . ... ... ... : ... .. . ... : ... .. 7 ... : ... .. . ... ... : ... .. . ... ... : ... .. . ... ... : ... .. . PA5 ...
ROW 5E : D-1 00 F ... ... ... : D-2 00 F ... ... ... : D-2 00 . ... : 7-# 00 8 ... : ... .. . ... ... : F#4 01 6 ... ... : F#5 01 6 ... ... : D-0 01 F P82 ...
ROW 5F : ... .. E ... ... ... : ... .. E ... ... ... : ... .. . ... : ... .. 6 ... : ... .. . ... ... : ... .. . ... ... : ... .. . ... ... : ... .. D P83 ...
ROW 60 : ... .. D ... ... ... : ... .. D ... ... ... : ... .. . ... : ... .. 3 ... : ... .. . ... ... : ... .. 5 ... ... : ... .. 5 ... ... : ... .. 8 ... ...
ROW 61 : ... .. A ... ... ... : ... .. A ... ... ... : ... .. . ... : ... .. 1 ... : ... .. . ... ... : ... .. 4 ... ... : ... .. 4 ... ... : ... .. . P81 ...
ROW 62 : ... .. . ... ... ... : ... .. . ... ... ... : ... .. . ... : ... .. . ... : ... .. . ... ... : ... .. . ... ... : ... .. . ... ... : ... .. . P80 ...
ROW 63 : ... .. . ... ... ... : ... .. . ... ... ... : ... .. . ... : ... .. 0 ... : ... .. . ... ... : ... .. . ... ... : ... .. . ... ... : ... .. . P7D ...
ROW 64 : C-2 00 F ... ... ... : C-3 00 F ... ... ... : C-3 00 . ... : A-# 00 F ... : ... .. . ... ... : C-5 01 6 ... ... : C-6 01 6 ... ... : C-1 01 F ... ...
ROW 65 : ... .. E ... ... ... : ... .. E ... ... ... : ... .. . ... : ... .. C ... : ... .. . ... ... : ... .. . ... ... : ... .. . ... ... : ... .. D P7E ...
ROW 66 : ... .. D ... ... ... : ... .. D ... ... ... : ... .. . ... : ... .. 6 ... : ... .. . ... ... : ... .. 5 ... ... : ... .. 5 ... ... : ... .. 8 P80 ...
ROW 67 : ... .. A ... ... ... : ... .. A ... ... ... : ... .. . ... : ... .. 3 ... : ... .. . ... ... : ... .. 4 ... ... : ... .. 4 ... ... : ... .. . P81 ...
ROW 68 : ... .. . ... ... ... : ... .. . ... ... ... : ... .. . ... : ... .. 2 ... : ... .. . ... ... : ... .. . ... ... : ... .. . ... ... : ... .. . P83 ...
ROW 69 : ... .. . ... ... ... : ... .. . ... ... ... : ... .. . ... : ... .. 0 ... : ... .. . ... ... : ... .. . ... ... : ... .. . ... ... : ... .. . ... ...
ROW 6A : D-2 00 F ... ... ... : D-3 00 F ... ... ... : D-3 00 . ... : E-# 00 8 ... : ... .. . ... ... : C#5 01 6 ... ... : C#6 01 6 ... ... : D-1 01 F P81 ...
ROW 6B : ... .. E ... ... ... : ... .. E ... ... ... : ... .. . ... : ... .. 6 ... : ... .. . ... ... : ... .. . ... ... : ... .. . ... ... : ... .. D P80 ...
ROW 6C : ... .. D ... ... ... : ... .. D ... ... ... : ... .. . ... : ... .. 3 ... : ... .. . ... ... : ... .. 5 ... ... : ... .. 5 ... ... : ... .. 8 P7E ...
ROW 6D : ... .. A ... ... ... : ... .. A ... ... ... : ... .. . ... : ... .. 1 ... : ... .. . ... ... : ... .. 4 ... ... : ... .. 4 ... ... : ... .. . P7D ...
ROW 6E : ... .. . ... ... ... : ... .. . ... ... ... : ... .. . ... : ... .. . ... : ... .. . ... ... : ... .. . ... ... : ... .. . ... ... : ... .. . ... ...
ROW 6F : ... .. . ... ... ... : ... .. . ... ... ... : ... .. . ... : ... .. 0 ... : ... .. . ... ... : ... .. . ... ... : ... .. . ... ... : ... .. . P80 ...
ROW 70 : C-4 00 F ... ... ... : C-3 00 F ... ... ... : B-4 00 . ... : 1-# 00 F ... : ... .. . ... ... : C-5 01 6 ... ... : C-6 01 6 ... ... : C-1 01 F P81 ...
ROW 71 : ... .. E ... ... ... : ... .. E ... ... ... : C#4 00 . ... : ... .. C ... : ... .. . ... ... : ... .. . ... ... : ... .. . ... ... : ... .. D P83 ...
ROW 72 : ... .. D ... ... ... : ... .. D ... ... ... : F#3 00 . ... : ... .. 6 ... : ... .. . ... ... : ... .. 5 ... ... : ... .. 5 ... ... : ... .. 8 ... ...
ROW 73 : ... .. A ... ... ... : ... .. A ... ... ... : F-3 00 . ... : ... .. 3 ... : ... .. . ... ... : ... .. 4 ... ... : ... .. 4 ... ... : ... .. . P82 ...
ROW 74 : ... .. 2 ... ... ... : ... .. . ... ... ... : C-3 00 . ... : ... .. 2 ... : ... .. . ... ... : ... .. . ... ... : ... .. . ... ... : ... .. . P80 ...
ROW 75 : ... .. . ... ... ... : ... .. . ... ... ... : ... .. . ... : ... .. 0 ... : ... .. . ... ... : ... .. . ... ... : ... .. . ... ... : ... .. . P7E ...
ROW 76 : B-3 00 F ... ... ... : B-2 00 F ... ... ... : B-2 00 . ... : 9-# 00 8 ... : ... .. . ... ... : C#5 01 6 ... ... : C#6 01 6 ... ... : B-0 01 F P7D ...
ROW 77 : ... .. E ... ... ... : ... .. E ... ... ... : ... .. . ... : ... .. 6 ... : ... .. . ... ... : ... .. . ... ... : ... .. . ... ... : ... .. D ... ...
ROW 78 : ... .. D ... ... ... : ... .. D ... ... ... : ... .. . ... : ... .. 3 ... : ... .. . ... ... : ... .. 5 ... ... : ... .. 5 ... ... : ... .. 8 P7F ...
ROW 79 : ... .. A ... ... ... : ... .. A ... ... ... : ... .. . ... : ... .. 1 ... : ... .. . ... ... : ... .. 4 ... ... : ... .. 4 ... ... : ... .. . P81 ...
ROW 7A : ... .. 2 ... ... ... : ... .. . ... ... ... : ... .. . ... : ... .. . ... : ... .. . ... ... : ... .. . ... ... : ... .. . ... ... : ... .. . P83 ...
ROW 7B : ... .. . ... ... ... : ... .. . ... ... ... : ... .. . ... : ... .. 0 ... : ... .. . ... ... : ... .. . ... ... : ... .. . ... ... : ... .. . ... ...
ROW 7C : B-2 00 F ... ... ... : B-1 00 F ... ... ... : B-1 00 . ... : B-# 00 F ... : ... .. . ... ... : C-5 01 6 ... ... : C-6 01 6 ... ... : ... .. F P82 ...
ROW 7D : ... .. E ... ... ... : ... .. E ... ... ... : ... .. . ... : ... .. C ... : ... .. . ... ... : ... .. . ... ... : ... .. . ... ... : ... .. D P80 ...
ROW 7E : ... .. D ... ... ... : ... .. D ... ... ... : ... .. . ... : ... .. 6 ... : ... .. . ... ... : ... .. 5 ... ... : ... .. 5 ... ... : ... .. 8 P7E ...
ROW 7F : ... .. A ... ... ... : ... .. A ... ... ... : ... .. . ... : ... .. 3 ... : ... .. . ... ... : ... .. 4 ... ... : ... .. 4 ... ... : ... .. . P7D ...
ROW 80 : ... .. 2 ... ... ... : ... .. . ... ... ... : ... .. . ... : ... .. 2 ... : ... .. . ... ... : ... .. . ... ... : ... .. . ... ... : ... .. . ... ...
ROW 81 : ... .. . ... ... ... : ... .. . ... ... ... : ... .. . ... : ... .. 0 ... : ... .. . ... ... : ... .. . ... ... : ... .. . ... ... : ... .. . P7F ...
ROW 82 : ... .. F ... ... ... : ... .. F ... ... ... : ... .. . ... : 9-# 00 8 ... : ... .. . ... ... : F-4 01 6 ... ... : F-5 01 6 ... ... : ... .. F P80 ...
ROW 83 : ... .. E ... ... ... : ... .. E ... ... ... : ... .. . ... : ... .. 6 ... : ... .. . ... ... : ... .. . ... ... : ... .. . ... ... : ... .. D P83 ...
ROW 84 : ... .. D ... ... ... : ... .. D ... ... ... : ... .. . ... : ... .. 3 ... : ... .. . ... ... : ... .. 5 ... ... : ... .. 5 ... ... : ... .. 8 ... ...
ROW 85 : ... .. A ... ... ... : ... .. A ... ... ... : ... .. . ... : ... .. 1 ... : ... .. . ... ... : ... .. 4 ... ... : ... .. 4 ... ... : ... .. . P82 ...
ROW 86 : ... .. 2 ... ... ... : ... .. . ... ... ... : ... .. . ... : ... .. . ... : ... .. . ... ... : ... .. . ... ... : ... .. . ... ... : ... .. . P80 ...
ROW 87 : ... .. . ... ... ... : ... .. . ... ... ... : ... .. . ... : ... .. 0 ... : ... .. . ... ... : ... .. . ... ... : ... .. . ... ... : ... .. . P7F ...
ROW 88 : C-4 00 F ... ... ... : C-3 00 F ... ... ... : B-4 00 . ... : 1-# 00 F ... : ... .. . ... ... : C-5 01 6 ... ... : C-6 01 6 ... ... : C-1 01 F P7D ...
ROW 89 : ... .. E ... ... ... : ... .. E ... ... ... : C#4 00 . ... : ... .. C ... : ... .. . ... ... : ... .. . ... ... : ... .. . ... ... : ... .. D ... ...
ROW 8A : ... .. D ... ... ... : ... .. D ... ... ... : F#3 00 . ... : ... .. 6 ... : ... .. . ... ... : ... .. 5 ... ... : ... .. 5 ... ... : ... .. 8 P7F ...
ROW 8B : ... .. A ... ... ... : ... .. A ... ... ... : F-3 00 . ... : ... .. 3 ... : ... .. . ... ... : ... .. 4 ... ... : ... .. 4 ... ... : ... .. . P80 ...
ROW 8C : ... .. 2 ... ... ... : ... .. . ... ... ... : C-3 00 . ... : ... .. 2 ... : ... .. . ... ... : ... .. . ... ... : ... .. . ... ... : ... .. . P82 ...
ROW 8D : ... .. . ... ... ... : ... .. . ... ... ... : ... .. . ... : ... .. 0 ... : ... .. . ... ... : ... .. . ... ... : ... .. . ... ... : ... .. . P83 ...
ROW 8E : B-3 00 F ... ... ... : B-2 00 F ... ... ... : B-2 00 . ... : 9-# 00 8 ... : ... .. . ... ... : C#5 01 6 ... ... : C#6 01 6 ... ... : B-0 01 F ... ...
ROW 8F : ... .. E ... ... ... : ... .. E ... ... ... : ... .. . ... : ... .. 6 ... : ... .. . ... ... : ... .. . ... ... : ... .. . ... ... : ... .. D P80 ...
ROW 90 : ... .. D ... ... ... : ... .. D ... ... ... : ... .. . ... : ... .. 3 ... : ... .. . ... ... : ... .. 5 ... ... : ... .. 5 ... ... : ... .. 8 P7F ...
ROW 91 : ... .. A ... ... ... : ... .. A ... ... ... : ... .. . ... : ... .. 1 ... : ... .. . ... ... : ... .. 4 ... ... : ... .. 4 ... ... : ... .. . P7D ...
ROW 92 : ... .. 2 ... ... ... : ... .. . ... ... ... : ... .. . ... : ... .. . ... : ... .. . ... ... : ... .. . ... ... : ... .. . ... ... : ... .. . ... ...
ROW 93 : ... .. . ... ... ... : ... .. . ... ... ... : ... .. . ... : ... .. 0 ... : ... .. . ... ... : ... .. . ... ... : ... .. . ... ... : ... .. . P7E ...
ROW 94 : B-2 00 F ... ... ... : B-1 00 F ... ... ... : B-1 00 . ... : B-# 00 F ... : ... .. . ... ... : C-5 01 6 ... ... : C-6 01 6 ... ... : ... .. F P80 ...
ROW 95 : ... .. E ... ... ... : ... .. E ... ... ... : ... .. . ... : ... .. C ... : ... .. . ... ... : ... .. . ... ... : ... .. . ... ... : ... .. D P82 ...
ROW 96 : ... .. D ... ... ... : ... .. D ... ... ... : ... .. . ... : ... .. 6 ... : ... .. . ... ... : ... .. 5 ... ... : ... .. 5 ... ... : ... .. 8 P83 ...
ROW 97 : ... .. A ... ... ... : ... .. A ... ... ... : ... .. . ... : ... .. 3 ... : ... .. . ... ... : ... .. 4 ... ... : ... .. 4 ... ... : ... .. . ... ...
ROW 98 : ... .. 2 ... ... ... : ... .. . ... ... ... : ... .. . ... : ... .. 2 ... : ... .. . ... ... : ... .. . ... ... : ... .. . ... ... : ... .. . P81 ...
ROW 99 : ... .. . ... ... ... : ... .. . ... ... ... : ... .. . ... : ... .. 0 ... : ... .. . ... ... : ... .. . ... ... : ... .. . ... ... : ... .. . P7F ...
ROW 9A : ... .. F ... ... ... : ... .. F ... ... ... : ... .. . ... : 9-# 00 8 ... : ... .. . ... ... : F-4 01 6 ... ... : F-5 01 6 ... ... : ... .. F P7D ...
ROW 9B : ... .. E ... ... ... : ... .. E ... ... ... : ... .. . ... : ... .. 6 ... : ... .. . ... ... : ... .. . ... ... : ... .. . ... ... : ... .. D ... ...
ROW 9C : ... .. D ... ... ... : ... .. D ... ... ... : ... .. . ... : ... .. 3 ... : ... .. . ... ... : ... .. 5 ... ... : ... .. 5 ... ... : ... .. 8 P7E ...
ROW 9D : ... .. A ... ... ... : ... .. A ... ... ... : ... .. . ... : ... .. 1 ... : ... .. . ... ... : ... .. 4 ... ... : ... .. 4 ... ... : ... .. . P80 ...
ROW 9E : ... .. 2 ... ... ... : ... .. . ... ... ... : ... .. . ... : ... .. . ... : ... .. . ... ... : ... .. . ... ... : ... .. . ... ... : ... .. . P82 ...
ROW 9F : ... .. . ... ... ... : ... .. . ... ... ... : ... .. . ... : ... .. 0 ... : ... .. . ... ... : ... .. . ... ... : ... .. . ... ... : ... .. . P83 ...
ROW A0 : ... .. F ... ... ... : ... .. F ... ... ... : A#3 00 . ... : 1-# 00 F ... : ... .. . ... ... : B-2 01 6 ... ... : B-3 01 6 ... ... : ... .. F ... ...
ROW A1 : ... .. E ... ... ... : ... .. E ... ... ... : C-3 00 . ... : ... .. C ... : ... .. . ... ... : ... .. . ... ... : ... .. . ... ... : ... .. D P81 ...
ROW A2 : ... .. D ... ... ... : ... .. D ... ... ... : F-2 00 . ... : ... .. 6 ... : ... .. . ... ... : ... .. 5 ... ... : ... .. 5 ... ... : ... .. 8 P80 ...
ROW A3 : ... .. A ... ... ... : ... .. A ... ... ... : E-2 00 . ... : ... .. 3 ... : ... .. . ... ... : ... .. 4 ... ... : ... .. 4 ... ... : ... .. . P7D ...
ROW A4 : ... .. 2 ... ... ... : ... .. . ... ... ... : B-1 00 . ... : ... .. 2 ... : ... .. . ... ... : ... .. . ... ... : ... .. . ... ... : ... .. . ... ...
ROW A5 : ... .. . ... ... ... : ... .. . ... ... ... : ... .. . ... : ... .. 0 ... : ... .. . ... ... : ... .. . ... ... : ... .. . ... ... : ... .. . P7E ...
ROW A6 : ... .. F ... ... ... : ... .. F ... ... ... : ... .. . ... : 9-# 00 8 ... : ... .. . ... ... : C-3 01 6 ... ... : C-4 01 6 ... ... : ... .. F P80 ...
ROW A7 : ... .. E ... ... ... : ... .. E ... ... ... : ... .. . ... : ... .. 6 ... : ... .. . ... ... : ... .. . ... ... : ... .. . ... ... : ... .. D P81 ...
ROW A8 : ... .. D ... ... ... : ... .. D ... ... ... : ... .. . ... : ... .. 3 ... : ... .. . ... ... : ... .. 5 ... ... : ... .. 5 ... ... : ... .. 8 P83 ...
ROW A9 : ... .. A ... ... ... : ... .. A ... ... ... : ... .. . ... : ... .. 1 ... : ... .. . ... ... : ... .. 4 ... ... : ... .. 4 ... ... : ... .. . ... ...
ROW AA : ... .. 2 ... ... ... : ... .. . ... ... ... : ... .. . ... : ... .. . ... : ... .. . ... ... : ... .. . ... ... : ... .. . ... ... : ... .. . P81 ...
ROW AB : ... .. . ... ... ... : ... .. . ... ... ... : ... .. . ... : ... .. 0 ... : ... .. . ... ... : ... .. . ... ... : ... .. . ... ... : ... .. . P80 ...
ROW AC : A-2 00 F ... ... ... : A-1 00 F ... ... ... : A-1 00 . ... : 1-# 00 F ... : ... .. . ... ... : F-3 01 6 ... ... : F-4 01 6 ... ... : A-0 01 F P7E ...
ROW AD : ... .. E ... ... ... : ... .. E ... ... ... : ... .. . ... : ... .. C ... : ... .. . ... ... : ... .. . ... ... : ... .. . ... ... : ... .. D P7D ...
ROW AE : ... .. D ... ... ... : ... .. D ... ... ... : ... .. . ... : ... .. 6 ... : ... .. . ... ... : ... .. 5 ... ... : ... .. 5 ... ... : ... .. 8 ... ...
ROW AF : ... .. A ... ... ... : ... .. A ... ... ... : ... .. . ... : ... .. 3 ... : ... .. . ... ... : ... .. 4 ... ... : ... .. 4 ... ... : ... .. . P80 ...
ROW B0 : ... .. 2 ... ... ... : ... .. . ... ... ... : ... .. . ... : ... .. 2 ... : ... .. . ... ... : ... .. . ... ... : ... .. . ... ... : ... .. . P81 ...
ROW B1 : ... .. . ... ... ... : ... .. . ... ... ... : ... .. . ... : ... .. 0 ... : ... .. . ... ... : ... .. . ... ... : ... .. . ... ... : ... .. . P83 ...
ROW B2 : B-2 00 F ... ... ... : B-1 00 F ... ... ... : B-1 00 . ... : 9-# 00 8 ... : ... .. . ... ... : F#3 01 6 ... ... : F#4 01 6 ... ... : B-0 01 F ... ...
ROW B3 : ... .. E ... ... ... : ... .. E ... ... ... : ... .. . ... : ... .. 6 ... : ... .. . ... ... : ... .. . ... ... : ... .. . ... ... : ... .. D P82 ...
ROW B4 : ... .. D ... ... ... : ... .. D ... ... ... : ... .. . ... : ... .. 3 ... : ... .. . ... ... : ... .. 5 ... ... : ... .. 5 ... ... : ... .. 8 P80 ...
ROW B5 : ... .. A ... ... ... : ... .. A ... ... ... : ... .. . ... : ... .. 1 ... : ... .. . ... ... : ... .. 4 ... ... : ... .. 4 ... ... : ... .. . P7E ...
ROW B6 : ... .. 2 ... ... ... : ... .. . ... ... ... : ... .. . ... : ... .. . ... : ... .. . ... ... : ... .. . ... ... : ... .. . ... ... : ... .. . P7D ...
ROW B7 : ... .. . ... ... ... : ... .. . ... ... ... : ... .. . ... : ... .. 0 ... : ... .. . ... ... : ... .. . ... ... : ... .. . ... ... : ... .. . ... ...
ROW B8 : G#4 00 F ... ... ... : G#3 00 F ... ... ... : G-5 00 . ... : ... .. D ... : ... .. . ... ... : C-4 01 6 ... ... : C-5 01 6 ... ... : G#1 01 F P7F ...
ROW B9 : ... .. E ... ... ... : ... .. E ... ... ... : A-4 00 . ... : ... .. B ... : ... .. . ... ... : ... .. . ... ... : ... .. . ... ... : ... .. D P81 ...
ROW BA : ... .. D ... ... ... : ... .. D ... ... ... : D-4 00 . ... : ... .. . ... : ... .. . ... ... : ... .. 5 ... ... : ... .. 5 ... ... : ... .. 8 P83 ...
ROW BB : ... .. A ... ... ... : ... .. A ... ... ... : C#4 00 . ... : ... .. A ... : ... .. . ... ... : ... .. 4 ... ... : ... .. 4 ... ... : ... .. . ... ...
ROW BC : ... .. 2 ... ... ... : ... .. . ... ... ... : G#3 00 . ... : ... .. 8 ... : ... .. . ... ... : ... .. . ... ... : ... .. . ... ... : ... .. . P82 ...
ROW BD : ... .. . ... ... ... : ... .. . ... ... ... : ... .. . ... : ... .. 7 ... : ... .. . ... ... : ... .. . ... ... : ... .. . ... ... : ... .. . P80 ...
ROW BE : ... .. F ... ... ... : ... .. F ... ... ... : ... .. . ... : 7-# 00 8 ... : ... .. . ... ... : C#4 01 6 ... ... : C#5 01 6 ... ... : ... .. F P7E ...
ROW BF : ... .. E ... ... ... : ... .. E ... ... ... : ... .. . ... : ... .. 6 ... : ... .. . ... ... : ... .. . ... ... : ... .. . ... ... : ... .. D P7D ...
ROW C0 : ... .. D ... ... ... : ... .. D ... ... ... : ... .. . ... : ... .. 3 ... : ... .. . ... ... : ... .. 5 ... ... : ... .. 5 ... ... : ... .. 8 ... ...
ROW C1 : ... .. A ... ... ... : ... .. A ... ... ... : ... .. . ... : ... .. 1 ... : ... .. . ... ... : ... .. 4 ... ... : ... .. 4 ... ... : ... .. . P7F ...
ROW C2 : ... .. 2 ... ... ... : ... .. . ... ... ... : ... .. . ... : ... .. . ... : ... .. . ... ... : ... .. . ... ... : ... .. . ... ... : ... .. . P80 ...
ROW C3 : ... .. . ... ... ... : ... .. . ... ... ... : ... .. . ... : ... .. 0 ... : ... .. . ... ... : ... .. . ... ... : ... .. . ... ... : ... .. . P83 ...
ROW C4 : B-4 00 F ... ... ... : B-3 00 F ... ... ... : B-3 00 . ... : A-# 00 F ... : ... .. . ... ... : F-4 01 6 ... ... : F-5 01 6 ... ... : B-1 01 F ... ...
ROW C5 : ... .. E ... ... ... : ... .. E ... ... ... : ... .. . ... : ... .. C ... : ... .. . ... ... : ... .. . ... ... : ... .. . ... ... : ... .. D P82 ...
ROW C6 : ... .. D ... ... ... : ... .. D ... ... ... : ... .. . ... : ... .. 6 ... : ... .. . ... ... : ... .. 5 ... ... : ... .. 5 ... ... : ... .. 8 P80 ...
ROW C7 : ... .. A ... ... ... : ... .. A ... ... ... : ... .. . ... : ... .. 3 ... : ... .. . ... ... : ... .. 4 ... ... : ... .. 4 ... ... : ... .. . P7F ...
ROW C8 : ... .. 2 ... ... ... : ... .. . ... ... ... : ... .. . ... : ... .. 2 ... : ... .. . ... ... : ... .. . ... ... : ... .. . ... ... : ... .. . P7D ...
ROW C9 : ... .. . ... ... ... : ... .. . ... ... ... : ... .. . ... : ... .. 0 ... : ... .. . ... ... : ... .. . ... ... : ... .. . ... ... : ... .. . ... ...
ROW CA : ... .. F ... ... ... : ... .. F ... ... ... : ... .. . ... : E-# 00 8 ... : ... .. . ... ... : F#4 01 6 ... ... : F#5 01 6 ... ... : ... .. F P7F ...
ROW CB : ... .. E ... ... ... : ... .. E ... ... ... : ... .. . ... : ... .. 6 ... : ... .. . ... ... : ... .. . ... ... : ... .. . ... ... : ... .. D P80 ...
ROW CC : ... .. D ... ... ... : ... .. D ... ... ... : ... .. . ... : ... .. 3 ... : ... .. . ... ... : ... .. 5 ... ... : ... .. 5 ... ... : ... .. 8 P82 ...
ROW CD : ... .. A ... ... ... : ... .. A ... ... ... : ... .. . ... : ... .. 1 ... : ... .. . ... ... : ... .. 4 ... ... : ... .. 4 ... ... : ... .. . P83 ...
ROW CE : ... .. 2 ... ... ... : ... .. . ... ... ... : ... .. . ... : ... .. . ... : ... .. . ... ... : ... .. . ... ... : ... .. . ... ... : ... .. . ... ...
ROW CF : ... .. . ... ... ... : ... .. . ... ... ... : ... .. . ... : ... .. 0 ... : ... .. . ... ... : ... .. . ... ... : ... .. . ... ... : ... .. . P80 ...
ROW D0 : C-5 00 F ... ... ... : C-4 00 F ... ... ... : B-5 00 . ... : 9-# 00 D ... : ... .. . ... ... : D-4 01 6 ... ... : D-5 01 6 ... ... : C-2 01 F P7F ...
ROW D1 : ... .. E ... ... ... : ... .. E ... ... ... : C#5 00 . ... : ... .. B ... : ... .. . ... ... : ... .. . ... ... : ... .. . ... ... : ... .. D P7D ...
ROW D2 : ... .. D ... ... ... : ... .. D ... ... ... : F#4 00 . ... : ... .. . ... : ... .. . ... ... : ... .. 5 ... ... : ... .. 5 ... ... : ... .. 8 ... ...
ROW D3 : ... .. A ... ... ... : ... .. A ... ... ... : F-4 00 . ... : ... .. A ... : ... .. . ... ... : ... .. 4 ... ... : ... .. 4 ... ... : ... .. . P7E ...
ROW D4 : ... .. . ... ... ... : ... .. . ... ... ... : C-4 00 . ... : ... .. 8 ... : ... .. . ... ... : ... .. . ... ... : ... .. . ... ... : ... .. . P80 ...
ROW D5 : ... .. . ... ... ... : ... .. . ... ... ... : ... .. . ... : ... .. 7 ... : ... .. . ... ... : ... .. . ... ... : ... .. . ... ... : ... .. . P82 ...
ROW D6 : C-4 00 F ... ... ... : G-3 00 F ... ... ... : G-3 00 . ... : ... .. 8 ... : ... .. . ... ... : D#4 01 6 ... ... : D#5 01 6 ... ... : G-1 01 F P83 ...
ROW D7 : ... .. E ... ... ... : ... .. E ... ... ... : ... .. . ... : ... .. 6 ... : ... .. . ... ... : ... .. . ... ... : ... .. . ... ... : ... .. D ... ...
ROW D8 : ... .. D ... ... ... : ... .. D ... ... ... : ... .. . ... : ... .. 3 ... : ... .. . ... ... : ... .. 5 ... ... : ... .. 5 ... ... : ... .. 8 P81 ...
ROW D9 : ... .. A ... ... ... : ... .. A ... ... ... : ... .. . ... : ... .. 1 ... : ... .. . ... ... : ... .. 4 ... ... : ... .. 4 ... ... : ... .. . P7F ...
ROW DA : ... .. . ... ... ... : ... .. . ... ... ... : ... .. . ... : ... .. . ... : ... .. . ... ... : ... .. . ... ... : ... .. . ... ... : ... .. . P7D ...
ROW DB : ... .. . ... ... ... : ... .. . ... ... ... : ... .. . ... : ... .. 0 ... : ... .. . ... ... : ... .. . ... ... : ... .. . ... ... : ... .. . ... ...
ROW DC : C-5 00 8 ... ... ... : C-3 00 F ... ... ... : C-3 00 . ... : B-# 00 F ... : ... .. . ... ... : D-4 01 6 ... ... : D-5 01 6 ... ... : C-1 01 F P7E ...
ROW DD : ... .. 7 ... ... ... : ... .. E ... ... ... : ... .. . ... : ... .. C ... : ... .. . ... ... : ... .. . ... ... : ... .. . ... ... : ... .. D P80 ...
ROW DE : ... .. 6 ... ... ... : ... .. D ... ... ... : ... .. . ... : ... .. 6 ... : ... .. . ... ... : ... .. 5 ... ... : ... .. 5 ... ... : ... .. 8 P82 ...
ROW DF : ... .. 5 ... ... ... : ... .. A ... ... ... : ... .. . ... : ... .. 3 ... : ... .. . ... ... : ... .. 4 ... ... : ... .. 4 ... ... : ... .. . P83 ...
ROW E0 : ... .. . ... ... ... : ... .. . ... ... ... : ... .. . ... : ... .. 2 ... : ... .. . ... ... : ... .. . ... ... : ... .. . ... ... : ... .. . ... ...
ROW E1 : ... .. . ... ... ... : ... .. . ... ... ... : ... .. . ... : ... .. 0 ... : ... .. . ... ... : ... .. . ... ... : ... .. . ... ... : ... .. . P81 ...
ROW E2 : C-4 00 8 ... ... ... : B-2 00 A P7A ... ... : B-2 00 . P79 : 9-# 00 8 ... : ... .. . ... ... : A-3 01 6 ... ... : A-4 01 6 ... ... : ... .. . P80 ...
ROW E3 : ... .. 7 ... ... ... : A#2 00 A P75 ... ... : A#2 00 . P74 : ... .. 6 ... : ... .. . ... ... : ... .. . ... ... : ... .. . ... ... : ... .. . P7D ...
ROW E4 : ... .. 6 ... ... ... : A-2 00 A P71 ... ... : G#2 00 . P8F : ... .. 3 ... : ... .. . ... ... : ... .. 5 ... ... : ... .. 5 ... ... : ... .. . ... ...
ROW E5 : ... .. 5 ... ... ... : G-2 00 A P90 ... ... : G-2 00 . ... : ... .. 1 ... : ... .. . ... ... : ... .. 4 ... ... : ... .. 4 ... ... : ... .. . P7E ...
ROW E6 : ... .. . ... ... ... : ... .. . P70 ... ... : F#2 00 . P91 : ... .. . ... : ... .. . ... ... : ... .. . ... ... : ... .. . ... ... : ... .. . P80 ...
ROW E7 : ... .. . ... ... ... : F#2 00 A P72 ... ... : ... .. . P71 : ... .. 0 ... : ... .. . ... ... : ... .. . ... ... : ... .. . ... ... : ... .. . P81 ...
ROW E8 : A#2 00 F ... ... ... : A#3 00 F P81 ... ... : A-5 00 . P80 : ... .. D ... : ... .. . ... ... : G#3 01 6 ... ... : G#4 01 6 ... ... : A#1 01 F P83 ...
ROW E9 : ... .. E ... ... ... : ... .. E ... ... ... : B-4 00 . ... : ... .. B ... : ... .. . ... ... : ... .. . ... ... : ... .. . ... ... : ... .. D ... ...
ROW EA : ... .. D ... ... ... : ... .. D ... ... ... : E-4 00 . ... : ... .. . ... : ... .. . ... ... : ... .. 5 ... ... : ... .. 5 ... ... : ... .. 8 P81 ...
ROW EB : ... .. A ... ... ... : ... .. A ... ... ... : D#4 00 . ... : ... .. A ... : ... .. . ... ... : ... .. 4 ... ... : ... .. 4 ... ... : ... .. . P80 ...
ROW EC : ... .. . ... ... ... : ... .. . ... ... ... : A#3 00 . ... : ... .. 8 ... : ... .. . ... ... : ... .. . ... ... : ... .. . ... ... : ... .. . P7E ...
ROW ED : ... .. . ... ... ... : ... .. . ... ... ... : ... .. . ... : ... .. 7 ... : ... .. . ... ... : ... .. . ... ... : ... .. . ... ... : ... .. . P7D ...
ROW EE : F#2 00 F ... ... ... : F#3 00 F ... ... ... : F#3 00 . ... : ... .. 8 ... : ... .. . ... ... : D-3 01 6 ... ... : D-4 01 6 ... ... : F#1 01 F ... ...
ROW EF : ... .. E ... ... ... : ... .. E ... ... ... : ... .. . ... : ... .. 6 ... : ... .. . ... ... : ... .. . ... ... : ... .. . ... ... : ... .. D P80 ...
ROW F0 : ... .. D ... ... ... : ... .. D ... ... ... : ... .. . ... : ... .. 3 ... : ... .. . ... ... : ... .. 5 ... ... : ... .. 5 ... ... : ... .. 8 P81 ...
ROW F1 : ... .. A ... ... ... : ... .. A ... ... ... : ... .. . ... : ... .. 1 ... : ... .. . ... ... : ... .. 4 ... ... : ... .. 4 ... ... : ... .. . P83 ...
ROW F2 : ... .. . ... ... ... : ... .. . ... ... ... : ... .. . ... : ... .. . ... : ... .. . ... ... : ... .. . ... ... : ... .. . ... ... : ... .. . ... ...
ROW F3 : ... .. . ... ... ... : ... .. . ... ... ... : ... .. . ... : ... .. 0 ... : ... .. . ... ... : ... .. . ... ... : ... .. . ... ... : ... .. . P82 ...
ROW F4 : A#1 00 F ... ... ... : A#2 00 F ... ... ... : A#2 00 . ... : B-# 00 F ... : ... .. . ... ... : A-2 01 6 ... ... : A-3 01 6 ... ... : A#0 01 F P80 ...
ROW F5 : ... .. E ... ... ... : ... .. E ... ... ... : ... .. . ... : ... .. C ... : ... .. . ... ... : ... .. . ... ... : ... .. . ... ... : ... .. D P7E ...
ROW F6 : ... .. D ... ... ... : ... .. D ... ... ... : ... .. . ... : ... .. 6 ... : ... .. . ... ... : ... .. 5 ... ... : ... .. 5 ... ... : ... .. 8 P7D ...
ROW F7 : ... .. A ... ... ... : ... .. A ... ... ... : ... .. . ... : ... .. 3 ... : ... .. . ... ... : ... .. 4 ... ... : ... .. 4 ... ... : ... .. . ... ...
ROW F8 : ... .. . ... ... ... : ... .. . ... ... ... : ... .. . ... : ... .. 2 ... : ... .. . ... ... : ... .. . ... ... : ... .. . ... ... : ... .. . P7F ...
ROW F9 : ... .. . ... ... ... : ... .. . ... ... ... : ... .. . ... : ... .. 0 ... : ... .. . ... ... : ... .. . ... ... : ... .. . ... ... : ... .. . P81 ...
ROW FA : A-2 00 F ... ... ... : A-3 00 F ... ... ... : G#5 00 . ... : 9-# 00 D ... : ... .. . ... ... : G#2 01 6 ... ... : G#3 01 6 ... ... : A-1 01 F P83 ...
ROW FB : ... .. E ... ... ... : ... .. E ... ... ... : A#4 00 . ... : ... .. B ... : ... .. . ... ... : ... .. . ... ... : ... .. . ... ... : ... .. D ... ...
ROW FC : ... .. D ... ... ... : ... .. D ... ... ... : D#4 00 . ... : ... .. . ... : ... .. . ... ... : ... .. 5 ... ... : ... .. 5 ... ... : ... .. 8 P82 ...
ROW FD : ... .. A ... ... ... : ... .. A ... ... ... : D-4 00 . ... : ... .. A ... : ... .. . ... ... : ... .. 4 ... ... : ... .. 4 ... ... : ... .. . P80 ...
ROW FE : ... .. . ... ... ... : ... .. . ... ... ... : A-3 00 . ... : ... .. 8 ... : ... .. . ... ... : ... .. . ... ... : ... .. . ... ... : ... .. . P7E ...
ROW FF : ... .. . ... ... ... : ... .. . ... ... ... : ... .. . ... : ... .. 7 ... : ... .. . ... ... : ... .. . ... ... : ... .. . ... ... : ... .. . P7D ...

PATTERN 0C
ROW 00 : E-2 00 F ... ... ... : E-3 00 F ... ... ... : E-3 00 . ... : ... .. 8 ... : ... .. . ... ... : A-2 01 6 ... ... : A-3 01 6 ... ... : E-1 01 F ... ...
ROW 01 : ... .. E ... ... ... : ... .. E ... ... ... : ... .. . ... : ... .. 6 ... : ... .. . ... ... : ... .. . ... ... : ... .. . ... ... : ... .. D P7F ...
ROW 02 : ... .. D ... ... ... : ... .. D ... ... ... : ... .. . ... : ... .. 3 ... : ... .. . ... ... : ... .. 5 ... ... : ... .. 5 ... ... : ... .. 8 P80 ...
ROW 03 : ... .. A ... ... ... : ... .. A ... ... ... : ... .. . ... : ... .. 1 ... : ... .. . ... ... : ... .. 4 ... ... : ... .. 4 ... ... : ... .. . P83 ...
ROW 04 : ... .. . ... ... ... : ... .. . ... ... ... : ... .. . ... : ... .. . ... : ... .. . ... ... : ... .. . ... ... : ... .. . ... ... : ... .. . ... ...
ROW 05 : ... .. . ... ... ... : ... .. . ... ... ... : ... .. . ... : ... .. 0 ... : ... .. . ... ... : ... .. . ... ... : ... .. . ... ... : ... .. . P82 ...
ROW 06 : A-1 00 F ... ... ... : A-2 00 F ... ... ... : A-2 00 . ... : B-# 00 F ... : ... .. . ... ... : D-3 01 6 ... ... : D-4 01 6 ... ... : A-0 01 F P80 ...
ROW 07 : ... .. E ... ... ... : ... .. E ... ... ... : ... .. . ... : ... .. C ... : ... .. . ... ... : ... .. . ... ... : ... .. . ... ... : ... .. D P7F ...
ROW 08 : ... .. D ... ... ... : ... .. D ... ... ... : ... .. . ... : ... .. 6 ... : ... .. . ... ... : ... .. 5 ... ... : ... .. 5 ... ... : ... .. 8 P7D ...
ROW 09 : ... .. A ... ... ... : ... .. A ... ... ... : ... .. . ... : ... .. 3 ... : ... .. . ... ... : ... .. 4 ... ... : ... .. 4 ... ... : ... .. . ... ...
ROW 0A : ... .. . ... ... ... : ... .. . ... ... ... : ... .. . ... : ... .. 2 ... : ... .. . ... ... : ... .. . ... ... : ... .. . ... ... : ... .. . P7F ...
ROW 0B : ... .. . ... ... ... : ... .. . ... ... ... : ... .. . ... : ... .. 0 ... : ... .. . ... ... : ... .. . ... ... : ... .. . ... ... : ... .. . P80 ...
ROW 0C : ... .. . ... ... ... : ... .. . ... ... ... : ... .. . ... : 9-# 00 8 ... : ... .. . ... ... : A-3 01 6 ... ... : A-4 01 6 ... ... : ... .. . P82 ...
ROW 0D : ... .. . ... ... ... : ... .. . ... ... ... : ... .. . ... : ... .. 6 ... : ... .. . ... ... : ... .. . ... ... : ... .. . ... ... : ... .. . P83 ...
ROW 0E : ... .. . ... ... ... : ... .. . ... ... ... : ... .. . ... : ... .. 3 ... : ... .. . ... ... : ... .. 5 ... ... : ... .. 5 ... ... : ... .. . ... ...
ROW 0F : ... .. . ... ... ... : ... .. . ... ... ... : ... .. . ... : ... .. 1 ... : ... .. . ... ... : ... .. 4 ... ... : ... .. 4 ... ... : ... .. . P80 ...
ROW 10 : ... .. . ... ... ... : ... .. . ... ... ... : ... .. . ... : ... .. . ... : ... .. . ... ... : ... .. . ... ... : ... .. . ... ... : ... .. . P7F ...
ROW 11 : ... .. . ... ... ... : ... .. . ... ... ... : ... .. . ... : ... .. 0 ... : ... .. . ... ... : ... .. . ... ... : ... .. . ... ... : ... .. . P7D ...
ROW 12 : G#1 00 A P9C ... ... : G#2 00 A P80 ... ... : G#2 00 . P7F : ... .. 8 ... : ... .. . ... ... : A#3 01 6 ... ... : A#4 01 6 ... ... : ... .. . ... ...
ROW 13 : ... .. . P7C ... ... : G-2 00 A ... ... ... : G-2 00 . ... : ... .. 6 ... : ... .. . ... ... : ... .. . ... ... : ... .. . ... ... : ... .. . P7E ...
ROW 14 : G-1 00 A P9C ... ... : F#2 00 A P82 ... ... : F#2 00 . P81 : ... .. 3 ... : ... .. . ... ... : ... .. 5 ... ... : ... .. 5 ... ... : ... .. . P80 ...
ROW 15 : ... .. . P7C ... ... : F-2 00 A P86 ... ... : F-2 00 . P85 : ... .. 1 ... : ... .. . ... ... : ... .. 4 ... ... : ... .. 4 ... ... : ... .. . P82 ...
ROW 16 : F#1 00 A PA0 ... ... : E-2 00 A P8C ... ... : E-2 00 . P8B : ... .. . ... : ... .. . ... ... : ... .. . ... ... : ... .. . ... ... : ... .. . P83 ...
ROW 17 : ... .. . P80 ... ... : D#2 00 A P94 ... ... : D#2 00 . P93 : ... .. 0 ... : ... .. . ... ... : ... .. . ... ... : ... .. . ... ... : ... .. . ... ...
ROW 18 : G-1 00 F ... ... ... : G-2 00 F P81 ... ... : F#4 00 . P80 : ... .. D ... : ... .. . ... ... : D-4 01 6 ... ... : D-5 01 6 ... ... : G-0 01 F P81 ...
ROW 19 : ... .. E ... ... ... : ... .. E ... ... ... : G#3 00 . ... : ... .. B ... : ... .. . ... ... : ... .. . ... ... : ... .. . ... ... : ... .. D P7F ...
ROW 1A : ... .. D ... ... ... : ... .. D ... ... ... : C#3 00 . ... : ... .. . ... : ... .. . ... ... : ... .. 5 ... ... : ... .. 5 ... ... : ... .. 8 P7D ...
ROW 1B : ... .. A ... ... ... : ... .. A ... ... ... : C-3 00 . ... : ... .. A ... : ... .. . ... ... : ... .. 4 ... ... : ... .. 4 ... ... : ... .. . ... ...
ROW 1C : ... .. . ... ... ... : ... .. . ... ... ... : G-2 00 . ... : ... .. 8 ... : ... .. . ... ... : ... .. . ... ... : ... .. . ... ... : ... .. . P7E ...
ROW 1D : ... .. . ... ... ... : ... .. . ... ... ... : ... .. . ... : ... .. 7 ... : ... .. . ... ... : ... .. . ... ... : ... .. . ... ... : ... .. . P80 ...
ROW 1E : A-1 00 F ... ... ... : A-2 00 F ... ... ... : A-2 00 . ... : 7-# 00 8 ... : ... .. . ... ... : D#4 01 6 ... ... : D#5 01 6 ... ... : A-0 01 F P82 ...
ROW 1F : ... .. E ... ... ... : ... .. E ... ... ... : ... .. . ... : ... .. 6 ... : ... .. . ... ... : ... .. . ... ... : ... .. . ... ... : ... .. D P83 ...
ROW 20 : ... .. D ... ... ... : ... .. D ... ... ... : ... .. . ... : ... .. 3 ... : ... .. . ... ... : ... .. 5 ... ... : ... .. 5 ... ... : ... .. 8 ... ...
ROW 21 : ... .. A ... ... ... : ... .. A ... ... ... : ... .. . ... : ... .. 1 ... : ... .. . ... ... : ... .. 4 ... ... : ... .. 4 ... ... : ... .. . P81 ...
ROW 22 : ... .. . ... ... ... : ... .. . ... ... ... : ... .. . ... : ... .. . ... : ... .. . ... ... : ... .. . ... ... : ... .. . ... ... : ... .. . P80 ...
ROW 23 : ... .. . ... ... ... : ... .. . ... ... ... : ... .. . ... : ... .. 0 ... : ... .. . ... ... : ... .. . ... ... : ... .. . ... ... : ... .. . P7D ...
ROW 24 : G-2 00 F ... ... ... : G-3 00 F ... ... ... : G-3 00 . ... : A-# 00 F ... : ... .. . ... ... : A-4 01 6 ... ... : A-5 01 6 ... ... : G-1 01 F ... ...
ROW 25 : ... .. E ... ... ... : ... .. E ... ... ... : ... .. . ... : ... .. C ... : ... .. . ... ... : ... .. . ... ... : ... .. . ... ... : ... .. D P7E ...
ROW 26 : ... .. D ... ... ... : ... .. D ... ... ... : ... .. . ... : ... .. 6 ... : ... .. . ... ... : ... .. 5 ... ... : ... .. 5 ... ... : ... .. 8 P80 ...
ROW 27 : ... .. A ... ... ... : ... .. A ... ... ... : ... .. . ... : ... .. 3 ... : ... .. . ... ... : ... .. 4 ... ... : ... .. 4 ... ... : ... .. . P81 ...
ROW 28 : ... .. . ... ... ... : ... .. . ... ... ... : ... .. . ... : ... .. 2 ... : ... .. . ... ... : ... .. . ... ... : ... .. . ... ... : ... .. . P83 ...
ROW 29 : ... .. . ... ... ... : ... .. . ... ... ... : ... .. . ... : ... .. 0 ... : ... .. . ... ... : ... .. . ... ... : ... .. . ... ... : ... .. . ... ...
ROW 2A : A-2 00 F ... ... ... : A-3 00 F ... ... ... : A-3 00 . ... : E-# 00 8 ... : ... .. . ... ... : A#4 01 6 ... ... : A#5 01 6 ... ... : A-1 01 F P81 ...
ROW 2B : ... .. E ... ... ... : ... .. E ... ... ... : ... .. . ... : ... .. 6 ... : ... .. . ... ... : ... .. . ... ... : ... .. . ... ... : ... .. D P80 ...
ROW 2C : ... .. D ... ... ... : ... .. D ... ... ... : ... .. . ... : ... .. 3 ... : ... .. . ... ... : ... .. 5 ... ... : ... .. 5 ... ... : ... .. 8 P7E ...
ROW 2D : ... .. A ... ... ... : ... .. A ... ... ... : ... .. . ... : ... .. 1 ... : ... .. . ... ... : ... .. 4 ... ... : ... .. 4 ... ... : ... .. . P7D ...
ROW 2E : ... .. . ... ... ... : ... .. . ... ... ... : ... .. . ... : ... .. . ... : ... .. . ... ... : ... .. . ... ... : ... .. . ... ... : ... .. . ... ...
ROW 2F : ... .. . ... ... ... : ... .. . ... ... ... : ... .. . ... : ... .. 0 ... : ... .. . ... ... : ... .. . ... ... : ... .. . ... ... : ... .. . P80 ...
ROW 30 : A#2 00 F ... ... ... : A#3 00 F ... ... ... : A-5 00 . ... : 1-# 00 F ... : ... .. . ... ... : A-4 01 6 ... ... : A-5 01 6 ... ... : A#1 01 F P81 ...
ROW 31 : ... .. E ... ... ... : ... .. E ... ... ... : B-4 00 . ... : ... .. C ... : ... .. . ... ... : ... .. . ... ... : ... .. . ... ... : ... .. D P83 ...
ROW 32 : ... .. D ... ... ... : ... .. D ... ... ... : E-4 00 . ... : ... .. 6 ... : ... .. . ... ... : ... .. 5 ... ... : ... .. 5 ... ... : ... .. 8 ... ...
ROW 33 : ... .. A ... ... ... : ... .. A ... ... ... : D#4 00 . ... : ... .. 3 ... : ... .. . ... ... : ... .. 4 ... ... : ... .. 4 ... ... : ... .. . P82 ...
ROW 34 : ... .. . ... ... ... : ... .. . ... ... ... : A#3 00 . ... : ... .. 2 ... : ... .. . ... ... : ... .. . ... ... : ... .. . ... ... : ... .. . P80 ...
ROW 35 : ... .. . ... ... ... : ... .. . ... ... ... : ... .. . ... : ... .. 0 ... : ... .. . ... ... : ... .. . ... ... : ... .. . ... ... : ... .. . P7E ...
ROW 36 : A-2 00 F ... ... ... : A-3 00 F ... ... ... : A-3 00 . ... : 9-# 00 8 ... : ... .. . ... ... : A#4 01 6 ... ... : A#5 01 6 ... ... : A-1 01 F P7D ...
ROW 37 : ... .. E ... ... ... : ... .. E ... ... ... : ... .. . ... : ... .. 6 ... : ... .. . ... ... : ... .. . ... ... : ... .. . ... ... : ... .. D ... ...
ROW 38 : ... .. D ... ... ... : ... .. D ... ... ... : ... .. . ... : ... .. 3 ... : ... .. . ... ... : ... .. 5 ... ... : ... .. 5 ... ... : ... .. 8 P7F ...
ROW 39 : ... .. A ... ... ... : ... .. A ... ... ... : ... .. . ... : ... .. 1 ... : ... .. . ... ... : ... .. 4 ... ... : ... .. 4 ... ... : ... .. . P81 ...
ROW 3A : ... .. . ... ... ... : ... .. . ... ... ... : ... .. . ... : ... .. . ... : ... .. . ... ... : ... .. . ... ... : ... .. . ... ... : ... .. . P83 ...
ROW 3B : ... .. . ... ... ... : ... .. . ... ... ... : ... .. . ... : ... .. 0 ... : ... .. . ... ... : ... .. . ... ... : ... .. . ... ... : ... .. . ... ...
ROW 3C : A-1 00 F ... ... ... : A-2 00 F ... ... ... : A-2 00 . ... : B-# 00 F ... : ... .. . ... ... : A-4 01 6 ... ... : A-5 01 6 ... ... : A-0 01 F P82 ...
ROW 3D : ... .. E ... ... ... : ... .. E ... ... ... : ... .. . ... : ... .. C ... : ... .. . ... ... : ... .. . ... ... : ... .. . ... ... : ... .. D P80 ...
ROW 3E : ... .. D ... ... ... : ... .. D ... ... ... : ... .. . ... : ... .. 6 ... : ... .. . ... ... : ... .. 5 ... ... : ... .. 5 ... ... : ... .. 8 P7E ...
ROW 3F : ... .. A ... ... ... : ... .. A ... ... ... : ... .. . ... : ... .. 3 ... : ... .. . ... ... : ... .. 4 ... ... : ... .. 4 ... ... : ... .. . P7D ...
ROW 40 : ... .. . ... ... ... : ... .. . ... ... ... : ... .. . ... : ... .. 2 ... : ... .. . ... ... : ... .. . ... ... : ... .. . ... ... : ... .. . ... ...
ROW 41 : ... .. . ... ... ... : ... .. . ... ... ... : ... .. . ... : ... .. 0 ... : ... .. . ... ... : ... .. . ... ... : ... .. . ... ... : ... .. . P7F ...
ROW 42 : ... .. F ... ... ... : ... .. F ... ... ... : ... .. . ... : 9-# 00 8 ... : ... .. . ... ... : D-4 01 6 ... ... : D-5 01 6 ... ... : ... .. F P80 ...
ROW 43 : ... .. E ... ... ... : ... .. E ... ... ... : ... .. . ... : ... .. 6 ... : ... .. . ... ... : ... .. . ... ... : ... .. . ... ... : ... .. D P83 ...
ROW 44 : ... .. D ... ... ... : ... .. D ... ... ... : ... .. . ... : ... .. 3 ... : ... .. . ... ... : ... .. 5 ... ... : ... .. 5 ... ... : ... .. 8 ... ...
ROW 45 : ... .. A ... ... ... : ... .. A ... ... ... : ... .. . ... : ... .. 1 ... : ... .. . ... ... : ... .. 4 ... ... : ... .. 4 ... ... : ... .. . P82 ...
ROW 46 : ... .. . ... ... ... : ... .. . ... ... ... : ... .. . ... : ... .. . ... : ... .. . ... ... : ... .. . ... ... : ... .. . ... ... : ... .. . P80 ...
ROW 47 : ... .. . ... ... ... : ... .. . ... ... ... : ... .. . ... : ... .. 0 ... : ... .. . ... ... : ... .. . ... ... : ... .. . ... ... : ... .. . P7F ...
ROW 48 : G-1 00 F ... ... ... : G-2 00 F ... ... ... : F#4 00 . ... : ... .. D ... : ... .. . ... ... : A-3 01 6 ... ... : A-4 01 6 ... ... : G-0 01 F P7D ...
ROW 49 : ... .. E ... ... ... : ... .. E ... ... ... : G#3 00 . ... : ... .. B ... : ... .. . ... ... : ... .. . ... ... : ... .. . ... ... : ... .. D ... ...
ROW 4A : ... .. D ... ... ... : ... .. D ... ... ... : C#3 00 . ... : ... .. . ... : ... .. . ... ... : ... .. 5 ... ... : ... .. 5 ... ... : ... .. 8 P7F ...
ROW 4B : ... .. A ... ... ... : ... .. A ... ... ... : C-3 00 . ... : ... .. A ... : ... .. . ... ... : ... .. 4 ... ... : ... .. 4 ... ... : ... .. . P80 ...
ROW 4C : ... .. . ... ... ... : ... .. . ... ... ... : G-2 00 . ... : ... .. 8 ... : ... .. . ... ... : ... .. . ... ... : ... .. . ... ... : ... .. . P82 ...
ROW 4D : ... .. . ... ... ... : ... .. . ... ... ... : ... .. . ... : ... .. 7 ... : ... .. . ... ... : ... .. . ... ... : ... .. . ... ... : ... .. . P83 ...
ROW 4E : A-1 00 F ... ... ... : A-2 00 F ... ... ... : A-2 00 . ... : 7-# 00 8 ... : ... .. . ... ... : G#3 01 6 ... ... : G#4 01 6 ... ... : A-0 01 F ... ...
ROW 4F : ... .. E ... ... ... : ... .. E ... ... ... : ... .. . ... : ... .. 6 ... : ... .. . ... ... : ... .. . ... ... : ... .. . ... ... : ... .. D P80 ...
ROW 50 : ... .. D ... ... ... : ... .. D ... ... ... : ... .. . ... : ... .. 3 ... : ... .. . ... ... : ... .. 5 ... ... : ... .. 5 ... ... : ... .. 8 P7F ...
ROW 51 : ... .. A ... ... ... : ... .. A ... ... ... : ... .. . ... : ... .. 1 ... : ... .. . ... ... : ... .. 4 ... ... : ... .. 4 ... ... : ... .. . P7D ...
ROW 52 : ... .. . ... ... ... : ... .. . ... ... ... : ... .. . ... : ... .. . ... : ... .. . ... ... : ... .. . ... ... : ... .. . ... ... : ... .. . ... ...
ROW 53 : ... .. . ... ... ... : ... .. . ... ... ... : ... .. . ... : ... .. 0 ... : ... .. . ... ... : ... .. . ... ... : ... .. . ... ... : ... .. . P7E ...
ROW 54 : A#2 00 F ... ... ... : A#3 00 F ... ... ... : A#3 00 . ... : A-# 00 F ... : ... .. . ... ... : D-3 01 6 ... ... : D-4 01 6 ... ... : A#1 01 F P80 ...
ROW 55 : ... .. E ... ... ... : ... .. E ... ... ... : ... .. . ... : ... .. C ... : ... .. . ... ... : ... .. . ... ... : ... .. . ... ... : ... .. D P82 ...
ROW 56 : ... .. D ... ... ... : ... .. D ... ... ... : ... .. . ... : ... .. 6 ... : ... .. . ... ... : ... .. 5 ... ... : ... .. 5 ... ... : ... .. 8 P83 ...
ROW 57 : ... .. A ... ... ... : ... .. A ... ... ... : ... .. . ... : ... .. 3 ... : ... .. . ... ... : ... .. 4 ... ... : ... .. 4 ... ... : ... .. . ... ...
ROW 58 : ... .. . ... ... ... : ... .. . ... ... ... : ... .. . ... : ... .. 2 ... : ... .. . ... ... : ... .. . ... ... : ... .. . ... ... : ... .. . P81 ...
ROW 59 : ... .. . ... ... ... : ... .. . ... ... ... : ... .. . ... : ... .. 0 ... : ... .. . ... ... : ... .. . ... ... : ... .. . ... ... : ... .. . P7F ...
ROW 5A : A-2 00 F ... ... ... : A-3 00 F ... ... ... : A-3 00 . ... : E-# 00 8 ... : ... .. . ... ... : A-2 01 6 ... ... : A-3 01 6 ... ... : A-1 01 F P7D ...
ROW 5B : ... .. E ... ... ... : ... .. E ... ... ... : ... .. . ... : ... .. 6 ... : ... .. . ... ... : ... .. . ... ... : ... .. . ... ... : ... .. D ... ...
ROW 5C : ... .. D ... ... ... : ... .. D ... ... ... : ... .. . ... : ... .. 3 ... : ... .. . ... ... : ... .. 5 ... ... : ... .. 5 ... ... : ... .. 8 P7E ...
ROW 5D : ... .. A ... ... ... : ... .. A ... ... ... : ... .. . ... : ... .. 1 ... : ... .. . ... ... : ... .. 4 ... ... : ... .. 4 ... ... : ... .. . P80 ...
ROW 5E : ... .. . ... ... ... : ... .. . ... ... ... : ... .. . ... : ... .. . ... : ... .. . ... ... : ... .. . ... ... : ... .. . ... ... : ... .. . P82 ...
ROW 5F : ... .. . ... ... ... : ... .. . ... ... ... : ... .. . ... : ... .. 0 ... : ... .. . ... ... : ... .. . ... ... : ... .. . ... ... : ... .. . P83 ...
ROW 60 : A-1 00 F ... ... ... : A-2 00 F ... ... ... : G#4 00 . ... : 1-# 00 F ... : ... .. . ... ... : G#2 01 6 ... ... : G#3 01 6 ... ... : A-0 01 F ... ...
ROW 61 : ... .. E ... ... ... : ... .. E ... ... ... : A#3 00 . ... : ... .. C ... : ... .. . ... ... : ... .. . ... ... : ... .. . ... ... : ... .. D P81 ...
ROW 62 : ... .. D ... ... ... : ... .. D ... ... ... : D#3 00 . ... : ... .. 6 ... : ... .. . ... ... : ... .. 5 ... ... : ... .. 5 ... ... : ... .. 8 P80 ...
ROW 63 : ... .. A ... ... ... : ... .. A ... ... ... : D-3 00 . ... : ... .. 3 ... : ... .. . ... ... : ... .. 4 ... ... : ... .. 4 ... ... : ... .. . P7D ...
ROW 64 : ... .. . ... ... ... : ... .. . ... ... ... : A-2 00 . ... : ... .. 2 ... : ... .. . ... ... : ... .. . ... ... : ... .. . ... ... : ... .. . ... ...
ROW 65 : ... .. . ... ... ... : ... .. . ... ... ... : ... .. . ... : ... .. 0 ... : ... .. . ... ... : ... .. . ... ... : ... .. . ... ... : ... .. . P7E ...
ROW 66 : ... .. F ... ... ... : ... .. F ... ... ... : ... .. . ... : 9-# 00 8 ... : ... .. . ... ... : A-2 01 6 ... ... : A-3 01 6 ... ... : ... .. F P80 ...
ROW 67 : ... .. E ... ... ... : ... .. E ... ... ... : ... .. . ... : ... .. 6 ... : ... .. . ... ... : ... .. . ... ... : ... .. . ... ... : ... .. D P81 ...
ROW 68 : ... .. D ... ... ... : ... .. D ... ... ... : ... .. . ... : ... .. 3 ... : ... .. . ... ... : ... .. 5 ... ... : ... .. 5 ... ... : ... .. 8 P83 ...
ROW 69 : ... .. A ... ... ... : ... .. A ... ... ... : ... .. . ... : ... .. 1 ... : ... .. . ... ... : ... .. 4 ... ... : ... .. 4 ... ... : ... .. . ... ...
ROW 6A : ... .. . ... ... ... : ... .. . ... ... ... : ... .. . ... : ... .. . ... : ... .. . ... ... : ... .. . ... ... : ... .. . ... ... : ... .. . P81 ...
ROW 6B : ... .. . ... ... ... : ... .. . ... ... ... : ... .. . ... : ... .. 0 ... : ... .. . ... ... : ... .. . ... ... : ... .. . ... ... : ... .. . P80 ...
ROW 6C : G-1 00 F ... ... ... : G-2 00 F ... ... ... : G-2 00 . ... : 1-# 00 F ... : ... .. . ... ... : D-3 01 6 ... ... : D-4 01 6 ... ... : G-0 01 F P7E ...
ROW 6D : ... .. E ... ... ... : ... .. E ... ... ... : ... .. . ... : ... .. C ... : ... .. . ... ... : ... .. . ... ... : ... .. . ... ... : ... .. D P7D ...
ROW 6E : ... .. D ... ... ... : ... .. D ... ... ... : ... .. . ... : ... .. 6 ... : ... .. . ... ... : ... .. 5 ... ... : ... .. 5 ... ... : ... .. 8 ... ...
ROW 6F : ... .. A ... ... ... : ... .. A ... ... ... : ... .. . ... : ... .. 3 ... : ... .. . ... ... : ... .. 4 ... ... : ... .. 4 ... ... : ... .. . P80 ...
ROW 70 : ... .. . ... ... ... : ... .. . ... ... ... : ... .. . ... : ... .. 2 ... : ... .. . ... ... : ... .. . ... ... : ... .. . ... ... : ... .. . P81 ...
ROW 71 : ... .. . ... ... ... : ... .. . ... ... ... : ... .. . ... : ... .. 0 ... : ... .. . ... ... : ... .. . ... ... : ... .. . ... ... : ... .. . P83 ...
ROW 72 : A-1 00 F ... ... ... : A-2 00 F ... ... ... : G#4 00 . ... : ... .. F ... : ... .. . ... ... : G#2 01 6 ... ... : G#3 01 6 ... ... : A-0 01 F ... ...
ROW 73 : ... .. E ... ... ... : ... .. E ... ... ... : A#3 00 . ... : ... .. C ... : ... .. . ... ... : ... .. . ... ... : ... .. . ... ... : ... .. D P82 ...
ROW 74 : ... .. D ... ... ... : ... .. D ... ... ... : D#3 00 . ... : ... .. 6 ... : ... .. . ... ... : ... .. 5 ... ... : ... .. 5 ... ... : ... .. 8 P80 ...
ROW 75 : ... .. A ... ... ... : ... .. A ... ... ... : D-3 00 . ... : ... .. 3 ... : ... .. . ... ... : ... .. 4 ... ... : ... .. 4 ... ... : ... .. . P7E ...
ROW 76 : ... .. . ... ... ... : ... .. . ... ... ... : A-2 00 . ... : ... .. 2 ... : ... .. . ... ... : ... .. . ... ... : ... .. . ... ... : ... .. . P7D ...
ROW 77 : ... .. . ... ... ... : ... .. . ... ... ... : ... .. . ... : ... .. 0 ... : ... .. . ... ... : ... .. . ... ... : ... .. . ... ... : ... .. . ... ...
ROW 78 : ... .. F ... ... ... : ... .. F ... ... ... : ... .. . ... : 9-# 00 8 ... : ... .. . ... ... : A-2 01 6 ... ... : A-3 01 6 ... ... : ... .. F P7F ...
ROW 79 : ... .. E ... ... ... : ... .. E ... ... ... : ... .. . ... : ... .. 6 ... : ... .. . ... ... : ... .. . ... ... : ... .. . ... ... : ... .. D P81 ...
ROW 7A : ... .. D ... ... ... : ... .. D ... ... ... : ... .. . ... : ... .. 3 ... : ... .. . ... ... : ... .. 5 ... ... : ... .. 5 ... ... : ... .. 8 P83 ...
ROW 7B : ... .. A ... ... ... : ... .. A ... ... ... : ... .. . ... : ... .. 1 ... : ... .. . ... ... : ... .. 4 ... ... : ... .. 4 ... ... : ... .. . ... ...
ROW 7C : ... .. . ... ... ... : ... .. . ... ... ... : ... .. . ... : ... .. . ... : ... .. . ... ... : ... .. . ... ... : ... .. . ... ... : ... .. . P82 ...
ROW 7D : ... .. . ... ... ... : ... .. . ... ... ... : ... .. . ... : ... .. 0 ... : ... .. . ... ... : ... .. . ... ... : ... .. . ... ... : ... .. . P80 ...
ROW 7E : G-1 00 F ... ... ... : G-2 00 F ... ... ... : G-2 00 . ... : 1-# 00 F ... : ... .. . ... ... : D-3 01 6 ... ... : D-4 01 6 ... ... : G-0 01 F P7E ...
ROW 7F : ... .. E ... ... ... : ... .. E ... ... ... : ... .. . ... : ... .. C ... : ... .. . ... ... : ... .. . ... ... : ... .. . ... ... : ... .. D P7D ...
ROW 80 : ... .. D ... ... ... : ... .. D ... ... ... : ... .. . ... : ... .. 6 ... : ... .. . ... ... : ... .. 5 ... ... : ... .. 5 ... ... : ... .. 8 ... ...
ROW 81 : ... .. A ... ... ... : ... .. A ... ... ... : ... .. . ... : ... .. 3 ... : ... .. . ... ... : ... .. 4 ... ... : ... .. 4 ... ... : ... .. . P7F ...
ROW 82 : ... .. . ... ... ... : ... .. . ... ... ... : ... .. . ... : ... .. 2 ... : ... .. . ... ... : ... .. . ... ... : ... .. . ... ... : ... .. . P80 ...
ROW 83 : ... .. . ... ... ... : ... .. . ... ... ... : ... .. . ... : ... .. 0 ... : ... .. . ... ... : ... .. . ... ... : ... .. . ... ... : ... .. . P83 ...
ROW 84 : A-1 00 F ... ... ... : A-2 00 F ... ... ... : A-2 00 . ... : 9-# 00 8 ... : ... .. . ... ... : D#3 01 6 ... ... : D#4 01 6 ... ... : A-0 01 F ... ...
ROW 85 : ... .. E ... ... ... : ... .. E ... ... ... : ... .. . ... : ... .. 6 ... : ... .. . ... ... : ... .. . ... ... : ... .. . ... ... : ... .. D P82 ...
ROW 86 : ... .. D ... ... ... : ... .. D ... ... ... : ... .. . ... : ... .. 3 ... : ... .. . ... ... : ... .. 5 ... ... : ... .. 5 ... ... : ... .. 8 P80 ...
ROW 87 : ... .. A ... ... ... : ... .. A ... ... ... : ... .. . ... : ... .. 1 ... : ... .. . ... ... : ... .. 4 ... ... : ... .. 4 ... ... : ... .. . P7F ...
ROW 88 : ... .. . ... ... ... : ... .. . ... ... ... : ... .. . ... : ... .. . ... : ... .. . ... ... : ... .. . ... ... : ... .. . ... ... : ... .. . P7D ...
ROW 89 : ... .. . ... ... ... : ... .. . ... ... ... : ... .. . ... : ... .. 0 ... : ... .. . ... ... : ... .. . ... ... : ... .. . ... ... : ... .. . ... ...
ROW 8A : B-2 00 F ... ... ... : B-3 00 F ... ... ... : B-3 00 . ... : E-# 00 8 ... : ... .. . ... ... : D#4 01 6 ... ... : D#5 01 6 ... ... : B-1 01 F P7F ...
ROW 8B : ... .. E ... ... ... : ... .. E ... ... ... : ... .. . ... : ... .. 6 ... : ... .. . ... ... : ... .. . ... ... : ... .. . ... ... : ... .. D P80 ...
ROW 8C : ... .. D ... ... ... : ... .. D ... ... ... : ... .. . ... : ... .. 3 ... : ... .. . ... ... : ... .. 5 ... ... : ... .. 5 ... ... : ... .. 8 P82 ...
ROW 8D : ... .. A ... ... ... : ... .. A ... ... ... : ... .. . ... : ... .. 1 ... : ... .. . ... ... : ... .. 4 ... ... : ... .. 4 ... ... : ... .. . P83 ...
ROW 8E : ... .. . ... ... ... : ... .. . ... ... ... : ... .. . ... : ... .. . ... : ... .. . ... ... : ... .. . ... ... : ... .. . ... ... : ... .. . ... ...
ROW 8F : ... .. . ... ... ... : ... .. . ... ... ... : ... .. . ... : ... .. 0 ... : ... .. . ... ... : ... .. . ... ... : ... .. . ... ... : ... .. . P80 ...
ROW 90 : C-3 00 F ... ... ... : C-4 00 F ... ... ... : B-5 00 . ... : 9-# 00 D ... : ... .. . ... ... : D-4 01 6 ... ... : D-5 01 6 ... ... : C-2 01 F P7F ...
ROW 91 : ... .. E ... ... ... : ... .. E ... ... ... : C#5 00 . ... : ... .. B ... : ... .. . ... ... : ... .. . ... ... : ... .. . ... ... : ... .. D P7D ...
ROW 92 : ... .. D ... ... ... : ... .. D ... ... ... : F#4 00 . ... : ... .. . ... : ... .. . ... ... : ... .. 5 ... ... : ... .. 5 ... ... : ... .. 8 ... ...
ROW 93 : ... .. A ... ... ... : ... .. A ... ... ... : F-4 00 . ... : ... .. A ... : ... .. . ... ... : ... .. 4 ... ... : ... .. 4 ... ... : ... .. . P7E ...
ROW 94 : ... .. . ... ... ... : ... .. . ... ... ... : C-4 00 . ... : ... .. 8 ... : ... .. . ... ... : ... .. . ... ... : ... .. . ... ... : ... .. . P80 ...
ROW 95 : ... .. . ... ... ... : ... .. . ... ... ... : ... .. . ... : ... .. 7 ... : ... .. . ... ... : ... .. . ... ... : ... .. . ... ... : ... .. . P82 ...
ROW 96 : G-2 00 F ... ... ... : G-3 00 F ... ... ... : G-3 00 . ... : ... .. 8 ... : ... .. . ... ... : D#4 01 6 ... ... : D#5 01 6 ... ... : G-1 01 F P83 ...
ROW 97 : ... .. E ... ... ... : ... .. E ... ... ... : ... .. . ... : ... .. 6 ... : ... .. . ... ... : ... .. . ... ... : ... .. . ... ... : ... .. D ... ...
ROW 98 : ... .. D ... ... ... : ... .. D ... ... ... : ... .. . ... : ... .. 3 ... : ... .. . ... ... : ... .. 5 ... ... : ... .. 5 ... ... : ... .. 8 P81 ...
ROW 99 : ... .. A ... ... ... : ... .. A ... ... ... : ... .. . ... : ... .. 1 ... : ... .. . ... ... : ... .. 4 ... ... : ... .. 4 ... ... : ... .. . P7F ...
ROW 9A : ... .. . ... ... ... : ... .. . ... ... ... : ... .. . ... : ... .. . ... : ... .. . ... ... : ... .. . ... ... : ... .. . ... ... : ... .. . P7D ...
ROW 9B : ... .. . ... ... ... : ... .. . ... ... ... : ... .. . ... : ... .. 0 ... : ... .. . ... ... : ... .. . ... ... : ... .. . ... ... : ... .. . ... ...
ROW 9C : C-2 00 F ... ... ... : C-3 00 F ... ... ... : C-3 00 . ... : B-# 00 F ... : ... .. . ... ... : D-4 01 6 ... ... : D-5 01 6 ... ... : C-1 01 F P7E ...
ROW 9D : ... .. E ... ... ... : ... .. E ... ... ... : ... .. . ... : ... .. C ... : ... .. . ... ... : ... .. . ... ... : ... .. . ... ... : ... .. D P80 ...
ROW 9E : ... .. D ... ... ... : ... .. D ... ... ... : ... .. . ... : ... .. 6 ... : ... .. . ... ... : ... .. 5 ... ... : ... .. 5 ... ... : ... .. 8 P82 ...
ROW 9F : ... .. A ... ... ... : ... .. A ... ... ... : ... .. . ... : ... .. 3 ... : ... .. . ... ... : ... .. 4 ... ... : ... .. 4 ... ... : ... .. . P83 ...
ROW A0 : ... .. . ... ... ... : ... .. . ... ... ... : ... .. . ... : ... .. 2 ... : ... .. . ... ... : ... .. . ... ... : ... .. . ... ... : ... .. . ... ...
ROW A1 : ... .. . ... ... ... : ... .. . ... ... ... : ... .. . ... : ... .. 0 ... : ... .. . ... ... : ... .. . ... ... : ... .. . ... ... : ... .. . P81 ...
ROW A2 : B-1 00 A P93 ... ... : B-2 00 A P7A ... ... : B-2 00 . P79 : 9-# 00 8 ... : ... .. . ... ... : A-3 01 6 ... ... : A-4 01 6 ... ... : ... .. . P80 ...
ROW A3 : ... .. . P73 ... ... : A#2 00 A P75 ... ... : A#2 00 . P74 : ... .. 6 ... : ... .. . ... ... : ... .. . ... ... : ... .. . ... ... : ... .. . P7D ...
ROW A4 : A#1 00 A P89 ... ... : A-2 00 A P71 ... ... : G#2 00 . P8F : ... .. 3 ... : ... .. . ... ... : ... .. 5 ... ... : ... .. 5 ... ... : ... .. . ... ...
ROW A5 : ... .. . P69 ... ... : G-2 00 A P90 ... ... : G-2 00 . ... : ... .. 1 ... : ... .. . ... ... : ... .. 4 ... ... : ... .. 4 ... ... : ... .. . P7E ...
ROW A6 : A-1 00 A P82 ... ... : ... .. . P70 ... ... : F#2 00 . P91 : ... .. . ... : ... .. . ... ... : ... .. . ... ... : ... .. . ... ... : ... .. . P80 ...
ROW A7 : G#1 00 A P9E ... ... : F#2 00 A P72 ... ... : ... .. . P71 : ... .. 0 ... : ... .. . ... ... : ... .. . ... ... : ... .. . ... ... : ... .. . P81 ...
ROW A8 : A#2 00 F P80 ... ... : A#3 00 F P81 ... ... : A-5 00 . P80 : ... .. D ... : ... .. . ... ... : G#3 01 6 ... ... : G#4 01 6 ... ... : A#1 01 F P83 ...
ROW A9 : ... .. E ... ... ... : ... .. E ... ... ... : B-4 00 . ... : ... .. B ... : ... .. . ... ... : ... .. . ... ... : ... .. . ... ... : ... .. D ... ...
ROW AA : ... .. D ... ... ... : ... .. D ... ... ... : E-4 00 . ... : ... .. . ... : ... .. . ... ... : ... .. 5 ... ... : ... .. 5 ... ... : ... .. 8 P81 ...
ROW AB : ... .. A ... ... ... : ... .. A ... ... ... : D#4 00 . ... : ... .. A ... : ... .. . ... ... : ... .. 4 ... ... : ... .. 4 ... ... : ... .. . P80 ...
ROW AC : ... .. . ... ... ... : ... .. . ... ... ... : A#3 00 . ... : ... .. 8 ... : ... .. . ... ... : ... .. . ... ... : ... .. . ... ... : ... .. . P7E ...
ROW AD : ... .. . ... ... ... : ... .. . ... ... ... : ... .. . ... : ... .. 7 ... : ... .. . ... ... : ... .. . ... ... : ... .. . ... ... : ... .. . P7D ...
ROW AE : F#2 00 F ... ... ... : F#3 00 F ... ... ... : F#3 00 . ... : ... .. 8 ... : ... .. . ... ... : D-3 01 6 ... ... : D-4 01 6 ... ... : F#1 01 F ... ...
ROW AF : ... .. E ... ... ... : ... .. E ... ... ... : ... .. . ... : ... .. 6 ... : ... .. . ... ... : ... .. . ... ... : ... .. . ... ... : ... .. D P80 ...
ROW B0 : ... .. D ... ... ... : ... .. D ... ... ... : ... .. . ... : ... .. 3 ... : ... .. . ... ... : ... .. 5 ... ... : ... .. 5 ... ... : ... .. 8 P81 ...
ROW B1 : ... .. A ... ... ... : ... .. A ... ... ... : ... .. . ... : ... .. 1 ... : ... .. . ... ... : ... .. 4 ... ... : ... .. 4 ... ... : ... .. . P83 ...
ROW B2 : ... .. . ... ... ... : ... .. . ... ... ... : ... .. . ... : ... .. . ... : ... .. . ... ... : ... .. . ... ... : ... .. . ... ... : ... .. . ... ...
ROW B3 : ... .. . ... ... ... : ... .. . ... ... ... : ... .. . ... : ... .. 0 ... : ... .. . ... ... : ... .. . ... ... : ... .. . ... ... : ... .. . P82 ...
ROW B4 : A#1 00 F ... ... ... : A#2 00 F ... ... ... : A#2 00 . ... : B-# 00 F ... : ... .. . ... ... : A-2 01 6 ... ... : A-3 01 6 ... ... : A#0 01 F P80 ...
ROW B5 : ... .. E ... ... ... : ... .. E ... ... ... : ... .. . ... : ... .. C ... : ... .. . ... ... : ... .. . ... ... : ... .. . ... ... : ... .. D P7E ...
ROW B6 : ... .. D ... ... ... : ... .. D ... ... ... : ... .. . ... : ... .. 6 ... : ... .. . ... ... : ... .. 5 ... ... : ... .. 5 ... ... : ... .. 8 P7D ...
ROW B7 : ... .. A ... ... ... : ... .. A ... ... ... : ... .. . ... : ... .. 3 ... : ... .. . ... ... : ... .. 4 ... ... : ... .. 4 ... ... : ... .. . ... ...
ROW B8 : ... .. . ... ... ... : ... .. . ... ... ... : ... .. . ... : ... .. 2 ... : ... .. . ... ... : ... .. . ... ... : ... .. . ... ... : ... .. . P7F ...
ROW B9 : ... .. . ... ... ... : ... .. . ... ... ... : ... .. . ... : ... .. 0 ... : ... .. . ... ... : ... .. . ... ... : ... .. . ... ... : ... .. . P81 ...
ROW BA : A-2 00 F ... ... ... : A-3 00 F ... ... ... : G#5 00 . ... : 9-# 00 D ... : ... .. . ... ... : G#2 01 6 ... ... : G#3 01 6 ... ... : A-1 01 F P83 ...
ROW BB : ... .. E ... ... ... : ... .. E ... ... ... : A#4 00 . ... : ... .. B ... : ... .. . ... ... : ... .. . ... ... : ... .. . ... ... : ... .. D ... ...
ROW BC : ... .. D ... ... ... : ... .. D ... ... ... : D#4 00 . ... : ... .. . ... : ... .. . ... ... : ... .. 5 ... ... : ... .. 5 ... ... : ... .. 8 P82 ...
ROW BD : ... .. A ... ... ... : ... .. A ... ... ... : D-4 00 . ... : ... .. A ... : ... .. . ... ... : ... .. 4 ... ... : ... .. 4 ... ... : ... .. . P80 ...
ROW BE : ... .. . ... ... ... : ... .. . ... ... ... : A-3 00 . ... : ... .. 8 ... : ... .. . ... ... : ... .. . ... ... : ... .. . ... ... : ... .. . P7E ...
ROW BF : ... .. . ... ... ... : ... .. . ... ... ... : ... .. . ... : ... .. 7 ... : ... .. . ... ... : ... .. . ... ... : ... .. . ... ... : ... .. . P7D ...
ROW C0 : E-2 00 F ... ... ... : E-3 00 F ... ... ... : E-3 00 . ... : ... .. 8 ... : ... .. . ... ... : A-2 01 6 ... ... : A-3 01 6 ... ... : E-1 01 F ... ...
ROW C1 : ... .. E ... ... ... : ... .. E ... ... ... : ... .. . ... : ... .. 6 ... : ... .. . ... ... : ... .. . ... ... : ... .. . ... ... : ... .. D P7F ...
ROW C2 : ... .. D ... ... ... : ... .. D ... ... ... : ... .. . ... : ... .. 3 ... : ... .. . ... ... : ... .. 5 ... ... : ... .. 5 ... ... : ... .. 8 P80 ...
ROW C3 : ... .. A ... ... ... : ... .. A ... ... ... : ... .. . ... : ... .. 1 ... : ... .. . ... ... : ... .. 4 ... ... : ... .. 4 ... ... : ... .. . P83 ...
ROW C4 : ... .. . ... ... ... : ... .. . ... ... ... : ... .. . ... : ... .. . ... : ... .. . ... ... : ... .. . ... ... : ... .. . ... ... : ... .. . ... ...
ROW C5 : ... .. . ... ... ... : ... .. . ... ... ... : ... .. . ... : ... .. 0 ... : ... .. . ... ... : ... .. . ... ... : ... .. . ... ... : ... .. . P82 ...
ROW C6 : A-1 00 F ... ... ... : A-2 00 F ... ... ... : A-2 00 . ... : B-# 00 F ... : ... .. . ... ... : D-3 01 6 ... ... : D-4 01 6 ... ... : A-0 01 F P80 ...
ROW C7 : ... .. E ... ... ... : ... .. E ... ... ... : ... .. . ... : ... .. C ... : ... .. . ... ... : ... .. . ... ... : ... .. . ... ... : ... .. D P7F ...
ROW C8 : ... .. D ... ... ... : ... .. D ... ... ... : ... .. . ... : ... .. 6 ... : ... .. . ... ... : ... .. 5 ... ... : ... .. 5 ... ... : ... .. 8 P7D ...
ROW C9 : ... .. A ... ... ... : ... .. A ... ... ... : ... .. . ... : ... .. 3 ... : ... .. . ... ... : ... .. 4 ... ... : ... .. 4 ... ... : ... .. . ... ...
ROW CA : ... .. . ... ... ... : ... .. . ... ... ... : ... .. . ... : ... .. 2 ... : ... .. . ... ... : ... .. . ... ... : ... .. . ... ... : ... .. . P7F ...
ROW CB : ... .. . ... ... ... : ... .. . ... ... ... : ... .. . ... : ... .. 0 ... : ... .. . ... ... : ... .. . ... ... : ... .. . ... ... : ... .. . P80 ...
ROW CC : ... .. . ... ... ... : ... .. . ... ... ... : ... .. . ... : 9-# 00 8 ... : ... .. . ... ... : A-3 01 6 ... ... : A-4 01 6 ... ... : ... .. . P82 ...
ROW CD : ... .. . ... ... ... : ... .. . ... ... ... : ... .. . ... : ... .. 6 ... : ... .. . ... ... : ... .. . ... ... : ... .. . ... ... : ... .. . P83 ...
ROW CE : ... .. . ... ... ... : ... .. . ... ... ... : ... .. . ... : ... .. 3 ... : ... .. . ... ... : ... .. 5 ... ... : ... .. 5 ... ... : ... .. . ... ...
ROW CF : ... .. . ... ... ... : ... .. . ... ... ... : ... .. . ... : ... .. 1 ... : ... .. . ... ... : ... .. 4 ... ... : ... .. 4 ... ... : ... .. . P80 ...
ROW D0 : ... .. . ... ... ... : ... .. . ... ... ... : ... .. . ... : ... .. . ... : ... .. . ... ... : ... .. . ... ... : ... .. . ... ... : ... .. . P7F ...
ROW D1 : ... .. . ... ... ... : ... .. . ... ... ... : ... .. . ... : ... .. 0 ... : ... .. . ... ... : ... .. . ... ... : ... .. . ... ... : ... .. . P7D ...
ROW D2 : G#1 00 A P9C ... ... : G#2 00 A P80 ... ... : G#2 00 . P7F : ... .. 8 ... : ... .. . ... ... : A#3 01 6 ... ... : A#4 01 6 ... ... : ... .. . ... ...
ROW D3 : ... .. . P7C ... ... : G-2 00 A ... ... ... : G-2 00 . ... : ... .. 6 ... : ... .. . ... ... : ... .. . ... ... : ... .. . ... ... : ... .. . P7E ...
ROW D4 : G-1 00 A P9C ... ... : F#2 00 A P82 ... ... : F#2 00 . P81 : ... .. 3 ... : ... .. . ... ... : ... .. 5 ... ... : ... .. 5 ... ... : ... .. . P80 ...
ROW D5 : ... .. . P7C ... ... : F-2 00 A P86 ... ... : F-2 00 . P85 : ... .. 1 ... : ... .. . ... ... : ... .. 4 ... ... : ... .. 4 ... ... : ... .. . P82 ...
ROW D6 : F#1 00 A PA0 ... ... : E-2 00 A P8C ... ... : E-2 00 . P8B : ... .. . ... : ... .. . ... ... : ... .. . ... ... : ... .. . ... ... : ... .. . P83 ...
ROW D7 : ... .. . P80 ... ... : D#2 00 A P94 ... ... : D#2 00 . P93 : ... .. 0 ... : ... .. . ... ... : ... .. . ... ... : ... .. . ... ... : ... .. . ... ...
ROW D8 : G-1 00 F ... ... ... : G-2 00 F P81 ... ... : F#4 00 . P80 : ... .. D ... : ... .. . ... ... : D-4 01 6 ... ... : D-5 01 6 ... ... : G-0 01 F P81 ...
ROW D9 : ... .. E ... ... ... : ... .. E ... ... ... : G#3 00 . ... : ... .. B ... : ... .. . ... ... : ... .. . ... ... : ... .. . ... ... : ... .. D P7F ...
ROW DA : ... .. D ... ... ... : ... .. D ... ... ... : C#3 00 . ... : ... .. . ... : ... .. . ... ... : ... .. 5 ... ... : ... .. 5 ... ... : ... .. 8 P7D ...
ROW DB : ... .. A ... ... ... : ... .. A ... ... ... : C-3 00 . ... : ... .. A ... : ... .. . ... ... : ... .. 4 ... ... : ... .. 4 ... ... : ... .. . ... ...
ROW DC : ... .. . ... ... ... : ... .. . ... ... ... : G-2 00 . ... : ... .. 8 ... : ... .. . ... ... : ... .. . ... ... : ... .. . ... ... : ... .. . P7E ...
ROW DD : ... .. . ... ... ... : ... .. . ... ... ... : ... .. . ... : ... .. 7 ... : ... .. . ... ... : ... .. . ... ... : ... .. . ... ... : ... .. . P80 ...
ROW DE : A-1 00 F ... ... ... : A-2 00 F ... ... ... : A-2 00 . ... : 7-# 00 8 ... : ... .. . ... ... : D#4 01 6 ... ... : D#5 01 6 ... ... : A-0 01 F P82 ...
ROW DF : ... .. E ... ... ... : ... .. E ... ... ... : ... .. . ... : ... .. 6 ... : ... .. . ... ... : ... .. . ... ... : ... .. . ... ... : ... .. D P83 ...
ROW E0 : ... .. D ... ... ... : ... .. D ... ... ... : ... .. . ... : ... .. 3 ... : ... .. . ... ... : ... .. 5 ... ... : ... .. 5 ... ... : ... .. 8 ... ...
ROW E1 : ... .. A ... ... ... : ... .. A ... ... ... : ... .. . ... : ... .. 1 ... : ... .. . ... ... : ... .. 4 ... ... : ... .. 4 ... ... : ... .. . P81 ...
ROW E2 : ... .. . ... ... ... : ... .. . ... ... ... : ... .. . ... : ... .. . ... : ... .. . ... ... : ... .. . ... ... : ... .. . ... ... : ... .. . P80 ...
ROW E3 : ... .. . ... ... ... : ... .. . ... ... ... : ... .. . ... : ... .. 0 ... : ... .. . ... ... : ... .. . ... ... : ... .. . ... ... : ... .. . P7D ...
ROW E4 : G-2 00 F ... ... ... : G-3 00 F ... ... ... : G-3 00 . ... : A-# 00 F ... : ... .. . ... ... : A-4 01 6 ... ... : A-5 01 6 ... ... : G-1 01 F ... ...
ROW E5 : ... .. E ... ... ... : ... .. E ... ... ... : ... .. . ... : ... .. C ... : ... .. . ... ... : ... .. . ... ... : ... .. . ... ... : ... .. D P7E ...
ROW E6 : ... .. D ... ... ... : ... .. D ... ... ... : ... .. . ... : ... .. 6 ... : ... .. . ... ... : ... .. 5 ... ... : ... .. 5 ... ... : ... .. 8 P80 ...
ROW E7 : ... .. A ... ... ... : ... .. A ... ... ... : ... .. . ... : ... .. 3 ... : ... .. . ... ... : ... .. 4 ... ... : ... .. 4 ... ... : ... .. . P81 ...
ROW E8 : ... .. . ... ... ... : ... .. . ... ... ... : ... .. . ... : ... .. 2 ... : ... .. . ... ... : ... .. . ... ... : ... .. . ... ... : ... .. . P83 ...
ROW E9 : ... .. . ... ... ... : ... .. . ... ... ... : ... .. . ... : ... .. 0 ... : ... .. . ... ... : ... .. . ... ... : ... .. . ... ... : ... .. . ... ...
ROW EA : A-2 00 F ... ... ... : A-3 00 F ... ... ... : A-3 00 . ... : E-# 00 8 ... : ... .. . ... ... : A#4 01 6 ... ... : A#5 01 6 ... ... : A-1 01 F P81 ...
ROW EB : ... .. E ... ... ... : ... .. E ... ... ... : ... .. . ... : ... .. 6 ... : ... .. . ... ... : ... .. . ... ... : ... .. . ... ... : ... .. D P80 ...
ROW EC : ... .. D ... ... ... : ... .. D ... ... ... : ... .. . ... : ... .. 3 ... : ... .. . ... ... : ... .. 5 ... ... : ... .. 5 ... ... : ... .. 8 P7E ...
ROW ED : ... .. A ... ... ... : ... .. A ... ... ... : ... .. . ... : ... .. 1 ... : ... .. . ... ... : ... .. 4 ... ... : ... .. 4 ... ... : ... .. . P7D ...
ROW EE : ... .. . ... ... ... : ... .. . ... ... ... : ... .. . ... : ... .. . ... : ... .. . ... ... : ... .. . ... ... : ... .. . ... ... : ... .. . ... ...
ROW EF : ... .. . ... ... ... : ... .. . ... ... ... : ... .. . ... : ... .. 0 ... : ... .. . ... ... : ... .. . ... ... : ... .. . ... ... : ... .. . P80 ...
ROW F0 : G-2 00 F ... ... ... : G-3 00 F ... ... ... : F#5 00 . ... : 1-# 00 F ... : ... .. . ... ... : A-4 01 6 ... ... : A-5 01 6 ... ... : G-1 01 F P81 ...
ROW F1 : ... .. E ... ... ... : ... .. E ... ... ... : G#4 00 . ... : ... .. C ... : ... .. . ... ... : ... .. . ... ... : ... .. . ... ... : ... .. D P83 ...
ROW F2 : ... .. D ... ... ... : ... .. D ... ... ... : C#4 00 . ... : ... .. 6 ... : ... .. . ... ... : ... .. 5 ... ... : ... .. 5 ... ... : ... .. 8 ... ...
ROW F3 : ... .. A ... ... ... : ... .. A ... ... ... : C-4 00 . ... : ... .. 3 ... : ... .. . ... ... : ... .. 4 ... ... : ... .. 4 ... ... : ... .. . P82 ...
ROW F4 : ... .. . ... ... ... : ... .. . ... ... ... : G-3 00 . ... : ... .. 2 ... : ... .. . ... ... : ... .. . ... ... : ... .. . ... ... : ... .. . P80 ...
ROW F5 : ... .. . ... ... ... : ... .. . ... ... ... : ... .. . ... : ... .. 0 ... : ... .. . ... ... : ... .. . ... ... : ... .. . ... ... : ... .. . P7E ...
ROW F6 : F#2 00 F ... ... ... : F#3 00 F ... ... ... : F#3 00 . ... : 9-# 00 8 ... : ... .. . ... ... : A#4 01 6 ... ... : A#5 01 6 ... ... : F#1 01 F P7D ...
ROW F7 : ... .. E ... ... ... : ... .. E ... ... ... : ... .. . ... : ... .. 6 ... : ... .. . ... ... : ... .. . ... ... : ... .. . ... ... : ... .. D ... ...
ROW F8 : ... .. D ... ... ... : ... .. D ... ... ... : ... .. . ... : ... .. 3 ... : ... .. . ... ... : ... .. 5 ... ... : ... .. 5 ... ... : ... .. 8 P7F ...
ROW F9 : ... .. A ... ... ... : ... .. A ... ... ... : ... .. . ... : ... .. 1 ... : ... .. . ... ... : ... .. 4 ... ... : ... .. 4 ... ... : ... .. . P81 ...
ROW FA : ... .. . ... ... ... : ... .. . ... ... ... : ... .. . ... : ... .. . ... : ... .. . ... ... : ... .. . ... ... : ... .. . ... ... : ... .. . P83 ...
ROW FB : ... .. . ... ... ... : ... .. . ... ... ... : ... .. . ... : ... .. 0 ... : ... .. . ... ... : ... .. . ... ... : ... .. . ... ... : ... .. . ... ...
ROW FC : F#1 00 F ... ... ... : F#2 00 F ... ... ... : F#2 00 . ... : B-# 00 F ... : ... .. . ... ... : A-4 01 6 ... ... : A-5 01 6 ... ... : F#0 01 F P82 ...
ROW FD : ... .. E ... ... ... : ... .. E ... ... ... : ... .. . ... : ... .. C ... : ... .. . ... ... : ... .. . ... ... : ... .. . ... ... : ... .. D P80 ...
ROW FE : ... .. D ... ... ... : ... .. D ... ... ... : ... .. . ... : ... .. 6 ... : ... .. . ... ... : ... .. 5 ... ... : ... .. 5 ... ... : ... .. 8 P7E ...
ROW FF : ... .. A ... ... ... : ... .. A ... ... ... : ... .. . ... : ... .. 3 ... : ... .. . ... ... : ... .. 4 ... ... : ... .. 4 ... ... : ... .. . P7D ...

PATTERN 0D
ROW 00 : ... .. . ... ... ... : ... .. . ... ... ... : ... .. . ... : ... .. 2 ... : ... .. . ... ... : ... .. . ... ... : ... .. . ... ... : ... .. . ... ...
ROW 01 : ... .. . ... ... ... : ... .. . ... ... ... : ... .. . ... : ... .. 0 ... : ... .. . ... ... : ... .. . ... ... : ... .. . ... ... : ... .. . P7F ...
ROW 02 : ... .. F ... ... ... : ... .. F ... ... ... : ... .. . ... : 9-# 00 8 ... : ... .. . ... ... : D-4 01 6 ... ... : D-5 01 6 ... ... : ... .. F P80 ...
ROW 03 : ... .. E ... ... ... : ... .. E ... ... ... : ... .. . ... : ... .. 6 ... : ... .. . ... ... : ... .. . ... ... : ... .. . ... ... : ... .. D P83 ...
ROW 04 : ... .. D ... ... ... : ... .. D ... ... ... : ... .. . ... : ... .. 3 ... : ... .. . ... ... : ... .. 5 ... ... : ... .. 5 ... ... : ... .. 8 ... ...
ROW 05 : ... .. A ... ... ... : ... .. A ... ... ... : ... .. . ... : ... .. 1 ... : ... .. . ... ... : ... .. 4 ... ... : ... .. 4 ... ... : ... .. . P82 ...
ROW 06 : ... .. . ... ... ... : ... .. . ... ... ... : ... .. . ... : ... .. . ... : ... .. . ... ... : ... .. . ... ... : ... .. . ... ... : ... .. . P80 ...
ROW 07 : ... .. . ... ... ... : ... .. . ... ... ... : ... .. . ... : ... .. 0 ... : ... .. . ... ... : ... .. . ... ... : ... .. . ... ... : ... .. . P7F ...
ROW 08 : E-1 00 F ... ... ... : E-2 00 F ... ... ... : D#4 00 . ... : ... .. D ... : ... .. . ... ... : A-3 01 6 ... ... : A-4 01 6 ... ... : E-0 01 F P7D ...
ROW 09 : ... .. E ... ... ... : ... .. E ... ... ... : F-3 00 . ... : ... .. B ... : ... .. . ... ... : ... .. . ... ... : ... .. . ... ... : ... .. D ... ...
ROW 0A : ... .. D ... ... ... : ... .. D ... ... ... : A#2 00 . ... : ... .. . ... : ... .. . ... ... : ... .. 5 ... ... : ... .. 5 ... ... : ... .. 8 P7F ...
ROW 0B : ... .. A ... ... ... : ... .. A ... ... ... : A-2 00 . ... : ... .. A ... : ... .. . ... ... : ... .. 4 ... ... : ... .. 4 ... ... : ... .. . P80 ...
ROW 0C : ... .. . ... ... ... : ... .. . ... ... ... : E-2 00 . ... : ... .. 8 ... : ... .. . ... ... : ... .. . ... ... : ... .. . ... ... : ... .. . P82 ...
ROW 0D : ... .. . ... ... ... : ... .. . ... ... ... : ... .. . ... : ... .. 7 ... : ... .. . ... ... : ... .. . ... ... : ... .. . ... ... : ... .. . P83 ...
ROW 0E : F#1 00 F ... ... ... : F#2 00 F ... ... ... : F#2 00 . ... : 7-# 00 8 ... : ... .. . ... ... : G#3 01 6 ... ... : G#4 01 6 ... ... : F#0 01 F ... ...
ROW 0F : ... .. E ... ... ... : ... .. E ... ... ... : ... .. . ... : ... .. 6 ... : ... .. . ... ... : ... .. . ... ... : ... .. . ... ... : ... .. D P80 ...
ROW 10 : ... .. D ... ... ... : ... .. D ... ... ... : ... .. . ... : ... .. 3 ... : ... .. . ... ... : ... .. 5 ... ... : ... .. 5 ... ... : ... .. 8 P7F ...
ROW 11 : ... .. A ... ... ... : ... .. A ... ... ... : ... .. . ... : ... .. 1 ... : ... .. . ... ... : ... .. 4 ... ... : ... .. 4 ... ... : ... .. . P7D ...
ROW 12 : ... .. . ... ... ... : ... .. . ... ... ... : ... .. . ... : ... .. . ... : ... .. . ... ... : ... .. . ... ... : ... .. . ... ... : ... .. . ... ...
ROW 13 : ... .. . ... ... ... : ... .. . ... ... ... : ... .. . ... : ... .. 0 ... : ... .. . ... ... : ... .. . ... ... : ... .. . ... ... : ... .. . P7E ...
ROW 14 : G-2 00 F ... ... ... : G-3 00 F ... ... ... : G-3 00 . ... : A-# 00 F ... : ... .. . ... ... : D-3 01 6 ... ... : D-4 01 6 ... ... : G-1 01 F P80 ...
ROW 15 : ... .. E ... ... ... : ... .. E ... ... ... : ... .. . ... : ... .. C ... : ... .. . ... ... : ... .. . ... ... : ... .. . ... ... : ... .. D P82 ...
ROW 16 : ... .. D ... ... ... : ... .. D ... ... ... : ... .. . ... : ... .. 6 ... : ... .. . ... ... : ... .. 5 ... ... : ... .. 5 ... ... : ... .. 8 P83 ...
ROW 17 : ... .. A ... ... ... : ... .. A ... ... ... : ... .. . ... : ... .. 3 ... : ... .. . ... ... : ... .. 4 ... ... : ... .. 4 ... ... : ... .. . ... ...
ROW 18 : ... .. . ... ... ... : ... .. . ... ... ... : ... .. . ... : ... .. 2 ... : ... .. . ... ... : ... .. . ... ... : ... .. . ... ... : ... .. . P81 ...
ROW 19 : ... .. . ... ... ... : ... .. . ... ... ... : ... .. . ... : ... .. 0 ... : ... .. . ... ... : ... .. . ... ... : ... .. . ... ... : ... .. . P7F ...
ROW 1A : F#2 00 F ... ... ... : F#3 00 F ... ... ... : F#3 00 . ... : E-# 00 8 ... : ... .. . ... ... : A-2 01 6 ... ... : A-3 01 6 ... ... : F#1 01 F P7D ...
ROW 1B : ... .. E ... ... ... : ... .. E ... ... ... : ... .. . ... : ... .. 6 ... : ... .. . ... ... : ... .. . ... ... : ... .. . ... ... : ... .. D ... ...
ROW 1C : ... .. D ... ... ... : ... .. D ... ... ... : ... .. . ... : ... .. 3 ... : ... .. . ... ... : ... .. 5 ... ... : ... .. 5 ... ... : ... .. 8 P7E ...
ROW 1D : ... .. A ... ... ... : ... .. A ... ... ... : ... .. . ... : ... .. 1 ... : ... .. . ... ... : ... .. 4 ... ... : ... .. 4 ... ... : ... .. . P80 ...
ROW 1E : ... .. . ... ... ... : ... .. . ... ... ... : ... .. . ... : ... .. . ... : ... .. . ... ... : ... .. . ... ... : ... .. . ... ... : ... .. . P82 ...
ROW 1F : ... .. . ... ... ... : ... .. . ... ... ... : ... .. . ... : ... .. 0 ... : ... .. . ... ... : ... .. . ... ... : ... .. . ... ... : ... .. . P83 ...
ROW 20 : F#1 00 F ... ... ... : F#2 00 F ... ... ... : F-4 00 . ... : 1-# 00 F ... : ... .. . ... ... : G#2 01 6 ... ... : G#3 01 6 ... ... : F#0 01 F ... ...
ROW 21 : ... .. E ... ... ... : ... .. E ... ... ... : G-3 00 . ... : ... .. C ... : ... .. . ... ... : ... .. . ... ... : ... .. . ... ... : ... .. D P81 ...
ROW 22 : ... .. D ... ... ... : ... .. D ... ... ... : C-3 00 . ... : ... .. 6 ... : ... .. . ... ... : ... .. 5 ... ... : ... .. 5 ... ... : ... .. 8 P80 ...
ROW 23 : ... .. A ... ... ... : ... .. A ... ... ... : B-2 00 . ... : ... .. 3 ... : ... .. . ... ... : ... .. 4 ... ... : ... .. 4 ... ... : ... .. . P7D ...
ROW 24 : ... .. . ... ... ... : ... .. . ... ... ... : F#2 00 . ... : ... .. 2 ... : ... .. . ... ... : ... .. . ... ... : ... .. . ... ... : ... .. . ... ...
ROW 25 : ... .. . ... ... ... : ... .. . ... ... ... : ... .. . ... : ... .. 0 ... : ... .. . ... ... : ... .. . ... ... : ... .. . ... ... : ... .. . P7E ...
ROW 26 : ... .. F ... ... ... : ... .. F ... ... ... : ... .. . ... : 9-# 00 8 ... : ... .. . ... ... : A-2 01 6 ... ... : A-3 01 6 ... ... : ... .. F P80 ...
ROW 27 : ... .. E ... ... ... : ... .. E ... ... ... : ... .. . ... : ... .. 6 ... : ... .. . ... ... : ... .. . ... ... : ... .. . ... ... : ... .. D P81 ...
ROW 28 : ... .. D ... ... ... : ... .. D ... ... ... : ... .. . ... : ... .. 3 ... : ... .. . ... ... : ... .. 5 ... ... : ... .. 5 ... ... : ... .. 8 P83 ...
ROW 29 : ... .. A ... ... ... : ... .. A ... ... ... : ... .. . ... : ... .. 1 ... : ... .. . ... ... : ... .. 4 ... ... : ... .. 4 ... ... : ... .. . ... ...
ROW 2A : ... .. . ... ... ... : ... .. . ... ... ... : ... .. . ... : ... .. . ... : ... .. . ... ... : ... .. . ... ... : ... .. . ... ... : ... .. . P81 ...
ROW 2B : ... .. . ... ... ... : ... .. . ... ... ... : ... .. . ... : ... .. 0 ... : ... .. . ... ... : ... .. . ... ... : ... .. . ... ... : ... .. . P80 ...
ROW 2C : E-1 00 F ... ... ... : E-2 00 F ... ... ... : E-2 00 . ... : 1-# 00 F ... : ... .. . ... ... : D-3 01 6 ... ... : D-4 01 6 ... ... : E-0 01 F P7E ...
ROW 2D : ... .. E ... ... ... : ... .. E ... ... ... : ... .. . ... : ... .. C ... : ... .. . ... ... : ... .. . ... ... : ... .. . ... ... : ... .. D P7D ...
ROW 2E : ... .. D ... ... ... : ... .. D ... ... ... : ... .. . ... : ... .. 6 ... : ... .. . ... ... : ... .. 5 ... ... : ... .. 5 ... ... : ... .. 8 ... ...
ROW 2F : ... .. A ... ... ... : ... .. A ... ... ... : ... .. . ... : ... .. 3 ... : ... .. . ... ... : ... .. 4 ... ... : ... .. 4 ... ... : ... .. . P80 ...
ROW 30 : ... .. . ... ... ... : ... .. . ... ... ... : ... .. . ... : ... .. 2 ... : ... .. . ... ... : ... .. . ... ... : ... .. . ... ... : ... .. . P81 ...
ROW 31 : ... .. . ... ... ... : ... .. . ... ... ... : ... .. . ... : ... .. 0 ... : ... .. . ... ... : ... .. . ... ... : ... .. . ... ... : ... .. . P83 ...
ROW 32 : F#1 00 F ... ... ... : F#2 00 F ... ... ... : F#2 00 . ... : 9-# 00 8 ... : ... .. . ... ... : D#3 01 6 ... ... : D#4 01 6 ... ... : F#0 01 F ... ...
ROW 33 : ... .. E ... ... ... : ... .. E ... ... ... : ... .. . ... : ... .. 6 ... : ... .. . ... ... : ... .. . ... ... : ... .. . ... ... : ... .. D P82 ...
ROW 34 : ... .. D ... ... ... : ... .. D ... ... ... : ... .. . ... : ... .. 3 ... : ... .. . ... ... : ... .. 5 ... ... : ... .. 5 ... ... : ... .. 8 P80 ...
ROW 35 : ... .. A ... ... ... : ... .. A ... ... ... : ... .. . ... : ... .. 1 ... : ... .. . ... ... : ... .. 4 ... ... : ... .. 4 ... ... : ... .. . P7E ...
ROW 36 : ... .. . ... ... ... : ... .. . ... ... ... : ... .. . ... : ... .. . ... : ... .. . ... ... : ... .. . ... ... : ... .. . ... ... : ... .. . P7D ...
ROW 37 : ... .. . ... ... ... : ... .. . ... ... ... : ... .. . ... : ... .. 0 ... : ... .. . ... ... : ... .. . ... ... : ... .. . ... ... : ... .. . ... ...
ROW 38 : A-3 00 F ... ... ... : F#4 00 F ... ... ... : D-6 00 . ... : ... .. D ... : ... .. . ... ... : A-3 01 6 ... ... : A-4 01 6 ... ... : D#2 01 F P7F ...
ROW 39 : ... .. E ... ... ... : ... .. E ... ... ... : E-5 00 . ... : ... .. B ... : ... .. . ... ... : ... .. . ... ... : ... .. . ... ... : ... .. D P81 ...
ROW 3A : ... .. D ... ... ... : ... .. D ... ... ... : A-4 00 . ... : ... .. . ... : ... .. . ... ... : ... .. 5 ... ... : ... .. 5 ... ... : ... .. 8 P83 ...
ROW 3B : ... .. A ... ... ... : ... .. A ... ... ... : G#4 00 . ... : ... .. A ... : ... .. . ... ... : ... .. 4 ... ... : ... .. 4 ... ... : ... .. . ... ...
ROW 3C : ... .. . ... ... ... : ... .. . ... ... ... : D#4 00 . ... : ... .. 8 ... : ... .. . ... ... : ... .. . ... ... : ... .. . ... ... : ... .. . P82 ...
ROW 3D : ... .. . ... ... ... : ... .. . ... ... ... : ... .. . ... : ... .. 7 ... : ... .. . ... ... : ... .. . ... ... : ... .. . ... ... : ... .. . P80 ...
ROW 3E : ... .. . ... ... ... : ... .. . ... ... ... : ... .. . ... : 7-# 00 8 ... : ... .. . ... ... : A#3 01 6 ... ... : A#4 01 6 ... ... : ... .. F P7E ...
ROW 3F : ... .. . ... ... ... : ... .. . ... ... ... : ... .. . ... : ... .. 6 ... : ... .. . ... ... : ... .. . ... ... : ... .. . ... ... : ... .. D P7D ...
ROW 40 : ... .. . ... ... ... : ... .. . ... ... ... : ... .. . ... : ... .. 3 ... : ... .. . ... ... : ... .. 5 ... ... : ... .. 5 ... ... : ... .. 8 ... ...
ROW 41 : ... .. . ... ... ... : ... .. . ... ... ... : ... .. . ... : ... .. 1 ... : ... .. . ... ... : ... .. 4 ... ... : ... .. 4 ... ... : ... .. . P7F ...
ROW 42 : ... .. . ... ... ... : ... .. . ... ... ... : ... .. . ... : ... .. . ... : ... .. . ... ... : ... .. . ... ... : ... .. . ... ... : ... .. . P80 ...
ROW 43 : ... .. . ... ... ... : ... .. . ... ... ... : ... .. . ... : ... .. 0 ... : ... .. . ... ... : ... .. . ... ... : ... .. . ... ... : ... .. . P83 ...
ROW 44 : A#3 00 A P7C ... ... : G-4 00 A P83 ... ... : F#4 00 . ... : A-# 00 F ... : ... .. . ... ... : D-4 01 6 ... ... : D-5 01 6 ... ... : F#2 01 F ... ...
ROW 45 : ... .. . P82 ... ... : G#4 00 A P81 ... ... : ... .. . ... : ... .. C ... : ... .. . ... ... : ... .. . ... ... : ... .. . ... ... : ... .. D P82 ...
ROW 46 : ... .. . P80 ... ... : ... .. . P7F ... ... : ... .. . ... : ... .. 6 ... : ... .. . ... ... : ... .. 5 ... ... : ... .. 5 ... ... : ... .. 8 P80 ...
ROW 47 : A-3 00 A P84 ... ... : G-4 00 A P7D ... ... : ... .. . ... : ... .. 3 ... : ... .. . ... ... : ... .. 4 ... ... : ... .. 4 ... ... : ... .. . P7F ...
ROW 48 : ... .. . P7C ... ... : F#4 00 A ... ... ... : ... .. . ... : ... .. 2 ... : ... .. . ... ... : ... .. . ... ... : ... .. . ... ... : ... .. . P7D ...
ROW 49 : G#3 00 A P81 ... ... : F-4 00 A P7C ... ... : ... .. . ... : ... .. 0 ... : ... .. . ... ... : ... .. . ... ... : ... .. . ... ... : ... .. . ... ...
ROW 4A : ... .. . P7F ... ... : E-4 00 A P84 ... ... : ... .. . ... : E-# 00 8 ... : ... .. . ... ... : ... .. 6 ... ... : ... .. 6 ... ... : ... .. F P7F ...
ROW 4B : ... .. . P85 ... ... : F-4 00 A P80 ... ... : ... .. . ... : ... .. 6 ... : ... .. . ... ... : ... .. . ... ... : ... .. . ... ... : ... .. D P80 ...
ROW 4C : A-3 00 A P80 ... ... : F#4 00 A P81 ... ... : ... .. . ... : ... .. 3 ... : ... .. . ... ... : ... .. 5 ... ... : ... .. 5 ... ... : ... .. 8 P82 ...
ROW 4D : A#3 00 A P7B ... ... : G-4 00 A P82 ... ... : ... .. . ... : ... .. 1 ... : ... .. . ... ... : ... .. 4 ... ... : ... .. 4 ... ... : ... .. . P83 ...
ROW 4E : ... .. . P82 ... ... : G#4 00 A P81 ... ... : ... .. . ... : ... .. . ... : ... .. . ... ... : ... .. . ... ... : ... .. . ... ... : ... .. . ... ...
ROW 4F : ... .. . P80 ... ... : ... .. . P7F ... ... : ... .. . ... : ... .. 0 ... : ... .. . ... ... : ... .. . ... ... : ... .. . ... ... : ... .. . P80 ...
ROW 50 : C-4 00 F ... ... ... : F-4 00 F P81 ... ... : E-5 00 . ... : 9-# 00 D ... : === 00 . Z80 ... : G#4 01 9 ... V05 : C-4 01 9 ... V05 : F-3 01 F P7F ...
ROW 51 : ... .. E ... ... ... : ... .. E ... ... ... : F#4 00 . ... : ... .. B ... : ... .. . ... ... : ... .. 8 ... ... : ... .. 8 ... ... : ... .. D P7D ...
ROW 52 : ... .. D ... ... ... : ... .. D ... ... ... : B-3 00 . ... : ... .. . ... : ... .. . ... ... : ... .. . ... ... : ... .. . ... ... : ... .. 8 ... ...
ROW 53 : ... .. A ... ... ... : ... .. A ... ... ... : A#3 00 . ... : ... .. A ... : ... .. . ... ... : ... .. 7 ... ... : ... .. 7 ... ... : ... .. . P7E ...
ROW 54 : ... .. . ... ... ... : ... .. . ... ... ... : F-3 00 . ... : ... .. 8 ... : ... .. . ... ... : ... .. . ... ... : ... .. . ... ... : ... .. . P80 ...
ROW 55 : ... .. . ... ... ... : ... .. . ... ... ... : ... .. . ... : ... .. 7 ... : ... .. . ... ... : ... .. 6 ... ... : ... .. 6 ... ... : ... .. . P82 ...
ROW 56 : ... .. . ... ... ... : ... .. . ... ... ... : C-3 00 . ... : ... .. 8 ... : ... .. . ... ... : C-4 01 6 ... V03 : F-3 01 6 ... V03 : G#2 01 F P83 ...
ROW 57 : ... .. 2 ... ... ... : ... .. 2 ... ... ... : ... .. . ... : ... .. 6 ... : ... .. . ... ... : ... .. . ... ... : ... .. . ... ... : ... .. D ... ...
ROW 58 : ... .. . ... ... ... : ... .. . ... ... ... : ... .. . ... : ... .. 3 ... : ... .. . ... ... : ... .. 5 ... ... : ... .. 5 ... ... : ... .. 8 P81 ...
ROW 59 : ... .. . ... ... ... : ... .. . ... ... ... : ... .. . ... : ... .. 1 ... : ... .. . ... ... : ... .. 4 ... ... : ... .. 4 ... ... : ... .. . P7F ...
ROW 5A : ... .. 1 ... ... ... : ... .. 1 ... ... ... : ... .. . ... : ... .. . ... : ... .. . ... ... : ... .. . ... ... : ... .. . ... ... : ... .. . P7D ...
ROW 5B : ... .. . ... ... ... : ... .. . ... ... ... : ... .. . ... : ... .. 0 ... : ... .. . ... ... : ... .. . ... ... : ... .. . ... ... : ... .. . ... ...
ROW 5C : ... .. 8 ... ... ... : ... .. 8 ... ... ... : F-2 00 . ... : B-# 00 F ... : ... .. . ... ... : G#4 01 6 ... V05 : C-4 01 6 ... V05 : F-3 01 F P7E ...
ROW 5D : ... .. 7 ... ... ... : ... .. 7 ... ... ... : ... .. . ... : ... .. C ... : ... .. . ... ... : ... .. 5 ... ... : ... .. 5 ... ... : ... .. D P80 ...
ROW 5E : ... .. 6 ... ... ... : ... .. 6 ... ... ... : ... .. . ... : ... .. 6 ... : ... .. . ... ... : ... .. . ... ... : ... .. . ... ... : ... .. 8 P82 ...
ROW 5F : ... .. 5 ... ... ... : ... .. 5 ... ... ... : ... .. . ... : ... .. 3 ... : ... .. . ... ... : ... .. 4 ... ... : ... .. 4 ... ... : ... .. . P83 ...
ROW 60 : ... .. . ... ... ... : ... .. . ... ... ... : ... .. . ... : ... .. 2 ... : ... .. . ... ... : ... .. . ... ... : ... .. . ... ... : ... .. . ... ...
ROW 61 : ... .. . ... ... ... : ... .. . ... ... ... : ... .. . ... : ... .. 0 ... : ... .. . ... ... : ... .. . ... ... : ... .. . ... ... : ... .. . P81 ...
ROW 62 : ... .. . ... ... ... : ... .. . ... ... ... : E-2 00 . P86 : ... .. . ... : ... .. . ... ... : C-4 01 6 ... V03 : F-3 01 6 ... V03 : G#2 01 F P80 ...
ROW 63 : ... .. . ... ... ... : ... .. . ... ... ... : D#2 00 . P8E : ... .. . ... : ... .. . ... ... : ... .. . ... ... : ... .. . ... ... : ... .. D P7D ...
ROW 64 : ... .. . ... ... ... : ... .. . ... ... ... : ... .. . P6E : ... .. . ... : ... .. . ... ... : ... .. 5 ... ... : ... .. 5 ... ... : ... .. 8 ... ...
ROW 65 : ... .. . ... ... ... : ... .. . ... ... ... : D-2 00 . P79 : ... .. . ... : ... .. . ... ... : ... .. 4 ... ... : ... .. 4 ... ... : ... .. . P7E ...
ROW 66 : ... .. . ... ... ... : ... .. . ... ... ... : C#2 00 . P86 : ... .. . ... : ... .. . ... ... : ... .. . ... ... : ... .. . ... ... : ... .. . P80 ...
ROW 67 : ... .. . ... ... ... : ... .. . ... ... ... : C-2 00 . P96 : ... .. . ... : ... .. . ... ... : ... .. . ... ... : ... .. . ... ... : ... .. . P81 ...
ROW 68 : A#3 00 F ... ... ... : D#3 00 F ... ... ... : D-5 00 . P80 : 9-# 00 D ... : ... .. . ... ... : F#4 01 9 ... V05 : A#3 01 9 ... V05 : D#3 01 F P83 ...
ROW 69 : ... .. E ... ... ... : ... .. E ... ... ... : E-4 00 . ... : ... .. B ... : ... .. . ... ... : ... .. 8 ... ... : ... .. 8 ... ... : ... .. D ... ...
ROW 6A : ... .. D ... ... ... : ... .. D ... ... ... : A-3 00 . ... : ... .. . ... : ... .. . ... ... : ... .. . ... ... : ... .. . ... ... : ... .. 8 P81 ...
ROW 6B : ... .. A ... ... ... : ... .. A ... ... ... : G#3 00 . ... : ... .. A ... : ... .. . ... ... : ... .. 7 ... ... : ... .. 7 ... ... : ... .. . P80 ...
ROW 6C : ... .. . ... ... ... : ... .. . ... ... ... : D#3 00 . ... : ... .. 8 ... : ... .. . ... ... : ... .. . ... ... : ... .. . ... ... : ... .. . P7E ...
ROW 6D : ... .. . ... ... ... : ... .. . ... ... ... : ... .. . ... : ... .. 7 ... : ... .. . ... ... : ... .. 6 ... ... : ... .. 6 ... ... : ... .. . P7D ...
ROW 6E : ... .. . ... ... ... : ... .. . ... ... ... : B-2 00 . ... : ... .. 8 ... : ... .. . ... ... : A#3 01 6 ... V03 : D#3 01 6 ... V03 : F#2 01 F ... ...
ROW 6F : ... .. 2 ... ... ... : ... .. 2 ... ... ... : ... .. . ... : ... .. 6 ... : ... .. . ... ... : ... .. . ... ... : ... .. . ... ... : ... .. D P80 ...
ROW 70 : ... .. . ... ... ... : ... .. . ... ... ... : ... .. . ... : ... .. 3 ... : ... .. . ... ... : ... .. 5 ... ... : ... .. 5 ... ... : ... .. 8 P81 ...
ROW 71 : ... .. . ... ... ... : ... .. . ... ... ... : ... .. . ... : ... .. 1 ... : ... .. . ... ... : ... .. 4 ... ... : ... .. 4 ... ... : ... .. . P83 ...
ROW 72 : ... .. 1 ... ... ... : ... .. 1 ... ... ... : ... .. . ... : ... .. . ... : ... .. . ... ... : ... .. . ... ... : ... .. . ... ... : ... .. . ... ...
ROW 73 : ... .. . ... ... ... : ... .. . ... ... ... : ... .. . ... : ... .. 0 ... : ... .. . ... ... : ... .. . ... ... : ... .. . ... ... : ... .. . P82 ...
ROW 74 : ... .. 8 ... ... ... : ... .. 8 ... ... ... : D#2 00 . ... : B-# 00 F ... : ... .. . ... ... : F#4 01 6 ... V05 : A#3 01 6 ... V05 : D#3 01 F P80 ...
ROW 75 : ... .. 7 ... ... ... : ... .. 7 ... ... ... : ... .. . ... : ... .. C ... : ... .. . ... ... : ... .. 5 ... ... : ... .. 5 ... ... : ... .. D P7E ...
ROW 76 : ... .. 6 ... ... ... : ... .. 6 ... ... ... : ... .. . ... : ... .. 6 ... : ... .. . ... ... : ... .. . ... ... : ... .. . ... ... : ... .. 8 P7D ...
ROW 77 : ... .. 5 ... ... ... : ... .. 5 ... ... ... : ... .. . ... : ... .. 3 ... : ... .. . ... ... : ... .. 4 ... ... : ... .. 4 ... ... : ... .. . ... ...
ROW 78 : ... .. . ... ... ... : ... .. . ... ... ... : ... .. . ... : ... .. 2 ... : ... .. . ... ... : ... .. . ... ... : ... .. . ... ... : ... .. . P7F ...
ROW 79 : ... .. . ... ... ... : ... .. . ... ... ... : ... .. . ... : ... .. 0 ... : ... .. . ... ... : ... .. . ... ... : ... .. . ... ... : ... .. . P81 ...
ROW 7A : A-3 00 F ... ... ... : D-3 00 F ... ... ... : C#5 00 . ... : 9-# 00 D ... : ... .. . ... ... : F-4 01 9 ... ... : A-3 01 9 ... ... : D-3 01 F P83 ...
ROW 7B : ... .. E ... ... ... : ... .. E ... ... ... : D#4 00 . ... : ... .. B ... : ... .. . ... ... : ... .. 8 ... ... : ... .. 8 ... ... : ... .. D ... ...
ROW 7C : ... .. D ... ... ... : ... .. D ... ... ... : G#3 00 . ... : ... .. . ... : ... .. . ... ... : ... .. . ... ... : ... .. . ... ... : ... .. 8 P82 ...
ROW 7D : ... .. A ... ... ... : ... .. A ... ... ... : G-3 00 . ... : ... .. A ... : ... .. . ... ... : ... .. 7 ... ... : ... .. 7 ... ... : ... .. . P80 ...
ROW 7E : ... .. . ... ... ... : ... .. . ... ... ... : D-3 00 . ... : ... .. 8 ... : ... .. . ... ... : ... .. . ... ... : ... .. . ... ... : ... .. . P7E ...
ROW 7F : ... .. . ... ... ... : ... .. . ... ... ... : ... .. . ... : ... .. 7 ... : ... .. . ... ... : ... .. 6 ... ... : ... .. 6 ... ... : ... .. . P7D ...
ROW 80 : ... .. . ... ... ... : ... .. . ... ... ... : A-2 00 . ... : ... .. 8 ... : ... .. . ... ... : A-3 01 6 ... V03 : D-3 01 6 ... V03 : F-2 01 F ... ...
ROW 81 : ... .. 2 ... ... ... : ... .. 2 ... ... ... : ... .. . ... : ... .. 6 ... : ... .. . ... ... : ... .. . ... ... : ... .. . ... ... : ... .. D P7F ...
ROW 82 : ... .. . ... ... ... : ... .. . ... ... ... : ... .. . ... : ... .. 3 ... : ... .. . ... ... : ... .. 5 ... ... : ... .. 5 ... ... : ... .. 8 P80 ...
ROW 83 : ... .. . ... ... ... : ... .. . ... ... ... : ... .. . ... : ... .. 1 ... : ... .. . ... ... : ... .. 4 ... ... : ... .. 4 ... ... : ... .. . P83 ...
ROW 84 : ... .. 1 ... ... ... : ... .. 1 ... ... ... : ... .. . ... : ... .. . ... : ... .. . ... ... : ... .. . ... ... : ... .. . ... ... : ... .. . ... ...
ROW 85 : ... .. . ... ... ... : ... .. . ... ... ... : ... .. . ... : ... .. 0 ... : ... .. . ... ... : ... .. . ... ... : ... .. . ... ... : ... .. . P82 ...
ROW 86 : ... .. 8 ... ... ... : ... .. 8 ... ... ... : D-2 00 . ... : B-# 00 F ... : ... .. . ... ... : F-4 01 6 ... V05 : A-3 01 6 ... V05 : D-3 01 F P80 ...
ROW 87 : ... .. 7 ... ... ... : ... .. 7 ... ... ... : ... .. . ... : ... .. C ... : ... .. . ... ... : ... .. 5 ... ... : ... .. 5 ... ... : ... .. D P7F ...
ROW 88 : ... .. 6 ... ... ... : ... .. 6 ... ... ... : ... .. . ... : ... .. 6 ... : ... .. . ... ... : ... .. . ... ... : ... .. . ... ... : ... .. 8 P7D ...
ROW 89 : ... .. 5 ... ... ... : ... .. 5 ... ... ... : ... .. . ... : ... .. 3 ... : ... .. . ... ... : ... .. 4 ... ... : ... .. 4 ... ... : ... .. . ... ...
ROW 8A : ... .. . ... ... ... : ... .. . ... ... ... : ... .. . ... : ... .. 2 ... : ... .. . ... ... : ... .. . ... ... : ... .. . ... ... : ... .. . P7F ...
ROW 8B : ... .. . ... ... ... : ... .. . ... ... ... : ... .. . ... : ... .. 0 ... : ... .. . ... ... : ... .. . ... ... : ... .. . ... ... : ... .. . P80 ...
ROW 8C : ... .. F ... ... ... : ... .. F ... ... ... : C#5 00 . ... : 9-# 00 D ... : ... .. . ... ... : ... .. 9 ... ... : ... .. 9 ... ... : ... .. F P82 ...
ROW 8D : ... .. E ... ... ... : ... .. E ... ... ... : D#4 00 . ... : ... .. B ... : ... .. . ... ... : ... .. 8 ... ... : ... .. 8 ... ... : ... .. D P83 ...
ROW 8E : ... .. D ... ... ... : ... .. D ... ... ... : G#3 00 . ... : ... .. . ... : ... .. . ... ... : ... .. . ... ... : ... .. . ... ... : ... .. 8 ... ...
ROW 8F : ... .. A ... ... ... : ... .. A ... ... ... : G-3 00 . ... : ... .. A ... : ... .. . ... ... : ... .. 7 ... ... : ... .. 7 ... ... : ... .. . P80 ...
ROW 90 : ... .. . ... ... ... : ... .. . ... ... ... : D-3 00 . ... : ... .. 8 ... : ... .. . ... ... : ... .. . ... ... : ... .. . ... ... : ... .. . P7F ...
ROW 91 : ... .. . ... ... ... : ... .. . ... ... ... : ... .. . ... : ... .. 7 ... : ... .. . ... ... : ... .. 6 ... ... : ... .. 6 ... ... : ... .. . P7D ...
ROW 92 : ... .. . ... ... ... : ... .. . ... ... ... : A-2 00 . ... : ... .. 8 ... : ... .. . ... ... : A-3 01 6 ... V03 : D-3 01 6 ... V03 : F-2 01 F ... ...
ROW 93 : ... .. 2 ... ... ... : ... .. 2 ... ... ... : ... .. . ... : ... .. 6 ... : ... .. . ... ... : ... .. . ... ... : ... .. . ... ... : ... .. D P7E ...
ROW 94 : ... .. . ... ... ... : ... .. . ... ... ... : ... .. . ... : ... .. 3 ... : ... .. . ... ... : ... .. 5 ... ... : ... .. 5 ... ... : ... .. 8 P80 ...
ROW 95 : ... .. . ... ... ... : ... .. . ... ... ... : ... .. . ... : ... .. 1 ... : ... .. . ... ... : ... .. 4 ... ... : ... .. 4 ... ... : ... .. . P82 ...
ROW 96 : ... .. 1 ... ... ... : ... .. 1 ... ... ... : ... .. . ... : ... .. . ... : ... .. . ... ... : ... .. . ... ... : ... .. . ... ... : ... .. . P83 ...
ROW 97 : ... .. . ... ... ... : ... .. . ... ... ... : ... .. . ... : ... .. 0 ... : ... .. . ... ... : ... .. . ... ... : ... .. . ... ... : ... .. . ... ...
ROW 98 : C-1 00 F ... ... ... : C-2 00 F ... ... ... : B-3 00 . ... : ... .. D ... : ... .. . ... ... : ... .. A ... ... : ... .. 6 ... ... : A-2 01 F P81 ...
ROW 99 : ... .. E ... ... ... : ... .. E ... ... ... : C#3 00 . ... : ... .. B ... : ... .. . ... ... : ... .. 9 ... ... : ... .. . ... ... : ... .. D P7F ...
ROW 9A : ... .. D ... ... ... : ... .. D ... ... ... : F#2 00 . ... : ... .. . ... : ... .. . ... ... : ... .. 8 ... ... : ... .. 5 ... ... : ... .. 8 P7D ...
ROW 9B : ... .. A ... ... ... : ... .. A ... ... ... : F-2 00 . ... : ... .. A ... : ... .. . ... ... : ... .. 7 ... ... : ... .. 4 ... ... : ... .. . ... ...
ROW 9C : ... .. . ... ... ... : ... .. . ... ... ... : C-2 00 . ... : ... .. 8 ... : ... .. . ... ... : ... .. . ... ... : ... .. . ... ... : ... .. . P7E ...
ROW 9D : ... .. . ... ... ... : ... .. . ... ... ... : --- .. . ... : ... .. 7 ... : ... .. . ... ... : ... .. 6 ... ... : ... .. . ... ... : ... .. . P80 ...
ROW 9E : D-1 00 F ... ... ... : D-2 00 F ... ... ... : D-2 00 . ... : 7-# 00 8 ... : ... .. . ... ... : F-4 01 6 ... ... : A-3 01 6 ... ... : D-2 01 F P82 ...
ROW 9F : ... .. E ... ... ... : ... .. E ... ... ... : ... .. . ... : ... .. 6 ... : ... .. . ... ... : ... .. . ... ... : ... .. . ... ... : ... .. D P83 ...
ROW A0 : ... .. D ... ... ... : ... .. D ... ... ... : ... .. . ... : ... .. 3 ... : ... .. . ... ... : ... .. 5 ... ... : ... .. 5 ... ... : ... .. 8 ... ...
ROW A1 : ... .. A ... ... ... : ... .. A ... ... ... : ... .. . ... : ... .. 1 ... : ... .. . ... ... : ... .. 4 ... ... : ... .. 4 ... ... : ... .. . P81 ...
ROW A2 : ... .. . ... ... ... : ... .. . ... ... ... : ... .. . ... : ... .. . ... : ... .. . ... ... : ... .. . ... ... : ... .. . ... ... : ... .. . P80 ...
ROW A3 : ... .. . ... ... ... : ... .. . ... ... ... : --- .. . ... : ... .. 0 ... : ... .. . ... ... : ... .. . ... ... : ... .. . ... ... : ... .. . P7D ...
ROW A4 : C-2 00 F ... ... ... : C-3 00 F ... ... ... : C-3 00 . ... : A-# 00 F ... : ... .. . ... ... : A-3 01 6 ... V05 : D-3 01 6 ... V05 : A-2 01 F ... ...
ROW A5 : ... .. E ... ... ... : ... .. E ... ... ... : ... .. . ... : ... .. C ... : ... .. . ... ... : ... .. 5 ... ... : ... .. 5 ... ... : ... .. D P7E ...
ROW A6 : ... .. D ... ... ... : ... .. D ... ... ... : ... .. . ... : ... .. 6 ... : ... .. . ... ... : ... .. . ... ... : ... .. . ... ... : ... .. 8 P80 ...
ROW A7 : ... .. A ... ... ... : ... .. A ... ... ... : ... .. . ... : ... .. 3 ... : ... .. . ... ... : ... .. 4 ... ... : ... .. 4 ... ... : ... .. . P81 ...
ROW A8 : ... .. . ... ... ... : ... .. . ... ... ... : ... .. . ... : ... .. 2 ... : ... .. . ... ... : ... .. . ... ... : ... .. . ... ... : ... .. . P83 ...
ROW A9 : ... .. . ... ... ... : ... .. . ... ... ... : --- .. . ... : ... .. 0 ... : ... .. . ... ... : ... .. . ... ... : ... .. . ... ... : ... .. . ... ...
ROW AA : D-2 00 F ... ... ... : D-3 00 F ... ... ... : D-3 00 . ... : E-# 00 8 ... : ... .. . ... ... : F-4 01 6 ... V03 : A-3 01 6 ... V03 : D-2 01 F P81 ...
ROW AB : ... .. E ... ... ... : ... .. E ... ... ... : ... .. . ... : ... .. 6 ... : ... .. . ... ... : ... .. . ... ... : ... .. . ... ... : ... .. D P80 ...
ROW AC : ... .. D ... ... ... : ... .. D ... ... ... : ... .. . ... : ... .. 3 ... : ... .. . ... ... : ... .. 5 ... ... : ... .. 5 ... ... : ... .. 8 P7E ...
ROW AD : ... .. A ... ... ... : ... .. A ... ... ... : ... .. . ... : ... .. 1 ... : ... .. . ... ... : ... .. 4 ... ... : ... .. 4 ... ... : ... .. . P7D ...
ROW AE : ... .. . ... ... ... : ... .. . ... ... ... : ... .. . ... : ... .. . ... : ... .. . ... ... : ... .. . ... ... : ... .. . ... ... : ... .. . ... ...
ROW AF : ... .. . ... ... ... : ... .. . ... ... ... : --- .. . ... : ... .. 0 ... : ... .. . ... ... : ... .. . ... ... : ... .. . ... ... : ... .. . P80 ...
ROW B0 : D#2 00 F ... ... ... : D#3 00 F ... ... ... : C#4 00 . ... : 1-# 00 F ... : ... .. . ... ... : C#3 01 9 ... V05 : C#2 01 9 ... V05 : ... .. F P81 ...
ROW B1 : ... .. E ... ... ... : ... .. E ... ... ... : D#3 00 . ... : ... .. C ... : ... .. . ... ... : ... .. 8 ... ... : ... .. 8 ... ... : ... .. D P83 ...
ROW B2 : ... .. D ... ... ... : ... .. D ... ... ... : G#2 00 . ... : ... .. 6 ... : ... .. . ... ... : ... .. . ... ... : ... .. . ... ... : ... .. 8 ... ...
ROW B3 : ... .. A ... ... ... : ... .. A ... ... ... : G-2 00 . ... : ... .. 3 ... : ... .. . ... ... : ... .. 7 ... ... : ... .. 7 ... ... : ... .. . P82 ...
ROW B4 : ... .. . ... ... ... : ... .. . ... ... ... : D-2 00 . ... : ... .. 2 ... : ... .. . ... ... : ... .. . ... ... : ... .. . ... ... : ... .. . P80 ...
ROW B5 : ... .. . ... ... ... : ... .. . ... ... ... : --- .. . ... : ... .. 0 ... : ... .. . ... ... : ... .. 6 ... ... : ... .. 6 ... ... : ... .. . P7E ...
ROW B6 : D-2 00 F ... ... ... : D-3 00 F ... ... ... : D-2 00 . ... : 9-# 00 8 ... : ... .. . ... ... : D-3 01 A ... V03 : D-2 01 A ... V03 : ... .. . P7D ...
ROW B7 : ... .. E ... ... ... : ... .. E ... ... ... : ... .. . ... : ... .. 6 ... : ... .. . ... ... : ... .. 9 ... ... : ... .. 9 ... ... : ... .. . ... ...
ROW B8 : ... .. D ... ... ... : ... .. D ... ... ... : ... .. . ... : ... .. 3 ... : ... .. . ... ... : ... .. 8 ... ... : ... .. 8 ... ... : ... .. . P7F ...
ROW B9 : ... .. A ... ... ... : ... .. A ... ... ... : ... .. . ... : ... .. 1 ... : ... .. . ... ... : ... .. 7 ... ... : ... .. 7 ... ... : ... .. . P81 ...
ROW BA : ... .. . ... ... ... : ... .. . ... ... ... : ... .. . ... : ... .. . ... : ... .. . ... ... : ... .. . ... ... : ... .. . ... ... : ... .. . P83 ...
ROW BB : ... .. . ... ... ... : ... .. . ... ... ... : --- .. . ... : ... .. 0 ... : ... .. . ... ... : ... .. 6 ... ... : ... .. 6 ... ... : ... .. . ... ...
ROW BC : D-1 00 F ... ... ... : D-2 00 F ... ... ... : D#2 00 . ... : B-# 00 F ... : ... .. . ... ... : ... .. 9 ... V05 : ... .. 9 ... V05 : ... .. . P7A ...
ROW BD : ... .. E ... ... ... : ... .. E ... ... ... : ... .. . ... : ... .. C ... : ... .. . ... ... : ... .. 8 ... ... : ... .. 8 ... ... : ... .. . P70 ...
ROW BE : ... .. D ... ... ... : ... .. D ... ... ... : ... .. . ... : ... .. 6 ... : ... .. . ... ... : ... .. . ... ... : ... .. . ... ... : C#2 01 8 P99 ...
ROW BF : ... .. A ... ... ... : ... .. A ... ... ... : ... .. . ... : ... .. 3 ... : ... .. . ... ... : ... .. 7 ... ... : ... .. 7 ... ... : ... .. . P90 ...
ROW C0 : ... .. . ... ... ... : ... .. . ... ... ... : ... .. . ... : ... .. 2 ... : ... .. . ... ... : ... .. . ... ... : ... .. . ... ... : ... .. . P88 ...
ROW C1 : ... .. . ... ... ... : ... .. . ... ... ... : --- .. . ... : ... .. 0 ... : ... .. . ... ... : ... .. 6 ... ... : ... .. 6 ... ... : ... .. . P82 ...
ROW C2 : ... .. F ... ... ... : ... .. F ... ... ... : D#2 00 . ... : 9-# 00 8 ... : ... .. . ... ... : F-3 01 A ... V03 : F-2 01 A ... V03 : ... .. . P7B ...
ROW C3 : ... .. E ... ... ... : ... .. E ... ... ... : ... .. . ... : ... .. 6 ... : ... .. . ... ... : ... .. 9 ... ... : ... .. 9 ... ... : ... .. . P76 ...
ROW C4 : ... .. D ... ... ... : ... .. D ... ... ... : ... .. . ... : ... .. 3 ... : ... .. . ... ... : ... .. 8 ... ... : ... .. 8 ... ... : ... .. . P6E ...
ROW C5 : ... .. A ... ... ... : ... .. A ... ... ... : ... .. . ... : ... .. 1 ... : ... .. . ... ... : ... .. 7 ... ... : ... .. 7 ... ... : ... .. . P65 ...
ROW C6 : ... .. . ... ... ... : ... .. . ... ... ... : ... .. . ... : ... .. . ... : ... .. . ... ... : ... .. . ... ... : ... .. . ... ... : C-2 01 8 P92 ...
ROW C7 : ... .. . ... ... ... : ... .. . ... ... ... : --- .. . ... : ... .. 0 ... : ... .. . ... ... : ... .. 6 ... ... : ... .. 6 ... ... : ... .. . P89 ...
ROW C8 : C-1 00 F ... ... ... : C-2 00 F ... ... ... : B-3 00 . ... : ... .. D ... : ... .. . ... ... : ... .. 9 ... V05 : ... .. 9 ... V05 : ... .. . P7F ...
ROW C9 : ... .. E ... ... ... : ... .. E ... ... ... : C#3 00 . ... : ... .. B ... : ... .. . ... ... : ... .. 8 ... ... : ... .. 8 ... ... : ... .. . P77 ...
ROW CA : ... .. D ... ... ... : ... .. D ... ... ... : F#2 00 . ... : ... .. . ... : ... .. . ... ... : ... .. . ... ... : ... .. . ... ... : ... .. . P71 ...
ROW CB : ... .. A ... ... ... : ... .. A ... ... ... : F-2 00 . ... : ... .. A ... : ... .. . ... ... : ... .. 7 ... ... : ... .. 7 ... ... : ... .. . P6A ...
ROW CC : ... .. . ... ... ... : ... .. . ... ... ... : C-2 00 . ... : ... .. 8 ... : ... .. . ... ... : ... .. . ... ... : ... .. . ... ... : ... .. . P64 ...
ROW CD : ... .. . ... ... ... : ... .. . ... ... ... : --- .. . ... : ... .. 7 ... : ... .. . ... ... : ... .. 6 ... ... : ... .. 6 ... ... : B-1 01 8 P97 ...
ROW CE : D-1 00 F ... ... ... : D-2 00 F ... ... ... : C-2 00 . ... : 7-# 00 8 ... : ... .. . ... ... : G#3 01 A ... V03 : G#2 01 A ... V03 : ... .. . P8F ...
ROW CF : ... .. E ... ... ... : ... .. E ... ... ... : ... .. . ... : ... .. 6 ... : ... .. . ... ... : ... .. 9 ... ... : ... .. 9 ... ... : ... .. . P84 ...
ROW D0 : ... .. D ... ... ... : ... .. D ... ... ... : ... .. . ... : ... .. 3 ... : ... .. . ... ... : ... .. 8 ... ... : ... .. 8 ... ... : ... .. . P7B ...
ROW D1 : ... .. A ... ... ... : ... .. A ... ... ... : ... .. . ... : ... .. 1 ... : ... .. . ... ... : ... .. 7 ... ... : ... .. 7 ... ... : ... .. . P71 ...
ROW D2 : ... .. . ... ... ... : ... .. . ... ... ... : ... .. . ... : ... .. . ... : ... .. . ... ... : ... .. . ... ... : ... .. . ... ... : ... .. . P69 ...
ROW D3 : ... .. . ... ... ... : ... .. . ... ... ... : --- .. . ... : ... .. 0 ... : ... .. . ... ... : ... .. 6 ... ... : ... .. 6 ... ... : ... .. . P62 ...
ROW D4 : D#2 00 F ... ... ... : D#3 00 F ... ... ... : D-2 00 . ... : A-# 00 F ... : ... .. . ... ... : A-3 01 9 ... V05 : A-2 01 9 ... V05 : A#1 01 8 P9A ...
ROW D5 : ... .. E ... ... ... : ... .. E ... ... ... : ... .. . ... : ... .. C ... : ... .. . ... ... : ... .. 8 ... ... : ... .. 8 ... ... : ... .. . P94 ...
ROW D6 : ... .. D ... ... ... : ... .. D ... ... ... : ... .. . ... : ... .. 6 ... : ... .. . ... ... : ... .. . ... ... : ... .. . ... ... : ... .. . P8D ...
ROW D7 : ... .. A ... ... ... : ... .. A ... ... ... : ... .. . ... : ... .. 3 ... : ... .. . ... ... : ... .. 7 ... ... : ... .. 7 ... ... : ... .. . P85 ...
ROW D8 : ... .. . ... ... ... : ... .. . ... ... ... : ... .. . ... : ... .. 2 ... : ... .. . ... ... : ... .. . ... ... : ... .. . ... ... : ... .. . P7B ...
ROW D9 : ... .. . ... ... ... : ... .. . ... ... ... : --- .. . ... : ... .. 0 ... : ... .. . ... ... : ... .. 6 ... ... : ... .. 6 ... ... : ... .. . P71 ...
ROW DA : D-2 00 F ... ... ... : D-3 00 F ... ... ... : D-2 00 . ... : E-# 00 8 ... : ... .. . ... ... : C#4 01 A ... V03 : C#3 01 A ... V03 : ... .. . P67 ...
ROW DB : ... .. E ... ... ... : ... .. E ... ... ... : ... .. . ... : ... .. 6 ... : ... .. . ... ... : ... .. 9 ... ... : ... .. 9 ... ... : A-1 01 8 PA0 ...
ROW DC : ... .. D ... ... ... : ... .. D ... ... ... : ... .. . ... : ... .. 3 ... : ... .. . ... ... : ... .. 8 ... ... : ... .. 8 ... ... : ... .. . P99 ...
ROW DD : ... .. A ... ... ... : ... .. A ... ... ... : ... .. . ... : ... .. 1 ... : ... .. . ... ... : ... .. 7 ... ... : ... .. 7 ... ... : ... .. . P93 ...
ROW DE : ... .. . ... ... ... : ... .. . ... ... ... : ... .. . ... : ... .. . ... : ... .. . ... ... : ... .. . ... ... : ... .. . ... ... : ... .. . P8D ...
ROW DF : ... .. . ... ... ... : ... .. . ... ... ... : --- .. . ... : ... .. 0 ... : ... .. . ... ... : ... .. 6 ... ... : ... .. 6 ... ... : ... .. . P86 ...
ROW E0 : D-1 00 F ... ... ... : D-2 00 F ... ... ... : C#5 00 . ... : 1-# 00 F ... : ... .. . ... ... : D-4 01 9 ... V05 : D-3 01 9 ... V05 : ... .. . P7E ...
ROW E1 : ... .. E ... ... ... : ... .. E ... ... ... : D#4 00 . ... : ... .. C ... : ... .. . ... ... : ... .. 8 ... ... : ... .. 8 ... ... : ... .. . P74 ...
ROW E2 : ... .. D ... ... ... : ... .. D ... ... ... : G#3 00 . ... : ... .. 6 ... : ... .. . ... ... : ... .. . ... ... : ... .. . ... ... : ... .. . P6B ...
ROW E3 : ... .. A ... ... ... : ... .. A ... ... ... : G-3 00 . ... : ... .. 3 ... : ... .. . ... ... : ... .. 7 ... ... : ... .. 7 ... ... : ... .. . P60 ...
ROW E4 : ... .. . ... ... ... : ... .. . ... ... ... : D-3 00 . ... : ... .. 2 ... : ... .. . ... ... : ... .. . ... ... : ... .. . ... ... : G#1 01 8 P9D ...
ROW E5 : ... .. . ... ... ... : ... .. . ... ... ... : --- .. . ... : ... .. 0 ... : ... .. . ... ... : ... .. 6 ... ... : ... .. 6 ... ... : ... .. . P96 ...
ROW E6 : ... .. F ... ... ... : ... .. F ... ... ... : D-3 00 . ... : 9-# 00 8 ... : ... .. . ... ... : E-4 01 A ... V03 : E-3 01 A ... V03 : ... .. . P90 ...
ROW E7 : ... .. E ... ... ... : ... .. E ... ... ... : ... .. . ... : ... .. 6 ... : ... .. . ... ... : ... .. 9 ... ... : ... .. 9 ... ... : ... .. . P89 ...
ROW E8 : ... .. D ... ... ... : ... .. D ... ... ... : ... .. . ... : ... .. 3 ... : ... .. . ... ... : ... .. 8 ... ... : ... .. 8 ... ... : ... .. . P83 ...
ROW E9 : ... .. A ... ... ... : ... .. A ... ... ... : ... .. . ... : ... .. 1 ... : ... .. . ... ... : ... .. 7 ... ... : ... .. 7 ... ... : ... .. . P7B ...
ROW EA : ... .. . ... ... ... : ... .. . ... ... ... : ... .. . ... : ... .. . ... : ... .. . ... ... : ... .. . ... ... : ... .. . ... ... : ... .. . P71 ...
ROW EB : ... .. . ... ... ... : ... .. . ... ... ... : --- .. . ... : ... .. 0 ... : ... .. . ... ... : ... .. 6 ... ... : ... .. 6 ... ... : ... .. . P68 ...
ROW EC : C-1 00 F ... ... ... : C-2 00 F ... ... ... : D#3 00 . ... : 1-# 00 F ... : ... .. . ... ... : G-4 01 9 ... V05 : G-3 01 9 ... V05 : ... .. . P5E ...
ROW ED : ... .. E ... ... ... : ... .. E ... ... ... : ... .. . ... : ... .. C ... : ... .. . ... ... : ... .. 8 ... ... : ... .. 8 ... ... : G-1 01 8 P9F ...
ROW EE : ... .. D ... ... ... : ... .. D ... ... ... : ... .. . ... : ... .. 6 ... : ... .. . ... ... : ... .. . ... ... : ... .. . ... ... : ... .. . P97 ...
ROW EF : ... .. A ... ... ... : ... .. A ... ... ... : ... .. . ... : ... .. 3 ... : ... .. . ... ... : ... .. 7 ... ... : ... .. 7 ... ... : ... .. . P92 ...
ROW F0 : ... .. . ... ... ... : ... .. . ... ... ... : ... .. . ... : ... .. 2 ... : ... .. . ... ... : ... .. . ... ... : ... .. . ... ... : ... .. . P8B ...
ROW F1 : ... .. . ... ... ... : ... .. . ... ... ... : --- .. . ... : ... .. 0 ... : ... .. . ... ... : ... .. 6 ... ... : ... .. 6 ... ... : ... .. . P85 ...
ROW F2 : D-1 00 F ... ... ... : D-2 00 F ... ... ... : D#3 00 . ... : 9-# 00 8 ... : ... .. . ... ... : E-4 01 A ... V03 : E-3 01 A ... V03 : ... .. . P7D ...
ROW F3 : ... .. E ... ... ... : ... .. E ... ... ... : ... .. . ... : ... .. 6 ... : ... .. . ... ... : ... .. 9 ... ... : ... .. 9 ... ... : ... .. . P74 ...
ROW F4 : ... .. D ... ... ... : ... .. D ... ... ... : ... .. . ... : ... .. 3 ... : ... .. . ... ... : ... .. 8 ... ... : ... .. 8 ... ... : ... .. . P6A ...
ROW F5 : ... .. A ... ... ... : ... .. A ... ... ... : ... .. . ... : ... .. 1 ... : ... .. . ... ... : ... .. 7 ... ... : ... .. 7 ... ... : ... .. . P60 ...
ROW F6 : ... .. . ... ... ... : ... .. . ... ... ... : ... .. . ... : ... .. . ... : ... .. . ... ... : ... .. . ... ... : ... .. . ... ... : F#1 01 8 PA4 ...
ROW F7 : ... .. . ... ... ... : ... .. . ... ... ... : --- .. . ... : ... .. 0 ... : ... .. . ... ... : ... .. 6 ... ... : ... .. 6 ... ... : ... .. . P9C ...
ROW F8 : G#2 00 F ... ... ... : G#3 00 F ... ... ... : B-4 00 . ... : ... .. D ... : ... .. . ... ... : F-4 01 9 ... V05 : F-3 01 9 ... V05 : ... .. . P96 ...
ROW F9 : ... .. E ... ... ... : ... .. E ... ... ... : C#4 00 . ... : ... .. B ... : ... .. . ... ... : ... .. 8 ... ... : ... .. 8 ... ... : ... .. . P90 ...
ROW FA : ... .. D ... ... ... : ... .. D ... ... ... : F#3 00 . ... : ... .. . ... : ... .. . ... ... : ... .. . ... ... : ... .. . ... ... : ... .. . P8A ...
ROW FB : ... .. A ... ... ... : ... .. A ... ... ... : F-3 00 . ... : ... .. A ... : ... .. . ... ... : ... .. 7 ... ... : ... .. 7 ... ... : ... .. . P82 ...
ROW FC : ... .. . ... ... ... : ... .. . ... ... ... : C-3 00 . ... : ... .. 8 ... : ... .. . ... ... : ... .. . ... ... : ... .. . ... ... : ... .. . P79 ...
ROW FD : ... .. . ... ... ... : ... .. . ... ... ... : --- .. . ... : ... .. 7 ... : ... .. . ... ... : ... .. 6 ... ... : ... .. 6 ... ... : ... .. . P6F ...
ROW FE : ... .. F ... ... ... : ... .. F ... ... ... : C-3 00 . ... : 7-# 00 8 ... : ... .. . ... ... : G-4 01 A ... V03 : G-3 01 A ... V03 : ... .. . P65 ...
ROW FF : ... .. E ... ... ... : ... .. E ... ... ... : ... .. . ... : ... .. 6 ... : ... .. . ... ... : ... .. 9 ... ... : ... .. 9 ... ... : ... .. . P5C ...

PATTERN 0E
ROW 00 : ... .. D ... ... ... : ... .. D ... ... ... : ... .. . ... : ... .. 3 ... : ... .. . ... ... : ... .. 8 ... ... : ... .. 8 ... ... : F-1 01 8 PA6 ...
ROW 01 : ... .. A ... ... ... : ... .. A ... ... ... : ... .. . ... : ... .. 1 ... : ... .. . ... ... : ... .. 7 ... ... : ... .. 7 ... ... : ... .. . PA0 ...
ROW 02 : ... .. . ... ... ... : ... .. . ... ... ... : ... .. . ... : ... .. . ... : ... .. . ... ... : ... .. . ... ... : ... .. . ... ... : ... .. . P99 ...
ROW 03 : ... .. . ... ... ... : ... .. . ... ... ... : --- .. . ... : ... .. 0 ... : ... .. . ... ... : ... .. 6 ... ... : ... .. 6 ... ... : ... .. . P94 ...
ROW 04 : E-2 00 F ... ... ... : E-3 00 F ... ... ... : D-3 00 . ... : A-# 00 F ... : ... .. . ... ... : G#4 01 9 ... V05 : G#3 01 9 ... V05 : ... .. . P8C ...
ROW 05 : ... .. E ... ... ... : ... .. E ... ... ... : ... .. . ... : ... .. C ... : ... .. . ... ... : ... .. 8 ... ... : ... .. 8 ... ... : ... .. . P83 ...
ROW 06 : ... .. D ... ... ... : ... .. D ... ... ... : ... .. . ... : ... .. 6 ... : ... .. . ... ... : ... .. . ... ... : ... .. . ... ... : ... .. . P79 ...
ROW 07 : ... .. A ... ... ... : ... .. A ... ... ... : ... .. . ... : ... .. 3 ... : ... .. . ... ... : ... .. 7 ... ... : ... .. 7 ... ... : ... .. . P70 ...
ROW 08 : ... .. . ... ... ... : ... .. . ... ... ... : ... .. . ... : ... .. 2 ... : ... .. . ... ... : ... .. . ... ... : ... .. . ... ... : ... .. . P66 ...
ROW 09 : ... .. . ... ... ... : ... .. . ... ... ... : --- .. . ... : ... .. 0 ... : ... .. . ... ... : ... .. 6 ... ... : ... .. 6 ... ... : ... .. . P5E ...
ROW 0A : ... .. F ... ... ... : ... .. F ... ... ... : D-3 00 . ... : E-# 00 8 ... : ... .. . ... ... : C-5 01 A ... V03 : C-4 01 A ... V03 : ... .. . P58 ...
ROW 0B : ... .. E ... ... ... : ... .. E ... ... ... : ... .. . ... : ... .. 6 ... : ... .. . ... ... : ... .. 9 ... ... : ... .. 9 ... ... : E-1 01 8 PA8 ...
ROW 0C : ... .. D ... ... ... : ... .. D ... ... ... : ... .. . ... : ... .. 3 ... : ... .. . ... ... : ... .. 8 ... ... : ... .. 8 ... ... : ... .. . PA2 ...
ROW 0D : ... .. A ... ... ... : ... .. A ... ... ... : ... .. . ... : ... .. 1 ... : ... .. . ... ... : ... .. 7 ... ... : ... .. 7 ... ... : ... .. . P9B ...
ROW 0E : ... .. . ... ... ... : ... .. . ... ... ... : ... .. . ... : ... .. . ... : ... .. . ... ... : ... .. . ... ... : ... .. . ... ... : ... .. . P93 ...
ROW 0F : ... .. . ... ... ... : ... .. . ... ... ... : --- .. . ... : ... .. 0 ... : ... .. . ... ... : ... .. 6 ... ... : ... .. 6 ... ... : ... .. . P88 ...
ROW 10 : F-2 00 F ... ... ... : F-3 00 F ... ... ... : E-5 00 . ... : 9-# 00 D ... : ... .. . ... ... : G#5 01 9 ... V05 : C-5 01 9 ... V05 : F-3 01 F P7F ...
ROW 11 : ... .. E ... ... ... : ... .. E ... ... ... : F#4 00 . ... : ... .. B ... : ... .. . ... ... : ... .. 8 ... ... : ... .. 8 ... ... : ... .. D P7D ...
ROW 12 : ... .. D ... ... ... : ... .. D ... ... ... : B-3 00 . ... : ... .. . ... : ... .. . ... ... : ... .. . ... ... : ... .. . ... ... : ... .. 8 ... ...
ROW 13 : ... .. A ... ... ... : ... .. A ... ... ... : A#3 00 . ... : ... .. A ... : ... .. . ... ... : ... .. 7 ... ... : ... .. 7 ... ... : ... .. . P7E ...
ROW 14 : ... .. . ... ... ... : ... .. . ... ... ... : F-3 00 . ... : ... .. 8 ... : ... .. . ... ... : ... .. . ... ... : ... .. . ... ... : ... .. . P80 ...
ROW 15 : ... .. . ... ... ... : ... .. . ... ... ... : ... .. . ... : ... .. 7 ... : ... .. . ... ... : ... .. 6 ... ... : ... .. 6 ... ... : ... .. . P82 ...
ROW 16 : C-2 00 F ... ... ... : C-3 00 F ... ... ... : ... .. . ... : ... .. 8 ... : ... .. . ... ... : C-5 01 6 ... V03 : F-4 01 6 ... V03 : G#2 01 F P83 ...
ROW 17 : ... .. E ... ... ... : ... .. E ... ... ... : ... .. . ... : ... .. 6 ... : ... .. . ... ... : ... .. . ... ... : ... .. . ... ... : ... .. D ... ...
ROW 18 : ... .. D ... ... ... : ... .. D ... ... ... : ... .. . ... : ... .. 3 ... : ... .. . ... ... : ... .. 5 ... ... : ... .. 5 ... ... : ... .. 8 P81 ...
ROW 19 : ... .. A ... ... ... : ... .. A ... ... ... : ... .. . ... : ... .. 1 ... : ... .. . ... ... : ... .. 4 ... ... : ... .. 4 ... ... : ... .. . P7F ...
ROW 1A : ... .. . ... ... ... : ... .. . ... ... ... : ... .. . ... : ... .. . ... : ... .. . ... ... : ... .. . ... ... : ... .. . ... ... : ... .. . P7D ...
ROW 1B : ... .. . ... ... ... : ... .. . ... ... ... : ... .. . ... : ... .. 0 ... : ... .. . ... ... : ... .. . ... ... : ... .. . ... ... : ... .. . ... ...
ROW 1C : F-1 00 F ... ... ... : F-2 00 F ... ... ... : ... .. . ... : B-# 00 F ... : ... .. . ... ... : G#5 01 6 ... V05 : C-5 01 6 ... V05 : F-3 01 F P7E ...
ROW 1D : ... .. E ... ... ... : ... .. E ... ... ... : ... .. . ... : ... .. C ... : ... .. . ... ... : ... .. 5 ... ... : ... .. 5 ... ... : ... .. D P80 ...
ROW 1E : ... .. D ... ... ... : ... .. D ... ... ... : ... .. . ... : ... .. 6 ... : ... .. . ... ... : ... .. . ... ... : ... .. . ... ... : ... .. 8 P82 ...
ROW 1F : ... .. A ... ... ... : ... .. A ... ... ... : ... .. . ... : ... .. 3 ... : ... .. . ... ... : ... .. 4 ... ... : ... .. 4 ... ... : ... .. . P83 ...
ROW 20 : ... .. . ... ... ... : ... .. . ... ... ... : ... .. . ... : ... .. 2 ... : ... .. . ... ... : ... .. . ... ... : ... .. . ... ... : ... .. . ... ...
ROW 21 : ... .. . ... ... ... : ... .. . ... ... ... : ... .. . ... : ... .. 0 ... : ... .. . ... ... : ... .. . ... ... : ... .. . ... ... : ... .. . P81 ...
ROW 22 : ... .. . P60 ... ... : E-2 00 A P87 ... ... : D#3 00 . P88 : 9-# 00 8 ... : ... .. . ... ... : C-5 01 6 ... V03 : F-4 01 6 ... V03 : G#2 01 F P80 ...
ROW 23 : E-1 00 A P8C ... ... : D#2 00 A P8F ... ... : D-3 00 . P7D : ... .. 6 ... : ... .. . ... ... : ... .. . ... ... : ... .. . ... ... : ... .. D P7D ...
ROW 24 : ... .. . P6C ... ... : ... .. . P6F ... ... : C-3 00 . P8C : ... .. 3 ... : ... .. . ... ... : ... .. 5 ... ... : ... .. 5 ... ... : ... .. 8 ... ...
ROW 25 : D#1 00 A P9D ... ... : D-2 00 A P7A ... ... : B-2 00 . P85 : ... .. 1 ... : ... .. . ... ... : ... .. 4 ... ... : ... .. 4 ... ... : ... .. . P7E ...
ROW 26 : ... .. . P7D ... ... : C#2 00 A P87 ... ... : A#2 00 . P80 : ... .. . ... : ... .. . ... ... : ... .. . ... ... : ... .. . ... ... : ... .. . P80 ...
ROW 27 : ... .. . P5D ... ... : C-2 00 A P97 ... ... : A-2 00 . P7C : ... .. 0 ... : ... .. . ... ... : ... .. . ... ... : ... .. . ... ... : ... .. . P81 ...
ROW 28 : D#2 00 F P80 ... ... : D#3 00 F P81 ... ... : D-5 00 . P80 : ... .. D ... : ... .. . ... ... : F#5 01 9 ... V05 : A#4 01 9 ... V05 : D#3 01 F P83 ...
ROW 29 : ... .. E ... ... ... : ... .. E ... ... ... : E-4 00 . ... : ... .. B ... : ... .. . ... ... : ... .. 8 ... ... : ... .. 8 ... ... : ... .. D ... ...
ROW 2A : ... .. D ... ... ... : ... .. D ... ... ... : A-3 00 . ... : ... .. . ... : ... .. . ... ... : ... .. . ... ... : ... .. . ... ... : ... .. 8 P81 ...
ROW 2B : ... .. A ... ... ... : ... .. A ... ... ... : G#3 00 . ... : ... .. A ... : ... .. . ... ... : ... .. 7 ... ... : ... .. 7 ... ... : ... .. . P80 ...
ROW 2C : ... .. . ... ... ... : ... .. . ... ... ... : D#3 00 . ... : ... .. 8 ... : ... .. . ... ... : ... .. . ... ... : ... .. . ... ... : ... .. . P7E ...
ROW 2D : ... .. . ... ... ... : ... .. . ... ... ... : ... .. . ... : ... .. 7 ... : ... .. . ... ... : ... .. 6 ... ... : ... .. 6 ... ... : ... .. . P7D ...
ROW 2E : B-1 00 F ... ... ... : B-2 00 F ... ... ... : B-2 00 . ... : ... .. 8 ... : ... .. . ... ... : A#4 01 6 ... V03 : D#4 01 6 ... V03 : F#2 01 F ... ...
ROW 2F : ... .. E ... ... ... : ... .. E ... ... ... : ... .. . ... : ... .. 6 ... : ... .. . ... ... : ... .. . ... ... : ... .. . ... ... : ... .. D P80 ...
ROW 30 : ... .. D ... ... ... : ... .. D ... ... ... : ... .. . ... : ... .. 3 ... : ... .. . ... ... : ... .. 5 ... ... : ... .. 5 ... ... : ... .. 8 P81 ...
ROW 31 : ... .. A ... ... ... : ... .. A ... ... ... : ... .. . ... : ... .. 1 ... : ... .. . ... ... : ... .. 4 ... ... : ... .. 4 ... ... : ... .. . P83 ...
ROW 32 : ... .. . ... ... ... : ... .. . ... ... ... : ... .. . ... : ... .. . ... : ... .. . ... ... : ... .. . ... ... : ... .. . ... ... : ... .. . ... ...
ROW 33 : ... .. . ... ... ... : ... .. . ... ... ... : ... .. . ... : ... .. 0 ... : ... .. . ... ... : ... .. . ... ... : ... .. . ... ... : ... .. . P82 ...
ROW 34 : D#1 00 F ... ... ... : D#2 00 F ... ... ... : D#2 00 . ... : B-# 00 F ... : ... .. . ... ... : F#5 01 6 ... V05 : A#4 01 6 ... V05 : D#3 01 F P80 ...
ROW 35 : ... .. E ... ... ... : ... .. E ... ... ... : ... .. . ... : ... .. C ... : ... .. . ... ... : ... .. 5 ... ... : ... .. 5 ... ... : ... .. D P7E ...
ROW 36 : ... .. D ... ... ... : ... .. D ... ... ... : ... .. . ... : ... .. 6 ... : ... .. . ... ... : ... .. . ... ... : ... .. . ... ... : ... .. 8 P7D ...
ROW 37 : ... .. A ... ... ... : ... .. A ... ... ... : ... .. . ... : ... .. 3 ... : ... .. . ... ... : ... .. 4 ... ... : ... .. 4 ... ... : ... .. . ... ...
ROW 38 : ... .. . ... ... ... : ... .. . ... ... ... : ... .. . ... : ... .. 2 ... : ... .. . ... ... : ... .. . ... ... : ... .. . ... ... : ... .. . P7F ...
ROW 39 : ... .. . ... ... ... : ... .. . ... ... ... : ... .. . ... : ... .. 0 ... : ... .. . ... ... : ... .. . ... ... : ... .. . ... ... : ... .. . P81 ...
ROW 3A : D-2 00 F ... ... ... : D-3 00 F ... ... ... : C#5 00 . ... : 9-# 00 D ... : ... .. . ... ... : F-5 01 9 ... ... : A-4 01 9 ... ... : D-3 01 F P83 ...
ROW 3B : ... .. E ... ... ... : ... .. E ... ... ... : D#4 00 . ... : ... .. B ... : ... .. . ... ... : ... .. 8 ... ... : ... .. 8 ... ... : ... .. D ... ...
ROW 3C : ... .. D ... ... ... : ... .. D ... ... ... : G#3 00 . ... : ... .. . ... : ... .. . ... ... : ... .. . ... ... : ... .. . ... ... : ... .. 8 P82 ...
ROW 3D : ... .. A ... ... ... : ... .. A ... ... ... : G-3 00 . ... : ... .. A ... : ... .. . ... ... : ... .. 7 ... ... : ... .. 7 ... ... : ... .. . P80 ...
ROW 3E : ... .. . ... ... ... : ... .. . ... ... ... : D-3 00 . ... : ... .. 8 ... : ... .. . ... ... : ... .. . ... ... : ... .. . ... ... : ... .. . P7E ...
ROW 3F : ... .. . ... ... ... : ... .. . ... ... ... : ... .. . ... : ... .. 7 ... : ... .. . ... ... : ... .. 6 ... ... : ... .. 6 ... ... : ... .. . P7D ...
ROW 40 : A-1 00 F ... ... ... : A-2 00 F ... ... ... : A-2 00 . ... : ... .. 8 ... : ... .. . ... ... : A-4 01 6 ... V03 : D-4 01 6 ... V03 : F-2 01 F ... ...
ROW 41 : ... .. E ... ... ... : ... .. E ... ... ... : ... .. . ... : ... .. 6 ... : ... .. . ... ... : ... .. . ... ... : ... .. . ... ... : ... .. D P7F ...
ROW 42 : ... .. D ... ... ... : ... .. D ... ... ... : ... .. . ... : ... .. 3 ... : ... .. . ... ... : ... .. 5 ... ... : ... .. 5 ... ... : ... .. 8 P80 ...
ROW 43 : ... .. A ... ... ... : ... .. A ... ... ... : ... .. . ... : ... .. 1 ... : ... .. . ... ... : ... .. 4 ... ... : ... .. 4 ... ... : ... .. . P83 ...
ROW 44 : ... .. . ... ... ... : ... .. . ... ... ... : ... .. . ... : ... .. . ... : ... .. . ... ... : ... .. . ... ... : ... .. . ... ... : ... .. . ... ...
ROW 45 : ... .. . ... ... ... : ... .. . ... ... ... : ... .. . ... : ... .. 0 ... : ... .. . ... ... : ... .. . ... ... : ... .. . ... ... : ... .. . P82 ...
ROW 46 : D-1 00 F ... ... ... : D-2 00 F ... ... ... : D-2 00 . ... : B-# 00 F ... : ... .. . ... ... : F-5 01 6 ... V05 : A-4 01 6 ... V05 : D-3 01 F P80 ...
ROW 47 : ... .. E ... ... ... : ... .. E ... ... ... : ... .. . ... : ... .. C ... : ... .. . ... ... : ... .. 5 ... ... : ... .. 5 ... ... : ... .. D P7F ...
ROW 48 : ... .. D ... ... ... : ... .. D ... ... ... : ... .. . ... : ... .. 6 ... : ... .. . ... ... : ... .. . ... ... : ... .. . ... ... : ... .. 8 P7D ...
ROW 49 : ... .. A ... ... ... : ... .. A ... ... ... : ... .. . ... : ... .. 3 ... : ... .. . ... ... : ... .. 4 ... ... : ... .. 4 ... ... : ... .. . ... ...
ROW 4A : ... .. . ... ... ... : ... .. . ... ... ... : ... .. . ... : ... .. 2 ... : ... .. . ... ... : ... .. . ... ... : ... .. . ... ... : ... .. . P7F ...
ROW 4B : ... .. . ... ... ... : ... .. . ... ... ... : ... .. . ... : ... .. 0 ... : ... .. . ... ... : ... .. . ... ... : ... .. . ... ... : ... .. . P80 ...
ROW 4C : ... .. . ... ... ... : ... .. . ... ... ... : ... .. . ... : 9-# 00 8 ... : ... .. . ... ... : A-4 01 6 ... V03 : D-4 01 6 ... V03 : F-2 01 F P82 ...
ROW 4D : ... .. . ... ... ... : ... .. . ... ... ... : ... .. . ... : ... .. 6 ... : ... .. . ... ... : ... .. . ... ... : ... .. . ... ... : ... .. D P83 ...
ROW 4E : ... .. . ... ... ... : ... .. . ... ... ... : ... .. . ... : ... .. 3 ... : ... .. . ... ... : ... .. 5 ... ... : ... .. 5 ... ... : ... .. 8 ... ...
ROW 4F : ... .. . ... ... ... : ... .. . ... ... ... : ... .. . ... : ... .. 1 ... : ... .. . ... ... : ... .. 4 ... ... : ... .. 4 ... ... : ... .. . P80 ...
ROW 50 : ... .. . ... ... ... : ... .. . ... ... ... : ... .. . ... : ... .. . ... : ... .. . ... ... : ... .. . ... ... : ... .. . ... ... : ... .. . P7F ...
ROW 51 : ... .. . ... ... ... : ... .. . ... ... ... : ... .. . ... : ... .. 0 ... : ... .. . ... ... : ... .. . ... ... : ... .. . ... ... : ... .. . P7D ...
ROW 52 : ... .. . P60 ... ... : C#2 00 A P8E ... ... : C#2 00 . P8D : ... .. 8 ... : ... .. . ... ... : F-5 01 6 ... V05 : A-4 01 6 ... V05 : D-2 01 F ... ...
ROW 53 : C#1 00 A P9A ... ... : ... .. . P6E ... ... : ... .. . P6D : ... .. 6 ... : ... .. . ... ... : ... .. 5 ... ... : ... .. 5 ... ... : ... .. D P7E ...
ROW 54 : ... .. . P7A ... ... : C-2 00 A P7E ... ... : C-2 00 . P7D : ... .. 3 ... : ... .. . ... ... : ... .. . ... ... : ... .. . ... ... : ... .. 8 P80 ...
ROW 55 : ... .. . P5A ... ... : B-1 00 A P91 ... ... : B-1 00 . P90 : ... .. 1 ... : ... .. . ... ... : ... .. 4 ... ... : ... .. 4 ... ... : ... .. . P82 ...
ROW 56 : C-1 00 A P9A ... ... : ... .. . P71 ... ... : ... .. . P70 : ... .. . ... : ... .. . ... ... : ... .. . ... ... : ... .. . ... ... : ... .. . P83 ...
ROW 57 : ... .. . P7A ... ... : A#1 00 A P87 ... ... : A#1 00 . P86 : ... .. 0 ... : ... .. . ... ... : ... .. . ... ... : ... .. . ... ... : ... .. . ... ...
ROW 58 : ... .. F P80 ... ... : C-2 00 F P81 ... ... : B-3 00 . P80 : ... .. D ... : ... .. . ... ... : A-3 01 9 ... ... : D-3 01 6 ... ... : A-2 01 F P81 ...
ROW 59 : ... .. E ... ... ... : ... .. E ... ... ... : C#3 00 . ... : ... .. B ... : ... .. . ... ... : ... .. 8 ... ... : ... .. 5 ... ... : ... .. D P7F ...
ROW 5A : ... .. D ... ... ... : ... .. D ... ... ... : F#2 00 . ... : ... .. . ... : ... .. . ... ... : ... .. . ... ... : ... .. . ... ... : ... .. 8 P7D ...
ROW 5B : ... .. A ... ... ... : ... .. A ... ... ... : F-2 00 . ... : ... .. A ... : ... .. . ... ... : ... .. 7 ... ... : ... .. 4 ... ... : ... .. . ... ...
ROW 5C : ... .. . ... ... ... : ... .. . ... ... ... : C-2 00 . ... : ... .. 8 ... : ... .. . ... ... : ... .. . ... ... : ... .. . ... ... : ... .. . P7E ...
ROW 5D : ... .. . ... ... ... : ... .. . ... ... ... : ... .. . ... : ... .. 7 ... : ... .. . ... ... : ... .. 6 ... ... : ... .. . ... ... : ... .. . P80 ...
ROW 5E : D-1 00 F ... ... ... : D-2 00 F ... ... ... : D-2 00 . ... : 7-# 00 8 ... : ... .. . ... ... : F-4 01 6 ... V03 : A-3 01 6 ... V03 : D-2 01 F P82 ...
ROW 5F : ... .. E ... ... ... : ... .. E ... ... ... : ... .. . ... : ... .. 6 ... : ... .. . ... ... : ... .. . ... ... : ... .. . ... ... : ... .. D P83 ...
ROW 60 : ... .. D ... ... ... : ... .. D ... ... ... : ... .. . ... : ... .. 3 ... : ... .. . ... ... : ... .. 5 ... ... : ... .. 5 ... ... : ... .. 8 ... ...
ROW 61 : ... .. A ... ... ... : ... .. A ... ... ... : ... .. . ... : ... .. 1 ... : ... .. . ... ... : ... .. 4 ... ... : ... .. 4 ... ... : ... .. . P81 ...
ROW 62 : ... .. . ... ... ... : ... .. . ... ... ... : ... .. . ... : ... .. . ... : ... .. . ... ... : ... .. . ... ... : ... .. . ... ... : ... .. . P80 ...
ROW 63 : ... .. . ... ... ... : ... .. . ... ... ... : ... .. . ... : ... .. 0 ... : ... .. . ... ... : ... .. . ... ... : ... .. . ... ... : ... .. . P7D ...
ROW 64 : C-2 00 F ... ... ... : C-3 00 F ... ... ... : C-3 00 . ... : A-# 00 F ... : ... .. . ... ... : A-3 01 6 ... V05 : D-3 01 6 ... V05 : A-2 01 F ... ...
ROW 65 : ... .. E ... ... ... : ... .. E ... ... ... : ... .. . ... : ... .. C ... : ... .. . ... ... : ... .. 5 ... ... : ... .. 5 ... ... : ... .. D P7E ...
ROW 66 : ... .. D ... ... ... : ... .. D ... ... ... : ... .. . ... : ... .. 6 ... : ... .. . ... ... : ... .. . ... ... : ... .. . ... ... : ... .. 8 P80 ...
ROW 67 : ... .. A ... ... ... : ... .. A ... ... ... : ... .. . ... : ... .. 3 ... : ... .. . ... ... : ... .. 4 ... ... : ... .. 4 ... ... : ... .. . P81 ...
ROW 68 : ... .. . ... ... ... : ... .. . ... ... ... : ... .. . ... : ... .. 2 ... : ... .. . ... ... : ... .. . ... ... : ... .. . ... ... : ... .. . P83 ...
ROW 69 : ... .. . ... ... ... : ... .. . ... ... ... : ... .. . ... : ... .. 0 ... : ... .. . ... ... : ... .. . ... ... : ... .. . ... ... : ... .. . ... ...
ROW 6A : D-2 00 F ... ... ... : D-3 00 F ... ... ... : D-3 00 . ... : E-# 00 8 ... : ... .. . ... ... : F-4 01 6 ... V03 : A-3 01 6 ... V03 : D-2 01 F P81 ...
ROW 6B : ... .. E ... ... ... : ... .. E ... ... ... : ... .. . ... : ... .. 6 ... : ... .. . ... ... : ... .. . ... ... : ... .. . ... ... : ... .. D P80 ...
ROW 6C : ... .. D ... ... ... : ... .. D ... ... ... : ... .. . ... : ... .. 3 ... : ... .. . ... ... : ... .. 5 ... ... : ... .. 5 ... ... : ... .. 8 P7E ...
ROW 6D : ... .. A ... ... ... : ... .. A ... ... ... : ... .. . ... : ... .. 1 ... : ... .. . ... ... : ... .. 4 ... ... : ... .. 4 ... ... : ... .. . P7D ...
ROW 6E : ... .. . ... ... ... : ... .. . ... ... ... : ... .. . ... : ... .. . ... : ... .. . ... ... : ... .. . ... ... : ... .. . ... ... : ... .. . ... ...
ROW 6F : ... .. . ... ... ... : ... .. . ... ... ... : ... .. . ... : ... .. 0 ... : ... .. . ... ... : ... .. . ... ... : ... .. . ... ... : ... .. . P80 ...
ROW 70 : C-2 00 F ... ... ... : C-3 00 F ... ... ... : B-4 00 . ... : 1-# 00 F ... : ... .. . ... ... : B-4 01 6 ... V05 : B-5 01 6 ... V05 : D-3 01 F P81 ...
ROW 71 : ... .. E ... ... ... : ... .. E ... ... ... : C#4 00 . ... : ... .. C ... : ... .. . ... ... : ... .. 5 ... ... : ... .. 5 ... ... : ... .. D P83 ...
ROW 72 : ... .. D ... ... ... : ... .. D ... ... ... : F#3 00 . ... : ... .. 6 ... : ... .. . ... ... : ... .. . ... ... : ... .. . ... ... : ... .. 8 ... ...
ROW 73 : ... .. A ... ... ... : ... .. A ... ... ... : F-3 00 . ... : ... .. 3 ... : ... .. . ... ... : ... .. 4 ... ... : ... .. 4 ... ... : ... .. . P82 ...
ROW 74 : ... .. . ... ... ... : ... .. . ... ... ... : C-3 00 . ... : ... .. 2 ... : ... .. . ... ... : ... .. . ... ... : ... .. . ... ... : ... .. . P80 ...
ROW 75 : ... .. . ... ... ... : ... .. . ... ... ... : ... .. . ... : ... .. 0 ... : ... .. . ... ... : ... .. . ... ... : ... .. . ... ... : ... .. . P7E ...
ROW 76 : B-1 00 F ... ... ... : B-2 00 F ... ... ... : B-2 00 . ... : 9-# 00 8 ... : ... .. . ... ... : C-5 01 6 ... V03 : C-6 01 6 ... V03 : ... .. . P7D ...
ROW 77 : ... .. E ... ... ... : ... .. E ... ... ... : ... .. . ... : ... .. 6 ... : ... .. . ... ... : ... .. . ... ... : ... .. . ... ... : ... .. . ... ...
ROW 78 : ... .. D ... ... ... : ... .. D ... ... ... : ... .. . ... : ... .. 3 ... : ... .. . ... ... : ... .. 5 ... ... : ... .. 5 ... ... : ... .. . P7F ...
ROW 79 : ... .. A ... ... ... : ... .. A ... ... ... : ... .. . ... : ... .. 1 ... : ... .. . ... ... : ... .. 4 ... ... : ... .. 4 ... ... : ... .. . P81 ...
ROW 7A : ... .. . ... ... ... : ... .. . ... ... ... : ... .. . ... : ... .. . ... : ... .. . ... ... : ... .. . ... ... : ... .. . ... ... : ... .. . P83 ...
ROW 7B : ... .. . ... ... ... : ... .. . ... ... ... : ... .. . ... : ... .. 0 ... : ... .. . ... ... : ... .. . ... ... : ... .. . ... ... : ... .. . ... ...
ROW 7C : B-0 00 F ... ... ... : B-1 00 F ... ... ... : B-1 00 . ... : B-# 00 F ... : ... .. . ... ... : B-4 01 6 ... V05 : B-5 01 6 ... V05 : ... .. . P7A ...
ROW 7D : ... .. E ... ... ... : ... .. E ... ... ... : ... .. . ... : ... .. C ... : ... .. . ... ... : ... .. 5 ... ... : ... .. 5 ... ... : C#3 01 8 P8A ...
ROW 7E : ... .. D ... ... ... : ... .. D ... ... ... : ... .. . ... : ... .. 6 ... : ... .. . ... ... : ... .. . ... ... : ... .. . ... ... : ... .. . P80 ...
ROW 7F : ... .. A ... ... ... : ... .. A ... ... ... : ... .. . ... : ... .. 3 ... : ... .. . ... ... : ... .. 4 ... ... : ... .. 4 ... ... : ... .. . P77 ...
ROW 80 : ... .. . ... ... ... : ... .. . ... ... ... : ... .. . ... : ... .. 2 ... : ... .. . ... ... : ... .. . ... ... : ... .. . ... ... : C-3 01 8 P8B ...
ROW 81 : ... .. . ... ... ... : ... .. . ... ... ... : ... .. . ... : ... .. 0 ... : ... .. . ... ... : ... .. . ... ... : ... .. . ... ... : ... .. . P85 ...
ROW 82 : ... .. F ... ... ... : ... .. F ... ... ... : ... .. . ... : 9-# 00 8 ... : ... .. . ... ... : F-4 01 6 ... V03 : F-5 01 6 ... V03 : ... .. . P7E ...
ROW 83 : ... .. E ... ... ... : ... .. E ... ... ... : ... .. . ... : ... .. 6 ... : ... .. . ... ... : ... .. . ... ... : ... .. . ... ... : ... .. . P79 ...
ROW 84 : ... .. D ... ... ... : ... .. D ... ... ... : ... .. . ... : ... .. 3 ... : ... .. . ... ... : ... .. 5 ... ... : ... .. 5 ... ... : B-2 01 8 P8E ...
ROW 85 : ... .. A ... ... ... : ... .. A ... ... ... : ... .. . ... : ... .. 1 ... : ... .. . ... ... : ... .. 4 ... ... : ... .. 4 ... ... : ... .. . P85 ...
ROW 86 : ... .. . ... ... ... : ... .. . ... ... ... : ... .. . ... : ... .. . ... : ... .. . ... ... : ... .. . ... ... : ... .. . ... ... : ... .. . P7B ...
ROW 87 : ... .. . ... ... ... : ... .. . ... ... ... : ... .. . ... : ... .. 0 ... : ... .. . ... ... : ... .. . ... ... : ... .. . ... ... : ... .. . P72 ...
ROW 88 : A-0 00 F ... ... ... : A-1 00 F ... ... ... : G#3 00 . ... : ... .. D ... : ... .. . ... ... : B-3 01 6 ... V05 : B-4 01 6 ... V05 : A#2 01 8 P86 ...
ROW 89 : ... .. E ... ... ... : ... .. E ... ... ... : A#2 00 . ... : ... .. B ... : ... .. . ... ... : ... .. 5 ... ... : ... .. 5 ... ... : ... .. . P7E ...
ROW 8A : ... .. D ... ... ... : ... .. D ... ... ... : D#2 00 . ... : ... .. . ... : ... .. . ... ... : ... .. . ... ... : ... .. . ... ... : ... .. . P78 ...
ROW 8B : ... .. A ... ... ... : ... .. A ... ... ... : D-2 00 . ... : ... .. A ... : ... .. . ... ... : ... .. 4 ... ... : ... .. 4 ... ... : ... .. . P71 ...
ROW 8C : ... .. . ... ... ... : ... .. . ... ... ... : A-1 00 . ... : ... .. 8 ... : ... .. . ... ... : ... .. . ... ... : ... .. . ... ... : A-2 01 8 P8C ...
ROW 8D : ... .. . ... ... ... : ... .. . ... ... ... : ... .. . ... : ... .. 7 ... : ... .. . ... ... : ... .. . ... ... : ... .. . ... ... : ... .. . P85 ...
ROW 8E : B-0 00 F ... ... ... : B-1 00 F ... ... ... : B-1 00 . ... : 7-# 00 8 ... : ... .. . ... ... : A-3 01 6 ... V03 : A-4 01 6 ... V03 : ... .. . P7D ...
ROW 8F : ... .. E ... ... ... : ... .. E ... ... ... : ... .. . ... : ... .. 6 ... : ... .. . ... ... : ... .. . ... ... : ... .. . ... ... : ... .. . P72 ...
ROW 90 : ... .. D ... ... ... : ... .. D ... ... ... : ... .. . ... : ... .. 3 ... : ... .. . ... ... : ... .. 5 ... ... : ... .. 5 ... ... : G#2 01 8 P8C ...
ROW 91 : ... .. A ... ... ... : ... .. A ... ... ... : ... .. . ... : ... .. 1 ... : ... .. . ... ... : ... .. 4 ... ... : ... .. 4 ... ... : ... .. . P82 ...
ROW 92 : ... .. . ... ... ... : ... .. . ... ... ... : ... .. . ... : ... .. . ... : ... .. . ... ... : ... .. . ... ... : ... .. . ... ... : ... .. . P7A ...
ROW 93 : ... .. . ... ... ... : ... .. . ... ... ... : ... .. . ... : ... .. 0 ... : ... .. . ... ... : ... .. . ... ... : ... .. . ... ... : ... .. . P73 ...
ROW 94 : C-2 00 F ... ... ... : C-3 00 F ... ... ... : C-3 00 . ... : A-# 00 F ... : ... .. . ... ... : F-3 01 6 ... V05 : F-4 01 6 ... V05 : G-2 01 8 P91 ...
ROW 95 : ... .. E ... ... ... : ... .. E ... ... ... : ... .. . ... : ... .. C ... : ... .. . ... ... : ... .. 5 ... ... : ... .. 5 ... ... : ... .. . P8B ...
ROW 96 : ... .. D ... ... ... : ... .. D ... ... ... : ... .. . ... : ... .. 6 ... : ... .. . ... ... : ... .. . ... ... : ... .. . ... ... : ... .. . P84 ...
ROW 97 : ... .. A ... ... ... : ... .. A ... ... ... : ... .. . ... : ... .. 3 ... : ... .. . ... ... : ... .. 4 ... ... : ... .. 4 ... ... : ... .. . P7C ...
ROW 98 : ... .. . ... ... ... : ... .. . ... ... ... : ... .. . ... : ... .. 2 ... : ... .. . ... ... : ... .. . ... ... : ... .. . ... ... : ... .. . P72 ...
ROW 99 : ... .. . ... ... ... : ... .. . ... ... ... : ... .. . ... : ... .. 0 ... : ... .. . ... ... : ... .. . ... ... : ... .. . ... ... : F#2 01 8 P8F ...
ROW 9A : B-1 00 F ... ... ... : B-2 00 F ... ... ... : B-2 00 . ... : E-# 00 8 ... : ... .. . ... ... : D#3 01 6 ... V03 : D#4 01 6 ... V03 : ... .. . P85 ...
ROW 9B : ... .. E ... ... ... : ... .. E ... ... ... : ... .. . ... : ... .. 6 ... : ... .. . ... ... : ... .. . ... ... : ... .. . ... ... : ... .. . P7D ...
ROW 9C : ... .. D ... ... ... : ... .. D ... ... ... : ... .. . ... : ... .. 3 ... : ... .. . ... ... : ... .. 5 ... ... : ... .. 5 ... ... : ... .. . P76 ...
ROW 9D : ... .. A ... ... ... : ... .. A ... ... ... : ... .. . ... : ... .. 1 ... : ... .. . ... ... : ... .. 4 ... ... : ... .. 4 ... ... : ... .. . P70 ...
ROW 9E : ... .. . ... ... ... : ... .. . ... ... ... : ... .. . ... : ... .. . ... : ... .. . ... ... : ... .. . ... ... : ... .. . ... ... : F-2 01 8 P93 ...
ROW 9F : ... .. . ... ... ... : ... .. . ... ... ... : ... .. . ... : ... .. 0 ... : ... .. . ... ... : ... .. . ... ... : ... .. . ... ... : ... .. . P8C ...
ROW A0 : B-0 00 F ... ... ... : B-1 00 F ... ... ... : A#3 00 . ... : 1-# 00 F ... : ... .. . ... ... : A#2 01 6 ... V05 : A#3 01 6 ... V05 : ... .. . P84 ...
ROW A1 : ... .. E ... ... ... : ... .. E ... ... ... : C-3 00 . ... : ... .. C ... : ... .. . ... ... : ... .. 5 ... ... : ... .. 5 ... ... : ... .. . P7A ...
ROW A2 : ... .. D ... ... ... : ... .. D ... ... ... : F-2 00 . ... : ... .. 6 ... : ... .. . ... ... : ... .. . ... ... : ... .. . ... ... : ... .. . P71 ...
ROW A3 : ... .. A ... ... ... : ... .. A ... ... ... : E-2 00 . ... : ... .. 3 ... : ... .. . ... ... : ... .. 4 ... ... : ... .. 4 ... ... : E-2 01 8 P92 ...
ROW A4 : ... .. . ... ... ... : ... .. . ... ... ... : B-1 00 . ... : ... .. 2 ... : ... .. . ... ... : ... .. . ... ... : ... .. . ... ... : ... .. . P8A ...
ROW A5 : ... .. . ... ... ... : ... .. . ... ... ... : ... .. . ... : ... .. 0 ... : ... .. . ... ... : ... .. . ... ... : ... .. . ... ... : ... .. . P83 ...
ROW A6 : ... .. F ... ... ... : ... .. F ... ... ... : ... .. . ... : 9-# 00 8 ... : ... .. . ... ... : B-2 01 6 ... V03 : B-3 01 6 ... V03 : ... .. . P7D ...
ROW A7 : ... .. E ... ... ... : ... .. E ... ... ... : ... .. . ... : ... .. 6 ... : ... .. . ... ... : ... .. . ... ... : ... .. . ... ... : ... .. . P76 ...
ROW A8 : ... .. D ... ... ... : ... .. D ... ... ... : ... .. . ... : ... .. 3 ... : ... .. . ... ... : ... .. 5 ... ... : ... .. 5 ... ... : ... .. . P70 ...
ROW A9 : ... .. A ... ... ... : ... .. A ... ... ... : ... .. . ... : ... .. 1 ... : ... .. . ... ... : ... .. 4 ... ... : ... .. 4 ... ... : D#2 01 8 P96 ...
ROW AA : ... .. . ... ... ... : ... .. . ... ... ... : ... .. . ... : ... .. . ... : ... .. . ... ... : ... .. . ... ... : ... .. . ... ... : ... .. . P8C ...
ROW AB : ... .. . ... ... ... : ... .. . ... ... ... : ... .. . ... : ... .. 0 ... : ... .. . ... ... : ... .. . ... ... : ... .. . ... ... : ... .. . P83 ...
ROW AC : A-0 00 F ... ... ... : A-1 00 F ... ... ... : A-1 00 . ... : 1-# 00 F ... : ... .. . ... ... : E-3 01 6 ... V05 : E-4 01 6 ... V05 : ... .. . P79 ...
ROW AD : ... .. E ... ... ... : ... .. E ... ... ... : ... .. . ... : ... .. C ... : ... .. . ... ... : ... .. 5 ... ... : ... .. 5 ... ... : ... .. . P70 ...
ROW AE : ... .. D ... ... ... : ... .. D ... ... ... : ... .. . ... : ... .. 6 ... : ... .. . ... ... : ... .. . ... ... : ... .. . ... ... : ... .. . P68 ...
ROW AF : ... .. A ... ... ... : ... .. A ... ... ... : ... .. . ... : ... .. 3 ... : ... .. . ... ... : ... .. 4 ... ... : ... .. 4 ... ... : D-2 01 8 P94 ...
ROW B0 : ... .. . ... ... ... : ... .. . ... ... ... : ... .. . ... : ... .. 2 ... : ... .. . ... ... : ... .. . ... ... : ... .. . ... ... : ... .. . P8D ...
ROW B1 : ... .. . ... ... ... : ... .. . ... ... ... : ... .. . ... : ... .. 0 ... : ... .. . ... ... : ... .. . ... ... : ... .. . ... ... : ... .. . P87 ...
ROW B2 : B-0 00 F ... ... ... : B-1 00 F ... ... ... : B-1 00 . ... : 9-# 00 8 ... : ... .. . ... ... : F-3 01 6 ... V03 : F-4 01 6 ... V03 : ... .. . P7F ...
ROW B3 : ... .. E ... ... ... : ... .. E ... ... ... : ... .. . ... : ... .. 6 ... : ... .. . ... ... : ... .. . ... ... : ... .. . ... ... : ... .. . P76 ...
ROW B4 : ... .. D ... ... ... : ... .. D ... ... ... : ... .. . ... : ... .. 3 ... : ... .. . ... ... : ... .. 5 ... ... : ... .. 5 ... ... : ... .. . P6C ...
ROW B5 : ... .. A ... ... ... : ... .. A ... ... ... : ... .. . ... : ... .. 1 ... : ... .. . ... ... : ... .. 4 ... ... : ... .. 4 ... ... : C#2 01 8 P95 ...
ROW B6 : ... .. . ... ... ... : ... .. . ... ... ... : ... .. . ... : ... .. . ... : ... .. . ... ... : ... .. . ... ... : ... .. . ... ... : ... .. . P8C ...
ROW B7 : ... .. . ... ... ... : ... .. . ... ... ... : ... .. . ... : ... .. 0 ... : ... .. . ... ... : ... .. . ... ... : ... .. . ... ... : ... .. . P84 ...
ROW B8 : G#2 00 F ... ... ... : G#3 00 F ... ... ... : G-5 00 . ... : ... .. D ... : ... .. . ... ... : B-3 01 6 ... V05 : B-4 01 6 ... V05 : ... .. . P7E ...
ROW B9 : ... .. E ... ... ... : ... .. E ... ... ... : A-4 00 . ... : ... .. B ... : ... .. . ... ... : ... .. 5 ... ... : ... .. 5 ... ... : ... .. . P78 ...
ROW BA : ... .. D ... ... ... : ... .. D ... ... ... : D-4 00 . ... : ... .. . ... : ... .. . ... ... : ... .. . ... ... : ... .. . ... ... : ... .. . P72 ...
ROW BB : ... .. A ... ... ... : ... .. A ... ... ... : C#4 00 . ... : ... .. A ... : ... .. . ... ... : ... .. 4 ... ... : ... .. 4 ... ... : ... .. . P6A ...
ROW BC : ... .. . ... ... ... : ... .. . ... ... ... : G#3 00 . ... : ... .. 8 ... : ... .. . ... ... : ... .. . ... ... : ... .. . ... ... : C-2 01 8 P98 ...
ROW BD : ... .. . ... ... ... : ... .. . ... ... ... : ... .. . ... : ... .. 7 ... : ... .. . ... ... : ... .. . ... ... : ... .. . ... ... : ... .. . P8E ...
ROW BE : ... .. F ... ... ... : ... .. F ... ... ... : ... .. . ... : 7-# 00 8 ... : ... .. . ... ... : C-4 01 6 ... V03 : C-5 01 6 ... V03 : ... .. . P84 ...
ROW BF : ... .. E ... ... ... : ... .. E ... ... ... : ... .. . ... : ... .. 6 ... : ... .. . ... ... : ... .. . ... ... : ... .. . ... ... : ... .. . P7B ...
ROW C0 : ... .. D ... ... ... : ... .. D ... ... ... : ... .. . ... : ... .. 3 ... : ... .. . ... ... : ... .. 5 ... ... : ... .. 5 ... ... : ... .. . P73 ...
ROW C1 : ... .. A ... ... ... : ... .. A ... ... ... : ... .. . ... : ... .. 1 ... : ... .. . ... ... : ... .. 4 ... ... : ... .. 4 ... ... : ... .. . P6D ...
ROW C2 : ... .. . ... ... ... : ... .. . ... ... ... : ... .. . ... : ... .. . ... : ... .. . ... ... : ... .. . ... ... : ... .. . ... ... : ... .. . P66 ...
ROW C3 : ... .. . ... ... ... : ... .. . ... ... ... : ... .. . ... : ... .. 0 ... : ... .. . ... ... : ... .. . ... ... : ... .. . ... ... : B-1 01 8 P9B ...
ROW C4 : B-2 00 F ... ... ... : B-3 00 F ... ... ... : B-3 00 . ... : A-# 00 F ... : ... .. . ... ... : E-4 01 6 ... V05 : E-5 01 6 ... V05 : ... .. . P93 ...
ROW C5 : ... .. E ... ... ... : ... .. E ... ... ... : ... .. . ... : ... .. C ... : ... .. . ... ... : ... .. 5 ... ... : ... .. 5 ... ... : ... .. . P8A ...
ROW C6 : ... .. D ... ... ... : ... .. D ... ... ... : ... .. . ... : ... .. 6 ... : ... .. . ... ... : ... .. . ... ... : ... .. . ... ... : ... .. . P80 ...
ROW C7 : ... .. A ... ... ... : ... .. A ... ... ... : ... .. . ... : ... .. 3 ... : ... .. . ... ... : ... .. 4 ... ... : ... .. 4 ... ... : ... .. . P77 ...
ROW C8 : ... .. . ... ... ... : ... .. . ... ... ... : ... .. . ... : ... .. 2 ... : ... .. . ... ... : ... .. . ... ... : ... .. . ... ... : ... .. . P6D ...
ROW C9 : ... .. . ... ... ... : ... .. . ... ... ... : ... .. . ... : ... .. 0 ... : ... .. . ... ... : ... .. . ... ... : ... .. . ... ... : ... .. . P65 ...
ROW CA : ... .. F ... ... ... : ... .. F ... ... ... : ... .. . ... : E-# 00 8 ... : ... .. . ... ... : F-4 01 6 ... V03 : F-5 01 6 ... V03 : A#1 01 8 P9D ...
ROW CB : ... .. E ... ... ... : ... .. E ... ... ... : ... .. . ... : ... .. 6 ... : ... .. . ... ... : ... .. . ... ... : ... .. . ... ... : ... .. . P96 ...
ROW CC : ... .. D ... ... ... : ... .. D ... ... ... : ... .. . ... : ... .. 3 ... : ... .. . ... ... : ... .. 5 ... ... : ... .. 5 ... ... : ... .. . P90 ...
ROW CD : ... .. A ... ... ... : ... .. A ... ... ... : ... .. . ... : ... .. 1 ... : ... .. . ... ... : ... .. 4 ... ... : ... .. 4 ... ... : ... .. . P89 ...
ROW CE : ... .. . ... ... ... : ... .. . ... ... ... : ... .. . ... : ... .. . ... : ... .. . ... ... : ... .. . ... ... : ... .. . ... ... : ... .. . P81 ...
ROW CF : ... .. . ... ... ... : ... .. . ... ... ... : ... .. . ... : ... .. 0 ... : ... .. . ... ... : ... .. . ... ... : ... .. . ... ... : ... .. . P76 ...
ROW D0 : C-3 00 F ... ... ... : C-4 00 F ... ... ... : B-5 00 . ... : 9-# 00 D ... : ... .. . ... ... : D#5 01 9 ... V05 : G-4 01 9 ... V05 : C-4 01 F P7F ...
ROW D1 : ... .. E ... ... ... : ... .. E ... ... ... : C#5 00 . ... : ... .. B ... : ... .. . ... ... : ... .. 8 ... ... : ... .. 8 ... ... : ... .. D P7D ...
ROW D2 : ... .. D ... ... ... : ... .. D ... ... ... : F#4 00 . ... : ... .. . ... : ... .. . ... ... : ... .. . ... ... : ... .. . ... ... : ... .. 8 ... ...
ROW D3 : ... .. A ... ... ... : ... .. A ... ... ... : F-4 00 . ... : ... .. A ... : ... .. . ... ... : ... .. 7 ... ... : ... .. 7 ... ... : ... .. . P7E ...
ROW D4 : ... .. . ... ... ... : ... .. . ... ... ... : C-4 00 . ... : ... .. 8 ... : ... .. . ... ... : ... .. . ... ... : ... .. . ... ... : ... .. . P80 ...
ROW D5 : ... .. . ... ... ... : ... .. . ... ... ... : ... .. . ... : ... .. 7 ... : ... .. . ... ... : ... .. 6 ... ... : ... .. 6 ... ... : ... .. . P82 ...
ROW D6 : G-2 00 F ... ... ... : G-3 00 F ... ... ... : G-3 00 . ... : ... .. 8 ... : ... .. . ... ... : G-4 01 6 ... V03 : C-4 01 6 ... V03 : D#3 01 F P83 ...
ROW D7 : ... .. E ... ... ... : ... .. E ... ... ... : ... .. . ... : ... .. 6 ... : ... .. . ... ... : ... .. . ... ... : ... .. . ... ... : ... .. D ... ...
ROW D8 : ... .. D ... ... ... : ... .. D ... ... ... : ... .. . ... : ... .. 3 ... : ... .. . ... ... : ... .. 5 ... ... : ... .. 5 ... ... : ... .. 8 P81 ...
ROW D9 : ... .. A ... ... ... : ... .. A ... ... ... : ... .. . ... : ... .. 1 ... : ... .. . ... ... : ... .. 4 ... ... : ... .. 4 ... ... : ... .. . P7F ...
ROW DA : ... .. . ... ... ... : ... .. . ... ... ... : ... .. . ... : ... .. . ... : ... .. . ... ... : ... .. . ... ... : ... .. . ... ... : ... .. . P7D ...
ROW DB : ... .. . ... ... ... : ... .. . ... ... ... : ... .. . ... : ... .. 0 ... : ... .. . ... ... : ... .. . ... ... : ... .. . ... ... : ... .. . ... ...
ROW DC : C-2 00 F ... ... ... : C-3 00 F ... ... ... : C-3 00 . ... : B-# 00 F ... : ... .. . ... ... : D#5 01 6 ... V05 : G-4 01 6 ... V05 : C-4 01 F P7E ...
ROW DD : ... .. E ... ... ... : ... .. E ... ... ... : ... .. . ... : ... .. C ... : ... .. . ... ... : ... .. 5 ... ... : ... .. 5 ... ... : ... .. D P80 ...
ROW DE : ... .. D ... ... ... : ... .. D ... ... ... : ... .. . ... : ... .. 6 ... : ... .. . ... ... : ... .. . ... ... : ... .. . ... ... : ... .. 8 P82 ...
ROW DF : ... .. A ... ... ... : ... .. A ... ... ... : ... .. . ... : ... .. 3 ... : ... .. . ... ... : ... .. 4 ... ... : ... .. 4 ... ... : ... .. . P83 ...
ROW E0 : ... .. . ... ... ... : ... .. . ... ... ... : ... .. . ... : ... .. 2 ... : ... .. . ... ... : ... .. . ... ... : ... .. . ... ... : ... .. . ... ...
ROW E1 : ... .. . ... ... ... : ... .. . ... ... ... : ... .. . ... : ... .. 0 ... : ... .. . ... ... : ... .. . ... ... : ... .. . ... ... : ... .. . P81 ...
ROW E2 : B-1 00 A P93 ... ... : B-2 00 A P7A ... ... : B-2 00 . P79 : 9-# 00 8 ... : ... .. . ... ... : G-4 01 6 ... V03 : C-4 01 6 ... V03 : D#3 01 F P80 ...
ROW E3 : ... .. . P73 ... ... : A#2 00 A P75 ... ... : A#2 00 . P74 : ... .. 6 ... : ... .. . ... ... : ... .. . ... ... : ... .. . ... ... : ... .. D P7D ...
ROW E4 : A#1 00 A P89 ... ... : A-2 00 A P71 ... ... : G#2 00 . P8F : ... .. 3 ... : ... .. . ... ... : ... .. 5 ... ... : ... .. 5 ... ... : ... .. 8 ... ...
ROW E5 : ... .. . P69 ... ... : G-2 00 A P90 ... ... : G-2 00 . ... : ... .. 1 ... : ... .. . ... ... : ... .. 4 ... ... : ... .. 4 ... ... : ... .. . P7E ...
ROW E6 : A-1 00 A P82 ... ... : ... .. . P70 ... ... : F#2 00 . P91 : ... .. . ... : ... .. . ... ... : ... .. . ... ... : ... .. . ... ... : ... .. . P80 ...
ROW E7 : G#1 00 A P9E ... ... : F#2 00 A P72 ... ... : ... .. . P71 : ... .. 0 ... : ... .. . ... ... : ... .. . ... ... : ... .. . ... ... : ... .. . P81 ...
ROW E8 : A#2 00 F P80 ... ... : A#3 00 F P81 ... ... : A-5 00 . P80 : ... .. D ... : ... .. . ... ... : C#5 01 9 ... V05 : F-4 01 9 ... V05 : A#3 01 F P83 ...
ROW E9 : ... .. E ... ... ... : ... .. E ... ... ... : B-4 00 . ... : ... .. B ... : ... .. . ... ... : ... .. 8 ... ... : ... .. 8 ... ... : ... .. D ... ...
ROW EA : ... .. D ... ... ... : ... .. D ... ... ... : E-4 00 . ... : ... .. . ... : ... .. . ... ... : ... .. . ... ... : ... .. . ... ... : ... .. 8 P81 ...
ROW EB : ... .. A ... ... ... : ... .. A ... ... ... : D#4 00 . ... : ... .. A ... : ... .. . ... ... : ... .. 7 ... ... : ... .. 7 ... ... : ... .. . P80 ...
ROW EC : ... .. . ... ... ... : ... .. . ... ... ... : A#3 00 . ... : ... .. 8 ... : ... .. . ... ... : ... .. . ... ... : ... .. . ... ... : ... .. . P7E ...
ROW ED : ... .. . ... ... ... : ... .. . ... ... ... : ... .. . ... : ... .. 7 ... : ... .. . ... ... : ... .. 6 ... ... : ... .. 6 ... ... : ... .. . P7D ...
ROW EE : F#2 00 F ... ... ... : F#3 00 F ... ... ... : F#3 00 . ... : ... .. 8 ... : ... .. . ... ... : F-4 01 6 ... V03 : A#3 01 6 ... V03 : C#3 01 F ... ...
ROW EF : ... .. E ... ... ... : ... .. E ... ... ... : ... .. . ... : ... .. 6 ... : ... .. . ... ... : ... .. . ... ... : ... .. . ... ... : ... .. D P80 ...
ROW F0 : ... .. D ... ... ... : ... .. D ... ... ... : ... .. . ... : ... .. 3 ... : ... .. . ... ... : ... .. 5 ... ... : ... .. 5 ... ... : ... .. 8 P81 ...
ROW F1 : ... .. A ... ... ... : ... .. A ... ... ... : ... .. . ... : ... .. 1 ... : ... .. . ... ... : ... .. 4 ... ... : ... .. 4 ... ... : ... .. . P83 ...
ROW F2 : ... .. . ... ... ... : ... .. . ... ... ... : ... .. . ... : ... .. . ... : ... .. . ... ... : ... .. . ... ... : ... .. . ... ... : ... .. . ... ...
ROW F3 : ... .. . ... ... ... : ... .. . ... ... ... : ... .. . ... : ... .. 0 ... : ... .. . ... ... : ... .. . ... ... : ... .. . ... ... : ... .. . P82 ...
ROW F4 : A#1 00 F ... ... ... : A#2 00 F ... ... ... : A#2 00 . ... : B-# 00 F ... : ... .. . ... ... : C#5 01 6 ... V05 : F-4 01 6 ... V05 : A#3 01 F P80 ...
ROW F5 : ... .. E ... ... ... : ... .. E ... ... ... : ... .. . ... : ... .. C ... : ... .. . ... ... : ... .. 5 ... ... : ... .. 5 ... ... : ... .. D P7E ...
ROW F6 : ... .. D ... ... ... : ... .. D ... ... ... : ... .. . ... : ... .. 6 ... : ... .. . ... ... : ... .. . ... ... : ... .. . ... ... : ... .. 8 P7D ...
ROW F7 : ... .. A ... ... ... : ... .. A ... ... ... : ... .. . ... : ... .. 3 ... : ... .. . ... ... : ... .. 4 ... ... : ... .. 4 ... ... : ... .. . ... ...
ROW F8 : ... .. . ... ... ... : ... .. . ... ... ... : ... .. . ... : ... .. 2 ... : ... .. . ... ... : ... .. . ... ... : ... .. . ... ... : ... .. . P7F ...
ROW F9 : ... .. . ... ... ... : ... .. . ... ... ... : ... .. . ... : ... .. 0 ... : ... .. . ... ... : ... .. . ... ... : ... .. . ... ... : ... .. . P81 ...
ROW FA : A-2 00 F ... ... ... : A-3 00 F ... ... ... : G#5 00 . ... : 9-# 00 D ... : ... .. . ... ... : C-5 01 9 ... ... : E-4 01 9 ... ... : A-3 01 F P83 ...
ROW FB : ... .. E ... ... ... : ... .. E ... ... ... : A#4 00 . ... : ... .. B ... : ... .. . ... ... : ... .. 8 ... ... : ... .. 8 ... ... : ... .. D ... ...
ROW FC : ... .. D ... ... ... : ... .. D ... ... ... : D#4 00 . ... : ... .. . ... : ... .. . ... ... : ... .. . ... ... : ... .. . ... ... : ... .. 8 P82 ...
ROW FD : ... .. A ... ... ... : ... .. A ... ... ... : D-4 00 . ... : ... .. A ... : ... .. . ... ... : ... .. 7 ... ... : ... .. 7 ... ... : ... .. . P80 ...
ROW FE : ... .. . ... ... ... : ... .. . ... ... ... : A-3 00 . ... : ... .. 8 ... : ... .. . ... ... : ... .. . ... ... : ... .. . ... ... : ... .. . P7E ...
ROW FF : ... .. . ... ... ... : ... .. . ... ... ... : ... .. . ... : ... .. 7 ... : ... .. . ... ... : ... .. 6 ... ... : ... .. 6 ... ... : ... .. . P7D ...

PATTERN 0F
ROW 00 : E-2 00 F ... ... ... : E-3 00 F ... ... ... : E-3 00 . ... : ... .. 8 ... : ... .. . ... ... : E-4 01 6 ... V03 : A-3 01 6 ... V03 : C-3 01 F ... ...
ROW 01 : ... .. E ... ... ... : ... .. E ... ... ... : ... .. . ... : ... .. 6 ... : ... .. . ... ... : ... .. . ... ... : ... .. . ... ... : ... .. D P7F ...
ROW 02 : ... .. D ... ... ... : ... .. D ... ... ... : ... .. . ... : ... .. 3 ... : ... .. . ... ... : ... .. 5 ... ... : ... .. 5 ... ... : ... .. 8 P80 ...
ROW 03 : ... .. A ... ... ... : ... .. A ... ... ... : ... .. . ... : ... .. 1 ... : ... .. . ... ... : ... .. 4 ... ... : ... .. 4 ... ... : ... .. . P83 ...
ROW 04 : ... .. . ... ... ... : ... .. . ... ... ... : ... .. . ... : ... .. . ... : ... .. . ... ... : ... .. . ... ... : ... .. . ... ... : ... .. . ... ...
ROW 05 : ... .. . ... ... ... : ... .. . ... ... ... : ... .. . ... : ... .. 0 ... : ... .. . ... ... : ... .. . ... ... : ... .. . ... ... : ... .. . P82 ...
ROW 06 : A-1 00 F ... ... ... : A-2 00 F ... ... ... : A-2 00 . ... : B-# 00 F ... : ... .. . ... ... : C-5 01 6 ... V05 : E-4 01 6 ... V05 : A-3 01 F P80 ...
ROW 07 : ... .. E ... ... ... : ... .. E ... ... ... : ... .. . ... : ... .. C ... : ... .. . ... ... : ... .. 5 ... ... : ... .. 5 ... ... : ... .. D P7F ...
ROW 08 : ... .. D ... ... ... : ... .. D ... ... ... : ... .. . ... : ... .. 6 ... : ... .. . ... ... : ... .. . ... ... : ... .. . ... ... : ... .. 8 P7D ...
ROW 09 : ... .. A ... ... ... : ... .. A ... ... ... : ... .. . ... : ... .. 3 ... : ... .. . ... ... : ... .. 4 ... ... : ... .. 4 ... ... : ... .. . ... ...
ROW 0A : ... .. . ... ... ... : ... .. . ... ... ... : ... .. . ... : ... .. 2 ... : ... .. . ... ... : ... .. . ... ... : ... .. . ... ... : ... .. . P7F ...
ROW 0B : ... .. . ... ... ... : ... .. . ... ... ... : ... .. . ... : ... .. 0 ... : ... .. . ... ... : ... .. . ... ... : ... .. . ... ... : ... .. . P80 ...
ROW 0C : ... .. . ... ... ... : ... .. . ... ... ... : ... .. . ... : 9-# 00 8 ... : ... .. . ... ... : E-4 01 6 ... V03 : A-3 01 6 ... V03 : C-3 01 F P82 ...
ROW 0D : ... .. . ... ... ... : ... .. . ... ... ... : ... .. . ... : ... .. 6 ... : ... .. . ... ... : ... .. . ... ... : ... .. . ... ... : ... .. D P83 ...
ROW 0E : ... .. . ... ... ... : ... .. . ... ... ... : ... .. . ... : ... .. 3 ... : ... .. . ... ... : ... .. 5 ... ... : ... .. 5 ... ... : ... .. 8 ... ...
ROW 0F : ... .. . ... ... ... : ... .. . ... ... ... : ... .. . ... : ... .. 1 ... : ... .. . ... ... : ... .. 4 ... ... : ... .. 4 ... ... : ... .. . P80 ...
ROW 10 : ... .. . ... ... ... : ... .. . ... ... ... : ... .. . ... : ... .. . ... : ... .. . ... ... : ... .. . ... ... : ... .. . ... ... : ... .. . P7F ...
ROW 11 : ... .. . ... ... ... : ... .. . ... ... ... : ... .. . ... : ... .. 0 ... : ... .. . ... ... : ... .. . ... ... : ... .. . ... ... : ... .. . P7D ...
ROW 12 : G#1 00 A P9C ... ... : G#2 00 A P80 ... ... : G#2 00 . P7F : ... .. 8 ... : ... .. . ... ... : C-5 01 6 ... V05 : E-4 01 6 ... V05 : A-2 01 F ... ...
ROW 13 : ... .. . P7C ... ... : G-2 00 A ... ... ... : G-2 00 . ... : ... .. 6 ... : ... .. . ... ... : ... .. 5 ... ... : ... .. 5 ... ... : ... .. D P7E ...
ROW 14 : G-1 00 A P9C ... ... : F#2 00 A P82 ... ... : F#2 00 . P81 : ... .. 3 ... : ... .. . ... ... : ... .. . ... ... : ... .. . ... ... : ... .. 8 P80 ...
ROW 15 : ... .. . P7C ... ... : F-2 00 A P86 ... ... : F-2 00 . P85 : ... .. 1 ... : ... .. . ... ... : ... .. 4 ... ... : ... .. 4 ... ... : ... .. . P82 ...
ROW 16 : F#1 00 A PA0 ... ... : E-2 00 A P8C ... ... : E-2 00 . P8B : ... .. . ... : ... .. . ... ... : ... .. . ... ... : ... .. . ... ... : ... .. . P83 ...
ROW 17 : ... .. . P80 ... ... : D#2 00 A P94 ... ... : D#2 00 . P93 : ... .. 0 ... : ... .. . ... ... : ... .. . ... ... : ... .. . ... ... : ... .. . ... ...
ROW 18 : G-1 00 F ... ... ... : G-2 00 F P81 ... ... : F#4 00 . P80 : ... .. D ... : ... .. . ... ... : E-4 01 9 ... ... : A-3 01 6 ... ... : E-3 01 F P81 ...
ROW 19 : ... .. E ... ... ... : ... .. E ... ... ... : G#3 00 . ... : ... .. B ... : ... .. . ... ... : ... .. 8 ... ... : ... .. 5 ... ... : ... .. D P7F ...
ROW 1A : ... .. D ... ... ... : ... .. D ... ... ... : C#3 00 . ... : ... .. . ... : ... .. . ... ... : ... .. . ... ... : ... .. . ... ... : ... .. 8 P7D ...
ROW 1B : ... .. A ... ... ... : ... .. A ... ... ... : C-3 00 . ... : ... .. A ... : ... .. . ... ... : ... .. 7 ... ... : ... .. 4 ... ... : ... .. . ... ...
ROW 1C : ... .. . ... ... ... : ... .. . ... ... ... : G-2 00 . ... : ... .. 8 ... : ... .. . ... ... : ... .. . ... ... : ... .. . ... ... : ... .. . P7E ...
ROW 1D : ... .. . ... ... ... : ... .. . ... ... ... : ... .. . ... : ... .. 7 ... : ... .. . ... ... : ... .. 6 ... ... : ... .. . ... ... : ... .. . P80 ...
ROW 1E : A-1 00 F ... ... ... : A-2 00 F ... ... ... : A-2 00 . ... : 7-# 00 8 ... : ... .. . ... ... : C-5 01 6 ... V03 : E-4 01 6 ... V03 : A-2 01 F P82 ...
ROW 1F : ... .. E ... ... ... : ... .. E ... ... ... : ... .. . ... : ... .. 6 ... : ... .. . ... ... : ... .. . ... ... : ... .. . ... ... : ... .. D P83 ...
ROW 20 : ... .. D ... ... ... : ... .. D ... ... ... : ... .. . ... : ... .. 3 ... : ... .. . ... ... : ... .. 5 ... ... : ... .. 5 ... ... : ... .. 8 ... ...
ROW 21 : ... .. A ... ... ... : ... .. A ... ... ... : ... .. . ... : ... .. 1 ... : ... .. . ... ... : ... .. 4 ... ... : ... .. 4 ... ... : ... .. . P81 ...
ROW 22 : ... .. . ... ... ... : ... .. . ... ... ... : ... .. . ... : ... .. . ... : ... .. . ... ... : ... .. . ... ... : ... .. . ... ... : ... .. . P80 ...
ROW 23 : ... .. . ... ... ... : ... .. . ... ... ... : ... .. . ... : ... .. 0 ... : ... .. . ... ... : ... .. . ... ... : ... .. . ... ... : ... .. . P7D ...
ROW 24 : G-2 00 F ... ... ... : G-3 00 F ... ... ... : G-3 00 . ... : A-# 00 F ... : ... .. . ... ... : E-4 01 6 ... V05 : A-3 01 6 ... V05 : E-3 01 F ... ...
ROW 25 : ... .. E ... ... ... : ... .. E ... ... ... : ... .. . ... : ... .. C ... : ... .. . ... ... : ... .. 5 ... ... : ... .. 5 ... ... : ... .. D P7E ...
ROW 26 : ... .. D ... ... ... : ... .. D ... ... ... : ... .. . ... : ... .. 6 ... : ... .. . ... ... : ... .. . ... ... : ... .. . ... ... : ... .. 8 P80 ...
ROW 27 : ... .. A ... ... ... : ... .. A ... ... ... : ... .. . ... : ... .. 3 ... : ... .. . ... ... : ... .. 4 ... ... : ... .. 4 ... ... : ... .. . P81 ...
ROW 28 : ... .. . ... ... ... : ... .. . ... ... ... : ... .. . ... : ... .. 2 ... : ... .. . ... ... : ... .. . ... ... : ... .. . ... ... : ... .. . P83 ...
ROW 29 : ... .. . ... ... ... : ... .. . ... ... ... : ... .. . ... : ... .. 0 ... : ... .. . ... ... : ... .. . ... ... : ... .. . ... ... : ... .. . ... ...
ROW 2A : A-2 00 F ... ... ... : A-3 00 F ... ... ... : A-3 00 . ... : E-# 00 8 ... : ... .. . ... ... : C-5 01 6 ... V03 : E-4 01 6 ... V03 : A-2 01 F P81 ...
ROW 2B : ... .. E ... ... ... : ... .. E ... ... ... : ... .. . ... : ... .. 6 ... : ... .. . ... ... : ... .. . ... ... : ... .. . ... ... : ... .. D P80 ...
ROW 2C : ... .. D ... ... ... : ... .. D ... ... ... : ... .. . ... : ... .. 3 ... : ... .. . ... ... : ... .. 5 ... ... : ... .. 5 ... ... : ... .. 8 P7E ...
ROW 2D : ... .. A ... ... ... : ... .. A ... ... ... : ... .. . ... : ... .. 1 ... : ... .. . ... ... : ... .. 4 ... ... : ... .. 4 ... ... : ... .. . P7D ...
ROW 2E : ... .. . ... ... ... : ... .. . ... ... ... : ... .. . ... : ... .. . ... : ... .. . ... ... : ... .. . ... ... : ... .. . ... ... : ... .. . ... ...
ROW 2F : ... .. . ... ... ... : ... .. . ... ... ... : ... .. . ... : ... .. 0 ... : ... .. . ... ... : ... .. . ... ... : ... .. . ... ... : ... .. . P80 ...
ROW 30 : A#2 00 F ... ... ... : A#3 00 F ... ... ... : A-5 00 . ... : 1-# 00 F ... : ... .. . ... ... : G#3 01 9 ... V05 : G#2 01 9 ... V05 : A-3 01 F P81 ...
ROW 31 : ... .. E ... ... ... : ... .. E ... ... ... : B-4 00 . ... : ... .. C ... : ... .. . ... ... : ... .. 8 ... ... : ... .. 8 ... ... : ... .. D P83 ...
ROW 32 : ... .. D ... ... ... : ... .. D ... ... ... : E-4 00 . ... : ... .. 6 ... : ... .. . ... ... : ... .. . ... ... : ... .. . ... ... : ... .. 8 ... ...
ROW 33 : ... .. A ... ... ... : ... .. A ... ... ... : D#4 00 . ... : ... .. 3 ... : ... .. . ... ... : ... .. 7 ... ... : ... .. 7 ... ... : ... .. . P82 ...
ROW 34 : ... .. . ... ... ... : ... .. . ... ... ... : A#3 00 . ... : ... .. 2 ... : ... .. . ... ... : ... .. . ... ... : ... .. . ... ... : ... .. . P80 ...
ROW 35 : ... .. . ... ... ... : ... .. . ... ... ... : ... .. . ... : ... .. 0 ... : ... .. . ... ... : ... .. 6 ... ... : ... .. 6 ... ... : ... .. . P7E ...
ROW 36 : A-2 00 F ... ... ... : A-3 00 F ... ... ... : A-3 00 . ... : 9-# 00 8 ... : ... .. . ... ... : A-3 01 A ... V03 : A-2 01 A ... V03 : ... .. . P7D ...
ROW 37 : ... .. E ... ... ... : ... .. E ... ... ... : ... .. . ... : ... .. 6 ... : ... .. . ... ... : ... .. 9 ... ... : ... .. 9 ... ... : ... .. . ... ...
ROW 38 : ... .. D ... ... ... : ... .. D ... ... ... : ... .. . ... : ... .. 3 ... : ... .. . ... ... : ... .. 8 ... ... : ... .. 8 ... ... : ... .. . P7F ...
ROW 39 : ... .. A ... ... ... : ... .. A ... ... ... : ... .. . ... : ... .. 1 ... : ... .. . ... ... : ... .. 7 ... ... : ... .. 7 ... ... : ... .. . P81 ...
ROW 3A : ... .. . ... ... ... : ... .. . ... ... ... : ... .. . ... : ... .. . ... : ... .. . ... ... : ... .. . ... ... : ... .. . ... ... : ... .. . P83 ...
ROW 3B : ... .. . ... ... ... : ... .. . ... ... ... : ... .. . ... : ... .. 0 ... : ... .. . ... ... : ... .. 6 ... ... : ... .. 6 ... ... : ... .. . ... ...
ROW 3C : A-1 00 F ... ... ... : A-2 00 F ... ... ... : A-2 00 . ... : B-# 00 F ... : ... .. . ... ... : ... .. 9 ... V05 : ... .. 9 ... V05 : ... .. . P7A ...
ROW 3D : ... .. E ... ... ... : ... .. E ... ... ... : ... .. . ... : ... .. C ... : ... .. . ... ... : ... .. 8 ... ... : ... .. 8 ... ... : G#3 01 8 P81 ...
ROW 3E : ... .. D ... ... ... : ... .. D ... ... ... : ... .. . ... : ... .. 6 ... : ... .. . ... ... : ... .. . ... ... : ... .. . ... ... : G-3 01 8 P89 ...
ROW 3F : ... .. A ... ... ... : ... .. A ... ... ... : ... .. . ... : ... .. 3 ... : ... .. . ... ... : ... .. 7 ... ... : ... .. 7 ... ... : ... .. . P80 ...
ROW 40 : ... .. . ... ... ... : ... .. . ... ... ... : ... .. . ... : ... .. 2 ... : ... .. . ... ... : ... .. . ... ... : ... .. . ... ... : ... .. . P78 ...
ROW 41 : ... .. . ... ... ... : ... .. . ... ... ... : ... .. . ... : ... .. 0 ... : ... .. . ... ... : ... .. 6 ... ... : ... .. 6 ... ... : F#3 01 8 P86 ...
ROW 42 : ... .. F ... ... ... : ... .. F ... ... ... : ... .. . ... : 9-# 00 8 ... : ... .. . ... ... : C-4 01 A ... V03 : C-3 01 A ... V03 : ... .. . P7F ...
ROW 43 : ... .. E ... ... ... : ... .. E ... ... ... : ... .. . ... : ... .. 6 ... : ... .. . ... ... : ... .. 9 ... ... : ... .. 9 ... ... : ... .. . P7A ...
ROW 44 : ... .. D ... ... ... : ... .. D ... ... ... : ... .. . ... : ... .. 3 ... : ... .. . ... ... : ... .. 8 ... ... : ... .. 8 ... ... : F-3 01 8 P86 ...
ROW 45 : ... .. A ... ... ... : ... .. A ... ... ... : ... .. . ... : ... .. 1 ... : ... .. . ... ... : ... .. 7 ... ... : ... .. 7 ... ... : ... .. . P7D ...
ROW 46 : ... .. . ... ... ... : ... .. . ... ... ... : ... .. . ... : ... .. . ... : ... .. . ... ... : ... .. . ... ... : ... .. . ... ... : E-3 01 8 P89 ...
ROW 47 : ... .. . ... ... ... : ... .. . ... ... ... : ... .. . ... : ... .. 0 ... : ... .. . ... ... : ... .. 6 ... ... : ... .. 6 ... ... : ... .. . P80 ...
ROW 48 : G-1 00 F ... ... ... : G-2 00 F ... ... ... : F#4 00 . ... : ... .. D ... : ... .. . ... ... : ... .. 9 ... V05 : ... .. 9 ... V05 : ... .. . P76 ...
ROW 49 : ... .. E ... ... ... : ... .. E ... ... ... : G#3 00 . ... : ... .. B ... : ... .. . ... ... : ... .. 8 ... ... : ... .. 8 ... ... : D#3 01 8 P85 ...
ROW 4A : ... .. D ... ... ... : ... .. D ... ... ... : C#3 00 . ... : ... .. . ... : ... .. . ... ... : ... .. . ... ... : ... .. . ... ... : ... .. . P7F ...
ROW 4B : ... .. A ... ... ... : ... .. A ... ... ... : C-3 00 . ... : ... .. A ... : ... .. . ... ... : ... .. 7 ... ... : ... .. 7 ... ... : ... .. . P78 ...
ROW 4C : ... .. . ... ... ... : ... .. . ... ... ... : G-2 00 . ... : ... .. 8 ... : ... .. . ... ... : ... .. . ... ... : ... .. . ... ... : D-3 01 8 P8A ...
ROW 4D : ... .. . ... ... ... : ... .. . ... ... ... : ... .. . ... : ... .. 7 ... : ... .. . ... ... : ... .. 6 ... ... : ... .. 6 ... ... : ... .. . P83 ...
ROW 4E : A-1 00 F ... ... ... : A-2 00 F ... ... ... : A-2 00 . ... : 7-# 00 8 ... : ... .. . ... ... : D#4 01 A ... V03 : D#3 01 A ... V03 : ... .. . P7B ...
ROW 4F : ... .. E ... ... ... : ... .. E ... ... ... : ... .. . ... : ... .. 6 ... : ... .. . ... ... : ... .. 9 ... ... : ... .. 9 ... ... : C#3 01 8 P8A ...
ROW 50 : ... .. D ... ... ... : ... .. D ... ... ... : ... .. . ... : ... .. 3 ... : ... .. . ... ... : ... .. 8 ... ... : ... .. 8 ... ... : ... .. . P81 ...
ROW 51 : ... .. A ... ... ... : ... .. A ... ... ... : ... .. . ... : ... .. 1 ... : ... .. . ... ... : ... .. 7 ... ... : ... .. 7 ... ... : ... .. . P77 ...
ROW 52 : ... .. . ... ... ... : ... .. . ... ... ... : ... .. . ... : ... .. . ... : ... .. . ... ... : ... .. . ... ... : ... .. . ... ... : C-3 01 8 P8B ...
ROW 53 : ... .. . ... ... ... : ... .. . ... ... ... : ... .. . ... : ... .. 0 ... : ... .. . ... ... : ... .. 6 ... ... : ... .. 6 ... ... : ... .. . P84 ...
ROW 54 : A#2 00 F ... ... ... : A#3 00 F ... ... ... : A#3 00 . ... : A-# 00 F ... : ... .. . ... ... : E-4 01 9 ... V05 : E-3 01 9 ... V05 : ... .. . P7E ...
ROW 55 : ... .. E ... ... ... : ... .. E ... ... ... : ... .. . ... : ... .. C ... : ... .. . ... ... : ... .. 8 ... ... : ... .. 8 ... ... : ... .. . P78 ...
ROW 56 : ... .. D ... ... ... : ... .. D ... ... ... : ... .. . ... : ... .. 6 ... : ... .. . ... ... : ... .. . ... ... : ... .. . ... ... : B-2 01 8 P8E ...
ROW 57 : ... .. A ... ... ... : ... .. A ... ... ... : ... .. . ... : ... .. 3 ... : ... .. . ... ... : ... .. 7 ... ... : ... .. 7 ... ... : ... .. . P86 ...
ROW 58 : ... .. . ... ... ... : ... .. . ... ... ... : ... .. . ... : ... .. 2 ... : ... .. . ... ... : ... .. . ... ... : ... .. . ... ... : ... .. . P7C ...
ROW 59 : ... .. . ... ... ... : ... .. . ... ... ... : ... .. . ... : ... .. 0 ... : ... .. . ... ... : ... .. 6 ... ... : ... .. 6 ... ... : ... .. . P72 ...
ROW 5A : A-2 00 F ... ... ... : A-3 00 F ... ... ... : A-3 00 . ... : E-# 00 8 ... : ... .. . ... ... : G#4 01 9 ... ... : G#3 01 9 ... ... : A#2 01 8 P86 ...
ROW 5B : ... .. E ... ... ... : ... .. E ... ... ... : ... .. . ... : ... .. 6 ... : ... .. . ... ... : ... .. 8 ... ... : ... .. 8 ... ... : ... .. . P7E ...
ROW 5C : ... .. D ... ... ... : ... .. D ... ... ... : ... .. . ... : ... .. 3 ... : ... .. . ... ... : ... .. . ... ... : ... .. . ... ... : ... .. . P77 ...
ROW 5D : ... .. A ... ... ... : ... .. A ... ... ... : ... .. . ... : ... .. 1 ... : ... .. . ... ... : ... .. 7 ... ... : ... .. 7 ... ... : ... .. . P71 ...
ROW 5E : ... .. . ... ... ... : ... .. . ... ... ... : ... .. . ... : ... .. . ... : ... .. . ... ... : ... .. . ... ... : ... .. . ... ... : A-2 01 8 P8C ...
ROW 5F : ... .. . ... ... ... : ... .. . ... ... ... : ... .. . ... : ... .. 0 ... : ... .. . ... ... : ... .. 6 ... ... : ... .. 6 ... ... : ... .. . P85 ...
ROW 60 : A-1 00 F ... ... ... : A-2 00 F ... ... ... : G#4 00 . ... : 1-# 00 F ... : ... .. . ... ... : A-4 01 A ... V03 : A-3 01 A ... V03 : ... .. . P7D ...
ROW 61 : ... .. E ... ... ... : ... .. E ... ... ... : A#3 00 . ... : ... .. C ... : ... .. . ... ... : ... .. 9 ... ... : ... .. 9 ... ... : ... .. . P73 ...
ROW 62 : ... .. D ... ... ... : ... .. D ... ... ... : D#3 00 . ... : ... .. 6 ... : ... .. . ... ... : ... .. 8 ... ... : ... .. 8 ... ... : G#2 01 8 P8D ...
ROW 63 : ... .. A ... ... ... : ... .. A ... ... ... : D-3 00 . ... : ... .. 3 ... : ... .. . ... ... : ... .. 7 ... ... : ... .. 7 ... ... : ... .. . P82 ...
ROW 64 : ... .. . ... ... ... : ... .. . ... ... ... : A-2 00 . ... : ... .. 2 ... : ... .. . ... ... : ... .. . ... ... : ... .. . ... ... : ... .. . P7A ...
ROW 65 : ... .. . ... ... ... : ... .. . ... ... ... : ... .. . ... : ... .. 0 ... : ... .. . ... ... : ... .. 6 ... ... : ... .. 6 ... ... : ... .. . P73 ...
ROW 66 : ... .. F ... ... ... : ... .. F ... ... ... : ... .. . ... : 9-# 00 8 ... : ... .. . ... ... : B-4 01 9 ... V05 : B-3 01 9 ... V05 : G-2 01 8 P91 ...
ROW 67 : ... .. E ... ... ... : ... .. E ... ... ... : ... .. . ... : ... .. 6 ... : ... .. . ... ... : ... .. 8 ... ... : ... .. 8 ... ... : ... .. . P8A ...
ROW 68 : ... .. D ... ... ... : ... .. D ... ... ... : ... .. . ... : ... .. 3 ... : ... .. . ... ... : ... .. . ... ... : ... .. . ... ... : ... .. . P84 ...
ROW 69 : ... .. A ... ... ... : ... .. A ... ... ... : ... .. . ... : ... .. 1 ... : ... .. . ... ... : ... .. 7 ... ... : ... .. 7 ... ... : ... .. . P7C ...
ROW 6A : ... .. . ... ... ... : ... .. . ... ... ... : ... .. . ... : ... .. . ... : ... .. . ... ... : ... .. . ... ... : ... .. . ... ... : ... .. . P72 ...
ROW 6B : ... .. . ... ... ... : ... .. . ... ... ... : ... .. . ... : ... .. 0 ... : ... .. . ... ... : ... .. 6 ... ... : ... .. 6 ... ... : F#2 01 8 P90 ...
ROW 6C : G-1 00 F ... ... ... : G-2 00 F ... ... ... : G-2 00 . ... : 1-# 00 F ... : ... .. . ... ... : D-5 01 A ... V03 : D-4 01 A ... V03 : ... .. . P86 ...
ROW 6D : ... .. E ... ... ... : ... .. E ... ... ... : ... .. . ... : ... .. C ... : ... .. . ... ... : ... .. 9 ... ... : ... .. 9 ... ... : ... .. . P7D ...
ROW 6E : ... .. D ... ... ... : ... .. D ... ... ... : ... .. . ... : ... .. 6 ... : ... .. . ... ... : ... .. 8 ... ... : ... .. 8 ... ... : ... .. . P75 ...
ROW 6F : ... .. A ... ... ... : ... .. A ... ... ... : ... .. . ... : ... .. 3 ... : ... .. . ... ... : ... .. 7 ... ... : ... .. 7 ... ... : ... .. . P70 ...
ROW 70 : ... .. . ... ... ... : ... .. . ... ... ... : ... .. . ... : ... .. 2 ... : ... .. . ... ... : ... .. . ... ... : ... .. . ... ... : F-2 01 8 P92 ...
ROW 71 : ... .. . ... ... ... : ... .. . ... ... ... : ... .. . ... : ... .. 0 ... : ... .. . ... ... : ... .. 6 ... ... : ... .. 6 ... ... : ... .. . P8C ...
ROW 72 : A-1 00 F ... ... ... : A-2 00 F ... ... ... : A-2 00 . ... : 9-# 00 8 ... : ... .. . ... ... : B-4 01 9 ... V05 : B-3 01 9 ... V05 : ... .. . P84 ...
ROW 73 : ... .. E ... ... ... : ... .. E ... ... ... : ... .. . ... : ... .. 6 ... : ... .. . ... ... : ... .. 8 ... ... : ... .. 8 ... ... : ... .. . P7B ...
ROW 74 : ... .. D ... ... ... : ... .. D ... ... ... : ... .. . ... : ... .. 3 ... : ... .. . ... ... : ... .. . ... ... : ... .. . ... ... : ... .. . P71 ...
ROW 75 : ... .. A ... ... ... : ... .. A ... ... ... : ... .. . ... : ... .. 1 ... : ... .. . ... ... : ... .. 7 ... ... : ... .. 7 ... ... : E-2 01 8 P93 ...
ROW 76 : ... .. . ... ... ... : ... .. . ... ... ... : ... .. . ... : ... .. . ... : ... .. . ... ... : ... .. . ... ... : ... .. . ... ... : ... .. . P8A ...
ROW 77 : ... .. . ... ... ... : ... .. . ... ... ... : ... .. . ... : ... .. 0 ... : ... .. . ... ... : ... .. 6 ... ... : ... .. 6 ... ... : ... .. . P82 ...
ROW 78 : D#3 00 F ... ... ... : D#4 00 F ... ... ... : D-6 00 . ... : ... .. D ... : ... .. . ... ... : C-5 01 9 ... ... : C-4 01 9 ... ... : ... .. . P7C ...
ROW 79 : ... .. E ... ... ... : ... .. E ... ... ... : E-5 00 . ... : ... .. B ... : ... .. . ... ... : ... .. 8 ... ... : ... .. 8 ... ... : ... .. . P76 ...
ROW 7A : ... .. D ... ... ... : ... .. D ... ... ... : A-4 00 . ... : ... .. . ... : ... .. . ... ... : ... .. . ... ... : ... .. . ... ... : ... .. . P70 ...
ROW 7B : ... .. A ... ... ... : ... .. A ... ... ... : G#4 00 . ... : ... .. A ... : ... .. . ... ... : ... .. 7 ... ... : ... .. 7 ... ... : D#2 01 8 P96 ...
ROW 7C : ... .. . ... ... ... : ... .. . ... ... ... : D#4 00 . ... : ... .. 8 ... : ... .. . ... ... : ... .. . ... ... : ... .. . ... ... : ... .. . P8D ...
ROW 7D : ... .. . ... ... ... : ... .. . ... ... ... : ... .. . ... : ... .. 7 ... : ... .. . ... ... : ... .. 6 ... ... : ... .. 6 ... ... : ... .. . P83 ...
ROW 7E : ... .. F ... ... ... : ... .. F ... ... ... : ... .. . ... : 7-# 00 8 ... : ... .. . ... ... : D-5 01 A ... V03 : D-4 01 A ... V03 : ... .. . P79 ...
ROW 7F : ... .. E ... ... ... : ... .. E ... ... ... : ... .. . ... : ... .. 6 ... : ... .. . ... ... : ... .. 9 ... ... : ... .. 9 ... ... : ... .. . P70 ...
ROW 80 : ... .. D ... ... ... : ... .. D ... ... ... : ... .. . ... : ... .. 3 ... : ... .. . ... ... : ... .. 8 ... ... : ... .. 8 ... ... : ... .. . P68 ...
ROW 81 : ... .. A ... ... ... : ... .. A ... ... ... : ... .. . ... : ... .. 1 ... : ... .. . ... ... : ... .. 7 ... ... : ... .. 7 ... ... : D-2 01 8 P93 ...
ROW 82 : ... .. . ... ... ... : ... .. . ... ... ... : ... .. . ... : ... .. . ... : ... .. . ... ... : ... .. . ... ... : ... .. . ... ... : ... .. . P8C ...
ROW 83 : ... .. . ... ... ... : ... .. . ... ... ... : ... .. . ... : ... .. 0 ... : ... .. . ... ... : ... .. 6 ... ... : ... .. 6 ... ... : ... .. . P87 ...
ROW 84 : B-2 00 F ... ... ... : B-3 00 F ... ... ... : B-3 00 . ... : A-# 00 F ... : ... .. . ... ... : D#5 01 9 ... V05 : D#4 01 9 ... V05 : ... .. . P7F ...
ROW 85 : ... .. E ... ... ... : ... .. E ... ... ... : ... .. . ... : ... .. C ... : ... .. . ... ... : ... .. 8 ... ... : ... .. 8 ... ... : ... .. . P76 ...
ROW 86 : ... .. D ... ... ... : ... .. D ... ... ... : ... .. . ... : ... .. 6 ... : ... .. . ... ... : ... .. . ... ... : ... .. . ... ... : ... .. . P6C ...
ROW 87 : ... .. A ... ... ... : ... .. A ... ... ... : ... .. . ... : ... .. 3 ... : ... .. . ... ... : ... .. 7 ... ... : ... .. 7 ... ... : C#2 01 8 P96 ...
ROW 88 : ... .. . ... ... ... : ... .. . ... ... ... : ... .. . ... : ... .. 2 ... : ... .. . ... ... : ... .. . ... ... : ... .. . ... ... : ... .. . P8C ...
ROW 89 : ... .. . ... ... ... : ... .. . ... ... ... : ... .. . ... : ... .. 0 ... : ... .. . ... ... : ... .. 6 ... ... : ... .. 6 ... ... : ... .. . P84 ...
ROW 8A : ... .. F ... ... ... : ... .. F ... ... ... : ... .. . ... : E-# 00 8 ... : ... .. . ... ... : G-5 01 A ... V03 : G-4 01 A ... V03 : ... .. . P7E ...
ROW 8B : ... .. E ... ... ... : ... .. E ... ... ... : ... .. . ... : ... .. 6 ... : ... .. . ... ... : ... .. 9 ... ... : ... .. 9 ... ... : ... .. . P77 ...
ROW 8C : ... .. D ... ... ... : ... .. D ... ... ... : ... .. . ... : ... .. 3 ... : ... .. . ... ... : ... .. 8 ... ... : ... .. 8 ... ... : ... .. . P71 ...
ROW 8D : ... .. A ... ... ... : ... .. A ... ... ... : ... .. . ... : ... .. 1 ... : ... .. . ... ... : ... .. 7 ... ... : ... .. 7 ... ... : ... .. . P6A ...
ROW 8E : ... .. . ... ... ... : ... .. . ... ... ... : ... .. . ... : ... .. . ... : ... .. . ... ... : ... .. . ... ... : ... .. . ... ... : C-2 01 8 P99 ...
ROW 8F : ... .. . ... ... ... : ... .. . ... ... ... : ... .. . ... : ... .. 0 ... : ... .. . ... ... : ... .. 6 ... ... : ... .. 6 ... ... : ... .. . P8E ...
ROW 90 : C-3 00 F ... ... ... : C-4 00 F ... ... ... : B-5 00 . ... : 9-# 00 D ... : ... .. . ... ... : D#6 01 9 ... V05 : G-5 01 9 ... V05 : C-4 01 F P7F ...
ROW 91 : ... .. E ... ... ... : ... .. E ... ... ... : C#5 00 . ... : ... .. B ... : ... .. . ... ... : ... .. 8 ... ... : ... .. 8 ... ... : ... .. D P7D ...
ROW 92 : ... .. D ... ... ... : ... .. D ... ... ... : F#4 00 . ... : ... .. . ... : ... .. . ... ... : ... .. . ... ... : ... .. . ... ... : ... .. 8 ... ...
ROW 93 : ... .. A ... ... ... : ... .. A ... ... ... : F-4 00 . ... : ... .. A ... : ... .. . ... ... : ... .. 7 ... ... : ... .. 7 ... ... : ... .. . P7E ...
ROW 94 : ... .. . ... ... ... : ... .. . ... ... ... : C-4 00 . ... : ... .. 8 ... : ... .. . ... ... : ... .. . ... ... : ... .. . ... ... : ... .. . P80 ...
ROW 95 : ... .. . ... ... ... : ... .. . ... ... ... : ... .. . ... : ... .. 7 ... : ... .. . ... ... : ... .. 6 ... ... : ... .. 6 ... ... : ... .. . P82 ...
ROW 96 : G-2 00 F ... ... ... : G-3 00 F ... ... ... : G-3 00 . ... : ... .. 8 ... : ... .. . ... ... : G-5 01 6 ... V03 : C-5 01 6 ... V03 : D#3 01 F P83 ...
ROW 97 : ... .. E ... ... ... : ... .. E ... ... ... : ... .. . ... : ... .. 6 ... : ... .. . ... ... : ... .. . ... ... : ... .. . ... ... : ... .. D ... ...
ROW 98 : ... .. D ... ... ... : ... .. D ... ... ... : ... .. . ... : ... .. 3 ... : ... .. . ... ... : ... .. 5 ... ... : ... .. 5 ... ... : ... .. 8 P81 ...
ROW 99 : ... .. A ... ... ... : ... .. A ... ... ... : ... .. . ... : ... .. 1 ... : ... .. . ... ... : ... .. 4 ... ... : ... .. 4 ... ... : ... .. . P7F ...
ROW 9A : ... .. . ... ... ... : ... .. . ... ... ... : ... .. . ... : ... .. . ... : ... .. . ... ... : ... .. . ... ... : ... .. . ... ... : ... .. . P7D ...
ROW 9B : ... .. . ... ... ... : ... .. . ... ... ... : ... .. . ... : ... .. 0 ... : ... .. . ... ... : ... .. . ... ... : ... .. . ... ... : ... .. . ... ...
ROW 9C : C-2 00 F ... ... ... : C-3 00 F ... ... ... : C-3 00 . ... : B-# 00 F ... : ... .. . ... ... : D#6 01 6 ... V05 : G-5 01 6 ... V05 : C-4 01 F P7E ...
ROW 9D : ... .. E ... ... ... : ... .. E ... ... ... : ... .. . ... : ... .. C ... : ... .. . ... ... : ... .. 5 ... ... : ... .. 5 ... ... : ... .. D P80 ...
ROW 9E : ... .. D ... ... ... : ... .. D ... ... ... : ... .. . ... : ... .. 6 ... : ... .. . ... ... : ... .. . ... ... : ... .. . ... ... : ... .. 8 P82 ...
ROW 9F : ... .. A ... ... ... : ... .. A ... ... ... : ... .. . ... : ... .. 3 ... : ... .. . ... ... : ... .. 4 ... ... : ... .. 4 ... ... : ... .. . P83 ...
ROW A0 : ... .. . ... ... ... : ... .. . ... ... ... : ... .. . ... : ... .. 2 ... : ... .. . ... ... : ... .. . ... ... : ... .. . ... ... : ... .. . ... ...
ROW A1 : ... .. . ... ... ... : ... .. . ... ... ... : ... .. . ... : ... .. 0 ... : ... .. . ... ... : ... .. . ... ... : ... .. . ... ... : ... .. . P81 ...
ROW A2 : B-1 00 A P93 ... ... : B-2 00 A P7A ... ... : B-2 00 . P79 : 9-# 00 8 ... : ... .. . ... ... : G-5 01 6 ... V03 : C-5 01 6 ... V03 : D#3 01 F P80 ...
ROW A3 : ... .. . P73 ... ... : A#2 00 A P75 ... ... : A#2 00 . P74 : ... .. 6 ... : ... .. . ... ... : ... .. . ... ... : ... .. . ... ... : ... .. D P7D ...
ROW A4 : A#1 00 A P89 ... ... : A-2 00 A P71 ... ... : G#2 00 . P8F : ... .. 3 ... : ... .. . ... ... : ... .. 5 ... ... : ... .. 5 ... ... : ... .. 8 ... ...
ROW A5 : ... .. . P69 ... ... : G-2 00 A P90 ... ... : G-2 00 . ... : ... .. 1 ... : ... .. . ... ... : ... .. 4 ... ... : ... .. 4 ... ... : ... .. . P7E ...
ROW A6 : A-1 00 A P82 ... ... : ... .. . P70 ... ... : F#2 00 . P91 : ... .. . ... : ... .. . ... ... : ... .. . ... ... : ... .. . ... ... : ... .. . P80 ...
ROW A7 : G#1 00 A P9E ... ... : F#2 00 A P72 ... ... : ... .. . P71 : ... .. 0 ... : ... .. . ... ... : ... .. . ... ... : ... .. . ... ... : ... .. . P81 ...
ROW A8 : A#2 00 F P80 ... ... : A#3 00 F P81 ... ... : A-5 00 . P80 : ... .. D ... : ... .. . ... ... : C#6 01 9 ... V05 : F-5 01 9 ... V05 : A#3 01 F P83 ...
ROW A9 : ... .. E ... ... ... : ... .. E ... ... ... : B-4 00 . ... : ... .. B ... : ... .. . ... ... : ... .. 8 ... ... : ... .. 8 ... ... : ... .. D ... ...
ROW AA : ... .. D ... ... ... : ... .. D ... ... ... : E-4 00 . ... : ... .. . ... : ... .. . ... ... : ... .. . ... ... : ... .. . ... ... : ... .. 8 P81 ...
ROW AB : ... .. A ... ... ... : ... .. A ... ... ... : D#4 00 . ... : ... .. A ... : ... .. . ... ... : ... .. 7 ... ... : ... .. 7 ... ... : ... .. . P80 ...
ROW AC : ... .. . ... ... ... : ... .. . ... ... ... : A#3 00 . ... : ... .. 8 ... : ... .. . ... ... : ... .. . ... ... : ... .. . ... ... : ... .. . P7E ...
ROW AD : ... .. . ... ... ... : ... .. . ... ... ... : ... .. . ... : ... .. 7 ... : ... .. . ... ... : ... .. 6 ... ... : ... .. 6 ... ... : ... .. . P7D ...
ROW AE : F#2 00 F ... ... ... : F#3 00 F ... ... ... : F#3 00 . ... : ... .. 8 ... : ... .. . ... ... : F-5 01 6 ... V03 : A#4 01 6 ... V03 : C#3 01 F ... ...
ROW AF : ... .. E ... ... ... : ... .. E ... ... ... : ... .. . ... : ... .. 6 ... : ... .. . ... ... : ... .. . ... ... : ... .. . ... ... : ... .. D P80 ...
ROW B0 : ... .. D ... ... ... : ... .. D ... ... ... : ... .. . ... : ... .. 3 ... : ... .. . ... ... : ... .. 5 ... ... : ... .. 5 ... ... : ... .. 8 P81 ...
ROW B1 : ... .. A ... ... ... : ... .. A ... ... ... : ... .. . ... : ... .. 1 ... : ... .. . ... ... : ... .. 4 ... ... : ... .. 4 ... ... : ... .. . P83 ...
ROW B2 : ... .. . ... ... ... : ... .. . ... ... ... : ... .. . ... : ... .. . ... : ... .. . ... ... : ... .. . ... ... : ... .. . ... ... : ... .. . ... ...
ROW B3 : ... .. . ... ... ... : ... .. . ... ... ... : ... .. . ... : ... .. 0 ... : ... .. . ... ... : ... .. . ... ... : ... .. . ... ... : ... .. . P82 ...
ROW B4 : A#1 00 F ... ... ... : A#2 00 F ... ... ... : A#2 00 . ... : B-# 00 F ... : ... .. . ... ... : C#6 01 6 ... V05 : F-5 01 6 ... V05 : A#3 01 F P80 ...
ROW B5 : ... .. E ... ... ... : ... .. E ... ... ... : ... .. . ... : ... .. C ... : ... .. . ... ... : ... .. 5 ... ... : ... .. 5 ... ... : ... .. D P7E ...
ROW B6 : ... .. D ... ... ... : ... .. D ... ... ... : ... .. . ... : ... .. 6 ... : ... .. . ... ... : ... .. . ... ... : ... .. . ... ... : ... .. 8 P7D ...
ROW B7 : ... .. A ... ... ... : ... .. A ... ... ... : ... .. . ... : ... .. 3 ... : ... .. . ... ... : ... .. 4 ... ... : ... .. 4 ... ... : ... .. . ... ...
ROW B8 : ... .. . ... ... ... : ... .. . ... ... ... : ... .. . ... : ... .. 2 ... : ... .. . ... ... : ... .. . ... ... : ... .. . ... ... : ... .. . P7F ...
ROW B9 : ... .. . ... ... ... : ... .. . ... ... ... : ... .. . ... : ... .. 0 ... : ... .. . ... ... : ... .. . ... ... : ... .. . ... ... : ... .. . P81 ...
ROW BA : A-2 00 F ... ... ... : A-3 00 F ... ... ... : G#5 00 . ... : 9-# 00 D ... : ... .. . ... ... : C-6 01 9 ... ... : E-5 01 9 ... ... : A-3 01 F P83 ...
ROW BB : ... .. E ... ... ... : ... .. E ... ... ... : A#4 00 . ... : ... .. B ... : ... .. . ... ... : ... .. 8 ... ... : ... .. 8 ... ... : ... .. D ... ...
ROW BC : ... .. D ... ... ... : ... .. D ... ... ... : D#4 00 . ... : ... .. . ... : ... .. . ... ... : ... .. . ... ... : ... .. . ... ... : ... .. 8 P82 ...
ROW BD : ... .. A ... ... ... : ... .. A ... ... ... : D-4 00 . ... : ... .. A ... : ... .. . ... ... : ... .. 7 ... ... : ... .. 7 ... ... : ... .. . P80 ...
ROW BE : ... .. . ... ... ... : ... .. . ... ... ... : A-3 00 . ... : ... .. 8 ... : ... .. . ... ... : ... .. . ... ... : ... .. . ... ... : ... .. . P7E ...
ROW BF : ... .. . ... ... ... : ... .. . ... ... ... : ... .. . ... : ... .. 7 ... : ... .. . ... ... : ... .. 6 ... ... : ... .. 6 ... ... : ... .. . P7D ...
ROW C0 : E-2 00 F ... ... ... : E-3 00 F ... ... ... : E-3 00 . ... : ... .. 8 ... : ... .. . ... ... : E-5 01 6 ... V03 : A-4 01 6 ... V03 : C-3 01 F ... ...
ROW C1 : ... .. E ... ... ... : ... .. E ... ... ... : ... .. . ... : ... .. 6 ... : ... .. . ... ... : ... .. . ... ... : ... .. . ... ... : ... .. D P7F ...
ROW C2 : ... .. D ... ... ... : ... .. D ... ... ... : ... .. . ... : ... .. 3 ... : ... .. . ... ... : ... .. 5 ... ... : ... .. 5 ... ... : ... .. 8 P80 ...
ROW C3 : ... .. A ... ... ... : ... .. A ... ... ... : ... .. . ... : ... .. 1 ... : ... .. . ... ... : ... .. 4 ... ... : ... .. 4 ... ... : ... .. . P83 ...
ROW C4 : ... .. . ... ... ... : ... .. . ... ... ... : ... .. . ... : ... .. . ... : ... .. . ... ... : ... .. . ... ... : ... .. . ... ... : ... .. . ... ...
ROW C5 : ... .. . ... ... ... : ... .. . ... ... ... : ... .. . ... : ... .. 0 ... : ... .. . ... ... : ... .. . ... ... : ... .. . ... ... : ... .. . P82 ...
ROW C6 : A-1 00 F ... ... ... : A-2 00 F ... ... ... : A-2 00 . ... : B-# 00 F ... : ... .. . ... ... : C-6 01 6 ... V05 : E-5 01 6 ... V05 : A-3 01 F P80 ...
ROW C7 : ... .. E ... ... ... : ... .. E ... ... ... : ... .. . ... : ... .. C ... : ... .. . ... ... : ... .. 5 ... ... : ... .. 5 ... ... : ... .. D P7F ...
ROW C8 : ... .. D ... ... ... : ... .. D ... ... ... : ... .. . ... : ... .. 6 ... : ... .. . ... ... : ... .. . ... ... : ... .. . ... ... : ... .. 8 P7D ...
ROW C9 : ... .. A ... ... ... : ... .. A ... ... ... : ... .. . ... : ... .. 3 ... : ... .. . ... ... : ... .. 4 ... ... : ... .. 4 ... ... : ... .. . ... ...
ROW CA : ... .. . ... ... ... : ... .. . ... ... ... : ... .. . ... : ... .. 2 ... : ... .. . ... ... : ... .. . ... ... : ... .. . ... ... : ... .. . P7F ...
ROW CB : ... .. . ... ... ... : ... .. . ... ... ... : ... .. . ... : ... .. 0 ... : ... .. . ... ... : ... .. . ... ... : ... .. . ... ... : ... .. . P80 ...
ROW CC : ... .. . ... ... ... : ... .. . ... ... ... : ... .. . ... : 9-# 00 8 ... : ... .. . ... ... : E-5 01 6 ... V03 : A-4 01 6 ... V03 : C-3 01 F P82 ...
ROW CD : ... .. . ... ... ... : ... .. . ... ... ... : ... .. . ... : ... .. 6 ... : ... .. . ... ... : ... .. . ... ... : ... .. . ... ... : ... .. D P83 ...
ROW CE : ... .. . ... ... ... : ... .. . ... ... ... : ... .. . ... : ... .. 3 ... : ... .. . ... ... : ... .. 5 ... ... : ... .. 5 ... ... : ... .. 8 ... ...
ROW CF : ... .. . ... ... ... : ... .. . ... ... ... : ... .. . ... : ... .. 1 ... : ... .. . ... ... : ... .. 4 ... ... : ... .. 4 ... ... : ... .. . P80 ...
ROW D0 : ... .. . ... ... ... : ... .. . ... ... ... : ... .. . ... : ... .. . ... : ... .. . ... ... : ... .. . ... ... : ... .. . ... ... : ... .. . P7F ...
ROW D1 : ... .. . ... ... ... : ... .. . ... ... ... : ... .. . ... : ... .. 0 ... : ... .. . ... ... : ... .. . ... ... : ... .. . ... ... : ... .. . P7D ...
ROW D2 : G#1 00 A P9C ... ... : G#2 00 A P80 ... ... : G#2 00 . P7F : ... .. 8 ... : ... .. . ... ... : C-6 01 6 ... V05 : E-5 01 6 ... V05 : A-2 01 F ... ...
ROW D3 : ... .. . P7C ... ... : G-2 00 A ... ... ... : G-2 00 . ... : ... .. 6 ... : ... .. . ... ... : ... .. 5 ... ... : ... .. 5 ... ... : ... .. D P7E ...
ROW D4 : G-1 00 A P9C ... ... : F#2 00 A P82 ... ... : F#2 00 . P81 : ... .. 3 ... : ... .. . ... ... : ... .. . ... ... : ... .. . ... ... : ... .. 8 P80 ...
ROW D5 : ... .. . P7C ... ... : F-2 00 A P86 ... ... : F-2 00 . P85 : ... .. 1 ... : ... .. . ... ... : ... .. 4 ... ... : ... .. 4 ... ... : ... .. . P82 ...
ROW D6 : F#1 00 A PA0 ... ... : E-2 00 A P8C ... ... : E-2 00 . P8B : ... .. . ... : ... .. . ... ... : ... .. . ... ... : ... .. . ... ... : ... .. . P83 ...
ROW D7 : ... .. . P80 ... ... : D#2 00 A P94 ... ... : D#2 00 . P93 : ... .. 0 ... : ... .. . ... ... : ... .. . ... ... : ... .. . ... ... : ... .. . ... ...
ROW D8 : G-1 00 F ... ... ... : G-2 00 F P81 ... ... : F#4 00 . P80 : ... .. D ... : ... .. . ... ... : E-4 01 9 ... ... : A-3 01 6 ... ... : E-3 01 F P81 ...
ROW D9 : ... .. E ... ... ... : ... .. E ... ... ... : G#3 00 . ... : ... .. B ... : ... .. . ... ... : ... .. 8 ... ... : ... .. 5 ... ... : ... .. D P7F ...
ROW DA : ... .. D ... ... ... : ... .. D ... ... ... : C#3 00 . ... : ... .. . ... : ... .. . ... ... : ... .. . ... ... : ... .. . ... ... : ... .. 8 P7D ...
ROW DB : ... .. A ... ... ... : ... .. A ... ... ... : C-3 00 . ... : ... .. A ... : ... .. . ... ... : ... .. 7 ... ... : ... .. 4 ... ... : ... .. . ... ...
ROW DC : ... .. . ... ... ... : ... .. . ... ... ... : G-2 00 . ... : ... .. 8 ... : ... .. . ... ... : ... .. . ... ... : ... .. . ... ... : ... .. . P7E ...
ROW DD : ... .. . ... ... ... : ... .. . ... ... ... : ... .. . ... : ... .. 7 ... : ... .. . ... ... : ... .. 6 ... ... : ... .. . ... ... : ... .. . P80 ...
ROW DE : A-1 00 F ... ... ... : A-2 00 F ... ... ... : A-2 00 . ... : 7-# 00 8 ... : ... .. . ... ... : C-5 01 6 ... V03 : E-4 01 6 ... V03 : A-2 01 F P82 ...
ROW DF : ... .. E ... ... ... : ... .. E ... ... ... : ... .. . ... : ... .. 6 ... : ... .. . ... ... : ... .. . ... ... : ... .. . ... ... : ... .. D P83 ...
ROW E0 : ... .. D ... ... ... : ... .. D ... ... ... : ... .. . ... : ... .. 3 ... : ... .. . ... ... : ... .. 5 ... ... : ... .. 5 ... ... : ... .. 8 ... ...
ROW E1 : ... .. A ... ... ... : ... .. A ... ... ... : ... .. . ... : ... .. 1 ... : ... .. . ... ... : ... .. 4 ... ... : ... .. 4 ... ... : ... .. . P81 ...
ROW E2 : ... .. . ... ... ... : ... .. . ... ... ... : ... .. . ... : ... .. . ... : ... .. . ... ... : ... .. . ... ... : ... .. . ... ... : ... .. . P80 ...
ROW E3 : ... .. . ... ... ... : ... .. . ... ... ... : ... .. . ... : ... .. 0 ... : ... .. . ... ... : ... .. . ... ... : ... .. . ... ... : ... .. . P7D ...
ROW E4 : G-2 00 F ... ... ... : G-3 00 F ... ... ... : G-3 00 . ... : A-# 00 F ... : ... .. . ... ... : E-4 01 6 ... V05 : A-3 01 6 ... V05 : E-3 01 F ... ...
ROW E5 : ... .. E ... ... ... : ... .. E ... ... ... : ... .. . ... : ... .. C ... : ... .. . ... ... : ... .. 5 ... ... : ... .. 5 ... ... : ... .. D P7E ...
ROW E6 : ... .. D ... ... ... : ... .. D ... ... ... : ... .. . ... : ... .. 6 ... : ... .. . ... ... : ... .. . ... ... : ... .. . ... ... : ... .. 8 P80 ...
ROW E7 : ... .. A ... ... ... : ... .. A ... ... ... : ... .. . ... : ... .. 3 ... : ... .. . ... ... : ... .. 4 ... ... : ... .. 4 ... ... : ... .. . P81 ...
ROW E8 : ... .. . ... ... ... : ... .. . ... ... ... : ... .. . ... : ... .. 2 ... : ... .. . ... ... : ... .. . ... ... : ... .. . ... ... : ... .. . P83 ...
ROW E9 : ... .. . ... ... ... : ... .. . ... ... ... : ... .. . ... : ... .. 0 ... : ... .. . ... ... : ... .. . ... ... : ... .. . ... ... : ... .. . ... ...
ROW EA : A-2 00 F ... ... ... : A-3 00 F ... ... ... : A-3 00 . ... : E-# 00 8 ... : ... .. . ... ... : C-5 01 6 ... V03 : E-4 01 6 ... V03 : A-2 01 F P81 ...
ROW EB : ... .. E ... ... ... : ... .. E ... ... ... : ... .. . ... : ... .. 6 ... : ... .. . ... ... : ... .. . ... ... : ... .. . ... ... : ... .. D P80 ...
ROW EC : ... .. D ... ... ... : ... .. D ... ... ... : ... .. . ... : ... .. 3 ... : ... .. . ... ... : ... .. 5 ... ... : ... .. 5 ... ... : ... .. 8 P7E ...
ROW ED : ... .. A ... ... ... : ... .. A ... ... ... : ... .. . ... : ... .. 1 ... : ... .. . ... ... : ... .. 4 ... ... : ... .. 4 ... ... : ... .. . P7D ...
ROW EE : ... .. . ... ... ... : ... .. . ... ... ... : ... .. . ... : ... .. . ... : ... .. . ... ... : ... .. . ... ... : ... .. . ... ... : ... .. . ... ...
ROW EF : ... .. . ... ... ... : ... .. . ... ... ... : ... .. . ... : ... .. 0 ... : ... .. . ... ... : ... .. . ... ... : ... .. . ... ... : ... .. . P80 ...
ROW F0 : G-2 00 F ... ... ... : G-3 00 F ... ... ... : F#5 00 . ... : 1-# 00 F ... : ... .. . ... ... : F#5 01 6 ... V05 : F#6 01 6 ... V05 : ... .. F P81 ...
ROW F1 : ... .. E ... ... ... : ... .. E ... ... ... : G#4 00 . ... : ... .. C ... : ... .. . ... ... : ... .. 5 ... ... : ... .. 5 ... ... : ... .. D P83 ...
ROW F2 : ... .. D ... ... ... : ... .. D ... ... ... : C#4 00 . ... : ... .. 6 ... : ... .. . ... ... : ... .. . ... ... : ... .. . ... ... : ... .. 8 ... ...
ROW F3 : ... .. A ... ... ... : ... .. A ... ... ... : C-4 00 . ... : ... .. 3 ... : ... .. . ... ... : ... .. 4 ... ... : ... .. 4 ... ... : ... .. . P82 ...
ROW F4 : ... .. . ... ... ... : ... .. . ... ... ... : G-3 00 . ... : ... .. 2 ... : ... .. . ... ... : ... .. . ... ... : ... .. . ... ... : ... .. . P80 ...
ROW F5 : ... .. . ... ... ... : ... .. . ... ... ... : ... .. . ... : ... .. 0 ... : ... .. . ... ... : ... .. . ... ... : ... .. . ... ... : ... .. . P7E ...
ROW F6 : F#2 00 F ... ... ... : F#3 00 F ... ... ... : F#3 00 . ... : 9-# 00 8 ... : ... .. . ... ... : G-5 01 6 ... V03 : G-6 01 6 ... V03 : ... .. . P7D ...
ROW F7 : ... .. E ... ... ... : ... .. E ... ... ... : ... .. . ... : ... .. 6 ... : ... .. . ... ... : ... .. . ... ... : ... .. . ... ... : ... .. . ... ...
ROW F8 : ... .. D ... ... ... : ... .. D ... ... ... : ... .. . ... : ... .. 3 ... : ... .. . ... ... : ... .. 5 ... ... : ... .. 5 ... ... : ... .. . P7F ...
ROW F9 : ... .. A ... ... ... : ... .. A ... ... ... : ... .. . ... : ... .. 1 ... : ... .. . ... ... : ... .. 4 ... ... : ... .. 4 ... ... : ... .. . P81 ...
ROW FA : ... .. . ... ... ... : ... .. . ... ... ... : ... .. . ... : ... .. . ... : ... .. . ... ... : ... .. . ... ... : ... .. . ... ... : ... .. . P83 ...
ROW FB : ... .. . ... ... ... : ... .. . ... ... ... : ... .. . ... : ... .. 0 ... : ... .. . ... ... : ... .. . ... ... : ... .. . ... ... : ... .. . ... ...
ROW FC : F#1 00 F ... ... ... : F#2 00 F ... ... ... : F#2 00 . ... : B-# 00 F ... : ... .. . ... ... : F#5 01 6 ... V05 : F#6 01 6 ... V05 : ... .. . P7A ...
ROW FD : ... .. E ... ... ... : ... .. E ... ... ... : ... .. . ... : ... .. C ... : ... .. . ... ... : ... .. 5 ... ... : ... .. 5 ... ... : ... .. . P70 ...
ROW FE : ... .. D ... ... ... : ... .. D ... ... ... : ... .. . ... : ... .. 6 ... : ... .. . ... ... : ... .. . ... ... : ... .. . ... ... : G#2 01 8 P89 ...
ROW FF : ... .. A ... ... ... : ... .. A ... ... ... : ... .. . ... : ... .. 3 ... : ... .. . ... ... : ... .. 4 ... ... : ... .. 4 ... ... : ... .. . P80 ...

PATTERN 10
ROW 00 : ... .. . ... ... ... : ... .. . ... ... ... : ... .. . ... : ... .. 2 ... : ... .. . ... ... : ... .. . ... ... : ... .. . ... ... : ... .. . P78 ...
ROW 01 : ... .. . ... ... ... : ... .. . ... ... ... : ... .. . ... : ... .. 0 ... : ... .. . ... ... : ... .. . ... ... : ... .. . ... ... : ... .. . P72 ...
ROW 02 : ... .. F ... ... ... : ... .. F ... ... ... : ... .. . ... : 9-# 00 8 ... : ... .. . ... ... : C-5 01 6 ... V03 : C-6 01 6 ... V03 : G-2 01 8 P8F ...
ROW 03 : ... .. E ... ... ... : ... .. E ... ... ... : ... .. . ... : ... .. 6 ... : ... .. . ... ... : ... .. . ... ... : ... .. . ... ... : ... .. . P8A ...
ROW 04 : ... .. D ... ... ... : ... .. D ... ... ... : ... .. . ... : ... .. 3 ... : ... .. . ... ... : ... .. 5 ... ... : ... .. 5 ... ... : ... .. . P82 ...
ROW 05 : ... .. A ... ... ... : ... .. A ... ... ... : ... .. . ... : ... .. 1 ... : ... .. . ... ... : ... .. 4 ... ... : ... .. 4 ... ... : ... .. . P79 ...
ROW 06 : ... .. . ... ... ... : ... .. . ... ... ... : ... .. . ... : ... .. . ... : ... .. . ... ... : ... .. . ... ... : ... .. . ... ... : ... .. . P6F ...
ROW 07 : ... .. . ... ... ... : ... .. . ... ... ... : ... .. . ... : ... .. 0 ... : ... .. . ... ... : ... .. . ... ... : ... .. . ... ... : F#2 01 8 P8D ...
ROW 08 : E-1 00 F ... ... ... : E-2 00 F ... ... ... : D#4 00 . ... : ... .. D ... : ... .. . ... ... : F#4 01 6 ... V05 : F#5 01 6 ... V05 : ... .. . P83 ...
ROW 09 : ... .. E ... ... ... : ... .. E ... ... ... : F-3 00 . ... : ... .. B ... : ... .. . ... ... : ... .. 5 ... ... : ... .. 5 ... ... : ... .. . P7B ...
ROW 0A : ... .. D ... ... ... : ... .. D ... ... ... : A#2 00 . ... : ... .. . ... : ... .. . ... ... : ... .. . ... ... : ... .. . ... ... : ... .. . P75 ...
ROW 0B : ... .. A ... ... ... : ... .. A ... ... ... : A-2 00 . ... : ... .. A ... : ... .. . ... ... : ... .. 4 ... ... : ... .. 4 ... ... : ... .. . P6E ...
ROW 0C : ... .. . ... ... ... : ... .. . ... ... ... : E-2 00 . ... : ... .. 8 ... : ... .. . ... ... : ... .. . ... ... : ... .. . ... ... : F-2 01 8 P91 ...
ROW 0D : ... .. . ... ... ... : ... .. . ... ... ... : ... .. . ... : ... .. 7 ... : ... .. . ... ... : ... .. . ... ... : ... .. . ... ... : ... .. . P8A ...
ROW 0E : F#1 00 F ... ... ... : F#2 00 F ... ... ... : F#2 00 . ... : 7-# 00 8 ... : ... .. . ... ... : E-4 01 6 ... V03 : E-5 01 6 ... V03 : ... .. . P82 ...
ROW 0F : ... .. E ... ... ... : ... .. E ... ... ... : ... .. . ... : ... .. 6 ... : ... .. . ... ... : ... .. . ... ... : ... .. . ... ... : ... .. . P77 ...
ROW 10 : ... .. D ... ... ... : ... .. D ... ... ... : ... .. . ... : ... .. 3 ... : ... .. . ... ... : ... .. 5 ... ... : ... .. 5 ... ... : ... .. . P6E ...
ROW 11 : ... .. A ... ... ... : ... .. A ... ... ... : ... .. . ... : ... .. 1 ... : ... .. . ... ... : ... .. 4 ... ... : ... .. 4 ... ... : E-2 01 8 P90 ...
ROW 12 : ... .. . ... ... ... : ... .. . ... ... ... : ... .. . ... : ... .. . ... : ... .. . ... ... : ... .. . ... ... : ... .. . ... ... : ... .. . P88 ...
ROW 13 : ... .. . ... ... ... : ... .. . ... ... ... : ... .. . ... : ... .. 0 ... : ... .. . ... ... : ... .. . ... ... : ... .. . ... ... : ... .. . P81 ...
ROW 14 : G-2 00 F ... ... ... : G-3 00 F ... ... ... : G-3 00 . ... : A-# 00 F ... : ... .. . ... ... : C-4 01 6 ... V05 : C-5 01 6 ... V05 : ... .. . P7B ...
ROW 15 : ... .. E ... ... ... : ... .. E ... ... ... : ... .. . ... : ... .. C ... : ... .. . ... ... : ... .. 5 ... ... : ... .. 5 ... ... : ... .. . P75 ...
ROW 16 : ... .. D ... ... ... : ... .. D ... ... ... : ... .. . ... : ... .. 6 ... : ... .. . ... ... : ... .. . ... ... : ... .. . ... ... : ... .. . P6E ...
ROW 17 : ... .. A ... ... ... : ... .. A ... ... ... : ... .. . ... : ... .. 3 ... : ... .. . ... ... : ... .. 4 ... ... : ... .. 4 ... ... : D#2 01 8 P94 ...
ROW 18 : ... .. . ... ... ... : ... .. . ... ... ... : ... .. . ... : ... .. 2 ... : ... .. . ... ... : ... .. . ... ... : ... .. . ... ... : ... .. . P8A ...
ROW 19 : ... .. . ... ... ... : ... .. . ... ... ... : ... .. . ... : ... .. 0 ... : ... .. . ... ... : ... .. . ... ... : ... .. . ... ... : ... .. . P80 ...
ROW 1A : F#2 00 F ... ... ... : F#3 00 F ... ... ... : F#3 00 . ... : E-# 00 8 ... : ... .. . ... ... : A#3 01 6 ... ... : A#4 01 6 ... ... : ... .. . P76 ...
ROW 1B : ... .. E ... ... ... : ... .. E ... ... ... : ... .. . ... : ... .. 6 ... : ... .. . ... ... : ... .. 5 ... ... : ... .. 5 ... ... : ... .. . P6E ...
ROW 1C : ... .. D ... ... ... : ... .. D ... ... ... : ... .. . ... : ... .. 3 ... : ... .. . ... ... : ... .. . ... ... : ... .. . ... ... : D-2 01 8 P98 ...
ROW 1D : ... .. A ... ... ... : ... .. A ... ... ... : ... .. . ... : ... .. 1 ... : ... .. . ... ... : ... .. 4 ... ... : ... .. 4 ... ... : ... .. . P92 ...
ROW 1E : ... .. . ... ... ... : ... .. . ... ... ... : ... .. . ... : ... .. . ... : ... .. . ... ... : ... .. . ... ... : ... .. . ... ... : ... .. . P8C ...
ROW 1F : ... .. . ... ... ... : ... .. . ... ... ... : ... .. . ... : ... .. 0 ... : ... .. . ... ... : ... .. . ... ... : ... .. . ... ... : ... .. . P85 ...
ROW 20 : F#1 00 F ... ... ... : F#2 00 F ... ... ... : F-4 00 . ... : 1-# 00 F ... : ... .. . ... ... : F-3 01 6 ... V03 : F-4 01 6 ... V03 : ... .. . P7D ...
ROW 21 : ... .. E ... ... ... : ... .. E ... ... ... : G-3 00 . ... : ... .. C ... : ... .. . ... ... : ... .. . ... ... : ... .. . ... ... : ... .. . P73 ...
ROW 22 : ... .. D ... ... ... : ... .. D ... ... ... : C-3 00 . ... : ... .. 6 ... : ... .. . ... ... : ... .. 5 ... ... : ... .. 5 ... ... : ... .. . P6A ...
ROW 23 : ... .. A ... ... ... : ... .. A ... ... ... : B-2 00 . ... : ... .. 3 ... : ... .. . ... ... : ... .. 4 ... ... : ... .. 4 ... ... : C#2 01 8 P92 ...
ROW 24 : ... .. . ... ... ... : ... .. . ... ... ... : F#2 00 . ... : ... .. 2 ... : ... .. . ... ... : ... .. . ... ... : ... .. . ... ... : ... .. . P8A ...
ROW 25 : ... .. . ... ... ... : ... .. . ... ... ... : ... .. . ... : ... .. 0 ... : ... .. . ... ... : ... .. . ... ... : ... .. . ... ... : ... .. . P83 ...
ROW 26 : ... .. F ... ... ... : ... .. F ... ... ... : ... .. . ... : 9-# 00 8 ... : ... .. . ... ... : F#3 01 6 ... V05 : F#4 01 6 ... V05 : ... .. . P7D ...
ROW 27 : ... .. E ... ... ... : ... .. E ... ... ... : ... .. . ... : ... .. 6 ... : ... .. . ... ... : ... .. 5 ... ... : ... .. 5 ... ... : ... .. . P76 ...
ROW 28 : ... .. D ... ... ... : ... .. D ... ... ... : ... .. . ... : ... .. 3 ... : ... .. . ... ... : ... .. . ... ... : ... .. . ... ... : ... .. . P70 ...
ROW 29 : ... .. A ... ... ... : ... .. A ... ... ... : ... .. . ... : ... .. 1 ... : ... .. . ... ... : ... .. 4 ... ... : ... .. 4 ... ... : ... .. . P68 ...
ROW 2A : ... .. . ... ... ... : ... .. . ... ... ... : ... .. . ... : ... .. . ... : ... .. . ... ... : ... .. . ... ... : ... .. . ... ... : C-2 01 8 P95 ...
ROW 2B : ... .. . ... ... ... : ... .. . ... ... ... : ... .. . ... : ... .. 0 ... : ... .. . ... ... : ... .. . ... ... : ... .. . ... ... : ... .. . P8C ...
ROW 2C : E-1 00 F ... ... ... : E-2 00 F ... ... ... : E-2 00 . ... : 1-# 00 F ... : ... .. . ... ... : B-3 01 6 ... V03 : B-4 01 6 ... V03 : ... .. . P82 ...
ROW 2D : ... .. E ... ... ... : ... .. E ... ... ... : ... .. . ... : ... .. C ... : ... .. . ... ... : ... .. . ... ... : ... .. . ... ... : ... .. . P79 ...
ROW 2E : ... .. D ... ... ... : ... .. D ... ... ... : ... .. . ... : ... .. 6 ... : ... .. . ... ... : ... .. 5 ... ... : ... .. 5 ... ... : ... .. . P71 ...
ROW 2F : ... .. A ... ... ... : ... .. A ... ... ... : ... .. . ... : ... .. 3 ... : ... .. . ... ... : ... .. 4 ... ... : ... .. 4 ... ... : ... .. . P6C ...
ROW 30 : ... .. . ... ... ... : ... .. . ... ... ... : ... .. . ... : ... .. 2 ... : ... .. . ... ... : ... .. . ... ... : ... .. . ... ... : ... .. . P65 ...
ROW 31 : ... .. . ... ... ... : ... .. . ... ... ... : ... .. . ... : ... .. 0 ... : ... .. . ... ... : ... .. . ... ... : ... .. . ... ... : B-1 01 8 P99 ...
ROW 32 : F#1 00 F ... ... ... : F#2 00 F ... ... ... : F#2 00 . ... : 9-# 00 8 ... : ... .. . ... ... : C-4 01 6 ... V05 : C-5 01 6 ... V05 : ... .. . P91 ...
ROW 33 : ... .. E ... ... ... : ... .. E ... ... ... : ... .. . ... : ... .. 6 ... : ... .. . ... ... : ... .. 5 ... ... : ... .. 5 ... ... : ... .. . P88 ...
ROW 34 : ... .. D ... ... ... : ... .. D ... ... ... : ... .. . ... : ... .. 3 ... : ... .. . ... ... : ... .. . ... ... : ... .. . ... ... : ... .. . P7E ...
ROW 35 : ... .. A ... ... ... : ... .. A ... ... ... : ... .. . ... : ... .. 1 ... : ... .. . ... ... : ... .. 4 ... ... : ... .. 4 ... ... : ... .. . P74 ...
ROW 36 : ... .. . ... ... ... : ... .. . ... ... ... : ... .. . ... : ... .. . ... : ... .. . ... ... : ... .. . ... ... : ... .. . ... ... : ... .. . P6B ...
ROW 37 : ... .. . ... ... ... : ... .. . ... ... ... : ... .. . ... : ... .. 0 ... : ... .. . ... ... : ... .. . ... ... : ... .. . ... ... : ... .. . P63 ...
ROW 38 : D#3 00 F ... ... ... : D#4 00 F ... ... ... : D-6 00 . ... : ... .. D ... : ... .. . ... ... : F#4 01 6 ... ... : F#5 01 6 ... ... : A#1 01 8 P9B ...
ROW 39 : ... .. E ... ... ... : ... .. E ... ... ... : E-5 00 . ... : ... .. B ... : ... .. . ... ... : ... .. 5 ... ... : ... .. 5 ... ... : ... .. . P95 ...
ROW 3A : ... .. D ... ... ... : ... .. D ... ... ... : A-4 00 . ... : ... .. . ... : ... .. . ... ... : ... .. . ... ... : ... .. . ... ... : ... .. . P8F ...
ROW 3B : ... .. A ... ... ... : ... .. A ... ... ... : G#4 00 . ... : ... .. A ... : ... .. . ... ... : ... .. 4 ... ... : ... .. 4 ... ... : ... .. . P87 ...
ROW 3C : ... .. . ... ... ... : ... .. . ... ... ... : D#4 00 . ... : ... .. 8 ... : ... .. . ... ... : ... .. . ... ... : ... .. . ... ... : ... .. . P7E ...
ROW 3D : ... .. . ... ... ... : ... .. . ... ... ... : ... .. . ... : ... .. 7 ... : ... .. . ... ... : ... .. . ... ... : ... .. . ... ... : ... .. . P74 ...
ROW 3E : ... .. F ... ... ... : ... .. F ... ... ... : ... .. . ... : 7-# 00 8 ... : ... .. . ... ... : G-4 01 6 ... V03 : G-5 01 6 ... V03 : ... .. . P6A ...
ROW 3F : ... .. E ... ... ... : ... .. E ... ... ... : ... .. . ... : ... .. 6 ... : ... .. . ... ... : ... .. . ... ... : ... .. . ... ... : ... .. . P61 ...
ROW 40 : ... .. D ... ... ... : ... .. D ... ... ... : ... .. . ... : ... .. 3 ... : ... .. . ... ... : ... .. 5 ... ... : ... .. 5 ... ... : A-1 01 8 P9A ...
ROW 41 : ... .. A ... ... ... : ... .. A ... ... ... : ... .. . ... : ... .. 1 ... : ... .. . ... ... : ... .. 4 ... ... : ... .. 4 ... ... : ... .. . P94 ...
ROW 42 : ... .. . ... ... ... : ... .. . ... ... ... : ... .. . ... : ... .. . ... : ... .. . ... ... : ... .. . ... ... : ... .. . ... ... : ... .. . P8D ...
ROW 43 : ... .. . ... ... ... : ... .. . ... ... ... : ... .. . ... : ... .. 0 ... : ... .. . ... ... : ... .. . ... ... : ... .. . ... ... : ... .. . P88 ...
ROW 44 : F#3 00 F ... ... ... : F#4 00 F ... ... ... : F#4 00 . ... : A-# 00 F ... : ... .. . ... ... : B-4 01 6 ... V05 : B-5 01 6 ... V05 : ... .. . P80 ...
ROW 45 : ... .. E ... ... ... : ... .. E ... ... ... : ... .. . ... : ... .. C ... : ... .. . ... ... : ... .. 5 ... ... : ... .. 5 ... ... : ... .. . P77 ...
ROW 46 : ... .. D ... ... ... : ... .. D ... ... ... : ... .. . ... : ... .. 6 ... : ... .. . ... ... : ... .. . ... ... : ... .. . ... ... : ... .. . P6D ...
ROW 47 : ... .. A ... ... ... : ... .. A ... ... ... : ... .. . ... : ... .. 3 ... : ... .. . ... ... : ... .. 4 ... ... : ... .. 4 ... ... : ... .. . P64 ...
ROW 48 : ... .. . ... ... ... : ... .. . ... ... ... : ... .. . ... : ... .. 2 ... : ... .. . ... ... : ... .. . ... ... : ... .. . ... ... : G#1 01 8 P9F ...
ROW 49 : ... .. . ... ... ... : ... .. . ... ... ... : ... .. . ... : ... .. 0 ... : ... .. . ... ... : ... .. . ... ... : ... .. . ... ... : ... .. . P97 ...
ROW 4A : ... .. F ... ... ... : ... .. F ... ... ... : ... .. . ... : E-# 00 8 ... : ... .. . ... ... : C-5 01 6 ... V03 : C-6 01 6 ... V03 : ... .. . P91 ...
ROW 4B : ... .. E ... ... ... : ... .. E ... ... ... : ... .. . ... : ... .. 6 ... : ... .. . ... ... : ... .. . ... ... : ... .. . ... ... : ... .. . P8A ...
ROW 4C : ... .. D ... ... ... : ... .. D ... ... ... : ... .. . ... : ... .. 3 ... : ... .. . ... ... : ... .. 5 ... ... : ... .. 5 ... ... : ... .. . P84 ...
ROW 4D : ... .. A ... ... ... : ... .. A ... ... ... : ... .. . ... : ... .. 1 ... : ... .. . ... ... : ... .. 4 ... ... : ... .. 4 ... ... : ... .. . P7D ...
ROW 4E : ... .. . ... ... ... : ... .. . ... ... ... : ... .. . ... : ... .. . ... : ... .. . ... ... : ... .. . ... ... : ... .. . ... ... : ... .. . P75 ...
ROW 4F : ... .. . ... ... ... : ... .. . ... ... ... : ... .. . ... : ... .. 0 ... : ... .. . ... ... : ... .. . ... ... : ... .. . ... ... : ... .. . P6A ...
ROW 50 : F-2 00 F ... ... ... : F-3 00 F ... ... ... : E-5 00 . ... : B-# 00 F ... : === 00 . Z80 ... : G#4 01 A ... ... : C-4 01 A ... ... : F-3 01 F P7F ...
ROW 51 : ... .. E ... ... ... : ... .. E ... ... ... : F#4 00 . ... : ... .. . ... : ... .. . ... ... : ... .. 9 ... ... : ... .. 9 ... ... : ... .. D P7D ...
ROW 52 : ... .. D ... ... ... : ... .. D ... ... ... : B-3 00 . ... : ... .. . ... : ... .. . ... ... : ... .. 8 ... ... : ... .. 8 ... ... : ... .. 8 ... ...
ROW 53 : ... .. A ... ... ... : ... .. A ... ... ... : A#3 00 . ... : ... .. C ... : ... .. . ... ... : ... .. 7 ... ... : ... .. 7 ... ... : ... .. . P7E ...
ROW 54 : ... .. . ... ... ... : ... .. . ... ... ... : F-3 00 . ... : ... .. . ... : ... .. . ... ... : ... .. . ... ... : ... .. . ... ... : ... .. . P80 ...
ROW 55 : ... .. . ... ... ... : ... .. . ... ... ... : ... .. . ... : ... .. . ... : ... .. . ... ... : ... .. 6 ... ... : ... .. 6 ... ... : ... .. . P82 ...
ROW 56 : C-2 00 F ... ... ... : C-3 00 F ... ... ... : C-3 00 . ... : ... .. A ... : ... .. . ... ... : C-4 01 6 ... ... : F-3 01 6 ... ... : G#2 01 F P83 ...
ROW 57 : ... .. E ... ... ... : ... .. E ... ... ... : ... .. . ... : ... .. . ... : ... .. . ... ... : ... .. . ... ... : ... .. . ... ... : ... .. D ... ...
ROW 58 : ... .. D ... ... ... : ... .. D ... ... ... : ... .. . ... : ... .. . ... : ... .. . ... ... : ... .. 5 ... ... : ... .. 5 ... ... : ... .. 8 P81 ...
ROW 59 : ... .. A ... ... ... : ... .. A ... ... ... : ... .. . ... : ... .. 8 ... : ... .. . ... ... : ... .. 4 ... ... : ... .. 4 ... ... : ... .. . P7F ...
ROW 5A : ... .. . ... ... ... : ... .. . ... ... ... : ... .. . ... : ... .. . ... : ... .. . ... ... : ... .. . ... ... : ... .. . ... ... : ... .. . P7D ...
ROW 5B : ... .. . ... ... ... : ... .. . ... ... ... : ... .. . ... : ... .. . ... : ... .. . ... ... : ... .. . ... ... : ... .. . ... ... : ... .. . ... ...
ROW 5C : F-1 00 F ... ... ... : F-2 00 F ... ... ... : F-2 00 . ... : ... .. F ... : ... .. . ... ... : G#4 01 6 ... ... : C-4 01 6 ... ... : F-3 01 F P7E ...
ROW 5D : ... .. E ... ... ... : ... .. E ... ... ... : ... .. . ... : ... .. C ... : ... .. . ... ... : ... .. . ... ... : ... .. . ... ... : ... .. D P80 ...
ROW 5E : ... .. D ... ... ... : ... .. D ... ... ... : ... .. . ... : ... .. 6 ... : ... .. . ... ... : ... .. 5 ... ... : ... .. 5 ... ... : ... .. 8 P82 ...
ROW 5F : ... .. A ... ... ... : ... .. A ... ... ... : ... .. . ... : ... .. 3 ... : ... .. . ... ... : ... .. 4 ... ... : ... .. 4 ... ... : ... .. . P83 ...
ROW 60 : ... .. . ... ... ... : ... .. . ... ... ... : ... .. . ... : ... .. 2 ... : ... .. . ... ... : ... .. . ... ... : ... .. . ... ... : ... .. . ... ...
ROW 61 : ... .. . ... ... ... : ... .. . ... ... ... : ... .. . ... : ... .. 0 ... : ... .. . ... ... : ... .. . ... ... : ... .. . ... ... : ... .. . P81 ...
ROW 62 : F-2 00 F ... ... ... : F-3 00 F ... ... ... : E-5 00 . ... : ... .. F ... : === 00 . Z80 ... : ... .. A ... ... : ... .. A ... ... : ... .. F P80 ...
ROW 63 : ... .. E ... ... ... : ... .. E ... ... ... : F#4 00 . ... : ... .. . ... : ... .. . ... ... : ... .. 9 ... ... : ... .. 9 ... ... : ... .. D P7D ...
ROW 64 : ... .. D ... ... ... : ... .. D ... ... ... : B-3 00 . ... : ... .. . ... : ... .. . ... ... : ... .. 8 ... ... : ... .. 8 ... ... : ... .. 8 ... ...
ROW 65 : ... .. A ... ... ... : ... .. A ... ... ... : A#3 00 . ... : ... .. C ... : ... .. . ... ... : ... .. 7 ... ... : ... .. 7 ... ... : ... .. . P7E ...
ROW 66 : ... .. . ... ... ... : ... .. . ... ... ... : F-3 00 . ... : ... .. . ... : ... .. . ... ... : ... .. . ... ... : ... .. . ... ... : ... .. . P80 ...
ROW 67 : ... .. . ... ... ... : ... .. . ... ... ... : ... .. . ... : ... .. . ... : ... .. . ... ... : ... .. 6 ... ... : ... .. 6 ... ... : ... .. . P81 ...
ROW 68 : C-2 00 F ... ... ... : C-3 00 F ... ... ... : C-3 00 . ... : ... .. A ... : ... .. . ... ... : C-4 01 6 ... ... : F-3 01 6 ... ... : G#2 01 F P83 ...
ROW 69 : ... .. E ... ... ... : ... .. E ... ... ... : ... .. . ... : ... .. . ... : ... .. . ... ... : ... .. . ... ... : ... .. . ... ... : ... .. D ... ...
ROW 6A : ... .. D ... ... ... : ... .. D ... ... ... : ... .. . ... : ... .. . ... : ... .. . ... ... : ... .. 5 ... ... : ... .. 5 ... ... : ... .. 8 P81 ...
ROW 6B : ... .. A ... ... ... : ... .. A ... ... ... : ... .. . ... : ... .. 8 ... : ... .. . ... ... : ... .. 4 ... ... : ... .. 4 ... ... : ... .. . P80 ...
ROW 6C : ... .. . ... ... ... : ... .. . ... ... ... : ... .. . ... : ... .. . ... : ... .. . ... ... : ... .. . ... ... : ... .. . ... ... : ... .. . P7E ...
ROW 6D : ... .. . ... ... ... : ... .. . ... ... ... : ... .. . ... : ... .. . ... : ... .. . ... ... : ... .. . ... ... : ... .. . ... ... : ... .. . P7D ...
ROW 6E : F-1 00 F ... ... ... : F-2 00 F ... ... ... : F-2 00 . ... : ... .. F ... : ... .. . ... ... : G#4 01 6 ... ... : C-4 01 6 ... ... : F-3 01 F ... ...
ROW 6F : ... .. E ... ... ... : ... .. E ... ... ... : ... .. . ... : ... .. C ... : ... .. . ... ... : ... .. . ... ... : ... .. . ... ... : ... .. D P80 ...
ROW 70 : ... .. D ... ... ... : ... .. D ... ... ... : ... .. . ... : ... .. 6 ... : ... .. . ... ... : ... .. 5 ... ... : ... .. 5 ... ... : ... .. 8 P81 ...
ROW 71 : ... .. A ... ... ... : ... .. A ... ... ... : ... .. . ... : ... .. 3 ... : ... .. . ... ... : ... .. 4 ... ... : ... .. 4 ... ... : ... .. . P83 ...
ROW 72 : ... .. . ... ... ... : ... .. . ... ... ... : ... .. . ... : ... .. 2 ... : ... .. . ... ... : ... .. . ... ... : ... .. . ... ... : ... .. . ... ...
ROW 73 : ... .. . ... ... ... : ... .. . ... ... ... : ... .. . ... : ... .. 0 ... : ... .. . ... ... : ... .. . ... ... : ... .. . ... ... : ... .. . P82 ...
ROW 74 : F-2 00 F ... ... ... : F-3 00 F ... ... ... : E-4 00 . ... : ... .. F ... : === 00 . Z80 ... : ... .. A ... ... : ... .. A ... ... : ... .. F P80 ...
ROW 75 : ... .. E ... ... ... : ... .. E ... ... ... : F#3 00 . ... : ... .. . ... : ... .. . ... ... : ... .. 9 ... ... : ... .. 9 ... ... : ... .. D P7E ...
ROW 76 : ... .. D ... ... ... : ... .. D ... ... ... : B-2 00 . ... : ... .. . ... : ... .. . ... ... : ... .. 8 ... ... : ... .. 8 ... ... : ... .. 8 P7D ...
ROW 77 : ... .. A ... ... ... : ... .. A ... ... ... : A#2 00 . ... : ... .. C ... : ... .. . ... ... : ... .. 7 ... ... : ... .. 7 ... ... : ... .. . ... ...
ROW 78 : ... .. . ... ... ... : ... .. . ... ... ... : F-2 00 . ... : ... .. . ... : ... .. . ... ... : ... .. . ... ... : ... .. . ... ... : ... .. . P7F ...
ROW 79 : ... .. . ... ... ... : ... .. . ... ... ... : ... .. . ... : ... .. . ... : ... .. . ... ... : ... .. 6 ... ... : ... .. 6 ... ... : ... .. . P81 ...
ROW 7A : C-2 00 F ... ... ... : C-3 00 F ... ... ... : C-2 00 . ... : ... .. A ... : ... .. . ... ... : C-4 01 6 ... ... : F-3 01 6 ... ... : G#2 01 F P83 ...
ROW 7B : ... .. E ... ... ... : ... .. E ... ... ... : ... .. . ... : ... .. . ... : ... .. . ... ... : ... .. . ... ... : ... .. . ... ... : ... .. D ... ...
ROW 7C : ... .. D ... ... ... : ... .. D ... ... ... : ... .. . ... : ... .. . ... : ... .. . ... ... : ... .. 5 ... ... : ... .. 5 ... ... : ... .. 8 P82 ...
ROW 7D : ... .. A ... ... ... : ... .. A ... ... ... : ... .. . ... : ... .. 8 ... : ... .. . ... ... : ... .. 4 ... ... : ... .. 4 ... ... : ... .. . P80 ...
ROW 7E : ... .. . ... ... ... : ... .. . ... ... ... : ... .. . ... : ... .. . ... : ... .. . ... ... : ... .. . ... ... : ... .. . ... ... : ... .. . P7E ...
ROW 7F : ... .. . ... ... ... : ... .. . ... ... ... : ... .. . ... : ... .. . ... : ... .. . ... ... : ... .. . ... ... : ... .. . ... ... : ... .. . P7D ...
ROW 80 : F-1 00 F ... ... ... : F-2 00 F ... ... ... : F-1 00 . ... : ... .. F ... : ... .. . ... ... : G#4 01 6 ... ... : C-4 01 6 ... ... : F-3 01 F ... ...
ROW 81 : ... .. E ... ... ... : ... .. E ... ... ... : ... .. . ... : ... .. C ... : ... .. . ... ... : ... .. . ... ... : ... .. . ... ... : ... .. D P7F ...
ROW 82 : ... .. D ... ... ... : ... .. D ... ... ... : ... .. . ... : ... .. 6 ... : ... .. . ... ... : ... .. 5 ... ... : ... .. 5 ... ... : ... .. 8 P80 ...
ROW 83 : ... .. A ... ... ... : ... .. A ... ... ... : ... .. . ... : ... .. 3 ... : ... .. . ... ... : ... .. 4 ... ... : ... .. 4 ... ... : ... .. . P83 ...
ROW 84 : ... .. . ... ... ... : ... .. . ... ... ... : ... .. . ... : ... .. 2 ... : ... .. . ... ... : ... .. . ... ... : ... .. . ... ... : ... .. . ... ...
ROW 85 : ... .. . ... ... ... : ... .. . ... ... ... : ... .. . ... : ... .. 0 ... : ... .. . ... ... : ... .. . ... ... : ... .. . ... ... : ... .. . P82 ...
ROW 86 : F-2 00 F ... ... ... : F-3 00 F ... ... ... : E-4 00 . ... : ... .. F ... : === 00 . Z80 ... : ... .. A ... ... : ... .. A ... ... : ... .. F P80 ...
ROW 87 : ... .. E ... ... ... : ... .. E ... ... ... : F#3 00 . ... : ... .. . ... : ... .. . ... ... : ... .. 9 ... ... : ... .. 9 ... ... : ... .. D P7F ...
ROW 88 : ... .. D ... ... ... : ... .. D ... ... ... : B-2 00 . ... : ... .. . ... : ... .. . ... ... : ... .. 8 ... ... : ... .. 8 ... ... : ... .. 8 P7D ...
ROW 89 : ... .. A ... ... ... : ... .. A ... ... ... : A#2 00 . ... : ... .. C ... : ... .. . ... ... : ... .. 7 ... ... : ... .. 7 ... ... : ... .. . ... ...
ROW 8A : ... .. . ... ... ... : ... .. . ... ... ... : F-2 00 . ... : ... .. . ... : ... .. . ... ... : ... .. . ... ... : ... .. . ... ... : ... .. . P7F ...
ROW 8B : ... .. . ... ... ... : ... .. . ... ... ... : ... .. . ... : ... .. . ... : ... .. . ... ... : ... .. 6 ... ... : ... .. 6 ... ... : ... .. . P80 ...
ROW 8C : C-2 00 F ... ... ... : C-3 00 F ... ... ... : C-2 00 . ... : ... .. A ... : ... .. . ... ... : C-4 01 6 ... ... : F-3 01 6 ... ... : G#2 01 F P82 ...
ROW 8D : ... .. E ... ... ... : ... .. E ... ... ... : ... .. . ... : ... .. . ... : ... .. . ... ... : ... .. . ... ... : ... .. . ... ... : ... .. D P83 ...
ROW 8E : ... .. D ... ... ... : ... .. D ... ... ... : ... .. . ... : ... .. . ... : ... .. . ... ... : ... .. 5 ... ... : ... .. 5 ... ... : ... .. 8 ... ...
ROW 8F : ... .. A ... ... ... : ... .. A ... ... ... : ... .. . ... : ... .. 8 ... : ... .. . ... ... : ... .. 4 ... ... : ... .. 4 ... ... : ... .. . P80 ...
ROW 90 : ... .. . ... ... ... : ... .. . ... ... ... : ... .. . ... : ... .. . ... : ... .. . ... ... : ... .. . ... ... : ... .. . ... ... : ... .. . P7F ...
ROW 91 : ... .. . ... ... ... : ... .. . ... ... ... : ... .. . ... : ... .. . ... : ... .. . ... ... : ... .. . ... ... : ... .. . ... ... : ... .. . P7D ...
ROW 92 : F-1 00 F ... ... ... : F-2 00 F ... ... ... : F-1 00 . ... : ... .. F ... : ... .. . ... ... : G#4 01 6 ... ... : C-4 01 6 ... ... : F-3 01 F ... ...
ROW 93 : ... .. E ... ... ... : ... .. E ... ... ... : ... .. . ... : ... .. C ... : ... .. . ... ... : ... .. . ... ... : ... .. . ... ... : ... .. D P7E ...
ROW 94 : ... .. D ... ... ... : ... .. D ... ... ... : ... .. . ... : ... .. 6 ... : ... .. . ... ... : ... .. 5 ... ... : ... .. 5 ... ... : ... .. 8 P80 ...
ROW 95 : ... .. A ... ... ... : ... .. A ... ... ... : ... .. . ... : ... .. 3 ... : ... .. . ... ... : ... .. 4 ... ... : ... .. 4 ... ... : ... .. . P82 ...
ROW 96 : ... .. . ... ... ... : ... .. . ... ... ... : ... .. . ... : ... .. 2 ... : ... .. . ... ... : ... .. . ... ... : ... .. . ... ... : ... .. . P83 ...
ROW 97 : ... .. . ... ... ... : ... .. . ... ... ... : ... .. . ... : ... .. 0 ... : ... .. . ... ... : ... .. . ... ... : ... .. . ... ... : ... .. . ... ...
ROW 98 : D-2 00 F ... ... ... : D-3 00 F ... ... ... : C#5 00 . ... : ... .. F ... : ... .. . ... ... : F-4 01 A ... ... : A-3 01 A ... ... : D-3 01 F P81 ...
ROW 99 : ... .. E ... ... ... : ... .. E ... ... ... : D#4 00 . ... : ... .. . ... : ... .. . ... ... : ... .. 9 ... ... : ... .. 9 ... ... : ... .. D P7F ...
ROW 9A : ... .. D ... ... ... : ... .. D ... ... ... : G#3 00 . ... : ... .. . ... : ... .. . ... ... : ... .. 8 ... ... : ... .. 8 ... ... : ... .. 8 P7D ...
ROW 9B : ... .. A ... ... ... : ... .. A ... ... ... : G-3 00 . ... : ... .. C ... : ... .. . ... ... : ... .. 7 ... ... : ... .. 7 ... ... : ... .. . ... ...
ROW 9C : ... .. . ... ... ... : ... .. . ... ... ... : D-3 00 . ... : ... .. . ... : ... .. . ... ... : ... .. . ... ... : ... .. . ... ... : ... .. . P7E ...
ROW 9D : ... .. . ... ... ... : ... .. . ... ... ... : ... .. . ... : ... .. . ... : ... .. . ... ... : ... .. 6 ... ... : ... .. 6 ... ... : ... .. . P80 ...
ROW 9E : ... .. . ... ... ... : ... .. . ... ... ... : ... .. . ... : ... .. A ... : ... .. . ... ... : ... .. . ... ... : ... .. . ... ... : ... .. . P82 ...
ROW 9F : ... .. . ... ... ... : ... .. . ... ... ... : ... .. . ... : ... .. . ... : ... .. . ... ... : ... .. 5 ... ... : ... .. 5 ... ... : ... .. . P83 ...
ROW A0 : ... .. . ... ... ... : ... .. . ... ... ... : ... .. . ... : ... .. . ... : ... .. . ... ... : ... .. . ... ... : ... .. . ... ... : ... .. . ... ...
ROW A1 : ... .. . ... ... ... : ... .. . ... ... ... : ... .. . ... : ... .. 8 ... : ... .. . ... ... : ... .. . ... ... : ... .. . ... ... : ... .. . P81 ...
ROW A2 : ... .. . ... ... ... : ... .. . ... ... ... : ... .. . ... : ... .. . ... : ... .. . ... ... : ... .. . ... ... : ... .. . ... ... : ... .. . P80 ...
ROW A3 : ... .. . ... ... ... : ... .. . ... ... ... : ... .. . ... : ... .. . ... : ... .. . ... ... : ... .. . ... ... : ... .. . ... ... : ... .. . P7D ...
ROW A4 : ... .. F ... ... ... : ... .. F ... ... ... : C#5 00 . ... : ... .. F ... : ... .. . ... ... : ... .. A ... ... : ... .. A ... ... : ... .. F ... ...
ROW A5 : ... .. E ... ... ... : ... .. E ... ... ... : D#4 00 . ... : ... .. . ... : ... .. . ... ... : ... .. 9 ... ... : ... .. 9 ... ... : ... .. D P7E ...
ROW A6 : ... .. D ... ... ... : ... .. D ... ... ... : G#3 00 . ... : ... .. . ... : ... .. . ... ... : ... .. 8 ... ... : ... .. 8 ... ... : ... .. 8 P80 ...
ROW A7 : ... .. A ... ... ... : ... .. A ... ... ... : G-3 00 . ... : ... .. C ... : ... .. . ... ... : ... .. 7 ... ... : ... .. 7 ... ... : ... .. . P81 ...
ROW A8 : ... .. . ... ... ... : ... .. . ... ... ... : D-3 00 . ... : ... .. . ... : ... .. . ... ... : ... .. . ... ... : ... .. . ... ... : ... .. . P83 ...
ROW A9 : ... .. . ... ... ... : ... .. . ... ... ... : ... .. . ... : ... .. . ... : ... .. . ... ... : ... .. 6 ... ... : ... .. 6 ... ... : ... .. . ... ...
ROW AA : ... .. . ... ... ... : ... .. . ... ... ... : ... .. . ... : ... .. A ... : ... .. . ... ... : ... .. . ... ... : ... .. . ... ... : ... .. . P81 ...
ROW AB : ... .. . ... ... ... : ... .. . ... ... ... : ... .. . ... : ... .. . ... : ... .. . ... ... : ... .. 5 ... ... : ... .. 5 ... ... : ... .. . P80 ...
ROW AC : ... .. . ... ... ... : ... .. . ... ... ... : ... .. . ... : ... .. . ... : ... .. . ... ... : ... .. . ... ... : ... .. . ... ... : ... .. . P7E ...
ROW AD : ... .. 0 ... V00 ... : ... .. 0 ... V00 ... : ... .. . ... : ... .. 8 ... : ... .. . ... ... : ... .. . ... ... : ... .. . ... ... : ... .. . P7D ...
ROW AE : ... .. . ... ... ... : ... .. . ... ... ... : ... .. . ... : ... .. . ... : ... .. . ... ... : ... .. . ... ... : ... .. . ... ... : ... .. . ... ...
ROW AF : ... .. . ... ... ... : ... .. . ... ... ... : ... .. . ... : ... .. . ... : ... .. . ... ... : ... .. . ... ... : ... .. . ... ... : ... .. . P80 ...
ROW B0 : D-2 00 8 P80 V01 ... : D-3 00 8 P81 V01 ... : E-5 00 . P7F : ... .. 7 ... : ... .. . ... ... : --- .. . ... ... : --- .. . ... ... : --- .. . P84 ...
ROW B1 : ... .. 7 ... ... ... : ... .. 7 ... ... ... : C#5 00 . P80 : ... .. . ... : ... .. . ... ... : ... .. . ... ... : ... .. . ... ... : ... .. . ... ...
ROW B2 : ... .. 6 ... ... ... : ... .. 6 ... ... ... : B-4 00 . P7D : ... .. . ... : ... .. . ... ... : ... .. . ... ... : ... .. . ... ... : ... .. . ... ...
ROW B3 : ... .. 5 ... ... ... : ... .. 5 ... ... ... : G#4 00 . P84 : ... .. 6 ... : ... .. . ... ... : ... .. . ... ... : ... .. . ... ... : ... .. . ... ...
ROW B4 : ... .. . ... ... ... : ... .. . ... ... ... : E-5 00 . P7F : ... .. . ... : ... .. . ... ... : ... .. . ... ... : ... .. . ... ... : ... .. . ... ...
ROW B5 : ... .. . ... ... ... : ... .. . ... ... ... : C#5 00 . P80 : ... .. . ... : ... .. . ... ... : ... .. . ... ... : ... .. . ... ... : ... .. . ... ...
ROW B6 : ... .. . ... ... ... : ... .. . ... ... ... : B-4 00 . P7D : ... .. 5 ... : ... .. . ... ... : ... .. . ... ... : ... .. . ... ... : ... .. . ... ...
ROW B7 : ... .. . ... ... ... : ... .. . ... ... ... : G#4 00 . P84 : ... .. . ... : ... .. . ... ... : ... .. . ... ... : ... .. . ... ... : ... .. . ... ...
ROW B8 : ... .. . ... ... ... : ... .. . ... ... ... : E-5 00 . P7F : ... .. . ... : ... .. . ... ... : ... .. . ... ... : ... .. . ... ... : ... .. . ... ...
ROW B9 : ... .. 0 ... V00 ... : ... .. 0 ... V00 ... : C#5 00 . P80 : ... .. 4 ... : ... .. . ... ... : ... .. . ... ... : ... .. . ... ... : ... .. . ... ...
ROW BA : ... .. . ... ... ... : ... .. . ... ... ... : B-4 00 . P7D : ... .. . ... : ... .. . ... ... : ... .. . ... ... : ... .. . ... ... : ... .. . ... ...
ROW BB : ... .. . ... ... ... : ... .. . ... ... ... : --- .. . ... : ... .. . ... : ... .. . ... ... : ... .. . ... ... : ... .. . ... ... : ... .. . ... ...
ROW BC : D-2 00 6 P80 V01 ... : D-3 00 6 P81 V01 ... : E-5 00 . P7F : ... .. 3 ... : ... .. . ... ... : ... .. . ... ... : ... .. . ... ... : ... .. . ... ...
ROW BD : ... .. 5 ... ... ... : ... .. 5 ... ... ... : C#5 00 . P80 : ... .. . ... : ... .. . ... ... : ... .. . ... ... : ... .. . ... ... : ... .. . ... ...
ROW BE : ... .. . ... ... ... : ... .. . ... ... ... : B-4 00 . P7D : ... .. . ... : ... .. . ... ... : ... .. . ... ... : ... .. . ... ... : ... .. . ... ...
ROW BF : ... .. 4 ... ... ... : ... .. 4 ... ... ... : G#4 00 . P84 : ... .. 2 ... : ... .. . ... ... : ... .. . ... ... : ... .. . ... ... : ... .. . ... ...
ROW C0 : ... .. . ... ... ... : ... .. . ... ... ... : G-4 00 . P7D : ... .. . ... : ... .. . ... ... : ... .. . ... ... : ... .. . ... ... : ... .. . ... ...
ROW C1 : ... .. . ... ... ... : ... .. . ... ... ... : --- .. . ... : ... .. . ... : ... .. . ... ... : ... .. . ... ... : ... .. . ... ... : ... .. . ... ...
ROW C2 : ... .. . ... ... ... : ... .. . ... ... ... : B-4 00 . ... : ... .. 1 ... : ... .. . ... ... : ... .. . ... ... : ... .. . ... ... : ... .. . ... ...
ROW C3 : ... .. . ... ... ... : ... .. . ... ... ... : G#4 00 . P84 : ... .. . ... : ... .. . ... ... : ... .. . ... ... : ... .. . ... ... : ... .. . ... ...
ROW C4 : ... .. . ... ... ... : ... .. . ... ... ... : G-4 00 . P7D : ... .. . ... : ... .. . ... ... : ... .. . ... ... : ... .. . ... ... : ... .. . ... ...
ROW C5 : ... .. 0 ... V00 ... : ... .. 0 ... V00 ... : F-4 00 . P7F : ... .. 0 ... : ... .. . ... ... : ... .. . ... ... : ... .. . ... ... : ... .. . ... ...
ROW C6 : ... .. . ... ... ... : ... .. . ... ... ... : D#4 00 . P84 : ... .. . ... : ... .. . ... ... : ... .. . ... ... : ... .. . ... ... : ... .. . ... ...
ROW C7 : ... .. . ... ... ... : ... .. . ... ... ... : --- .. . ... : ... .. . ... : ... .. . ... ... : ... .. . ... ... : ... .. . ... ... : ... .. . ... ...
ROW C8 : D-2 00 4 P80 V01 ... : D-3 00 4 P81 V01 ... : B-4 00 . P7D : ... .. . ... : ... .. . ... ... : F-4 01 2 ... ... : A-3 01 2 ... ... : D-3 01 4 P7D ...
ROW C9 : ... .. 3 ... ... ... : ... .. 3 ... ... ... : G#4 00 . P84 : ... .. . ... : ... .. . ... ... : ... .. . ... ... : ... .. . ... ... : ... .. 3 ... ...
ROW CA : ... .. . ... ... ... : ... .. . ... ... ... : G-4 00 . P7D : ... .. . ... : ... .. . ... ... : ... .. . ... ... : ... .. . ... ... : ... .. 2 P7F ...
ROW CB : ... .. 2 ... ... ... : ... .. 2 ... ... ... : F-4 00 . P7F : ... .. . ... : ... .. . ... ... : ... .. . ... ... : ... .. . ... ... : ... .. . P80 ...
ROW CC : ... .. . ... ... ... : ... .. . ... ... ... : D#4 00 . P84 : ... .. . ... : ... .. . ... ... : ... .. . ... ... : ... .. . ... ... : ... .. . P82 ...
ROW CD : ... .. . ... ... ... : ... .. . ... ... ... : --- .. . ... : ... .. . ... : ... .. . ... ... : ... .. . ... ... : ... .. . ... ... : ... .. . P83 ...
ROW CE : ... .. . ... ... ... : ... .. . ... ... ... : E-4 00 . ... : ... .. . ... : ... .. . ... ... : ... .. . ... ... : ... .. . ... ... : ... .. 3 ... ...
ROW CF : ... .. . ... ... ... : ... .. . ... ... ... : D#4 00 . P7F : ... .. . ... : ... .. . ... ... : ... .. . ... ... : ... .. . ... ... : ... .. . P80 ...
ROW D0 : ... .. . ... ... ... : ... .. . ... ... ... : C#4 00 . P86 : ... .. . ... : ... .. . ... ... : ... .. . ... ... : ... .. . ... ... : ... .. . P7F ...
ROW D1 : ... .. 0 ... V00 ... : ... .. 0 ... V00 ... : C-4 00 . P83 : ... .. . ... : ... .. . ... ... : ... .. . ... ... : ... .. . ... ... : ... .. 4 P7D ...
ROW D2 : ... .. . ... ... ... : ... .. . ... ... ... : B-3 00 . P80 : ... .. . ... : ... .. . ... ... : ... .. . ... ... : ... .. . ... ... : ... .. . ... ...
ROW D3 : ... .. . ... ... ... : ... .. . ... ... ... : --- .. . ... : ... .. . ... : ... .. . ... ... : ... .. . ... ... : ... .. . ... ... : ... .. . P7E ...
ROW D4 : D-2 00 2 P80 V01 ... : D-3 00 2 P81 V01 ... : E-4 00 . P84 : ... .. . ... : ... .. . ... ... : ... .. 3 ... ... : ... .. 3 ... ... : ... .. 5 P80 ...
ROW D5 : ... .. 1 ... ... ... : ... .. 1 ... ... ... : D#4 00 . P7F : ... .. . ... : ... .. . ... ... : F#4 01 3 P7C ... : A#3 01 3 P82 ... : ... .. . P79 ...
ROW D6 : ... .. . ... ... ... : ... .. . ... ... ... : C#4 00 . P86 : ... .. . ... : ... .. . ... ... : ... .. . P81 ... : B-3 01 3 P83 ... : C#3 01 5 P8B ...
ROW D7 : ... .. . ... ... ... : ... .. . ... ... ... : C-4 00 . P83 : ... .. . ... : ... .. . ... ... : G-4 01 3 P7E ... : C-4 01 3 P86 ... : ... .. . P82 ...
ROW D8 : ... .. . ... ... ... : ... .. . ... ... ... : B-3 00 . P80 : ... .. . ... : ... .. . ... ... : ... .. . P83 ... : D-4 01 3 P7D ... : ... .. . P77 ...
ROW D9 : ... .. . ... ... ... : ... .. . ... ... ... : --- .. . ... : ... .. . ... : ... .. . ... ... : G#4 01 3 P80 ... : D#4 01 3 P82 ... : C-3 01 5 P88 ...
ROW DA : ... .. . ... ... ... : ... .. . ... ... ... : A#3 00 . P7F : ... .. . ... : ... .. . ... ... : A-4 01 4 P7D ... : F-4 01 4 P7D ... : ... .. 6 P7D ...
ROW DB : ... .. . ... ... ... : ... .. . ... ... ... : A-3 00 . P7E : ... .. . ... : ... .. . ... ... : ... .. . P82 ... : F#4 01 4 P83 ... : ... .. . P74 ...
ROW DC : ... .. . ... ... ... : ... .. . ... ... ... : G#3 00 . ... : ... .. . ... : ... .. . ... ... : A#4 01 4 P80 ... : G#4 01 4 P82 ... : B-2 01 6 P89 ...
ROW DD : ... .. 0 ... V00 ... : ... .. 0 ... V00 ... : G-3 00 . P7F : ... .. . ... : ... .. . ... ... : B-4 01 5 P7E ... : A#4 01 5 ... ... : ... .. 8 P82 ...
ROW DE : ... .. . ... ... ... : ... .. . ... ... ... : F#3 00 . P81 : ... .. . ... : ... .. . ... ... : ... .. . P83 ... : C-5 01 5 P81 ... : ... .. . P7B ...
ROW DF : ... .. . ... ... ... : ... .. . ... ... ... : F-3 00 . P84 : ... .. . ... : ... .. . ... ... : C-5 01 5 P80 ... : ... .. . ... ... : ... .. . P73 ...
ROW E0 : A-4 00 F P80 V01 ... : A-1 00 F P81 V01 ... : G#4 00 . P80 : C-# 00 E ... : ... .. . ... ... : A-5 01 4 ... V05 : ... .. 4 ... V05 : A-2 01 F P83 ...
ROW E1 : ... .. E ... ... ... : ... .. E ... ... ... : A#3 00 . ... : ... .. D ... : ... .. . ... ... : ... .. . ... ... : ... .. . ... ... : ... .. D P81 ...
ROW E2 : ... .. D ... ... ... : ... .. D ... ... ... : D#3 00 . ... : ... .. . ... : ... .. . ... ... : ... .. . ... ... : ... .. . ... ... : ... .. 8 P80 ...
ROW E3 : ... .. A ... ... ... : ... .. A ... ... ... : D-3 00 . ... : ... .. C ... : ... .. . ... ... : ... .. . ... ... : ... .. . ... ... : ... .. . P7D ...
ROW E4 : ... .. . ... ... ... : ... .. . ... ... ... : A-2 00 . ... : ... .. B ... : ... .. . ... ... : ... .. 3 ... ... : ... .. 3 ... ... : ... .. . ... ...
ROW E5 : ... .. . ... ... ... : ... .. . ... ... ... : ... .. . ... : ... .. . ... : ... .. . ... ... : ... .. . ... ... : ... .. . ... ... : ... .. . P7E ...
ROW E6 : E-4 00 F ... ... ... : ... .. . ... ... ... : ... .. . ... : ... .. A ... : ... .. . ... ... : A-4 01 4 ... ... : A-4 01 4 ... ... : ... .. . P80 ...
ROW E7 : ... .. E ... ... ... : ... .. . ... ... ... : ... .. . ... : ... .. . ... : ... .. . ... ... : ... .. . ... ... : ... .. . ... ... : ... .. . P81 ...
ROW E8 : ... .. D ... ... ... : ... .. . ... ... ... : ... .. . ... : ... .. 9 ... : ... .. . ... ... : ... .. . ... ... : ... .. . ... ... : ... .. . P83 ...
ROW E9 : A-4 00 8 ... ... ... : ... .. . ... ... ... : G#2 00 . P7F : ... .. 8 ... : ... .. . ... ... : ... .. . ... ... : ... .. . ... ... : ... .. . ... ...
ROW EA : ... .. 7 ... ... ... : ... .. . ... ... ... : G-2 00 . ... : ... .. . ... : ... .. . ... ... : ... .. 3 ... ... : ... .. 3 ... ... : ... .. . P81 ...
ROW EB : ... .. 6 ... ... ... : ... .. . ... ... ... : F#2 00 . P81 : ... .. 7 ... : ... .. . ... ... : ... .. . ... ... : ... .. . ... ... : ... .. . P80 ...
ROW EC : A-3 00 F ... ... ... : ... .. . ... ... ... : F-2 00 . P85 : ... .. 6 ... : ... .. . ... ... : A-5 01 4 ... ... : C-5 01 4 ... ... : ... .. . P7E ...
ROW ED : ... .. E ... ... ... : ... .. . ... ... ... : E-2 00 . P8B : ... .. . ... : ... .. . ... ... : ... .. . ... ... : ... .. . ... ... : ... .. . P7D ...
ROW EE : ... .. D ... ... ... : ... .. . ... ... ... : D#2 00 . P93 : ... .. 5 ... : ... .. . ... ... : ... .. . ... ... : ... .. . ... ... : ... .. . ... ...
ROW EF : E-4 00 8 ... ... ... : ... .. . ... ... ... : ... .. . P73 : ... .. . ... : ... .. . ... ... : ... .. . ... ... : ... .. . ... ... : ... .. . P80 ...
ROW F0 : ... .. 7 ... ... ... : ... .. . ... ... ... : D-2 00 . P7E : ... .. 4 ... : ... .. . ... ... : ... .. 3 ... ... : ... .. 3 ... ... : ... .. . P81 ...
ROW F1 : ... .. 6 ... ... ... : ... .. . ... ... ... : C#2 00 . P8B : ... .. 3 ... : ... .. . ... ... : ... .. . ... ... : ... .. . ... ... : ... .. . P83 ...
ROW F2 : A-4 00 F ... ... ... : ... .. . ... ... ... : G#3 00 . P80 : 1-# 00 F ... : ... .. . ... ... : A-4 01 4 ... ... : A-4 01 4 ... ... : ... .. . ... ...
ROW F3 : ... .. E ... ... ... : ... .. . ... ... ... : A#2 00 . ... : ... .. C ... : ... .. . ... ... : ... .. . ... ... : ... .. . ... ... : ... .. . P82 ...
ROW F4 : ... .. D ... ... ... : ... .. . ... ... ... : D#2 00 . ... : ... .. 6 ... : ... .. . ... ... : ... .. . ... ... : ... .. . ... ... : ... .. . P80 ...
ROW F5 : A-3 00 8 ... ... ... : ... .. . ... ... ... : D-2 00 . ... : ... .. 3 ... : ... .. . ... ... : ... .. . ... ... : ... .. . ... ... : ... .. . P7E ...
ROW F6 : ... .. 7 ... ... ... : ... .. . ... ... ... : A-1 00 . ... : ... .. 2 ... : ... .. . ... ... : ... .. 3 ... ... : ... .. 3 ... ... : ... .. . P7D ...
ROW F7 : ... .. 6 ... ... ... : ... .. . ... ... ... : ... .. . ... : ... .. 0 ... : ... .. . ... ... : ... .. . ... ... : ... .. . ... ... : ... .. . ... ...
ROW F8 : E-4 00 F ... ... ... : ... .. . ... ... ... : ... .. . ... : 5-# 00 F ... : ... .. . ... ... : A-5 01 4 ... ... : C-5 01 4 ... ... : ... .. . P7F ...
ROW F9 : ... .. E ... ... ... : ... .. . ... ... ... : ... .. . ... : ... .. C ... : ... .. . ... ... : ... .. . ... ... : ... .. . ... ... : ... .. . P81 ...
ROW FA : ... .. D ... ... ... : ... .. . ... ... ... : ... .. . ... : ... .. 6 ... : ... .. . ... ... : ... .. . ... ... : ... .. . ... ... : ... .. . P83 ...
ROW FB : A-4 00 8 ... ... ... : ... .. . ... ... ... : ... .. . ... : ... .. 3 ... : ... .. . ... ... : ... .. . ... ... : ... .. . ... ... : ... .. . ... ...
ROW FC : ... .. 7 ... ... ... : ... .. . ... ... ... : ... .. . ... : ... .. 2 ... : ... .. . ... ... : ... .. 3 ... ... : ... .. 3 ... ... : ... .. . P82 ...
ROW FD : ... .. 6 ... ... ... : ... .. . ... ... ... : ... .. . ... : ... .. 0 ... : ... .. . ... ... : ... .. . ... ... : ... .. . ... ... : ... .. . P80 ...
ROW FE : A-3 00 F ... ... ... : ... .. . ... ... ... : ... .. . ... : B-# 00 F ... : ... .. . ... ... : A-4 01 4 ... ... : A-4 01 4 ... ... : ... .. . P7E ...
ROW FF : ... .. E ... ... ... : ... .. . ... ... ... : ... .. . ... : ... .. C ... : ... .. . ... ... : ... .. . ... ... : ... .. . ... ... : ... .. . P7D ...

PATTERN 11
ROW 00 : ... .. D ... ... ... : ... .. . ... ... ... : ... .. . ... : ... .. 6 ... : ... .. . ... ... : ... .. . ... ... : ... .. . ... ... : ... .. . ... ...
ROW 01 : E-4 00 8 ... ... ... : ... .. . ... ... ... : ... .. . ... : ... .. 3 ... : ... .. . ... ... : ... .. . ... ... : ... .. . ... ... : ... .. . P7F ...
ROW 02 : ... .. 7 ... ... ... : ... .. . ... ... ... : ... .. . ... : ... .. 2 ... : ... .. . ... ... : ... .. 3 ... ... : ... .. 3 ... ... : ... .. . P80 ...
ROW 03 : ... .. 6 ... ... ... : ... .. . ... ... ... : ... .. . ... : ... .. 0 ... : ... .. . ... ... : ... .. . ... ... : ... .. . ... ... : ... .. . P83 ...
ROW 04 : A-4 00 F ... ... ... : D#1 00 F ... ... ... : D-4 00 . ... : 1-# 00 F ... : ... .. . ... ... : A-5 01 4 ... ... : C-5 01 4 ... ... : ... .. . ... ...
ROW 05 : ... .. E ... ... ... : ... .. E ... ... ... : E-3 00 . ... : ... .. C ... : ... .. . ... ... : ... .. . ... ... : ... .. . ... ... : ... .. . P82 ...
ROW 06 : ... .. D ... ... ... : ... .. D ... ... ... : A-2 00 . ... : ... .. 6 ... : ... .. . ... ... : ... .. . ... ... : ... .. . ... ... : ... .. . P80 ...
ROW 07 : A-3 00 8 ... ... ... : ... .. A ... ... ... : G#2 00 . ... : ... .. 3 ... : ... .. . ... ... : ... .. . ... ... : ... .. . ... ... : ... .. . P7F ...
ROW 08 : ... .. 7 ... ... ... : ... .. . ... ... ... : D#2 00 . ... : ... .. 2 ... : ... .. . ... ... : ... .. 3 ... ... : ... .. 3 ... ... : ... .. . P7D ...
ROW 09 : ... .. 6 ... ... ... : ... .. . ... ... ... : ... .. . ... : ... .. 0 ... : ... .. . ... ... : ... .. . ... ... : ... .. . ... ... : ... .. . ... ...
ROW 0A : D#4 00 F ... ... ... : ... .. . ... ... ... : D-4 00 . ... : B-# 00 F ... : ... .. . ... ... : A-4 01 4 ... ... : A-4 01 4 ... ... : ... .. . P7F ...
ROW 0B : ... .. E ... ... ... : ... .. . ... ... ... : E-3 00 . ... : ... .. C ... : ... .. . ... ... : ... .. . ... ... : ... .. . ... ... : ... .. . P80 ...
ROW 0C : ... .. D ... ... ... : ... .. . ... ... ... : A-2 00 . ... : ... .. 6 ... : ... .. . ... ... : ... .. . ... ... : ... .. . ... ... : ... .. . P82 ...
ROW 0D : A-4 00 8 ... ... ... : ... .. . ... ... ... : G#2 00 . ... : ... .. 3 ... : ... .. . ... ... : ... .. . ... ... : ... .. . ... ... : ... .. . P83 ...
ROW 0E : ... .. 7 ... ... ... : ... .. . ... ... ... : D#2 00 . ... : ... .. 2 ... : ... .. . ... ... : ... .. 3 ... ... : ... .. 3 ... ... : ... .. . ... ...
ROW 0F : ... .. 6 ... ... ... : ... .. . ... ... ... : ... .. . ... : ... .. 0 ... : ... .. . ... ... : ... .. . ... ... : ... .. . ... ... : ... .. . P80 ...
ROW 10 : A-3 00 F ... ... ... : ... .. . ... ... ... : ... .. . ... : ... .. F ... : ... .. . ... ... : A-5 01 4 ... ... : C-5 01 4 ... ... : ... .. . P83 ...
ROW 11 : ... .. E ... ... ... : ... .. . ... ... ... : ... .. . ... : ... .. C ... : ... .. . ... ... : ... .. . ... ... : ... .. . ... ... : ... .. . P85 ...
ROW 12 : ... .. D ... ... ... : ... .. . ... ... ... : ... .. . ... : ... .. 6 ... : ... .. . ... ... : ... .. . ... ... : ... .. . ... ... : ... .. . P89 ...
ROW 13 : D#4 00 8 ... ... ... : ... .. . ... ... ... : ... .. . ... : ... .. 3 ... : ... .. . ... ... : ... .. . ... ... : ... .. . ... ... : ... .. . P8E ...
ROW 14 : ... .. 7 ... ... ... : ... .. . ... ... ... : ... .. . ... : ... .. 2 ... : ... .. . ... ... : ... .. 3 ... ... : ... .. 3 ... ... : A#2 01 8 P73 ...
ROW 15 : ... .. 6 ... ... ... : ... .. . ... ... ... : ... .. . ... : ... .. 0 ... : ... .. . ... ... : ... .. . ... ... : ... .. . ... ... : ... .. . P79 ...
ROW 16 : A-4 00 F ... ... ... : ... .. . ... ... ... : D-4 00 . ... : ... .. F ... : ... .. . ... ... : A-4 01 4 ... ... : A-4 01 4 ... ... : ... .. . P7E ...
ROW 17 : ... .. E ... ... ... : ... .. . ... ... ... : E-3 00 . ... : ... .. C ... : ... .. . ... ... : ... .. . ... ... : ... .. . ... ... : ... .. . P82 ...
ROW 18 : ... .. D ... ... ... : ... .. . ... ... ... : A-2 00 . ... : ... .. 6 ... : ... .. . ... ... : ... .. . ... ... : ... .. . ... ... : ... .. . P84 ...
ROW 19 : A-3 00 8 ... ... ... : ... .. . ... ... ... : G#2 00 . ... : ... .. 3 ... : ... .. . ... ... : ... .. . ... ... : ... .. . ... ... : ... .. . P86 ...
ROW 1A : ... .. 7 ... ... ... : ... .. . ... ... ... : D#2 00 . ... : ... .. 2 ... : ... .. . ... ... : ... .. 3 ... ... : ... .. 3 ... ... : ... .. . P88 ...
ROW 1B : ... .. 6 ... ... ... : ... .. . ... ... ... : ... .. . ... : ... .. 0 ... : ... .. . ... ... : ... .. . ... ... : ... .. . ... ... : ... .. . P8C ...
ROW 1C : D#4 00 F ... ... ... : ... .. . ... ... ... : D-4 00 . ... : 5-# 00 F ... : ... .. . ... ... : A-5 01 4 ... ... : C-5 01 4 ... ... : B-2 01 8 P73 ...
ROW 1D : ... .. E ... ... ... : ... .. . ... ... ... : E-3 00 . ... : ... .. C ... : ... .. . ... ... : ... .. . ... ... : ... .. . ... ... : ... .. . P79 ...
ROW 1E : ... .. D ... ... ... : ... .. . ... ... ... : A-2 00 . ... : ... .. 6 ... : ... .. . ... ... : ... .. . ... ... : ... .. . ... ... : ... .. . P7F ...
ROW 1F : A-4 00 8 ... ... ... : ... .. . ... ... ... : G#2 00 . ... : ... .. 3 ... : ... .. . ... ... : ... .. . ... ... : ... .. . ... ... : ... .. . P84 ...
ROW 20 : ... .. 7 ... ... ... : ... .. . ... ... ... : D#2 00 . ... : ... .. 2 ... : ... .. . ... ... : ... .. 3 ... ... : ... .. 3 ... ... : ... .. . P88 ...
ROW 21 : ... .. 6 ... ... ... : ... .. . ... ... ... : ... .. . ... : ... .. 0 ... : ... .. . ... ... : ... .. . ... ... : ... .. . ... ... : ... .. . P8A ...
ROW 22 : A-3 00 F ... ... ... : ... .. . ... ... ... : ... .. . ... : ... .. F ... : ... .. . ... ... : A-4 01 4 ... ... : A-4 01 4 ... ... : ... .. . P8D ...
ROW 23 : ... .. E ... ... ... : ... .. . ... ... ... : ... .. . ... : ... .. C ... : ... .. . ... ... : ... .. . ... ... : ... .. . ... ... : ... .. . P8E ...
ROW 24 : ... .. D ... ... ... : ... .. . ... ... ... : ... .. . ... : ... .. 6 ... : ... .. . ... ... : ... .. . ... ... : ... .. . ... ... : C-3 01 8 P75 ...
ROW 25 : D#4 00 8 ... ... ... : ... .. . ... ... ... : ... .. . ... : ... .. 3 ... : ... .. . ... ... : ... .. . ... ... : ... .. . ... ... : ... .. . P7A ...
ROW 26 : ... .. 7 ... ... ... : ... .. . ... ... ... : ... .. . ... : ... .. 2 ... : ... .. . ... ... : ... .. 3 ... ... : ... .. 3 ... ... : ... .. . P80 ...
ROW 27 : ... .. 6 ... ... ... : ... .. . ... ... ... : ... .. . ... : ... .. 0 ... : ... .. . ... ... : ... .. . ... ... : ... .. . ... ... : ... .. . P85 ...
ROW 28 : A-4 00 F ... ... ... : C-1 00 F ... ... ... : B-3 00 . ... : 1-# 00 F ... : ... .. . ... ... : A-5 01 4 ... ... : C-5 01 4 ... ... : ... .. . P8B ...
ROW 29 : ... .. E ... ... ... : ... .. E ... ... ... : C#3 00 . ... : ... .. C ... : ... .. . ... ... : ... .. . ... ... : ... .. . ... ... : C#3 01 8 P73 ...
ROW 2A : ... .. D ... ... ... : ... .. D ... ... ... : F#2 00 . ... : ... .. 6 ... : ... .. . ... ... : ... .. . ... ... : ... .. . ... ... : ... .. . P75 ...
ROW 2B : A-3 00 8 ... ... ... : ... .. A ... ... ... : F-2 00 . ... : ... .. 3 ... : ... .. . ... ... : ... .. . ... ... : ... .. . ... ... : ... .. . P78 ...
ROW 2C : ... .. 7 ... ... ... : ... .. . ... ... ... : C-2 00 . ... : ... .. 2 ... : ... .. . ... ... : ... .. 3 ... ... : ... .. 3 ... ... : ... .. . P7A ...
ROW 2D : ... .. 6 ... ... ... : ... .. . ... ... ... : ... .. . ... : ... .. 0 ... : ... .. . ... ... : ... .. . ... ... : ... .. . ... ... : ... .. . P7D ...
ROW 2E : E-4 00 F ... ... ... : ... .. . ... ... ... : ... .. . ... : B-# 00 F ... : ... .. . ... ... : A-4 01 4 ... ... : A-4 01 4 ... ... : ... .. . P81 ...
ROW 2F : ... .. E ... ... ... : ... .. . ... ... ... : ... .. . ... : ... .. C ... : ... .. . ... ... : ... .. . ... ... : ... .. . ... ... : ... .. . P88 ...
ROW 30 : ... .. D ... ... ... : ... .. . ... ... ... : ... .. . ... : ... .. 6 ... : ... .. . ... ... : ... .. . ... ... : ... .. . ... ... : ... .. . P8D ...
ROW 31 : A-4 00 8 ... ... ... : ... .. . ... ... ... : ... .. . ... : ... .. 3 ... : ... .. . ... ... : ... .. . ... ... : ... .. . ... ... : D-3 01 8 P79 ...
ROW 32 : ... .. 7 ... ... ... : ... .. . ... ... ... : ... .. . ... : ... .. 2 ... : ... .. . ... ... : ... .. 3 ... ... : ... .. 3 ... ... : ... .. . P7D ...
ROW 33 : ... .. 6 ... ... ... : ... .. . ... ... ... : ... .. . ... : ... .. 0 ... : ... .. . ... ... : ... .. . ... ... : ... .. . ... ... : ... .. . P80 ...
ROW 34 : A-3 00 F ... ... ... : ... .. . ... ... ... : ... .. . ... : ... .. F ... : ... .. . ... ... : A-5 01 4 ... ... : C-5 01 4 ... ... : ... .. . P82 ...
ROW 35 : ... .. E ... ... ... : ... .. . ... ... ... : ... .. . ... : ... .. C ... : ... .. . ... ... : ... .. . ... ... : ... .. . ... ... : ... .. . P84 ...
ROW 36 : ... .. D ... ... ... : ... .. . ... ... ... : ... .. . ... : ... .. 6 ... : ... .. . ... ... : ... .. . ... ... : ... .. . ... ... : ... .. . P87 ...
ROW 37 : E-4 00 8 ... ... ... : ... .. . ... ... ... : ... .. . ... : ... .. 3 ... : ... .. . ... ... : ... .. . ... ... : ... .. . ... ... : ... .. . P8B ...
ROW 38 : ... .. 7 ... ... ... : ... .. . ... ... ... : ... .. . ... : ... .. 2 ... : ... .. . ... ... : ... .. 3 ... ... : ... .. 3 ... ... : D#3 01 8 P79 ...
ROW 39 : ... .. 6 ... ... ... : ... .. . ... ... ... : ... .. . ... : ... .. 0 ... : ... .. . ... ... : ... .. . ... ... : ... .. . ... ... : ... .. . P7F ...
ROW 3A : A-4 00 F ... ... ... : ... .. . ... ... ... : B-4 00 . ... : 1-# 00 F ... : ... .. . ... ... : A-4 01 4 ... ... : A-4 01 4 ... ... : ... .. . P85 ...
ROW 3B : ... .. E ... ... ... : ... .. . ... ... ... : C#4 00 . ... : ... .. C ... : ... .. . ... ... : ... .. . ... ... : ... .. . ... ... : ... .. . P89 ...
ROW 3C : ... .. D ... ... ... : ... .. . ... ... ... : F#3 00 . ... : ... .. 6 ... : ... .. . ... ... : ... .. . ... ... : ... .. . ... ... : E-3 01 8 P75 ...
ROW 3D : A-3 00 8 ... ... ... : ... .. . ... ... ... : F-3 00 . ... : ... .. 3 ... : ... .. . ... ... : ... .. . ... ... : ... .. . ... ... : ... .. . P77 ...
ROW 3E : ... .. 7 ... ... ... : ... .. . ... ... ... : C-3 00 . ... : ... .. 2 ... : ... .. . ... ... : ... .. 3 ... ... : ... .. 3 ... ... : ... .. . P79 ...
ROW 3F : ... .. 6 ... ... ... : ... .. . ... ... ... : ... .. . ... : ... .. 0 ... : ... .. . ... ... : ... .. . ... ... : ... .. . ... ... : ... .. . P7C ...
ROW 40 : E-4 00 F ... ... ... : ... .. . ... ... ... : ... .. . ... : 5-# 00 F ... : ... .. . ... ... : A-5 01 4 ... ... : C-5 01 4 ... ... : ... .. . P80 ...
ROW 41 : ... .. E ... ... ... : ... .. . ... ... ... : ... .. . ... : ... .. C ... : ... .. . ... ... : ... .. . ... ... : ... .. . ... ... : ... .. . P86 ...
ROW 42 : ... .. D ... ... ... : ... .. . ... ... ... : ... .. . ... : ... .. 6 ... : ... .. . ... ... : ... .. . ... ... : ... .. . ... ... : ... .. . P8B ...
ROW 43 : A-4 00 8 ... ... ... : ... .. . ... ... ... : ... .. . ... : ... .. 3 ... : ... .. . ... ... : ... .. . ... ... : ... .. . ... ... : F-3 01 8 P7C ...
ROW 44 : ... .. 7 ... ... ... : ... .. . ... ... ... : ... .. . ... : ... .. 2 ... : ... .. . ... ... : ... .. 3 ... ... : ... .. 3 ... ... : ... .. . P80 ...
ROW 45 : ... .. 6 ... ... ... : ... .. . ... ... ... : ... .. . ... : ... .. 0 ... : ... .. . ... ... : ... .. . ... ... : ... .. . ... ... : ... .. . P83 ...
ROW 46 : A-3 00 F ... ... ... : ... .. . ... ... ... : ... .. . ... : B-# 00 F ... : ... .. . ... ... : A-4 01 4 ... ... : A-4 01 4 ... ... : ... .. . P85 ...
ROW 47 : ... .. E ... ... ... : ... .. . ... ... ... : ... .. . ... : ... .. C ... : ... .. . ... ... : ... .. . ... ... : ... .. . ... ... : ... .. . P88 ...
ROW 48 : ... .. D ... ... ... : ... .. . ... ... ... : ... .. . ... : ... .. 6 ... : ... .. . ... ... : ... .. . ... ... : ... .. . ... ... : ... .. . P8A ...
ROW 49 : E-4 00 8 ... ... ... : ... .. . ... ... ... : ... .. . ... : ... .. 3 ... : ... .. . ... ... : ... .. . ... ... : ... .. . ... ... : F#3 01 8 P7A ...
ROW 4A : ... .. 7 ... ... ... : ... .. . ... ... ... : ... .. . ... : ... .. 2 ... : ... .. . ... ... : ... .. 3 ... ... : ... .. 3 ... ... : ... .. . P80 ...
ROW 4B : ... .. 6 ... ... ... : ... .. . ... ... ... : ... .. . ... : ... .. 0 ... : ... .. . ... ... : ... .. . ... ... : ... .. . ... ... : ... .. . P85 ...
ROW 4C : A-4 00 F ... ... ... : A#0 00 F ... ... ... : A-4 00 . ... : 1-# 00 F ... : ... .. . ... ... : --- .. . ... ... : C-5 01 4 ... ... : G-3 01 8 P77 ...
ROW 4D : ... .. E ... ... ... : ... .. E ... ... ... : B-3 00 . ... : ... .. C ... : ... .. . ... ... : ... .. . ... ... : ... .. . ... ... : ... .. . P7C ...
ROW 4E : ... .. D ... ... ... : ... .. D ... ... ... : E-3 00 . ... : ... .. 6 ... : ... .. . ... ... : ... .. . ... ... : ... .. . ... ... : ... .. . P80 ...
ROW 4F : A-3 00 8 ... ... ... : ... .. A ... ... ... : D#3 00 . ... : ... .. 3 ... : ... .. . ... ... : ... .. . ... ... : ... .. . ... ... : ... .. . P81 ...
ROW 50 : ... .. 7 ... ... ... : ... .. . ... ... ... : A#2 00 . ... : ... .. 2 ... : ... .. . ... ... : ... .. . ... ... : ... .. 3 ... ... : ... .. . P84 ...
ROW 51 : ... .. 6 ... ... ... : ... .. . ... ... ... : ... .. . ... : ... .. 0 ... : ... .. . ... ... : ... .. . ... ... : ... .. . ... ... : ... .. . P86 ...
ROW 52 : D#4 00 F ... ... ... : ... .. . ... ... ... : A-4 00 . ... : B-# 00 F ... : ... .. . ... ... : ... .. . ... ... : A-4 01 4 ... ... : G#3 01 8 P78 ...
ROW 53 : ... .. E ... ... ... : ... .. . ... ... ... : B-3 00 . ... : ... .. C ... : ... .. . ... ... : ... .. . ... ... : ... .. . ... ... : ... .. . P7D ...
ROW 54 : ... .. D ... ... ... : ... .. . ... ... ... : E-3 00 . ... : ... .. 6 ... : ... .. . ... ... : ... .. . ... ... : ... .. . ... ... : ... .. . P83 ...
ROW 55 : A-4 00 8 ... ... ... : ... .. . ... ... ... : D#3 00 . ... : ... .. 3 ... : ... .. . ... ... : ... .. . ... ... : ... .. . ... ... : A-3 01 8 P78 ...
ROW 56 : ... .. 7 ... ... ... : ... .. . ... ... ... : A#2 00 . ... : ... .. 2 ... : ... .. . ... ... : ... .. . ... ... : ... .. 3 ... ... : ... .. . P7D ...
ROW 57 : ... .. 6 ... ... ... : ... .. . ... ... ... : ... .. . ... : ... .. 0 ... : ... .. . ... ... : ... .. . ... ... : ... .. . ... ... : ... .. . P81 ...
ROW 58 : A-3 00 F ... ... ... : ... .. . ... ... ... : ... .. . ... : ... .. F ... : ... .. . ... ... : ... .. . ... ... : C-5 01 4 ... ... : ... .. . P83 ...
ROW 59 : ... .. E ... ... ... : ... .. . ... ... ... : ... .. . ... : ... .. C ... : ... .. . ... ... : ... .. . ... ... : ... .. . ... ... : ... .. . P85 ...
ROW 5A : ... .. D ... ... ... : ... .. . ... ... ... : ... .. . ... : ... .. 6 ... : ... .. . ... ... : ... .. . ... ... : ... .. . ... ... : ... .. . P87 ...
ROW 5B : D#4 00 8 ... ... ... : ... .. . ... ... ... : ... .. . ... : ... .. 3 ... : ... .. . ... ... : ... .. . ... ... : ... .. . ... ... : A#3 01 8 P7A ...
ROW 5C : ... .. 7 ... ... ... : ... .. . ... ... ... : ... .. . ... : ... .. 2 ... : ... .. . ... ... : ... .. . ... ... : ... .. 3 ... ... : ... .. . P7F ...
ROW 5D : ... .. 6 ... ... ... : ... .. . ... ... ... : ... .. . ... : ... .. 0 ... : ... .. . ... ... : ... .. . ... ... : ... .. . ... ... : ... .. . P85 ...
ROW 5E : A-4 00 F ... ... ... : ... .. . ... ... ... : A-3 00 . ... : 9-# 00 F ... : ... .. . ... ... : ... .. . ... ... : A-4 01 4 ... ... : B-3 01 8 P7C ...
ROW 5F : ... .. E ... ... ... : ... .. . ... ... ... : B-2 00 . ... : ... .. C ... : ... .. . ... ... : ... .. . ... ... : ... .. . ... ... : ... .. . P81 ...
ROW 60 : ... .. D ... ... ... : ... .. . ... ... ... : E-2 00 . ... : ... .. 6 ... : ... .. . ... ... : ... .. . ... ... : ... .. . ... ... : ... .. . P85 ...
ROW 61 : A-3 00 8 ... ... ... : ... .. . ... ... ... : D#2 00 . ... : ... .. 3 ... : ... .. . ... ... : ... .. . ... ... : ... .. . ... ... : ... .. . P87 ...
ROW 62 : ... .. 7 ... ... ... : ... .. . ... ... ... : A#1 00 . ... : ... .. 2 ... : ... .. . ... ... : ... .. . ... ... : ... .. 3 ... ... : C-4 01 8 P7B ...
ROW 63 : ... .. 6 ... ... ... : ... .. . ... ... ... : ... .. . ... : ... .. 0 ... : ... .. . ... ... : ... .. . ... ... : ... .. . ... ... : ... .. . P7C ...
ROW 64 : D#4 00 F ... ... ... : ... .. . ... ... ... : A-3 00 . ... : 7-# 00 F ... : ... .. . ... ... : ... .. . ... ... : C-5 01 4 ... ... : ... .. . P80 ...
ROW 65 : ... .. E ... ... ... : ... .. . ... ... ... : B-2 00 . ... : ... .. C ... : ... .. . ... ... : ... .. . ... ... : ... .. . ... ... : ... .. . P85 ...
ROW 66 : ... .. D ... ... ... : ... .. . ... ... ... : E-2 00 . ... : ... .. 6 ... : ... .. . ... ... : ... .. . ... ... : ... .. . ... ... : C#4 01 8 P7E ...
ROW 67 : A-4 00 8 ... ... ... : ... .. . ... ... ... : D#2 00 . ... : ... .. 3 ... : ... .. . ... ... : ... .. . ... ... : ... .. . ... ... : ... .. . P83 ...
ROW 68 : ... .. 7 ... ... ... : ... .. . ... ... ... : A#1 00 . ... : ... .. 2 ... : ... .. . ... ... : ... .. . ... ... : ... .. 3 ... ... : D-4 01 8 P7C ...
ROW 69 : ... .. 6 ... ... ... : ... .. . ... ... ... : ... .. . ... : ... .. 0 ... : ... .. . ... ... : ... .. . ... ... : ... .. . ... ... : ... .. . P80 ...
ROW 6A : A-3 00 F ... ... ... : ... .. . ... ... ... : ... .. . ... : 5-# 00 F ... : ... .. . ... ... : ... .. . ... ... : A-4 01 4 ... ... : ... .. . P82 ...
ROW 6B : ... .. E ... ... ... : ... .. . ... ... ... : ... .. . ... : ... .. C ... : ... .. . ... ... : ... .. . ... ... : ... .. . ... ... : ... .. . P85 ...
ROW 6C : ... .. D ... ... ... : ... .. . ... ... ... : ... .. . ... : ... .. 6 ... : ... .. . ... ... : ... .. . ... ... : ... .. . ... ... : D#4 01 8 P7A ...
ROW 6D : D#4 00 8 ... ... ... : ... .. . ... ... ... : ... .. . ... : ... .. 3 ... : ... .. . ... ... : ... .. . ... ... : ... .. . ... ... : ... .. . P7D ...
ROW 6E : ... .. 7 ... ... ... : ... .. . ... ... ... : ... .. . ... : ... .. 2 ... : ... .. . ... ... : ... .. . ... ... : ... .. 3 ... ... : ... .. . P81 ...
ROW 6F : ... .. 6 ... ... ... : ... .. . ... ... ... : ... .. . ... : ... .. 0 ... : ... .. . ... ... : ... .. . ... ... : ... .. . ... ... : E-4 01 8 P7D ...
ROW 70 : A-4 00 F ... ... ... : A-1 00 F ... ... ... : G#4 00 . ... : 1-# 00 F ... : ... .. . ... ... : ... .. . ... ... : E-5 01 4 ... ... : ... .. F P81 ...
ROW 71 : ... .. E ... ... ... : ... .. E ... ... ... : A#3 00 . ... : ... .. C ... : ... .. . ... ... : ... .. . ... ... : ... .. . ... ... : ... .. D P83 ...
ROW 72 : ... .. D ... ... ... : ... .. D ... ... ... : D#3 00 . ... : ... .. 6 ... : ... .. . ... ... : ... .. . ... ... : ... .. . ... ... : ... .. 8 ... ...
ROW 73 : A-3 00 8 ... ... ... : ... .. A ... ... ... : D-3 00 . ... : ... .. 3 ... : ... .. . ... ... : ... .. . ... ... : ... .. . ... ... : ... .. . P82 ...
ROW 74 : ... .. 7 ... ... ... : ... .. . ... ... ... : A-2 00 . ... : ... .. 2 ... : ... .. . ... ... : ... .. . ... ... : ... .. 3 ... ... : ... .. . P80 ...
ROW 75 : ... .. 6 ... ... ... : ... .. . ... ... ... : ... .. . ... : ... .. 0 ... : ... .. . ... ... : ... .. . ... ... : ... .. . ... ... : ... .. . P7E ...
ROW 76 : E-5 00 F ... ... ... : ... .. . ... ... ... : ... .. . ... : B-# 00 F ... : ... .. . ... ... : ... .. . ... ... : C-5 01 4 ... ... : ... .. . P7D ...
ROW 77 : ... .. E ... ... ... : ... .. . ... ... ... : ... .. . ... : ... .. C ... : ... .. . ... ... : ... .. . ... ... : ... .. . ... ... : ... .. . ... ...
ROW 78 : ... .. D ... ... ... : ... .. . ... ... ... : ... .. . ... : ... .. 6 ... : ... .. . ... ... : ... .. . ... ... : ... .. . ... ... : ... .. . P7F ...
ROW 79 : A-4 00 8 ... ... ... : ... .. . ... ... ... : ... .. . ... : ... .. 3 ... : ... .. . ... ... : ... .. . ... ... : ... .. . ... ... : ... .. . P81 ...
ROW 7A : ... .. 7 ... ... ... : ... .. . ... ... ... : ... .. . ... : ... .. 2 ... : ... .. . ... ... : ... .. . ... ... : ... .. 3 ... ... : ... .. . P83 ...
ROW 7B : ... .. 6 ... ... ... : ... .. . ... ... ... : ... .. . ... : ... .. 0 ... : ... .. . ... ... : ... .. . ... ... : ... .. . ... ... : ... .. . ... ...
ROW 7C : ... .. F ... ... ... : ... .. . ... ... ... : ... .. . ... : 1-# 00 F ... : ... .. . ... ... : ... .. . ... ... : E-5 01 4 ... ... : ... .. . P82 ...
ROW 7D : ... .. E ... ... ... : ... .. . ... ... ... : ... .. . ... : ... .. C ... : ... .. . ... ... : ... .. . ... ... : ... .. . ... ... : ... .. . P80 ...
ROW 7E : ... .. D ... ... ... : ... .. . ... ... ... : ... .. . ... : ... .. 6 ... : ... .. . ... ... : ... .. . ... ... : ... .. . ... ... : ... .. . P7E ...
ROW 7F : E-5 00 8 ... ... ... : ... .. . ... ... ... : ... .. . ... : ... .. 3 ... : ... .. . ... ... : ... .. . ... ... : ... .. . ... ... : ... .. . P7D ...
ROW 80 : ... .. 7 ... ... ... : ... .. . ... ... ... : ... .. . ... : ... .. 2 ... : ... .. . ... ... : ... .. . ... ... : ... .. 3 ... ... : ... .. . ... ...
ROW 81 : ... .. 6 ... ... ... : ... .. . ... ... ... : ... .. . ... : ... .. 0 ... : ... .. . ... ... : ... .. . ... ... : ... .. . ... ... : ... .. . P7F ...
ROW 82 : A-5 00 F ... ... ... : ... .. . ... ... ... : G#3 00 . ... : 7-# 00 F ... : ... .. . ... ... : ... .. . ... ... : C-5 01 4 ... ... : ... .. . P81 ...
ROW 83 : ... .. E ... ... ... : ... .. . ... ... ... : A#2 00 . ... : ... .. C ... : ... .. . ... ... : ... .. . ... ... : ... .. . ... ... : ... .. . P85 ...
ROW 84 : ... .. D ... ... ... : ... .. . ... ... ... : D#2 00 . ... : ... .. 6 ... : ... .. . ... ... : ... .. . ... ... : ... .. . ... ... : F-4 01 8 P7B ...
ROW 85 : A-4 00 8 ... ... ... : ... .. . ... ... ... : D-2 00 . ... : ... .. 3 ... : ... .. . ... ... : ... .. . ... ... : ... .. . ... ... : E-4 01 8 P84 ...
ROW 86 : ... .. 7 ... ... ... : ... .. . ... ... ... : A-1 00 . ... : ... .. 2 ... : ... .. . ... ... : ... .. . ... ... : ... .. 3 ... ... : ... .. . P80 ...
ROW 87 : ... .. 6 ... ... ... : ... .. . ... ... ... : ... .. . ... : ... .. 0 ... : ... .. . ... ... : ... .. . ... ... : ... .. . ... ... : ... .. . P7D ...
ROW 88 : E-5 00 F ... ... ... : ... .. . ... ... ... : ... .. . ... : B-# 00 F ... : ... .. . ... ... : ... .. . ... ... : E-5 01 4 ... ... : D#4 01 8 P85 ...
ROW 89 : ... .. E ... ... ... : ... .. . ... ... ... : ... .. . ... : ... .. C ... : ... .. . ... ... : ... .. . ... ... : ... .. . ... ... : ... .. . ... ...
ROW 8A : ... .. D ... ... ... : ... .. . ... ... ... : ... .. . ... : ... .. 6 ... : ... .. . ... ... : ... .. . ... ... : ... .. . ... ... : E-4 01 8 P7D ...
ROW 8B : A-5 00 8 ... ... ... : ... .. . ... ... ... : ... .. . ... : ... .. 3 ... : ... .. . ... ... : ... .. . ... ... : ... .. . ... ... : ... .. . P80 ...
ROW 8C : ... .. 7 ... ... ... : ... .. . ... ... ... : ... .. . ... : ... .. 2 ... : ... .. . ... ... : ... .. . ... ... : ... .. 3 ... ... : ... .. . P84 ...
ROW 8D : ... .. 6 ... ... ... : ... .. . ... ... ... : ... .. . ... : ... .. 0 ... : ... .. . ... ... : ... .. . ... ... : ... .. . ... ... : F-4 01 8 P7B ...
ROW 8E : A-4 00 F ... ... ... : ... .. . ... ... ... : ... .. . ... : 7-# 00 F ... : ... .. . ... ... : ... .. . ... ... : C-5 01 4 ... ... : E-4 01 8 P85 ...
ROW 8F : ... .. E ... ... ... : ... .. . ... ... ... : ... .. . ... : ... .. C ... : ... .. . ... ... : ... .. . ... ... : ... .. . ... ... : ... .. . P81 ...
ROW 90 : ... .. D ... ... ... : ... .. . ... ... ... : ... .. . ... : ... .. 6 ... : ... .. . ... ... : ... .. . ... ... : ... .. . ... ... : ... .. . P7E ...
ROW 91 : E-5 00 8 ... ... ... : ... .. . ... ... ... : ... .. . ... : ... .. 3 ... : ... .. . ... ... : ... .. . ... ... : ... .. . ... ... : ... .. . P80 ...
ROW 92 : ... .. 7 ... ... ... : ... .. . ... ... ... : ... .. . ... : ... .. 2 ... : ... .. . ... ... : ... .. . ... ... : ... .. 3 ... ... : ... .. . ... ...
ROW 93 : ... .. 6 ... ... ... : ... .. . ... ... ... : ... .. . ... : ... .. 0 ... : ... .. . ... ... : ... .. . ... ... : ... .. . ... ... : ... .. . ... ...
ROW 94 : A-5 00 F ... ... ... : D#1 00 F ... ... ... : D-4 00 . ... : 1-# 00 F ... : ... .. . ... ... : ... .. . ... ... : D#5 01 4 ... ... : ... .. . ... ...
ROW 95 : ... .. E ... ... ... : ... .. E ... ... ... : E-3 00 . ... : ... .. C ... : ... .. . ... ... : ... .. . ... ... : ... .. . ... ... : ... .. . P7D ...
ROW 96 : ... .. D ... ... ... : ... .. D ... ... ... : A-2 00 . ... : ... .. 6 ... : ... .. . ... ... : ... .. . ... ... : ... .. . ... ... : D#4 01 8 P85 ...
ROW 97 : A-4 00 8 ... ... ... : ... .. A ... ... ... : G#2 00 . ... : ... .. 3 ... : ... .. . ... ... : ... .. . ... ... : ... .. . ... ... : ... .. . P82 ...
ROW 98 : ... .. 7 ... ... ... : ... .. . ... ... ... : D#2 00 . ... : ... .. 2 ... : ... .. . ... ... : ... .. . ... ... : ... .. 3 ... ... : ... .. . P80 ...
ROW 99 : ... .. 6 ... ... ... : ... .. . ... ... ... : ... .. . ... : ... .. 0 ... : ... .. . ... ... : ... .. . ... ... : ... .. . ... ... : ... .. . ... ...
ROW 9A : D#5 00 F ... ... ... : ... .. . ... ... ... : D-4 00 . ... : B-# 00 F ... : ... .. . ... ... : ... .. . ... ... : C-5 01 4 ... ... : ... .. . ... ...
ROW 9B : ... .. E ... ... ... : ... .. . ... ... ... : E-3 00 . ... : ... .. C ... : ... .. . ... ... : ... .. . ... ... : ... .. . ... ... : ... .. . ... ...
ROW 9C : ... .. D ... ... ... : ... .. . ... ... ... : A-2 00 . ... : ... .. 6 ... : ... .. . ... ... : ... .. . ... ... : ... .. . ... ... : ... .. . ... ...
ROW 9D : A-5 00 8 ... ... ... : ... .. . ... ... ... : G#2 00 . ... : ... .. 3 ... : ... .. . ... ... : ... .. . ... ... : ... .. . ... ... : ... .. . ... ...
ROW 9E : ... .. 7 ... ... ... : ... .. . ... ... ... : D#2 00 . ... : ... .. 2 ... : ... .. . ... ... : ... .. . ... ... : ... .. 3 ... ... : ... .. . ... ...
ROW 9F : ... .. 6 ... ... ... : ... .. . ... ... ... : ... .. . ... : ... .. 0 ... : ... .. . ... ... : ... .. . ... ... : ... .. . ... ... : ... .. . ... ...
ROW A0 : A-4 00 F ... ... ... : ... .. . ... ... ... : ... .. . ... : 1-# 00 F ... : ... .. . ... ... : ... .. . ... ... : D#5 01 4 ... ... : ... .. . ... ...
ROW A1 : ... .. E ... ... ... : ... .. . ... ... ... : ... .. . ... : ... .. C ... : ... .. . ... ... : ... .. . ... ... : ... .. . ... ... : ... .. . ... ...
ROW A2 : ... .. D ... ... ... : ... .. . ... ... ... : ... .. . ... : ... .. 6 ... : ... .. . ... ... : ... .. . ... ... : ... .. . ... ... : ... .. . ... ...
ROW A3 : D#5 00 8 ... ... ... : ... .. . ... ... ... : ... .. . ... : ... .. 3 ... : ... .. . ... ... : ... .. . ... ... : ... .. . ... ... : ... .. . ... ...
ROW A4 : ... .. 7 ... ... ... : ... .. . ... ... ... : ... .. . ... : ... .. 2 ... : ... .. . ... ... : ... .. . ... ... : ... .. 3 ... ... : ... .. . ... ...
ROW A5 : ... .. 6 ... ... ... : ... .. . ... ... ... : ... .. . ... : ... .. 0 ... : ... .. . ... ... : ... .. . ... ... : ... .. . ... ... : ... .. . ... ...
ROW A6 : A-5 00 F ... ... ... : ... .. . ... ... ... : D-4 00 . ... : 7-# 00 F ... : ... .. . ... ... : ... .. . ... ... : C-5 01 4 ... ... : ... .. . ... ...
ROW A7 : ... .. E ... ... ... : ... .. . ... ... ... : E-3 00 . ... : ... .. C ... : ... .. . ... ... : ... .. . ... ... : ... .. . ... ... : ... .. . ... ...
ROW A8 : ... .. D ... ... ... : ... .. . ... ... ... : A-2 00 . ... : ... .. 6 ... : ... .. . ... ... : ... .. . ... ... : ... .. . ... ... : ... .. . ... ...
ROW A9 : A-4 00 8 ... ... ... : ... .. . ... ... ... : G#2 00 . ... : ... .. 3 ... : ... .. . ... ... : ... .. . ... ... : ... .. . ... ... : ... .. . ... ...
ROW AA : ... .. 7 ... ... ... : ... .. . ... ... ... : D#2 00 . ... : ... .. 2 ... : ... .. . ... ... : ... .. . ... ... : ... .. 3 ... ... : ... .. . ... ...
ROW AB : ... .. 6 ... ... ... : ... .. . ... ... ... : ... .. . ... : ... .. 0 ... : ... .. . ... ... : ... .. . ... ... : ... .. . ... ... : ... .. . ... ...
ROW AC : D#5 00 F ... ... ... : ... .. . ... ... ... : D-4 00 . ... : B-# 00 F ... : ... .. . ... ... : ... .. . ... ... : D#5 01 4 ... ... : ... .. . ... ...
ROW AD : ... .. E ... ... ... : ... .. . ... ... ... : E-3 00 . ... : ... .. C ... : ... .. . ... ... : ... .. . ... ... : ... .. . ... ... : ... .. . ... ...
ROW AE : ... .. D ... ... ... : ... .. . ... ... ... : A-2 00 . ... : ... .. 6 ... : ... .. . ... ... : ... .. . ... ... : ... .. . ... ... : ... .. . ... ...
ROW AF : A-5 00 8 ... ... ... : ... .. . ... ... ... : G#2 00 . ... : ... .. 3 ... : ... .. . ... ... : ... .. . ... ... : ... .. . ... ... : ... .. . ... ...
ROW B0 : ... .. 7 ... ... ... : ... .. . ... ... ... : D#2 00 . ... : ... .. 2 ... : ... .. . ... ... : ... .. . ... ... : ... .. 3 ... ... : ... .. . ... ...
ROW B1 : ... .. 6 ... ... ... : ... .. . ... ... ... : ... .. . ... : ... .. 0 ... : ... .. . ... ... : ... .. . ... ... : ... .. . ... ... : ... .. . ... ...
ROW B2 : A-4 00 F ... ... ... : ... .. . ... ... ... : ... .. . ... : 1-# 00 F ... : ... .. . ... ... : ... .. . ... ... : C-5 01 4 ... ... : E-4 01 8 P85 ...
ROW B3 : ... .. E ... ... ... : ... .. . ... ... ... : ... .. . ... : ... .. C ... : ... .. . ... ... : ... .. . ... ... : ... .. . ... ... : F#4 01 8 P80 ...
ROW B4 : ... .. D ... ... ... : ... .. . ... ... ... : ... .. . ... : ... .. 6 ... : ... .. . ... ... : ... .. . ... ... : ... .. . ... ... : G#4 01 8 P7D ...
ROW B5 : D#5 00 8 ... ... ... : ... .. . ... ... ... : ... .. . ... : ... .. 3 ... : ... .. . ... ... : ... .. . ... ... : ... .. . ... ... : A-4 01 8 P84 ...
ROW B6 : ... .. 7 ... ... ... : ... .. . ... ... ... : ... .. . ... : ... .. 2 ... : ... .. . ... ... : ... .. . ... ... : ... .. 3 ... ... : C-5 01 8 P7D ...
ROW B7 : ... .. 6 ... ... ... : ... .. . ... ... ... : ... .. . ... : ... .. 0 ... : ... .. . ... ... : ... .. . ... ... : ... .. . ... ... : D-5 01 8 P80 ...
ROW B8 : A-5 00 F ... ... ... : C-1 00 F ... ... ... : B-3 00 . ... : ... .. F ... : ... .. . ... ... : ... .. . ... ... : E-5 01 4 ... ... : E-5 01 F ... ...
ROW B9 : ... .. E ... ... ... : ... .. E ... ... ... : C#3 00 . ... : ... .. C ... : ... .. . ... ... : ... .. . ... ... : ... .. . ... ... : ... .. D ... ...
ROW BA : ... .. D ... ... ... : ... .. D ... ... ... : F#2 00 . ... : ... .. 6 ... : ... .. . ... ... : ... .. . ... ... : ... .. . ... ... : ... .. 8 ... ...
ROW BB : A-4 00 8 ... ... ... : ... .. A ... ... ... : F-2 00 . ... : ... .. 3 ... : ... .. . ... ... : ... .. . ... ... : ... .. . ... ... : ... .. . ... ...
ROW BC : ... .. 7 ... ... ... : ... .. . ... ... ... : C-2 00 . ... : ... .. 2 ... : ... .. . ... ... : ... .. . ... ... : ... .. 3 ... ... : ... .. . ... ...
ROW BD : ... .. 6 ... ... ... : ... .. . ... ... ... : ... .. . ... : ... .. 0 ... : ... .. . ... ... : ... .. . ... ... : ... .. . ... ... : ... .. . ... ...
ROW BE : E-5 00 F ... ... ... : ... .. . ... ... ... : ... .. . ... : B-# 00 F ... : ... .. . ... ... : ... .. . ... ... : C-5 01 4 ... ... : ... .. . ... ...
ROW BF : ... .. E ... ... ... : ... .. . ... ... ... : ... .. . ... : ... .. C ... : ... .. . ... ... : ... .. . ... ... : ... .. . ... ... : ... .. . ... ...
ROW C0 : ... .. D ... ... ... : ... .. . ... ... ... : ... .. . ... : ... .. 6 ... : ... .. . ... ... : ... .. . ... ... : ... .. . ... ... : ... .. . ... ...
ROW C1 : A-5 00 8 ... ... ... : ... .. . ... ... ... : ... .. . ... : ... .. 3 ... : ... .. . ... ... : ... .. . ... ... : ... .. . ... ... : ... .. . ... ...
ROW C2 : ... .. 7 ... ... ... : ... .. . ... ... ... : ... .. . ... : ... .. 2 ... : ... .. . ... ... : ... .. . ... ... : ... .. 3 ... ... : ... .. . ... ...
ROW C3 : ... .. 6 ... ... ... : ... .. . ... ... ... : ... .. . ... : ... .. 0 ... : ... .. . ... ... : ... .. . ... ... : ... .. . ... ... : ... .. . ... ...
ROW C4 : A-4 00 F ... ... ... : ... .. . ... ... ... : ... .. . ... : 1-# 00 F ... : ... .. . ... ... : ... .. . ... ... : E-5 01 4 ... ... : ... .. . ... ...
ROW C5 : ... .. E ... ... ... : ... .. . ... ... ... : ... .. . ... : ... .. C ... : ... .. . ... ... : ... .. . ... ... : ... .. . ... ... : ... .. . ... ...
ROW C6 : ... .. D ... ... ... : ... .. . ... ... ... : ... .. . ... : ... .. 6 ... : ... .. . ... ... : ... .. . ... ... : ... .. . ... ... : ... .. . ... ...
ROW C7 : E-5 00 8 ... ... ... : ... .. . ... ... ... : ... .. . ... : ... .. 3 ... : ... .. . ... ... : ... .. . ... ... : ... .. . ... ... : ... .. . ... ...
ROW C8 : ... .. 7 ... ... ... : ... .. . ... ... ... : ... .. . ... : ... .. 2 ... : ... .. . ... ... : ... .. . ... ... : ... .. 3 ... ... : ... .. . ... ...
ROW C9 : ... .. 6 ... ... ... : ... .. . ... ... ... : ... .. . ... : ... .. 0 ... : ... .. . ... ... : ... .. . ... ... : ... .. . ... ... : ... .. . ... ...
ROW CA : A-5 00 F ... ... ... : ... .. . ... ... ... : B-4 00 . ... : 7-# 00 F ... : ... .. . ... ... : ... .. . ... ... : C-5 01 4 ... ... : ... .. . ... ...
ROW CB : ... .. E ... ... ... : ... .. . ... ... ... : C#4 00 . ... : ... .. C ... : ... .. . ... ... : ... .. . ... ... : ... .. . ... ... : ... .. . ... ...
ROW CC : ... .. D ... ... ... : ... .. . ... ... ... : F#3 00 . ... : ... .. 6 ... : ... .. . ... ... : ... .. . ... ... : ... .. . ... ... : ... .. . ... ...
ROW CD : A-4 00 8 ... ... ... : ... .. . ... ... ... : F-3 00 . ... : ... .. 3 ... : ... .. . ... ... : ... .. . ... ... : ... .. . ... ... : ... .. . P82 ...
ROW CE : ... .. 7 ... ... ... : ... .. . ... ... ... : C-3 00 . ... : ... .. 2 ... : ... .. . ... ... : ... .. . ... ... : ... .. 3 ... ... : F-5 01 8 P7E ...
ROW CF : ... .. 6 ... ... ... : ... .. . ... ... ... : ... .. . ... : ... .. 0 ... : ... .. . ... ... : ... .. . ... ... : ... .. . ... ... : ... .. . ... ...
ROW D0 : E-5 00 F ... ... ... : ... .. . ... ... ... : ... .. . ... : B-# 00 F ... : ... .. . ... ... : ... .. . ... ... : E-5 01 4 ... ... : E-5 01 8 P81 ...
ROW D1 : ... .. E ... ... ... : ... .. . ... ... ... : ... .. . ... : ... .. C ... : ... .. . ... ... : ... .. . ... ... : ... .. . ... ... : ... .. . P7F ...
ROW D2 : ... .. D ... ... ... : ... .. . ... ... ... : ... .. . ... : ... .. 6 ... : ... .. . ... ... : ... .. . ... ... : ... .. . ... ... : D#5 01 8 P83 ...
ROW D3 : A-5 00 8 ... ... ... : ... .. . ... ... ... : ... .. . ... : ... .. 3 ... : ... .. . ... ... : ... .. . ... ... : ... .. . ... ... : ... .. . ... ...
ROW D4 : ... .. 7 ... ... ... : ... .. . ... ... ... : ... .. . ... : ... .. 2 ... : ... .. . ... ... : ... .. . ... ... : ... .. 3 ... ... : E-5 01 8 P7E ...
ROW D5 : ... .. 6 ... ... ... : ... .. . ... ... ... : ... .. . ... : ... .. 0 ... : ... .. . ... ... : ... .. . ... ... : ... .. . ... ... : ... .. . P80 ...
ROW D6 : A-4 00 F ... ... ... : ... .. . ... ... ... : ... .. . ... : 7-# 00 F ... : ... .. . ... ... : ... .. . ... ... : C-5 01 4 ... ... : ... .. . P82 ...
ROW D7 : ... .. E ... ... ... : ... .. . ... ... ... : ... .. . ... : ... .. C ... : ... .. . ... ... : ... .. . ... ... : ... .. . ... ... : F-5 01 8 P7E ...
ROW D8 : ... .. D ... ... ... : ... .. . ... ... ... : ... .. . ... : ... .. 6 ... : ... .. . ... ... : ... .. . ... ... : ... .. . ... ... : ... .. . ... ...
ROW D9 : E-5 00 8 ... ... ... : ... .. . ... ... ... : ... .. . ... : ... .. 3 ... : ... .. . ... ... : ... .. . ... ... : ... .. . ... ... : E-5 01 8 P81 ...
ROW DA : ... .. 7 ... ... ... : ... .. . ... ... ... : ... .. . ... : ... .. 2 ... : ... .. . ... ... : ... .. . ... ... : ... .. 3 ... ... : ... .. . P80 ...
ROW DB : ... .. 6 ... ... ... : ... .. . ... ... ... : ... .. . ... : ... .. 0 ... : ... .. . ... ... : ... .. . ... ... : ... .. . ... ... : D#5 01 8 P83 ...
ROW DC : A-5 00 F ... ... ... : A#0 00 F ... ... ... : A-4 00 . ... : B-# 00 F ... : ... .. . ... ... : ... .. . ... ... : D-5 01 4 ... ... : ... .. . ... ...
ROW DD : ... .. E ... ... ... : ... .. E ... ... ... : B-3 00 . ... : ... .. C ... : ... .. . ... ... : ... .. . ... ... : ... .. . ... ... : E-5 01 8 P7E ...
ROW DE : ... .. D ... ... ... : ... .. D ... ... ... : E-3 00 . ... : ... .. 6 ... : ... .. . ... ... : ... .. . ... ... : ... .. . ... ... : ... .. . P80 ...
ROW DF : A-4 00 8 ... ... ... : ... .. A ... ... ... : D#3 00 . ... : ... .. 3 ... : ... .. . ... ... : ... .. . ... ... : ... .. . ... ... : ... .. . P81 ...
ROW E0 : ... .. 7 ... ... ... : ... .. . ... ... ... : A#2 00 . ... : ... .. 2 ... : ... .. . ... ... : ... .. . ... ... : ... .. 3 ... ... : F-5 01 8 P7E ...
ROW E1 : ... .. 6 ... ... ... : ... .. . ... ... ... : ... .. . ... : ... .. 0 ... : ... .. . ... ... : ... .. . ... ... : ... .. . ... ... : ... .. . ... ...
ROW E2 : D#5 00 F ... ... ... : ... .. . ... ... ... : A-4 00 . ... : 9-# 00 F ... : ... .. . ... ... : ... .. . ... ... : D#5 01 4 ... ... : E-5 01 8 P81 ...
ROW E3 : ... .. E ... ... ... : ... .. . ... ... ... : B-3 00 . ... : ... .. C ... : ... .. . ... ... : ... .. . ... ... : ... .. . ... ... : ... .. . P80 ...
ROW E4 : ... .. D ... ... ... : ... .. . ... ... ... : E-3 00 . ... : ... .. 6 ... : ... .. . ... ... : ... .. . ... ... : ... .. . ... ... : ... .. . P7E ...
ROW E5 : A-5 00 8 ... ... ... : ... .. . ... ... ... : D#3 00 . ... : ... .. 3 ... : ... .. . ... ... : ... .. . ... ... : ... .. . ... ... : D#5 01 8 P83 ...
ROW E6 : ... .. 7 ... ... ... : ... .. . ... ... ... : A#2 00 . ... : ... .. 2 ... : ... .. . ... ... : ... .. . ... ... : ... .. 3 ... ... : ... .. . ... ...
ROW E7 : ... .. 6 ... ... ... : ... .. . ... ... ... : ... .. . ... : ... .. 0 ... : ... .. . ... ... : ... .. . ... ... : ... .. . ... ... : E-5 01 8 P80 ...
ROW E8 : A-4 00 F ... ... ... : ... .. . ... ... ... : ... .. . ... : 7-# 00 F ... : ... .. . ... ... : ... .. . ... ... : F-5 01 4 ... ... : ... .. . P81 ...
ROW E9 : ... .. E ... ... ... : ... .. . ... ... ... : ... .. . ... : ... .. C ... : ... .. . ... ... : ... .. . ... ... : ... .. . ... ... : F-5 01 8 P7E ...
ROW EA : ... .. D ... ... ... : ... .. . ... ... ... : ... .. . ... : ... .. 6 ... : ... .. . ... ... : ... .. . ... ... : ... .. . ... ... : ... .. . ... ...
ROW EB : D#5 00 8 ... ... ... : ... .. . ... ... ... : ... .. . ... : ... .. 3 ... : ... .. . ... ... : ... .. . ... ... : ... .. . ... ... : E-5 01 7 P82 ...
ROW EC : ... .. 7 ... ... ... : ... .. . ... ... ... : ... .. . ... : ... .. 2 ... : ... .. . ... ... : ... .. . ... ... : ... .. 3 ... ... : ... .. . P80 ...
ROW ED : ... .. 6 ... ... ... : ... .. . ... ... ... : ... .. . ... : ... .. 0 ... : ... .. . ... ... : ... .. . ... ... : ... .. . ... ... : ... .. . P7E ...
ROW EE : A-5 00 F ... ... ... : ... .. . ... ... ... : A-3 00 . ... : 5-# 00 F ... : ... .. . ... ... : ... .. . ... ... : G-5 01 4 ... ... : D#5 01 7 P83 ...
ROW EF : ... .. E ... ... ... : ... .. . ... ... ... : B-2 00 . ... : ... .. C ... : ... .. . ... ... : ... .. . ... ... : ... .. . ... ... : ... .. . ... ...
ROW F0 : ... .. D ... ... ... : ... .. . ... ... ... : E-2 00 . ... : ... .. 6 ... : ... .. . ... ... : ... .. . ... ... : ... .. . ... ... : E-5 01 7 P7F ...
ROW F1 : A-4 00 8 ... ... ... : ... .. . ... ... ... : D#2 00 . ... : ... .. 3 ... : ... .. . ... ... : ... .. . ... ... : ... .. . ... ... : ... .. 6 P81 ...
ROW F2 : ... .. 7 ... ... ... : ... .. . ... ... ... : A#1 00 . ... : ... .. 2 ... : ... .. . ... ... : ... .. . ... ... : ... .. 3 ... ... : F-5 01 6 P7E ...
ROW F3 : ... .. 6 ... ... ... : ... .. . ... ... ... : ... .. . ... : ... .. 0 ... : ... .. . ... ... : ... .. . ... ... : ... .. . ... ... : ... .. . ... ...
ROW F4 : D#5 00 F ... ... ... : ... .. . ... ... ... : A-3 00 . ... : 4-# 00 F ... : ... .. . ... ... : ... .. . ... ... : F-5 01 4 ... ... : E-5 01 6 P82 ...
ROW F5 : ... .. E ... ... ... : ... .. . ... ... ... : B-2 00 . ... : ... .. C ... : ... .. . ... ... : ... .. . ... ... : ... .. . ... ... : ... .. . P80 ...
ROW F6 : ... .. D ... ... ... : ... .. . ... ... ... : E-2 00 . ... : ... .. 6 ... : ... .. . ... ... : ... .. . ... ... : ... .. . ... ... : ... .. . P7E ...
ROW F7 : A-5 00 8 ... ... ... : ... .. . ... ... ... : D#2 00 . ... : ... .. 3 ... : ... .. . ... ... : ... .. . ... ... : ... .. . ... ... : D#5 01 6 P83 ...
ROW F8 : ... .. 7 ... ... ... : ... .. . ... ... ... : A#1 00 . ... : ... .. 2 ... : ... .. . ... ... : ... .. . ... ... : ... .. 3 ... ... : ... .. . ... ...
ROW F9 : ... .. 6 ... ... ... : ... .. . ... ... ... : ... .. . ... : ... .. 0 ... : ... .. . ... ... : ... .. . ... ... : ... .. . ... ... : E-5 01 6 P7F ...
ROW FA : A-4 00 F ... ... ... : ... .. . ... ... ... : ... .. . ... : 2-# 00 F ... : ... .. . ... ... : ... .. . ... ... : G-5 01 4 ... ... : ... .. . P80 ...
ROW FB : ... .. E ... ... ... : ... .. . ... ... ... : ... .. . ... : ... .. C ... : ... .. . ... ... : ... .. . ... ... : ... .. . ... ... : F-5 01 6 P7E ...
ROW FC : ... .. D ... ... ... : ... .. . ... ... ... : ... .. . ... : ... .. 6 ... : ... .. . ... ... : ... .. . ... ... : ... .. . ... ... : ... .. . ... ...
ROW FD : D#5 00 8 ... ... ... : ... .. . ... ... ... : ... .. . ... : ... .. 3 ... : ... .. . ... ... : ... .. . ... ... : ... .. . ... ... : E-5 01 5 P82 ...
ROW FE : ... .. 7 ... ... ... : ... .. . ... ... ... : ... .. . ... : ... .. 2 ... : ... .. . ... ... : ... .. . ... ... : ... .. 3 ... ... : ... .. . P80 ...
ROW FF : ... .. 6 ... ... ... : ... .. . ... ... ... : ... .. . ... : ... .. 0 ... : ... .. . ... ... : ... .. . ... ... : ... .. . ... ... : ... .. . P7F ...

PATTERN 12
ROW 00 : D-3 00 F ... ... ... : G#2 00 F ... ... ... : G#4 00 . ... : 7-# 00 F ... : ... .. . ... ... : ... .. . ... ... : A-5 01 4 ... ... : --- .. . ... ...
ROW 01 : ... .. E ... ... ... : ... .. E ... ... ... : A#3 00 . ... : ... .. C ... : ... .. . ... ... : ... .. . ... ... : ... .. . ... ... : ... .. . ... ...
ROW 02 : ... .. D ... ... ... : ... .. D ... ... ... : D#3 00 . ... : ... .. A ... : ... .. . ... ... : ... .. . ... ... : ... .. . ... ... : ... .. . ... ...
ROW 03 : A-4 00 8 ... ... ... : ... .. 1 ... ... ... : D-3 00 . ... : ... .. 8 ... : ... .. . ... ... : ... .. . ... ... : ... .. . ... ... : ... .. . ... ...
ROW 04 : ... .. 7 ... ... ... : ... .. . ... ... ... : A-2 00 . ... : ... .. 7 ... : ... .. . ... ... : ... .. . ... ... : A#5 01 4 ... ... : ... .. . ... ...
ROW 05 : ... .. 6 ... ... ... : ... .. . ... ... ... : --- .. . ... : ... .. 4 ... : ... .. . ... ... : ... .. . ... ... : ... .. . ... ... : ... .. . ... ...
ROW 06 : D-3 00 F ... ... ... : ... .. F ... ... ... : G#4 00 . ... : ... .. F ... : ... .. . ... ... : ... .. . ... ... : ... .. . ... ... : ... .. . ... ...
ROW 07 : ... .. E ... ... ... : ... .. E ... ... ... : A#3 00 . ... : ... .. C ... : ... .. . ... ... : ... .. . ... ... : ... .. . ... ... : ... .. . ... ...
ROW 08 : ... .. D ... ... ... : ... .. D ... ... ... : D#3 00 . ... : ... .. A ... : ... .. . ... ... : ... .. . ... ... : A-5 01 4 ... ... : ... .. . ... ...
ROW 09 : ... .. 8 ... ... ... : ... .. 1 ... ... ... : D-3 00 . ... : ... .. 8 ... : ... .. . ... ... : ... .. . ... ... : ... .. . ... ... : ... .. . ... ...
ROW 0A : ... .. 7 ... ... ... : ... .. . ... ... ... : A-2 00 . ... : ... .. 7 ... : ... .. . ... ... : ... .. . ... ... : ... .. . ... ... : ... .. . ... ...
ROW 0B : ... .. 6 ... ... ... : ... .. . ... ... ... : --- .. . ... : ... .. 4 ... : ... .. . ... ... : ... .. . ... ... : ... .. . ... ... : ... .. . ... ...
ROW 0C : A-0 00 F ... ... ... : A-0 00 F P72 ... ... : C-5 00 . P82 : 4-# 00 F ... : ... .. . ... ... : ... .. . ... ... : E-5 01 4 ... ... : ... .. . ... ...
ROW 0D : ... .. E ... ... ... : ... .. E ... ... ... : A#4 00 . P80 : ... .. C ... : ... .. . ... ... : ... .. . ... ... : ... .. . ... ... : ... .. . ... ...
ROW 0E : ... .. D ... ... ... : ... .. D ... ... ... : G#4 00 . ... : ... .. A ... : ... .. . ... ... : ... .. . ... ... : ... .. . ... ... : ... .. . ... ...
ROW 0F : D-3 00 8 ... ... ... : ... .. A ... ... ... : F#4 00 . P81 : ... .. 8 ... : ... .. . ... ... : ... .. . ... ... : ... .. . ... ... : ... .. . ... ...
ROW 10 : ... .. 7 ... ... ... : ... .. . ... ... ... : E-4 00 . P85 : ... .. 7 ... : ... .. . ... ... : ... .. . ... ... : D#5 01 4 ... ... : ... .. . ... ...
ROW 11 : ... .. 6 ... ... ... : ... .. . ... ... ... : --- .. . ... : ... .. 4 ... : ... .. . ... ... : ... .. . ... ... : ... .. . ... ... : ... .. . ... ...
ROW 12 : D#3 00 F ... ... ... : A-2 00 F P81 ... ... : F#4 00 . P81 : E-# 00 F ... : ... .. . ... ... : ... .. . ... ... : ... .. . ... ... : ... .. . ... ...
ROW 13 : ... .. E ... ... ... : ... .. E ... ... ... : E-4 00 . P85 : ... .. C ... : ... .. . ... ... : ... .. . ... ... : ... .. . ... ... : ... .. . ... ...
ROW 14 : ... .. D ... ... ... : ... .. D ... ... ... : D#4 00 . P80 : ... .. A ... : ... .. . ... ... : ... .. . ... ... : A-4 01 4 ... ... : ... .. . ... ...
ROW 15 : A-0 00 8 ... ... ... : ... .. 1 ... ... ... : D-4 00 . P7B : ... .. 8 ... : ... .. . ... ... : ... .. . ... ... : ... .. . ... ... : ... .. . ... ...
ROW 16 : ... .. 7 ... ... ... : ... .. . ... ... ... : C-4 00 . P84 : ... .. 7 ... : ... .. . ... ... : ... .. . ... ... : ... .. . ... ... : ... .. . ... ...
ROW 17 : ... .. 6 ... ... ... : ... .. . ... ... ... : --- .. . ... : ... .. 4 ... : ... .. . ... ... : ... .. . ... ... : ... .. . ... ... : ... .. . ... ...
ROW 18 : D#3 00 F ... ... ... : ... .. F ... ... ... : F#4 00 . P81 : ... .. F ... : ... .. . ... ... : ... .. . ... ... : E-4 01 4 ... ... : ... .. . ... ...
ROW 19 : ... .. E ... ... ... : ... .. E ... ... ... : E-4 00 . P85 : ... .. C ... : ... .. . ... ... : ... .. . ... ... : ... .. . ... ... : ... .. . ... ...
ROW 1A : ... .. D ... ... ... : ... .. D ... ... ... : D#4 00 . P80 : ... .. A ... : ... .. . ... ... : ... .. . ... ... : ... .. . ... ... : ... .. . ... ...
ROW 1B : ... .. 8 ... ... ... : ... .. 1 ... ... ... : D-4 00 . P7B : ... .. 8 ... : ... .. . ... ... : ... .. . ... ... : ... .. . ... ... : ... .. . ... ...
ROW 1C : ... .. 7 ... ... ... : ... .. . ... ... ... : C-4 00 . P84 : ... .. 7 ... : ... .. . ... ... : ... .. . ... ... : D#4 01 4 ... ... : ... .. . ... ...
ROW 1D : ... .. 6 ... ... ... : ... .. . ... ... ... : --- .. . ... : ... .. 4 ... : ... .. . ... ... : ... .. . ... ... : ... .. . ... ... : ... .. . ... ...
ROW 1E : A-0 00 F ... ... ... : A-0 00 F P72 ... ... : F#3 00 . P82 : 5-# 00 F ... : ... .. . ... ... : ... .. . ... ... : ... .. . ... ... : ... .. . ... ...
ROW 1F : ... .. E ... ... ... : ... .. E ... ... ... : F-3 00 . P85 : ... .. C ... : ... .. . ... ... : ... .. . ... ... : ... .. . ... ... : ... .. . ... ...
ROW 20 : ... .. D ... ... ... : ... .. D ... ... ... : E-3 00 . P89 : ... .. A ... : ... .. . ... ... : ... .. . ... ... : A-3 01 4 ... ... : ... .. . ... ...
ROW 21 : D#3 00 8 ... ... ... : ... .. A ... ... ... : ... .. . P7A : ... .. 8 ... : ... .. . ... ... : ... .. . ... ... : ... .. . ... ... : ... .. . ... ...
ROW 22 : ... .. 7 ... ... ... : ... .. . ... ... ... : D#3 00 . P80 : ... .. 7 ... : ... .. . ... ... : ... .. . ... ... : ... .. . ... ... : ... .. . ... ...
ROW 23 : ... .. 6 ... ... ... : ... .. . ... ... ... : --- .. . ... : ... .. 4 ... : ... .. . ... ... : ... .. . ... ... : ... .. . ... ... : ... .. . ... ...
ROW 24 : E-3 00 F ... ... ... : A#2 00 F P81 ... ... : F#3 00 . P82 : B-# 00 F ... : ... .. . ... ... : ... .. . ... ... : C-3 01 4 ... ... : ... .. . ... ...
ROW 25 : ... .. E ... ... ... : ... .. E ... ... ... : F-3 00 . P85 : ... .. C ... : ... .. . ... ... : ... .. . ... ... : ... .. . ... ... : ... .. . ... ...
ROW 26 : ... .. D ... ... ... : ... .. D ... ... ... : E-3 00 . P89 : ... .. A ... : ... .. . ... ... : ... .. . ... ... : ... .. . ... ... : ... .. . ... ...
ROW 27 : A-0 00 8 ... ... ... : ... .. 1 ... ... ... : ... .. . P7A : ... .. 8 ... : ... .. . ... ... : ... .. . ... ... : ... .. . ... ... : ... .. . ... ...
ROW 28 : ... .. 7 ... ... ... : ... .. . ... ... ... : D#3 00 . P80 : ... .. 7 ... : ... .. . ... ... : ... .. . ... ... : B-2 01 4 ... ... : ... .. . ... ...
ROW 29 : ... .. 6 ... ... ... : ... .. . ... ... ... : --- .. . ... : ... .. 4 ... : ... .. . ... ... : ... .. . ... ... : ... .. . ... ... : ... .. . ... ...
ROW 2A : E-3 00 F ... ... ... : ... .. F ... ... ... : A#2 00 . P8C : ... .. F ... : ... .. . ... ... : ... .. . ... ... : ... .. . ... ... : ... .. . ... ...
ROW 2B : ... .. E ... ... ... : ... .. E ... ... ... : ... .. . P7D : ... .. C ... : ... .. . ... ... : ... .. . ... ... : ... .. . ... ... : ... .. . ... ...
ROW 2C : ... .. D ... ... ... : ... .. D ... ... ... : A-2 00 . P8A : ... .. A ... : ... .. . ... ... : ... .. . ... ... : F-2 01 4 ... ... : ... .. . ... ...
ROW 2D : ... .. 8 ... ... ... : ... .. 1 ... ... ... : ... .. . P7B : ... .. 8 ... : ... .. . ... ... : ... .. . ... ... : ... .. . ... ... : ... .. . ... ...
ROW 2E : ... .. 7 ... ... ... : ... .. . ... ... ... : G#2 00 . P8B : ... .. 7 ... : ... .. . ... ... : ... .. . ... ... : ... .. . ... ... : ... .. . ... ...
ROW 2F : ... .. 6 ... ... ... : ... .. . ... ... ... : --- .. . ... : ... .. 4 ... : ... .. . ... ... : ... .. . ... ... : ... .. . ... ... : ... .. . ... ...
ROW 30 : A-0 00 F ... ... ... : A-0 00 F P72 ... ... : A#2 00 . P8C : 9-# 00 F ... : ... .. . ... ... : ... .. . ... ... : D-2 01 4 ... ... : ... .. . ... ...
ROW 31 : ... .. E ... ... ... : ... .. E ... ... ... : ... .. . P7D : ... .. C ... : ... .. . ... ... : ... .. . ... ... : ... .. . ... ... : ... .. . ... ...
ROW 32 : ... .. D ... ... ... : ... .. D ... ... ... : A-2 00 . P8A : ... .. A ... : ... .. . ... ... : ... .. . ... ... : ... .. . ... ... : ... .. . ... ...
ROW 33 : E-3 00 8 ... ... ... : ... .. A ... ... ... : ... .. . P7B : ... .. 8 ... : ... .. . ... ... : ... .. . ... ... : ... .. . ... ... : ... .. . ... ...
ROW 34 : ... .. 7 ... ... ... : ... .. . ... ... ... : G#2 00 . P8B : ... .. 7 ... : ... .. . ... ... : ... .. . ... ... : C#2 01 4 ... ... : ... .. . ... ...
ROW 35 : ... .. 6 ... ... ... : ... .. . ... ... ... : --- .. . ... : ... .. 4 ... : ... .. . ... ... : ... .. . ... ... : ... .. . ... ... : ... .. . ... ...
ROW 36 : F-3 00 F ... ... ... : B-2 00 F P81 ... ... : F-2 00 . P71 : ... .. F ... : ... .. . ... ... : ... .. . ... ... : ... .. . ... ... : ... .. . ... ...
ROW 37 : ... .. E ... ... ... : ... .. E ... ... ... : E-2 00 . P88 : ... .. C ... : ... .. . ... ... : ... .. . ... ... : ... .. . ... ... : ... .. . ... ...
ROW 38 : ... .. D ... ... ... : ... .. D ... ... ... : ... .. . P79 : ... .. A ... : ... .. . ... ... : ... .. . ... ... : G-1 01 4 ... ... : ... .. . ... ...
ROW 39 : A-0 00 8 ... ... ... : ... .. 1 ... ... ... : D#2 00 . P92 : ... .. 8 ... : ... .. . ... ... : ... .. . ... ... : ... .. . ... ... : ... .. . ... ...
ROW 3A : ... .. 7 ... ... ... : ... .. . ... ... ... : ... .. . P83 : ... .. 7 ... : ... .. . ... ... : ... .. . ... ... : ... .. . ... ... : ... .. . ... ...
ROW 3B : ... .. 6 ... ... ... : ... .. . ... ... ... : --- .. . ... : ... .. 4 ... : ... .. . ... ... : ... .. . ... ... : ... .. . ... ... : ... .. . ... ...
ROW 3C : F-3 00 F ... ... ... : ... .. F ... ... ... : F-2 00 . P71 : 7-# 00 F ... : ... .. . ... ... : ... .. . ... ... : --- .. . P7D ... : ... .. . ... ...
ROW 3D : ... .. E ... ... ... : ... .. E ... ... ... : E-2 00 . P88 : ... .. C ... : ... .. . ... ... : ... .. . ... ... : ... .. . ... ... : ... .. . ... ...
ROW 3E : ... .. D ... ... ... : ... .. D ... ... ... : ... .. . P79 : ... .. A ... : ... .. . ... ... : ... .. . ... ... : ... .. . ... ... : ... .. . ... ...
ROW 3F : ... .. 8 ... ... ... : ... .. 1 ... ... ... : D#2 00 . P92 : ... .. 8 ... : ... .. . ... ... : ... .. . ... ... : ... .. . ... ... : ... .. . ... ...
ROW 40 : ... .. 7 ... ... ... : ... .. . ... ... ... : ... .. . P83 : ... .. 7 ... : ... .. . ... ... : ... .. . ... ... : ... .. . ... ... : ... .. . ... ...
ROW 41 : ... .. 6 ... ... ... : ... .. . ... ... ... : --- .. . ... : ... .. 4 ... : ... .. . ... ... : ... .. . ... ... : ... .. . ... ... : ... .. . ... ...
ROW 42 : A-0 00 F ... ... ... : A-0 00 F P72 ... ... : A#1 00 . P71 : ... .. F ... : ... .. . ... ... : ... .. . ... ... : ... .. . ... ... : ... .. . ... ...
ROW 43 : ... .. E ... ... ... : ... .. E ... ... ... : A-1 00 . P9B : ... .. C ... : ... .. . ... ... : ... .. . ... ... : ... .. . ... ... : ... .. . ... ...
ROW 44 : ... .. D ... ... ... : ... .. D ... ... ... : ... .. . P8C : ... .. A ... : ... .. . ... ... : ... .. . ... ... : ... .. . ... ... : ... .. . ... ...
ROW 45 : F-3 00 8 ... ... ... : ... .. A ... ... ... : ... .. . P7D : ... .. 8 ... : ... .. . ... ... : ... .. . ... ... : ... .. . ... ... : ... .. . ... ...
ROW 46 : ... .. 7 ... ... ... : ... .. . ... ... ... : ... .. . P6E : ... .. 7 ... : ... .. . ... ... : ... .. . ... ... : ... .. . ... ... : ... .. . ... ...
ROW 47 : ... .. 6 ... ... ... : ... .. . ... ... ... : --- .. . ... : ... .. 4 ... : ... .. . ... ... : ... .. . ... ... : ... .. . ... ... : ... .. . ... ...
ROW 48 : E-3 00 F ... ... ... : ... .. 0 ... V00 ... : G#4 00 . P80 : B-# 00 D ... : ... .. . ... ... : C-4 01 A ... V03 : E-4 01 A P81 V03 : A-3 01 A ... ...
ROW 49 : ... .. E ... ... ... : ... .. . ... ... ... : A#3 00 . ... : ... .. B ... : ... .. . ... ... : ... .. 9 ... ... : ... .. 9 ... ... : ... .. 8 P7D ...
ROW 4A : ... .. D ... ... ... : ... .. . ... ... ... : D#3 00 . ... : ... .. . ... : ... .. . ... ... : ... .. 8 ... ... : ... .. 8 ... ... : ... .. 5 ... ...
ROW 4B : ... .. A ... ... ... : ... .. . ... ... ... : D-3 00 . ... : ... .. A ... : ... .. . ... ... : ... .. 1 ... ... : ... .. 1 ... ... : ... .. 2 P7E ...
ROW 4C : ... .. . ... ... ... : ... .. . ... ... ... : A-2 00 . ... : ... .. 8 ... : ... .. . ... ... : ... .. . ... ... : ... .. . ... ... : ... .. . P80 ...
ROW 4D : ... .. . ... ... ... : ... .. . ... ... ... : ... .. . ... : ... .. 7 ... : ... .. . ... ... : ... .. . ... ... : ... .. . ... ... : ... .. . P82 ...
ROW 4E : ... .. . ... ... ... : ... .. . ... ... ... : ... .. . ... : ... .. 6 ... : ... .. . ... ... : ... .. A ... ... : ... .. A ... ... : ... .. A P83 ...
ROW 4F : ... .. . ... ... ... : ... .. . ... ... ... : ... .. . ... : ... .. . ... : ... .. . ... ... : ... .. 9 ... ... : ... .. 9 ... ... : ... .. 8 ... ...
ROW 50 : ... .. . ... ... ... : ... .. . ... ... ... : ... .. . ... : ... .. 5 ... : ... .. . ... ... : ... .. 8 ... ... : ... .. 8 ... ... : ... .. 5 P81 ...
ROW 51 : ... .. . ... ... ... : ... .. . ... ... ... : ... .. . ... : ... .. . ... : ... .. . ... ... : ... .. 1 ... ... : ... .. 1 ... ... : ... .. 2 P7F ...
ROW 52 : ... .. . ... ... ... : ... .. . ... ... ... : ... .. . ... : ... .. 4 ... : ... .. . ... ... : ... .. . ... ... : ... .. . ... ... : ... .. . P7D ...
ROW 53 : ... .. . ... ... ... : ... .. . ... ... ... : --- .. . ... : ... .. . ... : ... .. . ... ... : ... .. . ... ... : ... .. . ... ... : ... .. . ... ...
ROW 54 : ... .. . ... ... ... : E-3 00 6 P81 V01 ... : A-3 00 . ... : ... .. 3 ... : ... .. . ... ... : ... .. A ... ... : ... .. A ... ... : ... .. A P7E ...
ROW 55 : ... .. . ... ... ... : ... .. 5 ... ... ... : ... .. . ... : ... .. 2 ... : ... .. . ... ... : ... .. 9 ... ... : ... .. 9 ... ... : ... .. 8 P80 ...
ROW 56 : ... .. . ... ... ... : ... .. . ... ... ... : ... .. . ... : ... .. . ... : ... .. . ... ... : ... .. 8 ... ... : ... .. 8 ... ... : ... .. 5 P82 ...
ROW 57 : ... .. . ... ... ... : ... .. 4 ... ... ... : ... .. . ... : ... .. 1 ... : ... .. . ... ... : ... .. 1 ... ... : ... .. 1 ... ... : ... .. 2 P83 ...
ROW 58 : ... .. . ... ... ... : ... .. . ... ... ... : ... .. . ... : ... .. 0 ... : ... .. . ... ... : ... .. . ... ... : ... .. . ... ... : ... .. . ... ...
ROW 59 : ... .. . ... ... ... : ... .. . ... ... ... : --- .. . ... : ... .. . ... : ... .. . ... ... : ... .. . ... ... : ... .. . ... ... : ... .. . P81 ...
ROW 5A : ... .. . ... ... ... : ... .. . ... ... ... : G#3 00 . ... : 9-# 00 8 ... : ... .. . ... ... : ... .. A ... ... : ... .. A ... ... : ... .. A P80 ...
ROW 5B : ... .. . ... ... ... : ... .. . ... ... ... : ... .. . ... : ... .. 6 ... : ... .. . ... ... : ... .. 9 ... ... : ... .. 9 ... ... : ... .. 8 P7D ...
ROW 5C : ... .. . ... ... ... : ... .. . ... ... ... : ... .. . ... : ... .. 3 ... : ... .. . ... ... : ... .. 8 ... ... : ... .. 8 ... ... : ... .. 5 ... ...
ROW 5D : ... .. . ... ... ... : ... .. . ... ... ... : ... .. . ... : ... .. 1 ... : ... .. . ... ... : ... .. 1 ... ... : ... .. 1 ... ... : ... .. 2 P7E ...
ROW 5E : ... .. . ... ... ... : ... .. . ... ... ... : ... .. . ... : ... .. . ... : ... .. . ... ... : ... .. . ... ... : ... .. . ... ... : ... .. . P80 ...
ROW 5F : ... .. . ... ... ... : ... .. . ... ... ... : --- .. . ... : ... .. 0 ... : ... .. . ... ... : ... .. . ... ... : ... .. . ... ... : ... .. . P81 ...
ROW 60 : ... .. . ... ... ... : ... .. . ... ... ... : G-4 00 . ... : ... .. D ... : ... .. . ... ... : B-3 01 A ... ... : D#4 01 A ... ... : G#3 01 A P83 ...
ROW 61 : F-3 00 A P86 ... ... : ... .. . ... ... ... : A-3 00 . ... : ... .. B ... : ... .. . ... ... : ... .. 9 ... ... : ... .. 9 ... ... : ... .. 8 ... ...
ROW 62 : G-3 00 A P7C ... ... : ... .. . ... ... ... : D-3 00 . ... : ... .. . ... : ... .. . ... ... : ... .. 8 ... ... : ... .. 8 ... ... : ... .. 5 P81 ...
ROW 63 : G#3 00 A P85 ... ... : ... .. . ... ... ... : C#3 00 . ... : ... .. A ... : ... .. . ... ... : ... .. 1 ... ... : ... .. 1 ... ... : ... .. 2 P80 ...
ROW 64 : A#3 00 A P81 ... ... : ... .. . ... ... ... : G#2 00 . ... : ... .. 8 ... : ... .. . ... ... : ... .. . ... ... : ... .. . ... ... : ... .. . P7E ...
ROW 65 : C-4 00 A P80 ... ... : ... .. . ... ... ... : ... .. . ... : ... .. 7 ... : ... .. . ... ... : ... .. . ... ... : ... .. . ... ... : ... .. . P7D ...
ROW 66 : D-4 00 A P81 ... ... : ... .. . ... ... ... : A-2 00 . ... : 7-# 00 8 ... : ... .. . ... ... : ... .. A ... ... : ... .. A ... ... : ... .. A ... ...
ROW 67 : D#4 00 A P80 ... ... : ... .. . ... ... ... : ... .. . ... : ... .. 6 ... : ... .. . ... ... : ... .. 9 ... ... : ... .. 9 ... ... : ... .. 8 P80 ...
ROW 68 : ... .. . ... ... ... : ... .. . ... ... ... : ... .. . ... : ... .. 3 ... : ... .. . ... ... : ... .. 8 ... ... : ... .. 8 ... ... : ... .. 5 P81 ...
ROW 69 : ... .. . ... ... ... : ... .. . ... ... ... : ... .. . ... : ... .. 1 ... : ... .. . ... ... : ... .. 1 ... ... : ... .. 1 ... ... : ... .. 2 P83 ...
ROW 6A : ... .. . ... ... ... : ... .. . ... ... ... : ... .. . ... : ... .. . ... : ... .. . ... ... : ... .. . ... ... : ... .. . ... ... : ... .. . ... ...
ROW 6B : ... .. . ... ... ... : ... .. . ... ... ... : --- .. . ... : ... .. 0 ... : ... .. . ... ... : ... .. . ... ... : ... .. . ... ... : ... .. . P82 ...
ROW 6C : ... .. . ... ... ... : ... .. . ... ... ... : C-4 00 . ... : A-# 00 F ... : ... .. . ... ... : ... .. A ... ... : ... .. A ... ... : ... .. A P80 ...
ROW 6D : ... .. . ... ... ... : F-3 00 4 P87 ... ... : ... .. . ... : ... .. C ... : ... .. . ... ... : ... .. 9 ... ... : ... .. 9 ... ... : ... .. 8 P7E ...
ROW 6E : ... .. . ... ... ... : G-3 00 4 P7D ... ... : ... .. . ... : ... .. 6 ... : ... .. . ... ... : ... .. 8 ... ... : ... .. 8 ... ... : ... .. 5 P7D ...
ROW 6F : ... .. . ... ... ... : G#3 00 4 P86 ... ... : ... .. . ... : ... .. 3 ... : ... .. . ... ... : ... .. 1 ... ... : ... .. 1 ... ... : ... .. 2 ... ...
ROW 70 : ... .. . ... ... ... : A#3 00 4 P82 ... ... : ... .. . ... : ... .. 2 ... : ... .. . ... ... : ... .. . ... ... : ... .. . ... ... : ... .. . P7F ...
ROW 71 : ... .. . ... ... ... : C-4 00 4 P81 ... ... : --- .. . ... : ... .. 0 ... : ... .. . ... ... : ... .. . ... ... : ... .. . ... ... : ... .. . P81 ...
ROW 72 : ... .. . ... ... ... : D-4 00 4 P82 ... ... : D#2 00 . ... : E-# 00 8 ... : ... .. . ... ... : ... .. A ... ... : ... .. A ... ... : ... .. A P83 ...
ROW 73 : ... .. . ... ... ... : D#4 00 4 P81 ... ... : ... .. . ... : ... .. 6 ... : ... .. . ... ... : ... .. 9 ... ... : ... .. 9 ... ... : ... .. 8 ... ...
ROW 74 : ... .. . ... ... ... : ... .. . ... ... ... : ... .. . ... : ... .. 3 ... : ... .. . ... ... : ... .. 8 ... ... : ... .. 8 ... ... : ... .. 5 P82 ...
ROW 75 : ... .. . ... ... ... : ... .. . ... ... ... : ... .. . ... : ... .. 1 ... : ... .. . ... ... : ... .. 1 ... ... : ... .. 1 ... ... : ... .. 2 P80 ...
ROW 76 : ... .. . ... ... ... : ... .. . ... ... ... : ... .. . ... : ... .. . ... : ... .. . ... ... : ... .. . ... ... : ... .. . ... ... : ... .. . P7E ...
ROW 77 : ... .. . ... ... ... : ... .. . ... ... ... : --- .. . ... : ... .. 0 ... : ... .. . ... ... : ... .. . ... ... : ... .. . ... ... : ... .. . P7D ...
ROW 78 : ... .. . ... ... ... : ... .. . ... ... ... : G#3 00 . ... : 1-# 00 F ... : ... .. . ... ... : C-4 01 A ... ... : E-4 01 A ... ... : A-3 01 A ... ...
ROW 79 : ... .. . ... ... ... : ... .. . ... ... ... : A#2 00 . ... : ... .. C ... : ... .. . ... ... : ... .. 9 ... ... : ... .. 9 ... ... : ... .. 8 P7F ...
ROW 7A : ... .. . ... ... ... : ... .. . ... ... ... : D#2 00 . ... : ... .. 6 ... : ... .. . ... ... : ... .. 8 ... ... : ... .. 8 ... ... : ... .. 5 P80 ...
ROW 7B : ... .. . ... ... ... : ... .. . ... ... ... : D-2 00 . ... : ... .. 3 ... : ... .. . ... ... : ... .. 1 ... ... : ... .. 1 ... ... : ... .. 2 P83 ...
ROW 7C : ... .. . ... ... ... : ... .. . ... ... ... : A-1 00 . ... : ... .. 2 ... : ... .. . ... ... : ... .. . ... ... : ... .. . ... ... : ... .. . ... ...
ROW 7D : ... .. . ... ... ... : ... .. . ... ... ... : ... .. . ... : ... .. 0 ... : ... .. . ... ... : ... .. . ... ... : ... .. . ... ... : ... .. . P82 ...
ROW 7E : ... .. . ... ... ... : ... .. . ... ... ... : A-2 00 . ... : 9-# 00 8 ... : ... .. . ... ... : ... .. A ... ... : ... .. A ... ... : ... .. A P80 ...
ROW 7F : ... .. . ... ... ... : ... .. . ... ... ... : ... .. . ... : ... .. 6 ... : ... .. . ... ... : ... .. 9 ... ... : ... .. 9 ... ... : ... .. 8 P7F ...
ROW 80 : ... .. . ... ... ... : ... .. . ... ... ... : ... .. . ... : ... .. 3 ... : ... .. . ... ... : ... .. 8 ... ... : ... .. 8 ... ... : ... .. 5 P7D ...
ROW 81 : ... .. . P84 ... ... : ... .. . ... ... ... : ... .. . ... : ... .. 1 ... : ... .. . ... ... : ... .. 1 ... ... : ... .. 1 ... ... : ... .. 2 ... ...
ROW 82 : E-4 00 A P7C ... ... : ... .. . ... ... ... : ... .. . ... : ... .. . ... : ... .. . ... ... : ... .. . ... ... : ... .. . ... ... : ... .. . P7F ...
ROW 83 : D#4 00 A P85 ... ... : ... .. . ... ... ... : --- .. . ... : ... .. 0 ... : ... .. . ... ... : ... .. . ... ... : ... .. . ... ... : ... .. . P80 ...
ROW 84 : ... .. . P82 ... ... : ... .. . ... ... ... : A-3 00 . ... : 1-# 00 F ... : ... .. . ... ... : ... .. A ... ... : ... .. A ... ... : ... .. A P82 ...
ROW 85 : ... .. . P7E ... ... : ... .. . ... ... ... : ... .. . ... : ... .. C ... : ... .. . ... ... : ... .. 9 ... ... : ... .. 9 ... ... : ... .. 8 P83 ...
ROW 86 : D-4 00 A P85 ... ... : ... .. . ... ... ... : ... .. . ... : ... .. 6 ... : ... .. . ... ... : ... .. 8 ... ... : ... .. 8 ... ... : ... .. 5 ... ...
ROW 87 : ... .. 9 P84 ... ... : ... .. . ... ... ... : ... .. . ... : ... .. 3 ... : ... .. . ... ... : ... .. 1 ... ... : ... .. 1 ... ... : ... .. 2 P80 ...
ROW 88 : D#4 00 9 P7C ... ... : ... .. . ... ... ... : ... .. . ... : ... .. 2 ... : ... .. . ... ... : ... .. . ... ... : ... .. . ... ... : ... .. . P7F ...
ROW 89 : ... .. . P80 ... ... : ... .. . ... ... ... : --- .. . ... : ... .. 0 ... : ... .. . ... ... : ... .. . ... ... : ... .. . ... ... : ... .. . P7D ...
ROW 8A : ... .. 8 P83 ... ... : ... .. . ... ... ... : A-2 00 . ... : 9-# 00 8 ... : ... .. . ... ... : ... .. A ... ... : ... .. A ... ... : ... .. A ... ...
ROW 8B : E-4 00 8 P7C ... ... : ... .. . ... ... ... : ... .. . ... : ... .. 6 ... : ... .. . ... ... : ... .. 9 ... ... : ... .. 9 ... ... : ... .. 8 P7E ...
ROW 8C : ... .. . ... ... ... : ... .. . ... ... ... : ... .. . ... : ... .. 3 ... : ... .. . ... ... : ... .. 8 ... ... : ... .. 8 ... ... : ... .. 5 P80 ...
ROW 8D : D#4 00 8 P82 ... ... : ... .. . P85 ... ... : ... .. . ... : ... .. 1 ... : ... .. . ... ... : ... .. 1 ... ... : ... .. 1 ... ... : ... .. 2 P82 ...
ROW 8E : ... .. . P7F ... ... : E-4 00 4 P7D ... ... : ... .. . ... : ... .. . ... : ... .. . ... ... : ... .. . ... ... : ... .. . ... ... : ... .. . P83 ...
ROW 8F : D-4 00 8 P85 ... ... : ... .. . P7C ... ... : --- .. . ... : ... .. 0 ... : ... .. . ... ... : ... .. . ... ... : ... .. . ... ... : ... .. . ... ...
ROW 90 : ... .. . P84 ... ... : D#4 00 4 P83 ... ... : A-4 00 . ... : ... .. D ... : ... .. . ... ... : C#4 01 A ... ... : F-4 01 A ... ... : A#3 01 A P81 ...
ROW 91 : D#4 00 8 P7C ... ... : ... .. . P7F ... ... : B-3 00 . ... : ... .. B ... : ... .. . ... ... : ... .. 9 ... ... : ... .. 9 ... ... : ... .. 8 P7F ...
ROW 92 : ... .. . P80 ... ... : ... .. . P7C ... ... : E-3 00 . ... : ... .. . ... : ... .. . ... ... : ... .. 8 ... ... : ... .. 8 ... ... : ... .. 5 P7D ...
ROW 93 : ... .. . P83 ... ... : D-4 00 3 P85 ... ... : D#3 00 . ... : ... .. A ... : ... .. . ... ... : ... .. 1 ... ... : ... .. 1 ... ... : ... .. 2 ... ...
ROW 94 : E-4 00 8 P7C ... ... : D#4 00 3 P7D ... ... : A#2 00 . ... : ... .. 8 ... : ... .. . ... ... : ... .. . ... ... : ... .. . ... ... : ... .. . P7E ...
ROW 95 : ... .. . ... ... ... : ... .. . P81 ... ... : ... .. . ... : ... .. 7 ... : ... .. . ... ... : ... .. . ... ... : ... .. . ... ... : ... .. . P80 ...
ROW 96 : D#4 00 7 P83 ... ... : ... .. 2 P84 ... ... : A-2 00 . ... : 7-# 00 8 ... : ... .. . ... ... : ... .. A ... ... : ... .. A ... ... : ... .. A P82 ...
ROW 97 : ... .. . P80 ... ... : E-4 00 2 P7D ... ... : ... .. . ... : ... .. 6 ... : ... .. . ... ... : ... .. 9 ... ... : ... .. 9 ... ... : ... .. 8 P83 ...
ROW 98 : ... .. . P7C ... ... : ... .. . ... ... ... : ... .. . ... : ... .. 3 ... : ... .. . ... ... : ... .. 8 ... ... : ... .. 8 ... ... : ... .. 5 ... ...
ROW 99 : D-4 00 6 P84 ... ... : D#4 00 2 P83 ... ... : ... .. . ... : ... .. 1 ... : ... .. . ... ... : ... .. 1 ... ... : ... .. 1 ... ... : ... .. 2 P81 ...
ROW 9A : ... .. . P85 ... ... : ... .. . P80 ... ... : ... .. . ... : ... .. . ... : ... .. . ... ... : ... .. . ... ... : ... .. . ... ... : ... .. . P80 ...
ROW 9B : D#4 00 6 P7F ... ... : ... .. . P7C ... ... : --- .. . ... : ... .. 0 ... : ... .. . ... ... : ... .. . ... ... : ... .. . ... ... : ... .. . P7D ...
ROW 9C : ... .. . P82 ... ... : D-4 00 2 P85 ... ... : G-3 00 . ... : A-# 00 F ... : ... .. . ... ... : ... .. A ... ... : ... .. A ... ... : ... .. A ... ...
ROW 9D : E-4 00 6 P7C ... ... : D#4 00 2 P7D ... ... : ... .. . ... : ... .. C ... : ... .. . ... ... : ... .. 9 ... ... : ... .. 9 ... ... : ... .. 8 P7E ...
ROW 9E : ... .. . ... ... ... : ... .. . P81 ... ... : ... .. . ... : ... .. 6 ... : ... .. . ... ... : ... .. 8 ... ... : ... .. 8 ... ... : ... .. 5 P80 ...
ROW 9F : D#4 00 6 P83 ... ... : ... .. . P84 ... ... : ... .. . ... : ... .. 3 ... : ... .. . ... ... : ... .. 1 ... ... : ... .. 1 ... ... : ... .. 2 P81 ...
ROW A0 : ... .. . P80 ... ... : E-4 00 2 P7D ... ... : ... .. . ... : ... .. 2 ... : ... .. . ... ... : ... .. . ... ... : ... .. . ... ... : ... .. . P83 ...
ROW A1 : ... .. . P7C ... ... : ... .. . ... ... ... : --- .. . ... : ... .. 0 ... : ... .. . ... ... : ... .. . ... ... : ... .. . ... ... : ... .. . ... ...
ROW A2 : D-4 00 6 P84 ... ... : D#4 00 1 P84 ... ... : A-2 00 . ... : E-# 00 8 ... : ... .. . ... ... : ... .. A ... ... : ... .. A ... ... : ... .. A P81 ...
ROW A3 : ... .. . P85 ... ... : ... .. . P81 ... ... : ... .. . ... : ... .. 6 ... : ... .. . ... ... : ... .. 9 ... ... : ... .. 9 ... ... : ... .. 8 P80 ...
ROW A4 : D#4 00 6 P7E ... ... : ... .. . P7D ... ... : ... .. . ... : ... .. 3 ... : ... .. . ... ... : ... .. 8 ... ... : ... .. 8 ... ... : ... .. 5 P7E ...
ROW A5 : ... .. 5 P82 ... ... : D-4 00 1 P85 ... ... : ... .. . ... : ... .. 1 ... : ... .. . ... ... : ... .. 1 ... ... : ... .. 1 ... ... : ... .. 2 P7D ...
ROW A6 : ... .. . P85 ... ... : D#4 00 1 P7C ... ... : ... .. . ... : ... .. . ... : ... .. . ... ... : ... .. . ... ... : ... .. . ... ... : ... .. . ... ...
ROW A7 : E-4 00 5 P7C ... ... : ... .. . P80 ... ... : --- .. . ... : ... .. 0 ... : ... .. . ... ... : ... .. . ... ... : ... .. . ... ... : ... .. . P80 ...
ROW A8 : C-4 00 8 P80 ... ... : ... .. . P83 ... ... : G#4 00 . ... : 1-# 00 F ... : ... .. . ... ... : C-4 01 A ... ... : E-4 01 A ... ... : A-3 01 A P81 ...
ROW A9 : ... .. 7 ... ... ... : E-4 00 1 P7D ... ... : A#3 00 . ... : ... .. C ... : ... .. . ... ... : ... .. 9 ... ... : ... .. 9 ... ... : ... .. 8 P83 ...
ROW AA : ... .. 6 ... ... ... : ... .. . ... ... ... : D#3 00 . ... : ... .. 6 ... : ... .. . ... ... : ... .. 8 ... ... : ... .. 8 ... ... : ... .. 5 ... ...
ROW AB : ... .. 5 ... ... ... : D#4 00 1 P84 ... ... : D-3 00 . ... : ... .. 3 ... : ... .. . ... ... : ... .. 1 ... ... : ... .. 1 ... ... : ... .. 2 P82 ...
ROW AC : ... .. . ... ... ... : ... .. . P81 ... ... : A-2 00 . ... : ... .. 2 ... : ... .. . ... ... : ... .. . ... ... : ... .. . ... ... : ... .. . P80 ...
ROW AD : ... .. . ... ... ... : ... .. . P7D ... ... : ... .. . ... : ... .. 0 ... : ... .. . ... ... : ... .. . ... ... : ... .. . ... ... : ... .. . P7E ...
ROW AE : ... .. 6 ... ... ... : D-4 00 1 P85 ... ... : ... .. . ... : 9-# 00 8 ... : ... .. . ... ... : ... .. A ... ... : ... .. A ... ... : ... .. A P7D ...
ROW AF : ... .. . ... ... ... : D#4 00 1 P7C ... ... : ... .. . ... : ... .. 6 ... : ... .. . ... ... : ... .. 9 ... ... : ... .. 9 ... ... : ... .. 8 ... ...
ROW B0 : ... .. . ... ... ... : ... .. . P7F ... ... : ... .. . ... : ... .. 3 ... : ... .. . ... ... : ... .. 8 ... ... : ... .. 8 ... ... : ... .. 5 P7F ...
ROW B1 : ... .. . ... ... ... : ... .. . P83 ... ... : ... .. . ... : ... .. 1 ... : ... .. . ... ... : ... .. 1 ... ... : ... .. 1 ... ... : ... .. 2 P81 ...
ROW B2 : ... .. . ... ... ... : E-4 00 1 P7C ... ... : ... .. . ... : ... .. . ... : ... .. . ... ... : ... .. . ... ... : ... .. . ... ... : ... .. . P83 ...
ROW B3 : ... .. . ... ... ... : ... .. . P7D ... ... : --- .. . ... : ... .. 0 ... : ... .. . ... ... : ... .. . ... ... : ... .. . ... ... : ... .. . ... ...
ROW B4 : ... .. 7 ... ... ... : C-4 00 1 P81 ... ... : A-3 00 . ... : B-# 00 F ... : ... .. . ... ... : ... .. A ... ... : ... .. A ... ... : ... .. A P82 ...
ROW B5 : ... .. . ... ... ... : ... .. . ... ... ... : ... .. . ... : ... .. C ... : ... .. . ... ... : ... .. 9 ... ... : ... .. 9 ... ... : ... .. 8 P80 ...
ROW B6 : ... .. . ... ... ... : ... .. . ... ... ... : ... .. . ... : ... .. 6 ... : ... .. . ... ... : ... .. 8 ... ... : ... .. 8 ... ... : ... .. 5 P7E ...
ROW B7 : ... .. 8 ... ... ... : ... .. . ... ... ... : ... .. . ... : ... .. 3 ... : ... .. . ... ... : ... .. 1 ... ... : ... .. 1 ... ... : ... .. 2 P7D ...
ROW B8 : ... .. . ... ... ... : ... .. . ... ... ... : ... .. . ... : ... .. 2 ... : ... .. . ... ... : ... .. . ... ... : ... .. . ... ... : ... .. . ... ...
ROW B9 : ... .. . ... ... ... : ... .. . ... ... ... : --- .. . ... : ... .. 0 ... : ... .. . ... ... : ... .. . ... ... : ... .. . ... ... : ... .. . P7F ...
ROW BA : ... .. . ... ... ... : ... .. . ... ... ... : G#3 00 . ... : 9-# 00 8 ... : ... .. . ... ... : ... .. A ... ... : ... .. A ... ... : ... .. A P80 ...
ROW BB : ... .. . ... ... ... : ... .. . ... ... ... : ... .. . ... : ... .. 6 ... : ... .. . ... ... : ... .. 9 ... ... : ... .. 9 ... ... : ... .. 8 P83 ...
ROW BC : ... .. . ... ... ... : ... .. . ... ... ... : ... .. . ... : ... .. 3 ... : ... .. . ... ... : ... .. 8 ... ... : ... .. 8 ... ... : ... .. 5 ... ...
ROW BD : ... .. 9 ... ... ... : ... .. . ... ... ... : ... .. . ... : ... .. 1 ... : ... .. . ... ... : ... .. 1 ... ... : ... .. 1 ... ... : ... .. 2 P82 ...
ROW BE : ... .. . ... ... ... : ... .. . ... ... ... : ... .. . ... : ... .. . ... : ... .. . ... ... : ... .. . ... ... : ... .. . ... ... : ... .. . P80 ...
ROW BF : ... .. . ... ... ... : ... .. . ... ... ... : --- .. . ... : ... .. 0 ... : ... .. . ... ... : ... .. . ... ... : ... .. . ... ... : ... .. . P7F ...
ROW C0 : ... .. A ... ... ... : ... .. . ... ... ... : G-4 00 . ... : ... .. D ... : ... .. . ... ... : B-3 01 A ... ... : D#4 01 A ... ... : G#3 01 A P7D ...
ROW C1 : C#4 00 A P83 ... ... : ... .. . ... ... ... : A-3 00 . ... : ... .. B ... : ... .. . ... ... : ... .. 9 ... ... : ... .. 9 ... ... : ... .. 8 ... ...
ROW C2 : D#4 00 A P7C ... ... : ... .. . ... ... ... : D-3 00 . ... : ... .. . ... : ... .. . ... ... : ... .. 8 ... ... : ... .. 8 ... ... : ... .. 5 P7F ...
ROW C3 : E-4 00 A P81 ... ... : ... .. 2 ... ... ... : C#3 00 . ... : ... .. A ... : ... .. . ... ... : ... .. 1 ... ... : ... .. 1 ... ... : ... .. 2 P80 ...
ROW C4 : F#4 00 A P7D ... ... : ... .. . ... ... ... : G#2 00 . ... : ... .. 8 ... : ... .. . ... ... : ... .. . ... ... : ... .. . ... ... : ... .. . P82 ...
ROW C5 : G-4 00 A P84 ... ... : ... .. . ... ... ... : ... .. . ... : ... .. 7 ... : ... .. . ... ... : ... .. . ... ... : ... .. . ... ... : ... .. . P83 ...
ROW C6 : A-4 00 5 P83 ... ... : ... .. . ... ... ... : A-2 00 . ... : 7-# 00 8 ... : ... .. . ... ... : ... .. A ... ... : ... .. A ... ... : ... .. A ... ...
ROW C7 : C-5 00 5 P7E ... ... : ... .. . ... ... ... : ... .. . ... : ... .. 6 ... : ... .. . ... ... : ... .. 9 ... ... : ... .. 9 ... ... : ... .. 8 P80 ...
ROW C8 : ... .. . P80 ... ... : ... .. . ... ... ... : ... .. . ... : ... .. 3 ... : ... .. . ... ... : ... .. 8 ... ... : ... .. 8 ... ... : ... .. 5 P7F ...
ROW C9 : ... .. 6 ... ... ... : ... .. 3 ... ... ... : ... .. . ... : ... .. 1 ... : ... .. . ... ... : ... .. 1 ... ... : ... .. 1 ... ... : ... .. 2 P7D ...
ROW CA : ... .. . ... ... ... : ... .. . ... ... ... : ... .. . ... : ... .. . ... : ... .. . ... ... : ... .. . ... ... : ... .. . ... ... : ... .. . ... ...
ROW CB : ... .. . ... ... ... : ... .. . ... ... ... : --- .. . ... : ... .. 0 ... : ... .. . ... ... : ... .. . ... ... : ... .. . ... ... : ... .. . P7E ...
ROW CC : ... .. . ... ... ... : ... .. 4 ... ... ... : C-4 00 . ... : A-# 00 F ... : ... .. . ... ... : ... .. A ... ... : ... .. A ... ... : ... .. A P80 ...
ROW CD : ... .. . ... ... ... : C#4 00 4 P84 ... ... : ... .. . ... : ... .. C ... : ... .. . ... ... : ... .. 9 ... ... : ... .. 9 ... ... : ... .. 8 P82 ...
ROW CE : ... .. . ... ... ... : D#4 00 4 P7D ... ... : ... .. . ... : ... .. 6 ... : ... .. . ... ... : ... .. 8 ... ... : ... .. 8 ... ... : ... .. 5 P83 ...
ROW CF : ... .. 7 ... ... ... : E-4 00 4 P82 ... ... : ... .. . ... : ... .. 3 ... : ... .. . ... ... : ... .. 1 ... ... : ... .. 1 ... ... : ... .. 2 ... ...
ROW D0 : ... .. . ... ... ... : F#4 00 4 P7E ... ... : ... .. . ... : ... .. 2 ... : ... .. . ... ... : ... .. . ... ... : ... .. . ... ... : ... .. . P81 ...
ROW D1 : ... .. . ... ... ... : G#4 00 4 P7D ... ... : --- .. . ... : ... .. 0 ... : ... .. . ... ... : ... .. . ... ... : ... .. . ... ... : ... .. . P7F ...
ROW D2 : ... .. 8 ... ... ... : ... .. 0 ... V00 ... : D#2 00 . ... : E-# 00 8 ... : ... .. . ... ... : ... .. A ... ... : ... .. A ... ... : ... .. A P7D ...
ROW D3 : ... .. . ... ... ... : ... .. . ... ... ... : ... .. . ... : ... .. 6 ... : ... .. . ... ... : ... .. 9 ... ... : ... .. 9 ... ... : ... .. 8 ... ...
ROW D4 : ... .. . ... ... ... : ... .. . ... ... ... : ... .. . ... : ... .. 3 ... : ... .. . ... ... : ... .. 8 ... ... : ... .. 8 ... ... : ... .. 5 P7E ...
ROW D5 : ... .. . ... ... ... : ... .. . ... ... ... : ... .. . ... : ... .. 1 ... : ... .. . ... ... : ... .. 1 ... ... : ... .. 1 ... ... : ... .. 2 P80 ...
ROW D6 : ... .. . ... ... ... : ... .. . ... ... ... : ... .. . ... : ... .. . ... : ... .. . ... ... : ... .. . ... ... : ... .. . ... ... : ... .. . P82 ...
ROW D7 : ... .. . ... ... ... : ... .. . ... ... ... : --- .. . ... : ... .. 0 ... : ... .. . ... ... : ... .. . ... ... : ... .. . ... ... : ... .. . P83 ...
ROW D8 : C#5 00 A P7E ... ... : C-5 00 1 P81 V01 ... : G#3 00 . ... : 1-# 00 F ... : ... .. . ... ... : A#3 01 A ... ... : D-4 01 A ... ... : G-3 01 A ... ...
ROW D9 : ... .. . P80 ... ... : ... .. . ... ... ... : A#2 00 . ... : ... .. C ... : ... .. . ... ... : ... .. 9 ... ... : ... .. 9 ... ... : ... .. 8 P81 ...
ROW DA : ... .. . P7F ... ... : ... .. . ... ... ... : D#2 00 . ... : ... .. 6 ... : ... .. . ... ... : ... .. 8 ... ... : ... .. 8 ... ... : ... .. 5 P80 ...
ROW DB : C-5 00 A P82 ... ... : ... .. . ... ... ... : D-2 00 . ... : ... .. 3 ... : ... .. . ... ... : ... .. 1 ... ... : ... .. 1 ... ... : ... .. 2 P7D ...
ROW DC : ... .. . P7E ... ... : ... .. . ... ... ... : A-1 00 . ... : ... .. 2 ... : ... .. . ... ... : ... .. . ... ... : ... .. . ... ... : ... .. . ... ...
ROW DD : B-4 00 A P81 ... ... : ... .. . ... ... ... : ... .. . ... : ... .. 0 ... : ... .. . ... ... : ... .. . ... ... : ... .. . ... ... : ... .. . P7E ...
ROW DE : ... .. . P80 ... ... : ... .. 2 ... ... ... : A-2 00 . ... : 9-# 00 8 ... : ... .. . ... ... : ... .. A ... ... : ... .. A ... ... : ... .. A P80 ...
ROW DF : ... .. . P82 ... ... : ... .. . ... ... ... : ... .. . ... : ... .. 6 ... : ... .. . ... ... : ... .. 9 ... ... : ... .. 9 ... ... : ... .. 8 P81 ...
ROW E0 : C-5 00 A P80 ... ... : ... .. . ... ... ... : ... .. . ... : ... .. 3 ... : ... .. . ... ... : ... .. 8 ... ... : ... .. 8 ... ... : ... .. 5 P83 ...
ROW E1 : ... .. . P83 ... ... : ... .. . ... ... ... : ... .. . ... : ... .. 1 ... : ... .. . ... ... : ... .. 1 ... ... : ... .. 1 ... ... : ... .. 2 ... ...
ROW E2 : C#5 00 A P80 ... ... : ... .. . ... ... ... : ... .. . ... : ... .. . ... : ... .. . ... ... : ... .. . ... ... : ... .. . ... ... : ... .. . P81 ...
ROW E3 : ... .. . ... ... ... : ... .. . ... ... ... : --- .. . ... : ... .. 0 ... : ... .. . ... ... : ... .. . ... ... : ... .. . ... ... : ... .. . P80 ...
ROW E4 : C-5 00 A P82 ... ... : C#5 00 4 P7F ... ... : A-3 00 . ... : 1-# 00 F ... : ... .. . ... ... : ... .. A ... ... : ... .. A ... ... : ... .. A P7E ...
ROW E5 : ... .. . P7F ... ... : ... .. . P81 ... ... : ... .. . ... : ... .. C ... : ... .. . ... ... : ... .. 9 ... ... : ... .. 9 ... ... : ... .. 8 P7D ...
ROW E6 : B-4 00 A P81 ... ... : ... .. . P80 ... ... : ... .. . ... : ... .. 6 ... : ... .. . ... ... : ... .. 8 ... ... : ... .. 8 ... ... : ... .. 5 ... ...
ROW E7 : ... .. . P80 ... ... : C-5 00 4 P83 ... ... : ... .. . ... : ... .. 3 ... : ... .. . ... ... : ... .. 1 ... ... : ... .. 1 ... ... : ... .. 2 P80 ...
ROW E8 : ... .. . P82 ... ... : ... .. . P7F ... ... : ... .. . ... : ... .. 2 ... : ... .. . ... ... : ... .. . ... ... : ... .. . ... ... : ... .. . P81 ...
ROW E9 : C-5 00 A P80 ... ... : B-4 00 4 P82 ... ... : --- .. . ... : ... .. 0 ... : ... .. . ... ... : ... .. . ... ... : ... .. . ... ... : ... .. . P83 ...
ROW EA : ... .. 5 P83 ... ... : ... .. . P81 ... ... : A-2 00 . ... : 9-# 00 8 ... : ... .. . ... ... : ... .. A ... ... : ... .. A ... ... : ... .. A ... ...
ROW EB : C#5 00 5 P80 ... ... : ... .. . P83 ... ... : ... .. . ... : ... .. 6 ... : ... .. . ... ... : ... .. 9 ... ... : ... .. 9 ... ... : ... .. 8 P82 ...
ROW EC : ... .. . ... ... ... : C-5 00 4 P81 ... ... : ... .. . ... : ... .. 3 ... : ... .. . ... ... : ... .. 8 ... ... : ... .. 8 ... ... : ... .. 5 P80 ...
ROW ED : C-5 00 5 P83 ... ... : C#5 00 4 P7E ... ... : ... .. . ... : ... .. 1 ... : ... .. . ... ... : ... .. 1 ... ... : ... .. 1 ... ... : ... .. 2 P7E ...
ROW EE : ... .. . P80 ... ... : ... .. . P81 ... ... : ... .. . ... : ... .. . ... : ... .. . ... ... : ... .. . ... ... : ... .. . ... ... : ... .. . P7D ...
ROW EF : B-4 00 5 P82 ... ... : ... .. . ... ... ... : --- .. . ... : ... .. 0 ... : ... .. . ... ... : ... .. . ... ... : ... .. . ... ... : ... .. . ... ...
ROW F0 : ... .. . P80 ... ... : C-5 00 4 P83 ... ... : A-4 00 . ... : ... .. D ... : ... .. . ... ... : A-3 01 A ... ... : C#4 01 A ... ... : F#3 01 A P7F ...
ROW F1 : ... .. . P81 ... ... : ... .. . P80 ... ... : B-3 00 . ... : ... .. B ... : ... .. . ... ... : ... .. 9 ... ... : ... .. 9 ... ... : ... .. 8 P81 ...
ROW F2 : C-5 00 5 P7F ... ... : B-4 00 4 P82 ... ... : E-3 00 . ... : ... .. . ... : ... .. . ... ... : ... .. 8 ... ... : ... .. 8 ... ... : ... .. 5 P83 ...
ROW F3 : A#4 00 5 ... ... ... : ... .. . P81 ... ... : D#3 00 . ... : ... .. A ... : ... .. . ... ... : ... .. 1 ... ... : ... .. 1 ... ... : ... .. 2 ... ...
ROW F4 : G#4 00 5 P82 ... ... : ... .. . P83 ... ... : A#2 00 . ... : ... .. 8 ... : ... .. . ... ... : ... .. . ... ... : ... .. . ... ... : ... .. . P82 ...
ROW F5 : F#4 00 5 ... ... ... : C-5 00 4 P81 ... ... : ... .. . ... : ... .. 7 ... : ... .. . ... ... : ... .. . ... ... : ... .. . ... ... : ... .. . P80 ...
ROW F6 : E-4 00 3 ... ... ... : C#5 00 1 P7E ... ... : A-2 00 . ... : 7-# 00 8 ... : ... .. . ... ... : ... .. A ... ... : ... .. A ... ... : ... .. A P7E ...
ROW F7 : D-4 00 3 P83 ... ... : ... .. . P81 ... ... : ... .. . ... : ... .. 6 ... : ... .. . ... ... : ... .. 9 ... ... : ... .. 9 ... ... : ... .. 8 P7D ...
ROW F8 : C#4 00 3 P7B ... ... : ... .. . ... ... ... : ... .. . ... : ... .. 3 ... : ... .. . ... ... : ... .. 8 ... ... : ... .. 8 ... ... : ... .. 5 ... ...
ROW F9 : C-4 00 3 ... ... ... : ... .. . P7E ... ... : ... .. . ... : ... .. 1 ... : ... .. . ... ... : ... .. 1 ... ... : ... .. 1 ... ... : ... .. 2 P7F ...
ROW FA : A#3 00 3 P85 ... ... : C-5 00 1 P81 ... ... : ... .. . ... : ... .. . ... : ... .. . ... ... : ... .. . ... ... : ... .. . ... ... : ... .. . P80 ...
ROW FB : A-3 00 3 P83 ... ... : B-4 00 1 P83 ... ... : --- .. . ... : ... .. 0 ... : ... .. . ... ... : ... .. . ... ... : ... .. . ... ... : ... .. . P83 ...
ROW FC : B-4 00 4 P80 ... ... : ... .. . P81 ... ... : G-3 00 . ... : A-# 00 F ... : ... .. . ... ... : ... .. A ... ... : ... .. A ... ... : ... .. A ... ...
ROW FD : ... .. 3 ... ... ... : ... .. . P82 ... ... : ... .. . ... : ... .. C ... : ... .. . ... ... : ... .. 9 ... ... : ... .. 9 ... ... : ... .. 8 P82 ...
ROW FE : ... .. . ... ... ... : C-5 00 1 P80 ... ... : ... .. . ... : ... .. 6 ... : ... .. . ... ... : ... .. 8 ... ... : ... .. 8 ... ... : ... .. 5 P80 ...
ROW FF : C-5 00 6 ... V00 ... : A#4 00 1 ... ... ... : ... .. . ... : ... .. 3 ... : ... .. . ... ... : ... .. 1 ... ... : ... .. 1 ... ... : ... .. 2 P7F ...

PATTERN 13
ROW 00 : ... .. 5 ... ... ... : G#4 00 1 P83 ... ... : ... .. . ... : ... .. 2 ... : ... .. . ... ... : ... .. . ... ... : ... .. . ... ... : ... .. . P7D ...
ROW 01 : ... .. . ... ... ... : F#4 00 1 ... ... ... : --- .. . ... : ... .. 0 ... : ... .. . ... ... : ... .. . ... ... : ... .. . ... ... : ... .. . ... ...
ROW 02 : D-5 00 8 ... ... ... : E-4 00 1 ... ... ... : A-2 00 . ... : E-# 00 8 ... : ... .. . ... ... : ... .. A ... ... : ... .. A ... ... : ... .. A P7F ...
ROW 03 : ... .. 7 ... ... ... : D-4 00 1 P84 ... ... : ... .. . ... : ... .. 6 ... : ... .. . ... ... : ... .. 9 ... ... : ... .. 9 ... ... : ... .. 8 P80 ...
ROW 04 : ... .. 6 ... ... ... : C#4 00 1 P7C ... ... : ... .. . ... : ... .. 3 ... : ... .. . ... ... : ... .. 8 ... ... : ... .. 8 ... ... : ... .. 5 P82 ...
ROW 05 : E-5 00 F ... ... ... : C-4 00 1 ... ... ... : ... .. . ... : ... .. 1 ... : ... .. . ... ... : ... .. 1 ... ... : ... .. 1 ... ... : ... .. 2 P83 ...
ROW 06 : ... .. E ... ... ... : A#3 00 1 P86 ... ... : ... .. . ... : ... .. . ... : ... .. . ... ... : ... .. . ... ... : ... .. . ... ... : ... .. . ... ...
ROW 07 : ... .. D ... ... ... : A-3 00 1 P84 ... ... : --- .. . ... : ... .. 0 ... : ... .. . ... ... : ... .. . ... ... : ... .. . ... ... : ... .. . P80 ...
ROW 08 : F-5 00 F ... ... ... : B-4 00 2 P81 ... ... : E-4 00 . ... : 1-# 00 F ... : ... .. . ... ... : G#3 01 A ... ... : C-4 01 A ... ... : F-3 01 A P7F ...
ROW 09 : ... .. E ... ... ... : ... .. 1 ... ... ... : F#3 00 . ... : ... .. C ... : ... .. . ... ... : ... .. 9 ... ... : ... .. 9 ... ... : ... .. 8 P7D ...
ROW 0A : ... .. D ... ... ... : ... .. . ... ... ... : B-2 00 . ... : ... .. 6 ... : ... .. . ... ... : ... .. 8 ... ... : ... .. 8 ... ... : ... .. 5 ... ...
ROW 0B : ... .. A ... ... ... : C-5 00 3 ... V00 ... : A#2 00 . ... : ... .. 3 ... : ... .. . ... ... : ... .. 1 ... ... : ... .. 1 ... ... : ... .. 2 P7E ...
ROW 0C : ... .. . ... ... ... : ... .. 2 ... ... ... : F-2 00 . ... : ... .. 2 ... : ... .. . ... ... : ... .. . ... ... : ... .. . ... ... : ... .. . P80 ...
ROW 0D : ... .. . ... ... ... : ... .. . ... ... ... : ... .. . ... : ... .. 0 ... : ... .. . ... ... : ... .. . ... ... : ... .. . ... ... : ... .. . P82 ...
ROW 0E : ... .. . ... ... ... : D-5 00 4 ... ... ... : ... .. . ... : 9-# 00 8 ... : ... .. . ... ... : ... .. A ... ... : ... .. A ... ... : ... .. A P83 ...
ROW 0F : ... .. . ... ... ... : ... .. 3 ... ... ... : ... .. . ... : ... .. 6 ... : ... .. . ... ... : ... .. 9 ... ... : ... .. 9 ... ... : ... .. 8 ... ...
ROW 10 : ... .. . ... ... ... : ... .. . ... ... ... : ... .. . ... : ... .. 3 ... : ... .. . ... ... : ... .. 8 ... ... : ... .. 8 ... ... : ... .. 5 P81 ...
ROW 11 : ... .. . ... ... ... : E-5 00 6 ... ... ... : ... .. . ... : ... .. 1 ... : ... .. . ... ... : ... .. 1 ... ... : ... .. 1 ... ... : ... .. 2 P7F ...
ROW 12 : ... .. . ... ... ... : ... .. 5 ... ... ... : ... .. . ... : ... .. . ... : ... .. . ... ... : ... .. . ... ... : ... .. . ... ... : ... .. . P7D ...
ROW 13 : ... .. . ... ... ... : ... .. . ... ... ... : --- .. . ... : ... .. 0 ... : ... .. . ... ... : ... .. . ... ... : ... .. . ... ... : ... .. . ... ...
ROW 14 : ... .. . ... ... ... : F-5 00 6 ... ... ... : F-3 00 . ... : B-# 00 F ... : ... .. . ... ... : ... .. A ... ... : ... .. A ... ... : ... .. A P7E ...
ROW 15 : ... .. . ... ... ... : ... .. 5 ... ... ... : ... .. . ... : ... .. C ... : ... .. . ... ... : ... .. 9 ... ... : ... .. 9 ... ... : ... .. 8 P80 ...
ROW 16 : ... .. . ... ... ... : ... .. . ... ... ... : ... .. . ... : ... .. 6 ... : ... .. . ... ... : ... .. 8 ... ... : ... .. 8 ... ... : ... .. 5 P82 ...
ROW 17 : ... .. . ... ... ... : ... .. 4 ... ... ... : ... .. . ... : ... .. 3 ... : ... .. . ... ... : ... .. 1 ... ... : ... .. 1 ... ... : ... .. 2 P83 ...
ROW 18 : ... .. . ... ... ... : ... .. . ... ... ... : ... .. . ... : ... .. 2 ... : ... .. . ... ... : ... .. . ... ... : ... .. . ... ... : ... .. . ... ...
ROW 19 : ... .. . ... ... ... : ... .. . ... ... ... : --- .. . ... : ... .. 0 ... : ... .. . ... ... : ... .. . ... ... : ... .. . ... ... : ... .. . P81 ...
ROW 1A : ... .. . ... ... ... : ... .. . ... ... ... : E-3 00 . ... : 9-# 00 8 ... : ... .. . ... ... : ... .. A ... ... : ... .. A ... ... : ... .. A P80 ...
ROW 1B : ... .. . ... ... ... : ... .. . ... ... ... : ... .. . ... : ... .. 6 ... : ... .. . ... ... : ... .. 9 ... ... : ... .. 9 ... ... : ... .. 8 P7D ...
ROW 1C : ... .. . ... ... ... : ... .. . ... ... ... : ... .. . ... : ... .. 3 ... : ... .. . ... ... : ... .. 8 ... ... : ... .. 8 ... ... : ... .. 5 ... ...
ROW 1D : ... .. . ... ... ... : ... .. . ... ... ... : ... .. . ... : ... .. 1 ... : ... .. . ... ... : ... .. 1 ... ... : ... .. 1 ... ... : ... .. 2 P7E ...
ROW 1E : ... .. . ... ... ... : ... .. . ... ... ... : ... .. . ... : ... .. . ... : ... .. . ... ... : ... .. . ... ... : ... .. . ... ... : ... .. . P80 ...
ROW 1F : ... .. . ... ... ... : ... .. . ... ... ... : --- .. . ... : ... .. 0 ... : ... .. . ... ... : ... .. . ... ... : ... .. . ... ... : ... .. . P81 ...
ROW 20 : ... .. . ... ... ... : ... .. . ... ... ... : D#4 00 . ... : ... .. D ... : ... .. . ... ... : G-3 01 A ... ... : B-3 01 A ... ... : E-3 01 A P83 ...
ROW 21 : D-5 00 A ... ... ... : ... .. . ... ... ... : F-3 00 . ... : ... .. B ... : ... .. . ... ... : ... .. 9 ... ... : ... .. 9 ... ... : ... .. 8 ... ...
ROW 22 : C-5 00 A ... ... ... : ... .. . ... ... ... : A#2 00 . ... : ... .. . ... : ... .. . ... ... : ... .. 8 ... ... : ... .. 8 ... ... : ... .. 5 P81 ...
ROW 23 : ... .. . ... ... ... : ... .. . ... ... ... : A-2 00 . ... : ... .. A ... : ... .. . ... ... : ... .. 1 ... ... : ... .. 1 ... ... : ... .. 2 P80 ...
ROW 24 : ... .. . ... ... ... : ... .. . ... ... ... : E-2 00 . ... : ... .. 8 ... : ... .. . ... ... : ... .. . ... ... : ... .. . ... ... : ... .. . P7E ...
ROW 25 : ... .. . ... ... ... : ... .. . ... ... ... : ... .. . ... : ... .. 7 ... : ... .. . ... ... : ... .. . ... ... : ... .. . ... ... : ... .. . P7D ...
ROW 26 : ... .. . ... ... ... : ... .. . ... ... ... : F-2 00 . ... : 7-# 00 8 ... : ... .. . ... ... : ... .. A ... ... : ... .. A ... ... : ... .. A ... ...
ROW 27 : ... .. . ... ... ... : ... .. . ... ... ... : ... .. . ... : ... .. 6 ... : ... .. . ... ... : ... .. 9 ... ... : ... .. 9 ... ... : ... .. 8 P80 ...
ROW 28 : ... .. . ... ... ... : ... .. . ... ... ... : ... .. . ... : ... .. 3 ... : ... .. . ... ... : ... .. 8 ... ... : ... .. 8 ... ... : ... .. 5 P81 ...
ROW 29 : ... .. . ... ... ... : ... .. . ... ... ... : ... .. . ... : ... .. 1 ... : ... .. . ... ... : ... .. 1 ... ... : ... .. 1 ... ... : ... .. 2 P83 ...
ROW 2A : ... .. . ... ... ... : ... .. . ... ... ... : ... .. . ... : ... .. . ... : ... .. . ... ... : ... .. . ... ... : ... .. . ... ... : ... .. . ... ...
ROW 2B : ... .. . ... ... ... : ... .. . ... ... ... : --- .. . ... : ... .. 0 ... : ... .. . ... ... : ... .. . ... ... : ... .. . ... ... : ... .. . P82 ...
ROW 2C : ... .. . ... ... ... : ... .. . ... ... ... : G#3 00 . ... : A-# 00 F ... : ... .. . ... ... : ... .. A ... ... : ... .. A ... ... : ... .. A P80 ...
ROW 2D : ... .. . ... ... ... : D-5 00 4 ... ... ... : ... .. . ... : ... .. C ... : ... .. . ... ... : ... .. 9 ... ... : ... .. 9 ... ... : ... .. 8 P7E ...
ROW 2E : ... .. . ... ... ... : C-5 00 4 ... ... ... : ... .. . ... : ... .. 6 ... : ... .. . ... ... : ... .. 8 ... ... : ... .. 8 ... ... : ... .. 5 P7D ...
ROW 2F : ... .. . ... ... ... : ... .. . ... ... ... : ... .. . ... : ... .. 3 ... : ... .. . ... ... : ... .. 1 ... ... : ... .. 1 ... ... : ... .. 2 ... ...
ROW 30 : ... .. . ... ... ... : ... .. . ... ... ... : ... .. . ... : ... .. 2 ... : ... .. . ... ... : ... .. . ... ... : ... .. . ... ... : ... .. . P7F ...
ROW 31 : ... .. . ... ... ... : ... .. . ... ... ... : --- .. . ... : ... .. 0 ... : ... .. . ... ... : ... .. . ... ... : ... .. . ... ... : ... .. . P81 ...
ROW 32 : ... .. . ... ... ... : ... .. . ... ... ... : B-1 00 . ... : E-# 00 8 ... : ... .. . ... ... : ... .. A ... ... : ... .. A ... ... : ... .. A P83 ...
ROW 33 : ... .. . ... ... ... : ... .. . ... ... ... : ... .. . ... : ... .. 6 ... : ... .. . ... ... : ... .. 9 ... ... : ... .. 9 ... ... : ... .. 8 ... ...
ROW 34 : ... .. . ... ... ... : ... .. . ... ... ... : ... .. . ... : ... .. 3 ... : ... .. . ... ... : ... .. 8 ... ... : ... .. 8 ... ... : ... .. 5 P82 ...
ROW 35 : ... .. . ... ... ... : ... .. . ... ... ... : ... .. . ... : ... .. 1 ... : ... .. . ... ... : ... .. 1 ... ... : ... .. 1 ... ... : ... .. 2 P80 ...
ROW 36 : ... .. . ... ... ... : ... .. . ... ... ... : ... .. . ... : ... .. . ... : ... .. . ... ... : ... .. . ... ... : ... .. . ... ... : ... .. . P7E ...
ROW 37 : ... .. . ... ... ... : ... .. . ... ... ... : --- .. . ... : ... .. 0 ... : ... .. . ... ... : ... .. . ... ... : ... .. . ... ... : ... .. . P7D ...
ROW 38 : ... .. . ... ... ... : ... .. . ... ... ... : E-3 00 . ... : 1-# 00 F ... : ... .. . ... ... : G#3 01 A ... ... : C-4 01 A ... ... : F-3 01 A ... ...
ROW 39 : ... .. . ... ... ... : ... .. . ... ... ... : F#2 00 . ... : ... .. C ... : ... .. . ... ... : ... .. 9 ... ... : ... .. 9 ... ... : ... .. 8 P7F ...
ROW 3A : ... .. . ... ... ... : ... .. . ... ... ... : B-1 00 . ... : ... .. 6 ... : ... .. . ... ... : ... .. 8 ... ... : ... .. 8 ... ... : ... .. 5 P80 ...
ROW 3B : ... .. . ... ... ... : ... .. . ... ... ... : A#1 00 . ... : ... .. 3 ... : ... .. . ... ... : ... .. 1 ... ... : ... .. 1 ... ... : ... .. 2 P83 ...
ROW 3C : ... .. . ... ... ... : ... .. . ... ... ... : F-1 00 . ... : ... .. 2 ... : ... .. . ... ... : ... .. . ... ... : ... .. . ... ... : ... .. . ... ...
ROW 3D : ... .. . ... ... ... : ... .. . ... ... ... : ... .. . ... : ... .. 0 ... : ... .. . ... ... : ... .. . ... ... : ... .. . ... ... : ... .. . P82 ...
ROW 3E : C#5 00 A P7E ... ... : ... .. . ... ... ... : F-2 00 . ... : 9-# 00 8 ... : ... .. . ... ... : ... .. A ... ... : ... .. A ... ... : ... .. A P80 ...
ROW 3F : ... .. . P80 ... ... : ... .. . ... ... ... : ... .. . ... : ... .. 6 ... : ... .. . ... ... : ... .. 9 ... ... : ... .. 9 ... ... : ... .. 8 P7F ...
ROW 40 : ... .. . P7F ... ... : ... .. . ... ... ... : ... .. . ... : ... .. 3 ... : ... .. . ... ... : ... .. 8 ... ... : ... .. 8 ... ... : ... .. 5 P7D ...
ROW 41 : C-5 00 A P82 ... ... : ... .. . ... ... ... : ... .. . ... : ... .. 1 ... : ... .. . ... ... : ... .. 1 ... ... : ... .. 1 ... ... : ... .. 2 ... ...
ROW 42 : ... .. . P7E ... ... : ... .. . ... ... ... : ... .. . ... : ... .. . ... : ... .. . ... ... : ... .. . ... ... : ... .. . ... ... : ... .. . P7F ...
ROW 43 : B-4 00 A P81 ... ... : ... .. . ... ... ... : --- .. . ... : ... .. 0 ... : ... .. . ... ... : ... .. . ... ... : ... .. . ... ... : ... .. . P80 ...
ROW 44 : ... .. . P80 ... ... : ... .. . ... ... ... : F-3 00 . ... : 1-# 00 F ... : ... .. . ... ... : ... .. A ... ... : ... .. A ... ... : ... .. A P82 ...
ROW 45 : ... .. . P82 ... ... : ... .. . ... ... ... : ... .. . ... : ... .. C ... : ... .. . ... ... : ... .. 9 ... ... : ... .. 9 ... ... : ... .. 8 P83 ...
ROW 46 : C-5 00 A P80 ... ... : ... .. . ... ... ... : ... .. . ... : ... .. 6 ... : ... .. . ... ... : ... .. 8 ... ... : ... .. 8 ... ... : ... .. 5 ... ...
ROW 47 : ... .. . P83 ... ... : ... .. . ... ... ... : ... .. . ... : ... .. 3 ... : ... .. . ... ... : ... .. 1 ... ... : ... .. 1 ... ... : ... .. 2 P80 ...
ROW 48 : C#5 00 A P80 ... ... : ... .. . ... ... ... : ... .. . ... : ... .. 2 ... : ... .. . ... ... : ... .. . ... ... : ... .. . ... ... : ... .. . P7F ...
ROW 49 : ... .. . ... ... ... : ... .. . ... ... ... : --- .. . ... : ... .. 0 ... : ... .. . ... ... : ... .. . ... ... : ... .. . ... ... : ... .. . P7D ...
ROW 4A : C-5 00 A P82 ... ... : C#5 00 4 P7F ... ... : F-2 00 . ... : 9-# 00 8 ... : ... .. . ... ... : ... .. A ... ... : ... .. A ... ... : ... .. A ... ...
ROW 4B : ... .. . P7F ... ... : ... .. . P81 ... ... : ... .. . ... : ... .. 6 ... : ... .. . ... ... : ... .. 9 ... ... : ... .. 9 ... ... : ... .. 8 P7E ...
ROW 4C : B-4 00 A P81 ... ... : ... .. . P80 ... ... : ... .. . ... : ... .. 3 ... : ... .. . ... ... : ... .. 8 ... ... : ... .. 8 ... ... : ... .. 5 P80 ...
ROW 4D : ... .. . P80 ... ... : C-5 00 4 P83 ... ... : ... .. . ... : ... .. 1 ... : ... .. . ... ... : ... .. 1 ... ... : ... .. 1 ... ... : ... .. 2 P82 ...
ROW 4E : ... .. . P82 ... ... : ... .. . P7F ... ... : ... .. . ... : ... .. . ... : ... .. . ... ... : ... .. . ... ... : ... .. . ... ... : ... .. . P83 ...
ROW 4F : C-5 00 A P80 ... ... : B-4 00 4 P82 ... ... : --- .. . ... : ... .. 0 ... : ... .. . ... ... : ... .. . ... ... : ... .. . ... ... : ... .. . ... ...
ROW 50 : G#4 00 F ... ... ... : ... .. . P81 ... ... : F-4 00 . ... : ... .. D ... : ... .. . ... ... : A-3 01 A ... ... : C#4 01 A ... ... : F#3 01 A P81 ...
ROW 51 : ... .. E ... ... ... : ... .. . P83 ... ... : G-3 00 . ... : ... .. B ... : ... .. . ... ... : ... .. 9 ... ... : ... .. 9 ... ... : ... .. 8 P7F ...
ROW 52 : ... .. D ... ... ... : C-5 00 4 P81 ... ... : C-3 00 . ... : ... .. . ... : ... .. . ... ... : ... .. 8 ... ... : ... .. 8 ... ... : ... .. 5 P7D ...
ROW 53 : ... .. A ... ... ... : C#5 00 4 P7E ... ... : B-2 00 . ... : ... .. A ... : ... .. . ... ... : ... .. 1 ... ... : ... .. 1 ... ... : ... .. 2 ... ...
ROW 54 : ... .. . ... ... ... : ... .. . P81 ... ... : F#2 00 . ... : ... .. 8 ... : ... .. . ... ... : ... .. . ... ... : ... .. . ... ... : ... .. . P7E ...
ROW 55 : ... .. . ... ... ... : ... .. . ... ... ... : ... .. . ... : ... .. 7 ... : ... .. . ... ... : ... .. . ... ... : ... .. . ... ... : ... .. . P80 ...
ROW 56 : ... .. . ... ... ... : C-5 00 4 P83 ... ... : F-2 00 . ... : 7-# 00 8 ... : ... .. . ... ... : ... .. A ... ... : ... .. A ... ... : ... .. A P82 ...
ROW 57 : ... .. . ... ... ... : ... .. . P80 ... ... : ... .. . ... : ... .. 6 ... : ... .. . ... ... : ... .. 9 ... ... : ... .. 9 ... ... : ... .. 8 P83 ...
ROW 58 : ... .. . ... ... ... : B-4 00 4 P82 ... ... : ... .. . ... : ... .. 3 ... : ... .. . ... ... : ... .. 8 ... ... : ... .. 8 ... ... : ... .. 5 ... ...
ROW 59 : ... .. . ... ... ... : ... .. . P81 ... ... : ... .. . ... : ... .. 1 ... : ... .. . ... ... : ... .. 1 ... ... : ... .. 1 ... ... : ... .. 2 P81 ...
ROW 5A : ... .. . ... ... ... : ... .. . P83 ... ... : ... .. . ... : ... .. . ... : ... .. . ... ... : ... .. . ... ... : ... .. . ... ... : ... .. . P80 ...
ROW 5B : ... .. . ... ... ... : C-5 00 4 P81 ... ... : --- .. . ... : ... .. 0 ... : ... .. . ... ... : ... .. . ... ... : ... .. . ... ... : ... .. . P7D ...
ROW 5C : ... .. . ... ... ... : G#4 00 6 ... ... ... : D#3 00 . ... : A-# 00 F ... : ... .. . ... ... : ... .. A ... ... : ... .. A ... ... : ... .. A ... ...
ROW 5D : ... .. . ... ... ... : ... .. 5 ... ... ... : ... .. . ... : ... .. C ... : ... .. . ... ... : ... .. 9 ... ... : ... .. 9 ... ... : ... .. 8 P7E ...
ROW 5E : ... .. . ... ... ... : ... .. . ... ... ... : ... .. . ... : ... .. 6 ... : ... .. . ... ... : ... .. 8 ... ... : ... .. 8 ... ... : ... .. 5 P80 ...
ROW 5F : ... .. . ... ... ... : ... .. 4 ... ... ... : ... .. . ... : ... .. 3 ... : ... .. . ... ... : ... .. 1 ... ... : ... .. 1 ... ... : ... .. 2 P81 ...
ROW 60 : ... .. . ... ... ... : ... .. . ... ... ... : ... .. . ... : ... .. 2 ... : ... .. . ... ... : ... .. . ... ... : ... .. . ... ... : ... .. . P83 ...
ROW 61 : ... .. . ... ... ... : ... .. . ... ... ... : --- .. . ... : ... .. 0 ... : ... .. . ... ... : ... .. . ... ... : ... .. . ... ... : ... .. . ... ...
ROW 62 : ... .. . ... ... ... : ... .. . ... ... ... : F-2 00 . ... : E-# 00 8 ... : ... .. . ... ... : ... .. A ... ... : ... .. A ... ... : ... .. A P81 ...
ROW 63 : ... .. . ... ... ... : ... .. . ... ... ... : ... .. . ... : ... .. 6 ... : ... .. . ... ... : ... .. 9 ... ... : ... .. 9 ... ... : ... .. 8 P80 ...
ROW 64 : ... .. . ... ... ... : ... .. . ... ... ... : ... .. . ... : ... .. 3 ... : ... .. . ... ... : ... .. 8 ... ... : ... .. 8 ... ... : ... .. 5 P7E ...
ROW 65 : ... .. . ... ... ... : ... .. . ... ... ... : ... .. . ... : ... .. 1 ... : ... .. . ... ... : ... .. 1 ... ... : ... .. 1 ... ... : ... .. 2 P7D ...
ROW 66 : ... .. . ... ... ... : ... .. . ... ... ... : ... .. . ... : ... .. . ... : ... .. . ... ... : ... .. . ... ... : ... .. . ... ... : ... .. . ... ...
ROW 67 : ... .. . ... ... ... : ... .. . ... ... ... : --- .. . ... : ... .. 0 ... : ... .. . ... ... : ... .. . ... ... : ... .. . ... ... : ... .. . P80 ...
ROW 68 : C-5 00 F ... ... ... : ... .. . ... ... ... : E-4 00 . ... : 1-# 00 F ... : ... .. . ... ... : G#3 01 A ... ... : C-4 01 A ... ... : F-3 01 A P81 ...
ROW 69 : ... .. E ... ... ... : ... .. . ... ... ... : F#3 00 . ... : ... .. C ... : ... .. . ... ... : ... .. 9 ... ... : ... .. 9 ... ... : ... .. 8 P83 ...
ROW 6A : ... .. D ... ... ... : ... .. . ... ... ... : B-2 00 . ... : ... .. 6 ... : ... .. . ... ... : ... .. 8 ... ... : ... .. 8 ... ... : ... .. 5 ... ...
ROW 6B : ... .. A ... ... ... : ... .. . ... ... ... : A#2 00 . ... : ... .. 3 ... : ... .. . ... ... : ... .. 1 ... ... : ... .. 1 ... ... : ... .. 2 P82 ...
ROW 6C : ... .. . ... ... ... : ... .. . ... ... ... : F-2 00 . ... : ... .. 2 ... : ... .. . ... ... : ... .. . ... ... : ... .. . ... ... : ... .. . P80 ...
ROW 6D : ... .. . ... ... ... : ... .. . ... ... ... : ... .. . ... : ... .. 0 ... : ... .. . ... ... : ... .. . ... ... : ... .. . ... ... : ... .. . P7E ...
ROW 6E : ... .. . ... ... ... : ... .. . ... ... ... : ... .. . ... : 9-# 00 8 ... : ... .. . ... ... : ... .. A ... ... : ... .. A ... ... : ... .. A P7D ...
ROW 6F : ... .. . ... ... ... : ... .. . ... ... ... : ... .. . ... : ... .. 6 ... : ... .. . ... ... : ... .. 9 ... ... : ... .. 9 ... ... : ... .. 8 ... ...
ROW 70 : ... .. . ... ... ... : ... .. . ... ... ... : ... .. . ... : ... .. 3 ... : ... .. . ... ... : ... .. 8 ... ... : ... .. 8 ... ... : ... .. 5 P7F ...
ROW 71 : ... .. . ... ... ... : ... .. . ... ... ... : ... .. . ... : ... .. 1 ... : ... .. . ... ... : ... .. 1 ... ... : ... .. 1 ... ... : ... .. 2 P81 ...
ROW 72 : ... .. . P83 ... ... : ... .. . ... ... ... : ... .. . ... : ... .. . ... : ... .. . ... ... : ... .. . ... ... : ... .. . ... ... : ... .. . P83 ...
ROW 73 : C#5 00 A P80 ... ... : ... .. . ... ... ... : --- .. . ... : ... .. 0 ... : ... .. . ... ... : ... .. . ... ... : ... .. . ... ... : ... .. . ... ...
ROW 74 : ... .. . P83 ... ... : C-5 00 6 ... ... ... : F-3 00 . ... : B-# 00 F ... : ... .. . ... ... : ... .. A ... ... : ... .. A ... ... : ... .. A P82 ...
ROW 75 : D-5 00 A P80 ... ... : ... .. 5 ... ... ... : ... .. . ... : ... .. C ... : ... .. . ... ... : ... .. 9 ... ... : ... .. 9 ... ... : ... .. 8 P80 ...
ROW 76 : ... .. . ... ... ... : ... .. . ... ... ... : ... .. . ... : ... .. 6 ... : ... .. . ... ... : ... .. 8 ... ... : ... .. 8 ... ... : ... .. 5 P7E ...
ROW 77 : ... .. . ... ... ... : ... .. 4 ... ... ... : ... .. . ... : ... .. 3 ... : ... .. . ... ... : ... .. 1 ... ... : ... .. 1 ... ... : ... .. 2 P7D ...
ROW 78 : ... .. . ... ... ... : ... .. . ... ... ... : ... .. . ... : ... .. 2 ... : ... .. . ... ... : ... .. . ... ... : ... .. . ... ... : ... .. . ... ...
ROW 79 : ... .. . ... ... ... : ... .. . ... ... ... : --- .. . ... : ... .. 0 ... : ... .. . ... ... : ... .. . ... ... : ... .. . ... ... : ... .. . P7F ...
ROW 7A : ... .. . ... ... ... : ... .. . ... ... ... : E-3 00 . ... : 9-# 00 8 ... : ... .. . ... ... : ... .. A ... ... : ... .. A ... ... : ... .. A P80 ...
ROW 7B : ... .. . ... ... ... : ... .. . ... ... ... : ... .. . ... : ... .. 6 ... : ... .. . ... ... : ... .. 9 ... ... : ... .. 9 ... ... : ... .. 8 P83 ...
ROW 7C : ... .. . ... ... ... : ... .. . ... ... ... : ... .. . ... : ... .. 3 ... : ... .. . ... ... : ... .. 8 ... ... : ... .. 8 ... ... : ... .. 5 ... ...
ROW 7D : ... .. . ... ... ... : ... .. . ... ... ... : ... .. . ... : ... .. 1 ... : ... .. . ... ... : ... .. 1 ... ... : ... .. 1 ... ... : ... .. 2 P82 ...
ROW 7E : ... .. . ... ... ... : C#5 00 4 P7E ... ... : ... .. . ... : ... .. . ... : ... .. . ... ... : ... .. . ... ... : ... .. . ... ... : ... .. . P80 ...
ROW 7F : ... .. . ... ... ... : ... .. . P81 ... ... : --- .. . ... : ... .. 0 ... : ... .. . ... ... : ... .. . ... ... : ... .. . ... ... : ... .. . P7F ...
ROW 80 : ... .. . ... ... ... : D-5 00 4 P7E ... ... : D#4 00 . ... : ... .. D ... : ... .. . ... ... : G-3 01 A ... ... : B-3 01 A ... ... : E-3 01 A P7D ...
ROW 81 : ... .. . ... ... ... : ... .. . P81 ... ... : F-3 00 . ... : ... .. B ... : ... .. . ... ... : ... .. 9 ... ... : ... .. 9 ... ... : ... .. 8 ... ...
ROW 82 : ... .. . ... ... ... : ... .. . ... ... ... : A#2 00 . ... : ... .. . ... : ... .. . ... ... : ... .. 8 ... ... : ... .. 8 ... ... : ... .. 5 P7F ...
ROW 83 : ... .. . ... ... ... : ... .. . ... ... ... : A-2 00 . ... : ... .. A ... : ... .. . ... ... : ... .. 1 ... ... : ... .. 1 ... ... : ... .. 2 P80 ...
ROW 84 : ... .. . ... ... ... : ... .. . ... ... ... : E-2 00 . ... : ... .. 8 ... : ... .. . ... ... : ... .. . ... ... : ... .. . ... ... : ... .. . P82 ...
ROW 85 : ... .. . ... ... ... : ... .. . ... ... ... : ... .. . ... : ... .. 7 ... : ... .. . ... ... : ... .. . ... ... : ... .. . ... ... : ... .. . P83 ...
ROW 86 : ... .. . ... ... ... : ... .. . ... ... ... : F-2 00 . ... : 7-# 00 8 ... : ... .. . ... ... : ... .. A ... ... : ... .. A ... ... : ... .. A ... ...
ROW 87 : ... .. . ... ... ... : ... .. . ... ... ... : ... .. . ... : ... .. 6 ... : ... .. . ... ... : ... .. 9 ... ... : ... .. 9 ... ... : ... .. 8 P80 ...
ROW 88 : ... .. . ... ... ... : ... .. . ... ... ... : ... .. . ... : ... .. 3 ... : ... .. . ... ... : ... .. 8 ... ... : ... .. 8 ... ... : ... .. 5 P7F ...
ROW 89 : ... .. . ... ... ... : ... .. . ... ... ... : ... .. . ... : ... .. 1 ... : ... .. . ... ... : ... .. 1 ... ... : ... .. 1 ... ... : ... .. 2 P7D ...
ROW 8A : ... .. . ... ... ... : ... .. . ... ... ... : ... .. . ... : ... .. . ... : ... .. . ... ... : ... .. . ... ... : ... .. . ... ... : ... .. . ... ...
ROW 8B : ... .. . ... ... ... : ... .. . ... ... ... : --- .. . ... : ... .. 0 ... : ... .. . ... ... : ... .. . ... ... : ... .. . ... ... : ... .. . P7E ...
ROW 8C : ... .. . ... ... ... : ... .. . ... ... ... : G#3 00 . ... : A-# 00 F ... : ... .. . ... ... : ... .. A ... ... : ... .. A ... ... : ... .. A P80 ...
ROW 8D : ... .. . ... ... ... : ... .. . ... ... ... : ... .. . ... : ... .. C ... : ... .. . ... ... : ... .. 9 ... ... : ... .. 9 ... ... : ... .. 8 P82 ...
ROW 8E : ... .. . ... ... ... : ... .. . ... ... ... : ... .. . ... : ... .. 6 ... : ... .. . ... ... : ... .. 8 ... ... : ... .. 8 ... ... : ... .. 5 P83 ...
ROW 8F : ... .. . ... ... ... : ... .. . ... ... ... : ... .. . ... : ... .. 3 ... : ... .. . ... ... : ... .. 1 ... ... : ... .. 1 ... ... : ... .. 2 ... ...
ROW 90 : ... .. . ... ... ... : ... .. . ... ... ... : ... .. . ... : ... .. 2 ... : ... .. . ... ... : ... .. . ... ... : ... .. . ... ... : ... .. . P81 ...
ROW 91 : ... .. . ... ... ... : ... .. . ... ... ... : --- .. . ... : ... .. 0 ... : ... .. . ... ... : ... .. . ... ... : ... .. . ... ... : ... .. . P7F ...
ROW 92 : D#5 00 A P7F ... ... : ... .. . ... ... ... : B-1 00 . ... : E-# 00 8 ... : ... .. . ... ... : ... .. A ... ... : ... .. A ... ... : ... .. A P7D ...
ROW 93 : ... .. . P81 ... ... : ... .. . ... ... ... : ... .. . ... : ... .. 6 ... : ... .. . ... ... : ... .. 9 ... ... : ... .. 9 ... ... : ... .. 8 ... ...
ROW 94 : ... .. . P80 ... ... : ... .. . ... ... ... : ... .. . ... : ... .. 3 ... : ... .. . ... ... : ... .. 8 ... ... : ... .. 8 ... ... : ... .. 5 P7E ...
ROW 95 : D-5 00 A P82 ... ... : ... .. . ... ... ... : ... .. . ... : ... .. 1 ... : ... .. . ... ... : ... .. 1 ... ... : ... .. 1 ... ... : ... .. 2 P80 ...
ROW 96 : ... .. . P7E ... ... : ... .. . ... ... ... : ... .. . ... : ... .. . ... : ... .. . ... ... : ... .. . ... ... : ... .. . ... ... : ... .. . P82 ...
ROW 97 : C#5 00 A P81 ... ... : ... .. . ... ... ... : --- .. . ... : ... .. 0 ... : ... .. . ... ... : ... .. . ... ... : ... .. . ... ... : ... .. . P83 ...
ROW 98 : ... .. . P80 ... ... : ... .. . ... ... ... : E-3 00 . ... : 1-# 00 F ... : ... .. . ... ... : F#3 01 A ... ... : A#3 01 A ... ... : D#3 01 A ... ...
ROW 99 : ... .. . P82 ... ... : ... .. . ... ... ... : F#2 00 . ... : ... .. C ... : ... .. . ... ... : ... .. 9 ... ... : ... .. 9 ... ... : ... .. 8 P81 ...
ROW 9A : D-5 00 A P80 ... ... : ... .. . ... ... ... : B-1 00 . ... : ... .. 6 ... : ... .. . ... ... : ... .. 8 ... ... : ... .. 8 ... ... : ... .. 5 P80 ...
ROW 9B : D#5 00 A P7E ... ... : ... .. . ... ... ... : A#1 00 . ... : ... .. 3 ... : ... .. . ... ... : ... .. 1 ... ... : ... .. 1 ... ... : ... .. 2 P7D ...
ROW 9C : ... .. . P81 ... ... : ... .. . ... ... ... : F-1 00 . ... : ... .. 2 ... : ... .. . ... ... : ... .. . ... ... : ... .. . ... ... : ... .. . ... ...
ROW 9D : ... .. . ... ... ... : ... .. . ... ... ... : ... .. . ... : ... .. 0 ... : ... .. . ... ... : ... .. . ... ... : ... .. . ... ... : ... .. . P7E ...
ROW 9E : D-5 00 A P82 ... ... : D#5 00 4 P80 ... ... : F-2 00 . ... : 9-# 00 8 ... : ... .. . ... ... : ... .. A ... ... : ... .. A ... ... : ... .. A P80 ...
ROW 9F : ... .. . P7F ... ... : ... .. . P82 ... ... : ... .. . ... : ... .. 6 ... : ... .. . ... ... : ... .. 9 ... ... : ... .. 9 ... ... : ... .. 8 P81 ...
ROW A0 : C#5 00 A P81 ... ... : ... .. . P81 ... ... : ... .. . ... : ... .. 3 ... : ... .. . ... ... : ... .. 8 ... ... : ... .. 8 ... ... : ... .. 5 P83 ...
ROW A1 : ... .. . P80 ... ... : ... .. . P7E ... ... : ... .. . ... : ... .. 1 ... : ... .. . ... ... : ... .. 1 ... ... : ... .. 1 ... ... : ... .. 2 ... ...
ROW A2 : ... .. . P82 ... ... : D-5 00 4 P7F ... ... : ... .. . ... : ... .. . ... : ... .. . ... ... : ... .. . ... ... : ... .. . ... ... : ... .. . P81 ...
ROW A3 : D-5 00 A P80 ... ... : C#5 00 4 P82 ... ... : --- .. . ... : ... .. 0 ... : ... .. . ... ... : ... .. . ... ... : ... .. . ... ... : ... .. . P80 ...
ROW A4 : D#5 00 A P7E ... ... : ... .. . P81 ... ... : F-3 00 . ... : 1-# 00 F ... : ... .. . ... ... : ... .. A ... ... : ... .. A ... ... : ... .. A P7E ...
ROW A5 : ... .. . P81 ... ... : ... .. . P83 ... ... : ... .. . ... : ... .. C ... : ... .. . ... ... : ... .. 9 ... ... : ... .. 9 ... ... : ... .. 8 P7D ...
ROW A6 : ... .. . ... ... ... : D-5 00 4 P81 ... ... : ... .. . ... : ... .. 6 ... : ... .. . ... ... : ... .. 8 ... ... : ... .. 8 ... ... : ... .. 5 ... ...
ROW A7 : ... .. . P7E ... ... : D#5 00 4 P7F ... ... : ... .. . ... : ... .. 3 ... : ... .. . ... ... : ... .. 1 ... ... : ... .. 1 ... ... : ... .. 2 P80 ...
ROW A8 : D-5 00 A P80 ... ... : ... .. . P82 ... ... : ... .. . ... : ... .. 2 ... : ... .. . ... ... : ... .. . ... ... : ... .. . ... ... : ... .. . P81 ...
ROW A9 : C#5 00 A P82 ... ... : ... .. . ... ... ... : --- .. . ... : ... .. 0 ... : ... .. . ... ... : ... .. . ... ... : ... .. . ... ... : ... .. . P83 ...
ROW AA : ... .. . P80 ... ... : ... .. . P7E ... ... : F-2 00 . ... : 9-# 00 8 ... : ... .. . ... ... : ... .. A ... ... : ... .. A ... ... : ... .. A ... ...
ROW AB : ... .. . P81 ... ... : D-5 00 4 P80 ... ... : ... .. . ... : ... .. 6 ... : ... .. . ... ... : ... .. 9 ... ... : ... .. 9 ... ... : ... .. 8 P82 ...
ROW AC : D-5 00 A P7F ... ... : C#5 00 4 P82 ... ... : ... .. . ... : ... .. 3 ... : ... .. . ... ... : ... .. 8 ... ... : ... .. 8 ... ... : ... .. 5 P80 ...
ROW AD : ... .. . P82 ... ... : ... .. . P81 ... ... : ... .. . ... : ... .. 1 ... : ... .. . ... ... : ... .. 1 ... ... : ... .. 1 ... ... : ... .. 2 P7E ...
ROW AE : D#5 00 A P81 ... ... : ... .. . P83 ... ... : ... .. . ... : ... .. . ... : ... .. . ... ... : ... .. . ... ... : ... .. . ... ... : ... .. . P7D ...
ROW AF : ... .. . ... ... ... : D-5 00 4 P81 ... ... : --- .. . ... : ... .. 0 ... : ... .. . ... ... : ... .. . ... ... : ... .. . ... ... : ... .. . ... ...
ROW B0 : ... .. . P7E ... ... : D#5 00 4 P7F ... ... : F-4 00 . ... : ... .. D ... : ... .. . ... ... : F-3 01 A ... ... : A-3 01 A ... ... : D-3 01 A P7F ...
ROW B1 : D-5 00 A P80 ... ... : ... .. . P82 ... ... : G-3 00 . ... : ... .. B ... : ... .. . ... ... : ... .. 9 ... ... : ... .. 9 ... ... : ... .. 8 P81 ...
ROW B2 : C#5 00 A P82 ... ... : ... .. . ... ... ... : C-3 00 . ... : ... .. . ... : ... .. . ... ... : ... .. 8 ... ... : ... .. 8 ... ... : ... .. 5 P83 ...
ROW B3 : ... .. . P80 ... ... : ... .. . P7F ... ... : B-2 00 . ... : ... .. A ... : ... .. . ... ... : ... .. 1 ... ... : ... .. 1 ... ... : ... .. 2 ... ...
ROW B4 : ... .. . P81 ... ... : D-5 00 4 P81 ... ... : F#2 00 . ... : ... .. 8 ... : ... .. . ... ... : ... .. . ... ... : ... .. . ... ... : ... .. . P82 ...
ROW B5 : D-5 00 A P7E ... ... : C#5 00 4 P83 ... ... : ... .. . ... : ... .. 7 ... : ... .. . ... ... : ... .. . ... ... : ... .. . ... ... : ... .. . P80 ...
ROW B6 : ... .. . P82 ... ... : ... .. . P81 ... ... : F-2 00 . ... : 7-# 00 8 ... : ... .. . ... ... : ... .. A ... ... : ... .. A ... ... : ... .. A P7E ...
ROW B7 : D#5 00 A P80 ... ... : ... .. . P82 ... ... : ... .. . ... : ... .. 6 ... : ... .. . ... ... : ... .. 9 ... ... : ... .. 9 ... ... : ... .. 8 P7D ...
ROW B8 : ... .. . P81 ... ... : D-5 00 4 P80 ... ... : ... .. . ... : ... .. 3 ... : ... .. . ... ... : ... .. 8 ... ... : ... .. 8 ... ... : ... .. 5 ... ...
ROW B9 : C#5 00 A P82 ... ... : D#5 00 4 P7E ... ... : ... .. . ... : ... .. 1 ... : ... .. . ... ... : ... .. 1 ... ... : ... .. 1 ... ... : ... .. 2 P7F ...
ROW BA : B-4 00 A ... ... ... : ... .. . P82 ... ... : ... .. . ... : ... .. . ... : ... .. . ... ... : ... .. . ... ... : ... .. . ... ... : ... .. . P80 ...
ROW BB : A#4 00 A P7E ... ... : ... .. . ... ... ... : --- .. . ... : ... .. 0 ... : ... .. . ... ... : ... .. . ... ... : ... .. . ... ... : ... .. . P83 ...
ROW BC : G#4 00 A P82 ... ... : ... .. . P7F ... ... : D#3 00 . ... : A-# 00 F ... : ... .. . ... ... : ... .. 6 ... ... : ... .. 6 ... ... : ... .. A ... ...
ROW BD : G-4 00 A ... ... ... : D-5 00 4 P81 ... ... : ... .. . ... : ... .. C ... : ... .. . ... ... : ... .. . ... ... : ... .. . ... ... : ... .. 8 P82 ...
ROW BE : ... .. . P7E ... ... : C#5 00 4 P83 ... ... : ... .. . ... : ... .. 6 ... : ... .. . ... ... : ... .. 5 ... ... : ... .. 5 ... ... : ... .. 5 P80 ...
ROW BF : F#4 00 A P81 ... ... : ... .. . P81 ... ... : ... .. . ... : ... .. 3 ... : ... .. . ... ... : ... .. 1 ... ... : ... .. 1 ... ... : ... .. 2 P7F ...
ROW C0 : ... .. . P7D ... ... : ... .. . P82 ... ... : ... .. . ... : ... .. 2 ... : ... .. . ... ... : ... .. . ... ... : ... .. . ... ... : ... .. . P7D ...
ROW C1 : F-4 00 A P7F ... ... : D-5 00 4 P7F ... ... : --- .. . ... : ... .. 0 ... : ... .. . ... ... : ... .. . ... ... : ... .. . ... ... : ... .. . ... ...
ROW C2 : E-4 00 A ... ... ... : C#5 00 4 P81 ... ... : F-2 00 . ... : E-# 00 8 ... : ... .. . ... ... : ... .. 6 ... ... : ... .. 6 ... ... : ... .. A P7F ...
ROW C3 : D#4 00 A P7D ... ... : C-5 00 4 P82 ... ... : ... .. . ... : ... .. 6 ... : ... .. . ... ... : ... .. . ... ... : ... .. . ... ... : ... .. 8 P80 ...
ROW C4 : D-4 00 A P7C ... ... : B-4 00 4 P81 ... ... : ... .. . ... : ... .. 3 ... : ... .. . ... ... : ... .. 5 ... ... : ... .. 5 ... ... : ... .. 5 P82 ...
ROW C5 : C#4 00 A P7D ... ... : A#4 00 4 P7E ... ... : ... .. . ... : ... .. 1 ... : ... .. . ... ... : ... .. 1 ... ... : ... .. 1 ... ... : ... .. 2 P83 ...
ROW C6 : C-4 00 A P81 ... ... : G#4 00 4 P81 ... ... : ... .. . ... : ... .. . ... : ... .. . ... ... : ... .. . ... ... : ... .. . ... ... : ... .. . ... ...
ROW C7 : ... .. . P7C ... ... : G-4 00 4 P7E ... ... : --- .. . ... : ... .. 0 ... : ... .. . ... ... : ... .. . ... ... : ... .. . ... ... : ... .. . P80 ...
ROW C8 : G-4 00 F P80 ... ... : D#5 00 8 P81 ... ... : C-5 00 . ... : 1-# 00 F ... : ... .. . ... ... : B-3 01 A ... ... : D-3 01 A ... ... : C#2 01 F P7F ...
ROW C9 : ... .. E ... ... ... : ... .. 7 ... ... ... : D-4 00 . ... : ... .. C ... : ... .. . ... ... : ... .. 9 ... ... : ... .. 9 ... ... : ... .. D P7D ...
ROW CA : ... .. D ... ... ... : ... .. . ... ... ... : G-3 00 . ... : ... .. 6 ... : ... .. . ... ... : ... .. 8 ... ... : ... .. 8 ... ... : ... .. 8 ... ...
ROW CB : ... .. A ... ... ... : ... .. 6 P80 ... ... : F#3 00 . ... : ... .. 3 ... : ... .. . ... ... : ... .. 7 ... ... : ... .. 7 ... ... : ... .. . P7E ...
ROW CC : ... .. . ... ... ... : ... .. 5 ... ... ... : C#3 00 . ... : ... .. 2 ... : ... .. . ... ... : ... .. . ... ... : ... .. . ... ... : ... .. . P80 ...
ROW CD : ... .. . ... ... ... : ... .. 4 ... ... ... : ... .. . ... : ... .. 0 ... : ... .. . ... ... : ... .. 6 ... ... : ... .. 6 ... ... : ... .. 1 P82 ...
ROW CE : C#4 00 8 ... ... ... : F-5 00 8 ... ... ... : D-3 00 . ... : 9-# 00 8 ... : ... .. . ... ... : C#1 01 A ... ... : C#1 01 A ... ... : B-1 01 F P83 ...
ROW CF : ... .. 7 ... ... ... : ... .. 7 ... ... ... : ... .. . ... : ... .. 6 ... : ... .. . ... ... : ... .. 9 ... ... : ... .. 9 ... ... : ... .. D ... ...
ROW D0 : ... .. 6 ... ... ... : ... .. . ... ... ... : ... .. . ... : ... .. 3 ... : ... .. . ... ... : ... .. 8 ... ... : ... .. 8 ... ... : ... .. 8 P81 ...
ROW D1 : ... .. 5 ... ... ... : ... .. 6 ... ... ... : ... .. . ... : ... .. 1 ... : ... .. . ... ... : ... .. 1 ... ... : ... .. 1 ... ... : ... .. . P7F ...
ROW D2 : ... .. . ... ... ... : ... .. 5 ... ... ... : ... .. . ... : ... .. . ... : ... .. . ... ... : ... .. . ... ... : ... .. . ... ... : ... .. . P7D ...
ROW D3 : ... .. . ... ... ... : ... .. 4 ... ... ... : --- .. . ... : ... .. 0 ... : ... .. . ... ... : ... .. . ... ... : ... .. . ... ... : ... .. 1 ... ...
ROW D4 : B-3 00 8 ... ... ... : D#5 00 8 ... ... ... : C#3 00 . ... : B-# 00 F ... : ... .. . ... ... : ... .. A ... ... : ... .. A ... ... : C#2 01 F P7E ...
ROW D5 : ... .. 7 ... ... ... : ... .. 7 ... ... ... : ... .. . ... : ... .. C ... : ... .. . ... ... : ... .. 9 ... ... : ... .. 9 ... ... : ... .. D P80 ...
ROW D6 : ... .. 6 ... ... ... : ... .. . ... ... ... : ... .. . ... : ... .. 6 ... : ... .. . ... ... : ... .. 8 ... ... : ... .. 8 ... ... : ... .. 8 P82 ...
ROW D7 : ... .. 5 ... ... ... : ... .. 6 ... ... ... : ... .. . ... : ... .. 3 ... : ... .. . ... ... : ... .. 1 ... ... : ... .. 1 ... ... : ... .. . P83 ...
ROW D8 : ... .. . ... ... ... : ... .. 5 ... ... ... : ... .. . ... : ... .. 2 ... : ... .. . ... ... : ... .. . ... ... : ... .. . ... ... : ... .. . ... ...
ROW D9 : ... .. . ... ... ... : ... .. 4 ... ... ... : --- .. . ... : ... .. 0 ... : ... .. . ... ... : ... .. . ... ... : ... .. . ... ... : ... .. 1 P81 ...
ROW DA : G-4 00 F ... ... ... : B-4 00 8 ... ... ... : C#2 00 . ... : 1-# 00 F ... : ... .. . ... ... : B-3 01 A ... ... : D-3 01 A ... ... : C#1 01 F P80 ...
ROW DB : ... .. E ... ... ... : ... .. 7 ... ... ... : ... .. . ... : ... .. C ... : ... .. . ... ... : ... .. 9 ... ... : ... .. 9 ... ... : ... .. D P7D ...
ROW DC : ... .. D ... ... ... : ... .. . ... ... ... : ... .. . ... : ... .. 6 ... : ... .. . ... ... : ... .. 8 ... ... : ... .. 8 ... ... : ... .. 8 ... ...
ROW DD : ... .. A ... ... ... : ... .. 6 ... ... ... : ... .. . ... : ... .. 3 ... : ... .. . ... ... : ... .. 7 ... ... : ... .. 7 ... ... : ... .. . P7E ...
ROW DE : ... .. . ... ... ... : ... .. 5 ... ... ... : ... .. . ... : ... .. 2 ... : ... .. . ... ... : ... .. . ... ... : ... .. . ... ... : ... .. . P80 ...
ROW DF : ... .. . ... ... ... : ... .. 4 ... ... ... : --- .. . ... : ... .. 0 ... : ... .. . ... ... : ... .. 6 ... ... : ... .. 6 ... ... : ... .. 1 P81 ...
ROW E0 : C#4 00 8 ... ... ... : A-4 00 8 ... ... ... : A#3 00 . ... : 9-# 00 8 ... : ... .. . ... ... : C#1 01 A ... ... : C#1 01 A ... ... : B-0 01 F P83 ...
ROW E1 : ... .. 7 ... ... ... : ... .. 7 ... ... ... : C-3 00 . ... : ... .. 6 ... : ... .. . ... ... : ... .. 9 ... ... : ... .. 9 ... ... : ... .. D ... ...
ROW E2 : ... .. 6 ... ... ... : ... .. . ... ... ... : F-2 00 . ... : ... .. 3 ... : ... .. . ... ... : ... .. 8 ... ... : ... .. 8 ... ... : ... .. 8 P81 ...
ROW E3 : ... .. 5 ... ... ... : ... .. 6 ... ... ... : E-2 00 . ... : ... .. 1 ... : ... .. . ... ... : ... .. 1 ... ... : ... .. 1 ... ... : ... .. . P80 ...
ROW E4 : ... .. . ... ... ... : ... .. 5 ... ... ... : B-1 00 . ... : ... .. . ... : ... .. . ... ... : ... .. . ... ... : ... .. . ... ... : ... .. . P7E ...
ROW E5 : ... .. . ... ... ... : ... .. 4 ... ... ... : ... .. . ... : ... .. 0 ... : ... .. . ... ... : ... .. . ... ... : ... .. . ... ... : ... .. 1 P7D ...
ROW E6 : B-3 00 8 ... ... ... : F-4 00 8 ... ... ... : C#2 00 . ... : B-# 00 F ... : ... .. . ... ... : ... .. A ... ... : ... .. A ... ... : C#1 01 F ... ...
ROW E7 : ... .. 7 ... ... ... : ... .. 7 ... ... ... : ... .. . ... : ... .. C ... : ... .. . ... ... : ... .. 9 ... ... : ... .. 9 ... ... : ... .. D P80 ...
ROW E8 : ... .. 6 ... ... ... : ... .. . ... ... ... : ... .. . ... : ... .. 6 ... : ... .. . ... ... : ... .. 8 ... ... : ... .. 8 ... ... : ... .. 8 P81 ...
ROW E9 : ... .. 5 ... ... ... : ... .. 6 ... ... ... : ... .. . ... : ... .. 3 ... : ... .. . ... ... : ... .. 1 ... ... : ... .. 1 ... ... : ... .. . P83 ...
ROW EA : ... .. . ... ... ... : ... .. 5 ... ... ... : ... .. . ... : ... .. 2 ... : ... .. . ... ... : ... .. . ... ... : ... .. . ... ... : ... .. . ... ...
ROW EB : ... .. . ... ... ... : ... .. 4 ... ... ... : --- .. . ... : ... .. 0 ... : ... .. . ... ... : ... .. . ... ... : ... .. . ... ... : ... .. 1 P82 ...
ROW EC : G-4 00 F ... ... ... : D#5 00 8 ... ... ... : C#3 00 . ... : 1-# 00 F ... : ... .. . ... ... : B-3 01 A ... ... : D-3 01 A ... ... : C#2 01 F P80 ...
ROW ED : ... .. E ... ... ... : ... .. 7 ... ... ... : ... .. . ... : ... .. C ... : ... .. . ... ... : ... .. 9 ... ... : ... .. 9 ... ... : ... .. D P7E ...
ROW EE : ... .. D ... ... ... : ... .. . ... ... ... : ... .. . ... : ... .. 6 ... : ... .. . ... ... : ... .. 8 ... ... : ... .. 8 ... ... : ... .. 8 P7D ...
ROW EF : ... .. A ... ... ... : ... .. 6 ... ... ... : ... .. . ... : ... .. 3 ... : ... .. . ... ... : ... .. 7 ... ... : ... .. 7 ... ... : ... .. . ... ...
ROW F0 : ... .. . ... ... ... : ... .. 5 ... ... ... : ... .. . ... : ... .. 2 ... : ... .. . ... ... : ... .. . ... ... : ... .. . ... ... : ... .. . P7F ...
ROW F1 : ... .. . ... ... ... : ... .. 4 ... ... ... : --- .. . ... : ... .. 0 ... : ... .. . ... ... : ... .. 6 ... ... : ... .. 6 ... ... : ... .. 1 P81 ...
ROW F2 : B-3 00 8 ... ... ... : F-5 00 8 ... ... ... : D-3 00 . ... : 9-# 00 8 ... : ... .. . ... ... : C#1 01 A ... ... : C#1 01 A ... ... : B-1 01 F P83 ...
ROW F3 : ... .. 7 ... ... ... : ... .. 7 ... ... ... : ... .. . ... : ... .. 6 ... : ... .. . ... ... : ... .. 9 ... ... : ... .. 9 ... ... : ... .. D ... ...
ROW F4 : ... .. 6 ... ... ... : ... .. . ... ... ... : ... .. . ... : ... .. 3 ... : ... .. . ... ... : ... .. 8 ... ... : ... .. 8 ... ... : ... .. 8 P82 ...
ROW F5 : ... .. 5 ... ... ... : ... .. 6 ... ... ... : ... .. . ... : ... .. 1 ... : ... .. . ... ... : ... .. 1 ... ... : ... .. 1 ... ... : ... .. . P80 ...
ROW F6 : ... .. . ... ... ... : ... .. 5 ... ... ... : ... .. . ... : ... .. . ... : ... .. . ... ... : ... .. . ... ... : ... .. . ... ... : ... .. . P7E ...
ROW F7 : ... .. . ... ... ... : ... .. 4 ... ... ... : --- .. . ... : ... .. 0 ... : ... .. . ... ... : ... .. . ... ... : ... .. . ... ... : ... .. 1 P7D ...
ROW F8 : A-3 00 8 ... ... ... : D#5 00 8 ... ... ... : C-5 00 . ... : B-# 00 F ... : ... .. . ... ... : ... .. A ... ... : ... .. A ... ... : C#2 01 F ... ...
ROW F9 : ... .. 7 ... ... ... : ... .. 7 ... ... ... : D-4 00 . ... : ... .. C ... : ... .. . ... ... : ... .. 9 ... ... : ... .. 9 ... ... : ... .. D P7F ...
ROW FA : ... .. 6 ... ... ... : ... .. . ... ... ... : G-3 00 . ... : ... .. 6 ... : ... .. . ... ... : ... .. 8 ... ... : ... .. 8 ... ... : ... .. 8 P80 ...
ROW FB : ... .. 5 ... ... ... : ... .. 6 ... ... ... : F#3 00 . ... : ... .. 3 ... : ... .. . ... ... : ... .. 1 ... ... : ... .. 1 ... ... : ... .. . P83 ...
ROW FC : ... .. . ... ... ... : ... .. 5 ... ... ... : C#3 00 . ... : ... .. 2 ... : ... .. . ... ... : ... .. . ... ... : ... .. . ... ... : ... .. . ... ...
ROW FD : ... .. . ... ... ... : ... .. 4 ... ... ... : ... .. . ... : ... .. 0 ... : ... .. . ... ... : ... .. . ... ... : ... .. . ... ... : ... .. 1 P82 ...
ROW FE : F-3 00 8 ... ... ... : B-4 00 8 ... ... ... : C#2 00 . ... : 9-# 00 8 ... : ... .. . ... ... : ... .. A ... ... : ... .. A ... ... : C#1 01 F P80 ...
ROW FF : ... .. 7 ... ... ... : ... .. 7 ... ... ... : ... .. . ... : ... .. 6 ... : ... .. . ... ... : ... .. 9 ... ... : ... .. 9 ... ... : ... .. D P7F ...

PATTERN 14
ROW 00 : ... .. 6 ... ... ... : ... .. . ... ... ... : ... .. . ... : ... .. 3 ... : ... .. . ... ... : ... .. 8 ... ... : ... .. 8 ... ... : ... .. 8 P7D ...
ROW 01 : ... .. 5 ... ... ... : ... .. 6 ... ... ... : ... .. . ... : ... .. 1 ... : ... .. . ... ... : ... .. 1 ... ... : ... .. 1 ... ... : ... .. . ... ...
ROW 02 : ... .. . ... ... ... : ... .. 5 ... ... ... : ... .. . ... : ... .. . ... : ... .. . ... ... : ... .. . ... ... : ... .. . ... ... : ... .. . P7F ...
ROW 03 : ... .. . ... ... ... : ... .. 4 ... ... ... : --- .. . ... : ... .. 0 ... : ... .. . ... ... : ... .. . ... ... : ... .. . ... ... : ... .. 1 P80 ...
ROW 04 : C#3 00 F ... ... ... : A-4 00 8 ... ... ... : B-1 00 . ... : ... .. D ... : ... .. . ... ... : ... .. A ... ... : ... .. A ... ... : B-0 01 F P82 ...
ROW 05 : ... .. E ... ... ... : ... .. 7 ... ... ... : ... .. . ... : ... .. B ... : ... .. . ... ... : ... .. 9 ... ... : ... .. 9 ... ... : ... .. D P83 ...
ROW 06 : ... .. D ... ... ... : ... .. . ... ... ... : ... .. . ... : ... .. . ... : ... .. . ... ... : ... .. 8 ... ... : ... .. 8 ... ... : ... .. 8 ... ...
ROW 07 : ... .. A ... ... ... : ... .. 6 ... ... ... : ... .. . ... : ... .. A ... : ... .. . ... ... : ... .. 1 ... ... : ... .. 1 ... ... : ... .. . P80 ...
ROW 08 : ... .. . ... ... ... : ... .. 5 ... ... ... : ... .. . ... : ... .. 8 ... : ... .. . ... ... : ... .. . ... ... : ... .. . ... ... : ... .. . P7F ...
ROW 09 : ... .. . ... ... ... : ... .. 4 ... ... ... : --- .. . ... : ... .. 7 ... : ... .. . ... ... : ... .. . ... ... : ... .. . ... ... : ... .. 1 P7D ...
ROW 0A : B-2 00 8 ... ... ... : F-4 00 8 ... ... ... : C#2 00 . ... : 7-# 00 8 ... : ... .. . ... ... : ... .. A ... ... : ... .. A ... ... : C#1 01 F ... ...
ROW 0B : ... .. 7 ... ... ... : ... .. 7 ... ... ... : ... .. . ... : ... .. 6 ... : ... .. . ... ... : ... .. 9 ... ... : ... .. 9 ... ... : ... .. D P7E ...
ROW 0C : ... .. 6 ... ... ... : ... .. . ... ... ... : ... .. . ... : ... .. 3 ... : ... .. . ... ... : ... .. 8 ... ... : ... .. 8 ... ... : ... .. 8 P80 ...
ROW 0D : ... .. 5 ... ... ... : ... .. 6 ... ... ... : ... .. . ... : ... .. 1 ... : ... .. . ... ... : ... .. 1 ... ... : ... .. 1 ... ... : ... .. . P82 ...
ROW 0E : ... .. . ... ... ... : ... .. 5 ... ... ... : ... .. . ... : ... .. . ... : ... .. . ... ... : ... .. . ... ... : ... .. . ... ... : ... .. . P83 ...
ROW 0F : ... .. . ... ... ... : ... .. 4 ... ... ... : --- .. . ... : ... .. 0 ... : ... .. . ... ... : ... .. . ... ... : ... .. . ... ... : ... .. 1 ... ...
ROW 10 : G#4 00 F ... ... ... : B-4 00 8 ... ... ... : C-5 00 . ... : 1-# 00 F ... : ... .. . ... ... : C#4 01 A ... ... : F-3 01 A ... ... : C#2 01 F P81 ...
ROW 11 : ... .. E ... ... ... : ... .. 7 ... ... ... : D-4 00 . ... : ... .. C ... : ... .. . ... ... : ... .. 9 ... ... : ... .. 9 ... ... : ... .. D P7F ...
ROW 12 : ... .. D ... ... ... : ... .. . ... ... ... : G-3 00 . ... : ... .. 6 ... : ... .. . ... ... : ... .. 8 ... ... : ... .. 8 ... ... : ... .. 8 P7D ...
ROW 13 : ... .. A ... ... ... : ... .. 6 ... ... ... : F#3 00 . ... : ... .. 3 ... : ... .. . ... ... : ... .. 7 ... ... : ... .. 7 ... ... : ... .. . ... ...
ROW 14 : ... .. . ... ... ... : ... .. 5 ... ... ... : C#3 00 . ... : ... .. 2 ... : ... .. . ... ... : ... .. . ... ... : ... .. . ... ... : ... .. . P7E ...
ROW 15 : ... .. . ... ... ... : ... .. 4 ... ... ... : ... .. . ... : ... .. 0 ... : ... .. . ... ... : ... .. 6 ... ... : ... .. 6 ... ... : ... .. 1 P80 ...
ROW 16 : C#4 00 8 ... ... ... : C#5 00 8 ... ... ... : D-3 00 . ... : 9-# 00 8 ... : ... .. . ... ... : C#1 01 A ... ... : C#1 01 A ... ... : B-1 01 F P82 ...
ROW 17 : ... .. 7 ... ... ... : ... .. 7 ... ... ... : ... .. . ... : ... .. 6 ... : ... .. . ... ... : ... .. 9 ... ... : ... .. 9 ... ... : ... .. D P83 ...
ROW 18 : ... .. 6 ... ... ... : ... .. . ... ... ... : ... .. . ... : ... .. 3 ... : ... .. . ... ... : ... .. 8 ... ... : ... .. 8 ... ... : ... .. 8 ... ...
ROW 19 : ... .. 5 ... ... ... : ... .. 6 ... ... ... : ... .. . ... : ... .. 1 ... : ... .. . ... ... : ... .. 1 ... ... : ... .. 1 ... ... : ... .. . P81 ...
ROW 1A : ... .. . ... ... ... : ... .. 5 ... ... ... : ... .. . ... : ... .. . ... : ... .. . ... ... : ... .. . ... ... : ... .. . ... ... : ... .. . P80 ...
ROW 1B : ... .. . ... ... ... : ... .. 4 ... ... ... : --- .. . ... : ... .. 0 ... : ... .. . ... ... : ... .. . ... ... : ... .. . ... ... : ... .. 1 P7D ...
ROW 1C : B-3 00 8 ... ... ... : B-4 00 8 ... ... ... : C#3 00 . ... : B-# 00 F ... : ... .. . ... ... : ... .. A ... ... : ... .. A ... ... : C#2 01 F ... ...
ROW 1D : ... .. 7 ... ... ... : ... .. 7 ... ... ... : ... .. . ... : ... .. C ... : ... .. . ... ... : ... .. 9 ... ... : ... .. 9 ... ... : ... .. D P7E ...
ROW 1E : ... .. 6 ... ... ... : ... .. . ... ... ... : ... .. . ... : ... .. 6 ... : ... .. . ... ... : ... .. 8 ... ... : ... .. 8 ... ... : ... .. 8 P80 ...
ROW 1F : ... .. 5 ... ... ... : ... .. 6 ... ... ... : ... .. . ... : ... .. 3 ... : ... .. . ... ... : ... .. 1 ... ... : ... .. 1 ... ... : ... .. . P81 ...
ROW 20 : ... .. . ... ... ... : ... .. 5 ... ... ... : ... .. . ... : ... .. 2 ... : ... .. . ... ... : ... .. . ... ... : ... .. . ... ... : ... .. . P83 ...
ROW 21 : ... .. . ... ... ... : ... .. 4 ... ... ... : --- .. . ... : ... .. 0 ... : ... .. . ... ... : ... .. . ... ... : ... .. . ... ... : ... .. 1 ... ...
ROW 22 : G#4 00 F ... ... ... : G-4 00 8 ... ... ... : C#2 00 . ... : 1-# 00 F ... : ... .. . ... ... : C#4 01 A ... ... : F-3 01 A ... ... : C#1 01 F P81 ...
ROW 23 : ... .. E ... ... ... : ... .. 7 ... ... ... : ... .. . ... : ... .. C ... : ... .. . ... ... : ... .. 9 ... ... : ... .. 9 ... ... : ... .. D P80 ...
ROW 24 : ... .. D ... ... ... : ... .. . ... ... ... : ... .. . ... : ... .. 6 ... : ... .. . ... ... : ... .. 8 ... ... : ... .. 8 ... ... : ... .. 8 P7E ...
ROW 25 : ... .. A ... ... ... : ... .. 6 ... ... ... : ... .. . ... : ... .. 3 ... : ... .. . ... ... : ... .. 7 ... ... : ... .. 7 ... ... : ... .. . P7D ...
ROW 26 : ... .. . ... ... ... : ... .. 5 ... ... ... : ... .. . ... : ... .. 2 ... : ... .. . ... ... : ... .. . ... ... : ... .. . ... ... : ... .. . ... ...
ROW 27 : ... .. . ... ... ... : ... .. 4 ... ... ... : --- .. . ... : ... .. 0 ... : ... .. . ... ... : ... .. 6 ... ... : ... .. 6 ... ... : ... .. 1 P80 ...
ROW 28 : C#4 00 8 ... ... ... : C#4 00 8 ... ... ... : A#3 00 . ... : 9-# 00 8 ... : ... .. . ... ... : C#1 01 A ... ... : C#1 01 A ... ... : B-0 01 F P81 ...
ROW 29 : ... .. 7 ... ... ... : ... .. 7 ... ... ... : C-3 00 . ... : ... .. 6 ... : ... .. . ... ... : ... .. 9 ... ... : ... .. 9 ... ... : ... .. D P83 ...
ROW 2A : ... .. 6 ... ... ... : ... .. . ... ... ... : F-2 00 . ... : ... .. 3 ... : ... .. . ... ... : ... .. 8 ... ... : ... .. 8 ... ... : ... .. 8 ... ...
ROW 2B : ... .. 5 ... ... ... : ... .. 6 ... ... ... : E-2 00 . ... : ... .. 1 ... : ... .. . ... ... : ... .. 1 ... ... : ... .. 1 ... ... : ... .. . P82 ...
ROW 2C : ... .. . ... ... ... : ... .. 5 ... ... ... : B-1 00 . ... : ... .. . ... : ... .. . ... ... : ... .. . ... ... : ... .. . ... ... : ... .. . P80 ...
ROW 2D : ... .. . ... ... ... : ... .. 4 ... ... ... : ... .. . ... : ... .. 0 ... : ... .. . ... ... : ... .. . ... ... : ... .. . ... ... : ... .. 1 P7E ...
ROW 2E : B-3 00 8 ... ... ... : B-3 00 8 ... ... ... : C#2 00 . ... : B-# 00 F ... : ... .. . ... ... : ... .. A ... ... : ... .. A ... ... : C#1 01 F P7D ...
ROW 2F : ... .. 7 ... ... ... : ... .. 7 ... ... ... : ... .. . ... : ... .. C ... : ... .. . ... ... : ... .. 9 ... ... : ... .. 9 ... ... : ... .. D ... ...
ROW 30 : ... .. 6 ... ... ... : ... .. . ... ... ... : ... .. . ... : ... .. 6 ... : ... .. . ... ... : ... .. 8 ... ... : ... .. 8 ... ... : ... .. 8 P7F ...
ROW 31 : ... .. 5 ... ... ... : ... .. 6 ... ... ... : ... .. . ... : ... .. 3 ... : ... .. . ... ... : ... .. 1 ... ... : ... .. 1 ... ... : ... .. . P81 ...
ROW 32 : ... .. . ... ... ... : ... .. 5 ... ... ... : ... .. . ... : ... .. 2 ... : ... .. . ... ... : ... .. . ... ... : ... .. . ... ... : ... .. . P83 ...
ROW 33 : ... .. . ... ... ... : ... .. 4 ... ... ... : --- .. . ... : ... .. 0 ... : ... .. . ... ... : ... .. . ... ... : ... .. . ... ... : ... .. 1 ... ...
ROW 34 : G#4 00 F ... ... ... : B-4 00 8 ... ... ... : C#3 00 . ... : 1-# 00 F ... : ... .. . ... ... : C#4 01 A ... ... : F-3 01 A ... ... : C#2 01 F P82 ...
ROW 35 : ... .. E ... ... ... : ... .. 7 ... ... ... : ... .. . ... : ... .. C ... : ... .. . ... ... : ... .. 9 ... ... : ... .. 9 ... ... : ... .. D P80 ...
ROW 36 : ... .. D ... ... ... : ... .. . ... ... ... : ... .. . ... : ... .. 6 ... : ... .. . ... ... : ... .. 8 ... ... : ... .. 8 ... ... : ... .. 8 P7E ...
ROW 37 : ... .. A ... ... ... : ... .. 6 ... ... ... : ... .. . ... : ... .. 3 ... : ... .. . ... ... : ... .. 7 ... ... : ... .. 7 ... ... : ... .. . P7D ...
ROW 38 : ... .. . ... ... ... : ... .. 5 ... ... ... : ... .. . ... : ... .. 2 ... : ... .. . ... ... : ... .. . ... ... : ... .. . ... ... : ... .. . ... ...
ROW 39 : ... .. . ... ... ... : ... .. 4 ... ... ... : --- .. . ... : ... .. 0 ... : ... .. . ... ... : ... .. 6 ... ... : ... .. 6 ... ... : ... .. 1 P7F ...
ROW 3A : B-3 00 8 ... ... ... : C#5 00 8 ... ... ... : D-3 00 . ... : 9-# 00 8 ... : ... .. . ... ... : C#1 01 A ... ... : C#1 01 A ... ... : B-1 01 F P80 ...
ROW 3B : ... .. 7 ... ... ... : ... .. 7 ... ... ... : ... .. . ... : ... .. 6 ... : ... .. . ... ... : ... .. 9 ... ... : ... .. 9 ... ... : ... .. D P83 ...
ROW 3C : ... .. 6 ... ... ... : ... .. . ... ... ... : ... .. . ... : ... .. 3 ... : ... .. . ... ... : ... .. 8 ... ... : ... .. 8 ... ... : ... .. 8 ... ...
ROW 3D : ... .. 5 ... ... ... : ... .. 6 ... ... ... : ... .. . ... : ... .. 1 ... : ... .. . ... ... : ... .. 1 ... ... : ... .. 1 ... ... : ... .. . P82 ...
ROW 3E : ... .. . ... ... ... : ... .. 5 ... ... ... : ... .. . ... : ... .. . ... : ... .. . ... ... : ... .. . ... ... : ... .. . ... ... : ... .. . P80 ...
ROW 3F : ... .. . ... ... ... : ... .. 4 ... ... ... : --- .. . ... : ... .. 0 ... : ... .. . ... ... : ... .. . ... ... : ... .. . ... ... : ... .. 1 P7F ...
ROW 40 : A-3 00 8 ... ... ... : B-4 00 8 ... ... ... : C-5 00 . ... : B-# 00 F ... : ... .. . ... ... : ... .. A ... ... : ... .. A ... ... : A-1 01 F P7D ...
ROW 41 : ... .. 7 ... ... ... : ... .. 7 ... ... ... : D-4 00 . ... : ... .. C ... : ... .. . ... ... : ... .. 9 ... ... : ... .. 9 ... ... : ... .. D ... ...
ROW 42 : ... .. 6 ... ... ... : ... .. . ... ... ... : G-3 00 . ... : ... .. 6 ... : ... .. . ... ... : ... .. 8 ... ... : ... .. 8 ... ... : ... .. 8 P7F ...
ROW 43 : ... .. 5 ... ... ... : ... .. 6 ... ... ... : F#3 00 . ... : ... .. 3 ... : ... .. . ... ... : ... .. 1 ... ... : ... .. 1 ... ... : ... .. . P80 ...
ROW 44 : ... .. . ... ... ... : ... .. 5 ... ... ... : C#3 00 . ... : ... .. 2 ... : ... .. . ... ... : ... .. . ... ... : ... .. . ... ... : ... .. . P82 ...
ROW 45 : ... .. . ... ... ... : ... .. 4 ... ... ... : ... .. . ... : ... .. 0 ... : ... .. . ... ... : ... .. . ... ... : ... .. . ... ... : ... .. 1 P83 ...
ROW 46 : F-3 00 8 ... ... ... : G-4 00 8 ... ... ... : C#2 00 . ... : 9-# 00 8 ... : ... .. . ... ... : ... .. A ... ... : ... .. A ... ... : G#1 01 F ... ...
ROW 47 : ... .. 7 ... ... ... : ... .. 7 ... ... ... : ... .. . ... : ... .. 6 ... : ... .. . ... ... : ... .. 9 ... ... : ... .. 9 ... ... : ... .. D P80 ...
ROW 48 : ... .. 6 ... ... ... : ... .. . ... ... ... : ... .. . ... : ... .. 3 ... : ... .. . ... ... : ... .. 8 ... ... : ... .. 8 ... ... : ... .. 8 P7F ...
ROW 49 : ... .. 5 ... ... ... : ... .. 6 ... ... ... : ... .. . ... : ... .. 1 ... : ... .. . ... ... : ... .. 1 ... ... : ... .. 1 ... ... : ... .. . P7D ...
ROW 4A : ... .. . ... ... ... : ... .. 5 ... ... ... : ... .. . ... : ... .. . ... : ... .. . ... ... : ... .. . ... ... : ... .. . ... ... : ... .. . ... ...
ROW 4B : ... .. . ... ... ... : ... .. 4 ... ... ... : --- .. . ... : ... .. 0 ... : ... .. . ... ... : ... .. . ... ... : ... .. . ... ... : ... .. 1 P7E ...
ROW 4C : C#3 00 F ... ... ... : C#4 00 8 ... ... ... : B-1 00 . ... : ... .. D ... : ... .. . ... ... : ... .. A ... ... : ... .. A ... ... : G-1 01 F P80 ...
ROW 4D : ... .. E ... ... ... : ... .. 7 ... ... ... : ... .. . ... : ... .. B ... : ... .. . ... ... : ... .. 9 ... ... : ... .. 9 ... ... : ... .. D P82 ...
ROW 4E : ... .. D ... ... ... : ... .. . ... ... ... : ... .. . ... : ... .. . ... : ... .. . ... ... : ... .. 8 ... ... : ... .. 8 ... ... : ... .. 8 P83 ...
ROW 4F : ... .. A ... ... ... : ... .. 6 ... ... ... : ... .. . ... : ... .. A ... : ... .. . ... ... : ... .. 1 ... ... : ... .. 1 ... ... : ... .. . ... ...
ROW 50 : ... .. . ... ... ... : ... .. 5 ... ... ... : ... .. . ... : ... .. 8 ... : ... .. . ... ... : ... .. . ... ... : ... .. . ... ... : ... .. . P81 ...
ROW 51 : ... .. . ... ... ... : ... .. 4 ... ... ... : --- .. . ... : ... .. 7 ... : ... .. . ... ... : ... .. . ... ... : ... .. . ... ... : ... .. 1 P7F ...
ROW 52 : B-2 00 8 ... ... ... : B-3 00 8 ... ... ... : C#2 00 . ... : 7-# 00 8 ... : ... .. . ... ... : ... .. A ... ... : ... .. A ... ... : F-1 01 F P7D ...
ROW 53 : ... .. 7 ... ... ... : ... .. 7 ... ... ... : ... .. . ... : ... .. 6 ... : ... .. . ... ... : ... .. 9 ... ... : ... .. 9 ... ... : ... .. D ... ...
ROW 54 : ... .. 6 ... ... ... : ... .. . ... ... ... : ... .. . ... : ... .. 3 ... : ... .. . ... ... : ... .. 8 ... ... : ... .. 8 ... ... : ... .. 8 P7E ...
ROW 55 : ... .. 5 ... ... ... : ... .. 6 ... ... ... : ... .. . ... : ... .. 1 ... : ... .. . ... ... : ... .. 1 ... ... : ... .. 1 ... ... : ... .. . P80 ...
ROW 56 : ... .. . ... ... ... : ... .. 5 ... ... ... : ... .. . ... : ... .. . ... : ... .. . ... ... : ... .. . ... ... : ... .. . ... ... : ... .. . P82 ...
ROW 57 : ... .. . ... ... ... : ... .. 4 ... ... ... : --- .. . ... : ... .. 0 ... : ... .. . ... ... : ... .. . ... ... : ... .. . ... ... : ... .. 1 P83 ...
ROW 58 : G-4 00 F ... ... ... : D#5 00 8 ... ... ... : C-5 00 . ... : 1-# 00 F ... : ... .. . ... ... : B-3 01 A ... ... : D-3 01 A ... ... : C#2 01 F ... ...
ROW 59 : ... .. E ... ... ... : ... .. 7 ... ... ... : D-4 00 . ... : ... .. C ... : ... .. . ... ... : ... .. 9 ... ... : ... .. 9 ... ... : ... .. D P81 ...
ROW 5A : ... .. D ... ... ... : ... .. . ... ... ... : G-3 00 . ... : ... .. 6 ... : ... .. . ... ... : ... .. 8 ... ... : ... .. 8 ... ... : ... .. 8 P80 ...
ROW 5B : ... .. A ... ... ... : ... .. 6 ... ... ... : F#3 00 . ... : ... .. 3 ... : ... .. . ... ... : ... .. 7 ... ... : ... .. 7 ... ... : ... .. . P7D ...
ROW 5C : ... .. . ... ... ... : ... .. 5 ... ... ... : C#3 00 . ... : ... .. 2 ... : ... .. . ... ... : ... .. . ... ... : ... .. . ... ... : ... .. . ... ...
ROW 5D : ... .. . ... ... ... : ... .. 4 ... ... ... : ... .. . ... : ... .. 0 ... : ... .. . ... ... : ... .. 6 ... ... : ... .. 6 ... ... : ... .. 1 P7E ...
ROW 5E : C#4 00 8 ... ... ... : F-5 00 8 ... ... ... : D-3 00 . ... : 9-# 00 8 ... : ... .. . ... ... : C#1 01 A ... ... : C#1 01 A ... ... : B-1 01 F P80 ...
ROW 5F : ... .. 7 ... ... ... : ... .. 7 ... ... ... : ... .. . ... : ... .. 6 ... : ... .. . ... ... : ... .. 9 ... ... : ... .. 9 ... ... : ... .. D P81 ...
ROW 60 : ... .. 6 ... ... ... : ... .. . ... ... ... : ... .. . ... : ... .. 3 ... : ... .. . ... ... : ... .. 8 ... ... : ... .. 8 ... ... : ... .. 8 P83 ...
ROW 61 : ... .. 5 ... ... ... : ... .. 6 ... ... ... : ... .. . ... : ... .. 1 ... : ... .. . ... ... : ... .. 1 ... ... : ... .. 1 ... ... : ... .. . ... ...
ROW 62 : ... .. . ... ... ... : ... .. 5 ... ... ... : ... .. . ... : ... .. . ... : ... .. . ... ... : ... .. . ... ... : ... .. . ... ... : ... .. . P81 ...
ROW 63 : ... .. . ... ... ... : ... .. 4 ... ... ... : --- .. . ... : ... .. 0 ... : ... .. . ... ... : ... .. . ... ... : ... .. . ... ... : ... .. 1 P80 ...
ROW 64 : B-3 00 8 ... ... ... : D#5 00 8 ... ... ... : C#3 00 . ... : B-# 00 F ... : ... .. . ... ... : ... .. A ... ... : ... .. A ... ... : C#2 01 F P7E ...
ROW 65 : ... .. 7 ... ... ... : ... .. 7 ... ... ... : ... .. . ... : ... .. C ... : ... .. . ... ... : ... .. 9 ... ... : ... .. 9 ... ... : ... .. D P7D ...
ROW 66 : ... .. 6 ... ... ... : ... .. . ... ... ... : ... .. . ... : ... .. 6 ... : ... .. . ... ... : ... .. 8 ... ... : ... .. 8 ... ... : ... .. 8 ... ...
ROW 67 : ... .. 5 ... ... ... : ... .. 6 ... ... ... : ... .. . ... : ... .. 3 ... : ... .. . ... ... : ... .. 1 ... ... : ... .. 1 ... ... : ... .. . P80 ...
ROW 68 : ... .. . ... ... ... : ... .. 5 ... ... ... : ... .. . ... : ... .. 2 ... : ... .. . ... ... : ... .. . ... ... : ... .. . ... ... : ... .. . P81 ...
ROW 69 : ... .. . ... ... ... : ... .. 4 ... ... ... : --- .. . ... : ... .. 0 ... : ... .. . ... ... : ... .. . ... ... : ... .. . ... ... : ... .. 1 P83 ...
ROW 6A : G-4 00 F ... ... ... : B-4 00 8 ... ... ... : C#2 00 . ... : 1-# 00 F ... : ... .. . ... ... : B-3 01 A ... ... : D-3 01 A ... ... : C#1 01 F ... ...
ROW 6B : ... .. E ... ... ... : ... .. 7 ... ... ... : ... .. . ... : ... .. C ... : ... .. . ... ... : ... .. 9 ... ... : ... .. 9 ... ... : ... .. D P82 ...
ROW 6C : ... .. D ... ... ... : ... .. . ... ... ... : ... .. . ... : ... .. 6 ... : ... .. . ... ... : ... .. 8 ... ... : ... .. 8 ... ... : ... .. 8 P80 ...
ROW 6D : ... .. A ... ... ... : ... .. 6 ... ... ... : ... .. . ... : ... .. 3 ... : ... .. . ... ... : ... .. 7 ... ... : ... .. 7 ... ... : ... .. . P7E ...
ROW 6E : ... .. . ... ... ... : ... .. 5 ... ... ... : ... .. . ... : ... .. 2 ... : ... .. . ... ... : ... .. . ... ... : ... .. . ... ... : ... .. . P7D ...
ROW 6F : ... .. . ... ... ... : ... .. 4 ... ... ... : --- .. . ... : ... .. 0 ... : ... .. . ... ... : ... .. 6 ... ... : ... .. 6 ... ... : ... .. 1 ... ...
ROW 70 : C#4 00 8 ... ... ... : A-4 00 8 ... ... ... : A#3 00 . ... : 9-# 00 8 ... : ... .. . ... ... : C#1 01 A ... ... : C#1 01 A ... ... : B-0 01 F P7F ...
ROW 71 : ... .. 7 ... ... ... : ... .. 7 ... ... ... : C-3 00 . ... : ... .. 6 ... : ... .. . ... ... : ... .. 9 ... ... : ... .. 9 ... ... : ... .. D P81 ...
ROW 72 : ... .. 6 ... ... ... : ... .. . ... ... ... : F-2 00 . ... : ... .. 3 ... : ... .. . ... ... : ... .. 8 ... ... : ... .. 8 ... ... : ... .. 8 P83 ...
ROW 73 : ... .. 5 ... ... ... : ... .. 6 ... ... ... : E-2 00 . ... : ... .. 1 ... : ... .. . ... ... : ... .. 1 ... ... : ... .. 1 ... ... : ... .. . ... ...
ROW 74 : ... .. . ... ... ... : ... .. 5 ... ... ... : B-1 00 . ... : ... .. . ... : ... .. . ... ... : ... .. . ... ... : ... .. . ... ... : ... .. . P82 ...
ROW 75 : ... .. . ... ... ... : ... .. 4 ... ... ... : ... .. . ... : ... .. 0 ... : ... .. . ... ... : ... .. . ... ... : ... .. . ... ... : ... .. 1 P80 ...
ROW 76 : B-3 00 8 ... ... ... : F-4 00 8 ... ... ... : C#2 00 . ... : B-# 00 F ... : ... .. . ... ... : ... .. A ... ... : ... .. A ... ... : C#1 01 F P7E ...
ROW 77 : ... .. 7 ... ... ... : ... .. 7 ... ... ... : ... .. . ... : ... .. C ... : ... .. . ... ... : ... .. 9 ... ... : ... .. 9 ... ... : ... .. D P7D ...
ROW 78 : ... .. 6 ... ... ... : ... .. . ... ... ... : ... .. . ... : ... .. 6 ... : ... .. . ... ... : ... .. 8 ... ... : ... .. 8 ... ... : ... .. 8 ... ...
ROW 79 : ... .. 5 ... ... ... : ... .. 6 ... ... ... : ... .. . ... : ... .. 3 ... : ... .. . ... ... : ... .. 1 ... ... : ... .. 1 ... ... : ... .. . P7F ...
ROW 7A : ... .. . ... ... ... : ... .. 5 ... ... ... : ... .. . ... : ... .. 2 ... : ... .. . ... ... : ... .. . ... ... : ... .. . ... ... : ... .. . P80 ...
ROW 7B : ... .. . ... ... ... : ... .. 4 ... ... ... : --- .. . ... : ... .. 0 ... : ... .. . ... ... : ... .. . ... ... : ... .. . ... ... : ... .. 1 P83 ...
ROW 7C : G-4 00 F ... ... ... : D#5 00 8 ... ... ... : C#3 00 . ... : 1-# 00 F ... : ... .. . ... ... : B-3 01 A ... ... : D-3 01 A ... ... : C#2 01 F ... ...
ROW 7D : ... .. E ... ... ... : ... .. 7 ... ... ... : ... .. . ... : ... .. C ... : ... .. . ... ... : ... .. 9 ... ... : ... .. 9 ... ... : ... .. D P82 ...
ROW 7E : ... .. D ... ... ... : ... .. . ... ... ... : ... .. . ... : ... .. 6 ... : ... .. . ... ... : ... .. 8 ... ... : ... .. 8 ... ... : ... .. 8 P80 ...
ROW 7F : ... .. A ... ... ... : ... .. 6 ... ... ... : ... .. . ... : ... .. 3 ... : ... .. . ... ... : ... .. 7 ... ... : ... .. 7 ... ... : ... .. . P7F ...
ROW 80 : ... .. . ... ... ... : ... .. 5 ... ... ... : ... .. . ... : ... .. 2 ... : ... .. . ... ... : ... .. . ... ... : ... .. . ... ... : ... .. . P7D ...
ROW 81 : ... .. . ... ... ... : ... .. 4 ... ... ... : --- .. . ... : ... .. 0 ... : ... .. . ... ... : ... .. 6 ... ... : ... .. 6 ... ... : ... .. 1 ... ...
ROW 82 : B-3 00 8 ... ... ... : F-5 00 8 ... ... ... : D-3 00 . ... : 9-# 00 8 ... : ... .. . ... ... : C#1 01 A ... ... : C#1 01 A ... ... : B-1 01 F P7F ...
ROW 83 : ... .. 7 ... ... ... : ... .. 7 ... ... ... : ... .. . ... : ... .. 6 ... : ... .. . ... ... : ... .. 9 ... ... : ... .. 9 ... ... : ... .. D P80 ...
ROW 84 : ... .. 6 ... ... ... : ... .. . ... ... ... : ... .. . ... : ... .. 3 ... : ... .. . ... ... : ... .. 8 ... ... : ... .. 8 ... ... : ... .. 8 P82 ...
ROW 85 : ... .. 5 ... ... ... : ... .. 6 ... ... ... : ... .. . ... : ... .. 1 ... : ... .. . ... ... : ... .. 1 ... ... : ... .. 1 ... ... : ... .. . P83 ...
ROW 86 : ... .. . ... ... ... : ... .. 5 ... ... ... : ... .. . ... : ... .. . ... : ... .. . ... ... : ... .. . ... ... : ... .. . ... ... : ... .. . ... ...
ROW 87 : ... .. . ... ... ... : ... .. 4 ... ... ... : --- .. . ... : ... .. 0 ... : ... .. . ... ... : ... .. . ... ... : ... .. . ... ... : ... .. 1 P80 ...
ROW 88 : A-3 00 8 ... ... ... : D#5 00 8 ... ... ... : C-5 00 . ... : B-# 00 F ... : ... .. . ... ... : ... .. A ... ... : ... .. A ... ... : C#2 01 F P7F ...
ROW 89 : ... .. 7 ... ... ... : ... .. 7 ... ... ... : D-4 00 . ... : ... .. C ... : ... .. . ... ... : ... .. 9 ... ... : ... .. 9 ... ... : ... .. D P7D ...
ROW 8A : ... .. 6 ... ... ... : ... .. . ... ... ... : G-3 00 . ... : ... .. 6 ... : ... .. . ... ... : ... .. 8 ... ... : ... .. 8 ... ... : ... .. 8 ... ...
ROW 8B : ... .. 5 ... ... ... : ... .. 6 ... ... ... : F#3 00 . ... : ... .. 3 ... : ... .. . ... ... : ... .. 1 ... ... : ... .. 1 ... ... : ... .. . P7E ...
ROW 8C : ... .. . ... ... ... : ... .. 5 ... ... ... : C#3 00 . ... : ... .. 2 ... : ... .. . ... ... : ... .. . ... ... : ... .. . ... ... : ... .. . P80 ...
ROW 8D : ... .. . ... ... ... : ... .. 4 ... ... ... : ... .. . ... : ... .. 0 ... : ... .. . ... ... : ... .. . ... ... : ... .. . ... ... : ... .. 1 P82 ...
ROW 8E : F-3 00 8 ... ... ... : B-4 00 8 ... ... ... : C#2 00 . ... : 9-# 00 8 ... : ... .. . ... ... : ... .. A ... ... : ... .. A ... ... : C#1 01 F P83 ...
ROW 8F : ... .. 7 ... ... ... : ... .. 7 ... ... ... : ... .. . ... : ... .. 6 ... : ... .. . ... ... : ... .. 9 ... ... : ... .. 9 ... ... : ... .. D ... ...
ROW 90 : ... .. 6 ... ... ... : ... .. . ... ... ... : ... .. . ... : ... .. 3 ... : ... .. . ... ... : ... .. 8 ... ... : ... .. 8 ... ... : ... .. 8 P81 ...
ROW 91 : ... .. 5 ... ... ... : ... .. 6 ... ... ... : ... .. . ... : ... .. 1 ... : ... .. . ... ... : ... .. 1 ... ... : ... .. 1 ... ... : ... .. . P7F ...
ROW 92 : ... .. . ... ... ... : ... .. 5 ... ... ... : ... .. . ... : ... .. . ... : ... .. . ... ... : ... .. . ... ... : ... .. . ... ... : ... .. . P7D ...
ROW 93 : ... .. . ... ... ... : ... .. 4 ... ... ... : --- .. . ... : ... .. 0 ... : ... .. . ... ... : ... .. . ... ... : ... .. . ... ... : ... .. 1 ... ...
ROW 94 : C#3 00 F ... ... ... : A-4 00 8 ... ... ... : B-1 00 . ... : ... .. D ... : ... .. . ... ... : ... .. A ... ... : ... .. A ... ... : B-0 01 F P7E ...
ROW 95 : ... .. E ... ... ... : ... .. 7 ... ... ... : ... .. . ... : ... .. B ... : ... .. . ... ... : ... .. 9 ... ... : ... .. 9 ... ... : ... .. D P80 ...
ROW 96 : ... .. D ... ... ... : ... .. . ... ... ... : ... .. . ... : ... .. . ... : ... .. . ... ... : ... .. 8 ... ... : ... .. 8 ... ... : ... .. 8 P82 ...
ROW 97 : ... .. A ... ... ... : ... .. 6 ... ... ... : ... .. . ... : ... .. A ... : ... .. . ... ... : ... .. 1 ... ... : ... .. 1 ... ... : ... .. . P83 ...
ROW 98 : ... .. . ... ... ... : ... .. 5 ... ... ... : ... .. . ... : ... .. 8 ... : ... .. . ... ... : ... .. . ... ... : ... .. . ... ... : ... .. . ... ...
ROW 99 : ... .. . ... ... ... : ... .. 4 ... ... ... : --- .. . ... : ... .. 7 ... : ... .. . ... ... : ... .. . ... ... : ... .. . ... ... : ... .. 1 P81 ...
ROW 9A : B-2 00 8 ... ... ... : F-4 00 8 ... ... ... : C#2 00 . ... : 7-# 00 8 ... : ... .. . ... ... : ... .. A ... ... : ... .. A ... ... : C#1 01 F P80 ...
ROW 9B : ... .. 7 ... ... ... : ... .. 7 ... ... ... : ... .. . ... : ... .. 6 ... : ... .. . ... ... : ... .. 9 ... ... : ... .. 9 ... ... : ... .. D P7D ...
ROW 9C : ... .. 6 ... ... ... : ... .. . ... ... ... : ... .. . ... : ... .. 3 ... : ... .. . ... ... : ... .. 8 ... ... : ... .. 8 ... ... : ... .. 8 ... ...
ROW 9D : ... .. 5 ... ... ... : ... .. 6 ... ... ... : ... .. . ... : ... .. 1 ... : ... .. . ... ... : ... .. 1 ... ... : ... .. 1 ... ... : ... .. . P7E ...
ROW 9E : ... .. . ... ... ... : ... .. 5 ... ... ... : ... .. . ... : ... .. . ... : ... .. . ... ... : ... .. . ... ... : ... .. . ... ... : ... .. . P80 ...
ROW 9F : ... .. . ... ... ... : ... .. 4 ... ... ... : --- .. . ... : ... .. 0 ... : ... .. . ... ... : ... .. . ... ... : ... .. . ... ... : ... .. 1 P81 ...
ROW A0 : G#4 00 F ... ... ... : B-4 00 8 ... ... ... : C-5 00 . ... : 1-# 00 F ... : ... .. . ... ... : C#4 01 A ... ... : F-3 01 A ... ... : C#2 01 F P83 ...
ROW A1 : ... .. E ... ... ... : ... .. 7 ... ... ... : D-4 00 . ... : ... .. C ... : ... .. . ... ... : ... .. 9 ... ... : ... .. 9 ... ... : ... .. D ... ...
ROW A2 : ... .. D ... ... ... : ... .. . ... ... ... : G-3 00 . ... : ... .. 6 ... : ... .. . ... ... : ... .. 8 ... ... : ... .. 8 ... ... : ... .. 8 P81 ...
ROW A3 : ... .. A ... ... ... : ... .. 6 ... ... ... : F#3 00 . ... : ... .. 3 ... : ... .. . ... ... : ... .. 7 ... ... : ... .. 7 ... ... : ... .. . P80 ...
ROW A4 : ... .. . ... ... ... : ... .. 5 ... ... ... : C#3 00 . ... : ... .. 2 ... : ... .. . ... ... : ... .. . ... ... : ... .. . ... ... : ... .. . P7E ...
ROW A5 : ... .. . ... ... ... : ... .. 4 ... ... ... : ... .. . ... : ... .. 0 ... : ... .. . ... ... : ... .. 6 ... ... : ... .. 6 ... ... : ... .. 1 P7D ...
ROW A6 : C#4 00 8 ... ... ... : C#5 00 8 ... ... ... : D-3 00 . ... : 9-# 00 8 ... : ... .. . ... ... : C#1 01 A ... ... : C#1 01 A ... ... : B-1 01 F ... ...
ROW A7 : ... .. 7 ... ... ... : ... .. 7 ... ... ... : ... .. . ... : ... .. 6 ... : ... .. . ... ... : ... .. 9 ... ... : ... .. 9 ... ... : ... .. D P80 ...
ROW A8 : ... .. 6 ... ... ... : ... .. . ... ... ... : ... .. . ... : ... .. 3 ... : ... .. . ... ... : ... .. 8 ... ... : ... .. 8 ... ... : ... .. 8 P81 ...
ROW A9 : ... .. 5 ... ... ... : ... .. 6 ... ... ... : ... .. . ... : ... .. 1 ... : ... .. . ... ... : ... .. 1 ... ... : ... .. 1 ... ... : ... .. . P83 ...
ROW AA : ... .. . ... ... ... : ... .. 5 ... ... ... : ... .. . ... : ... .. . ... : ... .. . ... ... : ... .. . ... ... : ... .. . ... ... : ... .. . ... ...
ROW AB : ... .. . ... ... ... : ... .. 4 ... ... ... : --- .. . ... : ... .. 0 ... : ... .. . ... ... : ... .. . ... ... : ... .. . ... ... : ... .. 1 P82 ...
ROW AC : B-3 00 8 ... ... ... : B-4 00 8 ... ... ... : C#3 00 . ... : B-# 00 F ... : ... .. . ... ... : ... .. A ... ... : ... .. A ... ... : C#2 01 F P80 ...
ROW AD : ... .. 7 ... ... ... : ... .. 7 ... ... ... : ... .. . ... : ... .. C ... : ... .. . ... ... : ... .. 9 ... ... : ... .. 9 ... ... : ... .. D P7E ...
ROW AE : ... .. 6 ... ... ... : ... .. . ... ... ... : ... .. . ... : ... .. 6 ... : ... .. . ... ... : ... .. 8 ... ... : ... .. 8 ... ... : ... .. 8 P7D ...
ROW AF : ... .. 5 ... ... ... : ... .. 6 ... ... ... : ... .. . ... : ... .. 3 ... : ... .. . ... ... : ... .. 1 ... ... : ... .. 1 ... ... : ... .. . ... ...
ROW B0 : ... .. . ... ... ... : ... .. 5 ... ... ... : ... .. . ... : ... .. 2 ... : ... .. . ... ... : ... .. . ... ... : ... .. . ... ... : ... .. . P7F ...
ROW B1 : ... .. . ... ... ... : ... .. 4 ... ... ... : --- .. . ... : ... .. 0 ... : ... .. . ... ... : ... .. . ... ... : ... .. . ... ... : ... .. 1 P81 ...
ROW B2 : G#4 00 F ... ... ... : G-4 00 8 ... ... ... : C#2 00 . ... : 1-# 00 F ... : ... .. . ... ... : C#4 01 A ... ... : F-3 01 A ... ... : C#1 01 F P83 ...
ROW B3 : ... .. E ... ... ... : ... .. 7 ... ... ... : ... .. . ... : ... .. C ... : ... .. . ... ... : ... .. 9 ... ... : ... .. 9 ... ... : ... .. D ... ...
ROW B4 : ... .. D ... ... ... : ... .. . ... ... ... : ... .. . ... : ... .. 6 ... : ... .. . ... ... : ... .. 8 ... ... : ... .. 8 ... ... : ... .. 8 P82 ...
ROW B5 : ... .. A ... ... ... : ... .. 6 ... ... ... : ... .. . ... : ... .. 3 ... : ... .. . ... ... : ... .. 7 ... ... : ... .. 7 ... ... : ... .. . P80 ...
ROW B6 : ... .. . ... ... ... : ... .. 5 ... ... ... : ... .. . ... : ... .. 2 ... : ... .. . ... ... : ... .. . ... ... : ... .. . ... ... : ... .. . P7E ...
ROW B7 : ... .. . ... ... ... : ... .. 4 ... ... ... : --- .. . ... : ... .. 0 ... : ... .. . ... ... : ... .. 6 ... ... : ... .. 6 ... ... : ... .. 1 P7D ...
ROW B8 : C#4 00 8 ... ... ... : C#4 00 8 ... ... ... : A#3 00 . ... : 9-# 00 8 ... : ... .. . ... ... : C#1 01 A ... ... : C#1 01 A ... ... : B-0 01 F ... ...
ROW B9 : ... .. 7 ... ... ... : ... .. 7 ... ... ... : C-3 00 . ... : ... .. 6 ... : ... .. . ... ... : ... .. 9 ... ... : ... .. 9 ... ... : ... .. D P7F ...
ROW BA : ... .. 6 ... ... ... : ... .. . ... ... ... : F-2 00 . ... : ... .. 3 ... : ... .. . ... ... : ... .. 8 ... ... : ... .. 8 ... ... : ... .. 8 P80 ...
ROW BB : ... .. 5 ... ... ... : ... .. 6 ... ... ... : E-2 00 . ... : ... .. 1 ... : ... .. . ... ... : ... .. 1 ... ... : ... .. 1 ... ... : ... .. . P83 ...
ROW BC : ... .. . ... ... ... : ... .. 5 ... ... ... : B-1 00 . ... : ... .. . ... : ... .. . ... ... : ... .. . ... ... : ... .. . ... ... : ... .. . ... ...
ROW BD : ... .. . ... ... ... : ... .. 4 ... ... ... : ... .. . ... : ... .. 0 ... : ... .. . ... ... : ... .. . ... ... : ... .. . ... ... : ... .. 1 P82 ...
ROW BE : B-3 00 8 ... ... ... : B-3 00 8 ... ... ... : C#2 00 . ... : B-# 00 F ... : ... .. . ... ... : ... .. A ... ... : ... .. A ... ... : C#1 01 F P80 ...
ROW BF : ... .. 7 ... ... ... : ... .. 7 ... ... ... : ... .. . ... : ... .. C ... : ... .. . ... ... : ... .. 9 ... ... : ... .. 9 ... ... : ... .. D P7F ...
ROW C0 : ... .. 6 ... ... ... : ... .. . ... ... ... : ... .. . ... : ... .. 6 ... : ... .. . ... ... : ... .. 8 ... ... : ... .. 8 ... ... : ... .. 8 P7D ...
ROW C1 : ... .. 5 ... ... ... : ... .. 6 ... ... ... : ... .. . ... : ... .. 3 ... : ... .. . ... ... : ... .. 1 ... ... : ... .. 1 ... ... : ... .. . ... ...
ROW C2 : ... .. . ... ... ... : ... .. 5 ... ... ... : ... .. . ... : ... .. 2 ... : ... .. . ... ... : ... .. . ... ... : ... .. . ... ... : ... .. . P7F ...
ROW C3 : ... .. . ... ... ... : ... .. 4 ... ... ... : --- .. . ... : ... .. 0 ... : ... .. . ... ... : ... .. . ... ... : ... .. . ... ... : ... .. 1 P80 ...
ROW C4 : G#4 00 F ... ... ... : B-4 00 8 ... ... ... : C#3 00 . ... : 9-# 00 D ... : ... .. . ... ... : C#4 01 A ... ... : F-3 01 A ... ... : C#2 01 F P82 ...
ROW C5 : ... .. E ... ... ... : ... .. 7 ... ... ... : ... .. . ... : ... .. B ... : ... .. . ... ... : ... .. 9 ... ... : ... .. 9 ... ... : ... .. D P83 ...
ROW C6 : ... .. D ... ... ... : ... .. . ... ... ... : ... .. . ... : ... .. . ... : ... .. . ... ... : ... .. 8 ... ... : ... .. 8 ... ... : ... .. 8 ... ...
ROW C7 : ... .. A ... ... ... : ... .. 6 ... ... ... : ... .. . ... : ... .. A ... : ... .. . ... ... : ... .. 7 ... ... : ... .. 7 ... ... : ... .. . P80 ...
ROW C8 : ... .. . ... ... ... : ... .. 5 ... ... ... : ... .. . ... : ... .. 8 ... : ... .. . ... ... : ... .. . ... ... : ... .. . ... ... : ... .. . P7F ...
ROW C9 : ... .. . ... ... ... : ... .. 4 ... ... ... : --- .. . ... : ... .. 7 ... : ... .. . ... ... : ... .. 6 ... ... : ... .. 6 ... ... : ... .. 1 P7D ...
ROW CA : B-3 00 8 ... ... ... : C#5 00 8 ... ... ... : D-3 00 . ... : ... .. D ... : ... .. . ... ... : C#1 01 A ... ... : C#1 01 A ... ... : B-1 01 F ... ...
ROW CB : ... .. 7 ... ... ... : ... .. 7 ... ... ... : ... .. . ... : ... .. B ... : ... .. . ... ... : ... .. 9 ... ... : ... .. 9 ... ... : ... .. D P7E ...
ROW CC : ... .. 6 ... ... ... : ... .. . ... ... ... : ... .. . ... : ... .. . ... : ... .. . ... ... : ... .. 8 ... ... : ... .. 8 ... ... : ... .. 8 P80 ...
ROW CD : ... .. 5 ... ... ... : ... .. 6 ... ... ... : ... .. . ... : ... .. A ... : ... .. . ... ... : ... .. 1 ... ... : ... .. 1 ... ... : ... .. . P82 ...
ROW CE : ... .. . ... ... ... : ... .. 5 ... ... ... : ... .. . ... : ... .. 8 ... : ... .. . ... ... : ... .. . ... ... : ... .. . ... ... : ... .. . P83 ...
ROW CF : ... .. . ... ... ... : ... .. 4 ... ... ... : --- .. . ... : ... .. 7 ... : ... .. . ... ... : ... .. . ... ... : ... .. . ... ... : ... .. 1 ... ...
ROW D0 : ... .. F ... ... ... : B-4 00 8 ... ... ... : C-5 00 . ... : 8-# 00 D ... : ... .. . ... ... : ... .. A ... ... : ... .. A ... ... : A-1 01 F P81 ...
ROW D1 : ... .. E ... ... ... : ... .. 7 ... ... ... : D-4 00 . ... : ... .. B ... : ... .. . ... ... : ... .. 9 ... ... : ... .. 9 ... ... : ... .. D P7F ...
ROW D2 : ... .. D ... ... ... : ... .. . ... ... ... : G-3 00 . ... : ... .. . ... : ... .. . ... ... : ... .. 8 ... ... : ... .. 8 ... ... : ... .. 8 P7D ...
ROW D3 : ... .. A ... ... ... : ... .. 6 ... ... ... : F#3 00 . ... : ... .. A ... : ... .. . ... ... : ... .. 1 ... ... : ... .. 1 ... ... : ... .. . ... ...
ROW D4 : ... .. . ... ... ... : ... .. 5 ... ... ... : C#3 00 . ... : ... .. 8 ... : ... .. . ... ... : ... .. . ... ... : ... .. . ... ... : ... .. . P7E ...
ROW D5 : ... .. . ... ... ... : ... .. 4 ... ... ... : ... .. . ... : ... .. 7 ... : ... .. . ... ... : ... .. . ... ... : ... .. . ... ... : ... .. 1 P80 ...
ROW D6 : ... .. . ... ... ... : G-4 00 8 ... ... ... : C#2 00 . ... : ... .. D ... : ... .. . ... ... : ... .. A ... ... : ... .. A ... ... : G#1 01 F P82 ...
ROW D7 : ... .. . ... ... ... : ... .. 7 ... ... ... : ... .. . ... : ... .. B ... : ... .. . ... ... : ... .. 9 ... ... : ... .. 9 ... ... : ... .. D P83 ...
ROW D8 : ... .. . ... ... ... : ... .. . ... ... ... : ... .. . ... : ... .. . ... : ... .. . ... ... : ... .. 8 ... ... : ... .. 8 ... ... : ... .. 8 ... ...
ROW D9 : ... .. . ... ... ... : ... .. 6 ... ... ... : ... .. . ... : ... .. A ... : ... .. . ... ... : ... .. 1 ... ... : ... .. 1 ... ... : ... .. . P81 ...
ROW DA : ... .. . ... ... ... : ... .. 5 ... ... ... : ... .. . ... : ... .. 8 ... : ... .. . ... ... : ... .. . ... ... : ... .. . ... ... : ... .. . P80 ...
ROW DB : ... .. . ... ... ... : ... .. 4 ... ... ... : --- .. . ... : ... .. 7 ... : ... .. . ... ... : ... .. . ... ... : ... .. . ... ... : ... .. 1 P7D ...
ROW DC : B-4 00 F ... ... ... : C#4 00 8 ... ... ... : B-1 00 . ... : 6-# 00 D ... : ... .. . ... ... : ... .. A ... ... : ... .. A ... ... : G-1 01 F ... ...
ROW DD : ... .. E ... ... ... : ... .. 7 ... ... ... : ... .. . ... : ... .. B ... : ... .. . ... ... : ... .. 9 ... ... : ... .. 9 ... ... : ... .. D P7E ...
ROW DE : ... .. D ... ... ... : ... .. . ... ... ... : ... .. . ... : ... .. . ... : ... .. . ... ... : ... .. 8 ... ... : ... .. 8 ... ... : ... .. 8 P80 ...
ROW DF : ... .. A ... ... ... : ... .. 6 ... ... ... : ... .. . ... : ... .. A ... : ... .. . ... ... : ... .. 1 ... ... : ... .. 1 ... ... : ... .. . P81 ...
ROW E0 : ... .. . ... ... ... : ... .. 5 ... ... ... : ... .. . ... : ... .. 8 ... : ... .. . ... ... : ... .. . ... ... : ... .. . ... ... : ... .. . P83 ...
ROW E1 : ... .. . ... ... ... : ... .. 4 ... ... ... : --- .. . ... : ... .. 7 ... : ... .. . ... ... : ... .. . ... ... : ... .. . ... ... : ... .. 1 ... ...
ROW E2 : ... .. . ... ... ... : B-3 00 8 ... ... ... : C#3 00 . ... : 3-# 00 D ... : ... .. . ... ... : ... .. A ... ... : ... .. A ... ... : F-1 01 F P81 ...
ROW E3 : ... .. . ... ... ... : ... .. 7 ... ... ... : ... .. . ... : ... .. B ... : ... .. . ... ... : ... .. 9 ... ... : ... .. 9 ... ... : ... .. D P80 ...
ROW E4 : ... .. . ... ... ... : ... .. . ... ... ... : ... .. . ... : ... .. . ... : ... .. . ... ... : ... .. 8 ... ... : ... .. 8 ... ... : ... .. 8 P7E ...
ROW E5 : ... .. . ... ... ... : ... .. 6 ... ... ... : ... .. . ... : ... .. A ... : ... .. . ... ... : ... .. 1 ... ... : ... .. 1 ... ... : ... .. . P7D ...
ROW E6 : ... .. . ... ... ... : ... .. 5 ... ... ... : ... .. . ... : ... .. 8 ... : ... .. . ... ... : ... .. . ... ... : ... .. . ... ... : ... .. . ... ...
ROW E7 : ... .. . ... ... ... : ... .. 4 ... ... ... : ... .. . ... : ... .. 7 ... : ... .. . ... ... : ... .. . ... ... : ... .. . ... ... : ... .. 1 P80 ...
ROW E8 : A#4 00 F ... ... ... : ... .. 0 ... ... ... : D#4 00 . ... : B-# 00 D ... : ... .. . ... ... : G-3 01 A ... ... : B-3 01 A ... ... : E-3 01 A P81 ...
ROW E9 : ... .. E ... ... ... : ... .. . ... ... ... : F-3 00 . ... : ... .. B ... : ... .. . ... ... : ... .. 9 ... ... : ... .. 9 ... ... : ... .. 8 P83 ...
ROW EA : ... .. D ... ... ... : ... .. . ... ... ... : A#2 00 . ... : ... .. . ... : ... .. . ... ... : ... .. 8 ... ... : ... .. 8 ... ... : ... .. 5 ... ...
ROW EB : ... .. A ... ... ... : ... .. . ... ... ... : A-2 00 . ... : ... .. A ... : ... .. . ... ... : ... .. 1 ... ... : ... .. 1 ... ... : ... .. 2 P82 ...
ROW EC : ... .. . ... ... ... : ... .. . ... ... ... : E-2 00 . ... : ... .. 8 ... : ... .. . ... ... : ... .. . ... ... : ... .. . ... ... : ... .. . P80 ...
ROW ED : ... .. . ... ... ... : ... .. . ... ... ... : ... .. . ... : ... .. 7 ... : ... .. . ... ... : ... .. . ... ... : ... .. . ... ... : ... .. . P7E ...
ROW EE : ... .. . ... ... ... : ... .. . ... ... ... : ... .. . ... : ... .. 6 ... : ... .. . ... ... : ... .. A ... ... : ... .. A ... ... : ... .. A P7D ...
ROW EF : ... .. . ... ... ... : ... .. . ... ... ... : ... .. . ... : ... .. . ... : ... .. . ... ... : ... .. 9 ... ... : ... .. 9 ... ... : ... .. 8 ... ...
ROW F0 : ... .. . ... ... ... : ... .. . ... ... ... : ... .. . ... : ... .. 5 ... : ... .. . ... ... : ... .. 8 ... ... : ... .. 8 ... ... : ... .. 5 P7F ...
ROW F1 : ... .. . ... ... ... : ... .. . ... ... ... : ... .. . ... : ... .. . ... : ... .. . ... ... : ... .. 1 ... ... : ... .. 1 ... ... : ... .. 2 P81 ...
ROW F2 : ... .. . ... ... ... : ... .. . ... ... ... : ... .. . ... : ... .. 4 ... : ... .. . ... ... : ... .. . ... ... : ... .. . ... ... : ... .. . P83 ...
ROW F3 : ... .. . ... ... ... : ... .. . ... ... ... : --- .. . ... : ... .. . ... : ... .. . ... ... : ... .. . ... ... : ... .. . ... ... : ... .. . ... ...
ROW F4 : ... .. . ... ... ... : A#4 00 6 P80 ... ... : E-3 00 . ... : ... .. 3 ... : ... .. . ... ... : ... .. A ... ... : ... .. A ... ... : ... .. A P82 ...
ROW F5 : ... .. . ... ... ... : ... .. 5 ... ... ... : ... .. . ... : ... .. 2 ... : ... .. . ... ... : ... .. 9 ... ... : ... .. 9 ... ... : ... .. 8 P80 ...
ROW F6 : ... .. . ... ... ... : ... .. . ... ... ... : ... .. . ... : ... .. . ... : ... .. . ... ... : ... .. 8 ... ... : ... .. 8 ... ... : ... .. 5 P7E ...
ROW F7 : ... .. . ... ... ... : ... .. 4 ... ... ... : ... .. . ... : ... .. 1 ... : ... .. . ... ... : ... .. 1 ... ... : ... .. 1 ... ... : ... .. 2 P7D ...
ROW F8 : ... .. . ... ... ... : ... .. . ... ... ... : ... .. . ... : ... .. 0 ... : ... .. . ... ... : ... .. . ... ... : ... .. . ... ... : ... .. . ... ...
ROW F9 : ... .. . ... ... ... : ... .. . ... ... ... : --- .. . ... : ... .. . ... : ... .. . ... ... : ... .. . ... ... : ... .. . ... ... : ... .. . P7F ...
ROW FA : B-4 00 A P7D ... ... : ... .. . ... ... ... : D#3 00 . ... : 9-# 00 8 ... : ... .. . ... ... : ... .. A ... ... : ... .. A ... ... : ... .. A P80 ...
ROW FB : ... .. . P7F ... ... : ... .. . ... ... ... : ... .. . ... : ... .. 6 ... : ... .. . ... ... : ... .. 9 ... ... : ... .. 9 ... ... : ... .. 8 P83 ...
ROW FC : ... .. . P7E ... ... : ... .. . ... ... ... : ... .. . ... : ... .. 3 ... : ... .. . ... ... : ... .. 8 ... ... : ... .. 8 ... ... : ... .. 5 ... ...
ROW FD : A#4 00 A P82 ... ... : ... .. . ... ... ... : ... .. . ... : ... .. 1 ... : ... .. . ... ... : ... .. 1 ... ... : ... .. 1 ... ... : ... .. 2 P82 ...
ROW FE : ... .. . P7E ... ... : ... .. . ... ... ... : ... .. . ... : ... .. . ... : ... .. . ... ... : ... .. . ... ... : ... .. . ... ... : ... .. . P80 ...
ROW FF : A-4 00 A P82 ... ... : ... .. . ... ... ... : --- .. . ... : ... .. 0 ... : ... .. . ... ... : ... .. . ... ... : ... .. . ... ... : ... .. . P7F ...

PATTERN 15
ROW 00 : ... .. . P81 ... ... : ... .. . ... ... ... : D-4 00 . ... : ... .. D ... : ... .. . ... ... : F#3 01 A ... ... : A#3 01 A ... ... : D#3 01 A P7D ...
ROW 01 : ... .. . P83 ... ... : ... .. . ... ... ... : E-3 00 . ... : ... .. B ... : ... .. . ... ... : ... .. 9 ... ... : ... .. 9 ... ... : ... .. 8 ... ...
ROW 02 : A#4 00 A P80 ... ... : ... .. . ... ... ... : A-2 00 . ... : ... .. . ... : ... .. . ... ... : ... .. 8 ... ... : ... .. 8 ... ... : ... .. 5 P7F ...
ROW 03 : ... .. . P83 ... ... : ... .. . ... ... ... : G#2 00 . ... : ... .. A ... : ... .. . ... ... : ... .. 1 ... ... : ... .. 1 ... ... : ... .. 2 P80 ...
ROW 04 : B-4 00 A P7F ... ... : ... .. . ... ... ... : D#2 00 . ... : ... .. 8 ... : ... .. . ... ... : ... .. . ... ... : ... .. . ... ... : ... .. . P82 ...
ROW 05 : ... .. . ... ... ... : ... .. . ... ... ... : ... .. . ... : ... .. 7 ... : ... .. . ... ... : ... .. . ... ... : ... .. . ... ... : ... .. . P83 ...
ROW 06 : A#4 00 A P82 ... ... : B-4 00 4 P7D ... ... : E-2 00 . ... : 7-# 00 8 ... : ... .. . ... ... : ... .. A ... ... : ... .. A ... ... : ... .. A ... ...
ROW 07 : ... .. . P7F ... ... : ... .. . P7F ... ... : ... .. . ... : ... .. 6 ... : ... .. . ... ... : ... .. 9 ... ... : ... .. 9 ... ... : ... .. 8 P80 ...
ROW 08 : A-4 00 A P82 ... ... : ... .. . P7E ... ... : ... .. . ... : ... .. 3 ... : ... .. . ... ... : ... .. 8 ... ... : ... .. 8 ... ... : ... .. 5 P7F ...
ROW 09 : ... .. . P81 ... ... : A#4 00 4 P82 ... ... : ... .. . ... : ... .. 1 ... : ... .. . ... ... : ... .. 1 ... ... : ... .. 1 ... ... : ... .. 2 P7D ...
ROW 0A : ... .. . P83 ... ... : ... .. . P7E ... ... : ... .. . ... : ... .. . ... : ... .. . ... ... : ... .. . ... ... : ... .. . ... ... : ... .. . ... ...
ROW 0B : A#4 00 A P80 ... ... : A-4 00 4 P82 ... ... : --- .. . ... : ... .. 0 ... : ... .. . ... ... : ... .. . ... ... : ... .. . ... ... : ... .. . P7E ...
ROW 0C : F#4 00 F ... ... ... : ... .. . P81 ... ... : G-3 00 . ... : A-# 00 F ... : ... .. . ... ... : ... .. A ... ... : ... .. A ... ... : ... .. A P80 ...
ROW 0D : ... .. E ... ... ... : ... .. . P83 ... ... : ... .. . ... : ... .. C ... : ... .. . ... ... : ... .. 9 ... ... : ... .. 9 ... ... : ... .. 8 P82 ...
ROW 0E : ... .. D ... ... ... : A#4 00 4 P80 ... ... : ... .. . ... : ... .. 6 ... : ... .. . ... ... : ... .. 8 ... ... : ... .. 8 ... ... : ... .. 5 P83 ...
ROW 0F : ... .. A ... ... ... : ... .. . P83 ... ... : ... .. . ... : ... .. 3 ... : ... .. . ... ... : ... .. 1 ... ... : ... .. 1 ... ... : ... .. 2 ... ...
ROW 10 : ... .. . ... ... ... : B-4 00 4 P7F ... ... : ... .. . ... : ... .. 2 ... : ... .. . ... ... : ... .. . ... ... : ... .. . ... ... : ... .. . P81 ...
ROW 11 : ... .. . ... ... ... : ... .. . ... ... ... : --- .. . ... : ... .. 0 ... : ... .. . ... ... : ... .. . ... ... : ... .. . ... ... : ... .. . P7F ...
ROW 12 : ... .. . ... ... ... : A#4 00 4 P82 ... ... : A#1 00 . ... : E-# 00 8 ... : ... .. . ... ... : ... .. A ... ... : ... .. A ... ... : ... .. A P7D ...
ROW 13 : ... .. . ... ... ... : ... .. . P7F ... ... : ... .. . ... : ... .. 6 ... : ... .. . ... ... : ... .. 9 ... ... : ... .. 9 ... ... : ... .. 8 ... ...
ROW 14 : ... .. . ... ... ... : A-4 00 4 P82 ... ... : ... .. . ... : ... .. 3 ... : ... .. . ... ... : ... .. 8 ... ... : ... .. 8 ... ... : ... .. 5 P7E ...
ROW 15 : ... .. . ... ... ... : ... .. . P81 ... ... : ... .. . ... : ... .. 1 ... : ... .. . ... ... : ... .. 1 ... ... : ... .. 1 ... ... : ... .. 2 P80 ...
ROW 16 : ... .. . ... ... ... : ... .. . P83 ... ... : ... .. . ... : ... .. . ... : ... .. . ... ... : ... .. . ... ... : ... .. . ... ... : ... .. . P82 ...
ROW 17 : ... .. . ... ... ... : A#4 00 4 P80 ... ... : --- .. . ... : ... .. 0 ... : ... .. . ... ... : ... .. . ... ... : ... .. . ... ... : ... .. . P83 ...
ROW 18 : G-4 00 F ... ... ... : F#4 00 6 ... ... ... : D#3 00 . ... : 1-# 00 F ... : ... .. . ... ... : G-3 01 A ... ... : B-3 01 A ... ... : E-3 01 A ... ...
ROW 19 : ... .. E ... ... ... : ... .. 5 ... ... ... : F-2 00 . ... : ... .. C ... : ... .. . ... ... : ... .. 9 ... ... : ... .. 9 ... ... : ... .. 8 P81 ...
ROW 1A : ... .. D ... ... ... : ... .. . ... ... ... : A#1 00 . ... : ... .. 6 ... : ... .. . ... ... : ... .. 8 ... ... : ... .. 8 ... ... : ... .. 5 P80 ...
ROW 1B : ... .. A ... ... ... : ... .. 4 ... ... ... : A-1 00 . ... : ... .. 3 ... : ... .. . ... ... : ... .. 1 ... ... : ... .. 1 ... ... : ... .. 2 P7D ...
ROW 1C : ... .. . ... ... ... : ... .. . ... ... ... : E-1 00 . ... : ... .. 2 ... : ... .. . ... ... : ... .. . ... ... : ... .. . ... ... : ... .. . ... ...
ROW 1D : ... .. . ... ... ... : ... .. . ... ... ... : ... .. . ... : ... .. 0 ... : ... .. . ... ... : ... .. . ... ... : ... .. . ... ... : ... .. . P7E ...
ROW 1E : ... .. . ... ... ... : ... .. . ... ... ... : E-2 00 . ... : 9-# 00 8 ... : ... .. . ... ... : ... .. A ... ... : ... .. A ... ... : ... .. A P80 ...
ROW 1F : ... .. . ... ... ... : ... .. . ... ... ... : ... .. . ... : ... .. 6 ... : ... .. . ... ... : ... .. 9 ... ... : ... .. 9 ... ... : ... .. 8 P81 ...
ROW 20 : ... .. . ... ... ... : ... .. . ... ... ... : ... .. . ... : ... .. 3 ... : ... .. . ... ... : ... .. 8 ... ... : ... .. 8 ... ... : ... .. 5 P83 ...
ROW 21 : ... .. . ... ... ... : ... .. . ... ... ... : ... .. . ... : ... .. 1 ... : ... .. . ... ... : ... .. 1 ... ... : ... .. 1 ... ... : ... .. 2 ... ...
ROW 22 : ... .. . ... ... ... : ... .. . ... ... ... : ... .. . ... : ... .. . ... : ... .. . ... ... : ... .. . ... ... : ... .. . ... ... : ... .. . P81 ...
ROW 23 : ... .. . ... ... ... : ... .. . ... ... ... : --- .. . ... : ... .. 0 ... : ... .. . ... ... : ... .. . ... ... : ... .. . ... ... : ... .. . P80 ...
ROW 24 : ... .. . ... ... ... : G-4 00 6 ... ... ... : E-3 00 . ... : 1-# 00 F ... : ... .. . ... ... : ... .. A ... ... : ... .. A ... ... : ... .. A P7E ...
ROW 25 : ... .. . ... ... ... : ... .. 5 ... ... ... : ... .. . ... : ... .. C ... : ... .. . ... ... : ... .. 9 ... ... : ... .. 9 ... ... : ... .. 8 P7D ...
ROW 26 : ... .. . ... ... ... : ... .. . ... ... ... : ... .. . ... : ... .. 6 ... : ... .. . ... ... : ... .. 8 ... ... : ... .. 8 ... ... : ... .. 5 ... ...
ROW 27 : ... .. . ... ... ... : ... .. 4 ... ... ... : ... .. . ... : ... .. 3 ... : ... .. . ... ... : ... .. 1 ... ... : ... .. 1 ... ... : ... .. 2 P80 ...
ROW 28 : ... .. . ... ... ... : ... .. . ... ... ... : ... .. . ... : ... .. 2 ... : ... .. . ... ... : ... .. . ... ... : ... .. . ... ... : ... .. . P81 ...
ROW 29 : ... .. . ... ... ... : ... .. . ... ... ... : --- .. . ... : ... .. 0 ... : ... .. . ... ... : ... .. . ... ... : ... .. . ... ... : ... .. . P83 ...
ROW 2A : ... .. . ... ... ... : ... .. . ... ... ... : E-2 00 . ... : 9-# 00 8 ... : ... .. . ... ... : ... .. A ... ... : ... .. A ... ... : ... .. A ... ...
ROW 2B : ... .. . ... ... ... : ... .. . ... ... ... : ... .. . ... : ... .. 6 ... : ... .. . ... ... : ... .. 9 ... ... : ... .. 9 ... ... : ... .. 8 P82 ...
ROW 2C : ... .. . ... ... ... : ... .. . ... ... ... : ... .. . ... : ... .. 3 ... : ... .. . ... ... : ... .. 8 ... ... : ... .. 8 ... ... : ... .. 5 P80 ...
ROW 2D : ... .. . ... ... ... : ... .. . ... ... ... : ... .. . ... : ... .. 1 ... : ... .. . ... ... : ... .. 1 ... ... : ... .. 1 ... ... : ... .. 2 P7E ...
ROW 2E : ... .. . ... ... ... : ... .. . ... ... ... : ... .. . ... : ... .. . ... : ... .. . ... ... : ... .. . ... ... : ... .. . ... ... : ... .. . P7D ...
ROW 2F : ... .. . ... ... ... : ... .. . ... ... ... : --- .. . ... : ... .. 0 ... : ... .. . ... ... : ... .. . ... ... : ... .. . ... ... : ... .. . ... ...
ROW 30 : ... .. . ... ... ... : ... .. . ... ... ... : E-4 00 . ... : ... .. D ... : ... .. . ... ... : G#3 01 A ... ... : C-4 01 A ... ... : F-3 01 A P7F ...
ROW 31 : A-4 00 A P83 ... ... : ... .. . ... ... ... : F#3 00 . ... : ... .. B ... : ... .. . ... ... : ... .. 9 ... ... : ... .. 9 ... ... : ... .. 8 P81 ...
ROW 32 : C-5 00 A P82 ... ... : ... .. . ... ... ... : B-2 00 . ... : ... .. . ... : ... .. . ... ... : ... .. 8 ... ... : ... .. 8 ... ... : ... .. 5 P83 ...
ROW 33 : E-5 00 5 P7F ... ... : ... .. . ... ... ... : A#2 00 . ... : ... .. A ... : ... .. . ... ... : ... .. 1 ... ... : ... .. 1 ... ... : ... .. 2 ... ...
ROW 34 : F-5 00 5 P80 ... ... : ... .. . ... ... ... : F-2 00 . ... : ... .. 8 ... : ... .. . ... ... : ... .. . ... ... : ... .. . ... ... : ... .. . P82 ...
ROW 35 : ... .. . ... ... ... : ... .. . ... ... ... : ... .. . ... : ... .. 7 ... : ... .. . ... ... : ... .. . ... ... : ... .. . ... ... : ... .. . P80 ...
ROW 36 : ... .. 6 ... ... ... : ... .. . ... ... ... : E-2 00 . ... : 7-# 00 8 ... : ... .. . ... ... : ... .. A ... ... : ... .. A ... ... : ... .. A P7E ...
ROW 37 : ... .. . ... ... ... : ... .. . ... ... ... : ... .. . ... : ... .. 6 ... : ... .. . ... ... : ... .. 9 ... ... : ... .. 9 ... ... : ... .. 8 P7D ...
ROW 38 : ... .. . ... ... ... : ... .. . ... ... ... : ... .. . ... : ... .. 3 ... : ... .. . ... ... : ... .. 8 ... ... : ... .. 8 ... ... : ... .. 5 ... ...
ROW 39 : ... .. . ... ... ... : ... .. . ... ... ... : ... .. . ... : ... .. 1 ... : ... .. . ... ... : ... .. 1 ... ... : ... .. 1 ... ... : ... .. 2 P7F ...
ROW 3A : ... .. . ... ... ... : ... .. . ... ... ... : ... .. . ... : ... .. . ... : ... .. . ... ... : ... .. . ... ... : ... .. . ... ... : ... .. . P80 ...
ROW 3B : ... .. . ... ... ... : ... .. . ... ... ... : --- .. . ... : ... .. 0 ... : ... .. . ... ... : ... .. . ... ... : ... .. . ... ... : ... .. . P83 ...
ROW 3C : ... .. 7 ... ... ... : ... .. . ... ... ... : D-3 00 . ... : A-# 00 F ... : ... .. . ... ... : ... .. A ... ... : ... .. A ... ... : ... .. A ... ...
ROW 3D : ... .. . ... ... ... : A-4 00 4 P83 ... ... : ... .. . ... : ... .. C ... : ... .. . ... ... : ... .. 9 ... ... : ... .. 9 ... ... : ... .. 8 P82 ...
ROW 3E : ... .. . ... ... ... : C-5 00 4 P82 ... ... : ... .. . ... : ... .. 6 ... : ... .. . ... ... : ... .. 8 ... ... : ... .. 8 ... ... : ... .. 5 P80 ...
ROW 3F : ... .. 8 ... ... ... : ... .. 0 ... ... ... : ... .. . ... : ... .. 3 ... : ... .. . ... ... : ... .. 1 ... ... : ... .. 1 ... ... : ... .. 2 P7F ...
ROW 40 : ... .. . ... ... ... : ... .. . ... ... ... : ... .. . ... : ... .. 2 ... : ... .. . ... ... : ... .. . ... ... : ... .. . ... ... : ... .. . P7D ...
ROW 41 : ... .. . ... ... ... : ... .. . ... ... ... : --- .. . ... : ... .. 0 ... : ... .. . ... ... : ... .. . ... ... : ... .. . ... ... : ... .. . ... ...
ROW 42 : ... .. . ... ... ... : ... .. . ... ... ... : E-2 00 . ... : E-# 00 8 ... : ... .. . ... ... : ... .. A ... ... : ... .. A ... ... : ... .. A P7F ...
ROW 43 : ... .. . ... ... ... : ... .. . ... ... ... : ... .. . ... : ... .. 6 ... : ... .. . ... ... : ... .. 9 ... ... : ... .. 9 ... ... : ... .. 8 P80 ...
ROW 44 : ... .. . ... ... ... : ... .. . ... ... ... : ... .. . ... : ... .. 3 ... : ... .. . ... ... : ... .. 8 ... ... : ... .. 8 ... ... : ... .. 5 P82 ...
ROW 45 : ... .. 9 ... ... ... : F-5 00 1 P80 ... ... : ... .. . ... : ... .. 1 ... : ... .. . ... ... : ... .. 1 ... ... : ... .. 1 ... ... : ... .. 2 P83 ...
ROW 46 : ... .. . ... ... ... : ... .. . ... ... ... : ... .. . ... : ... .. . ... : ... .. . ... ... : ... .. . ... ... : ... .. . ... ... : ... .. . ... ...
ROW 47 : ... .. . ... ... ... : ... .. . ... ... ... : --- .. . ... : ... .. 0 ... : ... .. . ... ... : ... .. . ... ... : ... .. . ... ... : ... .. . P80 ...
ROW 48 : F#5 00 A ... ... ... : ... .. . ... ... ... : D#4 00 . ... : 1-# 00 F ... : ... .. . ... ... : G-3 01 A ... ... : B-3 01 A ... ... : E-3 01 A P7F ...
ROW 49 : ... .. . P82 ... ... : ... .. . ... ... ... : F-3 00 . ... : ... .. C ... : ... .. . ... ... : ... .. 9 ... ... : ... .. 9 ... ... : ... .. 8 P7D ...
ROW 4A : ... .. . P81 ... ... : ... .. . ... ... ... : A#2 00 . ... : ... .. 6 ... : ... .. . ... ... : ... .. 8 ... ... : ... .. 8 ... ... : ... .. 5 ... ...
ROW 4B : F-5 00 A P82 ... ... : ... .. 2 ... ... ... : A-2 00 . ... : ... .. 3 ... : ... .. . ... ... : ... .. 1 ... ... : ... .. 1 ... ... : ... .. 2 P7E ...
ROW 4C : ... .. . P7E ... ... : ... .. . ... ... ... : E-2 00 . ... : ... .. 2 ... : ... .. . ... ... : ... .. . ... ... : ... .. . ... ... : ... .. . P80 ...
ROW 4D : E-5 00 A P80 ... ... : ... .. . ... ... ... : ... .. . ... : ... .. 0 ... : ... .. . ... ... : ... .. . ... ... : ... .. . ... ... : ... .. . P82 ...
ROW 4E : ... .. . P7F ... ... : ... .. . ... ... ... : ... .. . ... : 9-# 00 8 ... : ... .. . ... ... : ... .. A ... ... : ... .. A ... ... : ... .. A P83 ...
ROW 4F : ... .. . P81 ... ... : ... .. . ... ... ... : ... .. . ... : ... .. 6 ... : ... .. . ... ... : ... .. 9 ... ... : ... .. 9 ... ... : ... .. 8 ... ...
ROW 50 : F-5 00 A P80 ... ... : ... .. . ... ... ... : ... .. . ... : ... .. 3 ... : ... .. . ... ... : ... .. 8 ... ... : ... .. 8 ... ... : ... .. 5 P81 ...
ROW 51 : F#5 00 A P7F ... ... : ... .. 3 ... ... ... : ... .. . ... : ... .. 1 ... : ... .. . ... ... : ... .. 1 ... ... : ... .. 1 ... ... : ... .. 2 P7F ...
ROW 52 : ... .. . P82 ... ... : ... .. . ... ... ... : ... .. . ... : ... .. . ... : ... .. . ... ... : ... .. . ... ... : ... .. . ... ... : ... .. . P7D ...
ROW 53 : ... .. . ... ... ... : ... .. . ... ... ... : --- .. . ... : ... .. 0 ... : ... .. . ... ... : ... .. . ... ... : ... .. . ... ... : ... .. . ... ...
ROW 54 : A#4 00 F P80 ... ... : F#5 00 4 ... ... ... : E-3 00 . ... : B-# 00 F ... : ... .. . ... ... : ... .. A ... ... : ... .. A ... ... : ... .. A P7E ...
ROW 55 : ... .. E ... ... ... : ... .. . P82 ... ... : ... .. . ... : ... .. C ... : ... .. . ... ... : ... .. 9 ... ... : ... .. 9 ... ... : ... .. 8 P80 ...
ROW 56 : ... .. D ... ... ... : ... .. . P81 ... ... : ... .. . ... : ... .. 6 ... : ... .. . ... ... : ... .. 8 ... ... : ... .. 8 ... ... : ... .. 5 P82 ...
ROW 57 : ... .. A ... ... ... : F-5 00 4 P82 ... ... : ... .. . ... : ... .. 3 ... : ... .. . ... ... : ... .. 1 ... ... : ... .. 1 ... ... : ... .. 2 P83 ...
ROW 58 : ... .. . ... ... ... : ... .. . P7E ... ... : ... .. . ... : ... .. 2 ... : ... .. . ... ... : ... .. . ... ... : ... .. . ... ... : ... .. . ... ...
ROW 59 : ... .. . ... ... ... : E-5 00 4 P80 ... ... : --- .. . ... : ... .. 0 ... : ... .. . ... ... : ... .. . ... ... : ... .. . ... ... : ... .. . P81 ...
ROW 5A : G#4 00 A P7F ... ... : ... .. . P7F ... ... : D#3 00 . ... : 9-# 00 8 ... : ... .. . ... ... : ... .. A ... ... : ... .. A ... ... : ... .. A P80 ...
ROW 5B : F#4 00 A ... ... ... : ... .. . P81 ... ... : ... .. . ... : ... .. 6 ... : ... .. . ... ... : ... .. 9 ... ... : ... .. 9 ... ... : ... .. 8 P7D ...
ROW 5C : E-4 00 A P82 ... ... : F-5 00 4 P80 ... ... : ... .. . ... : ... .. 3 ... : ... .. . ... ... : ... .. 8 ... ... : ... .. 8 ... ... : ... .. 5 ... ...
ROW 5D : D#4 00 A P7C ... ... : F#5 00 4 P7F ... ... : ... .. . ... : ... .. 1 ... : ... .. . ... ... : ... .. 1 ... ... : ... .. 1 ... ... : ... .. 2 P7E ...
ROW 5E : C#4 00 A P82 ... ... : ... .. . P82 ... ... : ... .. . ... : ... .. . ... : ... .. . ... ... : ... .. . ... ... : ... .. . ... ... : ... .. . P80 ...
ROW 5F : C-4 00 A P7E ... ... : ... .. . ... ... ... : --- .. . ... : ... .. 0 ... : ... .. . ... ... : ... .. . ... ... : ... .. . ... ... : ... .. . P81 ...
ROW 60 : E-4 00 F P80 ... ... : A#4 00 6 P80 ... ... : D-4 00 . ... : ... .. D ... : ... .. . ... ... : F#3 01 A ... ... : A#3 01 A ... ... : D#3 01 A P83 ...
ROW 61 : ... .. E ... ... ... : ... .. 5 ... ... ... : E-3 00 . ... : ... .. B ... : ... .. . ... ... : ... .. 9 ... ... : ... .. 9 ... ... : ... .. 8 ... ...
ROW 62 : ... .. D ... ... ... : ... .. . ... ... ... : A-2 00 . ... : ... .. . ... : ... .. . ... ... : ... .. 8 ... ... : ... .. 8 ... ... : ... .. 5 P81 ...
ROW 63 : ... .. A ... ... ... : ... .. 4 ... ... ... : G#2 00 . ... : ... .. A ... : ... .. . ... ... : ... .. 1 ... ... : ... .. 1 ... ... : ... .. 2 P80 ...
ROW 64 : ... .. . ... ... ... : ... .. . ... ... ... : D#2 00 . ... : ... .. 8 ... : ... .. . ... ... : ... .. . ... ... : ... .. . ... ... : ... .. . P7E ...
ROW 65 : ... .. . ... ... ... : ... .. . ... ... ... : ... .. . ... : ... .. 7 ... : ... .. . ... ... : ... .. . ... ... : ... .. . ... ... : ... .. . P7D ...
ROW 66 : ... .. 5 ... ... ... : G#4 00 4 P7F ... ... : E-2 00 . ... : 7-# 00 8 ... : ... .. . ... ... : ... .. A ... ... : ... .. A ... ... : ... .. A ... ...
ROW 67 : ... .. . ... ... ... : F#4 00 4 ... ... ... : ... .. . ... : ... .. 6 ... : ... .. . ... ... : ... .. 9 ... ... : ... .. 9 ... ... : ... .. 8 P80 ...
ROW 68 : ... .. . ... ... ... : E-4 00 4 P82 ... ... : ... .. . ... : ... .. 3 ... : ... .. . ... ... : ... .. 8 ... ... : ... .. 8 ... ... : ... .. 5 P81 ...
ROW 69 : ... .. 6 ... ... ... : D#4 00 4 P7C ... ... : ... .. . ... : ... .. 1 ... : ... .. . ... ... : ... .. 1 ... ... : ... .. 1 ... ... : ... .. 2 P83 ...
ROW 6A : ... .. . ... ... ... : C#4 00 4 P82 ... ... : ... .. . ... : ... .. . ... : ... .. . ... ... : ... .. . ... ... : ... .. . ... ... : ... .. . ... ...
ROW 6B : ... .. . ... ... ... : C-4 00 4 P7E ... ... : --- .. . ... : ... .. 0 ... : ... .. . ... ... : ... .. . ... ... : ... .. . ... ... : ... .. . P82 ...
ROW 6C : ... .. . ... ... ... : E-4 00 6 P80 ... ... : G-3 00 . ... : A-# 00 F ... : ... .. . ... ... : ... .. A ... ... : ... .. A ... ... : ... .. A P80 ...
ROW 6D : ... .. . ... ... ... : ... .. 5 ... ... ... : ... .. . ... : ... .. C ... : ... .. . ... ... : ... .. 9 ... ... : ... .. 9 ... ... : ... .. 8 P7E ...
ROW 6E : ... .. . ... ... ... : ... .. . ... ... ... : ... .. . ... : ... .. 6 ... : ... .. . ... ... : ... .. 8 ... ... : ... .. 8 ... ... : ... .. 5 P7D ...
ROW 6F : ... .. 7 ... ... ... : ... .. 4 ... ... ... : ... .. . ... : ... .. 3 ... : ... .. . ... ... : ... .. 1 ... ... : ... .. 1 ... ... : ... .. 2 ... ...
ROW 70 : ... .. . ... ... ... : ... .. . ... ... ... : ... .. . ... : ... .. 2 ... : ... .. . ... ... : ... .. . ... ... : ... .. . ... ... : ... .. . P7F ...
ROW 71 : ... .. . ... ... ... : ... .. . ... ... ... : --- .. . ... : ... .. 0 ... : ... .. . ... ... : ... .. . ... ... : ... .. . ... ... : ... .. . P81 ...
ROW 72 : ... .. 8 ... ... ... : ... .. 0 ... ... ... : A#1 00 . ... : E-# 00 8 ... : ... .. . ... ... : ... .. A ... ... : ... .. A ... ... : ... .. A P83 ...
ROW 73 : ... .. . ... ... ... : ... .. . ... ... ... : ... .. . ... : ... .. 6 ... : ... .. . ... ... : ... .. 9 ... ... : ... .. 9 ... ... : ... .. 8 ... ...
ROW 74 : ... .. . ... ... ... : ... .. . ... ... ... : ... .. . ... : ... .. 3 ... : ... .. . ... ... : ... .. 8 ... ... : ... .. 8 ... ... : ... .. 5 P82 ...
ROW 75 : ... .. . ... ... ... : ... .. . ... ... ... : ... .. . ... : ... .. 1 ... : ... .. . ... ... : ... .. 1 ... ... : ... .. 1 ... ... : ... .. 2 P80 ...
ROW 76 : ... .. . ... ... ... : ... .. . ... ... ... : ... .. . ... : ... .. . ... : ... .. . ... ... : ... .. . ... ... : ... .. . ... ... : ... .. . P7E ...
ROW 77 : ... .. . ... ... ... : ... .. . ... ... ... : --- .. . ... : ... .. 0 ... : ... .. . ... ... : ... .. . ... ... : ... .. . ... ... : ... .. . P7D ...
ROW 78 : ... .. A P84 ... ... : E-4 00 1 P80 ... ... : D#3 00 . ... : 1-# 00 F ... : ... .. . ... ... : F-3 01 A ... ... : A-3 01 A ... ... : D-3 01 A ... ...
ROW 79 : F-4 00 A P7C ... ... : ... .. . ... ... ... : F-2 00 . ... : ... .. C ... : ... .. . ... ... : ... .. 9 ... ... : ... .. 9 ... ... : ... .. 8 P7F ...
ROW 7A : E-4 00 A P85 ... ... : ... .. . ... ... ... : A#1 00 . ... : ... .. 6 ... : ... .. . ... ... : ... .. 8 ... ... : ... .. 8 ... ... : ... .. 5 P80 ...
ROW 7B : ... .. . P82 ... ... : ... .. . ... ... ... : A-1 00 . ... : ... .. 3 ... : ... .. . ... ... : ... .. 1 ... ... : ... .. 1 ... ... : ... .. 2 P83 ...
ROW 7C : ... .. . P7E ... ... : ... .. . ... ... ... : E-1 00 . ... : ... .. 2 ... : ... .. . ... ... : ... .. . ... ... : ... .. . ... ... : ... .. . ... ...
ROW 7D : D#4 00 A P85 ... ... : ... .. . ... ... ... : ... .. . ... : ... .. 0 ... : ... .. . ... ... : ... .. . ... ... : ... .. . ... ... : ... .. . P82 ...
ROW 7E : ... .. . P84 ... ... : ... .. 2 ... ... ... : E-2 00 . ... : 9-# 00 8 ... : ... .. . ... ... : ... .. A ... ... : ... .. A ... ... : ... .. A P80 ...
ROW 7F : E-4 00 A P7C ... ... : ... .. . ... ... ... : ... .. . ... : ... .. 6 ... : ... .. . ... ... : ... .. 9 ... ... : ... .. 9 ... ... : ... .. 8 P7F ...
ROW 80 : ... .. . P80 ... ... : ... .. . ... ... ... : ... .. . ... : ... .. 3 ... : ... .. . ... ... : ... .. 8 ... ... : ... .. 8 ... ... : ... .. 5 P7D ...
ROW 81 : ... .. . P83 ... ... : ... .. . ... ... ... : ... .. . ... : ... .. 1 ... : ... .. . ... ... : ... .. 1 ... ... : ... .. 1 ... ... : ... .. 2 ... ...
ROW 82 : F-4 00 A P7C ... ... : ... .. . ... ... ... : ... .. . ... : ... .. . ... : ... .. . ... ... : ... .. . ... ... : ... .. . ... ... : ... .. . P7F ...
ROW 83 : ... .. . ... ... ... : ... .. . ... ... ... : --- .. . ... : ... .. 0 ... : ... .. . ... ... : ... .. . ... ... : ... .. . ... ... : ... .. . P80 ...
ROW 84 : E-4 00 A P82 ... ... : ... .. 4 P84 ... ... : E-3 00 . ... : 1-# 00 F ... : ... .. . ... ... : ... .. A ... ... : ... .. A ... ... : ... .. A P82 ...
ROW 85 : ... .. . P7F ... ... : F-4 00 4 P7C ... ... : ... .. . ... : ... .. C ... : ... .. . ... ... : ... .. 9 ... ... : ... .. 9 ... ... : ... .. 8 P83 ...
ROW 86 : D#4 00 A P85 ... ... : E-4 00 4 P85 ... ... : ... .. . ... : ... .. 6 ... : ... .. . ... ... : ... .. 8 ... ... : ... .. 8 ... ... : ... .. 5 ... ...
ROW 87 : ... .. . P84 ... ... : ... .. . P82 ... ... : ... .. . ... : ... .. 3 ... : ... .. . ... ... : ... .. 1 ... ... : ... .. 1 ... ... : ... .. 2 P80 ...
ROW 88 : E-4 00 A P7C ... ... : ... .. . P7E ... ... : ... .. . ... : ... .. 2 ... : ... .. . ... ... : ... .. . ... ... : ... .. . ... ... : ... .. . P7F ...
ROW 89 : ... .. . P80 ... ... : D#4 00 4 P85 ... ... : --- .. . ... : ... .. 0 ... : ... .. . ... ... : ... .. . ... ... : ... .. . ... ... : ... .. . P7D ...
ROW 8A : ... .. 5 P83 ... ... : ... .. . P84 ... ... : E-2 00 . ... : 9-# 00 8 ... : ... .. . ... ... : ... .. A ... ... : ... .. A ... ... : ... .. A ... ...
ROW 8B : F-4 00 5 P7C ... ... : E-4 00 4 P7C ... ... : ... .. . ... : ... .. 6 ... : ... .. . ... ... : ... .. 9 ... ... : ... .. 9 ... ... : ... .. 8 P7E ...
ROW 8C : ... .. . ... ... ... : ... .. . P80 ... ... : ... .. . ... : ... .. 3 ... : ... .. . ... ... : ... .. 8 ... ... : ... .. 8 ... ... : ... .. 5 P80 ...
ROW 8D : E-4 00 5 P83 ... ... : ... .. . P83 ... ... : ... .. . ... : ... .. 1 ... : ... .. . ... ... : ... .. 1 ... ... : ... .. 1 ... ... : ... .. 2 P82 ...
ROW 8E : ... .. . P80 ... ... : F-4 00 4 P7C ... ... : ... .. . ... : ... .. . ... : ... .. . ... ... : ... .. . ... ... : ... .. . ... ... : ... .. . P83 ...
ROW 8F : ... .. . P7C ... ... : ... .. . ... ... ... : --- .. . ... : ... .. 0 ... : ... .. . ... ... : ... .. . ... ... : ... .. . ... ... : ... .. . ... ...
ROW 90 : E-5 00 F P80 ... ... : E-4 00 4 P82 ... ... : E-4 00 . ... : ... .. D ... : ... .. . ... ... : E-3 01 A ... ... : G#3 01 A ... ... : C#3 01 A P81 ...
ROW 91 : ... .. E ... ... ... : ... .. . P7F ... ... : F#3 00 . ... : ... .. B ... : ... .. . ... ... : ... .. 9 ... ... : ... .. 9 ... ... : ... .. 8 P7F ...
ROW 92 : ... .. D ... ... ... : D#4 00 4 P85 ... ... : B-2 00 . ... : ... .. . ... : ... .. . ... ... : ... .. 8 ... ... : ... .. 8 ... ... : ... .. 5 P7D ...
ROW 93 : ... .. A ... ... ... : ... .. . P84 ... ... : A#2 00 . ... : ... .. A ... : ... .. . ... ... : ... .. 1 ... ... : ... .. 1 ... ... : ... .. 2 ... ...
ROW 94 : ... .. . ... ... ... : E-4 00 4 P7C ... ... : F-2 00 . ... : ... .. 8 ... : ... .. . ... ... : ... .. . ... ... : ... .. . ... ... : ... .. . P7E ...
ROW 95 : ... .. . ... ... ... : ... .. . P80 ... ... : ... .. . ... : ... .. 7 ... : ... .. . ... ... : ... .. . ... ... : ... .. . ... ... : ... .. . P80 ...
ROW 96 : A#4 00 F ... ... ... : ... .. 0 ... ... ... : E-2 00 . ... : 7-# 00 8 ... : ... .. . ... ... : ... .. A ... ... : ... .. A ... ... : ... .. A P82 ...
ROW 97 : ... .. E ... ... ... : ... .. . ... ... ... : ... .. . ... : ... .. 6 ... : ... .. . ... ... : ... .. 9 ... ... : ... .. 9 ... ... : ... .. 8 P83 ...
ROW 98 : ... .. D ... ... ... : ... .. . ... ... ... : ... .. . ... : ... .. 3 ... : ... .. . ... ... : ... .. 8 ... ... : ... .. 8 ... ... : ... .. 5 ... ...
ROW 99 : ... .. A ... ... ... : ... .. . ... ... ... : ... .. . ... : ... .. 1 ... : ... .. . ... ... : ... .. 1 ... ... : ... .. 1 ... ... : ... .. 2 P81 ...
ROW 9A : ... .. . ... ... ... : ... .. . ... ... ... : ... .. . ... : ... .. . ... : ... .. . ... ... : ... .. . ... ... : ... .. . ... ... : ... .. . P80 ...
ROW 9B : ... .. . ... ... ... : ... .. . ... ... ... : --- .. . ... : ... .. 0 ... : ... .. . ... ... : ... .. . ... ... : ... .. . ... ... : ... .. . P7D ...
ROW 9C : E-4 00 F ... ... ... : E-5 00 6 P80 ... ... : D-3 00 . ... : A-# 00 F ... : ... .. . ... ... : ... .. A ... ... : ... .. A ... ... : ... .. A ... ...
ROW 9D : ... .. E ... ... ... : ... .. 5 ... ... ... : ... .. . ... : ... .. C ... : ... .. . ... ... : ... .. 9 ... ... : ... .. 9 ... ... : ... .. 8 P7E ...
ROW 9E : ... .. D ... ... ... : ... .. . ... ... ... : ... .. . ... : ... .. 6 ... : ... .. . ... ... : ... .. 8 ... ... : ... .. 8 ... ... : ... .. 5 P80 ...
ROW 9F : ... .. A ... ... ... : ... .. 4 ... ... ... : ... .. . ... : ... .. 3 ... : ... .. . ... ... : ... .. 1 ... ... : ... .. 1 ... ... : ... .. 2 P81 ...
ROW A0 : ... .. . ... ... ... : ... .. . ... ... ... : ... .. . ... : ... .. 2 ... : ... .. . ... ... : ... .. . ... ... : ... .. . ... ... : ... .. . P83 ...
ROW A1 : ... .. . ... ... ... : ... .. . ... ... ... : --- .. . ... : ... .. 0 ... : ... .. . ... ... : ... .. . ... ... : ... .. . ... ... : ... .. . ... ...
ROW A2 : D-4 00 F ... ... ... : A#4 00 6 ... ... ... : E-2 00 . ... : E-# 00 8 ... : ... .. . ... ... : ... .. A ... ... : ... .. A ... ... : ... .. A P81 ...
ROW A3 : ... .. E ... ... ... : ... .. 5 ... ... ... : ... .. . ... : ... .. 6 ... : ... .. . ... ... : ... .. 9 ... ... : ... .. 9 ... ... : ... .. 8 P80 ...
ROW A4 : ... .. D ... ... ... : ... .. . ... ... ... : ... .. . ... : ... .. 3 ... : ... .. . ... ... : ... .. 8 ... ... : ... .. 8 ... ... : ... .. 5 P7E ...
ROW A5 : ... .. A ... ... ... : ... .. 4 ... ... ... : ... .. . ... : ... .. 1 ... : ... .. . ... ... : ... .. 1 ... ... : ... .. 1 ... ... : ... .. 2 P7D ...
ROW A6 : ... .. . ... ... ... : ... .. . ... ... ... : ... .. . ... : ... .. . ... : ... .. . ... ... : ... .. . ... ... : ... .. . ... ... : ... .. . ... ...
ROW A7 : ... .. . ... ... ... : ... .. . ... ... ... : --- .. . ... : ... .. 0 ... : ... .. . ... ... : ... .. . ... ... : ... .. . ... ... : ... .. . P80 ...
ROW A8 : C#4 00 F ... ... ... : E-4 00 6 ... ... ... : C-4 00 . ... : 1-# 00 F ... : ... .. . ... ... : ... .. A ... ... : ... .. A ... ... : ... .. A P81 ...
ROW A9 : ... .. E ... ... ... : ... .. 5 ... ... ... : D-3 00 . ... : ... .. C ... : ... .. . ... ... : ... .. 9 ... ... : ... .. 9 ... ... : ... .. 8 P83 ...
ROW AA : ... .. D ... ... ... : ... .. . ... ... ... : G-2 00 . ... : ... .. 6 ... : ... .. . ... ... : ... .. 8 ... ... : ... .. 8 ... ... : ... .. 5 ... ...
ROW AB : ... .. A ... ... ... : ... .. 4 ... ... ... : F#2 00 . ... : ... .. 3 ... : ... .. . ... ... : ... .. 1 ... ... : ... .. 1 ... ... : ... .. 2 P82 ...
ROW AC : ... .. . ... ... ... : ... .. . ... ... ... : C#2 00 . ... : ... .. 2 ... : ... .. . ... ... : ... .. . ... ... : ... .. . ... ... : ... .. . P80 ...
ROW AD : ... .. . ... ... ... : ... .. . ... ... ... : ... .. . ... : ... .. 0 ... : ... .. . ... ... : ... .. . ... ... : ... .. . ... ... : ... .. . P7E ...
ROW AE : ... .. . ... ... ... : D-4 00 6 ... ... ... : ... .. . ... : 9-# 00 8 ... : ... .. . ... ... : ... .. A ... ... : ... .. A ... ... : ... .. A P7D ...
ROW AF : ... .. . ... ... ... : ... .. 5 ... ... ... : ... .. . ... : ... .. 6 ... : ... .. . ... ... : ... .. 9 ... ... : ... .. 9 ... ... : ... .. 8 ... ...
ROW B0 : ... .. . ... ... ... : ... .. . ... ... ... : ... .. . ... : ... .. 3 ... : ... .. . ... ... : ... .. 8 ... ... : ... .. 8 ... ... : ... .. 5 P7F ...
ROW B1 : ... .. . ... ... ... : ... .. 4 ... ... ... : ... .. . ... : ... .. 1 ... : ... .. . ... ... : ... .. 1 ... ... : ... .. 1 ... ... : ... .. 2 P81 ...
ROW B2 : ... .. . ... ... ... : ... .. . ... ... ... : ... .. . ... : ... .. . ... : ... .. . ... ... : ... .. . ... ... : ... .. . ... ... : ... .. . P83 ...
ROW B3 : ... .. . ... ... ... : ... .. . ... ... ... : --- .. . ... : ... .. 0 ... : ... .. . ... ... : ... .. . ... ... : ... .. . ... ... : ... .. . ... ...
ROW B4 : ... .. . ... ... ... : C#4 00 6 ... ... ... : C#3 00 . ... : B-# 00 F ... : ... .. . ... ... : ... .. A ... ... : ... .. A ... ... : ... .. A P82 ...
ROW B5 : ... .. . ... ... ... : ... .. 5 ... ... ... : ... .. . ... : ... .. C ... : ... .. . ... ... : ... .. 9 ... ... : ... .. 9 ... ... : ... .. 8 P80 ...
ROW B6 : ... .. . ... ... ... : ... .. . ... ... ... : ... .. . ... : ... .. 6 ... : ... .. . ... ... : ... .. 8 ... ... : ... .. 8 ... ... : ... .. 5 P7E ...
ROW B7 : ... .. . ... ... ... : ... .. 4 ... ... ... : ... .. . ... : ... .. 3 ... : ... .. . ... ... : ... .. 1 ... ... : ... .. 1 ... ... : ... .. 2 P7D ...
ROW B8 : ... .. . ... ... ... : ... .. . ... ... ... : ... .. . ... : ... .. 2 ... : ... .. . ... ... : ... .. . ... ... : ... .. . ... ... : ... .. . ... ...
ROW B9 : ... .. . ... ... ... : ... .. . ... ... ... : --- .. . ... : ... .. 0 ... : ... .. . ... ... : ... .. . ... ... : ... .. . ... ... : ... .. . P7F ...
ROW BA : ... .. . ... ... ... : ... .. . ... ... ... : C-3 00 . ... : 9-# 00 8 ... : ... .. . ... ... : ... .. A ... ... : ... .. A ... ... : ... .. A P80 ...
ROW BB : ... .. . ... ... ... : ... .. . ... ... ... : ... .. . ... : ... .. 6 ... : ... .. . ... ... : ... .. 9 ... ... : ... .. 9 ... ... : ... .. 8 P83 ...
ROW BC : ... .. . ... ... ... : ... .. . ... ... ... : ... .. . ... : ... .. 3 ... : ... .. . ... ... : ... .. 8 ... ... : ... .. 8 ... ... : ... .. 5 ... ...
ROW BD : ... .. . ... ... ... : ... .. . ... ... ... : ... .. . ... : ... .. 1 ... : ... .. . ... ... : ... .. 1 ... ... : ... .. 1 ... ... : ... .. 2 P82 ...
ROW BE : ... .. . ... ... ... : ... .. . ... ... ... : ... .. . ... : ... .. . ... : ... .. . ... ... : ... .. . ... ... : ... .. . ... ... : ... .. . P80 ...
ROW BF : ... .. . ... ... ... : ... .. . ... ... ... : --- .. . ... : ... .. 0 ... : ... .. . ... ... : ... .. . ... ... : ... .. . ... ... : ... .. . P7F ...
ROW C0 : ... .. . ... ... ... : ... .. . ... ... ... : B-3 00 . ... : ... .. D ... : ... .. . ... ... : D#3 01 A ... ... : G-3 01 A ... ... : C-3 01 A P7D ...
ROW C1 : D-4 00 A P7D ... ... : ... .. . ... ... ... : C#3 00 . ... : ... .. B ... : ... .. . ... ... : ... .. 9 ... ... : ... .. 9 ... ... : ... .. 8 ... ...
ROW C2 : D#4 00 A P7C ... ... : ... .. . ... ... ... : F#2 00 . ... : ... .. . ... : ... .. . ... ... : ... .. 8 ... ... : ... .. 8 ... ... : ... .. 5 P7F ...
ROW C3 : ... .. . P85 ... ... : ... .. . ... ... ... : F-2 00 . ... : ... .. A ... : ... .. . ... ... : ... .. 1 ... ... : ... .. 1 ... ... : ... .. 2 P80 ...
ROW C4 : E-4 00 A P84 ... ... : ... .. . ... ... ... : C-2 00 . ... : ... .. 8 ... : ... .. . ... ... : ... .. . ... ... : ... .. . ... ... : ... .. . P82 ...
ROW C5 : F-4 00 A P83 ... ... : ... .. . ... ... ... : ... .. . ... : ... .. 7 ... : ... .. . ... ... : ... .. . ... ... : ... .. . ... ... : ... .. . P83 ...
ROW C6 : F#4 00 A ... ... ... : ... .. . ... ... ... : C#2 00 . ... : 7-# 00 8 ... : ... .. . ... ... : ... .. A ... ... : ... .. A ... ... : ... .. A ... ...
ROW C7 : G-4 00 A P84 ... ... : ... .. . ... ... ... : ... .. . ... : ... .. 6 ... : ... .. . ... ... : ... .. 9 ... ... : ... .. 9 ... ... : ... .. 8 P80 ...
ROW C8 : G#4 00 A P80 ... ... : ... .. . ... ... ... : ... .. . ... : ... .. 3 ... : ... .. . ... ... : ... .. 8 ... ... : ... .. 8 ... ... : ... .. 5 P7F ...
ROW C9 : ... .. . ... ... ... : ... .. . ... ... ... : ... .. . ... : ... .. 1 ... : ... .. . ... ... : ... .. 1 ... ... : ... .. 1 ... ... : ... .. 2 P7D ...
ROW CA : ... .. . ... ... ... : ... .. . ... ... ... : ... .. . ... : ... .. . ... : ... .. . ... ... : ... .. . ... ... : ... .. . ... ... : ... .. . ... ...
ROW CB : ... .. . ... ... ... : ... .. . ... ... ... : --- .. . ... : ... .. 0 ... : ... .. . ... ... : ... .. . ... ... : ... .. . ... ... : ... .. . P7E ...
ROW CC : ... .. . P84 ... ... : ... .. . ... ... ... : E-3 00 . ... : A-# 00 F ... : ... .. . ... ... : ... .. A ... ... : ... .. A ... ... : ... .. A P80 ...
ROW CD : A-4 00 A P7E ... ... : D-4 00 4 P7D ... ... : ... .. . ... : ... .. C ... : ... .. . ... ... : ... .. 9 ... ... : ... .. 9 ... ... : ... .. 8 P82 ...
ROW CE : ... .. . P7D ... ... : D#4 00 4 P7C ... ... : ... .. . ... : ... .. 6 ... : ... .. . ... ... : ... .. 8 ... ... : ... .. 8 ... ... : ... .. 5 P83 ...
ROW CF : G#4 00 A P82 ... ... : ... .. . P85 ... ... : ... .. . ... : ... .. 3 ... : ... .. . ... ... : ... .. 1 ... ... : ... .. 1 ... ... : ... .. 2 ... ...
ROW D0 : ... .. . P7E ... ... : E-4 00 4 P84 ... ... : ... .. . ... : ... .. 2 ... : ... .. . ... ... : ... .. . ... ... : ... .. . ... ... : ... .. . P81 ...
ROW D1 : G-4 00 A P83 ... ... : F-4 00 4 P83 ... ... : --- .. . ... : ... .. 0 ... : ... .. . ... ... : ... .. . ... ... : ... .. . ... ... : ... .. . P7F ...
ROW D2 : ... .. . P82 ... ... : F#4 00 4 ... ... ... : G-1 00 . ... : E-# 00 8 ... : ... .. . ... ... : ... .. A ... ... : ... .. A ... ... : ... .. A P7D ...
ROW D3 : ... .. . P84 ... ... : G-4 00 4 P84 ... ... : ... .. . ... : ... .. 6 ... : ... .. . ... ... : ... .. 9 ... ... : ... .. 9 ... ... : ... .. 8 ... ...
ROW D4 : G#4 00 A P80 ... ... : G#4 00 4 P80 ... ... : ... .. . ... : ... .. 3 ... : ... .. . ... ... : ... .. 8 ... ... : ... .. 8 ... ... : ... .. 5 P7E ...
ROW D5 : ... .. . P83 ... ... : ... .. . ... ... ... : ... .. . ... : ... .. 1 ... : ... .. . ... ... : ... .. 1 ... ... : ... .. 1 ... ... : ... .. 2 P80 ...
ROW D6 : A-4 00 A P7E ... ... : ... .. . ... ... ... : ... .. . ... : ... .. . ... : ... .. . ... ... : ... .. . ... ... : ... .. . ... ... : ... .. . P82 ...
ROW D7 : ... .. . ... ... ... : ... .. . ... ... ... : --- .. . ... : ... .. 0 ... : ... .. . ... ... : ... .. . ... ... : ... .. . ... ... : ... .. . P83 ...
ROW D8 : G#4 00 A P82 ... ... : ... .. . P84 ... ... : C-3 00 . ... : 1-# 00 F ... : ... .. . ... ... : E-3 01 A ... ... : G#3 01 A ... ... : C#3 01 A ... ...
ROW D9 : ... .. . P7F ... ... : A-4 00 4 P7E ... ... : D-2 00 . ... : ... .. C ... : ... .. . ... ... : ... .. 9 ... ... : ... .. 9 ... ... : ... .. 8 P81 ...
ROW DA : G-4 00 A P83 ... ... : ... .. . P7D ... ... : G-1 00 . ... : ... .. 6 ... : ... .. . ... ... : ... .. 8 ... ... : ... .. 8 ... ... : ... .. 5 P80 ...
ROW DB : ... .. . P82 ... ... : G#4 00 4 P82 ... ... : F#1 00 . ... : ... .. 3 ... : ... .. . ... ... : ... .. 1 ... ... : ... .. 1 ... ... : ... .. 2 P7D ...
ROW DC : ... .. . P84 ... ... : ... .. . P7E ... ... : C#1 00 . ... : ... .. 2 ... : ... .. . ... ... : ... .. . ... ... : ... .. . ... ... : ... .. . ... ...
ROW DD : G#4 00 A P80 ... ... : G-4 00 4 P83 ... ... : ... .. . ... : ... .. 0 ... : ... .. . ... ... : ... .. . ... ... : ... .. . ... ... : ... .. . P7E ...
ROW DE : ... .. . P83 ... ... : ... .. . P82 ... ... : C#2 00 . ... : 9-# 00 8 ... : ... .. . ... ... : ... .. A ... ... : ... .. A ... ... : ... .. A P80 ...
ROW DF : A-4 00 A P7E ... ... : ... .. . P84 ... ... : ... .. . ... : ... .. 6 ... : ... .. . ... ... : ... .. 9 ... ... : ... .. 9 ... ... : ... .. 8 P81 ...
ROW E0 : ... .. . ... ... ... : G#4 00 4 P80 ... ... : ... .. . ... : ... .. 3 ... : ... .. . ... ... : ... .. 8 ... ... : ... .. 8 ... ... : ... .. 5 P83 ...
ROW E1 : G#4 00 A P83 ... ... : ... .. . P83 ... ... : ... .. . ... : ... .. 1 ... : ... .. . ... ... : ... .. 1 ... ... : ... .. 1 ... ... : ... .. 2 ... ...
ROW E2 : ... .. . P80 ... ... : A-4 00 4 P7E ... ... : ... .. . ... : ... .. . ... : ... .. . ... ... : ... .. . ... ... : ... .. . ... ... : ... .. . P81 ...
ROW E3 : G-4 00 A P84 ... ... : ... .. . ... ... ... : --- .. . ... : ... .. 0 ... : ... .. . ... ... : ... .. . ... ... : ... .. . ... ... : ... .. . P80 ...
ROW E4 : ... .. . P82 ... ... : G#4 00 4 P82 ... ... : C#3 00 . ... : 1-# 00 F ... : ... .. . ... ... : ... .. A ... ... : ... .. A ... ... : ... .. A P7E ...
ROW E5 : ... .. . P83 ... ... : ... .. . P7F ... ... : ... .. . ... : ... .. C ... : ... .. . ... ... : ... .. 9 ... ... : ... .. 9 ... ... : ... .. 8 P7D ...
ROW E6 : G#4 00 A P7F ... ... : G-4 00 4 P83 ... ... : ... .. . ... : ... .. 6 ... : ... .. . ... ... : ... .. 8 ... ... : ... .. 8 ... ... : ... .. 5 ... ...
ROW E7 : ... .. . P82 ... ... : ... .. . P82 ... ... : ... .. . ... : ... .. 3 ... : ... .. . ... ... : ... .. 1 ... ... : ... .. 1 ... ... : ... .. 2 P80 ...
ROW E8 : A-4 00 A P7E ... ... : ... .. . P84 ... ... : ... .. . ... : ... .. 2 ... : ... .. . ... ... : ... .. . ... ... : ... .. . ... ... : ... .. . P81 ...
ROW E9 : ... .. . ... ... ... : G#4 00 4 P80 ... ... : --- .. . ... : ... .. 0 ... : ... .. . ... ... : ... .. . ... ... : ... .. . ... ... : ... .. . P83 ...
ROW EA : G#4 00 A P83 ... ... : ... .. . P83 ... ... : C#2 00 . ... : 9-# 00 8 ... : ... .. . ... ... : ... .. A ... ... : ... .. A ... ... : ... .. A ... ...
ROW EB : ... .. . P80 ... ... : A-4 00 4 P7E ... ... : ... .. . ... : ... .. 6 ... : ... .. . ... ... : ... .. 9 ... ... : ... .. 9 ... ... : ... .. 8 P82 ...
ROW EC : G-4 00 A P84 ... ... : ... .. . ... ... ... : ... .. . ... : ... .. 3 ... : ... .. . ... ... : ... .. 8 ... ... : ... .. 8 ... ... : ... .. 5 P80 ...
ROW ED : ... .. . P82 ... ... : G#4 00 4 P83 ... ... : ... .. . ... : ... .. 1 ... : ... .. . ... ... : ... .. 1 ... ... : ... .. 1 ... ... : ... .. 2 P7E ...
ROW EE : ... .. . P83 ... ... : ... .. . P80 ... ... : ... .. . ... : ... .. . ... : ... .. . ... ... : ... .. . ... ... : ... .. . ... ... : ... .. . P7D ...
ROW EF : G#4 00 A P7E ... ... : G-4 00 4 P84 ... ... : --- .. . ... : ... .. 0 ... : ... .. . ... ... : ... .. . ... ... : ... .. . ... ... : ... .. . ... ...
ROW F0 : ... .. . P82 ... ... : ... .. . P82 ... ... : C#4 00 . ... : ... .. D ... : ... .. . ... ... : F-3 01 A ... ... : A-3 01 A ... ... : D-3 01 A P7F ...
ROW F1 : A-4 00 A P7D ... ... : ... .. . P83 ... ... : D#3 00 . ... : ... .. B ... : ... .. . ... ... : ... .. 9 ... ... : ... .. 9 ... ... : ... .. 8 P81 ...
ROW F2 : ... .. . P7E ... ... : G#4 00 4 P7F ... ... : G#2 00 . ... : ... .. . ... : ... .. . ... ... : ... .. 8 ... ... : ... .. 8 ... ... : ... .. 5 P83 ...
ROW F3 : G#4 00 A P84 ... ... : ... .. . P82 ... ... : G-2 00 . ... : ... .. A ... : ... .. . ... ... : ... .. 1 ... ... : ... .. 1 ... ... : ... .. 2 ... ...
ROW F4 : ... .. . P80 ... ... : A-4 00 4 P7E ... ... : D-2 00 . ... : ... .. 8 ... : ... .. . ... ... : ... .. . ... ... : ... .. . ... ... : ... .. . P82 ...
ROW F5 : ... .. . P7D ... ... : ... .. . ... ... ... : ... .. . ... : ... .. 7 ... : ... .. . ... ... : ... .. . ... ... : ... .. . ... ... : ... .. . P80 ...
ROW F6 : G-4 00 A P82 ... ... : G#4 00 4 P83 ... ... : C#2 00 . ... : 7-# 00 8 ... : ... .. . ... ... : ... .. A ... ... : ... .. A ... ... : ... .. A P7E ...
ROW F7 : ... .. . ... ... ... : ... .. . P80 ... ... : ... .. . ... : ... .. 6 ... : ... .. . ... ... : ... .. 9 ... ... : ... .. 9 ... ... : ... .. 8 P7D ...
ROW F8 : G#4 00 A P7E ... ... : G-4 00 4 P84 ... ... : ... .. . ... : ... .. 3 ... : ... .. . ... ... : ... .. 8 ... ... : ... .. 8 ... ... : ... .. 5 ... ...
ROW F9 : ... .. . P81 ... ... : ... .. . P82 ... ... : ... .. . ... : ... .. 1 ... : ... .. . ... ... : ... .. 1 ... ... : ... .. 1 ... ... : ... .. 2 P7F ...
ROW FA : A-4 00 A P7D ... ... : ... .. . P83 ... ... : ... .. . ... : ... .. . ... : ... .. . ... ... : ... .. . ... ... : ... .. . ... ... : ... .. . P80 ...
ROW FB : ... .. . P7E ... ... : G#4 00 4 P7E ... ... : --- .. . ... : ... .. 0 ... : ... .. . ... ... : ... .. . ... ... : ... .. . ... ... : ... .. . P83 ...
ROW FC : G#4 00 A P84 ... ... : ... .. . P82 ... ... : B-2 00 . ... : A-# 00 F ... : ... .. . ... ... : ... .. A ... ... : ... .. A ... ... : ... .. A ... ...
ROW FD : ... .. . P80 ... ... : A-4 00 4 P7D ... ... : ... .. . ... : ... .. C ... : ... .. . ... ... : ... .. 9 ... ... : ... .. 9 ... ... : ... .. 8 P82 ...
ROW FE : ... .. . P7D ... ... : ... .. . P7E ... ... : ... .. . ... : ... .. 6 ... : ... .. . ... ... : ... .. 8 ... ... : ... .. 8 ... ... : ... .. 5 P80 ...
ROW FF : G-4 00 A P82 ... ... : G#4 00 4 P84 ... ... : ... .. . ... : ... .. 3 ... : ... .. . ... ... : ... .. 1 ... ... : ... .. 1 ... ... : ... .. 2 P7F ...

PATTERN 16
ROW 00 : ... .. . ... ... ... : ... .. . P80 ... ... : ... .. . ... : ... .. 2 ... : ... .. . ... ... : ... .. . ... ... : ... .. . ... ... : ... .. . P7D ...
ROW 01 : G#4 00 A P7D ... ... : ... .. . P7D ... ... : --- .. . ... : ... .. 0 ... : ... .. . ... ... : ... .. . ... ... : ... .. . ... ... : ... .. . ... ...
ROW 02 : ... .. . P80 ... ... : G-4 00 4 P82 ... ... : C#2 00 . ... : E-# 00 8 ... : ... .. . ... ... : ... .. A ... ... : ... .. A ... ... : ... .. A P7F ...
ROW 03 : ... .. . P84 ... ... : ... .. . ... ... ... : ... .. . ... : ... .. 6 ... : ... .. . ... ... : ... .. 9 ... ... : ... .. 9 ... ... : ... .. 8 P80 ...
ROW 04 : A-4 00 A P7E ... ... : G#4 00 4 P7E ... ... : ... .. . ... : ... .. 3 ... : ... .. . ... ... : ... .. 8 ... ... : ... .. 8 ... ... : ... .. 5 P82 ...
ROW 05 : ... .. . P7D ... ... : ... .. . P81 ... ... : ... .. . ... : ... .. 1 ... : ... .. . ... ... : ... .. 1 ... ... : ... .. 1 ... ... : ... .. 2 P83 ...
ROW 06 : G#4 00 A P81 ... ... : A-4 00 4 P7D ... ... : ... .. . ... : ... .. . ... : ... .. . ... ... : ... .. . ... ... : ... .. . ... ... : ... .. . ... ...
ROW 07 : ... .. . P7E ... ... : ... .. . P7E ... ... : --- .. . ... : ... .. 0 ... : ... .. . ... ... : ... .. . ... ... : ... .. . ... ... : ... .. . P80 ...
ROW 08 : C#5 00 F P80 ... ... : G#4 00 4 P84 ... ... : C-4 00 . ... : 1-# 00 F ... : ... .. . ... ... : E-3 01 A ... ... : G#3 01 A ... ... : C#3 01 A P7F ...
ROW 09 : ... .. E ... ... ... : ... .. . P80 ... ... : D-3 00 . ... : ... .. C ... : ... .. . ... ... : ... .. 9 ... ... : ... .. 9 ... ... : ... .. 8 P7D ...
ROW 0A : ... .. D ... ... ... : ... .. . P7D ... ... : G-2 00 . ... : ... .. 6 ... : ... .. . ... ... : ... .. 8 ... ... : ... .. 8 ... ... : ... .. 5 ... ...
ROW 0B : ... .. A ... ... ... : G-4 00 4 P82 ... ... : F#2 00 . ... : ... .. 3 ... : ... .. . ... ... : ... .. 1 ... ... : ... .. 1 ... ... : ... .. 2 P7E ...
ROW 0C : ... .. . ... ... ... : ... .. . ... ... ... : C#2 00 . ... : ... .. 2 ... : ... .. . ... ... : ... .. . ... ... : ... .. . ... ... : ... .. . P80 ...
ROW 0D : ... .. . ... ... ... : G#4 00 4 P7D ... ... : ... .. . ... : ... .. 0 ... : ... .. . ... ... : ... .. . ... ... : ... .. . ... ... : ... .. . P82 ...
ROW 0E : ... .. . ... ... ... : ... .. . P80 ... ... : ... .. . ... : 9-# 00 8 ... : ... .. . ... ... : ... .. A ... ... : ... .. A ... ... : ... .. A P83 ...
ROW 0F : ... .. . ... ... ... : ... .. . P84 ... ... : ... .. . ... : ... .. 6 ... : ... .. . ... ... : ... .. 9 ... ... : ... .. 9 ... ... : ... .. 8 ... ...
ROW 10 : ... .. . ... ... ... : A-4 00 4 P7E ... ... : ... .. . ... : ... .. 3 ... : ... .. . ... ... : ... .. 8 ... ... : ... .. 8 ... ... : ... .. 5 P81 ...
ROW 11 : ... .. . ... ... ... : ... .. . P7D ... ... : ... .. . ... : ... .. 1 ... : ... .. . ... ... : ... .. 1 ... ... : ... .. 1 ... ... : ... .. 2 P7F ...
ROW 12 : ... .. . ... ... ... : G#4 00 4 P81 ... ... : ... .. . ... : ... .. . ... : ... .. . ... ... : ... .. . ... ... : ... .. . ... ... : ... .. . P7D ...
ROW 13 : ... .. . ... ... ... : ... .. . P7E ... ... : --- .. . ... : ... .. 0 ... : ... .. . ... ... : ... .. . ... ... : ... .. . ... ... : ... .. . ... ...
ROW 14 : ... .. . ... ... ... : C#5 00 6 P80 ... ... : C#3 00 . ... : B-# 00 F ... : ... .. . ... ... : ... .. A ... ... : ... .. A ... ... : ... .. A P7E ...
ROW 15 : ... .. . ... ... ... : ... .. 5 ... ... ... : ... .. . ... : ... .. C ... : ... .. . ... ... : ... .. 9 ... ... : ... .. 9 ... ... : ... .. 8 P80 ...
ROW 16 : ... .. . ... ... ... : ... .. . ... ... ... : ... .. . ... : ... .. 6 ... : ... .. . ... ... : ... .. 8 ... ... : ... .. 8 ... ... : ... .. 5 P82 ...
ROW 17 : ... .. . ... ... ... : ... .. 4 ... ... ... : ... .. . ... : ... .. 3 ... : ... .. . ... ... : ... .. 1 ... ... : ... .. 1 ... ... : ... .. 2 P83 ...
ROW 18 : ... .. . ... ... ... : ... .. . ... ... ... : ... .. . ... : ... .. 2 ... : ... .. . ... ... : ... .. . ... ... : ... .. . ... ... : ... .. . ... ...
ROW 19 : ... .. . ... ... ... : ... .. . ... ... ... : --- .. . ... : ... .. 0 ... : ... .. . ... ... : ... .. . ... ... : ... .. . ... ... : ... .. . P81 ...
ROW 1A : ... .. . ... ... ... : ... .. . ... ... ... : C-3 00 . ... : 9-# 00 8 ... : ... .. . ... ... : ... .. A ... ... : ... .. A ... ... : ... .. A P80 ...
ROW 1B : ... .. . ... ... ... : ... .. . ... ... ... : ... .. . ... : ... .. 6 ... : ... .. . ... ... : ... .. 9 ... ... : ... .. 9 ... ... : ... .. 8 P7D ...
ROW 1C : ... .. . ... ... ... : ... .. . ... ... ... : ... .. . ... : ... .. 3 ... : ... .. . ... ... : ... .. 8 ... ... : ... .. 8 ... ... : ... .. 5 ... ...
ROW 1D : ... .. . ... ... ... : ... .. . ... ... ... : ... .. . ... : ... .. 1 ... : ... .. . ... ... : ... .. 1 ... ... : ... .. 1 ... ... : ... .. 2 P7E ...
ROW 1E : ... .. . ... ... ... : ... .. . ... ... ... : ... .. . ... : ... .. . ... : ... .. . ... ... : ... .. . ... ... : ... .. . ... ... : ... .. . P80 ...
ROW 1F : ... .. . ... ... ... : ... .. . ... ... ... : --- .. . ... : ... .. 0 ... : ... .. . ... ... : ... .. . ... ... : ... .. . ... ... : ... .. . P81 ...
ROW 20 : ... .. . ... ... ... : ... .. . ... ... ... : B-3 00 . ... : ... .. D ... : ... .. . ... ... : D#3 01 A ... ... : G-3 01 A ... ... : C-3 01 A P83 ...
ROW 21 : D#5 00 A P7E ... ... : ... .. . ... ... ... : C#3 00 . ... : ... .. B ... : ... .. . ... ... : ... .. 9 ... ... : ... .. 9 ... ... : ... .. 8 ... ...
ROW 22 : E-5 00 A P82 ... ... : ... .. . ... ... ... : F#2 00 . ... : ... .. . ... : ... .. . ... ... : ... .. 8 ... ... : ... .. 8 ... ... : ... .. 5 P81 ...
ROW 23 : F#5 00 A ... ... ... : ... .. . ... ... ... : F-2 00 . ... : ... .. A ... : ... .. . ... ... : ... .. 1 ... ... : ... .. 1 ... ... : ... .. 2 P80 ...
ROW 24 : G#5 00 A P80 ... ... : ... .. . ... ... ... : C-2 00 . ... : ... .. 8 ... : ... .. . ... ... : ... .. . ... ... : ... .. . ... ... : ... .. . P7E ...
ROW 25 : ... .. . ... ... ... : ... .. . ... ... ... : ... .. . ... : ... .. 7 ... : ... .. . ... ... : ... .. . ... ... : ... .. . ... ... : ... .. . P7D ...
ROW 26 : ... .. . ... ... ... : ... .. . ... ... ... : C#2 00 . ... : 7-# 00 8 ... : ... .. . ... ... : ... .. A ... ... : ... .. A ... ... : ... .. A ... ...
ROW 27 : ... .. . ... ... ... : ... .. . ... ... ... : ... .. . ... : ... .. 6 ... : ... .. . ... ... : ... .. 9 ... ... : ... .. 9 ... ... : ... .. 8 P80 ...
ROW 28 : ... .. . ... ... ... : ... .. . ... ... ... : ... .. . ... : ... .. 3 ... : ... .. . ... ... : ... .. 8 ... ... : ... .. 8 ... ... : ... .. 5 P81 ...
ROW 29 : ... .. . ... ... ... : ... .. . ... ... ... : ... .. . ... : ... .. 1 ... : ... .. . ... ... : ... .. 1 ... ... : ... .. 1 ... ... : ... .. 2 P83 ...
ROW 2A : ... .. . ... ... ... : ... .. . ... ... ... : ... .. . ... : ... .. . ... : ... .. . ... ... : ... .. . ... ... : ... .. . ... ... : ... .. . ... ...
ROW 2B : ... .. . ... ... ... : ... .. . ... ... ... : --- .. . ... : ... .. 0 ... : ... .. . ... ... : ... .. . ... ... : ... .. . ... ... : ... .. . P82 ...
ROW 2C : ... .. . ... ... ... : ... .. . ... ... ... : E-3 00 . ... : A-# 00 F ... : ... .. . ... ... : ... .. A ... ... : ... .. A ... ... : ... .. A P80 ...
ROW 2D : ... .. . ... ... ... : D#5 00 4 P7E ... ... : ... .. . ... : ... .. C ... : ... .. . ... ... : ... .. 9 ... ... : ... .. 9 ... ... : ... .. 8 P7E ...
ROW 2E : ... .. . ... ... ... : E-5 00 4 P82 ... ... : ... .. . ... : ... .. 6 ... : ... .. . ... ... : ... .. 8 ... ... : ... .. 8 ... ... : ... .. 5 P7D ...
ROW 2F : ... .. . ... ... ... : F#5 00 4 ... ... ... : ... .. . ... : ... .. 3 ... : ... .. . ... ... : ... .. 1 ... ... : ... .. 1 ... ... : ... .. 2 ... ...
ROW 30 : ... .. . ... ... ... : G#5 00 4 P80 ... ... : ... .. . ... : ... .. 2 ... : ... .. . ... ... : ... .. . ... ... : ... .. . ... ... : ... .. . P7F ...
ROW 31 : ... .. . ... ... ... : ... .. . ... ... ... : --- .. . ... : ... .. 0 ... : ... .. . ... ... : ... .. . ... ... : ... .. . ... ... : ... .. . P81 ...
ROW 32 : ... .. . ... ... ... : ... .. . ... ... ... : G-1 00 . ... : E-# 00 8 ... : ... .. . ... ... : ... .. A ... ... : ... .. A ... ... : ... .. A P83 ...
ROW 33 : ... .. . ... ... ... : ... .. . ... ... ... : ... .. . ... : ... .. 6 ... : ... .. . ... ... : ... .. 9 ... ... : ... .. 9 ... ... : ... .. 8 ... ...
ROW 34 : ... .. . ... ... ... : ... .. . ... ... ... : ... .. . ... : ... .. 3 ... : ... .. . ... ... : ... .. 8 ... ... : ... .. 8 ... ... : ... .. 5 P82 ...
ROW 35 : A-5 00 A P7F ... ... : ... .. . ... ... ... : ... .. . ... : ... .. 1 ... : ... .. . ... ... : ... .. 1 ... ... : ... .. 1 ... ... : ... .. 2 P80 ...
ROW 36 : ... .. . P80 ... ... : ... .. . ... ... ... : ... .. . ... : ... .. . ... : ... .. . ... ... : ... .. . ... ... : ... .. . ... ... : ... .. . P7E ...
ROW 37 : ... .. . ... ... ... : ... .. . ... ... ... : --- .. . ... : ... .. 0 ... : ... .. . ... ... : ... .. . ... ... : ... .. . ... ... : ... .. . P7D ...
ROW 38 : G#5 00 A P81 ... ... : ... .. . ... ... ... : C-3 00 . ... : 1-# 00 F ... : ... .. . ... ... : D-3 01 A ... ... : F#3 01 A ... ... : B-2 01 A ... ...
ROW 39 : ... .. . P7F ... ... : ... .. . ... ... ... : D-2 00 . ... : ... .. C ... : ... .. . ... ... : ... .. 9 ... ... : ... .. 9 ... ... : ... .. 8 P7F ...
ROW 3A : G-5 00 A P81 ... ... : ... .. . ... ... ... : G-1 00 . ... : ... .. 6 ... : ... .. . ... ... : ... .. 8 ... ... : ... .. 8 ... ... : ... .. 5 P80 ...
ROW 3B : ... .. . ... ... ... : ... .. . ... ... ... : F#1 00 . ... : ... .. 3 ... : ... .. . ... ... : ... .. 1 ... ... : ... .. 1 ... ... : ... .. 2 P83 ...
ROW 3C : ... .. . P82 ... ... : ... .. . ... ... ... : C#1 00 . ... : ... .. 2 ... : ... .. . ... ... : ... .. . ... ... : ... .. . ... ... : ... .. . ... ...
ROW 3D : G#5 00 A P80 ... ... : ... .. . ... ... ... : ... .. . ... : ... .. 0 ... : ... .. . ... ... : ... .. . ... ... : ... .. . ... ... : ... .. . P82 ...
ROW 3E : A-5 00 A P7F ... ... : ... .. . ... ... ... : C#2 00 . ... : 9-# 00 8 ... : ... .. . ... ... : ... .. A ... ... : ... .. A ... ... : ... .. A P80 ...
ROW 3F : ... .. . P80 ... ... : ... .. . ... ... ... : ... .. . ... : ... .. 6 ... : ... .. . ... ... : ... .. 9 ... ... : ... .. 9 ... ... : ... .. 8 P7F ...
ROW 40 : ... .. . ... ... ... : ... .. . ... ... ... : ... .. . ... : ... .. 3 ... : ... .. . ... ... : ... .. 8 ... ... : ... .. 8 ... ... : ... .. 5 P7D ...
ROW 41 : G#5 00 A P81 ... ... : A-5 00 4 P7F ... ... : ... .. . ... : ... .. 1 ... : ... .. . ... ... : ... .. 1 ... ... : ... .. 1 ... ... : ... .. 2 ... ...
ROW 42 : ... .. . P80 ... ... : ... .. . P80 ... ... : ... .. . ... : ... .. . ... : ... .. . ... ... : ... .. . ... ... : ... .. . ... ... : ... .. . P7F ...
ROW 43 : G-5 00 A P81 ... ... : ... .. . ... ... ... : --- .. . ... : ... .. 0 ... : ... .. . ... ... : ... .. . ... ... : ... .. . ... ... : ... .. . P80 ...
ROW 44 : ... .. . ... ... ... : G#5 00 4 P81 ... ... : C#3 00 . ... : 1-# 00 F ... : ... .. . ... ... : ... .. A ... ... : ... .. A ... ... : ... .. A P82 ...
ROW 45 : ... .. . P82 ... ... : ... .. . P7F ... ... : ... .. . ... : ... .. C ... : ... .. . ... ... : ... .. 9 ... ... : ... .. 9 ... ... : ... .. 8 P83 ...
ROW 46 : G#5 00 A P80 ... ... : G-5 00 4 P81 ... ... : ... .. . ... : ... .. 6 ... : ... .. . ... ... : ... .. 8 ... ... : ... .. 8 ... ... : ... .. 5 ... ...
ROW 47 : ... .. . P81 ... ... : ... .. . ... ... ... : ... .. . ... : ... .. 3 ... : ... .. . ... ... : ... .. 1 ... ... : ... .. 1 ... ... : ... .. 2 P80 ...
ROW 48 : A-5 00 A P80 ... ... : ... .. . P82 ... ... : ... .. . ... : ... .. 2 ... : ... .. . ... ... : ... .. . ... ... : ... .. . ... ... : ... .. . P7F ...
ROW 49 : ... .. . ... ... ... : G#5 00 4 P80 ... ... : --- .. . ... : ... .. 0 ... : ... .. . ... ... : ... .. . ... ... : ... .. . ... ... : ... .. . P7D ...
ROW 4A : G#5 00 A P81 ... ... : A-5 00 4 P7F ... ... : C#2 00 . ... : 9-# 00 8 ... : ... .. . ... ... : ... .. A ... ... : ... .. A ... ... : ... .. A ... ...
ROW 4B : ... .. . P80 ... ... : ... .. . P80 ... ... : ... .. . ... : ... .. 6 ... : ... .. . ... ... : ... .. 9 ... ... : ... .. 9 ... ... : ... .. 8 P7E ...
ROW 4C : G-5 00 A P82 ... ... : ... .. . ... ... ... : ... .. . ... : ... .. 3 ... : ... .. . ... ... : ... .. 8 ... ... : ... .. 8 ... ... : ... .. 5 P80 ...
ROW 4D : ... .. . P81 ... ... : G#5 00 4 P81 ... ... : ... .. . ... : ... .. 1 ... : ... .. . ... ... : ... .. 1 ... ... : ... .. 1 ... ... : ... .. 2 P82 ...
ROW 4E : ... .. . ... ... ... : ... .. . P80 ... ... : ... .. . ... : ... .. . ... : ... .. . ... ... : ... .. . ... ... : ... .. . ... ... : ... .. . P83 ...
ROW 4F : G#5 00 A P80 ... ... : G-5 00 4 P81 ... ... : --- .. . ... : ... .. 0 ... : ... .. . ... ... : ... .. . ... ... : ... .. . ... ... : ... .. . ... ...
ROW 50 : ... .. . P81 ... ... : ... .. . ... ... ... : C#4 00 . ... : ... .. D ... : ... .. . ... ... : C#3 01 A ... ... : F-3 01 A ... ... : A#2 01 A P81 ...
ROW 51 : A-5 00 A P80 ... ... : ... .. . P82 ... ... : D#3 00 . ... : ... .. B ... : ... .. . ... ... : ... .. 9 ... ... : ... .. 9 ... ... : ... .. 8 P7F ...
ROW 52 : ... .. . ... ... ... : G#5 00 4 P80 ... ... : G#2 00 . ... : ... .. . ... : ... .. . ... ... : ... .. 8 ... ... : ... .. 8 ... ... : ... .. 5 P7D ...
ROW 53 : ... .. . P7F ... ... : ... .. . P81 ... ... : G-2 00 . ... : ... .. A ... : ... .. . ... ... : ... .. 1 ... ... : ... .. 1 ... ... : ... .. 2 ... ...
ROW 54 : G#5 00 2 P80 ... ... : A-5 00 4 P80 ... ... : D-2 00 . ... : ... .. 8 ... : ... .. . ... ... : ... .. . ... ... : ... .. . ... ... : ... .. . P7E ...
ROW 55 : G-5 00 2 P82 ... ... : ... .. . ... ... ... : ... .. . ... : ... .. 7 ... : ... .. . ... ... : ... .. . ... ... : ... .. . ... ... : ... .. . P80 ...
ROW 56 : ... .. . P81 ... ... : G#5 00 4 P81 ... ... : C#2 00 . ... : 7-# 00 8 ... : ... .. . ... ... : ... .. A ... ... : ... .. A ... ... : ... .. A P82 ...
ROW 57 : ... .. 1 ... ... ... : ... .. . P80 ... ... : ... .. . ... : ... .. 6 ... : ... .. . ... ... : ... .. 9 ... ... : ... .. 9 ... ... : ... .. 8 P83 ...
ROW 58 : G#5 00 1 P7F ... ... : G-5 00 4 P82 ... ... : ... .. . ... : ... .. 3 ... : ... .. . ... ... : ... .. 8 ... ... : ... .. 8 ... ... : ... .. 5 ... ...
ROW 59 : ... .. . P81 ... ... : ... .. . P81 ... ... : ... .. . ... : ... .. 1 ... : ... .. . ... ... : ... .. 1 ... ... : ... .. 1 ... ... : ... .. 2 P81 ...
ROW 5A : ... .. 0 ... ... ... : ... .. . ... ... ... : ... .. . ... : ... .. . ... : ... .. . ... ... : ... .. . ... ... : ... .. . ... ... : ... .. . P80 ...
ROW 5B : ... .. . ... ... ... : G#5 00 4 P80 ... ... : --- .. . ... : ... .. 0 ... : ... .. . ... ... : ... .. . ... ... : ... .. . ... ... : ... .. . P7D ...
ROW 5C : ... .. . ... ... ... : ... .. . P81 ... ... : B-2 00 . ... : A-# 00 F ... : ... .. . ... ... : ... .. 6 ... ... : ... .. A ... ... : ... .. A ... ...
ROW 5D : ... .. . ... ... ... : A-5 00 4 P80 ... ... : ... .. . ... : ... .. C ... : ... .. . ... ... : ... .. . ... ... : ... .. 9 ... ... : ... .. 8 P7E ...
ROW 5E : ... .. . ... ... ... : ... .. . ... ... ... : ... .. . ... : ... .. 6 ... : ... .. . ... ... : ... .. 5 ... ... : ... .. 8 ... ... : ... .. 5 P80 ...
ROW 5F : ... .. . ... ... ... : ... .. . P7F ... ... : ... .. . ... : ... .. 3 ... : ... .. . ... ... : ... .. 1 ... ... : ... .. 1 ... ... : ... .. 2 P81 ...
ROW 60 : ... .. . ... ... ... : G#5 00 4 P80 ... ... : ... .. . ... : ... .. 2 ... : ... .. . ... ... : ... .. . ... ... : ... .. . ... ... : ... .. . P83 ...
ROW 61 : ... .. . ... ... ... : G-5 00 4 P82 ... ... : --- .. . ... : ... .. 0 ... : ... .. . ... ... : ... .. . ... ... : ... .. . ... ... : ... .. . ... ...
ROW 62 : ... .. . ... ... ... : ... .. . P81 ... ... : C#2 00 . ... : E-# 00 8 ... : ... .. . ... ... : ... .. 6 ... ... : ... .. A ... ... : ... .. A P81 ...
ROW 63 : ... .. . ... ... ... : ... .. . ... ... ... : ... .. . ... : ... .. 6 ... : ... .. . ... ... : ... .. . ... ... : ... .. 9 ... ... : ... .. 8 P80 ...
ROW 64 : ... .. . ... ... ... : G#5 00 4 P7F ... ... : ... .. . ... : ... .. 3 ... : ... .. . ... ... : ... .. 5 ... ... : ... .. 8 ... ... : ... .. 5 P7E ...
ROW 65 : ... .. . ... ... ... : ... .. . P81 V01 ... : ... .. . ... : ... .. 1 ... : ... .. . ... ... : ... .. 1 ... ... : ... .. 1 ... ... : ... .. 2 P7D ...
ROW 66 : ... .. . ... ... ... : A-5 00 4 P80 ... ... : ... .. . ... : ... .. . ... : ... .. . ... ... : ... .. . ... ... : ... .. . ... ... : ... .. . ... ...
ROW 67 : ... .. . ... ... ... : ... .. . ... ... ... : --- .. . ... : ... .. 0 ... : ... .. . ... ... : ... .. . ... ... : ... .. . ... ... : ... .. . P80 ...
ROW 68 : A-4 00 F P80 ... ... : C#5 00 F ... ... ... : G#4 00 . ... : 1-# 00 F ... : ... .. . ... ... : C#4 01 A ... ... : E-3 01 A ... ... : A-2 01 F P81 ...
ROW 69 : ... .. E ... ... ... : ... .. E ... ... ... : A#3 00 . ... : ... .. C ... : ... .. . ... ... : ... .. 9 ... ... : ... .. 9 ... ... : ... .. D P83 ...
ROW 6A : ... .. D ... ... ... : ... .. D ... ... ... : D#3 00 . ... : ... .. 6 ... : ... .. . ... ... : ... .. 8 ... ... : ... .. 8 ... ... : ... .. 8 ... ...
ROW 6B : ... .. A ... ... ... : ... .. A ... ... ... : D-3 00 . ... : ... .. 3 ... : ... .. . ... ... : ... .. 7 ... ... : ... .. 7 ... ... : ... .. . P82 ...
ROW 6C : ... .. . ... ... ... : ... .. 2 ... ... ... : A-2 00 . ... : ... .. 2 ... : ... .. . ... ... : ... .. . ... ... : ... .. . ... ... : ... .. . P80 ...
ROW 6D : ... .. . ... ... ... : ... .. . ... ... ... : ... .. . ... : ... .. 0 ... : ... .. . ... ... : ... .. 6 ... ... : ... .. 6 ... ... : ... .. . P7E ...
ROW 6E : D#4 00 8 ... ... ... : ... .. 8 ... ... ... : A#2 00 . ... : 9-# 00 8 ... : ... .. . ... ... : D#1 01 A ... ... : D#1 01 A ... ... : G-2 01 F P7D ...
ROW 6F : ... .. 7 ... ... ... : ... .. 7 ... ... ... : ... .. . ... : ... .. 6 ... : ... .. . ... ... : ... .. 9 ... ... : ... .. 9 ... ... : ... .. D ... ...
ROW 70 : ... .. 6 ... ... ... : ... .. 6 ... ... ... : ... .. . ... : ... .. 3 ... : ... .. . ... ... : ... .. 8 ... ... : ... .. 8 ... ... : ... .. 8 P7F ...
ROW 71 : ... .. 5 ... ... ... : ... .. 5 ... ... ... : ... .. . ... : ... .. 1 ... : ... .. . ... ... : ... .. 1 ... ... : ... .. 1 ... ... : ... .. 2 P81 ...
ROW 72 : ... .. . ... ... ... : ... .. 1 ... ... ... : ... .. . ... : ... .. . ... : ... .. . ... ... : ... .. . ... ... : ... .. . ... ... : ... .. . P83 ...
ROW 73 : ... .. . ... ... ... : ... .. . ... ... ... : --- .. . ... : ... .. 0 ... : ... .. . ... ... : ... .. . ... ... : ... .. . ... ... : ... .. . ... ...
ROW 74 : C#4 00 8 ... ... ... : C#4 00 4 ... ... ... : A-2 00 . ... : B-# 00 F ... : ... .. . ... ... : ... .. A ... ... : ... .. A ... ... : A-2 01 F P82 ...
ROW 75 : ... .. 7 ... ... ... : ... .. 3 ... ... ... : ... .. . ... : ... .. C ... : ... .. . ... ... : ... .. 9 ... ... : ... .. 9 ... ... : ... .. D P80 ...
ROW 76 : ... .. 6 ... ... ... : ... .. . ... ... ... : ... .. . ... : ... .. 6 ... : ... .. . ... ... : ... .. 8 ... ... : ... .. 8 ... ... : ... .. 8 P7E ...
ROW 77 : ... .. 5 ... ... ... : ... .. 2 ... ... ... : ... .. . ... : ... .. 3 ... : ... .. . ... ... : ... .. 1 ... ... : ... .. 1 ... ... : ... .. 2 P7D ...
ROW 78 : ... .. . ... ... ... : ... .. 1 ... ... ... : ... .. . ... : ... .. 2 ... : ... .. . ... ... : ... .. . ... ... : ... .. . ... ... : ... .. . ... ...
ROW 79 : ... .. . ... ... ... : ... .. . ... ... ... : --- .. . ... : ... .. 0 ... : ... .. . ... ... : ... .. . ... ... : ... .. . ... ... : ... .. . P7F ...
ROW 7A : A-4 00 F ... ... ... : C#5 00 F ... ... ... : A-1 00 . ... : 1-# 00 F ... : ... .. . ... ... : C#4 01 A ... ... : E-3 01 A ... ... : A-1 01 F P80 ...
ROW 7B : ... .. E ... ... ... : ... .. E ... ... ... : ... .. . ... : ... .. C ... : ... .. . ... ... : ... .. 9 ... ... : ... .. 9 ... ... : ... .. D P83 ...
ROW 7C : ... .. D ... ... ... : ... .. D ... ... ... : ... .. . ... : ... .. 6 ... : ... .. . ... ... : ... .. 8 ... ... : ... .. 8 ... ... : ... .. 8 ... ...
ROW 7D : ... .. A ... ... ... : ... .. A ... ... ... : ... .. . ... : ... .. 3 ... : ... .. . ... ... : ... .. 7 ... ... : ... .. 7 ... ... : ... .. . P82 ...
ROW 7E : ... .. . ... ... ... : ... .. 2 ... ... ... : ... .. . ... : ... .. 2 ... : ... .. . ... ... : ... .. . ... ... : ... .. . ... ... : ... .. . P80 ...
ROW 7F : ... .. . ... ... ... : ... .. . ... ... ... : --- .. . ... : ... .. 0 ... : ... .. . ... ... : ... .. 6 ... ... : ... .. 6 ... ... : ... .. . P7F ...
ROW 80 : D#4 00 8 ... ... ... : ... .. 8 ... ... ... : F#3 00 . ... : 9-# 00 8 ... : ... .. . ... ... : D#1 01 A ... ... : D#1 01 A ... ... : G-1 01 F P7D ...
ROW 81 : ... .. 7 ... ... ... : ... .. 7 ... ... ... : G#2 00 . ... : ... .. 6 ... : ... .. . ... ... : ... .. 9 ... ... : ... .. 9 ... ... : ... .. D ... ...
ROW 82 : ... .. 6 ... ... ... : ... .. 6 ... ... ... : C#2 00 . ... : ... .. 3 ... : ... .. . ... ... : ... .. 8 ... ... : ... .. 8 ... ... : ... .. 8 P7F ...
ROW 83 : ... .. 5 ... ... ... : ... .. 5 ... ... ... : C-2 00 . ... : ... .. 1 ... : ... .. . ... ... : ... .. 1 ... ... : ... .. 1 ... ... : ... .. 2 P80 ...
ROW 84 : ... .. . ... ... ... : ... .. 1 ... ... ... : G-1 00 . ... : ... .. . ... : ... .. . ... ... : ... .. . ... ... : ... .. . ... ... : ... .. . P82 ...
ROW 85 : ... .. . ... ... ... : ... .. . ... ... ... : ... .. . ... : ... .. 0 ... : ... .. . ... ... : ... .. . ... ... : ... .. . ... ... : ... .. . P83 ...
ROW 86 : C#4 00 8 ... ... ... : C#4 00 4 ... ... ... : A-1 00 . ... : B-# 00 F ... : ... .. . ... ... : ... .. A ... ... : ... .. A ... ... : A-1 01 F ... ...
ROW 87 : ... .. 7 ... ... ... : ... .. 3 ... ... ... : ... .. . ... : ... .. C ... : ... .. . ... ... : ... .. 9 ... ... : ... .. 9 ... ... : ... .. D P80 ...
ROW 88 : ... .. 6 ... ... ... : ... .. . ... ... ... : ... .. . ... : ... .. 6 ... : ... .. . ... ... : ... .. 8 ... ... : ... .. 8 ... ... : ... .. 8 P7F ...
ROW 89 : ... .. 5 ... ... ... : ... .. 2 ... ... ... : ... .. . ... : ... .. 3 ... : ... .. . ... ... : ... .. 1 ... ... : ... .. 1 ... ... : ... .. 2 P7D ...
ROW 8A : ... .. . ... ... ... : ... .. 1 ... ... ... : ... .. . ... : ... .. 2 ... : ... .. . ... ... : ... .. . ... ... : ... .. . ... ... : ... .. . ... ...
ROW 8B : ... .. . ... ... ... : ... .. . ... ... ... : --- .. . ... : ... .. 0 ... : ... .. . ... ... : ... .. . ... ... : ... .. . ... ... : ... .. . P7E ...
ROW 8C : A-4 00 F ... ... ... : C#5 00 F ... ... ... : A-2 00 . ... : 1-# 00 F ... : ... .. . ... ... : C#4 01 A ... ... : E-3 01 A ... ... : A-2 01 F P80 ...
ROW 8D : ... .. E ... ... ... : ... .. E ... ... ... : ... .. . ... : ... .. C ... : ... .. . ... ... : ... .. 9 ... ... : ... .. 9 ... ... : ... .. D P82 ...
ROW 8E : ... .. D ... ... ... : ... .. D ... ... ... : ... .. . ... : ... .. 6 ... : ... .. . ... ... : ... .. 8 ... ... : ... .. 8 ... ... : ... .. 8 P83 ...
ROW 8F : ... .. A ... ... ... : ... .. A ... ... ... : ... .. . ... : ... .. 3 ... : ... .. . ... ... : ... .. 7 ... ... : ... .. 7 ... ... : ... .. . ... ...
ROW 90 : ... .. . ... ... ... : ... .. 2 ... ... ... : ... .. . ... : ... .. 2 ... : ... .. . ... ... : ... .. . ... ... : ... .. . ... ... : ... .. . P81 ...
ROW 91 : ... .. . ... ... ... : ... .. . ... ... ... : --- .. . ... : ... .. 0 ... : ... .. . ... ... : ... .. 6 ... ... : ... .. 6 ... ... : ... .. . P7F ...
ROW 92 : C#4 00 8 ... ... ... : ... .. 8 ... ... ... : A#2 00 . ... : 9-# 00 8 ... : ... .. . ... ... : D#1 01 A ... ... : D#1 01 A ... ... : G-2 01 F P7D ...
ROW 93 : ... .. 7 ... ... ... : ... .. 7 ... ... ... : ... .. . ... : ... .. 6 ... : ... .. . ... ... : ... .. 9 ... ... : ... .. 9 ... ... : ... .. D ... ...
ROW 94 : ... .. 6 ... ... ... : ... .. 6 ... ... ... : ... .. . ... : ... .. 3 ... : ... .. . ... ... : ... .. 8 ... ... : ... .. 8 ... ... : ... .. 8 P7E ...
ROW 95 : ... .. 5 ... ... ... : ... .. 5 ... ... ... : ... .. . ... : ... .. 1 ... : ... .. . ... ... : ... .. 1 ... ... : ... .. 1 ... ... : ... .. 2 P80 ...
ROW 96 : ... .. . ... ... ... : ... .. 1 ... ... ... : ... .. . ... : ... .. . ... : ... .. . ... ... : ... .. . ... ... : ... .. . ... ... : ... .. . P82 ...
ROW 97 : ... .. . ... ... ... : ... .. . ... ... ... : --- .. . ... : ... .. 0 ... : ... .. . ... ... : ... .. . ... ... : ... .. . ... ... : ... .. . P83 ...
ROW 98 : B-3 00 8 ... ... ... : C#4 00 4 ... ... ... : G#4 00 . ... : B-# 00 F ... : ... .. . ... ... : ... .. A ... ... : ... .. A ... ... : A-2 01 F ... ...
ROW 99 : ... .. 7 ... ... ... : ... .. 3 ... ... ... : A#3 00 . ... : ... .. C ... : ... .. . ... ... : ... .. 9 ... ... : ... .. 9 ... ... : ... .. D P81 ...
ROW 9A : ... .. 6 ... ... ... : ... .. . ... ... ... : D#3 00 . ... : ... .. 6 ... : ... .. . ... ... : ... .. 8 ... ... : ... .. 8 ... ... : ... .. 8 P80 ...
ROW 9B : ... .. 5 ... ... ... : ... .. 2 ... ... ... : D-3 00 . ... : ... .. 3 ... : ... .. . ... ... : ... .. 1 ... ... : ... .. 1 ... ... : ... .. 2 P7D ...
ROW 9C : ... .. . ... ... ... : ... .. 1 ... ... ... : A-2 00 . ... : ... .. 2 ... : ... .. . ... ... : ... .. . ... ... : ... .. . ... ... : ... .. . ... ...
ROW 9D : ... .. . ... ... ... : ... .. . ... ... ... : ... .. . ... : ... .. 0 ... : ... .. . ... ... : ... .. . ... ... : ... .. . ... ... : ... .. . P7E ...
ROW 9E : G-3 00 8 ... ... ... : ... .. 8 ... ... ... : A-1 00 . ... : 9-# 00 8 ... : ... .. . ... ... : ... .. A ... ... : ... .. A ... ... : A-1 01 F P80 ...
ROW 9F : ... .. 7 ... ... ... : ... .. 7 ... ... ... : ... .. . ... : ... .. 6 ... : ... .. . ... ... : ... .. 9 ... ... : ... .. 9 ... ... : ... .. D P81 ...
ROW A0 : ... .. 6 ... ... ... : ... .. 6 ... ... ... : ... .. . ... : ... .. 3 ... : ... .. . ... ... : ... .. 8 ... ... : ... .. 8 ... ... : ... .. 8 P83 ...
ROW A1 : ... .. 5 ... ... ... : ... .. 5 ... ... ... : ... .. . ... : ... .. 1 ... : ... .. . ... ... : ... .. 1 ... ... : ... .. 1 ... ... : ... .. 2 ... ...
ROW A2 : ... .. . ... ... ... : ... .. 1 ... ... ... : ... .. . ... : ... .. . ... : ... .. . ... ... : ... .. . ... ... : ... .. . ... ... : ... .. . P81 ...
ROW A3 : ... .. . ... ... ... : ... .. . ... ... ... : --- .. . ... : ... .. 0 ... : ... .. . ... ... : ... .. . ... ... : ... .. . ... ... : ... .. . P80 ...
ROW A4 : D#3 00 F ... ... ... : C#5 00 4 ... ... ... : G-1 00 . ... : ... .. D ... : ... .. . ... ... : ... .. A ... ... : ... .. A ... ... : G-1 01 F P7E ...
ROW A5 : ... .. E ... ... ... : ... .. 3 ... ... ... : ... .. . ... : ... .. B ... : ... .. . ... ... : ... .. 9 ... ... : ... .. 9 ... ... : ... .. D P7D ...
ROW A6 : ... .. D ... ... ... : ... .. . ... ... ... : ... .. . ... : ... .. . ... : ... .. . ... ... : ... .. 8 ... ... : ... .. 8 ... ... : ... .. 8 ... ...
ROW A7 : ... .. A ... ... ... : ... .. 2 ... ... ... : ... .. . ... : ... .. A ... : ... .. . ... ... : ... .. 1 ... ... : ... .. 1 ... ... : ... .. 2 P80 ...
ROW A8 : ... .. . ... ... ... : ... .. 1 ... ... ... : ... .. . ... : ... .. 8 ... : ... .. . ... ... : ... .. . ... ... : ... .. . ... ... : ... .. . P81 ...
ROW A9 : ... .. . ... ... ... : ... .. . ... ... ... : --- .. . ... : ... .. 7 ... : ... .. . ... ... : ... .. . ... ... : ... .. . ... ... : ... .. . P83 ...
ROW AA : C#3 00 8 ... ... ... : ... .. 8 ... ... ... : A-1 00 . ... : 7-# 00 8 ... : ... .. . ... ... : ... .. A ... ... : ... .. A ... ... : A-1 01 F ... ...
ROW AB : ... .. 7 ... ... ... : ... .. 7 ... ... ... : ... .. . ... : ... .. 6 ... : ... .. . ... ... : ... .. 9 ... ... : ... .. 9 ... ... : ... .. D P82 ...
ROW AC : ... .. 6 ... ... ... : ... .. 6 ... ... ... : ... .. . ... : ... .. 3 ... : ... .. . ... ... : ... .. 8 ... ... : ... .. 8 ... ... : ... .. 8 P80 ...
ROW AD : ... .. 5 ... ... ... : ... .. 5 ... ... ... : ... .. . ... : ... .. 1 ... : ... .. . ... ... : ... .. 1 ... ... : ... .. 1 ... ... : ... .. 2 P7E ...
ROW AE : ... .. . ... ... ... : ... .. 1 ... ... ... : ... .. . ... : ... .. . ... : ... .. . ... ... : ... .. . ... ... : ... .. . ... ... : ... .. . P7D ...
ROW AF : ... .. . ... ... ... : ... .. . ... ... ... : --- .. . ... : ... .. 0 ... : ... .. . ... ... : ... .. . ... ... : ... .. . ... ... : ... .. . ... ...
ROW B0 : A#4 00 F ... ... ... : D#5 00 4 ... ... ... : G#4 00 . ... : 1-# 00 F ... : ... .. . ... ... : D#4 01 A ... ... : G-3 01 A ... ... : A-2 01 F P7F ...
ROW B1 : ... .. E ... ... ... : ... .. 3 ... ... ... : A#3 00 . ... : ... .. C ... : ... .. . ... ... : ... .. 9 ... ... : ... .. 9 ... ... : ... .. D P81 ...
ROW B2 : ... .. D ... ... ... : ... .. . ... ... ... : D#3 00 . ... : ... .. 6 ... : ... .. . ... ... : ... .. 8 ... ... : ... .. 8 ... ... : ... .. 8 P83 ...
ROW B3 : ... .. A ... ... ... : ... .. 2 ... ... ... : D-3 00 . ... : ... .. 3 ... : ... .. . ... ... : ... .. 7 ... ... : ... .. 7 ... ... : ... .. . ... ...
ROW B4 : ... .. . ... ... ... : ... .. 1 ... ... ... : A-2 00 . ... : ... .. 2 ... : ... .. . ... ... : ... .. . ... ... : ... .. . ... ... : ... .. . P82 ...
ROW B5 : ... .. . ... ... ... : ... .. . ... ... ... : ... .. . ... : ... .. 0 ... : ... .. . ... ... : ... .. 6 ... ... : ... .. 6 ... ... : ... .. . P80 ...
ROW B6 : D#4 00 8 ... ... ... : ... .. 8 ... ... ... : A#2 00 . ... : 9-# 00 8 ... : ... .. . ... ... : D#1 01 A ... ... : D#1 01 A ... ... : G-2 01 F P7E ...
ROW B7 : ... .. 7 ... ... ... : ... .. 7 ... ... ... : ... .. . ... : ... .. 6 ... : ... .. . ... ... : ... .. 9 ... ... : ... .. 9 ... ... : ... .. D P7D ...
ROW B8 : ... .. 6 ... ... ... : ... .. 6 ... ... ... : ... .. . ... : ... .. 3 ... : ... .. . ... ... : ... .. 8 ... ... : ... .. 8 ... ... : ... .. 8 ... ...
ROW B9 : ... .. 5 ... ... ... : ... .. 5 ... ... ... : ... .. . ... : ... .. 1 ... : ... .. . ... ... : ... .. 1 ... ... : ... .. 1 ... ... : ... .. 2 P7F ...
ROW BA : ... .. . ... ... ... : ... .. 1 ... ... ... : ... .. . ... : ... .. . ... : ... .. . ... ... : ... .. . ... ... : ... .. . ... ... : ... .. . P80 ...
ROW BB : ... .. . ... ... ... : ... .. . ... ... ... : --- .. . ... : ... .. 0 ... : ... .. . ... ... : ... .. . ... ... : ... .. . ... ... : ... .. . P83 ...
ROW BC : C#4 00 8 ... ... ... : D#4 00 4 ... ... ... : A-2 00 . ... : B-# 00 F ... : ... .. . ... ... : ... .. A ... ... : ... .. A ... ... : A-2 01 F ... ...
ROW BD : ... .. 7 ... ... ... : ... .. 3 ... ... ... : ... .. . ... : ... .. C ... : ... .. . ... ... : ... .. 9 ... ... : ... .. 9 ... ... : ... .. D P82 ...
ROW BE : ... .. 6 ... ... ... : ... .. . ... ... ... : ... .. . ... : ... .. 6 ... : ... .. . ... ... : ... .. 8 ... ... : ... .. 8 ... ... : ... .. 8 P80 ...
ROW BF : ... .. 5 ... ... ... : ... .. 2 ... ... ... : ... .. . ... : ... .. 3 ... : ... .. . ... ... : ... .. 1 ... ... : ... .. 1 ... ... : ... .. 2 P7F ...
ROW C0 : ... .. . ... ... ... : ... .. 1 ... ... ... : ... .. . ... : ... .. 2 ... : ... .. . ... ... : ... .. . ... ... : ... .. . ... ... : ... .. . P7D ...
ROW C1 : ... .. . ... ... ... : ... .. . ... ... ... : --- .. . ... : ... .. 0 ... : ... .. . ... ... : ... .. . ... ... : ... .. . ... ... : ... .. . ... ...
ROW C2 : A#4 00 F ... ... ... : D#5 00 4 ... ... ... : A-1 00 . ... : 1-# 00 F ... : ... .. . ... ... : D#4 01 A ... ... : G-3 01 A ... ... : A-1 01 F P7F ...
ROW C3 : ... .. E ... ... ... : ... .. 3 ... ... ... : ... .. . ... : ... .. C ... : ... .. . ... ... : ... .. 9 ... ... : ... .. 9 ... ... : ... .. D P80 ...
ROW C4 : ... .. D ... ... ... : ... .. . ... ... ... : ... .. . ... : ... .. 6 ... : ... .. . ... ... : ... .. 8 ... ... : ... .. 8 ... ... : ... .. 8 P82 ...
ROW C5 : ... .. A ... ... ... : ... .. 2 ... ... ... : ... .. . ... : ... .. 3 ... : ... .. . ... ... : ... .. 7 ... ... : ... .. 7 ... ... : ... .. . P83 ...
ROW C6 : ... .. . ... ... ... : ... .. 1 ... ... ... : ... .. . ... : ... .. 2 ... : ... .. . ... ... : ... .. . ... ... : ... .. . ... ... : ... .. . ... ...
ROW C7 : ... .. . ... ... ... : ... .. . ... ... ... : --- .. . ... : ... .. 0 ... : ... .. . ... ... : ... .. 6 ... ... : ... .. 6 ... ... : ... .. . P80 ...
ROW C8 : D#4 00 8 ... ... ... : ... .. 8 ... ... ... : F#3 00 . ... : 9-# 00 8 ... : ... .. . ... ... : D#1 01 A ... ... : D#1 01 A ... ... : G-1 01 F P7F ...
ROW C9 : ... .. 7 ... ... ... : ... .. 7 ... ... ... : G#2 00 . ... : ... .. 6 ... : ... .. . ... ... : ... .. 9 ... ... : ... .. 9 ... ... : ... .. D P7D ...
ROW CA : ... .. 6 ... ... ... : ... .. 6 ... ... ... : C#2 00 . ... : ... .. 3 ... : ... .. . ... ... : ... .. 8 ... ... : ... .. 8 ... ... : ... .. 8 ... ...
ROW CB : ... .. 5 ... ... ... : ... .. 5 ... ... ... : C-2 00 . ... : ... .. 1 ... : ... .. . ... ... : ... .. 1 ... ... : ... .. 1 ... ... : ... .. 2 P7E ...
ROW CC : ... .. . ... ... ... : ... .. 1 ... ... ... : G-1 00 . ... : ... .. . ... : ... .. . ... ... : ... .. . ... ... : ... .. . ... ... : ... .. . P80 ...
ROW CD : ... .. . ... ... ... : ... .. . ... ... ... : ... .. . ... : ... .. 0 ... : ... .. . ... ... : ... .. . ... ... : ... .. . ... ... : ... .. . P82 ...
ROW CE : C#4 00 8 ... ... ... : D#4 00 4 ... ... ... : A-1 00 . ... : B-# 00 F ... : ... .. . ... ... : ... .. A ... ... : ... .. A ... ... : A-1 01 F P83 ...
ROW CF : ... .. 7 ... ... ... : ... .. 3 ... ... ... : ... .. . ... : ... .. C ... : ... .. . ... ... : ... .. 9 ... ... : ... .. 9 ... ... : ... .. D ... ...
ROW D0 : ... .. 6 ... ... ... : ... .. . ... ... ... : ... .. . ... : ... .. 6 ... : ... .. . ... ... : ... .. 8 ... ... : ... .. 8 ... ... : ... .. 8 P81 ...
ROW D1 : ... .. 5 ... ... ... : ... .. 2 ... ... ... : ... .. . ... : ... .. 3 ... : ... .. . ... ... : ... .. 1 ... ... : ... .. 1 ... ... : ... .. 2 P7F ...
ROW D2 : ... .. . ... ... ... : ... .. 1 ... ... ... : ... .. . ... : ... .. 2 ... : ... .. . ... ... : ... .. . ... ... : ... .. . ... ... : ... .. . P7D ...
ROW D3 : ... .. . ... ... ... : ... .. . ... ... ... : --- .. . ... : ... .. 0 ... : ... .. . ... ... : ... .. . ... ... : ... .. . ... ... : ... .. . ... ...
ROW D4 : A#4 00 F ... ... ... : D#5 00 F ... ... ... : A-2 00 . ... : 1-# 00 F ... : ... .. . ... ... : D#4 01 A ... ... : G-3 01 A ... ... : A-2 01 F P7E ...
ROW D5 : ... .. E ... ... ... : ... .. E ... ... ... : ... .. . ... : ... .. C ... : ... .. . ... ... : ... .. 9 ... ... : ... .. 9 ... ... : ... .. D P80 ...
ROW D6 : ... .. D ... ... ... : ... .. D ... ... ... : ... .. . ... : ... .. 6 ... : ... .. . ... ... : ... .. 8 ... ... : ... .. 8 ... ... : ... .. 8 P82 ...
ROW D7 : ... .. A ... ... ... : ... .. A ... ... ... : ... .. . ... : ... .. 3 ... : ... .. . ... ... : ... .. 7 ... ... : ... .. 7 ... ... : ... .. . P83 ...
ROW D8 : ... .. . ... ... ... : ... .. 2 ... ... ... : ... .. . ... : ... .. 2 ... : ... .. . ... ... : ... .. . ... ... : ... .. . ... ... : ... .. . ... ...
ROW D9 : ... .. . ... ... ... : ... .. . ... ... ... : --- .. . ... : ... .. 0 ... : ... .. . ... ... : ... .. 6 ... ... : ... .. 6 ... ... : ... .. . P81 ...
ROW DA : C#4 00 8 ... ... ... : ... .. 8 ... ... ... : A#2 00 . ... : 9-# 00 8 ... : ... .. . ... ... : D#1 01 A ... ... : D#1 01 A ... ... : G-2 01 F P80 ...
ROW DB : ... .. 7 ... ... ... : ... .. 7 ... ... ... : ... .. . ... : ... .. 6 ... : ... .. . ... ... : ... .. 9 ... ... : ... .. 9 ... ... : ... .. D P7D ...
ROW DC : ... .. 6 ... ... ... : ... .. 6 ... ... ... : ... .. . ... : ... .. 3 ... : ... .. . ... ... : ... .. 8 ... ... : ... .. 8 ... ... : ... .. 8 ... ...
ROW DD : ... .. 5 ... ... ... : ... .. 5 ... ... ... : ... .. . ... : ... .. 1 ... : ... .. . ... ... : ... .. 1 ... ... : ... .. 1 ... ... : ... .. 2 P7E ...
ROW DE : ... .. . ... ... ... : ... .. 1 ... ... ... : ... .. . ... : ... .. . ... : ... .. . ... ... : ... .. . ... ... : ... .. . ... ... : ... .. . P80 ...
ROW DF : ... .. . ... ... ... : ... .. . ... ... ... : --- .. . ... : ... .. 0 ... : ... .. . ... ... : ... .. . ... ... : ... .. . ... ... : ... .. . P81 ...
ROW E0 : B-3 00 8 ... ... ... : D#4 00 4 ... ... ... : G#4 00 . ... : B-# 00 F ... : ... .. . ... ... : ... .. A ... ... : ... .. A ... ... : F-2 01 F P83 ...
ROW E1 : ... .. 7 ... ... ... : ... .. 3 ... ... ... : A#3 00 . ... : ... .. C ... : ... .. . ... ... : ... .. 9 ... ... : ... .. 9 ... ... : ... .. D ... ...
ROW E2 : ... .. 6 ... ... ... : ... .. . ... ... ... : D#3 00 . ... : ... .. 6 ... : ... .. . ... ... : ... .. 8 ... ... : ... .. 8 ... ... : ... .. 8 P81 ...
ROW E3 : ... .. 5 ... ... ... : ... .. 2 ... ... ... : D-3 00 . ... : ... .. 3 ... : ... .. . ... ... : ... .. 1 ... ... : ... .. 1 ... ... : ... .. 2 P80 ...
ROW E4 : ... .. . ... ... ... : ... .. 1 ... ... ... : A-2 00 . ... : ... .. 2 ... : ... .. . ... ... : ... .. . ... ... : ... .. . ... ... : ... .. . P7E ...
ROW E5 : ... .. . ... ... ... : ... .. . ... ... ... : ... .. . ... : ... .. 0 ... : ... .. . ... ... : ... .. . ... ... : ... .. . ... ... : ... .. . P7D ...
ROW E6 : G-3 00 8 ... ... ... : ... .. 8 ... ... ... : A-1 00 . ... : 9-# 00 8 ... : ... .. . ... ... : ... .. A ... ... : ... .. A ... ... : E-2 01 F ... ...
ROW E7 : ... .. 7 ... ... ... : ... .. 7 ... ... ... : ... .. . ... : ... .. 6 ... : ... .. . ... ... : ... .. 9 ... ... : ... .. 9 ... ... : ... .. D P80 ...
ROW E8 : ... .. 6 ... ... ... : ... .. 6 ... ... ... : ... .. . ... : ... .. 3 ... : ... .. . ... ... : ... .. 8 ... ... : ... .. 8 ... ... : ... .. 8 P81 ...
ROW E9 : ... .. 5 ... ... ... : ... .. 5 ... ... ... : ... .. . ... : ... .. 1 ... : ... .. . ... ... : ... .. 1 ... ... : ... .. 1 ... ... : ... .. 2 P83 ...
ROW EA : ... .. . ... ... ... : ... .. 1 ... ... ... : ... .. . ... : ... .. . ... : ... .. . ... ... : ... .. . ... ... : ... .. . ... ... : ... .. . ... ...
ROW EB : ... .. . ... ... ... : ... .. . ... ... ... : --- .. . ... : ... .. 0 ... : ... .. . ... ... : ... .. . ... ... : ... .. . ... ... : ... .. . P82 ...
ROW EC : D#3 00 F ... ... ... : D#5 00 4 ... ... ... : G-1 00 . ... : ... .. D ... : ... .. . ... ... : ... .. A ... ... : ... .. A ... ... : D#2 01 F P80 ...
ROW ED : ... .. E ... ... ... : ... .. 3 ... ... ... : ... .. . ... : ... .. B ... : ... .. . ... ... : ... .. 9 ... ... : ... .. 9 ... ... : ... .. D P7E ...
ROW EE : ... .. D ... ... ... : ... .. . ... ... ... : ... .. . ... : ... .. . ... : ... .. . ... ... : ... .. 8 ... ... : ... .. 8 ... ... : ... .. 8 P7D ...
ROW EF : ... .. A ... ... ... : ... .. 2 ... ... ... : ... .. . ... : ... .. A ... : ... .. . ... ... : ... .. 1 ... ... : ... .. 1 ... ... : ... .. 2 ... ...
ROW F0 : ... .. . ... ... ... : ... .. 1 ... ... ... : ... .. . ... : ... .. 8 ... : ... .. . ... ... : ... .. . ... ... : ... .. . ... ... : ... .. . P7F ...
ROW F1 : ... .. . ... ... ... : ... .. . ... ... ... : --- .. . ... : ... .. 7 ... : ... .. . ... ... : ... .. . ... ... : ... .. . ... ... : ... .. . P81 ...
ROW F2 : C#3 00 8 ... ... ... : ... .. 8 ... ... ... : A-1 00 . ... : 7-# 00 8 ... : ... .. . ... ... : ... .. A ... ... : ... .. A ... ... : C#2 01 F P83 ...
ROW F3 : ... .. 7 ... ... ... : ... .. 7 ... ... ... : ... .. . ... : ... .. 6 ... : ... .. . ... ... : ... .. 9 ... ... : ... .. 9 ... ... : ... .. D ... ...
ROW F4 : ... .. 6 ... ... ... : ... .. 6 ... ... ... : ... .. . ... : ... .. 3 ... : ... .. . ... ... : ... .. 8 ... ... : ... .. 8 ... ... : ... .. 8 P82 ...
ROW F5 : ... .. 5 ... ... ... : ... .. 5 ... ... ... : ... .. . ... : ... .. 1 ... : ... .. . ... ... : ... .. 1 ... ... : ... .. 1 ... ... : ... .. 2 P80 ...
ROW F6 : ... .. . ... ... ... : ... .. 1 ... ... ... : ... .. . ... : ... .. . ... : ... .. . ... ... : ... .. . ... ... : ... .. . ... ... : ... .. . P7E ...
ROW F7 : ... .. . ... ... ... : ... .. . ... ... ... : --- .. . ... : ... .. 0 ... : ... .. . ... ... : ... .. . ... ... : ... .. . ... ... : ... .. . P7D ...
ROW F8 : A-4 00 F ... ... ... : C#5 00 F ... ... ... : G#4 00 . ... : 1-# 00 F ... : ... .. . ... ... : C#4 01 A ... ... : E-3 01 A ... ... : A-2 01 F ... ...
ROW F9 : ... .. E ... ... ... : ... .. E ... ... ... : A#3 00 . ... : ... .. C ... : ... .. . ... ... : ... .. 9 ... ... : ... .. 9 ... ... : ... .. D P7F ...
ROW FA : ... .. D ... ... ... : ... .. D ... ... ... : D#3 00 . ... : ... .. 6 ... : ... .. . ... ... : ... .. 8 ... ... : ... .. 8 ... ... : ... .. 8 P80 ...
ROW FB : ... .. A ... ... ... : ... .. A ... ... ... : D-3 00 . ... : ... .. 3 ... : ... .. . ... ... : ... .. 7 ... ... : ... .. 7 ... ... : ... .. . P83 ...
ROW FC : ... .. . ... ... ... : ... .. 2 ... ... ... : A-2 00 . ... : ... .. 2 ... : ... .. . ... ... : ... .. . ... ... : ... .. . ... ... : ... .. . ... ...
ROW FD : ... .. . ... ... ... : ... .. . ... ... ... : ... .. . ... : ... .. 0 ... : ... .. . ... ... : ... .. 6 ... ... : ... .. 6 ... ... : ... .. . P82 ...
ROW FE : D#4 00 8 ... ... ... : ... .. 8 ... ... ... : A#2 00 . ... : 9-# 00 8 ... : ... .. . ... ... : D#1 01 A ... ... : D#1 01 A ... ... : G-2 01 F P80 ...
ROW FF : ... .. 7 ... ... ... : ... .. 7 ... ... ... : ... .. . ... : ... .. 6 ... : ... .. . ... ... : ... .. 9 ... ... : ... .. 9 ... ... : ... .. D P7F ...

PATTERN 17
ROW 00 : ... .. 6 ... ... ... : ... .. 6 ... ... ... : ... .. . ... : ... .. 3 ... : ... .. . ... ... : ... .. 8 ... ... : ... .. 8 ... ... : ... .. 8 P7D ...
ROW 01 : ... .. 5 ... ... ... : ... .. 5 ... ... ... : ... .. . ... : ... .. 1 ... : ... .. . ... ... : ... .. 1 ... ... : ... .. 1 ... ... : ... .. 2 ... ...
ROW 02 : ... .. . ... ... ... : ... .. 1 ... ... ... : ... .. . ... : ... .. . ... : ... .. . ... ... : ... .. . ... ... : ... .. . ... ... : ... .. . P7F ...
ROW 03 : ... .. . ... ... ... : ... .. . ... ... ... : --- .. . ... : ... .. 0 ... : ... .. . ... ... : ... .. . ... ... : ... .. . ... ... : ... .. . P80 ...
ROW 04 : C#4 00 8 ... ... ... : C#4 00 4 ... ... ... : A-2 00 . ... : B-# 00 F ... : ... .. . ... ... : ... .. A ... ... : ... .. A ... ... : A-2 01 F P82 ...
ROW 05 : ... .. 7 ... ... ... : ... .. 3 ... ... ... : ... .. . ... : ... .. C ... : ... .. . ... ... : ... .. 9 ... ... : ... .. 9 ... ... : ... .. D P83 ...
ROW 06 : ... .. 6 ... ... ... : ... .. . ... ... ... : ... .. . ... : ... .. 6 ... : ... .. . ... ... : ... .. 8 ... ... : ... .. 8 ... ... : ... .. 8 ... ...
ROW 07 : ... .. 5 ... ... ... : ... .. 2 ... ... ... : ... .. . ... : ... .. 3 ... : ... .. . ... ... : ... .. 1 ... ... : ... .. 1 ... ... : ... .. 2 P80 ...
ROW 08 : ... .. . ... ... ... : ... .. 1 ... ... ... : ... .. . ... : ... .. 2 ... : ... .. . ... ... : ... .. . ... ... : ... .. . ... ... : ... .. . P7F ...
ROW 09 : ... .. . ... ... ... : ... .. . ... ... ... : --- .. . ... : ... .. 0 ... : ... .. . ... ... : ... .. . ... ... : ... .. . ... ... : ... .. . P7D ...
ROW 0A : A-4 00 F ... ... ... : C#5 00 F ... ... ... : A-1 00 . ... : 1-# 00 F ... : ... .. . ... ... : C#4 01 A ... ... : E-3 01 A ... ... : A-1 01 F ... ...
ROW 0B : ... .. E ... ... ... : ... .. E ... ... ... : ... .. . ... : ... .. C ... : ... .. . ... ... : ... .. 9 ... ... : ... .. 9 ... ... : ... .. D P7E ...
ROW 0C : ... .. D ... ... ... : ... .. D ... ... ... : ... .. . ... : ... .. 6 ... : ... .. . ... ... : ... .. 8 ... ... : ... .. 8 ... ... : ... .. 8 P80 ...
ROW 0D : ... .. A ... ... ... : ... .. A ... ... ... : ... .. . ... : ... .. 3 ... : ... .. . ... ... : ... .. 7 ... ... : ... .. 7 ... ... : ... .. . P82 ...
ROW 0E : ... .. . ... ... ... : ... .. 2 ... ... ... : ... .. . ... : ... .. 2 ... : ... .. . ... ... : ... .. . ... ... : ... .. . ... ... : ... .. . P83 ...
ROW 0F : ... .. . ... ... ... : ... .. . ... ... ... : --- .. . ... : ... .. 0 ... : ... .. . ... ... : ... .. 6 ... ... : ... .. 6 ... ... : ... .. . ... ...
ROW 10 : D#4 00 8 ... ... ... : ... .. 8 ... ... ... : F#3 00 . ... : 9-# 00 8 ... : ... .. . ... ... : D#1 01 A ... ... : D#1 01 A ... ... : G-1 01 F P81 ...
ROW 11 : ... .. 7 ... ... ... : ... .. 7 ... ... ... : G#2 00 . ... : ... .. 6 ... : ... .. . ... ... : ... .. 9 ... ... : ... .. 9 ... ... : ... .. D P7F ...
ROW 12 : ... .. 6 ... ... ... : ... .. 6 ... ... ... : C#2 00 . ... : ... .. 3 ... : ... .. . ... ... : ... .. 8 ... ... : ... .. 8 ... ... : ... .. 8 P7D ...
ROW 13 : ... .. 5 ... ... ... : ... .. 5 ... ... ... : C-2 00 . ... : ... .. 1 ... : ... .. . ... ... : ... .. 1 ... ... : ... .. 1 ... ... : ... .. 2 ... ...
ROW 14 : ... .. . ... ... ... : ... .. 1 ... ... ... : G-1 00 . ... : ... .. . ... : ... .. . ... ... : ... .. . ... ... : ... .. . ... ... : ... .. . P7E ...
ROW 15 : ... .. . ... ... ... : ... .. . ... ... ... : ... .. . ... : ... .. 0 ... : ... .. . ... ... : ... .. . ... ... : ... .. . ... ... : ... .. . P80 ...
ROW 16 : C#4 00 8 ... ... ... : C#4 00 4 ... ... ... : A-1 00 . ... : B-# 00 F ... : ... .. . ... ... : ... .. A ... ... : ... .. A ... ... : A-1 01 F P82 ...
ROW 17 : ... .. 7 ... ... ... : ... .. 3 ... ... ... : ... .. . ... : ... .. C ... : ... .. . ... ... : ... .. 9 ... ... : ... .. 9 ... ... : ... .. D P83 ...
ROW 18 : ... .. 6 ... ... ... : ... .. . ... ... ... : ... .. . ... : ... .. 6 ... : ... .. . ... ... : ... .. 8 ... ... : ... .. 8 ... ... : ... .. 8 ... ...
ROW 19 : ... .. 5 ... ... ... : ... .. 2 ... ... ... : ... .. . ... : ... .. 3 ... : ... .. . ... ... : ... .. 1 ... ... : ... .. 1 ... ... : ... .. 2 P81 ...
ROW 1A : ... .. . ... ... ... : ... .. 1 ... ... ... : ... .. . ... : ... .. 2 ... : ... .. . ... ... : ... .. . ... ... : ... .. . ... ... : ... .. . P80 ...
ROW 1B : ... .. . ... ... ... : ... .. . ... ... ... : --- .. . ... : ... .. 0 ... : ... .. . ... ... : ... .. . ... ... : ... .. . ... ... : ... .. . P7D ...
ROW 1C : A-4 00 F ... ... ... : C#5 00 F ... ... ... : A-2 00 . ... : 1-# 00 F ... : ... .. . ... ... : C#4 01 A ... ... : E-3 01 A ... ... : A-2 01 F ... ...
ROW 1D : ... .. E ... ... ... : ... .. E ... ... ... : ... .. . ... : ... .. C ... : ... .. . ... ... : ... .. 9 ... ... : ... .. 9 ... ... : ... .. D P7E ...
ROW 1E : ... .. D ... ... ... : ... .. D ... ... ... : ... .. . ... : ... .. 6 ... : ... .. . ... ... : ... .. 8 ... ... : ... .. 8 ... ... : ... .. 8 P80 ...
ROW 1F : ... .. A ... ... ... : ... .. A ... ... ... : ... .. . ... : ... .. 3 ... : ... .. . ... ... : ... .. 7 ... ... : ... .. 7 ... ... : ... .. . P81 ...
ROW 20 : ... .. . ... ... ... : ... .. 2 ... ... ... : ... .. . ... : ... .. 2 ... : ... .. . ... ... : ... .. . ... ... : ... .. . ... ... : ... .. . P83 ...
ROW 21 : ... .. . ... ... ... : ... .. . ... ... ... : --- .. . ... : ... .. 0 ... : ... .. . ... ... : ... .. 6 ... ... : ... .. 6 ... ... : ... .. . ... ...
ROW 22 : C#4 00 8 ... ... ... : ... .. 8 ... ... ... : A#2 00 . ... : 9-# 00 8 ... : ... .. . ... ... : D#1 01 A ... ... : D#1 01 A ... ... : G-2 01 F P81 ...
ROW 23 : ... .. 7 ... ... ... : ... .. 7 ... ... ... : ... .. . ... : ... .. 6 ... : ... .. . ... ... : ... .. 9 ... ... : ... .. 9 ... ... : ... .. D P80 ...
ROW 24 : ... .. 6 ... ... ... : ... .. 6 ... ... ... : ... .. . ... : ... .. 3 ... : ... .. . ... ... : ... .. 8 ... ... : ... .. 8 ... ... : ... .. 8 P7E ...
ROW 25 : ... .. 5 ... ... ... : ... .. 5 ... ... ... : ... .. . ... : ... .. 1 ... : ... .. . ... ... : ... .. 1 ... ... : ... .. 1 ... ... : ... .. 2 P7D ...
ROW 26 : ... .. . ... ... ... : ... .. 1 ... ... ... : ... .. . ... : ... .. . ... : ... .. . ... ... : ... .. . ... ... : ... .. . ... ... : ... .. . ... ...
ROW 27 : ... .. . ... ... ... : ... .. . ... ... ... : --- .. . ... : ... .. 0 ... : ... .. . ... ... : ... .. . ... ... : ... .. . ... ... : ... .. . P80 ...
ROW 28 : B-3 00 8 ... ... ... : C#4 00 4 ... ... ... : G#4 00 . ... : B-# 00 F ... : ... .. . ... ... : ... .. A ... ... : ... .. A ... ... : A-2 01 F P81 ...
ROW 29 : ... .. 7 ... ... ... : ... .. 3 ... ... ... : A#3 00 . ... : ... .. C ... : ... .. . ... ... : ... .. 9 ... ... : ... .. 9 ... ... : ... .. D P83 ...
ROW 2A : ... .. 6 ... ... ... : ... .. . ... ... ... : D#3 00 . ... : ... .. 6 ... : ... .. . ... ... : ... .. 8 ... ... : ... .. 8 ... ... : ... .. 8 ... ...
ROW 2B : ... .. 5 ... ... ... : ... .. 2 ... ... ... : D-3 00 . ... : ... .. 3 ... : ... .. . ... ... : ... .. 1 ... ... : ... .. 1 ... ... : ... .. 2 P82 ...
ROW 2C : ... .. . ... ... ... : ... .. 1 ... ... ... : A-2 00 . ... : ... .. 2 ... : ... .. . ... ... : ... .. . ... ... : ... .. . ... ... : ... .. . P80 ...
ROW 2D : ... .. . ... ... ... : ... .. . ... ... ... : ... .. . ... : ... .. 0 ... : ... .. . ... ... : ... .. . ... ... : ... .. . ... ... : ... .. . P7E ...
ROW 2E : G-3 00 8 ... ... ... : ... .. 8 ... ... ... : A-1 00 . ... : 9-# 00 8 ... : ... .. . ... ... : ... .. A ... ... : ... .. A ... ... : A-1 01 F P7D ...
ROW 2F : ... .. 7 ... ... ... : ... .. 7 ... ... ... : ... .. . ... : ... .. 6 ... : ... .. . ... ... : ... .. 9 ... ... : ... .. 9 ... ... : ... .. D ... ...
ROW 30 : ... .. 6 ... ... ... : ... .. 6 ... ... ... : ... .. . ... : ... .. 3 ... : ... .. . ... ... : ... .. 8 ... ... : ... .. 8 ... ... : ... .. 8 P7F ...
ROW 31 : ... .. 5 ... ... ... : ... .. 5 ... ... ... : ... .. . ... : ... .. 1 ... : ... .. . ... ... : ... .. 1 ... ... : ... .. 1 ... ... : ... .. 2 P81 ...
ROW 32 : ... .. . ... ... ... : ... .. 1 ... ... ... : ... .. . ... : ... .. . ... : ... .. . ... ... : ... .. . ... ... : ... .. . ... ... : ... .. . P83 ...
ROW 33 : ... .. . ... ... ... : ... .. . ... ... ... : --- .. . ... : ... .. 0 ... : ... .. . ... ... : ... .. . ... ... : ... .. . ... ... : ... .. . ... ...
ROW 34 : D#3 00 F ... ... ... : ... .. 4 ... ... ... : G-1 00 . ... : ... .. D ... : ... .. . ... ... : ... .. A ... ... : ... .. A ... ... : G-1 01 F P82 ...
ROW 35 : ... .. E ... ... ... : ... .. 3 ... ... ... : ... .. . ... : ... .. B ... : ... .. . ... ... : ... .. 9 ... ... : ... .. 9 ... ... : ... .. D P80 ...
ROW 36 : ... .. D ... ... ... : ... .. . ... ... ... : ... .. . ... : ... .. . ... : ... .. . ... ... : ... .. 8 ... ... : ... .. 8 ... ... : ... .. 8 P7E ...
ROW 37 : ... .. A ... ... ... : ... .. 2 ... ... ... : ... .. . ... : ... .. A ... : ... .. . ... ... : ... .. 1 ... ... : ... .. 1 ... ... : ... .. 2 P7D ...
ROW 38 : ... .. . ... ... ... : ... .. 1 ... ... ... : ... .. . ... : ... .. 8 ... : ... .. . ... ... : ... .. . ... ... : ... .. . ... ... : ... .. . ... ...
ROW 39 : ... .. . ... ... ... : ... .. . ... ... ... : --- .. . ... : ... .. 7 ... : ... .. . ... ... : ... .. . ... ... : ... .. . ... ... : ... .. . P7F ...
ROW 3A : C#3 00 8 ... ... ... : ... .. F ... V00 ... : A-1 00 . ... : 7-# 00 8 ... : ... .. . ... ... : ... .. A ... ... : ... .. A ... ... : A-1 01 F P80 ...
ROW 3B : ... .. 7 ... ... ... : ... .. E ... ... ... : ... .. . ... : ... .. 6 ... : ... .. . ... ... : ... .. 9 ... ... : ... .. 9 ... ... : ... .. D P83 ...
ROW 3C : ... .. 6 ... ... ... : ... .. D ... ... ... : ... .. . ... : ... .. 3 ... : ... .. . ... ... : ... .. 8 ... ... : ... .. 8 ... ... : ... .. 8 ... ...
ROW 3D : ... .. 5 ... ... ... : ... .. A ... ... ... : ... .. . ... : ... .. 1 ... : ... .. . ... ... : ... .. 1 ... ... : ... .. 1 ... ... : ... .. 2 P82 ...
ROW 3E : ... .. . ... ... ... : ... .. 2 ... ... ... : ... .. . ... : ... .. . ... : ... .. . ... ... : ... .. . ... ... : ... .. . ... ... : ... .. . P80 ...
ROW 3F : ... .. . ... ... ... : ... .. . ... ... ... : --- .. . ... : ... .. 0 ... : ... .. . ... ... : ... .. . ... ... : ... .. . ... ... : ... .. . P7F ...
ROW 40 : A#4 00 F ... ... ... : A#5 00 F P81 ... ... : G#4 00 . ... : 1-# 00 F ... : ... .. . ... ... : D#4 01 A ... ... : G-3 01 A ... ... : A-2 01 F P7D ...
ROW 41 : ... .. E ... ... ... : ... .. E ... ... ... : A#3 00 . ... : ... .. C ... : ... .. . ... ... : ... .. 9 ... ... : ... .. 9 ... ... : ... .. D ... ...
ROW 42 : ... .. D ... ... ... : ... .. D ... ... ... : D#3 00 . ... : ... .. 6 ... : ... .. . ... ... : ... .. 8 ... ... : ... .. 8 ... ... : ... .. 8 P7F ...
ROW 43 : ... .. A ... ... ... : ... .. 0 ... ... ... : D-3 00 . ... : ... .. 3 ... : ... .. . ... ... : ... .. 7 ... ... : ... .. 7 ... ... : ... .. . P80 ...
ROW 44 : ... .. . ... ... ... : ... .. . ... ... ... : A-2 00 . ... : ... .. 2 ... : ... .. . ... ... : ... .. . ... ... : ... .. . ... ... : ... .. . P82 ...
ROW 45 : ... .. . ... ... ... : ... .. . ... ... ... : ... .. . ... : ... .. 0 ... : ... .. . ... ... : ... .. 6 ... ... : ... .. 6 ... ... : ... .. . P83 ...
ROW 46 : D#4 00 8 ... ... ... : A-3 00 F P81 ... ... : A#2 00 . ... : 9-# 00 8 ... : ... .. . ... ... : D#1 01 A ... ... : D#1 01 A ... ... : G-2 01 F ... ...
ROW 47 : ... .. 7 ... ... ... : ... .. E ... ... ... : ... .. . ... : ... .. 6 ... : ... .. . ... ... : ... .. 9 ... ... : ... .. 9 ... ... : ... .. D P80 ...
ROW 48 : ... .. 6 ... ... ... : ... .. D ... ... ... : ... .. . ... : ... .. 3 ... : ... .. . ... ... : ... .. 8 ... ... : ... .. 8 ... ... : ... .. 8 P7F ...
ROW 49 : ... .. 5 ... ... ... : ... .. 0 ... ... ... : ... .. . ... : ... .. 1 ... : ... .. . ... ... : ... .. 1 ... ... : ... .. 1 ... ... : ... .. 2 P7D ...
ROW 4A : ... .. . ... ... ... : ... .. . ... ... ... : ... .. . ... : ... .. . ... : ... .. . ... ... : ... .. . ... ... : ... .. . ... ... : ... .. . ... ...
ROW 4B : ... .. . ... ... ... : ... .. . ... ... ... : --- .. . ... : ... .. 0 ... : ... .. . ... ... : ... .. . ... ... : ... .. . ... ... : ... .. . P7E ...
ROW 4C : C#4 00 8 ... ... ... : A-3 00 F P81 ... ... : A-2 00 . ... : B-# 00 F ... : ... .. . ... ... : ... .. A ... ... : ... .. A ... ... : A-2 01 F P80 ...
ROW 4D : ... .. 7 ... ... ... : ... .. E ... ... ... : ... .. . ... : ... .. C ... : ... .. . ... ... : ... .. 9 ... ... : ... .. 9 ... ... : ... .. D P82 ...
ROW 4E : ... .. 6 ... ... ... : ... .. D ... ... ... : ... .. . ... : ... .. 6 ... : ... .. . ... ... : ... .. 8 ... ... : ... .. 8 ... ... : ... .. 8 P83 ...
ROW 4F : ... .. 5 ... ... ... : ... .. A ... ... ... : ... .. . ... : ... .. 3 ... : ... .. . ... ... : ... .. 1 ... ... : ... .. 1 ... ... : ... .. 2 ... ...
ROW 50 : ... .. . ... ... ... : ... .. . ... ... ... : ... .. . ... : ... .. 2 ... : ... .. . ... ... : ... .. . ... ... : ... .. . ... ... : ... .. . P81 ...
ROW 51 : ... .. . ... ... ... : ... .. . ... ... ... : --- .. . ... : ... .. 0 ... : ... .. . ... ... : ... .. . ... ... : ... .. . ... ... : ... .. . P7F ...
ROW 52 : A#4 00 F ... ... ... : A#4 00 F ... ... ... : A-1 00 . ... : 1-# 00 F ... : ... .. . ... ... : D#4 01 A ... ... : G-3 01 A ... ... : A-1 01 F P7D ...
ROW 53 : ... .. E ... ... ... : ... .. E ... ... ... : ... .. . ... : ... .. C ... : ... .. . ... ... : ... .. 9 ... ... : ... .. 9 ... ... : ... .. D ... ...
ROW 54 : ... .. D ... ... ... : ... .. D ... ... ... : ... .. . ... : ... .. 6 ... : ... .. . ... ... : ... .. 8 ... ... : ... .. 8 ... ... : ... .. 8 P7E ...
ROW 55 : ... .. A ... ... ... : ... .. 0 ... ... ... : ... .. . ... : ... .. 3 ... : ... .. . ... ... : ... .. 7 ... ... : ... .. 7 ... ... : ... .. . P80 ...
ROW 56 : ... .. . ... ... ... : ... .. . ... ... ... : ... .. . ... : ... .. 2 ... : ... .. . ... ... : ... .. . ... ... : ... .. . ... ... : ... .. . P82 ...
ROW 57 : ... .. . ... ... ... : ... .. . ... ... ... : --- .. . ... : ... .. 0 ... : ... .. . ... ... : ... .. 6 ... ... : ... .. 6 ... ... : ... .. . P83 ...
ROW 58 : D#4 00 8 ... ... ... : A-3 00 F P81 ... ... : F#3 00 . ... : 9-# 00 8 ... : ... .. . ... ... : D#1 01 A ... ... : D#1 01 A ... ... : G-1 01 F ... ...
ROW 59 : ... .. 7 ... ... ... : ... .. E ... ... ... : G#2 00 . ... : ... .. 6 ... : ... .. . ... ... : ... .. 9 ... ... : ... .. 9 ... ... : ... .. D P81 ...
ROW 5A : ... .. 6 ... ... ... : ... .. D ... ... ... : C#2 00 . ... : ... .. 3 ... : ... .. . ... ... : ... .. 8 ... ... : ... .. 8 ... ... : ... .. 8 P80 ...
ROW 5B : ... .. 5 ... ... ... : ... .. 0 ... ... ... : C-2 00 . ... : ... .. 1 ... : ... .. . ... ... : ... .. 1 ... ... : ... .. 1 ... ... : ... .. 2 P7D ...
ROW 5C : ... .. . ... ... ... : ... .. . ... ... ... : G-1 00 . ... : ... .. . ... : ... .. . ... ... : ... .. . ... ... : ... .. . ... ... : ... .. . ... ...
ROW 5D : ... .. . ... ... ... : ... .. . ... ... ... : ... .. . ... : ... .. 0 ... : ... .. . ... ... : ... .. . ... ... : ... .. . ... ... : ... .. . P7E ...
ROW 5E : C#4 00 8 ... ... ... : A-3 00 F P81 ... ... : A-1 00 . ... : B-# 00 F ... : ... .. . ... ... : ... .. A ... ... : ... .. A ... ... : A-1 01 F P80 ...
ROW 5F : ... .. 7 ... ... ... : ... .. E ... ... ... : ... .. . ... : ... .. C ... : ... .. . ... ... : ... .. 9 ... ... : ... .. 9 ... ... : ... .. D P81 ...
ROW 60 : ... .. 6 ... ... ... : ... .. D ... ... ... : ... .. . ... : ... .. 6 ... : ... .. . ... ... : ... .. 8 ... ... : ... .. 8 ... ... : ... .. 8 P83 ...
ROW 61 : ... .. 5 ... ... ... : ... .. A ... ... ... : ... .. . ... : ... .. 3 ... : ... .. . ... ... : ... .. 1 ... ... : ... .. 1 ... ... : ... .. 2 ... ...
ROW 62 : ... .. . ... ... ... : ... .. . ... ... ... : ... .. . ... : ... .. 2 ... : ... .. . ... ... : ... .. . ... ... : ... .. . ... ... : ... .. . P81 ...
ROW 63 : ... .. . ... ... ... : ... .. . ... ... ... : --- .. . ... : ... .. 0 ... : ... .. . ... ... : ... .. . ... ... : ... .. . ... ... : ... .. . P80 ...
ROW 64 : A#4 00 F ... ... ... : A#5 00 F ... ... ... : G#4 00 . ... : 9-# 00 D ... : ... .. . ... ... : D#4 01 A ... ... : G-3 01 A ... ... : A-2 01 F P7E ...
ROW 65 : ... .. E ... ... ... : ... .. E ... ... ... : A#3 00 . ... : ... .. B ... : ... .. . ... ... : ... .. 9 ... ... : ... .. 9 ... ... : ... .. D P7D ...
ROW 66 : ... .. D ... ... ... : ... .. D ... ... ... : D#3 00 . ... : ... .. . ... : ... .. . ... ... : ... .. 8 ... ... : ... .. 8 ... ... : ... .. 8 ... ...
ROW 67 : ... .. A ... ... ... : ... .. 0 ... ... ... : D-3 00 . ... : ... .. A ... : ... .. . ... ... : ... .. 7 ... ... : ... .. 7 ... ... : ... .. . P80 ...
ROW 68 : ... .. . ... ... ... : ... .. . ... ... ... : A-2 00 . ... : ... .. 8 ... : ... .. . ... ... : ... .. . ... ... : ... .. . ... ... : ... .. . P81 ...
ROW 69 : ... .. . ... ... ... : ... .. . ... ... ... : ... .. . ... : ... .. 7 ... : ... .. . ... ... : ... .. 6 ... ... : ... .. 6 ... ... : ... .. . P83 ...
ROW 6A : C#4 00 8 ... ... ... : A-3 00 F P81 ... ... : ... .. . ... : ... .. D ... : ... .. . ... ... : D#1 01 A ... ... : D#1 01 A ... ... : G-2 01 F ... ...
ROW 6B : ... .. 7 ... ... ... : ... .. E ... ... ... : ... .. . ... : ... .. B ... : ... .. . ... ... : ... .. 9 ... ... : ... .. 9 ... ... : ... .. D P82 ...
ROW 6C : ... .. 6 ... ... ... : ... .. D ... ... ... : ... .. . ... : ... .. . ... : ... .. . ... ... : ... .. 8 ... ... : ... .. 8 ... ... : ... .. 8 P80 ...
ROW 6D : ... .. 5 ... ... ... : ... .. 0 ... ... ... : ... .. . ... : ... .. A ... : ... .. . ... ... : ... .. 1 ... ... : ... .. 1 ... ... : ... .. 2 P7E ...
ROW 6E : ... .. . ... ... ... : ... .. . ... ... ... : ... .. . ... : ... .. 8 ... : ... .. . ... ... : ... .. . ... ... : ... .. . ... ... : ... .. . P7D ...
ROW 6F : ... .. . ... ... ... : ... .. . ... ... ... : ... .. . ... : ... .. 7 ... : ... .. . ... ... : ... .. . ... ... : ... .. . ... ... : ... .. . ... ...
ROW 70 : B-3 00 8 ... ... ... : A-3 00 D P81 ... ... : G#2 00 . P7F : 8-# 00 D ... : ... .. . ... ... : ... .. A ... ... : ... .. A ... ... : F-2 01 F P7F ...
ROW 71 : ... .. 7 ... ... ... : ... .. C ... ... ... : G-2 00 . ... : ... .. B ... : ... .. . ... ... : ... .. 9 ... ... : ... .. 9 ... ... : ... .. D P81 ...
ROW 72 : ... .. 6 ... ... ... : ... .. B ... ... ... : F#2 00 . P81 : ... .. . ... : ... .. . ... ... : ... .. 8 ... ... : ... .. 8 ... ... : ... .. 8 P83 ...
ROW 73 : ... .. 5 ... ... ... : ... .. 8 ... ... ... : F-2 00 . P85 : ... .. A ... : ... .. . ... ... : ... .. 1 ... ... : ... .. 1 ... ... : ... .. 2 ... ...
ROW 74 : ... .. . ... ... ... : ... .. . ... ... ... : E-2 00 . P8B : ... .. 8 ... : ... .. . ... ... : ... .. . ... ... : ... .. . ... ... : ... .. . P82 ...
ROW 75 : ... .. . ... ... ... : ... .. . ... ... ... : D#2 00 . P93 : ... .. 7 ... : ... .. . ... ... : ... .. . ... ... : ... .. . ... ... : ... .. . P80 ...
ROW 76 : G-3 00 8 ... ... ... : A-2 00 B ... ... ... : ... .. . P73 : ... .. D ... : ... .. . ... ... : ... .. A ... ... : ... .. A ... ... : E-2 01 F P7E ...
ROW 77 : ... .. 7 ... ... ... : ... .. A ... ... ... : D-2 00 . P7E : ... .. B ... : ... .. . ... ... : ... .. 9 ... ... : ... .. 9 ... ... : ... .. D P7D ...
ROW 78 : ... .. 6 ... ... ... : ... .. 9 ... ... ... : C#2 00 . P8B : ... .. . ... : ... .. . ... ... : ... .. 8 ... ... : ... .. 8 ... ... : ... .. 8 ... ...
ROW 79 : ... .. 5 ... ... ... : ... .. 7 ... ... ... : ... .. . P6B : ... .. A ... : ... .. . ... ... : ... .. 1 ... ... : ... .. 1 ... ... : ... .. 2 P7F ...
ROW 7A : ... .. . ... ... ... : ... .. . ... ... ... : C-2 00 . P7B : ... .. 8 ... : ... .. . ... ... : ... .. . ... ... : ... .. . ... ... : ... .. . P80 ...
ROW 7B : ... .. . ... ... ... : ... .. . ... ... ... : B-1 00 . P8E : ... .. 7 ... : ... .. . ... ... : ... .. . ... ... : ... .. . ... ... : ... .. . P83 ...
ROW 7C : D#3 00 F ... ... ... : ... .. A ... ... ... : ... .. . P6E : 6-# 00 D ... : ... .. . ... ... : ... .. A ... ... : ... .. A ... ... : D#2 01 F ... ...
ROW 7D : ... .. E ... ... ... : ... .. 9 ... ... ... : A#1 00 . P84 : ... .. B ... : ... .. . ... ... : ... .. 9 ... ... : ... .. 9 ... ... : ... .. D P82 ...
ROW 7E : ... .. D ... ... ... : ... .. 8 ... ... ... : ... .. . P64 : ... .. . ... : ... .. . ... ... : ... .. 8 ... ... : ... .. 8 ... ... : ... .. 8 P80 ...
ROW 7F : ... .. A ... ... ... : ... .. 6 ... ... ... : A-1 00 . P7D : ... .. A ... : ... .. . ... ... : ... .. 1 ... ... : ... .. 1 ... ... : ... .. 2 P7F ...
ROW 80 : ... .. . ... ... ... : ... .. . ... ... ... : G#1 00 . P99 : ... .. 8 ... : ... .. . ... ... : ... .. . ... ... : ... .. . ... ... : ... .. . P7D ...
ROW 81 : ... .. . ... ... ... : ... .. . ... ... ... : ... .. . P79 : ... .. 7 ... : ... .. . ... ... : ... .. . ... ... : ... .. . ... ... : ... .. . ... ...
ROW 82 : C#3 00 8 ... ... ... : A-1 00 8 ... ... ... : G-1 00 . P99 : 3-# 00 D ... : ... .. . ... ... : ... .. A ... ... : ... .. A ... ... : C#2 01 F P7F ...
ROW 83 : ... .. 7 ... ... ... : ... .. 7 ... ... ... : ... .. . P79 : ... .. B ... : ... .. . ... ... : ... .. 9 ... ... : ... .. 9 ... ... : ... .. D P80 ...
ROW 84 : ... .. 6 ... ... ... : ... .. 6 ... ... ... : F#1 00 . P9D : ... .. . ... : ... .. . ... ... : ... .. 8 ... ... : ... .. 8 ... ... : ... .. 8 P82 ...
ROW 85 : ... .. 5 ... ... ... : ... .. 5 ... ... ... : ... .. . P7D : ... .. A ... : ... .. . ... ... : ... .. 1 ... ... : ... .. 1 ... ... : ... .. 2 P83 ...
ROW 86 : ... .. . ... ... ... : ... .. . ... ... ... : ... .. . P5D : ... .. 8 ... : ... .. . ... ... : ... .. . ... ... : ... .. . ... ... : ... .. . ... ...
ROW 87 : ... .. . ... ... ... : ... .. . ... ... ... : F-1 00 . P85 : ... .. 7 ... : ... .. . ... ... : ... .. . ... ... : ... .. . ... ... : ... .. . P80 ...
ROW 88 : A-2 00 F ... ... ... : E-3 00 F ... ... ... : G#3 00 . P80 : C-# 00 E ... : ... .. . ... ... : A-3 01 6 ... ... : A-4 01 6 ... ... : A-1 01 F P7F ...
ROW 89 : ... .. E ... ... ... : ... .. E ... ... ... : A#2 00 . ... : ... .. D ... : ... .. . ... ... : ... .. . ... ... : ... .. . ... ... : ... .. D P7D ...
ROW 8A : ... .. D ... ... ... : ... .. D ... ... ... : D#2 00 . ... : ... .. . ... : ... .. . ... ... : ... .. 5 ... ... : ... .. 5 ... ... : ... .. 8 ... ...
ROW 8B : ... .. 2 ... ... ... : ... .. 2 ... ... ... : D-2 00 . ... : ... .. C ... : ... .. . ... ... : ... .. 4 ... ... : ... .. 4 ... ... : ... .. . P7E ...
ROW 8C : ... .. . ... ... ... : ... .. . ... ... ... : A-1 00 . ... : ... .. B ... : ... .. . ... ... : ... .. . ... ... : ... .. . ... ... : ... .. . P80 ...
ROW 8D : ... .. . ... ... ... : ... .. . ... ... ... : ... .. . ... : ... .. . ... : ... .. . ... ... : ... .. . ... ... : ... .. . ... ... : --- .. . P7F ...
ROW 8E : ... .. F ... ... ... : ... .. F ... ... ... : ... .. . ... : ... .. A ... : ... .. . ... ... : A#3 01 6 ... ... : A#4 01 6 ... ... : A-1 01 F P83 ...
ROW 8F : ... .. E ... ... ... : ... .. E ... ... ... : ... .. . ... : ... .. . ... : ... .. . ... ... : ... .. . ... ... : ... .. . ... ... : ... .. D ... ...
ROW 90 : ... .. D ... ... ... : ... .. D ... ... ... : ... .. . ... : ... .. 9 ... : ... .. . ... ... : ... .. 5 ... ... : ... .. 5 ... ... : ... .. 8 P81 ...
ROW 91 : ... .. 2 ... ... ... : ... .. 2 ... ... ... : ... .. . ... : ... .. 8 ... : ... .. . ... ... : ... .. 4 ... ... : ... .. 4 ... ... : ... .. . P7F ...
ROW 92 : ... .. . ... ... ... : ... .. . ... ... ... : ... .. . ... : ... .. . ... : ... .. . ... ... : ... .. . ... ... : ... .. . ... ... : ... .. . P7D ...
ROW 93 : ... .. . ... ... ... : ... .. . ... ... ... : --- .. . ... : ... .. 7 ... : ... .. . ... ... : ... .. . ... ... : ... .. . ... ... : --- .. . P84 ...
ROW 94 : G-2 00 F ... ... ... : D-3 00 F ... ... ... : A-1 00 . ... : ... .. 6 ... : ... .. . ... ... : A-3 01 6 ... ... : A-4 01 6 ... ... : A-1 01 F P7E ...
ROW 95 : ... .. E ... ... ... : ... .. E ... ... ... : ... .. . ... : ... .. . ... : ... .. . ... ... : ... .. . ... ... : ... .. . ... ... : ... .. D P80 ...
ROW 96 : ... .. D ... ... ... : ... .. D ... ... ... : ... .. . ... : ... .. 5 ... : ... .. . ... ... : ... .. 5 ... ... : ... .. 5 ... ... : ... .. 8 P82 ...
ROW 97 : ... .. A ... ... ... : ... .. A ... ... ... : ... .. . ... : ... .. . ... : ... .. . ... ... : ... .. 4 ... ... : ... .. 4 ... ... : ... .. . P83 ...
ROW 98 : ... .. . ... ... ... : ... .. . ... ... ... : ... .. . ... : ... .. 4 ... : ... .. . ... ... : ... .. . ... ... : ... .. . ... ... : ... .. . ... ...
ROW 99 : ... .. . ... ... ... : ... .. . ... ... ... : --- .. . ... : ... .. 3 ... : ... .. . ... ... : ... .. . ... ... : ... .. . ... ... : --- .. . P82 ...
ROW 9A : A-2 00 F ... ... ... : E-3 00 F ... ... ... : A-1 00 . ... : 1-# 00 F ... : ... .. . ... ... : E-3 01 6 ... ... : E-4 01 6 ... ... : A-1 01 F P80 ...
ROW 9B : ... .. E ... ... ... : ... .. E ... ... ... : ... .. . ... : ... .. C ... : ... .. . ... ... : ... .. . ... ... : ... .. . ... ... : ... .. D P7D ...
ROW 9C : ... .. D ... ... ... : ... .. D ... ... ... : ... .. . ... : ... .. 6 ... : ... .. . ... ... : ... .. 5 ... ... : ... .. 5 ... ... : ... .. 8 ... ...
ROW 9D : ... .. 2 ... ... ... : ... .. 2 ... ... ... : ... .. . ... : ... .. 3 ... : ... .. . ... ... : ... .. 4 ... ... : ... .. 4 ... ... : ... .. . P7E ...
ROW 9E : ... .. . ... ... ... : ... .. . ... ... ... : ... .. . ... : ... .. 2 ... : ... .. . ... ... : ... .. . ... ... : ... .. . ... ... : ... .. . P80 ...
ROW 9F : ... .. . ... ... ... : ... .. . ... ... ... : --- .. . ... : ... .. 0 ... : ... .. . ... ... : ... .. . ... ... : ... .. . ... ... : --- .. . P7F ...
ROW A0 : A#2 00 F ... ... ... : F-3 00 F ... ... ... : F#4 00 . ... : 5-# 00 F ... : ... .. . ... ... : D#3 01 6 ... ... : D#4 01 6 ... ... : G-2 01 F P83 ...
ROW A1 : ... .. E ... ... ... : ... .. E ... ... ... : G#3 00 . ... : ... .. C ... : ... .. . ... ... : ... .. . ... ... : ... .. . ... ... : ... .. D ... ...
ROW A2 : ... .. D ... ... ... : ... .. D ... ... ... : C#3 00 . ... : ... .. 6 ... : ... .. . ... ... : ... .. 5 ... ... : ... .. 5 ... ... : ... .. 8 P81 ...
ROW A3 : ... .. A ... ... ... : ... .. A ... ... ... : C-3 00 . ... : ... .. 3 ... : ... .. . ... ... : ... .. 4 ... ... : ... .. 4 ... ... : ... .. . P80 ...
ROW A4 : ... .. . ... ... ... : ... .. . ... ... ... : G-2 00 . ... : ... .. 2 ... : ... .. . ... ... : ... .. . ... ... : ... .. . ... ... : ... .. . P7E ...
ROW A5 : ... .. . ... ... ... : ... .. . ... ... ... : ... .. . ... : ... .. 0 ... : ... .. . ... ... : ... .. . ... ... : ... .. . ... ... : --- .. . P83 ...
ROW A6 : A-2 00 F ... ... ... : E-3 00 F ... ... ... : A-2 00 . ... : B-# 00 F ... : ... .. . ... ... : A-2 01 6 ... ... : A-3 01 6 ... ... : A-2 01 F P7D ...
ROW A7 : ... .. E ... ... ... : ... .. E ... ... ... : ... .. . ... : ... .. C ... : ... .. . ... ... : ... .. . ... ... : ... .. . ... ... : ... .. D P80 ...
ROW A8 : ... .. D ... ... ... : ... .. D ... ... ... : ... .. . ... : ... .. 6 ... : ... .. . ... ... : ... .. 5 ... ... : ... .. 5 ... ... : ... .. 8 P81 ...
ROW A9 : ... .. 2 ... ... ... : ... .. 2 ... ... ... : ... .. . ... : ... .. 3 ... : ... .. . ... ... : ... .. 4 ... ... : ... .. 4 ... ... : ... .. . P83 ...
ROW AA : ... .. . ... ... ... : ... .. . ... ... ... : ... .. . ... : ... .. 2 ... : ... .. . ... ... : ... .. . ... ... : ... .. . ... ... : ... .. . ... ...
ROW AB : ... .. . ... ... ... : ... .. . ... ... ... : --- .. . ... : ... .. 0 ... : ... .. . ... ... : ... .. . ... ... : ... .. . ... ... : --- .. . P7F ...
ROW AC : C#3 00 F ... ... ... : G#3 00 F ... ... ... : D#3 00 . ... : 1-# 00 F ... : ... .. . ... ... : E-2 01 6 ... ... : E-3 01 6 ... ... : D#3 01 F P80 ...
ROW AD : ... .. E P89 ... ... : A-3 00 E P7B ... ... : ... .. . ... : ... .. C ... : ... .. . ... ... : ... .. . ... ... : ... .. . ... ... : ... .. D P7E ...
ROW AE : D-3 00 D P7B ... ... : ... .. D P84 ... ... : ... .. . ... : ... .. 6 ... : ... .. . ... ... : ... .. 5 ... ... : ... .. 5 ... ... : ... .. 8 P7D ...
ROW AF : ... .. A P84 ... ... : A#3 00 A P7F ... ... : ... .. . ... : ... .. 3 ... : ... .. . ... ... : ... .. 4 ... ... : ... .. 4 ... ... : ... .. . ... ...
ROW B0 : D#3 00 A P78 ... ... : ... .. . P81 ... ... : ... .. . ... : ... .. 2 ... : ... .. . ... ... : ... .. . ... ... : ... .. . ... ... : ... .. . P7F ...
ROW B1 : ... .. . P80 ... ... : ... .. . ... ... ... : ... .. . ... : ... .. 0 ... : ... .. . ... ... : ... .. . ... ... : ... .. . ... ... : ... .. . P81 ...
ROW B2 : ... .. . ... ... ... : ... .. . ... ... ... : ... .. . ... : B-# 00 F ... : ... .. . ... ... : D#2 01 6 ... ... : D#3 01 6 ... ... : ... .. . P83 ...
ROW B3 : ... .. . ... ... ... : ... .. . ... ... ... : ... .. . ... : ... .. C ... : ... .. . ... ... : ... .. . ... ... : ... .. . ... ... : ... .. . ... ...
ROW B4 : ... .. . ... ... ... : ... .. . ... ... ... : ... .. . ... : ... .. 6 ... : ... .. . ... ... : ... .. 5 ... ... : ... .. 5 ... ... : ... .. . P82 ...
ROW B5 : ... .. . ... ... ... : ... .. . ... ... ... : ... .. . ... : ... .. 3 ... : ... .. . ... ... : ... .. 4 ... ... : ... .. 4 ... ... : ... .. . P80 ...
ROW B6 : ... .. . ... ... ... : ... .. . ... ... ... : ... .. . ... : ... .. 2 ... : ... .. . ... ... : ... .. . ... ... : ... .. . ... ... : ... .. . P7E ...
ROW B7 : ... .. . ... ... ... : ... .. . ... ... ... : ... .. . ... : ... .. 0 ... : ... .. . ... ... : ... .. . ... ... : ... .. . ... ... : ... .. . P7D ...
ROW B8 : E-3 00 A P78 ... ... : B-3 00 A P80 ... ... : D-5 00 . ... : ... .. F ... : ... .. . ... ... : E-2 01 6 ... ... : E-3 01 6 ... ... : D-3 01 8 P75 ...
ROW B9 : ... .. . P80 ... ... : C-4 00 A P7C ... ... : E-4 00 . ... : ... .. C ... : ... .. . ... ... : ... .. . ... ... : ... .. . ... ... : C-3 01 8 P8D ...
ROW BA : ... .. . P7D ... ... : B-3 00 A P85 ... ... : A-3 00 . ... : ... .. 6 ... : ... .. . ... ... : ... .. 5 ... ... : ... .. 5 ... ... : B-2 01 8 P8B ...
ROW BB : D#3 00 A P86 ... ... : A#3 00 A P87 ... ... : G#3 00 . ... : ... .. 3 ... : ... .. . ... ... : ... .. 4 ... ... : ... .. 4 ... ... : A#2 01 8 P8C ...
ROW BC : ... .. . P7A ... ... : ... .. . P7B ... ... : D#3 00 . ... : ... .. 2 ... : ... .. . ... ... : ... .. . ... ... : ... .. . ... ... : A-2 01 8 P8D ...
ROW BD : D-3 00 A P83 ... ... : A-3 00 A P7D ... ... : ... .. . ... : ... .. 0 ... : ... .. . ... ... : ... .. . ... ... : ... .. . ... ... : G#2 01 8 P8F ...
ROW BE : ... .. 1 P80 ... ... : ... .. 1 P7A ... ... : D-3 00 . P75 : ... .. F ... : ... .. . ... ... : A-2 01 6 ... ... : A-3 01 6 ... ... : G-2 01 8 P91 ...
ROW BF : ... .. . P88 ... ... : ... .. . P82 ... ... : C-3 00 . P84 : ... .. C ... : ... .. . ... ... : ... .. . ... ... : ... .. . ... ... : ... .. . P70 ...
ROW C0 : D#3 00 1 P80 ... ... : A#3 00 1 P81 ... ... : B-2 00 . P7D : ... .. 6 ... : ... .. . ... ... : ... .. 5 ... ... : ... .. 5 ... ... : F#2 01 8 P75 ...
ROW C1 : E-3 00 1 P77 ... ... : B-3 00 1 P7F ... ... : A#2 00 . P78 : ... .. 3 ... : ... .. . ... ... : ... .. 4 ... ... : ... .. 4 ... ... : F-2 01 8 P7E ...
ROW C2 : ... .. . P80 ... ... : C-4 00 1 P7C ... ... : A-2 00 . P74 : ... .. 2 ... : ... .. . ... ... : ... .. . ... ... : ... .. . ... ... : E-2 01 8 P8C ...
ROW C3 : ... .. . P7E ... ... : B-3 00 1 P86 ... ... : G#2 00 . P73 : ... .. 0 ... : ... .. . ... ... : ... .. . ... ... : ... .. . ... ... : ... .. . P6D ...
ROW C4 : C-3 00 F P80 ... ... : G-3 00 F P81 ... ... : D-3 00 . P80 : 5-# 00 F ... : ... .. . ... ... : E-3 01 6 ... ... : E-4 01 6 ... ... : D-3 01 F P82 ...
ROW C5 : ... .. E P89 ... ... : G#3 00 E P7A ... ... : ... .. . ... : ... .. C ... : ... .. . ... ... : ... .. . ... ... : ... .. . ... ... : ... .. D P83 ...
ROW C6 : C#3 00 D P7A ... ... : ... .. D P83 ... ... : ... .. . ... : ... .. 6 ... : ... .. . ... ... : ... .. 5 ... ... : ... .. 5 ... ... : ... .. 8 ... ...
ROW C7 : ... .. A P83 ... ... : A-3 00 A P7D ... ... : ... .. . ... : ... .. 3 ... : ... .. . ... ... : ... .. 4 ... ... : ... .. 4 ... ... : ... .. . P80 ...
ROW C8 : D-3 00 A P75 ... ... : ... .. . P81 ... ... : ... .. . ... : ... .. 2 ... : ... .. . ... ... : ... .. . ... ... : ... .. . ... ... : ... .. . P7F ...
ROW C9 : ... .. . P7E ... ... : ... .. . ... ... ... : ... .. . ... : ... .. 0 ... : ... .. . ... ... : ... .. . ... ... : ... .. . ... ... : ... .. . P7D ...
ROW CA : ... .. . P80 ... ... : ... .. . ... ... ... : ... .. . ... : ... .. F ... : ... .. . ... ... : F-3 01 6 ... ... : F-4 01 6 ... ... : ... .. . ... ...
ROW CB : ... .. . ... ... ... : ... .. . ... ... ... : ... .. . ... : ... .. C ... : ... .. . ... ... : ... .. . ... ... : ... .. . ... ... : ... .. . P7E ...
ROW CC : ... .. . ... ... ... : ... .. . ... ... ... : ... .. . ... : ... .. 6 ... : ... .. . ... ... : ... .. 5 ... ... : ... .. 5 ... ... : ... .. . P80 ...
ROW CD : ... .. . ... ... ... : ... .. . ... ... ... : ... .. . ... : ... .. 3 ... : ... .. . ... ... : ... .. 4 ... ... : ... .. 4 ... ... : ... .. . P82 ...
ROW CE : ... .. . ... ... ... : ... .. . ... ... ... : ... .. . ... : ... .. 2 ... : ... .. . ... ... : ... .. . ... ... : ... .. . ... ... : ... .. . P83 ...
ROW CF : ... .. . ... ... ... : ... .. . ... ... ... : ... .. . ... : ... .. 0 ... : ... .. . ... ... : ... .. . ... ... : ... .. . ... ... : ... .. . ... ...
ROW D0 : D#3 00 A P78 ... ... : A#3 00 A P80 ... ... : C#5 00 . ... : 1-# 00 F ... : ... .. . ... ... : A-3 01 6 ... ... : A-4 01 6 ... ... : C#3 01 8 P7B ...
ROW D1 : ... .. . P80 ... ... : B-3 00 A P7A ... ... : D#4 00 . ... : ... .. C ... : ... .. . ... ... : ... .. . ... ... : ... .. . ... ... : C-3 01 8 P75 ...
ROW D2 : ... .. . P7D ... ... : A#3 00 A P85 ... ... : G#3 00 . ... : ... .. 6 ... : ... .. . ... ... : ... .. 5 ... ... : ... .. 5 ... ... : A#2 01 8 P8E ...
ROW D3 : D-3 00 A P86 ... ... : A-3 00 A P87 ... ... : G-3 00 . ... : ... .. 3 ... : ... .. . ... ... : ... .. 4 ... ... : ... .. 4 ... ... : A-2 01 8 P8F ...
ROW D4 : ... .. . P7A ... ... : ... .. . P7B ... ... : D-3 00 . ... : ... .. 2 ... : ... .. . ... ... : ... .. . ... ... : ... .. . ... ... : ... .. . P70 ...
ROW D5 : C#3 00 A P85 ... ... : G#3 00 A P7E ... ... : ... .. . ... : ... .. 0 ... : ... .. . ... ... : ... .. . ... ... : ... .. . ... ... : G#2 01 8 P75 ...
ROW D6 : ... .. 1 P82 ... ... : ... .. 1 P7B ... ... : C#3 00 . P77 : B-# 00 F ... : ... .. . ... ... : A#3 01 6 ... ... : A#4 01 6 ... ... : G-2 01 8 P7B ...
ROW D7 : ... .. . P8A ... ... : ... .. . P83 ... ... : B-2 00 . P88 : ... .. C ... : ... .. . ... ... : ... .. . ... ... : ... .. . ... ... : F#2 01 8 P83 ...
ROW D8 : D-3 00 1 P80 ... ... : A-3 00 1 P81 ... ... : A#2 00 . P83 : ... .. 6 ... : ... .. . ... ... : ... .. 5 ... ... : ... .. 5 ... ... : F-2 01 8 P8C ...
ROW D9 : D#3 00 1 P77 ... ... : A#3 00 1 P7F ... ... : A-2 00 . P7F : ... .. 3 ... : ... .. . ... ... : ... .. 4 ... ... : ... .. 4 ... ... : E-2 01 8 P96 ...
ROW DA : ... .. . P80 ... ... : B-3 00 1 P7A ... ... : G#2 00 . P7E : ... .. 2 ... : ... .. . ... ... : ... .. . ... ... : ... .. . ... ... : ... .. . P75 ...
ROW DB : ... .. . P7E ... ... : A#3 00 1 P86 ... ... : G-2 00 . ... : ... .. 0 ... : ... .. . ... ... : ... .. . ... ... : ... .. . ... ... : D#2 01 8 P80 ...
ROW DC : C-3 00 F P80 ... ... : G-3 00 F P81 ... ... : A-2 00 . P80 : ... .. F ... : ... .. . ... ... : E-4 01 6 ... ... : E-5 01 6 ... ... : A-2 01 F P7D ...
ROW DD : ... .. E ... ... ... : ... .. E ... ... ... : ... .. . ... : ... .. C ... : ... .. . ... ... : ... .. . ... ... : ... .. . ... ... : ... .. D P7E ...
ROW DE : ... .. D ... ... ... : ... .. D ... ... ... : ... .. . ... : ... .. 6 ... : ... .. . ... ... : ... .. 5 ... ... : ... .. 5 ... ... : ... .. 8 P80 ...
ROW DF : ... .. 2 ... ... ... : ... .. 2 ... ... ... : ... .. . ... : ... .. 3 ... : ... .. . ... ... : ... .. 4 ... ... : ... .. 4 ... ... : ... .. . P81 ...
ROW E0 : ... .. . ... ... ... : ... .. . ... ... ... : ... .. . ... : ... .. 2 ... : ... .. . ... ... : ... .. . ... ... : ... .. . ... ... : ... .. . P83 ...
ROW E1 : ... .. . ... ... ... : ... .. . ... ... ... : --- .. . ... : ... .. 0 ... : ... .. . ... ... : ... .. . ... ... : ... .. . ... ... : --- .. . P7F ...
ROW E2 : D-3 00 F ... ... ... : A-3 00 F ... ... ... : A-2 00 . ... : 1-# 00 F ... : ... .. . ... ... : F-4 01 6 ... ... : F-5 01 6 ... ... : A-2 01 F P81 ...
ROW E3 : ... .. E ... ... ... : ... .. E ... ... ... : ... .. . ... : ... .. C ... : ... .. . ... ... : ... .. . ... ... : ... .. . ... ... : ... .. D P80 ...
ROW E4 : ... .. D ... ... ... : ... .. D ... ... ... : ... .. . ... : ... .. 6 ... : ... .. . ... ... : ... .. 5 ... ... : ... .. 5 ... ... : ... .. 8 P7E ...
ROW E5 : ... .. 2 ... ... ... : ... .. 2 ... ... ... : ... .. . ... : ... .. 3 ... : ... .. . ... ... : ... .. 4 ... ... : ... .. 4 ... ... : ... .. . P7D ...
ROW E6 : ... .. . ... ... ... : ... .. . ... ... ... : ... .. . ... : ... .. 2 ... : ... .. . ... ... : ... .. . ... ... : ... .. . ... ... : ... .. . ... ...
ROW E7 : ... .. . ... ... ... : ... .. . ... ... ... : --- .. . ... : ... .. 0 ... : ... .. . ... ... : ... .. . ... ... : ... .. . ... ... : --- .. . P81 ...
ROW E8 : C-3 00 F ... ... ... : G-3 00 F ... ... ... : G#3 00 . ... : 5-# 00 F ... : ... .. . ... ... : E-4 01 6 ... ... : E-5 01 6 ... ... : A-1 01 F ... ...
ROW E9 : ... .. E ... ... ... : ... .. E ... ... ... : A#2 00 . ... : ... .. C ... : ... .. . ... ... : ... .. . ... ... : ... .. . ... ... : ... .. D P83 ...
ROW EA : ... .. D ... ... ... : ... .. D ... ... ... : D#2 00 . ... : ... .. 6 ... : ... .. . ... ... : ... .. 5 ... ... : ... .. 5 ... ... : ... .. 8 ... ...
ROW EB : ... .. A ... ... ... : ... .. A ... ... ... : D-2 00 . ... : ... .. 3 ... : ... .. . ... ... : ... .. 4 ... ... : ... .. 4 ... ... : ... .. . P82 ...
ROW EC : ... .. . ... ... ... : ... .. . ... ... ... : A-1 00 . ... : ... .. 2 ... : ... .. . ... ... : ... .. . ... ... : ... .. . ... ... : ... .. . P80 ...
ROW ED : ... .. . ... ... ... : ... .. . ... ... ... : ... .. . ... : ... .. 0 ... : ... .. . ... ... : ... .. . ... ... : ... .. . ... ... : --- .. . P7F ...
ROW EE : F#2 00 F ... ... ... : C#3 00 F ... ... ... : ... .. . ... : B-# 00 F ... : ... .. . ... ... : F-4 01 6 ... ... : F-5 01 6 ... ... : A-1 01 F P7D ...
ROW EF : ... .. E ... ... ... : ... .. E ... ... ... : ... .. . ... : ... .. C ... : ... .. . ... ... : ... .. . ... ... : ... .. . ... ... : ... .. D ... ...
ROW F0 : ... .. D ... ... ... : ... .. D ... ... ... : ... .. . ... : ... .. 6 ... : ... .. . ... ... : ... .. 5 ... ... : ... .. 5 ... ... : ... .. 8 P7F ...
ROW F1 : ... .. A ... ... ... : ... .. A ... ... ... : ... .. . ... : ... .. 3 ... : ... .. . ... ... : ... .. 4 ... ... : ... .. 4 ... ... : ... .. . P81 ...
ROW F2 : ... .. . ... ... ... : ... .. . ... ... ... : ... .. . ... : ... .. 2 ... : ... .. . ... ... : ... .. . ... ... : ... .. . ... ... : ... .. . P83 ...
ROW F3 : ... .. . ... ... ... : ... .. . ... ... ... : --- .. . ... : ... .. 0 ... : ... .. . ... ... : ... .. . ... ... : ... .. . ... ... : --- .. . P82 ...
ROW F4 : F-2 00 A P84 ... ... : C-3 00 A P79 ... ... : A-1 00 . ... : 1-# 00 F ... : ... .. . ... ... : E-4 01 6 ... ... : E-5 01 6 ... ... : A-1 01 F ... ...
ROW F5 : E-2 00 A P8A ... ... : A#2 00 A P8D ... ... : ... .. . ... : ... .. C ... : ... .. . ... ... : ... .. . ... ... : ... .. . ... ... : ... .. D P80 ...
ROW F6 : D#2 00 A P92 ... ... : A-2 00 A P89 ... ... : ... .. . ... : ... .. 6 ... : ... .. . ... ... : ... .. 5 ... ... : ... .. 5 ... ... : ... .. 8 P7E ...
ROW F7 : ... .. . P72 ... ... : G#2 00 A P88 ... ... : ... .. . ... : ... .. 3 ... : ... .. . ... ... : ... .. 4 ... ... : ... .. 4 ... ... : ... .. . P7D ...
ROW F8 : D-2 00 A P7D ... ... : G-2 00 A ... ... ... : ... .. . ... : ... .. 2 ... : ... .. . ... ... : ... .. . ... ... : ... .. . ... ... : ... .. . ... ...
ROW F9 : C#2 00 A P8A ... ... : F#2 00 A P8A ... ... : --- .. . ... : ... .. 0 ... : ... .. . ... ... : ... .. . ... ... : ... .. . ... ... : --- .. . P84 ...
ROW FA : F#2 00 F P80 ... ... : C#3 00 F P81 ... ... : A-1 00 . ... : B-# 00 F ... : ... .. . ... ... : A-3 01 6 ... ... : A-4 01 6 ... ... : A-1 01 F P80 ...
ROW FB : ... .. E ... ... ... : ... .. E ... ... ... : ... .. . ... : ... .. C ... : ... .. . ... ... : ... .. . ... ... : ... .. . ... ... : ... .. D P83 ...
ROW FC : ... .. D ... ... ... : ... .. D ... ... ... : ... .. . ... : ... .. 6 ... : ... .. . ... ... : ... .. 5 ... ... : ... .. 5 ... ... : ... .. 8 ... ...
ROW FD : ... .. 2 ... ... ... : ... .. 2 ... ... ... : ... .. . ... : ... .. 3 ... : ... .. . ... ... : ... .. 4 ... ... : ... .. 4 ... ... : ... .. . P82 ...
ROW FE : ... .. . ... ... ... : ... .. . ... ... ... : ... .. . ... : ... .. 2 ... : ... .. . ... ... : ... .. . ... ... : ... .. . ... ... : ... .. . P80 ...
ROW FF : ... .. . ... ... ... : ... .. . ... ... ... : --- .. . ... : ... .. 0 ... : ... .. . ... ... : ... .. . ... ... : ... .. . ... ... : --- .. . P7F ...

PATTERN 18
ROW 00 : G-2 00 F ... ... ... : D-3 00 F ... ... ... : F#4 00 . ... : ... .. F ... : ... .. . ... ... : E-3 01 6 ... ... : E-4 01 6 ... ... : G-2 01 F P7D ...
ROW 01 : ... .. E ... ... ... : ... .. E ... ... ... : G#3 00 . ... : ... .. C ... : ... .. . ... ... : ... .. . ... ... : ... .. . ... ... : ... .. D ... ...
ROW 02 : ... .. D ... ... ... : ... .. D ... ... ... : C#3 00 . ... : ... .. 6 ... : ... .. . ... ... : ... .. 5 ... ... : ... .. 5 ... ... : ... .. 8 P7F ...
ROW 03 : ... .. 2 ... ... ... : ... .. 2 ... ... ... : C-3 00 . ... : ... .. 3 ... : ... .. . ... ... : ... .. 4 ... ... : ... .. 4 ... ... : ... .. . P80 ...
ROW 04 : ... .. . ... ... ... : ... .. . ... ... ... : G-2 00 . ... : ... .. 2 ... : ... .. . ... ... : ... .. . ... ... : ... .. . ... ... : ... .. . P82 ...
ROW 05 : ... .. . ... ... ... : ... .. . ... ... ... : ... .. . ... : ... .. 0 ... : ... .. . ... ... : ... .. . ... ... : ... .. . ... ... : --- .. . P7F ...
ROW 06 : C-2 00 F ... ... ... : G-2 00 F ... ... ... : A-2 00 . ... : 9-# 00 F ... : ... .. . ... ... : D#3 01 6 ... ... : D#4 01 6 ... ... : A-2 01 F P83 ...
ROW 07 : ... .. E ... ... ... : ... .. E ... ... ... : ... .. . ... : ... .. C ... : ... .. . ... ... : ... .. . ... ... : ... .. . ... ... : ... .. D P80 ...
ROW 08 : ... .. D ... ... ... : ... .. D ... ... ... : ... .. . ... : ... .. 6 ... : ... .. . ... ... : ... .. 5 ... ... : ... .. 5 ... ... : ... .. 8 P7F ...
ROW 09 : ... .. 8 ... ... ... : ... .. 8 ... ... ... : ... .. . ... : ... .. 3 ... : ... .. . ... ... : ... .. 4 ... ... : ... .. 4 ... ... : ... .. . P7D ...
ROW 0A : ... .. . ... ... ... : ... .. . ... ... ... : ... .. . ... : ... .. 2 ... : ... .. . ... ... : ... .. . ... ... : ... .. . ... ... : ... .. . ... ...
ROW 0B : ... .. . ... ... ... : ... .. . ... ... ... : --- .. . ... : ... .. 0 ... : ... .. . ... ... : ... .. . ... ... : ... .. . ... ... : --- .. . P81 ...
ROW 0C : ... .. 7 ... ... ... : ... .. 7 ... ... ... : A-2 00 . ... : 7-# 00 F ... : ... .. . ... ... : A-2 01 6 ... ... : A-3 01 6 ... ... : A-2 01 F P80 ...
ROW 0D : ... .. . ... ... ... : ... .. . ... ... ... : ... .. . ... : ... .. C ... : ... .. . ... ... : ... .. . ... ... : ... .. . ... ... : ... .. D P82 ...
ROW 0E : ... .. . ... ... ... : ... .. . ... ... ... : ... .. . ... : ... .. 6 ... : ... .. . ... ... : ... .. 5 ... ... : ... .. 5 ... ... : ... .. 8 P83 ...
ROW 0F : ... .. 6 ... ... ... : ... .. 6 ... ... ... : ... .. . ... : ... .. 3 ... : ... .. . ... ... : ... .. 4 ... ... : ... .. 4 ... ... : ... .. . ... ...
ROW 10 : ... .. . ... ... ... : ... .. . ... ... ... : ... .. . ... : ... .. 2 ... : ... .. . ... ... : ... .. . ... ... : ... .. . ... ... : ... .. . P81 ...
ROW 11 : ... .. . ... ... ... : ... .. . ... ... ... : --- .. . ... : ... .. 0 ... : ... .. . ... ... : ... .. . ... ... : ... .. . ... ... : --- .. . ... ...
ROW 12 : ... .. 5 P8D ... ... : ... .. 5 P8E ... ... : A-2 00 . ... : 5-# 00 F ... : ... .. . ... ... : E-2 01 6 ... ... : E-3 01 6 ... ... : A-2 01 F P7D ...
ROW 13 : ... .. . P95 ... ... : G#2 00 5 P76 ... ... : ... .. . ... : ... .. C ... : ... .. . ... ... : ... .. . ... ... : ... .. . ... ... : ... .. D ... ...
ROW 14 : ... .. . P92 ... ... : ... .. . P73 ... ... : ... .. . ... : ... .. 6 ... : ... .. . ... ... : ... .. 5 ... ... : ... .. 5 ... ... : ... .. 8 P7E ...
ROW 15 : ... .. . P86 ... ... : G-2 00 5 P87 ... ... : ... .. . ... : ... .. 3 ... : ... .. . ... ... : ... .. 4 ... ... : ... .. 4 ... ... : ... .. . P80 ...
ROW 16 : ... .. . P7A ... ... : ... .. . P7B ... ... : ... .. . ... : ... .. 2 ... : ... .. . ... ... : ... .. . ... ... : ... .. . ... ... : ... .. . P82 ...
ROW 17 : ... .. . P6E ... ... : F#2 00 5 P91 ... ... : --- .. . ... : ... .. 0 ... : ... .. . ... ... : ... .. . ... ... : ... .. . ... ... : --- .. . ... ...
ROW 18 : ... .. 6 P6B ... ... : ... .. 6 P8E ... ... : A-4 00 . ... : 1-# 00 F ... : ... .. . ... ... : D#2 01 6 ... ... : D#3 01 6 ... ... : A#2 01 F P83 ...
ROW 19 : ... .. . P73 ... ... : G-2 00 6 P74 ... ... : B-3 00 . ... : ... .. C ... : ... .. . ... ... : ... .. . ... ... : ... .. . ... ... : ... .. D P81 ...
ROW 1A : ... .. . P80 ... ... : ... .. . P81 ... ... : E-3 00 . ... : ... .. 6 ... : ... .. . ... ... : ... .. 5 ... ... : ... .. 5 ... ... : ... .. 8 P80 ...
ROW 1B : ... .. . P8C ... ... : ... .. . P8D ... ... : D#3 00 . ... : ... .. 3 ... : ... .. . ... ... : ... .. 4 ... ... : ... .. 4 ... ... : ... .. . P7D ...
ROW 1C : ... .. . P95 ... ... : G#2 00 6 P76 ... ... : A#2 00 . ... : ... .. 2 ... : ... .. . ... ... : ... .. . ... ... : ... .. . ... ... : ... .. . ... ...
ROW 1D : ... .. . P93 ... ... : ... .. . P74 ... ... : ... .. . ... : ... .. 0 ... : ... .. . ... ... : ... .. . ... ... : ... .. . ... ... : --- .. . P7F ...
ROW 1E : ... .. 7 P88 ... ... : G-2 00 7 P89 ... ... : ... .. . ... : B-# 00 F ... : ... .. . ... ... : E-2 01 6 ... ... : E-3 01 6 ... ... : A#2 01 F P80 ...
ROW 1F : ... .. . P7C ... ... : ... .. . P7D ... ... : ... .. . ... : ... .. C ... : ... .. . ... ... : ... .. . ... ... : ... .. . ... ... : ... .. D P81 ...
ROW 20 : ... .. . P6F ... ... : ... .. . P70 ... ... : ... .. . ... : ... .. 6 ... : ... .. . ... ... : ... .. 5 ... ... : ... .. 5 ... ... : ... .. 8 P83 ...
ROW 21 : ... .. 8 P6B ... ... : F#2 00 8 P8E ... ... : ... .. . ... : ... .. 3 ... : ... .. . ... ... : ... .. 4 ... ... : ... .. 4 ... ... : ... .. . ... ...
ROW 22 : ... .. . P71 ... ... : G-2 00 8 P72 ... ... : ... .. . ... : ... .. 2 ... : ... .. . ... ... : ... .. . ... ... : ... .. . ... ... : ... .. . P81 ...
ROW 23 : ... .. . P7E ... ... : ... .. . P7F ... ... : --- .. . ... : ... .. 0 ... : ... .. . ... ... : ... .. . ... ... : ... .. . ... ... : --- .. . ... ...
ROW 24 : ... .. . P8A ... ... : ... .. . P8B ... ... : A#2 00 . ... : 1-# 00 F ... : ... .. . ... ... : A-2 01 6 ... ... : A-3 01 6 ... ... : A#2 01 F P7E ...
ROW 25 : ... .. . P94 ... ... : G#2 00 8 P75 ... ... : ... .. . ... : ... .. C ... : ... .. . ... ... : ... .. . ... ... : ... .. . ... ... : ... .. D P7D ...
ROW 26 : ... .. . ... ... ... : ... .. . ... ... ... : ... .. . ... : ... .. 6 ... : ... .. . ... ... : ... .. 5 ... ... : ... .. 5 ... ... : ... .. 8 ... ...
ROW 27 : ... .. 9 P8A ... ... : G-2 00 9 P8B ... ... : ... .. . ... : ... .. 3 ... : ... .. . ... ... : ... .. 4 ... ... : ... .. 4 ... ... : ... .. . P80 ...
ROW 28 : ... .. . P7E ... ... : ... .. . P7F ... ... : ... .. . ... : ... .. 2 ... : ... .. . ... ... : ... .. . ... ... : ... .. . ... ... : ... .. . P81 ...
ROW 29 : ... .. . P71 ... ... : ... .. . P72 ... ... : --- .. . ... : ... .. 0 ... : ... .. . ... ... : ... .. . ... ... : ... .. . ... ... : --- .. . ... ...
ROW 2A : ... .. A P6B ... ... : F#2 00 A P8E ... ... : C-3 00 . ... : 7-# 00 F ... : ... .. . ... ... : A#2 01 6 ... ... : A#3 01 6 ... ... : C-3 01 F P83 ...
ROW 2B : ... .. . P6F ... ... : G-2 00 A P70 ... ... : ... .. . ... : ... .. C ... : ... .. . ... ... : ... .. . ... ... : ... .. . ... ... : ... .. D P82 ...
ROW 2C : ... .. . P7C ... ... : ... .. . P7D ... ... : ... .. . ... : ... .. 6 ... : ... .. . ... ... : ... .. 5 ... ... : ... .. 5 ... ... : ... .. 8 P80 ...
ROW 2D : ... .. . P88 ... ... : ... .. . P89 ... ... : ... .. . ... : ... .. 3 ... : ... .. . ... ... : ... .. 4 ... ... : ... .. 4 ... ... : ... .. . P7E ...
ROW 2E : ... .. . P93 ... ... : G#2 00 A P74 ... ... : ... .. . ... : ... .. 2 ... : ... .. . ... ... : ... .. . ... ... : ... .. . ... ... : ... .. . P7D ...
ROW 2F : ... .. . P95 ... ... : ... .. . P76 ... ... : --- .. . ... : ... .. 0 ... : ... .. . ... ... : ... .. . ... ... : ... .. . ... ... : --- .. . P7B ...
ROW 30 : D#2 00 F P80 ... ... : A#2 00 F P81 ... ... : C-5 00 . ... : B-# 00 F ... : ... .. . ... ... : E-3 01 6 ... ... : E-4 01 6 ... ... : C#3 01 F P7F ...
ROW 31 : ... .. E ... ... ... : ... .. E ... ... ... : D-4 00 . ... : ... .. C ... : ... .. . ... ... : ... .. . ... ... : ... .. . ... ... : ... .. D P81 ...
ROW 32 : ... .. D ... ... ... : ... .. D ... ... ... : G-3 00 . ... : ... .. 6 ... : ... .. . ... ... : ... .. 5 ... ... : ... .. 5 ... ... : ... .. 8 P83 ...
ROW 33 : ... .. A ... ... ... : ... .. A ... ... ... : F#3 00 . ... : ... .. 3 ... : ... .. . ... ... : ... .. 4 ... ... : ... .. 4 ... ... : ... .. . ... ...
ROW 34 : ... .. . ... ... ... : ... .. . ... ... ... : C#3 00 . ... : ... .. 2 ... : ... .. . ... ... : ... .. . ... ... : ... .. . ... ... : ... .. . P82 ...
ROW 35 : ... .. . ... ... ... : ... .. . ... ... ... : ... .. . ... : ... .. 0 ... : ... .. . ... ... : ... .. . ... ... : ... .. . ... ... : --- .. . ... ...
ROW 36 : D#3 00 F ... ... ... : A#3 00 F ... ... ... : ... .. . ... : 7-# 00 F ... : ... .. . ... ... : F-3 01 6 ... ... : F-4 01 6 ... ... : C#3 01 F P7E ...
ROW 37 : ... .. E ... ... ... : ... .. E ... ... ... : ... .. . ... : ... .. C ... : ... .. . ... ... : ... .. . ... ... : ... .. . ... ... : ... .. D P7D ...
ROW 38 : ... .. D ... ... ... : ... .. D ... ... ... : ... .. . ... : ... .. 6 ... : ... .. . ... ... : ... .. 5 ... ... : ... .. 5 ... ... : ... .. 8 ... ...
ROW 39 : ... .. 2 ... ... ... : ... .. 2 ... ... ... : ... .. . ... : ... .. 3 ... : ... .. . ... ... : ... .. 4 ... ... : ... .. 4 ... ... : ... .. . P7F ...
ROW 3A : ... .. . ... ... ... : ... .. . ... ... ... : ... .. . ... : ... .. 2 ... : ... .. . ... ... : ... .. . ... ... : ... .. . ... ... : ... .. . P80 ...
ROW 3B : ... .. . ... ... ... : ... .. . ... ... ... : --- .. . ... : ... .. 0 ... : ... .. . ... ... : ... .. . ... ... : ... .. . ... ... : --- .. . ... ...
ROW 3C : D-3 00 F ... ... ... : A-3 00 F ... ... ... : D#3 00 . ... : 1-# 00 F ... : ... .. . ... ... : A-3 01 6 ... ... : A-4 01 6 ... ... : D#3 01 F P83 ...
ROW 3D : ... .. E ... ... ... : ... .. E ... ... ... : ... .. . ... : ... .. C ... : ... .. . ... ... : ... .. . ... ... : ... .. . ... ... : ... .. D P82 ...
ROW 3E : ... .. D ... ... ... : ... .. D ... ... ... : ... .. . ... : ... .. 6 ... : ... .. . ... ... : ... .. 5 ... ... : ... .. 5 ... ... : ... .. 8 P80 ...
ROW 3F : ... .. 2 ... ... ... : ... .. 2 ... ... ... : ... .. . ... : ... .. 3 ... : ... .. . ... ... : ... .. 4 ... ... : ... .. 4 ... ... : ... .. . P7F ...
ROW 40 : ... .. . ... ... ... : ... .. . ... ... ... : ... .. . ... : ... .. 2 ... : ... .. . ... ... : ... .. . ... ... : ... .. . ... ... : ... .. . P7D ...
ROW 41 : ... .. . ... ... ... : ... .. . ... ... ... : --- .. . ... : ... .. 0 ... : ... .. . ... ... : ... .. . ... ... : ... .. . ... ... : --- .. . P7C ...
ROW 42 : A-2 00 F ... ... ... : E-3 00 F ... ... ... : D#3 00 . ... : B-# 00 F ... : ... .. . ... ... : A#3 01 6 ... ... : A#4 01 6 ... ... : D#3 01 F P7F ...
ROW 43 : ... .. E ... ... ... : ... .. E ... ... ... : ... .. . ... : ... .. C ... : ... .. . ... ... : ... .. . ... ... : ... .. . ... ... : ... .. D P80 ...
ROW 44 : ... .. D ... ... ... : ... .. D ... ... ... : ... .. . ... : ... .. 6 ... : ... .. . ... ... : ... .. 5 ... ... : ... .. 5 ... ... : ... .. 8 P82 ...
ROW 45 : ... .. A ... ... ... : ... .. A ... ... ... : ... .. . ... : ... .. 3 ... : ... .. . ... ... : ... .. 4 ... ... : ... .. 4 ... ... : ... .. . P83 ...
ROW 46 : ... .. . ... ... ... : ... .. . ... ... ... : ... .. . ... : ... .. 2 ... : ... .. . ... ... : ... .. . ... ... : ... .. . ... ... : ... .. . ... ...
ROW 47 : ... .. . ... ... ... : ... .. . ... ... ... : --- .. . ... : ... .. 0 ... : ... .. . ... ... : ... .. . ... ... : ... .. . ... ... : --- .. . P82 ...
ROW 48 : G#2 00 A P7F ... ... : D#3 00 A P76 ... ... : G#4 00 . ... : 1-# 00 F ... : ... .. . ... ... : A-3 01 6 ... ... : A-4 01 6 ... ... : A-2 01 F P7F ...
ROW 49 : G-2 00 A ... ... ... : C#3 00 A P82 ... ... : A#3 00 . ... : ... .. C ... : ... .. . ... ... : ... .. . ... ... : ... .. . ... ... : ... .. D P7D ...
ROW 4A : F#2 00 A P81 ... ... : C-3 00 A P7A ... ... : D#3 00 . ... : ... .. 6 ... : ... .. . ... ... : ... .. 5 ... ... : ... .. 5 ... ... : ... .. 8 ... ...
ROW 4B : F-2 00 A P85 ... ... : B-2 00 A P73 ... ... : D-3 00 . ... : ... .. 3 ... : ... .. . ... ... : ... .. 4 ... ... : ... .. 4 ... ... : ... .. . P7E ...
ROW 4C : E-2 00 A P8B ... ... : A-2 00 A P8A ... ... : A-2 00 . ... : ... .. 2 ... : ... .. . ... ... : ... .. . ... ... : ... .. . ... ... : ... .. . P80 ...
ROW 4D : D#2 00 A P93 ... ... : G#2 00 A P89 ... ... : ... .. . ... : ... .. 0 ... : ... .. . ... ... : ... .. . ... ... : ... .. . ... ... : --- .. . ... ...
ROW 4E : ... .. . P73 ... ... : G-2 00 A ... ... ... : ... .. . ... : 7-# 00 F ... : ... .. . ... ... : A#3 01 6 ... ... : A#4 01 6 ... ... : A-2 01 F P83 ...
ROW 4F : D-2 00 A P7E ... ... : F#2 00 A P8B ... ... : ... .. . ... : ... .. C ... : ... .. . ... ... : ... .. . ... ... : ... .. . ... ... : ... .. D ... ...
ROW 50 : C#2 00 A P8B ... ... : F-2 00 A P8F ... ... : ... .. . ... : ... .. 6 ... : ... .. . ... ... : ... .. 5 ... ... : ... .. 5 ... ... : ... .. 8 P81 ...
ROW 51 : ... .. . P6B ... ... : ... .. . P6F ... ... : ... .. . ... : ... .. 3 ... : ... .. . ... ... : ... .. 4 ... ... : ... .. 4 ... ... : ... .. . P7F ...
ROW 52 : C-2 00 A P7B ... ... : E-2 00 A P75 ... ... : ... .. . ... : ... .. 2 ... : ... .. . ... ... : ... .. . ... ... : ... .. . ... ... : ... .. . P7D ...
ROW 53 : B-1 00 A P8E ... ... : D#2 00 A P7D ... ... : --- .. . ... : ... .. 0 ... : ... .. . ... ... : ... .. . ... ... : ... .. . ... ... : --- .. . P81 ...
ROW 54 : G-2 00 F P80 ... ... : D-3 00 F P81 ... ... : A-2 00 . ... : B-# 00 F ... : ... .. . ... ... : A-3 01 6 ... ... : A-4 01 6 ... ... : A-2 01 F P7E ...
ROW 55 : ... .. E ... ... ... : ... .. E ... ... ... : ... .. . ... : ... .. C ... : ... .. . ... ... : ... .. . ... ... : ... .. . ... ... : ... .. D P80 ...
ROW 56 : ... .. D ... ... ... : ... .. D ... ... ... : ... .. . ... : ... .. 6 ... : ... .. . ... ... : ... .. 5 ... ... : ... .. 5 ... ... : ... .. 8 P82 ...
ROW 57 : ... .. A ... ... ... : ... .. A ... ... ... : ... .. . ... : ... .. 3 ... : ... .. . ... ... : ... .. 4 ... ... : ... .. 4 ... ... : ... .. . P83 ...
ROW 58 : ... .. . ... ... ... : ... .. . ... ... ... : ... .. . ... : ... .. 2 ... : ... .. . ... ... : ... .. . ... ... : ... .. . ... ... : ... .. . ... ...
ROW 59 : ... .. . ... ... ... : ... .. . ... ... ... : --- .. . ... : ... .. 0 ... : ... .. . ... ... : ... .. . ... ... : ... .. . ... ... : --- .. . P7F ...
ROW 5A : A-2 00 F ... ... ... : E-3 00 F ... ... ... : A-2 00 . ... : 1-# 00 F ... : ... .. . ... ... : E-3 01 6 ... ... : E-4 01 6 ... ... : A-2 01 F P80 ...
ROW 5B : ... .. E ... ... ... : ... .. E ... ... ... : ... .. . ... : ... .. C ... : ... .. . ... ... : ... .. . ... ... : ... .. . ... ... : ... .. D P7D ...
ROW 5C : ... .. D ... ... ... : ... .. D ... ... ... : ... .. . ... : ... .. 6 ... : ... .. . ... ... : ... .. 5 ... ... : ... .. 5 ... ... : ... .. 8 ... ...
ROW 5D : ... .. 2 ... ... ... : ... .. 2 ... ... ... : ... .. . ... : ... .. 3 ... : ... .. . ... ... : ... .. 4 ... ... : ... .. 4 ... ... : ... .. . P7E ...
ROW 5E : ... .. . ... ... ... : ... .. . ... ... ... : ... .. . ... : ... .. 2 ... : ... .. . ... ... : ... .. . ... ... : ... .. . ... ... : ... .. . P80 ...
ROW 5F : ... .. . ... ... ... : ... .. . ... ... ... : --- .. . ... : ... .. 0 ... : ... .. . ... ... : ... .. . ... ... : ... .. . ... ... : --- .. . ... ...
ROW 60 : A#2 00 F ... ... ... : F-3 00 F ... ... ... : F#5 00 . ... : ... .. F ... : ... .. . ... ... : D#3 01 6 ... ... : D#4 01 6 ... ... : G-3 01 F P83 ...
ROW 61 : ... .. E ... ... ... : ... .. E ... ... ... : G#4 00 . ... : ... .. C ... : ... .. . ... ... : ... .. . ... ... : ... .. . ... ... : ... .. D ... ...
ROW 62 : ... .. D ... ... ... : ... .. D ... ... ... : C#4 00 . ... : ... .. 6 ... : ... .. . ... ... : ... .. 5 ... ... : ... .. 5 ... ... : ... .. 8 P81 ...
ROW 63 : ... .. A ... ... ... : ... .. A ... ... ... : C-4 00 . ... : ... .. 3 ... : ... .. . ... ... : ... .. 4 ... ... : ... .. 4 ... ... : ... .. . P80 ...
ROW 64 : ... .. . ... ... ... : ... .. . ... ... ... : G-3 00 . ... : ... .. 2 ... : ... .. . ... ... : ... .. . ... ... : ... .. . ... ... : ... .. . P7E ...
ROW 65 : ... .. . ... ... ... : ... .. . ... ... ... : ... .. . ... : ... .. 0 ... : ... .. . ... ... : ... .. . ... ... : ... .. . ... ... : --- .. . P81 ...
ROW 66 : A-2 00 F ... ... ... : E-3 00 F ... ... ... : A-3 00 . ... : B-# 00 F ... : ... .. . ... ... : A-2 01 6 ... ... : A-3 01 6 ... ... : A-3 01 F P7D ...
ROW 67 : ... .. E ... ... ... : ... .. E ... ... ... : ... .. . ... : ... .. C ... : ... .. . ... ... : ... .. . ... ... : ... .. . ... ... : ... .. D P80 ...
ROW 68 : ... .. D ... ... ... : ... .. D ... ... ... : ... .. . ... : ... .. 6 ... : ... .. . ... ... : ... .. 5 ... ... : ... .. 5 ... ... : ... .. 8 P81 ...
ROW 69 : ... .. 2 ... ... ... : ... .. 2 ... ... ... : ... .. . ... : ... .. 3 ... : ... .. . ... ... : ... .. 4 ... ... : ... .. 4 ... ... : ... .. . P83 ...
ROW 6A : ... .. . ... ... ... : ... .. . ... ... ... : ... .. . ... : ... .. 2 ... : ... .. . ... ... : ... .. . ... ... : ... .. . ... ... : ... .. . ... ...
ROW 6B : ... .. . ... ... ... : ... .. . ... ... ... : --- .. . ... : ... .. 0 ... : ... .. . ... ... : ... .. . ... ... : ... .. . ... ... : --- .. . P80 ...
ROW 6C : C#3 00 F ... ... ... : G#3 00 F ... ... ... : D#4 00 . ... : 1-# 00 F ... : ... .. . ... ... : E-2 01 6 ... ... : E-3 01 6 ... ... : D#4 01 F ... ...
ROW 6D : ... .. E P89 ... ... : A-3 00 E P7B ... ... : ... .. . ... : ... .. C ... : ... .. . ... ... : ... .. . ... ... : ... .. . ... ... : ... .. D P7E ...
ROW 6E : D-3 00 D P7B ... ... : ... .. D P84 ... ... : ... .. . ... : ... .. 6 ... : ... .. . ... ... : ... .. 5 ... ... : ... .. 5 ... ... : ... .. 8 P7D ...
ROW 6F : ... .. A P84 ... ... : A#3 00 A P7F ... ... : ... .. . ... : ... .. 3 ... : ... .. . ... ... : ... .. 4 ... ... : ... .. 4 ... ... : ... .. . ... ...
ROW 70 : D#3 00 A P78 ... ... : ... .. . P81 ... ... : ... .. . ... : ... .. 2 ... : ... .. . ... ... : ... .. . ... ... : ... .. . ... ... : ... .. . P7F ...
ROW 71 : ... .. . P80 ... ... : ... .. . ... ... ... : ... .. . ... : ... .. 0 ... : ... .. . ... ... : ... .. . ... ... : ... .. . ... ... : ... .. . P81 ...
ROW 72 : ... .. . ... ... ... : ... .. . ... ... ... : ... .. . ... : 7-# 00 F ... : ... .. . ... ... : D#2 01 6 ... ... : D#3 01 6 ... ... : ... .. . P83 ...
ROW 73 : ... .. . ... ... ... : ... .. . ... ... ... : ... .. . ... : ... .. C ... : ... .. . ... ... : ... .. . ... ... : ... .. . ... ... : ... .. . ... ...
ROW 74 : ... .. . ... ... ... : ... .. . ... ... ... : ... .. . ... : ... .. 6 ... : ... .. . ... ... : ... .. 5 ... ... : ... .. 5 ... ... : ... .. . P82 ...
ROW 75 : ... .. . ... ... ... : ... .. . ... ... ... : ... .. . ... : ... .. 3 ... : ... .. . ... ... : ... .. 4 ... ... : ... .. 4 ... ... : ... .. . P80 ...
ROW 76 : ... .. . ... ... ... : ... .. . ... ... ... : ... .. . ... : ... .. 2 ... : ... .. . ... ... : ... .. . ... ... : ... .. . ... ... : ... .. . P7E ...
ROW 77 : ... .. . ... ... ... : ... .. . ... ... ... : ... .. . ... : ... .. 0 ... : ... .. . ... ... : ... .. . ... ... : ... .. . ... ... : ... .. . P7D ...
ROW 78 : E-3 00 A P78 ... ... : B-3 00 A P80 ... ... : D-6 00 . ... : B-# 00 F ... : ... .. . ... ... : E-2 01 6 ... ... : E-3 01 6 ... ... : C-4 01 8 P84 ...
ROW 79 : ... .. . P80 ... ... : C-4 00 A P7C ... ... : E-5 00 . ... : ... .. C ... : ... .. . ... ... : ... .. . ... ... : ... .. . ... ... : A#3 01 8 ... ...
ROW 7A : ... .. . P7D ... ... : B-3 00 A P85 ... ... : A-4 00 . ... : ... .. 6 ... : ... .. . ... ... : ... .. 5 ... ... : ... .. 5 ... ... : G#3 01 8 P87 ...
ROW 7B : D#3 00 A P86 ... ... : A#3 00 A P87 ... ... : G#4 00 . ... : ... .. 3 ... : ... .. . ... ... : ... .. 4 ... ... : ... .. 4 ... ... : G-3 01 8 P7C ...
ROW 7C : ... .. . P7A ... ... : ... .. . P7B ... ... : D#4 00 . ... : ... .. 2 ... : ... .. . ... ... : ... .. . ... ... : ... .. . ... ... : F-3 01 8 P84 ...
ROW 7D : D-3 00 A P83 ... ... : A-3 00 A P7D ... ... : ... .. . ... : ... .. 0 ... : ... .. . ... ... : ... .. . ... ... : ... .. . ... ... : E-3 01 8 P79 ...
ROW 7E : ... .. 1 P80 ... ... : ... .. 1 P7A ... ... : C-4 00 . P82 : 7-# 00 F ... : ... .. . ... ... : A-2 01 6 ... ... : A-3 01 6 ... ... : D-3 01 8 P86 ...
ROW 7F : ... .. . P88 ... ... : ... .. . P82 ... ... : A#3 00 . P7C : ... .. C ... : ... .. . ... ... : ... .. . ... ... : ... .. . ... ... : C#3 01 8 P7F ...
ROW 80 : D#3 00 1 P80 ... ... : A#3 00 1 P81 ... ... : G#3 00 . P79 : ... .. 6 ... : ... .. . ... ... : ... .. 5 ... ... : ... .. 5 ... ... : C-3 01 8 P79 ...
ROW 81 : E-3 00 1 P77 ... ... : B-3 00 1 P7F ... ... : F#3 00 . P7A : ... .. 3 ... : ... .. . ... ... : ... .. 4 ... ... : ... .. 4 ... ... : B-2 01 8 P76 ...
ROW 82 : ... .. . P80 ... ... : C-4 00 1 P7C ... ... : E-3 00 . P7F : ... .. 2 ... : ... .. . ... ... : ... .. . ... ... : ... .. . ... ... : A#2 01 8 ... ...
ROW 83 : ... .. . P7E ... ... : B-3 00 1 P86 ... ... : D-3 00 . P89 : ... .. 0 ... : ... .. . ... ... : ... .. . ... ... : ... .. . ... ... : A-2 01 8 P78 ...
ROW 84 : C-3 00 F P80 ... ... : G-3 00 F P81 ... ... : D-4 00 . P80 : B-# 00 F ... : ... .. . ... ... : E-3 01 6 ... ... : E-4 01 6 ... ... : D-4 01 F P82 ...
ROW 85 : ... .. E P89 ... ... : G#3 00 E P7A ... ... : ... .. . ... : ... .. C ... : ... .. . ... ... : ... .. . ... ... : ... .. . ... ... : ... .. D P83 ...
ROW 86 : C#3 00 D P7A ... ... : ... .. D P83 ... ... : ... .. . ... : ... .. 6 ... : ... .. . ... ... : ... .. 5 ... ... : ... .. 5 ... ... : ... .. 8 ... ...
ROW 87 : ... .. A P83 ... ... : A-3 00 A P7D ... ... : ... .. . ... : ... .. 3 ... : ... .. . ... ... : ... .. 4 ... ... : ... .. 4 ... ... : ... .. . P80 ...
ROW 88 : D-3 00 A P75 ... ... : ... .. . P81 ... ... : ... .. . ... : ... .. 2 ... : ... .. . ... ... : ... .. . ... ... : ... .. . ... ... : ... .. . P7F ...
ROW 89 : ... .. . P7E ... ... : ... .. . ... ... ... : ... .. . ... : ... .. 0 ... : ... .. . ... ... : ... .. . ... ... : ... .. . ... ... : ... .. . P7D ...
ROW 8A : ... .. . P80 ... ... : ... .. . ... ... ... : ... .. . ... : 9-# 00 F ... : ... .. . ... ... : F-3 01 6 ... ... : F-4 01 6 ... ... : ... .. . ... ...
ROW 8B : ... .. . ... ... ... : ... .. . ... ... ... : ... .. . ... : ... .. C ... : ... .. . ... ... : ... .. . ... ... : ... .. . ... ... : ... .. . P7E ...
ROW 8C : ... .. . ... ... ... : ... .. . ... ... ... : ... .. . ... : ... .. 6 ... : ... .. . ... ... : ... .. 5 ... ... : ... .. 5 ... ... : ... .. . P80 ...
ROW 8D : ... .. . ... ... ... : ... .. . ... ... ... : ... .. . ... : ... .. 3 ... : ... .. . ... ... : ... .. 4 ... ... : ... .. 4 ... ... : ... .. . P82 ...
ROW 8E : ... .. . ... ... ... : ... .. . ... ... ... : ... .. . ... : ... .. 2 ... : ... .. . ... ... : ... .. . ... ... : ... .. . ... ... : ... .. . P83 ...
ROW 8F : ... .. . ... ... ... : ... .. . ... ... ... : ... .. . ... : ... .. 0 ... : ... .. . ... ... : ... .. . ... ... : ... .. . ... ... : ... .. . ... ...
ROW 90 : D#3 00 A P78 ... ... : A#3 00 A P80 ... ... : C#6 00 . ... : 7-# 00 F ... : ... .. . ... ... : A-3 01 6 ... ... : A-4 01 6 ... ... : C-4 01 8 P7B ...
ROW 91 : ... .. . P80 ... ... : B-3 00 A P7A ... ... : D#5 00 . ... : ... .. C ... : ... .. . ... ... : ... .. . ... ... : ... .. . ... ... : A-3 01 8 P88 ...
ROW 92 : ... .. . P7D ... ... : A#3 00 A P85 ... ... : G#4 00 . ... : ... .. 6 ... : ... .. . ... ... : ... .. 5 ... ... : ... .. 5 ... ... : G-3 01 8 P89 ...
ROW 93 : D-3 00 A P86 ... ... : A-3 00 A P87 ... ... : G-4 00 . ... : ... .. 3 ... : ... .. . ... ... : ... .. 4 ... ... : ... .. 4 ... ... : F#3 01 8 P7D ...
ROW 94 : ... .. . P7A ... ... : ... .. . P7B ... ... : D-4 00 . ... : ... .. 2 ... : ... .. . ... ... : ... .. . ... ... : ... .. . ... ... : E-3 01 8 P88 ...
ROW 95 : C#3 00 A P85 ... ... : G#3 00 A P7E ... ... : ... .. . ... : ... .. 0 ... : ... .. . ... ... : ... .. . ... ... : ... .. . ... ... : D#3 01 8 P81 ...
ROW 96 : ... .. 1 P82 ... ... : ... .. 1 P7B ... ... : B-3 00 . P84 : 5-# 00 F ... : ... .. . ... ... : A#3 01 6 ... ... : A#4 01 6 ... ... : D-3 01 8 P7B ...
ROW 97 : ... .. . P8A ... ... : ... .. . P83 ... ... : A-3 00 . P80 : ... .. C ... : ... .. . ... ... : ... .. . ... ... : ... .. . ... ... : C#3 01 8 P76 ...
ROW 98 : D-3 00 1 P80 ... ... : A-3 00 1 P81 ... ... : G-3 00 . P7F : ... .. 6 ... : ... .. . ... ... : ... .. 5 ... ... : ... .. 5 ... ... : C-3 01 8 P72 ...
ROW 99 : D#3 00 1 P77 ... ... : A#3 00 1 P7F ... ... : F-3 00 . P82 : ... .. 3 ... : ... .. . ... ... : ... .. 4 ... ... : ... .. 4 ... ... : A#2 01 8 P8B ...
ROW 9A : ... .. . P80 ... ... : B-3 00 1 P7A ... ... : D#3 00 . P8A : ... .. 2 ... : ... .. . ... ... : ... .. . ... ... : ... .. . ... ... : A-2 01 8 ... ...
ROW 9B : ... .. . P7E ... ... : A#3 00 1 P86 ... ... : D-3 00 . P7F : ... .. 0 ... : ... .. . ... ... : ... .. . ... ... : ... .. . ... ... : G#2 01 8 ... ...
ROW 9C : C-3 00 F P80 ... ... : G-3 00 F P81 ... ... : A-2 00 . P80 : 4-# 00 F ... : ... .. . ... ... : E-4 01 6 ... ... : E-5 01 6 ... ... : A-2 01 F P7D ...
ROW 9D : ... .. E ... ... ... : ... .. E ... ... ... : ... .. . ... : ... .. C ... : ... .. . ... ... : ... .. . ... ... : ... .. . ... ... : ... .. D P7E ...
ROW 9E : ... .. D ... ... ... : ... .. D ... ... ... : ... .. . ... : ... .. 6 ... : ... .. . ... ... : ... .. 5 ... ... : ... .. 5 ... ... : ... .. 8 P80 ...
ROW 9F : ... .. 2 ... ... ... : ... .. 2 ... ... ... : ... .. . ... : ... .. 3 ... : ... .. . ... ... : ... .. 4 ... ... : ... .. 4 ... ... : ... .. . P81 ...
ROW A0 : ... .. . ... ... ... : ... .. . ... ... ... : ... .. . ... : ... .. 2 ... : ... .. . ... ... : ... .. . ... ... : ... .. . ... ... : ... .. . P83 ...
ROW A1 : ... .. . ... ... ... : ... .. . ... ... ... : --- .. . ... : ... .. 0 ... : ... .. . ... ... : ... .. . ... ... : ... .. . ... ... : --- .. . P7F ...
ROW A2 : D-3 00 F ... ... ... : A-3 00 F ... ... ... : A-2 00 . ... : 2-# 00 F ... : ... .. . ... ... : F-4 01 6 ... ... : F-5 01 6 ... ... : A-2 01 F P81 ...
ROW A3 : ... .. E ... ... ... : ... .. E ... ... ... : ... .. . ... : ... .. C ... : ... .. . ... ... : ... .. . ... ... : ... .. . ... ... : ... .. D P80 ...
ROW A4 : ... .. D ... ... ... : ... .. D ... ... ... : ... .. . ... : ... .. 6 ... : ... .. . ... ... : ... .. 5 ... ... : ... .. 5 ... ... : ... .. 8 P7E ...
ROW A5 : ... .. 2 ... ... ... : ... .. 2 ... ... ... : ... .. . ... : ... .. 3 ... : ... .. . ... ... : ... .. 4 ... ... : ... .. 4 ... ... : ... .. . P7D ...
ROW A6 : ... .. . ... ... ... : ... .. . ... ... ... : ... .. . ... : ... .. 2 ... : ... .. . ... ... : ... .. . ... ... : ... .. . ... ... : ... .. . ... ...
ROW A7 : ... .. . ... ... ... : ... .. . ... ... ... : --- .. . ... : ... .. 0 ... : ... .. . ... ... : ... .. . ... ... : ... .. . ... ... : --- .. . P81 ...
ROW A8 : G-3 00 F ... ... ... : D-4 00 F ... ... ... : F#5 00 . ... : 5-# 00 D ... : ... .. . ... ... : E-4 01 6 ... ... : E-5 01 6 ... ... : G-3 01 F ... ...
ROW A9 : ... .. E ... ... ... : ... .. E ... ... ... : G#4 00 . ... : ... .. . ... : ... .. . ... ... : ... .. . ... ... : ... .. . ... ... : ... .. D P83 ...
ROW AA : ... .. D ... ... ... : ... .. D ... ... ... : C#4 00 . ... : 1-# 00 D ... : ... .. . ... ... : ... .. 5 ... ... : ... .. 5 ... ... : ... .. 8 ... ...
ROW AB : ... .. A ... ... ... : ... .. A ... ... ... : C-4 00 . ... : F-# 00 6 ... : ... .. . ... ... : ... .. 4 ... ... : ... .. 4 ... ... : ... .. . P82 ...
ROW AC : ... .. . ... ... ... : ... .. . ... ... ... : G-3 00 . ... : B-# 00 1 ... : ... .. . ... ... : ... .. . ... ... : ... .. . ... ... : ... .. . P80 ...
ROW AD : ... .. . ... ... ... : ... .. . ... ... ... : ... .. . ... : ... .. 0 ... : ... .. . ... ... : ... .. . ... ... : ... .. . ... ... : --- .. . P7F ...
ROW AE : A-3 00 F ... ... ... : E-4 00 F ... ... ... : A-3 00 . ... : 5-# 00 D ... : ... .. . ... ... : F-4 01 6 ... ... : F-5 01 6 ... ... : A-3 01 F P7D ...
ROW AF : ... .. E ... ... ... : ... .. E ... ... ... : ... .. . ... : ... .. . ... : ... .. . ... ... : ... .. . ... ... : ... .. . ... ... : ... .. D ... ...
ROW B0 : ... .. D ... ... ... : ... .. D ... ... ... : ... .. . ... : 1-# 00 D ... : ... .. . ... ... : ... .. 5 ... ... : ... .. 5 ... ... : ... .. 8 P7F ...
ROW B1 : ... .. A ... ... ... : ... .. A ... ... ... : ... .. . ... : F-# 00 6 ... : ... .. . ... ... : ... .. 4 ... ... : ... .. 4 ... ... : ... .. . P81 ...
ROW B2 : ... .. . ... ... ... : ... .. . ... ... ... : ... .. . ... : B-# 00 1 ... : ... .. . ... ... : ... .. . ... ... : ... .. . ... ... : ... .. . P83 ...
ROW B3 : ... .. . ... ... ... : ... .. . ... ... ... : --- .. . ... : ... .. 0 ... : ... .. . ... ... : ... .. . ... ... : ... .. . ... ... : --- .. . P80 ...
ROW B4 : A#3 00 F ... ... ... : F-4 00 F ... ... ... : A#3 00 . ... : F-# 00 D ... : ... .. . ... ... : E-4 01 6 ... ... : E-5 01 6 ... ... : A#3 01 F P82 ...
ROW B5 : ... .. E ... ... ... : ... .. E ... ... ... : ... .. . ... : ... .. . ... : ... .. . ... ... : ... .. . ... ... : ... .. . ... ... : ... .. D P80 ...
ROW B6 : ... .. D ... ... ... : ... .. D ... ... ... : ... .. . ... : B-# 00 D ... : ... .. . ... ... : ... .. 5 ... ... : ... .. 5 ... ... : ... .. 8 P7E ...
ROW B7 : ... .. 2 ... ... ... : ... .. 2 ... ... ... : ... .. . ... : 9-# 00 6 ... : ... .. . ... ... : ... .. 4 ... ... : ... .. 4 ... ... : ... .. . P7D ...
ROW B8 : ... .. . ... ... ... : ... .. . ... ... ... : ... .. . ... : 5-# 00 1 ... : ... .. . ... ... : ... .. . ... ... : ... .. . ... ... : ... .. . ... ...
ROW B9 : ... .. . ... ... ... : ... .. . ... ... ... : --- .. . ... : ... .. 0 ... : ... .. . ... ... : ... .. . ... ... : ... .. . ... ... : --- .. . P81 ...
ROW BA : D#4 00 F ... ... ... : A#4 00 F ... ... ... : D#4 00 . ... : C-# 00 D ... : ... .. . ... ... : A-3 01 6 ... ... : A-4 01 6 ... ... : D#4 01 F P80 ...
ROW BB : ... .. E ... ... ... : ... .. E ... ... ... : ... .. . ... : ... .. . ... : ... .. . ... ... : ... .. . ... ... : ... .. . ... ... : ... .. D P83 ...
ROW BC : ... .. D ... ... ... : ... .. D ... ... ... : ... .. . ... : 8-# 00 D ... : ... .. . ... ... : ... .. 5 ... ... : ... .. 5 ... ... : ... .. 8 ... ...
ROW BD : ... .. A ... ... ... : ... .. A ... ... ... : ... .. . ... : 6-# 00 6 ... : ... .. . ... ... : ... .. 4 ... ... : ... .. 4 ... ... : ... .. . P82 ...
ROW BE : ... .. . ... ... ... : ... .. . ... ... ... : ... .. . ... : 2-# 00 1 ... : ... .. . ... ... : ... .. . ... ... : ... .. . ... ... : ... .. . P80 ...
ROW BF : ... .. . ... ... ... : ... .. . ... ... ... : --- .. . ... : ... .. 0 ... : ... .. . ... ... : ... .. . ... ... : ... .. . ... ... : --- .. . ... ...
ROW C0 : C#4 00 F ... ... ... : G#4 00 F ... ... ... : C-6 00 . ... : C-# 00 D ... : ... .. . ... ... : E-3 01 6 ... ... : E-4 01 6 ... ... : C#4 01 F P7D ...
ROW C1 : ... .. E ... ... ... : ... .. E ... ... ... : D-5 00 . ... : ... .. . ... : ... .. . ... ... : ... .. . ... ... : ... .. . ... ... : ... .. D ... ...
ROW C2 : ... .. D ... ... ... : ... .. D ... ... ... : G-4 00 . ... : 8-# 00 D ... : ... .. . ... ... : ... .. 5 ... ... : ... .. 5 ... ... : ... .. 8 P7F ...
ROW C3 : ... .. A ... ... ... : ... .. A ... ... ... : F#4 00 . ... : 6-# 00 6 ... : ... .. . ... ... : ... .. 4 ... ... : ... .. 4 ... ... : ... .. . P80 ...
ROW C4 : ... .. . ... ... ... : ... .. . ... ... ... : C#4 00 . ... : 2-# 00 1 ... : ... .. . ... ... : ... .. . ... ... : ... .. . ... ... : ... .. . P82 ...
ROW C5 : ... .. . ... ... ... : ... .. . ... ... ... : ... .. . ... : ... .. 0 ... : ... .. . ... ... : ... .. . ... ... : ... .. . ... ... : --- .. . ... ...
ROW C6 : A-3 00 F ... ... ... : E-4 00 F ... ... ... : A-3 00 . ... : 5-# 00 D ... : ... .. . ... ... : D#3 01 6 ... ... : D#4 01 6 ... ... : A-3 01 F P83 ...
ROW C7 : ... .. E ... ... ... : ... .. E ... ... ... : ... .. . ... : ... .. . ... : ... .. . ... ... : ... .. . ... ... : ... .. . ... ... : ... .. D P80 ...
ROW C8 : ... .. D ... ... ... : ... .. D ... ... ... : ... .. . ... : 1-# 00 D ... : ... .. . ... ... : ... .. 5 ... ... : ... .. 5 ... ... : ... .. 8 P7F ...
ROW C9 : ... .. A ... ... ... : ... .. A ... ... ... : ... .. . ... : F-# 00 6 ... : ... .. . ... ... : ... .. 4 ... ... : ... .. 4 ... ... : ... .. . P7D ...
ROW CA : ... .. . ... ... ... : ... .. . ... ... ... : ... .. . ... : B-# 00 1 ... : ... .. . ... ... : ... .. . ... ... : ... .. . ... ... : ... .. . ... ...
ROW CB : ... .. . ... ... ... : ... .. . ... ... ... : --- .. . ... : ... .. 0 ... : ... .. . ... ... : ... .. . ... ... : ... .. . ... ... : --- .. . P80 ...
ROW CC : G-3 00 F ... ... ... : D-4 00 F ... ... ... : G-3 00 . ... : 5-# 00 D ... : ... .. . ... ... : A-2 01 6 ... ... : A-3 01 6 ... ... : G-3 01 F ... ...
ROW CD : ... .. E ... ... ... : ... .. E ... ... ... : ... .. . ... : ... .. . ... : ... .. . ... ... : ... .. . ... ... : ... .. . ... ... : ... .. D P82 ...
ROW CE : ... .. D ... ... ... : ... .. D ... ... ... : ... .. . ... : 1-# 00 D ... : ... .. . ... ... : ... .. 5 ... ... : ... .. 5 ... ... : ... .. 8 P83 ...
ROW CF : ... .. 2 ... ... ... : ... .. 2 ... ... ... : ... .. . ... : F-# 00 6 ... : ... .. . ... ... : ... .. 4 ... ... : ... .. 4 ... ... : ... .. . ... ...
ROW D0 : ... .. . ... ... ... : ... .. . ... ... ... : ... .. . ... : B-# 00 1 ... : ... .. . ... ... : ... .. . ... ... : ... .. . ... ... : ... .. . P81 ...
ROW D1 : ... .. . ... ... ... : ... .. . ... ... ... : --- .. . ... : ... .. 0 ... : ... .. . ... ... : ... .. . ... ... : ... .. . ... ... : --- .. . P80 ...
ROW D2 : D#3 00 F ... ... ... : A#3 00 F ... ... ... : D#3 00 . ... : 2-# 00 D ... : ... .. . ... ... : E-2 01 6 ... ... : E-3 01 6 ... ... : D#3 01 F P7D ...
ROW D3 : ... .. E ... ... ... : ... .. E ... ... ... : ... .. . ... : ... .. . ... : ... .. . ... ... : ... .. . ... ... : ... .. . ... ... : ... .. D ... ...
ROW D4 : ... .. D ... ... ... : ... .. D ... ... ... : ... .. . ... : E-# 00 D ... : ... .. . ... ... : ... .. 5 ... ... : ... .. 5 ... ... : ... .. 8 P7E ...
ROW D5 : ... .. A ... ... ... : ... .. A ... ... ... : ... .. . ... : C-# 00 6 ... : ... .. . ... ... : ... .. 4 ... ... : ... .. 4 ... ... : ... .. . P80 ...
ROW D6 : ... .. . ... ... ... : ... .. . ... ... ... : ... .. . ... : 8-# 00 1 ... : ... .. . ... ... : ... .. . ... ... : ... .. . ... ... : ... .. . P82 ...
ROW D7 : ... .. . ... ... ... : ... .. . ... ... ... : --- .. . ... : ... .. 0 ... : ... .. . ... ... : ... .. . ... ... : ... .. . ... ... : --- .. . P81 ...
ROW D8 : C#3 00 F ... ... ... : G#3 00 F ... ... ... : C-5 00 . ... : 6-# 00 D ... : ... .. . ... ... : D#2 01 6 ... ... : D#3 01 6 ... ... : C#3 01 F P83 ...
ROW D9 : ... .. E ... ... ... : ... .. E ... ... ... : D-4 00 . ... : ... .. . ... : ... .. . ... ... : ... .. . ... ... : ... .. . ... ... : ... .. D P81 ...
ROW DA : ... .. D ... ... ... : ... .. D ... ... ... : G-3 00 . ... : 2-# 00 D ... : ... .. . ... ... : ... .. 5 ... ... : ... .. 5 ... ... : ... .. 8 P80 ...
ROW DB : ... .. 2 ... ... ... : ... .. 2 ... ... ... : F#3 00 . ... : 0-# 00 6 ... : ... .. . ... ... : ... .. 4 ... ... : ... .. 4 ... ... : ... .. . P7D ...
ROW DC : ... .. . ... ... ... : ... .. . ... ... ... : C#3 00 . ... : C-# 00 1 ... : ... .. . ... ... : ... .. . ... ... : ... .. . ... ... : ... .. . ... ...
ROW DD : ... .. . ... ... ... : ... .. . ... ... ... : ... .. . ... : ... .. 0 ... : ... .. . ... ... : ... .. . ... ... : ... .. . ... ... : --- .. . ... ...
ROW DE : A-2 00 F ... ... ... : E-3 00 F ... ... ... : A-2 00 . ... : 6-# 00 D ... : ... .. . ... ... : E-2 01 6 ... ... : E-3 01 6 ... ... : A-2 01 F P80 ...
ROW DF : ... .. E ... ... ... : ... .. E ... ... ... : ... .. . ... : ... .. . ... : ... .. . ... ... : ... .. . ... ... : ... .. . ... ... : ... .. D P81 ...
ROW E0 : ... .. D ... ... ... : ... .. D ... ... ... : ... .. . ... : 2-# 00 D ... : ... .. . ... ... : ... .. 5 ... ... : ... .. 5 ... ... : ... .. 8 P83 ...
ROW E1 : ... .. A ... ... ... : ... .. A ... ... ... : ... .. . ... : 0-# 00 6 ... : ... .. . ... ... : ... .. 4 ... ... : ... .. 4 ... ... : ... .. . ... ...
ROW E2 : ... .. . ... ... ... : ... .. . ... ... ... : ... .. . ... : C-# 00 1 ... : ... .. . ... ... : ... .. . ... ... : ... .. . ... ... : ... .. . P81 ...
ROW E3 : ... .. . ... ... ... : ... .. . ... ... ... : --- .. . ... : ... .. 0 ... : ... .. . ... ... : ... .. . ... ... : ... .. . ... ... : --- .. . ... ...
ROW E4 : G-2 00 F ... ... ... : D-3 00 F ... ... ... : G-2 00 . ... : 4-# 00 D ... : ... .. . ... ... : A-2 01 6 ... ... : A-3 01 6 ... ... : G-2 01 F P7E ...
ROW E5 : ... .. E ... ... ... : ... .. E ... ... ... : ... .. . ... : ... .. . ... : ... .. . ... ... : ... .. . ... ... : ... .. . ... ... : ... .. D P7D ...
ROW E6 : ... .. D ... ... ... : ... .. D ... ... ... : ... .. . ... : 0-# 00 D ... : ... .. . ... ... : ... .. 5 ... ... : ... .. 5 ... ... : ... .. 8 ... ...
ROW E7 : ... .. A ... ... ... : ... .. A ... ... ... : ... .. . ... : E-# 00 6 ... : ... .. . ... ... : ... .. 4 ... ... : ... .. 4 ... ... : ... .. . P80 ...
ROW E8 : ... .. . ... ... ... : ... .. . ... ... ... : ... .. . ... : A-# 00 1 ... : ... .. . ... ... : ... .. . ... ... : ... .. . ... ... : ... .. . P81 ...
ROW E9 : ... .. . ... ... ... : ... .. . ... ... ... : --- .. . ... : ... .. 0 ... : ... .. . ... ... : ... .. . ... ... : ... .. . ... ... : --- .. . P7E ...
ROW EA : D#2 00 F ... ... ... : A#2 00 F ... ... ... : D#2 00 . ... : 4-# 00 D ... : ... .. . ... ... : A#2 01 6 ... ... : A#3 01 6 ... ... : D#2 01 F P83 ...
ROW EB : ... .. E ... ... ... : ... .. E ... ... ... : ... .. . ... : ... .. . ... : ... .. . ... ... : ... .. . ... ... : ... .. . ... ... : ... .. D P82 ...
ROW EC : ... .. D ... ... ... : ... .. D ... ... ... : ... .. . ... : 0-# 00 D ... : ... .. . ... ... : ... .. 5 ... ... : ... .. 5 ... ... : ... .. 8 P80 ...
ROW ED : ... .. 2 ... ... ... : ... .. 2 ... ... ... : ... .. . ... : E-# 00 6 ... : ... .. . ... ... : ... .. 4 ... ... : ... .. 4 ... ... : ... .. . P7E ...
ROW EE : ... .. . ... ... ... : ... .. . ... ... ... : ... .. . ... : A-# 00 1 ... : ... .. . ... ... : ... .. . ... ... : ... .. . ... ... : ... .. . P7D ...
ROW EF : ... .. . ... ... ... : ... .. . ... ... ... : --- .. . ... : ... .. 0 ... : ... .. . ... ... : ... .. . ... ... : ... .. . ... ... : --- .. . P81 ...
ROW F0 : C#2 00 F ... ... ... : G#2 00 F ... ... ... : C-4 00 . ... : 9-# 00 D ... : ... .. . ... ... : E-3 01 6 ... ... : E-4 01 6 ... ... : C#2 01 F P7F ...
ROW F1 : ... .. E ... ... ... : ... .. E ... ... ... : D-3 00 . ... : ... .. B ... : ... .. . ... ... : ... .. . ... ... : ... .. . ... ... : ... .. D P81 ...
ROW F2 : ... .. D ... ... ... : ... .. D ... ... ... : G-2 00 . ... : ... .. . ... : ... .. . ... ... : ... .. 5 ... ... : ... .. 5 ... ... : ... .. 8 P83 ...
ROW F3 : ... .. A ... ... ... : ... .. A ... ... ... : F#2 00 . ... : ... .. A ... : ... .. . ... ... : ... .. 4 ... ... : ... .. 4 ... ... : ... .. . ... ...
ROW F4 : ... .. . ... ... ... : ... .. . ... ... ... : C#2 00 . ... : ... .. 8 ... : ... .. . ... ... : ... .. . ... ... : ... .. . ... ... : ... .. . P82 ...
ROW F5 : ... .. . ... ... ... : ... .. . ... ... ... : ... .. . ... : ... .. 7 ... : ... .. . ... ... : ... .. . ... ... : ... .. . ... ... : --- .. . ... ...
ROW F6 : D#2 00 F ... ... ... : A#2 00 F ... ... ... : D#2 00 . ... : 7-# 00 8 ... : ... .. . ... ... : F-3 01 6 ... ... : F-4 01 6 ... ... : D#2 01 F P7E ...
ROW F7 : ... .. E ... ... ... : ... .. E ... ... ... : ... .. . ... : ... .. 6 ... : ... .. . ... ... : ... .. . ... ... : ... .. . ... ... : ... .. D P7D ...
ROW F8 : ... .. D ... ... ... : ... .. D ... ... ... : ... .. . ... : ... .. 3 ... : ... .. . ... ... : ... .. 5 ... ... : ... .. 5 ... ... : ... .. 8 ... ...
ROW F9 : ... .. 2 ... ... ... : ... .. 2 ... ... ... : ... .. . ... : ... .. 1 ... : ... .. . ... ... : ... .. 4 ... ... : ... .. 4 ... ... : ... .. . P7F ...
ROW FA : ... .. . ... ... ... : ... .. . ... ... ... : ... .. . ... : ... .. . ... : ... .. . ... ... : ... .. . ... ... : ... .. . ... ... : ... .. . P80 ...
ROW FB : ... .. . ... ... ... : ... .. . ... ... ... : --- .. . ... : ... .. 0 ... : ... .. . ... ... : ... .. . ... ... : ... .. . ... ... : --- .. . ... ...
ROW FC : G-2 00 F ... ... ... : D-3 00 F ... ... ... : G-2 00 . ... : A-# 00 F ... : ... .. . ... ... : A-3 01 6 ... ... : A-4 01 6 ... ... : G-2 01 F P83 ...
ROW FD : ... .. E ... ... ... : ... .. E ... ... ... : ... .. . ... : ... .. C ... : ... .. . ... ... : ... .. . ... ... : ... .. . ... ... : ... .. D P82 ...
ROW FE : ... .. D ... ... ... : ... .. D ... ... ... : ... .. . ... : ... .. 6 ... : ... .. . ... ... : ... .. 5 ... ... : ... .. 5 ... ... : ... .. 8 P80 ...
ROW FF : ... .. 2 ... ... ... : ... .. 2 ... ... ... : ... .. . ... : ... .. 3 ... : ... .. . ... ... : ... .. 4 ... ... : ... .. 4 ... ... : ... .. . P7F ...

PATTERN 19
ROW 00 : ... .. . ... ... ... : ... .. . ... ... ... : ... .. . ... : ... .. 2 ... : ... .. . ... ... : ... .. . ... ... : ... .. . ... ... : ... .. . P7D ...
ROW 01 : ... .. . ... ... ... : ... .. . ... ... ... : --- .. . ... : ... .. 0 ... : ... .. . ... ... : ... .. . ... ... : ... .. . ... ... : --- .. . P82 ...
ROW 02 : A#2 00 F ... ... ... : F-3 00 F ... ... ... : A#2 00 . ... : E-# 00 8 ... : ... .. . ... ... : A#3 01 6 ... ... : A#4 01 6 ... ... : A#2 01 F P7F ...
ROW 03 : ... .. E ... ... ... : ... .. E ... ... ... : ... .. . ... : ... .. 6 ... : ... .. . ... ... : ... .. . ... ... : ... .. . ... ... : ... .. D P80 ...
ROW 04 : ... .. D ... ... ... : ... .. D ... ... ... : ... .. . ... : ... .. 3 ... : ... .. . ... ... : ... .. 5 ... ... : ... .. 5 ... ... : ... .. 8 P82 ...
ROW 05 : ... .. 2 ... ... ... : ... .. 2 ... ... ... : ... .. . ... : ... .. 1 ... : ... .. . ... ... : ... .. 4 ... ... : ... .. 4 ... ... : ... .. . P83 ...
ROW 06 : ... .. . ... ... ... : ... .. . ... ... ... : ... .. . ... : ... .. . ... : ... .. . ... ... : ... .. . ... ... : ... .. . ... ... : ... .. . ... ...
ROW 07 : ... .. . ... ... ... : ... .. . ... ... ... : --- .. . ... : ... .. 0 ... : ... .. . ... ... : ... .. . ... ... : ... .. . ... ... : --- .. . P81 ...
ROW 08 : A-2 00 F ... ... ... : E-3 00 F ... ... ... : G#3 00 . ... : 1-# 00 F ... : ... .. . ... ... : A-3 01 6 ... ... : A-4 01 6 ... ... : A-1 01 F P7F ...
ROW 09 : ... .. E ... ... ... : ... .. E ... ... ... : A#2 00 . ... : ... .. C ... : ... .. . ... ... : ... .. . ... ... : ... .. . ... ... : ... .. D P7D ...
ROW 0A : ... .. D ... ... ... : ... .. D ... ... ... : D#2 00 . ... : ... .. 6 ... : ... .. . ... ... : ... .. 5 ... ... : ... .. 5 ... ... : ... .. 8 ... ...
ROW 0B : ... .. 2 ... ... ... : ... .. 2 ... ... ... : D-2 00 . ... : ... .. 3 ... : ... .. . ... ... : ... .. 4 ... ... : ... .. 4 ... ... : ... .. . P7E ...
ROW 0C : ... .. . ... ... ... : ... .. . ... ... ... : A-1 00 . ... : ... .. 2 ... : ... .. . ... ... : ... .. . ... ... : ... .. . ... ... : ... .. . P80 ...
ROW 0D : ... .. . ... ... ... : ... .. . ... ... ... : ... .. . ... : ... .. 0 ... : ... .. . ... ... : ... .. . ... ... : ... .. . ... ... : --- .. . P7F ...
ROW 0E : ... .. F ... ... ... : ... .. F ... ... ... : ... .. . ... : 9-# 00 8 ... : ... .. . ... ... : A#3 01 6 ... ... : A#4 01 6 ... ... : A-1 01 F P83 ...
ROW 0F : ... .. E ... ... ... : ... .. E ... ... ... : ... .. . ... : ... .. 6 ... : ... .. . ... ... : ... .. . ... ... : ... .. . ... ... : ... .. D ... ...
ROW 10 : ... .. D ... ... ... : ... .. D ... ... ... : ... .. . ... : ... .. 3 ... : ... .. . ... ... : ... .. 5 ... ... : ... .. 5 ... ... : ... .. 8 P81 ...
ROW 11 : ... .. 2 ... ... ... : ... .. 2 ... ... ... : ... .. . ... : ... .. 1 ... : ... .. . ... ... : ... .. 4 ... ... : ... .. 4 ... ... : ... .. . P7F ...
ROW 12 : ... .. . ... ... ... : ... .. . ... ... ... : ... .. . ... : ... .. . ... : ... .. . ... ... : ... .. . ... ... : ... .. . ... ... : ... .. . P7D ...
ROW 13 : ... .. . ... ... ... : ... .. . ... ... ... : --- .. . ... : ... .. 0 ... : ... .. . ... ... : ... .. . ... ... : ... .. . ... ... : --- .. . P84 ...
ROW 14 : G-2 00 F ... ... ... : D-3 00 F ... ... ... : A-1 00 . ... : B-# 00 F ... : ... .. . ... ... : A-3 01 6 ... ... : A-4 01 6 ... ... : A-1 01 F P7E ...
ROW 15 : ... .. E ... ... ... : ... .. E ... ... ... : ... .. . ... : ... .. C ... : ... .. . ... ... : ... .. . ... ... : ... .. . ... ... : ... .. D P80 ...
ROW 16 : ... .. D ... ... ... : ... .. D ... ... ... : ... .. . ... : ... .. 6 ... : ... .. . ... ... : ... .. 5 ... ... : ... .. 5 ... ... : ... .. 8 P82 ...
ROW 17 : ... .. A ... ... ... : ... .. A ... ... ... : ... .. . ... : ... .. 3 ... : ... .. . ... ... : ... .. 4 ... ... : ... .. 4 ... ... : ... .. . P83 ...
ROW 18 : ... .. . ... ... ... : ... .. . ... ... ... : ... .. . ... : ... .. 2 ... : ... .. . ... ... : ... .. . ... ... : ... .. . ... ... : ... .. . ... ...
ROW 19 : ... .. . ... ... ... : ... .. . ... ... ... : --- .. . ... : ... .. 0 ... : ... .. . ... ... : ... .. . ... ... : ... .. . ... ... : --- .. . P82 ...
ROW 1A : A-2 00 F ... ... ... : E-3 00 F ... ... ... : A-1 00 . ... : 9-# 00 8 ... : ... .. . ... ... : E-3 01 6 ... ... : E-4 01 6 ... ... : A-1 01 F P80 ...
ROW 1B : ... .. E ... ... ... : ... .. E ... ... ... : ... .. . ... : ... .. 6 ... : ... .. . ... ... : ... .. . ... ... : ... .. . ... ... : ... .. D P7D ...
ROW 1C : ... .. D ... ... ... : ... .. D ... ... ... : ... .. . ... : ... .. 3 ... : ... .. . ... ... : ... .. 5 ... ... : ... .. 5 ... ... : ... .. 8 ... ...
ROW 1D : ... .. 2 ... ... ... : ... .. 2 ... ... ... : ... .. . ... : ... .. 1 ... : ... .. . ... ... : ... .. 4 ... ... : ... .. 4 ... ... : ... .. . P7E ...
ROW 1E : ... .. . ... ... ... : ... .. . ... ... ... : ... .. . ... : ... .. . ... : ... .. . ... ... : ... .. . ... ... : ... .. . ... ... : ... .. . P80 ...
ROW 1F : ... .. . ... ... ... : ... .. . ... ... ... : --- .. . ... : ... .. 0 ... : ... .. . ... ... : ... .. . ... ... : ... .. . ... ... : --- .. . P7F ...
ROW 20 : A#2 00 F ... ... ... : F-3 00 F ... ... ... : F#4 00 . ... : ... .. D ... : ... .. . ... ... : D#3 01 6 ... ... : D#4 01 6 ... ... : G-2 01 F P83 ...
ROW 21 : ... .. E ... ... ... : ... .. E ... ... ... : G#3 00 . ... : ... .. B ... : ... .. . ... ... : ... .. . ... ... : ... .. . ... ... : ... .. D ... ...
ROW 22 : ... .. D ... ... ... : ... .. D ... ... ... : C#3 00 . ... : ... .. . ... : ... .. . ... ... : ... .. 5 ... ... : ... .. 5 ... ... : ... .. 8 P81 ...
ROW 23 : ... .. A ... ... ... : ... .. A ... ... ... : C-3 00 . ... : ... .. A ... : ... .. . ... ... : ... .. 4 ... ... : ... .. 4 ... ... : ... .. . P80 ...
ROW 24 : ... .. . ... ... ... : ... .. . ... ... ... : G-2 00 . ... : ... .. 8 ... : ... .. . ... ... : ... .. . ... ... : ... .. . ... ... : ... .. . P7E ...
ROW 25 : ... .. . ... ... ... : ... .. . ... ... ... : ... .. . ... : ... .. 7 ... : ... .. . ... ... : ... .. . ... ... : ... .. . ... ... : --- .. . P83 ...
ROW 26 : A-2 00 F ... ... ... : E-3 00 F ... ... ... : A-2 00 . ... : 7-# 00 8 ... : ... .. . ... ... : A-2 01 6 ... ... : A-3 01 6 ... ... : A-2 01 F P7D ...
ROW 27 : ... .. E ... ... ... : ... .. E ... ... ... : ... .. . ... : ... .. 6 ... : ... .. . ... ... : ... .. . ... ... : ... .. . ... ... : ... .. D P80 ...
ROW 28 : ... .. D ... ... ... : ... .. D ... ... ... : ... .. . ... : ... .. 3 ... : ... .. . ... ... : ... .. 5 ... ... : ... .. 5 ... ... : ... .. 8 P81 ...
ROW 29 : ... .. 2 ... ... ... : ... .. 2 ... ... ... : ... .. . ... : ... .. 1 ... : ... .. . ... ... : ... .. 4 ... ... : ... .. 4 ... ... : ... .. . P83 ...
ROW 2A : ... .. . ... ... ... : ... .. . ... ... ... : ... .. . ... : ... .. . ... : ... .. . ... ... : ... .. . ... ... : ... .. . ... ... : ... .. . ... ...
ROW 2B : ... .. . ... ... ... : ... .. . ... ... ... : --- .. . ... : ... .. 0 ... : ... .. . ... ... : ... .. . ... ... : ... .. . ... ... : --- .. . P7F ...
ROW 2C : C#3 00 F ... ... ... : G#3 00 F ... ... ... : D#3 00 . ... : A-# 00 F ... : ... .. . ... ... : E-2 01 6 ... ... : E-3 01 6 ... ... : D#3 01 F P80 ...
ROW 2D : ... .. E P89 ... ... : A-3 00 E P7B ... ... : ... .. . ... : ... .. C ... : ... .. . ... ... : ... .. . ... ... : ... .. . ... ... : ... .. D P7E ...
ROW 2E : D-3 00 D P7B ... ... : ... .. D P84 ... ... : ... .. . ... : ... .. 6 ... : ... .. . ... ... : ... .. 5 ... ... : ... .. 5 ... ... : ... .. 8 P7D ...
ROW 2F : ... .. A P84 ... ... : A#3 00 A P7F ... ... : ... .. . ... : ... .. 3 ... : ... .. . ... ... : ... .. 4 ... ... : ... .. 4 ... ... : ... .. . ... ...
ROW 30 : D#3 00 A P78 ... ... : ... .. . P81 ... ... : ... .. . ... : ... .. 2 ... : ... .. . ... ... : ... .. . ... ... : ... .. . ... ... : ... .. . P7F ...
ROW 31 : ... .. . P80 ... ... : ... .. . ... ... ... : ... .. . ... : ... .. 0 ... : ... .. . ... ... : ... .. . ... ... : ... .. . ... ... : ... .. . P81 ...
ROW 32 : ... .. . ... ... ... : ... .. . ... ... ... : ... .. . ... : E-# 00 8 ... : ... .. . ... ... : D#2 01 6 ... ... : D#3 01 6 ... ... : ... .. . P83 ...
ROW 33 : ... .. . ... ... ... : ... .. . ... ... ... : ... .. . ... : ... .. 6 ... : ... .. . ... ... : ... .. . ... ... : ... .. . ... ... : ... .. . ... ...
ROW 34 : ... .. . ... ... ... : ... .. . ... ... ... : ... .. . ... : ... .. 3 ... : ... .. . ... ... : ... .. 5 ... ... : ... .. 5 ... ... : ... .. . P82 ...
ROW 35 : ... .. . ... ... ... : ... .. . ... ... ... : ... .. . ... : ... .. 1 ... : ... .. . ... ... : ... .. 4 ... ... : ... .. 4 ... ... : ... .. . P80 ...
ROW 36 : ... .. . ... ... ... : ... .. . ... ... ... : ... .. . ... : ... .. . ... : ... .. . ... ... : ... .. . ... ... : ... .. . ... ... : ... .. . P7E ...
ROW 37 : ... .. . ... ... ... : ... .. . ... ... ... : ... .. . ... : ... .. 0 ... : ... .. . ... ... : ... .. . ... ... : ... .. . ... ... : ... .. . P7D ...
ROW 38 : E-3 00 A P78 ... ... : B-3 00 A P80 ... ... : D-5 00 . ... : 1-# 00 F ... : ... .. . ... ... : E-2 01 6 ... ... : E-3 01 6 ... ... : D-3 01 8 P75 ...
ROW 39 : ... .. . P80 ... ... : C-4 00 A P7C ... ... : E-4 00 . ... : ... .. C ... : ... .. . ... ... : ... .. . ... ... : ... .. . ... ... : C-3 01 8 P8D ...
ROW 3A : ... .. . P7D ... ... : B-3 00 A P85 ... ... : A-3 00 . ... : ... .. 6 ... : ... .. . ... ... : ... .. 5 ... ... : ... .. 5 ... ... : B-2 01 8 P8B ...
ROW 3B : D#3 00 A P86 ... ... : A#3 00 A P87 ... ... : G#3 00 . ... : ... .. 3 ... : ... .. . ... ... : ... .. 4 ... ... : ... .. 4 ... ... : A#2 01 8 P8C ...
ROW 3C : ... .. . P7A ... ... : ... .. . P7B ... ... : D#3 00 . ... : ... .. 2 ... : ... .. . ... ... : ... .. . ... ... : ... .. . ... ... : A-2 01 8 P8D ...
ROW 3D : D-3 00 A P83 ... ... : A-3 00 A P7D ... ... : ... .. . ... : ... .. 0 ... : ... .. . ... ... : ... .. . ... ... : ... .. . ... ... : G#2 01 8 P8F ...
ROW 3E : ... .. 1 P80 ... ... : ... .. 1 P7A ... ... : D-3 00 . P75 : 9-# 00 8 ... : ... .. . ... ... : A-2 01 6 ... ... : A-3 01 6 ... ... : G-2 01 8 P91 ...
ROW 3F : ... .. . P88 ... ... : ... .. . P82 ... ... : C-3 00 . P84 : ... .. 6 ... : ... .. . ... ... : ... .. . ... ... : ... .. . ... ... : ... .. . P70 ...
ROW 40 : D#3 00 1 P80 ... ... : A#3 00 1 P81 ... ... : B-2 00 . P7D : ... .. 3 ... : ... .. . ... ... : ... .. 5 ... ... : ... .. 5 ... ... : F#2 01 8 P75 ...
ROW 41 : E-3 00 1 P77 ... ... : B-3 00 1 P7F ... ... : A#2 00 . P78 : ... .. 1 ... : ... .. . ... ... : ... .. 4 ... ... : ... .. 4 ... ... : F-2 01 8 P7E ...
ROW 42 : ... .. . P80 ... ... : C-4 00 1 P7C ... ... : A-2 00 . P74 : ... .. . ... : ... .. . ... ... : ... .. . ... ... : ... .. . ... ... : E-2 01 8 P8C ...
ROW 43 : ... .. . P7E ... ... : B-3 00 1 P86 ... ... : G#2 00 . P73 : ... .. 0 ... : ... .. . ... ... : ... .. . ... ... : ... .. . ... ... : ... .. . P6D ...
ROW 44 : C-3 00 F P80 ... ... : G-3 00 F P81 ... ... : D-3 00 . P80 : 1-# 00 F ... : ... .. . ... ... : E-3 01 6 ... ... : E-4 01 6 ... ... : D-3 01 F P82 ...
ROW 45 : ... .. E P89 ... ... : G#3 00 E P7A ... ... : ... .. . ... : ... .. C ... : ... .. . ... ... : ... .. . ... ... : ... .. . ... ... : ... .. D P83 ...
ROW 46 : C#3 00 D P7A ... ... : ... .. D P83 ... ... : ... .. . ... : ... .. 6 ... : ... .. . ... ... : ... .. 5 ... ... : ... .. 5 ... ... : ... .. 8 ... ...
ROW 47 : ... .. A P83 ... ... : A-3 00 A P7D ... ... : ... .. . ... : ... .. 3 ... : ... .. . ... ... : ... .. 4 ... ... : ... .. 4 ... ... : ... .. . P80 ...
ROW 48 : D-3 00 A P75 ... ... : ... .. . P81 ... ... : ... .. . ... : ... .. 2 ... : ... .. . ... ... : ... .. . ... ... : ... .. . ... ... : ... .. . P7F ...
ROW 49 : ... .. . P7E ... ... : ... .. . ... ... ... : ... .. . ... : ... .. 0 ... : ... .. . ... ... : ... .. . ... ... : ... .. . ... ... : ... .. . P7D ...
ROW 4A : ... .. . P80 ... ... : ... .. . ... ... ... : ... .. . ... : 9-# 00 8 ... : ... .. . ... ... : F-3 01 6 ... ... : F-4 01 6 ... ... : ... .. . ... ...
ROW 4B : ... .. . ... ... ... : ... .. . ... ... ... : ... .. . ... : ... .. 6 ... : ... .. . ... ... : ... .. . ... ... : ... .. . ... ... : ... .. . P7E ...
ROW 4C : ... .. . ... ... ... : ... .. . ... ... ... : ... .. . ... : ... .. 3 ... : ... .. . ... ... : ... .. 5 ... ... : ... .. 5 ... ... : ... .. . P80 ...
ROW 4D : ... .. . ... ... ... : ... .. . ... ... ... : ... .. . ... : ... .. 1 ... : ... .. . ... ... : ... .. 4 ... ... : ... .. 4 ... ... : ... .. . P82 ...
ROW 4E : ... .. . ... ... ... : ... .. . ... ... ... : ... .. . ... : ... .. . ... : ... .. . ... ... : ... .. . ... ... : ... .. . ... ... : ... .. . P83 ...
ROW 4F : ... .. . ... ... ... : ... .. . ... ... ... : ... .. . ... : ... .. 0 ... : ... .. . ... ... : ... .. . ... ... : ... .. . ... ... : ... .. . ... ...
ROW 50 : D#3 00 A P78 ... ... : A#3 00 A P80 ... ... : C#5 00 . ... : ... .. D ... : ... .. . ... ... : A-3 01 6 ... ... : A-4 01 6 ... ... : C#3 01 8 P7B ...
ROW 51 : ... .. . P80 ... ... : B-3 00 A P7A ... ... : D#4 00 . ... : ... .. B ... : ... .. . ... ... : ... .. . ... ... : ... .. . ... ... : C-3 01 8 P75 ...
ROW 52 : ... .. . P7D ... ... : A#3 00 A P85 ... ... : G#3 00 . ... : ... .. . ... : ... .. . ... ... : ... .. 5 ... ... : ... .. 5 ... ... : A#2 01 8 P8E ...
ROW 53 : D-3 00 A P86 ... ... : A-3 00 A P87 ... ... : G-3 00 . ... : ... .. A ... : ... .. . ... ... : ... .. 4 ... ... : ... .. 4 ... ... : A-2 01 8 P8F ...
ROW 54 : ... .. . P7A ... ... : ... .. . P7B ... ... : D-3 00 . ... : ... .. 8 ... : ... .. . ... ... : ... .. . ... ... : ... .. . ... ... : ... .. . P70 ...
ROW 55 : C#3 00 A P85 ... ... : G#3 00 A P7E ... ... : ... .. . ... : ... .. 7 ... : ... .. . ... ... : ... .. . ... ... : ... .. . ... ... : G#2 01 8 P75 ...
ROW 56 : ... .. 1 P82 ... ... : ... .. 1 P7B ... ... : C#3 00 . P77 : 7-# 00 8 ... : ... .. . ... ... : A#3 01 6 ... ... : A#4 01 6 ... ... : G-2 01 8 P7B ...
ROW 57 : ... .. . P8A ... ... : ... .. . P83 ... ... : B-2 00 . P88 : ... .. 6 ... : ... .. . ... ... : ... .. . ... ... : ... .. . ... ... : F#2 01 8 P83 ...
ROW 58 : D-3 00 1 P80 ... ... : A-3 00 1 P81 ... ... : A#2 00 . P83 : ... .. 3 ... : ... .. . ... ... : ... .. 5 ... ... : ... .. 5 ... ... : F-2 01 8 P8C ...
ROW 59 : D#3 00 1 P77 ... ... : A#3 00 1 P7F ... ... : A-2 00 . P7F : ... .. 1 ... : ... .. . ... ... : ... .. 4 ... ... : ... .. 4 ... ... : E-2 01 8 P96 ...
ROW 5A : ... .. . P80 ... ... : B-3 00 1 P7A ... ... : G#2 00 . P7E : ... .. . ... : ... .. . ... ... : ... .. . ... ... : ... .. . ... ... : ... .. . P75 ...
ROW 5B : ... .. . P7E ... ... : A#3 00 1 P86 ... ... : G-2 00 . ... : ... .. 0 ... : ... .. . ... ... : ... .. . ... ... : ... .. . ... ... : D#2 01 8 P80 ...
ROW 5C : C-3 00 F P80 ... ... : G-3 00 F P81 ... ... : A-2 00 . P80 : A-# 00 F ... : ... .. . ... ... : E-4 01 6 ... ... : E-5 01 6 ... ... : A-2 01 F P7D ...
ROW 5D : ... .. E ... ... ... : ... .. E ... ... ... : ... .. . ... : ... .. C ... : ... .. . ... ... : ... .. . ... ... : ... .. . ... ... : ... .. D P7E ...
ROW 5E : ... .. D ... ... ... : ... .. D ... ... ... : ... .. . ... : ... .. 6 ... : ... .. . ... ... : ... .. 5 ... ... : ... .. 5 ... ... : ... .. 8 P80 ...
ROW 5F : ... .. 2 ... ... ... : ... .. 2 ... ... ... : ... .. . ... : ... .. 3 ... : ... .. . ... ... : ... .. 4 ... ... : ... .. 4 ... ... : ... .. . P81 ...
ROW 60 : ... .. . ... ... ... : ... .. . ... ... ... : ... .. . ... : ... .. 2 ... : ... .. . ... ... : ... .. . ... ... : ... .. . ... ... : ... .. . P83 ...
ROW 61 : ... .. . ... ... ... : ... .. . ... ... ... : --- .. . ... : ... .. 0 ... : ... .. . ... ... : ... .. . ... ... : ... .. . ... ... : --- .. . P7F ...
ROW 62 : D-3 00 F ... ... ... : A-3 00 F ... ... ... : A-2 00 . ... : E-# 00 8 ... : ... .. . ... ... : F-4 01 6 ... ... : F-5 01 6 ... ... : A-2 01 F P81 ...
ROW 63 : ... .. E ... ... ... : ... .. E ... ... ... : ... .. . ... : ... .. 6 ... : ... .. . ... ... : ... .. . ... ... : ... .. . ... ... : ... .. D P80 ...
ROW 64 : ... .. D ... ... ... : ... .. D ... ... ... : ... .. . ... : ... .. 3 ... : ... .. . ... ... : ... .. 5 ... ... : ... .. 5 ... ... : ... .. 8 P7E ...
ROW 65 : ... .. 2 ... ... ... : ... .. 2 ... ... ... : ... .. . ... : ... .. 1 ... : ... .. . ... ... : ... .. 4 ... ... : ... .. 4 ... ... : ... .. . P7D ...
ROW 66 : ... .. . ... ... ... : ... .. . ... ... ... : ... .. . ... : ... .. . ... : ... .. . ... ... : ... .. . ... ... : ... .. . ... ... : ... .. . ... ...
ROW 67 : ... .. . ... ... ... : ... .. . ... ... ... : --- .. . ... : ... .. 0 ... : ... .. . ... ... : ... .. . ... ... : ... .. . ... ... : --- .. . P81 ...
ROW 68 : C-3 00 F ... ... ... : G-3 00 F ... ... ... : G#3 00 . ... : 1-# 00 F ... : ... .. . ... ... : E-4 01 6 ... ... : E-5 01 6 ... ... : A-1 01 F ... ...
ROW 69 : ... .. E ... ... ... : ... .. E ... ... ... : A#2 00 . ... : ... .. C ... : ... .. . ... ... : ... .. . ... ... : ... .. . ... ... : ... .. D P83 ...
ROW 6A : ... .. D ... ... ... : ... .. D ... ... ... : D#2 00 . ... : ... .. 6 ... : ... .. . ... ... : ... .. 5 ... ... : ... .. 5 ... ... : ... .. 8 ... ...
ROW 6B : ... .. A ... ... ... : ... .. A ... ... ... : D-2 00 . ... : ... .. 3 ... : ... .. . ... ... : ... .. 4 ... ... : ... .. 4 ... ... : ... .. . P82 ...
ROW 6C : ... .. . ... ... ... : ... .. . ... ... ... : A-1 00 . ... : ... .. 2 ... : ... .. . ... ... : ... .. . ... ... : ... .. . ... ... : ... .. . P80 ...
ROW 6D : ... .. . ... ... ... : ... .. . ... ... ... : ... .. . ... : ... .. 0 ... : ... .. . ... ... : ... .. . ... ... : ... .. . ... ... : --- .. . P7F ...
ROW 6E : F#2 00 F ... ... ... : C#3 00 F ... ... ... : ... .. . ... : 9-# 00 8 ... : ... .. . ... ... : F-4 01 6 ... ... : F-5 01 6 ... ... : A-1 01 F P7D ...
ROW 6F : ... .. E ... ... ... : ... .. E ... ... ... : ... .. . ... : ... .. 6 ... : ... .. . ... ... : ... .. . ... ... : ... .. . ... ... : ... .. D ... ...
ROW 70 : ... .. D ... ... ... : ... .. D ... ... ... : ... .. . ... : ... .. 3 ... : ... .. . ... ... : ... .. 5 ... ... : ... .. 5 ... ... : ... .. 8 P7F ...
ROW 71 : ... .. A ... ... ... : ... .. A ... ... ... : ... .. . ... : ... .. 1 ... : ... .. . ... ... : ... .. 4 ... ... : ... .. 4 ... ... : ... .. . P81 ...
ROW 72 : ... .. . ... ... ... : ... .. . ... ... ... : ... .. . ... : ... .. . ... : ... .. . ... ... : ... .. . ... ... : ... .. . ... ... : ... .. . P83 ...
ROW 73 : ... .. . ... ... ... : ... .. . ... ... ... : --- .. . ... : ... .. 0 ... : ... .. . ... ... : ... .. . ... ... : ... .. . ... ... : --- .. . P82 ...
ROW 74 : F-2 00 A P84 ... ... : C-3 00 A P79 ... ... : A-1 00 . ... : B-# 00 F ... : ... .. . ... ... : E-4 01 6 ... ... : E-5 01 6 ... ... : A-1 01 F ... ...
ROW 75 : E-2 00 A P8A ... ... : A#2 00 A P8D ... ... : ... .. . ... : ... .. C ... : ... .. . ... ... : ... .. . ... ... : ... .. . ... ... : ... .. D P80 ...
ROW 76 : D#2 00 A P92 ... ... : A-2 00 A P89 ... ... : ... .. . ... : ... .. 6 ... : ... .. . ... ... : ... .. 5 ... ... : ... .. 5 ... ... : ... .. 8 P7E ...
ROW 77 : ... .. . P72 ... ... : G#2 00 A P88 ... ... : ... .. . ... : ... .. 3 ... : ... .. . ... ... : ... .. 4 ... ... : ... .. 4 ... ... : ... .. . P7D ...
ROW 78 : D-2 00 A P7D ... ... : G-2 00 A ... ... ... : ... .. . ... : ... .. 2 ... : ... .. . ... ... : ... .. . ... ... : ... .. . ... ... : ... .. . ... ...
ROW 79 : C#2 00 A P8A ... ... : F#2 00 A P8A ... ... : --- .. . ... : ... .. 0 ... : ... .. . ... ... : ... .. . ... ... : ... .. . ... ... : --- .. . P84 ...
ROW 7A : F#2 00 F P80 ... ... : C#3 00 F P81 ... ... : A-1 00 . ... : 9-# 00 8 ... : ... .. . ... ... : A-3 01 6 ... ... : A-4 01 6 ... ... : A-1 01 F P80 ...
ROW 7B : ... .. E ... ... ... : ... .. E ... ... ... : ... .. . ... : ... .. 6 ... : ... .. . ... ... : ... .. . ... ... : ... .. . ... ... : ... .. D P83 ...
ROW 7C : ... .. D ... ... ... : ... .. D ... ... ... : ... .. . ... : ... .. 3 ... : ... .. . ... ... : ... .. 5 ... ... : ... .. 5 ... ... : ... .. 8 ... ...
ROW 7D : ... .. 2 ... ... ... : ... .. 2 ... ... ... : ... .. . ... : ... .. 1 ... : ... .. . ... ... : ... .. 4 ... ... : ... .. 4 ... ... : ... .. . P82 ...
ROW 7E : ... .. . ... ... ... : ... .. . ... ... ... : ... .. . ... : ... .. . ... : ... .. . ... ... : ... .. . ... ... : ... .. . ... ... : ... .. . P80 ...
ROW 7F : ... .. . ... ... ... : ... .. . ... ... ... : --- .. . ... : ... .. 0 ... : ... .. . ... ... : ... .. . ... ... : ... .. . ... ... : --- .. . P7F ...
ROW 80 : G-2 00 F ... ... ... : D-3 00 F ... ... ... : F#4 00 . ... : ... .. D ... : ... .. . ... ... : E-3 01 6 ... ... : E-4 01 6 ... ... : G-2 01 F P7D ...
ROW 81 : ... .. E ... ... ... : ... .. E ... ... ... : G#3 00 . ... : ... .. B ... : ... .. . ... ... : ... .. . ... ... : ... .. . ... ... : ... .. D ... ...
ROW 82 : ... .. D ... ... ... : ... .. D ... ... ... : C#3 00 . ... : ... .. . ... : ... .. . ... ... : ... .. 5 ... ... : ... .. 5 ... ... : ... .. 8 P7F ...
ROW 83 : ... .. 2 ... ... ... : ... .. 2 ... ... ... : C-3 00 . ... : ... .. A ... : ... .. . ... ... : ... .. 4 ... ... : ... .. 4 ... ... : ... .. . P80 ...
ROW 84 : ... .. . ... ... ... : ... .. . ... ... ... : G-2 00 . ... : ... .. 8 ... : ... .. . ... ... : ... .. . ... ... : ... .. . ... ... : ... .. . P82 ...
ROW 85 : ... .. . ... ... ... : ... .. . ... ... ... : ... .. . ... : ... .. 7 ... : ... .. . ... ... : ... .. . ... ... : ... .. . ... ... : --- .. . P7F ...
ROW 86 : C-2 00 F ... ... ... : G-2 00 F ... ... ... : A-2 00 . ... : 7-# 00 8 ... : ... .. . ... ... : D#3 01 6 ... ... : D#4 01 6 ... ... : A-2 01 F P83 ...
ROW 87 : ... .. E ... ... ... : ... .. E ... ... ... : ... .. . ... : ... .. 6 ... : ... .. . ... ... : ... .. . ... ... : ... .. . ... ... : ... .. D P80 ...
ROW 88 : ... .. D ... ... ... : ... .. D ... ... ... : ... .. . ... : ... .. 3 ... : ... .. . ... ... : ... .. 5 ... ... : ... .. 5 ... ... : ... .. 8 P7F ...
ROW 89 : ... .. 8 ... ... ... : ... .. 8 ... ... ... : ... .. . ... : ... .. 1 ... : ... .. . ... ... : ... .. 4 ... ... : ... .. 4 ... ... : ... .. . P7D ...
ROW 8A : ... .. . ... ... ... : ... .. . ... ... ... : ... .. . ... : ... .. . ... : ... .. . ... ... : ... .. . ... ... : ... .. . ... ... : ... .. . ... ...
ROW 8B : ... .. . ... ... ... : ... .. . ... ... ... : --- .. . ... : ... .. 0 ... : ... .. . ... ... : ... .. . ... ... : ... .. . ... ... : --- .. . P81 ...
ROW 8C : ... .. 7 ... ... ... : ... .. 7 ... ... ... : A-2 00 . ... : A-# 00 F ... : ... .. . ... ... : A-2 01 6 ... ... : A-3 01 6 ... ... : A-2 01 F P80 ...
ROW 8D : ... .. . ... ... ... : ... .. . ... ... ... : ... .. . ... : ... .. C ... : ... .. . ... ... : ... .. . ... ... : ... .. . ... ... : ... .. D P82 ...
ROW 8E : ... .. . ... ... ... : ... .. . ... ... ... : ... .. . ... : ... .. 6 ... : ... .. . ... ... : ... .. 5 ... ... : ... .. 5 ... ... : ... .. 8 P83 ...
ROW 8F : ... .. 6 ... ... ... : ... .. 6 ... ... ... : ... .. . ... : ... .. 3 ... : ... .. . ... ... : ... .. 4 ... ... : ... .. 4 ... ... : ... .. . ... ...
ROW 90 : ... .. . ... ... ... : ... .. . ... ... ... : ... .. . ... : ... .. 2 ... : ... .. . ... ... : ... .. . ... ... : ... .. . ... ... : ... .. . P81 ...
ROW 91 : ... .. . ... ... ... : ... .. . ... ... ... : --- .. . ... : ... .. 0 ... : ... .. . ... ... : ... .. . ... ... : ... .. . ... ... : --- .. . ... ...
ROW 92 : ... .. 5 ... ... ... : ... .. 5 ... ... ... : A-2 00 . ... : E-# 00 8 ... : ... .. . ... ... : E-2 01 6 ... ... : E-3 01 6 ... ... : A-2 01 F P7D ...
ROW 93 : ... .. . ... ... ... : ... .. . ... ... ... : ... .. . ... : ... .. 6 ... : ... .. . ... ... : ... .. . ... ... : ... .. . ... ... : ... .. D ... ...
ROW 94 : ... .. . ... ... ... : ... .. . ... ... ... : ... .. . ... : ... .. 3 ... : ... .. . ... ... : ... .. 5 ... ... : ... .. 5 ... ... : ... .. 8 P7E ...
ROW 95 : ... .. . ... ... ... : ... .. . ... ... ... : ... .. . ... : ... .. 1 ... : ... .. . ... ... : ... .. 4 ... ... : ... .. 4 ... ... : ... .. . P80 ...
ROW 96 : ... .. . ... ... ... : ... .. . ... ... ... : ... .. . ... : ... .. . ... : ... .. . ... ... : ... .. . ... ... : ... .. . ... ... : ... .. . P82 ...
ROW 97 : ... .. . ... ... ... : ... .. . ... ... ... : --- .. . ... : ... .. 0 ... : ... .. . ... ... : ... .. . ... ... : ... .. . ... ... : --- .. . ... ...
ROW 98 : C#2 00 6 P6B ... ... : G#2 00 6 P7C ... ... : A-4 00 . ... : 1-# 00 F ... : ... .. . ... ... : D#2 01 6 ... ... : D#3 01 6 ... ... : A#2 01 F P83 ...
ROW 99 : ... .. . P7B ... ... : ... .. . P8C ... ... : B-3 00 . ... : ... .. C ... : ... .. . ... ... : ... .. . ... ... : ... .. . ... ... : ... .. D P81 ...
ROW 9A : ... .. . P74 ... ... : ... .. . P85 ... ... : E-3 00 . ... : ... .. 6 ... : ... .. . ... ... : ... .. 5 ... ... : ... .. 5 ... ... : ... .. 8 P80 ...
ROW 9B : C-2 00 6 P8C ... ... : G-2 00 6 P8D ... ... : D#3 00 . ... : ... .. 3 ... : ... .. . ... ... : ... .. 4 ... ... : ... .. 4 ... ... : ... .. . P7D ...
ROW 9C : ... .. . P74 ... ... : ... .. . P75 ... ... : A#2 00 . ... : ... .. 2 ... : ... .. . ... ... : ... .. . ... ... : ... .. . ... ... : ... .. . ... ...
ROW 9D : B-1 00 6 P8F ... ... : F#2 00 6 P7F ... ... : ... .. . ... : ... .. 0 ... : ... .. . ... ... : ... .. . ... ... : ... .. . ... ... : --- .. . P7F ...
ROW 9E : ... .. 7 P88 ... ... : ... .. 7 P78 ... ... : ... .. . ... : 9-# 00 8 ... : ... .. . ... ... : E-2 01 6 ... ... : E-3 01 6 ... ... : A#2 01 F P80 ...
ROW 9F : ... .. . P98 ... ... : ... .. . P88 ... ... : ... .. . ... : ... .. 6 ... : ... .. . ... ... : ... .. . ... ... : ... .. . ... ... : ... .. D P81 ...
ROW A0 : C-2 00 7 P80 ... ... : G-2 00 7 P81 ... ... : ... .. . ... : ... .. 3 ... : ... .. . ... ... : ... .. 5 ... ... : ... .. 5 ... ... : ... .. 8 P83 ...
ROW A1 : ... .. 8 P98 ... ... : G#2 00 8 P79 ... ... : ... .. . ... : ... .. 1 ... : ... .. . ... ... : ... .. 4 ... ... : ... .. 4 ... ... : ... .. . ... ...
ROW A2 : C#2 00 8 P7A ... ... : ... .. . P8B ... ... : ... .. . ... : ... .. . ... : ... .. . ... ... : ... .. . ... ... : ... .. . ... ... : ... .. . P81 ...
ROW A3 : ... .. . P76 ... ... : ... .. . P87 ... ... : --- .. . ... : ... .. 0 ... : ... .. . ... ... : ... .. . ... ... : ... .. . ... ... : --- .. . ... ...
ROW A4 : C-2 00 8 P90 ... ... : ... .. . P71 ... ... : A#2 00 . ... : 1-# 00 F ... : ... .. . ... ... : A-2 01 6 ... ... : A-3 01 6 ... ... : A#2 01 F P7E ...
ROW A5 : ... .. . P78 ... ... : G-2 00 8 P79 ... ... : ... .. . ... : ... .. C ... : ... .. . ... ... : ... .. . ... ... : ... .. . ... ... : ... .. D P7D ...
ROW A6 : B-1 00 8 P91 ... ... : F#2 00 8 P81 ... ... : ... .. . ... : ... .. 6 ... : ... .. . ... ... : ... .. 5 ... ... : ... .. 5 ... ... : ... .. 8 ... ...
ROW A7 : ... .. 9 P88 ... ... : ... .. 9 P78 ... ... : ... .. . ... : ... .. 3 ... : ... .. . ... ... : ... .. 4 ... ... : ... .. 4 ... ... : ... .. . P80 ...
ROW A8 : ... .. . P94 ... ... : ... .. . P84 ... ... : ... .. . ... : ... .. 2 ... : ... .. . ... ... : ... .. . ... ... : ... .. . ... ... : ... .. . P81 ...
ROW A9 : C-2 00 9 P7C ... ... : G-2 00 9 P7D ... ... : --- .. . ... : ... .. 0 ... : ... .. . ... ... : ... .. . ... ... : ... .. . ... ... : --- .. . ... ...
ROW AA : ... .. A P94 ... ... : G#2 00 A P75 ... ... : C-3 00 . ... : 9-# 00 8 ... : ... .. . ... ... : A#2 01 6 ... ... : A#3 01 6 ... ... : C-3 01 F P83 ...
ROW AB : C#2 00 A P78 ... ... : ... .. . P89 ... ... : ... .. . ... : ... .. 6 ... : ... .. . ... ... : ... .. . ... ... : ... .. . ... ... : ... .. D P82 ...
ROW AC : ... .. . ... ... ... : ... .. . ... ... ... : ... .. . ... : ... .. 3 ... : ... .. . ... ... : ... .. 5 ... ... : ... .. 5 ... ... : ... .. 8 P80 ...
ROW AD : C-2 00 A P94 ... ... : ... .. . P75 ... ... : ... .. . ... : ... .. 1 ... : ... .. . ... ... : ... .. 4 ... ... : ... .. 4 ... ... : ... .. . P7E ...
ROW AE : ... .. . P7C ... ... : G-2 00 A P7D ... ... : ... .. . ... : ... .. . ... : ... .. . ... ... : ... .. . ... ... : ... .. . ... ... : ... .. . P7D ...
ROW AF : B-1 00 A P94 ... ... : F#2 00 A P84 ... ... : --- .. . ... : ... .. 0 ... : ... .. . ... ... : ... .. . ... ... : ... .. . ... ... : --- .. . P7B ...
ROW B0 : D#2 00 F P80 ... ... : A#2 00 F P81 ... ... : C-5 00 . ... : ... .. D ... : ... .. . ... ... : E-3 01 6 ... ... : E-4 01 6 ... ... : C#3 01 F P7F ...
ROW B1 : ... .. E ... ... ... : ... .. E ... ... ... : D-4 00 . ... : ... .. B ... : ... .. . ... ... : ... .. . ... ... : ... .. . ... ... : ... .. D P81 ...
ROW B2 : ... .. D ... ... ... : ... .. D ... ... ... : G-3 00 . ... : ... .. . ... : ... .. . ... ... : ... .. 5 ... ... : ... .. 5 ... ... : ... .. 8 P83 ...
ROW B3 : ... .. A ... ... ... : ... .. A ... ... ... : F#3 00 . ... : ... .. A ... : ... .. . ... ... : ... .. 4 ... ... : ... .. 4 ... ... : ... .. . ... ...
ROW B4 : ... .. . ... ... ... : ... .. . ... ... ... : C#3 00 . ... : ... .. 8 ... : ... .. . ... ... : ... .. . ... ... : ... .. . ... ... : ... .. . P82 ...
ROW B5 : ... .. . ... ... ... : ... .. . ... ... ... : ... .. . ... : ... .. 7 ... : ... .. . ... ... : ... .. . ... ... : ... .. . ... ... : --- .. . ... ...
ROW B6 : D#3 00 F ... ... ... : A#3 00 F ... ... ... : ... .. . ... : 7-# 00 8 ... : ... .. . ... ... : F-3 01 6 ... ... : F-4 01 6 ... ... : C#3 01 F P7E ...
ROW B7 : ... .. E ... ... ... : ... .. E ... ... ... : ... .. . ... : ... .. 6 ... : ... .. . ... ... : ... .. . ... ... : ... .. . ... ... : ... .. D P7D ...
ROW B8 : ... .. D ... ... ... : ... .. D ... ... ... : ... .. . ... : ... .. 3 ... : ... .. . ... ... : ... .. 5 ... ... : ... .. 5 ... ... : ... .. 8 ... ...
ROW B9 : ... .. 2 ... ... ... : ... .. 2 ... ... ... : ... .. . ... : ... .. 1 ... : ... .. . ... ... : ... .. 4 ... ... : ... .. 4 ... ... : ... .. . P7F ...
ROW BA : ... .. . ... ... ... : ... .. . ... ... ... : ... .. . ... : ... .. . ... : ... .. . ... ... : ... .. . ... ... : ... .. . ... ... : ... .. . P80 ...
ROW BB : ... .. . ... ... ... : ... .. . ... ... ... : --- .. . ... : ... .. 0 ... : ... .. . ... ... : ... .. . ... ... : ... .. . ... ... : --- .. . ... ...
ROW BC : D-3 00 F ... ... ... : A-3 00 F ... ... ... : D#3 00 . ... : A-# 00 F ... : ... .. . ... ... : A-3 01 6 ... ... : A-4 01 6 ... ... : D#3 01 F P83 ...
ROW BD : ... .. E ... ... ... : ... .. E ... ... ... : ... .. . ... : ... .. C ... : ... .. . ... ... : ... .. . ... ... : ... .. . ... ... : ... .. D P82 ...
ROW BE : ... .. D ... ... ... : ... .. D ... ... ... : ... .. . ... : ... .. 6 ... : ... .. . ... ... : ... .. 5 ... ... : ... .. 5 ... ... : ... .. 8 P80 ...
ROW BF : ... .. 2 ... ... ... : ... .. 2 ... ... ... : ... .. . ... : ... .. 3 ... : ... .. . ... ... : ... .. 4 ... ... : ... .. 4 ... ... : ... .. . P7F ...
ROW C0 : ... .. . ... ... ... : ... .. . ... ... ... : ... .. . ... : ... .. 2 ... : ... .. . ... ... : ... .. . ... ... : ... .. . ... ... : ... .. . P7D ...
ROW C1 : ... .. . ... ... ... : ... .. . ... ... ... : --- .. . ... : ... .. 0 ... : ... .. . ... ... : ... .. . ... ... : ... .. . ... ... : --- .. . P7C ...
ROW C2 : A-2 00 F ... ... ... : E-3 00 F ... ... ... : D#3 00 . ... : E-# 00 8 ... : ... .. . ... ... : A#3 01 6 ... ... : A#4 01 6 ... ... : D#3 01 F P7F ...
ROW C3 : ... .. E ... ... ... : ... .. E ... ... ... : ... .. . ... : ... .. 6 ... : ... .. . ... ... : ... .. . ... ... : ... .. . ... ... : ... .. D P80 ...
ROW C4 : ... .. D ... ... ... : ... .. D ... ... ... : ... .. . ... : ... .. 3 ... : ... .. . ... ... : ... .. 5 ... ... : ... .. 5 ... ... : ... .. 8 P82 ...
ROW C5 : ... .. A ... ... ... : ... .. A ... ... ... : ... .. . ... : ... .. 1 ... : ... .. . ... ... : ... .. 4 ... ... : ... .. 4 ... ... : ... .. . P83 ...
ROW C6 : ... .. . ... ... ... : ... .. . ... ... ... : ... .. . ... : ... .. . ... : ... .. . ... ... : ... .. . ... ... : ... .. . ... ... : ... .. . ... ...
ROW C7 : ... .. . ... ... ... : ... .. . ... ... ... : --- .. . ... : ... .. 0 ... : ... .. . ... ... : ... .. . ... ... : ... .. . ... ... : --- .. . P82 ...
ROW C8 : G#2 00 A P7F ... ... : D#3 00 A P76 ... ... : G#4 00 . ... : 1-# 00 F ... : ... .. . ... ... : A-3 01 6 ... ... : A-4 01 6 ... ... : A-2 01 F P7F ...
ROW C9 : G-2 00 A ... ... ... : C#3 00 A P82 ... ... : A#3 00 . ... : ... .. C ... : ... .. . ... ... : ... .. . ... ... : ... .. . ... ... : ... .. D P7D ...
ROW CA : F#2 00 A P81 ... ... : C-3 00 A P7A ... ... : D#3 00 . ... : ... .. 6 ... : ... .. . ... ... : ... .. 5 ... ... : ... .. 5 ... ... : ... .. 8 ... ...
ROW CB : F-2 00 A P85 ... ... : B-2 00 A P73 ... ... : D-3 00 . ... : ... .. 3 ... : ... .. . ... ... : ... .. 4 ... ... : ... .. 4 ... ... : ... .. . P7E ...
ROW CC : E-2 00 A P8B ... ... : A-2 00 A P8A ... ... : A-2 00 . ... : ... .. 2 ... : ... .. . ... ... : ... .. . ... ... : ... .. . ... ... : ... .. . P80 ...
ROW CD : D#2 00 A P93 ... ... : G#2 00 A P89 ... ... : ... .. . ... : ... .. 0 ... : ... .. . ... ... : ... .. . ... ... : ... .. . ... ... : --- .. . ... ...
ROW CE : ... .. . P73 ... ... : G-2 00 A ... ... ... : ... .. . ... : 9-# 00 8 ... : ... .. . ... ... : A#3 01 6 ... ... : A#4 01 6 ... ... : A-2 01 F P83 ...
ROW CF : D-2 00 A P7E ... ... : F#2 00 A P8B ... ... : ... .. . ... : ... .. 6 ... : ... .. . ... ... : ... .. . ... ... : ... .. . ... ... : ... .. D ... ...
ROW D0 : C#2 00 A P8B ... ... : F-2 00 A P8F ... ... : ... .. . ... : ... .. 3 ... : ... .. . ... ... : ... .. 5 ... ... : ... .. 5 ... ... : ... .. 8 P81 ...
ROW D1 : ... .. . P6B ... ... : ... .. . P6F ... ... : ... .. . ... : ... .. 1 ... : ... .. . ... ... : ... .. 4 ... ... : ... .. 4 ... ... : ... .. . P7F ...
ROW D2 : C-2 00 A P7B ... ... : E-2 00 A P75 ... ... : ... .. . ... : ... .. . ... : ... .. . ... ... : ... .. . ... ... : ... .. . ... ... : ... .. . P7D ...
ROW D3 : B-1 00 A P8E ... ... : D#2 00 A P7D ... ... : --- .. . ... : ... .. 0 ... : ... .. . ... ... : ... .. . ... ... : ... .. . ... ... : --- .. . P81 ...
ROW D4 : G-2 00 F P80 ... ... : D-3 00 F P81 ... ... : A-2 00 . ... : B-# 00 F ... : ... .. . ... ... : A-3 01 6 ... ... : A-4 01 6 ... ... : A-2 01 F P7E ...
ROW D5 : ... .. E ... ... ... : ... .. E ... ... ... : ... .. . ... : ... .. C ... : ... .. . ... ... : ... .. . ... ... : ... .. . ... ... : ... .. D P80 ...
ROW D6 : ... .. D ... ... ... : ... .. D ... ... ... : ... .. . ... : ... .. 6 ... : ... .. . ... ... : ... .. 5 ... ... : ... .. 5 ... ... : ... .. 8 P82 ...
ROW D7 : ... .. A ... ... ... : ... .. A ... ... ... : ... .. . ... : ... .. 3 ... : ... .. . ... ... : ... .. 4 ... ... : ... .. 4 ... ... : ... .. . P83 ...
ROW D8 : ... .. . ... ... ... : ... .. . ... ... ... : ... .. . ... : ... .. 2 ... : ... .. . ... ... : ... .. . ... ... : ... .. . ... ... : ... .. . ... ...
ROW D9 : ... .. . ... ... ... : ... .. . ... ... ... : --- .. . ... : ... .. 0 ... : ... .. . ... ... : ... .. . ... ... : ... .. . ... ... : --- .. . P7F ...
ROW DA : A-2 00 F ... ... ... : E-3 00 F ... ... ... : A-2 00 . ... : 9-# 00 8 ... : ... .. . ... ... : E-3 01 6 ... ... : E-4 01 6 ... ... : A-2 01 F P80 ...
ROW DB : ... .. E ... ... ... : ... .. E ... ... ... : ... .. . ... : ... .. 6 ... : ... .. . ... ... : ... .. . ... ... : ... .. . ... ... : ... .. D P7D ...
ROW DC : ... .. D ... ... ... : ... .. D ... ... ... : ... .. . ... : ... .. 3 ... : ... .. . ... ... : ... .. 5 ... ... : ... .. 5 ... ... : ... .. 8 ... ...
ROW DD : ... .. 2 ... ... ... : ... .. 2 ... ... ... : ... .. . ... : ... .. 1 ... : ... .. . ... ... : ... .. 4 ... ... : ... .. 4 ... ... : ... .. . P7E ...
ROW DE : ... .. . ... ... ... : ... .. . ... ... ... : ... .. . ... : ... .. . ... : ... .. . ... ... : ... .. . ... ... : ... .. . ... ... : ... .. . P80 ...
ROW DF : ... .. . ... ... ... : ... .. . ... ... ... : --- .. . ... : ... .. 0 ... : ... .. . ... ... : ... .. . ... ... : ... .. . ... ... : --- .. . ... ...
ROW E0 : A#2 00 F ... ... ... : F-3 00 F ... ... ... : F#5 00 . ... : ... .. D ... : ... .. . ... ... : D#3 01 6 ... ... : D#4 01 6 ... ... : G-3 01 F P83 ...
ROW E1 : ... .. E ... ... ... : ... .. E ... ... ... : G#4 00 . ... : ... .. B ... : ... .. . ... ... : ... .. . ... ... : ... .. . ... ... : ... .. D ... ...
ROW E2 : ... .. D ... ... ... : ... .. D ... ... ... : C#4 00 . ... : ... .. . ... : ... .. . ... ... : ... .. 5 ... ... : ... .. 5 ... ... : ... .. 8 P81 ...
ROW E3 : ... .. A ... ... ... : ... .. A ... ... ... : C-4 00 . ... : ... .. A ... : ... .. . ... ... : ... .. 4 ... ... : ... .. 4 ... ... : ... .. . P80 ...
ROW E4 : ... .. . ... ... ... : ... .. . ... ... ... : G-3 00 . ... : ... .. 8 ... : ... .. . ... ... : ... .. . ... ... : ... .. . ... ... : ... .. . P7E ...
ROW E5 : ... .. . ... ... ... : ... .. . ... ... ... : ... .. . ... : ... .. 7 ... : ... .. . ... ... : ... .. . ... ... : ... .. . ... ... : --- .. . P81 ...
ROW E6 : A-2 00 F ... ... ... : E-3 00 F ... ... ... : A-3 00 . ... : 7-# 00 8 ... : ... .. . ... ... : A-2 01 6 ... ... : A-3 01 6 ... ... : A-3 01 F P7D ...
ROW E7 : ... .. E ... ... ... : ... .. E ... ... ... : ... .. . ... : ... .. 6 ... : ... .. . ... ... : ... .. . ... ... : ... .. . ... ... : ... .. D P80 ...
ROW E8 : ... .. D ... ... ... : ... .. D ... ... ... : ... .. . ... : ... .. 3 ... : ... .. . ... ... : ... .. 5 ... ... : ... .. 5 ... ... : ... .. 8 P81 ...
ROW E9 : ... .. 2 ... ... ... : ... .. 2 ... ... ... : ... .. . ... : ... .. 1 ... : ... .. . ... ... : ... .. 4 ... ... : ... .. 4 ... ... : ... .. . P83 ...
ROW EA : ... .. . ... ... ... : ... .. . ... ... ... : ... .. . ... : ... .. . ... : ... .. . ... ... : ... .. . ... ... : ... .. . ... ... : ... .. . ... ...
ROW EB : ... .. . ... ... ... : ... .. . ... ... ... : --- .. . ... : ... .. 0 ... : ... .. . ... ... : ... .. . ... ... : ... .. . ... ... : --- .. . P80 ...
ROW EC : C#3 00 F ... ... ... : G#3 00 F ... ... ... : D#4 00 . ... : A-# 00 F ... : ... .. . ... ... : E-2 01 6 ... ... : E-3 01 6 ... ... : D#4 01 F ... ...
ROW ED : ... .. E P89 ... ... : A-3 00 E P7B ... ... : ... .. . ... : ... .. C ... : ... .. . ... ... : ... .. . ... ... : ... .. . ... ... : ... .. D P7E ...
ROW EE : D-3 00 D P7B ... ... : ... .. D P84 ... ... : ... .. . ... : ... .. 6 ... : ... .. . ... ... : ... .. 5 ... ... : ... .. 5 ... ... : ... .. 8 P7D ...
ROW EF : ... .. A P84 ... ... : A#3 00 A P7F ... ... : ... .. . ... : ... .. 3 ... : ... .. . ... ... : ... .. 4 ... ... : ... .. 4 ... ... : ... .. . ... ...
ROW F0 : D#3 00 A P78 ... ... : ... .. . P81 ... ... : ... .. . ... : ... .. 2 ... : ... .. . ... ... : ... .. . ... ... : ... .. . ... ... : ... .. . P7F ...
ROW F1 : ... .. . P80 ... ... : ... .. . ... ... ... : ... .. . ... : ... .. 0 ... : ... .. . ... ... : ... .. . ... ... : ... .. . ... ... : ... .. . P81 ...
ROW F2 : ... .. . ... ... ... : ... .. . ... ... ... : ... .. . ... : E-# 00 8 ... : ... .. . ... ... : D#2 01 6 ... ... : D#3 01 6 ... ... : ... .. . P83 ...
ROW F3 : ... .. . ... ... ... : ... .. . ... ... ... : ... .. . ... : ... .. 6 ... : ... .. . ... ... : ... .. . ... ... : ... .. . ... ... : ... .. . ... ...
ROW F4 : ... .. . ... ... ... : ... .. . ... ... ... : ... .. . ... : ... .. 3 ... : ... .. . ... ... : ... .. 5 ... ... : ... .. 5 ... ... : ... .. . P82 ...
ROW F5 : ... .. . ... ... ... : ... .. . ... ... ... : ... .. . ... : ... .. 1 ... : ... .. . ... ... : ... .. 4 ... ... : ... .. 4 ... ... : ... .. . P80 ...
ROW F6 : ... .. . ... ... ... : ... .. . ... ... ... : ... .. . ... : ... .. . ... : ... .. . ... ... : ... .. . ... ... : ... .. . ... ... : ... .. . P7E ...
ROW F7 : ... .. . ... ... ... : ... .. . ... ... ... : ... .. . ... : ... .. 0 ... : ... .. . ... ... : ... .. . ... ... : ... .. . ... ... : ... .. . P7D ...
ROW F8 : E-3 00 A P78 ... ... : B-3 00 A P80 ... ... : D-6 00 . ... : 1-# 00 F ... : ... .. . ... ... : E-2 01 6 ... ... : E-3 01 6 ... ... : C-4 01 8 P84 ...
ROW F9 : ... .. . P80 ... ... : C-4 00 A P7C ... ... : E-5 00 . ... : ... .. C ... : ... .. . ... ... : ... .. . ... ... : ... .. . ... ... : A#3 01 8 ... ...
ROW FA : ... .. . P7D ... ... : B-3 00 A P85 ... ... : A-4 00 . ... : ... .. 6 ... : ... .. . ... ... : ... .. 5 ... ... : ... .. 5 ... ... : G#3 01 8 P87 ...
ROW FB : D#3 00 A P86 ... ... : A#3 00 A P87 ... ... : G#4 00 . ... : ... .. 3 ... : ... .. . ... ... : ... .. 4 ... ... : ... .. 4 ... ... : G-3 01 8 P7C ...
ROW FC : ... .. . P7A ... ... : ... .. . P7B ... ... : D#4 00 . ... : ... .. 2 ... : ... .. . ... ... : ... .. . ... ... : ... .. . ... ... : F-3 01 8 P84 ...
ROW FD : D-3 00 A P83 ... ... : A-3 00 A P7D ... ... : ... .. . ... : ... .. 0 ... : ... .. . ... ... : ... .. . ... ... : ... .. . ... ... : E-3 01 8 P79 ...
ROW FE : ... .. 1 P80 ... ... : ... .. 1 P7A ... ... : C-4 00 . P82 : 9-# 00 8 ... : ... .. . ... ... : A-2 01 6 ... ... : A-3 01 6 ... ... : D-3 01 8 P86 ...
ROW FF : ... .. . P88 ... ... : ... .. . P82 ... ... : A#3 00 . P7C : ... .. 6 ... : ... .. . ... ... : ... .. . ... ... : ... .. . ... ... : C#3 01 8 P7F ...

PATTERN 1A
ROW 00 : D#3 00 1 P80 ... ... : A#3 00 1 P81 ... ... : G#3 00 . P79 : ... .. 3 ... : ... .. . ... ... : ... .. 5 ... ... : ... .. 5 ... ... : C-3 01 8 P79 ...
ROW 01 : E-3 00 1 P77 ... ... : B-3 00 1 P7F ... ... : F#3 00 . P7A : ... .. 1 ... : ... .. . ... ... : ... .. 4 ... ... : ... .. 4 ... ... : B-2 01 8 P76 ...
ROW 02 : ... .. . P80 ... ... : C-4 00 1 P7C ... ... : E-3 00 . P7F : ... .. . ... : ... .. . ... ... : ... .. . ... ... : ... .. . ... ... : A#2 01 8 ... ...
ROW 03 : ... .. . P7E ... ... : B-3 00 1 P86 ... ... : D-3 00 . P89 : ... .. 0 ... : ... .. . ... ... : ... .. . ... ... : ... .. . ... ... : A-2 01 8 P78 ...
ROW 04 : C-3 00 F P80 ... ... : G-3 00 F P81 ... ... : D-4 00 . P80 : 1-# 00 F ... : ... .. . ... ... : E-3 01 6 ... ... : E-4 01 6 ... ... : D-4 01 F P82 ...
ROW 05 : ... .. E P89 ... ... : G#3 00 E P7A ... ... : ... .. . ... : ... .. C ... : ... .. . ... ... : ... .. . ... ... : ... .. . ... ... : ... .. D P83 ...
ROW 06 : C#3 00 D P7A ... ... : ... .. D P83 ... ... : ... .. . ... : ... .. 6 ... : ... .. . ... ... : ... .. 5 ... ... : ... .. 5 ... ... : ... .. 8 ... ...
ROW 07 : ... .. A P83 ... ... : A-3 00 A P7D ... ... : ... .. . ... : ... .. 3 ... : ... .. . ... ... : ... .. 4 ... ... : ... .. 4 ... ... : ... .. . P80 ...
ROW 08 : D-3 00 A P75 ... ... : ... .. . P81 ... ... : ... .. . ... : ... .. 2 ... : ... .. . ... ... : ... .. . ... ... : ... .. . ... ... : ... .. . P7F ...
ROW 09 : ... .. . P7E ... ... : ... .. . ... ... ... : ... .. . ... : ... .. 0 ... : ... .. . ... ... : ... .. . ... ... : ... .. . ... ... : ... .. . P7D ...
ROW 0A : ... .. . P80 ... ... : ... .. . ... ... ... : ... .. . ... : 9-# 00 8 ... : ... .. . ... ... : F-3 01 6 ... ... : F-4 01 6 ... ... : ... .. . ... ...
ROW 0B : ... .. . ... ... ... : ... .. . ... ... ... : ... .. . ... : ... .. 6 ... : ... .. . ... ... : ... .. . ... ... : ... .. . ... ... : ... .. . P7E ...
ROW 0C : ... .. . ... ... ... : ... .. . ... ... ... : ... .. . ... : ... .. 3 ... : ... .. . ... ... : ... .. 5 ... ... : ... .. 5 ... ... : ... .. . P80 ...
ROW 0D : ... .. . ... ... ... : ... .. . ... ... ... : ... .. . ... : ... .. 1 ... : ... .. . ... ... : ... .. 4 ... ... : ... .. 4 ... ... : ... .. . P82 ...
ROW 0E : ... .. . ... ... ... : ... .. . ... ... ... : ... .. . ... : ... .. . ... : ... .. . ... ... : ... .. . ... ... : ... .. . ... ... : ... .. . P83 ...
ROW 0F : ... .. . ... ... ... : ... .. . ... ... ... : ... .. . ... : ... .. 0 ... : ... .. . ... ... : ... .. . ... ... : ... .. . ... ... : ... .. . ... ...
ROW 10 : D#3 00 A P78 ... ... : A#3 00 A P80 ... ... : C#6 00 . ... : ... .. D ... : ... .. . ... ... : A-3 01 6 ... ... : A-4 01 6 ... ... : C-4 01 8 P7B ...
ROW 11 : ... .. . P80 ... ... : B-3 00 A P7A ... ... : D#5 00 . ... : ... .. B ... : ... .. . ... ... : ... .. . ... ... : ... .. . ... ... : A-3 01 8 P88 ...
ROW 12 : ... .. . P7D ... ... : A#3 00 A P85 ... ... : G#4 00 . ... : ... .. . ... : ... .. . ... ... : ... .. 5 ... ... : ... .. 5 ... ... : G-3 01 8 P89 ...
ROW 13 : D-3 00 A P86 ... ... : A-3 00 A P87 ... ... : G-4 00 . ... : ... .. A ... : ... .. . ... ... : ... .. 4 ... ... : ... .. 4 ... ... : F#3 01 8 P7D ...
ROW 14 : ... .. . P7A ... ... : ... .. . P7B ... ... : D-4 00 . ... : ... .. 8 ... : ... .. . ... ... : ... .. . ... ... : ... .. . ... ... : E-3 01 8 P88 ...
ROW 15 : C#3 00 A P85 ... ... : G#3 00 A P7E ... ... : ... .. . ... : ... .. 7 ... : ... .. . ... ... : ... .. . ... ... : ... .. . ... ... : D#3 01 8 P81 ...
ROW 16 : ... .. 1 P82 ... ... : ... .. 1 P7B ... ... : B-3 00 . P84 : 7-# 00 8 ... : ... .. . ... ... : A#3 01 6 ... ... : A#4 01 6 ... ... : D-3 01 8 P7B ...
ROW 17 : ... .. . P8A ... ... : ... .. . P83 ... ... : A-3 00 . P80 : ... .. 6 ... : ... .. . ... ... : ... .. . ... ... : ... .. . ... ... : C#3 01 8 P76 ...
ROW 18 : D-3 00 1 P80 ... ... : A-3 00 1 P81 ... ... : G-3 00 . P7F : ... .. 3 ... : ... .. . ... ... : ... .. 5 ... ... : ... .. 5 ... ... : C-3 01 8 P72 ...
ROW 19 : D#3 00 1 P77 ... ... : A#3 00 1 P7F ... ... : F-3 00 . P82 : ... .. 1 ... : ... .. . ... ... : ... .. 4 ... ... : ... .. 4 ... ... : A#2 01 8 P8B ...
ROW 1A : ... .. . P80 ... ... : B-3 00 1 P7A ... ... : D#3 00 . P8A : ... .. . ... : ... .. . ... ... : ... .. . ... ... : ... .. . ... ... : A-2 01 8 ... ...
ROW 1B : ... .. . P7E ... ... : A#3 00 1 P86 ... ... : D-3 00 . P7F : ... .. 0 ... : ... .. . ... ... : ... .. . ... ... : ... .. . ... ... : G#2 01 8 ... ...
ROW 1C : C-3 00 F P80 V01 ... : G-3 00 F P81 V01 ... : A-2 00 . P80 : A-# 00 F ... : ... .. . ... ... : E-4 01 6 ... ... : E-5 01 6 ... ... : A-2 01 F P7D ...
ROW 1D : ... .. E ... ... ... : ... .. E ... ... ... : ... .. . ... : ... .. C ... : ... .. . ... ... : ... .. . ... ... : ... .. . ... ... : ... .. D P7E ...
ROW 1E : ... .. D ... ... ... : ... .. D ... ... ... : ... .. . ... : ... .. 6 ... : ... .. . ... ... : ... .. 5 ... ... : ... .. 5 ... ... : ... .. 8 P80 ...
ROW 1F : ... .. 2 ... ... ... : ... .. 2 ... ... ... : ... .. . ... : ... .. 3 ... : ... .. . ... ... : ... .. 4 ... ... : ... .. 4 ... ... : ... .. . P81 ...
ROW 20 : ... .. . ... ... ... : ... .. . ... ... ... : ... .. . ... : ... .. 2 ... : ... .. . ... ... : ... .. . ... ... : ... .. . ... ... : ... .. . P83 ...
ROW 21 : ... .. . ... ... ... : ... .. . ... ... ... : --- .. . ... : ... .. 0 ... : ... .. . ... ... : ... .. . ... ... : ... .. . ... ... : --- .. . P7F ...
ROW 22 : D-3 00 F ... ... ... : A-3 00 F ... ... ... : A-2 00 . ... : E-# 00 8 ... : ... .. . ... ... : F-4 01 6 ... ... : F-5 01 6 ... ... : A-2 01 F P81 ...
ROW 23 : ... .. E ... ... ... : ... .. E ... ... ... : ... .. . ... : ... .. 6 ... : ... .. . ... ... : ... .. . ... ... : ... .. . ... ... : ... .. D P80 ...
ROW 24 : ... .. D ... ... ... : ... .. D ... ... ... : ... .. . ... : ... .. 3 ... : ... .. . ... ... : ... .. 5 ... ... : ... .. 5 ... ... : ... .. 8 P7E ...
ROW 25 : ... .. 2 ... ... ... : ... .. 2 ... ... ... : ... .. . ... : ... .. 1 ... : ... .. . ... ... : ... .. 4 ... ... : ... .. 4 ... ... : ... .. . P7D ...
ROW 26 : ... .. . ... ... ... : ... .. . ... ... ... : ... .. . ... : ... .. . ... : ... .. . ... ... : ... .. . ... ... : ... .. . ... ... : ... .. . ... ...
ROW 27 : ... .. . ... ... ... : ... .. . ... ... ... : --- .. . ... : ... .. 0 ... : ... .. . ... ... : ... .. . ... ... : ... .. . ... ... : --- .. . P81 ...
ROW 28 : G-3 00 F ... ... ... : D-4 00 F ... ... ... : F#5 00 . ... : C-# 00 E ... : ... .. . ... ... : E-4 01 6 ... ... : E-5 01 6 ... ... : G-3 01 F ... ...
ROW 29 : ... .. E ... ... ... : ... .. E ... ... ... : G#4 00 . ... : ... .. D ... : ... .. . ... ... : ... .. . ... ... : ... .. . ... ... : ... .. D P83 ...
ROW 2A : ... .. D ... ... ... : ... .. D ... ... ... : C#4 00 . ... : ... .. . ... : ... .. . ... ... : ... .. 5 ... ... : ... .. 5 ... ... : ... .. 8 ... ...
ROW 2B : ... .. A ... ... ... : ... .. A ... ... ... : C-4 00 . ... : ... .. C ... : ... .. . ... ... : ... .. 4 ... ... : ... .. 4 ... ... : ... .. . P82 ...
ROW 2C : ... .. . ... ... ... : ... .. . ... ... ... : G-3 00 . ... : ... .. B ... : ... .. . ... ... : ... .. . ... ... : ... .. . ... ... : ... .. . P80 ...
ROW 2D : ... .. . ... ... ... : ... .. . ... ... ... : ... .. . ... : ... .. . ... : ... .. . ... ... : ... .. . ... ... : ... .. . ... ... : --- .. . P7F ...
ROW 2E : A-3 00 F ... ... ... : E-4 00 F ... ... ... : A-3 00 . ... : ... .. A ... : ... .. . ... ... : F-4 01 6 ... ... : F-5 01 6 ... ... : A-3 01 F P7D ...
ROW 2F : ... .. E ... ... ... : ... .. E ... ... ... : ... .. . ... : ... .. . ... : ... .. . ... ... : ... .. . ... ... : ... .. . ... ... : ... .. D ... ...
ROW 30 : ... .. D ... ... ... : ... .. D ... ... ... : ... .. . ... : ... .. 9 ... : ... .. . ... ... : ... .. 5 ... ... : ... .. 5 ... ... : ... .. 8 P7F ...
ROW 31 : ... .. A ... ... ... : ... .. A ... ... ... : ... .. . ... : ... .. 8 ... : ... .. . ... ... : ... .. 4 ... ... : ... .. 4 ... ... : ... .. . P81 ...
ROW 32 : ... .. . ... ... ... : ... .. . ... ... ... : ... .. . ... : ... .. . ... : ... .. . ... ... : ... .. . ... ... : ... .. . ... ... : ... .. . P83 ...
ROW 33 : ... .. . ... ... ... : ... .. . ... ... ... : --- .. . ... : ... .. 7 ... : ... .. . ... ... : ... .. . ... ... : ... .. . ... ... : --- .. . P80 ...
ROW 34 : A#3 00 F ... ... ... : F-4 00 F ... ... ... : A#3 00 . ... : ... .. 6 ... : ... .. . ... ... : E-4 01 6 ... ... : E-5 01 6 ... ... : A#3 01 F P82 ...
ROW 35 : ... .. E ... ... ... : ... .. E ... ... ... : ... .. . ... : ... .. . ... : ... .. . ... ... : ... .. . ... ... : ... .. . ... ... : ... .. D P80 ...
ROW 36 : ... .. D ... ... ... : ... .. D ... ... ... : ... .. . ... : ... .. 5 ... : ... .. . ... ... : ... .. 5 ... ... : ... .. 5 ... ... : ... .. 8 P7E ...
ROW 37 : ... .. 2 ... ... ... : ... .. 2 ... ... ... : ... .. . ... : ... .. . ... : ... .. . ... ... : ... .. 4 ... ... : ... .. 4 ... ... : ... .. . P7D ...
ROW 38 : ... .. . ... ... ... : ... .. . ... ... ... : ... .. . ... : ... .. 4 ... : ... .. . ... ... : ... .. . ... ... : ... .. . ... ... : ... .. . ... ...
ROW 39 : ... .. . ... ... ... : ... .. . ... ... ... : --- .. . ... : ... .. 3 ... : ... .. . ... ... : ... .. . ... ... : ... .. . ... ... : --- .. . P81 ...
ROW 3A : D#4 00 F ... ... ... : A#4 00 F ... ... ... : D#4 00 . ... : 1-# 00 F ... : ... .. . ... ... : A-3 01 6 ... ... : A-4 01 6 ... ... : D#4 01 F P80 ...
ROW 3B : ... .. E ... ... ... : ... .. E ... ... ... : ... .. . ... : ... .. C ... : ... .. . ... ... : ... .. . ... ... : ... .. . ... ... : ... .. D P83 ...
ROW 3C : ... .. D ... ... ... : ... .. D ... ... ... : ... .. . ... : ... .. 6 ... : ... .. . ... ... : ... .. 5 ... ... : ... .. 5 ... ... : ... .. 8 ... ...
ROW 3D : ... .. A ... ... ... : ... .. A ... ... ... : ... .. . ... : ... .. 3 ... : ... .. . ... ... : ... .. 4 ... ... : ... .. 4 ... ... : ... .. . P82 ...
ROW 3E : ... .. . ... ... ... : ... .. . ... ... ... : ... .. . ... : ... .. 2 ... : ... .. . ... ... : ... .. . ... ... : ... .. . ... ... : ... .. . P80 ...
ROW 3F : ... .. . ... ... ... : ... .. . ... ... ... : --- .. . ... : ... .. 0 ... : ... .. . ... ... : ... .. . ... ... : ... .. . ... ... : --- .. . ... ...
ROW 40 : C#4 00 F ... ... ... : G#4 00 F ... ... ... : C-6 00 . ... : 5-# 00 F ... : ... .. . ... ... : E-3 01 6 ... ... : E-4 01 6 ... ... : C#4 01 F P7D ...
ROW 41 : ... .. E ... ... ... : ... .. E ... ... ... : D-5 00 . ... : ... .. C ... : ... .. . ... ... : ... .. . ... ... : ... .. . ... ... : ... .. D ... ...
ROW 42 : ... .. D ... ... ... : ... .. D ... ... ... : G-4 00 . ... : ... .. 6 ... : ... .. . ... ... : ... .. 5 ... ... : ... .. 5 ... ... : ... .. 8 P7F ...
ROW 43 : ... .. A ... ... ... : ... .. A ... ... ... : F#4 00 . ... : ... .. 3 ... : ... .. . ... ... : ... .. 4 ... ... : ... .. 4 ... ... : ... .. . P80 ...
ROW 44 : ... .. . ... ... ... : ... .. . ... ... ... : C#4 00 . ... : ... .. 2 ... : ... .. . ... ... : ... .. . ... ... : ... .. . ... ... : ... .. . P82 ...
ROW 45 : ... .. . ... ... ... : ... .. . ... ... ... : ... .. . ... : ... .. 0 ... : ... .. . ... ... : ... .. . ... ... : ... .. . ... ... : --- .. . ... ...
ROW 46 : A-3 00 F ... ... ... : E-4 00 F ... ... ... : A-3 00 . ... : B-# 00 F ... : ... .. . ... ... : D#3 01 6 ... ... : D#4 01 6 ... ... : A-3 01 F P83 ...
ROW 47 : ... .. E ... ... ... : ... .. E ... ... ... : ... .. . ... : ... .. C ... : ... .. . ... ... : ... .. . ... ... : ... .. . ... ... : ... .. D P80 ...
ROW 48 : ... .. D ... ... ... : ... .. D ... ... ... : ... .. . ... : ... .. 6 ... : ... .. . ... ... : ... .. 5 ... ... : ... .. 5 ... ... : ... .. 8 P7F ...
ROW 49 : ... .. A ... ... ... : ... .. A ... ... ... : ... .. . ... : ... .. 3 ... : ... .. . ... ... : ... .. 4 ... ... : ... .. 4 ... ... : ... .. . P7D ...
ROW 4A : ... .. . ... ... ... : ... .. . ... ... ... : ... .. . ... : ... .. 2 ... : ... .. . ... ... : ... .. . ... ... : ... .. . ... ... : ... .. . ... ...
ROW 4B : ... .. . ... ... ... : ... .. . ... ... ... : --- .. . ... : ... .. 0 ... : ... .. . ... ... : ... .. . ... ... : ... .. . ... ... : --- .. . P80 ...
ROW 4C : G-3 00 F ... ... ... : D-4 00 F ... ... ... : G-3 00 . ... : 1-# 00 F ... : ... .. . ... ... : A-2 01 6 ... ... : A-3 01 6 ... ... : G-3 01 F ... ...
ROW 4D : ... .. E ... ... ... : ... .. E ... ... ... : ... .. . ... : ... .. C ... : ... .. . ... ... : ... .. . ... ... : ... .. . ... ... : ... .. D P82 ...
ROW 4E : ... .. D ... ... ... : ... .. D ... ... ... : ... .. . ... : ... .. 6 ... : ... .. . ... ... : ... .. 5 ... ... : ... .. 5 ... ... : ... .. 8 P83 ...
ROW 4F : ... .. 2 ... ... ... : ... .. 2 ... ... ... : ... .. . ... : ... .. 3 ... : ... .. . ... ... : ... .. 4 ... ... : ... .. 4 ... ... : ... .. . ... ...
ROW 50 : ... .. . ... ... ... : ... .. . ... ... ... : ... .. . ... : ... .. 2 ... : ... .. . ... ... : ... .. . ... ... : ... .. . ... ... : ... .. . P81 ...
ROW 51 : ... .. . ... ... ... : ... .. . ... ... ... : --- .. . ... : ... .. 0 ... : ... .. . ... ... : ... .. . ... ... : ... .. . ... ... : --- .. . P80 ...
ROW 52 : D#3 00 F ... ... ... : A#3 00 F ... ... ... : D#3 00 . ... : B-# 00 F ... : ... .. . ... ... : E-2 01 6 ... ... : E-3 01 6 ... ... : D#3 01 F P7D ...
ROW 53 : ... .. E ... ... ... : ... .. E ... ... ... : ... .. . ... : ... .. C ... : ... .. . ... ... : ... .. . ... ... : ... .. . ... ... : ... .. D ... ...
ROW 54 : ... .. D ... ... ... : ... .. D ... ... ... : ... .. . ... : ... .. 6 ... : ... .. . ... ... : ... .. 5 ... ... : ... .. 5 ... ... : ... .. 8 P7E ...
ROW 55 : ... .. A ... ... ... : ... .. A ... ... ... : ... .. . ... : ... .. 3 ... : ... .. . ... ... : ... .. 4 ... ... : ... .. 4 ... ... : ... .. . P80 ...
ROW 56 : ... .. . ... ... ... : ... .. . ... ... ... : ... .. . ... : ... .. 2 ... : ... .. . ... ... : ... .. . ... ... : ... .. . ... ... : ... .. . P82 ...
ROW 57 : ... .. . ... ... ... : ... .. . ... ... ... : --- .. . ... : ... .. 0 ... : ... .. . ... ... : ... .. . ... ... : ... .. . ... ... : --- .. . P81 ...
ROW 58 : C#3 00 F ... ... ... : G#3 00 F ... ... ... : C-5 00 . ... : ... .. F ... : ... .. . ... ... : D#2 01 6 ... ... : D#3 01 6 ... ... : C#3 01 F P83 ...
ROW 59 : ... .. E ... ... ... : ... .. E ... ... ... : D-4 00 . ... : ... .. C ... : ... .. . ... ... : ... .. . ... ... : ... .. . ... ... : ... .. D P81 ...
ROW 5A : ... .. D ... ... ... : ... .. D ... ... ... : G-3 00 . ... : ... .. 6 ... : ... .. . ... ... : ... .. 5 ... ... : ... .. 5 ... ... : ... .. 8 P80 ...
ROW 5B : ... .. 2 ... ... ... : ... .. 2 ... ... ... : F#3 00 . ... : ... .. 3 ... : ... .. . ... ... : ... .. 4 ... ... : ... .. 4 ... ... : ... .. . P7D ...
ROW 5C : ... .. . ... ... ... : ... .. . ... ... ... : C#3 00 . ... : ... .. 2 ... : ... .. . ... ... : ... .. . ... ... : ... .. . ... ... : ... .. . ... ...
ROW 5D : ... .. . ... ... ... : ... .. . ... ... ... : ... .. . ... : ... .. 0 ... : ... .. . ... ... : ... .. . ... ... : ... .. . ... ... : --- .. . ... ...
ROW 5E : A-2 00 F ... ... ... : E-3 00 F ... ... ... : A-2 00 . ... : ... .. F ... : ... .. . ... ... : E-2 01 6 ... ... : E-3 01 6 ... ... : A-2 01 F P80 ...
ROW 5F : ... .. E ... ... ... : ... .. E ... ... ... : ... .. . ... : ... .. C ... : ... .. . ... ... : ... .. . ... ... : ... .. . ... ... : ... .. D P81 ...
ROW 60 : ... .. D ... ... ... : ... .. D ... ... ... : ... .. . ... : ... .. 6 ... : ... .. . ... ... : ... .. 5 ... ... : ... .. 5 ... ... : ... .. 8 P83 ...
ROW 61 : ... .. A ... ... ... : ... .. A ... ... ... : ... .. . ... : ... .. 3 ... : ... .. . ... ... : ... .. 4 ... ... : ... .. 4 ... ... : ... .. . ... ...
ROW 62 : ... .. . ... ... ... : ... .. . ... ... ... : ... .. . ... : ... .. 2 ... : ... .. . ... ... : ... .. . ... ... : ... .. . ... ... : ... .. . P81 ...
ROW 63 : ... .. . ... ... ... : ... .. . ... ... ... : --- .. . ... : ... .. 0 ... : ... .. . ... ... : ... .. . ... ... : ... .. . ... ... : --- .. . ... ...
ROW 64 : G-2 00 F ... ... ... : D-3 00 F ... ... ... : G-2 00 . ... : 5-# 00 F ... : ... .. . ... ... : A-2 01 6 ... ... : A-3 01 6 ... ... : G-2 01 F P7E ...
ROW 65 : ... .. E ... ... ... : ... .. E ... ... ... : ... .. . ... : ... .. C ... : ... .. . ... ... : ... .. . ... ... : ... .. . ... ... : ... .. D P7D ...
ROW 66 : ... .. D ... ... ... : ... .. D ... ... ... : ... .. . ... : ... .. 6 ... : ... .. . ... ... : ... .. 5 ... ... : ... .. 5 ... ... : ... .. 8 ... ...
ROW 67 : ... .. A ... ... ... : ... .. A ... ... ... : ... .. . ... : ... .. 3 ... : ... .. . ... ... : ... .. 4 ... ... : ... .. 4 ... ... : ... .. . P80 ...
ROW 68 : ... .. . ... ... ... : ... .. . ... ... ... : ... .. . ... : ... .. 2 ... : ... .. . ... ... : ... .. . ... ... : ... .. . ... ... : ... .. . P81 ...
ROW 69 : ... .. . ... ... ... : ... .. . ... ... ... : --- .. . ... : ... .. 0 ... : ... .. . ... ... : ... .. . ... ... : ... .. . ... ... : --- .. . P7E ...
ROW 6A : D#2 00 F ... ... ... : F-2 00 F ... ... ... : D#2 00 . ... : ... .. F ... : ... .. . ... ... : A#2 01 6 ... ... : A#3 01 6 ... ... : D#2 01 F P83 ...
ROW 6B : ... .. E ... ... ... : ... .. E ... ... ... : ... .. . ... : ... .. C ... : ... .. . ... ... : ... .. . ... ... : ... .. . ... ... : ... .. D P82 ...
ROW 6C : ... .. D ... ... ... : ... .. D ... ... ... : ... .. . ... : ... .. 6 ... : ... .. . ... ... : ... .. 5 ... ... : ... .. 5 ... ... : ... .. 8 P80 ...
ROW 6D : ... .. 2 ... ... ... : ... .. 2 ... ... ... : ... .. . ... : ... .. 3 ... : ... .. . ... ... : ... .. 4 ... ... : ... .. 4 ... ... : ... .. . P7E ...
ROW 6E : ... .. . ... ... ... : ... .. . ... ... ... : ... .. . ... : ... .. 2 ... : ... .. . ... ... : ... .. . ... ... : ... .. . ... ... : ... .. . P7D ...
ROW 6F : ... .. . ... ... ... : ... .. . ... ... ... : --- .. . ... : ... .. 0 ... : ... .. . ... ... : ... .. . ... ... : ... .. . ... ... : --- .. . P81 ...
ROW 70 : D-3 00 F ... ... ... : D-2 00 F ... ... ... : C-4 00 . ... : 1-# 00 F ... : ... .. . ... ... : E-3 01 6 ... ... : E-4 01 6 ... ... : C#2 01 F P7F ...
ROW 71 : ... .. E ... ... ... : ... .. E ... ... ... : D-3 00 . ... : ... .. C ... : ... .. . ... ... : ... .. . ... ... : ... .. . ... ... : ... .. D P81 ...
ROW 72 : ... .. D ... ... ... : ... .. D ... ... ... : G-2 00 . ... : ... .. 6 ... : ... .. . ... ... : ... .. 5 ... ... : ... .. 5 ... ... : ... .. 8 P83 ...
ROW 73 : ... .. A ... ... ... : ... .. A ... ... ... : F#2 00 . ... : ... .. 3 ... : ... .. . ... ... : ... .. 4 ... ... : ... .. 4 ... ... : ... .. . ... ...
ROW 74 : ... .. . ... ... ... : ... .. . ... ... ... : C#2 00 . ... : ... .. 2 ... : ... .. . ... ... : ... .. . ... ... : ... .. . ... ... : ... .. . P82 ...
ROW 75 : ... .. . ... ... ... : ... .. . ... ... ... : ... .. . ... : ... .. 0 ... : ... .. . ... ... : ... .. . ... ... : ... .. . ... ... : --- .. . ... ...
ROW 76 : ... .. F ... ... ... : ... .. F ... ... ... : D#2 00 . ... : B-# 00 F ... : ... .. . ... ... : F-3 01 6 ... ... : F-4 01 6 ... ... : D#2 01 F P7E ...
ROW 77 : ... .. E ... ... ... : ... .. E ... ... ... : ... .. . ... : ... .. C ... : ... .. . ... ... : ... .. . ... ... : ... .. . ... ... : ... .. D P7D ...
ROW 78 : ... .. D ... ... ... : ... .. D ... ... ... : ... .. . ... : ... .. 6 ... : ... .. . ... ... : ... .. 5 ... ... : ... .. 5 ... ... : ... .. 8 ... ...
ROW 79 : ... .. 2 ... ... ... : ... .. 2 ... ... ... : ... .. . ... : ... .. 3 ... : ... .. . ... ... : ... .. 4 ... ... : ... .. 4 ... ... : ... .. . P7F ...
ROW 7A : ... .. . ... ... ... : ... .. . ... ... ... : ... .. . ... : ... .. 2 ... : ... .. . ... ... : ... .. . ... ... : ... .. . ... ... : ... .. . P80 ...
ROW 7B : ... .. . ... ... ... : ... .. . ... ... ... : --- .. . ... : ... .. 0 ... : ... .. . ... ... : ... .. . ... ... : ... .. . ... ... : --- .. . ... ...
ROW 7C : D#3 00 F ... ... ... : D#2 00 F ... ... ... : G-2 00 . ... : ... .. F ... : ... .. . ... ... : A-3 01 6 ... ... : A-4 01 6 ... ... : G-2 01 F P83 ...
ROW 7D : ... .. E ... ... ... : ... .. E ... ... ... : ... .. . ... : ... .. C ... : ... .. . ... ... : ... .. . ... ... : ... .. . ... ... : ... .. D P82 ...
ROW 7E : ... .. D ... ... ... : ... .. D ... ... ... : ... .. . ... : ... .. 6 ... : ... .. . ... ... : ... .. 5 ... ... : ... .. 5 ... ... : ... .. 8 P80 ...
ROW 7F : ... .. 2 ... ... ... : ... .. 2 ... ... ... : ... .. . ... : ... .. 3 ... : ... .. . ... ... : ... .. 4 ... ... : ... .. 4 ... ... : ... .. . P7F ...
ROW 80 : ... .. . ... ... ... : ... .. . ... ... ... : ... .. . ... : ... .. 2 ... : ... .. . ... ... : ... .. . ... ... : ... .. . ... ... : ... .. . P7D ...
ROW 81 : ... .. . ... ... ... : ... .. . ... ... ... : --- .. . ... : ... .. 0 ... : ... .. . ... ... : ... .. . ... ... : ... .. . ... ... : --- .. . P82 ...
ROW 82 : E-3 00 F ... ... ... : E-2 00 F ... ... ... : A#2 00 . ... : 1-# 00 F ... : ... .. . ... ... : ... .. 6 ... ... : ... .. 6 ... ... : A-2 01 F P7F ...
ROW 83 : ... .. E ... ... ... : ... .. E ... ... ... : ... .. . ... : ... .. C ... : ... .. . ... ... : ... .. . ... ... : ... .. . ... ... : ... .. D P80 ...
ROW 84 : ... .. D ... ... ... : ... .. D ... ... ... : ... .. . ... : ... .. 6 ... : ... .. . ... ... : ... .. 5 ... ... : ... .. 5 ... ... : ... .. 8 P82 ...
ROW 85 : ... .. 2 ... ... ... : ... .. 2 ... ... ... : A-4 00 . ... : ... .. 3 ... : ... .. . ... ... : ... .. 4 ... ... : ... .. 4 ... ... : ... .. . P83 ...
ROW 86 : ... .. . ... ... ... : ... .. . ... ... ... : B-3 00 . ... : ... .. 2 ... : ... .. . ... ... : ... .. . ... ... : ... .. . ... ... : ... .. . ... ...
ROW 87 : ... .. . ... ... ... : ... .. . ... ... ... : E-3 00 . ... : ... .. 0 ... : ... .. . ... ... : ... .. . ... ... : ... .. . ... ... : --- .. . P7F ...
ROW 88 : F-2 00 F ... ... ... : F-3 00 F ... ... ... : E-5 00 . ... : 9-# 00 D ... : === 00 . Z80 ... : F-4 01 6 ... ... : F-5 01 6 ... ... : F-1 01 F ... ...
ROW 89 : ... .. E ... ... ... : ... .. E ... ... ... : F#4 00 . ... : ... .. B ... : ... .. . ... ... : ... .. . ... ... : ... .. . ... ... : ... .. D P7D ...
ROW 8A : ... .. D ... ... ... : ... .. D ... ... ... : B-3 00 . ... : ... .. . ... : ... .. . ... ... : ... .. 5 ... ... : ... .. 5 ... ... : ... .. 8 ... ...
ROW 8B : ... .. A ... ... ... : ... .. A ... ... ... : A#3 00 . ... : ... .. A ... : ... .. . ... ... : ... .. 4 ... ... : ... .. 4 ... ... : ... .. . P7E ...
ROW 8C : ... .. . ... ... ... : ... .. . ... ... ... : F-3 00 . ... : ... .. 8 ... : ... .. . ... ... : ... .. . ... ... : ... .. . ... ... : ... .. . P80 ...
ROW 8D : ... .. . ... ... ... : ... .. . ... ... ... : ... .. . ... : ... .. 7 ... : ... .. . ... ... : ... .. . ... ... : ... .. . ... ... : ... .. . P82 ...
ROW 8E : C-2 00 F ... ... ... : C-3 00 F ... ... ... : C-3 00 . ... : ... .. 8 ... : ... .. . ... ... : F#4 01 6 ... ... : F#5 01 6 ... ... : C-1 01 F P83 ...
ROW 8F : ... .. E ... ... ... : ... .. E ... ... ... : ... .. . ... : ... .. 6 ... : ... .. . ... ... : ... .. . ... ... : ... .. . ... ... : ... .. D ... ...
ROW 90 : ... .. D ... ... ... : ... .. D ... ... ... : ... .. . ... : ... .. 3 ... : ... .. . ... ... : ... .. 5 ... ... : ... .. 5 ... ... : ... .. 8 P81 ...
ROW 91 : ... .. A ... ... ... : ... .. A ... ... ... : ... .. . ... : ... .. 1 ... : ... .. . ... ... : ... .. 4 ... ... : ... .. 4 ... ... : ... .. . P7F ...
ROW 92 : ... .. . ... ... ... : ... .. . ... ... ... : ... .. . ... : ... .. . ... : ... .. . ... ... : ... .. . ... ... : ... .. . ... ... : ... .. . P7D ...
ROW 93 : ... .. . ... ... ... : ... .. . ... ... ... : ... .. . ... : ... .. 0 ... : ... .. . ... ... : ... .. . ... ... : ... .. . ... ... : ... .. . ... ...
ROW 94 : F-1 00 F ... ... ... : F-2 00 F ... ... ... : F-2 00 . ... : B-# 00 F ... : ... .. . ... ... : F-4 01 6 ... ... : F-5 01 6 ... ... : F-0 01 F P7E ...
ROW 95 : ... .. E ... ... ... : ... .. E ... ... ... : ... .. . ... : ... .. C ... : ... .. . ... ... : ... .. . ... ... : ... .. . ... ... : ... .. D P80 ...
ROW 96 : ... .. D ... ... ... : ... .. D ... ... ... : ... .. . ... : ... .. 6 ... : ... .. . ... ... : ... .. 5 ... ... : ... .. 5 ... ... : ... .. 8 P82 ...
ROW 97 : ... .. A ... ... ... : ... .. A ... ... ... : ... .. . ... : ... .. 3 ... : ... .. . ... ... : ... .. 4 ... ... : ... .. 4 ... ... : ... .. . P83 ...
ROW 98 : ... .. . ... ... ... : ... .. . ... ... ... : ... .. . ... : ... .. 2 ... : ... .. . ... ... : ... .. . ... ... : ... .. . ... ... : ... .. . ... ...
ROW 99 : ... .. . ... ... ... : ... .. . ... ... ... : ... .. . ... : ... .. 0 ... : ... .. . ... ... : ... .. . ... ... : ... .. . ... ... : ... .. . P81 ...
ROW 9A : ... .. . P60 ... ... : E-2 00 A P87 ... ... : E-2 00 . P86 : 9-# 00 8 ... : ... .. . ... ... : C-4 01 6 ... ... : C-5 01 6 ... ... : ... .. . P80 ...
ROW 9B : E-1 00 A P8C ... ... : D#2 00 A P8F ... ... : D#2 00 . P8E : ... .. 6 ... : ... .. . ... ... : ... .. . ... ... : ... .. . ... ... : ... .. . P7D ...
ROW 9C : ... .. . P6C ... ... : ... .. . P6F ... ... : ... .. . P6E : ... .. 3 ... : ... .. . ... ... : ... .. 5 ... ... : ... .. 5 ... ... : ... .. . ... ...
ROW 9D : D#1 00 A P9D ... ... : D-2 00 A P7A ... ... : D-2 00 . P79 : ... .. 1 ... : ... .. . ... ... : ... .. 4 ... ... : ... .. 4 ... ... : ... .. . P7E ...
ROW 9E : ... .. . P7D ... ... : C#2 00 A P87 ... ... : C#2 00 . P86 : ... .. . ... : ... .. . ... ... : ... .. . ... ... : ... .. . ... ... : ... .. . P80 ...
ROW 9F : ... .. . P5D ... ... : C-2 00 A P97 ... ... : C-2 00 . P96 : ... .. 0 ... : ... .. . ... ... : ... .. . ... ... : ... .. . ... ... : ... .. . P81 ...
ROW A0 : D#2 00 F P80 ... ... : D#3 00 F P81 ... ... : D-5 00 . P80 : ... .. D ... : ... .. . ... ... : B-3 01 6 ... ... : B-4 01 6 ... ... : D#1 01 F P83 ...
ROW A1 : ... .. E ... ... ... : ... .. E ... ... ... : E-4 00 . ... : ... .. B ... : ... .. . ... ... : ... .. . ... ... : ... .. . ... ... : ... .. D ... ...
ROW A2 : ... .. D ... ... ... : ... .. D ... ... ... : A-3 00 . ... : ... .. . ... : ... .. . ... ... : ... .. 5 ... ... : ... .. 5 ... ... : ... .. 8 P81 ...
ROW A3 : ... .. A ... ... ... : ... .. A ... ... ... : G#3 00 . ... : ... .. A ... : ... .. . ... ... : ... .. 4 ... ... : ... .. 4 ... ... : ... .. . P80 ...
ROW A4 : ... .. . ... ... ... : ... .. . ... ... ... : D#3 00 . ... : ... .. 8 ... : ... .. . ... ... : ... .. . ... ... : ... .. . ... ... : ... .. . P7E ...
ROW A5 : ... .. . ... ... ... : ... .. . ... ... ... : ... .. . ... : ... .. 7 ... : ... .. . ... ... : ... .. . ... ... : ... .. . ... ... : ... .. . P7D ...
ROW A6 : B-1 00 F ... ... ... : B-2 00 F ... ... ... : B-2 00 . ... : ... .. 8 ... : ... .. . ... ... : F-3 01 6 ... ... : F-4 01 6 ... ... : B-0 01 F ... ...
ROW A7 : ... .. E ... ... ... : ... .. E ... ... ... : ... .. . ... : ... .. 6 ... : ... .. . ... ... : ... .. . ... ... : ... .. . ... ... : ... .. D P80 ...
ROW A8 : ... .. D ... ... ... : ... .. D ... ... ... : ... .. . ... : ... .. 3 ... : ... .. . ... ... : ... .. 5 ... ... : ... .. 5 ... ... : ... .. 8 P81 ...
ROW A9 : ... .. A ... ... ... : ... .. A ... ... ... : ... .. . ... : ... .. 1 ... : ... .. . ... ... : ... .. 4 ... ... : ... .. 4 ... ... : ... .. . P83 ...
ROW AA : ... .. . ... ... ... : ... .. . ... ... ... : ... .. . ... : ... .. . ... : ... .. . ... ... : ... .. . ... ... : ... .. . ... ... : ... .. . ... ...
ROW AB : ... .. . ... ... ... : ... .. . ... ... ... : ... .. . ... : ... .. 0 ... : ... .. . ... ... : ... .. . ... ... : ... .. . ... ... : ... .. . P82 ...
ROW AC : D#1 00 F ... ... ... : D#2 00 F ... ... ... : D#2 00 . ... : B-# 00 F ... : ... .. . ... ... : C-3 01 6 ... ... : C-4 01 6 ... ... : D#0 01 F P80 ...
ROW AD : ... .. E ... ... ... : ... .. E ... ... ... : ... .. . ... : ... .. C ... : ... .. . ... ... : ... .. . ... ... : ... .. . ... ... : ... .. D P7E ...
ROW AE : ... .. D ... ... ... : ... .. D ... ... ... : ... .. . ... : ... .. 6 ... : ... .. . ... ... : ... .. 5 ... ... : ... .. 5 ... ... : ... .. 8 P7D ...
ROW AF : ... .. A ... ... ... : ... .. A ... ... ... : ... .. . ... : ... .. 3 ... : ... .. . ... ... : ... .. 4 ... ... : ... .. 4 ... ... : ... .. . ... ...
ROW B0 : ... .. . ... ... ... : ... .. . ... ... ... : ... .. . ... : ... .. 2 ... : ... .. . ... ... : ... .. . ... ... : ... .. . ... ... : ... .. . P7F ...
ROW B1 : ... .. . ... ... ... : ... .. . ... ... ... : ... .. . ... : ... .. 0 ... : ... .. . ... ... : ... .. . ... ... : ... .. . ... ... : ... .. . P81 ...
ROW B2 : D-2 00 F ... ... ... : D-3 00 F ... ... ... : C#5 00 . ... : 9-# 00 D ... : ... .. . ... ... : B-2 01 6 ... ... : B-3 01 6 ... ... : D-1 01 F P83 ...
ROW B3 : ... .. E ... ... ... : ... .. E ... ... ... : D#4 00 . ... : ... .. B ... : ... .. . ... ... : ... .. . ... ... : ... .. . ... ... : ... .. D ... ...
ROW B4 : ... .. D ... ... ... : ... .. D ... ... ... : G#3 00 . ... : ... .. . ... : ... .. . ... ... : ... .. 5 ... ... : ... .. 5 ... ... : ... .. 8 P82 ...
ROW B5 : ... .. A ... ... ... : ... .. A ... ... ... : G-3 00 . ... : ... .. A ... : ... .. . ... ... : ... .. 4 ... ... : ... .. 4 ... ... : ... .. . P80 ...
ROW B6 : ... .. . ... ... ... : ... .. . ... ... ... : D-3 00 . ... : ... .. 8 ... : ... .. . ... ... : ... .. . ... ... : ... .. . ... ... : ... .. . P7E ...
ROW B7 : ... .. . ... ... ... : ... .. . ... ... ... : ... .. . ... : ... .. 7 ... : ... .. . ... ... : ... .. . ... ... : ... .. . ... ... : ... .. . P7D ...
ROW B8 : A-1 00 F ... ... ... : A-2 00 F ... ... ... : A-2 00 . ... : ... .. 8 ... : ... .. . ... ... : C-3 01 6 ... ... : C-4 01 6 ... ... : A-0 01 F ... ...
ROW B9 : ... .. E ... ... ... : ... .. E ... ... ... : ... .. . ... : ... .. 6 ... : ... .. . ... ... : ... .. . ... ... : ... .. . ... ... : ... .. D P7F ...
ROW BA : ... .. D ... ... ... : ... .. D ... ... ... : ... .. . ... : ... .. 3 ... : ... .. . ... ... : ... .. 5 ... ... : ... .. 5 ... ... : ... .. 8 P80 ...
ROW BB : ... .. A ... ... ... : ... .. A ... ... ... : ... .. . ... : ... .. 1 ... : ... .. . ... ... : ... .. 4 ... ... : ... .. 4 ... ... : ... .. . P83 ...
ROW BC : ... .. . ... ... ... : ... .. . ... ... ... : ... .. . ... : ... .. . ... : ... .. . ... ... : ... .. . ... ... : ... .. . ... ... : ... .. . ... ...
ROW BD : ... .. . ... ... ... : ... .. . ... ... ... : ... .. . ... : ... .. 0 ... : ... .. . ... ... : ... .. . ... ... : ... .. . ... ... : ... .. . P82 ...
ROW BE : D-1 00 F ... ... ... : D-2 00 F ... ... ... : D-2 00 . ... : B-# 00 F ... : ... .. . ... ... : F-3 01 6 ... ... : F-4 01 6 ... ... : D-0 01 F P80 ...
ROW BF : ... .. E ... ... ... : ... .. E ... ... ... : ... .. . ... : ... .. C ... : ... .. . ... ... : ... .. . ... ... : ... .. . ... ... : ... .. D P7F ...
ROW C0 : ... .. D ... ... ... : ... .. D ... ... ... : ... .. . ... : ... .. 6 ... : ... .. . ... ... : ... .. 5 ... ... : ... .. 5 ... ... : ... .. 8 P7D ...
ROW C1 : ... .. A ... ... ... : ... .. A ... ... ... : ... .. . ... : ... .. 3 ... : ... .. . ... ... : ... .. 4 ... ... : ... .. 4 ... ... : ... .. . ... ...
ROW C2 : ... .. . ... ... ... : ... .. . ... ... ... : ... .. . ... : ... .. 2 ... : ... .. . ... ... : ... .. . ... ... : ... .. . ... ... : ... .. . P7F ...
ROW C3 : ... .. . ... ... ... : ... .. . ... ... ... : ... .. . ... : ... .. 0 ... : ... .. . ... ... : ... .. . ... ... : ... .. . ... ... : ... .. . P80 ...
ROW C4 : ... .. . ... ... ... : ... .. . ... ... ... : ... .. . ... : 9-# 00 8 ... : ... .. . ... ... : C-4 01 6 ... ... : C-5 01 6 ... ... : ... .. . P82 ...
ROW C5 : ... .. . ... ... ... : ... .. . ... ... ... : ... .. . ... : ... .. 6 ... : ... .. . ... ... : ... .. . ... ... : ... .. . ... ... : ... .. . P83 ...
ROW C6 : ... .. . ... ... ... : ... .. . ... ... ... : ... .. . ... : ... .. 3 ... : ... .. . ... ... : ... .. 5 ... ... : ... .. 5 ... ... : ... .. . ... ...
ROW C7 : ... .. . ... ... ... : ... .. . ... ... ... : ... .. . ... : ... .. 1 ... : ... .. . ... ... : ... .. 4 ... ... : ... .. 4 ... ... : ... .. . P80 ...
ROW C8 : ... .. . ... ... ... : ... .. . ... ... ... : ... .. . ... : ... .. . ... : ... .. . ... ... : ... .. . ... ... : ... .. . ... ... : ... .. . P7F ...
ROW C9 : ... .. . ... ... ... : ... .. . ... ... ... : ... .. . ... : ... .. 0 ... : ... .. . ... ... : ... .. . ... ... : ... .. . ... ... : ... .. . P7D ...
ROW CA : ... .. . P60 ... ... : C#2 00 A P8E ... ... : C#2 00 . P8D : ... .. 8 ... : ... .. . ... ... : C#4 01 6 ... ... : C#5 01 6 ... ... : ... .. . ... ...
ROW CB : C#1 00 A P9A ... ... : ... .. . P6E ... ... : ... .. . P6D : ... .. 6 ... : ... .. . ... ... : ... .. . ... ... : ... .. . ... ... : ... .. . P7E ...
ROW CC : ... .. . P7A ... ... : C-2 00 A P7E ... ... : C-2 00 . P7D : ... .. 3 ... : ... .. . ... ... : ... .. 5 ... ... : ... .. 5 ... ... : ... .. . P80 ...
ROW CD : ... .. . P5A ... ... : B-1 00 A P91 ... ... : B-1 00 . P90 : ... .. 1 ... : ... .. . ... ... : ... .. 4 ... ... : ... .. 4 ... ... : ... .. . P82 ...
ROW CE : C-1 00 A P9A ... ... : ... .. . P71 ... ... : ... .. . P70 : ... .. . ... : ... .. . ... ... : ... .. . ... ... : ... .. . ... ... : ... .. . P83 ...
ROW CF : ... .. . P7A ... ... : A#1 00 A P87 ... ... : A#1 00 . P86 : ... .. 0 ... : ... .. . ... ... : ... .. . ... ... : ... .. . ... ... : ... .. . ... ...
ROW D0 : D-4 00 4 P80 ... ... : G#3 00 4 P81 ... ... : B-3 00 . P80 : ... .. D ... : ... .. . ... ... : A-3 01 2 ... ... : D-4 01 2 ... ... : C#0 01 F PA6 ...
ROW D1 : ... .. 3 ... ... ... : ... .. 3 ... ... ... : C#3 00 . ... : ... .. B ... : ... .. . ... ... : ... .. . ... ... : ... .. . ... ... : ... .. D PA4 ...
ROW D2 : ... .. . ... ... ... : ... .. . ... ... ... : F#2 00 . ... : ... .. . ... : ... .. . ... ... : ... .. . ... ... : ... .. . ... ... : ... .. 8 PA2 ...
ROW D3 : ... .. . ... ... ... : ... .. . ... ... ... : F-2 00 . ... : ... .. A ... : ... .. . ... ... : ... .. . ... ... : ... .. . ... ... : ... .. . ... ...
ROW D4 : ... .. . ... ... ... : ... .. . ... ... ... : C-2 00 . ... : ... .. 8 ... : ... .. . ... ... : ... .. . ... ... : ... .. . ... ... : ... .. . PA3 ...
ROW D5 : ... .. . ... ... ... : ... .. . ... ... ... : ... .. . ... : ... .. 7 ... : ... .. . ... ... : ... .. . ... ... : ... .. . ... ... : ... .. . PA5 ...
ROW D6 : ... .. 4 ... ... ... : ... .. 4 ... ... ... : D-2 00 . ... : 7-# 00 8 ... : ... .. . ... ... : ... .. . ... ... : ... .. . ... ... : D-0 01 F P82 ...
ROW D7 : ... .. . ... ... ... : ... .. . ... ... ... : ... .. . ... : ... .. 6 ... : ... .. . ... ... : ... .. . ... ... : ... .. . ... ... : ... .. D P83 ...
ROW D8 : ... .. . ... ... ... : ... .. . ... ... ... : ... .. . ... : ... .. 3 ... : ... .. . ... ... : ... .. . ... ... : ... .. . ... ... : ... .. 8 ... ...
ROW D9 : D#4 00 5 ... ... ... : A-3 00 5 P7C ... ... : ... .. . ... : ... .. 1 ... : ... .. . ... ... : ... .. . ... ... : ... .. . ... ... : ... .. . P81 ...
ROW DA : E-4 00 5 P7C ... ... : ... .. . P82 ... ... : ... .. . ... : ... .. . ... : ... .. . ... ... : ... .. . ... ... : ... .. . ... ... : ... .. . P80 ...
ROW DB : D#4 00 5 P84 ... ... : ... .. . P80 ... ... : ... .. . ... : ... .. 0 ... : ... .. . ... ... : ... .. . ... ... : ... .. . ... ... : ... .. . P7D ...
ROW DC : D-4 00 6 ... ... ... : G#3 00 6 P85 ... ... : C-3 00 . ... : A-# 00 F ... : ... .. . ... ... : ... .. 3 ... ... : ... .. 3 ... ... : C-1 01 F ... ...
ROW DD : ... .. . P7C ... ... : ... .. . P7D ... ... : ... .. . ... : ... .. C ... : ... .. . ... ... : ... .. . ... ... : ... .. . ... ... : ... .. D P7E ...
ROW DE : C#4 00 6 P7E ... ... : G-3 00 6 P83 ... ... : ... .. . ... : ... .. 6 ... : ... .. . ... ... : ... .. . ... ... : ... .. . ... ... : ... .. 8 P80 ...
ROW DF : ... .. 7 P7C ... ... : ... .. 7 P81 ... ... : ... .. . ... : ... .. 3 ... : ... .. . ... ... : ... .. . ... ... : ... .. . ... ... : ... .. . P81 ...
ROW E0 : ... .. . P82 ... ... : ... .. . P87 ... ... : ... .. . ... : ... .. 2 ... : ... .. . ... ... : ... .. . ... ... : ... .. . ... ... : ... .. . P83 ...
ROW E1 : D-4 00 7 P80 ... ... : G#3 00 7 P81 ... ... : ... .. . ... : ... .. 0 ... : ... .. . ... ... : ... .. . ... ... : ... .. . ... ... : ... .. . ... ...
ROW E2 : D#4 00 8 P7F ... ... : A-3 00 8 P7B ... ... : D-3 00 . ... : E-# 00 8 ... : ... .. . ... ... : ... .. 4 ... ... : ... .. 4 ... ... : D-1 01 F P81 ...
ROW E3 : E-4 00 8 P7C ... ... : ... .. . P82 ... ... : ... .. . ... : ... .. 6 ... : ... .. . ... ... : ... .. . ... ... : ... .. . ... ... : ... .. D P80 ...
ROW E4 : D#4 00 8 P84 ... ... : ... .. . P80 ... ... : ... .. . ... : ... .. 3 ... : ... .. . ... ... : ... .. . ... ... : ... .. . ... ... : ... .. 8 P7E ...
ROW E5 : ... .. A P7C ... ... : G#3 00 A P87 ... ... : ... .. . ... : ... .. 1 ... : ... .. . ... ... : ... .. 5 ... ... : ... .. 5 ... ... : ... .. . P7D ...
ROW E6 : D-4 00 A P7D ... ... : ... .. . P7E ... ... : ... .. . ... : ... .. . ... : ... .. . ... ... : ... .. . ... ... : ... .. . ... ... : ... .. . ... ...
ROW E7 : C#4 00 A P7F ... ... : G-3 00 A P84 ... ... : ... .. . ... : ... .. 0 ... : ... .. . ... ... : ... .. . ... ... : ... .. . ... ... : ... .. . P80 ...
ROW E8 : D#4 00 F P80 ... ... : D#3 00 F P81 ... ... : D-5 00 . ... : 1-# 00 F ... : ... .. . ... ... : C-5 01 6 ... ... : C-6 01 6 ... ... : D#1 01 F P81 ...
ROW E9 : ... .. E ... ... ... : ... .. E ... ... ... : E-4 00 . ... : ... .. C ... : ... .. . ... ... : ... .. . ... ... : ... .. . ... ... : ... .. D P83 ...
ROW EA : ... .. D ... ... ... : ... .. D ... ... ... : A-3 00 . ... : ... .. 6 ... : ... .. . ... ... : ... .. 5 ... ... : ... .. 5 ... ... : ... .. 8 ... ...
ROW EB : ... .. A ... ... ... : ... .. A ... ... ... : G#3 00 . ... : ... .. 3 ... : ... .. . ... ... : ... .. 4 ... ... : ... .. 4 ... ... : ... .. . P82 ...
ROW EC : ... .. 2 ... ... ... : ... .. . ... ... ... : D#3 00 . ... : ... .. 2 ... : ... .. . ... ... : ... .. . ... ... : ... .. . ... ... : ... .. . P80 ...
ROW ED : ... .. . ... ... ... : ... .. . ... ... ... : ... .. . ... : ... .. 0 ... : ... .. . ... ... : ... .. . ... ... : ... .. . ... ... : ... .. . P7E ...
ROW EE : D-4 00 F ... ... ... : D-3 00 F ... ... ... : D-3 00 . ... : 9-# 00 8 ... : ... .. . ... ... : C#5 01 6 ... ... : C#6 01 6 ... ... : D-1 01 F P7D ...
ROW EF : ... .. E ... ... ... : ... .. E ... ... ... : ... .. . ... : ... .. 6 ... : ... .. . ... ... : ... .. . ... ... : ... .. . ... ... : ... .. D ... ...
ROW F0 : ... .. D ... ... ... : ... .. D ... ... ... : ... .. . ... : ... .. 3 ... : ... .. . ... ... : ... .. 5 ... ... : ... .. 5 ... ... : ... .. 8 P7F ...
ROW F1 : ... .. A ... ... ... : ... .. A ... ... ... : ... .. . ... : ... .. 1 ... : ... .. . ... ... : ... .. 4 ... ... : ... .. 4 ... ... : ... .. . P81 ...
ROW F2 : ... .. 2 ... ... ... : ... .. . ... ... ... : ... .. . ... : ... .. . ... : ... .. . ... ... : ... .. . ... ... : ... .. . ... ... : ... .. . P83 ...
ROW F3 : ... .. . ... ... ... : ... .. . ... ... ... : ... .. . ... : ... .. 0 ... : ... .. . ... ... : ... .. . ... ... : ... .. . ... ... : ... .. . ... ...
ROW F4 : D-3 00 F ... ... ... : D-2 00 F ... ... ... : D-2 00 . ... : B-# 00 F ... : ... .. . ... ... : C-5 01 6 ... ... : C-6 01 6 ... ... : D-0 01 F P82 ...
ROW F5 : ... .. E ... ... ... : ... .. E ... ... ... : ... .. . ... : ... .. C ... : ... .. . ... ... : ... .. . ... ... : ... .. . ... ... : ... .. D P80 ...
ROW F6 : ... .. D ... ... ... : ... .. D ... ... ... : ... .. . ... : ... .. 6 ... : ... .. . ... ... : ... .. 5 ... ... : ... .. 5 ... ... : ... .. 8 P7E ...
ROW F7 : ... .. A ... ... ... : ... .. A ... ... ... : ... .. . ... : ... .. 3 ... : ... .. . ... ... : ... .. 4 ... ... : ... .. 4 ... ... : ... .. . P7D ...
ROW F8 : ... .. 2 ... ... ... : ... .. . ... ... ... : ... .. . ... : ... .. 2 ... : ... .. . ... ... : ... .. . ... ... : ... .. . ... ... : ... .. . ... ...
ROW F9 : ... .. . ... ... ... : ... .. . ... ... ... : ... .. . ... : ... .. 0 ... : ... .. . ... ... : ... .. . ... ... : ... .. . ... ... : ... .. . P7F ...
ROW FA : ... .. F ... ... ... : ... .. F ... ... ... : ... .. . ... : 9-# 00 8 ... : ... .. . ... ... : F-4 01 6 ... ... : F-5 01 6 ... ... : ... .. F P80 ...
ROW FB : ... .. E ... ... ... : ... .. E ... ... ... : ... .. . ... : ... .. 6 ... : ... .. . ... ... : ... .. . ... ... : ... .. . ... ... : ... .. D P83 ...
ROW FC : ... .. D ... ... ... : ... .. D ... ... ... : ... .. . ... : ... .. 3 ... : ... .. . ... ... : ... .. 5 ... ... : ... .. 5 ... ... : ... .. 8 ... ...
ROW FD : ... .. A ... ... ... : ... .. A ... ... ... : ... .. . ... : ... .. 1 ... : ... .. . ... ... : ... .. 4 ... ... : ... .. 4 ... ... : ... .. . P82 ...
ROW FE : ... .. 2 ... ... ... : ... .. . ... ... ... : ... .. . ... : ... .. . ... : ... .. . ... ... : ... .. . ... ... : ... .. . ... ... : ... .. . P80 ...
ROW FF : ... .. . ... ... ... : ... .. . ... ... ... : ... .. . ... : ... .. 0 ... : ... .. . ... ... : ... .. . ... ... : ... .. . ... ... : ... .. . P7F ...

PATTERN 1B
ROW 00 : C-3 00 F ... ... ... : C-2 00 F ... ... ... : B-3 00 . ... : ... .. D ... : ... .. . ... ... : C-4 01 6 ... ... : C-5 01 6 ... ... : C#0 01 F PA2 ...
ROW 01 : ... .. E ... ... ... : ... .. E ... ... ... : C#3 00 . ... : ... .. B ... : ... .. . ... ... : ... .. . ... ... : ... .. . ... ... : ... .. D ... ...
ROW 02 : ... .. D ... ... ... : ... .. D ... ... ... : F#2 00 . ... : ... .. . ... : ... .. . ... ... : ... .. 5 ... ... : ... .. 5 ... ... : ... .. 8 PA4 ...
ROW 03 : ... .. A ... ... ... : ... .. A ... ... ... : F-2 00 . ... : ... .. A ... : ... .. . ... ... : ... .. 4 ... ... : ... .. 4 ... ... : ... .. . PA5 ...
ROW 04 : ... .. 2 ... ... ... : ... .. . ... ... ... : C-2 00 . ... : ... .. 8 ... : ... .. . ... ... : ... .. . ... ... : ... .. . ... ... : ... .. . PA7 ...
ROW 05 : ... .. . ... ... ... : ... .. . ... ... ... : ... .. . ... : ... .. 7 ... : ... .. . ... ... : ... .. . ... ... : ... .. . ... ... : ... .. . PA8 ...
ROW 06 : D-3 00 F ... ... ... : D-2 00 F ... ... ... : D-2 00 . ... : 7-# 00 8 ... : ... .. . ... ... : B-3 01 6 ... ... : B-4 01 6 ... ... : D-0 01 F P83 ...
ROW 07 : ... .. E ... ... ... : ... .. E ... ... ... : ... .. . ... : ... .. 6 ... : ... .. . ... ... : ... .. . ... ... : ... .. . ... ... : ... .. D P80 ...
ROW 08 : ... .. D ... ... ... : ... .. D ... ... ... : ... .. . ... : ... .. 3 ... : ... .. . ... ... : ... .. 5 ... ... : ... .. 5 ... ... : ... .. 8 P7F ...
ROW 09 : ... .. A ... ... ... : ... .. A ... ... ... : ... .. . ... : ... .. 1 ... : ... .. . ... ... : ... .. 4 ... ... : ... .. 4 ... ... : ... .. . P7D ...
ROW 0A : ... .. 2 ... ... ... : ... .. . ... ... ... : ... .. . ... : ... .. . ... : ... .. . ... ... : ... .. . ... ... : ... .. . ... ... : ... .. . ... ...
ROW 0B : ... .. . ... ... ... : ... .. . ... ... ... : ... .. . ... : ... .. 0 ... : ... .. . ... ... : ... .. . ... ... : ... .. . ... ... : ... .. . P7E ...
ROW 0C : D#4 00 F ... ... ... : D#3 00 F ... ... ... : D#3 00 . ... : A-# 00 F ... : ... .. . ... ... : F-3 01 6 ... ... : F-4 01 6 ... ... : D#1 01 F P80 ...
ROW 0D : ... .. E ... ... ... : ... .. E ... ... ... : ... .. . ... : ... .. C ... : ... .. . ... ... : ... .. . ... ... : ... .. . ... ... : ... .. D P82 ...
ROW 0E : ... .. D ... ... ... : ... .. D ... ... ... : ... .. . ... : ... .. 6 ... : ... .. . ... ... : ... .. 5 ... ... : ... .. 5 ... ... : ... .. 8 P83 ...
ROW 0F : ... .. A ... ... ... : ... .. A ... ... ... : ... .. . ... : ... .. 3 ... : ... .. . ... ... : ... .. 4 ... ... : ... .. 4 ... ... : ... .. . ... ...
ROW 10 : ... .. 2 ... ... ... : ... .. . ... ... ... : ... .. . ... : ... .. 2 ... : ... .. . ... ... : ... .. . ... ... : ... .. . ... ... : ... .. . P81 ...
ROW 11 : ... .. . ... ... ... : ... .. . ... ... ... : ... .. . ... : ... .. 0 ... : ... .. . ... ... : ... .. . ... ... : ... .. . ... ... : ... .. . P7F ...
ROW 12 : D-4 00 F ... ... ... : D-3 00 F ... ... ... : D-3 00 . ... : E-# 00 8 ... : ... .. . ... ... : C-3 01 6 ... ... : C-4 01 6 ... ... : D-1 01 F P7D ...
ROW 13 : ... .. E ... ... ... : ... .. E ... ... ... : ... .. . ... : ... .. 6 ... : ... .. . ... ... : ... .. . ... ... : ... .. . ... ... : ... .. D ... ...
ROW 14 : ... .. D ... ... ... : ... .. D ... ... ... : ... .. . ... : ... .. 3 ... : ... .. . ... ... : ... .. 5 ... ... : ... .. 5 ... ... : ... .. 8 P7E ...
ROW 15 : ... .. A ... ... ... : ... .. A ... ... ... : ... .. . ... : ... .. 1 ... : ... .. . ... ... : ... .. 4 ... ... : ... .. 4 ... ... : ... .. . P80 ...
ROW 16 : ... .. 2 ... ... ... : ... .. . ... ... ... : ... .. . ... : ... .. . ... : ... .. . ... ... : ... .. . ... ... : ... .. . ... ... : ... .. . P82 ...
ROW 17 : ... .. . ... ... ... : ... .. . ... ... ... : ... .. . ... : ... .. 0 ... : ... .. . ... ... : ... .. . ... ... : ... .. . ... ... : ... .. . P83 ...
ROW 18 : D-3 00 F ... ... ... : D-2 00 F ... ... ... : C#4 00 . ... : 1-# 00 F ... : ... .. . ... ... : B-2 01 6 ... ... : B-3 01 6 ... ... : D-0 01 F ... ...
ROW 19 : ... .. E ... ... ... : ... .. E ... ... ... : D#3 00 . ... : ... .. C ... : ... .. . ... ... : ... .. . ... ... : ... .. . ... ... : ... .. D P81 ...
ROW 1A : ... .. D ... ... ... : ... .. D ... ... ... : G#2 00 . ... : ... .. 6 ... : ... .. . ... ... : ... .. 5 ... ... : ... .. 5 ... ... : ... .. 8 P80 ...
ROW 1B : ... .. A ... ... ... : ... .. A ... ... ... : G-2 00 . ... : ... .. 3 ... : ... .. . ... ... : ... .. 4 ... ... : ... .. 4 ... ... : ... .. . P7D ...
ROW 1C : ... .. 2 ... ... ... : ... .. . ... ... ... : D-2 00 . ... : ... .. 2 ... : ... .. . ... ... : ... .. . ... ... : ... .. . ... ... : ... .. . ... ...
ROW 1D : ... .. . ... ... ... : ... .. . ... ... ... : ... .. . ... : ... .. 0 ... : ... .. . ... ... : ... .. . ... ... : ... .. . ... ... : ... .. . P7E ...
ROW 1E : ... .. F ... ... ... : ... .. F ... ... ... : ... .. . ... : 9-# 00 8 ... : ... .. . ... ... : C-3 01 6 ... ... : C-4 01 6 ... ... : ... .. F P80 ...
ROW 1F : ... .. E ... ... ... : ... .. E ... ... ... : ... .. . ... : ... .. 6 ... : ... .. . ... ... : ... .. . ... ... : ... .. . ... ... : ... .. D P81 ...
ROW 20 : ... .. D ... ... ... : ... .. D ... ... ... : ... .. . ... : ... .. 3 ... : ... .. . ... ... : ... .. 5 ... ... : ... .. 5 ... ... : ... .. 8 P83 ...
ROW 21 : ... .. A ... ... ... : ... .. A ... ... ... : ... .. . ... : ... .. 1 ... : ... .. . ... ... : ... .. 4 ... ... : ... .. 4 ... ... : ... .. . ... ...
ROW 22 : ... .. 2 ... ... ... : ... .. . ... ... ... : ... .. . ... : ... .. . ... : ... .. . ... ... : ... .. . ... ... : ... .. . ... ... : ... .. . P81 ...
ROW 23 : ... .. . ... ... ... : ... .. . ... ... ... : ... .. . ... : ... .. 0 ... : ... .. . ... ... : ... .. . ... ... : ... .. . ... ... : ... .. . P80 ...
ROW 24 : C-3 00 F ... ... ... : C-2 00 F ... ... ... : C-2 00 . ... : 1-# 00 F ... : ... .. . ... ... : F-3 01 6 ... ... : F-4 01 6 ... ... : C#0 01 F PA3 ...
ROW 25 : ... .. E ... ... ... : ... .. E ... ... ... : ... .. . ... : ... .. C ... : ... .. . ... ... : ... .. . ... ... : ... .. . ... ... : ... .. D PA2 ...
ROW 26 : ... .. D ... ... ... : ... .. D ... ... ... : ... .. . ... : ... .. 6 ... : ... .. . ... ... : ... .. 5 ... ... : ... .. 5 ... ... : ... .. 8 ... ...
ROW 27 : ... .. A ... ... ... : ... .. A ... ... ... : ... .. . ... : ... .. 3 ... : ... .. . ... ... : ... .. 4 ... ... : ... .. 4 ... ... : ... .. . PA5 ...
ROW 28 : ... .. 2 ... ... ... : ... .. . ... ... ... : ... .. . ... : ... .. 2 ... : ... .. . ... ... : ... .. . ... ... : ... .. . ... ... : ... .. . PA6 ...
ROW 29 : ... .. . ... ... ... : ... .. . ... ... ... : ... .. . ... : ... .. 0 ... : ... .. . ... ... : ... .. . ... ... : ... .. . ... ... : ... .. . PA8 ...
ROW 2A : D-3 00 F ... ... ... : D-2 00 F ... ... ... : D-2 00 . ... : 9-# 00 8 ... : ... .. . ... ... : F#3 01 6 ... ... : F#4 01 6 ... ... : D-0 01 F P83 ...
ROW 2B : ... .. E ... ... ... : ... .. E ... ... ... : ... .. . ... : ... .. 6 ... : ... .. . ... ... : ... .. . ... ... : ... .. . ... ... : ... .. D P82 ...
ROW 2C : ... .. D ... ... ... : ... .. D ... ... ... : ... .. . ... : ... .. 3 ... : ... .. . ... ... : ... .. 5 ... ... : ... .. 5 ... ... : ... .. 8 P80 ...
ROW 2D : ... .. A ... ... ... : ... .. A ... ... ... : ... .. . ... : ... .. 1 ... : ... .. . ... ... : ... .. 4 ... ... : ... .. 4 ... ... : ... .. . P7E ...
ROW 2E : ... .. 2 ... ... ... : ... .. . ... ... ... : ... .. . ... : ... .. . ... : ... .. . ... ... : ... .. . ... ... : ... .. . ... ... : ... .. . P7D ...
ROW 2F : ... .. . ... ... ... : ... .. . ... ... ... : ... .. . ... : ... .. 0 ... : ... .. . ... ... : ... .. . ... ... : ... .. . ... ... : ... .. . ... ...
ROW 30 : G#4 00 F ... ... ... : G#3 00 F ... ... ... : G-5 00 . ... : ... .. D ... : ... .. . ... ... : C-4 01 6 ... ... : C-5 01 6 ... ... : G#1 01 F P7F ...
ROW 31 : ... .. E ... ... ... : ... .. E ... ... ... : A-4 00 . ... : ... .. B ... : ... .. . ... ... : ... .. . ... ... : ... .. . ... ... : ... .. D P81 ...
ROW 32 : ... .. D ... ... ... : ... .. D ... ... ... : D-4 00 . ... : ... .. . ... : ... .. . ... ... : ... .. 5 ... ... : ... .. 5 ... ... : ... .. 8 P83 ...
ROW 33 : ... .. A ... ... ... : ... .. A ... ... ... : C#4 00 . ... : ... .. A ... : ... .. . ... ... : ... .. 4 ... ... : ... .. 4 ... ... : ... .. . ... ...
ROW 34 : ... .. 2 ... ... ... : ... .. . ... ... ... : G#3 00 . ... : ... .. 8 ... : ... .. . ... ... : ... .. . ... ... : ... .. . ... ... : ... .. . P82 ...
ROW 35 : ... .. . ... ... ... : ... .. . ... ... ... : ... .. . ... : ... .. 7 ... : ... .. . ... ... : ... .. . ... ... : ... .. . ... ... : ... .. . P80 ...
ROW 36 : ... .. F ... ... ... : ... .. F ... ... ... : ... .. . ... : 7-# 00 8 ... : ... .. . ... ... : C#4 01 6 ... ... : C#5 01 6 ... ... : ... .. F P7E ...
ROW 37 : ... .. E ... ... ... : ... .. E ... ... ... : ... .. . ... : ... .. 6 ... : ... .. . ... ... : ... .. . ... ... : ... .. . ... ... : ... .. D P7D ...
ROW 38 : ... .. D ... ... ... : ... .. D ... ... ... : ... .. . ... : ... .. 3 ... : ... .. . ... ... : ... .. 5 ... ... : ... .. 5 ... ... : ... .. 8 ... ...
ROW 39 : ... .. A ... ... ... : ... .. A ... ... ... : ... .. . ... : ... .. 1 ... : ... .. . ... ... : ... .. 4 ... ... : ... .. 4 ... ... : ... .. . P7F ...
ROW 3A : ... .. 2 ... ... ... : ... .. . ... ... ... : ... .. . ... : ... .. . ... : ... .. . ... ... : ... .. . ... ... : ... .. . ... ... : ... .. . P80 ...
ROW 3B : ... .. . ... ... ... : ... .. . ... ... ... : ... .. . ... : ... .. 0 ... : ... .. . ... ... : ... .. . ... ... : ... .. . ... ... : ... .. . P83 ...
ROW 3C : E-4 00 F ... ... ... : E-3 00 F ... ... ... : E-3 00 . ... : A-# 00 F ... : ... .. . ... ... : F-4 01 6 ... ... : F-5 01 6 ... ... : E-1 01 F ... ...
ROW 3D : ... .. E ... ... ... : ... .. E ... ... ... : ... .. . ... : ... .. C ... : ... .. . ... ... : ... .. . ... ... : ... .. . ... ... : ... .. D P82 ...
ROW 3E : ... .. D ... ... ... : ... .. D ... ... ... : ... .. . ... : ... .. 6 ... : ... .. . ... ... : ... .. 5 ... ... : ... .. 5 ... ... : ... .. 8 P80 ...
ROW 3F : ... .. A ... ... ... : ... .. A ... ... ... : ... .. . ... : ... .. 3 ... : ... .. . ... ... : ... .. 4 ... ... : ... .. 4 ... ... : ... .. . P7F ...
ROW 40 : ... .. 2 ... ... ... : ... .. . ... ... ... : ... .. . ... : ... .. 2 ... : ... .. . ... ... : ... .. . ... ... : ... .. . ... ... : ... .. . P7D ...
ROW 41 : ... .. . ... ... ... : ... .. . ... ... ... : ... .. . ... : ... .. 0 ... : ... .. . ... ... : ... .. . ... ... : ... .. . ... ... : ... .. . ... ...
ROW 42 : ... .. F ... ... ... : ... .. F ... ... ... : ... .. . ... : E-# 00 8 ... : ... .. . ... ... : F#4 01 6 ... ... : F#5 01 6 ... ... : ... .. F P7F ...
ROW 43 : ... .. E ... ... ... : ... .. E ... ... ... : ... .. . ... : ... .. 6 ... : ... .. . ... ... : ... .. . ... ... : ... .. . ... ... : ... .. D P80 ...
ROW 44 : ... .. D ... ... ... : ... .. D ... ... ... : ... .. . ... : ... .. 3 ... : ... .. . ... ... : ... .. 5 ... ... : ... .. 5 ... ... : ... .. 8 P82 ...
ROW 45 : ... .. A ... ... ... : ... .. A ... ... ... : ... .. . ... : ... .. 1 ... : ... .. . ... ... : ... .. 4 ... ... : ... .. 4 ... ... : ... .. . P83 ...
ROW 46 : ... .. 2 ... ... ... : ... .. . ... ... ... : ... .. . ... : ... .. . ... : ... .. . ... ... : ... .. . ... ... : ... .. . ... ... : ... .. . ... ...
ROW 47 : ... .. . ... ... ... : ... .. . ... ... ... : ... .. . ... : ... .. 0 ... : ... .. . ... ... : ... .. . ... ... : ... .. . ... ... : ... .. . P80 ...
ROW 48 : F-2 00 F ... ... ... : F-3 00 F ... ... ... : E-5 00 . ... : 9-# 00 D ... : ... .. . ... ... : F-4 01 6 ... ... : F-5 01 6 ... ... : F-1 01 F P7F ...
ROW 49 : ... .. E ... ... ... : ... .. E ... ... ... : F#4 00 . ... : ... .. B ... : ... .. . ... ... : ... .. . ... ... : ... .. . ... ... : ... .. D P7D ...
ROW 4A : ... .. D ... ... ... : ... .. D ... ... ... : B-3 00 . ... : ... .. . ... : ... .. . ... ... : ... .. 5 ... ... : ... .. 5 ... ... : ... .. 8 ... ...
ROW 4B : ... .. A ... ... ... : ... .. A ... ... ... : A#3 00 . ... : ... .. A ... : ... .. . ... ... : ... .. 4 ... ... : ... .. 4 ... ... : ... .. . P7E ...
ROW 4C : ... .. 2 ... ... ... : ... .. . ... ... ... : F-3 00 . ... : ... .. 8 ... : ... .. . ... ... : ... .. . ... ... : ... .. . ... ... : ... .. . P80 ...
ROW 4D : ... .. . ... ... ... : ... .. . ... ... ... : ... .. . ... : ... .. 7 ... : ... .. . ... ... : ... .. . ... ... : ... .. . ... ... : ... .. . P82 ...
ROW 4E : C-2 00 F ... ... ... : C-3 00 F ... ... ... : C-3 00 . ... : ... .. 8 ... : ... .. . ... ... : F#4 01 6 ... ... : F#5 01 6 ... ... : C-1 01 F P83 ...
ROW 4F : ... .. E ... ... ... : ... .. E ... ... ... : ... .. . ... : ... .. 6 ... : ... .. . ... ... : ... .. . ... ... : ... .. . ... ... : ... .. D ... ...
ROW 50 : ... .. D ... ... ... : ... .. D ... ... ... : ... .. . ... : ... .. 3 ... : ... .. . ... ... : ... .. 5 ... ... : ... .. 5 ... ... : ... .. 8 P81 ...
ROW 51 : ... .. A ... ... ... : ... .. A ... ... ... : ... .. . ... : ... .. 1 ... : ... .. . ... ... : ... .. 4 ... ... : ... .. 4 ... ... : ... .. . P7F ...
ROW 52 : ... .. 2 ... ... ... : ... .. . ... ... ... : ... .. . ... : ... .. . ... : ... .. . ... ... : ... .. . ... ... : ... .. . ... ... : ... .. . P7D ...
ROW 53 : ... .. . ... ... ... : ... .. . ... ... ... : ... .. . ... : ... .. 0 ... : ... .. . ... ... : ... .. . ... ... : ... .. . ... ... : ... .. . ... ...
ROW 54 : F-1 00 F ... ... ... : F-2 00 F ... ... ... : F-2 00 . ... : B-# 00 F ... : ... .. . ... ... : F-4 01 6 ... ... : F-5 01 6 ... ... : F-0 01 F P7E ...
ROW 55 : ... .. E ... ... ... : ... .. E ... ... ... : ... .. . ... : ... .. C ... : ... .. . ... ... : ... .. . ... ... : ... .. . ... ... : ... .. D P80 ...
ROW 56 : ... .. D ... ... ... : ... .. D ... ... ... : ... .. . ... : ... .. 6 ... : ... .. . ... ... : ... .. 5 ... ... : ... .. 5 ... ... : ... .. 8 P82 ...
ROW 57 : ... .. A ... ... ... : ... .. A ... ... ... : ... .. . ... : ... .. 3 ... : ... .. . ... ... : ... .. 4 ... ... : ... .. 4 ... ... : ... .. . P83 ...
ROW 58 : ... .. . ... ... ... : ... .. . ... ... ... : ... .. . ... : ... .. 2 ... : ... .. . ... ... : ... .. . ... ... : ... .. . ... ... : ... .. . ... ...
ROW 59 : ... .. . ... ... ... : ... .. . ... ... ... : ... .. . ... : ... .. 0 ... : ... .. . ... ... : ... .. . ... ... : ... .. . ... ... : ... .. . P81 ...
ROW 5A : ... .. . P60 ... ... : E-2 00 A P87 ... ... : E-2 00 . P86 : 9-# 00 8 ... : ... .. . ... ... : C-4 01 6 ... ... : C-5 01 6 ... ... : ... .. . P80 ...
ROW 5B : E-1 00 A P8C ... ... : D#2 00 A P8F ... ... : D#2 00 . P8E : ... .. 6 ... : ... .. . ... ... : ... .. . ... ... : ... .. . ... ... : ... .. . P7D ...
ROW 5C : ... .. . P6C ... ... : ... .. . P6F ... ... : ... .. . P6E : ... .. 3 ... : ... .. . ... ... : ... .. 5 ... ... : ... .. 5 ... ... : ... .. . ... ...
ROW 5D : D#1 00 A P9D ... ... : D-2 00 A P7A ... ... : D-2 00 . P79 : ... .. 1 ... : ... .. . ... ... : ... .. 4 ... ... : ... .. 4 ... ... : ... .. . P7E ...
ROW 5E : ... .. . P7D ... ... : C#2 00 A P87 ... ... : C#2 00 . P86 : ... .. . ... : ... .. . ... ... : ... .. . ... ... : ... .. . ... ... : ... .. . P80 ...
ROW 5F : ... .. . P5D ... ... : C-2 00 A P97 ... ... : C-2 00 . P96 : ... .. 0 ... : ... .. . ... ... : ... .. . ... ... : ... .. . ... ... : ... .. . P81 ...
ROW 60 : D#2 00 F P80 ... ... : D#3 00 F P81 ... ... : D-5 00 . P80 : ... .. D ... : ... .. . ... ... : B-3 01 6 ... ... : B-4 01 6 ... ... : D#1 01 F P83 ...
ROW 61 : ... .. E ... ... ... : ... .. E ... ... ... : E-4 00 . ... : ... .. B ... : ... .. . ... ... : ... .. . ... ... : ... .. . ... ... : ... .. D ... ...
ROW 62 : ... .. D ... ... ... : ... .. D ... ... ... : A-3 00 . ... : ... .. . ... : ... .. . ... ... : ... .. 5 ... ... : ... .. 5 ... ... : ... .. 8 P81 ...
ROW 63 : ... .. A ... ... ... : ... .. A ... ... ... : G#3 00 . ... : ... .. A ... : ... .. . ... ... : ... .. 4 ... ... : ... .. 4 ... ... : ... .. . P80 ...
ROW 64 : ... .. . ... ... ... : ... .. . ... ... ... : D#3 00 . ... : ... .. 8 ... : ... .. . ... ... : ... .. . ... ... : ... .. . ... ... : ... .. . P7E ...
ROW 65 : ... .. . ... ... ... : ... .. . ... ... ... : ... .. . ... : ... .. 7 ... : ... .. . ... ... : ... .. . ... ... : ... .. . ... ... : ... .. . P7D ...
ROW 66 : B-1 00 F ... ... ... : B-2 00 F ... ... ... : B-2 00 . ... : ... .. 8 ... : ... .. . ... ... : F-3 01 6 ... ... : F-4 01 6 ... ... : B-0 01 F ... ...
ROW 67 : ... .. E ... ... ... : ... .. E ... ... ... : ... .. . ... : ... .. 6 ... : ... .. . ... ... : ... .. . ... ... : ... .. . ... ... : ... .. D P80 ...
ROW 68 : ... .. D ... ... ... : ... .. D ... ... ... : ... .. . ... : ... .. 3 ... : ... .. . ... ... : ... .. 5 ... ... : ... .. 5 ... ... : ... .. 8 P81 ...
ROW 69 : ... .. A ... ... ... : ... .. A ... ... ... : ... .. . ... : ... .. 1 ... : ... .. . ... ... : ... .. 4 ... ... : ... .. 4 ... ... : ... .. . P83 ...
ROW 6A : ... .. . ... ... ... : ... .. . ... ... ... : ... .. . ... : ... .. . ... : ... .. . ... ... : ... .. . ... ... : ... .. . ... ... : ... .. . ... ...
ROW 6B : ... .. . ... ... ... : ... .. . ... ... ... : ... .. . ... : ... .. 0 ... : ... .. . ... ... : ... .. . ... ... : ... .. . ... ... : ... .. . P82 ...
ROW 6C : D#1 00 F ... ... ... : D#2 00 F ... ... ... : D#2 00 . ... : B-# 00 F ... : ... .. . ... ... : C-3 01 6 ... ... : C-4 01 6 ... ... : D#0 01 F P80 ...
ROW 6D : ... .. E ... ... ... : ... .. E ... ... ... : ... .. . ... : ... .. C ... : ... .. . ... ... : ... .. . ... ... : ... .. . ... ... : ... .. D P7E ...
ROW 6E : ... .. D ... ... ... : ... .. D ... ... ... : ... .. . ... : ... .. 6 ... : ... .. . ... ... : ... .. 5 ... ... : ... .. 5 ... ... : ... .. 8 P7D ...
ROW 6F : ... .. A ... ... ... : ... .. A ... ... ... : ... .. . ... : ... .. 3 ... : ... .. . ... ... : ... .. 4 ... ... : ... .. 4 ... ... : ... .. . ... ...
ROW 70 : ... .. . ... ... ... : ... .. . ... ... ... : ... .. . ... : ... .. 2 ... : ... .. . ... ... : ... .. . ... ... : ... .. . ... ... : ... .. . P7F ...
ROW 71 : ... .. . ... ... ... : ... .. . ... ... ... : ... .. . ... : ... .. 0 ... : ... .. . ... ... : ... .. . ... ... : ... .. . ... ... : ... .. . P81 ...
ROW 72 : D-2 00 F ... ... ... : D-3 00 F ... ... ... : C#5 00 . ... : 9-# 00 D ... : ... .. . ... ... : B-2 01 6 ... ... : B-3 01 6 ... ... : D-1 01 F P83 ...
ROW 73 : ... .. E ... ... ... : ... .. E ... ... ... : D#4 00 . ... : ... .. B ... : ... .. . ... ... : ... .. . ... ... : ... .. . ... ... : ... .. D ... ...
ROW 74 : ... .. D ... ... ... : ... .. D ... ... ... : G#3 00 . ... : ... .. . ... : ... .. . ... ... : ... .. 5 ... ... : ... .. 5 ... ... : ... .. 8 P82 ...
ROW 75 : ... .. A ... ... ... : ... .. A ... ... ... : G-3 00 . ... : ... .. A ... : ... .. . ... ... : ... .. 4 ... ... : ... .. 4 ... ... : ... .. . P80 ...
ROW 76 : ... .. . ... ... ... : ... .. . ... ... ... : D-3 00 . ... : ... .. 8 ... : ... .. . ... ... : ... .. . ... ... : ... .. . ... ... : ... .. . P7E ...
ROW 77 : ... .. . ... ... ... : ... .. . ... ... ... : ... .. . ... : ... .. 7 ... : ... .. . ... ... : ... .. . ... ... : ... .. . ... ... : ... .. . P7D ...
ROW 78 : A-1 00 F ... ... ... : A-2 00 F ... ... ... : A-2 00 . ... : ... .. 8 ... : ... .. . ... ... : C-3 01 6 ... ... : C-4 01 6 ... ... : A-0 01 F ... ...
ROW 79 : ... .. E ... ... ... : ... .. E ... ... ... : ... .. . ... : ... .. 6 ... : ... .. . ... ... : ... .. . ... ... : ... .. . ... ... : ... .. D P7F ...
ROW 7A : ... .. D ... ... ... : ... .. D ... ... ... : ... .. . ... : ... .. 3 ... : ... .. . ... ... : ... .. 5 ... ... : ... .. 5 ... ... : ... .. 8 P80 ...
ROW 7B : ... .. A ... ... ... : ... .. A ... ... ... : ... .. . ... : ... .. 1 ... : ... .. . ... ... : ... .. 4 ... ... : ... .. 4 ... ... : ... .. . P83 ...
ROW 7C : ... .. . ... ... ... : ... .. . ... ... ... : ... .. . ... : ... .. . ... : ... .. . ... ... : ... .. . ... ... : ... .. . ... ... : ... .. . ... ...
ROW 7D : ... .. . ... ... ... : ... .. . ... ... ... : ... .. . ... : ... .. 0 ... : ... .. . ... ... : ... .. . ... ... : ... .. . ... ... : ... .. . P82 ...
ROW 7E : D-1 00 F ... ... ... : D-2 00 F ... ... ... : D-2 00 . ... : B-# 00 F ... : ... .. . ... ... : F-3 01 6 ... ... : F-4 01 6 ... ... : D-0 01 F P80 ...
ROW 7F : ... .. E ... ... ... : ... .. E ... ... ... : ... .. . ... : ... .. C ... : ... .. . ... ... : ... .. . ... ... : ... .. . ... ... : ... .. D P7F ...
ROW 80 : ... .. D ... ... ... : ... .. D ... ... ... : ... .. . ... : ... .. 6 ... : ... .. . ... ... : ... .. 5 ... ... : ... .. 5 ... ... : ... .. 8 P7D ...
ROW 81 : ... .. A ... ... ... : ... .. A ... ... ... : ... .. . ... : ... .. 3 ... : ... .. . ... ... : ... .. 4 ... ... : ... .. 4 ... ... : ... .. . ... ...
ROW 82 : ... .. . ... ... ... : ... .. . ... ... ... : ... .. . ... : ... .. 2 ... : ... .. . ... ... : ... .. . ... ... : ... .. . ... ... : ... .. . P7F ...
ROW 83 : ... .. . ... ... ... : ... .. . ... ... ... : ... .. . ... : ... .. 0 ... : ... .. . ... ... : ... .. . ... ... : ... .. . ... ... : ... .. . P80 ...
ROW 84 : ... .. . ... ... ... : ... .. . ... ... ... : ... .. . ... : 9-# 00 8 ... : ... .. . ... ... : C-4 01 6 ... ... : C-5 01 6 ... ... : ... .. . P82 ...
ROW 85 : ... .. . ... ... ... : ... .. . ... ... ... : ... .. . ... : ... .. 6 ... : ... .. . ... ... : ... .. . ... ... : ... .. . ... ... : ... .. . P83 ...
ROW 86 : ... .. . ... ... ... : ... .. . ... ... ... : ... .. . ... : ... .. 3 ... : ... .. . ... ... : ... .. 5 ... ... : ... .. 5 ... ... : ... .. . ... ...
ROW 87 : ... .. . ... ... ... : ... .. . ... ... ... : ... .. . ... : ... .. 1 ... : ... .. . ... ... : ... .. 4 ... ... : ... .. 4 ... ... : ... .. . P80 ...
ROW 88 : ... .. . ... ... ... : ... .. . ... ... ... : ... .. . ... : ... .. . ... : ... .. . ... ... : ... .. . ... ... : ... .. . ... ... : ... .. . P7F ...
ROW 89 : ... .. . ... ... ... : ... .. . ... ... ... : ... .. . ... : ... .. 0 ... : ... .. . ... ... : ... .. . ... ... : ... .. . ... ... : ... .. . P7D ...
ROW 8A : ... .. . P60 ... ... : C#2 00 A P8E ... ... : C#2 00 . P8D : ... .. 8 ... : ... .. . ... ... : C#4 01 6 ... ... : C#5 01 6 ... ... : ... .. . ... ...
ROW 8B : C#1 00 A P9A ... ... : ... .. . P6E ... ... : ... .. . P6D : ... .. 6 ... : ... .. . ... ... : ... .. . ... ... : ... .. . ... ... : ... .. . P7E ...
ROW 8C : ... .. . P7A ... ... : C-2 00 A P7E ... ... : C-2 00 . P7D : ... .. 3 ... : ... .. . ... ... : ... .. 5 ... ... : ... .. 5 ... ... : ... .. . P80 ...
ROW 8D : ... .. . P5A ... ... : B-1 00 A P91 ... ... : B-1 00 . P90 : ... .. 1 ... : ... .. . ... ... : ... .. 4 ... ... : ... .. 4 ... ... : ... .. . P82 ...
ROW 8E : C-1 00 A P9A ... ... : ... .. . P71 ... ... : ... .. . P70 : ... .. . ... : ... .. . ... ... : ... .. . ... ... : ... .. . ... ... : ... .. . P83 ...
ROW 8F : ... .. . P7A ... ... : A#1 00 A P87 ... ... : A#1 00 . P86 : ... .. 0 ... : ... .. . ... ... : ... .. . ... ... : ... .. . ... ... : ... .. . ... ...
ROW 90 : ... .. F P80 ... ... : C-2 00 F P81 ... ... : B-3 00 . P80 : ... .. D ... : ... .. . ... ... : F-4 01 6 ... ... : F-5 01 6 ... ... : C#0 01 F PA6 ...
ROW 91 : ... .. E ... ... ... : ... .. E ... ... ... : C#3 00 . ... : ... .. B ... : ... .. . ... ... : ... .. . ... ... : ... .. . ... ... : ... .. D PA4 ...
ROW 92 : ... .. D ... ... ... : ... .. D ... ... ... : F#2 00 . ... : ... .. . ... : ... .. . ... ... : ... .. 5 ... ... : ... .. 5 ... ... : ... .. 8 PA2 ...
ROW 93 : ... .. A ... ... ... : ... .. A ... ... ... : F-2 00 . ... : ... .. A ... : ... .. . ... ... : ... .. 4 ... ... : ... .. 4 ... ... : ... .. . ... ...
ROW 94 : ... .. . ... ... ... : ... .. . ... ... ... : C-2 00 . ... : ... .. 8 ... : ... .. . ... ... : ... .. . ... ... : ... .. . ... ... : ... .. . PA3 ...
ROW 95 : ... .. . ... ... ... : ... .. . ... ... ... : ... .. . ... : ... .. 7 ... : ... .. . ... ... : ... .. . ... ... : ... .. . ... ... : ... .. . PA5 ...
ROW 96 : D-1 00 F ... ... ... : D-2 00 F ... ... ... : D-2 00 . ... : 7-# 00 8 ... : ... .. . ... ... : F#4 01 6 ... ... : F#5 01 6 ... ... : D-0 01 F P82 ...
ROW 97 : ... .. E ... ... ... : ... .. E ... ... ... : ... .. . ... : ... .. 6 ... : ... .. . ... ... : ... .. . ... ... : ... .. . ... ... : ... .. D P83 ...
ROW 98 : ... .. D ... ... ... : ... .. D ... ... ... : ... .. . ... : ... .. 3 ... : ... .. . ... ... : ... .. 5 ... ... : ... .. 5 ... ... : ... .. 8 ... ...
ROW 99 : ... .. A ... ... ... : ... .. A ... ... ... : ... .. . ... : ... .. 1 ... : ... .. . ... ... : ... .. 4 ... ... : ... .. 4 ... ... : ... .. . P81 ...
ROW 9A : ... .. . ... ... ... : ... .. . ... ... ... : ... .. . ... : ... .. . ... : ... .. . ... ... : ... .. . ... ... : ... .. . ... ... : ... .. . P80 ...
ROW 9B : ... .. . ... ... ... : ... .. . ... ... ... : ... .. . ... : ... .. 0 ... : ... .. . ... ... : ... .. . ... ... : ... .. . ... ... : ... .. . P7D ...
ROW 9C : C-2 00 F ... ... ... : C-3 00 F ... ... ... : C-3 00 . ... : A-# 00 F ... : ... .. . ... ... : C-5 01 6 ... ... : C-6 01 6 ... ... : C-1 01 F ... ...
ROW 9D : ... .. E ... ... ... : ... .. E ... ... ... : ... .. . ... : ... .. C ... : ... .. . ... ... : ... .. . ... ... : ... .. . ... ... : ... .. D P7E ...
ROW 9E : ... .. D ... ... ... : ... .. D ... ... ... : ... .. . ... : ... .. 6 ... : ... .. . ... ... : ... .. 5 ... ... : ... .. 5 ... ... : ... .. 8 P80 ...
ROW 9F : ... .. A ... ... ... : ... .. A ... ... ... : ... .. . ... : ... .. 3 ... : ... .. . ... ... : ... .. 4 ... ... : ... .. 4 ... ... : ... .. . P81 ...
ROW A0 : ... .. . ... ... ... : ... .. . ... ... ... : ... .. . ... : ... .. 2 ... : ... .. . ... ... : ... .. . ... ... : ... .. . ... ... : ... .. . P83 ...
ROW A1 : ... .. . ... ... ... : ... .. . ... ... ... : ... .. . ... : ... .. 0 ... : ... .. . ... ... : ... .. . ... ... : ... .. . ... ... : ... .. . ... ...
ROW A2 : D-2 00 F ... ... ... : D-3 00 F ... ... ... : D-3 00 . ... : E-# 00 8 ... : ... .. . ... ... : C#5 01 6 ... ... : C#6 01 6 ... ... : D-1 01 F P81 ...
ROW A3 : ... .. E ... ... ... : ... .. E ... ... ... : ... .. . ... : ... .. 6 ... : ... .. . ... ... : ... .. . ... ... : ... .. . ... ... : ... .. D P80 ...
ROW A4 : ... .. D ... ... ... : ... .. D ... ... ... : ... .. . ... : ... .. 3 ... : ... .. . ... ... : ... .. 5 ... ... : ... .. 5 ... ... : ... .. 8 P7E ...
ROW A5 : ... .. A ... ... ... : ... .. A ... ... ... : ... .. . ... : ... .. 1 ... : ... .. . ... ... : ... .. 4 ... ... : ... .. 4 ... ... : ... .. . P7D ...
ROW A6 : ... .. . ... ... ... : ... .. . ... ... ... : ... .. . ... : ... .. . ... : ... .. . ... ... : ... .. . ... ... : ... .. . ... ... : ... .. . ... ...
ROW A7 : ... .. . ... ... ... : ... .. . ... ... ... : ... .. . ... : ... .. 0 ... : ... .. . ... ... : ... .. . ... ... : ... .. . ... ... : ... .. . P80 ...
ROW A8 : C-4 00 F ... ... ... : C-3 00 F ... ... ... : B-4 00 . ... : 1-# 00 F ... : ... .. . ... ... : C-5 01 6 ... ... : C-6 01 6 ... ... : C-1 01 F P81 ...
ROW A9 : ... .. E ... ... ... : ... .. E ... ... ... : C#4 00 . ... : ... .. C ... : ... .. . ... ... : ... .. . ... ... : ... .. . ... ... : ... .. D P83 ...
ROW AA : ... .. D ... ... ... : ... .. D ... ... ... : F#3 00 . ... : ... .. 6 ... : ... .. . ... ... : ... .. 5 ... ... : ... .. 5 ... ... : ... .. 8 ... ...
ROW AB : ... .. A ... ... ... : ... .. A ... ... ... : F-3 00 . ... : ... .. 3 ... : ... .. . ... ... : ... .. 4 ... ... : ... .. 4 ... ... : ... .. . P82 ...
ROW AC : ... .. 2 ... ... ... : ... .. . ... ... ... : C-3 00 . ... : ... .. 2 ... : ... .. . ... ... : ... .. . ... ... : ... .. . ... ... : ... .. . P80 ...
ROW AD : ... .. . ... ... ... : ... .. . ... ... ... : ... .. . ... : ... .. 0 ... : ... .. . ... ... : ... .. . ... ... : ... .. . ... ... : ... .. . P7E ...
ROW AE : B-3 00 F ... ... ... : B-2 00 F ... ... ... : B-2 00 . ... : 9-# 00 8 ... : ... .. . ... ... : C#5 01 6 ... ... : C#6 01 6 ... ... : B-0 01 F P7D ...
ROW AF : ... .. E ... ... ... : ... .. E ... ... ... : ... .. . ... : ... .. 6 ... : ... .. . ... ... : ... .. . ... ... : ... .. . ... ... : ... .. D ... ...
ROW B0 : ... .. D ... ... ... : ... .. D ... ... ... : ... .. . ... : ... .. 3 ... : ... .. . ... ... : ... .. 5 ... ... : ... .. 5 ... ... : ... .. 8 P7F ...
ROW B1 : ... .. A ... ... ... : ... .. A ... ... ... : ... .. . ... : ... .. 1 ... : ... .. . ... ... : ... .. 4 ... ... : ... .. 4 ... ... : ... .. . P81 ...
ROW B2 : ... .. 2 ... ... ... : ... .. . ... ... ... : ... .. . ... : ... .. . ... : ... .. . ... ... : ... .. . ... ... : ... .. . ... ... : ... .. . P83 ...
ROW B3 : ... .. . ... ... ... : ... .. . ... ... ... : ... .. . ... : ... .. 0 ... : ... .. . ... ... : ... .. . ... ... : ... .. . ... ... : ... .. . ... ...
ROW B4 : B-2 00 F ... ... ... : B-1 00 F ... ... ... : B-1 00 . ... : B-# 00 F ... : ... .. . ... ... : C-5 01 6 ... ... : C-6 01 6 ... ... : ... .. F P82 ...
ROW B5 : ... .. E ... ... ... : ... .. E ... ... ... : ... .. . ... : ... .. C ... : ... .. . ... ... : ... .. . ... ... : ... .. . ... ... : ... .. D P80 ...
ROW B6 : ... .. D ... ... ... : ... .. D ... ... ... : ... .. . ... : ... .. 6 ... : ... .. . ... ... : ... .. 5 ... ... : ... .. 5 ... ... : ... .. 8 P7E ...
ROW B7 : ... .. A ... ... ... : ... .. A ... ... ... : ... .. . ... : ... .. 3 ... : ... .. . ... ... : ... .. 4 ... ... : ... .. 4 ... ... : ... .. . P7D ...
ROW B8 : ... .. 2 ... ... ... : ... .. . ... ... ... : ... .. . ... : ... .. 2 ... : ... .. . ... ... : ... .. . ... ... : ... .. . ... ... : ... .. . ... ...
ROW B9 : ... .. . ... ... ... : ... .. . ... ... ... : ... .. . ... : ... .. 0 ... : ... .. . ... ... : ... .. . ... ... : ... .. . ... ... : ... .. . P7F ...
ROW BA : ... .. F ... ... ... : ... .. F ... ... ... : ... .. . ... : 9-# 00 8 ... : ... .. . ... ... : F-4 01 6 ... ... : F-5 01 6 ... ... : ... .. F P80 ...
ROW BB : ... .. E ... ... ... : ... .. E ... ... ... : ... .. . ... : ... .. 6 ... : ... .. . ... ... : ... .. . ... ... : ... .. . ... ... : ... .. D P83 ...
ROW BC : ... .. D ... ... ... : ... .. D ... ... ... : ... .. . ... : ... .. 3 ... : ... .. . ... ... : ... .. 5 ... ... : ... .. 5 ... ... : ... .. 8 ... ...
ROW BD : ... .. A ... ... ... : ... .. A ... ... ... : ... .. . ... : ... .. 1 ... : ... .. . ... ... : ... .. 4 ... ... : ... .. 4 ... ... : ... .. . P82 ...
ROW BE : ... .. 2 ... ... ... : ... .. . ... ... ... : ... .. . ... : ... .. . ... : ... .. . ... ... : ... .. . ... ... : ... .. . ... ... : ... .. . P80 ...
ROW BF : ... .. . ... ... ... : ... .. . ... ... ... : ... .. . ... : ... .. 0 ... : ... .. . ... ... : ... .. . ... ... : ... .. . ... ... : ... .. . P7F ...
ROW C0 : C-4 00 F ... ... ... : C-3 00 F ... ... ... : B-4 00 . ... : 1-# 00 F ... : ... .. . ... ... : C-5 01 6 ... ... : C-6 01 6 ... ... : C-1 01 F P7D ...
ROW C1 : ... .. E ... ... ... : ... .. E ... ... ... : C#4 00 . ... : ... .. C ... : ... .. . ... ... : ... .. . ... ... : ... .. . ... ... : ... .. D ... ...
ROW C2 : ... .. D ... ... ... : ... .. D ... ... ... : F#3 00 . ... : ... .. 6 ... : ... .. . ... ... : ... .. 5 ... ... : ... .. 5 ... ... : ... .. 8 P7F ...
ROW C3 : ... .. A ... ... ... : ... .. A ... ... ... : F-3 00 . ... : ... .. 3 ... : ... .. . ... ... : ... .. 4 ... ... : ... .. 4 ... ... : ... .. . P80 ...
ROW C4 : ... .. 2 ... ... ... : ... .. . ... ... ... : C-3 00 . ... : ... .. 2 ... : ... .. . ... ... : ... .. . ... ... : ... .. . ... ... : ... .. . P82 ...
ROW C5 : ... .. . ... ... ... : ... .. . ... ... ... : ... .. . ... : ... .. 0 ... : ... .. . ... ... : ... .. . ... ... : ... .. . ... ... : ... .. . P83 ...
ROW C6 : B-3 00 F ... ... ... : B-2 00 F ... ... ... : B-2 00 . ... : 9-# 00 8 ... : ... .. . ... ... : C#5 01 6 ... ... : C#6 01 6 ... ... : B-0 01 F ... ...
ROW C7 : ... .. E ... ... ... : ... .. E ... ... ... : ... .. . ... : ... .. 6 ... : ... .. . ... ... : ... .. . ... ... : ... .. . ... ... : ... .. D P80 ...
ROW C8 : ... .. D ... ... ... : ... .. D ... ... ... : ... .. . ... : ... .. 3 ... : ... .. . ... ... : ... .. 5 ... ... : ... .. 5 ... ... : ... .. 8 P7F ...
ROW C9 : ... .. A ... ... ... : ... .. A ... ... ... : ... .. . ... : ... .. 1 ... : ... .. . ... ... : ... .. 4 ... ... : ... .. 4 ... ... : ... .. . P7D ...
ROW CA : ... .. 2 ... ... ... : ... .. . ... ... ... : ... .. . ... : ... .. . ... : ... .. . ... ... : ... .. . ... ... : ... .. . ... ... : ... .. . ... ...
ROW CB : ... .. . ... ... ... : ... .. . ... ... ... : ... .. . ... : ... .. 0 ... : ... .. . ... ... : ... .. . ... ... : ... .. . ... ... : ... .. . P7E ...
ROW CC : B-2 00 F ... ... ... : B-1 00 F ... ... ... : B-1 00 . ... : B-# 00 F ... : ... .. . ... ... : C-5 01 6 ... ... : C-6 01 6 ... ... : ... .. F P80 ...
ROW CD : ... .. E ... ... ... : ... .. E ... ... ... : ... .. . ... : ... .. C ... : ... .. . ... ... : ... .. . ... ... : ... .. . ... ... : ... .. D P82 ...
ROW CE : ... .. D ... ... ... : ... .. D ... ... ... : ... .. . ... : ... .. 6 ... : ... .. . ... ... : ... .. 5 ... ... : ... .. 5 ... ... : ... .. 8 P83 ...
ROW CF : ... .. A ... ... ... : ... .. A ... ... ... : ... .. . ... : ... .. 3 ... : ... .. . ... ... : ... .. 4 ... ... : ... .. 4 ... ... : ... .. . ... ...
ROW D0 : ... .. 2 ... ... ... : ... .. . ... ... ... : ... .. . ... : ... .. 2 ... : ... .. . ... ... : ... .. . ... ... : ... .. . ... ... : ... .. . P81 ...
ROW D1 : ... .. . ... ... ... : ... .. . ... ... ... : ... .. . ... : ... .. 0 ... : ... .. . ... ... : ... .. . ... ... : ... .. . ... ... : ... .. . P7F ...
ROW D2 : ... .. F ... ... ... : ... .. F ... ... ... : ... .. . ... : 9-# 00 8 ... : ... .. . ... ... : F-4 01 6 ... ... : F-5 01 6 ... ... : ... .. F P7D ...
ROW D3 : ... .. E ... ... ... : ... .. E ... ... ... : ... .. . ... : ... .. 6 ... : ... .. . ... ... : ... .. . ... ... : ... .. . ... ... : ... .. D ... ...
ROW D4 : ... .. D ... ... ... : ... .. D ... ... ... : ... .. . ... : ... .. 3 ... : ... .. . ... ... : ... .. 5 ... ... : ... .. 5 ... ... : ... .. 8 P7E ...
ROW D5 : ... .. A ... ... ... : ... .. A ... ... ... : ... .. . ... : ... .. 1 ... : ... .. . ... ... : ... .. 4 ... ... : ... .. 4 ... ... : ... .. . P80 ...
ROW D6 : ... .. 2 ... ... ... : ... .. . ... ... ... : ... .. . ... : ... .. . ... : ... .. . ... ... : ... .. . ... ... : ... .. . ... ... : ... .. . P82 ...
ROW D7 : ... .. . ... ... ... : ... .. . ... ... ... : ... .. . ... : ... .. 0 ... : ... .. . ... ... : ... .. . ... ... : ... .. . ... ... : ... .. . P83 ...
ROW D8 : ... .. F ... ... ... : ... .. F ... ... ... : A#3 00 . ... : 1-# 00 F ... : ... .. . ... ... : B-2 01 6 ... ... : B-3 01 6 ... ... : ... .. F ... ...
ROW D9 : ... .. E ... ... ... : ... .. E ... ... ... : C-3 00 . ... : ... .. C ... : ... .. . ... ... : ... .. . ... ... : ... .. . ... ... : ... .. D P81 ...
ROW DA : ... .. D ... ... ... : ... .. D ... ... ... : F-2 00 . ... : ... .. 6 ... : ... .. . ... ... : ... .. 5 ... ... : ... .. 5 ... ... : ... .. 8 P80 ...
ROW DB : ... .. A ... ... ... : ... .. A ... ... ... : E-2 00 . ... : ... .. 3 ... : ... .. . ... ... : ... .. 4 ... ... : ... .. 4 ... ... : ... .. . P7D ...
ROW DC : ... .. 2 ... ... ... : ... .. . ... ... ... : B-1 00 . ... : ... .. 2 ... : ... .. . ... ... : ... .. . ... ... : ... .. . ... ... : ... .. . ... ...
ROW DD : ... .. . ... ... ... : ... .. . ... ... ... : ... .. . ... : ... .. 0 ... : ... .. . ... ... : ... .. . ... ... : ... .. . ... ... : ... .. . P7E ...
ROW DE : ... .. F ... ... ... : ... .. F ... ... ... : ... .. . ... : 9-# 00 8 ... : ... .. . ... ... : C-3 01 6 ... ... : C-4 01 6 ... ... : ... .. F P80 ...
ROW DF : ... .. E ... ... ... : ... .. E ... ... ... : ... .. . ... : ... .. 6 ... : ... .. . ... ... : ... .. . ... ... : ... .. . ... ... : ... .. D P81 ...
ROW E0 : ... .. D ... ... ... : ... .. D ... ... ... : ... .. . ... : ... .. 3 ... : ... .. . ... ... : ... .. 5 ... ... : ... .. 5 ... ... : ... .. 8 P83 ...
ROW E1 : ... .. A ... ... ... : ... .. A ... ... ... : ... .. . ... : ... .. 1 ... : ... .. . ... ... : ... .. 4 ... ... : ... .. 4 ... ... : ... .. . ... ...
ROW E2 : ... .. 2 ... ... ... : ... .. . ... ... ... : ... .. . ... : ... .. . ... : ... .. . ... ... : ... .. . ... ... : ... .. . ... ... : ... .. . P81 ...
ROW E3 : ... .. . ... ... ... : ... .. . ... ... ... : ... .. . ... : ... .. 0 ... : ... .. . ... ... : ... .. . ... ... : ... .. . ... ... : ... .. . P80 ...
ROW E4 : A-2 00 F ... ... ... : A-1 00 F ... ... ... : A-1 00 . ... : 1-# 00 F ... : ... .. . ... ... : F-3 01 6 ... ... : F-4 01 6 ... ... : A-0 01 F P7E ...
ROW E5 : ... .. E ... ... ... : ... .. E ... ... ... : ... .. . ... : ... .. C ... : ... .. . ... ... : ... .. . ... ... : ... .. . ... ... : ... .. D P7D ...
ROW E6 : ... .. D ... ... ... : ... .. D ... ... ... : ... .. . ... : ... .. 6 ... : ... .. . ... ... : ... .. 5 ... ... : ... .. 5 ... ... : ... .. 8 ... ...
ROW E7 : ... .. A ... ... ... : ... .. A ... ... ... : ... .. . ... : ... .. 3 ... : ... .. . ... ... : ... .. 4 ... ... : ... .. 4 ... ... : ... .. . P80 ...
ROW E8 : ... .. 2 ... ... ... : ... .. . ... ... ... : ... .. . ... : ... .. 2 ... : ... .. . ... ... : ... .. . ... ... : ... .. . ... ... : ... .. . P81 ...
ROW E9 : ... .. . ... ... ... : ... .. . ... ... ... : ... .. . ... : ... .. 0 ... : ... .. . ... ... : ... .. . ... ... : ... .. . ... ... : ... .. . P83 ...
ROW EA : B-2 00 F ... ... ... : B-1 00 F ... ... ... : B-1 00 . ... : 9-# 00 8 ... : ... .. . ... ... : F#3 01 6 ... ... : F#4 01 6 ... ... : B-0 01 F ... ...
ROW EB : ... .. E ... ... ... : ... .. E ... ... ... : ... .. . ... : ... .. 6 ... : ... .. . ... ... : ... .. . ... ... : ... .. . ... ... : ... .. D P82 ...
ROW EC : ... .. D ... ... ... : ... .. D ... ... ... : ... .. . ... : ... .. 3 ... : ... .. . ... ... : ... .. 5 ... ... : ... .. 5 ... ... : ... .. 8 P80 ...
ROW ED : ... .. A ... ... ... : ... .. A ... ... ... : ... .. . ... : ... .. 1 ... : ... .. . ... ... : ... .. 4 ... ... : ... .. 4 ... ... : ... .. . P7E ...
ROW EE : ... .. 2 ... ... ... : ... .. . ... ... ... : ... .. . ... : ... .. . ... : ... .. . ... ... : ... .. . ... ... : ... .. . ... ... : ... .. . P7D ...
ROW EF : ... .. . ... ... ... : ... .. . ... ... ... : ... .. . ... : ... .. 0 ... : ... .. . ... ... : ... .. . ... ... : ... .. . ... ... : ... .. . ... ...
ROW F0 : G#4 00 F ... ... ... : G#3 00 F ... ... ... : G-5 00 . ... : ... .. D ... : ... .. . ... ... : C-4 01 6 ... ... : C-5 01 6 ... ... : G#1 01 F P7F ...
ROW F1 : ... .. E ... ... ... : ... .. E ... ... ... : A-4 00 . ... : ... .. B ... : ... .. . ... ... : ... .. . ... ... : ... .. . ... ... : ... .. D P81 ...
ROW F2 : ... .. D ... ... ... : ... .. D ... ... ... : D-4 00 . ... : ... .. . ... : ... .. . ... ... : ... .. 5 ... ... : ... .. 5 ... ... : ... .. 8 P83 ...
ROW F3 : ... .. A ... ... ... : ... .. A ... ... ... : C#4 00 . ... : ... .. A ... : ... .. . ... ... : ... .. 4 ... ... : ... .. 4 ... ... : ... .. . ... ...
ROW F4 : ... .. 2 ... ... ... : ... .. . ... ... ... : G#3 00 . ... : ... .. 8 ... : ... .. . ... ... : ... .. . ... ... : ... .. . ... ... : ... .. . P82 ...
ROW F5 : ... .. . ... ... ... : ... .. . ... ... ... : ... .. . ... : ... .. 7 ... : ... .. . ... ... : ... .. . ... ... : ... .. . ... ... : ... .. . P80 ...
ROW F6 : ... .. F ... ... ... : ... .. F ... ... ... : ... .. . ... : 7-# 00 8 ... : ... .. . ... ... : C#4 01 6 ... ... : C#5 01 6 ... ... : ... .. F P7E ...
ROW F7 : ... .. E ... ... ... : ... .. E ... ... ... : ... .. . ... : ... .. 6 ... : ... .. . ... ... : ... .. . ... ... : ... .. . ... ... : ... .. D P7D ...
ROW F8 : ... .. D ... ... ... : ... .. D ... ... ... : ... .. . ... : ... .. 3 ... : ... .. . ... ... : ... .. 5 ... ... : ... .. 5 ... ... : ... .. 8 ... ...
ROW F9 : ... .. A ... ... ... : ... .. A ... ... ... : ... .. . ... : ... .. 1 ... : ... .. . ... ... : ... .. 4 ... ... : ... .. 4 ... ... : ... .. . P7F ...
ROW FA : ... .. 2 ... ... ... : ... .. . ... ... ... : ... .. . ... : ... .. . ... : ... .. . ... ... : ... .. . ... ... : ... .. . ... ... : ... .. . P80 ...
ROW FB : ... .. . ... ... ... : ... .. . ... ... ... : ... .. . ... : ... .. 0 ... : ... .. . ... ... : ... .. . ... ... : ... .. . ... ... : ... .. . P83 ...
ROW FC : B-4 00 F ... ... ... : B-3 00 F ... ... ... : B-3 00 . ... : A-# 00 F ... : ... .. . ... ... : F-4 01 6 ... ... : F-5 01 6 ... ... : B-1 01 F ... ...
ROW FD : ... .. E ... ... ... : ... .. E ... ... ... : ... .. . ... : ... .. C ... : ... .. . ... ... : ... .. . ... ... : ... .. . ... ... : ... .. D P82 ...
ROW FE : ... .. D ... ... ... : ... .. D ... ... ... : ... .. . ... : ... .. 6 ... : ... .. . ... ... : ... .. 5 ... ... : ... .. 5 ... ... : ... .. 8 P80 ...
ROW FF : ... .. A ... ... ... : ... .. A ... ... ... : ... .. . ... : ... .. 3 ... : ... .. . ... ... : ... .. 4 ... ... : ... .. 4 ... ... : ... .. . P7F ...

PATTERN 1C
ROW 00 : ... .. 2 ... ... ... : ... .. . ... ... ... : ... .. . ... : ... .. 2 ... : ... .. . ... ... : ... .. . ... ... : ... .. . ... ... : ... .. . P7D ...
ROW 01 : ... .. . ... ... ... : ... .. . ... ... ... : ... .. . ... : ... .. 0 ... : ... .. . ... ... : ... .. . ... ... : ... .. . ... ... : ... .. . ... ...
ROW 02 : ... .. F ... ... ... : ... .. F ... ... ... : ... .. . ... : E-# 00 8 ... : ... .. . ... ... : F#4 01 6 ... ... : F#5 01 6 ... ... : ... .. F P7F ...
ROW 03 : ... .. E ... ... ... : ... .. E ... ... ... : ... .. . ... : ... .. 6 ... : ... .. . ... ... : ... .. . ... ... : ... .. . ... ... : ... .. D P80 ...
ROW 04 : ... .. D ... ... ... : ... .. D ... ... ... : ... .. . ... : ... .. 3 ... : ... .. . ... ... : ... .. 5 ... ... : ... .. 5 ... ... : ... .. 8 P82 ...
ROW 05 : ... .. A ... ... ... : ... .. A ... ... ... : ... .. . ... : ... .. 1 ... : ... .. . ... ... : ... .. 4 ... ... : ... .. 4 ... ... : ... .. . P83 ...
ROW 06 : ... .. 2 ... ... ... : ... .. . ... ... ... : ... .. . ... : ... .. . ... : ... .. . ... ... : ... .. . ... ... : ... .. . ... ... : ... .. . ... ...
ROW 07 : ... .. . ... ... ... : ... .. . ... ... ... : ... .. . ... : ... .. 0 ... : ... .. . ... ... : ... .. . ... ... : ... .. . ... ... : ... .. . P80 ...
ROW 08 : C-5 00 F ... ... ... : C-4 00 F ... ... ... : B-5 00 . ... : 9-# 00 D ... : ... .. . ... ... : D-4 01 6 ... ... : D-5 01 6 ... ... : C-2 01 F P7F ...
ROW 09 : ... .. E ... ... ... : ... .. E ... ... ... : C#5 00 . ... : ... .. B ... : ... .. . ... ... : ... .. . ... ... : ... .. . ... ... : ... .. D P7D ...
ROW 0A : ... .. D ... ... ... : ... .. D ... ... ... : F#4 00 . ... : ... .. . ... : ... .. . ... ... : ... .. 5 ... ... : ... .. 5 ... ... : ... .. 8 ... ...
ROW 0B : ... .. A ... ... ... : ... .. A ... ... ... : F-4 00 . ... : ... .. A ... : ... .. . ... ... : ... .. 4 ... ... : ... .. 4 ... ... : ... .. . P7E ...
ROW 0C : ... .. . ... ... ... : ... .. . ... ... ... : C-4 00 . ... : ... .. 8 ... : ... .. . ... ... : ... .. . ... ... : ... .. . ... ... : ... .. . P80 ...
ROW 0D : ... .. . ... ... ... : ... .. . ... ... ... : ... .. . ... : ... .. 7 ... : ... .. . ... ... : ... .. . ... ... : ... .. . ... ... : ... .. . P82 ...
ROW 0E : C-4 00 F ... ... ... : G-3 00 F ... ... ... : G-3 00 . ... : ... .. 8 ... : ... .. . ... ... : D#4 01 6 ... ... : D#5 01 6 ... ... : G-1 01 F P83 ...
ROW 0F : ... .. E ... ... ... : ... .. E ... ... ... : ... .. . ... : ... .. 6 ... : ... .. . ... ... : ... .. . ... ... : ... .. . ... ... : ... .. D ... ...
ROW 10 : ... .. D ... ... ... : ... .. D ... ... ... : ... .. . ... : ... .. 3 ... : ... .. . ... ... : ... .. 5 ... ... : ... .. 5 ... ... : ... .. 8 P81 ...
ROW 11 : ... .. A ... ... ... : ... .. A ... ... ... : ... .. . ... : ... .. 1 ... : ... .. . ... ... : ... .. 4 ... ... : ... .. 4 ... ... : ... .. . P7F ...
ROW 12 : ... .. . ... ... ... : ... .. . ... ... ... : ... .. . ... : ... .. . ... : ... .. . ... ... : ... .. . ... ... : ... .. . ... ... : ... .. . P7D ...
ROW 13 : ... .. . ... ... ... : ... .. . ... ... ... : ... .. . ... : ... .. 0 ... : ... .. . ... ... : ... .. . ... ... : ... .. . ... ... : ... .. . ... ...
ROW 14 : C-5 00 8 ... ... ... : C-3 00 F ... ... ... : C-3 00 . ... : B-# 00 F ... : ... .. . ... ... : D-4 01 6 ... ... : D-5 01 6 ... ... : C-1 01 F P7E ...
ROW 15 : ... .. 7 ... ... ... : ... .. E ... ... ... : ... .. . ... : ... .. C ... : ... .. . ... ... : ... .. . ... ... : ... .. . ... ... : ... .. D P80 ...
ROW 16 : ... .. 6 ... ... ... : ... .. D ... ... ... : ... .. . ... : ... .. 6 ... : ... .. . ... ... : ... .. 5 ... ... : ... .. 5 ... ... : ... .. 8 P82 ...
ROW 17 : ... .. 5 ... ... ... : ... .. A ... ... ... : ... .. . ... : ... .. 3 ... : ... .. . ... ... : ... .. 4 ... ... : ... .. 4 ... ... : ... .. . P83 ...
ROW 18 : ... .. . ... ... ... : ... .. . ... ... ... : ... .. . ... : ... .. 2 ... : ... .. . ... ... : ... .. . ... ... : ... .. . ... ... : ... .. . ... ...
ROW 19 : ... .. . ... ... ... : ... .. . ... ... ... : ... .. . ... : ... .. 0 ... : ... .. . ... ... : ... .. . ... ... : ... .. . ... ... : ... .. . P81 ...
ROW 1A : C-4 00 8 ... ... ... : B-2 00 A P7A ... ... : B-2 00 . P79 : 9-# 00 8 ... : ... .. . ... ... : A-3 01 6 ... ... : A-4 01 6 ... ... : ... .. . P80 ...
ROW 1B : ... .. 7 ... ... ... : A#2 00 A P75 ... ... : A#2 00 . P74 : ... .. 6 ... : ... .. . ... ... : ... .. . ... ... : ... .. . ... ... : ... .. . P7D ...
ROW 1C : ... .. 6 ... ... ... : A-2 00 A P71 ... ... : G#2 00 . P8F : ... .. 3 ... : ... .. . ... ... : ... .. 5 ... ... : ... .. 5 ... ... : ... .. . ... ...
ROW 1D : ... .. 5 ... ... ... : G-2 00 A P90 ... ... : G-2 00 . ... : ... .. 1 ... : ... .. . ... ... : ... .. 4 ... ... : ... .. 4 ... ... : ... .. . P7E ...
ROW 1E : ... .. . ... ... ... : ... .. . P70 ... ... : F#2 00 . P91 : ... .. . ... : ... .. . ... ... : ... .. . ... ... : ... .. . ... ... : ... .. . P80 ...
ROW 1F : ... .. . ... ... ... : ... .. . ... ... ... : ... .. . ... : ... .. . ... : ... .. . ... ... : ... .. . ... ... : ... .. . ... ... : ... .. . ... ...
ROW 20 : ... .. . ... ... ... : ... .. . ... ... ... : ... .. . ... : ... .. . ... : ... .. . ... ... : ... .. . ... ... : ... .. . ... ... : ... .. . ... ...
ROW 21 : ... .. . ... ... ... : ... .. . ... ... ... : ... .. . ... : ... .. . ... : ... .. . ... ... : ... .. . ... ... : ... .. . ... ... : ... .. . ... ...
ROW 22 : ... .. . ... ... ... : ... .. . ... ... ... : ... .. . ... : ... .. . ... : ... .. . ... ... : ... .. . ... ... : ... .. . ... ... : ... .. . ... ...
ROW 23 : ... .. . ... ... ... : ... .. . ... ... ... : ... .. . ... : ... .. . ... : ... .. . ... ... : ... .. . ... ... : ... .. . ... ... : ... .. . ... ...
ROW 24 : ... .. . ... ... ... : ... .. . ... ... ... : ... .. . ... : ... .. . ... : ... .. . ... ... : ... .. . ... ... : ... .. . ... ... : ... .. . ... ...
ROW 25 : ... .. . ... ... ... : ... .. . ... ... ... : ... .. . ... : ... .. . ... : ... .. . ... ... : ... .. . ... ... : ... .. . ... ... : ... .. . ... ...
ROW 26 : ... .. . ... ... ... : ... .. . ... ... ... : ... .. . ... : ... .. . ... : ... .. . ... ... : ... .. . ... ... : ... .. . ... ... : ... .. . ... ...
ROW 27 : ... .. . ... ... ... : ... .. . ... ... ... : ... .. . ... : ... .. . ... : ... .. . ... ... : ... .. . ... ... : ... .. . ... ... : ... .. . ... ...
ROW 28 : ... .. . ... ... ... : ... .. . ... ... ... : ... .. . ... : ... .. . ... : ... .. . ... ... : ... .. . ... ... : ... .. . ... ... : ... .. . ... ...
ROW 29 : ... .. . ... ... ... : ... .. . ... ... ... : ... .. . ... : ... .. . ... : ... .. . ... ... : ... .. . ... ... : ... .. . ... ... : ... .. . ... ...
ROW 2A : ... .. . ... ... ... : ... .. . ... ... ... : ... .. . ... : ... .. . ... : ... .. . ... ... : ... .. . ... ... : ... .. . ... ... : ... .. . ... ...
ROW 2B : ... .. . ... ... ... : ... .. . ... ... ... : ... .. . ... : ... .. . ... : ... .. . ... ... : ... .. . ... ... : ... .. . ... ... : ... .. . ... ...
ROW 2C : ... .. . ... ... ... : ... .. . ... ... ... : ... .. . ... : ... .. . ... : ... .. . ... ... : ... .. . ... ... : ... .. . ... ... : ... .. . ... ...
ROW 2D : ... .. . ... ... ... : ... .. . ... ... ... : ... .. . ... : ... .. . ... : ... .. . ... ... : ... .. . ... ... : ... .. . ... ... : ... .. . ... ...
ROW 2E : ... .. . ... ... ... : ... .. . ... ... ... : ... .. . ... : ... .. . ... : ... .. . ... ... : ... .. . ... ... : ... .. . ... ... : ... .. . ... ...
ROW 2F : ... .. . ... ... ... : ... .. . ... ... ... : ... .. . ... : ... .. . ... : ... .. . ... ... : ... .. . ... ... : ... .. . ... ... : ... .. . ... ...
ROW 30 : ... .. . ... ... ... : ... .. . ... ... ... : ... .. . ... : ... .. . ... : ... .. . ... ... : ... .. . ... ... : ... .. . ... ... : ... .. . ... ...
ROW 31 : ... .. . ... ... ... : ... .. . ... ... ... : ... .. . ... : ... .. . ... : ... .. . ... ... : ... .. . ... ... : ... .. . ... ... : ... .. . ... ...
ROW 32 : ... .. . ... ... ... : ... .. . ... ... ... : ... .. . ... : ... .. . ... : ... .. . ... ... : ... .. . ... ... : ... .. . ... ... : ... .. . ... ...
ROW 33 : ... .. . ... ... ... : ... .. . ... ... ... : ... .. . ... : ... .. . ... : ... .. . ... ... : ... .. . ... ... : ... .. . ... ... : ... .. . ... ...
ROW 34 : ... .. . ... ... ... : ... .. . ... ... ... : ... .. . ... : ... .. . ... : ... .. . ... ... : ... .. . ... ... : ... .. . ... ... : ... .. . ... ...
ROW 35 : ... .. . ... ... ... : ... .. . ... ... ... : ... .. . ... : ... .. . ... : ... .. . ... ... : ... .. . ... ... : ... .. . ... ... : ... .. . ... ...
ROW 36 : ... .. . ... ... ... : ... .. . ... ... ... : ... .. . ... : ... .. . ... : ... .. . ... ... : ... .. . ... ... : ... .. . ... ... : ... .. . ... ...
ROW 37 : ... .. . ... ... ... : ... .. . ... ... ... : ... .. . ... : ... .. . ... : ... .. . ... ... : ... .. . ... ... : ... .. . ... ... : ... .. . ... ...
ROW 38 : ... .. . ... ... ... : ... .. . ... ... ... : ... .. . ... : ... .. . ... : ... .. . ... ... : ... .. . ... ... : ... .. . ... ... : ... .. . ... ...
ROW 39 : ... .. . ... ... ... : ... .. . ... ... ... : ... .. . ... : ... .. . ... : ... .. . ... ... : ... .. . ... ... : ... .. . ... ... : ... .. . ... ...
ROW 3A : ... .. . ... ... ... : ... .. . ... ... ... : ... .. . ... : ... .. . ... : ... .. . ... ... : ... .. . ... ... : ... .. . ... ... : ... .. . ... ...
ROW 3B : ... .. . ... ... ... : ... .. . ... ... ... : ... .. . ... : ... .. . ... : ... .. . ... ... : ... .. . ... ... : ... .. . ... ... : ... .. . ... ...
ROW 3C : ... .. . ... ... ... : ... .. . ... ... ... : ... .. . ... : ... .. . ... : ... .. . ... ... : ... .. . ... ... : ... .. . ... ... : ... .. . ... ...
ROW 3D : ... .. . ... ... ... : ... .. . ... ... ... : ... .. . ... : ... .. . ... : ... .. . ... ... : ... .. . ... ... : ... .. . ... ... : ... .. . ... ...
ROW 3E : ... .. . ... ... ... : ... .. . ... ... ... : ... .. . ... : ... .. . ... : ... .. . ... ... : ... .. . ... ... : ... .. . ... ... : ... .. . ... ...
ROW 3F : ... .. . ... ... ... : ... .. . ... ... ... : ... .. . ... : ... .. . ... : ... .. . ... ... : ... .. . ... ... : ... .. . ... ... : ... .. . ... ...
ROW 40 : ... .. . ... ... ... : ... .. . ... ... ... : ... .. . ... : ... .. . ... : ... .. . ... ... : ... .. . ... ... : ... .. . ... ... : ... .. . ... ...
ROW 41 : ... .. . ... ... ... : ... .. . ... ... ... : ... .. . ... : ... .. . ... : ... .. . ... ... : ... .. . ... ... : ... .. . ... ... : ... .. . ... ...
ROW 42 : ... .. . ... ... ... : ... .. . ... ... ... : ... .. . ... : ... .. . ... : ... .. . ... ... : ... .. . ... ... : ... .. . ... ... : ... .. . ... ...
ROW 43 : ... .. . ... ... ... : ... .. . ... ... ... : ... .. . ... : ... .. . ... : ... .. . ... ... : ... .. . ... ... : ... .. . ... ... : ... .. . ... ...
ROW 44 : ... .. . ... ... ... : ... .. . ... ... ... : ... .. . ... : ... .. . ... : ... .. . ... ... : ... .. . ... ... : ... .. . ... ... : ... .. . ... ...
ROW 45 : ... .. . ... ... ... : ... .. . ... ... ... : ... .. . ... : ... .. . ... : ... .. . ... ... : ... .. . ... ... : ... .. . ... ... : ... .. . ... ...
ROW 46 : ... .. . ... ... ... : ... .. . ... ... ... : ... .. . ... : ... .. . ... : ... .. . ... ... : ... .. . ... ... : ... .. . ... ... : ... .. . ... ...
ROW 47 : ... .. . ... ... ... : ... .. . ... ... ... : ... .. . ... : ... .. . ... : ... .. . ... ... : ... .. . ... ... : ... .. . ... ... : ... .. . ... ...
ROW 48 : ... .. . ... ... ... : ... .. . ... ... ... : ... .. . ... : ... .. . ... : ... .. . ... ... : ... .. . ... ... : ... .. . ... ... : ... .. . ... ...
ROW 49 : ... .. . ... ... ... : ... .. . ... ... ... : ... .. . ... : ... .. . ... : ... .. . ... ... : ... .. . ... ... : ... .. . ... ... : ... .. . ... ...
ROW 4A : ... .. . ... ... ... : ... .. . ... ... ... : ... .. . ... : ... .. . ... : ... .. . ... ... : ... .. . ... ... : ... .. . ... ... : ... .. . ... ...
ROW 4B : ... .. . ... ... ... : ... .. . ... ... ... : ... .. . ... : ... .. . ... : ... .. . ... ... : ... .. . ... ... : ... .. . ... ... : ... .. . ... ...
ROW 4C : ... .. . ... ... ... : ... .. . ... ... ... : ... .. . ... : ... .. . ... : ... .. . ... ... : ... .. . ... ... : ... .. . ... ... : ... .. . ... ...
ROW 4D : ... .. . ... ... ... : ... .. . ... ... ... : ... .. . ... : ... .. . ... : ... .. . ... ... : ... .. . ... ... : ... .. . ... ... : ... .. . ... ...
ROW 4E : ... .. . ... ... ... : ... .. . ... ... ... : ... .. . ... : ... .. . ... : ... .. . ... ... : ... .. . ... ... : ... .. . ... ... : ... .. . ... ...
ROW 4F : ... .. . ... ... ... : ... .. . ... ... ... : ... .. . ... : ... .. . ... : ... .. . ... ... : ... .. . ... ... : ... .. . ... ... : ... .. . ... ...
ROW 50 : ... .. . ... ... ... : ... .. . ... ... ... : ... .. . ... : ... .. . ... : ... .. . ... ... : ... .. . ... ... : ... .. . ... ... : ... .. . ... ...
ROW 51 : ... .. . ... ... ... : ... .. . ... ... ... : ... .. . ... : ... .. . ... : ... .. . ... ... : ... .. . ... ... : ... .. . ... ... : ... .. . ... ...
ROW 52 : ... .. . ... ... ... : ... .. . ... ... ... : ... .. . ... : ... .. . ... : ... .. . ... ... : ... .. . ... ... : ... .. . ... ... : ... .. . ... ...
ROW 53 : ... .. . ... ... ... : ... .. . ... ... ... : ... .. . ... : ... .. . ... : ... .. . ... ... : ... .. . ... ... : ... .. . ... ... : ... .. . ... ...
ROW 54 : ... .. . ... ... ... : ... .. . ... ... ... : ... .. . ... : ... .. . ... : ... .. . ... ... : ... .. . ... ... : ... .. . ... ... : ... .. . ... ...
ROW 55 : ... .. . ... ... ... : ... .. . ... ... ... : ... .. . ... : ... .. . ... : ... .. . ... ... : ... .. . ... ... : ... .. . ... ... : ... .. . ... ...
ROW 56 : ... .. . ... ... ... : ... .. . ... ... ... : ... .. . ... : ... .. . ... : ... .. . ... ... : ... .. . ... ... : ... .. . ... ... : ... .. . ... ...
ROW 57 : ... .. . ... ... ... : ... .. . ... ... ... : ... .. . ... : ... .. . ... : ... .. . ... ... : ... .. . ... ... : ... .. . ... ... : ... .. . ... ...
ROW 58 : ... .. . ... ... ... : ... .. . ... ... ... : ... .. . ... : ... .. . ... : ... .. . ... ... : ... .. . ... ... : ... .. . ... ... : ... .. . ... ...
ROW 59 : ... .. . ... ... ... : ... .. . ... ... ... : ... .. . ... : ... .. . ... : ... .. . ... ... : ... .. . ... ... : ... .. . ... ... : ... .. . ... ...
ROW 5A : ... .. . ... ... ... : ... .. . ... ... ... : ... .. . ... : ... .. . ... : ... .. . ... ... : ... .. . ... ... : ... .. . ... ... : ... .. . ... ...
ROW 5B : ... .. . ... ... ... : ... .. . ... ... ... : ... .. . ... : ... .. . ... : ... .. . ... ... : ... .. . ... ... : ... .. . ... ... : ... .. . ... ...
ROW 5C : ... .. . ... ... ... : ... .. . ... ... ... : ... .. . ... : ... .. . ... : ... .. . ... ... : ... .. . ... ... : ... .. . ... ... : ... .. . ... ...
ROW 5D : ... .. . ... ... ... : ... .. . ... ... ... : ... .. . ... : ... .. . ... : ... .. . ... ... : ... .. . ... ... : ... .. . ... ... : ... .. . ... ...
ROW 5E : ... .. . ... ... ... : ... .. . ... ... ... : ... .. . ... : ... .. . ... : ... .. . ... ... : ... .. . ... ... : ... .. . ... ... : ... .. . ... ...
ROW 5F : ... .. . ... ... ... : ... .. . ... ... ... : ... .. . ... : ... .. . ... : ... .. . ... ... : ... .. . ... ... : ... .. . ... ... : ... .. . ... ...
ROW 60 : ... .. . ... ... ... : ... .. . ... ... ... : ... .. . ... : ... .. . ... : ... .. . ... ... : ... .. . ... ... : ... .. . ... ... : ... .. . ... ...
ROW 61 : ... .. . ... ... ... : ... .. . ... ... ... : ... .. . ... : ... .. . ... : ... .. . ... ... : ... .. . ... ... : ... .. . ... ... : ... .. . ... ...
ROW 62 : ... .. . ... ... ... : ... .. . ... ... ... : ... .. . ... : ... .. . ... : ... .. . ... ... : ... .. . ... ... : ... .. . ... ... : ... .. . ... ...
ROW 63 : ... .. . ... ... ... : ... .. . ... ... ... : ... .. . ... : ... .. . ... : ... .. . ... ... : ... .. . ... ... : ... .. . ... ... : ... .. . ... ...
ROW 64 : ... .. . ... ... ... : ... .. . ... ... ... : ... .. . ... : ... .. . ... : ... .. . ... ... : ... .. . ... ... : ... .. . ... ... : ... .. . ... ...
ROW 65 : ... .. . ... ... ... : ... .. . ... ... ... : ... .. . ... : ... .. . ... : ... .. . ... ... : ... .. . ... ... : ... .. . ... ... : ... .. . ... ...
ROW 66 : ... .. . ... ... ... : ... .. . ... ... ... : ... .. . ... : ... .. . ... : ... .. . ... ... : ... .. . ... ... : ... .. . ... ... : ... .. . ... ...
ROW 67 : ... .. . ... ... ... : ... .. . ... ... ... : ... .. . ... : ... .. . ... : ... .. . ... ... : ... .. . ... ... : ... .. . ... ... : ... .. . ... ...
ROW 68 : ... .. . ... ... ... : ... .. . ... ... ... : ... .. . ... : ... .. . ... : ... .. . ... ... : ... .. . ... ... : ... .. . ... ... : ... .. . ... ...
ROW 69 : ... .. . ... ... ... : ... .. . ... ... ... : ... .. . ... : ... .. . ... : ... .. . ... ... : ... .. . ... ... : ... .. . ... ... : ... .. . ... ...
ROW 6A : ... .. . ... ... ... : ... .. . ... ... ... : ... .. . ... : ... .. . ... : ... .. . ... ... : ... .. . ... ... : ... .. . ... ... : ... .. . ... ...
ROW 6B : ... .. . ... ... ... : ... .. . ... ... ... : ... .. . ... : ... .. . ... : ... .. . ... ... : ... .. . ... ... : ... .. . ... ... : ... .. . ... ...
ROW 6C : ... .. . ... ... ... : ... .. . ... ... ... : ... .. . ... : ... .. . ... : ... .. . ... ... : ... .. . ... ... : ... .. . ... ... : ... .. . ... ...
ROW 6D : ... .. . ... ... ... : ... .. . ... ... ... : ... .. . ... : ... .. . ... : ... .. . ... ... : ... .. . ... ... : ... .. . ... ... : ... .. . ... ...
ROW 6E : ... .. . ... ... ... : ... .. . ... ... ... : ... .. . ... : ... .. . ... : ... .. . ... ... : ... .. . ... ... : ... .. . ... ... : ... .. . ... ...
ROW 6F : ... .. . ... ... ... : ... .. . ... ... ... : ... .. . ... : ... .. . ... : ... .. . ... ... : ... .. . ... ... : ... .. . ... ... : ... .. . ... ...
ROW 70 : ... .. . ... ... ... : ... .. . ... ... ... : ... .. . ... : ... .. . ... : ... .. . ... ... : ... .. . ... ... : ... .. . ... ... : ... .. . ... ...
ROW 71 : ... .. . ... ... ... : ... .. . ... ... ... : ... .. . ... : ... .. . ... : ... .. . ... ... : ... .. . ... ... : ... .. . ... ... : ... .. . ... ...
ROW 72 : ... .. . ... ... ... : ... .. . ... ... ... : ... .. . ... : ... .. . ... : ... .. . ... ... : ... .. . ... ... : ... .. . ... ... : ... .. . ... ...
ROW 73 : ... .. . ... ... ... : ... .. . ... ... ... : ... .. . ... : ... .. . ... : ... .. . ... ... : ... .. . ... ... : ... .. . ... ... : ... .. . ... ...
ROW 74 : ... .. . ... ... ... : ... .. . ... ... ... : ... .. . ... : ... .. . ... : ... .. . ... ... : ... .. . ... ... : ... .. . ... ... : ... .. . ... ...
ROW 75 : ... .. . ... ... ... : ... .. . ... ... ... : ... .. . ... : ... .. . ... : ... .. . ... ... : ... .. . ... ... : ... .. . ... ... : ... .. . ... ...
ROW 76 : ... .. . ... ... ... : ... .. . ... ... ... : ... .. . ... : ... .. . ... : ... .. . ... ... : ... .. . ... ... : ... .. . ... ... : ... .. . ... ...
ROW 77 : ... .. . ... ... ... : ... .. . ... ... ... : ... .. . ... : ... .. . ... : ... .. . ... ... : ... .. . ... ... : ... .. . ... ... : ... .. . ... ...
ROW 78 : ... .. . ... ... ... : ... .. . ... ... ... : ... .. . ... : ... .. . ... : ... .. . ... ... : ... .. . ... ... : ... .. . ... ... : ... .. . ... ...
ROW 79 : ... .. . ... ... ... : ... .. . ... ... ... : ... .. . ... : ... .. . ... : ... .. . ... ... : ... .. . ... ... : ... .. . ... ... : ... .. . ... ...
ROW 7A : ... .. . ... ... ... : ... .. . ... ... ... : ... .. . ... : ... .. . ... : ... .. . ... ... : ... .. . ... ... : ... .. . ... ... : ... .. . ... ...
ROW 7B : ... .. . ... ... ... : ... .. . ... ... ... : ... .. . ... : ... .. . ... : ... .. . ... ... : ... .. . ... ... : ... .. . ... ... : ... .. . ... ...
ROW 7C : ... .. . ... ... ... : ... .. . ... ... ... : ... .. . ... : ... .. . ... : ... .. . ... ... : ... .. . ... ... : ... .. . ... ... : ... .. . ... ...
ROW 7D : ... .. . ... ... ... : ... .. . ... ... ... : ... .. . ... : ... .. . ... : ... .. . ... ... : ... .. . ... ... : ... .. . ... ... : ... .. . ... ...
ROW 7E : ... .. . ... ... ... : ... .. . ... ... ... : ... .. . ... : ... .. . ... : ... .. . ... ... : ... .. . ... ... : ... .. . ... ... : ... .. . ... ...
ROW 7F : ... .. . ... ... ... : ... .. . ... ... ... : ... .. . ... : ... .. . ... : ... .. . ... ... : ... .. . ... ... : ... .. . ... ... : ... .. . ... ...
ROW 80 : ... .. . ... ... ... : ... .. . ... ... ... : ... .. . ... : ... .. . ... : ... .. . ... ... : ... .. . ... ... : ... .. . ... ... : ... .. . ... ...
ROW 81 : ... .. . ... ... ... : ... .. . ... ... ... : ... .. . ... : ... .. . ... : ... .. . ... ... : ... .. . ... ... : ... .. . ... ... : ... .. . ... ...
ROW 82 : ... .. . ... ... ... : ... .. . ... ... ... : ... .. . ... : ... .. . ... : ... .. . ... ... : ... .. . ... ... : ... .. . ... ... : ... .. . ... ...
ROW 83 : ... .. . ... ... ... : ... .. . ... ... ... : ... .. . ... : ... .. . ... : ... .. . ... ... : ... .. . ... ... : ... .. . ... ... : ... .. . ... ...
ROW 84 : ... .. . ... ... ... : ... .. . ... ... ... : ... .. . ... : ... .. . ... : ... .. . ... ... : ... .. . ... ... : ... .. . ... ... : ... .. . ... ...
ROW 85 : ... .. . ... ... ... : ... .. . ... ... ... : ... .. . ... : ... .. . ... : ... .. . ... ... : ... .. . ... ... : ... .. . ... ... : ... .. . ... ...
ROW 86 : ... .. . ... ... ... : ... .. . ... ... ... : ... .. . ... : ... .. . ... : ... .. . ... ... : ... .. . ... ... : ... .. . ... ... : ... .. . ... ...
ROW 87 : ... .. . ... ... ... : ... .. . ... ... ... : ... .. . ... : ... .. . ... : ... .. . ... ... : ... .. . ... ... : ... .. . ... ... : ... .. . ... ...
ROW 88 : ... .. . ... ... ... : ... .. . ... ... ... : ... .. . ... : ... .. . ... : ... .. . ... ... : ... .. . ... ... : ... .. . ... ... : ... .. . ... ...
ROW 89 : ... .. . ... ... ... : ... .. . ... ... ... : ... .. . ... : ... .. . ... : ... .. . ... ... : ... .. . ... ... : ... .. . ... ... : ... .. . ... ...
ROW 8A : ... .. . ... ... ... : ... .. . ... ... ... : ... .. . ... : ... .. . ... : ... .. . ... ... : ... .. . ... ... : ... .. . ... ... : ... .. . ... ...
ROW 8B : ... .. . ... ... ... : ... .. . ... ... ... : ... .. . ... : ... .. . ... : ... .. . ... ... : ... .. . ... ... : ... .. . ... ... : ... .. . ... ...
ROW 8C : ... .. . ... ... ... : ... .. . ... ... ... : ... .. . ... : ... .. . ... : ... .. . ... ... : ... .. . ... ... : ... .. . ... ... : ... .. . ... ...
ROW 8D : ... .. . ... ... ... : ... .. . ... ... ... : ... .. . ... : ... .. . ... : ... .. . ... ... : ... .. . ... ... : ... .. . ... ... : ... .. . ... ...
ROW 8E : ... .. . ... ... ... : ... .. . ... ... ... : ... .. . ... : ... .. . ... : ... .. . ... ... : ... .. . ... ... : ... .. . ... ... : ... .. . ... ...
ROW 8F : ... .. . ... ... ... : ... .. . ... ... ... : ... .. . ... : ... .. . ... : ... .. . ... ... : ... .. . ... ... : ... .. . ... ... : ... .. . ... ...
ROW 90 : ... .. . ... ... ... : ... .. . ... ... ... : ... .. . ... : ... .. . ... : ... .. . ... ... : ... .. . ... ... : ... .. . ... ... : ... .. . ... ...
ROW 91 : ... .. . ... ... ... : ... .. . ... ... ... : ... .. . ... : ... .. . ... : ... .. . ... ... : ... .. . ... ... : ... .. . ... ... : ... .. . ... ...
ROW 92 : ... .. . ... ... ... : ... .. . ... ... ... : ... .. . ... : ... .. . ... : ... .. . ... ... : ... .. . ... ... : ... .. . ... ... : ... .. . ... ...
ROW 93 : ... .. . ... ... ... : ... .. . ... ... ... : ... .. . ... : ... .. . ... : ... .. . ... ... : ... .. . ... ... : ... .. . ... ... : ... .. . ... ...
ROW 94 : ... .. . ... ... ... : ... .. . ... ... ... : ... .. . ... : ... .. . ... : ... .. . ... ... : ... .. . ... ... : ... .. . ... ... : ... .. . ... ...
ROW 95 : ... .. . ... ... ... : ... .. . ... ... ... : ... .. . ... : ... .. . ... : ... .. . ... ... : ... .. . ... ... : ... .. . ... ... : ... .. . ... ...
ROW 96 : ... .. . ... ... ... : ... .. . ... ... ... : ... .. . ... : ... .. . ... : ... .. . ... ... : ... .. . ... ... : ... .. . ... ... : ... .. . ... ...
ROW 97 : ... .. . ... ... ... : ... .. . ... ... ... : ... .. . ... : ... .. . ... : ... .. . ... ... : ... .. . ... ... : ... .. . ... ... : ... .. . ... ...
ROW 98 : ... .. . ... ... ... : ... .. . ... ... ... : ... .. . ... : ... .. . ... : ... .. . ... ... : ... .. . ... ... : ... .. . ... ... : ... .. . ... ...
ROW 99 : ... .. . ... ... ... : ... .. . ... ... ... : ... .. . ... : ... .. . ... : ... .. . ... ... : ... .. . ... ... : ... .. . ... ... : ... .. . ... ...
ROW 9A : ... .. . ... ... ... : ... .. . ... ... ... : ... .. . ... : ... .. . ... : ... .. . ... ... : ... .. . ... ... : ... .. . ... ... : ... .. . ... ...
ROW 9B : ... .. . ... ... ... : ... .. . ... ... ... : ... .. . ... : ... .. . ... : ... .. . ... ... : ... .. . ... ... : ... .. . ... ... : ... .. . ... ...
ROW 9C : ... .. . ... ... ... : ... .. . ... ... ... : ... .. . ... : ... .. . ... : ... .. . ... ... : ... .. . ... ... : ... .. . ... ... : ... .. . ... ...
ROW 9D : ... .. . ... ... ... : ... .. . ... ... ... : ... .. . ... : ... .. . ... : ... .. . ... ... : ... .. . ... ... : ... .. . ... ... : ... .. . ... ...
ROW 9E : ... .. . ... ... ... : ... .. . ... ... ... : ... .. . ... : ... .. . ... : ... .. . ... ... : ... .. . ... ... : ... .. . ... ... : ... .. . ... ...
ROW 9F : ... .. . ... ... ... : ... .. . ... ... ... : ... .. . ... : ... .. . ... : ... .. . ... ... : ... .. . ... ... : ... .. . ... ... : ... .. . ... ...
ROW A0 : ... .. . ... ... ... : ... .. . ... ... ... : ... .. . ... : ... .. . ... : ... .. . ... ... : ... .. . ... ... : ... .. . ... ... : ... .. . ... ...
ROW A1 : ... .. . ... ... ... : ... .. . ... ... ... : ... .. . ... : ... .. . ... : ... .. . ... ... : ... .. . ... ... : ... .. . ... ... : ... .. . ... ...
ROW A2 : ... .. . ... ... ... : ... .. . ... ... ... : ... .. . ... : ... .. . ... : ... .. . ... ... : ... .. . ... ... : ... .. . ... ... : ... .. . ... ...
ROW A3 : ... .. . ... ... ... : ... .. . ... ... ... : ... .. . ... : ... .. . ... : ... .. . ... ... : ... .. . ... ... : ... .. . ... ... : ... .. . ... ...
ROW A4 : ... .. . ... ... ... : ... .. . ... ... ... : ... .. . ... : ... .. . ... : ... .. . ... ... : ... .. . ... ... : ... .. . ... ... : ... .. . ... ...
ROW A5 : ... .. . ... ... ... : ... .. . ... ... ... : ... .. . ... : ... .. . ... : ... .. . ... ... : ... .. . ... ... : ... .. . ... ... : ... .. . ... ...
ROW A6 : ... .. . ... ... ... : ... .. . ... ... ... : ... .. . ... : ... .. . ... : ... .. . ... ... : ... .. . ... ... : ... .. . ... ... : ... .. . ... ...
ROW A7 : ... .. . ... ... ... : ... .. . ... ... ... : ... .. . ... : ... .. . ... : ... .. . ... ... : ... .. . ... ... : ... .. . ... ... : ... .. . ... ...
ROW A8 : ... .. . ... ... ... : ... .. . ... ... ... : ... .. . ... : ... .. . ... : ... .. . ... ... : ... .. . ... ... : ... .. . ... ... : ... .. . ... ...
ROW A9 : ... .. . ... ... ... : ... .. . ... ... ... : ... .. . ... : ... .. . ... : ... .. . ... ... : ... .. . ... ... : ... .. . ... ... : ... .. . ... ...
ROW AA : ... .. . ... ... ... : ... .. . ... ... ... : ... .. . ... : ... .. . ... : ... .. . ... ... : ... .. . ... ... : ... .. . ... ... : ... .. . ... ...
ROW AB : ... .. . ... ... ... : ... .. . ... ... ... : ... .. . ... : ... .. . ... : ... .. . ... ... : ... .. . ... ... : ... .. . ... ... : ... .. . ... ...
ROW AC : ... .. . ... ... ... : ... .. . ... ... ... : ... .. . ... : ... .. . ... : ... .. . ... ... : ... .. . ... ... : ... .. . ... ... : ... .. . ... ...
ROW AD : ... .. . ... ... ... : ... .. . ... ... ... : ... .. . ... : ... .. . ... : ... .. . ... ... : ... .. . ... ... : ... .. . ... ... : ... .. . ... ...
ROW AE : ... .. . ... ... ... : ... .. . ... ... ... : ... .. . ... : ... .. . ... : ... .. . ... ... : ... .. . ... ... : ... .. . ... ... : ... .. . ... ...
ROW AF : ... .. . ... ... ... : ... .. . ... ... ... : ... .. . ... : ... .. . ... : ... .. . ... ... : ... .. . ... ... : ... .. . ... ... : ... .. . ... ...
ROW B0 : ... .. . ... ... ... : ... .. . ... ... ... : ... .. . ... : ... .. . ... : ... .. . ... ... : ... .. . ... ... : ... .. . ... ... : ... .. . ... ...
ROW B1 : ... .. . ... ... ... : ... .. . ... ... ... : ... .. . ... : ... .. . ... : ... .. . ... ... : ... .. . ... ... : ... .. . ... ... : ... .. . ... ...
ROW B2 : ... .. . ... ... ... : ... .. . ... ... ... : ... .. . ... : ... .. . ... : ... .. . ... ... : ... .. . ... ... : ... .. . ... ... : ... .. . ... ...
ROW B3 : ... .. . ... ... ... : ... .. . ... ... ... : ... .. . ... : ... .. . ... : ... .. . ... ... : ... .. . ... ... : ... .. . ... ... : ... .. . ... ...
ROW B4 : ... .. . ... ... ... : ... .. . ... ... ... : ... .. . ... : ... .. . ... : ... .. . ... ... : ... .. . ... ... : ... .. . ... ... : ... .. . ... ...
ROW B5 : ... .. . ... ... ... : ... .. . ... ... ... : ... .. . ... : ... .. . ... : ... .. . ... ... : ... .. . ... ... : ... .. . ... ... : ... .. . ... ...
ROW B6 : ... .. . ... ... ... : ... .. . ... ... ... : ... .. . ... : ... .. . ... : ... .. . ... ... : ... .. . ... ... : ... .. . ... ... : ... .. . ... ...
ROW B7 : ... .. . ... ... ... : ... .. . ... ... ... : ... .. . ... : ... .. . ... : ... .. . ... ... : ... .. . ... ... : ... .. . ... ... : ... .. . ... ...
ROW B8 : ... .. . ... ... ... : ... .. . ... ... ... : ... .. . ... : ... .. . ... : ... .. . ... ... : ... .. . ... ... : ... .. . ... ... : ... .. . ... ...
ROW B9 : ... .. . ... ... ... : ... .. . ... ... ... : ... .. . ... : ... .. . ... : ... .. . ... ... : ... .. . ... ... : ... .. . ... ... : ... .. . ... ...
ROW BA : ... .. . ... ... ... : ... .. . ... ... ... : ... .. . ... : ... .. . ... : ... .. . ... ... : ... .. . ... ... : ... .. . ... ... : ... .. . ... ...
ROW BB : ... .. . ... ... ... : ... .. . ... ... ... : ... .. . ... : ... .. . ... : ... .. . ... ... : ... .. . ... ... : ... .. . ... ... : ... .. . ... ...
ROW BC : ... .. . ... ... ... : ... .. . ... ... ... : ... .. . ... : ... .. . ... : ... .. . ... ... : ... .. . ... ... : ... .. . ... ... : ... .. . ... ...
ROW BD : ... .. . ... ... ... : ... .. . ... ... ... : ... .. . ... : ... .. . ... : ... .. . ... ... : ... .. . ... ... : ... .. . ... ... : ... .. . ... ...
ROW BE : ... .. . ... ... ... : ... .. . ... ... ... : ... .. . ... : ... .. . ... : ... .. . ... ... : ... .. . ... ... : ... .. . ... ... : ... .. . ... ...
ROW BF : ... .. . ... ... ... : ... .. . ... ... ... : ... .. . ... : ... .. . ... : ... .. . ... ... : ... .. . ... ... : ... .. . ... ... : ... .. . ... ...
ROW C0 : ... .. . ... ... ... : ... .. . ... ... ... : ... .. . ... : ... .. . ... : ... .. . ... ... : ... .. . ... ... : ... .. . ... ... : ... .. . ... ...
ROW C1 : ... .. . ... ... ... : ... .. . ... ... ... : ... .. . ... : ... .. . ... : ... .. . ... ... : ... .. . ... ... : ... .. . ... ... : ... .. . ... ...
ROW C2 : ... .. . ... ... ... : ... .. . ... ... ... : ... .. . ... : ... .. . ... : ... .. . ... ... : ... .. . ... ... : ... .. . ... ... : ... .. . ... ...
ROW C3 : ... .. . ... ... ... : ... .. . ... ... ... : ... .. . ... : ... .. . ... : ... .. . ... ... : ... .. . ... ... : ... .. . ... ... : ... .. . ... ...
ROW C4 : ... .. . ... ... ... : ... .. . ... ... ... : ... .. . ... : ... .. . ... : ... .. . ... ... : ... .. . ... ... : ... .. . ... ... : ... .. . ... ...
ROW C5 : ... .. . ... ... ... : ... .. . ... ... ... : ... .. . ... : ... .. . ... : ... .. . ... ... : ... .. . ... ... : ... .. . ... ... : ... .. . ... ...
ROW C6 : ... .. . ... ... ... : ... .. . ... ... ... : ... .. . ... : ... .. . ... : ... .. . ... ... : ... .. . ... ... : ... .. . ... ... : ... .. . ... ...
ROW C7 : ... .. . ... ... ... : ... .. . ... ... ... : ... .. . ... : ... .. . ... : ... .. . ... ... : ... .. . ... ... : ... .. . ... ... : ... .. . ... ...
ROW C8 : ... .. . ... ... ... : ... .. . ... ... ... : ... .. . ... : ... .. . ... : ... .. . ... ... : ... .. . ... ... : ... .. . ... ... : ... .. . ... ...
ROW C9 : ... .. . ... ... ... : ... .. . ... ... ... : ... .. . ... : ... .. . ... : ... .. . ... ... : ... .. . ... ... : ... .. . ... ... : ... .. . ... ...
ROW CA : ... .. . ... ... ... : ... .. . ... ... ... : ... .. . ... : ... .. . ... : ... .. . ... ... : ... .. . ... ... : ... .. . ... ... : ... .. . ... ...
ROW CB : ... .. . ... ... ... : ... .. . ... ... ... : ... .. . ... : ... .. . ... : ... .. . ... ... : ... .. . ... ... : ... .. . ... ... : ... .. . ... ...
ROW CC : ... .. . ... ... ... : ... .. . ... ... ... : ... .. . ... : ... .. . ... : ... .. . ... ... : ... .. . ... ... : ... .. . ... ... : ... .. . ... ...
ROW CD : ... .. . ... ... ... : ... .. . ... ... ... : ... .. . ... : ... .. . ... : ... .. . ... ... : ... .. . ... ... : ... .. . ... ... : ... .. . ... ...
ROW CE : ... .. . ... ... ... : ... .. . ... ... ... : ... .. . ... : ... .. . ... : ... .. . ... ... : ... .. . ... ... : ... .. . ... ... : ... .. . ... ...
ROW CF : ... .. . ... ... ... : ... .. . ... ... ... : ... .. . ... : ... .. . ... : ... .. . ... ... : ... .. . ... ... : ... .. . ... ... : ... .. . ... ...
ROW D0 : ... .. . ... ... ... : ... .. . ... ... ... : ... .. . ... : ... .. . ... : ... .. . ... ... : ... .. . ... ... : ... .. . ... ... : ... .. . ... ...
ROW D1 : ... .. . ... ... ... : ... .. . ... ... ... : ... .. . ... : ... .. . ... : ... .. . ... ... : ... .. . ... ... : ... .. . ... ... : ... .. . ... ...
ROW D2 : ... .. . ... ... ... : ... .. . ... ... ... : ... .. . ... : ... .. . ... : ... .. . ... ... : ... .. . ... ... : ... .. . ... ... : ... .. . ... ...
ROW D3 : ... .. . ... ... ... : ... .. . ... ... ... : ... .. . ... : ... .. . ... : ... .. . ... ... : ... .. . ... ... : ... .. . ... ... : ... .. . ... ...
ROW D4 : ... .. . ... ... ... : ... .. . ... ... ... : ... .. . ... : ... .. . ... : ... .. . ... ... : ... .. . ... ... : ... .. . ... ... : ... .. . ... ...
ROW D5 : ... .. . ... ... ... : ... .. . ... ... ... : ... .. . ... : ... .. . ... : ... .. . ... ... : ... .. . ... ... : ... .. . ... ... : ... .. . ... ...
ROW D6 : ... .. . ... ... ... : ... .. . ... ... ... : ... .. . ... : ... .. . ... : ... .. . ... ... : ... .. . ... ... : ... .. . ... ... : ... .. . ... ...
ROW D7 : ... .. . ... ... ... : ... .. . ... ... ... : ... .. . ... : ... .. . ... : ... .. . ... ... : ... .. . ... ... : ... .. . ... ... : ... .. . ... ...
ROW D8 : ... .. . ... ... ... : ... .. . ... ... ... : ... .. . ... : ... .. . ... : ... .. . ... ... : ... .. . ... ... : ... .. . ... ... : ... .. . ... ...
ROW D9 : ... .. . ... ... ... : ... .. . ... ... ... : ... .. . ... : ... .. . ... : ... .. . ... ... : ... .. . ... ... : ... .. . ... ... : ... .. . ... ...
ROW DA : ... .. . ... ... ... : ... .. . ... ... ... : ... .. . ... : ... .. . ... : ... .. . ... ... : ... .. . ... ... : ... .. . ... ... : ... .. . ... ...
ROW DB : ... .. . ... ... ... : ... .. . ... ... ... : ... .. . ... : ... .. . ... : ... .. . ... ... : ... .. . ... ... : ... .. . ... ... : ... .. . ... ...
ROW DC : ... .. . ... ... ... : ... .. . ... ... ... : ... .. . ... : ... .. . ... : ... .. . ... ... : ... .. . ... ... : ... .. . ... ... : ... .. . ... ...
ROW DD : ... .. . ... ... ... : ... .. . ... ... ... : ... .. . ... : ... .. . ... : ... .. . ... ... : ... .. . ... ... : ... .. . ... ... : ... .. . ... ...
ROW DE : ... .. . ... ... ... : ... .. . ... ... ... : ... .. . ... : ... .. . ... : ... .. . ... ... : ... .. . ... ... : ... .. . ... ... : ... .. . ... ...
ROW DF : ... .. . ... ... ... : ... .. . ... ... ... : ... .. . ... : ... .. . ... : ... .. . ... ... : ... .. . ... ... : ... .. . ... ... : ... .. . ... ...
ROW E0 : ... .. . ... ... ... : ... .. . ... ... ... : ... .. . ... : ... .. . ... : ... .. . ... ... : ... .. . ... ... : ... .. . ... ... : ... .. . ... ...
ROW E1 : ... .. . ... ... ... : ... .. . ... ... ... : ... .. . ... : ... .. . ... : ... .. . ... ... : ... .. . ... ... : ... .. . ... ... : ... .. . ... ...
ROW E2 : ... .. . ... ... ... : ... .. . ... ... ... : ... .. . ... : ... .. . ... : ... .. . ... ... : ... .. . ... ... : ... .. . ... ... : ... .. . ... ...
ROW E3 : ... .. . ... ... ... : ... .. . ... ... ... : ... .. . ... : ... .. . ... : ... .. . ... ... : ... .. . ... ... : ... .. . ... ... : ... .. . ... ...
ROW E4 : ... .. . ... ... ... : ... .. . ... ... ... : ... .. . ... : ... .. . ... : ... .. . ... ... : ... .. . ... ... : ... .. . ... ... : ... .. . ... ...
ROW E5 : ... .. . ... ... ... : ... .. . ... ... ... : ... .. . ... : ... .. . ... : ... .. . ... ... : ... .. . ... ... : ... .. . ... ... : ... .. . ... ...
ROW E6 : ... .. . ... ... ... : ... .. . ... ... ... : ... .. . ... : ... .. . ... : ... .. . ... ... : ... .. . ... ... : ... .. . ... ... : ... .. . ... ...
ROW E7 : ... .. . ... ... ... : ... .. . ... ... ... : ... .. . ... : ... .. . ... : ... .. . ... ... : ... .. . ... ... : ... .. . ... ... : ... .. . ... ...
ROW E8 : ... .. . ... ... ... : ... .. . ... ... ... : ... .. . ... : ... .. . ... : ... .. . ... ... : ... .. . ... ... : ... .. . ... ... : ... .. . ... ...
ROW E9 : ... .. . ... ... ... : ... .. . ... ... ... : ... .. . ... : ... .. . ... : ... .. . ... ... : ... .. . ... ... : ... .. . ... ... : ... .. . ... ...
ROW EA : ... .. . ... ... ... : ... .. . ... ... ... : ... .. . ... : ... .. . ... : ... .. . ... ... : ... .. . ... ... : ... .. . ... ... : ... .. . ... ...
ROW EB : ... .. . ... ... ... : ... .. . ... ... ... : ... .. . ... : ... .. . ... : ... .. . ... ... : ... .. . ... ... : ... .. . ... ... : ... .. . ... ...
ROW EC : ... .. . ... ... ... : ... .. . ... ... ... : ... .. . ... : ... .. . ... : ... .. . ... ... : ... .. . ... ... : ... .. . ... ... : ... .. . ... ...
ROW ED : ... .. . ... ... ... : ... .. . ... ... ... : ... .. . ... : ... .. . ... : ... .. . ... ... : ... .. . ... ... : ... .. . ... ... : ... .. . ... ...
ROW EE : ... .. . ... ... ... : ... .. . ... ... ... : ... .. . ... : ... .. . ... : ... .. . ... ... : ... .. . ... ... : ... .. . ... ... : ... .. . ... ...
ROW EF : ... .. . ... ... ... : ... .. . ... ... ... : ... .. . ... : ... .. . ... : ... .. . ... ... : ... .. . ... ... : ... .. . ... ... : ... .. . ... ...
ROW F0 : ... .. . ... ... ... : ... .. . ... ... ... : ... .. . ... : ... .. . ... : ... .. . ... ... : ... .. . ... ... : ... .. . ... ... : ... .. . ... ...
ROW F1 : ... .. . ... ... ... : ... .. . ... ... ... : ... .. . ... : ... .. . ... : ... .. . ... ... : ... .. . ... ... : ... .. . ... ... : ... .. . ... ...
ROW F2 : ... .. . ... ... ... : ... .. . ... ... ... : ... .. . ... : ... .. . ... : ... .. . ... ... : ... .. . ... ... : ... .. . ... ... : ... .. . ... ...
ROW F3 : ... .. . ... ... ... : ... .. . ... ... ... : ... .. . ... : ... .. . ... : ... .. . ... ... : ... .. . ... ... : ... .. . ... ... : ... .. . ... ...
ROW F4 : ... .. . ... ... ... : ... .. . ... ... ... : ... .. . ... : ... .. . ... : ... .. . ... ... : ... .. . ... ... : ... .. . ... ... : ... .. . ... ...
ROW F5 : ... .. . ... ... ... : ... .. . ... ... ... : ... .. . ... : ... .. . ... : ... .. . ... ... : ... .. . ... ... : ... .. . ... ... : ... .. . ... ...
ROW F6 : ... .. . ... ... ... : ... .. . ... ... ... : ... .. . ... : ... .. . ... : ... .. . ... ... : ... .. . ... ... : ... .. . ... ... : ... .. . ... ...
ROW F7 : ... .. . ... ... ... : ... .. . ... ... ... : ... .. . ... : ... .. . ... : ... .. . ... ... : ... .. . ... ... : ... .. . ... ... : ... .. . ... ...
ROW F8 : ... .. . ... ... ... : ... .. . ... ... ... : ... .. . ... : ... .. . ... : ... .. . ... ... : ... .. . ... ... : ... .. . ... ... : ... .. . ... ...
ROW F9 : ... .. . ... ... ... : ... .. . ... ... ... : ... .. . ... : ... .. . ... : ... .. . ... ... : ... .. . ... ... : ... .. . ... ... : ... .. . ... ...
ROW FA : ... .. . ... ... ... : ... .. . ... ... ... : ... .. . ... : ... .. . ... : ... .. . ... ... : ... .. . ... ... : ... .. . ... ... : ... .. . ... ...
ROW FB : ... .. . ... ... ... : ... .. . ... ... ... : ... .. . ... : ... .. . ... : ... .. . ... ... : ... .. . ... ... : ... .. . ... ... : ... .. . ... ...
ROW FC : ... .. . ... ... ... : ... .. . ... ... ... : ... .. . ... : ... .. . ... : ... .. . ... ... : ... .. . ... ... : ... .. . ... ... : ... .. . ... ...
ROW FD : ... .. . ... ... ... : ... .. . ... ... ... : ... .. . ... : ... .. . ... : ... .. . ... ... : ... .. . ... ... : ... .. . ... ... : ... .. . ... ...
ROW FE : ... .. . ... ... ... : ... .. . ... ... ... : ... .. . ... : ... .. . ... : ... .. . ... ... : ... .. . ... ... : ... .. . ... ... : ... .. . ... ...
ROW FF : ... .. . ... ... ... : ... .. . ... ... ... : ... .. . ... : ... .. . ... : ... .. . ... ... : ... .. . ... ... : ... .. . ... ... : ... .. . ... ...

# End of export
