# FamiTracker text export 0.4.2

# Song information
TITLE           "Shovel Knight OST"
AUTHOR          "Jake Kaufman"
COPYRIGHT       ""

# Song comment
COMMENT ""

# Global settings
MACHINE         0
FRAMERATE       0
EXPANSION       1
VIBRATO         1
SPLIT           21

# Macros

# DPCM samples

# Instruments
INST2A03   0    -1  -1  -1  -1  -1 "blank"
INSTVRC6   1    -1  -1  -1  -1  -1 "blank"

# Tracks

TRACK 256   1 150 "New song"
COLUMNS : 3 3 1 1 2 2 2 2

ORDER 00 : 00 00 00 00 00 00 00 00
ORDER 01 : 01 01 01 01 01 01 01 01
ORDER 02 : 02 02 02 02 02 02 02 02
ORDER 03 : 03 03 03 03 03 03 03 03
ORDER 04 : 04 04 04 04 04 04 04 04
ORDER 05 : 05 05 05 05 05 05 05 05
ORDER 06 : 06 06 06 06 06 06 06 06
ORDER 07 : 07 07 07 07 07 07 07 07
ORDER 08 : 08 08 08 08 08 08 08 08
ORDER 09 : 09 09 09 09 09 09 09 09
ORDER 0A : 0A 0A 0A 0A 0A 0A 0A 0A
ORDER 0B : 0B 0B 0B 0B 0B 0B 0B 0B
ORDER 0C : 0C 0C 0C 0C 0C 0C 0C 0C
ORDER 0D : 0D 0D 0D 0D 0D 0D 0D 0D
ORDER 0E : 0E 0E 0E 0E 0E 0E 0E 0E
ORDER 0F : 0F 0F 0F 0F 0F 0F 0F 0F
ORDER 10 : 10 10 10 10 10 10 10 10
ORDER 11 : 11 11 11 11 11 11 11 11
ORDER 12 : 12 12 12 12 12 12 12 12
ORDER 13 : 13 13 13 13 13 13 13 13
ORDER 14 : 14 14 14 14 14 14 14 14
ORDER 15 : 15 15 15 15 15 15 15 15
ORDER 16 : 16 16 16 16 16 16 16 16
ORDER 17 : 17 17 17 17 17 17 17 17
ORDER 18 : 18 18 18 18 18 18 18 18
ORDER 19 : 19 19 19 19 19 19 19 19
ORDER 1A : 1A 1A 1A 1A 1A 1A 1A 1A
ORDER 1B : 1B 1B 1B 1B 1B 1B 1B 1B
ORDER 1C : 1C 1C 1C 1C 1C 1C 1C 1C

PATTERN 00
ROW 00 : D#5 00 F P80 V00 ... : D#5 00 A P80 V00 ... : D-5 00 . P80 : A-# 00 F V00 : === 00 . Z00 ... : D#2 01 A P7F V03 : G#2 01 A P81 V03 : A#2 01 F P7F V00
ROW 01 : ... .. E ... ... ... : ... .. 8 ... ... ... : E-4 00 . ... : ... .. . ... : ... .. . ... ... : ... .. 9 ... ... : ... .. 9 ... ... : ... .. D ... ...
ROW 02 : ... .. D ... ... ... : ... .. . ... ... ... : A-3 00 . ... : ... .. . ... : ... .. . ... ... : ... .. 8 ... ... : ... .. 8 ... ... : ... .. 8 ... ...
ROW 03 : ... .. A ... ... ... : ... .. . ... ... ... : G#3 00 . ... : ... .. E ... : ... .. . ... ... : ... .. 7 ... ... : ... .. 7 ... ... : ... .. . ... ...
ROW 04 : ... .. . ... ... ... : A#4 00 A ... ... ... : D#3 00 . ... : ... .. . ... : ... .. . ... ... : ... .. . ... ... : ... .. . ... ... : ... .. . ... ...
ROW 05 : ... .. . ... ... ... : ... .. 8 ... ... ... : ... .. . ... : ... .. . ... : ... .. . ... ... : ... .. 6 ... ... : ... .. 6 ... ... : ... .. . ... ...
ROW 06 : A#4 00 F ... ... ... : ... .. . ... ... ... : ... .. . ... : ... .. . ... : ... .. . ... ... : ... .. . ... ... : ... .. . ... ... : ... .. . ... ...
ROW 07 : ... .. E ... ... ... : ... .. . ... ... ... : ... .. . ... : ... .. . ... : ... .. . ... ... : ... .. 5 ... ... : ... .. 5 ... ... : ... .. . ... ...
ROW 08 : ... .. D ... ... ... : G#4 00 A ... ... ... : ... .. . ... : ... .. . ... : ... .. . ... ... : ... .. . ... ... : ... .. . ... ... : ... .. . ... ...
ROW 09 : D#5 00 8 ... ... ... : ... .. 8 ... ... ... : ... .. . ... : ... .. . ... : ... .. . ... ... : ... .. . ... ... : ... .. . ... ... : ... .. . ... ...
ROW 0A : ... .. 7 ... ... ... : ... .. . ... ... ... : ... .. . ... : ... .. . ... : ... .. . ... ... : ... .. . ... ... : ... .. . ... ... : ... .. . ... ...
ROW 0B : ... .. 6 ... ... ... : ... .. . ... ... ... : ... .. . ... : ... .. . ... : ... .. . ... ... : ... .. . ... ... : ... .. . ... ... : ... .. . ... ...
ROW 0C : G#4 00 F ... ... ... : D#4 00 A ... ... ... : ... .. . ... : 8-# 00 E ... : ... .. . ... ... : ... .. . ... ... : ... .. . ... ... : ... .. . ... ...
ROW 0D : ... .. E ... ... ... : ... .. 8 ... ... ... : ... .. . ... : ... .. . ... : ... .. . ... ... : ... .. . ... ... : ... .. . ... ... : ... .. . ... ...
ROW 0E : ... .. D ... ... ... : ... .. . ... ... ... : ... .. . ... : ... .. . ... : ... .. . ... ... : ... .. . ... ... : ... .. . ... ... : ... .. . ... ...
ROW 0F : A#4 00 8 ... ... ... : ... .. . ... ... ... : ... .. . ... : ... .. . ... : ... .. . ... ... : ... .. . ... ... : ... .. . ... ... : ... .. . ... ...
ROW 10 : ... .. 7 ... ... ... : A#3 00 A ... ... ... : ... .. . ... : ... .. . ... : ... .. . ... ... : ... .. . ... ... : ... .. . ... ... : ... .. . ... ...
ROW 11 : ... .. 6 ... ... ... : ... .. 8 ... ... ... : ... .. . ... : ... .. . ... : ... .. . ... ... : ... .. . ... ... : ... .. . ... ... : ... .. . ... ...
ROW 12 : D#4 00 F ... ... ... : ... .. . ... ... ... : ... .. . ... : ... .. . ... : ... .. . ... ... : ... .. . ... ... : ... .. . ... ... : ... .. . ... ...
ROW 13 : ... .. E ... ... ... : ... .. . ... ... ... : ... .. . ... : ... .. . ... : ... .. . ... ... : ... .. . ... ... : ... .. . ... ... : ... .. . ... ...
ROW 14 : ... .. D ... ... ... : G#3 00 A ... ... ... : ... .. . ... : ... .. . ... : ... .. . ... ... : ... .. . ... ... : ... .. . ... ... : ... .. . ... ...
ROW 15 : G#4 00 8 ... ... ... : ... .. 8 ... ... ... : ... .. . ... : ... .. . ... : ... .. . ... ... : ... .. . ... ... : ... .. . ... ... : ... .. . ... ...
ROW 16 : ... .. 7 ... ... ... : ... .. . ... ... ... : ... .. . ... : ... .. . ... : ... .. . ... ... : ... .. . ... ... : ... .. . ... ... : ... .. . ... ...
ROW 17 : ... .. 6 ... ... ... : ... .. . ... ... ... : ... .. . ... : ... .. . ... : ... .. . ... ... : ... .. . ... ... : ... .. . ... ... : ... .. . ... ...
ROW 18 : A#3 00 F ... ... ... : D#3 00 A ... ... ... : D-3 00 . P75 : 7-# 00 E ... : ... .. . ... ... : ... .. . ... ... : ... .. . ... ... : ... .. . ... ...
ROW 19 : ... .. E ... ... ... : ... .. 8 ... ... ... : C-3 00 . P84 : ... .. . ... : ... .. . ... ... : ... .. . ... ... : ... .. . ... ... : ... .. . ... ...
ROW 1A : ... .. D ... ... ... : ... .. . ... ... ... : B-2 00 . P7D : ... .. . ... : ... .. . ... ... : ... .. . ... ... : ... .. . ... ... : ... .. . ... ...
ROW 1B : D#4 00 8 ... ... ... : ... .. . ... ... ... : A#2 00 . P78 : ... .. . ... : ... .. . ... ... : ... .. . ... ... : ... .. . ... ... : ... .. . ... ...
ROW 1C : ... .. 7 ... ... ... : A#2 00 A ... ... ... : A-2 00 . P74 : ... .. . ... : ... .. . ... ... : ... .. . ... ... : ... .. . ... ... : ... .. . ... ...
ROW 1D : ... .. 6 ... ... ... : ... .. 8 ... ... ... : G#2 00 . P73 : ... .. . ... : ... .. . ... ... : ... .. . ... ... : ... .. . ... ... : ... .. . ... ...
ROW 1E : G#3 00 F ... ... ... : ... .. . ... ... ... : G-2 00 . ... : ... .. D ... : ... .. . ... ... : ... .. . ... ... : ... .. . ... ... : ... .. . ... ...
ROW 1F : ... .. E ... ... ... : ... .. . ... ... ... : F#2 00 . P75 : ... .. . ... : ... .. . ... ... : ... .. . ... ... : ... .. . ... ... : ... .. 4 ... ...
ROW 20 : ... .. D ... ... ... : G#2 00 A ... ... ... : F-2 00 . P79 : ... .. . ... : ... .. . ... ... : ... .. 3 ... ... : ... .. 3 ... ... : ... .. . ... ...
ROW 21 : A#3 00 8 ... ... ... : ... .. 8 ... ... ... : E-2 00 . P7F : ... .. . ... : ... .. . ... ... : ... .. . ... ... : ... .. . ... ... : ... .. 1 ... ...
ROW 22 : ... .. 7 ... ... ... : ... .. . ... ... ... : D#2 00 . P87 : ... .. . ... : ... .. . ... ... : ... .. . ... ... : ... .. . ... ... : ... .. . ... ...
ROW 23 : ... .. 6 ... ... ... : ... .. . ... ... ... : D-2 00 . P92 : ... .. . ... : ... .. . ... ... : ... .. . ... ... : ... .. . ... ... : ... .. . ... ...
ROW 24 : E-5 00 F ... ... ... : E-5 00 A ... ... ... : D-4 00 . P80 : 5-# 00 D ... : ... .. . ... ... : E-2 01 A ... ... : A-2 01 A ... ... : B-2 01 F ... ...
ROW 25 : ... .. E ... ... ... : ... .. 8 ... ... ... : E-3 00 . ... : ... .. . ... : ... .. . ... ... : ... .. 9 ... ... : ... .. 9 ... ... : ... .. D ... ...
ROW 26 : ... .. D ... ... ... : ... .. . ... ... ... : A-2 00 . ... : ... .. . ... : ... .. . ... ... : ... .. 8 ... ... : ... .. 8 ... ... : ... .. 8 ... ...
ROW 27 : G#3 00 8 ... ... ... : ... .. . ... ... ... : G#2 00 . ... : ... .. . ... : ... .. . ... ... : ... .. 7 ... ... : ... .. 7 ... ... : ... .. . ... ...
ROW 28 : ... .. 7 ... ... ... : B-4 00 A ... ... ... : D#2 00 . ... : ... .. . ... : ... .. . ... ... : ... .. . ... ... : ... .. . ... ... : ... .. . ... ...
ROW 29 : ... .. 6 ... ... ... : ... .. 8 ... ... ... : ... .. . ... : ... .. . ... : ... .. . ... ... : ... .. 6 ... ... : ... .. 6 ... ... : ... .. . ... ...
ROW 2A : B-4 00 F ... ... ... : ... .. . ... ... ... : ... .. . ... : ... .. . ... : ... .. . ... ... : ... .. . ... ... : ... .. . ... ... : ... .. . ... ...
ROW 2B : ... .. E ... ... ... : ... .. . ... ... ... : ... .. . ... : ... .. . ... : ... .. . ... ... : ... .. 5 ... ... : ... .. 5 ... ... : ... .. . ... ...
ROW 2C : ... .. D ... ... ... : A-4 00 A ... ... ... : ... .. . ... : ... .. . ... : ... .. . ... ... : ... .. . ... ... : ... .. . ... ... : ... .. . ... ...
ROW 2D : E-5 00 8 ... ... ... : ... .. 8 ... ... ... : ... .. . ... : ... .. . ... : ... .. . ... ... : ... .. . ... ... : ... .. . ... ... : ... .. . ... ...
ROW 2E : ... .. 7 ... ... ... : ... .. . ... ... ... : ... .. . ... : ... .. . ... : ... .. . ... ... : ... .. . ... ... : ... .. . ... ... : ... .. . ... ...
ROW 2F : ... .. 6 ... ... ... : ... .. . ... ... ... : ... .. . ... : ... .. . ... : ... .. . ... ... : ... .. . ... ... : ... .. . ... ... : ... .. . ... ...
ROW 30 : A-4 00 F ... ... ... : E-4 00 A ... ... ... : D-2 00 . P7B : 3-# 00 D ... : ... .. . ... ... : ... .. . ... ... : ... .. . ... ... : ... .. . ... ...
ROW 31 : ... .. E ... ... ... : ... .. 8 ... ... ... : C#2 00 . P78 : ... .. . ... : ... .. . ... ... : ... .. . ... ... : ... .. . ... ... : ... .. . ... ...
ROW 32 : ... .. D ... ... ... : ... .. . ... ... ... : C-2 00 . ... : ... .. . ... : ... .. . ... ... : ... .. . ... ... : ... .. . ... ... : ... .. . ... ...
ROW 33 : B-4 00 8 ... ... ... : ... .. . ... ... ... : B-1 00 . P7B : ... .. . ... : ... .. . ... ... : ... .. . ... ... : ... .. . ... ... : ... .. . ... ...
ROW 34 : ... .. 7 ... ... ... : B-3 00 A ... ... ... : A#1 00 . P81 : ... .. . ... : ... .. . ... ... : ... .. . ... ... : ... .. . ... ... : ... .. . ... ...
ROW 35 : ... .. 6 ... ... ... : ... .. 8 ... ... ... : A-1 00 . P8A : ... .. . ... : ... .. . ... ... : ... .. . ... ... : ... .. . ... ... : ... .. . ... ...
ROW 36 : E-4 00 F ... ... ... : ... .. . ... ... ... : G#1 00 . P96 : ... .. . ... : ... .. . ... ... : ... .. . ... ... : ... .. . ... ... : ... .. . ... ...
ROW 37 : ... .. E ... ... ... : ... .. . ... ... ... : ... .. . P66 : ... .. . ... : ... .. . ... ... : ... .. . ... ... : ... .. . ... ... : ... .. . ... ...
ROW 38 : ... .. D ... ... ... : A-3 00 A ... ... ... : G-1 00 . P76 : ... .. . ... : ... .. . ... ... : ... .. . ... ... : ... .. . ... ... : ... .. . ... ...
ROW 39 : A-4 00 8 ... ... ... : ... .. 8 ... ... ... : F#1 00 . P8A : ... .. . ... : ... .. . ... ... : ... .. . ... ... : ... .. . ... ... : ... .. . ... ...
ROW 3A : ... .. 7 ... ... ... : ... .. . ... ... ... : F-1 00 . PA2 : ... .. . ... : ... .. . ... ... : ... .. . ... ... : ... .. . ... ... : ... .. . ... ...
ROW 3B : ... .. 6 ... ... ... : ... .. . ... ... ... : ... .. . P72 : ... .. . ... : ... .. . ... ... : ... .. . ... ... : ... .. . ... ... : ... .. . ... ...
ROW 3C : B-3 00 F ... ... ... : E-3 00 A ... ... ... : C#2 00 . P80 : 1-# 00 C ... : ... .. . ... ... : ... .. . ... ... : ... .. . ... ... : ... .. . ... ...
ROW 3D : ... .. E ... ... ... : ... .. 8 ... ... ... : ... .. . ... : ... .. . ... : ... .. . ... ... : ... .. . ... ... : ... .. . ... ... : ... .. . ... ...
ROW 3E : ... .. D ... ... ... : ... .. . ... ... ... : ... .. . ... : ... .. . ... : ... .. . ... ... : ... .. . ... ... : ... .. . ... ... : ... .. . ... ...
ROW 3F : E-4 00 8 ... ... ... : ... .. . ... ... ... : ... .. . ... : ... .. . ... : ... .. . ... ... : ... .. . ... ... : ... .. . ... ... : ... .. . ... ...
ROW 40 : ... .. 7 ... ... ... : B-2 00 A ... ... ... : ... .. . ... : ... .. . ... : ... .. . ... ... : ... .. . ... ... : ... .. . ... ... : ... .. . ... ...
ROW 41 : ... .. 6 ... ... ... : ... .. 8 ... ... ... : --- .. . ... : ... .. . ... : ... .. . ... ... : ... .. . ... ... : ... .. . ... ... : ... .. . ... ...
ROW 42 : A-3 00 F ... ... ... : ... .. . ... ... ... : A#1 00 . ... : ... .. . ... : ... .. . ... ... : ... .. . ... ... : ... .. . ... ... : ... .. . ... ...
ROW 43 : ... .. E ... ... ... : ... .. . ... ... ... : ... .. . ... : ... .. . ... : ... .. . ... ... : ... .. . ... ... : ... .. . ... ... : ... .. . ... ...
ROW 44 : ... .. D ... ... ... : A-2 00 A ... ... ... : ... .. . ... : ... .. . ... : ... .. . ... ... : ... .. . ... ... : ... .. . ... ... : ... .. . ... ...
ROW 45 : B-3 00 8 ... ... ... : ... .. 8 ... ... ... : ... .. . ... : ... .. . ... : ... .. . ... ... : ... .. . ... ... : ... .. . ... ... : ... .. . ... ...
ROW 46 : ... .. 7 ... ... ... : ... .. . ... ... ... : ... .. . ... : ... .. . ... : ... .. . ... ... : ... .. . ... ... : ... .. . ... ... : ... .. . ... ...
ROW 47 : ... .. 6 ... ... ... : ... .. . ... ... ... : --- .. . ... : ... .. . ... : ... .. . ... ... : ... .. . ... ... : ... .. . ... ... : ... .. . ... ...
ROW 48 : ... .. F ... ... ... : E-2 00 A ... ... ... : G#2 00 . ... : 0-# 00 C ... : ... .. . ... ... : ... .. . P6F ... : ... .. . P71 ... : A#2 01 8 P8D ...
ROW 49 : ... .. E ... ... ... : ... .. 8 ... ... ... : ... .. . ... : ... .. . ... : ... .. . ... ... : D#2 01 5 P87 ... : G#2 01 5 P80 ... : ... .. . P7D ...
ROW 4A : ... .. D ... ... ... : ... .. . ... ... ... : ... .. . ... : ... .. . ... : ... .. . ... ... : ... .. . P77 ... : G-2 01 5 P90 ... : A-2 01 8 P8E ...
ROW 4B : A-3 00 8 ... ... ... : ... .. . ... ... ... : ... .. . ... : ... .. . ... : ... .. . ... ... : D-2 01 5 P92 ... : ... .. . P80 ... : ... .. . P7E ...
ROW 4C : ... .. 7 ... ... ... : A-2 00 A ... ... ... : ... .. . ... : ... .. . ... : ... .. . ... ... : ... .. . P82 ... : ... .. . P70 ... : G#2 01 8 P91 ...
ROW 4D : ... .. 6 ... ... ... : ... .. 8 ... ... ... : --- .. . ... : ... .. . ... : ... .. . ... ... : ... .. . P72 ... : F#2 01 5 P82 ... : ... .. . P81 ...
ROW 4E : E-4 00 F ... ... ... : ... .. . ... ... ... : A#2 00 . ... : ... .. . ... : ... .. . ... ... : C#2 01 5 P8F ... : ... .. . P72 ... : ... .. . P71 ...
ROW 4F : ... .. E ... ... ... : ... .. . ... ... ... : ... .. . ... : ... .. . ... : ... .. . ... ... : ... .. . P7F ... : F-2 01 5 P86 ... : G-2 01 8 P85 ...
ROW 50 : ... .. D ... ... ... : B-2 00 A ... ... ... : ... .. . ... : ... .. . ... : ... .. . ... ... : ... .. . P6F ... : ... .. . P76 ... : ... .. . P75 ...
ROW 51 : B-3 00 8 ... ... ... : ... .. 8 ... ... ... : ... .. . ... : ... .. . ... : ... .. . ... ... : C-2 01 5 P8F ... : E-2 01 5 P8C ... : F#2 01 8 P8C ...
ROW 52 : ... .. 7 ... ... ... : ... .. . ... ... ... : ... .. . ... : ... .. . ... : ... .. . ... ... : ... .. . P7F ... : ... .. . P7C ... : ... .. . P7C ...
ROW 53 : ... .. 6 ... ... ... : ... .. . ... ... ... : --- .. . ... : ... .. . ... : ... .. . ... ... : ... .. . P6F ... : D#2 01 5 P94 ... : ... .. . P6C ...
ROW 54 : A-4 00 F ... ... ... : E-3 00 A ... ... ... : C#3 00 . ... : 2-# 00 C ... : ... .. . ... ... : B-1 01 5 P92 ... : ... .. . P84 ... : F-2 01 8 P85 ...
ROW 55 : ... .. E ... ... ... : ... .. 8 ... ... ... : ... .. . ... : ... .. . ... : ... .. . ... ... : ... .. . P82 ... : ... .. . P74 ... : ... .. 4 P75 ...
ROW 56 : ... .. D ... ... ... : ... .. . ... ... ... : ... .. . ... : ... .. . ... : ... .. . ... ... : ... .. 3 P72 ... : D-2 01 3 P8F ... : E-2 01 4 P91 ...
ROW 57 : E-4 00 8 ... ... ... : ... .. . ... ... ... : ... .. . ... : ... .. . ... : ... .. . ... ... : A#1 01 3 P98 ... : ... .. . P7F ... : ... .. 1 P81 ...
ROW 58 : ... .. 7 ... ... ... : A-3 00 A ... ... ... : ... .. . ... : ... .. . ... : ... .. . ... ... : ... .. . P88 ... : ... .. . P6F ... : ... .. . P71 ...
ROW 59 : ... .. 6 ... ... ... : ... .. 8 ... ... ... : --- .. . ... : ... .. . ... : ... .. . ... ... : ... .. . P78 ... : C#2 01 3 P8C ... : D#2 01 1 P8F ...
ROW 5A : B-4 00 F ... ... ... : ... .. . ... ... ... : D#3 00 . ... : ... .. B ... : ... .. . ... ... : ... .. . P68 ... : ... .. . P7C ... : ... .. . P7F ...
ROW 5B : ... .. E ... ... ... : ... .. . ... ... ... : ... .. . ... : ... .. . ... : ... .. . ... ... : A-1 01 3 P91 ... : ... .. . P6C ... : ... .. . P6F ...
ROW 5C : ... .. D ... ... ... : E-4 00 A ... ... ... : ... .. . ... : ... .. . ... : ... .. . ... ... : ... .. . P81 ... : C-2 01 3 P8C ... : D-2 01 1 P90 ...
ROW 5D : A-4 00 8 ... ... ... : ... .. 8 ... ... ... : ... .. . ... : ... .. . ... : ... .. . ... ... : ... .. . P71 ... : ... .. . P7C ... : ... .. . P80 ...
ROW 5E : ... .. 7 ... ... ... : ... .. . ... ... ... : ... .. . ... : ... .. . ... : ... .. . ... ... : G#1 01 3 P9D ... : ... .. . P6C ... : ... .. 0 P70 ...
ROW 5F : ... .. 6 ... ... ... : ... .. . ... ... ... : --- .. . ... : ... .. . ... : ... .. . ... ... : ... .. . P8D ... : B-1 01 3 P8F ... : C#2 01 0 P93 ...
ROW 60 : F#5 00 F ... ... ... : F#5 00 A ... ... ... : D-6 00 . ... : ... .. . ... : ... .. . ... ... : F#2 01 A P7F ... : B-2 01 A P81 ... : C#3 01 F P7F ...
ROW 61 : ... .. E ... ... ... : ... .. 8 ... ... ... : E-5 00 . ... : ... .. . ... : ... .. . ... ... : ... .. 9 ... ... : ... .. 9 ... ... : ... .. D ... ...
ROW 62 : ... .. D ... ... ... : ... .. . ... ... ... : A-4 00 . ... : ... .. . ... : ... .. . ... ... : ... .. 8 ... ... : ... .. 8 ... ... : ... .. 8 ... ...
ROW 63 : B-4 00 8 ... ... ... : ... .. . ... ... ... : G#4 00 . ... : ... .. . ... : ... .. . ... ... : ... .. 7 ... ... : ... .. 7 ... ... : ... .. . ... ...
ROW 64 : ... .. 7 ... ... ... : C#5 00 A ... ... ... : D#4 00 . ... : ... .. . ... : ... .. . ... ... : ... .. . ... ... : ... .. . ... ... : ... .. . ... ...
ROW 65 : ... .. 6 ... ... ... : ... .. 8 ... ... ... : ... .. . ... : ... .. . ... : ... .. . ... ... : ... .. 6 ... ... : ... .. 6 ... ... : ... .. . ... ...
ROW 66 : C#5 00 F ... ... ... : ... .. . ... ... ... : ... .. . ... : 4-# 00 B ... : ... .. . ... ... : ... .. . ... ... : ... .. . ... ... : ... .. . ... ...
ROW 67 : ... .. E ... ... ... : ... .. . ... ... ... : ... .. . ... : ... .. . ... : ... .. . ... ... : ... .. 5 ... ... : ... .. 5 ... ... : ... .. . ... ...
ROW 68 : ... .. D ... ... ... : B-4 00 A ... ... ... : ... .. . ... : ... .. . ... : ... .. . ... ... : ... .. . ... ... : ... .. . ... ... : ... .. . ... ...
ROW 69 : F#5 00 8 ... ... ... : ... .. 8 ... ... ... : ... .. . ... : ... .. . ... : ... .. . ... ... : ... .. . ... ... : ... .. . ... ... : ... .. . ... ...
ROW 6A : ... .. 7 ... ... ... : ... .. . ... ... ... : ... .. . ... : ... .. . ... : ... .. . ... ... : ... .. . ... ... : ... .. . ... ... : ... .. . ... ...
ROW 6B : ... .. 6 ... ... ... : ... .. . ... ... ... : ... .. . ... : ... .. . ... : ... .. . ... ... : ... .. . ... ... : ... .. . ... ... : ... .. . ... ...
ROW 6C : B-4 00 F ... ... ... : F#4 00 A ... ... ... : ... .. . ... : ... .. . ... : ... .. . ... ... : ... .. . ... ... : ... .. . ... ... : ... .. . ... ...
ROW 6D : ... .. E ... ... ... : ... .. 8 ... ... ... : ... .. . ... : ... .. . ... : ... .. . ... ... : ... .. . ... ... : ... .. . ... ... : ... .. . ... ...
ROW 6E : ... .. D ... ... ... : ... .. . ... ... ... : ... .. . ... : ... .. . ... : ... .. . ... ... : ... .. . ... ... : ... .. . ... ... : ... .. . ... ...
ROW 6F : C#5 00 8 ... ... ... : ... .. . ... ... ... : ... .. . ... : ... .. . ... : ... .. . ... ... : ... .. . ... ... : ... .. . ... ... : ... .. . ... ...
ROW 70 : ... .. 7 ... ... ... : C#4 00 A ... ... ... : ... .. . ... : ... .. . ... : ... .. . ... ... : ... .. . ... ... : ... .. . ... ... : ... .. . ... ...
ROW 71 : ... .. 6 ... ... ... : ... .. 8 ... ... ... : ... .. . ... : ... .. . ... : ... .. . ... ... : ... .. . ... ... : ... .. . ... ... : ... .. . ... ...
ROW 72 : F#4 00 F ... ... ... : ... .. . ... ... ... : ... .. . ... : ... .. . ... : ... .. . ... ... : ... .. . ... ... : ... .. . ... ... : ... .. . ... ...
ROW 73 : ... .. E ... ... ... : ... .. . ... ... ... : ... .. . ... : ... .. . ... : ... .. . ... ... : ... .. . ... ... : ... .. . ... ... : ... .. . ... ...
ROW 74 : ... .. D ... ... ... : B-3 00 A ... ... ... : ... .. . ... : ... .. . ... : ... .. . ... ... : ... .. . ... ... : ... .. . ... ... : ... .. . ... ...
ROW 75 : B-4 00 8 ... ... ... : ... .. 8 ... ... ... : ... .. . ... : ... .. . ... : ... .. . ... ... : ... .. . ... ... : ... .. . ... ... : ... .. . ... ...
ROW 76 : ... .. 7 ... ... ... : ... .. . ... ... ... : ... .. . ... : ... .. . ... : ... .. . ... ... : ... .. . ... ... : ... .. . ... ... : ... .. . ... ...
ROW 77 : ... .. 6 ... ... ... : ... .. . ... ... ... : ... .. . ... : ... .. . ... : ... .. . ... ... : ... .. . ... ... : ... .. . ... ... : ... .. . ... ...
ROW 78 : C#4 00 F ... ... ... : F#3 00 A ... ... ... : B-3 00 . P7E : ... .. A ... : ... .. . ... ... : ... .. . ... ... : ... .. . ... ... : ... .. . ... ...
ROW 79 : ... .. E ... ... ... : ... .. 8 ... ... ... : G#3 00 . P79 : ... .. . ... : ... .. . ... ... : ... .. . ... ... : ... .. . ... ... : ... .. . ... ...
ROW 7A : ... .. D ... ... ... : ... .. . ... ... ... : F-3 00 . P7C : ... .. . ... : ... .. . ... ... : ... .. . ... ... : ... .. . ... ... : ... .. . ... ...
ROW 7B : F#4 00 8 ... ... ... : ... .. . ... ... ... : D-3 00 . P89 : ... .. . ... : ... .. . ... ... : ... .. . ... ... : ... .. . ... ... : ... .. . ... ...
ROW 7C : ... .. 7 ... ... ... : C#3 00 A ... ... ... : C-3 00 . P88 : ... .. . ... : ... .. . ... ... : ... .. . ... ... : ... .. . ... ... : ... .. . ... ...
ROW 7D : ... .. 6 ... ... ... : ... .. 8 ... ... ... : A#2 00 . P8C : ... .. . ... : ... .. . ... ... : ... .. . ... ... : ... .. . ... ... : ... .. . ... ...
ROW 7E : B-3 00 F ... ... ... : ... .. . ... ... ... : A-2 00 . P78 : ... .. . ... : ... .. . ... ... : ... .. . ... ... : ... .. . ... ... : ... .. . ... ...
ROW 7F : ... .. E ... ... ... : ... .. . ... ... ... : G-2 00 . P87 : ... .. . ... : ... .. . ... ... : ... .. . ... ... : ... .. . ... ... : ... .. 4 ... ...
ROW 80 : ... .. D ... ... ... : B-2 00 A ... ... ... : F#2 00 . P79 : ... .. . ... : ... .. . ... ... : ... .. 3 ... ... : ... .. 3 ... ... : ... .. . ... ...
ROW 81 : C#4 00 8 ... ... ... : ... .. 8 ... ... ... : E-2 00 . P93 : ... .. . ... : ... .. . ... ... : ... .. . ... ... : ... .. . ... ... : ... .. 1 ... ...
ROW 82 : ... .. 7 ... ... ... : ... .. . ... ... ... : D#2 00 . P8B : ... .. . ... : ... .. . ... ... : ... .. . ... ... : ... .. . ... ... : ... .. . ... ...
ROW 83 : ... .. 6 ... ... ... : ... .. . ... ... ... : D-2 00 . P86 : ... .. . ... : ... .. . ... ... : ... .. . ... ... : ... .. . ... ... : ... .. . ... ...
ROW 84 : G#5 00 F ... ... ... : G#5 00 A ... ... ... : D-5 00 . P80 : 5-# 00 A ... : ... .. . ... ... : G#2 01 A ... ... : C#3 01 A ... ... : D#3 01 F ... ...
ROW 85 : ... .. E ... ... ... : ... .. 8 ... ... ... : E-4 00 . ... : ... .. . ... : ... .. . ... ... : ... .. 9 ... ... : ... .. 9 ... ... : ... .. D ... ...
ROW 86 : ... .. D ... ... ... : ... .. . ... ... ... : A-3 00 . ... : ... .. . ... : ... .. . ... ... : ... .. 8 ... ... : ... .. 8 ... ... : ... .. 8 ... ...
ROW 87 : B-3 00 8 ... ... ... : ... .. . ... ... ... : G#3 00 . ... : ... .. . ... : ... .. . ... ... : ... .. 7 ... ... : ... .. 7 ... ... : ... .. . ... ...
ROW 88 : ... .. 7 ... ... ... : D#5 00 A ... ... ... : D#3 00 . ... : ... .. . ... : ... .. . ... ... : ... .. . ... ... : ... .. . ... ... : ... .. . ... ...
ROW 89 : ... .. 6 ... ... ... : ... .. 8 ... ... ... : ... .. . ... : ... .. . ... : ... .. . ... ... : ... .. 6 ... ... : ... .. 6 ... ... : ... .. . ... ...
ROW 8A : D#5 00 F ... ... ... : ... .. . ... ... ... : ... .. . ... : ... .. . ... : ... .. . ... ... : ... .. . ... ... : ... .. . ... ... : ... .. . ... ...
ROW 8B : ... .. E ... ... ... : ... .. . ... ... ... : ... .. . ... : ... .. . ... : ... .. . ... ... : ... .. 5 ... ... : ... .. 5 ... ... : ... .. . ... ...
ROW 8C : ... .. D ... ... ... : C#5 00 A ... ... ... : ... .. . ... : ... .. . ... : ... .. . ... ... : ... .. . ... ... : ... .. . ... ... : ... .. . ... ...
ROW 8D : G#5 00 8 ... ... ... : ... .. 8 ... ... ... : ... .. . ... : ... .. . ... : ... .. . ... ... : ... .. . ... ... : ... .. . ... ... : ... .. . ... ...
ROW 8E : ... .. 7 ... ... ... : ... .. . ... ... ... : ... .. . ... : ... .. . ... : ... .. . ... ... : ... .. . ... ... : ... .. . ... ... : ... .. . ... ...
ROW 8F : ... .. 6 ... ... ... : ... .. . ... ... ... : ... .. . ... : ... .. . ... : ... .. . ... ... : ... .. . ... ... : ... .. . ... ... : ... .. . ... ...
ROW 90 : A#4 00 F ... ... ... : G#4 00 A ... ... ... : ... .. . ... : ... .. . ... : ... .. . ... ... : ... .. . ... ... : ... .. . ... ... : ... .. . ... ...
ROW 91 : ... .. E ... ... ... : ... .. 8 ... ... ... : ... .. . ... : ... .. . ... : ... .. . ... ... : ... .. . ... ... : ... .. . ... ... : ... .. . ... ...
ROW 92 : ... .. D ... ... ... : ... .. . ... ... ... : ... .. . ... : ... .. . ... : ... .. . ... ... : ... .. . ... ... : ... .. . ... ... : ... .. . ... ...
ROW 93 : D#5 00 8 ... ... ... : ... .. . ... ... ... : ... .. . ... : ... .. . ... : ... .. . ... ... : ... .. . ... ... : ... .. . ... ... : ... .. . ... ...
ROW 94 : ... .. 7 ... ... ... : D#4 00 A ... ... ... : ... .. . ... : ... .. . ... : ... .. . ... ... : ... .. . ... ... : ... .. . ... ... : ... .. . ... ...
ROW 95 : ... .. 6 ... ... ... : ... .. 8 ... ... ... : ... .. . ... : ... .. . ... : ... .. . ... ... : ... .. . ... ... : ... .. . ... ... : ... .. . ... ...
ROW 96 : G#4 00 F ... ... ... : ... .. . ... ... ... : C#3 00 . P7C : 7-# 00 A ... : ... .. . ... ... : ... .. . ... ... : ... .. . ... ... : ... .. . ... ...
ROW 97 : ... .. E ... ... ... : ... .. . ... ... ... : B-2 00 . P7D : ... .. . ... : ... .. . ... ... : ... .. . ... ... : ... .. . ... ... : ... .. . ... ...
ROW 98 : ... .. D ... ... ... : C#4 00 A ... ... ... : A-2 00 . P84 : ... .. . ... : ... .. . ... ... : ... .. . ... ... : ... .. . ... ... : ... .. . ... ...
ROW 99 : A#4 00 8 ... ... ... : ... .. 8 ... ... ... : G#2 00 . P73 : ... .. . ... : ... .. . ... ... : ... .. . ... ... : ... .. . ... ... : ... .. . ... ...
ROW 9A : ... .. 7 ... ... ... : ... .. . ... ... ... : F#2 00 . P85 : ... .. . ... : ... .. . ... ... : ... .. . ... ... : ... .. . ... ... : ... .. . ... ...
ROW 9B : ... .. 6 ... ... ... : ... .. . ... ... ... : F-2 00 . P79 : ... .. . ... : ... .. . ... ... : ... .. . ... ... : ... .. . ... ... : ... .. . ... ...
ROW 9C : D#4 00 F ... ... ... : G#3 00 A ... ... ... : C#3 00 . P80 : ... .. . ... : ... .. . ... ... : ... .. . ... ... : ... .. . ... ... : ... .. . ... ...
ROW 9D : ... .. E ... ... ... : ... .. 8 ... ... ... : ... .. . ... : ... .. . ... : ... .. . ... ... : ... .. . ... ... : ... .. . ... ... : ... .. . ... ...
ROW 9E : ... .. D ... ... ... : ... .. . ... ... ... : ... .. . ... : ... .. . ... : ... .. . ... ... : ... .. . ... ... : ... .. . ... ... : ... .. . ... ...
ROW 9F : G#4 00 8 ... ... ... : ... .. . ... ... ... : ... .. . ... : ... .. . ... : ... .. . ... ... : ... .. . ... ... : ... .. . ... ... : ... .. . ... ...
ROW A0 : ... .. 7 ... ... ... : D#3 00 A ... ... ... : ... .. . ... : ... .. . ... : ... .. . ... ... : ... .. . ... ... : ... .. . ... ... : ... .. . ... ...
ROW A1 : ... .. 6 ... ... ... : ... .. 8 ... ... ... : --- .. . ... : ... .. . ... : ... .. . ... ... : ... .. . ... ... : ... .. . ... ... : ... .. . ... ...
ROW A2 : A#3 00 F ... ... ... : ... .. . ... ... ... : A#2 00 . ... : ... .. . ... : ... .. . ... ... : ... .. . ... ... : ... .. . ... ... : ... .. . ... ...
ROW A3 : ... .. E ... ... ... : ... .. . ... ... ... : ... .. . ... : ... .. . ... : ... .. . ... ... : ... .. . ... ... : ... .. . ... ... : ... .. . ... ...
ROW A4 : ... .. D ... ... ... : C#3 00 A ... ... ... : ... .. . ... : ... .. . ... : ... .. . ... ... : ... .. . ... ... : ... .. . ... ... : ... .. . ... ...
ROW A5 : D#4 00 8 ... ... ... : ... .. 8 ... ... ... : ... .. . ... : ... .. . ... : ... .. . ... ... : ... .. . ... ... : ... .. . ... ... : ... .. . ... ...
ROW A6 : ... .. 7 ... ... ... : ... .. . ... ... ... : ... .. . ... : ... .. . ... : ... .. . ... ... : ... .. . ... ... : ... .. . ... ... : ... .. . ... ...
ROW A7 : ... .. 6 ... ... ... : ... .. . ... ... ... : --- .. . ... : ... .. . ... : ... .. . ... ... : ... .. . ... ... : ... .. . ... ... : ... .. . ... ...
ROW A8 : G#3 00 F ... ... ... : G#2 00 A ... ... ... : G#3 00 . ... : ... .. 9 ... : ... .. . ... ... : G-2 01 5 P8F ... : C-3 01 5 P89 ... : D-3 01 8 P87 ...
ROW A9 : ... .. E ... ... ... : ... .. 8 ... ... ... : ... .. . ... : ... .. . ... : ... .. . ... ... : ... .. . P7F ... : ... .. . P79 ... : ... .. . P77 ...
ROW AA : ... .. D ... ... ... : ... .. . ... ... ... : ... .. . ... : ... .. . ... : ... .. . ... ... : F#2 01 5 P91 ... : B-2 01 5 P82 ... : C#3 01 8 P81 ...
ROW AB : A#3 00 8 ... ... ... : ... .. . ... ... ... : ... .. . ... : ... .. . ... : ... .. . ... ... : ... .. . P81 ... : A#2 01 5 P8D ... : C-3 01 8 P8D ...
ROW AC : ... .. 7 ... ... ... : C#3 00 A ... ... ... : ... .. . ... : ... .. . ... : ... .. . ... ... : ... .. . P71 ... : ... .. . P7D ... : ... .. . P7D ...
ROW AD : ... .. 6 ... ... ... : ... .. 8 ... ... ... : --- .. . ... : ... .. . ... : ... .. . ... ... : F-2 01 5 P85 ... : A-2 01 5 P89 ... : B-2 01 8 P8A ...
ROW AE : ... .. F ... ... ... : ... .. . ... ... ... : A#3 00 . ... : 9-# 00 9 ... : ... .. . ... ... : ... .. . P75 ... : ... .. . P79 ... : ... .. . P7A ...
ROW AF : ... .. E ... ... ... : ... .. . ... ... ... : ... .. . ... : ... .. . ... : ... .. . ... ... : E-2 01 5 P8B ... : G#2 01 5 P88 ... : A#2 01 8 P88 ...
ROW B0 : ... .. D ... ... ... : D#3 00 A ... ... ... : ... .. . ... : ... .. . ... : ... .. . ... ... : ... .. . P7B ... : ... .. . P78 ... : ... .. . P78 ...
ROW B1 : G#3 00 8 ... ... ... : ... .. 8 ... ... ... : ... .. . ... : ... .. . ... : ... .. . ... ... : D#2 01 5 P93 ... : G-2 01 5 P88 ... : A-2 01 8 P89 ...
ROW B2 : ... .. 7 ... ... ... : ... .. . ... ... ... : ... .. . ... : ... .. . ... : ... .. . ... ... : ... .. . P83 ... : ... .. . P78 ... : ... .. . P79 ...
ROW B3 : ... .. 6 ... ... ... : ... .. . ... ... ... : --- .. . ... : ... .. . ... : ... .. . ... ... : ... .. . P73 ... : F#2 01 5 P8A ... : G#2 01 8 P8C ...
ROW B4 : D#4 00 F ... ... ... : G#3 00 A ... ... ... : C#4 00 . ... : ... .. . ... : ... .. . ... ... : D-2 01 5 P8E ... : ... .. . P7A ... : ... .. . P7C ...
ROW B5 : ... .. E ... ... ... : ... .. 8 ... ... ... : ... .. . ... : ... .. . ... : ... .. . ... ... : ... .. . P7E ... : F-2 01 5 P8E ... : G-2 01 8 P90 ...
ROW B6 : ... .. D ... ... ... : ... .. . ... ... ... : ... .. . ... : ... .. . ... : ... .. . ... ... : ... .. . P6E ... : ... .. . P7E ... : ... .. . P80 ...
ROW B7 : A#3 00 8 ... ... ... : ... .. . ... ... ... : ... .. . ... : ... .. . ... : ... .. . ... ... : C#2 01 5 P8B ... : ... .. . P6E ... : ... .. . P70 ...
ROW B8 : ... .. 7 ... ... ... : C#4 00 A ... ... ... : ... .. . ... : ... .. . ... : ... .. . ... ... : ... .. . P7B ... : E-2 01 5 P84 ... : F#2 01 8 P87 ...
ROW B9 : ... .. 6 ... ... ... : ... .. 8 ... ... ... : --- .. . ... : ... .. . ... : ... .. . ... ... : ... .. . P6B ... : ... .. . P74 ... : ... .. . P77 ...
ROW BA : G#4 00 F ... ... ... : ... .. . ... ... ... : D#4 00 . ... : ... .. . ... : ... .. . ... ... : C-2 01 5 P8B ... : D#2 01 5 P8C ... : F-2 01 8 P90 ...
ROW BB : ... .. E ... ... ... : ... .. . ... ... ... : ... .. . ... : ... .. . ... : ... .. . ... ... : ... .. . P7B ... : ... .. . P7C ... : ... .. 4 P80 ...
ROW BC : ... .. D ... ... ... : G#4 00 A ... ... ... : ... .. . ... : ... .. . ... : ... .. . ... ... : ... .. 3 P6B ... : ... .. 3 P6C ... : ... .. . P70 ...
ROW BD : D#4 00 8 ... ... ... : ... .. 8 ... ... ... : ... .. . ... : ... .. . ... : ... .. . ... ... : B-1 01 3 P8E ... : D-2 01 3 P87 ... : E-2 01 1 P8C ...
ROW BE : ... .. 7 ... ... ... : ... .. . ... ... ... : ... .. . ... : ... .. . ... : ... .. . ... ... : ... .. . P7E ... : ... .. . P77 ... : ... .. . P7C ...
ROW BF : ... .. 6 ... ... ... : ... .. . ... ... ... : --- .. . ... : ... .. . ... : ... .. . ... ... : ... .. . P6E ... : C#2 01 3 P94 ... : ... .. . P6C ...
ROW C0 : A#4 00 F ... ... ... : A#5 00 A ... ... ... : D-5 00 . ... : ... .. . ... : ... .. . ... ... : D#2 01 A P7F ... : G#2 01 A P81 ... : A#2 01 F P7F ...
ROW C1 : ... .. E ... ... ... : ... .. 8 ... ... ... : E-4 00 . ... : ... .. . ... : ... .. . ... ... : ... .. 9 ... ... : ... .. 9 ... ... : ... .. D ... ...
ROW C2 : ... .. D ... ... ... : ... .. . ... ... ... : A-3 00 . ... : ... .. . ... : ... .. . ... ... : ... .. 8 ... ... : ... .. 8 ... ... : ... .. 8 ... ...
ROW C3 : G#4 00 8 ... ... ... : ... .. . ... ... ... : G#3 00 . ... : ... .. 8 ... : ... .. . ... ... : ... .. 7 ... ... : ... .. 7 ... ... : ... .. . ... ...
ROW C4 : ... .. 7 ... ... ... : E-5 00 A ... ... ... : D#3 00 . ... : ... .. . ... : ... .. . ... ... : ... .. . ... ... : ... .. . ... ... : ... .. . ... ...
ROW C5 : ... .. 6 ... ... ... : ... .. 8 ... ... ... : ... .. . ... : ... .. . ... : ... .. . ... ... : ... .. 6 ... ... : ... .. 6 ... ... : ... .. . ... ...
ROW C6 : D#4 00 F ... ... ... : ... .. . ... ... ... : ... .. . ... : ... .. . ... : ... .. . ... ... : ... .. . ... ... : ... .. . ... ... : ... .. . ... ...
ROW C7 : ... .. E ... ... ... : ... .. . ... ... ... : ... .. . ... : ... .. . ... : ... .. . ... ... : ... .. 5 ... ... : ... .. 5 ... ... : ... .. . ... ...
ROW C8 : ... .. D ... ... ... : D#5 00 A ... ... ... : ... .. . ... : ... .. . ... : ... .. . ... ... : ... .. . ... ... : ... .. . ... ... : ... .. . ... ...
ROW C9 : A#4 00 8 ... ... ... : ... .. 8 ... ... ... : ... .. . ... : ... .. . ... : ... .. . ... ... : ... .. . ... ... : ... .. . ... ... : ... .. . ... ...
ROW CA : ... .. 7 ... ... ... : ... .. . ... ... ... : ... .. . ... : ... .. . ... : ... .. . ... ... : ... .. . ... ... : ... .. . ... ... : ... .. . ... ...
ROW CB : ... .. 6 ... ... ... : ... .. . ... ... ... : ... .. . ... : ... .. . ... : ... .. . ... ... : ... .. . ... ... : ... .. . ... ... : ... .. . ... ...
ROW CC : A#3 00 F ... ... ... : A#4 00 A ... ... ... : ... .. . ... : ... .. . ... : ... .. . ... ... : ... .. . ... ... : ... .. . ... ... : ... .. . ... ...
ROW CD : ... .. E ... ... ... : ... .. 8 ... ... ... : ... .. . ... : ... .. . ... : ... .. . ... ... : ... .. . ... ... : ... .. . ... ... : ... .. . ... ...
ROW CE : ... .. D ... ... ... : ... .. . ... ... ... : ... .. . ... : ... .. . ... : ... .. . ... ... : ... .. . ... ... : ... .. . ... ... : ... .. . ... ...
ROW CF : D#4 00 8 ... ... ... : ... .. . ... ... ... : ... .. . ... : ... .. . ... : ... .. . ... ... : ... .. . ... ... : ... .. . ... ... : ... .. . ... ...
ROW D0 : ... .. 7 ... ... ... : E-4 00 A ... ... ... : ... .. . ... : ... .. . ... : ... .. . ... ... : ... .. . ... ... : ... .. . ... ... : ... .. . ... ...
ROW D1 : ... .. 6 ... ... ... : ... .. 8 ... ... ... : ... .. . ... : ... .. . ... : ... .. . ... ... : ... .. . ... ... : ... .. . ... ... : ... .. . ... ...
ROW D2 : G#3 00 F ... ... ... : ... .. . ... ... ... : D-3 00 . P75 : 7-# 00 8 ... : ... .. . ... ... : ... .. . ... ... : ... .. . ... ... : ... .. . ... ...
ROW D3 : ... .. E ... ... ... : ... .. . ... ... ... : C-3 00 . P84 : ... .. . ... : ... .. . ... ... : ... .. . ... ... : ... .. . ... ... : ... .. . ... ...
ROW D4 : ... .. D ... ... ... : D#4 00 A ... ... ... : B-2 00 . P7D : ... .. . ... : ... .. . ... ... : ... .. . ... ... : ... .. . ... ... : ... .. . ... ...
ROW D5 : A#3 00 8 ... ... ... : ... .. 8 ... ... ... : A#2 00 . P78 : ... .. . ... : ... .. . ... ... : ... .. . ... ... : ... .. . ... ... : ... .. . ... ...
ROW D6 : ... .. 7 ... ... ... : ... .. . ... ... ... : A-2 00 . P74 : ... .. . ... : ... .. . ... ... : ... .. . ... ... : ... .. . ... ... : ... .. . ... ...
ROW D7 : ... .. 6 ... ... ... : ... .. . ... ... ... : G#2 00 . P73 : ... .. . ... : ... .. . ... ... : ... .. . ... ... : ... .. . ... ... : ... .. . ... ...
ROW D8 : D#3 00 F ... ... ... : A#3 00 A ... ... ... : G-2 00 . ... : 5-# 00 8 ... : ... .. . ... ... : ... .. . ... ... : ... .. . ... ... : ... .. . ... ...
ROW D9 : ... .. E ... ... ... : ... .. 8 ... ... ... : F#2 00 . P75 : ... .. . ... : ... .. . ... ... : ... .. . ... ... : ... .. . ... ... : ... .. . ... ...
ROW DA : ... .. D ... ... ... : ... .. . ... ... ... : F-2 00 . P79 : ... .. . ... : ... .. . ... ... : ... .. . ... ... : ... .. . ... ... : ... .. . ... ...
ROW DB : G#3 00 8 ... ... ... : ... .. . ... ... ... : E-2 00 . P7F : ... .. . ... : ... .. . ... ... : ... .. . ... ... : ... .. . ... ... : ... .. . ... ...
ROW DC : ... .. 7 ... ... ... : E-3 00 A ... ... ... : D#2 00 . P87 : ... .. . ... : ... .. . ... ... : ... .. . ... ... : ... .. . ... ... : ... .. . ... ...
ROW DD : ... .. 6 ... ... ... : ... .. 8 ... ... ... : D-2 00 . P92 : ... .. . ... : ... .. . ... ... : ... .. . ... ... : ... .. . ... ... : ... .. . ... ...
ROW DE : A#2 00 F ... ... ... : ... .. . ... ... ... : ... .. . P72 : ... .. 7 ... : ... .. . ... ... : ... .. . ... ... : ... .. . ... ... : ... .. . ... ...
ROW DF : ... .. E ... ... ... : ... .. . ... ... ... : C#2 00 . P7F : ... .. . ... : ... .. . ... ... : ... .. . ... ... : ... .. . ... ... : ... .. 4 ... ...
ROW E0 : ... .. D ... ... ... : D#3 00 A ... ... ... : C-2 00 . P8F : ... .. . ... : ... .. . ... ... : ... .. 3 ... ... : ... .. 3 ... ... : ... .. . ... ...
ROW E1 : D#3 00 8 ... ... ... : ... .. 8 ... ... ... : ... .. . P6F : ... .. . ... : ... .. . ... ... : ... .. . ... ... : ... .. . ... ... : ... .. 1 ... ...
ROW E2 : ... .. 7 ... ... ... : ... .. . ... ... ... : B-1 00 . P82 : ... .. . ... : ... .. . ... ... : ... .. . ... ... : ... .. . ... ... : ... .. . ... ...
ROW E3 : ... .. 6 ... ... ... : ... .. . ... ... ... : A#1 00 . P98 : ... .. . ... : ... .. . ... ... : ... .. . ... ... : ... .. . ... ... : ... .. . ... ...
ROW E4 : B-4 00 F ... ... ... : B-5 00 A ... ... ... : D-4 00 . P80 : ... .. . ... : ... .. . ... ... : E-2 01 A ... ... : A-2 01 A ... ... : B-2 01 F ... ...
ROW E5 : ... .. E ... ... ... : ... .. 8 ... ... ... : E-3 00 . ... : ... .. . ... : ... .. . ... ... : ... .. 9 ... ... : ... .. 9 ... ... : ... .. D ... ...
ROW E6 : ... .. D ... ... ... : ... .. . ... ... ... : A-2 00 . ... : ... .. . ... : ... .. . ... ... : ... .. 8 ... ... : ... .. 8 ... ... : ... .. 8 ... ...
ROW E7 : A#2 00 8 ... ... ... : ... .. . ... ... ... : G#2 00 . ... : ... .. . ... : ... .. . ... ... : ... .. 7 ... ... : ... .. 7 ... ... : ... .. . ... ...
ROW E8 : ... .. 7 ... ... ... : F#5 00 A ... ... ... : D#2 00 . ... : ... .. . ... : ... .. . ... ... : ... .. . ... ... : ... .. . ... ... : ... .. . ... ...
ROW E9 : ... .. 6 ... ... ... : ... .. 8 ... ... ... : ... .. . ... : ... .. . ... : ... .. . ... ... : ... .. 6 ... ... : ... .. 6 ... ... : ... .. . ... ...
ROW EA : F#4 00 F ... ... ... : ... .. . ... ... ... : ... .. . ... : ... .. . ... : ... .. . ... ... : ... .. . ... ... : ... .. . ... ... : ... .. . ... ...
ROW EB : ... .. E ... ... ... : ... .. . ... ... ... : ... .. . ... : ... .. . ... : ... .. . ... ... : ... .. 5 ... ... : ... .. 5 ... ... : ... .. . ... ...
ROW EC : ... .. D ... ... ... : E-5 00 A ... ... ... : ... .. . ... : ... .. . ... : ... .. . ... ... : ... .. . ... ... : ... .. . ... ... : ... .. . ... ...
ROW ED : B-4 00 8 ... ... ... : ... .. 8 ... ... ... : ... .. . ... : ... .. . ... : ... .. . ... ... : ... .. . ... ... : ... .. . ... ... : ... .. . ... ...
ROW EE : ... .. 7 ... ... ... : ... .. . ... ... ... : ... .. . ... : ... .. . ... : ... .. . ... ... : ... .. . ... ... : ... .. . ... ... : ... .. . ... ...
ROW EF : ... .. 6 ... ... ... : ... .. . ... ... ... : ... .. . ... : ... .. . ... : ... .. . ... ... : ... .. . ... ... : ... .. . ... ... : ... .. . ... ...
ROW F0 : E-4 00 F ... ... ... : B-4 00 A ... ... ... : ... .. . ... : ... .. . ... : ... .. . ... ... : ... .. . ... ... : ... .. . ... ... : ... .. . ... ...
ROW F1 : ... .. E ... ... ... : ... .. 8 ... ... ... : ... .. . ... : ... .. . ... : ... .. . ... ... : ... .. . ... ... : ... .. . ... ... : ... .. . ... ...
ROW F2 : ... .. D ... ... ... : ... .. . ... ... ... : ... .. . ... : ... .. . ... : ... .. . ... ... : ... .. . ... ... : ... .. . ... ... : ... .. . ... ...
ROW F3 : F#4 00 8 ... ... ... : ... .. . ... ... ... : ... .. . ... : ... .. . ... : ... .. . ... ... : ... .. . ... ... : ... .. . ... ... : ... .. . ... ...
ROW F4 : ... .. 7 ... ... ... : F#4 00 A ... ... ... : ... .. . ... : ... .. . ... : ... .. . ... ... : ... .. . ... ... : ... .. . ... ... : ... .. . ... ...
ROW F5 : ... .. 6 ... ... ... : ... .. 8 ... ... ... : ... .. . ... : ... .. . ... : ... .. . ... ... : ... .. . ... ... : ... .. . ... ... : ... .. . ... ...
ROW F6 : B-3 00 F ... ... ... : ... .. . ... ... ... : D-2 00 . P7B : ... .. . ... : ... .. . ... ... : ... .. . ... ... : ... .. . ... ... : ... .. . ... ...
ROW F7 : ... .. E ... ... ... : ... .. . ... ... ... : C#2 00 . P78 : ... .. . ... : ... .. . ... ... : ... .. . ... ... : ... .. . ... ... : ... .. . ... ...
ROW F8 : ... .. D ... ... ... : E-4 00 A ... ... ... : C-2 00 . ... : ... .. . ... : ... .. . ... ... : ... .. . ... ... : ... .. . ... ... : ... .. . ... ...
ROW F9 : E-4 00 8 ... ... ... : ... .. 8 ... ... ... : B-1 00 . P7B : ... .. 6 ... : ... .. . ... ... : ... .. . ... ... : ... .. . ... ... : ... .. . ... ...
ROW FA : ... .. 7 ... ... ... : ... .. . ... ... ... : A#1 00 . P81 : ... .. . ... : ... .. . ... ... : ... .. . ... ... : ... .. . ... ... : ... .. . ... ...
ROW FB : ... .. 6 ... ... ... : ... .. . ... ... ... : A-1 00 . P8A : ... .. . ... : ... .. . ... ... : ... .. . ... ... : ... .. . ... ... : ... .. . ... ...
ROW FC : F#3 00 F ... ... ... : B-3 00 A ... ... ... : C#2 00 . P80 : ... .. . ... : ... .. . ... ... : ... .. . ... ... : ... .. . ... ... : ... .. . ... ...
ROW FD : ... .. E ... ... ... : ... .. 8 ... ... ... : ... .. . ... : ... .. . ... : ... .. . ... ... : ... .. . ... ... : ... .. . ... ... : ... .. . ... ...
ROW FE : ... .. D ... ... ... : ... .. . ... ... ... : ... .. . ... : ... .. . ... : ... .. . ... ... : ... .. . ... ... : ... .. . ... ... : ... .. . ... ...
ROW FF : B-3 00 8 ... ... ... : ... .. . ... ... ... : ... .. . ... : ... .. . ... : ... .. . ... ... : ... .. . ... ... : ... .. . ... ... : ... .. . ... ...

PATTERN 01
ROW 00 : ... .. 7 ... ... ... : F#3 00 A ... ... ... : ... .. . ... : ... .. . ... : ... .. . ... ... : ... .. . ... ... : ... .. . ... ... : ... .. . ... ...
ROW 01 : ... .. 6 ... ... ... : ... .. 8 ... ... ... : --- .. . ... : ... .. . ... : ... .. . ... ... : ... .. . ... ... : ... .. . ... ... : ... .. . ... ...
ROW 02 : E-3 00 F ... ... ... : ... .. . ... ... ... : A#1 00 . ... : ... .. . ... : ... .. . ... ... : ... .. . ... ... : ... .. . ... ... : ... .. . ... ...
ROW 03 : ... .. E ... ... ... : ... .. . ... ... ... : ... .. . ... : ... .. . ... : ... .. . ... ... : ... .. . ... ... : ... .. . ... ... : ... .. . ... ...
ROW 04 : ... .. D ... ... ... : E-3 00 A ... ... ... : ... .. . ... : ... .. . ... : ... .. . ... ... : ... .. . ... ... : ... .. . ... ... : ... .. . ... ...
ROW 05 : F#3 00 8 ... ... ... : ... .. 8 ... ... ... : ... .. . ... : ... .. . ... : ... .. . ... ... : ... .. . ... ... : ... .. . ... ... : ... .. . ... ...
ROW 06 : ... .. 7 ... ... ... : ... .. . ... ... ... : ... .. . ... : ... .. . ... : ... .. . ... ... : ... .. . ... ... : ... .. . ... ... : ... .. . ... ...
ROW 07 : ... .. 6 ... ... ... : ... .. . ... ... ... : --- .. . ... : ... .. . ... : ... .. . ... ... : ... .. . ... ... : ... .. . ... ... : ... .. . ... ...
ROW 08 : ... .. F ... ... ... : B-2 00 A ... ... ... : G#2 00 . ... : ... .. . ... : ... .. . ... ... : ... .. . P6F ... : ... .. . P71 ... : A#2 01 8 P8D ...
ROW 09 : ... .. E ... ... ... : ... .. 8 ... ... ... : ... .. . ... : ... .. . ... : ... .. . ... ... : D#2 01 5 P87 ... : G#2 01 5 P80 ... : ... .. . P7D ...
ROW 0A : ... .. D ... ... ... : ... .. . ... ... ... : ... .. . ... : ... .. . ... : ... .. . ... ... : ... .. . P77 ... : G-2 01 5 P90 ... : A-2 01 8 P8E ...
ROW 0B : E-3 00 8 ... ... ... : ... .. . ... ... ... : ... .. . ... : ... .. . ... : ... .. . ... ... : D-2 01 5 P92 ... : ... .. . P80 ... : ... .. . P7E ...
ROW 0C : ... .. 7 ... ... ... : E-3 00 A ... ... ... : ... .. . ... : ... .. . ... : ... .. . ... ... : ... .. . P82 ... : ... .. . P70 ... : G#2 01 8 P91 ...
ROW 0D : ... .. 6 ... ... ... : ... .. 8 ... ... ... : --- .. . ... : ... .. . ... : ... .. . ... ... : ... .. . P72 ... : F#2 01 5 P82 ... : ... .. . P81 ...
ROW 0E : B-3 00 F ... ... ... : ... .. . ... ... ... : A#2 00 . ... : ... .. . ... : ... .. . ... ... : C#2 01 5 P8F ... : ... .. . P72 ... : ... .. . P71 ...
ROW 0F : ... .. E ... ... ... : ... .. . ... ... ... : ... .. . ... : ... .. . ... : ... .. . ... ... : ... .. . P7F ... : F-2 01 5 P86 ... : G-2 01 8 P85 ...
ROW 10 : ... .. D ... ... ... : F#3 00 A ... ... ... : ... .. . ... : ... .. . ... : ... .. . ... ... : ... .. . P6F ... : ... .. . P76 ... : ... .. . P75 ...
ROW 11 : F#3 00 8 ... ... ... : ... .. 8 ... ... ... : ... .. . ... : ... .. . ... : ... .. . ... ... : C-2 01 5 P8F ... : E-2 01 5 P8C ... : F#2 01 8 P8C ...
ROW 12 : ... .. 7 ... ... ... : ... .. . ... ... ... : ... .. . ... : ... .. . ... : ... .. . ... ... : ... .. . P7F ... : ... .. . P7C ... : ... .. . P7C ...
ROW 13 : ... .. 6 ... ... ... : ... .. . ... ... ... : --- .. . ... : ... .. . ... : ... .. . ... ... : ... .. . P6F ... : D#2 01 5 P94 ... : ... .. . P6C ...
ROW 14 : E-4 00 F ... ... ... : B-3 00 A ... ... ... : C#3 00 . ... : ... .. 5 ... : ... .. . ... ... : B-1 01 5 P92 ... : ... .. . P84 ... : F-2 01 8 P85 ...
ROW 15 : ... .. E ... ... ... : ... .. 8 ... ... ... : ... .. . ... : ... .. . ... : ... .. . ... ... : ... .. . P82 ... : ... .. . P74 ... : ... .. . P75 ...
ROW 16 : ... .. D ... ... ... : ... .. . ... ... ... : ... .. . ... : ... .. . ... : ... .. . ... ... : ... .. . P72 ... : D-2 01 5 P8F ... : E-2 01 8 P91 ...
ROW 17 : B-3 00 8 ... ... ... : ... .. . ... ... ... : ... .. . ... : ... .. . ... : ... .. . ... ... : A#1 01 5 P98 ... : ... .. . P7F ... : ... .. . P81 ...
ROW 18 : ... .. 7 ... ... ... : E-4 00 A ... ... ... : ... .. . ... : ... .. . ... : ... .. . ... ... : ... .. . P88 ... : ... .. . P6F ... : ... .. . P71 ...
ROW 19 : ... .. 6 ... ... ... : ... .. 8 ... ... ... : --- .. . ... : ... .. . ... : ... .. . ... ... : ... .. . P78 ... : C#2 01 5 P8C ... : D#2 01 8 P8F ...
ROW 1A : B-4 00 F ... ... ... : ... .. . ... ... ... : D#3 00 . ... : ... .. . ... : ... .. . ... ... : ... .. . P68 ... : ... .. . P7C ... : ... .. . P7F ...
ROW 1B : ... .. E ... ... ... : ... .. . ... ... ... : ... .. . ... : ... .. . ... : ... .. . ... ... : A-1 01 5 P91 ... : ... .. . P6C ... : ... .. 4 P6F ...
ROW 1C : ... .. D ... ... ... : B-4 00 A ... ... ... : ... .. . ... : ... .. . ... : ... .. . ... ... : ... .. 3 P81 ... : C-2 01 3 P8C ... : D-2 01 4 P90 ...
ROW 1D : E-4 00 8 ... ... ... : ... .. 8 ... ... ... : ... .. . ... : ... .. . ... : ... .. . ... ... : ... .. . P71 ... : ... .. . P7C ... : ... .. 1 P80 ...
ROW 1E : ... .. 7 ... ... ... : ... .. . ... ... ... : ... .. . ... : ... .. . ... : ... .. . ... ... : G#1 01 3 P9D ... : ... .. . P6C ... : ... .. . P70 ...
ROW 1F : ... .. 6 ... ... ... : ... .. . ... ... ... : --- .. . ... : ... .. . ... : ... .. . ... ... : ... .. . P8D ... : B-1 01 3 P8F ... : C#2 01 1 P93 ...
ROW 20 : C#5 00 F ... ... ... : C#6 00 A ... ... ... : D-5 00 . ... : ... .. . ... : ... .. . ... ... : F#2 01 A P7F ... : B-2 01 A P81 ... : C#3 01 F P7F ...
ROW 21 : ... .. E ... ... ... : ... .. 8 ... ... ... : E-4 00 . ... : ... .. . ... : ... .. . ... ... : ... .. 9 ... ... : ... .. 9 ... ... : ... .. D ... ...
ROW 22 : ... .. D ... ... ... : ... .. . ... ... ... : A-3 00 . ... : ... .. . ... : ... .. . ... ... : ... .. 8 ... ... : ... .. 8 ... ... : ... .. 8 ... ...
ROW 23 : B-4 00 8 ... ... ... : ... .. . ... ... ... : G#3 00 . ... : ... .. . ... : ... .. . ... ... : ... .. 7 ... ... : ... .. 7 ... ... : ... .. . ... ...
ROW 24 : ... .. 7 ... ... ... : G#5 00 A ... ... ... : D#3 00 . ... : ... .. . ... : ... .. . ... ... : ... .. . ... ... : ... .. . ... ... : ... .. . ... ...
ROW 25 : ... .. 6 ... ... ... : ... .. 8 ... ... ... : ... .. . ... : ... .. . ... : ... .. . ... ... : ... .. 6 ... ... : ... .. 6 ... ... : ... .. . ... ...
ROW 26 : G#4 00 F ... ... ... : ... .. . ... ... ... : C#3 00 . ... : ... .. . ... : ... .. . ... ... : ... .. . ... ... : ... .. . ... ... : ... .. . ... ...
ROW 27 : ... .. E ... ... ... : ... .. . ... ... ... : ... .. . ... : ... .. . ... : ... .. . ... ... : ... .. 5 ... ... : ... .. 5 ... ... : ... .. . ... ...
ROW 28 : ... .. D ... ... ... : F#5 00 A ... ... ... : ... .. . ... : ... .. . ... : ... .. . ... ... : ... .. . ... ... : ... .. . ... ... : ... .. . ... ...
ROW 29 : C#5 00 8 ... ... ... : ... .. 8 ... ... ... : ... .. . ... : ... .. . ... : ... .. . ... ... : ... .. . ... ... : ... .. . ... ... : ... .. . ... ...
ROW 2A : ... .. 7 ... ... ... : ... .. . ... ... ... : ... .. . ... : ... .. . ... : ... .. . ... ... : ... .. . ... ... : ... .. . ... ... : ... .. . ... ...
ROW 2B : ... .. 6 ... ... ... : ... .. . ... ... ... : ... .. . ... : ... .. . ... : ... .. . ... ... : ... .. . ... ... : ... .. . ... ... : ... .. . ... ...
ROW 2C : D#4 00 F ... ... ... : C#5 00 A ... ... ... : D#3 00 . ... : ... .. . ... : ... .. . ... ... : ... .. . ... ... : ... .. . ... ... : ... .. . ... ...
ROW 2D : ... .. E ... ... ... : ... .. 8 ... ... ... : ... .. . ... : ... .. . ... : ... .. . ... ... : ... .. . ... ... : ... .. . ... ... : ... .. . ... ...
ROW 2E : ... .. D ... ... ... : ... .. . ... ... ... : ... .. . ... : ... .. . ... : ... .. . ... ... : ... .. . ... ... : ... .. . ... ... : ... .. . ... ...
ROW 2F : G#4 00 8 ... ... ... : ... .. . ... ... ... : ... .. . ... : ... .. 4 ... : ... .. . ... ... : ... .. . ... ... : ... .. . ... ... : ... .. . ... ...
ROW 30 : ... .. 7 ... ... ... : G#4 00 A ... ... ... : ... .. . ... : ... .. . ... : ... .. . ... ... : ... .. . ... ... : ... .. . ... ... : ... .. . ... ...
ROW 31 : ... .. 6 ... ... ... : ... .. 8 ... ... ... : ... .. . ... : ... .. . ... : ... .. . ... ... : ... .. . ... ... : ... .. . ... ... : ... .. . ... ...
ROW 32 : C#4 00 F ... ... ... : ... .. . ... ... ... : G#3 00 . ... : ... .. . ... : ... .. . ... ... : ... .. . ... ... : ... .. . ... ... : ... .. . ... ...
ROW 33 : ... .. E ... ... ... : ... .. . ... ... ... : ... .. . ... : ... .. . ... : ... .. . ... ... : ... .. . ... ... : ... .. . ... ... : ... .. . ... ...
ROW 34 : ... .. D ... ... ... : F#4 00 A ... ... ... : ... .. . ... : ... .. . ... : ... .. . ... ... : ... .. . ... ... : ... .. . ... ... : ... .. . ... ...
ROW 35 : D#4 00 8 ... ... ... : ... .. 8 ... ... ... : ... .. . ... : ... .. . ... : ... .. . ... ... : ... .. . ... ... : ... .. . ... ... : ... .. . ... ...
ROW 36 : ... .. 7 ... ... ... : ... .. . ... ... ... : ... .. . ... : ... .. . ... : ... .. . ... ... : ... .. . ... ... : ... .. . ... ... : ... .. . ... ...
ROW 37 : ... .. 6 ... ... ... : ... .. . ... ... ... : ... .. . ... : ... .. . ... : ... .. . ... ... : ... .. . ... ... : ... .. . ... ... : ... .. . ... ...
ROW 38 : G#3 00 F ... ... ... : C#4 00 A ... ... ... : F#3 00 . ... : ... .. . ... : ... .. . ... ... : ... .. . ... ... : ... .. . ... ... : ... .. . ... ...
ROW 39 : ... .. E ... ... ... : ... .. 8 ... ... ... : ... .. . ... : ... .. . ... : ... .. . ... ... : ... .. . ... ... : ... .. . ... ... : ... .. . ... ...
ROW 3A : ... .. D ... ... ... : ... .. . ... ... ... : ... .. . ... : ... .. . ... : ... .. . ... ... : ... .. . ... ... : ... .. . ... ... : ... .. . ... ...
ROW 3B : C#4 00 8 ... ... ... : ... .. . ... ... ... : ... .. . ... : ... .. . ... : ... .. . ... ... : ... .. . ... ... : ... .. . ... ... : ... .. . ... ...
ROW 3C : ... .. 7 ... ... ... : G#3 00 A ... ... ... : ... .. . ... : ... .. . ... : ... .. . ... ... : ... .. . ... ... : ... .. . ... ... : ... .. . ... ...
ROW 3D : ... .. 6 ... ... ... : ... .. 8 ... ... ... : ... .. . ... : ... .. . ... : ... .. . ... ... : ... .. . ... ... : ... .. . ... ... : ... .. . ... ...
ROW 3E : F#3 00 F ... ... ... : ... .. . ... ... ... : C#3 00 . ... : ... .. . ... : ... .. . ... ... : ... .. . ... ... : ... .. . ... ... : ... .. . ... ...
ROW 3F : ... .. E ... ... ... : ... .. . ... ... ... : ... .. . ... : ... .. . ... : ... .. . ... ... : ... .. . ... ... : ... .. . ... ... : ... .. 4 ... ...
ROW 40 : ... .. D ... ... ... : F#3 00 A ... ... ... : ... .. . ... : ... .. . ... : ... .. . ... ... : ... .. 3 ... ... : ... .. 3 ... ... : ... .. . ... ...
ROW 41 : G#3 00 8 ... ... ... : ... .. 8 ... ... ... : ... .. . ... : ... .. . ... : ... .. . ... ... : ... .. . ... ... : ... .. . ... ... : ... .. 1 ... ...
ROW 42 : ... .. 7 ... ... ... : ... .. . ... ... ... : ... .. . ... : ... .. . ... : ... .. . ... ... : ... .. . ... ... : ... .. . ... ... : ... .. . ... ...
ROW 43 : ... .. 6 ... ... ... : ... .. . ... ... ... : ... .. . ... : ... .. . ... : ... .. . ... ... : ... .. . ... ... : ... .. . ... ... : ... .. . ... ...
ROW 44 : D#5 00 F ... ... ... : D#6 00 A ... ... ... : C#4 00 . ... : ... .. . ... : ... .. . ... ... : G#2 01 A ... ... : C#3 01 A ... ... : D#3 01 F ... ...
ROW 45 : ... .. E ... ... ... : ... .. 8 ... ... ... : ... .. . ... : ... .. . ... : ... .. . ... ... : ... .. 9 ... ... : ... .. 9 ... ... : ... .. D ... ...
ROW 46 : ... .. D ... ... ... : ... .. . ... ... ... : ... .. . ... : ... .. . ... : ... .. . ... ... : ... .. 8 ... ... : ... .. 8 ... ... : ... .. 8 ... ...
ROW 47 : F#3 00 8 ... ... ... : ... .. . ... ... ... : ... .. . ... : ... .. . ... : ... .. . ... ... : ... .. 7 ... ... : ... .. 7 ... ... : ... .. . ... ...
ROW 48 : ... .. 7 ... ... ... : A#5 00 A ... ... ... : ... .. . ... : ... .. . ... : ... .. . ... ... : ... .. . ... ... : ... .. . ... ... : ... .. . ... ...
ROW 49 : ... .. 6 ... ... ... : ... .. 8 ... ... ... : ... .. . ... : ... .. . ... : ... .. . ... ... : ... .. 6 ... ... : ... .. 6 ... ... : ... .. . ... ...
ROW 4A : A#4 00 F ... ... ... : ... .. . ... ... ... : ... .. . ... : ... .. 3 ... : ... .. . ... ... : ... .. . ... ... : ... .. . ... ... : ... .. . ... ...
ROW 4B : ... .. E ... ... ... : ... .. . ... ... ... : ... .. . ... : ... .. . ... : ... .. . ... ... : ... .. 5 ... ... : ... .. 5 ... ... : ... .. . ... ...
ROW 4C : ... .. D ... ... ... : G#5 00 A ... ... ... : ... .. . ... : ... .. . ... : ... .. . ... ... : ... .. . ... ... : ... .. . ... ... : ... .. . ... ...
ROW 4D : D#5 00 8 ... ... ... : ... .. 8 ... ... ... : ... .. . ... : ... .. . ... : ... .. . ... ... : ... .. . ... ... : ... .. . ... ... : ... .. . ... ...
ROW 4E : ... .. 7 ... ... ... : ... .. . ... ... ... : ... .. . ... : ... .. . ... : ... .. . ... ... : ... .. . ... ... : ... .. . ... ... : ... .. . ... ...
ROW 4F : ... .. 6 ... ... ... : ... .. . ... ... ... : ... .. . ... : ... .. . ... : ... .. . ... ... : ... .. . ... ... : ... .. . ... ... : ... .. . ... ...
ROW 50 : G#4 00 F ... ... ... : D#5 00 A ... ... ... : C-4 00 . P7C : ... .. . ... : ... .. . ... ... : ... .. . ... ... : ... .. . ... ... : ... .. . ... ...
ROW 51 : ... .. E ... ... ... : ... .. 8 ... ... ... : A#3 00 . P86 : ... .. . ... : ... .. . ... ... : ... .. . ... ... : ... .. . ... ... : ... .. . ... ...
ROW 52 : ... .. D ... ... ... : ... .. . ... ... ... : A-3 00 . P84 : ... .. . ... : ... .. . ... ... : ... .. . ... ... : ... .. . ... ... : ... .. . ... ...
ROW 53 : A#4 00 8 ... ... ... : ... .. . ... ... ... : G#3 00 . P83 : ... .. . ... : ... .. . ... ... : ... .. . ... ... : ... .. . ... ... : ... .. . ... ...
ROW 54 : ... .. 7 ... ... ... : A#4 00 A ... ... ... : G-3 00 . ... : ... .. . ... : ... .. . ... ... : ... .. . ... ... : ... .. . ... ... : ... .. . ... ...
ROW 55 : ... .. 6 ... ... ... : ... .. 8 ... ... ... : F#3 00 . P84 : ... .. . ... : ... .. . ... ... : ... .. . ... ... : ... .. . ... ... : ... .. . ... ...
ROW 56 : D#4 00 F ... ... ... : ... .. . ... ... ... : F-3 00 . P86 : ... .. 4 ... : ... .. . ... ... : ... .. . ... ... : ... .. . ... ... : ... .. . ... ...
ROW 57 : ... .. E ... ... ... : ... .. . ... ... ... : E-3 00 . P89 : ... .. . ... : ... .. . ... ... : ... .. . ... ... : ... .. . ... ... : ... .. . ... ...
ROW 58 : ... .. D ... ... ... : G#4 00 A ... ... ... : ... .. . P79 : ... .. . ... : ... .. . ... ... : ... .. . ... ... : ... .. . ... ... : ... .. . ... ...
ROW 59 : G#4 00 8 ... ... ... : ... .. 8 ... ... ... : D#3 00 . P7E : ... .. 5 ... : ... .. . ... ... : ... .. . ... ... : ... .. . ... ... : ... .. . ... ...
ROW 5A : ... .. 7 ... ... ... : ... .. . ... ... ... : D-3 00 . P83 : ... .. . ... : ... .. . ... ... : ... .. . ... ... : ... .. . ... ... : ... .. . ... ...
ROW 5B : ... .. 6 ... ... ... : ... .. . ... ... ... : C#3 00 . P8A : ... .. . ... : ... .. . ... ... : ... .. . ... ... : ... .. . ... ... : ... .. . ... ...
ROW 5C : A#3 00 F ... ... ... : D#4 00 A ... ... ... : ... .. . P7A : ... .. 6 ... : ... .. . ... ... : ... .. . ... ... : ... .. . P8B ... : ... .. . P89 ...
ROW 5D : ... .. E ... ... ... : ... .. 8 ... ... ... : C-3 00 . P82 : ... .. . ... : ... .. . ... ... : ... .. . ... ... : D-3 01 5 P7A ... : E-3 01 8 P78 ...
ROW 5E : ... .. D ... ... ... : ... .. . ... ... ... : B-2 00 . P8B : ... .. . ... : ... .. . ... ... : ... .. . ... ... : ... .. . P78 ... : ... .. . P76 ...
ROW 5F : D#4 00 8 ... ... ... : ... .. . ... ... ... : ... .. . P7B : ... .. 7 ... : ... .. . ... ... : ... .. . ... ... : C#3 01 5 P85 ... : D#3 01 8 P83 ...
ROW 60 : ... .. 7 ... ... ... : A#3 00 A ... ... ... : A#2 00 . P86 : ... .. . ... : ... .. . ... ... : ... .. . ... ... : ... .. . P7D ... : ... .. . P7B ...
ROW 61 : ... .. 6 ... ... ... : ... .. 8 ... ... ... : ... .. . P76 : ... .. . ... : ... .. . ... ... : ... .. . ... ... : C-3 01 5 P8B ... : D-3 01 8 P89 ...
ROW 62 : G#3 00 F ... ... ... : ... .. . ... ... ... : A-2 00 . P82 : ... .. . ... : ... .. . ... ... : ... .. . ... ... : ... .. . P89 ... : ... .. . P87 ...
ROW 63 : ... .. E ... ... ... : ... .. . ... ... ... : ... .. . P72 : ... .. . ... : ... .. . ... ... : ... .. . ... ... : C#3 01 5 P77 ... : D#3 01 8 P75 ...
ROW 64 : ... .. D ... ... ... : G#3 00 A ... ... ... : G#2 00 . P81 : ... .. . ... : ... .. . ... ... : ... .. . ... ... : ... .. . P81 ... : ... .. . P7F ...
ROW 65 : A#3 00 8 ... ... ... : ... .. 8 ... ... ... : ... .. . P71 : ... .. 8 ... : ... .. . ... ... : ... .. . ... ... : ... .. . P8A ... : ... .. . P88 ...
ROW 66 : ... .. 7 ... ... ... : ... .. . ... ... ... : G-2 00 . P81 : ... .. . ... : ... .. . ... ... : ... .. . ... ... : D-3 01 5 P7A ... : E-3 01 8 P78 ...
ROW 67 : ... .. 6 ... ... ... : ... .. . ... ... ... : ... .. . P71 : ... .. . ... : ... .. . ... ... : ... .. . ... ... : ... .. . P78 ... : ... .. . P76 ...
ROW 68 : D#3 00 F ... ... ... : D#3 00 A ... ... ... : G#4 00 . P80 : ... .. 9 ... : ... .. . ... ... : ... .. . ... ... : D#5 01 A P81 ... : A#5 01 8 P7F ...
ROW 69 : ... .. E ... ... ... : ... .. 8 ... ... ... : ... .. . ... : ... .. . ... : ... .. . ... ... : ... .. . ... ... : ... .. 9 ... ... : ... .. 6 ... ...
ROW 6A : ... .. D ... ... ... : ... .. . ... ... ... : ... .. . ... : ... .. . ... : ... .. . ... ... : ... .. . ... ... : ... .. 8 ... ... : ... .. 4 ... ...
ROW 6B : G#3 00 8 ... ... ... : ... .. . ... ... ... : ... .. . ... : ... .. A ... : ... .. . ... ... : ... .. . ... ... : A#4 01 A ... ... : G#5 01 8 ... ...
ROW 6C : ... .. 7 ... ... ... : G#3 00 A ... ... ... : ... .. . ... : ... .. . ... : ... .. . ... ... : ... .. . ... ... : ... .. 9 ... ... : ... .. 6 ... ...
ROW 6D : ... .. 6 ... ... ... : ... .. 8 ... ... ... : --- .. . ... : ... .. . ... : ... .. . ... ... : ... .. . ... ... : ... .. 8 ... ... : ... .. 4 ... ...
ROW 6E : A#2 00 F ... ... ... : ... .. . ... ... ... : D#4 00 . ... : ... .. B ... : ... .. . ... ... : ... .. . ... ... : G#4 01 A ... ... : D#5 01 9 ... ...
ROW 6F : ... .. E ... ... ... : ... .. . ... ... ... : ... .. . ... : ... .. . ... : ... .. . ... ... : ... .. . ... ... : ... .. 9 ... ... : ... .. 7 ... ...
ROW 70 : ... .. D ... ... ... : A#3 00 A ... ... ... : ... .. . ... : ... .. . ... : ... .. . ... ... : ... .. . ... ... : ... .. 8 ... ... : ... .. 4 ... ...
ROW 71 : D#3 00 8 ... ... ... : ... .. 8 ... ... ... : ... .. . ... : ... .. . ... : ... .. . ... ... : ... .. . ... ... : D#4 01 A ... ... : A#4 01 A ... ...
ROW 72 : ... .. 7 ... ... ... : ... .. . ... ... ... : ... .. . ... : ... .. . ... : ... .. . ... ... : ... .. . ... ... : ... .. 9 ... ... : ... .. 8 ... ...
ROW 73 : ... .. 6 ... ... ... : ... .. . ... ... ... : --- .. . ... : ... .. . ... : ... .. . ... ... : ... .. . ... ... : ... .. 8 ... ... : ... .. 5 ... ...
ROW 74 : G#2 00 F ... ... ... : D#4 00 A ... ... ... : A#3 00 . ... : ... .. C ... : ... .. . ... ... : ... .. . ... ... : A#3 01 A ... ... : G#4 01 B ... ...
ROW 75 : ... .. E ... ... ... : ... .. 8 ... ... ... : ... .. . ... : ... .. . ... : ... .. . ... ... : ... .. . ... ... : ... .. 9 ... ... : ... .. 9 ... ...
ROW 76 : ... .. D ... ... ... : ... .. . ... ... ... : ... .. . ... : ... .. . ... : ... .. . ... ... : ... .. 3 ... ... : ... .. 8 ... ... : ... .. 5 ... ...
ROW 77 : A#2 00 8 ... ... ... : ... .. . ... ... ... : ... .. . ... : ... .. D ... : ... .. . ... ... : ... .. . ... ... : G#3 01 A ... ... : D#4 01 C ... ...
ROW 78 : ... .. 7 ... ... ... : G#4 00 A ... ... ... : ... .. . ... : ... .. . ... : ... .. . ... ... : ... .. . ... ... : ... .. 9 ... ... : ... .. A ... ...
ROW 79 : ... .. 6 ... ... ... : ... .. 8 ... ... ... : --- .. . ... : ... .. . ... : ... .. . ... ... : ... .. . ... ... : ... .. 8 ... ... : ... .. 6 ... ...
ROW 7A : D#2 00 F ... ... ... : ... .. . ... ... ... : A#4 00 . ... : ... .. E ... : ... .. . ... ... : ... .. . ... ... : D#3 01 A ... ... : A#3 01 D ... ...
ROW 7B : ... .. E ... ... ... : ... .. . ... ... ... : ... .. . ... : ... .. . ... : ... .. . ... ... : ... .. . ... ... : ... .. 9 ... ... : ... .. B ... ...
ROW 7C : ... .. D ... ... ... : D#5 00 A ... ... ... : ... .. . ... : ... .. . ... : ... .. . ... ... : ... .. . ... ... : ... .. 8 ... ... : ... .. 6 ... ...
ROW 7D : G#2 00 8 ... ... ... : ... .. 8 ... ... ... : ... .. . ... : ... .. F ... : ... .. . ... ... : ... .. . ... ... : A#2 01 A ... ... : G#3 01 E ... ...
ROW 7E : ... .. 7 ... ... ... : ... .. . ... ... ... : ... .. . ... : ... .. . ... : ... .. . ... ... : ... .. . ... ... : ... .. 9 ... ... : ... .. C ... ...
ROW 7F : ... .. 6 ... ... ... : ... .. . ... ... ... : --- .. . ... : ... .. . ... : ... .. . ... ... : ... .. . ... ... : ... .. 8 ... ... : ... .. 7 ... ...
ROW 80 : A#3 00 A ... V01 ... : D#4 00 D ... ... ... : D-5 00 . ... : A-# 00 F ... : ... .. . ... ... : D#3 01 5 ... ... : G#2 01 A ... ... : A#2 01 F ... ...
ROW 81 : ... .. 9 ... ... ... : ... .. B ... ... ... : E-4 00 . ... : ... .. . ... : ... .. . ... ... : ... .. 4 ... ... : ... .. 9 ... ... : ... .. D ... ...
ROW 82 : ... .. 8 ... ... ... : ... .. . ... ... ... : A-3 00 . ... : ... .. . ... : ... .. . ... ... : ... .. . ... ... : ... .. 8 ... ... : ... .. 8 ... ...
ROW 83 : ... .. 6 ... ... ... : ... .. A ... ... ... : G#3 00 . ... : ... .. E ... : ... .. . ... ... : ... .. 3 ... ... : ... .. 7 ... ... : ... .. . ... ...
ROW 84 : ... .. . ... ... ... : A#3 00 D ... ... ... : D#3 00 . ... : ... .. . ... : ... .. . ... ... : ... .. . ... ... : ... .. . ... ... : ... .. . ... ...
ROW 85 : ... .. . ... ... ... : ... .. B ... ... ... : ... .. . ... : ... .. . ... : ... .. . ... ... : ... .. . ... ... : ... .. 6 ... ... : ... .. . ... ...
ROW 86 : ... .. . ... V02 ... : ... .. . ... ... ... : D-3 00 . P75 : ... .. D ... : ... .. . ... ... : ... .. . ... ... : ... .. . ... ... : ... .. . ... ...
ROW 87 : ... .. . ... ... ... : ... .. A ... ... ... : C-3 00 . P84 : ... .. . ... : ... .. . ... ... : ... .. 2 ... ... : ... .. 5 ... ... : ... .. . ... ...
ROW 88 : ... .. . ... ... ... : G#3 00 D ... ... ... : B-2 00 . P7D : ... .. . ... : ... .. . ... ... : ... .. . ... ... : ... .. . ... ... : ... .. . ... ...
ROW 89 : ... .. . ... ... ... : ... .. B ... ... ... : A#2 00 . P78 : ... .. C ... : ... .. . ... ... : ... .. . ... ... : ... .. . ... ... : ... .. . ... ...
ROW 8A : ... .. . ... ... ... : ... .. . ... ... ... : A-2 00 . P74 : ... .. . ... : ... .. . ... ... : ... .. . ... ... : ... .. . ... ... : ... .. . ... ...
ROW 8B : ... .. . ... ... ... : ... .. A ... ... ... : --- .. . ... : ... .. . ... : ... .. . ... ... : ... .. . ... ... : ... .. . ... ... : ... .. . ... ...
ROW 8C : ... .. . ... V00 ... : D#3 00 D ... ... ... : D#3 00 . P80 : ... .. B ... : ... .. . ... ... : ... .. . ... ... : ... .. . ... ... : ... .. . ... ...
ROW 8D : ... .. . ... ... ... : ... .. B ... ... ... : ... .. . ... : ... .. . ... : ... .. . ... ... : ... .. . ... ... : ... .. . ... ... : ... .. . ... ...
ROW 8E : ... .. . ... ... ... : ... .. . ... ... ... : ... .. . ... : ... .. . ... : ... .. . ... ... : ... .. . ... ... : ... .. . ... ... : ... .. . ... ...
ROW 8F : ... .. . ... ... ... : ... .. A ... ... ... : ... .. . ... : ... .. A ... : ... .. . ... ... : ... .. 3 ... ... : ... .. . ... ... : ... .. . ... ...
ROW 90 : ... .. . ... ... ... : A#2 00 D ... ... ... : ... .. . ... : ... .. . ... : ... .. . ... ... : ... .. . ... ... : ... .. . ... ... : ... .. . ... ...
ROW 91 : ... .. . ... ... ... : ... .. B ... ... ... : --- .. . ... : ... .. . ... : ... .. . ... ... : ... .. . ... ... : ... .. . ... ... : ... .. . ... ...
ROW 92 : ... .. . ... V01 ... : ... .. . ... ... ... : D#3 00 . ... : ... .. 9 ... : ... .. . ... ... : ... .. . ... ... : ... .. . ... ... : ... .. . ... ...
ROW 93 : ... .. . ... ... ... : ... .. A ... ... ... : ... .. . ... : ... .. . ... : ... .. . ... ... : ... .. . ... ... : ... .. . ... ... : ... .. . ... ...
ROW 94 : ... .. . ... ... ... : G#2 00 D ... ... ... : ... .. . ... : ... .. . ... : ... .. . ... ... : ... .. . ... ... : ... .. . ... ... : ... .. . ... ...
ROW 95 : ... .. 7 ... ... ... : ... .. B ... ... ... : ... .. . ... : ... .. 8 ... : ... .. . ... ... : ... .. . ... ... : ... .. . ... ... : ... .. . ... ...
ROW 96 : ... .. . ... ... ... : ... .. . ... ... ... : ... .. . ... : ... .. . ... : ... .. . ... ... : ... .. . ... ... : ... .. . ... ... : ... .. . ... ...
ROW 97 : ... .. . ... ... ... : ... .. A ... ... ... : --- .. . ... : ... .. . ... : ... .. . ... ... : ... .. . ... ... : ... .. . ... ... : ... .. . ... ...
ROW 98 : ... .. . ... V02 ... : D#2 00 D ... ... ... : C-5 00 . ... : 7-# 00 D ... : ... .. . ... ... : ... .. . ... ... : ... .. . ... ... : ... .. . ... ...
ROW 99 : ... .. . ... ... ... : ... .. B ... ... ... : D-4 00 . ... : ... .. B ... : ... .. . ... ... : ... .. . ... ... : ... .. . ... ... : ... .. . ... ...
ROW 9A : ... .. . ... ... ... : ... .. . ... ... ... : G-3 00 . ... : ... .. . ... : ... .. . ... ... : ... .. . ... ... : ... .. . ... ... : ... .. . ... ...
ROW 9B : ... .. . ... ... ... : ... .. A ... ... ... : F#3 00 . ... : ... .. A ... : ... .. . ... ... : ... .. . ... ... : ... .. . ... ... : ... .. . ... ...
ROW 9C : ... .. . ... ... ... : A#1 00 D ... ... ... : C#3 00 . ... : ... .. 8 ... : ... .. . ... ... : ... .. . ... ... : ... .. . ... ... : ... .. . ... ...
ROW 9D : ... .. . ... ... ... : ... .. B ... ... ... : --- .. . ... : ... .. 7 ... : ... .. . ... ... : ... .. . ... ... : ... .. . ... ... : ... .. . ... ...
ROW 9E : ... .. . ... V03 ... : ... .. . ... ... ... : D#3 00 . ... : ... .. 6 ... : ... .. . ... ... : ... .. . ... ... : ... .. . ... ... : ... .. . ... ...
ROW 9F : ... .. . ... ... ... : ... .. A ... ... ... : ... .. . ... : ... .. . ... : ... .. . ... ... : ... .. . ... ... : ... .. . ... ... : ... .. 4 ... ...
ROW A0 : ... .. . ... ... ... : G#1 00 D ... ... ... : ... .. . ... : ... .. 5 ... : ... .. . ... ... : ... .. . ... ... : ... .. 3 ... ... : ... .. . ... ...
ROW A1 : ... .. . ... ... ... : ... .. B ... ... ... : ... .. . ... : ... .. . ... : ... .. . ... ... : ... .. . ... ... : ... .. . ... ... : ... .. 1 ... ...
ROW A2 : ... .. . ... ... ... : ... .. . ... ... ... : ... .. . ... : ... .. 4 ... : ... .. . ... ... : ... .. . ... ... : ... .. . ... ... : ... .. . ... ...
ROW A3 : ... .. . ... ... ... : ... .. A ... ... ... : --- .. . ... : ... .. . ... : ... .. . ... ... : ... .. . ... ... : ... .. . ... ... : ... .. . ... ...
ROW A4 : B-3 00 B ... V02 ... : E-4 00 D ... ... ... : D-5 00 . ... : ... .. D ... : ... .. . ... ... : E-3 01 6 ... ... : A-2 01 A ... ... : B-2 01 F ... ...
ROW A5 : ... .. A ... ... ... : ... .. B ... ... ... : E-4 00 . ... : ... .. B ... : ... .. . ... ... : ... .. . ... ... : ... .. 9 ... ... : ... .. D ... ...
ROW A6 : ... .. 9 ... ... ... : ... .. . ... ... ... : A-3 00 . ... : ... .. . ... : ... .. . ... ... : ... .. 5 ... ... : ... .. 8 ... ... : ... .. 8 ... ...
ROW A7 : ... .. 8 ... ... ... : ... .. A ... ... ... : G#3 00 . ... : C-# 00 8 ... : ... .. . ... ... : ... .. 4 ... ... : ... .. 7 ... ... : ... .. . ... ...
ROW A8 : ... .. . ... ... ... : B-3 00 D ... ... ... : D#3 00 . ... : ... .. . ... : ... .. . ... ... : ... .. . ... ... : ... .. . ... ... : ... .. . ... ...
ROW A9 : ... .. . ... ... ... : ... .. B ... ... ... : --- .. . ... : ... .. . ... : ... .. . ... ... : ... .. . ... ... : ... .. 6 ... ... : ... .. . ... ...
ROW AA : ... .. . ... V00 ... : ... .. . ... ... ... : D#3 00 . ... : ... .. 6 ... : ... .. . ... ... : ... .. . ... ... : ... .. . ... ... : ... .. . ... ...
ROW AB : ... .. . ... ... ... : ... .. A ... ... ... : ... .. . ... : ... .. . ... : ... .. . ... ... : ... .. 3 ... ... : ... .. 5 ... ... : ... .. . ... ...
ROW AC : ... .. . ... ... ... : A-3 00 D ... ... ... : ... .. . ... : ... .. . ... : ... .. . ... ... : ... .. . ... ... : ... .. . ... ... : ... .. . ... ...
ROW AD : ... .. . ... ... ... : ... .. B ... ... ... : ... .. . ... : ... .. 5 ... : ... .. . ... ... : ... .. . ... ... : ... .. . ... ... : ... .. . ... ...
ROW AE : ... .. . ... ... ... : ... .. . ... ... ... : ... .. . ... : ... .. . ... : ... .. . ... ... : ... .. . ... ... : ... .. . ... ... : ... .. . ... ...
ROW AF : ... .. . ... ... ... : ... .. A ... ... ... : --- .. . ... : ... .. . ... : ... .. . ... ... : ... .. . ... ... : ... .. . ... ... : ... .. . ... ...
ROW B0 : ... .. . ... V03 ... : E-3 00 D ... ... ... : D#3 00 . ... : D-# 00 F ... : ... .. . ... ... : ... .. . ... ... : ... .. . ... ... : ... .. . ... ...
ROW B1 : ... .. . ... ... ... : ... .. B ... ... ... : ... .. . ... : ... .. C ... : ... .. . ... ... : ... .. . ... ... : ... .. . ... ... : ... .. . ... ...
ROW B2 : ... .. . ... ... ... : ... .. . ... ... ... : ... .. . ... : ... .. 6 ... : ... .. . ... ... : ... .. . ... ... : ... .. . ... ... : ... .. . ... ...
ROW B3 : ... .. . ... ... ... : ... .. A ... ... ... : ... .. . ... : ... .. 3 ... : ... .. . ... ... : ... .. . ... ... : ... .. . ... ... : ... .. . ... ...
ROW B4 : ... .. . ... ... ... : B-2 00 D ... ... ... : ... .. . ... : ... .. F ... : ... .. . ... ... : ... .. . ... ... : ... .. . ... ... : ... .. . ... ...
ROW B5 : ... .. . ... ... ... : ... .. B ... ... ... : ... .. . ... : ... .. C ... : ... .. . ... ... : ... .. . ... ... : ... .. . ... ... : ... .. . ... ...
ROW B6 : ... .. . ... V02 ... : ... .. . ... ... ... : D-3 00 . P75 : ... .. 6 ... : ... .. . ... ... : ... .. . ... ... : ... .. . ... ... : ... .. . ... ...
ROW B7 : ... .. . ... ... ... : ... .. A ... ... ... : C-3 00 . P84 : ... .. 3 ... : ... .. . ... ... : ... .. . ... ... : ... .. . ... ... : ... .. . ... ...
ROW B8 : ... .. . ... ... ... : A-2 00 D ... ... ... : B-2 00 . P7D : ... .. F ... : ... .. . ... ... : ... .. . ... ... : ... .. . ... ... : ... .. . ... ...
ROW B9 : ... .. . ... ... ... : ... .. B ... ... ... : A#2 00 . P78 : ... .. C ... : ... .. . ... ... : ... .. 4 ... ... : ... .. . ... ... : ... .. . ... ...
ROW BA : ... .. . ... ... ... : ... .. . ... ... ... : A-2 00 . P74 : ... .. 6 ... : ... .. . ... ... : ... .. . ... ... : ... .. . ... ... : ... .. . ... ...
ROW BB : ... .. . ... ... ... : ... .. A ... ... ... : --- .. . ... : ... .. 3 ... : ... .. . ... ... : ... .. . ... ... : ... .. . ... ... : ... .. . ... ...
ROW BC : ... .. . ... V00 ... : E-2 00 D ... ... ... : D-4 00 . P80 : 7-# 00 F ... : ... .. . ... ... : ... .. . ... ... : ... .. . ... ... : ... .. . ... ...
ROW BD : ... .. . ... ... ... : ... .. B ... ... ... : E-3 00 . ... : ... .. C ... : ... .. . ... ... : ... .. . ... ... : ... .. . ... ... : ... .. . ... ...
ROW BE : ... .. . ... ... ... : ... .. . ... ... ... : A-2 00 . ... : ... .. A ... : ... .. . ... ... : ... .. . ... ... : ... .. . ... ... : ... .. . ... ...
ROW BF : ... .. . ... ... ... : ... .. A ... ... ... : G#2 00 . ... : ... .. 8 ... : ... .. . ... ... : ... .. . ... ... : ... .. . ... ... : ... .. . ... ...
ROW C0 : ... .. . ... ... ... : B-1 00 D ... ... ... : D#2 00 . ... : ... .. 7 ... : ... .. . ... ... : ... .. . ... ... : ... .. . ... ... : ... .. . ... ...
ROW C1 : ... .. . ... ... ... : ... .. B ... ... ... : --- .. . ... : ... .. 4 ... : ... .. . ... ... : ... .. . ... ... : ... .. . ... ... : ... .. . ... ...
ROW C2 : ... .. . ... V02 ... : ... .. . ... ... ... : D#2 00 . ... : ... .. 2 ... : ... .. . ... ... : ... .. . ... ... : ... .. . ... ... : ... .. . ... ...
ROW C3 : ... .. . ... ... ... : ... .. A ... ... ... : ... .. . ... : ... .. 1 ... : ... .. . ... ... : ... .. . ... ... : ... .. . ... ... : ... .. . ... ...
ROW C4 : ... .. . ... ... ... : A-1 00 D ... ... ... : ... .. . ... : ... .. 0 ... : ... .. . ... ... : ... .. . ... ... : ... .. . ... ... : ... .. . ... ...
ROW C5 : ... .. . ... ... ... : ... .. B ... ... ... : ... .. . ... : ... .. . ... : ... .. . ... ... : ... .. . ... ... : ... .. . ... ... : ... .. . ... ...
ROW C6 : ... .. . ... ... ... : ... .. . ... ... ... : ... .. . ... : ... .. . ... : ... .. . ... ... : ... .. . ... ... : ... .. . ... ... : ... .. . ... ...
ROW C7 : ... .. . ... ... ... : ... .. A ... ... ... : --- .. . ... : ... .. . ... : ... .. . ... ... : ... .. . ... ... : ... .. . ... ... : ... .. . ... ...
ROW C8 : A#3 00 8 P7E V01 ... : E-1 00 D ... ... ... : C-4 00 . ... : ... .. F ... : ... .. . ... ... : D#3 01 4 P84 ... : ... .. . P71 ... : A#2 01 8 P8D ...
ROW C9 : A-3 00 8 P7C ... ... : ... .. B ... ... ... : D-3 00 . ... : ... .. C ... : ... .. . ... ... : D-3 01 4 P89 ... : G#2 01 5 P80 ... : ... .. . P7D ...
ROW CA : G#3 00 8 P7B ... ... : ... .. . ... ... ... : G-2 00 . ... : ... .. A ... : ... .. . ... ... : ... .. . P79 ... : G-2 01 5 P90 ... : A-2 01 8 P8E ...
ROW CB : G-3 00 8 ... ... ... : ... .. A ... ... ... : F#2 00 . ... : ... .. 8 ... : ... .. . ... ... : C#3 01 4 P80 ... : ... .. . P80 ... : ... .. . P7E ...
ROW CC : F#3 00 8 P7C ... ... : A-1 00 D ... ... ... : C#2 00 . ... : ... .. F ... : ... .. . ... ... : C-3 01 4 P88 ... : ... .. . P70 ... : G#2 01 8 P91 ...
ROW CD : F-3 00 8 P7E ... ... : ... .. B ... ... ... : --- .. . ... : ... .. C ... : ... .. . ... ... : ... .. . P78 ... : F#2 01 5 P82 ... : ... .. . P81 ...
ROW CE : E-3 00 9 P81 V02 ... : ... .. . ... ... ... : D#2 00 . ... : ... .. A ... : ... .. . ... ... : B-2 01 4 P81 ... : ... .. . P72 ... : ... .. . P71 ...
ROW CF : D#3 00 9 P86 ... ... : ... .. A ... ... ... : ... .. . ... : ... .. 8 ... : ... .. . ... ... : A#2 01 4 P8C ... : F-2 01 5 P86 ... : G-2 01 8 P85 ...
ROW D0 : ... .. . P76 ... ... : B-1 00 D ... ... ... : ... .. . ... : ... .. F ... : ... .. . ... ... : ... .. . P7C ... : ... .. . P76 ... : ... .. . P75 ...
ROW D1 : D-3 00 9 P7B ... ... : ... .. B ... ... ... : ... .. . ... : ... .. C ... : ... .. . ... ... : A-2 01 4 P88 ... : E-2 01 5 P8C ... : F#2 01 8 P8C ...
ROW D2 : C#3 00 9 P82 ... ... : ... .. . ... ... ... : ... .. . ... : ... .. A ... : ... .. . ... ... : ... .. . P78 ... : ... .. . P7C ... : ... .. . P7C ...
ROW D3 : C-3 00 9 P8A ... ... : ... .. A ... ... ... : --- .. . ... : ... .. 8 ... : ... .. . ... ... : G#2 01 4 P87 ... : D#2 01 5 P94 ... : ... .. . P6C ...
ROW D4 : ... .. . P7A V00 ... : E-2 00 D ... ... ... : E-2 00 . ... : 5-# 00 F ... : ... .. . ... ... : ... .. . P77 ... : ... .. . P84 ... : F-2 01 8 P85 ...
ROW D5 : B-2 00 9 P83 ... ... : ... .. B ... ... ... : ... .. . ... : ... .. C ... : ... .. . ... ... : G-2 01 4 P87 ... : ... .. . P74 ... : ... .. 4 P75 ...
ROW D6 : ... .. . P73 ... ... : ... .. . ... ... ... : ... .. . ... : ... .. A ... : ... .. . ... ... : ... .. . P77 ... : D-2 01 3 P8F ... : E-2 01 4 P91 ...
ROW D7 : A#2 00 9 P7E ... ... : ... .. A ... ... ... : ... .. . ... : ... .. 8 ... : ... .. . ... ... : F#2 01 4 P89 ... : ... .. . P7F ... : ... .. 1 P81 ...
ROW D8 : A-2 00 9 P8A ... ... : A-2 00 D ... ... ... : ... .. . ... : ... .. F ... : ... .. . ... ... : ... .. . P79 ... : ... .. . P6F ... : ... .. . P71 ...
ROW D9 : ... .. . P7A ... ... : ... .. B ... ... ... : --- .. . ... : ... .. C ... : ... .. . ... ... : F-2 01 4 P8D ... : C#2 01 3 P8C ... : D#2 01 1 P8F ...
ROW DA : G#2 00 9 P89 V01 ... : ... .. . ... ... ... : D#2 00 . ... : ... .. A ... : ... .. . ... ... : ... .. . P7D ... : ... .. . P7C ... : ... .. . P7F ...
ROW DB : ... .. . P79 ... ... : ... .. A ... ... ... : ... .. . ... : ... .. 8 ... : ... .. . ... ... : E-2 01 4 P93 ... : ... .. . P6C ... : ... .. . P6F ...
ROW DC : G-2 00 9 P89 ... ... : E-3 00 D ... ... ... : ... .. . ... : ... .. F ... : ... .. . ... ... : ... .. . P83 ... : C-2 01 3 P8C ... : D-2 01 1 P90 ...
ROW DD : ... .. . P79 ... ... : ... .. B ... ... ... : ... .. . ... : ... .. C ... : ... .. . ... ... : ... .. . P73 ... : ... .. . P7C ... : ... .. . P80 ...
ROW DE : F#2 00 9 P8B ... ... : ... .. . ... ... ... : ... .. . ... : ... .. A ... : ... .. . ... ... : D#2 01 4 P8B ... : ... .. . P6C ... : ... .. 0 P70 ...
ROW DF : ... .. . P7B ... ... : ... .. A ... ... ... : --- .. . ... : ... .. 8 ... : ... .. . ... ... : ... .. . P7B ... : B-1 01 3 P8F ... : C#2 01 0 P93 ...
ROW E0 : C#4 00 F P80 ... ... : F#4 00 D ... ... ... : D-5 00 . ... : 7-# 00 D ... : ... .. . ... ... : F#3 01 A P7F ... : B-2 01 A P81 ... : C#3 01 F P7F ...
ROW E1 : ... .. E ... ... ... : ... .. B ... ... ... : E-4 00 . ... : ... .. B ... : ... .. . ... ... : ... .. 9 ... ... : ... .. 9 ... ... : ... .. D ... ...
ROW E2 : ... .. D ... ... ... : ... .. . ... ... ... : A-3 00 . ... : ... .. . ... : ... .. . ... ... : ... .. 8 ... ... : ... .. 8 ... ... : ... .. 8 ... ...
ROW E3 : ... .. A ... ... ... : ... .. A ... ... ... : G#3 00 . ... : ... .. A ... : ... .. . ... ... : ... .. 7 ... ... : ... .. 7 ... ... : ... .. . ... ...
ROW E4 : ... .. . ... ... ... : C#4 00 D ... ... ... : D#3 00 . ... : ... .. 8 ... : ... .. . ... ... : ... .. . ... ... : ... .. . ... ... : ... .. . ... ...
ROW E5 : ... .. . ... ... ... : ... .. B ... ... ... : ... .. . ... : ... .. 7 ... : ... .. . ... ... : ... .. 6 ... ... : ... .. 6 ... ... : ... .. . ... ...
ROW E6 : ... .. . ... V02 ... : ... .. . ... ... ... : D-3 00 . P75 : ... .. 6 ... : ... .. . ... ... : ... .. . ... ... : ... .. . ... ... : ... .. . ... ...
ROW E7 : ... .. . ... ... ... : ... .. A ... ... ... : C-3 00 . P84 : ... .. . ... : ... .. . ... ... : ... .. 5 ... ... : ... .. 5 ... ... : ... .. . ... ...
ROW E8 : ... .. . ... ... ... : B-3 00 D ... ... ... : B-2 00 . P7D : ... .. 5 ... : ... .. . ... ... : ... .. . ... ... : ... .. . ... ... : ... .. . ... ...
ROW E9 : ... .. . ... ... ... : ... .. B ... ... ... : A#2 00 . P78 : ... .. . ... : ... .. . ... ... : ... .. . ... ... : ... .. . ... ... : ... .. . ... ...
ROW EA : ... .. . ... ... ... : ... .. . ... ... ... : A-2 00 . P74 : ... .. 4 ... : ... .. . ... ... : ... .. . ... ... : ... .. . ... ... : ... .. . ... ...
ROW EB : ... .. . ... ... ... : ... .. A ... ... ... : --- .. . ... : ... .. . ... : ... .. . ... ... : ... .. . ... ... : ... .. . ... ... : ... .. . ... ...
ROW EC : ... .. . ... V00 ... : F#3 00 D ... ... ... : D#3 00 . P80 : D-# 00 F ... : ... .. . ... ... : ... .. . ... ... : ... .. . ... ... : ... .. . ... ...
ROW ED : ... .. . ... ... ... : ... .. B ... ... ... : ... .. . ... : ... .. C ... : ... .. . ... ... : ... .. . ... ... : ... .. . ... ... : ... .. . ... ...
ROW EE : ... .. . ... ... ... : ... .. . ... ... ... : ... .. . ... : ... .. 6 ... : ... .. . ... ... : ... .. . ... ... : ... .. . ... ... : ... .. . ... ...
ROW EF : ... .. . ... ... ... : ... .. A ... ... ... : ... .. . ... : ... .. 3 ... : ... .. . ... ... : ... .. . ... ... : ... .. . ... ... : ... .. . ... ...
ROW F0 : ... .. . ... ... ... : C#3 00 D ... ... ... : ... .. . ... : ... .. F ... : ... .. . ... ... : ... .. . ... ... : ... .. . ... ... : ... .. . ... ...
ROW F1 : ... .. . ... ... ... : ... .. B ... ... ... : --- .. . ... : ... .. C ... : ... .. . ... ... : ... .. . ... ... : ... .. . ... ... : ... .. . ... ...
ROW F2 : ... .. . ... V01 ... : ... .. . ... ... ... : D#3 00 . ... : ... .. 6 ... : ... .. . ... ... : ... .. . ... ... : ... .. . ... ... : ... .. . ... ...
ROW F3 : ... .. . ... ... ... : ... .. A ... ... ... : ... .. . ... : ... .. 3 ... : ... .. . ... ... : ... .. . ... ... : ... .. . ... ... : ... .. . ... ...
ROW F4 : ... .. . ... ... ... : B-2 00 D ... ... ... : ... .. . ... : ... .. F ... : ... .. . ... ... : ... .. . ... ... : ... .. . ... ... : ... .. . ... ...
ROW F5 : ... .. . ... ... ... : ... .. B ... ... ... : ... .. . ... : ... .. C ... : ... .. . ... ... : ... .. . ... ... : ... .. . ... ... : ... .. . ... ...
ROW F6 : ... .. . ... ... ... : ... .. . ... ... ... : ... .. . ... : ... .. 6 ... : ... .. . ... ... : ... .. . ... ... : ... .. . ... ... : ... .. . ... ...
ROW F7 : ... .. . ... ... ... : ... .. A ... ... ... : --- .. . ... : ... .. 3 ... : ... .. . ... ... : ... .. . ... ... : ... .. . ... ... : ... .. . ... ...
ROW F8 : ... .. . ... V02 ... : F#2 00 D ... ... ... : C-5 00 . ... : 7-# 00 D ... : ... .. . ... ... : ... .. . ... ... : ... .. . ... ... : ... .. . ... ...
ROW F9 : ... .. . ... ... ... : ... .. B ... ... ... : D-4 00 . ... : ... .. B ... : ... .. . ... ... : ... .. . ... ... : ... .. . ... ... : ... .. . ... ...
ROW FA : ... .. . ... ... ... : ... .. . ... ... ... : G-3 00 . ... : ... .. . ... : ... .. . ... ... : ... .. . ... ... : ... .. . ... ... : ... .. . ... ...
ROW FB : ... .. . ... ... ... : ... .. A ... ... ... : F#3 00 . ... : ... .. A ... : ... .. . ... ... : ... .. . ... ... : ... .. . ... ... : ... .. . ... ...
ROW FC : ... .. . ... ... ... : C#2 00 D ... ... ... : C#3 00 . ... : ... .. 8 ... : ... .. . ... ... : ... .. . ... ... : ... .. . ... ... : ... .. . ... ...
ROW FD : ... .. . ... ... ... : ... .. B ... ... ... : --- .. . ... : ... .. 7 ... : ... .. . ... ... : ... .. . ... ... : ... .. . ... ... : ... .. . ... ...
ROW FE : ... .. . ... V03 ... : ... .. . ... ... ... : D#3 00 . ... : ... .. 6 ... : ... .. . ... ... : ... .. . ... ... : ... .. . ... ... : ... .. . ... ...
ROW FF : ... .. . ... ... ... : ... .. A ... ... ... : ... .. . ... : ... .. . ... : ... .. . ... ... : ... .. . ... ... : ... .. . ... ... : ... .. 4 ... ...

PATTERN 02
ROW 00 : ... .. . ... ... ... : B-1 00 D ... ... ... : ... .. . ... : ... .. 5 ... : ... .. . ... ... : ... .. . ... ... : ... .. 3 ... ... : ... .. . ... ...
ROW 01 : ... .. . ... ... ... : ... .. B ... ... ... : ... .. . ... : ... .. . ... : ... .. . ... ... : ... .. . ... ... : ... .. . ... ... : ... .. 1 ... ...
ROW 02 : ... .. . ... ... ... : ... .. . ... ... ... : ... .. . ... : ... .. 4 ... : ... .. . ... ... : ... .. . ... ... : ... .. . ... ... : ... .. . ... ...
ROW 03 : ... .. . ... ... ... : ... .. A ... ... ... : --- .. . ... : ... .. . ... : ... .. . ... ... : ... .. . ... ... : ... .. . ... ... : ... .. . ... ...
ROW 04 : D#4 00 F ... V02 ... : G#4 00 D ... ... ... : D-5 00 . ... : ... .. D ... : ... .. . ... ... : G#3 01 A ... ... : C#3 01 A ... ... : D#3 01 F ... ...
ROW 05 : ... .. E ... ... ... : ... .. B ... ... ... : E-4 00 . ... : ... .. B ... : ... .. . ... ... : ... .. 9 ... ... : ... .. 9 ... ... : ... .. D ... ...
ROW 06 : ... .. D ... ... ... : ... .. . ... ... ... : A-3 00 . ... : ... .. . ... : ... .. . ... ... : ... .. 8 ... ... : ... .. 8 ... ... : ... .. 8 ... ...
ROW 07 : ... .. A ... ... ... : ... .. A ... ... ... : G#3 00 . ... : ... .. A ... : ... .. . ... ... : ... .. 7 ... ... : ... .. 7 ... ... : ... .. . ... ...
ROW 08 : ... .. . ... ... ... : D#4 00 D ... ... ... : D#3 00 . ... : ... .. 8 ... : ... .. . ... ... : ... .. . ... ... : ... .. . ... ... : ... .. . ... ...
ROW 09 : ... .. . ... ... ... : ... .. B ... ... ... : --- .. . ... : ... .. 7 ... : ... .. . ... ... : ... .. 6 ... ... : ... .. 6 ... ... : ... .. . ... ...
ROW 0A : ... .. . ... V00 ... : ... .. . ... ... ... : D#3 00 . ... : ... .. 6 ... : ... .. . ... ... : ... .. . ... ... : ... .. . ... ... : ... .. . ... ...
ROW 0B : ... .. . ... ... ... : ... .. A ... ... ... : ... .. . ... : ... .. . ... : ... .. . ... ... : ... .. 5 ... ... : ... .. 5 ... ... : ... .. . ... ...
ROW 0C : ... .. . ... ... ... : C#4 00 D ... ... ... : ... .. . ... : ... .. 5 ... : ... .. . ... ... : ... .. . ... ... : ... .. . ... ... : ... .. . ... ...
ROW 0D : ... .. . ... ... ... : ... .. B ... ... ... : ... .. . ... : ... .. . ... : ... .. . ... ... : ... .. . ... ... : ... .. . ... ... : ... .. . ... ...
ROW 0E : ... .. . ... ... ... : ... .. . ... ... ... : ... .. . ... : ... .. 4 ... : ... .. . ... ... : ... .. . ... ... : ... .. . ... ... : ... .. . ... ...
ROW 0F : ... .. . ... ... ... : ... .. A ... ... ... : --- .. . ... : ... .. . ... : ... .. . ... ... : ... .. . ... ... : ... .. . ... ... : ... .. . ... ...
ROW 10 : ... .. . ... V03 ... : G#3 00 D ... ... ... : D#3 00 . ... : 1-# 00 F ... : ... .. . ... ... : ... .. . ... ... : ... .. . ... ... : ... .. . ... ...
ROW 11 : ... .. . ... ... ... : ... .. B ... ... ... : ... .. . ... : ... .. C ... : ... .. . ... ... : ... .. . ... ... : ... .. . ... ... : ... .. . ... ...
ROW 12 : ... .. . ... ... ... : ... .. . ... ... ... : ... .. . ... : ... .. 6 ... : ... .. . ... ... : ... .. . ... ... : ... .. . ... ... : ... .. . ... ...
ROW 13 : ... .. . ... ... ... : ... .. A ... ... ... : ... .. . ... : ... .. 3 ... : ... .. . ... ... : ... .. . ... ... : ... .. . ... ... : ... .. . ... ...
ROW 14 : ... .. . ... ... ... : D#3 00 D ... ... ... : ... .. . ... : ... .. 2 ... : ... .. . ... ... : ... .. . ... ... : ... .. . ... ... : ... .. . ... ...
ROW 15 : ... .. . ... ... ... : ... .. B ... ... ... : ... .. . ... : ... .. 0 ... : ... .. . ... ... : ... .. . ... ... : ... .. . ... ... : ... .. . ... ...
ROW 16 : ... .. . ... V02 ... : ... .. . ... ... ... : D-3 00 . P75 : ... .. F ... : ... .. . ... ... : ... .. . ... ... : ... .. . ... ... : ... .. . ... ...
ROW 17 : ... .. . ... ... ... : ... .. A ... ... ... : C-3 00 . P84 : ... .. C ... : ... .. . ... ... : ... .. . ... ... : ... .. . ... ... : ... .. . ... ...
ROW 18 : ... .. . ... ... ... : C#3 00 D ... ... ... : B-2 00 . P7D : ... .. 6 ... : ... .. . ... ... : ... .. . ... ... : ... .. . ... ... : ... .. . ... ...
ROW 19 : ... .. . ... ... ... : ... .. B ... ... ... : A#2 00 . P78 : ... .. 3 ... : ... .. . ... ... : ... .. . ... ... : ... .. . ... ... : ... .. . ... ...
ROW 1A : ... .. . ... ... ... : ... .. . ... ... ... : A-2 00 . P74 : ... .. 2 ... : ... .. . ... ... : ... .. . ... ... : ... .. . ... ... : ... .. . ... ...
ROW 1B : ... .. . ... ... ... : ... .. A ... ... ... : --- .. . ... : ... .. 0 ... : ... .. . ... ... : ... .. . ... ... : ... .. . ... ... : ... .. . ... ...
ROW 1C : ... .. . ... V00 ... : G#2 00 D ... ... ... : D-4 00 . P80 : ... .. F ... : ... .. . ... ... : ... .. . ... ... : ... .. . ... ... : ... .. . ... ...
ROW 1D : ... .. . ... ... ... : ... .. B ... ... ... : E-3 00 . ... : ... .. C ... : ... .. . ... ... : ... .. . ... ... : ... .. . ... ... : ... .. . ... ...
ROW 1E : ... .. . ... ... ... : ... .. . ... ... ... : A-2 00 . ... : ... .. 6 ... : ... .. . ... ... : ... .. . ... ... : ... .. . ... ... : ... .. . ... ...
ROW 1F : ... .. . ... ... ... : ... .. A ... ... ... : G#2 00 . ... : ... .. 3 ... : ... .. . ... ... : ... .. . ... ... : ... .. . ... ... : ... .. . ... ...
ROW 20 : ... .. . ... ... ... : D#2 00 D ... ... ... : D#2 00 . ... : ... .. 2 ... : ... .. . ... ... : ... .. . ... ... : ... .. . ... ... : ... .. . ... ...
ROW 21 : ... .. . ... ... ... : ... .. B ... ... ... : --- .. . ... : ... .. 0 ... : ... .. . ... ... : ... .. . ... ... : ... .. . ... ... : ... .. . ... ...
ROW 22 : ... .. . ... V02 ... : ... .. . ... ... ... : D#2 00 . ... : ... .. F ... : ... .. . ... ... : ... .. . ... ... : ... .. . ... ... : ... .. . ... ...
ROW 23 : ... .. . ... ... ... : ... .. A ... ... ... : ... .. . ... : ... .. C ... : ... .. . ... ... : ... .. . ... ... : ... .. . ... ... : ... .. . ... ...
ROW 24 : ... .. . ... ... ... : C#2 00 D ... ... ... : ... .. . ... : ... .. 6 ... : ... .. . ... ... : ... .. . ... ... : ... .. . ... ... : ... .. . ... ...
ROW 25 : ... .. . ... ... ... : ... .. B ... ... ... : ... .. . ... : ... .. 3 ... : ... .. . ... ... : ... .. . ... ... : ... .. . ... ... : ... .. . ... ...
ROW 26 : ... .. . ... ... ... : ... .. . ... ... ... : ... .. . ... : ... .. 2 ... : ... .. . ... ... : ... .. . ... ... : ... .. . ... ... : ... .. . ... ...
ROW 27 : ... .. . ... ... ... : ... .. A ... ... ... : --- .. . ... : ... .. 0 ... : ... .. . ... ... : ... .. . ... ... : ... .. . ... ... : ... .. . ... ...
ROW 28 : ... .. . ... V01 ... : G#1 00 D ... ... ... : C-4 00 . ... : 9-# 00 D ... : ... .. . ... ... : ... .. . ... ... : ... .. . ... ... : ... .. . ... ...
ROW 29 : ... .. . ... ... ... : ... .. B ... ... ... : D-3 00 . ... : ... .. B ... : ... .. . ... ... : ... .. . ... ... : ... .. . ... ... : ... .. . ... ...
ROW 2A : ... .. . ... ... ... : ... .. . ... ... ... : G-2 00 . ... : ... .. . ... : ... .. . ... ... : ... .. . ... ... : ... .. . ... ... : ... .. . ... ...
ROW 2B : ... .. . ... ... ... : ... .. A ... ... ... : F#2 00 . ... : ... .. A ... : ... .. . ... ... : ... .. . ... ... : ... .. . ... ... : ... .. . ... ...
ROW 2C : ... .. . ... ... ... : C#2 00 D ... ... ... : C#2 00 . ... : ... .. 8 ... : ... .. . ... ... : ... .. . ... ... : ... .. . ... ... : ... .. . ... ...
ROW 2D : ... .. . ... ... ... : ... .. B ... ... ... : --- .. . ... : ... .. 7 ... : ... .. . ... ... : ... .. . ... ... : ... .. . ... ... : ... .. . ... ...
ROW 2E : ... .. . P7C V02 ... : ... .. . ... ... ... : D#2 00 . ... : 7-# 00 D ... : ... .. . ... ... : G-3 01 5 P87 ... : ... .. . P79 ... : ... .. . P77 ...
ROW 2F : D-4 00 A P82 ... ... : ... .. A ... ... ... : ... .. . ... : ... .. B ... : ... .. . ... ... : ... .. . P7F ... : C-3 01 5 P89 ... : D-3 01 8 P87 ...
ROW 30 : ... .. . P7E ... ... : D#2 00 D ... ... ... : ... .. . ... : ... .. . ... : ... .. . ... ... : F#3 01 5 P88 ... : ... .. . P81 ... : ... .. . P7F ...
ROW 31 : C#4 00 A P86 ... ... : ... .. B ... ... ... : ... .. . ... : ... .. A ... : ... .. . ... ... : ... .. . P80 ... : ... .. . P79 ... : ... .. . P77 ...
ROW 32 : ... .. . P82 ... ... : ... .. . ... ... ... : ... .. . ... : ... .. 8 ... : ... .. . ... ... : ... .. . P78 ... : B-2 01 5 P8A ... : C#3 01 8 P89 ...
ROW 33 : ... .. . P7E ... ... : ... .. A ... ... ... : --- .. . ... : ... .. 7 ... : ... .. . ... ... : F-3 01 5 P82 ... : ... .. . P82 ... : ... .. . P81 ...
ROW 34 : C-4 00 A P86 V00 ... : G#2 00 D ... ... ... : E-2 00 . ... : 5-# 00 D ... : ... .. . ... ... : ... .. . P7A ... : ... .. . P7A ... : ... .. . P79 ...
ROW 35 : ... .. . P82 ... ... : ... .. B ... ... ... : ... .. . ... : ... .. B ... : ... .. . ... ... : E-3 01 5 P85 ... : A#2 01 5 P8D ... : C-3 01 8 P8D ...
ROW 36 : ... .. . P7E ... ... : ... .. . ... ... ... : ... .. . ... : ... .. . ... : ... .. . ... ... : ... .. . P7D ... : ... .. . P85 ... : ... .. . P85 ...
ROW 37 : B-3 00 A P86 ... ... : ... .. A ... ... ... : ... .. . ... : ... .. A ... : ... .. . ... ... : D#3 01 5 P8A ... : ... .. . P7D ... : ... .. . P7D ...
ROW 38 : ... .. . P82 ... ... : C#3 00 D ... ... ... : ... .. . ... : ... .. 8 ... : ... .. . ... ... : ... .. . P82 ... : ... .. . P75 ... : ... .. . P75 ...
ROW 39 : ... .. . P7E ... ... : ... .. B ... ... ... : --- .. . ... : ... .. 7 ... : ... .. . ... ... : ... .. . P7A ... : A-2 01 5 P89 ... : B-2 01 8 P8A ...
ROW 3A : ... .. . P7A V01 ... : ... .. . ... ... ... : D#2 00 . ... : 4-# 00 D ... : ... .. . ... ... : D-3 01 5 P87 ... : ... .. . P81 ... : ... .. . P82 ...
ROW 3B : A#3 00 A P84 ... ... : ... .. A ... ... ... : ... .. . ... : ... .. B ... : ... .. . ... ... : ... .. . P7F ... : ... .. . P79 ... : ... .. 4 P7A ...
ROW 3C : ... .. . P80 ... ... : G#3 00 D ... ... ... : ... .. . ... : ... .. . ... : ... .. . ... ... : ... .. . P77 ... : ... .. 3 P71 ... : ... .. . P72 ...
ROW 3D : ... .. . P7C ... ... : ... .. B ... ... ... : ... .. . ... : ... .. A ... : ... .. . ... ... : C#3 01 5 P86 ... : G#2 01 3 P88 ... : A#2 01 1 P88 ...
ROW 3E : A-3 00 A P86 ... ... : ... .. . ... ... ... : ... .. . ... : ... .. 8 ... : ... .. . ... ... : ... .. . P7E ... : ... .. . P80 ... : ... .. . P80 ...
ROW 3F : ... .. . P82 ... ... : ... .. A ... ... ... : --- .. . ... : ... .. 7 ... : ... .. . ... ... : ... .. . P76 ... : ... .. . P78 ... : ... .. . P78 ...
ROW 40 : A#4 00 F P80 ... ... : A#4 00 D ... ... ... : D-5 00 . ... : 7-# 00 D ... : ... .. . ... ... : D#3 01 8 P7F ... : G#3 01 A P81 ... : A#3 01 F P7F ...
ROW 41 : ... .. E ... ... ... : ... .. B ... ... ... : E-4 00 . ... : ... .. B ... : ... .. . ... ... : ... .. 7 ... ... : ... .. 9 ... ... : ... .. D ... ...
ROW 42 : ... .. D ... ... ... : ... .. . ... ... ... : A-3 00 . ... : ... .. . ... : ... .. . ... ... : ... .. 6 ... ... : ... .. 8 ... ... : ... .. 8 ... ...
ROW 43 : ... .. A ... ... ... : ... .. A ... ... ... : G#3 00 . ... : C-# 00 8 ... : ... .. . ... ... : ... .. 4 ... ... : ... .. 7 ... ... : ... .. . ... ...
ROW 44 : ... .. . ... ... ... : E-4 00 D ... ... ... : D#3 00 . ... : ... .. . ... : ... .. . ... ... : ... .. . ... ... : ... .. . ... ... : ... .. . ... ...
ROW 45 : ... .. . ... ... ... : ... .. B ... ... ... : ... .. . ... : ... .. . ... : ... .. . ... ... : ... .. 2 ... ... : ... .. 6 ... ... : ... .. . ... ...
ROW 46 : ... .. . ... V02 ... : ... .. . ... ... ... : D-3 00 . P75 : ... .. 6 ... : ... .. . ... ... : ... .. 8 ... ... : ... .. . ... ... : ... .. . ... ...
ROW 47 : ... .. . ... ... ... : ... .. A ... ... ... : C-3 00 . P84 : ... .. . ... : ... .. . ... ... : ... .. 7 ... ... : ... .. 5 ... ... : ... .. . ... ...
ROW 48 : ... .. . ... ... ... : D#4 00 D ... ... ... : B-2 00 . P7D : ... .. . ... : ... .. . ... ... : ... .. 6 ... ... : ... .. . ... ... : ... .. . ... ...
ROW 49 : ... .. . ... ... ... : ... .. B ... ... ... : A#2 00 . P78 : ... .. 5 ... : ... .. . ... ... : ... .. 5 ... ... : ... .. . ... ... : ... .. . ... ...
ROW 4A : ... .. . ... ... ... : ... .. . ... ... ... : A-2 00 . P74 : ... .. . ... : ... .. . ... ... : ... .. . ... ... : ... .. . ... ... : ... .. . ... ...
ROW 4B : ... .. . ... ... ... : ... .. A ... ... ... : --- .. . ... : ... .. . ... : ... .. . ... ... : ... .. 4 ... ... : ... .. . ... ... : ... .. . ... ...
ROW 4C : ... .. . ... V00 ... : A#3 00 D ... ... ... : D#3 00 . P80 : D-# 00 F ... : ... .. . ... ... : ... .. . ... ... : ... .. . ... ... : ... .. . ... ...
ROW 4D : ... .. . ... ... ... : ... .. B ... ... ... : ... .. . ... : ... .. C ... : ... .. . ... ... : ... .. . ... ... : ... .. . ... ... : ... .. . ... ...
ROW 4E : ... .. . ... ... ... : ... .. . ... ... ... : ... .. . ... : ... .. 6 ... : ... .. . ... ... : ... .. 2 ... ... : ... .. . ... ... : ... .. . ... ...
ROW 4F : ... .. . ... ... ... : ... .. A ... ... ... : ... .. . ... : ... .. 3 ... : ... .. . ... ... : ... .. . ... ... : ... .. . ... ... : ... .. . ... ...
ROW 50 : ... .. . ... ... ... : E-3 00 D ... ... ... : ... .. . ... : ... .. F ... : ... .. . ... ... : ... .. . ... ... : ... .. . ... ... : ... .. . ... ...
ROW 51 : ... .. . ... ... ... : ... .. B ... ... ... : --- .. . ... : ... .. C ... : ... .. . ... ... : ... .. . ... ... : ... .. . ... ... : ... .. . ... ...
ROW 52 : ... .. . ... V01 ... : ... .. . ... ... ... : D#3 00 . ... : ... .. 6 ... : ... .. . ... ... : ... .. 8 ... ... : ... .. . ... ... : ... .. . ... ...
ROW 53 : ... .. . ... ... ... : ... .. A ... ... ... : ... .. . ... : ... .. 3 ... : ... .. . ... ... : ... .. 7 ... ... : ... .. . ... ... : ... .. . ... ...
ROW 54 : ... .. . ... ... ... : D#3 00 D ... ... ... : ... .. . ... : ... .. F ... : ... .. . ... ... : ... .. 6 ... ... : ... .. . ... ... : ... .. . ... ...
ROW 55 : ... .. . ... ... ... : ... .. B ... ... ... : ... .. . ... : C-# 00 8 ... : ... .. . ... ... : ... .. 4 ... ... : ... .. . ... ... : ... .. . ... ...
ROW 56 : ... .. . ... ... ... : ... .. . ... ... ... : ... .. . ... : ... .. . ... : ... .. . ... ... : ... .. . ... ... : ... .. . ... ... : ... .. . ... ...
ROW 57 : ... .. . ... ... ... : ... .. A ... ... ... : --- .. . ... : ... .. . ... : ... .. . ... ... : ... .. 2 ... ... : ... .. . ... ... : ... .. . ... ...
ROW 58 : ... .. . ... V02 ... : A#2 00 D ... ... ... : C-5 00 . ... : 7-# 00 D ... : ... .. . ... ... : ... .. 8 ... ... : ... .. . ... ... : ... .. . ... ...
ROW 59 : ... .. . ... ... ... : ... .. B ... ... ... : D-4 00 . ... : ... .. B ... : ... .. . ... ... : ... .. 7 ... ... : ... .. . ... ... : ... .. . ... ...
ROW 5A : ... .. . ... ... ... : ... .. . ... ... ... : G-3 00 . ... : ... .. . ... : ... .. . ... ... : ... .. 6 ... ... : ... .. . ... ... : ... .. . ... ...
ROW 5B : ... .. . ... ... ... : ... .. A ... ... ... : F#3 00 . ... : ... .. A ... : ... .. . ... ... : ... .. 5 ... ... : ... .. . ... ... : ... .. . ... ...
ROW 5C : ... .. . ... ... ... : E-2 00 D ... ... ... : C#3 00 . ... : ... .. 8 ... : ... .. . ... ... : ... .. . ... ... : ... .. . ... ... : ... .. . ... ...
ROW 5D : ... .. . ... ... ... : ... .. B ... ... ... : --- .. . ... : ... .. 7 ... : ... .. . ... ... : ... .. 4 ... ... : ... .. . ... ... : ... .. . ... ...
ROW 5E : ... .. . ... V03 ... : ... .. . ... ... ... : D#3 00 . ... : ... .. 6 ... : ... .. . ... ... : ... .. . ... ... : ... .. . ... ... : ... .. . ... ...
ROW 5F : ... .. . ... ... ... : ... .. A ... ... ... : ... .. . ... : ... .. . ... : ... .. . ... ... : ... .. . ... ... : ... .. . ... ... : ... .. 4 ... ...
ROW 60 : ... .. . ... ... ... : D#2 00 D ... ... ... : ... .. . ... : ... .. 5 ... : ... .. . ... ... : ... .. 2 ... ... : ... .. 3 ... ... : ... .. . ... ...
ROW 61 : ... .. . ... ... ... : ... .. B ... ... ... : ... .. . ... : ... .. . ... : ... .. . ... ... : ... .. . ... ... : ... .. . ... ... : ... .. 1 ... ...
ROW 62 : ... .. . ... ... ... : ... .. . ... ... ... : ... .. . ... : ... .. 4 ... : ... .. . ... ... : ... .. . ... ... : ... .. . ... ... : ... .. . ... ...
ROW 63 : ... .. . ... ... ... : ... .. A ... ... ... : --- .. . ... : ... .. . ... : ... .. . ... ... : ... .. . ... ... : ... .. . ... ... : ... .. . ... ...
ROW 64 : B-4 00 F ... V02 ... : B-4 00 D ... ... ... : D-5 00 . ... : ... .. D ... : ... .. . ... ... : E-3 01 8 ... ... : A-3 01 A ... ... : B-3 01 F ... ...
ROW 65 : ... .. E ... ... ... : ... .. B ... ... ... : E-4 00 . ... : ... .. B ... : ... .. . ... ... : ... .. 7 ... ... : ... .. 9 ... ... : ... .. D ... ...
ROW 66 : ... .. D ... ... ... : ... .. . ... ... ... : A-3 00 . ... : ... .. . ... : ... .. . ... ... : ... .. 6 ... ... : ... .. 8 ... ... : ... .. 8 ... ...
ROW 67 : ... .. A ... ... ... : ... .. A ... ... ... : G#3 00 . ... : C-# 00 8 ... : ... .. . ... ... : ... .. 4 ... ... : ... .. 7 ... ... : ... .. . ... ...
ROW 68 : ... .. . ... ... ... : F#4 00 D ... ... ... : D#3 00 . ... : ... .. . ... : ... .. . ... ... : ... .. . ... ... : ... .. . ... ... : ... .. . ... ...
ROW 69 : ... .. . ... ... ... : ... .. B ... ... ... : --- .. . ... : ... .. . ... : ... .. . ... ... : ... .. 2 ... ... : ... .. 6 ... ... : ... .. . ... ...
ROW 6A : ... .. . ... V00 ... : ... .. . ... ... ... : D#3 00 . ... : ... .. 6 ... : ... .. . ... ... : ... .. 8 ... ... : ... .. . ... ... : ... .. . ... ...
ROW 6B : ... .. . ... ... ... : ... .. A ... ... ... : ... .. . ... : ... .. . ... : ... .. . ... ... : ... .. 7 ... ... : ... .. 5 ... ... : ... .. . ... ...
ROW 6C : ... .. . ... ... ... : E-4 00 D ... ... ... : ... .. . ... : ... .. . ... : ... .. . ... ... : ... .. 6 ... ... : ... .. . ... ... : ... .. . ... ...
ROW 6D : ... .. . ... ... ... : ... .. B ... ... ... : ... .. . ... : ... .. 5 ... : ... .. . ... ... : ... .. 5 ... ... : ... .. . ... ... : ... .. . ... ...
ROW 6E : ... .. . ... ... ... : ... .. . ... ... ... : ... .. . ... : ... .. . ... : ... .. . ... ... : ... .. . ... ... : ... .. . ... ... : ... .. . ... ...
ROW 6F : ... .. . ... ... ... : ... .. A ... ... ... : --- .. . ... : ... .. . ... : ... .. . ... ... : ... .. 4 ... ... : ... .. . ... ... : ... .. . ... ...
ROW 70 : ... .. . ... V03 ... : B-3 00 D ... ... ... : D#3 00 . ... : D-# 00 F ... : ... .. . ... ... : ... .. . ... ... : ... .. . ... ... : ... .. . ... ...
ROW 71 : ... .. . ... ... ... : ... .. B ... ... ... : ... .. . ... : ... .. C ... : ... .. . ... ... : ... .. . ... ... : ... .. . ... ... : ... .. . ... ...
ROW 72 : ... .. . ... ... ... : ... .. . ... ... ... : ... .. . ... : ... .. 6 ... : ... .. . ... ... : ... .. 2 ... ... : ... .. . ... ... : ... .. . ... ...
ROW 73 : ... .. . ... ... ... : ... .. A ... ... ... : ... .. . ... : ... .. 3 ... : ... .. . ... ... : ... .. . ... ... : ... .. . ... ... : ... .. . ... ...
ROW 74 : ... .. . ... ... ... : F#3 00 D ... ... ... : ... .. . ... : ... .. F ... : ... .. . ... ... : ... .. . ... ... : ... .. . ... ... : ... .. . ... ...
ROW 75 : ... .. . ... ... ... : ... .. B ... ... ... : ... .. . ... : ... .. C ... : ... .. . ... ... : ... .. . ... ... : ... .. . ... ... : ... .. . ... ...
ROW 76 : ... .. . ... V02 ... : ... .. . ... ... ... : D-3 00 . P75 : ... .. 6 ... : ... .. . ... ... : ... .. 8 ... ... : ... .. . ... ... : ... .. . ... ...
ROW 77 : ... .. . ... ... ... : ... .. A ... ... ... : C-3 00 . P84 : ... .. 3 ... : ... .. . ... ... : ... .. 7 ... ... : ... .. . ... ... : ... .. . ... ...
ROW 78 : ... .. . ... ... ... : E-3 00 D ... ... ... : B-2 00 . P7D : ... .. F ... : ... .. . ... ... : ... .. 6 ... ... : ... .. . ... ... : ... .. . ... ...
ROW 79 : ... .. . ... ... ... : ... .. B ... ... ... : A#2 00 . P78 : ... .. C ... : ... .. . ... ... : ... .. 4 ... ... : ... .. . ... ... : ... .. . ... ...
ROW 7A : ... .. . ... ... ... : ... .. . ... ... ... : A-2 00 . P74 : ... .. 6 ... : ... .. . ... ... : ... .. . ... ... : ... .. . ... ... : ... .. . ... ...
ROW 7B : ... .. . ... ... ... : ... .. A ... ... ... : --- .. . ... : ... .. 3 ... : ... .. . ... ... : ... .. 2 ... ... : ... .. . ... ... : ... .. . ... ...
ROW 7C : ... .. . ... V00 ... : B-2 00 D ... ... ... : D-4 00 . P80 : 7-# 00 F ... : ... .. . ... ... : ... .. 8 ... ... : ... .. . ... ... : ... .. . ... ...
ROW 7D : ... .. . ... ... ... : ... .. B ... ... ... : E-3 00 . ... : ... .. C ... : ... .. . ... ... : ... .. 7 ... ... : ... .. . ... ... : ... .. . ... ...
ROW 7E : ... .. . ... ... ... : ... .. . ... ... ... : A-2 00 . ... : ... .. A ... : ... .. . ... ... : ... .. 6 ... ... : ... .. . ... ... : ... .. . ... ...
ROW 7F : ... .. . ... ... ... : ... .. A ... ... ... : G#2 00 . ... : ... .. 8 ... : ... .. . ... ... : ... .. 5 ... ... : ... .. . ... ... : ... .. . ... ...
ROW 80 : ... .. . ... ... ... : F#2 00 D ... ... ... : D#2 00 . ... : ... .. 7 ... : ... .. . ... ... : ... .. . ... ... : ... .. . ... ... : ... .. . ... ...
ROW 81 : ... .. . ... ... ... : ... .. B ... ... ... : --- .. . ... : ... .. 4 ... : ... .. . ... ... : ... .. 4 ... ... : ... .. . ... ... : ... .. . ... ...
ROW 82 : ... .. . ... V02 ... : ... .. . ... ... ... : D#2 00 . ... : ... .. 2 ... : ... .. . ... ... : ... .. . ... ... : ... .. . ... ... : ... .. . ... ...
ROW 83 : ... .. . ... ... ... : ... .. A ... ... ... : ... .. . ... : ... .. 1 ... : ... .. . ... ... : ... .. . ... ... : ... .. . ... ... : ... .. . ... ...
ROW 84 : ... .. . ... ... ... : E-2 00 D ... ... ... : ... .. . ... : ... .. 0 ... : ... .. . ... ... : ... .. 2 ... ... : ... .. . ... ... : ... .. . ... ...
ROW 85 : ... .. . ... ... ... : ... .. B ... ... ... : ... .. . ... : ... .. . ... : ... .. . ... ... : ... .. . ... ... : ... .. . ... ... : ... .. . ... ...
ROW 86 : ... .. . ... ... ... : ... .. . ... ... ... : ... .. . ... : ... .. . ... : ... .. . ... ... : ... .. . ... ... : ... .. . ... ... : ... .. . ... ...
ROW 87 : ... .. . ... ... ... : ... .. A ... ... ... : --- .. . ... : ... .. . ... : ... .. . ... ... : ... .. . ... ... : ... .. . ... ... : ... .. . ... ...
ROW 88 : A#4 00 A P7F V01 ... : B-1 00 D ... ... ... : C-4 00 . ... : ... .. F ... : ... .. . ... ... : ... .. 8 ... ... : G#3 01 5 P80 ... : A#3 01 8 P7E ...
ROW 89 : A-4 00 A P7E ... ... : ... .. B ... ... ... : D-3 00 . ... : ... .. C ... : ... .. . ... ... : ... .. 7 ... ... : G-3 01 5 ... ... : A-3 01 8 P7F ...
ROW 8A : G#4 00 A ... ... ... : ... .. . ... ... ... : G-2 00 . ... : ... .. A ... : ... .. . ... ... : ... .. 6 ... ... : F#3 01 5 P81 ... : G#3 01 8 P80 ...
ROW 8B : G-4 00 A ... ... ... : ... .. A ... ... ... : F#2 00 . ... : ... .. 8 ... : ... .. . ... ... : ... .. 4 ... ... : F-3 01 5 P83 ... : G-3 01 8 P82 ...
ROW 8C : F#4 00 A ... ... ... : E-2 00 D ... ... ... : C#2 00 . ... : ... .. F ... : ... .. . ... ... : ... .. . ... ... : E-3 01 5 P86 ... : F#3 01 8 P86 ...
ROW 8D : F-4 00 A P7F ... ... : ... .. B ... ... ... : --- .. . ... : ... .. C ... : ... .. . ... ... : ... .. 2 ... ... : ... .. . P76 ... : F-3 01 8 P8A ...
ROW 8E : E-4 00 A P81 V02 ... : ... .. . ... ... ... : D#2 00 . ... : ... .. A ... : ... .. . ... ... : ... .. 8 ... ... : D#3 01 5 P7B ... : ... .. . P7A ...
ROW 8F : D#4 00 A P83 ... ... : ... .. A ... ... ... : ... .. . ... : ... .. 8 ... : ... .. . ... ... : ... .. 7 ... ... : D-3 01 5 P80 ... : E-3 01 8 P80 ...
ROW 90 : D-4 00 A P85 ... ... : F#2 00 D ... ... ... : ... .. . ... : ... .. F ... : ... .. . ... ... : ... .. 6 ... ... : C#3 01 5 P87 ... : D#3 01 8 P87 ...
ROW 91 : ... .. . P7D ... ... : ... .. B ... ... ... : ... .. . ... : ... .. C ... : ... .. . ... ... : ... .. 4 ... ... : ... .. . P77 ... : ... .. . P77 ...
ROW 92 : C#4 00 A P81 ... ... : ... .. . ... ... ... : ... .. . ... : ... .. A ... : ... .. . ... ... : ... .. . ... ... : C-3 01 5 P7F ... : D-3 01 8 P7F ...
ROW 93 : C-4 00 A P85 ... ... : ... .. A ... ... ... : --- .. . ... : ... .. 8 ... : ... .. . ... ... : ... .. 2 ... ... : B-2 01 5 P88 ... : C#3 01 8 P89 ...
ROW 94 : ... .. . P7D V00 ... : B-2 00 D ... ... ... : E-2 00 . ... : 5-# 00 F ... : ... .. . ... ... : ... .. 8 ... ... : ... .. . P78 ... : ... .. . P79 ...
ROW 95 : B-3 00 A P81 ... ... : ... .. B ... ... ... : ... .. . ... : ... .. C ... : ... .. . ... ... : ... .. 7 ... ... : A#2 01 5 P83 ... : C-3 01 8 P85 ...
ROW 96 : A#3 00 A P87 ... ... : ... .. . ... ... ... : ... .. . ... : ... .. A ... : ... .. . ... ... : ... .. 6 ... ... : ... .. . P73 ... : ... .. . P75 ...
ROW 97 : ... .. . P7F ... ... : ... .. A ... ... ... : ... .. . ... : ... .. 8 ... : ... .. . ... ... : ... .. 4 ... ... : A-2 01 5 P7F ... : B-2 01 8 P82 ...
ROW 98 : A-3 00 A P85 ... ... : E-3 00 D ... ... ... : ... .. . ... : ... .. F ... : ... .. . ... ... : ... .. . ... ... : G#2 01 5 P8E ... : ... .. . P72 ...
ROW 99 : ... .. . P7D ... ... : ... .. B ... ... ... : --- .. . ... : ... .. C ... : ... .. . ... ... : ... .. 2 ... ... : ... .. . P7E ... : A#2 01 8 P80 ...
ROW 9A : G#3 00 A P84 V01 ... : ... .. . ... ... ... : D#2 00 . ... : ... .. A ... : ... .. . ... ... : ... .. 8 ... ... : G-2 01 5 P8E ... : ... .. . P70 ...
ROW 9B : ... .. . P7C ... ... : ... .. A ... ... ... : ... .. . ... : ... .. 8 ... : ... .. . ... ... : ... .. 7 ... ... : ... .. . P7E ... : A-2 01 4 P81 ...
ROW 9C : G-3 00 A P84 ... ... : B-3 00 D ... ... ... : ... .. . ... : ... .. F ... : ... .. . ... ... : ... .. 6 ... ... : F#2 01 3 P90 ... : ... .. . P71 ...
ROW 9D : ... .. . P7C ... ... : ... .. B ... ... ... : ... .. . ... : ... .. C ... : ... .. . ... ... : ... .. 4 ... ... : ... .. . P80 ... : G#2 01 1 P84 ...
ROW 9E : F#3 00 A P85 ... ... : ... .. . ... ... ... : ... .. . ... : ... .. A ... : ... .. . ... ... : ... .. . ... ... : ... .. . P70 ... : ... .. . P74 ...
ROW 9F : ... .. . P7D ... ... : ... .. A ... ... ... : --- .. . ... : ... .. 8 ... : ... .. . ... ... : ... .. 2 ... ... : F-2 01 3 P84 ... : G-2 01 1 P88 ...
ROW A0 : C#5 00 F P80 ... ... : C#5 00 D ... ... ... : D-5 00 . ... : 7-# 00 D ... : ... .. . ... ... : F#3 01 8 ... ... : B-3 01 A P81 ... : C#4 01 F P7F ...
ROW A1 : ... .. E ... ... ... : ... .. B ... ... ... : E-4 00 . ... : ... .. B ... : ... .. . ... ... : ... .. 7 ... ... : ... .. 9 ... ... : ... .. D ... ...
ROW A2 : ... .. D ... ... ... : ... .. . ... ... ... : A-3 00 . ... : ... .. . ... : ... .. . ... ... : ... .. 6 ... ... : ... .. 8 ... ... : ... .. 8 ... ...
ROW A3 : ... .. A ... ... ... : ... .. A ... ... ... : G#3 00 . ... : ... .. A ... : ... .. . ... ... : ... .. 4 ... ... : ... .. 7 ... ... : ... .. . ... ...
ROW A4 : ... .. . ... ... ... : G#4 00 D ... ... ... : D#3 00 . ... : ... .. 8 ... : ... .. . ... ... : ... .. . ... ... : ... .. . ... ... : ... .. . ... ...
ROW A5 : ... .. . ... ... ... : ... .. B ... ... ... : ... .. . ... : ... .. 7 ... : ... .. . ... ... : ... .. 2 ... ... : ... .. 6 ... ... : ... .. . ... ...
ROW A6 : ... .. . ... V02 ... : ... .. . ... ... ... : D-3 00 . P75 : ... .. 6 ... : ... .. . ... ... : ... .. 8 ... ... : ... .. . ... ... : ... .. . ... ...
ROW A7 : ... .. . ... ... ... : ... .. A ... ... ... : C-3 00 . P84 : ... .. . ... : ... .. . ... ... : ... .. 7 ... ... : ... .. 5 ... ... : ... .. . ... ...
ROW A8 : ... .. . ... ... ... : F#4 00 D ... ... ... : B-2 00 . P7D : ... .. 5 ... : ... .. . ... ... : ... .. 6 ... ... : ... .. . ... ... : ... .. . ... ...
ROW A9 : ... .. . ... ... ... : ... .. B ... ... ... : A#2 00 . P78 : ... .. . ... : ... .. . ... ... : ... .. 5 ... ... : ... .. . ... ... : ... .. . ... ...
ROW AA : ... .. . ... ... ... : ... .. . ... ... ... : A-2 00 . P74 : ... .. 4 ... : ... .. . ... ... : ... .. . ... ... : ... .. . ... ... : ... .. . ... ...
ROW AB : ... .. . ... ... ... : ... .. A ... ... ... : --- .. . ... : ... .. . ... : ... .. . ... ... : ... .. 4 ... ... : ... .. . ... ... : ... .. . ... ...
ROW AC : ... .. . ... V00 ... : C#4 00 D ... ... ... : D#3 00 . P80 : D-# 00 F ... : ... .. . ... ... : ... .. . ... ... : ... .. . ... ... : ... .. . ... ...
ROW AD : ... .. . ... ... ... : ... .. B ... ... ... : ... .. . ... : ... .. C ... : ... .. . ... ... : ... .. . ... ... : ... .. . ... ... : ... .. . ... ...
ROW AE : ... .. . ... ... ... : ... .. . ... ... ... : ... .. . ... : ... .. 6 ... : ... .. . ... ... : ... .. 2 ... ... : ... .. . ... ... : ... .. . ... ...
ROW AF : ... .. . ... ... ... : ... .. A ... ... ... : ... .. . ... : ... .. 3 ... : ... .. . ... ... : ... .. . ... ... : ... .. . ... ... : ... .. . ... ...
ROW B0 : ... .. . ... ... ... : G#3 00 D ... ... ... : ... .. . ... : ... .. F ... : ... .. . ... ... : ... .. . ... ... : ... .. . ... ... : ... .. . ... ...
ROW B1 : ... .. . ... ... ... : ... .. B ... ... ... : --- .. . ... : ... .. C ... : ... .. . ... ... : ... .. . ... ... : ... .. . ... ... : ... .. . ... ...
ROW B2 : ... .. . ... V01 ... : ... .. . ... ... ... : D#3 00 . ... : ... .. 6 ... : ... .. . ... ... : ... .. 8 ... ... : ... .. . ... ... : ... .. . ... ...
ROW B3 : ... .. . ... ... ... : ... .. A ... ... ... : ... .. . ... : ... .. 3 ... : ... .. . ... ... : ... .. 7 ... ... : ... .. . ... ... : ... .. . ... ...
ROW B4 : ... .. . ... ... ... : F#3 00 D ... ... ... : ... .. . ... : ... .. F ... : ... .. . ... ... : ... .. 6 ... ... : ... .. . ... ... : ... .. . ... ...
ROW B5 : ... .. . ... ... ... : ... .. B ... ... ... : ... .. . ... : ... .. C ... : ... .. . ... ... : ... .. 4 ... ... : ... .. . ... ... : ... .. . ... ...
ROW B6 : ... .. . ... ... ... : ... .. . ... ... ... : ... .. . ... : ... .. 6 ... : ... .. . ... ... : ... .. . ... ... : ... .. . ... ... : ... .. . ... ...
ROW B7 : ... .. . ... ... ... : ... .. A ... ... ... : --- .. . ... : ... .. 3 ... : ... .. . ... ... : ... .. 2 ... ... : ... .. . ... ... : ... .. . ... ...
ROW B8 : ... .. . ... V02 ... : C#3 00 D ... ... ... : C-5 00 . ... : 7-# 00 D ... : ... .. . ... ... : ... .. 8 ... ... : ... .. . ... ... : ... .. . ... ...
ROW B9 : ... .. . ... ... ... : ... .. B ... ... ... : D-4 00 . ... : ... .. B ... : ... .. . ... ... : ... .. 7 ... ... : ... .. . ... ... : ... .. . ... ...
ROW BA : ... .. . ... ... ... : ... .. . ... ... ... : G-3 00 . ... : ... .. . ... : ... .. . ... ... : ... .. 6 ... ... : ... .. . ... ... : ... .. . ... ...
ROW BB : ... .. . ... ... ... : ... .. A ... ... ... : F#3 00 . ... : ... .. A ... : ... .. . ... ... : ... .. 5 ... ... : ... .. . ... ... : ... .. . ... ...
ROW BC : ... .. . ... ... ... : G#2 00 D ... ... ... : C#3 00 . ... : ... .. 8 ... : ... .. . ... ... : ... .. . ... ... : ... .. . ... ... : ... .. . ... ...
ROW BD : ... .. . ... ... ... : ... .. B ... ... ... : --- .. . ... : ... .. 7 ... : ... .. . ... ... : ... .. 4 ... ... : ... .. . ... ... : ... .. . ... ...
ROW BE : ... .. . ... V03 ... : ... .. . ... ... ... : D#3 00 . ... : ... .. 6 ... : ... .. . ... ... : ... .. . ... ... : ... .. . ... ... : ... .. . ... ...
ROW BF : ... .. . ... ... ... : ... .. A ... ... ... : ... .. . ... : ... .. . ... : ... .. . ... ... : ... .. . ... ... : ... .. . ... ... : ... .. 4 ... ...
ROW C0 : ... .. . ... ... ... : F#2 00 D ... ... ... : ... .. . ... : ... .. 5 ... : ... .. . ... ... : ... .. 2 ... ... : ... .. 3 ... ... : ... .. . ... ...
ROW C1 : ... .. . ... ... ... : ... .. B ... ... ... : ... .. . ... : ... .. . ... : ... .. . ... ... : ... .. . ... ... : ... .. . ... ... : ... .. 1 ... ...
ROW C2 : ... .. . ... ... ... : ... .. . ... ... ... : ... .. . ... : ... .. 4 ... : ... .. . ... ... : ... .. . ... ... : ... .. . ... ... : ... .. . ... ...
ROW C3 : ... .. . ... ... ... : ... .. A ... ... ... : --- .. . ... : ... .. . ... : ... .. . ... ... : ... .. . ... ... : ... .. . ... ... : ... .. . ... ...
ROW C4 : ... .. . ... V02 ... : D#5 00 D ... ... ... : D-5 00 . ... : ... .. D ... : ... .. . ... ... : G#3 01 8 ... ... : C#4 01 A ... ... : D#4 01 F ... ...
ROW C5 : ... .. . ... ... ... : ... .. B ... ... ... : E-4 00 . ... : ... .. B ... : ... .. . ... ... : ... .. 7 ... ... : ... .. 9 ... ... : ... .. D ... ...
ROW C6 : ... .. . ... ... ... : ... .. . ... ... ... : A-3 00 . ... : ... .. . ... : ... .. . ... ... : ... .. 6 ... ... : ... .. 8 ... ... : ... .. 8 ... ...
ROW C7 : ... .. . ... ... ... : ... .. A ... ... ... : G#3 00 . ... : ... .. A ... : ... .. . ... ... : ... .. 4 ... ... : ... .. 5 ... ... : ... .. . ... ...
ROW C8 : ... .. . ... ... ... : A#4 00 D ... ... ... : D#3 00 . ... : ... .. 8 ... : ... .. . ... ... : ... .. . ... ... : ... .. . ... ... : ... .. 4 ... ...
ROW C9 : ... .. . ... ... ... : ... .. B ... ... ... : --- .. . ... : ... .. 7 ... : ... .. . ... ... : ... .. 2 ... ... : ... .. 3 ... ... : ... .. . ... ...
ROW CA : D#5 00 F ... V00 ... : ... .. . ... ... ... : D#3 00 . ... : ... .. 6 ... : ... .. . ... ... : ... .. 8 ... ... : ... .. 8 ... ... : ... .. C ... ...
ROW CB : ... .. E ... ... ... : ... .. A ... ... ... : ... .. . ... : ... .. . ... : ... .. . ... ... : ... .. 7 ... ... : ... .. 7 ... ... : ... .. A ... ...
ROW CC : ... .. D ... ... ... : G#4 00 D ... ... ... : ... .. . ... : ... .. 5 ... : ... .. . ... ... : ... .. 6 ... ... : ... .. 6 ... ... : ... .. 6 ... ...
ROW CD : ... .. 9 ... ... ... : ... .. B ... ... ... : ... .. . ... : ... .. . ... : ... .. . ... ... : ... .. 5 ... ... : ... .. 5 ... ... : ... .. . ... ...
ROW CE : ... .. . ... ... ... : ... .. . ... ... ... : ... .. . ... : ... .. 4 ... : ... .. . ... ... : ... .. . ... ... : ... .. . ... ... : ... .. . ... ...
ROW CF : ... .. . ... ... ... : ... .. A ... ... ... : --- .. . ... : ... .. . ... : ... .. . ... ... : ... .. 4 ... ... : ... .. 4 ... ... : ... .. . ... ...
ROW D0 : D#4 00 E ... V03 ... : D#4 00 D ... ... ... : D#3 00 . ... : 1-# 00 F ... : ... .. . ... ... : ... .. . ... ... : ... .. . ... ... : ... .. . ... ...
ROW D1 : ... .. D ... ... ... : ... .. B ... ... ... : ... .. . ... : ... .. C ... : ... .. . ... ... : ... .. . ... ... : ... .. . ... ... : ... .. 3 ... ...
ROW D2 : ... .. C ... ... ... : ... .. . ... ... ... : ... .. . ... : ... .. 6 ... : ... .. . ... ... : ... .. 2 ... ... : ... .. 2 ... ... : ... .. . ... ...
ROW D3 : ... .. 8 ... ... ... : ... .. A ... ... ... : ... .. . ... : ... .. 3 ... : ... .. . ... ... : ... .. . ... ... : ... .. . ... ... : ... .. 1 ... ...
ROW D4 : ... .. 1 ... ... ... : A#3 00 D ... ... ... : ... .. . ... : ... .. 2 ... : ... .. . ... ... : ... .. . ... ... : ... .. . ... ... : ... .. . ... ...
ROW D5 : ... .. . ... ... ... : ... .. B ... ... ... : ... .. . ... : ... .. 0 ... : ... .. . ... ... : ... .. . ... ... : ... .. . ... ... : ... .. . ... ...
ROW D6 : C#5 00 D ... V02 ... : ... .. . ... ... ... : D-3 00 . P75 : ... .. F ... : ... .. . ... ... : ... .. 8 ... ... : ... .. 8 ... ... : ... .. C ... ...
ROW D7 : ... .. C ... ... ... : ... .. A ... ... ... : C-3 00 . P84 : ... .. C ... : ... .. . ... ... : ... .. 7 ... ... : ... .. 7 ... ... : ... .. A ... ...
ROW D8 : ... .. B ... ... ... : G#3 00 D ... ... ... : B-2 00 . P7D : ... .. 6 ... : ... .. . ... ... : ... .. 6 ... ... : ... .. 6 ... ... : ... .. 6 ... ...
ROW D9 : ... .. 8 ... ... ... : ... .. B ... ... ... : A#2 00 . P78 : ... .. 3 ... : ... .. . ... ... : ... .. 4 ... ... : ... .. 4 ... ... : ... .. . ... ...
ROW DA : ... .. . ... ... ... : ... .. . ... ... ... : A-2 00 . P74 : ... .. 2 ... : ... .. . ... ... : ... .. . ... ... : ... .. . ... ... : ... .. 3 ... ...
ROW DB : ... .. . ... ... ... : ... .. A ... ... ... : --- .. . ... : ... .. 0 ... : ... .. . ... ... : ... .. 2 ... ... : ... .. 2 ... ... : ... .. . ... ...
ROW DC : D#5 00 8 ... V00 ... : D#3 00 D ... ... ... : D-4 00 . P80 : ... .. F ... : ... .. . ... ... : ... .. 8 ... ... : ... .. 8 ... ... : ... .. C ... ...
ROW DD : ... .. 7 ... ... ... : ... .. B ... ... ... : E-3 00 . ... : ... .. C ... : ... .. . ... ... : ... .. 7 ... ... : ... .. 7 ... ... : ... .. A ... ...
ROW DE : ... .. 6 ... ... ... : ... .. . ... ... ... : A-2 00 . ... : ... .. 6 ... : ... .. . ... ... : ... .. 6 ... ... : ... .. 6 ... ... : ... .. 6 ... ...
ROW DF : ... .. 1 ... ... ... : ... .. A ... ... ... : G#2 00 . ... : ... .. 3 ... : ... .. . ... ... : ... .. 5 ... ... : ... .. 5 ... ... : ... .. . ... ...
ROW E0 : ... .. . ... ... ... : A#2 00 D ... ... ... : D#2 00 . ... : ... .. 2 ... : ... .. . ... ... : ... .. . ... ... : ... .. . ... ... : ... .. . ... ...
ROW E1 : ... .. . ... ... ... : ... .. B ... ... ... : --- .. . ... : ... .. 0 ... : ... .. . ... ... : ... .. 4 ... ... : ... .. 4 ... ... : ... .. . ... ...
ROW E2 : ... .. 6 ... ... ... : ... .. . ... ... ... : D#2 00 . ... : ... .. F ... : ... .. . ... ... : ... .. . ... ... : ... .. . ... ... : ... .. . ... ...
ROW E3 : ... .. 5 ... ... ... : ... .. A ... ... ... : ... .. . ... : ... .. C ... : ... .. . ... ... : ... .. . ... ... : ... .. . ... ... : ... .. 3 ... ...
ROW E4 : ... .. . ... ... ... : G#2 00 D ... ... ... : ... .. . ... : ... .. 6 ... : ... .. . ... ... : ... .. 2 ... ... : ... .. 2 ... ... : ... .. . ... ...
ROW E5 : ... .. 4 ... ... ... : ... .. B ... ... ... : ... .. . ... : ... .. 3 ... : ... .. . ... ... : ... .. . ... ... : ... .. . ... ... : ... .. 1 ... ...
ROW E6 : ... .. . ... ... ... : ... .. . ... ... ... : ... .. . ... : ... .. 2 ... : ... .. . ... ... : ... .. . ... ... : ... .. . ... ... : ... .. . ... ...
ROW E7 : ... .. . ... ... ... : ... .. A ... ... ... : --- .. . ... : ... .. 0 ... : ... .. . ... ... : ... .. . ... ... : ... .. . ... ... : ... .. . ... ...
ROW E8 : F#5 00 2 ... ... ... : D#2 00 D ... ... ... : C-6 00 . ... : 9-# 00 D ... : ... .. . ... ... : F#3 01 F ... V00 : C#3 01 F ... V00 : --- .. . ... ...
ROW E9 : ... .. 1 ... ... ... : ... .. B ... ... ... : D-5 00 . ... : ... .. B ... : ... .. . ... ... : ... .. D ... ... : ... .. D ... ... : ... .. . ... ...
ROW EA : ... .. . ... ... ... : ... .. . ... ... ... : G-4 00 . ... : ... .. . ... : ... .. . ... ... : ... .. 8 ... ... : ... .. 8 ... ... : ... .. . ... ...
ROW EB : ... .. 3 ... ... ... : ... .. A ... ... ... : F#4 00 . ... : ... .. A ... : ... .. . ... ... : ... .. . ... ... : ... .. . ... ... : ... .. . ... ...
ROW EC : ... .. . ... ... ... : G#2 00 D ... ... ... : C#4 00 . ... : ... .. 8 ... : ... .. . ... ... : F-3 01 8 P7C ... : C-3 01 8 P84 ... : ... .. . ... ...
ROW ED : ... .. . ... ... ... : ... .. B ... ... ... : ... .. . ... : ... .. 7 ... : ... .. . ... ... : E-3 01 8 P7A ... : B-2 01 8 P88 ... : ... .. . ... ...
ROW EE : ... .. 5 ... ... ... : ... .. . ... ... ... : A#3 00 . P86 : 7-# 00 D ... : ... .. . ... ... : D#3 01 8 ... ... : ... .. . P73 ... : ... .. . ... ...
ROW EF : ... .. . ... ... ... : ... .. A ... ... ... : G#3 00 . P83 : ... .. B ... : ... .. . ... ... : D-3 01 8 ... ... : A#2 01 8 P79 ... : ... .. . ... ...
ROW F0 : ... .. . ... ... ... : A#2 00 D ... ... ... : F#3 00 . P84 : ... .. . ... : ... .. . ... ... : C#3 01 8 P7C ... : A-2 01 8 P80 ... : ... .. . ... ...
ROW F1 : ... .. 7 ... ... ... : ... .. B ... ... ... : E-3 00 . P89 : ... .. A ... : ... .. . ... ... : C-3 01 8 P7F ... : G#2 01 8 P8A ... : ... .. . ... ...
ROW F2 : ... .. . ... ... ... : ... .. . ... ... ... : D#3 00 . P7E : ... .. 8 ... : ... .. . ... ... : B-2 01 8 P83 ... : ... .. . P75 ... : ... .. . ... ...
ROW F3 : ... .. . ... ... ... : ... .. A ... ... ... : C#3 00 . P8A : ... .. 7 ... : ... .. . ... ... : A#2 01 8 P89 ... : G-2 01 8 P80 ... : ... .. . ... ...
ROW F4 : D#5 00 A P7E ... ... : D#3 00 D ... ... ... : C-3 00 . P82 : 5-# 00 D ... : ... .. . ... ... : ... .. . P74 ... : F#2 01 8 P8D ... : ... .. . ... ...
ROW F5 : C-5 00 A P7F ... ... : ... .. B ... ... ... : B-2 00 . P7B : ... .. B ... : ... .. . ... ... : A-2 01 8 P7B ... : ... .. . P78 ... : ... .. . ... ...
ROW F6 : A-4 00 A P83 ... ... : ... .. . ... ... ... : A#2 00 . P76 : ... .. . ... : ... .. . ... ... : G#2 01 8 P85 ... : F-2 01 8 P87 ... : ... .. . ... ...
ROW F7 : G-4 00 A ... ... ... : ... .. A ... ... ... : A-2 00 . P72 : ... .. A ... : ... .. . ... ... : G-2 01 8 P90 ... : ... .. . P72 ... : ... .. . ... ...
ROW F8 : F-4 00 A P84 ... ... : G#3 00 D ... ... ... : G#2 00 . P71 : ... .. 8 ... : ... .. . ... ... : ... .. . P7B ... : E-2 01 8 P83 ... : ... .. . ... ...
ROW F9 : E-4 00 A P7E ... ... : ... .. B ... ... ... : G-2 00 . ... : ... .. 7 ... : ... .. . ... ... : F#2 01 8 P88 ... : ... .. . P6E ... : ... .. . ... ...
ROW FA : D-4 00 A P82 ... ... : ... .. . ... ... ... : F#2 00 . P73 : 4-# 00 D ... : ... .. . ... ... : ... .. . P73 ... : D#2 01 8 P81 ... : ... .. . ... ...
ROW FB : C#4 00 A P7E ... ... : ... .. A ... ... ... : F-2 00 . P77 : ... .. B ... : ... .. . ... ... : F-2 01 8 P82 ... : ... .. . P6C ... : ... .. . ... ...
ROW FC : B-3 00 A P86 ... ... : D#4 00 D ... ... ... : E-2 00 . P7D : ... .. . ... : ... .. . ... ... : E-2 01 8 P93 ... : D-2 01 8 P82 ... : ... .. . ... ...
ROW FD : A#3 00 A P84 ... ... : ... .. B ... ... ... : D#2 00 . P85 : ... .. A ... : ... .. . ... ... : ... .. . P7E ... : ... .. . P6D ... : ... .. . ... ...
ROW FE : A-3 00 A P82 ... ... : ... .. . ... ... ... : D-2 00 . P90 : ... .. 8 ... : ... .. . ... ... : D#2 01 8 P91 ... : C#2 01 8 P85 ... : ... .. . ... ...
ROW FF : G#3 00 A P81 ... ... : ... .. A ... ... ... : ... .. . P70 : ... .. 7 ... : ... .. . ... ... : ... .. . P7F ... : ... .. . P70 ... : ... .. . ... ...

PATTERN 03
ROW 00 : ... .. 0 ... ... ... : A#3 00 9 ... ... ... : D-4 00 . P80 : 7-# 00 D ... : ... .. . ... ... : G#2 01 6 P80 V05 : G#3 01 6 P80 V03 : C#4 01 A P80 ...
ROW 01 : ... .. . ... ... ... : ... .. 8 ... ... ... : E-3 00 . ... : ... .. B ... : ... .. . ... ... : ... .. 5 ... ... : ... .. . ... ... : ... .. 8 ... ...
ROW 02 : ... .. . ... ... ... : ... .. . ... ... ... : A-2 00 . ... : ... .. . ... : ... .. . ... ... : ... .. . ... ... : ... .. 5 ... ... : ... .. 5 ... ...
ROW 03 : ... .. . ... ... ... : ... .. 7 ... ... ... : G#2 00 . ... : ... .. A ... : ... .. . ... ... : ... .. . ... ... : ... .. 4 ... ... : ... .. 4 ... ...
ROW 04 : ... .. . ... ... ... : ... .. 5 ... ... ... : D#2 00 . ... : ... .. 8 ... : ... .. . ... ... : ... .. 4 ... ... : ... .. . ... ... : ... .. . ... ...
ROW 05 : ... .. . ... ... ... : ... .. . ... ... ... : ... .. . ... : ... .. 7 ... : ... .. . ... ... : ... .. . ... ... : ... .. 3 ... ... : ... .. . ... ...
ROW 06 : ... .. . ... ... ... : F#3 00 9 ... ... ... : ... .. . ... : ... .. 6 ... : ... .. . ... ... : A#2 01 6 ... ... : ... .. . ... ... : ... .. . ... ...
ROW 07 : ... .. . ... ... ... : ... .. 8 ... ... ... : ... .. . ... : ... .. . ... : ... .. . ... ... : ... .. 5 ... ... : ... .. . ... ... : ... .. . ... ...
ROW 08 : ... .. . ... ... ... : ... .. . ... ... ... : ... .. . ... : ... .. 5 ... : ... .. . ... ... : ... .. . ... ... : ... .. . ... ... : ... .. . ... ...
ROW 09 : ... .. . ... ... ... : ... .. 7 ... ... ... : ... .. . ... : ... .. . ... : ... .. . ... ... : ... .. . ... ... : ... .. . ... ... : ... .. . ... ...
ROW 0A : ... .. . ... ... ... : ... .. 5 ... ... ... : ... .. . ... : ... .. 4 ... : ... .. . ... ... : ... .. 4 ... ... : ... .. . ... ... : ... .. . ... ...
ROW 0B : ... .. . ... ... ... : ... .. . ... ... ... : ... .. . ... : ... .. . ... : ... .. . ... ... : ... .. . ... ... : ... .. . ... ... : ... .. . ... ...
ROW 0C : A#3 00 F P80 V01 ... : D#3 00 9 ... ... ... : D-5 00 . ... : ... .. F ... : ... .. . ... ... : F-3 01 6 ... ... : ... .. . ... ... : ... .. . ... ...
ROW 0D : ... .. E ... ... ... : ... .. 8 ... ... ... : E-4 00 . ... : ... .. C ... : ... .. . ... ... : ... .. 5 ... ... : ... .. . ... ... : ... .. . ... ...
ROW 0E : ... .. D ... ... ... : ... .. . ... ... ... : A-3 00 . ... : ... .. A ... : ... .. . ... ... : ... .. . ... ... : ... .. . ... ... : ... .. . ... ...
ROW 0F : ... .. A ... ... ... : ... .. 7 ... ... ... : G#3 00 . ... : ... .. 8 ... : ... .. . ... ... : ... .. . ... ... : ... .. 2 ... ... : ... .. . ... ...
ROW 10 : ... .. . ... ... ... : ... .. 5 ... ... ... : D#3 00 . ... : ... .. 7 ... : ... .. . ... ... : ... .. 4 ... ... : ... .. . ... ... : ... .. . ... ...
ROW 11 : ... .. . ... ... ... : ... .. . ... ... ... : ... .. . ... : ... .. 4 ... : ... .. . ... ... : ... .. . ... ... : ... .. . ... ... : ... .. . ... ...
ROW 12 : G#4 00 F ... ... ... : A#3 00 9 ... ... ... : ... .. . ... : ... .. 2 ... : ... .. . ... ... : C#3 01 6 ... ... : ... .. . ... ... : ... .. . ... ...
ROW 13 : A-4 00 E P81 ... ... : ... .. 8 ... ... ... : ... .. . ... : ... .. 1 ... : ... .. . ... ... : ... .. 5 ... ... : ... .. . ... ... : ... .. . ... ...
ROW 14 : A#4 00 D P80 ... ... : ... .. . ... ... ... : ... .. . ... : ... .. 0 ... : ... .. . ... ... : ... .. . ... ... : ... .. . ... ... : ... .. . ... ...
ROW 15 : ... .. A ... ... ... : ... .. 7 ... ... ... : ... .. . ... : ... .. . ... : ... .. . ... ... : ... .. . ... ... : ... .. . ... ... : ... .. . ... ...
ROW 16 : ... .. . ... ... ... : ... .. 5 ... ... ... : ... .. . ... : ... .. . ... : ... .. . ... ... : ... .. 4 ... ... : ... .. . ... ... : ... .. . ... ...
ROW 17 : ... .. . ... ... ... : ... .. . ... ... ... : ... .. . ... : ... .. . ... : ... .. . ... ... : ... .. . ... ... : ... .. . ... ... : ... .. . ... ...
ROW 18 : G#4 00 F ... ... ... : F#3 00 9 ... ... ... : D-5 00 . ... : 1-# 00 F ... : ... .. . ... ... : D#3 01 6 ... ... : ... .. . ... ... : ... .. . ... ...
ROW 19 : ... .. E ... ... ... : ... .. 8 ... ... ... : E-4 00 . ... : ... .. C ... : ... .. . ... ... : ... .. 5 ... ... : ... .. . ... ... : ... .. . ... ...
ROW 1A : ... .. D ... ... ... : ... .. . ... ... ... : A-3 00 . ... : ... .. 6 ... : ... .. . ... ... : ... .. . ... ... : ... .. . ... ... : ... .. . ... ...
ROW 1B : ... .. A ... ... ... : ... .. 7 ... ... ... : G#3 00 . ... : ... .. 3 ... : ... .. . ... ... : ... .. . ... ... : ... .. . ... ... : ... .. 3 ... ...
ROW 1C : ... .. . ... ... ... : ... .. 5 ... ... ... : D#3 00 . ... : ... .. 2 ... : ... .. . ... ... : ... .. 4 ... ... : ... .. . ... ... : ... .. . ... ...
ROW 1D : ... .. . ... ... ... : ... .. . ... ... ... : --- .. . ... : ... .. 0 ... : ... .. . ... ... : ... .. . ... ... : ... .. . ... ... : ... .. . ... ...
ROW 1E : ... .. . ... ... ... : D#3 00 9 ... ... ... : D-5 00 . ... : ... .. F ... : ... .. . ... ... : G#3 01 6 ... ... : ... .. . ... ... : ... .. . ... ...
ROW 1F : ... .. . ... ... ... : ... .. 8 ... ... ... : E-4 00 . ... : ... .. C ... : ... .. . ... ... : ... .. 5 ... ... : ... .. . ... ... : ... .. . ... ...
ROW 20 : ... .. . ... ... ... : ... .. . ... ... ... : A-3 00 . ... : ... .. 6 ... : ... .. . ... ... : ... .. . ... ... : ... .. . ... ... : ... .. . ... ...
ROW 21 : ... .. . ... ... ... : ... .. 7 ... ... ... : G#3 00 . ... : ... .. 3 ... : ... .. . ... ... : ... .. . ... ... : ... .. . ... ... : ... .. . ... ...
ROW 22 : ... .. . ... ... ... : ... .. 5 ... ... ... : D#3 00 . ... : ... .. 2 ... : ... .. . ... ... : ... .. 4 ... ... : ... .. . ... ... : ... .. . ... ...
ROW 23 : ... .. . ... ... ... : ... .. . ... ... ... : --- .. . ... : ... .. 0 ... : ... .. . ... ... : ... .. . ... ... : ... .. . ... ... : ... .. . ... ...
ROW 24 : ... .. . ... ... ... : A#3 00 9 ... ... ... : C#3 00 . ... : 7-# 00 F ... : ... .. . ... ... : F#3 01 6 ... ... : ... .. . ... ... : ... .. . ... ...
ROW 25 : ... .. . ... ... ... : ... .. 8 ... ... ... : ... .. . ... : ... .. C ... : ... .. . ... ... : ... .. 5 ... ... : ... .. . ... ... : ... .. . ... ...
ROW 26 : ... .. . ... ... ... : ... .. . ... ... ... : ... .. . ... : ... .. A ... : ... .. . ... ... : ... .. . ... ... : ... .. . ... ... : ... .. . ... ...
ROW 27 : ... .. . ... ... ... : ... .. 7 ... ... ... : ... .. . ... : ... .. 8 ... : ... .. . ... ... : ... .. . ... ... : ... .. . ... ... : ... .. . ... ...
ROW 28 : ... .. . ... ... ... : ... .. 5 ... ... ... : ... .. . ... : ... .. 7 ... : ... .. . ... ... : ... .. 4 ... ... : ... .. . ... ... : ... .. . ... ...
ROW 29 : ... .. . ... ... ... : ... .. . ... ... ... : --- .. . ... : ... .. 4 ... : ... .. . ... ... : ... .. . ... ... : ... .. . ... ... : ... .. . ... ...
ROW 2A : ... .. . P84 ... ... : F#3 00 9 ... ... ... : D#3 00 . ... : C-# 00 4 ... : ... .. . ... ... : C#4 01 6 ... ... : ... .. . ... ... : ... .. . ... ...
ROW 2B : A-4 00 A P7E ... ... : ... .. 8 ... ... ... : ... .. . ... : ... .. 3 ... : ... .. . ... ... : ... .. 5 ... ... : ... .. . ... ... : ... .. . ... ...
ROW 2C : ... .. . P7D ... ... : ... .. . ... ... ... : ... .. . ... : ... .. 1 ... : ... .. . ... ... : ... .. . ... ... : ... .. . ... ... : ... .. . ... ...
ROW 2D : G#4 00 A P82 ... ... : ... .. 7 ... ... ... : ... .. . ... : ... .. . ... : ... .. . ... ... : ... .. . ... ... : ... .. . ... ... : ... .. . ... ...
ROW 2E : ... .. . P7E ... ... : ... .. 5 ... ... ... : ... .. . ... : ... .. . ... : ... .. . ... ... : ... .. 4 ... ... : ... .. . ... ... : ... .. . ... ...
ROW 2F : G-4 00 A P83 ... ... : ... .. . ... ... ... : --- .. . ... : ... .. 0 ... : ... .. . ... ... : ... .. . ... ... : ... .. . ... ... : ... .. . ... ...
ROW 30 : ... .. . P82 ... ... : C-4 00 9 ... ... ... : D-4 00 . ... : 1-# 00 F ... : ... .. . ... ... : G#3 01 6 ... ... : A#3 01 4 ... ... : D#4 01 6 ... ...
ROW 31 : ... .. . P84 ... ... : ... .. 8 ... ... ... : E-3 00 . ... : ... .. C ... : ... .. . ... ... : ... .. 5 ... ... : ... .. 3 ... ... : ... .. 5 ... ...
ROW 32 : G#4 00 A P80 ... ... : ... .. . ... ... ... : A-2 00 . ... : ... .. 6 ... : ... .. . ... ... : ... .. . ... ... : ... .. . ... ... : ... .. 3 ... ...
ROW 33 : ... .. . P83 ... ... : ... .. 7 ... ... ... : G#2 00 . ... : ... .. 3 ... : ... .. . ... ... : ... .. . ... ... : ... .. 2 ... ... : ... .. . ... ...
ROW 34 : A-4 00 A P7E ... ... : ... .. 5 ... ... ... : D#2 00 . ... : ... .. 2 ... : ... .. . ... ... : ... .. 4 ... ... : ... .. . ... ... : ... .. . ... ...
ROW 35 : ... .. . ... ... ... : ... .. . ... ... ... : --- .. . ... : ... .. 0 ... : ... .. . ... ... : ... .. . ... ... : ... .. . ... ... : ... .. . ... ...
ROW 36 : G#4 00 A P82 ... ... : G#3 00 9 ... ... ... : D-4 00 . ... : ... .. F ... : ... .. . ... ... : A#3 01 6 ... ... : ... .. . ... ... : ... .. . ... ...
ROW 37 : ... .. . P7F ... ... : ... .. 8 ... ... ... : E-3 00 . ... : ... .. C ... : ... .. . ... ... : ... .. 5 ... ... : ... .. . ... ... : ... .. . ... ...
ROW 38 : G-4 00 A P83 ... ... : ... .. . ... ... ... : A-2 00 . ... : ... .. 6 ... : ... .. . ... ... : ... .. . ... ... : ... .. . ... ... : ... .. . ... ...
ROW 39 : ... .. . P82 ... ... : ... .. 7 ... ... ... : G#2 00 . ... : ... .. 3 ... : ... .. . ... ... : ... .. . ... ... : ... .. . ... ... : ... .. . ... ...
ROW 3A : ... .. 2 P84 ... ... : ... .. 5 ... ... ... : D#2 00 . ... : ... .. 2 ... : ... .. . ... ... : ... .. 4 ... ... : ... .. . ... ... : ... .. . ... ...
ROW 3B : G#4 00 2 P80 ... ... : ... .. . ... ... ... : --- .. . ... : ... .. 0 ... : ... .. . ... ... : ... .. . ... ... : ... .. . ... ... : ... .. . ... ...
ROW 3C : A#3 00 F ... ... ... : D#3 00 9 ... ... ... : C-5 00 . ... : 7-# 00 F ... : ... .. . ... ... : F-4 01 6 ... ... : ... .. . ... ... : ... .. . ... ...
ROW 3D : ... .. E ... ... ... : ... .. 8 ... ... ... : D-4 00 . ... : ... .. C ... : ... .. . ... ... : ... .. 5 ... ... : ... .. . ... ... : ... .. . ... ...
ROW 3E : ... .. D ... ... ... : ... .. . ... ... ... : G-3 00 . ... : ... .. A ... : ... .. . ... ... : ... .. . ... ... : ... .. . ... ... : ... .. . ... ...
ROW 3F : ... .. A ... ... ... : ... .. 7 ... ... ... : F#3 00 . ... : ... .. 8 ... : ... .. . ... ... : ... .. . ... ... : ... .. . ... ... : ... .. . ... ...
ROW 40 : ... .. . ... ... ... : ... .. 5 ... ... ... : C#3 00 . ... : ... .. 7 ... : ... .. . ... ... : ... .. 4 ... ... : ... .. . ... ... : ... .. . ... ...
ROW 41 : ... .. . ... ... ... : ... .. . ... ... ... : --- .. . ... : ... .. 4 ... : ... .. . ... ... : ... .. . ... ... : ... .. . ... ... : ... .. . ... ...
ROW 42 : G#4 00 F ... V02 ... : C-4 00 9 ... ... ... : D#3 00 . ... : 1-# 00 F ... : ... .. . ... ... : C#4 01 6 ... ... : ... .. . ... ... : ... .. . ... ...
ROW 43 : ... .. E ... ... ... : ... .. 8 ... ... ... : ... .. . ... : ... .. C ... : ... .. . ... ... : ... .. 5 ... ... : ... .. . ... ... : ... .. . ... ...
ROW 44 : ... .. D ... ... ... : ... .. . ... ... ... : ... .. . ... : ... .. 6 ... : ... .. . ... ... : ... .. . ... ... : ... .. . ... ... : ... .. . ... ...
ROW 45 : ... .. A ... ... ... : ... .. 7 ... ... ... : ... .. . ... : ... .. 3 ... : ... .. . ... ... : ... .. . ... ... : ... .. . ... ... : ... .. . ... ...
ROW 46 : ... .. . ... ... ... : ... .. 5 ... ... ... : ... .. . ... : ... .. 2 ... : ... .. . ... ... : ... .. 4 ... ... : ... .. . ... ... : ... .. . ... ...
ROW 47 : ... .. . ... ... ... : ... .. . ... ... ... : --- .. . ... : ... .. 0 ... : ... .. . ... ... : ... .. . ... ... : ... .. . ... ... : ... .. . ... ...
ROW 48 : F#4 00 F ... V01 ... : G#3 00 9 ... ... ... : D-5 00 . ... : C-# 00 4 ... : ... .. . ... ... : D#4 01 6 ... ... : ... .. . ... ... : ... .. 4 ... ...
ROW 49 : ... .. E ... ... ... : ... .. 8 ... ... ... : E-4 00 . ... : ... .. 3 ... : ... .. . ... ... : ... .. 5 ... ... : ... .. . ... ... : ... .. . ... ...
ROW 4A : ... .. D ... ... ... : ... .. . ... ... ... : A-3 00 . ... : ... .. 1 ... : ... .. . ... ... : ... .. . ... ... : ... .. . ... ... : ... .. . ... ...
ROW 4B : ... .. A ... ... ... : ... .. 7 ... ... ... : G#3 00 . ... : ... .. . ... : ... .. . ... ... : ... .. . ... ... : ... .. . ... ... : ... .. . ... ...
ROW 4C : ... .. . ... ... ... : ... .. 5 ... ... ... : D#3 00 . ... : ... .. . ... : ... .. . ... ... : ... .. 4 ... ... : ... .. . ... ... : ... .. . ... ...
ROW 4D : ... .. . ... ... ... : ... .. . ... ... ... : --- .. . ... : ... .. 0 ... : ... .. . ... ... : ... .. . ... ... : ... .. . ... ... : ... .. . ... ...
ROW 4E : ... .. . ... ... ... : D#3 00 9 ... ... ... : D-5 00 . ... : 1-# 00 F ... : ... .. . ... ... : G#4 01 6 ... ... : ... .. . ... ... : ... .. . ... ...
ROW 4F : ... .. . ... ... ... : ... .. 8 ... ... ... : E-4 00 . ... : ... .. C ... : ... .. . ... ... : ... .. 5 ... ... : ... .. . ... ... : ... .. . ... ...
ROW 50 : ... .. . ... ... ... : ... .. . ... ... ... : A-3 00 . ... : ... .. 6 ... : ... .. . ... ... : ... .. . ... ... : ... .. . ... ... : ... .. . ... ...
ROW 51 : ... .. . ... ... ... : ... .. 7 ... ... ... : G#3 00 . ... : ... .. 3 ... : ... .. . ... ... : ... .. . ... ... : ... .. 3 ... ... : ... .. . ... ...
ROW 52 : ... .. . ... ... ... : ... .. 5 ... ... ... : D#3 00 . ... : ... .. 2 ... : ... .. . ... ... : ... .. 4 ... ... : ... .. . ... ... : ... .. . ... ...
ROW 53 : ... .. . ... ... ... : ... .. . ... ... ... : --- .. . ... : ... .. 0 ... : ... .. . ... ... : ... .. . ... ... : ... .. . ... ... : ... .. . ... ...
ROW 54 : ... .. . ... ... ... : C-4 00 9 ... ... ... : C#3 00 . ... : 7-# 00 F ... : ... .. . ... ... : F#4 01 6 ... ... : ... .. . ... ... : ... .. . ... ...
ROW 55 : ... .. . ... ... ... : ... .. 8 ... ... ... : ... .. . ... : ... .. C ... : ... .. . ... ... : ... .. 5 ... ... : ... .. . ... ... : ... .. . ... ...
ROW 56 : ... .. . ... ... ... : ... .. . ... ... ... : ... .. . ... : ... .. A ... : ... .. . ... ... : ... .. . ... ... : ... .. . ... ... : ... .. . ... ...
ROW 57 : ... .. . ... ... ... : ... .. 7 ... ... ... : ... .. . ... : ... .. 8 ... : ... .. . ... ... : ... .. . ... ... : ... .. . ... ... : ... .. . ... ...
ROW 58 : ... .. . ... ... ... : ... .. 5 ... ... ... : ... .. . ... : ... .. 7 ... : ... .. . ... ... : ... .. 4 ... ... : ... .. . ... ... : ... .. . ... ...
ROW 59 : ... .. . ... ... ... : ... .. . ... ... ... : --- .. . ... : ... .. 4 ... : ... .. . ... ... : ... .. . ... ... : ... .. . ... ... : ... .. . ... ...
ROW 5A : ... .. . P84 ... ... : G#3 00 9 ... ... ... : D#3 00 . ... : C-# 00 4 ... : ... .. . ... ... : A#4 01 6 ... ... : ... .. . ... ... : ... .. . ... ...
ROW 5B : G-4 00 A P7E ... ... : ... .. 8 ... ... ... : ... .. . ... : ... .. 3 ... : ... .. . ... ... : ... .. 5 ... ... : ... .. . ... ... : ... .. . ... ...
ROW 5C : ... .. . P7D ... ... : ... .. . ... ... ... : ... .. . ... : ... .. 1 ... : ... .. . ... ... : ... .. . ... ... : ... .. . ... ... : ... .. . ... ...
ROW 5D : F#4 00 A P82 ... ... : ... .. 7 ... ... ... : ... .. . ... : ... .. . ... : ... .. . ... ... : ... .. . ... ... : ... .. . ... ... : ... .. 5 ... ...
ROW 5E : ... .. . P7E ... ... : ... .. 5 ... ... ... : ... .. . ... : ... .. . ... : ... .. . ... ... : ... .. 4 ... ... : ... .. . ... ... : ... .. . ... ...
ROW 5F : F-4 00 A P84 ... ... : ... .. . ... ... ... : --- .. . ... : ... .. 0 ... : ... .. . ... ... : ... .. . ... ... : ... .. . ... ... : ... .. . ... ...
ROW 60 : ... .. . P83 ... ... : C#4 00 9 ... ... ... : D-4 00 . ... : 1-# 00 F ... : ... .. . ... ... : C#4 01 6 ... ... : C#4 01 6 ... ... : F#4 01 A ... ...
ROW 61 : F#4 00 A P7C ... ... : ... .. 8 ... ... ... : E-3 00 . ... : ... .. C ... : ... .. . ... ... : ... .. 5 ... ... : ... .. . ... ... : ... .. 8 ... ...
ROW 62 : ... .. . P80 ... ... : ... .. . ... ... ... : A-2 00 . ... : ... .. 6 ... : ... .. . ... ... : ... .. . ... ... : ... .. 5 ... ... : ... .. 5 ... ...
ROW 63 : ... .. . P83 ... ... : ... .. 7 ... ... ... : G#2 00 . ... : ... .. 3 ... : ... .. . ... ... : ... .. . ... ... : ... .. 4 ... ... : ... .. . ... ...
ROW 64 : G-4 00 A P7E ... ... : ... .. 5 ... ... ... : D#2 00 . ... : ... .. 2 ... : ... .. . ... ... : ... .. 4 ... ... : ... .. . ... ... : ... .. . ... ...
ROW 65 : ... .. . ... ... ... : ... .. . ... ... ... : ... .. . ... : ... .. 0 ... : ... .. . ... ... : ... .. . ... ... : ... .. . ... ... : ... .. . ... ...
ROW 66 : F#4 00 A P82 ... ... : F#3 00 9 ... ... ... : ... .. . ... : ... .. F ... : ... .. . ... ... : D#4 01 6 ... ... : ... .. . ... ... : ... .. . ... ...
ROW 67 : ... .. . P7F ... ... : ... .. 8 ... ... ... : ... .. . ... : ... .. C ... : ... .. . ... ... : ... .. 5 ... ... : ... .. 3 ... ... : ... .. . ... ...
ROW 68 : F-4 00 A P84 ... ... : ... .. . ... ... ... : ... .. . ... : ... .. 6 ... : ... .. . ... ... : ... .. . ... ... : ... .. . ... ... : ... .. . ... ...
ROW 69 : ... .. . P83 ... ... : ... .. 7 ... ... ... : ... .. . ... : ... .. 3 ... : ... .. . ... ... : ... .. . ... ... : ... .. . ... ... : ... .. . ... ...
ROW 6A : F#4 00 2 P7C ... ... : ... .. 5 ... ... ... : ... .. . ... : ... .. 2 ... : ... .. . ... ... : ... .. 4 ... ... : ... .. . ... ... : ... .. . ... ...
ROW 6B : ... .. . P80 ... ... : ... .. . ... ... ... : --- .. . ... : ... .. 0 ... : ... .. . ... ... : ... .. . ... ... : ... .. . ... ... : ... .. . ... ...
ROW 6C : F#3 00 F ... V02 ... : D#3 00 9 ... ... ... : D#3 00 . ... : 7-# 00 F ... : ... .. . ... ... : C#5 01 6 ... ... : ... .. . ... ... : ... .. . ... ...
ROW 6D : ... .. E ... ... ... : ... .. 8 ... ... ... : ... .. . ... : ... .. C ... : ... .. . ... ... : ... .. 5 ... ... : ... .. . ... ... : ... .. . ... ...
ROW 6E : ... .. D ... ... ... : ... .. . ... ... ... : ... .. . ... : ... .. A ... : ... .. . ... ... : ... .. . ... ... : ... .. . ... ... : ... .. . ... ...
ROW 6F : ... .. A ... ... ... : ... .. 7 ... ... ... : ... .. . ... : ... .. 8 ... : ... .. . ... ... : ... .. . ... ... : ... .. . ... ... : ... .. . ... ...
ROW 70 : ... .. 2 ... ... ... : ... .. 5 ... ... ... : ... .. . ... : ... .. 7 ... : ... .. . ... ... : ... .. 4 ... ... : ... .. . ... ... : ... .. . ... ...
ROW 71 : ... .. . ... ... ... : ... .. . ... ... ... : --- .. . ... : ... .. 4 ... : ... .. . ... ... : ... .. . ... ... : ... .. . ... ... : ... .. . ... ...
ROW 72 : F#4 00 F ... V01 ... : C#4 00 9 ... ... ... : D#3 00 . ... : C-# 00 4 ... : ... .. . ... ... : G#4 01 6 ... ... : ... .. 4 ... ... : ... .. 6 ... ...
ROW 73 : ... .. E ... ... ... : ... .. 8 ... ... ... : ... .. . ... : ... .. 3 ... : ... .. . ... ... : ... .. 5 ... ... : ... .. . ... ... : ... .. . ... ...
ROW 74 : ... .. D ... ... ... : ... .. . ... ... ... : ... .. . ... : ... .. 1 ... : ... .. . ... ... : ... .. . ... ... : ... .. . ... ... : ... .. . ... ...
ROW 75 : ... .. A ... ... ... : ... .. 7 ... ... ... : ... .. . ... : ... .. . ... : ... .. . ... ... : ... .. . ... ... : ... .. . ... ... : ... .. . ... ...
ROW 76 : ... .. 2 ... ... ... : ... .. 5 ... ... ... : ... .. . ... : ... .. . ... : ... .. . ... ... : ... .. 4 ... ... : ... .. . ... ... : ... .. . ... ...
ROW 77 : ... .. . ... ... ... : ... .. . ... ... ... : --- .. . ... : ... .. 0 ... : ... .. . ... ... : ... .. . ... ... : ... .. . ... ... : ... .. . ... ...
ROW 78 : F-4 00 F ... V00 ... : F#3 00 9 ... ... ... : D-5 00 . ... : 1-# 00 F ... : ... .. . ... ... : A#4 01 6 ... ... : ... .. . ... ... : ... .. . ... ...
ROW 79 : ... .. E ... ... ... : ... .. 8 ... ... ... : E-4 00 . ... : ... .. C ... : ... .. . ... ... : ... .. 5 ... ... : ... .. . ... ... : ... .. . ... ...
ROW 7A : ... .. D ... ... ... : ... .. . ... ... ... : A-3 00 . ... : ... .. 6 ... : ... .. . ... ... : ... .. . ... ... : ... .. . ... ... : ... .. . ... ...
ROW 7B : ... .. A ... ... ... : ... .. 7 ... ... ... : G#3 00 . ... : ... .. 3 ... : ... .. . ... ... : ... .. . ... ... : ... .. . ... ... : ... .. . ... ...
ROW 7C : ... .. . ... ... ... : ... .. 5 ... ... ... : D#3 00 . ... : ... .. 2 ... : ... .. . ... ... : ... .. 4 ... ... : ... .. . ... ... : ... .. . ... ...
ROW 7D : ... .. . ... ... ... : ... .. . ... ... ... : --- .. . ... : ... .. 0 ... : ... .. . ... ... : ... .. . ... ... : ... .. . ... ... : ... .. . ... ...
ROW 7E : ... .. . ... ... ... : D#3 00 9 ... ... ... : D-5 00 . ... : ... .. F ... : ... .. . ... ... : D#5 01 6 ... ... : ... .. . ... ... : ... .. . ... ...
ROW 7F : ... .. . ... ... ... : ... .. 8 ... ... ... : E-4 00 . ... : ... .. C ... : ... .. . ... ... : ... .. 5 ... ... : ... .. . ... ... : ... .. . ... ...
ROW 80 : ... .. . ... ... ... : ... .. . ... ... ... : A-3 00 . ... : ... .. 6 ... : ... .. . ... ... : ... .. . ... ... : ... .. . ... ... : ... .. . ... ...
ROW 81 : ... .. . ... ... ... : ... .. 7 ... ... ... : G#3 00 . ... : ... .. 3 ... : ... .. . ... ... : ... .. . ... ... : ... .. . ... ... : ... .. . ... ...
ROW 82 : ... .. 2 ... ... ... : ... .. 5 ... ... ... : D#3 00 . ... : ... .. 2 ... : ... .. . ... ... : ... .. 4 ... ... : ... .. . ... ... : ... .. . ... ...
ROW 83 : ... .. . ... ... ... : ... .. . ... ... ... : --- .. . ... : ... .. 0 ... : ... .. . ... ... : ... .. . ... ... : ... .. . ... ... : ... .. . ... ...
ROW 84 : F#3 00 F ... ... ... : C#4 00 9 ... ... ... : C#3 00 . ... : 7-# 00 F ... : ... .. . ... ... : G#4 01 6 ... ... : ... .. . ... ... : ... .. . ... ...
ROW 85 : ... .. E ... ... ... : ... .. 8 ... ... ... : ... .. . ... : ... .. C ... : ... .. . ... ... : ... .. 5 ... ... : ... .. . ... ... : ... .. . ... ...
ROW 86 : ... .. D ... ... ... : ... .. . ... ... ... : ... .. . ... : ... .. A ... : ... .. . ... ... : ... .. . ... ... : ... .. . ... ... : ... .. . ... ...
ROW 87 : ... .. A ... ... ... : ... .. 7 ... ... ... : ... .. . ... : ... .. 8 ... : ... .. . ... ... : ... .. . ... ... : ... .. . ... ... : ... .. 7 ... ...
ROW 88 : ... .. 2 ... ... ... : ... .. 5 ... ... ... : ... .. . ... : ... .. 7 ... : ... .. . ... ... : ... .. 4 ... ... : ... .. . ... ... : ... .. . ... ...
ROW 89 : ... .. . ... ... ... : ... .. . ... ... ... : --- .. . ... : ... .. 4 ... : ... .. . ... ... : ... .. . ... ... : ... .. . ... ... : ... .. . ... ...
ROW 8A : F-4 00 F ... ... ... : F#3 00 9 ... ... ... : D#3 00 . ... : C-# 00 4 ... : ... .. . ... ... : A#4 01 6 ... ... : ... .. . ... ... : ... .. . ... ...
ROW 8B : ... .. E ... ... ... : ... .. 8 ... ... ... : ... .. . ... : ... .. 3 ... : ... .. . ... ... : ... .. 5 ... ... : ... .. . ... ... : ... .. . ... ...
ROW 8C : ... .. D ... ... ... : ... .. . ... ... ... : ... .. . ... : ... .. 1 ... : ... .. . ... ... : ... .. . ... ... : ... .. . ... ... : ... .. . ... ...
ROW 8D : ... .. A ... ... ... : ... .. 7 ... ... ... : ... .. . ... : ... .. . ... : ... .. . ... ... : ... .. . ... ... : ... .. . ... ... : ... .. . ... ...
ROW 8E : ... .. 2 ... ... ... : ... .. 5 ... ... ... : ... .. . ... : ... .. . ... : ... .. . ... ... : ... .. 4 ... ... : ... .. . ... ... : ... .. . ... ...
ROW 8F : ... .. . ... ... ... : ... .. . ... ... ... : --- .. . ... : ... .. 0 ... : ... .. . ... ... : ... .. . ... ... : ... .. . ... ... : ... .. . ... ...
ROW 90 : D#4 00 F ... V01 ... : D#4 00 9 ... ... ... : D-4 00 . ... : 1-# 00 F ... : ... .. . ... ... : D#4 01 6 ... ... : D#4 01 A ... ... : G#4 01 F ... ...
ROW 91 : ... .. E ... ... ... : ... .. 8 ... ... ... : E-3 00 . ... : ... .. C ... : ... .. . ... ... : ... .. 5 ... ... : ... .. 9 ... ... : ... .. D ... ...
ROW 92 : ... .. D ... ... ... : ... .. . ... ... ... : A-2 00 . ... : ... .. 6 ... : ... .. . ... ... : ... .. . ... ... : ... .. 8 ... ... : ... .. 8 ... ...
ROW 93 : ... .. A ... ... ... : ... .. 7 ... ... ... : G#2 00 . ... : ... .. 3 ... : ... .. . ... ... : ... .. . ... ... : ... .. 6 ... ... : ... .. 6 ... ...
ROW 94 : ... .. . ... ... ... : ... .. 5 ... ... ... : D#2 00 . ... : ... .. 2 ... : ... .. . ... ... : ... .. 4 ... ... : ... .. . ... ... : ... .. . ... ...
ROW 95 : ... .. . ... ... ... : ... .. . ... ... ... : --- .. . ... : ... .. 0 ... : ... .. . ... ... : ... .. . ... ... : ... .. 5 ... ... : ... .. . ... ...
ROW 96 : ... .. . ... ... ... : C-4 00 9 ... ... ... : D-4 00 . ... : ... .. F ... : ... .. . ... ... : G#3 01 6 ... ... : ... .. 4 ... ... : ... .. 5 ... ...
ROW 97 : ... .. . ... ... ... : ... .. 8 ... ... ... : E-3 00 . ... : ... .. C ... : ... .. . ... ... : ... .. 5 ... ... : ... .. 3 ... ... : ... .. . ... ...
ROW 98 : ... .. . ... ... ... : ... .. . ... ... ... : A-2 00 . ... : ... .. 6 ... : ... .. . ... ... : ... .. . ... ... : ... .. . ... ... : ... .. . ... ...
ROW 99 : ... .. . ... ... ... : ... .. 7 ... ... ... : G#2 00 . ... : ... .. 3 ... : ... .. . ... ... : ... .. . ... ... : ... .. . ... ... : ... .. 4 ... ...
ROW 9A : ... .. . ... ... ... : ... .. 5 ... ... ... : D#2 00 . ... : ... .. 2 ... : ... .. . ... ... : ... .. 4 ... ... : ... .. . ... ... : ... .. . ... ...
ROW 9B : ... .. . ... ... ... : ... .. . ... ... ... : --- .. . ... : ... .. 0 ... : ... .. . ... ... : ... .. . ... ... : ... .. . ... ... : ... .. . ... ...
ROW 9C : ... .. . P84 ... ... : G#3 00 9 ... ... ... : C#3 00 . ... : 7-# 00 F ... : ... .. . ... ... : A#3 01 6 ... ... : ... .. 2 ... ... : ... .. 3 ... ...
ROW 9D : E-4 00 A P7C ... ... : ... .. 8 ... ... ... : ... .. . ... : ... .. C ... : ... .. . ... ... : ... .. 5 ... ... : ... .. . ... ... : ... .. . ... ...
ROW 9E : D#4 00 A P85 ... ... : ... .. . ... ... ... : ... .. . ... : ... .. A ... : ... .. . ... ... : ... .. . ... ... : ... .. . ... ... : ... .. . ... ...
ROW 9F : ... .. . P82 ... ... : ... .. 7 ... ... ... : ... .. . ... : ... .. 8 ... : ... .. . ... ... : ... .. . ... ... : ... .. 1 ... ... : ... .. 2 ... ...
ROW A0 : ... .. . P7E ... ... : ... .. 5 ... ... ... : ... .. . ... : ... .. 7 ... : ... .. . ... ... : ... .. 4 ... ... : ... .. . ... ... : ... .. . ... ...
ROW A1 : D-4 00 A P85 ... ... : ... .. . ... ... ... : --- .. . ... : ... .. 4 ... : ... .. . ... ... : ... .. . ... ... : ... .. . ... ... : ... .. . ... ...
ROW A2 : ... .. . P84 ... ... : D#4 00 9 ... ... ... : D#3 00 . ... : 1-# 00 F ... : ... .. . ... ... : D#4 01 6 ... ... : ... .. . ... ... : ... .. . ... ...
ROW A3 : D#4 00 A P7C ... ... : ... .. 8 ... ... ... : ... .. . ... : ... .. C ... : ... .. . ... ... : ... .. 5 ... ... : ... .. . ... ... : ... .. . ... ...
ROW A4 : ... .. . P80 ... ... : ... .. . ... ... ... : ... .. . ... : ... .. 6 ... : ... .. . ... ... : ... .. . ... ... : ... .. . ... ... : ... .. . ... ...
ROW A5 : ... .. . P83 ... ... : ... .. 7 ... ... ... : ... .. . ... : ... .. 3 ... : ... .. . ... ... : ... .. . ... ... : ... .. . ... ... : ... .. . ... ...
ROW A6 : E-4 00 2 P7C ... ... : ... .. 5 ... ... ... : ... .. . ... : ... .. 2 ... : ... .. . ... ... : ... .. 4 ... ... : ... .. . ... ... : ... .. . ... ...
ROW A7 : ... .. . ... ... ... : ... .. . ... ... ... : --- .. . ... : ... .. 0 ... : ... .. . ... ... : ... .. . ... ... : ... .. . ... ... : ... .. . ... ...
ROW A8 : C#4 00 F P80 ... ... : C-4 00 9 ... ... ... : D-5 00 . ... : C-# 00 4 ... : ... .. . ... ... : G#3 01 6 ... ... : ... .. 2 ... ... : ... .. 3 ... ...
ROW A9 : ... .. E ... ... ... : ... .. 8 ... ... ... : E-4 00 . ... : ... .. 3 ... : ... .. . ... ... : ... .. 5 ... ... : ... .. . ... ... : ... .. . ... ...
ROW AA : ... .. D ... ... ... : ... .. . ... ... ... : A-3 00 . ... : ... .. 1 ... : ... .. . ... ... : ... .. . ... ... : ... .. . ... ... : ... .. . ... ...
ROW AB : ... .. A ... ... ... : ... .. 7 ... ... ... : G#3 00 . ... : ... .. . ... : ... .. . ... ... : ... .. . ... ... : ... .. . ... ... : ... .. . ... ...
ROW AC : ... .. . ... ... ... : ... .. 5 ... ... ... : D#3 00 . ... : ... .. . ... : ... .. . ... ... : ... .. 4 ... ... : ... .. . ... ... : ... .. . ... ...
ROW AD : ... .. . ... ... ... : ... .. . ... ... ... : --- .. . ... : ... .. 0 ... : ... .. . ... ... : ... .. . ... ... : ... .. . ... ... : ... .. . ... ...
ROW AE : ... .. . ... ... ... : G#3 00 9 ... ... ... : D-5 00 . ... : 1-# 00 F ... : ... .. . ... ... : D#3 01 6 ... ... : ... .. . ... ... : ... .. 4 ... ...
ROW AF : ... .. . ... ... ... : ... .. 8 ... ... ... : E-4 00 . ... : ... .. C ... : ... .. . ... ... : ... .. 5 ... ... : ... .. . ... ... : ... .. . ... ...
ROW B0 : ... .. . ... ... ... : ... .. . ... ... ... : A-3 00 . ... : ... .. 6 ... : ... .. . ... ... : ... .. . ... ... : ... .. . ... ... : ... .. . ... ...
ROW B1 : ... .. . ... ... ... : ... .. 7 ... ... ... : G#3 00 . ... : ... .. 3 ... : ... .. . ... ... : ... .. . ... ... : ... .. 3 ... ... : ... .. 5 ... ...
ROW B2 : ... .. 2 ... ... ... : ... .. 5 ... ... ... : D#3 00 . ... : ... .. 2 ... : ... .. . ... ... : ... .. 4 ... ... : ... .. . ... ... : ... .. . ... ...
ROW B3 : ... .. . ... ... ... : ... .. . ... ... ... : --- .. . ... : ... .. 0 ... : ... .. . ... ... : ... .. . ... ... : ... .. . ... ... : ... .. . ... ...
ROW B4 : D#4 00 F ... ... ... : D#4 00 9 ... ... ... : C#3 00 . ... : 7-# 00 F ... : ... .. . ... ... : C#3 01 6 ... ... : ... .. . ... ... : ... .. . ... ...
ROW B5 : ... .. E ... ... ... : ... .. 8 ... ... ... : ... .. . ... : ... .. C ... : ... .. . ... ... : ... .. 5 ... ... : ... .. . ... ... : ... .. . ... ...
ROW B6 : ... .. D ... ... ... : ... .. . ... ... ... : ... .. . ... : ... .. A ... : ... .. . ... ... : ... .. . ... ... : ... .. . ... ... : ... .. . ... ...
ROW B7 : ... .. A ... ... ... : ... .. 7 ... ... ... : ... .. . ... : ... .. 8 ... : ... .. . ... ... : ... .. . ... ... : ... .. 4 ... ... : ... .. 6 ... ...
ROW B8 : ... .. . ... ... ... : ... .. 5 ... ... ... : ... .. . ... : ... .. 7 ... : ... .. . ... ... : ... .. 4 ... ... : ... .. . ... ... : ... .. . ... ...
ROW B9 : ... .. . ... ... ... : ... .. . ... ... ... : --- .. . ... : ... .. 4 ... : ... .. . ... ... : ... .. . ... ... : ... .. . ... ... : ... .. . ... ...
ROW BA : ... .. . ... ... ... : C-4 00 9 ... ... ... : D#3 00 . ... : C-# 00 4 ... : ... .. . ... ... : F#3 01 6 ... ... : ... .. . ... ... : ... .. . ... ...
ROW BB : ... .. . ... ... ... : ... .. 8 ... ... ... : ... .. . ... : ... .. 3 ... : ... .. . ... ... : ... .. 5 ... ... : ... .. . ... ... : ... .. . ... ...
ROW BC : ... .. . ... ... ... : ... .. . ... ... ... : ... .. . ... : ... .. 1 ... : ... .. . ... ... : ... .. . ... ... : ... .. . ... ... : ... .. . ... ...
ROW BD : ... .. . ... ... ... : ... .. 7 ... ... ... : ... .. . ... : ... .. 4 ... : ... .. . ... ... : ... .. . ... ... : ... .. 5 ... ... : ... .. 8 ... ...
ROW BE : ... .. 2 ... ... ... : ... .. 5 ... ... ... : ... .. . ... : ... .. 3 ... : ... .. . ... ... : ... .. 4 ... ... : ... .. . ... ... : ... .. . ... ...
ROW BF : ... .. . ... ... ... : ... .. . ... ... ... : --- .. . ... : ... .. 1 ... : ... .. . ... ... : ... .. . ... ... : ... .. . ... ... : ... .. . ... ...
ROW C0 : A#3 00 F ... V00 ... : F-4 00 8 ... ... ... : D-4 00 . ... : 1-# 00 F ... : ... .. . ... ... : F#4 01 9 ... ... : ... .. 9 ... V05 : A#4 01 A ... ...
ROW C1 : ... .. E ... ... ... : ... .. B ... ... ... : E-3 00 . ... : ... .. C ... : ... .. . ... ... : ... .. 8 ... ... : ... .. 8 ... ... : ... .. 8 ... ...
ROW C2 : ... .. D ... ... ... : ... .. 8 ... ... ... : A-2 00 . ... : ... .. 6 ... : ... .. . ... ... : ... .. . ... ... : ... .. . ... ... : ... .. 5 ... ...
ROW C3 : ... .. A ... ... ... : ... .. 0 ... ... ... : G#2 00 . ... : ... .. 3 ... : ... .. . ... ... : --- .. . ... ... : --- .. . ... ... : --- .. . ... ...
ROW C4 : ... .. 2 ... ... ... : F-4 00 5 P80 ... ... : D#2 00 . ... : ... .. 2 ... : ... .. . ... ... : ... .. . ... ... : ... .. . ... ... : ... .. . ... ...
ROW C5 : ... .. . ... ... ... : ... .. 8 ... ... ... : ... .. . ... : ... .. 0 ... : ... .. . ... ... : ... .. . ... ... : ... .. . ... ... : ... .. . ... ...
ROW C6 : G#3 00 F ... ... ... : C#4 00 8 ... ... ... : ... .. . ... : ... .. F ... : ... .. . ... ... : F-4 01 9 ... ... : D#4 01 9 ... ... : G#4 01 A ... ...
ROW C7 : ... .. E ... ... ... : ... .. B ... ... ... : ... .. . ... : ... .. C ... : ... .. . ... ... : ... .. 8 ... ... : ... .. 8 ... ... : ... .. 8 ... ...
ROW C8 : ... .. D ... ... ... : ... .. 8 ... ... ... : ... .. . ... : ... .. 6 ... : ... .. . ... ... : ... .. . ... ... : ... .. . ... ... : ... .. 5 ... ...
ROW C9 : ... .. A ... ... ... : ... .. 0 ... ... ... : ... .. . ... : ... .. 3 ... : ... .. . ... ... : --- .. . ... ... : --- .. . ... ... : --- .. . ... ...
ROW CA : ... .. 2 ... ... ... : C#4 00 5 P80 ... ... : ... .. . ... : ... .. 2 ... : ... .. . ... ... : ... .. . ... ... : ... .. . ... ... : ... .. . ... ...
ROW CB : ... .. . ... ... ... : ... .. 8 ... ... ... : --- .. . ... : ... .. 0 ... : ... .. . ... ... : ... .. . ... ... : ... .. . ... ... : ... .. . ... ...
ROW CC : A#3 00 F ... ... ... : F#3 00 8 ... ... ... : D#3 00 . ... : ... .. . ... : ... .. . ... ... : F#4 01 9 ... ... : D#4 01 9 ... ... : A#4 01 A ... ...
ROW CD : ... .. E ... ... ... : ... .. B ... ... ... : ... .. . ... : D-# 00 F ... : ... .. . ... ... : ... .. 8 ... ... : ... .. 8 ... ... : ... .. 8 ... ...
ROW CE : ... .. D ... ... ... : ... .. 8 ... ... ... : ... .. . ... : ... .. 6 ... : ... .. . ... ... : ... .. . ... ... : ... .. . ... ... : ... .. 5 ... ...
ROW CF : ... .. A ... ... ... : ... .. 0 ... ... ... : ... .. . ... : ... .. . ... : ... .. . ... ... : ... .. . ... ... : ... .. . ... ... : ... .. . ... ...
ROW D0 : ... .. . ... ... ... : F#3 00 5 P80 ... ... : ... .. . ... : ... .. 0 ... : ... .. . ... ... : ... .. 7 ... ... : ... .. 7 ... ... : ... .. . ... ...
ROW D1 : ... .. . ... ... ... : ... .. 8 ... ... ... : --- .. . ... : ... .. A ... : ... .. . ... ... : ... .. . ... ... : ... .. . ... ... : ... .. . ... ...
ROW D2 : G#3 00 8 ... ... ... : F-4 00 8 ... ... ... : D#3 00 . ... : ... .. 4 ... : ... .. . ... ... : --- .. . ... ... : --- .. . ... ... : --- .. . ... ...
ROW D3 : ... .. 7 ... ... ... : ... .. B ... ... ... : ... .. . ... : ... .. . ... : ... .. . ... ... : ... .. . ... ... : ... .. . ... ... : ... .. . ... ...
ROW D4 : ... .. 6 ... ... ... : ... .. 8 ... ... ... : ... .. . ... : ... .. 0 ... : ... .. . ... ... : ... .. . ... ... : ... .. . ... ... : ... .. . ... ...
ROW D5 : ... .. 5 ... ... ... : ... .. 0 ... ... ... : ... .. . ... : ... .. A ... : ... .. . ... ... : ... .. . ... ... : ... .. . ... ... : ... .. . ... ...
ROW D6 : ... .. 1 ... ... ... : F-4 00 5 P80 ... ... : ... .. . ... : ... .. 4 ... : ... .. . ... ... : ... .. . ... ... : ... .. . ... ... : ... .. . ... ...
ROW D7 : ... .. . ... ... ... : ... .. 8 ... ... ... : --- .. . ... : ... .. . ... : ... .. . ... ... : ... .. . ... ... : ... .. . ... ... : ... .. . ... ...
ROW D8 : A#4 00 F ... V02 ... : C#4 00 8 ... ... ... : D-5 00 . ... : A-# 00 D ... : ... .. . ... ... : F#3 01 5 ... ... : D#3 01 5 ... ... : A#3 01 9 ... ...
ROW D9 : ... .. E ... ... ... : ... .. B ... ... ... : E-4 00 . ... : ... .. B ... : ... .. . ... ... : ... .. 4 ... ... : ... .. 4 ... ... : ... .. 7 ... ...
ROW DA : ... .. D ... ... ... : ... .. 8 ... ... ... : A-3 00 . ... : ... .. . ... : ... .. . ... ... : ... .. . ... ... : ... .. . ... ... : ... .. 4 ... ...
ROW DB : ... .. A ... ... ... : ... .. 0 ... ... ... : G#3 00 . ... : ... .. A ... : ... .. . ... ... : --- .. . P7F ... : --- .. . P83 ... : --- .. . ... ...
ROW DC : ... .. 2 ... ... ... : C#4 00 5 P80 ... ... : D#3 00 . ... : ... .. 8 ... : ... .. . ... ... : ... .. . ... ... : ... .. . ... ... : ... .. . ... ...
ROW DD : ... .. . ... ... ... : ... .. 8 ... ... ... : --- .. . ... : ... .. 7 ... : ... .. . ... ... : ... .. . ... ... : ... .. . ... ... : ... .. . ... ...
ROW DE : G#4 00 F ... ... ... : F#3 00 8 ... ... ... : D-5 00 . ... : ... .. 6 ... : ... .. . ... ... : F-3 01 5 P80 ... : D#3 01 5 P80 ... : G#3 01 9 ... ...
ROW DF : ... .. E ... ... ... : ... .. B ... ... ... : E-4 00 . ... : ... .. . ... : ... .. . ... ... : ... .. 4 ... ... : ... .. 4 ... ... : ... .. 7 ... ...
ROW E0 : ... .. D ... ... ... : ... .. 8 ... ... ... : A-3 00 . ... : ... .. 5 ... : ... .. . ... ... : ... .. . ... ... : ... .. . ... ... : ... .. 4 ... ...
ROW E1 : ... .. A ... ... ... : ... .. 0 ... ... ... : G#3 00 . ... : ... .. . ... : ... .. . ... ... : --- .. . ... ... : --- .. . P83 ... : --- .. . P7F ...
ROW E2 : ... .. 2 ... ... ... : F#3 00 5 P80 ... ... : D#3 00 . ... : ... .. 4 ... : ... .. . ... ... : ... .. . ... ... : ... .. . ... ... : ... .. . ... ...
ROW E3 : ... .. . ... ... ... : ... .. 8 ... ... ... : --- .. . ... : ... .. . ... : ... .. . ... ... : ... .. . ... ... : ... .. . ... ... : ... .. . ... ...
ROW E4 : A#4 00 F ... ... ... : F-4 00 8 ... ... ... : C#3 00 . ... : 7-# 00 F ... : ... .. . ... ... : F#3 01 5 ... ... : D#3 01 5 P80 ... : A#3 01 9 P80 ...
ROW E5 : ... .. E ... ... ... : ... .. B ... ... ... : ... .. . ... : ... .. C ... : ... .. . ... ... : ... .. 4 ... ... : ... .. 4 ... ... : ... .. 7 ... ...
ROW E6 : ... .. D ... ... ... : ... .. 8 ... ... ... : ... .. . ... : ... .. A ... : ... .. . ... ... : ... .. . ... ... : ... .. . ... ... : ... .. 4 ... ...
ROW E7 : ... .. A ... ... ... : ... .. 0 ... ... ... : ... .. . ... : ... .. 8 ... : ... .. . ... ... : ... .. . ... ... : ... .. . ... ... : ... .. . ... ...
ROW E8 : ... .. . ... ... ... : F-4 00 5 P80 ... ... : ... .. . ... : ... .. 7 ... : ... .. . ... ... : ... .. . ... ... : ... .. . ... ... : ... .. . ... ...
ROW E9 : ... .. . ... ... ... : ... .. 8 ... ... ... : --- .. . ... : ... .. 4 ... : ... .. . ... ... : ... .. . ... ... : ... .. . ... ... : ... .. . ... ...
ROW EA : G#4 00 8 ... ... ... : C#4 00 8 ... ... ... : D#3 00 . ... : C-# 00 4 ... : ... .. . ... ... : --- .. . P7F ... : --- .. . P83 ... : --- .. . ... ...
ROW EB : ... .. 7 ... ... ... : ... .. B ... ... ... : ... .. . ... : ... .. 3 ... : ... .. . ... ... : ... .. . ... ... : ... .. . ... ... : ... .. . ... ...
ROW EC : ... .. 6 ... ... ... : ... .. 8 ... ... ... : ... .. . ... : ... .. 1 ... : ... .. . ... ... : ... .. . ... ... : ... .. . ... ... : ... .. . ... ...
ROW ED : ... .. 5 ... ... ... : ... .. 0 ... ... ... : ... .. . ... : ... .. . ... : ... .. . ... ... : ... .. . ... ... : ... .. . ... ... : ... .. . ... ...
ROW EE : ... .. 1 ... ... ... : C#4 00 5 P80 ... ... : ... .. . ... : ... .. . ... : ... .. . ... ... : ... .. . ... ... : ... .. . ... ... : ... .. . ... ...
ROW EF : ... .. . ... ... ... : ... .. 8 ... ... ... : --- .. . ... : ... .. 0 ... : ... .. . ... ... : ... .. . ... ... : ... .. . ... ... : ... .. . ... ...
ROW F0 : D#4 00 F ... V01 ... : F#4 00 8 ... ... ... : D-4 00 . ... : 1-# 00 F ... : ... .. . ... ... : D#4 01 9 P80 ... : F#4 01 9 P80 ... : B-4 01 A ... ...
ROW F1 : ... .. E ... ... ... : ... .. B ... ... ... : E-3 00 . ... : ... .. C ... : ... .. . ... ... : ... .. 8 ... ... : ... .. 8 ... ... : ... .. 8 ... ...
ROW F2 : ... .. D ... ... ... : ... .. 8 ... ... ... : A-2 00 . ... : ... .. 6 ... : ... .. . ... ... : ... .. . ... ... : ... .. . ... ... : ... .. 5 ... ...
ROW F3 : ... .. A ... ... ... : ... .. 0 ... ... ... : G#2 00 . ... : ... .. 3 ... : ... .. . ... ... : --- .. . ... ... : --- .. . ... ... : --- .. . ... ...
ROW F4 : ... .. 2 ... ... ... : F#4 00 5 P80 ... ... : D#2 00 . ... : ... .. 2 ... : ... .. . ... ... : ... .. . ... ... : ... .. . ... ... : ... .. . ... ...
ROW F5 : ... .. . ... ... ... : ... .. 8 ... ... ... : --- .. . ... : ... .. 0 ... : ... .. . ... ... : ... .. . ... ... : ... .. . ... ... : ... .. . ... ...
ROW F6 : C#4 00 F ... ... ... : D#4 00 8 ... ... ... : D-4 00 . ... : ... .. F ... : ... .. . ... ... : C#4 01 9 ... ... : F#4 01 9 ... ... : A#4 01 A ... ...
ROW F7 : ... .. E ... ... ... : ... .. B ... ... ... : E-3 00 . ... : ... .. C ... : ... .. . ... ... : ... .. 8 ... ... : ... .. 8 ... ... : ... .. 8 ... ...
ROW F8 : ... .. D ... ... ... : ... .. 8 ... ... ... : A-2 00 . ... : ... .. 6 ... : ... .. . ... ... : ... .. . ... ... : ... .. . ... ... : ... .. 5 ... ...
ROW F9 : ... .. A ... ... ... : ... .. 0 ... ... ... : G#2 00 . ... : ... .. 3 ... : ... .. . ... ... : --- .. . ... ... : --- .. . ... ... : --- .. . ... ...
ROW FA : ... .. 2 ... ... ... : D#4 00 5 P80 ... ... : D#2 00 . ... : ... .. 2 ... : ... .. . ... ... : ... .. . ... ... : ... .. . ... ... : ... .. . ... ...
ROW FB : ... .. . ... ... ... : ... .. 8 ... ... ... : --- .. . ... : ... .. 0 ... : ... .. . ... ... : ... .. . ... ... : ... .. . ... ... : ... .. . ... ...
ROW FC : D#4 00 F ... ... ... : B-3 00 8 ... ... ... : C#3 00 . ... : 7-# 00 F ... : ... .. . ... ... : D#4 01 9 ... ... : F#4 01 9 ... ... : B-4 01 A ... ...
ROW FD : ... .. E ... ... ... : ... .. B ... ... ... : ... .. . ... : ... .. C ... : ... .. . ... ... : ... .. 8 ... ... : ... .. 8 ... ... : ... .. 8 ... ...
ROW FE : ... .. D ... ... ... : ... .. 8 ... ... ... : ... .. . ... : ... .. A ... : ... .. . ... ... : ... .. . ... ... : ... .. . ... ... : ... .. 5 ... ...
ROW FF : ... .. A ... ... ... : ... .. 0 ... ... ... : ... .. . ... : ... .. 8 ... : ... .. . ... ... : ... .. . ... ... : ... .. . ... ... : ... .. . ... ...

PATTERN 04
ROW 00 : ... .. . ... ... ... : B-3 00 5 P80 ... ... : ... .. . ... : ... .. 7 ... : ... .. . ... ... : ... .. 7 ... ... : ... .. 7 ... ... : ... .. . ... ...
ROW 01 : ... .. . ... ... ... : ... .. 8 ... ... ... : --- .. . ... : ... .. 4 ... : ... .. . ... ... : ... .. . ... ... : ... .. . ... ... : ... .. . ... ...
ROW 02 : C#4 00 8 ... ... ... : F#4 00 8 ... ... ... : D#3 00 . ... : 1-# 00 F ... : ... .. . ... ... : --- .. . ... ... : --- .. . ... ... : --- .. . ... ...
ROW 03 : ... .. 7 ... ... ... : ... .. B ... ... ... : ... .. . ... : ... .. C ... : ... .. . ... ... : ... .. . ... ... : ... .. . ... ... : ... .. . ... ...
ROW 04 : ... .. 6 ... ... ... : ... .. 8 ... ... ... : ... .. . ... : ... .. 6 ... : ... .. . ... ... : ... .. . ... ... : ... .. . ... ... : ... .. . ... ...
ROW 05 : ... .. 5 ... ... ... : ... .. 0 ... ... ... : ... .. . ... : ... .. 3 ... : ... .. . ... ... : ... .. . ... ... : ... .. . ... ... : ... .. . ... ...
ROW 06 : ... .. 1 ... ... ... : F#4 00 5 P80 ... ... : ... .. . ... : ... .. 2 ... : ... .. . ... ... : ... .. . ... ... : ... .. . ... ... : ... .. . ... ...
ROW 07 : ... .. . ... ... ... : ... .. 8 ... ... ... : --- .. . ... : ... .. 0 ... : ... .. . ... ... : ... .. . ... ... : ... .. . ... ... : ... .. . ... ...
ROW 08 : D#5 00 F ... V02 ... : D#4 00 8 ... ... ... : D-5 00 . ... : A-# 00 D ... : ... .. . ... ... : D#3 01 5 ... ... : F#3 01 5 ... ... : B-3 01 9 ... ...
ROW 09 : ... .. E ... ... ... : ... .. B ... ... ... : E-4 00 . ... : ... .. B ... : ... .. . ... ... : ... .. 4 ... ... : ... .. 4 ... ... : ... .. 7 ... ...
ROW 0A : ... .. D ... ... ... : ... .. 8 ... ... ... : A-3 00 . ... : ... .. . ... : ... .. . ... ... : ... .. . ... ... : ... .. . ... ... : ... .. 4 ... ...
ROW 0B : ... .. A ... ... ... : ... .. 0 ... ... ... : G#3 00 . ... : ... .. A ... : ... .. . ... ... : --- .. . P83 ... : --- .. . P7F ... : --- .. . P8E ...
ROW 0C : ... .. 2 ... ... ... : D#4 00 5 P80 ... ... : D#3 00 . ... : ... .. 8 ... : ... .. . ... ... : ... .. . ... ... : ... .. . ... ... : ... .. . ... ...
ROW 0D : ... .. . ... ... ... : ... .. 8 ... ... ... : --- .. . ... : ... .. 7 ... : ... .. . ... ... : ... .. . ... ... : ... .. . ... ... : ... .. . ... ...
ROW 0E : C#5 00 F ... ... ... : B-3 00 8 ... ... ... : D-5 00 . ... : ... .. 6 ... : ... .. . ... ... : C#3 01 5 P80 ... : F#3 01 5 P80 ... : A#3 01 9 P80 ...
ROW 0F : ... .. E ... ... ... : ... .. B ... ... ... : E-4 00 . ... : ... .. . ... : ... .. . ... ... : ... .. 4 ... ... : ... .. 4 ... ... : ... .. 7 ... ...
ROW 10 : ... .. D ... ... ... : ... .. 8 ... ... ... : A-3 00 . ... : ... .. 5 ... : ... .. . ... ... : ... .. . ... ... : ... .. . ... ... : ... .. 4 ... ...
ROW 11 : ... .. A ... ... ... : ... .. 0 ... ... ... : G#3 00 . ... : ... .. . ... : ... .. . ... ... : --- .. . P83 ... : --- .. . P7F ... : --- .. . ... ...
ROW 12 : ... .. 2 ... ... ... : B-3 00 5 P80 ... ... : D#3 00 . ... : ... .. 4 ... : ... .. . ... ... : ... .. . ... ... : ... .. . ... ... : ... .. . ... ...
ROW 13 : ... .. . ... ... ... : ... .. 8 ... ... ... : --- .. . ... : ... .. . ... : ... .. . ... ... : ... .. . ... ... : ... .. . ... ... : ... .. . ... ...
ROW 14 : D#5 00 F ... ... ... : F#4 00 8 ... ... ... : C#3 00 . ... : 7-# 00 F ... : ... .. . ... ... : D#3 01 5 P80 ... : F#3 01 5 P80 ... : B-3 01 9 ... ...
ROW 15 : ... .. E ... ... ... : ... .. B ... ... ... : ... .. . ... : ... .. C ... : ... .. . ... ... : ... .. 4 ... ... : ... .. 4 ... ... : ... .. 7 ... ...
ROW 16 : ... .. D ... ... ... : ... .. 8 ... ... ... : ... .. . ... : ... .. A ... : ... .. . ... ... : ... .. . ... ... : ... .. . ... ... : ... .. 4 ... ...
ROW 17 : ... .. A ... ... ... : ... .. 0 ... ... ... : ... .. . ... : ... .. 8 ... : ... .. . ... ... : ... .. . ... ... : ... .. . ... ... : ... .. . ... ...
ROW 18 : ... .. . ... ... ... : F#4 00 5 P80 ... ... : ... .. . ... : ... .. 7 ... : ... .. . ... ... : ... .. . ... ... : ... .. . ... ... : ... .. . ... ...
ROW 19 : ... .. . ... ... ... : ... .. 8 ... ... ... : --- .. . ... : ... .. 4 ... : ... .. . ... ... : ... .. . ... ... : ... .. . ... ... : ... .. . ... ...
ROW 1A : C#5 00 8 ... ... ... : D#4 00 8 ... ... ... : D#3 00 . ... : C-# 00 4 ... : ... .. . ... ... : --- .. . P83 ... : --- .. . P7F ... : --- .. . P8E ...
ROW 1B : ... .. 7 ... ... ... : ... .. B ... ... ... : ... .. . ... : ... .. 3 ... : ... .. . ... ... : ... .. . ... ... : ... .. . ... ... : ... .. . ... ...
ROW 1C : ... .. 6 ... ... ... : ... .. 8 ... ... ... : ... .. . ... : ... .. 1 ... : ... .. . ... ... : ... .. . ... ... : ... .. . ... ... : ... .. . ... ...
ROW 1D : ... .. 5 ... ... ... : ... .. 0 ... ... ... : ... .. . ... : ... .. . ... : ... .. . ... ... : ... .. . ... ... : ... .. . ... ... : ... .. . ... ...
ROW 1E : ... .. 1 ... ... ... : D#4 00 5 P80 ... ... : ... .. . ... : ... .. . ... : ... .. . ... ... : ... .. . ... ... : ... .. . ... ... : ... .. . ... ...
ROW 1F : ... .. . ... ... ... : ... .. 8 ... ... ... : --- .. . ... : ... .. 0 ... : ... .. . ... ... : ... .. . ... ... : ... .. . ... ... : ... .. . ... ...
ROW 20 : A#4 00 F ... V01 ... : G#4 00 8 ... ... ... : D-4 00 . ... : 1-# 00 F ... : ... .. . ... ... : D#4 01 9 P80 ... : G#4 01 9 P80 ... : C-5 01 A P80 ...
ROW 21 : ... .. E ... ... ... : ... .. B ... ... ... : E-3 00 . ... : ... .. C ... : ... .. . ... ... : ... .. 8 ... ... : ... .. 8 ... ... : ... .. 8 ... ...
ROW 22 : ... .. D ... ... ... : ... .. 8 ... ... ... : A-2 00 . ... : ... .. 6 ... : ... .. . ... ... : ... .. . ... ... : ... .. . ... ... : ... .. 5 ... ...
ROW 23 : ... .. A ... ... ... : ... .. 0 ... ... ... : G#2 00 . ... : ... .. 3 ... : ... .. . ... ... : --- .. . ... ... : --- .. . ... ... : --- .. . ... ...
ROW 24 : ... .. 2 ... ... ... : G#4 00 5 P80 ... ... : D#2 00 . ... : ... .. 2 ... : ... .. . ... ... : ... .. . ... ... : ... .. . ... ... : ... .. . ... ...
ROW 25 : ... .. . ... ... ... : ... .. 8 ... ... ... : ... .. . ... : ... .. 0 ... : ... .. . ... ... : ... .. . ... ... : ... .. . ... ... : ... .. . ... ...
ROW 26 : G#4 00 F ... ... ... : D#4 00 8 ... ... ... : ... .. . ... : ... .. F ... : ... .. . ... ... : C#4 01 9 ... ... : G#4 01 9 ... ... : A#4 01 A ... ...
ROW 27 : ... .. E ... ... ... : ... .. B ... ... ... : ... .. . ... : ... .. C ... : ... .. . ... ... : ... .. 8 ... ... : ... .. 8 ... ... : ... .. 8 ... ...
ROW 28 : ... .. D ... ... ... : ... .. 8 ... ... ... : ... .. . ... : ... .. 6 ... : ... .. . ... ... : ... .. . ... ... : ... .. . ... ... : ... .. 5 ... ...
ROW 29 : ... .. A ... ... ... : ... .. 0 ... ... ... : ... .. . ... : ... .. 3 ... : ... .. . ... ... : --- .. . ... ... : --- .. . ... ... : --- .. . ... ...
ROW 2A : ... .. 2 ... ... ... : D#4 00 5 P80 ... ... : ... .. . ... : ... .. 2 ... : ... .. . ... ... : ... .. . ... ... : ... .. . ... ... : ... .. . ... ...
ROW 2B : ... .. . ... ... ... : ... .. 8 ... ... ... : --- .. . ... : ... .. 0 ... : ... .. . ... ... : ... .. . ... ... : ... .. . ... ... : ... .. . ... ...
ROW 2C : A#4 00 F ... ... ... : C-4 00 8 ... ... ... : D#3 00 . ... : ... .. . ... : ... .. . ... ... : D#4 01 9 ... ... : G#4 01 9 ... ... : C-5 01 A ... ...
ROW 2D : ... .. E ... ... ... : ... .. B ... ... ... : ... .. . ... : D-# 00 F ... : ... .. . ... ... : ... .. 8 ... ... : ... .. 8 ... ... : ... .. 8 ... ...
ROW 2E : ... .. D ... ... ... : ... .. 8 ... ... ... : ... .. . ... : ... .. 6 ... : ... .. . ... ... : ... .. . ... ... : ... .. . ... ... : ... .. 5 ... ...
ROW 2F : ... .. A ... ... ... : ... .. 0 ... ... ... : ... .. . ... : ... .. . ... : ... .. . ... ... : ... .. . ... ... : ... .. . ... ... : ... .. . ... ...
ROW 30 : ... .. . ... ... ... : C-4 00 5 P80 ... ... : ... .. . ... : ... .. 0 ... : ... .. . ... ... : ... .. 7 ... ... : ... .. 7 ... ... : ... .. . ... ...
ROW 31 : ... .. . ... ... ... : ... .. 8 ... ... ... : --- .. . ... : ... .. A ... : ... .. . ... ... : ... .. . ... ... : ... .. . ... ... : ... .. . ... ...
ROW 32 : G#4 00 8 ... ... ... : G#4 00 8 ... ... ... : D#3 00 . ... : ... .. 4 ... : ... .. . ... ... : --- .. . ... ... : --- .. . ... ... : --- .. . ... ...
ROW 33 : ... .. 7 ... ... ... : ... .. B ... ... ... : ... .. . ... : ... .. . ... : ... .. . ... ... : ... .. . ... ... : ... .. . ... ... : ... .. . ... ...
ROW 34 : ... .. 6 ... ... ... : ... .. 8 ... ... ... : ... .. . ... : ... .. 0 ... : ... .. . ... ... : ... .. . ... ... : ... .. . ... ... : ... .. . ... ...
ROW 35 : ... .. 5 ... ... ... : ... .. 0 ... ... ... : ... .. . ... : ... .. A ... : ... .. . ... ... : ... .. . ... ... : ... .. . ... ... : ... .. . ... ...
ROW 36 : ... .. 1 ... ... ... : G#4 00 5 P80 ... ... : ... .. . ... : ... .. 4 ... : ... .. . ... ... : ... .. . ... ... : ... .. . ... ... : ... .. . ... ...
ROW 37 : ... .. . ... ... ... : ... .. 8 ... ... ... : --- .. . ... : ... .. . ... : ... .. . ... ... : ... .. . ... ... : ... .. . ... ... : ... .. . ... ...
ROW 38 : A#5 00 F ... V02 ... : D#4 00 8 ... ... ... : D-5 00 . ... : A-# 00 D ... : ... .. . ... ... : D#3 01 5 ... ... : G#3 01 5 ... ... : C-4 01 9 ... ...
ROW 39 : ... .. E ... ... ... : ... .. B ... ... ... : E-4 00 . ... : ... .. B ... : ... .. . ... ... : ... .. 4 ... ... : ... .. 4 ... ... : ... .. 7 ... ...
ROW 3A : ... .. D ... ... ... : ... .. 8 ... ... ... : A-3 00 . ... : ... .. . ... : ... .. . ... ... : ... .. . ... ... : ... .. . ... ... : ... .. 4 ... ...
ROW 3B : ... .. A ... ... ... : ... .. 0 ... ... ... : G#3 00 . ... : ... .. A ... : ... .. . ... ... : --- .. . P83 ... : --- .. . P82 ... : --- .. . ... ...
ROW 3C : ... .. 2 ... ... ... : D#4 00 5 P80 ... ... : D#3 00 . ... : ... .. 8 ... : ... .. . ... ... : ... .. . ... ... : ... .. . ... ... : ... .. . ... ...
ROW 3D : ... .. . ... ... ... : ... .. 8 ... ... ... : --- .. . ... : ... .. 7 ... : ... .. . ... ... : ... .. . ... ... : ... .. . ... ... : ... .. . ... ...
ROW 3E : G#5 00 F ... ... ... : C-4 00 8 ... ... ... : D-5 00 . ... : ... .. 6 ... : ... .. . ... ... : C#3 01 5 P80 ... : G#3 01 5 P80 ... : A#3 01 9 ... ...
ROW 3F : ... .. E ... ... ... : ... .. B ... ... ... : E-4 00 . ... : ... .. . ... : ... .. . ... ... : ... .. 4 ... ... : ... .. 4 ... ... : ... .. 7 ... ...
ROW 40 : ... .. D ... ... ... : ... .. 8 ... ... ... : A-3 00 . ... : ... .. 5 ... : ... .. . ... ... : ... .. . ... ... : ... .. . ... ... : ... .. 4 ... ...
ROW 41 : ... .. A ... ... ... : ... .. 0 ... ... ... : G#3 00 . ... : ... .. . ... : ... .. . ... ... : --- .. . P83 ... : --- .. . P82 ... : --- .. . ... ...
ROW 42 : ... .. 2 ... ... ... : C-4 00 5 P80 ... ... : D#3 00 . ... : ... .. 4 ... : ... .. . ... ... : ... .. . ... ... : ... .. . ... ... : ... .. . ... ...
ROW 43 : ... .. . ... ... ... : ... .. 8 ... ... ... : --- .. . ... : ... .. . ... : ... .. . ... ... : ... .. . ... ... : ... .. . ... ... : ... .. . ... ...
ROW 44 : A#5 00 F ... ... ... : G#4 00 8 ... ... ... : C#3 00 . ... : 7-# 00 F ... : ... .. . ... ... : D#3 01 5 P80 ... : G#3 01 5 P80 ... : C-4 01 9 ... ...
ROW 45 : ... .. E ... ... ... : ... .. B ... ... ... : ... .. . ... : ... .. C ... : ... .. . ... ... : ... .. 4 ... ... : ... .. 4 ... ... : ... .. 7 ... ...
ROW 46 : ... .. D ... ... ... : ... .. 8 ... ... ... : ... .. . ... : ... .. A ... : ... .. . ... ... : ... .. . ... ... : ... .. . ... ... : ... .. 4 ... ...
ROW 47 : ... .. A ... ... ... : ... .. 0 ... ... ... : ... .. . ... : ... .. 8 ... : ... .. . ... ... : ... .. . ... ... : ... .. . ... ... : ... .. . ... ...
ROW 48 : ... .. . ... ... ... : G#4 00 5 P80 ... ... : ... .. . ... : ... .. 7 ... : ... .. . ... ... : ... .. . ... ... : ... .. . ... ... : ... .. . ... ...
ROW 49 : ... .. . ... ... ... : ... .. 8 ... ... ... : --- .. . ... : ... .. 4 ... : ... .. . ... ... : ... .. . ... ... : ... .. . ... ... : ... .. . ... ...
ROW 4A : G#5 00 8 ... ... ... : D#4 00 8 ... ... ... : D#3 00 . ... : C-# 00 4 ... : ... .. . ... ... : --- .. . P83 ... : --- .. . P82 ... : --- .. . ... ...
ROW 4B : ... .. 7 ... ... ... : ... .. B ... ... ... : ... .. . ... : ... .. 3 ... : ... .. . ... ... : ... .. . ... ... : ... .. . ... ... : ... .. . ... ...
ROW 4C : ... .. 6 ... ... ... : ... .. 8 ... ... ... : ... .. . ... : ... .. 1 ... : ... .. . ... ... : ... .. . ... ... : ... .. . ... ... : ... .. . ... ...
ROW 4D : ... .. 5 ... ... ... : ... .. 0 ... ... ... : ... .. . ... : ... .. . ... : ... .. . ... ... : ... .. . ... ... : ... .. . ... ... : ... .. . ... ...
ROW 4E : ... .. 1 ... ... ... : D#4 00 5 P80 ... ... : ... .. . ... : ... .. . ... : ... .. . ... ... : ... .. . ... ... : ... .. . ... ... : ... .. . ... ...
ROW 4F : ... .. . ... ... ... : ... .. 8 ... ... ... : --- .. . ... : ... .. 0 ... : ... .. . ... ... : ... .. . ... ... : ... .. . ... ... : ... .. . ... ...
ROW 50 : D#5 00 F ... V01 ... : A#4 00 8 ... ... ... : D-4 00 . ... : 1-# 00 F ... : ... .. . ... ... : F#4 01 9 P80 ... : G#4 01 9 P80 ... : C#5 01 A ... ...
ROW 51 : ... .. E ... ... ... : ... .. B ... ... ... : E-3 00 . ... : ... .. C ... : ... .. . ... ... : ... .. 8 ... ... : ... .. 8 ... ... : ... .. 8 ... ...
ROW 52 : ... .. D ... ... ... : ... .. 8 ... ... ... : A-2 00 . ... : ... .. 6 ... : ... .. . ... ... : ... .. . ... ... : ... .. . ... ... : ... .. 5 ... ...
ROW 53 : ... .. A ... ... ... : ... .. 0 ... ... ... : G#2 00 . ... : ... .. 3 ... : ... .. . ... ... : --- .. . ... ... : --- .. . ... ... : --- .. . ... ...
ROW 54 : ... .. 2 ... ... ... : A#4 00 5 P80 ... ... : D#2 00 . ... : ... .. 2 ... : ... .. . ... ... : ... .. . ... ... : ... .. . ... ... : ... .. . ... ...
ROW 55 : ... .. . ... ... ... : ... .. 8 ... ... ... : --- .. . ... : ... .. 0 ... : ... .. . ... ... : ... .. . ... ... : ... .. . ... ... : ... .. . ... ...
ROW 56 : C#5 00 F ... ... ... : F#4 00 8 ... ... ... : D-4 00 . ... : ... .. F ... : ... .. . ... ... : F-4 01 9 ... ... : G#4 01 9 ... ... : C-5 01 A ... ...
ROW 57 : ... .. E ... ... ... : ... .. B ... ... ... : E-3 00 . ... : ... .. C ... : ... .. . ... ... : ... .. 8 ... ... : ... .. 8 ... ... : ... .. 8 ... ...
ROW 58 : ... .. D ... ... ... : ... .. 8 ... ... ... : A-2 00 . ... : ... .. 6 ... : ... .. . ... ... : ... .. . ... ... : ... .. . ... ... : ... .. 5 ... ...
ROW 59 : ... .. A ... ... ... : ... .. 0 ... ... ... : G#2 00 . ... : ... .. 3 ... : ... .. . ... ... : --- .. . ... ... : --- .. . ... ... : --- .. . ... ...
ROW 5A : ... .. 2 ... ... ... : F#4 00 5 P80 ... ... : D#2 00 . ... : ... .. 2 ... : ... .. . ... ... : ... .. . ... ... : ... .. . ... ... : ... .. . ... ...
ROW 5B : ... .. . ... ... ... : ... .. 8 ... ... ... : --- .. . ... : ... .. 0 ... : ... .. . ... ... : ... .. . ... ... : ... .. . ... ... : ... .. . ... ...
ROW 5C : D#5 00 F ... ... ... : C#4 00 8 ... ... ... : C#3 00 . ... : 7-# 00 F ... : ... .. . ... ... : F#4 01 9 ... ... : G#4 01 9 ... ... : C#5 01 A ... ...
ROW 5D : ... .. E ... ... ... : ... .. B ... ... ... : ... .. . ... : ... .. C ... : ... .. . ... ... : ... .. 8 ... ... : ... .. 8 ... ... : ... .. 8 ... ...
ROW 5E : ... .. D ... ... ... : ... .. 8 ... ... ... : ... .. . ... : ... .. A ... : ... .. . ... ... : ... .. . ... ... : ... .. . ... ... : ... .. 5 ... ...
ROW 5F : ... .. A ... ... ... : ... .. 0 ... ... ... : ... .. . ... : ... .. 8 ... : ... .. . ... ... : ... .. . ... ... : ... .. . ... ... : ... .. . ... ...
ROW 60 : ... .. . ... ... ... : C#4 00 5 P80 ... ... : ... .. . ... : ... .. 7 ... : ... .. . ... ... : ... .. 7 ... ... : ... .. 7 ... ... : ... .. . ... ...
ROW 61 : ... .. . ... ... ... : ... .. 8 ... ... ... : --- .. . ... : ... .. 4 ... : ... .. . ... ... : ... .. . ... ... : ... .. . ... ... : ... .. . ... ...
ROW 62 : C#5 00 6 ... ... ... : A#4 00 8 ... ... ... : D#3 00 . ... : 1-# 00 F ... : ... .. . ... ... : --- .. . ... ... : --- .. . ... ... : --- .. . ... ...
ROW 63 : ... .. 5 ... ... ... : ... .. B ... ... ... : ... .. . ... : ... .. C ... : ... .. . ... ... : ... .. . ... ... : ... .. . ... ... : ... .. . ... ...
ROW 64 : ... .. . ... ... ... : ... .. 8 ... ... ... : ... .. . ... : ... .. 6 ... : ... .. . ... ... : ... .. . ... ... : ... .. . ... ... : ... .. . ... ...
ROW 65 : ... .. 4 ... ... ... : ... .. 0 ... ... ... : ... .. . ... : ... .. 3 ... : ... .. . ... ... : ... .. . ... ... : ... .. . ... ... : ... .. . ... ...
ROW 66 : ... .. 1 ... ... ... : A#4 00 5 P80 ... ... : ... .. . ... : ... .. 2 ... : ... .. . ... ... : ... .. . ... ... : ... .. . ... ... : ... .. . ... ...
ROW 67 : ... .. . ... ... ... : ... .. 8 ... ... ... : --- .. . ... : ... .. 0 ... : ... .. . ... ... : ... .. . ... ... : ... .. . ... ... : ... .. . ... ...
ROW 68 : D#5 00 6 ... ... ... : F#4 00 8 ... ... ... : D-5 00 . ... : A-# 00 D ... : ... .. . ... ... : C#3 01 9 ... ... : C#4 01 9 ... ... : ... .. . ... ...
ROW 69 : ... .. 5 ... ... ... : ... .. B ... ... ... : E-4 00 . ... : ... .. B ... : ... .. . ... ... : ... .. 8 ... ... : ... .. 8 ... ... : ... .. . ... ...
ROW 6A : ... .. . ... ... ... : ... .. 8 ... ... ... : A-3 00 . ... : ... .. . ... : ... .. . ... ... : ... .. . ... ... : ... .. . ... ... : ... .. . ... ...
ROW 6B : ... .. 4 ... ... ... : ... .. 0 ... ... ... : G#3 00 . ... : ... .. A ... : ... .. . ... ... : D#3 01 6 ... ... : D#4 01 6 ... ... : ... .. . ... ...
ROW 6C : ... .. . ... ... ... : F#4 00 5 P80 ... ... : D#3 00 . ... : ... .. 8 ... : ... .. . ... ... : ... .. 5 ... ... : ... .. 5 ... ... : ... .. . ... ...
ROW 6D : ... .. . ... ... ... : ... .. 8 ... ... ... : --- .. . ... : ... .. 7 ... : ... .. . ... ... : ... .. . ... ... : ... .. . ... ... : ... .. . ... ...
ROW 6E : C#5 00 4 ... ... ... : C#4 00 8 ... ... ... : D-5 00 . ... : ... .. 6 ... : ... .. . ... ... : F-3 01 3 ... ... : F-4 01 3 ... ... : ... .. . ... ...
ROW 6F : ... .. 3 ... ... ... : ... .. B ... ... ... : E-4 00 . ... : ... .. . ... : ... .. . ... ... : ... .. . ... ... : ... .. . ... ... : ... .. . ... ...
ROW 70 : ... .. . ... ... ... : ... .. 8 ... ... ... : A-3 00 . ... : ... .. 5 ... : ... .. . ... ... : ... .. . ... ... : ... .. . ... ... : ... .. . ... ...
ROW 71 : ... .. 2 ... ... ... : ... .. 0 ... ... ... : G#3 00 . ... : ... .. . ... : ... .. . ... ... : F#3 01 4 ... ... : F#4 01 4 ... ... : ... .. . ... ...
ROW 72 : ... .. 1 ... ... ... : C#4 00 5 P80 ... ... : D#3 00 . ... : ... .. 4 ... : ... .. . ... ... : ... .. 3 ... ... : ... .. 3 ... ... : ... .. . ... ...
ROW 73 : ... .. . ... ... ... : ... .. 8 ... ... ... : --- .. . ... : ... .. . ... : ... .. . ... ... : ... .. . ... ... : ... .. . ... ... : ... .. . ... ...
ROW 74 : D#5 00 4 ... ... ... : A#4 00 8 ... ... ... : C#3 00 . ... : 7-# 00 F ... : ... .. . ... ... : G#3 01 5 ... ... : G#4 01 5 ... ... : ... .. . ... ...
ROW 75 : ... .. 3 ... ... ... : ... .. B ... ... ... : ... .. . ... : ... .. C ... : ... .. . ... ... : ... .. 4 ... ... : ... .. 4 ... ... : ... .. . ... ...
ROW 76 : ... .. . ... ... ... : ... .. 8 ... ... ... : ... .. . ... : ... .. A ... : ... .. . ... ... : ... .. . ... ... : ... .. . ... ... : ... .. . ... ...
ROW 77 : ... .. 2 ... ... ... : ... .. 0 ... ... ... : ... .. . ... : ... .. 8 ... : ... .. . ... ... : A#3 01 6 ... ... : A#4 01 6 ... ... : ... .. . ... ...
ROW 78 : ... .. . ... ... ... : A#4 00 5 P80 ... ... : ... .. . ... : ... .. 7 ... : ... .. . ... ... : ... .. 5 ... ... : ... .. 5 ... ... : ... .. . ... ...
ROW 79 : ... .. . ... ... ... : ... .. 8 ... ... ... : --- .. . ... : ... .. 4 ... : ... .. . ... ... : ... .. . ... ... : ... .. . ... ... : ... .. . ... ...
ROW 7A : C#5 00 2 ... ... ... : F#4 00 8 ... ... ... : D#3 00 . ... : ... .. D ... : ... .. . ... ... : B-3 01 7 ... ... : B-4 01 7 ... ... : ... .. . ... ...
ROW 7B : ... .. 1 ... ... ... : ... .. B ... ... ... : ... .. . ... : ... .. B ... : ... .. . ... ... : ... .. 6 ... ... : ... .. 6 ... ... : ... .. . ... ...
ROW 7C : ... .. . ... ... ... : ... .. 8 ... ... ... : ... .. . ... : ... .. . ... : ... .. . ... ... : ... .. . ... ... : ... .. . ... ... : ... .. . ... ...
ROW 7D : ... .. . ... ... ... : ... .. 0 ... ... ... : ... .. . ... : C-# 00 4 ... : ... .. . ... ... : C#4 01 7 ... ... : C#5 01 7 ... ... : ... .. . ... ...
ROW 7E : ... .. . ... ... ... : F#4 00 5 P80 ... ... : ... .. . ... : ... .. 3 ... : ... .. . ... ... : ... .. 6 ... ... : ... .. 6 ... ... : ... .. . ... ...
ROW 7F : ... .. . ... ... ... : ... .. 8 ... ... ... : --- .. . ... : ... .. 1 ... : ... .. . ... ... : ... .. . ... ... : ... .. . ... ... : ... .. . ... ...
ROW 80 : D#5 00 1 ... ... ... : E-4 00 9 ... ... ... : D#4 00 . ... : 1-# 00 F ... : ... .. . ... ... : D#4 01 9 ... ... : D#5 01 9 ... ... : D#2 01 F ... ...
ROW 81 : ... .. . ... ... ... : ... .. 8 ... ... ... : F-3 00 . ... : ... .. C ... : ... .. . ... ... : ... .. 8 ... ... : ... .. 8 ... ... : ... .. D ... ...
ROW 82 : ... .. . ... ... ... : ... .. . ... ... ... : A#2 00 . ... : ... .. 6 ... : ... .. . ... ... : ... .. . ... ... : ... .. . ... ... : ... .. 8 ... ...
ROW 83 : ... .. . ... ... ... : ... .. 7 ... ... ... : A-2 00 . ... : ... .. 3 ... : ... .. . ... ... : ... .. . ... ... : ... .. . ... ... : ... .. 7 ... ...
ROW 84 : ... .. . ... ... ... : ... .. 5 ... ... ... : E-2 00 . ... : ... .. 2 ... : ... .. . ... ... : ... .. 7 ... ... : ... .. 7 ... ... : ... .. . ... ...
ROW 85 : ... .. . ... ... ... : ... .. . ... ... ... : ... .. . ... : ... .. 0 ... : ... .. . ... ... : ... .. . ... ... : ... .. . ... ... : ... .. . ... ...
ROW 86 : ... .. 0 ... V00 ... : D#4 00 9 ... ... ... : ... .. . ... : ... .. F ... : ... .. . ... ... : ... .. . ... ... : ... .. . ... ... : E-2 01 E ... ...
ROW 87 : ... .. . ... ... ... : ... .. 8 ... ... ... : ... .. . ... : ... .. C ... : ... .. . ... ... : ... .. 6 ... ... : ... .. 6 ... ... : ... .. C ... ...
ROW 88 : ... .. . ... ... ... : ... .. . ... ... ... : ... .. . ... : ... .. 6 ... : ... .. . ... ... : ... .. . ... ... : ... .. . ... ... : ... .. 7 ... ...
ROW 89 : ... .. . ... ... ... : ... .. 7 ... ... ... : ... .. . ... : ... .. 3 ... : ... .. . ... ... : ... .. . ... ... : ... .. . ... ... : ... .. . ... ...
ROW 8A : ... .. . ... ... ... : ... .. 5 ... ... ... : ... .. . ... : ... .. 2 ... : ... .. . ... ... : ... .. . ... ... : ... .. . ... ... : ... .. . ... ...
ROW 8B : ... .. . ... ... ... : ... .. . ... ... ... : --- .. . ... : ... .. 0 ... : ... .. . ... ... : ... .. . ... ... : ... .. . ... ... : ... .. . ... ...
ROW 8C : A#3 00 F P80 V01 ... : A#3 00 9 ... ... ... : D#5 00 . ... : 7-# 00 F ... : ... .. . ... ... : ... .. . ... ... : ... .. . ... ... : F#2 01 E ... ...
ROW 8D : ... .. E ... ... ... : ... .. 8 ... ... ... : F-4 00 . ... : ... .. C ... : ... .. . ... ... : ... .. . ... ... : ... .. . ... ... : ... .. C ... ...
ROW 8E : ... .. D ... ... ... : ... .. . ... ... ... : A#3 00 . ... : ... .. A ... : ... .. . ... ... : ... .. . ... ... : ... .. . ... ... : ... .. 7 ... ...
ROW 8F : ... .. A ... ... ... : ... .. 7 ... ... ... : A-3 00 . ... : ... .. 8 ... : ... .. . ... ... : ... .. . ... ... : ... .. . ... ... : ... .. 6 ... ...
ROW 90 : ... .. 2 ... ... ... : ... .. 5 ... ... ... : E-3 00 . ... : ... .. 7 ... : ... .. . ... ... : ... .. . ... ... : ... .. . ... ... : ... .. . ... ...
ROW 91 : ... .. . ... ... ... : ... .. . ... ... ... : --- .. . ... : ... .. 4 ... : ... .. . ... ... : ... .. . ... ... : ... .. . ... ... : ... .. . ... ...
ROW 92 : A#4 00 F ... ... ... : G#3 00 9 ... ... ... : E-2 00 . ... : C-# 00 4 ... : ... .. . ... ... : ... .. . ... ... : ... .. . ... ... : G#2 01 D ... ...
ROW 93 : ... .. E ... ... ... : ... .. 8 ... ... ... : ... .. . ... : ... .. 3 ... : ... .. . ... ... : ... .. . ... ... : ... .. . ... ... : ... .. B ... ...
ROW 94 : ... .. D ... ... ... : ... .. . ... ... ... : ... .. . ... : ... .. 1 ... : ... .. . ... ... : ... .. . ... ... : ... .. . ... ... : ... .. 6 ... ...
ROW 95 : ... .. A ... ... ... : ... .. 7 ... ... ... : ... .. . ... : ... .. . ... : ... .. . ... ... : ... .. . P84 ... : ... .. . P82 ... : ... .. . ... ...
ROW 96 : ... .. 2 ... ... ... : ... .. 5 ... ... ... : ... .. . ... : ... .. . ... : ... .. . ... ... : E-4 01 6 P7C ... : E-5 01 6 P7E ... : ... .. . ... ...
ROW 97 : ... .. . ... ... ... : ... .. . ... ... ... : ... .. . ... : ... .. 0 ... : ... .. . ... ... : D#4 01 6 P85 ... : ... .. . ... ... : ... .. . ... ...
ROW 98 : G#4 00 F ... ... ... : E-3 00 9 ... ... ... : ... .. . ... : 1-# 00 F ... : ... .. . ... ... : ... .. . P82 ... : D#5 01 6 P81 ... : E-2 01 D ... ...
ROW 99 : ... .. E ... ... ... : ... .. 8 ... ... ... : ... .. . ... : ... .. C ... : ... .. . ... ... : ... .. . P7E ... : ... .. . P7F ... : ... .. B ... ...
ROW 9A : ... .. D ... ... ... : ... .. . ... ... ... : ... .. . ... : ... .. 6 ... : ... .. . ... ... : D-4 01 6 P85 ... : D-5 01 6 P82 ... : ... .. 6 ... ...
ROW 9B : ... .. A ... ... ... : ... .. 7 ... ... ... : ... .. . ... : ... .. 3 ... : ... .. . ... ... : ... .. . P84 ... : ... .. . ... ... : ... .. . ... ...
ROW 9C : ... .. . ... ... ... : ... .. 5 ... ... ... : ... .. . ... : ... .. 2 ... : ... .. . ... ... : D#4 01 6 P7C ... : D#5 01 6 P7E ... : ... .. . ... ...
ROW 9D : ... .. . ... ... ... : ... .. . ... ... ... : --- .. . ... : ... .. 0 ... : ... .. . ... ... : ... .. . P80 ... : ... .. . P80 ... : ... .. . ... ...
ROW 9E : ... .. . ... ... ... : D#3 00 9 ... ... ... : E-2 00 . ... : ... .. F ... : ... .. . ... ... : ... .. . P83 ... : ... .. . P82 ... : F#2 01 C ... ...
ROW 9F : ... .. . ... ... ... : ... .. 8 ... ... ... : ... .. . ... : ... .. C ... : ... .. . ... ... : E-4 01 6 P7C ... : E-5 01 6 P7E ... : ... .. A ... ...
ROW A0 : ... .. . ... ... ... : ... .. . ... ... ... : ... .. . ... : ... .. 6 ... : ... .. . ... ... : ... .. . ... ... : ... .. . ... ... : ... .. 6 ... ...
ROW A1 : ... .. . ... ... ... : ... .. 7 ... ... ... : ... .. . ... : ... .. 3 ... : ... .. . ... ... : D#4 01 6 P82 ... : D#5 01 6 P81 ... : ... .. . ... ...
ROW A2 : ... .. . ... ... ... : ... .. 5 ... ... ... : ... .. . ... : ... .. 2 ... : ... .. . ... ... : ... .. . P7F ... : ... .. . P80 ... : ... .. . ... ...
ROW A3 : ... .. . ... ... ... : ... .. . ... ... ... : --- .. . ... : ... .. 0 ... : ... .. . ... ... : D-4 01 6 P85 ... : D-5 01 6 P82 ... : ... .. . ... ...
ROW A4 : A-4 00 A P7E ... ... : B-2 00 9 ... ... ... : D#5 00 . ... : 7-# 00 F ... : ... .. . ... ... : B-3 01 9 P80 ... : B-4 01 9 P80 ... : G#2 01 C ... ...
ROW A5 : ... .. . P81 ... ... : ... .. 8 ... ... ... : F-4 00 . ... : ... .. C ... : ... .. . ... ... : ... .. 8 ... ... : ... .. 8 ... ... : ... .. A ... ...
ROW A6 : ... .. . P80 ... ... : ... .. . ... ... ... : A#3 00 . ... : ... .. A ... : ... .. . ... ... : ... .. . ... ... : ... .. . ... ... : ... .. 6 ... ...
ROW A7 : G#4 00 A P82 ... ... : ... .. 7 ... ... ... : A-3 00 . ... : ... .. 8 ... : ... .. . ... ... : ... .. 7 ... ... : ... .. 7 ... ... : ... .. . ... ...
ROW A8 : ... .. . P7E ... ... : ... .. 5 ... ... ... : E-3 00 . ... : ... .. 7 ... : ... .. . ... ... : ... .. 6 ... ... : ... .. 6 ... ... : ... .. . ... ...
ROW A9 : G-4 00 A P80 ... ... : ... .. . ... ... ... : ... .. . ... : ... .. 4 ... : ... .. . ... ... : ... .. . ... ... : ... .. . ... ... : ... .. . ... ...
ROW AA : ... .. . P7F ... ... : A#2 00 9 ... ... ... : ... .. . ... : C-# 00 4 ... : ... .. . ... ... : ... .. . ... ... : ... .. . ... ... : A#2 01 C ... ...
ROW AB : ... .. . P82 ... ... : ... .. 8 ... ... ... : ... .. . ... : ... .. 3 ... : ... .. . ... ... : ... .. 5 ... ... : ... .. 5 ... ... : ... .. A ... ...
ROW AC : G#4 00 A P80 ... ... : ... .. . ... ... ... : ... .. . ... : ... .. 1 ... : ... .. . ... ... : ... .. . ... ... : ... .. . ... ... : ... .. 6 ... ...
ROW AD : A-4 00 A P7D ... ... : ... .. 7 ... ... ... : ... .. . ... : ... .. . ... : ... .. . ... ... : ... .. . ... ... : ... .. . ... ... : ... .. 5 ... ...
ROW AE : ... .. . P81 ... ... : ... .. 5 ... ... ... : ... .. . ... : ... .. . ... : ... .. . ... ... : ... .. . ... ... : ... .. . ... ... : ... .. . ... ...
ROW AF : ... .. . P80 ... ... : ... .. . ... ... ... : --- .. . ... : ... .. 0 ... : ... .. . ... ... : ... .. . ... ... : ... .. . ... ... : ... .. . ... ...
ROW B0 : G#4 00 A P83 ... ... : E-4 00 9 ... ... ... : D#4 00 . ... : 1-# 00 F ... : ... .. . ... ... : C#4 01 7 ... ... : C#5 01 7 ... ... : F#2 01 B ... ...
ROW B1 : ... .. . P7F ... ... : ... .. 8 ... ... ... : F-3 00 . ... : ... .. C ... : ... .. . ... ... : ... .. 6 ... ... : ... .. 6 ... ... : ... .. 9 ... ...
ROW B2 : G-4 00 A P81 ... ... : ... .. . ... ... ... : A#2 00 . ... : ... .. 6 ... : ... .. . ... ... : ... .. . ... ... : ... .. . ... ... : ... .. 5 ... ...
ROW B3 : ... .. . P7F ... ... : ... .. 7 ... ... ... : A-2 00 . ... : ... .. 3 ... : ... .. . ... ... : ... .. . ... ... : ... .. . ... ... : ... .. . ... ...
ROW B4 : ... .. . P81 ... ... : ... .. 5 ... ... ... : E-2 00 . ... : ... .. 2 ... : ... .. . ... ... : ... .. 5 ... ... : ... .. 5 ... ... : ... .. . ... ...
ROW B5 : G#4 00 A P80 ... ... : ... .. . ... ... ... : ... .. . ... : ... .. 0 ... : ... .. . ... ... : ... .. . ... ... : ... .. . ... ... : ... .. . ... ...
ROW B6 : ... .. . P84 ... ... : D#4 00 9 ... ... ... : ... .. . ... : ... .. F ... : ... .. . ... ... : ... .. . ... ... : ... .. . ... ... : G#2 01 B ... ...
ROW B7 : A-4 00 A P81 ... ... : ... .. 8 ... ... ... : ... .. . ... : ... .. C ... : ... .. . ... ... : ... .. 4 ... ... : ... .. 4 ... ... : ... .. 9 ... ...
ROW B8 : ... .. . ... ... ... : ... .. . ... ... ... : ... .. . ... : ... .. 6 ... : ... .. . ... ... : ... .. . ... ... : ... .. . ... ... : ... .. 5 ... ...
ROW B9 : G#4 00 A P84 ... ... : ... .. 7 ... ... ... : ... .. . ... : ... .. 3 ... : ... .. . ... ... : ... .. . ... ... : ... .. . ... ... : ... .. . ... ...
ROW BA : ... .. 2 P80 ... ... : ... .. 5 ... ... ... : ... .. . ... : ... .. 2 ... : ... .. . ... ... : ... .. . ... ... : ... .. . ... ... : ... .. . ... ...
ROW BB : G-4 00 2 P81 ... ... : ... .. . ... ... ... : --- .. . ... : ... .. 0 ... : ... .. . ... ... : ... .. . ... ... : ... .. . ... ... : ... .. . ... ...
ROW BC : A#3 00 F P80 ... ... : A#3 00 9 ... ... ... : D#5 00 . ... : 7-# 00 F ... : ... .. . ... ... : ... .. . ... ... : ... .. . ... ... : A#2 01 A ... ...
ROW BD : ... .. E ... ... ... : ... .. 8 ... ... ... : F-4 00 . ... : ... .. C ... : ... .. . ... ... : ... .. . ... ... : ... .. . ... ... : ... .. 8 ... ...
ROW BE : ... .. D ... ... ... : ... .. . ... ... ... : A#3 00 . ... : ... .. A ... : ... .. . ... ... : ... .. . ... ... : ... .. . ... ... : ... .. 5 ... ...
ROW BF : ... .. A ... ... ... : ... .. 7 ... ... ... : A-3 00 . ... : ... .. 8 ... : ... .. . ... ... : ... .. 3 ... ... : ... .. 3 ... ... : ... .. . ... ...
ROW C0 : ... .. 2 ... ... ... : ... .. 5 ... ... ... : E-3 00 . ... : ... .. 7 ... : ... .. . ... ... : ... .. . ... ... : ... .. . ... ... : ... .. . ... ...
ROW C1 : ... .. . ... ... ... : ... .. . ... ... ... : --- .. . ... : ... .. 4 ... : ... .. . ... ... : ... .. . ... ... : ... .. . ... ... : ... .. . ... ...
ROW C2 : G#4 00 F ... ... ... : G#3 00 9 ... ... ... : E-2 00 . ... : 1-# 00 F ... : ... .. . ... ... : ... .. . ... ... : ... .. . ... ... : B-2 01 A ... ...
ROW C3 : ... .. E ... ... ... : ... .. 8 ... ... ... : ... .. . ... : ... .. C ... : ... .. . ... ... : ... .. . ... ... : ... .. . ... ... : ... .. 8 ... ...
ROW C4 : ... .. D ... ... ... : ... .. . ... ... ... : ... .. . ... : ... .. 6 ... : ... .. . ... ... : ... .. . ... ... : ... .. . ... ... : ... .. 5 ... ...
ROW C5 : ... .. A ... ... ... : ... .. 7 ... ... ... : ... .. . ... : ... .. 3 ... : ... .. . ... ... : ... .. . ... ... : ... .. . ... ... : ... .. . ... ...
ROW C6 : ... .. 2 ... ... ... : ... .. 5 ... ... ... : ... .. . ... : ... .. 2 ... : ... .. . ... ... : ... .. . ... ... : ... .. . ... ... : ... .. . ... ...
ROW C7 : ... .. . ... ... ... : ... .. . ... ... ... : ... .. . ... : ... .. 0 ... : ... .. . ... ... : ... .. . ... ... : ... .. . ... ... : ... .. . ... ...
ROW C8 : F#4 00 F ... ... ... : E-3 00 9 ... ... ... : ... .. . ... : C-# 00 4 ... : ... .. . ... ... : D#4 01 4 ... ... : D#5 01 4 ... ... : G#2 01 A ... ...
ROW C9 : ... .. E ... ... ... : ... .. 8 ... ... ... : ... .. . ... : ... .. 3 ... : ... .. . ... ... : ... .. . ... ... : ... .. . ... ... : ... .. 8 ... ...
ROW CA : ... .. D ... ... ... : ... .. . ... ... ... : ... .. . ... : ... .. 1 ... : ... .. . ... ... : ... .. . ... ... : ... .. . ... ... : ... .. 5 ... ...
ROW CB : ... .. A ... ... ... : ... .. 7 ... ... ... : ... .. . ... : ... .. . ... : ... .. . ... ... : ... .. . ... ... : ... .. . ... ... : ... .. . ... ...
ROW CC : ... .. . ... ... ... : ... .. 5 ... ... ... : ... .. . ... : ... .. . ... : ... .. . ... ... : ... .. 3 ... ... : ... .. 3 ... ... : ... .. . ... ...
ROW CD : ... .. . ... ... ... : ... .. . ... ... ... : --- .. . ... : ... .. 0 ... : ... .. . ... ... : ... .. . ... ... : ... .. . ... ... : ... .. . ... ...
ROW CE : ... .. . ... ... ... : D#3 00 9 ... ... ... : E-2 00 . ... : 1-# 00 F ... : ... .. . ... ... : ... .. 4 ... ... : ... .. 4 ... ... : A#2 01 A ... ...
ROW CF : ... .. . ... ... ... : ... .. 8 ... ... ... : ... .. . ... : ... .. C ... : ... .. . ... ... : ... .. 3 ... ... : ... .. 3 ... ... : ... .. 8 ... ...
ROW D0 : ... .. . ... ... ... : ... .. . ... ... ... : ... .. . ... : ... .. 6 ... : ... .. . ... ... : ... .. . ... ... : ... .. . ... ... : ... .. 5 ... ...
ROW D1 : ... .. . ... ... ... : ... .. 7 ... ... ... : ... .. . ... : ... .. 3 ... : ... .. . ... ... : ... .. 4 ... ... : ... .. 4 ... ... : ... .. . ... ...
ROW D2 : ... .. . ... ... ... : ... .. 5 ... ... ... : ... .. . ... : ... .. 2 ... : ... .. . ... ... : ... .. . ... ... : ... .. . ... ... : ... .. . ... ...
ROW D3 : ... .. . ... ... ... : ... .. . ... ... ... : --- .. . ... : ... .. 0 ... : ... .. . ... ... : ... .. . ... ... : ... .. . ... ... : ... .. . ... ...
ROW D4 : ... .. . ... ... ... : B-2 00 9 ... ... ... : D#5 00 . ... : 7-# 00 F ... : ... .. . ... ... : ... .. . ... ... : ... .. . ... ... : B-2 01 A ... ...
ROW D5 : ... .. . ... ... ... : ... .. 8 ... ... ... : F-4 00 . ... : ... .. C ... : ... .. . ... ... : ... .. . ... ... : ... .. . ... ... : ... .. 8 ... ...
ROW D6 : ... .. . ... ... ... : ... .. . ... ... ... : A#3 00 . ... : ... .. A ... : ... .. . ... ... : ... .. . ... ... : ... .. . ... ... : ... .. 5 ... ...
ROW D7 : ... .. . ... ... ... : ... .. 7 ... ... ... : A-3 00 . ... : ... .. 8 ... : ... .. . ... ... : ... .. . ... ... : ... .. . ... ... : ... .. . ... ...
ROW D8 : ... .. . ... ... ... : ... .. 5 ... ... ... : E-3 00 . ... : ... .. 7 ... : ... .. . ... ... : ... .. . ... ... : ... .. . ... ... : ... .. . ... ...
ROW D9 : ... .. . ... ... ... : ... .. . ... ... ... : ... .. . ... : ... .. 4 ... : ... .. . ... ... : ... .. . ... ... : ... .. . ... ... : ... .. . ... ...
ROW DA : G-4 00 A P7E ... ... : A#2 00 9 ... ... ... : ... .. . ... : C-# 00 4 ... : ... .. . ... ... : ... .. 5 ... ... : ... .. 5 ... ... : C#3 01 A ... ...
ROW DB : ... .. . P81 ... ... : ... .. 8 ... ... ... : ... .. . ... : ... .. 3 ... : ... .. . ... ... : ... .. . ... ... : ... .. . ... ... : ... .. 8 ... ...
ROW DC : ... .. . P80 ... ... : ... .. . ... ... ... : ... .. . ... : ... .. 1 ... : ... .. . ... ... : ... .. . ... ... : ... .. . ... ... : ... .. 5 ... ...
ROW DD : F#4 00 A P82 ... ... : ... .. 7 ... ... ... : ... .. . ... : ... .. . ... : ... .. . ... ... : ... .. . ... ... : ... .. . ... ... : ... .. . ... ...
ROW DE : ... .. . P7E ... ... : ... .. 5 ... ... ... : ... .. . ... : ... .. . ... : ... .. . ... ... : ... .. . ... ... : ... .. . ... ... : ... .. . ... ...
ROW DF : F-4 00 A P81 ... ... : ... .. . ... ... ... : --- .. . ... : ... .. 0 ... : ... .. . ... ... : ... .. . ... ... : ... .. . ... ... : ... .. . ... ...
ROW E0 : ... .. . P80 ... ... : B-3 00 9 ... ... ... : C-5 00 . ... : 1-# 00 F ... : ... .. . ... ... : E-4 01 9 P81 ... : E-5 01 9 ... ... : D#3 01 B ... ...
ROW E1 : ... .. . P83 ... ... : ... .. 8 ... ... ... : D-4 00 . ... : ... .. C ... : ... .. . ... ... : ... .. 8 ... ... : ... .. 8 ... ... : ... .. 9 ... ...
ROW E2 : F#4 00 A P80 ... ... : ... .. . ... ... ... : G-3 00 . ... : ... .. 6 ... : ... .. . ... ... : ... .. . ... ... : ... .. . ... ... : ... .. 5 ... ...
ROW E3 : G-4 00 A P7D ... ... : ... .. 7 ... ... ... : F#3 00 . ... : ... .. 3 ... : ... .. . ... ... : ... .. . ... ... : ... .. . ... ... : ... .. . ... ...
ROW E4 : ... .. . P81 ... ... : ... .. 5 ... ... ... : C#3 00 . ... : ... .. 2 ... : ... .. . ... ... : ... .. 7 ... ... : ... .. 7 ... ... : ... .. . ... ...
ROW E5 : ... .. . P80 ... ... : ... .. . ... ... ... : ... .. . ... : ... .. 0 ... : ... .. . ... ... : ... .. . ... ... : ... .. . ... ... : ... .. . ... ...
ROW E6 : F#4 00 A P83 ... ... : G#3 00 9 ... ... ... : ... .. . ... : ... .. F ... : ... .. . ... ... : D#4 01 6 ... ... : D#5 01 6 ... ... : E-3 01 B ... ...
ROW E7 : ... .. . P7F ... ... : ... .. 8 ... ... ... : ... .. . ... : ... .. C ... : ... .. . ... ... : ... .. 5 ... ... : ... .. 5 ... ... : ... .. 9 ... ...
ROW E8 : F-4 00 A P82 ... ... : ... .. . ... ... ... : ... .. . ... : ... .. 6 ... : ... .. . ... ... : ... .. . ... ... : ... .. . ... ... : ... .. 5 ... ...
ROW E9 : ... .. . P80 ... ... : ... .. 7 ... ... ... : ... .. . ... : ... .. 3 ... : ... .. . ... ... : ... .. . ... ... : ... .. . ... ... : ... .. . ... ...
ROW EA : ... .. 2 P82 ... ... : ... .. 5 ... ... ... : ... .. . ... : ... .. 2 ... : ... .. . ... ... : ... .. 4 ... ... : ... .. 4 ... ... : ... .. . ... ...
ROW EB : F#4 00 2 P80 ... ... : ... .. . ... ... ... : --- .. . ... : ... .. 0 ... : ... .. . ... ... : ... .. . ... ... : ... .. . ... ... : ... .. . ... ...
ROW EC : F#3 00 F ... ... ... : E-3 00 9 ... ... ... : C-6 00 . ... : 7-# 00 F ... : ... .. . ... ... : C#4 01 6 ... ... : C#5 01 6 ... ... : F#3 01 B ... ...
ROW ED : ... .. E ... ... ... : ... .. 8 ... ... ... : D-5 00 . ... : ... .. C ... : ... .. . ... ... : ... .. 5 ... ... : ... .. 5 ... ... : ... .. 9 ... ...
ROW EE : ... .. D ... ... ... : ... .. . ... ... ... : G-4 00 . ... : ... .. A ... : ... .. . ... ... : ... .. . ... ... : ... .. . ... ... : ... .. 5 ... ...
ROW EF : ... .. A ... ... ... : ... .. 7 ... ... ... : F#4 00 . ... : ... .. 8 ... : ... .. . ... ... : ... .. . ... ... : ... .. . ... ... : ... .. . ... ...
ROW F0 : ... .. 2 ... ... ... : ... .. 5 ... ... ... : C#4 00 . ... : ... .. 7 ... : ... .. . ... ... : ... .. 4 ... ... : ... .. 4 ... ... : ... .. . ... ...
ROW F1 : ... .. . ... ... ... : ... .. . ... ... ... : --- .. . ... : ... .. 4 ... : ... .. . ... ... : ... .. . ... ... : ... .. . ... ... : ... .. . ... ...
ROW F2 : F#4 00 F ... ... ... : D#4 00 9 ... ... ... : C#3 00 . ... : C-# 00 4 ... : ... .. . ... ... : B-3 01 6 ... ... : B-4 01 6 ... ... : G#3 01 B ... ...
ROW F3 : ... .. E ... ... ... : ... .. 8 ... ... ... : ... .. . ... : ... .. 3 ... : ... .. . ... ... : ... .. 5 ... ... : ... .. 5 ... ... : ... .. 9 ... ...
ROW F4 : ... .. D ... ... ... : ... .. . ... ... ... : ... .. . ... : ... .. 1 ... : ... .. . ... ... : ... .. . ... ... : ... .. . ... ... : ... .. 5 ... ...
ROW F5 : ... .. A ... ... ... : ... .. 7 ... ... ... : ... .. . ... : ... .. . ... : ... .. . ... ... : ... .. . ... ... : ... .. . ... ... : ... .. . ... ...
ROW F6 : ... .. 2 ... ... ... : ... .. 5 ... ... ... : ... .. . ... : ... .. . ... : ... .. . ... ... : ... .. 4 ... ... : ... .. 4 ... ... : ... .. . ... ...
ROW F7 : ... .. . ... ... ... : ... .. . ... ... ... : ... .. . ... : ... .. 0 ... : ... .. . ... ... : ... .. . ... ... : ... .. . ... ... : ... .. . ... ...
ROW F8 : E-4 00 F ... ... ... : B-3 00 9 ... ... ... : ... .. . ... : 1-# 00 F ... : ... .. . ... ... : F#4 01 9 ... ... : F#5 01 9 ... ... : E-3 01 C ... ...
ROW F9 : ... .. E ... ... ... : ... .. 8 ... ... ... : ... .. . ... : ... .. C ... : ... .. . ... ... : ... .. 8 ... ... : ... .. 8 ... ... : ... .. A ... ...
ROW FA : ... .. D ... ... ... : ... .. . ... ... ... : ... .. . ... : ... .. 6 ... : ... .. . ... ... : ... .. . ... ... : ... .. . ... ... : ... .. 6 ... ...
ROW FB : ... .. A ... ... ... : ... .. 7 ... ... ... : ... .. . ... : ... .. 3 ... : ... .. . ... ... : ... .. . ... ... : ... .. . ... ... : ... .. . ... ...
ROW FC : ... .. . ... ... ... : ... .. 5 ... ... ... : ... .. . ... : ... .. 2 ... : ... .. . ... ... : ... .. 7 ... ... : ... .. 7 ... ... : ... .. . ... ...
ROW FD : ... .. . ... ... ... : ... .. . ... ... ... : --- .. . ... : ... .. 0 ... : ... .. . ... ... : ... .. . ... ... : ... .. . ... ... : ... .. . ... ...
ROW FE : ... .. . ... ... ... : G#3 00 9 ... ... ... : C#3 00 . ... : ... .. F ... : ... .. . ... ... : E-4 01 6 ... ... : E-5 01 6 ... ... : F#3 01 C ... ...
ROW FF : ... .. . ... ... ... : ... .. 8 ... ... ... : ... .. . ... : ... .. C ... : ... .. . ... ... : ... .. 5 ... ... : ... .. 5 ... ... : ... .. A ... ...

PATTERN 05
ROW 00 : ... .. . ... ... ... : ... .. . ... ... ... : ... .. . ... : ... .. 6 ... : ... .. . ... ... : ... .. . ... ... : ... .. . ... ... : ... .. 6 ... ...
ROW 01 : ... .. . ... ... ... : ... .. 7 ... ... ... : ... .. . ... : ... .. 3 ... : ... .. . ... ... : ... .. . ... ... : ... .. . ... ... : ... .. . ... ...
ROW 02 : ... .. 2 ... ... ... : ... .. 5 ... ... ... : ... .. . ... : ... .. 2 ... : ... .. . ... ... : ... .. 4 ... ... : ... .. 4 ... ... : ... .. . ... ...
ROW 03 : ... .. . ... ... ... : ... .. . ... ... ... : --- .. . ... : ... .. 0 ... : ... .. . ... ... : ... .. . ... ... : ... .. . ... ... : ... .. . ... ...
ROW 04 : F#3 00 F ... ... ... : E-4 00 9 ... ... ... : C-6 00 . ... : 7-# 00 F ... : ... .. . ... ... : D#4 01 6 ... ... : D#5 01 6 ... ... : G#3 01 C ... ...
ROW 05 : ... .. E ... ... ... : ... .. 8 ... ... ... : D-5 00 . ... : ... .. C ... : ... .. . ... ... : ... .. 5 ... ... : ... .. 5 ... ... : ... .. A ... ...
ROW 06 : ... .. D ... ... ... : ... .. . ... ... ... : G-4 00 . ... : ... .. A ... : ... .. . ... ... : ... .. . ... ... : ... .. . ... ... : ... .. 6 ... ...
ROW 07 : ... .. A ... ... ... : ... .. 7 ... ... ... : F#4 00 . ... : ... .. 8 ... : ... .. . ... ... : ... .. . ... ... : ... .. . ... ... : ... .. . ... ...
ROW 08 : ... .. 2 ... ... ... : ... .. 5 ... ... ... : C#4 00 . ... : ... .. 7 ... : ... .. . ... ... : ... .. 4 ... ... : ... .. 4 ... ... : ... .. . ... ...
ROW 09 : ... .. . ... ... ... : ... .. . ... ... ... : ... .. . ... : ... .. 4 ... : ... .. . ... ... : ... .. . ... ... : ... .. . ... ... : ... .. . ... ...
ROW 0A : E-4 00 F ... ... ... : C#4 00 9 ... ... ... : ... .. . ... : C-# 00 4 ... : ... .. . ... ... : C#4 01 6 ... ... : C#5 01 6 ... ... : A#3 01 C ... ...
ROW 0B : ... .. E ... ... ... : ... .. 8 ... ... ... : ... .. . ... : ... .. 3 ... : ... .. . ... ... : ... .. 5 ... ... : ... .. 5 ... ... : ... .. A ... ...
ROW 0C : ... .. D ... ... ... : ... .. . ... ... ... : ... .. . ... : ... .. 1 ... : ... .. . ... ... : ... .. . ... ... : ... .. . ... ... : ... .. 6 ... ...
ROW 0D : ... .. A ... ... ... : ... .. 7 ... ... ... : ... .. . ... : ... .. . ... : ... .. . ... ... : ... .. . ... ... : ... .. . ... ... : ... .. . ... ...
ROW 0E : ... .. 2 ... ... ... : ... .. 5 ... ... ... : ... .. . ... : ... .. . ... : ... .. . ... ... : ... .. 4 ... ... : ... .. 4 ... ... : ... .. . ... ...
ROW 0F : ... .. . ... ... ... : ... .. . ... ... ... : --- .. . ... : ... .. 0 ... : ... .. . ... ... : ... .. . ... ... : ... .. . ... ... : ... .. . ... ...
ROW 10 : D#4 00 F ... ... ... : G#3 00 9 ... ... ... : C-5 00 . ... : 1-# 00 F ... : ... .. . ... ... : G#4 01 9 ... ... : G#5 01 9 ... ... : F#3 01 D ... ...
ROW 11 : ... .. E ... ... ... : ... .. 8 ... ... ... : D-4 00 . ... : ... .. C ... : ... .. . ... ... : ... .. 8 ... ... : ... .. 8 ... ... : ... .. B ... ...
ROW 12 : ... .. D ... ... ... : ... .. . ... ... ... : G-3 00 . ... : ... .. 6 ... : ... .. . ... ... : ... .. . ... ... : ... .. . ... ... : ... .. 6 ... ...
ROW 13 : ... .. A ... ... ... : ... .. 7 ... ... ... : F#3 00 . ... : ... .. 3 ... : ... .. . ... ... : ... .. . ... ... : ... .. . ... ... : ... .. . ... ...
ROW 14 : ... .. . ... ... ... : ... .. 5 ... ... ... : C#3 00 . ... : ... .. 2 ... : ... .. . ... ... : ... .. 7 ... ... : ... .. 7 ... ... : ... .. . ... ...
ROW 15 : ... .. . ... ... ... : ... .. . ... ... ... : ... .. . ... : ... .. 0 ... : ... .. . ... ... : ... .. . ... ... : ... .. . ... ... : ... .. . ... ...
ROW 16 : ... .. . ... ... ... : G#4 00 9 ... ... ... : ... .. . ... : ... .. F ... : ... .. . ... ... : F#4 01 6 ... ... : F#5 01 6 ... ... : G#3 01 D ... ...
ROW 17 : ... .. . ... ... ... : ... .. 8 ... ... ... : ... .. . ... : ... .. C ... : ... .. . ... ... : ... .. 5 ... ... : ... .. 5 ... ... : ... .. B ... ...
ROW 18 : ... .. . ... ... ... : ... .. . ... ... ... : ... .. . ... : ... .. 6 ... : ... .. . ... ... : ... .. . ... ... : ... .. . ... ... : ... .. 6 ... ...
ROW 19 : ... .. . ... ... ... : ... .. 7 ... ... ... : ... .. . ... : ... .. 3 ... : ... .. . ... ... : ... .. . ... ... : ... .. . ... ... : ... .. . ... ...
ROW 1A : ... .. . ... ... ... : ... .. 5 ... ... ... : ... .. . ... : ... .. 2 ... : ... .. . ... ... : ... .. 4 ... ... : ... .. 4 ... ... : ... .. . ... ...
ROW 1B : ... .. . ... ... ... : ... .. . ... ... ... : --- .. . ... : ... .. 0 ... : ... .. . ... ... : ... .. . ... ... : ... .. . ... ... : ... .. . ... ...
ROW 1C : ... .. . P84 ... ... : E-4 00 9 ... ... ... : C-6 00 . ... : 7-# 00 F ... : ... .. . ... ... : E-4 01 6 ... ... : E-5 01 6 ... ... : A#3 01 D ... ...
ROW 1D : E-4 00 A P7C ... ... : ... .. 8 ... ... ... : D-5 00 . ... : ... .. C ... : ... .. . ... ... : ... .. 5 ... ... : ... .. 5 ... ... : ... .. B ... ...
ROW 1E : D#4 00 A P85 ... ... : ... .. . ... ... ... : G-4 00 . ... : ... .. A ... : ... .. . ... ... : ... .. . ... ... : ... .. . ... ... : ... .. 6 ... ...
ROW 1F : ... .. . P82 ... ... : ... .. 7 ... ... ... : F#4 00 . ... : ... .. 8 ... : ... .. . ... ... : ... .. . ... ... : ... .. . ... ... : ... .. . ... ...
ROW 20 : ... .. . P7E ... ... : ... .. 5 ... ... ... : C#4 00 . ... : ... .. 7 ... : ... .. . ... ... : ... .. 4 ... ... : ... .. 4 ... ... : ... .. . ... ...
ROW 21 : D-4 00 A P85 ... ... : ... .. . ... ... ... : --- .. . ... : ... .. 4 ... : ... .. . ... ... : ... .. . ... ... : ... .. . ... ... : ... .. . ... ...
ROW 22 : ... .. . P84 ... ... : C#4 00 9 ... ... ... : C#3 00 . ... : 1-# 00 F ... : ... .. . ... ... : D#4 01 6 ... ... : D#5 01 6 ... ... : B-3 01 D ... ...
ROW 23 : D#4 00 A P7C ... ... : ... .. 8 ... ... ... : ... .. . ... : ... .. C ... : ... .. . ... ... : ... .. 5 ... ... : ... .. 5 ... ... : ... .. B ... ...
ROW 24 : ... .. . P80 ... ... : ... .. . ... ... ... : ... .. . ... : ... .. 6 ... : ... .. . ... ... : ... .. . ... ... : ... .. . ... ... : ... .. 6 ... ...
ROW 25 : ... .. . P83 ... ... : ... .. 7 ... ... ... : ... .. . ... : ... .. 3 ... : ... .. . ... ... : ... .. . ... ... : ... .. . ... ... : ... .. . ... ...
ROW 26 : E-4 00 2 P7C ... ... : ... .. 5 ... ... ... : ... .. . ... : ... .. 2 ... : ... .. . ... ... : ... .. 4 ... ... : ... .. 4 ... ... : ... .. . ... ...
ROW 27 : ... .. . ... ... ... : ... .. . ... ... ... : ... .. . ... : ... .. 0 ... : ... .. . ... ... : ... .. . ... ... : ... .. . ... ... : ... .. . ... ...
ROW 28 : C#4 00 F P80 ... ... : B-4 00 9 ... ... ... : ... .. . ... : C-# 00 4 ... : ... .. . ... ... : A#4 01 9 ... ... : A#5 01 9 ... ... : G#3 01 E ... ...
ROW 29 : ... .. E ... ... ... : ... .. 8 ... ... ... : ... .. . ... : ... .. 3 ... : ... .. . ... ... : ... .. 8 ... ... : ... .. 8 ... ... : ... .. C ... ...
ROW 2A : ... .. D ... ... ... : ... .. . ... ... ... : ... .. . ... : ... .. 1 ... : ... .. . ... ... : ... .. . ... ... : ... .. . ... ... : ... .. 7 ... ...
ROW 2B : ... .. A ... ... ... : ... .. 7 ... ... ... : ... .. . ... : ... .. . ... : ... .. . ... ... : ... .. . ... ... : ... .. . ... ... : ... .. . ... ...
ROW 2C : ... .. . ... ... ... : ... .. 5 ... ... ... : ... .. . ... : ... .. . ... : ... .. . ... ... : ... .. 7 ... ... : ... .. 7 ... ... : ... .. . ... ...
ROW 2D : ... .. . ... ... ... : ... .. . ... ... ... : --- .. . ... : ... .. 0 ... : ... .. . ... ... : ... .. . ... ... : ... .. . ... ... : ... .. . ... ...
ROW 2E : ... .. . ... ... ... : G#4 00 9 ... ... ... : C#3 00 . ... : 1-# 00 F ... : ... .. . ... ... : G#4 01 6 ... ... : G#5 01 6 ... ... : A#3 01 E ... ...
ROW 2F : ... .. . ... ... ... : ... .. 8 ... ... ... : ... .. . ... : ... .. C ... : ... .. . ... ... : ... .. 5 ... ... : ... .. 5 ... ... : ... .. C ... ...
ROW 30 : ... .. . ... ... ... : ... .. . ... ... ... : ... .. . ... : ... .. 6 ... : ... .. . ... ... : ... .. . ... ... : ... .. . ... ... : ... .. 7 ... ...
ROW 31 : ... .. . ... ... ... : ... .. 7 ... ... ... : ... .. . ... : ... .. 3 ... : ... .. . ... ... : ... .. . ... ... : ... .. . ... ... : ... .. . ... ...
ROW 32 : ... .. 2 ... ... ... : ... .. 5 ... ... ... : ... .. . ... : ... .. 2 ... : ... .. . ... ... : ... .. 4 ... ... : ... .. 4 ... ... : ... .. . ... ...
ROW 33 : ... .. . ... ... ... : ... .. . ... ... ... : --- .. . ... : ... .. 0 ... : ... .. . ... ... : ... .. . ... ... : ... .. . ... ... : ... .. . ... ...
ROW 34 : D#4 00 F ... ... ... : E-4 00 9 ... ... ... : C-6 00 . ... : 7-# 00 F ... : ... .. . ... ... : F#4 01 6 ... ... : F#5 01 6 ... ... : B-3 01 E ... ...
ROW 35 : ... .. E ... ... ... : ... .. 8 ... ... ... : D-5 00 . ... : ... .. C ... : ... .. . ... ... : ... .. 5 ... ... : ... .. 5 ... ... : ... .. C ... ...
ROW 36 : ... .. D ... ... ... : ... .. . ... ... ... : G-4 00 . ... : ... .. A ... : ... .. . ... ... : ... .. . ... ... : ... .. . ... ... : ... .. 7 ... ...
ROW 37 : ... .. A ... ... ... : ... .. 7 ... ... ... : F#4 00 . ... : ... .. 8 ... : ... .. . ... ... : ... .. . ... ... : ... .. . ... ... : ... .. . ... ...
ROW 38 : ... .. . ... ... ... : ... .. 5 ... ... ... : C#4 00 . ... : ... .. 7 ... : ... .. . ... ... : ... .. 4 ... ... : ... .. 4 ... ... : ... .. . ... ...
ROW 39 : ... .. . ... ... ... : ... .. . ... ... ... : ... .. . ... : ... .. 4 ... : ... .. . ... ... : ... .. . ... ... : ... .. . ... ... : ... .. . ... ...
ROW 3A : ... .. . ... ... ... : C#4 00 9 ... ... ... : ... .. . ... : C-# 00 4 ... : ... .. . ... ... : E-4 01 6 ... ... : E-5 01 6 ... ... : C#4 01 E ... ...
ROW 3B : ... .. . ... ... ... : ... .. 8 ... ... ... : ... .. . ... : ... .. 3 ... : ... .. . ... ... : ... .. 5 ... ... : ... .. 5 ... ... : ... .. C ... ...
ROW 3C : ... .. . ... ... ... : ... .. . ... ... ... : ... .. . ... : ... .. 1 ... : ... .. . ... ... : ... .. . ... ... : ... .. . ... ... : ... .. 7 ... ...
ROW 3D : ... .. . ... ... ... : ... .. 7 ... ... ... : ... .. . ... : ... .. 4 ... : ... .. . ... ... : ... .. . ... ... : ... .. . ... ... : ... .. . ... ...
ROW 3E : ... .. 2 ... ... ... : ... .. 5 ... ... ... : ... .. . ... : ... .. 3 ... : ... .. . ... ... : ... .. 4 ... ... : ... .. 4 ... ... : ... .. . ... ...
ROW 3F : ... .. . ... ... ... : ... .. . ... ... ... : --- .. . ... : ... .. 1 ... : ... .. . ... ... : ... .. . ... ... : ... .. . ... ... : ... .. . ... ...
ROW 40 : A#4 00 F ... ... ... : D#4 00 9 ... ... ... : D-5 00 . ... : 7-# 00 F ... : ... .. . ... ... : D#4 01 7 P80 ... : D#5 01 7 P81 ... : D#5 01 F ... ...
ROW 41 : ... .. E ... ... ... : ... .. 8 ... ... ... : E-4 00 . ... : ... .. C ... : ... .. . ... ... : ... .. 6 ... ... : ... .. 6 ... ... : ... .. D ... ...
ROW 42 : ... .. D ... ... ... : ... .. . ... ... ... : A-3 00 . ... : ... .. A ... : ... .. . ... ... : ... .. . ... ... : ... .. . ... ... : ... .. 8 ... ...
ROW 43 : ... .. A ... ... ... : ... .. 7 ... ... ... : G#3 00 . ... : ... .. 8 ... : ... .. . ... ... : ... .. . ... ... : ... .. . ... ... : ... .. . ... ...
ROW 44 : ... .. . ... ... ... : ... .. 5 ... ... ... : D#3 00 . ... : ... .. 7 ... : ... .. . ... ... : ... .. . ... ... : ... .. . ... ... : ... .. . ... ...
ROW 45 : ... .. . ... ... ... : ... .. . ... ... ... : ... .. . ... : ... .. 4 ... : ... .. . ... ... : ... .. . ... ... : ... .. . ... ... : ... .. . ... ...
ROW 46 : D#2 00 F ... ... ... : A#3 00 9 ... ... ... : D#2 00 . ... : 1-# 00 F ... : ... .. . ... ... : G#4 01 3 ... ... : G#5 01 3 ... ... : A#4 01 F ... ...
ROW 47 : ... .. E ... ... ... : ... .. 8 ... ... ... : ... .. . ... : ... .. C ... : ... .. . ... ... : ... .. . ... ... : ... .. . ... ... : ... .. D ... ...
ROW 48 : ... .. D ... ... ... : ... .. . ... ... ... : ... .. . ... : ... .. 6 ... : ... .. . ... ... : ... .. . ... ... : ... .. . ... ... : ... .. 8 ... ...
ROW 49 : ... .. A ... ... ... : ... .. 7 ... ... ... : ... .. . ... : ... .. 3 ... : ... .. . ... ... : ... .. . ... ... : ... .. . ... ... : ... .. . ... ...
ROW 4A : ... .. 2 ... ... ... : ... .. 5 ... ... ... : ... .. . ... : ... .. 2 ... : ... .. . ... ... : ... .. 2 ... ... : ... .. 2 ... ... : ... .. . ... ...
ROW 4B : ... .. . ... ... ... : ... .. . ... ... ... : --- .. . ... : ... .. 0 ... : ... .. . ... ... : ... .. . ... ... : ... .. . ... ... : ... .. . ... ...
ROW 4C : ... .. F ... ... ... : D#3 00 9 ... ... ... : D#2 00 . ... : 7-# 00 F ... : ... .. . ... ... : A#4 01 3 ... ... : A#5 01 3 ... ... : D#4 01 F ... ...
ROW 4D : ... .. E ... ... ... : ... .. 8 ... ... ... : ... .. . ... : ... .. C ... : ... .. . ... ... : ... .. . ... ... : ... .. . ... ... : ... .. D ... ...
ROW 4E : ... .. D ... ... ... : ... .. . ... ... ... : ... .. . ... : ... .. A ... : ... .. . ... ... : ... .. . ... ... : ... .. . ... ... : ... .. 8 ... ...
ROW 4F : ... .. A ... ... ... : ... .. 7 ... ... ... : ... .. . ... : ... .. 8 ... : ... .. . ... ... : ... .. . ... ... : ... .. . ... ... : ... .. . ... ...
ROW 50 : ... .. 2 ... ... ... : ... .. 5 ... ... ... : ... .. . ... : ... .. 7 ... : ... .. . ... ... : ... .. 2 ... ... : ... .. 2 ... ... : ... .. . ... ...
ROW 51 : ... .. . ... ... ... : ... .. . ... ... ... : --- .. . ... : ... .. 4 ... : ... .. . ... ... : ... .. . ... ... : ... .. . ... ... : ... .. . ... ...
ROW 52 : C#5 00 F ... ... ... : F#4 00 9 ... ... ... : D-5 00 . ... : 9-# 00 F ... : ... .. . ... ... : F#4 01 7 ... ... : F#5 01 7 ... ... : F#5 01 F ... ...
ROW 53 : ... .. E ... ... ... : ... .. 8 ... ... ... : E-4 00 . ... : ... .. C ... : ... .. . ... ... : ... .. 6 ... ... : ... .. 6 ... ... : ... .. D ... ...
ROW 54 : ... .. D ... ... ... : ... .. . ... ... ... : A-3 00 . ... : ... .. A ... : ... .. . ... ... : ... .. . ... ... : ... .. . ... ... : ... .. 8 ... ...
ROW 55 : ... .. A ... ... ... : ... .. 7 ... ... ... : G#3 00 . ... : ... .. 8 ... : ... .. . ... ... : ... .. . ... ... : ... .. . ... ... : ... .. . ... ...
ROW 56 : ... .. . ... ... ... : ... .. 5 ... ... ... : D#3 00 . ... : ... .. 7 ... : ... .. . ... ... : ... .. . ... ... : ... .. . ... ... : ... .. . ... ...
ROW 57 : ... .. . ... ... ... : ... .. . ... ... ... : ... .. . ... : ... .. 4 ... : ... .. . ... ... : ... .. . ... ... : ... .. . ... ... : ... .. . ... ...
ROW 58 : D#2 00 F ... ... ... : C#4 00 9 ... ... ... : D#2 00 . ... : 1-# 00 F ... : ... .. . ... ... : G#4 01 3 ... ... : G#5 01 3 ... ... : C#5 01 F ... ...
ROW 59 : ... .. E ... ... ... : ... .. 8 ... ... ... : ... .. . ... : ... .. C ... : ... .. . ... ... : ... .. . ... ... : ... .. . ... ... : ... .. D ... ...
ROW 5A : ... .. D ... ... ... : ... .. . ... ... ... : ... .. . ... : ... .. 6 ... : ... .. . ... ... : ... .. . ... ... : ... .. . ... ... : ... .. 8 ... ...
ROW 5B : ... .. A ... ... ... : ... .. 7 ... ... ... : ... .. . ... : ... .. 3 ... : ... .. . ... ... : ... .. . ... ... : ... .. . ... ... : ... .. . ... ...
ROW 5C : ... .. 2 ... ... ... : ... .. 5 ... ... ... : ... .. . ... : ... .. 2 ... : ... .. . ... ... : ... .. 2 ... ... : ... .. 2 ... ... : ... .. . ... ...
ROW 5D : ... .. . ... ... ... : ... .. . ... ... ... : --- .. . ... : ... .. 0 ... : ... .. . ... ... : ... .. . ... ... : ... .. . ... ... : ... .. . ... ...
ROW 5E : ... .. F ... ... ... : F#3 00 9 ... ... ... : D#2 00 . ... : ... .. F ... : ... .. . ... ... : C#5 01 3 ... ... : C#6 01 3 ... ... : F#4 01 F ... ...
ROW 5F : ... .. E ... ... ... : ... .. 8 ... ... ... : ... .. . ... : ... .. C ... : ... .. . ... ... : ... .. . ... ... : ... .. . ... ... : ... .. D ... ...
ROW 60 : ... .. D ... ... ... : ... .. . ... ... ... : ... .. . ... : ... .. 6 ... : ... .. . ... ... : ... .. . ... ... : ... .. . ... ... : ... .. 8 ... ...
ROW 61 : ... .. A ... ... ... : ... .. 7 ... ... ... : ... .. . ... : ... .. 3 ... : ... .. . ... ... : ... .. . ... ... : ... .. . ... ... : ... .. . ... ...
ROW 62 : ... .. 2 ... ... ... : ... .. 5 ... ... ... : ... .. . ... : ... .. 2 ... : ... .. . ... ... : ... .. 2 ... ... : ... .. 2 ... ... : ... .. . ... ...
ROW 63 : ... .. . ... ... ... : ... .. . ... ... ... : --- .. . ... : ... .. 0 ... : ... .. . ... ... : ... .. . ... ... : ... .. . ... ... : ... .. . ... ...
ROW 64 : C-5 00 F ... ... ... : G#4 00 9 ... ... ... : D-5 00 . ... : 9-# 00 F ... : ... .. . ... ... : A#4 01 7 ... ... : A#5 01 7 ... ... : G#5 01 F ... ...
ROW 65 : ... .. E ... ... ... : ... .. 8 ... ... ... : E-4 00 . ... : ... .. C ... : ... .. . ... ... : ... .. 6 ... ... : ... .. 6 ... ... : ... .. D ... ...
ROW 66 : ... .. D ... ... ... : ... .. . ... ... ... : A-3 00 . ... : ... .. A ... : ... .. . ... ... : ... .. . ... ... : ... .. . ... ... : ... .. 8 ... ...
ROW 67 : ... .. A ... ... ... : ... .. 7 ... ... ... : G#3 00 . ... : ... .. 8 ... : ... .. . ... ... : ... .. . ... ... : ... .. . ... ... : ... .. . ... ...
ROW 68 : ... .. . ... ... ... : ... .. 5 ... ... ... : D#3 00 . ... : ... .. 7 ... : ... .. . ... ... : ... .. . ... ... : ... .. . ... ... : ... .. . ... ...
ROW 69 : ... .. . ... ... ... : ... .. . ... ... ... : ... .. . ... : ... .. 4 ... : ... .. . ... ... : ... .. . ... ... : ... .. . ... ... : ... .. . ... ...
ROW 6A : D#2 00 F ... ... ... : D#4 00 9 ... ... ... : D#2 00 . ... : C-# 00 4 ... : ... .. . ... ... : G#4 01 3 ... ... : G#5 01 3 ... ... : D#5 01 F ... ...
ROW 6B : ... .. E ... ... ... : ... .. 8 ... ... ... : ... .. . ... : ... .. 3 ... : ... .. . ... ... : ... .. . ... ... : ... .. . ... ... : ... .. D ... ...
ROW 6C : ... .. D ... ... ... : ... .. . ... ... ... : ... .. . ... : ... .. 1 ... : ... .. . ... ... : ... .. . ... ... : ... .. . ... ... : ... .. 8 ... ...
ROW 6D : ... .. A ... ... ... : ... .. 7 ... ... ... : ... .. . ... : ... .. . ... : ... .. . ... ... : ... .. . ... ... : ... .. . ... ... : ... .. . ... ...
ROW 6E : ... .. 2 ... ... ... : ... .. 5 ... ... ... : ... .. . ... : ... .. . ... : ... .. . ... ... : ... .. 2 ... ... : ... .. 2 ... ... : ... .. . ... ...
ROW 6F : ... .. . ... ... ... : ... .. . ... ... ... : --- .. . ... : ... .. 0 ... : ... .. . ... ... : ... .. . ... ... : ... .. . ... ... : ... .. . ... ...
ROW 70 : ... .. F ... ... ... : G#3 00 9 ... ... ... : D#2 00 . ... : 1-# 00 F ... : ... .. . ... ... : D#4 01 3 ... ... : D#5 01 3 ... ... : G#4 01 F ... ...
ROW 71 : ... .. E ... ... ... : ... .. 8 ... ... ... : ... .. . ... : ... .. C ... : ... .. . ... ... : ... .. . ... ... : ... .. . ... ... : ... .. D ... ...
ROW 72 : ... .. D ... ... ... : ... .. . ... ... ... : ... .. . ... : ... .. 6 ... : ... .. . ... ... : ... .. . ... ... : ... .. . ... ... : ... .. 8 ... ...
ROW 73 : ... .. A ... ... ... : ... .. 7 ... ... ... : ... .. . ... : ... .. 3 ... : ... .. . ... ... : ... .. . ... ... : ... .. . ... ... : ... .. . ... ...
ROW 74 : ... .. 2 ... ... ... : ... .. 5 ... ... ... : ... .. . ... : ... .. 2 ... : ... .. . ... ... : ... .. 2 ... ... : ... .. 2 ... ... : ... .. . ... ...
ROW 75 : ... .. . ... ... ... : ... .. . ... ... ... : --- .. . ... : ... .. 0 ... : ... .. . ... ... : ... .. . ... ... : ... .. . ... ... : ... .. . ... ...
ROW 76 : G#4 00 F ... ... ... : C#4 00 9 ... ... ... : D-5 00 . ... : 9-# 00 F ... : ... .. . ... ... : F#4 01 7 ... ... : F#5 01 7 ... ... : C#5 01 F ... ...
ROW 77 : ... .. E ... ... ... : ... .. 8 ... ... ... : E-4 00 . ... : ... .. C ... : ... .. . ... ... : ... .. 6 ... ... : ... .. 6 ... ... : ... .. D ... ...
ROW 78 : ... .. D ... ... ... : ... .. . ... ... ... : A-3 00 . ... : ... .. A ... : ... .. . ... ... : ... .. . ... ... : ... .. . ... ... : ... .. 8 ... ...
ROW 79 : ... .. A ... ... ... : ... .. 7 ... ... ... : G#3 00 . ... : ... .. 8 ... : ... .. . ... ... : ... .. . ... ... : ... .. . ... ... : ... .. . ... ...
ROW 7A : ... .. . ... ... ... : ... .. 5 ... ... ... : D#3 00 . ... : ... .. 7 ... : ... .. . ... ... : ... .. . ... ... : ... .. . ... ... : ... .. . ... ...
ROW 7B : ... .. . ... ... ... : ... .. . ... ... ... : ... .. . ... : ... .. 4 ... : ... .. . ... ... : ... .. . ... ... : ... .. . ... ... : ... .. . ... ...
ROW 7C : D#2 00 F ... ... ... : G#3 00 9 ... ... ... : D#2 00 . ... : 3-# 00 D ... : ... .. . ... ... : C#4 01 3 ... ... : C#5 01 3 ... ... : G#4 01 F ... ...
ROW 7D : ... .. E ... ... ... : ... .. 8 ... ... ... : ... .. . ... : ... .. . ... : ... .. . ... ... : ... .. . ... ... : ... .. . ... ... : ... .. D ... ...
ROW 7E : ... .. D ... ... ... : ... .. . ... ... ... : ... .. . ... : F-# 00 D ... : ... .. . ... ... : ... .. . ... ... : ... .. . ... ... : ... .. 8 ... ...
ROW 7F : ... .. A ... ... ... : ... .. 7 ... ... ... : ... .. . ... : D-# 00 6 ... : ... .. . ... ... : ... .. . ... ... : ... .. . ... ... : ... .. . ... ...
ROW 80 : ... .. 2 ... ... ... : ... .. 5 ... ... ... : ... .. . ... : 9-# 00 1 ... : ... .. . ... ... : ... .. 2 ... ... : ... .. 2 ... ... : ... .. . ... ...
ROW 81 : ... .. . ... ... ... : ... .. . ... ... ... : --- .. . ... : ... .. 0 ... : ... .. . ... ... : ... .. . ... ... : ... .. . ... ... : ... .. . ... ...
ROW 82 : ... .. F ... ... ... : C#3 00 9 ... ... ... : D#2 00 . ... : 1-# 00 F ... : ... .. . ... ... : G#3 01 3 ... ... : G#4 01 3 ... ... : C#4 01 F ... ...
ROW 83 : ... .. E ... ... ... : ... .. 8 ... ... ... : ... .. . ... : ... .. C ... : ... .. . ... ... : ... .. . ... ... : ... .. . ... ... : ... .. D ... ...
ROW 84 : ... .. D ... ... ... : ... .. . ... ... ... : ... .. . ... : ... .. 6 ... : ... .. . ... ... : ... .. . ... ... : ... .. . ... ... : ... .. 8 ... ...
ROW 85 : ... .. A ... ... ... : ... .. 7 ... ... ... : ... .. . ... : ... .. 3 ... : ... .. . ... ... : ... .. . ... ... : ... .. . ... ... : ... .. . ... ...
ROW 86 : ... .. 2 ... ... ... : ... .. 5 ... ... ... : ... .. . ... : ... .. 2 ... : ... .. . ... ... : ... .. 2 ... ... : ... .. 2 ... ... : ... .. . ... ...
ROW 87 : ... .. . ... ... ... : ... .. . ... ... ... : --- .. . ... : ... .. 0 ... : ... .. . ... ... : ... .. . ... ... : ... .. . ... ... : ... .. . ... ...
ROW 88 : A#4 00 F ... ... ... : D#4 00 9 ... ... ... : D-6 00 . ... : 7-# 00 F ... : ... .. . ... ... : A#2 01 7 ... ... : A#3 01 7 ... ... : D#4 01 F ... ...
ROW 89 : ... .. E ... ... ... : ... .. 8 ... ... ... : E-5 00 . ... : ... .. C ... : ... .. . ... ... : ... .. 6 ... ... : ... .. 6 ... ... : ... .. D ... ...
ROW 8A : ... .. D ... ... ... : ... .. . ... ... ... : A-4 00 . ... : ... .. A ... : ... .. . ... ... : ... .. . ... ... : ... .. . ... ... : ... .. 8 ... ...
ROW 8B : ... .. A ... ... ... : ... .. 7 ... ... ... : G#4 00 . ... : ... .. 8 ... : ... .. . ... ... : ... .. . ... ... : ... .. . ... ... : ... .. . ... ...
ROW 8C : ... .. . ... ... ... : ... .. 5 ... ... ... : D#4 00 . ... : ... .. 7 ... : ... .. . ... ... : ... .. . ... ... : ... .. . ... ... : ... .. . ... ...
ROW 8D : ... .. . ... ... ... : ... .. . ... ... ... : ... .. . ... : ... .. 4 ... : ... .. . ... ... : ... .. . ... ... : ... .. . ... ... : ... .. . ... ...
ROW 8E : D#2 00 F ... ... ... : A#3 00 9 ... ... ... : D#3 00 . ... : 1-# 00 F ... : ... .. . ... ... : D#3 01 3 ... ... : D#4 01 3 ... ... : A#3 01 F ... ...
ROW 8F : ... .. E ... ... ... : ... .. 8 ... ... ... : ... .. . ... : ... .. C ... : ... .. . ... ... : ... .. . ... ... : ... .. . ... ... : ... .. D ... ...
ROW 90 : ... .. D ... ... ... : ... .. . ... ... ... : ... .. . ... : ... .. 6 ... : ... .. . ... ... : ... .. . ... ... : ... .. . ... ... : ... .. 8 ... ...
ROW 91 : ... .. A ... ... ... : ... .. 7 ... ... ... : ... .. . ... : ... .. 3 ... : ... .. . ... ... : ... .. . ... ... : ... .. . ... ... : ... .. . ... ...
ROW 92 : ... .. 2 ... ... ... : ... .. 5 ... ... ... : ... .. . ... : ... .. 2 ... : ... .. . ... ... : ... .. 2 ... ... : ... .. 2 ... ... : ... .. . ... ...
ROW 93 : ... .. . ... ... ... : ... .. . ... ... ... : --- .. . ... : ... .. 0 ... : ... .. . ... ... : ... .. . ... ... : ... .. . ... ... : ... .. . ... ...
ROW 94 : ... .. F ... ... ... : D#3 00 9 ... ... ... : D#3 00 . ... : 3-# 00 D ... : ... .. . ... ... : A#3 01 3 ... ... : A#4 01 3 ... ... : D#3 01 F ... ...
ROW 95 : ... .. E ... ... ... : ... .. 8 ... ... ... : ... .. . ... : ... .. . ... : ... .. . ... ... : ... .. . ... ... : ... .. . ... ... : ... .. D ... ...
ROW 96 : ... .. D ... ... ... : ... .. . ... ... ... : ... .. . ... : F-# 00 D ... : ... .. . ... ... : ... .. . ... ... : ... .. . ... ... : ... .. 8 ... ...
ROW 97 : ... .. A ... ... ... : ... .. 7 ... ... ... : ... .. . ... : D-# 00 6 ... : ... .. . ... ... : ... .. . ... ... : ... .. . ... ... : ... .. . ... ...
ROW 98 : ... .. 2 ... ... ... : ... .. 5 ... ... ... : ... .. . ... : 9-# 00 1 ... : ... .. . ... ... : ... .. 2 ... ... : ... .. 2 ... ... : ... .. . ... ...
ROW 99 : ... .. . ... ... ... : ... .. . ... ... ... : --- .. . ... : ... .. 0 ... : ... .. . ... ... : ... .. . ... ... : ... .. . ... ... : ... .. . ... ...
ROW 9A : C#5 00 F ... ... ... : F#4 00 9 ... ... ... : D-6 00 . ... : 7-# 00 F ... : ... .. . ... ... : C#3 01 7 ... ... : C#4 01 7 ... ... : F#4 01 F ... ...
ROW 9B : ... .. E ... ... ... : ... .. 8 ... ... ... : E-5 00 . ... : ... .. C ... : ... .. . ... ... : ... .. 6 ... ... : ... .. 6 ... ... : ... .. D ... ...
ROW 9C : ... .. D ... ... ... : ... .. . ... ... ... : A-4 00 . ... : ... .. A ... : ... .. . ... ... : ... .. . ... ... : ... .. . ... ... : ... .. 8 ... ...
ROW 9D : ... .. A ... ... ... : ... .. 7 ... ... ... : G#4 00 . ... : ... .. 8 ... : ... .. . ... ... : ... .. . ... ... : ... .. . ... ... : ... .. . ... ...
ROW 9E : ... .. . ... ... ... : ... .. 5 ... ... ... : D#4 00 . ... : ... .. 7 ... : ... .. . ... ... : ... .. . ... ... : ... .. . ... ... : ... .. . ... ...
ROW 9F : ... .. . ... ... ... : ... .. . ... ... ... : ... .. . ... : ... .. 4 ... : ... .. . ... ... : ... .. . ... ... : ... .. . ... ... : ... .. . ... ...
ROW A0 : D#2 00 F ... ... ... : C#4 00 9 ... ... ... : D#3 00 . ... : 1-# 00 F ... : ... .. . ... ... : F#3 01 3 ... ... : F#4 01 3 ... ... : C#4 01 F ... ...
ROW A1 : ... .. E ... ... ... : ... .. 8 ... ... ... : ... .. . ... : ... .. C ... : ... .. . ... ... : ... .. . ... ... : ... .. . ... ... : ... .. D ... ...
ROW A2 : ... .. D ... ... ... : ... .. . ... ... ... : ... .. . ... : ... .. 6 ... : ... .. . ... ... : ... .. . ... ... : ... .. . ... ... : ... .. 8 ... ...
ROW A3 : ... .. A ... ... ... : ... .. 7 ... ... ... : ... .. . ... : ... .. 3 ... : ... .. . ... ... : ... .. . ... ... : ... .. . ... ... : ... .. . ... ...
ROW A4 : ... .. 2 ... ... ... : ... .. 5 ... ... ... : ... .. . ... : ... .. 2 ... : ... .. . ... ... : ... .. 2 ... ... : ... .. 2 ... ... : ... .. . ... ...
ROW A5 : ... .. . ... ... ... : ... .. . ... ... ... : --- .. . ... : ... .. 0 ... : ... .. . ... ... : ... .. . ... ... : ... .. . ... ... : ... .. . ... ...
ROW A6 : ... .. F ... ... ... : F#3 00 9 ... ... ... : D#3 00 . ... : ... .. F ... : ... .. . ... ... : G#3 01 3 ... ... : G#4 01 3 ... ... : F#3 01 F ... ...
ROW A7 : ... .. E ... ... ... : ... .. 8 ... ... ... : ... .. . ... : ... .. C ... : ... .. . ... ... : ... .. . ... ... : ... .. . ... ... : ... .. D ... ...
ROW A8 : ... .. D ... ... ... : ... .. . ... ... ... : ... .. . ... : ... .. 6 ... : ... .. . ... ... : ... .. . ... ... : ... .. . ... ... : ... .. 8 ... ...
ROW A9 : ... .. A ... ... ... : ... .. 7 ... ... ... : ... .. . ... : ... .. 3 ... : ... .. . ... ... : ... .. . ... ... : ... .. . ... ... : ... .. . ... ...
ROW AA : ... .. 2 ... ... ... : ... .. 5 ... ... ... : ... .. . ... : ... .. 2 ... : ... .. . ... ... : ... .. 2 ... ... : ... .. 2 ... ... : ... .. . ... ...
ROW AB : ... .. . ... ... ... : ... .. . ... ... ... : --- .. . ... : ... .. 0 ... : ... .. . ... ... : ... .. . ... ... : ... .. . ... ... : ... .. . ... ...
ROW AC : C-5 00 F ... ... ... : G#4 00 9 ... ... ... : D-6 00 . ... : 9-# 00 F ... : ... .. . ... ... : C-4 01 7 ... ... : C-5 01 7 ... ... : G#4 01 F ... ...
ROW AD : ... .. E ... ... ... : ... .. 8 ... ... ... : E-5 00 . ... : ... .. C ... : ... .. . ... ... : ... .. 6 ... ... : ... .. 6 ... ... : ... .. D ... ...
ROW AE : ... .. D ... ... ... : ... .. . ... ... ... : A-4 00 . ... : ... .. A ... : ... .. . ... ... : ... .. . ... ... : ... .. . ... ... : ... .. 8 ... ...
ROW AF : ... .. A ... ... ... : ... .. 7 ... ... ... : G#4 00 . ... : ... .. 8 ... : ... .. . ... ... : ... .. . ... ... : ... .. . ... ... : ... .. . ... ...
ROW B0 : ... .. . ... ... ... : ... .. 5 ... ... ... : D#4 00 . ... : ... .. 7 ... : ... .. . ... ... : ... .. . ... ... : ... .. . ... ... : ... .. . ... ...
ROW B1 : ... .. . ... ... ... : ... .. . ... ... ... : ... .. . ... : ... .. 4 ... : ... .. . ... ... : ... .. . ... ... : ... .. . ... ... : ... .. . ... ...
ROW B2 : D#2 00 F ... ... ... : D#4 00 9 ... ... ... : D#3 00 . ... : C-# 00 4 ... : ... .. . ... ... : G#3 01 3 ... ... : G#4 01 3 ... ... : D#4 01 F ... ...
ROW B3 : ... .. E ... ... ... : ... .. 8 ... ... ... : ... .. . ... : ... .. 3 ... : ... .. . ... ... : ... .. . ... ... : ... .. . ... ... : ... .. D ... ...
ROW B4 : ... .. D ... ... ... : ... .. . ... ... ... : ... .. . ... : ... .. 1 ... : ... .. . ... ... : ... .. . ... ... : ... .. . ... ... : ... .. 8 ... ...
ROW B5 : ... .. A ... ... ... : ... .. 7 ... ... ... : ... .. . ... : ... .. . ... : ... .. . ... ... : ... .. . ... ... : ... .. . ... ... : ... .. . ... ...
ROW B6 : ... .. 2 ... ... ... : ... .. 5 ... ... ... : ... .. . ... : ... .. . ... : ... .. . ... ... : ... .. 2 ... ... : ... .. 2 ... ... : ... .. . ... ...
ROW B7 : ... .. . ... ... ... : ... .. . ... ... ... : --- .. . ... : ... .. 0 ... : ... .. . ... ... : ... .. . ... ... : ... .. . ... ... : ... .. . ... ...
ROW B8 : ... .. F ... ... ... : G#3 00 9 ... ... ... : D#3 00 . ... : 1-# 00 F ... : ... .. . ... ... : F#3 01 3 ... ... : F#4 01 3 ... ... : G#3 01 F ... ...
ROW B9 : ... .. E ... ... ... : ... .. 8 ... ... ... : ... .. . ... : ... .. C ... : ... .. . ... ... : ... .. . ... ... : ... .. . ... ... : ... .. D ... ...
ROW BA : ... .. D ... ... ... : ... .. . ... ... ... : ... .. . ... : ... .. 6 ... : ... .. . ... ... : ... .. . ... ... : ... .. . ... ... : ... .. 8 ... ...
ROW BB : ... .. A ... ... ... : ... .. 7 ... ... ... : ... .. . ... : ... .. 3 ... : ... .. . ... ... : ... .. . ... ... : ... .. . ... ... : ... .. . ... ...
ROW BC : ... .. 2 ... ... ... : ... .. 5 ... ... ... : ... .. . ... : ... .. 2 ... : ... .. . ... ... : ... .. 2 ... ... : ... .. 2 ... ... : ... .. . ... ...
ROW BD : ... .. . ... ... ... : ... .. . ... ... ... : --- .. . ... : ... .. 0 ... : ... .. . ... ... : ... .. . ... ... : ... .. . ... ... : ... .. . ... ...
ROW BE : G#4 00 F ... ... ... : C#4 00 9 ... ... ... : D-6 00 . ... : 7-# 00 F ... : ... .. . ... ... : D#4 01 7 ... ... : D#5 01 7 ... ... : C#4 01 F ... ...
ROW BF : ... .. E ... ... ... : ... .. 8 ... ... ... : E-5 00 . ... : ... .. C ... : ... .. . ... ... : ... .. 6 ... ... : ... .. 6 ... ... : ... .. D ... ...
ROW C0 : ... .. D ... ... ... : ... .. . ... ... ... : A-4 00 . ... : ... .. A ... : ... .. . ... ... : ... .. . ... ... : ... .. . ... ... : ... .. 8 ... ...
ROW C1 : ... .. A ... ... ... : ... .. 7 ... ... ... : G#4 00 . ... : ... .. 8 ... : ... .. . ... ... : ... .. . ... ... : ... .. . ... ... : ... .. . ... ...
ROW C2 : ... .. . ... ... ... : ... .. 5 ... ... ... : D#4 00 . ... : ... .. 7 ... : ... .. . ... ... : ... .. . ... ... : ... .. . ... ... : ... .. . ... ...
ROW C3 : ... .. . ... ... ... : ... .. . ... ... ... : ... .. . ... : ... .. 4 ... : ... .. . ... ... : ... .. . ... ... : ... .. . ... ... : ... .. . ... ...
ROW C4 : D#2 00 F ... ... ... : G#3 00 9 ... ... ... : C-4 00 . P82 : ... .. F ... : ... .. . ... ... : G#3 01 3 ... ... : G#4 01 3 ... ... : G#3 01 F ... ...
ROW C5 : ... .. E ... ... ... : ... .. 8 ... ... ... : A#3 00 . P7C : ... .. C ... : ... .. . ... ... : ... .. . ... ... : ... .. . ... ... : ... .. D ... ...
ROW C6 : ... .. D ... ... ... : ... .. . ... ... ... : G#3 00 . P79 : ... .. A ... : ... .. . ... ... : ... .. . ... ... : ... .. . ... ... : ... .. 8 ... ...
ROW C7 : ... .. A ... ... ... : ... .. 7 ... ... ... : F#3 00 . P7A : ... .. 8 ... : ... .. . ... ... : ... .. . ... ... : ... .. . ... ... : ... .. . ... ...
ROW C8 : ... .. 2 ... ... ... : ... .. 5 ... ... ... : E-3 00 . P7F : ... .. 7 ... : ... .. . ... ... : ... .. 2 ... ... : ... .. 2 ... ... : ... .. . ... ...
ROW C9 : ... .. . ... ... ... : ... .. . ... ... ... : D-3 00 . P89 : ... .. 4 ... : ... .. . ... ... : ... .. . ... ... : ... .. . ... ... : ... .. . ... ...
ROW CA : ... .. F ... ... ... : C#3 00 9 ... ... ... : C#3 00 . P80 : 5-# 00 F ... : ... .. . ... ... : D#3 01 3 ... ... : D#4 01 3 ... ... : C#3 01 F ... ...
ROW CB : ... .. E ... ... ... : ... .. 8 ... ... ... : C-3 00 . P78 : ... .. C ... : ... .. . ... ... : ... .. . ... ... : ... .. . ... ... : ... .. D ... ...
ROW CC : ... .. D ... ... ... : ... .. . ... ... ... : A#2 00 . P8C : ... .. A ... : ... .. . ... ... : ... .. . ... ... : ... .. . ... ... : ... .. 8 ... ...
ROW CD : ... .. A ... ... ... : ... .. 7 ... ... ... : A-2 00 . P88 : ... .. 8 ... : ... .. . ... ... : ... .. . ... ... : ... .. . ... ... : ... .. . ... ...
ROW CE : ... .. 2 ... ... ... : ... .. 5 ... ... ... : G#2 00 . P87 : ... .. 7 ... : ... .. . ... ... : ... .. 2 ... ... : ... .. 2 ... ... : ... .. . ... ...
ROW CF : ... .. . ... ... ... : ... .. . ... ... ... : G-2 00 . ... : ... .. 4 ... : ... .. . ... ... : ... .. . ... ... : ... .. . ... ... : ... .. . ... ...
ROW D0 : ... .. 0 ... V00 ... : A#3 00 6 ... ... ... : D-4 00 . P80 : 7-# 00 D ... : ... .. . ... ... : G#2 01 6 ... ... : G#2 01 A P7F V03 : ... .. F P81 ...
ROW D1 : ... .. . ... ... ... : ... .. 5 ... ... ... : E-3 00 . ... : ... .. B ... : ... .. . ... ... : ... .. 5 ... ... : ... .. 9 ... ... : ... .. D ... ...
ROW D2 : ... .. . ... ... ... : ... .. . ... ... ... : A-2 00 . ... : ... .. . ... : ... .. . ... ... : ... .. . ... ... : ... .. 8 ... ... : ... .. 8 ... ...
ROW D3 : ... .. . ... ... ... : ... .. . ... ... ... : G#2 00 . ... : ... .. A ... : ... .. . ... ... : ... .. . ... ... : ... .. 7 ... ... : ... .. 2 ... ...
ROW D4 : ... .. . ... ... ... : ... .. 4 ... ... ... : D#2 00 . ... : ... .. 8 ... : ... .. . ... ... : ... .. 4 ... ... : ... .. . ... ... : ... .. . ... ...
ROW D5 : ... .. . ... ... ... : ... .. 3 ... ... ... : ... .. . ... : ... .. 7 ... : ... .. . ... ... : ... .. . ... ... : ... .. 6 ... ... : ... .. . ... ...
ROW D6 : ... .. . ... ... ... : F#3 00 6 ... ... ... : ... .. . ... : ... .. 6 ... : ... .. . ... ... : A#2 01 6 ... ... : ... .. . ... ... : ... .. 8 ... ...
ROW D7 : ... .. . ... ... ... : ... .. 5 ... ... ... : ... .. . ... : ... .. . ... : ... .. . ... ... : ... .. 5 ... ... : ... .. 5 ... ... : ... .. . ... ...
ROW D8 : ... .. . ... ... ... : ... .. . ... ... ... : ... .. . ... : ... .. 5 ... : ... .. . ... ... : ... .. . ... ... : ... .. . ... ... : ... .. . ... ...
ROW D9 : ... .. . ... ... ... : ... .. . ... ... ... : ... .. . ... : ... .. . ... : ... .. . ... ... : ... .. . ... ... : ... .. . ... ... : ... .. 2 ... ...
ROW DA : ... .. . ... ... ... : ... .. 4 ... ... ... : ... .. . ... : ... .. 4 ... : ... .. . ... ... : ... .. 4 ... ... : ... .. . ... ... : ... .. . ... ...
ROW DB : ... .. . ... ... ... : ... .. 3 ... ... ... : ... .. . ... : ... .. . ... : ... .. . ... ... : ... .. . ... ... : ... .. . ... ... : ... .. . ... ...
ROW DC : D#4 00 F P80 V01 ... : D#3 00 6 ... ... ... : D-5 00 . ... : ... .. F ... : ... .. . ... ... : F-3 01 6 ... ... : ... .. . ... ... : ... .. 8 ... ...
ROW DD : ... .. E ... ... ... : ... .. 5 ... ... ... : E-4 00 . ... : ... .. C ... : ... .. . ... ... : ... .. 5 ... ... : ... .. . ... ... : ... .. . ... ...
ROW DE : ... .. D ... ... ... : ... .. . ... ... ... : A-3 00 . ... : ... .. A ... : ... .. . ... ... : ... .. . ... ... : ... .. . ... ... : ... .. . ... ...
ROW DF : ... .. A ... ... ... : ... .. . ... ... ... : G#3 00 . ... : ... .. 8 ... : ... .. . ... ... : ... .. . ... ... : ... .. . ... ... : ... .. 2 ... ...
ROW E0 : ... .. . ... ... ... : ... .. 4 ... ... ... : D#3 00 . ... : ... .. 7 ... : ... .. . ... ... : ... .. 4 ... ... : ... .. . ... ... : ... .. . ... ...
ROW E1 : ... .. . ... ... ... : ... .. 3 ... ... ... : ... .. . ... : ... .. 4 ... : ... .. . ... ... : ... .. . ... ... : ... .. . ... ... : ... .. . ... ...
ROW E2 : B-4 00 F ... V02 ... : A#3 00 6 ... ... ... : ... .. . ... : ... .. 2 ... : ... .. . ... ... : C#3 01 6 ... ... : ... .. . ... ... : ... .. 8 ... ...
ROW E3 : C#5 00 E P83 ... ... : ... .. 5 ... ... ... : ... .. . ... : ... .. 1 ... : ... .. . ... ... : ... .. 5 ... ... : ... .. . ... ... : ... .. . ... ...
ROW E4 : D#5 00 D P80 ... ... : ... .. . ... ... ... : ... .. . ... : ... .. 0 ... : ... .. . ... ... : ... .. . ... ... : ... .. . ... ... : ... .. . ... ...
ROW E5 : ... .. A ... ... ... : ... .. . ... ... ... : ... .. . ... : ... .. . ... : ... .. . ... ... : ... .. . ... ... : ... .. . ... ... : ... .. 2 ... ...
ROW E6 : ... .. . ... ... ... : ... .. 4 ... ... ... : ... .. . ... : ... .. . ... : ... .. . ... ... : ... .. 4 ... ... : ... .. . ... ... : ... .. . ... ...
ROW E7 : ... .. . ... ... ... : ... .. 3 ... ... ... : ... .. . ... : ... .. . ... : ... .. . ... ... : ... .. . ... ... : ... .. . ... ... : ... .. . ... ...
ROW E8 : C#5 00 F ... V00 ... : F#3 00 6 ... ... ... : D-5 00 . ... : 1-# 00 F ... : ... .. . ... ... : D#3 01 6 ... ... : ... .. . ... ... : ... .. 8 ... ...
ROW E9 : ... .. E ... ... ... : ... .. 5 ... ... ... : E-4 00 . ... : ... .. C ... : ... .. . ... ... : ... .. 5 ... ... : ... .. . ... ... : ... .. . ... ...
ROW EA : ... .. D ... ... ... : ... .. . ... ... ... : A-3 00 . ... : ... .. 6 ... : ... .. . ... ... : ... .. . ... ... : ... .. . ... ... : ... .. . ... ...
ROW EB : ... .. A ... ... ... : ... .. . ... ... ... : G#3 00 . ... : ... .. 3 ... : ... .. . ... ... : ... .. . ... ... : ... .. . ... ... : ... .. 2 ... ...
ROW EC : ... .. . ... ... ... : ... .. 4 ... ... ... : D#3 00 . ... : ... .. 2 ... : ... .. . ... ... : ... .. 4 ... ... : ... .. . ... ... : ... .. . ... ...
ROW ED : ... .. . ... ... ... : ... .. 3 ... ... ... : --- .. . ... : ... .. 0 ... : ... .. . ... ... : ... .. . ... ... : ... .. . ... ... : ... .. . ... ...
ROW EE : ... .. . P82 ... ... : D#3 00 6 ... ... ... : D-5 00 . ... : ... .. F ... : ... .. . ... ... : G#3 01 6 ... ... : ... .. . ... ... : ... .. 8 ... ...
ROW EF : ... .. . P83 ... ... : ... .. 5 ... ... ... : E-4 00 . ... : ... .. C ... : ... .. . ... ... : ... .. 5 ... ... : ... .. . ... ... : ... .. . ... ...
ROW F0 : ... .. . ... ... ... : ... .. . ... ... ... : A-3 00 . ... : ... .. 6 ... : ... .. . ... ... : ... .. . ... ... : ... .. . ... ... : ... .. . ... ...
ROW F1 : ... .. . P81 ... ... : ... .. . ... ... ... : G#3 00 . ... : ... .. 3 ... : ... .. . ... ... : ... .. . ... ... : ... .. . ... ... : ... .. 2 ... ...
ROW F2 : ... .. . P7F ... ... : ... .. 4 ... ... ... : D#3 00 . ... : ... .. 2 ... : ... .. . ... ... : ... .. 4 ... ... : ... .. . ... ... : ... .. . ... ...
ROW F3 : C-5 00 A P83 ... ... : ... .. 3 ... ... ... : --- .. . ... : ... .. 0 ... : ... .. . ... ... : ... .. . ... ... : ... .. . ... ... : ... .. . ... ...
ROW F4 : D#4 00 F P80 V01 ... : A#3 00 6 ... ... ... : C#3 00 . ... : 7-# 00 F ... : ... .. . ... ... : F#3 01 6 ... ... : ... .. . ... ... : ... .. 8 ... ...
ROW F5 : ... .. E ... ... ... : ... .. 5 ... ... ... : ... .. . ... : ... .. C ... : ... .. . ... ... : ... .. 5 ... ... : ... .. . ... ... : ... .. . ... ...
ROW F6 : ... .. D ... ... ... : ... .. . ... ... ... : ... .. . ... : ... .. A ... : ... .. . ... ... : ... .. . ... ... : ... .. . ... ... : ... .. . ... ...
ROW F7 : ... .. A ... ... ... : ... .. . ... ... ... : ... .. . ... : ... .. 8 ... : ... .. . ... ... : ... .. . ... ... : ... .. . ... ... : ... .. 2 ... ...
ROW F8 : ... .. . ... ... ... : ... .. 4 ... ... ... : ... .. . ... : ... .. 7 ... : ... .. . ... ... : ... .. 4 ... ... : ... .. . ... ... : ... .. . ... ...
ROW F9 : ... .. . ... ... ... : ... .. 3 ... ... ... : --- .. . ... : ... .. 4 ... : ... .. . ... ... : ... .. . ... ... : ... .. . ... ... : ... .. . ... ...
ROW FA : C#5 00 F ... V00 ... : F#3 00 6 ... ... ... : D#3 00 . ... : C-# 00 4 ... : ... .. . ... ... : C#4 01 6 ... ... : ... .. . ... ... : ... .. 8 ... ...
ROW FB : ... .. E ... ... ... : ... .. 5 ... ... ... : ... .. . ... : ... .. 3 ... : ... .. . ... ... : ... .. 5 ... ... : ... .. . ... ... : ... .. . ... ...
ROW FC : ... .. D ... ... ... : ... .. . ... ... ... : ... .. . ... : ... .. 1 ... : ... .. . ... ... : ... .. . ... ... : ... .. . ... ... : ... .. . ... ...
ROW FD : ... .. A ... ... ... : ... .. . ... ... ... : ... .. . ... : ... .. . ... : ... .. . ... ... : ... .. . ... ... : ... .. . ... ... : ... .. 2 ... ...
ROW FE : ... .. 2 ... ... ... : ... .. 4 ... ... ... : ... .. . ... : ... .. . ... : ... .. . ... ... : ... .. 4 ... ... : ... .. . ... ... : ... .. . ... ...
ROW FF : ... .. . ... ... ... : ... .. 3 ... ... ... : --- .. . ... : ... .. 0 ... : ... .. . ... ... : ... .. . ... ... : ... .. . ... ... : ... .. . ... ...

PATTERN 06
ROW 00 : C-5 00 F ... ... ... : C-4 00 6 ... ... ... : D-4 00 . ... : 1-# 00 F ... : ... .. . ... ... : G#3 01 6 ... ... : A#2 01 A ... ... : D#3 01 F ... ...
ROW 01 : ... .. E ... ... ... : ... .. 5 ... ... ... : E-3 00 . ... : ... .. C ... : ... .. . ... ... : ... .. 5 ... ... : ... .. 9 ... ... : ... .. D ... ...
ROW 02 : ... .. D ... ... ... : ... .. . ... ... ... : A-2 00 . ... : ... .. 6 ... : ... .. . ... ... : ... .. . ... ... : ... .. 8 ... ... : ... .. 8 ... ...
ROW 03 : ... .. A ... ... ... : ... .. . ... ... ... : G#2 00 . ... : ... .. 3 ... : ... .. . ... ... : ... .. . ... ... : ... .. 7 ... ... : ... .. 2 ... ...
ROW 04 : ... .. . ... ... ... : ... .. 4 ... ... ... : D#2 00 . ... : ... .. 2 ... : ... .. . ... ... : ... .. 4 ... ... : ... .. . ... ... : ... .. . ... ...
ROW 05 : ... .. . ... ... ... : ... .. 3 ... ... ... : --- .. . ... : ... .. 0 ... : ... .. . ... ... : ... .. . ... ... : ... .. 6 ... ... : ... .. . ... ...
ROW 06 : A#4 00 F ... ... ... : G#3 00 6 ... ... ... : D-4 00 . ... : ... .. F ... : ... .. . ... ... : A#3 01 6 ... ... : ... .. . ... ... : ... .. 8 ... ...
ROW 07 : ... .. E ... ... ... : ... .. 5 ... ... ... : E-3 00 . ... : ... .. C ... : ... .. . ... ... : ... .. 5 ... ... : ... .. 5 ... ... : ... .. . ... ...
ROW 08 : ... .. D ... ... ... : ... .. . ... ... ... : A-2 00 . ... : ... .. 6 ... : ... .. . ... ... : ... .. . ... ... : ... .. . ... ... : ... .. . ... ...
ROW 09 : ... .. A ... ... ... : ... .. . ... ... ... : G#2 00 . ... : ... .. 3 ... : ... .. . ... ... : ... .. . ... ... : ... .. . ... ... : ... .. 2 ... ...
ROW 0A : ... .. 2 ... ... ... : ... .. 4 ... ... ... : D#2 00 . ... : ... .. 2 ... : ... .. . ... ... : ... .. 4 ... ... : ... .. . ... ... : ... .. . ... ...
ROW 0B : ... .. . ... ... ... : ... .. 3 ... ... ... : --- .. . ... : ... .. 0 ... : ... .. . ... ... : ... .. . ... ... : ... .. . ... ... : ... .. . ... ...
ROW 0C : C-5 00 F ... ... ... : D#3 00 6 ... ... ... : C-5 00 . ... : 7-# 00 F ... : ... .. . ... ... : F-4 01 6 ... ... : ... .. . ... ... : ... .. 8 ... ...
ROW 0D : ... .. E ... ... ... : ... .. 5 ... ... ... : D-4 00 . ... : ... .. C ... : ... .. . ... ... : ... .. 5 ... ... : ... .. . ... ... : ... .. . ... ...
ROW 0E : ... .. D ... ... ... : ... .. . ... ... ... : G-3 00 . ... : ... .. A ... : ... .. . ... ... : ... .. . ... ... : ... .. . ... ... : ... .. . ... ...
ROW 0F : ... .. A ... ... ... : ... .. . ... ... ... : F#3 00 . ... : ... .. 8 ... : ... .. . ... ... : ... .. . ... ... : ... .. . ... ... : ... .. 2 ... ...
ROW 10 : ... .. . ... ... ... : ... .. 4 ... ... ... : C#3 00 . ... : ... .. 7 ... : ... .. . ... ... : ... .. 4 ... ... : ... .. . ... ... : ... .. . ... ...
ROW 11 : ... .. . ... ... ... : ... .. 3 ... ... ... : --- .. . ... : ... .. 4 ... : ... .. . ... ... : ... .. . ... ... : ... .. . ... ... : ... .. . ... ...
ROW 12 : ... .. . ... ... ... : C-4 00 6 ... ... ... : D#3 00 . ... : 1-# 00 F ... : ... .. . ... ... : C#4 01 6 ... ... : ... .. . ... ... : ... .. 8 ... ...
ROW 13 : ... .. . ... ... ... : ... .. 5 ... ... ... : ... .. . ... : ... .. C ... : ... .. . ... ... : ... .. 5 ... ... : ... .. . ... ... : ... .. . ... ...
ROW 14 : ... .. . ... ... ... : ... .. . ... ... ... : ... .. . ... : ... .. 6 ... : ... .. . ... ... : ... .. . ... ... : ... .. . ... ... : ... .. . ... ...
ROW 15 : ... .. . P82 ... ... : ... .. . ... ... ... : ... .. . ... : ... .. 3 ... : ... .. . ... ... : ... .. . ... ... : ... .. . ... ... : ... .. 2 ... ...
ROW 16 : ... .. . P83 ... ... : ... .. 4 ... ... ... : ... .. . ... : ... .. 2 ... : ... .. . ... ... : ... .. 4 ... ... : ... .. . ... ... : ... .. . ... ...
ROW 17 : ... .. . ... ... ... : ... .. 3 ... ... ... : --- .. . ... : ... .. 0 ... : ... .. . ... ... : ... .. . ... ... : ... .. . ... ... : ... .. . ... ...
ROW 18 : ... .. . P81 ... ... : G#3 00 6 ... ... ... : D-5 00 . ... : C-# 00 4 ... : ... .. . ... ... : D#4 01 6 ... ... : ... .. . ... ... : ... .. 8 ... ...
ROW 19 : ... .. . P7F ... ... : ... .. 5 ... ... ... : E-4 00 . ... : ... .. 3 ... : ... .. . ... ... : ... .. 5 ... ... : ... .. . ... ... : ... .. . ... ...
ROW 1A : B-4 00 A P83 ... ... : ... .. . ... ... ... : A-3 00 . ... : ... .. 1 ... : ... .. . ... ... : ... .. . ... ... : ... .. . ... ... : ... .. . ... ...
ROW 1B : ... .. . ... ... ... : ... .. . ... ... ... : G#3 00 . ... : ... .. . ... : ... .. . ... ... : ... .. . ... ... : ... .. . ... ... : ... .. 2 ... ...
ROW 1C : C-5 00 A P7E ... ... : ... .. 4 ... ... ... : D#3 00 . ... : ... .. . ... : ... .. . ... ... : ... .. 4 ... ... : ... .. . ... ... : ... .. . ... ...
ROW 1D : ... .. . P80 ... ... : ... .. 3 ... ... ... : --- .. . ... : ... .. 0 ... : ... .. . ... ... : ... .. . ... ... : ... .. . ... ... : ... .. . ... ...
ROW 1E : ... .. . P82 ... ... : D#3 00 6 ... ... ... : D-5 00 . ... : 1-# 00 F ... : ... .. . ... ... : G#4 01 6 ... ... : ... .. . ... ... : ... .. 8 ... ...
ROW 1F : ... .. . P83 ... ... : ... .. 5 ... ... ... : E-4 00 . ... : ... .. C ... : ... .. . ... ... : ... .. 5 ... ... : ... .. . ... ... : ... .. . ... ...
ROW 20 : ... .. . ... ... ... : ... .. . ... ... ... : A-3 00 . ... : ... .. 6 ... : ... .. . ... ... : ... .. . ... ... : ... .. . ... ... : ... .. . ... ...
ROW 21 : ... .. . P81 ... ... : ... .. . ... ... ... : G#3 00 . ... : ... .. 3 ... : ... .. . ... ... : ... .. . ... ... : ... .. . ... ... : ... .. 2 ... ...
ROW 22 : ... .. . P80 ... ... : ... .. 4 ... ... ... : D#3 00 . ... : ... .. 2 ... : ... .. . ... ... : ... .. 4 ... ... : ... .. . ... ... : ... .. . ... ...
ROW 23 : B-4 00 A P83 ... ... : ... .. 3 ... ... ... : --- .. . ... : ... .. 0 ... : ... .. . ... ... : ... .. . ... ... : ... .. . ... ... : ... .. . ... ...
ROW 24 : G#4 00 F P80 V01 ... : C-4 00 6 ... ... ... : C#3 00 . ... : 7-# 00 F ... : ... .. . ... ... : F#4 01 6 ... ... : ... .. . ... ... : ... .. 8 ... ...
ROW 25 : ... .. E ... ... ... : ... .. 5 ... ... ... : ... .. . ... : ... .. C ... : ... .. . ... ... : ... .. 5 ... ... : ... .. . ... ... : ... .. . ... ...
ROW 26 : ... .. D ... ... ... : ... .. . ... ... ... : ... .. . ... : ... .. A ... : ... .. . ... ... : ... .. . ... ... : ... .. . ... ... : ... .. . ... ...
ROW 27 : ... .. A ... ... ... : ... .. . ... ... ... : ... .. . ... : ... .. 8 ... : ... .. . ... ... : ... .. . ... ... : ... .. . ... ... : ... .. 2 ... ...
ROW 28 : ... .. . ... ... ... : ... .. 4 ... ... ... : ... .. . ... : ... .. 7 ... : ... .. . ... ... : ... .. 4 ... ... : ... .. . ... ... : ... .. . ... ...
ROW 29 : ... .. . ... ... ... : ... .. 3 ... ... ... : --- .. . ... : ... .. 4 ... : ... .. . ... ... : ... .. . ... ... : ... .. . ... ... : ... .. . ... ...
ROW 2A : F#4 00 F ... V02 ... : G#3 00 6 ... ... ... : D#3 00 . ... : C-# 00 4 ... : ... .. . ... ... : A#4 01 6 ... ... : ... .. . ... ... : ... .. 8 ... ...
ROW 2B : ... .. E ... ... ... : ... .. 5 ... ... ... : ... .. . ... : ... .. 3 ... : ... .. . ... ... : ... .. 5 ... ... : ... .. . ... ... : ... .. . ... ...
ROW 2C : ... .. D ... ... ... : ... .. . ... ... ... : ... .. . ... : ... .. 1 ... : ... .. . ... ... : ... .. . ... ... : ... .. . ... ... : ... .. . ... ...
ROW 2D : ... .. A ... ... ... : ... .. . ... ... ... : ... .. . ... : ... .. . ... : ... .. . ... ... : ... .. . ... ... : ... .. . ... ... : ... .. 2 ... ...
ROW 2E : ... .. 2 ... ... ... : ... .. 4 ... ... ... : ... .. . ... : ... .. . ... : ... .. . ... ... : ... .. 4 ... ... : ... .. . ... ... : ... .. . ... ...
ROW 2F : ... .. . ... ... ... : ... .. 3 ... ... ... : --- .. . ... : ... .. 0 ... : ... .. . ... ... : ... .. . ... ... : ... .. . ... ... : ... .. . ... ...
ROW 30 : F-4 00 F ... ... ... : C#4 00 6 ... ... ... : D-4 00 . ... : 1-# 00 F ... : ... .. . ... ... : C#4 01 6 ... ... : C#3 01 A ... ... : F#3 01 F ... ...
ROW 31 : ... .. E ... ... ... : ... .. 5 ... ... ... : E-3 00 . ... : ... .. C ... : ... .. . ... ... : ... .. 5 ... ... : ... .. 9 ... ... : ... .. D ... ...
ROW 32 : ... .. D ... ... ... : ... .. . ... ... ... : A-2 00 . ... : ... .. 6 ... : ... .. . ... ... : ... .. . ... ... : ... .. 8 ... ... : ... .. 8 ... ...
ROW 33 : ... .. A ... ... ... : ... .. . ... ... ... : G#2 00 . ... : ... .. 3 ... : ... .. . ... ... : ... .. . ... ... : ... .. 7 ... ... : ... .. 2 ... ...
ROW 34 : ... .. . ... ... ... : ... .. 4 ... ... ... : D#2 00 . ... : ... .. 2 ... : ... .. . ... ... : ... .. 4 ... ... : ... .. . ... ... : ... .. . ... ...
ROW 35 : ... .. . ... ... ... : ... .. 3 ... ... ... : ... .. . ... : ... .. 0 ... : ... .. . ... ... : ... .. . ... ... : ... .. 6 ... ... : ... .. . ... ...
ROW 36 : F#4 00 F ... V00 ... : F#3 00 6 ... ... ... : ... .. . ... : ... .. F ... : ... .. . ... ... : D#4 01 6 ... ... : ... .. . ... ... : ... .. 8 ... ...
ROW 37 : ... .. E ... ... ... : ... .. 5 ... ... ... : ... .. . ... : ... .. C ... : ... .. . ... ... : ... .. 5 ... ... : ... .. 5 ... ... : ... .. . ... ...
ROW 38 : ... .. D ... ... ... : ... .. . ... ... ... : ... .. . ... : ... .. 6 ... : ... .. . ... ... : ... .. . ... ... : ... .. . ... ... : ... .. . ... ...
ROW 39 : F-4 00 F ... ... ... : ... .. . ... ... ... : ... .. . ... : ... .. 3 ... : ... .. . ... ... : ... .. . ... ... : ... .. . ... ... : ... .. 2 ... ...
ROW 3A : ... .. E ... ... ... : ... .. 4 ... ... ... : ... .. . ... : ... .. 2 ... : ... .. . ... ... : ... .. 4 ... ... : ... .. . ... ... : ... .. . ... ...
ROW 3B : ... .. D ... ... ... : ... .. 3 ... ... ... : --- .. . ... : ... .. 0 ... : ... .. . ... ... : ... .. . ... ... : ... .. . ... ... : ... .. . ... ...
ROW 3C : C#4 00 F ... V01 ... : D#3 00 6 ... ... ... : D#3 00 . ... : 7-# 00 F ... : ... .. . ... ... : C#5 01 6 ... ... : ... .. . ... ... : ... .. 8 ... ...
ROW 3D : ... .. E ... ... ... : ... .. 5 ... ... ... : ... .. . ... : ... .. C ... : ... .. . ... ... : ... .. 5 ... ... : ... .. . ... ... : ... .. . ... ...
ROW 3E : ... .. D ... ... ... : ... .. . ... ... ... : ... .. . ... : ... .. A ... : ... .. . ... ... : ... .. . ... ... : ... .. . ... ... : ... .. . ... ...
ROW 3F : ... .. A ... ... ... : ... .. . ... ... ... : ... .. . ... : ... .. 8 ... : ... .. . ... ... : ... .. . ... ... : ... .. . ... ... : ... .. 2 ... ...
ROW 40 : ... .. . ... ... ... : ... .. 4 ... ... ... : ... .. . ... : ... .. 7 ... : ... .. . ... ... : ... .. 4 ... ... : ... .. . ... ... : ... .. . ... ...
ROW 41 : ... .. . ... ... ... : ... .. 3 ... ... ... : --- .. . ... : ... .. 4 ... : ... .. . ... ... : ... .. . ... ... : ... .. . ... ... : ... .. . ... ...
ROW 42 : D#4 00 F ... V00 ... : C#4 00 6 ... ... ... : D#3 00 . ... : C-# 00 4 ... : ... .. . ... ... : G#4 01 6 ... ... : ... .. . ... ... : ... .. 8 ... ...
ROW 43 : ... .. E ... ... ... : ... .. 5 ... ... ... : ... .. . ... : ... .. 3 ... : ... .. . ... ... : ... .. 5 ... ... : ... .. . ... ... : ... .. . ... ...
ROW 44 : ... .. D ... ... ... : ... .. . ... ... ... : ... .. . ... : ... .. 1 ... : ... .. . ... ... : ... .. . ... ... : ... .. . ... ... : ... .. . ... ...
ROW 45 : ... .. A ... ... ... : ... .. . ... ... ... : ... .. . ... : ... .. . ... : ... .. . ... ... : ... .. . ... ... : ... .. . ... ... : ... .. 2 ... ...
ROW 46 : ... .. 2 ... ... ... : ... .. 4 ... ... ... : ... .. . ... : ... .. . ... : ... .. . ... ... : ... .. 4 ... ... : ... .. . ... ... : ... .. . ... ...
ROW 47 : ... .. . ... ... ... : ... .. 3 ... ... ... : --- .. . ... : ... .. 0 ... : ... .. . ... ... : ... .. . ... ... : ... .. . ... ... : ... .. . ... ...
ROW 48 : A#3 00 F ... ... ... : F#3 00 6 ... ... ... : D-5 00 . ... : 1-# 00 F ... : ... .. . ... ... : A#4 01 6 ... ... : ... .. . ... ... : ... .. 8 ... ...
ROW 49 : ... .. E ... ... ... : ... .. 5 ... ... ... : E-4 00 . ... : ... .. C ... : ... .. . ... ... : ... .. 5 ... ... : ... .. . ... ... : ... .. . ... ...
ROW 4A : ... .. D ... ... ... : ... .. . ... ... ... : A-3 00 . ... : ... .. 6 ... : ... .. . ... ... : ... .. . ... ... : ... .. . ... ... : ... .. . ... ...
ROW 4B : ... .. A ... ... ... : ... .. . ... ... ... : G#3 00 . ... : ... .. 3 ... : ... .. . ... ... : ... .. . ... ... : ... .. . ... ... : ... .. 2 ... ...
ROW 4C : ... .. . ... ... ... : ... .. 4 ... ... ... : D#3 00 . ... : ... .. 2 ... : ... .. . ... ... : ... .. 4 ... ... : ... .. . ... ... : ... .. . ... ...
ROW 4D : ... .. . ... ... ... : ... .. 3 ... ... ... : --- .. . ... : ... .. 0 ... : ... .. . ... ... : ... .. . ... ... : ... .. . ... ... : ... .. . ... ...
ROW 4E : G#3 00 F ... V01 ... : D#3 00 6 ... ... ... : D-5 00 . ... : ... .. F ... : ... .. . ... ... : D#5 01 6 ... ... : ... .. . ... ... : ... .. 8 ... ...
ROW 4F : ... .. E ... ... ... : ... .. 5 ... ... ... : E-4 00 . ... : ... .. C ... : ... .. . ... ... : ... .. 5 ... ... : ... .. . ... ... : ... .. . ... ...
ROW 50 : ... .. D ... ... ... : ... .. . ... ... ... : A-3 00 . ... : ... .. 6 ... : ... .. . ... ... : ... .. . ... ... : ... .. . ... ... : ... .. . ... ...
ROW 51 : ... .. A ... ... ... : ... .. . ... ... ... : G#3 00 . ... : ... .. 3 ... : ... .. . ... ... : ... .. . ... ... : ... .. . ... ... : ... .. 2 ... ...
ROW 52 : ... .. 2 ... ... ... : ... .. 4 ... ... ... : D#3 00 . ... : ... .. 2 ... : ... .. . ... ... : ... .. 4 ... ... : ... .. . ... ... : ... .. . ... ...
ROW 53 : ... .. . ... ... ... : ... .. 3 ... ... ... : --- .. . ... : ... .. 0 ... : ... .. . ... ... : ... .. . ... ... : ... .. . ... ... : ... .. . ... ...
ROW 54 : C#4 00 F ... V00 ... : C#4 00 6 ... ... ... : C#3 00 . ... : 7-# 00 F ... : ... .. . ... ... : G#4 01 6 ... ... : ... .. . ... ... : ... .. 8 ... ...
ROW 55 : ... .. E ... ... ... : ... .. 5 ... ... ... : ... .. . ... : ... .. C ... : ... .. . ... ... : ... .. 5 ... ... : ... .. . ... ... : ... .. . ... ...
ROW 56 : ... .. D ... ... ... : ... .. . ... ... ... : ... .. . ... : ... .. A ... : ... .. . ... ... : ... .. . ... ... : ... .. . ... ... : ... .. . ... ...
ROW 57 : ... .. A ... ... ... : ... .. . ... ... ... : ... .. . ... : ... .. 8 ... : ... .. . ... ... : ... .. . ... ... : ... .. . ... ... : ... .. 2 ... ...
ROW 58 : ... .. 2 ... ... ... : ... .. 4 ... ... ... : ... .. . ... : ... .. 7 ... : ... .. . ... ... : ... .. 4 ... ... : ... .. . ... ... : ... .. . ... ...
ROW 59 : ... .. . ... ... ... : ... .. 3 ... ... ... : --- .. . ... : ... .. 4 ... : ... .. . ... ... : ... .. . ... ... : ... .. . ... ... : ... .. . ... ...
ROW 5A : A#3 00 F ... V02 ... : F#3 00 6 ... ... ... : D#3 00 . ... : C-# 00 4 ... : ... .. . ... ... : A#4 01 6 ... ... : ... .. . ... ... : ... .. 8 ... ...
ROW 5B : ... .. E ... ... ... : ... .. 5 ... ... ... : ... .. . ... : ... .. 3 ... : ... .. . ... ... : ... .. 5 ... ... : ... .. . ... ... : ... .. . ... ...
ROW 5C : ... .. D ... ... ... : ... .. . ... ... ... : ... .. . ... : ... .. 1 ... : ... .. . ... ... : ... .. . ... ... : ... .. . ... ... : ... .. . ... ...
ROW 5D : ... .. A ... ... ... : ... .. . ... ... ... : ... .. . ... : ... .. . ... : ... .. . ... ... : ... .. . ... ... : ... .. . ... ... : ... .. 2 ... ...
ROW 5E : ... .. . ... ... ... : ... .. 4 ... ... ... : ... .. . ... : ... .. . ... : ... .. . ... ... : ... .. 4 ... ... : ... .. . ... ... : ... .. . ... ...
ROW 5F : ... .. . ... ... ... : ... .. 3 ... ... ... : --- .. . ... : ... .. 0 ... : ... .. . ... ... : ... .. . ... ... : ... .. . ... ... : ... .. . ... ...
ROW 60 : C-4 00 F ... ... ... : D#4 00 6 ... ... ... : D-4 00 . ... : 1-# 00 F ... : ... .. . ... ... : D#4 01 6 ... ... : D#3 01 A ... ... : G#3 01 F ... ...
ROW 61 : ... .. E ... ... ... : ... .. 5 ... ... ... : E-3 00 . ... : ... .. C ... : ... .. . ... ... : ... .. 5 ... ... : ... .. 9 ... ... : ... .. D ... ...
ROW 62 : ... .. D ... ... ... : ... .. . ... ... ... : A-2 00 . ... : ... .. 6 ... : ... .. . ... ... : ... .. . ... ... : ... .. 8 ... ... : ... .. 8 ... ...
ROW 63 : ... .. A ... ... ... : ... .. . ... ... ... : G#2 00 . ... : ... .. 3 ... : ... .. . ... ... : ... .. . ... ... : ... .. 6 ... ... : ... .. 2 ... ...
ROW 64 : ... .. . ... ... ... : ... .. 4 ... ... ... : D#2 00 . ... : ... .. 2 ... : ... .. . ... ... : ... .. 4 ... ... : ... .. . ... ... : ... .. . ... ...
ROW 65 : ... .. . ... ... ... : ... .. 3 ... ... ... : --- .. . ... : ... .. 0 ... : ... .. . ... ... : ... .. . ... ... : ... .. 5 ... ... : ... .. . ... ...
ROW 66 : G#3 00 F ... ... ... : C-4 00 6 ... ... ... : D-4 00 . ... : ... .. F ... : ... .. . ... ... : G#3 01 6 ... ... : ... .. 4 ... ... : ... .. 8 ... ...
ROW 67 : ... .. E ... ... ... : ... .. 5 ... ... ... : E-3 00 . ... : ... .. C ... : ... .. . ... ... : ... .. 5 ... ... : ... .. 3 ... ... : ... .. . ... ...
ROW 68 : ... .. D ... ... ... : ... .. . ... ... ... : A-2 00 . ... : ... .. 6 ... : ... .. . ... ... : ... .. . ... ... : ... .. . ... ... : ... .. . ... ...
ROW 69 : ... .. A ... ... ... : ... .. . ... ... ... : G#2 00 . ... : ... .. 3 ... : ... .. . ... ... : ... .. . ... ... : ... .. . ... ... : ... .. 2 ... ...
ROW 6A : ... .. 2 ... ... ... : ... .. 4 ... ... ... : D#2 00 . ... : ... .. 2 ... : ... .. . ... ... : ... .. 4 ... ... : ... .. . ... ... : ... .. . ... ...
ROW 6B : ... .. . ... ... ... : ... .. 3 ... ... ... : --- .. . ... : ... .. 0 ... : ... .. . ... ... : ... .. . ... ... : ... .. . ... ... : ... .. . ... ...
ROW 6C : D#3 00 F ... V01 ... : G#3 00 6 ... ... ... : C#3 00 . ... : 7-# 00 F ... : ... .. . ... ... : A#3 01 6 ... ... : ... .. 2 ... ... : ... .. 8 ... ...
ROW 6D : ... .. E ... ... ... : ... .. 5 ... ... ... : ... .. . ... : ... .. C ... : ... .. . ... ... : ... .. 5 ... ... : ... .. . ... ... : ... .. . ... ...
ROW 6E : ... .. D ... ... ... : ... .. . ... ... ... : ... .. . ... : ... .. A ... : ... .. . ... ... : ... .. . ... ... : ... .. . ... ... : ... .. . ... ...
ROW 6F : ... .. A ... ... ... : ... .. . ... ... ... : ... .. . ... : ... .. 8 ... : ... .. . ... ... : ... .. . ... ... : ... .. 1 ... ... : ... .. 2 ... ...
ROW 70 : ... .. 2 ... ... ... : ... .. 4 ... ... ... : ... .. . ... : ... .. 7 ... : ... .. . ... ... : ... .. 4 ... ... : ... .. . ... ... : ... .. . ... ...
ROW 71 : ... .. . ... ... ... : ... .. 3 ... ... ... : --- .. . ... : ... .. 4 ... : ... .. . ... ... : ... .. . ... ... : ... .. . ... ... : ... .. . ... ...
ROW 72 : C#3 00 F ... V00 ... : D#4 00 6 ... ... ... : D#3 00 . ... : 1-# 00 F ... : ... .. . ... ... : D#4 01 6 ... ... : ... .. . ... ... : ... .. 8 ... ...
ROW 73 : ... .. E ... ... ... : ... .. 5 ... ... ... : ... .. . ... : ... .. C ... : ... .. . ... ... : ... .. 5 ... ... : ... .. . ... ... : ... .. . ... ...
ROW 74 : ... .. D ... ... ... : ... .. . ... ... ... : ... .. . ... : ... .. 6 ... : ... .. . ... ... : ... .. . ... ... : ... .. . ... ... : ... .. . ... ...
ROW 75 : ... .. A ... ... ... : ... .. . ... ... ... : ... .. . ... : ... .. 3 ... : ... .. . ... ... : ... .. . ... ... : ... .. . ... ... : ... .. 2 ... ...
ROW 76 : ... .. 2 ... ... ... : ... .. 4 ... ... ... : ... .. . ... : ... .. 2 ... : ... .. . ... ... : ... .. 4 ... ... : ... .. . ... ... : ... .. . ... ...
ROW 77 : ... .. . ... ... ... : ... .. 3 ... ... ... : --- .. . ... : ... .. 0 ... : ... .. . ... ... : ... .. . ... ... : ... .. . ... ... : ... .. . ... ...
ROW 78 : C-3 00 F ... ... ... : C-4 00 6 ... ... ... : D-5 00 . ... : C-# 00 4 ... : ... .. . ... ... : G#3 01 6 ... ... : ... .. 2 ... ... : ... .. 8 ... ...
ROW 79 : ... .. E ... ... ... : ... .. 5 ... ... ... : E-4 00 . ... : ... .. 3 ... : ... .. . ... ... : ... .. 5 ... ... : ... .. . ... ... : ... .. . ... ...
ROW 7A : ... .. D ... ... ... : ... .. . ... ... ... : A-3 00 . ... : ... .. 1 ... : ... .. . ... ... : ... .. . ... ... : ... .. . ... ... : ... .. . ... ...
ROW 7B : ... .. A ... ... ... : ... .. . ... ... ... : G#3 00 . ... : ... .. . ... : ... .. . ... ... : ... .. . ... ... : ... .. . ... ... : ... .. 2 ... ...
ROW 7C : ... .. . ... ... ... : ... .. 4 ... ... ... : D#3 00 . ... : ... .. . ... : ... .. . ... ... : ... .. 4 ... ... : ... .. . ... ... : ... .. . ... ...
ROW 7D : ... .. . ... ... ... : ... .. 3 ... ... ... : --- .. . ... : ... .. 0 ... : ... .. . ... ... : ... .. . ... ... : ... .. . ... ... : ... .. . ... ...
ROW 7E : C#3 00 F ... V01 ... : G#3 00 6 ... ... ... : D-5 00 . ... : 1-# 00 F ... : ... .. . ... ... : D#3 01 6 ... ... : ... .. . ... ... : ... .. 8 ... ...
ROW 7F : ... .. E ... ... ... : ... .. 5 ... ... ... : E-4 00 . ... : ... .. C ... : ... .. . ... ... : ... .. 5 ... ... : ... .. . ... ... : ... .. . ... ...
ROW 80 : ... .. D ... ... ... : ... .. . ... ... ... : A-3 00 . ... : ... .. 6 ... : ... .. . ... ... : ... .. . ... ... : ... .. . ... ... : ... .. . ... ...
ROW 81 : ... .. A ... ... ... : ... .. . ... ... ... : G#3 00 . ... : ... .. 3 ... : ... .. . ... ... : ... .. . ... ... : ... .. 3 ... ... : ... .. 2 ... ...
ROW 82 : ... .. . ... ... ... : ... .. 4 ... ... ... : D#3 00 . ... : ... .. 2 ... : ... .. . ... ... : ... .. 4 ... ... : ... .. . ... ... : ... .. . ... ...
ROW 83 : ... .. . ... ... ... : ... .. 3 ... ... ... : --- .. . ... : ... .. 0 ... : ... .. . ... ... : ... .. . ... ... : ... .. . ... ... : ... .. . ... ...
ROW 84 : D#3 00 F ... ... ... : D#4 00 6 ... ... ... : C#3 00 . ... : 7-# 00 F ... : ... .. . ... ... : C#3 01 6 ... ... : ... .. . ... ... : ... .. 8 ... ...
ROW 85 : ... .. E ... ... ... : ... .. 5 ... ... ... : ... .. . ... : ... .. C ... : ... .. . ... ... : ... .. 5 ... ... : ... .. . ... ... : ... .. . ... ...
ROW 86 : ... .. D ... ... ... : ... .. . ... ... ... : ... .. . ... : ... .. A ... : ... .. . ... ... : ... .. . ... ... : ... .. . ... ... : ... .. . ... ...
ROW 87 : ... .. A ... ... ... : ... .. . ... ... ... : ... .. . ... : ... .. 8 ... : ... .. . ... ... : ... .. . ... ... : ... .. 4 ... ... : ... .. 2 ... ...
ROW 88 : ... .. . ... ... ... : ... .. 4 ... ... ... : ... .. . ... : ... .. 7 ... : ... .. . ... ... : ... .. 4 ... ... : ... .. . ... ... : ... .. . ... ...
ROW 89 : ... .. . ... ... ... : ... .. 3 ... ... ... : --- .. . ... : ... .. 4 ... : ... .. . ... ... : ... .. . ... ... : ... .. . ... ... : ... .. . ... ...
ROW 8A : G#3 00 F ... V00 ... : C-4 00 6 ... ... ... : D#3 00 . ... : C-# 00 4 ... : ... .. . ... ... : F#3 01 6 ... ... : ... .. . ... ... : ... .. 8 ... ...
ROW 8B : ... .. E ... ... ... : ... .. 5 ... ... ... : ... .. . ... : ... .. 3 ... : ... .. . ... ... : ... .. 5 ... ... : ... .. . ... ... : ... .. . ... ...
ROW 8C : ... .. D ... ... ... : ... .. . ... ... ... : ... .. . ... : ... .. 1 ... : ... .. . ... ... : ... .. . ... ... : ... .. . ... ... : ... .. . ... ...
ROW 8D : ... .. A ... ... ... : ... .. . ... ... ... : ... .. . ... : ... .. 4 ... : ... .. . ... ... : ... .. . ... ... : ... .. 5 ... ... : ... .. 2 ... ...
ROW 8E : ... .. 2 ... ... ... : ... .. 4 ... ... ... : ... .. . ... : ... .. 3 ... : ... .. . ... ... : ... .. 4 ... ... : ... .. . ... ... : ... .. . ... ...
ROW 8F : ... .. . ... ... ... : ... .. 3 ... ... ... : --- .. . ... : ... .. 1 ... : ... .. . ... ... : ... .. . ... ... : ... .. . ... ... : ... .. . ... ...
ROW 90 : A#3 00 F ... ... ... : F-4 00 6 ... ... ... : D-4 00 . ... : 1-# 00 F ... : ... .. . ... ... : F#4 01 9 ... ... : D#4 01 9 ... V05 : A#4 01 F ... ...
ROW 91 : ... .. E ... ... ... : ... .. 5 ... ... ... : E-3 00 . ... : ... .. C ... : ... .. . ... ... : ... .. 8 ... ... : ... .. 8 ... ... : ... .. D ... ...
ROW 92 : ... .. D ... ... ... : ... .. . ... ... ... : A-2 00 . ... : ... .. 6 ... : ... .. . ... ... : ... .. . ... ... : ... .. . ... ... : ... .. 8 ... ...
ROW 93 : ... .. A ... ... ... : ... .. . ... ... ... : G#2 00 . ... : ... .. 3 ... : ... .. . ... ... : --- .. . ... ... : --- .. . ... ... : --- .. . ... ...
ROW 94 : ... .. 2 ... ... ... : ... .. 4 ... ... ... : D#2 00 . ... : ... .. 2 ... : ... .. . ... ... : ... .. . ... ... : ... .. . ... ... : ... .. . ... ...
ROW 95 : ... .. . ... ... ... : ... .. 3 ... ... ... : ... .. . ... : ... .. 0 ... : ... .. . ... ... : ... .. . ... ... : ... .. . ... ... : ... .. . ... ...
ROW 96 : G#3 00 F ... ... ... : C#4 00 6 ... ... ... : ... .. . ... : ... .. F ... : ... .. . ... ... : F-4 01 9 ... ... : D#4 01 9 ... ... : G#4 01 A ... ...
ROW 97 : ... .. E ... ... ... : ... .. 5 ... ... ... : ... .. . ... : ... .. C ... : ... .. . ... ... : ... .. 8 ... ... : ... .. 8 ... ... : ... .. 8 ... ...
ROW 98 : ... .. D ... ... ... : ... .. . ... ... ... : ... .. . ... : ... .. 6 ... : ... .. . ... ... : ... .. . ... ... : ... .. . ... ... : ... .. 5 ... ...
ROW 99 : ... .. A ... ... ... : ... .. . ... ... ... : ... .. . ... : ... .. 3 ... : ... .. . ... ... : --- .. . ... ... : --- .. . ... ... : --- .. . ... ...
ROW 9A : ... .. 2 ... ... ... : ... .. 4 ... ... ... : ... .. . ... : ... .. 2 ... : ... .. . ... ... : ... .. . ... ... : ... .. . ... ... : ... .. . ... ...
ROW 9B : ... .. . ... ... ... : ... .. 3 ... ... ... : --- .. . ... : ... .. 0 ... : ... .. . ... ... : ... .. . ... ... : ... .. . ... ... : ... .. . ... ...
ROW 9C : A#3 00 F ... ... ... : F#3 00 6 ... ... ... : D#3 00 . ... : ... .. . ... : ... .. . ... ... : F#4 01 9 ... ... : D#4 01 9 ... ... : A#4 01 A ... ...
ROW 9D : ... .. E ... ... ... : ... .. 5 ... ... ... : ... .. . ... : D-# 00 F ... : ... .. . ... ... : ... .. 8 ... ... : ... .. 8 ... ... : ... .. 8 ... ...
ROW 9E : ... .. D ... ... ... : ... .. . ... ... ... : ... .. . ... : ... .. 6 ... : ... .. . ... ... : ... .. . ... ... : ... .. . ... ... : ... .. 5 ... ...
ROW 9F : ... .. A ... ... ... : ... .. . ... ... ... : ... .. . ... : ... .. . ... : ... .. . ... ... : ... .. . ... ... : ... .. . ... ... : ... .. . ... ...
ROW A0 : ... .. . ... ... ... : ... .. 4 ... ... ... : ... .. . ... : ... .. 0 ... : ... .. . ... ... : ... .. 7 ... ... : ... .. 7 ... ... : ... .. . ... ...
ROW A1 : ... .. . ... ... ... : ... .. 3 ... ... ... : --- .. . ... : ... .. A ... : ... .. . ... ... : ... .. . ... ... : ... .. . ... ... : ... .. . ... ...
ROW A2 : G#3 00 8 ... ... ... : F-4 00 6 ... ... ... : D#3 00 . ... : ... .. 4 ... : ... .. . ... ... : --- .. . ... ... : --- .. . ... ... : --- .. . ... ...
ROW A3 : ... .. 7 ... ... ... : ... .. 5 ... ... ... : ... .. . ... : ... .. . ... : ... .. . ... ... : ... .. . ... ... : ... .. . ... ... : ... .. . ... ...
ROW A4 : ... .. 6 ... ... ... : ... .. . ... ... ... : ... .. . ... : ... .. 0 ... : ... .. . ... ... : ... .. . ... ... : ... .. . ... ... : ... .. . ... ...
ROW A5 : ... .. 5 ... ... ... : ... .. . ... ... ... : ... .. . ... : ... .. A ... : ... .. . ... ... : ... .. . ... ... : ... .. . ... ... : ... .. . ... ...
ROW A6 : ... .. 1 ... ... ... : ... .. 4 ... ... ... : ... .. . ... : ... .. 4 ... : ... .. . ... ... : ... .. . ... ... : ... .. . ... ... : ... .. . ... ...
ROW A7 : ... .. . ... ... ... : ... .. 3 ... ... ... : --- .. . ... : ... .. . ... : ... .. . ... ... : ... .. . ... ... : ... .. . ... ... : ... .. . ... ...
ROW A8 : A#4 00 F ... V02 ... : C#4 00 6 ... ... ... : D-5 00 . ... : A-# 00 D ... : ... .. . ... ... : F#3 01 5 ... ... : D#3 01 5 ... ... : A#3 01 9 ... ...
ROW A9 : ... .. E ... ... ... : ... .. 5 ... ... ... : E-4 00 . ... : ... .. B ... : ... .. . ... ... : ... .. 4 ... ... : ... .. 4 ... ... : ... .. 7 ... ...
ROW AA : ... .. D ... ... ... : ... .. . ... ... ... : A-3 00 . ... : ... .. . ... : ... .. . ... ... : ... .. . ... ... : ... .. . ... ... : ... .. 4 ... ...
ROW AB : ... .. A ... ... ... : ... .. . ... ... ... : G#3 00 . ... : ... .. A ... : ... .. . ... ... : --- .. . P7F ... : --- .. . P82 ... : --- .. . P80 ...
ROW AC : ... .. 2 ... ... ... : ... .. 4 ... ... ... : D#3 00 . ... : ... .. 8 ... : ... .. . ... ... : ... .. . ... ... : ... .. . ... ... : ... .. . ... ...
ROW AD : ... .. . ... ... ... : ... .. 3 ... ... ... : --- .. . ... : ... .. 7 ... : ... .. . ... ... : ... .. . ... ... : ... .. . ... ... : ... .. . ... ...
ROW AE : G#4 00 F ... ... ... : F#3 00 6 ... ... ... : D-5 00 . ... : ... .. 6 ... : ... .. . ... ... : F-3 01 5 P80 ... : D#3 01 5 P7F ... : G#3 01 9 P81 ...
ROW AF : ... .. E ... ... ... : ... .. 5 ... ... ... : E-4 00 . ... : ... .. . ... : ... .. . ... ... : ... .. 4 ... ... : ... .. 4 ... ... : ... .. 7 ... ...
ROW B0 : ... .. D ... ... ... : ... .. . ... ... ... : A-3 00 . ... : ... .. 5 ... : ... .. . ... ... : ... .. . ... ... : ... .. . ... ... : ... .. 4 ... ...
ROW B1 : ... .. A ... ... ... : ... .. . ... ... ... : G#3 00 . ... : ... .. . ... : ... .. . ... ... : --- .. . ... ... : --- .. . P82 ... : --- .. . P80 ...
ROW B2 : ... .. 2 ... ... ... : ... .. 4 ... ... ... : D#3 00 . ... : ... .. 4 ... : ... .. . ... ... : ... .. . ... ... : ... .. . ... ... : ... .. . ... ...
ROW B3 : ... .. . ... ... ... : ... .. 3 ... ... ... : --- .. . ... : ... .. . ... : ... .. . ... ... : ... .. . ... ... : ... .. . ... ... : ... .. . ... ...
ROW B4 : A#4 00 F ... ... ... : F-4 00 6 ... ... ... : C#3 00 . ... : 7-# 00 F ... : ... .. . ... ... : F#3 01 5 ... ... : D#3 01 5 P7F ... : A#3 01 9 P81 ...
ROW B5 : ... .. E ... ... ... : ... .. 5 ... ... ... : ... .. . ... : ... .. C ... : ... .. . ... ... : ... .. 4 ... ... : ... .. 4 ... ... : ... .. 7 ... ...
ROW B6 : ... .. D ... ... ... : ... .. . ... ... ... : ... .. . ... : ... .. A ... : ... .. . ... ... : ... .. . ... ... : ... .. . ... ... : ... .. 4 ... ...
ROW B7 : ... .. A ... ... ... : ... .. . ... ... ... : ... .. . ... : ... .. 8 ... : ... .. . ... ... : ... .. . ... ... : ... .. . ... ... : ... .. . ... ...
ROW B8 : ... .. . ... ... ... : ... .. 4 ... ... ... : ... .. . ... : ... .. 7 ... : ... .. . ... ... : ... .. . ... ... : ... .. . ... ... : ... .. . ... ...
ROW B9 : ... .. . ... ... ... : ... .. 3 ... ... ... : --- .. . ... : ... .. 4 ... : ... .. . ... ... : ... .. . ... ... : ... .. . ... ... : ... .. . ... ...
ROW BA : G#4 00 8 ... ... ... : C#4 00 6 ... ... ... : D#3 00 . ... : C-# 00 4 ... : ... .. . ... ... : --- .. . P7F ... : --- .. . P82 ... : --- .. . P80 ...
ROW BB : ... .. 7 ... ... ... : ... .. 5 ... ... ... : ... .. . ... : ... .. 3 ... : ... .. . ... ... : ... .. . ... ... : ... .. . ... ... : ... .. . ... ...
ROW BC : ... .. 6 ... ... ... : ... .. . ... ... ... : ... .. . ... : ... .. 1 ... : ... .. . ... ... : ... .. . ... ... : ... .. . ... ... : ... .. . ... ...
ROW BD : ... .. 5 ... ... ... : ... .. . ... ... ... : ... .. . ... : ... .. . ... : ... .. . ... ... : ... .. . ... ... : ... .. . ... ... : ... .. . ... ...
ROW BE : ... .. 1 ... ... ... : ... .. 4 ... ... ... : ... .. . ... : ... .. . ... : ... .. . ... ... : ... .. . ... ... : ... .. . ... ... : ... .. . ... ...
ROW BF : ... .. . ... ... ... : ... .. 3 ... ... ... : --- .. . ... : ... .. 0 ... : ... .. . ... ... : ... .. . ... ... : ... .. . ... ... : ... .. . ... ...
ROW C0 : D#4 00 F ... V01 ... : F#4 00 6 ... ... ... : D-4 00 . ... : 1-# 00 F ... : ... .. . ... ... : D#4 01 9 P80 ... : F#4 01 9 P7F ... : B-4 01 A P81 ...
ROW C1 : ... .. E ... ... ... : ... .. 5 ... ... ... : E-3 00 . ... : ... .. C ... : ... .. . ... ... : ... .. 8 ... ... : ... .. 8 ... ... : ... .. 8 ... ...
ROW C2 : ... .. D ... ... ... : ... .. . ... ... ... : A-2 00 . ... : ... .. 6 ... : ... .. . ... ... : ... .. . ... ... : ... .. . ... ... : ... .. 5 ... ...
ROW C3 : ... .. A ... ... ... : ... .. . ... ... ... : G#2 00 . ... : ... .. 3 ... : ... .. . ... ... : --- .. . ... ... : --- .. . ... ... : --- .. . ... ...
ROW C4 : ... .. 2 ... ... ... : ... .. 4 ... ... ... : D#2 00 . ... : ... .. 2 ... : ... .. . ... ... : ... .. . ... ... : ... .. . ... ... : ... .. . ... ...
ROW C5 : ... .. . ... ... ... : ... .. 3 ... ... ... : --- .. . ... : ... .. 0 ... : ... .. . ... ... : ... .. . ... ... : ... .. . ... ... : ... .. . ... ...
ROW C6 : C#4 00 F ... ... ... : D#4 00 6 ... ... ... : D-4 00 . ... : ... .. F ... : ... .. . ... ... : C#4 01 9 ... ... : F#4 01 9 ... ... : A#4 01 A ... ...
ROW C7 : ... .. E ... ... ... : ... .. 5 ... ... ... : E-3 00 . ... : ... .. C ... : ... .. . ... ... : ... .. 8 ... ... : ... .. 8 ... ... : ... .. 8 ... ...
ROW C8 : ... .. D ... ... ... : ... .. . ... ... ... : A-2 00 . ... : ... .. 6 ... : ... .. . ... ... : ... .. . ... ... : ... .. . ... ... : ... .. 5 ... ...
ROW C9 : ... .. A ... ... ... : ... .. . ... ... ... : G#2 00 . ... : ... .. 3 ... : ... .. . ... ... : --- .. . ... ... : --- .. . ... ... : --- .. . ... ...
ROW CA : ... .. 2 ... ... ... : ... .. 4 ... ... ... : D#2 00 . ... : ... .. 2 ... : ... .. . ... ... : ... .. . ... ... : ... .. . ... ... : ... .. . ... ...
ROW CB : ... .. . ... ... ... : ... .. 3 ... ... ... : --- .. . ... : ... .. 0 ... : ... .. . ... ... : ... .. . ... ... : ... .. . ... ... : ... .. . ... ...
ROW CC : D#4 00 F ... ... ... : B-3 00 6 ... ... ... : C#3 00 . ... : 7-# 00 F ... : ... .. . ... ... : D#4 01 9 ... ... : F#4 01 9 ... ... : B-4 01 A ... ...
ROW CD : ... .. E ... ... ... : ... .. 5 ... ... ... : ... .. . ... : ... .. C ... : ... .. . ... ... : ... .. 8 ... ... : ... .. 8 ... ... : ... .. 8 ... ...
ROW CE : ... .. D ... ... ... : ... .. . ... ... ... : ... .. . ... : ... .. A ... : ... .. . ... ... : ... .. . ... ... : ... .. . ... ... : ... .. 5 ... ...
ROW CF : ... .. A ... ... ... : ... .. . ... ... ... : ... .. . ... : ... .. 8 ... : ... .. . ... ... : ... .. . ... ... : ... .. . ... ... : ... .. . ... ...
ROW D0 : ... .. . ... ... ... : ... .. 4 ... ... ... : ... .. . ... : ... .. 7 ... : ... .. . ... ... : ... .. 7 ... ... : ... .. 7 ... ... : ... .. . ... ...
ROW D1 : ... .. . ... ... ... : ... .. 3 ... ... ... : --- .. . ... : ... .. 4 ... : ... .. . ... ... : ... .. . ... ... : ... .. . ... ... : ... .. . ... ...
ROW D2 : C#4 00 8 ... ... ... : F#4 00 6 ... ... ... : D#3 00 . ... : 1-# 00 F ... : ... .. . ... ... : --- .. . ... ... : --- .. . ... ... : --- .. . ... ...
ROW D3 : ... .. 7 ... ... ... : ... .. 5 ... ... ... : ... .. . ... : ... .. C ... : ... .. . ... ... : ... .. . ... ... : ... .. . ... ... : ... .. . ... ...
ROW D4 : ... .. 6 ... ... ... : ... .. . ... ... ... : ... .. . ... : ... .. 6 ... : ... .. . ... ... : ... .. . ... ... : ... .. . ... ... : ... .. . ... ...
ROW D5 : ... .. 5 ... ... ... : ... .. . ... ... ... : ... .. . ... : ... .. 3 ... : ... .. . ... ... : ... .. . ... ... : ... .. . ... ... : ... .. . ... ...
ROW D6 : ... .. 1 ... ... ... : ... .. 4 ... ... ... : ... .. . ... : ... .. 2 ... : ... .. . ... ... : ... .. . ... ... : ... .. . ... ... : ... .. . ... ...
ROW D7 : ... .. . ... ... ... : ... .. 3 ... ... ... : --- .. . ... : ... .. 0 ... : ... .. . ... ... : ... .. . ... ... : ... .. . ... ... : ... .. . ... ...
ROW D8 : D#5 00 F ... V02 ... : D#4 00 6 ... ... ... : D-5 00 . ... : A-# 00 D ... : ... .. . ... ... : D#3 01 5 ... ... : F#3 01 5 ... ... : B-3 01 9 ... ...
ROW D9 : ... .. E ... ... ... : ... .. 5 ... ... ... : E-4 00 . ... : ... .. B ... : ... .. . ... ... : ... .. 4 ... ... : ... .. 4 ... ... : ... .. 7 ... ...
ROW DA : ... .. D ... ... ... : ... .. . ... ... ... : A-3 00 . ... : ... .. . ... : ... .. . ... ... : ... .. . ... ... : ... .. . ... ... : ... .. 4 ... ...
ROW DB : ... .. A ... ... ... : ... .. . ... ... ... : G#3 00 . ... : ... .. A ... : ... .. . ... ... : --- .. . P83 ... : --- .. . P81 ... : --- .. . P8F ...
ROW DC : ... .. 2 ... ... ... : ... .. 4 ... ... ... : D#3 00 . ... : ... .. 8 ... : ... .. . ... ... : ... .. . ... ... : ... .. . ... ... : ... .. . ... ...
ROW DD : ... .. . ... ... ... : ... .. 3 ... ... ... : --- .. . ... : ... .. 7 ... : ... .. . ... ... : ... .. . ... ... : ... .. . ... ... : ... .. . ... ...
ROW DE : C#5 00 F ... ... ... : B-3 00 6 ... ... ... : D-5 00 . ... : ... .. 6 ... : ... .. . ... ... : C#3 01 5 P80 ... : F#3 01 5 P7F ... : A#3 01 9 P81 ...
ROW DF : ... .. E ... ... ... : ... .. 5 ... ... ... : E-4 00 . ... : ... .. . ... : ... .. . ... ... : ... .. 4 ... ... : ... .. 4 ... ... : ... .. 7 ... ...
ROW E0 : ... .. D ... ... ... : ... .. . ... ... ... : A-3 00 . ... : ... .. 5 ... : ... .. . ... ... : ... .. . ... ... : ... .. . ... ... : ... .. 4 ... ...
ROW E1 : ... .. A ... ... ... : ... .. . ... ... ... : G#3 00 . ... : ... .. . ... : ... .. . ... ... : --- .. . P83 ... : --- .. . P81 ... : --- .. . P80 ...
ROW E2 : ... .. 2 ... ... ... : ... .. 4 ... ... ... : D#3 00 . ... : ... .. 4 ... : ... .. . ... ... : ... .. . ... ... : ... .. . ... ... : ... .. . ... ...
ROW E3 : ... .. . ... ... ... : ... .. 3 ... ... ... : --- .. . ... : ... .. . ... : ... .. . ... ... : ... .. . ... ... : ... .. . ... ... : ... .. . ... ...
ROW E4 : D#5 00 F ... ... ... : F#4 00 6 ... ... ... : C#3 00 . ... : 7-# 00 F ... : ... .. . ... ... : D#3 01 5 P80 ... : F#3 01 5 P7F ... : B-3 01 9 P81 ...
ROW E5 : ... .. E ... ... ... : ... .. 5 ... ... ... : ... .. . ... : ... .. C ... : ... .. . ... ... : ... .. 4 ... ... : ... .. 4 ... ... : ... .. 7 ... ...
ROW E6 : ... .. D ... ... ... : ... .. . ... ... ... : ... .. . ... : ... .. A ... : ... .. . ... ... : ... .. . ... ... : ... .. . ... ... : ... .. 4 ... ...
ROW E7 : ... .. A ... ... ... : ... .. . ... ... ... : ... .. . ... : ... .. 8 ... : ... .. . ... ... : ... .. . ... ... : ... .. . ... ... : ... .. . ... ...
ROW E8 : ... .. . ... ... ... : ... .. 4 ... ... ... : ... .. . ... : ... .. 7 ... : ... .. . ... ... : ... .. . ... ... : ... .. . ... ... : ... .. . ... ...
ROW E9 : ... .. . ... ... ... : ... .. 3 ... ... ... : --- .. . ... : ... .. 4 ... : ... .. . ... ... : ... .. . ... ... : ... .. . ... ... : ... .. . ... ...
ROW EA : C#5 00 8 ... ... ... : D#4 00 6 ... ... ... : D#3 00 . ... : C-# 00 4 ... : ... .. . ... ... : --- .. . P83 ... : --- .. . P81 ... : --- .. . P8F ...
ROW EB : ... .. 7 ... ... ... : ... .. 5 ... ... ... : ... .. . ... : ... .. 3 ... : ... .. . ... ... : ... .. . ... ... : ... .. . ... ... : ... .. . ... ...
ROW EC : ... .. 6 ... ... ... : ... .. . ... ... ... : ... .. . ... : ... .. 1 ... : ... .. . ... ... : ... .. . ... ... : ... .. . ... ... : ... .. . ... ...
ROW ED : ... .. 5 ... ... ... : ... .. . ... ... ... : ... .. . ... : ... .. . ... : ... .. . ... ... : ... .. . ... ... : ... .. . ... ... : ... .. . ... ...
ROW EE : ... .. 1 ... ... ... : ... .. 4 ... ... ... : ... .. . ... : ... .. . ... : ... .. . ... ... : ... .. . ... ... : ... .. . ... ... : ... .. . ... ...
ROW EF : ... .. . ... ... ... : ... .. 3 ... ... ... : --- .. . ... : ... .. 0 ... : ... .. . ... ... : ... .. . ... ... : ... .. . ... ... : ... .. . ... ...
ROW F0 : A#4 00 F ... V01 ... : G#4 00 6 ... ... ... : D-4 00 . ... : 1-# 00 F ... : ... .. . ... ... : D#4 01 9 P80 ... : G#4 01 9 P7F ... : C-5 01 A P81 ...
ROW F1 : ... .. E ... ... ... : ... .. 5 ... ... ... : E-3 00 . ... : ... .. C ... : ... .. . ... ... : ... .. 8 ... ... : ... .. 8 ... ... : ... .. 8 ... ...
ROW F2 : ... .. D ... ... ... : ... .. . ... ... ... : A-2 00 . ... : ... .. 6 ... : ... .. . ... ... : ... .. . ... ... : ... .. . ... ... : ... .. 5 ... ...
ROW F3 : ... .. A ... ... ... : ... .. . ... ... ... : G#2 00 . ... : ... .. 3 ... : ... .. . ... ... : --- .. . ... ... : --- .. . ... ... : --- .. . ... ...
ROW F4 : ... .. 2 ... ... ... : ... .. 4 ... ... ... : D#2 00 . ... : ... .. 2 ... : ... .. . ... ... : ... .. . ... ... : ... .. . ... ... : ... .. . ... ...
ROW F5 : ... .. . ... ... ... : ... .. 3 ... ... ... : ... .. . ... : ... .. 0 ... : ... .. . ... ... : ... .. . ... ... : ... .. . ... ... : ... .. . ... ...
ROW F6 : G#4 00 F ... ... ... : D#4 00 6 ... ... ... : ... .. . ... : ... .. F ... : ... .. . ... ... : C#4 01 9 ... ... : G#4 01 9 ... ... : A#4 01 A ... ...
ROW F7 : ... .. E ... ... ... : ... .. 5 ... ... ... : ... .. . ... : ... .. C ... : ... .. . ... ... : ... .. 8 ... ... : ... .. 8 ... ... : ... .. 8 ... ...
ROW F8 : ... .. D ... ... ... : ... .. . ... ... ... : ... .. . ... : ... .. 6 ... : ... .. . ... ... : ... .. . ... ... : ... .. . ... ... : ... .. 5 ... ...
ROW F9 : ... .. A ... ... ... : ... .. . ... ... ... : ... .. . ... : ... .. 3 ... : ... .. . ... ... : --- .. . ... ... : --- .. . ... ... : --- .. . ... ...
ROW FA : ... .. 2 ... ... ... : ... .. 4 ... ... ... : ... .. . ... : ... .. 2 ... : ... .. . ... ... : ... .. . ... ... : ... .. . ... ... : ... .. . ... ...
ROW FB : ... .. . ... ... ... : ... .. 3 ... ... ... : --- .. . ... : ... .. 0 ... : ... .. . ... ... : ... .. . ... ... : ... .. . ... ... : ... .. . ... ...
ROW FC : A#4 00 F ... ... ... : C-4 00 6 ... ... ... : D#3 00 . ... : ... .. . ... : ... .. . ... ... : D#4 01 9 ... ... : G#4 01 9 ... ... : C-5 01 A ... ...
ROW FD : ... .. E ... ... ... : ... .. 5 ... ... ... : ... .. . ... : D-# 00 F ... : ... .. . ... ... : ... .. 8 ... ... : ... .. 8 ... ... : ... .. 8 ... ...
ROW FE : ... .. D ... ... ... : ... .. . ... ... ... : ... .. . ... : ... .. 6 ... : ... .. . ... ... : ... .. . ... ... : ... .. . ... ... : ... .. 5 ... ...
ROW FF : ... .. A ... ... ... : ... .. . ... ... ... : ... .. . ... : ... .. . ... : ... .. . ... ... : ... .. . ... ... : ... .. . ... ... : ... .. . ... ...

PATTERN 07
ROW 00 : ... .. . ... ... ... : ... .. 4 ... ... ... : ... .. . ... : ... .. 0 ... : ... .. . ... ... : ... .. 7 ... ... : ... .. 7 ... ... : ... .. . ... ...
ROW 01 : ... .. . ... ... ... : ... .. 3 ... ... ... : --- .. . ... : ... .. F ... : ... .. . ... ... : ... .. . ... ... : ... .. . ... ... : ... .. . ... ...
ROW 02 : G#4 00 8 ... ... ... : G#4 00 6 ... ... ... : D#3 00 . ... : ... .. 6 ... : ... .. . ... ... : --- .. . ... ... : --- .. . ... ... : --- .. . ... ...
ROW 03 : ... .. 7 ... ... ... : ... .. 5 ... ... ... : ... .. . ... : ... .. . ... : ... .. . ... ... : ... .. . ... ... : ... .. . ... ... : ... .. . ... ...
ROW 04 : ... .. 6 ... ... ... : ... .. . ... ... ... : ... .. . ... : ... .. 0 ... : ... .. . ... ... : ... .. . ... ... : ... .. . ... ... : ... .. . ... ...
ROW 05 : ... .. 5 ... ... ... : ... .. . ... ... ... : ... .. . ... : ... .. F ... : ... .. . ... ... : ... .. . ... ... : ... .. . ... ... : ... .. . ... ...
ROW 06 : ... .. 1 ... ... ... : ... .. 4 ... ... ... : ... .. . ... : ... .. 6 ... : ... .. . ... ... : ... .. . ... ... : ... .. . ... ... : ... .. . ... ...
ROW 07 : ... .. . ... ... ... : ... .. 3 ... ... ... : --- .. . ... : ... .. . ... : ... .. . ... ... : ... .. . ... ... : ... .. . ... ... : ... .. . ... ...
ROW 08 : A#5 00 F ... V02 ... : D#4 00 6 ... ... ... : D-5 00 . ... : A-# 00 D ... : ... .. . ... ... : D#3 01 5 ... ... : G#3 01 5 ... ... : C-4 01 9 ... ...
ROW 09 : ... .. E ... ... ... : ... .. 5 ... ... ... : E-4 00 . ... : ... .. B ... : ... .. . ... ... : ... .. 4 ... ... : ... .. 4 ... ... : ... .. 7 ... ...
ROW 0A : ... .. D ... ... ... : ... .. . ... ... ... : A-3 00 . ... : ... .. . ... : ... .. . ... ... : ... .. . ... ... : ... .. . ... ... : ... .. 4 ... ...
ROW 0B : ... .. A ... ... ... : ... .. . ... ... ... : G#3 00 . ... : ... .. A ... : ... .. . ... ... : --- .. . P83 ... : --- .. . P81 ... : --- .. . ... ...
ROW 0C : ... .. 2 ... ... ... : ... .. 4 ... ... ... : D#3 00 . ... : ... .. 8 ... : ... .. . ... ... : ... .. . ... ... : ... .. . ... ... : ... .. . ... ...
ROW 0D : ... .. . ... ... ... : ... .. 3 ... ... ... : --- .. . ... : ... .. 7 ... : ... .. . ... ... : ... .. . ... ... : ... .. . ... ... : ... .. . ... ...
ROW 0E : G#5 00 F ... ... ... : C-4 00 6 ... ... ... : D-5 00 . ... : ... .. 6 ... : ... .. . ... ... : C#3 01 5 P80 ... : G#3 01 5 P7F ... : A#3 01 9 ... ...
ROW 0F : ... .. E ... ... ... : ... .. 5 ... ... ... : E-4 00 . ... : ... .. . ... : ... .. . ... ... : ... .. 4 ... ... : ... .. 4 ... ... : ... .. 7 ... ...
ROW 10 : ... .. D ... ... ... : ... .. . ... ... ... : A-3 00 . ... : ... .. 5 ... : ... .. . ... ... : ... .. . ... ... : ... .. . ... ... : ... .. 4 ... ...
ROW 11 : ... .. A ... ... ... : ... .. . ... ... ... : G#3 00 . ... : ... .. . ... : ... .. . ... ... : --- .. . P83 ... : --- .. . P81 ... : --- .. . P80 ...
ROW 12 : ... .. 2 ... ... ... : ... .. 4 ... ... ... : D#3 00 . ... : ... .. 4 ... : ... .. . ... ... : ... .. . ... ... : ... .. . ... ... : ... .. . ... ...
ROW 13 : ... .. . ... ... ... : ... .. 3 ... ... ... : --- .. . ... : ... .. . ... : ... .. . ... ... : ... .. . ... ... : ... .. . ... ... : ... .. . ... ...
ROW 14 : A#5 00 F ... ... ... : G#4 00 6 ... ... ... : C#3 00 . ... : 7-# 00 F ... : ... .. . ... ... : D#3 01 5 P80 ... : G#3 01 5 P7F ... : C-4 01 9 P81 ...
ROW 15 : ... .. E ... ... ... : ... .. 5 ... ... ... : ... .. . ... : ... .. C ... : ... .. . ... ... : ... .. 4 ... ... : ... .. 4 ... ... : ... .. 7 ... ...
ROW 16 : ... .. D ... ... ... : ... .. . ... ... ... : ... .. . ... : ... .. A ... : ... .. . ... ... : ... .. . ... ... : ... .. . ... ... : ... .. 4 ... ...
ROW 17 : ... .. A ... ... ... : ... .. . ... ... ... : ... .. . ... : ... .. 8 ... : ... .. . ... ... : ... .. . ... ... : ... .. . ... ... : ... .. . ... ...
ROW 18 : ... .. . ... ... ... : ... .. 4 ... ... ... : ... .. . ... : ... .. 7 ... : ... .. . ... ... : ... .. . ... ... : ... .. . ... ... : ... .. . ... ...
ROW 19 : ... .. . ... ... ... : ... .. 3 ... ... ... : --- .. . ... : ... .. 4 ... : ... .. . ... ... : ... .. . ... ... : ... .. . ... ... : ... .. . ... ...
ROW 1A : G#5 00 8 ... ... ... : D#4 00 6 ... ... ... : D#3 00 . ... : C-# 00 4 ... : ... .. . ... ... : --- .. . P83 ... : --- .. . P81 ... : --- .. . ... ...
ROW 1B : ... .. 7 ... ... ... : ... .. 5 ... ... ... : ... .. . ... : ... .. 3 ... : ... .. . ... ... : ... .. . ... ... : ... .. . ... ... : ... .. . ... ...
ROW 1C : ... .. 6 ... ... ... : ... .. . ... ... ... : ... .. . ... : ... .. 1 ... : ... .. . ... ... : ... .. . ... ... : ... .. . ... ... : ... .. . ... ...
ROW 1D : ... .. 5 ... ... ... : ... .. . ... ... ... : ... .. . ... : ... .. . ... : ... .. . ... ... : ... .. . ... ... : ... .. . ... ... : ... .. . ... ...
ROW 1E : ... .. 1 ... ... ... : ... .. 4 ... ... ... : ... .. . ... : ... .. . ... : ... .. . ... ... : ... .. . ... ... : ... .. . ... ... : ... .. . ... ...
ROW 1F : ... .. . ... ... ... : ... .. 3 ... ... ... : --- .. . ... : ... .. 0 ... : ... .. . ... ... : ... .. . ... ... : ... .. . ... ... : ... .. . ... ...
ROW 20 : D#5 00 F ... V01 ... : A#4 00 6 ... ... ... : D-4 00 . ... : 1-# 00 F ... : ... .. . ... ... : F#4 01 9 P80 ... : G#4 01 9 P7F ... : C#5 01 A ... ...
ROW 21 : ... .. E ... ... ... : ... .. 5 ... ... ... : E-3 00 . ... : ... .. C ... : ... .. . ... ... : ... .. 8 ... ... : ... .. 8 ... ... : ... .. 8 ... ...
ROW 22 : ... .. D ... ... ... : ... .. . ... ... ... : A-2 00 . ... : ... .. 6 ... : ... .. . ... ... : ... .. . ... ... : ... .. . ... ... : ... .. 5 ... ...
ROW 23 : ... .. A ... ... ... : ... .. . ... ... ... : G#2 00 . ... : ... .. 3 ... : ... .. . ... ... : --- .. . ... ... : --- .. . ... ... : --- .. . ... ...
ROW 24 : ... .. 2 ... ... ... : ... .. 4 ... ... ... : D#2 00 . ... : ... .. 2 ... : ... .. . ... ... : ... .. . ... ... : ... .. . ... ... : ... .. . ... ...
ROW 25 : ... .. . ... ... ... : ... .. 3 ... ... ... : --- .. . ... : ... .. 0 ... : ... .. . ... ... : ... .. . ... ... : ... .. . ... ... : ... .. . ... ...
ROW 26 : C#5 00 F ... ... ... : F#4 00 6 ... ... ... : D-4 00 . ... : ... .. F ... : ... .. . ... ... : F-4 01 9 ... ... : G#4 01 9 ... ... : C-5 01 A ... ...
ROW 27 : ... .. E ... ... ... : ... .. 5 ... ... ... : E-3 00 . ... : ... .. C ... : ... .. . ... ... : ... .. 8 ... ... : ... .. 8 ... ... : ... .. 8 ... ...
ROW 28 : ... .. D ... ... ... : ... .. . ... ... ... : A-2 00 . ... : ... .. 6 ... : ... .. . ... ... : ... .. . ... ... : ... .. . ... ... : ... .. 5 ... ...
ROW 29 : ... .. A ... ... ... : ... .. . ... ... ... : G#2 00 . ... : ... .. 3 ... : ... .. . ... ... : --- .. . ... ... : --- .. . ... ... : --- .. . ... ...
ROW 2A : ... .. 2 ... ... ... : ... .. 4 ... ... ... : D#2 00 . ... : ... .. 2 ... : ... .. . ... ... : ... .. . ... ... : ... .. . ... ... : ... .. . ... ...
ROW 2B : ... .. . ... ... ... : ... .. 3 ... ... ... : --- .. . ... : ... .. 0 ... : ... .. . ... ... : ... .. . ... ... : ... .. . ... ... : ... .. . ... ...
ROW 2C : D#5 00 F ... ... ... : C#4 00 6 ... ... ... : C#3 00 . ... : 7-# 00 F ... : ... .. . ... ... : F#4 01 9 ... ... : G#4 01 9 ... ... : C#5 01 A ... ...
ROW 2D : ... .. E ... ... ... : ... .. 5 ... ... ... : ... .. . ... : ... .. C ... : ... .. . ... ... : ... .. 8 ... ... : ... .. 8 ... ... : ... .. 8 ... ...
ROW 2E : ... .. D ... ... ... : ... .. . ... ... ... : ... .. . ... : ... .. A ... : ... .. . ... ... : ... .. . ... ... : ... .. . ... ... : ... .. 5 ... ...
ROW 2F : ... .. A ... ... ... : ... .. . ... ... ... : ... .. . ... : ... .. 8 ... : ... .. . ... ... : ... .. . ... ... : ... .. . ... ... : ... .. . ... ...
ROW 30 : ... .. . ... ... ... : ... .. 4 ... ... ... : ... .. . ... : ... .. 7 ... : ... .. . ... ... : ... .. 7 ... ... : ... .. 7 ... ... : ... .. . ... ...
ROW 31 : ... .. . ... ... ... : ... .. 3 ... ... ... : --- .. . ... : ... .. 4 ... : ... .. . ... ... : ... .. . ... ... : ... .. . ... ... : ... .. . ... ...
ROW 32 : C#5 00 6 ... ... ... : A#4 00 6 ... ... ... : D#3 00 . ... : 1-# 00 F ... : ... .. . ... ... : --- .. . ... ... : --- .. . ... ... : --- .. . ... ...
ROW 33 : ... .. 5 ... ... ... : ... .. 5 ... ... ... : ... .. . ... : ... .. C ... : ... .. . ... ... : ... .. . ... ... : ... .. . ... ... : ... .. . ... ...
ROW 34 : ... .. . ... ... ... : ... .. . ... ... ... : ... .. . ... : ... .. 6 ... : ... .. . ... ... : ... .. . ... ... : ... .. . ... ... : ... .. . ... ...
ROW 35 : ... .. 4 ... ... ... : ... .. . ... ... ... : ... .. . ... : ... .. 3 ... : ... .. . ... ... : ... .. . ... ... : ... .. . ... ... : ... .. . ... ...
ROW 36 : ... .. 1 ... ... ... : ... .. 4 ... ... ... : ... .. . ... : ... .. 2 ... : ... .. . ... ... : ... .. . ... ... : ... .. . ... ... : ... .. . ... ...
ROW 37 : ... .. . ... ... ... : ... .. 3 ... ... ... : --- .. . ... : ... .. 0 ... : ... .. . ... ... : ... .. . ... ... : ... .. . ... ... : ... .. . ... ...
ROW 38 : D#5 00 6 ... ... ... : F#4 00 6 ... ... ... : D-5 00 . ... : A-# 00 D ... : ... .. . ... ... : C#3 01 9 ... ... : C#4 01 9 ... ... : ... .. . ... ...
ROW 39 : ... .. 5 ... ... ... : ... .. 5 ... ... ... : E-4 00 . ... : ... .. B ... : ... .. . ... ... : ... .. 8 ... ... : ... .. 8 ... ... : ... .. . ... ...
ROW 3A : ... .. . ... ... ... : ... .. . ... ... ... : A-3 00 . ... : ... .. . ... : ... .. . ... ... : ... .. . ... ... : ... .. . ... ... : ... .. . ... ...
ROW 3B : ... .. 4 ... ... ... : ... .. . ... ... ... : G#3 00 . ... : ... .. A ... : ... .. . ... ... : D#3 01 6 ... ... : D#4 01 6 ... ... : ... .. . ... ...
ROW 3C : ... .. . ... ... ... : ... .. 4 ... ... ... : D#3 00 . ... : ... .. 8 ... : ... .. . ... ... : ... .. 5 ... ... : ... .. 5 ... ... : ... .. . ... ...
ROW 3D : ... .. . ... ... ... : ... .. 3 ... ... ... : --- .. . ... : ... .. 7 ... : ... .. . ... ... : ... .. . ... ... : ... .. . ... ... : ... .. . ... ...
ROW 3E : C#5 00 4 ... ... ... : C#4 00 6 ... ... ... : D-5 00 . ... : ... .. 6 ... : ... .. . ... ... : F-3 01 3 ... ... : F-4 01 3 ... ... : ... .. . ... ...
ROW 3F : ... .. 3 ... ... ... : ... .. 5 ... ... ... : E-4 00 . ... : ... .. . ... : ... .. . ... ... : ... .. . ... ... : ... .. . ... ... : ... .. . ... ...
ROW 40 : ... .. . ... ... ... : ... .. . ... ... ... : A-3 00 . ... : ... .. 5 ... : ... .. . ... ... : ... .. . ... ... : ... .. . ... ... : ... .. . ... ...
ROW 41 : ... .. 2 ... ... ... : ... .. . ... ... ... : G#3 00 . ... : ... .. . ... : ... .. . ... ... : F#3 01 4 ... ... : F#4 01 4 ... ... : ... .. . ... ...
ROW 42 : ... .. 1 ... ... ... : ... .. 4 ... ... ... : D#3 00 . ... : ... .. 4 ... : ... .. . ... ... : ... .. 3 ... ... : ... .. 3 ... ... : ... .. . ... ...
ROW 43 : ... .. . ... ... ... : ... .. 3 ... ... ... : --- .. . ... : ... .. . ... : ... .. . ... ... : ... .. . ... ... : ... .. . ... ... : ... .. . ... ...
ROW 44 : C#4 00 F ... ... ... : A#4 00 6 ... ... ... : C#3 00 . ... : 7-# 00 F ... : ... .. . ... ... : G#3 01 5 ... ... : G#4 01 5 ... ... : ... .. . ... ...
ROW 45 : ... .. E ... ... ... : ... .. 5 ... ... ... : ... .. . ... : ... .. C ... : ... .. . ... ... : ... .. 4 ... ... : ... .. 4 ... ... : ... .. . ... ...
ROW 46 : ... .. D ... ... ... : ... .. . ... ... ... : ... .. . ... : ... .. A ... : ... .. . ... ... : ... .. . ... ... : ... .. . ... ... : ... .. . ... ...
ROW 47 : D#4 00 F ... ... ... : ... .. . ... ... ... : ... .. . ... : ... .. 8 ... : ... .. . ... ... : A#3 01 6 ... ... : A#4 01 6 ... ... : ... .. . ... ...
ROW 48 : ... .. E ... ... ... : ... .. 4 ... ... ... : ... .. . ... : ... .. 7 ... : ... .. . ... ... : ... .. 5 ... ... : ... .. 5 ... ... : ... .. . ... ...
ROW 49 : ... .. D ... ... ... : ... .. 3 ... ... ... : --- .. . ... : ... .. 4 ... : ... .. . ... ... : ... .. . ... ... : ... .. . ... ... : ... .. . ... ...
ROW 4A : F-4 00 F ... ... ... : F#4 00 6 ... ... ... : D#3 00 . ... : ... .. D ... : ... .. . ... ... : B-3 01 7 ... ... : B-4 01 7 ... ... : ... .. . ... ...
ROW 4B : ... .. E ... ... ... : ... .. 5 ... ... ... : ... .. . ... : ... .. B ... : ... .. . ... ... : ... .. 6 ... ... : ... .. 6 ... ... : ... .. . ... ...
ROW 4C : ... .. D ... ... ... : ... .. . ... ... ... : ... .. . ... : ... .. . ... : ... .. . ... ... : ... .. . ... ... : ... .. . ... ... : ... .. . ... ...
ROW 4D : F#4 00 F ... ... ... : ... .. . ... ... ... : ... .. . ... : C-# 00 4 ... : ... .. . ... ... : C#4 01 7 ... ... : C#5 01 7 ... ... : ... .. . ... ...
ROW 4E : ... .. E ... ... ... : ... .. 4 ... ... ... : ... .. . ... : ... .. 3 ... : ... .. . ... ... : ... .. 6 ... ... : ... .. 6 ... ... : ... .. . ... ...
ROW 4F : ... .. D ... ... ... : ... .. 3 ... ... ... : ... .. . ... : ... .. 1 ... : ... .. . ... ... : ... .. . ... ... : ... .. . ... ... : ... .. . ... ...
ROW 50 : G#4 00 F ... ... ... : E-4 00 6 ... ... ... : D#4 00 . ... : 1-# 00 F ... : ... .. . ... ... : G#2 01 6 ... ... : E-4 01 6 ... ... : C#5 01 A P80 ...
ROW 51 : ... .. E ... ... ... : ... .. 5 ... ... ... : F-3 00 . ... : ... .. C ... : ... .. . ... ... : ... .. 5 ... ... : ... .. 5 ... ... : ... .. 8 ... ...
ROW 52 : ... .. D ... ... ... : ... .. . ... ... ... : A#2 00 . ... : ... .. 6 ... : ... .. . ... ... : ... .. . ... ... : ... .. . ... ... : ... .. 5 ... ...
ROW 53 : ... .. A ... ... ... : ... .. . ... ... ... : A-2 00 . ... : ... .. 3 ... : ... .. . ... ... : ... .. . ... ... : ... .. 4 ... ... : ... .. 4 ... ...
ROW 54 : ... .. . ... ... ... : ... .. 4 ... ... ... : E-2 00 . ... : ... .. 2 ... : ... .. . ... ... : ... .. 4 ... ... : ... .. . ... ... : ... .. . ... ...
ROW 55 : ... .. . ... ... ... : ... .. 3 ... ... ... : ... .. . ... : ... .. 0 ... : ... .. . ... ... : ... .. . ... ... : ... .. . ... ... : ... .. . ... ...
ROW 56 : ... .. . ... ... ... : D#4 00 6 ... ... ... : ... .. . ... : ... .. F ... : ... .. . ... ... : A#2 01 6 ... ... : ... .. . ... ... : ... .. . ... ...
ROW 57 : ... .. . ... ... ... : ... .. 5 ... ... ... : ... .. . ... : ... .. C ... : ... .. . ... ... : ... .. 5 ... ... : ... .. 3 ... ... : ... .. . ... ...
ROW 58 : ... .. . ... ... ... : ... .. . ... ... ... : ... .. . ... : ... .. 6 ... : ... .. . ... ... : ... .. . ... ... : ... .. . ... ... : ... .. . ... ...
ROW 59 : ... .. . ... ... ... : ... .. . ... ... ... : ... .. . ... : ... .. 3 ... : ... .. . ... ... : ... .. . ... ... : ... .. . ... ... : ... .. . ... ...
ROW 5A : ... .. . ... ... ... : ... .. 4 ... ... ... : ... .. . ... : ... .. 2 ... : ... .. . ... ... : ... .. 4 ... ... : ... .. . ... ... : ... .. . ... ...
ROW 5B : ... .. . ... ... ... : ... .. 3 ... ... ... : --- .. . ... : ... .. 0 ... : ... .. . ... ... : ... .. . ... ... : ... .. . ... ... : ... .. . ... ...
ROW 5C : ... .. . ... ... ... : A#3 00 6 ... ... ... : D#5 00 . ... : 7-# 00 F ... : ... .. . ... ... : B-2 01 6 ... ... : ... .. . ... ... : ... .. . ... ...
ROW 5D : G-4 00 A P7F ... ... : ... .. 5 ... ... ... : F-4 00 . ... : ... .. C ... : ... .. . ... ... : ... .. 5 ... ... : ... .. . ... ... : ... .. . ... ...
ROW 5E : F#4 00 A P7E ... ... : ... .. . ... ... ... : A#3 00 . ... : ... .. A ... : ... .. . ... ... : ... .. . ... ... : ... .. . ... ... : ... .. . ... ...
ROW 5F : F-4 00 A ... ... ... : ... .. . ... ... ... : A-3 00 . ... : ... .. 8 ... : ... .. . ... ... : ... .. . ... ... : ... .. . ... ... : ... .. . ... ...
ROW 60 : E-4 00 A P7F ... ... : ... .. 4 ... ... ... : E-3 00 . ... : ... .. 7 ... : ... .. . ... ... : ... .. 4 ... ... : ... .. . ... ... : ... .. . ... ...
ROW 61 : D#4 00 A P80 ... ... : ... .. 3 ... ... ... : --- .. . ... : ... .. 4 ... : ... .. . ... ... : ... .. . ... ... : ... .. . ... ... : ... .. . ... ...
ROW 62 : C#5 00 F ... ... ... : G#3 00 6 ... ... ... : E-2 00 . ... : C-# 00 4 ... : ... .. . ... ... : C#3 01 6 ... ... : ... .. . ... ... : ... .. . ... ...
ROW 63 : ... .. E ... ... ... : ... .. 5 ... ... ... : ... .. . ... : ... .. 3 ... : ... .. . ... ... : ... .. 5 ... ... : ... .. . ... ... : ... .. . ... ...
ROW 64 : ... .. D ... ... ... : ... .. . ... ... ... : ... .. . ... : ... .. 1 ... : ... .. . ... ... : ... .. . ... ... : ... .. . ... ... : ... .. . ... ...
ROW 65 : ... .. A ... ... ... : ... .. . ... ... ... : ... .. . ... : ... .. . ... : ... .. . ... ... : ... .. . ... ... : ... .. . ... ... : ... .. . ... ...
ROW 66 : D#5 00 A P7E ... ... : ... .. 4 ... ... ... : ... .. . ... : ... .. . ... : ... .. . ... ... : ... .. 4 ... ... : ... .. . ... ... : ... .. . ... ...
ROW 67 : ... .. . P80 ... ... : ... .. 3 ... ... ... : ... .. . ... : ... .. 0 ... : ... .. . ... ... : ... .. . ... ... : ... .. . ... ... : ... .. . ... ...
ROW 68 : ... .. . ... ... ... : E-3 00 6 ... ... ... : ... .. . ... : 1-# 00 F ... : ... .. . ... ... : A#2 01 6 ... ... : ... .. . ... ... : ... .. . ... ...
ROW 69 : ... .. . ... ... ... : ... .. 5 ... ... ... : ... .. . ... : ... .. C ... : ... .. . ... ... : ... .. 5 ... ... : ... .. . ... ... : ... .. . ... ...
ROW 6A : ... .. . ... ... ... : ... .. . ... ... ... : ... .. . ... : ... .. 6 ... : ... .. . ... ... : ... .. . ... ... : ... .. . ... ... : ... .. . ... ...
ROW 6B : ... .. . ... ... ... : ... .. . ... ... ... : ... .. . ... : ... .. 3 ... : ... .. . ... ... : ... .. . ... ... : ... .. 2 ... ... : ... .. 3 ... ...
ROW 6C : ... .. . ... ... ... : ... .. 4 ... ... ... : ... .. . ... : ... .. 2 ... : ... .. . ... ... : ... .. 4 ... ... : ... .. . ... ... : ... .. . ... ...
ROW 6D : ... .. . ... ... ... : ... .. 3 ... ... ... : --- .. . ... : ... .. 0 ... : ... .. . ... ... : ... .. . ... ... : ... .. . ... ... : ... .. . ... ...
ROW 6E : ... .. . ... ... ... : D#3 00 6 ... ... ... : E-2 00 . ... : ... .. F ... : ... .. . ... ... : B-2 01 6 ... ... : ... .. . ... ... : ... .. . ... ...
ROW 6F : ... .. . ... ... ... : ... .. 5 ... ... ... : ... .. . ... : ... .. C ... : ... .. . ... ... : ... .. 5 ... ... : ... .. . ... ... : ... .. . ... ...
ROW 70 : ... .. . ... ... ... : ... .. . ... ... ... : ... .. . ... : ... .. 6 ... : ... .. . ... ... : ... .. . ... ... : ... .. . ... ... : ... .. . ... ...
ROW 71 : ... .. . ... ... ... : ... .. . ... ... ... : ... .. . ... : ... .. 3 ... : ... .. . ... ... : ... .. . ... ... : ... .. . ... ... : ... .. . ... ...
ROW 72 : ... .. . ... ... ... : ... .. 4 ... ... ... : ... .. . ... : ... .. 2 ... : ... .. . ... ... : ... .. 4 ... ... : ... .. . ... ... : ... .. . ... ...
ROW 73 : ... .. . ... ... ... : ... .. 3 ... ... ... : --- .. . ... : ... .. 0 ... : ... .. . ... ... : ... .. . ... ... : ... .. . ... ... : ... .. . ... ...
ROW 74 : ... .. . P82 ... ... : B-2 00 6 ... ... ... : D#5 00 . ... : 7-# 00 F ... : ... .. . ... ... : C#3 01 6 ... ... : ... .. . ... ... : ... .. . ... ...
ROW 75 : E-5 00 A P7E ... ... : ... .. 5 ... ... ... : F-4 00 . ... : ... .. C ... : ... .. . ... ... : ... .. 5 ... ... : ... .. . ... ... : ... .. . ... ...
ROW 76 : ... .. . ... ... ... : ... .. . ... ... ... : A#3 00 . ... : ... .. A ... : ... .. . ... ... : ... .. . ... ... : ... .. . ... ... : ... .. . ... ...
ROW 77 : D#5 00 A P81 ... ... : ... .. . ... ... ... : A-3 00 . ... : ... .. 8 ... : ... .. . ... ... : ... .. . ... ... : ... .. . ... ... : ... .. . ... ...
ROW 78 : ... .. . P7F ... ... : ... .. 4 ... ... ... : E-3 00 . ... : ... .. 7 ... : ... .. . ... ... : ... .. 4 ... ... : ... .. . ... ... : ... .. . ... ...
ROW 79 : D-5 00 A P82 ... ... : ... .. 3 ... ... ... : ... .. . ... : ... .. 4 ... : ... .. . ... ... : ... .. . ... ... : ... .. . ... ... : ... .. . ... ...
ROW 7A : ... .. . ... ... ... : A#2 00 6 ... ... ... : ... .. . ... : C-# 00 4 ... : ... .. . ... ... : D#3 01 6 ... ... : ... .. . ... ... : ... .. . ... ...
ROW 7B : D#5 00 A P7E ... ... : ... .. 5 ... ... ... : ... .. . ... : ... .. 3 ... : ... .. . ... ... : ... .. 5 ... ... : ... .. . ... ... : ... .. . ... ...
ROW 7C : ... .. . P80 ... ... : ... .. . ... ... ... : ... .. . ... : ... .. 1 ... : ... .. . ... ... : ... .. . ... ... : ... .. . ... ... : ... .. . ... ...
ROW 7D : ... .. . P82 ... ... : ... .. . ... ... ... : ... .. . ... : ... .. . ... : ... .. . ... ... : ... .. . ... ... : ... .. . ... ... : ... .. . ... ...
ROW 7E : E-5 00 A P7E ... ... : ... .. 4 ... ... ... : ... .. . ... : ... .. . ... : ... .. . ... ... : ... .. 4 ... ... : ... .. . ... ... : ... .. . ... ...
ROW 7F : ... .. . ... ... ... : ... .. 3 ... ... ... : --- .. . ... : ... .. 0 ... : ... .. . ... ... : ... .. . ... ... : ... .. . ... ... : ... .. . ... ...
ROW 80 : D#5 00 A P81 ... ... : E-4 00 6 ... ... ... : D#4 00 . ... : 1-# 00 F ... : ... .. . ... ... : E-3 01 6 ... ... : C#4 01 6 ... ... : D#4 01 6 ... ...
ROW 81 : ... .. . P80 ... ... : ... .. 5 ... ... ... : F-3 00 . ... : ... .. C ... : ... .. . ... ... : ... .. 5 ... ... : ... .. 5 ... ... : ... .. 5 ... ...
ROW 82 : D-5 00 A P82 ... ... : ... .. . ... ... ... : A#2 00 . ... : ... .. 6 ... : ... .. . ... ... : ... .. . ... ... : ... .. . ... ... : ... .. 3 ... ...
ROW 83 : ... .. . ... ... ... : ... .. . ... ... ... : A-2 00 . ... : ... .. 3 ... : ... .. . ... ... : ... .. . ... ... : ... .. 3 ... ... : ... .. . ... ...
ROW 84 : D#5 00 A P7E ... ... : ... .. 4 ... ... ... : E-2 00 . ... : ... .. 2 ... : ... .. . ... ... : ... .. 4 ... ... : ... .. 2 ... ... : ... .. . ... ...
ROW 85 : ... .. . P80 ... ... : ... .. 3 ... ... ... : ... .. . ... : ... .. 0 ... : ... .. . ... ... : ... .. . ... ... : ... .. . ... ... : ... .. . ... ...
ROW 86 : C#5 00 F ... ... ... : D#4 00 6 ... ... ... : ... .. . ... : ... .. F ... : ... .. . ... ... : F#3 01 6 ... ... : ... .. . ... ... : ... .. . ... ...
ROW 87 : ... .. E ... ... ... : ... .. 5 ... ... ... : ... .. . ... : ... .. C ... : ... .. . ... ... : ... .. 5 ... ... : ... .. . ... ... : ... .. . ... ...
ROW 88 : ... .. D ... ... ... : ... .. . ... ... ... : ... .. . ... : ... .. 6 ... : ... .. . ... ... : ... .. . ... ... : ... .. . ... ... : ... .. . ... ...
ROW 89 : ... .. A ... ... ... : ... .. . ... ... ... : ... .. . ... : ... .. 3 ... : ... .. . ... ... : ... .. . ... ... : ... .. . ... ... : ... .. . ... ...
ROW 8A : ... .. 2 ... ... ... : ... .. 4 ... ... ... : ... .. . ... : ... .. 2 ... : ... .. . ... ... : ... .. 4 ... ... : ... .. . ... ... : ... .. . ... ...
ROW 8B : ... .. . ... ... ... : ... .. 3 ... ... ... : --- .. . ... : ... .. 0 ... : ... .. . ... ... : ... .. . ... ... : ... .. . ... ... : ... .. . ... ...
ROW 8C : B-4 00 F ... ... ... : A#3 00 6 ... ... ... : D#5 00 . ... : 7-# 00 F ... : ... .. . ... ... : G#3 01 6 ... ... : D#4 01 6 ... ... : ... .. . ... ...
ROW 8D : ... .. E ... ... ... : ... .. 5 ... ... ... : F-4 00 . ... : ... .. C ... : ... .. . ... ... : ... .. 5 ... ... : ... .. 5 ... ... : ... .. . ... ...
ROW 8E : ... .. D ... ... ... : ... .. . ... ... ... : A#3 00 . ... : ... .. A ... : ... .. . ... ... : ... .. . ... ... : ... .. . ... ... : ... .. . ... ...
ROW 8F : ... .. A ... ... ... : ... .. . ... ... ... : A-3 00 . ... : ... .. 8 ... : ... .. . ... ... : ... .. . ... ... : ... .. 3 ... ... : ... .. . ... ...
ROW 90 : ... .. . ... ... ... : ... .. 4 ... ... ... : E-3 00 . ... : ... .. 7 ... : ... .. . ... ... : ... .. 4 ... ... : ... .. . ... ... : ... .. . ... ...
ROW 91 : ... .. . ... ... ... : ... .. 3 ... ... ... : --- .. . ... : ... .. 4 ... : ... .. . ... ... : ... .. . ... ... : ... .. . ... ... : ... .. . ... ...
ROW 92 : A#4 00 F ... ... ... : G#3 00 6 ... ... ... : E-2 00 . ... : 1-# 00 F ... : ... .. . ... ... : A#3 01 6 ... ... : ... .. . ... ... : ... .. . ... ...
ROW 93 : ... .. E ... ... ... : ... .. 5 ... ... ... : ... .. . ... : ... .. C ... : ... .. . ... ... : ... .. 5 ... ... : ... .. 2 ... ... : ... .. . ... ...
ROW 94 : ... .. D ... ... ... : ... .. . ... ... ... : ... .. . ... : ... .. 6 ... : ... .. . ... ... : ... .. . ... ... : ... .. . ... ... : ... .. . ... ...
ROW 95 : ... .. A ... ... ... : ... .. . ... ... ... : ... .. . ... : ... .. 3 ... : ... .. . ... ... : ... .. . ... ... : ... .. . ... ... : ... .. . ... ...
ROW 96 : ... .. 2 ... ... ... : ... .. 4 ... ... ... : ... .. . ... : ... .. 2 ... : ... .. . ... ... : ... .. 4 ... ... : ... .. . ... ... : ... .. . ... ...
ROW 97 : ... .. . ... ... ... : ... .. 3 ... ... ... : ... .. . ... : ... .. 0 ... : ... .. . ... ... : ... .. . ... ... : ... .. . ... ... : ... .. . ... ...
ROW 98 : C#5 00 F ... ... ... : E-3 00 6 ... ... ... : ... .. . ... : C-# 00 4 ... : ... .. . ... ... : B-3 01 6 ... ... : E-4 01 6 ... ... : ... .. 4 ... ...
ROW 99 : ... .. E ... ... ... : ... .. 5 ... ... ... : ... .. . ... : ... .. 3 ... : ... .. . ... ... : ... .. 5 ... ... : ... .. 5 ... ... : ... .. . ... ...
ROW 9A : ... .. D ... ... ... : ... .. . ... ... ... : ... .. . ... : ... .. 1 ... : ... .. . ... ... : ... .. . ... ... : ... .. . ... ... : ... .. . ... ...
ROW 9B : ... .. A ... ... ... : ... .. . ... ... ... : ... .. . ... : ... .. . ... : ... .. . ... ... : ... .. . ... ... : ... .. 4 ... ... : ... .. . ... ...
ROW 9C : ... .. . ... ... ... : ... .. 4 ... ... ... : ... .. . ... : ... .. . ... : ... .. . ... ... : ... .. 4 ... ... : ... .. 3 ... ... : ... .. . ... ...
ROW 9D : ... .. . ... ... ... : ... .. 3 ... ... ... : --- .. . ... : ... .. 0 ... : ... .. . ... ... : ... .. . ... ... : ... .. . ... ... : ... .. . ... ...
ROW 9E : G#4 00 F ... ... ... : D#3 00 6 ... ... ... : E-2 00 . ... : 1-# 00 F ... : ... .. . ... ... : C#4 01 6 ... ... : ... .. . ... ... : ... .. . ... ...
ROW 9F : ... .. E ... ... ... : ... .. 5 ... ... ... : ... .. . ... : ... .. C ... : ... .. . ... ... : ... .. 5 ... ... : ... .. . ... ... : ... .. . ... ...
ROW A0 : ... .. D ... ... ... : ... .. . ... ... ... : ... .. . ... : ... .. 6 ... : ... .. . ... ... : ... .. . ... ... : ... .. . ... ... : ... .. . ... ...
ROW A1 : ... .. A ... ... ... : ... .. . ... ... ... : ... .. . ... : ... .. 3 ... : ... .. . ... ... : ... .. . ... ... : ... .. . ... ... : ... .. . ... ...
ROW A2 : ... .. . ... ... ... : ... .. 4 ... ... ... : ... .. . ... : ... .. 2 ... : ... .. . ... ... : ... .. 4 ... ... : ... .. . ... ... : ... .. . ... ...
ROW A3 : ... .. . ... ... ... : ... .. 3 ... ... ... : --- .. . ... : ... .. 0 ... : ... .. . ... ... : ... .. . ... ... : ... .. . ... ... : ... .. . ... ...
ROW A4 : F#4 00 F ... ... ... : B-2 00 6 ... ... ... : D#5 00 . ... : 7-# 00 F ... : ... .. . ... ... : D#4 01 6 ... ... : G#4 01 6 ... ... : ... .. . ... ...
ROW A5 : ... .. E ... ... ... : ... .. 5 ... ... ... : F-4 00 . ... : ... .. C ... : ... .. . ... ... : ... .. 5 ... ... : ... .. 5 ... ... : ... .. . ... ...
ROW A6 : ... .. D ... ... ... : ... .. . ... ... ... : A#3 00 . ... : ... .. A ... : ... .. . ... ... : ... .. . ... ... : ... .. . ... ... : ... .. . ... ...
ROW A7 : ... .. A ... ... ... : ... .. . ... ... ... : A-3 00 . ... : ... .. 8 ... : ... .. . ... ... : ... .. . ... ... : ... .. 4 ... ... : ... .. . ... ...
ROW A8 : ... .. 2 ... ... ... : ... .. 4 ... ... ... : E-3 00 . ... : ... .. 7 ... : ... .. . ... ... : ... .. 4 ... ... : ... .. . ... ... : ... .. . ... ...
ROW A9 : ... .. . ... ... ... : ... .. 3 ... ... ... : ... .. . ... : ... .. 4 ... : ... .. . ... ... : ... .. . ... ... : ... .. . ... ... : ... .. . ... ...
ROW AA : E-4 00 F ... ... ... : A#2 00 6 ... ... ... : ... .. . ... : C-# 00 4 ... : ... .. . ... ... : E-4 01 6 ... ... : ... .. . ... ... : ... .. . ... ...
ROW AB : ... .. E ... ... ... : ... .. 5 ... ... ... : ... .. . ... : ... .. 3 ... : ... .. . ... ... : ... .. 5 ... ... : ... .. 3 ... ... : ... .. . ... ...
ROW AC : ... .. D ... ... ... : ... .. . ... ... ... : ... .. . ... : ... .. 1 ... : ... .. . ... ... : ... .. . ... ... : ... .. . ... ... : ... .. . ... ...
ROW AD : ... .. A ... ... ... : ... .. . ... ... ... : ... .. . ... : ... .. . ... : ... .. . ... ... : ... .. . ... ... : ... .. 4 ... ... : ... .. 5 ... ...
ROW AE : ... .. 2 ... ... ... : ... .. 4 ... ... ... : ... .. . ... : ... .. . ... : ... .. . ... ... : ... .. 4 ... ... : ... .. . ... ... : ... .. . ... ...
ROW AF : ... .. . ... ... ... : ... .. 3 ... ... ... : --- .. . ... : ... .. 0 ... : ... .. . ... ... : ... .. . ... ... : ... .. . ... ... : ... .. . ... ...
ROW B0 : D#4 00 F ... ... ... : B-3 00 6 ... ... ... : G#4 00 . ... : 1-# 00 F ... : ... .. . ... ... : C#4 01 6 ... ... : ... .. 6 ... ... : C#5 01 A ... ...
ROW B1 : ... .. E ... ... ... : ... .. 5 ... ... ... : A#3 00 . ... : ... .. C ... : ... .. . ... ... : ... .. 5 ... ... : ... .. 5 ... ... : ... .. 8 ... ...
ROW B2 : ... .. D ... ... ... : ... .. . ... ... ... : D#3 00 . ... : ... .. 6 ... : ... .. . ... ... : ... .. . ... ... : ... .. . ... ... : ... .. 5 ... ...
ROW B3 : ... .. A ... ... ... : ... .. . ... ... ... : D-3 00 . ... : ... .. 3 ... : ... .. . ... ... : ... .. . ... ... : ... .. . ... ... : ... .. . ... ...
ROW B4 : ... .. . ... ... ... : ... .. 4 ... ... ... : A-2 00 . ... : ... .. 2 ... : ... .. . ... ... : ... .. 4 ... ... : ... .. 4 ... ... : ... .. . ... ...
ROW B5 : ... .. . ... ... ... : ... .. 3 ... ... ... : ... .. . ... : ... .. 0 ... : ... .. . ... ... : ... .. . ... ... : ... .. . ... ... : ... .. . ... ...
ROW B6 : E-4 00 F ... ... ... : G#3 00 6 ... ... ... : ... .. . ... : ... .. F ... : ... .. . ... ... : D#4 01 6 ... ... : ... .. 5 ... ... : ... .. . ... ...
ROW B7 : ... .. E ... ... ... : ... .. 5 ... ... ... : ... .. . ... : ... .. C ... : ... .. . ... ... : ... .. 5 ... ... : ... .. 4 ... ... : ... .. . ... ...
ROW B8 : ... .. D ... ... ... : ... .. . ... ... ... : ... .. . ... : ... .. 6 ... : ... .. . ... ... : ... .. . ... ... : ... .. . ... ... : ... .. . ... ...
ROW B9 : ... .. A ... ... ... : ... .. . ... ... ... : ... .. . ... : ... .. 3 ... : ... .. . ... ... : ... .. . ... ... : ... .. . ... ... : ... .. . ... ...
ROW BA : ... .. 2 ... ... ... : ... .. 4 ... ... ... : ... .. . ... : ... .. 2 ... : ... .. . ... ... : ... .. 4 ... ... : ... .. . ... ... : ... .. . ... ...
ROW BB : ... .. . ... ... ... : ... .. 3 ... ... ... : --- .. . ... : ... .. 0 ... : ... .. . ... ... : ... .. . ... ... : ... .. . ... ... : ... .. . ... ...
ROW BC : D#4 00 F ... ... ... : E-3 00 6 ... ... ... : C-6 00 . ... : 7-# 00 F ... : ... .. . ... ... : E-4 01 6 ... ... : ... .. . ... ... : ... .. . ... ...
ROW BD : ... .. E ... ... ... : ... .. 5 ... ... ... : D-5 00 . ... : ... .. C ... : ... .. . ... ... : ... .. 5 ... ... : ... .. . ... ... : ... .. . ... ...
ROW BE : ... .. D ... ... ... : ... .. . ... ... ... : G-4 00 . ... : ... .. A ... : ... .. . ... ... : ... .. . ... ... : ... .. . ... ... : ... .. . ... ...
ROW BF : ... .. A ... ... ... : ... .. . ... ... ... : F#4 00 . ... : ... .. 8 ... : ... .. . ... ... : ... .. . ... ... : ... .. . P83 ... : D-5 01 5 P7E ...
ROW C0 : ... .. 2 ... ... ... : ... .. 4 ... ... ... : C#4 00 . ... : ... .. 7 ... : ... .. . ... ... : ... .. 4 ... ... : A-4 01 4 P7D ... : ... .. . P80 ...
ROW C1 : ... .. . ... ... ... : ... .. 3 ... ... ... : --- .. . ... : ... .. 4 ... : ... .. . ... ... : ... .. . ... ... : G#4 01 4 P84 ... : ... .. . P7F ...
ROW C2 : C#4 00 F ... ... ... : D#4 00 6 ... ... ... : A-2 00 . ... : C-# 00 4 ... : ... .. . ... ... : F#4 01 6 ... ... : ... .. . P81 ... : C#5 01 6 P82 ...
ROW C3 : ... .. E ... ... ... : ... .. 5 ... ... ... : ... .. . ... : ... .. 3 ... : ... .. . ... ... : ... .. 5 ... ... : ... .. . P7D ... : ... .. . P7E ...
ROW C4 : ... .. D ... ... ... : ... .. . ... ... ... : ... .. . ... : ... .. 1 ... : ... .. . ... ... : ... .. . ... ... : G-4 01 4 P82 ... : C-5 01 6 P82 ...
ROW C5 : ... .. A ... ... ... : ... .. . ... ... ... : ... .. . ... : ... .. . ... : ... .. . ... ... : ... .. . ... ... : ... .. . P81 ... : ... .. . P81 ...
ROW C6 : ... .. . ... ... ... : ... .. 4 ... ... ... : ... .. . ... : ... .. . ... : ... .. . ... ... : ... .. 4 ... ... : ... .. . P83 ... : ... .. . P83 ...
ROW C7 : ... .. . ... ... ... : ... .. 3 ... ... ... : ... .. . ... : ... .. 0 ... : ... .. . ... ... : ... .. . ... ... : G#4 01 4 P7F ... : C#5 01 6 P80 ...
ROW C8 : ... .. . ... ... ... : B-3 00 6 ... ... ... : ... .. . ... : 1-# 00 F ... : ... .. . ... ... : E-4 01 6 ... ... : ... .. . P82 ... : ... .. . P83 ...
ROW C9 : ... .. . ... ... ... : ... .. 5 ... ... ... : ... .. . ... : ... .. C ... : ... .. . ... ... : ... .. 5 ... ... : A-4 01 4 P7D ... : D-5 01 6 P80 ...
ROW CA : ... .. . ... ... ... : ... .. . ... ... ... : ... .. . ... : ... .. 6 ... : ... .. . ... ... : ... .. . ... ... : ... .. . ... ... : ... .. . ... ...
ROW CB : ... .. . ... ... ... : ... .. . ... ... ... : ... .. . ... : ... .. 3 ... : ... .. . ... ... : ... .. . ... ... : G#4 01 5 P81 ... : C#5 01 6 P82 ...
ROW CC : ... .. . ... ... ... : ... .. 4 ... ... ... : ... .. . ... : ... .. 2 ... : ... .. . ... ... : ... .. 4 ... ... : ... .. . P7E ... : ... .. . P7F ...
ROW CD : ... .. . ... ... ... : ... .. 3 ... ... ... : --- .. . ... : ... .. 0 ... : ... .. . ... ... : ... .. . ... ... : G-4 01 5 P82 ... : C-5 01 6 P82 ...
ROW CE : ... .. . P84 ... ... : G#3 00 6 ... ... ... : A-2 00 . ... : ... .. F ... : ... .. . ... ... : F#4 01 6 ... ... : ... .. . P81 ... : ... .. . P81 ...
ROW CF : ... .. . P86 ... ... : ... .. 5 ... ... ... : ... .. . ... : ... .. C ... : ... .. . ... ... : ... .. 5 ... ... : ... .. . P83 ... : ... .. . P83 ...
ROW D0 : ... .. . P85 ... ... : ... .. . ... ... ... : ... .. . ... : ... .. 6 ... : ... .. . ... ... : ... .. . ... ... : G#4 01 5 P7F ... : C#5 01 6 P80 ...
ROW D1 : ... .. . P82 ... ... : ... .. . ... ... ... : ... .. . ... : ... .. 3 ... : ... .. . ... ... : ... .. . ... ... : ... .. . P82 ... : ... .. . P83 ...
ROW D2 : ... .. . P7E ... ... : ... .. 4 ... ... ... : ... .. . ... : ... .. 2 ... : ... .. . ... ... : ... .. 4 ... ... : A-4 01 5 P7D ... : D-5 01 6 P80 ...
ROW D3 : ... .. . P7B ... ... : ... .. 3 ... ... ... : --- .. . ... : ... .. 0 ... : ... .. . ... ... : ... .. . ... ... : ... .. . ... ... : ... .. . ... ...
ROW D4 : C-4 00 A P86 ... ... : E-4 00 6 ... ... ... : C-6 00 . ... : 7-# 00 F ... : ... .. . ... ... : G#4 01 6 ... ... : G#4 01 5 P82 ... : C#5 01 6 P83 ...
ROW D5 : C#4 00 A P7C ... ... : ... .. 5 ... ... ... : D-5 00 . ... : ... .. C ... : ... .. . ... ... : ... .. 5 ... ... : ... .. . P7F ... : ... .. . P80 ...
ROW D6 : ... .. . P80 ... ... : ... .. . ... ... ... : G-4 00 . ... : ... .. A ... : ... .. . ... ... : ... .. . ... ... : G-4 01 5 P83 ... : C-5 01 6 P83 ...
ROW D7 : ... .. . P83 ... ... : ... .. . ... ... ... : F#4 00 . ... : ... .. 8 ... : ... .. . ... ... : ... .. . ... ... : ... .. . P81 ... : ... .. 7 P81 ...
ROW D8 : ... .. . P86 ... ... : ... .. 4 ... ... ... : C#4 00 . ... : ... .. 7 ... : ... .. . ... ... : ... .. 4 ... ... : ... .. . P82 ... : ... .. . P82 ...
ROW D9 : ... .. . ... ... ... : ... .. 3 ... ... ... : ... .. . ... : ... .. 4 ... : ... .. . ... ... : ... .. . ... ... : G#4 01 5 P7E ... : C#5 01 7 P7F ...
ROW DA : ... .. . P82 ... ... : C#4 00 6 ... ... ... : ... .. . ... : C-# 00 4 ... : ... .. . ... ... : A-4 01 6 ... ... : ... .. . P81 ... : ... .. . P82 ...
ROW DB : ... .. 2 P7F ... ... : ... .. 5 ... ... ... : ... .. . ... : ... .. 3 ... : ... .. . ... ... : ... .. 5 ... ... : A-4 01 5 P7D ... : D-5 01 7 P80 ...
ROW DC : ... .. . P7B ... ... : ... .. . ... ... ... : ... .. . ... : ... .. 1 ... : ... .. . ... ... : ... .. . ... ... : ... .. . ... ... : ... .. . ... ...
ROW DD : C-4 00 2 P86 ... ... : ... .. . ... ... ... : ... .. . ... : ... .. . ... : ... .. . ... ... : ... .. . ... ... : G#4 01 5 P82 ... : C#5 01 7 P83 ...
ROW DE : C#4 00 1 P7C ... ... : ... .. 4 ... ... ... : ... .. . ... : ... .. . ... : ... .. . ... ... : ... .. 4 ... ... : ... .. . P7F ... : ... .. . P80 ...
ROW DF : ... .. . P80 ... ... : ... .. 3 ... ... ... : --- .. . ... : ... .. 0 ... : ... .. . ... ... : ... .. . ... ... : G-4 01 5 P83 ... : C-5 01 7 P83 ...
ROW E0 : B-3 00 F ... ... ... : G#3 00 6 ... ... ... : G#4 00 . ... : 1-# 00 F ... : ... .. . ... ... : F#4 01 6 ... ... : D#4 01 A P7F V03 : A-4 01 F P80 ...
ROW E1 : ... .. E ... ... ... : ... .. 5 ... ... ... : A#3 00 . ... : ... .. C ... : ... .. . ... ... : ... .. 5 ... ... : ... .. 9 ... ... : ... .. D ... ...
ROW E2 : ... .. D ... ... ... : ... .. . ... ... ... : D#3 00 . ... : ... .. 6 ... : ... .. . ... ... : ... .. . ... ... : ... .. 8 ... ... : ... .. 8 ... ...
ROW E3 : ... .. A ... ... ... : ... .. . ... ... ... : D-3 00 . ... : ... .. 3 ... : ... .. . ... ... : ... .. . ... ... : ... .. 6 ... ... : G#4 01 F ... ...
ROW E4 : ... .. . ... ... ... : ... .. 4 ... ... ... : A-2 00 . ... : ... .. 2 ... : ... .. . ... ... : ... .. 4 ... ... : ... .. . ... ... : ... .. D ... ...
ROW E5 : ... .. . ... ... ... : ... .. 3 ... ... ... : ... .. . ... : ... .. 0 ... : ... .. . ... ... : ... .. . ... ... : ... .. 5 ... ... : ... .. 8 ... ...
ROW E6 : C#4 00 F ... ... ... : G#4 00 6 ... ... ... : ... .. . ... : ... .. F ... : ... .. . ... ... : G#4 01 6 ... ... : ... .. 4 ... ... : F#4 01 B ... ...
ROW E7 : ... .. E ... ... ... : ... .. 5 ... ... ... : ... .. . ... : ... .. C ... : ... .. . ... ... : ... .. 5 ... ... : ... .. 3 ... ... : ... .. 9 ... ...
ROW E8 : ... .. D ... ... ... : ... .. . ... ... ... : ... .. . ... : ... .. 6 ... : ... .. . ... ... : ... .. . ... ... : ... .. . ... ... : ... .. 5 ... ...
ROW E9 : ... .. A ... ... ... : ... .. . ... ... ... : ... .. . ... : ... .. 3 ... : ... .. . ... ... : ... .. . ... ... : ... .. . ... ... : E-4 01 9 ... ...
ROW EA : ... .. 2 ... ... ... : ... .. 4 ... ... ... : ... .. . ... : ... .. 2 ... : ... .. . ... ... : ... .. 4 ... ... : ... .. . ... ... : ... .. 7 ... ...
ROW EB : ... .. . ... ... ... : ... .. 3 ... ... ... : --- .. . ... : ... .. 0 ... : ... .. . ... ... : ... .. . ... ... : ... .. . ... ... : ... .. 4 ... ...
ROW EC : B-3 00 F ... ... ... : E-4 00 6 ... ... ... : C-6 00 . ... : 7-# 00 F ... : ... .. . ... ... : A-4 01 6 ... ... : ... .. 2 ... ... : D#4 01 7 ... ...
ROW ED : ... .. E ... ... ... : ... .. 5 ... ... ... : D-5 00 . ... : ... .. C ... : ... .. . ... ... : ... .. 5 ... ... : ... .. . ... ... : ... .. 6 ... ...
ROW EE : ... .. D ... ... ... : ... .. . ... ... ... : G-4 00 . ... : ... .. A ... : ... .. . ... ... : ... .. . ... ... : ... .. . ... ... : ... .. 3 ... ...
ROW EF : ... .. A ... ... ... : ... .. . ... ... ... : F#4 00 . ... : ... .. 8 ... : ... .. . ... ... : ... .. . ... ... : ... .. 1 ... ... : E-4 01 5 ... ...
ROW F0 : ... .. 2 ... ... ... : ... .. 4 ... ... ... : C#4 00 . ... : ... .. 7 ... : ... .. . ... ... : ... .. 4 ... ... : ... .. . ... ... : ... .. 4 ... ...
ROW F1 : ... .. . ... ... ... : ... .. 3 ... ... ... : --- .. . ... : ... .. 4 ... : ... .. . ... ... : ... .. . ... ... : ... .. . ... ... : ... .. 2 ... ...
ROW F2 : A-3 00 F ... ... ... : C#4 00 6 ... ... ... : A-2 00 . ... : 1-# 00 F ... : ... .. . ... ... : B-4 01 6 ... ... : ... .. . ... ... : F#4 01 4 ... ...
ROW F3 : ... .. E ... ... ... : ... .. 5 ... ... ... : ... .. . ... : ... .. C ... : ... .. . ... ... : ... .. 5 ... ... : ... .. . ... ... : ... .. 3 ... ...
ROW F4 : ... .. D ... ... ... : ... .. . ... ... ... : ... .. . ... : ... .. 6 ... : ... .. . ... ... : ... .. . ... ... : ... .. . ... ... : ... .. 2 ... ...
ROW F5 : ... .. A ... ... ... : ... .. . ... ... ... : ... .. . ... : ... .. 3 ... : ... .. . ... ... : ... .. . ... ... : ... .. . ... ... : G#4 01 5 ... ...
ROW F6 : ... .. . ... ... ... : ... .. 4 ... ... ... : ... .. . ... : ... .. 2 ... : ... .. . ... ... : ... .. 4 ... ... : ... .. . ... ... : ... .. 4 ... ...
ROW F7 : ... .. . ... ... ... : ... .. 3 ... ... ... : ... .. . ... : ... .. 0 ... : ... .. . ... ... : ... .. . ... ... : ... .. . ... ... : ... .. 2 ... ...
ROW F8 : ... .. . ... ... ... : B-4 00 6 ... ... ... : ... .. . ... : C-# 00 4 ... : ... .. . ... ... : C#5 01 6 ... ... : ... .. 2 ... ... : A#4 01 6 ... ...
ROW F9 : ... .. . ... ... ... : ... .. 5 ... ... ... : ... .. . ... : ... .. 3 ... : ... .. . ... ... : ... .. 5 ... ... : ... .. . ... ... : ... .. 5 ... ...
ROW FA : ... .. . ... ... ... : ... .. . ... ... ... : ... .. . ... : ... .. 1 ... : ... .. . ... ... : ... .. . ... ... : ... .. . ... ... : ... .. 3 ... ...
ROW FB : ... .. . ... ... ... : ... .. . ... ... ... : ... .. . ... : ... .. . ... : ... .. . ... ... : ... .. . ... ... : ... .. . ... ... : B-4 01 7 ... ...
ROW FC : ... .. . ... ... ... : ... .. 4 ... ... ... : ... .. . ... : ... .. . ... : ... .. . ... ... : ... .. 4 ... ... : ... .. . ... ... : ... .. 6 ... ...
ROW FD : ... .. . ... ... ... : ... .. 3 ... ... ... : --- .. . ... : ... .. 0 ... : ... .. . ... ... : ... .. . ... ... : ... .. . ... ... : ... .. 3 ... ...
ROW FE : ... .. . ... ... ... : G#4 00 6 ... ... ... : C#3 00 . ... : 1-# 00 F ... : ... .. . ... ... : D#5 01 6 ... ... : ... .. . ... ... : C#5 01 8 ... ...
ROW FF : ... .. . ... ... ... : ... .. 5 ... ... ... : ... .. . ... : ... .. C ... : ... .. . ... ... : ... .. 5 ... ... : ... .. . ... ... : ... .. 6 ... ...

PATTERN 08
ROW 00 : ... .. . ... ... ... : ... .. . ... ... ... : ... .. . ... : ... .. 6 ... : ... .. . ... ... : ... .. . ... ... : ... .. . ... ... : ... .. 4 ... ...
ROW 01 : ... .. . P84 ... ... : ... .. . ... ... ... : ... .. . ... : ... .. 3 ... : ... .. . ... ... : ... .. . ... ... : ... .. 3 ... ... : D#5 01 A ... ...
ROW 02 : ... .. . P86 ... ... : ... .. 4 ... ... ... : ... .. . ... : ... .. 2 ... : ... .. . ... ... : ... .. 4 ... ... : ... .. . ... ... : ... .. 8 ... ...
ROW 03 : ... .. . P85 ... ... : ... .. 3 ... ... ... : --- .. . ... : ... .. 0 ... : ... .. . ... ... : ... .. . ... ... : ... .. . ... ... : ... .. 5 ... ...
ROW 04 : ... .. . P82 ... ... : E-4 00 6 ... ... ... : C-6 00 . ... : 7-# 00 F ... : ... .. . ... ... : E-5 01 6 ... ... : ... .. . ... ... : E-5 01 B ... ...
ROW 05 : ... .. . P7E ... ... : ... .. 5 ... ... ... : D-5 00 . ... : ... .. C ... : ... .. . ... ... : ... .. 5 ... ... : ... .. . ... ... : ... .. 9 ... ...
ROW 06 : ... .. . P7B ... ... : ... .. . ... ... ... : G-4 00 . ... : ... .. A ... : ... .. . ... ... : ... .. . ... ... : ... .. . ... ... : ... .. 5 ... ...
ROW 07 : G#3 00 A P7F ... ... : ... .. . ... ... ... : F#4 00 . ... : ... .. 8 ... : ... .. . ... ... : ... .. . ... ... : ... .. 4 ... ... : F#5 01 C ... ...
ROW 08 : G-3 00 A ... ... ... : ... .. 4 ... ... ... : C#4 00 . ... : ... .. 7 ... : ... .. . ... ... : ... .. 4 ... ... : ... .. . ... ... : ... .. A ... ...
ROW 09 : F#3 00 A P80 ... ... : ... .. 3 ... ... ... : ... .. . ... : ... .. 4 ... : ... .. . ... ... : ... .. . ... ... : ... .. . ... ... : ... .. 6 ... ...
ROW 0A : F-3 00 A P82 ... ... : C#4 00 6 ... ... ... : ... .. . ... : C-# 00 4 ... : ... .. . ... ... : F#5 01 6 ... ... : ... .. . ... ... : G#5 01 D ... ...
ROW 0B : E-3 00 A P85 ... ... : ... .. 5 ... ... ... : ... .. . ... : ... .. 3 ... : ... .. . ... ... : ... .. 5 ... ... : ... .. . ... ... : ... .. B ... ...
ROW 0C : D#3 00 A P8A ... ... : ... .. . ... ... ... : ... .. . ... : ... .. 1 ... : ... .. . ... ... : ... .. . ... ... : ... .. . ... ... : ... .. 6 ... ...
ROW 0D : ... .. . P7A ... ... : ... .. . ... ... ... : ... .. . ... : ... .. 4 ... : ... .. . ... ... : ... .. . ... ... : ... .. 5 ... ... : A-5 01 F ... ...
ROW 0E : D-3 00 2 P7F ... ... : ... .. 4 ... ... ... : ... .. . ... : ... .. 3 ... : ... .. . ... ... : ... .. 4 ... ... : ... .. . ... ... : ... .. D ... ...
ROW 0F : C#3 00 2 P86 ... ... : ... .. 3 ... ... ... : --- .. . ... : ... .. 1 ... : ... .. . ... ... : ... .. . ... ... : ... .. . ... ... : ... .. 8 ... ...
ROW 10 : B-3 00 F P80 ... ... : F#4 00 6 ... ... ... : F-5 00 . ... : ... .. D ... : ... .. . ... ... : F#3 01 7 ... ... : F#3 01 7 P81 V05 : B-5 01 F ... ...
ROW 11 : ... .. E ... ... ... : ... .. 5 ... ... ... : G-4 00 . ... : ... .. B ... : ... .. . ... ... : ... .. 6 ... ... : ... .. 6 ... ... : ... .. D ... ...
ROW 12 : ... .. D ... ... ... : ... .. . ... ... ... : C-4 00 . ... : ... .. . ... : ... .. . ... ... : ... .. . ... ... : ... .. . ... ... : ... .. 8 ... ...
ROW 13 : ... .. A ... ... ... : ... .. . ... ... ... : B-3 00 . ... : ... .. A ... : ... .. . ... ... : ... .. . ... ... : ... .. . ... ... : ... .. . ... ...
ROW 14 : ... .. . ... ... ... : ... .. 4 ... ... ... : F#3 00 . ... : ... .. 8 ... : ... .. . ... ... : ... .. . ... ... : ... .. . ... ... : ... .. . ... ...
ROW 15 : ... .. . ... ... ... : ... .. 3 ... ... ... : ... .. . ... : ... .. 7 ... : ... .. . ... ... : ... .. . ... ... : ... .. . ... ... : ... .. . ... ...
ROW 16 : ... .. . ... ... ... : C#4 00 6 ... ... ... : F#2 00 . ... : ... .. 6 ... : ... .. . ... ... : A-3 01 7 ... ... : F#2 01 3 ... ... : G#3 01 F ... ...
ROW 17 : ... .. . ... ... ... : ... .. 5 ... ... ... : ... .. . ... : ... .. . ... : ... .. . ... ... : ... .. 6 ... ... : ... .. . ... ... : ... .. D ... ...
ROW 18 : ... .. . ... ... ... : ... .. . ... ... ... : ... .. . ... : ... .. 5 ... : ... .. . ... ... : ... .. . ... ... : ... .. . ... ... : ... .. 8 ... ...
ROW 19 : ... .. . ... ... ... : ... .. . ... ... ... : ... .. . ... : ... .. . ... : ... .. . ... ... : ... .. . ... ... : ... .. . ... ... : ... .. . ... ...
ROW 1A : ... .. . ... ... ... : ... .. 4 ... ... ... : ... .. . ... : ... .. 4 ... : ... .. . ... ... : ... .. . ... ... : ... .. 2 ... ... : ... .. . ... ...
ROW 1B : ... .. . ... ... ... : ... .. 3 ... ... ... : --- .. . ... : ... .. . ... : ... .. . ... ... : ... .. . ... ... : ... .. . ... ... : ... .. . ... ...
ROW 1C : A-3 00 A P7C ... ... : F#3 00 6 ... ... ... : F#2 00 . ... : 3-# 00 D ... : ... .. . ... ... : C#4 01 7 ... ... : F#3 01 3 ... ... : A-3 01 F ... ...
ROW 1D : G-3 00 A P7B ... ... : ... .. 5 ... ... ... : ... .. . ... : ... .. . ... : ... .. . ... ... : ... .. 6 ... ... : ... .. . ... ... : ... .. D ... ...
ROW 1E : F-3 00 A P7E ... ... : ... .. . ... ... ... : ... .. . ... : F-# 00 D ... : ... .. . ... ... : ... .. . ... ... : ... .. . ... ... : ... .. 8 ... ...
ROW 1F : D#3 00 A P86 ... ... : ... .. . ... ... ... : ... .. . ... : D-# 00 6 ... : ... .. . ... ... : ... .. . ... ... : ... .. . ... ... : ... .. . ... ...
ROW 20 : D-3 00 A P7B ... ... : ... .. 4 ... ... ... : ... .. . ... : 9-# 00 1 ... : ... .. . ... ... : ... .. . ... ... : ... .. 2 ... ... : ... .. . ... ...
ROW 21 : C-3 00 A P8A ... ... : ... .. 3 ... ... ... : --- .. . ... : ... .. 0 ... : ... .. . ... ... : ... .. . ... ... : ... .. . ... ... : ... .. . ... ...
ROW 22 : G#3 00 F P80 ... ... : A-4 00 6 ... ... ... : F-5 00 . ... : 5-# 00 D ... : ... .. . ... ... : A-3 01 7 ... ... : G#3 01 7 ... ... : G#5 01 F ... ...
ROW 23 : ... .. E ... ... ... : ... .. 5 ... ... ... : G-4 00 . ... : ... .. B ... : ... .. . ... ... : ... .. 6 ... ... : ... .. 6 ... ... : ... .. D ... ...
ROW 24 : ... .. D ... ... ... : ... .. . ... ... ... : C-4 00 . ... : ... .. . ... : ... .. . ... ... : ... .. . ... ... : ... .. . ... ... : ... .. 8 ... ...
ROW 25 : ... .. A ... ... ... : ... .. . ... ... ... : B-3 00 . ... : ... .. A ... : ... .. . ... ... : ... .. . ... ... : ... .. . ... ... : ... .. . ... ...
ROW 26 : ... .. . ... ... ... : ... .. 4 ... ... ... : F#3 00 . ... : ... .. 8 ... : ... .. . ... ... : ... .. . ... ... : ... .. . ... ... : ... .. . ... ...
ROW 27 : ... .. . ... ... ... : ... .. 3 ... ... ... : ... .. . ... : ... .. 7 ... : ... .. . ... ... : ... .. . ... ... : ... .. . ... ... : ... .. . ... ...
ROW 28 : ... .. . ... ... ... : E-4 00 6 ... ... ... : F#2 00 . ... : 1-# 00 F ... : ... .. . ... ... : C#4 01 7 ... ... : G#2 01 3 ... ... : B-3 01 F ... ...
ROW 29 : ... .. . ... ... ... : ... .. 5 ... ... ... : ... .. . ... : ... .. C ... : ... .. . ... ... : ... .. 6 ... ... : ... .. . ... ... : ... .. D ... ...
ROW 2A : ... .. . ... ... ... : ... .. . ... ... ... : ... .. . ... : ... .. 6 ... : ... .. . ... ... : ... .. . ... ... : ... .. . ... ... : ... .. 8 ... ...
ROW 2B : ... .. . ... ... ... : ... .. . ... ... ... : ... .. . ... : ... .. 3 ... : ... .. . ... ... : ... .. . ... ... : ... .. . ... ... : ... .. . ... ...
ROW 2C : ... .. . ... ... ... : ... .. 4 ... ... ... : ... .. . ... : ... .. 2 ... : ... .. . ... ... : ... .. . ... ... : ... .. 2 ... ... : ... .. . ... ...
ROW 2D : ... .. . ... ... ... : ... .. 3 ... ... ... : --- .. . ... : ... .. 0 ... : ... .. . ... ... : ... .. . ... ... : ... .. . ... ... : ... .. . ... ...
ROW 2E : F#3 00 A P81 ... ... : A-3 00 6 ... ... ... : F#2 00 . ... : ... .. F ... : ... .. . ... ... : F#4 01 7 ... ... : G#3 01 3 ... ... : C#4 01 F ... ...
ROW 2F : E-3 00 A P86 ... ... : ... .. 5 ... ... ... : ... .. . ... : ... .. C ... : ... .. . ... ... : ... .. 6 ... ... : ... .. . ... ... : ... .. D ... ...
ROW 30 : D#3 00 A P7B ... ... : ... .. . ... ... ... : ... .. . ... : ... .. 6 ... : ... .. . ... ... : ... .. . ... ... : ... .. . ... ... : ... .. 8 ... ...
ROW 31 : C#3 00 A P87 ... ... : ... .. . ... ... ... : ... .. . ... : ... .. 3 ... : ... .. . ... ... : ... .. . ... ... : ... .. . ... ... : ... .. . ... ...
ROW 32 : C-3 00 A P7F ... ... : ... .. 4 ... ... ... : ... .. . ... : ... .. 2 ... : ... .. . ... ... : ... .. . ... ... : ... .. 2 ... ... : ... .. . ... ...
ROW 33 : B-2 00 A P78 ... ... : ... .. 3 ... ... ... : --- .. . ... : ... .. 0 ... : ... .. . ... ... : ... .. . ... ... : ... .. . ... ... : ... .. . ... ...
ROW 34 : E-3 00 F P80 ... ... : B-4 00 6 ... ... ... : F-5 00 . ... : 8-# 00 D ... : ... .. . ... ... : A-4 01 7 ... ... : A-3 01 7 ... ... : E-5 01 F ... ...
ROW 35 : ... .. E ... ... ... : ... .. 5 ... ... ... : G-4 00 . ... : ... .. B ... : ... .. . ... ... : ... .. 6 ... ... : ... .. 6 ... ... : ... .. D ... ...
ROW 36 : ... .. D ... ... ... : ... .. . ... ... ... : C-4 00 . ... : ... .. . ... : ... .. . ... ... : ... .. . ... ... : ... .. . ... ... : ... .. 8 ... ...
ROW 37 : ... .. A ... ... ... : ... .. . ... ... ... : B-3 00 . ... : ... .. A ... : ... .. . ... ... : ... .. . ... ... : ... .. . ... ... : ... .. . ... ...
ROW 38 : ... .. . ... ... ... : ... .. 4 ... ... ... : F#3 00 . ... : ... .. 8 ... : ... .. . ... ... : ... .. . ... ... : ... .. . ... ... : ... .. . ... ...
ROW 39 : ... .. . ... ... ... : ... .. 3 ... ... ... : ... .. . ... : ... .. 7 ... : ... .. . ... ... : ... .. . ... ... : ... .. . ... ... : ... .. . ... ...
ROW 3A : ... .. . ... ... ... : F#4 00 6 ... ... ... : F#2 00 . ... : C-# 00 4 ... : ... .. . ... ... : F#4 01 7 ... ... : A-2 01 3 ... ... : E-4 01 F ... ...
ROW 3B : ... .. . ... ... ... : ... .. 5 ... ... ... : ... .. . ... : ... .. 3 ... : ... .. . ... ... : ... .. 6 ... ... : ... .. . ... ... : ... .. D ... ...
ROW 3C : ... .. . ... ... ... : ... .. . ... ... ... : ... .. . ... : ... .. 1 ... : ... .. . ... ... : ... .. . ... ... : ... .. . ... ... : ... .. 8 ... ...
ROW 3D : ... .. . ... ... ... : ... .. . ... ... ... : ... .. . ... : ... .. . ... : ... .. . ... ... : ... .. . ... ... : ... .. . ... ... : ... .. . ... ...
ROW 3E : ... .. . ... ... ... : ... .. 4 ... ... ... : ... .. . ... : ... .. . ... : ... .. . ... ... : ... .. . ... ... : ... .. 2 ... ... : ... .. . ... ...
ROW 3F : ... .. . ... ... ... : ... .. 3 ... ... ... : --- .. . ... : ... .. 0 ... : ... .. . ... ... : ... .. . ... ... : ... .. . ... ... : ... .. . ... ...
ROW 40 : D-3 00 A P8A ... ... : B-3 00 6 ... ... ... : F#2 00 . ... : 1-# 00 F ... : ... .. . ... ... : C#4 01 7 ... ... : A-3 01 3 ... ... : F#4 01 F ... ...
ROW 41 : C#3 00 A P81 ... ... : ... .. 5 ... ... ... : ... .. . ... : ... .. C ... : ... .. . ... ... : ... .. 6 ... ... : ... .. . ... ... : ... .. D ... ...
ROW 42 : C-3 00 A P79 ... ... : ... .. . ... ... ... : ... .. . ... : ... .. 6 ... : ... .. . ... ... : ... .. . ... ... : ... .. . ... ... : ... .. 8 ... ...
ROW 43 : A#2 00 A P8D ... ... : ... .. . ... ... ... : ... .. . ... : ... .. 3 ... : ... .. . ... ... : ... .. . ... ... : ... .. . ... ... : ... .. . ... ...
ROW 44 : A-2 00 A P89 ... ... : ... .. 4 ... ... ... : ... .. . ... : ... .. 2 ... : ... .. . ... ... : ... .. . ... ... : ... .. 2 ... ... : ... .. . ... ...
ROW 45 : G#2 00 A P88 ... ... : ... .. 3 ... ... ... : --- .. . ... : ... .. 0 ... : ... .. . ... ... : ... .. . ... ... : ... .. . ... ... : ... .. . ... ...
ROW 46 : B-2 00 F P80 ... ... : E-4 00 6 ... ... ... : F-5 00 . ... : 5-# 00 D ... : ... .. . ... ... : A-3 01 7 ... ... : B-3 01 7 ... ... : B-4 01 F ... ...
ROW 47 : ... .. E ... ... ... : ... .. 5 ... ... ... : G-4 00 . ... : ... .. B ... : ... .. . ... ... : ... .. 6 ... ... : ... .. 6 ... ... : ... .. D ... ...
ROW 48 : ... .. D ... ... ... : ... .. . ... ... ... : C-4 00 . ... : ... .. . ... : ... .. . ... ... : ... .. . ... ... : ... .. . ... ... : ... .. 8 ... ...
ROW 49 : ... .. A ... ... ... : ... .. . ... ... ... : B-3 00 . ... : ... .. A ... : ... .. . ... ... : ... .. . ... ... : ... .. . ... ... : ... .. . ... ...
ROW 4A : ... .. . ... ... ... : ... .. 4 ... ... ... : F#3 00 . ... : ... .. 8 ... : ... .. . ... ... : ... .. . ... ... : ... .. . ... ... : ... .. . ... ...
ROW 4B : ... .. . ... ... ... : ... .. 3 ... ... ... : ... .. . ... : ... .. 7 ... : ... .. . ... ... : ... .. . ... ... : ... .. . ... ... : ... .. . ... ...
ROW 4C : ... .. . ... ... ... : B-3 00 6 ... ... ... : F#2 00 . ... : 3-# 00 D ... : ... .. . ... ... : C#4 01 7 ... ... : B-2 01 3 ... ... : F#4 01 F ... ...
ROW 4D : ... .. . ... ... ... : ... .. 5 ... ... ... : ... .. . ... : ... .. . ... : ... .. . ... ... : ... .. 6 ... ... : ... .. . ... ... : ... .. D ... ...
ROW 4E : ... .. . ... ... ... : ... .. . ... ... ... : ... .. . ... : F-# 00 D ... : ... .. . ... ... : ... .. . ... ... : ... .. . ... ... : ... .. 8 ... ...
ROW 4F : ... .. . ... ... ... : ... .. . ... ... ... : ... .. . ... : D-# 00 6 ... : ... .. . ... ... : ... .. . ... ... : ... .. . ... ... : ... .. . ... ...
ROW 50 : ... .. . ... ... ... : ... .. 4 ... ... ... : ... .. . ... : 9-# 00 1 ... : ... .. . ... ... : ... .. . ... ... : ... .. 2 ... ... : ... .. . ... ...
ROW 51 : ... .. . ... ... ... : ... .. 3 ... ... ... : --- .. . ... : ... .. 0 ... : ... .. . ... ... : ... .. . ... ... : ... .. . ... ... : ... .. . ... ...
ROW 52 : A#2 00 A P7B ... ... : E-3 00 6 ... ... ... : F#2 00 . ... : 1-# 00 F ... : ... .. . ... ... : F#4 01 7 ... ... : B-3 01 3 ... ... : G#4 01 F ... ...
ROW 53 : A-2 00 A P77 ... ... : ... .. 5 ... ... ... : ... .. . ... : ... .. C ... : ... .. . ... ... : ... .. 6 ... ... : ... .. . ... ... : ... .. D ... ...
ROW 54 : G#2 00 A P76 ... ... : ... .. . ... ... ... : ... .. . ... : ... .. 6 ... : ... .. . ... ... : ... .. . ... ... : ... .. . ... ... : ... .. 8 ... ...
ROW 55 : G-2 00 A ... ... ... : ... .. . ... ... ... : ... .. . ... : ... .. 3 ... : ... .. . ... ... : ... .. . ... ... : ... .. . ... ... : ... .. . ... ...
ROW 56 : F#2 00 A P78 ... ... : ... .. 4 ... ... ... : ... .. . ... : ... .. 2 ... : ... .. . ... ... : ... .. . ... ... : ... .. 2 ... ... : ... .. . ... ...
ROW 57 : F-2 00 A P7C ... ... : ... .. 3 ... ... ... : --- .. . ... : ... .. 0 ... : ... .. . ... ... : ... .. . ... ... : ... .. . ... ... : ... .. . ... ...
ROW 58 : A-2 00 F P80 ... ... : A-4 00 6 ... ... ... : G#5 00 . ... : C-# 00 D ... : ... .. . ... ... : C-4 01 7 ... ... : A-3 01 7 ... ... : C-5 01 F ... ...
ROW 59 : ... .. E ... ... ... : ... .. 5 ... ... ... : A#4 00 . ... : ... .. B ... : ... .. . ... ... : ... .. 6 ... ... : ... .. 6 ... ... : ... .. D ... ...
ROW 5A : ... .. D ... ... ... : ... .. . ... ... ... : D#4 00 . ... : ... .. . ... : ... .. . ... ... : ... .. . ... ... : ... .. . ... ... : ... .. 8 ... ...
ROW 5B : ... .. A ... ... ... : ... .. . ... ... ... : D-4 00 . ... : ... .. A ... : ... .. . ... ... : ... .. . ... ... : ... .. . ... ... : ... .. . ... ...
ROW 5C : ... .. . ... ... ... : ... .. 4 ... ... ... : A-3 00 . ... : ... .. 8 ... : ... .. . ... ... : ... .. . ... ... : ... .. . ... ... : ... .. . ... ...
ROW 5D : ... .. . ... ... ... : ... .. 3 ... ... ... : ... .. . ... : ... .. 7 ... : ... .. . ... ... : ... .. . ... ... : ... .. . ... ... : ... .. . ... ...
ROW 5E : B-2 00 F ... ... ... : E-4 00 6 ... ... ... : A-2 00 . ... : 7-# 00 F ... : ... .. . ... ... : A-3 01 7 ... ... : A-2 01 3 ... ... : C-3 01 F ... ...
ROW 5F : ... .. E ... ... ... : ... .. 5 ... ... ... : ... .. . ... : ... .. C ... : ... .. . ... ... : ... .. 6 ... ... : ... .. . ... ... : ... .. D ... ...
ROW 60 : ... .. D ... ... ... : ... .. . ... ... ... : ... .. . ... : ... .. 6 ... : ... .. . ... ... : ... .. . ... ... : ... .. . ... ... : ... .. 8 ... ...
ROW 61 : ... .. A ... ... ... : ... .. . ... ... ... : ... .. . ... : ... .. 3 ... : ... .. . ... ... : ... .. . ... ... : ... .. . ... ... : ... .. . ... ...
ROW 62 : ... .. . ... ... ... : ... .. 4 ... ... ... : ... .. . ... : ... .. 2 ... : ... .. . ... ... : ... .. . ... ... : ... .. 2 ... ... : ... .. . ... ...
ROW 63 : ... .. . ... ... ... : ... .. 3 ... ... ... : --- .. . ... : ... .. 0 ... : ... .. . ... ... : ... .. . ... ... : ... .. . ... ... : ... .. . ... ...
ROW 64 : C-3 00 F ... ... ... : A-3 00 6 ... ... ... : A-2 00 . ... : 9-# 00 D ... : ... .. . ... ... : C-4 01 7 ... ... : A-3 01 3 ... ... : C-4 01 F ... ...
ROW 65 : ... .. E ... ... ... : ... .. 5 ... ... ... : ... .. . ... : ... .. . ... : ... .. . ... ... : ... .. 6 ... ... : ... .. . ... ... : ... .. D ... ...
ROW 66 : ... .. D ... ... ... : ... .. . ... ... ... : ... .. . ... : 5-# 00 D ... : ... .. . ... ... : ... .. . ... ... : ... .. . ... ... : ... .. 8 ... ...
ROW 67 : ... .. A ... ... ... : ... .. . ... ... ... : ... .. . ... : 3-# 00 6 ... : ... .. . ... ... : ... .. . ... ... : ... .. . ... ... : ... .. . ... ...
ROW 68 : ... .. . ... ... ... : ... .. 4 ... ... ... : ... .. . ... : F-# 00 1 ... : ... .. . ... ... : ... .. . ... ... : ... .. 2 ... ... : ... .. . ... ...
ROW 69 : ... .. . ... ... ... : ... .. 3 ... ... ... : --- .. . ... : ... .. 0 ... : ... .. . ... ... : ... .. . ... ... : ... .. . ... ... : ... .. . ... ...
ROW 6A : D-3 00 F ... ... ... : C-5 00 6 ... ... ... : G#5 00 . ... : A-# 00 D ... : ... .. . ... ... : E-4 01 7 ... ... : B-3 01 7 ... ... : D-5 01 F ... ...
ROW 6B : ... .. E ... ... ... : ... .. 5 ... ... ... : A#4 00 . ... : ... .. B ... : ... .. . ... ... : ... .. 6 ... ... : ... .. 6 ... ... : ... .. D ... ...
ROW 6C : ... .. D ... ... ... : ... .. . ... ... ... : D#4 00 . ... : ... .. . ... : ... .. . ... ... : ... .. . ... ... : ... .. . ... ... : ... .. 8 ... ...
ROW 6D : ... .. A ... ... ... : ... .. . ... ... ... : D-4 00 . ... : ... .. A ... : ... .. . ... ... : ... .. . ... ... : ... .. . ... ... : ... .. . ... ...
ROW 6E : ... .. . ... ... ... : ... .. 4 ... ... ... : A-3 00 . ... : ... .. 8 ... : ... .. . ... ... : ... .. . ... ... : ... .. . ... ... : ... .. . ... ...
ROW 6F : ... .. . ... ... ... : ... .. 3 ... ... ... : ... .. . ... : ... .. 7 ... : ... .. . ... ... : ... .. . ... ... : ... .. . ... ... : ... .. . ... ...
ROW 70 : C-3 00 F ... ... ... : G-4 00 6 ... ... ... : A-2 00 . ... : 7-# 00 F ... : ... .. . ... ... : F#4 01 7 ... ... : B-2 01 3 ... ... : D-3 01 F ... ...
ROW 71 : ... .. E ... ... ... : ... .. 5 ... ... ... : ... .. . ... : ... .. C ... : ... .. . ... ... : ... .. 6 ... ... : ... .. . ... ... : ... .. D ... ...
ROW 72 : ... .. D ... ... ... : ... .. . ... ... ... : ... .. . ... : ... .. 6 ... : ... .. . ... ... : ... .. . ... ... : ... .. . ... ... : ... .. 8 ... ...
ROW 73 : ... .. A ... ... ... : ... .. . ... ... ... : ... .. . ... : ... .. 3 ... : ... .. . ... ... : ... .. . ... ... : ... .. . ... ... : ... .. . ... ...
ROW 74 : ... .. . ... ... ... : ... .. 4 ... ... ... : ... .. . ... : ... .. 2 ... : ... .. . ... ... : ... .. . ... ... : ... .. 2 ... ... : ... .. . ... ...
ROW 75 : ... .. . ... ... ... : ... .. 3 ... ... ... : --- .. . ... : ... .. 0 ... : ... .. . ... ... : ... .. . ... ... : ... .. . ... ... : ... .. . ... ...
ROW 76 : D-3 00 F ... ... ... : C-4 00 6 ... ... ... : A-2 00 . ... : ... .. F ... : ... .. . ... ... : A-4 01 7 ... ... : B-3 01 3 ... ... : D-4 01 F ... ...
ROW 77 : ... .. E ... ... ... : ... .. 5 ... ... ... : ... .. . ... : ... .. C ... : ... .. . ... ... : ... .. 6 ... ... : ... .. . ... ... : ... .. D ... ...
ROW 78 : ... .. D ... ... ... : ... .. . ... ... ... : ... .. . ... : ... .. 6 ... : ... .. . ... ... : ... .. . ... ... : ... .. . ... ... : ... .. 8 ... ...
ROW 79 : ... .. A ... ... ... : ... .. . ... ... ... : ... .. . ... : ... .. 3 ... : ... .. . ... ... : ... .. . ... ... : ... .. . ... ... : ... .. . ... ...
ROW 7A : ... .. . ... ... ... : ... .. 4 ... ... ... : ... .. . ... : ... .. 2 ... : ... .. . ... ... : ... .. . ... ... : ... .. 2 ... ... : ... .. . ... ...
ROW 7B : ... .. . ... ... ... : ... .. 3 ... ... ... : --- .. . ... : ... .. 0 ... : ... .. . ... ... : ... .. . ... ... : ... .. . ... ... : ... .. . ... ...
ROW 7C : E-3 00 F ... ... ... : D-5 00 6 ... ... ... : G#5 00 . ... : ... .. D ... : ... .. . ... ... : F#4 01 7 ... ... : C-4 01 7 ... ... : E-5 01 F ... ...
ROW 7D : ... .. E ... ... ... : ... .. 5 ... ... ... : A#4 00 . ... : ... .. B ... : ... .. . ... ... : ... .. 6 ... ... : ... .. 6 ... ... : ... .. D ... ...
ROW 7E : ... .. D ... ... ... : ... .. . ... ... ... : D#4 00 . ... : ... .. . ... : ... .. . ... ... : ... .. . ... ... : ... .. . ... ... : ... .. 8 ... ...
ROW 7F : ... .. A ... ... ... : ... .. . ... ... ... : D-4 00 . ... : ... .. A ... : ... .. . ... ... : ... .. . ... ... : ... .. . ... ... : ... .. . ... ...
ROW 80 : ... .. . ... ... ... : ... .. 4 ... ... ... : A-3 00 . ... : ... .. 8 ... : ... .. . ... ... : ... .. . ... ... : ... .. . ... ... : ... .. . ... ...
ROW 81 : ... .. . ... ... ... : ... .. 3 ... ... ... : ... .. . ... : ... .. 7 ... : ... .. . ... ... : ... .. . ... ... : ... .. . ... ... : ... .. . ... ...
ROW 82 : F#3 00 F ... ... ... : A-4 00 6 ... ... ... : A-2 00 . ... : B-# 00 F ... : ... .. . ... ... : E-4 01 7 ... ... : C-3 01 3 ... ... : E-3 01 F ... ...
ROW 83 : ... .. E ... ... ... : ... .. 5 ... ... ... : ... .. . ... : ... .. C ... : ... .. . ... ... : ... .. 6 ... ... : ... .. . ... ... : ... .. D ... ...
ROW 84 : ... .. D ... ... ... : ... .. . ... ... ... : ... .. . ... : ... .. 6 ... : ... .. . ... ... : ... .. . ... ... : ... .. . ... ... : ... .. 8 ... ...
ROW 85 : ... .. A ... ... ... : ... .. . ... ... ... : ... .. . ... : ... .. 3 ... : ... .. . ... ... : ... .. . ... ... : ... .. . ... ... : ... .. . ... ...
ROW 86 : ... .. . ... ... ... : ... .. 4 ... ... ... : ... .. . ... : ... .. F ... : ... .. . ... ... : ... .. . ... ... : ... .. 2 ... ... : ... .. . ... ...
ROW 87 : ... .. . ... ... ... : ... .. 3 ... ... ... : --- .. . ... : ... .. C ... : ... .. . ... ... : ... .. . ... ... : ... .. . ... ... : ... .. . ... ...
ROW 88 : E-3 00 F ... ... ... : D-4 00 6 ... ... ... : A-2 00 . ... : ... .. 6 ... : ... .. . ... ... : C-4 01 7 ... ... : C-4 01 3 ... ... : E-4 01 F ... ...
ROW 89 : ... .. E ... ... ... : ... .. 5 ... ... ... : ... .. . ... : ... .. 3 ... : ... .. . ... ... : ... .. 6 ... ... : ... .. . ... ... : ... .. D ... ...
ROW 8A : ... .. D ... ... ... : ... .. . ... ... ... : ... .. . ... : 9-# 00 F ... : ... .. . ... ... : ... .. . ... ... : ... .. . ... ... : ... .. 8 ... ...
ROW 8B : ... .. A ... ... ... : ... .. . ... ... ... : ... .. . ... : ... .. C ... : ... .. . ... ... : ... .. . ... ... : ... .. . ... ... : ... .. . ... ...
ROW 8C : ... .. . ... ... ... : ... .. 4 ... ... ... : ... .. . ... : ... .. 6 ... : ... .. . ... ... : ... .. . ... ... : ... .. 2 ... ... : ... .. . ... ...
ROW 8D : ... .. . ... ... ... : ... .. 3 ... ... ... : --- .. . ... : ... .. 3 ... : ... .. . ... ... : ... .. . ... ... : ... .. . ... ... : ... .. . ... ...
ROW 8E : F#3 00 F ... ... ... : G-4 00 6 ... ... ... : G#5 00 . ... : 8-# 00 F ... : ... .. . ... ... : A-3 01 7 ... ... : D-4 01 7 ... ... : F#5 01 F ... ...
ROW 8F : ... .. E ... ... ... : ... .. 5 ... ... ... : A#4 00 . ... : ... .. C ... : ... .. . ... ... : ... .. 6 ... ... : ... .. 6 ... ... : ... .. D ... ...
ROW 90 : ... .. D ... ... ... : ... .. . ... ... ... : D#4 00 . ... : ... .. 6 ... : ... .. . ... ... : ... .. . ... ... : ... .. . ... ... : ... .. 8 ... ...
ROW 91 : ... .. A ... ... ... : ... .. . ... ... ... : D-4 00 . ... : ... .. 3 ... : ... .. . ... ... : ... .. . ... ... : ... .. . ... ... : ... .. . ... ...
ROW 92 : ... .. . ... ... ... : ... .. 4 ... ... ... : A-3 00 . ... : ... .. F ... : ... .. . ... ... : ... .. . ... ... : ... .. . ... ... : ... .. . ... ...
ROW 93 : ... .. . ... ... ... : ... .. 3 ... ... ... : ... .. . ... : ... .. C ... : ... .. . ... ... : ... .. . ... ... : ... .. . ... ... : ... .. . ... ...
ROW 94 : G#3 00 F ... ... ... : D-4 00 6 ... ... ... : A-2 00 . ... : ... .. 6 ... : ... .. . ... ... : F#3 01 7 ... ... : D-3 01 3 ... ... : F#3 01 F ... ...
ROW 95 : ... .. E ... ... ... : ... .. 5 ... ... ... : ... .. . ... : ... .. 3 ... : ... .. . ... ... : ... .. 6 ... ... : ... .. . ... ... : ... .. D ... ...
ROW 96 : ... .. D ... ... ... : ... .. . ... ... ... : ... .. . ... : 6-# 00 F ... : ... .. . ... ... : ... .. . ... ... : ... .. . ... ... : ... .. 8 ... ...
ROW 97 : ... .. A ... ... ... : ... .. . ... ... ... : ... .. . ... : ... .. C ... : ... .. . ... ... : ... .. . ... ... : ... .. . ... ... : ... .. . ... ...
ROW 98 : ... .. . ... ... ... : ... .. 4 ... ... ... : ... .. . ... : ... .. 6 ... : ... .. . ... ... : ... .. . ... ... : ... .. 2 ... ... : ... .. . ... ...
ROW 99 : ... .. . ... ... ... : ... .. 3 ... ... ... : --- .. . ... : ... .. 3 ... : ... .. . ... ... : ... .. . ... ... : ... .. . ... ... : ... .. . ... ...
ROW 9A : A-3 00 F ... ... ... : G-3 00 6 ... ... ... : A-2 00 . ... : ... .. F ... : ... .. . ... ... : E-3 01 7 ... ... : D-4 01 3 ... ... : F#4 01 F ... ...
ROW 9B : ... .. E ... ... ... : ... .. 5 ... ... ... : ... .. . ... : ... .. C ... : ... .. . ... ... : ... .. 6 ... ... : ... .. . ... ... : ... .. D ... ...
ROW 9C : ... .. D ... ... ... : ... .. . ... ... ... : ... .. . ... : ... .. 6 ... : ... .. . ... ... : ... .. . ... ... : ... .. . ... ... : ... .. 8 ... ...
ROW 9D : ... .. A ... ... ... : ... .. . ... ... ... : ... .. . ... : ... .. F ... : ... .. . ... ... : ... .. . ... ... : ... .. . ... ... : ... .. . ... ...
ROW 9E : ... .. . ... ... ... : ... .. 4 ... ... ... : ... .. . ... : ... .. C ... : ... .. . ... ... : ... .. . ... ... : ... .. 2 ... ... : ... .. . ... ...
ROW 9F : ... .. . ... ... ... : ... .. 3 ... ... ... : --- .. . ... : ... .. 6 ... : ... .. . ... ... : ... .. . ... ... : ... .. . ... ... : ... .. . ... ...
ROW A0 : G#4 00 F ... ... ... : E-4 00 8 ... V02 ... : D#4 00 . ... : 7-# 00 D ... : ... .. . ... ... : G#3 01 6 ... ... : F#4 01 6 ... V03 : G#5 01 A ... ...
ROW A1 : ... .. E ... ... ... : ... .. 7 ... ... ... : F-3 00 . ... : ... .. B ... : ... .. . ... ... : ... .. 5 ... ... : ... .. . ... ... : ... .. 8 ... ...
ROW A2 : ... .. D ... ... ... : ... .. 6 ... ... ... : A#2 00 . ... : ... .. . ... : ... .. . ... ... : ... .. . ... ... : ... .. 5 ... ... : ... .. 5 ... ...
ROW A3 : ... .. A ... ... ... : ... .. 5 ... ... ... : A-2 00 . ... : ... .. A ... : ... .. . ... ... : ... .. . ... ... : ... .. 4 ... ... : ... .. . ... ...
ROW A4 : ... .. . ... ... ... : ... .. . ... ... ... : E-2 00 . ... : ... .. 8 ... : ... .. . ... ... : ... .. 4 ... ... : ... .. . ... ... : ... .. . ... ...
ROW A5 : ... .. . ... ... ... : ... .. . ... ... ... : ... .. . ... : ... .. 7 ... : ... .. . ... ... : ... .. . ... ... : ... .. . ... ... : ... .. . ... ...
ROW A6 : ... .. . ... ... ... : ... .. . ... ... ... : ... .. . ... : ... .. 6 ... : ... .. . ... ... : ... .. . ... ... : G#4 01 6 ... ... : E-5 01 A ... ...
ROW A7 : ... .. . ... ... ... : ... .. . ... ... ... : ... .. . ... : ... .. . ... : ... .. . ... ... : ... .. . ... ... : ... .. . ... ... : ... .. 8 ... ...
ROW A8 : ... .. . ... ... ... : ... .. . ... ... ... : ... .. . ... : ... .. 5 ... : ... .. . ... ... : ... .. . ... ... : ... .. 5 ... ... : ... .. 5 ... ...
ROW A9 : ... .. . ... ... ... : ... .. . ... ... ... : ... .. . ... : ... .. . ... : ... .. . ... ... : ... .. . ... ... : ... .. 4 ... ... : ... .. . ... ...
ROW AA : ... .. . ... ... ... : ... .. . ... ... ... : ... .. . ... : ... .. 4 ... : ... .. . ... ... : ... .. . ... ... : ... .. . ... ... : ... .. . ... ...
ROW AB : ... .. . ... ... ... : ... .. . ... ... ... : --- .. . ... : ... .. . ... : ... .. . ... ... : ... .. . ... ... : ... .. . ... ... : ... .. . ... ...
ROW AC : ... .. . ... ... ... : ... .. . ... ... ... : D#5 00 . ... : ... .. F ... : ... .. . ... ... : B-3 01 9 ... ... : F#4 01 6 ... ... : B-4 01 A ... ...
ROW AD : ... .. . ... ... ... : ... .. . ... ... ... : F-4 00 . ... : ... .. C ... : ... .. . ... ... : ... .. 8 ... ... : ... .. . ... ... : ... .. 8 ... ...
ROW AE : ... .. . ... ... ... : ... .. . ... ... ... : A#3 00 . ... : ... .. A ... : ... .. . ... ... : ... .. . ... ... : ... .. 5 ... ... : ... .. 5 ... ...
ROW AF : ... .. . ... ... ... : ... .. . ... ... ... : A-3 00 . ... : ... .. 8 ... : ... .. . ... ... : ... .. . ... ... : ... .. 4 ... ... : ... .. . ... ...
ROW B0 : ... .. . ... ... ... : ... .. . ... ... ... : E-3 00 . ... : ... .. 7 ... : ... .. . ... ... : ... .. 7 ... ... : ... .. . ... ... : ... .. . ... ...
ROW B1 : ... .. . ... ... ... : ... .. . ... ... ... : --- .. . ... : ... .. 4 ... : ... .. . ... ... : ... .. . ... ... : ... .. . ... ... : ... .. . ... ...
ROW B2 : F#4 00 A ... ... ... : D-4 00 5 P84 ... ... : E-2 00 . ... : C-# 00 4 ... : ... .. . ... ... : B-4 01 9 ... ... : G#4 01 6 ... ... : G#4 01 A ... ...
ROW B3 : E-4 00 A P83 ... ... : C#4 00 5 P80 ... ... : ... .. . ... : ... .. 3 ... : ... .. . ... ... : ... .. 8 ... ... : ... .. . ... ... : ... .. 8 ... ...
ROW B4 : D#4 00 A P7D ... ... : C-4 00 5 P7C ... ... : ... .. . ... : ... .. 1 ... : ... .. . ... ... : ... .. . ... ... : ... .. 5 ... ... : ... .. 5 ... ...
ROW B5 : C#4 00 A P83 ... ... : A#3 00 5 P86 ... ... : ... .. . ... : ... .. . ... : ... .. . ... ... : ... .. . ... ... : ... .. 4 ... ... : ... .. . ... ...
ROW B6 : C-4 00 A P7F ... ... : A-3 00 5 P84 ... ... : ... .. . ... : ... .. . ... : ... .. . ... ... : ... .. 7 ... ... : ... .. . ... ... : ... .. . ... ...
ROW B7 : B-3 00 A P7B ... ... : G#3 00 5 P83 ... ... : ... .. . ... : ... .. 0 ... : ... .. . ... ... : ... .. . ... ... : ... .. . ... ... : ... .. . ... ...
ROW B8 : ... .. F P80 ... ... : ... .. F P80 ... ... : ... .. . ... : 1-# 00 F ... : ... .. . ... ... : A#4 01 9 ... ... : A#4 01 6 ... ... : B-5 01 A ... ...
ROW B9 : ... .. E ... ... ... : ... .. E ... ... ... : ... .. . ... : ... .. C ... : ... .. . ... ... : ... .. 8 ... ... : ... .. . ... ... : ... .. 8 ... ...
ROW BA : ... .. D ... ... ... : ... .. D ... ... ... : ... .. . ... : ... .. 6 ... : ... .. . ... ... : ... .. . ... ... : ... .. 5 ... ... : ... .. 5 ... ...
ROW BB : ... .. A ... ... ... : ... .. A ... ... ... : ... .. . ... : ... .. 3 ... : ... .. . ... ... : ... .. . ... ... : ... .. 4 ... ... : ... .. . ... ...
ROW BC : ... .. . ... ... ... : ... .. . ... ... ... : ... .. . ... : ... .. 2 ... : ... .. . ... ... : ... .. 7 ... ... : ... .. . ... ... : ... .. . ... ...
ROW BD : ... .. . ... ... ... : ... .. . ... ... ... : --- .. . ... : ... .. 0 ... : ... .. . ... ... : ... .. . ... ... : ... .. . ... ... : ... .. . ... ...
ROW BE : ... .. . ... ... ... : ... .. . ... ... ... : E-2 00 . ... : ... .. F ... : ... .. . ... ... : ... .. . ... ... : B-4 01 6 ... ... : G#5 01 A ... ...
ROW BF : ... .. . ... ... ... : ... .. . ... ... ... : ... .. . ... : ... .. C ... : ... .. . ... ... : ... .. 6 ... ... : ... .. . ... ... : ... .. 8 ... ...
ROW C0 : ... .. . ... ... ... : ... .. . ... ... ... : ... .. . ... : ... .. 6 ... : ... .. . ... ... : ... .. . ... ... : ... .. 5 ... ... : ... .. 5 ... ...
ROW C1 : ... .. . ... ... ... : ... .. . ... ... ... : ... .. . ... : ... .. 3 ... : ... .. . ... ... : ... .. . ... ... : ... .. 4 ... ... : ... .. . ... ...
ROW C2 : ... .. . ... ... ... : ... .. . ... ... ... : ... .. . ... : ... .. 2 ... : ... .. . ... ... : ... .. . ... ... : ... .. . ... ... : ... .. . ... ...
ROW C3 : ... .. . ... ... ... : ... .. . ... ... ... : --- .. . ... : ... .. 0 ... : ... .. . ... ... : ... .. . ... ... : ... .. . ... ... : ... .. . ... ...
ROW C4 : ... .. . P84 ... ... : ... .. . P84 ... ... : D#5 00 . ... : 7-# 00 F ... : ... .. . ... ... : B-3 01 9 ... ... : A#4 01 6 ... ... : E-5 01 A ... ...
ROW C5 : ... .. . P86 ... ... : ... .. . P86 ... ... : F-4 00 . ... : ... .. C ... : ... .. . ... ... : ... .. 8 ... ... : ... .. . ... ... : ... .. 8 ... ...
ROW C6 : ... .. . P85 ... ... : ... .. . P85 ... ... : A#3 00 . ... : ... .. A ... : ... .. . ... ... : ... .. . ... ... : ... .. 5 ... ... : ... .. 5 ... ...
ROW C7 : ... .. . P82 ... ... : ... .. . P82 ... ... : A-3 00 . ... : ... .. 8 ... : ... .. . ... ... : ... .. . ... ... : ... .. 4 ... ... : ... .. . ... ...
ROW C8 : ... .. . P7E ... ... : ... .. . P7E ... ... : E-3 00 . ... : ... .. 7 ... : ... .. . ... ... : ... .. 7 ... ... : ... .. . ... ... : ... .. . ... ...
ROW C9 : ... .. . P7B ... ... : ... .. . P7B ... ... : ... .. . ... : ... .. 4 ... : ... .. . ... ... : ... .. . ... ... : ... .. . ... ... : ... .. . ... ...
ROW CA : ... .. . P7A ... ... : ... .. . P7A ... ... : ... .. . ... : C-# 00 4 ... : ... .. . ... ... : A#4 01 9 ... ... : B-3 01 6 ... ... : B-4 01 A ... ...
ROW CB : ... .. . P7C ... ... : ... .. . P7C ... ... : ... .. . ... : ... .. 3 ... : ... .. . ... ... : ... .. 8 ... ... : ... .. . ... ... : ... .. 8 ... ...
ROW CC : ... .. . P80 ... ... : ... .. . P80 ... ... : ... .. . ... : ... .. 1 ... : ... .. . ... ... : ... .. . ... ... : ... .. 5 ... ... : ... .. 5 ... ...
ROW CD : ... .. . P83 ... ... : ... .. . P83 ... ... : ... .. . ... : ... .. . ... : ... .. . ... ... : ... .. . ... ... : ... .. 4 ... ... : ... .. . ... ...
ROW CE : ... .. . P86 ... ... : ... .. . P86 ... ... : ... .. . ... : ... .. . ... : ... .. . ... ... : ... .. 7 ... ... : ... .. . ... ... : ... .. . ... ...
ROW CF : ... .. . ... ... ... : ... .. . ... ... ... : --- .. . ... : ... .. 0 ... : ... .. . ... ... : ... .. . ... ... : ... .. . ... ... : ... .. . ... ...
ROW D0 : A#4 00 F P80 ... ... : D#4 00 F P80 ... ... : D#4 00 . ... : 1-# 00 F ... : ... .. . ... ... : G#4 01 9 ... ... : F#4 01 6 ... ... : E-4 01 A ... ...
ROW D1 : ... .. E ... ... ... : ... .. E ... ... ... : F-3 00 . ... : ... .. C ... : ... .. . ... ... : ... .. 8 ... ... : ... .. . ... ... : ... .. 8 ... ...
ROW D2 : ... .. D ... ... ... : ... .. D ... ... ... : A#2 00 . ... : ... .. 6 ... : ... .. . ... ... : ... .. . ... ... : ... .. 5 ... ... : ... .. 5 ... ...
ROW D3 : ... .. A ... ... ... : ... .. A ... ... ... : A-2 00 . ... : ... .. 3 ... : ... .. . ... ... : ... .. . ... ... : ... .. 4 ... ... : ... .. . ... ...
ROW D4 : ... .. . P83 ... ... : ... .. . P83 ... ... : E-2 00 . ... : ... .. 2 ... : ... .. . ... ... : ... .. 7 ... ... : ... .. . ... ... : ... .. . ... ...
ROW D5 : B-4 00 A P7F ... ... : E-4 00 A P7C ... ... : ... .. . ... : ... .. 0 ... : ... .. . ... ... : ... .. . ... ... : ... .. . ... ... : ... .. . ... ...
ROW D6 : ... .. . P80 ... ... : ... .. . P7F ... ... : ... .. . ... : ... .. F ... : ... .. . ... ... : ... .. . ... ... : G#4 01 6 ... ... : F#4 01 A ... ...
ROW D7 : ... .. . ... ... ... : ... .. . P80 ... ... : ... .. . ... : ... .. C ... : ... .. . ... ... : ... .. 6 ... ... : ... .. . ... ... : ... .. 8 ... ...
ROW D8 : ... .. . ... ... ... : ... .. . ... ... ... : ... .. . ... : ... .. 6 ... : ... .. . ... ... : ... .. . ... ... : ... .. 5 ... ... : ... .. 5 ... ...
ROW D9 : ... .. . ... ... ... : ... .. . ... ... ... : ... .. . ... : ... .. 3 ... : ... .. . ... ... : ... .. . ... ... : ... .. 4 ... ... : ... .. . ... ...
ROW DA : ... .. . ... ... ... : ... .. . ... ... ... : ... .. . ... : ... .. 2 ... : ... .. . ... ... : ... .. . ... ... : ... .. . ... ... : ... .. . ... ...
ROW DB : ... .. . ... ... ... : ... .. . ... ... ... : --- .. . ... : ... .. 0 ... : ... .. . ... ... : ... .. . ... ... : ... .. . ... ... : ... .. . ... ...
ROW DC : ... .. . ... ... ... : ... .. . ... ... ... : D#5 00 . ... : 7-# 00 F ... : ... .. . ... ... : ... .. . ... ... : F#4 01 6 ... ... : G#4 01 A ... ...
ROW DD : ... .. . ... ... ... : ... .. . ... ... ... : F-4 00 . ... : ... .. C ... : ... .. . ... ... : ... .. . ... ... : ... .. . ... ... : ... .. 8 ... ...
ROW DE : ... .. . ... ... ... : ... .. . ... ... ... : A#3 00 . ... : ... .. A ... : ... .. . ... ... : ... .. . ... ... : ... .. 5 ... ... : ... .. 5 ... ...
ROW DF : C-5 00 A P7E ... ... : ... .. . P84 ... ... : A-3 00 . ... : ... .. 8 ... : ... .. . ... ... : ... .. . ... ... : ... .. 4 ... ... : ... .. . ... ...
ROW E0 : ... .. . P80 ... ... : F-4 00 A P7C ... ... : E-3 00 . ... : ... .. 7 ... : ... .. . ... ... : ... .. . ... ... : ... .. . ... ... : ... .. . ... ...
ROW E1 : ... .. . P7F ... ... : E-4 00 A P85 ... ... : --- .. . ... : ... .. 4 ... : ... .. . ... ... : ... .. . ... ... : ... .. . ... ... : ... .. . ... ...
ROW E2 : B-4 00 A P82 ... ... : ... .. . P82 ... ... : E-2 00 . ... : 1-# 00 F ... : ... .. . ... ... : ... .. . ... ... : G#4 01 6 ... ... : A#4 01 A ... ...
ROW E3 : ... .. . P7E ... ... : ... .. . P7E ... ... : ... .. . ... : ... .. C ... : ... .. . ... ... : ... .. . ... ... : ... .. . ... ... : ... .. 8 ... ...
ROW E4 : A#4 00 A P82 ... ... : D#4 00 A P85 ... ... : ... .. . ... : ... .. 6 ... : ... .. . ... ... : ... .. . ... ... : ... .. 5 ... ... : ... .. 5 ... ...
ROW E5 : ... .. . P81 ... ... : ... .. . P84 ... ... : ... .. . ... : ... .. 3 ... : ... .. . ... ... : ... .. . ... ... : ... .. 4 ... ... : ... .. . ... ...
ROW E6 : ... .. . P83 ... ... : E-4 00 A P7C ... ... : ... .. . ... : ... .. 2 ... : ... .. . ... ... : ... .. . ... ... : ... .. . ... ... : ... .. . ... ...
ROW E7 : B-4 00 A P80 ... ... : ... .. . P80 ... ... : ... .. . ... : ... .. 0 ... : ... .. . ... ... : ... .. . ... ... : ... .. . ... ... : ... .. . ... ...
ROW E8 : G#4 00 F ... ... ... : C#4 00 F ... ... ... : ... .. . ... : C-# 00 4 ... : ... .. . ... ... : F#4 01 9 ... ... : A#4 01 6 ... ... : B-4 01 A ... ...
ROW E9 : ... .. E ... ... ... : ... .. E ... ... ... : ... .. . ... : ... .. 3 ... : ... .. . ... ... : ... .. 8 ... ... : ... .. . ... ... : ... .. 8 ... ...
ROW EA : ... .. D ... ... ... : ... .. D ... ... ... : ... .. . ... : ... .. 1 ... : ... .. . ... ... : ... .. . ... ... : ... .. 5 ... ... : ... .. 5 ... ...
ROW EB : ... .. A ... ... ... : ... .. A ... ... ... : ... .. . ... : ... .. . ... : ... .. . ... ... : ... .. . ... ... : ... .. 4 ... ... : ... .. . ... ...
ROW EC : ... .. . ... ... ... : ... .. . ... ... ... : ... .. . ... : ... .. . ... : ... .. . ... ... : ... .. 7 ... ... : ... .. . ... ... : ... .. . ... ...
ROW ED : ... .. . ... ... ... : ... .. . ... ... ... : --- .. . ... : ... .. 0 ... : ... .. . ... ... : ... .. . ... ... : ... .. . ... ... : ... .. . ... ...
ROW EE : A#4 00 F ... ... ... : D#4 00 F ... ... ... : E-2 00 . ... : 1-# 00 F ... : ... .. . ... ... : ... .. . ... ... : B-4 01 6 ... ... : C#5 01 A ... ...
ROW EF : ... .. E ... ... ... : ... .. E ... ... ... : ... .. . ... : ... .. C ... : ... .. . ... ... : ... .. 6 ... ... : ... .. . ... ... : ... .. 8 ... ...
ROW F0 : ... .. D ... ... ... : ... .. D ... ... ... : ... .. . ... : ... .. 6 ... : ... .. . ... ... : ... .. . ... ... : ... .. 5 ... ... : ... .. 5 ... ...
ROW F1 : ... .. A ... ... ... : ... .. A ... ... ... : ... .. . ... : ... .. 3 ... : ... .. . ... ... : ... .. . ... ... : ... .. 4 ... ... : ... .. . ... ...
ROW F2 : ... .. 2 ... ... ... : ... .. 2 ... ... ... : ... .. . ... : ... .. 2 ... : ... .. . ... ... : ... .. . ... ... : ... .. . ... ... : ... .. . ... ...
ROW F3 : ... .. . ... ... ... : ... .. . ... ... ... : --- .. . ... : ... .. 0 ... : ... .. . ... ... : ... .. . ... ... : ... .. . ... ... : ... .. . ... ...
ROW F4 : B-4 00 F ... ... ... : E-4 00 F ... ... ... : D#5 00 . ... : 7-# 00 F ... : ... .. . ... ... : G#4 01 9 ... ... : A#4 01 6 ... ... : D#5 01 A ... ...
ROW F5 : ... .. E ... ... ... : ... .. E ... ... ... : F-4 00 . ... : ... .. C ... : ... .. . ... ... : ... .. 8 ... ... : ... .. . ... ... : ... .. 8 ... ...
ROW F6 : ... .. D ... ... ... : ... .. D ... ... ... : A#3 00 . ... : ... .. A ... : ... .. . ... ... : ... .. . ... ... : ... .. 5 ... ... : ... .. 5 ... ...
ROW F7 : ... .. A ... ... ... : ... .. A ... ... ... : A-3 00 . ... : ... .. 8 ... : ... .. . ... ... : ... .. . ... ... : ... .. 4 ... ... : ... .. . ... ...
ROW F8 : ... .. 2 ... ... ... : ... .. 2 ... ... ... : E-3 00 . ... : ... .. 7 ... : ... .. . ... ... : ... .. 7 ... ... : ... .. . ... ... : ... .. . ... ...
ROW F9 : ... .. . ... ... ... : ... .. . ... ... ... : ... .. . ... : ... .. 4 ... : ... .. . ... ... : ... .. . ... ... : ... .. . ... ... : ... .. . ... ...
ROW FA : G#4 00 F ... ... ... : C#4 00 F ... ... ... : ... .. . ... : C-# 00 4 ... : ... .. . ... ... : ... .. . ... ... : G#4 01 6 ... ... : E-5 01 A ... ...
ROW FB : ... .. E ... ... ... : ... .. E ... ... ... : ... .. . ... : ... .. 3 ... : ... .. . ... ... : ... .. 6 ... ... : ... .. . ... ... : ... .. 8 ... ...
ROW FC : ... .. D ... ... ... : ... .. D ... ... ... : ... .. . ... : ... .. 1 ... : ... .. . ... ... : ... .. . ... ... : ... .. 5 ... ... : ... .. 5 ... ...
ROW FD : ... .. A ... ... ... : ... .. A ... ... ... : ... .. . ... : ... .. . ... : ... .. . ... ... : ... .. . ... ... : ... .. 4 ... ... : ... .. . ... ...
ROW FE : ... .. 2 ... ... ... : ... .. 2 ... ... ... : ... .. . ... : ... .. . ... : ... .. . ... ... : ... .. . ... ... : ... .. . ... ... : ... .. . ... ...
ROW FF : ... .. . ... ... ... : ... .. . ... ... ... : --- .. . ... : ... .. 0 ... : ... .. . ... ... : ... .. . ... ... : ... .. . ... ... : ... .. . ... ...

PATTERN 09
ROW 00 : A#4 00 F ... ... ... : D#4 00 F ... ... ... : D-4 00 . ... : 1-# 00 F ... : ... .. . ... ... : D#4 01 9 ... ... : F-4 01 6 ... ... : D#5 01 A ... ...
ROW 01 : ... .. E ... ... ... : ... .. E ... ... ... : E-3 00 . ... : ... .. C ... : ... .. . ... ... : ... .. 8 ... ... : ... .. . ... ... : ... .. 8 ... ...
ROW 02 : ... .. D ... ... ... : ... .. D ... ... ... : A-2 00 . ... : ... .. 6 ... : ... .. . ... ... : ... .. . ... ... : ... .. 5 ... ... : ... .. 5 ... ...
ROW 03 : ... .. A ... ... ... : ... .. A ... ... ... : G#2 00 . ... : ... .. 3 ... : ... .. . ... ... : ... .. . ... ... : ... .. 4 ... ... : ... .. . ... ...
ROW 04 : ... .. . ... ... ... : ... .. . ... ... ... : D#2 00 . ... : ... .. 2 ... : ... .. . ... ... : ... .. 7 ... ... : ... .. . ... ... : ... .. . ... ...
ROW 05 : ... .. . ... ... ... : ... .. . ... ... ... : ... .. . ... : ... .. 0 ... : ... .. . ... ... : ... .. . ... ... : ... .. . ... ... : ... .. . ... ...
ROW 06 : ... .. . ... ... ... : ... .. . ... ... ... : ... .. . ... : ... .. F ... : ... .. . ... ... : C#4 01 9 ... ... : F#4 01 6 ... ... : F#5 01 A ... ...
ROW 07 : ... .. . ... ... ... : ... .. . ... ... ... : ... .. . ... : ... .. C ... : ... .. . ... ... : ... .. 8 ... ... : ... .. . ... ... : ... .. 8 ... ...
ROW 08 : ... .. . ... ... ... : ... .. . ... ... ... : ... .. . ... : ... .. 6 ... : ... .. . ... ... : ... .. . ... ... : ... .. 5 ... ... : ... .. 5 ... ...
ROW 09 : ... .. . ... ... ... : ... .. . ... ... ... : ... .. . ... : ... .. 3 ... : ... .. . ... ... : ... .. . ... ... : ... .. 4 ... ... : ... .. . ... ...
ROW 0A : ... .. . ... ... ... : ... .. . ... ... ... : ... .. . ... : ... .. 2 ... : ... .. . ... ... : ... .. 7 ... ... : ... .. . ... ... : ... .. . ... ...
ROW 0B : ... .. . ... ... ... : ... .. . ... ... ... : --- .. . ... : ... .. 0 ... : ... .. . ... ... : ... .. . ... ... : ... .. . ... ... : ... .. . ... ...
ROW 0C : ... .. . ... ... ... : ... .. . ... ... ... : D-5 00 . ... : 7-# 00 F ... : ... .. . ... ... : D#4 01 9 ... ... : F-4 01 6 ... ... : D#5 01 A ... ...
ROW 0D : ... .. 2 ... ... ... : ... .. 2 ... ... ... : E-4 00 . ... : ... .. C ... : ... .. . ... ... : ... .. 8 ... ... : ... .. . ... ... : ... .. 8 ... ...
ROW 0E : ... .. . ... ... ... : ... .. . ... ... ... : A-3 00 . ... : ... .. A ... : ... .. . ... ... : ... .. . ... ... : ... .. 5 ... ... : ... .. 5 ... ...
ROW 0F : ... .. . ... ... ... : ... .. . ... ... ... : G#3 00 . ... : ... .. 8 ... : ... .. . ... ... : ... .. . ... ... : ... .. 4 ... ... : ... .. . ... ...
ROW 10 : ... .. 1 ... ... ... : ... .. 1 ... ... ... : D#3 00 . ... : ... .. 7 ... : ... .. . ... ... : ... .. 7 ... ... : ... .. . ... ... : ... .. . ... ...
ROW 11 : ... .. . ... ... ... : ... .. . ... ... ... : --- .. . ... : ... .. 4 ... : ... .. . ... ... : ... .. . ... ... : ... .. . ... ... : ... .. . ... ...
ROW 12 : D#4 00 F ... ... ... : F#3 00 F ... ... ... : D#2 00 . ... : C-# 00 4 ... : ... .. . ... ... : ... .. . ... ... : F#4 01 6 ... ... : A#4 01 A ... ...
ROW 13 : ... .. E ... ... ... : ... .. E ... ... ... : ... .. . ... : ... .. 3 ... : ... .. . ... ... : ... .. 6 ... ... : ... .. . ... ... : ... .. 8 ... ...
ROW 14 : ... .. D ... ... ... : ... .. D ... ... ... : ... .. . ... : ... .. 1 ... : ... .. . ... ... : ... .. . ... ... : ... .. 5 ... ... : ... .. 5 ... ...
ROW 15 : ... .. A ... ... ... : ... .. A ... ... ... : ... .. . ... : ... .. . ... : ... .. . ... ... : ... .. . ... ... : ... .. 4 ... ... : ... .. . ... ...
ROW 16 : ... .. 2 ... ... ... : ... .. 2 ... ... ... : ... .. . ... : ... .. . ... : ... .. . ... ... : ... .. . ... ... : ... .. . ... ... : ... .. . ... ...
ROW 17 : ... .. . ... ... ... : ... .. . ... ... ... : ... .. . ... : ... .. 0 ... : ... .. . ... ... : ... .. . ... ... : ... .. . ... ... : ... .. . ... ...
ROW 18 : ... .. F ... ... ... : ... .. F ... ... ... : ... .. . ... : 1-# 00 F ... : ... .. . ... ... : F#3 01 6 ... ... : G#4 01 6 ... ... : F#4 01 A ... ...
ROW 19 : ... .. E ... ... ... : ... .. E ... ... ... : ... .. . ... : ... .. C ... : ... .. . ... ... : ... .. 5 ... ... : ... .. . ... ... : ... .. 8 ... ...
ROW 1A : ... .. D ... ... ... : ... .. D ... ... ... : ... .. . ... : ... .. 6 ... : ... .. . ... ... : ... .. . ... ... : ... .. 5 ... ... : ... .. 5 ... ...
ROW 1B : ... .. A ... ... ... : ... .. A ... ... ... : ... .. . ... : ... .. 3 ... : ... .. . ... ... : ... .. . ... ... : ... .. 4 ... ... : ... .. . ... ...
ROW 1C : ... .. . ... ... ... : ... .. . ... ... ... : ... .. . ... : ... .. 2 ... : ... .. . ... ... : ... .. 4 ... ... : ... .. . ... ... : ... .. . ... ...
ROW 1D : ... .. . ... ... ... : ... .. . ... ... ... : --- .. . ... : ... .. 0 ... : ... .. . ... ... : ... .. . ... ... : ... .. . ... ... : ... .. . ... ...
ROW 1E : ... .. . ... ... ... : ... .. . ... ... ... : D#2 00 . ... : ... .. F ... : ... .. . ... ... : ... .. . ... ... : A#4 01 6 ... ... : D#4 01 A ... ...
ROW 1F : ... .. . ... ... ... : ... .. . ... ... ... : ... .. . ... : ... .. C ... : ... .. . ... ... : ... .. . ... ... : ... .. . ... ... : ... .. 8 ... ...
ROW 20 : ... .. . ... ... ... : ... .. . ... ... ... : ... .. . ... : ... .. 6 ... : ... .. . ... ... : ... .. . ... ... : ... .. 5 ... ... : ... .. 5 ... ...
ROW 21 : ... .. . ... ... ... : ... .. . ... ... ... : ... .. . ... : ... .. 3 ... : ... .. . ... ... : ... .. . ... ... : ... .. 4 ... ... : ... .. . ... ...
ROW 22 : ... .. . ... ... ... : ... .. . ... ... ... : ... .. . ... : ... .. 2 ... : ... .. . ... ... : ... .. . ... ... : ... .. . ... ... : ... .. . ... ...
ROW 23 : ... .. . ... ... ... : ... .. . ... ... ... : --- .. . ... : ... .. 0 ... : ... .. . ... ... : ... .. . ... ... : ... .. . ... ... : ... .. . ... ...
ROW 24 : ... .. . ... ... ... : ... .. . ... ... ... : D-5 00 . ... : 7-# 00 F ... : ... .. . ... ... : ... .. . ... ... : G#4 01 6 ... ... : A#3 01 A ... ...
ROW 25 : ... .. . ... ... ... : ... .. . ... ... ... : E-4 00 . ... : ... .. C ... : ... .. . ... ... : ... .. . ... ... : ... .. . ... ... : ... .. 8 ... ...
ROW 26 : ... .. . ... ... ... : ... .. . ... ... ... : A-3 00 . ... : ... .. A ... : ... .. . ... ... : ... .. . ... ... : ... .. 5 ... ... : ... .. 5 ... ...
ROW 27 : ... .. . ... ... ... : ... .. . ... ... ... : G#3 00 . ... : ... .. 8 ... : ... .. . ... ... : ... .. . ... ... : ... .. 4 ... ... : ... .. . ... ...
ROW 28 : ... .. . ... ... ... : ... .. . ... ... ... : D#3 00 . ... : ... .. 7 ... : ... .. . ... ... : ... .. . ... ... : ... .. . ... ... : ... .. . ... ...
ROW 29 : ... .. . ... ... ... : ... .. . ... ... ... : ... .. . ... : ... .. 4 ... : ... .. . ... ... : ... .. . ... ... : ... .. . ... ... : ... .. . ... ...
ROW 2A : ... .. . ... ... ... : ... .. . ... ... ... : ... .. . ... : C-# 00 4 ... : ... .. . ... ... : ... .. . ... ... : D#4 01 6 ... ... : F#3 01 A ... ...
ROW 2B : ... .. 2 ... ... ... : ... .. 2 ... ... ... : ... .. . ... : ... .. 3 ... : ... .. . ... ... : ... .. . ... ... : ... .. . ... ... : ... .. 8 ... ...
ROW 2C : ... .. . ... ... ... : ... .. . ... ... ... : ... .. . ... : ... .. 1 ... : ... .. . ... ... : ... .. . ... ... : ... .. 5 ... ... : ... .. 5 ... ...
ROW 2D : ... .. . ... ... ... : ... .. . ... ... ... : ... .. . ... : ... .. . ... : ... .. . ... ... : ... .. . ... ... : ... .. 4 ... ... : ... .. . ... ...
ROW 2E : ... .. 1 ... ... ... : ... .. 1 ... ... ... : ... .. . ... : ... .. . ... : ... .. . ... ... : ... .. . ... ... : ... .. . ... ... : ... .. . ... ...
ROW 2F : ... .. . ... ... ... : ... .. . ... ... ... : --- .. . ... : ... .. 0 ... : ... .. . ... ... : ... .. . ... ... : ... .. . ... ... : ... .. . ... ...
ROW 30 : A#4 00 F ... V02 ... : A#3 00 F P81 ... ... : D-4 00 . ... : 1-# 00 F ... : ... .. . ... ... : G#3 01 6 ... ... : F-4 01 6 ... ... : D#3 01 A ... ...
ROW 31 : ... .. E ... ... ... : ... .. E ... ... ... : E-3 00 . ... : ... .. C ... : ... .. . ... ... : ... .. 5 ... ... : ... .. . ... ... : ... .. 8 ... ...
ROW 32 : ... .. D ... ... ... : ... .. D ... ... ... : A-2 00 . ... : ... .. 6 ... : ... .. . ... ... : ... .. . ... ... : ... .. 5 ... ... : ... .. 5 ... ...
ROW 33 : ... .. A ... ... ... : ... .. A ... ... ... : G#2 00 . ... : ... .. 3 ... : ... .. . ... ... : ... .. . ... ... : ... .. 4 ... ... : ... .. . ... ...
ROW 34 : ... .. . ... ... ... : ... .. . ... ... ... : D#2 00 . ... : ... .. 2 ... : ... .. . ... ... : ... .. 4 ... ... : ... .. . ... ... : ... .. . ... ...
ROW 35 : ... .. . ... ... ... : ... .. . ... ... ... : ... .. . ... : ... .. 0 ... : ... .. . ... ... : ... .. . ... ... : ... .. . ... ... : ... .. . ... ...
ROW 36 : ... .. . ... ... ... : ... .. . ... ... ... : ... .. . ... : ... .. F ... : ... .. . ... ... : ... .. . ... ... : F#4 01 6 ... ... : D#2 01 A ... ...
ROW 37 : ... .. . ... ... ... : ... .. . ... ... ... : ... .. . ... : ... .. C ... : ... .. . ... ... : ... .. . ... ... : ... .. . ... ... : ... .. 8 ... ...
ROW 38 : ... .. . ... ... ... : ... .. . ... ... ... : ... .. . ... : ... .. 6 ... : ... .. . ... ... : ... .. . ... ... : ... .. 5 ... ... : ... .. 5 ... ...
ROW 39 : ... .. . ... ... ... : ... .. . ... ... ... : ... .. . ... : ... .. 3 ... : ... .. . ... ... : ... .. . ... ... : ... .. 4 ... ... : ... .. . ... ...
ROW 3A : ... .. . ... ... ... : ... .. . ... ... ... : ... .. . ... : ... .. 2 ... : ... .. . ... ... : ... .. . ... ... : ... .. . ... ... : ... .. . ... ...
ROW 3B : ... .. . ... ... ... : ... .. . ... ... ... : --- .. . ... : ... .. 0 ... : ... .. . ... ... : ... .. . ... ... : ... .. . ... ... : ... .. . ... ...
ROW 3C : ... .. . ... ... ... : ... .. . ... ... ... : D-5 00 . ... : 7-# 00 F ... : ... .. . ... ... : ... .. . ... ... : F-4 01 6 ... ... : ... .. A ... ...
ROW 3D : ... .. 2 ... ... ... : ... .. 2 ... ... ... : E-4 00 . ... : ... .. C ... : ... .. . ... ... : ... .. . ... ... : ... .. . ... ... : ... .. 8 ... ...
ROW 3E : ... .. . ... ... ... : ... .. . ... ... ... : A-3 00 . ... : ... .. A ... : ... .. . ... ... : ... .. . ... ... : ... .. 5 ... ... : ... .. 5 ... ...
ROW 3F : ... .. . ... ... ... : ... .. . ... ... ... : G#3 00 . ... : ... .. 8 ... : ... .. . ... ... : ... .. . ... ... : ... .. 4 ... ... : ... .. . ... ...
ROW 40 : ... .. 1 ... ... ... : ... .. 1 ... ... ... : D#3 00 . ... : ... .. 7 ... : ... .. . ... ... : ... .. . ... ... : ... .. . ... ... : ... .. . ... ...
ROW 41 : ... .. . ... ... ... : ... .. . ... ... ... : --- .. . ... : ... .. 4 ... : ... .. . ... ... : ... .. . ... ... : ... .. . ... ... : ... .. . ... ...
ROW 42 : D#4 00 F ... ... ... : D#3 00 F ... ... ... : D#2 00 . ... : 1-# 00 F ... : ... .. . ... ... : ... .. . ... ... : F#4 01 6 ... ... : D#3 01 A ... ...
ROW 43 : ... .. E ... ... ... : ... .. E ... ... ... : ... .. . ... : ... .. C ... : ... .. . ... ... : ... .. . ... ... : ... .. . ... ... : ... .. 8 ... ...
ROW 44 : ... .. D ... ... ... : ... .. D ... ... ... : ... .. . ... : ... .. 6 ... : ... .. . ... ... : ... .. . ... ... : ... .. 5 ... ... : ... .. 5 ... ...
ROW 45 : ... .. A ... ... ... : ... .. A ... ... ... : ... .. . ... : ... .. 3 ... : ... .. . ... ... : ... .. . ... ... : ... .. 4 ... ... : ... .. . ... ...
ROW 46 : ... .. 2 ... ... ... : ... .. 2 ... ... ... : ... .. . ... : ... .. 2 ... : ... .. . ... ... : ... .. . ... ... : ... .. . ... ... : ... .. . ... ...
ROW 47 : ... .. . ... ... ... : ... .. . ... ... ... : ... .. . ... : ... .. 0 ... : ... .. . ... ... : ... .. . ... ... : ... .. . ... ... : ... .. . ... ...
ROW 48 : ... .. F ... ... ... : ... .. F ... ... ... : ... .. . ... : C-# 00 4 ... : ... .. . ... ... : A#3 01 6 ... ... : G#4 01 6 ... ... : ... .. . ... ...
ROW 49 : ... .. E ... ... ... : ... .. E ... ... ... : ... .. . ... : ... .. 3 ... : ... .. . ... ... : ... .. 5 ... ... : ... .. . ... ... : ... .. . ... ...
ROW 4A : ... .. D ... ... ... : ... .. D ... ... ... : ... .. . ... : ... .. 1 ... : ... .. . ... ... : ... .. . ... ... : ... .. 5 ... ... : ... .. . ... ...
ROW 4B : ... .. A ... ... ... : ... .. A ... ... ... : ... .. . ... : ... .. . ... : ... .. . ... ... : ... .. . ... ... : ... .. 4 ... ... : ... .. . ... ...
ROW 4C : ... .. . ... ... ... : ... .. . ... ... ... : ... .. . ... : ... .. . ... : ... .. . ... ... : ... .. 4 ... ... : ... .. . ... ... : ... .. . ... ...
ROW 4D : ... .. . ... ... ... : ... .. . ... ... ... : --- .. . ... : ... .. 0 ... : ... .. . ... ... : ... .. . ... ... : ... .. . ... ... : ... .. . ... ...
ROW 4E : ... .. . ... ... ... : ... .. . ... ... ... : D#2 00 . ... : 1-# 00 F ... : ... .. . ... ... : ... .. . ... ... : A#4 01 6 ... ... : ... .. A ... ...
ROW 4F : ... .. . ... ... ... : ... .. . ... ... ... : ... .. . ... : ... .. C ... : ... .. . ... ... : ... .. . ... ... : ... .. . ... ... : ... .. 8 ... ...
ROW 50 : ... .. . ... ... ... : ... .. . ... ... ... : ... .. . ... : ... .. 6 ... : ... .. . ... ... : ... .. . ... ... : ... .. 5 ... ... : ... .. 5 ... ...
ROW 51 : ... .. . ... ... ... : ... .. . ... ... ... : ... .. . ... : ... .. 3 ... : ... .. . ... ... : ... .. . ... ... : ... .. 4 ... ... : ... .. . ... ...
ROW 52 : ... .. 2 ... ... ... : ... .. 2 ... ... ... : ... .. . ... : ... .. 2 ... : ... .. . ... ... : ... .. . ... ... : ... .. . ... ... : ... .. . ... ...
ROW 53 : ... .. . ... ... ... : ... .. . ... ... ... : --- .. . ... : ... .. 0 ... : ... .. . ... ... : ... .. . ... ... : ... .. . ... ... : ... .. . ... ...
ROW 54 : G#4 00 F ... V00 ... : G#4 00 F ... V00 ... : D-5 00 . ... : 7-# 00 F ... : ... .. . ... ... : ... .. . ... ... : G#4 01 6 ... ... : ... .. . ... ...
ROW 55 : ... .. E ... ... ... : ... .. E ... ... ... : E-4 00 . ... : ... .. C ... : ... .. . ... ... : ... .. . ... ... : ... .. . ... ... : ... .. . ... ...
ROW 56 : ... .. D ... ... ... : ... .. D ... ... ... : A-3 00 . ... : ... .. A ... : ... .. . ... ... : ... .. . ... ... : ... .. 5 ... ... : ... .. . ... ...
ROW 57 : ... .. A ... ... ... : ... .. A ... ... ... : G#3 00 . ... : ... .. 8 ... : ... .. . ... ... : ... .. . ... ... : ... .. 4 ... ... : ... .. . ... ...
ROW 58 : ... .. . ... ... ... : ... .. . ... ... ... : D#3 00 . ... : ... .. 7 ... : ... .. . ... ... : ... .. . ... ... : ... .. . ... ... : ... .. . ... ...
ROW 59 : ... .. . ... ... ... : ... .. . ... ... ... : ... .. . ... : ... .. 4 ... : ... .. . ... ... : ... .. . ... ... : ... .. . ... ... : ... .. . ... ...
ROW 5A : A#4 00 F ... ... ... : A#4 00 F ... ... ... : ... .. . ... : C-# 00 4 ... : ... .. . ... ... : ... .. . ... ... : F#4 01 6 ... ... : D#2 01 A ... ...
ROW 5B : ... .. E ... ... ... : ... .. E ... ... ... : ... .. . ... : ... .. 3 ... : ... .. . ... ... : ... .. . ... ... : ... .. . ... ... : ... .. 8 ... ...
ROW 5C : ... .. D ... ... ... : ... .. D ... ... ... : ... .. . ... : ... .. 1 ... : ... .. . ... ... : ... .. . ... ... : ... .. 5 ... ... : ... .. 5 ... ...
ROW 5D : ... .. A ... ... ... : ... .. A ... ... ... : ... .. . ... : ... .. 4 ... : ... .. . ... ... : ... .. . ... ... : ... .. 4 ... ... : ... .. . ... ...
ROW 5E : ... .. . ... ... ... : ... .. . ... ... ... : ... .. . ... : ... .. 3 ... : ... .. . ... ... : ... .. . ... ... : ... .. . ... ... : ... .. . ... ...
ROW 5F : ... .. . ... ... ... : ... .. . ... ... ... : --- .. . ... : ... .. 1 ... : ... .. . ... ... : ... .. . ... ... : ... .. . ... ... : ... .. . ... ...
ROW 60 : B-4 00 F ... ... ... : E-4 00 6 ... ... ... : D#4 00 . ... : 3-# 00 D ... : ... .. . ... ... : C#4 01 A ... V03 : B-4 01 6 ... ... : G#4 01 A ... ...
ROW 61 : ... .. E ... ... ... : ... .. 5 ... ... ... : F-3 00 . ... : ... .. . ... : ... .. . ... ... : ... .. 9 ... ... : ... .. . ... ... : ... .. 8 ... ...
ROW 62 : ... .. D ... ... ... : ... .. . ... ... ... : A#2 00 . ... : F-# 00 D ... : ... .. . ... ... : ... .. 8 ... ... : ... .. 5 ... ... : ... .. 5 ... ...
ROW 63 : ... .. A ... ... ... : ... .. . ... ... ... : A-2 00 . ... : D-# 00 6 ... : ... .. . ... ... : ... .. 7 ... ... : ... .. 4 ... ... : ... .. . ... ...
ROW 64 : ... .. . ... ... ... : ... .. 4 ... ... ... : E-2 00 . ... : 9-# 00 1 ... : ... .. . ... ... : ... .. . ... ... : ... .. . ... ... : ... .. . ... ...
ROW 65 : ... .. . ... ... ... : ... .. 3 ... ... ... : ... .. . ... : ... .. 0 ... : ... .. . ... ... : ... .. 6 ... ... : ... .. . ... ... : ... .. . ... ...
ROW 66 : ... .. . ... ... ... : B-3 00 6 ... ... ... : ... .. . ... : 1-# 00 F ... : ... .. . ... ... : ... .. . ... ... : G#4 01 6 ... ... : E-4 01 A ... ...
ROW 67 : ... .. . ... ... ... : ... .. 5 ... ... ... : ... .. . ... : ... .. C ... : ... .. . ... ... : ... .. 5 ... ... : ... .. . ... ... : ... .. 8 ... ...
ROW 68 : ... .. . ... ... ... : ... .. . ... ... ... : ... .. . ... : ... .. 6 ... : ... .. . ... ... : ... .. . ... ... : ... .. 5 ... ... : ... .. 5 ... ...
ROW 69 : ... .. . ... ... ... : ... .. . ... ... ... : ... .. . ... : ... .. 3 ... : ... .. . ... ... : ... .. . ... ... : ... .. 4 ... ... : ... .. . ... ...
ROW 6A : ... .. . ... ... ... : ... .. 4 ... ... ... : ... .. . ... : ... .. 2 ... : ... .. . ... ... : ... .. . ... ... : ... .. . ... ... : ... .. . ... ...
ROW 6B : ... .. . ... ... ... : ... .. 3 ... ... ... : --- .. . ... : ... .. 0 ... : ... .. . ... ... : ... .. . ... ... : ... .. . ... ... : ... .. . ... ...
ROW 6C : A-4 00 A P7E ... ... : E-4 00 6 ... ... ... : D#5 00 . ... : ... .. F ... : ... .. . ... ... : ... .. . ... ... : E-4 01 6 ... ... : B-3 01 A ... ...
ROW 6D : G-4 00 A ... ... ... : ... .. 5 ... ... ... : F-4 00 . ... : ... .. C ... : ... .. . ... ... : ... .. . ... ... : ... .. . ... ... : ... .. 8 ... ...
ROW 6E : F-4 00 A P7F ... ... : ... .. . ... ... ... : A#3 00 . ... : ... .. 6 ... : ... .. . ... ... : ... .. . ... ... : ... .. 5 ... ... : ... .. 5 ... ...
ROW 6F : D#4 00 A P83 ... ... : ... .. . ... ... ... : A-3 00 . ... : ... .. 3 ... : ... .. . ... ... : ... .. . ... ... : ... .. 4 ... ... : ... .. . ... ...
ROW 70 : D-4 00 A P7D ... ... : ... .. 4 ... ... ... : E-3 00 . ... : ... .. 2 ... : ... .. . ... ... : ... .. . ... ... : ... .. . ... ... : ... .. . ... ...
ROW 71 : C-4 00 A P85 ... ... : ... .. 3 ... ... ... : --- .. . ... : ... .. 0 ... : ... .. . ... ... : ... .. . ... ... : ... .. . ... ... : ... .. . ... ...
ROW 72 : G#5 00 F P80 ... ... : G#4 00 6 ... ... ... : E-2 00 . ... : 3-# 00 D ... : ... .. . ... ... : E-4 01 A ... ... : E-5 01 6 ... ... : B-4 01 A ... ...
ROW 73 : ... .. E ... ... ... : ... .. 5 ... ... ... : ... .. . ... : ... .. . ... : ... .. . ... ... : ... .. 9 ... ... : ... .. . ... ... : ... .. 8 ... ...
ROW 74 : ... .. D ... ... ... : ... .. . ... ... ... : ... .. . ... : F-# 00 D ... : ... .. . ... ... : ... .. 8 ... ... : ... .. 5 ... ... : ... .. 5 ... ...
ROW 75 : ... .. A ... ... ... : ... .. . ... ... ... : ... .. . ... : D-# 00 6 ... : ... .. . ... ... : ... .. 7 ... ... : ... .. 4 ... ... : ... .. . ... ...
ROW 76 : ... .. . ... ... ... : ... .. 4 ... ... ... : ... .. . ... : 9-# 00 1 ... : ... .. . ... ... : ... .. . ... ... : ... .. . ... ... : ... .. . ... ...
ROW 77 : ... .. . ... ... ... : ... .. 3 ... ... ... : ... .. . ... : ... .. 0 ... : ... .. . ... ... : ... .. 6 ... ... : ... .. . ... ... : ... .. . ... ...
ROW 78 : ... .. . ... ... ... : E-4 00 6 ... ... ... : ... .. . ... : 1-# 00 F ... : ... .. . ... ... : ... .. . ... ... : B-4 01 6 ... ... : G#4 01 A ... ...
ROW 79 : ... .. . ... ... ... : ... .. 5 ... ... ... : ... .. . ... : ... .. C ... : ... .. . ... ... : ... .. 5 ... ... : ... .. . ... ... : ... .. 8 ... ...
ROW 7A : ... .. . ... ... ... : ... .. . ... ... ... : ... .. . ... : ... .. 6 ... : ... .. . ... ... : ... .. . ... ... : ... .. 5 ... ... : ... .. 5 ... ...
ROW 7B : ... .. . ... ... ... : ... .. . ... ... ... : ... .. . ... : ... .. 3 ... : ... .. . ... ... : ... .. . ... ... : ... .. 4 ... ... : ... .. . ... ...
ROW 7C : ... .. . ... ... ... : ... .. 4 ... ... ... : ... .. . ... : ... .. 2 ... : ... .. . ... ... : ... .. . ... ... : ... .. . ... ... : ... .. . ... ...
ROW 7D : ... .. . ... ... ... : ... .. 3 ... ... ... : --- .. . ... : ... .. 0 ... : ... .. . ... ... : ... .. . ... ... : ... .. . ... ... : ... .. . ... ...
ROW 7E : E-5 00 A P82 ... ... : G#4 00 6 ... ... ... : E-2 00 . ... : ... .. F ... : ... .. . ... ... : ... .. . ... ... : G#4 01 6 ... ... : E-4 01 A ... ...
ROW 7F : C#5 00 A ... ... ... : ... .. 5 ... ... ... : ... .. . ... : ... .. C ... : ... .. . ... ... : ... .. . ... ... : ... .. . ... ... : ... .. 8 ... ...
ROW 80 : B-4 00 A P7E ... ... : ... .. . ... ... ... : ... .. . ... : ... .. 6 ... : ... .. . ... ... : ... .. . ... ... : ... .. 5 ... ... : ... .. 5 ... ...
ROW 81 : G#4 00 A P84 ... ... : ... .. . ... ... ... : ... .. . ... : ... .. 3 ... : ... .. . ... ... : ... .. . ... ... : ... .. 4 ... ... : ... .. . ... ...
ROW 82 : F#4 00 A ... ... ... : ... .. 4 ... ... ... : ... .. . ... : ... .. 2 ... : ... .. . ... ... : ... .. . ... ... : ... .. . ... ... : ... .. . ... ...
ROW 83 : F-4 00 A P7D ... ... : ... .. 3 ... ... ... : --- .. . ... : ... .. 0 ... : ... .. . ... ... : ... .. . ... ... : ... .. . ... ... : ... .. . ... ...
ROW 84 : F#5 00 F P80 ... ... : F#4 00 6 ... ... ... : D-4 00 . ... : 3-# 00 D ... : ... .. . ... ... : D#4 01 A ... ... : D#5 01 6 ... ... : A#4 01 A ... ...
ROW 85 : ... .. E ... ... ... : ... .. 5 ... ... ... : E-3 00 . ... : ... .. . ... : ... .. . ... ... : ... .. 9 ... ... : ... .. . ... ... : ... .. 8 ... ...
ROW 86 : ... .. D ... ... ... : ... .. . ... ... ... : A-2 00 . ... : F-# 00 D ... : ... .. . ... ... : ... .. 8 ... ... : ... .. 5 ... ... : ... .. 5 ... ...
ROW 87 : ... .. A ... ... ... : ... .. . ... ... ... : G#2 00 . ... : D-# 00 6 ... : ... .. . ... ... : ... .. 7 ... ... : ... .. 4 ... ... : ... .. . ... ...
ROW 88 : ... .. . ... ... ... : ... .. 4 ... ... ... : D#2 00 . ... : 9-# 00 1 ... : ... .. . ... ... : ... .. . ... ... : ... .. . ... ... : ... .. . ... ...
ROW 89 : ... .. . ... ... ... : ... .. 3 ... ... ... : ... .. . ... : ... .. 0 ... : ... .. . ... ... : ... .. 6 ... ... : ... .. . ... ... : ... .. . ... ...
ROW 8A : ... .. . ... ... ... : D#4 00 6 ... ... ... : ... .. . ... : 1-# 00 F ... : ... .. . ... ... : ... .. . ... ... : A#4 01 6 ... ... : F#4 01 A ... ...
ROW 8B : ... .. . ... ... ... : ... .. 5 ... ... ... : ... .. . ... : ... .. C ... : ... .. . ... ... : ... .. 5 ... ... : ... .. . ... ... : ... .. 8 ... ...
ROW 8C : ... .. . ... ... ... : ... .. . ... ... ... : ... .. . ... : ... .. 6 ... : ... .. . ... ... : ... .. . ... ... : ... .. 5 ... ... : ... .. 5 ... ...
ROW 8D : ... .. . ... ... ... : ... .. . ... ... ... : ... .. . ... : ... .. 3 ... : ... .. . ... ... : ... .. . ... ... : ... .. 4 ... ... : ... .. . ... ...
ROW 8E : ... .. . ... ... ... : ... .. 4 ... ... ... : ... .. . ... : ... .. 2 ... : ... .. . ... ... : ... .. . ... ... : ... .. . ... ... : ... .. . ... ...
ROW 8F : ... .. . ... ... ... : ... .. 3 ... ... ... : --- .. . ... : ... .. 0 ... : ... .. . ... ... : ... .. . ... ... : ... .. . ... ... : ... .. . ... ...
ROW 90 : D#5 00 A P7E ... ... : F#4 00 6 ... ... ... : D-5 00 . ... : ... .. F ... : ... .. . ... ... : ... .. . ... ... : F#4 01 6 ... ... : D#4 01 A ... ...
ROW 91 : C-5 00 A P7F ... ... : ... .. 5 ... ... ... : E-4 00 . ... : ... .. C ... : ... .. . ... ... : ... .. . ... ... : ... .. . ... ... : ... .. 8 ... ...
ROW 92 : A-4 00 A P83 ... ... : ... .. . ... ... ... : A-3 00 . ... : ... .. 6 ... : ... .. . ... ... : ... .. . ... ... : ... .. 5 ... ... : ... .. 5 ... ...
ROW 93 : G-4 00 A ... ... ... : ... .. . ... ... ... : G#3 00 . ... : ... .. 3 ... : ... .. . ... ... : ... .. . ... ... : ... .. 4 ... ... : ... .. . ... ...
ROW 94 : F-4 00 A P84 ... ... : ... .. 4 ... ... ... : D#3 00 . ... : ... .. 2 ... : ... .. . ... ... : ... .. . ... ... : ... .. . ... ... : ... .. . ... ...
ROW 95 : E-4 00 A P7E ... ... : ... .. 3 ... ... ... : --- .. . ... : ... .. 0 ... : ... .. . ... ... : ... .. . ... ... : ... .. . ... ... : ... .. . ... ...
ROW 96 : A#4 00 F P80 ... ... : A#4 00 6 ... ... ... : D#2 00 . ... : 3-# 00 D ... : ... .. . ... ... : F#3 01 A ... ... : F#5 01 6 ... ... : D#5 01 A ... ...
ROW 97 : ... .. E ... ... ... : ... .. 5 ... ... ... : ... .. . ... : ... .. . ... : ... .. . ... ... : ... .. 9 ... ... : ... .. . ... ... : ... .. 8 ... ...
ROW 98 : ... .. D ... ... ... : ... .. . ... ... ... : ... .. . ... : F-# 00 D ... : ... .. . ... ... : ... .. 8 ... ... : ... .. 5 ... ... : ... .. 5 ... ...
ROW 99 : ... .. A ... ... ... : ... .. . ... ... ... : ... .. . ... : D-# 00 6 ... : ... .. . ... ... : ... .. 7 ... ... : ... .. 4 ... ... : ... .. . ... ...
ROW 9A : ... .. . ... ... ... : ... .. 4 ... ... ... : ... .. . ... : 9-# 00 1 ... : ... .. . ... ... : ... .. . ... ... : ... .. . ... ... : ... .. . ... ...
ROW 9B : ... .. . ... ... ... : ... .. 3 ... ... ... : ... .. . ... : ... .. 0 ... : ... .. . ... ... : ... .. 6 ... ... : ... .. . ... ... : ... .. . ... ...
ROW 9C : ... .. . ... ... ... : F#4 00 6 ... ... ... : ... .. . ... : 1-# 00 F ... : ... .. . ... ... : ... .. . ... ... : D#5 01 6 ... ... : A#4 01 A ... ...
ROW 9D : ... .. . ... ... ... : ... .. 5 ... ... ... : ... .. . ... : ... .. C ... : ... .. . ... ... : ... .. 5 ... ... : ... .. . ... ... : ... .. 8 ... ...
ROW 9E : ... .. . ... ... ... : ... .. . ... ... ... : ... .. . ... : ... .. 6 ... : ... .. . ... ... : ... .. . ... ... : ... .. 5 ... ... : ... .. 5 ... ...
ROW 9F : ... .. . ... ... ... : ... .. . ... ... ... : ... .. . ... : ... .. 3 ... : ... .. . ... ... : ... .. . ... ... : ... .. 4 ... ... : ... .. . ... ...
ROW A0 : ... .. . ... ... ... : ... .. 4 ... ... ... : ... .. . ... : ... .. 2 ... : ... .. . ... ... : ... .. . ... ... : ... .. . ... ... : ... .. . ... ...
ROW A1 : ... .. . ... ... ... : ... .. 3 ... ... ... : --- .. . ... : ... .. 0 ... : ... .. . ... ... : ... .. . ... ... : ... .. . ... ... : ... .. . ... ...
ROW A2 : G#4 00 A P7F ... ... : A#4 00 6 ... ... ... : D#2 00 . ... : ... .. F ... : ... .. . ... ... : ... .. . ... ... : A#4 01 6 ... ... : F#4 01 A ... ...
ROW A3 : F#4 00 A ... ... ... : ... .. 5 ... ... ... : ... .. . ... : ... .. C ... : ... .. . ... ... : ... .. . ... ... : ... .. . ... ... : ... .. 8 ... ...
ROW A4 : E-4 00 A P82 ... ... : ... .. . ... ... ... : ... .. . ... : ... .. 6 ... : ... .. . ... ... : ... .. . ... ... : ... .. 5 ... ... : ... .. 5 ... ...
ROW A5 : D#4 00 A P7C ... ... : ... .. . ... ... ... : ... .. . ... : ... .. 3 ... : ... .. . ... ... : ... .. . ... ... : ... .. 4 ... ... : ... .. . ... ...
ROW A6 : C#4 00 A P82 ... ... : ... .. 4 ... ... ... : ... .. . ... : ... .. 2 ... : ... .. . ... ... : ... .. . ... ... : ... .. . ... ... : ... .. . ... ...
ROW A7 : C-4 00 A P7E ... ... : ... .. 3 ... ... ... : --- .. . ... : ... .. 0 ... : ... .. . ... ... : ... .. . ... ... : ... .. . ... ... : ... .. . ... ...
ROW A8 : B-4 00 F P80 ... ... : D#4 00 6 ... ... ... : A#4 00 . ... : 3-# 00 D ... : ... .. . ... ... : D#3 01 A ... ... : B-4 01 6 ... ... : F#5 01 A ... ...
ROW A9 : ... .. E ... ... ... : ... .. 5 ... ... ... : C-4 00 . ... : ... .. . ... : ... .. . ... ... : ... .. 9 ... ... : ... .. . ... ... : ... .. 8 ... ...
ROW AA : ... .. D ... ... ... : ... .. . ... ... ... : F-3 00 . ... : F-# 00 D ... : ... .. . ... ... : ... .. 8 ... ... : ... .. 5 ... ... : ... .. 5 ... ...
ROW AB : ... .. A ... ... ... : ... .. . ... ... ... : E-3 00 . ... : D-# 00 6 ... : ... .. . ... ... : ... .. 7 ... ... : ... .. 4 ... ... : ... .. . ... ...
ROW AC : ... .. . ... ... ... : ... .. 4 ... ... ... : B-2 00 . ... : 9-# 00 1 ... : ... .. . ... ... : ... .. . ... ... : ... .. . ... ... : ... .. . ... ...
ROW AD : ... .. . ... ... ... : ... .. 3 ... ... ... : ... .. . ... : ... .. 0 ... : ... .. . ... ... : ... .. 6 ... ... : ... .. . ... ... : ... .. . ... ...
ROW AE : ... .. . ... ... ... : B-3 00 6 ... ... ... : ... .. . ... : 1-# 00 F ... : ... .. . ... ... : ... .. . ... ... : F#4 01 6 ... ... : B-4 01 A ... ...
ROW AF : ... .. . ... ... ... : ... .. 5 ... ... ... : ... .. . ... : ... .. C ... : ... .. . ... ... : ... .. 5 ... ... : ... .. . ... ... : ... .. 8 ... ...
ROW B0 : ... .. . ... ... ... : ... .. . ... ... ... : ... .. . ... : ... .. 6 ... : ... .. . ... ... : ... .. . ... ... : ... .. 5 ... ... : ... .. 5 ... ...
ROW B1 : ... .. . ... ... ... : ... .. . ... ... ... : ... .. . ... : ... .. 3 ... : ... .. . ... ... : ... .. . ... ... : ... .. 4 ... ... : ... .. . ... ...
ROW B2 : ... .. . ... ... ... : ... .. 4 ... ... ... : ... .. . ... : ... .. 2 ... : ... .. . ... ... : ... .. . ... ... : ... .. . ... ... : ... .. . ... ...
ROW B3 : ... .. . ... ... ... : ... .. 3 ... ... ... : --- .. . ... : ... .. 0 ... : ... .. . ... ... : ... .. . ... ... : ... .. . ... ... : ... .. . ... ...
ROW B4 : ... .. . ... ... ... : F#3 00 6 ... ... ... : A#5 00 . ... : ... .. F ... : ... .. . ... ... : ... .. . ... ... : B-3 01 6 ... ... : D#4 01 A ... ...
ROW B5 : ... .. . ... ... ... : ... .. 5 ... ... ... : C-5 00 . ... : ... .. C ... : ... .. . ... ... : ... .. . ... ... : ... .. . ... ... : ... .. 8 ... ...
ROW B6 : ... .. . ... ... ... : ... .. . ... ... ... : F-4 00 . ... : ... .. 6 ... : ... .. . ... ... : ... .. . ... ... : ... .. 5 ... ... : ... .. 5 ... ...
ROW B7 : ... .. . ... ... ... : ... .. . ... ... ... : E-4 00 . ... : ... .. 3 ... : ... .. . ... ... : ... .. . ... ... : ... .. 4 ... ... : ... .. . ... ...
ROW B8 : ... .. . ... ... ... : ... .. 4 ... ... ... : B-3 00 . ... : ... .. 2 ... : ... .. . ... ... : ... .. . ... ... : ... .. . ... ... : ... .. . ... ...
ROW B9 : ... .. . ... ... ... : ... .. 3 ... ... ... : --- .. . ... : ... .. 0 ... : ... .. . ... ... : ... .. . ... ... : ... .. . ... ... : ... .. . ... ...
ROW BA : F#5 00 F ... ... ... : F#4 00 6 ... ... ... : B-2 00 . ... : 3-# 00 D ... : ... .. . ... ... : B-3 01 A ... ... : D#5 01 6 ... ... : A#5 01 A ... ...
ROW BB : ... .. E ... ... ... : ... .. 5 ... ... ... : ... .. . ... : ... .. . ... : ... .. . ... ... : ... .. 9 ... ... : ... .. . ... ... : ... .. 8 ... ...
ROW BC : ... .. D ... ... ... : ... .. . ... ... ... : ... .. . ... : F-# 00 D ... : ... .. . ... ... : ... .. 8 ... ... : ... .. 5 ... ... : ... .. 5 ... ...
ROW BD : ... .. A ... ... ... : ... .. . ... ... ... : ... .. . ... : D-# 00 6 ... : ... .. . ... ... : ... .. 7 ... ... : ... .. 4 ... ... : ... .. . ... ...
ROW BE : ... .. . ... ... ... : ... .. 4 ... ... ... : ... .. . ... : 9-# 00 1 ... : ... .. . ... ... : ... .. . ... ... : ... .. . ... ... : ... .. . ... ...
ROW BF : ... .. . ... ... ... : ... .. 3 ... ... ... : ... .. . ... : ... .. 0 ... : ... .. . ... ... : ... .. 6 ... ... : ... .. . ... ... : ... .. . ... ...
ROW C0 : ... .. . ... ... ... : D#4 00 6 ... ... ... : ... .. . ... : 1-# 00 F ... : ... .. . ... ... : ... .. . ... ... : F#4 01 6 ... ... : D#5 01 A ... ...
ROW C1 : ... .. . ... ... ... : ... .. 5 ... ... ... : ... .. . ... : ... .. C ... : ... .. . ... ... : ... .. 5 ... ... : ... .. . ... ... : ... .. 8 ... ...
ROW C2 : ... .. . ... ... ... : ... .. . ... ... ... : ... .. . ... : ... .. 6 ... : ... .. . ... ... : ... .. . ... ... : ... .. 5 ... ... : ... .. 5 ... ...
ROW C3 : ... .. . ... ... ... : ... .. . ... ... ... : ... .. . ... : ... .. 3 ... : ... .. . ... ... : ... .. . ... ... : ... .. 4 ... ... : ... .. . ... ...
ROW C4 : ... .. . ... ... ... : ... .. 4 ... ... ... : ... .. . ... : ... .. 2 ... : ... .. . ... ... : ... .. . ... ... : ... .. . ... ... : ... .. . ... ...
ROW C5 : ... .. . ... ... ... : ... .. 3 ... ... ... : --- .. . ... : ... .. 0 ... : ... .. . ... ... : ... .. . ... ... : ... .. . ... ... : ... .. . ... ...
ROW C6 : ... .. . ... ... ... : B-3 00 6 ... ... ... : B-2 00 . ... : ... .. F ... : ... .. . ... ... : ... .. . ... ... : B-3 01 6 ... ... : D#4 01 A ... ...
ROW C7 : ... .. . ... ... ... : ... .. 5 ... ... ... : ... .. . ... : ... .. C ... : ... .. . ... ... : ... .. . ... ... : ... .. . ... ... : ... .. 8 ... ...
ROW C8 : ... .. . ... ... ... : ... .. . ... ... ... : ... .. . ... : ... .. 6 ... : ... .. . ... ... : ... .. . ... ... : ... .. 5 ... ... : ... .. 5 ... ...
ROW C9 : ... .. . ... ... ... : ... .. . ... ... ... : ... .. . ... : ... .. 3 ... : ... .. . ... ... : ... .. . ... ... : ... .. 4 ... ... : ... .. . ... ...
ROW CA : ... .. . ... ... ... : ... .. 4 ... ... ... : ... .. . ... : ... .. 2 ... : ... .. . ... ... : ... .. . ... ... : ... .. . ... ... : ... .. . ... ...
ROW CB : ... .. . ... ... ... : ... .. 3 ... ... ... : --- .. . ... : ... .. 0 ... : ... .. . ... ... : ... .. . ... ... : ... .. . ... ... : ... .. . ... ...
ROW CC : E-5 00 F ... ... ... : D#4 00 6 ... ... ... : G-4 00 . ... : 3-# 00 D ... : ... .. . ... ... : C-4 01 A ... ... : D#5 01 6 ... ... : G#5 01 A ... ...
ROW CD : ... .. E ... ... ... : ... .. 5 ... ... ... : A-3 00 . ... : ... .. . ... : ... .. . ... ... : ... .. 9 ... ... : ... .. . ... ... : ... .. 8 ... ...
ROW CE : ... .. D ... ... ... : ... .. . ... ... ... : D-3 00 . ... : F-# 00 D ... : ... .. . ... ... : ... .. 8 ... ... : ... .. 5 ... ... : ... .. 5 ... ...
ROW CF : ... .. A ... ... ... : ... .. . ... ... ... : C#3 00 . ... : D-# 00 6 ... : ... .. . ... ... : ... .. 7 ... ... : ... .. 4 ... ... : ... .. . ... ...
ROW D0 : ... .. . ... ... ... : ... .. 4 ... ... ... : G#2 00 . ... : 9-# 00 1 ... : ... .. . ... ... : ... .. . ... ... : ... .. . ... ... : ... .. . ... ...
ROW D1 : ... .. . ... ... ... : ... .. 3 ... ... ... : ... .. . ... : ... .. 0 ... : ... .. . ... ... : ... .. 6 ... ... : ... .. . ... ... : ... .. . ... ...
ROW D2 : ... .. . ... ... ... : C-4 00 6 ... ... ... : ... .. . ... : 1-# 00 F ... : ... .. . ... ... : ... .. . ... ... : G#4 01 6 ... ... : C-5 01 A ... ...
ROW D3 : ... .. . ... ... ... : ... .. 5 ... ... ... : ... .. . ... : ... .. C ... : ... .. . ... ... : ... .. 5 ... ... : ... .. . ... ... : ... .. 8 ... ...
ROW D4 : ... .. . ... ... ... : ... .. . ... ... ... : ... .. . ... : ... .. 6 ... : ... .. . ... ... : ... .. . ... ... : ... .. 5 ... ... : ... .. 5 ... ...
ROW D5 : ... .. . ... ... ... : ... .. . ... ... ... : ... .. . ... : ... .. 3 ... : ... .. . ... ... : ... .. . ... ... : ... .. 4 ... ... : ... .. . ... ...
ROW D6 : ... .. . ... ... ... : ... .. 4 ... ... ... : ... .. . ... : ... .. 2 ... : ... .. . ... ... : ... .. . ... ... : ... .. . ... ... : ... .. . ... ...
ROW D7 : ... .. . ... ... ... : ... .. 3 ... ... ... : --- .. . ... : ... .. 0 ... : ... .. . ... ... : ... .. . ... ... : ... .. . ... ... : ... .. . ... ...
ROW D8 : ... .. . ... ... ... : G#3 00 6 ... ... ... : G-5 00 . ... : ... .. F ... : ... .. . ... ... : ... .. . ... ... : C-4 01 6 ... ... : D#4 01 A ... ...
ROW D9 : ... .. . ... ... ... : ... .. 5 ... ... ... : A-4 00 . ... : ... .. C ... : ... .. . ... ... : ... .. . ... ... : ... .. . ... ... : ... .. 8 ... ...
ROW DA : ... .. . ... ... ... : ... .. . ... ... ... : D-4 00 . ... : ... .. 6 ... : ... .. . ... ... : ... .. . ... ... : ... .. 5 ... ... : ... .. 5 ... ...
ROW DB : ... .. . ... ... ... : ... .. . ... ... ... : C#4 00 . ... : ... .. 3 ... : ... .. . ... ... : ... .. . ... ... : ... .. 4 ... ... : ... .. . ... ...
ROW DC : ... .. . ... ... ... : ... .. 4 ... ... ... : G#3 00 . ... : ... .. 2 ... : ... .. . ... ... : ... .. . ... ... : ... .. . ... ... : ... .. . ... ...
ROW DD : ... .. . ... ... ... : ... .. 3 ... ... ... : --- .. . ... : ... .. 0 ... : ... .. . ... ... : ... .. . ... ... : ... .. . ... ... : ... .. . ... ...
ROW DE : D#5 00 F ... ... ... : G#4 00 6 ... ... ... : G#2 00 . ... : 3-# 00 D ... : ... .. . ... ... : D#3 01 A ... ... : C-5 01 6 ... ... : D#5 01 A ... ...
ROW DF : ... .. E ... ... ... : ... .. 5 ... ... ... : ... .. . ... : ... .. . ... : ... .. . ... ... : ... .. 9 ... ... : ... .. . ... ... : ... .. 8 ... ...
ROW E0 : ... .. D ... ... ... : ... .. . ... ... ... : ... .. . ... : F-# 00 D ... : ... .. . ... ... : ... .. 8 ... ... : ... .. 5 ... ... : ... .. 5 ... ...
ROW E1 : ... .. A ... ... ... : ... .. . ... ... ... : ... .. . ... : D-# 00 6 ... : ... .. . ... ... : ... .. 7 ... ... : ... .. 4 ... ... : ... .. . ... ...
ROW E2 : ... .. . ... ... ... : ... .. 4 ... ... ... : ... .. . ... : 9-# 00 1 ... : ... .. . ... ... : ... .. . ... ... : ... .. . ... ... : ... .. . ... ...
ROW E3 : ... .. . ... ... ... : ... .. 3 ... ... ... : ... .. . ... : ... .. 0 ... : ... .. . ... ... : ... .. 6 ... ... : ... .. . ... ... : ... .. . ... ...
ROW E4 : ... .. . ... ... ... : D#4 00 6 ... ... ... : ... .. . ... : 1-# 00 F ... : ... .. . ... ... : ... .. . ... ... : D#4 01 6 ... ... : G#4 01 A ... ...
ROW E5 : ... .. . ... ... ... : ... .. 5 ... ... ... : ... .. . ... : ... .. C ... : ... .. . ... ... : ... .. 5 ... ... : ... .. . ... ... : ... .. 8 ... ...
ROW E6 : ... .. . ... ... ... : ... .. . ... ... ... : ... .. . ... : ... .. 6 ... : ... .. . ... ... : ... .. . ... ... : ... .. 5 ... ... : ... .. 5 ... ...
ROW E7 : C-5 00 A P81 ... ... : ... .. . ... ... ... : ... .. . ... : ... .. 3 ... : ... .. . ... ... : ... .. . ... ... : ... .. 4 ... ... : ... .. . ... ...
ROW E8 : A#4 00 A P7E ... ... : ... .. 4 ... ... ... : ... .. . ... : ... .. 2 ... : ... .. . ... ... : ... .. . ... ... : ... .. . ... ... : ... .. . ... ...
ROW E9 : G#4 00 A P7D ... ... : ... .. 3 ... ... ... : --- .. . ... : ... .. 0 ... : ... .. . ... ... : ... .. . ... ... : ... .. . ... ... : ... .. . ... ...
ROW EA : F#4 00 A ... ... ... : C-4 00 6 ... ... ... : G#2 00 . ... : ... .. F ... : ... .. . ... ... : ... .. . ... ... : G#3 01 6 ... ... : C-4 01 A ... ...
ROW EB : E-4 00 A P80 ... ... : ... .. 5 ... ... ... : ... .. . ... : ... .. C ... : ... .. . ... ... : ... .. . ... ... : ... .. . ... ... : ... .. 8 ... ...
ROW EC : D-4 00 A P84 ... ... : ... .. . ... ... ... : ... .. . ... : ... .. 6 ... : ... .. . ... ... : ... .. . ... ... : ... .. 5 ... ... : ... .. 5 ... ...
ROW ED : C#4 00 A P80 ... ... : ... .. . ... ... ... : ... .. . ... : ... .. 3 ... : ... .. . ... ... : ... .. . ... ... : ... .. 4 ... ... : ... .. . ... ...
ROW EE : C-4 00 A P7C ... ... : ... .. 4 ... ... ... : ... .. . ... : ... .. 2 ... : ... .. . ... ... : ... .. . ... ... : ... .. . ... ... : ... .. . ... ...
ROW EF : A#3 00 A P86 ... ... : ... .. 3 ... ... ... : --- .. . ... : ... .. 0 ... : ... .. . ... ... : ... .. . ... ... : ... .. . ... ... : ... .. . ... ...
ROW F0 : C#4 00 F P80 ... ... : F#2 00 8 ... ... ... : D#5 00 . ... : 9-# 00 D ... : ... .. . ... ... : E-3 01 A ... ... : G-3 01 6 ... ... : G-4 01 A ... ...
ROW F1 : ... .. E ... ... ... : ... .. 7 ... ... ... : F-4 00 . ... : ... .. B ... : ... .. . ... ... : ... .. 9 ... ... : ... .. . ... ... : ... .. 8 ... ...
ROW F2 : ... .. D ... ... ... : ... .. . ... ... ... : A#3 00 . ... : ... .. . ... : ... .. . ... ... : ... .. 8 ... ... : ... .. 5 ... ... : ... .. 5 ... ...
ROW F3 : ... .. A ... ... ... : ... .. 6 ... ... ... : A-3 00 . ... : ... .. A ... : ... .. . ... ... : ... .. 7 ... ... : ... .. 4 ... ... : ... .. . ... ...
ROW F4 : ... .. . ... ... ... : ... .. 5 ... ... ... : E-3 00 . ... : ... .. 8 ... : ... .. . ... ... : ... .. . ... ... : ... .. . ... ... : ... .. . ... ...
ROW F5 : ... .. . ... ... ... : ... .. 4 ... ... ... : ... .. . ... : ... .. 7 ... : ... .. . ... ... : ... .. 6 ... ... : ... .. . ... ... : ... .. . ... ...
ROW F6 : ... .. . ... ... ... : G-2 00 8 ... ... ... : ... .. . ... : 0-# 00 D ... : ... .. . ... ... : F#3 01 A ... ... : ... .. . ... ... : E-4 01 A ... ...
ROW F7 : ... .. . P83 ... ... : ... .. 7 ... ... ... : ... .. . ... : ... .. B ... : ... .. . ... ... : ... .. 9 ... ... : ... .. 3 ... ... : ... .. 8 ... ...
ROW F8 : ... .. . P86 ... ... : ... .. . ... ... ... : ... .. . ... : ... .. . ... : ... .. . ... ... : ... .. 8 ... ... : ... .. . ... ... : ... .. 5 ... ...
ROW F9 : D-4 00 A P7D ... ... : ... .. 6 ... ... ... : ... .. . ... : ... .. A ... : ... .. . ... ... : ... .. 7 ... ... : ... .. . ... ... : ... .. . ... ...
ROW FA : ... .. . P80 ... ... : ... .. 5 ... ... ... : ... .. . ... : ... .. 8 ... : ... .. . ... ... : ... .. . ... ... : ... .. . ... ... : ... .. . ... ...
ROW FB : ... .. . P83 ... ... : ... .. 4 ... ... ... : ... .. . ... : ... .. 7 ... : ... .. . ... ... : ... .. 6 ... ... : ... .. . ... ... : ... .. . ... ...
ROW FC : D#4 00 A P7C ... ... : A#2 00 8 ... ... ... : ... .. . ... : 1-# 00 D ... : ... .. . ... ... : D#3 01 A ... ... : F#3 01 6 ... ... : B-3 01 A ... ...
ROW FD : ... .. . P7F ... ... : ... .. 7 ... ... ... : ... .. . ... : ... .. B ... : ... .. . ... ... : ... .. 9 ... ... : ... .. . ... ... : ... .. 8 ... ...
ROW FE : ... .. . P80 ... ... : ... .. . ... ... ... : ... .. . ... : ... .. . ... : ... .. . ... ... : ... .. 8 ... ... : ... .. 5 ... ... : ... .. 5 ... ...
ROW FF : ... .. . ... ... ... : ... .. 6 ... ... ... : ... .. . ... : ... .. A ... : ... .. . ... ... : ... .. 7 ... ... : ... .. 4 ... ... : ... .. . ... ...

PATTERN 0A
ROW 00 : ... .. . ... ... ... : ... .. 5 ... ... ... : ... .. . ... : ... .. 8 ... : ... .. . ... ... : ... .. . ... ... : ... .. . ... ... : ... .. . ... ...
ROW 01 : ... .. . ... ... ... : ... .. 4 ... ... ... : ... .. . ... : ... .. 7 ... : ... .. . ... ... : ... .. 6 ... ... : ... .. . ... ... : ... .. . ... ...
ROW 02 : ... .. . ... ... ... : B-2 00 8 ... ... ... : D-5 00 . ... : 9-# 00 D ... : ... .. . ... ... : E-3 01 A ... ... : ... .. . ... ... : C-4 01 A ... ...
ROW 03 : ... .. . ... ... ... : ... .. 7 ... ... ... : E-4 00 . ... : ... .. B ... : ... .. . ... ... : ... .. 9 ... ... : ... .. 3 ... ... : ... .. 8 ... ...
ROW 04 : ... .. . ... ... ... : ... .. . ... ... ... : A-3 00 . ... : ... .. . ... : ... .. . ... ... : ... .. 8 ... ... : ... .. . ... ... : ... .. 5 ... ...
ROW 05 : ... .. . ... ... ... : ... .. 6 ... ... ... : G#3 00 . ... : ... .. A ... : ... .. . ... ... : ... .. 7 ... ... : ... .. . ... ... : ... .. . ... ...
ROW 06 : ... .. . ... ... ... : ... .. 5 ... ... ... : D#3 00 . ... : ... .. 8 ... : ... .. . ... ... : ... .. . ... ... : ... .. . ... ... : ... .. . ... ...
ROW 07 : ... .. . ... ... ... : ... .. 4 ... ... ... : ... .. . ... : ... .. 7 ... : ... .. . ... ... : ... .. 6 ... ... : ... .. . ... ... : ... .. . ... ...
ROW 08 : ... .. . ... ... ... : D#3 00 8 ... ... ... : ... .. . ... : 1-# 00 D ... : ... .. . ... ... : F#3 01 A ... ... : D#3 01 6 ... ... : E-4 01 A ... ...
ROW 09 : ... .. . ... ... ... : ... .. 7 ... ... ... : ... .. . ... : ... .. B ... : ... .. . ... ... : ... .. 9 ... ... : ... .. . ... ... : ... .. 8 ... ...
ROW 0A : ... .. . ... ... ... : ... .. . ... ... ... : ... .. . ... : ... .. . ... : ... .. . ... ... : ... .. 8 ... ... : ... .. 5 ... ... : ... .. 5 ... ...
ROW 0B : ... .. . ... ... ... : ... .. 6 ... ... ... : ... .. . ... : ... .. A ... : ... .. . ... ... : ... .. 7 ... ... : ... .. 4 ... ... : ... .. . ... ...
ROW 0C : ... .. . ... ... ... : ... .. 5 ... ... ... : ... .. . ... : ... .. 8 ... : ... .. . ... ... : ... .. . ... ... : ... .. . ... ... : ... .. . ... ...
ROW 0D : ... .. . ... ... ... : ... .. 4 ... ... ... : ... .. . ... : ... .. 7 ... : ... .. . ... ... : ... .. 6 ... ... : ... .. . ... ... : ... .. . ... ...
ROW 0E : ... .. . P84 ... ... : E-3 00 8 ... ... ... : ... .. . ... : B-# 00 8 ... : ... .. . ... ... : G-3 01 A ... ... : ... .. . ... ... : G-4 01 A ... ...
ROW 0F : E-4 00 A P7C ... ... : ... .. 7 ... ... ... : ... .. . ... : ... .. 6 ... : ... .. . ... ... : ... .. 9 ... ... : ... .. 3 ... ... : ... .. 8 ... ...
ROW 10 : D#4 00 A P85 ... ... : ... .. . ... ... ... : ... .. . ... : ... .. 3 ... : ... .. . ... ... : ... .. 8 ... ... : ... .. . ... ... : ... .. 5 ... ...
ROW 11 : ... .. . P82 ... ... : ... .. 6 ... ... ... : ... .. . ... : ... .. 8 ... : ... .. . ... ... : ... .. 7 ... ... : ... .. . ... ... : ... .. . ... ...
ROW 12 : ... .. . P7E ... ... : ... .. 5 ... ... ... : ... .. . ... : ... .. 6 ... : ... .. . ... ... : ... .. . ... ... : ... .. . ... ... : ... .. . ... ...
ROW 13 : D-4 00 A P85 ... ... : ... .. 4 ... ... ... : ... .. . ... : ... .. 3 ... : ... .. . ... ... : ... .. 6 ... ... : ... .. . ... ... : ... .. . ... ...
ROW 14 : ... .. . P84 ... ... : F#3 00 8 ... ... ... : F-5 00 . ... : 9-# 00 D ... : ... .. . ... ... : E-3 01 A ... ... : B-2 01 6 ... ... : B-4 01 A ... ...
ROW 15 : D#4 00 A P7C ... ... : ... .. 7 ... ... ... : G-4 00 . ... : ... .. B ... : ... .. . ... ... : ... .. 9 ... ... : ... .. . ... ... : ... .. 8 ... ...
ROW 16 : ... .. . P80 ... ... : ... .. . ... ... ... : C-4 00 . ... : ... .. . ... : ... .. . ... ... : ... .. 8 ... ... : ... .. 5 ... ... : ... .. 5 ... ...
ROW 17 : ... .. . P83 ... ... : ... .. 6 ... ... ... : B-3 00 . ... : ... .. A ... : ... .. . ... ... : ... .. 7 ... ... : ... .. 4 ... ... : ... .. . ... ...
ROW 18 : E-4 00 A P7C ... ... : ... .. 5 ... ... ... : F#3 00 . ... : ... .. 8 ... : ... .. . ... ... : ... .. . ... ... : ... .. . ... ... : ... .. . ... ...
ROW 19 : ... .. . ... ... ... : ... .. 4 ... ... ... : ... .. . ... : ... .. 7 ... : ... .. . ... ... : ... .. 6 ... ... : ... .. . ... ... : ... .. . ... ...
ROW 1A : D#4 00 A P82 ... ... : G-3 00 8 ... ... ... : ... .. . ... : ... .. 8 ... : ... .. . ... ... : F#3 01 A ... ... : ... .. . ... ... : C-5 01 A ... ...
ROW 1B : ... .. . P7F ... ... : ... .. 7 ... ... ... : ... .. . ... : ... .. 6 ... : ... .. . ... ... : ... .. 9 ... ... : ... .. 3 ... ... : ... .. 8 ... ...
ROW 1C : D-4 00 A P85 ... ... : ... .. . ... ... ... : ... .. . ... : ... .. 3 ... : ... .. . ... ... : ... .. 8 ... ... : ... .. . ... ... : ... .. 5 ... ...
ROW 1D : ... .. . P84 ... ... : ... .. 6 ... ... ... : ... .. . ... : ... .. 8 ... : ... .. . ... ... : ... .. 7 ... ... : ... .. . ... ... : ... .. . ... ...
ROW 1E : D#4 00 A P7C ... ... : ... .. 5 ... ... ... : ... .. . ... : ... .. 6 ... : ... .. . ... ... : ... .. . ... ... : ... .. . ... ... : ... .. . ... ...
ROW 1F : ... .. . P80 ... ... : ... .. 4 ... ... ... : ... .. . ... : ... .. 3 ... : ... .. . ... ... : ... .. 6 ... ... : ... .. . ... ... : ... .. . ... ...
ROW 20 : ... .. . P83 ... ... : D#3 00 8 ... ... ... : ... .. . ... : ... .. F ... : ... .. . ... ... : A#3 01 A ... ... : G-2 01 6 ... ... : B-4 01 A ... ...
ROW 21 : E-4 00 A P7C ... ... : ... .. 7 ... ... ... : ... .. . ... : ... .. C ... : ... .. . ... ... : ... .. 9 ... ... : ... .. . ... ... : ... .. 8 ... ...
ROW 22 : ... .. . ... ... ... : ... .. . ... ... ... : ... .. . ... : ... .. 6 ... : ... .. . ... ... : ... .. 8 ... ... : ... .. 5 ... ... : ... .. 5 ... ...
ROW 23 : D#4 00 A P83 ... ... : ... .. 6 ... ... ... : ... .. . ... : ... .. 3 ... : ... .. . ... ... : ... .. 7 ... ... : ... .. 4 ... ... : ... .. 4 ... ...
ROW 24 : ... .. . P80 ... ... : ... .. 5 ... ... ... : ... .. . ... : ... .. F ... : ... .. . ... ... : ... .. . ... ... : ... .. . ... ... : ... .. . ... ...
ROW 25 : ... .. . P7C ... ... : ... .. 4 ... ... ... : ... .. . ... : ... .. C ... : ... .. . ... ... : ... .. 6 ... ... : ... .. . ... ... : ... .. . ... ...
ROW 26 : D-4 00 A P84 ... ... : E-3 00 8 ... ... ... : F#5 00 . ... : ... .. 6 ... : ... .. . ... ... : B-3 01 A ... ... : ... .. . ... ... : C-5 01 9 ... ...
ROW 27 : ... .. . P85 ... ... : ... .. 7 ... ... ... : G#4 00 . ... : ... .. 3 ... : ... .. . ... ... : ... .. 9 ... ... : ... .. 3 ... ... : ... .. 7 ... ...
ROW 28 : D#4 00 A P7F ... ... : ... .. . ... ... ... : C#4 00 . ... : ... .. F ... : ... .. . ... ... : ... .. 8 ... ... : ... .. . ... ... : ... .. 4 ... ...
ROW 29 : ... .. . P82 ... ... : ... .. 6 ... ... ... : C-4 00 . ... : ... .. C ... : ... .. . ... ... : ... .. 7 ... ... : ... .. . ... ... : ... .. . ... ...
ROW 2A : E-4 00 A P7C ... ... : ... .. 5 ... ... ... : G-3 00 . ... : ... .. 6 ... : ... .. . ... ... : ... .. . ... ... : ... .. . ... ... : ... .. . ... ...
ROW 2B : ... .. . ... ... ... : ... .. 4 ... ... ... : ... .. . ... : ... .. 3 ... : ... .. . ... ... : ... .. 6 ... ... : ... .. . ... ... : ... .. . ... ...
ROW 2C : D#4 00 A P83 ... ... : F#3 00 8 ... ... ... : ... .. . ... : 6-# 00 F ... : ... .. . ... ... : F#3 01 A ... ... : F#2 01 6 ... ... : E-5 01 9 ... ...
ROW 2D : ... .. . P80 ... ... : ... .. 7 ... ... ... : ... .. . ... : ... .. C ... : ... .. . ... ... : ... .. 9 ... ... : ... .. . ... ... : ... .. 7 ... ...
ROW 2E : ... .. . P7C ... ... : ... .. . ... ... ... : ... .. . ... : ... .. 6 ... : ... .. . ... ... : ... .. 8 ... ... : ... .. 5 ... ... : ... .. 4 ... ...
ROW 2F : D-4 00 A P84 ... ... : ... .. 6 ... ... ... : ... .. . ... : ... .. 3 ... : ... .. . ... ... : ... .. 7 ... ... : ... .. 4 ... ... : ... .. . ... ...
ROW 30 : ... .. . P85 ... ... : ... .. 5 ... ... ... : ... .. . ... : ... .. F ... : ... .. . ... ... : ... .. . ... ... : ... .. . ... ... : ... .. . ... ...
ROW 31 : D#4 00 A P7E ... ... : ... .. 4 ... ... ... : ... .. . ... : ... .. C ... : ... .. . ... ... : ... .. 6 ... ... : ... .. . ... ... : ... .. . ... ...
ROW 32 : ... .. . P82 ... ... : G-3 00 8 ... ... ... : ... .. . ... : ... .. 6 ... : ... .. . ... ... : G-3 01 A ... ... : ... .. . ... ... : G-5 01 9 ... ...
ROW 33 : ... .. . P85 ... ... : ... .. 7 ... ... ... : ... .. . ... : ... .. 3 ... : ... .. . ... ... : ... .. 9 ... ... : ... .. 3 ... ... : ... .. 7 ... ...
ROW 34 : E-4 00 A P7C ... ... : ... .. . ... ... ... : ... .. . ... : ... .. F ... : ... .. . ... ... : ... .. 8 ... ... : ... .. . ... ... : ... .. 4 ... ...
ROW 35 : D#4 00 A P84 ... ... : ... .. 6 ... ... ... : ... .. . ... : ... .. C ... : ... .. . ... ... : ... .. 7 ... ... : ... .. . ... ... : ... .. . ... ...
ROW 36 : ... .. . P80 ... ... : ... .. 5 ... ... ... : ... .. . ... : ... .. 6 ... : ... .. . ... ... : ... .. . ... ... : ... .. . ... ... : ... .. . ... ...
ROW 37 : ... .. . P7D ... ... : ... .. 4 ... ... ... : ... .. . ... : ... .. 3 ... : ... .. . ... ... : ... .. 6 ... ... : ... .. . ... ... : ... .. . ... ...
ROW 38 : D-4 00 A P84 ... ... : A#3 00 8 ... ... ... : A#5 00 . ... : C-# 00 F ... : ... .. . ... ... : B-3 01 A ... ... : G-2 01 6 ... ... : F#5 01 8 ... ...
ROW 39 : ... .. . ... ... ... : ... .. 7 ... ... ... : C-5 00 . ... : ... .. . ... : ... .. . ... ... : ... .. 9 ... ... : ... .. . ... ... : ... .. 6 ... ...
ROW 3A : D#4 00 A P7E ... ... : ... .. . ... ... ... : F-4 00 . ... : ... .. . ... : ... .. . ... ... : ... .. 8 ... ... : ... .. 5 ... ... : ... .. 4 ... ...
ROW 3B : ... .. . P81 ... ... : ... .. 6 ... ... ... : E-4 00 . ... : ... .. E ... : ... .. . ... ... : ... .. 7 ... ... : ... .. 4 ... ... : ... .. . ... ...
ROW 3C : ... .. . P85 ... ... : ... .. 5 ... ... ... : B-3 00 . ... : ... .. . ... : ... .. . ... ... : ... .. . ... ... : ... .. . ... ... : ... .. . ... ...
ROW 3D : E-4 00 A P7C ... ... : ... .. 4 ... ... ... : ... .. . ... : ... .. . ... : ... .. . ... ... : ... .. 6 ... ... : ... .. . ... ... : ... .. . ... ...
ROW 3E : D#4 00 A P84 ... ... : B-3 00 8 ... ... ... : ... .. . ... : ... .. D ... : ... .. . ... ... : C#4 01 A ... ... : ... .. . ... ... : G-5 01 8 ... ...
ROW 3F : ... .. . P80 ... ... : ... .. 7 ... ... ... : ... .. . ... : ... .. . ... : ... .. . ... ... : ... .. 9 ... ... : ... .. 3 ... ... : ... .. 6 ... ...
ROW 40 : ... .. . P7D ... ... : ... .. . ... ... ... : ... .. . ... : ... .. . ... : ... .. . ... ... : ... .. 8 ... ... : ... .. . ... ... : ... .. 4 ... ...
ROW 41 : D-4 00 A P84 ... ... : ... .. 6 ... ... ... : ... .. . ... : ... .. C ... : ... .. . ... ... : ... .. 7 ... ... : ... .. . ... ... : ... .. . ... ...
ROW 42 : ... .. . ... ... ... : ... .. 5 ... ... ... : ... .. . ... : ... .. . ... : ... .. . ... ... : ... .. . ... ... : ... .. . ... ... : ... .. . ... ...
ROW 43 : D#4 00 A P7D ... ... : ... .. 4 ... ... ... : ... .. . ... : ... .. . ... : ... .. . ... ... : ... .. 6 ... ... : ... .. . ... ... : ... .. . ... ...
ROW 44 : ... .. . P80 ... ... : D#4 00 8 ... ... ... : ... .. . ... : ... .. B ... : ... .. . ... ... : D#4 01 A ... ... : B-2 01 6 ... ... : B-5 01 8 ... ...
ROW 45 : ... .. . P84 ... ... : ... .. 7 ... ... ... : ... .. . ... : ... .. . ... : ... .. . ... ... : ... .. 9 ... ... : ... .. . ... ... : ... .. 6 ... ...
ROW 46 : E-4 00 A P7C ... ... : ... .. . ... ... ... : ... .. . ... : ... .. . ... : ... .. . ... ... : ... .. 8 ... ... : ... .. 5 ... ... : ... .. 4 ... ...
ROW 47 : D#4 00 A P85 ... ... : ... .. 6 ... ... ... : ... .. . ... : ... .. A ... : ... .. . ... ... : ... .. 7 ... ... : ... .. 4 ... ... : ... .. . ... ...
ROW 48 : ... .. . P81 ... ... : ... .. 5 ... ... ... : ... .. . ... : ... .. . ... : ... .. . ... ... : ... .. . ... ... : ... .. . ... ... : ... .. . ... ...
ROW 49 : ... .. . P7E ... ... : ... .. 4 ... ... ... : ... .. . ... : ... .. . ... : ... .. . ... ... : ... .. 6 ... ... : ... .. . ... ... : ... .. . ... ...
ROW 4A : D-4 00 A P84 ... ... : E-4 00 8 ... ... ... : ... .. . ... : ... .. 9 ... : ... .. . ... ... : E-4 01 A ... ... : ... .. . ... ... : C-6 01 7 ... ...
ROW 4B : ... .. . ... ... ... : ... .. 7 ... ... ... : ... .. . ... : ... .. . ... : ... .. . ... ... : ... .. 9 ... ... : ... .. 3 ... ... : ... .. 6 ... ...
ROW 4C : D#4 00 A P7D ... ... : ... .. . ... ... ... : ... .. . ... : ... .. . ... : ... .. . ... ... : ... .. 8 ... ... : ... .. . ... ... : ... .. 3 ... ...
ROW 4D : ... .. . P80 ... ... : ... .. 6 ... ... ... : ... .. . ... : ... .. 8 ... : ... .. . ... ... : ... .. 7 ... ... : ... .. . ... ... : ... .. . ... ...
ROW 4E : ... .. . P84 ... ... : ... .. 5 ... ... ... : ... .. . ... : ... .. . ... : ... .. . ... ... : ... .. . ... ... : ... .. . ... ... : ... .. . ... ...
ROW 4F : E-4 00 A P7C ... ... : ... .. 4 ... ... ... : ... .. . ... : ... .. . ... : ... .. . ... ... : ... .. 6 ... ... : ... .. . ... ... : ... .. . ... ...
ROW 50 : F#2 00 8 P80 ... ... : A#3 00 8 ... ... ... : ... .. . ... : ... .. . ... : ... .. . ... ... : F#4 01 A ... ... : --- .. . P86 ... : A#5 01 7 ... ...
ROW 51 : ... .. 7 ... ... ... : ... .. 7 ... ... ... : ... .. . ... : ... .. . ... : ... .. . ... ... : ... .. 9 ... ... : ... .. . ... ... : ... .. 6 ... ...
ROW 52 : ... .. 6 ... ... ... : ... .. . ... ... ... : ... .. . ... : ... .. . ... : ... .. . ... ... : ... .. 8 ... ... : ... .. . ... ... : ... .. 3 ... ...
ROW 53 : ... .. 5 ... ... ... : ... .. 6 ... ... ... : ... .. . ... : ... .. 7 ... : ... .. . ... ... : ... .. 6 ... ... : ... .. . ... ... : ... .. . ... ...
ROW 54 : ... .. . ... ... ... : ... .. 5 ... ... ... : ... .. . ... : ... .. . ... : ... .. . ... ... : ... .. . ... ... : ... .. . ... ... : ... .. . ... ...
ROW 55 : ... .. . ... ... ... : ... .. 4 ... ... ... : ... .. . ... : ... .. . ... : ... .. . ... ... : ... .. 5 ... ... : ... .. . ... ... : ... .. . ... ...
ROW 56 : G-2 00 8 ... ... ... : B-3 00 8 ... ... ... : ... .. . ... : ... .. 6 ... : ... .. . ... ... : ... .. 4 ... ... : ... .. . ... ... : E-5 01 7 ... ...
ROW 57 : ... .. 7 ... ... ... : ... .. 7 ... ... ... : ... .. . ... : ... .. . ... : ... .. . ... ... : ... .. 3 ... ... : ... .. . ... ... : ... .. 6 ... ...
ROW 58 : ... .. 6 ... ... ... : ... .. . ... ... ... : ... .. . ... : ... .. . ... : ... .. . ... ... : ... .. . ... ... : ... .. . ... ... : ... .. 3 ... ...
ROW 59 : ... .. 5 ... ... ... : ... .. 6 ... ... ... : ... .. . ... : ... .. 5 ... : ... .. . ... ... : ... .. . ... ... : ... .. . ... ... : ... .. . ... ...
ROW 5A : ... .. . ... ... ... : ... .. 5 ... ... ... : ... .. . ... : ... .. . ... : ... .. . ... ... : ... .. . ... ... : ... .. . ... ... : ... .. . ... ...
ROW 5B : ... .. . ... ... ... : ... .. 4 ... ... ... : ... .. . ... : ... .. . ... : ... .. . ... ... : ... .. . ... ... : ... .. . ... ... : ... .. . ... ...
ROW 5C : A#2 00 9 ... ... ... : D#4 00 8 ... ... ... : ... .. . ... : ... .. 4 ... : ... .. . ... ... : ... .. . ... ... : ... .. . ... ... : A#5 01 6 ... ...
ROW 5D : ... .. 8 ... ... ... : ... .. 7 ... ... ... : ... .. . ... : ... .. . ... : ... .. . ... ... : ... .. . ... ... : ... .. . ... ... : ... .. 5 ... ...
ROW 5E : ... .. 7 ... ... ... : ... .. . ... ... ... : ... .. . ... : ... .. . ... : ... .. . ... ... : ... .. . ... ... : ... .. . ... ... : ... .. 3 ... ...
ROW 5F : ... .. 6 ... ... ... : ... .. 6 ... ... ... : ... .. . ... : ... .. 3 ... : ... .. . ... ... : ... .. . ... ... : ... .. . ... ... : ... .. . ... ...
ROW 60 : ... .. . ... ... ... : ... .. 5 ... ... ... : ... .. . ... : ... .. . ... : ... .. . ... ... : ... .. . ... ... : ... .. . ... ... : ... .. . ... ...
ROW 61 : ... .. . ... ... ... : ... .. 4 ... ... ... : ... .. . ... : ... .. . ... : ... .. . ... ... : ... .. . ... ... : ... .. . ... ... : ... .. . ... ...
ROW 62 : B-2 00 9 ... ... ... : E-4 00 8 ... ... ... : ... .. . ... : ... .. 2 ... : ... .. . ... ... : ... .. . P84 ... : ... .. . ... ... : E-5 01 6 ... ...
ROW 63 : ... .. 8 ... ... ... : ... .. 7 ... ... ... : ... .. . ... : ... .. . ... : ... .. . ... ... : G-4 01 3 P7E ... : ... .. . ... ... : ... .. 5 ... ...
ROW 64 : ... .. 7 ... ... ... : ... .. . ... ... ... : ... .. . ... : ... .. . ... : ... .. . ... ... : ... .. . P7D ... : ... .. . ... ... : ... .. 3 ... ...
ROW 65 : ... .. 6 ... ... ... : ... .. 6 ... ... ... : ... .. . ... : ... .. 1 ... : ... .. . ... ... : F#4 01 3 P82 ... : ... .. . ... ... : ... .. . ... ...
ROW 66 : ... .. . ... ... ... : ... .. 5 ... ... ... : ... .. . ... : ... .. . ... : ... .. . ... ... : ... .. . P7E ... : ... .. . ... ... : ... .. . ... ...
ROW 67 : ... .. . ... ... ... : ... .. 4 ... ... ... : ... .. . ... : ... .. . ... : ... .. . ... ... : F-4 01 3 P84 ... : ... .. . ... ... : ... .. . ... ...
ROW 68 : A#2 00 A ... ... ... : D#4 00 8 ... ... ... : ... .. . ... : ... .. . ... : ... .. . ... ... : ... .. . P83 ... : ... .. . ... ... : A#5 01 6 ... ...
ROW 69 : ... .. 9 ... ... ... : ... .. 7 ... ... ... : ... .. . ... : ... .. . ... : ... .. . ... ... : F#4 01 3 P7C ... : ... .. . ... ... : ... .. 5 ... ...
ROW 6A : ... .. 8 ... ... ... : ... .. . ... ... ... : ... .. . ... : ... .. . ... : ... .. . ... ... : ... .. . P80 ... : ... .. . ... ... : ... .. 3 ... ...
ROW 6B : ... .. 6 ... ... ... : ... .. 6 ... ... ... : ... .. . ... : ... .. . ... : ... .. . ... ... : ... .. . P83 ... : ... .. . ... ... : ... .. . ... ...
ROW 6C : ... .. . ... ... ... : ... .. 5 ... ... ... : ... .. . ... : ... .. . ... : ... .. . ... ... : G-4 01 3 P7E ... : ... .. . ... ... : ... .. . ... ...
ROW 6D : ... .. . ... ... ... : ... .. 4 ... ... ... : ... .. . ... : ... .. . ... : ... .. . ... ... : ... .. . ... ... : ... .. . ... ... : ... .. . ... ...
ROW 6E : B-2 00 B ... ... ... : E-4 00 8 ... ... ... : ... .. . ... : ... .. . ... : ... .. . ... ... : F#4 01 4 P82 ... : ... .. . ... ... : E-5 01 6 ... ...
ROW 6F : ... .. A ... ... ... : ... .. 7 ... ... ... : ... .. . ... : ... .. . ... : ... .. . ... ... : ... .. . P7F ... : ... .. . ... ... : ... .. 5 ... ...
ROW 70 : ... .. 9 ... ... ... : ... .. . ... ... ... : ... .. . ... : ... .. . ... : ... .. . ... ... : F-4 01 4 P84 ... : ... .. . ... ... : ... .. 3 ... ...
ROW 71 : ... .. 7 ... ... ... : ... .. 6 ... ... ... : ... .. . ... : ... .. . ... : ... .. . ... ... : ... .. . P83 ... : ... .. . ... ... : ... .. 2 ... ...
ROW 72 : ... .. . ... ... ... : ... .. 5 ... ... ... : ... .. . ... : ... .. . ... : ... .. . ... ... : F#4 01 4 P7C ... : ... .. . ... ... : ... .. . ... ...
ROW 73 : ... .. . ... ... ... : ... .. 4 ... ... ... : ... .. . ... : ... .. . ... : ... .. . ... ... : ... .. . P80 ... : ... .. . ... ... : ... .. . ... ...
ROW 74 : D#3 00 B ... ... ... : F#4 00 8 ... ... ... : ... .. . ... : ... .. . ... : ... .. . ... ... : ... .. . P83 ... : ... .. . ... ... : A#5 01 5 ... ...
ROW 75 : ... .. A ... ... ... : ... .. 7 ... ... ... : ... .. . ... : ... .. . ... : ... .. . ... ... : G-4 01 4 P7E ... : ... .. . ... ... : ... .. 4 ... ...
ROW 76 : ... .. 9 ... ... ... : ... .. . ... ... ... : ... .. . ... : ... .. . ... : ... .. . ... ... : ... .. . ... ... : ... .. . ... ... : ... .. 2 ... ...
ROW 77 : ... .. 7 ... ... ... : ... .. 6 ... ... ... : ... .. . ... : ... .. . ... : ... .. . ... ... : F#4 01 4 P83 ... : ... .. . ... ... : ... .. . ... ...
ROW 78 : ... .. . ... ... ... : ... .. 5 ... ... ... : ... .. . ... : ... .. . ... : ... .. . ... ... : ... .. . P80 ... : ... .. . ... ... : ... .. . ... ...
ROW 79 : ... .. . ... ... ... : ... .. 4 ... ... ... : ... .. . ... : ... .. . ... : ... .. . ... ... : ... .. . P7C ... : ... .. . ... ... : ... .. . ... ...
ROW 7A : E-3 00 C ... ... ... : G-4 00 8 ... ... ... : ... .. . ... : ... .. . ... : ... .. . ... ... : F-4 01 4 P83 ... : ... .. . ... ... : E-5 01 5 ... ...
ROW 7B : ... .. B ... ... ... : ... .. 7 ... ... ... : ... .. . ... : ... .. . ... : ... .. . ... ... : ... .. . P84 ... : ... .. . ... ... : ... .. 4 ... ...
ROW 7C : ... .. A ... ... ... : ... .. . ... ... ... : ... .. . ... : ... .. . ... : ... .. . ... ... : F#4 01 4 P7F ... : ... .. . ... ... : ... .. 2 ... ...
ROW 7D : ... .. 8 ... ... ... : ... .. 6 ... ... ... : ... .. . ... : ... .. 2 ... : ... .. . ... ... : ... .. . P82 ... : ... .. . ... ... : ... .. . ... ...
ROW 7E : ... .. . ... ... ... : ... .. 5 ... ... ... : ... .. . ... : ... .. . ... : ... .. . ... ... : G-4 01 4 P7E ... : ... .. . ... ... : ... .. . ... ...
ROW 7F : ... .. . ... ... ... : ... .. 4 ... ... ... : ... .. . ... : ... .. . ... : ... .. . ... ... : ... .. . ... ... : ... .. . ... ... : ... .. . ... ...
ROW 80 : F#3 00 C ... ... ... : D#4 00 8 ... ... ... : A#3 00 . P7E : ... .. 4 ... : ... .. . ... ... : F#4 01 4 P83 ... : ... .. . ... ... : A#5 01 5 ... ...
ROW 81 : ... .. B ... ... ... : ... .. 7 ... ... ... : A-3 00 . P7C : ... .. . ... : ... .. . ... ... : ... .. . P80 ... : ... .. . ... ... : ... .. 4 ... ...
ROW 82 : ... .. A ... ... ... : ... .. . ... ... ... : G#3 00 . P7B : ... .. . ... : ... .. . ... ... : ... .. . P7C ... : ... .. . ... ... : ... .. 2 ... ...
ROW 83 : ... .. 8 ... ... ... : ... .. 6 ... ... ... : G-3 00 . ... : ... .. 5 ... : ... .. . ... ... : F-4 01 5 P83 ... : ... .. . ... ... : ... .. . ... ...
ROW 84 : ... .. . ... ... ... : ... .. 5 ... ... ... : F#3 00 . P7C : ... .. . ... : ... .. . ... ... : ... .. . P84 ... : ... .. . ... ... : ... .. . ... ...
ROW 85 : ... .. . ... ... ... : ... .. 4 ... ... ... : F-3 00 . P7E : ... .. . ... : ... .. . ... ... : F#4 01 5 P7E ... : ... .. . ... ... : ... .. . ... ...
ROW 86 : G-3 00 D ... ... ... : E-4 00 8 ... ... ... : E-3 00 . P81 : ... .. 7 ... : ... .. . ... ... : ... .. . P82 ... : ... .. . ... ... : E-5 01 4 ... ...
ROW 87 : ... .. C ... ... ... : ... .. 7 ... ... ... : D#3 00 . P86 : ... .. . ... : ... .. . ... ... : G-4 01 5 P7D ... : ... .. . ... ... : ... .. 3 ... ...
ROW 88 : ... .. B ... ... ... : ... .. . ... ... ... : ... .. . P76 : ... .. . ... : ... .. . ... ... : ... .. . P7E ... : ... .. . ... ... : ... .. 2 ... ...
ROW 89 : ... .. 8 ... ... ... : ... .. 6 ... ... ... : D-3 00 . P7B : ... .. 8 ... : ... .. . ... ... : F#4 01 5 P80 ... : ... .. . ... ... : ... .. . ... ...
ROW 8A : ... .. . ... ... ... : ... .. 5 ... ... ... : C#3 00 . P82 : ... .. . ... : ... .. . ... ... : ... .. . ... ... : ... .. . ... ... : ... .. . ... ...
ROW 8B : ... .. . ... ... ... : ... .. 4 ... ... ... : C-3 00 . P8A : ... .. . ... : ... .. . ... ... : ... .. . ... ... : ... .. . ... ... : ... .. . ... ...
ROW 8C : A#3 00 E ... ... ... : F#4 00 8 ... ... ... : ... .. . P7A : ... .. A ... : ... .. . ... ... : E-4 01 5 P83 ... : ... .. . ... ... : A#5 01 4 ... ...
ROW 8D : ... .. D ... ... ... : ... .. 7 ... ... ... : B-2 00 . P83 : ... .. . ... : ... .. . ... ... : D#4 01 5 P7D ... : ... .. . ... ... : ... .. 3 ... ...
ROW 8E : ... .. C ... ... ... : ... .. . ... ... ... : ... .. . P73 : ... .. . ... : ... .. . ... ... : C#4 01 5 P83 ... : ... .. . ... ... : ... .. 2 ... ...
ROW 8F : ... .. 9 ... ... ... : ... .. 6 ... ... ... : A#2 00 . P7E : ... .. B ... : ... .. . ... ... : C-4 01 5 P7F ... : ... .. . ... ... : ... .. . ... ...
ROW 90 : ... .. . ... ... ... : ... .. 5 ... ... ... : A-2 00 . P8A : ... .. . ... : ... .. . ... ... : B-3 01 5 P7B ... : ... .. . ... ... : ... .. . ... ...
ROW 91 : ... .. . ... ... ... : ... .. 4 ... ... ... : ... .. . P7A : ... .. . ... : ... .. . ... ... : A-3 01 5 P87 ... : ... .. . ... ... : ... .. . ... ...
ROW 92 : B-3 00 E ... ... ... : G-4 00 8 ... ... ... : G#2 00 . P89 : ... .. D ... : ... .. . ... ... : G#3 01 5 P86 ... : ... .. . ... ... : E-5 01 4 ... ...
ROW 93 : ... .. D ... ... ... : ... .. 7 ... ... ... : ... .. . P79 : ... .. . ... : ... .. . ... ... : G-3 01 5 ... ... : ... .. . ... ... : ... .. 3 ... ...
ROW 94 : ... .. C ... ... ... : ... .. . ... ... ... : G-2 00 . P89 : ... .. . ... : ... .. . ... ... : F#3 01 5 P87 ... : ... .. . ... ... : ... .. 2 ... ...
ROW 95 : ... .. A ... ... ... : ... .. 6 ... ... ... : ... .. . P79 : ... .. F ... : ... .. . ... ... : F-3 01 5 P89 ... : ... .. . ... ... : ... .. . ... ...
ROW 96 : ... .. . ... ... ... : ... .. 5 ... ... ... : F#2 00 . P8B : ... .. . ... : ... .. . ... ... : ... .. . P79 ... : ... .. . ... ... : ... .. . ... ...
ROW 97 : ... .. . ... ... ... : ... .. 4 ... ... ... : ... .. . P7B : ... .. . ... : ... .. . ... ... : E-3 01 5 P7C ... : ... .. . ... ... : ... .. . ... ...
ROW 98 : A#1 00 A ... V01 ... : D#4 00 D ... ... ... : D-5 00 . P80 : ... .. . ... : ... .. . ... ... : D#3 01 5 P80 ... : G#2 01 A P81 ... : A#2 01 F ... ...
ROW 99 : ... .. 9 ... ... ... : ... .. B ... ... ... : E-4 00 . ... : ... .. . ... : ... .. . ... ... : ... .. 4 ... ... : ... .. 9 ... ... : ... .. D ... ...
ROW 9A : ... .. 8 ... ... ... : ... .. . ... ... ... : A-3 00 . ... : ... .. . ... : ... .. . ... ... : ... .. . ... ... : ... .. 8 ... ... : ... .. 8 ... ...
ROW 9B : ... .. 6 ... ... ... : ... .. A ... ... ... : G#3 00 . ... : ... .. D ... : ... .. . ... ... : ... .. 3 ... ... : ... .. 7 ... ... : ... .. . ... ...
ROW 9C : ... .. . ... ... ... : A#3 00 D ... ... ... : D#3 00 . ... : ... .. . ... : ... .. . ... ... : ... .. . ... ... : ... .. . ... ... : ... .. . ... ...
ROW 9D : ... .. . ... ... ... : ... .. B ... ... ... : ... .. . ... : ... .. . ... : ... .. . ... ... : ... .. . ... ... : ... .. 6 ... ... : ... .. . ... ...
ROW 9E : ... .. . ... V02 ... : ... .. . ... ... ... : ... .. . ... : ... .. C ... : ... .. . ... ... : ... .. . ... ... : ... .. . ... ... : ... .. . ... ...
ROW 9F : ... .. . ... ... ... : ... .. A ... ... ... : ... .. . ... : ... .. . ... : ... .. . ... ... : ... .. 2 ... ... : ... .. 5 ... ... : ... .. . ... ...
ROW A0 : ... .. . ... ... ... : G#3 00 D ... ... ... : ... .. . ... : ... .. . ... : ... .. . ... ... : ... .. . ... ... : ... .. . ... ... : ... .. . ... ...
ROW A1 : ... .. . ... ... ... : ... .. B ... ... ... : ... .. . ... : ... .. B ... : ... .. . ... ... : ... .. . ... ... : ... .. . ... ... : ... .. . ... ...
ROW A2 : ... .. . ... ... ... : ... .. . ... ... ... : ... .. . ... : ... .. . ... : ... .. . ... ... : ... .. . ... ... : ... .. . ... ... : ... .. . ... ...
ROW A3 : ... .. . ... ... ... : ... .. A ... ... ... : ... .. . ... : ... .. . ... : ... .. . ... ... : ... .. . ... ... : ... .. . ... ... : ... .. . ... ...
ROW A4 : ... .. . ... V00 ... : D#3 00 D ... ... ... : ... .. . ... : ... .. 9 ... : ... .. . ... ... : ... .. . ... ... : ... .. . ... ... : ... .. . ... ...
ROW A5 : ... .. . ... ... ... : ... .. B ... ... ... : ... .. . ... : ... .. . ... : ... .. . ... ... : ... .. . ... ... : ... .. . ... ... : ... .. . ... ...
ROW A6 : ... .. . ... ... ... : ... .. . ... ... ... : ... .. . ... : ... .. . ... : ... .. . ... ... : ... .. . ... ... : ... .. . ... ... : ... .. . ... ...
ROW A7 : ... .. . ... ... ... : ... .. A ... ... ... : ... .. . ... : ... .. 8 ... : ... .. . ... ... : ... .. 3 ... ... : ... .. . ... ... : ... .. . ... ...
ROW A8 : ... .. . ... ... ... : A#2 00 D ... ... ... : ... .. . ... : ... .. . ... : ... .. . ... ... : ... .. . ... ... : ... .. . ... ... : ... .. . ... ...
ROW A9 : ... .. . ... ... ... : ... .. B ... ... ... : ... .. . ... : ... .. . ... : ... .. . ... ... : ... .. . ... ... : ... .. . ... ... : ... .. . ... ...
ROW AA : ... .. . ... V01 ... : ... .. . ... ... ... : ... .. . ... : ... .. 7 ... : ... .. . ... ... : ... .. . ... ... : ... .. . ... ... : ... .. . ... ...
ROW AB : ... .. . ... ... ... : ... .. A ... ... ... : ... .. . ... : ... .. . ... : ... .. . ... ... : ... .. . ... ... : ... .. . ... ... : ... .. . ... ...
ROW AC : ... .. . ... ... ... : G#2 00 D ... ... ... : ... .. . ... : ... .. . ... : ... .. . ... ... : ... .. . ... ... : ... .. . ... ... : ... .. . ... ...
ROW AD : ... .. 7 ... ... ... : ... .. B ... ... ... : ... .. . ... : ... .. 6 ... : ... .. . ... ... : ... .. . ... ... : ... .. . ... ... : ... .. . ... ...
ROW AE : ... .. . ... ... ... : ... .. . ... ... ... : ... .. . ... : ... .. . ... : ... .. . ... ... : ... .. . ... ... : ... .. . ... ... : ... .. . ... ...
ROW AF : ... .. . ... ... ... : ... .. A ... ... ... : ... .. . ... : ... .. . ... : ... .. . ... ... : ... .. . ... ... : ... .. . ... ... : ... .. . ... ...
ROW B0 : ... .. . ... V02 ... : D#2 00 D ... ... ... : D-3 00 . P75 : B-# 00 D ... : ... .. . ... ... : ... .. . ... ... : ... .. . ... ... : ... .. . ... ...
ROW B1 : ... .. . ... ... ... : ... .. B ... ... ... : C-3 00 . P84 : ... .. B ... : ... .. . ... ... : ... .. . ... ... : ... .. . ... ... : ... .. . ... ...
ROW B2 : ... .. . ... ... ... : ... .. . ... ... ... : B-2 00 . P7D : ... .. . ... : ... .. . ... ... : ... .. . ... ... : ... .. . ... ... : ... .. . ... ...
ROW B3 : ... .. . ... ... ... : ... .. A ... ... ... : A#2 00 . P78 : ... .. A ... : ... .. . ... ... : ... .. . ... ... : ... .. . ... ... : ... .. . ... ...
ROW B4 : ... .. . ... ... ... : A#1 00 D ... ... ... : A-2 00 . P74 : ... .. 8 ... : ... .. . ... ... : ... .. . ... ... : ... .. . ... ... : ... .. . ... ...
ROW B5 : ... .. . ... ... ... : ... .. B ... ... ... : G#2 00 . P73 : ... .. 7 ... : ... .. . ... ... : ... .. . ... ... : ... .. . ... ... : ... .. . ... ...
ROW B6 : ... .. . ... V03 ... : ... .. . ... ... ... : G-2 00 . ... : ... .. 6 ... : ... .. . ... ... : ... .. . ... ... : ... .. . ... ... : ... .. . ... ...
ROW B7 : ... .. . ... ... ... : ... .. A ... ... ... : F#2 00 . P75 : ... .. . ... : ... .. . ... ... : ... .. . ... ... : ... .. . ... ... : ... .. 4 ... ...
ROW B8 : ... .. . ... ... ... : G#1 00 D ... ... ... : F-2 00 . P79 : ... .. 5 ... : ... .. . ... ... : ... .. . ... ... : ... .. 3 ... ... : ... .. . ... ...
ROW B9 : ... .. . ... ... ... : ... .. B ... ... ... : E-2 00 . P7F : ... .. . ... : ... .. . ... ... : ... .. . ... ... : ... .. . ... ... : ... .. 1 ... ...
ROW BA : ... .. . ... ... ... : ... .. . ... ... ... : D#2 00 . P87 : ... .. 4 ... : ... .. . ... ... : ... .. . ... ... : ... .. . ... ... : ... .. . ... ...
ROW BB : ... .. . ... ... ... : ... .. A ... ... ... : D-2 00 . P92 : ... .. . ... : ... .. . ... ... : ... .. . ... ... : ... .. . ... ... : ... .. . ... ...
ROW BC : B-1 00 B ... V02 ... : E-4 00 D ... ... ... : D-4 00 . P80 : 1-# 00 F ... : ... .. . ... ... : E-3 01 6 ... ... : A-2 01 A ... ... : B-2 01 F ... ...
ROW BD : ... .. A ... ... ... : ... .. B ... ... ... : E-3 00 . ... : ... .. C ... : ... .. . ... ... : ... .. . ... ... : ... .. 9 ... ... : ... .. D ... ...
ROW BE : ... .. 9 ... ... ... : ... .. . ... ... ... : A-2 00 . ... : ... .. 6 ... : ... .. . ... ... : ... .. 5 ... ... : ... .. 8 ... ... : ... .. 8 ... ...
ROW BF : ... .. 8 ... ... ... : ... .. A ... ... ... : G#2 00 . ... : ... .. 3 ... : ... .. . ... ... : ... .. 4 ... ... : ... .. 7 ... ... : ... .. . ... ...
ROW C0 : ... .. . ... ... ... : B-3 00 D ... ... ... : D#2 00 . ... : ... .. 2 ... : ... .. . ... ... : ... .. . ... ... : ... .. . ... ... : ... .. . ... ...
ROW C1 : ... .. . ... ... ... : ... .. B ... ... ... : ... .. . ... : ... .. 0 ... : ... .. . ... ... : ... .. . ... ... : ... .. 6 ... ... : ... .. . ... ...
ROW C2 : ... .. . ... V00 ... : ... .. . ... ... ... : ... .. . ... : ... .. F ... : ... .. . ... ... : ... .. . ... ... : ... .. . ... ... : ... .. . ... ...
ROW C3 : ... .. . ... ... ... : ... .. A ... ... ... : ... .. . ... : ... .. C ... : ... .. . ... ... : ... .. 3 ... ... : ... .. 5 ... ... : ... .. . ... ...
ROW C4 : ... .. . ... ... ... : A-3 00 D ... ... ... : ... .. . ... : ... .. 6 ... : ... .. . ... ... : ... .. . ... ... : ... .. . ... ... : ... .. . ... ...
ROW C5 : ... .. . ... ... ... : ... .. B ... ... ... : ... .. . ... : ... .. 3 ... : ... .. . ... ... : ... .. . ... ... : ... .. . ... ... : ... .. . ... ...
ROW C6 : ... .. . ... ... ... : ... .. . ... ... ... : ... .. . ... : ... .. 2 ... : ... .. . ... ... : ... .. . ... ... : ... .. . ... ... : ... .. . ... ...
ROW C7 : ... .. . ... ... ... : ... .. A ... ... ... : ... .. . ... : ... .. 0 ... : ... .. . ... ... : ... .. . ... ... : ... .. . ... ... : ... .. . ... ...
ROW C8 : ... .. . ... V03 ... : E-3 00 D ... ... ... : D-2 00 . P7B : B-# 00 D ... : ... .. . ... ... : ... .. . ... ... : ... .. . ... ... : ... .. . ... ...
ROW C9 : ... .. . ... ... ... : ... .. B ... ... ... : C#2 00 . P78 : ... .. B ... : ... .. . ... ... : ... .. . ... ... : ... .. . ... ... : ... .. . ... ...
ROW CA : ... .. . ... ... ... : ... .. . ... ... ... : C-2 00 . ... : ... .. . ... : ... .. . ... ... : ... .. . ... ... : ... .. . ... ... : ... .. . ... ...
ROW CB : ... .. . ... ... ... : ... .. A ... ... ... : B-1 00 . P7B : ... .. A ... : ... .. . ... ... : ... .. . ... ... : ... .. . ... ... : ... .. . ... ...
ROW CC : ... .. . ... ... ... : B-2 00 D ... ... ... : A#1 00 . P81 : ... .. 8 ... : ... .. . ... ... : ... .. . ... ... : ... .. . ... ... : ... .. . ... ...
ROW CD : ... .. . ... ... ... : ... .. B ... ... ... : A-1 00 . P8A : ... .. 7 ... : ... .. . ... ... : ... .. . ... ... : ... .. . ... ... : ... .. . ... ...
ROW CE : ... .. . ... V02 ... : ... .. . ... ... ... : G#1 00 . P96 : ... .. 6 ... : ... .. . ... ... : ... .. . ... ... : ... .. . ... ... : ... .. . ... ...
ROW CF : ... .. . ... ... ... : ... .. A ... ... ... : ... .. . P66 : ... .. . ... : ... .. . ... ... : ... .. . ... ... : ... .. . ... ... : ... .. . ... ...
ROW D0 : ... .. . ... ... ... : A-2 00 D ... ... ... : G-1 00 . P76 : ... .. 5 ... : ... .. . ... ... : ... .. . ... ... : ... .. . ... ... : ... .. . ... ...
ROW D1 : ... .. . ... ... ... : ... .. B ... ... ... : F#1 00 . P8A : ... .. . ... : ... .. . ... ... : ... .. 4 ... ... : ... .. . ... ... : ... .. . ... ...
ROW D2 : ... .. . ... ... ... : ... .. . ... ... ... : F-1 00 . PA2 : ... .. 4 ... : ... .. . ... ... : ... .. . ... ... : ... .. . ... ... : ... .. . ... ...
ROW D3 : ... .. . ... ... ... : ... .. A ... ... ... : ... .. . P72 : ... .. . ... : ... .. . ... ... : ... .. . ... ... : ... .. . ... ... : ... .. . ... ...
ROW D4 : ... .. . ... V00 ... : E-2 00 D ... ... ... : C#2 00 . P80 : 1-# 00 F ... : ... .. . ... ... : ... .. . ... ... : ... .. . ... ... : ... .. . ... ...
ROW D5 : ... .. . ... ... ... : ... .. B ... ... ... : ... .. . ... : ... .. C ... : ... .. . ... ... : ... .. . ... ... : ... .. . ... ... : ... .. . ... ...
ROW D6 : ... .. . ... ... ... : ... .. . ... ... ... : ... .. . ... : ... .. 6 ... : ... .. . ... ... : ... .. . ... ... : ... .. . ... ... : ... .. . ... ...
ROW D7 : ... .. . ... ... ... : ... .. A ... ... ... : ... .. . ... : ... .. 3 ... : ... .. . ... ... : ... .. . ... ... : ... .. . ... ... : ... .. . ... ...
ROW D8 : ... .. . ... ... ... : B-1 00 D ... ... ... : ... .. . ... : ... .. 2 ... : ... .. . ... ... : ... .. . ... ... : ... .. . ... ... : ... .. . ... ...
ROW D9 : ... .. . ... ... ... : ... .. B ... ... ... : --- .. . ... : ... .. 0 ... : ... .. . ... ... : ... .. . ... ... : ... .. . ... ... : ... .. . ... ...
ROW DA : ... .. . ... V02 ... : ... .. . ... ... ... : A#1 00 . ... : ... .. F ... : ... .. . ... ... : ... .. . ... ... : ... .. . ... ... : ... .. . ... ...
ROW DB : ... .. . ... ... ... : ... .. A ... ... ... : ... .. . ... : ... .. C ... : ... .. . ... ... : ... .. . ... ... : ... .. . ... ... : ... .. . ... ...
ROW DC : ... .. . ... ... ... : A-1 00 D ... ... ... : ... .. . ... : ... .. 6 ... : ... .. . ... ... : ... .. . ... ... : ... .. . ... ... : ... .. . ... ...
ROW DD : ... .. . ... ... ... : ... .. B ... ... ... : ... .. . ... : ... .. 3 ... : ... .. . ... ... : ... .. . ... ... : ... .. . ... ... : ... .. . ... ...
ROW DE : ... .. . ... ... ... : ... .. . ... ... ... : ... .. . ... : ... .. 2 ... : ... .. . ... ... : ... .. . ... ... : ... .. . ... ... : ... .. . ... ...
ROW DF : ... .. . ... ... ... : ... .. A ... ... ... : --- .. . ... : ... .. 0 ... : ... .. . ... ... : ... .. . ... ... : ... .. . ... ... : ... .. . ... ...
ROW E0 : ... .. . ... V01 ... : E-1 00 D ... ... ... : G#2 00 . ... : B-# 00 D ... : ... .. . ... ... : ... .. . ... ... : ... .. . P71 ... : A#2 01 8 P8E ...
ROW E1 : ... .. . ... ... ... : ... .. B ... ... ... : ... .. . ... : ... .. B ... : ... .. . ... ... : ... .. . ... ... : G#2 01 5 P80 ... : ... .. . P7E ...
ROW E2 : ... .. . ... ... ... : ... .. . ... ... ... : ... .. . ... : ... .. . ... : ... .. . ... ... : ... .. . ... ... : G-2 01 5 P90 ... : A-2 01 8 P8F ...
ROW E3 : ... .. . ... ... ... : ... .. A ... ... ... : ... .. . ... : ... .. A ... : ... .. . ... ... : ... .. . ... ... : ... .. . P80 ... : ... .. . P7F ...
ROW E4 : ... .. . ... ... ... : A-1 00 D ... ... ... : ... .. . ... : ... .. 8 ... : ... .. . ... ... : ... .. . ... ... : ... .. . P70 ... : ... .. . P6F ...
ROW E5 : ... .. . ... ... ... : ... .. B ... ... ... : --- .. . ... : ... .. 7 ... : ... .. . ... ... : ... .. . ... ... : F#2 01 5 P82 ... : G#2 01 8 P82 ...
ROW E6 : ... .. 9 ... V02 ... : ... .. . ... ... ... : A#2 00 . ... : ... .. 6 ... : ... .. . ... ... : ... .. . ... ... : ... .. . P72 ... : ... .. . P72 ...
ROW E7 : ... .. . ... ... ... : ... .. A ... ... ... : ... .. . ... : ... .. . ... : ... .. . ... ... : ... .. . ... ... : F-2 01 5 P86 ... : G-2 01 8 P86 ...
ROW E8 : ... .. . ... ... ... : B-1 00 D ... ... ... : ... .. . ... : ... .. 5 ... : ... .. . ... ... : ... .. . ... ... : ... .. . P76 ... : ... .. . P76 ...
ROW E9 : ... .. . ... ... ... : ... .. B ... ... ... : ... .. . ... : ... .. . ... : ... .. . ... ... : ... .. . ... ... : E-2 01 5 P8C ... : F#2 01 8 P8D ...
ROW EA : ... .. . ... ... ... : ... .. . ... ... ... : ... .. . ... : ... .. 4 ... : ... .. . ... ... : ... .. . ... ... : ... .. . P7C ... : ... .. . P7D ...
ROW EB : ... .. . ... ... ... : ... .. A ... ... ... : --- .. . ... : ... .. . ... : ... .. . ... ... : ... .. . ... ... : D#2 01 5 P94 ... : ... .. . P6D ...
ROW EC : ... .. . ... V00 ... : E-2 00 D ... ... ... : C#3 00 . ... : 1-# 00 F ... : ... .. . ... ... : ... .. . ... ... : ... .. . P84 ... : F-2 01 8 P86 ...
ROW ED : ... .. . ... ... ... : ... .. B ... ... ... : ... .. . ... : ... .. C ... : ... .. . ... ... : ... .. . ... ... : ... .. . P74 ... : ... .. 4 P76 ...
ROW EE : ... .. . ... ... ... : ... .. . ... ... ... : ... .. . ... : ... .. 6 ... : ... .. . ... ... : ... .. . ... ... : D-2 01 3 P8F ... : E-2 01 4 P92 ...
ROW EF : ... .. . ... ... ... : ... .. A ... ... ... : ... .. . ... : ... .. 3 ... : ... .. . ... ... : ... .. . ... ... : ... .. . P7F ... : ... .. 1 P82 ...
ROW F0 : ... .. . ... ... ... : A-2 00 D ... ... ... : ... .. . ... : ... .. 2 ... : ... .. . ... ... : ... .. . ... ... : ... .. . P6F ... : ... .. . P72 ...
ROW F1 : ... .. . ... ... ... : ... .. B ... ... ... : --- .. . ... : ... .. 0 ... : ... .. . ... ... : ... .. . ... ... : C#2 01 3 P8C ... : D#2 01 1 P90 ...
ROW F2 : ... .. . ... V01 ... : ... .. . ... ... ... : D#3 00 . ... : ... .. F ... : ... .. . ... ... : ... .. . ... ... : ... .. . P7C ... : ... .. . P80 ...
ROW F3 : ... .. . ... ... ... : ... .. A ... ... ... : ... .. . ... : ... .. C ... : ... .. . ... ... : ... .. . ... ... : ... .. . P6C ... : ... .. . P70 ...
ROW F4 : ... .. . ... ... ... : E-3 00 D ... ... ... : ... .. . ... : ... .. 6 ... : ... .. . ... ... : ... .. . ... ... : C-2 01 3 P8C ... : D-2 01 1 P91 ...
ROW F5 : ... .. . ... ... ... : ... .. B ... ... ... : ... .. . ... : ... .. 3 ... : ... .. . ... ... : ... .. . ... ... : ... .. . P7C ... : ... .. . P81 ...
ROW F6 : ... .. . ... ... ... : ... .. . ... ... ... : ... .. . ... : ... .. 2 ... : ... .. . ... ... : ... .. . ... ... : ... .. . P6C ... : ... .. 0 P71 ...
ROW F7 : ... .. . ... ... ... : ... .. A ... ... ... : --- .. . ... : ... .. 0 ... : ... .. . ... ... : ... .. . ... ... : B-1 01 3 P8F ... : C#2 01 0 P94 ...
ROW F8 : C#2 00 F ... ... ... : F#4 00 D ... ... ... : D-6 00 . ... : B-# 00 D ... : ... .. . ... ... : F#3 01 A ... ... : B-2 01 A P81 ... : C#3 01 F P80 ...
ROW F9 : ... .. E ... ... ... : ... .. B ... ... ... : E-5 00 . ... : ... .. B ... : ... .. . ... ... : ... .. 9 ... ... : ... .. 9 ... ... : ... .. D ... ...
ROW FA : ... .. D ... ... ... : ... .. . ... ... ... : A-4 00 . ... : ... .. . ... : ... .. . ... ... : ... .. 8 ... ... : ... .. 8 ... ... : ... .. 8 ... ...
ROW FB : ... .. A ... ... ... : ... .. A ... ... ... : G#4 00 . ... : ... .. A ... : ... .. . ... ... : ... .. 7 ... ... : ... .. 7 ... ... : ... .. . ... ...
ROW FC : ... .. . ... ... ... : C#4 00 D ... ... ... : D#4 00 . ... : ... .. 8 ... : ... .. . ... ... : ... .. . ... ... : ... .. . ... ... : ... .. . ... ...
ROW FD : ... .. . ... ... ... : ... .. B ... ... ... : ... .. . ... : ... .. 7 ... : ... .. . ... ... : ... .. 6 ... ... : ... .. 6 ... ... : ... .. . ... ...
ROW FE : ... .. . ... V02 ... : ... .. . ... ... ... : ... .. . ... : ... .. 6 ... : ... .. . ... ... : ... .. . ... ... : ... .. . ... ... : ... .. . ... ...
ROW FF : ... .. . ... ... ... : ... .. A ... ... ... : ... .. . ... : ... .. . ... : ... .. . ... ... : ... .. 5 ... ... : ... .. 5 ... ... : ... .. . ... ...

PATTERN 0B
ROW 00 : ... .. . ... ... ... : B-3 00 D ... ... ... : ... .. . ... : ... .. 5 ... : ... .. . ... ... : ... .. . ... ... : ... .. . ... ... : ... .. . ... ...
ROW 01 : ... .. . ... ... ... : ... .. B ... ... ... : ... .. . ... : ... .. . ... : ... .. . ... ... : ... .. . ... ... : ... .. . ... ... : ... .. . ... ...
ROW 02 : ... .. . ... ... ... : ... .. . ... ... ... : ... .. . ... : ... .. 4 ... : ... .. . ... ... : ... .. . ... ... : ... .. . ... ... : ... .. . ... ...
ROW 03 : ... .. . ... ... ... : ... .. A ... ... ... : ... .. . ... : ... .. . ... : ... .. . ... ... : ... .. . ... ... : ... .. . ... ... : ... .. . ... ...
ROW 04 : ... .. . ... V00 ... : F#3 00 D ... ... ... : ... .. . ... : 1-# 00 F ... : ... .. . ... ... : ... .. . ... ... : ... .. . ... ... : ... .. . ... ...
ROW 05 : ... .. . ... ... ... : ... .. B ... ... ... : ... .. . ... : ... .. C ... : ... .. . ... ... : ... .. . ... ... : ... .. . ... ... : ... .. . ... ...
ROW 06 : ... .. . ... ... ... : ... .. . ... ... ... : ... .. . ... : ... .. 6 ... : ... .. . ... ... : ... .. . ... ... : ... .. . ... ... : ... .. . ... ...
ROW 07 : ... .. . ... ... ... : ... .. A ... ... ... : ... .. . ... : ... .. 3 ... : ... .. . ... ... : ... .. . ... ... : ... .. . ... ... : ... .. . ... ...
ROW 08 : ... .. . ... ... ... : C#3 00 D ... ... ... : ... .. . ... : ... .. 2 ... : ... .. . ... ... : ... .. . ... ... : ... .. . ... ... : ... .. . ... ...
ROW 09 : ... .. . ... ... ... : ... .. B ... ... ... : ... .. . ... : ... .. 0 ... : ... .. . ... ... : ... .. . ... ... : ... .. . ... ... : ... .. . ... ...
ROW 0A : ... .. . ... V01 ... : ... .. . ... ... ... : ... .. . ... : ... .. F ... : ... .. . ... ... : ... .. . ... ... : ... .. . ... ... : ... .. . ... ...
ROW 0B : ... .. . ... ... ... : ... .. A ... ... ... : ... .. . ... : ... .. C ... : ... .. . ... ... : ... .. . ... ... : ... .. . ... ... : ... .. . ... ...
ROW 0C : ... .. . ... ... ... : B-2 00 D ... ... ... : ... .. . ... : ... .. 6 ... : ... .. . ... ... : ... .. . ... ... : ... .. . ... ... : ... .. . ... ...
ROW 0D : ... .. . ... ... ... : ... .. B ... ... ... : ... .. . ... : ... .. 3 ... : ... .. . ... ... : ... .. . ... ... : ... .. . ... ... : ... .. . ... ...
ROW 0E : ... .. . ... ... ... : ... .. . ... ... ... : ... .. . ... : ... .. 2 ... : ... .. . ... ... : ... .. . ... ... : ... .. . ... ... : ... .. . ... ...
ROW 0F : ... .. . ... ... ... : ... .. A ... ... ... : ... .. . ... : ... .. 0 ... : ... .. . ... ... : ... .. . ... ... : ... .. . ... ... : ... .. . ... ...
ROW 10 : ... .. . ... V02 ... : F#2 00 D ... ... ... : B-3 00 . P7E : B-# 00 D ... : ... .. . ... ... : ... .. . ... ... : ... .. . ... ... : ... .. . ... ...
ROW 11 : ... .. . ... ... ... : ... .. B ... ... ... : G#3 00 . P79 : ... .. B ... : ... .. . ... ... : ... .. . ... ... : ... .. . ... ... : ... .. . ... ...
ROW 12 : ... .. . ... ... ... : ... .. . ... ... ... : F-3 00 . P7C : ... .. . ... : ... .. . ... ... : ... .. . ... ... : ... .. . ... ... : ... .. . ... ...
ROW 13 : ... .. . ... ... ... : ... .. A ... ... ... : D-3 00 . P89 : ... .. A ... : ... .. . ... ... : ... .. . ... ... : ... .. . ... ... : ... .. . ... ...
ROW 14 : ... .. . ... ... ... : C#2 00 D ... ... ... : C-3 00 . P88 : ... .. 8 ... : ... .. . ... ... : ... .. . ... ... : ... .. . ... ... : ... .. . ... ...
ROW 15 : ... .. . ... ... ... : ... .. B ... ... ... : A#2 00 . P8C : ... .. 7 ... : ... .. . ... ... : ... .. . ... ... : ... .. . ... ... : ... .. . ... ...
ROW 16 : ... .. . ... V03 ... : ... .. . ... ... ... : A-2 00 . P78 : ... .. 6 ... : ... .. . ... ... : ... .. . ... ... : ... .. . ... ... : ... .. . ... ...
ROW 17 : ... .. . ... ... ... : ... .. A ... ... ... : G-2 00 . P87 : ... .. . ... : ... .. . ... ... : ... .. . ... ... : ... .. . ... ... : ... .. 4 ... ...
ROW 18 : ... .. . ... ... ... : B-1 00 D ... ... ... : F#2 00 . P79 : ... .. 5 ... : ... .. . ... ... : ... .. . ... ... : ... .. 3 ... ... : ... .. . ... ...
ROW 19 : ... .. . ... ... ... : ... .. B ... ... ... : E-2 00 . P93 : ... .. . ... : ... .. . ... ... : ... .. . ... ... : ... .. . ... ... : ... .. 1 ... ...
ROW 1A : ... .. . ... ... ... : ... .. . ... ... ... : D#2 00 . P8B : ... .. 4 ... : ... .. . ... ... : ... .. . ... ... : ... .. . ... ... : ... .. . ... ...
ROW 1B : ... .. . ... ... ... : ... .. A ... ... ... : D-2 00 . P86 : ... .. . ... : ... .. . ... ... : ... .. . ... ... : ... .. . ... ... : ... .. . ... ...
ROW 1C : D#2 00 F ... V02 ... : G#4 00 D ... ... ... : D-5 00 . P80 : 1-# 00 F ... : ... .. . ... ... : G#3 01 A ... ... : C#3 01 A ... ... : D#3 01 F ... ...
ROW 1D : ... .. E ... ... ... : ... .. B ... ... ... : E-4 00 . ... : ... .. C ... : ... .. . ... ... : ... .. 9 ... ... : ... .. 9 ... ... : ... .. D ... ...
ROW 1E : ... .. D ... ... ... : ... .. . ... ... ... : A-3 00 . ... : ... .. 6 ... : ... .. . ... ... : ... .. 8 ... ... : ... .. 8 ... ... : ... .. 8 ... ...
ROW 1F : ... .. A ... ... ... : ... .. A ... ... ... : G#3 00 . ... : ... .. 3 ... : ... .. . ... ... : ... .. 7 ... ... : ... .. 7 ... ... : ... .. . ... ...
ROW 20 : ... .. . ... ... ... : D#4 00 D ... ... ... : D#3 00 . ... : ... .. 2 ... : ... .. . ... ... : ... .. . ... ... : ... .. . ... ... : ... .. . ... ...
ROW 21 : ... .. . ... ... ... : ... .. B ... ... ... : ... .. . ... : ... .. 0 ... : ... .. . ... ... : ... .. 6 ... ... : ... .. 6 ... ... : ... .. . ... ...
ROW 22 : ... .. . ... V00 ... : ... .. . ... ... ... : ... .. . ... : ... .. F ... : ... .. . ... ... : ... .. . ... ... : ... .. . ... ... : ... .. . ... ...
ROW 23 : ... .. . ... ... ... : ... .. A ... ... ... : ... .. . ... : ... .. C ... : ... .. . ... ... : ... .. 5 ... ... : ... .. 5 ... ... : ... .. . ... ...
ROW 24 : ... .. . ... ... ... : C#4 00 D ... ... ... : ... .. . ... : ... .. 6 ... : ... .. . ... ... : ... .. . ... ... : ... .. . ... ... : ... .. . ... ...
ROW 25 : ... .. . ... ... ... : ... .. B ... ... ... : ... .. . ... : ... .. 3 ... : ... .. . ... ... : ... .. . ... ... : ... .. . ... ... : ... .. . ... ...
ROW 26 : ... .. . ... ... ... : ... .. . ... ... ... : ... .. . ... : ... .. 2 ... : ... .. . ... ... : ... .. . ... ... : ... .. . ... ... : ... .. . ... ...
ROW 27 : ... .. . ... ... ... : ... .. A ... ... ... : ... .. . ... : ... .. 0 ... : ... .. . ... ... : ... .. . ... ... : ... .. . ... ... : ... .. . ... ...
ROW 28 : ... .. . ... V03 ... : G#3 00 D ... ... ... : ... .. . ... : B-# 00 D ... : ... .. . ... ... : ... .. . ... ... : ... .. . ... ... : ... .. . ... ...
ROW 29 : ... .. . ... ... ... : ... .. B ... ... ... : ... .. . ... : ... .. B ... : ... .. . ... ... : ... .. . ... ... : ... .. . ... ... : ... .. . ... ...
ROW 2A : ... .. . ... ... ... : ... .. . ... ... ... : ... .. . ... : ... .. . ... : ... .. . ... ... : ... .. . ... ... : ... .. . ... ... : ... .. . ... ...
ROW 2B : ... .. . ... ... ... : ... .. A ... ... ... : ... .. . ... : ... .. A ... : ... .. . ... ... : ... .. . ... ... : ... .. . ... ... : ... .. . ... ...
ROW 2C : ... .. . ... ... ... : D#3 00 D ... ... ... : ... .. . ... : ... .. 8 ... : ... .. . ... ... : ... .. . ... ... : ... .. . ... ... : ... .. . ... ...
ROW 2D : ... .. . ... ... ... : ... .. B ... ... ... : ... .. . ... : ... .. 7 ... : ... .. . ... ... : ... .. . ... ... : ... .. . ... ... : ... .. . ... ...
ROW 2E : ... .. . ... V02 ... : ... .. . ... ... ... : C#3 00 . P7C : ... .. D ... : ... .. . ... ... : ... .. . ... ... : ... .. . ... ... : ... .. . ... ...
ROW 2F : ... .. . ... ... ... : ... .. A ... ... ... : B-2 00 . P7D : ... .. B ... : ... .. . ... ... : ... .. . ... ... : ... .. . ... ... : ... .. . ... ...
ROW 30 : ... .. . ... ... ... : C#3 00 D ... ... ... : A-2 00 . P84 : ... .. . ... : ... .. . ... ... : ... .. . ... ... : ... .. . ... ... : ... .. . ... ...
ROW 31 : ... .. . ... ... ... : ... .. B ... ... ... : G#2 00 . P73 : ... .. A ... : ... .. . ... ... : ... .. . ... ... : ... .. . ... ... : ... .. . ... ...
ROW 32 : ... .. . ... ... ... : ... .. . ... ... ... : F#2 00 . P85 : ... .. 8 ... : ... .. . ... ... : ... .. . ... ... : ... .. . ... ... : ... .. . ... ...
ROW 33 : ... .. . ... ... ... : ... .. A ... ... ... : F-2 00 . P79 : ... .. 7 ... : ... .. . ... ... : ... .. . ... ... : ... .. . ... ... : ... .. . ... ...
ROW 34 : ... .. . ... V00 ... : G#2 00 D ... ... ... : C#3 00 . P80 : 1-# 00 F ... : ... .. . ... ... : ... .. . ... ... : ... .. . ... ... : ... .. . ... ...
ROW 35 : ... .. . ... ... ... : ... .. B ... ... ... : ... .. . ... : ... .. C ... : ... .. . ... ... : ... .. . ... ... : ... .. . ... ... : ... .. . ... ...
ROW 36 : ... .. . ... ... ... : ... .. . ... ... ... : ... .. . ... : ... .. 6 ... : ... .. . ... ... : ... .. . ... ... : ... .. . ... ... : ... .. . ... ...
ROW 37 : ... .. . ... ... ... : ... .. A ... ... ... : ... .. . ... : ... .. 3 ... : ... .. . ... ... : ... .. . ... ... : ... .. . ... ... : ... .. . ... ...
ROW 38 : ... .. . ... ... ... : D#2 00 D ... ... ... : ... .. . ... : ... .. 2 ... : ... .. . ... ... : ... .. . ... ... : ... .. . ... ... : ... .. . ... ...
ROW 39 : ... .. . ... ... ... : ... .. B ... ... ... : --- .. . ... : ... .. 0 ... : ... .. . ... ... : ... .. . ... ... : ... .. . ... ... : ... .. . ... ...
ROW 3A : ... .. . ... V02 ... : ... .. . ... ... ... : A#2 00 . ... : ... .. F ... : ... .. . ... ... : ... .. . ... ... : ... .. . ... ... : ... .. . ... ...
ROW 3B : ... .. . ... ... ... : ... .. A ... ... ... : ... .. . ... : ... .. C ... : ... .. . ... ... : ... .. . ... ... : ... .. . ... ... : ... .. . ... ...
ROW 3C : ... .. . ... ... ... : C#2 00 D ... ... ... : ... .. . ... : ... .. 6 ... : ... .. . ... ... : ... .. . ... ... : ... .. . ... ... : ... .. . ... ...
ROW 3D : ... .. . ... ... ... : ... .. B ... ... ... : ... .. . ... : ... .. 3 ... : ... .. . ... ... : ... .. . ... ... : ... .. . ... ... : ... .. . ... ...
ROW 3E : ... .. . ... ... ... : ... .. . ... ... ... : ... .. . ... : ... .. 2 ... : ... .. . ... ... : ... .. . ... ... : ... .. . ... ... : ... .. . ... ...
ROW 3F : ... .. . ... ... ... : ... .. A ... ... ... : --- .. . ... : ... .. 0 ... : ... .. . ... ... : ... .. . ... ... : ... .. . ... ... : ... .. . ... ...
ROW 40 : ... .. . ... V01 ... : G#1 00 D ... ... ... : G#3 00 . ... : 9-# 00 D ... : ... .. . ... ... : ... .. . ... ... : C-3 01 5 P89 ... : D-3 01 8 P88 ...
ROW 41 : ... .. . ... ... ... : ... .. B ... ... ... : ... .. . ... : ... .. B ... : ... .. . ... ... : ... .. . ... ... : ... .. . P79 ... : ... .. . P78 ...
ROW 42 : ... .. . ... ... ... : ... .. . ... ... ... : ... .. . ... : ... .. . ... : ... .. . ... ... : ... .. . ... ... : B-2 01 5 P82 ... : C#3 01 8 P82 ...
ROW 43 : ... .. . ... ... ... : ... .. A ... ... ... : ... .. . ... : ... .. A ... : ... .. . ... ... : ... .. . ... ... : A#2 01 5 P8D ... : C-3 01 8 P8E ...
ROW 44 : ... .. . ... ... ... : C#2 00 D ... ... ... : ... .. . ... : ... .. 8 ... : ... .. . ... ... : ... .. . ... ... : ... .. . P7D ... : ... .. . P7E ...
ROW 45 : ... .. . ... ... ... : ... .. B ... ... ... : --- .. . ... : ... .. 7 ... : ... .. . ... ... : ... .. . ... ... : A-2 01 5 P89 ... : B-2 01 8 P8B ...
ROW 46 : ... .. . ... V02 ... : ... .. . ... ... ... : A#3 00 . ... : ... .. D ... : ... .. . ... ... : ... .. . ... ... : ... .. . P79 ... : ... .. . P7B ...
ROW 47 : ... .. . ... ... ... : ... .. A ... ... ... : ... .. . ... : ... .. B ... : ... .. . ... ... : ... .. . ... ... : G#2 01 5 P88 ... : A#2 01 8 P89 ...
ROW 48 : ... .. . ... ... ... : D#2 00 D ... ... ... : ... .. . ... : ... .. . ... : ... .. . ... ... : ... .. . ... ... : ... .. . P78 ... : ... .. . P79 ...
ROW 49 : ... .. . ... ... ... : ... .. B ... ... ... : ... .. . ... : ... .. A ... : ... .. . ... ... : ... .. . ... ... : G-2 01 5 P88 ... : A-2 01 8 P8A ...
ROW 4A : ... .. . ... ... ... : ... .. . ... ... ... : ... .. . ... : ... .. 8 ... : ... .. . ... ... : ... .. . ... ... : ... .. . P78 ... : ... .. . P7A ...
ROW 4B : ... .. . ... ... ... : ... .. A ... ... ... : --- .. . ... : ... .. 7 ... : ... .. . ... ... : ... .. . ... ... : F#2 01 5 P8A ... : G#2 01 8 P8D ...
ROW 4C : ... .. . ... V00 ... : G#2 00 D ... ... ... : C#4 00 . ... : 1-# 00 F ... : ... .. . ... ... : ... .. . ... ... : ... .. . P7A ... : ... .. . P7D ...
ROW 4D : ... .. . ... ... ... : ... .. B ... ... ... : ... .. . ... : ... .. C ... : ... .. . ... ... : ... .. . ... ... : F-2 01 5 P8E ... : G-2 01 8 P91 ...
ROW 4E : ... .. . ... ... ... : ... .. . ... ... ... : ... .. . ... : ... .. 6 ... : ... .. . ... ... : ... .. . ... ... : ... .. . P7E ... : ... .. . P81 ...
ROW 4F : ... .. . ... ... ... : ... .. A ... ... ... : ... .. . ... : ... .. 3 ... : ... .. . ... ... : ... .. . ... ... : ... .. . P6E ... : ... .. . P71 ...
ROW 50 : ... .. . ... ... ... : C#3 00 D ... ... ... : ... .. . ... : ... .. 2 ... : ... .. . ... ... : ... .. . ... ... : E-2 01 5 P84 ... : F#2 01 8 P88 ...
ROW 51 : ... .. . ... ... ... : ... .. B ... ... ... : --- .. . ... : ... .. 0 ... : ... .. . ... ... : ... .. . ... ... : ... .. . P74 ... : ... .. . P78 ...
ROW 52 : ... .. . ... V01 ... : ... .. . ... ... ... : D#4 00 . ... : ... .. F ... : ... .. . ... ... : ... .. . ... ... : D#2 01 5 P8C ... : F-2 01 8 P91 ...
ROW 53 : ... .. . ... ... ... : ... .. A ... ... ... : ... .. . ... : ... .. C ... : ... .. . ... ... : ... .. . ... ... : ... .. . P7C ... : ... .. 4 P81 ...
ROW 54 : ... .. . ... ... ... : G#3 00 D ... ... ... : ... .. . ... : ... .. 6 ... : ... .. . ... ... : ... .. . ... ... : ... .. 3 P6C ... : ... .. . P71 ...
ROW 55 : ... .. . ... ... ... : ... .. B ... ... ... : ... .. . ... : ... .. 3 ... : ... .. . ... ... : ... .. . ... ... : D-2 01 3 P87 ... : E-2 01 1 P8D ...
ROW 56 : ... .. . ... ... ... : ... .. . ... ... ... : ... .. . ... : ... .. 2 ... : ... .. . ... ... : ... .. . ... ... : ... .. . P77 ... : ... .. . P7D ...
ROW 57 : ... .. . ... ... ... : ... .. A ... ... ... : --- .. . ... : ... .. 0 ... : ... .. . ... ... : ... .. . ... ... : C#2 01 3 P94 ... : ... .. . P6D ...
ROW 58 : A#2 00 F ... ... ... : A#4 00 D ... ... ... : D-5 00 . ... : B-# 00 D ... : ... .. . ... ... : D#3 01 8 ... ... : G#3 01 A P81 ... : A#3 01 F P80 ...
ROW 59 : ... .. E ... ... ... : ... .. B ... ... ... : E-4 00 . ... : ... .. B ... : ... .. . ... ... : ... .. 7 ... ... : ... .. 9 ... ... : ... .. D ... ...
ROW 5A : ... .. D ... ... ... : ... .. . ... ... ... : A-3 00 . ... : ... .. . ... : ... .. . ... ... : ... .. 6 ... ... : ... .. 8 ... ... : ... .. 8 ... ...
ROW 5B : ... .. A ... ... ... : ... .. A ... ... ... : G#3 00 . ... : ... .. A ... : ... .. . ... ... : ... .. 4 ... ... : ... .. 7 ... ... : ... .. . ... ...
ROW 5C : ... .. . ... ... ... : E-4 00 D ... ... ... : D#3 00 . ... : ... .. 8 ... : ... .. . ... ... : ... .. . ... ... : ... .. . ... ... : ... .. . ... ...
ROW 5D : ... .. . ... ... ... : ... .. B ... ... ... : ... .. . ... : ... .. 7 ... : ... .. . ... ... : ... .. 2 ... ... : ... .. 6 ... ... : ... .. . ... ...
ROW 5E : ... .. . ... V02 ... : ... .. . ... ... ... : ... .. . ... : ... .. 6 ... : ... .. . ... ... : ... .. 8 ... ... : ... .. . ... ... : ... .. . ... ...
ROW 5F : ... .. . ... ... ... : ... .. A ... ... ... : ... .. . ... : ... .. . ... : ... .. . ... ... : ... .. 7 ... ... : ... .. 5 ... ... : ... .. . ... ...
ROW 60 : ... .. . ... ... ... : D#4 00 D ... ... ... : ... .. . ... : ... .. 5 ... : ... .. . ... ... : ... .. 6 ... ... : ... .. . ... ... : ... .. . ... ...
ROW 61 : ... .. . ... ... ... : ... .. B ... ... ... : ... .. . ... : ... .. . ... : ... .. . ... ... : ... .. 5 ... ... : ... .. . ... ... : ... .. . ... ...
ROW 62 : ... .. . ... ... ... : ... .. . ... ... ... : ... .. . ... : ... .. 4 ... : ... .. . ... ... : ... .. . ... ... : ... .. . ... ... : ... .. . ... ...
ROW 63 : ... .. . ... ... ... : ... .. A ... ... ... : ... .. . ... : ... .. . ... : ... .. . ... ... : ... .. 4 ... ... : ... .. . ... ... : ... .. . ... ...
ROW 64 : ... .. . ... V00 ... : A#3 00 D ... ... ... : ... .. . ... : 1-# 00 F ... : ... .. . ... ... : ... .. . ... ... : ... .. . ... ... : ... .. . ... ...
ROW 65 : ... .. . ... ... ... : ... .. B ... ... ... : ... .. . ... : ... .. C ... : ... .. . ... ... : ... .. . ... ... : ... .. . ... ... : ... .. . ... ...
ROW 66 : ... .. . ... ... ... : ... .. . ... ... ... : ... .. . ... : ... .. 6 ... : ... .. . ... ... : ... .. 2 ... ... : ... .. . ... ... : ... .. . ... ...
ROW 67 : ... .. . ... ... ... : ... .. A ... ... ... : ... .. . ... : ... .. 3 ... : ... .. . ... ... : ... .. . ... ... : ... .. . ... ... : ... .. . ... ...
ROW 68 : ... .. . ... ... ... : E-3 00 D ... ... ... : ... .. . ... : ... .. 2 ... : ... .. . ... ... : ... .. . ... ... : ... .. . ... ... : ... .. . ... ...
ROW 69 : ... .. . ... ... ... : ... .. B ... ... ... : ... .. . ... : ... .. 0 ... : ... .. . ... ... : ... .. . ... ... : ... .. . ... ... : ... .. . ... ...
ROW 6A : ... .. . ... V01 ... : ... .. . ... ... ... : D-3 00 . P75 : ... .. F ... : ... .. . ... ... : ... .. 8 ... ... : ... .. . ... ... : ... .. . ... ...
ROW 6B : ... .. . ... ... ... : ... .. A ... ... ... : C-3 00 . P84 : ... .. C ... : ... .. . ... ... : ... .. 7 ... ... : ... .. . ... ... : ... .. . ... ...
ROW 6C : ... .. . ... ... ... : D#3 00 D ... ... ... : B-2 00 . P7D : ... .. 6 ... : ... .. . ... ... : ... .. 6 ... ... : ... .. . ... ... : ... .. . ... ...
ROW 6D : ... .. . ... ... ... : ... .. B ... ... ... : A#2 00 . P78 : ... .. 3 ... : ... .. . ... ... : ... .. 4 ... ... : ... .. . ... ... : ... .. . ... ...
ROW 6E : ... .. . ... ... ... : ... .. . ... ... ... : A-2 00 . P74 : ... .. 2 ... : ... .. . ... ... : ... .. . ... ... : ... .. . ... ... : ... .. . ... ...
ROW 6F : ... .. . ... ... ... : ... .. A ... ... ... : G#2 00 . P73 : ... .. 0 ... : ... .. . ... ... : ... .. 2 ... ... : ... .. . ... ... : ... .. . ... ...
ROW 70 : ... .. . ... V02 ... : A#2 00 D ... ... ... : G-2 00 . ... : B-# 00 D ... : ... .. . ... ... : ... .. 8 ... ... : ... .. . ... ... : ... .. . ... ...
ROW 71 : ... .. . ... ... ... : ... .. B ... ... ... : F#2 00 . P75 : ... .. B ... : ... .. . ... ... : ... .. 7 ... ... : ... .. . ... ... : ... .. . ... ...
ROW 72 : ... .. . ... ... ... : ... .. . ... ... ... : F-2 00 . P79 : ... .. . ... : ... .. . ... ... : ... .. 6 ... ... : ... .. . ... ... : ... .. . ... ...
ROW 73 : ... .. . ... ... ... : ... .. A ... ... ... : E-2 00 . P7F : ... .. A ... : ... .. . ... ... : ... .. 5 ... ... : ... .. . ... ... : ... .. . ... ...
ROW 74 : ... .. . ... ... ... : E-2 00 D ... ... ... : D#2 00 . P87 : ... .. 8 ... : ... .. . ... ... : ... .. . ... ... : ... .. . ... ... : ... .. . ... ...
ROW 75 : ... .. . ... ... ... : ... .. B ... ... ... : D-2 00 . P92 : ... .. 7 ... : ... .. . ... ... : ... .. 4 ... ... : ... .. . ... ... : ... .. . ... ...
ROW 76 : ... .. . ... V03 ... : ... .. . ... ... ... : ... .. . P72 : ... .. 6 ... : ... .. . ... ... : ... .. . ... ... : ... .. . ... ... : ... .. . ... ...
ROW 77 : ... .. . ... ... ... : ... .. A ... ... ... : C#2 00 . P7F : ... .. . ... : ... .. . ... ... : ... .. . ... ... : ... .. . ... ... : ... .. 4 ... ...
ROW 78 : ... .. . ... ... ... : D#2 00 D ... ... ... : C-2 00 . P8F : ... .. 5 ... : ... .. . ... ... : ... .. 2 ... ... : ... .. 3 ... ... : ... .. . ... ...
ROW 79 : ... .. . ... ... ... : ... .. B ... ... ... : ... .. . P6F : ... .. . ... : ... .. . ... ... : ... .. . ... ... : ... .. . ... ... : ... .. 1 ... ...
ROW 7A : ... .. . ... ... ... : ... .. . ... ... ... : B-1 00 . P82 : ... .. 4 ... : ... .. . ... ... : ... .. . ... ... : ... .. . ... ... : ... .. . ... ...
ROW 7B : ... .. . ... ... ... : ... .. A ... ... ... : A#1 00 . P98 : ... .. . ... : ... .. . ... ... : ... .. . ... ... : ... .. . ... ... : ... .. . ... ...
ROW 7C : B-2 00 F ... V02 ... : B-4 00 D ... ... ... : D-4 00 . P80 : 1-# 00 F ... : ... .. . ... ... : E-3 01 8 ... ... : A-3 01 A ... ... : B-3 01 F ... ...
ROW 7D : ... .. E ... ... ... : ... .. B ... ... ... : E-3 00 . ... : ... .. C ... : ... .. . ... ... : ... .. 7 ... ... : ... .. 9 ... ... : ... .. D ... ...
ROW 7E : ... .. D ... ... ... : ... .. . ... ... ... : A-2 00 . ... : ... .. 6 ... : ... .. . ... ... : ... .. 6 ... ... : ... .. 8 ... ... : ... .. 8 ... ...
ROW 7F : ... .. A ... ... ... : ... .. A ... ... ... : G#2 00 . ... : ... .. 3 ... : ... .. . ... ... : ... .. 4 ... ... : ... .. 7 ... ... : ... .. . ... ...
ROW 80 : ... .. . ... ... ... : F#4 00 D ... ... ... : D#2 00 . ... : ... .. 2 ... : ... .. . ... ... : ... .. . ... ... : ... .. . ... ... : ... .. . ... ...
ROW 81 : ... .. . ... ... ... : ... .. B ... ... ... : ... .. . ... : ... .. 0 ... : ... .. . ... ... : ... .. 2 ... ... : ... .. 6 ... ... : ... .. . ... ...
ROW 82 : ... .. . ... V00 ... : ... .. . ... ... ... : ... .. . ... : ... .. F ... : ... .. . ... ... : ... .. 8 ... ... : ... .. . ... ... : ... .. . ... ...
ROW 83 : ... .. . ... ... ... : ... .. A ... ... ... : ... .. . ... : ... .. C ... : ... .. . ... ... : ... .. 7 ... ... : ... .. 5 ... ... : ... .. . ... ...
ROW 84 : ... .. . ... ... ... : E-4 00 D ... ... ... : ... .. . ... : ... .. 6 ... : ... .. . ... ... : ... .. 6 ... ... : ... .. . ... ... : ... .. . ... ...
ROW 85 : ... .. . ... ... ... : ... .. B ... ... ... : ... .. . ... : ... .. 3 ... : ... .. . ... ... : ... .. 5 ... ... : ... .. . ... ... : ... .. . ... ...
ROW 86 : ... .. . ... ... ... : ... .. . ... ... ... : ... .. . ... : ... .. 2 ... : ... .. . ... ... : ... .. . ... ... : ... .. . ... ... : ... .. . ... ...
ROW 87 : ... .. . ... ... ... : ... .. A ... ... ... : ... .. . ... : ... .. 0 ... : ... .. . ... ... : ... .. 4 ... ... : ... .. . ... ... : ... .. . ... ...
ROW 88 : ... .. . ... V03 ... : B-3 00 D ... ... ... : ... .. . ... : B-# 00 D ... : ... .. . ... ... : ... .. . ... ... : ... .. . ... ... : ... .. . ... ...
ROW 89 : ... .. . ... ... ... : ... .. B ... ... ... : ... .. . ... : ... .. B ... : ... .. . ... ... : ... .. . ... ... : ... .. . ... ... : ... .. . ... ...
ROW 8A : ... .. . ... ... ... : ... .. . ... ... ... : ... .. . ... : ... .. . ... : ... .. . ... ... : ... .. 2 ... ... : ... .. . ... ... : ... .. . ... ...
ROW 8B : ... .. . ... ... ... : ... .. A ... ... ... : ... .. . ... : ... .. A ... : ... .. . ... ... : ... .. . ... ... : ... .. . ... ... : ... .. . ... ...
ROW 8C : ... .. . ... ... ... : F#3 00 D ... ... ... : ... .. . ... : ... .. 8 ... : ... .. . ... ... : ... .. . ... ... : ... .. . ... ... : ... .. . ... ...
ROW 8D : ... .. . ... ... ... : ... .. B ... ... ... : ... .. . ... : ... .. 7 ... : ... .. . ... ... : ... .. . ... ... : ... .. . ... ... : ... .. . ... ...
ROW 8E : ... .. . ... V02 ... : ... .. . ... ... ... : D-2 00 . P7B : ... .. 6 ... : ... .. . ... ... : ... .. 8 ... ... : ... .. . ... ... : ... .. . ... ...
ROW 8F : ... .. . ... ... ... : ... .. A ... ... ... : C#2 00 . P78 : ... .. . ... : ... .. . ... ... : ... .. 7 ... ... : ... .. . ... ... : ... .. . ... ...
ROW 90 : ... .. . ... ... ... : E-3 00 D ... ... ... : C-2 00 . ... : ... .. 5 ... : ... .. . ... ... : ... .. 6 ... ... : ... .. . ... ... : ... .. . ... ...
ROW 91 : ... .. . ... ... ... : ... .. B ... ... ... : B-1 00 . P7B : ... .. . ... : ... .. . ... ... : ... .. 4 ... ... : ... .. . ... ... : ... .. . ... ...
ROW 92 : ... .. . ... ... ... : ... .. . ... ... ... : A#1 00 . P81 : ... .. 4 ... : ... .. . ... ... : ... .. . ... ... : ... .. . ... ... : ... .. . ... ...
ROW 93 : ... .. . ... ... ... : ... .. A ... ... ... : A-1 00 . P8A : ... .. . ... : ... .. . ... ... : ... .. 2 ... ... : ... .. . ... ... : ... .. . ... ...
ROW 94 : ... .. . ... V00 ... : B-2 00 D ... ... ... : C#2 00 . P80 : 1-# 00 F ... : ... .. . ... ... : ... .. 8 ... ... : ... .. . ... ... : ... .. . ... ...
ROW 95 : ... .. . ... ... ... : ... .. B ... ... ... : ... .. . ... : ... .. C ... : ... .. . ... ... : ... .. 7 ... ... : ... .. . ... ... : ... .. . ... ...
ROW 96 : ... .. . ... ... ... : ... .. . ... ... ... : ... .. . ... : ... .. 6 ... : ... .. . ... ... : ... .. 6 ... ... : ... .. . ... ... : ... .. . ... ...
ROW 97 : ... .. . ... ... ... : ... .. A ... ... ... : ... .. . ... : ... .. 3 ... : ... .. . ... ... : ... .. 5 ... ... : ... .. . ... ... : ... .. . ... ...
ROW 98 : ... .. . ... ... ... : F#2 00 D ... ... ... : ... .. . ... : ... .. 2 ... : ... .. . ... ... : ... .. . ... ... : ... .. . ... ... : ... .. . ... ...
ROW 99 : ... .. . ... ... ... : ... .. B ... ... ... : --- .. . ... : ... .. 0 ... : ... .. . ... ... : ... .. 4 ... ... : ... .. . ... ... : ... .. . ... ...
ROW 9A : ... .. . ... V02 ... : ... .. . ... ... ... : A#1 00 . ... : ... .. F ... : ... .. . ... ... : ... .. . ... ... : ... .. . ... ... : ... .. . ... ...
ROW 9B : ... .. . ... ... ... : ... .. A ... ... ... : ... .. . ... : ... .. C ... : ... .. . ... ... : ... .. . ... ... : ... .. . ... ... : ... .. . ... ...
ROW 9C : ... .. . ... ... ... : E-2 00 D ... ... ... : ... .. . ... : ... .. 6 ... : ... .. . ... ... : ... .. 2 ... ... : ... .. . ... ... : ... .. . ... ...
ROW 9D : ... .. . ... ... ... : ... .. B ... ... ... : ... .. . ... : ... .. 3 ... : ... .. . ... ... : ... .. . ... ... : ... .. . ... ... : ... .. . ... ...
ROW 9E : ... .. . ... ... ... : ... .. . ... ... ... : ... .. . ... : ... .. 2 ... : ... .. . ... ... : ... .. . ... ... : ... .. . ... ... : ... .. . ... ...
ROW 9F : ... .. . ... ... ... : ... .. A ... ... ... : --- .. . ... : ... .. 0 ... : ... .. . ... ... : ... .. . ... ... : ... .. . ... ... : ... .. . ... ...
ROW A0 : ... .. . P7C V01 ... : B-1 00 D ... ... ... : G#2 00 . ... : B-# 00 D ... : ... .. . ... ... : ... .. 8 ... ... : G#3 01 5 P80 ... : A#3 01 8 P7F ...
ROW A1 : ... .. . P78 ... ... : ... .. B ... ... ... : ... .. . ... : ... .. B ... : ... .. . ... ... : ... .. 7 ... ... : G-3 01 5 ... ... : A-3 01 8 P80 ...
ROW A2 : ... .. . P74 ... ... : ... .. . ... ... ... : ... .. . ... : ... .. . ... : ... .. . ... ... : ... .. 6 ... ... : F#3 01 5 P81 ... : G#3 01 8 P81 ...
ROW A3 : A#2 00 A P8B ... ... : ... .. A ... ... ... : ... .. . ... : ... .. A ... : ... .. . ... ... : ... .. 4 ... ... : F-3 01 5 P83 ... : G-3 01 8 P83 ...
ROW A4 : ... .. . P87 ... ... : E-2 00 D ... ... ... : ... .. . ... : ... .. 8 ... : ... .. . ... ... : ... .. . ... ... : E-3 01 5 P86 ... : F#3 01 8 P87 ...
ROW A5 : ... .. . P83 ... ... : ... .. B ... ... ... : --- .. . ... : ... .. 7 ... : ... .. . ... ... : ... .. 2 ... ... : ... .. . P76 ... : ... .. . P77 ...
ROW A6 : ... .. . P7F V02 ... : ... .. . ... ... ... : A#2 00 . ... : ... .. 6 ... : ... .. . ... ... : ... .. 8 ... ... : D#3 01 5 P7B ... : F-3 01 8 P7B ...
ROW A7 : ... .. . P7B ... ... : ... .. A ... ... ... : ... .. . ... : ... .. . ... : ... .. . ... ... : ... .. 7 ... ... : D-3 01 5 P80 ... : E-3 01 8 P81 ...
ROW A8 : ... .. . P77 ... ... : F#2 00 D ... ... ... : ... .. . ... : ... .. 5 ... : ... .. . ... ... : ... .. 6 ... ... : C#3 01 5 P87 ... : D#3 01 8 P88 ...
ROW A9 : ... .. . P73 ... ... : ... .. B ... ... ... : ... .. . ... : ... .. . ... : ... .. . ... ... : ... .. 4 ... ... : ... .. . P77 ... : ... .. . P78 ...
ROW AA : A-2 00 A P8B ... ... : ... .. . ... ... ... : ... .. . ... : ... .. 4 ... : ... .. . ... ... : ... .. . ... ... : C-3 01 5 P7F ... : D-3 01 8 P80 ...
ROW AB : ... .. . P87 ... ... : ... .. A ... ... ... : --- .. . ... : ... .. . ... : ... .. . ... ... : ... .. 2 ... ... : B-2 01 5 P88 ... : C#3 01 8 P8A ...
ROW AC : ... .. . P83 V00 ... : B-2 00 D ... ... ... : C#3 00 . ... : 1-# 00 F ... : ... .. . ... ... : ... .. 8 ... ... : ... .. . P78 ... : ... .. . P7A ...
ROW AD : ... .. . P7F ... ... : ... .. B ... ... ... : ... .. . ... : ... .. C ... : ... .. . ... ... : ... .. 7 ... ... : A#2 01 5 P83 ... : C-3 01 8 P86 ...
ROW AE : ... .. . P7B ... ... : ... .. . ... ... ... : ... .. . ... : ... .. 6 ... : ... .. . ... ... : ... .. 6 ... ... : ... .. . P73 ... : ... .. . P76 ...
ROW AF : ... .. . P77 ... ... : ... .. A ... ... ... : ... .. . ... : ... .. 3 ... : ... .. . ... ... : ... .. 4 ... ... : A-2 01 5 P7F ... : B-2 01 8 P83 ...
ROW B0 : ... .. . P73 ... ... : E-3 00 D ... ... ... : ... .. . ... : ... .. 2 ... : ... .. . ... ... : ... .. . ... ... : G#2 01 5 P8E ... : ... .. . P73 ...
ROW B1 : G#2 00 A P8E ... ... : ... .. B ... ... ... : --- .. . ... : ... .. 0 ... : ... .. . ... ... : ... .. 2 ... ... : ... .. . P7E ... : A#2 01 8 P81 ...
ROW B2 : ... .. . P8A V01 ... : ... .. . ... ... ... : D#3 00 . ... : ... .. F ... : ... .. . ... ... : ... .. 8 ... ... : G-2 01 5 P8E ... : ... .. . P71 ...
ROW B3 : ... .. . P86 ... ... : ... .. A ... ... ... : ... .. . ... : ... .. C ... : ... .. . ... ... : ... .. 7 ... ... : ... .. . P7E ... : A-2 01 4 P82 ...
ROW B4 : ... .. . P82 ... ... : B-3 00 D ... ... ... : ... .. . ... : ... .. 6 ... : ... .. . ... ... : ... .. 6 ... ... : F#2 01 3 P90 ... : ... .. . P72 ...
ROW B5 : ... .. . P7E ... ... : ... .. B ... ... ... : ... .. . ... : ... .. 3 ... : ... .. . ... ... : ... .. 4 ... ... : ... .. . P80 ... : G#2 01 1 P85 ...
ROW B6 : ... .. . P7A ... ... : ... .. . ... ... ... : ... .. . ... : ... .. 2 ... : ... .. . ... ... : ... .. . ... ... : ... .. . P70 ... : ... .. . P75 ...
ROW B7 : ... .. . P76 ... ... : ... .. A ... ... ... : --- .. . ... : ... .. 0 ... : ... .. . ... ... : ... .. 2 ... ... : F-2 01 3 P84 ... : G-2 01 1 P89 ...
ROW B8 : C#3 00 F P80 ... ... : C#5 00 D ... ... ... : D-5 00 . ... : B-# 00 D ... : ... .. . ... ... : F#3 01 8 ... ... : B-3 01 A P81 ... : C#4 01 F P80 ...
ROW B9 : ... .. E ... ... ... : ... .. B ... ... ... : E-4 00 . ... : ... .. B ... : ... .. . ... ... : ... .. 7 ... ... : ... .. 9 ... ... : ... .. D ... ...
ROW BA : ... .. D ... ... ... : ... .. . ... ... ... : A-3 00 . ... : ... .. . ... : ... .. . ... ... : ... .. 6 ... ... : ... .. 8 ... ... : ... .. 8 ... ...
ROW BB : ... .. A ... ... ... : ... .. A ... ... ... : G#3 00 . ... : ... .. A ... : ... .. . ... ... : ... .. 4 ... ... : ... .. 7 ... ... : ... .. . ... ...
ROW BC : ... .. . ... ... ... : G#4 00 D ... ... ... : D#3 00 . ... : ... .. 8 ... : ... .. . ... ... : ... .. . ... ... : ... .. . ... ... : ... .. . ... ...
ROW BD : ... .. . ... ... ... : ... .. B ... ... ... : ... .. . ... : ... .. 7 ... : ... .. . ... ... : ... .. 2 ... ... : ... .. 6 ... ... : ... .. . ... ...
ROW BE : ... .. . ... V02 ... : ... .. . ... ... ... : C#3 00 . ... : ... .. 6 ... : ... .. . ... ... : ... .. 8 ... ... : ... .. . ... ... : ... .. . ... ...
ROW BF : ... .. . ... ... ... : ... .. A ... ... ... : ... .. . ... : ... .. . ... : ... .. . ... ... : ... .. 7 ... ... : ... .. 5 ... ... : ... .. . ... ...
ROW C0 : ... .. . ... ... ... : F#4 00 D ... ... ... : ... .. . ... : ... .. 5 ... : ... .. . ... ... : ... .. 6 ... ... : ... .. . ... ... : ... .. . ... ...
ROW C1 : ... .. . ... ... ... : ... .. B ... ... ... : ... .. . ... : ... .. . ... : ... .. . ... ... : ... .. 5 ... ... : ... .. . ... ... : ... .. . ... ...
ROW C2 : ... .. . ... ... ... : ... .. . ... ... ... : ... .. . ... : ... .. 4 ... : ... .. . ... ... : ... .. . ... ... : ... .. . ... ... : ... .. . ... ...
ROW C3 : ... .. . ... ... ... : ... .. A ... ... ... : ... .. . ... : ... .. . ... : ... .. . ... ... : ... .. 4 ... ... : ... .. . ... ... : ... .. . ... ...
ROW C4 : ... .. . ... V00 ... : C#4 00 D ... ... ... : D#3 00 . ... : 1-# 00 F ... : ... .. . ... ... : ... .. . ... ... : ... .. . ... ... : ... .. . ... ...
ROW C5 : ... .. . ... ... ... : ... .. B ... ... ... : ... .. . ... : ... .. C ... : ... .. . ... ... : ... .. . ... ... : ... .. . ... ... : ... .. . ... ...
ROW C6 : ... .. . ... ... ... : ... .. . ... ... ... : ... .. . ... : ... .. 6 ... : ... .. . ... ... : ... .. 2 ... ... : ... .. . ... ... : ... .. . ... ...
ROW C7 : ... .. . ... ... ... : ... .. A ... ... ... : ... .. . ... : ... .. 3 ... : ... .. . ... ... : ... .. . ... ... : ... .. . ... ... : ... .. . ... ...
ROW C8 : ... .. . ... ... ... : G#3 00 D ... ... ... : ... .. . ... : ... .. 2 ... : ... .. . ... ... : ... .. . ... ... : ... .. . ... ... : ... .. . ... ...
ROW C9 : ... .. . ... ... ... : ... .. B ... ... ... : ... .. . ... : ... .. 0 ... : ... .. . ... ... : ... .. . ... ... : ... .. . ... ... : ... .. . ... ...
ROW CA : ... .. . ... V01 ... : ... .. . ... ... ... : G#3 00 . ... : ... .. F ... : ... .. . ... ... : ... .. 8 ... ... : ... .. . ... ... : ... .. . ... ...
ROW CB : ... .. . ... ... ... : ... .. A ... ... ... : ... .. . ... : ... .. C ... : ... .. . ... ... : ... .. 7 ... ... : ... .. . ... ... : ... .. . ... ...
ROW CC : ... .. . ... ... ... : F#3 00 D ... ... ... : ... .. . ... : ... .. 6 ... : ... .. . ... ... : ... .. 6 ... ... : ... .. . ... ... : ... .. . ... ...
ROW CD : ... .. . ... ... ... : ... .. B ... ... ... : ... .. . ... : ... .. 3 ... : ... .. . ... ... : ... .. 4 ... ... : ... .. . ... ... : ... .. . ... ...
ROW CE : ... .. . ... ... ... : ... .. . ... ... ... : ... .. . ... : ... .. 2 ... : ... .. . ... ... : ... .. . ... ... : ... .. . ... ... : ... .. . ... ...
ROW CF : ... .. . ... ... ... : ... .. A ... ... ... : ... .. . ... : ... .. 0 ... : ... .. . ... ... : ... .. 2 ... ... : ... .. . ... ... : ... .. . ... ...
ROW D0 : ... .. . ... V02 ... : C#3 00 D ... ... ... : F#3 00 . ... : ... .. F ... : ... .. . ... ... : ... .. 8 ... ... : ... .. . ... ... : ... .. . ... ...
ROW D1 : ... .. . ... ... ... : ... .. B ... ... ... : ... .. . ... : ... .. C ... : ... .. . ... ... : ... .. 7 ... ... : ... .. . ... ... : ... .. . ... ...
ROW D2 : ... .. . ... ... ... : ... .. . ... ... ... : ... .. . ... : ... .. 6 ... : ... .. . ... ... : ... .. 6 ... ... : ... .. . ... ... : ... .. . ... ...
ROW D3 : ... .. . ... ... ... : ... .. A ... ... ... : ... .. . ... : ... .. 3 ... : ... .. . ... ... : ... .. 5 ... ... : ... .. . ... ... : ... .. . ... ...
ROW D4 : ... .. . ... ... ... : G#2 00 D ... ... ... : ... .. . ... : ... .. 2 ... : ... .. . ... ... : ... .. . ... ... : ... .. . ... ... : ... .. . ... ...
ROW D5 : ... .. . ... ... ... : ... .. B ... ... ... : ... .. . ... : ... .. 0 ... : ... .. . ... ... : ... .. 4 ... ... : ... .. . ... ... : ... .. . ... ...
ROW D6 : ... .. . ... V03 ... : ... .. . ... ... ... : C#3 00 . ... : ... .. F ... : ... .. . ... ... : ... .. . ... ... : ... .. . ... ... : ... .. . ... ...
ROW D7 : ... .. . ... ... ... : ... .. A ... ... ... : ... .. . ... : ... .. C ... : ... .. . ... ... : ... .. . ... ... : ... .. . ... ... : ... .. 4 ... ...
ROW D8 : ... .. . ... ... ... : F#2 00 D ... ... ... : ... .. . ... : ... .. 6 ... : ... .. . ... ... : ... .. 2 ... ... : ... .. 3 ... ... : ... .. . ... ...
ROW D9 : ... .. . ... ... ... : ... .. B ... ... ... : ... .. . ... : ... .. 3 ... : ... .. . ... ... : ... .. . ... ... : ... .. . ... ... : ... .. 1 ... ...
ROW DA : ... .. . ... ... ... : ... .. . ... ... ... : ... .. . ... : ... .. 2 ... : ... .. . ... ... : ... .. . ... ... : ... .. . ... ... : ... .. . ... ...
ROW DB : ... .. . ... ... ... : ... .. A ... ... ... : ... .. . ... : ... .. 0 ... : ... .. . ... ... : ... .. . ... ... : ... .. . ... ... : ... .. . ... ...
ROW DC : ... .. . ... V02 ... : D#5 00 D ... ... ... : C#4 00 . ... : B-# 00 D ... : ... .. . ... ... : G#3 01 8 ... ... : C#4 01 A ... ... : D#4 01 F ... ...
ROW DD : ... .. . ... ... ... : ... .. B ... ... ... : ... .. . ... : ... .. B ... : ... .. . ... ... : ... .. 7 ... ... : ... .. 9 ... ... : ... .. D ... ...
ROW DE : ... .. . ... ... ... : ... .. . ... ... ... : ... .. . ... : ... .. . ... : ... .. . ... ... : ... .. 6 ... ... : ... .. 8 ... ... : ... .. 8 ... ...
ROW DF : ... .. . ... ... ... : ... .. A ... ... ... : ... .. . ... : ... .. A ... : ... .. . ... ... : ... .. 4 ... ... : ... .. 5 ... ... : ... .. . ... ...
ROW E0 : ... .. . ... ... ... : A#4 00 D ... ... ... : ... .. . ... : ... .. 8 ... : ... .. . ... ... : ... .. . ... ... : ... .. . ... ... : ... .. 4 ... ...
ROW E1 : ... .. . ... ... ... : ... .. B ... ... ... : ... .. . ... : ... .. 7 ... : ... .. . ... ... : ... .. 2 ... ... : ... .. 3 ... ... : ... .. . ... ...
ROW E2 : D#4 00 F ... V00 ... : ... .. . ... ... ... : ... .. . ... : ... .. 6 ... : ... .. . ... ... : ... .. 8 ... ... : ... .. 8 ... ... : ... .. C ... ...
ROW E3 : ... .. E ... ... ... : ... .. A ... ... ... : ... .. . ... : ... .. . ... : ... .. . ... ... : ... .. 7 ... ... : ... .. 7 ... ... : ... .. A ... ...
ROW E4 : ... .. D ... ... ... : G#4 00 D ... ... ... : ... .. . ... : ... .. 5 ... : ... .. . ... ... : ... .. 6 ... ... : ... .. 6 ... ... : ... .. 6 ... ...
ROW E5 : ... .. A ... ... ... : ... .. B ... ... ... : ... .. . ... : ... .. . ... : ... .. . ... ... : ... .. 5 ... ... : ... .. 5 ... ... : ... .. . ... ...
ROW E6 : ... .. . ... ... ... : ... .. . ... ... ... : ... .. . ... : ... .. 4 ... : ... .. . ... ... : ... .. . ... ... : ... .. . ... ... : ... .. . ... ...
ROW E7 : ... .. . ... ... ... : ... .. A ... ... ... : ... .. . ... : ... .. . ... : ... .. . ... ... : ... .. 4 ... ... : ... .. 4 ... ... : ... .. . ... ...
ROW E8 : D#3 00 F ... V03 ... : D#4 00 D ... ... ... : C-4 00 . P7C : 1-# 00 F ... : ... .. . ... ... : ... .. . ... ... : ... .. . ... ... : ... .. . ... ...
ROW E9 : ... .. E ... ... ... : ... .. B ... ... ... : A#3 00 . P86 : ... .. C ... : ... .. . ... ... : ... .. . ... ... : ... .. . ... ... : ... .. 3 ... ...
ROW EA : ... .. D ... ... ... : ... .. . ... ... ... : A-3 00 . P84 : ... .. 6 ... : ... .. . ... ... : ... .. 2 ... ... : ... .. 2 ... ... : ... .. . ... ...
ROW EB : ... .. A ... ... ... : ... .. A ... ... ... : G#3 00 . P83 : ... .. 3 ... : ... .. . ... ... : ... .. . ... ... : ... .. . ... ... : ... .. 1 ... ...
ROW EC : ... .. 2 ... ... ... : A#3 00 D ... ... ... : G-3 00 . ... : ... .. 2 ... : ... .. . ... ... : ... .. . ... ... : ... .. . ... ... : ... .. . ... ...
ROW ED : ... .. . ... ... ... : ... .. B ... ... ... : F#3 00 . P84 : ... .. 0 ... : ... .. . ... ... : ... .. . ... ... : ... .. . ... ... : ... .. . ... ...
ROW EE : C#4 00 F ... V02 ... : ... .. . ... ... ... : F-3 00 . P86 : ... .. F ... : ... .. . ... ... : ... .. 8 ... ... : ... .. 8 ... ... : ... .. C ... ...
ROW EF : ... .. E ... ... ... : ... .. A ... ... ... : E-3 00 . P89 : ... .. C ... : ... .. . ... ... : ... .. 7 ... ... : ... .. 7 ... ... : ... .. A ... ...
ROW F0 : ... .. D ... ... ... : G#3 00 D ... ... ... : ... .. . P79 : ... .. 6 ... : ... .. . ... ... : ... .. 6 ... ... : ... .. 6 ... ... : ... .. 6 ... ...
ROW F1 : ... .. A ... ... ... : ... .. B ... ... ... : D#3 00 . P7E : ... .. 3 ... : ... .. . ... ... : ... .. 4 ... ... : ... .. 4 ... ... : ... .. . ... ...
ROW F2 : ... .. . ... ... ... : ... .. . ... ... ... : D-3 00 . P83 : ... .. 2 ... : ... .. . ... ... : ... .. . ... ... : ... .. . ... ... : ... .. 3 ... ...
ROW F3 : ... .. . ... ... ... : ... .. A ... ... ... : C#3 00 . P8A : ... .. 0 ... : ... .. . ... ... : ... .. 2 ... ... : ... .. 2 ... ... : ... .. . ... ...
ROW F4 : D#4 00 F ... V00 ... : D#3 00 D ... ... ... : ... .. . P7A : ... .. F ... : ... .. . ... ... : ... .. 8 ... ... : ... .. 8 ... ... : ... .. C ... ...
ROW F5 : ... .. E ... ... ... : ... .. B ... ... ... : C-3 00 . P82 : ... .. C ... : ... .. . ... ... : ... .. 7 ... ... : ... .. 7 ... ... : ... .. A ... ...
ROW F6 : ... .. D ... ... ... : ... .. . ... ... ... : B-2 00 . P8B : ... .. 6 ... : ... .. . ... ... : ... .. 6 ... ... : ... .. 6 ... ... : ... .. 6 ... ...
ROW F7 : ... .. A ... ... ... : ... .. A ... ... ... : ... .. . P7B : ... .. 3 ... : ... .. . ... ... : ... .. 5 ... ... : ... .. 5 ... ... : ... .. . ... ...
ROW F8 : ... .. . ... ... ... : A#2 00 D ... ... ... : A#2 00 . P86 : ... .. 2 ... : ... .. . ... ... : ... .. . ... ... : ... .. . ... ... : ... .. . ... ...
ROW F9 : ... .. . ... ... ... : ... .. B ... ... ... : ... .. . P76 : ... .. 0 ... : ... .. . ... ... : ... .. 4 ... ... : ... .. 4 ... ... : ... .. . ... ...
ROW FA : G#4 00 F ... V02 ... : ... .. . ... ... ... : A-2 00 . P82 : ... .. F ... : ... .. . ... ... : ... .. . ... ... : ... .. . ... ... : ... .. . ... ...
ROW FB : ... .. E ... ... ... : ... .. A ... ... ... : ... .. . P72 : ... .. C ... : ... .. . ... ... : ... .. . ... ... : ... .. . ... ... : ... .. 3 ... ...
ROW FC : ... .. D ... ... ... : G#2 00 D ... ... ... : G#2 00 . P81 : ... .. 6 ... : ... .. . ... ... : ... .. 2 ... ... : ... .. 2 ... ... : ... .. . ... ...
ROW FD : ... .. A ... ... ... : ... .. B ... ... ... : ... .. . P71 : ... .. 3 ... : ... .. . ... ... : ... .. . ... ... : ... .. . ... ... : ... .. 1 ... ...
ROW FE : ... .. . ... ... ... : ... .. . ... ... ... : G-2 00 . P81 : ... .. 2 ... : ... .. . ... ... : ... .. . ... ... : ... .. . ... ... : ... .. . ... ...
ROW FF : ... .. . ... ... ... : ... .. A ... ... ... : ... .. . P71 : ... .. 0 ... : ... .. . ... ... : ... .. . ... ... : ... .. . ... ... : ... .. . ... ...

PATTERN 0C
ROW 00 : F#4 00 F ... V01 ... : D#2 00 D ... ... ... : G#4 00 . P80 : 9-# 00 D ... : ... .. . ... ... : ... .. 8 ... ... : ... .. 8 ... ... : ... .. C ... ...
ROW 01 : ... .. E ... ... ... : ... .. B ... ... ... : ... .. . ... : ... .. B ... : ... .. . ... ... : ... .. 7 ... ... : ... .. 7 ... ... : ... .. A ... ...
ROW 02 : ... .. D ... ... ... : ... .. . ... ... ... : ... .. . ... : ... .. . ... : ... .. . ... ... : ... .. 6 ... ... : ... .. 6 ... ... : ... .. 6 ... ...
ROW 03 : ... .. A ... ... ... : ... .. A ... ... ... : ... .. . ... : ... .. A ... : ... .. . ... ... : ... .. 4 ... ... : ... .. 4 ... ... : ... .. . ... ...
ROW 04 : ... .. . ... ... ... : G#2 00 D ... ... ... : ... .. . ... : ... .. 8 ... : ... .. . ... ... : ... .. . ... ... : ... .. . ... ... : ... .. 3 ... ...
ROW 05 : ... .. . ... ... ... : ... .. B ... ... ... : --- .. . ... : ... .. 7 ... : ... .. . ... ... : ... .. 2 ... ... : ... .. 2 ... ... : ... .. . ... ...
ROW 06 : G#4 00 F ... V02 ... : ... .. . ... ... ... : D#4 00 . ... : 7-# 00 D ... : ... .. . ... ... : ... .. 8 ... ... : ... .. 8 ... ... : ... .. C ... ...
ROW 07 : ... .. E ... ... ... : ... .. A ... ... ... : ... .. . ... : ... .. B ... : ... .. . ... ... : ... .. 7 ... ... : ... .. 7 ... ... : ... .. A ... ...
ROW 08 : ... .. D ... ... ... : A#2 00 D ... ... ... : ... .. . ... : ... .. . ... : ... .. . ... ... : ... .. 6 ... ... : ... .. 6 ... ... : ... .. 6 ... ...
ROW 09 : ... .. A ... ... ... : ... .. B ... ... ... : ... .. . ... : ... .. A ... : ... .. . ... ... : ... .. 4 ... ... : ... .. 4 ... ... : ... .. . ... ...
ROW 0A : ... .. . ... ... ... : ... .. . ... ... ... : ... .. . ... : ... .. 8 ... : ... .. . ... ... : ... .. . ... ... : ... .. . ... ... : ... .. 3 ... ...
ROW 0B : ... .. . ... ... ... : ... .. A ... ... ... : --- .. . ... : ... .. 7 ... : ... .. . ... ... : ... .. 2 ... ... : ... .. 2 ... ... : ... .. . ... ...
ROW 0C : C#5 00 F ... V00 ... : D#3 00 D ... ... ... : A#3 00 . ... : 5-# 00 D ... : ... .. . ... ... : ... .. 8 ... ... : ... .. 8 ... ... : ... .. C ... ...
ROW 0D : ... .. E ... ... ... : ... .. B ... ... ... : ... .. . ... : ... .. B ... : ... .. . ... ... : ... .. 7 ... ... : ... .. 7 ... ... : ... .. A ... ...
ROW 0E : ... .. D ... ... ... : ... .. . ... ... ... : ... .. . ... : ... .. . ... : ... .. . ... ... : ... .. 6 ... ... : ... .. 6 ... ... : ... .. 6 ... ...
ROW 0F : ... .. A ... ... ... : ... .. A ... ... ... : ... .. . ... : ... .. A ... : ... .. . ... ... : ... .. 4 ... ... : ... .. 4 ... ... : ... .. . ... ...
ROW 10 : ... .. . ... ... ... : G#3 00 D ... ... ... : ... .. . ... : ... .. 8 ... : ... .. . ... ... : ... .. . ... ... : ... .. . ... ... : ... .. 3 ... ...
ROW 11 : ... .. . ... ... ... : ... .. B ... ... ... : --- .. . ... : ... .. 7 ... : ... .. . ... ... : ... .. 2 ... ... : ... .. 2 ... ... : ... .. . ... ...
ROW 12 : D#5 00 F ... V01 ... : ... .. . ... ... ... : A#4 00 . ... : 4-# 00 D ... : ... .. . ... ... : ... .. 8 ... ... : ... .. 8 ... ... : ... .. C ... ...
ROW 13 : ... .. E ... ... ... : ... .. A ... ... ... : ... .. . ... : ... .. B ... : ... .. . ... ... : ... .. 7 ... ... : ... .. 7 ... ... : ... .. A ... ...
ROW 14 : ... .. D ... ... ... : D#4 00 D ... ... ... : ... .. . ... : ... .. . ... : ... .. . ... ... : ... .. 6 ... ... : ... .. 6 ... ... : ... .. 6 ... ...
ROW 15 : ... .. A ... ... ... : ... .. B ... ... ... : ... .. . ... : ... .. A ... : ... .. . ... ... : ... .. 4 ... ... : ... .. 4 ... ... : ... .. . ... ...
ROW 16 : ... .. . ... ... ... : ... .. . ... ... ... : ... .. . ... : ... .. 8 ... : ... .. . ... ... : ... .. . ... ... : ... .. . ... ... : ... .. 3 ... ...
ROW 17 : ... .. . ... ... ... : ... .. A ... ... ... : --- .. . ... : ... .. 7 ... : ... .. . ... ... : ... .. 2 ... ... : ... .. 2 ... ... : ... .. . ... ...
ROW 18 : D-5 00 F ... V02 ... : A-4 00 A ... ... ... : G#5 00 . ... : B-# 00 D ... : ... .. . ... ... : A-2 01 8 ... ... : D-3 01 8 ... ... : E-3 01 C ... ...
ROW 19 : ... .. E ... ... ... : ... .. 8 ... ... ... : A#4 00 . ... : ... .. B ... : ... .. . ... ... : ... .. 7 ... ... : ... .. 7 ... ... : ... .. A ... ...
ROW 1A : ... .. D ... ... ... : ... .. . ... ... ... : D#4 00 . ... : ... .. . ... : ... .. . ... ... : ... .. 6 ... ... : ... .. 6 ... ... : ... .. 6 ... ...
ROW 1B : ... .. A ... ... ... : ... .. . ... ... ... : D-4 00 . ... : ... .. A ... : ... .. . ... ... : ... .. 4 ... ... : ... .. 4 ... ... : ... .. . ... ...
ROW 1C : ... .. . ... ... ... : E-4 00 A ... ... ... : A-3 00 . ... : ... .. 8 ... : ... .. . ... ... : ... .. . ... ... : ... .. . ... ... : ... .. 3 ... ...
ROW 1D : ... .. . ... ... ... : ... .. 8 ... ... ... : ... .. . ... : ... .. 7 ... : ... .. . ... ... : ... .. 2 ... ... : ... .. 2 ... ... : ... .. . ... ...
ROW 1E : ... .. . ... ... ... : ... .. . ... ... ... : ... .. . ... : ... .. 6 ... : ... .. . ... ... : ... .. 8 ... ... : ... .. 8 ... ... : ... .. C ... ...
ROW 1F : D#5 00 A P7E ... ... : ... .. . ... ... ... : ... .. . ... : ... .. . ... : ... .. . ... ... : ... .. 7 ... ... : ... .. 7 ... ... : ... .. A ... ...
ROW 20 : ... .. . P81 ... ... : D-4 00 A ... ... ... : ... .. . ... : ... .. 5 ... : ... .. . ... ... : ... .. 6 ... ... : ... .. 6 ... ... : ... .. 6 ... ...
ROW 21 : E-5 00 A P7F ... ... : ... .. 8 ... ... ... : ... .. . ... : ... .. . ... : ... .. . ... ... : ... .. 5 ... ... : ... .. 5 ... ... : ... .. . ... ...
ROW 22 : ... .. . P80 ... ... : ... .. . ... ... ... : ... .. . ... : ... .. 4 ... : ... .. . ... ... : ... .. . ... ... : ... .. . ... ... : ... .. . ... ...
ROW 23 : ... .. . ... ... ... : ... .. . ... ... ... : ... .. . ... : ... .. . ... : ... .. . ... ... : ... .. 4 ... ... : ... .. 4 ... ... : ... .. . ... ...
ROW 24 : ... .. . ... ... ... : A-3 00 A ... ... ... : G#3 00 . ... : 1-# 00 F ... : ... .. . ... ... : ... .. . ... ... : ... .. . ... ... : ... .. . ... ...
ROW 25 : ... .. . ... ... ... : ... .. 8 ... ... ... : A#2 00 . ... : ... .. C ... : ... .. . ... ... : ... .. . ... ... : ... .. . ... ... : ... .. 3 ... ...
ROW 26 : ... .. . ... ... ... : ... .. . ... ... ... : D#2 00 . ... : ... .. 6 ... : ... .. . ... ... : ... .. 2 ... ... : ... .. 2 ... ... : ... .. . ... ...
ROW 27 : ... .. . ... ... ... : ... .. . ... ... ... : D-2 00 . ... : ... .. 3 ... : ... .. . ... ... : ... .. . ... ... : ... .. . ... ... : ... .. 1 ... ...
ROW 28 : ... .. . ... ... ... : E-3 00 A ... ... ... : A-1 00 . ... : ... .. 2 ... : ... .. . ... ... : ... .. . ... ... : ... .. . ... ... : ... .. . ... ...
ROW 29 : ... .. . ... ... ... : ... .. 8 ... ... ... : ... .. . ... : ... .. 0 ... : ... .. . ... ... : ... .. . ... ... : ... .. . ... ... : ... .. . ... ...
ROW 2A : ... .. . ... ... ... : ... .. . ... ... ... : G#3 00 . ... : ... .. F ... : ... .. . ... ... : ... .. 8 ... ... : ... .. 8 ... ... : ... .. C ... ...
ROW 2B : ... .. . ... ... ... : ... .. . ... ... ... : A#2 00 . ... : ... .. C ... : ... .. . ... ... : ... .. 7 ... ... : ... .. 7 ... ... : ... .. A ... ...
ROW 2C : ... .. . ... ... ... : D-3 00 A ... ... ... : D#2 00 . ... : ... .. 6 ... : ... .. . ... ... : ... .. 6 ... ... : ... .. 6 ... ... : ... .. 6 ... ...
ROW 2D : ... .. . ... ... ... : ... .. 8 ... ... ... : D-2 00 . ... : ... .. 3 ... : ... .. . ... ... : ... .. 4 ... ... : ... .. 4 ... ... : ... .. . ... ...
ROW 2E : ... .. . ... ... ... : ... .. . ... ... ... : A-1 00 . ... : ... .. 2 ... : ... .. . ... ... : ... .. . ... ... : ... .. . ... ... : ... .. 3 ... ...
ROW 2F : ... .. . ... ... ... : ... .. . ... ... ... : ... .. . ... : ... .. 0 ... : ... .. . ... ... : ... .. 2 ... ... : ... .. 2 ... ... : ... .. . ... ...
ROW 30 : ... .. . ... ... ... : A-2 00 A ... ... ... : G#4 00 . ... : B-# 00 D ... : ... .. . ... ... : ... .. 8 ... ... : ... .. 8 ... ... : ... .. C ... ...
ROW 31 : ... .. . ... ... ... : ... .. 8 ... ... ... : A#3 00 . ... : ... .. B ... : ... .. . ... ... : ... .. 7 ... ... : ... .. 7 ... ... : ... .. A ... ...
ROW 32 : ... .. . ... ... ... : ... .. . ... ... ... : D#3 00 . ... : ... .. . ... : ... .. . ... ... : ... .. 6 ... ... : ... .. 6 ... ... : ... .. 6 ... ...
ROW 33 : ... .. . ... ... ... : ... .. . ... ... ... : D-3 00 . ... : ... .. A ... : ... .. . ... ... : ... .. 5 ... ... : ... .. 5 ... ... : ... .. . ... ...
ROW 34 : ... .. . ... ... ... : E-2 00 A ... ... ... : A-2 00 . ... : ... .. 8 ... : ... .. . ... ... : ... .. . ... ... : ... .. . ... ... : ... .. . ... ...
ROW 35 : ... .. . ... ... ... : ... .. 8 ... ... ... : ... .. . ... : ... .. 7 ... : ... .. . ... ... : ... .. 4 ... ... : ... .. 4 ... ... : ... .. . ... ...
ROW 36 : F-5 00 A P7F ... ... : ... .. . ... ... ... : ... .. . ... : ... .. 6 ... : ... .. . ... ... : ... .. . ... ... : ... .. . ... ... : ... .. . ... ...
ROW 37 : ... .. . P81 ... ... : ... .. . ... ... ... : ... .. . ... : ... .. . ... : ... .. . ... ... : ... .. . ... ... : ... .. . ... ... : ... .. 3 ... ...
ROW 38 : ... .. . P80 ... ... : D-2 00 A ... ... ... : ... .. . ... : ... .. 5 ... : ... .. . ... ... : ... .. 2 ... ... : ... .. 2 ... ... : ... .. . ... ...
ROW 39 : E-5 00 A P82 ... ... : ... .. 8 ... ... ... : ... .. . ... : ... .. . ... : ... .. . ... ... : ... .. . ... ... : ... .. . ... ... : ... .. 1 ... ...
ROW 3A : ... .. . P7E ... ... : ... .. . ... ... ... : ... .. . ... : ... .. 4 ... : ... .. . ... ... : ... .. . ... ... : ... .. . ... ... : ... .. . ... ...
ROW 3B : D#5 00 A P80 ... ... : ... .. . ... ... ... : ... .. . ... : ... .. . ... : ... .. . ... ... : ... .. . ... ... : ... .. . ... ... : ... .. . ... ...
ROW 3C : ... .. . P7F ... ... : A#4 00 A ... ... ... : G#3 00 . ... : 1-# 00 F ... : ... .. . ... ... : A#2 01 8 ... ... : D#3 01 8 ... ... : F-3 01 C ... ...
ROW 3D : ... .. . P81 ... ... : ... .. 8 ... ... ... : A#2 00 . ... : ... .. C ... : ... .. . ... ... : ... .. 7 ... ... : ... .. 7 ... ... : ... .. A ... ...
ROW 3E : E-5 00 A P80 ... ... : ... .. . ... ... ... : D#2 00 . ... : ... .. 6 ... : ... .. . ... ... : ... .. 6 ... ... : ... .. 6 ... ... : ... .. 6 ... ...
ROW 3F : F-5 00 A P7E ... ... : ... .. . ... ... ... : D-2 00 . ... : ... .. 3 ... : ... .. . ... ... : ... .. 4 ... ... : ... .. 4 ... ... : ... .. . ... ...
ROW 40 : ... .. . P81 ... ... : F-4 00 A ... ... ... : A-1 00 . ... : ... .. 2 ... : ... .. . ... ... : ... .. . ... ... : ... .. . ... ... : ... .. 3 ... ...
ROW 41 : ... .. . ... ... ... : ... .. 8 ... ... ... : ... .. . ... : ... .. 0 ... : ... .. . ... ... : ... .. 2 ... ... : ... .. 2 ... ... : ... .. . ... ...
ROW 42 : E-5 00 A P82 ... ... : ... .. . ... ... ... : G#3 00 . ... : ... .. F ... : ... .. . ... ... : ... .. 8 ... ... : ... .. 8 ... ... : ... .. C ... ...
ROW 43 : ... .. . P7F ... ... : ... .. . ... ... ... : A#2 00 . ... : ... .. C ... : ... .. . ... ... : ... .. 7 ... ... : ... .. 7 ... ... : ... .. A ... ...
ROW 44 : D#5 00 A P80 ... ... : D#4 00 A ... ... ... : D#2 00 . ... : ... .. 6 ... : ... .. . ... ... : ... .. 6 ... ... : ... .. 6 ... ... : ... .. 6 ... ...
ROW 45 : ... .. . P7F ... ... : ... .. 8 ... ... ... : D-2 00 . ... : ... .. 3 ... : ... .. . ... ... : ... .. 5 ... ... : ... .. 5 ... ... : ... .. . ... ...
ROW 46 : ... .. . P81 ... ... : ... .. . ... ... ... : A-1 00 . ... : ... .. 2 ... : ... .. . ... ... : ... .. . ... ... : ... .. . ... ... : ... .. . ... ...
ROW 47 : E-5 00 A P80 ... ... : ... .. . ... ... ... : ... .. . ... : ... .. 0 ... : ... .. . ... ... : ... .. 4 ... ... : ... .. 4 ... ... : ... .. . ... ...
ROW 48 : F-5 00 A P7E ... ... : A#3 00 A ... ... ... : G#5 00 . ... : B-# 00 D ... : ... .. . ... ... : ... .. . ... ... : ... .. . ... ... : ... .. . ... ...
ROW 49 : ... .. . P81 ... ... : ... .. 8 ... ... ... : A#4 00 . ... : ... .. B ... : ... .. . ... ... : ... .. . ... ... : ... .. . ... ... : ... .. 3 ... ...
ROW 4A : ... .. . ... ... ... : ... .. . ... ... ... : D#4 00 . ... : ... .. . ... : ... .. . ... ... : ... .. 2 ... ... : ... .. 2 ... ... : ... .. . ... ...
ROW 4B : ... .. . P7E ... ... : ... .. . ... ... ... : D-4 00 . ... : ... .. A ... : ... .. . ... ... : ... .. . ... ... : ... .. . ... ... : ... .. 1 ... ...
ROW 4C : E-5 00 A P80 ... ... : F-3 00 A ... ... ... : A-3 00 . ... : ... .. 8 ... : ... .. . ... ... : ... .. . ... ... : ... .. . ... ... : ... .. . ... ...
ROW 4D : D#5 00 A P81 ... ... : ... .. 8 ... ... ... : ... .. . ... : ... .. 7 ... : ... .. . ... ... : ... .. . ... ... : ... .. . ... ... : ... .. . ... ...
ROW 4E : D-5 00 F P80 ... ... : ... .. . ... ... ... : ... .. . ... : ... .. 6 ... : ... .. . ... ... : ... .. 8 ... ... : ... .. 8 ... ... : ... .. C ... ...
ROW 4F : ... .. E ... ... ... : ... .. . ... ... ... : ... .. . ... : ... .. . ... : ... .. . ... ... : ... .. 7 ... ... : ... .. 7 ... ... : ... .. A ... ...
ROW 50 : ... .. D ... ... ... : D#3 00 A ... ... ... : ... .. . ... : ... .. 5 ... : ... .. . ... ... : ... .. 6 ... ... : ... .. 6 ... ... : ... .. 6 ... ...
ROW 51 : ... .. A ... ... ... : ... .. 8 ... ... ... : ... .. . ... : ... .. . ... : ... .. . ... ... : ... .. 4 ... ... : ... .. 4 ... ... : ... .. . ... ...
ROW 52 : ... .. . ... ... ... : ... .. . ... ... ... : ... .. . ... : ... .. 4 ... : ... .. . ... ... : ... .. . ... ... : ... .. . ... ... : ... .. 3 ... ...
ROW 53 : ... .. . ... ... ... : ... .. . ... ... ... : ... .. . ... : ... .. . ... : ... .. . ... ... : ... .. 2 ... ... : ... .. 2 ... ... : ... .. . ... ...
ROW 54 : C-5 00 F ... V01 ... : A#2 00 A ... ... ... : G#3 00 . ... : 1-# 00 F ... : ... .. . ... ... : ... .. 8 ... ... : ... .. 8 ... ... : ... .. C ... ...
ROW 55 : ... .. E ... ... ... : ... .. 8 ... ... ... : A#2 00 . ... : ... .. C ... : ... .. . ... ... : ... .. 7 ... ... : ... .. 7 ... ... : ... .. A ... ...
ROW 56 : ... .. D ... ... ... : ... .. . ... ... ... : D#2 00 . ... : ... .. 6 ... : ... .. . ... ... : ... .. 6 ... ... : ... .. 6 ... ... : ... .. 6 ... ...
ROW 57 : ... .. A ... ... ... : ... .. . ... ... ... : D-2 00 . ... : ... .. 3 ... : ... .. . ... ... : ... .. 5 ... ... : ... .. 5 ... ... : ... .. . ... ...
ROW 58 : ... .. 2 ... ... ... : F-2 00 A ... ... ... : A-1 00 . ... : ... .. 2 ... : ... .. . ... ... : ... .. . ... ... : ... .. . ... ... : ... .. . ... ...
ROW 59 : ... .. . ... ... ... : ... .. 8 ... ... ... : ... .. . ... : ... .. 0 ... : ... .. . ... ... : ... .. 4 ... ... : ... .. 4 ... ... : ... .. . ... ...
ROW 5A : D-5 00 F ... V02 ... : ... .. . ... ... ... : G#3 00 . ... : ... .. F ... : ... .. . ... ... : ... .. . ... ... : ... .. . ... ... : ... .. . ... ...
ROW 5B : ... .. E ... ... ... : ... .. . ... ... ... : A#2 00 . ... : ... .. C ... : ... .. . ... ... : ... .. . ... ... : ... .. . ... ... : ... .. 3 ... ...
ROW 5C : ... .. D ... ... ... : D#2 00 A ... ... ... : D#2 00 . ... : ... .. 6 ... : ... .. . ... ... : ... .. 2 ... ... : ... .. 2 ... ... : ... .. . ... ...
ROW 5D : ... .. A ... ... ... : ... .. 8 ... ... ... : D-2 00 . ... : ... .. 3 ... : ... .. . ... ... : ... .. . ... ... : ... .. . ... ... : ... .. 1 ... ...
ROW 5E : ... .. . ... ... ... : ... .. . ... ... ... : A-1 00 . ... : ... .. 2 ... : ... .. . ... ... : ... .. . ... ... : ... .. . ... ... : ... .. . ... ...
ROW 5F : ... .. . ... ... ... : ... .. . ... ... ... : ... .. . ... : ... .. 0 ... : ... .. . ... ... : ... .. . ... ... : ... .. . ... ... : ... .. . ... ...
ROW 60 : G-4 00 F ... V03 ... : A#1 00 A ... ... ... : G#4 00 . ... : B-# 00 D ... : ... .. . ... ... : ... .. 8 ... ... : ... .. 8 ... ... : ... .. C ... ...
ROW 61 : ... .. E ... ... ... : ... .. 8 ... ... ... : A#3 00 . ... : ... .. B ... : ... .. . ... ... : ... .. 7 ... ... : ... .. 7 ... ... : ... .. A ... ...
ROW 62 : ... .. D ... ... ... : ... .. . ... ... ... : D#3 00 . ... : ... .. . ... : ... .. . ... ... : ... .. 6 ... ... : ... .. 6 ... ... : ... .. 6 ... ...
ROW 63 : ... .. A ... ... ... : ... .. . ... ... ... : D-3 00 . ... : ... .. A ... : ... .. . ... ... : ... .. 4 ... ... : ... .. 4 ... ... : ... .. . ... ...
ROW 64 : ... .. . ... ... ... : D#2 00 A ... ... ... : A-2 00 . ... : ... .. 8 ... : ... .. . ... ... : ... .. . ... ... : ... .. . ... ... : ... .. 3 ... ...
ROW 65 : ... .. . ... ... ... : ... .. 8 ... ... ... : ... .. . ... : ... .. 7 ... : ... .. . ... ... : ... .. 2 ... ... : ... .. 2 ... ... : ... .. . ... ...
ROW 66 : A-4 00 F ... V00 ... : ... .. . ... ... ... : ... .. . ... : ... .. 6 ... : ... .. . ... ... : ... .. 8 ... ... : ... .. 8 ... ... : ... .. C ... ...
ROW 67 : ... .. E ... ... ... : ... .. . ... ... ... : ... .. . ... : ... .. . ... : ... .. . ... ... : ... .. 7 ... ... : ... .. 7 ... ... : ... .. A ... ...
ROW 68 : ... .. D ... ... ... : F-2 00 A ... ... ... : ... .. . ... : ... .. 5 ... : ... .. . ... ... : ... .. 6 ... ... : ... .. 6 ... ... : ... .. 6 ... ...
ROW 69 : ... .. A ... ... ... : ... .. 8 ... ... ... : ... .. . ... : ... .. . ... : ... .. . ... ... : ... .. 4 ... ... : ... .. 4 ... ... : ... .. . ... ...
ROW 6A : ... .. . ... ... ... : ... .. . ... ... ... : ... .. . ... : ... .. 4 ... : ... .. . ... ... : ... .. . ... ... : ... .. . ... ... : ... .. 3 ... ...
ROW 6B : ... .. . ... ... ... : ... .. . ... ... ... : ... .. . ... : ... .. . ... : ... .. . ... ... : ... .. 2 ... ... : ... .. 2 ... ... : ... .. . ... ...
ROW 6C : ... .. F ... V01 ... : A#2 00 A ... ... ... : G#3 00 . ... : 1-# 00 F ... : ... .. . ... ... : ... .. 8 ... ... : ... .. 8 ... ... : ... .. C ... ...
ROW 6D : ... .. E ... ... ... : ... .. 8 ... ... ... : A#2 00 . ... : ... .. C ... : ... .. . ... ... : ... .. 7 ... ... : ... .. 7 ... ... : ... .. A ... ...
ROW 6E : ... .. D ... ... ... : ... .. . ... ... ... : D#2 00 . ... : ... .. 6 ... : ... .. . ... ... : ... .. 6 ... ... : ... .. 6 ... ... : ... .. 6 ... ...
ROW 6F : ... .. A ... ... ... : ... .. . ... ... ... : D-2 00 . ... : ... .. 3 ... : ... .. . ... ... : ... .. 4 ... ... : ... .. 4 ... ... : ... .. . ... ...
ROW 70 : ... .. . ... ... ... : D#3 00 A ... ... ... : A-1 00 . ... : ... .. 2 ... : ... .. . ... ... : ... .. . ... ... : ... .. . ... ... : ... .. 3 ... ...
ROW 71 : ... .. . ... ... ... : ... .. 8 ... ... ... : ... .. . ... : ... .. 0 ... : ... .. . ... ... : ... .. 2 ... ... : ... .. 2 ... ... : ... .. . ... ...
ROW 72 : ... .. . ... ... ... : ... .. . ... ... ... : G#3 00 . ... : ... .. F ... : ... .. . ... ... : ... .. 8 ... ... : ... .. 8 ... ... : ... .. C ... ...
ROW 73 : A#4 00 A P82 ... ... : ... .. . ... ... ... : A#2 00 . ... : ... .. C ... : ... .. . ... ... : ... .. 7 ... ... : ... .. 7 ... ... : ... .. A ... ...
ROW 74 : C-5 00 A P7E ... ... : A#3 00 A ... ... ... : D#2 00 . ... : ... .. 6 ... : ... .. . ... ... : ... .. 6 ... ... : ... .. 6 ... ... : ... .. 6 ... ...
ROW 75 : C#5 00 A P81 ... ... : ... .. 8 ... ... ... : D-2 00 . ... : ... .. 3 ... : ... .. . ... ... : ... .. 4 ... ... : ... .. 4 ... ... : ... .. . ... ...
ROW 76 : D-5 00 A P80 ... ... : ... .. . ... ... ... : A-1 00 . ... : ... .. 2 ... : ... .. . ... ... : ... .. . ... ... : ... .. . ... ... : ... .. 3 ... ...
ROW 77 : ... .. . ... ... ... : ... .. . ... ... ... : ... .. . ... : ... .. 0 ... : ... .. . ... ... : ... .. 2 ... ... : ... .. 2 ... ... : ... .. . ... ...
ROW 78 : ... .. . ... ... ... : C-5 00 A ... ... ... : G#5 00 . ... : B-# 00 D ... : ... .. . ... ... : C-3 01 8 ... ... : F-3 01 8 ... ... : G-3 01 C ... ...
ROW 79 : ... .. . ... ... ... : ... .. 8 ... ... ... : A#4 00 . ... : ... .. B ... : ... .. . ... ... : ... .. 7 ... ... : ... .. 7 ... ... : ... .. A ... ...
ROW 7A : ... .. . ... ... ... : ... .. . ... ... ... : D#4 00 . ... : ... .. . ... : ... .. . ... ... : ... .. 6 ... ... : ... .. 6 ... ... : ... .. 6 ... ...
ROW 7B : ... .. . ... ... ... : ... .. . ... ... ... : D-4 00 . ... : ... .. A ... : ... .. . ... ... : ... .. 4 ... ... : ... .. 4 ... ... : ... .. . ... ...
ROW 7C : ... .. . ... ... ... : G-4 00 A ... ... ... : A-3 00 . ... : ... .. 8 ... : ... .. . ... ... : ... .. . ... ... : ... .. . ... ... : ... .. 3 ... ...
ROW 7D : ... .. . ... ... ... : ... .. 8 ... ... ... : ... .. . ... : ... .. 7 ... : ... .. . ... ... : ... .. 2 ... ... : ... .. 2 ... ... : ... .. . ... ...
ROW 7E : ... .. . ... ... ... : ... .. . ... ... ... : ... .. . ... : ... .. 6 ... : ... .. . ... ... : ... .. 8 ... ... : ... .. 8 ... ... : ... .. C ... ...
ROW 7F : ... .. . ... ... ... : ... .. . ... ... ... : ... .. . ... : ... .. . ... : ... .. . ... ... : ... .. 7 ... ... : ... .. 7 ... ... : ... .. A ... ...
ROW 80 : ... .. . ... ... ... : F-4 00 A ... ... ... : ... .. . ... : ... .. 5 ... : ... .. . ... ... : ... .. 6 ... ... : ... .. 6 ... ... : ... .. 6 ... ...
ROW 81 : ... .. . ... ... ... : ... .. 8 ... ... ... : ... .. . ... : ... .. . ... : ... .. . ... ... : ... .. 5 ... ... : ... .. 5 ... ... : ... .. . ... ...
ROW 82 : ... .. . ... ... ... : ... .. . ... ... ... : ... .. . ... : ... .. 4 ... : ... .. . ... ... : ... .. . ... ... : ... .. . ... ... : ... .. . ... ...
ROW 83 : ... .. . ... ... ... : ... .. . ... ... ... : ... .. . ... : ... .. . ... : ... .. . ... ... : ... .. 4 ... ... : ... .. 4 ... ... : ... .. . ... ...
ROW 84 : D#5 00 A P81 ... ... : C-4 00 A ... ... ... : G#3 00 . ... : 1-# 00 F ... : ... .. . ... ... : ... .. . ... ... : ... .. . ... ... : ... .. . ... ...
ROW 85 : E-5 00 A P7F ... ... : ... .. 8 ... ... ... : A#2 00 . ... : ... .. C ... : ... .. . ... ... : ... .. . ... ... : ... .. . ... ... : ... .. 3 ... ...
ROW 86 : ... .. . P7E ... ... : ... .. . ... ... ... : D#2 00 . ... : ... .. 6 ... : ... .. . ... ... : ... .. 2 ... ... : ... .. 2 ... ... : ... .. . ... ...
ROW 87 : D-5 00 A P82 ... ... : ... .. . ... ... ... : D-2 00 . ... : ... .. 3 ... : ... .. . ... ... : ... .. . ... ... : ... .. . ... ... : ... .. 1 ... ...
ROW 88 : ... .. . P7E ... ... : G-3 00 A ... ... ... : A-1 00 . ... : ... .. 2 ... : ... .. . ... ... : ... .. . ... ... : ... .. . ... ... : ... .. . ... ...
ROW 89 : C#5 00 A ... ... ... : ... .. 8 ... ... ... : ... .. . ... : ... .. 0 ... : ... .. . ... ... : ... .. . ... ... : ... .. . ... ... : ... .. . ... ...
ROW 8A : C-5 00 A P83 ... ... : ... .. . ... ... ... : G#3 00 . ... : ... .. F ... : ... .. . ... ... : ... .. 8 ... ... : ... .. 8 ... ... : ... .. C ... ...
ROW 8B : C#5 00 A P80 ... ... : ... .. . ... ... ... : A#2 00 . ... : ... .. C ... : ... .. . ... ... : ... .. 7 ... ... : ... .. 7 ... ... : ... .. A ... ...
ROW 8C : D-5 00 A ... ... ... : F-3 00 A ... ... ... : D#2 00 . ... : ... .. 6 ... : ... .. . ... ... : ... .. 6 ... ... : ... .. 6 ... ... : ... .. 6 ... ...
ROW 8D : D#5 00 A ... ... ... : ... .. 8 ... ... ... : D-2 00 . ... : ... .. 3 ... : ... .. . ... ... : ... .. 4 ... ... : ... .. 4 ... ... : ... .. . ... ...
ROW 8E : E-5 00 A P7F ... ... : ... .. . ... ... ... : A-1 00 . ... : ... .. 2 ... : ... .. . ... ... : ... .. . ... ... : ... .. . ... ... : ... .. 3 ... ...
ROW 8F : ... .. . P7E ... ... : ... .. . ... ... ... : ... .. . ... : ... .. 0 ... : ... .. . ... ... : ... .. 2 ... ... : ... .. 2 ... ... : ... .. . ... ...
ROW 90 : C-5 00 F P80 ... ... : C-3 00 A ... ... ... : G#4 00 . ... : B-# 00 D ... : ... .. . ... ... : ... .. 8 ... ... : ... .. 8 ... ... : ... .. C ... ...
ROW 91 : ... .. E ... ... ... : ... .. 8 ... ... ... : A#3 00 . ... : ... .. B ... : ... .. . ... ... : ... .. 7 ... ... : ... .. 7 ... ... : ... .. A ... ...
ROW 92 : ... .. D ... ... ... : ... .. . ... ... ... : D#3 00 . ... : ... .. . ... : ... .. . ... ... : ... .. 6 ... ... : ... .. 6 ... ... : ... .. 6 ... ...
ROW 93 : ... .. A ... ... ... : ... .. . ... ... ... : D-3 00 . ... : ... .. A ... : ... .. . ... ... : ... .. 5 ... ... : ... .. 5 ... ... : ... .. . ... ...
ROW 94 : ... .. . ... ... ... : G-2 00 A ... ... ... : A-2 00 . ... : ... .. 8 ... : ... .. . ... ... : ... .. . ... ... : ... .. . ... ... : ... .. . ... ...
ROW 95 : ... .. . ... ... ... : ... .. 8 ... ... ... : ... .. . ... : ... .. 7 ... : ... .. . ... ... : ... .. 4 ... ... : ... .. 4 ... ... : ... .. . ... ...
ROW 96 : D-5 00 F ... ... ... : ... .. . ... ... ... : ... .. . ... : ... .. 6 ... : ... .. . ... ... : ... .. . ... ... : ... .. . ... ... : ... .. . ... ...
ROW 97 : ... .. E ... ... ... : ... .. . ... ... ... : ... .. . ... : ... .. . ... : ... .. . ... ... : ... .. . ... ... : ... .. . ... ... : ... .. 3 ... ...
ROW 98 : ... .. D ... ... ... : F-2 00 A ... ... ... : ... .. . ... : ... .. 5 ... : ... .. . ... ... : ... .. 2 ... ... : ... .. 2 ... ... : ... .. . ... ...
ROW 99 : C-5 00 F ... ... ... : ... .. 8 ... ... ... : ... .. . ... : ... .. . ... : ... .. . ... ... : ... .. . ... ... : ... .. . ... ... : ... .. 1 ... ...
ROW 9A : ... .. E ... ... ... : ... .. . ... ... ... : ... .. . ... : ... .. 4 ... : ... .. . ... ... : ... .. . ... ... : ... .. . ... ... : ... .. . ... ...
ROW 9B : ... .. D ... ... ... : ... .. . ... ... ... : ... .. . ... : ... .. . ... : ... .. . ... ... : ... .. . ... ... : ... .. . ... ... : ... .. . ... ...
ROW 9C : G-4 00 F ... ... ... : D-5 00 A ... ... ... : G#3 00 . ... : 1-# 00 F ... : ... .. . ... ... : D-3 01 8 ... ... : G-3 01 8 ... ... : A-3 01 C ... ...
ROW 9D : ... .. E ... ... ... : ... .. 8 ... ... ... : A#2 00 . ... : ... .. C ... : ... .. . ... ... : ... .. 7 ... ... : ... .. 7 ... ... : ... .. A ... ...
ROW 9E : ... .. D ... ... ... : ... .. . ... ... ... : D#2 00 . ... : ... .. 6 ... : ... .. . ... ... : ... .. 6 ... ... : ... .. 6 ... ... : ... .. 6 ... ...
ROW 9F : ... .. A ... ... ... : ... .. . ... ... ... : D-2 00 . ... : ... .. 3 ... : ... .. . ... ... : ... .. 4 ... ... : ... .. 4 ... ... : ... .. . ... ...
ROW A0 : ... .. . ... ... ... : A-4 00 A ... ... ... : A-1 00 . ... : ... .. 2 ... : ... .. . ... ... : ... .. . ... ... : ... .. . ... ... : ... .. 3 ... ...
ROW A1 : ... .. . ... ... ... : ... .. 8 ... ... ... : ... .. . ... : ... .. 0 ... : ... .. . ... ... : ... .. 2 ... ... : ... .. 2 ... ... : ... .. . ... ...
ROW A2 : D-4 00 F ... V02 ... : ... .. . ... ... ... : G#3 00 . ... : ... .. F ... : ... .. . ... ... : ... .. 8 ... ... : ... .. 8 ... ... : ... .. C ... ...
ROW A3 : ... .. E ... ... ... : ... .. . ... ... ... : A#2 00 . ... : ... .. C ... : ... .. . ... ... : ... .. 7 ... ... : ... .. 7 ... ... : ... .. A ... ...
ROW A4 : ... .. D ... ... ... : G-4 00 A ... ... ... : D#2 00 . ... : ... .. 6 ... : ... .. . ... ... : ... .. 6 ... ... : ... .. 6 ... ... : ... .. 6 ... ...
ROW A5 : ... .. A ... ... ... : ... .. 8 ... ... ... : D-2 00 . ... : ... .. 3 ... : ... .. . ... ... : ... .. 5 ... ... : ... .. 5 ... ... : ... .. . ... ...
ROW A6 : ... .. . ... ... ... : ... .. . ... ... ... : A-1 00 . ... : ... .. 2 ... : ... .. . ... ... : ... .. . ... ... : ... .. . ... ... : ... .. . ... ...
ROW A7 : ... .. . ... ... ... : ... .. . ... ... ... : ... .. . ... : ... .. 0 ... : ... .. . ... ... : ... .. 4 ... ... : ... .. 4 ... ... : ... .. . ... ...
ROW A8 : C-4 00 F ... ... ... : D-4 00 A ... ... ... : G#5 00 . ... : B-# 00 D ... : ... .. . ... ... : ... .. . ... ... : ... .. . ... ... : ... .. . ... ...
ROW A9 : ... .. E ... ... ... : ... .. 8 ... ... ... : A#4 00 . ... : ... .. B ... : ... .. . ... ... : ... .. . ... ... : ... .. . ... ... : ... .. 3 ... ...
ROW AA : ... .. D ... ... ... : ... .. . ... ... ... : D#4 00 . ... : ... .. . ... : ... .. . ... ... : ... .. 2 ... ... : ... .. 2 ... ... : ... .. . ... ...
ROW AB : ... .. A ... ... ... : ... .. . ... ... ... : D-4 00 . ... : ... .. A ... : ... .. . ... ... : ... .. . ... ... : ... .. . ... ... : ... .. 1 ... ...
ROW AC : ... .. . ... ... ... : A-3 00 A ... ... ... : A-3 00 . ... : ... .. 8 ... : ... .. . ... ... : ... .. . ... ... : ... .. . ... ... : ... .. . ... ...
ROW AD : ... .. . ... ... ... : ... .. 8 ... ... ... : ... .. . ... : ... .. 7 ... : ... .. . ... ... : ... .. . ... ... : ... .. . ... ... : ... .. . ... ...
ROW AE : D-4 00 F ... V03 ... : ... .. . ... ... ... : ... .. . ... : ... .. D ... : ... .. . ... ... : ... .. 8 ... ... : ... .. 8 ... ... : ... .. C ... ...
ROW AF : ... .. E ... ... ... : ... .. . ... ... ... : ... .. . ... : ... .. B ... : ... .. . ... ... : ... .. 7 ... ... : ... .. 7 ... ... : ... .. A ... ...
ROW B0 : ... .. D ... ... ... : G-3 00 A ... ... ... : ... .. . ... : ... .. . ... : ... .. . ... ... : ... .. 6 ... ... : ... .. 6 ... ... : ... .. 6 ... ...
ROW B1 : ... .. A ... ... ... : ... .. 8 ... ... ... : ... .. . ... : ... .. A ... : ... .. . ... ... : ... .. 4 ... ... : ... .. 4 ... ... : ... .. . ... ...
ROW B2 : ... .. . ... ... ... : ... .. . ... ... ... : ... .. . ... : ... .. 8 ... : ... .. . ... ... : ... .. . ... ... : ... .. . ... ... : ... .. 3 ... ...
ROW B3 : ... .. . ... ... ... : ... .. . ... ... ... : ... .. . ... : ... .. 7 ... : ... .. . ... ... : ... .. 2 ... ... : ... .. 2 ... ... : ... .. . ... ...
ROW B4 : G-3 00 F ... V00 ... : D-3 00 A ... ... ... : G#3 00 . ... : 1-# 00 F ... : ... .. . ... ... : ... .. 8 ... ... : ... .. 8 ... ... : ... .. C ... ...
ROW B5 : ... .. E ... ... ... : ... .. 8 ... ... ... : A#2 00 . ... : ... .. C ... : ... .. . ... ... : ... .. 7 ... ... : ... .. 7 ... ... : ... .. A ... ...
ROW B6 : ... .. D ... ... ... : ... .. . ... ... ... : D#2 00 . ... : ... .. 6 ... : ... .. . ... ... : ... .. 6 ... ... : ... .. 6 ... ... : ... .. 6 ... ...
ROW B7 : ... .. A ... ... ... : ... .. . ... ... ... : D-2 00 . ... : ... .. 3 ... : ... .. . ... ... : ... .. 5 ... ... : ... .. 5 ... ... : ... .. . ... ...
ROW B8 : ... .. . ... ... ... : A-2 00 A ... ... ... : A-1 00 . ... : ... .. 2 ... : ... .. . ... ... : ... .. . ... ... : ... .. . ... ... : ... .. . ... ...
ROW B9 : ... .. . ... ... ... : ... .. 8 ... ... ... : ... .. . ... : ... .. 0 ... : ... .. . ... ... : ... .. 4 ... ... : ... .. 4 ... ... : ... .. . ... ...
ROW BA : A-3 00 F ... ... ... : ... .. . ... ... ... : G#3 00 . ... : ... .. F ... : ... .. . ... ... : ... .. . ... ... : ... .. . ... ... : ... .. . ... ...
ROW BB : ... .. E ... ... ... : ... .. . ... ... ... : A#2 00 . ... : ... .. C ... : ... .. . ... ... : ... .. . ... ... : ... .. . ... ... : ... .. 3 ... ...
ROW BC : ... .. D ... ... ... : G-2 00 A ... ... ... : D#2 00 . ... : ... .. 6 ... : ... .. . ... ... : ... .. 2 ... ... : ... .. 2 ... ... : ... .. . ... ...
ROW BD : ... .. A ... ... ... : ... .. 8 ... ... ... : D-2 00 . ... : ... .. 3 ... : ... .. . ... ... : ... .. . ... ... : ... .. . ... ... : ... .. 1 ... ...
ROW BE : ... .. . ... ... ... : ... .. . ... ... ... : A-1 00 . ... : ... .. 2 ... : ... .. . ... ... : ... .. . ... ... : ... .. . ... ... : ... .. . ... ...
ROW BF : ... .. . ... ... ... : ... .. . ... ... ... : ... .. . ... : ... .. 0 ... : ... .. . ... ... : ... .. . ... ... : ... .. . ... ... : ... .. . ... ...
ROW C0 : B-3 00 F ... V01 ... : D-2 00 A ... ... ... : F#4 00 . ... : 9-# 00 D ... : ... .. . ... ... : ... .. 8 ... ... : ... .. 8 ... ... : ... .. C ... ...
ROW C1 : ... .. E ... ... ... : ... .. 8 ... ... ... : G#3 00 . ... : ... .. B ... : ... .. . ... ... : ... .. 7 ... ... : ... .. 7 ... ... : ... .. A ... ...
ROW C2 : ... .. D ... ... ... : ... .. . ... ... ... : C#3 00 . ... : ... .. . ... : ... .. . ... ... : ... .. 6 ... ... : ... .. 6 ... ... : ... .. 6 ... ...
ROW C3 : ... .. A ... ... ... : ... .. . ... ... ... : C-3 00 . ... : ... .. A ... : ... .. . ... ... : ... .. 4 ... ... : ... .. 4 ... ... : ... .. . ... ...
ROW C4 : ... .. . ... ... ... : G-2 00 A ... ... ... : G-2 00 . ... : ... .. 8 ... : ... .. . ... ... : ... .. . ... ... : ... .. . ... ... : ... .. 3 ... ...
ROW C5 : ... .. . ... ... ... : ... .. 8 ... ... ... : ... .. . ... : ... .. 7 ... : ... .. . ... ... : ... .. 2 ... ... : ... .. 2 ... ... : ... .. . ... ...
ROW C6 : C-4 00 F ... V02 ... : ... .. . ... ... ... : G#4 00 . ... : ... .. D ... : ... .. . ... ... : ... .. 8 ... ... : ... .. 8 ... ... : ... .. C ... ...
ROW C7 : ... .. E ... ... ... : ... .. . ... ... ... : A#3 00 . ... : ... .. B ... : ... .. . ... ... : ... .. 7 ... ... : ... .. 7 ... ... : ... .. A ... ...
ROW C8 : ... .. D ... ... ... : A-2 00 A ... ... ... : D#3 00 . ... : ... .. . ... : ... .. . ... ... : ... .. 6 ... ... : ... .. 6 ... ... : ... .. 6 ... ...
ROW C9 : ... .. A ... ... ... : ... .. 8 ... ... ... : D-3 00 . ... : ... .. A ... : ... .. . ... ... : ... .. 4 ... ... : ... .. 4 ... ... : ... .. . ... ...
ROW CA : ... .. . ... ... ... : ... .. . ... ... ... : A-2 00 . ... : ... .. 8 ... : ... .. . ... ... : ... .. . ... ... : ... .. . ... ... : ... .. 3 ... ...
ROW CB : ... .. . ... ... ... : ... .. . ... ... ... : ... .. . ... : ... .. 7 ... : ... .. . ... ... : ... .. 2 ... ... : ... .. 2 ... ... : ... .. . ... ...
ROW CC : D-4 00 F ... V03 ... : D-3 00 A ... ... ... : A-4 00 . ... : 1-# 00 F ... : ... .. . ... ... : ... .. 8 ... ... : ... .. 8 ... ... : ... .. C ... ...
ROW CD : ... .. E ... ... ... : ... .. 8 ... ... ... : B-3 00 . ... : ... .. C ... : ... .. . ... ... : ... .. 7 ... ... : ... .. 7 ... ... : ... .. A ... ...
ROW CE : ... .. D ... ... ... : ... .. . ... ... ... : E-3 00 . ... : ... .. 6 ... : ... .. . ... ... : ... .. 6 ... ... : ... .. 6 ... ... : ... .. 6 ... ...
ROW CF : ... .. A ... ... ... : ... .. . ... ... ... : D#3 00 . ... : ... .. 3 ... : ... .. . ... ... : ... .. 4 ... ... : ... .. 4 ... ... : ... .. . ... ...
ROW D0 : ... .. . ... ... ... : G-3 00 A ... ... ... : A#2 00 . ... : ... .. 2 ... : ... .. . ... ... : ... .. . ... ... : ... .. . ... ... : ... .. 3 ... ...
ROW D1 : ... .. . ... ... ... : ... .. 8 ... ... ... : ... .. . ... : ... .. 0 ... : ... .. . ... ... : ... .. 2 ... ... : ... .. 2 ... ... : ... .. . ... ...
ROW D2 : E-4 00 F ... V00 ... : ... .. . ... ... ... : B-4 00 . ... : ... .. F ... : ... .. . ... ... : ... .. 8 ... ... : ... .. 8 ... ... : ... .. C ... ...
ROW D3 : ... .. E ... ... ... : ... .. . ... ... ... : C#4 00 . ... : ... .. C ... : ... .. . ... ... : ... .. 7 ... ... : ... .. 7 ... ... : ... .. A ... ...
ROW D4 : ... .. D ... ... ... : D-4 00 A ... ... ... : F#3 00 . ... : ... .. 6 ... : ... .. . ... ... : ... .. 6 ... ... : ... .. 6 ... ... : ... .. 6 ... ...
ROW D5 : ... .. A ... ... ... : ... .. 8 ... ... ... : F-3 00 . ... : ... .. 3 ... : ... .. . ... ... : ... .. 4 ... ... : ... .. 4 ... ... : ... .. . ... ...
ROW D6 : ... .. . ... ... ... : ... .. . ... ... ... : C-3 00 . ... : ... .. 2 ... : ... .. . ... ... : ... .. . ... ... : ... .. . ... ... : ... .. 3 ... ...
ROW D7 : ... .. . ... ... ... : ... .. . ... ... ... : ... .. . ... : ... .. 0 ... : ... .. . ... ... : ... .. 2 ... ... : ... .. 2 ... ... : ... .. . ... ...
ROW D8 : G-4 00 F ... ... ... : E-5 00 A ... ... ... : G#5 00 . ... : B-# 00 D ... : ... .. . ... ... : A-3 01 8 ... ... : D-4 01 8 ... ... : E-4 01 C ... ...
ROW D9 : ... .. E ... ... ... : ... .. 8 ... ... ... : A#4 00 . ... : ... .. B ... : ... .. . ... ... : ... .. 7 ... ... : ... .. 7 ... ... : ... .. A ... ...
ROW DA : ... .. D ... ... ... : ... .. . ... ... ... : D#4 00 . ... : ... .. . ... : ... .. . ... ... : ... .. 6 ... ... : ... .. 6 ... ... : ... .. 6 ... ...
ROW DB : ... .. A ... ... ... : ... .. . ... ... ... : D-4 00 . ... : ... .. A ... : ... .. . ... ... : ... .. 4 ... ... : ... .. 4 ... ... : ... .. . ... ...
ROW DC : ... .. . ... ... ... : A#4 00 A ... ... ... : A-3 00 . ... : ... .. 8 ... : ... .. . ... ... : ... .. . ... ... : ... .. . ... ... : ... .. 3 ... ...
ROW DD : ... .. . ... ... ... : ... .. 8 ... ... ... : ... .. . ... : ... .. 7 ... : ... .. . ... ... : ... .. 2 ... ... : ... .. 2 ... ... : ... .. . ... ...
ROW DE : ... .. . ... ... ... : ... .. . ... ... ... : ... .. . ... : ... .. 6 ... : ... .. . ... ... : ... .. 8 ... ... : ... .. 8 ... ... : ... .. C ... ...
ROW DF : ... .. . ... ... ... : ... .. . ... ... ... : ... .. . ... : ... .. . ... : ... .. . ... ... : ... .. 7 ... ... : ... .. 7 ... ... : ... .. A ... ...
ROW E0 : ... .. . ... ... ... : A-4 00 A ... ... ... : ... .. . ... : ... .. 5 ... : ... .. . ... ... : ... .. 6 ... ... : ... .. 6 ... ... : ... .. 6 ... ...
ROW E1 : ... .. . ... ... ... : ... .. 8 ... ... ... : ... .. . ... : ... .. . ... : ... .. . ... ... : ... .. 5 ... ... : ... .. 5 ... ... : ... .. . ... ...
ROW E2 : G#4 00 A P81 ... ... : ... .. . ... ... ... : ... .. . ... : ... .. 4 ... : ... .. . ... ... : ... .. . ... ... : ... .. . ... ... : ... .. . ... ...
ROW E3 : A-4 00 A P80 ... ... : ... .. . ... ... ... : ... .. . ... : ... .. . ... : ... .. . ... ... : ... .. 4 ... ... : ... .. 4 ... ... : ... .. . ... ...
ROW E4 : ... .. . ... ... ... : E-4 00 A ... ... ... : G#3 00 . ... : 1-# 00 F ... : ... .. . ... ... : ... .. . ... ... : ... .. . ... ... : ... .. . ... ...
ROW E5 : ... .. . ... ... ... : ... .. 8 ... ... ... : A#2 00 . ... : ... .. C ... : ... .. . ... ... : ... .. . ... ... : ... .. . ... ... : ... .. 3 ... ...
ROW E6 : ... .. . ... ... ... : ... .. . ... ... ... : D#2 00 . ... : ... .. 6 ... : ... .. . ... ... : ... .. 2 ... ... : ... .. 2 ... ... : ... .. . ... ...
ROW E7 : ... .. . ... ... ... : ... .. . ... ... ... : D-2 00 . ... : ... .. 3 ... : ... .. . ... ... : ... .. . ... ... : ... .. . ... ... : ... .. 1 ... ...
ROW E8 : ... .. . ... ... ... : A#3 00 A ... ... ... : A-1 00 . ... : ... .. 2 ... : ... .. . ... ... : ... .. . ... ... : ... .. . ... ... : ... .. . ... ...
ROW E9 : ... .. . ... ... ... : ... .. 8 ... ... ... : ... .. . ... : ... .. 0 ... : ... .. . ... ... : ... .. . ... ... : ... .. . ... ... : ... .. . ... ...
ROW EA : G-4 00 F ... ... ... : ... .. . ... ... ... : G#3 00 . ... : ... .. F ... : ... .. . ... ... : ... .. 8 ... ... : ... .. 8 ... ... : ... .. C ... ...
ROW EB : ... .. E ... ... ... : ... .. . ... ... ... : A#2 00 . ... : ... .. C ... : ... .. . ... ... : ... .. 7 ... ... : ... .. 7 ... ... : ... .. A ... ...
ROW EC : ... .. D ... ... ... : A-3 00 A ... ... ... : D#2 00 . ... : ... .. 6 ... : ... .. . ... ... : ... .. 6 ... ... : ... .. 6 ... ... : ... .. 6 ... ...
ROW ED : ... .. A ... ... ... : ... .. 8 ... ... ... : D-2 00 . ... : ... .. 3 ... : ... .. . ... ... : ... .. 4 ... ... : ... .. 4 ... ... : ... .. . ... ...
ROW EE : ... .. . ... ... ... : ... .. . ... ... ... : A-1 00 . ... : ... .. 2 ... : ... .. . ... ... : ... .. . ... ... : ... .. . ... ... : ... .. 3 ... ...
ROW EF : ... .. . ... ... ... : ... .. . ... ... ... : ... .. . ... : ... .. 0 ... : ... .. . ... ... : ... .. 2 ... ... : ... .. 2 ... ... : ... .. . ... ...
ROW F0 : ... .. . ... ... ... : E-3 00 A ... ... ... : G#4 00 . ... : B-# 00 D ... : ... .. . ... ... : ... .. 8 ... ... : ... .. 8 ... ... : ... .. C ... ...
ROW F1 : ... .. . ... ... ... : ... .. 8 ... ... ... : A#3 00 . ... : ... .. B ... : ... .. . ... ... : ... .. 7 ... ... : ... .. 7 ... ... : ... .. A ... ...
ROW F2 : ... .. . ... ... ... : ... .. . ... ... ... : D#3 00 . ... : ... .. . ... : ... .. . ... ... : ... .. 6 ... ... : ... .. 6 ... ... : ... .. 6 ... ...
ROW F3 : G#4 00 A P82 ... ... : ... .. . ... ... ... : D-3 00 . ... : ... .. A ... : ... .. . ... ... : ... .. 5 ... ... : ... .. 5 ... ... : ... .. . ... ...
ROW F4 : A-4 00 A P80 ... ... : A#2 00 A ... ... ... : A-2 00 . ... : ... .. 8 ... : ... .. . ... ... : ... .. . ... ... : ... .. . ... ... : ... .. . ... ...
ROW F5 : ... .. . P7E ... ... : ... .. 8 ... ... ... : ... .. . ... : ... .. 7 ... : ... .. . ... ... : ... .. 4 ... ... : ... .. 4 ... ... : ... .. . ... ...
ROW F6 : G-4 00 A P84 ... ... : ... .. . ... ... ... : ... .. . ... : ... .. 6 ... : ... .. . ... ... : ... .. . ... ... : ... .. . ... ... : ... .. . ... ...
ROW F7 : F#4 00 A ... ... ... : ... .. . ... ... ... : ... .. . ... : ... .. . ... : ... .. . ... ... : ... .. . ... ... : ... .. . ... ... : ... .. 3 ... ...
ROW F8 : F-4 00 A P83 ... ... : A-2 00 A ... ... ... : ... .. . ... : ... .. 5 ... : ... .. . ... ... : ... .. 2 ... ... : ... .. 2 ... ... : ... .. . ... ...
ROW F9 : ... .. . P81 ... ... : ... .. 8 ... ... ... : ... .. . ... : ... .. . ... : ... .. . ... ... : ... .. . ... ... : ... .. . ... ... : ... .. 1 ... ...
ROW FA : F#4 00 A P7E ... ... : ... .. . ... ... ... : ... .. . ... : ... .. 4 ... : ... .. . ... ... : ... .. . ... ... : ... .. . ... ... : ... .. . ... ...
ROW FB : G-4 00 A P80 ... ... : ... .. . ... ... ... : ... .. . ... : ... .. . ... : ... .. . ... ... : ... .. . ... ... : ... .. . ... ... : ... .. . ... ...
ROW FC : A-4 00 F ... ... ... : F-5 00 A ... ... ... : G#3 00 . ... : 1-# 00 F ... : ... .. . ... ... : A#3 01 8 ... ... : D#4 01 8 ... ... : F-4 01 C ... ...
ROW FD : ... .. E ... ... ... : ... .. 8 ... ... ... : A#2 00 . ... : ... .. C ... : ... .. . ... ... : ... .. 7 ... ... : ... .. 7 ... ... : ... .. A ... ...
ROW FE : ... .. D ... ... ... : ... .. . ... ... ... : D#2 00 . ... : ... .. 6 ... : ... .. . ... ... : ... .. 6 ... ... : ... .. 6 ... ... : ... .. 6 ... ...
ROW FF : ... .. A ... ... ... : ... .. . ... ... ... : D-2 00 . ... : ... .. 3 ... : ... .. . ... ... : ... .. 4 ... ... : ... .. 4 ... ... : ... .. . ... ...

PATTERN 0D
ROW 00 : ... .. . ... ... ... : C-5 00 A ... ... ... : A-1 00 . ... : ... .. 2 ... : ... .. . ... ... : ... .. . ... ... : ... .. . ... ... : ... .. 3 ... ...
ROW 01 : ... .. . ... ... ... : ... .. 8 ... ... ... : ... .. . ... : ... .. 0 ... : ... .. . ... ... : ... .. 2 ... ... : ... .. 2 ... ... : ... .. . ... ...
ROW 02 : ... .. . ... ... ... : ... .. . ... ... ... : G#3 00 . ... : ... .. F ... : ... .. . ... ... : ... .. 8 ... ... : ... .. 8 ... ... : ... .. C ... ...
ROW 03 : ... .. . ... ... ... : ... .. . ... ... ... : A#2 00 . ... : ... .. C ... : ... .. . ... ... : ... .. 7 ... ... : ... .. 7 ... ... : ... .. A ... ...
ROW 04 : ... .. . ... ... ... : A#4 00 A ... ... ... : D#2 00 . ... : ... .. 6 ... : ... .. . ... ... : ... .. 6 ... ... : ... .. 6 ... ... : ... .. 6 ... ...
ROW 05 : ... .. . ... ... ... : ... .. 8 ... ... ... : D-2 00 . ... : ... .. 3 ... : ... .. . ... ... : ... .. 5 ... ... : ... .. 5 ... ... : ... .. . ... ...
ROW 06 : ... .. . ... ... ... : ... .. . ... ... ... : A-1 00 . ... : ... .. 2 ... : ... .. . ... ... : ... .. . ... ... : ... .. . ... ... : ... .. . ... ...
ROW 07 : ... .. . ... ... ... : ... .. . ... ... ... : ... .. . ... : ... .. 0 ... : ... .. . ... ... : ... .. 4 ... ... : ... .. 4 ... ... : ... .. . ... ...
ROW 08 : F-4 00 A P81 ... ... : F-4 00 A ... ... ... : G#5 00 . ... : B-# 00 D ... : ... .. . ... ... : ... .. . ... ... : ... .. . ... ... : ... .. . ... ...
ROW 09 : D-4 00 A P7F ... ... : ... .. 8 ... ... ... : A#4 00 . ... : ... .. B ... : ... .. . ... ... : ... .. . ... ... : ... .. . ... ... : ... .. 3 ... ...
ROW 0A : B-3 00 A P83 ... ... : ... .. . ... ... ... : D#4 00 . ... : ... .. . ... : ... .. . ... ... : ... .. 2 ... ... : ... .. 2 ... ... : ... .. . ... ...
ROW 0B : A-3 00 A P7F ... ... : ... .. . ... ... ... : D-4 00 . ... : ... .. A ... : ... .. . ... ... : ... .. . ... ... : ... .. . ... ... : ... .. 1 ... ...
ROW 0C : G-3 00 A P7E ... ... : C-4 00 A ... ... ... : A-3 00 . ... : ... .. 8 ... : ... .. . ... ... : ... .. . ... ... : ... .. . ... ... : ... .. . ... ...
ROW 0D : F-3 00 A P81 ... ... : ... .. 8 ... ... ... : ... .. . ... : ... .. 7 ... : ... .. . ... ... : ... .. . ... ... : ... .. . ... ... : ... .. . ... ...
ROW 0E : A#4 00 F P80 ... ... : ... .. . ... ... ... : ... .. . ... : ... .. 6 ... : ... .. . ... ... : ... .. 8 ... ... : ... .. 8 ... ... : ... .. C ... ...
ROW 0F : ... .. E ... ... ... : ... .. . ... ... ... : ... .. . ... : ... .. . ... : ... .. . ... ... : ... .. 7 ... ... : ... .. 7 ... ... : ... .. A ... ...
ROW 10 : ... .. D ... ... ... : A#3 00 A ... ... ... : ... .. . ... : ... .. 5 ... : ... .. . ... ... : ... .. 6 ... ... : ... .. 6 ... ... : ... .. 6 ... ...
ROW 11 : ... .. A ... ... ... : ... .. 8 ... ... ... : ... .. . ... : ... .. . ... : ... .. . ... ... : ... .. 4 ... ... : ... .. 4 ... ... : ... .. . ... ...
ROW 12 : ... .. . ... ... ... : ... .. . ... ... ... : ... .. . ... : ... .. 4 ... : ... .. . ... ... : ... .. . ... ... : ... .. . ... ... : ... .. 3 ... ...
ROW 13 : ... .. . ... ... ... : ... .. . ... ... ... : ... .. . ... : ... .. . ... : ... .. . ... ... : ... .. 2 ... ... : ... .. 2 ... ... : ... .. . ... ...
ROW 14 : ... .. . ... ... ... : F-3 00 A ... ... ... : G#3 00 . ... : 1-# 00 F ... : ... .. . ... ... : ... .. 8 ... ... : ... .. 8 ... ... : ... .. C ... ...
ROW 15 : ... .. . ... ... ... : ... .. 8 ... ... ... : A#2 00 . ... : ... .. C ... : ... .. . ... ... : ... .. 7 ... ... : ... .. 7 ... ... : ... .. A ... ...
ROW 16 : ... .. . ... ... ... : ... .. . ... ... ... : D#2 00 . ... : ... .. 6 ... : ... .. . ... ... : ... .. 6 ... ... : ... .. 6 ... ... : ... .. 6 ... ...
ROW 17 : A-4 00 F ... ... ... : ... .. . ... ... ... : D-2 00 . ... : ... .. 3 ... : ... .. . ... ... : ... .. 5 ... ... : ... .. 5 ... ... : ... .. . ... ...
ROW 18 : ... .. E ... ... ... : C-3 00 A ... ... ... : A-1 00 . ... : ... .. 2 ... : ... .. . ... ... : ... .. . ... ... : ... .. . ... ... : ... .. . ... ...
ROW 19 : ... .. D ... ... ... : ... .. 8 ... ... ... : ... .. . ... : ... .. 0 ... : ... .. . ... ... : ... .. 4 ... ... : ... .. 4 ... ... : ... .. . ... ...
ROW 1A : ... .. A ... ... ... : ... .. . ... ... ... : G#3 00 . ... : ... .. F ... : ... .. . ... ... : ... .. . ... ... : ... .. . ... ... : ... .. . ... ...
ROW 1B : ... .. . ... ... ... : ... .. . ... ... ... : A#2 00 . ... : ... .. C ... : ... .. . ... ... : ... .. . ... ... : ... .. . ... ... : ... .. 3 ... ...
ROW 1C : ... .. . ... ... ... : A#2 00 A ... ... ... : D#2 00 . ... : ... .. 6 ... : ... .. . ... ... : ... .. 2 ... ... : ... .. 2 ... ... : ... .. . ... ...
ROW 1D : ... .. . ... ... ... : ... .. 8 ... ... ... : D-2 00 . ... : ... .. 3 ... : ... .. . ... ... : ... .. . ... ... : ... .. . ... ... : ... .. 1 ... ...
ROW 1E : ... .. . ... ... ... : ... .. . ... ... ... : A-1 00 . ... : ... .. 2 ... : ... .. . ... ... : ... .. . ... ... : ... .. . ... ... : ... .. . ... ...
ROW 1F : ... .. . ... ... ... : ... .. . ... ... ... : ... .. . ... : ... .. 0 ... : ... .. . ... ... : ... .. . ... ... : ... .. . ... ... : ... .. . ... ...
ROW 20 : D-5 00 F ... ... ... : F-2 00 A ... ... ... : G#4 00 . ... : B-# 00 D ... : ... .. . ... ... : ... .. 8 ... ... : ... .. 8 ... ... : ... .. C ... ...
ROW 21 : ... .. E ... ... ... : ... .. 8 ... ... ... : A#3 00 . ... : ... .. B ... : ... .. . ... ... : ... .. 7 ... ... : ... .. 7 ... ... : ... .. A ... ...
ROW 22 : ... .. D ... ... ... : ... .. . ... ... ... : D#3 00 . ... : ... .. . ... : ... .. . ... ... : ... .. 6 ... ... : ... .. 6 ... ... : ... .. 6 ... ...
ROW 23 : ... .. A ... ... ... : ... .. . ... ... ... : D-3 00 . ... : ... .. A ... : ... .. . ... ... : ... .. 4 ... ... : ... .. 4 ... ... : ... .. . ... ...
ROW 24 : ... .. . ... ... ... : A#2 00 A ... ... ... : A-2 00 . ... : ... .. 8 ... : ... .. . ... ... : ... .. . ... ... : ... .. . ... ... : ... .. 3 ... ...
ROW 25 : ... .. . ... ... ... : ... .. 8 ... ... ... : ... .. . ... : ... .. 7 ... : ... .. . ... ... : ... .. 2 ... ... : ... .. 2 ... ... : ... .. . ... ...
ROW 26 : C-5 00 F ... ... ... : ... .. . ... ... ... : ... .. . ... : ... .. 6 ... : ... .. . ... ... : ... .. 8 ... ... : ... .. 8 ... ... : ... .. C ... ...
ROW 27 : ... .. E ... ... ... : ... .. . ... ... ... : ... .. . ... : ... .. . ... : ... .. . ... ... : ... .. 7 ... ... : ... .. 7 ... ... : ... .. A ... ...
ROW 28 : ... .. D ... ... ... : C-3 00 A ... ... ... : ... .. . ... : ... .. 5 ... : ... .. . ... ... : ... .. 6 ... ... : ... .. 6 ... ... : ... .. 6 ... ...
ROW 29 : ... .. A ... ... ... : ... .. 8 ... ... ... : ... .. . ... : ... .. . ... : ... .. . ... ... : ... .. 4 ... ... : ... .. 4 ... ... : ... .. . ... ...
ROW 2A : ... .. . ... ... ... : ... .. . ... ... ... : ... .. . ... : ... .. 4 ... : ... .. . ... ... : ... .. . ... ... : ... .. . ... ... : ... .. 3 ... ...
ROW 2B : ... .. . ... ... ... : ... .. . ... ... ... : ... .. . ... : ... .. . ... : ... .. . ... ... : ... .. 2 ... ... : ... .. 2 ... ... : ... .. . ... ...
ROW 2C : ... .. . ... ... ... : F-3 00 A ... ... ... : G#3 00 . ... : 1-# 00 F ... : ... .. . ... ... : ... .. 8 ... ... : ... .. 8 ... ... : ... .. C ... ...
ROW 2D : ... .. . ... ... ... : ... .. 8 ... ... ... : A#2 00 . ... : ... .. C ... : ... .. . ... ... : ... .. 7 ... ... : ... .. 7 ... ... : ... .. A ... ...
ROW 2E : ... .. . ... ... ... : ... .. . ... ... ... : D#2 00 . ... : ... .. 6 ... : ... .. . ... ... : ... .. 6 ... ... : ... .. 6 ... ... : ... .. 6 ... ...
ROW 2F : ... .. . ... ... ... : ... .. . ... ... ... : D-2 00 . ... : ... .. 3 ... : ... .. . ... ... : ... .. 4 ... ... : ... .. 4 ... ... : ... .. . ... ...
ROW 30 : ... .. . ... ... ... : A#3 00 A ... ... ... : A-1 00 . ... : ... .. 2 ... : ... .. . ... ... : ... .. . ... ... : ... .. . ... ... : ... .. 3 ... ...
ROW 31 : ... .. . ... ... ... : ... .. 8 ... ... ... : ... .. . ... : ... .. 0 ... : ... .. . ... ... : ... .. 2 ... ... : ... .. 2 ... ... : ... .. . ... ...
ROW 32 : F-5 00 F ... ... ... : ... .. . ... ... ... : G#3 00 . ... : ... .. F ... : ... .. . ... ... : ... .. 8 ... ... : ... .. 8 ... ... : ... .. C ... ...
ROW 33 : ... .. E ... ... ... : ... .. . ... ... ... : A#2 00 . ... : ... .. C ... : ... .. . ... ... : ... .. 7 ... ... : ... .. 7 ... ... : ... .. A ... ...
ROW 34 : ... .. D ... ... ... : F-4 00 A ... ... ... : D#2 00 . ... : ... .. 6 ... : ... .. . ... ... : ... .. 6 ... ... : ... .. 6 ... ... : ... .. 6 ... ...
ROW 35 : ... .. A ... ... ... : ... .. 8 ... ... ... : D-2 00 . ... : ... .. 3 ... : ... .. . ... ... : ... .. 4 ... ... : ... .. 4 ... ... : ... .. . ... ...
ROW 36 : ... .. . ... ... ... : ... .. . ... ... ... : A-1 00 . ... : ... .. 2 ... : ... .. . ... ... : ... .. . ... ... : ... .. . ... ... : ... .. 3 ... ...
ROW 37 : ... .. . ... ... ... : ... .. . ... ... ... : ... .. . ... : ... .. 0 ... : ... .. . ... ... : ... .. 2 ... ... : ... .. 2 ... ... : ... .. . ... ...
ROW 38 : ... .. . ... ... ... : G-5 00 A ... ... ... : G#5 00 . ... : B-# 00 D ... : ... .. . ... ... : C-4 01 8 ... ... : F-4 01 8 ... ... : G-4 01 C ... ...
ROW 39 : F#5 00 A P7F ... ... : ... .. 8 ... ... ... : A#4 00 . ... : ... .. B ... : ... .. . ... ... : ... .. 7 ... ... : ... .. 7 ... ... : ... .. A ... ...
ROW 3A : ... .. . P82 ... ... : ... .. . ... ... ... : D#4 00 . ... : ... .. . ... : ... .. . ... ... : ... .. 6 ... ... : ... .. 6 ... ... : ... .. 6 ... ...
ROW 3B : G-5 00 A P80 ... ... : ... .. . ... ... ... : D-4 00 . ... : ... .. A ... : ... .. . ... ... : ... .. 4 ... ... : ... .. 4 ... ... : ... .. . ... ...
ROW 3C : ... .. . ... ... ... : D-5 00 A ... ... ... : A-3 00 . ... : ... .. 8 ... : ... .. . ... ... : ... .. . ... ... : ... .. . ... ... : ... .. 3 ... ...
ROW 3D : ... .. . ... ... ... : ... .. 8 ... ... ... : ... .. . ... : ... .. 7 ... : ... .. . ... ... : ... .. 2 ... ... : ... .. 2 ... ... : ... .. . ... ...
ROW 3E : ... .. . ... ... ... : ... .. . ... ... ... : ... .. . ... : ... .. 6 ... : ... .. . ... ... : ... .. 8 ... ... : ... .. 8 ... ... : ... .. C ... ...
ROW 3F : ... .. . ... ... ... : ... .. . ... ... ... : ... .. . ... : ... .. . ... : ... .. . ... ... : ... .. 7 ... ... : ... .. 7 ... ... : ... .. A ... ...
ROW 40 : ... .. . ... ... ... : C-5 00 A ... ... ... : ... .. . ... : ... .. 5 ... : ... .. . ... ... : ... .. 6 ... ... : ... .. 6 ... ... : ... .. 6 ... ...
ROW 41 : ... .. . ... ... ... : ... .. 8 ... ... ... : G-3 00 . P7F : ... .. . ... : ... .. . ... ... : ... .. 5 ... ... : ... .. 5 ... ... : ... .. . ... ...
ROW 42 : ... .. . ... ... ... : ... .. . ... ... ... : F-3 00 . P82 : ... .. 4 ... : ... .. . ... ... : ... .. . ... ... : ... .. . ... ... : ... .. . ... ...
ROW 43 : ... .. . ... ... ... : ... .. . ... ... ... : D#3 00 . P8A : ... .. . ... : ... .. . ... ... : ... .. 4 ... ... : ... .. 4 ... ... : ... .. . ... ...
ROW 44 : ... .. . ... ... ... : G-4 00 A ... ... ... : D-3 00 . P7F : 1-# 00 F ... : ... .. . ... ... : ... .. . ... ... : ... .. . ... ... : ... .. . ... ...
ROW 45 : ... .. . ... ... ... : ... .. 8 ... ... ... : C#3 00 . P76 : ... .. C ... : ... .. . ... ... : ... .. . ... ... : ... .. . ... ... : ... .. 3 ... ...
ROW 46 : ... .. . ... ... ... : ... .. . ... ... ... : B-2 00 . P87 : ... .. 6 ... : ... .. . ... ... : ... .. 2 ... ... : ... .. 2 ... ... : ... .. . ... ...
ROW 47 : ... .. . ... ... ... : ... .. . ... ... ... : A#2 00 . P82 : ... .. 3 ... : ... .. . ... ... : ... .. . ... ... : ... .. . ... ... : ... .. 1 ... ...
ROW 48 : ... .. . ... ... ... : D-4 00 A ... ... ... : A-2 00 . P7E : ... .. 2 ... : ... .. . ... ... : ... .. . ... ... : ... .. . ... ... : ... .. . ... ...
ROW 49 : ... .. . ... ... ... : ... .. 8 ... ... ... : G#2 00 . P7D : ... .. 0 ... : ... .. . ... ... : ... .. . ... ... : ... .. . ... ... : ... .. . ... ...
ROW 4A : ... .. . ... ... ... : ... .. . ... ... ... : A-4 00 . P80 : ... .. F ... : ... .. . ... ... : ... .. 8 ... ... : ... .. 8 ... ... : ... .. C ... ...
ROW 4B : ... .. . ... ... ... : ... .. . ... ... ... : B-3 00 . ... : ... .. C ... : ... .. . ... ... : ... .. 7 ... ... : ... .. 7 ... ... : ... .. A ... ...
ROW 4C : ... .. . ... ... ... : C-4 00 A ... ... ... : E-3 00 . ... : ... .. 6 ... : ... .. . ... ... : ... .. 6 ... ... : ... .. 6 ... ... : ... .. 6 ... ...
ROW 4D : ... .. . ... ... ... : ... .. 8 ... ... ... : D#3 00 . ... : ... .. 3 ... : ... .. . ... ... : ... .. 4 ... ... : ... .. 4 ... ... : ... .. . ... ...
ROW 4E : ... .. . ... ... ... : ... .. . ... ... ... : A#2 00 . ... : ... .. 2 ... : ... .. . ... ... : ... .. . ... ... : ... .. . ... ... : ... .. 3 ... ...
ROW 4F : ... .. . ... ... ... : ... .. . ... ... ... : ... .. . ... : ... .. 0 ... : ... .. . ... ... : ... .. 2 ... ... : ... .. 2 ... ... : ... .. . ... ...
ROW 50 : G#5 00 A ... ... ... : G-3 00 A ... ... ... : ... .. . ... : ... .. F ... : ... .. . ... ... : ... .. 8 ... ... : ... .. 8 ... ... : ... .. C ... ...
ROW 51 : A-5 00 A P7F ... ... : ... .. 8 ... ... ... : ... .. . ... : ... .. C ... : ... .. . ... ... : ... .. 7 ... ... : ... .. 7 ... ... : ... .. A ... ...
ROW 52 : G#5 00 A P81 ... ... : ... .. . ... ... ... : ... .. . ... : ... .. 6 ... : ... .. . ... ... : ... .. 6 ... ... : ... .. 6 ... ... : ... .. 6 ... ...
ROW 53 : G-5 00 A P82 ... ... : ... .. . ... ... ... : ... .. . ... : ... .. 3 ... : ... .. . ... ... : ... .. 5 ... ... : ... .. 5 ... ... : ... .. . ... ...
ROW 54 : ... .. . P7E ... ... : D-3 00 A ... ... ... : ... .. . ... : ... .. 2 ... : ... .. . ... ... : ... .. . ... ... : ... .. . ... ... : ... .. . ... ...
ROW 55 : F#5 00 A P80 ... ... : ... .. 8 ... ... ... : ... .. . ... : ... .. 0 ... : ... .. . ... ... : ... .. 4 ... ... : ... .. 4 ... ... : ... .. . ... ...
ROW 56 : ... .. . P7F ... ... : ... .. . ... ... ... : ... .. . ... : ... .. F ... : ... .. . ... ... : ... .. . ... ... : ... .. . ... ... : ... .. . ... ...
ROW 57 : ... .. . P81 ... ... : ... .. . ... ... ... : ... .. . ... : ... .. C ... : ... .. . ... ... : ... .. . ... ... : ... .. . ... ... : ... .. 3 ... ...
ROW 58 : G-5 00 A P80 ... ... : C-3 00 A ... ... ... : ... .. . ... : ... .. 6 ... : ... .. . ... ... : ... .. 2 ... ... : ... .. 2 ... ... : ... .. . ... ...
ROW 59 : G#5 00 A P7F ... ... : ... .. 8 ... ... ... : ... .. . ... : ... .. 3 ... : ... .. . ... ... : ... .. . ... ... : ... .. . ... ... : ... .. 1 ... ...
ROW 5A : A-5 00 A ... ... ... : ... .. . ... ... ... : ... .. . ... : ... .. 2 ... : ... .. . ... ... : ... .. . ... ... : ... .. . ... ... : ... .. . ... ...
ROW 5B : ... .. . ... ... ... : ... .. . ... ... ... : ... .. . ... : ... .. 0 ... : ... .. . ... ... : ... .. . ... ... : ... .. . ... ... : ... .. . ... ...
ROW 5C : G-5 00 A P82 ... ... : A-5 00 A ... ... ... : B-4 00 . ... : B-# 00 D ... : ... .. . ... ... : D-4 01 8 ... ... : G-4 01 8 ... ... : A-4 01 C ... ...
ROW 5D : ... .. . P7F ... ... : ... .. 8 ... ... ... : C#4 00 . ... : ... .. B ... : ... .. . ... ... : ... .. 7 ... ... : ... .. 7 ... ... : ... .. A ... ...
ROW 5E : F#5 00 A P80 ... ... : ... .. . ... ... ... : F#3 00 . ... : ... .. . ... : ... .. . ... ... : ... .. 6 ... ... : ... .. 6 ... ... : ... .. 6 ... ...
ROW 5F : ... .. . P7F ... ... : ... .. . ... ... ... : F-3 00 . ... : ... .. A ... : ... .. . ... ... : ... .. 4 ... ... : ... .. 4 ... ... : ... .. . ... ...
ROW 60 : ... .. . P81 ... ... : E-5 00 A ... ... ... : C-3 00 . ... : ... .. 8 ... : ... .. . ... ... : ... .. . ... ... : ... .. . ... ... : ... .. 3 ... ...
ROW 61 : G-5 00 A P80 ... ... : ... .. 8 ... ... ... : ... .. . ... : ... .. 7 ... : ... .. . ... ... : ... .. 2 ... ... : ... .. 2 ... ... : ... .. . ... ...
ROW 62 : G#5 00 A P7F ... ... : ... .. . ... ... ... : ... .. . ... : ... .. 6 ... : ... .. . ... ... : ... .. 8 ... ... : ... .. 8 ... ... : ... .. C ... ...
ROW 63 : A-5 00 A ... ... ... : ... .. . ... ... ... : ... .. . ... : ... .. . ... : ... .. . ... ... : ... .. 7 ... ... : ... .. 7 ... ... : ... .. A ... ...
ROW 64 : ... .. . ... ... ... : D-5 00 A ... ... ... : ... .. . ... : ... .. 5 ... : ... .. . ... ... : ... .. 6 ... ... : ... .. 6 ... ... : ... .. 6 ... ...
ROW 65 : G#5 00 A ... ... ... : ... .. 8 ... ... ... : ... .. . ... : ... .. . ... : ... .. . ... ... : ... .. 5 ... ... : ... .. 5 ... ... : ... .. . ... ...
ROW 66 : G-5 00 A P80 ... ... : ... .. . ... ... ... : ... .. . ... : ... .. 4 ... : ... .. . ... ... : ... .. . ... ... : ... .. . ... ... : ... .. . ... ...
ROW 67 : F#5 00 A P81 ... ... : ... .. . ... ... ... : ... .. . ... : ... .. . ... : ... .. . ... ... : ... .. 4 ... ... : ... .. 4 ... ... : ... .. . ... ...
ROW 68 : F-5 00 A P82 ... ... : A-4 00 A ... ... ... : ... .. . ... : 1-# 00 F ... : ... .. . ... ... : ... .. . ... ... : ... .. . ... ... : ... .. . ... ...
ROW 69 : F#5 00 A P7F ... ... : ... .. 8 ... ... ... : ... .. . ... : ... .. C ... : ... .. . ... ... : ... .. . ... ... : ... .. . ... ... : ... .. 3 ... ...
ROW 6A : G-5 00 A P7E ... ... : ... .. . ... ... ... : ... .. . ... : ... .. 6 ... : ... .. . ... ... : ... .. 2 ... ... : ... .. 2 ... ... : ... .. . ... ...
ROW 6B : ... .. . P80 ... ... : ... .. . ... ... ... : ... .. . ... : ... .. 3 ... : ... .. . ... ... : ... .. . ... ... : ... .. . ... ... : ... .. 1 ... ...
ROW 6C : G#5 00 A ... ... ... : E-4 00 A ... ... ... : ... .. . ... : ... .. 2 ... : ... .. . ... ... : ... .. . ... ... : ... .. . ... ... : ... .. . ... ...
ROW 6D : ... .. . ... ... ... : ... .. 8 ... ... ... : ... .. . ... : ... .. 0 ... : ... .. . ... ... : ... .. . ... ... : ... .. . ... ... : ... .. . ... ...
ROW 6E : G-5 00 A ... ... ... : ... .. . ... ... ... : C#5 00 . ... : ... .. F ... : ... .. . ... ... : ... .. 8 ... ... : ... .. 8 ... ... : ... .. C ... ...
ROW 6F : F#5 00 A P82 ... ... : ... .. . ... ... ... : D#4 00 . ... : ... .. C ... : ... .. . ... ... : ... .. 7 ... ... : ... .. 7 ... ... : ... .. A ... ...
ROW 70 : F-5 00 A ... ... ... : D-4 00 A ... ... ... : G#3 00 . ... : ... .. 6 ... : ... .. . ... ... : ... .. 6 ... ... : ... .. 6 ... ... : ... .. 6 ... ...
ROW 71 : ... .. . P7F ... ... : ... .. 8 ... ... ... : G-3 00 . ... : ... .. 3 ... : ... .. . ... ... : ... .. 4 ... ... : ... .. 4 ... ... : ... .. . ... ...
ROW 72 : ... .. . P80 ... ... : ... .. . ... ... ... : D-3 00 . ... : ... .. 2 ... : ... .. . ... ... : ... .. . ... ... : ... .. . ... ... : ... .. 3 ... ...
ROW 73 : F#5 00 A P7F ... ... : ... .. . ... ... ... : ... .. . ... : ... .. 0 ... : ... .. . ... ... : ... .. 2 ... ... : ... .. 2 ... ... : ... .. . ... ...
ROW 74 : ... .. . P82 ... ... : A-3 00 A ... ... ... : ... .. . ... : ... .. F ... : ... .. . ... ... : ... .. 8 ... ... : ... .. 8 ... ... : ... .. C ... ...
ROW 75 : G-5 00 A P80 ... ... : ... .. 8 ... ... ... : ... .. . ... : ... .. C ... : ... .. . ... ... : ... .. 7 ... ... : ... .. 7 ... ... : ... .. A ... ...
ROW 76 : ... .. . P81 ... ... : ... .. . ... ... ... : ... .. . ... : ... .. 6 ... : ... .. . ... ... : ... .. 6 ... ... : ... .. 6 ... ... : ... .. 6 ... ...
ROW 77 : ... .. . P7E ... ... : ... .. . ... ... ... : ... .. . ... : ... .. 3 ... : ... .. . ... ... : ... .. 5 ... ... : ... .. 5 ... ... : ... .. . ... ...
ROW 78 : F#5 00 A P7F ... ... : E-3 00 A ... ... ... : ... .. . ... : ... .. 2 ... : ... .. . ... ... : ... .. . ... ... : ... .. . ... ... : ... .. . ... ...
ROW 79 : F-5 00 A P80 ... ... : ... .. 8 ... ... ... : ... .. . ... : ... .. 0 ... : ... .. . ... ... : ... .. 4 ... ... : ... .. 4 ... ... : ... .. . ... ...
ROW 7A : E-5 00 A P81 ... ... : ... .. . ... ... ... : ... .. . ... : ... .. F ... : ... .. . ... ... : ... .. . ... ... : ... .. . ... ... : ... .. . ... ...
ROW 7B : ... .. 2 ... ... ... : ... .. . ... ... ... : ... .. . ... : ... .. C ... : ... .. . ... ... : ... .. . ... ... : ... .. . ... ... : ... .. 3 ... ...
ROW 7C : F-5 00 2 P80 ... ... : D-3 00 A ... ... ... : ... .. . ... : ... .. 6 ... : ... .. . ... ... : ... .. 2 ... ... : ... .. 2 ... ... : ... .. . ... ...
ROW 7D : ... .. . P82 ... ... : ... .. 8 ... ... ... : ... .. . ... : ... .. 3 ... : ... .. . ... ... : ... .. . ... ... : ... .. . ... ... : ... .. 1 ... ...
ROW 7E : F#5 00 1 ... ... ... : ... .. . ... ... ... : ... .. . ... : ... .. 2 ... : ... .. . ... ... : ... .. . ... ... : ... .. . ... ... : ... .. . ... ...
ROW 7F : G-5 00 1 P7E ... ... : ... .. . ... ... ... : ... .. . ... : ... .. 0 ... : ... .. . ... ... : ... .. . ... ... : ... .. . ... ... : ... .. . ... ...
ROW 80 : E-5 00 F P80 ... ... : A-2 00 A ... ... ... : D#5 00 . ... : 9-# 00 D ... : ... .. . ... ... : ... .. 8 ... ... : ... .. 8 ... ... : ... .. C ... ...
ROW 81 : ... .. E ... ... ... : ... .. 8 ... ... ... : F-4 00 . ... : ... .. B ... : ... .. . ... ... : ... .. 7 ... ... : ... .. 7 ... ... : ... .. A ... ...
ROW 82 : ... .. D ... ... ... : ... .. . ... ... ... : A#3 00 . ... : ... .. . ... : ... .. . ... ... : ... .. 6 ... ... : ... .. 6 ... ... : ... .. 6 ... ...
ROW 83 : ... .. A ... ... ... : ... .. . ... ... ... : A-3 00 . ... : ... .. A ... : ... .. . ... ... : ... .. 4 ... ... : ... .. 4 ... ... : ... .. . ... ...
ROW 84 : ... .. . ... ... ... : D-3 00 A ... ... ... : E-3 00 . ... : ... .. 8 ... : ... .. . ... ... : ... .. . ... ... : ... .. . ... ... : ... .. 3 ... ...
ROW 85 : ... .. . ... ... ... : ... .. 8 ... ... ... : ... .. . ... : ... .. 7 ... : ... .. . ... ... : ... .. 2 ... ... : ... .. 2 ... ... : ... .. . ... ...
ROW 86 : F-5 00 F ... ... ... : ... .. . ... ... ... : ... .. . ... : 7-# 00 D ... : ... .. . ... ... : ... .. 8 ... ... : ... .. 8 ... ... : ... .. C ... ...
ROW 87 : ... .. E ... ... ... : ... .. . ... ... ... : ... .. . ... : ... .. B ... : ... .. . ... ... : ... .. 7 ... ... : ... .. 7 ... ... : ... .. A ... ...
ROW 88 : ... .. D ... ... ... : E-3 00 A ... ... ... : ... .. . ... : ... .. . ... : ... .. . ... ... : ... .. 6 ... ... : ... .. 6 ... ... : ... .. 6 ... ...
ROW 89 : E-5 00 F ... ... ... : ... .. 8 ... ... ... : ... .. . ... : ... .. A ... : ... .. . ... ... : ... .. 4 ... ... : ... .. 4 ... ... : ... .. . ... ...
ROW 8A : ... .. E ... ... ... : ... .. . ... ... ... : ... .. . ... : ... .. 8 ... : ... .. . ... ... : ... .. . ... ... : ... .. . ... ... : ... .. 3 ... ...
ROW 8B : ... .. D ... ... ... : ... .. . ... ... ... : ... .. . ... : ... .. 7 ... : ... .. . ... ... : ... .. 2 ... ... : ... .. 2 ... ... : ... .. . ... ...
ROW 8C : D-5 00 F ... ... ... : A-3 00 A ... ... ... : E-5 00 . ... : 5-# 00 D ... : ... .. . ... ... : ... .. 8 ... ... : ... .. 8 ... ... : ... .. C ... ...
ROW 8D : ... .. E ... ... ... : ... .. 8 ... ... ... : F#4 00 . ... : ... .. B ... : ... .. . ... ... : ... .. 7 ... ... : ... .. 7 ... ... : ... .. A ... ...
ROW 8E : ... .. D ... ... ... : ... .. . ... ... ... : B-3 00 . ... : ... .. . ... : ... .. . ... ... : ... .. 6 ... ... : ... .. 6 ... ... : ... .. 6 ... ...
ROW 8F : ... .. A ... ... ... : ... .. . ... ... ... : A#3 00 . ... : ... .. A ... : ... .. . ... ... : ... .. 4 ... ... : ... .. 4 ... ... : ... .. . ... ...
ROW 90 : ... .. . ... ... ... : D-4 00 A ... ... ... : F-3 00 . ... : ... .. 8 ... : ... .. . ... ... : ... .. . ... ... : ... .. . ... ... : ... .. 3 ... ...
ROW 91 : ... .. . ... ... ... : ... .. 8 ... ... ... : ... .. . ... : ... .. 7 ... : ... .. . ... ... : ... .. 2 ... ... : ... .. 2 ... ... : ... .. . ... ...
ROW 92 : E-5 00 F ... ... ... : ... .. . ... ... ... : ... .. . ... : 4-# 00 D ... : ... .. . ... ... : ... .. 8 ... ... : ... .. 8 ... ... : ... .. C ... ...
ROW 93 : ... .. E ... ... ... : ... .. . ... ... ... : ... .. . ... : ... .. B ... : ... .. . ... ... : ... .. 7 ... ... : ... .. 7 ... ... : ... .. A ... ...
ROW 94 : ... .. D ... ... ... : A-4 00 A ... ... ... : ... .. . ... : ... .. . ... : ... .. . ... ... : ... .. 6 ... ... : ... .. 6 ... ... : ... .. 6 ... ...
ROW 95 : ... .. A ... ... ... : ... .. 8 ... ... ... : ... .. . ... : ... .. A ... : ... .. . ... ... : ... .. 4 ... ... : ... .. 4 ... ... : ... .. . ... ...
ROW 96 : ... .. . ... ... ... : ... .. . ... ... ... : ... .. . ... : ... .. 8 ... : ... .. . ... ... : ... .. . ... ... : ... .. . ... ... : ... .. 3 ... ...
ROW 97 : ... .. . ... ... ... : ... .. . ... ... ... : ... .. . ... : ... .. 7 ... : ... .. . ... ... : ... .. 2 ... ... : ... .. 2 ... ... : ... .. . ... ...
ROW 98 : A-4 00 F ... ... ... : ... .. A ... ... ... : D#5 00 . ... : B-# 00 D ... : ... .. . ... ... : A-2 01 8 ... ... : D-3 01 8 ... ... : E-3 01 C ... ...
ROW 99 : ... .. E ... ... ... : ... .. 8 ... ... ... : F-4 00 . ... : ... .. B ... : ... .. . ... ... : ... .. 7 ... ... : ... .. 7 ... ... : ... .. A ... ...
ROW 9A : ... .. D ... ... ... : ... .. . ... ... ... : A#3 00 . ... : ... .. . ... : ... .. . ... ... : ... .. 6 ... ... : ... .. 6 ... ... : ... .. 6 ... ...
ROW 9B : ... .. A ... ... ... : ... .. . ... ... ... : A-3 00 . ... : ... .. A ... : ... .. . ... ... : ... .. 4 ... ... : ... .. 4 ... ... : ... .. . ... ...
ROW 9C : ... .. . ... ... ... : E-4 00 A ... ... ... : E-3 00 . ... : ... .. 8 ... : ... .. . ... ... : ... .. . ... ... : ... .. . ... ... : ... .. 3 ... ...
ROW 9D : ... .. . ... ... ... : ... .. 8 ... ... ... : ... .. . ... : ... .. 7 ... : ... .. . ... ... : ... .. 2 ... ... : ... .. 2 ... ... : ... .. . ... ...
ROW 9E : B-4 00 F ... ... ... : ... .. . ... ... ... : ... .. . ... : ... .. 6 ... : ... .. . ... ... : ... .. 8 ... ... : ... .. 8 ... ... : ... .. C ... ...
ROW 9F : ... .. E ... ... ... : ... .. . ... ... ... : ... .. . ... : ... .. . ... : ... .. . ... ... : ... .. 7 ... ... : ... .. 7 ... ... : ... .. A ... ...
ROW A0 : ... .. D ... ... ... : D-4 00 A ... ... ... : ... .. . ... : ... .. 5 ... : ... .. . ... ... : ... .. 6 ... ... : ... .. 6 ... ... : ... .. 6 ... ...
ROW A1 : ... .. A ... ... ... : ... .. 8 ... ... ... : ... .. . ... : ... .. . ... : ... .. . ... ... : ... .. 5 ... ... : ... .. 5 ... ... : ... .. . ... ...
ROW A2 : ... .. . ... ... ... : ... .. . ... ... ... : ... .. . ... : ... .. 4 ... : ... .. . ... ... : ... .. . ... ... : ... .. . ... ... : ... .. . ... ...
ROW A3 : ... .. . ... ... ... : ... .. . ... ... ... : ... .. . ... : ... .. . ... : ... .. . ... ... : ... .. 4 ... ... : ... .. 4 ... ... : ... .. . ... ...
ROW A4 : F-5 00 F ... ... ... : A-3 00 A ... ... ... : D#4 00 . ... : 1-# 00 F ... : ... .. . ... ... : ... .. . ... ... : ... .. . ... ... : ... .. . ... ...
ROW A5 : ... .. E ... ... ... : ... .. 8 ... ... ... : F-3 00 . ... : ... .. C ... : ... .. . ... ... : ... .. . ... ... : ... .. . ... ... : ... .. 3 ... ...
ROW A6 : ... .. D ... ... ... : ... .. . ... ... ... : A#2 00 . ... : ... .. 6 ... : ... .. . ... ... : ... .. 2 ... ... : ... .. 2 ... ... : ... .. . ... ...
ROW A7 : ... .. A ... ... ... : ... .. . ... ... ... : A-2 00 . ... : ... .. 3 ... : ... .. . ... ... : ... .. . ... ... : ... .. . ... ... : ... .. 1 ... ...
ROW A8 : ... .. . ... ... ... : E-3 00 A ... ... ... : E-2 00 . ... : ... .. 2 ... : ... .. . ... ... : ... .. . ... ... : ... .. . ... ... : ... .. . ... ...
ROW A9 : ... .. . ... ... ... : ... .. 8 ... ... ... : ... .. . ... : ... .. 0 ... : ... .. . ... ... : ... .. . ... ... : ... .. . ... ... : ... .. . ... ...
ROW AA : E-5 00 F ... ... ... : ... .. . ... ... ... : D#4 00 . ... : ... .. F ... : ... .. . ... ... : ... .. 8 ... ... : ... .. 8 ... ... : ... .. C ... ...
ROW AB : ... .. E ... ... ... : ... .. . ... ... ... : F-3 00 . ... : ... .. C ... : ... .. . ... ... : ... .. 7 ... ... : ... .. 7 ... ... : ... .. A ... ...
ROW AC : ... .. D ... ... ... : D-3 00 A ... ... ... : A#2 00 . ... : ... .. 6 ... : ... .. . ... ... : ... .. 6 ... ... : ... .. 6 ... ... : ... .. 6 ... ...
ROW AD : ... .. A ... ... ... : ... .. 8 ... ... ... : A-2 00 . ... : ... .. 3 ... : ... .. . ... ... : ... .. 4 ... ... : ... .. 4 ... ... : ... .. . ... ...
ROW AE : ... .. . ... ... ... : ... .. . ... ... ... : E-2 00 . ... : ... .. 2 ... : ... .. . ... ... : ... .. . ... ... : ... .. . ... ... : ... .. 3 ... ...
ROW AF : ... .. . ... ... ... : ... .. . ... ... ... : ... .. . ... : ... .. 0 ... : ... .. . ... ... : ... .. 2 ... ... : ... .. 2 ... ... : ... .. . ... ...
ROW B0 : A-4 00 F ... ... ... : A-2 00 A ... ... ... : D#5 00 . ... : B-# 00 D ... : ... .. . ... ... : ... .. 8 ... ... : ... .. 8 ... ... : ... .. C ... ...
ROW B1 : ... .. E ... ... ... : ... .. 8 ... ... ... : F-4 00 . ... : ... .. B ... : ... .. . ... ... : ... .. 7 ... ... : ... .. 7 ... ... : ... .. A ... ...
ROW B2 : ... .. D ... ... ... : ... .. . ... ... ... : A#3 00 . ... : ... .. . ... : ... .. . ... ... : ... .. 6 ... ... : ... .. 6 ... ... : ... .. 6 ... ...
ROW B3 : ... .. A ... ... ... : ... .. . ... ... ... : A-3 00 . ... : ... .. A ... : ... .. . ... ... : ... .. 5 ... ... : ... .. 5 ... ... : ... .. . ... ...
ROW B4 : ... .. . ... ... ... : E-2 00 A ... ... ... : E-3 00 . ... : ... .. 8 ... : ... .. . ... ... : ... .. . ... ... : ... .. . ... ... : ... .. . ... ...
ROW B5 : ... .. . ... ... ... : ... .. 8 ... ... ... : ... .. . ... : ... .. 7 ... : ... .. . ... ... : ... .. 4 ... ... : ... .. 4 ... ... : ... .. . ... ...
ROW B6 : ... .. . ... ... ... : ... .. . ... ... ... : ... .. . ... : ... .. 6 ... : ... .. . ... ... : ... .. . ... ... : ... .. . ... ... : ... .. . ... ...
ROW B7 : A#4 00 A P82 ... ... : ... .. . ... ... ... : ... .. . ... : ... .. . ... : ... .. . ... ... : ... .. . ... ... : ... .. . ... ... : ... .. 3 ... ...
ROW B8 : B-4 00 A P80 ... ... : D-2 00 A ... ... ... : ... .. . ... : ... .. 5 ... : ... .. . ... ... : ... .. 2 ... ... : ... .. 2 ... ... : ... .. . ... ...
ROW B9 : ... .. . ... ... ... : ... .. 8 ... ... ... : ... .. . ... : ... .. . ... : ... .. . ... ... : ... .. . ... ... : ... .. . ... ... : ... .. 1 ... ...
ROW BA : ... .. . ... ... ... : ... .. . ... ... ... : ... .. . ... : ... .. 4 ... : ... .. . ... ... : ... .. . ... ... : ... .. . ... ... : ... .. . ... ...
ROW BB : ... .. . ... ... ... : ... .. . ... ... ... : ... .. . ... : ... .. . ... : ... .. . ... ... : ... .. . ... ... : ... .. . ... ... : ... .. . ... ...
ROW BC : E-4 00 F ... V01 ... : A#4 00 A ... ... ... : D#4 00 . ... : 1-# 00 F ... : ... .. . ... ... : A#2 01 8 ... ... : D#3 01 8 ... ... : F-3 01 C ... ...
ROW BD : ... .. E ... ... ... : ... .. 8 ... ... ... : F-3 00 . ... : ... .. C ... : ... .. . ... ... : ... .. 7 ... ... : ... .. 7 ... ... : ... .. A ... ...
ROW BE : ... .. D ... ... ... : ... .. . ... ... ... : A#2 00 . ... : ... .. 6 ... : ... .. . ... ... : ... .. 6 ... ... : ... .. 6 ... ... : ... .. 6 ... ...
ROW BF : ... .. A ... ... ... : ... .. . ... ... ... : A-2 00 . ... : ... .. 3 ... : ... .. . ... ... : ... .. 4 ... ... : ... .. 4 ... ... : ... .. . ... ...
ROW C0 : ... .. . ... ... ... : F-4 00 A ... ... ... : E-2 00 . ... : ... .. 2 ... : ... .. . ... ... : ... .. . ... ... : ... .. . ... ... : ... .. 3 ... ...
ROW C1 : ... .. . ... ... ... : ... .. 8 ... ... ... : ... .. . ... : ... .. 0 ... : ... .. . ... ... : ... .. 2 ... ... : ... .. 2 ... ... : ... .. . ... ...
ROW C2 : D-4 00 F ... V02 ... : ... .. . ... ... ... : D#4 00 . ... : ... .. F ... : ... .. . ... ... : ... .. 8 ... ... : ... .. 8 ... ... : ... .. C ... ...
ROW C3 : ... .. E ... ... ... : ... .. . ... ... ... : F-3 00 . ... : ... .. C ... : ... .. . ... ... : ... .. 7 ... ... : ... .. 7 ... ... : ... .. A ... ...
ROW C4 : ... .. D ... ... ... : D#4 00 A ... ... ... : A#2 00 . ... : ... .. 6 ... : ... .. . ... ... : ... .. 6 ... ... : ... .. 6 ... ... : ... .. 6 ... ...
ROW C5 : ... .. A ... ... ... : ... .. 8 ... ... ... : A-2 00 . ... : ... .. 3 ... : ... .. . ... ... : ... .. 5 ... ... : ... .. 5 ... ... : ... .. . ... ...
ROW C6 : ... .. . ... ... ... : ... .. . ... ... ... : E-2 00 . ... : ... .. 2 ... : ... .. . ... ... : ... .. . ... ... : ... .. . ... ... : ... .. . ... ...
ROW C7 : ... .. . ... ... ... : ... .. . ... ... ... : ... .. . ... : ... .. 0 ... : ... .. . ... ... : ... .. 4 ... ... : ... .. 4 ... ... : ... .. . ... ...
ROW C8 : C-4 00 F ... V01 ... : A#3 00 A ... ... ... : D#5 00 . ... : B-# 00 D ... : ... .. . ... ... : ... .. . ... ... : ... .. . ... ... : ... .. . ... ...
ROW C9 : ... .. E ... ... ... : ... .. 8 ... ... ... : F-4 00 . ... : ... .. B ... : ... .. . ... ... : ... .. . ... ... : ... .. . ... ... : ... .. 3 ... ...
ROW CA : ... .. D ... ... ... : ... .. . ... ... ... : A#3 00 . ... : ... .. . ... : ... .. . ... ... : ... .. 2 ... ... : ... .. 2 ... ... : ... .. . ... ...
ROW CB : ... .. A ... ... ... : ... .. . ... ... ... : A-3 00 . ... : ... .. A ... : ... .. . ... ... : ... .. . ... ... : ... .. . ... ... : ... .. 1 ... ...
ROW CC : ... .. 2 ... ... ... : F-3 00 A ... ... ... : E-3 00 . ... : ... .. 8 ... : ... .. . ... ... : ... .. . ... ... : ... .. . ... ... : ... .. . ... ...
ROW CD : ... .. . ... ... ... : ... .. 8 ... ... ... : ... .. . ... : ... .. 7 ... : ... .. . ... ... : ... .. . ... ... : ... .. . ... ... : ... .. . ... ...
ROW CE : G-3 00 F ... V03 ... : ... .. . ... ... ... : ... .. . ... : ... .. 6 ... : ... .. . ... ... : ... .. 8 ... ... : ... .. 8 ... ... : ... .. C ... ...
ROW CF : ... .. E ... ... ... : ... .. . ... ... ... : ... .. . ... : ... .. . ... : ... .. . ... ... : ... .. 7 ... ... : ... .. 7 ... ... : ... .. A ... ...
ROW D0 : ... .. D ... ... ... : D#3 00 A ... ... ... : ... .. . ... : ... .. 5 ... : ... .. . ... ... : ... .. 6 ... ... : ... .. 6 ... ... : ... .. 6 ... ...
ROW D1 : ... .. A ... ... ... : ... .. 8 ... ... ... : ... .. . ... : ... .. . ... : ... .. . ... ... : ... .. 4 ... ... : ... .. 4 ... ... : ... .. . ... ...
ROW D2 : ... .. . ... ... ... : ... .. . ... ... ... : ... .. . ... : ... .. 4 ... : ... .. . ... ... : ... .. . ... ... : ... .. . ... ... : ... .. 3 ... ...
ROW D3 : ... .. . ... ... ... : ... .. . ... ... ... : ... .. . ... : ... .. . ... : ... .. . ... ... : ... .. 2 ... ... : ... .. 2 ... ... : ... .. . ... ...
ROW D4 : D-3 00 F ... V00 ... : A#2 00 A ... ... ... : D#4 00 . ... : 1-# 00 F ... : ... .. . ... ... : ... .. 8 ... ... : ... .. 8 ... ... : ... .. C ... ...
ROW D5 : ... .. E ... ... ... : ... .. 8 ... ... ... : F-3 00 . ... : ... .. C ... : ... .. . ... ... : ... .. 7 ... ... : ... .. 7 ... ... : ... .. A ... ...
ROW D6 : ... .. D ... ... ... : ... .. . ... ... ... : A#2 00 . ... : ... .. 6 ... : ... .. . ... ... : ... .. 6 ... ... : ... .. 6 ... ... : ... .. 6 ... ...
ROW D7 : ... .. A ... ... ... : ... .. . ... ... ... : A-2 00 . ... : ... .. 3 ... : ... .. . ... ... : ... .. 5 ... ... : ... .. 5 ... ... : ... .. . ... ...
ROW D8 : ... .. . ... ... ... : F-2 00 A ... ... ... : E-2 00 . ... : ... .. 2 ... : ... .. . ... ... : ... .. . ... ... : ... .. . ... ... : ... .. . ... ...
ROW D9 : ... .. . ... ... ... : ... .. 8 ... ... ... : ... .. . ... : ... .. 0 ... : ... .. . ... ... : ... .. 4 ... ... : ... .. 4 ... ... : ... .. . ... ...
ROW DA : C-3 00 F ... ... ... : ... .. . ... ... ... : D#4 00 . ... : ... .. F ... : ... .. . ... ... : ... .. . ... ... : ... .. . ... ... : ... .. . ... ...
ROW DB : ... .. E ... ... ... : ... .. . ... ... ... : F-3 00 . ... : ... .. C ... : ... .. . ... ... : ... .. . ... ... : ... .. . ... ... : ... .. 3 ... ...
ROW DC : ... .. D ... ... ... : D#2 00 A ... ... ... : A#2 00 . ... : ... .. 6 ... : ... .. . ... ... : ... .. 2 ... ... : ... .. 2 ... ... : ... .. . ... ...
ROW DD : ... .. A ... ... ... : ... .. 8 ... ... ... : A-2 00 . ... : ... .. 3 ... : ... .. . ... ... : ... .. . ... ... : ... .. . ... ... : ... .. 1 ... ...
ROW DE : ... .. 2 ... ... ... : ... .. . ... ... ... : E-2 00 . ... : ... .. 2 ... : ... .. . ... ... : ... .. . ... ... : ... .. . ... ... : ... .. . ... ...
ROW DF : ... .. . ... ... ... : ... .. . ... ... ... : ... .. . ... : ... .. 0 ... : ... .. . ... ... : ... .. . ... ... : ... .. . ... ... : ... .. . ... ...
ROW E0 : A#2 00 F ... V01 ... : A#1 00 A ... ... ... : D#5 00 . ... : B-# 00 D ... : ... .. . ... ... : ... .. 8 ... ... : ... .. 8 ... ... : ... .. C ... ...
ROW E1 : ... .. E ... ... ... : ... .. 8 ... ... ... : F-4 00 . ... : ... .. B ... : ... .. . ... ... : ... .. 7 ... ... : ... .. 7 ... ... : ... .. A ... ...
ROW E2 : ... .. D ... ... ... : ... .. . ... ... ... : A#3 00 . ... : ... .. . ... : ... .. . ... ... : ... .. 6 ... ... : ... .. 6 ... ... : ... .. 6 ... ...
ROW E3 : ... .. A ... ... ... : ... .. . ... ... ... : A-3 00 . ... : ... .. A ... : ... .. . ... ... : ... .. 4 ... ... : ... .. 4 ... ... : ... .. . ... ...
ROW E4 : ... .. . ... ... ... : D#2 00 A ... ... ... : E-3 00 . ... : ... .. 8 ... : ... .. . ... ... : ... .. . ... ... : ... .. . ... ... : ... .. 3 ... ...
ROW E5 : ... .. . ... ... ... : ... .. 8 ... ... ... : ... .. . ... : ... .. 7 ... : ... .. . ... ... : ... .. 2 ... ... : ... .. 2 ... ... : ... .. . ... ...
ROW E6 : E-3 00 F ... V02 ... : ... .. . ... ... ... : ... .. . ... : ... .. 6 ... : ... .. . ... ... : ... .. 8 ... ... : ... .. 8 ... ... : ... .. C ... ...
ROW E7 : ... .. E ... ... ... : ... .. . ... ... ... : ... .. . ... : ... .. . ... : ... .. . ... ... : ... .. 7 ... ... : ... .. 7 ... ... : ... .. A ... ...
ROW E8 : ... .. D ... ... ... : F-2 00 A ... ... ... : ... .. . ... : ... .. 5 ... : ... .. . ... ... : ... .. 6 ... ... : ... .. 6 ... ... : ... .. 6 ... ...
ROW E9 : ... .. A ... ... ... : ... .. 8 ... ... ... : ... .. . ... : ... .. . ... : ... .. . ... ... : ... .. 4 ... ... : ... .. 4 ... ... : ... .. . ... ...
ROW EA : ... .. . ... ... ... : ... .. . ... ... ... : ... .. . ... : ... .. 4 ... : ... .. . ... ... : ... .. . ... ... : ... .. . ... ... : ... .. 3 ... ...
ROW EB : ... .. . ... ... ... : ... .. . ... ... ... : ... .. . ... : ... .. . ... : ... .. . ... ... : ... .. 2 ... ... : ... .. 2 ... ... : ... .. . ... ...
ROW EC : D-3 00 F ... V00 ... : A#2 00 A ... ... ... : D#4 00 . ... : 1-# 00 F ... : ... .. . ... ... : ... .. 8 ... ... : ... .. 8 ... ... : ... .. C ... ...
ROW ED : ... .. E ... ... ... : ... .. 8 ... ... ... : F-3 00 . ... : ... .. C ... : ... .. . ... ... : ... .. 7 ... ... : ... .. 7 ... ... : ... .. A ... ...
ROW EE : ... .. D ... ... ... : ... .. . ... ... ... : A#2 00 . ... : ... .. 6 ... : ... .. . ... ... : ... .. 6 ... ... : ... .. 6 ... ... : ... .. 6 ... ...
ROW EF : ... .. A ... ... ... : ... .. . ... ... ... : A-2 00 . ... : ... .. 3 ... : ... .. . ... ... : ... .. 4 ... ... : ... .. 4 ... ... : ... .. . ... ...
ROW F0 : ... .. 2 ... ... ... : D#3 00 A ... ... ... : E-2 00 . ... : ... .. 2 ... : ... .. . ... ... : ... .. . ... ... : ... .. . ... ... : ... .. 3 ... ...
ROW F1 : ... .. . ... ... ... : ... .. 8 ... ... ... : ... .. . ... : ... .. 0 ... : ... .. . ... ... : ... .. 2 ... ... : ... .. 2 ... ... : ... .. . ... ...
ROW F2 : G-3 00 F ... ... ... : ... .. . ... ... ... : D#4 00 . ... : ... .. F ... : ... .. . ... ... : ... .. 8 ... ... : ... .. 8 ... ... : ... .. C ... ...
ROW F3 : ... .. E ... ... ... : ... .. . ... ... ... : F-3 00 . ... : ... .. C ... : ... .. . ... ... : ... .. 7 ... ... : ... .. 7 ... ... : ... .. A ... ...
ROW F4 : ... .. D ... ... ... : A#3 00 A ... ... ... : A#2 00 . ... : ... .. 6 ... : ... .. . ... ... : ... .. 6 ... ... : ... .. 6 ... ... : ... .. 6 ... ...
ROW F5 : ... .. A ... ... ... : ... .. 8 ... ... ... : A-2 00 . ... : ... .. 3 ... : ... .. . ... ... : ... .. 4 ... ... : ... .. 4 ... ... : ... .. . ... ...
ROW F6 : ... .. . ... ... ... : ... .. . ... ... ... : E-2 00 . ... : ... .. 2 ... : ... .. . ... ... : ... .. . ... ... : ... .. . ... ... : ... .. 3 ... ...
ROW F7 : ... .. . ... ... ... : ... .. . ... ... ... : ... .. . ... : ... .. 0 ... : ... .. . ... ... : ... .. 2 ... ... : ... .. 2 ... ... : ... .. . ... ...
ROW F8 : C-4 00 F ... V03 ... : C-5 00 A ... ... ... : D#5 00 . ... : B-# 00 D ... : ... .. . ... ... : C-3 01 8 ... ... : F-3 01 8 ... ... : G-3 01 C ... ...
ROW F9 : ... .. E ... ... ... : ... .. 8 ... ... ... : F-4 00 . ... : ... .. B ... : ... .. . ... ... : ... .. 7 ... ... : ... .. 7 ... ... : ... .. A ... ...
ROW FA : ... .. D ... ... ... : ... .. . ... ... ... : A#3 00 . ... : ... .. . ... : ... .. . ... ... : ... .. 6 ... ... : ... .. 6 ... ... : ... .. 6 ... ...
ROW FB : ... .. A ... ... ... : ... .. . ... ... ... : A-3 00 . ... : ... .. A ... : ... .. . ... ... : ... .. 4 ... ... : ... .. 4 ... ... : ... .. . ... ...
ROW FC : ... .. 2 ... ... ... : G-4 00 A ... ... ... : E-3 00 . ... : ... .. 8 ... : ... .. . ... ... : ... .. . ... ... : ... .. . ... ... : ... .. 3 ... ...
ROW FD : ... .. . ... ... ... : ... .. 8 ... ... ... : ... .. . ... : ... .. 7 ... : ... .. . ... ... : ... .. 2 ... ... : ... .. 2 ... ... : ... .. . ... ...
ROW FE : A#3 00 F ... V01 ... : ... .. . ... ... ... : ... .. . ... : ... .. 6 ... : ... .. . ... ... : ... .. 8 ... ... : ... .. 8 ... ... : ... .. C ... ...
ROW FF : ... .. E ... ... ... : ... .. . ... ... ... : ... .. . ... : ... .. . ... : ... .. . ... ... : ... .. 7 ... ... : ... .. 7 ... ... : ... .. A ... ...

PATTERN 0E
ROW 00 : ... .. D ... ... ... : F-4 00 A ... ... ... : ... .. . ... : ... .. 5 ... : ... .. . ... ... : ... .. 6 ... ... : ... .. 6 ... ... : ... .. 6 ... ...
ROW 01 : ... .. A ... ... ... : ... .. 8 ... ... ... : ... .. . ... : ... .. . ... : ... .. . ... ... : ... .. 5 ... ... : ... .. 5 ... ... : ... .. . ... ...
ROW 02 : ... .. . ... ... ... : ... .. . ... ... ... : ... .. . ... : ... .. 4 ... : ... .. . ... ... : ... .. . ... ... : ... .. . ... ... : ... .. . ... ...
ROW 03 : ... .. . ... ... ... : ... .. . ... ... ... : ... .. . ... : ... .. . ... : ... .. . ... ... : ... .. 4 ... ... : ... .. 4 ... ... : ... .. . ... ...
ROW 04 : E-4 00 F ... V00 ... : C-4 00 A ... ... ... : D#4 00 . ... : 1-# 00 F ... : ... .. . ... ... : ... .. . ... ... : ... .. . ... ... : ... .. . ... ...
ROW 05 : ... .. E ... ... ... : ... .. 8 ... ... ... : F-3 00 . ... : ... .. C ... : ... .. . ... ... : ... .. . ... ... : ... .. . ... ... : ... .. 3 ... ...
ROW 06 : ... .. D ... ... ... : ... .. . ... ... ... : A#2 00 . ... : ... .. 6 ... : ... .. . ... ... : ... .. 2 ... ... : ... .. 2 ... ... : ... .. . ... ...
ROW 07 : ... .. A ... ... ... : ... .. . ... ... ... : A-2 00 . ... : ... .. 3 ... : ... .. . ... ... : ... .. . ... ... : ... .. . ... ... : ... .. 1 ... ...
ROW 08 : ... .. . ... ... ... : G-3 00 A ... ... ... : E-2 00 . ... : ... .. 2 ... : ... .. . ... ... : ... .. . ... ... : ... .. . ... ... : ... .. . ... ...
ROW 09 : ... .. . ... ... ... : ... .. 8 ... ... ... : ... .. . ... : ... .. 0 ... : ... .. . ... ... : ... .. . ... ... : ... .. . ... ... : ... .. . ... ...
ROW 0A : D-4 00 F ... ... ... : ... .. . ... ... ... : D#4 00 . ... : ... .. F ... : ... .. . ... ... : ... .. 8 ... ... : ... .. 8 ... ... : ... .. C ... ...
ROW 0B : ... .. E ... ... ... : ... .. . ... ... ... : F-3 00 . ... : ... .. C ... : ... .. . ... ... : ... .. 7 ... ... : ... .. 7 ... ... : ... .. A ... ...
ROW 0C : ... .. D ... ... ... : F-3 00 A ... ... ... : A#2 00 . ... : ... .. 6 ... : ... .. . ... ... : ... .. 6 ... ... : ... .. 6 ... ... : ... .. 6 ... ...
ROW 0D : ... .. A ... ... ... : ... .. 8 ... ... ... : A-2 00 . ... : ... .. 3 ... : ... .. . ... ... : ... .. 4 ... ... : ... .. 4 ... ... : ... .. . ... ...
ROW 0E : ... .. 2 ... ... ... : ... .. . ... ... ... : E-2 00 . ... : ... .. 2 ... : ... .. . ... ... : ... .. . ... ... : ... .. . ... ... : ... .. 3 ... ...
ROW 0F : ... .. . ... ... ... : ... .. . ... ... ... : ... .. . ... : ... .. 0 ... : ... .. . ... ... : ... .. 2 ... ... : ... .. 2 ... ... : ... .. . ... ...
ROW 10 : G-4 00 F ... V02 ... : C-3 00 A ... ... ... : D#5 00 . ... : B-# 00 D ... : ... .. . ... ... : ... .. 8 ... ... : ... .. 8 ... ... : ... .. C ... ...
ROW 11 : ... .. E ... ... ... : ... .. 8 ... ... ... : F-4 00 . ... : ... .. B ... : ... .. . ... ... : ... .. 7 ... ... : ... .. 7 ... ... : ... .. A ... ...
ROW 12 : ... .. D ... ... ... : ... .. . ... ... ... : A#3 00 . ... : ... .. . ... : ... .. . ... ... : ... .. 6 ... ... : ... .. 6 ... ... : ... .. 6 ... ...
ROW 13 : ... .. A ... ... ... : ... .. . ... ... ... : A-3 00 . ... : ... .. A ... : ... .. . ... ... : ... .. 5 ... ... : ... .. 5 ... ... : ... .. . ... ...
ROW 14 : ... .. . ... ... ... : G-2 00 A ... ... ... : E-3 00 . ... : ... .. 8 ... : ... .. . ... ... : ... .. . ... ... : ... .. . ... ... : ... .. . ... ...
ROW 15 : ... .. . ... ... ... : ... .. 8 ... ... ... : ... .. . ... : ... .. 7 ... : ... .. . ... ... : ... .. 4 ... ... : ... .. 4 ... ... : ... .. . ... ...
ROW 16 : A-4 00 F ... V00 ... : ... .. . ... ... ... : ... .. . ... : ... .. 6 ... : ... .. . ... ... : ... .. . ... ... : ... .. . ... ... : ... .. . ... ...
ROW 17 : ... .. E ... ... ... : ... .. . ... ... ... : ... .. . ... : ... .. . ... : ... .. . ... ... : ... .. . ... ... : ... .. . ... ... : ... .. 3 ... ...
ROW 18 : ... .. D ... ... ... : F-2 00 A ... ... ... : ... .. . ... : ... .. 5 ... : ... .. . ... ... : ... .. 2 ... ... : ... .. 2 ... ... : ... .. . ... ...
ROW 19 : ... .. A ... ... ... : ... .. 8 ... ... ... : ... .. . ... : ... .. . ... : ... .. . ... ... : ... .. . ... ... : ... .. . ... ... : ... .. 1 ... ...
ROW 1A : ... .. 2 ... ... ... : ... .. . ... ... ... : ... .. . ... : ... .. 4 ... : ... .. . ... ... : ... .. . ... ... : ... .. . ... ... : ... .. . ... ...
ROW 1B : ... .. . ... ... ... : ... .. . ... ... ... : ... .. . ... : ... .. . ... : ... .. . ... ... : ... .. . ... ... : ... .. . ... ... : ... .. . ... ...
ROW 1C : B-4 00 F ... V01 ... : D-5 00 A ... ... ... : D#4 00 . ... : 1-# 00 F ... : ... .. . ... ... : D-3 01 8 ... ... : G-3 01 8 ... ... : A-3 01 C ... ...
ROW 1D : ... .. E ... ... ... : ... .. 8 ... ... ... : F-3 00 . ... : ... .. C ... : ... .. . ... ... : ... .. 7 ... ... : ... .. 7 ... ... : ... .. A ... ...
ROW 1E : ... .. D ... ... ... : ... .. . ... ... ... : A#2 00 . ... : ... .. 6 ... : ... .. . ... ... : ... .. 6 ... ... : ... .. 6 ... ... : ... .. 6 ... ...
ROW 1F : ... .. A ... ... ... : ... .. . ... ... ... : A-2 00 . ... : ... .. 3 ... : ... .. . ... ... : ... .. 4 ... ... : ... .. 4 ... ... : ... .. . ... ...
ROW 20 : ... .. . ... ... ... : A-4 00 A ... ... ... : E-2 00 . ... : ... .. 2 ... : ... .. . ... ... : ... .. . ... ... : ... .. . ... ... : ... .. 3 ... ...
ROW 21 : ... .. . ... ... ... : ... .. 8 ... ... ... : ... .. . ... : ... .. 0 ... : ... .. . ... ... : ... .. 2 ... ... : ... .. 2 ... ... : ... .. . ... ...
ROW 22 : E-4 00 F ... ... ... : ... .. . ... ... ... : D#4 00 . ... : ... .. F ... : ... .. . ... ... : ... .. 8 ... ... : ... .. 8 ... ... : ... .. C ... ...
ROW 23 : ... .. E ... ... ... : ... .. . ... ... ... : F-3 00 . ... : ... .. C ... : ... .. . ... ... : ... .. 7 ... ... : ... .. 7 ... ... : ... .. A ... ...
ROW 24 : ... .. D ... ... ... : G-4 00 A ... ... ... : A#2 00 . ... : ... .. 6 ... : ... .. . ... ... : ... .. 6 ... ... : ... .. 6 ... ... : ... .. 6 ... ...
ROW 25 : ... .. A ... ... ... : ... .. 8 ... ... ... : A-2 00 . ... : ... .. 3 ... : ... .. . ... ... : ... .. 5 ... ... : ... .. 5 ... ... : ... .. . ... ...
ROW 26 : ... .. 2 ... ... ... : ... .. . ... ... ... : E-2 00 . ... : ... .. 2 ... : ... .. . ... ... : ... .. . ... ... : ... .. . ... ... : ... .. . ... ...
ROW 27 : ... .. . ... ... ... : ... .. . ... ... ... : ... .. . ... : ... .. 0 ... : ... .. . ... ... : ... .. 4 ... ... : ... .. 4 ... ... : ... .. . ... ...
ROW 28 : A-3 00 F ... V00 ... : D-4 00 A ... ... ... : D#5 00 . ... : B-# 00 D ... : ... .. . ... ... : ... .. . ... ... : ... .. . ... ... : ... .. . ... ...
ROW 29 : ... .. E ... ... ... : ... .. 8 ... ... ... : F-4 00 . ... : ... .. B ... : ... .. . ... ... : ... .. . ... ... : ... .. . ... ... : ... .. 3 ... ...
ROW 2A : ... .. D ... ... ... : ... .. . ... ... ... : A#3 00 . ... : ... .. . ... : ... .. . ... ... : ... .. 2 ... ... : ... .. 2 ... ... : ... .. . ... ...
ROW 2B : ... .. A ... ... ... : ... .. . ... ... ... : A-3 00 . ... : ... .. A ... : ... .. . ... ... : ... .. . ... ... : ... .. . ... ... : ... .. 1 ... ...
ROW 2C : ... .. . ... ... ... : A-3 00 A ... ... ... : E-3 00 . ... : ... .. 8 ... : ... .. . ... ... : ... .. . ... ... : ... .. . ... ... : ... .. . ... ...
ROW 2D : ... .. . ... ... ... : ... .. 8 ... ... ... : ... .. . ... : ... .. 7 ... : ... .. . ... ... : ... .. . ... ... : ... .. . ... ... : ... .. . ... ...
ROW 2E : C-5 00 F ... V03 ... : ... .. . ... ... ... : ... .. . ... : ... .. D ... : ... .. . ... ... : ... .. 8 ... ... : ... .. 8 ... ... : ... .. C ... ...
ROW 2F : ... .. E ... ... ... : ... .. . ... ... ... : ... .. . ... : ... .. B ... : ... .. . ... ... : ... .. 7 ... ... : ... .. 7 ... ... : ... .. A ... ...
ROW 30 : ... .. D ... ... ... : G-3 00 A ... ... ... : ... .. . ... : ... .. . ... : ... .. . ... ... : ... .. 6 ... ... : ... .. 6 ... ... : ... .. 6 ... ...
ROW 31 : ... .. A ... ... ... : ... .. 8 ... ... ... : ... .. . ... : ... .. A ... : ... .. . ... ... : ... .. 4 ... ... : ... .. 4 ... ... : ... .. . ... ...
ROW 32 : ... .. . ... ... ... : ... .. . ... ... ... : ... .. . ... : ... .. 8 ... : ... .. . ... ... : ... .. . ... ... : ... .. . ... ... : ... .. 3 ... ...
ROW 33 : ... .. . ... ... ... : ... .. . ... ... ... : ... .. . ... : ... .. 7 ... : ... .. . ... ... : ... .. 2 ... ... : ... .. 2 ... ... : ... .. . ... ...
ROW 34 : G-4 00 F ... V01 ... : D-3 00 A ... ... ... : D#4 00 . ... : 1-# 00 F ... : ... .. . ... ... : ... .. 8 ... ... : ... .. 8 ... ... : ... .. C ... ...
ROW 35 : ... .. E ... ... ... : ... .. 8 ... ... ... : F-3 00 . ... : ... .. C ... : ... .. . ... ... : ... .. 7 ... ... : ... .. 7 ... ... : ... .. A ... ...
ROW 36 : ... .. D ... ... ... : ... .. . ... ... ... : A#2 00 . ... : ... .. 6 ... : ... .. . ... ... : ... .. 6 ... ... : ... .. 6 ... ... : ... .. 6 ... ...
ROW 37 : ... .. A ... ... ... : ... .. . ... ... ... : A-2 00 . ... : ... .. 3 ... : ... .. . ... ... : ... .. 5 ... ... : ... .. 5 ... ... : ... .. . ... ...
ROW 38 : ... .. 2 ... ... ... : A-2 00 A ... ... ... : E-2 00 . ... : ... .. 2 ... : ... .. . ... ... : ... .. . ... ... : ... .. . ... ... : ... .. . ... ...
ROW 39 : ... .. . ... ... ... : ... .. 8 ... ... ... : ... .. . ... : ... .. 0 ... : ... .. . ... ... : ... .. 4 ... ... : ... .. 4 ... ... : ... .. . ... ...
ROW 3A : A-4 00 F ... V03 ... : ... .. . ... ... ... : D#4 00 . ... : ... .. F ... : ... .. . ... ... : ... .. . ... ... : ... .. . ... ... : ... .. . ... ...
ROW 3B : ... .. E ... ... ... : ... .. . ... ... ... : F-3 00 . ... : ... .. C ... : ... .. . ... ... : ... .. . ... ... : ... .. . ... ... : ... .. 3 ... ...
ROW 3C : ... .. D ... ... ... : G-2 00 A ... ... ... : A#2 00 . ... : ... .. 6 ... : ... .. . ... ... : ... .. 2 ... ... : ... .. 2 ... ... : ... .. . ... ...
ROW 3D : ... .. A ... ... ... : ... .. 8 ... ... ... : A-2 00 . ... : ... .. 3 ... : ... .. . ... ... : ... .. . ... ... : ... .. . ... ... : ... .. 1 ... ...
ROW 3E : ... .. . ... ... ... : ... .. . ... ... ... : E-2 00 . ... : ... .. 2 ... : ... .. . ... ... : ... .. . ... ... : ... .. . ... ... : ... .. . ... ...
ROW 3F : ... .. . ... ... ... : ... .. . ... ... ... : ... .. . ... : ... .. 0 ... : ... .. . ... ... : ... .. . ... ... : ... .. . ... ... : ... .. . ... ...
ROW 40 : B-4 00 F ... V01 ... : D-2 00 A ... ... ... : C#5 00 . ... : 9-# 00 D ... : ... .. . ... ... : ... .. 8 ... ... : ... .. 8 ... ... : ... .. C ... ...
ROW 41 : ... .. E ... ... ... : ... .. 8 ... ... ... : D#4 00 . ... : ... .. B ... : ... .. . ... ... : ... .. 7 ... ... : ... .. 7 ... ... : ... .. A ... ...
ROW 42 : ... .. D ... ... ... : ... .. . ... ... ... : G#3 00 . ... : ... .. . ... : ... .. . ... ... : ... .. 6 ... ... : ... .. 6 ... ... : ... .. 6 ... ...
ROW 43 : ... .. A ... ... ... : ... .. . ... ... ... : G-3 00 . ... : ... .. A ... : ... .. . ... ... : ... .. 4 ... ... : ... .. 4 ... ... : ... .. . ... ...
ROW 44 : ... .. . ... ... ... : G-2 00 A ... ... ... : D-3 00 . ... : ... .. 8 ... : ... .. . ... ... : ... .. . ... ... : ... .. . ... ... : ... .. 3 ... ...
ROW 45 : ... .. . ... ... ... : ... .. 8 ... ... ... : ... .. . ... : ... .. 7 ... : ... .. . ... ... : ... .. 2 ... ... : ... .. 2 ... ... : ... .. . ... ...
ROW 46 : C-5 00 F ... V00 ... : ... .. . ... ... ... : D#5 00 . ... : ... .. D ... : ... .. . ... ... : ... .. 8 ... ... : ... .. 8 ... ... : ... .. C ... ...
ROW 47 : ... .. E ... ... ... : ... .. . ... ... ... : F-4 00 . ... : ... .. B ... : ... .. . ... ... : ... .. 7 ... ... : ... .. 7 ... ... : ... .. A ... ...
ROW 48 : ... .. D ... ... ... : A-2 00 A ... ... ... : A#3 00 . ... : ... .. . ... : ... .. . ... ... : ... .. 6 ... ... : ... .. 6 ... ... : ... .. 6 ... ...
ROW 49 : ... .. A ... ... ... : ... .. 8 ... ... ... : A-3 00 . ... : ... .. A ... : ... .. . ... ... : ... .. 4 ... ... : ... .. 4 ... ... : ... .. . ... ...
ROW 4A : ... .. . ... ... ... : ... .. . ... ... ... : E-3 00 . ... : ... .. 8 ... : ... .. . ... ... : ... .. . ... ... : ... .. . ... ... : ... .. 3 ... ...
ROW 4B : ... .. . ... ... ... : ... .. . ... ... ... : ... .. . ... : ... .. 7 ... : ... .. . ... ... : ... .. 2 ... ... : ... .. 2 ... ... : ... .. . ... ...
ROW 4C : D-5 00 F ... V02 ... : D-3 00 A ... ... ... : E-5 00 . ... : 1-# 00 F ... : ... .. . ... ... : ... .. 8 ... ... : ... .. 8 ... ... : ... .. C ... ...
ROW 4D : ... .. E ... ... ... : ... .. 8 ... ... ... : F#4 00 . ... : ... .. C ... : ... .. . ... ... : ... .. 7 ... ... : ... .. 7 ... ... : ... .. A ... ...
ROW 4E : ... .. D ... ... ... : ... .. . ... ... ... : B-3 00 . ... : ... .. 6 ... : ... .. . ... ... : ... .. 6 ... ... : ... .. 6 ... ... : ... .. 6 ... ...
ROW 4F : ... .. A ... ... ... : ... .. . ... ... ... : A#3 00 . ... : ... .. 3 ... : ... .. . ... ... : ... .. 4 ... ... : ... .. 4 ... ... : ... .. . ... ...
ROW 50 : ... .. 2 ... ... ... : G-3 00 A ... ... ... : F-3 00 . ... : ... .. 2 ... : ... .. . ... ... : ... .. . ... ... : ... .. . ... ... : ... .. 3 ... ...
ROW 51 : ... .. . ... ... ... : ... .. 8 ... ... ... : ... .. . ... : ... .. 0 ... : ... .. . ... ... : ... .. 2 ... ... : ... .. 2 ... ... : ... .. . ... ...
ROW 52 : E-5 00 F ... V03 ... : ... .. . ... ... ... : F#5 00 . ... : ... .. F ... : ... .. . ... ... : ... .. 8 ... ... : ... .. 8 ... ... : ... .. C ... ...
ROW 53 : ... .. E ... ... ... : ... .. . ... ... ... : G#4 00 . ... : ... .. C ... : ... .. . ... ... : ... .. 7 ... ... : ... .. 7 ... ... : ... .. A ... ...
ROW 54 : ... .. D ... ... ... : D-4 00 A ... ... ... : C#4 00 . ... : ... .. 6 ... : ... .. . ... ... : ... .. 6 ... ... : ... .. 6 ... ... : ... .. 6 ... ...
ROW 55 : ... .. A ... ... ... : ... .. 8 ... ... ... : C-4 00 . ... : ... .. 3 ... : ... .. . ... ... : ... .. 4 ... ... : ... .. 4 ... ... : ... .. . ... ...
ROW 56 : ... .. 2 ... ... ... : ... .. . ... ... ... : G-3 00 . ... : ... .. 2 ... : ... .. . ... ... : ... .. . ... ... : ... .. . ... ... : ... .. 3 ... ...
ROW 57 : ... .. . ... ... ... : ... .. . ... ... ... : ... .. . ... : ... .. 0 ... : ... .. . ... ... : ... .. 2 ... ... : ... .. 2 ... ... : ... .. . ... ...
ROW 58 : ... .. F ... ... ... : B-5 00 A ... ... ... : D#5 00 . ... : B-# 00 D ... : ... .. . ... ... : E-3 01 8 ... ... : A-3 01 8 ... ... : B-3 01 C ... ...
ROW 59 : ... .. E ... ... ... : ... .. 8 ... ... ... : F-4 00 . ... : ... .. B ... : ... .. . ... ... : ... .. 7 ... ... : ... .. 7 ... ... : ... .. A ... ...
ROW 5A : ... .. D ... ... ... : ... .. . ... ... ... : A#3 00 . ... : ... .. . ... : ... .. . ... ... : ... .. 6 ... ... : ... .. 6 ... ... : ... .. 6 ... ...
ROW 5B : ... .. A ... ... ... : ... .. . ... ... ... : A-3 00 . ... : ... .. A ... : ... .. . ... ... : ... .. 4 ... ... : ... .. 4 ... ... : ... .. . ... ...
ROW 5C : ... .. . ... ... ... : F-5 00 A ... ... ... : E-3 00 . ... : ... .. 8 ... : ... .. . ... ... : ... .. . ... ... : ... .. . ... ... : ... .. 3 ... ...
ROW 5D : ... .. . ... ... ... : ... .. 8 ... ... ... : ... .. . ... : ... .. 7 ... : ... .. . ... ... : ... .. 2 ... ... : ... .. 2 ... ... : ... .. . ... ...
ROW 5E : ... .. . ... ... ... : ... .. . ... ... ... : ... .. . ... : ... .. 6 ... : ... .. . ... ... : ... .. 8 ... ... : ... .. 8 ... ... : ... .. C ... ...
ROW 5F : F-5 00 A P7E ... ... : ... .. . ... ... ... : ... .. . ... : ... .. . ... : ... .. . ... ... : ... .. 7 ... ... : ... .. 7 ... ... : ... .. A ... ...
ROW 60 : ... .. . P80 ... ... : E-5 00 A ... ... ... : ... .. . ... : ... .. 5 ... : ... .. . ... ... : ... .. 6 ... ... : ... .. 6 ... ... : ... .. 6 ... ...
ROW 61 : ... .. . ... ... ... : ... .. 8 ... ... ... : ... .. . ... : ... .. . ... : ... .. . ... ... : ... .. 5 ... ... : ... .. 5 ... ... : ... .. . ... ...
ROW 62 : ... .. . ... ... ... : ... .. . ... ... ... : ... .. . ... : ... .. 4 ... : ... .. . ... ... : ... .. . ... ... : ... .. . ... ... : ... .. . ... ...
ROW 63 : ... .. . ... ... ... : ... .. . ... ... ... : ... .. . ... : ... .. . ... : ... .. . ... ... : ... .. 4 ... ... : ... .. 4 ... ... : ... .. . ... ...
ROW 64 : ... .. . ... ... ... : B-4 00 A ... ... ... : D#4 00 . ... : 1-# 00 F ... : ... .. . ... ... : ... .. . ... ... : ... .. . ... ... : ... .. . ... ...
ROW 65 : ... .. . ... ... ... : ... .. 8 ... ... ... : F-3 00 . ... : ... .. C ... : ... .. . ... ... : ... .. . ... ... : ... .. . ... ... : ... .. 3 ... ...
ROW 66 : ... .. . ... ... ... : ... .. . ... ... ... : A#2 00 . ... : ... .. 6 ... : ... .. . ... ... : ... .. 2 ... ... : ... .. 2 ... ... : ... .. . ... ...
ROW 67 : ... .. . ... ... ... : ... .. . ... ... ... : A-2 00 . ... : ... .. 3 ... : ... .. . ... ... : ... .. . ... ... : ... .. . ... ... : ... .. 1 ... ...
ROW 68 : ... .. . ... ... ... : F-4 00 A ... ... ... : E-2 00 . ... : ... .. 2 ... : ... .. . ... ... : ... .. . ... ... : ... .. . ... ... : ... .. . ... ...
ROW 69 : ... .. . ... ... ... : ... .. 8 ... ... ... : ... .. . ... : ... .. 0 ... : ... .. . ... ... : ... .. . ... ... : ... .. . ... ... : ... .. . ... ...
ROW 6A : ... .. 5 ... ... ... : ... .. . ... ... ... : D#4 00 . ... : ... .. F ... : ... .. . ... ... : ... .. 8 ... ... : ... .. 8 ... ... : ... .. C ... ...
ROW 6B : ... .. . ... ... ... : ... .. . ... ... ... : F-3 00 . ... : ... .. C ... : ... .. . ... ... : ... .. 7 ... ... : ... .. 7 ... ... : ... .. A ... ...
ROW 6C : ... .. . ... ... ... : E-4 00 A ... ... ... : A#2 00 . ... : ... .. 6 ... : ... .. . ... ... : ... .. 6 ... ... : ... .. 6 ... ... : ... .. 6 ... ...
ROW 6D : E-5 00 F ... ... ... : ... .. 8 ... ... ... : A-2 00 . ... : ... .. 3 ... : ... .. . ... ... : ... .. 4 ... ... : ... .. 4 ... ... : ... .. . ... ...
ROW 6E : ... .. E ... ... ... : ... .. . ... ... ... : E-2 00 . ... : ... .. 2 ... : ... .. . ... ... : ... .. . ... ... : ... .. . ... ... : ... .. 3 ... ...
ROW 6F : ... .. D ... ... ... : ... .. . ... ... ... : ... .. . ... : ... .. 0 ... : ... .. . ... ... : ... .. 2 ... ... : ... .. 2 ... ... : ... .. . ... ...
ROW 70 : ... .. A ... ... ... : B-3 00 A ... ... ... : D#5 00 . ... : B-# 00 D ... : ... .. . ... ... : ... .. 8 ... ... : ... .. 8 ... ... : ... .. C ... ...
ROW 71 : ... .. . ... ... ... : ... .. 8 ... ... ... : F-4 00 . ... : ... .. B ... : ... .. . ... ... : ... .. 7 ... ... : ... .. 7 ... ... : ... .. A ... ...
ROW 72 : ... .. . ... ... ... : ... .. . ... ... ... : A#3 00 . ... : ... .. . ... : ... .. . ... ... : ... .. 6 ... ... : ... .. 6 ... ... : ... .. 6 ... ...
ROW 73 : ... .. . ... ... ... : ... .. . ... ... ... : A-3 00 . ... : ... .. A ... : ... .. . ... ... : ... .. 5 ... ... : ... .. 5 ... ... : ... .. . ... ...
ROW 74 : ... .. . ... ... ... : F-3 00 A ... ... ... : E-3 00 . ... : ... .. 8 ... : ... .. . ... ... : ... .. . ... ... : ... .. . ... ... : ... .. . ... ...
ROW 75 : ... .. . ... ... ... : ... .. 8 ... ... ... : ... .. . ... : ... .. 7 ... : ... .. . ... ... : ... .. 4 ... ... : ... .. 4 ... ... : ... .. . ... ...
ROW 76 : ... .. . ... ... ... : ... .. . ... ... ... : ... .. . ... : ... .. 6 ... : ... .. . ... ... : ... .. . ... ... : ... .. . ... ... : ... .. . ... ...
ROW 77 : F-5 00 A P7E ... ... : ... .. . ... ... ... : ... .. . ... : ... .. . ... : ... .. . ... ... : ... .. . ... ... : ... .. . ... ... : ... .. 3 ... ...
ROW 78 : ... .. . P80 ... ... : E-3 00 A ... ... ... : ... .. . ... : ... .. 5 ... : ... .. . ... ... : ... .. 2 ... ... : ... .. 2 ... ... : ... .. . ... ...
ROW 79 : ... .. . ... ... ... : ... .. 8 ... ... ... : ... .. . ... : ... .. . ... : ... .. . ... ... : ... .. . ... ... : ... .. . ... ... : ... .. 1 ... ...
ROW 7A : ... .. . ... ... ... : ... .. . ... ... ... : ... .. . ... : ... .. 4 ... : ... .. . ... ... : ... .. . ... ... : ... .. . ... ... : ... .. . ... ...
ROW 7B : ... .. . ... ... ... : ... .. . ... ... ... : ... .. . ... : ... .. . ... : ... .. . ... ... : ... .. . ... ... : ... .. . ... ... : ... .. . ... ...
ROW 7C : ... .. 5 ... ... ... : C-6 00 A ... ... ... : D#4 00 . ... : 1-# 00 F ... : ... .. . ... ... : F-3 01 8 ... ... : A#3 01 8 ... ... : C-4 01 C ... ...
ROW 7D : ... .. . ... ... ... : ... .. 8 ... ... ... : F-3 00 . ... : ... .. C ... : ... .. . ... ... : ... .. 7 ... ... : ... .. 7 ... ... : ... .. A ... ...
ROW 7E : ... .. . ... ... ... : ... .. . ... ... ... : A#2 00 . ... : ... .. 6 ... : ... .. . ... ... : ... .. 6 ... ... : ... .. 6 ... ... : ... .. 6 ... ...
ROW 7F : ... .. A ... ... ... : ... .. . ... ... ... : A-2 00 . ... : ... .. 3 ... : ... .. . ... ... : ... .. 4 ... ... : ... .. 4 ... ... : ... .. . ... ...
ROW 80 : E-5 00 A P82 ... ... : G-5 00 A ... ... ... : E-2 00 . ... : ... .. 2 ... : ... .. . ... ... : ... .. . ... ... : ... .. . ... ... : ... .. 3 ... ...
ROW 81 : ... .. . P80 ... ... : ... .. 8 ... ... ... : ... .. . ... : ... .. 0 ... : ... .. . ... ... : ... .. 2 ... ... : ... .. 2 ... ... : ... .. . ... ...
ROW 82 : ... .. . ... ... ... : ... .. . ... ... ... : D#4 00 . ... : ... .. F ... : ... .. . ... ... : ... .. 8 ... ... : ... .. 8 ... ... : ... .. C ... ...
ROW 83 : ... .. . ... ... ... : ... .. . ... ... ... : F-3 00 . ... : ... .. C ... : ... .. . ... ... : ... .. 7 ... ... : ... .. 7 ... ... : ... .. A ... ...
ROW 84 : ... .. . ... ... ... : F-5 00 A ... ... ... : A#2 00 . ... : ... .. 6 ... : ... .. . ... ... : ... .. 6 ... ... : ... .. 6 ... ... : ... .. 6 ... ...
ROW 85 : ... .. . ... ... ... : ... .. 8 ... ... ... : A-2 00 . ... : ... .. 3 ... : ... .. . ... ... : ... .. 5 ... ... : ... .. 5 ... ... : ... .. . ... ...
ROW 86 : ... .. . ... ... ... : ... .. . ... ... ... : E-2 00 . ... : ... .. 2 ... : ... .. . ... ... : ... .. . ... ... : ... .. . ... ... : ... .. . ... ...
ROW 87 : ... .. . ... ... ... : ... .. . ... ... ... : ... .. . ... : ... .. 0 ... : ... .. . ... ... : ... .. 4 ... ... : ... .. 4 ... ... : ... .. . ... ...
ROW 88 : ... .. . ... ... ... : C-5 00 A ... ... ... : D#5 00 . ... : B-# 00 D ... : ... .. . ... ... : ... .. . ... ... : ... .. . ... ... : ... .. . ... ...
ROW 89 : ... .. . ... ... ... : ... .. 8 ... ... ... : F-4 00 . ... : ... .. B ... : ... .. . ... ... : ... .. . ... ... : ... .. . ... ... : ... .. 3 ... ...
ROW 8A : ... .. . ... ... ... : ... .. . ... ... ... : A#3 00 . ... : ... .. . ... : ... .. . ... ... : ... .. 2 ... ... : ... .. 2 ... ... : ... .. . ... ...
ROW 8B : ... .. . ... ... ... : ... .. . ... ... ... : A-3 00 . ... : ... .. A ... : ... .. . ... ... : ... .. . ... ... : ... .. . ... ... : ... .. 1 ... ...
ROW 8C : ... .. . ... ... ... : G-4 00 A ... ... ... : E-3 00 . ... : ... .. 8 ... : ... .. . ... ... : ... .. . ... ... : ... .. . ... ... : ... .. . ... ...
ROW 8D : ... .. . ... ... ... : ... .. 8 ... ... ... : ... .. . ... : ... .. 7 ... : ... .. . ... ... : ... .. . ... ... : ... .. . ... ... : ... .. . ... ...
ROW 8E : ... .. . ... ... ... : ... .. . ... ... ... : ... .. . ... : ... .. 6 ... : ... .. . ... ... : ... .. 8 ... ... : ... .. 8 ... ... : ... .. C ... ...
ROW 8F : ... .. . ... ... ... : ... .. . ... ... ... : ... .. . ... : ... .. . ... : ... .. . ... ... : ... .. 7 ... ... : ... .. 7 ... ... : ... .. A ... ...
ROW 90 : ... .. . ... ... ... : F-4 00 A ... ... ... : ... .. . ... : ... .. 5 ... : ... .. . ... ... : ... .. 6 ... ... : ... .. 6 ... ... : ... .. 6 ... ...
ROW 91 : ... .. . ... ... ... : ... .. 8 ... ... ... : ... .. . ... : ... .. . ... : ... .. . ... ... : ... .. 4 ... ... : ... .. 4 ... ... : ... .. . ... ...
ROW 92 : ... .. . ... ... ... : ... .. . ... ... ... : ... .. . ... : ... .. 4 ... : ... .. . ... ... : ... .. . ... ... : ... .. . ... ... : ... .. 3 ... ...
ROW 93 : ... .. . ... ... ... : ... .. . ... ... ... : ... .. . ... : ... .. . ... : ... .. . ... ... : ... .. 2 ... ... : ... .. 2 ... ... : ... .. . ... ...
ROW 94 : ... .. . ... ... ... : C-4 00 A ... ... ... : D#4 00 . ... : 1-# 00 F ... : ... .. . ... ... : ... .. 8 ... ... : ... .. 8 ... ... : ... .. C ... ...
ROW 95 : ... .. . ... ... ... : ... .. 8 ... ... ... : F-3 00 . ... : ... .. C ... : ... .. . ... ... : ... .. 7 ... ... : ... .. 7 ... ... : ... .. A ... ...
ROW 96 : ... .. . ... ... ... : ... .. . ... ... ... : A#2 00 . ... : ... .. 6 ... : ... .. . ... ... : ... .. 6 ... ... : ... .. 6 ... ... : ... .. 6 ... ...
ROW 97 : ... .. . ... ... ... : ... .. . ... ... ... : A-2 00 . ... : ... .. 3 ... : ... .. . ... ... : ... .. 5 ... ... : ... .. 5 ... ... : ... .. . ... ...
ROW 98 : ... .. . ... ... ... : G-3 00 A ... ... ... : E-2 00 . ... : ... .. 2 ... : ... .. . ... ... : ... .. . ... ... : ... .. . ... ... : ... .. . ... ...
ROW 99 : ... .. . ... ... ... : ... .. 8 ... ... ... : ... .. . ... : ... .. 0 ... : ... .. . ... ... : ... .. 4 ... ... : ... .. 4 ... ... : ... .. . ... ...
ROW 9A : ... .. . ... ... ... : ... .. . ... ... ... : D#4 00 . ... : ... .. F ... : ... .. . ... ... : ... .. . ... ... : ... .. . ... ... : ... .. . ... ...
ROW 9B : ... .. . ... ... ... : ... .. . ... ... ... : F-3 00 . ... : ... .. C ... : ... .. . ... ... : ... .. . ... ... : ... .. . ... ... : ... .. 3 ... ...
ROW 9C : ... .. . ... ... ... : F-3 00 A ... ... ... : A#2 00 . ... : ... .. 6 ... : ... .. . ... ... : ... .. 2 ... ... : ... .. 2 ... ... : ... .. . ... ...
ROW 9D : ... .. . P82 ... ... : ... .. 8 ... ... ... : A-2 00 . ... : ... .. 3 ... : ... .. . ... ... : ... .. . ... ... : ... .. . ... ... : ... .. 1 ... ...
ROW 9E : F-5 00 A P7E ... ... : ... .. . ... ... ... : E-2 00 . ... : ... .. 2 ... : ... .. . ... ... : ... .. . ... ... : ... .. . ... ... : ... .. . ... ...
ROW 9F : ... .. . ... ... ... : ... .. . ... ... ... : ... .. . ... : ... .. 0 ... : ... .. . ... ... : ... .. . ... ... : ... .. . ... ... : ... .. . ... ...
ROW A0 : E-5 00 A P81 ... ... : C-3 00 A ... ... ... : D#5 00 . ... : B-# 00 D ... : ... .. . ... ... : ... .. 8 ... ... : ... .. 8 ... ... : ... .. C ... ...
ROW A1 : ... .. . P7F ... ... : ... .. 8 ... ... ... : F-4 00 . ... : ... .. B ... : ... .. . ... ... : ... .. 7 ... ... : ... .. 7 ... ... : ... .. A ... ...
ROW A2 : D#5 00 A P82 ... ... : ... .. . ... ... ... : A#3 00 . ... : ... .. . ... : ... .. . ... ... : ... .. 6 ... ... : ... .. 6 ... ... : ... .. 6 ... ...
ROW A3 : ... .. . ... ... ... : ... .. . ... ... ... : A-3 00 . ... : ... .. A ... : ... .. . ... ... : ... .. 4 ... ... : ... .. 4 ... ... : ... .. . ... ...
ROW A4 : E-5 00 A P7E ... ... : F-3 00 A ... ... ... : E-3 00 . ... : ... .. 8 ... : ... .. . ... ... : ... .. . ... ... : ... .. . ... ... : ... .. 3 ... ...
ROW A5 : ... .. . P80 ... ... : ... .. 8 ... ... ... : ... .. . ... : ... .. 7 ... : ... .. . ... ... : ... .. 2 ... ... : ... .. 2 ... ... : ... .. . ... ...
ROW A6 : ... .. . P82 ... ... : ... .. . ... ... ... : ... .. . ... : ... .. 6 ... : ... .. . ... ... : ... .. 8 ... ... : ... .. 8 ... ... : ... .. C ... ...
ROW A7 : F-5 00 A P7E ... ... : ... .. . ... ... ... : ... .. . ... : ... .. . ... : ... .. . ... ... : ... .. 7 ... ... : ... .. 7 ... ... : ... .. A ... ...
ROW A8 : ... .. . ... ... ... : G-3 00 A ... ... ... : ... .. . ... : ... .. 5 ... : ... .. . ... ... : ... .. 6 ... ... : ... .. 6 ... ... : ... .. 6 ... ...
ROW A9 : E-5 00 A P81 ... ... : ... .. 8 ... ... ... : ... .. . ... : ... .. . ... : ... .. . ... ... : ... .. 4 ... ... : ... .. 4 ... ... : ... .. . ... ...
ROW AA : ... .. . P80 ... ... : ... .. . ... ... ... : ... .. . ... : ... .. 4 ... : ... .. . ... ... : ... .. . ... ... : ... .. . ... ... : ... .. 3 ... ...
ROW AB : D#5 00 A P82 ... ... : ... .. . ... ... ... : ... .. . ... : ... .. . ... : ... .. . ... ... : ... .. 2 ... ... : ... .. 2 ... ... : ... .. . ... ...
ROW AC : ... .. . ... ... ... : C-4 00 A ... ... ... : D#4 00 . ... : 1-# 00 F ... : ... .. . ... ... : ... .. 8 ... ... : ... .. 8 ... ... : ... .. C ... ...
ROW AD : E-5 00 A P7E ... ... : ... .. 8 ... ... ... : F-3 00 . ... : ... .. C ... : ... .. . ... ... : ... .. 7 ... ... : ... .. 7 ... ... : ... .. A ... ...
ROW AE : ... .. . P80 ... ... : ... .. . ... ... ... : A#2 00 . ... : ... .. 6 ... : ... .. . ... ... : ... .. 6 ... ... : ... .. 6 ... ... : ... .. 6 ... ...
ROW AF : ... .. . P81 ... ... : ... .. . ... ... ... : A-2 00 . ... : ... .. 3 ... : ... .. . ... ... : ... .. 4 ... ... : ... .. 4 ... ... : ... .. . ... ...
ROW B0 : F-5 00 A P7E ... ... : F-4 00 A ... ... ... : E-2 00 . ... : ... .. 2 ... : ... .. . ... ... : ... .. . ... ... : ... .. . ... ... : ... .. 3 ... ...
ROW B1 : ... .. . ... ... ... : ... .. 8 ... ... ... : ... .. . ... : ... .. 0 ... : ... .. . ... ... : ... .. 2 ... ... : ... .. 2 ... ... : ... .. . ... ...
ROW B2 : E-5 00 A P81 ... ... : ... .. . ... ... ... : D#4 00 . ... : ... .. F ... : ... .. . ... ... : ... .. 8 ... ... : ... .. 8 ... ... : ... .. C ... ...
ROW B3 : ... .. . P80 ... ... : ... .. . ... ... ... : F-3 00 . ... : ... .. C ... : ... .. . ... ... : ... .. 7 ... ... : ... .. 7 ... ... : ... .. A ... ...
ROW B4 : ... .. . P7E ... ... : C-5 00 A ... ... ... : A#2 00 . ... : ... .. 6 ... : ... .. . ... ... : ... .. 6 ... ... : ... .. 6 ... ... : ... .. 6 ... ...
ROW B5 : D#5 00 A P82 ... ... : ... .. 8 ... ... ... : A-2 00 . ... : ... .. 3 ... : ... .. . ... ... : ... .. 4 ... ... : ... .. 4 ... ... : ... .. . ... ...
ROW B6 : ... .. . ... ... ... : ... .. . ... ... ... : E-2 00 . ... : ... .. 2 ... : ... .. . ... ... : ... .. . ... ... : ... .. . ... ... : ... .. 3 ... ...
ROW B7 : E-5 00 A P80 ... ... : ... .. . ... ... ... : ... .. . ... : ... .. 0 ... : ... .. . ... ... : ... .. 2 ... ... : ... .. 2 ... ... : ... .. . ... ...
ROW B8 : ... .. . P81 ... ... : D-6 00 A ... ... ... : D#5 00 . ... : B-# 00 D ... : ... .. . ... ... : G-3 01 8 ... ... : C-4 01 8 ... ... : D-4 01 C ... ...
ROW B9 : F-5 00 A P7E ... ... : ... .. 8 ... ... ... : F-4 00 . ... : ... .. B ... : ... .. . ... ... : ... .. 7 ... ... : ... .. 7 ... ... : ... .. A ... ...
ROW BA : ... .. . ... ... ... : ... .. . ... ... ... : A#3 00 . ... : ... .. . ... : ... .. . ... ... : ... .. 6 ... ... : ... .. 6 ... ... : ... .. 6 ... ...
ROW BB : E-5 00 9 P82 ... ... : ... .. . ... ... ... : A-3 00 . ... : ... .. A ... : ... .. . ... ... : ... .. 4 ... ... : ... .. 4 ... ... : ... .. . ... ...
ROW BC : ... .. . P80 ... ... : A-5 00 A ... ... ... : E-3 00 . ... : ... .. 8 ... : ... .. . ... ... : ... .. . ... ... : ... .. . ... ... : ... .. 3 ... ...
ROW BD : ... .. . P7E ... ... : ... .. 8 ... ... ... : ... .. . ... : ... .. 7 ... : ... .. . ... ... : ... .. 2 ... ... : ... .. 2 ... ... : ... .. . ... ...
ROW BE : D#5 00 9 P82 ... ... : ... .. . ... ... ... : ... .. . ... : ... .. 6 ... : ... .. . ... ... : ... .. 8 ... ... : ... .. 8 ... ... : ... .. C ... ...
ROW BF : ... .. . ... ... ... : ... .. . ... ... ... : ... .. . ... : ... .. . ... : ... .. . ... ... : ... .. 7 ... ... : ... .. 7 ... ... : ... .. A ... ...
ROW C0 : E-5 00 9 P7F ... ... : G-5 00 A ... ... ... : ... .. . ... : ... .. 5 ... : ... .. . ... ... : ... .. 6 ... ... : ... .. 6 ... ... : ... .. 6 ... ...
ROW C1 : ... .. . P80 ... ... : ... .. 8 ... ... ... : ... .. . ... : ... .. . ... : ... .. . ... ... : ... .. 5 ... ... : ... .. 5 ... ... : ... .. . ... ...
ROW C2 : ... .. . ... ... ... : ... .. . ... ... ... : ... .. . ... : ... .. 4 ... : ... .. . ... ... : ... .. . ... ... : ... .. . ... ... : ... .. . ... ...
ROW C3 : ... .. . ... ... ... : ... .. . ... ... ... : ... .. . ... : ... .. . ... : ... .. . ... ... : ... .. 4 ... ... : ... .. 4 ... ... : ... .. . ... ...
ROW C4 : D#5 00 9 P81 ... ... : D-5 00 A ... ... ... : ... .. . ... : 1-# 00 F ... : ... .. . ... ... : ... .. . ... ... : ... .. . ... ... : ... .. . ... ...
ROW C5 : D-5 00 9 P82 ... ... : ... .. 8 ... ... ... : ... .. . ... : ... .. C ... : ... .. . ... ... : ... .. . ... ... : ... .. . ... ... : ... .. 3 ... ...
ROW C6 : ... .. . P7E ... ... : ... .. . ... ... ... : ... .. . ... : ... .. 6 ... : ... .. . ... ... : ... .. 2 ... ... : ... .. 2 ... ... : ... .. . ... ...
ROW C7 : C#5 00 8 P80 ... ... : ... .. . ... ... ... : ... .. . ... : ... .. 3 ... : ... .. . ... ... : ... .. . ... ... : ... .. . ... ... : ... .. 1 ... ...
ROW C8 : C-5 00 8 P82 ... ... : A-4 00 A ... ... ... : ... .. . ... : ... .. 2 ... : ... .. . ... ... : ... .. . ... ... : ... .. . ... ... : ... .. . ... ...
ROW C9 : ... .. . P7E ... ... : ... .. 8 ... ... ... : ... .. . ... : ... .. 0 ... : ... .. . ... ... : ... .. . ... ... : ... .. . ... ... : ... .. . ... ...
ROW CA : B-4 00 8 P80 ... ... : ... .. . ... ... ... : E-5 00 . ... : ... .. F ... : ... .. . ... ... : ... .. 8 ... ... : ... .. 8 ... ... : ... .. C ... ...
ROW CB : A#4 00 8 P83 ... ... : ... .. . ... ... ... : F#4 00 . ... : ... .. C ... : ... .. . ... ... : ... .. 7 ... ... : ... .. 7 ... ... : ... .. A ... ...
ROW CC : ... .. . P7F ... ... : G-4 00 A ... ... ... : B-3 00 . ... : ... .. 6 ... : ... .. . ... ... : ... .. 6 ... ... : ... .. 6 ... ... : ... .. 6 ... ...
ROW CD : A-4 00 8 P82 ... ... : ... .. 8 ... ... ... : A#3 00 . ... : ... .. 3 ... : ... .. . ... ... : ... .. 4 ... ... : ... .. 4 ... ... : ... .. . ... ...
ROW CE : ... .. . P7E ... ... : ... .. . ... ... ... : F-3 00 . ... : ... .. 2 ... : ... .. . ... ... : ... .. . ... ... : ... .. . ... ... : ... .. 3 ... ...
ROW CF : G#4 00 8 P82 ... ... : ... .. . ... ... ... : ... .. . ... : ... .. 0 ... : ... .. . ... ... : ... .. 2 ... ... : ... .. 2 ... ... : ... .. . ... ...
ROW D0 : ... .. . P7E ... ... : D-4 00 A ... ... ... : ... .. . ... : ... .. F ... : ... .. . ... ... : ... .. 8 ... ... : ... .. 8 ... ... : ... .. C ... ...
ROW D1 : G-4 00 8 P82 ... ... : ... .. 8 ... ... ... : ... .. . ... : ... .. C ... : ... .. . ... ... : ... .. 7 ... ... : ... .. 7 ... ... : ... .. A ... ...
ROW D2 : ... .. . P7E ... ... : ... .. . ... ... ... : ... .. . ... : ... .. 6 ... : ... .. . ... ... : ... .. 6 ... ... : ... .. 6 ... ... : ... .. 6 ... ...
ROW D3 : F#4 00 8 P82 ... ... : ... .. . ... ... ... : ... .. . ... : ... .. 3 ... : ... .. . ... ... : ... .. 5 ... ... : ... .. 5 ... ... : ... .. . ... ...
ROW D4 : ... .. . P7E ... ... : A-3 00 A ... ... ... : ... .. . ... : ... .. 2 ... : ... .. . ... ... : ... .. . ... ... : ... .. . ... ... : ... .. . ... ...
ROW D5 : F-4 00 8 P83 ... ... : ... .. 8 ... ... ... : ... .. . ... : ... .. 0 ... : ... .. . ... ... : ... .. 4 ... ... : ... .. 4 ... ... : ... .. . ... ...
ROW D6 : ... .. . P7F ... ... : ... .. . ... ... ... : ... .. . ... : ... .. F ... : ... .. . ... ... : ... .. . ... ... : ... .. . ... ... : ... .. . ... ...
ROW D7 : E-4 00 8 P85 ... ... : ... .. . ... ... ... : ... .. . ... : ... .. C ... : ... .. . ... ... : ... .. . ... ... : ... .. . ... ... : ... .. 3 ... ...
ROW D8 : ... .. . P81 ... ... : G-3 00 A ... ... ... : ... .. . ... : ... .. 6 ... : ... .. . ... ... : ... .. 2 ... ... : ... .. 2 ... ... : ... .. . ... ...
ROW D9 : ... .. . P7D ... ... : ... .. 8 ... ... ... : ... .. . ... : ... .. 3 ... : ... .. . ... ... : ... .. . ... ... : ... .. . ... ... : ... .. 1 ... ...
ROW DA : D#4 00 8 P83 ... ... : ... .. . ... ... ... : ... .. . ... : ... .. 2 ... : ... .. . ... ... : ... .. . ... ... : ... .. . ... ... : ... .. . ... ...
ROW DB : ... .. . P7F ... ... : ... .. . ... ... ... : ... .. . ... : ... .. 0 ... : ... .. . ... ... : ... .. . ... ... : ... .. . ... ... : ... .. . ... ...
ROW DC : D-4 00 8 P85 ... ... : E-6 00 A ... ... ... : F#5 00 . ... : B-# 00 D ... : ... .. . ... ... : A-3 01 8 ... ... : D-4 01 8 ... ... : E-4 01 C ... ...
ROW DD : ... .. . P81 ... ... : ... .. 8 ... ... ... : G#4 00 . ... : ... .. B ... : ... .. . ... ... : ... .. 7 ... ... : ... .. 7 ... ... : ... .. A ... ...
ROW DE : ... .. . P7D ... ... : ... .. . ... ... ... : C#4 00 . ... : ... .. . ... : ... .. . ... ... : ... .. 6 ... ... : ... .. 6 ... ... : ... .. 6 ... ...
ROW DF : C#4 00 8 P85 ... ... : ... .. . ... ... ... : C-4 00 . ... : ... .. A ... : ... .. . ... ... : ... .. 4 ... ... : ... .. 4 ... ... : ... .. . ... ...
ROW E0 : ... .. . P81 ... ... : B-5 00 A ... ... ... : G-3 00 . ... : ... .. 8 ... : ... .. . ... ... : ... .. . ... ... : ... .. . ... ... : ... .. 3 ... ...
ROW E1 : ... .. . P7D ... ... : ... .. 8 ... ... ... : ... .. . ... : ... .. 7 ... : ... .. . ... ... : ... .. 2 ... ... : ... .. 2 ... ... : ... .. . ... ...
ROW E2 : C-4 00 7 P85 ... ... : ... .. . ... ... ... : ... .. . ... : ... .. 6 ... : ... .. . ... ... : ... .. 8 ... ... : ... .. 8 ... ... : ... .. C ... ...
ROW E3 : ... .. . P81 ... ... : ... .. . ... ... ... : ... .. . ... : ... .. . ... : ... .. . ... ... : ... .. 7 ... ... : ... .. 7 ... ... : ... .. A ... ...
ROW E4 : ... .. . P7D ... ... : A-5 00 A ... ... ... : ... .. . ... : ... .. 5 ... : ... .. . ... ... : ... .. 6 ... ... : ... .. 6 ... ... : ... .. 6 ... ...
ROW E5 : B-3 00 7 P85 ... ... : ... .. 8 ... ... ... : ... .. . ... : ... .. . ... : ... .. . ... ... : ... .. 5 ... ... : ... .. 5 ... ... : ... .. . ... ...
ROW E6 : ... .. . P81 ... ... : ... .. . ... ... ... : ... .. . ... : ... .. 4 ... : ... .. . ... ... : ... .. . ... ... : ... .. . ... ... : ... .. . ... ...
ROW E7 : ... .. . P7D ... ... : ... .. . ... ... ... : ... .. . ... : ... .. . ... : ... .. . ... ... : ... .. 4 ... ... : ... .. 4 ... ... : ... .. . ... ...
ROW E8 : A#3 00 7 P87 ... ... : E-5 00 A ... ... ... : ... .. . ... : 1-# 00 F ... : ... .. . ... ... : ... .. . ... ... : ... .. . ... ... : ... .. . ... ...
ROW E9 : ... .. . P83 ... ... : ... .. 8 ... ... ... : ... .. . ... : ... .. C ... : ... .. . ... ... : ... .. . ... ... : ... .. . ... ... : ... .. 3 ... ...
ROW EA : ... .. . P7F ... ... : ... .. . ... ... ... : ... .. . ... : ... .. 6 ... : ... .. . ... ... : ... .. 2 ... ... : ... .. 2 ... ... : ... .. . ... ...
ROW EB : ... .. . P7B ... ... : ... .. . ... ... ... : ... .. . ... : ... .. 3 ... : ... .. . ... ... : ... .. . ... ... : ... .. . ... ... : ... .. 1 ... ...
ROW EC : A-3 00 7 P85 ... ... : B-4 00 A ... ... ... : ... .. . ... : ... .. 2 ... : ... .. . ... ... : ... .. . ... ... : ... .. . ... ... : ... .. . ... ...
ROW ED : ... .. . P81 ... ... : ... .. 8 ... ... ... : ... .. . ... : ... .. 0 ... : ... .. . ... ... : ... .. . ... ... : ... .. . ... ... : ... .. . ... ...
ROW EE : ... .. . P7D ... ... : ... .. . ... ... ... : G#5 00 . ... : ... .. F ... : ... .. . ... ... : ... .. 8 ... ... : ... .. 8 ... ... : ... .. C ... ...
ROW EF : ... .. . P79 ... ... : ... .. . ... ... ... : A#4 00 . ... : ... .. C ... : ... .. . ... ... : ... .. 7 ... ... : ... .. 7 ... ... : ... .. A ... ...
ROW F0 : G#3 00 7 P84 ... ... : A-4 00 A ... ... ... : D#4 00 . ... : ... .. 6 ... : ... .. . ... ... : ... .. 6 ... ... : ... .. 6 ... ... : ... .. 6 ... ...
ROW F1 : ... .. . P80 ... ... : ... .. 8 ... ... ... : D-4 00 . ... : ... .. 3 ... : ... .. . ... ... : ... .. 4 ... ... : ... .. 4 ... ... : ... .. . ... ...
ROW F2 : ... .. . P7C ... ... : ... .. . ... ... ... : A-3 00 . ... : ... .. 2 ... : ... .. . ... ... : ... .. . ... ... : ... .. . ... ... : ... .. 3 ... ...
ROW F3 : G-3 00 7 P88 ... ... : ... .. . ... ... ... : ... .. . ... : ... .. 0 ... : ... .. . ... ... : ... .. 2 ... ... : ... .. 2 ... ... : ... .. . ... ...
ROW F4 : ... .. . P84 ... ... : E-4 00 A ... ... ... : ... .. . ... : ... .. F ... : ... .. . ... ... : ... .. 8 ... ... : ... .. 8 ... ... : ... .. C ... ...
ROW F5 : ... .. . P80 ... ... : ... .. 8 ... ... ... : ... .. . ... : ... .. C ... : ... .. . ... ... : ... .. 7 ... ... : ... .. 7 ... ... : ... .. A ... ...
ROW F6 : ... .. . P7C ... ... : ... .. . ... ... ... : ... .. . ... : ... .. 6 ... : ... .. . ... ... : ... .. 6 ... ... : ... .. 6 ... ... : ... .. 6 ... ...
ROW F7 : ... .. . P78 ... ... : ... .. . ... ... ... : ... .. . ... : ... .. 3 ... : ... .. . ... ... : ... .. 5 ... ... : ... .. 5 ... ... : ... .. . ... ...
ROW F8 : F#3 00 7 P85 ... ... : B-3 00 A ... ... ... : ... .. . ... : ... .. 2 ... : ... .. . ... ... : ... .. . ... ... : ... .. . ... ... : ... .. . ... ...
ROW F9 : ... .. . P81 ... ... : ... .. 8 ... ... ... : ... .. . ... : ... .. 0 ... : ... .. . ... ... : ... .. 4 ... ... : ... .. 4 ... ... : ... .. . ... ...
ROW FA : ... .. . P7D ... ... : ... .. . ... ... ... : ... .. . ... : ... .. F ... : ... .. . ... ... : ... .. . ... ... : ... .. . ... ... : ... .. . ... ...
ROW FB : ... .. . P79 ... ... : ... .. . ... ... ... : ... .. . ... : ... .. C ... : ... .. . ... ... : ... .. . ... ... : ... .. . ... ... : ... .. 3 ... ...
ROW FC : F-3 00 7 P87 ... ... : A-3 00 A ... ... ... : ... .. . ... : ... .. 6 ... : ... .. . ... ... : ... .. 2 ... ... : ... .. 2 ... ... : ... .. . ... ...
ROW FD : ... .. . P83 ... ... : ... .. 8 ... ... ... : ... .. . ... : ... .. 3 ... : ... .. . ... ... : ... .. . ... ... : ... .. . ... ... : ... .. 1 ... ...
ROW FE : ... .. . P7F ... ... : ... .. . ... ... ... : ... .. . ... : ... .. 2 ... : ... .. . ... ... : ... .. . ... ... : ... .. . ... ... : ... .. . ... ...
ROW FF : ... .. . P7B ... ... : ... .. . ... ... ... : ... .. . ... : ... .. 0 ... : ... .. . ... ... : ... .. . ... ... : ... .. . ... ... : ... .. . ... ...

PATTERN 0F
ROW 00 : F-2 00 F P7C ... ... : E-3 00 A ... ... ... : A#5 00 . ... : 9-# 00 D ... : ... .. . ... ... : ... .. 8 ... ... : ... .. 8 ... ... : ... .. C ... ...
ROW 01 : ... .. E P78 ... ... : ... .. 8 ... ... ... : C-5 00 . ... : ... .. B ... : ... .. . ... ... : ... .. 7 ... ... : ... .. 7 ... ... : ... .. A ... ...
ROW 02 : ... .. D P74 ... ... : ... .. . ... ... ... : F-4 00 . ... : ... .. . ... : ... .. . ... ... : ... .. 6 ... ... : ... .. 6 ... ... : ... .. 6 ... ...
ROW 03 : ... .. A P70 ... ... : ... .. . ... ... ... : E-4 00 . ... : ... .. A ... : ... .. . ... ... : ... .. 4 ... ... : ... .. 4 ... ... : ... .. . ... ...
ROW 04 : E-2 00 A P92 ... ... : A-3 00 A ... ... ... : B-3 00 . ... : ... .. 8 ... : ... .. . ... ... : ... .. . ... ... : ... .. . ... ... : ... .. 3 ... ...
ROW 05 : ... .. . P8E ... ... : ... .. 8 ... ... ... : ... .. . ... : ... .. 7 ... : ... .. . ... ... : ... .. 2 ... ... : ... .. 2 ... ... : ... .. . ... ...
ROW 06 : ... .. . P8A ... ... : ... .. . ... ... ... : ... .. . ... : 7-# 00 D ... : ... .. . ... ... : ... .. 8 ... ... : ... .. 8 ... ... : ... .. C ... ...
ROW 07 : ... .. . P86 ... ... : ... .. . ... ... ... : ... .. . ... : ... .. B ... : ... .. . ... ... : ... .. 7 ... ... : ... .. 7 ... ... : ... .. A ... ...
ROW 08 : ... .. . P82 ... ... : B-3 00 A ... ... ... : ... .. . ... : ... .. . ... : ... .. . ... ... : ... .. 6 ... ... : ... .. 6 ... ... : ... .. 6 ... ...
ROW 09 : ... .. . P7E ... ... : ... .. 8 ... ... ... : ... .. . ... : ... .. A ... : ... .. . ... ... : ... .. 4 ... ... : ... .. 4 ... ... : ... .. . ... ...
ROW 0A : ... .. . P7A ... ... : ... .. . ... ... ... : ... .. . ... : ... .. 8 ... : ... .. . ... ... : ... .. . ... ... : ... .. . ... ... : ... .. 3 ... ...
ROW 0B : ... .. . P76 ... ... : ... .. . ... ... ... : ... .. . ... : ... .. 7 ... : ... .. . ... ... : ... .. 2 ... ... : ... .. 2 ... ... : ... .. . ... ...
ROW 0C : ... .. . P72 ... ... : E-4 00 A ... ... ... : B-5 00 . ... : 5-# 00 D ... : ... .. . ... ... : ... .. 8 ... ... : ... .. 8 ... ... : ... .. C ... ...
ROW 0D : ... .. . P6E ... ... : ... .. 8 ... ... ... : C#5 00 . ... : ... .. B ... : ... .. . ... ... : ... .. 7 ... ... : ... .. 7 ... ... : ... .. A ... ...
ROW 0E : D#2 00 A P92 ... ... : ... .. . ... ... ... : F#4 00 . ... : ... .. . ... : ... .. . ... ... : ... .. 6 ... ... : ... .. 6 ... ... : ... .. 6 ... ...
ROW 0F : ... .. . P8E ... ... : ... .. . ... ... ... : F-4 00 . ... : ... .. A ... : ... .. . ... ... : ... .. 4 ... ... : ... .. 4 ... ... : ... .. . ... ...
ROW 10 : ... .. . P8A ... ... : A-4 00 A ... ... ... : C-4 00 . ... : ... .. 8 ... : ... .. . ... ... : ... .. . ... ... : ... .. . ... ... : ... .. 3 ... ...
ROW 11 : ... .. . P86 ... ... : ... .. 8 ... ... ... : ... .. . ... : ... .. 7 ... : ... .. . ... ... : ... .. 2 ... ... : ... .. 2 ... ... : ... .. . ... ...
ROW 12 : ... .. 0 ... V00 ... : ... .. . ... ... ... : ... .. . ... : 4-# 00 D ... : ... .. . ... ... : ... .. 8 ... ... : ... .. 8 ... ... : ... .. C ... ...
ROW 13 : ... .. . ... ... ... : ... .. . ... ... ... : ... .. . ... : ... .. B ... : ... .. . ... ... : ... .. 7 ... ... : ... .. 7 ... ... : ... .. A ... ...
ROW 14 : ... .. . ... ... ... : E-5 00 A ... ... ... : ... .. . ... : ... .. . ... : ... .. . ... ... : ... .. 6 ... ... : ... .. 6 ... ... : ... .. 6 ... ...
ROW 15 : ... .. . ... ... ... : ... .. 8 ... ... ... : ... .. . ... : ... .. A ... : ... .. . ... ... : ... .. 4 ... ... : ... .. 4 ... ... : ... .. . ... ...
ROW 16 : ... .. . ... ... ... : ... .. . ... ... ... : ... .. . ... : ... .. 8 ... : ... .. . ... ... : ... .. . ... ... : ... .. . ... ... : ... .. 3 ... ...
ROW 17 : ... .. . ... ... ... : ... .. . ... ... ... : ... .. . ... : ... .. 7 ... : ... .. . ... ... : ... .. 2 ... ... : ... .. 2 ... ... : ... .. . ... ...
ROW 18 : F-3 00 F P80 V03 ... : F-2 00 F P85 ... ... : C-6 00 . ... : B-# 00 D ... : ... .. . ... ... : F-5 01 8 ... ... : A#1 01 A ... ... : A#1 01 F ... ...
ROW 19 : ... .. E ... ... ... : ... .. E ... ... ... : D-5 00 . ... : ... .. B ... : ... .. . ... ... : ... .. 7 ... ... : ... .. 9 ... ... : ... .. D ... ...
ROW 1A : ... .. D ... ... ... : ... .. D ... ... ... : G-4 00 . ... : ... .. . ... : ... .. . ... ... : ... .. 6 ... ... : ... .. 8 ... ... : ... .. 8 ... ...
ROW 1B : ... .. A ... ... ... : ... .. A ... ... ... : F#4 00 . ... : ... .. A ... : ... .. . ... ... : ... .. 5 ... ... : ... .. 7 ... ... : ... .. . ... ...
ROW 1C : ... .. . ... ... ... : ... .. . ... ... ... : C#4 00 . ... : ... .. 8 ... : ... .. . ... ... : C#5 01 8 ... ... : ... .. . ... ... : ... .. . ... ...
ROW 1D : ... .. . ... ... ... : ... .. . ... ... ... : ... .. . ... : ... .. 7 ... : ... .. . ... ... : ... .. 7 ... ... : ... .. 6 ... ... : ... .. . ... ...
ROW 1E : ... .. . ... ... ... : ... .. . ... ... ... : ... .. . ... : ... .. 6 ... : ... .. . ... ... : ... .. 6 ... ... : ... .. . ... ... : ... .. . ... ...
ROW 1F : ... .. . ... ... ... : ... .. . ... ... ... : ... .. . ... : ... .. . ... : ... .. . ... ... : ... .. 5 ... ... : ... .. 5 ... ... : ... .. . ... ...
ROW 20 : ... .. . ... ... ... : ... .. . ... ... ... : ... .. . ... : ... .. 5 ... : ... .. . ... ... : A#4 01 8 ... ... : ... .. . ... ... : ... .. . ... ...
ROW 21 : ... .. . ... ... ... : ... .. . ... ... ... : ... .. . ... : ... .. . ... : ... .. . ... ... : ... .. 7 ... ... : ... .. . ... ... : ... .. . ... ...
ROW 22 : ... .. . ... ... ... : ... .. . ... ... ... : ... .. . ... : ... .. 4 ... : ... .. . ... ... : ... .. 6 ... ... : ... .. . ... ... : ... .. . ... ...
ROW 23 : ... .. . ... ... ... : ... .. . ... ... ... : ... .. . ... : ... .. . ... : ... .. . ... ... : ... .. 5 ... ... : ... .. . ... ... : ... .. . ... ...
ROW 24 : ... .. . ... ... ... : ... .. . ... ... ... : ... .. . ... : 1-# 00 F ... : ... .. . ... ... : F-4 01 8 ... ... : ... .. . ... ... : --- .. . ... ...
ROW 25 : ... .. . ... ... ... : ... .. . ... ... ... : ... .. . ... : ... .. C ... : ... .. . ... ... : ... .. 7 ... ... : ... .. . ... ... : ... .. . ... ...
ROW 26 : ... .. . ... ... ... : ... .. . ... ... ... : ... .. . ... : ... .. 6 ... : ... .. . ... ... : ... .. 6 ... ... : ... .. . ... ... : ... .. . ... ...
ROW 27 : ... .. . ... ... ... : ... .. . ... ... ... : ... .. . ... : ... .. 3 ... : ... .. . ... ... : ... .. 5 ... ... : ... .. . ... ... : ... .. . ... ...
ROW 28 : ... .. . ... ... ... : ... .. . ... ... ... : ... .. . ... : ... .. 2 ... : ... .. . ... ... : C#4 01 8 ... ... : ... .. . ... ... : ... .. . ... ...
ROW 29 : ... .. . ... ... ... : ... .. . ... ... ... : ... .. . ... : ... .. 0 ... : ... .. . ... ... : ... .. 7 ... ... : ... .. . ... ... : ... .. . ... ...
ROW 2A : ... .. . ... ... ... : ... .. . ... ... ... : A#3 00 . P86 : ... .. F ... : ... .. . ... ... : ... .. 6 ... ... : ... .. . ... ... : ... .. . ... ...
ROW 2B : ... .. . ... ... ... : ... .. . ... ... ... : G#3 00 . P83 : ... .. C ... : ... .. . ... ... : ... .. 5 ... ... : ... .. . ... ... : ... .. . ... ...
ROW 2C : ... .. . ... ... ... : ... .. . ... ... ... : F#3 00 . P84 : ... .. 6 ... : ... .. . ... ... : A#3 01 8 ... ... : ... .. . ... ... : ... .. . ... ...
ROW 2D : ... .. . ... ... ... : ... .. . ... ... ... : E-3 00 . P89 : ... .. 3 ... : ... .. . ... ... : ... .. 7 ... ... : ... .. . ... ... : ... .. . ... ...
ROW 2E : ... .. . ... ... ... : ... .. . ... ... ... : D#3 00 . P7E : ... .. 2 ... : ... .. . ... ... : ... .. 6 ... ... : ... .. . ... ... : ... .. . ... ...
ROW 2F : ... .. . ... ... ... : ... .. . ... ... ... : C#3 00 . P8A : ... .. 0 ... : ... .. . ... ... : ... .. 5 ... ... : ... .. . ... ... : ... .. . ... ...
ROW 30 : ... .. . ... ... ... : ... .. . ... ... ... : A-4 00 . P80 : B-# 00 D ... : ... .. . ... ... : F-5 01 8 ... ... : F-3 01 A P80 ... : F-3 01 F P81 ...
ROW 31 : ... .. . ... ... ... : ... .. . ... ... ... : B-3 00 . ... : ... .. B ... : ... .. . ... ... : ... .. 7 ... ... : ... .. 9 ... ... : ... .. D ... ...
ROW 32 : ... .. . ... ... ... : ... .. . ... ... ... : E-3 00 . ... : ... .. . ... : ... .. . ... ... : ... .. 6 ... ... : ... .. 8 ... ... : ... .. 8 ... ...
ROW 33 : ... .. . ... ... ... : ... .. . ... ... ... : D#3 00 . ... : ... .. A ... : ... .. . ... ... : ... .. 5 ... ... : ... .. 7 ... ... : ... .. . ... ...
ROW 34 : ... .. . ... ... ... : ... .. . ... ... ... : A#2 00 . ... : ... .. 8 ... : ... .. . ... ... : C#5 01 8 ... ... : ... .. . ... ... : ... .. . ... ...
ROW 35 : ... .. . ... ... ... : ... .. . ... ... ... : ... .. . ... : ... .. 7 ... : ... .. . ... ... : ... .. 7 ... ... : ... .. 6 ... ... : ... .. . ... ...
ROW 36 : ... .. . ... ... ... : ... .. . ... ... ... : ... .. . ... : ... .. 6 ... : ... .. . ... ... : ... .. 6 ... ... : ... .. . ... ... : ... .. . ... ...
ROW 37 : ... .. . ... ... ... : ... .. . ... ... ... : ... .. . ... : ... .. . ... : ... .. . ... ... : ... .. 5 ... ... : ... .. 5 ... ... : ... .. . ... ...
ROW 38 : ... .. . ... ... ... : ... .. . ... ... ... : ... .. . ... : ... .. 5 ... : ... .. . ... ... : A#4 01 8 ... ... : ... .. . ... ... : ... .. . ... ...
ROW 39 : ... .. . ... ... ... : ... .. . ... ... ... : ... .. . ... : ... .. . ... : ... .. . ... ... : ... .. 7 ... ... : ... .. . ... ... : ... .. . ... ...
ROW 3A : ... .. . ... ... ... : ... .. . ... ... ... : ... .. . ... : ... .. 4 ... : ... .. . ... ... : ... .. 6 ... ... : ... .. . ... ... : ... .. . ... ...
ROW 3B : ... .. . ... ... ... : ... .. . ... ... ... : ... .. . ... : ... .. . ... : ... .. . ... ... : ... .. 5 ... ... : ... .. . ... ... : ... .. . ... ...
ROW 3C : ... .. . ... ... ... : ... .. . ... ... ... : A-3 00 . ... : 1-# 00 F ... : ... .. . ... ... : F-4 01 8 ... ... : F-4 01 A ... ... : F-4 01 F ... ...
ROW 3D : ... .. . ... ... ... : ... .. . ... ... ... : B-2 00 . ... : ... .. C ... : ... .. . ... ... : ... .. 7 ... ... : ... .. 9 ... ... : ... .. D ... ...
ROW 3E : ... .. . ... ... ... : ... .. . ... ... ... : E-2 00 . ... : ... .. 6 ... : ... .. . ... ... : ... .. 6 ... ... : ... .. 8 ... ... : ... .. 8 ... ...
ROW 3F : ... .. . ... ... ... : ... .. . ... ... ... : D#2 00 . ... : ... .. 3 ... : ... .. . ... ... : ... .. 5 ... ... : ... .. 7 ... ... : ... .. . ... ...
ROW 40 : ... .. . ... ... ... : ... .. . ... ... ... : A#1 00 . ... : ... .. 2 ... : ... .. . ... ... : C#4 01 8 ... ... : ... .. . ... ... : ... .. . ... ...
ROW 41 : ... .. . ... ... ... : ... .. . ... ... ... : ... .. . ... : ... .. 0 ... : ... .. . ... ... : ... .. 7 ... ... : ... .. 6 ... ... : ... .. . ... ...
ROW 42 : ... .. . ... ... ... : ... .. . ... ... ... : A-3 00 . ... : ... .. F ... : ... .. . ... ... : ... .. 6 ... ... : ... .. . ... ... : ... .. . ... ...
ROW 43 : ... .. . ... ... ... : ... .. . ... ... ... : B-2 00 . ... : ... .. C ... : ... .. . ... ... : ... .. 5 ... ... : ... .. 5 ... ... : ... .. . ... ...
ROW 44 : ... .. . ... ... ... : ... .. . ... ... ... : E-2 00 . ... : ... .. 6 ... : ... .. . ... ... : A#3 01 8 ... ... : ... .. . ... ... : ... .. . ... ...
ROW 45 : ... .. . ... ... ... : ... .. . ... ... ... : D#2 00 . ... : ... .. 3 ... : ... .. . ... ... : ... .. 7 ... ... : ... .. . ... ... : ... .. . ... ...
ROW 46 : ... .. 2 ... ... ... : ... .. 2 ... ... ... : A#1 00 . ... : ... .. 2 ... : ... .. . ... ... : ... .. 6 ... ... : ... .. . ... ... : ... .. 4 ... ...
ROW 47 : ... .. . ... ... ... : ... .. . ... ... ... : ... .. . ... : ... .. 0 ... : ... .. . ... ... : ... .. 5 ... ... : ... .. 3 ... ... : ... .. . ... ...
ROW 48 : A#2 00 F ... ... ... : A#1 00 F ... ... ... : A-4 00 . ... : B-# 00 D ... : ... .. . ... ... : A#5 01 8 ... ... : D#4 01 A ... ... : D#4 01 F ... ...
ROW 49 : ... .. E ... ... ... : ... .. E ... ... ... : B-3 00 . ... : ... .. B ... : ... .. . ... ... : ... .. 7 ... ... : ... .. 9 ... ... : ... .. D ... ...
ROW 4A : ... .. D ... ... ... : ... .. D ... ... ... : E-3 00 . ... : ... .. . ... : ... .. . ... ... : ... .. 6 ... ... : ... .. 8 ... ... : ... .. 8 ... ...
ROW 4B : ... .. A ... ... ... : ... .. A ... ... ... : D#3 00 . ... : ... .. A ... : ... .. . ... ... : ... .. 5 ... ... : ... .. 7 ... ... : ... .. . ... ...
ROW 4C : ... .. . ... ... ... : ... .. . ... ... ... : A#2 00 . ... : ... .. 8 ... : ... .. . ... ... : F-5 01 8 ... ... : ... .. . ... ... : ... .. . ... ...
ROW 4D : ... .. . ... ... ... : ... .. . ... ... ... : ... .. . ... : ... .. 7 ... : ... .. . ... ... : ... .. 7 ... ... : ... .. 6 ... ... : ... .. . ... ...
ROW 4E : ... .. . ... ... ... : ... .. . ... ... ... : C-4 00 . ... : ... .. 6 ... : ... .. . ... ... : ... .. 6 ... ... : ... .. . ... ... : ... .. . ... ...
ROW 4F : ... .. . ... ... ... : ... .. . ... ... ... : ... .. . ... : ... .. . ... : ... .. . ... ... : ... .. 5 ... ... : ... .. 5 ... ... : ... .. . ... ...
ROW 50 : ... .. . ... ... ... : ... .. . ... ... ... : ... .. . ... : ... .. 5 ... : ... .. . ... ... : C#5 01 8 ... ... : ... .. . ... ... : ... .. . ... ...
ROW 51 : ... .. . ... ... ... : ... .. . ... ... ... : ... .. . ... : ... .. . ... : ... .. . ... ... : ... .. 7 ... ... : ... .. . ... ... : ... .. . ... ...
ROW 52 : ... .. . ... ... ... : ... .. . ... ... ... : ... .. . ... : ... .. 4 ... : ... .. . ... ... : ... .. 6 ... ... : ... .. . ... ... : ... .. . ... ...
ROW 53 : ... .. . ... ... ... : ... .. . ... ... ... : ... .. . ... : ... .. . ... : ... .. . ... ... : ... .. 5 ... ... : ... .. . ... ... : ... .. . ... ...
ROW 54 : ... .. . ... ... ... : ... .. . ... ... ... : C#4 00 . ... : 1-# 00 F ... : ... .. . ... ... : A#4 01 8 ... ... : ... .. . P84 ... : ... .. . P85 ...
ROW 55 : ... .. . ... ... ... : ... .. . ... ... ... : ... .. . ... : ... .. C ... : ... .. . ... ... : ... .. 7 ... ... : E-4 01 5 P7C ... : E-4 01 8 P7C ...
ROW 56 : ... .. . ... ... ... : ... .. . ... ... ... : ... .. . ... : ... .. 6 ... : ... .. . ... ... : ... .. 6 ... ... : D#4 01 5 P85 ... : ... .. . P7B ...
ROW 57 : ... .. . ... ... ... : ... .. . ... ... ... : ... .. . ... : ... .. 3 ... : ... .. . ... ... : ... .. 5 ... ... : ... .. . P82 ... : D#4 01 8 P83 ...
ROW 58 : ... .. . ... ... ... : ... .. . ... ... ... : ... .. . ... : ... .. 2 ... : ... .. . ... ... : F-4 01 8 ... ... : ... .. . P7E ... : ... .. . P7F ...
ROW 59 : ... .. . ... ... ... : ... .. . ... ... ... : ... .. . ... : ... .. 0 ... : ... .. . ... ... : ... .. 7 ... ... : D-4 01 5 P85 ... : ... .. . P7C ...
ROW 5A : ... .. . ... ... ... : ... .. . ... ... ... : D#4 00 . ... : ... .. F ... : ... .. . ... ... : ... .. 6 ... ... : ... .. . P84 ... : ... .. . P7B ...
ROW 5B : ... .. . ... ... ... : ... .. . ... ... ... : ... .. . ... : ... .. C ... : ... .. . ... ... : ... .. 5 ... ... : D#4 01 5 P7C ... : ... .. . P7D ...
ROW 5C : ... .. . ... ... ... : ... .. . ... ... ... : ... .. . ... : ... .. 6 ... : ... .. . ... ... : C#4 01 8 ... ... : ... .. . P80 ... : ... .. . P81 ...
ROW 5D : ... .. . ... ... ... : ... .. . ... ... ... : ... .. . ... : ... .. 3 ... : ... .. . ... ... : ... .. 7 ... ... : --- .. . ... ... : --- .. . ... ...
ROW 5E : ... .. . ... ... ... : ... .. . ... ... ... : ... .. . ... : ... .. 2 ... : ... .. . ... ... : ... .. 6 ... ... : ... .. . ... ... : ... .. . ... ...
ROW 5F : ... .. . ... ... ... : ... .. . ... ... ... : ... .. . ... : ... .. 0 ... : ... .. . ... ... : ... .. 5 ... ... : ... .. . ... ... : ... .. . ... ...
ROW 60 : ... .. . ... ... ... : ... .. . ... ... ... : F-4 00 . ... : B-# 00 D ... : ... .. . ... ... : A#5 01 8 ... ... : D#3 01 A ... ... : D#3 01 F ... ...
ROW 61 : ... .. . ... ... ... : ... .. . ... ... ... : ... .. . ... : ... .. B ... : ... .. . ... ... : ... .. 7 ... ... : ... .. 9 ... ... : ... .. D ... ...
ROW 62 : ... .. . ... ... ... : ... .. . ... ... ... : ... .. . ... : ... .. . ... : ... .. . ... ... : ... .. 6 ... ... : ... .. 8 ... ... : ... .. 8 ... ...
ROW 63 : ... .. . ... ... ... : ... .. . ... ... ... : ... .. . ... : ... .. A ... : ... .. . ... ... : ... .. 5 ... ... : ... .. 7 ... ... : ... .. . ... ...
ROW 64 : ... .. . ... ... ... : ... .. . ... ... ... : ... .. . ... : ... .. 8 ... : ... .. . ... ... : F-5 01 8 ... ... : ... .. . ... ... : ... .. . ... ...
ROW 65 : ... .. . ... ... ... : ... .. . ... ... ... : ... .. . ... : ... .. 7 ... : ... .. . ... ... : ... .. 7 ... ... : ... .. 6 ... ... : ... .. . ... ...
ROW 66 : ... .. . ... ... ... : ... .. . ... ... ... : C#4 00 . ... : ... .. 6 ... : ... .. . ... ... : ... .. 6 ... ... : ... .. . ... ... : ... .. . ... ...
ROW 67 : ... .. . ... ... ... : ... .. . ... ... ... : ... .. . ... : ... .. . ... : ... .. . ... ... : ... .. 5 ... ... : ... .. 5 ... ... : ... .. . ... ...
ROW 68 : ... .. . ... ... ... : ... .. . ... ... ... : ... .. . ... : ... .. 5 ... : ... .. . ... ... : C#5 01 8 ... ... : ... .. . ... ... : ... .. . ... ...
ROW 69 : ... .. . ... ... ... : ... .. . ... ... ... : ... .. . ... : ... .. . ... : ... .. . ... ... : ... .. 7 ... ... : ... .. . ... ... : ... .. . ... ...
ROW 6A : ... .. . ... ... ... : ... .. . ... ... ... : ... .. . ... : ... .. 4 ... : ... .. . ... ... : ... .. 6 ... ... : ... .. . ... ... : ... .. . ... ...
ROW 6B : ... .. . ... ... ... : ... .. . ... ... ... : ... .. . ... : ... .. . ... : ... .. . ... ... : ... .. 5 ... ... : ... .. . ... ... : ... .. . ... ...
ROW 6C : ... .. . ... ... ... : ... .. . ... ... ... : F-4 00 . ... : 1-# 00 F ... : ... .. . ... ... : A#4 01 8 ... ... : D#4 01 A ... ... : D#4 01 F ... ...
ROW 6D : ... .. . ... ... ... : ... .. . ... ... ... : ... .. . ... : ... .. C ... : ... .. . ... ... : ... .. 7 ... ... : ... .. 9 ... ... : ... .. D ... ...
ROW 6E : ... .. . ... ... ... : ... .. . ... ... ... : ... .. . ... : ... .. 6 ... : ... .. . ... ... : ... .. 6 ... ... : ... .. 8 ... ... : ... .. 8 ... ...
ROW 6F : ... .. . ... ... ... : ... .. . ... ... ... : ... .. . ... : ... .. 3 ... : ... .. . ... ... : ... .. 5 ... ... : ... .. 7 ... ... : ... .. . ... ...
ROW 70 : ... .. . ... ... ... : ... .. . ... ... ... : ... .. . ... : ... .. 2 ... : ... .. . ... ... : F-4 01 8 ... ... : ... .. . ... ... : ... .. . ... ...
ROW 71 : ... .. . ... ... ... : ... .. . ... ... ... : ... .. . ... : ... .. 0 ... : ... .. . ... ... : ... .. 7 ... ... : ... .. 6 ... ... : ... .. . ... ...
ROW 72 : ... .. . ... ... ... : ... .. . ... ... ... : G#4 00 . ... : ... .. F ... : ... .. . ... ... : ... .. 6 ... ... : ... .. 5 ... ... : ... .. . ... ...
ROW 73 : ... .. 2 ... ... ... : ... .. 2 ... ... ... : ... .. . ... : ... .. C ... : ... .. . ... ... : ... .. 5 ... ... : ... .. . ... ... : ... .. 4 ... ...
ROW 74 : ... .. . ... ... ... : ... .. . ... ... ... : ... .. . ... : ... .. 6 ... : ... .. . ... ... : C#4 01 8 ... ... : ... .. 3 ... ... : ... .. . ... ...
ROW 75 : ... .. . ... ... ... : ... .. . ... ... ... : ... .. . ... : ... .. 3 ... : ... .. . ... ... : ... .. 7 ... ... : ... .. . ... ... : ... .. 1 ... ...
ROW 76 : ... .. 1 ... ... ... : ... .. 1 ... ... ... : ... .. . ... : ... .. 2 ... : ... .. . ... ... : ... .. 6 ... ... : ... .. . ... ... : ... .. . ... ...
ROW 77 : ... .. . ... ... ... : ... .. . ... ... ... : ... .. . ... : ... .. 0 ... : ... .. . ... ... : ... .. 5 ... ... : ... .. . ... ... : ... .. . ... ...
ROW 78 : G-3 00 F ... ... ... : G-2 00 F ... ... ... : G-4 00 . ... : B-# 00 D ... : ... .. . ... ... : A#5 01 8 ... ... : C#4 01 A ... ... : C#4 01 F ... ...
ROW 79 : ... .. E ... ... ... : ... .. E ... ... ... : ... .. . ... : ... .. B ... : ... .. . ... ... : ... .. 7 ... ... : ... .. 9 ... ... : ... .. D ... ...
ROW 7A : ... .. D ... ... ... : ... .. D ... ... ... : ... .. . ... : ... .. . ... : ... .. . ... ... : ... .. 6 ... ... : ... .. 8 ... ... : ... .. 8 ... ...
ROW 7B : ... .. A ... ... ... : ... .. A ... ... ... : ... .. . ... : ... .. A ... : ... .. . ... ... : ... .. 5 ... ... : ... .. 7 ... ... : ... .. . ... ...
ROW 7C : ... .. . ... ... ... : ... .. . ... ... ... : ... .. . ... : ... .. 8 ... : ... .. . ... ... : G-5 01 8 ... ... : ... .. . ... ... : ... .. . ... ...
ROW 7D : ... .. . ... ... ... : ... .. . ... ... ... : ... .. . ... : ... .. 7 ... : ... .. . ... ... : ... .. 7 ... ... : ... .. 6 ... ... : ... .. . ... ...
ROW 7E : ... .. . ... ... ... : ... .. . ... ... ... : ... .. . ... : ... .. 6 ... : ... .. . ... ... : ... .. 6 ... ... : ... .. . ... ... : ... .. . ... ...
ROW 7F : ... .. . ... ... ... : ... .. . ... ... ... : ... .. . ... : ... .. . ... : ... .. . ... ... : ... .. 5 ... ... : ... .. 5 ... ... : ... .. . ... ...
ROW 80 : ... .. . ... ... ... : ... .. . ... ... ... : ... .. . ... : ... .. 5 ... : ... .. . ... ... : D#5 01 8 ... ... : ... .. . ... ... : ... .. . ... ...
ROW 81 : ... .. . ... ... ... : ... .. . ... ... ... : ... .. . ... : ... .. . ... : ... .. . ... ... : ... .. 7 ... ... : ... .. . ... ... : ... .. . ... ...
ROW 82 : ... .. . ... ... ... : ... .. . ... ... ... : ... .. . ... : ... .. 4 ... : ... .. . ... ... : ... .. 6 ... ... : ... .. . ... ... : ... .. . ... ...
ROW 83 : ... .. . ... ... ... : ... .. . ... ... ... : ... .. . ... : ... .. . ... : ... .. . ... ... : ... .. 5 ... ... : ... .. . ... ... : ... .. . ... ...
ROW 84 : ... .. . ... ... ... : ... .. . ... ... ... : A-3 00 . ... : 1-# 00 F ... : ... .. . ... ... : A#4 01 8 ... ... : ... .. . ... ... : ... .. . ... ...
ROW 85 : ... .. . ... ... ... : ... .. . ... ... ... : B-2 00 . ... : ... .. C ... : ... .. . ... ... : ... .. 7 ... ... : ... .. . ... ... : ... .. . ... ...
ROW 86 : ... .. . ... ... ... : ... .. . ... ... ... : E-2 00 . ... : ... .. 6 ... : ... .. . ... ... : ... .. 6 ... ... : ... .. . ... ... : ... .. . ... ...
ROW 87 : ... .. . ... ... ... : ... .. . ... ... ... : D#2 00 . ... : ... .. 3 ... : ... .. . ... ... : ... .. 5 ... ... : ... .. . ... ... : ... .. . ... ...
ROW 88 : ... .. . ... ... ... : ... .. . ... ... ... : A#1 00 . ... : ... .. 2 ... : ... .. . ... ... : G-4 01 8 ... ... : ... .. . ... ... : ... .. . ... ...
ROW 89 : ... .. . ... ... ... : ... .. . ... ... ... : ... .. . ... : ... .. 0 ... : ... .. . ... ... : ... .. 7 ... ... : ... .. . ... ... : ... .. . ... ...
ROW 8A : ... .. . ... ... ... : ... .. . ... ... ... : A-3 00 . ... : ... .. F ... : ... .. . ... ... : ... .. 6 ... ... : ... .. . ... ... : ... .. . ... ...
ROW 8B : ... .. . ... ... ... : ... .. . ... ... ... : B-2 00 . ... : ... .. C ... : ... .. . ... ... : ... .. 5 ... ... : ... .. . ... ... : ... .. . ... ...
ROW 8C : ... .. . ... ... ... : ... .. . ... ... ... : E-2 00 . ... : ... .. 6 ... : ... .. . ... ... : D#4 01 8 ... ... : ... .. . ... ... : ... .. . ... ...
ROW 8D : ... .. . ... ... ... : ... .. . ... ... ... : D#2 00 . ... : ... .. 3 ... : ... .. . ... ... : ... .. 7 ... ... : ... .. . ... ... : ... .. . ... ...
ROW 8E : ... .. . ... ... ... : ... .. . ... ... ... : A#1 00 . ... : ... .. 2 ... : ... .. . ... ... : ... .. 6 ... ... : ... .. . ... ... : ... .. . ... ...
ROW 8F : ... .. . ... ... ... : ... .. . ... ... ... : ... .. . ... : ... .. 0 ... : ... .. . ... ... : ... .. 5 ... ... : ... .. . ... ... : ... .. . ... ...
ROW 90 : ... .. . ... ... ... : ... .. . ... ... ... : D-4 00 . ... : B-# 00 D ... : ... .. . ... ... : A#5 01 8 ... ... : ... .. . ... ... : ... .. . ... ...
ROW 91 : ... .. . ... ... ... : ... .. . ... ... ... : E-3 00 . ... : ... .. B ... : ... .. . ... ... : ... .. 7 ... ... : ... .. . ... ... : ... .. . ... ...
ROW 92 : ... .. . ... ... ... : ... .. . ... ... ... : A-2 00 . ... : ... .. . ... : ... .. . ... ... : ... .. 6 ... ... : ... .. . ... ... : ... .. . ... ...
ROW 93 : ... .. . ... ... ... : ... .. . ... ... ... : G#2 00 . ... : ... .. A ... : ... .. . ... ... : ... .. 5 ... ... : ... .. . P84 ... : ... .. . P85 ...
ROW 94 : ... .. . ... ... ... : ... .. . ... ... ... : D#2 00 . ... : ... .. 8 ... : ... .. . ... ... : G-5 01 8 ... ... : ... .. . P86 ... : D-4 01 8 P7A ...
ROW 95 : ... .. . ... ... ... : ... .. . ... ... ... : ... .. . ... : ... .. 7 ... : ... .. . ... ... : ... .. 7 ... ... : ... .. . P85 ... : C#4 01 8 P86 ...
ROW 96 : ... .. . ... ... ... : ... .. . ... ... ... : ... .. . ... : ... .. 6 ... : ... .. . ... ... : ... .. 6 ... ... : ... .. . P82 ... : ... .. . P83 ...
ROW 97 : ... .. . ... ... ... : ... .. . ... ... ... : ... .. . ... : ... .. . ... : ... .. . ... ... : ... .. 5 ... ... : ... .. . P7E ... : ... .. . P7F ...
ROW 98 : ... .. . ... ... ... : ... .. . ... ... ... : ... .. . ... : ... .. 5 ... : ... .. . ... ... : D#5 01 8 ... ... : ... .. . P7B ... : ... .. . P7C ...
ROW 99 : ... .. . ... ... ... : ... .. . ... ... ... : ... .. . ... : ... .. . ... : ... .. . ... ... : ... .. 7 ... ... : C-4 01 5 P86 ... : ... .. . P7B ...
ROW 9A : ... .. . ... ... ... : ... .. . ... ... ... : ... .. . ... : ... .. 4 ... : ... .. . ... ... : ... .. 6 ... ... : C#4 01 5 P7C ... : ... .. . P7D ...
ROW 9B : ... .. . ... ... ... : ... .. . ... ... ... : ... .. . ... : ... .. . ... : ... .. . ... ... : ... .. 5 ... ... : ... .. . P80 ... : ... .. . P81 ...
ROW 9C : ... .. . ... ... ... : ... .. . ... ... ... : A-3 00 . ... : 1-# 00 F ... : ... .. . ... ... : A#4 01 8 ... ... : ... .. . P83 ... : ... .. . P84 ...
ROW 9D : ... .. . ... ... ... : ... .. . ... ... ... : B-2 00 . ... : ... .. C ... : ... .. . ... ... : ... .. 7 ... ... : ... .. . P86 ... : D-4 01 8 P7A ...
ROW 9E : ... .. . ... ... ... : ... .. . ... ... ... : E-2 00 . ... : ... .. 6 ... : ... .. . ... ... : ... .. 6 ... ... : ... .. . ... ... : ... .. . ... ...
ROW 9F : ... .. . ... ... ... : ... .. . ... ... ... : D#2 00 . ... : ... .. 3 ... : ... .. . ... ... : ... .. 5 ... ... : ... .. . P82 ... : C#4 01 8 P83 ...
ROW A0 : ... .. . ... ... ... : ... .. . ... ... ... : A#1 00 . ... : ... .. 2 ... : ... .. . ... ... : G-4 01 8 ... ... : ... .. . P7F ... : ... .. 4 P80 ...
ROW A1 : ... .. . ... ... ... : ... .. . ... ... ... : ... .. . ... : ... .. 0 ... : ... .. . ... ... : ... .. 7 ... ... : ... .. 3 P7B ... : ... .. . P7C ...
ROW A2 : ... .. . ... ... ... : ... .. . ... ... ... : A-3 00 . ... : ... .. F ... : ... .. . ... ... : ... .. 6 ... ... : C-4 01 3 P86 ... : ... .. 1 P7B ...
ROW A3 : ... .. . ... ... ... : ... .. . ... ... ... : B-2 00 . ... : ... .. C ... : ... .. . ... ... : ... .. 5 ... ... : C#4 01 3 P7C ... : ... .. . P7D ...
ROW A4 : ... .. . ... ... ... : ... .. . ... ... ... : E-2 00 . ... : ... .. 6 ... : ... .. . ... ... : D#4 01 8 ... ... : ... .. . P80 ... : ... .. . P81 ...
ROW A5 : ... .. . ... ... ... : ... .. . ... ... ... : D#2 00 . ... : ... .. 3 ... : ... .. . ... ... : ... .. 7 ... ... : ... .. . P83 ... : ... .. . P84 ...
ROW A6 : ... .. . ... ... ... : ... .. . ... ... ... : A#1 00 . ... : ... .. 2 ... : ... .. . ... ... : ... .. 6 ... ... : ... .. . P86 ... : D-4 01 1 P7A ...
ROW A7 : ... .. . ... ... ... : ... .. . ... ... ... : ... .. . ... : ... .. 0 ... : ... .. . ... ... : ... .. 5 ... ... : ... .. . ... ... : ... .. . ... ...
ROW A8 : ... .. . ... ... ... : ... .. . ... ... ... : G-4 00 . ... : B-# 00 D ... : ... .. . ... ... : G-5 01 8 ... ... : C-4 01 A P80 ... : C-4 01 F P81 ...
ROW A9 : ... .. . ... ... ... : ... .. . ... ... ... : ... .. . ... : ... .. B ... : ... .. . ... ... : ... .. 7 ... ... : ... .. 9 ... ... : ... .. D ... ...
ROW AA : ... .. . ... ... ... : ... .. . ... ... ... : ... .. . ... : ... .. . ... : ... .. . ... ... : ... .. 6 ... ... : ... .. 8 ... ... : ... .. 8 ... ...
ROW AB : ... .. . ... ... ... : ... .. . ... ... ... : ... .. . ... : ... .. A ... : ... .. . ... ... : ... .. 5 ... ... : ... .. 7 ... ... : ... .. . ... ...
ROW AC : ... .. . ... ... ... : ... .. . ... ... ... : ... .. . ... : ... .. 8 ... : ... .. . ... ... : D#5 01 8 ... ... : ... .. . ... ... : ... .. . ... ...
ROW AD : ... .. . ... ... ... : ... .. . ... ... ... : ... .. . ... : ... .. 7 ... : ... .. . ... ... : ... .. 7 ... ... : ... .. 6 ... ... : ... .. . ... ...
ROW AE : ... .. . ... ... ... : ... .. . ... ... ... : ... .. . ... : ... .. D ... : ... .. . ... ... : ... .. 6 ... ... : ... .. . ... ... : ... .. . ... ...
ROW AF : ... .. . ... ... ... : ... .. . ... ... ... : ... .. . ... : ... .. B ... : ... .. . ... ... : ... .. 5 ... ... : ... .. 5 ... ... : ... .. . ... ...
ROW B0 : ... .. . ... ... ... : ... .. . ... ... ... : ... .. . ... : ... .. . ... : ... .. . ... ... : A#4 01 8 ... ... : ... .. . ... ... : ... .. . ... ...
ROW B1 : ... .. . P84 ... ... : ... .. . P89 ... ... : ... .. . ... : ... .. A ... : ... .. . ... ... : ... .. 7 ... ... : ... .. . ... ... : ... .. . ... ...
ROW B2 : ... .. . P86 ... ... : ... .. . P8B ... ... : ... .. . ... : ... .. 8 ... : ... .. . ... ... : ... .. 6 ... ... : ... .. . ... ... : ... .. . ... ...
ROW B3 : ... .. . P85 ... ... : ... .. . P8A ... ... : ... .. . ... : ... .. 7 ... : ... .. . ... ... : ... .. 5 ... ... : ... .. . ... ... : ... .. . ... ...
ROW B4 : ... .. . P82 ... ... : ... .. . P87 ... ... : A-3 00 . ... : 1-# 00 F ... : ... .. . ... ... : G-4 01 8 ... ... : ... .. . ... ... : ... .. . ... ...
ROW B5 : ... .. . P7E ... ... : ... .. . P83 ... ... : B-2 00 . ... : ... .. C ... : ... .. . ... ... : ... .. 7 ... ... : ... .. . ... ... : ... .. . ... ...
ROW B6 : ... .. . P7B ... ... : ... .. . P80 ... ... : E-2 00 . ... : ... .. 6 ... : ... .. . ... ... : ... .. 6 ... ... : ... .. . ... ... : ... .. . ... ...
ROW B7 : ... .. . P7A ... ... : ... .. . P7F ... ... : D#2 00 . ... : ... .. 3 ... : ... .. . ... ... : ... .. 5 ... ... : ... .. . ... ... : ... .. . ... ...
ROW B8 : ... .. . P7C ... ... : ... .. . P81 ... ... : A#1 00 . ... : ... .. 2 ... : ... .. . ... ... : D#4 01 8 ... ... : ... .. . ... ... : ... .. . ... ...
ROW B9 : ... .. . P80 ... ... : ... .. . P85 ... ... : ... .. . ... : ... .. 0 ... : ... .. . ... ... : ... .. 7 ... ... : ... .. . ... ... : ... .. . ... ...
ROW BA : ... .. . P83 ... ... : ... .. . P88 ... ... : A-3 00 . ... : ... .. F ... : ... .. . ... ... : ... .. 6 ... ... : ... .. . ... ... : ... .. . ... ...
ROW BB : ... .. 2 P86 ... ... : ... .. 2 P8B ... ... : B-2 00 . ... : ... .. C ... : ... .. . ... ... : ... .. 5 ... ... : ... .. . ... ... : ... .. 4 ... ...
ROW BC : ... .. . ... ... ... : ... .. . ... ... ... : E-2 00 . ... : ... .. 6 ... : ... .. . ... ... : A#3 01 8 ... ... : ... .. 3 ... ... : ... .. . ... ...
ROW BD : ... .. . P82 ... ... : ... .. . P87 ... ... : D#2 00 . ... : ... .. 3 ... : ... .. . ... ... : ... .. 7 ... ... : ... .. . ... ... : ... .. 1 ... ...
ROW BE : ... .. 1 P7F ... ... : ... .. 1 P84 ... ... : A#1 00 . ... : ... .. 2 ... : ... .. . ... ... : ... .. 6 ... ... : ... .. . ... ... : ... .. . ... ...
ROW BF : ... .. . P7B ... ... : ... .. . P80 ... ... : ... .. . ... : ... .. 0 ... : ... .. . ... ... : ... .. 5 ... ... : ... .. . ... ... : ... .. . ... ...
ROW C0 : D#3 00 F P80 ... ... : D#2 00 F P85 ... ... : G-4 00 . ... : 9-# 00 D ... : ... .. . ... ... : A#4 01 8 ... ... : A#3 01 A ... ... : A#3 01 F ... ...
ROW C1 : ... .. E ... ... ... : ... .. E ... ... ... : A-3 00 . ... : ... .. B ... : ... .. . ... ... : ... .. 7 ... ... : ... .. 9 ... ... : ... .. D ... ...
ROW C2 : ... .. D ... ... ... : ... .. D ... ... ... : D-3 00 . ... : ... .. . ... : ... .. . ... ... : ... .. 6 ... ... : ... .. 8 ... ... : ... .. 8 ... ...
ROW C3 : ... .. A ... ... ... : ... .. A ... ... ... : C#3 00 . ... : ... .. A ... : ... .. . ... ... : ... .. 5 ... ... : ... .. 7 ... ... : ... .. . ... ...
ROW C4 : ... .. . ... ... ... : ... .. . ... ... ... : G#2 00 . ... : ... .. 8 ... : ... .. . ... ... : G-4 01 8 ... ... : ... .. . ... ... : ... .. . ... ...
ROW C5 : ... .. . ... ... ... : ... .. . ... ... ... : ... .. . ... : ... .. 7 ... : ... .. . ... ... : ... .. 7 ... ... : ... .. 6 ... ... : ... .. . ... ...
ROW C6 : ... .. . ... ... ... : ... .. . ... ... ... : A-4 00 . ... : ... .. D ... : ... .. . ... ... : ... .. 6 ... ... : ... .. . ... ... : ... .. . ... ...
ROW C7 : ... .. . ... ... ... : ... .. . ... ... ... : B-3 00 . ... : ... .. B ... : ... .. . ... ... : ... .. 5 ... ... : ... .. 5 ... ... : ... .. . ... ...
ROW C8 : ... .. . ... ... ... : ... .. . ... ... ... : E-3 00 . ... : ... .. . ... : ... .. . ... ... : D#4 01 8 ... ... : ... .. . ... ... : ... .. . ... ...
ROW C9 : ... .. . ... ... ... : ... .. . ... ... ... : D#3 00 . ... : ... .. A ... : ... .. . ... ... : ... .. 7 ... ... : ... .. . ... ... : ... .. . ... ...
ROW CA : ... .. . ... ... ... : ... .. . ... ... ... : A#2 00 . ... : ... .. 8 ... : ... .. . ... ... : ... .. 6 ... ... : ... .. . ... ... : ... .. . ... ...
ROW CB : ... .. . ... ... ... : ... .. . ... ... ... : ... .. . ... : ... .. 7 ... : ... .. . ... ... : ... .. 5 ... ... : ... .. . ... ... : ... .. . ... ...
ROW CC : ... .. . ... ... ... : ... .. . ... ... ... : A#4 00 . ... : 1-# 00 F ... : ... .. . ... ... : A#3 01 8 ... ... : ... .. . ... ... : ... .. . ... ...
ROW CD : ... .. . ... ... ... : ... .. . ... ... ... : C-4 00 . ... : ... .. C ... : ... .. . ... ... : ... .. 7 ... ... : ... .. . ... ... : ... .. . ... ...
ROW CE : ... .. . ... ... ... : ... .. . ... ... ... : F-3 00 . ... : ... .. 6 ... : ... .. . ... ... : ... .. 6 ... ... : ... .. . ... ... : ... .. . ... ...
ROW CF : ... .. . ... ... ... : ... .. . ... ... ... : E-3 00 . ... : ... .. 3 ... : ... .. . ... ... : ... .. 5 ... ... : ... .. . ... ... : ... .. . ... ...
ROW D0 : ... .. . ... ... ... : ... .. . ... ... ... : B-2 00 . ... : ... .. 2 ... : ... .. . ... ... : G-3 01 8 ... ... : ... .. . ... ... : ... .. . ... ...
ROW D1 : ... .. . ... ... ... : ... .. . ... ... ... : ... .. . ... : ... .. 0 ... : ... .. . ... ... : ... .. 7 ... ... : ... .. . ... ... : ... .. . ... ...
ROW D2 : ... .. . ... ... ... : ... .. . ... ... ... : C-5 00 . ... : ... .. F ... : ... .. . ... ... : ... .. 6 ... ... : ... .. . ... ... : ... .. . ... ...
ROW D3 : ... .. . ... ... ... : ... .. . ... ... ... : D-4 00 . ... : ... .. C ... : ... .. . ... ... : ... .. 5 ... ... : ... .. . ... ... : ... .. . ... ...
ROW D4 : ... .. . ... ... ... : ... .. . ... ... ... : G-3 00 . ... : ... .. 6 ... : ... .. . ... ... : D#3 01 8 ... ... : ... .. . ... ... : ... .. . ... ...
ROW D5 : ... .. . ... ... ... : ... .. . ... ... ... : F#3 00 . ... : ... .. 3 ... : ... .. . ... ... : ... .. 7 ... ... : ... .. . ... ... : ... .. . ... ...
ROW D6 : ... .. 2 ... ... ... : ... .. 2 ... ... ... : C#3 00 . ... : ... .. 2 ... : ... .. . ... ... : ... .. 6 ... ... : ... .. . ... ... : ... .. 4 ... ...
ROW D7 : ... .. . ... ... ... : ... .. . ... ... ... : ... .. . ... : ... .. 0 ... : ... .. . ... ... : ... .. 5 ... ... : ... .. 3 ... ... : ... .. . ... ...
ROW D8 : F-3 00 F ... ... ... : F-2 00 F ... ... ... : A-4 00 . ... : B-# 00 D ... : ... .. . ... ... : F-4 01 8 ... ... : F-3 01 A ... ... : F-3 01 F ... ...
ROW D9 : ... .. E ... ... ... : ... .. E ... ... ... : B-3 00 . ... : ... .. B ... : ... .. . ... ... : ... .. 7 ... ... : ... .. 9 ... ... : ... .. D ... ...
ROW DA : ... .. D ... ... ... : ... .. D ... ... ... : E-3 00 . ... : ... .. . ... : ... .. . ... ... : ... .. 6 ... ... : ... .. 8 ... ... : ... .. 8 ... ...
ROW DB : ... .. A ... ... ... : ... .. A ... ... ... : D#3 00 . ... : ... .. A ... : ... .. . ... ... : ... .. 5 ... ... : ... .. 7 ... ... : ... .. . ... ...
ROW DC : ... .. . ... ... ... : ... .. . ... ... ... : A#2 00 . ... : ... .. 8 ... : ... .. . ... ... : C#4 01 8 ... ... : ... .. . ... ... : ... .. . ... ...
ROW DD : ... .. . ... ... ... : ... .. . ... ... ... : ... .. . ... : ... .. 7 ... : ... .. . ... ... : ... .. 7 ... ... : ... .. 6 ... ... : ... .. . ... ...
ROW DE : ... .. . ... ... ... : ... .. . ... ... ... : ... .. . ... : ... .. 6 ... : ... .. . ... ... : ... .. 6 ... ... : ... .. . ... ... : ... .. . ... ...
ROW DF : ... .. . ... ... ... : ... .. . ... ... ... : ... .. . ... : ... .. . ... : ... .. . ... ... : ... .. 5 ... ... : ... .. 5 ... ... : ... .. . ... ...
ROW E0 : ... .. . ... ... ... : ... .. . ... ... ... : ... .. . ... : ... .. 5 ... : ... .. . ... ... : A#3 01 8 ... ... : ... .. . ... ... : ... .. . ... ...
ROW E1 : ... .. . ... ... ... : ... .. . ... ... ... : ... .. . ... : ... .. . ... : ... .. . ... ... : ... .. 7 ... ... : ... .. . ... ... : ... .. . ... ...
ROW E2 : ... .. . ... ... ... : ... .. . ... ... ... : ... .. . ... : ... .. 4 ... : ... .. . ... ... : ... .. 6 ... ... : ... .. . ... ... : ... .. . ... ...
ROW E3 : ... .. . ... ... ... : ... .. . ... ... ... : ... .. . ... : ... .. . ... : ... .. . ... ... : ... .. 5 ... ... : ... .. . ... ... : ... .. . ... ...
ROW E4 : ... .. . ... ... ... : ... .. . ... ... ... : A-3 00 . ... : 1-# 00 F ... : ... .. . ... ... : F-3 01 8 ... ... : D#3 01 A ... ... : D#3 01 F ... ...
ROW E5 : ... .. . ... ... ... : ... .. . ... ... ... : B-2 00 . ... : ... .. C ... : ... .. . ... ... : ... .. 7 ... ... : ... .. 9 ... ... : ... .. D ... ...
ROW E6 : ... .. . ... ... ... : ... .. . ... ... ... : E-2 00 . ... : ... .. 6 ... : ... .. . ... ... : ... .. 6 ... ... : ... .. 8 ... ... : ... .. 8 ... ...
ROW E7 : ... .. . ... ... ... : ... .. . ... ... ... : D#2 00 . ... : ... .. 3 ... : ... .. . ... ... : ... .. 5 ... ... : ... .. 7 ... ... : ... .. . ... ...
ROW E8 : ... .. . ... ... ... : ... .. . ... ... ... : A#1 00 . ... : ... .. 2 ... : ... .. . ... ... : C#3 01 8 ... ... : ... .. . ... ... : ... .. . ... ...
ROW E9 : ... .. . ... ... ... : ... .. . ... ... ... : ... .. . ... : ... .. 0 ... : ... .. . ... ... : ... .. 7 ... ... : ... .. 6 ... ... : ... .. . ... ...
ROW EA : ... .. . ... ... ... : ... .. . ... ... ... : A-3 00 . ... : ... .. F ... : ... .. . ... ... : ... .. 6 ... ... : ... .. . ... ... : ... .. . ... ...
ROW EB : ... .. . ... ... ... : ... .. . ... ... ... : B-2 00 . ... : ... .. C ... : ... .. . ... ... : ... .. 5 ... ... : ... .. 5 ... ... : ... .. . ... ...
ROW EC : ... .. . ... ... ... : ... .. . ... ... ... : E-2 00 . ... : ... .. 6 ... : ... .. . ... ... : A#2 01 8 ... ... : ... .. . ... ... : ... .. . ... ...
ROW ED : ... .. . ... ... ... : ... .. . ... ... ... : D#2 00 . ... : ... .. 3 ... : ... .. . ... ... : ... .. 7 ... ... : ... .. . ... ... : ... .. . ... ...
ROW EE : ... .. . ... ... ... : ... .. . ... ... ... : A#1 00 . ... : ... .. 2 ... : ... .. . ... ... : ... .. 6 ... ... : ... .. . ... ... : ... .. . ... ...
ROW EF : ... .. . ... ... ... : ... .. . ... ... ... : ... .. . ... : ... .. 0 ... : ... .. . ... ... : ... .. 5 ... ... : ... .. . ... ... : ... .. . ... ...
ROW F0 : ... .. . ... ... ... : ... .. . ... ... ... : A-4 00 . ... : B-# 00 D ... : ... .. . ... ... : F-4 01 8 ... ... : F-3 01 A ... ... : F-3 01 F ... ...
ROW F1 : ... .. . ... ... ... : ... .. . ... ... ... : B-3 00 . ... : ... .. B ... : ... .. . ... ... : ... .. 7 ... ... : ... .. 9 ... ... : ... .. D ... ...
ROW F2 : ... .. . ... ... ... : ... .. . ... ... ... : E-3 00 . ... : ... .. . ... : ... .. . ... ... : ... .. 6 ... ... : ... .. 8 ... ... : ... .. 8 ... ...
ROW F3 : ... .. . ... ... ... : ... .. . ... ... ... : D#3 00 . ... : ... .. A ... : ... .. . ... ... : ... .. 5 ... ... : ... .. 7 ... ... : ... .. . ... ...
ROW F4 : ... .. . ... ... ... : ... .. . ... ... ... : A#2 00 . ... : ... .. 8 ... : ... .. . ... ... : C#4 01 8 ... ... : ... .. . ... ... : ... .. . ... ...
ROW F5 : ... .. . ... ... ... : ... .. . ... ... ... : ... .. . ... : ... .. 7 ... : ... .. . ... ... : ... .. 7 ... ... : ... .. 6 ... ... : ... .. . ... ...
ROW F6 : ... .. . ... ... ... : ... .. . ... ... ... : ... .. . ... : ... .. 6 ... : ... .. . ... ... : ... .. 6 ... ... : ... .. . ... ... : ... .. . ... ...
ROW F7 : ... .. . ... ... ... : ... .. . ... ... ... : ... .. . ... : ... .. . ... : ... .. . ... ... : ... .. 5 ... ... : ... .. 5 ... ... : ... .. . ... ...
ROW F8 : ... .. . ... ... ... : ... .. . ... ... ... : ... .. . ... : ... .. 5 ... : ... .. . ... ... : A#3 01 8 ... ... : ... .. . ... ... : ... .. . ... ...
ROW F9 : ... .. . ... ... ... : ... .. . ... ... ... : ... .. . ... : ... .. . ... : ... .. . ... ... : ... .. 7 ... ... : ... .. . ... ... : ... .. . ... ...
ROW FA : ... .. . ... ... ... : ... .. . ... ... ... : ... .. . ... : ... .. 4 ... : ... .. . ... ... : ... .. 6 ... ... : ... .. . ... ... : ... .. . ... ...
ROW FB : ... .. . ... ... ... : ... .. . ... ... ... : ... .. . ... : ... .. . ... : ... .. . ... ... : ... .. 5 ... ... : ... .. . ... ... : ... .. . ... ...
ROW FC : ... .. . ... ... ... : ... .. . ... ... ... : A-3 00 . ... : 1-# 00 F ... : ... .. . ... ... : F-3 01 8 ... ... : ... .. . ... ... : ... .. . ... ...
ROW FD : ... .. . ... ... ... : ... .. . ... ... ... : B-2 00 . ... : ... .. C ... : ... .. . ... ... : ... .. 7 ... ... : ... .. . ... ... : ... .. . ... ...
ROW FE : ... .. . ... ... ... : ... .. . ... ... ... : E-2 00 . ... : ... .. 6 ... : ... .. . ... ... : ... .. 6 ... ... : ... .. . ... ... : ... .. . ... ...
ROW FF : ... .. . ... ... ... : ... .. . ... ... ... : D#2 00 . ... : ... .. 3 ... : ... .. . ... ... : ... .. 5 ... ... : ... .. . ... ... : ... .. . ... ...

PATTERN 10
ROW 00 : ... .. . ... ... ... : ... .. . ... ... ... : A#1 00 . ... : ... .. 2 ... : ... .. . ... ... : C#3 01 8 ... ... : ... .. . ... ... : ... .. . ... ...
ROW 01 : ... .. . ... ... ... : ... .. . ... ... ... : ... .. . ... : ... .. 0 ... : ... .. . ... ... : ... .. 7 ... ... : ... .. . ... ... : ... .. . ... ...
ROW 02 : ... .. . ... ... ... : ... .. . ... ... ... : A-3 00 . ... : ... .. F ... : ... .. . ... ... : ... .. 6 ... ... : ... .. . ... ... : ... .. . ... ...
ROW 03 : ... .. . ... ... ... : ... .. . ... ... ... : B-2 00 . ... : ... .. C ... : ... .. . ... ... : ... .. 5 ... ... : ... .. . ... ... : ... .. . ... ...
ROW 04 : ... .. . ... ... ... : ... .. . ... ... ... : E-2 00 . ... : ... .. 6 ... : ... .. . ... ... : A#2 01 8 ... ... : ... .. . ... ... : ... .. . ... ...
ROW 05 : ... .. . ... ... ... : ... .. . ... ... ... : D#2 00 . ... : ... .. 3 ... : ... .. . ... ... : ... .. 7 ... ... : ... .. . ... ... : ... .. . ... ...
ROW 06 : ... .. 2 ... ... ... : ... .. 2 ... ... ... : A#1 00 . ... : ... .. 2 ... : ... .. . ... ... : ... .. 6 ... ... : ... .. . ... ... : ... .. . ... ...
ROW 07 : ... .. . ... ... ... : ... .. . ... ... ... : ... .. . ... : ... .. 0 ... : ... .. . ... ... : ... .. 5 ... ... : ... .. . ... ... : ... .. . ... ...
ROW 08 : A#2 00 F ... ... ... : A#1 00 F ... ... ... : A-4 00 . ... : B-# 00 D ... : ... .. . ... ... : A#4 01 8 ... ... : ... .. . ... ... : ... .. . ... ...
ROW 09 : ... .. E ... ... ... : ... .. E ... ... ... : B-3 00 . ... : ... .. B ... : ... .. . ... ... : ... .. 7 ... ... : ... .. . ... ... : ... .. . ... ...
ROW 0A : ... .. D ... ... ... : ... .. D ... ... ... : E-3 00 . ... : ... .. . ... : ... .. . ... ... : ... .. 6 ... ... : ... .. . ... ... : ... .. . ... ...
ROW 0B : ... .. A ... ... ... : ... .. A ... ... ... : D#3 00 . ... : ... .. A ... : ... .. . ... ... : ... .. 5 ... ... : ... .. . ... ... : ... .. . ... ...
ROW 0C : ... .. . ... ... ... : ... .. . ... ... ... : A#2 00 . ... : ... .. 8 ... : ... .. . ... ... : F-4 01 8 ... ... : ... .. . ... ... : ... .. . ... ...
ROW 0D : ... .. . ... ... ... : ... .. . ... ... ... : ... .. . ... : ... .. 7 ... : ... .. . ... ... : ... .. 7 ... ... : ... .. . ... ... : ... .. . ... ...
ROW 0E : ... .. . ... ... ... : ... .. . ... ... ... : ... .. . ... : ... .. 6 ... : ... .. . ... ... : ... .. 6 ... ... : ... .. . ... ... : ... .. . ... ...
ROW 0F : ... .. . ... ... ... : ... .. . ... ... ... : ... .. . ... : ... .. . ... : ... .. . ... ... : ... .. 5 ... ... : ... .. . ... ... : ... .. . ... ...
ROW 10 : ... .. . ... ... ... : ... .. . ... ... ... : ... .. . ... : ... .. 5 ... : ... .. . ... ... : C#4 01 8 ... ... : ... .. . ... ... : ... .. . ... ...
ROW 11 : ... .. . ... ... ... : ... .. . ... ... ... : ... .. . ... : ... .. . ... : ... .. . ... ... : ... .. 7 ... ... : ... .. . ... ... : ... .. . ... ...
ROW 12 : ... .. . ... ... ... : ... .. . ... ... ... : ... .. . ... : ... .. 4 ... : ... .. . ... ... : ... .. 6 ... ... : ... .. . ... ... : ... .. . ... ...
ROW 13 : ... .. . ... ... ... : ... .. . ... ... ... : ... .. . ... : ... .. . ... : ... .. . ... ... : ... .. 5 ... ... : ... .. . ... ... : ... .. . ... ...
ROW 14 : ... .. . ... ... ... : ... .. . ... ... ... : A-3 00 . ... : 1-# 00 F ... : ... .. . ... ... : A#3 01 8 ... ... : ... .. . P84 ... : ... .. . P85 ...
ROW 15 : ... .. . ... ... ... : ... .. . ... ... ... : B-2 00 . ... : ... .. C ... : ... .. . ... ... : ... .. 7 ... ... : ... .. . P86 ... : ... .. . P87 ...
ROW 16 : ... .. . ... ... ... : ... .. . ... ... ... : E-2 00 . ... : ... .. 6 ... : ... .. . ... ... : ... .. 6 ... ... : ... .. . P85 ... : ... .. . P86 ...
ROW 17 : ... .. . ... ... ... : ... .. . ... ... ... : D#2 00 . ... : ... .. 3 ... : ... .. . ... ... : ... .. 5 ... ... : ... .. . P82 ... : ... .. . P83 ...
ROW 18 : ... .. . ... ... ... : ... .. . ... ... ... : A#1 00 . ... : ... .. 2 ... : ... .. . ... ... : F-3 01 8 ... ... : ... .. . P7E ... : ... .. . P7F ...
ROW 19 : ... .. . ... ... ... : ... .. . ... ... ... : ... .. . ... : ... .. 0 ... : ... .. . ... ... : ... .. 7 ... ... : ... .. . P7B ... : ... .. . P7C ...
ROW 1A : ... .. . ... ... ... : ... .. . ... ... ... : A-3 00 . ... : ... .. F ... : ... .. . ... ... : ... .. 6 ... ... : ... .. . P7A ... : ... .. . P7B ...
ROW 1B : ... .. . ... ... ... : ... .. . ... ... ... : B-2 00 . ... : ... .. C ... : ... .. . ... ... : ... .. 5 ... ... : ... .. . P7C ... : ... .. . P7D ...
ROW 1C : ... .. . ... ... ... : ... .. . ... ... ... : E-2 00 . ... : ... .. 6 ... : ... .. . ... ... : C#3 01 8 ... ... : ... .. . P80 ... : ... .. . P81 ...
ROW 1D : ... .. . ... ... ... : ... .. . ... ... ... : D#2 00 . ... : ... .. 3 ... : ... .. . ... ... : ... .. 7 ... ... : ... .. . P83 ... : ... .. . P84 ...
ROW 1E : ... .. . ... ... ... : ... .. . ... ... ... : A#1 00 . ... : ... .. 2 ... : ... .. . ... ... : ... .. 6 ... ... : ... .. . P86 ... : ... .. . P87 ...
ROW 1F : ... .. . ... ... ... : ... .. . ... ... ... : ... .. . ... : ... .. 0 ... : ... .. . ... ... : ... .. 5 ... ... : ... .. . ... ... : ... .. . ... ...
ROW 20 : ... .. . ... ... ... : ... .. . ... ... ... : A-4 00 . ... : B-# 00 D ... : ... .. . ... ... : A#4 01 8 ... ... : ... .. . P82 ... : ... .. . P83 ...
ROW 21 : ... .. . ... ... ... : ... .. . ... ... ... : B-3 00 . ... : ... .. B ... : ... .. . ... ... : ... .. 7 ... ... : ... .. . P7F ... : ... .. . P80 ...
ROW 22 : ... .. . ... ... ... : ... .. . ... ... ... : E-3 00 . ... : ... .. . ... : ... .. . ... ... : ... .. 6 ... ... : ... .. . P7B ... : ... .. . P7C ...
ROW 23 : ... .. . ... ... ... : ... .. . ... ... ... : D#3 00 . ... : ... .. A ... : ... .. . ... ... : ... .. 5 ... ... : ... .. . P7A ... : ... .. . P7B ...
ROW 24 : ... .. . ... ... ... : ... .. . ... ... ... : A#2 00 . ... : ... .. 8 ... : ... .. . ... ... : F-4 01 8 ... ... : ... .. . P7C ... : ... .. . P7D ...
ROW 25 : ... .. . ... ... ... : ... .. . ... ... ... : ... .. . ... : ... .. 7 ... : ... .. . ... ... : ... .. 7 ... ... : ... .. . P80 ... : ... .. . P81 ...
ROW 26 : ... .. . ... ... ... : ... .. . ... ... ... : ... .. . ... : ... .. 6 ... : ... .. . ... ... : ... .. 6 ... ... : ... .. . P83 ... : ... .. . P84 ...
ROW 27 : ... .. . ... ... ... : ... .. . ... ... ... : ... .. . ... : ... .. . ... : ... .. . ... ... : ... .. 5 ... ... : ... .. . P86 ... : ... .. . P87 ...
ROW 28 : ... .. . ... ... ... : ... .. . ... ... ... : ... .. . ... : ... .. 5 ... : ... .. . ... ... : C#4 01 8 ... ... : ... .. . ... ... : ... .. . ... ...
ROW 29 : ... .. . ... ... ... : ... .. . ... ... ... : ... .. . ... : ... .. . ... : ... .. . ... ... : ... .. 7 ... ... : ... .. . P83 ... : ... .. . P84 ...
ROW 2A : ... .. . ... ... ... : ... .. . ... ... ... : ... .. . ... : ... .. 4 ... : ... .. . ... ... : ... .. 6 ... ... : ... .. . P80 ... : ... .. . P81 ...
ROW 2B : ... .. . ... ... ... : ... .. . ... ... ... : ... .. . ... : ... .. . ... : ... .. . ... ... : ... .. 5 ... ... : ... .. . P7C ... : ... .. . P7D ...
ROW 2C : ... .. . ... ... ... : ... .. . ... ... ... : A-3 00 . ... : 1-# 00 F ... : ... .. . ... ... : A#3 01 8 ... ... : ... .. . P7A ... : ... .. . P7B ...
ROW 2D : ... .. . ... ... ... : ... .. . ... ... ... : B-2 00 . ... : ... .. C ... : ... .. . ... ... : ... .. 7 ... ... : ... .. . P7B ... : ... .. . P7C ...
ROW 2E : ... .. . ... ... ... : ... .. . ... ... ... : E-2 00 . ... : ... .. 6 ... : ... .. . ... ... : ... .. 6 ... ... : ... .. . P7F ... : ... .. . P80 ...
ROW 2F : ... .. . ... ... ... : ... .. . ... ... ... : D#2 00 . ... : ... .. 3 ... : ... .. . ... ... : ... .. 5 ... ... : ... .. . P82 ... : ... .. . P83 ...
ROW 30 : ... .. . ... ... ... : ... .. . ... ... ... : A#1 00 . ... : ... .. 2 ... : ... .. . ... ... : F-3 01 8 ... ... : ... .. . P86 ... : ... .. . P87 ...
ROW 31 : ... .. . ... ... ... : ... .. . ... ... ... : ... .. . ... : ... .. 0 ... : ... .. . ... ... : ... .. 7 ... ... : ... .. . ... ... : ... .. . ... ...
ROW 32 : ... .. . ... ... ... : ... .. . ... ... ... : A-3 00 . ... : ... .. F ... : ... .. . ... ... : ... .. 6 ... ... : ... .. . P83 ... : ... .. . P84 ...
ROW 33 : ... .. 2 ... ... ... : ... .. 2 ... ... ... : B-2 00 . ... : ... .. C ... : ... .. . ... ... : ... .. 5 ... ... : ... .. . P80 ... : ... .. 4 P81 ...
ROW 34 : ... .. . ... ... ... : ... .. . ... ... ... : E-2 00 . ... : ... .. 6 ... : ... .. . ... ... : C#3 01 8 ... ... : ... .. 3 P7C ... : ... .. . P7D ...
ROW 35 : ... .. . ... ... ... : ... .. . ... ... ... : D#2 00 . ... : ... .. 3 ... : ... .. . ... ... : ... .. 7 ... ... : ... .. . P7A ... : ... .. 1 P7B ...
ROW 36 : ... .. 1 ... ... ... : ... .. 1 ... ... ... : A#1 00 . ... : ... .. 2 ... : ... .. . ... ... : ... .. 6 ... ... : ... .. . P7B ... : ... .. . P7C ...
ROW 37 : ... .. . ... ... ... : ... .. . ... ... ... : ... .. . ... : ... .. 0 ... : ... .. . ... ... : ... .. 5 ... ... : ... .. . P7E ... : ... .. . P7F ...
ROW 38 : G-3 00 F ... ... ... : G-2 00 F ... ... ... : A-4 00 . ... : B-# 00 D ... : ... .. . ... ... : A#4 01 8 ... ... : A#3 01 8 P82 ... : D#3 01 F P81 ...
ROW 39 : ... .. E ... ... ... : ... .. E ... ... ... : B-3 00 . ... : ... .. B ... : ... .. . ... ... : ... .. 7 ... ... : ... .. 7 P85 ... : ... .. D ... ...
ROW 3A : ... .. D ... ... ... : ... .. D ... ... ... : E-3 00 . ... : ... .. . ... : ... .. . ... ... : ... .. 6 ... ... : ... .. 6 P86 ... : ... .. 8 ... ...
ROW 3B : ... .. A ... ... ... : ... .. A ... ... ... : D#3 00 . ... : ... .. A ... : ... .. . ... ... : ... .. 5 ... ... : ... .. 4 P84 ... : ... .. . ... ...
ROW 3C : ... .. . ... ... ... : ... .. . ... ... ... : A#2 00 . ... : ... .. 8 ... : ... .. . ... ... : G-4 01 8 ... ... : ... .. . P80 ... : ... .. . ... ...
ROW 3D : ... .. . ... ... ... : ... .. . ... ... ... : ... .. . ... : ... .. 7 ... : ... .. . ... ... : ... .. 7 ... ... : ... .. 2 P7D ... : ... .. . ... ...
ROW 3E : ... .. . ... ... ... : ... .. . ... ... ... : ... .. . ... : ... .. 6 ... : ... .. . ... ... : ... .. 6 ... ... : ... .. 8 P7A ... : A#2 01 F ... ...
ROW 3F : ... .. . ... ... ... : ... .. . ... ... ... : ... .. . ... : ... .. . ... : ... .. . ... ... : ... .. 5 ... ... : ... .. 7 ... ... : ... .. D ... ...
ROW 40 : ... .. . ... ... ... : ... .. . ... ... ... : ... .. . ... : ... .. 5 ... : ... .. . ... ... : D#4 01 8 ... ... : ... .. 6 P7E ... : ... .. 8 ... ...
ROW 41 : ... .. . ... ... ... : ... .. . ... ... ... : ... .. . ... : ... .. . ... : ... .. . ... ... : ... .. 7 ... ... : ... .. 5 P81 ... : ... .. . ... ...
ROW 42 : ... .. . ... ... ... : ... .. . ... ... ... : ... .. . ... : ... .. 4 ... : ... .. . ... ... : ... .. 6 ... ... : ... .. . P85 ... : ... .. . ... ...
ROW 43 : ... .. . ... ... ... : ... .. . ... ... ... : ... .. . ... : ... .. . ... : ... .. . ... ... : ... .. 5 ... ... : ... .. 4 P86 ... : ... .. . ... ...
ROW 44 : ... .. . ... ... ... : ... .. . ... ... ... : ... .. . ... : 1-# 00 F ... : ... .. . ... ... : A#3 01 8 ... ... : ... .. . P84 ... : G-2 01 F ... ...
ROW 45 : ... .. . ... ... ... : ... .. . ... ... ... : ... .. . ... : ... .. C ... : ... .. . ... ... : ... .. 7 ... ... : ... .. . P80 ... : ... .. D ... ...
ROW 46 : ... .. . ... ... ... : ... .. . ... ... ... : ... .. . ... : ... .. 6 ... : ... .. . ... ... : ... .. 6 ... ... : ... .. 2 P7D ... : ... .. 8 ... ...
ROW 47 : ... .. . ... ... ... : ... .. . ... ... ... : ... .. . ... : ... .. 3 ... : ... .. . ... ... : ... .. 5 ... ... : ... .. . P7A ... : ... .. . ... ...
ROW 48 : ... .. . ... ... ... : ... .. . ... ... ... : ... .. . ... : ... .. 2 ... : ... .. . ... ... : G-3 01 8 ... ... : ... .. . ... ... : ... .. . ... ...
ROW 49 : ... .. . ... ... ... : ... .. . ... ... ... : ... .. . ... : ... .. 0 ... : ... .. . ... ... : ... .. 7 ... ... : ... .. . P7D ... : ... .. . ... ...
ROW 4A : ... .. . ... ... ... : ... .. . ... ... ... : E-5 00 . ... : ... .. F ... : ... .. . ... ... : ... .. 6 ... ... : ... .. 8 P80 ... : F-2 01 F ... ...
ROW 4B : ... .. . ... ... ... : ... .. . ... ... ... : F#4 00 . ... : ... .. C ... : ... .. . ... ... : ... .. 5 ... ... : ... .. 7 P84 ... : ... .. D ... ...
ROW 4C : ... .. . ... ... ... : ... .. . ... ... ... : B-3 00 . ... : ... .. 6 ... : ... .. . ... ... : D#3 01 8 ... ... : ... .. 6 P86 ... : ... .. 8 ... ...
ROW 4D : ... .. . ... ... ... : ... .. . ... ... ... : A#3 00 . ... : ... .. 3 ... : ... .. . ... ... : ... .. 7 ... ... : ... .. 4 P85 ... : ... .. . ... ...
ROW 4E : ... .. . ... ... ... : ... .. . ... ... ... : F-3 00 . ... : ... .. 2 ... : ... .. . ... ... : ... .. 6 ... ... : ... .. . P81 ... : ... .. . ... ...
ROW 4F : ... .. . ... ... ... : ... .. . ... ... ... : ... .. . ... : ... .. 0 ... : ... .. . ... ... : ... .. 5 ... ... : ... .. 2 P7E ... : ... .. . ... ...
ROW 50 : ... .. . ... ... ... : ... .. . ... ... ... : ... .. . ... : ... .. F ... : ... .. . ... ... : A#4 01 8 ... ... : ... .. 8 P7A ... : G-2 01 F ... ...
ROW 51 : ... .. . ... ... ... : ... .. . ... ... ... : ... .. . ... : ... .. C ... : ... .. . ... ... : ... .. 7 ... ... : ... .. 7 ... ... : ... .. D ... ...
ROW 52 : ... .. . ... ... ... : ... .. . ... ... ... : ... .. . ... : ... .. 6 ... : ... .. . ... ... : ... .. 6 ... ... : ... .. 6 P7D ... : ... .. 8 ... ...
ROW 53 : ... .. . ... ... ... : ... .. . ... ... ... : ... .. . ... : ... .. 3 ... : ... .. . ... ... : ... .. 5 ... ... : ... .. 5 P80 ... : ... .. . ... ...
ROW 54 : ... .. . ... ... ... : ... .. . ... ... ... : ... .. . ... : ... .. 2 ... : ... .. . ... ... : G-4 01 8 ... ... : ... .. . P84 ... : ... .. . ... ...
ROW 55 : ... .. . ... ... ... : ... .. . ... ... ... : ... .. . ... : ... .. 0 ... : ... .. . ... ... : ... .. 7 ... ... : ... .. 4 P86 ... : ... .. . ... ...
ROW 56 : ... .. . ... ... ... : ... .. . ... ... ... : ... .. . ... : ... .. F ... : ... .. . ... ... : ... .. 6 ... ... : ... .. . P85 ... : A#2 01 F ... ...
ROW 57 : ... .. . ... ... ... : ... .. . ... ... ... : ... .. . ... : ... .. C ... : ... .. . ... ... : ... .. 5 ... ... : ... .. . P82 ... : ... .. D ... ...
ROW 58 : ... .. . ... ... ... : ... .. . ... ... ... : ... .. . ... : ... .. 6 ... : ... .. . ... ... : D#4 01 8 ... ... : ... .. 2 P7E ... : ... .. 8 ... ...
ROW 59 : ... .. . ... ... ... : ... .. . ... ... ... : ... .. . ... : ... .. 3 ... : ... .. . ... ... : ... .. 7 ... ... : ... .. . P7B ... : ... .. . ... ...
ROW 5A : ... .. . ... ... ... : ... .. . ... ... ... : ... .. . ... : ... .. 2 ... : ... .. . ... ... : ... .. 6 ... ... : ... .. . P7A ... : ... .. . ... ...
ROW 5B : ... .. . ... ... ... : ... .. . ... ... ... : ... .. . ... : ... .. 0 ... : ... .. . ... ... : ... .. 5 ... ... : ... .. . P7C ... : ... .. . ... ...
ROW 5C : ... .. . P84 ... ... : ... .. . P89 ... ... : D-5 00 . ... : B-# 00 D ... : ... .. . ... ... : A#3 01 8 ... ... : ... .. 8 P80 ... : D#3 01 F ... ...
ROW 5D : ... .. . P86 ... ... : ... .. . P8B ... ... : E-4 00 . ... : ... .. B ... : ... .. . ... ... : ... .. 7 ... ... : ... .. 7 P83 ... : ... .. D ... ...
ROW 5E : ... .. . P85 ... ... : ... .. . P8A ... ... : A-3 00 . ... : ... .. . ... : ... .. . ... ... : ... .. 6 ... ... : ... .. 6 P86 ... : ... .. 8 ... ...
ROW 5F : ... .. . P82 ... ... : ... .. . P87 ... ... : G#3 00 . ... : ... .. A ... : ... .. . ... ... : ... .. 5 ... ... : ... .. 4 ... ... : ... .. . ... ...
ROW 60 : ... .. . P7E ... ... : ... .. . P83 ... ... : D#3 00 . ... : ... .. 8 ... : ... .. . ... ... : G-3 01 8 ... ... : ... .. . P82 ... : ... .. . ... ...
ROW 61 : ... .. . P7B ... ... : ... .. . P80 ... ... : ... .. . ... : ... .. 7 ... : ... .. . ... ... : ... .. 7 ... ... : ... .. 2 P7F ... : ... .. . ... ...
ROW 62 : ... .. . P7A ... ... : ... .. . P7F ... ... : F-3 00 . ... : ... .. 6 ... : ... .. . ... ... : ... .. 6 ... ... : ... .. 8 P7B ... : F-3 01 F ... ...
ROW 63 : ... .. . P7C ... ... : ... .. . P81 ... ... : ... .. . ... : ... .. . ... : ... .. . ... ... : ... .. 5 ... ... : ... .. 7 P7A ... : ... .. D ... ...
ROW 64 : ... .. . P80 ... ... : ... .. . P85 ... ... : ... .. . ... : ... .. 5 ... : ... .. . ... ... : D#3 01 8 ... ... : ... .. 6 P7C ... : ... .. 8 ... ...
ROW 65 : ... .. . P83 ... ... : ... .. . P88 ... ... : ... .. . ... : ... .. . ... : ... .. . ... ... : ... .. 7 ... ... : ... .. 5 P80 ... : ... .. . ... ...
ROW 66 : ... .. . P86 ... ... : ... .. . P8B ... ... : ... .. . ... : ... .. 4 ... : ... .. . ... ... : ... .. 6 ... ... : ... .. . P83 ... : ... .. . ... ...
ROW 67 : ... .. . ... ... ... : ... .. . ... ... ... : ... .. . ... : ... .. . ... : ... .. . ... ... : ... .. 5 ... ... : ... .. 4 P86 ... : ... .. . ... ...
ROW 68 : ... .. . P82 ... ... : ... .. . P87 ... ... : G-3 00 . ... : 1-# 00 F ... : ... .. . ... ... : G-4 01 8 ... ... : ... .. . ... ... : G-3 01 F ... ...
ROW 69 : ... .. . P7F ... ... : ... .. . P84 ... ... : ... .. . ... : ... .. C ... : ... .. . ... ... : ... .. 7 ... ... : ... .. . P83 ... : ... .. D ... ...
ROW 6A : ... .. . P7B ... ... : ... .. . P80 ... ... : ... .. . ... : ... .. 6 ... : ... .. . ... ... : ... .. 6 ... ... : ... .. 2 P80 ... : ... .. 8 ... ...
ROW 6B : ... .. . P7A ... ... : ... .. . P7F ... ... : ... .. . ... : ... .. 3 ... : ... .. . ... ... : ... .. 5 ... ... : ... .. . P7C ... : ... .. . ... ...
ROW 6C : ... .. . P7C ... ... : ... .. . P81 ... ... : ... .. . ... : ... .. 2 ... : ... .. . ... ... : D#4 01 8 ... ... : ... .. . P7A ... : ... .. . ... ...
ROW 6D : ... .. . P80 ... ... : ... .. . P85 ... ... : ... .. . ... : ... .. 0 ... : ... .. . ... ... : ... .. 7 ... ... : ... .. . P7B ... : ... .. . ... ...
ROW 6E : ... .. . P83 ... ... : ... .. . P88 ... ... : A#3 00 . ... : ... .. F ... : ... .. . ... ... : ... .. 6 ... ... : ... .. 8 P7F ... : D#3 01 F ... ...
ROW 6F : ... .. . P86 ... ... : ... .. . P8B ... ... : ... .. . ... : ... .. C ... : ... .. . ... ... : ... .. 5 ... ... : ... .. 7 P82 ... : ... .. D ... ...
ROW 70 : ... .. . ... ... ... : ... .. . ... ... ... : ... .. . ... : ... .. 6 ... : ... .. . ... ... : A#3 01 8 ... ... : ... .. 6 P86 ... : ... .. 8 ... ...
ROW 71 : ... .. . P83 ... ... : ... .. . P88 ... ... : ... .. . ... : ... .. 3 ... : ... .. . ... ... : ... .. 7 ... ... : ... .. 4 ... ... : ... .. . ... ...
ROW 72 : ... .. . P80 ... ... : ... .. . P85 ... ... : ... .. . ... : ... .. 2 ... : ... .. . ... ... : ... .. 6 ... ... : ... .. . P83 ... : ... .. . ... ...
ROW 73 : ... .. . P7C ... ... : ... .. . P81 ... ... : ... .. . ... : ... .. 0 ... : ... .. . ... ... : ... .. 5 ... ... : ... .. 2 P80 ... : ... .. . ... ...
ROW 74 : ... .. . P7A ... ... : ... .. . P7F ... ... : D#4 00 . ... : ... .. F ... : ... .. . ... ... : G-3 01 8 ... ... : ... .. 8 P7C ... : G-3 01 F ... ...
ROW 75 : ... .. . P7B ... ... : ... .. . P80 ... ... : ... .. . ... : ... .. C ... : ... .. . ... ... : ... .. 7 ... ... : ... .. 7 P7A ... : ... .. D ... ...
ROW 76 : ... .. . P7F ... ... : ... .. . P84 ... ... : ... .. . ... : ... .. 6 ... : ... .. . ... ... : ... .. 6 ... ... : ... .. 6 P7B ... : ... .. 8 ... ...
ROW 77 : ... .. . P82 ... ... : ... .. . P87 ... ... : ... .. . ... : ... .. 3 ... : ... .. . ... ... : ... .. 5 ... ... : ... .. 5 P7E ... : ... .. . ... ...
ROW 78 : ... .. . P86 ... ... : ... .. . P8B ... ... : ... .. . ... : ... .. 2 ... : ... .. . ... ... : D#3 01 8 ... ... : ... .. . P82 ... : ... .. . ... ...
ROW 79 : ... .. . ... ... ... : ... .. . ... ... ... : ... .. . ... : ... .. 0 ... : ... .. . ... ... : ... .. 7 ... ... : ... .. 4 P85 ... : ... .. . ... ...
ROW 7A : ... .. . P83 ... ... : ... .. . P88 ... ... : F-4 00 . ... : ... .. F ... : ... .. . ... ... : ... .. 6 ... ... : ... .. . P86 ... : A#3 01 F ... ...
ROW 7B : ... .. . P80 ... ... : ... .. . P85 ... ... : ... .. . ... : ... .. C ... : ... .. . ... ... : ... .. 5 ... ... : ... .. . P84 ... : ... .. D ... ...
ROW 7C : ... .. . P7C ... ... : ... .. . P81 ... ... : ... .. . ... : ... .. 6 ... : ... .. . ... ... : A#2 01 8 ... ... : ... .. 2 P80 ... : ... .. 8 ... ...
ROW 7D : ... .. . P7A ... ... : ... .. . P7F ... ... : ... .. . ... : ... .. 3 ... : ... .. . ... ... : ... .. 7 ... ... : ... .. . P7D ... : ... .. . ... ...
ROW 7E : ... .. . P7B ... ... : ... .. . P80 ... ... : ... .. . ... : ... .. 2 ... : ... .. . ... ... : ... .. 6 ... ... : ... .. . P7A ... : ... .. . ... ...
ROW 7F : ... .. . P7E ... ... : ... .. . P83 ... ... : ... .. . ... : ... .. 0 ... : ... .. . ... ... : ... .. 5 ... ... : ... .. . ... ... : ... .. . ... ...
ROW 80 : D#4 00 F P80 V02 ... : D#2 00 F P85 ... ... : G-4 00 . ... : 9-# 00 D ... : ... .. . ... ... : A#3 01 8 ... ... : ... .. 8 P7E ... : D#4 01 F ... ...
ROW 81 : ... .. E ... ... ... : ... .. E ... ... ... : ... .. . ... : ... .. B ... : ... .. . ... ... : ... .. 7 ... ... : ... .. 7 P81 ... : ... .. D ... ...
ROW 82 : ... .. D ... ... ... : ... .. D ... ... ... : ... .. . ... : ... .. . ... : ... .. . ... ... : ... .. 6 ... ... : ... .. 6 P85 ... : ... .. 8 ... ...
ROW 83 : ... .. A ... ... ... : ... .. A P80 ... ... : ... .. . ... : ... .. A ... : ... .. . ... ... : ... .. 5 ... ... : ... .. 4 P86 ... : ... .. . ... ...
ROW 84 : ... .. . ... ... ... : ... .. . ... ... ... : ... .. . ... : ... .. 8 ... : ... .. . ... ... : G-3 01 8 ... ... : ... .. . P84 ... : ... .. 4 ... ...
ROW 85 : ... .. . ... ... ... : ... .. . ... ... ... : ... .. . ... : ... .. 7 ... : ... .. . ... ... : ... .. 7 ... ... : ... .. 2 P80 ... : ... .. . ... ...
ROW 86 : ... .. . ... ... ... : ... .. . ... ... ... : A#4 00 . ... : 7-# 00 D ... : ... .. . ... ... : ... .. 6 ... ... : ... .. 8 P7D ... : A#3 01 F ... ...
ROW 87 : ... .. . ... ... ... : ... .. . ... ... ... : ... .. . ... : ... .. B ... : ... .. . ... ... : ... .. 5 ... ... : ... .. 7 P7A ... : ... .. D ... ...
ROW 88 : ... .. . ... ... ... : ... .. . ... ... ... : ... .. . ... : ... .. . ... : ... .. . ... ... : D#3 01 8 ... ... : ... .. 6 ... ... : ... .. 8 ... ...
ROW 89 : ... .. . ... ... ... : ... .. . ... ... ... : ... .. . ... : ... .. A ... : ... .. . ... ... : ... .. 7 ... ... : ... .. 4 P7D ... : ... .. . ... ...
ROW 8A : ... .. 2 ... ... ... : ... .. 2 ... ... ... : ... .. . ... : ... .. 8 ... : ... .. . ... ... : ... .. 6 ... ... : ... .. . P80 ... : ... .. 4 ... ...
ROW 8B : ... .. . ... ... ... : ... .. . ... ... ... : ... .. . ... : ... .. 7 ... : ... .. . ... ... : ... .. 5 ... ... : ... .. 2 P84 ... : ... .. . ... ...
ROW 8C : F-4 00 F ... ... ... : F-2 00 F ... ... ... : D#5 00 . ... : 5-# 00 D ... : ... .. . ... ... : A#2 01 8 ... ... : ... .. 8 P86 ... : D#4 01 F ... ...
ROW 8D : ... .. E ... ... ... : ... .. E ... ... ... : ... .. . ... : ... .. B ... : ... .. . ... ... : ... .. 7 ... ... : ... .. 7 P85 ... : ... .. D ... ...
ROW 8E : ... .. D ... ... ... : ... .. D ... ... ... : ... .. . ... : ... .. . ... : ... .. . ... ... : ... .. 6 ... ... : ... .. 6 P81 ... : ... .. 8 ... ...
ROW 8F : ... .. A ... ... ... : ... .. A ... ... ... : ... .. . ... : ... .. A ... : ... .. . ... ... : ... .. 5 ... ... : ... .. 4 P7E ... : ... .. . ... ...
ROW 90 : ... .. . ... ... ... : ... .. . ... ... ... : ... .. . ... : ... .. 8 ... : ... .. . ... ... : G-2 01 8 ... ... : ... .. . P7A ... : ... .. 4 ... ...
ROW 91 : ... .. . ... ... ... : ... .. . ... ... ... : ... .. . ... : ... .. 7 ... : ... .. . ... ... : ... .. 7 ... ... : ... .. 2 ... ... : ... .. . ... ...
ROW 92 : ... .. . ... ... ... : ... .. . ... ... ... : F-5 00 . ... : 4-# 00 D ... : ... .. . ... ... : ... .. 6 ... ... : ... .. 8 P7D ... : F-4 01 F ... ...
ROW 93 : ... .. . ... ... ... : ... .. . ... ... ... : ... .. . ... : ... .. B ... : ... .. . ... ... : ... .. 5 ... ... : ... .. 7 P80 ... : ... .. D ... ...
ROW 94 : ... .. . ... ... ... : ... .. . ... ... ... : ... .. . ... : ... .. . ... : ... .. . ... ... : D#2 01 8 ... ... : ... .. 6 P84 ... : ... .. 8 ... ...
ROW 95 : ... .. . ... ... ... : ... .. . ... ... ... : ... .. . ... : ... .. A ... : ... .. . ... ... : ... .. 7 ... ... : ... .. 4 P86 ... : ... .. . ... ...
ROW 96 : ... .. 2 ... ... ... : ... .. 2 ... ... ... : ... .. . ... : ... .. 8 ... : ... .. . ... ... : ... .. 6 ... ... : ... .. . P85 ... : ... .. 4 ... ...
ROW 97 : ... .. . ... ... ... : ... .. . ... ... ... : ... .. . ... : ... .. 7 ... : ... .. . ... ... : ... .. 5 ... ... : ... .. 2 P82 ... : ... .. . ... ...
ROW 98 : F#4 00 F ... ... ... : F#2 00 F ... ... ... : F#5 00 . ... : B-# 00 D ... : ... .. . ... ... : F#5 01 8 ... ... : A#2 01 8 P7E ... : ... .. 1 ... ...
ROW 99 : ... .. E ... ... ... : ... .. E ... ... ... : ... .. . ... : ... .. B ... : ... .. . ... ... : ... .. 7 ... ... : ... .. 7 P7B ... : ... .. . ... ...
ROW 9A : ... .. D ... ... ... : ... .. D ... ... ... : ... .. . ... : ... .. . ... : ... .. . ... ... : ... .. 6 ... ... : ... .. 6 P7A ... : ... .. . ... ...
ROW 9B : ... .. A ... ... ... : A#2 00 F ... ... ... : ... .. . ... : ... .. A ... : ... .. . ... ... : ... .. 5 ... ... : ... .. 4 P7C ... : ... .. . ... ...
ROW 9C : ... .. . ... ... ... : ... .. E ... ... ... : ... .. . ... : ... .. 8 ... : ... .. . ... ... : C#5 01 8 ... ... : ... .. . P80 ... : ... .. . ... ...
ROW 9D : ... .. . ... ... ... : ... .. D ... ... ... : ... .. . ... : ... .. 7 ... : ... .. . ... ... : ... .. 7 ... ... : ... .. 2 P83 ... : ... .. . ... ...
ROW 9E : ... .. . ... ... ... : C-3 00 F ... ... ... : ... .. . ... : ... .. 6 ... : ... .. . ... ... : ... .. 6 ... ... : C-3 01 8 P86 ... : ... .. . ... ...
ROW 9F : ... .. . ... ... ... : ... .. E ... ... ... : ... .. . ... : ... .. . ... : ... .. . ... ... : ... .. 5 ... ... : ... .. 7 ... ... : ... .. 0 ... ...
ROW A0 : ... .. . ... ... ... : ... .. D ... ... ... : ... .. . ... : ... .. 5 ... : ... .. . ... ... : A#4 01 8 ... ... : ... .. 6 P82 ... : ... .. . ... ...
ROW A1 : ... .. . ... ... ... : C#3 00 F ... ... ... : ... .. . ... : ... .. . ... : ... .. . ... ... : ... .. 7 ... ... : ... .. 5 P7F ... : ... .. . ... ...
ROW A2 : ... .. . ... ... ... : ... .. E ... ... ... : ... .. . ... : ... .. 4 ... : ... .. . ... ... : ... .. 6 ... ... : ... .. . P7B ... : ... .. . ... ...
ROW A3 : ... .. . ... ... ... : ... .. D ... ... ... : ... .. . ... : ... .. . ... : ... .. . ... ... : ... .. 5 ... ... : ... .. 4 P7A ... : ... .. . ... ...
ROW A4 : ... .. . ... ... ... : D#3 00 F ... ... ... : F-4 00 . ... : 1-# 00 F ... : ... .. . ... ... : F#4 01 8 ... ... : A#2 01 8 P7C ... : ... .. . ... ...
ROW A5 : ... .. . ... ... ... : ... .. E ... ... ... : G-3 00 . ... : ... .. C ... : ... .. . ... ... : ... .. 7 ... ... : ... .. 7 P80 ... : ... .. . ... ...
ROW A6 : ... .. . ... ... ... : ... .. D ... ... ... : C-3 00 . ... : ... .. 6 ... : ... .. . ... ... : ... .. 6 ... ... : ... .. 6 P83 ... : ... .. . ... ...
ROW A7 : ... .. . ... ... ... : F-3 00 F ... ... ... : B-2 00 . ... : ... .. 3 ... : ... .. . ... ... : ... .. 5 ... ... : ... .. 5 P86 ... : ... .. . ... ...
ROW A8 : ... .. . ... ... ... : ... .. E ... ... ... : F#2 00 . ... : ... .. 2 ... : ... .. . ... ... : C#4 01 8 ... ... : ... .. . ... ... : ... .. . ... ...
ROW A9 : ... .. . ... ... ... : ... .. D ... ... ... : ... .. . ... : ... .. 0 ... : ... .. . ... ... : ... .. 7 ... ... : ... .. 4 P83 ... : ... .. . ... ...
ROW AA : ... .. . ... ... ... : F#3 00 F ... ... ... : F-4 00 . ... : ... .. F ... : ... .. . ... ... : ... .. 6 ... ... : G#2 01 8 P80 ... : ... .. . ... ...
ROW AB : ... .. . ... ... ... : ... .. E ... ... ... : G-3 00 . ... : ... .. C ... : ... .. . ... ... : ... .. 5 ... ... : ... .. 7 P7C ... : ... .. . ... ...
ROW AC : ... .. . ... ... ... : ... .. D ... ... ... : C-3 00 . ... : ... .. 6 ... : ... .. . ... ... : A#3 01 8 ... ... : ... .. 6 P7A ... : ... .. . ... ...
ROW AD : ... .. . ... ... ... : G#3 00 F ... ... ... : B-2 00 . ... : ... .. 3 ... : ... .. . ... ... : ... .. 7 ... ... : ... .. 4 P7B ... : ... .. . ... ...
ROW AE : ... .. . ... ... ... : ... .. E ... ... ... : F#2 00 . ... : ... .. 2 ... : ... .. . ... ... : ... .. 6 ... ... : ... .. . P7F ... : ... .. . ... ...
ROW AF : ... .. . ... ... ... : ... .. D ... ... ... : ... .. . ... : ... .. 0 ... : ... .. . ... ... : ... .. 5 ... ... : ... .. 2 P82 ... : ... .. . ... ...
ROW B0 : ... .. . ... ... ... : A#3 00 F ... ... ... : F-5 00 . ... : B-# 00 D ... : ... .. . ... ... : F#5 01 8 ... ... : A#2 01 8 P86 ... : F#3 01 F ... ...
ROW B1 : ... .. . ... ... ... : ... .. E ... ... ... : G-4 00 . ... : ... .. B ... : ... .. . ... ... : ... .. 7 ... ... : ... .. 7 ... ... : ... .. D ... ...
ROW B2 : ... .. . ... ... ... : ... .. D ... ... ... : C-4 00 . ... : ... .. . ... : ... .. . ... ... : ... .. 6 ... ... : ... .. 6 P83 ... : ... .. 8 ... ...
ROW B3 : ... .. . P84 ... ... : ... .. A ... ... ... : B-3 00 . ... : ... .. A ... : ... .. . ... ... : ... .. 5 ... ... : ... .. 5 P80 ... : ... .. . ... ...
ROW B4 : G-4 00 A P7E ... ... : ... .. . ... ... ... : F#3 00 . ... : ... .. 8 ... : ... .. . ... ... : C#5 01 8 ... ... : ... .. . P7C ... : ... .. . ... ...
ROW B5 : ... .. . P7D ... ... : ... .. . ... ... ... : ... .. . ... : ... .. 7 ... : ... .. . ... ... : ... .. 7 ... ... : ... .. 4 P7A ... : ... .. . ... ...
ROW B6 : F#4 00 A P82 ... ... : ... .. . ... ... ... : ... .. . ... : ... .. 6 ... : ... .. . ... ... : ... .. 6 ... ... : C-3 01 8 P7B ... : ... .. . ... ...
ROW B7 : ... .. . P7E ... ... : ... .. . ... ... ... : ... .. . ... : ... .. . ... : ... .. . ... ... : ... .. 5 ... ... : ... .. 7 P7E ... : ... .. . ... ...
ROW B8 : F-4 00 A P84 ... ... : ... .. . ... ... ... : ... .. . ... : ... .. 5 ... : ... .. . ... ... : A#4 01 8 ... ... : ... .. 6 P82 ... : ... .. . ... ...
ROW B9 : ... .. . P83 ... ... : ... .. . ... ... ... : ... .. . ... : ... .. . ... : ... .. . ... ... : ... .. 7 ... ... : ... .. 5 P85 ... : ... .. . ... ...
ROW BA : F#4 00 A P7C ... ... : ... .. . ... ... ... : ... .. . ... : ... .. 4 ... : ... .. . ... ... : ... .. 6 ... ... : ... .. . P86 ... : ... .. . ... ...
ROW BB : ... .. . P80 ... ... : ... .. . ... ... ... : ... .. . ... : ... .. . ... : ... .. . ... ... : ... .. 5 ... ... : ... .. 4 P84 ... : ... .. . ... ...
ROW BC : ... .. . P83 ... ... : ... .. . P84 ... ... : F-4 00 . ... : 1-# 00 F ... : ... .. . ... ... : F#4 01 8 ... ... : A#2 01 8 P80 ... : F#4 01 F ... ...
ROW BD : G-4 00 A P7E ... ... : ... .. . P86 ... ... : G-3 00 . ... : ... .. C ... : ... .. . ... ... : ... .. 7 ... ... : ... .. 7 P7D ... : ... .. D ... ...
ROW BE : ... .. . ... ... ... : ... .. . P85 ... ... : C-3 00 . ... : ... .. 6 ... : ... .. . ... ... : ... .. 6 ... ... : ... .. 6 P7A ... : ... .. 8 ... ...
ROW BF : F#4 00 A P82 ... ... : ... .. . P82 ... ... : B-2 00 . ... : ... .. 3 ... : ... .. . ... ... : ... .. 5 ... ... : ... .. 4 ... ... : ... .. . ... ...
ROW C0 : ... .. . P7F ... ... : ... .. . P7E ... ... : F#2 00 . ... : ... .. 2 ... : ... .. . ... ... : C#4 01 8 ... ... : ... .. . P7E ... : ... .. . ... ...
ROW C1 : F-4 00 A P84 ... ... : ... .. . P7B ... ... : ... .. . ... : ... .. 0 ... : ... .. . ... ... : ... .. 7 ... ... : ... .. 2 P81 ... : ... .. . ... ...
ROW C2 : ... .. . P83 ... ... : ... .. . P7A ... ... : F-4 00 . ... : ... .. F ... : ... .. . ... ... : ... .. 6 ... ... : G#2 01 8 P85 ... : ... .. . ... ...
ROW C3 : F#4 00 2 P7C ... ... : ... .. 2 P7C ... ... : G-3 00 . ... : ... .. C ... : ... .. . ... ... : ... .. 5 ... ... : ... .. 7 P86 ... : ... .. . ... ...
ROW C4 : ... .. . P80 ... ... : ... .. . P80 ... ... : C-3 00 . ... : ... .. 6 ... : ... .. . ... ... : A#3 01 8 ... ... : ... .. 6 P84 ... : ... .. . ... ...
ROW C5 : ... .. . P83 ... ... : ... .. . P83 ... ... : B-2 00 . ... : ... .. 3 ... : ... .. . ... ... : ... .. 7 ... ... : ... .. 5 P80 ... : ... .. . ... ...
ROW C6 : G-4 00 1 P7E ... ... : ... .. 1 P86 ... ... : F#2 00 . ... : ... .. 2 ... : ... .. . ... ... : ... .. 6 ... ... : ... .. . P7D ... : ... .. . ... ...
ROW C7 : ... .. . ... ... ... : ... .. . ... ... ... : ... .. . ... : ... .. 0 ... : ... .. . ... ... : ... .. 5 ... ... : ... .. 4 P7A ... : ... .. . ... ...
ROW C8 : A#4 00 F P80 ... ... : ... .. F P80 ... ... : F-5 00 . ... : B-# 00 D ... : ... .. . ... ... : A#5 01 8 ... ... : A#2 01 8 ... ... : F-4 01 F ... ...
ROW C9 : ... .. E ... ... ... : ... .. E ... ... ... : G-4 00 . ... : ... .. B ... : ... .. . ... ... : ... .. 7 ... ... : ... .. 7 P7D ... : ... .. D ... ...
ROW CA : ... .. D ... ... ... : ... .. D ... ... ... : C-4 00 . ... : ... .. . ... : ... .. . ... ... : ... .. 6 ... ... : ... .. 6 P80 ... : ... .. 8 ... ...
ROW CB : ... .. A ... ... ... : ... .. A ... ... ... : B-3 00 . ... : ... .. A ... : ... .. . ... ... : ... .. 5 ... ... : ... .. 5 P84 ... : ... .. . ... ...
ROW CC : ... .. . ... ... ... : ... .. . ... ... ... : F#3 00 . ... : ... .. 8 ... : ... .. . ... ... : F#5 01 8 ... ... : ... .. . P86 ... : ... .. . ... ...
ROW CD : ... .. . ... ... ... : ... .. . ... ... ... : ... .. . ... : ... .. 7 ... : ... .. . ... ... : ... .. 7 ... ... : ... .. 4 P85 ... : ... .. . ... ...
ROW CE : ... .. . ... ... ... : ... .. . ... ... ... : ... .. . ... : ... .. 6 ... : ... .. . ... ... : ... .. 6 ... ... : C-3 01 8 P81 ... : ... .. . ... ...
ROW CF : ... .. . ... ... ... : ... .. . ... ... ... : ... .. . ... : ... .. . ... : ... .. . ... ... : ... .. 5 ... ... : ... .. 7 P7E ... : ... .. . ... ...
ROW D0 : ... .. . ... ... ... : ... .. . ... ... ... : ... .. . ... : ... .. 5 ... : ... .. . ... ... : C#5 01 8 ... ... : ... .. 6 P7A ... : ... .. . ... ...
ROW D1 : ... .. . ... ... ... : ... .. . ... ... ... : ... .. . ... : ... .. . ... : ... .. . ... ... : ... .. 7 ... ... : ... .. 4 ... ... : ... .. . ... ...
ROW D2 : ... .. . ... ... ... : ... .. . ... ... ... : ... .. . ... : ... .. 4 ... : ... .. . ... ... : ... .. 6 ... ... : ... .. . P7D ... : ... .. . ... ...
ROW D3 : ... .. . ... ... ... : ... .. . ... ... ... : ... .. . ... : ... .. . ... : ... .. . ... ... : ... .. 5 ... ... : ... .. 2 P80 ... : ... .. . ... ...
ROW D4 : ... .. . ... ... ... : G#3 00 F ... ... ... : F-4 00 . ... : 1-# 00 F ... : ... .. . ... ... : A#4 01 8 ... ... : A#2 01 8 P84 ... : ... .. . ... ...
ROW D5 : ... .. . ... ... ... : ... .. E ... ... ... : G-3 00 . ... : ... .. C ... : ... .. . ... ... : ... .. 7 ... ... : ... .. 7 P86 ... : ... .. . ... ...
ROW D6 : ... .. . ... ... ... : ... .. D ... ... ... : C-3 00 . ... : ... .. 6 ... : ... .. . ... ... : ... .. 6 ... ... : ... .. 6 P85 ... : ... .. . ... ...
ROW D7 : ... .. . ... ... ... : ... .. A ... ... ... : B-2 00 . ... : ... .. 3 ... : ... .. . ... ... : ... .. 5 ... ... : ... .. 5 P82 ... : ... .. . ... ...
ROW D8 : ... .. . ... ... ... : ... .. . ... ... ... : F#2 00 . ... : ... .. 2 ... : ... .. . ... ... : F#4 01 8 ... ... : ... .. . P7E ... : ... .. . ... ...
ROW D9 : ... .. . ... ... ... : ... .. . ... ... ... : ... .. . ... : ... .. 0 ... : ... .. . ... ... : ... .. 7 ... ... : ... .. 4 P7B ... : ... .. . ... ...
ROW DA : ... .. . ... ... ... : ... .. . ... ... ... : F-4 00 . ... : ... .. F ... : ... .. . ... ... : ... .. 6 ... ... : G#2 01 8 P7A ... : ... .. . ... ...
ROW DB : ... .. . ... ... ... : ... .. . ... ... ... : G-3 00 . ... : ... .. C ... : ... .. . ... ... : ... .. 5 ... ... : ... .. 7 P7C ... : ... .. . ... ...
ROW DC : ... .. . ... ... ... : ... .. . ... ... ... : C-3 00 . ... : ... .. 6 ... : ... .. . ... ... : C#4 01 8 ... ... : ... .. 6 P80 ... : ... .. . ... ...
ROW DD : ... .. . ... ... ... : ... .. . ... ... ... : B-2 00 . ... : ... .. 3 ... : ... .. . ... ... : ... .. 7 ... ... : ... .. 5 P83 ... : ... .. . ... ...
ROW DE : ... .. . ... ... ... : ... .. . ... ... ... : F#2 00 . ... : ... .. 2 ... : ... .. . ... ... : ... .. 6 ... ... : ... .. . P86 ... : ... .. . ... ...
ROW DF : ... .. . ... ... ... : ... .. . ... ... ... : ... .. . ... : ... .. 0 ... : ... .. . ... ... : ... .. 5 ... ... : ... .. 4 ... ... : ... .. . ... ...
ROW E0 : ... .. . ... ... ... : C-4 00 F ... ... ... : F-5 00 . ... : B-# 00 D ... : ... .. . ... ... : A#5 01 8 ... ... : A#2 01 8 P82 ... : F#3 01 F ... ...
ROW E1 : ... .. . ... ... ... : ... .. E ... ... ... : G-4 00 . ... : ... .. B ... : ... .. . ... ... : ... .. 7 ... ... : ... .. 7 P7F ... : ... .. D ... ...
ROW E2 : ... .. . ... ... ... : ... .. D ... ... ... : C-4 00 . ... : ... .. . ... : ... .. . ... ... : ... .. 6 ... ... : ... .. 6 P7B ... : ... .. 8 ... ...
ROW E3 : ... .. . ... ... ... : C#4 00 E ... ... ... : B-3 00 . ... : ... .. A ... : ... .. . ... ... : ... .. 5 ... ... : ... .. 4 P7A ... : ... .. . ... ...
ROW E4 : ... .. . ... ... ... : ... .. D ... ... ... : F#3 00 . ... : ... .. 8 ... : ... .. . ... ... : F#5 01 8 ... ... : ... .. . P7C ... : ... .. . ... ...
ROW E5 : ... .. . ... ... ... : ... .. C ... ... ... : ... .. . ... : ... .. 7 ... : ... .. . ... ... : ... .. 7 ... ... : ... .. 2 P80 ... : ... .. . ... ...
ROW E6 : ... .. . ... ... ... : D#4 00 D ... ... ... : ... .. . ... : ... .. 6 ... : ... .. . ... ... : ... .. 6 ... ... : C-3 01 8 P83 ... : ... .. . ... ...
ROW E7 : ... .. . ... ... ... : ... .. C ... ... ... : ... .. . ... : ... .. . ... : ... .. . ... ... : ... .. 5 ... ... : ... .. 7 P86 ... : ... .. . ... ...
ROW E8 : ... .. . ... ... ... : ... .. B ... ... ... : ... .. . ... : ... .. 5 ... : ... .. . ... ... : C#5 01 8 ... ... : ... .. 6 ... ... : ... .. . ... ...
ROW E9 : ... .. . ... ... ... : F-4 00 C ... ... ... : ... .. . ... : ... .. . ... : ... .. . ... ... : ... .. 7 ... ... : ... .. 4 P83 ... : ... .. . ... ...
ROW EA : ... .. . ... ... ... : ... .. B ... ... ... : ... .. . ... : ... .. 4 ... : ... .. . ... ... : ... .. 6 ... ... : ... .. . P80 ... : ... .. . ... ...
ROW EB : ... .. . ... ... ... : ... .. A ... ... ... : ... .. . ... : ... .. . ... : ... .. . ... ... : ... .. 5 ... ... : ... .. 2 P7C ... : ... .. . ... ...
ROW EC : ... .. . ... ... ... : F#4 00 C ... ... ... : F-4 00 . ... : 1-# 00 F ... : ... .. . ... ... : A#4 01 8 ... ... : C#3 01 8 P7A ... : F-4 01 F ... ...
ROW ED : ... .. . ... ... ... : ... .. B ... ... ... : G-3 00 . ... : ... .. C ... : ... .. . ... ... : ... .. 7 ... ... : ... .. 7 P7B ... : ... .. D ... ...
ROW EE : ... .. . ... ... ... : ... .. A ... ... ... : C-3 00 . ... : ... .. 6 ... : ... .. . ... ... : ... .. 6 ... ... : ... .. 6 P7F ... : ... .. 8 ... ...
ROW EF : ... .. . ... ... ... : G#4 00 B ... ... ... : B-2 00 . ... : ... .. 3 ... : ... .. . ... ... : ... .. 5 ... ... : ... .. 4 P82 ... : ... .. . ... ...
ROW F0 : ... .. . ... ... ... : ... .. A ... ... ... : F#2 00 . ... : ... .. 2 ... : ... .. . ... ... : F#4 01 8 ... ... : ... .. . P86 ... : ... .. . ... ...
ROW F1 : ... .. . ... ... ... : ... .. 9 ... ... ... : ... .. . ... : ... .. 0 ... : ... .. . ... ... : ... .. 7 ... ... : ... .. 2 ... ... : ... .. . ... ...
ROW F2 : ... .. . ... ... ... : A#4 00 A ... ... ... : F-4 00 . ... : ... .. F ... : ... .. . ... ... : ... .. 6 ... ... : D#3 01 8 P83 ... : ... .. . ... ...
ROW F3 : ... .. . ... ... ... : ... .. 9 ... ... ... : G-3 00 . ... : ... .. C ... : ... .. . ... ... : ... .. 5 ... ... : ... .. 7 P80 ... : ... .. . ... ...
ROW F4 : ... .. . ... ... ... : ... .. 8 ... ... ... : C-3 00 . ... : ... .. 6 ... : ... .. . ... ... : C#4 01 8 ... ... : ... .. 6 P7C ... : ... .. . ... ...
ROW F5 : ... .. . ... ... ... : C-5 00 A ... ... ... : B-2 00 . ... : ... .. 3 ... : ... .. . ... ... : ... .. 7 ... ... : ... .. 4 P7A ... : ... .. . ... ...
ROW F6 : ... .. 2 ... ... ... : ... .. 9 ... ... ... : F#2 00 . ... : ... .. 2 ... : ... .. . ... ... : ... .. 6 ... ... : ... .. . P7B ... : ... .. . ... ...
ROW F7 : ... .. . ... ... ... : ... .. 8 ... ... ... : ... .. . ... : ... .. 0 ... : ... .. . ... ... : ... .. 5 ... ... : ... .. 2 P7E ... : ... .. . ... ...
ROW F8 : G#4 00 F ... ... ... : C#5 00 A ... ... ... : G-5 00 . ... : B-# 00 D ... : ... .. . ... ... : G#5 01 8 ... ... : F-3 01 8 P82 ... : D#4 01 F ... ...
ROW F9 : ... .. E ... ... ... : ... .. 9 ... ... ... : A-4 00 . ... : ... .. B ... : ... .. . ... ... : ... .. 7 ... ... : ... .. 7 P85 ... : ... .. D ... ...
ROW FA : ... .. D ... ... ... : ... .. 8 ... ... ... : D-4 00 . ... : ... .. . ... : ... .. . ... ... : ... .. 6 ... ... : ... .. 6 P86 ... : ... .. 8 ... ...
ROW FB : ... .. A ... ... ... : C-5 00 B ... ... ... : C#4 00 . ... : ... .. A ... : ... .. . ... ... : ... .. 5 ... ... : ... .. 4 P84 ... : ... .. . ... ...
ROW FC : ... .. . ... ... ... : ... .. A ... ... ... : G#3 00 . ... : ... .. 8 ... : ... .. . ... ... : C#5 01 8 ... ... : ... .. . P80 ... : ... .. . ... ...
ROW FD : ... .. . ... ... ... : ... .. 9 ... ... ... : ... .. . ... : ... .. 7 ... : ... .. . ... ... : ... .. 7 ... ... : ... .. 2 P7D ... : ... .. . ... ...
ROW FE : ... .. . ... ... ... : A#4 00 B ... ... ... : ... .. . ... : ... .. 6 ... : ... .. . ... ... : ... .. 6 ... ... : D#3 01 8 P7A ... : ... .. . ... ...
ROW FF : ... .. . ... ... ... : ... .. A ... ... ... : ... .. . ... : ... .. . ... : ... .. . ... ... : ... .. 5 ... ... : ... .. 7 ... ... : ... .. . ... ...

PATTERN 11
ROW 00 : ... .. . ... ... ... : ... .. 9 ... ... ... : ... .. . ... : ... .. 5 ... : ... .. . ... ... : F-4 01 8 ... ... : ... .. 6 P7E ... : ... .. . ... ...
ROW 01 : ... .. . ... ... ... : C-5 00 C ... ... ... : ... .. . ... : ... .. . ... : ... .. . ... ... : ... .. 7 ... ... : ... .. 5 P81 ... : ... .. . ... ...
ROW 02 : ... .. . ... ... ... : ... .. B ... ... ... : ... .. . ... : ... .. 4 ... : ... .. . ... ... : ... .. 6 ... ... : ... .. . P85 ... : ... .. . ... ...
ROW 03 : ... .. . ... ... ... : ... .. A ... ... ... : ... .. . ... : ... .. . ... : ... .. . ... ... : ... .. 5 ... ... : ... .. 4 P86 ... : ... .. . ... ...
ROW 04 : ... .. . ... ... ... : C#5 00 C ... ... ... : G-4 00 . ... : 1-# 00 F ... : ... .. . ... ... : C#4 01 8 ... ... : F-3 01 8 P84 ... : ... .. . ... ...
ROW 05 : ... .. . ... ... ... : ... .. B ... ... ... : A-3 00 . ... : ... .. C ... : ... .. . ... ... : ... .. 7 ... ... : ... .. 7 P80 ... : ... .. . ... ...
ROW 06 : ... .. . ... ... ... : ... .. A ... ... ... : D-3 00 . ... : ... .. 6 ... : ... .. . ... ... : ... .. 6 ... ... : ... .. 6 P7D ... : ... .. . ... ...
ROW 07 : ... .. . ... ... ... : D#5 00 D ... ... ... : C#3 00 . ... : ... .. 3 ... : ... .. . ... ... : ... .. 5 ... ... : ... .. 5 P7A ... : ... .. . ... ...
ROW 08 : ... .. . ... ... ... : ... .. C ... ... ... : G#2 00 . ... : ... .. 2 ... : ... .. . ... ... : G#3 01 8 ... ... : ... .. . ... ... : ... .. . ... ...
ROW 09 : ... .. . ... ... ... : ... .. B ... ... ... : ... .. . ... : ... .. 0 ... : ... .. . ... ... : ... .. 7 ... ... : ... .. 4 P7D ... : ... .. . ... ...
ROW 0A : ... .. . ... ... ... : F-5 00 D ... ... ... : G-4 00 . ... : ... .. F ... : ... .. . ... ... : ... .. 6 ... ... : G#3 01 8 P80 ... : ... .. . ... ...
ROW 0B : ... .. . ... ... ... : ... .. C ... ... ... : A-3 00 . ... : ... .. C ... : ... .. . ... ... : ... .. 5 ... ... : ... .. 7 P84 ... : ... .. . ... ...
ROW 0C : ... .. . ... ... ... : ... .. B ... ... ... : D-3 00 . ... : ... .. 6 ... : ... .. . ... ... : F-3 01 8 ... ... : ... .. 6 P86 ... : ... .. . ... ...
ROW 0D : ... .. . ... ... ... : F#5 00 E ... ... ... : C#3 00 . ... : ... .. 3 ... : ... .. . ... ... : ... .. 7 ... ... : ... .. 4 P85 ... : ... .. . ... ...
ROW 0E : ... .. . ... ... ... : ... .. D ... ... ... : G#2 00 . ... : ... .. 2 ... : ... .. . ... ... : ... .. 6 ... ... : ... .. . P81 ... : ... .. . ... ...
ROW 0F : ... .. . ... ... ... : ... .. C ... ... ... : ... .. . ... : ... .. 0 ... : ... .. . ... ... : ... .. 5 ... ... : ... .. 2 P7E ... : ... .. . ... ...
ROW 10 : ... .. . ... ... ... : G#5 00 F ... ... ... : G-5 00 . ... : B-# 00 D ... : ... .. . ... ... : G#5 01 8 ... ... : F-3 01 8 P7A ... : D#3 01 F ... ...
ROW 11 : ... .. . ... ... ... : ... .. E ... ... ... : A-4 00 . ... : ... .. B ... : ... .. . ... ... : ... .. 7 ... ... : ... .. 7 ... ... : ... .. D ... ...
ROW 12 : ... .. . ... ... ... : ... .. D ... ... ... : D-4 00 . ... : ... .. . ... : ... .. . ... ... : ... .. 6 ... ... : ... .. 6 P7D ... : ... .. 8 ... ...
ROW 13 : ... .. . ... ... ... : ... .. A ... ... ... : C#4 00 . ... : ... .. A ... : ... .. . ... ... : ... .. 5 ... ... : ... .. 5 P80 ... : ... .. . ... ...
ROW 14 : ... .. . ... ... ... : ... .. . ... ... ... : G#3 00 . ... : ... .. 8 ... : ... .. . ... ... : C#5 01 8 ... ... : ... .. . P84 ... : ... .. . ... ...
ROW 15 : ... .. . ... ... ... : ... .. . ... ... ... : ... .. . ... : ... .. 7 ... : ... .. . ... ... : ... .. 7 ... ... : ... .. 4 P86 ... : ... .. . ... ...
ROW 16 : ... .. . P84 ... ... : ... .. . ... ... ... : ... .. . ... : ... .. 6 ... : ... .. . ... ... : ... .. 6 ... ... : D#3 01 8 P85 ... : ... .. . ... ...
ROW 17 : A-4 00 A P7E ... ... : ... .. . ... ... ... : ... .. . ... : ... .. . ... : ... .. . ... ... : ... .. 5 ... ... : ... .. 7 P82 ... : ... .. . ... ...
ROW 18 : ... .. . P7D ... ... : ... .. . ... ... ... : ... .. . ... : ... .. 5 ... : ... .. . ... ... : F-4 01 8 ... ... : ... .. 6 P7E ... : ... .. . ... ...
ROW 19 : G#4 00 A P82 ... ... : ... .. . ... ... ... : ... .. . ... : ... .. . ... : ... .. . ... ... : ... .. 7 ... ... : ... .. 5 P7B ... : ... .. . ... ...
ROW 1A : ... .. . P7E ... ... : ... .. . ... ... ... : ... .. . ... : ... .. 4 ... : ... .. . ... ... : ... .. 6 ... ... : ... .. . P7A ... : ... .. . ... ...
ROW 1B : G-4 00 A P83 ... ... : ... .. . ... ... ... : ... .. . ... : ... .. . ... : ... .. . ... ... : ... .. 5 ... ... : ... .. 4 P7C ... : ... .. . ... ...
ROW 1C : ... .. . P82 ... ... : ... .. . ... ... ... : G-4 00 . ... : 1-# 00 F ... : ... .. . ... ... : C#4 01 8 ... ... : F-3 01 8 P80 ... : D#4 01 F ... ...
ROW 1D : ... .. . P84 ... ... : ... .. 2 ... ... ... : A-3 00 . ... : ... .. C ... : ... .. . ... ... : ... .. 7 ... ... : ... .. 7 P83 ... : ... .. D ... ...
ROW 1E : G#4 00 A P80 ... ... : ... .. . ... ... ... : D-3 00 . ... : ... .. 6 ... : ... .. . ... ... : ... .. 6 ... ... : ... .. 6 P86 ... : ... .. 8 ... ...
ROW 1F : ... .. . P83 ... ... : ... .. . ... ... ... : C#3 00 . ... : ... .. 3 ... : ... .. . ... ... : ... .. 5 ... ... : ... .. 4 ... ... : ... .. . ... ...
ROW 20 : A-4 00 A P7E ... ... : ... .. 1 ... ... ... : G#2 00 . ... : ... .. 2 ... : ... .. . ... ... : G#3 01 8 ... ... : ... .. . P82 ... : ... .. . ... ...
ROW 21 : ... .. . ... ... ... : ... .. . ... ... ... : ... .. . ... : ... .. 0 ... : ... .. . ... ... : ... .. 7 ... ... : ... .. 2 P7F ... : ... .. . ... ...
ROW 22 : G#4 00 A P82 ... ... : ... .. . ... ... ... : G-4 00 . ... : ... .. F ... : ... .. . ... ... : ... .. 6 ... ... : G#3 01 8 P7B ... : ... .. . ... ...
ROW 23 : ... .. . P7F ... ... : ... .. 0 ... ... ... : A-3 00 . ... : ... .. C ... : ... .. . ... ... : ... .. 5 ... ... : ... .. 7 P7A ... : ... .. . ... ...
ROW 24 : G-4 00 A P83 ... ... : ... .. . ... ... ... : D-3 00 . ... : ... .. 6 ... : ... .. . ... ... : F-3 01 8 ... ... : ... .. 6 P7C ... : ... .. . ... ...
ROW 25 : ... .. . P82 ... ... : ... .. . ... ... ... : C#3 00 . ... : ... .. 3 ... : ... .. . ... ... : ... .. 7 ... ... : ... .. 5 P80 ... : ... .. . ... ...
ROW 26 : ... .. 2 P84 ... ... : ... .. . ... ... ... : G#2 00 . ... : ... .. 2 ... : ... .. . ... ... : ... .. 6 ... ... : ... .. . P83 ... : ... .. 4 ... ...
ROW 27 : G#4 00 2 P80 ... ... : ... .. . ... ... ... : ... .. . ... : ... .. 0 ... : ... .. . ... ... : ... .. 5 ... ... : ... .. 4 P86 ... : ... .. . ... ...
ROW 28 : C#4 00 F ... ... ... : C#3 00 F P80 ... ... : C-5 00 . ... : B-# 00 D ... : ... .. . ... ... : G#5 01 8 ... ... : F-3 01 8 ... ... : C#4 01 F ... ...
ROW 29 : ... .. E ... ... ... : ... .. E ... ... ... : D-4 00 . ... : ... .. B ... : ... .. . ... ... : ... .. 7 ... ... : ... .. 7 P83 ... : ... .. D ... ...
ROW 2A : ... .. D ... ... ... : ... .. D ... ... ... : G-3 00 . ... : ... .. . ... : ... .. . ... ... : ... .. 6 ... ... : ... .. 6 P80 ... : ... .. 8 ... ...
ROW 2B : ... .. A ... ... ... : ... .. A ... ... ... : F#3 00 . ... : ... .. A ... : ... .. . ... ... : ... .. 5 ... ... : ... .. 5 P7C ... : ... .. . ... ...
ROW 2C : ... .. . ... ... ... : ... .. . ... ... ... : C#3 00 . ... : ... .. 8 ... : ... .. . ... ... : C#5 01 8 ... ... : ... .. . P7A ... : ... .. . ... ...
ROW 2D : ... .. . ... ... ... : ... .. . ... ... ... : ... .. . ... : ... .. 7 ... : ... .. . ... ... : ... .. 7 ... ... : ... .. 4 P7B ... : ... .. . ... ...
ROW 2E : ... .. . ... ... ... : ... .. . ... ... ... : ... .. . ... : ... .. D ... : ... .. . ... ... : ... .. 6 ... ... : D#3 01 8 P7F ... : ... .. . ... ...
ROW 2F : ... .. . ... ... ... : ... .. . ... ... ... : ... .. . ... : ... .. B ... : ... .. . ... ... : ... .. 5 ... ... : ... .. 7 P82 ... : ... .. . ... ...
ROW 30 : ... .. . ... ... ... : ... .. . ... ... ... : ... .. . ... : ... .. . ... : ... .. . ... ... : F-4 01 8 ... ... : ... .. 6 P86 ... : ... .. . ... ...
ROW 31 : ... .. . ... ... ... : ... .. . ... ... ... : ... .. . ... : ... .. A ... : ... .. . ... ... : ... .. 7 ... ... : ... .. 4 ... ... : ... .. . ... ...
ROW 32 : ... .. . ... ... ... : ... .. . ... ... ... : ... .. . ... : ... .. 8 ... : ... .. . ... ... : ... .. 6 ... ... : ... .. . P83 ... : ... .. 4 ... ...
ROW 33 : ... .. . ... ... ... : ... .. . ... ... ... : ... .. . ... : ... .. 7 ... : ... .. . ... ... : ... .. 5 ... ... : ... .. 2 P80 ... : ... .. . ... ...
ROW 34 : ... .. . ... ... ... : D#3 00 F ... ... ... : C-4 00 . ... : 1-# 00 F ... : ... .. . ... ... : C#4 01 8 ... ... : F-3 01 8 P7C ... : C-4 01 F ... ...
ROW 35 : ... .. . ... ... ... : ... .. E ... ... ... : D-3 00 . ... : ... .. C ... : ... .. . ... ... : ... .. 7 ... ... : ... .. 7 P7A ... : ... .. D ... ...
ROW 36 : ... .. . ... ... ... : ... .. D ... ... ... : G-2 00 . ... : ... .. 6 ... : ... .. . ... ... : ... .. 6 ... ... : ... .. 6 P7B ... : ... .. 8 ... ...
ROW 37 : ... .. . ... ... ... : ... .. A ... ... ... : F#2 00 . ... : ... .. 3 ... : ... .. . ... ... : ... .. 5 ... ... : ... .. 5 P7E ... : ... .. . ... ...
ROW 38 : ... .. . ... ... ... : ... .. . ... ... ... : C#2 00 . ... : ... .. 2 ... : ... .. . ... ... : G#3 01 8 ... ... : ... .. . P82 ... : ... .. . ... ...
ROW 39 : ... .. . ... ... ... : ... .. . ... ... ... : ... .. . ... : ... .. 0 ... : ... .. . ... ... : ... .. 7 ... ... : ... .. 4 P85 ... : ... .. . ... ...
ROW 3A : ... .. . ... ... ... : ... .. . ... ... ... : C-4 00 . ... : ... .. F ... : ... .. . ... ... : ... .. 6 ... ... : G#3 01 8 P86 ... : ... .. . ... ...
ROW 3B : ... .. . ... ... ... : ... .. . ... ... ... : D-3 00 . ... : ... .. C ... : ... .. . ... ... : ... .. 5 ... ... : ... .. 7 P84 ... : ... .. . ... ...
ROW 3C : ... .. . ... ... ... : ... .. . ... ... ... : G-2 00 . ... : ... .. 6 ... : ... .. . ... ... : F-3 01 8 ... ... : ... .. 6 P80 ... : ... .. . ... ...
ROW 3D : ... .. . ... ... ... : ... .. . ... ... ... : F#2 00 . ... : ... .. 3 ... : ... .. . ... ... : ... .. 7 ... ... : ... .. 5 P7D ... : ... .. . ... ...
ROW 3E : ... .. . ... ... ... : ... .. . ... ... ... : C#2 00 . ... : ... .. 2 ... : ... .. . ... ... : ... .. 6 ... ... : ... .. . P7A ... : ... .. 4 ... ...
ROW 3F : ... .. . ... ... ... : ... .. . ... ... ... : ... .. . ... : ... .. 0 ... : ... .. . ... ... : ... .. 5 ... ... : ... .. 4 ... ... : ... .. . ... ...
ROW 40 : ... .. . ... ... ... : C#4 00 8 ... ... ... : F-3 00 . ... : 9-# 00 D ... : ... .. . ... ... : G#5 01 8 ... ... : F-3 01 8 P7E ... : C#4 01 F ... ...
ROW 41 : ... .. . ... ... ... : ... .. 7 ... ... ... : ... .. . ... : ... .. B ... : ... .. . ... ... : ... .. 7 ... ... : ... .. 7 P81 ... : ... .. D ... ...
ROW 42 : ... .. . ... ... ... : ... .. 6 ... ... ... : ... .. . ... : ... .. . ... : ... .. . ... ... : ... .. 6 ... ... : ... .. 6 P85 ... : ... .. 8 ... ...
ROW 43 : ... .. . ... ... ... : C-4 00 8 ... ... ... : ... .. . ... : ... .. A ... : ... .. . ... ... : ... .. 5 ... ... : ... .. 4 P86 ... : ... .. . ... ...
ROW 44 : ... .. . ... ... ... : ... .. 7 ... ... ... : ... .. . ... : ... .. 8 ... : ... .. . ... ... : C#5 01 8 ... ... : ... .. . P84 ... : ... .. . ... ...
ROW 45 : ... .. . ... ... ... : ... .. 6 ... ... ... : ... .. . ... : ... .. 7 ... : ... .. . ... ... : ... .. 7 ... ... : ... .. 2 P80 ... : ... .. . ... ...
ROW 46 : ... .. . ... ... ... : C#4 00 9 ... ... ... : G#3 00 . ... : ... .. D ... : ... .. . ... ... : ... .. 6 ... ... : D#3 01 8 P7D ... : ... .. . ... ...
ROW 47 : ... .. . ... ... ... : ... .. 8 ... ... ... : ... .. . ... : ... .. B ... : ... .. . ... ... : ... .. 5 ... ... : ... .. 7 P7A ... : ... .. . ... ...
ROW 48 : ... .. . ... ... ... : ... .. 7 ... ... ... : ... .. . ... : ... .. . ... : ... .. . ... ... : F-4 01 8 ... ... : ... .. 6 ... ... : ... .. . ... ...
ROW 49 : ... .. . ... ... ... : D#4 00 9 ... ... ... : ... .. . ... : ... .. A ... : ... .. . ... ... : ... .. 7 ... ... : ... .. 4 P7D ... : ... .. . ... ...
ROW 4A : ... .. . ... ... ... : ... .. 8 ... ... ... : ... .. . ... : ... .. 8 ... : ... .. . ... ... : ... .. 6 ... ... : ... .. . P80 ... : ... .. . ... ...
ROW 4B : ... .. . ... ... ... : ... .. 7 ... ... ... : ... .. . ... : ... .. 7 ... : ... .. . ... ... : ... .. 5 ... ... : ... .. 2 P84 ... : ... .. . ... ...
ROW 4C : ... .. . ... ... ... : F-4 00 A ... ... ... : C#4 00 . ... : 1-# 00 F ... : ... .. . ... ... : C#4 01 8 ... ... : F-3 01 8 P86 ... : D#4 01 F ... ...
ROW 4D : ... .. . ... ... ... : ... .. 9 ... ... ... : ... .. . ... : ... .. C ... : ... .. . ... ... : ... .. 7 ... ... : ... .. 7 P85 ... : ... .. D ... ...
ROW 4E : ... .. . ... ... ... : ... .. 8 ... ... ... : ... .. . ... : ... .. 6 ... : ... .. . ... ... : ... .. 6 ... ... : ... .. 6 P81 ... : ... .. 8 ... ...
ROW 4F : ... .. . ... ... ... : D#4 00 A ... ... ... : ... .. . ... : ... .. 3 ... : ... .. . ... ... : ... .. 5 ... ... : ... .. 4 P7E ... : ... .. . ... ...
ROW 50 : ... .. . ... ... ... : ... .. 9 ... ... ... : ... .. . ... : ... .. 2 ... : ... .. . ... ... : G#3 01 8 ... ... : ... .. . P7A ... : ... .. . ... ...
ROW 51 : ... .. . ... ... ... : ... .. 8 ... ... ... : ... .. . ... : ... .. 0 ... : ... .. . ... ... : ... .. 7 ... ... : ... .. 2 ... ... : ... .. . ... ...
ROW 52 : ... .. . ... ... ... : F-4 00 B ... ... ... : F-4 00 . ... : ... .. F ... : ... .. . ... ... : ... .. 6 ... ... : G#3 01 8 P7D ... : ... .. . ... ...
ROW 53 : ... .. 2 ... ... ... : ... .. A ... ... ... : ... .. . ... : ... .. C ... : ... .. . ... ... : ... .. 5 ... ... : ... .. 7 P80 ... : ... .. . ... ...
ROW 54 : ... .. . ... ... ... : ... .. 9 ... ... ... : ... .. . ... : ... .. 6 ... : ... .. . ... ... : F-3 01 8 ... ... : ... .. 6 P84 ... : ... .. . ... ...
ROW 55 : ... .. . ... ... ... : F#4 00 C ... ... ... : ... .. . ... : ... .. 3 ... : ... .. . ... ... : ... .. 7 ... ... : ... .. 4 P86 ... : ... .. . ... ...
ROW 56 : ... .. 1 ... ... ... : ... .. B ... ... ... : ... .. . ... : ... .. 2 ... : ... .. . ... ... : ... .. 6 ... ... : ... .. . P85 ... : ... .. . ... ...
ROW 57 : ... .. . ... ... ... : ... .. A ... ... ... : ... .. . ... : ... .. 0 ... : ... .. . ... ... : ... .. 5 ... ... : ... .. 2 P82 ... : ... .. . ... ...
ROW 58 : ... .. F ... ... ... : G#4 00 C ... ... ... : C-6 00 . ... : B-# 00 D ... : ... .. . ... ... : F-5 01 8 ... ... : C#3 01 A P7E ... : F-4 01 F ... ...
ROW 59 : ... .. E ... ... ... : ... .. B ... ... ... : D-5 00 . ... : ... .. B ... : ... .. . ... ... : ... .. 7 ... ... : ... .. 9 P7B ... : ... .. D ... ...
ROW 5A : ... .. D ... ... ... : ... .. A ... ... ... : G-4 00 . ... : ... .. . ... : ... .. . ... ... : ... .. 6 ... ... : ... .. 8 P7A ... : ... .. 8 ... ...
ROW 5B : ... .. A ... ... ... : F#4 00 D ... ... ... : F#4 00 . ... : ... .. A ... : ... .. . ... ... : ... .. 5 ... ... : ... .. 7 P7C ... : ... .. . ... ...
ROW 5C : ... .. . ... ... ... : ... .. C ... ... ... : C#4 00 . ... : ... .. 8 ... : ... .. . ... ... : C#5 01 8 ... ... : ... .. . P80 ... : ... .. . ... ...
ROW 5D : ... .. . ... ... ... : ... .. B ... ... ... : ... .. . ... : ... .. 7 ... : ... .. . ... ... : ... .. 7 ... ... : ... .. 6 P83 ... : ... .. . ... ...
ROW 5E : ... .. . ... ... ... : G#4 00 D ... ... ... : ... .. . ... : ... .. 6 ... : ... .. . ... ... : ... .. 6 ... ... : ... .. . P86 ... : ... .. . ... ...
ROW 5F : ... .. . ... ... ... : ... .. C ... ... ... : ... .. . ... : ... .. . ... : ... .. . ... ... : ... .. 5 ... ... : ... .. 5 ... ... : ... .. . ... ...
ROW 60 : ... .. . ... ... ... : ... .. B ... ... ... : ... .. . ... : ... .. 5 ... : ... .. . ... ... : A#4 01 8 ... ... : ... .. . P82 ... : ... .. . ... ...
ROW 61 : ... .. . ... ... ... : A#4 00 E ... ... ... : ... .. . ... : ... .. . ... : ... .. . ... ... : ... .. 7 ... ... : ... .. . P7F ... : ... .. . ... ...
ROW 62 : ... .. 2 ... ... ... : ... .. D ... ... ... : ... .. . ... : ... .. 4 ... : ... .. . ... ... : ... .. 6 ... ... : ... .. . P7B ... : ... .. 4 ... ...
ROW 63 : ... .. . ... ... ... : ... .. C ... ... ... : ... .. . ... : ... .. . ... : ... .. . ... ... : ... .. 5 ... ... : ... .. . P7A ... : ... .. . ... ...
ROW 64 : D#4 00 F ... ... ... : C-5 00 F ... ... ... : A-3 00 . ... : 1-# 00 F ... : ... .. . ... ... : F-4 01 8 ... ... : D#3 01 A P7C ... : C#4 01 F ... ...
ROW 65 : ... .. E ... ... ... : ... .. E ... ... ... : B-2 00 . ... : ... .. C ... : ... .. . ... ... : ... .. 7 ... ... : ... .. 9 P80 ... : ... .. D ... ...
ROW 66 : ... .. D ... ... ... : ... .. D ... ... ... : E-2 00 . ... : ... .. 6 ... : ... .. . ... ... : ... .. 6 ... ... : ... .. 8 P83 ... : ... .. 8 ... ...
ROW 67 : ... .. A ... ... ... : C#5 00 E ... ... ... : D#2 00 . ... : ... .. 3 ... : ... .. . ... ... : ... .. 5 ... ... : ... .. 7 P86 ... : ... .. . ... ...
ROW 68 : ... .. . ... ... ... : ... .. D ... ... ... : A#1 00 . ... : ... .. 2 ... : ... .. . ... ... : C#4 01 8 ... ... : ... .. . ... ... : ... .. . ... ...
ROW 69 : ... .. . ... ... ... : ... .. C ... ... ... : ... .. . ... : ... .. 0 ... : ... .. . ... ... : ... .. 7 ... ... : ... .. 6 P83 ... : ... .. . ... ...
ROW 6A : ... .. . ... ... ... : D#5 00 E ... ... ... : A-3 00 . ... : ... .. F ... : ... .. . ... ... : ... .. 6 ... ... : ... .. . P80 ... : ... .. . ... ...
ROW 6B : ... .. . ... ... ... : ... .. D ... ... ... : B-2 00 . ... : ... .. C ... : ... .. . ... ... : ... .. 5 ... ... : ... .. 5 P7C ... : ... .. . ... ...
ROW 6C : ... .. . ... ... ... : ... .. C ... ... ... : E-2 00 . ... : ... .. 6 ... : ... .. . ... ... : A#3 01 8 ... ... : ... .. . P7A ... : ... .. . ... ...
ROW 6D : ... .. . ... ... ... : F-5 00 D ... ... ... : D#2 00 . ... : ... .. 3 ... : ... .. . ... ... : ... .. 7 ... ... : ... .. . P7B ... : ... .. . ... ...
ROW 6E : ... .. 2 ... ... ... : ... .. C ... ... ... : A#1 00 . ... : ... .. 2 ... : ... .. . ... ... : ... .. 6 ... ... : ... .. . P7F ... : ... .. 4 ... ...
ROW 6F : ... .. . ... ... ... : ... .. B ... ... ... : ... .. . ... : ... .. 0 ... : ... .. . ... ... : ... .. 5 ... ... : ... .. . P82 ... : ... .. . ... ...
ROW 70 : F-4 00 F ... ... ... : D#5 00 D ... ... ... : C-5 00 . ... : B-# 00 D ... : ... .. . ... ... : F-5 01 8 ... ... : F-3 01 A P86 ... : G#4 01 F ... ...
ROW 71 : ... .. E ... ... ... : ... .. C ... ... ... : D-4 00 . ... : ... .. B ... : ... .. . ... ... : ... .. 7 ... ... : ... .. 9 ... ... : ... .. D ... ...
ROW 72 : ... .. D ... ... ... : ... .. B ... ... ... : G-3 00 . ... : ... .. . ... : ... .. . ... ... : ... .. 6 ... ... : ... .. 8 P83 ... : ... .. 8 ... ...
ROW 73 : ... .. A ... ... ... : C#5 00 C ... ... ... : F#3 00 . ... : ... .. A ... : ... .. . ... ... : ... .. 5 ... ... : ... .. 7 P80 ... : ... .. . ... ...
ROW 74 : ... .. . ... ... ... : ... .. B ... ... ... : C#3 00 . ... : ... .. 8 ... : ... .. . ... ... : C#5 01 8 ... ... : ... .. . P7C ... : ... .. . ... ...
ROW 75 : ... .. . ... ... ... : ... .. A ... ... ... : ... .. . ... : ... .. 7 ... : ... .. . ... ... : ... .. 7 ... ... : ... .. 6 P7A ... : ... .. . ... ...
ROW 76 : ... .. . ... ... ... : C-5 00 C ... ... ... : ... .. . ... : ... .. 6 ... : ... .. . ... ... : ... .. 6 ... ... : ... .. . P7B ... : ... .. . ... ...
ROW 77 : ... .. . ... ... ... : ... .. B ... ... ... : ... .. . ... : ... .. . ... : ... .. . ... ... : ... .. 5 ... ... : ... .. 5 P7E ... : ... .. . ... ...
ROW 78 : ... .. . ... ... ... : ... .. A ... ... ... : ... .. . ... : ... .. 5 ... : ... .. . ... ... : A#4 01 8 ... ... : ... .. . P82 ... : ... .. . ... ...
ROW 79 : ... .. . ... ... ... : A#4 00 B ... ... ... : ... .. . ... : ... .. . ... : ... .. . ... ... : ... .. 7 ... ... : ... .. . P85 ... : ... .. . ... ...
ROW 7A : ... .. . ... ... ... : ... .. A ... ... ... : ... .. . ... : ... .. 4 ... : ... .. . ... ... : ... .. 6 ... ... : ... .. . P86 ... : ... .. . ... ...
ROW 7B : ... .. . ... ... ... : ... .. 9 ... ... ... : ... .. . ... : ... .. . ... : ... .. . ... ... : ... .. 5 ... ... : ... .. . P84 ... : ... .. . ... ...
ROW 7C : ... .. . ... ... ... : G#4 00 B ... ... ... : A-3 00 . ... : 1-# 00 F ... : ... .. . ... ... : F-4 01 8 ... ... : ... .. . P80 ... : A#4 01 D ... ...
ROW 7D : ... .. . ... ... ... : ... .. A ... ... ... : B-2 00 . ... : ... .. C ... : ... .. . ... ... : ... .. 7 ... ... : ... .. . P7D ... : ... .. B ... ...
ROW 7E : ... .. . ... ... ... : ... .. 9 ... ... ... : E-2 00 . ... : ... .. 6 ... : ... .. . ... ... : ... .. 6 ... ... : ... .. . P7A ... : ... .. 9 ... ...
ROW 7F : ... .. . ... ... ... : F#4 00 A ... ... ... : D#2 00 . ... : ... .. 3 ... : ... .. . ... ... : ... .. 5 ... ... : ... .. . ... ... : ... .. 7 ... ...
ROW 80 : ... .. . ... ... ... : ... .. 9 ... ... ... : A#1 00 . ... : ... .. 2 ... : ... .. . ... ... : C#4 01 8 ... ... : ... .. . P7E ... : ... .. D ... ...
ROW 81 : ... .. . ... ... ... : ... .. 8 ... ... ... : ... .. . ... : ... .. 0 ... : ... .. . ... ... : ... .. 7 ... ... : ... .. . P81 ... : ... .. B ... ...
ROW 82 : ... .. . ... ... ... : F-4 00 A ... ... ... : A-3 00 . ... : ... .. F ... : ... .. . ... ... : ... .. 6 ... ... : ... .. . P85 ... : ... .. 9 ... ...
ROW 83 : ... .. . ... ... ... : ... .. 9 ... ... ... : B-2 00 . ... : ... .. C ... : ... .. . ... ... : ... .. 5 ... ... : ... .. . P86 ... : ... .. 7 ... ...
ROW 84 : ... .. . ... ... ... : ... .. 8 ... ... ... : E-2 00 . ... : ... .. 6 ... : ... .. . ... ... : A#3 01 8 ... ... : ... .. . P84 ... : ... .. D ... ...
ROW 85 : ... .. . ... ... ... : D#4 00 A ... ... ... : D#2 00 . ... : ... .. 3 ... : ... .. . ... ... : ... .. 7 ... ... : ... .. . P80 ... : ... .. B ... ...
ROW 86 : ... .. . ... ... ... : ... .. 9 ... ... ... : A#1 00 . ... : ... .. 2 ... : ... .. . ... ... : ... .. 6 ... ... : ... .. . P7D ... : ... .. 9 ... ...
ROW 87 : ... .. . ... ... ... : ... .. 8 ... ... ... : ... .. . ... : ... .. 0 ... : ... .. . ... ... : ... .. 5 ... ... : ... .. . P7A ... : ... .. 7 ... ...
ROW 88 : ... .. . ... ... ... : A#3 00 F ... ... ... : A-4 00 . ... : B-# 00 D ... : ... .. . ... ... : A#5 01 8 ... ... : ... .. . ... ... : F-5 01 F ... ...
ROW 89 : ... .. . ... ... ... : ... .. E ... ... ... : B-3 00 . ... : ... .. B ... : ... .. . ... ... : ... .. 7 ... ... : ... .. . P7D ... : ... .. D ... ...
ROW 8A : ... .. . ... ... ... : ... .. D ... ... ... : E-3 00 . ... : ... .. . ... : ... .. . ... ... : ... .. 6 ... ... : ... .. 3 P80 ... : ... .. 8 ... ...
ROW 8B : ... .. 9 ... ... ... : ... .. A ... ... ... : D#3 00 . ... : ... .. A ... : ... .. . ... ... : ... .. 5 ... ... : ... .. . P84 ... : ... .. . ... ...
ROW 8C : ... .. . ... ... ... : ... .. . ... ... ... : A#2 00 . ... : ... .. 8 ... : ... .. . ... ... : F-5 01 8 ... ... : ... .. . P86 ... : ... .. . ... ...
ROW 8D : ... .. . ... ... ... : ... .. . ... ... ... : ... .. . ... : ... .. 7 ... : ... .. . ... ... : ... .. 7 ... ... : ... .. . P85 ... : ... .. . ... ...
ROW 8E : ... .. . ... ... ... : ... .. . ... ... ... : C-4 00 . ... : ... .. 6 ... : ... .. . ... ... : ... .. 6 ... ... : C#4 01 8 P81 ... : ... .. . ... ...
ROW 8F : ... .. . ... ... ... : ... .. . ... ... ... : ... .. . ... : ... .. . ... : ... .. . ... ... : ... .. 5 ... ... : ... .. 7 P7E ... : ... .. . ... ...
ROW 90 : ... .. . ... ... ... : ... .. . ... ... ... : ... .. . ... : ... .. 5 ... : ... .. . ... ... : C#5 01 8 ... ... : C-4 01 6 P86 ... : ... .. . ... ...
ROW 91 : ... .. 8 ... ... ... : ... .. . ... ... ... : ... .. . ... : ... .. . ... : ... .. . ... ... : ... .. 7 ... ... : ... .. 4 ... ... : ... .. . ... ...
ROW 92 : ... .. . ... ... ... : ... .. . ... ... ... : ... .. . ... : ... .. 4 ... : ... .. . ... ... : ... .. 6 ... ... : C#4 01 4 P7D ... : ... .. . ... ...
ROW 93 : ... .. . ... ... ... : ... .. . ... ... ... : ... .. . ... : ... .. . ... : ... .. . ... ... : ... .. 5 ... ... : ... .. 2 P80 ... : ... .. . ... ...
ROW 94 : ... .. . ... ... ... : C-4 00 F ... ... ... : C#4 00 . ... : 1-# 00 F ... : ... .. . ... ... : A#4 01 8 ... ... : ... .. 8 P84 ... : ... .. . ... ...
ROW 95 : ... .. . ... ... ... : ... .. E ... ... ... : ... .. . ... : ... .. C ... : ... .. . ... ... : ... .. 7 ... ... : ... .. 7 P86 ... : ... .. . ... ...
ROW 96 : ... .. . ... ... ... : ... .. D ... ... ... : ... .. . ... : ... .. 6 ... : ... .. . ... ... : ... .. 6 ... ... : ... .. 6 P85 ... : ... .. . ... ...
ROW 97 : ... .. . ... ... ... : ... .. A ... ... ... : ... .. . ... : ... .. 3 ... : ... .. . ... ... : ... .. 5 ... ... : ... .. 5 P82 ... : ... .. . ... ...
ROW 98 : ... .. . ... ... ... : ... .. . ... ... ... : ... .. . ... : ... .. 2 ... : ... .. . ... ... : F-4 01 8 ... ... : ... .. . P7E ... : ... .. . ... ...
ROW 99 : ... .. . ... ... ... : ... .. . ... ... ... : ... .. . ... : ... .. 0 ... : ... .. . ... ... : ... .. 7 ... ... : ... .. 4 P7B ... : ... .. . ... ...
ROW 9A : ... .. . P82 ... ... : ... .. . ... ... ... : D#4 00 . ... : ... .. F ... : ... .. . ... ... : ... .. 6 ... ... : C-4 01 4 P86 ... : ... .. . ... ...
ROW 9B : ... .. . P83 ... ... : ... .. . ... ... ... : ... .. . ... : ... .. C ... : ... .. . ... ... : ... .. 5 ... ... : C#4 01 4 P7C ... : ... .. . ... ...
ROW 9C : ... .. . ... ... ... : ... .. . ... ... ... : ... .. . ... : ... .. 6 ... : ... .. . ... ... : C#4 01 8 ... ... : ... .. 2 P80 ... : ... .. . ... ...
ROW 9D : ... .. . P81 ... ... : ... .. . ... ... ... : ... .. . ... : ... .. 3 ... : ... .. . ... ... : ... .. 7 ... ... : ... .. . P83 ... : ... .. . ... ...
ROW 9E : ... .. . P7F ... ... : ... .. . ... ... ... : ... .. . ... : ... .. 2 ... : ... .. . ... ... : ... .. 6 ... ... : ... .. . P86 ... : ... .. . ... ...
ROW 9F : ... .. . P7D ... ... : ... .. . ... ... ... : ... .. . ... : ... .. 0 ... : ... .. . ... ... : ... .. 5 ... ... : ... .. . ... ... : ... .. . ... ...
ROW A0 : ... .. 7 ... ... ... : C#4 00 F ... ... ... : F-4 00 . ... : B-# 00 D ... : ... .. . ... ... : A#5 01 8 ... ... : ... .. 8 P82 ... : F#5 01 8 P7F ...
ROW A1 : ... .. . P7E ... ... : ... .. E ... ... ... : ... .. . ... : ... .. B ... : ... .. . ... ... : ... .. 7 ... ... : ... .. 7 P7F ... : ... .. . P81 ...
ROW A2 : ... .. . P80 ... ... : ... .. D ... ... ... : ... .. . ... : ... .. . ... : ... .. . ... ... : ... .. 6 ... ... : ... .. 6 P7B ... : ... .. . P80 ...
ROW A3 : ... .. . P82 ... ... : ... .. A ... ... ... : ... .. . ... : ... .. A ... : ... .. . ... ... : ... .. 5 ... ... : C-4 01 4 P86 ... : F-5 01 8 P83 ...
ROW A4 : ... .. . P83 ... ... : ... .. . ... ... ... : ... .. . ... : ... .. 8 ... : ... .. . ... ... : F-5 01 8 ... ... : C#4 01 4 P7C ... : ... .. . P7F ...
ROW A5 : ... .. . ... ... ... : ... .. . ... ... ... : ... .. . ... : ... .. 7 ... : ... .. . ... ... : ... .. 7 ... ... : ... .. 2 P80 ... : E-5 01 8 P81 ...
ROW A6 : ... .. . P81 ... ... : ... .. . ... ... ... : C#4 00 . ... : ... .. 6 ... : ... .. . ... ... : ... .. 6 ... ... : ... .. 8 P83 ... : ... .. . P80 ...
ROW A7 : ... .. . P80 ... ... : ... .. . ... ... ... : ... .. . ... : ... .. . ... : ... .. . ... ... : ... .. 5 ... ... : ... .. 7 P86 ... : ... .. . P82 ...
ROW A8 : ... .. . P7D ... ... : ... .. . ... ... ... : ... .. . ... : ... .. 5 ... : ... .. . ... ... : C#5 01 8 ... ... : ... .. 6 ... ... : F-5 01 8 P81 ...
ROW A9 : ... .. 6 ... ... ... : ... .. . ... ... ... : ... .. . ... : ... .. . ... : ... .. . ... ... : ... .. 7 ... ... : ... .. 4 P83 ... : F#5 01 8 P7E ...
ROW AA : ... .. . P7E ... ... : ... .. . ... ... ... : ... .. . ... : ... .. 4 ... : ... .. . ... ... : ... .. 6 ... ... : ... .. . P80 ... : ... .. . P81 ...
ROW AB : ... .. . P80 ... ... : ... .. . ... ... ... : ... .. . ... : ... .. . ... : ... .. . ... ... : ... .. 5 ... ... : ... .. 2 P7C ... : ... .. . ... ...
ROW AC : ... .. . P81 ... ... : ... .. . ... ... ... : F-4 00 . ... : 1-# 00 F ... : ... .. . ... ... : A#4 01 8 ... ... : C-4 01 8 P86 ... : F-5 01 8 P83 ...
ROW AD : ... .. . P83 ... ... : ... .. . ... ... ... : ... .. . ... : ... .. C ... : ... .. . ... ... : ... .. 7 ... ... : C#4 01 7 P7B ... : ... .. . P80 ...
ROW AE : ... .. . ... ... ... : ... .. . ... ... ... : ... .. . ... : ... .. 6 ... : ... .. . ... ... : ... .. 6 ... ... : ... .. 6 P7F ... : E-5 01 8 P81 ...
ROW AF : ... .. . P81 ... ... : ... .. . ... ... ... : ... .. . ... : ... .. 3 ... : ... .. . ... ... : ... .. 5 ... ... : ... .. 4 P82 ... : ... .. . P80 ...
ROW B0 : ... .. . P80 ... ... : ... .. . ... ... ... : ... .. . ... : ... .. 2 ... : ... .. . ... ... : F-4 01 8 ... ... : ... .. . P86 ... : ... .. 4 P82 ...
ROW B1 : ... .. . P7E ... ... : ... .. . ... ... ... : ... .. . ... : ... .. 0 ... : ... .. . ... ... : ... .. 7 ... ... : ... .. 2 ... ... : F-5 01 4 P81 ...
ROW B2 : ... .. . P7D ... ... : ... .. . ... ... ... : G#4 00 . ... : ... .. F ... : ... .. . ... ... : ... .. 6 ... ... : ... .. 8 P83 ... : F#5 01 1 P7E ...
ROW B3 : ... .. . ... ... ... : ... .. 2 ... ... ... : ... .. . ... : ... .. C ... : ... .. . ... ... : ... .. 5 ... ... : ... .. 7 P80 ... : ... .. . P81 ...
ROW B4 : ... .. . P80 ... ... : ... .. . ... ... ... : ... .. . ... : ... .. 6 ... : ... .. . ... ... : C#4 01 8 ... ... : ... .. 6 P7C ... : ... .. . ... ...
ROW B5 : ... .. . P81 ... ... : ... .. . ... ... ... : ... .. . ... : ... .. 3 ... : ... .. . ... ... : ... .. 7 ... ... : C-4 01 5 P86 ... : ... .. . P7E ...
ROW B6 : ... .. . P83 ... ... : ... .. 1 ... ... ... : ... .. . ... : ... .. 2 ... : ... .. . ... ... : ... .. 6 ... ... : C#4 01 5 P7B ... : F-5 01 1 P81 ...
ROW B7 : ... .. . ... ... ... : ... .. . ... ... ... : ... .. . ... : ... .. 0 ... : ... .. . ... ... : ... .. 5 ... ... : ... .. 4 P7E ... : E-5 01 1 P82 ...
ROW B8 : ... .. . P82 ... ... : A#4 00 F ... ... ... : C-6 00 . ... : B-# 00 D ... : ... .. . ... ... : F-5 01 8 ... ... : ... .. 8 P82 ... : A#4 01 F P81 ...
ROW B9 : ... .. . P80 ... ... : ... .. E ... ... ... : D-5 00 . ... : ... .. B ... : ... .. . ... ... : ... .. 7 ... ... : ... .. 7 P85 ... : ... .. D ... ...
ROW BA : ... .. . P7E ... ... : ... .. D ... ... ... : G-4 00 . ... : ... .. . ... : ... .. . ... ... : ... .. 6 ... ... : ... .. 6 P86 ... : ... .. 8 ... ...
ROW BB : ... .. 7 P7D ... ... : ... .. A ... ... ... : F#4 00 . ... : ... .. A ... : ... .. . ... ... : ... .. 5 ... ... : ... .. 4 P84 ... : ... .. . ... ...
ROW BC : ... .. . ... ... ... : ... .. . ... ... ... : C#4 00 . ... : ... .. 8 ... : ... .. . ... ... : C#5 01 8 ... ... : ... .. . P80 ... : ... .. . ... ...
ROW BD : ... .. . P7F ... ... : ... .. . ... ... ... : ... .. . ... : ... .. 7 ... : ... .. . ... ... : ... .. 7 ... ... : ... .. 2 P7D ... : ... .. . ... ...
ROW BE : ... .. . P81 ... ... : ... .. . ... ... ... : ... .. . ... : 1-# 00 D ... : ... .. . ... ... : ... .. 6 ... ... : C-4 01 8 P86 ... : ... .. . ... ...
ROW BF : ... .. . P83 ... ... : ... .. . ... ... ... : ... .. . ... : ... .. B ... : ... .. . ... ... : ... .. 5 ... ... : ... .. 7 ... ... : ... .. . ... ...
ROW C0 : ... .. . ... ... ... : ... .. . ... ... ... : ... .. . ... : ... .. . ... : ... .. . ... ... : A#4 01 8 ... ... : C#4 01 6 P7E ... : ... .. . ... ...
ROW C1 : ... .. . P82 ... ... : ... .. . ... ... ... : ... .. . ... : ... .. A ... : ... .. . ... ... : ... .. 7 ... ... : ... .. 5 P81 ... : ... .. . ... ...
ROW C2 : ... .. . P80 ... ... : ... .. 2 ... ... ... : ... .. . ... : ... .. 8 ... : ... .. . ... ... : ... .. 6 ... ... : ... .. . P85 ... : ... .. 4 ... ...
ROW C3 : ... .. . P7E ... ... : ... .. . ... ... ... : ... .. . ... : ... .. 7 ... : ... .. . ... ... : ... .. 5 ... ... : ... .. 4 P86 ... : ... .. . ... ...
ROW C4 : ... .. . P7D ... ... : C-5 00 F ... ... ... : A-3 00 . ... : ... .. D ... : ... .. . ... ... : F-4 01 8 ... ... : ... .. . P84 ... : C-5 01 F ... ...
ROW C5 : ... .. . ... ... ... : ... .. E ... ... ... : B-2 00 . ... : ... .. B ... : ... .. . ... ... : ... .. 7 ... ... : ... .. . P80 ... : ... .. D ... ...
ROW C6 : ... .. . P7F ... ... : ... .. D ... ... ... : E-2 00 . ... : ... .. . ... : ... .. . ... ... : ... .. 6 ... ... : ... .. 2 P7D ... : ... .. 8 ... ...
ROW C7 : ... .. 8 P80 ... ... : ... .. A ... ... ... : D#2 00 . ... : ... .. A ... : ... .. . ... ... : ... .. 5 ... ... : C-4 01 2 P86 ... : ... .. . ... ...
ROW C8 : ... .. . P83 ... ... : ... .. . ... ... ... : A#1 00 . ... : ... .. 8 ... : ... .. . ... ... : C#4 01 8 ... ... : ... .. . ... ... : ... .. . ... ...
ROW C9 : ... .. . ... ... ... : ... .. . ... ... ... : ... .. . ... : ... .. 7 ... : ... .. . ... ... : ... .. 7 ... ... : C#4 01 2 P7D ... : ... .. . ... ...
ROW CA : ... .. . P82 ... ... : ... .. . ... ... ... : A-3 00 . ... : 9-# 00 D ... : ... .. . ... ... : ... .. 6 ... ... : ... .. 8 P80 ... : ... .. . ... ...
ROW CB : ... .. . P80 ... ... : ... .. . ... ... ... : B-2 00 . ... : ... .. B ... : ... .. . ... ... : ... .. 5 ... ... : ... .. 7 P84 ... : ... .. . ... ...
ROW CC : ... .. . P7F ... ... : ... .. . ... ... ... : E-2 00 . ... : ... .. . ... : ... .. . ... ... : A#3 01 8 ... ... : ... .. 6 P86 ... : ... .. . ... ...
ROW CD : ... .. . P7D ... ... : ... .. . ... ... ... : D#2 00 . ... : ... .. A ... : ... .. . ... ... : ... .. 7 ... ... : ... .. 4 P85 ... : ... .. . ... ...
ROW CE : ... .. . ... ... ... : ... .. 2 ... ... ... : A#1 00 . ... : ... .. 8 ... : ... .. . ... ... : ... .. 6 ... ... : ... .. . P81 ... : ... .. 4 ... ...
ROW CF : ... .. . P7F ... ... : ... .. . ... ... ... : ... .. . ... : ... .. 7 ... : ... .. . ... ... : ... .. 5 ... ... : ... .. 2 P7E ... : ... .. . ... ...
ROW D0 : ... .. . P80 ... ... : C#5 00 F ... ... ... : C-5 00 . ... : 2-# 00 D ... : ... .. . ... ... : F-5 01 8 ... ... : C-4 01 8 P86 ... : C#5 01 F ... ...
ROW D1 : ... .. . P82 ... ... : ... .. E ... ... ... : D-4 00 . ... : ... .. B ... : ... .. . ... ... : ... .. 7 ... ... : ... .. 7 ... ... : ... .. D ... ...
ROW D2 : ... .. . P83 ... ... : ... .. D ... ... ... : G-3 00 . ... : ... .. . ... : ... .. . ... ... : ... .. 6 ... ... : C#4 01 6 P7D ... : ... .. 8 ... ...
ROW D3 : ... .. . ... ... ... : ... .. A ... ... ... : F#3 00 . ... : ... .. A ... : ... .. . ... ... : ... .. 5 ... ... : ... .. 5 P80 ... : ... .. . ... ...
ROW D4 : ... .. . P80 ... ... : ... .. . ... ... ... : C#3 00 . ... : ... .. 8 ... : ... .. . ... ... : C#5 01 8 ... ... : ... .. . P84 ... : ... .. . ... ...
ROW D5 : ... .. . P7F ... ... : ... .. . ... ... ... : ... .. . ... : ... .. 7 ... : ... .. . ... ... : ... .. 7 ... ... : ... .. 4 P86 ... : ... .. . ... ...
ROW D6 : ... .. . P7D ... ... : ... .. . ... ... ... : ... .. . ... : ... .. D ... : ... .. . ... ... : ... .. 6 ... ... : ... .. . P85 ... : ... .. . ... ...
ROW D7 : ... .. . ... ... ... : ... .. . ... ... ... : ... .. . ... : ... .. B ... : ... .. . ... ... : ... .. 5 ... ... : ... .. . P82 ... : ... .. . ... ...
ROW D8 : ... .. . P7E ... ... : ... .. . ... ... ... : ... .. . ... : ... .. . ... : ... .. . ... ... : A#4 01 8 ... ... : ... .. 2 P7E ... : ... .. . ... ...
ROW D9 : ... .. . P80 ... ... : ... .. . ... ... ... : ... .. . ... : ... .. A ... : ... .. . ... ... : ... .. 7 ... ... : ... .. . P7B ... : ... .. . ... ...
ROW DA : ... .. . P82 ... ... : ... .. . ... ... ... : ... .. . ... : ... .. 8 ... : ... .. . ... ... : ... .. 6 ... ... : C-4 01 2 P86 ... : ... .. . ... ...
ROW DB : ... .. . P83 ... ... : ... .. . ... ... ... : ... .. . ... : ... .. 7 ... : ... .. . ... ... : ... .. 5 ... ... : C#4 01 2 P7C ... : ... .. . ... ...
ROW DC : ... .. . ... ... ... : ... .. . ... ... ... : A-3 00 . ... : 7-# 00 D ... : ... .. . ... ... : F-4 01 8 ... ... : ... .. 8 P80 ... : ... .. . ... ...
ROW DD : ... .. . P81 ... ... : ... .. . ... ... ... : B-2 00 . ... : ... .. B ... : ... .. . ... ... : ... .. 7 ... ... : ... .. 7 P83 ... : ... .. . ... ...
ROW DE : ... .. . P7F ... ... : ... .. . ... ... ... : E-2 00 . ... : ... .. . ... : ... .. . ... ... : ... .. 6 ... ... : ... .. 6 P86 ... : ... .. . ... ...
ROW DF : ... .. 9 P7D ... ... : ... .. . ... ... ... : D#2 00 . ... : ... .. A ... : ... .. . ... ... : ... .. 5 ... ... : ... .. 4 ... ... : D-5 01 8 P7E ...
ROW E0 : ... .. . ... ... ... : ... .. . ... ... ... : A#1 00 . ... : ... .. 8 ... : ... .. . ... ... : C#4 01 8 ... ... : ... .. . P82 ... : ... .. . P7F ...
ROW E1 : ... .. . P7E ... ... : ... .. . ... ... ... : ... .. . ... : ... .. 7 ... : ... .. . ... ... : ... .. 7 ... ... : ... .. 2 P7F ... : ... .. . ... ...
ROW E2 : ... .. . P80 ... ... : ... .. . ... ... ... : A-3 00 . ... : 0-# 00 D ... : ... .. . ... ... : ... .. 6 ... ... : ... .. 8 P7B ... : C#5 01 8 P82 ...
ROW E3 : ... .. . P82 ... ... : ... .. . ... ... ... : B-2 00 . ... : ... .. B ... : ... .. . ... ... : ... .. 5 ... ... : C-4 01 7 P86 ... : ... .. . P80 ...
ROW E4 : ... .. . P83 ... ... : ... .. . ... ... ... : E-2 00 . ... : ... .. . ... : ... .. . ... ... : A#3 01 8 ... ... : C#4 01 6 P7C ... : ... .. . P7D ...
ROW E5 : ... .. . P80 ... ... : ... .. . ... ... ... : D#2 00 . ... : ... .. A ... : ... .. . ... ... : ... .. 7 ... ... : ... .. 5 P80 ... : ... .. . ... ...
ROW E6 : ... .. . ... ... ... : ... .. . ... ... ... : A#1 00 . ... : ... .. 8 ... : ... .. . ... ... : ... .. 6 ... ... : ... .. . P83 ... : ... .. . P7E ...
ROW E7 : ... .. . ... ... ... : ... .. . ... ... ... : ... .. . ... : ... .. 7 ... : ... .. . ... ... : ... .. 5 ... ... : ... .. 4 P86 ... : ... .. . P81 ...
ROW E8 : C#5 00 F ... V00 ... : A#4 00 F ... ... ... : A-4 00 . ... : ... .. D ... : ... .. . ... ... : A#5 01 8 ... ... : ... .. . ... ... : ... .. . P83 ...
ROW E9 : ... .. E ... ... ... : ... .. E ... ... ... : B-3 00 . ... : ... .. B ... : ... .. . ... ... : ... .. 7 ... ... : ... .. . P83 ... : D-5 01 8 P7F ...
ROW EA : ... .. D ... ... ... : ... .. D ... ... ... : E-3 00 . ... : ... .. . ... : ... .. . ... ... : ... .. 6 ... ... : ... .. 2 P80 ... : ... .. . ... ...
ROW EB : ... .. A ... ... ... : ... .. A ... ... ... : D#3 00 . ... : ... .. A ... : ... .. . ... ... : ... .. 5 ... ... : ... .. . P7C ... : C#5 01 8 P82 ...
ROW EC : ... .. . ... ... ... : ... .. . ... ... ... : A#2 00 . ... : ... .. 8 ... : ... .. . ... ... : F-5 01 8 ... ... : C-4 01 2 P86 ... : ... .. . P81 ...
ROW ED : ... .. . ... ... ... : ... .. . ... ... ... : ... .. . ... : ... .. 7 ... : ... .. . ... ... : ... .. 7 ... ... : C#4 01 2 P7B ... : ... .. . P7E ...
ROW EE : ... .. . ... ... ... : ... .. . ... ... ... : C-4 00 . ... : 9-# 00 D ... : ... .. . ... ... : ... .. 6 ... ... : ... .. 8 P7F ... : ... .. . P7D ...
ROW EF : ... .. . ... ... ... : ... .. . ... ... ... : ... .. . ... : ... .. B ... : ... .. . ... ... : ... .. 5 ... ... : ... .. 7 P82 ... : ... .. . P7E ...
ROW F0 : ... .. . ... ... ... : ... .. . ... ... ... : ... .. . ... : ... .. . ... : ... .. . ... ... : C#5 01 8 ... ... : ... .. 6 P86 ... : ... .. . P81 ...
ROW F1 : ... .. . ... ... ... : ... .. . ... ... ... : ... .. . ... : ... .. A ... : ... .. . ... ... : ... .. 7 ... ... : ... .. 4 ... ... : ... .. . P83 ...
ROW F2 : ... .. . ... ... ... : ... .. . ... ... ... : ... .. . ... : ... .. 8 ... : ... .. . ... ... : ... .. 6 ... ... : ... .. . P83 ... : D-5 01 8 P7F ...
ROW F3 : ... .. . ... ... ... : ... .. . ... ... ... : ... .. . ... : ... .. 7 ... : ... .. . ... ... : ... .. 5 ... ... : ... .. 2 P80 ... : ... .. . ... ...
ROW F4 : ... .. . ... ... ... : ... .. . ... ... ... : C#4 00 . ... : 4-# 00 D ... : ... .. . ... ... : A#4 01 8 ... ... : ... .. 8 P7C ... : C#5 01 8 P83 ...
ROW F5 : ... .. . ... ... ... : ... .. . ... ... ... : ... .. . ... : ... .. B ... : ... .. . ... ... : ... .. 7 ... ... : C-4 01 7 P86 ... : ... .. . P81 ...
ROW F6 : ... .. . ... ... ... : ... .. . ... ... ... : ... .. . ... : ... .. . ... : ... .. . ... ... : ... .. 6 ... ... : C#4 01 6 P7B ... : ... .. . P7E ...
ROW F7 : ... .. . ... ... ... : ... .. . ... ... ... : ... .. . ... : ... .. A ... : ... .. . ... ... : ... .. 5 ... ... : ... .. 5 P7E ... : ... .. . P7D ...
ROW F8 : ... .. . ... ... ... : ... .. . ... ... ... : ... .. . ... : ... .. 8 ... : ... .. . ... ... : F-4 01 8 ... ... : ... .. . P82 ... : ... .. . P7E ...
ROW F9 : ... .. . ... ... ... : ... .. . ... ... ... : ... .. . ... : ... .. 7 ... : ... .. . ... ... : ... .. 7 ... ... : ... .. 4 P85 ... : ... .. . P81 ...
ROW FA : ... .. . ... ... ... : ... .. . ... ... ... : D#4 00 . ... : ... .. D ... : ... .. . ... ... : ... .. 6 ... ... : ... .. . P86 ... : ... .. . P82 ...
ROW FB : ... .. . ... ... ... : ... .. . ... ... ... : ... .. . ... : ... .. B ... : ... .. . ... ... : ... .. 5 ... ... : ... .. . P84 ... : D-5 01 8 P7F ...
ROW FC : ... .. . ... ... ... : ... .. . ... ... ... : ... .. . ... : ... .. . ... : ... .. . ... ... : C#4 01 8 ... ... : ... .. 2 P80 ... : ... .. . ... ...
ROW FD : ... .. . ... ... ... : ... .. . ... ... ... : ... .. . ... : ... .. A ... : ... .. . ... ... : ... .. 7 ... ... : ... .. . P7D ... : C#5 01 8 P83 ...
ROW FE : ... .. 2 ... ... ... : ... .. 2 ... ... ... : ... .. . ... : ... .. 8 ... : ... .. . ... ... : ... .. 6 ... ... : C-4 01 2 P86 ... : ... .. . P81 ...
ROW FF : ... .. . ... ... ... : ... .. . ... ... ... : ... .. . ... : ... .. 7 ... : ... .. . ... ... : ... .. 5 ... ... : ... .. . ... ... : ... .. . P7E ...

PATTERN 12
ROW 00 : D#5 00 F ... ... ... : G#4 00 F ... ... ... : F-4 00 . ... : 7-# 00 D ... : ... .. . ... ... : A#5 01 8 ... ... : C#4 01 8 P7E ... : ... .. . P7D ...
ROW 01 : ... .. E ... ... ... : ... .. E ... ... ... : ... .. . ... : ... .. B ... : ... .. . ... ... : ... .. 7 ... ... : ... .. 7 P81 ... : ... .. . ... ...
ROW 02 : ... .. D ... ... ... : ... .. D ... ... ... : ... .. . ... : ... .. . ... : ... .. . ... ... : ... .. 6 ... ... : ... .. 6 P85 ... : ... .. . P80 ...
ROW 03 : ... .. A ... ... ... : ... .. A ... ... ... : ... .. . ... : ... .. A ... : ... .. . ... ... : ... .. 5 ... ... : ... .. 4 P86 ... : ... .. . P82 ...
ROW 04 : ... .. . ... ... ... : ... .. . ... ... ... : ... .. . ... : ... .. 8 ... : ... .. . ... ... : F-5 01 8 ... ... : ... .. . P84 ... : D-5 01 8 P7F ...
ROW 05 : ... .. . ... ... ... : ... .. . ... ... ... : ... .. . ... : ... .. 7 ... : ... .. . ... ... : ... .. 7 ... ... : ... .. 2 P80 ... : ... .. . ... ...
ROW 06 : ... .. . ... ... ... : ... .. . ... ... ... : C#4 00 . ... : 5-# 00 D ... : ... .. . ... ... : ... .. 6 ... ... : ... .. 8 P7D ... : ... .. . P7E ...
ROW 07 : E-5 00 A ... ... ... : ... .. . ... ... ... : ... .. . ... : ... .. B ... : ... .. . ... ... : ... .. 5 ... ... : C-4 01 7 P86 ... : C#5 01 8 P81 ...
ROW 08 : F-5 00 A ... ... ... : ... .. . ... ... ... : ... .. . ... : ... .. . ... : ... .. . ... ... : C#5 01 8 ... ... : ... .. 6 ... ... : ... .. . P7F ...
ROW 09 : ... .. . ... ... ... : ... .. . ... ... ... : ... .. . ... : ... .. A ... : ... .. . ... ... : ... .. 7 ... ... : C#4 01 4 P7D ... : ... .. . P7D ...
ROW 0A : ... .. . ... ... ... : ... .. . ... ... ... : ... .. . ... : ... .. 8 ... : ... .. . ... ... : ... .. 6 ... ... : ... .. . P80 ... : ... .. . ... ...
ROW 0B : ... .. . ... ... ... : ... .. . ... ... ... : ... .. . ... : ... .. 7 ... : ... .. . ... ... : ... .. 5 ... ... : ... .. 2 P84 ... : ... .. . P80 ...
ROW 0C : ... .. . ... ... ... : ... .. . ... ... ... : F-4 00 . ... : 4-# 00 D ... : ... .. . ... ... : A#4 01 8 ... ... : ... .. 8 P86 ... : ... .. . P81 ...
ROW 0D : ... .. . ... ... ... : ... .. . ... ... ... : ... .. . ... : ... .. B ... : ... .. . ... ... : ... .. 7 ... ... : ... .. 7 P85 ... : D-5 01 4 P7E ...
ROW 0E : ... .. . ... ... ... : ... .. . ... ... ... : ... .. . ... : ... .. . ... : ... .. . ... ... : ... .. 6 ... ... : ... .. 6 P81 ... : ... .. . P7F ...
ROW 0F : ... .. . ... ... ... : ... .. . ... ... ... : ... .. . ... : ... .. A ... : ... .. . ... ... : ... .. 5 ... ... : ... .. 4 P7E ... : ... .. 1 P7E ...
ROW 10 : ... .. . ... ... ... : ... .. . ... ... ... : ... .. . ... : ... .. 8 ... : ... .. . ... ... : F-4 01 8 ... ... : C-4 01 4 P86 ... : C#5 01 1 P81 ...
ROW 11 : ... .. . ... ... ... : ... .. . ... ... ... : ... .. . ... : ... .. 7 ... : ... .. . ... ... : ... .. 7 ... ... : ... .. 2 ... ... : ... .. . P7F ...
ROW 12 : ... .. . ... ... ... : ... .. . ... ... ... : G#4 00 . ... : 2-# 00 D ... : ... .. . ... ... : ... .. 6 ... ... : C#4 01 8 P7D ... : ... .. . P7D ...
ROW 13 : ... .. . ... ... ... : ... .. . ... ... ... : ... .. . ... : ... .. B ... : ... .. . ... ... : ... .. 5 ... ... : ... .. 7 P80 ... : ... .. . ... ...
ROW 14 : ... .. . ... ... ... : ... .. . ... ... ... : ... .. . ... : ... .. . ... : ... .. . ... ... : C#4 01 8 ... ... : ... .. 6 P84 ... : ... .. . P7F ...
ROW 15 : ... .. . ... ... ... : ... .. . ... ... ... : ... .. . ... : ... .. A ... : ... .. . ... ... : ... .. 7 ... ... : ... .. 5 P86 ... : ... .. . P81 ...
ROW 16 : ... .. 2 ... ... ... : ... .. 2 ... ... ... : ... .. . ... : ... .. 8 ... : ... .. . ... ... : ... .. 6 ... ... : ... .. . P85 ... : D-5 01 0 P7E ...
ROW 17 : ... .. . ... ... ... : ... .. . ... ... ... : ... .. . ... : ... .. 7 ... : ... .. . ... ... : ... .. 5 ... ... : ... .. 4 P82 ... : ... .. . P7F ...
ROW 18 : D#5 00 F ... ... ... : F#4 00 F ... ... ... : D-6 00 . ... : B-# 00 D ... : ... .. . ... ... : ... .. . ... ... : D#4 01 A P7E ... : A#3 01 F P84 ...
ROW 19 : ... .. . ... ... ... : ... .. E ... ... ... : E-5 00 . ... : ... .. B ... : ... .. . ... ... : ... .. 4 ... ... : D-4 01 9 P85 ... : ... .. D P81 ...
ROW 1A : ... .. . ... ... ... : ... .. D ... ... ... : A-4 00 . ... : ... .. . ... : ... .. . ... ... : ... .. . ... ... : ... .. 8 P84 ... : ... .. 8 P80 ...
ROW 1B : ... .. . ... ... ... : ... .. A ... ... ... : G#4 00 . ... : ... .. A ... : ... .. . ... ... : ... .. . ... ... : D#4 01 5 P7C ... : ... .. . P7D ...
ROW 1C : ... .. . ... ... ... : ... .. . ... ... ... : D#4 00 . ... : ... .. 8 ... : ... .. . ... ... : ... .. . ... ... : ... .. . P80 ... : ... .. 4 ... ...
ROW 1D : ... .. . ... ... ... : ... .. . ... ... ... : ... .. . ... : ... .. 7 ... : ... .. . ... ... : ... .. . ... ... : ... .. 3 P83 ... : ... .. . P7F ...
ROW 1E : ... .. . ... ... ... : ... .. . ... ... ... : ... .. . ... : ... .. 6 ... : ... .. . ... ... : ... .. . ... ... : C#4 01 A P86 ... : ... .. F P81 ...
ROW 1F : ... .. . ... ... ... : ... .. . ... ... ... : ... .. . ... : ... .. . ... : ... .. . ... ... : ... .. . ... ... : ... .. 9 ... ... : ... .. D P84 ...
ROW 20 : ... .. . ... ... ... : ... .. . ... ... ... : ... .. . ... : ... .. 5 ... : ... .. . ... ... : ... .. . ... ... : ... .. 8 P82 ... : ... .. 8 P85 ...
ROW 21 : ... .. . ... ... ... : ... .. . ... ... ... : ... .. . ... : ... .. . ... : ... .. . ... ... : ... .. . ... ... : ... .. 7 P7F ... : ... .. . ... ...
ROW 22 : ... .. . ... ... ... : ... .. . ... ... ... : ... .. . ... : ... .. 4 ... : ... .. . ... ... : ... .. . ... ... : ... .. . P7B ... : ... .. 4 P82 ...
ROW 23 : ... .. . ... ... ... : ... .. . ... ... ... : ... .. . ... : ... .. . ... : ... .. . ... ... : ... .. . ... ... : C-4 01 6 P86 ... : ... .. . P80 ...
ROW 24 : ... .. . ... ... ... : ... .. . ... ... ... : A#4 00 . ... : 1-# 00 F ... : ... .. . ... ... : ... .. . ... ... : B-3 01 A P7C ... : ... .. F P7D ...
ROW 25 : ... .. . ... ... ... : ... .. . ... ... ... : C-4 00 . ... : ... .. C ... : ... .. . ... ... : ... .. . ... ... : ... .. 9 P80 ... : ... .. D ... ...
ROW 26 : ... .. . ... ... ... : ... .. . ... ... ... : F-3 00 . ... : ... .. 6 ... : ... .. . ... ... : ... .. . ... ... : ... .. 8 P83 ... : ... .. 8 P7E ...
ROW 27 : ... .. . ... ... ... : ... .. . ... ... ... : E-3 00 . ... : ... .. 3 ... : ... .. . ... ... : ... .. . ... ... : ... .. 7 P86 ... : ... .. . P81 ...
ROW 28 : ... .. . ... ... ... : ... .. . ... ... ... : B-2 00 . ... : ... .. 2 ... : ... .. . ... ... : ... .. . ... ... : ... .. . ... ... : ... .. 4 P83 ...
ROW 29 : ... .. . ... ... ... : ... .. . ... ... ... : ... .. . ... : ... .. 0 ... : ... .. . ... ... : ... .. . ... ... : ... .. 6 P83 ... : ... .. . P85 ...
ROW 2A : ... .. . ... ... ... : ... .. . ... ... ... : A#4 00 . ... : ... .. F ... : ... .. . ... ... : ... .. . ... ... : A#3 01 A P80 ... : ... .. F ... ...
ROW 2B : ... .. . ... ... ... : ... .. . ... ... ... : C-4 00 . ... : ... .. C ... : ... .. . ... ... : ... .. . ... ... : ... .. 9 P7C ... : ... .. D P82 ...
ROW 2C : ... .. . ... ... ... : ... .. . ... ... ... : F-3 00 . ... : ... .. 6 ... : ... .. . ... ... : ... .. . ... ... : ... .. 8 P7A ... : ... .. 8 P81 ...
ROW 2D : ... .. . ... ... ... : ... .. . ... ... ... : E-3 00 . ... : ... .. 3 ... : ... .. . ... ... : ... .. . ... ... : ... .. 5 P7B ... : ... .. . P7E ...
ROW 2E : ... .. . ... ... ... : ... .. . ... ... ... : B-2 00 . ... : ... .. 2 ... : ... .. . ... ... : ... .. . ... ... : ... .. . P7F ... : ... .. 4 P7D ...
ROW 2F : ... .. . ... ... ... : ... .. . ... ... ... : ... .. . ... : ... .. 0 ... : ... .. . ... ... : ... .. . ... ... : ... .. 3 P82 ... : ... .. . P7E ...
ROW 30 : ... .. . ... ... ... : ... .. . ... ... ... : A#5 00 . ... : B-# 00 D ... : ... .. . ... ... : ... .. . ... ... : C#4 01 A P86 ... : ... .. F P81 ...
ROW 31 : ... .. . ... ... ... : ... .. . ... ... ... : C-5 00 . ... : ... .. B ... : ... .. . ... ... : ... .. . ... ... : ... .. 9 ... ... : ... .. D P83 ...
ROW 32 : ... .. . ... ... ... : ... .. . ... ... ... : F-4 00 . ... : ... .. . ... : ... .. . ... ... : ... .. . ... ... : ... .. 8 P83 ... : ... .. 8 P85 ...
ROW 33 : ... .. 8 ... ... ... : ... .. 5 ... ... ... : E-4 00 . ... : ... .. A ... : ... .. . ... ... : ... .. . ... ... : ... .. 7 P80 ... : ... .. . ... ...
ROW 34 : C#5 00 8 P82 ... ... : F-4 00 5 P84 ... ... : B-3 00 . ... : ... .. 8 ... : ... .. . ... ... : ... .. . ... ... : ... .. . P7C ... : ... .. 4 P83 ...
ROW 35 : C-5 00 8 P7F ... ... : ... .. . P7F ... ... : ... .. . ... : ... .. 7 ... : ... .. . ... ... : ... .. . ... ... : C-4 01 6 P86 ... : ... .. . P81 ...
ROW 36 : A#4 00 8 P83 ... ... : E-4 00 5 P84 ... ... : ... .. . ... : ... .. 6 ... : ... .. . ... ... : ... .. . ... ... : B-3 01 A P7B ... : ... .. F P7E ...
ROW 37 : ... .. . P80 ... ... : ... .. . P7F ... ... : ... .. . ... : ... .. . ... : ... .. . ... ... : ... .. . ... ... : ... .. 9 P7E ... : ... .. D P7D ...
ROW 38 : ... .. . ... ... ... : D#4 00 5 P84 ... ... : ... .. . ... : ... .. 5 ... : ... .. . ... ... : ... .. . ... ... : ... .. 8 P82 ... : ... .. 8 P7E ...
ROW 39 : ... .. . ... ... ... : ... .. . P80 ... ... : ... .. . ... : ... .. . ... : ... .. . ... ... : ... .. . ... ... : ... .. 7 P85 ... : ... .. . P81 ...
ROW 3A : ... .. . ... ... ... : ... .. . ... ... ... : ... .. . ... : ... .. 4 ... : ... .. . ... ... : ... .. . ... ... : ... .. . P86 ... : ... .. 4 P82 ...
ROW 3B : ... .. . ... ... ... : ... .. . ... ... ... : ... .. . ... : ... .. . ... : ... .. . ... ... : ... .. . ... ... : ... .. 6 P84 ... : ... .. . P85 ...
ROW 3C : ... .. F ... ... ... : ... .. F ... ... ... : A#4 00 . ... : 1-# 00 F ... : ... .. . ... ... : ... .. . ... ... : A#3 01 A P80 ... : ... .. F ... ...
ROW 3D : ... .. . ... ... ... : ... .. E ... ... ... : C-4 00 . ... : ... .. C ... : ... .. . ... ... : ... .. . ... ... : ... .. 9 P7D ... : ... .. D P83 ...
ROW 3E : ... .. . ... ... ... : ... .. D ... ... ... : F-3 00 . ... : ... .. 6 ... : ... .. . ... ... : ... .. . ... ... : ... .. 8 P7A ... : ... .. 8 P81 ...
ROW 3F : ... .. . ... ... ... : ... .. A ... ... ... : E-3 00 . ... : ... .. 3 ... : ... .. . ... ... : ... .. . ... ... : ... .. 5 ... ... : ... .. . P7E ...
ROW 40 : ... .. . ... ... ... : ... .. . ... ... ... : B-2 00 . ... : ... .. 2 ... : ... .. . ... ... : ... .. . ... ... : ... .. . P7E ... : ... .. 4 P7D ...
ROW 41 : ... .. . ... ... ... : ... .. . ... ... ... : ... .. . ... : ... .. 0 ... : ... .. . ... ... : ... .. . ... ... : ... .. 3 P81 ... : ... .. . ... ...
ROW 42 : ... .. 0 ... ... ... : ... .. . ... ... ... : A#4 00 . ... : ... .. F ... : ... .. . ... ... : ... .. . ... ... : G#3 01 A P85 ... : ... .. F P80 ...
ROW 43 : ... .. . ... ... ... : ... .. 2 ... ... ... : C-4 00 . ... : ... .. C ... : ... .. . ... ... : ... .. . ... ... : ... .. 9 P86 ... : ... .. D P82 ...
ROW 44 : ... .. . ... ... ... : ... .. . ... ... ... : F-3 00 . ... : ... .. 6 ... : ... .. . ... ... : ... .. . ... ... : ... .. 8 P84 ... : ... .. 8 P85 ...
ROW 45 : ... .. . ... ... ... : ... .. . ... ... ... : E-3 00 . ... : ... .. 3 ... : ... .. . ... ... : ... .. . ... ... : ... .. 7 P80 ... : ... .. . ... ...
ROW 46 : ... .. . ... ... ... : ... .. 1 ... ... ... : B-2 00 . ... : ... .. 2 ... : ... .. . ... ... : ... .. . ... ... : ... .. . P7D ... : ... .. 4 P84 ...
ROW 47 : ... .. . ... ... ... : ... .. . ... ... ... : ... .. . ... : ... .. 0 ... : ... .. . ... ... : ... .. . ... ... : ... .. 6 P7A ... : ... .. . P81 ...
ROW 48 : A#4 00 F P80 ... ... : ... .. F ... ... ... : D-6 00 . ... : B-# 00 D ... : ... .. . ... ... : ... .. . ... ... : B-3 01 A ... ... : ... .. F P7F ...
ROW 49 : ... .. . ... ... ... : ... .. E ... ... ... : E-5 00 . ... : ... .. B ... : ... .. . ... ... : ... .. . ... ... : ... .. 9 P7D ... : ... .. D P7D ...
ROW 4A : ... .. . ... ... ... : ... .. D ... ... ... : A-4 00 . ... : ... .. . ... : ... .. . ... ... : ... .. . ... ... : ... .. 8 P80 ... : ... .. 8 ... ...
ROW 4B : ... .. . ... ... ... : ... .. A ... ... ... : G#4 00 . ... : ... .. A ... : ... .. . ... ... : ... .. . ... ... : ... .. 7 P84 ... : ... .. . P80 ...
ROW 4C : ... .. . ... ... ... : ... .. . ... ... ... : D#4 00 . ... : ... .. 8 ... : ... .. . ... ... : ... .. . ... ... : ... .. . P86 ... : ... .. 4 P81 ...
ROW 4D : ... .. . ... ... ... : ... .. . ... ... ... : ... .. . ... : ... .. 7 ... : ... .. . ... ... : ... .. . ... ... : ... .. 6 P85 ... : ... .. . P84 ...
ROW 4E : ... .. . ... ... ... : ... .. . ... ... ... : ... .. . ... : ... .. 6 ... : ... .. . ... ... : ... .. . ... ... : A#3 01 A P81 ... : ... .. F P85 ...
ROW 4F : ... .. . ... ... ... : ... .. . ... ... ... : ... .. . ... : ... .. . ... : ... .. . ... ... : ... .. . ... ... : ... .. 9 P7E ... : ... .. D P84 ...
ROW 50 : ... .. . ... ... ... : ... .. . ... ... ... : ... .. . ... : ... .. 5 ... : ... .. . ... ... : ... .. . ... ... : ... .. 8 P7A ... : ... .. 8 P81 ...
ROW 51 : ... .. . ... ... ... : ... .. . ... ... ... : ... .. . ... : ... .. . ... : ... .. . ... ... : ... .. . ... ... : ... .. 5 ... ... : ... .. . P7F ...
ROW 52 : ... .. . ... ... ... : ... .. . ... ... ... : ... .. . ... : ... .. 4 ... : ... .. . ... ... : ... .. . ... ... : ... .. . P7D ... : ... .. 4 P7D ...
ROW 53 : ... .. . ... ... ... : ... .. . ... ... ... : ... .. . ... : ... .. . ... : ... .. . ... ... : ... .. . ... ... : ... .. 3 P80 ... : ... .. . ... ...
ROW 54 : ... .. . ... ... ... : ... .. . ... ... ... : A#4 00 . ... : 1-# 00 F ... : ... .. . ... ... : ... .. . ... ... : G#3 01 A P84 ... : ... .. F P7F ...
ROW 55 : ... .. . ... ... ... : ... .. . ... ... ... : C-4 00 . ... : ... .. C ... : ... .. . ... ... : ... .. . ... ... : ... .. 9 P86 ... : ... .. D P81 ...
ROW 56 : ... .. . ... ... ... : ... .. . ... ... ... : F-3 00 . ... : ... .. 6 ... : ... .. . ... ... : ... .. . ... ... : ... .. 8 P85 ... : ... .. 8 P84 ...
ROW 57 : ... .. . ... ... ... : ... .. . ... ... ... : E-3 00 . ... : ... .. 3 ... : ... .. . ... ... : ... .. . ... ... : ... .. 7 P82 ... : ... .. . P85 ...
ROW 58 : ... .. . ... ... ... : ... .. . ... ... ... : B-2 00 . ... : ... .. 2 ... : ... .. . ... ... : ... .. . ... ... : ... .. . P7E ... : ... .. 4 P84 ...
ROW 59 : ... .. . ... ... ... : ... .. . ... ... ... : ... .. . ... : ... .. 0 ... : ... .. . ... ... : ... .. . ... ... : ... .. 6 P7B ... : ... .. . P81 ...
ROW 5A : ... .. . ... ... ... : ... .. . ... ... ... : A#4 00 . ... : ... .. F ... : ... .. . ... ... : ... .. . ... ... : F#3 01 A P7A ... : ... .. F P80 ...
ROW 5B : ... .. . ... ... ... : ... .. . ... ... ... : C-4 00 . ... : ... .. C ... : ... .. . ... ... : ... .. . ... ... : ... .. 9 P7C ... : ... .. D P7D ...
ROW 5C : ... .. . ... ... ... : ... .. . ... ... ... : F-3 00 . ... : ... .. 6 ... : ... .. . ... ... : ... .. . ... ... : ... .. 8 P80 ... : ... .. 8 ... ...
ROW 5D : ... .. . P82 ... ... : ... .. . P82 ... ... : E-3 00 . ... : ... .. 3 ... : ... .. . ... ... : ... .. . ... ... : ... .. 7 P83 ... : ... .. . P7F ...
ROW 5E : ... .. . P83 ... ... : ... .. . P83 ... ... : B-2 00 . ... : ... .. 2 ... : ... .. . ... ... : ... .. . ... ... : ... .. . P86 ... : ... .. 4 P81 ...
ROW 5F : ... .. . ... ... ... : ... .. . ... ... ... : ... .. . ... : ... .. 0 ... : ... .. . ... ... : ... .. . ... ... : ... .. 6 ... ... : ... .. . P84 ...
ROW 60 : ... .. . P81 ... ... : ... .. . P81 ... ... : A#5 00 . ... : B-# 00 D ... : ... .. . ... ... : ... .. . ... ... : A#3 01 A P82 ... : ... .. F P85 ...
ROW 61 : ... .. . P7F ... ... : ... .. . P7F ... ... : C-5 00 . ... : ... .. B ... : ... .. . ... ... : ... .. . ... ... : ... .. 9 P7F ... : ... .. D ... ...
ROW 62 : ... .. . P7D ... ... : ... .. . P7D ... ... : F-4 00 . ... : ... .. . ... : ... .. . ... ... : ... .. . ... ... : ... .. 8 P7B ... : ... .. 8 P82 ...
ROW 63 : ... .. . ... ... ... : ... .. . ... ... ... : E-4 00 . ... : ... .. A ... : ... .. . ... ... : ... .. . ... ... : ... .. 5 P7A ... : ... .. . P80 ...
ROW 64 : ... .. . P7E ... ... : ... .. . P7E ... ... : B-3 00 . ... : ... .. 8 ... : ... .. . ... ... : ... .. . ... ... : ... .. . P7C ... : ... .. 4 P7D ...
ROW 65 : ... .. . P80 ... ... : ... .. . P80 ... ... : ... .. . ... : ... .. 7 ... : ... .. . ... ... : ... .. . ... ... : ... .. 3 P80 ... : ... .. . ... ...
ROW 66 : ... .. . P82 ... ... : ... .. . P82 ... ... : ... .. . ... : ... .. 6 ... : ... .. . ... ... : ... .. . ... ... : G#3 01 A P83 ... : ... .. F P7E ...
ROW 67 : ... .. . P83 ... ... : ... .. . P83 ... ... : ... .. . ... : ... .. . ... : ... .. . ... ... : ... .. . ... ... : ... .. 9 P86 ... : ... .. D P81 ...
ROW 68 : ... .. . ... ... ... : ... .. . ... ... ... : ... .. . ... : ... .. 5 ... : ... .. . ... ... : ... .. . ... ... : ... .. 8 ... ... : ... .. 8 P83 ...
ROW 69 : ... .. . P81 ... ... : ... .. . P81 ... ... : ... .. . ... : ... .. . ... : ... .. . ... ... : ... .. . ... ... : ... .. 5 P83 ... : ... .. . P85 ...
ROW 6A : ... .. . P80 ... ... : ... .. . P80 ... ... : ... .. . ... : ... .. 4 ... : ... .. . ... ... : ... .. . ... ... : ... .. . P80 ... : ... .. 4 ... ...
ROW 6B : ... .. . P7D ... ... : ... .. . P7D ... ... : ... .. . ... : ... .. . ... : ... .. . ... ... : ... .. . ... ... : ... .. 3 P7C ... : ... .. . P82 ...
ROW 6C : ... .. . ... ... ... : ... .. . ... ... ... : A#3 00 . ... : 1-# 00 F ... : ... .. . ... ... : ... .. . ... ... : F#3 01 A P7A ... : ... .. F P81 ...
ROW 6D : ... .. . P7E ... ... : ... .. . P7E ... ... : C-3 00 . ... : ... .. C ... : ... .. . ... ... : ... .. . ... ... : ... .. 9 P7B ... : ... .. D P7E ...
ROW 6E : ... .. . P80 ... ... : ... .. . P80 ... ... : F-2 00 . ... : ... .. 6 ... : ... .. . ... ... : ... .. . ... ... : ... .. 8 P7F ... : ... .. 8 P7D ...
ROW 6F : ... .. . P81 ... ... : ... .. . P81 ... ... : E-2 00 . ... : ... .. 3 ... : ... .. . ... ... : ... .. . ... ... : ... .. 5 P82 ... : ... .. . P7E ...
ROW 70 : ... .. . P83 ... ... : ... .. . P83 ... ... : B-1 00 . ... : ... .. 2 ... : ... .. . ... ... : ... .. . ... ... : ... .. . P86 ... : ... .. 4 P81 ...
ROW 71 : ... .. . ... ... ... : ... .. . ... ... ... : ... .. . ... : ... .. 0 ... : ... .. . ... ... : ... .. . ... ... : ... .. 3 ... ... : ... .. . P83 ...
ROW 72 : ... .. . P81 ... ... : ... .. . P81 ... ... : A#3 00 . ... : ... .. F ... : ... .. . ... ... : ... .. . ... ... : F-3 01 A P83 ... : ... .. F P85 ...
ROW 73 : ... .. . P80 ... ... : ... .. . P80 ... ... : C-3 00 . ... : ... .. C ... : ... .. . ... ... : ... .. . ... ... : ... .. 9 P80 ... : ... .. D ... ...
ROW 74 : ... .. . P7E ... ... : ... .. . P7E ... ... : F-2 00 . ... : ... .. 6 ... : ... .. . ... ... : ... .. . ... ... : ... .. 8 P7C ... : ... .. 8 P83 ...
ROW 75 : ... .. . P7D ... ... : ... .. . P7D ... ... : E-2 00 . ... : ... .. 3 ... : ... .. . ... ... : ... .. . ... ... : ... .. 5 P7A ... : ... .. . P81 ...
ROW 76 : ... .. . ... ... ... : ... .. . ... ... ... : B-1 00 . ... : ... .. 2 ... : ... .. . ... ... : ... .. . ... ... : ... .. . P7B ... : ... .. 4 P7E ...
ROW 77 : ... .. . P80 ... ... : ... .. . P80 ... ... : ... .. . ... : ... .. 0 ... : ... .. . ... ... : ... .. . ... ... : ... .. 3 P7E ... : ... .. . P7D ...
ROW 78 : ... .. . P81 ... ... : ... .. . P81 ... ... : D-6 00 . ... : B-# 00 D ... : ... .. . ... ... : F#3 01 6 ... ... : D#3 01 A P82 ... : ... .. F P7E ...
ROW 79 : ... .. . P83 ... ... : ... .. . P83 ... ... : E-5 00 . ... : ... .. B ... : ... .. . ... ... : ... .. . ... ... : ... .. 9 P85 ... : ... .. D P81 ...
ROW 7A : ... .. . ... ... ... : ... .. . ... ... ... : A-4 00 . ... : ... .. . ... : ... .. . ... ... : ... .. 5 ... ... : ... .. 8 P86 ... : ... .. 8 P82 ...
ROW 7B : ... .. . P82 ... ... : ... .. . P82 ... ... : G#4 00 . ... : ... .. A ... : ... .. . ... ... : ... .. 4 ... ... : ... .. 5 P84 ... : ... .. . P85 ...
ROW 7C : ... .. . P80 ... ... : ... .. . P80 ... ... : D#4 00 . ... : ... .. 8 ... : ... .. . ... ... : ... .. . ... ... : ... .. . P80 ... : ... .. 4 ... ...
ROW 7D : ... .. . P7E ... ... : ... .. . P7E ... ... : ... .. . ... : ... .. 7 ... : ... .. . ... ... : ... .. . ... ... : ... .. 3 P7D ... : ... .. . P83 ...
ROW 7E : ... .. . P7D ... ... : ... .. . P7D ... ... : ... .. . ... : ... .. 6 ... : ... .. . ... ... : F-3 01 6 ... ... : C#3 01 A P7A ... : ... .. F P81 ...
ROW 7F : ... .. . ... ... ... : ... .. . ... ... ... : ... .. . ... : ... .. . ... : ... .. . ... ... : ... .. . ... ... : ... .. 9 ... ... : ... .. D P7E ...
ROW 80 : ... .. . P7F ... ... : ... .. . P7F ... ... : ... .. . ... : ... .. 5 ... : ... .. . ... ... : ... .. 5 ... ... : ... .. 8 P7E ... : ... .. 8 P7D ...
ROW 81 : ... .. . P81 ... ... : ... .. . P81 ... ... : ... .. . ... : ... .. . ... : ... .. . ... ... : ... .. 4 ... ... : ... .. 7 P81 ... : ... .. . ... ...
ROW 82 : ... .. . P83 ... ... : ... .. . P83 ... ... : ... .. . ... : ... .. 4 ... : ... .. . ... ... : ... .. . ... ... : ... .. . P85 ... : ... .. 4 P80 ...
ROW 83 : ... .. . ... ... ... : ... .. . ... ... ... : ... .. . ... : ... .. . ... : ... .. . ... ... : ... .. . ... ... : ... .. 6 P86 ... : ... .. . P82 ...
ROW 84 : ... .. . P82 ... ... : ... .. . P82 ... ... : ... .. . ... : 1-# 00 F ... : ... .. . ... ... : D#3 01 6 ... ... : D#3 01 A P84 ... : ... .. F P85 ...
ROW 85 : ... .. . P80 ... ... : ... .. . P80 ... ... : ... .. . ... : ... .. C ... : ... .. . ... ... : ... .. . ... ... : ... .. 9 P80 ... : ... .. D ... ...
ROW 86 : ... .. . P7E ... ... : ... .. . P7E ... ... : ... .. . ... : ... .. 6 ... : ... .. . ... ... : ... .. 5 ... ... : ... .. 8 P7D ... : ... .. 8 P84 ...
ROW 87 : ... .. . P7D ... ... : ... .. . P7D ... ... : ... .. . ... : ... .. 3 ... : ... .. . ... ... : ... .. 4 ... ... : ... .. 7 P7A ... : ... .. . P81 ...
ROW 88 : ... .. . ... ... ... : ... .. . ... ... ... : ... .. . ... : ... .. 2 ... : ... .. . ... ... : ... .. . ... ... : ... .. . ... ... : ... .. 4 P7F ...
ROW 89 : ... .. . P7F ... ... : ... .. . P7F ... ... : ... .. . ... : ... .. 0 ... : ... .. . ... ... : ... .. . ... ... : ... .. 6 P7D ... : ... .. . P7D ...
ROW 8A : ... .. . P80 ... ... : ... .. . P80 ... ... : C-6 00 . ... : ... .. F ... : ... .. . ... ... : C#3 01 6 ... ... : F-3 01 A P80 ... : ... .. F ... ...
ROW 8B : ... .. . P83 ... ... : ... .. . P83 ... ... : D-5 00 . ... : ... .. C ... : ... .. . ... ... : ... .. . ... ... : ... .. 9 P84 ... : ... .. D P80 ...
ROW 8C : ... .. . ... ... ... : ... .. . ... ... ... : G-4 00 . ... : ... .. 6 ... : ... .. . ... ... : ... .. 5 ... ... : ... .. 8 P86 ... : ... .. 8 P81 ...
ROW 8D : ... .. . P82 ... ... : ... .. . P82 ... ... : F#4 00 . ... : ... .. 3 ... : ... .. . ... ... : ... .. 4 ... ... : ... .. 5 P85 ... : ... .. . P84 ...
ROW 8E : ... .. . P80 ... ... : ... .. . P80 ... ... : C#4 00 . ... : ... .. 2 ... : ... .. . ... ... : ... .. . ... ... : ... .. . P81 ... : ... .. 4 P85 ...
ROW 8F : ... .. . P7F ... ... : ... .. . P7F ... ... : ... .. . ... : ... .. 0 ... : ... .. . ... ... : ... .. . ... ... : ... .. 3 P7E ... : ... .. . P84 ...
ROW 90 : ... .. . P7D ... ... : F#2 00 8 P80 ... ... : ... .. . ... : ... .. F ... : ... .. . ... ... : F-3 01 6 ... ... : G#3 01 A P7A ... : ... .. F P81 ...
ROW 91 : ... .. . ... ... ... : ... .. . ... ... ... : ... .. . ... : ... .. C ... : ... .. . ... ... : ... .. . ... ... : ... .. 9 ... ... : ... .. D P7F ...
ROW 92 : ... .. . P7F ... ... : ... .. . ... ... ... : ... .. . ... : ... .. 6 ... : ... .. . ... ... : ... .. 5 ... ... : ... .. 8 P7D ... : ... .. 8 P7D ...
ROW 93 : ... .. . P80 ... ... : G#2 00 8 ... ... ... : ... .. . ... : ... .. 3 ... : ... .. . ... ... : ... .. 4 ... ... : ... .. 7 P80 ... : ... .. . ... ...
ROW 94 : ... .. . P82 ... ... : ... .. 7 ... ... ... : ... .. . ... : ... .. 2 ... : ... .. . ... ... : ... .. . ... ... : ... .. . P84 ... : ... .. 4 P7F ...
ROW 95 : ... .. . P83 ... ... : ... .. 6 ... ... ... : ... .. . ... : ... .. 0 ... : ... .. . ... ... : ... .. . ... ... : ... .. 6 P86 ... : ... .. . P81 ...
ROW 96 : ... .. . ... ... ... : A#2 00 8 ... ... ... : ... .. . ... : ... .. F ... : ... .. . ... ... : D#3 01 6 ... ... : F-3 01 A P85 ... : ... .. F P84 ...
ROW 97 : ... .. . P80 ... ... : ... .. 7 ... ... ... : ... .. . ... : ... .. C ... : ... .. . ... ... : ... .. . ... ... : ... .. 9 P82 ... : ... .. D P85 ...
ROW 98 : ... .. . P7F ... ... : ... .. 6 ... ... ... : ... .. . ... : ... .. 6 ... : ... .. . ... ... : ... .. 5 ... ... : ... .. 8 P7E ... : ... .. 8 P84 ...
ROW 99 : ... .. . P7D ... ... : B-2 00 8 ... ... ... : ... .. . ... : ... .. 3 ... : ... .. . ... ... : ... .. 4 ... ... : ... .. 7 P7B ... : ... .. . P81 ...
ROW 9A : ... .. . ... ... ... : ... .. 7 ... ... ... : ... .. . ... : ... .. 2 ... : ... .. . ... ... : ... .. . ... ... : ... .. . P7A ... : ... .. 4 P80 ...
ROW 9B : ... .. . P7E ... ... : ... .. 6 ... ... ... : ... .. . ... : ... .. 0 ... : ... .. . ... ... : ... .. . ... ... : ... .. 6 P7C ... : ... .. . P7D ...
ROW 9C : ... .. 0 ... ... ... : C#3 00 9 ... ... ... : A#5 00 . ... : B-# 00 D ... : ... .. . ... ... : C#3 01 6 ... ... : F#3 01 A P80 ... : ... .. F ... ...
ROW 9D : ... .. . ... ... ... : ... .. 8 ... ... ... : C-5 00 . ... : ... .. B ... : ... .. . ... ... : ... .. . ... ... : ... .. 9 P83 ... : ... .. D P7F ...
ROW 9E : ... .. . ... ... ... : ... .. 7 ... ... ... : F-4 00 . ... : ... .. . ... : ... .. . ... ... : ... .. 5 ... ... : ... .. 8 P86 ... : ... .. 8 P81 ...
ROW 9F : ... .. . ... ... ... : D#3 00 9 ... ... ... : E-4 00 . ... : ... .. A ... : ... .. . ... ... : ... .. 4 ... ... : ... .. 5 ... ... : ... .. . P84 ...
ROW A0 : ... .. . ... ... ... : ... .. 8 ... ... ... : B-3 00 . ... : ... .. 8 ... : ... .. . ... ... : ... .. . ... ... : ... .. . P82 ... : ... .. 4 P85 ...
ROW A1 : ... .. . ... ... ... : ... .. 7 ... ... ... : ... .. . ... : ... .. 7 ... : ... .. . ... ... : ... .. . ... ... : ... .. 3 P7F ... : ... .. . ... ...
ROW A2 : ... .. . ... ... ... : F-3 00 9 ... ... ... : ... .. . ... : ... .. 6 ... : ... .. . ... ... : B-2 01 6 ... ... : G#3 01 A P7B ... : ... .. F P82 ...
ROW A3 : ... .. . ... ... ... : ... .. 8 ... ... ... : ... .. . ... : ... .. . ... : ... .. . ... ... : ... .. . ... ... : ... .. 9 P7A ... : ... .. D P80 ...
ROW A4 : ... .. . ... ... ... : ... .. 7 ... ... ... : ... .. . ... : ... .. 5 ... : ... .. . ... ... : ... .. 5 ... ... : ... .. 8 P7C ... : ... .. 8 P7D ...
ROW A5 : ... .. . ... ... ... : F#3 00 A ... ... ... : ... .. . ... : ... .. . ... : ... .. . ... ... : ... .. 4 ... ... : ... .. 7 P80 ... : ... .. . ... ...
ROW A6 : ... .. . ... ... ... : ... .. 9 ... ... ... : ... .. . ... : ... .. 4 ... : ... .. . ... ... : ... .. . ... ... : ... .. . P83 ... : ... .. 4 P7E ...
ROW A7 : ... .. . ... ... ... : ... .. 8 ... ... ... : ... .. . ... : ... .. . ... : ... .. . ... ... : ... .. . ... ... : ... .. 6 P86 ... : ... .. . P81 ...
ROW A8 : F#3 00 8 P80 V01 ... : F-3 00 A ... ... ... : ... .. . ... : 1-# 00 F ... : ... .. . ... ... : A#2 01 6 ... ... : A#3 01 A ... ... : ... .. F P83 ...
ROW A9 : ... .. 7 ... ... ... : ... .. 9 ... ... ... : ... .. . ... : ... .. C ... : ... .. . ... ... : ... .. . ... ... : ... .. 9 P83 ... : ... .. D P85 ...
ROW AA : ... .. 6 ... ... ... : ... .. 8 ... ... ... : ... .. . ... : ... .. 6 ... : ... .. . ... ... : ... .. 5 ... ... : ... .. 8 P80 ... : ... .. 8 ... ...
ROW AB : ... .. 5 ... ... ... : F#3 00 A ... ... ... : ... .. . ... : ... .. 3 ... : ... .. . ... ... : ... .. 4 ... ... : ... .. 7 P7C ... : ... .. . P82 ...
ROW AC : ... .. . ... ... ... : ... .. 9 ... ... ... : ... .. . ... : ... .. 2 ... : ... .. . ... ... : ... .. . ... ... : ... .. . P7A ... : ... .. 4 P81 ...
ROW AD : ... .. . ... ... ... : ... .. 8 ... ... ... : ... .. . ... : ... .. 0 ... : ... .. . ... ... : ... .. . ... ... : ... .. 6 P7B ... : ... .. . P7E ...
ROW AE : G#3 00 8 ... V02 ... : G#3 00 B ... ... ... : A-5 00 . ... : ... .. F ... : ... .. . ... ... : B-2 01 6 ... ... : F#3 01 A P7F ... : ... .. F P7D ...
ROW AF : ... .. 7 ... ... ... : ... .. A ... ... ... : B-4 00 . ... : ... .. C ... : ... .. . ... ... : ... .. . ... ... : ... .. 9 P82 ... : ... .. D P7E ...
ROW B0 : ... .. 6 ... ... ... : ... .. 9 ... ... ... : E-4 00 . ... : ... .. 6 ... : ... .. . ... ... : ... .. 5 ... ... : ... .. 8 P86 ... : ... .. 8 P81 ...
ROW B1 : ... .. . ... ... ... : A#3 00 B ... ... ... : D#4 00 . ... : ... .. 3 ... : ... .. . ... ... : ... .. 4 ... ... : ... .. 5 ... ... : ... .. . P83 ...
ROW B2 : ... .. . ... ... ... : ... .. A ... ... ... : A#3 00 . ... : ... .. 2 ... : ... .. . ... ... : ... .. . ... ... : ... .. . P83 ... : ... .. 4 P85 ...
ROW B3 : ... .. . ... ... ... : ... .. 9 ... ... ... : ... .. . ... : ... .. 0 ... : ... .. . ... ... : ... .. . ... ... : ... .. 3 P80 ... : ... .. . ... ...
ROW B4 : A#3 00 9 ... V03 ... : B-3 00 B ... ... ... : ... .. . ... : ... .. F ... : ... .. . ... ... : C#3 01 6 ... ... : G#3 01 A P7C ... : ... .. F P83 ...
ROW B5 : ... .. 8 ... ... ... : ... .. A ... ... ... : ... .. . ... : ... .. C ... : ... .. . ... ... : ... .. . ... ... : ... .. 9 P7A ... : ... .. D P81 ...
ROW B6 : ... .. 7 ... ... ... : ... .. 9 ... ... ... : ... .. . ... : ... .. 6 ... : ... .. . ... ... : ... .. 5 ... ... : ... .. 8 P7B ... : ... .. 8 P7E ...
ROW B7 : ... .. 6 ... ... ... : C#4 00 B ... ... ... : ... .. . ... : ... .. 3 ... : ... .. . ... ... : ... .. 4 ... ... : ... .. 7 P7E ... : ... .. . P7D ...
ROW B8 : ... .. . ... ... ... : ... .. A ... ... ... : ... .. . ... : ... .. 2 ... : ... .. . ... ... : ... .. . ... ... : ... .. . P82 ... : ... .. 4 P7E ...
ROW B9 : ... .. . ... ... ... : ... .. 9 ... ... ... : ... .. . ... : ... .. 0 ... : ... .. . ... ... : ... .. . ... ... : ... .. 6 P85 ... : ... .. . P81 ...
ROW BA : B-3 00 A ... V01 ... : D#4 00 C ... ... ... : ... .. . ... : ... .. F ... : ... .. . ... ... : D#3 01 6 ... ... : A#3 01 A P86 ... : ... .. F P82 ...
ROW BB : ... .. 9 ... ... ... : ... .. B ... ... ... : ... .. . ... : ... .. C ... : ... .. . ... ... : ... .. . ... ... : ... .. 9 P84 ... : ... .. D P85 ...
ROW BC : ... .. 8 ... ... ... : ... .. A ... ... ... : ... .. . ... : ... .. 6 ... : ... .. . ... ... : ... .. 5 ... ... : ... .. 8 P80 ... : ... .. 8 ... ...
ROW BD : ... .. 7 ... ... ... : F-4 00 C ... ... ... : ... .. . ... : ... .. 3 ... : ... .. . ... ... : ... .. 4 ... ... : ... .. 7 P7D ... : ... .. . P83 ...
ROW BE : ... .. . ... ... ... : ... .. B ... ... ... : ... .. . ... : ... .. 2 ... : ... .. . ... ... : ... .. . ... ... : ... .. . P7A ... : ... .. 4 P81 ...
ROW BF : ... .. . ... ... ... : ... .. A ... ... ... : ... .. . ... : ... .. 0 ... : ... .. . ... ... : ... .. . ... ... : ... .. 6 ... ... : ... .. . P7E ...
ROW C0 : C#4 00 B ... ... ... : C#4 00 C ... ... ... : G-5 00 . ... : 9-# 00 D ... : ... .. . ... ... : F-3 01 6 ... ... : B-3 01 A P7E ... : ... .. F P7D ...
ROW C1 : ... .. A ... ... ... : ... .. B ... ... ... : A-4 00 . ... : ... .. B ... : ... .. . ... ... : ... .. . ... ... : ... .. 9 P81 ... : ... .. D ... ...
ROW C2 : ... .. 9 ... ... ... : ... .. A ... ... ... : D-4 00 . ... : ... .. . ... : ... .. . ... ... : ... .. 5 ... ... : ... .. 8 P85 ... : ... .. 8 P80 ...
ROW C3 : ... .. 8 ... ... ... : D#4 00 D ... ... ... : C#4 00 . ... : ... .. A ... : ... .. . ... ... : ... .. 4 ... ... : ... .. 5 P86 ... : ... .. . P82 ...
ROW C4 : ... .. . ... ... ... : ... .. C ... ... ... : G#3 00 . ... : ... .. 8 ... : ... .. . ... ... : ... .. . ... ... : ... .. . P84 ... : ... .. 4 P85 ...
ROW C5 : ... .. . ... ... ... : ... .. B ... ... ... : ... .. . ... : ... .. 7 ... : ... .. . ... ... : ... .. . ... ... : ... .. 3 P80 ... : ... .. . ... ...
ROW C6 : D#4 00 C ... V00 ... : F-4 00 D ... ... ... : ... .. . ... : 7-# 00 D ... : ... .. . ... ... : F#3 01 6 ... ... : C#4 01 A P7D ... : ... .. F P84 ...
ROW C7 : ... .. B ... ... ... : ... .. C ... ... ... : ... .. . ... : ... .. B ... : ... .. . ... ... : ... .. . ... ... : C-4 01 9 P86 ... : ... .. D P81 ...
ROW C8 : ... .. A ... ... ... : ... .. B ... ... ... : ... .. . ... : ... .. . ... : ... .. . ... ... : ... .. 5 ... ... : ... .. 8 ... ... : ... .. 8 P7F ...
ROW C9 : ... .. 8 ... ... ... : F#4 00 D ... ... ... : ... .. . ... : ... .. A ... : ... .. . ... ... : ... .. 4 ... ... : C#4 01 5 P7D ... : ... .. . P7D ...
ROW CA : ... .. . ... ... ... : ... .. C ... ... ... : ... .. . ... : ... .. 8 ... : ... .. . ... ... : ... .. . ... ... : ... .. . P80 ... : ... .. 4 ... ...
ROW CB : ... .. . ... ... ... : ... .. B ... ... ... : ... .. . ... : ... .. 7 ... : ... .. . ... ... : ... .. . ... ... : ... .. 3 P84 ... : ... .. . P80 ...
ROW CC : F-4 00 D ... ... ... : G#4 00 E ... ... ... : F-5 00 . ... : 5-# 00 D ... : ... .. . ... ... : G#3 01 6 ... ... : E-4 01 A P7C ... : ... .. F P81 ...
ROW CD : ... .. C ... ... ... : ... .. D ... ... ... : G-4 00 . ... : ... .. B ... : ... .. . ... ... : ... .. . ... ... : D#4 01 9 P85 ... : ... .. D P84 ...
ROW CE : ... .. B ... ... ... : ... .. C ... ... ... : C-4 00 . ... : ... .. . ... : ... .. . ... ... : ... .. 5 ... ... : ... .. 8 P81 ... : ... .. 8 P85 ...
ROW CF : ... .. 9 ... ... ... : A#4 00 E ... ... ... : B-3 00 . ... : ... .. A ... : ... .. . ... ... : ... .. 4 ... ... : ... .. 5 P7E ... : ... .. . P84 ...
ROW D0 : ... .. . ... ... ... : ... .. D ... ... ... : F#3 00 . ... : ... .. 8 ... : ... .. . ... ... : ... .. . ... ... : D-4 01 5 P84 ... : ... .. 4 P81 ...
ROW D1 : ... .. . ... ... ... : ... .. C ... ... ... : ... .. . ... : ... .. 7 ... : ... .. . ... ... : ... .. . ... ... : ... .. 3 ... ... : ... .. . P7F ...
ROW D2 : F#4 00 E ... V02 ... : B-4 00 E ... ... ... : ... .. . ... : 4-# 00 D ... : ... .. . ... ... : A#3 01 6 ... ... : F-4 01 A P7D ... : ... .. F P7D ...
ROW D3 : ... .. D ... ... ... : ... .. D ... ... ... : ... .. . ... : ... .. B ... : ... .. . ... ... : ... .. . ... ... : ... .. 9 P80 ... : ... .. D ... ...
ROW D4 : ... .. C ... ... ... : ... .. C ... ... ... : ... .. . ... : ... .. . ... : ... .. . ... ... : ... .. 5 ... ... : ... .. 8 P84 ... : ... .. 8 P7F ...
ROW D5 : ... .. A ... ... ... : C#5 00 F ... ... ... : ... .. . ... : ... .. A ... : ... .. . ... ... : ... .. 4 ... ... : F#4 01 5 P7D ... : ... .. . P81 ...
ROW D6 : ... .. . ... ... ... : ... .. E ... ... ... : ... .. . ... : ... .. 8 ... : ... .. . ... ... : ... .. . ... ... : ... .. . P7C ... : ... .. 4 P84 ...
ROW D7 : ... .. . ... ... ... : ... .. D ... ... ... : ... .. . ... : ... .. 7 ... : ... .. . ... ... : ... .. . ... ... : F-4 01 3 P82 ... : ... .. . P85 ...
ROW D8 : C-3 00 A ... V01 ... : D#5 00 F ... ... ... : E-5 00 . ... : B-# 00 D ... : ... .. . ... ... : C-4 01 6 ... ... : A#2 01 A P80 ... : C-3 01 F P82 ...
ROW D9 : ... .. 9 ... ... ... : ... .. . ... ... ... : F#4 00 . ... : ... .. B ... : ... .. . ... ... : ... .. . ... ... : ... .. 9 ... ... : ... .. D P7F ...
ROW DA : ... .. 8 ... ... ... : ... .. . ... ... ... : B-3 00 . ... : ... .. . ... : ... .. . ... ... : ... .. 5 ... ... : ... .. 8 ... ... : ... .. 8 P7E ...
ROW DB : ... .. 6 ... ... ... : ... .. . ... ... ... : A#3 00 . ... : ... .. A ... : ... .. . ... ... : ... .. 4 ... ... : ... .. 7 ... ... : ... .. . P7F ...
ROW DC : ... .. . ... ... ... : ... .. . ... ... ... : F-3 00 . ... : ... .. 8 ... : ... .. . ... ... : ... .. . ... ... : ... .. . ... ... : ... .. . ... ...
ROW DD : ... .. . ... ... ... : ... .. . ... ... ... : ... .. . ... : ... .. 7 ... : ... .. . ... ... : ... .. . ... ... : ... .. 6 ... ... : ... .. . ... ...
ROW DE : ... .. . ... V02 ... : ... .. . ... ... ... : ... .. . ... : ... .. 6 ... : ... .. . ... ... : A#3 01 6 ... ... : ... .. . ... ... : ... .. . ... ...
ROW DF : ... .. . ... ... ... : ... .. . ... ... ... : ... .. . ... : ... .. . ... : ... .. . ... ... : ... .. . ... ... : ... .. 5 ... ... : ... .. . ... ...
ROW E0 : ... .. . ... ... ... : ... .. . ... ... ... : ... .. . ... : ... .. 5 ... : ... .. . ... ... : ... .. 5 ... ... : ... .. . ... ... : ... .. . ... ...
ROW E1 : ... .. . ... ... ... : ... .. . ... ... ... : ... .. . ... : ... .. . ... : ... .. . ... ... : ... .. 4 ... ... : ... .. . ... ... : ... .. . ... ...
ROW E2 : ... .. . ... ... ... : ... .. . ... ... ... : ... .. . ... : ... .. 4 ... : ... .. . ... ... : ... .. . ... ... : ... .. . ... ... : ... .. . ... ...
ROW E3 : ... .. . ... ... ... : ... .. . ... ... ... : ... .. . ... : ... .. . ... : ... .. . ... ... : ... .. . ... ... : ... .. . ... ... : ... .. . ... ...
ROW E4 : ... .. . ... V00 ... : ... .. A ... ... ... : ... .. . ... : 1-# 00 F ... : ... .. . ... ... : F-3 01 6 ... ... : ... .. . ... ... : ... .. . ... ...
ROW E5 : ... .. . ... ... ... : ... .. . ... ... ... : ... .. . ... : ... .. C ... : ... .. . ... ... : ... .. . ... ... : ... .. . ... ... : ... .. . ... ...
ROW E6 : ... .. . ... ... ... : ... .. . ... ... ... : ... .. . ... : ... .. 6 ... : ... .. . ... ... : ... .. 5 ... ... : ... .. . ... ... : ... .. . ... ...
ROW E7 : ... .. . ... ... ... : ... .. 9 ... ... ... : ... .. . ... : ... .. 3 ... : ... .. . ... ... : ... .. 4 ... ... : ... .. . ... ... : ... .. . ... ...
ROW E8 : ... .. . ... ... ... : ... .. . ... ... ... : ... .. . ... : ... .. 2 ... : ... .. . ... ... : ... .. . ... ... : ... .. . ... ... : ... .. . ... ...
ROW E9 : ... .. . ... ... ... : ... .. . ... ... ... : ... .. . ... : ... .. 0 ... : ... .. . ... ... : ... .. . ... ... : ... .. . ... ... : ... .. . ... ...
ROW EA : ... .. . ... V01 ... : ... .. 8 ... ... ... : ... .. . ... : ... .. F ... : ... .. . ... ... : G-3 01 6 ... ... : ... .. . ... ... : ... .. . ... ...
ROW EB : ... .. . ... ... ... : D-5 00 8 P82 ... ... : ... .. . ... : ... .. C ... : ... .. . ... ... : ... .. . ... ... : ... .. . ... ... : ... .. . ... ...
ROW EC : ... .. . ... ... ... : ... .. . P7F ... ... : ... .. . ... : ... .. 6 ... : ... .. . ... ... : ... .. 5 ... ... : ... .. . ... ... : ... .. . ... ...
ROW ED : ... .. 7 ... ... ... : C#5 00 9 P82 ... ... : ... .. . ... : ... .. 3 ... : ... .. . ... ... : ... .. 4 ... ... : ... .. . ... ... : ... .. . ... ...
ROW EE : ... .. . ... ... ... : ... .. . P80 ... ... : ... .. . ... : ... .. 2 ... : ... .. . ... ... : ... .. . ... ... : ... .. . ... ... : ... .. . ... ...
ROW EF : ... .. . ... ... ... : ... .. . ... ... ... : ... .. . ... : ... .. 0 ... : ... .. . ... ... : ... .. . ... ... : ... .. . ... ... : ... .. . ... ...
ROW F0 : ... .. . ... V02 ... : ... .. A ... ... ... : D#3 00 . P88 : B-# 00 D ... : ... .. . ... ... : F-3 01 6 ... ... : ... .. . ... ... : ... .. . ... ...
ROW F1 : ... .. . ... ... ... : ... .. . P83 ... ... : D-3 00 . P7D : ... .. B ... : ... .. . ... ... : ... .. . ... ... : ... .. . ... ... : ... .. . ... ...
ROW F2 : ... .. . ... ... ... : D-5 00 A P80 ... ... : C-3 00 . P8C : ... .. . ... : ... .. . ... ... : ... .. 5 ... ... : ... .. . ... ... : ... .. . ... ...
ROW F3 : ... .. . ... ... ... : D#5 00 B P7E ... ... : B-2 00 . P85 : ... .. A ... : ... .. . ... ... : ... .. 4 ... ... : ... .. . ... ... : ... .. . ... ...
ROW F4 : ... .. . ... ... ... : ... .. . P80 ... ... : A#2 00 . P80 : ... .. 8 ... : ... .. . ... ... : ... .. . ... ... : ... .. . ... ... : ... .. . ... ...
ROW F5 : ... .. . ... ... ... : ... .. . ... ... ... : A-2 00 . P7C : ... .. 7 ... : ... .. . ... ... : ... .. . ... ... : ... .. . ... ... : ... .. . ... ...
ROW F6 : ... .. . ... V03 ... : ... .. C ... ... ... : G#2 00 . P7B : ... .. 6 ... : ... .. . ... ... : A#3 01 6 ... ... : ... .. . ... ... : ... .. . ... ...
ROW F7 : ... .. . ... ... ... : ... .. . ... ... ... : G-2 00 . ... : ... .. . ... : ... .. . ... ... : ... .. . ... ... : ... .. . ... ... : ... .. 4 ... ...
ROW F8 : ... .. . ... ... ... : ... .. . ... ... ... : F#2 00 . P7D : ... .. 5 ... : ... .. . ... ... : ... .. 5 ... ... : ... .. 3 ... ... : ... .. . ... ...
ROW F9 : ... .. . ... ... ... : ... .. D ... ... ... : F-2 00 . P81 : ... .. . ... : ... .. . ... ... : ... .. 4 ... ... : ... .. . ... ... : ... .. 1 ... ...
ROW FA : ... .. . ... ... ... : ... .. . ... ... ... : E-2 00 . P87 : ... .. 4 ... : ... .. . ... ... : ... .. . ... ... : ... .. . ... ... : ... .. . ... ...
ROW FB : ... .. . ... ... ... : ... .. . ... ... ... : D#2 00 . P8F : ... .. . ... : ... .. . ... ... : ... .. . ... ... : ... .. . ... ... : ... .. . ... ...
ROW FC : C#3 00 B ... V02 ... : E-5 00 F P7F ... ... : E-4 00 . P80 : 1-# 00 F ... : ... .. . ... ... : C#4 01 6 ... ... : B-2 01 8 ... ... : C#3 01 C ... ...
ROW FD : ... .. A ... ... ... : ... .. . P81 ... ... : F#3 00 . ... : ... .. C ... : ... .. . ... ... : ... .. . ... ... : ... .. 7 ... ... : ... .. A ... ...
ROW FE : ... .. 9 ... ... ... : ... .. . P80 ... ... : B-2 00 . ... : ... .. 6 ... : ... .. . ... ... : ... .. 5 ... ... : ... .. 6 ... ... : ... .. 6 ... ...
ROW FF : ... .. 8 ... ... ... : D#5 00 F P82 ... ... : A#2 00 . ... : ... .. 3 ... : ... .. . ... ... : ... .. 4 ... ... : ... .. 5 ... ... : ... .. . ... ...

PATTERN 13
ROW 00 : ... .. . ... ... ... : ... .. . P7E ... ... : F-2 00 . ... : ... .. 2 ... : ... .. . ... ... : ... .. . ... ... : ... .. . ... ... : ... .. . ... ...
ROW 01 : ... .. . ... ... ... : D-5 00 F P80 ... ... : ... .. . ... : ... .. 0 ... : ... .. . ... ... : ... .. . ... ... : ... .. 4 ... ... : ... .. . ... ...
ROW 02 : ... .. . ... V00 ... : ... .. . P7F ... ... : ... .. . ... : ... .. F ... : ... .. . ... ... : B-3 01 6 ... ... : ... .. . ... ... : ... .. . ... ...
ROW 03 : ... .. . ... ... ... : ... .. . P81 ... ... : ... .. . ... : ... .. C ... : ... .. . ... ... : ... .. . ... ... : ... .. . ... ... : ... .. . ... ...
ROW 04 : ... .. . ... ... ... : D#5 00 F P80 ... ... : ... .. . ... : ... .. 6 ... : ... .. . ... ... : ... .. 5 ... ... : ... .. . ... ... : ... .. . ... ...
ROW 05 : ... .. . ... ... ... : E-5 00 F P7E ... ... : ... .. . ... : ... .. 3 ... : ... .. . ... ... : ... .. 4 ... ... : ... .. . ... ... : ... .. . ... ...
ROW 06 : ... .. . ... ... ... : ... .. . P81 ... ... : ... .. . ... : ... .. 2 ... : ... .. . ... ... : ... .. . ... ... : ... .. . ... ... : ... .. . ... ...
ROW 07 : ... .. . ... ... ... : ... .. . ... ... ... : ... .. . ... : ... .. 0 ... : ... .. . ... ... : ... .. . ... ... : ... .. . ... ... : ... .. . ... ...
ROW 08 : ... .. . ... V03 ... : D#5 00 F P82 ... ... : E-2 00 . P76 : B-# 00 D ... : ... .. . ... ... : F#3 01 6 ... ... : ... .. . ... ... : ... .. . ... ...
ROW 09 : ... .. . ... ... ... : ... .. . P7F ... ... : D#2 00 . P6E : ... .. B ... : ... .. . ... ... : ... .. . ... ... : ... .. . ... ... : ... .. . ... ...
ROW 0A : ... .. . ... ... ... : D-5 00 F P80 ... ... : C#2 00 . P96 : ... .. . ... : ... .. . ... ... : ... .. 5 ... ... : ... .. . ... ... : ... .. . ... ...
ROW 0B : ... .. . ... ... ... : ... .. . P7F ... ... : C-2 00 . ... : ... .. A ... : ... .. . ... ... : ... .. 4 ... ... : ... .. . ... ... : ... .. . ... ...
ROW 0C : ... .. . ... ... ... : ... .. . P81 ... ... : B-1 00 . P99 : ... .. 8 ... : ... .. . ... ... : ... .. . ... ... : ... .. . ... ... : ... .. . ... ...
ROW 0D : ... .. . ... ... ... : D#5 00 F P80 ... ... : ... .. . P69 : ... .. 7 ... : ... .. . ... ... : ... .. . ... ... : ... .. . ... ... : ... .. . ... ...
ROW 0E : ... .. . ... V02 ... : E-5 00 F P7E ... ... : A#1 00 . P6F : ... .. 6 ... : ... .. . ... ... : G#3 01 6 ... ... : ... .. . ... ... : ... .. . ... ...
ROW 0F : ... .. . ... ... ... : ... .. . P81 ... ... : A-1 00 . P78 : ... .. . ... : ... .. . ... ... : ... .. . ... ... : ... .. . ... ... : ... .. . ... ...
ROW 10 : ... .. . ... ... ... : ... .. . ... ... ... : G#1 00 . P84 : ... .. 5 ... : ... .. . ... ... : ... .. 5 ... ... : ... .. . ... ... : ... .. . ... ...
ROW 11 : ... .. . ... ... ... : ... .. . P7E ... ... : G-1 00 . P94 : ... .. . ... : ... .. . ... ... : ... .. 4 ... ... : ... .. . ... ... : ... .. . ... ...
ROW 12 : ... .. . ... ... ... : D#5 00 F P80 ... ... : ... .. . P64 : ... .. 4 ... : ... .. . ... ... : ... .. . ... ... : ... .. . ... ... : ... .. . ... ...
ROW 13 : ... .. . ... ... ... : D-5 00 F P81 ... ... : F#1 00 . P78 : ... .. . ... : ... .. . ... ... : ... .. . ... ... : ... .. . ... ... : ... .. . ... ...
ROW 14 : ... .. . ... V00 ... : ... .. . P7F ... ... : D#2 00 . P80 : 1-# 00 F ... : ... .. . ... ... : F#3 01 6 ... ... : ... .. . ... ... : ... .. . ... ...
ROW 15 : ... .. . ... ... ... : ... .. . P80 ... ... : ... .. . ... : ... .. C ... : ... .. . ... ... : ... .. . ... ... : ... .. . ... ... : ... .. . ... ...
ROW 16 : ... .. . ... ... ... : D#5 00 F P7F ... ... : ... .. . ... : ... .. 6 ... : ... .. . ... ... : ... .. 5 ... ... : ... .. . ... ... : ... .. . ... ...
ROW 17 : ... .. . ... ... ... : ... .. . P82 ... ... : ... .. . ... : ... .. 3 ... : ... .. . ... ... : ... .. 4 ... ... : ... .. . ... ... : ... .. . ... ...
ROW 18 : ... .. . ... ... ... : E-5 00 F P81 ... ... : ... .. . ... : ... .. 2 ... : ... .. . ... ... : ... .. . ... ... : ... .. . ... ... : ... .. . ... ...
ROW 19 : ... .. . ... ... ... : ... .. . ... ... ... : --- .. . ... : ... .. 0 ... : ... .. . ... ... : ... .. . ... ... : ... .. . ... ... : ... .. . ... ...
ROW 1A : ... .. . ... V02 ... : ... .. . P7E ... ... : C-2 00 . ... : ... .. F ... : ... .. . ... ... : B-3 01 6 ... ... : ... .. . ... ... : ... .. . ... ...
ROW 1B : ... .. . ... ... ... : D#5 00 F P80 ... ... : ... .. . ... : ... .. C ... : ... .. . ... ... : ... .. . ... ... : ... .. . ... ... : ... .. . ... ...
ROW 1C : ... .. . ... ... ... : D-5 00 F P81 ... ... : ... .. . ... : ... .. 6 ... : ... .. . ... ... : ... .. 5 ... ... : ... .. . ... ... : ... .. . ... ...
ROW 1D : ... .. . ... ... ... : ... .. . P7F ... ... : ... .. . ... : ... .. 3 ... : ... .. . ... ... : ... .. 4 ... ... : ... .. . ... ... : ... .. . ... ...
ROW 1E : ... .. . ... ... ... : ... .. . P80 ... ... : ... .. . ... : ... .. 2 ... : ... .. . ... ... : ... .. . ... ... : ... .. . ... ... : ... .. . ... ...
ROW 1F : ... .. . ... ... ... : D#5 00 F P7E ... ... : --- .. . ... : ... .. 0 ... : ... .. . ... ... : ... .. . ... ... : ... .. . ... ... : ... .. . ... ...
ROW 20 : ... .. . ... V01 ... : ... .. . P82 ... ... : A#2 00 . ... : B-# 00 D ... : ... .. . ... ... : C#4 01 6 ... ... : ... .. . ... ... : ... .. . ... ...
ROW 21 : ... .. . ... ... ... : E-5 00 F P80 ... ... : ... .. . ... : ... .. B ... : ... .. . ... ... : ... .. . ... ... : ... .. . ... ... : ... .. . ... ...
ROW 22 : ... .. . ... ... ... : ... .. . P81 ... ... : ... .. . ... : ... .. . ... : ... .. . ... ... : ... .. 5 ... ... : ... .. . ... ... : ... .. . ... ...
ROW 23 : ... .. . ... ... ... : ... .. . P7F ... ... : ... .. . ... : ... .. A ... : ... .. . ... ... : ... .. 4 ... ... : ... .. . ... ... : ... .. . ... ...
ROW 24 : ... .. . ... ... ... : D#5 00 F P80 ... ... : ... .. . ... : ... .. 8 ... : ... .. . ... ... : ... .. . ... ... : ... .. . ... ... : ... .. . ... ...
ROW 25 : ... .. . ... ... ... : D-5 00 F P82 ... ... : --- .. . ... : ... .. 7 ... : ... .. . ... ... : ... .. . ... ... : ... .. . ... ... : ... .. . ... ...
ROW 26 : ... .. 9 ... V02 ... : ... .. . P7F ... ... : C-3 00 . ... : ... .. 6 ... : ... .. . ... ... : B-3 01 6 ... ... : ... .. . ... ... : ... .. . ... ...
ROW 27 : ... .. . ... ... ... : ... .. . ... ... ... : ... .. . ... : ... .. . ... : ... .. . ... ... : ... .. . ... ... : ... .. . ... ... : ... .. . ... ...
ROW 28 : ... .. . ... ... ... : D#5 00 F P7E ... ... : ... .. . ... : ... .. 5 ... : ... .. . ... ... : ... .. 5 ... ... : ... .. . ... ... : ... .. . ... ...
ROW 29 : ... .. . ... ... ... : ... .. . P81 ... ... : ... .. . ... : ... .. . ... : ... .. . ... ... : ... .. 4 ... ... : ... .. . ... ... : ... .. . ... ...
ROW 2A : ... .. . ... ... ... : E-5 00 F P80 ... ... : ... .. . ... : ... .. 4 ... : ... .. . ... ... : ... .. . ... ... : ... .. . ... ... : ... .. . ... ...
ROW 2B : ... .. . ... ... ... : ... .. . P81 ... ... : --- .. . ... : ... .. . ... : ... .. . ... ... : ... .. . ... ... : ... .. . ... ... : ... .. . ... ...
ROW 2C : ... .. . ... V00 ... : ... .. . P7F ... ... : D#3 00 . ... : 1-# 00 F ... : ... .. . ... ... : F#3 01 6 ... ... : ... .. . ... ... : ... .. . ... ...
ROW 2D : ... .. . ... ... ... : D#5 00 F P80 ... ... : ... .. . ... : ... .. C ... : ... .. . ... ... : ... .. . ... ... : ... .. . ... ... : ... .. 3 ... ...
ROW 2E : ... .. . ... ... ... : D-5 00 F P82 ... ... : ... .. . ... : ... .. 6 ... : ... .. . ... ... : ... .. 5 ... ... : ... .. 2 ... ... : ... .. . ... ...
ROW 2F : ... .. . ... ... ... : ... .. . P7F ... ... : ... .. . ... : ... .. 3 ... : ... .. . ... ... : ... .. 4 ... ... : ... .. . ... ... : ... .. 1 ... ...
ROW 30 : ... .. . ... ... ... : ... .. . ... ... ... : ... .. . ... : ... .. 2 ... : ... .. . ... ... : ... .. . ... ... : ... .. . ... ... : ... .. . ... ...
ROW 31 : ... .. . ... ... ... : ... .. . P82 ... ... : --- .. . ... : ... .. 0 ... : ... .. . ... ... : ... .. . ... ... : ... .. . ... ... : ... .. . ... ...
ROW 32 : ... .. . ... V01 ... : D#5 00 F P80 ... ... : F-3 00 . ... : ... .. F ... : ... .. . ... ... : G#3 01 6 ... ... : ... .. . ... ... : ... .. . ... ...
ROW 33 : ... .. . ... ... ... : E-5 00 F P7F ... ... : ... .. . ... : ... .. C ... : ... .. . ... ... : ... .. . ... ... : ... .. . ... ... : ... .. . ... ...
ROW 34 : ... .. . ... ... ... : ... .. . P81 ... ... : ... .. . ... : ... .. 6 ... : ... .. . ... ... : ... .. 5 ... ... : ... .. . ... ... : ... .. . ... ...
ROW 35 : ... .. . ... ... ... : ... .. . P80 ... ... : ... .. . ... : ... .. 3 ... : ... .. . ... ... : ... .. 4 ... ... : ... .. . ... ... : ... .. . ... ...
ROW 36 : ... .. . ... ... ... : D#5 00 F P81 ... ... : ... .. . ... : ... .. 2 ... : ... .. . ... ... : ... .. . ... ... : ... .. . ... ... : ... .. 0 ... ...
ROW 37 : ... .. . ... ... ... : ... .. . P7E ... ... : --- .. . ... : ... .. 0 ... : ... .. . ... ... : ... .. . ... ... : ... .. . ... ... : ... .. . ... ...
ROW 38 : D#3 00 F ... ... ... : D-5 00 F P7F ... ... : E-6 00 . ... : B-# 00 D ... : ... .. . ... ... : D#4 01 6 ... ... : C#3 01 8 ... ... : D#3 01 C ... ...
ROW 39 : ... .. E ... ... ... : ... .. . ... ... ... : F#5 00 . ... : ... .. B ... : ... .. . ... ... : ... .. . ... ... : ... .. 7 ... ... : ... .. A ... ...
ROW 3A : ... .. D ... ... ... : ... .. . P82 ... ... : B-4 00 . ... : ... .. . ... : ... .. . ... ... : ... .. 5 ... ... : ... .. 6 ... ... : ... .. 6 ... ...
ROW 3B : ... .. 9 ... ... ... : D#5 00 F P80 ... ... : A#4 00 . ... : ... .. A ... : ... .. . ... ... : ... .. 4 ... ... : ... .. 5 ... ... : ... .. . ... ...
ROW 3C : ... .. . ... ... ... : E-5 00 F P7F ... ... : F-4 00 . ... : ... .. 8 ... : ... .. . ... ... : ... .. . ... ... : ... .. . ... ... : ... .. . ... ...
ROW 3D : ... .. . ... ... ... : ... .. . P81 ... ... : ... .. . ... : ... .. 7 ... : ... .. . ... ... : ... .. . ... ... : ... .. 4 ... ... : ... .. . ... ...
ROW 3E : ... .. . ... V02 ... : C#5 00 F P80 ... ... : ... .. . ... : ... .. 6 ... : ... .. . ... ... : C#4 01 6 ... ... : ... .. . ... ... : ... .. . ... ...
ROW 3F : ... .. . ... ... ... : ... .. . ... ... ... : ... .. . ... : ... .. . ... : ... .. . ... ... : ... .. . ... ... : ... .. . ... ... : ... .. . ... ...
ROW 40 : ... .. . ... ... ... : ... .. . ... ... ... : ... .. . ... : ... .. 5 ... : ... .. . ... ... : ... .. 5 ... ... : ... .. . ... ... : ... .. . ... ...
ROW 41 : ... .. . ... ... ... : ... .. . ... ... ... : ... .. . ... : ... .. . ... : ... .. . ... ... : ... .. 4 ... ... : ... .. . ... ... : ... .. . ... ...
ROW 42 : ... .. . ... ... ... : ... .. . ... ... ... : ... .. . ... : ... .. 4 ... : ... .. . ... ... : ... .. . ... ... : ... .. . ... ... : ... .. . ... ...
ROW 43 : ... .. . ... ... ... : ... .. . ... ... ... : ... .. . ... : ... .. . ... : ... .. . ... ... : ... .. . ... ... : ... .. . ... ... : ... .. . ... ...
ROW 44 : ... .. . ... V00 ... : G#4 00 F ... ... ... : ... .. . ... : 1-# 00 F ... : ... .. . ... ... : G#3 01 6 ... ... : ... .. . ... ... : ... .. . ... ...
ROW 45 : ... .. . ... ... ... : ... .. . ... ... ... : ... .. . ... : ... .. C ... : ... .. . ... ... : ... .. . ... ... : ... .. . ... ... : ... .. . ... ...
ROW 46 : ... .. . ... ... ... : ... .. . ... ... ... : ... .. . ... : ... .. 6 ... : ... .. . ... ... : ... .. 5 ... ... : ... .. . ... ... : ... .. . ... ...
ROW 47 : ... .. 8 ... ... ... : ... .. . ... ... ... : ... .. . ... : ... .. 3 ... : ... .. . ... ... : ... .. 4 ... ... : ... .. . ... ... : ... .. . ... ...
ROW 48 : ... .. . ... ... ... : ... .. . ... ... ... : ... .. . ... : ... .. 2 ... : ... .. . ... ... : ... .. . ... ... : ... .. . ... ... : ... .. . ... ...
ROW 49 : ... .. . ... ... ... : ... .. . ... ... ... : ... .. . ... : ... .. 0 ... : ... .. . ... ... : ... .. . ... ... : ... .. . ... ... : ... .. . ... ...
ROW 4A : ... .. . ... V01 ... : D#4 00 F ... ... ... : ... .. . ... : ... .. F ... : ... .. . ... ... : A#3 01 6 ... ... : ... .. . ... ... : ... .. . ... ...
ROW 4B : ... .. . ... ... ... : ... .. . ... ... ... : ... .. . ... : ... .. C ... : ... .. . ... ... : ... .. . ... ... : ... .. . ... ... : ... .. . ... ...
ROW 4C : ... .. . ... ... ... : ... .. . ... ... ... : ... .. . ... : ... .. 6 ... : ... .. . ... ... : ... .. 5 ... ... : ... .. . ... ... : ... .. . ... ...
ROW 4D : ... .. . ... ... ... : ... .. . ... ... ... : ... .. . ... : ... .. 3 ... : ... .. . ... ... : ... .. 4 ... ... : ... .. . ... ... : ... .. . ... ...
ROW 4E : ... .. . ... ... ... : ... .. . ... ... ... : ... .. . ... : ... .. 2 ... : ... .. . ... ... : ... .. . ... ... : ... .. . ... ... : ... .. . ... ...
ROW 4F : ... .. . ... ... ... : ... .. . ... ... ... : ... .. . ... : ... .. 0 ... : ... .. . ... ... : ... .. . ... ... : ... .. . ... ... : ... .. . ... ...
ROW 50 : ... .. . ... V02 ... : A#3 00 F ... ... ... : C-4 00 . P86 : B-# 00 D ... : ... .. . ... ... : G#3 01 6 ... ... : ... .. . ... ... : ... .. . ... ...
ROW 51 : ... .. . ... ... ... : ... .. . ... ... ... : A-3 00 . P7E : ... .. B ... : ... .. . ... ... : ... .. . ... ... : ... .. . ... ... : ... .. . ... ...
ROW 52 : ... .. . ... ... ... : ... .. . ... ... ... : F#3 00 . ... : ... .. . ... : ... .. . ... ... : ... .. 5 ... ... : ... .. . ... ... : ... .. . ... ...
ROW 53 : ... .. . ... ... ... : ... .. . ... ... ... : D#3 00 . P88 : ... .. A ... : ... .. . ... ... : ... .. 4 ... ... : ... .. . ... ... : ... .. . ... ...
ROW 54 : ... .. . ... ... ... : ... .. . ... ... ... : C#3 00 . P84 : ... .. 8 ... : ... .. . ... ... : ... .. . ... ... : ... .. . ... ... : ... .. . ... ...
ROW 55 : ... .. . ... ... ... : ... .. . ... ... ... : B-2 00 . P85 : ... .. 7 ... : ... .. . ... ... : ... .. . ... ... : ... .. . ... ... : ... .. . ... ...
ROW 56 : ... .. . ... V03 ... : G#3 00 F ... ... ... : A-2 00 . P8C : ... .. 6 ... : ... .. . ... ... : C#4 01 6 ... ... : ... .. . ... ... : ... .. . ... ...
ROW 57 : ... .. . ... ... ... : ... .. . ... ... ... : G#2 00 . P7B : ... .. . ... : ... .. . ... ... : ... .. . ... ... : ... .. . ... ... : ... .. 3 ... ...
ROW 58 : ... .. . ... ... ... : ... .. . ... ... ... : F#2 00 . P8D : ... .. 5 ... : ... .. . ... ... : ... .. 5 ... ... : ... .. 2 ... ... : ... .. . ... ...
ROW 59 : ... .. . ... ... ... : ... .. . ... ... ... : F-2 00 . P81 : ... .. . ... : ... .. . ... ... : ... .. 4 ... ... : ... .. . ... ... : ... .. 1 ... ...
ROW 5A : ... .. . ... ... ... : ... .. . ... ... ... : E-2 00 . P77 : ... .. 4 ... : ... .. . ... ... : ... .. . ... ... : ... .. . ... ... : ... .. . ... ...
ROW 5B : ... .. . ... ... ... : ... .. . ... ... ... : D#2 00 . P6F : ... .. . ... : ... .. . ... ... : ... .. . ... ... : ... .. . ... ... : ... .. . ... ...
ROW 5C : F-3 00 C ... V02 ... : C#3 00 F ... ... ... : E-5 00 . P80 : 1-# 00 F ... : ... .. . ... ... : F-4 01 6 ... ... : D#3 01 8 ... ... : F-3 01 C ... ...
ROW 5D : ... .. B ... ... ... : ... .. . ... ... ... : F#4 00 . ... : ... .. C ... : ... .. . ... ... : ... .. . ... ... : ... .. 7 ... ... : ... .. A ... ...
ROW 5E : ... .. A ... ... ... : ... .. . ... ... ... : B-3 00 . ... : ... .. 6 ... : ... .. . ... ... : ... .. 5 ... ... : ... .. 6 ... ... : ... .. 6 ... ...
ROW 5F : ... .. 8 ... ... ... : ... .. . ... ... ... : A#3 00 . ... : ... .. 3 ... : ... .. . ... ... : ... .. 4 ... ... : ... .. 5 ... ... : ... .. . ... ...
ROW 60 : ... .. . ... ... ... : ... .. . ... ... ... : F-3 00 . ... : ... .. 2 ... : ... .. . ... ... : ... .. . ... ... : ... .. . ... ... : ... .. . ... ...
ROW 61 : ... .. . ... ... ... : ... .. . ... ... ... : ... .. . ... : ... .. 0 ... : ... .. . ... ... : ... .. . ... ... : ... .. 4 ... ... : ... .. . ... ...
ROW 62 : ... .. 7 ... V00 ... : D#3 00 F ... ... ... : ... .. . ... : ... .. F ... : ... .. . ... ... : D#4 01 6 ... ... : ... .. . ... ... : ... .. . ... ...
ROW 63 : ... .. . ... ... ... : ... .. . ... ... ... : ... .. . ... : ... .. C ... : ... .. . ... ... : ... .. . ... ... : ... .. . ... ... : ... .. . ... ...
ROW 64 : ... .. . ... ... ... : ... .. . ... ... ... : ... .. . ... : ... .. 6 ... : ... .. . ... ... : ... .. 5 ... ... : ... .. . ... ... : ... .. . ... ...
ROW 65 : ... .. . ... ... ... : ... .. . ... ... ... : ... .. . ... : ... .. 3 ... : ... .. . ... ... : ... .. 4 ... ... : ... .. . ... ... : ... .. . ... ...
ROW 66 : ... .. . ... ... ... : ... .. . ... ... ... : ... .. . ... : ... .. 2 ... : ... .. . ... ... : ... .. . ... ... : ... .. . ... ... : ... .. . ... ...
ROW 67 : ... .. . ... ... ... : ... .. . ... ... ... : ... .. . ... : ... .. 0 ... : ... .. . ... ... : ... .. . ... ... : ... .. . ... ... : ... .. . ... ...
ROW 68 : ... .. . ... V03 ... : C-4 00 F ... ... ... : ... .. . ... : B-# 00 D ... : ... .. . ... ... : A#3 01 6 ... ... : ... .. . ... ... : ... .. . ... ...
ROW 69 : ... .. . ... ... ... : ... .. . ... ... ... : ... .. . ... : ... .. B ... : ... .. . ... ... : ... .. . ... ... : ... .. . ... ... : ... .. . ... ...
ROW 6A : ... .. . ... ... ... : ... .. . ... ... ... : ... .. . ... : ... .. . ... : ... .. . ... ... : ... .. 5 ... ... : ... .. . ... ... : ... .. . ... ...
ROW 6B : ... .. . ... ... ... : ... .. . ... ... ... : ... .. . ... : ... .. A ... : ... .. . ... ... : ... .. 4 ... ... : ... .. . ... ... : ... .. . ... ...
ROW 6C : ... .. . ... ... ... : ... .. . ... ... ... : ... .. . ... : ... .. 8 ... : ... .. . ... ... : ... .. . ... ... : ... .. . ... ... : ... .. . ... ...
ROW 6D : ... .. . ... ... ... : ... .. . ... ... ... : ... .. . ... : ... .. 7 ... : ... .. . ... ... : ... .. . ... ... : ... .. . ... ... : ... .. . ... ...
ROW 6E : ... .. . ... V02 ... : ... .. . ... ... ... : D#3 00 . P78 : ... .. D ... : ... .. . ... ... : C-4 01 6 ... ... : ... .. . ... ... : ... .. . ... ...
ROW 6F : ... .. . ... ... ... : ... .. . P83 ... ... : C-3 00 . P8C : ... .. B ... : ... .. . ... ... : ... .. . ... ... : ... .. . ... ... : ... .. . ... ...
ROW 70 : ... .. . ... ... ... : ... .. . P86 ... ... : B-2 00 . P75 : ... .. . ... : ... .. . ... ... : ... .. 5 ... ... : ... .. . ... ... : ... .. . ... ...
ROW 71 : ... .. 6 ... ... ... : C#4 00 F P7D ... ... : A-2 00 . P7C : ... .. A ... : ... .. . ... ... : ... .. 4 ... ... : ... .. . ... ... : ... .. . ... ...
ROW 72 : ... .. . ... ... ... : ... .. . P80 ... ... : G-2 00 . P8B : ... .. 8 ... : ... .. . ... ... : ... .. . ... ... : ... .. . ... ... : ... .. . ... ...
ROW 73 : ... .. . ... ... ... : ... .. . ... ... ... : F#2 00 . P7D : ... .. 7 ... : ... .. . ... ... : ... .. . ... ... : ... .. . ... ... : ... .. . ... ...
ROW 74 : ... .. . ... V00 ... : ... .. . ... ... ... : D#3 00 . P80 : 1-# 00 F ... : ... .. . ... ... : A#3 01 6 ... ... : ... .. . ... ... : ... .. . ... ...
ROW 75 : ... .. . ... ... ... : ... .. . ... ... ... : ... .. . ... : ... .. C ... : ... .. . ... ... : ... .. . ... ... : ... .. . ... ... : ... .. . ... ...
ROW 76 : ... .. . ... ... ... : ... .. . ... ... ... : ... .. . ... : ... .. 6 ... : ... .. . ... ... : ... .. 5 ... ... : ... .. . ... ... : ... .. . ... ...
ROW 77 : ... .. . ... ... ... : ... .. . ... ... ... : ... .. . ... : ... .. 3 ... : ... .. . ... ... : ... .. 4 ... ... : ... .. . ... ... : ... .. . ... ...
ROW 78 : ... .. . ... ... ... : ... .. . ... ... ... : ... .. . ... : ... .. 2 ... : ... .. . ... ... : ... .. . ... ... : ... .. . ... ... : ... .. . ... ...
ROW 79 : ... .. . ... ... ... : ... .. . ... ... ... : --- .. . ... : ... .. 0 ... : ... .. . ... ... : ... .. . ... ... : ... .. . ... ... : ... .. . ... ...
ROW 7A : ... .. . ... V02 ... : D#4 00 F ... ... ... : C-3 00 . ... : ... .. F ... : ... .. . ... ... : D#4 01 6 ... ... : ... .. . ... ... : ... .. . ... ...
ROW 7B : ... .. . ... ... ... : ... .. . ... ... ... : ... .. . ... : ... .. C ... : ... .. . ... ... : ... .. . ... ... : ... .. . ... ... : ... .. . ... ...
ROW 7C : ... .. . ... ... ... : ... .. . ... ... ... : ... .. . ... : ... .. 6 ... : ... .. . ... ... : ... .. 5 ... ... : ... .. . ... ... : ... .. . ... ...
ROW 7D : ... .. . ... ... ... : ... .. . ... ... ... : ... .. . ... : ... .. 3 ... : ... .. . ... ... : ... .. 4 ... ... : ... .. . ... ... : ... .. . ... ...
ROW 7E : ... .. . ... ... ... : ... .. . ... ... ... : ... .. . ... : ... .. 2 ... : ... .. . ... ... : ... .. . ... ... : ... .. . ... ... : ... .. . ... ...
ROW 7F : ... .. . ... ... ... : ... .. . ... ... ... : --- .. . ... : ... .. 0 ... : ... .. . ... ... : ... .. . ... ... : ... .. . ... ... : ... .. . ... ...
ROW 80 : ... .. . ... V01 ... : ... .. . ... ... ... : A#3 00 . ... : 9-# 00 D ... : ... .. . ... ... : F-4 01 6 ... ... : ... .. . ... ... : ... .. . ... ...
ROW 81 : ... .. . ... ... ... : ... .. . ... ... ... : ... .. . ... : ... .. B ... : ... .. . ... ... : ... .. . ... ... : ... .. . ... ... : ... .. . ... ...
ROW 82 : ... .. . ... ... ... : ... .. . ... ... ... : ... .. . ... : ... .. . ... : ... .. . ... ... : ... .. 5 ... ... : ... .. . ... ... : ... .. . ... ...
ROW 83 : ... .. . ... ... ... : ... .. . ... ... ... : ... .. . ... : ... .. A ... : ... .. . ... ... : ... .. 4 ... ... : ... .. . ... ... : ... .. . ... ...
ROW 84 : ... .. . ... ... ... : ... .. . ... ... ... : ... .. . ... : ... .. 8 ... : ... .. . ... ... : ... .. . ... ... : ... .. . ... ... : ... .. . ... ...
ROW 85 : ... .. . ... ... ... : ... .. . ... ... ... : --- .. . ... : ... .. 7 ... : ... .. . ... ... : ... .. . ... ... : ... .. . ... ... : ... .. . ... ...
ROW 86 : ... .. . ... V02 ... : ... .. . ... ... ... : C-4 00 . ... : ... .. D ... : ... .. . ... ... : D#4 01 6 ... ... : ... .. . ... ... : ... .. . ... ...
ROW 87 : ... .. . ... ... ... : ... .. . ... ... ... : ... .. . ... : ... .. B ... : ... .. . ... ... : ... .. . ... ... : ... .. . ... ... : ... .. . ... ...
ROW 88 : ... .. . ... ... ... : ... .. . ... ... ... : ... .. . ... : ... .. . ... : ... .. . ... ... : ... .. 5 ... ... : ... .. . ... ... : ... .. . ... ...
ROW 89 : ... .. . ... ... ... : ... .. . ... ... ... : ... .. . ... : ... .. A ... : ... .. . ... ... : ... .. 4 ... ... : ... .. . ... ... : ... .. . ... ...
ROW 8A : ... .. . ... ... ... : ... .. . ... ... ... : ... .. . ... : ... .. 8 ... : ... .. . ... ... : ... .. . ... ... : ... .. . ... ... : ... .. . ... ...
ROW 8B : ... .. . ... ... ... : ... .. . ... ... ... : --- .. . ... : ... .. 7 ... : ... .. . ... ... : ... .. . ... ... : ... .. . ... ... : ... .. . ... ...
ROW 8C : ... .. 5 ... V00 ... : G#4 00 F ... ... ... : D#4 00 . ... : 1-# 00 F ... : ... .. . ... ... : A#3 01 6 ... ... : ... .. . ... ... : ... .. . ... ...
ROW 8D : ... .. . ... ... ... : ... .. . ... ... ... : ... .. . ... : ... .. C ... : ... .. . ... ... : ... .. . ... ... : ... .. . ... ... : ... .. . ... ...
ROW 8E : ... .. . ... ... ... : ... .. . ... ... ... : ... .. . ... : ... .. 6 ... : ... .. . ... ... : ... .. 5 ... ... : ... .. . ... ... : ... .. . ... ...
ROW 8F : ... .. . ... ... ... : ... .. . ... ... ... : ... .. . ... : ... .. 3 ... : ... .. . ... ... : ... .. 4 ... ... : ... .. . ... ... : ... .. . ... ...
ROW 90 : ... .. . ... ... ... : ... .. . ... ... ... : ... .. . ... : ... .. 2 ... : ... .. . ... ... : ... .. . ... ... : ... .. . ... ... : ... .. . ... ...
ROW 91 : ... .. . ... ... ... : ... .. . ... ... ... : --- .. . ... : ... .. 0 ... : ... .. . ... ... : ... .. . ... ... : ... .. . ... ... : ... .. . ... ...
ROW 92 : ... .. . ... V01 ... : ... .. . ... ... ... : F-4 00 . ... : ... .. F ... : ... .. . ... ... : C-4 01 6 ... ... : ... .. . ... ... : ... .. . ... ...
ROW 93 : ... .. . ... ... ... : ... .. . ... ... ... : ... .. . ... : ... .. C ... : ... .. . ... ... : ... .. . ... ... : ... .. . ... ... : ... .. 3 ... ...
ROW 94 : ... .. . ... ... ... : ... .. . ... ... ... : ... .. . ... : ... .. 6 ... : ... .. . ... ... : ... .. 5 ... ... : ... .. 2 ... ... : ... .. . ... ...
ROW 95 : ... .. . ... ... ... : ... .. . ... ... ... : ... .. . ... : ... .. 3 ... : ... .. . ... ... : ... .. 4 ... ... : ... .. . ... ... : ... .. 1 ... ...
ROW 96 : ... .. . ... ... ... : ... .. . ... ... ... : ... .. . ... : ... .. 2 ... : ... .. . ... ... : ... .. . ... ... : ... .. . ... ... : ... .. . ... ...
ROW 97 : ... .. . ... ... ... : ... .. . ... ... ... : --- .. . ... : ... .. 0 ... : ... .. . ... ... : ... .. . ... ... : ... .. . ... ... : ... .. . ... ...
ROW 98 : C#4 00 8 ... ... ... : D#4 00 F ... ... ... : F-5 00 . ... : B-# 00 D ... : ... .. . ... ... : F#3 01 8 ... ... : A#3 01 8 ... ... : D#4 01 C ... ...
ROW 99 : ... .. 7 ... ... ... : ... .. . ... ... ... : G-4 00 . ... : ... .. B ... : ... .. . ... ... : ... .. 7 ... ... : ... .. 7 ... ... : ... .. A ... ...
ROW 9A : ... .. 6 ... ... ... : ... .. . ... ... ... : C-4 00 . ... : ... .. . ... : ... .. . ... ... : ... .. 6 ... ... : ... .. 6 ... ... : ... .. 6 ... ...
ROW 9B : ... .. 5 ... ... ... : ... .. . ... ... ... : B-3 00 . ... : ... .. A ... : ... .. . ... ... : ... .. 4 ... ... : ... .. 5 ... ... : ... .. . ... ...
ROW 9C : ... .. . ... ... ... : E-4 00 F P7F ... ... : F#3 00 . ... : ... .. 8 ... : ... .. . ... ... : ... .. . ... ... : ... .. . ... ... : ... .. . ... ...
ROW 9D : ... .. . ... ... ... : F-4 00 F P7E ... ... : ... .. . ... : ... .. 7 ... : ... .. . ... ... : ... .. 2 ... ... : ... .. 4 ... ... : ... .. . ... ...
ROW 9E : ... .. . ... V02 ... : ... .. . P80 ... ... : ... .. . ... : ... .. 6 ... : ... .. . ... ... : ... .. 8 ... ... : ... .. . ... ... : ... .. . ... ...
ROW 9F : ... .. . ... ... ... : ... .. . ... ... ... : ... .. . ... : ... .. . ... : ... .. . ... ... : ... .. 7 ... ... : ... .. . ... ... : ... .. . ... ...
ROW A0 : ... .. . ... ... ... : ... .. . ... ... ... : ... .. . ... : ... .. 5 ... : ... .. . ... ... : ... .. 6 ... ... : ... .. . ... ... : ... .. . ... ...
ROW A1 : ... .. . ... ... ... : ... .. . ... ... ... : ... .. . ... : ... .. . ... : ... .. . ... ... : ... .. 5 ... ... : ... .. . ... ... : ... .. . ... ...
ROW A2 : ... .. . ... ... ... : ... .. . ... ... ... : ... .. . ... : ... .. 4 ... : ... .. . ... ... : ... .. . ... ... : ... .. . ... ... : ... .. . ... ...
ROW A3 : ... .. . ... ... ... : ... .. . ... ... ... : ... .. . ... : ... .. . ... : ... .. . ... ... : ... .. 4 ... ... : ... .. . ... ... : ... .. . ... ...
ROW A4 : ... .. . ... V00 ... : ... .. . ... ... ... : ... .. . ... : 1-# 00 F ... : ... .. . ... ... : ... .. . ... ... : ... .. . ... ... : ... .. . ... ...
ROW A5 : ... .. . ... ... ... : ... .. . ... ... ... : ... .. . ... : ... .. C ... : ... .. . ... ... : ... .. . ... ... : ... .. . ... ... : ... .. . ... ...
ROW A6 : ... .. . ... ... ... : ... .. . ... ... ... : ... .. . ... : ... .. 6 ... : ... .. . ... ... : ... .. 2 ... ... : ... .. . ... ... : ... .. . ... ...
ROW A7 : ... .. . ... ... ... : ... .. . ... ... ... : ... .. . ... : ... .. 3 ... : ... .. . ... ... : ... .. . ... ... : ... .. . ... ... : ... .. . ... ...
ROW A8 : ... .. . ... ... ... : ... .. . ... ... ... : ... .. . ... : ... .. 2 ... : ... .. . ... ... : ... .. . ... ... : ... .. . ... ... : ... .. . ... ...
ROW A9 : ... .. . ... ... ... : ... .. . ... ... ... : ... .. . ... : ... .. 0 ... : ... .. . ... ... : ... .. . ... ... : ... .. . ... ... : ... .. . ... ...
ROW AA : ... .. . ... V01 ... : F#4 00 F ... ... ... : E-3 00 . P85 : ... .. F ... : ... .. . ... ... : ... .. 8 ... ... : ... .. . ... ... : ... .. . ... ...
ROW AB : ... .. . ... ... ... : ... .. . ... ... ... : D#3 00 . P7A : ... .. C ... : ... .. . ... ... : ... .. 7 ... ... : ... .. . ... ... : ... .. . ... ...
ROW AC : ... .. . ... ... ... : ... .. . ... ... ... : C#3 00 . P86 : ... .. 6 ... : ... .. . ... ... : ... .. 6 ... ... : ... .. . ... ... : ... .. . ... ...
ROW AD : ... .. 6 ... ... ... : ... .. . ... ... ... : C-3 00 . P7E : ... .. 3 ... : ... .. . ... ... : ... .. 4 ... ... : ... .. . ... ... : ... .. . ... ...
ROW AE : ... .. . ... ... ... : ... .. . ... ... ... : B-2 00 . P77 : ... .. 2 ... : ... .. . ... ... : ... .. . ... ... : ... .. . ... ... : ... .. . ... ...
ROW AF : ... .. . ... ... ... : ... .. . ... ... ... : A-2 00 . P8E : ... .. 0 ... : ... .. . ... ... : ... .. 2 ... ... : ... .. . ... ... : ... .. . ... ...
ROW B0 : ... .. . ... V02 ... : ... .. . ... ... ... : G#2 00 . P8D : B-# 00 D ... : ... .. . ... ... : ... .. 8 ... ... : ... .. . ... ... : ... .. . ... ...
ROW B1 : ... .. . ... ... ... : ... .. . ... ... ... : G-2 00 . ... : ... .. B ... : ... .. . ... ... : ... .. 7 ... ... : ... .. . ... ... : ... .. . ... ...
ROW B2 : ... .. . ... ... ... : ... .. . ... ... ... : F#2 00 . P8F : ... .. . ... : ... .. . ... ... : ... .. 6 ... ... : ... .. . ... ... : ... .. . ... ...
ROW B3 : ... .. . ... ... ... : ... .. . ... ... ... : ... .. . P6F : ... .. A ... : ... .. . ... ... : ... .. 5 ... ... : ... .. . ... ... : ... .. . ... ...
ROW B4 : ... .. . ... ... ... : ... .. . ... ... ... : F-2 00 . P73 : ... .. 8 ... : ... .. . ... ... : ... .. . ... ... : ... .. . ... ... : ... .. . ... ...
ROW B5 : ... .. . ... ... ... : ... .. . ... ... ... : E-2 00 . P79 : ... .. 7 ... : ... .. . ... ... : ... .. 4 ... ... : ... .. . ... ... : ... .. . ... ...
ROW B6 : ... .. . ... V03 ... : ... .. . ... ... ... : D#2 00 . P81 : ... .. 6 ... : ... .. . ... ... : ... .. . ... ... : ... .. . ... ... : ... .. . ... ...
ROW B7 : ... .. . ... ... ... : ... .. . ... ... ... : D-2 00 . P8C : ... .. . ... : ... .. . ... ... : ... .. . ... ... : ... .. . ... ... : ... .. 3 ... ...
ROW B8 : ... .. . ... ... ... : ... .. . ... ... ... : ... .. . P6C : ... .. 5 ... : ... .. . ... ... : ... .. 2 ... ... : ... .. 2 ... ... : ... .. . ... ...
ROW B9 : ... .. . ... ... ... : ... .. . ... ... ... : C#2 00 . P79 : ... .. . ... : ... .. . ... ... : ... .. . ... ... : ... .. . ... ... : ... .. 1 ... ...
ROW BA : ... .. . ... ... ... : ... .. . ... ... ... : C-2 00 . P89 : ... .. 4 ... : ... .. . ... ... : ... .. . ... ... : ... .. . ... ... : ... .. . ... ...
ROW BB : ... .. . ... ... ... : ... .. . ... ... ... : ... .. . P69 : ... .. . ... : ... .. . ... ... : ... .. . ... ... : ... .. . ... ... : ... .. . ... ...
ROW BC : C-4 00 9 ... V02 ... : G#4 00 F ... ... ... : F-4 00 . P80 : 1-# 00 F ... : ... .. . ... ... : G#3 01 8 ... ... : C#4 01 8 ... ... : F-4 01 C ... ...
ROW BD : ... .. 8 ... ... ... : ... .. . ... ... ... : G-3 00 . ... : ... .. C ... : ... .. . ... ... : ... .. 7 ... ... : ... .. 7 ... ... : ... .. A ... ...
ROW BE : ... .. 7 ... ... ... : ... .. . ... ... ... : C-3 00 . ... : ... .. 6 ... : ... .. . ... ... : ... .. 6 ... ... : ... .. 6 ... ... : ... .. 6 ... ...
ROW BF : ... .. 6 ... ... ... : ... .. . ... ... ... : B-2 00 . ... : ... .. 3 ... : ... .. . ... ... : ... .. 4 ... ... : ... .. 5 ... ... : ... .. . ... ...
ROW C0 : ... .. . ... ... ... : ... .. . ... ... ... : F#2 00 . ... : ... .. 2 ... : ... .. . ... ... : ... .. . ... ... : ... .. . ... ... : ... .. . ... ...
ROW C1 : ... .. . ... ... ... : ... .. . ... ... ... : ... .. . ... : ... .. 0 ... : ... .. . ... ... : ... .. 2 ... ... : ... .. 4 ... ... : ... .. . ... ...
ROW C2 : ... .. . ... V00 ... : ... .. . ... ... ... : ... .. . ... : ... .. F ... : ... .. . ... ... : ... .. 8 ... ... : ... .. . ... ... : ... .. . ... ...
ROW C3 : ... .. . ... ... ... : ... .. . ... ... ... : ... .. . ... : ... .. C ... : ... .. . ... ... : ... .. 7 ... ... : ... .. . ... ... : ... .. . ... ...
ROW C4 : ... .. . ... ... ... : ... .. . ... ... ... : ... .. . ... : ... .. 6 ... : ... .. . ... ... : ... .. 6 ... ... : ... .. . ... ... : ... .. . ... ...
ROW C5 : ... .. . ... ... ... : ... .. . ... ... ... : ... .. . ... : ... .. 3 ... : ... .. . ... ... : ... .. 5 ... ... : ... .. . ... ... : ... .. . ... ...
ROW C6 : ... .. . ... ... ... : ... .. . ... ... ... : ... .. . ... : ... .. 2 ... : ... .. . ... ... : ... .. . ... ... : ... .. . ... ... : ... .. . ... ...
ROW C7 : ... .. . ... ... ... : ... .. . ... ... ... : ... .. . ... : ... .. 0 ... : ... .. . ... ... : ... .. 4 ... ... : ... .. . ... ... : ... .. . ... ...
ROW C8 : ... .. . ... V03 ... : ... .. . ... ... ... : ... .. . ... : B-# 00 D ... : ... .. . ... ... : ... .. . ... ... : ... .. . ... ... : ... .. . ... ...
ROW C9 : ... .. . ... ... ... : ... .. . ... ... ... : ... .. . ... : ... .. B ... : ... .. . ... ... : ... .. . ... ... : ... .. . ... ... : ... .. . ... ...
ROW CA : ... .. . ... ... ... : ... .. . ... ... ... : ... .. . ... : ... .. . ... : ... .. . ... ... : ... .. 2 ... ... : ... .. . ... ... : ... .. . ... ...
ROW CB : ... .. . ... ... ... : ... .. . ... ... ... : ... .. . ... : ... .. A ... : ... .. . ... ... : ... .. . ... ... : ... .. . ... ... : ... .. . ... ...
ROW CC : ... .. . ... ... ... : ... .. . ... ... ... : ... .. . ... : ... .. 8 ... : ... .. . ... ... : ... .. . ... ... : ... .. . ... ... : ... .. . ... ...
ROW CD : ... .. . ... ... ... : ... .. . ... ... ... : ... .. . ... : ... .. 7 ... : ... .. . ... ... : ... .. . ... ... : ... .. . ... ... : ... .. . ... ...
ROW CE : ... .. . ... V02 ... : ... .. . ... ... ... : F-2 00 . P74 : ... .. 6 ... : ... .. . ... ... : ... .. 8 ... ... : ... .. . ... ... : ... .. . ... ...
ROW CF : ... .. . ... ... ... : A#4 00 F ... ... ... : D#2 00 . P92 : ... .. . ... : ... .. . ... ... : ... .. 7 ... ... : ... .. . ... ... : ... .. . ... ...
ROW D0 : ... .. . ... ... ... : C-5 00 F P82 ... ... : D-2 00 . P8D : ... .. 5 ... : ... .. . ... ... : ... .. 6 ... ... : ... .. . ... ... : ... .. . ... ...
ROW D1 : ... .. . ... ... ... : C#5 00 F P80 ... ... : C#2 00 . P8A : ... .. . ... : ... .. . ... ... : ... .. 4 ... ... : ... .. . ... ... : ... .. . ... ...
ROW D2 : ... .. . ... ... ... : ... .. . ... ... ... : C-2 00 . ... : ... .. 4 ... : ... .. . ... ... : ... .. . ... ... : ... .. . ... ... : ... .. . ... ...
ROW D3 : ... .. . ... ... ... : ... .. . ... ... ... : B-1 00 . P8D : ... .. . ... : ... .. . ... ... : ... .. 2 ... ... : ... .. . ... ... : ... .. . ... ...
ROW D4 : ... .. . ... V00 ... : ... .. . ... ... ... : F-2 00 . P80 : 1-# 00 F ... : ... .. . ... ... : ... .. 8 ... ... : ... .. . ... ... : ... .. . ... ...
ROW D5 : ... .. . ... ... ... : ... .. . ... ... ... : ... .. . ... : ... .. C ... : ... .. . ... ... : ... .. 7 ... ... : ... .. . ... ... : ... .. . ... ...
ROW D6 : ... .. . ... ... ... : ... .. . ... ... ... : ... .. . ... : ... .. 6 ... : ... .. . ... ... : ... .. 6 ... ... : ... .. . ... ... : ... .. . ... ...
ROW D7 : ... .. 7 ... ... ... : ... .. . ... ... ... : ... .. . ... : ... .. 3 ... : ... .. . ... ... : ... .. 5 ... ... : ... .. . ... ... : ... .. . ... ...
ROW D8 : ... .. . ... ... ... : ... .. . ... ... ... : ... .. . ... : ... .. 2 ... : ... .. . ... ... : ... .. . ... ... : ... .. . ... ... : ... .. . ... ...
ROW D9 : ... .. . ... ... ... : ... .. . ... ... ... : --- .. . ... : ... .. 0 ... : ... .. . ... ... : ... .. 4 ... ... : ... .. . ... ... : ... .. . ... ...
ROW DA : ... .. . ... V02 ... : ... .. . ... ... ... : C#2 00 . ... : ... .. F ... : ... .. . ... ... : ... .. . ... ... : ... .. . ... ... : ... .. . ... ...
ROW DB : ... .. . ... ... ... : ... .. . ... ... ... : ... .. . ... : ... .. C ... : ... .. . ... ... : ... .. . ... ... : ... .. . ... ... : ... .. . ... ...
ROW DC : ... .. . ... ... ... : ... .. . ... ... ... : ... .. . ... : ... .. 6 ... : ... .. . ... ... : ... .. 2 ... ... : ... .. . ... ... : ... .. . ... ...
ROW DD : ... .. . ... ... ... : ... .. . ... ... ... : ... .. . ... : ... .. 3 ... : ... .. . ... ... : ... .. . ... ... : ... .. . ... ... : ... .. . ... ...
ROW DE : ... .. . ... ... ... : ... .. . ... ... ... : ... .. . ... : ... .. 2 ... : ... .. . ... ... : ... .. . ... ... : ... .. . ... ... : ... .. . ... ...
ROW DF : ... .. . ... ... ... : ... .. . ... ... ... : --- .. . ... : ... .. 0 ... : ... .. . ... ... : ... .. . ... ... : ... .. . ... ... : ... .. . ... ...
ROW E0 : ... .. . ... V01 ... : ... .. . ... ... ... : C-3 00 . ... : B-# 00 D ... : ... .. . ... ... : ... .. 8 ... ... : ... .. . ... ... : ... .. . ... ...
ROW E1 : ... .. . ... ... ... : B-4 00 F P7D ... ... : ... .. . ... : ... .. B ... : ... .. . ... ... : ... .. 7 ... ... : ... .. . ... ... : ... .. . ... ...
ROW E2 : ... .. . ... ... ... : G#4 00 F P84 ... ... : ... .. . ... : ... .. . ... : ... .. . ... ... : ... .. 6 ... ... : ... .. . ... ... : ... .. . ... ...
ROW E3 : ... .. . ... ... ... : G-4 00 F P7D ... ... : ... .. . ... : ... .. A ... : ... .. . ... ... : ... .. 4 ... ... : ... .. . ... ... : ... .. . ... ...
ROW E4 : ... .. . ... ... ... : F-4 00 F P7F ... ... : ... .. . ... : ... .. 8 ... : ... .. . ... ... : ... .. . ... ... : ... .. . ... ... : ... .. . ... ...
ROW E5 : ... .. . ... ... ... : D#4 00 F P84 ... ... : --- .. . ... : ... .. 7 ... : ... .. . ... ... : ... .. 2 ... ... : ... .. . ... ... : ... .. . ... ...
ROW E6 : ... .. . ... V02 ... : D-4 00 F P7F ... ... : C#3 00 . ... : ... .. 6 ... : ... .. . ... ... : ... .. 8 ... ... : ... .. . ... ... : ... .. . ... ...
ROW E7 : ... .. . ... ... ... : C#4 00 F P80 ... ... : ... .. . ... : ... .. . ... : ... .. . ... ... : ... .. 7 ... ... : ... .. . ... ... : ... .. . ... ...
ROW E8 : ... .. . ... ... ... : ... .. . ... ... ... : ... .. . ... : ... .. 5 ... : ... .. . ... ... : ... .. 6 ... ... : ... .. . ... ... : ... .. . ... ...
ROW E9 : ... .. . ... ... ... : ... .. . ... ... ... : ... .. . ... : ... .. . ... : ... .. . ... ... : ... .. 4 ... ... : ... .. . ... ... : ... .. . ... ...
ROW EA : ... .. . ... ... ... : ... .. . ... ... ... : ... .. . ... : ... .. 4 ... : ... .. . ... ... : ... .. . ... ... : ... .. . ... ... : ... .. . ... ...
ROW EB : ... .. . ... ... ... : ... .. . ... ... ... : --- .. . ... : ... .. . ... : ... .. . ... ... : ... .. 2 ... ... : ... .. . ... ... : ... .. . ... ...
ROW EC : ... .. 8 ... V00 ... : ... .. . ... ... ... : F-3 00 . ... : 1-# 00 F ... : ... .. . ... ... : ... .. 8 ... ... : ... .. . ... ... : ... .. . ... ...
ROW ED : ... .. . ... ... ... : ... .. . ... ... ... : ... .. . ... : ... .. C ... : ... .. . ... ... : ... .. 7 ... ... : ... .. . ... ... : ... .. . ... ...
ROW EE : ... .. . ... ... ... : ... .. . ... ... ... : ... .. . ... : ... .. 6 ... : ... .. . ... ... : ... .. 6 ... ... : ... .. . ... ... : ... .. . ... ...
ROW EF : ... .. . ... ... ... : ... .. . ... ... ... : ... .. . ... : ... .. 3 ... : ... .. . ... ... : ... .. 4 ... ... : ... .. . ... ... : ... .. . ... ...
ROW F0 : ... .. . ... ... ... : ... .. . ... ... ... : ... .. . ... : ... .. 2 ... : ... .. . ... ... : ... .. . ... ... : ... .. . ... ... : ... .. . ... ...
ROW F1 : ... .. . ... ... ... : ... .. . ... ... ... : --- .. . ... : ... .. 0 ... : ... .. . ... ... : ... .. 2 ... ... : ... .. . ... ... : ... .. . ... ...
ROW F2 : ... .. . ... V01 ... : ... .. . P84 ... ... : F#3 00 . ... : ... .. F ... : ... .. . ... ... : ... .. 8 ... ... : ... .. . ... ... : ... .. . ... ...
ROW F3 : ... .. . ... ... ... : ... .. . P86 ... ... : ... .. . ... : ... .. C ... : ... .. . ... ... : ... .. 7 ... ... : ... .. . ... ... : ... .. 3 ... ...
ROW F4 : ... .. . ... ... ... : ... .. . P85 ... ... : ... .. . ... : ... .. 6 ... : ... .. . ... ... : ... .. 6 ... ... : ... .. 2 ... ... : ... .. . ... ...
ROW F5 : ... .. . ... ... ... : ... .. . P82 ... ... : ... .. . ... : ... .. 3 ... : ... .. . ... ... : ... .. 4 ... ... : ... .. . ... ... : ... .. 1 ... ...
ROW F6 : ... .. . ... ... ... : ... .. . P7E ... ... : ... .. . ... : ... .. 2 ... : ... .. . ... ... : ... .. . ... ... : ... .. . ... ... : ... .. . ... ...
ROW F7 : ... .. . ... ... ... : ... .. . P7B ... ... : --- .. . ... : ... .. 0 ... : ... .. . ... ... : ... .. 2 ... ... : ... .. . ... ... : ... .. . ... ...
ROW F8 : A#3 00 C ... ... ... : C-4 00 F P86 ... ... : F-5 00 . ... : B-# 00 D ... : ... .. . ... ... : A#3 01 8 ... ... : ... .. 8 ... ... : F#4 01 C ... ...
ROW F9 : ... .. B ... ... ... : C#4 00 F P7C ... ... : G-4 00 . ... : ... .. B ... : ... .. . ... ... : ... .. 7 ... ... : ... .. 7 ... ... : ... .. A ... ...
ROW FA : ... .. A ... ... ... : ... .. . P80 ... ... : C-4 00 . ... : ... .. . ... : ... .. . ... ... : ... .. 6 ... ... : ... .. 6 ... ... : ... .. 6 ... ...
ROW FB : ... .. 8 ... ... ... : ... .. . P83 ... ... : B-3 00 . ... : ... .. A ... : ... .. . ... ... : ... .. 4 ... ... : ... .. 5 ... ... : ... .. . ... ...
ROW FC : ... .. . ... ... ... : ... .. . P86 ... ... : F#3 00 . ... : ... .. 8 ... : ... .. . ... ... : ... .. . ... ... : ... .. . ... ... : ... .. . ... ...
ROW FD : ... .. . ... ... ... : ... .. . ... ... ... : ... .. . ... : ... .. 7 ... : ... .. . ... ... : ... .. 2 ... ... : ... .. 4 ... ... : ... .. . ... ...
ROW FE : ... .. . ... V02 ... : ... .. . P82 ... ... : ... .. . ... : ... .. 6 ... : ... .. . ... ... : ... .. 8 ... ... : ... .. . ... ... : ... .. . ... ...
ROW FF : ... .. . ... ... ... : ... .. . P7F ... ... : ... .. . ... : ... .. . ... : ... .. . ... ... : ... .. 7 ... ... : ... .. . ... ... : ... .. . ... ...

PATTERN 14
ROW 00 : ... .. . ... ... ... : ... .. . P7B ... ... : ... .. . ... : ... .. 5 ... : ... .. . ... ... : ... .. 6 ... ... : ... .. . ... ... : ... .. . ... ...
ROW 01 : ... .. . ... ... ... : C-4 00 F P86 ... ... : ... .. . ... : ... .. . ... : ... .. . ... ... : ... .. 5 ... ... : ... .. . ... ... : ... .. . ... ...
ROW 02 : ... .. . ... ... ... : C#4 00 F P7C ... ... : ... .. . ... : ... .. 4 ... : ... .. . ... ... : ... .. . ... ... : ... .. . ... ... : ... .. . ... ...
ROW 03 : ... .. . ... ... ... : ... .. . P80 ... ... : --- .. . ... : ... .. . ... : ... .. . ... ... : ... .. 4 ... ... : ... .. . ... ... : ... .. . ... ...
ROW 04 : ... .. . ... V00 ... : ... .. . P83 ... ... : F-3 00 . ... : 1-# 00 F ... : ... .. . ... ... : ... .. . ... ... : ... .. . ... ... : ... .. . ... ...
ROW 05 : ... .. . ... ... ... : ... .. . P86 ... ... : ... .. . ... : ... .. C ... : ... .. . ... ... : ... .. . ... ... : ... .. . ... ... : ... .. . ... ...
ROW 06 : ... .. . ... ... ... : ... .. . ... ... ... : ... .. . ... : ... .. 6 ... : ... .. . ... ... : ... .. 2 ... ... : ... .. . ... ... : ... .. . ... ...
ROW 07 : ... .. . ... ... ... : ... .. . P83 ... ... : ... .. . ... : ... .. 3 ... : ... .. . ... ... : ... .. . ... ... : ... .. . ... ... : ... .. . ... ...
ROW 08 : ... .. . ... ... ... : ... .. . P80 ... ... : ... .. . ... : ... .. 2 ... : ... .. . ... ... : ... .. . ... ... : ... .. . ... ... : ... .. . ... ...
ROW 09 : ... .. . ... ... ... : ... .. . P7C ... ... : --- .. . ... : ... .. 0 ... : ... .. . ... ... : ... .. . ... ... : ... .. . ... ... : ... .. . ... ...
ROW 0A : ... .. . ... V01 ... : C-4 00 F P86 ... ... : F-3 00 . ... : ... .. F ... : ... .. . ... ... : ... .. 8 ... ... : ... .. . ... ... : ... .. . ... ...
ROW 0B : ... .. . ... ... ... : C#4 00 F P7B ... ... : ... .. . ... : ... .. C ... : ... .. . ... ... : ... .. 7 ... ... : ... .. . ... ... : ... .. . ... ...
ROW 0C : ... .. . ... ... ... : ... .. . P7F ... ... : ... .. . ... : ... .. 6 ... : ... .. . ... ... : ... .. 6 ... ... : ... .. . ... ... : ... .. . ... ...
ROW 0D : ... .. . ... ... ... : ... .. . P82 ... ... : ... .. . ... : ... .. 3 ... : ... .. . ... ... : ... .. 4 ... ... : ... .. . ... ... : ... .. . ... ...
ROW 0E : ... .. . ... ... ... : ... .. . P86 ... ... : ... .. . ... : ... .. 2 ... : ... .. . ... ... : ... .. . ... ... : ... .. . ... ... : ... .. . ... ...
ROW 0F : ... .. . ... ... ... : ... .. . ... ... ... : --- .. . ... : ... .. 0 ... : ... .. . ... ... : ... .. 2 ... ... : ... .. . ... ... : ... .. . ... ...
ROW 10 : ... .. . ... V02 ... : ... .. . P83 ... ... : D#3 00 . ... : ... .. F ... : ... .. . ... ... : ... .. 8 ... ... : ... .. . ... ... : ... .. . ... ...
ROW 11 : ... .. . ... ... ... : ... .. . P80 ... ... : ... .. . ... : ... .. C ... : ... .. . ... ... : ... .. 7 ... ... : ... .. . ... ... : ... .. . ... ...
ROW 12 : ... .. . ... ... ... : ... .. . P7C ... ... : ... .. . ... : ... .. 6 ... : ... .. . ... ... : ... .. 6 ... ... : ... .. . ... ... : ... .. . ... ...
ROW 13 : ... .. . ... ... ... : C-4 00 F P86 ... ... : ... .. . ... : ... .. 3 ... : ... .. . ... ... : ... .. 5 ... ... : ... .. . ... ... : ... .. . ... ...
ROW 14 : ... .. . ... ... ... : C#4 00 F P7B ... ... : ... .. . ... : ... .. 2 ... : ... .. . ... ... : ... .. . ... ... : ... .. . ... ... : ... .. . ... ...
ROW 15 : ... .. . ... ... ... : ... .. . P7E ... ... : --- .. . ... : ... .. 0 ... : ... .. . ... ... : ... .. 4 ... ... : ... .. . ... ... : ... .. . ... ...
ROW 16 : ... .. 9 ... V03 ... : ... .. . P82 ... ... : D#3 00 . ... : ... .. F ... : ... .. . ... ... : ... .. . ... ... : ... .. . ... ... : ... .. . ... ...
ROW 17 : ... .. . ... ... ... : ... .. . P85 ... ... : ... .. . ... : ... .. C ... : ... .. . ... ... : ... .. . ... ... : ... .. . ... ... : ... .. 3 ... ...
ROW 18 : ... .. . ... ... ... : ... .. . P86 ... ... : ... .. . ... : ... .. 6 ... : ... .. . ... ... : ... .. 2 ... ... : ... .. 2 ... ... : ... .. . ... ...
ROW 19 : ... .. . ... ... ... : ... .. . P84 ... ... : ... .. . ... : ... .. 3 ... : ... .. . ... ... : ... .. . ... ... : ... .. . ... ... : ... .. 1 ... ...
ROW 1A : ... .. . ... ... ... : ... .. . P80 ... ... : ... .. . ... : ... .. 2 ... : ... .. . ... ... : ... .. . ... ... : ... .. . ... ... : ... .. . ... ...
ROW 1B : ... .. . ... ... ... : ... .. . P7D ... ... : --- .. . ... : ... .. 0 ... : ... .. . ... ... : ... .. . ... ... : ... .. . ... ... : ... .. . ... ...
ROW 1C : ... .. . ... V02 ... : C-4 00 F P86 ... ... : C#3 00 . ... : B-# 00 D ... : ... .. . ... ... : C-4 01 8 ... ... : D#4 01 8 ... ... : G#4 01 C ... ...
ROW 1D : ... .. . ... ... ... : ... .. . ... ... ... : ... .. . ... : ... .. B ... : ... .. . ... ... : ... .. 7 ... ... : ... .. 7 ... ... : ... .. A ... ...
ROW 1E : ... .. . ... ... ... : C#4 00 F P7E ... ... : ... .. . ... : ... .. . ... : ... .. . ... ... : ... .. 6 ... ... : ... .. 6 ... ... : ... .. 6 ... ...
ROW 1F : ... .. . ... ... ... : ... .. . P81 ... ... : ... .. . ... : ... .. A ... : ... .. . ... ... : ... .. 4 ... ... : ... .. 4 ... ... : ... .. . ... ...
ROW 20 : ... .. . ... ... ... : ... .. . P85 ... ... : ... .. . ... : ... .. 8 ... : ... .. . ... ... : ... .. . ... ... : ... .. . ... ... : ... .. 3 ... ...
ROW 21 : ... .. . ... ... ... : ... .. . P86 ... ... : ... .. . ... : ... .. 7 ... : ... .. . ... ... : ... .. 2 ... ... : ... .. 2 ... ... : ... .. . ... ...
ROW 22 : ... .. . ... V00 ... : ... .. . P84 ... ... : ... .. . ... : ... .. 6 ... : ... .. . ... ... : ... .. 8 ... ... : ... .. 6 ... ... : ... .. C ... ...
ROW 23 : ... .. . ... ... ... : ... .. . P80 ... ... : ... .. . ... : ... .. . ... : ... .. . ... ... : ... .. 7 ... ... : ... .. 5 ... ... : ... .. A ... ...
ROW 24 : ... .. . ... ... ... : ... .. . P7D ... ... : ... .. . ... : ... .. 5 ... : ... .. . ... ... : ... .. 6 ... ... : ... .. 4 ... ... : ... .. 6 ... ...
ROW 25 : ... .. . ... ... ... : C-4 00 F P86 ... ... : ... .. . ... : ... .. . ... : ... .. . ... ... : ... .. 5 ... ... : ... .. . ... ... : ... .. . ... ...
ROW 26 : ... .. . ... ... ... : ... .. . ... ... ... : ... .. . ... : ... .. 4 ... : ... .. . ... ... : ... .. . ... ... : ... .. . ... ... : ... .. . ... ...
ROW 27 : ... .. . ... ... ... : C#4 00 F P7D ... ... : ... .. . ... : ... .. . ... : ... .. . ... ... : ... .. 4 ... ... : ... .. 3 ... ... : ... .. . ... ...
ROW 28 : C-4 00 F ... V03 ... : ... .. . P80 ... ... : C-3 00 . P88 : 1-# 00 F ... : ... .. . ... ... : ... .. . ... ... : ... .. . ... ... : ... .. . ... ...
ROW 29 : ... .. E ... ... ... : ... .. . P84 ... ... : ... .. . P78 : ... .. C ... : ... .. . ... ... : ... .. . ... ... : ... .. . ... ... : ... .. 3 ... ...
ROW 2A : ... .. D ... ... ... : ... .. . P86 ... ... : B-2 00 . P81 : ... .. 6 ... : ... .. . ... ... : ... .. 2 ... ... : ... .. 1 ... ... : ... .. . ... ...
ROW 2B : ... .. 9 ... ... ... : ... .. . P85 ... ... : A#2 00 . P8C : ... .. 3 ... : ... .. . ... ... : ... .. . ... ... : ... .. . ... ... : ... .. 1 ... ...
ROW 2C : ... .. . ... ... ... : ... .. . P81 ... ... : ... .. . P7C : ... .. 2 ... : ... .. . ... ... : ... .. . ... ... : ... .. . ... ... : ... .. . ... ...
ROW 2D : ... .. . ... ... ... : ... .. . P7E ... ... : A-2 00 . P88 : ... .. 0 ... : ... .. . ... ... : ... .. . ... ... : ... .. . ... ... : ... .. . ... ...
ROW 2E : ... .. . ... V02 ... : G#3 00 F P80 ... ... : ... .. . P78 : ... .. F ... : ... .. . ... ... : ... .. 8 ... ... : ... .. 6 ... ... : ... .. C ... ...
ROW 2F : ... .. . ... ... ... : ... .. . ... ... ... : G#2 00 . P87 : ... .. C ... : ... .. . ... ... : ... .. 7 ... ... : ... .. 5 ... ... : ... .. A ... ...
ROW 30 : ... .. . ... ... ... : ... .. . ... ... ... : ... .. . P77 : ... .. 6 ... : ... .. . ... ... : ... .. 6 ... ... : ... .. 4 ... ... : ... .. 6 ... ...
ROW 31 : ... .. . ... ... ... : ... .. 8 ... ... ... : G-2 00 . P87 : ... .. 3 ... : ... .. . ... ... : ... .. 4 ... ... : ... .. 3 ... ... : ... .. . ... ...
ROW 32 : ... .. . ... ... ... : ... .. . ... ... ... : ... .. . P77 : ... .. 2 ... : ... .. . ... ... : ... .. . ... ... : ... .. . ... ... : ... .. 3 ... ...
ROW 33 : ... .. . ... ... ... : ... .. . ... ... ... : F#2 00 . P89 : ... .. 0 ... : ... .. . ... ... : ... .. 2 ... ... : ... .. 1 ... ... : ... .. . ... ...
ROW 34 : ... .. 8 ... V00 ... : A#3 00 F ... ... ... : C-3 00 . P80 : ... .. F ... : ... .. . ... ... : ... .. 8 ... ... : ... .. 6 ... ... : ... .. C ... ...
ROW 35 : ... .. . ... ... ... : ... .. . ... ... ... : ... .. . ... : ... .. C ... : ... .. . ... ... : ... .. 7 ... ... : ... .. 5 ... ... : ... .. A ... ...
ROW 36 : ... .. . ... ... ... : ... .. . ... ... ... : ... .. . ... : ... .. 6 ... : ... .. . ... ... : ... .. 6 ... ... : ... .. 4 ... ... : ... .. 6 ... ...
ROW 37 : ... .. . ... ... ... : ... .. . ... ... ... : ... .. . ... : ... .. 3 ... : ... .. . ... ... : ... .. 5 ... ... : ... .. . ... ... : ... .. . ... ...
ROW 38 : ... .. . ... ... ... : ... .. . ... ... ... : ... .. . ... : ... .. 2 ... : ... .. . ... ... : ... .. . ... ... : ... .. . ... ... : ... .. . ... ...
ROW 39 : ... .. . ... ... ... : ... .. . ... ... ... : ... .. . ... : ... .. 0 ... : ... .. . ... ... : ... .. 4 ... ... : ... .. 3 ... ... : ... .. . ... ...
ROW 3A : ... .. . ... V02 ... : C-4 00 F ... ... ... : C#3 00 . ... : ... .. F ... : ... .. . ... ... : ... .. . ... ... : ... .. . ... ... : ... .. . ... ...
ROW 3B : ... .. . ... ... ... : ... .. . ... ... ... : ... .. . ... : ... .. C ... : ... .. . ... ... : ... .. . ... ... : ... .. . ... ... : ... .. 3 ... ...
ROW 3C : ... .. . ... ... ... : ... .. . ... ... ... : ... .. . ... : ... .. 6 ... : ... .. . ... ... : ... .. 2 ... ... : ... .. 1 ... ... : ... .. . ... ...
ROW 3D : ... .. . ... ... ... : ... .. 8 ... ... ... : ... .. . ... : ... .. 3 ... : ... .. . ... ... : ... .. . ... ... : ... .. . ... ... : ... .. 1 ... ...
ROW 3E : ... .. . ... ... ... : ... .. . ... ... ... : ... .. . ... : ... .. 2 ... : ... .. . ... ... : ... .. . ... ... : ... .. . ... ... : ... .. . ... ...
ROW 3F : ... .. . ... ... ... : ... .. . ... ... ... : ... .. . ... : ... .. 0 ... : ... .. . ... ... : ... .. . ... ... : ... .. . ... ... : ... .. . ... ...
ROW 40 : ... .. . ... V01 ... : D#4 00 F ... ... ... : C-3 00 . ... : 9-# 00 D ... : ... .. . ... ... : ... .. 8 ... ... : ... .. 6 ... ... : ... .. C ... ...
ROW 41 : ... .. . ... ... ... : ... .. . ... ... ... : ... .. . ... : ... .. B ... : ... .. . ... ... : ... .. 7 ... ... : ... .. 5 ... ... : ... .. A ... ...
ROW 42 : ... .. . ... ... ... : ... .. . ... ... ... : ... .. . ... : ... .. . ... : ... .. . ... ... : ... .. 6 ... ... : ... .. 4 ... ... : ... .. 6 ... ...
ROW 43 : ... .. . ... ... ... : ... .. . ... ... ... : ... .. . ... : ... .. A ... : ... .. . ... ... : ... .. 4 ... ... : ... .. 3 ... ... : ... .. . ... ...
ROW 44 : ... .. . ... ... ... : ... .. . ... ... ... : ... .. . ... : ... .. 8 ... : ... .. . ... ... : ... .. . ... ... : ... .. . ... ... : ... .. 3 ... ...
ROW 45 : ... .. . ... ... ... : ... .. . ... ... ... : --- .. . ... : ... .. 7 ... : ... .. . ... ... : ... .. 2 ... ... : ... .. 1 ... ... : ... .. . ... ...
ROW 46 : ... .. 7 ... V02 ... : F-4 00 F ... ... ... : F#2 00 . ... : 7-# 00 D ... : ... .. . ... ... : ... .. 8 ... ... : ... .. 6 ... ... : ... .. C ... ...
ROW 47 : ... .. . ... ... ... : ... .. . ... ... ... : ... .. . ... : ... .. B ... : ... .. . ... ... : ... .. 7 ... ... : ... .. 5 ... ... : ... .. A ... ...
ROW 48 : ... .. . ... ... ... : ... .. . ... ... ... : ... .. . ... : ... .. . ... : ... .. . ... ... : ... .. 6 ... ... : ... .. 4 ... ... : ... .. 6 ... ...
ROW 49 : ... .. . ... ... ... : ... .. . ... ... ... : ... .. . ... : ... .. A ... : ... .. . ... ... : ... .. 4 ... ... : ... .. 3 ... ... : ... .. . ... ...
ROW 4A : ... .. . ... ... ... : ... .. . ... ... ... : ... .. . ... : ... .. 8 ... : ... .. . ... ... : ... .. . ... ... : ... .. . ... ... : ... .. 3 ... ...
ROW 4B : ... .. . ... ... ... : ... .. . ... ... ... : --- .. . ... : ... .. 7 ... : ... .. . ... ... : ... .. 2 ... ... : ... .. 1 ... ... : ... .. . ... ...
ROW 4C : ... .. . ... V00 ... : A#4 00 F ... ... ... : G#2 00 . ... : 5-# 00 D ... : ... .. . ... ... : ... .. 8 ... ... : ... .. 6 ... ... : ... .. C ... ...
ROW 4D : ... .. . ... ... ... : ... .. . ... ... ... : ... .. . ... : ... .. B ... : ... .. . ... ... : ... .. 7 ... ... : ... .. 5 ... ... : ... .. A ... ...
ROW 4E : ... .. . ... ... ... : ... .. . ... ... ... : ... .. . ... : ... .. . ... : ... .. . ... ... : ... .. 6 ... ... : ... .. 4 ... ... : ... .. 6 ... ...
ROW 4F : ... .. 6 ... ... ... : ... .. 8 ... ... ... : ... .. . ... : ... .. A ... : ... .. . ... ... : ... .. 4 ... ... : ... .. 3 ... ... : ... .. . ... ...
ROW 50 : ... .. . ... ... ... : ... .. . ... ... ... : ... .. . ... : ... .. 8 ... : ... .. . ... ... : ... .. . ... ... : ... .. . ... ... : ... .. 3 ... ...
ROW 51 : ... .. . ... ... ... : ... .. . ... ... ... : --- .. . ... : ... .. 7 ... : ... .. . ... ... : ... .. 2 ... ... : ... .. 1 ... ... : ... .. . ... ...
ROW 52 : ... .. . ... V01 ... : D#5 00 F ... ... ... : D#2 00 . ... : 4-# 00 D ... : ... .. . ... ... : ... .. 8 ... ... : ... .. 6 ... ... : ... .. C ... ...
ROW 53 : ... .. . ... ... ... : ... .. . ... ... ... : ... .. . ... : ... .. B ... : ... .. . ... ... : ... .. 7 ... ... : ... .. 5 ... ... : ... .. A ... ...
ROW 54 : ... .. . ... ... ... : ... .. . ... ... ... : ... .. . ... : ... .. . ... : ... .. . ... ... : ... .. 6 ... ... : ... .. 4 ... ... : ... .. 6 ... ...
ROW 55 : ... .. . ... ... ... : ... .. 8 ... ... ... : ... .. . ... : ... .. A ... : ... .. . ... ... : ... .. 4 ... ... : ... .. 3 ... ... : ... .. . ... ...
ROW 56 : ... .. . ... ... ... : ... .. . ... ... ... : ... .. . ... : ... .. 8 ... : ... .. . ... ... : ... .. . ... ... : ... .. . ... ... : ... .. 3 ... ...
ROW 57 : ... .. . ... ... ... : ... .. . ... ... ... : --- .. . ... : ... .. 7 ... : ... .. . ... ... : ... .. 2 ... ... : ... .. 1 ... ... : ... .. . ... ...
ROW 58 : C-3 00 A ... ... ... : C-5 00 F ... ... ... : E-5 00 . ... : B-# 00 D ... : ... .. . ... ... : F-3 01 5 ... ... : A#3 01 8 ... ... : C-4 01 F ... ...
ROW 59 : ... .. 9 ... ... ... : ... .. . ... ... ... : F#4 00 . ... : ... .. B ... : ... .. . ... ... : ... .. 4 ... ... : ... .. 7 ... ... : ... .. D ... ...
ROW 5A : ... .. 8 ... ... ... : ... .. . ... ... ... : B-3 00 . ... : ... .. . ... : ... .. . ... ... : ... .. . ... ... : ... .. 6 ... ... : ... .. 8 ... ...
ROW 5B : ... .. 6 ... ... ... : ... .. . ... ... ... : A#3 00 . ... : ... .. A ... : ... .. . ... ... : ... .. 3 ... ... : ... .. 5 ... ... : ... .. . ... ...
ROW 5C : ... .. . ... ... ... : ... .. . ... ... ... : F-3 00 . ... : ... .. 8 ... : ... .. . ... ... : ... .. . ... ... : ... .. . ... ... : ... .. . ... ...
ROW 5D : ... .. . ... ... ... : ... .. . ... ... ... : ... .. . ... : ... .. 7 ... : ... .. . ... ... : ... .. . ... ... : ... .. 4 ... ... : ... .. . ... ...
ROW 5E : ... .. . ... V02 ... : A#4 00 F ... ... ... : ... .. . ... : ... .. 6 ... : ... .. . ... ... : ... .. . ... ... : ... .. . ... ... : ... .. . ... ...
ROW 5F : ... .. . ... ... ... : ... .. . ... ... ... : ... .. . ... : ... .. . ... : ... .. . ... ... : ... .. 2 ... ... : ... .. . ... ... : ... .. . ... ...
ROW 60 : ... .. . ... ... ... : ... .. . ... ... ... : ... .. . ... : ... .. 5 ... : ... .. . ... ... : ... .. . ... ... : ... .. . ... ... : ... .. . ... ...
ROW 61 : ... .. . ... ... ... : ... .. 8 ... ... ... : ... .. . ... : ... .. . ... : ... .. . ... ... : ... .. . ... ... : ... .. . ... ... : ... .. . ... ...
ROW 62 : ... .. . ... ... ... : ... .. . ... ... ... : ... .. . ... : ... .. 4 ... : ... .. . ... ... : ... .. . ... ... : ... .. . ... ... : ... .. . ... ...
ROW 63 : ... .. . ... ... ... : ... .. . ... ... ... : ... .. . ... : ... .. . ... : ... .. . ... ... : ... .. . ... ... : ... .. . ... ... : ... .. . ... ...
ROW 64 : ... .. . ... V00 ... : ... .. . ... ... ... : ... .. . ... : 1-# 00 F ... : ... .. . ... ... : ... .. . ... ... : ... .. . ... ... : ... .. . ... ...
ROW 65 : ... .. . ... ... ... : B-4 00 8 P82 ... ... : ... .. . ... : ... .. C ... : ... .. . ... ... : ... .. . ... ... : ... .. . ... ... : ... .. . ... ...
ROW 66 : ... .. . ... ... ... : C#5 00 8 P7F ... ... : ... .. . ... : ... .. 6 ... : ... .. . ... ... : ... .. . ... ... : ... .. . ... ... : ... .. . ... ...
ROW 67 : ... .. . ... ... ... : D-5 00 8 P82 ... ... : ... .. . ... : ... .. 3 ... : ... .. . ... ... : ... .. 3 ... ... : ... .. . ... ... : ... .. . ... ...
ROW 68 : ... .. . ... ... ... : D#5 00 8 P80 ... ... : ... .. . ... : ... .. 2 ... : ... .. . ... ... : ... .. . ... ... : ... .. . ... ... : ... .. . ... ...
ROW 69 : ... .. . ... ... ... : ... .. . ... ... ... : ... .. . ... : ... .. 0 ... : ... .. . ... ... : ... .. . ... ... : ... .. . ... ... : ... .. . ... ...
ROW 6A : ... .. . ... V01 ... : ... .. 9 ... ... ... : ... .. . ... : ... .. F ... : ... .. . ... ... : ... .. . ... ... : ... .. . ... ... : ... .. . ... ...
ROW 6B : ... .. . ... ... ... : ... .. . ... ... ... : ... .. . ... : ... .. C ... : ... .. . ... ... : ... .. . ... ... : ... .. . ... ... : ... .. . ... ...
ROW 6C : ... .. . ... ... ... : ... .. . ... ... ... : ... .. . ... : ... .. 6 ... : ... .. . ... ... : ... .. . ... ... : ... .. . ... ... : ... .. . ... ...
ROW 6D : ... .. 7 ... ... ... : ... .. A ... ... ... : ... .. . ... : ... .. 3 ... : ... .. . ... ... : ... .. . ... ... : ... .. . ... ... : ... .. . ... ...
ROW 6E : ... .. . ... ... ... : ... .. . ... ... ... : ... .. . ... : ... .. 2 ... : ... .. . ... ... : ... .. . ... ... : ... .. . ... ... : ... .. . ... ...
ROW 6F : ... .. . ... ... ... : ... .. . ... ... ... : ... .. . ... : ... .. 0 ... : ... .. . ... ... : ... .. . ... ... : ... .. . ... ... : ... .. . ... ...
ROW 70 : ... .. . ... V02 ... : ... .. B ... ... ... : D#3 00 . P88 : B-# 00 D ... : ... .. . ... ... : ... .. . ... ... : ... .. . ... ... : ... .. . ... ...
ROW 71 : ... .. . ... ... ... : ... .. . ... ... ... : D-3 00 . P7D : ... .. B ... : ... .. . ... ... : ... .. . ... ... : ... .. . ... ... : ... .. . ... ...
ROW 72 : ... .. . ... ... ... : ... .. . ... ... ... : C-3 00 . P8C : ... .. . ... : ... .. . ... ... : ... .. . ... ... : ... .. . ... ... : ... .. . ... ...
ROW 73 : ... .. . ... ... ... : ... .. . ... ... ... : B-2 00 . P85 : ... .. A ... : ... .. . ... ... : ... .. . ... ... : ... .. . ... ... : ... .. . ... ...
ROW 74 : ... .. . ... ... ... : ... .. . ... ... ... : A#2 00 . P80 : ... .. 8 ... : ... .. . ... ... : ... .. . ... ... : ... .. . ... ... : ... .. . ... ...
ROW 75 : ... .. . ... ... ... : ... .. . ... ... ... : A-2 00 . P7C : ... .. 7 ... : ... .. . ... ... : ... .. . ... ... : ... .. . ... ... : ... .. . ... ...
ROW 76 : ... .. . ... V03 ... : E-5 00 C P7F ... ... : G#2 00 . P7B : ... .. 6 ... : ... .. . ... ... : ... .. . ... ... : ... .. . ... ... : ... .. . ... ...
ROW 77 : ... .. . ... ... ... : ... .. . P81 ... ... : G-2 00 . ... : ... .. . ... : ... .. . ... ... : ... .. . ... ... : ... .. . ... ... : ... .. 4 ... ...
ROW 78 : ... .. . ... ... ... : ... .. . P80 ... ... : F#2 00 . P7D : ... .. 5 ... : ... .. . ... ... : ... .. . ... ... : ... .. 2 ... ... : ... .. . ... ...
ROW 79 : ... .. . ... ... ... : D#5 00 D P82 ... ... : F-2 00 . P81 : ... .. . ... : ... .. . ... ... : ... .. . ... ... : ... .. . ... ... : ... .. 1 ... ...
ROW 7A : ... .. . ... ... ... : ... .. . P7E ... ... : E-2 00 . P87 : ... .. 4 ... : ... .. . ... ... : ... .. . ... ... : ... .. . ... ... : ... .. . ... ...
ROW 7B : ... .. . ... ... ... : D-5 00 D P80 ... ... : D#2 00 . P8F : ... .. . ... : ... .. . ... ... : ... .. . ... ... : ... .. . ... ... : ... .. . ... ...
ROW 7C : C#3 00 B ... V02 ... : ... .. E P7F ... ... : E-4 00 . P80 : 1-# 00 F ... : ... .. . ... ... : F#3 01 6 ... ... : B-3 01 8 ... ... : C#4 01 F ... ...
ROW 7D : ... .. A ... ... ... : ... .. . P81 ... ... : F#3 00 . ... : ... .. C ... : ... .. . ... ... : ... .. . ... ... : ... .. 7 ... ... : ... .. D ... ...
ROW 7E : ... .. 9 ... ... ... : D#5 00 E P80 ... ... : B-2 00 . ... : ... .. 6 ... : ... .. . ... ... : ... .. 5 ... ... : ... .. 6 ... ... : ... .. 8 ... ...
ROW 7F : ... .. 8 ... ... ... : E-5 00 F P7E ... ... : A#2 00 . ... : ... .. 3 ... : ... .. . ... ... : ... .. 4 ... ... : ... .. 5 ... ... : ... .. . ... ...
ROW 80 : ... .. . ... ... ... : ... .. . P81 ... ... : F-2 00 . ... : ... .. 2 ... : ... .. . ... ... : ... .. . ... ... : ... .. . ... ... : ... .. . ... ...
ROW 81 : ... .. . ... ... ... : ... .. . ... ... ... : ... .. . ... : ... .. 0 ... : ... .. . ... ... : ... .. . ... ... : ... .. 4 ... ... : ... .. . ... ...
ROW 82 : ... .. . ... V00 ... : D#5 00 F P82 ... ... : ... .. . ... : ... .. F ... : ... .. . ... ... : ... .. . ... ... : ... .. . ... ... : ... .. . ... ...
ROW 83 : ... .. . ... ... ... : ... .. . P7F ... ... : ... .. . ... : ... .. C ... : ... .. . ... ... : ... .. 3 ... ... : ... .. . ... ... : ... .. . ... ...
ROW 84 : ... .. . ... ... ... : D-5 00 F P80 ... ... : ... .. . ... : ... .. 6 ... : ... .. . ... ... : ... .. . ... ... : ... .. . ... ... : ... .. . ... ...
ROW 85 : ... .. . ... ... ... : ... .. . P7F ... ... : ... .. . ... : ... .. 3 ... : ... .. . ... ... : ... .. . ... ... : ... .. . ... ... : ... .. . ... ...
ROW 86 : ... .. . ... ... ... : ... .. . P81 ... ... : ... .. . ... : ... .. 2 ... : ... .. . ... ... : ... .. . ... ... : ... .. . ... ... : ... .. . ... ...
ROW 87 : ... .. . ... ... ... : D#5 00 F P80 ... ... : ... .. . ... : ... .. 0 ... : ... .. . ... ... : ... .. . ... ... : ... .. . ... ... : ... .. . ... ...
ROW 88 : ... .. . ... V03 ... : E-5 00 F P7E ... ... : E-2 00 . P76 : B-# 00 D ... : ... .. . ... ... : ... .. . ... ... : ... .. . ... ... : ... .. . ... ...
ROW 89 : ... .. . ... ... ... : ... .. . P81 ... ... : D#2 00 . P6E : ... .. B ... : ... .. . ... ... : ... .. . ... ... : ... .. . ... ... : ... .. . ... ...
ROW 8A : ... .. . ... ... ... : ... .. . ... ... ... : C#2 00 . P96 : ... .. . ... : ... .. . ... ... : ... .. . ... ... : ... .. . ... ... : ... .. . ... ...
ROW 8B : ... .. . ... ... ... : ... .. . P7E ... ... : C-2 00 . ... : ... .. A ... : ... .. . ... ... : ... .. . ... ... : ... .. . ... ... : ... .. . ... ...
ROW 8C : ... .. . ... ... ... : D#5 00 F P80 ... ... : B-1 00 . P99 : ... .. 8 ... : ... .. . ... ... : ... .. . ... ... : ... .. . ... ... : ... .. . ... ...
ROW 8D : ... .. . ... ... ... : D-5 00 F P81 ... ... : ... .. . P69 : ... .. 7 ... : ... .. . ... ... : ... .. . ... ... : ... .. . ... ... : ... .. . ... ...
ROW 8E : ... .. . ... V02 ... : C#5 00 F P80 ... ... : A#1 00 . P6F : ... .. 6 ... : ... .. . ... ... : ... .. . ... ... : ... .. . ... ... : ... .. . ... ...
ROW 8F : ... .. . ... ... ... : ... .. . ... ... ... : A-1 00 . P78 : ... .. . ... : ... .. . ... ... : ... .. . ... ... : ... .. . ... ... : ... .. . ... ...
ROW 90 : ... .. . ... ... ... : ... .. . ... ... ... : G#1 00 . P84 : ... .. 5 ... : ... .. . ... ... : ... .. . ... ... : ... .. . ... ... : ... .. . ... ...
ROW 91 : ... .. . ... ... ... : ... .. . ... ... ... : G-1 00 . P94 : ... .. . ... : ... .. . ... ... : ... .. 4 ... ... : ... .. . ... ... : ... .. . ... ...
ROW 92 : ... .. . ... ... ... : ... .. . ... ... ... : ... .. . P64 : ... .. 4 ... : ... .. . ... ... : ... .. . ... ... : ... .. . ... ... : ... .. . ... ...
ROW 93 : ... .. . ... ... ... : ... .. . ... ... ... : F#1 00 . P78 : ... .. . ... : ... .. . ... ... : ... .. . ... ... : ... .. . ... ... : ... .. . ... ...
ROW 94 : ... .. . ... V00 ... : C-5 00 F ... ... ... : D#2 00 . P80 : 1-# 00 F ... : ... .. . ... ... : ... .. . ... ... : ... .. . ... ... : ... .. . ... ...
ROW 95 : ... .. . ... ... ... : ... .. . ... ... ... : ... .. . ... : ... .. C ... : ... .. . ... ... : ... .. . ... ... : ... .. . ... ... : ... .. . ... ...
ROW 96 : ... .. . ... ... ... : ... .. . ... ... ... : ... .. . ... : ... .. 6 ... : ... .. . ... ... : ... .. . ... ... : ... .. . ... ... : ... .. . ... ...
ROW 97 : ... .. . ... ... ... : ... .. . ... ... ... : ... .. . ... : ... .. 3 ... : ... .. . ... ... : ... .. . ... ... : ... .. . ... ... : ... .. . ... ...
ROW 98 : ... .. . ... ... ... : ... .. . ... ... ... : ... .. . ... : ... .. 2 ... : ... .. . ... ... : ... .. . ... ... : ... .. . ... ... : ... .. . ... ...
ROW 99 : ... .. . ... ... ... : ... .. . ... ... ... : --- .. . ... : ... .. 0 ... : ... .. . ... ... : ... .. . ... ... : ... .. . ... ... : ... .. . ... ...
ROW 9A : ... .. . ... V02 ... : A#4 00 F ... ... ... : C-2 00 . ... : ... .. F ... : ... .. . ... ... : ... .. . ... ... : ... .. . ... ... : ... .. . ... ...
ROW 9B : ... .. . ... ... ... : ... .. . ... ... ... : ... .. . ... : ... .. C ... : ... .. . ... ... : ... .. . ... ... : ... .. . ... ... : ... .. . ... ...
ROW 9C : ... .. . ... ... ... : ... .. . ... ... ... : ... .. . ... : ... .. 6 ... : ... .. . ... ... : ... .. . ... ... : ... .. . ... ... : ... .. . ... ...
ROW 9D : ... .. . ... ... ... : ... .. . ... ... ... : ... .. . ... : ... .. 3 ... : ... .. . ... ... : ... .. . ... ... : ... .. . P84 ... : ... .. . P83 ...
ROW 9E : ... .. . ... ... ... : ... .. . ... ... ... : ... .. . ... : ... .. 2 ... : ... .. . ... ... : ... .. . ... ... : ... .. . P86 ... : ... .. . P85 ...
ROW 9F : ... .. . ... ... ... : ... .. . ... ... ... : --- .. . ... : ... .. 0 ... : ... .. . ... ... : ... .. . ... ... : ... .. . P85 ... : ... .. . P84 ...
ROW A0 : ... .. . ... V01 ... : D#4 00 F ... ... ... : A#2 00 . ... : B-# 00 D ... : ... .. . ... ... : ... .. . ... ... : ... .. . P82 ... : ... .. . P81 ...
ROW A1 : ... .. . ... ... ... : ... .. . ... ... ... : ... .. . ... : ... .. B ... : ... .. . ... ... : ... .. . ... ... : ... .. . P7E ... : ... .. . P7D ...
ROW A2 : ... .. . ... ... ... : ... .. . ... ... ... : ... .. . ... : ... .. . ... : ... .. . ... ... : ... .. . ... ... : ... .. . P7B ... : ... .. . P7A ...
ROW A3 : ... .. . ... ... ... : ... .. . ... ... ... : ... .. . ... : ... .. A ... : ... .. . ... ... : ... .. . ... ... : ... .. . P7A ... : C-4 01 8 P86 ...
ROW A4 : ... .. . ... ... ... : ... .. . ... ... ... : ... .. . ... : ... .. 8 ... : ... .. . ... ... : ... .. . ... ... : ... .. . P7C ... : C#4 01 8 P7B ...
ROW A5 : ... .. . ... ... ... : ... .. . ... ... ... : --- .. . ... : ... .. 7 ... : ... .. . ... ... : ... .. . ... ... : ... .. . P80 ... : ... .. . P7F ...
ROW A6 : ... .. 9 ... V02 ... : F-4 00 F ... ... ... : C-3 00 . ... : ... .. 6 ... : ... .. . ... ... : ... .. . ... ... : ... .. . P83 ... : ... .. . P82 ...
ROW A7 : ... .. . ... ... ... : ... .. . ... ... ... : ... .. . ... : ... .. . ... : ... .. . ... ... : ... .. . ... ... : ... .. . P86 ... : ... .. . P85 ...
ROW A8 : ... .. . ... ... ... : ... .. . ... ... ... : ... .. . ... : ... .. 5 ... : ... .. . ... ... : ... .. . ... ... : ... .. . ... ... : ... .. . ... ...
ROW A9 : ... .. . ... ... ... : ... .. . ... ... ... : ... .. . ... : ... .. . ... : ... .. . ... ... : ... .. . ... ... : ... .. . P82 ... : ... .. . P81 ...
ROW AA : ... .. . ... ... ... : ... .. . ... ... ... : ... .. . ... : ... .. 4 ... : ... .. . ... ... : ... .. . ... ... : ... .. . P7F ... : ... .. . P7E ...
ROW AB : ... .. . ... ... ... : ... .. . ... ... ... : --- .. . ... : ... .. . ... : ... .. . ... ... : ... .. . ... ... : ... .. . P7B ... : ... .. . P7A ...
ROW AC : ... .. . ... V00 ... : F#4 00 F ... ... ... : D#3 00 . ... : 1-# 00 F ... : ... .. . ... ... : ... .. . ... ... : ... .. . P7A ... : C-4 01 8 P86 ...
ROW AD : ... .. . ... ... ... : ... .. . ... ... ... : ... .. . ... : ... .. C ... : ... .. . ... ... : ... .. . ... ... : ... .. . P7C ... : C#4 01 4 P7B ...
ROW AE : ... .. . ... ... ... : ... .. . ... ... ... : ... .. . ... : ... .. 6 ... : ... .. . ... ... : ... .. . ... ... : ... .. 2 P80 ... : ... .. . P7F ...
ROW AF : ... .. . ... ... ... : ... .. . ... ... ... : ... .. . ... : ... .. 3 ... : ... .. . ... ... : ... .. . ... ... : ... .. . P83 ... : ... .. 1 P82 ...
ROW B0 : ... .. . ... ... ... : ... .. . ... ... ... : ... .. . ... : ... .. 2 ... : ... .. . ... ... : ... .. . ... ... : ... .. . P86 ... : ... .. . P85 ...
ROW B1 : ... .. . ... ... ... : ... .. . ... ... ... : --- .. . ... : ... .. 0 ... : ... .. . ... ... : ... .. . ... ... : ... .. . ... ... : ... .. . ... ...
ROW B2 : ... .. . ... V01 ... : C-4 00 F ... ... ... : F-3 00 . ... : ... .. F ... : ... .. . ... ... : ... .. . ... ... : ... .. . P83 ... : ... .. . P82 ...
ROW B3 : ... .. . ... ... ... : ... .. . ... ... ... : ... .. . ... : ... .. C ... : ... .. . ... ... : ... .. . ... ... : ... .. . P80 ... : ... .. . P7F ...
ROW B4 : ... .. . ... ... ... : ... .. . ... ... ... : ... .. . ... : ... .. 6 ... : ... .. . ... ... : ... .. . ... ... : ... .. . P7C ... : ... .. . P7B ...
ROW B5 : ... .. . ... ... ... : ... .. . ... ... ... : ... .. . ... : ... .. 3 ... : ... .. . ... ... : ... .. . ... ... : ... .. . P7A ... : C-4 01 1 P86 ...
ROW B6 : ... .. . ... ... ... : ... .. . ... ... ... : ... .. . ... : ... .. 2 ... : ... .. . ... ... : ... .. . ... ... : ... .. . P7B ... : C#4 01 0 P7A ...
ROW B7 : ... .. . ... ... ... : ... .. . ... ... ... : --- .. . ... : ... .. 0 ... : ... .. . ... ... : ... .. . ... ... : ... .. . P7F ... : ... .. . P7E ...
ROW B8 : D#3 00 A ... ... ... : C#4 00 F ... ... ... : E-6 00 . ... : B-# 00 D ... : ... .. . ... ... : G#3 01 A ... ... : C#4 01 8 P80 ... : D#4 01 C P7F ...
ROW B9 : ... .. 9 ... ... ... : ... .. . ... ... ... : F#5 00 . ... : ... .. B ... : ... .. . ... ... : ... .. 9 ... ... : ... .. 7 ... ... : ... .. A ... ...
ROW BA : ... .. 8 ... ... ... : ... .. . ... ... ... : B-4 00 . ... : ... .. . ... : ... .. . ... ... : ... .. 8 ... ... : ... .. 6 ... ... : ... .. 6 ... ...
ROW BB : ... .. 6 ... ... ... : ... .. . ... ... ... : A#4 00 . ... : ... .. A ... : ... .. . ... ... : ... .. 7 ... ... : ... .. 5 ... ... : ... .. . ... ...
ROW BC : ... .. . ... ... ... : ... .. . ... ... ... : F-4 00 . ... : ... .. 8 ... : ... .. . ... ... : ... .. . ... ... : ... .. . ... ... : ... .. . ... ...
ROW BD : ... .. . ... ... ... : ... .. . ... ... ... : ... .. . ... : ... .. 7 ... : ... .. . ... ... : ... .. 6 ... ... : ... .. 4 ... ... : ... .. . ... ...
ROW BE : ... .. . ... V02 ... : D#4 00 F ... ... ... : ... .. . ... : ... .. 6 ... : ... .. . ... ... : ... .. . ... ... : ... .. . ... ... : ... .. . ... ...
ROW BF : ... .. . ... ... ... : ... .. . ... ... ... : ... .. . ... : ... .. . ... : ... .. . ... ... : ... .. 5 ... ... : ... .. . ... ... : ... .. . ... ...
ROW C0 : ... .. . ... ... ... : ... .. . ... ... ... : ... .. . ... : ... .. 5 ... : ... .. . ... ... : ... .. . ... ... : ... .. . ... ... : ... .. . ... ...
ROW C1 : ... .. . ... ... ... : ... .. . ... ... ... : ... .. . ... : ... .. . ... : ... .. . ... ... : ... .. . ... ... : ... .. . ... ... : ... .. . ... ...
ROW C2 : ... .. . ... ... ... : ... .. . ... ... ... : ... .. . ... : ... .. 4 ... : ... .. . ... ... : ... .. . ... ... : ... .. . ... ... : ... .. . ... ...
ROW C3 : ... .. . ... ... ... : ... .. . ... ... ... : ... .. . ... : ... .. . ... : ... .. . ... ... : ... .. . ... ... : ... .. . ... ... : ... .. . ... ...
ROW C4 : ... .. . ... V00 ... : G#3 00 F ... ... ... : ... .. . ... : 1-# 00 F ... : ... .. . ... ... : ... .. . ... ... : ... .. . ... ... : ... .. . ... ...
ROW C5 : ... .. . ... ... ... : ... .. . ... ... ... : ... .. . ... : ... .. C ... : ... .. . ... ... : ... .. . ... ... : ... .. . ... ... : ... .. . ... ...
ROW C6 : ... .. . ... ... ... : ... .. . ... ... ... : ... .. . ... : ... .. 6 ... : ... .. . ... ... : ... .. . ... ... : ... .. . ... ... : ... .. . ... ...
ROW C7 : ... .. . ... ... ... : ... .. . ... ... ... : ... .. . ... : ... .. 3 ... : ... .. . ... ... : ... .. . ... ... : ... .. . ... ... : ... .. . ... ...
ROW C8 : ... .. . ... ... ... : ... .. . ... ... ... : ... .. . ... : ... .. 2 ... : ... .. . ... ... : ... .. . ... ... : ... .. . ... ... : ... .. . ... ...
ROW C9 : ... .. . ... ... ... : ... .. . ... ... ... : ... .. . ... : ... .. 0 ... : ... .. . ... ... : ... .. . ... ... : ... .. . ... ... : ... .. . ... ...
ROW CA : ... .. . ... V01 ... : A#3 00 F ... ... ... : ... .. . ... : ... .. F ... : ... .. . ... ... : ... .. . ... ... : ... .. . ... ... : ... .. . ... ...
ROW CB : ... .. . ... ... ... : ... .. . ... ... ... : ... .. . ... : ... .. C ... : ... .. . ... ... : ... .. . ... ... : ... .. . ... ... : ... .. . ... ...
ROW CC : ... .. . ... ... ... : ... .. . ... ... ... : ... .. . ... : ... .. 6 ... : ... .. . ... ... : ... .. . ... ... : ... .. . ... ... : ... .. . ... ...
ROW CD : ... .. 7 ... ... ... : ... .. . ... ... ... : ... .. . ... : ... .. 3 ... : ... .. . ... ... : ... .. . ... ... : ... .. . ... ... : ... .. . ... ...
ROW CE : ... .. . ... ... ... : ... .. . ... ... ... : ... .. . ... : ... .. 2 ... : ... .. . ... ... : ... .. . ... ... : ... .. . ... ... : ... .. . ... ...
ROW CF : ... .. . ... ... ... : ... .. . ... ... ... : ... .. . ... : ... .. 0 ... : ... .. . ... ... : ... .. . ... ... : ... .. . ... ... : ... .. . ... ...
ROW D0 : ... .. . ... V02 ... : C-4 00 F ... ... ... : C-4 00 . P86 : B-# 00 D ... : ... .. . ... ... : ... .. . ... ... : ... .. . ... ... : ... .. . ... ...
ROW D1 : ... .. . ... ... ... : ... .. . ... ... ... : A-3 00 . P7E : ... .. B ... : ... .. . ... ... : ... .. . ... ... : ... .. . ... ... : ... .. . ... ...
ROW D2 : ... .. . ... ... ... : ... .. . ... ... ... : F#3 00 . ... : ... .. . ... : ... .. . ... ... : ... .. . ... ... : ... .. . ... ... : ... .. . ... ...
ROW D3 : ... .. . ... ... ... : ... .. . ... ... ... : D#3 00 . P88 : ... .. A ... : ... .. . ... ... : ... .. . ... ... : ... .. . ... ... : ... .. . ... ...
ROW D4 : ... .. . ... ... ... : ... .. . ... ... ... : C#3 00 . P84 : ... .. 8 ... : ... .. . ... ... : ... .. . ... ... : ... .. . ... ... : ... .. . ... ...
ROW D5 : ... .. . ... ... ... : ... .. . ... ... ... : B-2 00 . P85 : ... .. 7 ... : ... .. . ... ... : ... .. . ... ... : ... .. . ... ... : ... .. . ... ...
ROW D6 : ... .. . ... V03 ... : ... .. . ... ... ... : A-2 00 . P8C : ... .. 6 ... : ... .. . ... ... : ... .. . ... ... : ... .. . ... ... : ... .. . ... ...
ROW D7 : ... .. . ... ... ... : ... .. . ... ... ... : G#2 00 . P7B : ... .. . ... : ... .. . ... ... : ... .. . ... ... : ... .. . ... ... : ... .. 3 ... ...
ROW D8 : ... .. . ... ... ... : ... .. . ... ... ... : F#2 00 . P8D : ... .. 5 ... : ... .. . ... ... : ... .. . ... ... : ... .. 2 ... ... : ... .. . ... ...
ROW D9 : ... .. . ... ... ... : ... .. . ... ... ... : F-2 00 . P81 : ... .. . ... : ... .. . ... ... : ... .. . ... ... : ... .. . ... ... : ... .. 1 ... ...
ROW DA : ... .. . ... ... ... : ... .. . ... ... ... : E-2 00 . P77 : ... .. 4 ... : ... .. . ... ... : ... .. . ... ... : ... .. . ... ... : ... .. . ... ...
ROW DB : ... .. . ... ... ... : ... .. . ... ... ... : D#2 00 . P6F : ... .. . ... : ... .. . ... ... : ... .. . ... ... : ... .. . ... ... : ... .. . ... ...
ROW DC : F-3 00 B ... V02 ... : C#4 00 F P7E ... ... : E-5 00 . P80 : 1-# 00 F ... : ... .. . ... ... : A#3 01 A ... ... : D#4 01 8 ... ... : F-4 01 C ... ...
ROW DD : ... .. A ... ... ... : ... .. . P84 ... ... : F#4 00 . ... : ... .. C ... : ... .. . ... ... : ... .. 9 ... ... : ... .. 7 ... ... : ... .. A ... ...
ROW DE : ... .. 9 ... ... ... : ... .. . P82 ... ... : B-3 00 . ... : ... .. 6 ... : ... .. . ... ... : ... .. 8 ... ... : ... .. 6 ... ... : ... .. 6 ... ...
ROW DF : ... .. 8 ... ... ... : C-4 00 F P84 ... ... : A#3 00 . ... : ... .. 3 ... : ... .. . ... ... : ... .. 7 ... ... : ... .. 5 ... ... : ... .. . ... ...
ROW E0 : ... .. . ... ... ... : ... .. . P7C ... ... : F-3 00 . ... : ... .. 2 ... : ... .. . ... ... : ... .. . ... ... : ... .. . ... ... : ... .. . ... ...
ROW E1 : ... .. . ... ... ... : B-3 00 F P7E ... ... : ... .. . ... : ... .. 0 ... : ... .. . ... ... : ... .. 6 ... ... : ... .. 4 ... ... : ... .. . ... ...
ROW E2 : ... .. . ... V00 ... : ... .. . P7C ... ... : ... .. . ... : ... .. F ... : ... .. . ... ... : ... .. . ... ... : ... .. . ... ... : ... .. . ... ...
ROW E3 : ... .. . ... ... ... : ... .. . P82 ... ... : ... .. . ... : ... .. C ... : ... .. . ... ... : ... .. 5 ... ... : ... .. . ... ... : ... .. . ... ...
ROW E4 : ... .. . ... ... ... : C-4 00 F P80 ... ... : ... .. . ... : ... .. 6 ... : ... .. . ... ... : ... .. . ... ... : ... .. . ... ... : ... .. . ... ...
ROW E5 : ... .. . ... ... ... : C#4 00 F P7D ... ... : ... .. . ... : ... .. 3 ... : ... .. . ... ... : ... .. . ... ... : ... .. . ... ... : ... .. . ... ...
ROW E6 : ... .. . ... ... ... : ... .. . P84 ... ... : ... .. . ... : ... .. 2 ... : ... .. . ... ... : ... .. . ... ... : ... .. . ... ... : ... .. . ... ...
ROW E7 : ... .. . ... ... ... : ... .. . P82 ... ... : ... .. . ... : ... .. 0 ... : ... .. . ... ... : ... .. . ... ... : ... .. . ... ... : ... .. . ... ...
ROW E8 : ... .. . ... V03 ... : C-4 00 F P86 ... ... : ... .. . ... : B-# 00 D ... : ... .. . ... ... : ... .. . ... ... : ... .. . ... ... : ... .. . ... ...
ROW E9 : ... .. . ... ... ... : ... .. . P7D ... ... : ... .. . ... : ... .. B ... : ... .. . ... ... : ... .. . ... ... : ... .. . ... ... : ... .. . ... ...
ROW EA : ... .. . ... ... ... : B-3 00 F P7F ... ... : ... .. . ... : ... .. . ... : ... .. . ... ... : ... .. . ... ... : ... .. . ... ... : ... .. . ... ...
ROW EB : ... .. . ... ... ... : ... .. . P7C ... ... : ... .. . ... : ... .. A ... : ... .. . ... ... : ... .. . ... ... : ... .. . ... ... : ... .. . ... ...
ROW EC : ... .. . ... ... ... : ... .. . P80 ... ... : ... .. . ... : ... .. 8 ... : ... .. . ... ... : ... .. . ... ... : ... .. . ... ... : ... .. . ... ...
ROW ED : ... .. . ... ... ... : C-4 00 F P7F ... ... : ... .. . ... : ... .. 7 ... : ... .. . ... ... : ... .. . ... ... : ... .. . ... ... : ... .. . ... ...
ROW EE : ... .. . ... V02 ... : C#4 00 F P7C ... ... : D#3 00 . P78 : ... .. D ... : ... .. . ... ... : ... .. . ... ... : ... .. . ... ... : ... .. . ... ...
ROW EF : ... .. . ... ... ... : ... .. . P83 ... ... : C-3 00 . P8C : ... .. B ... : ... .. . ... ... : ... .. . ... ... : ... .. . ... ... : ... .. . ... ...
ROW F0 : ... .. . ... ... ... : ... .. . ... ... ... : B-2 00 . P75 : ... .. . ... : ... .. . ... ... : ... .. . ... ... : ... .. . ... ... : ... .. . ... ...
ROW F1 : ... .. . ... ... ... : ... .. . P7C ... ... : A-2 00 . P7C : ... .. A ... : ... .. . ... ... : ... .. . ... ... : ... .. . ... ... : ... .. . ... ...
ROW F2 : ... .. . ... ... ... : C-4 00 F P7F ... ... : G-2 00 . P8B : ... .. 8 ... : ... .. . ... ... : ... .. . ... ... : ... .. . ... ... : ... .. . ... ...
ROW F3 : ... .. . ... ... ... : B-3 00 F P80 ... ... : F#2 00 . P7D : ... .. 7 ... : ... .. . ... ... : ... .. . ... ... : ... .. . ... ... : ... .. . ... ...
ROW F4 : ... .. . ... V00 ... : F-3 00 F ... ... ... : D#3 00 . P80 : 1-# 00 F ... : ... .. . ... ... : ... .. . ... ... : ... .. . ... ... : ... .. . ... ...
ROW F5 : ... .. . ... ... ... : ... .. . ... ... ... : ... .. . ... : ... .. C ... : ... .. . ... ... : ... .. . ... ... : ... .. . ... ... : ... .. . ... ...
ROW F6 : ... .. . ... ... ... : ... .. . ... ... ... : ... .. . ... : ... .. 6 ... : ... .. . ... ... : ... .. . ... ... : ... .. . ... ... : ... .. . ... ...
ROW F7 : ... .. . ... ... ... : ... .. . ... ... ... : ... .. . ... : ... .. 3 ... : ... .. . ... ... : ... .. . ... ... : ... .. . ... ... : ... .. . ... ...
ROW F8 : ... .. . ... ... ... : ... .. . ... ... ... : ... .. . ... : ... .. 2 ... : ... .. . ... ... : ... .. . ... ... : ... .. . ... ... : ... .. . ... ...
ROW F9 : ... .. . ... ... ... : ... .. . ... ... ... : --- .. . ... : ... .. 0 ... : ... .. . ... ... : ... .. . ... ... : ... .. . ... ... : ... .. . ... ...
ROW FA : ... .. . ... V02 ... : ... .. . ... ... ... : C-3 00 . ... : ... .. F ... : ... .. . ... ... : ... .. . ... ... : ... .. . ... ... : ... .. . ... ...
ROW FB : ... .. . ... ... ... : ... .. . ... ... ... : ... .. . ... : ... .. C ... : ... .. . ... ... : ... .. . ... ... : ... .. . ... ... : ... .. . ... ...
ROW FC : ... .. . ... ... ... : ... .. . ... ... ... : ... .. . ... : ... .. 6 ... : ... .. . ... ... : ... .. . ... ... : ... .. . ... ... : ... .. . ... ...
ROW FD : ... .. . ... ... ... : ... .. . ... ... ... : ... .. . ... : ... .. 3 ... : ... .. . ... ... : ... .. . ... ... : ... .. . ... ... : ... .. . ... ...
ROW FE : ... .. . ... ... ... : ... .. . ... ... ... : ... .. . ... : ... .. 2 ... : ... .. . ... ... : ... .. . ... ... : ... .. . ... ... : ... .. . ... ...
ROW FF : ... .. . ... ... ... : ... .. . ... ... ... : --- .. . ... : ... .. 0 ... : ... .. . ... ... : ... .. . ... ... : ... .. . ... ... : ... .. . ... ...

PATTERN 15
ROW 00 : ... .. . ... V01 ... : A#3 00 F ... ... ... : A#3 00 . ... : 9-# 00 D ... : ... .. . ... ... : ... .. . ... ... : ... .. . ... ... : ... .. . ... ...
ROW 01 : ... .. . ... ... ... : ... .. . ... ... ... : ... .. . ... : ... .. B ... : ... .. . ... ... : ... .. . ... ... : ... .. . ... ... : ... .. . ... ...
ROW 02 : ... .. . ... ... ... : ... .. . ... ... ... : ... .. . ... : ... .. . ... : ... .. . ... ... : ... .. . ... ... : ... .. . ... ... : ... .. . ... ...
ROW 03 : ... .. . ... ... ... : ... .. . ... ... ... : ... .. . ... : ... .. A ... : ... .. . ... ... : ... .. . ... ... : ... .. . ... ... : ... .. . ... ...
ROW 04 : ... .. . ... ... ... : ... .. . ... ... ... : ... .. . ... : ... .. 8 ... : ... .. . ... ... : ... .. . ... ... : ... .. . ... ... : ... .. . ... ...
ROW 05 : ... .. . ... ... ... : ... .. . ... ... ... : --- .. . ... : ... .. 7 ... : ... .. . ... ... : ... .. . ... ... : ... .. . ... ... : ... .. . ... ...
ROW 06 : ... .. 9 ... V02 ... : ... .. . ... ... ... : C-4 00 . ... : ... .. D ... : ... .. . ... ... : ... .. . ... ... : ... .. . ... ... : ... .. . ... ...
ROW 07 : ... .. . ... ... ... : ... .. . ... ... ... : ... .. . ... : ... .. B ... : ... .. . ... ... : ... .. . ... ... : ... .. . ... ... : ... .. . ... ...
ROW 08 : ... .. . ... ... ... : ... .. . ... ... ... : ... .. . ... : ... .. . ... : ... .. . ... ... : ... .. . ... ... : ... .. . ... ... : ... .. . ... ...
ROW 09 : ... .. . ... ... ... : ... .. . ... ... ... : ... .. . ... : ... .. A ... : ... .. . ... ... : ... .. . ... ... : ... .. . ... ... : ... .. . ... ...
ROW 0A : ... .. . ... ... ... : ... .. . ... ... ... : ... .. . ... : ... .. 8 ... : ... .. . ... ... : ... .. . ... ... : ... .. . ... ... : ... .. . ... ...
ROW 0B : ... .. . ... ... ... : ... .. . ... ... ... : --- .. . ... : ... .. 7 ... : ... .. . ... ... : ... .. . ... ... : ... .. . ... ... : ... .. . ... ...
ROW 0C : ... .. . ... V00 ... : ... .. . ... ... ... : D#4 00 . ... : 1-# 00 F ... : ... .. . ... ... : ... .. . ... ... : ... .. . ... ... : ... .. . ... ...
ROW 0D : ... .. . ... ... ... : B-3 00 F P81 ... ... : ... .. . ... : ... .. C ... : ... .. . ... ... : ... .. . ... ... : ... .. . ... ... : ... .. . ... ...
ROW 0E : ... .. . ... ... ... : C-4 00 F P84 ... ... : ... .. . ... : ... .. 6 ... : ... .. . ... ... : ... .. . ... ... : ... .. . ... ... : ... .. . ... ...
ROW 0F : ... .. . ... ... ... : D-4 00 F P7B ... ... : ... .. . ... : ... .. 3 ... : ... .. . ... ... : ... .. . ... ... : ... .. . ... ... : ... .. . ... ...
ROW 10 : ... .. . ... ... ... : D#4 00 F P80 ... ... : ... .. . ... : ... .. 2 ... : ... .. . ... ... : ... .. . ... ... : ... .. . ... ... : ... .. . ... ...
ROW 11 : ... .. . ... ... ... : ... .. . ... ... ... : --- .. . ... : ... .. 0 ... : ... .. . ... ... : ... .. . ... ... : ... .. . ... ... : ... .. . ... ...
ROW 12 : ... .. . ... V01 ... : ... .. . ... ... ... : F-4 00 . ... : ... .. F ... : ... .. . ... ... : ... .. . ... ... : ... .. . ... ... : ... .. . ... ...
ROW 13 : ... .. . ... ... ... : ... .. . ... ... ... : ... .. . ... : ... .. C ... : ... .. . ... ... : ... .. . ... ... : ... .. . ... ... : ... .. 3 ... ...
ROW 14 : ... .. . ... ... ... : ... .. . ... ... ... : ... .. . ... : ... .. 6 ... : ... .. . ... ... : ... .. . ... ... : ... .. 2 ... ... : ... .. . ... ...
ROW 15 : ... .. . ... ... ... : ... .. . ... ... ... : ... .. . ... : ... .. 3 ... : ... .. . ... ... : ... .. . ... ... : ... .. . ... ... : ... .. 1 ... ...
ROW 16 : ... .. . ... ... ... : ... .. . ... ... ... : ... .. . ... : ... .. 2 ... : ... .. . ... ... : ... .. . ... ... : ... .. . ... ... : ... .. . ... ...
ROW 17 : ... .. . ... ... ... : ... .. . ... ... ... : --- .. . ... : ... .. 0 ... : ... .. . ... ... : ... .. . ... ... : ... .. . ... ... : ... .. . ... ...
ROW 18 : C#4 00 F ... ... ... : F#4 00 F ... ... ... : F-5 00 . ... : B-# 00 D ... : ... .. . ... ... : F#3 01 8 ... ... : A#3 01 8 ... ... : D#4 01 C ... ...
ROW 19 : ... .. E ... ... ... : ... .. . ... ... ... : G-4 00 . ... : ... .. B ... : ... .. . ... ... : ... .. 7 ... ... : ... .. 7 ... ... : ... .. A ... ...
ROW 1A : ... .. D ... ... ... : ... .. . ... ... ... : C-4 00 . ... : ... .. . ... : ... .. . ... ... : ... .. 6 ... ... : ... .. 6 ... ... : ... .. 6 ... ...
ROW 1B : ... .. 9 ... ... ... : ... .. . ... ... ... : B-3 00 . ... : ... .. A ... : ... .. . ... ... : ... .. 4 ... ... : ... .. 5 ... ... : ... .. . ... ...
ROW 1C : ... .. . ... ... ... : G-4 00 F P7D ... ... : F#3 00 . ... : ... .. 8 ... : ... .. . ... ... : ... .. . ... ... : ... .. . ... ... : ... .. . ... ...
ROW 1D : ... .. . ... ... ... : ... .. . P82 ... ... : ... .. . ... : ... .. 7 ... : ... .. . ... ... : ... .. 2 ... ... : ... .. 4 ... ... : ... .. . ... ...
ROW 1E : ... .. . ... V02 ... : G#4 00 F P7F ... ... : ... .. . ... : ... .. 6 ... : ... .. . ... ... : ... .. 8 ... ... : ... .. . ... ... : ... .. . ... ...
ROW 1F : ... .. . ... ... ... : ... .. . P80 ... ... : ... .. . ... : ... .. . ... : ... .. . ... ... : ... .. 7 ... ... : ... .. . ... ... : ... .. . ... ...
ROW 20 : ... .. . ... ... ... : ... .. . ... ... ... : ... .. . ... : ... .. 5 ... : ... .. . ... ... : ... .. 6 ... ... : ... .. . ... ... : ... .. . ... ...
ROW 21 : ... .. . ... ... ... : ... .. . ... ... ... : ... .. . ... : ... .. . ... : ... .. . ... ... : ... .. 5 ... ... : ... .. . ... ... : ... .. . ... ...
ROW 22 : ... .. . ... ... ... : ... .. . ... ... ... : ... .. . ... : ... .. 4 ... : ... .. . ... ... : ... .. . ... ... : ... .. . ... ... : ... .. . ... ...
ROW 23 : ... .. . ... ... ... : ... .. . ... ... ... : ... .. . ... : ... .. . ... : ... .. . ... ... : ... .. 4 ... ... : ... .. . ... ... : ... .. . ... ...
ROW 24 : ... .. . ... V00 ... : ... .. . ... ... ... : ... .. . ... : 1-# 00 F ... : ... .. . ... ... : ... .. . ... ... : ... .. . ... ... : ... .. . ... ...
ROW 25 : ... .. . ... ... ... : ... .. . ... ... ... : ... .. . ... : ... .. C ... : ... .. . ... ... : ... .. . ... ... : ... .. . ... ... : ... .. . ... ...
ROW 26 : ... .. . ... ... ... : ... .. . ... ... ... : ... .. . ... : ... .. 6 ... : ... .. . ... ... : ... .. 2 ... ... : ... .. . ... ... : ... .. . ... ...
ROW 27 : ... .. 8 ... ... ... : ... .. . ... ... ... : ... .. . ... : ... .. 3 ... : ... .. . ... ... : ... .. . ... ... : ... .. . ... ... : ... .. . ... ...
ROW 28 : ... .. . ... ... ... : ... .. . ... ... ... : ... .. . ... : ... .. 2 ... : ... .. . ... ... : ... .. . ... ... : ... .. . ... ... : ... .. . ... ...
ROW 29 : ... .. . ... ... ... : ... .. . ... ... ... : ... .. . ... : ... .. 0 ... : ... .. . ... ... : ... .. . ... ... : ... .. . ... ... : ... .. . ... ...
ROW 2A : ... .. . ... V01 ... : C#5 00 F ... ... ... : E-3 00 . P85 : ... .. F ... : ... .. . ... ... : ... .. 8 ... ... : ... .. . ... ... : ... .. . ... ...
ROW 2B : ... .. . ... ... ... : ... .. . ... ... ... : D#3 00 . P7A : ... .. C ... : ... .. . ... ... : ... .. 7 ... ... : ... .. . ... ... : ... .. . ... ...
ROW 2C : ... .. . ... ... ... : ... .. . ... ... ... : C#3 00 . P86 : ... .. 6 ... : ... .. . ... ... : ... .. 6 ... ... : ... .. . ... ... : ... .. . ... ...
ROW 2D : ... .. . ... ... ... : ... .. . ... ... ... : C-3 00 . P7E : ... .. 3 ... : ... .. . ... ... : ... .. 4 ... ... : ... .. . ... ... : ... .. . ... ...
ROW 2E : ... .. . ... ... ... : ... .. . ... ... ... : B-2 00 . P77 : ... .. 2 ... : ... .. . ... ... : ... .. . ... ... : ... .. . ... ... : ... .. . ... ...
ROW 2F : ... .. . ... ... ... : ... .. . ... ... ... : A-2 00 . P8E : ... .. 0 ... : ... .. . ... ... : ... .. 2 ... ... : ... .. . ... ... : ... .. . ... ...
ROW 30 : ... .. . ... V02 ... : ... .. . ... ... ... : G#2 00 . P8D : B-# 00 D ... : ... .. . ... ... : ... .. 8 ... ... : ... .. . ... ... : ... .. . ... ...
ROW 31 : ... .. . ... ... ... : ... .. . ... ... ... : G-2 00 . ... : ... .. B ... : ... .. . ... ... : ... .. 7 ... ... : ... .. . ... ... : ... .. . ... ...
ROW 32 : ... .. . ... ... ... : ... .. . ... ... ... : F#2 00 . P8F : ... .. . ... : ... .. . ... ... : ... .. 6 ... ... : ... .. . ... ... : ... .. . ... ...
ROW 33 : ... .. . ... ... ... : ... .. . ... ... ... : ... .. . P6F : ... .. A ... : ... .. . ... ... : ... .. 5 ... ... : ... .. . ... ... : ... .. . ... ...
ROW 34 : ... .. . ... ... ... : ... .. . ... ... ... : F-2 00 . P73 : ... .. 8 ... : ... .. . ... ... : ... .. . ... ... : ... .. . ... ... : ... .. . ... ...
ROW 35 : ... .. . ... ... ... : ... .. . ... ... ... : E-2 00 . P79 : ... .. 7 ... : ... .. . ... ... : ... .. 4 ... ... : ... .. . ... ... : ... .. . ... ...
ROW 36 : ... .. . ... V03 ... : ... .. . ... ... ... : D#2 00 . P81 : ... .. 6 ... : ... .. . ... ... : ... .. . ... ... : ... .. . ... ... : ... .. . ... ...
ROW 37 : ... .. . ... ... ... : ... .. . ... ... ... : D-2 00 . P8C : ... .. . ... : ... .. . ... ... : ... .. . ... ... : ... .. . ... ... : ... .. 3 ... ...
ROW 38 : ... .. . ... ... ... : ... .. . ... ... ... : ... .. . P6C : ... .. 5 ... : ... .. . ... ... : ... .. 2 ... ... : ... .. 2 ... ... : ... .. . ... ...
ROW 39 : ... .. . ... ... ... : ... .. . ... ... ... : C#2 00 . P79 : ... .. . ... : ... .. . ... ... : ... .. . ... ... : ... .. . ... ... : ... .. 1 ... ...
ROW 3A : ... .. . ... ... ... : ... .. . ... ... ... : C-2 00 . P89 : ... .. 4 ... : ... .. . ... ... : ... .. . ... ... : ... .. . ... ... : ... .. . ... ...
ROW 3B : ... .. . ... ... ... : ... .. . ... ... ... : ... .. . P69 : ... .. . ... : ... .. . ... ... : ... .. . ... ... : ... .. . ... ... : ... .. . ... ...
ROW 3C : C-4 00 C ... V02 ... : C-5 00 F ... ... ... : F-4 00 . P80 : 1-# 00 F ... : ... .. . ... ... : G#3 01 8 ... ... : C#4 01 8 ... ... : F-4 01 C ... ...
ROW 3D : ... .. B ... ... ... : ... .. . ... ... ... : G-3 00 . ... : ... .. C ... : ... .. . ... ... : ... .. 7 ... ... : ... .. 7 ... ... : ... .. A ... ...
ROW 3E : ... .. A ... ... ... : ... .. . ... ... ... : C-3 00 . ... : ... .. 6 ... : ... .. . ... ... : ... .. 6 ... ... : ... .. 6 ... ... : ... .. 6 ... ...
ROW 3F : ... .. 8 ... ... ... : ... .. . ... ... ... : B-2 00 . ... : ... .. 3 ... : ... .. . ... ... : ... .. 4 ... ... : ... .. 5 ... ... : ... .. . ... ...
ROW 40 : ... .. . ... ... ... : ... .. . P83 ... ... : F#2 00 . ... : ... .. 2 ... : ... .. . ... ... : ... .. . ... ... : ... .. . ... ... : ... .. . ... ...
ROW 41 : ... .. . ... ... ... : C#5 00 F P80 ... ... : ... .. . ... : ... .. 0 ... : ... .. . ... ... : ... .. 2 ... ... : ... .. 4 ... ... : ... .. . ... ...
ROW 42 : ... .. 7 ... V00 ... : ... .. . ... ... ... : ... .. . ... : ... .. F ... : ... .. . ... ... : ... .. 8 ... ... : ... .. . ... ... : ... .. . ... ...
ROW 43 : ... .. . ... ... ... : ... .. . ... ... ... : ... .. . ... : ... .. C ... : ... .. . ... ... : ... .. 7 ... ... : ... .. . ... ... : ... .. . ... ...
ROW 44 : ... .. . ... ... ... : ... .. . ... ... ... : ... .. . ... : ... .. 6 ... : ... .. . ... ... : ... .. 6 ... ... : ... .. . ... ... : ... .. . ... ...
ROW 45 : ... .. . ... ... ... : ... .. . ... ... ... : ... .. . ... : ... .. 3 ... : ... .. . ... ... : ... .. 5 ... ... : ... .. . ... ... : ... .. . ... ...
ROW 46 : ... .. . ... ... ... : ... .. . ... ... ... : ... .. . ... : ... .. 2 ... : ... .. . ... ... : ... .. . ... ... : ... .. . ... ... : ... .. . ... ...
ROW 47 : ... .. . ... ... ... : ... .. . ... ... ... : ... .. . ... : ... .. 0 ... : ... .. . ... ... : ... .. 4 ... ... : ... .. . ... ... : ... .. . ... ...
ROW 48 : ... .. . ... V03 ... : ... .. . ... ... ... : ... .. . ... : B-# 00 D ... : ... .. . ... ... : ... .. . ... ... : ... .. . ... ... : ... .. . ... ...
ROW 49 : ... .. . ... ... ... : ... .. . ... ... ... : ... .. . ... : ... .. B ... : ... .. . ... ... : ... .. . ... ... : ... .. . ... ... : ... .. . ... ...
ROW 4A : ... .. . ... ... ... : ... .. . ... ... ... : ... .. . ... : ... .. . ... : ... .. . ... ... : ... .. 2 ... ... : ... .. . ... ... : ... .. . ... ...
ROW 4B : ... .. . ... ... ... : ... .. . ... ... ... : ... .. . ... : ... .. A ... : ... .. . ... ... : ... .. . ... ... : ... .. . ... ... : ... .. . ... ...
ROW 4C : ... .. . ... ... ... : ... .. . ... ... ... : ... .. . ... : ... .. 8 ... : ... .. . ... ... : ... .. . ... ... : ... .. . ... ... : ... .. . ... ...
ROW 4D : ... .. . ... ... ... : ... .. . ... ... ... : ... .. . ... : ... .. 7 ... : ... .. . ... ... : ... .. . ... ... : ... .. . ... ... : ... .. . ... ...
ROW 4E : ... .. . ... V02 ... : ... .. . ... ... ... : F-2 00 . P74 : ... .. 6 ... : ... .. . ... ... : ... .. 8 ... ... : ... .. . ... ... : ... .. . ... ...
ROW 4F : ... .. . ... ... ... : ... .. . ... ... ... : D#2 00 . P92 : ... .. . ... : ... .. . ... ... : ... .. 7 ... ... : ... .. . ... ... : ... .. . ... ...
ROW 50 : ... .. . ... ... ... : ... .. . ... ... ... : D-2 00 . P8D : ... .. 5 ... : ... .. . ... ... : ... .. 6 ... ... : ... .. . ... ... : ... .. . ... ...
ROW 51 : ... .. 6 ... ... ... : ... .. . ... ... ... : C#2 00 . P8A : ... .. . ... : ... .. . ... ... : ... .. 4 ... ... : ... .. . ... ... : ... .. . ... ...
ROW 52 : ... .. . ... ... ... : B-4 00 F P7D ... ... : C-2 00 . ... : ... .. 4 ... : ... .. . ... ... : ... .. . ... ... : ... .. . ... ... : ... .. . ... ...
ROW 53 : ... .. . ... ... ... : G#4 00 F P84 ... ... : B-1 00 . P8D : ... .. . ... : ... .. . ... ... : ... .. 2 ... ... : ... .. . ... ... : ... .. . ... ...
ROW 54 : ... .. . ... V00 ... : ... .. . P80 ... ... : E-2 00 . P80 : 1-# 00 F ... : ... .. . ... ... : ... .. 8 ... ... : ... .. . ... ... : ... .. . ... ...
ROW 55 : ... .. . ... ... ... : ... .. . ... ... ... : ... .. . ... : ... .. C ... : ... .. . ... ... : ... .. 7 ... ... : ... .. . ... ... : ... .. . ... ...
ROW 56 : ... .. . ... ... ... : ... .. . ... ... ... : ... .. . ... : ... .. 6 ... : ... .. . ... ... : ... .. 6 ... ... : ... .. . ... ... : ... .. . ... ...
ROW 57 : ... .. . ... ... ... : ... .. . ... ... ... : ... .. . ... : ... .. 3 ... : ... .. . ... ... : ... .. 5 ... ... : ... .. . ... ... : ... .. . ... ...
ROW 58 : ... .. . ... ... ... : ... .. . ... ... ... : ... .. . ... : ... .. 2 ... : ... .. . ... ... : ... .. . ... ... : ... .. . ... ... : ... .. . ... ...
ROW 59 : ... .. . ... ... ... : ... .. . ... ... ... : --- .. . ... : ... .. 0 ... : ... .. . ... ... : ... .. 4 ... ... : ... .. . ... ... : ... .. . ... ...
ROW 5A : ... .. . ... V02 ... : ... .. . ... ... ... : C#2 00 . ... : ... .. F ... : ... .. . ... ... : ... .. . ... ... : ... .. . ... ... : ... .. . ... ...
ROW 5B : ... .. . ... ... ... : ... .. . ... ... ... : ... .. . ... : ... .. C ... : ... .. . ... ... : ... .. . ... ... : ... .. . ... ... : ... .. . ... ...
ROW 5C : ... .. . ... ... ... : ... .. . ... ... ... : ... .. . ... : ... .. 6 ... : ... .. . ... ... : ... .. 2 ... ... : ... .. . ... ... : ... .. . ... ...
ROW 5D : ... .. . ... ... ... : ... .. . ... ... ... : ... .. . ... : ... .. 3 ... : ... .. . ... ... : ... .. . ... ... : ... .. . ... ... : ... .. . ... ...
ROW 5E : ... .. . ... ... ... : ... .. . ... ... ... : ... .. . ... : ... .. 2 ... : ... .. . ... ... : ... .. . ... ... : ... .. . ... ... : ... .. . ... ...
ROW 5F : ... .. . ... ... ... : ... .. . ... ... ... : --- .. . ... : ... .. 0 ... : ... .. . ... ... : ... .. . ... ... : ... .. . ... ... : ... .. . ... ...
ROW 60 : ... .. . ... V01 ... : ... .. . ... ... ... : C-3 00 . ... : B-# 00 D ... : ... .. . ... ... : ... .. 8 ... ... : ... .. . ... ... : ... .. . ... ...
ROW 61 : ... .. . ... ... ... : ... .. . ... ... ... : ... .. . ... : ... .. B ... : ... .. . ... ... : ... .. 7 ... ... : ... .. . ... ... : ... .. . ... ...
ROW 62 : ... .. . ... ... ... : ... .. . ... ... ... : ... .. . ... : ... .. . ... : ... .. . ... ... : ... .. 6 ... ... : ... .. . ... ... : ... .. . ... ...
ROW 63 : ... .. . ... ... ... : ... .. . ... ... ... : ... .. . ... : ... .. A ... : ... .. . ... ... : ... .. 4 ... ... : ... .. . ... ... : ... .. . ... ...
ROW 64 : ... .. . ... ... ... : ... .. . ... ... ... : ... .. . ... : ... .. 8 ... : ... .. . ... ... : ... .. . ... ... : ... .. . ... ... : ... .. . ... ...
ROW 65 : ... .. . ... ... ... : ... .. . ... ... ... : --- .. . ... : ... .. 7 ... : ... .. . ... ... : ... .. 2 ... ... : ... .. . ... ... : ... .. . ... ...
ROW 66 : ... .. . ... V02 ... : ... .. . ... ... ... : C#3 00 . ... : ... .. 6 ... : ... .. . ... ... : ... .. 8 ... ... : ... .. . ... ... : ... .. . ... ...
ROW 67 : ... .. . ... ... ... : ... .. . ... ... ... : ... .. . ... : ... .. . ... : ... .. . ... ... : ... .. 7 ... ... : ... .. . ... ... : ... .. . ... ...
ROW 68 : ... .. . ... ... ... : ... .. . ... ... ... : ... .. . ... : ... .. 5 ... : ... .. . ... ... : ... .. 6 ... ... : ... .. . ... ... : ... .. . ... ...
ROW 69 : ... .. . ... ... ... : ... .. . P84 ... ... : ... .. . ... : ... .. . ... : ... .. . ... ... : ... .. 4 ... ... : ... .. . ... ... : ... .. . ... ...
ROW 6A : ... .. . ... ... ... : A-4 00 F P7E ... ... : ... .. . ... : ... .. 4 ... : ... .. . ... ... : ... .. . ... ... : ... .. . ... ... : ... .. . ... ...
ROW 6B : ... .. . ... ... ... : ... .. . P7D ... ... : --- .. . ... : ... .. . ... : ... .. . ... ... : ... .. 2 ... ... : ... .. . ... ... : ... .. . ... ...
ROW 6C : ... .. 5 ... V00 ... : G#4 00 F P82 ... ... : F-3 00 . ... : 1-# 00 F ... : ... .. . ... ... : ... .. 8 ... ... : ... .. . ... ... : ... .. . ... ...
ROW 6D : ... .. . ... ... ... : ... .. . P7E ... ... : ... .. . ... : ... .. C ... : ... .. . ... ... : ... .. 7 ... ... : ... .. . ... ... : ... .. . ... ...
ROW 6E : ... .. . ... ... ... : G-4 00 F P83 ... ... : ... .. . ... : ... .. 6 ... : ... .. . ... ... : ... .. 6 ... ... : ... .. . ... ... : ... .. . ... ...
ROW 6F : ... .. . ... ... ... : ... .. . P82 ... ... : ... .. . ... : ... .. 3 ... : ... .. . ... ... : ... .. 4 ... ... : ... .. . ... ... : ... .. . ... ...
ROW 70 : ... .. . ... ... ... : ... .. . P84 ... ... : ... .. . ... : ... .. 2 ... : ... .. . ... ... : ... .. . ... ... : ... .. . ... ... : ... .. . ... ...
ROW 71 : ... .. . ... ... ... : G#4 00 F P80 ... ... : --- .. . ... : ... .. 0 ... : ... .. . ... ... : ... .. 2 ... ... : ... .. . ... ... : ... .. . ... ...
ROW 72 : ... .. . ... V01 ... : ... .. . P83 ... ... : F#3 00 . ... : ... .. F ... : ... .. . ... ... : ... .. 8 ... ... : ... .. . ... ... : ... .. . ... ...
ROW 73 : ... .. . ... ... ... : A-4 00 F P7E ... ... : ... .. . ... : ... .. C ... : ... .. . ... ... : ... .. 7 ... ... : ... .. . ... ... : ... .. 3 ... ...
ROW 74 : ... .. . ... ... ... : ... .. . ... ... ... : ... .. . ... : ... .. 6 ... : ... .. . ... ... : ... .. 6 ... ... : ... .. 2 ... ... : ... .. . ... ...
ROW 75 : ... .. . ... ... ... : G#4 00 F P82 ... ... : ... .. . ... : ... .. 3 ... : ... .. . ... ... : ... .. 4 ... ... : ... .. . ... ... : ... .. 1 ... ...
ROW 76 : ... .. . ... ... ... : ... .. . P7F ... ... : ... .. . ... : ... .. 2 ... : ... .. . ... ... : ... .. . ... ... : ... .. . ... ... : ... .. . ... ...
ROW 77 : ... .. . ... ... ... : G-4 00 F P83 ... ... : --- .. . ... : ... .. 0 ... : ... .. . ... ... : ... .. 2 ... ... : ... .. . ... ... : ... .. . ... ...
ROW 78 : A#3 00 8 ... ... ... : ... .. . P82 ... ... : F-5 00 . ... : B-# 00 D ... : ... .. . ... ... : A#3 01 8 ... ... : ... .. 8 ... ... : F#4 01 C ... ...
ROW 79 : ... .. 7 ... ... ... : ... .. . P84 ... ... : G-4 00 . ... : ... .. B ... : ... .. . ... ... : ... .. 7 ... ... : ... .. 7 ... ... : ... .. A ... ...
ROW 7A : ... .. 6 ... ... ... : G#4 00 F P80 ... ... : C-4 00 . ... : ... .. . ... : ... .. . ... ... : ... .. 6 ... ... : ... .. 6 ... ... : ... .. 6 ... ...
ROW 7B : ... .. 5 ... ... ... : ... .. . P83 ... ... : B-3 00 . ... : ... .. A ... : ... .. . ... ... : ... .. 4 ... ... : ... .. 5 ... ... : ... .. . ... ...
ROW 7C : ... .. . ... ... ... : A-4 00 F P7E ... ... : F#3 00 . ... : ... .. 8 ... : ... .. . ... ... : ... .. . ... ... : ... .. . ... ... : ... .. . ... ...
ROW 7D : ... .. . ... ... ... : ... .. . ... ... ... : ... .. . ... : ... .. 7 ... : ... .. . ... ... : ... .. 2 ... ... : ... .. 4 ... ... : ... .. . ... ...
ROW 7E : ... .. . ... V02 ... : G#4 00 F P83 ... ... : ... .. . ... : ... .. 6 ... : ... .. . ... ... : ... .. 8 ... ... : ... .. . ... ... : ... .. . ... ...
ROW 7F : ... .. . ... ... ... : ... .. . P80 ... ... : ... .. . ... : ... .. . ... : ... .. . ... ... : ... .. 7 ... ... : ... .. . ... ... : ... .. . ... ...
ROW 80 : ... .. . ... ... ... : G-4 00 F P84 ... ... : ... .. . ... : ... .. 5 ... : ... .. . ... ... : ... .. 6 ... ... : ... .. . ... ... : ... .. . ... ...
ROW 81 : ... .. . ... ... ... : ... .. . P82 ... ... : ... .. . ... : ... .. . ... : ... .. . ... ... : ... .. 5 ... ... : ... .. . ... ... : ... .. . ... ...
ROW 82 : ... .. . ... ... ... : ... .. . P83 ... ... : ... .. . ... : ... .. 4 ... : ... .. . ... ... : ... .. . ... ... : ... .. . ... ... : ... .. . ... ...
ROW 83 : ... .. . ... ... ... : G#4 00 F P7F ... ... : --- .. . ... : ... .. . ... : ... .. . ... ... : ... .. 4 ... ... : ... .. . ... ... : ... .. . ... ...
ROW 84 : ... .. . ... V00 ... : ... .. . P82 ... ... : F-3 00 . ... : 1-# 00 F ... : ... .. . ... ... : ... .. . ... ... : ... .. . ... ... : ... .. . ... ...
ROW 85 : ... .. . ... ... ... : A-4 00 F P7E ... ... : ... .. . ... : ... .. C ... : ... .. . ... ... : ... .. . ... ... : ... .. . ... ... : ... .. . ... ...
ROW 86 : ... .. . ... ... ... : ... .. . ... ... ... : ... .. . ... : ... .. 6 ... : ... .. . ... ... : ... .. 2 ... ... : ... .. . ... ... : ... .. . ... ...
ROW 87 : ... .. . ... ... ... : G#4 00 F P83 ... ... : ... .. . ... : ... .. 3 ... : ... .. . ... ... : ... .. . ... ... : ... .. . ... ... : ... .. . ... ...
ROW 88 : ... .. . ... ... ... : ... .. . P80 ... ... : ... .. . ... : ... .. 2 ... : ... .. . ... ... : ... .. . ... ... : ... .. . ... ... : ... .. . ... ...
ROW 89 : ... .. . ... ... ... : G-4 00 F P84 ... ... : --- .. . ... : ... .. 0 ... : ... .. . ... ... : ... .. . ... ... : ... .. . ... ... : ... .. . ... ...
ROW 8A : ... .. . ... V01 ... : ... .. . P82 ... ... : F-3 00 . ... : ... .. F ... : ... .. . ... ... : ... .. 8 ... ... : ... .. . ... ... : ... .. . ... ...
ROW 8B : ... .. . ... ... ... : ... .. . P83 ... ... : ... .. . ... : ... .. C ... : ... .. . ... ... : ... .. 7 ... ... : ... .. . ... ... : ... .. . ... ...
ROW 8C : ... .. . ... ... ... : G#4 00 F P7E ... ... : ... .. . ... : ... .. 6 ... : ... .. . ... ... : ... .. 6 ... ... : ... .. . ... ... : ... .. . ... ...
ROW 8D : ... .. 6 ... ... ... : ... .. . P82 ... ... : ... .. . ... : ... .. 3 ... : ... .. . ... ... : ... .. 4 ... ... : ... .. . ... ... : ... .. . ... ...
ROW 8E : ... .. . ... ... ... : A-4 00 F P7D ... ... : ... .. . ... : ... .. 2 ... : ... .. . ... ... : ... .. . ... ... : ... .. . ... ... : ... .. . ... ...
ROW 8F : ... .. . ... ... ... : ... .. . P7E ... ... : --- .. . ... : ... .. 0 ... : ... .. . ... ... : ... .. 2 ... ... : ... .. . ... ... : ... .. . ... ...
ROW 90 : ... .. . ... V02 ... : G#4 00 F P84 ... ... : D#3 00 . ... : ... .. F ... : ... .. . ... ... : ... .. 8 ... ... : ... .. . ... ... : ... .. . ... ...
ROW 91 : ... .. . ... ... ... : ... .. . P80 ... ... : ... .. . ... : ... .. C ... : ... .. . ... ... : ... .. 7 ... ... : ... .. . ... ... : ... .. . ... ...
ROW 92 : ... .. . ... ... ... : ... .. . P7D ... ... : ... .. . ... : ... .. 6 ... : ... .. . ... ... : ... .. 6 ... ... : ... .. . ... ... : ... .. . ... ...
ROW 93 : ... .. . ... ... ... : G-4 00 F P82 ... ... : ... .. . ... : ... .. 3 ... : ... .. . ... ... : ... .. 5 ... ... : ... .. . ... ... : ... .. . ... ...
ROW 94 : ... .. . ... ... ... : ... .. . ... ... ... : ... .. . ... : ... .. 2 ... : ... .. . ... ... : ... .. . ... ... : ... .. . ... ... : ... .. . ... ...
ROW 95 : ... .. . ... ... ... : G#4 00 F P7E ... ... : --- .. . ... : ... .. 0 ... : ... .. . ... ... : ... .. 4 ... ... : ... .. . ... ... : ... .. . ... ...
ROW 96 : ... .. . ... V03 ... : ... .. . P81 ... ... : D#3 00 . ... : ... .. F ... : ... .. . ... ... : ... .. . ... ... : ... .. . ... ... : ... .. . ... ...
ROW 97 : ... .. . ... ... ... : A-4 00 F P7D ... ... : ... .. . ... : ... .. C ... : ... .. . ... ... : ... .. . ... ... : ... .. . ... ... : ... .. 3 ... ...
ROW 98 : ... .. . ... ... ... : ... .. . P7E ... ... : ... .. . ... : ... .. 6 ... : ... .. . ... ... : ... .. 2 ... ... : ... .. 2 ... ... : ... .. . ... ...
ROW 99 : ... .. . ... ... ... : G#4 00 F P84 ... ... : ... .. . ... : ... .. 3 ... : ... .. . ... ... : ... .. . ... ... : ... .. . ... ... : ... .. 1 ... ...
ROW 9A : ... .. . ... ... ... : ... .. . P80 ... ... : ... .. . ... : ... .. 2 ... : ... .. . ... ... : ... .. . ... ... : ... .. . ... ... : ... .. . ... ...
ROW 9B : ... .. . ... ... ... : ... .. . P7D ... ... : --- .. . ... : ... .. 0 ... : ... .. . ... ... : ... .. . ... ... : ... .. . ... ... : ... .. . ... ...
ROW 9C : ... .. . ... V02 ... : G-4 00 F P82 ... ... : C#3 00 . ... : B-# 00 D ... : ... .. . ... ... : C-4 01 8 ... ... : D#4 01 8 ... ... : G#4 01 C ... ...
ROW 9D : ... .. . ... ... ... : ... .. . ... ... ... : ... .. . ... : ... .. B ... : ... .. . ... ... : ... .. 7 ... ... : ... .. 7 ... ... : ... .. A ... ...
ROW 9E : ... .. . ... ... ... : G#4 00 F P7D ... ... : ... .. . ... : ... .. . ... : ... .. . ... ... : ... .. 6 ... ... : ... .. 6 ... ... : ... .. 6 ... ...
ROW 9F : ... .. . ... ... ... : ... .. . P80 ... ... : ... .. . ... : ... .. A ... : ... .. . ... ... : ... .. 4 ... ... : ... .. 4 ... ... : ... .. . ... ...
ROW A0 : ... .. . ... ... ... : ... .. . P84 ... ... : ... .. . ... : ... .. 8 ... : ... .. . ... ... : ... .. . ... ... : ... .. . ... ... : ... .. 3 ... ...
ROW A1 : ... .. . ... ... ... : A-4 00 F P7E ... ... : ... .. . ... : ... .. 7 ... : ... .. . ... ... : ... .. 2 ... ... : ... .. 2 ... ... : ... .. . ... ...
ROW A2 : ... .. . ... V00 ... : ... .. . P7D ... ... : ... .. . ... : ... .. 6 ... : ... .. . ... ... : ... .. 8 ... ... : ... .. 8 ... ... : ... .. C ... ...
ROW A3 : ... .. . ... ... ... : G#4 00 F P81 ... ... : ... .. . ... : ... .. . ... : ... .. . ... ... : ... .. 7 ... ... : ... .. 7 ... ... : ... .. A ... ...
ROW A4 : ... .. . ... ... ... : ... .. . P7E ... ... : ... .. . ... : ... .. 5 ... : ... .. . ... ... : ... .. 6 ... ... : ... .. 6 ... ... : ... .. 6 ... ...
ROW A5 : ... .. . ... ... ... : G-4 00 F P82 ... ... : ... .. . ... : ... .. . ... : ... .. . ... ... : ... .. 5 ... ... : ... .. 5 ... ... : ... .. . ... ...
ROW A6 : ... .. . ... ... ... : ... .. . ... ... ... : ... .. . ... : ... .. 4 ... : ... .. . ... ... : ... .. . ... ... : ... .. . ... ... : ... .. . ... ...
ROW A7 : ... .. . ... ... ... : G#4 00 F P7D ... ... : ... .. . ... : ... .. . ... : ... .. . ... ... : ... .. 4 ... ... : ... .. 4 ... ... : ... .. . ... ...
ROW A8 : C-4 00 A ... V03 ... : ... .. . P80 ... ... : C-3 00 . P88 : 1-# 00 F ... : ... .. . ... ... : ... .. . ... ... : ... .. . ... ... : ... .. . ... ...
ROW A9 : ... .. 9 ... ... ... : ... .. . P84 ... ... : ... .. . P78 : ... .. C ... : ... .. . ... ... : ... .. . ... ... : ... .. . ... ... : ... .. 3 ... ...
ROW AA : ... .. 8 ... ... ... : A-4 00 F P7E ... ... : B-2 00 . P81 : ... .. 6 ... : ... .. . ... ... : ... .. 2 ... ... : ... .. 2 ... ... : ... .. . ... ...
ROW AB : ... .. 6 ... ... ... : ... .. . P7D ... ... : A#2 00 . P8C : ... .. 3 ... : ... .. . ... ... : ... .. . ... ... : ... .. . ... ... : ... .. 1 ... ...
ROW AC : ... .. . ... ... ... : G#4 00 F P82 ... ... : ... .. . P7C : ... .. 2 ... : ... .. . ... ... : ... .. . ... ... : ... .. . ... ... : ... .. . ... ...
ROW AD : ... .. . ... ... ... : ... .. . P7E ... ... : A-2 00 . P88 : ... .. 0 ... : ... .. . ... ... : ... .. . ... ... : ... .. . ... ... : ... .. . ... ...
ROW AE : ... .. . ... V02 ... : A#3 00 F P80 ... ... : ... .. . P78 : ... .. F ... : ... .. . ... ... : ... .. 8 ... ... : ... .. 8 ... ... : ... .. C ... ...
ROW AF : ... .. . ... ... ... : ... .. . ... ... ... : G#2 00 . P87 : ... .. C ... : ... .. . ... ... : ... .. 7 ... ... : ... .. 7 ... ... : ... .. A ... ...
ROW B0 : ... .. . ... ... ... : ... .. . ... ... ... : ... .. . P77 : ... .. 6 ... : ... .. . ... ... : ... .. 6 ... ... : ... .. 6 ... ... : ... .. 6 ... ...
ROW B1 : ... .. . ... ... ... : ... .. . ... ... ... : G-2 00 . P87 : ... .. 3 ... : ... .. . ... ... : ... .. 4 ... ... : ... .. 4 ... ... : ... .. . ... ...
ROW B2 : ... .. . ... ... ... : ... .. . ... ... ... : ... .. . P77 : ... .. 2 ... : ... .. . ... ... : ... .. . ... ... : ... .. . ... ... : ... .. 3 ... ...
ROW B3 : ... .. . ... ... ... : ... .. . ... ... ... : F#2 00 . P89 : ... .. 0 ... : ... .. . ... ... : ... .. 2 ... ... : ... .. 2 ... ... : ... .. . ... ...
ROW B4 : ... .. . ... V00 ... : C-4 00 F ... ... ... : C-3 00 . P80 : ... .. F ... : ... .. . ... ... : ... .. 8 ... ... : ... .. 8 ... ... : ... .. C ... ...
ROW B5 : ... .. . ... ... ... : ... .. . ... ... ... : ... .. . ... : ... .. C ... : ... .. . ... ... : ... .. 7 ... ... : ... .. 7 ... ... : ... .. A ... ...
ROW B6 : ... .. . ... ... ... : ... .. . ... ... ... : ... .. . ... : ... .. 6 ... : ... .. . ... ... : ... .. 6 ... ... : ... .. 6 ... ... : ... .. 6 ... ...
ROW B7 : ... .. 7 ... ... ... : ... .. . ... ... ... : ... .. . ... : ... .. 3 ... : ... .. . ... ... : ... .. 5 ... ... : ... .. 5 ... ... : ... .. . ... ...
ROW B8 : ... .. . ... ... ... : ... .. . ... ... ... : ... .. . ... : ... .. 2 ... : ... .. . ... ... : ... .. . ... ... : ... .. . ... ... : ... .. . ... ...
ROW B9 : ... .. . ... ... ... : ... .. . ... ... ... : ... .. . ... : ... .. 0 ... : ... .. . ... ... : ... .. 4 ... ... : ... .. 4 ... ... : ... .. . ... ...
ROW BA : ... .. . ... V02 ... : D#4 00 F ... ... ... : C#3 00 . ... : ... .. F ... : ... .. . ... ... : ... .. . ... ... : ... .. . ... ... : ... .. . ... ...
ROW BB : ... .. . ... ... ... : ... .. . ... ... ... : ... .. . ... : ... .. C ... : ... .. . ... ... : ... .. . ... ... : ... .. . ... ... : ... .. 3 ... ...
ROW BC : ... .. . ... ... ... : ... .. . ... ... ... : ... .. . ... : ... .. 6 ... : ... .. . ... ... : ... .. 2 ... ... : ... .. 2 ... ... : ... .. . ... ...
ROW BD : ... .. . ... ... ... : ... .. . ... ... ... : ... .. . ... : ... .. 3 ... : ... .. . ... ... : ... .. . ... ... : ... .. . ... ... : ... .. 1 ... ...
ROW BE : ... .. . ... ... ... : ... .. . ... ... ... : ... .. . ... : ... .. 2 ... : ... .. . ... ... : ... .. . ... ... : ... .. . ... ... : ... .. . ... ...
ROW BF : ... .. . ... ... ... : ... .. . ... ... ... : ... .. . ... : ... .. 0 ... : ... .. . ... ... : ... .. . ... ... : ... .. . ... ... : ... .. . ... ...
ROW C0 : ... .. . ... V01 ... : F-4 00 F ... ... ... : C-3 00 . ... : 9-# 00 D ... : ... .. . ... ... : ... .. 8 ... ... : ... .. 8 ... ... : ... .. C ... ...
ROW C1 : ... .. . ... ... ... : ... .. . ... ... ... : ... .. . ... : ... .. B ... : ... .. . ... ... : ... .. 7 ... ... : ... .. 7 ... ... : ... .. A ... ...
ROW C2 : ... .. . ... ... ... : ... .. . ... ... ... : ... .. . ... : ... .. . ... : ... .. . ... ... : ... .. 6 ... ... : ... .. 6 ... ... : ... .. 6 ... ...
ROW C3 : ... .. . ... ... ... : ... .. . ... ... ... : ... .. . ... : ... .. A ... : ... .. . ... ... : ... .. 4 ... ... : ... .. 4 ... ... : ... .. . ... ...
ROW C4 : ... .. . ... ... ... : ... .. . ... ... ... : ... .. . ... : ... .. 8 ... : ... .. . ... ... : ... .. . ... ... : ... .. . ... ... : ... .. 3 ... ...
ROW C5 : ... .. . ... ... ... : ... .. . ... ... ... : --- .. . ... : ... .. 7 ... : ... .. . ... ... : ... .. 2 ... ... : ... .. 2 ... ... : ... .. . ... ...
ROW C6 : ... .. . ... V02 ... : G#4 00 F ... ... ... : F#2 00 . ... : 7-# 00 D ... : ... .. . ... ... : ... .. 8 ... ... : ... .. 8 ... ... : ... .. C ... ...
ROW C7 : ... .. . ... ... ... : ... .. . ... ... ... : ... .. . ... : ... .. B ... : ... .. . ... ... : ... .. 7 ... ... : ... .. 7 ... ... : ... .. A ... ...
ROW C8 : ... .. . ... ... ... : ... .. . ... ... ... : ... .. . ... : ... .. . ... : ... .. . ... ... : ... .. 6 ... ... : ... .. 6 ... ... : ... .. 6 ... ...
ROW C9 : ... .. . ... ... ... : ... .. . ... ... ... : ... .. . ... : ... .. A ... : ... .. . ... ... : ... .. 4 ... ... : ... .. 4 ... ... : ... .. . ... ...
ROW CA : ... .. . ... ... ... : ... .. . ... ... ... : ... .. . ... : ... .. 8 ... : ... .. . ... ... : ... .. . ... ... : ... .. . ... ... : ... .. 3 ... ...
ROW CB : ... .. . ... ... ... : ... .. . ... ... ... : --- .. . ... : ... .. 7 ... : ... .. . ... ... : ... .. 2 ... ... : ... .. 2 ... ... : ... .. . ... ...
ROW CC : ... .. 8 ... V00 ... : A#4 00 F ... ... ... : G#2 00 . ... : 5-# 00 D ... : ... .. . ... ... : ... .. 8 ... ... : ... .. 8 ... ... : ... .. C ... ...
ROW CD : ... .. . ... ... ... : ... .. . ... ... ... : ... .. . ... : ... .. B ... : ... .. . ... ... : ... .. 7 ... ... : ... .. 7 ... ... : ... .. A ... ...
ROW CE : ... .. . ... ... ... : ... .. . ... ... ... : ... .. . ... : ... .. . ... : ... .. . ... ... : ... .. 6 ... ... : ... .. 6 ... ... : ... .. 6 ... ...
ROW CF : ... .. . ... ... ... : ... .. . ... ... ... : ... .. . ... : ... .. A ... : ... .. . ... ... : ... .. 4 ... ... : ... .. 4 ... ... : ... .. . ... ...
ROW D0 : ... .. . ... ... ... : ... .. . ... ... ... : ... .. . ... : ... .. 8 ... : ... .. . ... ... : ... .. . ... ... : ... .. . ... ... : ... .. 3 ... ...
ROW D1 : ... .. . ... ... ... : ... .. . ... ... ... : --- .. . ... : ... .. 7 ... : ... .. . ... ... : ... .. 2 ... ... : ... .. 2 ... ... : ... .. . ... ...
ROW D2 : ... .. . ... V01 ... : D#5 00 F ... ... ... : F-2 00 . ... : 4-# 00 D ... : ... .. . ... ... : ... .. 8 ... ... : ... .. 8 ... ... : ... .. C ... ...
ROW D3 : ... .. . ... ... ... : ... .. . ... ... ... : ... .. . ... : ... .. B ... : ... .. . ... ... : ... .. 7 ... ... : ... .. 7 ... ... : ... .. A ... ...
ROW D4 : ... .. . ... ... ... : ... .. . ... ... ... : ... .. . ... : ... .. . ... : ... .. . ... ... : ... .. 6 ... ... : ... .. 6 ... ... : ... .. 6 ... ...
ROW D5 : ... .. . ... ... ... : ... .. . ... ... ... : ... .. . ... : ... .. A ... : ... .. . ... ... : ... .. 4 ... ... : ... .. 4 ... ... : ... .. . ... ...
ROW D6 : ... .. . ... ... ... : ... .. . ... ... ... : ... .. . ... : ... .. 8 ... : ... .. . ... ... : ... .. . ... ... : ... .. . ... ... : ... .. 3 ... ...
ROW D7 : ... .. . ... ... ... : ... .. . ... ... ... : --- .. . ... : ... .. 7 ... : ... .. . ... ... : ... .. 2 ... ... : ... .. 2 ... ... : ... .. . ... ...
ROW D8 : F-3 00 A ... ... ... : ... .. . ... ... ... : A-4 00 . ... : B-# 00 D ... : ... .. . ... ... : F-4 01 6 ... ... : D#2 01 8 ... ... : F-2 01 F ... ...
ROW D9 : ... .. 9 ... ... ... : ... .. . ... ... ... : B-3 00 . ... : ... .. B ... : ... .. . ... ... : ... .. . ... ... : ... .. 7 ... ... : ... .. D ... ...
ROW DA : ... .. 8 ... ... ... : ... .. . ... ... ... : E-3 00 . ... : ... .. . ... : ... .. . ... ... : ... .. 5 ... ... : ... .. 6 ... ... : ... .. 8 ... ...
ROW DB : ... .. 6 ... ... ... : ... .. . ... ... ... : D#3 00 . ... : ... .. A ... : ... .. . ... ... : ... .. 4 ... ... : ... .. 5 ... ... : ... .. . ... ...
ROW DC : ... .. . ... ... ... : E-5 00 F P7E ... ... : A#2 00 . ... : ... .. 8 ... : ... .. . ... ... : ... .. . ... ... : ... .. . ... ... : ... .. . ... ...
ROW DD : ... .. . ... ... ... : ... .. . P81 ... ... : ... .. . ... : ... .. 7 ... : ... .. . ... ... : ... .. . ... ... : ... .. 4 ... ... : ... .. . ... ...
ROW DE : ... .. . ... V02 ... : F-5 00 F P7F ... ... : ... .. . ... : ... .. 6 ... : ... .. . ... ... : D#4 01 6 ... ... : ... .. . ... ... : ... .. . ... ...
ROW DF : ... .. . ... ... ... : ... .. . P80 ... ... : ... .. . ... : ... .. . ... : ... .. . ... ... : ... .. . ... ... : ... .. . ... ... : ... .. . ... ...
ROW E0 : ... .. . ... ... ... : ... .. . ... ... ... : ... .. . ... : ... .. 5 ... : ... .. . ... ... : ... .. 5 ... ... : ... .. . ... ... : ... .. . ... ...
ROW E1 : ... .. . ... ... ... : ... .. . ... ... ... : ... .. . ... : ... .. . ... : ... .. . ... ... : ... .. 4 ... ... : ... .. . ... ... : ... .. . ... ...
ROW E2 : ... .. . ... ... ... : ... .. . ... ... ... : ... .. . ... : ... .. 4 ... : ... .. . ... ... : ... .. . ... ... : ... .. . ... ... : ... .. . ... ...
ROW E3 : ... .. . ... ... ... : ... .. . ... ... ... : ... .. . ... : ... .. . ... : ... .. . ... ... : ... .. . ... ... : ... .. . ... ... : ... .. . ... ...
ROW E4 : ... .. . ... V00 ... : ... .. . ... ... ... : ... .. . ... : 1-# 00 F ... : ... .. . ... ... : A#3 01 6 ... ... : ... .. . ... ... : ... .. . ... ...
ROW E5 : ... .. . ... ... ... : ... .. . ... ... ... : ... .. . ... : ... .. C ... : ... .. . ... ... : ... .. . ... ... : ... .. . ... ... : ... .. . ... ...
ROW E6 : ... .. . ... ... ... : ... .. . ... ... ... : ... .. . ... : ... .. 6 ... : ... .. . ... ... : ... .. 5 ... ... : ... .. . ... ... : ... .. . ... ...
ROW E7 : ... .. . ... ... ... : ... .. . ... ... ... : ... .. . ... : ... .. 3 ... : ... .. . ... ... : ... .. 4 ... ... : ... .. . ... ... : ... .. . ... ...
ROW E8 : ... .. . ... ... ... : ... .. . ... ... ... : ... .. . ... : ... .. 2 ... : ... .. . ... ... : ... .. . ... ... : ... .. . ... ... : ... .. . ... ...
ROW E9 : ... .. . ... ... ... : ... .. . ... ... ... : ... .. . ... : ... .. 0 ... : ... .. . ... ... : ... .. . ... ... : ... .. . ... ... : ... .. . ... ...
ROW EA : ... .. . ... V01 ... : A#5 00 F ... ... ... : ... .. . ... : ... .. F ... : ... .. . ... ... : C-4 01 6 ... ... : ... .. . ... ... : ... .. . ... ...
ROW EB : ... .. . ... ... ... : ... .. . ... ... ... : ... .. . ... : ... .. C ... : ... .. . ... ... : ... .. . ... ... : ... .. . ... ... : ... .. . ... ...
ROW EC : ... .. . ... ... ... : ... .. . ... ... ... : ... .. . ... : ... .. 6 ... : ... .. . ... ... : ... .. 5 ... ... : ... .. . ... ... : ... .. . ... ...
ROW ED : ... .. 7 ... ... ... : ... .. . ... ... ... : ... .. . ... : ... .. 3 ... : ... .. . ... ... : ... .. 4 ... ... : ... .. . ... ... : ... .. . ... ...
ROW EE : ... .. . ... ... ... : ... .. . ... ... ... : ... .. . ... : ... .. 2 ... : ... .. . ... ... : ... .. . ... ... : ... .. . ... ... : ... .. . ... ...
ROW EF : ... .. . ... ... ... : ... .. . ... ... ... : ... .. . ... : ... .. 0 ... : ... .. . ... ... : ... .. . ... ... : ... .. . ... ... : ... .. . ... ...
ROW F0 : ... .. . ... V02 ... : ... .. . ... ... ... : A-2 00 . P7C : B-# 00 D ... : ... .. . ... ... : A#3 01 6 ... ... : ... .. . ... ... : ... .. . ... ...
ROW F1 : ... .. . ... ... ... : ... .. . ... ... ... : G#2 00 . P7B : ... .. B ... : ... .. . ... ... : ... .. . ... ... : ... .. . ... ... : ... .. . ... ...
ROW F2 : ... .. . ... ... ... : ... .. . ... ... ... : G-2 00 . ... : ... .. . ... : ... .. . ... ... : ... .. 5 ... ... : ... .. . ... ... : ... .. . ... ...
ROW F3 : ... .. . ... ... ... : ... .. . ... ... ... : F#2 00 . P7D : ... .. A ... : ... .. . ... ... : ... .. 4 ... ... : ... .. . ... ... : ... .. . ... ...
ROW F4 : ... .. . ... ... ... : ... .. . ... ... ... : F-2 00 . P81 : ... .. 8 ... : ... .. . ... ... : ... .. . ... ... : ... .. . ... ... : ... .. . ... ...
ROW F5 : ... .. . ... ... ... : ... .. . ... ... ... : E-2 00 . P87 : ... .. 7 ... : ... .. . ... ... : ... .. . ... ... : ... .. . ... ... : ... .. . ... ...
ROW F6 : ... .. . ... V03 ... : ... .. . ... ... ... : D#2 00 . P8F : ... .. 6 ... : ... .. . ... ... : D#4 01 6 ... ... : ... .. . ... ... : ... .. . ... ...
ROW F7 : ... .. . ... ... ... : ... .. . ... ... ... : ... .. . P6F : ... .. . ... : ... .. . ... ... : ... .. . ... ... : ... .. . ... ... : ... .. 4 ... ...
ROW F8 : ... .. . ... ... ... : ... .. . ... ... ... : D-2 00 . P7A : ... .. 5 ... : ... .. . ... ... : ... .. 5 ... ... : ... .. 2 ... ... : ... .. . ... ...
ROW F9 : ... .. . ... ... ... : ... .. . ... ... ... : C#2 00 . P87 : ... .. . ... : ... .. . ... ... : ... .. 4 ... ... : ... .. . ... ... : ... .. 1 ... ...
ROW FA : ... .. . ... ... ... : ... .. . ... ... ... : C-2 00 . P97 : ... .. 4 ... : ... .. . ... ... : ... .. . ... ... : ... .. . ... ... : ... .. . ... ...
ROW FB : ... .. . ... ... ... : ... .. . ... ... ... : ... .. . P77 : ... .. . ... : ... .. . ... ... : ... .. . ... ... : ... .. . ... ... : ... .. . ... ...
ROW FC : F#3 00 B ... V02 ... : ... .. . ... ... ... : A-3 00 . P80 : 1-# 00 F ... : ... .. . ... ... : F#4 01 6 ... ... : E-2 01 8 ... ... : F#2 01 C ... ...
ROW FD : ... .. A ... ... ... : G-5 00 F P82 ... ... : B-2 00 . ... : ... .. C ... : ... .. . ... ... : ... .. . ... ... : ... .. 7 ... ... : ... .. A ... ...
ROW FE : ... .. 9 ... ... ... : F-5 00 F ... ... ... : E-2 00 . ... : ... .. 6 ... : ... .. . ... ... : ... .. 5 ... ... : ... .. 6 ... ... : ... .. 6 ... ...
ROW FF : ... .. 8 ... ... ... : E-5 00 F P7E ... ... : D#2 00 . ... : ... .. 3 ... : ... .. . ... ... : ... .. 4 ... ... : ... .. 5 ... ... : ... .. . ... ...

PATTERN 16
ROW 00 : ... .. . ... ... ... : D#5 00 F P80 ... ... : A#1 00 . ... : ... .. 2 ... : ... .. . ... ... : ... .. . ... ... : ... .. . ... ... : ... .. . ... ...
ROW 01 : ... .. . ... ... ... : ... .. . ... ... ... : ... .. . ... : ... .. 0 ... : ... .. . ... ... : ... .. . ... ... : ... .. 4 ... ... : ... .. . ... ...
ROW 02 : ... .. . ... V00 ... : ... .. . ... ... ... : ... .. . ... : ... .. F ... : ... .. . ... ... : E-4 01 6 ... ... : ... .. . ... ... : ... .. . ... ...
ROW 03 : ... .. . ... ... ... : ... .. . ... ... ... : ... .. . ... : ... .. C ... : ... .. . ... ... : ... .. . ... ... : ... .. . ... ... : ... .. . ... ...
ROW 04 : ... .. . ... ... ... : ... .. . ... ... ... : ... .. . ... : ... .. 6 ... : ... .. . ... ... : ... .. 5 ... ... : ... .. . ... ... : ... .. . ... ...
ROW 05 : ... .. . ... ... ... : ... .. . ... ... ... : ... .. . ... : ... .. 3 ... : ... .. . ... ... : ... .. 4 ... ... : ... .. . ... ... : ... .. . ... ...
ROW 06 : ... .. . ... ... ... : ... .. . ... ... ... : ... .. . ... : ... .. 2 ... : ... .. . ... ... : ... .. . ... ... : ... .. . ... ... : ... .. . ... ...
ROW 07 : ... .. . ... ... ... : ... .. . ... ... ... : ... .. . ... : ... .. 0 ... : ... .. . ... ... : ... .. . ... ... : ... .. . ... ... : ... .. . ... ...
ROW 08 : ... .. . ... V03 ... : ... .. . ... ... ... : A-1 00 . P89 : B-# 00 D ... : ... .. . ... ... : B-3 01 6 ... ... : ... .. . ... ... : ... .. . ... ...
ROW 09 : ... .. . ... ... ... : ... .. . ... ... ... : G#1 00 . P95 : ... .. B ... : ... .. . ... ... : ... .. . ... ... : ... .. . ... ... : ... .. . ... ...
ROW 0A : ... .. . ... ... ... : ... .. . ... ... ... : ... .. . P65 : ... .. . ... : ... .. . ... ... : ... .. 5 ... ... : ... .. . ... ... : ... .. . ... ...
ROW 0B : ... .. . ... ... ... : ... .. . ... ... ... : G-1 00 . P75 : ... .. A ... : ... .. . ... ... : ... .. 4 ... ... : ... .. . ... ... : ... .. . ... ...
ROW 0C : ... .. . ... ... ... : E-5 00 F P7E ... ... : F#1 00 . P89 : ... .. 8 ... : ... .. . ... ... : ... .. . ... ... : ... .. . ... ... : ... .. . ... ...
ROW 0D : ... .. . ... ... ... : ... .. . P81 ... ... : F-1 00 . PA1 : ... .. 7 ... : ... .. . ... ... : ... .. . ... ... : ... .. . ... ... : ... .. . ... ...
ROW 0E : ... .. . ... V02 ... : G#5 00 F P80 ... ... : ... .. . P71 : ... .. 6 ... : ... .. . ... ... : C#4 01 6 ... ... : ... .. . ... ... : ... .. . ... ...
ROW 0F : ... .. . ... ... ... : ... .. . ... ... ... : E-1 00 . P8D : ... .. . ... : ... .. . ... ... : ... .. . ... ... : ... .. . ... ... : ... .. . ... ...
ROW 10 : ... .. . ... ... ... : ... .. . ... ... ... : ... .. . P5D : ... .. 5 ... : ... .. . ... ... : ... .. 5 ... ... : ... .. . ... ... : ... .. . ... ...
ROW 11 : ... .. . ... ... ... : ... .. . ... ... ... : D#1 00 . P7E : ... .. . ... : ... .. . ... ... : ... .. 4 ... ... : ... .. . ... ... : ... .. . ... ...
ROW 12 : ... .. . ... ... ... : ... .. . ... ... ... : D-1 00 . PA4 : ... .. 4 ... : ... .. . ... ... : ... .. . ... ... : ... .. . ... ... : ... .. . ... ...
ROW 13 : ... .. . ... ... ... : ... .. . ... ... ... : ... .. . P74 : ... .. . ... : ... .. . ... ... : ... .. . ... ... : ... .. . ... ... : ... .. . ... ...
ROW 14 : ... .. . ... V00 ... : ... .. . ... ... ... : G#1 00 . P80 : 1-# 00 F ... : ... .. . ... ... : B-3 01 6 ... ... : ... .. . ... ... : ... .. . ... ...
ROW 15 : ... .. . ... ... ... : ... .. . ... ... ... : ... .. . ... : ... .. C ... : ... .. . ... ... : ... .. . ... ... : ... .. . ... ... : ... .. . ... ...
ROW 16 : ... .. . ... ... ... : ... .. . ... ... ... : ... .. . ... : ... .. 6 ... : ... .. . ... ... : ... .. 5 ... ... : ... .. . ... ... : ... .. . ... ...
ROW 17 : ... .. . ... ... ... : ... .. . ... ... ... : ... .. . ... : ... .. 3 ... : ... .. . ... ... : ... .. 4 ... ... : ... .. . ... ... : ... .. . ... ...
ROW 18 : ... .. . ... ... ... : ... .. . ... ... ... : ... .. . ... : ... .. 2 ... : ... .. . ... ... : ... .. . ... ... : ... .. . ... ... : ... .. . ... ...
ROW 19 : ... .. . ... ... ... : ... .. . ... ... ... : --- .. . ... : ... .. 0 ... : ... .. . ... ... : ... .. . ... ... : ... .. . ... ... : ... .. . ... ...
ROW 1A : ... .. . ... V02 ... : ... .. . ... ... ... : F-1 00 . ... : ... .. F ... : ... .. . ... ... : E-4 01 6 ... ... : ... .. . ... ... : ... .. . ... ...
ROW 1B : ... .. . ... ... ... : ... .. . ... ... ... : ... .. . ... : ... .. C ... : ... .. . ... ... : ... .. . ... ... : ... .. . ... ... : ... .. . ... ...
ROW 1C : ... .. . ... ... ... : ... .. . ... ... ... : ... .. . ... : ... .. 6 ... : ... .. . ... ... : ... .. 5 ... ... : ... .. . ... ... : ... .. . ... ...
ROW 1D : ... .. . ... ... ... : ... .. . ... ... ... : ... .. . ... : ... .. 3 ... : ... .. . ... ... : ... .. 4 ... ... : ... .. . ... ... : ... .. . ... ...
ROW 1E : ... .. . ... ... ... : ... .. . ... ... ... : ... .. . ... : ... .. 2 ... : ... .. . ... ... : ... .. . ... ... : ... .. . ... ... : ... .. . ... ...
ROW 1F : ... .. . ... ... ... : ... .. . ... ... ... : --- .. . ... : ... .. 0 ... : ... .. . ... ... : ... .. . ... ... : ... .. . ... ... : ... .. . ... ...
ROW 20 : ... .. . ... V01 ... : ... .. . ... ... ... : D#2 00 . ... : B-# 00 D ... : ... .. . ... ... : F#4 01 6 ... ... : ... .. . ... ... : ... .. . ... ...
ROW 21 : ... .. . ... ... ... : F#5 00 F ... ... ... : ... .. . ... : ... .. B ... : ... .. . ... ... : ... .. . ... ... : ... .. . ... ... : ... .. . ... ...
ROW 22 : ... .. . ... ... ... : E-5 00 F ... ... ... : ... .. . ... : ... .. . ... : ... .. . ... ... : ... .. 5 ... ... : ... .. . ... ... : ... .. . ... ...
ROW 23 : ... .. . ... ... ... : D-5 00 F P81 ... ... : ... .. . ... : ... .. A ... : ... .. . ... ... : ... .. 4 ... ... : ... .. . ... ... : ... .. . ... ...
ROW 24 : ... .. . ... ... ... : C#5 00 F P80 ... ... : ... .. . ... : ... .. 8 ... : ... .. . ... ... : ... .. . ... ... : ... .. . ... ... : ... .. . ... ...
ROW 25 : ... .. . ... ... ... : ... .. . ... ... ... : --- .. . ... : ... .. 7 ... : ... .. . ... ... : ... .. . ... ... : ... .. . ... ... : ... .. . ... ...
ROW 26 : ... .. 9 ... V02 ... : ... .. . ... ... ... : F-2 00 . ... : ... .. 6 ... : ... .. . ... ... : E-4 01 6 ... ... : ... .. . ... ... : ... .. . ... ...
ROW 27 : ... .. . ... ... ... : ... .. . ... ... ... : ... .. . ... : ... .. . ... : ... .. . ... ... : ... .. . ... ... : ... .. . ... ... : ... .. . ... ...
ROW 28 : ... .. . ... ... ... : ... .. . ... ... ... : ... .. . ... : ... .. 5 ... : ... .. . ... ... : ... .. 5 ... ... : ... .. . ... ... : ... .. . ... ...
ROW 29 : ... .. . ... ... ... : ... .. . ... ... ... : ... .. . ... : ... .. . ... : ... .. . ... ... : ... .. 4 ... ... : ... .. . ... ... : ... .. . ... ...
ROW 2A : ... .. . ... ... ... : ... .. . ... ... ... : ... .. . ... : ... .. 4 ... : ... .. . ... ... : ... .. . ... ... : ... .. . ... ... : ... .. . ... ...
ROW 2B : ... .. . ... ... ... : ... .. . ... ... ... : --- .. . ... : ... .. . ... : ... .. . ... ... : ... .. . ... ... : ... .. . ... ... : ... .. . ... ...
ROW 2C : ... .. . ... V00 ... : ... .. . ... ... ... : G#2 00 . ... : 1-# 00 F ... : ... .. . ... ... : B-3 01 6 ... ... : ... .. . ... ... : ... .. . ... ...
ROW 2D : ... .. . ... ... ... : ... .. . ... ... ... : ... .. . ... : ... .. C ... : ... .. . ... ... : ... .. . ... ... : ... .. . ... ... : ... .. 3 ... ...
ROW 2E : ... .. . ... ... ... : ... .. . ... ... ... : ... .. . ... : ... .. 6 ... : ... .. . ... ... : ... .. 5 ... ... : ... .. 2 ... ... : ... .. . ... ...
ROW 2F : ... .. . ... ... ... : ... .. . ... ... ... : ... .. . ... : ... .. 3 ... : ... .. . ... ... : ... .. 4 ... ... : ... .. . ... ... : ... .. 1 ... ...
ROW 30 : ... .. . ... ... ... : ... .. . ... ... ... : ... .. . ... : ... .. 2 ... : ... .. . ... ... : ... .. . ... ... : ... .. . ... ... : ... .. . ... ...
ROW 31 : ... .. . ... ... ... : ... .. . ... ... ... : --- .. . ... : ... .. 0 ... : ... .. . ... ... : ... .. . ... ... : ... .. . ... ... : ... .. . ... ...
ROW 32 : ... .. . ... V01 ... : ... .. . ... ... ... : A#2 00 . ... : ... .. F ... : ... .. . ... ... : C#4 01 6 ... ... : ... .. . ... ... : ... .. . ... ...
ROW 33 : ... .. . ... ... ... : ... .. . ... ... ... : ... .. . ... : ... .. C ... : ... .. . ... ... : ... .. . ... ... : ... .. . ... ... : ... .. . ... ...
ROW 34 : ... .. . ... ... ... : ... .. . ... ... ... : ... .. . ... : ... .. 6 ... : ... .. . ... ... : ... .. 5 ... ... : ... .. . ... ... : ... .. . ... ...
ROW 35 : ... .. . ... ... ... : D-5 00 F P7E ... ... : ... .. . ... : ... .. 3 ... : ... .. . ... ... : ... .. 4 ... ... : ... .. . ... ... : ... .. . ... ...
ROW 36 : ... .. . ... ... ... : ... .. . P80 ... ... : ... .. . ... : ... .. 2 ... : ... .. . ... ... : ... .. . ... ... : ... .. . ... ... : ... .. 0 ... ...
ROW 37 : ... .. . ... ... ... : ... .. . P7F ... ... : --- .. . ... : ... .. 0 ... : ... .. . ... ... : ... .. . ... ... : ... .. . ... ... : ... .. . ... ...
ROW 38 : G#3 00 F ... ... ... : C#5 00 F P82 ... ... : A-5 00 . ... : B-# 00 D ... : ... .. . ... ... : G#4 01 6 ... ... : F#2 01 8 ... ... : G#2 01 C ... ...
ROW 39 : ... .. E ... ... ... : ... .. . P7E ... ... : B-4 00 . ... : ... .. B ... : ... .. . ... ... : ... .. . ... ... : ... .. 7 ... ... : ... .. A ... ...
ROW 3A : ... .. D ... ... ... : C-5 00 F P81 ... ... : E-4 00 . ... : ... .. . ... : ... .. . ... ... : ... .. 5 ... ... : ... .. 6 ... ... : ... .. 6 ... ...
ROW 3B : ... .. A ... ... ... : ... .. . P80 ... ... : D#4 00 . ... : ... .. A ... : ... .. . ... ... : ... .. 4 ... ... : ... .. 5 ... ... : ... .. . ... ...
ROW 3C : ... .. . ... ... ... : ... .. . P82 ... ... : A#3 00 . ... : ... .. 8 ... : ... .. . ... ... : ... .. . ... ... : ... .. . ... ... : ... .. . ... ...
ROW 3D : ... .. . ... ... ... : C#5 00 F P80 ... ... : ... .. . ... : ... .. 7 ... : ... .. . ... ... : ... .. . ... ... : ... .. 4 ... ... : ... .. . ... ...
ROW 3E : ... .. . ... V02 ... : ... .. . P83 ... ... : ... .. . ... : ... .. 6 ... : ... .. . ... ... : F#4 01 6 ... ... : ... .. . ... ... : ... .. . ... ...
ROW 3F : ... .. . ... ... ... : D-5 00 F P80 ... ... : ... .. . ... : ... .. . ... : ... .. . ... ... : ... .. . ... ... : ... .. . ... ... : ... .. . ... ...
ROW 40 : ... .. . ... ... ... : ... .. . ... ... ... : ... .. . ... : ... .. 5 ... : ... .. . ... ... : ... .. 5 ... ... : ... .. . ... ... : ... .. . ... ...
ROW 41 : ... .. . ... ... ... : C#5 00 F P82 ... ... : ... .. . ... : ... .. . ... : ... .. . ... ... : ... .. 4 ... ... : ... .. . ... ... : ... .. . ... ...
ROW 42 : ... .. . ... ... ... : ... .. . P7F ... ... : ... .. . ... : ... .. 4 ... : ... .. . ... ... : ... .. . ... ... : ... .. . ... ... : ... .. . ... ...
ROW 43 : ... .. . ... ... ... : C-5 00 F P81 ... ... : ... .. . ... : ... .. . ... : ... .. . ... ... : ... .. . ... ... : ... .. . ... ... : ... .. . ... ...
ROW 44 : ... .. . ... V00 ... : ... .. . P80 ... ... : ... .. . ... : 1-# 00 F ... : ... .. . ... ... : C#4 01 6 ... ... : ... .. . ... ... : ... .. . ... ...
ROW 45 : ... .. . ... ... ... : ... .. . P82 ... ... : ... .. . ... : ... .. C ... : ... .. . ... ... : ... .. . ... ... : ... .. . ... ... : ... .. . ... ...
ROW 46 : ... .. . ... ... ... : C#5 00 F P80 ... ... : ... .. . ... : ... .. 6 ... : ... .. . ... ... : ... .. 5 ... ... : ... .. . ... ... : ... .. . ... ...
ROW 47 : ... .. . ... ... ... : ... .. . P83 ... ... : ... .. . ... : ... .. 3 ... : ... .. . ... ... : ... .. 4 ... ... : ... .. . ... ... : ... .. . ... ...
ROW 48 : ... .. . ... ... ... : D-5 00 F P80 ... ... : ... .. . ... : ... .. 2 ... : ... .. . ... ... : ... .. . ... ... : ... .. . ... ... : ... .. . ... ...
ROW 49 : ... .. . ... ... ... : ... .. . ... ... ... : ... .. . ... : ... .. 0 ... : ... .. . ... ... : ... .. . ... ... : ... .. . ... ... : ... .. . ... ...
ROW 4A : ... .. . ... V01 ... : C#5 00 F P83 ... ... : ... .. . ... : ... .. F ... : ... .. . ... ... : D#4 01 6 ... ... : ... .. . ... ... : ... .. . ... ...
ROW 4B : ... .. . ... ... ... : ... .. . P80 ... ... : ... .. . ... : ... .. C ... : ... .. . ... ... : ... .. . ... ... : ... .. . ... ... : ... .. . ... ...
ROW 4C : ... .. . ... ... ... : C-5 00 F P82 ... ... : ... .. . ... : ... .. 6 ... : ... .. . ... ... : ... .. 5 ... ... : ... .. . ... ... : ... .. . ... ...
ROW 4D : ... .. . ... ... ... : ... .. . P80 ... ... : ... .. . ... : ... .. 3 ... : ... .. . ... ... : ... .. 4 ... ... : ... .. . ... ... : ... .. . ... ...
ROW 4E : ... .. . ... ... ... : ... .. . P81 ... ... : ... .. . ... : ... .. 2 ... : ... .. . ... ... : ... .. . ... ... : ... .. . ... ... : ... .. . ... ...
ROW 4F : ... .. . ... ... ... : C#5 00 F P7F ... ... : ... .. . ... : ... .. 0 ... : ... .. . ... ... : ... .. . ... ... : ... .. . ... ... : ... .. . ... ...
ROW 50 : ... .. . ... V02 ... : ... .. . P82 ... ... : G-3 00 . P7D : B-# 00 D ... : ... .. . ... ... : C#4 01 6 ... ... : ... .. . ... ... : ... .. . ... ...
ROW 51 : ... .. . ... ... ... : D-5 00 F P80 ... ... : E-3 00 . P83 : ... .. B ... : ... .. . ... ... : ... .. . ... ... : ... .. . ... ... : ... .. . ... ...
ROW 52 : ... .. . ... ... ... : ... .. . ... ... ... : D-3 00 . P7D : ... .. . ... : ... .. . ... ... : ... .. 5 ... ... : ... .. . ... ... : ... .. . ... ...
ROW 53 : ... .. . ... ... ... : C#5 00 F ... ... ... : C-3 00 . P7C : ... .. A ... : ... .. . ... ... : ... .. 4 ... ... : ... .. . ... ... : ... .. . ... ...
ROW 54 : ... .. . ... ... ... : ... .. . ... ... ... : A#2 00 . P80 : ... .. 8 ... : ... .. . ... ... : ... .. . ... ... : ... .. . ... ... : ... .. . ... ...
ROW 55 : ... .. . ... ... ... : ... .. . ... ... ... : G#2 00 . P8B : ... .. 7 ... : ... .. . ... ... : ... .. . ... ... : ... .. . ... ... : ... .. . ... ...
ROW 56 : ... .. . ... V03 ... : G#4 00 F P82 ... ... : G-2 00 . P7B : ... .. 6 ... : ... .. . ... ... : F#4 01 6 ... ... : ... .. . ... ... : ... .. . ... ...
ROW 57 : ... .. . ... ... ... : E-4 00 F P85 ... ... : F-2 00 . P91 : ... .. . ... : ... .. . ... ... : ... .. . ... ... : ... .. . ... ... : ... .. 3 ... ...
ROW 58 : ... .. . ... ... ... : C#4 00 F ... ... ... : E-2 00 . P87 : ... .. 5 ... : ... .. . ... ... : ... .. 5 ... ... : ... .. 2 ... ... : ... .. . ... ...
ROW 59 : ... .. . ... ... ... : B-3 00 F P7D ... ... : D#2 00 . P7F : ... .. . ... : ... .. . ... ... : ... .. 4 ... ... : ... .. . ... ... : ... .. 1 ... ...
ROW 5A : ... .. . ... ... ... : A-3 00 F P79 ... ... : D-2 00 . P7A : ... .. 4 ... : ... .. . ... ... : ... .. . ... ... : ... .. . ... ... : ... .. . ... ...
ROW 5B : ... .. . ... ... ... : G-3 00 F P78 ... ... : C#2 00 . P77 : ... .. . ... : ... .. . ... ... : ... .. . ... ... : ... .. . ... ... : ... .. . ... ...
ROW 5C : A#3 00 F ... V02 ... : D#4 00 F P80 ... ... : A-4 00 . P80 : 1-# 00 F ... : ... .. . ... ... : A#4 01 6 ... ... : G#2 01 8 ... ... : A#2 01 C ... ...
ROW 5D : ... .. E ... ... ... : ... .. . ... ... ... : B-3 00 . ... : ... .. C ... : ... .. . ... ... : ... .. . ... ... : ... .. 7 ... ... : ... .. A ... ...
ROW 5E : ... .. D ... ... ... : ... .. . ... ... ... : E-3 00 . ... : ... .. 6 ... : ... .. . ... ... : ... .. 5 ... ... : ... .. 6 ... ... : ... .. 6 ... ...
ROW 5F : ... .. A ... ... ... : ... .. . ... ... ... : D#3 00 . ... : ... .. 3 ... : ... .. . ... ... : ... .. 4 ... ... : ... .. 5 ... ... : ... .. . ... ...
ROW 60 : ... .. . ... ... ... : E-4 00 F ... ... ... : A#2 00 . ... : ... .. 2 ... : ... .. . ... ... : ... .. . ... ... : ... .. . ... ... : ... .. . ... ...
ROW 61 : ... .. . ... ... ... : ... .. . ... ... ... : ... .. . ... : ... .. 0 ... : ... .. . ... ... : ... .. . ... ... : ... .. 4 ... ... : ... .. . ... ...
ROW 62 : ... .. . ... V00 ... : ... .. . ... ... ... : ... .. . ... : ... .. F ... : ... .. . ... ... : G#4 01 6 ... ... : ... .. . ... ... : ... .. . ... ...
ROW 63 : ... .. . ... ... ... : F-4 00 F ... ... ... : ... .. . ... : ... .. C ... : ... .. . ... ... : ... .. . ... ... : ... .. . ... ... : ... .. . ... ...
ROW 64 : ... .. . ... ... ... : ... .. . ... ... ... : ... .. . ... : ... .. 6 ... : ... .. . ... ... : ... .. 5 ... ... : ... .. . ... ... : ... .. . ... ...
ROW 65 : ... .. . ... ... ... : ... .. . ... ... ... : ... .. . ... : ... .. 3 ... : ... .. . ... ... : ... .. 4 ... ... : ... .. . ... ... : ... .. . ... ...
ROW 66 : ... .. . ... ... ... : ... .. . ... ... ... : ... .. . ... : ... .. 2 ... : ... .. . ... ... : ... .. . ... ... : ... .. . ... ... : ... .. . ... ...
ROW 67 : ... .. . ... ... ... : ... .. . ... ... ... : ... .. . ... : ... .. 0 ... : ... .. . ... ... : ... .. . ... ... : ... .. . ... ... : ... .. . ... ...
ROW 68 : ... .. . ... V03 ... : D#5 00 F ... ... ... : ... .. . ... : B-# 00 D ... : ... .. . ... ... : D#4 01 6 ... ... : ... .. . ... ... : ... .. . ... ...
ROW 69 : ... .. . ... ... ... : ... .. . ... ... ... : ... .. . ... : ... .. B ... : ... .. . ... ... : ... .. . ... ... : ... .. . ... ... : ... .. . ... ...
ROW 6A : ... .. . ... ... ... : ... .. . ... ... ... : ... .. . ... : ... .. . ... : ... .. . ... ... : ... .. 5 ... ... : ... .. . ... ... : ... .. . ... ...
ROW 6B : ... .. . ... ... ... : ... .. . ... ... ... : ... .. . ... : ... .. A ... : ... .. . ... ... : ... .. 4 ... ... : ... .. . ... ... : ... .. . ... ...
ROW 6C : ... .. . ... ... ... : ... .. . ... ... ... : ... .. . ... : ... .. 8 ... : ... .. . ... ... : ... .. . ... ... : ... .. . ... ... : ... .. . ... ...
ROW 6D : ... .. . ... ... ... : ... .. . ... ... ... : ... .. . ... : ... .. 7 ... : ... .. . ... ... : ... .. . ... ... : ... .. . ... ... : ... .. . ... ...
ROW 6E : ... .. . ... V02 ... : C#5 00 F ... ... ... : G#2 00 . P8B : ... .. D ... : ... .. . ... ... : F-4 01 6 ... ... : ... .. . ... ... : ... .. . ... ...
ROW 6F : ... .. . ... ... ... : ... .. . ... ... ... : G-2 00 . P7B : ... .. B ... : ... .. . ... ... : ... .. . ... ... : ... .. . ... ... : ... .. . ... ...
ROW 70 : ... .. . ... ... ... : ... .. . ... ... ... : F-2 00 . P91 : ... .. . ... : ... .. . ... ... : ... .. 5 ... ... : ... .. . ... ... : ... .. . ... ...
ROW 71 : ... .. . ... ... ... : ... .. . ... ... ... : E-2 00 . P87 : ... .. A ... : ... .. . ... ... : ... .. 4 ... ... : ... .. . ... ... : ... .. . ... ...
ROW 72 : ... .. . ... ... ... : ... .. . ... ... ... : D#2 00 . P7F : ... .. 8 ... : ... .. . ... ... : ... .. . ... ... : ... .. . ... ... : ... .. . ... ...
ROW 73 : ... .. . ... ... ... : ... .. . ... ... ... : D-2 00 . P7A : ... .. 7 ... : ... .. . ... ... : ... .. . ... ... : ... .. . ... ... : ... .. . ... ...
ROW 74 : ... .. . ... V00 ... : G#4 00 F ... V01 ... : G#2 00 . P80 : 1-# 00 F ... : ... .. . ... ... : D#4 01 6 ... ... : ... .. . ... ... : ... .. . ... ...
ROW 75 : ... .. . ... ... ... : ... .. . ... ... ... : ... .. . ... : ... .. C ... : ... .. . ... ... : ... .. . ... ... : ... .. . ... ... : ... .. . ... ...
ROW 76 : ... .. . ... ... ... : ... .. . ... ... ... : ... .. . ... : ... .. 6 ... : ... .. . ... ... : ... .. 5 ... ... : ... .. . ... ... : ... .. . ... ...
ROW 77 : ... .. . ... ... ... : ... .. . ... ... ... : ... .. . ... : ... .. 3 ... : ... .. . ... ... : ... .. 4 ... ... : ... .. . ... ... : ... .. . ... ...
ROW 78 : ... .. . ... ... ... : ... .. . ... ... ... : ... .. . ... : ... .. 2 ... : ... .. . ... ... : ... .. . ... ... : ... .. . ... ... : ... .. . ... ...
ROW 79 : ... .. . ... ... ... : ... .. . ... ... ... : --- .. . ... : ... .. 0 ... : ... .. . ... ... : ... .. . ... ... : ... .. . ... ... : ... .. . ... ...
ROW 7A : ... .. . ... V02 ... : D#4 00 F ... V02 ... : F-2 00 . ... : ... .. F ... : ... .. . ... ... : G#4 01 6 ... ... : ... .. . ... ... : ... .. . ... ...
ROW 7B : ... .. . ... ... ... : ... .. . ... ... ... : ... .. . ... : ... .. C ... : ... .. . ... ... : ... .. . ... ... : ... .. . ... ... : ... .. . ... ...
ROW 7C : ... .. . ... ... ... : ... .. . ... ... ... : ... .. . ... : ... .. 6 ... : ... .. . ... ... : ... .. 5 ... ... : ... .. . ... ... : ... .. . ... ...
ROW 7D : ... .. . ... ... ... : ... .. . ... ... ... : ... .. . ... : ... .. 3 ... : ... .. . ... ... : ... .. 4 ... ... : ... .. . ... ... : ... .. . ... ...
ROW 7E : ... .. . ... ... ... : ... .. . ... ... ... : ... .. . ... : ... .. 2 ... : ... .. . ... ... : ... .. . ... ... : ... .. . ... ... : ... .. . ... ...
ROW 7F : ... .. . ... ... ... : ... .. . ... ... ... : --- .. . ... : ... .. 0 ... : ... .. . ... ... : ... .. . ... ... : ... .. . ... ... : ... .. . ... ...
ROW 80 : ... .. . ... V01 ... : C#4 00 F ... V03 ... : D#3 00 . ... : 9-# 00 D ... : ... .. . ... ... : A#4 01 6 ... ... : ... .. . ... ... : ... .. . ... ...
ROW 81 : ... .. . ... ... ... : ... .. . ... ... ... : ... .. . ... : ... .. B ... : ... .. . ... ... : ... .. . ... ... : ... .. . ... ... : ... .. . ... ...
ROW 82 : ... .. . ... ... ... : ... .. . ... ... ... : ... .. . ... : ... .. . ... : ... .. . ... ... : ... .. 5 ... ... : ... .. . ... ... : ... .. . ... ...
ROW 83 : ... .. . ... ... ... : ... .. . ... ... ... : ... .. . ... : ... .. A ... : ... .. . ... ... : ... .. 4 ... ... : ... .. . ... ... : ... .. . ... ...
ROW 84 : ... .. . ... ... ... : ... .. . ... ... ... : ... .. . ... : ... .. 8 ... : ... .. . ... ... : ... .. . ... ... : ... .. . ... ... : ... .. . ... ...
ROW 85 : ... .. . ... ... ... : ... .. . ... ... ... : --- .. . ... : ... .. 7 ... : ... .. . ... ... : ... .. . ... ... : ... .. . ... ... : ... .. . ... ...
ROW 86 : ... .. . ... V02 ... : C-4 00 F ... ... ... : F-3 00 . ... : ... .. D ... : ... .. . ... ... : G#4 01 6 ... ... : ... .. . ... ... : ... .. . ... ...
ROW 87 : ... .. . ... ... ... : ... .. . ... ... ... : ... .. . ... : ... .. B ... : ... .. . ... ... : ... .. . ... ... : ... .. . ... ... : ... .. . ... ...
ROW 88 : ... .. . ... ... ... : ... .. . ... ... ... : ... .. . ... : ... .. . ... : ... .. . ... ... : ... .. 5 ... ... : ... .. . ... ... : ... .. . ... ...
ROW 89 : ... .. . ... ... ... : ... .. . ... ... ... : ... .. . ... : ... .. A ... : ... .. . ... ... : ... .. 4 ... ... : ... .. . ... ... : ... .. . ... ...
ROW 8A : ... .. . ... ... ... : ... .. . ... ... ... : ... .. . ... : ... .. 8 ... : ... .. . ... ... : ... .. . ... ... : ... .. . ... ... : ... .. . ... ...
ROW 8B : ... .. . ... ... ... : ... .. . ... ... ... : --- .. . ... : ... .. 7 ... : ... .. . ... ... : ... .. . ... ... : ... .. . ... ... : ... .. . ... ...
ROW 8C : ... .. . ... V00 ... : C#4 00 F ... V00 ... : G#3 00 . ... : 1-# 00 F ... : ... .. . ... ... : D#4 01 6 ... ... : ... .. . ... ... : ... .. . ... ...
ROW 8D : ... .. . ... ... ... : ... .. . ... ... ... : ... .. . ... : ... .. C ... : ... .. . ... ... : ... .. . ... ... : ... .. . ... ... : ... .. . ... ...
ROW 8E : ... .. . ... ... ... : ... .. . ... ... ... : ... .. . ... : ... .. 6 ... : ... .. . ... ... : ... .. 5 ... ... : ... .. . ... ... : ... .. . ... ...
ROW 8F : ... .. . ... ... ... : ... .. . ... ... ... : ... .. . ... : ... .. 3 ... : ... .. . ... ... : ... .. 4 ... ... : ... .. . ... ... : ... .. . ... ...
ROW 90 : ... .. . ... ... ... : ... .. . ... ... ... : ... .. . ... : ... .. 2 ... : ... .. . ... ... : ... .. . ... ... : ... .. . ... ... : ... .. . ... ...
ROW 91 : ... .. . ... ... ... : ... .. . ... ... ... : --- .. . ... : ... .. 0 ... : ... .. . ... ... : ... .. . ... ... : ... .. . ... ... : ... .. . ... ...
ROW 92 : ... .. . ... V01 ... : D#4 00 F ... V01 ... : A#3 00 . ... : ... .. F ... : ... .. . ... ... : F-4 01 6 ... ... : ... .. . ... ... : ... .. . ... ...
ROW 93 : ... .. . ... ... ... : ... .. . ... ... ... : ... .. . ... : ... .. C ... : ... .. . ... ... : ... .. . ... ... : ... .. . ... ... : ... .. 3 ... ...
ROW 94 : ... .. . ... ... ... : ... .. . ... ... ... : ... .. . ... : ... .. 6 ... : ... .. . ... ... : ... .. 5 ... ... : ... .. 2 ... ... : ... .. . ... ...
ROW 95 : ... .. . ... ... ... : ... .. . ... ... ... : ... .. . ... : ... .. 3 ... : ... .. . ... ... : ... .. 4 ... ... : ... .. . ... ... : ... .. 1 ... ...
ROW 96 : ... .. . ... ... ... : ... .. . ... ... ... : ... .. . ... : ... .. 2 ... : ... .. . ... ... : ... .. . ... ... : ... .. . ... ... : ... .. . ... ...
ROW 97 : ... .. . ... ... ... : ... .. . ... ... ... : --- .. . ... : ... .. 0 ... : ... .. . ... ... : ... .. . ... ... : ... .. . ... ... : ... .. . ... ...
ROW 98 : F#4 00 F ... ... ... : ... .. . ... ... ... : A#4 00 . ... : B-# 00 D ... : ... .. . ... ... : B-3 01 8 ... ... : D#3 01 8 ... ... : G#3 01 C ... ...
ROW 99 : ... .. E ... ... ... : E-4 00 F P85 ... ... : C-4 00 . ... : ... .. B ... : ... .. . ... ... : ... .. 7 ... ... : ... .. 7 ... ... : ... .. A ... ...
ROW 9A : ... .. D ... ... ... : F#4 00 F P81 ... ... : F-3 00 . ... : ... .. . ... : ... .. . ... ... : ... .. 6 ... ... : ... .. 6 ... ... : ... .. 6 ... ...
ROW 9B : ... .. A ... ... ... : G#4 00 F P80 ... ... : E-3 00 . ... : ... .. A ... : ... .. . ... ... : ... .. 4 ... ... : ... .. 5 ... ... : ... .. . ... ...
ROW 9C : ... .. . ... ... ... : ... .. . ... ... ... : B-2 00 . ... : ... .. 8 ... : ... .. . ... ... : ... .. . ... ... : ... .. . ... ... : ... .. . ... ...
ROW 9D : ... .. . ... ... ... : ... .. . ... ... ... : ... .. . ... : ... .. 7 ... : ... .. . ... ... : ... .. 2 ... ... : ... .. 4 ... ... : ... .. . ... ...
ROW 9E : ... .. . ... V02 ... : ... .. . ... ... ... : ... .. . ... : ... .. 6 ... : ... .. . ... ... : ... .. 8 ... ... : ... .. . ... ... : ... .. . ... ...
ROW 9F : ... .. . ... ... ... : ... .. . ... ... ... : ... .. . ... : ... .. . ... : ... .. . ... ... : ... .. 7 ... ... : ... .. . ... ... : ... .. . ... ...
ROW A0 : ... .. . ... ... ... : ... .. . ... ... ... : ... .. . ... : ... .. 5 ... : ... .. . ... ... : ... .. 6 ... ... : ... .. . ... ... : ... .. . ... ...
ROW A1 : ... .. . ... ... ... : ... .. . ... ... ... : ... .. . ... : ... .. . ... : ... .. . ... ... : ... .. 5 ... ... : ... .. . ... ... : ... .. . ... ...
ROW A2 : ... .. . ... ... ... : ... .. . ... ... ... : ... .. . ... : ... .. 4 ... : ... .. . ... ... : ... .. . ... ... : ... .. . ... ... : ... .. . ... ...
ROW A3 : ... .. . ... ... ... : ... .. . ... ... ... : ... .. . ... : ... .. . ... : ... .. . ... ... : ... .. 4 ... ... : ... .. . ... ... : ... .. . ... ...
ROW A4 : ... .. . ... V00 ... : ... .. . ... ... ... : ... .. . ... : 1-# 00 F ... : ... .. . ... ... : ... .. . ... ... : ... .. . ... ... : ... .. . ... ...
ROW A5 : ... .. . ... ... ... : ... .. . ... ... ... : ... .. . ... : ... .. C ... : ... .. . ... ... : ... .. . ... ... : ... .. . ... ... : ... .. . ... ...
ROW A6 : ... .. . ... ... ... : ... .. . ... ... ... : ... .. . ... : ... .. 6 ... : ... .. . ... ... : ... .. 2 ... ... : ... .. . ... ... : ... .. . ... ...
ROW A7 : ... .. . ... ... ... : ... .. . ... ... ... : ... .. . ... : ... .. 3 ... : ... .. . ... ... : ... .. . ... ... : ... .. . ... ... : ... .. . ... ...
ROW A8 : ... .. . ... ... ... : ... .. . ... ... ... : ... .. . ... : ... .. 2 ... : ... .. . ... ... : ... .. . ... ... : ... .. . ... ... : ... .. . ... ...
ROW A9 : ... .. . ... ... ... : ... .. . ... ... ... : ... .. . ... : ... .. 0 ... : ... .. . ... ... : ... .. . ... ... : ... .. . ... ... : ... .. . ... ...
ROW AA : ... .. . ... V01 ... : D#4 00 F ... ... ... : A#2 00 . P7B : ... .. F ... : ... .. . ... ... : ... .. 8 ... ... : ... .. . ... ... : ... .. . ... ...
ROW AB : ... .. . ... ... ... : ... .. . ... ... ... : A-2 00 . P77 : ... .. C ... : ... .. . ... ... : ... .. 7 ... ... : ... .. . ... ... : ... .. . ... ...
ROW AC : ... .. . ... ... ... : ... .. . ... ... ... : G#2 00 . P76 : ... .. 6 ... : ... .. . ... ... : ... .. 6 ... ... : ... .. . ... ... : ... .. . ... ...
ROW AD : ... .. . ... ... ... : ... .. . ... ... ... : G-2 00 . ... : ... .. 3 ... : ... .. . ... ... : ... .. 4 ... ... : ... .. . ... ... : ... .. . ... ...
ROW AE : ... .. . ... ... ... : ... .. . P85 ... ... : F#2 00 . P78 : ... .. 2 ... : ... .. . ... ... : ... .. . ... ... : ... .. . ... ... : ... .. . ... ...
ROW AF : ... .. . ... ... ... : E-4 00 F P80 ... ... : F-2 00 . P7C : ... .. 0 ... : ... .. . ... ... : ... .. 2 ... ... : ... .. . ... ... : ... .. . ... ...
ROW B0 : ... .. . ... V02 ... : ... .. . P85 ... ... : E-2 00 . P82 : B-# 00 D ... : ... .. . ... ... : ... .. 8 ... ... : ... .. . ... ... : ... .. . ... ...
ROW B1 : ... .. . ... ... ... : F-4 00 F P80 ... ... : D#2 00 . P8A : ... .. B ... : ... .. . ... ... : ... .. 7 ... ... : ... .. . ... ... : ... .. . ... ...
ROW B2 : ... .. . ... ... ... : ... .. . ... ... ... : D-2 00 . P95 : ... .. . ... : ... .. . ... ... : ... .. 6 ... ... : ... .. . ... ... : ... .. . ... ...
ROW B3 : ... .. . ... ... ... : ... .. . ... ... ... : ... .. . P75 : ... .. A ... : ... .. . ... ... : ... .. 5 ... ... : ... .. . ... ... : ... .. . ... ...
ROW B4 : ... .. . ... ... ... : ... .. . ... ... ... : C#2 00 . P82 : ... .. 8 ... : ... .. . ... ... : ... .. . ... ... : ... .. . ... ... : ... .. . ... ...
ROW B5 : ... .. . ... ... ... : ... .. . ... ... ... : C-2 00 . P92 : ... .. 7 ... : ... .. . ... ... : ... .. 4 ... ... : ... .. . ... ... : ... .. . ... ...
ROW B6 : ... .. . ... V03 ... : ... .. . ... ... ... : ... .. . P72 : ... .. 6 ... : ... .. . ... ... : ... .. . ... ... : ... .. . ... ... : ... .. . ... ...
ROW B7 : ... .. . ... ... ... : ... .. . ... ... ... : B-1 00 . P85 : ... .. . ... : ... .. . ... ... : ... .. . ... ... : ... .. . ... ... : ... .. 3 ... ...
ROW B8 : ... .. . ... ... ... : ... .. . ... ... ... : A#1 00 . P9B : ... .. 5 ... : ... .. . ... ... : ... .. 2 ... ... : ... .. 2 ... ... : ... .. . ... ...
ROW B9 : ... .. . ... ... ... : ... .. . ... ... ... : ... .. . P7B : ... .. . ... : ... .. . ... ... : ... .. . ... ... : ... .. . ... ... : ... .. 1 ... ...
ROW BA : ... .. . ... ... ... : ... .. . ... ... ... : A-1 00 . P94 : ... .. 4 ... : ... .. . ... ... : ... .. . ... ... : ... .. . ... ... : ... .. . ... ...
ROW BB : ... .. . ... ... ... : ... .. . ... ... ... : ... .. . P74 : ... .. . ... : ... .. . ... ... : ... .. . ... ... : ... .. . ... ... : ... .. . ... ...
ROW BC : F-4 00 F ... V02 ... : D#4 00 F ... V02 ... : A#3 00 . P80 : 1-# 00 F ... : ... .. . ... ... : C#4 01 8 ... ... : F#3 01 8 ... ... : A#3 01 C ... ...
ROW BD : ... .. E ... ... ... : ... .. . ... ... ... : C-3 00 . ... : ... .. C ... : ... .. . ... ... : ... .. 7 ... ... : ... .. 7 ... ... : ... .. A ... ...
ROW BE : ... .. D ... ... ... : ... .. . ... ... ... : F-2 00 . ... : ... .. 6 ... : ... .. . ... ... : ... .. 6 ... ... : ... .. 6 ... ... : ... .. 6 ... ...
ROW BF : ... .. A ... ... ... : ... .. . ... ... ... : E-2 00 . ... : ... .. 3 ... : ... .. . ... ... : ... .. 4 ... ... : ... .. 5 ... ... : ... .. . ... ...
ROW C0 : ... .. . ... ... ... : ... .. . ... ... ... : B-1 00 . ... : ... .. 2 ... : ... .. . ... ... : ... .. . ... ... : ... .. . ... ... : ... .. . ... ...
ROW C1 : ... .. . ... ... ... : ... .. . ... ... ... : ... .. . ... : ... .. 0 ... : ... .. . ... ... : ... .. 2 ... ... : ... .. 4 ... ... : ... .. . ... ...
ROW C2 : ... .. . ... V00 ... : ... .. . ... ... ... : ... .. . ... : ... .. F ... : ... .. . ... ... : ... .. 8 ... ... : ... .. . ... ... : ... .. . ... ...
ROW C3 : ... .. . ... ... ... : ... .. . ... ... ... : ... .. . ... : ... .. C ... : ... .. . ... ... : ... .. 7 ... ... : ... .. . ... ... : ... .. . ... ...
ROW C4 : ... .. . ... ... ... : ... .. . ... ... ... : ... .. . ... : ... .. 6 ... : ... .. . ... ... : ... .. 6 ... ... : ... .. . ... ... : ... .. . ... ...
ROW C5 : ... .. . ... ... ... : ... .. . ... ... ... : ... .. . ... : ... .. 3 ... : ... .. . ... ... : ... .. 5 ... ... : ... .. . ... ... : ... .. . ... ...
ROW C6 : ... .. . ... ... ... : ... .. . ... ... ... : ... .. . ... : ... .. 2 ... : ... .. . ... ... : ... .. . ... ... : ... .. . ... ... : ... .. . ... ...
ROW C7 : ... .. . ... ... ... : ... .. . ... ... ... : ... .. . ... : ... .. 0 ... : ... .. . ... ... : ... .. 4 ... ... : ... .. . ... ... : ... .. . ... ...
ROW C8 : ... .. . ... V03 ... : ... .. . ... ... ... : ... .. . ... : B-# 00 D ... : ... .. . ... ... : ... .. . ... ... : ... .. . ... ... : ... .. . ... ...
ROW C9 : ... .. . ... ... ... : ... .. . ... ... ... : ... .. . ... : ... .. B ... : ... .. . ... ... : ... .. . ... ... : ... .. . ... ... : ... .. . ... ...
ROW CA : ... .. . ... ... ... : ... .. . ... ... ... : ... .. . ... : ... .. . ... : ... .. . ... ... : ... .. 2 ... ... : ... .. . ... ... : ... .. . ... ...
ROW CB : ... .. . ... ... ... : ... .. . ... ... ... : ... .. . ... : ... .. A ... : ... .. . ... ... : ... .. . ... ... : ... .. . ... ... : ... .. . ... ...
ROW CC : ... .. . ... ... ... : ... .. . ... ... ... : ... .. . ... : ... .. 8 ... : ... .. . ... ... : ... .. . ... ... : ... .. . ... ... : ... .. . ... ...
ROW CD : ... .. . ... ... ... : ... .. . ... ... ... : ... .. . ... : ... .. 7 ... : ... .. . ... ... : ... .. . ... ... : ... .. . ... ... : ... .. . ... ...
ROW CE : ... .. . ... V02 ... : ... .. . ... ... ... : A#1 00 . P86 : ... .. 6 ... : ... .. . ... ... : ... .. 8 ... ... : ... .. . ... ... : ... .. . ... ...
ROW CF : ... .. . ... ... ... : ... .. . ... ... ... : A-1 00 . P8F : ... .. . ... : ... .. . ... ... : ... .. 7 ... ... : ... .. . ... ... : ... .. . ... ...
ROW D0 : ... .. . ... ... ... : ... .. . ... ... ... : G#1 00 . P9B : ... .. 5 ... : ... .. . ... ... : ... .. 6 ... ... : ... .. . ... ... : ... .. . ... ...
ROW D1 : ... .. . ... ... ... : ... .. . ... ... ... : ... .. . P6B : ... .. . ... : ... .. . ... ... : ... .. 4 ... ... : ... .. . ... ... : ... .. . ... ...
ROW D2 : ... .. . ... ... ... : ... .. . ... ... ... : G-1 00 . P7B : ... .. 4 ... : ... .. . ... ... : ... .. . ... ... : ... .. . ... ... : ... .. . ... ...
ROW D3 : ... .. . ... ... ... : ... .. . ... ... ... : F#1 00 . P8F : ... .. . ... : ... .. . ... ... : ... .. 2 ... ... : ... .. . ... ... : ... .. . ... ...
ROW D4 : ... .. . ... V00 ... : ... .. . ... ... ... : A#1 00 . P80 : 1-# 00 F ... : ... .. . ... ... : ... .. 8 ... ... : ... .. . ... ... : ... .. . ... ...
ROW D5 : ... .. . ... ... ... : E-4 00 F P85 ... ... : ... .. . ... : ... .. C ... : ... .. . ... ... : ... .. 7 ... ... : ... .. . ... ... : ... .. . ... ...
ROW D6 : ... .. . ... ... ... : F#4 00 F P81 ... ... : ... .. . ... : ... .. 6 ... : ... .. . ... ... : ... .. 6 ... ... : ... .. . ... ... : ... .. . ... ...
ROW D7 : ... .. . ... ... ... : G#4 00 F P80 ... ... : ... .. . ... : ... .. 3 ... : ... .. . ... ... : ... .. 5 ... ... : ... .. . ... ... : ... .. . ... ...
ROW D8 : ... .. . ... ... ... : ... .. . ... ... ... : ... .. . ... : ... .. 2 ... : ... .. . ... ... : ... .. . ... ... : ... .. . ... ... : ... .. . ... ...
ROW D9 : ... .. . ... ... ... : ... .. . ... ... ... : --- .. . ... : ... .. 0 ... : ... .. . ... ... : ... .. 4 ... ... : ... .. . ... ... : ... .. . ... ...
ROW DA : ... .. . ... V02 ... : ... .. . ... ... ... : F#1 00 . ... : ... .. F ... : ... .. . ... ... : ... .. . ... ... : ... .. . ... ... : ... .. . ... ...
ROW DB : ... .. . ... ... ... : ... .. . ... ... ... : ... .. . ... : ... .. C ... : ... .. . ... ... : ... .. . ... ... : ... .. . ... ... : ... .. . ... ...
ROW DC : ... .. . ... ... ... : ... .. . ... ... ... : ... .. . ... : ... .. 6 ... : ... .. . ... ... : ... .. 2 ... ... : ... .. . ... ... : ... .. . ... ...
ROW DD : ... .. . ... ... ... : ... .. . ... ... ... : ... .. . ... : ... .. 3 ... : ... .. . ... ... : ... .. . ... ... : ... .. . ... ... : ... .. . ... ...
ROW DE : ... .. . ... ... ... : ... .. . ... ... ... : ... .. . ... : ... .. 2 ... : ... .. . ... ... : ... .. . ... ... : ... .. . ... ... : ... .. . ... ...
ROW DF : ... .. . ... ... ... : ... .. . ... ... ... : --- .. . ... : ... .. 0 ... : ... .. . ... ... : ... .. . ... ... : ... .. . ... ... : ... .. . ... ...
ROW E0 : ... .. . ... V01 ... : ... .. . ... ... ... : F-2 00 . ... : B-# 00 D ... : ... .. . ... ... : ... .. 8 ... ... : ... .. . ... ... : ... .. . ... ...
ROW E1 : ... .. . ... ... ... : ... .. . ... ... ... : ... .. . ... : ... .. B ... : ... .. . ... ... : ... .. 7 ... ... : ... .. . ... ... : ... .. . ... ...
ROW E2 : ... .. . ... ... ... : ... .. . ... ... ... : ... .. . ... : ... .. . ... : ... .. . ... ... : ... .. 6 ... ... : ... .. . ... ... : ... .. . ... ...
ROW E3 : ... .. . ... ... ... : ... .. . ... ... ... : ... .. . ... : ... .. A ... : ... .. . ... ... : ... .. 4 ... ... : ... .. . ... ... : ... .. . ... ...
ROW E4 : ... .. . ... ... ... : ... .. . ... ... ... : ... .. . ... : ... .. 8 ... : ... .. . ... ... : ... .. . ... ... : ... .. . ... ... : ... .. . ... ...
ROW E5 : ... .. . ... ... ... : ... .. . ... ... ... : --- .. . ... : ... .. 7 ... : ... .. . ... ... : ... .. 2 ... ... : ... .. . ... ... : ... .. . ... ...
ROW E6 : ... .. . ... V02 ... : ... .. . ... ... ... : F#2 00 . ... : ... .. 6 ... : ... .. . ... ... : ... .. 8 ... ... : ... .. . ... ... : ... .. . ... ...
ROW E7 : ... .. . ... ... ... : ... .. . ... ... ... : ... .. . ... : ... .. . ... : ... .. . ... ... : ... .. 7 ... ... : ... .. . ... ... : ... .. . ... ...
ROW E8 : ... .. . ... ... ... : ... .. . ... ... ... : ... .. . ... : ... .. 5 ... : ... .. . ... ... : ... .. 6 ... ... : ... .. . ... ... : ... .. . ... ...
ROW E9 : ... .. . ... ... ... : ... .. . ... ... ... : ... .. . ... : ... .. . ... : ... .. . ... ... : ... .. 4 ... ... : ... .. . ... ... : ... .. . ... ...
ROW EA : ... .. . ... ... ... : ... .. . ... ... ... : ... .. . ... : ... .. 4 ... : ... .. . ... ... : ... .. . ... ... : ... .. . ... ... : ... .. . ... ...
ROW EB : ... .. . ... ... ... : ... .. . ... ... ... : --- .. . ... : ... .. . ... : ... .. . ... ... : ... .. 2 ... ... : ... .. . ... ... : ... .. . ... ...
ROW EC : ... .. . ... V00 ... : ... .. . ... ... ... : A#2 00 . ... : 1-# 00 F ... : ... .. . ... ... : ... .. 8 ... ... : ... .. . ... ... : ... .. . ... ...
ROW ED : ... .. . ... ... ... : ... .. . ... ... ... : ... .. . ... : ... .. C ... : ... .. . ... ... : ... .. 7 ... ... : ... .. . ... ... : ... .. . ... ...
ROW EE : ... .. . ... ... ... : ... .. . ... ... ... : ... .. . ... : ... .. 6 ... : ... .. . ... ... : ... .. 6 ... ... : ... .. . ... ... : ... .. . ... ...
ROW EF : ... .. . ... ... ... : ... .. . ... ... ... : ... .. . ... : ... .. 3 ... : ... .. . ... ... : ... .. 4 ... ... : ... .. . ... ... : ... .. . ... ...
ROW F0 : ... .. . ... ... ... : ... .. . ... ... ... : ... .. . ... : ... .. 2 ... : ... .. . ... ... : ... .. . ... ... : ... .. . ... ... : ... .. . ... ...
ROW F1 : ... .. . ... ... ... : ... .. . ... ... ... : --- .. . ... : ... .. 0 ... : ... .. . ... ... : ... .. 2 ... ... : ... .. . ... ... : ... .. . ... ...
ROW F2 : ... .. . ... V01 ... : ... .. . P84 ... ... : B-2 00 . ... : ... .. F ... : ... .. . ... ... : ... .. 8 ... ... : ... .. . ... ... : ... .. . ... ...
ROW F3 : ... .. . ... ... ... : A-4 00 F P7E ... ... : ... .. . ... : ... .. C ... : ... .. . ... ... : ... .. 7 ... ... : ... .. . ... ... : ... .. 3 ... ...
ROW F4 : ... .. . ... ... ... : ... .. . P7D ... ... : ... .. . ... : ... .. 6 ... : ... .. . ... ... : ... .. 6 ... ... : ... .. 2 ... ... : ... .. . ... ...
ROW F5 : ... .. . ... ... ... : G#4 00 F P82 ... ... : ... .. . ... : ... .. 3 ... : ... .. . ... ... : ... .. 4 ... ... : ... .. . ... ... : ... .. 1 ... ...
ROW F6 : ... .. . ... ... ... : ... .. . P7E ... ... : ... .. . ... : ... .. 2 ... : ... .. . ... ... : ... .. . ... ... : ... .. . ... ... : ... .. . ... ...
ROW F7 : ... .. . ... ... ... : G-4 00 F P83 ... ... : --- .. . ... : ... .. 0 ... : ... .. . ... ... : ... .. 2 ... ... : ... .. . ... ... : ... .. . ... ...
ROW F8 : D#4 00 F ... ... ... : ... .. . P82 ... ... : A#4 00 . ... : B-# 00 D ... : ... .. . ... ... : D#4 01 8 ... ... : ... .. 8 ... ... : B-3 01 C ... ...
ROW F9 : ... .. E ... ... ... : ... .. . P84 ... ... : C-4 00 . ... : ... .. B ... : ... .. . ... ... : ... .. 7 ... ... : ... .. 7 ... ... : ... .. A ... ...
ROW FA : ... .. D ... ... ... : G#4 00 F P80 ... ... : F-3 00 . ... : ... .. . ... : ... .. . ... ... : ... .. 6 ... ... : ... .. 6 ... ... : ... .. 6 ... ...
ROW FB : ... .. A ... ... ... : ... .. . P83 ... ... : E-3 00 . ... : ... .. A ... : ... .. . ... ... : ... .. 4 ... ... : ... .. 5 ... ... : ... .. . ... ...
ROW FC : ... .. . ... ... ... : A-4 00 F P7E ... ... : B-2 00 . ... : ... .. 8 ... : ... .. . ... ... : ... .. . ... ... : ... .. . ... ... : ... .. . ... ...
ROW FD : ... .. . ... ... ... : ... .. . ... ... ... : ... .. . ... : ... .. 7 ... : ... .. . ... ... : ... .. 2 ... ... : ... .. 4 ... ... : ... .. . ... ...
ROW FE : ... .. . ... V02 ... : G#4 00 F P82 ... ... : ... .. . ... : ... .. 6 ... : ... .. . ... ... : ... .. 8 ... ... : ... .. . ... ... : ... .. . ... ...
ROW FF : ... .. . ... ... ... : ... .. . P7F ... ... : ... .. . ... : ... .. . ... : ... .. . ... ... : ... .. 7 ... ... : ... .. . ... ... : ... .. . ... ...

PATTERN 17
ROW 00 : ... .. . ... ... ... : G-4 00 F P83 ... ... : ... .. . ... : ... .. 5 ... : ... .. . ... ... : ... .. 6 ... ... : ... .. . ... ... : ... .. . ... ...
ROW 01 : ... .. . ... ... ... : ... .. . P82 ... ... : ... .. . ... : ... .. . ... : ... .. . ... ... : ... .. 5 ... ... : ... .. . ... ... : ... .. . ... ...
ROW 02 : ... .. . ... ... ... : ... .. . P84 ... ... : ... .. . ... : ... .. 4 ... : ... .. . ... ... : ... .. . ... ... : ... .. . ... ... : ... .. . ... ...
ROW 03 : ... .. . ... ... ... : G#4 00 F P80 ... ... : --- .. . ... : ... .. . ... : ... .. . ... ... : ... .. 4 ... ... : ... .. . ... ... : ... .. . ... ...
ROW 04 : ... .. . ... V00 ... : ... .. 8 P83 ... ... : A#2 00 . ... : 1-# 00 F ... : ... .. . ... ... : ... .. . ... ... : ... .. . ... ... : ... .. . ... ...
ROW 05 : ... .. . ... ... ... : A-4 00 8 P7E ... ... : ... .. . ... : ... .. C ... : ... .. . ... ... : ... .. . ... ... : ... .. . ... ... : ... .. . ... ...
ROW 06 : ... .. . ... ... ... : ... .. . ... ... ... : ... .. . ... : ... .. 6 ... : ... .. . ... ... : ... .. 2 ... ... : ... .. . ... ... : ... .. . ... ...
ROW 07 : ... .. . ... ... ... : G#4 00 7 P83 ... ... : ... .. . ... : ... .. 3 ... : ... .. . ... ... : ... .. . ... ... : ... .. . ... ... : ... .. . ... ...
ROW 08 : ... .. . ... ... ... : ... .. . P80 ... ... : ... .. . ... : ... .. 2 ... : ... .. . ... ... : ... .. . ... ... : ... .. . ... ... : ... .. . ... ...
ROW 09 : ... .. . ... ... ... : G-4 00 7 P84 ... ... : --- .. . ... : ... .. 0 ... : ... .. . ... ... : ... .. . ... ... : ... .. . ... ... : ... .. . ... ...
ROW 0A : ... .. . ... V01 ... : ... .. . P82 ... ... : A#2 00 . ... : ... .. F ... : ... .. . ... ... : ... .. 8 ... ... : ... .. . ... ... : ... .. . ... ...
ROW 0B : ... .. . ... ... ... : ... .. . P83 ... ... : ... .. . ... : ... .. C ... : ... .. . ... ... : ... .. 7 ... ... : ... .. . ... ... : ... .. . ... ...
ROW 0C : ... .. . ... ... ... : G#4 00 7 P7F ... ... : ... .. . ... : ... .. 6 ... : ... .. . ... ... : ... .. 6 ... ... : ... .. . ... ... : ... .. . ... ...
ROW 0D : ... .. . ... ... ... : ... .. 6 P82 ... ... : ... .. . ... : ... .. 3 ... : ... .. . ... ... : ... .. 4 ... ... : ... .. . ... ... : ... .. . ... ...
ROW 0E : ... .. . ... ... ... : A-4 00 6 P7E ... ... : ... .. . ... : ... .. 2 ... : ... .. . ... ... : ... .. . ... ... : ... .. . ... ... : ... .. . ... ...
ROW 0F : ... .. . ... ... ... : ... .. . ... ... ... : --- .. . ... : ... .. 0 ... : ... .. . ... ... : ... .. 2 ... ... : ... .. . ... ... : ... .. . ... ...
ROW 10 : ... .. . ... V02 ... : G#4 00 6 P83 ... ... : G#2 00 . ... : ... .. F ... : ... .. . ... ... : ... .. 8 ... ... : ... .. . ... ... : ... .. . ... ...
ROW 11 : ... .. . ... ... ... : ... .. . P80 ... ... : ... .. . ... : ... .. C ... : ... .. . ... ... : ... .. 7 ... ... : ... .. . ... ... : ... .. . ... ...
ROW 12 : ... .. . ... ... ... : G-4 00 6 P84 ... ... : ... .. . ... : ... .. 6 ... : ... .. . ... ... : ... .. 6 ... ... : ... .. . ... ... : ... .. . ... ...
ROW 13 : ... .. . ... ... ... : ... .. . P82 ... ... : ... .. . ... : ... .. 3 ... : ... .. . ... ... : ... .. 5 ... ... : ... .. . ... ... : ... .. . ... ...
ROW 14 : ... .. . ... ... ... : ... .. . P83 ... ... : ... .. . ... : ... .. 2 ... : ... .. . ... ... : ... .. . ... ... : ... .. . ... ... : ... .. . ... ...
ROW 15 : ... .. . ... ... ... : G#4 00 6 P7E ... ... : --- .. . ... : ... .. 0 ... : ... .. . ... ... : ... .. 4 ... ... : ... .. . ... ... : ... .. . ... ...
ROW 16 : ... .. . ... V03 ... : ... .. . P82 ... ... : G#2 00 . ... : ... .. F ... : ... .. . ... ... : ... .. . ... ... : ... .. . ... ... : ... .. . ... ...
ROW 17 : ... .. . ... ... ... : A-4 00 6 P7D ... ... : ... .. . ... : ... .. C ... : ... .. . ... ... : ... .. . ... ... : ... .. . ... ... : ... .. 3 ... ...
ROW 18 : ... .. . ... ... ... : ... .. . P7E ... ... : ... .. . ... : ... .. 6 ... : ... .. . ... ... : ... .. 2 ... ... : ... .. 2 ... ... : ... .. . ... ...
ROW 19 : ... .. . ... ... ... : G#4 00 4 P84 ... ... : ... .. . ... : ... .. 3 ... : ... .. . ... ... : ... .. . ... ... : ... .. . ... ... : ... .. 1 ... ...
ROW 1A : ... .. . ... ... ... : ... .. . P80 ... ... : ... .. . ... : ... .. 2 ... : ... .. . ... ... : ... .. . ... ... : ... .. . ... ... : ... .. . ... ...
ROW 1B : ... .. . ... ... ... : ... .. . P7D ... ... : --- .. . ... : ... .. 0 ... : ... .. . ... ... : ... .. . ... ... : ... .. . ... ... : ... .. . ... ...
ROW 1C : ... .. . ... V02 ... : D#3 00 F P80 ... ... : F#2 00 . ... : B-# 00 D ... : ... .. . ... ... : F-4 01 8 ... ... : G#3 01 8 ... ... : C#4 01 C ... ...
ROW 1D : ... .. . ... ... ... : ... .. . ... ... ... : ... .. . ... : ... .. B ... : ... .. . ... ... : ... .. 7 ... ... : ... .. 7 ... ... : ... .. A ... ...
ROW 1E : ... .. . ... ... ... : ... .. . ... ... ... : ... .. . ... : ... .. . ... : ... .. . ... ... : ... .. 6 ... ... : ... .. 6 ... ... : ... .. 6 ... ...
ROW 1F : ... .. . ... ... ... : ... .. . ... ... ... : ... .. . ... : ... .. A ... : ... .. . ... ... : ... .. 4 ... ... : ... .. 4 ... ... : ... .. . ... ...
ROW 20 : ... .. . ... ... ... : ... .. . ... ... ... : ... .. . ... : ... .. 8 ... : ... .. . ... ... : ... .. . ... ... : ... .. . ... ... : ... .. 3 ... ...
ROW 21 : ... .. . ... ... ... : ... .. . ... ... ... : ... .. . ... : ... .. 7 ... : ... .. . ... ... : ... .. 2 ... ... : ... .. 2 ... ... : ... .. . ... ...
ROW 22 : ... .. . ... V00 ... : F-3 00 F ... V01 ... : ... .. . ... : ... .. 6 ... : ... .. . ... ... : ... .. 8 ... ... : ... .. 8 ... ... : ... .. C ... ...
ROW 23 : ... .. . ... ... ... : ... .. . ... ... ... : ... .. . ... : ... .. . ... : ... .. . ... ... : ... .. 7 ... ... : ... .. 7 ... ... : ... .. A ... ...
ROW 24 : ... .. . ... ... ... : ... .. . ... ... ... : ... .. . ... : ... .. 5 ... : ... .. . ... ... : ... .. 6 ... ... : ... .. 6 ... ... : ... .. 6 ... ...
ROW 25 : ... .. . ... ... ... : ... .. . ... ... ... : ... .. . ... : ... .. . ... : ... .. . ... ... : ... .. 5 ... ... : ... .. 5 ... ... : ... .. . ... ...
ROW 26 : ... .. . ... ... ... : ... .. . ... ... ... : ... .. . ... : ... .. 4 ... : ... .. . ... ... : ... .. . ... ... : ... .. . ... ... : ... .. . ... ...
ROW 27 : ... .. . ... ... ... : ... .. . ... ... ... : ... .. . ... : ... .. . ... : ... .. . ... ... : ... .. 4 ... ... : ... .. 4 ... ... : ... .. . ... ...
ROW 28 : F-4 00 F ... V03 ... : G#3 00 F ... ... ... : ... .. . P70 : 1-# 00 F ... : ... .. . ... ... : ... .. . ... ... : ... .. . ... ... : ... .. . ... ...
ROW 29 : ... .. E ... ... ... : ... .. . ... ... ... : F-2 00 . P84 : ... .. C ... : ... .. . ... ... : ... .. . ... ... : ... .. . ... ... : ... .. 3 ... ...
ROW 2A : ... .. D ... ... ... : ... .. . ... ... ... : ... .. . P74 : ... .. 6 ... : ... .. . ... ... : ... .. 2 ... ... : ... .. 2 ... ... : ... .. . ... ...
ROW 2B : ... .. A ... ... ... : ... .. . ... ... ... : E-2 00 . P8A : ... .. 3 ... : ... .. . ... ... : ... .. . ... ... : ... .. . ... ... : ... .. 1 ... ...
ROW 2C : ... .. . ... ... ... : ... .. . ... ... ... : ... .. . P7A : ... .. 2 ... : ... .. . ... ... : ... .. . ... ... : ... .. . ... ... : ... .. . ... ...
ROW 2D : ... .. . ... ... ... : ... .. . ... ... ... : D#2 00 . P92 : ... .. 0 ... : ... .. . ... ... : ... .. . ... ... : ... .. . ... ... : ... .. . ... ...
ROW 2E : ... .. . ... V02 ... : A#3 00 F ... V00 ... : ... .. . P82 : ... .. F ... : ... .. . ... ... : ... .. 8 ... ... : ... .. 8 ... ... : ... .. C ... ...
ROW 2F : ... .. . ... ... ... : ... .. . ... ... ... : ... .. . P72 : ... .. C ... : ... .. . ... ... : ... .. 7 ... ... : ... .. 7 ... ... : ... .. A ... ...
ROW 30 : ... .. . ... ... ... : ... .. . ... ... ... : D-2 00 . P8D : ... .. 6 ... : ... .. . ... ... : ... .. 6 ... ... : ... .. 6 ... ... : ... .. 6 ... ...
ROW 31 : ... .. . ... ... ... : ... .. . ... ... ... : ... .. . P7D : ... .. 3 ... : ... .. . ... ... : ... .. 4 ... ... : ... .. 4 ... ... : ... .. . ... ...
ROW 32 : ... .. . ... ... ... : ... .. . ... ... ... : ... .. . P6D : ... .. 2 ... : ... .. . ... ... : ... .. . ... ... : ... .. . ... ... : ... .. 3 ... ...
ROW 33 : ... .. . ... ... ... : ... .. . ... ... ... : C#2 00 . P8A : ... .. 0 ... : ... .. . ... ... : ... .. 2 ... ... : ... .. 2 ... ... : ... .. . ... ...
ROW 34 : ... .. . ... V00 ... : D#4 00 F ... ... ... : F-2 00 . P80 : ... .. F ... : ... .. . ... ... : ... .. 8 ... ... : ... .. 8 ... ... : ... .. C ... ...
ROW 35 : ... .. . ... ... ... : ... .. . ... ... ... : ... .. . ... : ... .. C ... : ... .. . ... ... : ... .. 7 ... ... : ... .. 7 ... ... : ... .. A ... ...
ROW 36 : ... .. . ... ... ... : ... .. . ... ... ... : ... .. . ... : ... .. 6 ... : ... .. . ... ... : ... .. 6 ... ... : ... .. 6 ... ... : ... .. 6 ... ...
ROW 37 : ... .. . ... ... ... : ... .. . ... ... ... : ... .. . ... : ... .. 3 ... : ... .. . ... ... : ... .. 5 ... ... : ... .. 5 ... ... : ... .. . ... ...
ROW 38 : ... .. . ... ... ... : ... .. . ... ... ... : ... .. . ... : ... .. 2 ... : ... .. . ... ... : ... .. . ... ... : ... .. . ... ... : ... .. . ... ...
ROW 39 : ... .. . ... ... ... : ... .. . ... ... ... : ... .. . ... : ... .. 0 ... : ... .. . ... ... : ... .. 4 ... ... : ... .. 4 ... ... : ... .. . ... ...
ROW 3A : ... .. . ... V02 ... : F-4 00 F ... V03 ... : F#2 00 . ... : ... .. F ... : ... .. . ... ... : ... .. . ... ... : ... .. . ... ... : ... .. . ... ...
ROW 3B : ... .. . ... ... ... : ... .. . ... ... ... : ... .. . ... : ... .. C ... : ... .. . ... ... : ... .. . ... ... : ... .. . ... ... : ... .. 3 ... ...
ROW 3C : ... .. . ... ... ... : ... .. . ... ... ... : ... .. . ... : ... .. 6 ... : ... .. . ... ... : ... .. 2 ... ... : ... .. 2 ... ... : ... .. . ... ...
ROW 3D : ... .. . ... ... ... : ... .. 8 ... ... ... : ... .. . ... : ... .. 3 ... : ... .. . ... ... : ... .. . ... ... : ... .. . ... ... : ... .. 1 ... ...
ROW 3E : ... .. . ... ... ... : ... .. . ... ... ... : ... .. . ... : ... .. 2 ... : ... .. . ... ... : ... .. . ... ... : ... .. . ... ... : ... .. . ... ...
ROW 3F : ... .. . ... ... ... : ... .. . ... ... ... : ... .. . ... : ... .. 0 ... : ... .. . ... ... : ... .. . ... ... : ... .. . ... ... : ... .. . ... ...
ROW 40 : ... .. . ... V01 ... : G#4 00 F ... V01 ... : F-2 00 . ... : 9-# 00 D ... : ... .. . ... ... : ... .. 8 ... ... : ... .. 8 ... ... : ... .. C ... ...
ROW 41 : ... .. . ... ... ... : ... .. . ... ... ... : ... .. . ... : ... .. B ... : ... .. . ... ... : ... .. 7 ... ... : ... .. 7 ... ... : ... .. A ... ...
ROW 42 : ... .. . ... ... ... : ... .. . ... ... ... : ... .. . ... : ... .. . ... : ... .. . ... ... : ... .. 6 ... ... : ... .. 6 ... ... : ... .. 6 ... ...
ROW 43 : ... .. . ... ... ... : ... .. . ... ... ... : ... .. . ... : ... .. A ... : ... .. . ... ... : ... .. 4 ... ... : ... .. 4 ... ... : ... .. . ... ...
ROW 44 : ... .. . ... ... ... : ... .. . ... ... ... : ... .. . ... : ... .. 8 ... : ... .. . ... ... : ... .. . ... ... : ... .. . ... ... : ... .. 3 ... ...
ROW 45 : ... .. . ... ... ... : ... .. . ... ... ... : --- .. . ... : ... .. 7 ... : ... .. . ... ... : ... .. 2 ... ... : ... .. 2 ... ... : ... .. . ... ...
ROW 46 : ... .. . ... V02 ... : A#4 00 F ... ... ... : B-1 00 . ... : 7-# 00 D ... : ... .. . ... ... : ... .. 8 ... ... : ... .. 8 ... ... : ... .. C ... ...
ROW 47 : ... .. . ... ... ... : ... .. . ... ... ... : ... .. . ... : ... .. B ... : ... .. . ... ... : ... .. 7 ... ... : ... .. 7 ... ... : ... .. A ... ...
ROW 48 : ... .. . ... ... ... : ... .. . ... ... ... : ... .. . ... : ... .. . ... : ... .. . ... ... : ... .. 6 ... ... : ... .. 6 ... ... : ... .. 6 ... ...
ROW 49 : ... .. . ... ... ... : ... .. . ... ... ... : ... .. . ... : ... .. A ... : ... .. . ... ... : ... .. 4 ... ... : ... .. 4 ... ... : ... .. . ... ...
ROW 4A : ... .. . ... ... ... : ... .. . ... ... ... : ... .. . ... : ... .. 8 ... : ... .. . ... ... : ... .. . ... ... : ... .. . ... ... : ... .. 3 ... ...
ROW 4B : ... .. . ... ... ... : ... .. . ... ... ... : --- .. . ... : ... .. 7 ... : ... .. . ... ... : ... .. 2 ... ... : ... .. 2 ... ... : ... .. . ... ...
ROW 4C : ... .. . ... V00 ... : D#5 00 F ... V02 ... : C#2 00 . ... : 5-# 00 D ... : ... .. . ... ... : ... .. 8 ... ... : ... .. 8 ... ... : ... .. C ... ...
ROW 4D : ... .. . ... ... ... : ... .. . ... ... ... : ... .. . ... : ... .. B ... : ... .. . ... ... : ... .. 7 ... ... : ... .. 7 ... ... : ... .. A ... ...
ROW 4E : ... .. . ... ... ... : ... .. . ... ... ... : ... .. . ... : ... .. . ... : ... .. . ... ... : ... .. 6 ... ... : ... .. 6 ... ... : ... .. 6 ... ...
ROW 4F : ... .. . ... ... ... : ... .. 8 ... ... ... : ... .. . ... : ... .. A ... : ... .. . ... ... : ... .. 4 ... ... : ... .. 4 ... ... : ... .. . ... ...
ROW 50 : ... .. . ... ... ... : ... .. . ... ... ... : ... .. . ... : ... .. 8 ... : ... .. . ... ... : ... .. . ... ... : ... .. . ... ... : ... .. 3 ... ...
ROW 51 : ... .. . ... ... ... : ... .. . ... ... ... : --- .. . ... : ... .. 7 ... : ... .. . ... ... : ... .. 2 ... ... : ... .. 2 ... ... : ... .. . ... ...
ROW 52 : ... .. . ... V01 ... : F-5 00 F ... V01 ... : G#1 00 . ... : 4-# 00 D ... : ... .. . ... ... : ... .. 8 ... ... : ... .. 8 ... ... : ... .. C ... ...
ROW 53 : ... .. . ... ... ... : ... .. . ... ... ... : ... .. . ... : ... .. B ... : ... .. . ... ... : ... .. 7 ... ... : ... .. 7 ... ... : ... .. A ... ...
ROW 54 : ... .. . ... ... ... : ... .. . ... ... ... : ... .. . ... : ... .. . ... : ... .. . ... ... : ... .. 6 ... ... : ... .. 6 ... ... : ... .. 6 ... ...
ROW 55 : ... .. . ... ... ... : ... .. . ... ... ... : ... .. . ... : ... .. A ... : ... .. . ... ... : ... .. 4 ... ... : ... .. 4 ... ... : ... .. . ... ...
ROW 56 : ... .. . ... ... ... : ... .. . ... ... ... : ... .. . ... : ... .. 8 ... : ... .. . ... ... : ... .. . ... ... : ... .. . ... ... : ... .. 3 ... ...
ROW 57 : ... .. . ... ... ... : ... .. . ... ... ... : --- .. . ... : ... .. 7 ... : ... .. . ... ... : ... .. 2 ... ... : ... .. 2 ... ... : ... .. . ... ...
ROW 58 : F-3 00 A ... ... ... : D#5 00 F ... ... ... : A-4 00 . ... : B-# 00 D ... : ... .. . ... ... : A#3 01 5 ... ... : D#4 01 A ... ... : F-4 01 C ... ...
ROW 59 : ... .. 9 ... ... ... : ... .. . ... ... ... : B-3 00 . ... : ... .. B ... : ... .. . ... ... : ... .. 4 ... ... : ... .. 9 ... ... : ... .. A ... ...
ROW 5A : ... .. 8 ... ... ... : ... .. . ... ... ... : E-3 00 . ... : ... .. . ... : ... .. . ... ... : ... .. . ... ... : ... .. 8 ... ... : ... .. 6 ... ...
ROW 5B : ... .. 6 ... ... ... : ... .. . ... ... ... : D#3 00 . ... : ... .. A ... : ... .. . ... ... : ... .. 3 ... ... : ... .. 7 ... ... : ... .. . ... ...
ROW 5C : ... .. . ... ... ... : ... .. . ... ... ... : A#2 00 . ... : ... .. 8 ... : ... .. . ... ... : ... .. . ... ... : ... .. . ... ... : ... .. . ... ...
ROW 5D : ... .. . ... ... ... : ... .. . ... ... ... : ... .. . ... : ... .. 7 ... : ... .. . ... ... : ... .. . ... ... : ... .. 6 ... ... : ... .. . ... ...
ROW 5E : ... .. . ... V02 ... : G#5 00 F ... V00 ... : ... .. . ... : ... .. 6 ... : ... .. . ... ... : ... .. . ... ... : ... .. . ... ... : ... .. . ... ...
ROW 5F : ... .. . ... ... ... : ... .. . ... ... ... : ... .. . ... : ... .. . ... : ... .. . ... ... : ... .. 2 ... ... : ... .. 5 ... ... : ... .. . ... ...
ROW 60 : ... .. . ... ... ... : ... .. . ... ... ... : ... .. . ... : ... .. 5 ... : ... .. . ... ... : ... .. . ... ... : ... .. . ... ... : ... .. . ... ...
ROW 61 : ... .. . ... ... ... : ... .. 8 ... ... ... : ... .. . ... : ... .. . ... : ... .. . ... ... : ... .. . ... ... : ... .. . ... ... : ... .. . ... ...
ROW 62 : ... .. . ... ... ... : ... .. . ... ... ... : ... .. . ... : ... .. 4 ... : ... .. . ... ... : ... .. . ... ... : ... .. . ... ... : ... .. . ... ...
ROW 63 : ... .. . ... ... ... : ... .. . ... ... ... : ... .. . ... : ... .. . ... : ... .. . ... ... : ... .. . ... ... : ... .. . ... ... : ... .. . ... ...
ROW 64 : ... .. . ... V00 ... : D#5 00 F ... ... ... : ... .. . ... : 1-# 00 F ... : ... .. . ... ... : ... .. . ... ... : ... .. . ... ... : ... .. . ... ...
ROW 65 : ... .. . ... ... ... : ... .. . ... ... ... : ... .. . ... : ... .. C ... : ... .. . ... ... : ... .. . ... ... : ... .. . ... ... : ... .. . ... ...
ROW 66 : ... .. . ... ... ... : ... .. . ... ... ... : ... .. . ... : ... .. 6 ... : ... .. . ... ... : ... .. . ... ... : ... .. . ... ... : ... .. . ... ...
ROW 67 : ... .. . ... ... ... : ... .. . ... ... ... : ... .. . ... : ... .. 3 ... : ... .. . ... ... : ... .. 3 ... ... : ... .. . ... ... : ... .. . ... ...
ROW 68 : ... .. . ... ... ... : ... .. . ... ... ... : ... .. . ... : ... .. 2 ... : ... .. . ... ... : ... .. . ... ... : ... .. . ... ... : ... .. . ... ...
ROW 69 : ... .. . ... ... ... : ... .. . ... ... ... : ... .. . ... : ... .. 0 ... : ... .. . ... ... : ... .. . ... ... : ... .. . ... ... : ... .. . ... ...
ROW 6A : ... .. . ... V01 ... : C#5 00 F ... V02 ... : ... .. . ... : ... .. F ... : ... .. . ... ... : ... .. . ... ... : ... .. . ... ... : ... .. . ... ...
ROW 6B : ... .. . ... ... ... : ... .. . ... ... ... : ... .. . ... : ... .. C ... : ... .. . ... ... : ... .. . ... ... : ... .. . ... ... : ... .. . ... ...
ROW 6C : ... .. . ... ... ... : ... .. . ... ... ... : ... .. . ... : ... .. 6 ... : ... .. . ... ... : ... .. . ... ... : ... .. . ... ... : ... .. . ... ...
ROW 6D : ... .. 7 ... ... ... : ... .. 8 ... ... ... : ... .. . ... : ... .. 3 ... : ... .. . ... ... : ... .. . ... ... : ... .. . ... ... : ... .. . ... ...
ROW 6E : ... .. . ... ... ... : ... .. . ... ... ... : ... .. . ... : ... .. 2 ... : ... .. . ... ... : ... .. . ... ... : ... .. . ... ... : ... .. . ... ...
ROW 6F : ... .. . ... ... ... : ... .. . ... ... ... : ... .. . ... : ... .. 0 ... : ... .. . ... ... : ... .. . ... ... : ... .. . ... ... : ... .. . ... ...
ROW 70 : ... .. . ... V02 ... : C-5 00 F ... V01 ... : A-2 00 . P7C : B-# 00 D ... : ... .. . ... ... : ... .. . ... ... : ... .. . ... ... : ... .. . ... ...
ROW 71 : ... .. . ... ... ... : ... .. . ... ... ... : G#2 00 . P7B : ... .. B ... : ... .. . ... ... : ... .. . ... ... : ... .. . ... ... : ... .. . ... ...
ROW 72 : ... .. . ... ... ... : ... .. . ... ... ... : G-2 00 . ... : ... .. . ... : ... .. . ... ... : ... .. . ... ... : ... .. . ... ... : ... .. . ... ...
ROW 73 : ... .. . ... ... ... : ... .. . ... ... ... : F#2 00 . P7D : ... .. A ... : ... .. . ... ... : ... .. . ... ... : ... .. . ... ... : ... .. . ... ...
ROW 74 : ... .. . ... ... ... : ... .. . ... ... ... : F-2 00 . P81 : ... .. 8 ... : ... .. . ... ... : ... .. . ... ... : ... .. . ... ... : ... .. . ... ...
ROW 75 : ... .. . ... ... ... : ... .. . ... ... ... : E-2 00 . P87 : ... .. 7 ... : ... .. . ... ... : ... .. . ... ... : ... .. . ... ... : ... .. . ... ...
ROW 76 : ... .. . ... V03 ... : A#4 00 F ... V03 ... : D#2 00 . P8F : ... .. 6 ... : ... .. . ... ... : ... .. . ... ... : ... .. . ... ... : ... .. . ... ...
ROW 77 : ... .. . ... ... ... : ... .. . ... ... ... : ... .. . P6F : ... .. . ... : ... .. . ... ... : ... .. . ... ... : ... .. . ... ... : ... .. 3 ... ...
ROW 78 : ... .. . ... ... ... : ... .. . ... ... ... : D-2 00 . P7A : ... .. 5 ... : ... .. . ... ... : ... .. . ... ... : ... .. 3 ... ... : ... .. . ... ...
ROW 79 : ... .. . ... ... ... : ... .. 8 ... ... ... : C#2 00 . P87 : ... .. . ... : ... .. . ... ... : ... .. . ... ... : ... .. . ... ... : ... .. 1 ... ...
ROW 7A : ... .. . ... ... ... : ... .. . ... ... ... : C-2 00 . P97 : ... .. 4 ... : ... .. . ... ... : ... .. . ... ... : ... .. . ... ... : ... .. . ... ...
ROW 7B : ... .. . ... ... ... : ... .. . ... ... ... : ... .. . P77 : ... .. . ... : ... .. . ... ... : ... .. . ... ... : ... .. . ... ... : ... .. . ... ...
ROW 7C : F#3 00 B ... V02 ... : G#4 00 F ... V01 ... : A-3 00 . P80 : 1-# 00 F ... : ... .. . ... ... : B-3 01 6 ... ... : E-4 01 8 ... ... : F#4 01 C ... ...
ROW 7D : ... .. A ... ... ... : ... .. . ... ... ... : B-2 00 . ... : ... .. C ... : ... .. . ... ... : ... .. . ... ... : ... .. 7 ... ... : ... .. A ... ...
ROW 7E : ... .. 9 ... ... ... : ... .. . ... ... ... : E-2 00 . ... : ... .. 6 ... : ... .. . ... ... : ... .. 5 ... ... : ... .. 6 ... ... : ... .. 6 ... ...
ROW 7F : ... .. 8 ... ... ... : ... .. . ... ... ... : D#2 00 . ... : ... .. 3 ... : ... .. . ... ... : ... .. 4 ... ... : ... .. 5 ... ... : ... .. . ... ...
ROW 80 : ... .. . ... ... ... : ... .. . ... ... ... : A#1 00 . ... : ... .. 2 ... : ... .. . ... ... : ... .. . ... ... : ... .. . ... ... : ... .. . ... ...
ROW 81 : ... .. . ... ... ... : ... .. . ... ... ... : ... .. . ... : ... .. 0 ... : ... .. . ... ... : ... .. . ... ... : ... .. 4 ... ... : ... .. . ... ...
ROW 82 : ... .. . ... V00 ... : ... .. . ... ... ... : ... .. . ... : ... .. F ... : ... .. . ... ... : ... .. . ... ... : ... .. . ... ... : ... .. . ... ...
ROW 83 : ... .. . ... ... ... : ... .. . ... ... ... : ... .. . ... : ... .. C ... : ... .. . ... ... : ... .. 3 ... ... : ... .. . ... ... : ... .. . ... ...
ROW 84 : ... .. . ... ... ... : ... .. . ... ... ... : ... .. . ... : ... .. 6 ... : ... .. . ... ... : ... .. . ... ... : ... .. . ... ... : ... .. . ... ...
ROW 85 : ... .. . ... ... ... : ... .. . ... ... ... : ... .. . ... : ... .. 3 ... : ... .. . ... ... : ... .. . ... ... : ... .. . ... ... : ... .. . ... ...
ROW 86 : ... .. . ... ... ... : ... .. . ... ... ... : ... .. . ... : ... .. 2 ... : ... .. . ... ... : ... .. . ... ... : ... .. . ... ... : ... .. . ... ...
ROW 87 : ... .. . ... ... ... : ... .. . ... ... ... : ... .. . ... : ... .. 0 ... : ... .. . ... ... : ... .. . ... ... : ... .. . ... ... : ... .. . ... ...
ROW 88 : ... .. . ... V03 ... : ... .. . ... ... ... : A-1 00 . P89 : B-# 00 D ... : ... .. . ... ... : ... .. . ... ... : ... .. . ... ... : ... .. . ... ...
ROW 89 : ... .. . ... ... ... : ... .. . ... ... ... : G#1 00 . P95 : ... .. B ... : ... .. . ... ... : ... .. . ... ... : ... .. . ... ... : ... .. . ... ...
ROW 8A : ... .. . ... ... ... : ... .. . ... ... ... : ... .. . P65 : ... .. . ... : ... .. . ... ... : ... .. . ... ... : ... .. . ... ... : ... .. . ... ...
ROW 8B : ... .. . ... ... ... : ... .. . ... ... ... : G-1 00 . P75 : ... .. A ... : ... .. . ... ... : ... .. . ... ... : ... .. . ... ... : ... .. . ... ...
ROW 8C : ... .. . ... ... ... : ... .. . ... ... ... : F#1 00 . P89 : ... .. 8 ... : ... .. . ... ... : ... .. . ... ... : ... .. . ... ... : ... .. . ... ...
ROW 8D : ... .. . ... ... ... : ... .. . ... ... ... : F-1 00 . PA1 : ... .. 7 ... : ... .. . ... ... : ... .. . ... ... : ... .. . ... ... : ... .. . ... ...
ROW 8E : ... .. . ... V02 ... : ... .. . ... ... ... : ... .. . P71 : ... .. 6 ... : ... .. . ... ... : ... .. . ... ... : ... .. . ... ... : ... .. . ... ...
ROW 8F : ... .. . ... ... ... : ... .. . ... ... ... : E-1 00 . P8D : ... .. . ... : ... .. . ... ... : ... .. . ... ... : ... .. . ... ... : ... .. . ... ...
ROW 90 : ... .. . ... ... ... : ... .. . ... ... ... : ... .. . P5D : ... .. 5 ... : ... .. . ... ... : ... .. . ... ... : ... .. . ... ... : ... .. . ... ...
ROW 91 : ... .. . ... ... ... : ... .. . ... ... ... : D#1 00 . P7E : ... .. . ... : ... .. . ... ... : ... .. 4 ... ... : ... .. . ... ... : ... .. . ... ...
ROW 92 : ... .. . ... ... ... : ... .. . ... ... ... : D-1 00 . PA4 : ... .. 4 ... : ... .. . ... ... : ... .. . ... ... : ... .. . ... ... : ... .. . ... ...
ROW 93 : ... .. . ... ... ... : ... .. . ... ... ... : ... .. . P74 : ... .. . ... : ... .. . ... ... : ... .. . ... ... : ... .. . ... ... : ... .. . ... ...
ROW 94 : ... .. . ... V00 ... : ... .. . ... ... ... : G#1 00 . P80 : 1-# 00 F ... : ... .. . ... ... : ... .. . ... ... : ... .. . ... ... : ... .. . ... ...
ROW 95 : ... .. . ... ... ... : A#4 00 F ... ... ... : ... .. . ... : ... .. C ... : ... .. . ... ... : ... .. . ... ... : ... .. . ... ... : ... .. . ... ...
ROW 96 : ... .. . ... ... ... : C-5 00 F P82 ... ... : ... .. . ... : ... .. 6 ... : ... .. . ... ... : ... .. . ... ... : ... .. . ... ... : ... .. . ... ...
ROW 97 : ... .. . ... ... ... : C#5 00 F P80 ... ... : ... .. . ... : ... .. 3 ... : ... .. . ... ... : ... .. . ... ... : ... .. . ... ... : ... .. . ... ...
ROW 98 : ... .. . ... ... ... : ... .. . ... ... ... : ... .. . ... : ... .. 2 ... : ... .. . ... ... : ... .. . ... ... : ... .. . ... ... : ... .. . ... ...
ROW 99 : ... .. . ... ... ... : ... .. . ... ... ... : --- .. . ... : ... .. 0 ... : ... .. . ... ... : ... .. . ... ... : ... .. . ... ... : ... .. . ... ...
ROW 9A : ... .. . ... V02 ... : ... .. . ... ... ... : F-1 00 . ... : ... .. F ... : ... .. . ... ... : ... .. . ... ... : ... .. . ... ... : ... .. . ... ...
ROW 9B : ... .. . ... ... ... : ... .. . ... ... ... : ... .. . ... : ... .. C ... : ... .. . ... ... : ... .. . ... ... : ... .. . ... ... : ... .. . ... ...
ROW 9C : ... .. . ... ... ... : ... .. . ... ... ... : ... .. . ... : ... .. 6 ... : ... .. . ... ... : ... .. . ... ... : ... .. . ... ... : ... .. . ... ...
ROW 9D : ... .. . ... ... ... : ... .. . ... ... ... : ... .. . ... : ... .. 3 ... : ... .. . ... ... : ... .. . ... ... : ... .. . ... ... : ... .. . ... ...
ROW 9E : ... .. . ... ... ... : ... .. . ... ... ... : ... .. . ... : ... .. 2 ... : ... .. . ... ... : ... .. . ... ... : ... .. . ... ... : ... .. . ... ...
ROW 9F : ... .. . ... ... ... : ... .. . ... ... ... : --- .. . ... : ... .. 0 ... : ... .. . ... ... : ... .. . ... ... : ... .. . ... ... : ... .. . ... ...
ROW A0 : ... .. . ... V01 ... : ... .. . ... ... ... : D#2 00 . ... : B-# 00 D ... : ... .. . ... ... : ... .. . ... ... : ... .. . ... ... : ... .. . ... ...
ROW A1 : ... .. . ... ... ... : ... .. . ... ... ... : ... .. . ... : ... .. B ... : ... .. . ... ... : ... .. . ... ... : ... .. . ... ... : ... .. . ... ...
ROW A2 : ... .. . ... ... ... : ... .. . ... ... ... : ... .. . ... : ... .. . ... : ... .. . ... ... : ... .. . ... ... : ... .. . ... ... : ... .. . ... ...
ROW A3 : ... .. . ... ... ... : ... .. . ... ... ... : ... .. . ... : ... .. A ... : ... .. . ... ... : ... .. . ... ... : ... .. . ... ... : ... .. . ... ...
ROW A4 : ... .. . ... ... ... : ... .. . ... ... ... : ... .. . ... : ... .. 8 ... : ... .. . ... ... : ... .. . ... ... : ... .. . ... ... : ... .. . ... ...
ROW A5 : ... .. . ... ... ... : ... .. . ... ... ... : --- .. . ... : ... .. 7 ... : ... .. . ... ... : ... .. . ... ... : ... .. . ... ... : ... .. . ... ...
ROW A6 : ... .. 9 ... V02 ... : ... .. . ... ... ... : F-2 00 . ... : ... .. 6 ... : ... .. . ... ... : ... .. . ... ... : ... .. . ... ... : ... .. . ... ...
ROW A7 : ... .. . ... ... ... : ... .. . ... ... ... : ... .. . ... : ... .. . ... : ... .. . ... ... : ... .. . ... ... : ... .. . ... ... : ... .. . ... ...
ROW A8 : ... .. . ... ... ... : ... .. . ... ... ... : ... .. . ... : ... .. 5 ... : ... .. . ... ... : ... .. . ... ... : ... .. . ... ... : ... .. . ... ...
ROW A9 : ... .. . ... ... ... : ... .. . ... ... ... : ... .. . ... : ... .. . ... : ... .. . ... ... : ... .. . ... ... : ... .. . ... ... : ... .. . ... ...
ROW AA : ... .. . ... ... ... : ... .. . ... ... ... : ... .. . ... : ... .. 4 ... : ... .. . ... ... : ... .. . ... ... : ... .. . ... ... : ... .. . ... ...
ROW AB : ... .. . ... ... ... : ... .. . ... ... ... : --- .. . ... : ... .. . ... : ... .. . ... ... : ... .. . ... ... : ... .. . ... ... : ... .. . ... ...
ROW AC : ... .. . ... V00 ... : ... .. . ... ... ... : G#2 00 . ... : 1-# 00 F ... : ... .. . ... ... : ... .. . ... ... : ... .. . ... ... : ... .. . ... ...
ROW AD : ... .. . ... ... ... : B-4 00 F P7D ... ... : ... .. . ... : ... .. C ... : ... .. . ... ... : ... .. . ... ... : ... .. . ... ... : ... .. 3 ... ...
ROW AE : ... .. . ... ... ... : G#4 00 F P84 ... ... : ... .. . ... : ... .. 6 ... : ... .. . ... ... : ... .. . ... ... : ... .. 2 ... ... : ... .. . ... ...
ROW AF : ... .. . ... ... ... : G-4 00 F P7D ... ... : ... .. . ... : ... .. 3 ... : ... .. . ... ... : ... .. . ... ... : ... .. . ... ... : ... .. 1 ... ...
ROW B0 : ... .. . ... ... ... : F#4 00 F P80 ... ... : ... .. . ... : ... .. 2 ... : ... .. . ... ... : ... .. . ... ... : ... .. . ... ... : ... .. . ... ...
ROW B1 : ... .. . ... ... ... : ... .. . ... ... ... : --- .. . ... : ... .. 0 ... : ... .. . ... ... : ... .. . ... ... : ... .. . ... ... : ... .. . ... ...
ROW B2 : ... .. . ... V01 ... : ... .. . ... ... ... : A#2 00 . ... : ... .. F ... : ... .. . ... ... : ... .. . ... ... : ... .. . ... ... : ... .. . ... ...
ROW B3 : ... .. . ... ... ... : ... .. . ... ... ... : ... .. . ... : ... .. C ... : ... .. . ... ... : ... .. . ... ... : ... .. . ... ... : ... .. . ... ...
ROW B4 : ... .. . ... ... ... : ... .. . ... ... ... : ... .. . ... : ... .. 6 ... : ... .. . ... ... : ... .. . ... ... : ... .. . ... ... : ... .. . ... ...
ROW B5 : ... .. . ... ... ... : ... .. . ... ... ... : ... .. . ... : ... .. 3 ... : ... .. . ... ... : ... .. . ... ... : ... .. . ... ... : ... .. . ... ...
ROW B6 : ... .. . ... ... ... : ... .. . ... ... ... : ... .. . ... : ... .. 2 ... : ... .. . ... ... : ... .. . ... ... : ... .. . ... ... : ... .. 0 ... ...
ROW B7 : ... .. . ... ... ... : ... .. . ... ... ... : --- .. . ... : ... .. 0 ... : ... .. . ... ... : ... .. . ... ... : ... .. . ... ... : ... .. . ... ...
ROW B8 : G#3 00 F ... ... ... : ... .. . P84 ... ... : A-5 00 . ... : B-# 00 D ... : ... .. . ... ... : C#4 01 A ... ... : F#4 01 8 ... ... : G#4 01 C ... ...
ROW B9 : ... .. E ... ... ... : G-4 00 F P7E ... ... : B-4 00 . ... : ... .. B ... : ... .. . ... ... : ... .. 9 ... ... : ... .. 7 ... ... : ... .. A ... ...
ROW BA : ... .. D ... ... ... : ... .. . P7D ... ... : E-4 00 . ... : ... .. . ... : ... .. . ... ... : ... .. 8 ... ... : ... .. 6 ... ... : ... .. 6 ... ...
ROW BB : ... .. A ... ... ... : F#4 00 F P82 ... ... : D#4 00 . ... : ... .. A ... : ... .. . ... ... : ... .. 7 ... ... : ... .. 5 ... ... : ... .. . ... ...
ROW BC : ... .. . ... ... ... : ... .. . P7E ... ... : A#3 00 . ... : ... .. 8 ... : ... .. . ... ... : ... .. . ... ... : ... .. . ... ... : ... .. . ... ...
ROW BD : ... .. . ... ... ... : F-4 00 F P84 ... ... : ... .. . ... : ... .. 7 ... : ... .. . ... ... : ... .. 6 ... ... : ... .. 4 ... ... : ... .. . ... ...
ROW BE : ... .. . ... V02 ... : ... .. . P83 ... ... : ... .. . ... : ... .. 6 ... : ... .. . ... ... : ... .. . ... ... : ... .. . ... ... : ... .. . ... ...
ROW BF : ... .. . ... ... ... : F#4 00 F P7C ... ... : ... .. . ... : ... .. . ... : ... .. . ... ... : ... .. 5 ... ... : ... .. . ... ... : ... .. . ... ...
ROW C0 : ... .. . ... ... ... : ... .. . P80 ... ... : ... .. . ... : ... .. 5 ... : ... .. . ... ... : ... .. . ... ... : ... .. . ... ... : ... .. . ... ...
ROW C1 : ... .. . ... ... ... : ... .. . P83 ... ... : ... .. . ... : ... .. . ... : ... .. . ... ... : ... .. . ... ... : ... .. . ... ... : ... .. . ... ...
ROW C2 : ... .. . ... ... ... : G-4 00 F P7E ... ... : ... .. . ... : ... .. 4 ... : ... .. . ... ... : ... .. . ... ... : ... .. . ... ... : ... .. . ... ...
ROW C3 : ... .. . ... ... ... : ... .. . ... ... ... : ... .. . ... : ... .. . ... : ... .. . ... ... : ... .. . ... ... : ... .. . ... ... : ... .. . ... ...
ROW C4 : ... .. . ... V00 ... : G#4 00 F P80 ... ... : ... .. . ... : 1-# 00 F ... : ... .. . ... ... : ... .. . ... ... : ... .. . ... ... : ... .. . ... ...
ROW C5 : ... .. . ... ... ... : ... .. . ... ... ... : ... .. . ... : ... .. C ... : ... .. . ... ... : ... .. . ... ... : ... .. . ... ... : ... .. . ... ...
ROW C6 : ... .. . ... ... ... : ... .. . ... ... ... : ... .. . ... : ... .. 6 ... : ... .. . ... ... : ... .. . ... ... : ... .. . ... ... : ... .. . ... ...
ROW C7 : ... .. . ... ... ... : ... .. . ... ... ... : ... .. . ... : ... .. 3 ... : ... .. . ... ... : ... .. . ... ... : ... .. . ... ... : ... .. . ... ...
ROW C8 : ... .. . ... ... ... : ... .. . ... ... ... : ... .. . ... : ... .. 2 ... : ... .. . ... ... : ... .. . ... ... : ... .. . ... ... : ... .. . ... ...
ROW C9 : ... .. . ... ... ... : ... .. . ... ... ... : ... .. . ... : ... .. 0 ... : ... .. . ... ... : ... .. . ... ... : ... .. . ... ... : ... .. . ... ...
ROW CA : ... .. . ... V01 ... : D#4 00 F ... ... ... : ... .. . ... : ... .. F ... : ... .. . ... ... : ... .. . ... ... : ... .. . ... ... : ... .. . ... ...
ROW CB : ... .. . ... ... ... : ... .. . ... ... ... : ... .. . ... : ... .. C ... : ... .. . ... ... : ... .. . ... ... : ... .. . ... ... : ... .. . ... ...
ROW CC : ... .. . ... ... ... : ... .. . ... ... ... : ... .. . ... : ... .. 6 ... : ... .. . ... ... : ... .. . ... ... : ... .. . ... ... : ... .. . ... ...
ROW CD : ... .. . ... ... ... : ... .. . ... ... ... : ... .. . ... : ... .. 3 ... : ... .. . ... ... : ... .. . ... ... : ... .. . ... ... : ... .. . ... ...
ROW CE : ... .. . ... ... ... : ... .. . ... ... ... : ... .. . ... : ... .. 2 ... : ... .. . ... ... : ... .. . ... ... : ... .. . ... ... : ... .. . ... ...
ROW CF : ... .. . ... ... ... : ... .. . ... ... ... : ... .. . ... : ... .. 0 ... : ... .. . ... ... : ... .. . ... ... : ... .. . ... ... : ... .. . ... ...
ROW D0 : ... .. . ... V02 ... : C#4 00 F ... V02 ... : G-3 00 . P7D : B-# 00 D ... : ... .. . ... ... : ... .. . ... ... : ... .. . ... ... : ... .. . ... ...
ROW D1 : ... .. . ... ... ... : ... .. . ... ... ... : E-3 00 . P83 : ... .. B ... : ... .. . ... ... : ... .. . ... ... : ... .. . ... ... : ... .. . ... ...
ROW D2 : ... .. . ... ... ... : ... .. . ... ... ... : D-3 00 . P7D : ... .. . ... : ... .. . ... ... : ... .. . ... ... : ... .. . ... ... : ... .. . ... ...
ROW D3 : ... .. . ... ... ... : ... .. . ... ... ... : C-3 00 . P7C : ... .. A ... : ... .. . ... ... : ... .. . ... ... : ... .. . ... ... : ... .. . ... ...
ROW D4 : ... .. . ... ... ... : ... .. . ... ... ... : A#2 00 . P80 : ... .. 8 ... : ... .. . ... ... : ... .. . ... ... : ... .. . ... ... : ... .. . ... ...
ROW D5 : ... .. . ... ... ... : ... .. . ... ... ... : G#2 00 . P8B : ... .. 7 ... : ... .. . ... ... : ... .. . ... ... : ... .. . ... ... : ... .. . ... ...
ROW D6 : ... .. . ... V03 ... : G#3 00 F ... V03 ... : G-2 00 . P7B : ... .. 6 ... : ... .. . ... ... : ... .. . ... ... : ... .. . ... ... : ... .. . ... ...
ROW D7 : ... .. . ... ... ... : ... .. . ... ... ... : F-2 00 . P91 : ... .. . ... : ... .. . ... ... : ... .. . ... ... : ... .. . ... ... : ... .. 3 ... ...
ROW D8 : ... .. . ... ... ... : ... .. . ... ... ... : E-2 00 . P87 : ... .. 5 ... : ... .. . ... ... : ... .. . ... ... : ... .. 2 ... ... : ... .. . ... ...
ROW D9 : ... .. . ... ... ... : ... .. . ... ... ... : D#2 00 . P7F : ... .. . ... : ... .. . ... ... : ... .. . ... ... : ... .. . ... ... : ... .. 1 ... ...
ROW DA : ... .. . ... ... ... : ... .. . ... ... ... : D-2 00 . P7A : ... .. 4 ... : ... .. . ... ... : ... .. . ... ... : ... .. . ... ... : ... .. . ... ...
ROW DB : ... .. . ... ... ... : ... .. . ... ... ... : C#2 00 . P77 : ... .. . ... : ... .. . ... ... : ... .. . ... ... : ... .. . ... ... : ... .. . ... ...
ROW DC : A#3 00 F ... V02 ... : A#3 00 F ... V00 ... : A-4 00 . P80 : 1-# 00 F ... : ... .. . ... ... : D#4 01 A ... ... : G#4 01 8 ... ... : A#4 01 C ... ...
ROW DD : ... .. E ... ... ... : ... .. . ... ... ... : B-3 00 . ... : ... .. C ... : ... .. . ... ... : ... .. 9 ... ... : ... .. 7 ... ... : ... .. A ... ...
ROW DE : ... .. D ... ... ... : ... .. . ... ... ... : E-3 00 . ... : ... .. 6 ... : ... .. . ... ... : ... .. 8 ... ... : ... .. 6 ... ... : ... .. 6 ... ...
ROW DF : ... .. A ... ... ... : ... .. . ... ... ... : D#3 00 . ... : ... .. 3 ... : ... .. . ... ... : ... .. 7 ... ... : ... .. 5 ... ... : ... .. . ... ...
ROW E0 : ... .. . ... ... ... : ... .. . ... ... ... : A#2 00 . ... : ... .. 2 ... : ... .. . ... ... : ... .. . ... ... : ... .. . ... ... : ... .. . ... ...
ROW E1 : ... .. . ... ... ... : ... .. . ... ... ... : ... .. . ... : ... .. 0 ... : ... .. . ... ... : ... .. 6 ... ... : ... .. 4 ... ... : ... .. . ... ...
ROW E2 : ... .. . ... V00 ... : ... .. . ... ... ... : ... .. . ... : ... .. F ... : ... .. . ... ... : ... .. . ... ... : ... .. . ... ... : ... .. . ... ...
ROW E3 : ... .. . ... ... ... : B-3 00 F P7B ... ... : ... .. . ... : ... .. C ... : ... .. . ... ... : ... .. 5 ... ... : ... .. . ... ... : ... .. . ... ...
ROW E4 : ... .. . ... ... ... : ... .. . P84 ... ... : ... .. . ... : ... .. 6 ... : ... .. . ... ... : ... .. . ... ... : ... .. . ... ... : ... .. . ... ...
ROW E5 : ... .. . ... ... ... : C-4 00 F P80 ... ... : ... .. . ... : ... .. 3 ... : ... .. . ... ... : ... .. . ... ... : ... .. . ... ... : ... .. . ... ...
ROW E6 : ... .. . ... ... ... : ... .. . ... ... ... : ... .. . ... : ... .. 2 ... : ... .. . ... ... : ... .. . ... ... : ... .. . ... ... : ... .. . ... ...
ROW E7 : ... .. . ... ... ... : ... .. . ... ... ... : ... .. . ... : ... .. 0 ... : ... .. . ... ... : ... .. . ... ... : ... .. . ... ... : ... .. . ... ...
ROW E8 : ... .. . ... V03 ... : ... .. . ... ... ... : ... .. . ... : B-# 00 D ... : ... .. . ... ... : ... .. . ... ... : ... .. . ... ... : ... .. . ... ...
ROW E9 : ... .. . ... ... ... : ... .. . ... ... ... : ... .. . ... : ... .. B ... : ... .. . ... ... : ... .. . ... ... : ... .. . ... ... : ... .. . ... ...
ROW EA : ... .. . ... ... ... : ... .. . ... ... ... : ... .. . ... : ... .. . ... : ... .. . ... ... : ... .. . ... ... : ... .. . ... ... : ... .. . ... ...
ROW EB : ... .. . ... ... ... : ... .. . ... ... ... : ... .. . ... : ... .. A ... : ... .. . ... ... : ... .. . ... ... : ... .. . ... ... : ... .. . ... ...
ROW EC : ... .. . ... ... ... : ... .. . ... ... ... : ... .. . ... : ... .. 8 ... : ... .. . ... ... : ... .. . ... ... : ... .. . ... ... : ... .. . ... ...
ROW ED : ... .. . ... ... ... : ... .. . ... ... ... : ... .. . ... : ... .. 7 ... : ... .. . ... ... : ... .. . ... ... : ... .. . ... ... : ... .. . ... ...
ROW EE : ... .. . ... V02 ... : ... .. . ... ... ... : G#2 00 . P8B : ... .. D ... : ... .. . ... ... : ... .. . ... ... : ... .. . ... ... : ... .. . ... ...
ROW EF : ... .. . ... ... ... : ... .. . ... ... ... : G-2 00 . P7B : ... .. B ... : ... .. . ... ... : ... .. . ... ... : ... .. . ... ... : ... .. . ... ...
ROW F0 : ... .. . ... ... ... : ... .. . ... ... ... : F-2 00 . P91 : ... .. . ... : ... .. . ... ... : ... .. . ... ... : ... .. . ... ... : ... .. . ... ...
ROW F1 : ... .. . ... ... ... : ... .. . ... ... ... : E-2 00 . P87 : ... .. A ... : ... .. . ... ... : ... .. . ... ... : ... .. . ... ... : ... .. . ... ...
ROW F2 : ... .. . ... ... ... : ... .. . ... ... ... : D#2 00 . P7F : ... .. 8 ... : ... .. . ... ... : ... .. . ... ... : ... .. . ... ... : ... .. . ... ...
ROW F3 : ... .. . ... ... ... : ... .. . ... ... ... : D-2 00 . P7A : ... .. 7 ... : ... .. . ... ... : ... .. . ... ... : ... .. . ... ... : ... .. . ... ...
ROW F4 : ... .. . ... V00 ... : A#3 00 F ... ... ... : G#2 00 . P80 : 1-# 00 F ... : ... .. . ... ... : ... .. . ... ... : ... .. . ... ... : ... .. . ... ...
ROW F5 : ... .. . ... ... ... : ... .. . ... ... ... : ... .. . ... : ... .. C ... : ... .. . ... ... : ... .. . ... ... : ... .. . ... ... : ... .. . ... ...
ROW F6 : ... .. . ... ... ... : ... .. . ... ... ... : ... .. . ... : ... .. 6 ... : ... .. . ... ... : ... .. . ... ... : ... .. . ... ... : ... .. . ... ...
ROW F7 : ... .. . ... ... ... : ... .. . ... ... ... : ... .. . ... : ... .. 3 ... : ... .. . ... ... : ... .. . ... ... : ... .. . ... ... : ... .. . ... ...
ROW F8 : ... .. . ... ... ... : ... .. . ... ... ... : ... .. . ... : ... .. 2 ... : ... .. . ... ... : ... .. . ... ... : ... .. . ... ... : ... .. . ... ...
ROW F9 : ... .. . ... ... ... : ... .. . ... ... ... : --- .. . ... : ... .. 0 ... : ... .. . ... ... : ... .. . ... ... : ... .. . ... ... : ... .. . ... ...
ROW FA : ... .. . ... V02 ... : ... .. . ... ... ... : F-2 00 . ... : ... .. F ... : ... .. . ... ... : ... .. . ... ... : ... .. . ... ... : ... .. . ... ...
ROW FB : ... .. . ... ... ... : ... .. . ... ... ... : ... .. . ... : ... .. C ... : ... .. . ... ... : ... .. . ... ... : ... .. . ... ... : ... .. . ... ...
ROW FC : ... .. . ... ... ... : ... .. . ... ... ... : ... .. . ... : ... .. 6 ... : ... .. . ... ... : ... .. . ... ... : ... .. . ... ... : ... .. . ... ...
ROW FD : ... .. . ... ... ... : ... .. . ... ... ... : ... .. . ... : ... .. 3 ... : ... .. . ... ... : ... .. . ... ... : ... .. . ... ... : ... .. . ... ...
ROW FE : ... .. . ... ... ... : ... .. . ... ... ... : ... .. . ... : ... .. 2 ... : ... .. . ... ... : ... .. . ... ... : ... .. . ... ... : ... .. . ... ...
ROW FF : ... .. . ... ... ... : ... .. . ... ... ... : --- .. . ... : ... .. 0 ... : ... .. . ... ... : ... .. . ... ... : ... .. . ... ... : ... .. . ... ...

PATTERN 18
ROW 00 : ... .. . ... V01 ... : D#4 00 F ... ... ... : D#3 00 . ... : 9-# 00 D ... : ... .. . ... ... : ... .. . ... ... : ... .. . ... ... : ... .. . ... ...
ROW 01 : ... .. . ... ... ... : ... .. . ... ... ... : ... .. . ... : ... .. B ... : ... .. . ... ... : ... .. . ... ... : ... .. . ... ... : ... .. . ... ...
ROW 02 : ... .. . ... ... ... : ... .. . ... ... ... : ... .. . ... : ... .. . ... : ... .. . ... ... : ... .. . ... ... : ... .. . ... ... : ... .. . ... ...
ROW 03 : ... .. . ... ... ... : ... .. . ... ... ... : ... .. . ... : ... .. A ... : ... .. . ... ... : ... .. . ... ... : ... .. . ... ... : ... .. . ... ...
ROW 04 : ... .. . ... ... ... : ... .. . ... ... ... : ... .. . ... : ... .. 8 ... : ... .. . ... ... : ... .. . ... ... : ... .. . ... ... : ... .. . ... ...
ROW 05 : ... .. . ... ... ... : ... .. . ... ... ... : --- .. . ... : ... .. 7 ... : ... .. . ... ... : ... .. . ... ... : ... .. . ... ... : ... .. . ... ...
ROW 06 : ... .. . ... V02 ... : ... .. . ... ... ... : F-3 00 . ... : ... .. D ... : ... .. . ... ... : ... .. . ... ... : ... .. . ... ... : ... .. . ... ...
ROW 07 : ... .. . ... ... ... : ... .. . ... ... ... : ... .. . ... : ... .. B ... : ... .. . ... ... : ... .. . ... ... : ... .. . ... ... : ... .. . ... ...
ROW 08 : ... .. . ... ... ... : ... .. . ... ... ... : ... .. . ... : ... .. . ... : ... .. . ... ... : ... .. . ... ... : ... .. . ... ... : ... .. . ... ...
ROW 09 : ... .. . ... ... ... : ... .. . ... ... ... : ... .. . ... : ... .. A ... : ... .. . ... ... : ... .. . ... ... : ... .. . ... ... : ... .. . ... ...
ROW 0A : ... .. . ... ... ... : ... .. . ... ... ... : ... .. . ... : ... .. 8 ... : ... .. . ... ... : ... .. . ... ... : ... .. . ... ... : ... .. . ... ...
ROW 0B : ... .. . ... ... ... : ... .. . ... ... ... : --- .. . ... : ... .. 7 ... : ... .. . ... ... : ... .. . ... ... : ... .. . ... ... : ... .. . ... ...
ROW 0C : ... .. . ... V00 ... : G#4 00 F ... ... ... : G#3 00 . ... : 1-# 00 F ... : ... .. . ... ... : ... .. . ... ... : ... .. . ... ... : ... .. . ... ...
ROW 0D : ... .. . ... ... ... : ... .. . ... ... ... : ... .. . ... : ... .. C ... : ... .. . ... ... : ... .. . ... ... : ... .. . ... ... : ... .. . ... ...
ROW 0E : ... .. . ... ... ... : ... .. . ... ... ... : ... .. . ... : ... .. 6 ... : ... .. . ... ... : ... .. . ... ... : ... .. . ... ... : ... .. . ... ...
ROW 0F : ... .. . ... ... ... : ... .. . ... ... ... : ... .. . ... : ... .. 3 ... : ... .. . ... ... : ... .. . ... ... : ... .. . ... ... : ... .. . ... ...
ROW 10 : ... .. . ... ... ... : ... .. . ... ... ... : ... .. . ... : ... .. 2 ... : ... .. . ... ... : ... .. . ... ... : ... .. . ... ... : ... .. . ... ...
ROW 11 : ... .. . ... ... ... : ... .. . ... ... ... : --- .. . ... : ... .. 0 ... : ... .. . ... ... : ... .. . ... ... : ... .. . ... ... : ... .. . ... ...
ROW 12 : ... .. . ... V01 ... : ... .. . ... ... ... : A#3 00 . ... : ... .. F ... : ... .. . ... ... : ... .. . ... ... : ... .. . ... ... : ... .. . ... ...
ROW 13 : ... .. . ... ... ... : ... .. . ... ... ... : ... .. . ... : ... .. C ... : ... .. . ... ... : ... .. . ... ... : ... .. . ... ... : ... .. 3 ... ...
ROW 14 : ... .. . ... ... ... : ... .. . ... ... ... : ... .. . ... : ... .. 6 ... : ... .. . ... ... : ... .. . ... ... : ... .. 2 ... ... : ... .. . ... ...
ROW 15 : ... .. . ... ... ... : ... .. . ... ... ... : ... .. . ... : ... .. 3 ... : ... .. . ... ... : ... .. . ... ... : ... .. . ... ... : ... .. 1 ... ...
ROW 16 : ... .. . ... ... ... : ... .. . ... ... ... : ... .. . ... : ... .. 2 ... : ... .. . ... ... : ... .. . ... ... : ... .. . ... ... : ... .. . ... ...
ROW 17 : ... .. . ... ... ... : ... .. . ... ... ... : --- .. . ... : ... .. 0 ... : ... .. . ... ... : ... .. . ... ... : ... .. . ... ... : ... .. . ... ...
ROW 18 : F#4 00 F ... ... ... : F-4 00 F ... ... ... : A#4 00 . ... : B-# 00 D ... : ... .. . ... ... : B-3 01 8 ... ... : D#4 01 8 ... ... : G#4 01 C ... ...
ROW 19 : ... .. E ... ... ... : ... .. . ... ... ... : C-4 00 . ... : ... .. B ... : ... .. . ... ... : ... .. 7 ... ... : ... .. 7 ... ... : ... .. A ... ...
ROW 1A : ... .. D ... ... ... : ... .. . ... ... ... : F-3 00 . ... : ... .. . ... : ... .. . ... ... : ... .. 6 ... ... : ... .. 6 ... ... : ... .. 6 ... ...
ROW 1B : ... .. A ... ... ... : ... .. . ... ... ... : E-3 00 . ... : ... .. A ... : ... .. . ... ... : ... .. 4 ... ... : ... .. 5 ... ... : ... .. . ... ...
ROW 1C : ... .. . ... ... ... : ... .. . ... ... ... : B-2 00 . ... : ... .. 8 ... : ... .. . ... ... : ... .. . ... ... : ... .. . ... ... : ... .. . ... ...
ROW 1D : ... .. . ... ... ... : ... .. . ... ... ... : ... .. . ... : ... .. 7 ... : ... .. . ... ... : ... .. 2 ... ... : ... .. 4 ... ... : ... .. . ... ...
ROW 1E : ... .. . ... V02 ... : ... .. . ... ... ... : ... .. . ... : ... .. 6 ... : ... .. . ... ... : ... .. 8 ... ... : ... .. . ... ... : ... .. . ... ...
ROW 1F : ... .. . ... ... ... : ... .. . ... ... ... : ... .. . ... : ... .. . ... : ... .. . ... ... : ... .. 7 ... ... : ... .. . ... ... : ... .. . ... ...
ROW 20 : ... .. . ... ... ... : ... .. . ... ... ... : ... .. . ... : ... .. 5 ... : ... .. . ... ... : ... .. 6 ... ... : ... .. . ... ... : ... .. . ... ...
ROW 21 : ... .. . ... ... ... : ... .. . ... ... ... : ... .. . ... : ... .. . ... : ... .. . ... ... : ... .. 5 ... ... : ... .. . ... ... : ... .. . ... ...
ROW 22 : ... .. . ... ... ... : ... .. . ... ... ... : ... .. . ... : ... .. 4 ... : ... .. . ... ... : ... .. . ... ... : ... .. . ... ... : ... .. . ... ...
ROW 23 : ... .. . ... ... ... : ... .. . ... ... ... : ... .. . ... : ... .. . ... : ... .. . ... ... : ... .. 4 ... ... : ... .. . ... ... : ... .. . ... ...
ROW 24 : ... .. . ... V00 ... : ... .. . ... ... ... : ... .. . ... : 1-# 00 F ... : ... .. . ... ... : ... .. . ... ... : ... .. . ... ... : ... .. . ... ...
ROW 25 : ... .. . ... ... ... : ... .. . ... ... ... : ... .. . ... : ... .. C ... : ... .. . ... ... : ... .. . ... ... : ... .. . ... ... : ... .. . ... ...
ROW 26 : ... .. . ... ... ... : ... .. . ... ... ... : ... .. . ... : ... .. 6 ... : ... .. . ... ... : ... .. 2 ... ... : ... .. . ... ... : ... .. . ... ...
ROW 27 : ... .. . ... ... ... : ... .. . ... ... ... : ... .. . ... : ... .. 3 ... : ... .. . ... ... : ... .. . ... ... : ... .. . ... ... : ... .. . ... ...
ROW 28 : ... .. . ... ... ... : ... .. . ... ... ... : ... .. . ... : ... .. 2 ... : ... .. . ... ... : ... .. . ... ... : ... .. . ... ... : ... .. . ... ...
ROW 29 : ... .. . ... ... ... : ... .. . ... ... ... : ... .. . ... : ... .. 0 ... : ... .. . ... ... : ... .. . ... ... : ... .. . ... ... : ... .. . ... ...
ROW 2A : ... .. . ... V01 ... : F#4 00 F ... ... ... : A#2 00 . P7B : ... .. F ... : ... .. . ... ... : ... .. 8 ... ... : ... .. . ... ... : ... .. . ... ...
ROW 2B : ... .. . ... ... ... : ... .. . ... ... ... : A-2 00 . P77 : ... .. C ... : ... .. . ... ... : ... .. 7 ... ... : ... .. . ... ... : ... .. . ... ...
ROW 2C : ... .. . ... ... ... : ... .. . ... ... ... : G#2 00 . P76 : ... .. 6 ... : ... .. . ... ... : ... .. 6 ... ... : ... .. . ... ... : ... .. . ... ...
ROW 2D : ... .. . ... ... ... : ... .. . ... ... ... : G-2 00 . ... : ... .. 3 ... : ... .. . ... ... : ... .. 4 ... ... : ... .. . ... ... : ... .. . ... ...
ROW 2E : ... .. . ... ... ... : ... .. . ... ... ... : F#2 00 . P78 : ... .. 2 ... : ... .. . ... ... : ... .. . ... ... : ... .. . ... ... : ... .. . ... ...
ROW 2F : ... .. . ... ... ... : ... .. . ... ... ... : F-2 00 . P7C : ... .. 0 ... : ... .. . ... ... : ... .. 2 ... ... : ... .. . ... ... : ... .. . ... ...
ROW 30 : ... .. . ... V02 ... : ... .. . ... ... ... : E-2 00 . P82 : B-# 00 D ... : ... .. . ... ... : ... .. 8 ... ... : ... .. . ... ... : ... .. . ... ...
ROW 31 : ... .. . ... ... ... : ... .. . ... ... ... : D#2 00 . P8A : ... .. B ... : ... .. . ... ... : ... .. 7 ... ... : ... .. . ... ... : ... .. . ... ...
ROW 32 : ... .. . ... ... ... : ... .. . ... ... ... : D-2 00 . P95 : ... .. . ... : ... .. . ... ... : ... .. 6 ... ... : ... .. . ... ... : ... .. . ... ...
ROW 33 : ... .. . ... ... ... : ... .. . ... ... ... : ... .. . P75 : ... .. A ... : ... .. . ... ... : ... .. 5 ... ... : ... .. . ... ... : ... .. . ... ...
ROW 34 : ... .. . ... ... ... : ... .. . ... ... ... : C#2 00 . P82 : ... .. 8 ... : ... .. . ... ... : ... .. . ... ... : ... .. . ... ... : ... .. . ... ...
ROW 35 : ... .. . ... ... ... : ... .. . ... ... ... : C-2 00 . P92 : ... .. 7 ... : ... .. . ... ... : ... .. 4 ... ... : ... .. . ... ... : ... .. . ... ...
ROW 36 : ... .. . ... V03 ... : ... .. . ... ... ... : ... .. . P72 : ... .. 6 ... : ... .. . ... ... : ... .. . ... ... : ... .. . ... ... : ... .. . ... ...
ROW 37 : ... .. . ... ... ... : ... .. . ... ... ... : B-1 00 . P85 : ... .. . ... : ... .. . ... ... : ... .. . ... ... : ... .. . ... ... : ... .. 3 ... ...
ROW 38 : ... .. . ... ... ... : ... .. . ... ... ... : A#1 00 . P9B : ... .. 5 ... : ... .. . ... ... : ... .. 2 ... ... : ... .. 2 ... ... : ... .. . ... ...
ROW 39 : ... .. . ... ... ... : ... .. . ... ... ... : ... .. . P7B : ... .. . ... : ... .. . ... ... : ... .. . ... ... : ... .. . ... ... : ... .. 1 ... ...
ROW 3A : ... .. . ... ... ... : ... .. . ... ... ... : A-1 00 . P94 : ... .. 4 ... : ... .. . ... ... : ... .. . ... ... : ... .. . ... ... : ... .. . ... ...
ROW 3B : ... .. . ... ... ... : ... .. . ... ... ... : ... .. . P74 : ... .. . ... : ... .. . ... ... : ... .. . ... ... : ... .. . ... ... : ... .. . ... ...
ROW 3C : F-4 00 F ... V02 ... : B-4 00 F ... ... ... : A#3 00 . P80 : 1-# 00 F ... : ... .. . ... ... : C#4 01 8 ... ... : F#4 01 8 ... ... : A#4 01 C ... ...
ROW 3D : ... .. E ... ... ... : ... .. . ... ... ... : C-3 00 . ... : ... .. C ... : ... .. . ... ... : ... .. 7 ... ... : ... .. 7 ... ... : ... .. A ... ...
ROW 3E : ... .. D ... ... ... : ... .. . ... ... ... : F-2 00 . ... : ... .. 6 ... : ... .. . ... ... : ... .. 6 ... ... : ... .. 6 ... ... : ... .. 6 ... ...
ROW 3F : ... .. A ... ... ... : ... .. . ... ... ... : E-2 00 . ... : ... .. 3 ... : ... .. . ... ... : ... .. 4 ... ... : ... .. 5 ... ... : ... .. . ... ...
ROW 40 : ... .. . ... ... ... : ... .. . ... ... ... : B-1 00 . ... : ... .. 2 ... : ... .. . ... ... : ... .. . ... ... : ... .. . ... ... : ... .. . ... ...
ROW 41 : ... .. . ... ... ... : ... .. . ... ... ... : ... .. . ... : ... .. 0 ... : ... .. . ... ... : ... .. 2 ... ... : ... .. 4 ... ... : ... .. . ... ...
ROW 42 : ... .. . ... V00 ... : ... .. . ... ... ... : ... .. . ... : ... .. F ... : ... .. . ... ... : ... .. 8 ... ... : ... .. . ... ... : ... .. . ... ...
ROW 43 : ... .. . ... ... ... : C-5 00 F P7F ... ... : ... .. . ... : ... .. C ... : ... .. . ... ... : ... .. 7 ... ... : ... .. . ... ... : ... .. . ... ...
ROW 44 : ... .. . ... ... ... : C#5 00 F P7E ... ... : ... .. . ... : ... .. 6 ... : ... .. . ... ... : ... .. 6 ... ... : ... .. . ... ... : ... .. . ... ...
ROW 45 : ... .. . ... ... ... : ... .. . P80 ... ... : ... .. . ... : ... .. 3 ... : ... .. . ... ... : ... .. 5 ... ... : ... .. . ... ... : ... .. . ... ...
ROW 46 : ... .. . ... ... ... : ... .. . ... ... ... : ... .. . ... : ... .. 2 ... : ... .. . ... ... : ... .. . ... ... : ... .. . ... ... : ... .. . ... ...
ROW 47 : ... .. . ... ... ... : ... .. . ... ... ... : ... .. . ... : ... .. 0 ... : ... .. . ... ... : ... .. 4 ... ... : ... .. . ... ... : ... .. . ... ...
ROW 48 : ... .. . ... V03 ... : ... .. . ... ... ... : ... .. . ... : B-# 00 D ... : ... .. . ... ... : ... .. . ... ... : ... .. . ... ... : ... .. . ... ...
ROW 49 : ... .. . ... ... ... : ... .. . ... ... ... : ... .. . ... : ... .. B ... : ... .. . ... ... : ... .. . ... ... : ... .. . ... ... : ... .. . ... ...
ROW 4A : ... .. . ... ... ... : ... .. . ... ... ... : ... .. . ... : ... .. . ... : ... .. . ... ... : ... .. 2 ... ... : ... .. . ... ... : ... .. . ... ...
ROW 4B : ... .. . ... ... ... : ... .. . ... ... ... : ... .. . ... : ... .. A ... : ... .. . ... ... : ... .. . ... ... : ... .. . ... ... : ... .. . ... ...
ROW 4C : ... .. . ... ... ... : ... .. . ... ... ... : ... .. . ... : ... .. 8 ... : ... .. . ... ... : ... .. . ... ... : ... .. . ... ... : ... .. . ... ...
ROW 4D : ... .. . ... ... ... : ... .. . ... ... ... : ... .. . ... : ... .. 7 ... : ... .. . ... ... : ... .. . ... ... : ... .. . ... ... : ... .. . ... ...
ROW 4E : ... .. . ... V02 ... : ... .. . ... ... ... : A#1 00 . P86 : ... .. 6 ... : ... .. . ... ... : ... .. 8 ... ... : ... .. . ... ... : ... .. . ... ...
ROW 4F : ... .. . ... ... ... : ... .. . ... ... ... : A-1 00 . P8F : ... .. . ... : ... .. . ... ... : ... .. 7 ... ... : ... .. . ... ... : ... .. . ... ...
ROW 50 : ... .. . ... ... ... : ... .. . ... ... ... : G#1 00 . P9B : ... .. 5 ... : ... .. . ... ... : ... .. 6 ... ... : ... .. . ... ... : ... .. . ... ...
ROW 51 : ... .. . ... ... ... : ... .. . ... ... ... : ... .. . P6B : ... .. . ... : ... .. . ... ... : ... .. 4 ... ... : ... .. . ... ... : ... .. . ... ...
ROW 52 : ... .. . ... ... ... : ... .. . ... ... ... : G-1 00 . P7B : ... .. 4 ... : ... .. . ... ... : ... .. . ... ... : ... .. . ... ... : ... .. . ... ...
ROW 53 : ... .. . ... ... ... : ... .. . ... ... ... : F#1 00 . P8F : ... .. . ... : ... .. . ... ... : ... .. 2 ... ... : ... .. . ... ... : ... .. . ... ...
ROW 54 : ... .. . ... V00 ... : ... .. . ... ... ... : A-1 00 . P80 : 1-# 00 F ... : ... .. . ... ... : ... .. 8 ... ... : ... .. . ... ... : ... .. . ... ...
ROW 55 : ... .. . ... ... ... : ... .. . ... ... ... : ... .. . ... : ... .. C ... : ... .. . ... ... : ... .. 7 ... ... : ... .. . ... ... : ... .. . ... ...
ROW 56 : ... .. . ... ... ... : ... .. . ... ... ... : ... .. . ... : ... .. 6 ... : ... .. . ... ... : ... .. 6 ... ... : ... .. . ... ... : ... .. . ... ...
ROW 57 : ... .. . ... ... ... : ... .. . ... ... ... : ... .. . ... : ... .. 3 ... : ... .. . ... ... : ... .. 5 ... ... : ... .. . ... ... : ... .. . ... ...
ROW 58 : ... .. . ... ... ... : ... .. . ... ... ... : ... .. . ... : ... .. 2 ... : ... .. . ... ... : ... .. . ... ... : ... .. . ... ... : ... .. . ... ...
ROW 59 : ... .. . ... ... ... : ... .. . ... ... ... : --- .. . ... : ... .. 0 ... : ... .. . ... ... : ... .. 4 ... ... : ... .. . ... ... : ... .. . ... ...
ROW 5A : ... .. . ... V02 ... : ... .. . ... ... ... : F#1 00 . ... : ... .. F ... : ... .. . ... ... : ... .. . ... ... : ... .. . ... ... : ... .. . ... ...
ROW 5B : ... .. . ... ... ... : ... .. . ... ... ... : ... .. . ... : ... .. C ... : ... .. . ... ... : ... .. . ... ... : ... .. . ... ... : ... .. . ... ...
ROW 5C : ... .. . ... ... ... : ... .. . ... ... ... : ... .. . ... : ... .. 6 ... : ... .. . ... ... : ... .. 2 ... ... : ... .. . ... ... : ... .. . ... ...
ROW 5D : ... .. . ... ... ... : D-5 00 F P7E ... ... : ... .. . ... : ... .. 3 ... : ... .. . ... ... : ... .. . ... ... : ... .. . ... ... : ... .. . ... ...
ROW 5E : ... .. . ... ... ... : ... .. . P80 ... ... : ... .. . ... : ... .. 2 ... : ... .. . ... ... : ... .. . ... ... : ... .. . ... ... : ... .. . ... ...
ROW 5F : ... .. . ... ... ... : ... .. . P7F ... ... : --- .. . ... : ... .. 0 ... : ... .. . ... ... : ... .. . ... ... : ... .. . ... ... : ... .. . ... ...
ROW 60 : ... .. . ... V01 ... : C#5 00 F P82 ... ... : E-2 00 . ... : B-# 00 D ... : ... .. . ... ... : ... .. 8 ... ... : ... .. . ... ... : ... .. . ... ...
ROW 61 : ... .. . ... ... ... : ... .. . P7E ... ... : ... .. . ... : ... .. B ... : ... .. . ... ... : ... .. 7 ... ... : ... .. . ... ... : ... .. . ... ...
ROW 62 : ... .. . ... ... ... : C-5 00 F P81 ... ... : ... .. . ... : ... .. . ... : ... .. . ... ... : ... .. 6 ... ... : ... .. . ... ... : ... .. . ... ...
ROW 63 : ... .. . ... ... ... : ... .. . P80 ... ... : ... .. . ... : ... .. A ... : ... .. . ... ... : ... .. 4 ... ... : ... .. . ... ... : ... .. . ... ...
ROW 64 : ... .. . ... ... ... : ... .. . P82 ... ... : ... .. . ... : ... .. 8 ... : ... .. . ... ... : ... .. . ... ... : ... .. . ... ... : ... .. . ... ...
ROW 65 : ... .. . ... ... ... : C#5 00 F P80 ... ... : --- .. . ... : ... .. 7 ... : ... .. . ... ... : ... .. 2 ... ... : ... .. . ... ... : ... .. . ... ...
ROW 66 : ... .. . ... V02 ... : ... .. . P83 ... ... : F#2 00 . ... : ... .. 6 ... : ... .. . ... ... : ... .. 8 ... ... : ... .. . ... ... : ... .. . ... ...
ROW 67 : ... .. . ... ... ... : D-5 00 F P80 ... ... : ... .. . ... : ... .. . ... : ... .. . ... ... : ... .. 7 ... ... : ... .. . ... ... : ... .. . ... ...
ROW 68 : ... .. . ... ... ... : ... .. . ... ... ... : ... .. . ... : ... .. 5 ... : ... .. . ... ... : ... .. 6 ... ... : ... .. . ... ... : ... .. . ... ...
ROW 69 : ... .. . ... ... ... : C#5 00 F P82 ... ... : ... .. . ... : ... .. . ... : ... .. . ... ... : ... .. 4 ... ... : ... .. . ... ... : ... .. . ... ...
ROW 6A : ... .. . ... ... ... : ... .. . P7F ... ... : ... .. . ... : ... .. 4 ... : ... .. . ... ... : ... .. . ... ... : ... .. . ... ... : ... .. . ... ...
ROW 6B : ... .. . ... ... ... : C-5 00 F P81 ... ... : --- .. . ... : ... .. . ... : ... .. . ... ... : ... .. 2 ... ... : ... .. . ... ... : ... .. . ... ...
ROW 6C : ... .. . ... V00 ... : ... .. . P80 ... ... : A-2 00 . ... : 1-# 00 F ... : ... .. . ... ... : ... .. 8 ... ... : ... .. . ... ... : ... .. . ... ...
ROW 6D : ... .. . ... ... ... : ... .. . P82 ... ... : ... .. . ... : ... .. C ... : ... .. . ... ... : ... .. 7 ... ... : ... .. . ... ... : ... .. . ... ...
ROW 6E : ... .. . ... ... ... : C#5 00 F P80 ... ... : ... .. . ... : ... .. 6 ... : ... .. . ... ... : ... .. 6 ... ... : ... .. . ... ... : ... .. . ... ...
ROW 6F : ... .. . ... ... ... : ... .. . P83 ... ... : ... .. . ... : ... .. 3 ... : ... .. . ... ... : ... .. 4 ... ... : ... .. . ... ... : ... .. . ... ...
ROW 70 : ... .. . ... ... ... : D-5 00 F P80 ... ... : ... .. . ... : ... .. 2 ... : ... .. . ... ... : ... .. . ... ... : ... .. . ... ... : ... .. . ... ...
ROW 71 : ... .. . ... ... ... : ... .. . ... ... ... : --- .. . ... : ... .. 0 ... : ... .. . ... ... : ... .. 2 ... ... : ... .. . ... ... : ... .. . ... ...
ROW 72 : ... .. . ... V01 ... : C#5 00 F P83 ... ... : B-2 00 . ... : ... .. F ... : ... .. . ... ... : ... .. 8 ... ... : ... .. . ... ... : ... .. . ... ...
ROW 73 : ... .. . ... ... ... : ... .. . P80 ... ... : ... .. . ... : ... .. C ... : ... .. . ... ... : ... .. 7 ... ... : ... .. . ... ... : ... .. 3 ... ...
ROW 74 : ... .. . ... ... ... : C-5 00 F P82 ... ... : ... .. . ... : ... .. 6 ... : ... .. . ... ... : ... .. 6 ... ... : ... .. 2 ... ... : ... .. . ... ...
ROW 75 : ... .. . ... ... ... : ... .. . P80 ... ... : ... .. . ... : ... .. 3 ... : ... .. . ... ... : ... .. 4 ... ... : ... .. . ... ... : ... .. 1 ... ...
ROW 76 : ... .. . ... ... ... : ... .. . P81 ... ... : ... .. . ... : ... .. 2 ... : ... .. . ... ... : ... .. . ... ... : ... .. . ... ... : ... .. . ... ...
ROW 77 : ... .. . ... ... ... : C#5 00 F P7F ... ... : --- .. . ... : ... .. 0 ... : ... .. . ... ... : ... .. 2 ... ... : ... .. . ... ... : ... .. . ... ...
ROW 78 : D#4 00 F ... ... ... : ... .. . P82 ... ... : A#4 00 . ... : B-# 00 D ... : ... .. . ... ... : D#4 01 8 ... ... : ... .. 8 ... ... : B-4 01 C ... ...
ROW 79 : ... .. E ... ... ... : D-5 00 F P80 ... ... : C-4 00 . ... : ... .. B ... : ... .. . ... ... : ... .. 7 ... ... : ... .. 7 ... ... : ... .. A ... ...
ROW 7A : ... .. D ... ... ... : ... .. . ... ... ... : F-3 00 . ... : ... .. . ... : ... .. . ... ... : ... .. 6 ... ... : ... .. 6 ... ... : ... .. 6 ... ...
ROW 7B : ... .. A ... ... ... : C#5 00 F P83 ... ... : E-3 00 . ... : ... .. A ... : ... .. . ... ... : ... .. 4 ... ... : ... .. 5 ... ... : ... .. . ... ...
ROW 7C : ... .. . ... ... ... : ... .. . P80 ... ... : B-2 00 . ... : ... .. 8 ... : ... .. . ... ... : ... .. . ... ... : ... .. . ... ... : ... .. . ... ...
ROW 7D : ... .. . ... ... ... : C-5 00 F P82 ... ... : ... .. . ... : ... .. 7 ... : ... .. . ... ... : ... .. 2 ... ... : ... .. 4 ... ... : ... .. . ... ...
ROW 7E : ... .. . ... V02 ... : ... .. . P80 ... ... : ... .. . ... : ... .. 6 ... : ... .. . ... ... : ... .. 8 ... ... : ... .. . ... ... : ... .. . ... ...
ROW 7F : ... .. . ... ... ... : ... .. . P81 ... ... : ... .. . ... : ... .. . ... : ... .. . ... ... : ... .. 7 ... ... : ... .. . ... ... : ... .. . ... ...
ROW 80 : ... .. . ... ... ... : C#5 00 F P7E ... ... : ... .. . ... : ... .. 5 ... : ... .. . ... ... : ... .. 6 ... ... : ... .. . ... ... : ... .. . ... ...
ROW 81 : ... .. . ... ... ... : ... .. . P82 ... ... : ... .. . ... : ... .. . ... : ... .. . ... ... : ... .. 5 ... ... : ... .. . ... ... : ... .. . ... ...
ROW 82 : ... .. . ... ... ... : D-5 00 F P7F ... ... : ... .. . ... : ... .. 4 ... : ... .. . ... ... : ... .. . ... ... : ... .. . ... ... : ... .. . ... ...
ROW 83 : ... .. . ... ... ... : ... .. . P80 ... ... : --- .. . ... : ... .. . ... : ... .. . ... ... : ... .. 4 ... ... : ... .. . ... ... : ... .. . ... ...
ROW 84 : ... .. . ... V00 ... : ... .. . P7E ... ... : A#2 00 . ... : 1-# 00 F ... : ... .. . ... ... : ... .. . ... ... : ... .. . ... ... : ... .. . ... ...
ROW 85 : ... .. . ... ... ... : C#5 00 F P80 ... ... : ... .. . ... : ... .. C ... : ... .. . ... ... : ... .. . ... ... : ... .. . ... ... : ... .. . ... ...
ROW 86 : ... .. . ... ... ... : C-5 00 F P83 ... ... : ... .. . ... : ... .. 6 ... : ... .. . ... ... : ... .. 2 ... ... : ... .. . ... ... : ... .. . ... ...
ROW 87 : ... .. . ... ... ... : ... .. . P80 ... ... : ... .. . ... : ... .. 3 ... : ... .. . ... ... : ... .. . ... ... : ... .. . ... ... : ... .. . ... ...
ROW 88 : ... .. . ... ... ... : ... .. . ... ... ... : ... .. . ... : ... .. 2 ... : ... .. . ... ... : ... .. . ... ... : ... .. . ... ... : ... .. . ... ...
ROW 89 : ... .. . ... ... ... : C#5 00 F P7E ... ... : --- .. . ... : ... .. 0 ... : ... .. . ... ... : ... .. . ... ... : ... .. . ... ... : ... .. . ... ...
ROW 8A : ... .. . ... V01 ... : ... .. . P81 ... ... : A#2 00 . ... : ... .. F ... : ... .. . ... ... : ... .. 8 ... ... : ... .. . ... ... : ... .. . ... ...
ROW 8B : ... .. . ... ... ... : D-5 00 F P7F ... ... : ... .. . ... : ... .. C ... : ... .. . ... ... : ... .. 7 ... ... : ... .. . ... ... : ... .. . ... ...
ROW 8C : ... .. . ... ... ... : ... .. . P80 ... ... : ... .. . ... : ... .. 6 ... : ... .. . ... ... : ... .. 6 ... ... : ... .. . ... ... : ... .. . ... ...
ROW 8D : ... .. . ... ... ... : ... .. . P7E ... ... : ... .. . ... : ... .. 3 ... : ... .. . ... ... : ... .. 4 ... ... : ... .. . ... ... : ... .. . ... ...
ROW 8E : ... .. . ... ... ... : C#5 00 F P80 ... ... : ... .. . ... : ... .. 2 ... : ... .. . ... ... : ... .. . ... ... : ... .. . ... ... : ... .. . ... ...
ROW 8F : ... .. . ... ... ... : C-5 00 F P83 ... ... : --- .. . ... : ... .. 0 ... : ... .. . ... ... : ... .. 2 ... ... : ... .. . ... ... : ... .. . ... ...
ROW 90 : ... .. . ... V02 ... : ... .. . P80 ... ... : G#2 00 . ... : ... .. F ... : ... .. . ... ... : ... .. 8 ... ... : ... .. . ... ... : ... .. . ... ...
ROW 91 : ... .. . ... ... ... : ... .. . ... ... ... : ... .. . ... : ... .. C ... : ... .. . ... ... : ... .. 7 ... ... : ... .. . ... ... : ... .. . ... ...
ROW 92 : ... .. . ... ... ... : ... .. . P83 ... ... : ... .. . ... : ... .. 6 ... : ... .. . ... ... : ... .. 6 ... ... : ... .. . ... ... : ... .. . ... ...
ROW 93 : ... .. . ... ... ... : C#5 00 F P80 ... ... : ... .. . ... : ... .. 3 ... : ... .. . ... ... : ... .. 5 ... ... : ... .. . ... ... : ... .. . ... ...
ROW 94 : ... .. . ... ... ... : D-5 00 F P7E ... ... : ... .. . ... : ... .. 2 ... : ... .. . ... ... : ... .. . ... ... : ... .. . ... ... : ... .. . ... ...
ROW 95 : ... .. . ... ... ... : ... .. . P80 ... ... : --- .. . ... : ... .. 0 ... : ... .. . ... ... : ... .. 4 ... ... : ... .. . ... ... : ... .. . ... ...
ROW 96 : ... .. . ... V03 ... : ... .. . P7F ... ... : G#2 00 . ... : ... .. F ... : ... .. . ... ... : ... .. . ... ... : ... .. . ... ... : ... .. . ... ...
ROW 97 : ... .. . ... ... ... : C#5 00 F P81 ... ... : ... .. . ... : ... .. C ... : ... .. . ... ... : ... .. . ... ... : ... .. . ... ... : ... .. 3 ... ...
ROW 98 : ... .. . ... ... ... : ... .. . P7E ... ... : ... .. . ... : ... .. 6 ... : ... .. . ... ... : ... .. 2 ... ... : ... .. 2 ... ... : ... .. . ... ...
ROW 99 : ... .. . ... ... ... : C-5 00 F P80 ... ... : ... .. . ... : ... .. 3 ... : ... .. . ... ... : ... .. . ... ... : ... .. . ... ... : ... .. 1 ... ...
ROW 9A : ... .. . ... ... ... : ... .. . ... ... ... : ... .. . ... : ... .. 2 ... : ... .. . ... ... : ... .. . ... ... : ... .. . ... ... : ... .. . ... ...
ROW 9B : ... .. . ... ... ... : ... .. . P83 ... ... : --- .. . ... : ... .. 0 ... : ... .. . ... ... : ... .. . ... ... : ... .. . ... ... : ... .. . ... ...
ROW 9C : ... .. . ... V02 ... : C#5 00 F P80 ... ... : F#2 00 . ... : B-# 00 D ... : ... .. . ... ... : F-4 01 8 ... ... : G#4 01 8 ... ... : C#5 01 F ... ...
ROW 9D : ... .. . ... ... ... : D-5 00 F P7E ... ... : ... .. . ... : ... .. B ... : ... .. . ... ... : ... .. 7 ... ... : ... .. 7 ... ... : ... .. D ... ...
ROW 9E : ... .. . ... ... ... : ... .. . P80 ... ... : ... .. . ... : ... .. . ... : ... .. . ... ... : ... .. 6 ... ... : ... .. 6 ... ... : ... .. 8 ... ...
ROW 9F : ... .. . ... ... ... : ... .. . P7F ... ... : ... .. . ... : ... .. A ... : ... .. . ... ... : ... .. 4 ... ... : ... .. 4 ... ... : ... .. . ... ...
ROW A0 : ... .. . ... ... ... : C#5 00 F P82 ... ... : ... .. . ... : ... .. 8 ... : ... .. . ... ... : ... .. . ... ... : ... .. . ... ... : ... .. 4 ... ...
ROW A1 : ... .. . ... ... ... : ... .. . P7E ... ... : ... .. . ... : ... .. 7 ... : ... .. . ... ... : ... .. 2 ... ... : ... .. 2 ... ... : ... .. . ... ...
ROW A2 : ... .. . ... V00 ... : C-5 00 F P81 ... ... : ... .. . ... : ... .. 6 ... : ... .. . ... ... : ... .. 8 ... ... : ... .. 8 ... ... : ... .. C ... ...
ROW A3 : ... .. . ... ... ... : ... .. . P80 ... ... : ... .. . ... : ... .. . ... : ... .. . ... ... : ... .. 7 ... ... : ... .. 7 ... ... : ... .. A ... ...
ROW A4 : ... .. . ... ... ... : ... .. . P82 ... ... : ... .. . ... : ... .. 5 ... : ... .. . ... ... : ... .. 6 ... ... : ... .. 6 ... ... : ... .. 6 ... ...
ROW A5 : ... .. . ... ... ... : C#5 00 F P80 ... ... : ... .. . ... : ... .. . ... : ... .. . ... ... : ... .. 5 ... ... : ... .. 5 ... ... : ... .. . ... ...
ROW A6 : ... .. . ... ... ... : ... .. . P83 ... ... : ... .. . ... : ... .. 4 ... : ... .. . ... ... : ... .. . ... ... : ... .. . ... ... : ... .. . ... ...
ROW A7 : ... .. . ... ... ... : D-5 00 F P80 ... ... : ... .. . ... : ... .. . ... : ... .. . ... ... : ... .. 4 ... ... : ... .. 4 ... ... : ... .. . ... ...
ROW A8 : F-4 00 F ... V03 ... : G#1 00 F ... ... ... : ... .. . P70 : 1-# 00 F ... : ... .. . ... ... : ... .. . ... ... : ... .. . ... ... : ... .. . ... ...
ROW A9 : ... .. E ... ... ... : ... .. . ... ... ... : F-2 00 . P84 : ... .. C ... : ... .. . ... ... : ... .. . ... ... : ... .. . ... ... : ... .. 3 ... ...
ROW AA : ... .. D ... ... ... : ... .. . ... ... ... : ... .. . P74 : ... .. 6 ... : ... .. . ... ... : ... .. 2 ... ... : ... .. 2 ... ... : ... .. . ... ...
ROW AB : ... .. A ... ... ... : ... .. . ... ... ... : E-2 00 . P8A : ... .. 3 ... : ... .. . ... ... : ... .. . ... ... : ... .. . ... ... : ... .. 1 ... ...
ROW AC : ... .. . ... ... ... : ... .. . ... ... ... : ... .. . P7A : ... .. 2 ... : ... .. . ... ... : ... .. . ... ... : ... .. . ... ... : ... .. . ... ...
ROW AD : ... .. . ... ... ... : ... .. . ... ... ... : D#2 00 . P92 : ... .. 0 ... : ... .. . ... ... : ... .. . ... ... : ... .. . ... ... : ... .. . ... ...
ROW AE : ... .. . ... V02 ... : A#1 00 F ... ... ... : ... .. . P82 : ... .. F ... : ... .. . ... ... : ... .. 8 ... ... : ... .. 8 ... ... : ... .. C ... ...
ROW AF : ... .. . ... ... ... : ... .. . ... ... ... : ... .. . P72 : ... .. C ... : ... .. . ... ... : ... .. 7 ... ... : ... .. 7 ... ... : ... .. A ... ...
ROW B0 : ... .. . ... ... ... : ... .. . ... ... ... : D-2 00 . P8D : ... .. 6 ... : ... .. . ... ... : ... .. 6 ... ... : ... .. 6 ... ... : ... .. 6 ... ...
ROW B1 : ... .. . ... ... ... : ... .. . ... ... ... : ... .. . P7D : ... .. 3 ... : ... .. . ... ... : ... .. 4 ... ... : ... .. 4 ... ... : ... .. . ... ...
ROW B2 : ... .. . ... ... ... : ... .. . ... ... ... : ... .. . P6D : ... .. 2 ... : ... .. . ... ... : ... .. . ... ... : ... .. . ... ... : ... .. 3 ... ...
ROW B3 : ... .. . ... ... ... : ... .. . ... ... ... : C#2 00 . P8A : ... .. 0 ... : ... .. . ... ... : ... .. 2 ... ... : ... .. 2 ... ... : ... .. . ... ...
ROW B4 : ... .. . ... V00 ... : D#2 00 F ... ... ... : F-2 00 . P80 : ... .. F ... : ... .. . ... ... : ... .. 8 ... ... : ... .. 8 ... ... : ... .. C ... ...
ROW B5 : ... .. . ... ... ... : ... .. . ... ... ... : ... .. . ... : ... .. C ... : ... .. . ... ... : ... .. 7 ... ... : ... .. 7 ... ... : ... .. A ... ...
ROW B6 : ... .. . ... ... ... : ... .. . ... ... ... : ... .. . ... : ... .. 6 ... : ... .. . ... ... : ... .. 6 ... ... : ... .. 6 ... ... : ... .. 6 ... ...
ROW B7 : ... .. . ... ... ... : ... .. . ... ... ... : ... .. . ... : ... .. 3 ... : ... .. . ... ... : ... .. 5 ... ... : ... .. 5 ... ... : ... .. . ... ...
ROW B8 : ... .. . ... ... ... : ... .. . ... ... ... : ... .. . ... : ... .. 2 ... : ... .. . ... ... : ... .. . ... ... : ... .. . ... ... : ... .. . ... ...
ROW B9 : ... .. . ... ... ... : ... .. . ... ... ... : ... .. . ... : ... .. 0 ... : ... .. . ... ... : ... .. 4 ... ... : ... .. 4 ... ... : ... .. . ... ...
ROW BA : ... .. . ... V02 ... : A#2 00 F ... ... ... : F#2 00 . ... : ... .. F ... : ... .. . ... ... : ... .. . ... ... : ... .. . ... ... : ... .. . ... ...
ROW BB : ... .. . ... ... ... : ... .. . ... ... ... : ... .. . ... : ... .. C ... : ... .. . ... ... : ... .. . ... ... : ... .. . ... ... : ... .. 3 ... ...
ROW BC : ... .. . ... ... ... : ... .. . ... ... ... : ... .. . ... : ... .. 6 ... : ... .. . ... ... : ... .. 2 ... ... : ... .. 2 ... ... : ... .. . ... ...
ROW BD : ... .. . ... ... ... : ... .. . ... ... ... : ... .. . ... : ... .. 3 ... : ... .. . ... ... : ... .. . ... ... : ... .. . ... ... : ... .. 1 ... ...
ROW BE : ... .. . ... ... ... : ... .. . ... ... ... : ... .. . ... : ... .. 2 ... : ... .. . ... ... : ... .. . ... ... : ... .. . ... ... : ... .. . ... ...
ROW BF : ... .. . ... ... ... : ... .. . ... ... ... : ... .. . ... : ... .. 0 ... : ... .. . ... ... : ... .. . ... ... : ... .. . ... ... : ... .. . ... ...
ROW C0 : ... .. . ... V01 ... : D#3 00 F ... ... ... : F-2 00 . ... : 9-# 00 D ... : ... .. . ... ... : ... .. 8 ... ... : ... .. 8 ... ... : D#2 01 C ... ...
ROW C1 : ... .. . ... ... ... : ... .. . ... ... ... : ... .. . ... : ... .. B ... : ... .. . ... ... : ... .. 7 ... ... : ... .. 7 ... ... : ... .. A ... ...
ROW C2 : ... .. . ... ... ... : ... .. . ... ... ... : ... .. . ... : ... .. . ... : ... .. . ... ... : ... .. 6 ... ... : ... .. 6 ... ... : ... .. 6 ... ...
ROW C3 : ... .. . ... ... ... : ... .. . ... ... ... : ... .. . ... : ... .. A ... : ... .. . ... ... : ... .. 4 ... ... : ... .. 4 ... ... : ... .. . ... ...
ROW C4 : ... .. . ... ... ... : ... .. . ... ... ... : ... .. . ... : ... .. 8 ... : ... .. . ... ... : ... .. . ... ... : ... .. . ... ... : ... .. . ... ...
ROW C5 : ... .. . ... ... ... : ... .. . ... ... ... : --- .. . ... : ... .. 7 ... : ... .. . ... ... : ... .. 2 ... ... : ... .. 2 ... ... : ... .. . ... ...
ROW C6 : ... .. . ... V02 ... : G#3 00 F ... ... ... : B-1 00 . ... : 7-# 00 D ... : ... .. . ... ... : ... .. 8 ... ... : ... .. 8 ... ... : G#2 01 C ... ...
ROW C7 : ... .. . ... ... ... : ... .. . ... ... ... : ... .. . ... : ... .. B ... : ... .. . ... ... : ... .. 7 ... ... : ... .. 7 ... ... : ... .. A ... ...
ROW C8 : ... .. . ... ... ... : ... .. . ... ... ... : ... .. . ... : ... .. . ... : ... .. . ... ... : ... .. 6 ... ... : ... .. 6 ... ... : ... .. 6 ... ...
ROW C9 : ... .. . ... ... ... : ... .. . ... ... ... : ... .. . ... : ... .. A ... : ... .. . ... ... : ... .. 4 ... ... : ... .. 4 ... ... : ... .. . ... ...
ROW CA : ... .. . ... ... ... : ... .. . ... ... ... : ... .. . ... : ... .. 8 ... : ... .. . ... ... : ... .. . ... ... : ... .. . ... ... : ... .. . ... ...
ROW CB : ... .. . ... ... ... : ... .. . ... ... ... : --- .. . ... : ... .. 7 ... : ... .. . ... ... : ... .. 2 ... ... : ... .. 2 ... ... : ... .. . ... ...
ROW CC : ... .. . ... V00 ... : A#3 00 F ... ... ... : C#2 00 . ... : 5-# 00 D ... : ... .. . ... ... : ... .. 8 ... ... : ... .. 8 ... ... : A#2 01 C ... ...
ROW CD : ... .. . ... ... ... : ... .. . ... ... ... : ... .. . ... : ... .. B ... : ... .. . ... ... : ... .. 7 ... ... : ... .. 7 ... ... : ... .. A ... ...
ROW CE : ... .. . ... ... ... : ... .. . ... ... ... : ... .. . ... : ... .. . ... : ... .. . ... ... : ... .. 6 ... ... : ... .. 6 ... ... : ... .. 6 ... ...
ROW CF : ... .. . ... ... ... : ... .. . ... ... ... : ... .. . ... : ... .. A ... : ... .. . ... ... : ... .. 4 ... ... : ... .. 4 ... ... : ... .. . ... ...
ROW D0 : ... .. . ... ... ... : ... .. . ... ... ... : ... .. . ... : ... .. 8 ... : ... .. . ... ... : ... .. . ... ... : ... .. . ... ... : ... .. . ... ...
ROW D1 : ... .. . ... ... ... : ... .. . ... ... ... : --- .. . ... : ... .. 7 ... : ... .. . ... ... : ... .. 2 ... ... : ... .. 2 ... ... : ... .. . ... ...
ROW D2 : ... .. . ... V01 ... : C#4 00 F ... ... ... : G#1 00 . ... : 4-# 00 D ... : ... .. . ... ... : ... .. 8 ... ... : ... .. 8 ... ... : C#3 01 C ... ...
ROW D3 : ... .. . ... ... ... : ... .. . ... ... ... : ... .. . ... : ... .. B ... : ... .. . ... ... : ... .. 7 ... ... : ... .. 7 ... ... : ... .. A ... ...
ROW D4 : ... .. . ... ... ... : ... .. . ... ... ... : ... .. . ... : ... .. . ... : ... .. . ... ... : ... .. 6 ... ... : ... .. 6 ... ... : ... .. 6 ... ...
ROW D5 : ... .. . ... ... ... : ... .. . ... ... ... : ... .. . ... : ... .. A ... : ... .. . ... ... : ... .. 4 ... ... : ... .. 4 ... ... : ... .. . ... ...
ROW D6 : ... .. . ... ... ... : ... .. . ... ... ... : ... .. . ... : ... .. 8 ... : ... .. . ... ... : ... .. . ... ... : ... .. . ... ... : ... .. . ... ...
ROW D7 : ... .. . ... ... ... : ... .. . ... ... ... : --- .. . ... : ... .. 7 ... : ... .. . ... ... : ... .. 2 ... ... : ... .. 2 ... ... : ... .. . ... ...
ROW D8 : D#5 00 F ... ... ... : D#5 00 A ... ... ... : D-5 00 . ... : A-# 00 F ... : ... .. . ... ... : D#3 01 A ... ... : G#3 01 A ... ... : D#3 01 F ... ...
ROW D9 : ... .. E ... ... ... : ... .. 8 ... ... ... : E-4 00 . ... : ... .. . ... : ... .. . ... ... : ... .. 9 ... ... : ... .. 9 ... ... : ... .. D ... ...
ROW DA : ... .. D ... ... ... : ... .. . ... ... ... : A-3 00 . ... : ... .. . ... : ... .. . ... ... : ... .. 8 ... ... : ... .. 8 ... ... : ... .. 8 ... ...
ROW DB : ... .. A ... ... ... : ... .. . ... ... ... : G#3 00 . ... : ... .. E ... : ... .. . ... ... : ... .. 7 ... ... : ... .. 7 ... ... : ... .. . ... ...
ROW DC : ... .. . ... ... ... : A#4 00 A ... ... ... : D#3 00 . ... : ... .. . ... : ... .. . ... ... : ... .. . ... ... : ... .. . ... ... : ... .. . ... ...
ROW DD : ... .. . ... ... ... : ... .. 8 ... ... ... : ... .. . ... : ... .. . ... : ... .. . ... ... : ... .. 6 ... ... : ... .. 6 ... ... : ... .. . ... ...
ROW DE : A#4 00 F ... ... ... : ... .. . ... ... ... : D-3 00 . P75 : ... .. . ... : ... .. . ... ... : ... .. . ... ... : ... .. . ... ... : ... .. . ... ...
ROW DF : ... .. E ... ... ... : ... .. . ... ... ... : C-3 00 . P84 : ... .. . ... : ... .. . ... ... : ... .. 5 ... ... : ... .. 5 ... ... : ... .. . ... ...
ROW E0 : ... .. D ... ... ... : G#4 00 A ... ... ... : B-2 00 . P7D : ... .. . ... : ... .. . ... ... : ... .. . ... ... : ... .. . ... ... : ... .. . ... ...
ROW E1 : D#5 00 8 ... ... ... : ... .. 8 ... ... ... : A#2 00 . P78 : ... .. . ... : ... .. . ... ... : ... .. . ... ... : ... .. . ... ... : ... .. . ... ...
ROW E2 : ... .. 7 ... ... ... : ... .. . ... ... ... : A-2 00 . P74 : ... .. . ... : ... .. . ... ... : ... .. . ... ... : ... .. . ... ... : ... .. . ... ...
ROW E3 : ... .. 6 ... ... ... : ... .. . ... ... ... : --- .. . ... : ... .. . ... : ... .. . ... ... : ... .. . ... ... : ... .. . ... ... : ... .. . ... ...
ROW E4 : G#4 00 F ... ... ... : D#4 00 A ... ... ... : D#3 00 . P80 : 8-# 00 E ... : ... .. . ... ... : ... .. . ... ... : ... .. . ... ... : ... .. . ... ...
ROW E5 : ... .. E ... ... ... : ... .. 8 ... ... ... : ... .. . ... : ... .. . ... : ... .. . ... ... : ... .. . ... ... : ... .. . ... ... : ... .. . ... ...
ROW E6 : ... .. D ... ... ... : ... .. . ... ... ... : ... .. . ... : ... .. . ... : ... .. . ... ... : ... .. . ... ... : ... .. . ... ... : ... .. . ... ...
ROW E7 : A#4 00 8 ... ... ... : ... .. . ... ... ... : ... .. . ... : ... .. . ... : ... .. . ... ... : ... .. . ... ... : ... .. . ... ... : ... .. . ... ...
ROW E8 : ... .. 7 ... ... ... : A#3 00 A ... ... ... : ... .. . ... : ... .. . ... : ... .. . ... ... : ... .. . ... ... : ... .. . ... ... : ... .. . ... ...
ROW E9 : ... .. 6 ... ... ... : ... .. 8 ... ... ... : --- .. . ... : ... .. . ... : ... .. . ... ... : ... .. . ... ... : ... .. . ... ... : ... .. . ... ...
ROW EA : D#4 00 F ... ... ... : ... .. . ... ... ... : D#3 00 . ... : ... .. . ... : ... .. . ... ... : ... .. . ... ... : ... .. . ... ... : ... .. . ... ...
ROW EB : ... .. E ... ... ... : ... .. . ... ... ... : ... .. . ... : ... .. . ... : ... .. . ... ... : ... .. . ... ... : ... .. . ... ... : ... .. . ... ...
ROW EC : ... .. D ... ... ... : G#3 00 A ... ... ... : ... .. . ... : ... .. . ... : ... .. . ... ... : ... .. . ... ... : ... .. . ... ... : ... .. . ... ...
ROW ED : G#4 00 8 ... ... ... : ... .. 8 ... ... ... : ... .. . ... : ... .. . ... : ... .. . ... ... : ... .. . ... ... : ... .. . ... ... : ... .. . ... ...
ROW EE : ... .. 7 ... ... ... : ... .. . ... ... ... : ... .. . ... : ... .. . ... : ... .. . ... ... : ... .. . ... ... : ... .. . ... ... : ... .. . ... ...
ROW EF : ... .. 6 ... ... ... : ... .. . ... ... ... : --- .. . ... : ... .. . ... : ... .. . ... ... : ... .. . ... ... : ... .. . ... ... : ... .. . ... ...
ROW F0 : A#3 00 F ... ... ... : D#3 00 A ... ... ... : C-5 00 . ... : 7-# 00 E ... : ... .. . ... ... : ... .. . ... ... : ... .. . ... ... : ... .. . P77 ...
ROW F1 : ... .. E ... ... ... : ... .. 8 ... ... ... : D-4 00 . ... : ... .. . ... : ... .. . ... ... : ... .. . ... ... : ... .. . ... ... : D-3 01 8 P87 ...
ROW F2 : ... .. D ... ... ... : ... .. . ... ... ... : G-3 00 . ... : ... .. . ... : ... .. . ... ... : ... .. . ... ... : ... .. . ... ... : ... .. . P7F ...
ROW F3 : D#4 00 8 ... ... ... : ... .. . ... ... ... : F#3 00 . ... : ... .. . ... : ... .. . ... ... : ... .. . ... ... : ... .. . ... ... : ... .. . P77 ...
ROW F4 : ... .. 7 ... ... ... : A#2 00 A ... ... ... : C#3 00 . ... : ... .. . ... : ... .. . ... ... : ... .. . ... ... : ... .. . ... ... : C#3 01 8 P89 ...
ROW F5 : ... .. 6 ... ... ... : ... .. 8 ... ... ... : --- .. . ... : ... .. . ... : ... .. . ... ... : ... .. . ... ... : ... .. . ... ... : ... .. . P81 ...
ROW F6 : G#3 00 F ... ... ... : ... .. . ... ... ... : D#3 00 . ... : ... .. D ... : ... .. . ... ... : ... .. . ... ... : ... .. . ... ... : ... .. . P79 ...
ROW F7 : ... .. E ... ... ... : ... .. . ... ... ... : ... .. . ... : ... .. . ... : ... .. . ... ... : ... .. . ... ... : ... .. . ... ... : C-3 01 8 P8D ...
ROW F8 : ... .. D ... ... ... : G#2 00 A ... ... ... : ... .. . ... : ... .. . ... : ... .. . ... ... : ... .. 3 ... ... : ... .. 3 ... ... : ... .. . P85 ...
ROW F9 : A#3 00 8 ... ... ... : ... .. 8 ... ... ... : ... .. . ... : ... .. . ... : ... .. . ... ... : ... .. . ... ... : ... .. . ... ... : ... .. . P7D ...
ROW FA : ... .. 7 ... ... ... : ... .. . ... ... ... : ... .. . ... : ... .. . ... : ... .. . ... ... : ... .. . ... ... : ... .. . ... ... : ... .. . P75 ...
ROW FB : ... .. 6 ... ... ... : ... .. . ... ... ... : --- .. . ... : ... .. . ... : ... .. . ... ... : ... .. . ... ... : ... .. . ... ... : B-2 01 8 P8A ...
ROW FC : E-5 00 F ... ... ... : E-5 00 A ... ... ... : D#3 00 . ... : 5-# 00 D ... : ... .. . ... ... : E-3 01 A ... ... : A-3 01 A ... ... : ... .. . P82 ...
ROW FD : ... .. E ... ... ... : ... .. 8 ... ... ... : ... .. . ... : ... .. . ... : ... .. . ... ... : ... .. 9 ... ... : ... .. 9 ... ... : ... .. . P7A ...
ROW FE : ... .. D ... ... ... : ... .. . ... ... ... : ... .. . ... : ... .. . ... : ... .. . ... ... : ... .. 8 ... ... : ... .. 8 ... ... : ... .. . P72 ...
ROW FF : G#3 00 8 ... ... ... : ... .. . ... ... ... : ... .. . ... : ... .. . ... : ... .. . ... ... : ... .. 7 ... ... : ... .. 7 ... ... : A#2 01 8 P88 ...

PATTERN 19
ROW 00 : ... .. 7 ... ... ... : B-4 00 A ... ... ... : ... .. . ... : ... .. . ... : ... .. . ... ... : ... .. . ... ... : ... .. . ... ... : ... .. . P80 ...
ROW 01 : ... .. 6 ... ... ... : ... .. 8 ... ... ... : --- .. . ... : ... .. . ... : ... .. . ... ... : ... .. 6 ... ... : ... .. 6 ... ... : ... .. . P78 ...
ROW 02 : B-4 00 F ... ... ... : ... .. . ... ... ... : D#3 00 . ... : ... .. . ... : ... .. . ... ... : ... .. . ... ... : ... .. . ... ... : ... .. . P70 ...
ROW 03 : ... .. E ... ... ... : ... .. . ... ... ... : ... .. . ... : ... .. . ... : ... .. . ... ... : ... .. 5 ... ... : ... .. 5 ... ... : A-2 01 8 P89 ...
ROW 04 : ... .. D ... ... ... : A-4 00 A ... ... ... : ... .. . ... : ... .. . ... : ... .. . ... ... : ... .. . ... ... : ... .. . ... ... : ... .. . P81 ...
ROW 05 : E-5 00 8 ... ... ... : ... .. 8 ... ... ... : ... .. . ... : ... .. . ... : ... .. . ... ... : ... .. . ... ... : ... .. . ... ... : ... .. . P79 ...
ROW 06 : ... .. 7 ... ... ... : ... .. . ... ... ... : ... .. . ... : ... .. . ... : ... .. . ... ... : ... .. . ... ... : ... .. . ... ... : ... .. . P71 ...
ROW 07 : ... .. 6 ... ... ... : ... .. . ... ... ... : --- .. . ... : ... .. . ... : ... .. . ... ... : ... .. . ... ... : ... .. . ... ... : G#2 01 8 P8C ...
ROW 08 : A-4 00 F ... ... ... : E-4 00 A ... ... ... : D-5 00 . ... : 3-# 00 D ... : ... .. . ... ... : ... .. . ... ... : ... .. . ... ... : ... .. . P84 ...
ROW 09 : ... .. E ... ... ... : ... .. 8 ... ... ... : E-4 00 . ... : ... .. . ... : ... .. . ... ... : ... .. . ... ... : ... .. . ... ... : ... .. . P7C ...
ROW 0A : ... .. D ... ... ... : ... .. . ... ... ... : A-3 00 . ... : ... .. . ... : ... .. . ... ... : ... .. . ... ... : ... .. . ... ... : ... .. . P74 ...
ROW 0B : B-4 00 8 ... ... ... : ... .. . ... ... ... : G#3 00 . ... : ... .. . ... : ... .. . ... ... : ... .. . ... ... : ... .. . ... ... : G-2 01 8 P90 ...
ROW 0C : ... .. 7 ... ... ... : B-3 00 A ... ... ... : D#3 00 . ... : ... .. . ... : ... .. . ... ... : ... .. . ... ... : ... .. . ... ... : ... .. . P88 ...
ROW 0D : ... .. 6 ... ... ... : ... .. 8 ... ... ... : ... .. . ... : ... .. . ... : ... .. . ... ... : ... .. . ... ... : ... .. . ... ... : ... .. . P80 ...
ROW 0E : E-4 00 F ... ... ... : ... .. . ... ... ... : D-3 00 . P75 : ... .. . ... : ... .. . ... ... : ... .. . ... ... : ... .. . ... ... : ... .. . P78 ...
ROW 0F : ... .. E ... ... ... : ... .. . ... ... ... : C-3 00 . P84 : ... .. . ... : ... .. . ... ... : ... .. . ... ... : ... .. . ... ... : ... .. . P70 ...
ROW 10 : ... .. D ... ... ... : A-3 00 A ... ... ... : B-2 00 . P7D : ... .. . ... : ... .. . ... ... : ... .. . ... ... : ... .. . ... ... : F#2 01 8 P8F ...
ROW 11 : A-4 00 8 ... ... ... : ... .. 8 ... ... ... : A#2 00 . P78 : ... .. . ... : ... .. . ... ... : ... .. . ... ... : ... .. . ... ... : ... .. . P87 ...
ROW 12 : ... .. 7 ... ... ... : ... .. . ... ... ... : A-2 00 . P74 : ... .. . ... : ... .. . ... ... : ... .. . ... ... : ... .. . ... ... : ... .. . P7F ...
ROW 13 : ... .. 6 ... ... ... : ... .. . ... ... ... : --- .. . ... : ... .. . ... : ... .. . ... ... : ... .. . ... ... : ... .. . ... ... : ... .. . P77 ...
ROW 14 : B-3 00 F ... ... ... : E-3 00 A ... ... ... : D#2 00 . P80 : 1-# 00 C ... : ... .. . ... ... : ... .. . ... ... : ... .. . ... ... : ... .. . P6F ...
ROW 15 : ... .. E ... ... ... : ... .. 8 ... ... ... : ... .. . ... : ... .. . ... : ... .. . ... ... : ... .. . ... ... : ... .. . ... ... : F-2 01 8 P90 ...
ROW 16 : ... .. D ... ... ... : ... .. . ... ... ... : ... .. . ... : ... .. . ... : ... .. . ... ... : ... .. . ... ... : ... .. . ... ... : ... .. . P88 ...
ROW 17 : E-4 00 8 ... ... ... : ... .. . ... ... ... : ... .. . ... : ... .. . ... : ... .. . ... ... : ... .. . ... ... : ... .. . ... ... : ... .. . P80 ...
ROW 18 : ... .. 7 ... ... ... : B-2 00 A ... ... ... : ... .. . ... : ... .. . ... : ... .. . ... ... : ... .. . ... ... : ... .. . ... ... : ... .. . P78 ...
ROW 19 : ... .. 6 ... ... ... : ... .. 8 ... ... ... : --- .. . ... : ... .. . ... : ... .. . ... ... : ... .. . ... ... : ... .. . ... ... : ... .. . P70 ...
ROW 1A : A-3 00 F ... ... ... : ... .. . ... ... ... : D#2 00 . ... : ... .. . ... : ... .. . ... ... : ... .. . ... ... : ... .. . ... ... : E-2 01 8 P94 ...
ROW 1B : ... .. E ... ... ... : ... .. . ... ... ... : ... .. . ... : ... .. . ... : ... .. . ... ... : ... .. . ... ... : ... .. . ... ... : ... .. . P8C ...
ROW 1C : ... .. D ... ... ... : A-2 00 A ... ... ... : ... .. . ... : ... .. . ... : ... .. . ... ... : ... .. . ... ... : ... .. . ... ... : ... .. . P84 ...
ROW 1D : B-3 00 8 ... ... ... : ... .. 8 ... ... ... : ... .. . ... : ... .. . ... : ... .. . ... ... : ... .. . ... ... : ... .. . ... ... : ... .. . P7C ...
ROW 1E : ... .. 7 ... ... ... : ... .. . ... ... ... : ... .. . ... : ... .. . ... : ... .. . ... ... : ... .. . ... ... : ... .. . ... ... : ... .. . P74 ...
ROW 1F : ... .. 6 ... ... ... : ... .. . ... ... ... : --- .. . ... : ... .. . ... : ... .. . ... ... : ... .. . ... ... : ... .. . ... ... : ... .. . P6C ...
ROW 20 : ... .. F ... ... ... : E-2 00 A ... ... ... : C-4 00 . ... : 0-# 00 C ... : ... .. . ... ... : ... .. . ... ... : ... .. . ... ... : D#2 01 8 P92 ...
ROW 21 : ... .. E ... ... ... : ... .. 8 ... ... ... : D-3 00 . ... : ... .. . ... : ... .. . ... ... : ... .. . ... ... : ... .. . ... ... : ... .. . P8A ...
ROW 22 : ... .. D ... ... ... : ... .. . ... ... ... : G-2 00 . ... : ... .. . ... : ... .. . ... ... : ... .. . ... ... : ... .. . ... ... : ... .. . P82 ...
ROW 23 : A-3 00 8 ... ... ... : ... .. . ... ... ... : F#2 00 . ... : ... .. . ... : ... .. . ... ... : ... .. . ... ... : ... .. . ... ... : ... .. . P7A ...
ROW 24 : ... .. 7 ... ... ... : A-2 00 A ... ... ... : C#2 00 . ... : ... .. . ... : ... .. . ... ... : ... .. . ... ... : ... .. . ... ... : ... .. . P72 ...
ROW 25 : ... .. 6 ... ... ... : ... .. 8 ... ... ... : --- .. . ... : ... .. . ... : ... .. . ... ... : ... .. . ... ... : ... .. . ... ... : ... .. . P6A ...
ROW 26 : E-4 00 F ... ... ... : ... .. . ... ... ... : D#2 00 . ... : ... .. . ... : ... .. . ... ... : ... .. . ... ... : ... .. . ... ... : D-2 01 8 P93 ...
ROW 27 : ... .. E ... ... ... : ... .. . ... ... ... : ... .. . ... : ... .. . ... : ... .. . ... ... : ... .. . ... ... : ... .. . ... ... : ... .. . P8B ...
ROW 28 : ... .. D ... ... ... : B-2 00 A ... ... ... : ... .. . ... : ... .. . ... : ... .. . ... ... : ... .. . ... ... : ... .. . ... ... : ... .. . P83 ...
ROW 29 : B-3 00 8 ... ... ... : ... .. 8 ... ... ... : ... .. . ... : ... .. . ... : ... .. . ... ... : ... .. . ... ... : ... .. . ... ... : ... .. . P7B ...
ROW 2A : ... .. 7 ... ... ... : ... .. . ... ... ... : ... .. . ... : ... .. . ... : ... .. . ... ... : ... .. . ... ... : ... .. . ... ... : ... .. . P73 ...
ROW 2B : ... .. 6 ... ... ... : ... .. . ... ... ... : --- .. . ... : ... .. . ... : ... .. . ... ... : ... .. . ... ... : ... .. . ... ... : ... .. . P6B ...
ROW 2C : A-4 00 F ... ... ... : E-3 00 A ... ... ... : E-2 00 . ... : 2-# 00 C ... : ... .. . ... ... : ... .. . ... ... : ... .. . ... ... : C#2 01 8 P96 ...
ROW 2D : ... .. E ... ... ... : ... .. 8 ... ... ... : ... .. . ... : ... .. . ... : ... .. . ... ... : ... .. . ... ... : ... .. . ... ... : ... .. . P8E ...
ROW 2E : ... .. D ... ... ... : ... .. . ... ... ... : ... .. . ... : ... .. . ... : ... .. . ... ... : ... .. 3 ... ... : ... .. 3 ... ... : ... .. . P86 ...
ROW 2F : E-4 00 8 ... ... ... : ... .. . ... ... ... : ... .. . ... : ... .. . ... : ... .. . ... ... : ... .. . ... ... : ... .. . ... ... : ... .. . P7E ...
ROW 30 : ... .. 7 ... ... ... : A-3 00 A ... ... ... : ... .. . ... : ... .. . ... : ... .. . ... ... : ... .. . ... ... : ... .. . ... ... : ... .. . P76 ...
ROW 31 : ... .. 6 ... ... ... : ... .. 8 ... ... ... : --- .. . ... : ... .. . ... : ... .. . ... ... : ... .. . ... ... : ... .. . ... ... : ... .. . P6E ...
ROW 32 : B-4 00 F ... ... ... : ... .. . ... ... ... : D#2 00 . ... : ... .. B ... : ... .. . ... ... : ... .. . ... ... : ... .. . ... ... : ... .. . P66 ...
ROW 33 : ... .. E ... ... ... : ... .. . ... ... ... : ... .. . ... : ... .. . ... : ... .. . ... ... : ... .. . ... ... : ... .. . ... ... : C-2 01 8 P95 ...
ROW 34 : ... .. D ... ... ... : E-4 00 A ... ... ... : ... .. . ... : ... .. . ... : ... .. . ... ... : ... .. . ... ... : ... .. . ... ... : ... .. . P8D ...
ROW 35 : A-4 00 8 ... ... ... : ... .. 8 ... ... ... : ... .. . ... : ... .. . ... : ... .. . ... ... : ... .. . ... ... : ... .. . ... ... : ... .. . P85 ...
ROW 36 : ... .. 7 ... ... ... : ... .. . ... ... ... : ... .. . ... : ... .. . ... : ... .. . ... ... : ... .. . ... ... : ... .. . ... ... : ... .. . P7D ...
ROW 37 : ... .. 6 ... ... ... : ... .. . ... ... ... : --- .. . ... : ... .. . ... : ... .. . ... ... : ... .. . ... ... : ... .. . ... ... : ... .. . P75 ...
ROW 38 : F#5 00 F ... ... ... : F#5 00 A ... ... ... : D-5 00 . ... : ... .. . ... : ... .. . ... ... : F#3 01 A ... ... : B-3 01 A ... ... : ... .. . P6D ...
ROW 39 : ... .. E ... ... ... : ... .. 8 ... ... ... : E-4 00 . ... : ... .. . ... : ... .. . ... ... : ... .. 9 ... ... : ... .. 9 ... ... : ... .. . P65 ...
ROW 3A : ... .. D ... ... ... : ... .. . ... ... ... : A-3 00 . ... : ... .. . ... : ... .. . ... ... : ... .. 8 ... ... : ... .. 8 ... ... : B-1 01 8 P97 ...
ROW 3B : B-4 00 8 ... ... ... : ... .. . ... ... ... : G#3 00 . ... : ... .. . ... : ... .. . ... ... : ... .. 7 ... ... : ... .. 7 ... ... : ... .. . P8F ...
ROW 3C : ... .. 7 ... ... ... : C#5 00 A ... ... ... : D#3 00 . ... : ... .. . ... : ... .. . ... ... : ... .. . ... ... : ... .. . ... ... : ... .. . P87 ...
ROW 3D : ... .. 6 ... ... ... : ... .. 8 ... ... ... : ... .. . ... : ... .. . ... : ... .. . ... ... : ... .. 6 ... ... : ... .. 6 ... ... : ... .. . P7F ...
ROW 3E : C#5 00 F ... ... ... : ... .. . ... ... ... : D-3 00 . P75 : 4-# 00 B ... : ... .. . ... ... : ... .. . ... ... : ... .. . ... ... : ... .. . P77 ...
ROW 3F : ... .. E ... ... ... : ... .. . ... ... ... : C-3 00 . P84 : ... .. . ... : ... .. . ... ... : ... .. 5 ... ... : ... .. 5 ... ... : ... .. . P6F ...
ROW 40 : ... .. D ... ... ... : B-4 00 A ... ... ... : B-2 00 . P7D : ... .. . ... : ... .. . ... ... : ... .. . ... ... : ... .. . ... ... : ... .. . P67 ...
ROW 41 : F#5 00 8 ... ... ... : ... .. 8 ... ... ... : A#2 00 . P78 : ... .. . ... : ... .. . ... ... : ... .. . ... ... : ... .. . ... ... : A#1 01 8 P9D ...
ROW 42 : ... .. 7 ... ... ... : ... .. . ... ... ... : A-2 00 . P74 : ... .. . ... : ... .. . ... ... : ... .. . ... ... : ... .. . ... ... : ... .. . P95 ...
ROW 43 : ... .. 6 ... ... ... : ... .. . ... ... ... : --- .. . ... : ... .. . ... : ... .. . ... ... : ... .. . ... ... : ... .. . ... ... : ... .. . P8D ...
ROW 44 : B-4 00 F ... ... ... : F#4 00 A ... ... ... : D#3 00 . P80 : ... .. . ... : ... .. . ... ... : ... .. . ... ... : ... .. . ... ... : ... .. . P85 ...
ROW 45 : ... .. E ... ... ... : ... .. 8 ... ... ... : ... .. . ... : ... .. . ... : ... .. . ... ... : ... .. . ... ... : ... .. . ... ... : ... .. . P7D ...
ROW 46 : ... .. D ... ... ... : ... .. . ... ... ... : ... .. . ... : ... .. . ... : ... .. . ... ... : ... .. . ... ... : ... .. . ... ... : ... .. . P75 ...
ROW 47 : C#5 00 8 ... ... ... : ... .. . ... ... ... : ... .. . ... : ... .. . ... : ... .. . ... ... : ... .. . ... ... : ... .. . ... ... : ... .. . P6D ...
ROW 48 : ... .. 7 ... ... ... : C#4 00 A ... ... ... : ... .. . ... : ... .. . ... : ... .. . ... ... : ... .. . ... ... : ... .. . ... ... : ... .. . P65 ...
ROW 49 : ... .. 6 ... ... ... : ... .. 8 ... ... ... : --- .. . ... : ... .. . ... : ... .. . ... ... : ... .. . ... ... : ... .. . ... ... : A-1 01 8 P9E ...
ROW 4A : F#4 00 F ... ... ... : ... .. . ... ... ... : D#3 00 . ... : ... .. . ... : ... .. . ... ... : ... .. . ... ... : ... .. . ... ... : ... .. . P96 ...
ROW 4B : ... .. E ... ... ... : ... .. . ... ... ... : ... .. . ... : ... .. . ... : ... .. . ... ... : ... .. . ... ... : ... .. . ... ... : ... .. . P8E ...
ROW 4C : ... .. D ... ... ... : B-3 00 A ... ... ... : ... .. . ... : ... .. . ... : ... .. . ... ... : ... .. . ... ... : ... .. . ... ... : ... .. . P86 ...
ROW 4D : B-4 00 8 ... ... ... : ... .. 8 ... ... ... : ... .. . ... : ... .. . ... : ... .. . ... ... : ... .. . ... ... : ... .. . ... ... : ... .. . P7E ...
ROW 4E : ... .. 7 ... ... ... : ... .. . ... ... ... : ... .. . ... : ... .. . ... : ... .. . ... ... : ... .. . ... ... : ... .. . ... ... : ... .. . P76 ...
ROW 4F : ... .. 6 ... ... ... : ... .. . ... ... ... : --- .. . ... : ... .. . ... : ... .. . ... ... : ... .. . ... ... : ... .. . ... ... : ... .. . P6E ...
ROW 50 : C#4 00 F ... ... ... : F#3 00 A ... ... ... : C-5 00 . ... : ... .. A ... : ... .. . ... ... : ... .. . ... ... : ... .. . ... ... : ... .. . P66 ...
ROW 51 : ... .. E ... ... ... : ... .. 8 ... ... ... : D-4 00 . ... : ... .. . ... : ... .. . ... ... : ... .. . ... ... : ... .. . ... ... : ... .. . P5E ...
ROW 52 : ... .. D ... ... ... : ... .. . ... ... ... : G-3 00 . ... : ... .. . ... : ... .. . ... ... : ... .. . ... ... : ... .. . ... ... : G#1 01 8 P9B ...
ROW 53 : F#4 00 8 ... ... ... : ... .. . ... ... ... : F#3 00 . ... : ... .. . ... : ... .. . ... ... : ... .. . ... ... : ... .. . ... ... : ... .. . P93 ...
ROW 54 : ... .. 7 ... ... ... : C#3 00 A ... ... ... : C#3 00 . ... : ... .. . ... : ... .. . ... ... : ... .. . ... ... : ... .. . ... ... : ... .. . P8B ...
ROW 55 : ... .. 6 ... ... ... : ... .. 8 ... ... ... : --- .. . ... : ... .. . ... : ... .. . ... ... : ... .. . ... ... : ... .. . ... ... : ... .. . P83 ...
ROW 56 : B-3 00 F ... ... ... : ... .. . ... ... ... : D#3 00 . ... : ... .. . ... : ... .. . ... ... : ... .. . ... ... : ... .. . ... ... : ... .. . P7B ...
ROW 57 : ... .. E ... ... ... : ... .. . ... ... ... : ... .. . ... : ... .. . ... : ... .. . ... ... : ... .. . ... ... : ... .. . ... ... : ... .. . P73 ...
ROW 58 : ... .. D ... ... ... : B-2 00 A ... ... ... : ... .. . ... : ... .. . ... : ... .. . ... ... : ... .. 3 ... ... : ... .. 3 ... ... : ... .. . P6B ...
ROW 59 : C#4 00 8 ... ... ... : ... .. 8 ... ... ... : ... .. . ... : ... .. . ... : ... .. . ... ... : ... .. . ... ... : ... .. . ... ... : ... .. . P63 ...
ROW 5A : ... .. 7 ... ... ... : ... .. . ... ... ... : ... .. . ... : ... .. . ... : ... .. . ... ... : ... .. . ... ... : ... .. . ... ... : G-1 01 8 PA5 ...
ROW 5B : ... .. 6 ... ... ... : ... .. . ... ... ... : --- .. . ... : ... .. . ... : ... .. . ... ... : ... .. . ... ... : ... .. . ... ... : ... .. . P9D ...
ROW 5C : G#5 00 F ... ... ... : G#5 00 A ... ... ... : D#3 00 . ... : 5-# 00 A ... : ... .. . ... ... : G#3 01 A ... ... : C#4 01 A ... ... : ... .. . P95 ...
ROW 5D : ... .. E ... ... ... : ... .. 8 ... ... ... : ... .. . ... : ... .. . ... : ... .. . ... ... : ... .. 9 ... ... : ... .. 9 ... ... : ... .. . P8D ...
ROW 5E : ... .. D ... ... ... : ... .. . ... ... ... : ... .. . ... : ... .. . ... : ... .. . ... ... : ... .. 8 ... ... : ... .. 8 ... ... : ... .. . P85 ...
ROW 5F : B-3 00 8 ... ... ... : ... .. . ... ... ... : ... .. . ... : ... .. . ... : ... .. . ... ... : ... .. 7 ... ... : ... .. 7 ... ... : ... .. . P7D ...
ROW 60 : ... .. 7 ... ... ... : D#5 00 A ... ... ... : ... .. . ... : ... .. . ... : ... .. . ... ... : ... .. . ... ... : ... .. . ... ... : ... .. . P75 ...
ROW 61 : ... .. 6 ... ... ... : ... .. 8 ... ... ... : --- .. . ... : ... .. . ... : ... .. . ... ... : ... .. 6 ... ... : ... .. 6 ... ... : ... .. . P6D ...
ROW 62 : D#5 00 F ... ... ... : ... .. . ... ... ... : D#3 00 . ... : ... .. . ... : ... .. . ... ... : ... .. . ... ... : ... .. . ... ... : ... .. . P65 ...
ROW 63 : ... .. E ... ... ... : ... .. . ... ... ... : ... .. . ... : ... .. . ... : ... .. . ... ... : ... .. 5 ... ... : ... .. 5 ... ... : ... .. . P5D ...
ROW 64 : ... .. D ... ... ... : C#5 00 A ... ... ... : ... .. . ... : ... .. . ... : ... .. . ... ... : ... .. . ... ... : ... .. . ... ... : F#1 01 8 PA2 ...
ROW 65 : G#5 00 8 ... ... ... : ... .. 8 ... ... ... : ... .. . ... : ... .. . ... : ... .. . ... ... : ... .. . ... ... : ... .. . ... ... : ... .. . P9A ...
ROW 66 : ... .. 7 ... ... ... : ... .. . ... ... ... : ... .. . ... : ... .. . ... : ... .. . ... ... : ... .. . ... ... : ... .. . ... ... : ... .. . P92 ...
ROW 67 : ... .. 6 ... ... ... : ... .. . ... ... ... : --- .. . ... : ... .. . ... : ... .. . ... ... : ... .. . ... ... : ... .. . ... ... : ... .. . P8A ...
ROW 68 : A#4 00 F ... ... ... : G#4 00 A ... ... ... : D-5 00 . ... : ... .. . ... : ... .. . ... ... : ... .. . ... ... : ... .. . ... ... : ... .. . P82 ...
ROW 69 : ... .. E ... ... ... : ... .. 8 ... ... ... : E-4 00 . ... : ... .. . ... : ... .. . ... ... : ... .. . ... ... : ... .. . ... ... : ... .. . P7A ...
ROW 6A : ... .. D ... ... ... : ... .. . ... ... ... : A-3 00 . ... : ... .. . ... : ... .. . ... ... : ... .. . ... ... : ... .. . ... ... : ... .. . P72 ...
ROW 6B : D#5 00 8 ... ... ... : ... .. . ... ... ... : G#3 00 . ... : ... .. . ... : ... .. . ... ... : ... .. . ... ... : ... .. . ... ... : ... .. . P6A ...
ROW 6C : ... .. 7 ... ... ... : D#4 00 A ... ... ... : D#3 00 . ... : ... .. . ... : ... .. . ... ... : ... .. . ... ... : ... .. . ... ... : ... .. . P62 ...
ROW 6D : ... .. 6 ... ... ... : ... .. 8 ... ... ... : ... .. . ... : ... .. . ... : ... .. . ... ... : ... .. . ... ... : ... .. . ... ... : ... .. . P5A ...
ROW 6E : G#4 00 F ... ... ... : ... .. . ... ... ... : D-3 00 . P75 : 7-# 00 A ... : ... .. . ... ... : ... .. . ... ... : ... .. . ... ... : F-1 01 8 PA4 ...
ROW 6F : ... .. E ... ... ... : ... .. . ... ... ... : C-3 00 . P84 : ... .. . ... : ... .. . ... ... : ... .. . ... ... : ... .. . ... ... : ... .. . P9C ...
ROW 70 : ... .. D ... ... ... : C#4 00 A ... ... ... : B-2 00 . P7D : ... .. . ... : ... .. . ... ... : ... .. . ... ... : ... .. . ... ... : ... .. . P94 ...
ROW 71 : A#4 00 8 ... ... ... : ... .. 8 ... ... ... : A#2 00 . P78 : ... .. . ... : ... .. . ... ... : ... .. . ... ... : ... .. . ... ... : ... .. . P8C ...
ROW 72 : ... .. 7 ... ... ... : ... .. . ... ... ... : A-2 00 . P74 : ... .. . ... : ... .. . ... ... : ... .. . ... ... : ... .. . ... ... : ... .. . P84 ...
ROW 73 : ... .. 6 ... ... ... : ... .. . ... ... ... : --- .. . ... : ... .. . ... : ... .. . ... ... : ... .. . ... ... : ... .. . ... ... : ... .. . P7C ...
ROW 74 : D#4 00 F ... ... ... : G#3 00 A ... ... ... : D#2 00 . P80 : ... .. . ... : ... .. . ... ... : ... .. . ... ... : ... .. . ... ... : ... .. . P74 ...
ROW 75 : ... .. E ... ... ... : ... .. 8 ... ... ... : ... .. . ... : ... .. . ... : ... .. . ... ... : ... .. . ... ... : ... .. . ... ... : ... .. . P6C ...
ROW 76 : ... .. D ... ... ... : ... .. . ... ... ... : ... .. . ... : ... .. . ... : ... .. . ... ... : ... .. . ... ... : ... .. . ... ... : ... .. . P64 ...
ROW 77 : G#4 00 8 ... ... ... : ... .. . ... ... ... : ... .. . ... : ... .. . ... : ... .. . ... ... : ... .. . ... ... : ... .. . ... ... : ... .. . P5C ...
ROW 78 : ... .. 7 ... ... ... : D#3 00 A ... ... ... : ... .. . ... : ... .. . ... : ... .. . ... ... : ... .. . ... ... : ... .. . ... ... : E-1 01 8 PAB ...
ROW 79 : ... .. 6 ... ... ... : ... .. 8 ... ... ... : --- .. . ... : ... .. . ... : ... .. . ... ... : ... .. . ... ... : ... .. . ... ... : ... .. . PA3 ...
ROW 7A : A#3 00 F ... ... ... : ... .. . ... ... ... : D#2 00 . ... : ... .. . ... : ... .. . ... ... : ... .. . ... ... : ... .. . ... ... : ... .. . P9B ...
ROW 7B : ... .. E ... ... ... : ... .. . ... ... ... : ... .. . ... : ... .. . ... : ... .. . ... ... : ... .. . ... ... : ... .. . ... ... : ... .. . P93 ...
ROW 7C : ... .. D ... ... ... : C#3 00 A ... ... ... : ... .. . ... : ... .. . ... : ... .. . ... ... : ... .. . ... ... : ... .. . ... ... : ... .. . P8B ...
ROW 7D : D#4 00 8 ... ... ... : ... .. 8 ... ... ... : ... .. . ... : ... .. . ... : ... .. . ... ... : ... .. . ... ... : ... .. . ... ... : ... .. . P83 ...
ROW 7E : ... .. 7 ... ... ... : ... .. . ... ... ... : ... .. . ... : ... .. . ... : ... .. . ... ... : ... .. . ... ... : ... .. . ... ... : ... .. . P7B ...
ROW 7F : ... .. 6 ... ... ... : ... .. . ... ... ... : --- .. . ... : ... .. . ... : ... .. . ... ... : ... .. . ... ... : ... .. . ... ... : ... .. . P73 ...
ROW 80 : G#3 00 F ... ... ... : G#2 00 A ... ... ... : C-4 00 . ... : ... .. 9 ... : ... .. . ... ... : ... .. . ... ... : ... .. . ... ... : ... .. . P6B ...
ROW 81 : ... .. E ... ... ... : ... .. 8 ... ... ... : D-3 00 . ... : ... .. . ... : ... .. . ... ... : ... .. . ... ... : ... .. . ... ... : ... .. . P63 ...
ROW 82 : ... .. D ... ... ... : ... .. . ... ... ... : G-2 00 . ... : ... .. . ... : ... .. . ... ... : ... .. . ... ... : ... .. . ... ... : ... .. . P5B ...
ROW 83 : A#3 00 8 ... ... ... : ... .. . ... ... ... : F#2 00 . ... : ... .. . ... : ... .. . ... ... : ... .. . ... ... : ... .. . ... ... : ... .. . P53 ...
ROW 84 : ... .. 7 ... ... ... : C#3 00 A ... ... ... : C#2 00 . ... : ... .. . ... : ... .. . ... ... : ... .. . ... ... : ... .. . ... ... : D#1 01 8 PA8 ...
ROW 85 : ... .. 6 ... ... ... : ... .. 8 ... ... ... : --- .. . ... : ... .. . ... : ... .. . ... ... : ... .. . ... ... : ... .. . ... ... : ... .. . PA0 ...
ROW 86 : ... .. F ... ... ... : ... .. . ... ... ... : D#2 00 . ... : 9-# 00 9 ... : ... .. . ... ... : ... .. . ... ... : ... .. . ... ... : ... .. . P98 ...
ROW 87 : ... .. E ... ... ... : ... .. . ... ... ... : ... .. . ... : ... .. . ... : ... .. . ... ... : ... .. . ... ... : ... .. . ... ... : ... .. . P90 ...
ROW 88 : ... .. D ... ... ... : D#3 00 A ... ... ... : ... .. . ... : ... .. . ... : ... .. . ... ... : ... .. . ... ... : ... .. . ... ... : ... .. . P88 ...
ROW 89 : G#3 00 8 ... ... ... : ... .. 8 ... ... ... : ... .. . ... : ... .. . ... : ... .. . ... ... : ... .. . ... ... : ... .. . ... ... : ... .. . P80 ...
ROW 8A : ... .. 7 ... ... ... : ... .. . ... ... ... : ... .. . ... : ... .. . ... : ... .. . ... ... : ... .. . ... ... : ... .. . ... ... : ... .. . P78 ...
ROW 8B : ... .. 6 ... ... ... : ... .. . ... ... ... : --- .. . ... : ... .. . ... : ... .. . ... ... : ... .. . ... ... : ... .. . ... ... : ... .. . P70 ...
ROW 8C : D#4 00 F ... ... ... : G#3 00 A ... ... ... : E-2 00 . ... : ... .. . ... : ... .. . ... ... : ... .. . ... ... : ... .. . ... ... : ... .. . P68 ...
ROW 8D : ... .. E ... ... ... : ... .. 8 ... ... ... : ... .. . ... : ... .. . ... : ... .. . ... ... : ... .. . ... ... : ... .. . ... ... : ... .. . P60 ...
ROW 8E : ... .. D ... ... ... : ... .. . ... ... ... : ... .. . ... : ... .. . ... : ... .. . ... ... : ... .. . ... ... : ... .. . ... ... : ... .. . P58 ...
ROW 8F : A#3 00 8 ... ... ... : ... .. . ... ... ... : ... .. . ... : ... .. . ... : ... .. . ... ... : ... .. . ... ... : ... .. . ... ... : ... .. . P50 ...
ROW 90 : ... .. 7 ... ... ... : C#4 00 A ... ... ... : ... .. . ... : ... .. . ... : ... .. . ... ... : ... .. . ... ... : ... .. . ... ... : D-1 01 8 PA9 ...
ROW 91 : ... .. 6 ... ... ... : ... .. 8 ... ... ... : --- .. . ... : ... .. . ... : ... .. . ... ... : ... .. . ... ... : ... .. . ... ... : ... .. . PA1 ...
ROW 92 : G#4 00 F ... ... ... : ... .. . ... ... ... : D#2 00 . ... : ... .. . ... : ... .. . ... ... : ... .. . ... ... : ... .. . ... ... : ... .. . P99 ...
ROW 93 : ... .. E ... ... ... : ... .. . ... ... ... : ... .. . ... : ... .. . ... : ... .. . ... ... : ... .. . ... ... : ... .. . ... ... : ... .. . P91 ...
ROW 94 : ... .. D ... ... ... : G#4 00 A ... ... ... : ... .. . ... : ... .. . ... : ... .. . ... ... : ... .. 3 ... ... : ... .. 3 ... ... : ... .. . P89 ...
ROW 95 : D#4 00 8 ... ... ... : ... .. 8 ... ... ... : ... .. . ... : ... .. . ... : ... .. . ... ... : ... .. . ... ... : ... .. . ... ... : ... .. . P81 ...
ROW 96 : ... .. 7 ... ... ... : ... .. . ... ... ... : ... .. . ... : ... .. . ... : ... .. . ... ... : ... .. . ... ... : ... .. . ... ... : ... .. . P79 ...
ROW 97 : ... .. 6 ... ... ... : ... .. . ... ... ... : --- .. . ... : ... .. . ... : ... .. . ... ... : ... .. . ... ... : ... .. . ... ... : ... .. . P71 ...
ROW 98 : A#4 00 F ... ... ... : A#5 00 A ... ... ... : D-5 00 . ... : ... .. . ... : ... .. . ... ... : D#4 01 A ... ... : G#4 01 A ... ... : ... .. . P69 ...
ROW 99 : ... .. E ... ... ... : ... .. 8 ... ... ... : E-4 00 . ... : ... .. . ... : ... .. . ... ... : ... .. 9 ... ... : ... .. 9 ... ... : ... .. . P61 ...
ROW 9A : ... .. D ... ... ... : ... .. . ... ... ... : A-3 00 . ... : ... .. . ... : ... .. . ... ... : ... .. 8 ... ... : ... .. 8 ... ... : ... .. . P59 ...
ROW 9B : G#4 00 8 ... ... ... : ... .. . ... ... ... : G#3 00 . ... : ... .. 8 ... : ... .. . ... ... : ... .. 7 ... ... : ... .. 7 ... ... : ... .. . P51 ...
ROW 9C : ... .. 7 ... ... ... : E-5 00 A ... ... ... : D#3 00 . ... : ... .. . ... : ... .. . ... ... : ... .. . ... ... : ... .. . ... ... : C#1 01 8 PB1 ...
ROW 9D : ... .. 6 ... ... ... : ... .. 8 ... ... ... : ... .. . ... : ... .. . ... : ... .. . ... ... : ... .. 6 ... ... : ... .. 6 ... ... : ... .. . PA9 ...
ROW 9E : D#4 00 F ... ... ... : ... .. . ... ... ... : D-3 00 . P75 : ... .. . ... : ... .. . ... ... : ... .. . ... ... : ... .. . ... ... : ... .. . PA1 ...
ROW 9F : ... .. E ... ... ... : ... .. . ... ... ... : C-3 00 . P84 : ... .. . ... : ... .. . ... ... : ... .. 5 ... ... : ... .. 5 ... ... : ... .. . P99 ...
ROW A0 : ... .. D ... ... ... : D#5 00 A ... ... ... : B-2 00 . P7D : ... .. . ... : ... .. . ... ... : ... .. . ... ... : ... .. . ... ... : ... .. . P91 ...
ROW A1 : A#4 00 8 ... ... ... : ... .. 8 ... ... ... : A#2 00 . P78 : ... .. . ... : ... .. . ... ... : ... .. . ... ... : ... .. . ... ... : ... .. . P89 ...
ROW A2 : ... .. 7 ... ... ... : ... .. . ... ... ... : A-2 00 . P74 : ... .. . ... : ... .. . ... ... : ... .. . ... ... : ... .. . ... ... : ... .. . P81 ...
ROW A3 : ... .. 6 ... ... ... : ... .. . ... ... ... : --- .. . ... : ... .. . ... : ... .. . ... ... : ... .. . ... ... : ... .. . ... ... : ... .. . P79 ...
ROW A4 : A#3 00 F ... ... ... : A#4 00 A ... ... ... : D#3 00 . P80 : ... .. . ... : ... .. . ... ... : ... .. . ... ... : ... .. . ... ... : ... .. . P71 ...
ROW A5 : ... .. E ... ... ... : ... .. 8 ... ... ... : ... .. . ... : ... .. . ... : ... .. . ... ... : ... .. . ... ... : ... .. . ... ... : ... .. . P69 ...
ROW A6 : ... .. D ... ... ... : ... .. . ... ... ... : ... .. . ... : ... .. . ... : ... .. . ... ... : ... .. . ... ... : ... .. . ... ... : ... .. . P61 ...
ROW A7 : D#4 00 8 ... ... ... : ... .. . ... ... ... : ... .. . ... : ... .. . ... : ... .. . ... ... : ... .. . ... ... : ... .. . ... ... : ... .. . P59 ...
ROW A8 : ... .. 7 ... ... ... : E-4 00 A ... ... ... : ... .. . ... : ... .. . ... : ... .. . ... ... : ... .. . ... ... : ... .. . ... ... : ... .. . P51 ...
ROW A9 : ... .. 6 ... ... ... : ... .. 8 ... ... ... : --- .. . ... : ... .. . ... : ... .. . ... ... : ... .. . ... ... : ... .. . ... ... : C-1 01 8 PB7 ...
ROW AA : G#3 00 F ... ... ... : ... .. . ... ... ... : D#3 00 . ... : 7-# 00 8 ... : ... .. . ... ... : ... .. . ... ... : ... .. . ... ... : ... .. . PAF ...
ROW AB : ... .. E ... ... ... : ... .. . ... ... ... : ... .. . ... : ... .. . ... : ... .. . ... ... : ... .. . ... ... : ... .. . ... ... : ... .. . PA7 ...
ROW AC : ... .. D ... ... ... : D#4 00 A ... ... ... : ... .. . ... : ... .. . ... : ... .. . ... ... : ... .. . ... ... : ... .. . ... ... : ... .. . P9F ...
ROW AD : A#3 00 8 ... ... ... : ... .. 8 ... ... ... : ... .. . ... : ... .. . ... : ... .. . ... ... : ... .. . ... ... : ... .. . ... ... : ... .. . P97 ...
ROW AE : ... .. 7 ... ... ... : ... .. . ... ... ... : ... .. . ... : ... .. . ... : ... .. . ... ... : ... .. . ... ... : ... .. . ... ... : ... .. . P8F ...
ROW AF : ... .. 6 ... ... ... : ... .. . ... ... ... : --- .. . ... : ... .. . ... : ... .. . ... ... : ... .. . ... ... : ... .. . ... ... : ... .. . P87 ...
ROW B0 : D#3 00 F ... ... ... : A#3 00 A ... ... ... : C-5 00 . ... : 5-# 00 8 ... : ... .. . ... ... : ... .. . ... ... : ... .. . ... ... : ... .. . P7F ...
ROW B1 : ... .. E ... ... ... : ... .. 8 ... ... ... : D-4 00 . ... : ... .. . ... : ... .. . ... ... : ... .. . ... ... : ... .. . ... ... : ... .. . P77 ...
ROW B2 : ... .. D ... ... ... : ... .. . ... ... ... : G-3 00 . ... : ... .. . ... : ... .. . ... ... : ... .. . ... ... : ... .. . ... ... : ... .. . P6F ...
ROW B3 : G#3 00 8 ... ... ... : ... .. . ... ... ... : F#3 00 . ... : ... .. . ... : ... .. . ... ... : ... .. . ... ... : ... .. . ... ... : ... .. . P67 ...
ROW B4 : ... .. 7 ... ... ... : E-3 00 A ... ... ... : C#3 00 . ... : ... .. . ... : ... .. . ... ... : ... .. . ... ... : ... .. . ... ... : ... .. . P5F ...
ROW B5 : ... .. 6 ... ... ... : ... .. 8 ... ... ... : --- .. . ... : ... .. . ... : ... .. . ... ... : ... .. . ... ... : ... .. . ... ... : ... .. . P57 ...
ROW B6 : A#2 00 F ... ... ... : ... .. . ... ... ... : D#3 00 . ... : ... .. 7 ... : ... .. . ... ... : ... .. . ... ... : ... .. . ... ... : ... .. . P4F ...
ROW B7 : ... .. E ... ... ... : ... .. . ... ... ... : ... .. . ... : ... .. . ... : ... .. . ... ... : ... .. . ... ... : ... .. . ... ... : ... .. . P47 ...
ROW B8 : ... .. D ... ... ... : D#3 00 A ... ... ... : ... .. . ... : ... .. . ... : ... .. . ... ... : ... .. 3 ... ... : ... .. 3 ... ... : B-0 01 8 PB3 ...
ROW B9 : D#3 00 8 ... ... ... : ... .. 8 ... ... ... : ... .. . ... : ... .. . ... : ... .. . ... ... : ... .. . ... ... : ... .. . ... ... : ... .. . PAB ...
ROW BA : ... .. 7 ... ... ... : ... .. . ... ... ... : ... .. . ... : ... .. . ... : ... .. . ... ... : ... .. . ... ... : ... .. . ... ... : ... .. . PA3 ...
ROW BB : ... .. 6 ... ... ... : ... .. . ... ... ... : --- .. . ... : ... .. . ... : ... .. . ... ... : ... .. . ... ... : ... .. . ... ... : ... .. . P9B ...
ROW BC : B-4 00 F ... ... ... : B-5 00 A ... ... ... : D#3 00 . ... : ... .. . ... : ... .. . ... ... : E-4 01 A ... ... : A-4 01 A ... ... : ... .. . P93 ...
ROW BD : ... .. E ... ... ... : ... .. 8 ... ... ... : ... .. . ... : ... .. . ... : ... .. . ... ... : ... .. 9 ... ... : ... .. 9 ... ... : ... .. . P8B ...
ROW BE : ... .. D ... ... ... : ... .. . ... ... ... : ... .. . ... : ... .. . ... : ... .. . ... ... : ... .. 8 ... ... : ... .. 8 ... ... : ... .. . P83 ...
ROW BF : A#2 00 8 ... ... ... : ... .. . ... ... ... : ... .. . ... : ... .. . ... : ... .. . ... ... : ... .. 7 ... ... : ... .. 7 ... ... : ... .. . P7B ...
ROW C0 : ... .. 7 ... ... ... : F#5 00 A ... ... ... : ... .. . ... : ... .. . ... : ... .. . ... ... : ... .. . ... ... : ... .. . ... ... : ... .. . P73 ...
ROW C1 : ... .. 6 ... ... ... : ... .. 8 ... ... ... : --- .. . ... : ... .. . ... : ... .. . ... ... : ... .. 6 ... ... : ... .. 6 ... ... : ... .. . P6B ...
ROW C2 : F#4 00 F ... ... ... : ... .. . ... ... ... : D#3 00 . ... : ... .. . ... : ... .. . ... ... : ... .. . ... ... : ... .. . ... ... : ... .. . P63 ...
ROW C3 : ... .. E ... ... ... : ... .. . ... ... ... : ... .. . ... : ... .. . ... : ... .. . ... ... : ... .. 5 ... ... : ... .. 5 ... ... : ... .. . P5B ...
ROW C4 : ... .. D ... ... ... : E-5 00 A ... ... ... : ... .. . ... : ... .. . ... : ... .. . ... ... : ... .. . ... ... : ... .. . ... ... : ... .. . P53 ...
ROW C5 : B-4 00 8 ... ... ... : ... .. 8 ... ... ... : ... .. . ... : ... .. . ... : ... .. . ... ... : ... .. . ... ... : ... .. . ... ... : ... .. . P4B ...
ROW C6 : ... .. 7 ... ... ... : ... .. . ... ... ... : ... .. . ... : ... .. . ... : ... .. . ... ... : ... .. . ... ... : ... .. . ... ... : ... .. . P43 ...
ROW C7 : ... .. 6 ... ... ... : ... .. . ... ... ... : --- .. . ... : ... .. . ... : ... .. . ... ... : ... .. . ... ... : ... .. . ... ... : A#0 01 8 PB6 ...
ROW C8 : E-4 00 F ... ... ... : B-4 00 A ... ... ... : D-5 00 . ... : ... .. . ... : ... .. . ... ... : ... .. . ... ... : ... .. . ... ... : ... .. . PAE ...
ROW C9 : ... .. E ... ... ... : ... .. 8 ... ... ... : E-4 00 . ... : ... .. . ... : ... .. . ... ... : ... .. . ... ... : ... .. . ... ... : ... .. . PA6 ...
ROW CA : ... .. D ... ... ... : ... .. . ... ... ... : A-3 00 . ... : ... .. . ... : ... .. . ... ... : ... .. . ... ... : ... .. . ... ... : ... .. . P9E ...
ROW CB : F#4 00 8 ... ... ... : ... .. . ... ... ... : G#3 00 . ... : ... .. . ... : ... .. . ... ... : ... .. . ... ... : ... .. . ... ... : ... .. . P96 ...
ROW CC : ... .. 7 ... ... ... : F#4 00 A ... ... ... : D#3 00 . ... : ... .. . ... : ... .. . ... ... : ... .. . ... ... : ... .. . ... ... : ... .. . P8E ...
ROW CD : ... .. 6 ... ... ... : ... .. 8 ... ... ... : ... .. . ... : ... .. . ... : ... .. . ... ... : ... .. . ... ... : ... .. . ... ... : ... .. . P86 ...
ROW CE : B-3 00 F ... ... ... : ... .. . ... ... ... : D-3 00 . P75 : ... .. . ... : ... .. . ... ... : ... .. . ... ... : ... .. . ... ... : ... .. . P7E ...
ROW CF : ... .. E ... ... ... : ... .. . ... ... ... : C-3 00 . P84 : ... .. . ... : ... .. . ... ... : ... .. . ... ... : ... .. . ... ... : ... .. . P76 ...
ROW D0 : ... .. D ... ... ... : E-4 00 A ... ... ... : B-2 00 . P7D : ... .. . ... : ... .. . ... ... : ... .. . ... ... : ... .. . ... ... : ... .. . P6E ...
ROW D1 : E-4 00 8 ... ... ... : ... .. 8 ... ... ... : A#2 00 . P78 : ... .. 6 ... : ... .. . ... ... : ... .. . ... ... : ... .. . ... ... : ... .. . P66 ...
ROW D2 : ... .. 7 ... ... ... : ... .. . ... ... ... : A-2 00 . P74 : ... .. . ... : ... .. . ... ... : ... .. . ... ... : ... .. . ... ... : ... .. . P5E ...
ROW D3 : ... .. 6 ... ... ... : ... .. . ... ... ... : --- .. . ... : ... .. . ... : ... .. . ... ... : ... .. . ... ... : ... .. . ... ... : ... .. . P56 ...
ROW D4 : F#3 00 F ... ... ... : B-3 00 A ... ... ... : D#2 00 . P80 : ... .. . ... : ... .. . ... ... : ... .. . ... ... : ... .. . ... ... : ... .. . P4E ...
ROW D5 : ... .. E ... ... ... : ... .. 8 ... ... ... : ... .. . ... : ... .. . ... : ... .. . ... ... : ... .. . ... ... : ... .. . ... ... : ... .. . P46 ...
ROW D6 : ... .. D ... ... ... : ... .. . ... ... ... : ... .. . ... : ... .. . ... : ... .. . ... ... : ... .. . ... ... : ... .. . ... ... : A-0 01 8 PC0 ...
ROW D7 : B-3 00 8 ... ... ... : ... .. . ... ... ... : ... .. . ... : ... .. . ... : ... .. . ... ... : ... .. . ... ... : ... .. . ... ... : ... .. . PB8 ...
ROW D8 : ... .. 7 ... ... ... : F#3 00 A ... ... ... : ... .. . ... : ... .. . ... : ... .. . ... ... : ... .. . ... ... : ... .. . ... ... : ... .. . PB0 ...
ROW D9 : ... .. 6 ... ... ... : ... .. 8 ... ... ... : --- .. . ... : ... .. . ... : ... .. . ... ... : ... .. . ... ... : ... .. . ... ... : ... .. . PA8 ...
ROW DA : E-3 00 F ... ... ... : ... .. . ... ... ... : D#2 00 . ... : ... .. . ... : ... .. . ... ... : ... .. . ... ... : ... .. . ... ... : ... .. . PA0 ...
ROW DB : ... .. E ... ... ... : ... .. . ... ... ... : ... .. . ... : ... .. . ... : ... .. . ... ... : ... .. . ... ... : ... .. . ... ... : ... .. . P98 ...
ROW DC : ... .. D ... ... ... : E-3 00 A ... ... ... : ... .. . ... : ... .. . ... : ... .. . ... ... : ... .. . ... ... : ... .. . ... ... : ... .. . P90 ...
ROW DD : F#3 00 8 ... ... ... : ... .. 8 ... ... ... : ... .. . ... : ... .. . ... : ... .. . ... ... : ... .. . ... ... : ... .. . ... ... : ... .. . P88 ...
ROW DE : ... .. 7 ... ... ... : ... .. . ... ... ... : ... .. . ... : ... .. . ... : ... .. . ... ... : ... .. . ... ... : ... .. . ... ... : ... .. . P80 ...
ROW DF : ... .. 6 ... ... ... : ... .. . ... ... ... : --- .. . ... : ... .. . ... : ... .. . ... ... : ... .. . ... ... : ... .. . ... ... : ... .. . P78 ...
ROW E0 : ... .. F ... ... ... : B-2 00 A ... ... ... : C-4 00 . ... : ... .. . ... : ... .. . ... ... : ... .. . ... ... : ... .. . ... ... : ... .. . P70 ...
ROW E1 : ... .. E ... ... ... : ... .. 8 ... ... ... : D-3 00 . ... : ... .. . ... : ... .. . ... ... : ... .. . ... ... : ... .. . ... ... : ... .. . P68 ...
ROW E2 : ... .. D ... ... ... : ... .. . ... ... ... : G-2 00 . ... : ... .. . ... : ... .. . ... ... : ... .. . ... ... : ... .. . ... ... : ... .. . P60 ...
ROW E3 : E-3 00 8 ... ... ... : ... .. . ... ... ... : F#2 00 . ... : ... .. . ... : ... .. . ... ... : ... .. . ... ... : ... .. . ... ... : ... .. . P58 ...
ROW E4 : ... .. 7 ... ... ... : E-3 00 A ... ... ... : C#2 00 . ... : ... .. . ... : ... .. . ... ... : ... .. . ... ... : ... .. . ... ... : ... .. . P50 ...
ROW E5 : ... .. 6 ... ... ... : ... .. 8 ... ... ... : --- .. . ... : ... .. . ... : ... .. . ... ... : ... .. . ... ... : ... .. . ... ... : ... .. . P48 ...
ROW E6 : B-3 00 F ... ... ... : ... .. . ... ... ... : D#2 00 . ... : ... .. . ... : ... .. . ... ... : ... .. . ... ... : ... .. . ... ... : ... .. . P40 ...
ROW E7 : ... .. E ... ... ... : ... .. . ... ... ... : ... .. . ... : ... .. . ... : ... .. . ... ... : ... .. . ... ... : ... .. . ... ... : G#0 01 8 PC3 ...
ROW E8 : ... .. D ... ... ... : F#3 00 A ... ... ... : ... .. . ... : ... .. . ... : ... .. . ... ... : ... .. . ... ... : ... .. . ... ... : ... .. . PBB ...
ROW E9 : F#3 00 8 ... ... ... : ... .. 8 ... ... ... : ... .. . ... : ... .. . ... : ... .. . ... ... : ... .. . ... ... : ... .. . ... ... : ... .. . PB3 ...
ROW EA : ... .. 7 ... ... ... : ... .. . ... ... ... : ... .. . ... : ... .. . ... : ... .. . ... ... : ... .. . ... ... : ... .. . ... ... : ... .. . PAB ...
ROW EB : ... .. 6 ... ... ... : ... .. . ... ... ... : --- .. . ... : ... .. . ... : ... .. . ... ... : ... .. . ... ... : ... .. . ... ... : ... .. . PA3 ...
ROW EC : E-4 00 F ... ... ... : B-3 00 A ... ... ... : E-2 00 . ... : ... .. 5 ... : ... .. . ... ... : ... .. . ... ... : ... .. . ... ... : ... .. . P9B ...
ROW ED : ... .. E ... ... ... : ... .. 8 ... ... ... : ... .. . ... : ... .. . ... : ... .. . ... ... : ... .. . ... ... : ... .. . ... ... : ... .. . P93 ...
ROW EE : ... .. D ... ... ... : ... .. . ... ... ... : ... .. . ... : ... .. . ... : ... .. . ... ... : ... .. . ... ... : ... .. . ... ... : ... .. . P8B ...
ROW EF : B-3 00 8 ... ... ... : ... .. . ... ... ... : ... .. . ... : ... .. . ... : ... .. . ... ... : ... .. . ... ... : ... .. . ... ... : ... .. . P83 ...
ROW F0 : ... .. 7 ... ... ... : E-4 00 A ... ... ... : ... .. . ... : ... .. . ... : ... .. . ... ... : ... .. . ... ... : ... .. . ... ... : ... .. . P7B ...
ROW F1 : ... .. 6 ... ... ... : ... .. 8 ... ... ... : --- .. . ... : ... .. . ... : ... .. . ... ... : ... .. . ... ... : ... .. . ... ... : ... .. . P73 ...
ROW F2 : B-4 00 F ... ... ... : ... .. . ... ... ... : D#2 00 . ... : ... .. . ... : ... .. . ... ... : ... .. . ... ... : ... .. . ... ... : ... .. . P6B ...
ROW F3 : ... .. E ... ... ... : ... .. . ... ... ... : ... .. . ... : ... .. . ... : ... .. . ... ... : ... .. . ... ... : ... .. . ... ... : ... .. . P63 ...
ROW F4 : ... .. D ... ... ... : B-4 00 A ... ... ... : ... .. . ... : ... .. . ... : ... .. . ... ... : ... .. 3 ... ... : ... .. 3 ... ... : ... .. . P5B ...
ROW F5 : E-4 00 8 ... ... ... : ... .. 8 ... ... ... : ... .. . ... : ... .. . ... : ... .. . ... ... : ... .. . ... ... : ... .. . ... ... : ... .. . P53 ...
ROW F6 : ... .. 7 ... ... ... : ... .. . ... ... ... : ... .. . ... : ... .. . ... : ... .. . ... ... : ... .. . ... ... : ... .. . ... ... : ... .. . P4B ...
ROW F7 : ... .. 6 ... ... ... : ... .. . ... ... ... : --- .. . ... : ... .. . ... : ... .. . ... ... : ... .. . ... ... : ... .. . ... ... : ... .. . P43 ...
ROW F8 : C#5 00 F ... ... ... : C#6 00 A ... ... ... : D-5 00 . ... : ... .. . ... : ... .. . ... ... : F#4 01 A ... ... : B-4 01 A ... ... : ... .. . P3B ...
ROW F9 : ... .. E ... ... ... : ... .. 8 ... ... ... : E-4 00 . ... : ... .. . ... : ... .. . ... ... : ... .. 9 ... ... : ... .. 9 ... ... : G-0 01 8 PC5 ...
ROW FA : ... .. D ... ... ... : ... .. . ... ... ... : A-3 00 . ... : ... .. . ... : ... .. . ... ... : ... .. 8 ... ... : ... .. 8 ... ... : ... .. . PBD ...
ROW FB : B-4 00 8 ... ... ... : ... .. . ... ... ... : G#3 00 . ... : ... .. . ... : ... .. . ... ... : ... .. 7 ... ... : ... .. 7 ... ... : ... .. . PB5 ...
ROW FC : ... .. 7 ... ... ... : G#5 00 A ... ... ... : D#3 00 . ... : ... .. . ... : ... .. . ... ... : ... .. . ... ... : ... .. . ... ... : ... .. . PAD ...
ROW FD : ... .. 6 ... ... ... : ... .. 8 ... ... ... : ... .. . ... : ... .. . ... : ... .. . ... ... : ... .. 6 ... ... : ... .. 6 ... ... : ... .. . PA5 ...
ROW FE : G#4 00 F ... ... ... : ... .. . ... ... ... : D-3 00 . P75 : ... .. . ... : ... .. . ... ... : ... .. . ... ... : ... .. . ... ... : ... .. . P9D ...
ROW FF : ... .. E ... ... ... : ... .. . ... ... ... : C-3 00 . P84 : ... .. . ... : ... .. . ... ... : ... .. 5 ... ... : ... .. 5 ... ... : ... .. . P95 ...

PATTERN 1A
ROW 00 : ... .. D ... ... ... : F#5 00 A ... ... ... : B-2 00 . P7D : ... .. . ... : ... .. . ... ... : ... .. . ... ... : ... .. . ... ... : ... .. . P8D ...
ROW 01 : C#5 00 8 ... ... ... : ... .. 8 ... ... ... : A#2 00 . P78 : ... .. . ... : ... .. . ... ... : ... .. . ... ... : ... .. . ... ... : ... .. . P85 ...
ROW 02 : ... .. 7 ... ... ... : ... .. . ... ... ... : A-2 00 . P74 : ... .. . ... : ... .. . ... ... : ... .. . ... ... : ... .. . ... ... : ... .. . P7D ...
ROW 03 : ... .. 6 ... ... ... : ... .. . ... ... ... : --- .. . ... : ... .. . ... : ... .. . ... ... : ... .. . ... ... : ... .. . ... ... : ... .. . P75 ...
ROW 04 : D#4 00 F ... ... ... : C#5 00 A ... ... ... : D#3 00 . P80 : ... .. . ... : ... .. . ... ... : ... .. . ... ... : ... .. . ... ... : ... .. . P6D ...
ROW 05 : ... .. E ... ... ... : ... .. 8 ... ... ... : ... .. . ... : ... .. . ... : ... .. . ... ... : ... .. . ... ... : ... .. . ... ... : ... .. . P65 ...
ROW 06 : ... .. D ... ... ... : ... .. . ... ... ... : ... .. . ... : ... .. . ... : ... .. . ... ... : ... .. . ... ... : ... .. . ... ... : ... .. . P5D ...
ROW 07 : G#4 00 8 ... ... ... : ... .. . ... ... ... : ... .. . ... : ... .. 4 ... : ... .. . ... ... : ... .. . ... ... : ... .. . ... ... : ... .. . P55 ...
ROW 08 : ... .. 7 ... ... ... : G#4 00 A ... ... ... : ... .. . ... : ... .. . ... : ... .. . ... ... : ... .. . ... ... : ... .. . ... ... : ... .. . P4D ...
ROW 09 : ... .. 6 ... ... ... : ... .. 8 ... ... ... : --- .. . ... : ... .. . ... : ... .. . ... ... : ... .. . ... ... : ... .. . ... ... : ... .. . P45 ...
ROW 0A : C#4 00 F ... ... ... : ... .. . ... ... ... : D#3 00 . ... : ... .. . ... : ... .. . ... ... : ... .. . ... ... : ... .. . ... ... : ... .. . P3D ...
ROW 0B : ... .. E ... ... ... : ... .. . ... ... ... : ... .. . ... : ... .. . ... : ... .. . ... ... : ... .. . ... ... : ... .. . ... ... : ... .. . P35 ...
ROW 0C : ... .. D ... ... ... : F#4 00 A ... ... ... : ... .. . ... : ... .. . ... : ... .. . ... ... : ... .. . ... ... : ... .. . ... ... : F#0 01 8 PC8 ...
ROW 0D : D#4 00 8 ... ... ... : ... .. 8 ... ... ... : ... .. . ... : ... .. . ... : ... .. . ... ... : ... .. . ... ... : ... .. . ... ... : ... .. . PC0 ...
ROW 0E : ... .. 7 ... ... ... : ... .. . ... ... ... : ... .. . ... : ... .. . ... : ... .. . ... ... : ... .. . ... ... : ... .. . ... ... : ... .. . PB8 ...
ROW 0F : ... .. 6 ... ... ... : ... .. . ... ... ... : --- .. . ... : ... .. . ... : ... .. . ... ... : ... .. . ... ... : ... .. . ... ... : ... .. . PB0 ...
ROW 10 : G#3 00 F ... ... ... : C#4 00 A ... ... ... : C-5 00 . ... : ... .. . ... : ... .. . ... ... : ... .. . ... ... : ... .. . ... ... : ... .. . PA8 ...
ROW 11 : ... .. E ... ... ... : ... .. 8 ... ... ... : D-4 00 . ... : ... .. . ... : ... .. . ... ... : ... .. . ... ... : ... .. . ... ... : ... .. . PA0 ...
ROW 12 : ... .. D ... ... ... : ... .. . ... ... ... : G-3 00 . ... : ... .. . ... : ... .. . ... ... : ... .. . ... ... : ... .. . ... ... : ... .. . P98 ...
ROW 13 : C#4 00 8 ... ... ... : ... .. . ... ... ... : F#3 00 . ... : ... .. . ... : ... .. . ... ... : ... .. . ... ... : ... .. . ... ... : ... .. . P90 ...
ROW 14 : ... .. 7 ... ... ... : G#3 00 A ... ... ... : C#3 00 . ... : ... .. . ... : ... .. . ... ... : ... .. . ... ... : ... .. . ... ... : ... .. . P88 ...
ROW 15 : ... .. 6 ... ... ... : ... .. 8 ... ... ... : --- .. . ... : ... .. . ... : ... .. . ... ... : ... .. . ... ... : ... .. . ... ... : ... .. . P80 ...
ROW 16 : F#3 00 F ... ... ... : ... .. . ... ... ... : D#3 00 . ... : ... .. . ... : ... .. . ... ... : ... .. . ... ... : ... .. . ... ... : ... .. . P78 ...
ROW 17 : ... .. E ... ... ... : ... .. . ... ... ... : ... .. . ... : ... .. . ... : ... .. . ... ... : ... .. . ... ... : ... .. . ... ... : ... .. . P70 ...
ROW 18 : ... .. D ... ... ... : F#3 00 A ... ... ... : ... .. . ... : ... .. . ... : ... .. . ... ... : ... .. 3 ... ... : ... .. 3 ... ... : ... .. . P68 ...
ROW 19 : G#3 00 8 ... ... ... : ... .. 8 ... ... ... : ... .. . ... : ... .. . ... : ... .. . ... ... : ... .. . ... ... : ... .. . ... ... : ... .. . P60 ...
ROW 1A : ... .. 7 ... ... ... : ... .. . ... ... ... : ... .. . ... : ... .. . ... : ... .. . ... ... : ... .. . ... ... : ... .. . ... ... : ... .. . P58 ...
ROW 1B : ... .. 6 ... ... ... : ... .. . ... ... ... : --- .. . ... : ... .. . ... : ... .. . ... ... : ... .. . ... ... : ... .. . ... ... : ... .. . P50 ...
ROW 1C : D#5 00 F ... ... ... : D#6 00 A ... ... ... : D#3 00 . ... : ... .. . ... : ... .. . ... ... : G#4 01 A ... ... : C#5 01 A ... ... : ... .. . P48 ...
ROW 1D : ... .. E ... ... ... : ... .. 8 ... ... ... : ... .. . ... : ... .. . ... : ... .. . ... ... : ... .. 9 ... ... : ... .. 9 ... ... : ... .. . P40 ...
ROW 1E : ... .. D ... ... ... : ... .. . ... ... ... : ... .. . ... : ... .. . ... : ... .. . ... ... : ... .. 8 ... ... : ... .. 8 ... ... : ... .. . P38 ...
ROW 1F : F#3 00 8 ... ... ... : ... .. . ... ... ... : ... .. . ... : ... .. . ... : ... .. . ... ... : ... .. 7 ... ... : ... .. 7 ... ... : ... .. . P30 ...
ROW 20 : ... .. 7 ... ... ... : A#5 00 A ... ... ... : ... .. . ... : ... .. . ... : ... .. . ... ... : ... .. . ... ... : ... .. . ... ... : F-0 01 8 PCD ...
ROW 21 : ... .. 6 ... ... ... : ... .. 8 ... ... ... : --- .. . ... : ... .. . ... : ... .. . ... ... : ... .. 6 ... ... : ... .. 6 ... ... : ... .. . PC5 ...
ROW 22 : A#4 00 F ... ... ... : ... .. . ... ... ... : D#3 00 . ... : ... .. 3 ... : ... .. . ... ... : ... .. . ... ... : ... .. . ... ... : ... .. . PBD ...
ROW 23 : ... .. E ... ... ... : ... .. . ... ... ... : ... .. . ... : ... .. . ... : ... .. . ... ... : ... .. 5 ... ... : ... .. 5 ... ... : ... .. . PB5 ...
ROW 24 : ... .. D ... ... ... : G#5 00 A ... ... ... : ... .. . ... : ... .. . ... : ... .. . ... ... : ... .. . ... ... : ... .. . ... ... : ... .. . PAD ...
ROW 25 : D#5 00 8 ... ... ... : ... .. 8 ... ... ... : ... .. . ... : ... .. . ... : ... .. . ... ... : ... .. . ... ... : ... .. . ... ... : ... .. . PA5 ...
ROW 26 : ... .. 7 ... ... ... : ... .. . ... ... ... : ... .. . ... : ... .. . ... : ... .. . ... ... : ... .. . ... ... : ... .. . ... ... : ... .. . P9D ...
ROW 27 : ... .. 6 ... ... ... : ... .. . ... ... ... : --- .. . ... : ... .. . ... : ... .. . ... ... : ... .. . ... ... : ... .. . ... ... : ... .. . P95 ...
ROW 28 : G#4 00 F ... ... ... : D#5 00 A ... ... ... : D-5 00 . ... : ... .. . ... : ... .. . ... ... : ... .. . ... ... : ... .. . ... ... : ... .. . P8D ...
ROW 29 : ... .. E ... ... ... : ... .. 8 ... ... ... : E-4 00 . ... : ... .. . ... : ... .. . ... ... : ... .. . ... ... : ... .. . ... ... : ... .. . P85 ...
ROW 2A : ... .. D ... ... ... : ... .. . ... ... ... : A-3 00 . ... : ... .. . ... : ... .. . ... ... : ... .. . ... ... : ... .. . ... ... : ... .. . P7D ...
ROW 2B : A#4 00 8 ... ... ... : ... .. . ... ... ... : G#3 00 . ... : ... .. . ... : ... .. . ... ... : ... .. . ... ... : ... .. . ... ... : ... .. . P75 ...
ROW 2C : ... .. 7 ... ... ... : A#4 00 A ... ... ... : D#3 00 . ... : ... .. . ... : ... .. . ... ... : ... .. . ... ... : ... .. . ... ... : ... .. . P6D ...
ROW 2D : ... .. 6 ... ... ... : ... .. 8 ... ... ... : ... .. . ... : ... .. . ... : ... .. . ... ... : ... .. . ... ... : ... .. . ... ... : ... .. . P65 ...
ROW 2E : D#4 00 F ... ... ... : ... .. . ... ... ... : D-3 00 . P75 : ... .. . ... : ... .. . ... ... : ... .. . ... ... : ... .. . ... ... : ... .. . P5D ...
ROW 2F : ... .. E ... ... ... : ... .. . ... ... ... : C-3 00 . P84 : ... .. . ... : ... .. . ... ... : ... .. . ... ... : ... .. . ... ... : ... .. . P55 ...
ROW 30 : ... .. D ... ... ... : G#4 00 A ... ... ... : B-2 00 . P7D : ... .. . ... : ... .. . ... ... : ... .. . ... ... : ... .. . ... ... : ... .. . P4D ...
ROW 31 : G#4 00 8 ... ... ... : ... .. 8 ... ... ... : A#2 00 . P78 : ... .. . ... : ... .. . ... ... : ... .. . ... ... : ... .. . ... ... : ... .. . P45 ...
ROW 32 : ... .. 7 ... ... ... : ... .. . ... ... ... : A-2 00 . P74 : ... .. . ... : ... .. . ... ... : ... .. . ... ... : ... .. . ... ... : ... .. . P3D ...
ROW 33 : ... .. 6 ... ... ... : ... .. . ... ... ... : --- .. . ... : ... .. . ... : ... .. . ... ... : ... .. . ... ... : ... .. . ... ... : ... .. . P35 ...
ROW 34 : A#3 00 F ... ... ... : D#4 00 A ... ... ... : D#2 00 . P80 : ... .. . ... : ... .. . ... ... : ... .. . ... ... : ... .. . ... ... : ... .. . P2D ...
ROW 35 : ... .. E ... ... ... : ... .. 8 ... ... ... : ... .. . ... : ... .. . ... : ... .. . ... ... : ... .. . ... ... : ... .. . ... ... : E-0 01 8 PD3 ...
ROW 36 : ... .. D ... ... ... : ... .. . ... ... ... : ... .. . ... : ... .. . ... : ... .. . ... ... : ... .. . ... ... : ... .. . ... ... : ... .. . PCB ...
ROW 37 : D#4 00 8 ... ... ... : ... .. . ... ... ... : ... .. . ... : ... .. . ... : ... .. . ... ... : ... .. . ... ... : ... .. . ... ... : ... .. . PC3 ...
ROW 38 : ... .. 7 ... ... ... : A#3 00 A ... ... ... : ... .. . ... : ... .. . ... : ... .. . ... ... : ... .. . ... ... : ... .. . ... ... : ... .. . PBB ...
ROW 39 : ... .. 6 ... ... ... : ... .. 8 ... ... ... : --- .. . ... : ... .. . ... : ... .. . ... ... : ... .. . ... ... : ... .. . ... ... : ... .. . PB3 ...
ROW 3A : G#3 00 F ... ... ... : ... .. . ... ... ... : D#2 00 . ... : ... .. . ... : ... .. . ... ... : ... .. . ... ... : ... .. . ... ... : ... .. . PAB ...
ROW 3B : ... .. E ... ... ... : ... .. . ... ... ... : ... .. . ... : ... .. . ... : ... .. . ... ... : ... .. . ... ... : ... .. . ... ... : ... .. . PA3 ...
ROW 3C : ... .. D ... ... ... : G#3 00 A ... ... ... : ... .. . ... : ... .. . ... : ... .. . ... ... : ... .. . ... ... : ... .. . ... ... : ... .. . P9B ...
ROW 3D : A#3 00 8 ... ... ... : ... .. 8 ... ... ... : ... .. . ... : ... .. 2 ... : ... .. . ... ... : ... .. . ... ... : ... .. . ... ... : ... .. . P93 ...
ROW 3E : ... .. 7 ... ... ... : ... .. . ... ... ... : ... .. . ... : ... .. . ... : ... .. . ... ... : ... .. . ... ... : ... .. . ... ... : ... .. . P8B ...
ROW 3F : ... .. 6 ... ... ... : ... .. . ... ... ... : --- .. . ... : ... .. . ... : ... .. . ... ... : ... .. . ... ... : ... .. . ... ... : ... .. . P83 ...
ROW 40 : D#3 00 F ... ... ... : D#3 00 A ... ... ... : C-4 00 . ... : 7-# 00 D ... : ... .. . ... ... : ... .. . ... ... : ... .. . ... ... : ... .. . P7B ...
ROW 41 : ... .. E ... ... ... : ... .. 8 ... ... ... : D-3 00 . ... : ... .. B ... : ... .. . ... ... : ... .. . ... ... : ... .. . ... ... : ... .. . P73 ...
ROW 42 : ... .. D ... ... ... : ... .. . ... ... ... : G-2 00 . ... : ... .. . ... : ... .. . ... ... : ... .. . ... ... : ... .. . ... ... : ... .. . P6B ...
ROW 43 : G#3 00 8 ... ... ... : ... .. . ... ... ... : F#2 00 . ... : ... .. 6 ... : ... .. . ... ... : ... .. . ... ... : ... .. . ... ... : ... .. . P63 ...
ROW 44 : ... .. 7 ... ... ... : G#3 00 A ... ... ... : C#2 00 . ... : ... .. 4 ... : ... .. . ... ... : ... .. . ... ... : ... .. . ... ... : ... .. . P5B ...
ROW 45 : ... .. 6 ... ... ... : ... .. 8 ... ... ... : --- .. . ... : ... .. . ... : ... .. . ... ... : ... .. . ... ... : ... .. . ... ... : ... .. . P53 ...
ROW 46 : A#2 00 F ... ... ... : ... .. . ... ... ... : D#2 00 . ... : ... .. D ... : ... .. . ... ... : ... .. . ... ... : ... .. . ... ... : ... .. . P4B ...
ROW 47 : ... .. E ... ... ... : ... .. . ... ... ... : ... .. . ... : ... .. B ... : ... .. . ... ... : ... .. . ... ... : ... .. . ... ... : ... .. . P43 ...
ROW 48 : ... .. D ... ... ... : A#3 00 A ... ... ... : ... .. . ... : ... .. . ... : ... .. . ... ... : ... .. . ... ... : ... .. . ... ... : ... .. . P3B ...
ROW 49 : D#3 00 8 ... ... ... : ... .. 8 ... ... ... : ... .. . ... : ... .. 4 ... : ... .. . ... ... : ... .. . ... ... : ... .. . ... ... : ... .. . P33 ...
ROW 4A : ... .. 7 ... ... ... : ... .. . ... ... ... : ... .. . ... : ... .. 3 ... : ... .. . ... ... : ... .. . ... ... : ... .. . ... ... : ... .. . P2B ...
ROW 4B : ... .. 6 ... ... ... : ... .. . ... ... ... : --- .. . ... : ... .. 2 ... : ... .. . ... ... : ... .. . ... ... : ... .. . ... ... : D#0 01 8 PDB ...
ROW 4C : G#2 00 F ... ... ... : D#4 00 A ... ... ... : E-2 00 . ... : 5-# 00 D ... : ... .. . ... ... : ... .. . ... ... : ... .. . ... ... : ... .. . PD3 ...
ROW 4D : ... .. E ... ... ... : ... .. 8 ... ... ... : ... .. . ... : ... .. B ... : ... .. . ... ... : ... .. . ... ... : ... .. . ... ... : ... .. . PCB ...
ROW 4E : ... .. D ... ... ... : ... .. . ... ... ... : ... .. . ... : ... .. . ... : ... .. . ... ... : ... .. 3 ... ... : ... .. . ... ... : ... .. . PC3 ...
ROW 4F : A#2 00 8 ... ... ... : ... .. . ... ... ... : ... .. . ... : ... .. 4 ... : ... .. . ... ... : ... .. . ... ... : ... .. . ... ... : ... .. . PBB ...
ROW 50 : ... .. 7 ... ... ... : G#4 00 A ... ... ... : ... .. . ... : ... .. 3 ... : ... .. . ... ... : ... .. . ... ... : ... .. . ... ... : ... .. . PB3 ...
ROW 51 : ... .. 6 ... ... ... : ... .. 8 ... ... ... : --- .. . ... : ... .. 2 ... : ... .. . ... ... : ... .. . ... ... : ... .. . ... ... : ... .. . PAB ...
ROW 52 : D#2 00 F ... ... ... : ... .. . ... ... ... : D#2 00 . ... : ... .. D ... : ... .. . ... ... : ... .. . ... ... : ... .. . ... ... : ... .. . PA3 ...
ROW 53 : ... .. E ... ... ... : ... .. . ... ... ... : ... .. . ... : ... .. B ... : ... .. . ... ... : ... .. . ... ... : ... .. . ... ... : ... .. . P9B ...
ROW 54 : ... .. D ... ... ... : D#5 00 A ... ... ... : ... .. . ... : ... .. . ... : ... .. . ... ... : ... .. . ... ... : ... .. . ... ... : ... .. . P93 ...
ROW 55 : ... .. A ... ... ... : ... .. 8 ... ... ... : ... .. . ... : ... .. 4 ... : ... .. . ... ... : ... .. . ... ... : ... .. . ... ... : ... .. . P8B ...
ROW 56 : ... .. . ... ... ... : ... .. . ... ... ... : ... .. . ... : ... .. 3 ... : ... .. . ... ... : ... .. . ... ... : ... .. . ... ... : ... .. . P83 ...
ROW 57 : ... .. . ... ... ... : ... .. . ... ... ... : --- .. . ... : ... .. 2 ... : ... .. . ... ... : ... .. . ... ... : ... .. . ... ... : ... .. . P7B ...
ROW 58 : A#3 00 A ... ... ... : D#4 00 D ... ... ... : D-5 00 . ... : B-# 00 F ... : ... .. . ... ... : D#3 01 5 ... ... : G#2 01 A ... ... : A#2 01 F P7F ...
ROW 59 : ... .. 9 ... ... ... : ... .. B ... ... ... : E-4 00 . ... : ... .. . ... : ... .. . ... ... : ... .. 4 ... ... : ... .. 9 ... ... : ... .. D ... ...
ROW 5A : ... .. 8 ... ... ... : ... .. . ... ... ... : A-3 00 . ... : ... .. . ... : ... .. . ... ... : ... .. . ... ... : ... .. 8 ... ... : ... .. 8 ... ...
ROW 5B : ... .. 6 ... ... ... : ... .. A ... ... ... : G#3 00 . ... : ... .. E ... : ... .. . ... ... : ... .. 3 ... ... : ... .. 7 ... ... : ... .. . ... ...
ROW 5C : ... .. . ... ... ... : A#3 00 D ... ... ... : D#3 00 . ... : ... .. . ... : ... .. . ... ... : ... .. . ... ... : ... .. . ... ... : ... .. . ... ...
ROW 5D : ... .. . ... ... ... : ... .. B ... ... ... : ... .. . ... : ... .. . ... : ... .. . ... ... : ... .. . ... ... : ... .. 6 ... ... : ... .. . ... ...
ROW 5E : ... .. . ... V02 ... : ... .. . ... ... ... : D-3 00 . P75 : ... .. D ... : ... .. . ... ... : ... .. . ... ... : ... .. . ... ... : ... .. . ... ...
ROW 5F : ... .. . ... ... ... : ... .. A ... ... ... : C-3 00 . P84 : ... .. . ... : ... .. . ... ... : ... .. 2 ... ... : ... .. 5 ... ... : ... .. . ... ...
ROW 60 : ... .. . ... ... ... : G#3 00 D ... ... ... : B-2 00 . P7D : ... .. . ... : ... .. . ... ... : ... .. . ... ... : ... .. . ... ... : ... .. . ... ...
ROW 61 : ... .. . ... ... ... : ... .. B ... ... ... : A#2 00 . P78 : ... .. . ... : ... .. . ... ... : ... .. . ... ... : ... .. . ... ... : ... .. . ... ...
ROW 62 : ... .. . ... ... ... : ... .. . ... ... ... : A-2 00 . P74 : ... .. . ... : ... .. . ... ... : ... .. . ... ... : ... .. . ... ... : ... .. . ... ...
ROW 63 : ... .. . ... ... ... : ... .. A ... ... ... : --- .. . ... : ... .. . ... : ... .. . ... ... : ... .. . ... ... : ... .. . ... ... : ... .. . ... ...
ROW 64 : ... .. . ... V00 ... : D#3 00 D ... ... ... : D#3 00 . P80 : ... .. C ... : ... .. . ... ... : ... .. . ... ... : ... .. . ... ... : ... .. . ... ...
ROW 65 : ... .. . ... ... ... : ... .. B ... ... ... : ... .. . ... : ... .. . ... : ... .. . ... ... : ... .. . ... ... : ... .. . ... ... : ... .. . ... ...
ROW 66 : ... .. . ... ... ... : ... .. . ... ... ... : ... .. . ... : ... .. . ... : ... .. . ... ... : ... .. . ... ... : ... .. . ... ... : ... .. . ... ...
ROW 67 : ... .. . ... ... ... : ... .. A ... ... ... : ... .. . ... : ... .. B ... : ... .. . ... ... : ... .. 3 ... ... : ... .. . ... ... : ... .. . ... ...
ROW 68 : ... .. . ... ... ... : A#2 00 D ... ... ... : ... .. . ... : ... .. . ... : ... .. . ... ... : ... .. . ... ... : ... .. . ... ... : ... .. . ... ...
ROW 69 : ... .. . ... ... ... : ... .. B ... ... ... : --- .. . ... : ... .. . ... : ... .. . ... ... : ... .. . ... ... : ... .. . ... ... : ... .. . ... ...
ROW 6A : ... .. . ... V01 ... : ... .. . ... ... ... : D#3 00 . ... : ... .. . ... : ... .. . ... ... : ... .. . ... ... : ... .. . ... ... : ... .. . ... ...
ROW 6B : ... .. . ... ... ... : ... .. A ... ... ... : ... .. . ... : ... .. . ... : ... .. . ... ... : ... .. . ... ... : ... .. . ... ... : ... .. . ... ...
ROW 6C : ... .. . ... ... ... : G#2 00 D ... ... ... : ... .. . ... : ... .. . ... : ... .. . ... ... : ... .. . ... ... : ... .. . ... ... : ... .. . ... ...
ROW 6D : ... .. 7 ... ... ... : ... .. B ... ... ... : ... .. . ... : ... .. A ... : ... .. . ... ... : ... .. . ... ... : ... .. . ... ... : ... .. . ... ...
ROW 6E : ... .. . ... ... ... : ... .. . ... ... ... : ... .. . ... : ... .. . ... : ... .. . ... ... : ... .. . ... ... : ... .. . ... ... : ... .. . ... ...
ROW 6F : ... .. . ... ... ... : ... .. A ... ... ... : --- .. . ... : ... .. . ... : ... .. . ... ... : ... .. . ... ... : ... .. . ... ... : ... .. . ... ...
ROW 70 : ... .. . ... V02 ... : D#2 00 D ... ... ... : C-5 00 . ... : ... .. 9 ... : ... .. . ... ... : ... .. . ... ... : ... .. . ... ... : ... .. . ... ...
ROW 71 : ... .. . ... ... ... : ... .. B ... ... ... : D-4 00 . ... : ... .. . ... : ... .. . ... ... : ... .. . ... ... : ... .. . ... ... : ... .. . ... ...
ROW 72 : ... .. . ... ... ... : ... .. . ... ... ... : G-3 00 . ... : ... .. . ... : ... .. . ... ... : ... .. . ... ... : ... .. . ... ... : ... .. . ... ...
ROW 73 : ... .. . ... ... ... : ... .. A ... ... ... : F#3 00 . ... : ... .. . ... : ... .. . ... ... : ... .. . ... ... : ... .. . ... ... : ... .. . ... ...
ROW 74 : ... .. . ... ... ... : A#1 00 D ... ... ... : C#3 00 . ... : ... .. . ... : ... .. . ... ... : ... .. . ... ... : ... .. . ... ... : ... .. . ... ...
ROW 75 : ... .. . ... ... ... : ... .. B ... ... ... : --- .. . ... : ... .. . ... : ... .. . ... ... : ... .. . ... ... : ... .. . ... ... : ... .. . ... ...
ROW 76 : ... .. . ... V03 ... : ... .. . ... ... ... : D#3 00 . ... : ... .. 8 ... : ... .. . ... ... : ... .. . ... ... : ... .. . ... ... : ... .. . ... ...
ROW 77 : ... .. . ... ... ... : ... .. A ... ... ... : ... .. . ... : ... .. . ... : ... .. . ... ... : ... .. . ... ... : ... .. . ... ... : ... .. 4 ... ...
ROW 78 : ... .. . ... ... ... : G#1 00 D ... ... ... : ... .. . ... : ... .. . ... : ... .. . ... ... : ... .. . ... ... : ... .. 3 ... ... : ... .. . ... ...
ROW 79 : ... .. . ... ... ... : ... .. B ... ... ... : ... .. . ... : ... .. . ... : ... .. . ... ... : ... .. . ... ... : ... .. . ... ... : ... .. 1 ... ...
ROW 7A : ... .. . ... ... ... : ... .. . ... ... ... : ... .. . ... : ... .. . ... : ... .. . ... ... : ... .. . ... ... : ... .. . ... ... : ... .. . ... ...
ROW 7B : ... .. . ... ... ... : ... .. A ... ... ... : --- .. . ... : ... .. . ... : ... .. . ... ... : ... .. . ... ... : ... .. . ... ... : ... .. . ... ...
ROW 7C : B-3 00 B ... V02 ... : E-4 00 D ... ... ... : D#3 00 . ... : D-# 00 D ... : ... .. . ... ... : E-3 01 6 ... ... : A-2 01 A ... ... : B-2 01 F ... ...
ROW 7D : ... .. A ... ... ... : ... .. B ... ... ... : ... .. . ... : ... .. B ... : ... .. . ... ... : ... .. . ... ... : ... .. 9 ... ... : ... .. D ... ...
ROW 7E : ... .. 9 ... ... ... : ... .. . ... ... ... : ... .. . ... : ... .. . ... : ... .. . ... ... : ... .. 5 ... ... : ... .. 8 ... ... : ... .. 8 ... ...
ROW 7F : ... .. 8 ... ... ... : ... .. A ... ... ... : ... .. . ... : ... .. A ... : ... .. . ... ... : ... .. 4 ... ... : ... .. 7 ... ... : ... .. . ... ...
ROW 80 : ... .. . ... ... ... : B-3 00 D ... ... ... : ... .. . ... : ... .. 8 ... : ... .. . ... ... : ... .. . ... ... : ... .. . ... ... : ... .. . ... ...
ROW 81 : ... .. . ... ... ... : ... .. B ... ... ... : --- .. . ... : ... .. 7 ... : ... .. . ... ... : ... .. . ... ... : ... .. 6 ... ... : ... .. . ... ...
ROW 82 : ... .. . ... V00 ... : ... .. . ... ... ... : D#3 00 . ... : ... .. 6 ... : ... .. . ... ... : ... .. . ... ... : ... .. . ... ... : ... .. . ... ...
ROW 83 : ... .. . ... ... ... : ... .. A ... ... ... : ... .. . ... : ... .. . ... : ... .. . ... ... : ... .. 3 ... ... : ... .. 5 ... ... : ... .. . ... ...
ROW 84 : ... .. . ... ... ... : A-3 00 D ... ... ... : ... .. . ... : ... .. 5 ... : ... .. . ... ... : ... .. . ... ... : ... .. . ... ... : ... .. . ... ...
ROW 85 : ... .. . ... ... ... : ... .. B ... ... ... : ... .. . ... : ... .. . ... : ... .. . ... ... : ... .. . ... ... : ... .. . ... ... : ... .. . ... ...
ROW 86 : ... .. . ... ... ... : ... .. . ... ... ... : ... .. . ... : ... .. 4 ... : ... .. . ... ... : ... .. . ... ... : ... .. . ... ... : ... .. . ... ...
ROW 87 : ... .. . ... ... ... : ... .. A ... ... ... : --- .. . ... : ... .. . ... : ... .. . ... ... : ... .. . ... ... : ... .. . ... ... : ... .. . ... ...
ROW 88 : ... .. . ... V03 ... : E-3 00 D ... ... ... : D-5 00 . ... : ... .. F ... : ... .. . ... ... : ... .. . ... ... : ... .. . ... ... : ... .. . ... ...
ROW 89 : ... .. . ... ... ... : ... .. B ... ... ... : E-4 00 . ... : ... .. C ... : ... .. . ... ... : ... .. . ... ... : ... .. . ... ... : ... .. . ... ...
ROW 8A : ... .. . ... ... ... : ... .. . ... ... ... : A-3 00 . ... : ... .. 6 ... : ... .. . ... ... : ... .. . ... ... : ... .. . ... ... : ... .. . ... ...
ROW 8B : ... .. . ... ... ... : ... .. A ... ... ... : G#3 00 . ... : ... .. 3 ... : ... .. . ... ... : ... .. . ... ... : ... .. . ... ... : ... .. . ... ...
ROW 8C : ... .. . ... ... ... : B-2 00 D ... ... ... : D#3 00 . ... : ... .. 2 ... : ... .. . ... ... : ... .. . ... ... : ... .. . ... ... : ... .. . ... ...
ROW 8D : ... .. . ... ... ... : ... .. B ... ... ... : ... .. . ... : ... .. 0 ... : ... .. . ... ... : ... .. . ... ... : ... .. . ... ... : ... .. . ... ...
ROW 8E : ... .. . ... V02 ... : ... .. . ... ... ... : D-3 00 . P75 : ... .. F ... : ... .. . ... ... : ... .. . ... ... : ... .. . ... ... : ... .. . ... ...
ROW 8F : ... .. . ... ... ... : ... .. A ... ... ... : C-3 00 . P84 : ... .. C ... : ... .. . ... ... : ... .. . ... ... : ... .. . ... ... : ... .. . ... ...
ROW 90 : ... .. . ... ... ... : A-2 00 D ... ... ... : B-2 00 . P7D : ... .. 6 ... : ... .. . ... ... : ... .. . ... ... : ... .. . ... ... : ... .. . ... ...
ROW 91 : ... .. . ... ... ... : ... .. B ... ... ... : A#2 00 . P78 : ... .. 3 ... : ... .. . ... ... : ... .. 4 ... ... : ... .. . ... ... : ... .. . ... ...
ROW 92 : ... .. . ... ... ... : ... .. . ... ... ... : A-2 00 . P74 : ... .. 2 ... : ... .. . ... ... : ... .. . ... ... : ... .. . ... ... : ... .. . ... ...
ROW 93 : ... .. . ... ... ... : ... .. A ... ... ... : --- .. . ... : ... .. 0 ... : ... .. . ... ... : ... .. . ... ... : ... .. . ... ... : ... .. . ... ...
ROW 94 : ... .. . ... V00 ... : E-2 00 D ... ... ... : D#2 00 . P80 : ... .. D ... : ... .. . ... ... : ... .. . ... ... : ... .. . ... ... : ... .. . ... ...
ROW 95 : ... .. . ... ... ... : ... .. B ... ... ... : ... .. . ... : ... .. B ... : ... .. . ... ... : ... .. . ... ... : ... .. . ... ... : ... .. . ... ...
ROW 96 : ... .. . ... ... ... : ... .. . ... ... ... : ... .. . ... : ... .. . ... : ... .. . ... ... : ... .. . ... ... : ... .. . ... ... : ... .. . ... ...
ROW 97 : ... .. . ... ... ... : ... .. A ... ... ... : ... .. . ... : ... .. A ... : ... .. . ... ... : ... .. . ... ... : ... .. . ... ... : ... .. . ... ...
ROW 98 : ... .. . ... ... ... : B-1 00 D ... ... ... : ... .. . ... : ... .. 8 ... : ... .. . ... ... : ... .. . ... ... : ... .. . ... ... : ... .. . ... ...
ROW 99 : ... .. . ... ... ... : ... .. B ... ... ... : --- .. . ... : ... .. 7 ... : ... .. . ... ... : ... .. . ... ... : ... .. . ... ... : ... .. . ... ...
ROW 9A : ... .. . ... V02 ... : ... .. . ... ... ... : D#2 00 . ... : ... .. 6 ... : ... .. . ... ... : ... .. . ... ... : ... .. . ... ... : ... .. . ... ...
ROW 9B : ... .. . ... ... ... : ... .. A ... ... ... : ... .. . ... : ... .. . ... : ... .. . ... ... : ... .. . ... ... : ... .. . ... ... : ... .. . ... ...
ROW 9C : ... .. . ... ... ... : A-1 00 D ... ... ... : ... .. . ... : ... .. 5 ... : ... .. . ... ... : ... .. . ... ... : ... .. . ... ... : ... .. . ... ...
ROW 9D : ... .. . ... ... ... : ... .. B ... ... ... : ... .. . ... : ... .. . ... : ... .. . ... ... : ... .. . ... ... : ... .. . ... ... : ... .. . ... ...
ROW 9E : ... .. . ... ... ... : ... .. . ... ... ... : ... .. . ... : ... .. 4 ... : ... .. . ... ... : ... .. . ... ... : ... .. . ... ... : ... .. . ... ...
ROW 9F : ... .. . ... ... ... : ... .. A ... ... ... : --- .. . ... : ... .. . ... : ... .. . ... ... : ... .. . ... ... : ... .. . ... ... : ... .. . ... ...
ROW A0 : ... .. 5 P7C V01 ... : E-1 00 D ... ... ... : C-4 00 . ... : ... .. F ... : ... .. . ... ... : D#3 01 4 P85 ... : G#2 01 5 P8F ... : A#2 01 8 P8D ...
ROW A1 : A#3 00 5 P86 ... ... : ... .. B ... ... ... : D-3 00 . ... : ... .. C ... : ... .. . ... ... : D-3 01 4 P8A ... : ... .. . P7F ... : ... .. . P7D ...
ROW A2 : ... .. . P82 ... ... : ... .. . ... ... ... : G-2 00 . ... : ... .. 6 ... : ... .. . ... ... : ... .. . P7A ... : G-2 01 5 P8F ... : A-2 01 8 P8E ...
ROW A3 : ... .. . P7E ... ... : ... .. A ... ... ... : F#2 00 . ... : ... .. 3 ... : ... .. . ... ... : C#3 01 4 P81 ... : ... .. . P7F ... : ... .. . P7E ...
ROW A4 : ... .. . P7A ... ... : A-1 00 D ... ... ... : C#2 00 . ... : ... .. 2 ... : ... .. . ... ... : C-3 01 4 P89 ... : F#2 01 5 P91 ... : G#2 01 8 P91 ...
ROW A5 : A-3 00 5 P84 ... ... : ... .. B ... ... ... : --- .. . ... : ... .. 0 ... : ... .. . ... ... : ... .. . P79 ... : ... .. . P81 ... : ... .. . P81 ...
ROW A6 : ... .. . P80 V02 ... : ... .. . ... ... ... : D#2 00 . ... : ... .. F ... : ... .. . ... ... : B-2 01 4 P82 ... : ... .. . P71 ... : ... .. . P71 ...
ROW A7 : ... .. . P7C ... ... : ... .. A ... ... ... : ... .. . ... : ... .. C ... : ... .. . ... ... : A#2 01 4 P8D ... : F-2 01 5 P85 ... : G-2 01 8 P85 ...
ROW A8 : G#3 00 5 P87 ... ... : B-1 00 D ... ... ... : ... .. . ... : ... .. 6 ... : ... .. . ... ... : ... .. . P7D ... : ... .. . P75 ... : ... .. . P75 ...
ROW A9 : ... .. . P83 ... ... : ... .. B ... ... ... : ... .. . ... : ... .. 3 ... : ... .. . ... ... : A-2 01 4 P89 ... : E-2 01 5 P8B ... : F#2 01 8 P8C ...
ROW AA : ... .. . P7F ... ... : ... .. . ... ... ... : ... .. . ... : ... .. 2 ... : ... .. . ... ... : ... .. . P79 ... : ... .. . P7B ... : ... .. . P7C ...
ROW AB : ... .. . P7B ... ... : ... .. A ... ... ... : --- .. . ... : ... .. 0 ... : ... .. . ... ... : G#2 01 4 P88 ... : D#2 01 5 P93 ... : ... .. . P6C ...
ROW AC : G-3 00 5 P87 V00 ... : E-2 00 D ... ... ... : E-2 00 . ... : ... .. D ... : ... .. . ... ... : ... .. . P78 ... : ... .. . P83 ... : F-2 01 8 P85 ...
ROW AD : ... .. . P83 ... ... : ... .. B ... ... ... : ... .. . ... : ... .. B ... : ... .. . ... ... : G-2 01 4 P88 ... : ... .. . P73 ... : ... .. 4 P75 ...
ROW AE : ... .. . P7F ... ... : ... .. . ... ... ... : ... .. . ... : ... .. . ... : ... .. . ... ... : ... .. . P78 ... : D-2 01 3 P8E ... : E-2 01 4 P91 ...
ROW AF : ... .. . P7B ... ... : ... .. A ... ... ... : ... .. . ... : ... .. A ... : ... .. . ... ... : F#2 01 4 P8A ... : ... .. . P7E ... : ... .. 1 P81 ...
ROW B0 : F#3 00 5 P88 ... ... : A-2 00 D ... ... ... : ... .. . ... : ... .. 8 ... : ... .. . ... ... : ... .. . P7A ... : ... .. . P6E ... : ... .. . P71 ...
ROW B1 : ... .. . P84 ... ... : ... .. B ... ... ... : --- .. . ... : ... .. 7 ... : ... .. . ... ... : F-2 01 4 P8E ... : C#2 01 3 P8B ... : D#2 01 1 P8F ...
ROW B2 : ... .. . P80 V01 ... : ... .. . ... ... ... : D#2 00 . ... : ... .. 6 ... : ... .. . ... ... : ... .. . P7E ... : ... .. . P7B ... : ... .. . P7F ...
ROW B3 : ... .. . P7C ... ... : ... .. A ... ... ... : ... .. . ... : ... .. . ... : ... .. . ... ... : ... .. . P6E ... : ... .. . P6B ... : ... .. . P6F ...
ROW B4 : ... .. . P78 ... ... : E-3 00 D ... ... ... : ... .. . ... : ... .. 5 ... : ... .. . ... ... : E-2 01 4 P84 ... : C-2 01 3 P8B ... : D-2 01 1 P90 ...
ROW B5 : F-3 00 5 P86 ... ... : ... .. B ... ... ... : ... .. . ... : ... .. . ... : ... .. . ... ... : ... .. . P74 ... : ... .. . P7B ... : ... .. . P80 ...
ROW B6 : ... .. . P82 ... ... : ... .. . ... ... ... : ... .. . ... : ... .. 4 ... : ... .. . ... ... : D#2 01 4 P8C ... : ... .. . P6B ... : ... .. 0 P70 ...
ROW B7 : ... .. . P7E ... ... : ... .. A ... ... ... : --- .. . ... : ... .. . ... : ... .. . ... ... : ... .. . P7C ... : B-1 01 3 P8E ... : C#2 01 0 P93 ...
ROW B8 : C#4 00 F P80 ... ... : F#4 00 D ... ... ... : D-5 00 . ... : ... .. F ... : ... .. . ... ... : F#3 01 A P80 ... : B-2 01 A P80 ... : C#3 01 F P7F ...
ROW B9 : ... .. E ... ... ... : ... .. B ... ... ... : E-4 00 . ... : ... .. C ... : ... .. . ... ... : ... .. 9 ... ... : ... .. 9 ... ... : ... .. D ... ...
ROW BA : ... .. D ... ... ... : ... .. . ... ... ... : A-3 00 . ... : ... .. 6 ... : ... .. . ... ... : ... .. 8 ... ... : ... .. 8 ... ... : ... .. 8 ... ...
ROW BB : ... .. A ... ... ... : ... .. A ... ... ... : G#3 00 . ... : ... .. 3 ... : ... .. . ... ... : ... .. 7 ... ... : ... .. 7 ... ... : ... .. . ... ...
ROW BC : ... .. . ... ... ... : C#4 00 D ... ... ... : D#3 00 . ... : ... .. 2 ... : ... .. . ... ... : ... .. . ... ... : ... .. . ... ... : ... .. . ... ...
ROW BD : ... .. . ... ... ... : ... .. B ... ... ... : ... .. . ... : ... .. 0 ... : ... .. . ... ... : ... .. 6 ... ... : ... .. 6 ... ... : ... .. . ... ...
ROW BE : ... .. . ... V02 ... : ... .. . ... ... ... : D-3 00 . P75 : ... .. F ... : ... .. . ... ... : ... .. . ... ... : ... .. . ... ... : ... .. . ... ...
ROW BF : ... .. . ... ... ... : ... .. A ... ... ... : C-3 00 . P84 : ... .. C ... : ... .. . ... ... : ... .. 5 ... ... : ... .. 5 ... ... : ... .. . ... ...
ROW C0 : ... .. . ... ... ... : B-3 00 D ... ... ... : B-2 00 . P7D : ... .. 6 ... : ... .. . ... ... : ... .. . ... ... : ... .. . ... ... : ... .. . ... ...
ROW C1 : ... .. . ... ... ... : ... .. B ... ... ... : A#2 00 . P78 : ... .. 3 ... : ... .. . ... ... : ... .. . ... ... : ... .. . ... ... : ... .. . ... ...
ROW C2 : ... .. . ... ... ... : ... .. . ... ... ... : A-2 00 . P74 : ... .. 2 ... : ... .. . ... ... : ... .. . ... ... : ... .. . ... ... : ... .. . ... ...
ROW C3 : ... .. . ... ... ... : ... .. A ... ... ... : --- .. . ... : ... .. 0 ... : ... .. . ... ... : ... .. . ... ... : ... .. . ... ... : ... .. . ... ...
ROW C4 : ... .. . ... V00 ... : F#3 00 D ... ... ... : D#3 00 . P80 : ... .. D ... : ... .. . ... ... : ... .. . ... ... : ... .. . ... ... : ... .. . ... ...
ROW C5 : ... .. . ... ... ... : ... .. B ... ... ... : ... .. . ... : ... .. B ... : ... .. . ... ... : ... .. . ... ... : ... .. . ... ... : ... .. . ... ...
ROW C6 : ... .. . ... ... ... : ... .. . ... ... ... : ... .. . ... : ... .. . ... : ... .. . ... ... : ... .. . ... ... : ... .. . ... ... : ... .. . ... ...
ROW C7 : ... .. . ... ... ... : ... .. A ... ... ... : ... .. . ... : ... .. A ... : ... .. . ... ... : ... .. . ... ... : ... .. . ... ... : ... .. . ... ...
ROW C8 : ... .. . ... ... ... : C#3 00 D ... ... ... : ... .. . ... : ... .. 8 ... : ... .. . ... ... : ... .. . ... ... : ... .. . ... ... : ... .. . ... ...
ROW C9 : ... .. . ... ... ... : ... .. B ... ... ... : --- .. . ... : ... .. 7 ... : ... .. . ... ... : ... .. . ... ... : ... .. . ... ... : ... .. . ... ...
ROW CA : ... .. . ... V01 ... : ... .. . ... ... ... : D#3 00 . ... : ... .. 6 ... : ... .. . ... ... : ... .. . ... ... : ... .. . ... ... : ... .. . ... ...
ROW CB : ... .. . ... ... ... : ... .. A ... ... ... : ... .. . ... : ... .. . ... : ... .. . ... ... : ... .. . ... ... : ... .. . ... ... : ... .. . ... ...
ROW CC : ... .. . ... ... ... : B-2 00 D ... ... ... : ... .. . ... : ... .. 5 ... : ... .. . ... ... : ... .. . ... ... : ... .. . ... ... : ... .. . ... ...
ROW CD : ... .. . ... ... ... : ... .. B ... ... ... : ... .. . ... : ... .. . ... : ... .. . ... ... : ... .. . ... ... : ... .. . ... ... : ... .. . ... ...
ROW CE : ... .. . ... ... ... : ... .. . ... ... ... : ... .. . ... : ... .. 4 ... : ... .. . ... ... : ... .. . ... ... : ... .. . ... ... : ... .. . ... ...
ROW CF : ... .. . ... ... ... : ... .. A ... ... ... : --- .. . ... : ... .. . ... : ... .. . ... ... : ... .. . ... ... : ... .. . ... ... : ... .. . ... ...
ROW D0 : ... .. . ... V02 ... : F#2 00 D ... ... ... : C-5 00 . ... : ... .. F ... : ... .. . ... ... : ... .. . ... ... : ... .. . ... ... : ... .. . ... ...
ROW D1 : ... .. . ... ... ... : ... .. B ... ... ... : D-4 00 . ... : ... .. C ... : ... .. . ... ... : ... .. . ... ... : ... .. . ... ... : ... .. . ... ...
ROW D2 : ... .. . ... ... ... : ... .. . ... ... ... : G-3 00 . ... : ... .. 6 ... : ... .. . ... ... : ... .. . ... ... : ... .. . ... ... : ... .. . ... ...
ROW D3 : ... .. . ... ... ... : ... .. A ... ... ... : F#3 00 . ... : ... .. 3 ... : ... .. . ... ... : ... .. . ... ... : ... .. . ... ... : ... .. . ... ...
ROW D4 : ... .. . ... ... ... : C#2 00 D ... ... ... : C#3 00 . ... : ... .. 2 ... : ... .. . ... ... : ... .. . ... ... : ... .. . ... ... : ... .. . ... ...
ROW D5 : ... .. . ... ... ... : ... .. B ... ... ... : --- .. . ... : ... .. 0 ... : ... .. . ... ... : ... .. . ... ... : ... .. . ... ... : ... .. . ... ...
ROW D6 : ... .. . ... V03 ... : ... .. . ... ... ... : D#3 00 . ... : ... .. F ... : ... .. . ... ... : ... .. . ... ... : ... .. . ... ... : ... .. . ... ...
ROW D7 : ... .. . ... ... ... : ... .. A ... ... ... : ... .. . ... : ... .. C ... : ... .. . ... ... : ... .. . ... ... : ... .. . ... ... : ... .. 4 ... ...
ROW D8 : ... .. . ... ... ... : B-1 00 D ... ... ... : ... .. . ... : ... .. 6 ... : ... .. . ... ... : ... .. . ... ... : ... .. 3 ... ... : ... .. . ... ...
ROW D9 : ... .. . ... ... ... : ... .. B ... ... ... : ... .. . ... : ... .. 3 ... : ... .. . ... ... : ... .. . ... ... : ... .. . ... ... : ... .. 1 ... ...
ROW DA : ... .. . ... ... ... : ... .. . ... ... ... : ... .. . ... : ... .. 2 ... : ... .. . ... ... : ... .. . ... ... : ... .. . ... ... : ... .. . ... ...
ROW DB : ... .. . ... ... ... : ... .. A ... ... ... : --- .. . ... : ... .. 0 ... : ... .. . ... ... : ... .. . ... ... : ... .. . ... ... : ... .. . ... ...
ROW DC : D#4 00 F ... V02 ... : G#4 00 D ... ... ... : D#3 00 . ... : ... .. D ... : ... .. . ... ... : G#3 01 A ... ... : C#3 01 A ... ... : D#3 01 F ... ...
ROW DD : ... .. E ... ... ... : ... .. B ... ... ... : ... .. . ... : ... .. B ... : ... .. . ... ... : ... .. 9 ... ... : ... .. 9 ... ... : ... .. D ... ...
ROW DE : ... .. D ... ... ... : ... .. . ... ... ... : ... .. . ... : ... .. . ... : ... .. . ... ... : ... .. 8 ... ... : ... .. 8 ... ... : ... .. 8 ... ...
ROW DF : ... .. A ... ... ... : ... .. A ... ... ... : ... .. . ... : ... .. A ... : ... .. . ... ... : ... .. 7 ... ... : ... .. 7 ... ... : ... .. . ... ...
ROW E0 : ... .. . ... ... ... : D#4 00 D ... ... ... : ... .. . ... : ... .. 8 ... : ... .. . ... ... : ... .. . ... ... : ... .. . ... ... : ... .. . ... ...
ROW E1 : ... .. . ... ... ... : ... .. B ... ... ... : --- .. . ... : ... .. 7 ... : ... .. . ... ... : ... .. 6 ... ... : ... .. 6 ... ... : ... .. . ... ...
ROW E2 : ... .. . ... V00 ... : ... .. . ... ... ... : D#3 00 . ... : ... .. 6 ... : ... .. . ... ... : ... .. . ... ... : ... .. . ... ... : ... .. . ... ...
ROW E3 : ... .. . ... ... ... : ... .. A ... ... ... : ... .. . ... : ... .. . ... : ... .. . ... ... : ... .. 5 ... ... : ... .. 5 ... ... : ... .. . ... ...
ROW E4 : ... .. . ... ... ... : C#4 00 D ... ... ... : ... .. . ... : ... .. 5 ... : ... .. . ... ... : ... .. . ... ... : ... .. . ... ... : ... .. . ... ...
ROW E5 : ... .. . ... ... ... : ... .. B ... ... ... : ... .. . ... : ... .. . ... : ... .. . ... ... : ... .. . ... ... : ... .. . ... ... : ... .. . ... ...
ROW E6 : ... .. . ... ... ... : ... .. . ... ... ... : ... .. . ... : ... .. 4 ... : ... .. . ... ... : ... .. . ... ... : ... .. . ... ... : ... .. . ... ...
ROW E7 : ... .. . ... ... ... : ... .. A ... ... ... : --- .. . ... : ... .. . ... : ... .. . ... ... : ... .. . ... ... : ... .. . ... ... : ... .. . ... ...
ROW E8 : ... .. . ... V03 ... : G#3 00 D ... ... ... : D-5 00 . ... : ... .. F ... : ... .. . ... ... : ... .. . ... ... : ... .. . ... ... : ... .. . ... ...
ROW E9 : ... .. . ... ... ... : ... .. B ... ... ... : E-4 00 . ... : ... .. C ... : ... .. . ... ... : ... .. . ... ... : ... .. . ... ... : ... .. . ... ...
ROW EA : ... .. . ... ... ... : ... .. . ... ... ... : A-3 00 . ... : ... .. 6 ... : ... .. . ... ... : ... .. . ... ... : ... .. . ... ... : ... .. . ... ...
ROW EB : ... .. . ... ... ... : ... .. A ... ... ... : G#3 00 . ... : ... .. 3 ... : ... .. . ... ... : ... .. . ... ... : ... .. . ... ... : ... .. . ... ...
ROW EC : ... .. . ... ... ... : D#3 00 D ... ... ... : D#3 00 . ... : ... .. 2 ... : ... .. . ... ... : ... .. . ... ... : ... .. . ... ... : ... .. . ... ...
ROW ED : ... .. . ... ... ... : ... .. B ... ... ... : ... .. . ... : ... .. 0 ... : ... .. . ... ... : ... .. . ... ... : ... .. . ... ... : ... .. . ... ...
ROW EE : ... .. . ... V02 ... : ... .. . ... ... ... : D-3 00 . P75 : ... .. F ... : ... .. . ... ... : ... .. . ... ... : ... .. . ... ... : ... .. . ... ...
ROW EF : ... .. . ... ... ... : ... .. A ... ... ... : C-3 00 . P84 : ... .. C ... : ... .. . ... ... : ... .. . ... ... : ... .. . ... ... : ... .. . ... ...
ROW F0 : ... .. . ... ... ... : C#3 00 D ... ... ... : B-2 00 . P7D : ... .. 6 ... : ... .. . ... ... : ... .. . ... ... : ... .. . ... ... : ... .. . ... ...
ROW F1 : ... .. . ... ... ... : ... .. B ... ... ... : A#2 00 . P78 : ... .. 3 ... : ... .. . ... ... : ... .. . ... ... : ... .. . ... ... : ... .. . ... ...
ROW F2 : ... .. . ... ... ... : ... .. . ... ... ... : A-2 00 . P74 : ... .. 2 ... : ... .. . ... ... : ... .. . ... ... : ... .. . ... ... : ... .. . ... ...
ROW F3 : ... .. . ... ... ... : ... .. A ... ... ... : --- .. . ... : ... .. 0 ... : ... .. . ... ... : ... .. . ... ... : ... .. . ... ... : ... .. . ... ...
ROW F4 : ... .. . ... V00 ... : G#2 00 D ... ... ... : D#2 00 . P80 : ... .. D ... : ... .. . ... ... : ... .. . ... ... : ... .. . ... ... : ... .. . ... ...
ROW F5 : ... .. . ... ... ... : ... .. B ... ... ... : ... .. . ... : ... .. B ... : ... .. . ... ... : ... .. . ... ... : ... .. . ... ... : ... .. . ... ...
ROW F6 : ... .. . ... ... ... : ... .. . ... ... ... : ... .. . ... : ... .. . ... : ... .. . ... ... : ... .. . ... ... : ... .. . ... ... : ... .. . ... ...
ROW F7 : ... .. . ... ... ... : ... .. A ... ... ... : ... .. . ... : ... .. A ... : ... .. . ... ... : ... .. . ... ... : ... .. . ... ... : ... .. . ... ...
ROW F8 : ... .. . ... ... ... : D#2 00 D ... ... ... : ... .. . ... : ... .. 8 ... : ... .. . ... ... : ... .. . ... ... : ... .. . ... ... : ... .. . ... ...
ROW F9 : ... .. . ... ... ... : ... .. B ... ... ... : --- .. . ... : ... .. 7 ... : ... .. . ... ... : ... .. . ... ... : ... .. . ... ... : ... .. . ... ...
ROW FA : ... .. . ... V02 ... : ... .. . ... ... ... : D#2 00 . ... : ... .. 6 ... : ... .. . ... ... : ... .. . ... ... : ... .. . ... ... : ... .. . ... ...
ROW FB : ... .. . ... ... ... : ... .. A ... ... ... : ... .. . ... : ... .. . ... : ... .. . ... ... : ... .. . ... ... : ... .. . ... ... : ... .. . ... ...
ROW FC : ... .. . ... ... ... : C#2 00 D ... ... ... : ... .. . ... : ... .. 5 ... : ... .. . ... ... : ... .. . ... ... : ... .. . ... ... : ... .. . ... ...
ROW FD : ... .. . ... ... ... : ... .. B ... ... ... : ... .. . ... : ... .. . ... : ... .. . ... ... : ... .. . ... ... : ... .. . ... ... : ... .. . ... ...
ROW FE : ... .. . ... ... ... : ... .. . ... ... ... : ... .. . ... : ... .. 4 ... : ... .. . ... ... : ... .. . ... ... : ... .. . ... ... : ... .. . ... ...
ROW FF : ... .. . ... ... ... : ... .. A ... ... ... : --- .. . ... : ... .. . ... : ... .. . ... ... : ... .. . ... ... : ... .. . ... ... : ... .. . ... ...

PATTERN 1B
ROW 00 : ... .. 5 P7C V01 ... : G#1 00 D ... ... ... : C-4 00 . ... : ... .. F ... : ... .. . ... ... : G-3 01 5 ... ... : C-3 01 5 P88 ... : D-3 01 8 P87 ...
ROW 01 : D-4 00 5 P82 ... ... : ... .. B ... ... ... : D-3 00 . ... : ... .. C ... : ... .. . ... ... : F#3 01 5 P81 ... : ... .. . P78 ... : ... .. . P77 ...
ROW 02 : ... .. . P7E ... ... : ... .. . ... ... ... : G-2 00 . ... : ... .. 6 ... : ... .. . ... ... : F-3 01 5 P83 ... : B-2 01 5 P81 ... : C#3 01 8 P81 ...
ROW 03 : C#4 00 5 P86 ... ... : ... .. A ... ... ... : F#2 00 . ... : ... .. 3 ... : ... .. . ... ... : E-3 01 5 P86 ... : A#2 01 5 P8C ... : C-3 01 8 P8D ...
ROW 04 : ... .. . P82 ... ... : C#2 00 D ... ... ... : C#2 00 . ... : ... .. F ... : ... .. . ... ... : ... .. . P76 ... : ... .. . P7C ... : ... .. . P7D ...
ROW 05 : ... .. . P7E ... ... : ... .. B ... ... ... : --- .. . ... : ... .. C ... : ... .. . ... ... : D#3 01 5 P7B ... : A-2 01 5 P88 ... : B-2 01 8 P8A ...
ROW 06 : C-4 00 5 P86 V02 ... : ... .. . ... ... ... : D#2 00 . ... : ... .. 6 ... : ... .. . ... ... : D-3 01 5 P80 ... : ... .. . P78 ... : ... .. . P7A ...
ROW 07 : ... .. . P82 ... ... : ... .. A ... ... ... : ... .. . ... : ... .. 3 ... : ... .. . ... ... : C#3 01 5 P87 ... : G#2 01 5 P87 ... : A#2 01 8 P88 ...
ROW 08 : ... .. . P7E ... ... : D#2 00 D ... ... ... : ... .. . ... : ... .. F ... : ... .. . ... ... : ... .. . P77 ... : ... .. . P77 ... : ... .. . P78 ...
ROW 09 : B-3 00 5 P86 ... ... : ... .. B ... ... ... : ... .. . ... : ... .. C ... : ... .. . ... ... : C-3 01 5 P7F ... : G-2 01 5 P87 ... : A-2 01 8 P89 ...
ROW 0A : ... .. . P82 ... ... : ... .. . ... ... ... : ... .. . ... : ... .. 6 ... : ... .. . ... ... : B-2 01 5 P88 ... : ... .. . P77 ... : ... .. . P79 ...
ROW 0B : ... .. . P7E ... ... : ... .. A ... ... ... : --- .. . ... : ... .. 3 ... : ... .. . ... ... : ... .. . P78 ... : F#2 01 5 P89 ... : G#2 01 8 P8C ...
ROW 0C : ... .. . P7A V00 ... : G#2 00 D ... ... ... : E-2 00 . ... : ... .. F ... : ... .. . ... ... : A#2 01 5 P83 ... : ... .. . P79 ... : ... .. . P7C ...
ROW 0D : A#3 00 5 P84 ... ... : ... .. B ... ... ... : ... .. . ... : ... .. C ... : ... .. . ... ... : ... .. . P73 ... : F-2 01 5 P8D ... : G-2 01 8 P90 ...
ROW 0E : ... .. . P80 ... ... : ... .. . ... ... ... : ... .. . ... : ... .. 6 ... : ... .. . ... ... : A-2 01 5 P7F ... : ... .. . P7D ... : ... .. . P80 ...
ROW 0F : ... .. . P7C ... ... : ... .. A ... ... ... : ... .. . ... : ... .. 3 ... : ... .. . ... ... : G#2 01 5 P8E ... : E-2 01 5 P93 ... : ... .. . P70 ...
ROW 10 : A-3 00 5 P86 ... ... : C#3 00 D ... ... ... : ... .. . ... : ... .. F ... : ... .. . ... ... : ... .. . P7E ... : ... .. . P83 ... : F#2 01 8 P87 ...
ROW 11 : ... .. . P82 ... ... : ... .. B ... ... ... : --- .. . ... : ... .. C ... : ... .. . ... ... : G-2 01 5 P8E ... : ... .. . P73 ... : ... .. . P77 ...
ROW 12 : ... .. . P7E V01 ... : ... .. . ... ... ... : D#2 00 . ... : ... .. 6 ... : ... .. . ... ... : ... .. . P7E ... : D#2 01 5 P8B ... : F-2 01 8 P90 ...
ROW 13 : ... .. . P7A ... ... : ... .. A ... ... ... : ... .. . ... : ... .. 3 ... : ... .. . ... ... : F#2 01 5 P90 ... : ... .. . P7B ... : ... .. 4 P80 ...
ROW 14 : G#3 00 5 P85 ... ... : G#3 00 D ... ... ... : ... .. . ... : ... .. F ... : ... .. . ... ... : ... .. . P80 ... : ... .. 3 P6B ... : ... .. . P70 ...
ROW 15 : ... .. . P81 ... ... : ... .. B ... ... ... : ... .. . ... : ... .. C ... : ... .. . ... ... : ... .. . P70 ... : D-2 01 3 P86 ... : E-2 01 1 P8C ...
ROW 16 : ... .. . P7D ... ... : ... .. . ... ... ... : ... .. . ... : ... .. 6 ... : ... .. . ... ... : F-2 01 5 P84 ... : ... .. . P76 ... : ... .. . P7C ...
ROW 17 : ... .. . P79 ... ... : ... .. A ... ... ... : --- .. . ... : ... .. 3 ... : ... .. . ... ... : ... .. . P74 ... : C#2 01 3 P93 ... : ... .. . P6C ...
ROW 18 : A#4 00 F P80 ... ... : A#4 00 D ... ... ... : D-5 00 . ... : ... .. F ... : ... .. . ... ... : D#3 01 8 P80 ... : G#3 01 A P80 ... : A#3 01 F P7F ...
ROW 19 : ... .. E ... ... ... : ... .. B ... ... ... : E-4 00 . ... : ... .. C ... : ... .. . ... ... : ... .. 7 ... ... : ... .. 9 ... ... : ... .. D ... ...
ROW 1A : ... .. D ... ... ... : ... .. . ... ... ... : A-3 00 . ... : ... .. 6 ... : ... .. . ... ... : ... .. 6 ... ... : ... .. 8 ... ... : ... .. 8 ... ...
ROW 1B : ... .. A ... ... ... : ... .. A ... ... ... : G#3 00 . ... : ... .. 3 ... : ... .. . ... ... : ... .. 4 ... ... : ... .. 7 ... ... : ... .. . ... ...
ROW 1C : ... .. . ... ... ... : E-4 00 D ... ... ... : D#3 00 . ... : ... .. 2 ... : ... .. . ... ... : ... .. . ... ... : ... .. . ... ... : ... .. . ... ...
ROW 1D : ... .. . ... ... ... : ... .. B ... ... ... : ... .. . ... : ... .. 0 ... : ... .. . ... ... : ... .. 2 ... ... : ... .. 6 ... ... : ... .. . ... ...
ROW 1E : ... .. . ... V02 ... : ... .. . ... ... ... : D-3 00 . P75 : ... .. F ... : ... .. . ... ... : ... .. 8 ... ... : ... .. . ... ... : ... .. . ... ...
ROW 1F : ... .. . ... ... ... : ... .. A ... ... ... : C-3 00 . P84 : ... .. C ... : ... .. . ... ... : ... .. 7 ... ... : ... .. 5 ... ... : ... .. . ... ...
ROW 20 : ... .. . ... ... ... : D#4 00 D ... ... ... : B-2 00 . P7D : ... .. 6 ... : ... .. . ... ... : ... .. 6 ... ... : ... .. . ... ... : ... .. . ... ...
ROW 21 : ... .. . ... ... ... : ... .. B ... ... ... : A#2 00 . P78 : ... .. 3 ... : ... .. . ... ... : ... .. 5 ... ... : ... .. . ... ... : ... .. . ... ...
ROW 22 : ... .. . ... ... ... : ... .. . ... ... ... : A-2 00 . P74 : ... .. 2 ... : ... .. . ... ... : ... .. . ... ... : ... .. . ... ... : ... .. . ... ...
ROW 23 : ... .. . ... ... ... : ... .. A ... ... ... : --- .. . ... : ... .. 0 ... : ... .. . ... ... : ... .. 4 ... ... : ... .. . ... ... : ... .. . ... ...
ROW 24 : ... .. . ... V00 ... : A#3 00 D ... ... ... : D#3 00 . P80 : ... .. D ... : ... .. . ... ... : ... .. . ... ... : ... .. . ... ... : ... .. . ... ...
ROW 25 : ... .. . ... ... ... : ... .. B ... ... ... : ... .. . ... : ... .. B ... : ... .. . ... ... : ... .. . ... ... : ... .. . ... ... : ... .. . ... ...
ROW 26 : ... .. . ... ... ... : ... .. . ... ... ... : ... .. . ... : ... .. . ... : ... .. . ... ... : ... .. 2 ... ... : ... .. . ... ... : ... .. . ... ...
ROW 27 : ... .. . ... ... ... : ... .. A ... ... ... : ... .. . ... : ... .. A ... : ... .. . ... ... : ... .. . ... ... : ... .. . ... ... : ... .. . ... ...
ROW 28 : ... .. . ... ... ... : E-3 00 D ... ... ... : ... .. . ... : ... .. 8 ... : ... .. . ... ... : ... .. . ... ... : ... .. . ... ... : ... .. . ... ...
ROW 29 : ... .. . ... ... ... : ... .. B ... ... ... : --- .. . ... : ... .. 7 ... : ... .. . ... ... : ... .. . ... ... : ... .. . ... ... : ... .. . ... ...
ROW 2A : ... .. . ... V01 ... : ... .. . ... ... ... : D#3 00 . ... : ... .. 6 ... : ... .. . ... ... : ... .. 8 ... ... : ... .. . ... ... : ... .. . ... ...
ROW 2B : ... .. . ... ... ... : ... .. A ... ... ... : ... .. . ... : ... .. . ... : ... .. . ... ... : ... .. 7 ... ... : ... .. . ... ... : ... .. . ... ...
ROW 2C : ... .. . ... ... ... : D#3 00 D ... ... ... : ... .. . ... : ... .. 5 ... : ... .. . ... ... : ... .. 6 ... ... : ... .. . ... ... : ... .. . ... ...
ROW 2D : ... .. . ... ... ... : ... .. B ... ... ... : ... .. . ... : ... .. . ... : ... .. . ... ... : ... .. 4 ... ... : ... .. . ... ... : ... .. . ... ...
ROW 2E : ... .. . ... ... ... : ... .. . ... ... ... : ... .. . ... : ... .. 4 ... : ... .. . ... ... : ... .. . ... ... : ... .. . ... ... : ... .. . ... ...
ROW 2F : ... .. . ... ... ... : ... .. A ... ... ... : --- .. . ... : ... .. . ... : ... .. . ... ... : ... .. 2 ... ... : ... .. . ... ... : ... .. . ... ...
ROW 30 : ... .. . ... V02 ... : A#2 00 D ... ... ... : C-5 00 . ... : ... .. F ... : ... .. . ... ... : ... .. 8 ... ... : ... .. . ... ... : ... .. . ... ...
ROW 31 : ... .. . ... ... ... : ... .. B ... ... ... : D-4 00 . ... : ... .. C ... : ... .. . ... ... : ... .. 7 ... ... : ... .. . ... ... : ... .. . ... ...
ROW 32 : ... .. . ... ... ... : ... .. . ... ... ... : G-3 00 . ... : ... .. 6 ... : ... .. . ... ... : ... .. 6 ... ... : ... .. . ... ... : ... .. . ... ...
ROW 33 : ... .. . ... ... ... : ... .. A ... ... ... : F#3 00 . ... : ... .. 3 ... : ... .. . ... ... : ... .. 5 ... ... : ... .. . ... ... : ... .. . ... ...
ROW 34 : ... .. . ... ... ... : E-2 00 D ... ... ... : C#3 00 . ... : ... .. 2 ... : ... .. . ... ... : ... .. . ... ... : ... .. . ... ... : ... .. . ... ...
ROW 35 : ... .. . ... ... ... : ... .. B ... ... ... : --- .. . ... : ... .. 0 ... : ... .. . ... ... : ... .. 4 ... ... : ... .. . ... ... : ... .. . ... ...
ROW 36 : ... .. . ... V03 ... : ... .. . ... ... ... : D#3 00 . ... : ... .. F ... : ... .. . ... ... : ... .. . ... ... : ... .. . ... ... : ... .. . ... ...
ROW 37 : ... .. . ... ... ... : ... .. A ... ... ... : ... .. . ... : ... .. C ... : ... .. . ... ... : ... .. . ... ... : ... .. . ... ... : ... .. 4 ... ...
ROW 38 : ... .. . ... ... ... : D#2 00 D ... ... ... : ... .. . ... : ... .. 6 ... : ... .. . ... ... : ... .. 2 ... ... : ... .. 3 ... ... : ... .. . ... ...
ROW 39 : ... .. . ... ... ... : ... .. B ... ... ... : ... .. . ... : ... .. 3 ... : ... .. . ... ... : ... .. . ... ... : ... .. . ... ... : ... .. 1 ... ...
ROW 3A : ... .. . ... ... ... : ... .. . ... ... ... : ... .. . ... : ... .. 2 ... : ... .. . ... ... : ... .. . ... ... : ... .. . ... ... : ... .. . ... ...
ROW 3B : ... .. . ... ... ... : ... .. A ... ... ... : --- .. . ... : ... .. 0 ... : ... .. . ... ... : ... .. . ... ... : ... .. . ... ... : ... .. . ... ...
ROW 3C : B-4 00 F ... V02 ... : B-4 00 D ... ... ... : D#3 00 . ... : ... .. D ... : ... .. . ... ... : E-3 01 8 ... ... : A-3 01 A ... ... : B-3 01 F ... ...
ROW 3D : ... .. E ... ... ... : ... .. B ... ... ... : ... .. . ... : ... .. B ... : ... .. . ... ... : ... .. 7 ... ... : ... .. 9 ... ... : ... .. D ... ...
ROW 3E : ... .. D ... ... ... : ... .. . ... ... ... : ... .. . ... : ... .. . ... : ... .. . ... ... : ... .. 6 ... ... : ... .. 8 ... ... : ... .. 8 ... ...
ROW 3F : ... .. A ... ... ... : ... .. A ... ... ... : ... .. . ... : ... .. A ... : ... .. . ... ... : ... .. 4 ... ... : ... .. 7 ... ... : ... .. . ... ...
ROW 40 : ... .. . ... ... ... : F#4 00 D ... ... ... : ... .. . ... : ... .. 8 ... : ... .. . ... ... : ... .. . ... ... : ... .. . ... ... : ... .. . ... ...
ROW 41 : ... .. . ... ... ... : ... .. B ... ... ... : --- .. . ... : ... .. 7 ... : ... .. . ... ... : ... .. 2 ... ... : ... .. 6 ... ... : ... .. . ... ...
ROW 42 : ... .. . ... V00 ... : ... .. . ... ... ... : D#3 00 . ... : ... .. 6 ... : ... .. . ... ... : ... .. 8 ... ... : ... .. . ... ... : ... .. . ... ...
ROW 43 : ... .. . ... ... ... : ... .. A ... ... ... : ... .. . ... : ... .. . ... : ... .. . ... ... : ... .. 7 ... ... : ... .. 5 ... ... : ... .. . ... ...
ROW 44 : ... .. . ... ... ... : E-4 00 D ... ... ... : ... .. . ... : ... .. 5 ... : ... .. . ... ... : ... .. 6 ... ... : ... .. . ... ... : ... .. . ... ...
ROW 45 : ... .. . ... ... ... : ... .. B ... ... ... : ... .. . ... : ... .. . ... : ... .. . ... ... : ... .. 5 ... ... : ... .. . ... ... : ... .. . ... ...
ROW 46 : ... .. . ... ... ... : ... .. . ... ... ... : ... .. . ... : ... .. 4 ... : ... .. . ... ... : ... .. . ... ... : ... .. . ... ... : ... .. . ... ...
ROW 47 : ... .. . ... ... ... : ... .. A ... ... ... : --- .. . ... : ... .. . ... : ... .. . ... ... : ... .. 4 ... ... : ... .. . ... ... : ... .. . ... ...
ROW 48 : ... .. . ... V03 ... : B-3 00 D ... ... ... : D-5 00 . ... : ... .. F ... : ... .. . ... ... : ... .. . ... ... : ... .. . ... ... : ... .. . ... ...
ROW 49 : ... .. . ... ... ... : ... .. B ... ... ... : E-4 00 . ... : ... .. C ... : ... .. . ... ... : ... .. . ... ... : ... .. . ... ... : ... .. . ... ...
ROW 4A : ... .. . ... ... ... : ... .. . ... ... ... : A-3 00 . ... : ... .. 6 ... : ... .. . ... ... : ... .. 2 ... ... : ... .. . ... ... : ... .. . ... ...
ROW 4B : ... .. . ... ... ... : ... .. A ... ... ... : G#3 00 . ... : ... .. 3 ... : ... .. . ... ... : ... .. . ... ... : ... .. . ... ... : ... .. . ... ...
ROW 4C : ... .. . ... ... ... : F#3 00 D ... ... ... : D#3 00 . ... : ... .. 2 ... : ... .. . ... ... : ... .. . ... ... : ... .. . ... ... : ... .. . ... ...
ROW 4D : ... .. . ... ... ... : ... .. B ... ... ... : ... .. . ... : ... .. 0 ... : ... .. . ... ... : ... .. . ... ... : ... .. . ... ... : ... .. . ... ...
ROW 4E : ... .. . ... V02 ... : ... .. . ... ... ... : D-3 00 . P75 : ... .. F ... : ... .. . ... ... : ... .. 8 ... ... : ... .. . ... ... : ... .. . ... ...
ROW 4F : ... .. . ... ... ... : ... .. A ... ... ... : C-3 00 . P84 : ... .. C ... : ... .. . ... ... : ... .. 7 ... ... : ... .. . ... ... : ... .. . ... ...
ROW 50 : ... .. . ... ... ... : E-3 00 D ... ... ... : B-2 00 . P7D : ... .. 6 ... : ... .. . ... ... : ... .. 6 ... ... : ... .. . ... ... : ... .. . ... ...
ROW 51 : ... .. . ... ... ... : ... .. B ... ... ... : A#2 00 . P78 : ... .. 3 ... : ... .. . ... ... : ... .. 4 ... ... : ... .. . ... ... : ... .. . ... ...
ROW 52 : ... .. . ... ... ... : ... .. . ... ... ... : A-2 00 . P74 : ... .. 2 ... : ... .. . ... ... : ... .. . ... ... : ... .. . ... ... : ... .. . ... ...
ROW 53 : ... .. . ... ... ... : ... .. A ... ... ... : --- .. . ... : ... .. 0 ... : ... .. . ... ... : ... .. 2 ... ... : ... .. . ... ... : ... .. . ... ...
ROW 54 : ... .. . ... V00 ... : B-2 00 D ... ... ... : D#2 00 . P80 : ... .. D ... : ... .. . ... ... : ... .. 8 ... ... : ... .. . ... ... : ... .. . ... ...
ROW 55 : ... .. . ... ... ... : ... .. B ... ... ... : ... .. . ... : ... .. B ... : ... .. . ... ... : ... .. 7 ... ... : ... .. . ... ... : ... .. . ... ...
ROW 56 : ... .. . ... ... ... : ... .. . ... ... ... : ... .. . ... : ... .. . ... : ... .. . ... ... : ... .. 6 ... ... : ... .. . ... ... : ... .. . ... ...
ROW 57 : ... .. . ... ... ... : ... .. A ... ... ... : ... .. . ... : ... .. A ... : ... .. . ... ... : ... .. 5 ... ... : ... .. . ... ... : ... .. . ... ...
ROW 58 : ... .. . ... ... ... : F#2 00 D ... ... ... : ... .. . ... : ... .. 8 ... : ... .. . ... ... : ... .. . ... ... : ... .. . ... ... : ... .. . ... ...
ROW 59 : ... .. . ... ... ... : ... .. B ... ... ... : --- .. . ... : ... .. 7 ... : ... .. . ... ... : ... .. 4 ... ... : ... .. . ... ... : ... .. . ... ...
ROW 5A : ... .. . ... V02 ... : ... .. . ... ... ... : D#2 00 . ... : ... .. 6 ... : ... .. . ... ... : ... .. . ... ... : ... .. . ... ... : ... .. . ... ...
ROW 5B : ... .. . ... ... ... : ... .. A ... ... ... : ... .. . ... : ... .. . ... : ... .. . ... ... : ... .. . ... ... : ... .. . ... ... : ... .. . ... ...
ROW 5C : ... .. . ... ... ... : E-2 00 D ... ... ... : ... .. . ... : ... .. 5 ... : ... .. . ... ... : ... .. 2 ... ... : ... .. . ... ... : ... .. . ... ...
ROW 5D : ... .. . ... ... ... : ... .. B ... ... ... : ... .. . ... : ... .. . ... : ... .. . ... ... : ... .. . ... ... : ... .. . ... ... : ... .. . ... ...
ROW 5E : ... .. . ... ... ... : ... .. . ... ... ... : ... .. . ... : ... .. 4 ... : ... .. . ... ... : ... .. . ... ... : ... .. . ... ... : ... .. . ... ...
ROW 5F : ... .. . ... ... ... : ... .. A ... ... ... : --- .. . ... : ... .. . ... : ... .. . ... ... : ... .. . ... ... : ... .. . ... ... : ... .. . ... ...
ROW 60 : A#4 00 5 P83 V01 ... : B-1 00 D ... ... ... : C-4 00 . ... : ... .. F ... : ... .. . ... ... : ... .. 8 ... ... : G#3 01 5 P7F ... : A#3 01 8 P7E ...
ROW 61 : ... .. . P7F ... ... : ... .. B ... ... ... : D-3 00 . ... : ... .. C ... : ... .. . ... ... : ... .. 7 ... ... : G-3 01 5 ... ... : A-3 01 8 P7F ...
ROW 62 : A-4 00 5 P82 ... ... : ... .. . ... ... ... : G-2 00 . ... : ... .. 6 ... : ... .. . ... ... : ... .. 6 ... ... : F#3 01 5 P80 ... : G#3 01 8 P80 ...
ROW 63 : ... .. . P7E ... ... : ... .. A ... ... ... : F#2 00 . ... : ... .. 3 ... : ... .. . ... ... : ... .. 4 ... ... : F-3 01 5 P82 ... : G-3 01 8 P82 ...
ROW 64 : G#4 00 5 P82 ... ... : E-2 00 D ... ... ... : C#2 00 . ... : ... .. 2 ... : ... .. . ... ... : ... .. . ... ... : E-3 01 5 P85 ... : F#3 01 8 P86 ...
ROW 65 : ... .. . P7E ... ... : ... .. B ... ... ... : --- .. . ... : ... .. 0 ... : ... .. . ... ... : ... .. 2 ... ... : D#3 01 5 P8A ... : F-3 01 8 P8A ...
ROW 66 : G-4 00 5 P82 V02 ... : ... .. . ... ... ... : D#2 00 . ... : ... .. F ... : ... .. . ... ... : ... .. 8 ... ... : ... .. . P7A ... : ... .. . P7A ...
ROW 67 : ... .. . P7E ... ... : ... .. A ... ... ... : ... .. . ... : ... .. C ... : ... .. . ... ... : ... .. 7 ... ... : D-3 01 5 P7F ... : E-3 01 8 P80 ...
ROW 68 : F#4 00 5 P82 ... ... : F#2 00 D ... ... ... : ... .. . ... : ... .. 6 ... : ... .. . ... ... : ... .. 6 ... ... : C#3 01 5 P86 ... : D#3 01 8 P87 ...
ROW 69 : ... .. . P7E ... ... : ... .. B ... ... ... : ... .. . ... : ... .. 3 ... : ... .. . ... ... : ... .. 4 ... ... : ... .. . P76 ... : ... .. . P77 ...
ROW 6A : F-4 00 5 P83 ... ... : ... .. . ... ... ... : ... .. . ... : ... .. 2 ... : ... .. . ... ... : ... .. . ... ... : C-3 01 5 P7E ... : D-3 01 8 P7F ...
ROW 6B : ... .. . P7F ... ... : ... .. A ... ... ... : --- .. . ... : ... .. 0 ... : ... .. . ... ... : ... .. 2 ... ... : B-2 01 5 P87 ... : C#3 01 8 P89 ...
ROW 6C : E-4 00 5 P85 V00 ... : B-2 00 D ... ... ... : E-2 00 . ... : ... .. D ... : ... .. . ... ... : ... .. 8 ... ... : ... .. . P77 ... : ... .. . P79 ...
ROW 6D : ... .. . P81 ... ... : ... .. B ... ... ... : ... .. . ... : ... .. B ... : ... .. . ... ... : ... .. 7 ... ... : A#2 01 5 P82 ... : C-3 01 8 P85 ...
ROW 6E : ... .. . P7D ... ... : ... .. . ... ... ... : ... .. . ... : ... .. . ... : ... .. . ... ... : ... .. 6 ... ... : A-2 01 5 P8E ... : ... .. . P75 ...
ROW 6F : D#4 00 5 P83 ... ... : ... .. A ... ... ... : ... .. . ... : ... .. A ... : ... .. . ... ... : ... .. 4 ... ... : ... .. . P7E ... : B-2 01 8 P82 ...
ROW 70 : ... .. . P7F ... ... : E-3 00 D ... ... ... : ... .. . ... : ... .. 8 ... : ... .. . ... ... : ... .. . ... ... : G#2 01 5 P8D ... : ... .. . P72 ...
ROW 71 : D-4 00 5 P85 ... ... : ... .. B ... ... ... : --- .. . ... : ... .. 7 ... : ... .. . ... ... : ... .. 2 ... ... : ... .. . P7D ... : A#2 01 8 P80 ...
ROW 72 : ... .. . P81 V01 ... : ... .. . ... ... ... : D#2 00 . ... : ... .. 6 ... : ... .. . ... ... : ... .. 8 ... ... : G-2 01 5 P8D ... : ... .. . P70 ...
ROW 73 : ... .. . P7D ... ... : ... .. A ... ... ... : ... .. . ... : ... .. . ... : ... .. . ... ... : ... .. 7 ... ... : ... .. . P7D ... : A-2 01 4 P81 ...
ROW 74 : C#4 00 5 P85 ... ... : B-3 00 D ... ... ... : ... .. . ... : ... .. 5 ... : ... .. . ... ... : ... .. 6 ... ... : F#2 01 3 P8F ... : ... .. . P71 ...
ROW 75 : ... .. . P81 ... ... : ... .. B ... ... ... : ... .. . ... : ... .. . ... : ... .. . ... ... : ... .. 4 ... ... : ... .. . P7F ... : G#2 01 1 P84 ...
ROW 76 : ... .. . P7D ... ... : ... .. . ... ... ... : ... .. . ... : ... .. 4 ... : ... .. . ... ... : ... .. . ... ... : ... .. . P6F ... : ... .. . P74 ...
ROW 77 : C-4 00 5 P85 ... ... : ... .. A ... ... ... : --- .. . ... : ... .. . ... : ... .. . ... ... : ... .. 2 ... ... : F-2 01 3 P83 ... : G-2 01 1 P88 ...
ROW 78 : C#5 00 F P80 ... ... : C#5 00 D ... ... ... : D-5 00 . ... : ... .. F ... : ... .. . ... ... : F#3 01 8 ... ... : B-3 01 A P80 ... : C#4 01 F P7F ...
ROW 79 : ... .. E ... ... ... : ... .. B ... ... ... : E-4 00 . ... : ... .. C ... : ... .. . ... ... : ... .. 7 ... ... : ... .. 9 ... ... : ... .. D ... ...
ROW 7A : ... .. D ... ... ... : ... .. . ... ... ... : A-3 00 . ... : ... .. 6 ... : ... .. . ... ... : ... .. 6 ... ... : ... .. 8 ... ... : ... .. 8 ... ...
ROW 7B : ... .. A ... ... ... : ... .. A ... ... ... : G#3 00 . ... : ... .. 3 ... : ... .. . ... ... : ... .. 4 ... ... : ... .. 7 ... ... : ... .. . ... ...
ROW 7C : ... .. . ... ... ... : G#4 00 D ... ... ... : D#3 00 . ... : ... .. 2 ... : ... .. . ... ... : ... .. . ... ... : ... .. . ... ... : ... .. . ... ...
ROW 7D : ... .. . ... ... ... : ... .. B ... ... ... : ... .. . ... : ... .. 0 ... : ... .. . ... ... : ... .. 2 ... ... : ... .. 6 ... ... : ... .. . ... ...
ROW 7E : ... .. . ... V02 ... : ... .. . ... ... ... : D-3 00 . P75 : ... .. F ... : ... .. . ... ... : ... .. 8 ... ... : ... .. . ... ... : ... .. . ... ...
ROW 7F : ... .. . ... ... ... : ... .. A ... ... ... : C-3 00 . P84 : ... .. C ... : ... .. . ... ... : ... .. 7 ... ... : ... .. 5 ... ... : ... .. . ... ...
ROW 80 : ... .. . ... ... ... : F#4 00 D ... ... ... : B-2 00 . P7D : ... .. 6 ... : ... .. . ... ... : ... .. 6 ... ... : ... .. . ... ... : ... .. . ... ...
ROW 81 : ... .. . ... ... ... : ... .. B ... ... ... : A#2 00 . P78 : ... .. 3 ... : ... .. . ... ... : ... .. 5 ... ... : ... .. . ... ... : ... .. . ... ...
ROW 82 : ... .. . ... ... ... : ... .. . ... ... ... : A-2 00 . P74 : ... .. 2 ... : ... .. . ... ... : ... .. . ... ... : ... .. . ... ... : ... .. . ... ...
ROW 83 : ... .. . ... ... ... : ... .. A ... ... ... : --- .. . ... : ... .. 0 ... : ... .. . ... ... : ... .. 4 ... ... : ... .. . ... ... : ... .. . ... ...
ROW 84 : ... .. . ... V00 ... : C#4 00 D ... ... ... : D#3 00 . P80 : ... .. D ... : ... .. . ... ... : ... .. . ... ... : ... .. . ... ... : ... .. . ... ...
ROW 85 : ... .. . ... ... ... : ... .. B ... ... ... : ... .. . ... : ... .. B ... : ... .. . ... ... : ... .. . ... ... : ... .. . ... ... : ... .. . ... ...
ROW 86 : ... .. . ... ... ... : ... .. . ... ... ... : ... .. . ... : ... .. . ... : ... .. . ... ... : ... .. 2 ... ... : ... .. . ... ... : ... .. . ... ...
ROW 87 : ... .. . ... ... ... : ... .. A ... ... ... : ... .. . ... : ... .. A ... : ... .. . ... ... : ... .. . ... ... : ... .. . ... ... : ... .. . ... ...
ROW 88 : ... .. . ... ... ... : G#3 00 D ... ... ... : ... .. . ... : ... .. 8 ... : ... .. . ... ... : ... .. . ... ... : ... .. . ... ... : ... .. . ... ...
ROW 89 : ... .. . ... ... ... : ... .. B ... ... ... : --- .. . ... : ... .. 7 ... : ... .. . ... ... : ... .. . ... ... : ... .. . ... ... : ... .. . ... ...
ROW 8A : ... .. . ... V01 ... : ... .. . ... ... ... : D#3 00 . ... : ... .. 6 ... : ... .. . ... ... : ... .. 8 ... ... : ... .. . ... ... : ... .. . ... ...
ROW 8B : ... .. . ... ... ... : ... .. A ... ... ... : ... .. . ... : ... .. . ... : ... .. . ... ... : ... .. 7 ... ... : ... .. . ... ... : ... .. . ... ...
ROW 8C : ... .. . ... ... ... : F#3 00 D ... ... ... : ... .. . ... : ... .. 5 ... : ... .. . ... ... : ... .. 6 ... ... : ... .. . ... ... : ... .. . ... ...
ROW 8D : ... .. . ... ... ... : ... .. B ... ... ... : ... .. . ... : ... .. . ... : ... .. . ... ... : ... .. 4 ... ... : ... .. . ... ... : ... .. . ... ...
ROW 8E : ... .. . ... ... ... : ... .. . ... ... ... : ... .. . ... : ... .. 4 ... : ... .. . ... ... : ... .. . ... ... : ... .. . ... ... : ... .. . ... ...
ROW 8F : ... .. . ... ... ... : ... .. A ... ... ... : --- .. . ... : ... .. . ... : ... .. . ... ... : ... .. 2 ... ... : ... .. . ... ... : ... .. . ... ...
ROW 90 : ... .. . ... V02 ... : C#3 00 D ... ... ... : C-5 00 . ... : ... .. F ... : ... .. . ... ... : ... .. 8 ... ... : ... .. . ... ... : ... .. . ... ...
ROW 91 : ... .. . ... ... ... : ... .. B ... ... ... : D-4 00 . ... : ... .. C ... : ... .. . ... ... : ... .. 7 ... ... : ... .. . ... ... : ... .. . ... ...
ROW 92 : ... .. . ... ... ... : ... .. . ... ... ... : G-3 00 . ... : ... .. 6 ... : ... .. . ... ... : ... .. 6 ... ... : ... .. . ... ... : ... .. . ... ...
ROW 93 : ... .. . ... ... ... : ... .. A ... ... ... : F#3 00 . ... : ... .. 3 ... : ... .. . ... ... : ... .. 5 ... ... : ... .. . ... ... : ... .. . ... ...
ROW 94 : ... .. . ... ... ... : G#2 00 D ... ... ... : C#3 00 . ... : ... .. 2 ... : ... .. . ... ... : ... .. . ... ... : ... .. . ... ... : ... .. . ... ...
ROW 95 : ... .. . ... ... ... : ... .. B ... ... ... : --- .. . ... : ... .. 0 ... : ... .. . ... ... : ... .. 4 ... ... : ... .. . ... ... : ... .. . ... ...
ROW 96 : ... .. . ... V03 ... : ... .. . ... ... ... : D#3 00 . ... : ... .. F ... : ... .. . ... ... : ... .. . ... ... : ... .. . ... ... : ... .. . ... ...
ROW 97 : ... .. . ... ... ... : ... .. A ... ... ... : ... .. . ... : ... .. C ... : ... .. . ... ... : ... .. . ... ... : ... .. . ... ... : ... .. 4 ... ...
ROW 98 : ... .. . ... ... ... : F#2 00 D ... ... ... : ... .. . ... : ... .. 6 ... : ... .. . ... ... : ... .. 2 ... ... : ... .. 3 ... ... : ... .. . ... ...
ROW 99 : ... .. . ... ... ... : ... .. B ... ... ... : ... .. . ... : ... .. 3 ... : ... .. . ... ... : ... .. . ... ... : ... .. . ... ... : ... .. 1 ... ...
ROW 9A : ... .. . ... ... ... : ... .. . ... ... ... : ... .. . ... : ... .. 2 ... : ... .. . ... ... : ... .. . ... ... : ... .. . ... ... : ... .. . ... ...
ROW 9B : ... .. . ... ... ... : ... .. A ... ... ... : --- .. . ... : ... .. 0 ... : ... .. . ... ... : ... .. . ... ... : ... .. . ... ... : ... .. . ... ...
ROW 9C : ... .. . ... V02 ... : D#5 00 D ... ... ... : D#3 00 . ... : ... .. D ... : ... .. . ... ... : G#3 01 8 ... ... : C#4 01 A ... ... : D#4 01 F ... ...
ROW 9D : ... .. . ... ... ... : ... .. B ... ... ... : ... .. . ... : ... .. B ... : ... .. . ... ... : ... .. 7 ... ... : ... .. 9 ... ... : ... .. D ... ...
ROW 9E : ... .. . ... ... ... : ... .. . ... ... ... : ... .. . ... : ... .. . ... : ... .. . ... ... : ... .. 6 ... ... : ... .. 8 ... ... : ... .. 8 ... ...
ROW 9F : ... .. . ... ... ... : ... .. A ... ... ... : ... .. . ... : ... .. A ... : ... .. . ... ... : ... .. 4 ... ... : ... .. 5 ... ... : ... .. . ... ...
ROW A0 : ... .. . ... ... ... : A#4 00 D ... ... ... : ... .. . ... : ... .. 8 ... : ... .. . ... ... : ... .. . ... ... : ... .. . ... ... : ... .. 4 ... ...
ROW A1 : ... .. . ... ... ... : ... .. B ... ... ... : --- .. . ... : ... .. 7 ... : ... .. . ... ... : ... .. 2 ... ... : ... .. 3 ... ... : ... .. . ... ...
ROW A2 : D#5 00 F ... V00 ... : ... .. . ... ... ... : D#3 00 . ... : ... .. 6 ... : ... .. . ... ... : ... .. 8 ... ... : ... .. 8 ... ... : ... .. C ... ...
ROW A3 : ... .. E ... ... ... : ... .. A ... ... ... : ... .. . ... : ... .. . ... : ... .. . ... ... : ... .. 7 ... ... : ... .. 7 ... ... : ... .. A ... ...
ROW A4 : ... .. D ... ... ... : G#4 00 D ... ... ... : ... .. . ... : ... .. 5 ... : ... .. . ... ... : ... .. 6 ... ... : ... .. 6 ... ... : ... .. 6 ... ...
ROW A5 : ... .. 9 ... ... ... : ... .. B ... ... ... : ... .. . ... : ... .. . ... : ... .. . ... ... : ... .. 5 ... ... : ... .. 5 ... ... : ... .. . ... ...
ROW A6 : ... .. . ... ... ... : ... .. . ... ... ... : ... .. . ... : ... .. 4 ... : ... .. . ... ... : ... .. . ... ... : ... .. . ... ... : ... .. . ... ...
ROW A7 : ... .. . ... ... ... : ... .. A ... ... ... : --- .. . ... : ... .. . ... : ... .. . ... ... : ... .. 4 ... ... : ... .. 4 ... ... : ... .. . ... ...
ROW A8 : D#4 00 E ... V03 ... : D#4 00 D ... ... ... : D-5 00 . ... : 1-# 00 F ... : ... .. . ... ... : ... .. . ... ... : ... .. . ... ... : ... .. . ... ...
ROW A9 : ... .. D ... ... ... : ... .. B ... ... ... : E-4 00 . ... : ... .. C ... : ... .. . ... ... : ... .. . ... ... : ... .. . ... ... : ... .. 3 ... ...
ROW AA : ... .. C ... ... ... : ... .. . ... ... ... : A-3 00 . ... : ... .. 6 ... : ... .. . ... ... : ... .. 2 ... ... : ... .. 2 ... ... : ... .. . ... ...
ROW AB : ... .. 8 ... ... ... : ... .. A ... ... ... : G#3 00 . ... : ... .. 3 ... : ... .. . ... ... : ... .. . ... ... : ... .. . ... ... : ... .. 1 ... ...
ROW AC : ... .. 1 ... ... ... : A#3 00 D ... ... ... : D#3 00 . ... : ... .. 2 ... : ... .. . ... ... : ... .. . ... ... : ... .. . ... ... : ... .. . ... ...
ROW AD : ... .. . ... ... ... : ... .. B ... ... ... : ... .. . ... : ... .. 0 ... : ... .. . ... ... : ... .. . ... ... : ... .. . ... ... : ... .. . ... ...
ROW AE : C#5 00 D ... V02 ... : ... .. . ... ... ... : D-3 00 . P75 : ... .. F ... : ... .. . ... ... : ... .. 8 ... ... : ... .. 8 ... ... : ... .. C ... ...
ROW AF : ... .. C ... ... ... : ... .. A ... ... ... : C-3 00 . P84 : ... .. C ... : ... .. . ... ... : ... .. 7 ... ... : ... .. 7 ... ... : ... .. A ... ...
ROW B0 : ... .. B ... ... ... : G#3 00 D ... ... ... : B-2 00 . P7D : ... .. 6 ... : ... .. . ... ... : ... .. 6 ... ... : ... .. 6 ... ... : ... .. 6 ... ...
ROW B1 : ... .. 8 ... ... ... : ... .. B ... ... ... : A#2 00 . P78 : ... .. 3 ... : ... .. . ... ... : ... .. 4 ... ... : ... .. 4 ... ... : ... .. . ... ...
ROW B2 : ... .. . ... ... ... : ... .. . ... ... ... : A-2 00 . P74 : ... .. 2 ... : ... .. . ... ... : ... .. . ... ... : ... .. . ... ... : ... .. 3 ... ...
ROW B3 : ... .. . ... ... ... : ... .. A ... ... ... : --- .. . ... : ... .. 0 ... : ... .. . ... ... : ... .. 2 ... ... : ... .. 2 ... ... : ... .. . ... ...
ROW B4 : D#5 00 C ... V00 ... : D#3 00 D ... ... ... : D#2 00 . P80 : ... .. F ... : ... .. . ... ... : ... .. 8 ... ... : ... .. 8 ... ... : ... .. C ... ...
ROW B5 : ... .. B ... ... ... : ... .. B ... ... ... : ... .. . ... : ... .. C ... : ... .. . ... ... : ... .. 7 ... ... : ... .. 7 ... ... : ... .. A ... ...
ROW B6 : ... .. A ... ... ... : ... .. . ... ... ... : ... .. . ... : ... .. 6 ... : ... .. . ... ... : ... .. 6 ... ... : ... .. 6 ... ... : ... .. 6 ... ...
ROW B7 : ... .. 8 ... ... ... : ... .. A ... ... ... : ... .. . ... : ... .. 3 ... : ... .. . ... ... : ... .. 5 ... ... : ... .. 5 ... ... : ... .. . ... ...
ROW B8 : ... .. . ... ... ... : A#2 00 D ... ... ... : ... .. . ... : ... .. 2 ... : ... .. . ... ... : ... .. . ... ... : ... .. . ... ... : ... .. . ... ...
ROW B9 : ... .. . ... ... ... : ... .. B ... ... ... : --- .. . ... : ... .. 0 ... : ... .. . ... ... : ... .. 4 ... ... : ... .. 4 ... ... : ... .. . ... ...
ROW BA : G#5 00 B ... V02 ... : ... .. . ... ... ... : D#2 00 . ... : ... .. F ... : ... .. . ... ... : ... .. . ... ... : ... .. . ... ... : ... .. . ... ...
ROW BB : ... .. A ... ... ... : ... .. A ... ... ... : ... .. . ... : ... .. C ... : ... .. . ... ... : ... .. . ... ... : ... .. . ... ... : ... .. 3 ... ...
ROW BC : ... .. 9 ... ... ... : G#2 00 D ... ... ... : ... .. . ... : ... .. 6 ... : ... .. . ... ... : ... .. 2 ... ... : ... .. 2 ... ... : ... .. . ... ...
ROW BD : ... .. 7 ... ... ... : ... .. B ... ... ... : ... .. . ... : ... .. 3 ... : ... .. . ... ... : ... .. . ... ... : ... .. . ... ... : ... .. 1 ... ...
ROW BE : ... .. . ... ... ... : ... .. . ... ... ... : ... .. . ... : ... .. 2 ... : ... .. . ... ... : ... .. . ... ... : ... .. . ... ... : ... .. . ... ...
ROW BF : ... .. . ... ... ... : ... .. A ... ... ... : --- .. . ... : ... .. 0 ... : ... .. . ... ... : ... .. . ... ... : ... .. . ... ... : ... .. . ... ...
ROW C0 : F#5 00 A ... V01 ... : D#2 00 D ... ... ... : C-4 00 . ... : 9-# 00 D ... : ... .. . ... ... : G#5 01 9 ... V05 : C#6 01 F ... V00 : --- .. . ... ...
ROW C1 : ... .. 9 ... ... ... : ... .. B ... ... ... : D-3 00 . ... : ... .. B ... : ... .. . ... ... : ... .. 8 ... ... : ... .. D ... ... : ... .. . ... ...
ROW C2 : ... .. 8 ... ... ... : ... .. . ... ... ... : G-2 00 . ... : ... .. . ... : ... .. . ... ... : ... .. . ... ... : ... .. 8 ... ... : ... .. . ... ...
ROW C3 : ... .. 6 ... ... ... : ... .. A ... ... ... : F#2 00 . ... : ... .. A ... : ... .. . ... ... : ... .. 6 ... ... : ... .. . ... ... : ... .. . ... ...
ROW C4 : ... .. . ... ... ... : G#2 00 D ... ... ... : C#2 00 . ... : ... .. 8 ... : ... .. . ... ... : ... .. 5 ... ... : ... .. 4 ... ... : ... .. . ... ...
ROW C5 : ... .. . ... ... ... : ... .. B ... ... ... : --- .. . ... : ... .. 7 ... : ... .. . ... ... : ... .. . ... ... : ... .. . ... ... : ... .. . ... ...
ROW C6 : G#5 00 A ... V02 ... : ... .. . ... ... ... : D#2 00 . ... : 7-# 00 D ... : ... .. . ... ... : A#5 01 9 ... ... : D#6 01 F ... ... : ... .. . ... ...
ROW C7 : ... .. 9 ... ... ... : ... .. A ... ... ... : ... .. . ... : ... .. B ... : ... .. . ... ... : ... .. 8 ... ... : ... .. D ... ... : ... .. . ... ...
ROW C8 : ... .. 8 ... ... ... : A#2 00 D ... ... ... : ... .. . ... : ... .. . ... : ... .. . ... ... : ... .. . ... ... : ... .. 8 ... ... : ... .. . ... ...
ROW C9 : ... .. 6 ... ... ... : ... .. B ... ... ... : ... .. . ... : ... .. A ... : ... .. . ... ... : ... .. . ... ... : ... .. . ... ... : ... .. . ... ...
ROW CA : ... .. . ... ... ... : ... .. . ... ... ... : ... .. . ... : ... .. 8 ... : ... .. . ... ... : ... .. 7 ... ... : ... .. . ... ... : ... .. . ... ...
ROW CB : ... .. . ... ... ... : ... .. A ... ... ... : --- .. . ... : ... .. 7 ... : ... .. . ... ... : ... .. . ... ... : ... .. . ... ... : ... .. . ... ...
ROW CC : C#6 00 9 ... V00 ... : D#3 00 D ... ... ... : E-2 00 . ... : 5-# 00 D ... : ... .. . ... ... : G#5 01 2 ... ... : C#6 01 4 ... ... : ... .. . ... ...
ROW CD : ... .. 8 ... ... ... : ... .. B ... ... ... : ... .. . ... : ... .. B ... : ... .. . ... ... : ... .. . ... ... : ... .. 3 ... ... : ... .. . ... ...
ROW CE : ... .. 7 ... ... ... : ... .. . ... ... ... : ... .. . ... : ... .. . ... : ... .. . ... ... : ... .. . ... ... : ... .. 2 ... ... : ... .. . ... ...
ROW CF : ... .. 5 ... ... ... : ... .. A ... ... ... : ... .. . ... : ... .. A ... : ... .. . ... ... : ... .. 1 ... ... : ... .. . ... ... : ... .. . ... ...
ROW D0 : ... .. . ... ... ... : G#3 00 D ... ... ... : ... .. . ... : ... .. 8 ... : ... .. . ... ... : ... .. . ... ... : ... .. 1 ... ... : ... .. . ... ...
ROW D1 : ... .. . ... ... ... : ... .. B ... ... ... : --- .. . ... : ... .. 7 ... : ... .. . ... ... : ... .. . ... ... : ... .. . ... ... : ... .. . ... ...
ROW D2 : D#6 00 8 ... V01 ... : ... .. . ... ... ... : D#2 00 . ... : 4-# 00 D ... : ... .. . ... ... : A#5 01 2 ... ... : D#6 01 4 ... ... : ... .. . ... ...
ROW D3 : ... .. 7 ... ... ... : ... .. A ... ... ... : ... .. . ... : ... .. B ... : ... .. . ... ... : ... .. . ... ... : ... .. 3 ... ... : ... .. . ... ...
ROW D4 : ... .. 6 ... ... ... : D#4 00 D ... ... ... : ... .. . ... : ... .. . ... : ... .. . ... ... : ... .. . ... ... : ... .. 2 ... ... : ... .. . ... ...
ROW D5 : ... .. 5 ... ... ... : ... .. B ... ... ... : ... .. . ... : ... .. A ... : ... .. . ... ... : ... .. . ... ... : ... .. . ... ... : ... .. . ... ...
ROW D6 : ... .. . ... ... ... : ... .. . ... ... ... : ... .. . ... : ... .. 8 ... : ... .. . ... ... : ... .. 1 ... ... : ... .. . ... ... : ... .. . ... ...
ROW D7 : ... .. . ... ... ... : ... .. A ... ... ... : --- .. . ... : ... .. 7 ... : ... .. . ... ... : ... .. . ... ... : ... .. . ... ... : ... .. . ... ...
ROW D8 : ... .. . ... ... ... : A#3 00 9 ... ... ... : D-4 00 . ... : 9-# 00 F ... : ... .. . ... ... : G#2 01 6 ... ... : G#3 01 6 ... V03 : C#4 01 A ... ...
ROW D9 : ... .. . ... ... ... : ... .. 8 ... ... ... : E-3 00 . ... : ... .. . ... : ... .. . ... ... : ... .. 5 ... ... : ... .. . ... ... : ... .. 8 ... ...
ROW DA : ... .. . ... ... ... : ... .. . ... ... ... : A-2 00 . ... : ... .. . ... : ... .. . ... ... : ... .. . ... ... : ... .. 5 ... ... : ... .. 5 ... ...
ROW DB : ... .. . ... ... ... : ... .. 7 ... ... ... : G#2 00 . ... : ... .. E ... : ... .. . ... ... : ... .. . ... ... : ... .. 4 ... ... : ... .. 4 ... ...
ROW DC : ... .. . ... ... ... : ... .. 5 ... ... ... : D#2 00 . ... : ... .. . ... : ... .. . ... ... : ... .. 4 ... ... : ... .. . ... ... : ... .. . ... ...
ROW DD : ... .. . ... ... ... : ... .. . ... ... ... : ... .. . ... : ... .. . ... : ... .. . ... ... : ... .. . ... ... : ... .. 3 ... ... : ... .. . ... ...
ROW DE : ... .. . ... ... ... : F#3 00 9 ... ... ... : ... .. . ... : ... .. D ... : ... .. . ... ... : A#2 01 6 ... ... : ... .. . ... ... : ... .. . ... ...
ROW DF : ... .. . ... ... ... : ... .. 8 ... ... ... : ... .. . ... : ... .. . ... : ... .. . ... ... : ... .. 5 ... ... : ... .. . ... ... : ... .. . ... ...
ROW E0 : ... .. . ... ... ... : ... .. . ... ... ... : ... .. . ... : ... .. . ... : ... .. . ... ... : ... .. . ... ... : ... .. . ... ... : ... .. . ... ...
ROW E1 : ... .. 0 ... V00 ... : ... .. 7 ... ... ... : ... .. . ... : ... .. C ... : ... .. . ... ... : ... .. . ... ... : ... .. . ... ... : ... .. . ... ...
ROW E2 : ... .. . ... ... ... : ... .. 5 ... ... ... : ... .. . ... : ... .. . ... : ... .. . ... ... : ... .. 4 ... ... : ... .. . ... ... : ... .. . ... ...
ROW E3 : ... .. . ... ... ... : ... .. . ... ... ... : ... .. . ... : ... .. . ... : ... .. . ... ... : ... .. . ... ... : ... .. . ... ... : ... .. . ... ...
ROW E4 : A#3 00 F P80 V01 ... : D#3 00 9 ... ... ... : D-5 00 . ... : ... .. B ... : ... .. . ... ... : F-3 01 6 ... ... : ... .. . ... ... : ... .. . ... ...
ROW E5 : ... .. E ... ... ... : ... .. 8 ... ... ... : E-4 00 . ... : ... .. . ... : ... .. . ... ... : ... .. 5 ... ... : ... .. . ... ... : ... .. . ... ...
ROW E6 : ... .. D ... ... ... : ... .. . ... ... ... : A-3 00 . ... : ... .. . ... : ... .. . ... ... : ... .. . ... ... : ... .. . ... ... : ... .. . ... ...
ROW E7 : ... .. A ... ... ... : ... .. 7 ... ... ... : G#3 00 . ... : ... .. A ... : ... .. . ... ... : ... .. . ... ... : ... .. 2 ... ... : ... .. . ... ...
ROW E8 : ... .. . ... ... ... : ... .. 5 ... ... ... : D#3 00 . ... : ... .. . ... : ... .. . ... ... : ... .. 4 ... ... : ... .. . ... ... : ... .. . ... ...
ROW E9 : ... .. . ... ... ... : ... .. . ... ... ... : ... .. . ... : ... .. . ... : ... .. . ... ... : ... .. . ... ... : ... .. . ... ... : ... .. . ... ...
ROW EA : G#4 00 F ... ... ... : A#3 00 9 ... ... ... : ... .. . ... : ... .. 9 ... : ... .. . ... ... : C#3 01 6 ... ... : ... .. . ... ... : ... .. . ... ...
ROW EB : A-4 00 E P81 ... ... : ... .. 8 ... ... ... : ... .. . ... : ... .. . ... : ... .. . ... ... : ... .. 5 ... ... : ... .. . ... ... : ... .. . ... ...
ROW EC : A#4 00 D P80 ... ... : ... .. . ... ... ... : ... .. . ... : ... .. . ... : ... .. . ... ... : ... .. . ... ... : ... .. . ... ... : ... .. . ... ...
ROW ED : ... .. A ... ... ... : ... .. 7 ... ... ... : ... .. . ... : ... .. 8 ... : ... .. . ... ... : ... .. . ... ... : ... .. . ... ... : ... .. . ... ...
ROW EE : ... .. . ... ... ... : ... .. 5 ... ... ... : ... .. . ... : ... .. . ... : ... .. . ... ... : ... .. 4 ... ... : ... .. . ... ... : ... .. . ... ...
ROW EF : ... .. . ... ... ... : ... .. . ... ... ... : ... .. . ... : ... .. . ... : ... .. . ... ... : ... .. . ... ... : ... .. . ... ... : ... .. . ... ...
ROW F0 : G#4 00 F ... ... ... : F#3 00 9 ... ... ... : D-5 00 . ... : ... .. 7 ... : ... .. . ... ... : D#3 01 6 ... ... : ... .. . ... ... : ... .. . ... ...
ROW F1 : ... .. E ... ... ... : ... .. 8 ... ... ... : E-4 00 . ... : ... .. . ... : ... .. . ... ... : ... .. 5 ... ... : ... .. . ... ... : ... .. . ... ...
ROW F2 : ... .. D ... ... ... : ... .. . ... ... ... : A-3 00 . ... : ... .. . ... : ... .. . ... ... : ... .. . ... ... : ... .. . ... ... : ... .. . ... ...
ROW F3 : ... .. A ... ... ... : ... .. 7 ... ... ... : G#3 00 . ... : ... .. 6 ... : ... .. . ... ... : ... .. . ... ... : ... .. . ... ... : ... .. 3 ... ...
ROW F4 : ... .. . ... ... ... : ... .. 5 ... ... ... : D#3 00 . ... : ... .. . ... : ... .. . ... ... : ... .. 4 ... ... : ... .. . ... ... : ... .. . ... ...
ROW F5 : ... .. . ... ... ... : ... .. . ... ... ... : --- .. . ... : ... .. . ... : ... .. . ... ... : ... .. . ... ... : ... .. . ... ... : ... .. . ... ...
ROW F6 : ... .. . ... ... ... : D#3 00 9 ... ... ... : D-5 00 . ... : ... .. 5 ... : ... .. . ... ... : G#3 01 6 ... ... : ... .. . ... ... : ... .. . ... ...
ROW F7 : ... .. . ... ... ... : ... .. 8 ... ... ... : E-4 00 . ... : ... .. . ... : ... .. . ... ... : ... .. 5 ... ... : ... .. . ... ... : ... .. . ... ...
ROW F8 : ... .. . ... ... ... : ... .. . ... ... ... : A-3 00 . ... : ... .. . ... : ... .. . ... ... : ... .. . ... ... : ... .. . ... ... : ... .. . ... ...
ROW F9 : ... .. . ... ... ... : ... .. 7 ... ... ... : G#3 00 . ... : ... .. 4 ... : ... .. . ... ... : ... .. . ... ... : ... .. . ... ... : ... .. . ... ...
ROW FA : ... .. . ... ... ... : ... .. 5 ... ... ... : D#3 00 . ... : ... .. . ... : ... .. . ... ... : ... .. 4 ... ... : ... .. . ... ... : ... .. . ... ...
ROW FB : ... .. . ... ... ... : ... .. . ... ... ... : --- .. . ... : ... .. . ... : ... .. . ... ... : ... .. . ... ... : ... .. . ... ... : ... .. . ... ...
ROW FC : ... .. . ... ... ... : A#3 00 9 ... ... ... : C#3 00 . ... : 7-# 00 F ... : ... .. . ... ... : F#3 01 6 ... ... : ... .. . ... ... : ... .. . ... ...
ROW FD : ... .. . ... ... ... : ... .. 8 ... ... ... : ... .. . ... : ... .. C ... : ... .. . ... ... : ... .. 5 ... ... : ... .. . ... ... : ... .. . ... ...
ROW FE : ... .. . ... ... ... : ... .. . ... ... ... : ... .. . ... : ... .. A ... : ... .. . ... ... : ... .. . ... ... : ... .. . ... ... : ... .. . ... ...
ROW FF : ... .. . ... ... ... : ... .. 7 ... ... ... : ... .. . ... : ... .. 8 ... : ... .. . ... ... : ... .. . ... ... : ... .. . ... ... : ... .. . ... ...

PATTERN 1C
ROW 00 : ... .. . ... ... ... : ... .. 5 ... ... ... : ... .. . ... : ... .. 7 ... : ... .. . ... ... : ... .. 4 ... ... : ... .. . ... ... : ... .. . ... ...
ROW 01 : ... .. . ... ... ... : ... .. . ... ... ... : --- .. . ... : ... .. 4 ... : ... .. . ... ... : ... .. . ... ... : ... .. . ... ... : ... .. . ... ...
ROW 02 : ... .. . P84 ... ... : F#3 00 9 ... ... ... : D#3 00 . ... : C-# 00 4 ... : ... .. . ... ... : C#4 01 6 ... ... : ... .. . ... ... : ... .. . ... ...
ROW 03 : A-4 00 A P7E ... ... : ... .. 8 ... ... ... : ... .. . ... : ... .. 3 ... : ... .. . ... ... : ... .. 5 ... ... : ... .. . ... ... : ... .. . ... ...
ROW 04 : ... .. . P7D ... ... : ... .. . ... ... ... : ... .. . ... : ... .. 1 ... : ... .. . ... ... : ... .. . ... ... : ... .. . ... ... : ... .. . ... ...
ROW 05 : G#4 00 A P82 ... ... : ... .. 7 ... ... ... : ... .. . ... : ... .. . ... : ... .. . ... ... : ... .. . ... ... : ... .. . ... ... : ... .. . ... ...
ROW 06 : ... .. . P7E ... ... : ... .. 5 ... ... ... : ... .. . ... : ... .. . ... : ... .. . ... ... : ... .. 4 ... ... : ... .. . ... ... : ... .. . ... ...
ROW 07 : G-4 00 A P83 ... ... : ... .. . ... ... ... : --- .. . ... : ... .. 0 ... : ... .. . ... ... : ... .. . ... ... : ... .. . ... ... : ... .. . ... ...
ROW 08 : ... .. . P82 ... ... : C-4 00 9 ... ... ... : D-4 00 . ... : 1-# 00 F ... : ... .. . ... ... : G#3 01 6 ... ... : A#3 01 4 ... ... : D#4 01 6 ... ...
ROW 09 : ... .. . P84 ... ... : ... .. 8 ... ... ... : E-3 00 . ... : ... .. C ... : ... .. . ... ... : ... .. 5 ... ... : ... .. 3 ... ... : ... .. 5 ... ...
ROW 0A : G#4 00 A P80 ... ... : ... .. . ... ... ... : A-2 00 . ... : ... .. 6 ... : ... .. . ... ... : ... .. . ... ... : ... .. . ... ... : ... .. 3 ... ...
ROW 0B : ... .. . P83 ... ... : ... .. 7 ... ... ... : G#2 00 . ... : ... .. 3 ... : ... .. . ... ... : ... .. . ... ... : ... .. 2 ... ... : ... .. . ... ...
ROW 0C : A-4 00 A P7E ... ... : ... .. 5 ... ... ... : D#2 00 . ... : ... .. 2 ... : ... .. . ... ... : ... .. 4 ... ... : ... .. . ... ... : ... .. . ... ...
ROW 0D : ... .. . ... ... ... : ... .. . ... ... ... : --- .. . ... : ... .. 0 ... : ... .. . ... ... : ... .. . ... ... : ... .. . ... ... : ... .. . ... ...
ROW 0E : G#4 00 A P82 ... ... : G#3 00 9 ... ... ... : D-4 00 . ... : ... .. F ... : ... .. . ... ... : A#3 01 6 ... ... : ... .. . ... ... : ... .. . ... ...
ROW 0F : ... .. . P7F ... ... : ... .. 8 ... ... ... : E-3 00 . ... : ... .. C ... : ... .. . ... ... : ... .. 5 ... ... : ... .. . ... ... : ... .. . ... ...
ROW 10 : G-4 00 A P83 ... ... : ... .. . ... ... ... : A-2 00 . ... : ... .. 6 ... : ... .. . ... ... : ... .. . ... ... : ... .. . ... ... : ... .. . ... ...
ROW 11 : ... .. . P82 ... ... : ... .. 7 ... ... ... : G#2 00 . ... : ... .. 3 ... : ... .. . ... ... : ... .. . ... ... : ... .. . ... ... : ... .. . ... ...
ROW 12 : ... .. 2 P84 ... ... : ... .. 5 ... ... ... : D#2 00 . ... : ... .. 2 ... : ... .. . ... ... : ... .. 4 ... ... : ... .. . ... ... : ... .. . ... ...
ROW 13 : G#4 00 2 P80 ... ... : ... .. . ... ... ... : --- .. . ... : ... .. 0 ... : ... .. . ... ... : ... .. . ... ... : ... .. . ... ... : ... .. . ... ...
ROW 14 : A#3 00 F ... ... ... : D#3 00 9 ... ... ... : C-5 00 . ... : 7-# 00 F ... : ... .. . ... ... : F-4 01 6 ... ... : ... .. . ... ... : ... .. . ... ...
ROW 15 : ... .. E ... ... ... : ... .. 8 ... ... ... : D-4 00 . ... : ... .. C ... : ... .. . ... ... : ... .. 5 ... ... : ... .. . ... ... : ... .. . ... ...
ROW 16 : ... .. D ... ... ... : ... .. . ... ... ... : G-3 00 . ... : ... .. A ... : ... .. . ... ... : ... .. . ... ... : ... .. . ... ... : ... .. . ... ...
ROW 17 : ... .. A ... ... ... : ... .. 7 ... ... ... : F#3 00 . ... : ... .. 8 ... : ... .. . ... ... : ... .. . ... ... : ... .. . ... ... : ... .. . ... ...
ROW 18 : ... .. . ... ... ... : ... .. 5 ... ... ... : C#3 00 . ... : ... .. 7 ... : ... .. . ... ... : ... .. 4 ... ... : ... .. . ... ... : ... .. . ... ...
ROW 19 : ... .. . ... ... ... : ... .. . ... ... ... : --- .. . ... : ... .. 4 ... : ... .. . ... ... : ... .. . ... ... : ... .. . ... ... : ... .. . ... ...
ROW 1A : G#4 00 F ... V02 ... : C-4 00 9 ... ... ... : D#3 00 . ... : 1-# 00 F ... : ... .. . ... ... : C#4 01 6 ... ... : ... .. . ... ... : ... .. . ... ...
ROW 1B : ... .. E ... ... ... : ... .. 8 ... ... ... : ... .. . ... : ... .. C ... : ... .. . ... ... : ... .. 5 ... ... : ... .. . ... ... : ... .. . ... ...
ROW 1C : ... .. D ... ... ... : ... .. . ... ... ... : ... .. . ... : ... .. 6 ... : ... .. . ... ... : ... .. . ... ... : ... .. . ... ... : ... .. . ... ...
ROW 1D : ... .. A ... ... ... : ... .. 7 ... ... ... : ... .. . ... : ... .. 3 ... : ... .. . ... ... : ... .. . ... ... : ... .. . ... ... : ... .. . ... ...
ROW 1E : ... .. . ... ... ... : ... .. 5 ... ... ... : ... .. . ... : ... .. 2 ... : ... .. . ... ... : ... .. 4 ... ... : ... .. . ... ... : ... .. . ... ...
ROW 1F : ... .. . ... ... ... : ... .. . ... ... ... : ... .. . ... : ... .. . ... : ... .. . ... ... : ... .. . ... ... : ... .. . ... ... : ... .. . ... ...
ROW 20 : ... .. . ... ... ... : ... .. . ... ... ... : ... .. . ... : ... .. . ... : ... .. . ... ... : ... .. . ... ... : ... .. . ... ... : ... .. . ... ...
ROW 21 : ... .. . ... ... ... : ... .. . ... ... ... : ... .. . ... : ... .. . ... : ... .. . ... ... : ... .. . ... ... : ... .. . ... ... : ... .. . ... ...
ROW 22 : ... .. . ... ... ... : ... .. . ... ... ... : ... .. . ... : ... .. . ... : ... .. . ... ... : ... .. . ... ... : ... .. . ... ... : ... .. . ... ...
ROW 23 : ... .. . ... ... ... : ... .. . ... ... ... : ... .. . ... : ... .. . ... : ... .. . ... ... : ... .. . ... ... : ... .. . ... ... : ... .. . ... ...
ROW 24 : ... .. . ... ... ... : ... .. . ... ... ... : ... .. . ... : ... .. . ... : ... .. . ... ... : ... .. . ... ... : ... .. . ... ... : ... .. . ... ...
ROW 25 : ... .. . ... ... ... : ... .. . ... ... ... : ... .. . ... : ... .. . ... : ... .. . ... ... : ... .. . ... ... : ... .. . ... ... : ... .. . ... ...
ROW 26 : ... .. . ... ... ... : ... .. . ... ... ... : ... .. . ... : ... .. . ... : ... .. . ... ... : ... .. . ... ... : ... .. . ... ... : ... .. . ... ...
ROW 27 : ... .. . ... ... ... : ... .. . ... ... ... : ... .. . ... : ... .. . ... : ... .. . ... ... : ... .. . ... ... : ... .. . ... ... : ... .. . ... ...
ROW 28 : ... .. . ... ... ... : ... .. . ... ... ... : ... .. . ... : ... .. . ... : ... .. . ... ... : ... .. . ... ... : ... .. . ... ... : ... .. . ... ...
ROW 29 : ... .. . ... ... ... : ... .. . ... ... ... : ... .. . ... : ... .. . ... : ... .. . ... ... : ... .. . ... ... : ... .. . ... ... : ... .. . ... ...
ROW 2A : ... .. . ... ... ... : ... .. . ... ... ... : ... .. . ... : ... .. . ... : ... .. . ... ... : ... .. . ... ... : ... .. . ... ... : ... .. . ... ...
ROW 2B : ... .. . ... ... ... : ... .. . ... ... ... : ... .. . ... : ... .. . ... : ... .. . ... ... : ... .. . ... ... : ... .. . ... ... : ... .. . ... ...
ROW 2C : ... .. . ... ... ... : ... .. . ... ... ... : ... .. . ... : ... .. . ... : ... .. . ... ... : ... .. . ... ... : ... .. . ... ... : ... .. . ... ...
ROW 2D : ... .. . ... ... ... : ... .. . ... ... ... : ... .. . ... : ... .. . ... : ... .. . ... ... : ... .. . ... ... : ... .. . ... ... : ... .. . ... ...
ROW 2E : ... .. . ... ... ... : ... .. . ... ... ... : ... .. . ... : ... .. . ... : ... .. . ... ... : ... .. . ... ... : ... .. . ... ... : ... .. . ... ...
ROW 2F : ... .. . ... ... ... : ... .. . ... ... ... : ... .. . ... : ... .. . ... : ... .. . ... ... : ... .. . ... ... : ... .. . ... ... : ... .. . ... ...
ROW 30 : ... .. . ... ... ... : ... .. . ... ... ... : ... .. . ... : ... .. . ... : ... .. . ... ... : ... .. . ... ... : ... .. . ... ... : ... .. . ... ...
ROW 31 : ... .. . ... ... ... : ... .. . ... ... ... : ... .. . ... : ... .. . ... : ... .. . ... ... : ... .. . ... ... : ... .. . ... ... : ... .. . ... ...
ROW 32 : ... .. . ... ... ... : ... .. . ... ... ... : ... .. . ... : ... .. . ... : ... .. . ... ... : ... .. . ... ... : ... .. . ... ... : ... .. . ... ...
ROW 33 : ... .. . ... ... ... : ... .. . ... ... ... : ... .. . ... : ... .. . ... : ... .. . ... ... : ... .. . ... ... : ... .. . ... ... : ... .. . ... ...
ROW 34 : ... .. . ... ... ... : ... .. . ... ... ... : ... .. . ... : ... .. . ... : ... .. . ... ... : ... .. . ... ... : ... .. . ... ... : ... .. . ... ...
ROW 35 : ... .. . ... ... ... : ... .. . ... ... ... : ... .. . ... : ... .. . ... : ... .. . ... ... : ... .. . ... ... : ... .. . ... ... : ... .. . ... ...
ROW 36 : ... .. . ... ... ... : ... .. . ... ... ... : ... .. . ... : ... .. . ... : ... .. . ... ... : ... .. . ... ... : ... .. . ... ... : ... .. . ... ...
ROW 37 : ... .. . ... ... ... : ... .. . ... ... ... : ... .. . ... : ... .. . ... : ... .. . ... ... : ... .. . ... ... : ... .. . ... ... : ... .. . ... ...
ROW 38 : ... .. . ... ... ... : ... .. . ... ... ... : ... .. . ... : ... .. . ... : ... .. . ... ... : ... .. . ... ... : ... .. . ... ... : ... .. . ... ...
ROW 39 : ... .. . ... ... ... : ... .. . ... ... ... : ... .. . ... : ... .. . ... : ... .. . ... ... : ... .. . ... ... : ... .. . ... ... : ... .. . ... ...
ROW 3A : ... .. . ... ... ... : ... .. . ... ... ... : ... .. . ... : ... .. . ... : ... .. . ... ... : ... .. . ... ... : ... .. . ... ... : ... .. . ... ...
ROW 3B : ... .. . ... ... ... : ... .. . ... ... ... : ... .. . ... : ... .. . ... : ... .. . ... ... : ... .. . ... ... : ... .. . ... ... : ... .. . ... ...
ROW 3C : ... .. . ... ... ... : ... .. . ... ... ... : ... .. . ... : ... .. . ... : ... .. . ... ... : ... .. . ... ... : ... .. . ... ... : ... .. . ... ...
ROW 3D : ... .. . ... ... ... : ... .. . ... ... ... : ... .. . ... : ... .. . ... : ... .. . ... ... : ... .. . ... ... : ... .. . ... ... : ... .. . ... ...
ROW 3E : ... .. . ... ... ... : ... .. . ... ... ... : ... .. . ... : ... .. . ... : ... .. . ... ... : ... .. . ... ... : ... .. . ... ... : ... .. . ... ...
ROW 3F : ... .. . ... ... ... : ... .. . ... ... ... : ... .. . ... : ... .. . ... : ... .. . ... ... : ... .. . ... ... : ... .. . ... ... : ... .. . ... ...
ROW 40 : ... .. . ... ... ... : ... .. . ... ... ... : ... .. . ... : ... .. . ... : ... .. . ... ... : ... .. . ... ... : ... .. . ... ... : ... .. . ... ...
ROW 41 : ... .. . ... ... ... : ... .. . ... ... ... : ... .. . ... : ... .. . ... : ... .. . ... ... : ... .. . ... ... : ... .. . ... ... : ... .. . ... ...
ROW 42 : ... .. . ... ... ... : ... .. . ... ... ... : ... .. . ... : ... .. . ... : ... .. . ... ... : ... .. . ... ... : ... .. . ... ... : ... .. . ... ...
ROW 43 : ... .. . ... ... ... : ... .. . ... ... ... : ... .. . ... : ... .. . ... : ... .. . ... ... : ... .. . ... ... : ... .. . ... ... : ... .. . ... ...
ROW 44 : ... .. . ... ... ... : ... .. . ... ... ... : ... .. . ... : ... .. . ... : ... .. . ... ... : ... .. . ... ... : ... .. . ... ... : ... .. . ... ...
ROW 45 : ... .. . ... ... ... : ... .. . ... ... ... : ... .. . ... : ... .. . ... : ... .. . ... ... : ... .. . ... ... : ... .. . ... ... : ... .. . ... ...
ROW 46 : ... .. . ... ... ... : ... .. . ... ... ... : ... .. . ... : ... .. . ... : ... .. . ... ... : ... .. . ... ... : ... .. . ... ... : ... .. . ... ...
ROW 47 : ... .. . ... ... ... : ... .. . ... ... ... : ... .. . ... : ... .. . ... : ... .. . ... ... : ... .. . ... ... : ... .. . ... ... : ... .. . ... ...
ROW 48 : ... .. . ... ... ... : ... .. . ... ... ... : ... .. . ... : ... .. . ... : ... .. . ... ... : ... .. . ... ... : ... .. . ... ... : ... .. . ... ...
ROW 49 : ... .. . ... ... ... : ... .. . ... ... ... : ... .. . ... : ... .. . ... : ... .. . ... ... : ... .. . ... ... : ... .. . ... ... : ... .. . ... ...
ROW 4A : ... .. . ... ... ... : ... .. . ... ... ... : ... .. . ... : ... .. . ... : ... .. . ... ... : ... .. . ... ... : ... .. . ... ... : ... .. . ... ...
ROW 4B : ... .. . ... ... ... : ... .. . ... ... ... : ... .. . ... : ... .. . ... : ... .. . ... ... : ... .. . ... ... : ... .. . ... ... : ... .. . ... ...
ROW 4C : ... .. . ... ... ... : ... .. . ... ... ... : ... .. . ... : ... .. . ... : ... .. . ... ... : ... .. . ... ... : ... .. . ... ... : ... .. . ... ...
ROW 4D : ... .. . ... ... ... : ... .. . ... ... ... : ... .. . ... : ... .. . ... : ... .. . ... ... : ... .. . ... ... : ... .. . ... ... : ... .. . ... ...
ROW 4E : ... .. . ... ... ... : ... .. . ... ... ... : ... .. . ... : ... .. . ... : ... .. . ... ... : ... .. . ... ... : ... .. . ... ... : ... .. . ... ...
ROW 4F : ... .. . ... ... ... : ... .. . ... ... ... : ... .. . ... : ... .. . ... : ... .. . ... ... : ... .. . ... ... : ... .. . ... ... : ... .. . ... ...
ROW 50 : ... .. . ... ... ... : ... .. . ... ... ... : ... .. . ... : ... .. . ... : ... .. . ... ... : ... .. . ... ... : ... .. . ... ... : ... .. . ... ...
ROW 51 : ... .. . ... ... ... : ... .. . ... ... ... : ... .. . ... : ... .. . ... : ... .. . ... ... : ... .. . ... ... : ... .. . ... ... : ... .. . ... ...
ROW 52 : ... .. . ... ... ... : ... .. . ... ... ... : ... .. . ... : ... .. . ... : ... .. . ... ... : ... .. . ... ... : ... .. . ... ... : ... .. . ... ...
ROW 53 : ... .. . ... ... ... : ... .. . ... ... ... : ... .. . ... : ... .. . ... : ... .. . ... ... : ... .. . ... ... : ... .. . ... ... : ... .. . ... ...
ROW 54 : ... .. . ... ... ... : ... .. . ... ... ... : ... .. . ... : ... .. . ... : ... .. . ... ... : ... .. . ... ... : ... .. . ... ... : ... .. . ... ...
ROW 55 : ... .. . ... ... ... : ... .. . ... ... ... : ... .. . ... : ... .. . ... : ... .. . ... ... : ... .. . ... ... : ... .. . ... ... : ... .. . ... ...
ROW 56 : ... .. . ... ... ... : ... .. . ... ... ... : ... .. . ... : ... .. . ... : ... .. . ... ... : ... .. . ... ... : ... .. . ... ... : ... .. . ... ...
ROW 57 : ... .. . ... ... ... : ... .. . ... ... ... : ... .. . ... : ... .. . ... : ... .. . ... ... : ... .. . ... ... : ... .. . ... ... : ... .. . ... ...
ROW 58 : ... .. . ... ... ... : ... .. . ... ... ... : ... .. . ... : ... .. . ... : ... .. . ... ... : ... .. . ... ... : ... .. . ... ... : ... .. . ... ...
ROW 59 : ... .. . ... ... ... : ... .. . ... ... ... : ... .. . ... : ... .. . ... : ... .. . ... ... : ... .. . ... ... : ... .. . ... ... : ... .. . ... ...
ROW 5A : ... .. . ... ... ... : ... .. . ... ... ... : ... .. . ... : ... .. . ... : ... .. . ... ... : ... .. . ... ... : ... .. . ... ... : ... .. . ... ...
ROW 5B : ... .. . ... ... ... : ... .. . ... ... ... : ... .. . ... : ... .. . ... : ... .. . ... ... : ... .. . ... ... : ... .. . ... ... : ... .. . ... ...
ROW 5C : ... .. . ... ... ... : ... .. . ... ... ... : ... .. . ... : ... .. . ... : ... .. . ... ... : ... .. . ... ... : ... .. . ... ... : ... .. . ... ...
ROW 5D : ... .. . ... ... ... : ... .. . ... ... ... : ... .. . ... : ... .. . ... : ... .. . ... ... : ... .. . ... ... : ... .. . ... ... : ... .. . ... ...
ROW 5E : ... .. . ... ... ... : ... .. . ... ... ... : ... .. . ... : ... .. . ... : ... .. . ... ... : ... .. . ... ... : ... .. . ... ... : ... .. . ... ...
ROW 5F : ... .. . ... ... ... : ... .. . ... ... ... : ... .. . ... : ... .. . ... : ... .. . ... ... : ... .. . ... ... : ... .. . ... ... : ... .. . ... ...
ROW 60 : ... .. . ... ... ... : ... .. . ... ... ... : ... .. . ... : ... .. . ... : ... .. . ... ... : ... .. . ... ... : ... .. . ... ... : ... .. . ... ...
ROW 61 : ... .. . ... ... ... : ... .. . ... ... ... : ... .. . ... : ... .. . ... : ... .. . ... ... : ... .. . ... ... : ... .. . ... ... : ... .. . ... ...
ROW 62 : ... .. . ... ... ... : ... .. . ... ... ... : ... .. . ... : ... .. . ... : ... .. . ... ... : ... .. . ... ... : ... .. . ... ... : ... .. . ... ...
ROW 63 : ... .. . ... ... ... : ... .. . ... ... ... : ... .. . ... : ... .. . ... : ... .. . ... ... : ... .. . ... ... : ... .. . ... ... : ... .. . ... ...
ROW 64 : ... .. . ... ... ... : ... .. . ... ... ... : ... .. . ... : ... .. . ... : ... .. . ... ... : ... .. . ... ... : ... .. . ... ... : ... .. . ... ...
ROW 65 : ... .. . ... ... ... : ... .. . ... ... ... : ... .. . ... : ... .. . ... : ... .. . ... ... : ... .. . ... ... : ... .. . ... ... : ... .. . ... ...
ROW 66 : ... .. . ... ... ... : ... .. . ... ... ... : ... .. . ... : ... .. . ... : ... .. . ... ... : ... .. . ... ... : ... .. . ... ... : ... .. . ... ...
ROW 67 : ... .. . ... ... ... : ... .. . ... ... ... : ... .. . ... : ... .. . ... : ... .. . ... ... : ... .. . ... ... : ... .. . ... ... : ... .. . ... ...
ROW 68 : ... .. . ... ... ... : ... .. . ... ... ... : ... .. . ... : ... .. . ... : ... .. . ... ... : ... .. . ... ... : ... .. . ... ... : ... .. . ... ...
ROW 69 : ... .. . ... ... ... : ... .. . ... ... ... : ... .. . ... : ... .. . ... : ... .. . ... ... : ... .. . ... ... : ... .. . ... ... : ... .. . ... ...
ROW 6A : ... .. . ... ... ... : ... .. . ... ... ... : ... .. . ... : ... .. . ... : ... .. . ... ... : ... .. . ... ... : ... .. . ... ... : ... .. . ... ...
ROW 6B : ... .. . ... ... ... : ... .. . ... ... ... : ... .. . ... : ... .. . ... : ... .. . ... ... : ... .. . ... ... : ... .. . ... ... : ... .. . ... ...
ROW 6C : ... .. . ... ... ... : ... .. . ... ... ... : ... .. . ... : ... .. . ... : ... .. . ... ... : ... .. . ... ... : ... .. . ... ... : ... .. . ... ...
ROW 6D : ... .. . ... ... ... : ... .. . ... ... ... : ... .. . ... : ... .. . ... : ... .. . ... ... : ... .. . ... ... : ... .. . ... ... : ... .. . ... ...
ROW 6E : ... .. . ... ... ... : ... .. . ... ... ... : ... .. . ... : ... .. . ... : ... .. . ... ... : ... .. . ... ... : ... .. . ... ... : ... .. . ... ...
ROW 6F : ... .. . ... ... ... : ... .. . ... ... ... : ... .. . ... : ... .. . ... : ... .. . ... ... : ... .. . ... ... : ... .. . ... ... : ... .. . ... ...
ROW 70 : ... .. . ... ... ... : ... .. . ... ... ... : ... .. . ... : ... .. . ... : ... .. . ... ... : ... .. . ... ... : ... .. . ... ... : ... .. . ... ...
ROW 71 : ... .. . ... ... ... : ... .. . ... ... ... : ... .. . ... : ... .. . ... : ... .. . ... ... : ... .. . ... ... : ... .. . ... ... : ... .. . ... ...
ROW 72 : ... .. . ... ... ... : ... .. . ... ... ... : ... .. . ... : ... .. . ... : ... .. . ... ... : ... .. . ... ... : ... .. . ... ... : ... .. . ... ...
ROW 73 : ... .. . ... ... ... : ... .. . ... ... ... : ... .. . ... : ... .. . ... : ... .. . ... ... : ... .. . ... ... : ... .. . ... ... : ... .. . ... ...
ROW 74 : ... .. . ... ... ... : ... .. . ... ... ... : ... .. . ... : ... .. . ... : ... .. . ... ... : ... .. . ... ... : ... .. . ... ... : ... .. . ... ...
ROW 75 : ... .. . ... ... ... : ... .. . ... ... ... : ... .. . ... : ... .. . ... : ... .. . ... ... : ... .. . ... ... : ... .. . ... ... : ... .. . ... ...
ROW 76 : ... .. . ... ... ... : ... .. . ... ... ... : ... .. . ... : ... .. . ... : ... .. . ... ... : ... .. . ... ... : ... .. . ... ... : ... .. . ... ...
ROW 77 : ... .. . ... ... ... : ... .. . ... ... ... : ... .. . ... : ... .. . ... : ... .. . ... ... : ... .. . ... ... : ... .. . ... ... : ... .. . ... ...
ROW 78 : ... .. . ... ... ... : ... .. . ... ... ... : ... .. . ... : ... .. . ... : ... .. . ... ... : ... .. . ... ... : ... .. . ... ... : ... .. . ... ...
ROW 79 : ... .. . ... ... ... : ... .. . ... ... ... : ... .. . ... : ... .. . ... : ... .. . ... ... : ... .. . ... ... : ... .. . ... ... : ... .. . ... ...
ROW 7A : ... .. . ... ... ... : ... .. . ... ... ... : ... .. . ... : ... .. . ... : ... .. . ... ... : ... .. . ... ... : ... .. . ... ... : ... .. . ... ...
ROW 7B : ... .. . ... ... ... : ... .. . ... ... ... : ... .. . ... : ... .. . ... : ... .. . ... ... : ... .. . ... ... : ... .. . ... ... : ... .. . ... ...
ROW 7C : ... .. . ... ... ... : ... .. . ... ... ... : ... .. . ... : ... .. . ... : ... .. . ... ... : ... .. . ... ... : ... .. . ... ... : ... .. . ... ...
ROW 7D : ... .. . ... ... ... : ... .. . ... ... ... : ... .. . ... : ... .. . ... : ... .. . ... ... : ... .. . ... ... : ... .. . ... ... : ... .. . ... ...
ROW 7E : ... .. . ... ... ... : ... .. . ... ... ... : ... .. . ... : ... .. . ... : ... .. . ... ... : ... .. . ... ... : ... .. . ... ... : ... .. . ... ...
ROW 7F : ... .. . ... ... ... : ... .. . ... ... ... : ... .. . ... : ... .. . ... : ... .. . ... ... : ... .. . ... ... : ... .. . ... ... : ... .. . ... ...
ROW 80 : ... .. . ... ... ... : ... .. . ... ... ... : ... .. . ... : ... .. . ... : ... .. . ... ... : ... .. . ... ... : ... .. . ... ... : ... .. . ... ...
ROW 81 : ... .. . ... ... ... : ... .. . ... ... ... : ... .. . ... : ... .. . ... : ... .. . ... ... : ... .. . ... ... : ... .. . ... ... : ... .. . ... ...
ROW 82 : ... .. . ... ... ... : ... .. . ... ... ... : ... .. . ... : ... .. . ... : ... .. . ... ... : ... .. . ... ... : ... .. . ... ... : ... .. . ... ...
ROW 83 : ... .. . ... ... ... : ... .. . ... ... ... : ... .. . ... : ... .. . ... : ... .. . ... ... : ... .. . ... ... : ... .. . ... ... : ... .. . ... ...
ROW 84 : ... .. . ... ... ... : ... .. . ... ... ... : ... .. . ... : ... .. . ... : ... .. . ... ... : ... .. . ... ... : ... .. . ... ... : ... .. . ... ...
ROW 85 : ... .. . ... ... ... : ... .. . ... ... ... : ... .. . ... : ... .. . ... : ... .. . ... ... : ... .. . ... ... : ... .. . ... ... : ... .. . ... ...
ROW 86 : ... .. . ... ... ... : ... .. . ... ... ... : ... .. . ... : ... .. . ... : ... .. . ... ... : ... .. . ... ... : ... .. . ... ... : ... .. . ... ...
ROW 87 : ... .. . ... ... ... : ... .. . ... ... ... : ... .. . ... : ... .. . ... : ... .. . ... ... : ... .. . ... ... : ... .. . ... ... : ... .. . ... ...
ROW 88 : ... .. . ... ... ... : ... .. . ... ... ... : ... .. . ... : ... .. . ... : ... .. . ... ... : ... .. . ... ... : ... .. . ... ... : ... .. . ... ...
ROW 89 : ... .. . ... ... ... : ... .. . ... ... ... : ... .. . ... : ... .. . ... : ... .. . ... ... : ... .. . ... ... : ... .. . ... ... : ... .. . ... ...
ROW 8A : ... .. . ... ... ... : ... .. . ... ... ... : ... .. . ... : ... .. . ... : ... .. . ... ... : ... .. . ... ... : ... .. . ... ... : ... .. . ... ...
ROW 8B : ... .. . ... ... ... : ... .. . ... ... ... : ... .. . ... : ... .. . ... : ... .. . ... ... : ... .. . ... ... : ... .. . ... ... : ... .. . ... ...
ROW 8C : ... .. . ... ... ... : ... .. . ... ... ... : ... .. . ... : ... .. . ... : ... .. . ... ... : ... .. . ... ... : ... .. . ... ... : ... .. . ... ...
ROW 8D : ... .. . ... ... ... : ... .. . ... ... ... : ... .. . ... : ... .. . ... : ... .. . ... ... : ... .. . ... ... : ... .. . ... ... : ... .. . ... ...
ROW 8E : ... .. . ... ... ... : ... .. . ... ... ... : ... .. . ... : ... .. . ... : ... .. . ... ... : ... .. . ... ... : ... .. . ... ... : ... .. . ... ...
ROW 8F : ... .. . ... ... ... : ... .. . ... ... ... : ... .. . ... : ... .. . ... : ... .. . ... ... : ... .. . ... ... : ... .. . ... ... : ... .. . ... ...
ROW 90 : ... .. . ... ... ... : ... .. . ... ... ... : ... .. . ... : ... .. . ... : ... .. . ... ... : ... .. . ... ... : ... .. . ... ... : ... .. . ... ...
ROW 91 : ... .. . ... ... ... : ... .. . ... ... ... : ... .. . ... : ... .. . ... : ... .. . ... ... : ... .. . ... ... : ... .. . ... ... : ... .. . ... ...
ROW 92 : ... .. . ... ... ... : ... .. . ... ... ... : ... .. . ... : ... .. . ... : ... .. . ... ... : ... .. . ... ... : ... .. . ... ... : ... .. . ... ...
ROW 93 : ... .. . ... ... ... : ... .. . ... ... ... : ... .. . ... : ... .. . ... : ... .. . ... ... : ... .. . ... ... : ... .. . ... ... : ... .. . ... ...
ROW 94 : ... .. . ... ... ... : ... .. . ... ... ... : ... .. . ... : ... .. . ... : ... .. . ... ... : ... .. . ... ... : ... .. . ... ... : ... .. . ... ...
ROW 95 : ... .. . ... ... ... : ... .. . ... ... ... : ... .. . ... : ... .. . ... : ... .. . ... ... : ... .. . ... ... : ... .. . ... ... : ... .. . ... ...
ROW 96 : ... .. . ... ... ... : ... .. . ... ... ... : ... .. . ... : ... .. . ... : ... .. . ... ... : ... .. . ... ... : ... .. . ... ... : ... .. . ... ...
ROW 97 : ... .. . ... ... ... : ... .. . ... ... ... : ... .. . ... : ... .. . ... : ... .. . ... ... : ... .. . ... ... : ... .. . ... ... : ... .. . ... ...
ROW 98 : ... .. . ... ... ... : ... .. . ... ... ... : ... .. . ... : ... .. . ... : ... .. . ... ... : ... .. . ... ... : ... .. . ... ... : ... .. . ... ...
ROW 99 : ... .. . ... ... ... : ... .. . ... ... ... : ... .. . ... : ... .. . ... : ... .. . ... ... : ... .. . ... ... : ... .. . ... ... : ... .. . ... ...
ROW 9A : ... .. . ... ... ... : ... .. . ... ... ... : ... .. . ... : ... .. . ... : ... .. . ... ... : ... .. . ... ... : ... .. . ... ... : ... .. . ... ...
ROW 9B : ... .. . ... ... ... : ... .. . ... ... ... : ... .. . ... : ... .. . ... : ... .. . ... ... : ... .. . ... ... : ... .. . ... ... : ... .. . ... ...
ROW 9C : ... .. . ... ... ... : ... .. . ... ... ... : ... .. . ... : ... .. . ... : ... .. . ... ... : ... .. . ... ... : ... .. . ... ... : ... .. . ... ...
ROW 9D : ... .. . ... ... ... : ... .. . ... ... ... : ... .. . ... : ... .. . ... : ... .. . ... ... : ... .. . ... ... : ... .. . ... ... : ... .. . ... ...
ROW 9E : ... .. . ... ... ... : ... .. . ... ... ... : ... .. . ... : ... .. . ... : ... .. . ... ... : ... .. . ... ... : ... .. . ... ... : ... .. . ... ...
ROW 9F : ... .. . ... ... ... : ... .. . ... ... ... : ... .. . ... : ... .. . ... : ... .. . ... ... : ... .. . ... ... : ... .. . ... ... : ... .. . ... ...
ROW A0 : ... .. . ... ... ... : ... .. . ... ... ... : ... .. . ... : ... .. . ... : ... .. . ... ... : ... .. . ... ... : ... .. . ... ... : ... .. . ... ...
ROW A1 : ... .. . ... ... ... : ... .. . ... ... ... : ... .. . ... : ... .. . ... : ... .. . ... ... : ... .. . ... ... : ... .. . ... ... : ... .. . ... ...
ROW A2 : ... .. . ... ... ... : ... .. . ... ... ... : ... .. . ... : ... .. . ... : ... .. . ... ... : ... .. . ... ... : ... .. . ... ... : ... .. . ... ...
ROW A3 : ... .. . ... ... ... : ... .. . ... ... ... : ... .. . ... : ... .. . ... : ... .. . ... ... : ... .. . ... ... : ... .. . ... ... : ... .. . ... ...
ROW A4 : ... .. . ... ... ... : ... .. . ... ... ... : ... .. . ... : ... .. . ... : ... .. . ... ... : ... .. . ... ... : ... .. . ... ... : ... .. . ... ...
ROW A5 : ... .. . ... ... ... : ... .. . ... ... ... : ... .. . ... : ... .. . ... : ... .. . ... ... : ... .. . ... ... : ... .. . ... ... : ... .. . ... ...
ROW A6 : ... .. . ... ... ... : ... .. . ... ... ... : ... .. . ... : ... .. . ... : ... .. . ... ... : ... .. . ... ... : ... .. . ... ... : ... .. . ... ...
ROW A7 : ... .. . ... ... ... : ... .. . ... ... ... : ... .. . ... : ... .. . ... : ... .. . ... ... : ... .. . ... ... : ... .. . ... ... : ... .. . ... ...
ROW A8 : ... .. . ... ... ... : ... .. . ... ... ... : ... .. . ... : ... .. . ... : ... .. . ... ... : ... .. . ... ... : ... .. . ... ... : ... .. . ... ...
ROW A9 : ... .. . ... ... ... : ... .. . ... ... ... : ... .. . ... : ... .. . ... : ... .. . ... ... : ... .. . ... ... : ... .. . ... ... : ... .. . ... ...
ROW AA : ... .. . ... ... ... : ... .. . ... ... ... : ... .. . ... : ... .. . ... : ... .. . ... ... : ... .. . ... ... : ... .. . ... ... : ... .. . ... ...
ROW AB : ... .. . ... ... ... : ... .. . ... ... ... : ... .. . ... : ... .. . ... : ... .. . ... ... : ... .. . ... ... : ... .. . ... ... : ... .. . ... ...
ROW AC : ... .. . ... ... ... : ... .. . ... ... ... : ... .. . ... : ... .. . ... : ... .. . ... ... : ... .. . ... ... : ... .. . ... ... : ... .. . ... ...
ROW AD : ... .. . ... ... ... : ... .. . ... ... ... : ... .. . ... : ... .. . ... : ... .. . ... ... : ... .. . ... ... : ... .. . ... ... : ... .. . ... ...
ROW AE : ... .. . ... ... ... : ... .. . ... ... ... : ... .. . ... : ... .. . ... : ... .. . ... ... : ... .. . ... ... : ... .. . ... ... : ... .. . ... ...
ROW AF : ... .. . ... ... ... : ... .. . ... ... ... : ... .. . ... : ... .. . ... : ... .. . ... ... : ... .. . ... ... : ... .. . ... ... : ... .. . ... ...
ROW B0 : ... .. . ... ... ... : ... .. . ... ... ... : ... .. . ... : ... .. . ... : ... .. . ... ... : ... .. . ... ... : ... .. . ... ... : ... .. . ... ...
ROW B1 : ... .. . ... ... ... : ... .. . ... ... ... : ... .. . ... : ... .. . ... : ... .. . ... ... : ... .. . ... ... : ... .. . ... ... : ... .. . ... ...
ROW B2 : ... .. . ... ... ... : ... .. . ... ... ... : ... .. . ... : ... .. . ... : ... .. . ... ... : ... .. . ... ... : ... .. . ... ... : ... .. . ... ...
ROW B3 : ... .. . ... ... ... : ... .. . ... ... ... : ... .. . ... : ... .. . ... : ... .. . ... ... : ... .. . ... ... : ... .. . ... ... : ... .. . ... ...
ROW B4 : ... .. . ... ... ... : ... .. . ... ... ... : ... .. . ... : ... .. . ... : ... .. . ... ... : ... .. . ... ... : ... .. . ... ... : ... .. . ... ...
ROW B5 : ... .. . ... ... ... : ... .. . ... ... ... : ... .. . ... : ... .. . ... : ... .. . ... ... : ... .. . ... ... : ... .. . ... ... : ... .. . ... ...
ROW B6 : ... .. . ... ... ... : ... .. . ... ... ... : ... .. . ... : ... .. . ... : ... .. . ... ... : ... .. . ... ... : ... .. . ... ... : ... .. . ... ...
ROW B7 : ... .. . ... ... ... : ... .. . ... ... ... : ... .. . ... : ... .. . ... : ... .. . ... ... : ... .. . ... ... : ... .. . ... ... : ... .. . ... ...
ROW B8 : ... .. . ... ... ... : ... .. . ... ... ... : ... .. . ... : ... .. . ... : ... .. . ... ... : ... .. . ... ... : ... .. . ... ... : ... .. . ... ...
ROW B9 : ... .. . ... ... ... : ... .. . ... ... ... : ... .. . ... : ... .. . ... : ... .. . ... ... : ... .. . ... ... : ... .. . ... ... : ... .. . ... ...
ROW BA : ... .. . ... ... ... : ... .. . ... ... ... : ... .. . ... : ... .. . ... : ... .. . ... ... : ... .. . ... ... : ... .. . ... ... : ... .. . ... ...
ROW BB : ... .. . ... ... ... : ... .. . ... ... ... : ... .. . ... : ... .. . ... : ... .. . ... ... : ... .. . ... ... : ... .. . ... ... : ... .. . ... ...
ROW BC : ... .. . ... ... ... : ... .. . ... ... ... : ... .. . ... : ... .. . ... : ... .. . ... ... : ... .. . ... ... : ... .. . ... ... : ... .. . ... ...
ROW BD : ... .. . ... ... ... : ... .. . ... ... ... : ... .. . ... : ... .. . ... : ... .. . ... ... : ... .. . ... ... : ... .. . ... ... : ... .. . ... ...
ROW BE : ... .. . ... ... ... : ... .. . ... ... ... : ... .. . ... : ... .. . ... : ... .. . ... ... : ... .. . ... ... : ... .. . ... ... : ... .. . ... ...
ROW BF : ... .. . ... ... ... : ... .. . ... ... ... : ... .. . ... : ... .. . ... : ... .. . ... ... : ... .. . ... ... : ... .. . ... ... : ... .. . ... ...
ROW C0 : ... .. . ... ... ... : ... .. . ... ... ... : ... .. . ... : ... .. . ... : ... .. . ... ... : ... .. . ... ... : ... .. . ... ... : ... .. . ... ...
ROW C1 : ... .. . ... ... ... : ... .. . ... ... ... : ... .. . ... : ... .. . ... : ... .. . ... ... : ... .. . ... ... : ... .. . ... ... : ... .. . ... ...
ROW C2 : ... .. . ... ... ... : ... .. . ... ... ... : ... .. . ... : ... .. . ... : ... .. . ... ... : ... .. . ... ... : ... .. . ... ... : ... .. . ... ...
ROW C3 : ... .. . ... ... ... : ... .. . ... ... ... : ... .. . ... : ... .. . ... : ... .. . ... ... : ... .. . ... ... : ... .. . ... ... : ... .. . ... ...
ROW C4 : ... .. . ... ... ... : ... .. . ... ... ... : ... .. . ... : ... .. . ... : ... .. . ... ... : ... .. . ... ... : ... .. . ... ... : ... .. . ... ...
ROW C5 : ... .. . ... ... ... : ... .. . ... ... ... : ... .. . ... : ... .. . ... : ... .. . ... ... : ... .. . ... ... : ... .. . ... ... : ... .. . ... ...
ROW C6 : ... .. . ... ... ... : ... .. . ... ... ... : ... .. . ... : ... .. . ... : ... .. . ... ... : ... .. . ... ... : ... .. . ... ... : ... .. . ... ...
ROW C7 : ... .. . ... ... ... : ... .. . ... ... ... : ... .. . ... : ... .. . ... : ... .. . ... ... : ... .. . ... ... : ... .. . ... ... : ... .. . ... ...
ROW C8 : ... .. . ... ... ... : ... .. . ... ... ... : ... .. . ... : ... .. . ... : ... .. . ... ... : ... .. . ... ... : ... .. . ... ... : ... .. . ... ...
ROW C9 : ... .. . ... ... ... : ... .. . ... ... ... : ... .. . ... : ... .. . ... : ... .. . ... ... : ... .. . ... ... : ... .. . ... ... : ... .. . ... ...
ROW CA : ... .. . ... ... ... : ... .. . ... ... ... : ... .. . ... : ... .. . ... : ... .. . ... ... : ... .. . ... ... : ... .. . ... ... : ... .. . ... ...
ROW CB : ... .. . ... ... ... : ... .. . ... ... ... : ... .. . ... : ... .. . ... : ... .. . ... ... : ... .. . ... ... : ... .. . ... ... : ... .. . ... ...
ROW CC : ... .. . ... ... ... : ... .. . ... ... ... : ... .. . ... : ... .. . ... : ... .. . ... ... : ... .. . ... ... : ... .. . ... ... : ... .. . ... ...
ROW CD : ... .. . ... ... ... : ... .. . ... ... ... : ... .. . ... : ... .. . ... : ... .. . ... ... : ... .. . ... ... : ... .. . ... ... : ... .. . ... ...
ROW CE : ... .. . ... ... ... : ... .. . ... ... ... : ... .. . ... : ... .. . ... : ... .. . ... ... : ... .. . ... ... : ... .. . ... ... : ... .. . ... ...
ROW CF : ... .. . ... ... ... : ... .. . ... ... ... : ... .. . ... : ... .. . ... : ... .. . ... ... : ... .. . ... ... : ... .. . ... ... : ... .. . ... ...
ROW D0 : ... .. . ... ... ... : ... .. . ... ... ... : ... .. . ... : ... .. . ... : ... .. . ... ... : ... .. . ... ... : ... .. . ... ... : ... .. . ... ...
ROW D1 : ... .. . ... ... ... : ... .. . ... ... ... : ... .. . ... : ... .. . ... : ... .. . ... ... : ... .. . ... ... : ... .. . ... ... : ... .. . ... ...
ROW D2 : ... .. . ... ... ... : ... .. . ... ... ... : ... .. . ... : ... .. . ... : ... .. . ... ... : ... .. . ... ... : ... .. . ... ... : ... .. . ... ...
ROW D3 : ... .. . ... ... ... : ... .. . ... ... ... : ... .. . ... : ... .. . ... : ... .. . ... ... : ... .. . ... ... : ... .. . ... ... : ... .. . ... ...
ROW D4 : ... .. . ... ... ... : ... .. . ... ... ... : ... .. . ... : ... .. . ... : ... .. . ... ... : ... .. . ... ... : ... .. . ... ... : ... .. . ... ...
ROW D5 : ... .. . ... ... ... : ... .. . ... ... ... : ... .. . ... : ... .. . ... : ... .. . ... ... : ... .. . ... ... : ... .. . ... ... : ... .. . ... ...
ROW D6 : ... .. . ... ... ... : ... .. . ... ... ... : ... .. . ... : ... .. . ... : ... .. . ... ... : ... .. . ... ... : ... .. . ... ... : ... .. . ... ...
ROW D7 : ... .. . ... ... ... : ... .. . ... ... ... : ... .. . ... : ... .. . ... : ... .. . ... ... : ... .. . ... ... : ... .. . ... ... : ... .. . ... ...
ROW D8 : ... .. . ... ... ... : ... .. . ... ... ... : ... .. . ... : ... .. . ... : ... .. . ... ... : ... .. . ... ... : ... .. . ... ... : ... .. . ... ...
ROW D9 : ... .. . ... ... ... : ... .. . ... ... ... : ... .. . ... : ... .. . ... : ... .. . ... ... : ... .. . ... ... : ... .. . ... ... : ... .. . ... ...
ROW DA : ... .. . ... ... ... : ... .. . ... ... ... : ... .. . ... : ... .. . ... : ... .. . ... ... : ... .. . ... ... : ... .. . ... ... : ... .. . ... ...
ROW DB : ... .. . ... ... ... : ... .. . ... ... ... : ... .. . ... : ... .. . ... : ... .. . ... ... : ... .. . ... ... : ... .. . ... ... : ... .. . ... ...
ROW DC : ... .. . ... ... ... : ... .. . ... ... ... : ... .. . ... : ... .. . ... : ... .. . ... ... : ... .. . ... ... : ... .. . ... ... : ... .. . ... ...
ROW DD : ... .. . ... ... ... : ... .. . ... ... ... : ... .. . ... : ... .. . ... : ... .. . ... ... : ... .. . ... ... : ... .. . ... ... : ... .. . ... ...
ROW DE : ... .. . ... ... ... : ... .. . ... ... ... : ... .. . ... : ... .. . ... : ... .. . ... ... : ... .. . ... ... : ... .. . ... ... : ... .. . ... ...
ROW DF : ... .. . ... ... ... : ... .. . ... ... ... : ... .. . ... : ... .. . ... : ... .. . ... ... : ... .. . ... ... : ... .. . ... ... : ... .. . ... ...
ROW E0 : ... .. . ... ... ... : ... .. . ... ... ... : ... .. . ... : ... .. . ... : ... .. . ... ... : ... .. . ... ... : ... .. . ... ... : ... .. . ... ...
ROW E1 : ... .. . ... ... ... : ... .. . ... ... ... : ... .. . ... : ... .. . ... : ... .. . ... ... : ... .. . ... ... : ... .. . ... ... : ... .. . ... ...
ROW E2 : ... .. . ... ... ... : ... .. . ... ... ... : ... .. . ... : ... .. . ... : ... .. . ... ... : ... .. . ... ... : ... .. . ... ... : ... .. . ... ...
ROW E3 : ... .. . ... ... ... : ... .. . ... ... ... : ... .. . ... : ... .. . ... : ... .. . ... ... : ... .. . ... ... : ... .. . ... ... : ... .. . ... ...
ROW E4 : ... .. . ... ... ... : ... .. . ... ... ... : ... .. . ... : ... .. . ... : ... .. . ... ... : ... .. . ... ... : ... .. . ... ... : ... .. . ... ...
ROW E5 : ... .. . ... ... ... : ... .. . ... ... ... : ... .. . ... : ... .. . ... : ... .. . ... ... : ... .. . ... ... : ... .. . ... ... : ... .. . ... ...
ROW E6 : ... .. . ... ... ... : ... .. . ... ... ... : ... .. . ... : ... .. . ... : ... .. . ... ... : ... .. . ... ... : ... .. . ... ... : ... .. . ... ...
ROW E7 : ... .. . ... ... ... : ... .. . ... ... ... : ... .. . ... : ... .. . ... : ... .. . ... ... : ... .. . ... ... : ... .. . ... ... : ... .. . ... ...
ROW E8 : ... .. . ... ... ... : ... .. . ... ... ... : ... .. . ... : ... .. . ... : ... .. . ... ... : ... .. . ... ... : ... .. . ... ... : ... .. . ... ...
ROW E9 : ... .. . ... ... ... : ... .. . ... ... ... : ... .. . ... : ... .. . ... : ... .. . ... ... : ... .. . ... ... : ... .. . ... ... : ... .. . ... ...
ROW EA : ... .. . ... ... ... : ... .. . ... ... ... : ... .. . ... : ... .. . ... : ... .. . ... ... : ... .. . ... ... : ... .. . ... ... : ... .. . ... ...
ROW EB : ... .. . ... ... ... : ... .. . ... ... ... : ... .. . ... : ... .. . ... : ... .. . ... ... : ... .. . ... ... : ... .. . ... ... : ... .. . ... ...
ROW EC : ... .. . ... ... ... : ... .. . ... ... ... : ... .. . ... : ... .. . ... : ... .. . ... ... : ... .. . ... ... : ... .. . ... ... : ... .. . ... ...
ROW ED : ... .. . ... ... ... : ... .. . ... ... ... : ... .. . ... : ... .. . ... : ... .. . ... ... : ... .. . ... ... : ... .. . ... ... : ... .. . ... ...
ROW EE : ... .. . ... ... ... : ... .. . ... ... ... : ... .. . ... : ... .. . ... : ... .. . ... ... : ... .. . ... ... : ... .. . ... ... : ... .. . ... ...
ROW EF : ... .. . ... ... ... : ... .. . ... ... ... : ... .. . ... : ... .. . ... : ... .. . ... ... : ... .. . ... ... : ... .. . ... ... : ... .. . ... ...
ROW F0 : ... .. . ... ... ... : ... .. . ... ... ... : ... .. . ... : ... .. . ... : ... .. . ... ... : ... .. . ... ... : ... .. . ... ... : ... .. . ... ...
ROW F1 : ... .. . ... ... ... : ... .. . ... ... ... : ... .. . ... : ... .. . ... : ... .. . ... ... : ... .. . ... ... : ... .. . ... ... : ... .. . ... ...
ROW F2 : ... .. . ... ... ... : ... .. . ... ... ... : ... .. . ... : ... .. . ... : ... .. . ... ... : ... .. . ... ... : ... .. . ... ... : ... .. . ... ...
ROW F3 : ... .. . ... ... ... : ... .. . ... ... ... : ... .. . ... : ... .. . ... : ... .. . ... ... : ... .. . ... ... : ... .. . ... ... : ... .. . ... ...
ROW F4 : ... .. . ... ... ... : ... .. . ... ... ... : ... .. . ... : ... .. . ... : ... .. . ... ... : ... .. . ... ... : ... .. . ... ... : ... .. . ... ...
ROW F5 : ... .. . ... ... ... : ... .. . ... ... ... : ... .. . ... : ... .. . ... : ... .. . ... ... : ... .. . ... ... : ... .. . ... ... : ... .. . ... ...
ROW F6 : ... .. . ... ... ... : ... .. . ... ... ... : ... .. . ... : ... .. . ... : ... .. . ... ... : ... .. . ... ... : ... .. . ... ... : ... .. . ... ...
ROW F7 : ... .. . ... ... ... : ... .. . ... ... ... : ... .. . ... : ... .. . ... : ... .. . ... ... : ... .. . ... ... : ... .. . ... ... : ... .. . ... ...
ROW F8 : ... .. . ... ... ... : ... .. . ... ... ... : ... .. . ... : ... .. . ... : ... .. . ... ... : ... .. . ... ... : ... .. . ... ... : ... .. . ... ...
ROW F9 : ... .. . ... ... ... : ... .. . ... ... ... : ... .. . ... : ... .. . ... : ... .. . ... ... : ... .. . ... ... : ... .. . ... ... : ... .. . ... ...
ROW FA : ... .. . ... ... ... : ... .. . ... ... ... : ... .. . ... : ... .. . ... : ... .. . ... ... : ... .. . ... ... : ... .. . ... ... : ... .. . ... ...
ROW FB : ... .. . ... ... ... : ... .. . ... ... ... : ... .. . ... : ... .. . ... : ... .. . ... ... : ... .. . ... ... : ... .. . ... ... : ... .. . ... ...
ROW FC : ... .. . ... ... ... : ... .. . ... ... ... : ... .. . ... : ... .. . ... : ... .. . ... ... : ... .. . ... ... : ... .. . ... ... : ... .. . ... ...
ROW FD : ... .. . ... ... ... : ... .. . ... ... ... : ... .. . ... : ... .. . ... : ... .. . ... ... : ... .. . ... ... : ... .. . ... ... : ... .. . ... ...
ROW FE : ... .. . ... ... ... : ... .. . ... ... ... : ... .. . ... : ... .. . ... : ... .. . ... ... : ... .. . ... ... : ... .. . ... ... : ... .. . ... ...
ROW FF : ... .. . ... ... ... : ... .. . ... ... ... : ... .. . ... : ... .. . ... : ... .. . ... ... : ... .. . ... ... : ... .. . ... ... : ... .. . ... ...

# End of export
